<?xml version="1.0" standalone="no"?>
<!DOCTYPE svg PUBLIC "-//W3C//DTD SVG 1.1//EN" "http://www.w3.org/Graphics/SVG/1.1/DTD/svg11.dtd" >
<svg xmlns="http://www.w3.org/2000/svg">
<metadata></metadata>
<defs>
<font id="neoretrofillregular" horiz-adv-x="1000" >
<font-face units-per-em="1000" ascent="800" descent="-200" />
<missing-glyph horiz-adv-x="400" />
<glyph />
<glyph />
<glyph unicode="&#xd;" horiz-adv-x="400" />
<glyph unicode=" "  horiz-adv-x="400" />
<glyph unicode="&#x09;" horiz-adv-x="400" />
<glyph unicode="&#xa0;" horiz-adv-x="400" />
<glyph unicode="!" horiz-adv-x="306" d="M163 267q-3 -7 -3 -16q0 -4 1 -12.5t1 -13.5q0 -18 -20 -23q-13 -3 -21 -3q-26 0 -38 12q-2 60 -3 119q-3 71 -12 119q6 32 6 66q0 22 -3 67t-3 68q11 15 13 15h38q41 0 59 -7q-8 -78 -11 -195zM126 30q-20 0 -39 19q-13 10 -13 32q0 13 12 54q16 12 40 12q48 0 48 -44 q0 -22 -13 -45q-15 -28 -35 -28z" />
<glyph unicode="$" horiz-adv-x="792" d="M626 143q-2 -2 -5.5 -7.5t-5 -7.5t-25.5 -18q-76 -51 -140 -51q-26 0 -19 1q-16 -2 -18 -20q0 -11 -3 -32q-8 -4 -19 -4q-9 0 -26 5t-27 5l-4 -1q-6 7 -6 22v15q0 9 -2 13q-108 26 -139 37q-75 27 -118 77q6 10 23 24t22 24h14q104 -79 200 -95l5 6q-1 11 -1 32 q0 19 3.5 57t3.5 57q0 33 -9 56q-108 9 -146 25q-74 31 -74 115q0 94 45 136q30 28 88 44q71 20 93 32q-2 26 8 47h38q33 0 33 -25v-20q3 -6 16 -10q44 -10 118 -37q10 -8 16 -11q16 -10 31 -19q18 -12 25 -26q-11 -44 -45 -57q-77 62 -121 62q-18 0 -35 -6l-8 -8 q4 -54 4 -82q0 -35 -6 -73q15 -8 41.5 -9t37 -4t28.5 -10q22 -3 62 -18q37 3 58 -34q25 -45 25 -87q0 -61 -36 -120zM336 592l-6 5q-44 -4 -83 -30q-44 -30 -44 -70v-12q0 -16 17 -30q10 -8 25 -27q25 -19 57 -19q17 0 28 5q6 147 6 148v30zM510 332q-14 3 -43 9 q-18 -1 -53 -11v-188l6 -6q28 5 55 11q33 6 54 16q52 24 52 91q0 39 -16.5 55t-54.5 23z" />
<glyph unicode="&#x26;" horiz-adv-x="843" d="M578 53q-14 1 -35 26q-4 6 -13.5 15t-16.5 9q-9 0 -21 -17q-89 -48 -170 -48q-46 0 -80 15q-61 1 -112 48q-46 43 -65 105q-4 13 -4 25q0 40 59 99q7 8 21 21q11 9 39 20q36 13 44 18q-4 13 -25 57q-17 33 -17 59q0 44 32 71q16 15 68 40l44 22q20 8 50 8q72 0 161 -66 q-9 -20 -24 -63q-11 0 -22 8l-20 13q-47 24 -105 24q-18 0 -39 -6q-26 -7 -32 -19l-2 -2q-29 -29 -29 -37q0 -5 6 -15q12 -20 44 -45q38 -30 49 -43q42 -47 123 -144q8 -11 20 -15q4 -2 12 -4t12 -4q29 25 39 35q22 21 32 41q29 -9 66 -30v-9l-80 -111q64 -52 82 -89 q-12 -7 -44.5 -6t-46.5 -6zM307 321q-14 2 -20 2q-60 0 -115 -65q-23 -27 -23 -52q0 -30 14 -41q5 -4 21 -12q78 -39 142 -39q36 0 54 7l16 8q22 11 29 17q15 11 20 25q-42 54 -138 150z" />
<glyph unicode="(" horiz-adv-x="360" d="M312 -62q-24 -4 -37 -4q-45 0 -93 40q-23 19 -38 51t-15 61q0 14 5 35q7 27 8 34q3 22 3 50q0 71 -28 114q-7 11 -27.5 15t-25.5 14q2 14 12 39q6 -3 14 -3q25 0 46 33q18 29 18 56q0 21 -14 62t-14 63q0 5 3 27.5t7 35.5q24 87 99 117q13 5 37.5 5.5t34.5 3.5 q3 -21 3 -22q0 -10 -14.5 -13t-17.5 -10q-46 -35 -46 -118q0 -17 2.5 -51.5t2.5 -52.5q0 -46 -13 -79q-18 -8 -40 -36.5t-39 -36.5q2 -9 14 -16q9 -6 19 -11q2 -1 3 -3t4 -3l6 -6q48 -32 48 -118q0 -19 -3.5 -58.5t-3.5 -59.5q0 -91 71 -124q10 -12 10 -23v-4q-1 -2 -1 -4z " />
<glyph unicode=")" horiz-adv-x="365" d="M219 333q-40 -6 -50 -55q-10 -90 -10 -80q0 -17 2.5 -52.5t2.5 -53.5q0 -77 -42 -104q-9 -4 -27 -13q-6 -4 -18 -11q-54 -33 -80 -33h-8q-4 4 -4 11v7q1 5 1 8q7 6 42 22q27 13 35 29q11 23 11 93q0 102 0 92q2 53 20 88q0 18 33 44t33 38q0 14 -32 29q-21 10 -35.5 29.5 t-27.5 39.5q1 23 7 80q5 50 5 79q0 45 -6 62q-2 6 -11 21q-33 55 -77 55q-3 5 -3 10q0 20 16 20q48 0 92.5 -29.5t65.5 -73.5q14 -29 14 -66q0 -19 -5 -57.5t-5 -58.5q0 -45 21 -77q3 -15 31 -36q7 -4 17 -14t10 -18q0 -11 -18 -25z" />
<glyph unicode="," horiz-adv-x="313" d="M170 -47q-14 -5 -37 -35.5t-38 -30.5q-14 0 -25 13q-2 4 -2 7q0 5 9 11q7 3 14 7q17 13 27 36t19 45q-8 8 -28.5 10t-27.5 8q-12 10 -12 41q0 51 49 51q27 0 38 -11q4 -3 24 -31q10 -40 10 -62q0 -36 -20 -59z" />
<glyph unicode="-" horiz-adv-x="650" d="M506 289q-22 -6 -46 -6q-13 0 -38.5 1.5t-37.5 1.5q2 0 -40 -3l-45 -1q-92 -2 -93 -2q-59 0 -141 7q-4 20 -4 30q0 18 7 32q148 1 443 -9q1 9 1 -27q0 -16 -6 -24z" />
<glyph unicode="." horiz-adv-x="305" d="M178 90q-7 -10 -24 -20t-29 -10q-33 0 -44 30v31q0 44 47 44q34 0 50 -24q0 -4 2.5 -15.5t2.5 -17.5q0 -11 -5 -18z" />
<glyph unicode="/" horiz-adv-x="679" d="M527 664q-6 -7 -16 -22q0 -1 -2 -5l-1 -2v-1q-1 -1 -1 -2q-12 -19 -35 -56.5t-78.5 -143.5t-111.5 -212q-65 -122 -122 -205q-15 -4 -38 -4h-39v25q54 71 110 180q47 94 93 189q54 107 100 175q20 39 68 112q32 9 66 9q9 0 14 -1q2 -3 2 -11q0 -11 -9 -25z" />
<glyph unicode="0" horiz-adv-x="851" d="M687 193q-41 -52 -71 -80q-56 -51 -180 -51q-89 0 -145 10t-114 52.5t-83.5 95t-25.5 130.5q0 121 80 199q88 86 246 86q100 0 176 -24q10 -3 43.5 -27.5t40.5 -24.5q4 -3 10 -7q33 -30 51 -95q16 -55 16 -110q0 -98 -44 -154zM603 487q-57 71 -234 71q5 0 -23 -4 q-62 -16 -156 -88q-26 -47 -26 -113q0 -74 20 -116q28 -58 136 -88l18 -5q7 -3 16 -5q100 0 155 17q78 25 119 94q23 39 23 89q0 89 -48 148z" />
<glyph unicode="1" horiz-adv-x="452" d="M304 72q-5 3 -15 3q-5 0 -15.5 -1.5t-16.5 -1.5q-16 0 -22 12v409q-5 9 -13 9q-7 0 -12 -7q-20 -19 -53.5 -62t-53.5 -62q-24 4 -45 34q84 134 175 224q7 -4 16 -4q5 0 15 1t15 1q25 0 28 -20q2 -14 2 -52q0 -42 -4.5 -126.5t-4.5 -126.5q0 -39 4 -80q5 -51 5 -41v-8 q-1 -6 -1 -9q0 -9 2 -28.5t2 -29.5q0 -19 -8 -34z" />
<glyph unicode="2" horiz-adv-x="724" d="M594 116q-5 -22 -5 -26l1 -4q-15 -7 -33 -7q-8 0 -24.5 2t-25.5 2q-10 0 -30 -2.5t-30 -2.5q-28 0 -85.5 -1t-86.5 -1q-115 0 -207 4q22 155 121 225q40 28 106 51l92 30q52 20 84 48q26 23 26 51q0 17 -3 33q-39 48 -119 48q-36 0 -139 -22q-17 -4 -52.5 -21.5 t-56.5 -19.5q-13 21 -34 65q106 71 247 71q92 0 149 -23q31 -13 59 -38q33 -30 38 -59v-5q0 -80 -97 -149q-31 -22 -113 -42q-74 -18 -110 -52q-8 -8 -27 -24q-28 -24 -39 -38q-21 -25 -22 -49l17 -14h388q12 -7 12 -21q0 -6 -1 -9z" />
<glyph unicode="3" horiz-adv-x="796" d="M597 126q-8 -7 -24 -19q-8 -5 -25 -10q-53 -17 -199 -20q-8 0 -26.5 -1t-28.5 -1q4 0 -37 9q-89 20 -96 22q-54 15 -89 40q11 23 39 65q170 -71 269 -71q52 0 95 14q9 4 29 10q8 2 22 6q58 24 58 68q0 23 -10 46q-12 27 -31 35q-7 3 -21 5q-70 17 -182 24q-5 6 -5 16 q0 5 1.5 15t1.5 15t-1 8q114 4 177 27q11 15 23 30q13 19 13 35q0 18 -20 37q-55 52 -175 52q-94 0 -174 -55q-30 5 -47 65q19 7 57 22q6 4 19 11q54 30 155 30q126 0 215 -65q19 -14 27 -24q19 -28 19 -76q0 -49 -28 -79q-9 -10 -19 -18t-10 -13q0 -1 1 -1v-2 q32 -11 61 -36q32 -28 39 -58q3 -13 3 -26q0 -64 -76 -132z" />
<glyph unicode="4" horiz-adv-x="762" d="M639 218q-5 -6 -17 -6h-11q-5 0 -15 -3.5t-16 -3.5t-18.5 2t-19.5 2q-17 0 -27 -14q-2 -12 -2 -19q0 -10 2.5 -30t2.5 -30q0 -27 -16 -43q-8 4 -19 4q-6 0 -18 -1.5t-19 -1.5q-12 0 -24 6v111l-17 18h-330q87 105 175 210q103 124 179 206q6 -5 18 -5q8 0 24 2.5t24 2.5 q22 0 22 -20q0 -4 -1.5 -13t-1.5 -14q0 -208 3 -277q12 -1 49 -8q30 -5 49 -5q11 0 17 1q7 -12 7 -31v-40zM420 479l-8 10q-23 -22 -98 -121l-26 -30q-17 -20 -17 -32q0 -11 11 -13q13 2 38 2q81 0 102 8q-2 23 1 61q3 46 3 61q0 29 -6 54z" />
<glyph unicode="5" horiz-adv-x="790" d="M614 156q-85 -97 -291 -97q-37 0 -92 20q-79 29 -90 32q-10 10 -34 20.5t-34 19.5q14 38 36 60q180 -64 269 -64q67 0 126 26q39 17 54 33q21 22 21 58q0 26 -41 61q-6 4 -18 13q-28 18 -158 25q-35 2 -36 2q-4 0 -28 -4q-65 -11 -184 -46q-10 0 -10 9q0 3 1 8.5t1 8.5 q0 4 -1 6q4 63 4 140v144q112 10 270 10q38 0 113.5 -1t113.5 -1q-1 -9 1.5 -26t2.5 -24q0 -29 -21 -29q-6 0 -16 2q-110 -6 -159 -6q-30 0 -88 1h-88q-43 0 -50 -19v-107q7 -8 19 -8q7 0 19 4q71 24 132 24q48 0 114.5 -13t107.5 -32q30 -14 55 -66q23 -48 23 -85 q0 -49 -44 -99z" />
<glyph unicode="6" horiz-adv-x="820" d="M686 223q0 -6 -1 -8q-4 -17 -24 -44q-35 -48 -101 -72q-43 -16 -123 -28q-54 -8 -57 -8q-122 0 -222 71q-12 8 -32 26q-6 6 -17 25q-47 77 -47 168q0 103 61 172q51 57 156 99q58 23 97 23q169 0 277 -77q-16 -42 -33 -57q-91 69 -255 69q-18 0 -41 -9q-52 -20 -93 -58 q-46 -42 -60 -90q-4 -18 -15 -54q5 -1 14 -1q27 0 62 13q30 12 59 24q2 1 52.5 10t77.5 9q37 0 93.5 -10t88.5 -24q83 -35 83 -160v-9zM596 288q-59 55 -172 55q2 0 -57 -5q-82 -7 -113 -17q-61 -19 -89 -68q81 -113 202 -113q24 0 59 7q41 7 81 14q54 12 73 34t19 65 q0 15 -3 28z" />
<glyph unicode="7" horiz-adv-x="688" d="M523 568q-30 -53 -77 -152q-51 -109 -75 -154q-27 -50 -61 -97q-11 -13 -30 -40q-12 -20 -26 -48l-96 -3q26 75 80 160q16 23 41 62q3 10 11.5 30t26.5 55q27 42 77 129q3 6 3 12q0 8 -6.5 16.5t-14.5 8.5h-300q2 11 -2 28.5t-4 24.5q0 25 18 25h73q51 0 152 2t151 2h37 q24 -1 37 -1q7 -7 7 -14q0 -8 -22 -46z" />
<glyph unicode="8" horiz-adv-x="805" d="M566 98q-21 -4 -65 -15q-49 -14 -115 -14q-116 0 -227 48q-92 40 -92 102v13q-1 8 -1 13q0 57 22 83q30 24 61 49q19 13 27 33q-16 16 -27 23q-6 5 -18 16q-15 16 -17 64q-3 67 45 94q74 42 201 42q292 0 292 -141q0 -61 -51 -117q4 -14 21 -30l28 -26q39 -42 39 -98 q0 -52 -37 -90q-33 -34 -86 -49zM550 530q-1 2 -9 10q-34 34 -113 34q-8 0 -32 2q-20 2 -32 1l-76 -4q-43 -5 -69 -28q-22 -19 -22 -42q0 -25 30 -55q116 -31 184 -31q76 0 124 33q18 32 18 58q0 15 -3 22zM523 330q-32 9 -106 9h-27q-23 1 -36 1q-186 2 -207 -98 q-1 -6 4 -17q19 -42 67 -55q16 -5 89 -12q40 -4 58 -10q106 5 110 5q66 7 104 33q12 31 12 55q0 17 -6 30.5t-27.5 34t-34.5 24.5z" />
<glyph unicode="9" horiz-adv-x="821" d="M684 442q2 -2 4 -8q17 -45 17 -102q0 -52 -24 -85q-3 -7 -4.5 -7t-3.5 -2.5t-3 -3.5q-15 -19 -45 -56q-62 -67 -134 -95q-65 -25 -160 -25q-56 0 -124 25q-21 8 -116 50q-2 6 -2 10q0 10 13 28q16 22 18 28q18 -5 50.5 -21t46.5 -21q59 -21 124 -21q152 0 237 107 q3 9 19 36q14 23 14 36t-7 21q-30 -17 -93 -41q-94 -20 -185 -20q-165 0 -245 100q-15 53 -15 98q0 24 4 43q43 60 126 96q78 33 156 33q181 0 292 -135q18 -8 25 -26t13 -36l2 -5v-1zM578 472q-93 97 -233 97q-21 0 -62 -12q-101 -29 -123 -85q-7 -14 -7 -27q0 -27 29 -44 q63 -37 169 -37q127 0 224 62q14 0 14 9q0 7 -5.5 18.5t-5.5 18.5z" />
<glyph unicode=":" horiz-adv-x="305" d="M178 400q-7 -10 -24 -20t-29 -10q-33 0 -44 30v31q0 44 47 44q34 0 50 -24q0 -4 2.5 -15.5t2.5 -17.5q0 -11 -5 -18zM134 54q-16 0 -62 23q-3 14 -3 29q0 55 58 55q49 0 49 -56q0 -51 -42 -51z" />
<glyph unicode=";" horiz-adv-x="313" d="M123 344q-64 0 -64 46q0 30 42 55q16 10 22 10q8 0 20.5 -6t17.5 -7q22 -19 22 -48q0 -50 -60 -50zM170 -47q-14 -5 -37 -35.5t-38 -30.5q-14 0 -25 13q-2 4 -2 7q0 5 9 11q7 3 14 7q17 13 27 36t19 45q-8 8 -28.5 10t-27.5 8q-12 10 -12 41q0 51 49 51q27 0 38 -11 q4 -3 24 -31q10 -40 10 -62q0 -36 -20 -59z" />
<glyph unicode="&#x3c;" horiz-adv-x="1189" d="M1055 167q2 -17 -9 -39q-16 -29 -18 -37q-37 -25 -81 -25q-25 0 -39 7q-3 1 -16 9q-50 30 -50 62q0 55 34 77q31 0 41 -3q24 -6 29 -27q7 -9 7 -18q0 -13 -18 -32.5t-18 -29.5q0 -7 8 -17q9 -3 19 -3q14 0 52 18q32 34 32 77q0 48 -39 101t-84 69q-23 8 -55 8 q-50 0 -100 -29q-32 -19 -87 -66t-83 -64q-7 -3 -19 -11q-4 -3 -13 -14q-16 -16 -36 -32q-100 -80 -205 -80q-34 0 -90 17l-39 12q-34 14 -62 38q-32 29 -41 59q-12 42 -12 99q0 33 9 63q35 46 39 51q25 26 55 26q79 0 98 -18q12 -11 20.5 -37.5t8.5 -44.5q0 -28 -9.5 -41 t-34.5 -22q-10 2 -31 5q-1 0 -4 1h-5q-19 7 -19 34q0 15 13 39.5t13 38.5q-42 17 -48 17q-13 0 -22 -9q-29 -12 -38 -38q-4 -12 -4 -38q0 -75 59 -142q13 -15 22 -22q34 -26 96 -26q93 0 179 59q36 24 68 56q46 48 92 95q56 54 110 73q44 16 107 16q121 0 197 -91 q33 -39 33 -102q0 -36 -12 -69z" />
<glyph unicode="&#x3e;" horiz-adv-x="1208" d="M1069 218q-15 -86 -127 -125q-40 -14 -95 -14q-110 0 -193 67q-14 11 -118 86q-72 52 -111 94q-68 30 -69 31q-40 15 -73 15q-46 0 -93 -28t-74 -67q-4 -6 -5 -9q-7 -15 -7 -64q0 -82 50 -104q16 -7 42 -7q24 0 40 13q-3 14 -26 27t-23 29q0 7 2 14q6 21 21.5 31t31.5 20 h9q22 0 38 -15.5t16 -37.5q0 -18 -12 -57q-6 -20 -28 -30l-9 -4q-16 -9 -22 -19q-20 -5 -37 -5q-59 0 -93 34t-34 93q0 41 36 156l40 42q29 29 44 34q8 2 22 5q92 16 139 16q86 0 121 -21q7 -4 64 -51q93 -76 177 -161q70 -71 174 -71q52 0 93 21q58 62 58 108q0 5 -2 18 q-10 59 -12 66q-10 36 -38 54q-22 3 -32 3q-31 0 -47 -17v-5q-1 -15 12 -24q13 2 32 -17q-9 -36 -32 -49h-36q-20 0 -32.5 13.5t-12.5 34.5q0 9 3 18q63 71 129 71q21 0 30 -3.5t22 -14.5q52 -44 52 -134q0 -31 -5 -60z" />
<glyph unicode="?" horiz-adv-x="585" d="M358 378l-74 -71q-16 -44 -24 -94q-14 -14 -46 -14q-14 0 -31 3q-7 16 -7 55q0 74 43 103q7 4 20 11q7 3 27 17q104 74 104 143q0 39 -19 74q-32 24 -82 24q-18 0 -54 -4.5t-55 -4.5q-12 0 -33.5 -11t-29.5 -11q-11 0 -20 18q-9 15 -9 27q0 6 3 12q30 48 139 48 q75 0 97 2q5 1 15 1q37 0 73 -28q32 -25 51 -61q15 -28 15 -73q0 -65 -35.5 -112t-67.5 -54zM226 25q-3 0 -20 3q-20 4 -27 19t-13 31q-1 3 -1 8q0 48 75 48q43 0 43 -50q0 -26 -15.5 -42.5t-41.5 -16.5z" />
<glyph unicode="A" horiz-adv-x="713" d="M600 59q-6 0 -19 1h-19q-14 18 -28 57q-11 30 -21 61q-29 73 -90 73h-8q-5 -1 -8 -1q-17 0 -52 2.5t-53 2.5q-10 0 -29.5 -3t-27.5 -3q-7 0 -17 3q-13 3 -17 3q-16 -24 -55 -98q-33 -62 -60 -95q-19 -3 -38 -3q-22 0 -36 9q62 125 195 372q8 13 23 39q6 14 19 41t26 53 q16 32 22 56q8 11 24 11q8 0 22.5 -3t21.5 -3h3q13 -23 37 -69l20 -50q34 -85 100 -226q77 -163 103 -224q-16 -6 -38 -6zM400 401q-4 12 -13 37q-14 26 -40 78q-2 1 -6 1q-5 0 -7 -1q-7 -16 -50 -91q-32 -56 -38 -96q30 1 81 -1q59 -3 81 -3q15 0 23 1q-4 11 -31 75z" />
<glyph unicode="B" horiz-adv-x="716" d="M604 235q2 -10 2 -15q0 -9 -6.5 -27t-6.5 -28q0 -6 1 -9q-47 -102 -203 -102q-34 0 -101.5 5.5t-101.5 5.5q1 0 -116 -3q-1 143 -1 285q-2 163 -10 285q60 -6 149 -6q23 0 68 1h68q79 0 148 -20q10 -3 32.5 -21.5t40.5 -22.5q15 -47 15 -85q0 -55 -29 -91q-22 -6 -22 -25 q0 -9 12 -21q4 -4 12 -11q28 -26 34 -33q18 -22 18 -43q0 -10 -3 -19zM469 537q-68 27 -185 27h-101q-10 -3 -16 -3q-27 0 -33 -8v-138l11 -17q96 -6 143 -6h59q146 6 146 85q0 31 -24 60zM345 314q-20 0 -60.5 -2t-61.5 -2q-39 0 -67 5l-13 -8v-166l4 -8q216 -3 215 -3 l32 3q134 13 134 84q0 97 -183 97z" />
<glyph unicode="C" horiz-adv-x="794" d="M565 618v1q10 -1 31 -16q15 -10 30 -21q7 -4 20 -13q14 -12 14 -28q0 -7 -3 -13l-11 -11q-26 -28 -39 -28q-1 0 -3 1h-4q-63 40 -91 53q-53 26 -100 26q-110 0 -192 -68q-11 -9 -29 -29q-3 -7 -11 -21q-31 -74 -31 -134q0 -64 33 -110q15 -7 36 -31t36 -31 q62 -30 135 -30q123 0 219 71q3 -1 6 -1q5 0 13.5 4t12.5 4q8 0 11 -7q18 -11 20 -45q-101 -74 -205 -98q-26 -6 -34 -6q-181 0 -259 80q-19 19 -42 58q-27 45 -38 60q-15 47 -15 94q0 104 65 202q15 22 26 32.5t34 24.5q108 64 221 64q59 0 106 -18q42 -16 38 -16z" />
<glyph unicode="D" horiz-adv-x="753" d="M641 356v-77q-4 -44 -24 -71q-5 -30 -73 -96q-42 -41 -114 -54q-44 -9 -128 -9q-143 0 -239 12v21q0 40 3 118t3 117q0 50 -4 100q-5 63 -5 50q0 16 2 47.5t2 46.5q0 38 -4 69q4 6 16.5 6t16.5 3q36 -4 82 -4q181 0 222 -7q125 -20 185 -106q62 -89 62 -122 q0 -7 -1.5 -21.5t-1.5 -22.5zM535 452q-6 10 -21 25q-46 47 -112 66q-21 6 -24 6q-75 0 -225 6q-6 -77 -6 -192v-224l5 -5q15 1 45 1h52q35 -1 52 -1q123 0 181 30q29 15 49 48q9 16 29 64q-2 45 -3 90q-3 55 -22 86z" />
<glyph unicode="E" horiz-adv-x="699" d="M581 84q0 -7 1 -11l-6 -6h-40q-27 -1 -41 -1q-50 0 -149.5 2t-149.5 2q-63 0 -128 -3q-6 23 -6 46q0 20 5 60t5 60q0 16 -2 47t-2 47q0 29 2.5 87.5t2.5 87.5q0 42 -5 81q-6 47 -6 37q0 17 18 17q4 0 12.5 -1t13.5 -1q10 0 16 5q56 -8 148 -8q35 0 105 1.5t105 1.5h29 q20 -1 29 -1q7 2 6 2q3 3 7 3q6 0 9 -5l-8 -57q-71 -8 -185 -8q-26 0 -78 1h-78q-33 0 -49 -1l-15 -16q3 -15 3 -31q0 -13 -4 -41.5t-3 -44.5l1 -13l11 -11q25 -6 64 -6q91 0 68 1q40 -1 67 -11v-49q-33 -3 -65 -3q-107 0 -140 -8l-5 -6l3 -179l13 -13q23 1 68 1 q47 0 140.5 -3.5t140.5 -3.5q46 0 69 1q6 -7 6 -18q0 -6 -1.5 -16t-1.5 -15z" />
<glyph unicode="F" horiz-adv-x="673" d="M549 568l-386 -2q-9 0 -15.5 -8.5t-6.5 -17.5v-69q0 -55 13 -68l242 -3q4 -15 4 -33v-38q-33 -4 -75 -4q-18 0 -54.5 1t-55.5 1q-31 0 -63 -3l-7 -10v-250q-11 -8 -27 -8q-7 0 -21.5 2.5t-22.5 2.5h-3q-6 21 -6 25q0 -5 4 122q5 159 5 258q0 81 -3 162q12 6 34 5.5 t31 2.5q190 -8 286 -8q61 0 122 3q6 -12 6 -30v-16q-1 -11 -1 -17z" />
<glyph unicode="G" horiz-adv-x="766" d="M575 82q-76 -47 -187 -47q-79 0 -150 25q-86 29 -121 85q-1 2 -18 41q-7 13 -18 40q-20 58 -20 128q0 39 3 56q3 9 9 28q25 77 66 109q133 104 247 104q31 0 79 -13q45 -12 98 -53q10 -8 31 -23q9 -5 18.5 -11t14.5 -16q-14 -29 -14 -30q-9 -15 -21 -24q-39 28 -79 56 q-51 31 -89 31l-11 -1q-158 0 -243 -94q-37 -41 -37 -110q0 -88 37 -146q22 -35 60 -63t77 -37q9 -2 11 -2q153 0 208 29q32 17 42 70q3 17 6 85q-43 8 -97 8q-1 0 -100 -3q-10 8 -10 23v32l10 5q11 2 33 2q21 0 64.5 -4t65.5 -4q34 0 65 9q4 -3 13 -3q31 0 36 -8l-8 -150 q-10 -86 -71 -124z" />
<glyph unicode="H" horiz-adv-x="725" d="M593 92v-28l-68 -4v251q-3 12 -13 16q-89 -3 -129 -3q-170 0 -227 -3l-11 -10q2 -38 0 -101q-3 -79 -3 -101q0 -26 1 -39q-12 -9 -28 -9q-12 0 -46 9l-6 8v90l6 468q4 -1 12 -1q7 0 21 2.5t22 2.5q11 0 19 -4l2 -217q5 -9 17.5 -11t23.5 -3q17 -3 28 -3q26 0 79 1h78 q67 0 133 -3l8 8q3 14 3 44q0 19 -3 56.5t-3 56.5q0 36 8 63q27 8 51 8q15 0 22 -2q8 -11 8 -35q0 -13 2.5 -38.5t2.5 -38.5q0 -72 -5 -215.5t-5 -214.5z" />
<glyph unicode="I" horiz-adv-x="267" d="M139 61q-10 -8 -20 -8q-7 0 -20.5 3.5t-19.5 3.5q-8 0 -11 -2l-5 6q5 79 5 189q0 46 -2 136.5t-2 135.5q0 70 15 112q9 -6 28 -6q24 -1 32 -3q2 -150 2 -224v-121q0 -74 -2 -222z" />
<glyph unicode="J" horiz-adv-x="747" d="M481 93q-17 -1 -47 -17t-49 -16q-13 0 -39 -1t-39 -1q-122 0 -173 49q-13 13 -32 44t-33 44q4 16 25 24q30 11 35 15q11 -20 37 -46q32 -31 41 -43q45 -27 107 -27q55 0 100 16q34 12 51 48q15 33 29 65v138q0 118 -1 177q-26 0 -115 -2q-72 -2 -116 -2q-19 0 -56.5 2 t-56.5 2q-32 0 -49 -2q2 10 0 25q-3 19 -3 24q0 24 21 24h32q21 -1 31 -1h86q39 0 116 1t115 1q11 0 33 -1.5t34 -1.5q-1 -21 -1 -62q0 -27 1 -82.5t1 -83.5q0 -131 -6 -169q-16 -98 -79 -141z" />
<glyph unicode="K" horiz-adv-x="711" d="M532 49q-24 0 -39 12q-24 57 -75 136q-79 124 -83.5 132.5t-16.5 27.5q-10 13 -21 13q-3 0 -8 -3l-2 -3q-67 -55 -140 -131l-5 -180h-77q2 74 2 109q0 65 -2.5 194t-2.5 193q0 14 1 42v43q11 12 36 12q22 0 40 -7l3 -274q2 -7 6 -7q6 0 12 3l7 2q4 2 6 2q59 50 141 132 q68 69 137 137q5 -1 14 -1q8 0 24 2t24 2q17 0 33 -9q-61 -62 -189 -183q32 -57 218 -389q-26 -7 -43 -7z" />
<glyph unicode="L" horiz-adv-x="635" d="M524 101q-6 -22 -6 -26q0 -5 2 -11l-6 -6q-19 -1 -59 -1q-50 0 -151.5 4t-152.5 4q-23 0 -69 -2q-6 73 -6 181q0 45 1.5 135t1.5 135q0 64 -3 128q22 8 41 8q10 0 19 -3l5 -8l9 -497q12 -13 45 -13h322q8 -8 8 -18q0 -6 -1 -10z" />
<glyph unicode="M" horiz-adv-x="790" d="M656 144q0 -15 1 -45v-45q-10 -5 -25 -5q-18 0 -45 9l-3 10q-2 4 -3 8q0 10 1 30v30q0 36 -2 107.5t-2 106.5q0 48 3 94q-2 8 -9 8h-4q-25 -47 -82 -137q-5 -6 -14 -19l-9 -21q-12 -26 -50 -87q-34 -54 -48 -88q-16 19 -31 52l-24 56q-60 120 -124 209q-14 4 -26 18 q-2 -10 -2 -15q0 -9 3 -26.5t3 -26.5q0 1 -9 -305q-15 -8 -34 -8q-14 0 -42 4q-9 73 -9 171q0 49 3 148.5t3 149.5q0 72 -3 109q12 0 35 1h34q13 0 20 -12.5t11.5 -23t18.5 -33.5q26 -43 82 -151q52 -97 85 -149q18 5 42 48q12 22 93 154q58 94 85 160q10 11 27 11 q7 0 20.5 -2.5t20.5 -2.5h8q6 -41 6 -103q0 -65 -2.5 -194.5t-2.5 -194.5z" />
<glyph unicode="N" horiz-adv-x="719" d="M566 43q-14 0 -42 2q-52 60 -170 224q-105 145 -176 219q-12 6 -20 6h-4l-8 -11q1 -9 1 -28q0 -22 -4.5 -66t-4.5 -66q0 -197 2 -251q2 -8 2 -12q0 -3 -2 -9l-76 2q4 60 4 135q0 39 -1.5 119t-1.5 120q0 124 11 208q8 0 23.5 1.5t23.5 1.5q11 0 19 -3q15 -6 40 -36 l34 -46q8 -9 24 -26q8 -11 24 -31q82 -94 244 -283h7q11 117 11 416q18 6 36 6q20 0 33 -8q0 -53 2.5 -159t2.5 -158q0 -70 -2 -103q-4 -65 -4 -91q0 -44 8 -68q-15 -5 -36 -5z" />
<glyph unicode="O" horiz-adv-x="814" d="M688 255q-12 -17 -22.5 -53t-28.5 -55q-101 -108 -218 -107q-45 -5 -53 -5q-96 0 -186 58q-46 29 -68.5 77t-42.5 96l-5 110q14 35 41 107q23 60 70 92q110 75 208 75q76 0 153 -43t117 -107q36 -58 36 -185v-30q-1 -20 -1 -30zM585 456q-8 13 -25 36q-65 76 -185 76 q-47 0 -79 -9q-52 -15 -93 -65q-36 -44 -52 -101q-8 -29 -8 -41q0 -20 5 -53q20 -132 110 -169q58 -24 127 -24q77 0 122 24q17 9 36 26q79 70 79 180q0 62 -37 120z" />
<glyph unicode="P" horiz-adv-x="701" d="M558 355q-17 -21 -65 -33q-8 -2 -74 -14q-11 -3 -33 -6.5t-82 -3.5q-84 0 -152 4l-10 -11q-2 -36 -2.5 -109t-2.5 -109h-72q-3 11 -3 21t4.5 31t4.5 32q0 58 -2.5 173.5t-2.5 172.5q0 94 2 141l9 5q47 -5 86 -5q29 0 86 2.5t85 2.5q118 0 189 -38q8 -3 22 -13q1 -1 9 -14 q33 -54 33 -121q0 -73 -29 -108zM493 524q-22 41 -115 41q-137 0 -172 5q-6 -5 -18 -5q-4 0 -13 1.5t-14 1.5q-9 0 -17 -6q-2 -30 -2 -46q0 -22 2.5 -65.5t2.5 -65.5l85 -2q15 0 58 -2q36 -2 57 -2q161 0 161 70q0 14 -7.5 38.5t-7.5 36.5z" />
<glyph unicode="Q" horiz-adv-x="835" d="M686 210q-13 -29 -49 -67q-44 -45 -56 -63q22 -16 57 -58q-30 -34 -60 -34q-21 0 -41 30q-5 8 -17 21q-11 9 -20 9t-21 -8q-28 -3 -57 -3q-75 0 -158 19q-9 1 -27 6q-34 12 -104 102q-10 13 -30 36q-20 51 -29 133q-5 46 -5 54q0 18 10 48q42 125 180 186q32 14 57 19 q16 3 54 3q116 0 217 -57q13 -7 38 -24q7 -6 23 -28q64 -89 64 -200q0 -66 -26 -124zM592 481q-3 4 -30 26q-86 71 -194 71q-14 0 -49 -12q-96 -33 -128 -73q-35 -44 -35 -141q0 -50 12 -113q63 -95 137 -112q1 0 45 -13q26 -8 45 -8t33 7q-1 10 -9 23q-11 16 -13 20 q8 10 26.5 18t25.5 14q12 -1 30 -18t30 -17q14 0 43 27q71 66 71 165q0 88 -40 136z" />
<glyph unicode="R" horiz-adv-x="720" d="M600 401q-1 -5 -13 -25q-47 -82 -114 -82q-4 -3 -13 -11q14 -46 55 -113q50 -83 62 -110v-6q-10 2 -16 2t-19 -1t-20 -1q-30 0 -42 22l-109 207l-14 11q-22 -2 -34 -2q-18 0 -54 2t-54 2q-39 0 -64 -6l-8 -13q1 -10 1 -31q0 -26 -4 -77.5t-4 -77.5q0 -12 2 -36l-9 -6 q-10 3 -22 3q-10 0 -15 -1q-36 0 -36 21q0 7 2 17t5 86q4 88 4 181v110q-1 74 -1 111v69q23 4 50 4q19 0 58.5 -3t59.5 -3q34 0 61 8q69 -10 139 -20q82 -14 127 -53q21 -18 30 -33q14 -24 14 -88q0 -40 -5 -57zM496 530q-56 36 -246 40q-8 0 -34 1q-20 1 -33 1 q-23 0 -30 -13l-2 -171l8 -7q41 -12 119 -12q16 0 48 1h48h32q1 0 26 4q85 13 96 57q2 8 2 23q0 54 -34 76z" />
<glyph unicode="S" horiz-adv-x="754" d="M641 186q-8 -45 -43 -84t-80 -50q-127 -32 -169 -32q-73 0 -152.5 38.5t-128.5 95.5l47 43q100 -100 239 -100q61 0 115 22q67 27 85 75q6 12 6 21q0 4 -5 23q-12 47 -45 57q-37 11 -94 15q-3 0 -95 2q-23 -1 -66 2q-4 1 -29 10q-77 28 -112 77q-10 63 -10 77q0 43 21 68 q8 9 29 27q92 78 180 74q152 -7 234 -74q17 -1 31 -14q0 -1 1 -3v-3q0 -10 -17 -26q-9 -8 -22 -24q-3 -2 -9 -2t-19 9q-4 4 -10 8l-9 6q-83 38 -180 38q-85 0 -138 -44q-25 -21 -25 -45q0 -9 4 -18q31 -73 165 -73q9 0 34 1h35q44 -1 69 -8q52 -15 70 -24q94 -49 94 -159 q0 -4 -1 -6z" />
<glyph unicode="T" horiz-adv-x="718" d="M571 577h-187l-5 -8v-65q0 -225 -3 -265q0 -6 -4 -29q-2 -19 -2 -30q0 -17 3 -51t3 -51q0 -23 -32 -23q-6 0 -19 1.5t-20 1.5q-3 0 -13 -2q6 128 6 252q0 113 -4 179q0 24 -5 72q-5 19 -32 19h-16q-11 -1 -16 -1q-6 0 -21 3t-41 3q-62 0 -94 -3v39q0 36 25 35 q377 -11 351 -11q41 0 127 2q8 -40 8 -44q0 -16 -9 -24z" />
<glyph unicode="U" horiz-adv-x="721" d="M594 285q0 -52 -1 -60t-8 -34q-23 -85 -77 -114q-70 -37 -191 -37q-76 0 -93.5 4t-47.5 19.5t-41 27.5q-7 6 -21 30q-50 86 -50 239q0 27 1.5 81t1.5 82q0 55 -5 94q12 10 33 10q12 0 38 -4q7 -57 10 -193q0 -32 3 -95q2 -12 5 -36l2 -62q4 -36 20 -57q27 -35 81 -55 q47 -18 97 -18q73 0 107 19q14 8 28 24q32 36 40 104q3 56 6 113q2 35 2 50q0 27 -13 204q30 8 46 8q9 0 18 -3q11 -78 11 -194q0 -24 -1 -73t-1 -74z" />
<glyph unicode="V" horiz-adv-x="697" d="M353 61l-63 -2q-27 42 -61 117q-41 91 -57 120q-32 58 -74 157q-10 21 -28 63q-4 11 -15 32t-23.5 43.5t-15.5 43.5q5 0 23 2q14 2 23 2q23 0 35 -15q7 -7 19 -35q17 -38 17 -39q37 -69 104 -210q4 -11 14 -33q6 -10 16 -30l23 -47q14 -26 33 -41q13 16 28 46 q21 41 25 48q123 209 188 355q14 6 27 6q4 0 17 -1q10 -1 17 0v-17l-140 -280q-82 -166 -132 -285z" />
<glyph unicode="W" horiz-adv-x="844" d="M752 563q-55 -169 -158 -508q-13 -6 -33 -6h-38q-42 104 -65 189q-7 31 -21 92.5t-43 105.5q-9 -4 -11 -16.5t-5 -23t-11 -32t-25 -73.5q-22 -74 -68 -223q-12 -6 -31 -6q-18 0 -34 4q-25 79 -80 236q-39 109 -117 325q12 6 30 6q10 0 30 -2q6 -9 46 -107 q18 -43 105 -292q16 -16 20 -16q1 0 3 1q4 6 11 18q2 4 11 40l27.5 90l82.5 270h33q31 -68 67 -203q37 -142 64 -204l3 -3q4 -7 8 -7q1 0 2 1q38 80 82 206q67 196 72 210q-10 1 32 1q17 0 28 -6q-8 -10 -11 -33q-5 -30 -6 -34z" />
<glyph unicode="X" horiz-adv-x="778" d="M589 51q-18 0 -27 1q-32 36 -96 123q-60 81 -98 121q-13 -2 -20.5 -14t-13.5 -23q-6 -7 -19 -21l-38 -42q-71 -80 -118 -136q-10 -3 -30 -3q-41 0 -57 -6v15q101 123 120 148q67 84 112 153l-3 21q-37 40 -95 122q-61 87 -93 123q12 -2 33 0q32 3 31 3q36 0 44 -31 q22 -21 64 -80q38 -54 68 -77h10q33 33 78 90q61 76 75 92q51 8 59 8q17 0 33 -6v-8q-31 -49 -93 -121q-75 -89 -97 -119l4 -26q72 -100 224 -292l1 -12q-30 -3 -58 -3z" />
<glyph unicode="Y" horiz-adv-x="745" d="M607 599l-214 -267q2 -32 2 -50q0 -30 -4 -88t-4 -87q0 -5 1 -15v-16q-11 -11 -34 -11q-9 0 -23 2q-18 2 -23 2l-3 8q-15 41 -15 106q0 35 5 91.5t5 71.5q-43 61 -112 146q-59 72 -117 144l85 6q28 -31 179 -223l19 3q35 48 95 116q96 106 101 112q2 0 7 1h7q9 0 26.5 -2 t26.5 -2t14 1q1 -3 1 -9q0 -15 -25 -40z" />
<glyph unicode="Z" horiz-adv-x="705" d="M230 146q-2 -11 5 -16q169 2 323 -7v-57l-490 -6q0 17 19 40q12 12 28 37q54 57 119 145q55 75 110 151q21 29 64 84q11 12 30 37q1 1 1 5q0 14 -14 14l-352 3q-2 8 -2 24q0 26 10 49l501 -3v-16q-118 -160 -352 -484z" />
<glyph unicode="`" horiz-adv-x="398" d="M169 747l-91 94l3 6h95q62 -57 72 -95q-26 -2 -79 -5z" />
<glyph unicode="a" horiz-adv-x="713" d="M600 59q-6 0 -19 1h-19q-14 18 -28 57q-11 30 -21 61q-29 73 -90 73h-8q-5 -1 -8 -1q-17 0 -52 2.5t-53 2.5q-10 0 -29.5 -3t-27.5 -3q-7 0 -17 3q-13 3 -17 3q-16 -24 -55 -98q-33 -62 -60 -95q-19 -3 -38 -3q-22 0 -36 9q62 125 195 372q8 13 23 39q6 14 19 41t26 53 q16 32 22 56q8 11 24 11q8 0 22.5 -3t21.5 -3h3q13 -23 37 -69l20 -50q34 -85 100 -226q77 -163 103 -224q-16 -6 -38 -6zM400 401q-4 12 -13 37q-14 26 -40 78q-2 1 -6 1q-5 0 -7 -1q-7 -16 -50 -91q-32 -56 -38 -96q30 1 81 -1q59 -3 81 -3q15 0 23 1q-4 11 -31 75z" />
<glyph unicode="b" horiz-adv-x="716" d="M604 235q2 -10 2 -15q0 -9 -6.5 -27t-6.5 -28q0 -6 1 -9q-47 -102 -203 -102q-34 0 -101.5 5.5t-101.5 5.5q1 0 -116 -3q-1 143 -1 285q-2 163 -10 285q60 -6 149 -6q23 0 68 1h68q79 0 148 -20q10 -3 32.5 -21.5t40.5 -22.5q15 -47 15 -85q0 -55 -29 -91q-22 -6 -22 -25 q0 -9 12 -21q4 -4 12 -11q28 -26 34 -33q18 -22 18 -43q0 -10 -3 -19zM469 537q-68 27 -185 27h-101q-10 -3 -16 -3q-27 0 -33 -8v-138l11 -17q96 -6 143 -6h59q146 6 146 85q0 31 -24 60zM345 314q-20 0 -60.5 -2t-61.5 -2q-39 0 -67 5l-13 -8v-166l4 -8q216 -3 215 -3 l32 3q134 13 134 84q0 97 -183 97z" />
<glyph unicode="c" horiz-adv-x="794" d="M565 618v1q10 -1 31 -16q15 -10 30 -21q7 -4 20 -13q14 -12 14 -28q0 -7 -3 -13l-11 -11q-26 -28 -39 -28q-1 0 -3 1h-4q-63 40 -91 53q-53 26 -100 26q-110 0 -192 -68q-11 -9 -29 -29q-3 -7 -11 -21q-31 -74 -31 -134q0 -64 33 -110q15 -7 36 -31t36 -31 q62 -30 135 -30q123 0 219 71q3 -1 6 -1q5 0 13.5 4t12.5 4q8 0 11 -7q18 -11 20 -45q-101 -74 -205 -98q-26 -6 -34 -6q-181 0 -259 80q-19 19 -42 58q-27 45 -38 60q-15 47 -15 94q0 104 65 202q15 22 26 32.5t34 24.5q108 64 221 64q59 0 106 -18q42 -16 38 -16z" />
<glyph unicode="d" horiz-adv-x="753" d="M641 356v-77q-4 -44 -24 -71q-5 -30 -73 -96q-42 -41 -114 -54q-44 -9 -128 -9q-143 0 -239 12v21q0 40 3 118t3 117q0 50 -4 100q-5 63 -5 50q0 16 2 47.5t2 46.5q0 38 -4 69q4 6 16.5 6t16.5 3q36 -4 82 -4q181 0 222 -7q125 -20 185 -106q62 -89 62 -122 q0 -7 -1.5 -21.5t-1.5 -22.5zM535 452q-6 10 -21 25q-46 47 -112 66q-21 6 -24 6q-75 0 -225 6q-6 -77 -6 -192v-224l5 -5q15 1 45 1h52q35 -1 52 -1q123 0 181 30q29 15 49 48q9 16 29 64q-2 45 -3 90q-3 55 -22 86z" />
<glyph unicode="e" horiz-adv-x="699" d="M581 84q0 -7 1 -11l-6 -6h-40q-27 -1 -41 -1q-50 0 -149.5 2t-149.5 2q-63 0 -128 -3q-6 23 -6 46q0 20 5 60t5 60q0 16 -2 47t-2 47q0 29 2.5 87.5t2.5 87.5q0 42 -5 81q-6 47 -6 37q0 17 18 17q4 0 12.5 -1t13.5 -1q10 0 16 5q56 -8 148 -8q35 0 105 1.5t105 1.5h29 q20 -1 29 -1q7 2 6 2q3 3 7 3q6 0 9 -5l-8 -57q-71 -8 -185 -8q-26 0 -78 1h-78q-33 0 -49 -1l-15 -16q3 -15 3 -31q0 -13 -4 -41.5t-3 -44.5l1 -13l11 -11q25 -6 64 -6q91 0 68 1q40 -1 67 -11v-49q-33 -3 -65 -3q-107 0 -140 -8l-5 -6l3 -179l13 -13q23 1 68 1 q47 0 140.5 -3.5t140.5 -3.5q46 0 69 1q6 -7 6 -18q0 -6 -1.5 -16t-1.5 -15z" />
<glyph unicode="f" horiz-adv-x="673" d="M549 568l-386 -2q-9 0 -15.5 -8.5t-6.5 -17.5v-69q0 -55 13 -68l242 -3q4 -15 4 -33v-38q-33 -4 -75 -4q-18 0 -54.5 1t-55.5 1q-31 0 -63 -3l-7 -10v-250q-11 -8 -27 -8q-7 0 -21.5 2.5t-22.5 2.5h-3q-6 21 -6 25q0 -5 4 122q5 159 5 258q0 81 -3 162q12 6 34 5.5 t31 2.5q190 -8 286 -8q61 0 122 3q6 -12 6 -30v-16q-1 -11 -1 -17z" />
<glyph unicode="g" horiz-adv-x="766" d="M575 82q-76 -47 -187 -47q-79 0 -150 25q-86 29 -121 85q-1 2 -18 41q-7 13 -18 40q-20 58 -20 128q0 39 3 56q3 9 9 28q25 77 66 109q133 104 247 104q31 0 79 -13q45 -12 98 -53q10 -8 31 -23q9 -5 18.5 -11t14.5 -16q-14 -29 -14 -30q-9 -15 -21 -24q-39 28 -79 56 q-51 31 -89 31l-11 -1q-158 0 -243 -94q-37 -41 -37 -110q0 -88 37 -146q22 -35 60 -63t77 -37q9 -2 11 -2q153 0 208 29q32 17 42 70q3 17 6 85q-43 8 -97 8q-1 0 -100 -3q-10 8 -10 23v32l10 5q11 2 33 2q21 0 64.5 -4t65.5 -4q34 0 65 9q4 -3 13 -3q31 0 36 -8l-8 -150 q-10 -86 -71 -124z" />
<glyph unicode="h" horiz-adv-x="725" d="M593 92v-28l-68 -4v251q-3 12 -13 16q-89 -3 -129 -3q-170 0 -227 -3l-11 -10q2 -38 0 -101q-3 -79 -3 -101q0 -26 1 -39q-12 -9 -28 -9q-12 0 -46 9l-6 8v90l6 468q4 -1 12 -1q7 0 21 2.5t22 2.5q11 0 19 -4l2 -217q5 -9 17.5 -11t23.5 -3q17 -3 28 -3q26 0 79 1h78 q67 0 133 -3l8 8q3 14 3 44q0 19 -3 56.5t-3 56.5q0 36 8 63q27 8 51 8q15 0 22 -2q8 -11 8 -35q0 -13 2.5 -38.5t2.5 -38.5q0 -72 -5 -215.5t-5 -214.5z" />
<glyph unicode="i" horiz-adv-x="267" d="M139 61q-10 -8 -20 -8q-7 0 -20.5 3.5t-19.5 3.5q-8 0 -11 -2l-5 6q5 79 5 189q0 46 -2 136.5t-2 135.5q0 70 15 112q9 -6 28 -6q24 -1 32 -3q2 -150 2 -224v-121q0 -74 -2 -222z" />
<glyph unicode="j" horiz-adv-x="747" d="M481 93q-17 -1 -47 -17t-49 -16q-13 0 -39 -1t-39 -1q-122 0 -173 49q-13 13 -32 44t-33 44q4 16 25 24q30 11 35 15q11 -20 37 -46q32 -31 41 -43q45 -27 107 -27q55 0 100 16q34 12 51 48q15 33 29 65v138q0 118 -1 177q-26 0 -115 -2q-72 -2 -116 -2q-19 0 -56.5 2 t-56.5 2q-32 0 -49 -2q2 10 0 25q-3 19 -3 24q0 24 21 24h32q21 -1 31 -1h86q39 0 116 1t115 1q11 0 33 -1.5t34 -1.5q-1 -21 -1 -62q0 -27 1 -82.5t1 -83.5q0 -131 -6 -169q-16 -98 -79 -141z" />
<glyph unicode="k" horiz-adv-x="711" d="M532 49q-24 0 -39 12q-24 57 -75 136q-79 124 -83.5 132.5t-16.5 27.5q-10 13 -21 13q-3 0 -8 -3l-2 -3q-67 -55 -140 -131l-5 -180h-77q2 74 2 109q0 65 -2.5 194t-2.5 193q0 14 1 42v43q11 12 36 12q22 0 40 -7l3 -274q2 -7 6 -7q6 0 12 3l7 2q4 2 6 2q59 50 141 132 q68 69 137 137q5 -1 14 -1q8 0 24 2t24 2q17 0 33 -9q-61 -62 -189 -183q32 -57 218 -389q-26 -7 -43 -7z" />
<glyph unicode="l" horiz-adv-x="635" d="M524 101q-6 -22 -6 -26q0 -5 2 -11l-6 -6q-19 -1 -59 -1q-50 0 -151.5 4t-152.5 4q-23 0 -69 -2q-6 73 -6 181q0 45 1.5 135t1.5 135q0 64 -3 128q22 8 41 8q10 0 19 -3l5 -8l9 -497q12 -13 45 -13h322q8 -8 8 -18q0 -6 -1 -10z" />
<glyph unicode="m" horiz-adv-x="790" d="M656 144q0 -15 1 -45v-45q-10 -5 -25 -5q-18 0 -45 9l-3 10q-2 4 -3 8q0 10 1 30v30q0 36 -2 107.5t-2 106.5q0 48 3 94q-2 8 -9 8h-4q-25 -47 -82 -137q-5 -6 -14 -19l-9 -21q-12 -26 -50 -87q-34 -54 -48 -88q-16 19 -31 52l-24 56q-60 120 -124 209q-14 4 -26 18 q-2 -10 -2 -15q0 -9 3 -26.5t3 -26.5q0 1 -9 -305q-15 -8 -34 -8q-14 0 -42 4q-9 73 -9 171q0 49 3 148.5t3 149.5q0 72 -3 109q12 0 35 1h34q13 0 20 -12.5t11.5 -23t18.5 -33.5q26 -43 82 -151q52 -97 85 -149q18 5 42 48q12 22 93 154q58 94 85 160q10 11 27 11 q7 0 20.5 -2.5t20.5 -2.5h8q6 -41 6 -103q0 -65 -2.5 -194.5t-2.5 -194.5z" />
<glyph unicode="n" horiz-adv-x="719" d="M566 43q-14 0 -42 2q-52 60 -170 224q-105 145 -176 219q-12 6 -20 6h-4l-8 -11q1 -9 1 -28q0 -22 -4.5 -66t-4.5 -66q0 -197 2 -251q2 -8 2 -12q0 -3 -2 -9l-76 2q4 60 4 135q0 39 -1.5 119t-1.5 120q0 124 11 208q8 0 23.5 1.5t23.5 1.5q11 0 19 -3q15 -6 40 -36 l34 -46q8 -9 24 -26q8 -11 24 -31q82 -94 244 -283h7q11 117 11 416q18 6 36 6q20 0 33 -8q0 -53 2.5 -159t2.5 -158q0 -70 -2 -103q-4 -65 -4 -91q0 -44 8 -68q-15 -5 -36 -5z" />
<glyph unicode="o" horiz-adv-x="814" d="M688 255q-12 -17 -22.5 -53t-28.5 -55q-101 -108 -218 -107q-45 -5 -53 -5q-96 0 -186 58q-46 29 -68.5 77t-42.5 96l-5 110q14 35 41 107q23 60 70 92q110 75 208 75q76 0 153 -43t117 -107q36 -58 36 -185v-30q-1 -20 -1 -30zM585 456q-8 13 -25 36q-65 76 -185 76 q-47 0 -79 -9q-52 -15 -93 -65q-36 -44 -52 -101q-8 -29 -8 -41q0 -20 5 -53q20 -132 110 -169q58 -24 127 -24q77 0 122 24q17 9 36 26q79 70 79 180q0 62 -37 120z" />
<glyph unicode="p" horiz-adv-x="701" d="M558 355q-17 -21 -65 -33q-8 -2 -74 -14q-11 -3 -33 -6.5t-82 -3.5q-84 0 -152 4l-10 -11q-2 -36 -2.5 -109t-2.5 -109h-72q-3 11 -3 21t4.5 31t4.5 32q0 58 -2.5 173.5t-2.5 172.5q0 94 2 141l9 5q47 -5 86 -5q29 0 86 2.5t85 2.5q118 0 189 -38q8 -3 22 -13q1 -1 9 -14 q33 -54 33 -121q0 -73 -29 -108zM493 524q-22 41 -115 41q-137 0 -172 5q-6 -5 -18 -5q-4 0 -13 1.5t-14 1.5q-9 0 -17 -6q-2 -30 -2 -46q0 -22 2.5 -65.5t2.5 -65.5l85 -2q15 0 58 -2q36 -2 57 -2q161 0 161 70q0 14 -7.5 38.5t-7.5 36.5z" />
<glyph unicode="q" horiz-adv-x="835" d="M686 210q-13 -29 -49 -67q-44 -45 -56 -63q22 -16 57 -58q-30 -34 -60 -34q-21 0 -41 30q-5 8 -17 21q-11 9 -20 9t-21 -8q-28 -3 -57 -3q-75 0 -158 19q-9 1 -27 6q-34 12 -104 102q-10 13 -30 36q-20 51 -29 133q-5 46 -5 54q0 18 10 48q42 125 180 186q32 14 57 19 q16 3 54 3q116 0 217 -57q13 -7 38 -24q7 -6 23 -28q64 -89 64 -200q0 -66 -26 -124zM592 481q-3 4 -30 26q-86 71 -194 71q-14 0 -49 -12q-96 -33 -128 -73q-35 -44 -35 -141q0 -50 12 -113q63 -95 137 -112q1 0 45 -13q26 -8 45 -8t33 7q-1 10 -9 23q-11 16 -13 20 q8 10 26.5 18t25.5 14q12 -1 30 -18t30 -17q14 0 43 27q71 66 71 165q0 88 -40 136z" />
<glyph unicode="r" horiz-adv-x="720" d="M600 401q-1 -5 -13 -25q-47 -82 -114 -82q-4 -3 -13 -11q14 -46 55 -113q50 -83 62 -110v-6q-10 2 -16 2t-19 -1t-20 -1q-30 0 -42 22l-109 207l-14 11q-22 -2 -34 -2q-18 0 -54 2t-54 2q-39 0 -64 -6l-8 -13q1 -10 1 -31q0 -26 -4 -77.5t-4 -77.5q0 -12 2 -36l-9 -6 q-10 3 -22 3q-10 0 -15 -1q-36 0 -36 21q0 7 2 17t5 86q4 88 4 181v110q-1 74 -1 111v69q23 4 50 4q19 0 58.5 -3t59.5 -3q34 0 61 8q69 -10 139 -20q82 -14 127 -53q21 -18 30 -33q14 -24 14 -88q0 -40 -5 -57zM496 530q-56 36 -246 40q-8 0 -34 1q-20 1 -33 1 q-23 0 -30 -13l-2 -171l8 -7q41 -12 119 -12q16 0 48 1h48h32q1 0 26 4q85 13 96 57q2 8 2 23q0 54 -34 76z" />
<glyph unicode="s" horiz-adv-x="754" d="M641 186q-8 -45 -43 -84t-80 -50q-127 -32 -169 -32q-73 0 -152.5 38.5t-128.5 95.5l47 43q100 -100 239 -100q61 0 115 22q67 27 85 75q6 12 6 21q0 4 -5 23q-12 47 -45 57q-37 11 -94 15q-3 0 -95 2q-23 -1 -66 2q-4 1 -29 10q-77 28 -112 77q-10 63 -10 77q0 43 21 68 q8 9 29 27q92 78 180 74q152 -7 234 -74q17 -1 31 -14q0 -1 1 -3v-3q0 -10 -17 -26q-9 -8 -22 -24q-3 -2 -9 -2t-19 9q-4 4 -10 8l-9 6q-83 38 -180 38q-85 0 -138 -44q-25 -21 -25 -45q0 -9 4 -18q31 -73 165 -73q9 0 34 1h35q44 -1 69 -8q52 -15 70 -24q94 -49 94 -159 q0 -4 -1 -6z" />
<glyph unicode="t" horiz-adv-x="718" d="M571 577h-187l-5 -8v-65q0 -225 -3 -265q0 -6 -4 -29q-2 -19 -2 -30q0 -17 3 -51t3 -51q0 -23 -32 -23q-6 0 -19 1.5t-20 1.5q-3 0 -13 -2q6 128 6 252q0 113 -4 179q0 24 -5 72q-5 19 -32 19h-16q-11 -1 -16 -1q-6 0 -21 3t-41 3q-62 0 -94 -3v39q0 36 25 35 q377 -11 351 -11q41 0 127 2q8 -40 8 -44q0 -16 -9 -24z" />
<glyph unicode="u" horiz-adv-x="721" d="M594 285q0 -52 -1 -60t-8 -34q-23 -85 -77 -114q-70 -37 -191 -37q-76 0 -93.5 4t-47.5 19.5t-41 27.5q-7 6 -21 30q-50 86 -50 239q0 27 1.5 81t1.5 82q0 55 -5 94q12 10 33 10q12 0 38 -4q7 -57 10 -193q0 -32 3 -95q2 -12 5 -36l2 -62q4 -36 20 -57q27 -35 81 -55 q47 -18 97 -18q73 0 107 19q14 8 28 24q32 36 40 104q3 56 6 113q2 35 2 50q0 27 -13 204q30 8 46 8q9 0 18 -3q11 -78 11 -194q0 -24 -1 -73t-1 -74z" />
<glyph unicode="v" horiz-adv-x="697" d="M353 61l-63 -2q-27 42 -61 117q-41 91 -57 120q-32 58 -74 157q-10 21 -28 63q-4 11 -15 32t-23.5 43.5t-15.5 43.5q5 0 23 2q14 2 23 2q23 0 35 -15q7 -7 19 -35q17 -38 17 -39q37 -69 104 -210q4 -11 14 -33q6 -10 16 -30l23 -47q14 -26 33 -41q13 16 28 46 q21 41 25 48q123 209 188 355q14 6 27 6q4 0 17 -1q10 -1 17 0v-17l-140 -280q-82 -166 -132 -285z" />
<glyph unicode="w" horiz-adv-x="844" d="M752 563q-55 -169 -158 -508q-13 -6 -33 -6h-38q-42 104 -65 189q-7 31 -21 92.5t-43 105.5q-9 -4 -11 -16.5t-5 -23t-11 -32t-25 -73.5q-22 -74 -68 -223q-12 -6 -31 -6q-18 0 -34 4q-25 79 -80 236q-39 109 -117 325q12 6 30 6q10 0 30 -2q6 -9 46 -107 q18 -43 105 -292q16 -16 20 -16q1 0 3 1q4 6 11 18q2 4 11 40l27.5 90l82.5 270h33q31 -68 67 -203q37 -142 64 -204l3 -3q4 -7 8 -7q1 0 2 1q38 80 82 206q67 196 72 210q-10 1 32 1q17 0 28 -6q-8 -10 -11 -33q-5 -30 -6 -34z" />
<glyph unicode="x" horiz-adv-x="778" d="M589 51q-18 0 -27 1q-32 36 -96 123q-60 81 -98 121q-13 -2 -20.5 -14t-13.5 -23q-6 -7 -19 -21l-38 -42q-71 -80 -118 -136q-10 -3 -30 -3q-41 0 -57 -6v15q101 123 120 148q67 84 112 153l-3 21q-37 40 -95 122q-61 87 -93 123q12 -2 33 0q32 3 31 3q36 0 44 -31 q22 -21 64 -80q38 -54 68 -77h10q33 33 78 90q61 76 75 92q51 8 59 8q17 0 33 -6v-8q-31 -49 -93 -121q-75 -89 -97 -119l4 -26q72 -100 224 -292l1 -12q-30 -3 -58 -3z" />
<glyph unicode="y" horiz-adv-x="745" d="M607 599l-214 -267q2 -32 2 -50q0 -30 -4 -88t-4 -87q0 -5 1 -15v-16q-11 -11 -34 -11q-9 0 -23 2q-18 2 -23 2l-3 8q-15 41 -15 106q0 35 5 91.5t5 71.5q-43 61 -112 146q-59 72 -117 144l85 6q28 -31 179 -223l19 3q35 48 95 116q96 106 101 112q2 0 7 1h7q9 0 26.5 -2 t26.5 -2t14 1q1 -3 1 -9q0 -15 -25 -40z" />
<glyph unicode="z" horiz-adv-x="705" d="M230 146q-2 -11 5 -16q169 2 323 -7v-57l-490 -6q0 17 19 40q12 12 28 37q54 57 119 145q55 75 110 151q21 29 64 84q11 12 30 37q1 1 1 5q0 14 -14 14l-352 3q-2 8 -2 24q0 26 10 49l501 -3v-16q-118 -160 -352 -484z" />
<glyph unicode="&#xa3;" horiz-adv-x="813" d="M585 469q-10 -6 -24 -6q-7 0 -20.5 2t-20.5 2h-5q-4 -1 -6 -1q-4 5 -21 51q-11 30 -36 41q-51 23 -84 23q-40 0 -83 -38t-43 -77v-19q-1 -13 -1 -20q0 -20 9 -30q27 -7 70 -7q60 0 80 -3v-60q-27 -6 -76 -6q-55 1 -77 -2q-13 -12 -14 -40q-1 -38 -3 -45q4 -24 7 -48 q5 -30 19 -43l300 6q6 -12 6 -33q0 -13 -2 -35q-157 -13 -361 -13h-126q-4 30 -4 45q0 20 7 27q19 2 37 4q22 3 36 11q3 20 3 41q0 15 -2 44.5t-2 43.5q0 4 1 10v10q-12 9 -28 9h-13q-9 -1 -14 -1h-10q-6 13 -6 33q0 4 1 20q1 12 0 19q9 6 41 6q28 -1 35 15q-2 26 -2 39 q0 106 74 157q59 40 140 40q67 0 104 -13q22 -8 52.5 -33.5t42.5 -45.5q23 -40 23 -60q0 -11 -4 -20z" />
<glyph unicode="&#xa8;" horiz-adv-x="697" d="M568 740q-7 -10 -24 -20t-29 -10q-33 0 -44 30v31q0 44 47 44q34 0 50 -24q0 -4 2.5 -15.5t2.5 -17.5q0 -11 -5 -18zM198 740q-7 -10 -24 -20t-29 -10q-33 0 -44 30v31q0 44 47 44q34 0 50 -24q0 -4 2.5 -15.5t2.5 -17.5q0 -11 -5 -18z" />
<glyph unicode="&#xab;" horiz-adv-x="633" d="M185 398q-16 -20 -45 -64q11 -38 38 -91q42 -84 44 -89q-15 -6 -31 -6q-35 0 -64 50q-7 15 -22 41t-23.5 36.5t-15.5 24t-7 25.5q15 14 54 71q31 46 64 62q3 16 22 16q5 0 13.5 -1t12.5 -1q6 0 9 1v-13q-16 -21 -49 -62zM455 388q-16 -20 -45 -64q11 -38 38 -91 q42 -84 44 -89q-15 -6 -31 -6q-35 0 -64 50q-7 15 -22 41t-23.5 36.5t-15.5 24t-7 25.5q15 14 54 71q31 46 64 62q3 16 22 16q5 0 13.5 -1t12.5 -1q6 0 9 1v-13q-16 -21 -49 -62z" />
<glyph unicode="&#xac;" />
<glyph unicode="&#xad;" horiz-adv-x="650" d="M506 289q-22 -6 -46 -6q-13 0 -38.5 1.5t-37.5 1.5q2 0 -40 -3l-45 -1q-92 -2 -93 -2q-59 0 -141 7q-4 20 -4 30q0 18 7 32q148 1 443 -9q1 9 1 -27q0 -16 -6 -24z" />
<glyph unicode="&#xb4;" horiz-adv-x="509" d="M343 778q-31 -35 -64 -35q-19 0 -34 7q-5 5 -5 9t12 14l7.5 7.5t6.5 7.5q24 46 47 59l83 -2v-11q-7 -5 -53 -56z" />
<glyph unicode="&#xbb;" horiz-adv-x="611" d="M75 147zM147 171q-17 -14 -43 -14q-15 0 -29 6q5 31 37.5 78.5t38.5 74.5q0 1 -74 157q9 -1 25.5 1t22.5 2q23 0 33 -18q7 -15 24.5 -44t55.5 -91q-8 -32 -43 -77q-38 -50 -48 -75zM397 161q-17 -14 -43 -14q-15 0 -29 6q5 31 37.5 78.5t38.5 74.5q0 1 -74 157 q9 -1 25.5 1t22.5 2q23 0 33 -18q7 -15 24.5 -44t55.5 -91q-8 -32 -43 -77q-38 -50 -48 -75z" />
<glyph unicode="&#xc0;" horiz-adv-x="686" d="M22 59zM600 59q-6 0 -19 1h-19q-14 18 -28 57q-11 30 -21 61q-29 73 -90 73h-8q-5 -1 -8 -1q-17 0 -52 2.5t-53 2.5q-10 0 -29.5 -3t-27.5 -3q-7 0 -17 3q-13 3 -17 3q-16 -24 -55 -98q-33 -62 -60 -95q-19 -3 -38 -3q-22 0 -36 9q62 125 195 372q8 13 23 39q6 14 19 41 t26 53q16 32 22 56q8 11 24 11q8 0 22.5 -3t21.5 -3h3q13 -23 37 -69l20 -50q34 -85 100 -226q77 -163 103 -224q-16 -6 -38 -6zM400 401q-4 12 -13 37q-14 26 -40 78q-2 1 -6 1q-5 0 -7 -1q-7 -16 -50 -91q-32 -56 -38 -96q30 1 81 -1q59 -3 81 -3q15 0 23 1q-4 11 -31 75z M260 747l-91 94l3 6h95q62 -57 72 -95q-26 -2 -79 -5z" />
<glyph unicode="&#xc1;" horiz-adv-x="686" d="M22 59zM600 59q-6 0 -19 1h-19q-14 18 -28 57q-11 30 -21 61q-29 73 -90 73h-8q-5 -1 -8 -1q-17 0 -52 2.5t-53 2.5q-10 0 -29.5 -3t-27.5 -3q-7 0 -17 3q-13 3 -17 3q-16 -24 -55 -98q-33 -62 -60 -95q-19 -3 -38 -3q-22 0 -36 9q62 125 195 372q8 13 23 39q6 14 19 41 t26 53q16 32 22 56q8 11 24 11q8 0 22.5 -3t21.5 -3h3q13 -23 37 -69l20 -50q34 -85 100 -226q77 -163 103 -224q-16 -6 -38 -6zM400 401q-4 12 -13 37q-14 26 -40 78q-2 1 -6 1q-5 0 -7 -1q-7 -16 -50 -91q-32 -56 -38 -96q30 1 81 -1q59 -3 81 -3q15 0 23 1q-4 11 -31 75z M344 778q-31 -35 -64 -35q-19 0 -34 7q-5 5 -5 9t12 14l7.5 7.5t6.5 7.5q24 46 47 59l83 -2v-11q-7 -5 -53 -56z" />
<glyph unicode="&#xc2;" horiz-adv-x="686" d="M600 59q-6 0 -19 1h-19q-14 18 -28 57q-11 30 -21 61q-29 73 -90 73h-8q-5 -1 -8 -1q-17 0 -52 2.5t-53 2.5q-10 0 -29.5 -3t-27.5 -3q-7 0 -17 3q-13 3 -17 3q-16 -24 -55 -98q-33 -62 -60 -95q-19 -3 -38 -3q-22 0 -36 9q62 125 195 372q8 13 23 39q6 14 19 41t26 53 q16 32 22 56q8 11 24 11q8 0 22.5 -3t21.5 -3h3q13 -23 37 -69l20 -50q34 -85 100 -226q77 -163 103 -224q-16 -6 -38 -6zM400 401q-4 12 -13 37q-14 26 -40 78q-2 1 -6 1q-5 0 -7 -1q-7 -16 -50 -91q-32 -56 -38 -96q30 1 81 -1q59 -3 81 -3q15 0 23 1q-4 11 -31 75z" />
<glyph unicode="&#xc4;" horiz-adv-x="686" d="M22 59zM600 59q-6 0 -19 1h-19q-14 18 -28 57q-11 30 -21 61q-29 73 -90 73h-8q-5 -1 -8 -1q-17 0 -52 2.5t-53 2.5q-10 0 -29.5 -3t-27.5 -3q-7 0 -17 3q-13 3 -17 3q-16 -24 -55 -98q-33 -62 -60 -95q-19 -3 -38 -3q-22 0 -36 9q62 125 195 372q8 13 23 39q6 14 19 41 t26 53q16 32 22 56q8 11 24 11q8 0 22.5 -3t21.5 -3h3q13 -23 37 -69l20 -50q34 -85 100 -226q77 -163 103 -224q-16 -6 -38 -6zM400 401q-4 12 -13 37q-14 26 -40 78q-2 1 -6 1q-5 0 -7 -1q-7 -16 -50 -91q-32 -56 -38 -96q30 1 81 -1q59 -3 81 -3q15 0 23 1q-4 11 -31 75z M558 740q-7 -10 -24 -20t-29 -10q-33 0 -44 30v31q0 44 47 44q34 0 50 -24q0 -4 2.5 -15.5t2.5 -17.5q0 -11 -5 -18zM188 740q-7 -10 -24 -20t-29 -10q-33 0 -44 30v31q0 44 47 44q34 0 50 -24q0 -4 2.5 -15.5t2.5 -17.5q0 -11 -5 -18z" />
<glyph unicode="&#xc5;" horiz-adv-x="686" d="M600 59q-6 0 -19 1h-19q-14 18 -28 57q-11 30 -21 61q-29 73 -90 73h-8q-5 -1 -8 -1q-17 0 -52 2.5t-53 2.5q-10 0 -29.5 -3t-27.5 -3q-7 0 -17 3q-13 3 -17 3q-16 -24 -55 -98q-33 -62 -60 -95q-19 -3 -38 -3q-22 0 -36 9q62 125 195 372q8 13 23 39q6 14 19 41t26 53 q16 32 22 56q8 11 24 11q8 0 22.5 -3t21.5 -3h3q13 -23 37 -69l20 -50q34 -85 100 -226q77 -163 103 -224q-16 -6 -38 -6zM400 401q-4 12 -13 37q-14 26 -40 78q-2 1 -6 1q-5 0 -7 -1q-7 -16 -50 -91q-32 -56 -38 -96q30 1 81 -1q59 -3 81 -3q15 0 23 1q-4 11 -31 75z" />
<glyph unicode="&#xc7;" />
<glyph unicode="&#xc8;" horiz-adv-x="699" d="M62 66zM581 84q0 -7 1 -11l-6 -6h-40q-27 -1 -41 -1q-50 0 -149.5 2t-149.5 2q-63 0 -128 -3q-6 23 -6 46q0 20 5 60t5 60q0 16 -2 47t-2 47q0 29 2.5 87.5t2.5 87.5q0 42 -5 81q-6 47 -6 37q0 17 18 17q4 0 12.5 -1t13.5 -1q10 0 16 5q56 -8 148 -8q35 0 105 1.5 t105 1.5h29q20 -1 29 -1q7 2 6 2q3 3 7 3q6 0 9 -5l-8 -57q-71 -8 -185 -8q-26 0 -78 1h-78q-33 0 -49 -1l-15 -16q3 -15 3 -31q0 -13 -4 -41.5t-3 -44.5l1 -13l11 -11q25 -6 64 -6q91 0 68 1q40 -1 67 -11v-49q-33 -3 -65 -3q-107 0 -140 -8l-5 -6l3 -179l13 -13q23 1 68 1 q47 0 140.5 -3.5t140.5 -3.5q46 0 69 1q6 -7 6 -18q0 -6 -1.5 -16t-1.5 -15zM259 747l-91 94l3 6h95q62 -57 72 -95q-26 -2 -79 -5z" />
<glyph unicode="&#xc9;" horiz-adv-x="699" d="M62 66zM581 84q0 -7 1 -11l-6 -6h-40q-27 -1 -41 -1q-50 0 -149.5 2t-149.5 2q-63 0 -128 -3q-6 23 -6 46q0 20 5 60t5 60q0 16 -2 47t-2 47q0 29 2.5 87.5t2.5 87.5q0 42 -5 81q-6 47 -6 37q0 17 18 17q4 0 12.5 -1t13.5 -1q10 0 16 5q56 -8 148 -8q35 0 105 1.5 t105 1.5h29q20 -1 29 -1q7 2 6 2q3 3 7 3q6 0 9 -5l-8 -57q-71 -8 -185 -8q-26 0 -78 1h-78q-33 0 -49 -1l-15 -16q3 -15 3 -31q0 -13 -4 -41.5t-3 -44.5l1 -13l11 -11q25 -6 64 -6q91 0 68 1q40 -1 67 -11v-49q-33 -3 -65 -3q-107 0 -140 -8l-5 -6l3 -179l13 -13q23 1 68 1 q47 0 140.5 -3.5t140.5 -3.5q46 0 69 1q6 -7 6 -18q0 -6 -1.5 -16t-1.5 -15zM343 778q-31 -35 -64 -35q-19 0 -34 7q-5 5 -5 9t12 14l7.5 7.5t6.5 7.5q24 46 47 59l83 -2v-11q-7 -5 -53 -56z" />
<glyph unicode="&#xca;" horiz-adv-x="699" d="M581 84q0 -7 1 -11l-6 -6h-40q-27 -1 -41 -1q-50 0 -149.5 2t-149.5 2q-63 0 -128 -3q-6 23 -6 46q0 20 5 60t5 60q0 16 -2 47t-2 47q0 29 2.5 87.5t2.5 87.5q0 42 -5 81q-6 47 -6 37q0 17 18 17q4 0 12.5 -1t13.5 -1q10 0 16 5q56 -8 148 -8q35 0 105 1.5t105 1.5h29 q20 -1 29 -1q7 2 6 2q3 3 7 3q6 0 9 -5l-8 -57q-71 -8 -185 -8q-26 0 -78 1h-78q-33 0 -49 -1l-15 -16q3 -15 3 -31q0 -13 -4 -41.5t-3 -44.5l1 -13l11 -11q25 -6 64 -6q91 0 68 1q40 -1 67 -11v-49q-33 -3 -65 -3q-107 0 -140 -8l-5 -6l3 -179l13 -13q23 1 68 1 q47 0 140.5 -3.5t140.5 -3.5q46 0 69 1q6 -7 6 -18q0 -6 -1.5 -16t-1.5 -15z" />
<glyph unicode="&#xcb;" horiz-adv-x="699" d="M581 84q0 -7 1 -11l-6 -6h-40q-27 -1 -41 -1q-50 0 -149.5 2t-149.5 2q-63 0 -128 -3q-6 23 -6 46q0 20 5 60t5 60q0 16 -2 47t-2 47q0 29 2.5 87.5t2.5 87.5q0 42 -5 81q-6 47 -6 37q0 17 18 17q4 0 12.5 -1t13.5 -1q10 0 16 5q56 -8 148 -8q35 0 105 1.5t105 1.5h29 q20 -1 29 -1q7 2 6 2q3 3 7 3q6 0 9 -5l-8 -57q-71 -8 -185 -8q-26 0 -78 1h-78q-33 0 -49 -1l-15 -16q3 -15 3 -31q0 -13 -4 -41.5t-3 -44.5l1 -13l11 -11q25 -6 64 -6q91 0 68 1q40 -1 67 -11v-49q-33 -3 -65 -3q-107 0 -140 -8l-5 -6l3 -179l13 -13q23 1 68 1 q47 0 140.5 -3.5t140.5 -3.5q46 0 69 1q6 -7 6 -18q0 -6 -1.5 -16t-1.5 -15z" />
<glyph unicode="&#xd0;" />
<glyph unicode="&#xd2;" horiz-adv-x="814" d="M64 35zM688 255q-12 -17 -22.5 -53t-28.5 -55q-101 -108 -218 -107q-45 -5 -53 -5q-96 0 -186 58q-46 29 -68.5 77t-42.5 96l-5 110q14 35 41 107q23 60 70 92q110 75 208 75q76 0 153 -43t117 -107q36 -58 36 -185v-30q-1 -20 -1 -30zM585 456q-8 13 -25 36 q-65 76 -185 76q-47 0 -79 -9q-52 -15 -93 -65q-36 -44 -52 -101q-8 -29 -8 -41q0 -20 5 -53q20 -132 110 -169q58 -24 127 -24q77 0 122 24q17 9 36 26q79 70 79 180q0 62 -37 120zM319 747l-91 94l3 6h95q62 -57 72 -95q-26 -2 -79 -5z" />
<glyph unicode="&#xd3;" horiz-adv-x="814" d="M64 35zM688 255q-12 -17 -22.5 -53t-28.5 -55q-101 -108 -218 -107q-45 -5 -53 -5q-96 0 -186 58q-46 29 -68.5 77t-42.5 96l-5 110q14 35 41 107q23 60 70 92q110 75 208 75q76 0 153 -43t117 -107q36 -58 36 -185v-30q-1 -20 -1 -30zM585 456q-8 13 -25 36 q-65 76 -185 76q-47 0 -79 -9q-52 -15 -93 -65q-36 -44 -52 -101q-8 -29 -8 -41q0 -20 5 -53q20 -132 110 -169q58 -24 127 -24q77 0 122 24q17 9 36 26q79 70 79 180q0 62 -37 120zM373 778q-31 -35 -64 -35q-19 0 -34 7q-5 5 -5 9t12 14l7.5 7.5t6.5 7.5q24 46 47 59 l83 -2v-11q-7 -5 -53 -56z" />
<glyph unicode="&#xd4;" horiz-adv-x="814" d="M688 255q-12 -17 -22.5 -53t-28.5 -55q-101 -108 -218 -107q-45 -5 -53 -5q-96 0 -186 58q-46 29 -68.5 77t-42.5 96l-5 110q14 35 41 107q23 60 70 92q110 75 208 75q76 0 153 -43t117 -107q36 -58 36 -185v-30q-1 -20 -1 -30zM585 456q-8 13 -25 36q-65 76 -185 76 q-47 0 -79 -9q-52 -15 -93 -65q-36 -44 -52 -101q-8 -29 -8 -41q0 -20 5 -53q20 -132 110 -169q58 -24 127 -24q77 0 122 24q17 9 36 26q79 70 79 180q0 62 -37 120z" />
<glyph unicode="&#xd6;" horiz-adv-x="814" d="M64 35zM688 255q-12 -17 -22.5 -53t-28.5 -55q-101 -108 -218 -107q-45 -5 -53 -5q-96 0 -186 58q-46 29 -68.5 77t-42.5 96l-5 110q14 35 41 107q23 60 70 92q110 75 208 75q76 0 153 -43t117 -107q36 -58 36 -185v-30q-1 -20 -1 -30zM585 456q-8 13 -25 36 q-65 76 -185 76q-47 0 -79 -9q-52 -15 -93 -65q-36 -44 -52 -101q-8 -29 -8 -41q0 -20 5 -53q20 -132 110 -169q58 -24 127 -24q77 0 122 24q17 9 36 26q79 70 79 180q0 62 -37 120zM577 740q-7 -10 -24 -20t-29 -10q-33 0 -44 30v31q0 44 47 44q34 0 50 -24q0 -4 2.5 -15.5 t2.5 -17.5q0 -11 -5 -18zM207 740q-7 -10 -24 -20t-29 -10q-33 0 -44 30v31q0 44 47 44q34 0 50 -24q0 -4 2.5 -15.5t2.5 -17.5q0 -11 -5 -18z" />
<glyph unicode="&#xd9;" horiz-adv-x="721" d="M62 40zM594 285q0 -52 -1 -60t-8 -34q-23 -85 -77 -114q-70 -37 -191 -37q-76 0 -93.5 4t-47.5 19.5t-41 27.5q-7 6 -21 30q-50 86 -50 239q0 27 1.5 81t1.5 82q0 55 -5 94q12 10 33 10q12 0 38 -4q7 -57 10 -193q0 -32 3 -95q2 -12 5 -36l2 -62q4 -36 20 -57 q27 -35 81 -55q47 -18 97 -18q73 0 107 19q14 8 28 24q32 36 40 104q3 56 6 113q2 35 2 50q0 27 -13 204q30 8 46 8q9 0 18 -3q11 -78 11 -194q0 -24 -1 -73t-1 -74zM279 747l-91 94l3 6h95q62 -57 72 -95q-26 -2 -79 -5z" />
<glyph unicode="&#xda;" horiz-adv-x="721" d="M62 40zM594 285q0 -52 -1 -60t-8 -34q-23 -85 -77 -114q-70 -37 -191 -37q-76 0 -93.5 4t-47.5 19.5t-41 27.5q-7 6 -21 30q-50 86 -50 239q0 27 1.5 81t1.5 82q0 55 -5 94q12 10 33 10q12 0 38 -4q7 -57 10 -193q0 -32 3 -95q2 -12 5 -36l2 -62q4 -36 20 -57 q27 -35 81 -55q47 -18 97 -18q73 0 107 19q14 8 28 24q32 36 40 104q3 56 6 113q2 35 2 50q0 27 -13 204q30 8 46 8q9 0 18 -3q11 -78 11 -194q0 -24 -1 -73t-1 -74zM343 778q-31 -35 -64 -35q-19 0 -34 7q-5 5 -5 9t12 14l7.5 7.5t6.5 7.5q24 46 47 59l83 -2v-11 q-7 -5 -53 -56z" />
<glyph unicode="&#xdb;" horiz-adv-x="721" d="M594 285q0 -52 -1 -60t-8 -34q-23 -85 -77 -114q-70 -37 -191 -37q-76 0 -93.5 4t-47.5 19.5t-41 27.5q-7 6 -21 30q-50 86 -50 239q0 27 1.5 81t1.5 82q0 55 -5 94q12 10 33 10q12 0 38 -4q7 -57 10 -193q0 -32 3 -95q2 -12 5 -36l2 -62q4 -36 20 -57q27 -35 81 -55 q47 -18 97 -18q73 0 107 19q14 8 28 24q32 36 40 104q3 56 6 113q2 35 2 50q0 27 -13 204q30 8 46 8q9 0 18 -3q11 -78 11 -194q0 -24 -1 -73t-1 -74z" />
<glyph unicode="&#xdc;" horiz-adv-x="721" d="M62 40zM594 285q0 -52 -1 -60t-8 -34q-23 -85 -77 -114q-70 -37 -191 -37q-76 0 -93.5 4t-47.5 19.5t-41 27.5q-7 6 -21 30q-50 86 -50 239q0 27 1.5 81t1.5 82q0 55 -5 94q12 10 33 10q12 0 38 -4q7 -57 10 -193q0 -32 3 -95q2 -12 5 -36l2 -62q4 -36 20 -57 q27 -35 81 -55q47 -18 97 -18q73 0 107 19q14 8 28 24q32 36 40 104q3 56 6 113q2 35 2 50q0 27 -13 204q30 8 46 8q9 0 18 -3q11 -78 11 -194q0 -24 -1 -73t-1 -74zM558 750q-7 -10 -24 -20t-29 -10q-33 0 -44 30v31q0 44 47 44q34 0 50 -24q0 -4 2.5 -15.5t2.5 -17.5 q0 -11 -5 -18zM188 750q-7 -10 -24 -20t-29 -10q-33 0 -44 30v31q0 44 47 44q34 0 50 -24q0 -4 2.5 -15.5t2.5 -17.5q0 -11 -5 -18z" />
<glyph unicode="&#xdd;" />
<glyph unicode="&#xe4;" horiz-adv-x="686" d="M22 59zM600 59q-6 0 -19 1h-19q-14 18 -28 57q-11 30 -21 61q-29 73 -90 73h-8q-5 -1 -8 -1q-17 0 -52 2.5t-53 2.5q-10 0 -29.5 -3t-27.5 -3q-7 0 -17 3q-13 3 -17 3q-16 -24 -55 -98q-33 -62 -60 -95q-19 -3 -38 -3q-22 0 -36 9q62 125 195 372q8 13 23 39q6 14 19 41 t26 53q16 32 22 56q8 11 24 11q8 0 22.5 -3t21.5 -3h3q13 -23 37 -69l20 -50q34 -85 100 -226q77 -163 103 -224q-16 -6 -38 -6zM400 401q-4 12 -13 37q-14 26 -40 78q-2 1 -6 1q-5 0 -7 -1q-7 -16 -50 -91q-32 -56 -38 -96q30 1 81 -1q59 -3 81 -3q15 0 23 1q-4 11 -31 75z M548 740q-7 -10 -24 -20t-29 -10q-33 0 -44 30v31q0 44 47 44q34 0 50 -24q0 -4 2.5 -15.5t2.5 -17.5q0 -11 -5 -18zM178 740q-7 -10 -24 -20t-29 -10q-33 0 -44 30v31q0 44 47 44q34 0 50 -24q0 -4 2.5 -15.5t2.5 -17.5q0 -11 -5 -18z" />
<glyph unicode="&#xe5;" />
<glyph unicode="&#xe6;" />
<glyph unicode="&#xe7;" />
<glyph unicode="&#xe8;" horiz-adv-x="699" d="M62 66zM581 84q0 -7 1 -11l-6 -6h-40q-27 -1 -41 -1q-50 0 -149.5 2t-149.5 2q-63 0 -128 -3q-6 23 -6 46q0 20 5 60t5 60q0 16 -2 47t-2 47q0 29 2.5 87.5t2.5 87.5q0 42 -5 81q-6 47 -6 37q0 17 18 17q4 0 12.5 -1t13.5 -1q10 0 16 5q56 -8 148 -8q35 0 105 1.5 t105 1.5h29q20 -1 29 -1q7 2 6 2q3 3 7 3q6 0 9 -5l-8 -57q-71 -8 -185 -8q-26 0 -78 1h-78q-33 0 -49 -1l-15 -16q3 -15 3 -31q0 -13 -4 -41.5t-3 -44.5l1 -13l11 -11q25 -6 64 -6q91 0 68 1q40 -1 67 -11v-49q-33 -3 -65 -3q-107 0 -140 -8l-5 -6l3 -179l13 -13q23 1 68 1 q47 0 140.5 -3.5t140.5 -3.5q46 0 69 1q6 -7 6 -18q0 -6 -1.5 -16t-1.5 -15zM259 747l-91 94l3 6h95q62 -57 72 -95q-26 -2 -79 -5z" />
<glyph unicode="&#xe9;" horiz-adv-x="699" d="M62 66zM581 84q0 -7 1 -11l-6 -6h-40q-27 -1 -41 -1q-50 0 -149.5 2t-149.5 2q-63 0 -128 -3q-6 23 -6 46q0 20 5 60t5 60q0 16 -2 47t-2 47q0 29 2.5 87.5t2.5 87.5q0 42 -5 81q-6 47 -6 37q0 17 18 17q4 0 12.5 -1t13.5 -1q10 0 16 5q56 -8 148 -8q35 0 105 1.5 t105 1.5h29q20 -1 29 -1q7 2 6 2q3 3 7 3q6 0 9 -5l-8 -57q-71 -8 -185 -8q-26 0 -78 1h-78q-33 0 -49 -1l-15 -16q3 -15 3 -31q0 -13 -4 -41.5t-3 -44.5l1 -13l11 -11q25 -6 64 -6q91 0 68 1q40 -1 67 -11v-49q-33 -3 -65 -3q-107 0 -140 -8l-5 -6l3 -179l13 -13q23 1 68 1 q47 0 140.5 -3.5t140.5 -3.5q46 0 69 1q6 -7 6 -18q0 -6 -1.5 -16t-1.5 -15zM343 778q-31 -35 -64 -35q-19 0 -34 7q-5 5 -5 9t12 14l7.5 7.5t6.5 7.5q24 46 47 59l83 -2v-11q-7 -5 -53 -56z" />
<glyph unicode="&#xee;" />
<glyph unicode="&#xef;" />
<glyph unicode="&#xf1;" />
<glyph unicode="&#xf2;" horiz-adv-x="814" d="M64 35zM688 255q-12 -17 -22.5 -53t-28.5 -55q-101 -108 -218 -107q-45 -5 -53 -5q-96 0 -186 58q-46 29 -68.5 77t-42.5 96l-5 110q14 35 41 107q23 60 70 92q110 75 208 75q76 0 153 -43t117 -107q36 -58 36 -185v-30q-1 -20 -1 -30zM585 456q-8 13 -25 36 q-65 76 -185 76q-47 0 -79 -9q-52 -15 -93 -65q-36 -44 -52 -101q-8 -29 -8 -41q0 -20 5 -53q20 -132 110 -169q58 -24 127 -24q77 0 122 24q17 9 36 26q79 70 79 180q0 62 -37 120zM319 747l-91 94l3 6h95q62 -57 72 -95q-26 -2 -79 -5z" />
<glyph unicode="&#xf3;" horiz-adv-x="814" d="M64 35zM688 255q-12 -17 -22.5 -53t-28.5 -55q-101 -108 -218 -107q-45 -5 -53 -5q-96 0 -186 58q-46 29 -68.5 77t-42.5 96l-5 110q14 35 41 107q23 60 70 92q110 75 208 75q76 0 153 -43t117 -107q36 -58 36 -185v-30q-1 -20 -1 -30zM585 456q-8 13 -25 36 q-65 76 -185 76q-47 0 -79 -9q-52 -15 -93 -65q-36 -44 -52 -101q-8 -29 -8 -41q0 -20 5 -53q20 -132 110 -169q58 -24 127 -24q77 0 122 24q17 9 36 26q79 70 79 180q0 62 -37 120zM373 778q-31 -35 -64 -35q-19 0 -34 7q-5 5 -5 9t12 14l7.5 7.5t6.5 7.5q24 46 47 59 l83 -2v-11q-7 -5 -53 -56z" />
<glyph unicode="&#xf4;" />
<glyph unicode="&#xf6;" horiz-adv-x="814" d="M64 35zM688 255q-12 -17 -22.5 -53t-28.5 -55q-101 -108 -218 -107q-45 -5 -53 -5q-96 0 -186 58q-46 29 -68.5 77t-42.5 96l-5 110q14 35 41 107q23 60 70 92q110 75 208 75q76 0 153 -43t117 -107q36 -58 36 -185v-30q-1 -20 -1 -30zM585 456q-8 13 -25 36 q-65 76 -185 76q-47 0 -79 -9q-52 -15 -93 -65q-36 -44 -52 -101q-8 -29 -8 -41q0 -20 5 -53q20 -132 110 -169q58 -24 127 -24q77 0 122 24q17 9 36 26q79 70 79 180q0 62 -37 120zM567 740q-7 -10 -24 -20t-29 -10q-33 0 -44 30v31q0 44 47 44q34 0 50 -24q0 -4 2.5 -15.5 t2.5 -17.5q0 -11 -5 -18zM197 740q-7 -10 -24 -20t-29 -10q-33 0 -44 30v31q0 44 47 44q34 0 50 -24q0 -4 2.5 -15.5t2.5 -17.5q0 -11 -5 -18z" />
<glyph unicode="&#xf9;" horiz-adv-x="721" d="M62 40zM594 285q0 -52 -1 -60t-8 -34q-23 -85 -77 -114q-70 -37 -191 -37q-76 0 -93.5 4t-47.5 19.5t-41 27.5q-7 6 -21 30q-50 86 -50 239q0 27 1.5 81t1.5 82q0 55 -5 94q12 10 33 10q12 0 38 -4q7 -57 10 -193q0 -32 3 -95q2 -12 5 -36l2 -62q4 -36 20 -57 q27 -35 81 -55q47 -18 97 -18q73 0 107 19q14 8 28 24q32 36 40 104q3 56 6 113q2 35 2 50q0 27 -13 204q30 8 46 8q9 0 18 -3q11 -78 11 -194q0 -24 -1 -73t-1 -74zM279 747l-91 94l3 6h95q62 -57 72 -95q-26 -2 -79 -5z" />
<glyph unicode="&#xfa;" horiz-adv-x="721" d="M62 40zM594 285q0 -52 -1 -60t-8 -34q-23 -85 -77 -114q-70 -37 -191 -37q-76 0 -93.5 4t-47.5 19.5t-41 27.5q-7 6 -21 30q-50 86 -50 239q0 27 1.5 81t1.5 82q0 55 -5 94q12 10 33 10q12 0 38 -4q7 -57 10 -193q0 -32 3 -95q2 -12 5 -36l2 -62q4 -36 20 -57 q27 -35 81 -55q47 -18 97 -18q73 0 107 19q14 8 28 24q32 36 40 104q3 56 6 113q2 35 2 50q0 27 -13 204q30 8 46 8q9 0 18 -3q11 -78 11 -194q0 -24 -1 -73t-1 -74zM343 778q-31 -35 -64 -35q-19 0 -34 7q-5 5 -5 9t12 14l7.5 7.5t6.5 7.5q24 46 47 59l83 -2v-11 q-7 -5 -53 -56z" />
<glyph unicode="&#xfc;" horiz-adv-x="721" d="M62 40zM594 285q0 -52 -1 -60t-8 -34q-23 -85 -77 -114q-70 -37 -191 -37q-76 0 -93.5 4t-47.5 19.5t-41 27.5q-7 6 -21 30q-50 86 -50 239q0 27 1.5 81t1.5 82q0 55 -5 94q12 10 33 10q12 0 38 -4q7 -57 10 -193q0 -32 3 -95q2 -12 5 -36l2 -62q4 -36 20 -57 q27 -35 81 -55q47 -18 97 -18q73 0 107 19q14 8 28 24q32 36 40 104q3 56 6 113q2 35 2 50q0 27 -13 204q30 8 46 8q9 0 18 -3q11 -78 11 -194q0 -24 -1 -73t-1 -74zM558 750q-7 -10 -24 -20t-29 -10q-33 0 -44 30v31q0 44 47 44q34 0 50 -24q0 -4 2.5 -15.5t2.5 -17.5 q0 -11 -5 -18zM188 750q-7 -10 -24 -20t-29 -10q-33 0 -44 30v31q0 44 47 44q34 0 50 -24q0 -4 2.5 -15.5t2.5 -17.5q0 -11 -5 -18z" />
<glyph unicode="&#x153;" />
<glyph unicode="&#x178;" />
<glyph unicode="&#x2dc;" />
<glyph unicode="&#x2000;" horiz-adv-x="423" />
<glyph unicode="&#x2001;" horiz-adv-x="847" />
<glyph unicode="&#x2002;" horiz-adv-x="423" />
<glyph unicode="&#x2003;" horiz-adv-x="847" />
<glyph unicode="&#x2004;" horiz-adv-x="282" />
<glyph unicode="&#x2005;" horiz-adv-x="211" />
<glyph unicode="&#x2006;" horiz-adv-x="141" />
<glyph unicode="&#x2007;" horiz-adv-x="141" />
<glyph unicode="&#x2008;" horiz-adv-x="105" />
<glyph unicode="&#x2009;" horiz-adv-x="169" />
<glyph unicode="&#x200a;" horiz-adv-x="47" />
<glyph unicode="&#x2010;" horiz-adv-x="650" d="M506 289q-22 -6 -46 -6q-13 0 -38.5 1.5t-37.5 1.5q2 0 -40 -3l-45 -1q-92 -2 -93 -2q-59 0 -141 7q-4 20 -4 30q0 18 7 32q148 1 443 -9q1 9 1 -27q0 -16 -6 -24z" />
<glyph unicode="&#x2011;" horiz-adv-x="650" d="M506 289q-22 -6 -46 -6q-13 0 -38.5 1.5t-37.5 1.5q2 0 -40 -3l-45 -1q-92 -2 -93 -2q-59 0 -141 7q-4 20 -4 30q0 18 7 32q148 1 443 -9q1 9 1 -27q0 -16 -6 -24z" />
<glyph unicode="&#x2012;" horiz-adv-x="650" d="M506 289q-22 -6 -46 -6q-13 0 -38.5 1.5t-37.5 1.5q2 0 -40 -3l-45 -1q-92 -2 -93 -2q-59 0 -141 7q-4 20 -4 30q0 18 7 32q148 1 443 -9q1 9 1 -27q0 -16 -6 -24z" />
<glyph unicode="&#x2013;" horiz-adv-x="800" d="M656 289q-22 -6 -46 -6q-13 0 -38.5 1.5t-37.5 1.5t-36 -2t-36 -2q-29 0 -87.5 -1t-88.5 -1q-112 0 -211 7q-4 20 -4 30q0 18 7 32q72 -3 143 -3h66q280 0 374 -6q1 9 1 -27q0 -16 -6 -24z" />
<glyph unicode="&#x2014;" />
<glyph unicode="&#x2026;" />
<glyph unicode="&#x202f;" horiz-adv-x="169" />
<glyph unicode="&#x2039;" horiz-adv-x="389" d="M195 398q-16 -20 -45 -64q11 -38 38 -91q42 -84 44 -89q-15 -6 -31 -6q-35 0 -64 50q-7 15 -22 41t-23.5 36.5t-15.5 24t-7 25.5q15 14 54 71q31 46 64 62q3 16 22 16q5 0 13.5 -1t12.5 -1q6 0 9 1v-13q-16 -21 -49 -62z" />
<glyph unicode="&#x203a;" horiz-adv-x="381" d="M147 171q-17 -14 -43 -14q-15 0 -29 6q5 31 37.5 78.5t38.5 74.5q0 1 -74 157q9 -1 25.5 1t22.5 2q23 0 33 -18q7 -15 24.5 -44t55.5 -91q-8 -32 -43 -77q-38 -50 -48 -75z" />
<glyph unicode="&#x205f;" horiz-adv-x="211" />
<glyph unicode="&#xe000;" horiz-adv-x="640" d="M0 640h640v-640h-640v640z" />
<glyph d="M0 0z" />
</font>
</defs>
</svg>
