<?xml version="1.0" standalone="no"?>
<!DOCTYPE svg PUBLIC "-//W3C//DTD SVG 1.1//EN" "http://www.w3.org/Graphics/SVG/1.1/DTD/svg11.dtd" >
<svg xmlns="http://www.w3.org/2000/svg">
<metadata></metadata>
<defs>
<font id="sambaregular" horiz-adv-x="480" >
<font-face units-per-em="1000" ascent="800" descent="-200" />
<missing-glyph horiz-adv-x="451" />
<glyph horiz-adv-x="1000" />
<glyph horiz-adv-x="1000" />
<glyph unicode="&#xd;" horiz-adv-x="451" />
<glyph unicode=" "  horiz-adv-x="451" />
<glyph unicode="&#x09;" horiz-adv-x="451" />
<glyph unicode="&#xa0;" horiz-adv-x="451" />
<glyph unicode="!" horiz-adv-x="170" d="M120 680l-10 -530h-40l-10 530h60zM120 20q0 -30 -30 -30t-30 30t30 30t30 -30z" />
<glyph unicode="&#x22;" horiz-adv-x="264" d="M213 666l-8 -94q0 -4 -3 -14q-10 -20 -25 -5q-7 6 -8 19l-7 94q-2 22 3 30q9 15 23 15q15 0 22 -16q5 -9 3 -29zM123 666l-8 -94q0 -4 -3 -14q-10 -20 -25 -5q-7 6 -8 19l-7 94q-2 22 3 30q9 15 23 15q15 0 22 -16q5 -9 3 -29z" />
<glyph unicode="#" horiz-adv-x="562" d="M512 490l-5 -40h-71l-31 -220h71l-6 -40h-70l-27 -190h-40l27 190h-180l-27 -190h-40l27 190h-70l6 40h69l32 220h-70l5 40h70l27 190h40l-27 -190h180l25 180h40l-25 -180h70zM396 450h-179l-32 -220h180z" />
<glyph unicode="$" horiz-adv-x="560" d="M510 170q0 -60 -36.5 -108t-93.5 -65v-57h-40v50h-10q-30 0 -90 4v-54h-40v55l-130 5v40l130 -5v315q-120 37 -120 180q0 52 34.5 94t85.5 57v59h40v-51q7 1 22 1t39 -2q30 -2 39 -2v54h40v-56l100 -4v-40l-100 4v-292q130 -34 130 -182zM340 361v285q-8 0 -39 2 q-25 2 -40 2q-14 0 -21 -1v-270q34 -6 100 -18zM200 392v247q-34 -13 -57 -43t-23 -66q0 -103 80 -138zM470 170q0 108 -90 141v-272q41 16 65.5 52t24.5 79zM340 30v292q-33 6 -100 18v-306q60 -4 90 -4h10z" />
<glyph unicode="%" horiz-adv-x="570" d="M290 510q0 -37 -26 -63.5t-64 -26.5h-20q-37 0 -63.5 26.5t-26.5 63.5v80q0 38 26.5 64t63.5 26h20q38 0 64 -26t26 -64v-80zM520 690l-404 -700h-46l404 700h46zM500 90q0 -37 -26 -63.5t-64 -26.5h-20q-37 0 -63.5 26.5t-26.5 63.5v80q0 38 26.5 64t63.5 26h20 q38 0 64 -26t26 -64v-80zM250 510v80q0 20 -15 35t-35 15h-20q-20 0 -35 -15t-15 -35v-80q0 -20 15 -35t35 -15h20q20 0 35 15t15 35zM460 90v80q0 20 -15 35t-35 15h-20q-20 0 -35 -15t-15 -35v-80q0 -20 15 -35t35 -15h20q20 0 35 15t15 35z" />
<glyph unicode="&#x26;" horiz-adv-x="500" d="M450 0h-10l-230 -10q-59 0 -99.5 45.5t-40.5 104.5v150q0 84 69 129q-49 45 -49 121q0 60 41 105t100 45h9l170 -10v-40l-176 10q-43 0 -73.5 -33t-30.5 -77v-10q0 -60 52 -93q14 3 28 3h10l230 -10v-430zM410 38v354l-197 8q-43 0 -73 -33.5t-30 -76.5v-150 q0 -43 30 -76.5t73 -33.5h7z" />
<glyph unicode="'" horiz-adv-x="177" d="M123 666l-8 -94q0 -4 -3 -14q-10 -20 -25 -5q-7 6 -8 19l-7 94q-2 22 3 30q9 15 23 15q15 0 22 -16q5 -9 3 -29z" />
<glyph unicode="(" horiz-adv-x="271" d="M290 -60l-90 -10h-10q-58 0 -91 48q-29 42 -29 102v520q0 60 29 102q33 48 91 48h10l90 -10v-40l-97 10q-42 0 -64 -35q-19 -30 -19 -75v-520q0 -45 19 -74q22 -36 64 -36h7l90 10v-40z" />
<glyph unicode=")" horiz-adv-x="269" d="M210 80q0 -60 -29 -102q-33 -48 -91 -48h-10l-90 10v40l97 -10q42 0 64 36q19 29 19 74v520q0 45 -19 75q-22 35 -64 35h-7l-90 -10v40l90 10h10q58 0 91 -48q29 -42 29 -102v-520z" />
<glyph unicode="*" horiz-adv-x="468" d="M391 451q-34 0 -110 48q48 -76 48 -110q0 -22 -19 -22q-34 0 -60 119q-26 -119 -60 -119q-19 0 -19 22q0 34 48 110q-76 -48 -110 -48q-22 0 -22 19q0 34 119 60q-119 26 -119 60q0 19 22 19q34 0 110 -48q-48 76 -48 110q0 22 19 22q34 0 60 -119q26 119 60 119 q19 0 19 -22q0 -34 -48 -110q76 48 110 48q22 0 22 -19q0 -34 -119 -60q119 -26 119 -60q0 -19 -22 -19z" />
<glyph unicode="+" horiz-adv-x="490" d="M435 225h-160v-160h-40v160h-160v40h160v160h40v-160h160v-40z" />
<glyph unicode="," horiz-adv-x="180" d="M135 30q0 -7 -3 -15l-25 -49q-6 -11 -17 -11q-21 0 -21 20q0 4 2 9l9 17q-15 12 -15 29q0 14 10.5 24.5t24.5 10.5t24.5 -10.5t10.5 -24.5z" />
<glyph unicode="-" horiz-adv-x="490" d="M440 220h-370v50h370v-50z" />
<glyph unicode="." horiz-adv-x="170" d="M125 30q0 -14 -10.5 -24.5t-24.5 -10.5t-24.5 10.5t-10.5 24.5t10.5 24.5t24.5 10.5t24.5 -10.5t10.5 -24.5z" />
<glyph unicode="/" horiz-adv-x="570" d="M520 690l-404 -700h-46l404 700h46z" />
<glyph unicode="0" horiz-adv-x="490" d="M440 140q0 -62 -44 -106t-106 -44h-70q-62 0 -106 44t-44 106v400q0 62 44 106t106 44h70q62 0 106 -44t44 -106v-400zM400 140v400q0 46 -32 78t-78 32h-70q-46 0 -78 -32t-32 -78v-400q0 -46 32 -78t78 -32h70q46 0 78 32t32 78z" />
<glyph unicode="1" horiz-adv-x="360" d="M310 0h-240v40h110v500q0 45 -19 75q-22 35 -64 35h-7v40h10q58 0 91 -48q29 -42 29 -102v-500h90v-40z" />
<glyph unicode="2" horiz-adv-x="520" d="M470 120q0 -59 -29 -93q-32 -37 -90 -37h-11l-270 10v80q0 89 71 172q60 69 151 115q61 31 85 57q33 37 33 96q0 56 -36.5 93t-93.5 37q2 0 -75 -4l-115 -6v40l115 6q77 4 75 4q73 0 121.5 -48.5t48.5 -121.5q0 -82 -49 -128q-23 -23 -118 -75q-67 -37 -117 -99 q-56 -70 -56 -138v-42l238 -8q82 0 82 100h40v-10z" />
<glyph unicode="3" horiz-adv-x="520" d="M470 190q0 -101 -52.5 -153t-147.5 -47l-200 10v40l200 -10q160 -8 160 160q0 150 -190 150h-80v40h50q190 0 190 140q0 80 -44 109q-37 25 -116 20l-160 -10v40l160 10q200 12 200 -169q0 -123 -100 -157q130 -36 130 -173z" />
<glyph unicode="4" horiz-adv-x="500" d="M450 250q0 -84 -110 -90v-160h-40v161l-230 9v40l161 470h44l-162 -472l187 -7v149h40v-150q70 4 70 50v20h40v-20z" />
<glyph unicode="5" horiz-adv-x="500" d="M450 190q0 -93 -46 -145q-48 -55 -139 -55h-15l-180 10v40l180 -10h13q147 0 147 160v60q0 70 -32.5 100t-103.5 30q-6 0 -24 -1l-180 -10v311l350 10v-40l-310 -8v-231q183 9 164 9q176 0 176 -170v-60z" />
<glyph unicode="6" horiz-adv-x="500" d="M450 140q0 -62 -44 -106t-106 -44h-80q-62 0 -106 44t-44 106v390q0 61 42 110.5t102 49.5h6l210 -10v-40l-214 10q-44 0 -75 -37.5t-31 -82.5v-109q159 9 160 9q180 0 180 -180v-110zM410 140v110q0 140 -141 140l-159 -9v-241q0 -46 32.5 -78t77.5 -32h80q45 0 77.5 32 t32.5 78z" />
<glyph unicode="7" horiz-adv-x="490" d="M440 640l-238 -640h-45l131 350h-98v40h113l94 252l-185 8q-43 0 -72.5 -24t-29.5 -66v-10h-40v10q0 58 40 94t99 36h11l220 -10v-40z" />
<glyph unicode="8" horiz-adv-x="510" d="M460 140q0 -62 -44 -106t-106 -44h-90q-62 0 -106 44t-44 106v90q0 44 23.5 81t62.5 55q-66 45 -66 124v50q0 62 44 106t106 44h50q62 0 106 -44t44 -106v-50q0 -79 -66 -124q39 -18 62.5 -55t23.5 -81v-90zM400 490v50q0 46 -32 78t-78 32h-50q-46 0 -78 -32t-32 -78 v-50q0 -46 32 -78t78 -32h50q46 0 78 32t32 78zM420 140v90q0 46 -32 78t-78 32h-90q-46 0 -78 -32t-32 -78v-90q0 -46 32 -78t78 -32h90q46 0 78 32t32 78z" />
<glyph unicode="9" horiz-adv-x="500" d="M450 150q0 -61 -41 -109q-43 -51 -103 -51h-6l-210 10v40l214 -10q44 0 76 39q30 36 30 81v109q-159 -9 -160 -9q-180 0 -180 180v110q0 62 44 106t106 44h80q62 0 106 -44t44 -106v-390zM410 298v242q0 46 -32.5 78t-77.5 32h-80q-45 0 -77.5 -32t-32.5 -78v-110 q0 -140 141 -140q30 0 80 3q61 4 79 5z" />
<glyph unicode=":" horiz-adv-x="180" d="M135 400q0 -14 -10.5 -24.5t-24.5 -10.5t-24.5 10.5t-10.5 24.5t10.5 24.5t24.5 10.5t24.5 -10.5t10.5 -24.5zM135 30q0 -14 -10.5 -24.5t-24.5 -10.5t-24.5 10.5t-10.5 24.5t10.5 24.5t24.5 10.5t24.5 -10.5t10.5 -24.5z" />
<glyph unicode=";" horiz-adv-x="180" d="M135 400q0 -14 -10.5 -24.5t-24.5 -10.5t-24.5 10.5t-10.5 24.5t10.5 24.5t24.5 10.5t24.5 -10.5t10.5 -24.5zM135 30q0 -7 -3 -15l-25 -49q-6 -11 -17 -11q-21 0 -21 20q0 4 2 9l9 17q-15 12 -15 29q0 14 10.5 24.5t24.5 10.5t24.5 -10.5t10.5 -24.5z" />
<glyph unicode="&#x3c;" horiz-adv-x="472" d="M422 243h-275l132 -132l-28 -29l-181 181l181 181l28 -28l-132 -133h275v-40z" />
<glyph unicode="=" horiz-adv-x="490" d="M440 310h-370v40h370v-40zM440 140h-370v40h370v-40z" />
<glyph unicode="&#x3e;" horiz-adv-x="472" d="M422 263l-181 -181l-29 29l133 132h-275v40h275l-133 133l29 28z" />
<glyph unicode="?" d="M430 500q0 -65 -27 -102q-20 -27 -81.5 -67t-61.5 -111v-60h-40v60q0 94 96 154q40 25 57 52.5t17 73.5v40q0 46 -27.5 78t-72.5 32h-70q-46 0 -78 -32t-32 -78v-30h-40v30q0 62 44 106t106 44h70q62 0 101 -44t39 -106v-40zM280 30q0 -16 -11.5 -28t-28.5 -12 q-16 0 -28 12t-12 28q0 17 12 28.5t28 11.5q17 0 28.5 -11.5t11.5 -28.5z" />
<glyph unicode="@" horiz-adv-x="590" d="M540 0l-217 -10q-61 0 -102 40.5t-41 99.5v170q0 61 43.5 100.5t106.5 39.5h60q67 0 110 -48v130l-275 8q-43 0 -73.5 -33t-31.5 -77l-10 -400q-1 -44 30 -77t75 -33h5l270 10v-40l-277 -10q-60 0 -102 45t-41 105l10 400q2 61 43 105.5t100 44.5h7l310 -10v-560zM500 38 v252q0 46 -32 78t-78 32h-60q-46 0 -78 -32t-32 -78v-160q0 -43 30 -71.5t75 -28.5h5z" />
<glyph unicode="A" horiz-adv-x="580" d="M530 0h-40v300h-380v-300h-40v440q0 110 57 179q63 76 173 71l230 -10v-680zM490 340v300l-190 10q-91 5 -142 -57q-48 -57 -48 -153v-100h380z" />
<glyph unicode="B" horiz-adv-x="570" d="M520 186q0 -101 -65 -153q-59 -48 -160 -43l-225 11v679l194 9q225 10 225 -174q0 -117 -102 -151q64 -17 98.5 -64t34.5 -114zM448 515q0 81 -55 112q-43 25 -129 21l-154 -7v-260h144q194 0 194 134zM479 186q0 154 -194 154h-175v-300l185 -9q83 -4 131 32 q53 39 53 123z" />
<glyph unicode="C" horiz-adv-x="580" d="M530 0l-230 -10q-110 -5 -173 71q-57 69 -57 179v200q0 110 57 179q63 76 173 71l230 -10v-40l-230 10q-91 4 -142 -57q-48 -57 -48 -153v-200q0 -96 48 -153q51 -61 142 -57l230 10v-40z" />
<glyph unicode="D" horiz-adv-x="580" d="M530 240q0 -107 -54 -175q-59 -75 -164 -75h-12l-230 10v680l242 10q105 0 164 -75q54 -68 54 -175v-200zM490 240v200q0 91 -43 147q-49 63 -137 63h-10l-190 -8v-604l200 -8q88 0 137 63q43 56 43 147z" />
<glyph unicode="E" horiz-adv-x="560" d="M510 0l-220 -10q-97 -4 -157 47q-63 54 -63 153q0 65 34 111t96 62q-49 17 -75 61q-25 41 -25 96q0 182 220 170l180 -10v-40l-180 10q-180 10 -180 -130t190 -140h90v-40h-120q-190 0 -190 -150q0 -82 52 -124q48 -40 128 -36l220 10v-40z" />
<glyph unicode="F" horiz-adv-x="520" d="M470 640l-180 10q-180 10 -180 -130v-140h270v-40h-270v-340h-40v520q0 182 220 170l180 -10v-40z" />
<glyph unicode="G" horiz-adv-x="590" d="M540 0l-240 -10q-110 -5 -173 71q-57 69 -57 179v200q0 110 57 179q63 76 173 71l230 -10v-40l-230 10q-91 4 -142 -57q-48 -57 -48 -153v-200q0 -96 48 -153q51 -62 142 -57l200 10v260h-140v40h180v-340z" />
<glyph unicode="H" horiz-adv-x="570" d="M520 0h-40v340h-370v-340h-40v680h40v-300h370v300h40v-680z" />
<glyph unicode="I" horiz-adv-x="160" d="M110 0h-40v680h40v-680z" />
<glyph unicode="J" horiz-adv-x="350" d="M300 240q0 -109 -57 -177q-62 -73 -173 -73v40q92 0 142 59q48 56 48 151v440h40v-440z" />
<glyph unicode="K" horiz-adv-x="550" d="M500 0h-40v180q0 50 -5 72q-7 29 -29 54q-32 37 -103 37q-26 0 -66 -3l-147 -10v-330h-40v680h40v-310l136 9q69 5 102 61q20 34 94 240h42q-55 -161 -69 -194q-32 -78 -69 -109q146 -16 153 -154q1 -21 1 -223z" />
<glyph unicode="L" horiz-adv-x="570" d="M520 0l-220 -10q-110 -5 -173 71q-57 69 -57 179v440h40v-440q0 -96 48 -153q51 -61 142 -57l220 10v-40z" />
<glyph unicode="M" horiz-adv-x="860" d="M810 0h-40v440q0 100 -33 151q-38 59 -127 59q-88 0 -122 -59q-28 -48 -28 -151v-200h-40v200q0 105 -28 154q-35 61 -122 56l-160 -10v-640h-40v680l200 10q128 6 170 -109q40 109 170 109q200 0 200 -250v-440z" />
<glyph unicode="N" horiz-adv-x="580" d="M530 0h-40v440q0 96 -48 153q-51 62 -142 57l-190 -10v-640h-40v680l230 10q110 5 173 -71q57 -69 57 -179v-440z" />
<glyph unicode="O" horiz-adv-x="590" d="M540 240q0 -111 -59 -179q-62 -71 -171 -71h-10q-109 0 -171 71q-59 68 -59 179v200q0 111 60.5 180.5t169.5 69.5h10q109 0 171 -71q59 -68 59 -179v-200zM500 240v200q0 94 -47 150q-51 60 -143 60h-10q-92 0 -143 -60q-47 -56 -47 -150v-200q0 -94 47 -150 q51 -60 143 -60h10q92 0 143 60q47 56 47 150z" />
<glyph unicode="P" horiz-adv-x="530" d="M480 480q0 -91 -59 -153t-141 -57l-170 10v-280h-40v680l200 10q83 4 146.5 -57.5t63.5 -152.5zM440 480q0 73 -51 123.5t-119 46.5l-160 -10v-320l170 -10q67 -4 113.5 46t46.5 124z" />
<glyph unicode="Q" horiz-adv-x="590" d="M540 240q0 -106 -54 -173q-58 -72 -161 -77v-70h-40v70q-103 5 -161 77q-54 67 -54 173v200q0 110 59 178q62 72 171 72h10q109 0 171 -72q59 -68 59 -178v-200zM500 240v200q0 94 -47 150q-51 60 -143 60h-10q-92 0 -143 -60q-47 -56 -47 -150v-200q0 -89 43 -144 q46 -61 132 -66v50h40v-50q86 5 133 66q42 55 42 144z" />
<glyph unicode="R" horiz-adv-x="560" d="M510 0h-47l-165 271q-9 -2 -18 -1l-170 10v-280h-40v680l200 10q83 4 146.5 -57.5t63.5 -152.5q0 -73 -39 -129t-101 -73zM440 480q0 73 -51 123.5t-119 46.5l-160 -10v-320l170 -10q67 -4 113.5 46t46.5 124z" />
<glyph unicode="S" horiz-adv-x="560" d="M510 170q0 -75 -53.5 -127.5t-126.5 -52.5q16 0 -260 10v40l260 -10q57 0 98.5 40.5t41.5 99.5q0 113 -101 145l-188 42q-101 40 -101 173q0 60 45 106q52 54 137 54q-11 0 218 -10v-40l-219 10q-67 0 -107 -41q-34 -35 -34 -79q0 -114 101 -146q94 -20 188 -41 q101 -40 101 -173z" />
<glyph unicode="T" horiz-adv-x="540" d="M490 640h-190v-640h-40v640h-190v40h420v-40z" />
<glyph unicode="U" horiz-adv-x="580" d="M530 0l-230 -10q-110 -5 -173 71q-57 69 -57 179v440h40v-440q0 -96 48 -153q51 -62 142 -57l190 10v640h40v-680z" />
<glyph unicode="V" horiz-adv-x="600" d="M550 680l-60 -440q-19 -136 -39 -176q-38 -74 -141 -74t-141 74q-20 40 -39 176l-60 440h40l60 -440q17 -124 29 -150q27 -60 111 -60t111 60q12 26 29 150l60 440h40z" />
<glyph unicode="W" horiz-adv-x="860" d="M810 0l-200 -10q-128 -6 -170 109q-40 -109 -170 -109q-200 0 -200 250v440h40v-440q0 -100 33 -151q38 -59 127 -59q88 0 122 59q28 48 28 151v160h40v-160q0 -105 28 -154q35 -61 122 -56l160 10v640h40v-680z" />
<glyph unicode="X" horiz-adv-x="570" d="M520 0h-46l-179 309l-179 -309h-46l202 349l-192 331h46l169 -291l169 291h46l-192 -331z" />
<glyph unicode="Y" horiz-adv-x="550" d="M500 680l-20 -370l-160 -9v-301h-40v301q-102 6 -158 78q-52 67 -52 171v130h40v-130q0 -96 48 -153q51 -62 142 -57l140 8l20 332h40z" />
<glyph unicode="Z" horiz-adv-x="600" d="M550 130q0 -83 -50 -115q-41 -27 -138 -27q-25 0 -62 2l-230 10v30l415 611l-155 9q-44 3 -72 3q-75 0 -105 -21q-33 -22 -33 -82v-10h-40v10q0 83 49 115q42 27 137 27q26 0 64 -2l210 -10v-30l-1 -1l-415 -610l176 -9q42 -2 69 -2q77 0 109 21t32 81v10h40v-10z" />
<glyph unicode="[" horiz-adv-x="280" d="M270 -60h-200v800h200v-40h-160v-720h160v-40z" />
<glyph unicode="\" horiz-adv-x="570" d="M520 -10h-46l-404 700h46z" />
<glyph unicode="]" horiz-adv-x="277" d="M221 -60h-200v40h160v720h-160v40h200v-800z" />
<glyph unicode="_" horiz-adv-x="570" d="M520 -50h-450v40h450v-40z" />
<glyph unicode="`" horiz-adv-x="353" d="M303 540q0 -20 -20 -20q-7 0 -12 4l-71 39q-20 11 -20 28q0 12 9 21t21 9q11 0 23 -11l61 -54q9 -6 9 -16z" />
<glyph unicode="a" d="M430 0l-217 -10q-60 0 -101.5 45t-41.5 105v170q0 62 44 106t106 44h60q62 0 106 -44t44 -106v-310zM390 38v272q0 46 -32 78t-78 32h-60q-46 0 -78 -32t-32 -78v-170q0 -44 30.5 -77t74.5 -33h5z" />
<glyph unicode="b" d="M430 140q0 -60 -41.5 -105t-101.5 -45h-7l-210 10v680h40v-228l177 8q60 0 101.5 -45t41.5 -105v-170zM390 140v170q0 44 -30.5 77t-74.5 33h-5l-170 -8v-374l175 -8q44 0 74.5 33t30.5 77z" />
<glyph unicode="c" horiz-adv-x="460" d="M410 0l-197 -10q-60 0 -101.5 45t-41.5 105v170q0 60 41.5 105t101.5 45h7l190 -10v-40l-195 10q-44 0 -74.5 -33t-30.5 -77v-170q0 -44 30.5 -77t74.5 -33h5l190 10v-40z" />
<glyph unicode="d" d="M430 0l-217 -10q-60 0 -101.5 45t-41.5 105v170q0 60 41.5 105t101.5 45h7l170 -8v228h40v-680zM390 38v374l-175 8q-44 0 -74.5 -33t-30.5 -77v-170q0 -44 30.5 -77t74.5 -33h5z" />
<glyph unicode="e" d="M430 190h-320v-50q0 -44 30.5 -77t74.5 -33h5l190 10v-40l-197 -10q-60 0 -101.5 45t-41.5 105v170q0 62 44 106t106 44h60q62 0 106 -44t44 -106v-120zM390 230v80q0 46 -32 78t-78 32h-60q-46 0 -78 -32t-32 -78v-80h280z" />
<glyph unicode="f" horiz-adv-x="410" d="M360 640l-133 10q-67 0 -67 -110v-90h180v-40h-180v-410h-40v410h-50v40h50v90q0 150 104 150h10l126 -10v-40z" />
<glyph unicode="g" d="M430 -60q0 -62 -44 -106t-106 -44h-50q-63 0 -106.5 39.5t-43.5 100.5v10h40v-10q0 -45 31.5 -72.5t78.5 -27.5h50q46 0 78 32t32 78v98q-43 -48 -110 -48h-60q-62 0 -106 44t-44 106v170q0 60 41.5 105t101.5 45h7l210 -10v-510zM390 140v272l-175 8q-44 0 -74.5 -33 t-30.5 -77v-170q0 -46 32 -78t78 -32h60q46 0 78 32t32 78z" />
<glyph unicode="h" horiz-adv-x="460" d="M410 0h-40v310q0 43 -30 76.5t-73 33.5q-24 0 -157 -8v-412h-40v680h40v-228q141 8 160 8q59 0 99.5 -45.5t40.5 -104.5v-310z" />
<glyph unicode="i" horiz-adv-x="170" d="M120 580q0 -30 -30 -30t-30 30t30 30t30 -30zM110 0h-40v450h40v-450z" />
<glyph unicode="j" horiz-adv-x="300" d="M250 580q0 -12 -9 -21t-21 -9t-21 9t-9 21t9 21t21 9t21 -9t9 -21zM240 -60q0 -59 -40.5 -104.5t-99.5 -45.5q-14 0 -40 2v40q24 -2 37 -2q43 0 73 33.5t30 76.5v510h40v-510z" />
<glyph unicode="k" horiz-adv-x="460" d="M410 0h-40v140q0 44 -30 77t-73 33q-24 0 -157 -8v-242h-40v680h40v-398q45 2 126 7q11 1 27 10q57 34 57 101v50h40v-50q0 -70 -52 -116q45 -14 73.5 -55t28.5 -89v-140z" />
<glyph unicode="l" horiz-adv-x="300" d="M250 -8l-30 -2h-7q-60 0 -101.5 45t-41.5 105v540h40v-540q0 -44 30.5 -77t74.5 -33h5l30 2v-40z" />
<glyph unicode="m" horiz-adv-x="760" d="M710 0h-40v310q0 46 -32 78t-78 32h-40q-46 0 -78 -32t-32 -78v-310h-40v310q0 44 -30 77t-73 33q-24 0 -157 -8v-412h-40v450l190 10h10q79 0 120 -75q44 75 130 75h40q62 0 106 -44t44 -106v-310z" />
<glyph unicode="n" d="M430 0h-40v310q0 43 -30 76.5t-73 33.5h-7l-170 -8v-412h-40v450l220 10q59 0 99.5 -45.5t40.5 -104.5v-310z" />
<glyph unicode="o" d="M430 150q0 -63 -44.5 -111.5t-105.5 -48.5h-60q-61 0 -105.5 48.5t-44.5 111.5v150q0 63 44.5 111.5t105.5 48.5h60q61 0 105.5 -48.5t44.5 -111.5v-150zM390 150v150q0 47 -32.5 83.5t-77.5 36.5h-60q-45 0 -77.5 -36.5t-32.5 -83.5v-150q0 -47 32.5 -83.5t77.5 -36.5 h60q45 0 77.5 36.5t32.5 83.5z" />
<glyph unicode="p" d="M430 140q0 -60 -41.5 -105t-101.5 -45h-7l-170 8v-208h-40v660l217 10q60 0 101.5 -45t41.5 -105v-170zM390 140v170q0 44 -30.5 77t-74.5 33h-5l-170 -8v-374l175 -8q44 0 74.5 33t30.5 77z" />
<glyph unicode="q" d="M430 -210h-40v208l-177 -8q-60 0 -101.5 45t-41.5 105v170q0 60 41.5 105t101.5 45h7l210 -10v-660zM390 38v374l-175 8q-44 0 -74.5 -33t-30.5 -77v-170q0 -44 30.5 -77t74.5 -33h5z" />
<glyph unicode="r" horiz-adv-x="400" d="M350 270h-40v40q0 45 -19 75q-22 35 -64 35q-13 0 -117 -8v-412h-40v450l150 10h10q58 0 91 -48q29 -42 29 -102v-40z" />
<glyph unicode="s" horiz-adv-x="420" d="M370 114q0 -55 -36.5 -89.5t-87.5 -34.5q-6 0 -176 10v40l176 -10q36 0 60 23t24 61q0 71 -64 89q-61 13 -121 26q-65 27 -65 121q0 46 29 76q33 34 92 34q4 0 149 -10v-40l-149 10q-81 0 -81 -70q0 -53 26 -75q21 -19 74 -24q69 -6 104 -31q46 -33 46 -106z" />
<glyph unicode="t" horiz-adv-x="300" d="M250 -8q-26 -2 -40 -2q-59 0 -99.5 45.5t-40.5 104.5v540h40v-230h130v-40h-130v-270q0 -43 30 -76.5t73 -33.5q13 0 37 2v-40z" />
<glyph unicode="u" d="M430 0l-220 -10q-59 0 -99.5 45.5t-40.5 104.5v310h40v-310q0 -43 30 -76.5t73 -33.5h7l170 8v412h40v-450z" />
<glyph unicode="v" horiz-adv-x="500" d="M450 453l-40 -303q-8 -63 -47 -105q-42 -45 -103 -45t-103 45q-39 42 -47 105l-40 303h40l40 -303q6 -46 35.5 -78t74.5 -32t74.5 32t35.5 78l40 303h40z" />
<glyph unicode="w" horiz-adv-x="760" d="M710 0l-190 -10h-10q-79 0 -120 75q-44 -75 -130 -75h-40q-62 0 -106 44t-44 106v310h40v-310q0 -46 32 -78t78 -32h40q46 0 78 32t32 78v310h40v-310q0 -44 30 -77t73 -33q24 0 157 8v412h40v-450z" />
<glyph unicode="x" horiz-adv-x="540" d="M490 0h-50l-160 202l-160 -202h-50l185 235l-162 215h50l137 -182l137 182h50l-162 -215z" />
<glyph unicode="y" d="M430 -60q0 -62 -44 -106t-106 -44h-50q-62 0 -106 39t-44 101v10h40v-10q0 -46 34 -74q31 -26 76 -26h50q46 0 78 32t32 78v58l-180 -8q-59 0 -99.5 45.5t-40.5 104.5v310h40v-310q0 -43 30 -76.5t73 -33.5h7l170 8v412h40v-510z" />
<glyph unicode="z" horiz-adv-x="500" d="M450 90q0 -59 -34 -82q-30 -21 -96 -18l-250 10v40l320 372l-180 8q-52 2 -68 -6q-22 -12 -22 -54v-10h-40v10q0 59 34 82q30 21 96 18l230 -10v-40l-319 -372l199 -8q52 -2 68 6q22 12 22 54v10h40v-10z" />
<glyph unicode="{" horiz-adv-x="336" d="M350 -80q-97 -10 -90 -10q-50 0 -86.5 36t-36.5 87q0 12 3 27l30 150q3 15 3 22q0 38 -25 63t-63 25h-15v40h15q38 0 63 25.5t25 62.5q0 7 -3 22l-30 150q-3 15 -3 27q0 51 36.5 87t86.5 36q18 0 90 -10v-40q-70 10 -87 10q-36 0 -61 -26t-25 -62q0 -7 3 -22l30 -150 q3 -15 3 -23q0 -64 -59 -107q59 -43 59 -107q0 -8 -3 -23l-30 -150q-3 -15 -3 -22q0 -36 25 -62t61 -26q-6 0 87 10v-40z" />
<glyph unicode="|" horiz-adv-x="160" d="M110 -60h-40v800h40v-800z" />
<glyph unicode="}" horiz-adv-x="319" d="M262 320h-15q-37 0 -62.5 -25t-25.5 -63q0 -7 3 -22l30 -150q3 -15 3 -27q0 -51 -36.5 -87t-87.5 -36q8 0 -89 10v40q93 -10 87 -10q36 0 60.5 26t24.5 62q0 12 -2 22l-30 150q-3 15 -3 23q0 64 59 107q-59 43 -59 107q0 8 3 23l30 150q2 10 2 22q0 36 -24.5 62t-60.5 26 q-17 0 -87 -10v40q73 10 89 10q51 0 87.5 -36t36.5 -87q0 -12 -3 -27l-30 -150q-3 -15 -3 -22q0 -37 25.5 -62.5t62.5 -25.5h15v-40z" />
<glyph unicode="~" horiz-adv-x="444" d="M394 245l-30 -27q-27 31 -58 31q-17 0 -46 -19.5t-58 -19.5q-49 0 -88 44l30 27q26 -31 58 -31q17 0 46 19.5t57 19.5q49 0 89 -44z" />
<glyph unicode="&#xa1;" horiz-adv-x="170" d="M120 660q0 -30 -30 -30t-30 30t30 30t30 -30zM120 0h-60l10 530h40z" />
<glyph unicode="&#xa2;" horiz-adv-x="460" d="M410 0l-130 -7v-58h-39v56q-11 -1 -31 -1q-59 0 -99.5 45.5t-40.5 104.5v170q0 59 40.5 104.5t99.5 45.5q20 0 31 -1v56h39v-58l130 -7v-40l-130 7v-384l130 7v-40zM241 31v388q-5 0 -14 1h-14q-43 0 -73 -33t-30 -77v-170q0 -44 30 -77t73 -33q4 0 14 1h14z" />
<glyph unicode="&#xa3;" horiz-adv-x="510" d="M460 0h-390v40l47 280h-37v40h43l27 159q15 87 43 124q37 48 116 48q1 0 151 -12v-40q-147 12 -150 12q-61 0 -88 -36q-20 -27 -32 -96l-27 -159h227v-40h-233l-47 -280h350v-40z" />
<glyph unicode="&#xa4;" horiz-adv-x="610" d="M560 0l-200 -10q-110 -5 -173 70q-57 70 -57 180v20h-60v40h60v80h-60v40h60v20q0 110 57 180q63 75 173 70l200 -10v-40l-200 10q-91 5 -142 -57q-48 -57 -48 -153v-20h220v-40h-220v-80h220v-40h-220v-20q0 -96 48 -153q51 -62 142 -57l200 10v-40z" />
<glyph unicode="&#xa5;" horiz-adv-x="550" d="M500 680l-20 -370l-160 -9v-41h140v-40h-140v-80h140v-40h-140v-100h-40v100h-140v40h140v80h-140v40h140v41q-102 6 -158 78q-52 67 -52 171v130h40v-130q0 -96 48 -153q51 -62 142 -57l140 8l20 332h40z" />
<glyph unicode="&#xa7;" horiz-adv-x="424" d="M374 325q0 -71 -60 -99q50 -33 50 -110q0 -56 -37 -91t-89 -35q-6 0 -168 10v41l168 -10q36 0 61 23t25 62q0 51 -30 74q-21 16 -70 23h-2v1q-77 11 -102 27q-50 30 -50 114q0 71 60 99q-50 33 -50 110q0 56 37 91t89 35q16 0 138 -10v-41q-122 10 -138 10 q-36 0 -60.5 -23t-24.5 -62q0 -51 29 -74q21 -16 70 -23h2l1 -1q77 -11 102 -27q49 -30 49 -114zM334 325q0 54 -26 76q-22 19 -76 24q-3 1 -10 1h-29q-82 0 -82 -71q0 -54 26 -76q22 -19 75 -24q3 -1 10 -1h30q82 0 82 71z" />
<glyph unicode="&#xa8;" horiz-adv-x="380" d="M335 560q0 -14 -10.5 -24.5t-24.5 -10.5t-24.5 10.5t-10.5 24.5t10.5 24.5t24.5 10.5t24.5 -10.5t10.5 -24.5zM135 560q0 -14 -10.5 -24.5t-24.5 -10.5t-24.5 10.5t-10.5 24.5t10.5 24.5t24.5 10.5t24.5 -10.5t10.5 -24.5z" />
<glyph unicode="&#xa9;" d="M430 450q0 -62 -44 -106t-106 -44h-60q-62 0 -106 44t-44 106v90q0 62 44 106t106 44h60q62 0 106 -44t44 -106v-90zM390 450v90q0 46 -32 78t-78 32h-60q-46 0 -78 -32t-32 -78v-90q0 -46 32 -78t78 -32h60q46 0 78 32t32 78zM327 380q-13 0 -48 -3q-31 -2 -49 -2 q-30 0 -51.5 23t-21.5 54v86q0 31 22.5 54.5t53.5 21.5l94 -5v-37q-77 5 -96 5q-15 0 -26.5 -12t-11.5 -27v-86q0 -16 12 -28.5t28 -11.5l94 5v-37z" />
<glyph unicode="&#xab;" horiz-adv-x="434" d="M384 104l-28 -28l-166 166l166 166l28 -29l-137 -137zM264 104l-28 -28l-166 166l166 166l28 -29l-137 -137z" />
<glyph unicode="&#xac;" horiz-adv-x="470" d="M420 129l-40 -1v102h-310v40h350v-141z" />
<glyph unicode="&#xad;" horiz-adv-x="490" d="M440 220h-370v50h370v-50z" />
<glyph unicode="&#xae;" d="M430 450q0 -62 -44 -106t-106 -44h-60q-62 0 -106 44t-44 106v90q0 62 44 106t106 44h60q62 0 106 -44t44 -106v-90zM390 450v90q0 46 -32 78t-78 32h-60q-46 0 -78 -32t-32 -78v-90q0 -46 32 -78t78 -32h60q46 0 78 32t32 78zM345 378h-45l-50 82l-37 2v-84h-38v232 q8 0 38 2q24 2 39 2q30 0 52 -23t22 -54q0 -46 -37 -68zM287 537q0 16 -10.5 27t-26.5 11q-13 0 -37 -2v-73q7 0 20.5 -1t19.5 -1q34 0 34 39z" />
<glyph unicode="&#xb0;" horiz-adv-x="310" d="M260 595q0 -39 -28 -67t-67 -28t-67 28t-28 67t28 67t67 28t67 -28t28 -67zM220 595q0 23 -16 39t-39 16q-22 0 -38.5 -16t-16.5 -39q0 -22 16.5 -38.5t38.5 -16.5q23 0 39 16.5t16 38.5z" />
<glyph unicode="&#xb1;" horiz-adv-x="490" d="M435 225h-160v-150h-40v150h-160v40h160v160h40v-160h160v-40zM435 0h-360v40h360v-40z" />
<glyph unicode="&#xb4;" horiz-adv-x="353" d="M303 591q0 -17 -20 -28l-72 -39q-5 -4 -11 -4q-20 0 -20 20q0 9 8 16l62 54q13 11 23 11q12 0 21 -9t9 -21z" />
<glyph unicode="&#xb7;" horiz-adv-x="180" d="M135 400q0 -14 -10.5 -24.5t-24.5 -10.5t-24.5 10.5t-10.5 24.5t10.5 24.5t24.5 10.5t24.5 -10.5t10.5 -24.5z" />
<glyph unicode="&#xb8;" horiz-adv-x="380" d="M335 560q0 -14 -10.5 -24.5t-24.5 -10.5t-24.5 10.5t-10.5 24.5t10.5 24.5t24.5 10.5t24.5 -10.5t10.5 -24.5zM135 560q0 -14 -10.5 -24.5t-24.5 -10.5t-24.5 10.5t-10.5 24.5t10.5 24.5t24.5 10.5t24.5 -10.5t10.5 -24.5z" />
<glyph unicode="&#xbb;" horiz-adv-x="434" d="M384 242l-166 -166l-28 28l138 138l-138 137l28 29zM264 242l-166 -166l-28 28l138 138l-138 137l28 29z" />
<glyph unicode="&#xbf;" d="M300 650q0 -16 -11.5 -28t-28.5 -12q-16 0 -28 12t-12 28q0 17 12 28.5t28 11.5q17 0 28.5 -11.5t11.5 -28.5zM430 140q0 -62 -44 -106t-106 -44h-70q-62 0 -101 44t-39 106v40q0 65 27 102q20 27 81.5 67t61.5 111v60h40v-60q0 -94 -96 -154q-40 -25 -56 -51 q-18 -29 -18 -75v-40q0 -46 27.5 -78t72.5 -32h70q46 0 78 32t32 78v30h40v-30z" />
<glyph unicode="&#xc0;" horiz-adv-x="580" d="M385 743q6 -20 -18 -22q-5 -1 -15 3l-99 36q-35 13 -35 37q0 25 28 26q12 0 32 -11l91 -52q12 -7 16 -17zM530 0h-40v300h-380v-300h-40v440q0 110 57 179q63 76 173 71l230 -10v-680zM490 340v300l-190 10q-91 5 -142 -57q-48 -57 -48 -153v-100h380z" />
<glyph unicode="&#xc1;" horiz-adv-x="580" d="M369 760l-98 -36q-11 -4 -15 -3q-19 1 -19 16q0 3 1 6q2 9 16 17l91 52q20 11 32 11q27 -1 27 -25q0 -25 -35 -38zM530 0h-40v300h-380v-300h-40v440q0 110 57 179q63 76 173 71l230 -10v-680zM490 340v300l-190 10q-91 5 -142 -57q-48 -57 -48 -153v-100h380z" />
<glyph unicode="&#xc2;" horiz-adv-x="580" d="M433 745l-26 -30l-97 79l-97 -79l-26 30l123 101zM530 0h-40v300h-380v-300h-40v440q0 110 57 179q63 76 173 71l230 -10v-680zM490 340v300l-190 10q-91 5 -142 -57q-48 -57 -48 -153v-100h380z" />
<glyph unicode="&#xc3;" horiz-adv-x="580" d="M70 0zM530 0h-40v300h-380v-300h-40v440q0 110 57 179q63 76 173 71l230 -10v-680zM490 340v300l-190 10q-91 5 -142 -57q-48 -57 -48 -153v-100h380zM444 755l-30 -27q-27 31 -58 31q-17 0 -46 -19.5t-58 -19.5q-49 0 -88 44l30 27q26 -31 58 -31q17 0 46 19.5t57 19.5 q49 0 89 -44z" />
<glyph unicode="&#xc4;" horiz-adv-x="580" d="M70 0zM530 0h-40v300h-380v-300h-40v440q0 110 57 179q63 76 173 71l230 -10v-680zM490 340v300l-190 10q-91 5 -142 -57q-48 -57 -48 -153v-100h380zM485 750q0 -14 -10.5 -24.5t-24.5 -10.5t-24.5 10.5t-10.5 24.5t10.5 24.5t24.5 10.5t24.5 -10.5t10.5 -24.5zM205 750 q0 -14 -10.5 -24.5t-24.5 -10.5t-24.5 10.5t-10.5 24.5t10.5 24.5t24.5 10.5t24.5 -10.5t10.5 -24.5z" />
<glyph unicode="&#xc5;" horiz-adv-x="580" d="M360 770q0 -22 -16 -38.5t-39 -16.5q-22 0 -38.5 16.5t-16.5 38.5q0 23 16.5 39t38.5 16q23 0 39 -16t16 -39zM530 0h-40v300h-380v-300h-40v440q0 110 57 179q63 76 173 71l230 -10v-680zM330 770q0 25 -25 25t-25 -25t25 -25t25 25zM490 340v300l-190 10 q-91 5 -142 -57q-48 -57 -48 -153v-100h380z" />
<glyph unicode="&#xc6;" horiz-adv-x="740" d="M690 0h-280v340h-300v-340h-40v430q0 111 62 186q68 82 178 74l136 -10h234v-40h-230v-260h180v-40h-180v-300h240v-40zM410 380v260l-100 10q-90 9 -147 -60q-53 -63 -53 -160v-50h300z" />
<glyph unicode="&#xc7;" horiz-adv-x="580" d="M530 0l-178 -8q0 -2 -47 -95q-13 -27 -34 -27q-23 0 -23 26q0 12 13 29l49 65h-22q-105 0 -164 75q-54 68 -54 175v200q0 107 54 175q59 75 164 75h12l230 -10v-40l-240 10q-88 0 -137 -63q-43 -56 -43 -147v-200q0 -91 43 -147q49 -63 137 -63h10l230 10v-40z" />
<glyph unicode="&#xc8;" horiz-adv-x="560" d="M510 0l-220 -10q-97 -4 -157 47q-63 54 -63 153q0 65 34 111t96 62q-49 17 -75 61q-25 41 -25 96q0 182 220 170l180 -10v-40l-180 10q-180 10 -180 -130t190 -140h90v-40h-120q-190 0 -190 -150q0 -82 52 -124q48 -40 128 -36l220 10v-40z" />
<glyph unicode="&#xc9;" horiz-adv-x="560" d="M379 760l-98 -36q-11 -4 -15 -3q-19 1 -19 16q0 3 1 6q2 9 16 17l91 52q20 11 32 11q27 -1 27 -25q0 -25 -35 -38zM510 0l-220 -10q-97 -4 -157 47q-63 54 -63 153q0 65 34 111t96 62q-49 17 -75 61q-25 41 -25 96q0 182 220 170l180 -10v-40l-180 10q-180 10 -180 -130 t190 -140h90v-40h-120q-190 0 -190 -150q0 -82 52 -124q48 -40 128 -36l220 10v-40z" />
<glyph unicode="&#xca;" horiz-adv-x="560" d="M510 0l-220 -10q-97 -4 -157 47q-63 54 -63 153q0 65 34 111t96 62q-49 17 -75 61q-25 41 -25 96q0 182 220 170l180 -10v-40l-180 10q-180 10 -180 -130t190 -140h90v-40h-120q-190 0 -190 -150q0 -82 52 -124q48 -40 128 -36l220 10v-40z" />
<glyph unicode="&#xcb;" horiz-adv-x="560" d="M70 0zM510 0l-220 -10q-97 -4 -157 47q-63 54 -63 153q0 65 34 111t96 62q-49 17 -75 61q-25 41 -25 96q0 182 220 170l180 -10v-40l-180 10q-180 10 -180 -130t190 -140h90v-40h-120q-190 0 -190 -150q0 -82 52 -124q48 -40 128 -36l220 10v-40zM475 750 q0 -14 -10.5 -24.5t-24.5 -10.5t-24.5 10.5t-10.5 24.5t10.5 24.5t24.5 10.5t24.5 -10.5t10.5 -24.5zM195 750q0 -14 -10.5 -24.5t-24.5 -10.5t-24.5 10.5t-10.5 24.5t10.5 24.5t24.5 10.5t24.5 -10.5t10.5 -24.5z" />
<glyph unicode="&#xcc;" horiz-adv-x="160" d="M185 743q6 -20 -18 -22q-5 -1 -15 3l-99 36q-35 13 -35 37q0 25 28 26q12 0 32 -11l91 -52q12 -7 16 -17zM110 0h-40v680h40v-680z" />
<glyph unicode="&#xcd;" horiz-adv-x="160" d="M139 760l-98 -36q-11 -4 -15 -3q-19 1 -19 16q0 3 1 6q2 9 16 17l91 52q20 11 32 11q27 -1 27 -25q0 -25 -35 -38zM110 0h-40v680h40v-680z" />
<glyph unicode="&#xce;" horiz-adv-x="160" d="M110 0h-40v680h40v-680z" />
<glyph unicode="&#xcf;" horiz-adv-x="590" d="M475 750q0 -14 -10.5 -24.5t-24.5 -10.5t-24.5 10.5t-10.5 24.5t10.5 24.5t24.5 10.5t24.5 -10.5t10.5 -24.5zM195 750q0 -14 -10.5 -24.5t-24.5 -10.5t-24.5 10.5t-10.5 24.5t10.5 24.5t24.5 10.5t24.5 -10.5t10.5 -24.5zM320 0h-40v680h40v-680z" />
<glyph unicode="&#xd1;" horiz-adv-x="580" d="M70 0zM530 0h-40v440q0 96 -48 153q-51 62 -142 57l-190 -10v-640h-40v680l230 10q110 5 173 -71q57 -69 57 -179v-440zM434 755l-30 -27q-27 31 -58 31q-17 0 -46 -19.5t-58 -19.5q-49 0 -88 44l30 27q26 -31 58 -31q17 0 46 19.5t57 19.5q49 0 89 -44z" />
<glyph unicode="&#xd2;" horiz-adv-x="590" d="M385 743q6 -20 -18 -22q-5 -1 -15 3l-99 36q-35 13 -35 37q0 25 28 26q12 0 32 -11l91 -52q12 -7 16 -17zM540 240q0 -111 -59 -179q-62 -71 -171 -71h-10q-109 0 -171 71q-59 68 -59 179v200q0 111 60.5 180.5t169.5 69.5h10q109 0 171 -71q59 -68 59 -179v-200z M500 240v200q0 94 -47 150q-51 60 -143 60h-10q-92 0 -143 -60q-47 -56 -47 -150v-200q0 -94 47 -150q51 -60 143 -60h10q92 0 143 60q47 56 47 150z" />
<glyph unicode="&#xd3;" horiz-adv-x="590" d="M349 760l-98 -36q-11 -4 -15 -3q-19 1 -19 16q0 3 1 6q2 9 16 17l91 52q20 11 32 11q27 -1 27 -25q0 -25 -35 -38zM540 240q0 -111 -59 -179q-62 -71 -171 -71h-10q-109 0 -171 71q-59 68 -59 179v200q0 111 60.5 180.5t169.5 69.5h10q109 0 171 -71q59 -68 59 -179v-200 zM500 240v200q0 94 -47 150q-51 60 -143 60h-10q-92 0 -143 -60q-47 -56 -47 -150v-200q0 -94 47 -150q51 -60 143 -60h10q92 0 143 60q47 56 47 150z" />
<glyph unicode="&#xd4;" horiz-adv-x="590" d="M423 745l-26 -30l-97 79l-97 -79l-26 30l123 101zM540 240q0 -111 -59 -179q-62 -71 -171 -71h-10q-109 0 -171 71q-59 68 -59 179v200q0 111 60.5 180.5t169.5 69.5h10q109 0 171 -71q59 -68 59 -179v-200zM500 240v200q0 94 -47 150q-51 60 -143 60h-10q-92 0 -143 -60 q-47 -56 -47 -150v-200q0 -94 47 -150q51 -60 143 -60h10q92 0 143 60q47 56 47 150z" />
<glyph unicode="&#xd5;" horiz-adv-x="590" d="M70 0zM540 240q0 -111 -59 -179q-62 -71 -171 -71h-10q-109 0 -171 71q-59 68 -59 179v200q0 111 60.5 180.5t169.5 69.5h10q109 0 171 -71q59 -68 59 -179v-200zM500 240v200q0 94 -47 150q-51 60 -143 60h-10q-92 0 -143 -60q-47 -56 -47 -150v-200q0 -94 47 -150 q51 -60 143 -60h10q92 0 143 60q47 56 47 150zM444 755l-30 -27q-27 31 -58 31q-17 0 -46 -19.5t-58 -19.5q-49 0 -88 44l30 27q26 -31 58 -31q17 0 46 19.5t57 19.5q49 0 89 -44z" />
<glyph unicode="&#xd6;" horiz-adv-x="590" d="M70 0zM540 240q0 -111 -59 -179q-62 -71 -171 -71h-10q-109 0 -171 71q-59 68 -59 179v200q0 111 60.5 180.5t169.5 69.5h10q109 0 171 -71q59 -68 59 -179v-200zM500 240v200q0 94 -47 150q-51 60 -143 60h-10q-92 0 -143 -60q-47 -56 -47 -150v-200q0 -94 47 -150 q51 -60 143 -60h10q92 0 143 60q47 56 47 150zM475 750q0 -14 -10.5 -24.5t-24.5 -10.5t-24.5 10.5t-10.5 24.5t10.5 24.5t24.5 10.5t24.5 -10.5t10.5 -24.5zM195 750q0 -14 -10.5 -24.5t-24.5 -10.5t-24.5 10.5t-10.5 24.5t10.5 24.5t24.5 10.5t24.5 -10.5t10.5 -24.5z" />
<glyph unicode="&#xd8;" horiz-adv-x="590" d="M540 240q0 -111 -59 -179q-62 -71 -171 -71h-10q-109 0 -171 71q-59 68 -59 179v200q0 111 60.5 180.5t169.5 69.5h10q109 0 171 -71q59 -68 59 -179v-200zM483 537q-44 113 -183 113q-92 0 -143 -60q-47 -56 -47 -150v-200q0 -32 5 -53zM500 240v200q0 32 -5 53 l-368 -350q44 -113 183 -113q92 0 143 60q47 56 47 150z" />
<glyph unicode="&#xd9;" horiz-adv-x="580" d="M530 0l-230 -10q-110 -5 -173 71q-57 69 -57 179v440h40v-440q0 -96 48 -153q51 -62 142 -57l190 10v640h40v-680z" />
<glyph unicode="&#xda;" horiz-adv-x="580" d="M359 760l-98 -36q-11 -4 -15 -3q-19 1 -19 16q0 3 1 6q2 9 16 17l91 52q20 11 32 11q27 -1 27 -25q0 -25 -35 -38zM530 0l-230 -10q-110 -5 -173 71q-57 69 -57 179v440h40v-440q0 -96 48 -153q51 -62 142 -57l190 10v640h40v-680z" />
<glyph unicode="&#xdb;" horiz-adv-x="580" d="M423 745l-26 -30l-97 79l-97 -79l-26 30l123 101zM530 0l-230 -10q-110 -5 -173 71q-57 69 -57 179v440h40v-440q0 -96 48 -153q51 -62 142 -57l190 10v640h40v-680z" />
<glyph unicode="&#xdc;" horiz-adv-x="580" d="M70 0zM530 0l-230 -10q-110 -5 -173 71q-57 69 -57 179v440h40v-440q0 -96 48 -153q51 -62 142 -57l190 10v640h40v-680zM475 750q0 -14 -10.5 -24.5t-24.5 -10.5t-24.5 10.5t-10.5 24.5t10.5 24.5t24.5 10.5t24.5 -10.5t10.5 -24.5zM195 750q0 -14 -10.5 -24.5 t-24.5 -10.5t-24.5 10.5t-10.5 24.5t10.5 24.5t24.5 10.5t24.5 -10.5t10.5 -24.5z" />
<glyph unicode="&#xdd;" horiz-adv-x="550" d="M353 781q0 -17 -20 -28l-72 -39q-5 -4 -11 -4q-20 0 -20 20q0 9 8 16l62 54q13 11 23 11q12 0 21 -9t9 -21zM500 680l-20 -370l-160 -9v-301h-40v301q-102 6 -158 78q-52 67 -52 171v130h40v-130q0 -96 48 -153q51 -62 142 -57l140 8l20 332h40z" />
<glyph unicode="&#xdf;" horiz-adv-x="520" d="M470 190q0 -90 -43 -143q-46 -58 -134 -58q-19 0 -143 11v40l120 -10q12 -1 20 -1q140 0 140 161q0 150 -200 150h-50v40q97 0 139 21q61 31 61 119v20q0 46 -32 78t-78 32h-50q-46 0 -78 -32t-32 -78v-630h-40v630q0 62 44 106t106 44h50q62 0 106 -44t44 -106v-20 q0 -126 -90 -157q63 -17 101.5 -63t38.5 -110z" />
<glyph unicode="&#xe0;" d="M70 0zM430 0l-217 -10q-60 0 -101.5 45t-41.5 105v170q0 62 44 106t106 44h60q62 0 106 -44t44 -106v-310zM390 38v272q0 46 -32 78t-78 32h-60q-46 0 -78 -32t-32 -78v-170q0 -44 30.5 -77t74.5 -33h5zM313 540q0 -20 -20 -20q-7 0 -12 4l-71 39q-20 11 -20 28 q0 12 9 21t21 9q11 0 23 -11l61 -54q9 -6 9 -16z" />
<glyph unicode="&#xe1;" d="M70 0zM430 0l-217 -10q-60 0 -101.5 45t-41.5 105v170q0 62 44 106t106 44h60q62 0 106 -44t44 -106v-310zM390 38v272q0 46 -32 78t-78 32h-60q-46 0 -78 -32t-32 -78v-170q0 -44 30.5 -77t74.5 -33h5zM313 591q0 -17 -20 -28l-72 -39q-5 -4 -11 -4q-20 0 -20 20 q0 9 8 16l62 54q13 11 23 11q12 0 21 -9t9 -21z" />
<glyph unicode="&#xe2;" d="M70 0zM430 0l-217 -10q-60 0 -101.5 45t-41.5 105v170q0 62 44 106t106 44h60q62 0 106 -44t44 -106v-310zM390 38v272q0 46 -32 78t-78 32h-60q-46 0 -78 -32t-32 -78v-170q0 -44 30.5 -77t74.5 -33h5zM383 535l-26 -30l-97 79l-97 -79l-26 30l123 101z" />
<glyph unicode="&#xe3;" d="M70 0zM430 0l-217 -10q-60 0 -101.5 45t-41.5 105v170q0 62 44 106t106 44h60q62 0 106 -44t44 -106v-310zM390 38v272q0 46 -32 78t-78 32h-60q-46 0 -78 -32t-32 -78v-170q0 -44 30.5 -77t74.5 -33h5zM404 555l-30 -27q-27 31 -58 31q-17 0 -46 -19.5t-58 -19.5 q-49 0 -88 44l30 27q26 -31 58 -31q17 0 46 19.5t57 19.5q49 0 89 -44z" />
<glyph unicode="&#xe4;" d="M70 0zM430 0l-217 -10q-60 0 -101.5 45t-41.5 105v170q0 62 44 106t106 44h60q62 0 106 -44t44 -106v-310zM390 38v272q0 46 -32 78t-78 32h-60q-46 0 -78 -32t-32 -78v-170q0 -44 30.5 -77t74.5 -33h5zM388 560q0 -14 -10.5 -24.5t-24.5 -10.5t-24.5 10.5t-10.5 24.5 t10.5 24.5t24.5 10.5t24.5 -10.5t10.5 -24.5zM188 560q0 -14 -10.5 -24.5t-24.5 -10.5t-24.5 10.5t-10.5 24.5t10.5 24.5t24.5 10.5t24.5 -10.5t10.5 -24.5z" />
<glyph unicode="&#xe5;" d="M310 560q0 -22 -16 -38.5t-39 -16.5q-22 0 -38.5 16.5t-16.5 38.5q0 23 16.5 39t38.5 16q23 0 39 -16t16 -39zM430 0l-217 -10q-60 0 -101.5 45t-41.5 105v170q0 62 44 106t106 44h60q62 0 106 -44t44 -106v-310zM280 560q0 25 -25 25t-25 -25t25 -25t25 25zM390 38v272 q0 46 -32 78t-78 32h-60q-46 0 -78 -32t-32 -78v-170q0 -44 30.5 -77t74.5 -33h5z" />
<glyph unicode="&#xe6;" horiz-adv-x="760" d="M710 190h-300v-50q0 -45 32.5 -79t77.5 -31l170 10v-40l-170 -10h-7q-83 0 -124 76q-41 -76 -119 -76h-50q-62 0 -106 49t-44 111v150q0 62 44 111t106 49h50q78 0 119 -76q44 76 131 76h40q62 0 106 -44t44 -106v-120zM670 230v80q0 46 -32 78t-78 32h-40q-46 0 -78 -32 t-32 -78v-80h260zM370 150v150q0 47 -26 82q-29 38 -74 38h-50q-45 0 -77.5 -37t-32.5 -83v-150q0 -46 32.5 -83t77.5 -37h50q45 0 74 38q26 35 26 82z" />
<glyph unicode="&#xe7;" horiz-adv-x="460" d="M410 0l-117 -6q0 -1 -48 -97q-13 -27 -34 -27q-23 0 -23 26q0 12 13 29l50 67q-26 -2 -41 -2q-59 0 -99.5 45.5t-40.5 104.5v170q0 59 40.5 104.5t99.5 45.5h10l190 -10v-40l-197 10q-43 0 -73 -33t-30 -77v-170q0 -44 30 -77t73 -33h7l190 10v-40z" />
<glyph unicode="&#xe8;" d="M70 0zM430 190h-320v-50q0 -44 30.5 -77t74.5 -33h5l190 10v-40l-197 -10q-60 0 -101.5 45t-41.5 105v170q0 62 44 106t106 44h60q62 0 106 -44t44 -106v-120zM390 230v80q0 46 -32 78t-78 32h-60q-46 0 -78 -32t-32 -78v-80h280zM303 540q0 -20 -20 -20q-7 0 -12 4 l-71 39q-20 11 -20 28q0 12 9 21t21 9q11 0 23 -11l61 -54q9 -6 9 -16z" />
<glyph unicode="&#xe9;" d="M313 591q0 -17 -20 -28l-72 -39q-5 -4 -11 -4q-20 0 -20 20q0 9 8 16l62 54q13 11 23 11q12 0 21 -9t9 -21zM430 190h-320v-50q0 -44 30.5 -77t74.5 -33h5l190 10v-40l-197 -10q-60 0 -101.5 45t-41.5 105v170q0 62 44 106t106 44h60q62 0 106 -44t44 -106v-120zM390 230 v80q0 46 -32 78t-78 32h-60q-46 0 -78 -32t-32 -78v-80h280z" />
<glyph unicode="&#xea;" d="M70 0zM430 190h-320v-50q0 -44 30.5 -77t74.5 -33h5l190 10v-40l-197 -10q-60 0 -101.5 45t-41.5 105v170q0 62 44 106t106 44h60q62 0 106 -44t44 -106v-120zM390 230v80q0 46 -32 78t-78 32h-60q-46 0 -78 -32t-32 -78v-80h280zM383 535l-26 -30l-97 79l-97 -79l-26 30 l123 101z" />
<glyph unicode="&#xeb;" d="M70 0zM430 190h-320v-50q0 -44 30.5 -77t74.5 -33h5l190 10v-40l-197 -10q-60 0 -101.5 45t-41.5 105v170q0 62 44 106t106 44h60q62 0 106 -44t44 -106v-120zM390 230v80q0 46 -32 78t-78 32h-60q-46 0 -78 -32t-32 -78v-80h280zM388 560q0 -14 -10.5 -24.5t-24.5 -10.5 t-24.5 10.5t-10.5 24.5t10.5 24.5t24.5 10.5t24.5 -10.5t10.5 -24.5zM188 560q0 -14 -10.5 -24.5t-24.5 -10.5t-24.5 10.5t-10.5 24.5t10.5 24.5t24.5 10.5t24.5 -10.5t10.5 -24.5z" />
<glyph unicode="&#xec;" horiz-adv-x="170" d="M153 540q0 -20 -20 -20q-7 0 -12 4l-71 39q-20 11 -20 28q0 12 9 21t21 9q11 0 23 -11l61 -54q9 -6 9 -16zM110 0h-40v450h40v-450z" />
<glyph unicode="&#xed;" horiz-adv-x="170" d="M153 591q0 -17 -20 -28l-72 -39q-5 -4 -11 -4q-20 0 -20 20q0 9 8 16l62 54q13 11 23 11q12 0 21 -9t9 -21zM110 0h-40v450h40v-450z" />
<glyph unicode="&#xee;" horiz-adv-x="170" d="M213 535l-26 -30l-97 79l-97 -79l-26 30l123 101zM110 0h-40v450h40v-450z" />
<glyph unicode="&#xef;" horiz-adv-x="363" d="M318 560q0 -14 -10.5 -24.5t-24.5 -10.5t-24.5 10.5t-10.5 24.5t10.5 24.5t24.5 10.5t24.5 -10.5t10.5 -24.5zM118 560q0 -14 -10.5 -24.5t-24.5 -10.5t-24.5 10.5t-10.5 24.5t10.5 24.5t24.5 10.5t24.5 -10.5t10.5 -24.5zM200 0h-40v450h40v-450z" />
<glyph unicode="&#xf1;" d="M70 0zM430 0h-40v310q0 43 -30 76.5t-73 33.5h-7l-170 -8v-412h-40v450l220 10q59 0 99.5 -45.5t40.5 -104.5v-310zM394 555l-30 -27q-27 31 -58 31q-17 0 -46 -19.5t-58 -19.5q-49 0 -88 44l30 27q26 -31 58 -31q17 0 46 19.5t57 19.5q49 0 89 -44z" />
<glyph unicode="&#xf2;" d="M70 0zM430 150q0 -63 -44.5 -111.5t-105.5 -48.5h-60q-61 0 -105.5 48.5t-44.5 111.5v150q0 63 44.5 111.5t105.5 48.5h60q61 0 105.5 -48.5t44.5 -111.5v-150zM390 150v150q0 47 -32.5 83.5t-77.5 36.5h-60q-45 0 -77.5 -36.5t-32.5 -83.5v-150q0 -47 32.5 -83.5 t77.5 -36.5h60q45 0 77.5 36.5t32.5 83.5zM303 540q0 -20 -20 -20q-7 0 -12 4l-71 39q-20 11 -20 28q0 12 9 21t21 9q11 0 23 -11l61 -54q9 -6 9 -16z" />
<glyph unicode="&#xf3;" d="M323 591q0 -17 -20 -28l-72 -39q-5 -4 -11 -4q-20 0 -20 20q0 9 8 16l62 54q13 11 23 11q12 0 21 -9t9 -21zM430 150q0 -63 -44.5 -111.5t-105.5 -48.5h-60q-61 0 -105.5 48.5t-44.5 111.5v150q0 63 44.5 111.5t105.5 48.5h60q61 0 105.5 -48.5t44.5 -111.5v-150z M390 150v150q0 47 -32.5 83.5t-77.5 36.5h-60q-45 0 -77.5 -36.5t-32.5 -83.5v-150q0 -47 32.5 -83.5t77.5 -36.5h60q45 0 77.5 36.5t32.5 83.5z" />
<glyph unicode="&#xf4;" d="M70 0zM430 150q0 -63 -44.5 -111.5t-105.5 -48.5h-60q-61 0 -105.5 48.5t-44.5 111.5v150q0 63 44.5 111.5t105.5 48.5h60q61 0 105.5 -48.5t44.5 -111.5v-150zM390 150v150q0 47 -32.5 83.5t-77.5 36.5h-60q-45 0 -77.5 -36.5t-32.5 -83.5v-150q0 -47 32.5 -83.5 t77.5 -36.5h60q45 0 77.5 36.5t32.5 83.5zM373 535l-26 -30l-97 79l-97 -79l-26 30l123 101z" />
<glyph unicode="&#xf5;" d="M70 0zM430 150q0 -63 -44.5 -111.5t-105.5 -48.5h-60q-61 0 -105.5 48.5t-44.5 111.5v150q0 63 44.5 111.5t105.5 48.5h60q61 0 105.5 -48.5t44.5 -111.5v-150zM390 150v150q0 47 -32.5 83.5t-77.5 36.5h-60q-45 0 -77.5 -36.5t-32.5 -83.5v-150q0 -47 32.5 -83.5 t77.5 -36.5h60q45 0 77.5 36.5t32.5 83.5zM394 555l-30 -27q-27 31 -58 31q-17 0 -46 -19.5t-58 -19.5q-49 0 -88 44l30 27q26 -31 58 -31q17 0 46 19.5t57 19.5q49 0 89 -44z" />
<glyph unicode="&#xf6;" d="M70 0zM430 150q0 -63 -44.5 -111.5t-105.5 -48.5h-60q-61 0 -105.5 48.5t-44.5 111.5v150q0 63 44.5 111.5t105.5 48.5h60q61 0 105.5 -48.5t44.5 -111.5v-150zM390 150v150q0 47 -32.5 83.5t-77.5 36.5h-60q-45 0 -77.5 -36.5t-32.5 -83.5v-150q0 -47 32.5 -83.5 t77.5 -36.5h60q45 0 77.5 36.5t32.5 83.5zM388 560q0 -14 -10.5 -24.5t-24.5 -10.5t-24.5 10.5t-10.5 24.5t10.5 24.5t24.5 10.5t24.5 -10.5t10.5 -24.5zM188 560q0 -14 -10.5 -24.5t-24.5 -10.5t-24.5 10.5t-10.5 24.5t10.5 24.5t24.5 10.5t24.5 -10.5t10.5 -24.5z" />
<glyph unicode="&#xf7;" horiz-adv-x="490" d="M285 390q0 -14 -10.5 -24.5t-24.5 -10.5t-24.5 10.5t-10.5 24.5t10.5 24.5t24.5 10.5t24.5 -10.5t10.5 -24.5zM440 220h-370v50h370v-50zM285 100q0 -14 -10.5 -24.5t-24.5 -10.5t-24.5 10.5t-10.5 24.5t10.5 24.5t24.5 10.5t24.5 -10.5t10.5 -24.5z" />
<glyph unicode="&#xf8;" horiz-adv-x="498" d="M458 402l-31 -31q16 -32 16 -71v-150q0 -62 -44 -111t-106 -49h-60q-75 0 -120 67l-25 -25l-28 28l34 34q-11 28 -11 56v150q0 62 44 111t106 49h60q65 0 112 -55l25 25zM376 377q-34 43 -83 43h-60q-45 0 -77.5 -37t-32.5 -83v-150q0 -12 3 -24zM403 150v150q0 22 -7 40 l-254 -254q33 -56 91 -56h60q46 0 78 37t32 83z" />
<glyph unicode="&#xf9;" d="M70 0zM430 0l-220 -10q-59 0 -99.5 45.5t-40.5 104.5v310h40v-310q0 -43 30 -76.5t73 -33.5h7l170 8v412h40v-450zM303 540q0 -20 -20 -20q-7 0 -12 4l-71 39q-20 11 -20 28q0 12 9 21t21 9q11 0 23 -11l61 -54q9 -6 9 -16z" />
<glyph unicode="&#xfa;" d="M323 591q0 -17 -20 -28l-72 -39q-5 -4 -11 -4q-20 0 -20 20q0 9 8 16l62 54q13 11 23 11q12 0 21 -9t9 -21zM430 0l-220 -10q-59 0 -99.5 45.5t-40.5 104.5v310h40v-310q0 -43 30 -76.5t73 -33.5h7l170 8v412h40v-450z" />
<glyph unicode="&#xfb;" d="M70 0zM430 0l-220 -10q-59 0 -99.5 45.5t-40.5 104.5v310h40v-310q0 -43 30 -76.5t73 -33.5h7l170 8v412h40v-450zM373 535l-26 -30l-97 79l-97 -79l-26 30l123 101z" />
<glyph unicode="&#xfc;" d="M70 0zM430 0l-220 -10q-59 0 -99.5 45.5t-40.5 104.5v310h40v-310q0 -43 30 -76.5t73 -33.5h7l170 8v412h40v-450zM388 560q0 -14 -10.5 -24.5t-24.5 -10.5t-24.5 10.5t-10.5 24.5t10.5 24.5t24.5 10.5t24.5 -10.5t10.5 -24.5zM188 560q0 -14 -10.5 -24.5t-24.5 -10.5 t-24.5 10.5t-10.5 24.5t10.5 24.5t24.5 10.5t24.5 -10.5t10.5 -24.5z" />
<glyph unicode="&#xfd;" d="M333 591q0 -17 -20 -28l-72 -39q-5 -4 -11 -4q-20 0 -20 20q0 9 8 16l62 54q13 11 23 11q12 0 21 -9t9 -21zM430 -60q0 -62 -44 -106t-106 -44h-50q-62 0 -106 39t-44 101v10h40v-10q0 -46 34 -74q31 -26 76 -26h50q46 0 78 32t32 78v58l-180 -8q-59 0 -99.5 45.5 t-40.5 104.5v310h40v-310q0 -43 30 -76.5t73 -33.5h7l170 8v412h40v-510z" />
<glyph unicode="&#xff;" d="M70 0zM430 -60q0 -62 -44 -106t-106 -44h-50q-62 0 -106 39t-44 101v10h40v-10q0 -46 34 -74q31 -26 76 -26h50q46 0 78 32t32 78v58l-180 -8q-59 0 -99.5 45.5t-40.5 104.5v310h40v-310q0 -43 30 -76.5t73 -33.5h7l170 8v412h40v-510zM388 560q0 -14 -10.5 -24.5 t-24.5 -10.5t-24.5 10.5t-10.5 24.5t10.5 24.5t24.5 10.5t24.5 -10.5t10.5 -24.5zM188 560q0 -14 -10.5 -24.5t-24.5 -10.5t-24.5 10.5t-10.5 24.5t10.5 24.5t24.5 10.5t24.5 -10.5t10.5 -24.5z" />
<glyph unicode="&#x141;" horiz-adv-x="444" d="M394 755l-30 -27q-27 31 -58 31q-17 0 -46 -19.5t-58 -19.5q-49 0 -88 44l30 27q26 -31 58 -31q17 0 46 19.5t57 19.5q49 0 89 -44z" />
<glyph unicode="&#x152;" horiz-adv-x="710" d="M660 0h-240q-16 0 -38 -1q-9 -2 -27 -5.5t-45 -3.5h-10q-109 0 -171 71q-59 68 -59 179v200q0 111 60.5 180.5t169.5 69.5h10q36 0 70 -9v1q24 -2 36 -2h234v-40h-230v-260h180v-40h-180v-300h240v-40zM380 41v598q-32 11 -80 11q-92 0 -143 -60q-47 -56 -47 -150v-200 q0 -94 47 -150q51 -60 143 -60h10q40 0 70 11z" />
<glyph unicode="&#x153;" horiz-adv-x="720" d="M670 190h-280v-50q0 -44 30.5 -77t74.5 -33h5l150 10v-40l-157 -10q-84 0 -125 78q-47 -78 -128 -78h-20q-61 0 -105.5 48.5t-44.5 111.5v150q0 63 44.5 111.5t105.5 48.5h20q83 0 128 -79q42 79 132 79h20q62 0 106 -44t44 -106v-120zM630 230v80q0 46 -32 78t-78 32 h-20q-46 0 -78 -32t-32 -78v-80h240zM350 150v150q0 47 -32.5 83.5t-77.5 36.5h-20q-45 0 -77.5 -36.5t-32.5 -83.5v-150q0 -47 32.5 -83.5t77.5 -36.5h20q45 0 77.5 36.5t32.5 83.5z" />
<glyph unicode="&#x178;" horiz-adv-x="550" d="M70 0zM500 680l-20 -370l-160 -9v-301h-40v301q-102 6 -158 78q-52 67 -52 171v130h40v-130q0 -96 48 -153q51 -62 142 -57l140 8l20 332h40zM465 750q0 -14 -10.5 -24.5t-24.5 -10.5t-24.5 10.5t-10.5 24.5t10.5 24.5t24.5 10.5t24.5 -10.5t10.5 -24.5zM185 750 q0 -14 -10.5 -24.5t-24.5 -10.5t-24.5 10.5t-10.5 24.5t10.5 24.5t24.5 10.5t24.5 -10.5t10.5 -24.5z" />
<glyph unicode="&#x2c6;" horiz-adv-x="423" d="M373 535l-26 -30l-97 79l-97 -79l-26 30l123 101z" />
<glyph unicode="&#x2db;" horiz-adv-x="590" d="M475 750q0 -14 -10.5 -24.5t-24.5 -10.5t-24.5 10.5t-10.5 24.5t10.5 24.5t24.5 10.5t24.5 -10.5t10.5 -24.5zM195 750q0 -14 -10.5 -24.5t-24.5 -10.5t-24.5 10.5t-10.5 24.5t10.5 24.5t24.5 10.5t24.5 -10.5t10.5 -24.5z" />
<glyph unicode="&#x2dc;" horiz-adv-x="444" d="M394 555l-30 -27q-27 31 -58 31q-17 0 -46 -19.5t-58 -19.5q-49 0 -88 44l30 27q26 -31 58 -31q17 0 46 19.5t57 19.5q49 0 89 -44z" />
<glyph unicode="&#x2000;" horiz-adv-x="423" />
<glyph unicode="&#x2001;" horiz-adv-x="846" />
<glyph unicode="&#x2002;" horiz-adv-x="423" />
<glyph unicode="&#x2003;" horiz-adv-x="846" />
<glyph unicode="&#x2004;" horiz-adv-x="282" />
<glyph unicode="&#x2005;" horiz-adv-x="211" />
<glyph unicode="&#x2006;" horiz-adv-x="141" />
<glyph unicode="&#x2007;" horiz-adv-x="141" />
<glyph unicode="&#x2008;" horiz-adv-x="105" />
<glyph unicode="&#x2009;" horiz-adv-x="169" />
<glyph unicode="&#x200a;" horiz-adv-x="47" />
<glyph unicode="&#x2010;" horiz-adv-x="490" d="M440 220h-370v50h370v-50z" />
<glyph unicode="&#x2011;" horiz-adv-x="490" d="M440 220h-370v50h370v-50z" />
<glyph unicode="&#x2012;" horiz-adv-x="490" d="M440 220h-370v50h370v-50z" />
<glyph unicode="&#x2013;" horiz-adv-x="570" d="M520 230h-450v40h450v-40z" />
<glyph unicode="&#x2014;" horiz-adv-x="670" d="M620 230h-550v40h550v-40z" />
<glyph unicode="&#x2018;" horiz-adv-x="180" d="M135 622q0 -15 -10.5 -25t-24.5 -10t-24.5 10t-10.5 25q0 12 14 38q7 13 13.5 25t17.5 12q21 0 21 -20q0 -4 -2 -9l-9 -18q15 -10 15 -28z" />
<glyph unicode="&#x2019;" horiz-adv-x="180" d="M135 660q0 -7 -3 -15l-25 -49q-6 -11 -17 -11q-21 0 -21 20q0 4 2 9l9 17q-15 12 -15 29q0 14 10.5 24.5t24.5 10.5t24.5 -10.5t10.5 -24.5z" />
<glyph unicode="&#x201a;" horiz-adv-x="180" d="M135 30q0 -7 -3 -15l-25 -49q-6 -11 -17 -11q-21 0 -21 20q0 4 2 9l9 17q-15 12 -15 29q0 14 10.5 24.5t24.5 10.5t24.5 -10.5t10.5 -24.5z" />
<glyph unicode="&#x201c;" horiz-adv-x="280" d="M235 622q0 -15 -10.5 -25t-24.5 -10t-24.5 10t-10.5 25q0 12 14 38q7 13 13.5 25t17.5 12q21 0 21 -20q0 -4 -2 -9l-9 -18q15 -10 15 -28zM135 622q0 -15 -10.5 -25t-24.5 -10t-24.5 10t-10.5 25q0 12 14 38q7 13 13.5 25t17.5 12q21 0 21 -20q0 -4 -2 -9l-9 -18 q15 -10 15 -28z" />
<glyph unicode="&#x201d;" horiz-adv-x="280" d="M235 660q0 -7 -3 -15l-25 -49q-6 -11 -17 -11q-21 0 -21 20q0 4 2 9l9 17q-15 12 -15 29q0 14 10.5 24.5t24.5 10.5t24.5 -10.5t10.5 -24.5zM135 660q0 -7 -3 -15l-25 -49q-6 -11 -17 -11q-21 0 -21 20q0 4 2 9l9 17q-15 12 -15 29q0 14 10.5 24.5t24.5 10.5t24.5 -10.5 t10.5 -24.5z" />
<glyph unicode="&#x201e;" horiz-adv-x="280" d="M235 30q0 -7 -3 -15l-25 -49q-6 -11 -17 -11q-21 0 -21 20q0 4 2 9l9 17q-15 12 -15 29q0 14 10.5 24.5t24.5 10.5t24.5 -10.5t10.5 -24.5zM135 30q0 -7 -3 -15l-25 -49q-6 -11 -17 -11q-21 0 -21 20q0 4 2 9l9 17q-15 12 -15 29q0 14 10.5 24.5t24.5 10.5t24.5 -10.5 t10.5 -24.5z" />
<glyph unicode="&#x2022;" horiz-adv-x="1090" d="M390 275q0 -56 -39.5 -96t-95.5 -40t-96 40t-40 96t39.5 96t95.5 40t96 -40t40 -96z" />
<glyph unicode="&#x2026;" horiz-adv-x="455" d="M405 30q0 -14 -10.5 -24.5t-24.5 -10.5t-24.5 10.5t-10.5 24.5t10.5 24.5t24.5 10.5t24.5 -10.5t10.5 -24.5zM265 30q0 -14 -10.5 -24.5t-24.5 -10.5t-24.5 10.5t-10.5 24.5t10.5 24.5t24.5 10.5t24.5 -10.5t10.5 -24.5zM125 30q0 -14 -10.5 -24.5t-24.5 -10.5 t-24.5 10.5t-10.5 24.5t10.5 24.5t24.5 10.5t24.5 -10.5t10.5 -24.5z" />
<glyph unicode="&#x202f;" horiz-adv-x="169" />
<glyph unicode="&#x2039;" horiz-adv-x="317" d="M264 104l-28 -28l-166 166l166 166l28 -29l-137 -137z" />
<glyph unicode="&#x203a;" horiz-adv-x="317" d="M264 242l-166 -166l-28 28l138 138l-138 137l28 29z" />
<glyph unicode="&#x205f;" horiz-adv-x="211" />
<glyph unicode="&#x2122;" horiz-adv-x="830" d="M780 300h-40v256q0 94 -90 94q-37 0 -59.5 -28t-22.5 -66v-126h-40v126q0 35 -21 63t-54 28q16 0 -93 -7v-340h-40v340h-110v-340h-40v340h-100v40h250q21 0 68 5q43 5 67 5q66 0 89 -60q35 60 116 60q56 0 88 -38.5t32 -95.5v-256z" />
<glyph unicode="&#xe000;" horiz-adv-x="450" d="M0 450h450v-450h-450v450z" />
<glyph horiz-adv-x="450" d="M0 0z" />
</font>
</defs>
</svg>
