<?xml version="1.0" standalone="no"?>
<!DOCTYPE svg PUBLIC "-//W3C//DTD SVG 1.1//EN" "http://www.w3.org/Graphics/SVG/1.1/DTD/svg11.dtd" >
<svg xmlns="http://www.w3.org/2000/svg">
<metadata></metadata>
<defs>
<font id="sf_collegiateregular" horiz-adv-x="1229" >
<font-face units-per-em="2048" ascent="1638" descent="-410" />
<missing-glyph horiz-adv-x="614" />
<glyph horiz-adv-x="2048" />
<glyph horiz-adv-x="2048" />
<glyph unicode="&#xd;" horiz-adv-x="2048" />
<glyph unicode=" "  horiz-adv-x="614" />
<glyph unicode="&#x09;" horiz-adv-x="614" />
<glyph unicode="&#xa0;" horiz-adv-x="614" />
<glyph unicode="!" horiz-adv-x="717" d="M614 0h-512v512h41l-41 610v516h512v-516l-41 -610h41v-512zM573 41v430h-43l43 653v473h-430v-473l43 -653h-43v-430h430zM512 1126l-41 -614h-225l-41 614v410h307v-410zM512 102h-307v308h307v-308z" />
<glyph unicode="&#x22;" horiz-adv-x="1106" d="M1004 1186l-410 -410v350h-39l-350 -350v350h-103v512h902v-452zM963 1204v393h-820v-430h103v-290l291 290h98v-290zM901 1229l-205 -205v205h-102v307h307v-307zM512 1229l-205 -205v205h-102v307h307v-307z" />
<glyph unicode="#" horiz-adv-x="1288" d="M1186 1372l-60 -696h-163l-15 -164h-696l14 164h-164l60 696h164l14 164h696l-14 -164h164zM1141 1331h-164l14 164h-614l-15 -164h-163l-52 -614h164l-14 -164h614l15 164h164zM1075 1270l-14 -164h-164l-12 -164h164l-15 -164h-164l-14 -164h-164l15 164h-164l-15 -164 h-163l14 164h-164l14 164h164l13 164h-164l14 164h164l14 164h164l-14 -164h164l14 164h164l-15 -164h164zM733 1106h-164l-12 -164h164z" />
<glyph unicode="$" horiz-adv-x="1147" d="M1044 315l-215 -215v-100h-512v100l-215 215v330h177l-177 176v502l215 215v100h512v-100l215 -215v-330h-178l178 -178v-500zM1004 334v463l-238 237h238v271l-216 215v77h-430v-77l-215 -215v-465l236 -236h-236v-270l215 -215v-78h430v78zM942 358l-184 -184h-31v-72 h-307v72h-31l-184 184v185h276v-92h185v229h-277l-184 184v416l184 184h31v72h307v-72h31l184 -184v-184h-276v92h-185v-232h277l184 -184v-414z" />
<glyph unicode="%" horiz-adv-x="2308" d="M2206 244l-244 -244h-455l-219 219l-45 -219l-506 90l109 508l-45 -45h-455l-244 244v598l244 243h455l219 -219l45 219l506 -90l-109 -508l45 45h455l244 -243v-598zM2165 262v561l-221 221h-418l-131 -131l127 603l-424 75l-94 -444v229l-222 221h-417l-222 -221v-561 l222 -221h417l131 131l-127 -602l424 -76l95 442v-227l221 -221h418zM2124 279l-197 -197h-385l-196 197v528l196 197h385l197 -197v-528zM1473 1483l-293 -1389l-344 62l292 1388zM963 831l-197 -196h-385l-197 196v529l197 196h385l197 -196v-529zM1806 399v287h-143v-287 h143zM645 952v287h-143v-287h143z" />
<glyph unicode="&#x26;" horiz-adv-x="1165" d="M1063 334l-234 -234v-100h-512v100l-215 215v418l86 86l-86 86v418l215 215v100h512v-100l215 -215v-330h-276v-348h295v-311zM1022 352v252h-295v430h277v271l-216 215v77h-430v-77l-215 -215v-381l105 -105l-105 -104v-381l215 -215v-78h430v78zM961 377l-203 -203h-31 v-72h-307v72h-31l-184 184v332l129 129l-129 129v332l184 184h31v72h307v-72h31l184 -184v-184h-276v92h-185v-232h185v-276h-185v-229h185v92h295v-166z" />
<glyph unicode="'" horiz-adv-x="717" d="M614 1186l-409 -410v350h-103v512h512v-452zM573 1204v393h-430v-430h103v-290zM512 1229l-205 -205v205h-102v307h307v-307z" />
<glyph unicode="(" horiz-adv-x="922" d="M819 0h-452l-265 264v1110l265 264h452v-512h-205v-614h205v-512zM778 41v430h-205v696h205v430h-393l-242 -241v-1073l242 -242h393zM717 102h-307l-205 205v1024l205 205h307v-307h-205v-819h205v-308z" />
<glyph unicode=")" horiz-adv-x="922" d="M819 264l-264 -264h-453v512h205v614h-205v512h453l264 -264v-1110zM778 283v1073l-241 241h-394v-430h205v-696h-205v-430h394zM717 307l-205 -205h-307v308h205v819h-205v307h307l205 -205v-1024z" />
<glyph unicode="*" horiz-adv-x="1147" d="M1044 870q0 -83 -60 -144q-59 -60 -144 -60q-34 0 -68 12q-17 -75 -71 -120q-55 -46 -128 -46q-72 0 -127 46q-54 45 -71 120q-35 -12 -68 -12q-85 0 -145 60q-60 61 -60 144q0 92 72 154q-72 61 -72 154q0 83 60 143q60 61 145 61q33 0 68 -12q17 75 71 120 q55 46 127 46q73 0 128 -46q54 -45 71 -120q34 12 68 12q86 0 144 -61q60 -60 60 -143q0 -92 -71 -154q71 -62 71 -154zM1004 870q0 83 -101 154q101 71 101 154q0 66 -49 114q-48 49 -115 49q-32 0 -101 -32q-18 186 -166 186q-147 0 -165 -186q-69 32 -101 32 q-67 0 -116 -49q-48 -48 -48 -114q0 -83 101 -154q-101 -71 -101 -154q0 -66 48 -115q49 -48 116 -48q32 0 101 32q18 -186 165 -186q148 0 166 186q69 -32 101 -32q67 0 115 48q49 49 49 115zM942 870q0 -25 -14 -51q-30 -51 -88 -51q-26 0 -52 14l-188 211q-7 -5 -14 -8 l90 -268q0 -21 -8 -39.5t-22.5 -33t-33 -22.5t-39.5 -8t-39.5 8t-32.5 22.5t-22 33t-8 39.5l90 268q-7 3 -14 8l-189 -211q-25 -14 -51 -14q-58 0 -88 51q-14 26 -14 51q0 59 51 88l276 58v16l-276 58q-51 28 -51 88q0 25 14 51q30 51 88 51q26 0 51 -14l189 -211q7 5 14 8 l-90 268q0 21 8 39.5t22 33t32.5 22.5t39.5 8t39.5 -8t33 -22.5t22.5 -33t8 -39.5l-90 -268q7 -3 14 -8l188 211q26 14 52 14q58 0 88 -51q14 -26 14 -51q0 -60 -51 -88l-279 -58q1 -5 1.5 -7t0.5 -1v-8l277 -58q51 -29 51 -88z" />
<glyph unicode="+" horiz-adv-x="1024" d="M922 614h-205v-204h-410v204h-205v410h205v205h410v-205h205v-410zM881 655v328h-205v205h-328v-205h-205v-328h205v-204h328v204h205zM819 717h-205v-205h-204v205h-205v205h205v204h204v-204h205v-205z" />
<glyph unicode="," horiz-adv-x="717" d="M614 59l-409 -408v349h-103v512h512v-453zM573 78v393h-430v-430h103v-290zM512 102l-205 -203v203h-102v308h307v-308z" />
<glyph unicode="-" horiz-adv-x="1024" d="M922 614h-820v410h820v-410zM881 655v328h-738v-328h738zM819 717h-614v205h614v-205z" />
<glyph unicode="." horiz-adv-x="717" d="M614 -101h-512v511h512v-511zM573 -60v429h-430v-429h430zM512 0h-307v307h307v-307z" />
<glyph unicode="/" horiz-adv-x="825" d="M825 1550l-321 -1550l-504 88l319 1550zM778 1516l-424 75l-307 -1468l424 -76zM707 1466l-285 -1347l-303 53l284 1348z" />
<glyph unicode="0" d="M1126 264l-264 -264h-495l-265 264v1110l265 264h495l264 -264v-1110zM1085 283v1073l-241 241h-459l-242 -241v-1073l242 -242h459zM1024 307l-205 -205h-409l-205 205v1024l205 205h409l205 -205v-1024zM717 410v819h-205v-819h205z" />
<glyph unicode="1" horiz-adv-x="717" d="M614 0h-512v1638h512v-1638zM573 41v1556h-430v-1556h430zM512 102h-307v1434h307v-1434z" />
<glyph unicode="2" d="M1126 0h-1024v811l213 213h-213v350l265 264h495l264 -264v-547l-264 -264h-248v-51h512v-512zM1085 41v430h-512v133h271l241 242v510l-241 241h-459l-242 -241v-291h273l-273 -272v-752h942zM1024 102h-819v666l205 205h307v256h-205v-103h-307v205l205 205h409 l205 -205v-461l-205 -204h-307v-256h512v-308z" />
<glyph unicode="3" horiz-adv-x="1249" d="M1147 264l-264 -264h-496l-285 285v329h328v410h-307v350l264 264h496l264 -264v-454l-100 -101l100 -100v-455zM1106 283v417l-119 119l119 119v418l-242 241h-458l-242 -241v-291h307v-492h-328v-270l263 -262h458zM1044 307l-204 -205h-410l-225 226v184h327v-102h205 v256h-205v307h205v256h-205v-103h-307v205l205 205h410l204 -205v-368l-143 -144l143 -143v-369z" />
<glyph unicode="4" d="M1126 0h-512v563h-512v1075h1024v-1638zM1085 41v1556h-942v-993h512v-563h430zM1024 102h-307v564h-512v870h307v-563h205v563h307v-1434z" />
<glyph unicode="5" d="M1126 264l-264 -264h-495l-265 264v350h213l-213 213v811h1024v-512h-512v-51h248l264 -264v-547zM1085 283v510l-241 241h-271v133h512v430h-942v-751l273 -273h-273v-290l242 -242h459zM1024 307l-205 -205h-409l-205 205v205h307v-102h205v256h-307l-205 204v666h819 v-307h-512v-256h307l205 -205v-461z" />
<glyph unicode="6" d="M1126 264l-264 -264h-495l-265 264v1110l265 264h495l264 -264v-350h-213l213 -213v-547zM1085 283v510l-272 272h272v291l-241 241h-459l-242 -241v-1073l242 -242h459zM1024 307l-205 -205h-409l-205 205v1024l205 205h409l205 -205v-205h-307v103h-205v-256h307 l205 -205v-461zM717 410v256h-205v-256h205z" />
<glyph unicode="7" horiz-adv-x="1280" d="M1229 1208l-527 -1208h-571l447 1024h-476v614h1127v-430zM1188 1217v380h-1045v-532h496l-446 -1024h483zM1126 1229l-491 -1127h-348l491 1127h-266v-103h-307v410h921v-307z" />
<glyph unicode="8" horiz-adv-x="1270" d="M1167 285l-284 -285h-496l-285 285v413l121 121l-100 101v454l264 264h496l264 -264v-454l-100 -101l120 -121v-413zM1126 303v377l-139 139l119 119v418l-242 241h-458l-242 -241v-418l119 -119l-140 -139v-377l263 -262h458zM1065 328l-225 -226h-410l-225 226v327 l164 164l-144 144v368l205 205h410l204 -205v-368l-143 -144l164 -164v-327zM737 973v256h-205v-256h205zM737 410v256h-205v-256h205z" />
<glyph unicode="9" d="M1126 264l-264 -264h-495l-265 264v350h213l-213 213v547l265 264h495l264 -264v-1110zM1085 283v1073l-241 241h-459l-242 -241v-510l273 -273h-273v-290l242 -242h459zM1024 307l-205 -205h-409l-205 205v205h307v-102h205v256h-307l-205 204v461l205 205h409l205 -205 v-1024zM717 973v256h-205v-256h205z" />
<glyph unicode=":" horiz-adv-x="717" d="M614 717h-512v512h512v-512zM614 0h-512v512h512v-512zM573 758v430h-430v-430h430zM573 41v430h-430v-430h430zM512 819h-307v307h307v-307zM512 102h-307v308h307v-308z" />
<glyph unicode=";" horiz-adv-x="717" d="M614 717h-512v512h512v-512zM614 59l-409 -408v349h-103v512h512v-453zM573 758v430h-430v-430h430zM573 78v393h-430v-430h103v-290zM512 819h-307v307h307v-307zM512 102l-205 -203v203h-102v308h307v-308z" />
<glyph unicode="=" horiz-adv-x="1024" d="M922 451h-820v737h820v-737zM881 492v655h-738v-655h738zM819 881h-614v204h614v-204zM819 553h-614v205h614v-205z" />
<glyph unicode="?" d="M1126 827l-264 -264h-248v-563h-512v811l213 213h-213v350l265 264h495l264 -264v-547zM1085 846v510l-241 241h-459l-242 -241v-291h273l-273 -272v-752h430v563h271zM1024 870l-205 -204h-307v-154h-307v256l205 205h307v256h-205v-103h-307v205l205 205h409l205 -205 v-461zM512 102h-307v308h307v-308z" />
<glyph unicode="A" horiz-adv-x="1188" d="M1188 0h-516l-35 205h-86l-35 -205h-516l305 1638h580zM1139 41l-289 1556h-512l-289 -1556h432l35 205h156l35 -205h432zM1065 102h-307l-35 205h-258l-35 -205h-307l266 1434h410zM670 614l-76 445l-76 -445h152z" />
<glyph unicode="B" horiz-adv-x="1249" d="M1147 285l-285 -285h-760v1638h760l264 -264v-454l-100 -101l121 -121v-413zM1106 303v377l-139 139l118 119v418l-241 241h-701v-1556h701zM1044 328l-225 -226h-614v1434h614l205 -205v-368l-143 -144l163 -164v-327zM717 973v256h-205v-256h205zM717 410v256h-205 v-256h205z" />
<glyph unicode="C" d="M1126 264l-264 -264h-495l-265 264v1110l265 264h495l264 -264v-452h-368v-205h368v-453zM1085 283v393h-368v287h368v393l-241 241h-459l-242 -241v-1073l242 -242h459zM1024 307l-205 -205h-409l-205 205v1024l205 205h409l205 -205v-307h-307v205h-205v-819h205v204 h307v-307z" />
<glyph unicode="D" d="M1126 264l-264 -264h-760v1638h760l264 -264v-1110zM1085 283v1073l-241 241h-701v-1556h701zM1024 307l-205 -205h-614v1434h614l205 -205v-1024zM717 410v819h-205v-819h205z" />
<glyph unicode="E" horiz-adv-x="1126" d="M1024 0h-922v1638h922v-512h-410v-51h410v-512h-410v-51h410v-512zM983 41v430h-410v133h410v430h-410v133h410v430h-840v-1556h840zM922 102h-717v1434h717v-307h-410v-256h410v-307h-410v-256h410v-308z" />
<glyph unicode="F" horiz-adv-x="1075" d="M1024 563h-410v-563h-512v1638h922v-512h-410v-51h410v-512zM983 604v430h-410v133h410v430h-840v-1556h430v563h410zM922 666h-410v-564h-307v1434h717v-307h-410v-256h410v-307z" />
<glyph unicode="G" d="M1126 264l-264 -264h-495l-265 264v1110l265 264h495l264 -264v-1110zM1085 283v1073l-241 241h-459l-242 -241v-1073l242 -242h459zM1024 307l-205 -205h-409l-205 205v1024l205 205h409l205 -205v-307h-307v205h-205v-819h205v153h-103v307h410v-563z" />
<glyph unicode="H" d="M1126 0h-1024v1638h1024v-1638zM1085 41v1556h-942v-1556h942zM1024 102h-307v564h-205v-564h-307v1434h307v-563h205v563h307v-1434z" />
<glyph unicode="I" horiz-adv-x="717" d="M614 0h-512v1638h512v-1638zM573 41v1556h-430v-1556h430zM512 102h-307v1434h307v-1434z" />
<glyph unicode="J" horiz-adv-x="1178" d="M1075 264l-264 -264h-496l-264 264v453h512v921h512v-1374zM1034 283v1314h-430v-921h-512v-393l242 -242h459zM973 307l-205 -205h-410l-204 205v307h307v-204h205v1126h307v-1229z" />
<glyph unicode="K" horiz-adv-x="1272" d="M1169 0h-524l-31 84v-84h-512v1638h512v-84l31 84h524l-292 -819zM1112 41l-278 778l278 778h-438l-101 -280v280h-430v-1556h430v281l101 -281h438zM1024 102h-307l-205 574v-574h-307v1434h307v-573l205 573h307l-256 -717z" />
<glyph unicode="L" horiz-adv-x="1075" d="M1024 0h-922v1638h512v-1126h410v-512zM983 41v430h-410v1126h-430v-1556h840zM922 102h-717v1434h307v-1126h410v-308z" />
<glyph unicode="M" horiz-adv-x="1434" d="M1331 0h-512v82l-102 -255l-103 255v-82h-512v1638h480l135 -338l135 338h479v-1638zM1290 41v1556h-409l-164 -407l-164 407h-410v-1556h430v254l144 -357l143 357v-254h430zM1229 102h-307v512l-205 -512l-205 512v-512h-307v1434h307l205 -512l205 512h307v-1434z" />
<glyph unicode="N" d="M1126 0h-481l-31 84v-84h-512v1638h482l30 -84v84h512v-1638zM1085 41v1556h-430v-280l-100 280h-412v-1556h430v281l101 -281h411zM1024 102h-307l-205 574v-574h-307v1434h307l205 -573v573h307v-1434z" />
<glyph unicode="O" d="M1126 264l-264 -264h-495l-265 264v1110l265 264h495l264 -264v-1110zM1085 283v1073l-241 241h-459l-242 -241v-1073l242 -242h459zM1024 307l-205 -205h-409l-205 205v1024l205 205h409l205 -205v-1024zM717 410v819h-205v-819h205z" />
<glyph unicode="P" horiz-adv-x="1178" d="M1126 827l-264 -264h-248v-563h-512v1638h760l264 -264v-547zM1085 846v510l-241 241h-701v-1556h430v563h271zM1024 870l-205 -204h-307v-564h-307v1434h614l205 -205v-461zM717 973v256h-205v-256h205z" />
<glyph unicode="Q" horiz-adv-x="1260" d="M1208 0h-841l-265 264v1110l265 264h495l264 -264v-964h82v-410zM1167 41v328h-82v987l-241 241h-459l-242 -241v-1073l242 -242h782zM1106 102h-696l-205 205v1024l205 205h409l205 -205v-921l-102 -103h184v-205zM717 410v819h-205v-819h205z" />
<glyph unicode="R" d="M1126 0h-1024v1638h760l264 -264v-454l-100 -101l100 -100v-719zM1085 41v659l-118 119l118 119v418l-241 241h-701v-1556h942zM1024 102h-307v564h-205v-564h-307v1434h614l205 -205v-368l-143 -144l143 -143v-574zM717 973v256h-205v-256h205z" />
<glyph unicode="S" d="M1126 264l-264 -264h-495l-265 264v350h213l-213 213v547l265 264h495l264 -264v-350h-213l213 -213v-547zM1085 283v510l-272 272h272v291l-241 241h-459l-242 -241v-510l273 -273h-273v-290l242 -242h459zM1024 307l-205 -205h-409l-205 205v205h307v-102h205v256h-307 l-205 204v461l205 205h409l205 -205v-205h-307v103h-205v-256h307l205 -205v-461z" />
<glyph unicode="T" horiz-adv-x="1126" d="M1126 1126h-307v-1126h-512v1126h-307v512h1126v-512zM1085 1167v430h-1044v-430h307v-1126h430v1126h307zM1024 1229h-307v-1127h-307v1127h-308v307h922v-307z" />
<glyph unicode="U" d="M1126 264l-264 -264h-495l-265 264v1374h1024v-1374zM1085 283v1314h-942v-1314l242 -242h459zM1024 307l-205 -205h-409l-205 205v1229h307v-1126h205v1126h307v-1229z" />
<glyph unicode="V" horiz-adv-x="1188" d="M1188 1638l-303 -1638h-580l-305 1638h516l78 -452l78 452h516zM1139 1597h-432l-113 -653l-113 653h-432l289 -1556h512zM1065 1536l-266 -1434h-410l-266 1434h307l164 -956l164 956h307z" />
<glyph unicode="W" horiz-adv-x="1597" d="M1597 1638l-303 -1638h-991l-303 1638h514l66 -319l49 319h340l49 -319l65 319h514zM1548 1597h-430l-106 -507l-78 507h-270l-78 -507l-107 507h-430l289 -1556h432l27 192l32 -192h431zM1475 1536l-267 -1434h-327l-82 478l-82 -478h-328l-266 1434h307l164 -793 l123 793h164l123 -793l163 793h308z" />
<glyph unicode="X" horiz-adv-x="1233" d="M1233 0h-531l-86 201l-86 -201h-530l350 819l-350 819h530l86 -200l86 200h531l-352 -819zM1169 41l-333 778l333 778h-440l-113 -264l-112 264h-443l334 -778l-334 -778h443l112 264l113 -264h440zM1077 102h-307l-154 359l-153 -359h-307l307 717l-307 717h307 l153 -358l154 358h307l-307 -717z" />
<glyph unicode="Y" horiz-adv-x="1225" d="M1225 1638l-357 -880v-758h-512v758l-356 880h530l82 -217l84 217h529zM1165 1597h-440l-113 -288l-110 288h-441l336 -831v-725h430v725zM1073 1536l-307 -758v-676h-307v676l-307 758h307l153 -399l154 399h307z" />
<glyph unicode="Z" d="M1126 0h-1024v436l379 690h-379v512h1024v-436l-378 -690h378v-512zM1085 41v430h-407l407 741v385h-942v-430h408l-408 -741v-385h942zM1024 102h-819v308l450 819h-450v307h819v-307l-451 -819h451v-308z" />
<glyph unicode="[" horiz-adv-x="922" d="M819 0h-717v1638h717v-512h-205v-614h205v-512zM778 41v430h-205v696h205v430h-635v-1556h635zM717 102h-512v1434h512v-307h-205v-819h205v-308z" />
<glyph unicode="\" horiz-adv-x="825" d="M825 88l-503 -88l-322 1550l506 88zM778 123l-307 1468l-424 -75l307 -1469zM707 172l-304 -53l-284 1347l303 54z" />
<glyph unicode="]" horiz-adv-x="922" d="M819 0h-717v512h205v614h-205v512h717v-1638zM778 41v1556h-635v-430h205v-696h-205v-430h635zM717 102h-512v308h205v819h-205v307h512v-1434z" />
<glyph unicode="a" horiz-adv-x="1094" d="M1094 0h-486l-30 184h-60l-33 -184h-485l279 1495h538zM1044 41l-262 1413h-471l-262 -1413h402l32 184h129l31 -184h401zM971 102h-277l-30 185h-234l-31 -185h-276l239 1291h369zM614 563l-67 400l-68 -400h135z" />
<glyph unicode="b" horiz-adv-x="1165" d="M1063 262l-262 -262h-699v1495h699l243 -244v-417l-86 -86l105 -105v-381zM1022 281v344l-123 123l105 104v381l-222 221h-639v-1413h639zM961 305l-203 -203h-553v1291h553l184 -185v-331l-129 -129l148 -148v-295zM666 885v231h-185v-231h185zM666 379v229h-185v-229 h185z" />
<glyph unicode="c" horiz-adv-x="1147" d="M1044 244l-243 -244h-455l-244 244v1007l244 244h455l243 -244v-422h-337v-163h337v-422zM1004 262v363h-338v245h338v363l-222 221h-417l-222 -221v-971l222 -221h417zM942 287l-184 -185h-369l-184 185v921l184 185h369l184 -185v-276h-276v184h-185v-737h185v184h276 v-276z" />
<glyph unicode="d" horiz-adv-x="1147" d="M1044 244l-243 -244h-699v1495h699l243 -244v-1007zM1004 262v971l-222 221h-639v-1413h639zM942 287l-184 -185h-553v1291h553l184 -185v-921zM666 379v737h-185v-737h185z" />
<glyph unicode="e" horiz-adv-x="1055" d="M952 0h-850v1495h850v-481h-368v-27h368v-481h-368v-25h368v-481zM911 41v399h-368v107h368v399h-368v109h368v399h-768v-1413h768zM850 102h-645v1291h645v-277h-369v-231h369v-277h-369v-229h369v-277z" />
<glyph unicode="f" horiz-adv-x="1004" d="M952 506h-368v-506h-482v1495h850v-481h-368v-27h368v-481zM911 547v399h-368v109h368v399h-768v-1413h400v506h368zM850 608h-369v-506h-276v1291h645v-277h-369v-231h369v-277z" />
<glyph unicode="g" horiz-adv-x="1147" d="M1044 244l-243 -244h-455l-244 244v1007l244 244h455l243 -244v-1007zM1004 262v971l-222 221h-417l-222 -221v-971l222 -221h417zM942 287l-184 -185h-369l-184 185v921l184 185h369l184 -185v-276h-276v184h-185v-737h185v137h-93v277h369v-506z" />
<glyph unicode="h" horiz-adv-x="1147" d="M1044 0h-942v1495h942v-1495zM1004 41v1413h-861v-1413h861zM942 102h-276v506h-185v-506h-276v1291h276v-508h185v508h276v-1291z" />
<glyph unicode="i" horiz-adv-x="686" d="M584 0h-482v1495h482v-1495zM543 41v1413h-400v-1413h400zM481 102h-276v1291h276v-1291z" />
<glyph unicode="j" horiz-adv-x="1096" d="M993 244l-243 -244h-455l-244 244v422h461v829h481v-1251zM952 262v1192h-399v-829h-461v-363l221 -221h418zM891 287l-184 -185h-369l-184 185v276h276v-184h184v1014h277v-1106z" />
<glyph unicode="k" horiz-adv-x="1190" d="M1087 0h-985v1495h985l-266 -747zM1030 41l-254 707l254 706h-407l-80 -223v223h-400v-1413h400v223l80 -223h407zM942 102h-276l-185 516v-516h-276v1291h276v-516l185 516h276l-231 -645z" />
<glyph unicode="l" horiz-adv-x="1055" d="M952 0h-850v1495h482v-1014h368v-481zM911 41v399h-368v1014h-400v-1413h768zM850 102h-645v1291h276v-1014h369v-277z" />
<glyph unicode="m" horiz-adv-x="1331" d="M1229 0h-481v31l-82 -204l-82 204v-31h-482v1495h449l115 -287l114 287h449v-1495zM1188 41v1413h-379l-143 -356l-144 356h-379v-1413h400v203l123 -306l122 306v-203h400zM1126 102h-276v461l-184 -461l-185 461v-461h-276v1291h276l185 -461l184 461h276v-1291z" />
<glyph unicode="n" horiz-adv-x="1147" d="M1044 0h-942v1495h942v-1495zM1004 41v1413h-400v-223l-80 223h-381v-1413h400v223l80 -223h381zM942 102h-276l-185 516v-516h-276v1291h276l185 -516v516h276v-1291z" />
<glyph unicode="o" horiz-adv-x="1147" d="M1044 244l-243 -244h-455l-244 244v1007l244 244h455l243 -244v-1007zM1004 262v971l-222 221h-417l-222 -221v-971l222 -221h417zM942 287l-184 -185h-369l-184 185v921l184 185h369l184 -185v-921zM666 379v737h-185v-737h185z" />
<glyph unicode="p" horiz-adv-x="1096" d="M1044 752l-243 -246h-217v-506h-482v1495h699l243 -244v-499zM1004 768v465l-222 221h-639v-1413h400v506h239zM942 793l-184 -185h-277v-506h-276v1291h553l184 -185v-415zM666 885v231h-185v-231h185z" />
<glyph unicode="q" horiz-adv-x="1169" d="M1118 0h-772l-244 244v1007l244 244h455l243 -244v-862h74v-389zM1077 41v307h-73v885l-222 221h-417l-222 -221v-971l222 -221h712zM1016 102h-627l-184 185v921l184 185h369l184 -185v-829l-92 -92h166v-185zM666 379v737h-185v-737h185z" />
<glyph unicode="r" horiz-adv-x="1147" d="M1044 0h-942v1495h699l243 -244v-417l-86 -86l86 -86v-662zM1004 41v602l-105 105l105 104v381l-222 221h-639v-1413h861zM942 102h-276v506h-185v-506h-276v1291h553l184 -185v-331l-129 -129l129 -130v-516zM666 885v231h-185v-231h185z" />
<glyph unicode="s" horiz-adv-x="1147" d="M1044 248l-243 -244h-455l-244 244v330h179l-179 178v499l244 244h455l243 -244v-329h-178l178 -178v-500zM1004 266v465l-236 236h236v270l-222 221h-417l-222 -221v-465l236 -235h-236v-271l222 -221h417zM930 287l-185 -185h-368l-184 185v184h276v-92h184v229h-276 l-184 185v415l184 185h368l185 -185v-184h-277v92h-184v-231h276l185 -185v-413z" />
<glyph unicode="t" horiz-adv-x="1034" d="M1034 1014h-276v-1014h-482v1014h-276v481h1034v-481zM993 1055v399h-952v-399h276v-1014h400v1014h276zM932 1116h-277v-1014h-276v1014h-277v277h830v-277z" />
<glyph unicode="u" horiz-adv-x="1147" d="M1044 244l-243 -244h-455l-244 244v1251h942v-1251zM1004 262v1192h-861v-1192l222 -221h417zM942 287l-184 -185h-369l-184 185v1106h276v-1014h185v1014h276v-1106z" />
<glyph unicode="v" horiz-adv-x="1094" d="M1094 1495l-277 -1495h-541l-276 1495h485l62 -356l61 356h486zM1044 1454h-401l-96 -559l-96 559h-402l262 -1413h471zM971 1393l-240 -1291h-369l-239 1291h276l148 -861l147 861h277z" />
<glyph unicode="w" horiz-adv-x="1462" d="M1462 1495l-276 -1495h-910l-276 1495h483l49 -240l37 240h324l37 -240l49 240h483zM1413 1454h-399l-90 -430l-66 430h-254l-65 -430l-90 430h-400l262 -1413h398l22 127l23 -127h397zM1339 1393l-239 -1291h-295l-74 430l-74 -430h-295l-239 1291h276l148 -713l110 713 h148l110 -713l148 713h276z" />
<glyph unicode="x" horiz-adv-x="1141" d="M1141 0h-500l-72 166l-69 -166h-500l322 748l-322 747h500l69 -166l72 166h500l-322 -747zM1077 41l-301 707l301 706h-409l-99 -227l-96 227h-410l302 -706l-302 -707h410l96 227l99 -227h409zM985 102h-276l-140 322l-137 -322h-276l276 646l-276 645h276l137 -324 l140 324h276l-276 -645z" />
<glyph unicode="y" horiz-adv-x="1133" d="M1133 1495l-326 -805v-690h-481v690l-326 805h498l67 -176l70 176h498zM1073 1454h-411l-97 -250l-94 250h-412l308 -756v-657h399v657zM981 1393l-276 -682v-609h-277v609l-276 682h276l137 -361l140 361h276z" />
<glyph unicode="z" horiz-adv-x="1147" d="M1044 0h-942v406l334 608h-334v481h942v-405l-333 -609h333v-481zM1004 41v399h-363l363 660v354h-861v-399h363l-363 -660v-354h861zM942 102h-737v277l405 737h-405v277h737v-277l-405 -737h405v-277z" />
<glyph unicode="{" horiz-adv-x="1044" d="M942 0h-453l-264 264v365l-123 102v176l123 103v364l264 264h453v-512h-205v-247l-59 -60l59 -59v-248h205v-512zM901 41v430h-205v270l-78 78l78 78v270h205v430h-393l-242 -241v-365l-123 -102v-139l123 -103v-364l242 -242h393zM840 102h-308l-204 205v369l-123 102 v82l123 103v368l204 205h308v-307h-205v-307l-103 -103l103 -102v-307h205v-308z" />
<glyph unicode="|" horiz-adv-x="717" d="M614 0h-512v1638h512v-1638zM573 41v1556h-430v-1556h430zM512 102h-307v1434h307v-1434z" />
<glyph unicode="}" horiz-adv-x="1044" d="M942 731l-123 -102v-365l-264 -264h-453v512h205v248l60 59l-60 60v247h-205v512h453l264 -264v-364l123 -103v-176zM901 750v139l-123 102v365l-241 241h-394v-430h205v-270l78 -78l-78 -78v-270h-205v-430h394l241 242v364zM840 778l-123 -102v-369l-205 -205h-307v308 h205v307l102 102l-102 103v307h-205v307h307l205 -205v-368l123 -103v-82z" />
<glyph unicode="&#xa1;" horiz-adv-x="717" d="M614 0h-512v516l41 610h-41v512h512v-512h-41l41 -610v-516zM573 41v473l-43 653h43v430h-430v-430h43l-43 -653v-473h430zM512 1229h-307v307h307v-307zM512 102h-307v410l41 614h225l41 -614v-410z" />
<glyph unicode="&#xa2;" horiz-adv-x="1147" d="M1044 520l-215 -215v-100h-512v100l-215 215v803l215 215v100h512v-100l215 -215v-803zM1004 539v766l-216 215v77h-430v-77l-215 -215v-766l215 -215v-78h430v78zM942 563l-184 -184h-31v-72h-307v72h-31l-184 184v717l184 184h31v72h307v-72h31l184 -184v-276h-276v184 h-185v-533h185v185h276v-277z" />
<glyph unicode="&#xad;" horiz-adv-x="1024" d="M922 614h-820v410h820v-410zM881 655v328h-738v-328h738zM819 717h-614v205h614v-205z" />
<glyph unicode="&#xbf;" d="M1126 264l-264 -264h-495l-265 264v547l265 264h247v563h512v-811l-213 -213h213v-350zM1085 283v290h-272l272 273v751h-430v-563h-270l-242 -241v-510l242 -242h459zM1024 1229h-307v307h307v-307zM1024 307l-205 -205h-409l-205 205v461l205 205h307v153h307v-256 l-205 -204h-307v-256h205v102h307v-205z" />
<glyph unicode="&#x2000;" horiz-adv-x="819" />
<glyph unicode="&#x2001;" horiz-adv-x="1638" />
<glyph unicode="&#x2002;" horiz-adv-x="819" />
<glyph unicode="&#x2003;" horiz-adv-x="1638" />
<glyph unicode="&#x2004;" horiz-adv-x="546" />
<glyph unicode="&#x2005;" horiz-adv-x="409" />
<glyph unicode="&#x2006;" horiz-adv-x="273" />
<glyph unicode="&#x2007;" horiz-adv-x="273" />
<glyph unicode="&#x2008;" horiz-adv-x="204" />
<glyph unicode="&#x2009;" horiz-adv-x="327" />
<glyph unicode="&#x200a;" horiz-adv-x="91" />
<glyph unicode="&#x2010;" horiz-adv-x="1024" d="M922 614h-820v410h820v-410zM881 655v328h-738v-328h738zM819 717h-614v205h614v-205z" />
<glyph unicode="&#x2011;" horiz-adv-x="1024" d="M922 614h-820v410h820v-410zM881 655v328h-738v-328h738zM819 717h-614v205h614v-205z" />
<glyph unicode="&#x2012;" horiz-adv-x="1024" d="M922 614h-820v410h820v-410zM881 655v328h-738v-328h738zM819 717h-614v205h614v-205z" />
<glyph unicode="&#x2013;" horiz-adv-x="1228" d="M1126 614h-1024v410h1024v-410zM1075 655v328h-922v-328h922zM997 717h-766v205h766v-205z" />
<glyph unicode="&#x2014;" horiz-adv-x="2252" d="M2150 614h-2048v410h2048v-410zM2048 655v328h-1844v-328h1844zM1893 717h-1534v205h1534v-205z" />
<glyph unicode="&#x2018;" horiz-adv-x="717" d="M614 776h-512v453l410 409v-350h102v-512zM573 817v430h-102v291l-328 -328v-393h430zM512 879h-307v307l205 205v-205h102v-307z" />
<glyph unicode="&#x2019;" horiz-adv-x="717" d="M614 1186l-409 -410v350h-103v512h512v-452zM573 1204v393h-430v-430h103v-290zM512 1229l-205 -205v205h-102v307h307v-307z" />
<glyph unicode="&#x201a;" horiz-adv-x="717" d="M614 59l-409 -408v349h-103v512h512v-453zM573 78v393h-430v-430h103v-290zM512 102l-205 -203v203h-102v308h307v-308z" />
<glyph unicode="&#x201c;" horiz-adv-x="1106" d="M1004 776h-902v453l410 409v-350h39l350 350v-350h103v-512zM963 817v430h-103v291l-291 -291h-98v291l-328 -328v-393h820zM901 879h-307v307l205 205v-205h102v-307zM512 879h-307v307l205 205v-205h102v-307z" />
<glyph unicode="&#x201d;" horiz-adv-x="1106" d="M1004 1186l-410 -410v350h-39l-350 -350v350h-103v512h902v-452zM963 1204v393h-820v-430h103v-290l291 290h98v-290zM901 1229l-205 -205v205h-102v307h307v-307zM512 1229l-205 -205v205h-102v307h307v-307z" />
<glyph unicode="&#x201e;" horiz-adv-x="1106" d="M1004 59l-410 -408v349h-39l-350 -349v349h-103v512h902v-453zM963 78v393h-820v-430h103v-290l291 290h98v-290zM901 102l-205 -203v203h-102v308h307v-308zM512 102l-205 -203v203h-102v308h307v-308z" />
<glyph unicode="&#x202f;" horiz-adv-x="327" />
<glyph unicode="&#x205f;" horiz-adv-x="409" />
<glyph unicode="&#xe000;" horiz-adv-x="1495" d="M0 1495h1495v-1495h-1495v1495z" />
</font>
</defs>
</svg>
