<?xml version="1.0" standalone="no"?>
<!DOCTYPE svg PUBLIC "-//W3C//DTD SVG 1.1//EN" "http://www.w3.org/Graphics/SVG/1.1/DTD/svg11.dtd" >
<svg xmlns="http://www.w3.org/2000/svg">
<metadata></metadata>
<defs>
<font id="communistsansbold" horiz-adv-x="634" >
<font-face units-per-em="1000" ascent="800" descent="-200" />
<missing-glyph horiz-adv-x="289" />
<glyph horiz-adv-x="1000" />
<glyph horiz-adv-x="1000" />
<glyph unicode="&#xd;" horiz-adv-x="289" />
<glyph unicode=" "  horiz-adv-x="289" />
<glyph unicode="&#x09;" horiz-adv-x="289" />
<glyph unicode="&#xa0;" horiz-adv-x="289" />
<glyph unicode="!" horiz-adv-x="351" d="M181 -9q-89 0 -89 76q0 75 89 75t89 -75q0 -76 -89 -76zM270 644q0 -29 -34 -431h-109l-35 431q0 76 89 76t89 -76z" />
<glyph unicode="(" horiz-adv-x="334" d="M64 267q0 190 58 318q62 135 162 135v-53q-102 0 -102 -400t102 -400v-54q-100 0 -162 135q-58 128 -58 319z" />
<glyph unicode=")" horiz-adv-x="333" d="M58 -187v54q102 0 102 400t-102 400v53q100 0 162 -135q58 -128 58 -318q0 -191 -58 -319q-62 -135 -162 -135z" />
<glyph unicode="+" horiz-adv-x="444" d="M249 373h138v-53h-138v-138h-53v138h-138v53h138v138h53v-138z" />
<glyph unicode="," horiz-adv-x="317" d="M190 2q-23 -15 -55 -15q-67 0 -67 75q0 76 89 76q58 0 82 -32q20 -29 20 -93q0 -78 -88 -137h-87q106 85 106 126z" />
<glyph unicode="-" horiz-adv-x="370" d="M280 231h-196v71h196v-71z" />
<glyph unicode="." horiz-adv-x="341" d="M162 138q89 0 89 -76q0 -75 -89 -75t-89 75q0 76 89 76z" />
<glyph unicode="0" horiz-adv-x="736" d="M369 724q147 0 219 -78q83 -89 83 -290t-83 -291q-72 -78 -219 -78t-219 78q-83 90 -83 291t83 290q72 78 219 78zM493 356q0 144 -28 203t-96 59t-96.5 -59.5t-28.5 -202.5q0 -144 28.5 -203.5t96.5 -59.5t96 59.5t28 203.5z" />
<glyph unicode="1" horiz-adv-x="473" d="M172 0v578l-97 -36v107l133 62h142v-711h-178z" />
<glyph unicode="2" horiz-adv-x="664" d="M272 160h313v-160h-508v121l187 199q118 125 116 204q9 88 -84 88q-110 0 -197 -60v110q98 62 224 62q162 0 223 -80q31 -41 31 -97q0 -104 -140 -234z" />
<glyph unicode="3" horiz-adv-x="628" d="M60 145q84 -49 203 -49q64 0 95 36q25 28 25 70q0 109 -125 109h-56v107h61q102 0 102 100q0 48 -15 68q-22 30 -87 30q-79 0 -185 -47v97q79 58 227 58q120 0 181 -53q57 -50 57 -140q0 -128 -125 -167q41 -8 71 -27q71 -48 71 -148q0 -96 -70 -149t-194 -53 q-142 0 -236 52v106z" />
<glyph unicode="4" horiz-adv-x="751" d="M364 267v241l-190 -241h190zM364 0v160h-304v128l341 432h141v-453h133v-107h-133v-160h-178z" />
<glyph unicode="5" horiz-adv-x="655" d="M532 556h-307v-112h91q272 0 272 -228q0 -112 -76 -172q-72 -57 -196 -57t-231 56v109q103 -59 200 -59q65 0 99 40q26 32 26 80q0 44 -27 72q-36 39 -115 39h-149v387h413v-155z" />
<glyph unicode="6" horiz-adv-x="711" d="M364 369q-100 0 -100 -133q0 -143 100 -143t100 138t-100 138zM256 420q45 60 137 60q245 0 245 -247q0 -246 -276 -246q-142 0 -210 78q-76 88 -76 291q0 204 82 290q75 78 242 78q79 0 168 -23v-97q-79 14 -172 14q-140 0 -140 -198z" />
<glyph unicode="7" horiz-adv-x="612" d="M211 -27l-108 67l292 516h-329v155h494v-122z" />
<glyph unicode="8" horiz-adv-x="691" d="M280 315q-38 -25 -64 -59q-27 -37 -27 -67q0 -46 27 -76q35 -39 108 -39q128 0 128 96q0 38 -46 74q-33 24 -126 71zM193 368q-60 36 -79 70q-21 38 -21 115q0 171 250 171q131 0 190 -55q45 -42 45 -109q0 -78 -92 -146q139 -78 139 -201q0 -226 -285 -226 q-266 0 -266 206q0 96 119 175zM393 457q36 33 48 50q15 21 15 45q0 36 -23 61q-27 27 -75 27q-100 0 -100 -76q0 -32 33 -56q26 -19 102 -51z" />
<glyph unicode="9" horiz-adv-x="722" d="M356 342q100 0 100 134q0 142 -100 142t-100 -138t100 -138zM464 291q-45 -60 -137 -60q-245 0 -245 247q0 246 276 246q142 0 210 -78q76 -88 76 -290q0 -205 -83 -291q-76 -78 -249 -78q-74 0 -192 47v108q118 -49 200 -49q144 0 144 198z" />
<glyph unicode=":" horiz-adv-x="341" d="M169 138q89 0 89 -76q0 -75 -89 -75t-89 75q0 76 89 76zM169 578q89 0 89 -76q0 -75 -89 -75t-89 75q0 76 89 76z" />
<glyph unicode=";" horiz-adv-x="341" d="M169 578q89 0 89 -76q0 -75 -89 -75t-89 75q0 76 89 76zM192 2q-23 -15 -55 -15q-67 0 -67 75q0 76 89 76q58 0 82 -32q20 -29 20 -93q0 -78 -88 -137h-87q106 85 106 126z" />
<glyph unicode="=" horiz-adv-x="444" d="M387 236h-329v53h329v-53zM387 404h-329v54h329v-54z" />
<glyph unicode="?" horiz-adv-x="549" d="M202 141q93 0 93 -75q0 -76 -93 -76q-94 0 -94 76q0 75 94 75zM253 272v-54h-106v162q51 -2 80 -2q72 0 97 45q14 25 14 75q0 43 -21 75q-29 45 -90 45q-96 0 -160 -33v116q87 23 160 23q134 0 211.5 -60.5t77.5 -165.5q0 -107 -56 -161q-63 -61 -207 -65z" />
<glyph unicode="A" horiz-adv-x="712" d="M407 267l-83 302l-84 -302h167zM210 160l-45 -160h-138l205 711h228l205 -711h-185l-44 160h-226z" />
<glyph unicode="B" horiz-adv-x="689" d="M352 98q106 0 106 106q0 112 -111 112h-69v-218h74zM347 413q45 0 68 38q17 29 17 65q0 97 -89 97h-65v-200h69zM100 0v711h265q249 0 249 -187q0 -121 -138 -160q59 -11 103 -44q61 -47 61 -124q0 -92 -54 -138q-68 -58 -234 -58h-252z" />
<glyph unicode="C" horiz-adv-x="641" d="M576 33q-69 -42 -170 -42q-173 0 -250 79q-84 85 -84 288t84 288q77 78 250 78q83 0 156 -28v-116q-80 38 -156 38q-83 0 -119.5 -62t-36.5 -198t36.5 -198t119.5 -62q81 0 170 53v-118z" />
<glyph unicode="D" horiz-adv-x="725" d="M376 98q122 0 122 258q0 257 -122 257h-98v-515h98zM100 0v711h293q138 0 206 -74q77 -84 77 -281q0 -199 -79 -282q-71 -74 -221 -74h-276z" />
<glyph unicode="E" horiz-adv-x="560" d="M519 0h-418v711h413v-107h-235v-191h200v-106h-200v-200h240v-107z" />
<glyph unicode="F" horiz-adv-x="561" d="M276 0h-178v711h413v-107h-235v-191h200v-106h-200v-307z" />
<glyph unicode="G" horiz-adv-x="703" d="M648 387v-338q-150 -62 -256 -62q-173 0 -250 78q-83 86 -83 291t83 290q77 78 250 78q129 0 197 -32v-115q-98 41 -197 41q-83 0 -119 -62t-36 -200t36 -200.5t119 -62.5q31 0 78 20v185h-67v89h245z" />
<glyph unicode="H" horiz-adv-x="800" d="M264 307v-307h-178v711h178v-298h253v298h178v-711h-178v307h-253z" />
<glyph unicode="I" horiz-adv-x="344" d="M262 711v-711h-178v711h178z" />
<glyph unicode="J" horiz-adv-x="386" d="M301 711v-658q0 -143 -84 -199q-61 -41 -187 -41v98q93 0 93 142v658h178z" />
<glyph unicode="K" horiz-adv-x="732" d="M496 711h170l-222 -265l266 -446h-206l-182 302l-50 -61v-241h-178v711h178v-271z" />
<glyph unicode="L" horiz-adv-x="534" d="M96 711h178v-604h231v-107h-409v711z" />
<glyph unicode="M" horiz-adv-x="1068" d="M960 711v-711h-177v553l-167 -553h-202l-165 553v-553h-133v711h272l149 -563l155 563h268z" />
<glyph unicode="N" horiz-adv-x="773" d="M92 711h256l205 -535v535h134v-711h-256l-205 536v-536h-134v711z" />
<glyph unicode="O" horiz-adv-x="746" d="M377 724q153 0 227 -78q84 -89 84 -290q0 -202 -84 -291q-74 -78 -227 -78t-227 78q-84 89 -84 291q0 201 84 290q74 78 227 78zM510 356q0 139 -30.5 200.5t-102.5 61.5t-102.5 -61.5t-30.5 -200.5t30.5 -201t102.5 -62t102.5 62t30.5 201z" />
<glyph unicode="P" horiz-adv-x="668" d="M279 613v-217h69q59 0 86 38q20 28 20 70q0 109 -106 109h-69zM101 0v711h269q146 0 209 -59q53 -50 53 -148q0 -206 -284 -206h-69v-298h-178z" />
<glyph unicode="Q" horiz-adv-x="689" d="M489 356q0 138 -30.5 200t-102.5 62q-73 0 -103.5 -62t-30.5 -200q0 -139 30.5 -201t103.5 -62q72 0 102.5 62t30.5 201zM271 -6q-111 20 -166 101q-61 89 -61 261q0 201 84 290q74 78 228 78q153 0 227 -78q84 -89 84 -290q0 -172 -59 -260q-53 -79 -164 -101 q6 -55 24 -78.5t55 -23.5v-80q-234 0 -252 181z" />
<glyph unicode="R" horiz-adv-x="684" d="M342 413q89 0 89 111q0 45 -16 65q-20 24 -73 24h-69v-200h69zM468 0l-62 164q-57 152 -95 152h-38v-316h-177v711h282q135 0 190 -57q41 -43 41 -130q0 -138 -144 -167q20 -8 38 -25q44 -41 74 -118l84 -214h-193z" />
<glyph unicode="S" horiz-adv-x="616" d="M85 175q110 -82 199 -82q104 0 104 67q0 45 -81 81q-115 52 -149 82q-81 71 -81 201q0 76 41 127q59 73 190 73q119 0 195 -42v-122q-70 58 -192 58q-77 0 -77 -67q0 -40 82 -77q119 -54 154 -82q82 -68 82 -183q0 -97 -53 -153q-66 -70 -205 -70q-91 0 -209 62v127z" />
<glyph unicode="T" horiz-adv-x="588" d="M207 604h-169v107h515v-107h-169v-604h-177v604z" />
<glyph unicode="U" horiz-adv-x="704" d="M618 711v-471q0 -111 -56 -175q-69 -78 -215 -78t-215 78q-56 64 -56 175v471h177v-489q0 -133 116 -133q115 0 115 133v489h134z" />
<glyph unicode="V" horiz-adv-x="712" d="M527 711h138l-210 -711h-210l-207 711h186l148 -565z" />
<glyph unicode="W" horiz-adv-x="1164" d="M441 0h-228l-178 711h197l131 -555l141 555h220l144 -555l131 555h137l-178 -711h-235l-142 531z" />
<glyph unicode="X" horiz-adv-x="654" d="M462 711h151l-182 -342l196 -369h-201l-122 229l-119 -229h-150l195 369l-182 342h201l107 -201z" />
<glyph unicode="Y" horiz-adv-x="647" d="M235 320l-208 391h201l122 -229l119 229h150l-206 -390v-321h-178v320z" />
<glyph unicode="Z" horiz-adv-x="668" d="M597 711v-106l-310 -498h315v-107h-531v98l317 506h-296v107h505z" />
<glyph unicode="_" horiz-adv-x="478" d="M434 -293h-400v71h400v-71z" />
<glyph unicode="`" horiz-adv-x="537" d="M100 656l30 64l157 -83l-23 -49z" />
<glyph unicode="a" horiz-adv-x="585" d="M225 169q0 -67 54 -67q27 0 80 38v109q-79 0 -106.5 -18.5t-27.5 -61.5zM359 387q0 57 -87 57q-72 0 -178 -54v103q79 54 182 54q114 0 172 -30q73 -38 73 -130v-387h-153v58q-82 -71 -167 -71q-147 0 -147 169q0 95 51 133q65 49 254 49v49z" />
<glyph unicode="b" horiz-adv-x="626" d="M303 84q57 0 75 41q14 35 14 142q0 73 -4 97q-12 63 -54 63q-46 0 -89 -36v-302q17 -5 58 -5zM83 711h162v-231q72 67 134 67q101 0 145 -74q39 -66 39 -206t-59 -207q-65 -73 -214 -73q-110 0 -207 49v675z" />
<glyph unicode="c" horiz-adv-x="526" d="M462 36q-65 -49 -153 -49q-143 0 -208 90q-52 70 -52 190q0 119 52 190q65 90 208 90q86 0 144 -45v-102q-81 49 -144 49q-62 0 -84 -58q-14 -37 -14 -124t14 -125q22 -58 84 -58q77 0 153 54v-102z" />
<glyph unicode="d" horiz-adv-x="631" d="M318 449q-55 0 -72 -68q-8 -33 -8 -114q0 -74 6 -99q14 -57 65 -57q29 0 75 31v294q-28 13 -66 13zM547 711v-711h-154v62q-80 -75 -151 -75q-95 0 -137 73q-38 67 -38 207q0 144 46 206q54 74 191 74q33 0 80 -18v182h163z" />
<glyph unicode="e" horiz-adv-x="573" d="M51 267q0 141 55 208q59 72 187 72q147 0 196 -81q40 -65 40 -244h-307q0 -79 24 -106t83 -27q95 0 180 49v-102q-97 -49 -202 -49q-256 0 -256 280zM296 444q-46 0 -63 -44q-11 -29 -11 -89h147q0 73 -5 89q-13 44 -68 44z" />
<glyph unicode="f" horiz-adv-x="447" d="M368 627q-48 0 -65 -28q-11 -19 -11 -66h98v-97h-98v-436h-162v436h-75v97h75q0 85 35 126q54 65 205 65q18 0 49 -4v-96q-28 3 -51 3z" />
<glyph unicode="g" horiz-adv-x="624" d="M238 289q0 -63 8 -89q15 -49 63 -49q29 0 75 40v242q-17 18 -75 18q-71 0 -71 -162zM460 533h87v-444q0 -280 -258 -280q-91 0 -182 44v103q80 -45 175 -45q51 0 74 26q28 31 28 107v63q-71 -76 -142 -76q-175 0 -175 258q0 128 46 187q55 71 191 71q18 0 71 -7t85 -7z " />
<glyph unicode="h" horiz-adv-x="657" d="M571 0h-162v364q0 67 -67 67q-41 0 -89 -33v-398h-162v711h153v-233q69 64 147 64q81 0 130.5 -38t49.5 -104v-400z" />
<glyph unicode="i" horiz-adv-x="355" d="M182 756q89 0 89 -76t-89 -76t-89 76t89 76zM98 0v533h162v-533h-162z" />
<glyph unicode="j" horiz-adv-x="380" d="M284 533v-435q0 -158 -41 -213q-53 -72 -219 -72v98q60 0 79 26t19 116v480h162zM206 756q94 0 94 -76t-94 -76q-93 0 -93 76t93 76z" />
<glyph unicode="k" horiz-adv-x="648" d="M429 533h173l-186 -186l200 -347h-187l-132 228l-51 -51v-177h-162v711h162v-360z" />
<glyph unicode="l" horiz-adv-x="363" d="M110 0v711h162v-711h-162z" />
<glyph unicode="m" horiz-adv-x="970" d="M552 470q72 72 157 72q81 0 130.5 -38t49.5 -104v-400h-162v364q0 67 -67 67q-34 0 -89 -33v-398h-162v364q0 67 -67 67q-41 0 -89 -33v-398h-162v533h153v-55q69 64 147 64q117 0 161 -72z" />
<glyph unicode="n" horiz-adv-x="643" d="M571 0h-162v364q0 67 -67 67q-41 0 -89 -33v-398h-162v533h153v-55q69 64 147 64q81 0 130.5 -38t49.5 -104v-400z" />
<glyph unicode="o" d="M316 547q268 0 268 -280t-268 -280q-269 0 -269 280t269 280zM422 267q0 86 -15 122q-23 55 -91 55q-69 0 -92 -55q-15 -36 -15 -122q0 -87 15 -122q23 -56 92 -56q68 0 91 56q15 35 15 122z" />
<glyph unicode="p" horiz-adv-x="612" d="M310 84q55 0 72 68q8 34 8 115q0 74 -6 98q-14 57 -65 57q-29 0 -76 -31v-293q29 -14 67 -14zM81 -178v711h153v-62q81 76 151 76q95 0 137 -74q39 -67 39 -206q0 -144 -47 -207q-54 -73 -191 -73q-32 0 -80 17v-182h-162z" />
<glyph unicode="q" horiz-adv-x="628" d="M315 451q-55 0 -72 -69q-8 -34 -8 -115q0 -74 6 -99q14 -57 65 -57q29 0 75 31v291q-28 18 -66 18zM470 533h74v-711h-163v240q-71 -75 -142 -75q-95 0 -137 73q-38 67 -38 207q0 144 46 206q54 74 191 74q14 0 74.5 -7t94.5 -7z" />
<glyph unicode="r" horiz-adv-x="413" d="M390 425q-14 8 -54 8q-43 0 -93 -60v-373h-162v533h153v-71q55 80 127 80q24 0 29 -4v-113z" />
<glyph unicode="s" horiz-adv-x="504" d="M70 151q65 -64 150 -64q53 0 75 19q12 11 12 23q0 41 -64 65q-102 39 -119 50q-64 44 -64 132q0 64 39 109q54 62 170 62q87 0 154 -34v-109q-48 45 -159 45q-64 0 -64 -53q0 -27 66 -47q90 -29 122 -52q66 -47 66 -139q0 -171 -220 -171q-90 0 -164 49v115z" />
<glyph unicode="t" horiz-adv-x="442" d="M384 -9q-66 -4 -86 -4q-116 0 -154 44q-33 38 -33 147v258h-76v97h76v111l162 45v-156h124v-97h-124v-258q0 -49 13.5 -70t50.5 -21q13 0 47 6v-102z" />
<glyph unicode="u" d="M76 533h162v-364q0 -67 66 -67q42 0 89 34v397h163v-533h-154v56q-68 -65 -146 -65q-81 0 -130.5 38t-49.5 104v400z" />
<glyph unicode="v" horiz-adv-x="567" d="M406 533h127l-143 -533h-219l-143 533h168l105 -392z" />
<glyph unicode="w" horiz-adv-x="942" d="M420 533h158l114 -403l103 403h127l-143 -533h-199l-101 347l-101 -347h-198l-143 533h168l103 -403z" />
<glyph unicode="x" horiz-adv-x="571" d="M308 404l74 129h142l-146 -251l163 -282h-187l-91 158l-91 -158h-142l162 280l-147 253h189z" />
<glyph unicode="y" horiz-adv-x="605" d="M327 194l-117 339h-171l168 -489q10 -30 10 -54q0 -79 -108 -79v-98q144 0 198 39q45 33 84 148l182 533h-129z" />
<glyph unicode="z" horiz-adv-x="565" d="M500 444l-233 -342h241v-102h-446v88l234 343h-212v102h416v-89z" />
<glyph unicode="&#xa1;" horiz-adv-x="351" d="M181 720q89 0 89 -76q0 -75 -89 -75t-89 75q0 76 89 76zM92 67q0 29 35 431h109l34 -431q0 -76 -89 -76t-89 76z" />
<glyph unicode="&#xad;" horiz-adv-x="370" d="M280 231h-196v71h196v-71z" />
<glyph unicode="&#xb1;" horiz-adv-x="444" d="M387 0h-329v53h329v-53zM249 373h138v-53h-138v-138h-53v138h-138v53h138v138h53v-138z" />
<glyph unicode="&#xb4;" horiz-adv-x="467" d="M112 756q28 0 47.5 -19.5t19.5 -47.5t-19.5 -47t-47.5 -19t-47.5 19t-19.5 47t19.5 47.5t47.5 19.5zM359 755q28 0 47 -19.5t19 -47.5q0 -27 -19 -46.5t-47 -19.5t-47.5 19.5t-19.5 46.5q0 28 19.5 47.5t47.5 19.5z" />
<glyph unicode="&#xbf;" horiz-adv-x="549" d="M364 574q-94 0 -94 76q0 75 94 75q93 0 93 -75q0 -76 -93 -76zM312 444v54h107v-162q-51 2 -81 2q-72 0 -97 -45q-14 -25 -14 -75q0 -42 21 -75q30 -45 90 -45q97 0 160 32v-116q-87 -23 -160 -23q-134 0 -211.5 61t-77.5 166q0 107 56 161q63 60 207 65z" />
<glyph unicode="&#xe0;" horiz-adv-x="585" d="M225 169q0 -67 54 -67q27 0 80 38v109q-79 0 -106.5 -18.5t-27.5 -61.5zM359 387q0 57 -87 57q-72 0 -178 -54v103q79 54 182 54q114 0 172 -30q73 -38 73 -130v-387h-153v58q-82 -71 -167 -71q-147 0 -147 169q0 95 51 133q65 49 254 49v49z" />
<glyph unicode="&#xe1;" horiz-adv-x="585" d="M225 169q0 -67 54 -67q27 0 80 38v109q-79 0 -106.5 -18.5t-27.5 -61.5zM359 387q0 57 -87 57q-72 0 -178 -54v103q79 54 182 54q114 0 172 -30q73 -38 73 -130v-387h-153v58q-82 -71 -167 -71q-147 0 -147 169q0 95 51 133q65 49 254 49v49z" />
<glyph unicode="&#xe2;" horiz-adv-x="585" d="M225 169q0 -67 54 -67q27 0 80 38v109q-79 0 -106.5 -18.5t-27.5 -61.5zM359 387q0 57 -87 57q-72 0 -178 -54v103q79 54 182 54q114 0 172 -30q73 -38 73 -130v-387h-153v58q-82 -71 -167 -71q-147 0 -147 169q0 95 51 133q65 49 254 49v49z" />
<glyph unicode="&#xe3;" horiz-adv-x="585" d="M225 169q0 -67 54 -67q27 0 80 38v109q-79 0 -106.5 -18.5t-27.5 -61.5zM359 387q0 57 -87 57q-72 0 -178 -54v103q79 54 182 54q114 0 172 -30q73 -38 73 -130v-387h-153v58q-82 -71 -167 -71q-147 0 -147 169q0 95 51 133q65 49 254 49v49z" />
<glyph unicode="&#xe4;" horiz-adv-x="585" d="M225 169q0 -67 54 -67q27 0 80 38v109q-79 0 -106.5 -18.5t-27.5 -61.5zM359 387q0 57 -87 57q-72 0 -178 -54v103q79 54 182 54q114 0 172 -30q73 -38 73 -130v-387h-153v58q-82 -71 -167 -71q-147 0 -147 169q0 95 51 133q65 49 254 49v49zM158 756q89 0 89 -76 t-89 -76t-89 76t89 76zM442 756q89 0 89 -76t-89 -76t-89 76t89 76z" />
<glyph unicode="&#xe5;" horiz-adv-x="585" d="M225 169q0 -67 54 -67q27 0 80 38v109q-79 0 -106.5 -18.5t-27.5 -61.5zM359 387q0 57 -87 57q-72 0 -178 -54v103q79 54 182 54q114 0 172 -30q73 -38 73 -130v-387h-153v58q-82 -71 -167 -71q-147 0 -147 169q0 95 51 133q65 49 254 49v49z" />
<glyph unicode="&#xe7;" horiz-adv-x="526" d="M462 36q-65 -49 -153 -49q-143 0 -208 90q-52 70 -52 190q0 119 52 190q65 90 208 90q86 0 144 -45v-102q-81 49 -144 49q-62 0 -84 -58q-14 -37 -14 -124t14 -125q22 -58 84 -58q77 0 153 54v-102z" />
<glyph unicode="&#xe8;" horiz-adv-x="573" d="M51 267q0 141 55 208q59 72 187 72q147 0 196 -81q40 -65 40 -244h-307q0 -79 24 -106t83 -27q95 0 180 49v-102q-97 -49 -202 -49q-256 0 -256 280zM296 444q-46 0 -63 -44q-11 -29 -11 -89h147q0 73 -5 89q-13 44 -68 44z" />
<glyph unicode="&#xe9;" horiz-adv-x="573" d="M51 267q0 141 55 208q59 72 187 72q147 0 196 -81q40 -65 40 -244h-307q0 -79 24 -106t83 -27q95 0 180 49v-102q-97 -49 -202 -49q-256 0 -256 280zM296 444q-46 0 -63 -44q-11 -29 -11 -89h147q0 73 -5 89q-13 44 -68 44z" />
<glyph unicode="&#xea;" horiz-adv-x="573" d="M51 267q0 141 55 208q59 72 187 72q147 0 196 -81q40 -65 40 -244h-307q0 -79 24 -106t83 -27q95 0 180 49v-102q-97 -49 -202 -49q-256 0 -256 280zM296 444q-46 0 -63 -44q-11 -29 -11 -89h147q0 73 -5 89q-13 44 -68 44z" />
<glyph unicode="&#xeb;" horiz-adv-x="573" d="M51 267q0 141 55 208q59 72 187 72q147 0 196 -81q40 -65 40 -244h-307q0 -79 24 -106t83 -27q95 0 180 49v-102q-97 -49 -202 -49q-256 0 -256 280zM296 444q-46 0 -63 -44q-11 -29 -11 -89h147q0 73 -5 89q-13 44 -68 44zM158 756q89 0 89 -76t-89 -76t-89 76t89 76z M442 756q89 0 89 -76t-89 -76t-89 76t89 76z" />
<glyph unicode="&#xec;" horiz-adv-x="355" d="M182 756q89 0 89 -76t-89 -76t-89 76t89 76zM98 0v533h162v-533h-162z" />
<glyph unicode="&#xed;" horiz-adv-x="355" d="M182 756q89 0 89 -76t-89 -76t-89 76t89 76zM98 0v533h162v-533h-162z" />
<glyph unicode="&#xee;" horiz-adv-x="355" d="M182 756q89 0 89 -76t-89 -76t-89 76t89 76zM98 0v533h162v-533h-162z" />
<glyph unicode="&#xef;" horiz-adv-x="355" d="M66 756q89 0 89 -76t-89 -76t-89 76t89 76zM98 0v533h162v-533h-162zM297 756q89 0 89 -76t-89 -76t-89 76t89 76z" />
<glyph unicode="&#xf1;" horiz-adv-x="643" d="M571 0h-162v364q0 67 -67 67q-41 0 -89 -33v-398h-162v533h153v-55q69 64 147 64q81 0 130.5 -38t49.5 -104v-400z" />
<glyph unicode="&#xf2;" d="M316 547q268 0 268 -280t-268 -280q-269 0 -269 280t269 280zM422 267q0 86 -15 122q-23 55 -91 55q-69 0 -92 -55q-15 -36 -15 -122q0 -87 15 -122q23 -56 92 -56q68 0 91 56q15 35 15 122z" />
<glyph unicode="&#xf3;" d="M316 547q268 0 268 -280t-268 -280q-269 0 -269 280t269 280zM422 267q0 86 -15 122q-23 55 -91 55q-69 0 -92 -55q-15 -36 -15 -122q0 -87 15 -122q23 -56 92 -56q68 0 91 56q15 35 15 122z" />
<glyph unicode="&#xf4;" d="M316 547q268 0 268 -280t-268 -280q-269 0 -269 280t269 280zM422 267q0 86 -15 122q-23 55 -91 55q-69 0 -92 -55q-15 -36 -15 -122q0 -87 15 -122q23 -56 92 -56q68 0 91 56q15 35 15 122z" />
<glyph unicode="&#xf5;" d="M316 547q268 0 268 -280t-268 -280q-269 0 -269 280t269 280zM422 267q0 86 -15 122q-23 55 -91 55q-69 0 -92 -55q-15 -36 -15 -122q0 -87 15 -122q23 -56 92 -56q68 0 91 56q15 35 15 122z" />
<glyph unicode="&#xf6;" d="M316 547q268 0 268 -280t-268 -280q-269 0 -269 280t269 280zM422 267q0 86 -15 122q-23 55 -91 55q-69 0 -92 -55q-15 -36 -15 -122q0 -87 15 -122q23 -56 92 -56q68 0 91 56q15 35 15 122zM171 756q89 0 89 -76t-89 -76t-89 76t89 76zM455 756q89 0 89 -76t-89 -76 t-89 76t89 76z" />
<glyph unicode="&#xf9;" d="M76 533h162v-364q0 -67 66 -67q42 0 89 34v397h163v-533h-154v56q-68 -65 -146 -65q-81 0 -130.5 38t-49.5 104v400z" />
<glyph unicode="&#xfa;" d="M76 533h162v-364q0 -67 66 -67q42 0 89 34v397h163v-533h-154v56q-68 -65 -146 -65q-81 0 -130.5 38t-49.5 104v400z" />
<glyph unicode="&#xfb;" d="M76 533h162v-364q0 -67 66 -67q42 0 89 34v397h163v-533h-154v56q-68 -65 -146 -65q-81 0 -130.5 38t-49.5 104v400z" />
<glyph unicode="&#xfc;" d="M76 533h162v-364q0 -67 66 -67q42 0 89 34v397h163v-533h-154v56q-68 -65 -146 -65q-81 0 -130.5 38t-49.5 104v400zM174 756q89 0 89 -76t-89 -76t-89 76t89 76zM458 756q89 0 89 -76t-89 -76t-89 76t89 76z" />
<glyph unicode="&#x2000;" horiz-adv-x="378" />
<glyph unicode="&#x2001;" horiz-adv-x="756" />
<glyph unicode="&#x2002;" horiz-adv-x="378" />
<glyph unicode="&#x2003;" horiz-adv-x="756" />
<glyph unicode="&#x2004;" horiz-adv-x="252" />
<glyph unicode="&#x2005;" horiz-adv-x="189" />
<glyph unicode="&#x2006;" horiz-adv-x="126" />
<glyph unicode="&#x2007;" horiz-adv-x="126" />
<glyph unicode="&#x2008;" horiz-adv-x="94" />
<glyph unicode="&#x2009;" horiz-adv-x="151" />
<glyph unicode="&#x200a;" horiz-adv-x="42" />
<glyph unicode="&#x2010;" horiz-adv-x="370" d="M280 231h-196v71h196v-71z" />
<glyph unicode="&#x2011;" horiz-adv-x="370" d="M280 231h-196v71h196v-71z" />
<glyph unicode="&#x2012;" horiz-adv-x="370" d="M280 231h-196v71h196v-71z" />
<glyph unicode="&#x2013;" horiz-adv-x="478" d="M406 231h-333v71h333v-71z" />
<glyph unicode="&#x2014;" horiz-adv-x="1174" d="M1084 231h-1000v71h1000v-71z" />
<glyph unicode="&#x2018;" horiz-adv-x="233" d="M125 640q28 0 47.5 -19.5t19.5 -47.5t-19.5 -47t-47.5 -19q-78 0 -78 124q0 74 78 125l38 -38q-49 -31 -49 -96z" />
<glyph unicode="&#x2019;" horiz-adv-x="233" d="M99 587q-28 0 -47.5 19t-19.5 47t19.5 47.5t47.5 19.5q32 0 53 -27q25 -32 25 -97q0 -74 -78 -125l-38 37q49 31 49 96z" />
<glyph unicode="&#x201c;" horiz-adv-x="444" d="M125 640q28 0 47.5 -19.5t19.5 -47.5t-19.5 -47t-47.5 -19q-78 0 -78 124q0 74 78 125l38 -38q-49 -31 -49 -96zM337 640q28 0 47.5 -19.5t19.5 -47.5t-19.5 -47t-47.5 -19q-78 0 -78 124q0 74 78 125l37 -38q-49 -31 -49 -96z" />
<glyph unicode="&#x201d;" horiz-adv-x="433" d="M99 587q-28 0 -47.5 19t-19.5 47t19.5 47.5t47.5 19.5q32 0 53 -27q25 -32 25 -97q0 -74 -78 -125l-37 37q49 31 49 96zM311 587q-28 0 -47.5 19t-19.5 47t19.5 47.5t47.5 19.5q32 0 53 -27q25 -32 25 -97q0 -74 -78 -125l-38 37q49 31 49 96z" />
<glyph unicode="&#x202f;" horiz-adv-x="151" />
<glyph unicode="&#x205f;" horiz-adv-x="189" />
<glyph unicode="&#xe000;" horiz-adv-x="535" d="M0 535h535v-535h-535v535z" />
</font>
</defs>
</svg>
