<?xml version="1.0" standalone="no"?>
<!DOCTYPE svg PUBLIC "-//W3C//DTD SVG 1.1//EN" "http://www.w3.org/Graphics/SVG/1.1/DTD/svg11.dtd" >
<svg xmlns="http://www.w3.org/2000/svg">
<metadata></metadata>
<defs>
<font id="lobster_twoitalic" horiz-adv-x="485" >
<font-face units-per-em="1000" ascent="800" descent="-200" />
<missing-glyph horiz-adv-x="215" />
<glyph unicode="&#xfb01;" horiz-adv-x="456" d="M-184 -166q0 49 43 85.5t117 67.5l122 574q16 75 72 131.5t147 56.5q64 0 95.5 -29.5t31.5 -79.5q0 -35 -15 -55.5t-43 -20.5q-23 0 -35.5 13t-12.5 31q0 17 11 31t27 17q-1 48 -59 48q-89 0 -122 -156l-10 -48h80l-7 -35h-81l-115 -545q-21 -101 -51.5 -135.5 t-82.5 -34.5q-50 0 -81 21.5t-31 62.5zM-145 -160q0 -17 10 -27.5t26 -10.5q27 0 42 28.5t28 87.5l7 32q-54 -24 -83.5 -53t-29.5 -57zM247 105q0 31 9 74l68 321h101l-73 -340q-5 -20 -5 -45q0 -45 31 -45q49 0 95 109h37q-23 -59 -47.5 -98.5t-48 -57t-41 -23.5t-37.5 -6 q-89 0 -89 111z" />
<glyph unicode="&#xfb02;" horiz-adv-x="455" d="M-184 -160q0 82 160 147l122 574q8 36 18 63.5t30 59t54 48.5t80 17q22 0 42 -2t32.5 -4t30 -8t25.5 -9.5t28.5 -12.5t29.5 -13l-117 -540q-5 -20 -5 -45q0 -45 31 -45q49 0 95 109h37q-23 -59 -47.5 -98.5t-48 -57t-41 -23.5t-37.5 -6q-89 0 -89 111q0 31 9 74l107 502 q-38 5 -58 5q-49 0 -71.5 -33t-37.5 -105l-10 -48h80l-7 -35h-81l-115 -545q-21 -101 -52 -135.5t-84 -34.5q-49 0 -79.5 22t-30.5 68zM-145 -159q0 -17 10 -28t27 -11q26 0 41 29t28 87l7 32q-54 -24 -83.5 -53t-29.5 -56z" />
<glyph unicode="&#xfb03;" horiz-adv-x="697" d="M-183 -160q0 78 159 145l123 576q8 36 18 63.5t30 59t54 48.5t80 17q88 0 110 -77q63 77 166 77q64 0 95.5 -29.5t31.5 -79.5q0 -35 -15 -55.5t-43 -20.5q-23 0 -35.5 13t-12.5 31q0 17 11 31t27 17q-1 48 -59 48q-89 0 -122 -156l-10 -48h81l-7 -35h-82l-115 -545 q-18 -88 -58 -129t-91 -41q-69 0 -125 61q-18 -35 -41.5 -48t-59.5 -13q-49 0 -79.5 22t-30.5 68zM-144 -159q0 -17 10 -28t27 -11q26 0 41 29t28 87l6 29q-112 -52 -112 -106zM41 -160q36 -38 73 -38q62 0 87 116l22 103q-76 -14 -146 -35l-14 -66q-11 -49 -22 -80zM85 23 q73 21 145 33l108 505q7 32 18 54v9q0 26 -13 44t-38 18q-49 0 -71.5 -33t-37.5 -105l-10 -48h80l-7 -35h-81zM488 105q0 31 9 74l68 321h101l-73 -340q-5 -20 -5 -45q0 -45 31 -45q49 0 95 109h37q-23 -59 -47.5 -98.5t-48 -57t-41 -23.5t-37.5 -6q-89 0 -89 111z" />
<glyph unicode="&#xfb04;" horiz-adv-x="693" d="M-183 -160q0 78 159 145l123 576q8 36 18 63.5t30 59t54 48.5t80 17q78 0 105 -63q47 63 132 63q22 0 42 -2t32.5 -4t30 -8t25.5 -9.5t28.5 -12.5t29.5 -13l-117 -540q-5 -20 -5 -45q0 -45 31 -45q49 0 95 109h37q-23 -59 -47.5 -98.5t-48 -57t-41 -23.5t-37.5 -6 q-89 0 -89 111q0 31 9 74l107 502q-38 5 -58 5q-49 0 -71.5 -33t-37.5 -105l-10 -48h80l-7 -35h-81l-115 -545q-18 -88 -58 -129t-91 -41q-69 0 -124 60q-31 -60 -100 -60q-49 0 -79.5 22t-30.5 68zM-144 -159q0 -17 10 -28t27 -11q26 0 41 29t28 87l6 29 q-112 -52 -112 -106zM40 -161q36 -37 72 -37q62 0 87 116l22 103q-90 -18 -144 -35l-14 -66q-10 -47 -23 -81zM85 23q70 20 143 33l108 505q10 42 20 70q-2 23 -15 39t-36 16q-49 0 -71.5 -33t-37.5 -105l-10 -48h80l-7 -35h-81z" />
<glyph horiz-adv-x="1000" />
<glyph horiz-adv-x="1000" />
<glyph unicode="&#xd;" horiz-adv-x="1000" />
<glyph unicode=" "  horiz-adv-x="215" />
<glyph unicode="&#x09;" horiz-adv-x="215" />
<glyph unicode="&#xa0;" horiz-adv-x="215" />
<glyph unicode="!" horiz-adv-x="242" d="M6 66q0 27 19.5 47t46.5 20t47 -20t20 -47t-20 -46.5t-47 -19.5q-28 0 -47 19t-19 47zM71 231l71 469h112l-130 -469h-53z" />
<glyph unicode="&#x22;" horiz-adv-x="335" d="M93 561l61 189h85l-91 -189h-55zM252 561l61 189h85l-91 -189h-55z" />
<glyph unicode="#" horiz-adv-x="525" d="M-4 141l14 66h120l22 126h-116l14 66h114l58 319h58l-71 -319h132l58 319h58l-71 -319h122l-13 -66h-123l-28 -126h124l-13 -66h-126l-37 -168h-27l30 168h-143l-37 -168h-27l30 168h-122zM167 207h140l22 126h-134z" />
<glyph unicode="$" horiz-adv-x="384" d="M21 220q0 39 18.5 62.5t44.5 23.5q23 0 42 -23q-20 -3 -30 -23.5t-10 -43.5q0 -30 16.5 -48.5t42.5 -24.5l36 204q-4 3 -21.5 15.5t-23 17t-19 16.5t-19 19.5t-13 19.5t-10.5 24t-3 26q0 55 46 90t111 37l19 106h44l-24 -109q39 -6 65.5 -27t26.5 -57q0 -25 -11 -49.5 t-31 -24.5q-18 0 -35 18q23 23 23 56q0 43 -45 55l-38 -170q29 -18 43 -28.5t35 -31t30.5 -44t9.5 -53.5q0 -69 -52.5 -107.5t-132.5 -38.5l-29 -134h-13l24 135q-54 5 -85.5 33t-31.5 79zM147 500q0 -37 49 -72l27 154q-38 -3 -57 -28.5t-19 -53.5zM164 141q38 0 65 26.5 t27 68.5q0 49 -51 93z" />
<glyph unicode="%" horiz-adv-x="615" d="M68 486q0 93 45.5 154.5t114.5 61.5q82 0 82 -110q0 -50 -16.5 -98t-54 -84t-89.5 -36q-82 0 -82 112zM96 0l386 750h60l-386 -750h-60zM123 479q0 -66 42 -66q41 0 68 57t27 137q0 63 -35 63q-41 0 -71.5 -56.5t-30.5 -134.5zM321 112q0 93 45.5 154.5t114.5 61.5 q82 0 82 -110q0 -50 -16.5 -98t-54 -84t-89.5 -36q-82 0 -82 112zM376 105q0 -66 42 -66q41 0 68 57t27 137q0 63 -35 63q-41 0 -71.5 -56.5t-30.5 -134.5z" />
<glyph unicode="&#x26;" horiz-adv-x="646" d="M8 158q0 80 50 152t135 107q-61 44 -61 120q0 81 63.5 148t155.5 67q62 0 102.5 -33t40.5 -92q0 -44 -22 -74t-52 -30q-27 0 -47 27q22 8 40 32t18 60q0 72 -67 72q-51 0 -94.5 -46.5t-43.5 -125.5q0 -108 80 -124q-85 -18 -133 -84t-48 -148q0 -125 126 -125 q92 0 146 64.5t76 166.5q-9 1 -24 2.5t-27 2.5t-22 1q-66 0 -94 -45l-7 1q15 54 63 87.5t120 33.5q14 0 39 -2.5t37 -2.5q71 0 95 43h6q0 -39 -48 -77.5t-109 -43.5q-25 -132 -109 -221t-201 -89q-91 0 -137.5 50t-46.5 126z" />
<glyph unicode="'" horiz-adv-x="176" d="M93 561l61 189h85l-91 -189h-55z" />
<glyph unicode="(" horiz-adv-x="272" d="M12 100q0 131 39.5 262t115 236.5t171.5 151.5l6 -27q-75 -36 -138 -142t-98 -241.5t-35 -263.5q0 -200 80 -302l-28 -24q-113 125 -113 350z" />
<glyph unicode=")" horiz-adv-x="272" d="M-101 -223q75 36 138 142t98 241.5t35 263.5q0 200 -80 302l28 24q113 -125 113 -350q0 -131 -39.5 -262t-115 -236.5t-171.5 -151.5z" />
<glyph unicode="*" horiz-adv-x="408" d="M89 495l119 69l-119 69l24 40l116 -67v146h52v-146l116 67l24 -40l-120 -69l120 -69l-24 -40l-116 67v-146h-52v146l-116 -67z" />
<glyph unicode="+" horiz-adv-x="429" d="M15 247l16 70h141l27 122h83l-27 -122h143l-15 -70h-143l-31 -143h-83l31 143h-142z" />
<glyph unicode="," horiz-adv-x="212" d="M-18 -109q0 16 20 47.5t20 46.5q0 16 -17 31.5t-17 44.5q0 31 19.5 49t46.5 18q63 0 63 -60q0 -50 -40 -111.5t-86 -82.5q-9 6 -9 17z" />
<glyph unicode="-" horiz-adv-x="321" d="M41 231l16 70h200l-15 -70h-201z" />
<glyph unicode="." horiz-adv-x="213" d="M-12 61q0 27 19.5 47t46.5 20t47 -20t20 -47t-20 -46.5t-47 -19.5q-28 0 -47 19t-19 47z" />
<glyph unicode="/" horiz-adv-x="195" d="M-48 -250l212 1000h50l-212 -1000h-50z" />
<glyph unicode="0" horiz-adv-x="588" d="M49 249q0 139 41 252.5t117.5 181t175.5 67.5q179 0 179 -249q0 -66 -11.5 -133.5t-37.5 -135.5t-63.5 -120.5t-95 -85t-125.5 -32.5q-101 0 -140.5 67.5t-39.5 187.5zM169 220q0 -151 93 -151q57 0 104 73t72 184t25 230q0 70 -16 107t-61 37q-57 0 -108 -70.5t-80 -181 t-29 -228.5z" />
<glyph unicode="1" horiz-adv-x="309" d="M55 0l130 618h-111l14 52q108 0 234 78l-159 -748h-108z" />
<glyph unicode="2" horiz-adv-x="521" d="M2 30q0 49 26.5 99t66.5 90.5t86.5 86.5t86.5 87.5t66.5 94.5t26.5 106q0 54 -25 80t-65 26q-34 0 -62 -23t-28 -64q0 -55 38 -67q-28 -34 -59 -34q-28 0 -48.5 22.5t-20.5 63.5q0 62 47.5 106.5t146.5 44.5q190 0 190 -161q0 -58 -25.5 -111t-64.5 -91.5t-86.5 -78 t-89.5 -71t-76.5 -70t-45.5 -74.5q15 4 36 4q27 0 90.5 -9t97.5 -9q52 0 79.5 15.5t58.5 53.5q1 -17 1 -44q0 -61 -25 -87.5t-98 -26.5q-50 0 -122 18t-122 18q-10 0 -24.5 -5t-31.5 -13t-23 -10q-2 11 -2 33z" />
<glyph unicode="3" horiz-adv-x="535" d="M6 163q0 64 31 103t81 39q58 0 67 -48q-88 -5 -88 -98q0 -95 99 -95q79 0 122.5 56t43.5 128q0 66 -41 114t-122 56q94 22 147.5 76.5t53.5 111.5q0 40 -24.5 66.5t-66.5 26.5q-47 0 -75 -24.5t-28 -58.5q0 -41 39 -70q-34 -31 -67 -31q-27 0 -44 21.5t-17 58.5 q0 72 61 113t142 41q74 0 126 -38t52 -108q0 -56 -37 -107t-100 -79q64 -28 95 -75.5t31 -104.5q0 -91 -82.5 -167t-198.5 -76q-29 0 -57.5 6t-63.5 21.5t-57 52t-22 89.5z" />
<glyph unicode="4" horiz-adv-x="483" d="M9 290q13 40 55 107.5t73 135t31 131.5q0 29 -12 84q40 0 65.5 -25t25.5 -81q0 -41 -18.5 -83.5t-41.5 -72.5t-52 -69t-43 -68h187l83 386l111 15l-86 -401h84l-15 -59h-81l-62 -290h-108l62 290h-258z" />
<glyph unicode="5" horiz-adv-x="511" d="M10 142q0 61 31 100t73 39q52 0 64 -51q-38 -2 -60 -24t-22 -59q0 -44 26 -66.5t67 -22.5q76 0 118.5 59t42.5 135q0 65 -38.5 102t-103.5 37q-62 0 -129 -44l82 385q107 -16 160 -16q85 0 162 33q2 -22 2 -33q0 -100 -112 -100q-31 0 -95.5 12t-71.5 13l-45 -207 q65 31 125 31q87 0 132.5 -56t45.5 -141q0 -114 -73 -194t-215 -80q-69 0 -117.5 34t-48.5 114z" />
<glyph unicode="6" horiz-adv-x="541" d="M41 209q0 134 41 255.5t124.5 203.5t191.5 82q63 0 97.5 -24.5t34.5 -57.5q0 -26 -17 -49t-48 -23q-6 0 -24 4q18 16 18 42q0 27 -17 44.5t-42 17.5q-67 0 -127 -77t-93 -187t-33 -213q0 -84 27.5 -120.5t85.5 -36.5q69 0 111.5 68.5t42.5 137.5q0 50 -23.5 80t-58.5 30 q-37 0 -59 -18t-22 -51q0 -11 3 -25q-50 0 -50 44q0 43 38 80t102 37q73 0 111.5 -49.5t38.5 -121.5q0 -112 -75 -200t-192 -88q-105 0 -145.5 54t-40.5 161z" />
<glyph unicode="7" horiz-adv-x="497" d="M83 669q0 46 31 63t87 17q43 0 146 -12.5t149 -12.5q43 0 82 8q0 -20 -33 -67.5t-80 -109t-94.5 -131.5t-80.5 -152t-33 -153q0 -43 17 -112q-33 -16 -63 -16q-82 0 -82 134q0 55 33 120.5t79.5 123t93 110t79.5 97.5t33 70q-93 19 -181 19q-115 0 -121 -77 q-27 1 -44.5 23.5t-17.5 57.5z" />
<glyph unicode="8" horiz-adv-x="526" d="M22 189q0 73 45 137.5t129 90.5q-79 49 -79 136q0 77 59.5 137t153.5 60q77 0 122 -42.5t45 -103.5q0 -53 -35 -103.5t-99 -83.5q59 -20 87 -65.5t28 -97.5q0 -95 -76.5 -177.5t-185.5 -82.5q-90 0 -142 57t-52 138zM122 187q0 -47 25.5 -84t73.5 -37q57 0 99 53t42 115 q0 79 -93 146q-65 -21 -106 -77t-41 -116zM216 573q0 -37 18 -70.5t52 -54.5q56 31 88.5 81t32.5 96q0 35 -19 59.5t-56 24.5q-48 0 -82 -41.5t-34 -94.5z" />
<glyph unicode="9" horiz-adv-x="547" d="M56 94q0 72 73 75q-11 -11 -11 -31q0 -25 16.5 -46.5t53.5 -21.5q13 0 29 3t51 26t62.5 63t53.5 125t34 200q2 38 2 53q0 169 -100 169q-67 0 -111 -68.5t-44 -156.5q0 -19 3 -36t10.5 -37.5t25 -33t42.5 -12.5q24 0 45.5 21t33.5 58q24 -14 24 -48q0 -39 -40.5 -65 t-93.5 -26q-72 0 -108 51.5t-36 127.5q0 112 72.5 189t190.5 77q104 0 148.5 -59.5t44.5 -173.5q0 -131 -43 -250t-123.5 -195.5t-177.5 -76.5q-64 0 -95.5 28.5t-31.5 70.5z" />
<glyph unicode=":" horiz-adv-x="254" d="M25 145q0 27 19.5 47t46.5 20t47 -20t20 -47t-20 -46.5t-47 -19.5q-28 0 -47 19t-19 47zM73 386q0 27 19.5 47t46.5 20t47 -20t20 -47t-20 -46.5t-47 -19.5q-28 0 -47 19t-19 47z" />
<glyph unicode=";" horiz-adv-x="249" d="M16 -26q0 16 20 47.5t20 46.5q0 16 -17 31.5t-17 44.5q0 31 19.5 49t46.5 18t47 -18t20 -49t-39.5 -92.5t-90.5 -94.5q-9 6 -9 17zM70 386q0 27 19.5 47t46.5 20t47 -20t20 -47t-20 -46.5t-47 -19.5q-28 0 -47 19t-19 47z" />
<glyph unicode="&#x3c;" horiz-adv-x="358" d="M7 238l9 41l307 150l-10 -55l-241 -120l194 -96l-12 -57z" />
<glyph unicode="=" horiz-adv-x="472" d="M27 133l17 80h340l-16 -80h-341zM64 316l17 80h340l-16 -80h-341z" />
<glyph unicode="&#x3e;" horiz-adv-x="362" d="M11 101l14 57l240 96l-194 120l9 55l246 -150l-11 -54z" />
<glyph unicode="?" horiz-adv-x="418" d="M73 539q0 60 53.5 110.5t156.5 50.5q79 0 119.5 -34t40.5 -87q0 -48 -22 -87.5t-55 -68t-67.5 -55t-64.5 -61.5t-41 -75h-46q0 39 21 74t50.5 63.5t59 57.5t50.5 67.5t21 82.5q0 40 -24 59.5t-61 19.5q-42 0 -76 -26.5t-34 -66.5q0 -21 17 -41t51 -25q-26 -42 -73 -42 q-31 0 -53.5 22t-22.5 62zM80 66q0 27 19.5 47t46.5 20t47 -20t20 -47t-20 -46.5t-47 -19.5q-28 0 -47 19t-19 47z" />
<glyph unicode="@" horiz-adv-x="549" d="M16 164q0 163 100.5 278t240.5 115q27 0 51 -5.5t50 -20.5t41.5 -48.5t15.5 -82.5q0 -100 -51.5 -182t-122.5 -82q-34 0 -49 25q-25 -41 -65 -41q-28 0 -45.5 22.5t-17.5 65.5q0 71 42 147.5t93 76.5q26 0 39 -17l4 15l55 -6l-45 -192q-7 -28 -7 -36q0 -20 15 -20 q38 0 72.5 73.5t34.5 141.5q0 53 -26.5 88t-86.5 35q-73 0 -134 -53.5t-92.5 -128.5t-31.5 -148q0 -151 153 -151q52 0 93.5 22.5t58.5 58.5q23 -10 23 -43q0 -48 -56 -78.5t-148 -30.5q-38 0 -72 10.5t-65 32.5t-49 63t-18 96zM216 224q0 -19 7 -35.5t23 -16.5q22 0 38 25 q0 10 3 19l43 168q-9 15 -21 15q-36 0 -64.5 -64t-28.5 -111z" />
<glyph unicode="A" horiz-adv-x="603" d="M-39 338q0 53 61 84.5t152 31.5q13 0 41 -2q83 132 175 215t177 83q43 0 77 -14l-157 -736h-109l76 359q-69 38 -179 50q-60 -119 -97.5 -243.5t-37.5 -211.5q0 -40 9 -68q-113 0 -113 106q0 70 43 186.5t112 234.5q-62 -2 -104 -19t-42 -43q20 -7 20 -25q0 -40 -49 -40 q-55 0 -55 52zM292 442q102 -17 168 -52l66 311q-50 -2 -112.5 -74t-121.5 -185z" />
<glyph unicode="B" horiz-adv-x="679" d="M56 485q0 103 110.5 184t252.5 81q104 0 158.5 -46t54.5 -113q0 -46 -27 -89.5t-75 -70.5q56 -12 88 -57t32 -103q0 -40 -11.5 -86t-35 -93t-68.5 -78t-104 -31q-46 0 -73.5 18t-27.5 51q0 25 13 51q21 -39 70 -39q41 0 68.5 33t38 75t10.5 87q0 65 -24.5 100t-89.5 35 q-12 0 -56 -4l-83 -390h-110l138 641l112 15l-48 -226h18q66 0 115 53.5t49 112.5q0 50 -39.5 84t-112.5 34q-102 0 -181 -66.5t-79 -186.5q0 -26 14 -68q-97 0 -97 92z" />
<glyph unicode="C" horiz-adv-x="506" d="M45 229q0 59 10.5 124t37 137t65 129t101 94t139.5 37q73 0 118 -33t45 -103q0 -90 -70 -90q-29 0 -42 18q15 9 29 40t14 65q0 33 -19.5 50t-54.5 17q-57 0 -106 -45.5t-80 -116t-48.5 -152.5t-17.5 -159q0 -40 5.5 -68.5t21 -56t48 -42t81.5 -14.5q67 0 115.5 29 t88.5 91l23 -10q-39 -88 -121 -137t-177 -49q-206 0 -206 245z" />
<glyph unicode="D" horiz-adv-x="704" d="M56 486q0 103 110.5 183.5t257.5 80.5q95 0 157.5 -40t88 -103.5t25.5 -150.5q0 -108 -41 -217.5t-106.5 -180.5t-131.5 -71q-61 0 -126 58l-9 -45h-110l138 641l112 15l-124 -578q32 -26 65 -26q53 0 96 44t69 113t39.5 145.5t13.5 147.5q0 115 -43 163.5t-134 48.5 q-109 0 -191.5 -68.5t-82.5 -181.5q0 -43 34 -71q-107 0 -107 93z" />
<glyph unicode="E" horiz-adv-x="447" d="M12 158q0 80 50 152t135 107q-61 44 -61 120q0 81 63.5 148t155.5 67q62 0 102.5 -33t40.5 -92q0 -44 -22 -74t-52 -30q-27 0 -47 27q22 8 40 32t18 60q0 72 -67 72q-51 0 -94.5 -46.5t-43.5 -125.5q0 -108 80 -124q-85 -18 -133 -84t-48 -148q0 -125 126 -125 q67 0 124 34.5t87 84.5l23 -10q-38 -86 -119.5 -137t-173.5 -51q-91 0 -137.5 50t-46.5 126z" />
<glyph unicode="F" horiz-adv-x="554" d="M62 494q0 105 84.5 180.5t242.5 75.5q35 0 90.5 -6t88.5 -6q54 0 91 12q-16 -63 -43 -83.5t-68 -20.5q-43 0 -129 18l-49 -229h149l-14 -59h-148l-80 -376h-110l147 682q-7 1 -20 1q-159 0 -159 -213q0 -58 19 -77q-47 0 -69.5 23t-22.5 78z" />
<glyph unicode="G" horiz-adv-x="591" d="M50 357q0 103 43 192t126 145t190 56q80 0 134 -33t54 -105q0 -39 -17 -63.5t-53 -24.5q-47 0 -69 26q6 0 18 6t26 27.5t14 52.5q0 78 -80 78q-108 0 -187 -112t-79 -248q0 -80 30.5 -127.5t87.5 -47.5q126 0 192 240l97 -1l-82 -376q-26 -122 -83 -185.5t-157 -63.5 q-82 0 -118.5 39t-36.5 98q0 58 33 98t101 40q86 0 86 -67q0 -17 -6 -40q-28 37 -69 37q-31 0 -54 -23.5t-23 -60.5q0 -36 23 -59t58 -23q39 0 72 31.5t49 102.5l51 233q-68 -90 -173 -90q-90 0 -144 66t-54 182z" />
<glyph unicode="H" horiz-adv-x="697" d="M58 485q0 103 100 184t216 81q15 0 41 -2l-67 -313h215l61 282l116 31l-159 -748h-110l80 376h-215l-80 -376h-110l149 698q-73 -25 -117 -88t-44 -148q0 -56 24 -69q-100 0 -100 92z" />
<glyph unicode="I" horiz-adv-x="404" d="M56 485q0 68 53 130t134 98.5t163 36.5q15 0 41 -2l-159 -748h-110l147 692q-85 -22 -135.5 -80t-50.5 -143q0 -50 24 -76q-107 0 -107 92z" />
<glyph unicode="J" horiz-adv-x="440" d="M-72 -72q0 61 34.5 100.5t104.5 39.5q78 0 78 -67q0 -6 -9 -40q-9 15 -27 25t-32 10q-34 0 -56 -26.5t-22 -57.5q0 -33 23.5 -56t56.5 -23q36 0 74 32t53 101l154 726q-87 -19 -136 -79.5t-49 -141.5q0 -56 24 -78q-107 0 -107 92q0 68 53 130t134 98.5t164 36.5h40 l-150 -710q-52 -247 -250 -247q-81 0 -118 37t-37 98z" />
<glyph unicode="K" horiz-adv-x="647" d="M56 485q0 68 53 130t134 98.5t163 36.5q15 0 41 -2l-69 -323l248 320h88l-292 -321q34 2 43 2q130 0 130 -108q0 -43 -24.5 -132.5t-24.5 -117.5q0 -53 39 -68q-59 -17 -89 -17q-35 0 -53 19.5t-18 45.5q0 35 29 128.5t29 130.5q0 81 -73 81q-18 0 -41 -5l-81 -383h-110 l148 692q-88 -22 -140.5 -80t-52.5 -143q0 -53 21 -76q-98 0 -98 92z" />
<glyph unicode="L" horiz-adv-x="448" d="M54 475q0 68 53 130t134 98.5t163 36.5q15 0 41 -2l-154 -719q35 -9 88 -39.5t106 -54.5t103 -24q46 0 83 16q-17 -133 -111 -133q-35 0 -81 30.5t-85.5 66.5t-94 66.5t-102.5 30.5q-15 0 -23 -1l150 705q-86 -22 -136.5 -80t-50.5 -143q0 -50 24 -76q-107 0 -107 92z " />
<glyph unicode="M" horiz-adv-x="750" d="M57 0l259 700q-83 -18 -128.5 -80.5t-45.5 -157.5q0 -51 14 -69q-97 0 -97 90q0 65 51.5 128.5t122.5 101t131 37.5q37 0 59 -14l-26 -581l243 581h114l-105 -736h-114l74 522l-218 -522h-107l23 512l-190 -512h-60z" />
<glyph unicode="N" horiz-adv-x="712" d="M60 490q0 94 84.5 177t194.5 83q38 0 67 -14l137 -622l139 634h77l-170 -748h-128l-126 539l-124 -539h-75l157 691q-75 -22 -117.5 -77.5t-42.5 -144.5q0 -45 24 -76q-49 0 -73 22.5t-24 74.5z" />
<glyph unicode="O" horiz-adv-x="697" d="M54 477q0 68 56.5 132t149.5 102.5t192 38.5q242 0 242 -253q0 -61 -13 -127.5t-42 -134t-70.5 -121t-104 -87t-136.5 -33.5q-182 0 -182 201q0 64 17.5 142t49.5 152.5t86.5 124.5t118.5 50q27 0 51 -8q-76 -40 -139.5 -192t-63.5 -273t88 -121q53 0 106.5 70t87 180 t33.5 219q0 95 -33.5 135t-119.5 40q-117 0 -205 -74t-88 -192q0 -42 10 -55q-91 0 -91 84z" />
<glyph unicode="P" horiz-adv-x="601" d="M56 485q0 104 111.5 184.5t246.5 80.5q110 0 169.5 -57.5t59.5 -140.5q0 -101 -80.5 -184t-208.5 -83h-22l-61 -285h-110l138 641l112 15l-73 -340q68 1 118.5 42t73 97t22.5 117q0 142 -161 142q-108 0 -183.5 -67.5t-75.5 -183.5q0 -45 21 -70q-97 0 -97 92z" />
<glyph unicode="Q" horiz-adv-x="713" d="M54 476q0 69 57 133t148.5 102.5t188.5 38.5q128 0 186 -68.5t58 -183.5q0 -119 -52.5 -248.5t-146.5 -198.5q29 -39 58.5 -59.5t74.5 -20.5q8 0 24 2q-29 -64 -90 -64q-51 0 -77.5 27.5t-48.5 79.5q-53 -22 -110 -22q-83 0 -130.5 48.5t-47.5 152.5q0 64 17.5 142 t49.5 152.5t86.5 124.5t118.5 50q27 0 51 -8q-76 -40 -139.5 -191.5t-63.5 -270.5q0 -36 5 -56q41 12 77 12q51 0 90 -34q61 62 102 180.5t41 240.5q0 96 -33 136.5t-116 40.5q-122 0 -209.5 -73.5t-87.5 -200.5q0 -36 10 -47q-91 0 -91 83zM282 109q20 -39 63 -39 q27 0 53 15q-25 35 -65 35q-25 0 -51 -11z" />
<glyph unicode="R" horiz-adv-x="655" d="M56 485q0 103 110.5 184t249.5 81q102 0 160 -46.5t58 -114.5q0 -48 -30.5 -94.5t-84.5 -74.5q76 -17 76 -102q0 -43 -24.5 -132.5t-24.5 -117.5q0 -53 39 -68q-59 -17 -89 -17q-35 0 -53 19.5t-18 45.5q0 35 29 128.5t29 130.5q0 81 -73 81q-28 0 -58 -7l-81 -381h-110 l138 641l112 15l-50 -233h26q67 0 114.5 57t47.5 122q0 112 -146 112q-111 0 -187.5 -69t-76.5 -184q0 -50 12 -68q-40 0 -67.5 22.5t-27.5 69.5z" />
<glyph unicode="S" horiz-adv-x="496" d="M-1 150q0 76 45.5 120.5t96.5 44.5q62 0 73 -66q-47 0 -83 -24.5t-36 -74.5q0 -46 30 -73.5t72 -27.5q52 0 92 37.5t40 105.5q0 47 -21 90t-51.5 76t-60.5 64.5t-51 70t-21 78.5q0 77 66.5 128t162.5 51q23 0 44.5 -3.5t48.5 -14.5t43.5 -36.5t16.5 -63.5q0 -45 -23 -74 t-56 -29q-23 0 -39 21q20 12 33 36.5t13 51.5q0 33 -19.5 54.5t-63.5 21.5q-56 0 -89 -27.5t-33 -76.5q0 -35 16.5 -65t41.5 -51t54.5 -48t54.5 -54t41.5 -71t16.5 -97q0 -117 -71.5 -179.5t-178.5 -62.5q-86 0 -145.5 41.5t-59.5 126.5z" />
<glyph unicode="T" horiz-adv-x="671" d="M62 495q0 50 19 93.5t58.5 80.5t108.5 58.5t160 21.5q56 0 131 -11.5t114 -11.5q70 0 122 21q-3 -117 -128 -117q-40 0 -159 23l-139 -653h-110l144 670q-26 2 -39 2q-107 0 -159 -43.5t-52 -152.5q0 -55 20 -84q-91 0 -91 103z" />
<glyph unicode="U" horiz-adv-x="770" d="M55 485q0 68 53 130t136 98.5t169 36.5q22 0 48 -5q-16 -58 -36.5 -134t-31 -115t-24 -89.5t-20 -78t-13 -58.5t-8.5 -51.5t-2 -39.5q0 -57 17.5 -83t71.5 -26q40 0 67 12t55 49.5t53 112t51 195.5l67 309h108l-66 -312q-21 -100 -39.5 -164t-45.5 -122t-61.5 -89.5 t-84 -49.5t-116.5 -18q-105 0 -149 40t-44 122q0 27 3.5 58t14.5 81t16 73.5t24.5 99t23.5 93.5l36 147q-93 -18 -147 -83t-54 -161q0 -14 1 -25t3 -18t4 -11.5l4 -9t3 -5.5q-37 0 -62 23.5t-25 67.5z" />
<glyph unicode="V" horiz-adv-x="660" d="M59 485q0 109 86.5 187t222.5 78q16 0 42 -4l17 -666l255 665h57l-301 -745h-111l-27 693q-87 0 -131 -62t-44 -146q0 -52 21 -91q-87 0 -87 91z" />
<glyph unicode="W" horiz-adv-x="1006" d="M59 485q0 109 86.5 187t222.5 78q16 0 42 -4l17 -666l255 665h74l17 -665l255 665h57l-301 -745h-111l-19 534l-216 -534h-111l-27 693q-87 0 -131 -62t-44 -146q0 -52 21 -91q-87 0 -87 91z" />
<glyph unicode="X" horiz-adv-x="633" d="M60 485q0 114 91.5 190t207.5 76q21 0 41 -3l83 -341l163 338h47l-196 -397l85 -348h-108l-77 306l-160 -306h-47l192 365l-87 349q-70 -18 -118.5 -87t-48.5 -151q0 -52 16 -73q-42 0 -63 17.5t-21 64.5z" />
<glyph unicode="Y" horiz-adv-x="614" d="M59 485q0 107 88 186t211 79q15 0 41 -2l94 -389l161 386h46l-194 -437l-66 -308h-109l66 308l-104 406q-84 -22 -127.5 -87t-43.5 -139q0 -58 24 -95q-87 0 -87 92z" />
<glyph unicode="Z" horiz-adv-x="528" d="M4 0l354 705q-75 5 -93 5q-83 0 -89 -20q16 -13 16 -33q0 -19 -15 -34.5t-38 -15.5q-22 0 -38.5 16.5t-16.5 44.5q0 32 36 57t90 25h291l-351 -697q13 0 58.5 -1.5t72.5 -1.5q105 0 119 21q-17 13 -17 33q0 22 16.5 35.5t39.5 13.5q21 0 37.5 -13t16.5 -35 q0 -39 -37.5 -72t-90.5 -33h-361z" />
<glyph unicode="[" horiz-adv-x="287" d="M-48 -250l212 1000h193l-13 -62h-121l-186 -876h121l-13 -62h-193z" />
<glyph unicode="\" horiz-adv-x="504" d="M106 750h50l212 -1000h-50z" />
<glyph unicode="]" horiz-adv-x="286" d="M-100 -250l13 62h121l186 876h-121l13 62h193l-212 -1000h-193z" />
<glyph unicode="^" horiz-adv-x="421" d="M55 561l201 167h21l61 -167h-22l-65 101l-162 -101h-34z" />
<glyph unicode="_" horiz-adv-x="441" d="M-22 0l16 70h350l-15 -70h-351z" />
<glyph unicode="`" horiz-adv-x="201" d="M31 750h85l31 -189h-55z" />
<glyph unicode="a" d="M5 155q0 53 17 112t47.5 113t81 89.5t110.5 35.5q69 0 82 -53l10 48h101l-73 -340q-5 -20 -5 -45q0 -45 31 -45q49 0 95 109h37q-23 -59 -47.5 -98.5t-48 -57t-41 -23.5t-37.5 -6q-73 0 -80 98q-24 -43 -65 -70.5t-87 -27.5q-54 0 -91 39.5t-37 121.5zM112 169 q0 -99 63 -99q33 0 67 32.5t43 76.5l48 227q-3 18 -16 31t-34 13q-51 0 -92 -50.5t-60 -113.5t-19 -117z" />
<glyph unicode="b" horiz-adv-x="418" d="M9 107q0 32 8 72l109 507l102 14l-51 -237q45 39 94 39q59 0 96.5 -34t37.5 -129q0 -79 -34 -157.5t-99.5 -133t-144.5 -54.5q-57 0 -87.5 25.5t-30.5 87.5zM105 115q0 -52 50 -52q65 0 111.5 82.5t46.5 182.5q0 122 -72 122q-31 0 -72 -34l-59 -263q-5 -23 -5 -38z" />
<glyph unicode="c" horiz-adv-x="364" d="M8 155q0 47 14 103t42.5 113.5t81.5 95.5t121 38q105 0 105 -95q0 -36 -14 -60t-39 -24q-22 0 -33 21q12 8 21 28t9 37q0 18 -11.5 29t-33.5 11q-44 0 -81 -48t-55 -112t-18 -123q0 -53 20 -76t68 -23q111 0 176 109h34q-42 -79 -112.5 -132t-146.5 -53q-64 0 -106 39.5 t-42 121.5z" />
<glyph unicode="d" d="M5 155q0 53 17 112t47.5 113t81 89.5t110.5 35.5q69 0 82 -54l50 235l104 14l-116 -540q-5 -20 -5 -45q0 -45 31 -45q49 0 95 109h37q-23 -59 -47.5 -98.5t-48 -57t-41 -23.5t-37.5 -6q-73 0 -80 98q-24 -43 -65 -70.5t-87 -27.5q-54 0 -91 39.5t-37 121.5zM112 169 q0 -99 63 -99q33 0 67 32.5t43 76.5l48 227q-3 18 -15.5 31t-34.5 13q-51 0 -92 -50.5t-60 -113.5t-19 -117z" />
<glyph unicode="e" horiz-adv-x="368" d="M8 154q0 36 8.5 80t28 92.5t47.5 87.5t72.5 65t96.5 26q107 0 107 -103q0 -84 -66.5 -137t-183.5 -65q-1 -11 -1 -31q0 -52 20 -75.5t67 -23.5q108 0 181 109h32q-42 -78 -113 -131.5t-148 -53.5q-63 0 -105.5 39.5t-42.5 120.5zM123 239q84 13 134 59.5t50 113.5 q0 44 -37 44q-52 0 -92 -65.5t-55 -151.5z" />
<glyph unicode="f" horiz-adv-x="239" d="M-184 -160q0 82 160 147l122 574q8 36 18 63.5t30 59t54 48.5t80 17q55 0 85 -32.5t30 -82.5q0 -18 -3 -34h-40q3 10 3 24q0 26 -13 44t-38 18q-49 0 -71.5 -33t-37.5 -105l-10 -48h80l-7 -35h-81l-115 -545q-21 -101 -52 -135.5t-84 -34.5q-49 0 -79.5 22t-30.5 68z M-145 -159q0 -17 10 -28t27 -11q26 0 41 29t28 87l7 32q-54 -24 -83.5 -53t-29.5 -56z" />
<glyph unicode="g" d="M5 177q0 49 17 104.5t47.5 106t81 84t110.5 33.5q69 0 82 -53l10 48h100l-102 -480q58 18 92.5 52.5t58.5 106.5h37q-33 -98 -76.5 -137.5t-119.5 -57.5l-13 -64q-21 -101 -52 -135.5t-84 -34.5q-49 0 -79.5 22t-30.5 68q0 45 46.5 82.5t113.5 64.5l19 92 q-58 -63 -130 -63q-54 0 -91 39.5t-37 121.5zM112 191q0 -99 63 -99q30 0 64.5 28t46.5 68l47 219q-3 18 -16 30.5t-34 12.5q-51 0 -92 -46.5t-60 -104.5t-19 -108zM123 -159q0 -17 10 -28t27 -11q26 0 41 29t28 87l7 32q-54 -24 -83.5 -52.5t-29.5 -56.5z" />
<glyph unicode="h" horiz-adv-x="467" d="M-22 0l147 686l103 14l-59 -275q59 80 136 80q103 0 103 -113q0 -46 -24 -140t-24 -133q0 -49 30 -49q47 0 94 109h37q-23 -60 -47.5 -99.5t-47.5 -56.5t-40 -23t-36 -6q-49 0 -72.5 31t-23.5 82q0 46 24 140t24 127q0 55 -44 55q-64 0 -111 -107l-69 -322h-100z" />
<glyph unicode="i" horiz-adv-x="217" d="M8 105q0 31 9 74l68 321h101l-73 -340q-5 -20 -5 -45q0 -45 31 -45q49 0 95 109h37q-23 -59 -47.5 -98.5t-48 -57t-41 -23.5t-37.5 -6q-89 0 -89 111zM93 644q0 27 19.5 47t46.5 20t47 -20t20 -47t-20 -46.5t-47 -19.5q-28 0 -47 19t-19 47z" />
<glyph unicode="j" horiz-adv-x="217" d="M-184 -160q0 82 160 147l109 513h100l-102 -480q58 18 92.5 52.5t58.5 106.5h37q-33 -98 -76.5 -137.5t-119.5 -57.5l-13 -64q-21 -101 -52 -135.5t-84 -34.5q-49 0 -79.5 22t-30.5 68zM-145 -159q0 -17 10 -28t27 -11q26 0 41 29t28 87l7 32q-54 -24 -83.5 -53 t-29.5 -56zM93 644q0 27 19.5 47t46.5 20t47 -20t20 -47t-20 -46.5t-47 -19.5q-28 0 -47 19t-19 47z" />
<glyph unicode="k" horiz-adv-x="457" d="M-22 0l147 686l103 14l-78 -362l206 162h97l-197 -136q2 0 7 0.5t8 0.5q101 0 101 -113q0 -25 -11 -70t-11 -63q0 -49 30 -49q47 0 94 109h37q-23 -60 -47.5 -99.5t-47.5 -56.5t-40 -23t-36 -6q-49 0 -72.5 31t-23.5 82q0 23 11 68t11 59q0 55 -42 55q-57 0 -101 -77 l-45 -212h-100z" />
<glyph unicode="l" horiz-adv-x="216" d="M7 105q0 31 9 74l109 507l104 14l-117 -540q-5 -20 -5 -45q0 -45 31 -45q49 0 95 109h37q-23 -59 -47.5 -98.5t-48 -57t-41 -23.5t-37.5 -6q-89 0 -89 111z" />
<glyph unicode="m" horiz-adv-x="693" d="M-22 0l106 500h101l-14 -64q53 69 124 69q89 0 101 -84q56 84 135 84q103 0 103 -113q0 -46 -24 -140t-24 -133q0 -49 30 -49q47 0 94 109h37q-23 -60 -47.5 -99.5t-47.5 -56.5t-40 -23t-36 -6q-49 0 -72.5 31t-23.5 82q0 46 24 140t24 127q0 55 -44 55q-31 0 -53.5 -25 t-47.5 -82l-69 -322h-101l71 334q5 23 5 45q0 50 -41 50q-30 0 -53 -25.5t-48 -81.5l-69 -322h-100z" />
<glyph unicode="n" horiz-adv-x="467" d="M-22 0l106 500h101l-16 -75q59 80 136 80q103 0 103 -113q0 -46 -24 -140t-24 -133q0 -49 30 -49q47 0 94 109h37q-23 -60 -47.5 -99.5t-47.5 -56.5t-40 -23t-36 -6q-49 0 -72.5 31t-23.5 82q0 46 24 140t24 127q0 55 -44 55q-62 0 -111 -107l-69 -322h-100z" />
<glyph unicode="o" horiz-adv-x="419" d="M8 152q0 38 7 81t26 92.5t47.5 88.5t75.5 65t106 26q111 0 113 -158q89 0 164 60l9 -27q-58 -67 -175 -82q-9 -133 -68 -218.5t-149 -85.5q-70 0 -113 38.5t-43 119.5zM118 170q0 -53 19 -76.5t65 -23.5t83 61t47 164q-40 0 -40 41q0 46 43 51q-7 63 -60 63 q-47 0 -84.5 -50t-55 -113t-17.5 -117z" />
<glyph unicode="p" horiz-adv-x="423" d="M-75 -250l167 787h101l-17 -77q52 45 113 45q120 0 120 -167q0 -42 -7 -85.5t-24.5 -91t-44 -84t-69.5 -60t-96 -23.5q-50 0 -80 49l-57 -268zM98 93q21 -35 54 -35q42 0 74.5 29.5t49.5 75t25.5 90t8.5 83.5q0 55 -20 79.5t-49 24.5q-44 0 -79 -49z" />
<glyph unicode="q" horiz-adv-x="445" d="M5 155q0 53 17 112t47.5 113t81 89.5t110.5 35.5q67 0 81 -51l10 46h101l-154 -725l-106 -25l64 303q-54 -59 -124 -59q-54 0 -91 39.5t-37 121.5zM112 169q0 -99 63 -99q29 0 60.5 27t44.5 66l52 246q-3 17 -16 29t-33 12q-51 0 -92 -50.5t-60 -113.5t-19 -117z" />
<glyph unicode="r" horiz-adv-x="336" d="M-22 0l106 500h101l-18 -82q25 28 40.5 42.5t41.5 29.5t52 15q56 0 56 -47q0 -34 -19.5 -49.5t-38.5 -15.5q-11 0 -23 12.5t-27 12.5q-35 0 -92 -49l-79 -369h-100z" />
<glyph unicode="s" horiz-adv-x="342" d="M-15 122q0 33 15.5 57.5t37.5 35.5q67 118 123 296l105 20q6 -109 12 -188.5t9.5 -114.5t3.5 -61q0 -14 -2 -34q34 19 70 46h42q-53 -58 -132 -106q-22 -40 -60.5 -59.5t-77.5 -19.5q-71 0 -108.5 38.5t-37.5 89.5zM34 143q0 -74 65 -74q87 0 87 97q0 25 -7.5 95.5 t-13.5 162.5q-25 -101 -80 -212q14 -11 14 -33q0 -23 -12.5 -36.5t-28.5 -13.5t-24 14z" />
<glyph unicode="t" horiz-adv-x="236" d="M7 106q0 28 9 73l61 286h-33l7 35h33l30 138l104 14l-33 -152h77l-7 -35h-78l-65 -305q-7 -38 -7 -43q0 -47 38 -47q27 0 56 29t54 80h37q-87 -185 -189 -185q-94 0 -94 112z" />
<glyph unicode="u" horiz-adv-x="454" d="M10 128q0 24 6 51l68 321h101l-73 -340q-4 -16 -4 -33q0 -28 12.5 -42.5t32.5 -14.5q31 0 61 30t40 79l68 321h101l-73 -340q-5 -20 -5 -45q0 -45 31 -45q49 0 95 109h37q-23 -59 -47.5 -98.5t-48 -57t-41 -23.5t-37.5 -6q-73 0 -80 96q-27 -48 -62.5 -72t-71.5 -24 q-46 0 -78 36.5t-32 97.5z" />
<glyph unicode="v" horiz-adv-x="399" d="M7 112q0 24 5 48l72 340h100l-72 -340q-4 -16 -4 -33q0 -57 43 -57q39 0 74 39.5t56 97t33.5 116.5t12.5 102q-9 -8 -35 -8q-14 0 -22 12.5t-8 30.5q0 22 14 40t37 18q32 0 49.5 -22t17.5 -63q0 -65 -19 -140.5t-51 -142.5t-80 -111.5t-100 -44.5q-58 0 -90.5 30 t-32.5 88z" />
<glyph unicode="w" horiz-adv-x="623" d="M10 128q0 24 6 51l68 321h101l-73 -340q-4 -16 -4 -33q0 -28 12.5 -42.5t32.5 -14.5q31 0 61 30t40 79l68 321h100l-72 -340q-4 -16 -4 -33q0 -57 43 -57q52 0 92.5 69t58 148t17.5 138q-9 -8 -35 -8q-14 0 -22 12.5t-8 30.5q0 22 14 40t37 18q63 0 63 -85 q0 -91 -30 -191t-86.5 -174t-121.5 -74q-104 0 -120 85q-55 -85 -128 -85q-46 0 -78 36.5t-32 97.5z" />
<glyph unicode="x" horiz-adv-x="498" d="M15 177q10 25 29 74.5t30 77.5t31 66.5t38.5 59t46 35.5t59.5 15q60 0 78 -119l16 -110q111 125 114 183q-12 -2 -17 -2q-45 0 -45 56q0 44 53 44q56 0 56 -77q0 -51 -34 -107t-119 -149l7 -46q8 -55 20.5 -81.5t36.5 -26.5q28 0 58.5 33.5t42.5 72.5h30 q-15 -55 -38 -93.5t-49.5 -56.5t-49.5 -25t-47 -7q-80 0 -107 179l-142 -173h-68l202 223l-16 117q-13 90 -38 90q-57 0 -141 -253h-37z" />
<glyph unicode="y" horiz-adv-x="454" d="M10 128q0 24 6 51l68 321h101l-73 -340q-4 -16 -4 -33q0 -28 12.5 -42.5t32.5 -14.5q31 0 61 30t40 79l68 321h100l-102 -480q58 18 92.5 52.5t58.5 106.5h37q-33 -98 -76.5 -137.5t-119.5 -57.5l-13 -64q-21 -101 -52 -135.5t-84 -34.5q-49 0 -79.5 22t-30.5 68 q0 45 46.5 82.5t113.5 64.5l13 63q-47 -56 -106 -56q-46 0 -78 36.5t-32 97.5zM92 -159q0 -17 10 -28t27 -11q26 0 41 29t28 87l7 32q-54 -24 -83.5 -52.5t-29.5 -56.5z" />
<glyph unicode="z" horiz-adv-x="414" d="M17 0l255 446h-76q-60 0 -60 -16q0 -6 5 -14t5 -14q0 -11 -16 -22t-35 -11q-43 0 -43 59q0 72 116 72h238l-249 -430q102 -6 118 -6q38 0 45 21q-13 5 -13 21q0 17 15 27.5t34 10.5q20 0 33 -12.5t13 -37.5q0 -34 -39 -64t-94 -30h-252z" />
<glyph unicode="{" horiz-adv-x="269" d="M-6 -140q0 57 45.5 172.5t45.5 164.5q0 31 -41 31q-12 0 -32 -3l12 57q18 -3 31 -3q23 0 37.5 10t20.5 29t7.5 34t1.5 38q0 28 -3.5 81t-3.5 78q0 43 14 86.5t52.5 79t93.5 35.5h43l-9 -50q-36 0 -56 -4.5t-35 -21.5q-46 -51 -46 -138q0 -28 3 -85t3 -86q0 -78 -40 -111 q12 -14 12 -36q0 -43 -45 -167t-45 -175q0 -23 2 -34.5t9.5 -23.5t25.5 -17t48 -5l-9 -45h-29q-55 0 -84 29.5t-29 79.5z" />
<glyph unicode="|" horiz-adv-x="274" d="M95 -250v1001h53v-1001h-53z" />
<glyph unicode="}" horiz-adv-x="267" d="M-80 -249l9 50q36 0 56 4.5t35 21.5q46 51 46 138q0 29 -3 86t-3 85q0 78 40 111q-12 14 -12 36q0 43 45 167t45 175q0 23 -2 34.5t-9.5 23.5t-25.5 17t-48 5l9 45h29q55 0 84 -29t29 -80q0 -57 -45.5 -172.5t-45.5 -164.5q0 -31 41 -31q13 0 32 3l-12 -57q-18 3 -31 3 q-23 0 -37.5 -10t-20.5 -29t-7.5 -34t-1.5 -38q0 -28 3.5 -81t3.5 -78q0 -43 -14 -86.5t-52.5 -79t-93.5 -35.5h-43z" />
<glyph unicode="~" horiz-adv-x="405" d="M90 592q44 88 150 88q35 0 80 -14.5t69 -14.5q37 0 57 20h5q-8 -33 -51.5 -61.5t-93.5 -28.5q-31 0 -79.5 16.5t-71.5 16.5q-35 0 -60 -24z" />
<glyph unicode="&#xa1;" horiz-adv-x="230" d="M-56 -248l130 469h53l-71 -469h-112zM59 386q0 27 20 46.5t47 19.5q28 0 47 -19t19 -47q0 -27 -19.5 -47t-46.5 -20t-47 20t-20 47z" />
<glyph unicode="&#xa2;" horiz-adv-x="376" d="M31 287q0 39 10.5 85.5t33 95.5t65 85.5t98.5 45.5l22 119h58l-26 -117q40 -4 63.5 -25t23.5 -59q0 -33 -12.5 -54.5t-35.5 -21.5q-18 0 -30 19q11 7 19 25t8 34q0 14 -13.5 26.5t-31.5 13.5l-77 -348h9q60 0 114 44q-7 -53 -48.5 -79.5t-89.5 -31.5l-38 -171h-27l30 170 q-54 5 -89.5 40.5t-35.5 103.5zM129 301q0 -66 41 -83l58 325q-45 -30 -72 -103t-27 -139z" />
<glyph unicode="&#xa3;" horiz-adv-x="466" d="M22 0l88 365h-6q-34 0 -60 -24l-5 2q28 55 85 77l72 299l102 22l-76 -313q17 -3 54.5 -14.5t61.5 -11.5q37 0 57 20h5q-8 -33 -51.5 -61.5t-93.5 -28.5q-28 0 -55 8l-69 -282q33 10 77.5 10t90.5 8.5t102 41.5q-6 -54 -28.5 -86t-55.5 -32h-295z" />
<glyph unicode="&#xa4;" horiz-adv-x="479" d="M59 492l38 36l56 -56q41 30 91 30q49 0 89 -29l56 56l36 -36l-55 -55q30 -41 30 -92q0 -50 -30 -91l55 -55l-36 -36l-55 55q-40 -29 -90 -29q-51 0 -92 30l-56 -56l-36 36l56 56q-29 40 -29 89q0 50 29 90zM128 346q0 -48 34 -82t82 -34t82 34t34 82t-34 82t-82 34 t-82 -34t-34 -82z" />
<glyph unicode="&#xa5;" horiz-adv-x="522" d="M60 157l10 35h126l17 80h-128l10 35h126l-112 438h114l94 -386l161 386h46l-194 -438h152l-10 -35h-150l-17 -80h152l-10 -35h-150l-33 -157h-109l33 157h-128z" />
<glyph unicode="&#xa6;" horiz-adv-x="278" d="M97 222h53v-472h-53v472zM97 301v450h53v-450h-53z" />
<glyph unicode="&#xa7;" horiz-adv-x="520" d="M-10 76q0 54 27.5 89t66.5 35q22 0 37 -12t31 -34q-40 -3 -59 -21.5t-19 -55.5q0 -46 25 -69.5t63 -23.5q43 0 77.5 28.5t34.5 86.5q0 36 -15.5 66t-39 50t-50.5 42t-50.5 40.5t-39 45.5t-15.5 58q0 45 29 80.5t76 54.5q-6 19 -6 44q0 81 64.5 125.5t149.5 44.5 q19 0 36.5 -3t40.5 -11.5t37 -30t14 -53.5q0 -33 -15.5 -55.5t-41.5 -22.5q-21 0 -36 16q16 10 26 29.5t10 40.5q0 27 -17 45t-52 18q-50 0 -85.5 -35.5t-35.5 -81.5q0 -34 23.5 -62.5t57 -50.5t67 -46.5t57 -61.5t23.5 -84q0 -58 -31.5 -105.5t-84.5 -58.5v-6 q0 -84 -58 -134.5t-158 -50.5q-27 0 -51 4.5t-52 16.5t-44.5 40t-16.5 69zM140 452q0 -24 20.5 -48t51 -46.5t62 -47.5t58 -61t34.5 -78q47 21 47 79q0 40 -28.5 74.5t-65 56.5t-77.5 55.5t-60 67.5q-42 -18 -42 -52z" />
<glyph unicode="&#xa8;" horiz-adv-x="392" d="M72 642q0 22 15 37.5t37 15.5t37.5 -15.5t15.5 -37.5t-15.5 -37t-37.5 -15t-37 15t-15 37zM236 642q0 22 15 37.5t37 15.5t37.5 -15.5t15.5 -37.5t-15.5 -37t-37.5 -15t-37 15t-15 37z" />
<glyph unicode="&#xa9;" horiz-adv-x="564" d="M42 331q0 107 71 181.5t171 74.5t171 -74t71 -181t-71 -181.5t-171 -74.5q-99 0 -170.5 74.5t-71.5 180.5zM68 331q0 -98 64 -166t154 -68q89 0 153 68t64 166t-64 166t-153 68q-90 0 -154 -68t-64 -166zM143 336q0 65 45.5 106.5t103.5 41.5q41 0 75 -24t48 -71l-37 -14 q-6 31 -31 48t-57 17q-48 0 -75.5 -31t-27.5 -72q0 -45 27.5 -79t74.5 -34q57 0 89 49l34 -23q-21 -31 -56.5 -49.5t-72.5 -18.5q-60 0 -100 45.5t-40 108.5z" />
<glyph unicode="&#xaa;" horiz-adv-x="333" d="M95 557q0 65 38 126.5t105 61.5q39 0 46 -33l6 28h56l-42 -181q-2 -12 -2 -22q0 -28 21 -28q6 0 18 3q-12 -46 -45 -46q-42 0 -45 56q-31 -56 -85 -56q-30 0 -50.5 22.5t-20.5 68.5zM155 564q0 -55 37 -55q18 0 36 18t23 43l27 119q-4 25 -28 25q-31 0 -54 -27.5t-32 -60 t-9 -62.5z" />
<glyph unicode="&#xab;" horiz-adv-x="516" d="M8 254l216 195l42 -45l-175 -151l137 -140l-40 -44zM216 254l216 195l42 -45l-175 -151l137 -140l-40 -44z" />
<glyph unicode="&#xac;" horiz-adv-x="453" d="M21 231l16 70h349l-51 -250h-81l37 180h-270z" />
<glyph unicode="&#xad;" horiz-adv-x="321" d="M41 231l16 70h200l-15 -70h-201z" />
<glyph unicode="&#xae;" horiz-adv-x="564" d="M43 334q0 107 71 181.5t171 74.5t171 -74t71 -181t-71 -181.5t-171 -74.5q-99 0 -170.5 74.5t-71.5 180.5zM69 334q0 -98 64 -166t154 -68q89 0 153 68t64 166t-64 166t-153 68q-90 0 -154 -68t-64 -166zM193 192l1 291h98q100 0 100 -84q0 -61 -57 -77l63 -125l-37 -6 l-62 124h-70v-123h-36zM229 350h66q25 0 43 11.5t18 37.5q0 46 -63 46h-64v-95z" />
<glyph unicode="&#xb0;" horiz-adv-x="318" d="M84 486q0 93 45.5 154.5t114.5 61.5q82 0 82 -110q0 -50 -16.5 -98t-54 -84t-89.5 -36q-82 0 -82 112zM139 479q0 -66 42 -66q41 0 68 57t27 137q0 63 -35 63q-41 0 -71.5 -56.5t-30.5 -134.5z" />
<glyph unicode="&#xb1;" horiz-adv-x="479" d="M3 77l16 70h368l-15 -70h-369zM64 351l16 70h141l27 122h83l-27 -122h143l-15 -70h-143l-31 -143h-83l31 143h-142z" />
<glyph unicode="&#xb2;" horiz-adv-x="344" d="M65 361q0 27 16 54t40 48.5t51.5 46.5t51.5 47.5t40 52t16 58.5q0 27 -16.5 41t-39.5 14q-22 0 -38 -12.5t-16 -33.5q0 -31 17 -42q-17 -16 -39 -16q-14 0 -23 13.5t-9 37.5q0 31 30.5 55t83.5 24q110 0 110 -86q0 -43 -27 -82.5t-61.5 -64.5t-72.5 -56t-53 -54 q22 0 59 -6t53 -6q48 0 87 40q0 -4 0.5 -10.5t0.5 -9.5q0 -74 -70 -74q-24 0 -70 9t-60 9q-30 0 -59 -15q-2 12 -2 18z" />
<glyph unicode="&#xb3;" horiz-adv-x="347" d="M67 429q0 36 20.5 59.5t46.5 23.5q27 0 37 -24q-25 -6 -37.5 -23.5t-12.5 -37.5q0 -22 16.5 -38.5t44.5 -16.5q37 0 63.5 34.5t26.5 74.5q0 67 -70 90q46 11 70 43t24 63q0 20 -15 33.5t-44 13.5q-28 0 -43 -13t-15 -34q0 -32 22 -37q-19 -18 -39 -18q-16 0 -26.5 12.5 t-10.5 32.5q0 36 33.5 59t86.5 23t78 -20.5t25 -54.5q0 -30 -18.5 -58t-56.5 -46q67 -20 67 -92q0 -52 -40 -94t-113 -42q-25 0 -48 4.5t-47.5 25.5t-24.5 57z" />
<glyph unicode="&#xb4;" horiz-adv-x="287" d="M111 561l91 189h85l-121 -189h-55z" />
<glyph unicode="&#xb5;" horiz-adv-x="454" d="M-57 -166l141 666h101l-73 -340q-4 -16 -4 -33q0 -28 12.5 -42.5t32.5 -14.5q31 0 61 30t40 79l68 321h101l-73 -340q-5 -20 -5 -45q0 -45 31 -45q49 0 95 109h37q-23 -59 -47.5 -98.5t-48 -57t-41 -23.5t-37.5 -6q-73 0 -80 96q-27 -48 -62.5 -72t-71.5 -24q-23 0 -44 9 l-31 -145z" />
<glyph unicode="&#xb6;" horiz-adv-x="519" d="M65 491q0 102 67 180t183 78q82 0 133.5 -40t51.5 -125q0 -30 -8 -72l-127 -593h-72l81 385q-29 -10 -73 -17l-77 -368h-71l77 366q-79 10 -122 68.5t-43 137.5z" />
<glyph unicode="&#xb7;" horiz-adv-x="257" d="M35 267q0 35 24 59t58 24q35 0 59 -24t24 -59q0 -34 -24 -58t-59 -24t-58.5 23.5t-23.5 58.5z" />
<glyph unicode="&#xb8;" horiz-adv-x="227" d="M0 -190q18 32 40 32q13 0 36.5 -15t37.5 -15q21 0 35.5 14t14.5 31q0 19 -12 32.5t-37 13.5q-30 0 -62 -22l53 148l35 -23l-29 -72q32 8 53 8q62 0 62 -50q0 -51 -36.5 -80.5t-83.5 -29.5q-53 0 -107 28z" />
<glyph unicode="&#xb9;" horiz-adv-x="201" d="M81 345l77 337h-55l7 25q65 0 121 42l-92 -404h-58z" />
<glyph unicode="&#xba;" horiz-adv-x="304" d="M94 552q0 27 7.5 57.5t23.5 62.5t46.5 53t70.5 21q53 0 62 -63q3 -2 5 -10q21 0 39 28l7 -12q-20 -45 -50 -56q-5 -73 -38.5 -120.5t-82.5 -47.5q-39 0 -64.5 21.5t-25.5 65.5zM154 562q0 -55 51 -55q25 0 45.5 33.5t26.5 88.5q-21 0 -21 23q0 25 22 32q-6 32 -33 32 q-38 0 -64.5 -53t-26.5 -101z" />
<glyph unicode="&#xbb;" horiz-adv-x="519" d="M17 114l175 151l-137 140l40 44l180 -185l-216 -195zM225 114l175 151l-137 140l40 44l180 -185l-216 -195z" />
<glyph unicode="&#xbc;" horiz-adv-x="661" d="M69 303l77 337h-55l7 25q65 0 121 42l-92 -404h-58zM88 0l386 750h60l-386 -750h-60zM352 150q7 19 29 62.5t37 84.5t15 76q0 18 -4 33q18 0 34 -15t16 -36q0 -29 -13.5 -58.5t-36 -63.5t-31.5 -52h112l49 217l64 8l-52 -225h37l-9 -31h-35l-34 -149h-61l34 149h-151z " />
<glyph unicode="&#xbd;" horiz-adv-x="672" d="M65 0l386 750h60l-386 -750h-60zM71 303l77 337h-55l7 25q65 0 121 42l-92 -404h-58zM334 21q0 31 22 63t54 59t63.5 54.5t53.5 61.5t22 69q0 27 -16.5 41t-39.5 14q-22 0 -38 -12.5t-16 -33.5q0 -31 17 -42q-17 -16 -39 -16q-14 0 -23 13.5t-9 37.5q0 31 30.5 55 t83.5 24q110 0 110 -86q0 -43 -27 -82.5t-61.5 -64.5t-72.5 -56t-53 -54q22 0 59 -6t53 -6q48 0 87 40q0 -4 0.5 -10.5t0.5 -9.5q0 -74 -70 -74q-23 0 -69 9t-61 9q-30 0 -59 -15q-2 12 -2 18z" />
<glyph unicode="&#xbe;" horiz-adv-x="798" d="M46 386q0 36 20.5 59.5t46.5 23.5q27 0 37 -24q-25 -6 -37.5 -23.5t-12.5 -37.5q0 -22 16.5 -38.5t44.5 -16.5q37 0 63.5 34.5t26.5 74.5q0 68 -70 90q46 11 70 43t24 63q0 20 -15 33.5t-44 13.5q-28 0 -43 -13t-15 -34q0 -32 22 -37q-19 -18 -39 -18q-16 0 -26.5 12.5 t-10.5 32.5q0 36 33.5 59t86.5 23t78 -20.5t25 -54.5q0 -30 -18.5 -58t-56.5 -46q67 -20 67 -92q0 -52 -40 -94t-113 -42q-25 0 -48 4.5t-47.5 25.5t-24.5 57zM216 0l386 750h60l-386 -750h-60zM490 150q7 19 29 62.5t37 84.5t15 76q0 18 -4 33q18 0 34 -15t16 -36 q0 -29 -13.5 -58.5t-36 -63.5t-31.5 -52h112l49 217l64 8l-52 -225h37l-9 -31h-35l-34 -149h-61l34 149h-151z" />
<glyph unicode="&#xbf;" horiz-adv-x="426" d="M-48 -126q0 48 22 87.5t55 68t67.5 55t64.5 61.5t41 75h46q0 -39 -21 -74t-50.5 -63.5t-59 -57.5t-50.5 -67.5t-21 -82.5q0 -40 24 -59.5t61 -19.5q42 0 76 26.5t34 66.5q0 21 -17 41t-51 25q25 42 73 42q31 0 53.5 -22t22.5 -62q0 -60 -53.5 -110.5t-156.5 -50.5 q-79 0 -119.5 34t-40.5 87zM182 387q0 27 20 46.5t47 19.5q28 0 47 -19t19 -47q0 -27 -19.5 -47t-46.5 -20t-47 20t-20 47z" />
<glyph unicode="&#xc0;" horiz-adv-x="603" d="M-39 338q0 53 61 84.5t152 31.5q13 0 41 -2q83 132 175 215t177 83q43 0 77 -14l-157 -736h-109l76 359q-69 38 -179 50q-60 -119 -97.5 -243.5t-37.5 -211.5q0 -40 9 -68q-113 0 -113 106q0 70 43 186.5t112 234.5q-62 -2 -104 -19t-42 -43q20 -7 20 -25q0 -40 -49 -40 q-55 0 -55 52zM292 442q102 -17 168 -52l66 311q-50 -2 -112.5 -74t-121.5 -185zM406 1000h85l31 -189h-55z" />
<glyph unicode="&#xc1;" horiz-adv-x="603" d="M-39 338q0 53 61 84.5t152 31.5q13 0 41 -2q83 132 175 215t177 83q43 0 77 -14l-157 -736h-109l76 359q-69 38 -179 50q-60 -119 -97.5 -243.5t-37.5 -211.5q0 -40 9 -68q-113 0 -113 106q0 70 43 186.5t112 234.5q-62 -2 -104 -19t-42 -43q20 -7 20 -25q0 -40 -49 -40 q-55 0 -55 52zM292 442q102 -17 168 -52l66 311q-50 -2 -112.5 -74t-121.5 -185zM459 811l91 189h85l-121 -189h-55z" />
<glyph unicode="&#xc2;" horiz-adv-x="603" d="M-39 338q0 53 61 84.5t152 31.5q13 0 41 -2q83 132 175 215t177 83q43 0 77 -14l-157 -736h-109l76 359q-69 38 -179 50q-60 -119 -97.5 -243.5t-37.5 -211.5q0 -40 9 -68q-113 0 -113 106q0 70 43 186.5t112 234.5q-62 -2 -104 -19t-42 -43q20 -7 20 -25q0 -40 -49 -40 q-55 0 -55 52zM292 442q102 -17 168 -52l66 311q-50 -2 -112.5 -74t-121.5 -185zM374 811l201 167h21l61 -167h-22l-65 101l-162 -101h-34z" />
<glyph unicode="&#xc3;" horiz-adv-x="603" d="M-39 338q0 53 61 84.5t152 31.5q13 0 41 -2q83 132 175 215t177 83q43 0 77 -14l-157 -736h-109l76 359q-69 38 -179 50q-60 -119 -97.5 -243.5t-37.5 -211.5q0 -40 9 -68q-113 0 -113 106q0 70 43 186.5t112 234.5q-62 -2 -104 -19t-42 -43q20 -7 20 -25q0 -40 -49 -40 q-55 0 -55 52zM292 442q102 -17 168 -52l66 311q-50 -2 -112.5 -74t-121.5 -185zM367 836q44 88 150 88q35 0 80 -14.5t69 -14.5q37 0 57 20h5q-8 -33 -51.5 -61.5t-93.5 -28.5q-31 0 -79.5 16.5t-71.5 16.5q-34 0 -60 -24z" />
<glyph unicode="&#xc4;" horiz-adv-x="603" d="M-39 338q0 53 61 84.5t152 31.5q13 0 41 -2q83 132 175 215t177 83q43 0 77 -14l-157 -736h-109l76 359q-69 38 -179 50q-60 -119 -97.5 -243.5t-37.5 -211.5q0 -40 9 -68q-113 0 -113 106q0 70 43 186.5t112 234.5q-62 -2 -104 -19t-42 -43q20 -7 20 -25q0 -40 -49 -40 q-55 0 -55 52zM292 442q102 -17 168 -52l66 311q-50 -2 -112.5 -74t-121.5 -185zM398 892q0 22 15 37.5t37 15.5t37.5 -15.5t15.5 -37.5t-15.5 -37t-37.5 -15t-37 15t-15 37zM562 892q0 22 15 37.5t37 15.5t37.5 -15.5t15.5 -37.5t-15.5 -37t-37.5 -15t-37 15t-15 37z" />
<glyph unicode="&#xc5;" horiz-adv-x="603" d="M-39 338q0 53 61 84.5t152 31.5q13 0 41 -2q83 132 175 215t177 83q43 0 77 -14l-157 -736h-109l76 359q-69 38 -179 50q-60 -119 -97.5 -243.5t-37.5 -211.5q0 -40 9 -68q-113 0 -113 106q0 70 43 186.5t112 234.5q-62 -2 -104 -19t-42 -43q20 -7 20 -25q0 -40 -49 -40 q-55 0 -55 52zM292 442q102 -17 168 -52l66 311q-50 -2 -112.5 -74t-121.5 -185zM456 872q0 32 22 61.5t63 29.5q35 0 53.5 -21.5t18.5 -55.5q0 -36 -21.5 -60t-65.5 -24q-31 0 -50.5 20.5t-19.5 49.5zM496 874q0 -37 34 -37q46 0 46 46q0 47 -33 47q-24 0 -35.5 -17 t-11.5 -39z" />
<glyph unicode="&#xc6;" horiz-adv-x="833" d="M15 338q0 42 37.5 70t83 37t95.5 9q15 0 37 -2q84 133 178.5 215.5t184.5 82.5q23 0 83 -9.5t84 -9.5q60 0 115 19q-15 -54 -42 -73.5t-66 -19.5q-45 0 -119 22l-57 -266h149l-14 -59h-148l-60 -284h220l-15 -70h-329l76 359q-71 38 -180 50q-59 -119 -96.5 -243.5 t-37.5 -211.5q0 -40 9 -68q-113 0 -113 107q0 70 42.5 187t111.5 233q-62 -2 -103.5 -19t-41.5 -43q20 -7 20 -25q0 -40 -49 -40q-55 0 -55 52zM345 442q102 -17 169 -52l66 311q-52 -8 -114 -78.5t-121 -180.5z" />
<glyph unicode="&#xc7;" horiz-adv-x="506" d="M45 229q0 59 10.5 124t37 137t65 129t101 94t139.5 37q73 0 118 -33t45 -103q0 -90 -70 -90q-29 0 -42 18q15 9 29 40t14 65q0 33 -19.5 50t-54.5 17q-57 0 -106 -45.5t-80 -116t-48.5 -152.5t-17.5 -159q0 -40 5.5 -68.5t21 -56t48 -42t81.5 -14.5q67 0 115.5 29 t88.5 91l23 -10q-35 -77 -103 -124.5t-150 -58.5l-21 -53q32 8 53 8q62 0 62 -50q0 -51 -36.5 -80.5t-83.5 -29.5q-53 0 -107 28q18 32 40 32q13 0 36.5 -15t37.5 -15q21 0 35.5 14t14.5 31q0 19 -12.5 32.5t-36.5 13.5q-30 0 -62 -22l37 103q-208 0 -208 245z" />
<glyph unicode="&#xc8;" horiz-adv-x="447" d="M12 158q0 80 50 152t135 107q-61 44 -61 120q0 81 63.5 148t155.5 67q62 0 102.5 -33t40.5 -92q0 -44 -22 -74t-52 -30q-27 0 -47 27q22 8 40 32t18 60q0 72 -67 72q-51 0 -94.5 -46.5t-43.5 -125.5q0 -108 80 -124q-85 -18 -133 -84t-48 -148q0 -125 126 -125 q67 0 124 34.5t87 84.5l23 -10q-38 -86 -119.5 -137t-173.5 -51q-91 0 -137.5 50t-46.5 126zM267 1000h85l31 -189h-55z" />
<glyph unicode="&#xc9;" horiz-adv-x="447" d="M12 158q0 80 50 152t135 107q-61 44 -61 120q0 81 63.5 148t155.5 67q62 0 102.5 -33t40.5 -92q0 -44 -22 -74t-52 -30q-27 0 -47 27q22 8 40 32t18 60q0 72 -67 72q-51 0 -94.5 -46.5t-43.5 -125.5q0 -108 80 -124q-85 -18 -133 -84t-48 -148q0 -125 126 -125 q67 0 124 34.5t87 84.5l23 -10q-38 -86 -119.5 -137t-173.5 -51q-91 0 -137.5 50t-46.5 126zM356 811l91 189h85l-121 -189h-55z" />
<glyph unicode="&#xca;" horiz-adv-x="447" d="M12 158q0 80 50 152t135 107q-61 44 -61 120q0 81 63.5 148t155.5 67q62 0 102.5 -33t40.5 -92q0 -44 -22 -74t-52 -30q-27 0 -47 27q22 8 40 32t18 60q0 72 -67 72q-51 0 -94.5 -46.5t-43.5 -125.5q0 -108 80 -124q-85 -18 -133 -84t-48 -148q0 -125 126 -125 q67 0 124 34.5t87 84.5l23 -10q-38 -86 -119.5 -137t-173.5 -51q-91 0 -137.5 50t-46.5 126zM223 811l201 167h21l61 -167h-22l-65 101l-162 -101h-34z" />
<glyph unicode="&#xcb;" horiz-adv-x="447" d="M12 158q0 80 50 152t135 107q-61 44 -61 120q0 81 63.5 148t155.5 67q62 0 102.5 -33t40.5 -92q0 -44 -22 -74t-52 -30q-27 0 -47 27q22 8 40 32t18 60q0 72 -67 72q-51 0 -94.5 -46.5t-43.5 -125.5q0 -108 80 -124q-85 -18 -133 -84t-48 -148q0 -125 126 -125 q67 0 124 34.5t87 84.5l23 -10q-38 -86 -119.5 -137t-173.5 -51q-91 0 -137.5 50t-46.5 126zM261 892q0 22 15 37.5t37 15.5t37.5 -15.5t15.5 -37.5t-15.5 -37t-37.5 -15t-37 15t-15 37zM425 892q0 22 15 37.5t37 15.5t37.5 -15.5t15.5 -37.5t-15.5 -37t-37.5 -15t-37 15 t-15 37z" />
<glyph unicode="&#xcc;" horiz-adv-x="404" d="M56 485q0 68 53 130t134 98.5t163 36.5q15 0 41 -2l-159 -748h-110l147 692q-85 -22 -135.5 -80t-50.5 -143q0 -50 24 -76q-107 0 -107 92zM278 1000h85l31 -189h-55z" />
<glyph unicode="&#xcd;" horiz-adv-x="404" d="M56 485q0 68 53 130t134 98.5t163 36.5q15 0 41 -2l-159 -748h-110l147 692q-85 -22 -135.5 -80t-50.5 -143q0 -50 24 -76q-107 0 -107 92zM353 811l91 189h85l-121 -189h-55z" />
<glyph unicode="&#xce;" horiz-adv-x="404" d="M56 485q0 68 53 130t134 98.5t163 36.5q15 0 41 -2l-159 -748h-110l147 692q-85 -22 -135.5 -80t-50.5 -143q0 -50 24 -76q-107 0 -107 92zM256 811l201 167h21l61 -167h-22l-65 101l-162 -101h-34z" />
<glyph unicode="&#xcf;" horiz-adv-x="404" d="M56 485q0 68 53 130t134 98.5t163 36.5q15 0 41 -2l-159 -748h-110l147 692q-85 -22 -135.5 -80t-50.5 -143q0 -50 24 -76q-107 0 -107 92zM256 892q0 22 15 37.5t37 15.5t37.5 -15.5t15.5 -37.5t-15.5 -37t-37.5 -15t-37 15t-15 37zM420 892q0 22 15 37.5t37 15.5 t37.5 -15.5t15.5 -37.5t-15.5 -37t-37.5 -15t-37 15t-15 37z" />
<glyph unicode="&#xd0;" horiz-adv-x="704" d="M56 486q0 103 110.5 183.5t257.5 80.5q95 0 157.5 -40t88 -103.5t25.5 -150.5q0 -108 -41 -217.5t-106.5 -180.5t-131.5 -71q-61 0 -126 58l-9 -45h-110l76 352h-66l16 61h63l49 228l112 15l-52 -243h85l-16 -61h-82l-59 -274q32 -26 65 -26q53 0 96 44t69 113 t39.5 145.5t13.5 147.5q0 115 -43 163.5t-134 48.5q-109 0 -191.5 -68.5t-82.5 -181.5q0 -43 34 -71q-107 0 -107 93z" />
<glyph unicode="&#xd1;" horiz-adv-x="712" d="M60 490q0 94 84.5 177t194.5 83q38 0 67 -14l137 -622l139 634h77l-170 -748h-128l-126 539l-124 -539h-75l157 691q-75 -22 -117.5 -77.5t-42.5 -144.5q0 -45 24 -76q-49 0 -73 22.5t-24 74.5zM368 836q44 88 150 88q35 0 80 -14.5t69 -14.5q37 0 57 20h5 q-8 -33 -51.5 -61.5t-93.5 -28.5q-31 0 -79.5 16.5t-71.5 16.5q-35 0 -60 -24z" />
<glyph unicode="&#xd2;" horiz-adv-x="697" d="M54 477q0 68 56.5 132t149.5 102.5t192 38.5q242 0 242 -253q0 -61 -13 -127.5t-42 -134t-70.5 -121t-104 -87t-136.5 -33.5q-182 0 -182 201q0 64 17.5 142t49.5 152.5t86.5 124.5t118.5 50q27 0 51 -8q-76 -40 -139.5 -192t-63.5 -273t88 -121q53 0 106.5 70t87 180 t33.5 219q0 95 -33.5 135t-119.5 40q-117 0 -205 -74t-88 -192q0 -42 10 -55q-91 0 -91 84zM381 1000h85l31 -189h-55z" />
<glyph unicode="&#xd3;" horiz-adv-x="697" d="M54 477q0 68 56.5 132t149.5 102.5t192 38.5q242 0 242 -253q0 -61 -13 -127.5t-42 -134t-70.5 -121t-104 -87t-136.5 -33.5q-182 0 -182 201q0 64 17.5 142t49.5 152.5t86.5 124.5t118.5 50q27 0 51 -8q-76 -40 -139.5 -192t-63.5 -273t88 -121q53 0 106.5 70t87 180 t33.5 219q0 95 -33.5 135t-119.5 40q-117 0 -205 -74t-88 -192q0 -42 10 -55q-91 0 -91 84zM466 811l91 189h85l-121 -189h-55z" />
<glyph unicode="&#xd4;" horiz-adv-x="697" d="M54 477q0 68 56.5 132t149.5 102.5t192 38.5q242 0 242 -253q0 -61 -13 -127.5t-42 -134t-70.5 -121t-104 -87t-136.5 -33.5q-182 0 -182 201q0 64 17.5 142t49.5 152.5t86.5 124.5t118.5 50q27 0 51 -8q-76 -40 -139.5 -192t-63.5 -273t88 -121q53 0 106.5 70t87 180 t33.5 219q0 95 -33.5 135t-119.5 40q-117 0 -205 -74t-88 -192q0 -42 10 -55q-91 0 -91 84zM355 811l201 167h21l61 -167h-22l-65 101l-162 -101h-34z" />
<glyph unicode="&#xd5;" horiz-adv-x="697" d="M54 477q0 68 56.5 132t149.5 102.5t192 38.5q242 0 242 -253q0 -61 -13 -127.5t-42 -134t-70.5 -121t-104 -87t-136.5 -33.5q-182 0 -182 201q0 64 17.5 142t49.5 152.5t86.5 124.5t118.5 50q27 0 51 -8q-76 -40 -139.5 -192t-63.5 -273t88 -121q53 0 106.5 70t87 180 t33.5 219q0 95 -33.5 135t-119.5 40q-117 0 -205 -74t-88 -192q0 -42 10 -55q-91 0 -91 84zM348 836q44 88 150 88q35 0 80 -14.5t69 -14.5q37 0 57 20h5q-8 -33 -51.5 -61.5t-93.5 -28.5q-31 0 -79.5 16.5t-71.5 16.5q-35 0 -60 -24z" />
<glyph unicode="&#xd6;" horiz-adv-x="697" d="M54 477q0 68 56.5 132t149.5 102.5t192 38.5q242 0 242 -253q0 -61 -13 -127.5t-42 -134t-70.5 -121t-104 -87t-136.5 -33.5q-182 0 -182 201q0 64 17.5 142t49.5 152.5t86.5 124.5t118.5 50q27 0 51 -8q-76 -40 -139.5 -192t-63.5 -273t88 -121q53 0 106.5 70t87 180 t33.5 219q0 95 -33.5 135t-119.5 40q-117 0 -205 -74t-88 -192q0 -42 10 -55q-91 0 -91 84zM405 892q0 22 15 37.5t37 15.5t37.5 -15.5t15.5 -37.5t-15.5 -37t-37.5 -15t-37 15t-15 37zM569 892q0 22 15 37.5t37 15.5t37.5 -15.5t15.5 -37.5t-15.5 -37t-37.5 -15t-37 15 t-15 37z" />
<glyph unicode="&#xd7;" horiz-adv-x="401" d="M38 366l51 52l109 -111l96 96l48 -48l-96 -96l94 -93l-50 -52l-95 94l-106 -106l-48 48l106 106z" />
<glyph unicode="&#xd8;" horiz-adv-x="686" d="M52 477q0 68 56.5 132t149.5 102.5t192 38.5q21 0 32 -1v4h32l-1 -8q179 -31 179 -248q0 -59 -12 -123t-39 -129t-65.5 -118t-96 -89t-125.5 -42l-14 -67h-32l14 65q-178 3 -178 201q0 64 17.5 142t49.5 152.5t86.5 124.5t118.5 50q24 0 46 -7l11 53q-19 4 -47 4 q-117 0 -205 -74t-88 -192q0 -42 10 -55q-91 0 -91 84zM264 191q0 -112 74 -120l123 582q-75 -44 -136 -193.5t-61 -268.5zM370 72q78 20 143.5 165t65.5 302q0 70 -17 109t-58 54z" />
<glyph unicode="&#xd9;" horiz-adv-x="770" d="M55 485q0 68 53 130t136 98.5t169 36.5q22 0 48 -5q-16 -58 -36.5 -134t-31 -115t-24 -89.5t-20 -78t-13 -58.5t-8.5 -51.5t-2 -39.5q0 -57 17.5 -83t71.5 -26q40 0 67 12t55 49.5t53 112t51 195.5l67 309h108l-66 -312q-21 -100 -39.5 -164t-45.5 -122t-61.5 -89.5 t-84 -49.5t-116.5 -18q-105 0 -149 40t-44 122q0 27 3.5 58t14.5 81t16 73.5t24.5 99t23.5 93.5l36 147q-93 -18 -147 -83t-54 -161q0 -14 1 -25t3 -18t4 -11.5l4 -9t3 -5.5q-37 0 -62 23.5t-25 67.5zM502 1000h85l31 -189h-55z" />
<glyph unicode="&#xda;" horiz-adv-x="770" d="M55 485q0 68 53 130t136 98.5t169 36.5q22 0 48 -5q-16 -58 -36.5 -134t-31 -115t-24 -89.5t-20 -78t-13 -58.5t-8.5 -51.5t-2 -39.5q0 -57 17.5 -83t71.5 -26q40 0 67 12t55 49.5t53 112t51 195.5l67 309h108l-66 -312q-21 -100 -39.5 -164t-45.5 -122t-61.5 -89.5 t-84 -49.5t-116.5 -18q-105 0 -149 40t-44 122q0 27 3.5 58t14.5 81t16 73.5t24.5 99t23.5 93.5l36 147q-93 -18 -147 -83t-54 -161q0 -14 1 -25t3 -18t4 -11.5l4 -9t3 -5.5q-37 0 -62 23.5t-25 67.5zM557 811l91 189h85l-121 -189h-55z" />
<glyph unicode="&#xdb;" horiz-adv-x="770" d="M55 485q0 68 53 130t136 98.5t169 36.5q22 0 48 -5q-16 -58 -36.5 -134t-31 -115t-24 -89.5t-20 -78t-13 -58.5t-8.5 -51.5t-2 -39.5q0 -57 17.5 -83t71.5 -26q40 0 67 12t55 49.5t53 112t51 195.5l67 309h108l-66 -312q-21 -100 -39.5 -164t-45.5 -122t-61.5 -89.5 t-84 -49.5t-116.5 -18q-105 0 -149 40t-44 122q0 27 3.5 58t14.5 81t16 73.5t24.5 99t23.5 93.5l36 147q-93 -18 -147 -83t-54 -161q0 -14 1 -25t3 -18t4 -11.5l4 -9t3 -5.5q-37 0 -62 23.5t-25 67.5zM454 811l201 167h21l61 -167h-22l-65 101l-162 -101h-34z" />
<glyph unicode="&#xdc;" horiz-adv-x="770" d="M55 485q0 68 53 130t136 98.5t169 36.5q22 0 48 -5q-16 -58 -36.5 -134t-31 -115t-24 -89.5t-20 -78t-13 -58.5t-8.5 -51.5t-2 -39.5q0 -57 17.5 -83t71.5 -26q40 0 67 12t55 49.5t53 112t51 195.5l67 309h108l-66 -312q-21 -100 -39.5 -164t-45.5 -122t-61.5 -89.5 t-84 -49.5t-116.5 -18q-105 0 -149 40t-44 122q0 27 3.5 58t14.5 81t16 73.5t24.5 99t23.5 93.5l36 147q-93 -18 -147 -83t-54 -161q0 -14 1 -25t3 -18t4 -11.5l4 -9t3 -5.5q-37 0 -62 23.5t-25 67.5zM494 892q0 22 15 37.5t37 15.5t37.5 -15.5t15.5 -37.5t-15.5 -37 t-37.5 -15t-37 15t-15 37zM658 892q0 22 15 37.5t37 15.5t37.5 -15.5t15.5 -37.5t-15.5 -37t-37.5 -15t-37 15t-15 37z" />
<glyph unicode="&#xdd;" horiz-adv-x="614" d="M59 485q0 107 88 186t211 79q15 0 41 -2l94 -389l161 386h46l-194 -437l-66 -308h-109l66 308l-104 406q-84 -22 -127.5 -87t-43.5 -139q0 -58 24 -95q-87 0 -87 92zM548 811l91 189h85l-121 -189h-55z" />
<glyph unicode="&#xde;" horiz-adv-x="601" d="M34 375q0 83 71.5 152t175.5 98l24 109l112 15l-23 -109q108 -1 166.5 -58.5t58.5 -139.5q0 -101 -80.5 -184t-208.5 -83q-23 0 -36 1l-37 -176h-110l127 591q-78 -24 -123.5 -86t-45.5 -152q0 -17 2 -30t4 -18.5t4.5 -11t3.5 -7.5q-85 0 -85 89zM300 205h23 q88 0 151.5 81.5t63.5 174.5q0 61 -35 100t-117 42z" />
<glyph unicode="&#xdf;" horiz-adv-x="450" d="M-68 -250l166 780q36 170 182 170q66 0 101.5 -37t35.5 -90q0 -45 -24.5 -85.5t-67.5 -60.5q97 -33 97 -142q0 -72 -19 -129.5t-49 -90t-61.5 -49t-60.5 -16.5q-11 0 -33 2l8 39q38 0 67 24.5t45 63.5t24 80t8 81t-24.5 71t-74.5 42l12 38q48 11 76 47.5t28 77.5 q0 37 -15.5 55.5t-40.5 18.5q-32 0 -62 -29.5t-41 -80.5l-159 -744z" />
<glyph unicode="&#xe0;" d="M5 155q0 53 17 112t47.5 113t81 89.5t110.5 35.5q69 0 82 -53l10 48h101l-73 -340q-5 -20 -5 -45q0 -45 31 -45q49 0 95 109h37q-23 -59 -47.5 -98.5t-48 -57t-41 -23.5t-37.5 -6q-73 0 -80 98q-24 -43 -65 -70.5t-87 -27.5q-54 0 -91 39.5t-37 121.5zM112 169 q0 -99 63 -99q32 0 66.5 32.5t43.5 76.5l48 227q-3 18 -16 31t-34 13q-51 0 -92 -50.5t-60 -113.5t-19 -117zM208 750h85l31 -189h-55z" />
<glyph unicode="&#xe1;" d="M5 155q0 53 17 112t47.5 113t81 89.5t110.5 35.5q69 0 82 -53l10 48h101l-73 -340q-5 -20 -5 -45q0 -45 31 -45q49 0 95 109h37q-23 -59 -47.5 -98.5t-48 -57t-41 -23.5t-37.5 -6q-73 0 -80 98q-24 -43 -65 -70.5t-87 -27.5q-54 0 -91 39.5t-37 121.5zM112 169 q0 -99 63 -99q32 0 66.5 32.5t43.5 76.5l48 227q-3 18 -16 31t-34 13q-51 0 -92 -50.5t-60 -113.5t-19 -117zM253 561l91 189h85l-121 -189h-55z" />
<glyph unicode="&#xe2;" d="M5 155q0 53 17 112t47.5 113t81 89.5t110.5 35.5q69 0 82 -53l10 48h101l-73 -340q-5 -20 -5 -45q0 -45 31 -45q49 0 95 109h37q-23 -59 -47.5 -98.5t-48 -57t-41 -23.5t-37.5 -6q-73 0 -80 98q-24 -43 -65 -70.5t-87 -27.5q-54 0 -91 39.5t-37 121.5zM112 169 q0 -99 63 -99q32 0 66.5 32.5t43.5 76.5l48 227q-3 18 -16 31t-34 13q-51 0 -92 -50.5t-60 -113.5t-19 -117zM148 561l201 167h21l61 -167h-22l-65 101l-162 -101h-34z" />
<glyph unicode="&#xe3;" d="M5 155q0 53 17 112t47.5 113t81 89.5t110.5 35.5q69 0 82 -53l10 48h101l-73 -340q-5 -20 -5 -45q0 -45 31 -45q49 0 95 109h37q-23 -59 -47.5 -98.5t-48 -57t-41 -23.5t-37.5 -6q-73 0 -80 98q-24 -43 -65 -70.5t-87 -27.5q-54 0 -91 39.5t-37 121.5zM112 169 q0 -99 63 -99q32 0 66.5 32.5t43.5 76.5l48 227q-3 18 -16 31t-34 13q-51 0 -92 -50.5t-60 -113.5t-19 -117zM125 586q44 88 150 88q35 0 80 -14.5t69 -14.5q37 0 57 20h5q-8 -33 -51.5 -61.5t-93.5 -28.5q-31 0 -79.5 16.5t-71.5 16.5q-34 0 -60 -24z" />
<glyph unicode="&#xe4;" d="M5 155q0 53 17 112t47.5 113t81 89.5t110.5 35.5q69 0 82 -53l10 48h101l-73 -340q-5 -20 -5 -45q0 -45 31 -45q49 0 95 109h37q-23 -59 -47.5 -98.5t-48 -57t-41 -23.5t-37.5 -6q-73 0 -80 98q-24 -43 -65 -70.5t-87 -27.5q-54 0 -91 39.5t-37 121.5zM112 169 q0 -99 63 -99q33 0 67 32.5t43 76.5l48 227q-3 18 -16 31t-34 13q-51 0 -92 -50.5t-60 -113.5t-19 -117zM206 642q0 22 15 37.5t37 15.5t37.5 -15.5t15.5 -37.5t-15.5 -37t-37.5 -15t-37 15t-15 37zM370 642q0 22 15 37.5t37 15.5t37.5 -15.5t15.5 -37.5t-15.5 -37 t-37.5 -15t-37 15t-15 37z" />
<glyph unicode="&#xe5;" d="M5 155q0 53 17 112t47.5 113t81 89.5t110.5 35.5q69 0 82 -53l10 48h101l-73 -340q-5 -20 -5 -45q0 -45 31 -45q49 0 95 109h37q-23 -59 -47.5 -98.5t-48 -57t-41 -23.5t-37.5 -6q-73 0 -80 98q-24 -43 -65 -70.5t-87 -27.5q-54 0 -91 39.5t-37 121.5zM112 169 q0 -99 63 -99q33 0 67 32.5t43 76.5l48 227q-3 18 -16 31t-34 13q-51 0 -92 -50.5t-60 -113.5t-19 -117zM251 622q0 32 22 61.5t63 29.5q35 0 53.5 -21.5t18.5 -55.5q0 -36 -21.5 -60t-65.5 -24q-31 0 -50.5 20.5t-19.5 49.5zM291 624q0 -37 34 -37q46 0 46 46q0 47 -33 47 q-24 0 -35.5 -17t-11.5 -39z" />
<glyph unicode="&#xe6;" horiz-adv-x="621" d="M9 124q0 166 222 166q33 0 61 -4q21 49 21 88q0 37 -17.5 60t-52.5 23q-69 0 -121 -59l-28 29q75 78 168 78q68 0 128 -46q63 46 124 46q107 0 107 -103q0 -83 -65 -132t-183 -58q-3 -33 -3 -43q0 -52 20 -75.5t67 -23.5q108 0 181 109h32q-42 -78 -113 -131.5 t-148 -53.5q-101 0 -131 95q-24 -45 -55.5 -70t-86.5 -25q-53 0 -90 29t-37 101zM114 141q0 -71 57 -71q37 0 67 44.5t40 123.5q-7 1 -17 1q-58 0 -102.5 -27.5t-44.5 -70.5zM378 251q84 9 133 51.5t49 109.5q0 44 -37 44q-52 0 -91 -60.5t-54 -144.5z" />
<glyph unicode="&#xe7;" horiz-adv-x="364" d="M8 155q0 47 14 103t42.5 113.5t81.5 95.5t121 38q105 0 105 -95q0 -36 -14 -60t-39 -24q-22 0 -33 21q12 8 21 28t9 37q0 18 -11.5 29t-33.5 11q-44 0 -81 -48t-55 -112t-18 -123q0 -53 20 -76t68 -23q111 0 176 109h34q-41 -77 -109.5 -129.5t-142.5 -55.5l-24 -60 q32 8 53 8q62 0 62 -50q0 -51 -36.5 -80.5t-83.5 -29.5q-53 0 -107 28q18 32 40 32q13 0 36.5 -15t37.5 -15q21 0 35.5 14t14.5 31q0 19 -12.5 32.5t-36.5 13.5q-30 0 -62 -22l41 116q-50 10 -81.5 49t-31.5 109z" />
<glyph unicode="&#xe8;" horiz-adv-x="368" d="M8 154q0 36 8.5 80t28 92.5t47.5 87.5t72.5 65t96.5 26q107 0 107 -103q0 -84 -66.5 -137t-183.5 -65q-1 -11 -1 -31q0 -52 20 -75.5t67 -23.5q108 0 181 109h32q-42 -78 -113 -131.5t-148 -53.5q-63 0 -105.5 39.5t-42.5 120.5zM123 239q84 13 134 59.5t50 113.5 q0 44 -37 44q-52 0 -92 -65.5t-55 -151.5zM177 750h85l31 -189h-55z" />
<glyph unicode="&#xe9;" horiz-adv-x="368" d="M8 154q0 36 8.5 80t28 92.5t47.5 87.5t72.5 65t96.5 26q107 0 107 -103q0 -84 -66.5 -137t-183.5 -65q-1 -11 -1 -31q0 -52 20 -75.5t67 -23.5q108 0 181 109h32q-42 -78 -113 -131.5t-148 -53.5q-63 0 -105.5 39.5t-42.5 120.5zM123 239q84 13 134 59.5t50 113.5 q0 44 -37 44q-52 0 -92 -65.5t-55 -151.5zM247 561l91 189h85l-121 -189h-55z" />
<glyph unicode="&#xea;" horiz-adv-x="368" d="M8 154q0 36 8.5 80t28 92.5t47.5 87.5t72.5 65t96.5 26q107 0 107 -103q0 -84 -66.5 -137t-183.5 -65q-1 -11 -1 -31q0 -52 20 -75.5t67 -23.5q108 0 181 109h32q-42 -78 -113 -131.5t-148 -53.5q-63 0 -105.5 39.5t-42.5 120.5zM123 239q84 13 134 59.5t50 113.5 q0 44 -37 44q-52 0 -92 -65.5t-55 -151.5zM127 561l201 167h21l61 -167h-22l-65 101l-162 -101h-34z" />
<glyph unicode="&#xeb;" horiz-adv-x="368" d="M8 154q0 36 8.5 80t28 92.5t47.5 87.5t72.5 65t96.5 26q107 0 107 -103q0 -84 -66.5 -137t-183.5 -65q-1 -11 -1 -31q0 -52 20 -75.5t67 -23.5q108 0 181 109h32q-42 -78 -113 -131.5t-148 -53.5q-63 0 -105.5 39.5t-42.5 120.5zM123 239q84 13 134 59.5t50 113.5 q0 44 -37 44q-52 0 -92 -65.5t-55 -151.5zM155 642q0 22 15 37.5t37 15.5t37.5 -15.5t15.5 -37.5t-15.5 -37t-37.5 -15t-37 15t-15 37zM319 642q0 22 15 37.5t37 15.5t37.5 -15.5t15.5 -37.5t-15.5 -37t-37.5 -15t-37 15t-15 37z" />
<glyph unicode="&#xec;" horiz-adv-x="217" d="M8 105q0 31 9 74l68 321h101l-73 -340q-5 -20 -5 -45q0 -45 31 -45q49 0 95 109h37q-23 -59 -47.5 -98.5t-48 -57t-41 -23.5t-37.5 -6q-89 0 -89 111zM44 750h85l31 -189h-55z" />
<glyph unicode="&#xed;" horiz-adv-x="217" d="M8 105q0 31 9 74l68 321h101l-73 -340q-5 -20 -5 -45q0 -45 31 -45q49 0 95 109h37q-23 -59 -47.5 -98.5t-48 -57t-41 -23.5t-37.5 -6q-89 0 -89 111zM119 561l91 189h85l-121 -189h-55z" />
<glyph unicode="&#xee;" horiz-adv-x="217" d="M8 105q0 31 9 74l68 321h101l-73 -340q-5 -20 -5 -45q0 -45 31 -45q49 0 95 109h37q-23 -59 -47.5 -98.5t-48 -57t-41 -23.5t-37.5 -6q-89 0 -89 111zM12 561l201 167h21l61 -167h-22l-65 101l-162 -101h-34z" />
<glyph unicode="&#xef;" horiz-adv-x="217" d="M8 105q0 31 9 74l68 321h101l-73 -340q-5 -20 -5 -45q0 -45 31 -45q49 0 95 109h37q-23 -59 -47.5 -98.5t-48 -57t-41 -23.5t-37.5 -6q-89 0 -89 111zM23 642q0 22 15 37.5t37 15.5t37.5 -15.5t15.5 -37.5t-15.5 -37t-37.5 -15t-37 15t-15 37zM187 642q0 22 15 37.5 t37 15.5t37.5 -15.5t15.5 -37.5t-15.5 -37t-37.5 -15t-37 15t-15 37z" />
<glyph unicode="&#xf0;" d="M5 155q0 53 17 112t47.5 113t81 89.5t110.5 35.5q69 0 82 -54l7 34q12 62 12 93v7l-72 -10v30l69 10q-9 42 -40 85h35q60 -39 84 -74l69 10v-30l-55 -8q9 -21 9 -49q0 -17 -5 -42l-75 -347q-5 -20 -5 -45q0 -45 31 -45q49 0 95 109h37q-23 -59 -47.5 -98.5t-48 -57 t-41 -23.5t-37.5 -6q-73 0 -80 98q-24 -43 -65 -70.5t-87 -27.5q-54 0 -91 39.5t-37 121.5zM112 169q0 -99 63 -99q33 0 67 32.5t43 76.5l48 227q-3 18 -15.5 31t-34.5 13q-51 0 -92 -50.5t-60 -113.5t-19 -117z" />
<glyph unicode="&#xf1;" horiz-adv-x="467" d="M-22 0l106 500h101l-16 -75q59 80 136 80q103 0 103 -113q0 -46 -24 -140t-24 -133q0 -49 30 -49q47 0 94 109h37q-23 -60 -47.5 -99.5t-47.5 -56.5t-40 -23t-36 -6q-49 0 -72.5 31t-23.5 82q0 46 24 140t24 127q0 55 -44 55q-62 0 -111 -107l-69 -322h-100zM105 586 q44 88 150 88q35 0 80 -14.5t69 -14.5q37 0 57 20h5q-8 -33 -51.5 -61.5t-93.5 -28.5q-31 0 -79.5 16.5t-71.5 16.5q-34 0 -60 -24z" />
<glyph unicode="&#xf2;" horiz-adv-x="419" d="M8 152q0 38 7 81t26 92.5t47.5 88.5t75.5 65t106 26q111 0 113 -158q10 -2 16 -2q31 0 76 20t72 42l9 -27q-58 -67 -175 -82q-9 -133 -68 -218.5t-149 -85.5q-70 0 -113 38.5t-43 119.5zM118 170q0 -53 19 -76.5t65 -23.5t83 61t47 164q-40 0 -40 41q0 46 43 51 q-7 63 -60 63q-47 0 -84.5 -50t-55 -113t-17.5 -117zM179 750h85l31 -189h-55z" />
<glyph unicode="&#xf3;" horiz-adv-x="419" d="M8 152q0 38 7 81t26 92.5t47.5 88.5t75.5 65t106 26q111 0 113 -158q5 -2 17 -2q31 0 75.5 20t71.5 42l9 -27q-58 -67 -175 -82q-9 -133 -68 -218.5t-149 -85.5q-70 0 -113 38.5t-43 119.5zM118 170q0 -53 19 -76.5t65 -23.5t83 61t47 164q-40 0 -40 41q0 46 43 51 q-7 63 -60 63q-47 0 -84.5 -50t-55 -113t-17.5 -117zM247 561l91 189h85l-121 -189h-55z" />
<glyph unicode="&#xf4;" horiz-adv-x="419" d="M8 152q0 38 7 81t26 92.5t47.5 88.5t75.5 65t106 26q111 0 113 -158q3 -1 11 -1q32 0 79.5 19.5t73.5 41.5l9 -27q-58 -67 -175 -82q-9 -133 -68 -218.5t-149 -85.5q-70 0 -113 38.5t-43 119.5zM118 170q0 -53 19 -76.5t65 -23.5t83 61t47 164q-40 0 -40 41q0 46 43 51 q-7 63 -60 63q-47 0 -84.5 -50t-55 -113t-17.5 -117zM123 561l201 167h21l61 -167h-22l-65 101l-162 -101h-34z" />
<glyph unicode="&#xf5;" horiz-adv-x="419" d="M8 152q0 38 7 81t26 92.5t47.5 88.5t75.5 65t106 26q111 0 113 -158q8 -2 15 -2q31 0 76.5 20t72.5 42l9 -27q-58 -67 -175 -82q-9 -133 -68 -218.5t-149 -85.5q-70 0 -113 38.5t-43 119.5zM92 586q44 88 150 88q35 0 80 -14.5t69 -14.5q37 0 57 20h5q-8 -33 -51.5 -61.5 t-93.5 -28.5q-31 0 -79.5 16.5t-71.5 16.5q-35 0 -60 -24zM118 170q0 -53 19 -76.5t65 -23.5t83 61t47 164q-40 0 -40 41q0 46 43 51q-7 63 -60 63q-47 0 -84.5 -50t-55 -113t-17.5 -117z" />
<glyph unicode="&#xf6;" horiz-adv-x="419" d="M8 152q0 38 7 81t26 92.5t47.5 88.5t75.5 65t106 26q111 0 113 -158q8 -3 18 -3q32 0 75.5 20.5t70.5 42.5l9 -27q-58 -67 -175 -82q-9 -133 -68 -218.5t-149 -85.5q-70 0 -113 38.5t-43 119.5zM118 170q0 -53 19 -76.5t65 -23.5t83 61t47 164q-40 0 -40 41q0 46 43 51 q-7 63 -60 63q-47 0 -84.5 -50t-55 -113t-17.5 -117zM144 642q0 22 15 37.5t37 15.5t37.5 -15.5t15.5 -37.5t-15.5 -37t-37.5 -15t-37 15t-15 37zM308 642q0 22 15 37.5t37 15.5t37.5 -15.5t15.5 -37.5t-15.5 -37t-37.5 -15t-37 15t-15 37z" />
<glyph unicode="&#xf7;" horiz-adv-x="420" d="M11 215l16 70h350l-15 -70h-351zM118 67q0 27 19.5 47t46.5 20t47 -20t20 -47t-20 -46.5t-47 -19.5q-28 0 -47 19t-19 47zM178 428q0 27 19.5 47t46.5 20t47 -20t20 -47t-20 -46.5t-47 -19.5q-28 0 -47 19t-19 47z" />
<glyph unicode="&#xf8;" horiz-adv-x="419" d="M8 152q0 37 6.5 78.5t24.5 89.5t44.5 86.5t70.5 66t98 31.5l21 101h52l-22 -104q78 -21 80 -154q5 -2 18 -2q31 0 75 20t71 42l9 -27q-58 -67 -175 -82q-8 -125 -61.5 -209t-136.5 -94l-21 -98h-52l21 99q-57 8 -90 46.5t-33 109.5zM118 170q0 -53 19 -76.5t65 -23.5 t83 61t47 164q-40 0 -40 41q0 46 43 51q-7 63 -60 63q-47 0 -84.5 -50t-55 -113t-17.5 -117z" />
<glyph unicode="&#xf9;" horiz-adv-x="454" d="M10 128q0 24 6 51l68 321h101l-73 -340q-4 -16 -4 -33q0 -28 12.5 -42.5t32.5 -14.5q31 0 61 30t40 79l68 321h101l-73 -340q-5 -20 -5 -45q0 -45 31 -45q49 0 95 109h37q-23 -59 -47.5 -98.5t-48 -57t-41 -23.5t-37.5 -6q-73 0 -80 96q-27 -48 -62.5 -72t-71.5 -24 q-46 0 -78 36.5t-32 97.5zM159 750h85l31 -189h-55z" />
<glyph unicode="&#xfa;" horiz-adv-x="454" d="M10 128q0 24 6 51l68 321h101l-73 -340q-4 -16 -4 -33q0 -28 12.5 -42.5t32.5 -14.5q31 0 61 30t40 79l68 321h101l-73 -340q-5 -20 -5 -45q0 -45 31 -45q49 0 95 109h37q-23 -59 -47.5 -98.5t-48 -57t-41 -23.5t-37.5 -6q-73 0 -80 96q-27 -48 -62.5 -72t-71.5 -24 q-46 0 -78 36.5t-32 97.5zM227 561l91 189h85l-121 -189h-55z" />
<glyph unicode="&#xfb;" horiz-adv-x="454" d="M10 128q0 24 6 51l68 321h101l-73 -340q-4 -16 -4 -33q0 -28 12.5 -42.5t32.5 -14.5q31 0 61 30t40 79l68 321h101l-73 -340q-5 -20 -5 -45q0 -45 31 -45q49 0 95 109h37q-23 -59 -47.5 -98.5t-48 -57t-41 -23.5t-37.5 -6q-73 0 -80 96q-27 -48 -62.5 -72t-71.5 -24 q-46 0 -78 36.5t-32 97.5zM129 561l201 167h21l61 -167h-22l-65 101l-162 -101h-34z" />
<glyph unicode="&#xfc;" horiz-adv-x="454" d="M10 128q0 24 6 51l68 321h101l-73 -340q-4 -16 -4 -33q0 -28 12.5 -42.5t32.5 -14.5q31 0 61 30t40 79l68 321h101l-73 -340q-5 -20 -5 -45q0 -45 31 -45q49 0 95 109h37q-23 -59 -47.5 -98.5t-48 -57t-41 -23.5t-37.5 -6q-73 0 -80 96q-27 -48 -62.5 -72t-71.5 -24 q-46 0 -78 36.5t-32 97.5zM143 642q0 22 15 37.5t37 15.5t37.5 -15.5t15.5 -37.5t-15.5 -37t-37.5 -15t-37 15t-15 37zM307 642q0 22 15 37.5t37 15.5t37.5 -15.5t15.5 -37.5t-15.5 -37t-37.5 -15t-37 15t-15 37z" />
<glyph unicode="&#xfd;" horiz-adv-x="454" d="M10 128q0 24 6 51l68 321h101l-73 -340q-4 -16 -4 -33q0 -28 12.5 -42.5t32.5 -14.5q30 0 60 28.5t41 80.5l68 321h100l-102 -480q58 18 92.5 52.5t58.5 106.5h37q-33 -98 -76.5 -137.5t-119.5 -57.5l-13 -64q-21 -101 -52 -135.5t-84 -34.5q-49 0 -79.5 22t-30.5 68 q0 45 46.5 82.5t113.5 64.5l13 63q-47 -56 -106 -56q-46 0 -78 36.5t-32 97.5zM92 -159q0 -17 10 -28t27 -11q26 0 41 29t28 87l7 32q-54 -24 -83.5 -52.5t-29.5 -56.5zM226 561l91 189h85l-121 -189h-55z" />
<glyph unicode="&#xfe;" horiz-adv-x="473" d="M-75 -250l156 735q12 54 12 93q0 65 -43 122h23q33 -22 52.5 -41t36.5 -58.5t17 -92.5q0 -26 -4 -49q53 46 114 46q120 0 120 -167q0 -42 -7 -85.5t-24.5 -91t-44 -84t-69.5 -60t-96 -23.5q-50 0 -80 48l-56 -266zM99 92q21 -34 53 -34q42 0 74.5 29.5t49.5 75t25.5 90 t8.5 83.5q0 55 -20 79.5t-49 24.5q-41 0 -78 -47z" />
<glyph unicode="&#xff;" horiz-adv-x="454" d="M10 128q0 24 6 51l68 321h101l-73 -340q-4 -16 -4 -33q0 -28 12.5 -42.5t32.5 -14.5q31 0 61 30t40 79l68 321h100l-102 -480q58 18 92.5 52.5t58.5 106.5h37q-33 -98 -76.5 -137.5t-119.5 -57.5l-13 -64q-21 -101 -52 -135.5t-84 -34.5q-49 0 -79.5 22t-30.5 68 q0 45 46.5 82.5t113.5 64.5l13 63q-47 -56 -106 -56q-46 0 -78 36.5t-32 97.5zM92 -159q0 -17 10 -28t27 -11q26 0 41 29t28 87l7 32q-54 -24 -83.5 -52.5t-29.5 -56.5zM146 642q0 22 15 37.5t37 15.5t37.5 -15.5t15.5 -37.5t-15.5 -37t-37.5 -15t-37 15t-15 37zM310 642 q0 22 15 37.5t37 15.5t37.5 -15.5t15.5 -37.5t-15.5 -37t-37.5 -15t-37 15t-15 37z" />
<glyph unicode="&#x152;" horiz-adv-x="864" d="M54 477q0 68 56.5 132t149.5 102.5t192 38.5q64 0 115 -19q55 19 113 19q35 0 90.5 -6t88.5 -6q54 0 91 12q-16 -63 -43 -83.5t-68 -20.5q-29 0 -62.5 5t-74.5 14t-61 12q53 -63 53 -180q0 -41 -6 -84h129l-14 -59h-126q-41 -186 -151 -284h273l-15 -70h-396 q-28 -6 -60 -6q-182 0 -182 201q0 64 17.5 142t49.5 152.5t86.5 124.5t118.5 50q27 0 51 -8q-76 -40 -139.5 -192t-63.5 -273t88 -121q53 0 106.5 70t87 180t33.5 219q0 95 -33.5 135t-119.5 40q-117 0 -205 -74t-88 -192q0 -42 10 -55q-91 0 -91 84z" />
<glyph unicode="&#x153;" horiz-adv-x="674" d="M8 152q0 38 7 81t26 92.5t47.5 88.5t75.5 65t106 26q97 0 111 -119q69 119 185 119q107 0 107 -103q0 -84 -64.5 -137t-180.5 -65q-1 -11 -1 -31q0 -52 20 -75.5t67 -23.5q108 0 181 109h32q-42 -78 -113 -131.5t-148 -53.5q-51 0 -89 25.5t-52 77.5q-61 -103 -161 -103 q-70 0 -113 38.5t-43 119.5zM118 170q0 -53 19 -76.5t65 -23.5t83 61t47 164q-40 0 -40 41q0 46 43 51q-7 63 -60 63q-47 0 -84.5 -50t-55 -113t-17.5 -117zM433 239q84 12 134 58t50 113q0 46 -42 46q-52 0 -90 -65t-52 -152z" />
<glyph unicode="&#x178;" horiz-adv-x="614" d="M59 485q0 107 88 186t211 79q15 0 41 -2l94 -389l161 386h46l-194 -437l-66 -308h-109l66 308l-104 406q-84 -22 -127.5 -87t-43.5 -139q0 -58 24 -95q-87 0 -87 92zM408 892q0 22 15 37.5t37 15.5t37.5 -15.5t15.5 -37.5t-15.5 -37t-37.5 -15t-37 15t-15 37zM572 892 q0 22 15 37.5t37 15.5t37.5 -15.5t15.5 -37.5t-15.5 -37t-37.5 -15t-37 15t-15 37z" />
<glyph unicode="&#x2c6;" horiz-adv-x="293" d="M5 561l201 167h21l61 -167h-22l-65 101l-162 -101h-34z" />
<glyph unicode="&#x2dc;" horiz-adv-x="403" d="M44 586q44 88 150 88q35 0 80 -14.5t69 -14.5q37 0 57 20h5q-8 -33 -51.5 -61.5t-93.5 -28.5q-31 0 -79.5 16.5t-71.5 16.5q-34 0 -60 -24z" />
<glyph unicode="&#x2000;" horiz-adv-x="500" />
<glyph unicode="&#x2001;" horiz-adv-x="1000" />
<glyph unicode="&#x2002;" horiz-adv-x="500" />
<glyph unicode="&#x2003;" horiz-adv-x="1000" />
<glyph unicode="&#x2004;" horiz-adv-x="333" />
<glyph unicode="&#x2005;" horiz-adv-x="250" />
<glyph unicode="&#x2006;" horiz-adv-x="166" />
<glyph unicode="&#x2007;" horiz-adv-x="166" />
<glyph unicode="&#x2008;" horiz-adv-x="125" />
<glyph unicode="&#x2009;" horiz-adv-x="200" />
<glyph unicode="&#x200a;" horiz-adv-x="55" />
<glyph unicode="&#x2010;" horiz-adv-x="321" d="M41 231l16 70h200l-15 -70h-201z" />
<glyph unicode="&#x2011;" horiz-adv-x="321" d="M41 231l16 70h200l-15 -70h-201z" />
<glyph unicode="&#x2012;" horiz-adv-x="321" d="M41 231l16 70h200l-15 -70h-201z" />
<glyph unicode="&#x2013;" horiz-adv-x="381" d="M41 231l16 70h260l-15 -70h-261z" />
<glyph unicode="&#x2014;" horiz-adv-x="471" d="M41 231l16 70h350l-15 -70h-351z" />
<glyph unicode="&#x2018;" horiz-adv-x="210" d="M91 561q0 50 39.5 108t88.5 79q9 -6 9 -17q0 -16 -20 -47.5t-20 -46.5q0 -16 17 -31.5t17 -44.5q0 -31 -19.5 -49t-46.5 -18q-32 0 -48.5 19t-16.5 48z" />
<glyph unicode="&#x2019;" horiz-adv-x="207" d="M107 511q0 16 20 47.5t20 46.5q0 16 -17 31.5t-17 44.5q0 31 19.5 49t46.5 18q32 0 48.5 -19t16.5 -48q0 -50 -39.5 -108t-88.5 -79q-9 6 -9 17z" />
<glyph unicode="&#x201a;" horiz-adv-x="212" d="M-18 -109q0 16 20 47.5t20 46.5q0 16 -17 31.5t-17 44.5q0 31 19.5 49t46.5 18q63 0 63 -60q0 -50 -40 -111.5t-86 -82.5q-9 6 -9 17z" />
<glyph unicode="&#x201c;" horiz-adv-x="429" d="M91 561q0 50 39.5 108t88.5 79q9 -6 9 -17q0 -16 -20 -47.5t-20 -46.5q0 -16 17 -31.5t17 -44.5q0 -31 -19.5 -49t-46.5 -18q-32 0 -48.5 19t-16.5 48zM310 561q0 50 39.5 108t88.5 79q9 -6 9 -17q0 -16 -20 -47.5t-20 -46.5q0 -16 17 -31.5t17 -44.5q0 -31 -19.5 -49 t-46.5 -18q-32 0 -48.5 19t-16.5 48z" />
<glyph unicode="&#x201d;" horiz-adv-x="426" d="M107 511q0 16 20 47.5t20 46.5q0 16 -17 31.5t-17 44.5q0 31 19.5 49t46.5 18q32 0 48.5 -19t16.5 -48q0 -50 -39.5 -108t-88.5 -79q-9 6 -9 17zM326 511q0 16 20 47.5t20 46.5q0 16 -17 31.5t-17 44.5q0 31 19.5 49t46.5 18q32 0 48.5 -19t16.5 -48q0 -50 -39.5 -108 t-88.5 -79q-9 6 -9 17z" />
<glyph unicode="&#x201e;" horiz-adv-x="433" d="M-18 -109q0 16 20 47.5t20 46.5q0 16 -17 31.5t-17 44.5q0 31 19.5 49t46.5 18q63 0 63 -60q0 -50 -40 -111.5t-86 -82.5q-9 6 -9 17zM203 -109q0 16 20 47.5t20 46.5q0 16 -17 31.5t-17 44.5q0 31 19.5 49t46.5 18q63 0 63 -60q0 -50 -40 -111.5t-86 -82.5q-9 6 -9 17z " />
<glyph unicode="&#x2022;" horiz-adv-x="257" d="M35 267q0 35 24 59t58 24q35 0 59 -24t24 -59q0 -34 -24 -58t-59 -24t-58.5 23.5t-23.5 58.5z" />
<glyph unicode="&#x2026;" horiz-adv-x="695" d="M-12 61q0 27 19.5 47t46.5 20t47 -20t20 -47t-20 -46.5t-47 -19.5q-28 0 -47 19t-19 47zM225 61q0 27 19.5 47t46.5 20t47 -20t20 -47t-20 -46.5t-47 -19.5q-28 0 -47 19t-19 47zM470 61q0 27 19.5 47t46.5 20t47 -20t20 -47t-20 -46.5t-47 -19.5q-28 0 -47 19t-19 47z " />
<glyph unicode="&#x202f;" horiz-adv-x="200" />
<glyph unicode="&#x2039;" horiz-adv-x="308" d="M8 254l216 195l42 -45l-175 -151l137 -140l-40 -44z" />
<glyph unicode="&#x203a;" horiz-adv-x="311" d="M17 114l175 151l-137 140l40 44l180 -185l-216 -195z" />
<glyph unicode="&#x205f;" horiz-adv-x="250" />
<glyph unicode="&#x20ac;" horiz-adv-x="611" d="M20 294l11 40h77q4 36 12 75h-75l11 40h74q16 61 40.5 111.5t61 95t89.5 69.5t117 25q72 0 117.5 -33t45.5 -102q0 -41 -17 -66t-51 -25q-31 0 -44 18q15 9 29 39.5t14 62.5q0 70 -73 70q-76 0 -130 -74.5t-82 -190.5h211l-11 -40h-208q-7 -37 -12 -75h206l-11 -40h-198 q-1 -17 -1 -48q0 -42 5.5 -71.5t21 -57.5t48 -42.5t81.5 -14.5q96 0 160 64v-40q-36 -43 -100.5 -71.5t-135.5 -28.5q-201 0 -201 253q0 36 2 57h-84z" />
<glyph unicode="&#x2122;" horiz-adv-x="483" d="M106 582q0 32 25.5 54t77.5 22q17 0 39.5 -3.5t34.5 -3.5q20 0 36 6q0 -35 -38 -35q-8 0 -48 7l-41 -196h-33l43 201q-4 1 -12 1q-32 0 -47.5 -13t-15.5 -46q0 -17 6 -25q-27 0 -27 31zM278 433l80 218l30 3l-8 -175l73 175h34l-31 -221h-35l22 156l-65 -156h-32l7 154 l-57 -154h-18z" />
<glyph unicode="&#x25fc;" horiz-adv-x="555" d="M0 0v555h555v-555h-555z" />
</font>
</defs>
</svg>
