<?xml version="1.0" standalone="no"?>
<!DOCTYPE svg PUBLIC "-//W3C//DTD SVG 1.1//EN" "http://www.w3.org/Graphics/SVG/1.1/DTD/svg11.dtd" >
<svg xmlns="http://www.w3.org/2000/svg">
<metadata></metadata>
<defs>
<font id="fjordone" horiz-adv-x="1522" >
<font-face units-per-em="2048" ascent="1638" descent="-410" />
<missing-glyph horiz-adv-x="473" />
<glyph horiz-adv-x="2048" />
<glyph horiz-adv-x="2048" />
<glyph unicode="&#xd;" horiz-adv-x="2048" />
<glyph unicode=" "  horiz-adv-x="473" />
<glyph unicode="&#x09;" horiz-adv-x="473" />
<glyph unicode="&#xa0;" horiz-adv-x="473" />
<glyph unicode="!" horiz-adv-x="584" d="M178 85q0 55 25 85.5t88 30.5q115 0 115 -116q0 -55 -25.5 -84.5t-89.5 -29.5q-63 0 -88 29.5t-25 84.5zM192 1448q90 16 196 0q-4 -262 -22 -666l-16 -406q-60 -12 -118 0l-17 409q-18 404 -23 663z" />
<glyph unicode="&#x22;" horiz-adv-x="751" d="M142 1042q16 201 16 291v115q14 8 53.5 9.5t72 -2t32.5 -7.5q0 -223 -77 -411zM435 1042q16 201 16 291v115q14 8 53.5 9.5t72 -2t32.5 -7.5q0 -223 -77 -411z" />
<glyph unicode="#" horiz-adv-x="1121" d="M111 282l4 117h186l52 262h-188l5 119h206l48 239q63 7 113 -22l-44 -217h239l48 239q63 7 113 -22l-44 -217h163q10 -59 0 -119h-187l-53 -262h185q4 -20 4 -58.5t-4 -58.5h-208l-43 -214l-113 10l40 204h-240l-43 -214l-113 10l40 204h-166zM416 399h241l52 262h-240z " />
<glyph unicode="$" horiz-adv-x="947" d="M115 52l38 250l97 3q13 -49 19 -163q4 -2 16.5 -8.5t16.5 -8.5t15 -8t16 -8t15.5 -6.5t16.5 -6t16.5 -5t19 -5t19.5 -3.5t22 -3v376q-13 6 -137 59q-154 60 -154 241q0 119 72.5 197.5t218.5 92.5v150q43 11 92 0v-147q159 -5 282 -37q-8 -176 -45 -277l-90 5l-12 165 q-45 27 -135 38v-349q96 -40 179 -84q133 -71 133 -222q0 -68 -22 -122.5t-54.5 -87.5t-76.5 -56.5t-81.5 -33.5t-77.5 -14v-141q-20 -6 -51 -5.5t-41 5.5v139q-92 6 -184 29t-143 51zM302 787q0 -45 19 -77t74 -58q30 -14 47 -21v313q-67 -9 -103.5 -51t-36.5 -106zM534 81 q56 11 93 47.5t47 90.5q8 48 -6 91t-56 64q-45 24 -78 39v-332z" />
<glyph unicode="%" horiz-adv-x="1362" d="M88 855q0 114 70 188.5t199 74.5q69 0 116.5 -20t72.5 -58t35 -82.5t10 -102.5q0 -117 -71.5 -191.5t-200.5 -74.5q-67 0 -113.5 19.5t-71.5 57.5t-35.5 83.5t-10.5 105.5zM217 855q0 -101 29.5 -136.5t91.5 -35.5q57 0 89.5 36.5t32.5 135.5q0 100 -30 134.5t-92 34.5 q-57 0 -89 -35.5t-32 -133.5zM282 -23l675 1164q56 -9 97 -54l-673 -1155zM764 232q0 117 69.5 192t199.5 75q69 0 116 -20t72 -58t35.5 -83.5t10.5 -105.5q0 -115 -71.5 -189t-198.5 -74q-69 0 -116 19.5t-72 57.5t-35 82.5t-10 103.5zM893 232q0 -101 29 -136t90 -35 q59 0 92 36t33 135q0 100 -31 136t-94 36q-56 0 -87.5 -37t-31.5 -135z" />
<glyph unicode="&#x26;" horiz-adv-x="1382" d="M97 324q-2 78 21.5 148.5t67 127t87.5 97t99 80.5q-138 227 -138 369q0 50 10.5 94.5t38.5 89t73 76t119 51.5t170 20q85 0 164.5 -14.5t110.5 -35.5l-48 -137q-46 26 -110 40t-122 14q-236 0 -236 -178q0 -146 144.5 -368t352.5 -435q76 175 121 486l-217 28q-1 1 -1 3 v2l-1 2v31q1 3 1 7v1q1 1 1 2q0 15 10 30q0 1 1 2h488l10 -85l-4 -2q-11 -5 -39 -11q-1 0 -3 -0.5t-3 -0.5l-7 -2l-60 -10h-5q-81 -389 -194 -579q170 -159 287 -222q42 -23 94 -43l-23 -90q-27 -15 -65.5 -12t-73 13.5t-59.5 25.5q-99 53 -255 198l-18 -19 q-142 -147 -376 -147q-403 0 -413 353zM277 374q-2 -41 3.5 -77t22.5 -73t45.5 -63t77.5 -42.5t113 -16.5q90 0 163.5 32.5t116.5 84.5q-219 221 -378 451q-78 -80 -119.5 -146.5t-44.5 -149.5z" />
<glyph unicode="'" horiz-adv-x="372" d="M102 1042q16 235 16 291v115q14 8 53.5 9.5t72.5 -2t33 -7.5q0 -218 -79 -411z" />
<glyph unicode="(" horiz-adv-x="664" d="M149 584q-7 674 350 1186l99 -61q-301 -474 -296 -1123q1 -96 15.5 -207t47 -250t97.5 -290.5t155 -282.5l-97 -66q-39 48 -79.5 107.5t-94.5 165.5t-95 221t-70.5 274.5t-31.5 325.5z" />
<glyph unicode=")" horiz-adv-x="667" d="M54 1704l97 66q40 -49 79.5 -108t94 -165t95.5 -221t71 -274.5t32 -325.5q7 -674 -350 -1186l-100 61q304 479 295 1123q-1 96 -15.5 206.5t-46.5 250t-97 291t-155 282.5z" />
<glyph unicode="*" horiz-adv-x="967" d="M66 1189q141 38 360 42q-5 4 -16 12q-169 128 -257 173q-9 5 -18 9q10 31 44.5 67.5t66.5 52.5q140 -128 234 -283q14 227 5 337q46 9 89.5 2t75.5 -27q-41 -198 -123 -345q138 50 307 158q29 -31 42.5 -79t7.5 -86q-136 -39 -361 -52q223 -163 287 -189 q-15 -34 -50 -72.5t-68 -48.5q-93 93 -221 281q-19 -191 -11 -345q-28 -6 -84 4.5t-81 33.5q23 103 123 341q-139 -49 -307 -151q-23 31 -36.5 79t-8.5 86z" />
<glyph unicode="+" horiz-adv-x="1037" d="M95 489l4 118h352v345q22 5 63 5t63 -5v-345h361q10 -58 0 -118h-361v-359h-126v359h-356z" />
<glyph unicode="," horiz-adv-x="485" d="M40 -309q41 54 90.5 156.5t65.5 181.5l-85 56q13 106 90 125q53 13 113 -9q68 -23 65 -104q-5 -104 -102 -245.5t-175 -201.5z" />
<glyph unicode="-" horiz-adv-x="650" d="M95 499l4 125h451q4 -22 4 -63t-4 -62h-455z" />
<glyph unicode="." horiz-adv-x="485" d="M118 90q0 125 125 125q123 0 123 -125q0 -126 -123 -126q-125 0 -125 126z" />
<glyph unicode="/" horiz-adv-x="860" d="M43 -343l692 1981q76 -14 120 -41l-695 -1978z" />
<glyph unicode="0" horiz-adv-x="1302" d="M140 510q0 114 34.5 211.5t100.5 171.5t171 116t239 42q108 0 190.5 -27t136 -74t87 -116t47 -146.5t13.5 -172.5q0 -115 -35.5 -213t-103.5 -172.5t-174.5 -116.5t-240.5 -42q-108 0 -189.5 28t-133.5 75.5t-84 117.5t-45 147t-13 171zM322 512q0 -102 16.5 -178 t44.5 -123.5t70.5 -76.5t88.5 -40t105 -11q329 0 329 429q0 102 -17 178t-45.5 123.5t-71.5 76.5t-89.5 40t-105.5 11q-325 0 -325 -429z" />
<glyph unicode="1" horiz-adv-x="787" d="M97 990q71 25 198.5 44t177.5 15l30 -25v-909q126 -16 178 -25q4 -27 -7 -90h-527l-7 90q93 15 196 25v787l-228 3z" />
<glyph unicode="2" horiz-adv-x="990" d="M102 133q7 5 64.5 52t83 68t81 69t89.5 81t74.5 76.5t67.5 80.5q68 87 65 189q-2 95 -46 131.5t-148 36.5q-112 0 -242 -68l-3 -1.5l-3 -1.5t-3 -2l-62 94q12 14 53.5 38t119.5 49.5t154 25.5q200 0 287.5 -81.5t73.5 -260.5q-5 -62 -50.5 -137t-108.5 -141t-142.5 -133 t-142 -112.5t-116.5 -79.5l440 16l36 155q60 3 115 -5q4 -103 -12 -272h-694q-13 21 -22 62.5t-9 70.5z" />
<glyph unicode="3" horiz-adv-x="893" d="M63 947q9 10 31 25t59.5 34t94 32t118.5 13q168 0 246 -59.5t78 -188.5q0 -87 -67.5 -162.5t-164.5 -110.5q92 -7 156 -33t97.5 -68t47.5 -89t14 -108q0 -103 -36 -184.5t-96.5 -134.5t-144.5 -88t-174.5 -49.5t-193.5 -14.5h-29q-9 26 -9 57q0 22 2 31q95 0 181 19.5 t161.5 60t120.5 113.5t45 170q0 32 -4 57t-20 57t-44 53t-81.5 36t-126.5 15h-105q-14 33 -14 73q51 17 102.5 45t100.5 64.5t79.5 84t30.5 95.5q0 66 -43.5 95.5t-127.5 29.5q-108 0 -225 -62z" />
<glyph unicode="4" horiz-adv-x="1085" d="M66 175q329 563 568 919q35 -2 80 -28t73 -64q-249 -331 -572 -817l437 11v406l149 36l22 -21v-421l144 5q5 -21 4.5 -64.5t-4.5 -60.5h-144v-286q-29 -5 -89 -4.5t-82 4.5v286h-537z" />
<glyph unicode="5" horiz-adv-x="917" d="M102 -182q0 22 2 31q100 0 210 29t175 82q125 98 120 283q-2 109 -55 157.5t-180 48.5q-71 0 -204 -16l-17 11l34 582l562 23q4 -22 3 -68.5t-8 -73.5l-422 6l-29 -360q90 17 178 17q154 0 237.5 -79.5t83.5 -240.5q0 -110 -35.5 -195t-95.5 -140t-146 -90t-179 -49.5 t-203 -14.5h-22q-9 26 -9 57z" />
<glyph unicode="6" horiz-adv-x="1125" d="M147 501q0 87 11 167.5t38 169.5t82 166t133 130q84 57 194 90.5t225 33.5q3 0 87 -6q7 -15 7 -50q0 -20 -2 -36h-31q-111 0 -221.5 -39t-177.5 -96q-83 -70 -118.5 -165t-49.5 -209q116 116 333 116q82 0 143 -19t98.5 -50.5t60 -80.5t30.5 -102t8 -122 q0 -101 -28 -179.5t-70 -124.5t-99.5 -75t-109.5 -39t-106 -10q-235 0 -336 133t-101 397zM319 555v-13v-62t2.5 -65.5t6.5 -70.5t13 -66.5t21.5 -64.5t32 -53.5t44.5 -45t59.5 -27.5t76.5 -11q248 0 248 290q0 52 -4.5 90t-18.5 76t-38.5 61.5t-67 38.5t-101.5 15 q-91 0 -173 -34t-101 -58z" />
<glyph unicode="7" horiz-adv-x="999" d="M122 1009q0 3 2 8t2 7h737q44 -63 44 -111q-298 -511 -517 -1152q-43 0 -94.5 16t-70.5 34q87 238 199 470.5t189.5 364.5t152.5 245h-499l-21 -172q-63 -3 -116 5q0 6 -4.5 78.5t-5 108t1.5 98.5z" />
<glyph unicode="8" horiz-adv-x="1121" d="M128 275q0 103 76 192.5t191 139.5q-135 54 -193 125.5t-58 172.5q0 82 29.5 144t82 99.5t114 57t135.5 25.5h34q75 0 136 -12t115 -40.5t84.5 -81.5t30.5 -128q0 -42 -6.5 -74.5t-28 -76.5t-71.5 -86.5t-127 -81.5q141 -61 190 -95q108 -74 122 -195q2 -20 2 -41 q0 -92 -34.5 -160.5t-98 -109t-145 -60.5t-181.5 -20q-189 0 -294 75t-105 231zM300 293q0 -107 52 -163.5t187 -56.5h33q115 0 179.5 55.5t64.5 171.5q0 120 -147 187l-177 85q-65 -40 -106.5 -80.5t-58.5 -78.5t-22 -63.5t-5 -56.5zM300 931q0 -62 37.5 -105.5 t113.5 -78.5l121 -55q95 72 133.5 125t38.5 142q0 93 -54 129.5t-149 36.5h-14q-96 0 -161.5 -48t-65.5 -146z" />
<glyph unicode="9" horiz-adv-x="1092" d="M95 647q-1 94 25 167t69.5 117t103.5 72.5t119.5 38.5t124.5 9q211 -1 306 -115.5t95 -349.5q0 -132 -10.5 -230t-39.5 -194.5t-85 -172t-142 -133.5q-167 -111 -424 -97q-9 28 -10 42.5t3 42.5q84 0 185 31.5t167 84.5q82 70 120.5 159t55.5 247q-116 -116 -332 -116 q-82 0 -141 20t-95 53t-57 86t-29 108t-9 130zM267 667q1 -42 2 -67t6 -59.5t13.5 -55.5t24.5 -44t39.5 -35.5t58 -21t78.5 -8.5q92 0 174 33t101 56q10 120 0 223q-6 115 -68 185.5t-184 73.5q-50 1 -91.5 -11t-78 -41.5t-56.5 -87.5t-19 -140z" />
<glyph unicode=":" horiz-adv-x="460" d="M115 88q0 115 117 115q113 0 113 -115q0 -117 -113 -117q-117 0 -117 117zM115 834q0 116 117 116q113 0 113 -116q0 -115 -113 -115q-117 0 -117 115z" />
<glyph unicode=";" horiz-adv-x="460" d="M54 -275q39 55 81 143.5t57 164.5l-84 55q14 102 88 122q52 13 111 -9q35 -12 49.5 -35.5t11.5 -66.5q-5 -101 -92.5 -228.5t-162.5 -184.5zM113 834q0 116 117 116q113 0 113 -116q0 -115 -113 -115q-117 0 -117 115z" />
<glyph unicode="&#x3c;" horiz-adv-x="1094" d="M54 458v102l918 435q26 -34 52 -116l-799 -367l808 -347q-2 -21 -22.5 -63.5t-36.5 -54.5z" />
<glyph unicode="=" horiz-adv-x="1042" d="M118 324l4 123h798q3 -22 3 -62t-3 -61h-802zM118 629l4 122h798q3 -20 3 -60.5t-3 -61.5h-802z" />
<glyph unicode="&#x3e;" horiz-adv-x="1094" d="M61 872q2 21 22.5 63.5t36.5 54.5l920 -411v-102l-918 -435q-26 34 -52 116l799 367z" />
<glyph unicode="?" horiz-adv-x="857" d="M73 1378q53 37 154.5 68t202.5 31q196 0 275.5 -79.5t79.5 -274.5q0 -60 -15 -113.5t-35.5 -90.5t-56 -76t-62 -61.5t-70 -57t-64.5 -52.5q-28 -25 -47 -51.5t-27.5 -47t-11.5 -48t-2 -43.5t4 -44.5t4 -40.5q-20 -12 -68.5 -18t-80.5 4q-16 67 -18 112t18.5 97.5 t70.5 102.5q17 17 80.5 73t109 106.5t72.5 106.5q21 43 21 153q0 124 -55 177t-176 53q-69 0 -135 -24l-9 -229q-67 -12 -121 -2q-24 122 -38 269zM227 85q0 55 25 85.5t88 30.5q116 0 116 -116q0 -55 -26 -84.5t-90 -29.5q-63 0 -88 29.5t-25 84.5z" />
<glyph unicode="@" horiz-adv-x="2073" d="M194 584q21 167 66.5 299t115.5 226.5t157.5 160.5t200.5 105t235.5 56t271.5 17q258 0 377 -31q178 -45 254 -188q97 -184 61 -591q-12 -139 -58.5 -251t-110.5 -182.5t-144 -118.5t-155.5 -67.5t-150.5 -20.5q-40 0 -64.5 19t-18.5 61l45 288h-2q-40 -104 -96 -186.5 t-129.5 -135t-148.5 -53.5q-33 -1 -60.5 4t-56 18t-48.5 36t-39 58t-27 84t-11.5 114.5t6.5 148.5q5 50 10.5 91t18 95.5t29 96.5t43.5 85t60.5 71t81.5 44t105 13q207 -10 316 -113l43 97l106 -12l-92 -814q61 13 107 31t97 56t86 92.5t63 143.5t39 207q11 113 14 193.5 t-4 153t-23 119t-49.5 86t-77.5 61t-112.5 36.5t-148.5 20t-192 5q-84 0 -154 -6t-151.5 -25.5t-146.5 -52t-130.5 -88.5t-113 -131.5t-84 -184.5t-52.5 -245q-39 -308 -11.5 -502.5t155.5 -284.5t390 -90q131 0 260 25.5t171 42.5l11 -129q-64 -30 -198.5 -51.5 t-269.5 -19.5q-125 1 -222.5 17.5t-176.5 51.5t-134 91.5t-91.5 135t-52 184.5t-13 237.5t23.5 296.5zM832 454q-17 -187 1.5 -255t88.5 -66q70 0 172.5 114t186.5 271l29 238q-77 33 -158.5 55.5t-116.5 22.5q-50 0 -88 -32t-61 -88t-35.5 -119.5t-18.5 -140.5z" />
<glyph unicode="A" horiz-adv-x="1407" d="M36 90q19 10 103 28l454 1330q98 16 210 0l468 -1335l105 -23l-10 -90h-468l-9 90q54 14 193 32l-128 374h-541l-125 -374h5l203 -32l-9 -90h-440zM454 612h463l-220 635l-18 63l-25 -108z" />
<glyph unicode="B" horiz-adv-x="1328" d="M102 95q40 14 167 33v1203l-161 28q-2 7 -2 35q0 32 12 54h572q239 0 343 -82.5t104 -259.5q0 -111 -55 -199.5t-151 -128.5q148 -22 225.5 -111t77.5 -243q0 -222 -134 -323t-426 -101h-563zM449 122l47 -4q138 -7 203 -7q192 1 268.5 68.5t76.5 229.5v15 q0 67 -18.5 115.5t-52 80t-88 50t-118 25.5t-150.5 7l-168 -5v-575zM449 803l173 5h37q295 10 295 288q0 86 -29.5 135.5t-108.5 75.5t-221 26l-146 -2v-528z" />
<glyph unicode="C" horiz-adv-x="1347" d="M137 709q0 379 174.5 573.5t489.5 194.5q255 0 430 -73l3 -12q1 -69 -13 -169t-28 -154q-41 -10 -113 0l-18 219q-115 63 -308 63q-114 0 -197 -44.5t-133 -128t-73.5 -194t-23.5 -251.5q0 -164 24 -278t79.5 -194.5t147.5 -118.5t227 -38q77 0 150.5 12t110.5 31l57 225 q72 9 106 -4q6 -179 2 -278q-40 -42 -170.5 -80.5t-282.5 -38.5q-85 0 -153.5 8t-137 29t-119.5 56t-96 91t-73.5 132.5t-45 183t-16.5 238.5z" />
<glyph unicode="D" horiz-adv-x="1468" d="M102 95q70 14 170 27v1209q-97 11 -161 26q-5 46 9 91h572q114 0 207 -18t177 -63.5t141 -118t90 -186.5t33 -263v-82q0 -194 -45 -332.5t-134.5 -222.5t-214.5 -123t-294 -39h-544zM451 122l216 -7h50q431 0 431 594v76q0 104 -13.5 183.5t-43 139.5t-72 101.5 t-105.5 68t-138 39.5t-174 16l-151 -2v-1209z" />
<glyph unicode="E" horiz-adv-x="1269" d="M102 90q37 13 167 30v1208l-161 31q-2 7 -2 35q0 32 12 54h1009l14 -16q2 -69 -12 -178t-28 -162q-39 -9 -109 0l-18 239h-525v-523l498 6q7 -41 -6 -135l-492 11v-570h572l66 223q69 4 111 -9q-3 -136 -26 -318l-21 -16h-1040z" />
<glyph unicode="F" horiz-adv-x="1155" d="M102 90q41 14 177 32v1206l-161 31q-3 7 -3 35q0 34 13 54h961l14 -16q2 -68 -11.5 -169t-27.5 -160q-36 -8 -112 0l-18 228h-476v-556l459 5q9 -46 -8 -135l-451 12v-535l268 -32q2 -7 2 -31q0 -34 -11 -59h-606z" />
<glyph unicode="G" horiz-adv-x="1418" d="M130 709q0 378 177 573t492 195q265 0 435 -70l2 -13q1 -69 -12.5 -169t-27.5 -154q-40 -9 -114 0l-18 219q-129 61 -313 61q-113 0 -196.5 -44.5t-133.5 -128t-73.5 -194t-23.5 -251.5q0 -164 24 -279t79.5 -196.5t148.5 -120t227 -38.5q78 0 159.5 13t117.5 32v413h-2 q-11 1 -64 6.5t-103 11.5t-72 11q-2 20 1 54t10 48h476q5 -11 8 -53t1 -44l-75 -29v-454q-56 -51 -196 -94t-289 -43q-66 0 -120.5 4t-111 15t-101.5 29.5t-89 48t-77 69.5t-61.5 95t-46.5 124.5t-28 158t-10 194.5z" />
<glyph unicode="H" horiz-adv-x="1617" d="M102 90q46 16 167 32v1206l-161 31q-2 7 -2 35q0 32 12 54h511l9 -84q-50 -21 -189 -36v-534h712v534l-169 31q-2 7 -2 35q0 32 12 54h494l10 -86q-49 -19 -166 -34v-1206l173 -32q2 -7 2 -33q0 -32 -11 -57h-525l-10 90q18 6 46 11.5t47 8.5t55.5 7t43.5 5v554h-712 v-554l196 -32q2 -7 2 -33q0 -32 -11 -57h-525z" />
<glyph unicode="I" horiz-adv-x="730" d="M95 90q43 15 180 32v1206l-164 31q-3 7 -3 40q0 27 12 49h497l10 -84q-60 -21 -173 -36v-1206l186 -34q3 -7 3 -31q0 -35 -12 -57h-527z" />
<glyph unicode="J" horiz-adv-x="652" d="M-52 -512q83 61 133.5 114t93.5 134t61.5 194t18.5 273v1125l-179 31q-3 17 -3 40q0 31 10 49h517l9 -84q-58 -21 -174 -36v-1161q0 -302 -106.5 -492t-316.5 -287q-48 52 -64 100z" />
<glyph unicode="K" horiz-adv-x="1437" d="M102 90q46 16 167 32v1211q-17 2 -52 5.5t-63 7t-52 9.5l4 93h514q7 -46 0 -93q-25 -5 -54 -8.5t-64 -7.5t-53 -6v-643q17 16 73.5 69.5t75.5 71.5t70 66.5t77 75t73.5 74.5t84 87t84 91t95.5 106q-129 14 -158 20q-5 60 5 97h397q5 -11 5 -55t-3 -46l-45 -19l-512 -501 l474 -709l169 -23q2 -3 0 -43.5t-7 -51.5h-313l-454 713l-191 -153v-438l196 -32q2 -7 2 -33q0 -32 -11 -57h-525z" />
<glyph unicode="L" horiz-adv-x="1193" d="M102 90q37 13 167 30v1208l-163 31v40q3 36 9 49h523l9 -84q-51 -17 -198 -36v-1208h508l71 239q69 4 111 -9q-3 -141 -25 -334l-22 -16h-981z" />
<glyph unicode="M" horiz-adv-x="1921" d="M59 99q11 3 36 6.5t56.5 7t42.5 5.5l104 1208h-12q-103 13 -160 25q-6 47 9 97h425l402 -1243l33 131l333 1110l395 2l5 -99q-50 -11 -145 -23l161 -1211l142 -18q7 -49 -5 -97l-492 -2l-4 97l175 18l-130 990l-19 216l-45 -218l-342 -1094q-78 -20 -169 -7l-373 1127 l-52 194l-9 -200l-83 -1003q122 -10 158 -19q4 -31 -4 -99h-429z" />
<glyph unicode="N" horiz-adv-x="1588" d="M95 1394q0 29 11 54h376l72 -124h1l575 -1000l81 -198l-15 221v981l-175 31q-2 7 -2 35q0 32 12 54h460l9 -86q-92 -26 -151 -34v-1328q-43 -16 -111 -22.5t-108 1.5v3l-655 1136l-66 165l9 -172v-989l196 -32q3 -7 3 -33q0 -30 -12 -57h-499l-9 90q48 17 167 32v1206 l-167 31q-2 7 -2 35z" />
<glyph unicode="O" d="M147 717v2q0 131 20 241.5t66.5 207.5t117 164.5t177.5 106t243 38.5h70q99 0 178.5 -20t135.5 -54.5t97 -89.5t66 -114.5t39.5 -140.5t19.5 -157.5t5 -174.5v-13q0 -129 -20.5 -240t-66.5 -206.5t-115.5 -162.5t-172.5 -105.5t-232 -38.5h-71q-99 0 -179 21t-137 57.5 t-100 91.5t-69.5 117t-43 142t-22.5 157.5t-6 170.5zM340 719q0 -65 2.5 -116.5t9 -113t20 -108.5t34 -95.5t53 -83.5t74 -63t99.5 -42t128 -14q107 0 185 32t124.5 85.5t74.5 138t37.5 173t9.5 207.5q0 70 -2 122.5t-8.5 115t-20 108t-34 93.5t-52.5 80.5t-74.5 59.5 t-101.5 40t-132 13q-77 0 -138.5 -16.5t-105.5 -45t-76.5 -73.5t-52.5 -95.5t-32 -118t-16.5 -134t-4.5 -149.5z" />
<glyph unicode="P" horiz-adv-x="1290" d="M102 97q32 7 96.5 13.5t70.5 7.5v1215q-103 13 -161 26q-3 40 12 89h597q125 0 213.5 -21.5t152.5 -72.5t94.5 -137t30.5 -211q0 -131 -25.5 -222.5t-84.5 -156.5t-157.5 -95.5t-243.5 -30.5q-93 0 -248 24v-407q15 -2 109 -11t125 -15q8 -46 0 -92h-575zM449 631l158 -9 q86 -5 151 4t110 32.5t75 56.5t46.5 82.5t23 103t6.5 125.5q0 57 -5.5 96t-21.5 77t-46 61.5t-78.5 42t-120 25.5t-168.5 5l-130 -2v-700z" />
<glyph unicode="Q" horiz-adv-x="1538" d="M147 717v2q0 131 20 241.5t66.5 207.5t117 164.5t177.5 106t243 38.5h70q99 0 178.5 -20t135.5 -54.5t97 -89.5t66 -114.5t39.5 -140.5t19.5 -157.5t5 -174.5v-13q0 -151 -29.5 -277t-90 -228t-163 -165t-240.5 -78q39 -73 73 -121.5t63.5 -77t66 -42.5t68.5 -18t83 -4 q91 0 153 12l26 -97q-45 -26 -124 -46t-143 -20q-47 0 -87 7.5t-72 24.5t-57.5 34.5t-47.5 47t-37 52t-31.5 60.5t-25 60.5t-23 63.5t-21.5 59h-19q-99 0 -179 21t-137 57.5t-100 91.5t-69.5 117t-43 142t-22.5 157.5t-6 170.5zM340 719q0 -65 2.5 -116.5t9 -113t20 -108.5 t34 -95.5t53 -83.5t74 -63t99.5 -42t128 -14q107 0 185 32t124.5 85.5t74.5 138t37.5 173t9.5 207.5q0 70 -2 122.5t-8.5 115t-20 108t-34 93.5t-52.5 80.5t-74.5 59.5t-101.5 40t-132 13q-77 0 -138.5 -16.5t-105.5 -45t-76.5 -73.5t-52.5 -95.5t-32 -118t-16.5 -134 t-4.5 -149.5z" />
<glyph unicode="R" horiz-adv-x="1347" d="M102 88q46 16 167 32v1213q-103 13 -161 26q-3 40 12 89h561q134 0 223 -19t149 -65.5t86.5 -123t26.5 -193.5q0 -77 -15.5 -147.5t-50 -136.5t-98.5 -114t-152 -67l303 -464l151 -26q1 -4 1 -18t-4 -37t-9 -37h-288l-323 557h-38q-97 0 -194 7v-444l160 -32q3 -7 3 -34 q0 -32 -12 -54h-489zM449 669h158q204 0 288 91.5t84 293.5q0 69 -15.5 119t-51.5 89t-101 57.5t-159 15.5l-203 -4v-662z" />
<glyph unicode="S" horiz-adv-x="1189" d="M133 95l25 320q45 3 119 -6q8 -42 15 -107t13 -106q82 -50 158.5 -77t172.5 -27q127 0 190 62.5t63 174.5q0 61 -12.5 101t-53.5 75q-87 74 -272 172.5t-253 145.5q-51 36 -81 69t-49 83.5t-19 118.5q0 195 115.5 289t319.5 94q114 0 234.5 -19.5t202.5 -50.5 q-15 -186 -40 -318q-67 -5 -121 3l-16 198q-135 72 -280 72q-114 0 -181 -54t-67 -162q0 -78 39.5 -130t129.5 -101l345 -194q67 -37 113.5 -77t70 -72.5t36 -78t14.5 -74t2 -79.5q0 -107 -48 -182.5t-127 -119.5q-118 -65 -321 -65q-109 0 -241 39.5t-196 82.5z" />
<glyph unicode="T" horiz-adv-x="1236" d="M38 1432l21 16h1130l22 -16q0 -145 -22 -331q-46 -11 -113 -2l-20 241h-343v-1214l221 -38q2 -7 2 -31q0 -35 -12 -57h-579l-9 90q18 6 46.5 11.5t50.5 8.5t56 7t45 5v1218h-342l-19 -241q-66 -9 -114 2q-21 177 -21 331z" />
<glyph unicode="U" d="M54 1394q0 32 12 54h516l9 -84q-48 -19 -182 -36v-721q0 -57 1 -96.5t5.5 -87.5t13 -81t23 -70t35 -61t50.5 -47.5t69 -37t90 -21.5t114 -8q69 0 124 14t91.5 36t63.5 57.5t41.5 70.5t23 83.5t10.5 87.5t2 91v791l-171 31q-3 7 -3 35q0 32 12 54h464l9 -86 q-41 -17 -153 -33v-792q0 -104 -15.5 -185.5t-54.5 -154.5t-103 -121t-164 -75.5t-233 -27.5q-98 0 -176 15.5t-133 42.5t-95.5 70.5t-64.5 90.5t-38 111.5t-19 126t-5 140.5v758l-166 31q-3 7 -3 35z" />
<glyph unicode="V" horiz-adv-x="1281" d="M27 1392q0 36 11 56h447l9 -89q-52 -15 -177 -31l350 -1127l18 -73q66 235 194.5 666t157.5 532l-203 33q-2 7 -2 33q0 34 12 56h425l12 -89q-32 -17 -90 -28l-416 -1331q-102 -13 -213 0l-437 1333l-96 26q-2 7 -2 33z" />
<glyph unicode="W" horiz-adv-x="1888" d="M33 1355q-7 45 5 91h449l5 -91l-163 -20l239 -1087l16 -137l36 187l262 938q78 21 172 7l279 -983l31 -156l30 194l227 1037q-128 10 -158 20l5 91h395l4 -91q-39 -13 -85 -20l-305 -1335q-59 -11 -131 -9.5t-115 9.5l-245 865l-39 163l-30 -165l-245 -861 q-57 -9 -127.5 -8.5t-100.5 6.5l-309 1335z" />
<glyph unicode="X" horiz-adv-x="1371" d="M47 92l104 23l435 618l-435 616l-88 13q-4 57 7 86h438q7 -30 7 -86l-141 -20l323 -477l334 470l-149 22q-3 29 7 91h397q12 -29 2 -91l-104 -22l-409 -560l468 -671l94 -12q8 -52 0 -92h-428q-10 45 -2 92l114 12l-352 534l-362 -523l156 -23q0 -59 -7 -92h-404 q-14 49 -5 92z" />
<glyph unicode="Y" horiz-adv-x="1307" d="M21 1392q0 29 12 56h449l10 -89q-62 -17 -152 -30l303 -502l42 -83l353 582l-185 33q-3 7 -3 33q0 36 13 56h420l12 -89q-25 -13 -102 -28l-439 -697v-512l211 -32q2 -7 2 -33q0 -34 -13 -57h-566l-9 90q42 12 196 32v505l-440 706l-112 26q-2 7 -2 33z" />
<glyph unicode="Z" horiz-adv-x="1177" d="M66 133l794 1195h-612v-2l-21 -210q-66 -9 -114 2q-2 19 -12.5 86t-17 125t-5.5 103l12 16h943q15 -21 27.5 -53.5t12.5 -57.5l-796 -1217h664l73 225q66 4 109 -9q-3 -157 -24 -320l-21 -16h-981q-12 21 -21.5 63t-9.5 70z" />
<glyph unicode="[" horiz-adv-x="614" d="M182 -478v2234h397q8 -46 0 -92q-28 -5 -125.5 -11.5t-122.5 -10.5v-2006q26 -4 123 -10t125 -11q8 -46 0 -93h-397z" />
<glyph unicode="\" horiz-adv-x="860" d="M5 1597q44 27 120 41l692 -1981l-117 -38z" />
<glyph unicode="]" horiz-adv-x="629" d="M54 -385q28 5 125 11t123 10v2006q-25 4 -122.5 10.5t-125.5 11.5q-7 46 0 92h397v-2234h-397q-7 47 0 93z" />
<glyph unicode="^" horiz-adv-x="1172" d="M118 787l407 659h106l423 -659q-11 -18 -40 -38t-49 -21l-390 519l-374 -521q-57 13 -83 61z" />
<glyph unicode="_" horiz-adv-x="905" d="M-5 -88h915v-120h-915v120z" />
<glyph unicode="`" horiz-adv-x="469" d="M29 1463l21 43l151 18l239 -363q-29 -41 -79 -55z" />
<glyph unicode="a" horiz-adv-x="1014" d="M78 203v20q3 58 21 103t51 77t74.5 54.5t98.5 36.5t115.5 21.5t133.5 11.5l68 5v104q-1 68 -10.5 108t-35.5 62t-61 28.5t-98 6.5q-111 0 -257 -54l-41 97q2 1 17.5 9t26.5 13.5t33 15.5t41 16.5t47 15t54 13.5t58 8.5t64 3.5q98 0 160 -17.5t100 -60t52.5 -107 t14.5 -165.5v-523h187l7 -83q-33 -14 -106.5 -33t-123.5 -19q-39 0 -65 10.5t-36 30t-13 34t-3 35.5v47h-2q-61 -62 -147 -109.5t-181 -47.5q-46 0 -85.5 10t-77 34.5t-59.5 72.5t-22 115zM250 225q0 -121 126 -121q129 0 264 104v236l-78 -7q-160 -14 -236 -65t-76 -147z " />
<glyph unicode="b" horiz-adv-x="1137" d="M-16 1558q32 14 111 33t130 19q39 0 64.5 -10.5t35 -30t12.5 -34t3 -35.5v-637q3 2 34 21.5t44 26.5t48 23.5t62 24t68.5 14t84.5 6.5q85 0 148 -23.5t103 -65.5t63.5 -106.5t32 -140t5.5 -172.5q-3 -95 -20 -171.5t-41.5 -127.5t-59.5 -89.5t-68.5 -59t-74 -33t-71 -16 t-64.5 -3.5q-54 0 -102.5 12.5t-92.5 39.5t-65.5 42.5t-59.5 47.5q-10 -56 -50 -142q-66 0 -106 27q15 137 15 473v999h-178zM334 223q54 -47 131 -84t147 -37q121 0 178.5 86t62.5 285q1 69 -2 120t-15 103t-34 84t-60 52.5t-92 20.5q-87 0 -169 -26.5t-141 -66.5v-413 q0 -12 -2.5 -55t-3.5 -69z" />
<glyph unicode="c" horiz-adv-x="934" d="M95 465q0 241 111.5 377.5t325.5 136.5q192 0 318 -55q8 -89 -36 -272q-60 0 -97 5l-18 175q-79 38 -200 38q-114 0 -170.5 -89t-56.5 -299q0 -213 66 -294.5t237 -81.5q34 0 71.5 7t68.5 17t56 19.5t42 17.5l17 8l42 -90q-167 -114 -349 -114q-61 0 -109 7t-99.5 25.5 t-89 54t-68 88.5t-46.5 134t-16 185z" />
<glyph unicode="d" horiz-adv-x="1193" d="M95 444q0 535 465 535q128 0 234 -43v534h-192l-11 86q33 13 119 32.5t136 19.5q32 0 54.5 -8t33.5 -17.5t17.5 -27.5t8 -27t2.5 -28v-1394h193l8 -83q-33 -14 -111 -33t-128 -19q-39 0 -64 10.5t-35.5 30t-13.5 34.5t-3 35v34h-3q-63 -53 -172.5 -98.5t-199.5 -45.5 q-84 0 -146 25.5t-98 66.5t-58 104.5t-29 128t-7 148.5zM272 442q0 -67 5 -116t18.5 -92.5t36 -71t59.5 -43t87 -15.5q72 0 160.5 31.5t155.5 74.5v627q-102 23 -196 23q-83 0 -142 -20.5t-94.5 -55t-56 -90t-27 -113.5t-6.5 -139z" />
<glyph unicode="e" horiz-adv-x="983" d="M97 430q-1 283 112 416t321 133q109 0 179 -24.5t110 -81.5t55.5 -137.5t14.5 -205.5l-620 -5q0 -61 1.5 -100.5t6 -85.5t13.5 -74t25 -58.5t39 -48t56 -32.5t76.5 -21t99.5 -6q65 0 149.5 19.5t121.5 32.5l34 -85q-18 -13 -56.5 -31.5t-125.5 -41t-177 -22.5 q-67 0 -118.5 7t-103.5 24.5t-88.5 50.5t-65.5 82.5t-44 124t-15 170.5zM275 622l442 16q-2 65 -15.5 111.5t-32 71t-46.5 37.5t-49 16t-51 3q-127 0 -181.5 -58.5t-66.5 -196.5z" />
<glyph unicode="f" horiz-adv-x="735" d="M76 78q49 17 161 33v735h-149q-6 40 4 88l145 16v272q0 198 92 292t257 94q142 0 258 -79l-73 -135q-52 31 -130.5 61.5t-132.5 30.5q-63 0 -83.5 -42.5t-20.5 -157.5v-336h286q7 -51 0 -104h-286v-735l253 -23q2 -7 2 -36q0 -30 -12 -52h-562z" />
<glyph unicode="g" horiz-adv-x="1009" d="M63 -319q0 87 57.5 174.5t170.5 130.5q-1 1 -8.5 8t-10.5 10.5t-9.5 12.5t-9 16t-5.5 19.5t-2 25t5.5 29.5t12.5 35l58 125q-129 23 -194 114t-65 236q0 94 34.5 165.5t94.5 113.5t134 62.5t161 20.5q153 0 245 -67q39 40 111 63t145 11v-140h-104q-49 0 -84 -4 q55 -80 55 -197q0 -188 -112 -286.5t-310 -98.5h-15l-19 -102q-5 -29 1.5 -47.5t24.5 -27t38 -11.5t49 -2q117 2 194 -4t134 -22t86.5 -48.5t43 -78t13.5 -115.5q0 -85 -32.5 -156.5t-87.5 -119.5t-127.5 -81.5t-151 -49t-160.5 -15.5q-52 1 -99.5 9.5t-96.5 29.5 t-84.5 53.5t-58 86t-22.5 122.5zM232 -291q-3 -105 73.5 -153t193.5 -48q315 0 315 246q0 52 -10 87t-25.5 53.5t-44 28t-54 11.5t-67.5 3h-13q-11 0 -45 0.5t-48 1.5t-39.5 2.5t-45 5t-39.5 8.5q-44 -25 -72.5 -51t-52.5 -76.5t-26 -118.5zM232 612q0 -248 226 -248 q98 0 164 61t66 187q0 79 -16.5 133t-49 82t-71.5 39t-93 11q-48 0 -84.5 -10t-70.5 -36.5t-52.5 -81.5t-18.5 -137z" />
<glyph unicode="h" horiz-adv-x="1243" d="M57 1556q37 15 111.5 33.5t124.5 18.5q39 0 64.5 -10.5t35.5 -29t13 -33.5t3 -35v-643q171 122 340 122q109 0 167 -27t85 -96t27 -199v-550l156 -29q11 -32 -9 -78h-442l-7 78q41 14 134 31v538q0 113 -32.5 155t-118.5 42q-161 0 -300 -64v-669l159 -33q7 -43 -11 -78 h-462l-10 78q54 18 156 33v1359h-173z" />
<glyph unicode="i" horiz-adv-x="657" d="M81 927q45 17 118 34.5t115 17.5q39 0 64 -9t35 -27.5t13 -31t4 -34.5v-5v-761l172 -30q5 -45 -9 -81h-487l-9 78q22 8 49 13.5t66.5 11.5t49.5 8v730h-170zM210 1321q0 115 117 115q115 0 115 -115t-115 -115q-117 0 -117 115z" />
<glyph unicode="j" horiz-adv-x="560" d="M38 -546q139 156 174 260q8 22 13 47.5t7.5 44.5t3.5 52l1.5 49.5t0 59t-0.5 60.5v814h-171l-12 86q45 17 118.5 34.5t115.5 17.5q41 0 66.5 -10t35.5 -29.5t12 -32.5t2 -35v-845q0 -49 -0.5 -75t-3 -74.5t-7.5 -78t-15 -74.5t-24.5 -76t-37 -71t-51.5 -71.5t-69 -64.5 t-88 -62zM185 1321q0 115 115 115t115 -115q0 -116 -115 -116t-115 116z" />
<glyph unicode="k" horiz-adv-x="1137" d="M52 1556q37 15 111.5 33.5t124.5 18.5q39 0 64.5 -10.5t35.5 -29t13 -33.5t3 -35v-979q137 96 421 327q-135 11 -173 22q-5 48 9 80h386l4 -82l-30 -18l-374 -290q22 -32 71 -106.5t81 -122t78 -102t85 -82.5q39 -27 152 -55l2 -65q-41 -36 -116 -41.5t-123 19.5 q-52 25 -126.5 126.5t-219.5 357.5l-129 -72v-307l160 -29q9 -38 -9 -81h-475l-10 78q60 14 169 34v1358h-174z" />
<glyph unicode="l" horiz-adv-x="627" d="M40 1558q32 13 116 32.5t135 19.5q39 0 64.5 -10.5t35 -30t12.5 -34t3 -35.5v-1389l173 -30q6 -37 -7 -81h-487l-9 78q40 11 161 33v1359h-185z" />
<glyph unicode="m" horiz-adv-x="1869" d="M83 927q32 14 108.5 33t127.5 19q39 0 63.5 -10t34 -29.5t11.5 -32.5t2 -35v-17q89 65 165 94.5t163 29.5q113 0 172.5 -29.5t84.5 -104.5l22 15q90 61 170 90t169 29q109 0 167 -27t85 -96t27 -199v-549l156 -27q2 -8 2 -29q0 -30 -12 -52h-442l-8 78q22 8 41.5 12.5 t53 10.5t40.5 7v539q0 108 -33.5 152.5t-117.5 44.5q-90 0 -158.5 -17.5t-145.5 -56.5q6 -50 6 -113v-549l156 -27q3 -8 3 -29q0 -30 -12 -52h-442l-7 78q24 9 135 30v539q0 106 -33.5 151.5t-117.5 45.5q-87 0 -150 -15t-139 -49v-669l163 -30q2 -8 2 -29q0 -32 -11 -52 h-464l-9 78q29 10 156 33v730h-172z" />
<glyph unicode="n" horiz-adv-x="1269" d="M83 927q32 14 108.5 33t127.5 19q39 0 64 -10t35 -29.5t13 -32.5t4 -35v-17q169 124 340 124q82 0 133 -14t85 -50.5t47.5 -98t13.5 -159.5v-549l157 -27q2 -8 2 -29q0 -29 -13 -52h-442l-7 78q41 12 135 30v539q0 113 -33 155t-118 42q-159 0 -300 -64v-669l158 -30 q2 -8 2 -29q0 -32 -11 -52h-464l-9 78q38 11 156 33v730h-172z" />
<glyph unicode="o" horiz-adv-x="1116" d="M95 475q0 107 30 197t89.5 159.5t156.5 108.5t222 39q100 0 175.5 -26t122 -70.5t75.5 -110.5t40 -137t11 -160q0 -107 -30.5 -197t-90 -159.5t-156.5 -108.5t-222 -39q-100 0 -175.5 26t-122 70.5t-75 110.5t-39.5 137t-11 160zM279 475q0 -119 18 -198.5t56 -122 t85.5 -59.5t116.5 -17q62 0 109 17t86.5 59t60.5 123t21 198q0 119 -18 198.5t-56 122t-86 59.5t-117 17q-62 0 -108.5 -17t-86 -59t-60.5 -123t-21 -198z" />
<glyph unicode="p" horiz-adv-x="1191" d="M33 927q34 14 110 33t126 19q39 0 64.5 -10.5t35.5 -30t13 -34t3 -34.5v-13q41 26 61.5 38t71 36.5t104 36t111.5 11.5q84 0 147 -23t102.5 -62.5t63 -98.5t32 -124.5t7.5 -147.5q-2 -136 -25.5 -237t-59 -160t-88 -95t-103.5 -48t-114 -12q-173 0 -303 105v-549l260 -26 q3 -48 -7 -92h-572l-10 83q42 13 162 35v1314h-180zM392 187q117 -85 272 -85q61 0 104.5 22t69.5 57.5t41 93t20 113.5t6 135q1 54 -2.5 95.5t-15.5 88t-33.5 76.5t-60 50t-91.5 20q-87 0 -169 -26.5t-141 -66.5v-573z" />
<glyph unicode="q" horiz-adv-x="1130" d="M97 437q-1 252 116 397t288 145q153 0 336 -111q27 97 35 111q2 0 16.5 -2t17.5 -2.5t15 -2t17.5 -3.5t15 -4.5t17.5 -6t17 -8.5q-23 -223 -23 -470v-953l151 -26q0 -56 -10 -92h-558l-9 86q33 11 120.5 20.5t136.5 11.5v581q-63 -52 -167 -94.5t-194 -42.5 q-67 0 -116 12t-92.5 43t-70.5 83t-42.5 134t-16.5 194zM275 442q0 -67 5 -115.5t18 -92.5t36 -71.5t59.5 -43t86.5 -15.5q72 0 160.5 31t155.5 75v350q0 19 12 227q-178 73 -269 73q-73 0 -125.5 -30t-82 -87.5t-43 -131t-13.5 -169.5z" />
<glyph unicode="r" horiz-adv-x="825" d="M68 927q45 18 121 35t116 17q33 0 55.5 -7.5t34.5 -18.5t18 -31.5t7 -36.5t1 -44v-77q11 23 37.5 67.5t40.5 61.5q70 90 200 90q60 0 93 -9q8 -64 -5 -158q-52 9 -99 9q-81 0 -142 -26q-53 -22 -118 -102v-586l231 -23q2 -7 2 -36q0 -39 -7 -52h-546l-9 78q25 9 161 33 v730h-179z" />
<glyph unicode="s" horiz-adv-x="896" d="M78 52q11 84 37 250l97 3q14 -49 20 -165q107 -64 255 -64q32 0 61.5 8.5t56 34.5t33.5 66q8 46 -6 89t-55 64q-90 51 -310 142q-81 32 -117.5 86.5t-36.5 142.5q0 127 86 198.5t264 71.5q171 0 315 -38q0 -3 -1.5 -28t-2.5 -40.5t-4.5 -46t-7.5 -54t-11.5 -53.5 t-17.5 -55l-90 5l-12 165q-30 18 -89 30.5t-102 12.5q-176 0 -176 -137q0 -44 19 -72.5t74 -55.5q11 -5 123 -51t196 -90q132 -70 132 -218q0 -57 -15.5 -102.5t-38.5 -74.5t-59 -50t-67 -31t-73 -16t-66.5 -7t-58.5 -1q-86 0 -190.5 25t-161.5 56z" />
<glyph unicode="t" horiz-adv-x="719" d="M50 846q-6 43 4 92l133 12l43 274h120v-274h300q6 -51 0 -104h-300v-515q0 -68 2.5 -106t9 -67.5t22 -41t35.5 -16.5t56 -5q40 0 98 11.5t91 26.5l31 -86q-60 -36 -139.5 -56t-149.5 -20q-64 0 -107 19t-65.5 43t-33 77t-12 89t-1.5 112v29v506h-137z" />
<glyph unicode="u" horiz-adv-x="1220" d="M47 924q134 55 210 55q39 0 64.5 -10t36 -29t13.5 -33.5t3 -34.5v-570q0 -116 33.5 -152.5t129.5 -38.5q59 -2 145.5 25.5t147.5 61.5v643h-173l-12 86q36 15 110 33.5t124 18.5q39 0 64.5 -10t35.5 -29t13 -33.5t3 -34.5v-766h182l7 -83q-35 -15 -108.5 -33.5 t-123.5 -18.5q-39 0 -64.5 10.5t-35 30t-12.5 34t-3 35.5v41h-3q-70 -56 -171.5 -103.5t-202.5 -47.5q-71 0 -117 14t-77.5 50.5t-44.5 98.5t-13 159v548h-149z" />
<glyph unicode="v" horiz-adv-x="1082" d="M27 898q0 32 11 52h411l7 -78q-74 -18 -140 -29q19 -55 111.5 -323t140.5 -412l27 102l212 632l-162 28q-2 7 -2 28q0 27 11 52h383l10 -85q-22 -10 -92 -26l-305 -839q-65 -13 -210 -2l-312 846l-99 26q-2 7 -2 28z" />
<glyph unicode="w" horiz-adv-x="1576" d="M14 898q0 32 13 52h427l6 -78q-68 -17 -160 -30l158 -617l27 -117q41 164 120 467.5t97 374.5q71 20 180 2q16 -59 98.5 -368.5t125.5 -475.5q41 143 117.5 409t92.5 323l-172 30q-3 7 -3 28q0 30 12 52h383l9 -85q-22 -11 -90 -26l-264 -841q-58 -10 -117.5 -8t-90.5 10 l-189 672l-21 117l-17 -115l-184 -672q-35 -10 -109.5 -10.5t-98.5 8.5l-247 844l-101 26q-2 7 -2 28z" />
<glyph unicode="x" horiz-adv-x="1031" d="M38 81l99 25l287 365l-302 379l-84 20q-3 39 12 77h383l4 -79l-110 -24l200 -272l197 274l-135 24q-5 45 9 80h359l8 -78l-97 -26l-273 -345l332 -406l90 -14q7 -47 -11 -81h-372l-7 78l99 12l-234 302l-215 -288l144 -23q0 -48 -10 -81h-361z" />
<glyph unicode="y" horiz-adv-x="1062" d="M-5 -564l23 82q103 -12 157 -7q51 4 93.5 25t81.5 76q81 119 175 388h-90l-342 844l-72 26q-3 7 -3 28q0 23 13 52h397l7 -78q-45 -14 -148 -30l238 -627l30 -123l241 748l-174 30q-2 7 -2 28q0 27 11 52h400l9 -85q-25 -11 -92 -26l-289 -837l-12 -31 q-32 -91 -58 -161.5t-43.5 -113t-28.5 -67t-20.5 -45t-11.5 -24.5q-51 -104 -106 -142t-156 -38q-64 0 -129 16t-99 40z" />
<glyph unicode="z" horiz-adv-x="927" d="M92 128l560 716h-395l-34 -185l-101 5q-21 174 -4 286h685q16 -21 28.5 -53t12.5 -58l-569 -731h431l38 183l104 -5q6 -46 6 -135.5t-6 -150.5h-726q-12 21 -21 60.5t-9 67.5z" />
<glyph unicode="{" horiz-adv-x="865" d="M109 591v99l239 140q33 20 33 80v539q0 43 5.5 76t27 75.5t59 74t107 61.5t165.5 47l33 -83l-153 -83q-51 -35 -70.5 -67t-19.5 -98v-516q0 -90 -22.5 -138.5t-77.5 -78.5l-155 -83l151 -75q104 -56 104 -199v-548q0 -67 19.5 -102t70.5 -64l158 -92l-38 -78 q-96 17 -165.5 46.5t-107 61t-59 74t-27 76t-5.5 76.5v573q0 33 -10.5 47.5t-41.5 33.5z" />
<glyph unicode="|" horiz-adv-x="650" d="M248 -437v2193h133v-2193h-133z" />
<glyph unicode="}" horiz-adv-x="879" d="M92 1704l38 78q96 -17 165.5 -46.5t107 -61t59 -74t27 -76t5.5 -76.5v-573q0 -33 10.5 -47.5t41.5 -33.5l220 -125v-99l-239 -140q-33 -20 -33 -80v-539q0 -43 -5.5 -76t-27 -75.5t-59 -74t-107 -61.5t-165.5 -47l-33 83l153 83q51 35 70.5 67t19.5 98v516 q0 90 22.5 138.5t77.5 78.5l155 83l-151 75q-104 56 -104 199v548q0 67 -19.5 102t-70.5 64z" />
<glyph unicode="~" horiz-adv-x="1002" d="M73 487q27 57 100.5 107.5t150.5 50.5q72 0 136 -20.5t120 -40.5t108 -20q53 0 90.5 21t86.5 67l64 -40q-21 -56 -52.5 -96t-67 -60t-68.5 -29t-67 -9q-68 0 -186 41.5t-186 41.5q-52 0 -91 -14.5t-91 -51.5z" />
<glyph unicode="&#xa1;" horiz-adv-x="584" d="M178 865q0 54 26 84t89 30t88 -29.5t25 -84.5t-25 -85.5t-88 -30.5q-115 0 -115 116zM194 -501q2 258 21 666l17 407q61 11 122 0l18 -409q18 -443 23 -664q-97 -21 -201 0z" />
<glyph unicode="&#xa2;" horiz-adv-x="943" d="M104 515q0 223 95.5 357t280.5 153v173q43 13 92 0v-170q172 -4 287 -54q8 -89 -36 -272q-60 0 -97 5l-18 175q-55 26 -136 34v-760h12q34 0 71.5 7t68.5 17t56 19.5t42 17.5l17 8l42 -90q-151 -101 -309 -113v-192q-21 -6 -51.5 -5t-40.5 5v192q-65 4 -116.5 17.5 t-102 47.5t-83.5 87t-53.5 139.5t-20.5 201.5zM281 532q0 -179 44.5 -262.5t154.5 -105.5v755q-100 -10 -149.5 -100t-49.5 -287z" />
<glyph unicode="&#xa3;" horiz-adv-x="920" d="M57 473l4 109h147q-1 44 -5.5 112.5t-4.5 87.5q0 127 86 198t264 71q127 0 268 -37q-8 -175 -45 -277l-90 5l-12 171q-21 11 -66.5 18t-77.5 7q-88 0 -127 -30.5t-39 -106.5q0 -31 8 -219h224q8 -55 0 -109h-224q-5 -78 -20 -142q-16 -68 -45 -115.5t-83 -107.5l440 14 l36 155q63 3 115 -5q5 -70 -11 -272h-695q-18 32 -28 102q71 90 98 171.5t32 199.5h-149z" />
<glyph unicode="&#xa4;" horiz-adv-x="981" d="M111 232l119 125q-50 77 -50 175q0 97 51 174l-116 119q30 45 79 77l118 -112q78 54 175 54q95 0 175 -56l120 117q16 -6 41.5 -30.5t36.5 -42.5l-119 -124q53 -80 53 -176q0 -93 -50 -172l128 -128l-78 -76l-128 121q-78 -58 -179 -58q-99 0 -179 56l-121 -117zM293 532 q0 -84 54.5 -141t139.5 -57t138.5 56.5t53.5 141.5t-53.5 141.5t-138.5 56.5q-87 0 -140.5 -56.5t-53.5 -141.5z" />
<glyph unicode="&#xa5;" horiz-adv-x="1106" d="M50 941q-3 30 4 83h402q4 -29 4 -86l-122 -16l182 -258l64 -114l56 107l194 265l-142 16q-3 41 5 86h338q5 -29 5 -83l-75 -19l-271 -378h181q7 -48 0 -95h-241v-120h243q8 -48 0 -95h-243v-130q131 -17 155 -21q7 -42 0 -83h-473l-7 83q25 5 50 8.5t57 7t49 5.5v130 h-217v95h217v120h-219v95h166l-270 378z" />
<glyph unicode="&#xa6;" horiz-adv-x="650" d="M248 -437v952h133v-952h-133zM248 834v922h133v-922h-133z" />
<glyph unicode="&#xa7;" horiz-adv-x="922" d="M120 988q0 255 162 394q111 95 313 95q97 0 194 -40l-54 -140q-104 58 -220 58q-13 -88 -5 -180q10 -137 45.5 -272t78.5 -242.5t84.5 -214.5t69.5 -228t28 -241q0 -256 -162 -395q-110 -94 -314 -94q-95 0 -193 39l54 139q103 -56 220 -56h3q11 92 4 180q-8 116 -35 231 t-61 203.5t-71.5 186.5t-68.5 182.5t-51.5 188t-20.5 206.5zM260 1026q1 -58 8 -113t27.5 -129t34 -118t50 -152.5t53.5 -159.5q16 -49 27.5 -86.5t25.5 -90t23.5 -97.5t18 -102t12 -111t3 -117t-6.5 -127q44 14 73.5 46t43 78.5t18.5 90.5t5 101q-1 57 -8 112t-27.5 129 t-34 117.5t-50.5 152.5t-53 159q-103 312 -108 566q-3 80 22 170q-42 -9 -65 -26q-56 -44 -74 -117t-18 -176z" />
<glyph unicode="&#xa8;" horiz-adv-x="629" d="M11 1309q0 107 104 107q59 0 83 -27t24 -80q0 -103 -107 -103q-104 0 -104 103zM407 1309q0 107 103 107q60 0 83.5 -27t23.5 -80q0 -103 -107 -103q-103 0 -103 103z" />
<glyph unicode="&#xa9;" horiz-adv-x="1588" d="M70 695q0 148 57 282t153.5 230.5t230.5 153.5t283 57q198 0 364.5 -96.5t263 -263t96.5 -363.5q0 -149 -57 -283t-154 -230.5t-231 -153.5t-282 -57q-149 0 -283 56.5t-231 153.5t-153.5 231t-56.5 283zM192 695q0 -125 45.5 -237t124 -194t191 -130.5t241.5 -48.5 t241 48.5t190.5 130.5t123.5 194t45 237q0 167 -75.5 306t-213.5 221t-311 82q-174 0 -313 -82t-214 -221t-75 -306zM451 685q0 194 90 304t262 110q165 0 277 -55q5 -42 -6.5 -110.5t-24.5 -106.5q-52 0 -80 3l-10 137q-72 39 -181 39q-92 0 -137.5 -70t-45.5 -239 t53 -233.5t189 -64.5q80 0 227 55l32 -75q-14 -12 -49.5 -30.5t-108.5 -40.5t-144 -22q-58 0 -103 8t-92 33t-78 67.5t-50.5 116t-19.5 174.5z" />
<glyph unicode="&#xaa;" horiz-adv-x="863" d="M54 882v16q0 224 406 253l65 4v34q-1 106 -34.5 137t-131.5 31q-81 0 -219 -50l-36 87q142 83 288 83q165 0 223.5 -63.5t58.5 -234.5v-363q0 -2 7 -1l7 1q52 0 115 21l27 -71q-6 -10 -43 -33q-70 -36 -147 -36q-60 0 -81.5 23t-24.5 67l-2 33q-49 -48 -120 -85.5 t-150 -37.5q-51 0 -95.5 15.5t-78.5 59t-34 110.5zM210 902q0 -88 97 -88q101 0 218 79v183l-56 -10q-139 -24 -199 -57.5t-60 -106.5z" />
<glyph unicode="&#xab;" horiz-adv-x="1031" d="M115 411v101l334 370q17 -4 38.5 -19t32.5 -33l-253 -365l256 -350q-10 -18 -33 -39.5t-41 -28.5zM507 411v101l334 370q17 -4 38.5 -19t32.5 -33l-253 -365l256 -350q-10 -18 -33 -39.5t-41 -28.5z" />
<glyph unicode="&#xac;" horiz-adv-x="1116" d="M95 499l4 123h905v-459h-132v336h-777z" />
<glyph unicode="&#xad;" horiz-adv-x="607" d="M88 499l4 123h438q3 -22 3 -62t-3 -61h-442z" />
<glyph unicode="&#xae;" horiz-adv-x="1588" d="M70 695q0 148 57 282t153.5 230.5t230.5 153.5t283 57q198 0 364.5 -96.5t263 -263t96.5 -363.5q0 -149 -57 -283t-154 -230.5t-231 -153.5t-282 -57q-149 0 -283 56.5t-231 153.5t-153.5 231t-56.5 283zM192 695q0 -125 45.5 -237t124 -194t191 -130.5t241.5 -48.5 t241 48.5t190.5 130.5t123.5 194t45 237q0 167 -75.5 306t-213.5 221t-311 82q-174 0 -313 -82t-214 -221t-75 -306zM454 374q43 9 101 16v629q-66 8 -95 14q-3 33 9 63h309q71 0 115.5 -4t90 -18t70 -40.5t40 -73t15.5 -114.5q0 -198 -189 -229l146 -220l100 -18 q2 -2 0 -30.5t-5 -36.5h-192l-170 290q-41 0 -116 7v-219q20 -2 104 -16q1 -15 -5 -62h-322zM683 685l59 -4q126 -6 181.5 28.5t55.5 136.5q0 47 -7.5 77t-22 50t-44 29.5t-65 13t-93.5 3.5h-64v-334z" />
<glyph unicode="&#xaf;" horiz-adv-x="667" d="M33 1163l5 116h591q10 -59 0 -116h-596z" />
<glyph unicode="&#xb0;" horiz-adv-x="654" d="M33 1155q0 123 85.5 207t208.5 84q130 0 211.5 -83t81.5 -208q0 -122 -85.5 -206t-207.5 -84q-123 0 -208.5 84t-85.5 206zM158 1155q0 -73 47 -120t122 -47q74 0 120.5 47t46.5 120q0 74 -44.5 122.5t-122.5 48.5q-75 0 -122 -49t-47 -122z" />
<glyph unicode="&#xb1;" horiz-adv-x="936" d="M81 0l4 118h765q10 -58 0 -118h-769zM81 518l4 116h319v266q22 5 62 5t61 -5v-266h323q10 -59 0 -116h-323v-284h-123v284h-323z" />
<glyph unicode="&#xb2;" horiz-adv-x="907" d="M81 898q13 9 82.5 55t106 72t99 77.5t96.5 91.5t61 94t27 104q0 61 -44.5 95.5t-127.5 34.5q-59 0 -123.5 -26.5t-108.5 -56.5l-61 90q14 14 50 37t110.5 49.5t146.5 26.5q68 0 121.5 -11t101 -38t73.5 -79.5t26 -128.5q0 -48 -19.5 -97.5t-49.5 -91t-75.5 -85.5 t-88 -77.5t-98.5 -70t-94.5 -59t-86.5 -49.5l400 17l33 147q59 3 111 -5q4 -100 -12 -258h-629q-11 18 -19 65t-8 77z" />
<glyph unicode="&#xb3;" horiz-adv-x="909" d="M113 794q-9 38 20 88q4 -1 25 -7.5t31.5 -9.5t33 -8.5t39.5 -8t41 -5t47 -2.5q227 0 227 168q0 26 -2.5 43.5t-15.5 40.5t-37 36t-71 20t-113 2l-97 -12q-11 27 -11 88q7 2 21 5q36 9 57 14.5t59 18t61 25.5t48 31.5t37 43t12 53.5q0 55 -40.5 80.5t-123.5 25.5 q-88 0 -194 -51l-54 85q11 12 42 29.5t95 36t131 18.5q307 0 307 -194q0 -47 -17 -84.5t-50 -64t-68.5 -44t-83.5 -33.5q68 1 119.5 -13t81 -35t47.5 -50.5t24 -56t6 -55.5q0 -121 -98 -195t-254 -77q-62 -2 -148.5 15t-133.5 39z" />
<glyph unicode="&#xb4;" horiz-adv-x="471" d="M29 1161l214 343l178 4l21 -42l-336 -360q-49 14 -77 55z" />
<glyph unicode="&#xb6;" horiz-adv-x="1297" d="M102 950q0 263 116.5 380.5t374.5 117.5h598l9 -77q-57 -19 -160 -34v-1285q0 -283 -170 -376q-105 -56 -270.5 -54.5t-277.5 59.5l52 141q158 -65 290 -65q37 0 77.5 6.5t57.5 17.5q38 21 53.5 78t15.5 191v354q-140 -21 -256 -21q-154 0 -251.5 29t-156 99t-80.5 173 t-22 266zM518 992v-26q0 -67 0.5 -100.5t5 -90.5t13.5 -87.5t27 -70t44 -59t66 -34.5t92 -16q90 0 102 2v821l-135 -3q-65 -1 -108.5 -23.5t-66 -68.5t-31.5 -103t-9 -141z" />
<glyph unicode="&#xb7;" horiz-adv-x="494" d="M118 560q0 130 128 130q130 0 130 -130q0 -127 -130 -127q-128 0 -128 127z" />
<glyph unicode="&#xb8;" horiz-adv-x="395" d="M36 -205l18 58v1l50 158l90 -12l-49 -118q35 5 67 5q60 0 103.5 -34.5t43.5 -102.5q0 -143 -196 -249l-82 -45l-45 36q10 8 35.5 29.5t37 31t31.5 28t30 31t21.5 29.5t16 32.5t4.5 31.5q0 54 -68 54q-45 0 -87 -14z" />
<glyph unicode="&#xb9;" horiz-adv-x="685" d="M88 1579q194 51 302 59l34 -41v-732q19 -3 78 -11t87 -13q5 -33 -5 -85h-480l-7 85q32 5 185 24v641h-183z" />
<glyph unicode="&#xba;" horiz-adv-x="889" d="M70 1087q0 171 104 280.5t297 109.5q101 0 170.5 -29.5t106 -85.5t51.5 -121.5t15 -153.5q0 -171 -105 -280.5t-296 -109.5q-80 0 -140.5 20t-98.5 54t-61.5 84.5t-33 106.5t-9.5 125zM230 1087q0 -73 9.5 -125.5t26 -85t44 -51t58 -25t72.5 -6.5q46 0 80.5 11.5t67 41.5 t49.5 90.5t17 149.5q0 90 -14 149t-44 90t-66 42.5t-90 11.5q-46 0 -80.5 -12t-65.5 -42t-47.5 -90t-16.5 -149z" />
<glyph unicode="&#xbb;" horiz-adv-x="1031" d="M115 814q10 18 33 39.5t41 28.5l334 -364v-103l-334 -368q-17 4 -39 19t-32 33l254 364zM508 814q9 18 32.5 39.5t41.5 28.5l333 -364v-103l-333 -368q-17 4 -39.5 19t-32.5 33l254 364z" />
<glyph unicode="&#xbc;" horiz-adv-x="2095" d="M102 1461q194 51 302 59l34 -41v-732q19 -3 78 -11t87 -13q5 -33 -5 -85h-480l-7 85q32 5 185 24v641h-183zM480 31l819 1527q55 -6 102 -45l-824 -1529zM1089 277q209 329 471 668q26 -1 65 -29.5t60 -60.5q-36 -44 -115.5 -140t-122.5 -148.5t-105 -130t-113 -143.5 l376 5v270l123 27l16 -13v-284l144 4q5 -16 4.5 -54.5t-4.5 -53.5h-144v-196q-24 -5 -72 -4.5t-67 4.5v196h-473z" />
<glyph unicode="&#xbd;" horiz-adv-x="2032" d="M102 1461q194 51 302 59l34 -41v-732q19 -3 78 -11t87 -13q5 -33 -5 -85h-480l-7 85q32 5 185 24v641h-183zM480 31l819 1527q55 -6 102 -45l-824 -1529zM1147 140q13 9 82.5 55t106 72t99 77.5t96.5 91.5t61 94t27 104q0 61 -44.5 95.5t-127.5 34.5q-59 0 -123.5 -26.5 t-108.5 -56.5l-61 90q14 14 50 37t110.5 49.5t146.5 26.5q68 0 121.5 -11t101 -38t73.5 -79.5t26 -128.5q0 -48 -19.5 -97.5t-49.5 -91t-75.5 -85.5t-88 -77.5t-98.5 -70t-94.5 -59t-86.5 -49.5l400 17l33 147q59 3 111 -5q4 -100 -12 -258h-629q-11 18 -19 65t-8 77z" />
<glyph unicode="&#xbe;" horiz-adv-x="2217" d="M113 676q-9 38 20 88q4 -1 25 -7.5t31.5 -9.5t33 -8.5t39.5 -8t41 -5t47 -2.5q227 0 227 168q0 26 -2.5 43.5t-15.5 40.5t-37 36t-71 20t-113 2l-97 -12q-11 27 -11 88q7 2 21 5q36 9 57 14.5t59 18t61 25.5t48 31.5t37 43t12 53.5q0 55 -40.5 80.5t-123.5 25.5 q-88 0 -194 -51l-54 85q11 12 42 29.5t95 36t131 18.5q307 0 307 -194q0 -47 -17 -84.5t-50 -64t-68.5 -44t-83.5 -33.5q68 1 119.5 -13t81 -35t47.5 -50.5t24 -56t6 -55.5q0 -121 -98 -195t-254 -77q-62 -2 -148.5 15t-133.5 39zM602 31l821 1527q54 -6 101 -45l-825 -1529 zM1213 277q213 337 470 668q26 -1 64.5 -29t60.5 -61q-379 -461 -457 -562l377 5v270l123 27l16 -13v-284l144 4q5 -16 4.5 -54.5t-4.5 -53.5h-144v-196q-25 -5 -72 -4.5t-67 4.5v196h-474z" />
<glyph unicode="&#xbf;" horiz-adv-x="782" d="M59 -171q0 60 15 113.5t35.5 90.5t56 76t62 61.5t70 57t64.5 52.5q28 25 47 51.5t27.5 47t11.5 48t2 43.5t-4 44.5t-4 40.5q20 12 68.5 18t80.5 -4q16 -67 18 -112t-18.5 -97.5t-70.5 -102.5q-17 -17 -80.5 -73t-109 -106.5t-72.5 -106.5q-21 -43 -21 -153 q0 -124 55 -177t176 -53q69 0 135 24l9 229q67 12 121 2q24 -122 38 -269q-53 -37 -154.5 -68t-202.5 -31q-196 0 -275.5 79.5t-79.5 274.5zM388 867q0 55 26 84.5t90 29.5q63 0 88 -29.5t25 -84.5t-25 -85.5t-88 -30.5q-116 0 -116 116z" />
<glyph unicode="&#xc0;" horiz-adv-x="1407" d="M36 90q19 10 103 28l454 1330q98 16 210 0l468 -1335l105 -23l-10 -90h-468l-9 90q54 14 193 32l-128 374h-541l-125 -374h5l203 -32l-9 -90h-440zM415 1791l115 90l357 -264q-11 -34 -41 -81l-429 205zM454 612h463l-220 635l-18 63l-25 -108z" />
<glyph unicode="&#xc1;" horiz-adv-x="1407" d="M36 90q19 10 103 28l454 1330q98 16 210 0l468 -1335l105 -23l-10 -90h-468l-9 90q54 14 193 32l-128 374h-541l-125 -374h5l203 -32l-9 -90h-440zM454 612h463l-220 635l-18 63l-25 -108zM507 1614l361 267l115 -85l-2 -50l-427 -208q-26 24 -47 76z" />
<glyph unicode="&#xc2;" horiz-adv-x="1407" d="M36 90q19 10 103 28l454 1330q98 16 210 0l468 -1335l105 -23l-10 -90h-468l-9 90q54 14 193 32l-128 374h-541l-125 -374h5l203 -32l-9 -90h-440zM395 1597l246 266h101l246 -260q-10 -22 -30.5 -43t-37.5 -29l-234 183l-232 -183q-15 8 -34 28t-25 38zM454 612h463 l-220 635l-18 63l-25 -108z" />
<glyph unicode="&#xc3;" horiz-adv-x="1407" d="M36 90q19 10 103 28l454 1330q98 16 210 0l468 -1335l105 -23l-10 -90h-468l-9 90q54 14 193 32l-128 374h-541l-125 -374h5l203 -32l-9 -90h-440zM316 1638q30 67 116 129t152 58q43 -2 88.5 -30t83.5 -55t62 -27q41 -1 89.5 33t91.5 87l59 -44q-41 -110 -120 -167.5 t-149 -56.5q-47 1 -126 58t-112 58q-32 2 -89 -27t-100 -69zM454 612h463l-220 635l-18 63l-25 -108z" />
<glyph unicode="&#xc4;" horiz-adv-x="1407" d="M36 90q19 10 103 28l454 1330q98 16 210 0l468 -1335l105 -23l-10 -90h-468l-9 90q54 14 193 32l-128 374h-541l-125 -374h5l203 -32l-9 -90h-440zM363 1694q0 107 104 107q60 0 86 -27t26 -80q0 -46 -27 -75t-85 -29q-104 0 -104 104zM454 612h463l-220 635l-18 63 l-25 -108zM782 1694q0 107 109 107q59 0 83 -26.5t24 -80.5q0 -104 -107 -104q-109 0 -109 104z" />
<glyph unicode="&#xc5;" horiz-adv-x="1407" d="M36 90q19 10 103 28l454 1330q98 16 210 0l468 -1335l105 -23l-10 -90h-468l-9 90q54 14 193 32l-128 374h-541l-125 -374h5l203 -32l-9 -90h-440zM454 612h463l-220 635l-18 63l-25 -108zM466 1718q0 91 65 152.5t157 61.5q97 0 158 -60t61 -154q0 -93 -63.5 -154 t-155.5 -61q-93 0 -157.5 61t-64.5 154zM594 1730q-3 -49 23.5 -81t78.5 -34h15q69 7 74 90q2 48 -24 78.5t-75 34.5h-16q-73 -7 -76 -88z" />
<glyph unicode="&#xc6;" horiz-adv-x="1888" d="M21 90q16 8 103 27l540 1214q-33 4 -109 24q-3 52 9 93h1182l15 -16q1 -67 -13 -174t-27 -166q-41 -9 -109 0l-19 239h-501v-560l475 4q8 -43 -7 -132l-468 11v-534h548l67 223q66 4 111 -9q-5 -141 -27 -318l-21 -16h-1012v1l-16 -1l-12 92q7 0 12 3q92 17 171 27v532 v117l-355 -2l-50 -115h405v117v555h-112l-243 -557h-5l-50 -115h5l-232 -532h3l203 -32l-9 -90h-440z" />
<glyph unicode="&#xc7;" horiz-adv-x="1347" d="M137 709q0 379 174.5 573.5t489.5 194.5q255 0 430 -73l3 -12q1 -69 -13 -169t-28 -154q-41 -10 -113 0l-18 219q-115 63 -308 63q-114 0 -197 -44.5t-133 -128t-73.5 -194t-23.5 -251.5q0 -164 24 -278t79.5 -194.5t147.5 -118.5t227 -38q77 0 150.5 12t110.5 31l57 225 q72 9 106 -4q6 -179 2 -278q-37 -38 -151.5 -74.5t-252.5 -43.5l-37 -90q35 5 67 5q60 0 103.5 -34.5t43.5 -102.5q0 -143 -196 -249l-82 -45l-45 36q10 8 35.5 29.5t37 31t31.5 28t30 31t21.5 29.5t16 32.5t4.5 31.5q0 54 -68 54q-45 0 -87 -14l-21 50l18 58v1l37 118 q-113 3 -198 21.5t-164 67.5t-128.5 129.5t-79 211t-29.5 307.5z" />
<glyph unicode="&#xc8;" horiz-adv-x="1269" d="M102 90q37 13 167 30v1208l-161 31q-2 7 -2 35q0 32 12 54h1009l14 -16q2 -69 -12 -178t-28 -162q-39 -9 -109 0l-18 239h-525v-523l498 6q7 -41 -6 -135l-492 11v-570h572l66 223q69 4 111 -9q-3 -136 -26 -318l-21 -16h-1040zM327 1791l115 90l357 -264 q-11 -34 -41 -81l-429 205z" />
<glyph unicode="&#xc9;" horiz-adv-x="1269" d="M102 90q37 13 167 30v1208l-161 31q-2 7 -2 35q0 32 12 54h1009l14 -16q2 -69 -12 -178t-28 -162q-39 -9 -109 0l-18 239h-525v-523l498 6q7 -41 -6 -135l-492 11v-570h572l66 223q69 4 111 -9q-3 -136 -26 -318l-21 -16h-1040zM464 1614l361 267l115 -85l-2 -50 l-427 -208q-26 24 -47 76z" />
<glyph unicode="&#xca;" horiz-adv-x="1269" d="M102 90q37 13 167 30v1208l-161 31q-2 7 -2 35q0 32 12 54h1009l14 -16q2 -69 -12 -178t-28 -162q-39 -9 -109 0l-18 239h-525v-523l498 6q7 -41 -6 -135l-492 11v-570h572l66 223q69 4 111 -9q-3 -136 -26 -318l-21 -16h-1040zM388 1597l246 266h101l246 -260 q-10 -22 -30.5 -43t-37.5 -29l-234 183l-232 -183q-15 8 -34 28t-25 38z" />
<glyph unicode="&#xcb;" horiz-adv-x="1269" d="M102 90q37 13 167 30v1208l-161 31q-2 7 -2 35q0 32 12 54h1009l14 -16q2 -69 -12 -178t-28 -162q-39 -9 -109 0l-18 239h-525v-523l498 6q7 -41 -6 -135l-492 11v-570h572l66 223q69 4 111 -9q-3 -136 -26 -318l-21 -16h-1040zM349 1694q0 107 104 107q60 0 86 -27 t26 -80q0 -46 -27 -75t-85 -29q-104 0 -104 104zM768 1694q0 107 109 107q59 0 83 -26.5t24 -80.5q0 -104 -107 -104q-109 0 -109 104z" />
<glyph unicode="&#xcc;" horiz-adv-x="730" d="M95 90q43 15 180 32v1206l-164 31q-3 7 -3 40q0 27 12 49h497l10 -84q-60 -21 -173 -36v-1206l186 -34q3 -7 3 -31q0 -35 -12 -57h-527zM124 1791l115 90l357 -264q-11 -34 -41 -81l-429 205z" />
<glyph unicode="&#xcd;" horiz-adv-x="728" d="M95 90q43 15 180 32v1206l-164 31q-3 7 -3 40q0 27 12 49h497l10 -84q-60 -21 -173 -36v-1206l186 -34q3 -7 3 -31q0 -35 -12 -57h-527zM166 1614l361 267l115 -85l-2 -50l-427 -208q-26 24 -47 76z" />
<glyph unicode="&#xce;" horiz-adv-x="742" d="M68 1597l246 266h101l246 -260q-10 -22 -30.5 -43t-37.5 -29l-234 183l-232 -183q-15 8 -34 28t-25 38zM97 90q43 15 180 32v1206l-164 31q-3 7 -3 40q0 27 12 49h497l10 -84q-60 -21 -173 -36v-1206l186 -34q3 -7 3 -31q0 -35 -12 -57h-527z" />
<glyph unicode="&#xcf;" horiz-adv-x="740" d="M48 1694q0 107 104 107q60 0 86 -27t26 -80q0 -46 -27 -75t-85 -29q-104 0 -104 104zM95 90q43 15 180 32v1206l-164 31q-3 7 -3 40q0 27 12 49h497l10 -84q-60 -21 -173 -36v-1206l186 -34q3 -7 3 -31q0 -35 -12 -57h-527zM467 1694q0 107 109 107q59 0 83 -26.5 t24 -80.5q0 -104 -107 -104q-109 0 -109 104z" />
<glyph unicode="&#xd0;" horiz-adv-x="1486" d="M113 685l5 118h172v528q-97 11 -161 26q-5 46 9 91h572q114 0 207 -18t177 -63.5t141 -118t90 -186.5t33 -263v-82q0 -194 -45 -332.5t-134.5 -222.5t-214.5 -123t-294 -39h-544l-6 95q70 14 170 27v563h-177zM469 122l216 -7h50q431 0 431 594v76q0 104 -13.5 183.5 t-43 139.5t-72 101.5t-105.5 68t-138 39.5t-174 16l-151 -2v-528h330q11 -38 0 -118h-330v-563z" />
<glyph unicode="&#xd1;" horiz-adv-x="1588" d="M95 1394q0 29 11 54h376l72 -124h1l575 -1000l81 -198l-15 221v981l-175 31q-2 7 -2 35q0 32 12 54h460l9 -86q-92 -26 -151 -34v-1328q-43 -16 -111 -22.5t-108 1.5v3l-655 1136l-66 165l9 -172v-989l196 -32q3 -7 3 -33q0 -30 -12 -57h-499l-9 90q48 17 167 32v1206 l-167 31q-2 7 -2 35zM472 1638q30 67 116 129t152 58q43 -2 88.5 -30t83.5 -55t62 -27q41 -1 89.5 33t91.5 87l59 -44q-41 -110 -120 -167.5t-149 -56.5q-47 1 -126 58t-112 58q-32 2 -89 -27t-100 -69z" />
<glyph unicode="&#xd2;" d="M147 717v2q0 131 20 241.5t66.5 207.5t117 164.5t177.5 106t243 38.5h70q99 0 178.5 -20t135.5 -54.5t97 -89.5t66 -114.5t39.5 -140.5t19.5 -157.5t5 -174.5v-13q0 -129 -20.5 -240t-66.5 -206.5t-115.5 -162.5t-172.5 -105.5t-232 -38.5h-71q-99 0 -179 21t-137 57.5 t-100 91.5t-69.5 117t-43 142t-22.5 157.5t-6 170.5zM340 719q0 -65 2.5 -116.5t9 -113t20 -108.5t34 -95.5t53 -83.5t74 -63t99.5 -42t128 -14q107 0 185 32t124.5 85.5t74.5 138t37.5 173t9.5 207.5q0 70 -2 122.5t-8.5 115t-20 108t-34 93.5t-52.5 80.5t-74.5 59.5 t-101.5 40t-132 13q-77 0 -138.5 -16.5t-105.5 -45t-76.5 -73.5t-52.5 -95.5t-32 -118t-16.5 -134t-4.5 -149.5zM483 1791l115 90l357 -264q-11 -34 -41 -81l-429 205z" />
<glyph unicode="&#xd3;" d="M147 717v2q0 131 20 241.5t66.5 207.5t117 164.5t177.5 106t243 38.5h70q99 0 178.5 -20t135.5 -54.5t97 -89.5t66 -114.5t39.5 -140.5t19.5 -157.5t5 -174.5v-13q0 -129 -20.5 -240t-66.5 -206.5t-115.5 -162.5t-172.5 -105.5t-232 -38.5h-71q-99 0 -179 21t-137 57.5 t-100 91.5t-69.5 117t-43 142t-22.5 157.5t-6 170.5zM340 719q0 -65 2.5 -116.5t9 -113t20 -108.5t34 -95.5t53 -83.5t74 -63t99.5 -42t128 -14q107 0 185 32t124.5 85.5t74.5 138t37.5 173t9.5 207.5q0 70 -2 122.5t-8.5 115t-20 108t-34 93.5t-52.5 80.5t-74.5 59.5 t-101.5 40t-132 13q-77 0 -138.5 -16.5t-105.5 -45t-76.5 -73.5t-52.5 -95.5t-32 -118t-16.5 -134t-4.5 -149.5zM618 1614l361 267l115 -85l-2 -50l-427 -208q-26 24 -47 76z" />
<glyph unicode="&#xd4;" d="M147 717v2q0 131 20 241.5t66.5 207.5t117 164.5t177.5 106t243 38.5h70q99 0 178.5 -20t135.5 -54.5t97 -89.5t66 -114.5t39.5 -140.5t19.5 -157.5t5 -174.5v-13q0 -129 -20.5 -240t-66.5 -206.5t-115.5 -162.5t-172.5 -105.5t-232 -38.5h-71q-99 0 -179 21t-137 57.5 t-100 91.5t-69.5 117t-43 142t-22.5 157.5t-6 170.5zM340 719q0 -65 2.5 -116.5t9 -113t20 -108.5t34 -95.5t53 -83.5t74 -63t99.5 -42t128 -14q107 0 185 32t124.5 85.5t74.5 138t37.5 173t9.5 207.5q0 70 -2 122.5t-8.5 115t-20 108t-34 93.5t-52.5 80.5t-74.5 59.5 t-101.5 40t-132 13q-77 0 -138.5 -16.5t-105.5 -45t-76.5 -73.5t-52.5 -95.5t-32 -118t-16.5 -134t-4.5 -149.5zM473 1597l246 266h101l246 -260q-10 -22 -30.5 -43t-37.5 -29l-234 183l-232 -183q-15 8 -34 28t-25 38z" />
<glyph unicode="&#xd5;" d="M147 717v2q0 131 20 241.5t66.5 207.5t117 164.5t177.5 106t243 38.5h70q99 0 178.5 -20t135.5 -54.5t97 -89.5t66 -114.5t39.5 -140.5t19.5 -157.5t5 -174.5v-13q0 -129 -20.5 -240t-66.5 -206.5t-115.5 -162.5t-172.5 -105.5t-232 -38.5h-71q-99 0 -179 21t-137 57.5 t-100 91.5t-69.5 117t-43 142t-22.5 157.5t-6 170.5zM340 719q0 -65 2.5 -116.5t9 -113t20 -108.5t34 -95.5t53 -83.5t74 -63t99.5 -42t128 -14q107 0 185 32t124.5 85.5t74.5 138t37.5 173t9.5 207.5q0 70 -2 122.5t-8.5 115t-20 108t-34 93.5t-52.5 80.5t-74.5 59.5 t-101.5 40t-132 13q-77 0 -138.5 -16.5t-105.5 -45t-76.5 -73.5t-52.5 -95.5t-32 -118t-16.5 -134t-4.5 -149.5zM415 1638q30 67 116 129t152 58q43 -2 88.5 -30t83.5 -55t62 -27q41 -1 89.5 33t91.5 87l59 -44q-41 -110 -120 -167.5t-149 -56.5q-47 1 -126 58t-112 58 q-32 2 -89 -27t-100 -69z" />
<glyph unicode="&#xd6;" d="M147 717v2q0 131 20 241.5t66.5 207.5t117 164.5t177.5 106t243 38.5h70q99 0 178.5 -20t135.5 -54.5t97 -89.5t66 -114.5t39.5 -140.5t19.5 -157.5t5 -174.5v-13q0 -129 -20.5 -240t-66.5 -206.5t-115.5 -162.5t-172.5 -105.5t-232 -38.5h-71q-99 0 -179 21t-137 57.5 t-100 91.5t-69.5 117t-43 142t-22.5 157.5t-6 170.5zM340 719q0 -65 2.5 -116.5t9 -113t20 -108.5t34 -95.5t53 -83.5t74 -63t99.5 -42t128 -14q107 0 185 32t124.5 85.5t74.5 138t37.5 173t9.5 207.5q0 70 -2 122.5t-8.5 115t-20 108t-34 93.5t-52.5 80.5t-74.5 59.5 t-101.5 40t-132 13q-77 0 -138.5 -16.5t-105.5 -45t-76.5 -73.5t-52.5 -95.5t-32 -118t-16.5 -134t-4.5 -149.5zM453 1694q0 107 104 107q60 0 86 -27t26 -80q0 -46 -27 -75t-85 -29q-104 0 -104 104zM872 1694q0 107 109 107q59 0 83 -26.5t24 -80.5q0 -104 -107 -104 q-109 0 -109 104z" />
<glyph unicode="&#xd7;" horiz-adv-x="981" d="M108 234l298 298l-291 288q24 35 88 80l286 -284l286 286q19 -10 45.5 -35t36.5 -42l-286 -290l301 -298l-85 -81l-300 296l-298 -296z" />
<glyph unicode="&#xd8;" horiz-adv-x="1527" d="M147 717v2q0 131 20 241.5t66.5 207.5t117 164.5t177.5 106t243 38.5h70q106 0 190 -23l73 165q54 -10 101 -45l-71 -160q76 -42 127 -110.5t76.5 -163t35 -190.5t9.5 -224v-13q0 -129 -20.5 -240t-66.5 -206.5t-115.5 -162.5t-172.5 -105.5t-232 -38.5h-71 q-112 0 -204 28l-79 -180l-99 45l79 178q-75 44 -127 115t-78.5 164t-37.5 189.5t-11 217.5zM340 719q0 -118 7.5 -203t38 -178t85.5 -150l498 1126q-83 37 -203 37q-77 0 -138.5 -16.5t-105.5 -45t-76.5 -73.5t-52.5 -95.5t-32 -118t-16.5 -134t-4.5 -149.5zM561 123 q85 -40 199 -40q107 0 185 32t124.5 85.5t74.5 138t37.5 173t9.5 207.5q0 93 -4 159.5t-16.5 141t-40 132t-69.5 99.5z" />
<glyph unicode="&#xd9;" d="M54 1394q0 32 12 54h516l9 -84q-48 -19 -182 -36v-721q0 -57 1 -96.5t5.5 -87.5t13 -81t23 -70t35 -61t50.5 -47.5t69 -37t90 -21.5t114 -8q69 0 124 14t91.5 36t63.5 57.5t41.5 70.5t23 83.5t10.5 87.5t2 91v791l-171 31q-3 7 -3 35q0 32 12 54h464l9 -86 q-41 -17 -153 -33v-792q0 -104 -15.5 -185.5t-54.5 -154.5t-103 -121t-164 -75.5t-233 -27.5q-98 0 -176 15.5t-133 42.5t-95.5 70.5t-64.5 90.5t-38 111.5t-19 126t-5 140.5v758l-166 31q-3 7 -3 35zM502 1791l115 90l357 -264q-11 -34 -41 -81l-429 205z" />
<glyph unicode="&#xda;" d="M54 1394q0 32 12 54h516l9 -84q-48 -19 -182 -36v-721q0 -57 1 -96.5t5.5 -87.5t13 -81t23 -70t35 -61t50.5 -47.5t69 -37t90 -21.5t114 -8q69 0 124 14t91.5 36t63.5 57.5t41.5 70.5t23 83.5t10.5 87.5t2 91v791l-171 31q-3 7 -3 35q0 32 12 54h464l9 -86 q-41 -17 -153 -33v-792q0 -104 -15.5 -185.5t-54.5 -154.5t-103 -121t-164 -75.5t-233 -27.5q-98 0 -176 15.5t-133 42.5t-95.5 70.5t-64.5 90.5t-38 111.5t-19 126t-5 140.5v758l-166 31q-3 7 -3 35zM618 1614l361 267l115 -85l-2 -50l-427 -208q-26 24 -47 76z" />
<glyph unicode="&#xdb;" d="M54 1394q0 32 12 54h516l9 -84q-48 -19 -182 -36v-721q0 -57 1 -96.5t5.5 -87.5t13 -81t23 -70t35 -61t50.5 -47.5t69 -37t90 -21.5t114 -8q69 0 124 14t91.5 36t63.5 57.5t41.5 70.5t23 83.5t10.5 87.5t2 91v791l-171 31q-3 7 -3 35q0 32 12 54h464l9 -86 q-41 -17 -153 -33v-792q0 -104 -15.5 -185.5t-54.5 -154.5t-103 -121t-164 -75.5t-233 -27.5q-98 0 -176 15.5t-133 42.5t-95.5 70.5t-64.5 90.5t-38 111.5t-19 126t-5 140.5v758l-166 31q-3 7 -3 35zM473 1597l246 266h101l246 -260q-10 -22 -30.5 -43t-37.5 -29l-234 183 l-232 -183q-15 8 -34 28t-25 38z" />
<glyph unicode="&#xdc;" d="M54 1394q0 32 12 54h516l9 -84q-48 -19 -182 -36v-721q0 -57 1 -96.5t5.5 -87.5t13 -81t23 -70t35 -61t50.5 -47.5t69 -37t90 -21.5t114 -8q69 0 124 14t91.5 36t63.5 57.5t41.5 70.5t23 83.5t10.5 87.5t2 91v791l-171 31q-3 7 -3 35q0 32 12 54h464l9 -86 q-41 -17 -153 -33v-792q0 -104 -15.5 -185.5t-54.5 -154.5t-103 -121t-164 -75.5t-233 -27.5q-98 0 -176 15.5t-133 42.5t-95.5 70.5t-64.5 90.5t-38 111.5t-19 126t-5 140.5v758l-166 31q-3 7 -3 35zM468 1694q0 107 104 107q60 0 86 -27t26 -80q0 -46 -27 -75t-85 -29 q-104 0 -104 104zM887 1694q0 107 109 107q59 0 83 -26.5t24 -80.5q0 -104 -107 -104q-109 0 -109 104z" />
<glyph unicode="&#xdd;" horiz-adv-x="1307" d="M21 1392q0 29 12 56h449l10 -89q-62 -17 -152 -30l303 -502l42 -83l353 582l-185 33q-3 7 -3 33q0 36 13 56h420l12 -89q-25 -13 -102 -28l-439 -697v-512l211 -32q2 -7 2 -33q0 -34 -13 -57h-566l-9 90q42 12 196 32v505l-440 706l-112 26q-2 7 -2 33zM494 1614l361 267 l115 -85l-2 -50l-427 -208q-26 24 -47 76z" />
<glyph unicode="&#xde;" horiz-adv-x="1292" d="M102 90q68 24 177 32v1206l-166 31q-2 7 -2 40q0 24 11 49h525l10 -84q-45 -16 -199 -36l-2 -156h246q102 0 178.5 -11t141.5 -39.5t106 -76t64 -121t23 -173.5q0 -234 -116 -346t-348 -112q-136 0 -295 23l2 -194l206 -34q3 -7 3 -31q0 -34 -13 -57h-543zM456 424 l191 -11q208 -12 292.5 74.5t84.5 272.5q0 84 -15.5 138t-58 93t-119.5 55t-197 13l-178 -8v-627z" />
<glyph unicode="&#xdf;" horiz-adv-x="1279" d="M73 846q-6 41 5 88l159 16v239q0 206 90 312.5t268 106.5q47 0 82 -2t80.5 -9t78.5 -20t67.5 -37t56 -57t35.5 -83t14 -112q0 -65 -36 -136t-80.5 -123t-90.5 -112t-60 -99q-9 -22 -9 -58q0 -43 18 -70t74 -56l271 -142q55 -28 85.5 -67.5t39 -77.5t8.5 -94 q0 -282 -359 -282q-174 0 -324 81q2 16 38 250l97 3q12 -45 18 -163q98 -64 208 -64q52 0 95.5 27.5t56.5 90.5q24 118 -64 163l-213 112q-109 57 -154 119.5t-49 156.5q0 66 26.5 128.5t63.5 111t74.5 94.5t64 98.5t26.5 103.5q0 43 -9.5 76.5t-22.5 55t-38 36.5t-44 22.5 t-54 11t-53.5 4t-56.5 0.5h-15q-56 0 -84.5 -25.5t-40.5 -88t-12 -184.5v-1155q0 -14 -8 -25t-20 -11h-291l-9 78q49 17 161 33v735h-164z" />
<glyph unicode="&#xe0;" horiz-adv-x="1014" d="M78 203v20q3 58 21 103t51 77t74.5 54.5t98.5 36.5t115.5 21.5t133.5 11.5l68 5v104q-1 68 -10.5 108t-35.5 62t-61 28.5t-98 6.5q-111 0 -257 -54l-41 97q2 1 17.5 9t26.5 13.5t33 15.5t41 16.5t47 15t54 13.5t58 8.5t64 3.5q98 0 160 -17.5t100 -60t52.5 -107 t14.5 -165.5v-523h187l7 -83q-33 -14 -106.5 -33t-123.5 -19q-39 0 -65 10.5t-36 30t-13 34t-3 35.5v47h-2q-61 -62 -147 -109.5t-181 -47.5q-46 0 -85.5 10t-77 34.5t-59.5 72.5t-22 115zM223 1463l21 43l151 18l239 -363q-29 -41 -79 -55zM250 225q0 -121 126 -121 q129 0 264 104v236l-78 -7q-160 -14 -236 -65t-76 -147z" />
<glyph unicode="&#xe1;" horiz-adv-x="1014" d="M78 203v20q3 58 21 103t51 77t74.5 54.5t98.5 36.5t115.5 21.5t133.5 11.5l68 5v104q-1 68 -10.5 108t-35.5 62t-61 28.5t-98 6.5q-111 0 -257 -54l-41 97q2 1 17.5 9t26.5 13.5t33 15.5t41 16.5t47 15t54 13.5t58 8.5t64 3.5q98 0 160 -17.5t100 -60t52.5 -107 t14.5 -165.5v-523h187l7 -83q-33 -14 -106.5 -33t-123.5 -19q-39 0 -65 10.5t-36 30t-13 34t-3 35.5v47h-2q-61 -62 -147 -109.5t-181 -47.5q-46 0 -85.5 10t-77 34.5t-59.5 72.5t-22 115zM250 225q0 -121 126 -121q129 0 264 104v236l-78 -7q-160 -14 -236 -65t-76 -147z M336 1161l214 343l178 4l21 -42l-336 -360q-49 14 -77 55z" />
<glyph unicode="&#xe2;" horiz-adv-x="1014" d="M78 203v20q3 58 21 103t51 77t74.5 54.5t98.5 36.5t115.5 21.5t133.5 11.5l68 5v104q-1 68 -10.5 108t-35.5 62t-61 28.5t-98 6.5q-111 0 -257 -54l-41 97q2 1 17.5 9t26.5 13.5t33 15.5t41 16.5t47 15t54 13.5t58 8.5t64 3.5q98 0 160 -17.5t100 -60t52.5 -107 t14.5 -165.5v-523h187l7 -83q-33 -14 -106.5 -33t-123.5 -19q-39 0 -65 10.5t-36 30t-13 34t-3 35.5v47h-2q-61 -62 -147 -109.5t-181 -47.5q-46 0 -85.5 10t-77 34.5t-59.5 72.5t-22 115zM171 1200l255 308h101l246 -308q-8 -18 -32.5 -37.5t-43.5 -25.5l-226 207 l-225 -207q-16 7 -39.5 26.5t-35.5 36.5zM250 225q0 -121 126 -121q129 0 264 104v236l-78 -7q-160 -14 -236 -65t-76 -147z" />
<glyph unicode="&#xe3;" horiz-adv-x="1014" d="M78 203v20q3 58 21 103t51 77t74.5 54.5t98.5 36.5t115.5 21.5t133.5 11.5l68 5v104q-1 68 -10.5 108t-35.5 62t-61 28.5t-98 6.5q-111 0 -257 -54l-41 97q2 1 17.5 9t26.5 13.5t33 15.5t41 16.5t47 15t54 13.5t58 8.5t64 3.5q98 0 160 -17.5t100 -60t52.5 -107 t14.5 -165.5v-523h187l7 -83q-33 -14 -106.5 -33t-123.5 -19q-39 0 -65 10.5t-36 30t-13 34t-3 35.5v47h-2q-61 -62 -147 -109.5t-181 -47.5q-46 0 -85.5 10t-77 34.5t-59.5 72.5t-22 115zM104 1211q30 67 116 129t152 58q43 -2 88.5 -30t83.5 -55t62 -27q41 -1 89.5 33 t91.5 87l59 -44q-42 -113 -115.5 -168.5t-153.5 -55.5q-47 0 -126 57.5t-112 58.5q-32 2 -89 -27t-100 -69zM250 225q0 -121 126 -121q129 0 264 104v236l-78 -7q-160 -14 -236 -65t-76 -147z" />
<glyph unicode="&#xe4;" horiz-adv-x="1014" d="M78 203v20q3 58 21 103t51 77t74.5 54.5t98.5 36.5t115.5 21.5t133.5 11.5l68 5v104q-1 68 -10.5 108t-35.5 62t-61 28.5t-98 6.5q-111 0 -257 -54l-41 97q2 1 17.5 9t26.5 13.5t33 15.5t41 16.5t47 15t54 13.5t58 8.5t64 3.5q98 0 160 -17.5t100 -60t52.5 -107 t14.5 -165.5v-523h187l7 -83q-33 -14 -106.5 -33t-123.5 -19q-39 0 -65 10.5t-36 30t-13 34t-3 35.5v47h-2q-61 -62 -147 -109.5t-181 -47.5q-46 0 -85.5 10t-77 34.5t-59.5 72.5t-22 115zM171 1309q0 107 104 107q59 0 83 -27t24 -80q0 -103 -107 -103q-104 0 -104 103z M250 225q0 -121 126 -121q129 0 264 104v236l-78 -7q-160 -14 -236 -65t-76 -147zM567 1309q0 107 103 107q60 0 83.5 -27t23.5 -80q0 -103 -107 -103q-103 0 -103 103z" />
<glyph unicode="&#xe5;" horiz-adv-x="1014" d="M78 203v20q3 58 21 103t51 77t74.5 54.5t98.5 36.5t115.5 21.5t133.5 11.5l68 5v104q-1 68 -10.5 108t-35.5 62t-61 28.5t-98 6.5q-111 0 -257 -54l-41 97q2 1 17.5 9t26.5 13.5t33 15.5t41 16.5t47 15t54 13.5t58 8.5t64 3.5q98 0 160 -17.5t100 -60t52.5 -107 t14.5 -165.5v-523h187l7 -83q-33 -14 -106.5 -33t-123.5 -19q-39 0 -65 10.5t-36 30t-13 34t-3 35.5v47h-2q-61 -62 -147 -109.5t-181 -47.5q-46 0 -85.5 10t-77 34.5t-59.5 72.5t-22 115zM250 225q0 -121 126 -121q129 0 264 104v236l-78 -7q-160 -14 -236 -65t-76 -147z M278 1286q0 91 65 152.5t157 61.5q97 0 158 -60t61 -154q0 -93 -63.5 -154t-155.5 -61q-93 0 -157.5 61t-64.5 154zM406 1298q-3 -49 23.5 -81t78.5 -34h15q69 7 74 90q2 48 -24 78.5t-75 34.5h-16q-73 -7 -76 -88z" />
<glyph unicode="&#xe6;" horiz-adv-x="1527" d="M81 223q3 57 20 101.5t51 75t72 51.5t97.5 35t111 21.5t127.5 15.5l85 4v107q0 67 -9.5 105t-36.5 60t-65.5 28.5t-107.5 6.5q-117 0 -256 -52l-42 107q15 9 56 27.5t119.5 40.5t145.5 22q127 0 201.5 -30t105.5 -99q109 131 317 131q109 0 179 -24t110.5 -80 t55.5 -135.5t14 -204.5h-618q0 -55 1 -91t4.5 -78.5t10 -69.5t17.5 -57t27.5 -48t40 -35.5t54.5 -26.5t71 -14.5t90 -5.5q65 0 148 17t116 28l40 -88q-16 -12 -55.5 -31.5t-126 -41.5t-176.5 -22q-135 0 -226.5 35.5t-143.5 126.5q-54 -63 -153.5 -112.5t-209.5 -49.5 q-37 0 -72 6.5t-72 24t-63.5 44t-42 72t-12.5 103.5zM255 230q0 -63 35.5 -94.5t88.5 -31.5q73 0 132.5 22t162.5 84q-29 86 -29 230l-81 -7q-175 -20 -242 -64.5t-67 -138.5zM818 624l442 16q-2 65 -15.5 112t-31.5 71t-46.5 37.5t-49.5 16t-51 2.5q-127 0 -181.5 -58.5 t-66.5 -196.5z" />
<glyph unicode="&#xe7;" horiz-adv-x="934" d="M95 465q0 241 111.5 377.5t325.5 136.5q192 0 318 -55q8 -89 -36 -272q-60 0 -97 5l-18 175q-79 38 -200 38q-114 0 -170.5 -89t-56.5 -299q0 -213 66 -294.5t237 -81.5q34 0 71.5 7t68.5 17t56 19.5t42 17.5l17 8l42 -90q-148 -106 -326 -113l-35 -85q35 5 67 5 q60 0 103.5 -34.5t43.5 -102.5q0 -143 -196 -249l-82 -45l-45 36q10 8 35.5 29.5t37 31t31.5 28t30 31t21.5 29.5t16 32.5t4.5 31.5q0 54 -68 54q-45 0 -87 -14l-21 50l18 58v1l36 114q-63 5 -112.5 19.5t-97.5 49t-80 87.5t-51.5 138.5t-19.5 197.5z" />
<glyph unicode="&#xe8;" horiz-adv-x="983" d="M97 430q-1 283 112 416t321 133q109 0 179 -24.5t110 -81.5t55.5 -137.5t14.5 -205.5l-620 -5q0 -61 1.5 -100.5t6 -85.5t13.5 -74t25 -58.5t39 -48t56 -32.5t76.5 -21t99.5 -6q65 0 149.5 19.5t121.5 32.5l34 -85q-18 -13 -56.5 -31.5t-125.5 -41t-177 -22.5 q-67 0 -118.5 7t-103.5 24.5t-88.5 50.5t-65.5 82.5t-44 124t-15 170.5zM232 1463l21 43l151 18l239 -363q-29 -41 -79 -55zM275 622l442 16q-2 65 -15.5 111.5t-32 71t-46.5 37.5t-49 16t-51 3q-127 0 -181.5 -58.5t-66.5 -196.5z" />
<glyph unicode="&#xe9;" horiz-adv-x="983" d="M97 430q-1 283 112 416t321 133q109 0 179 -24.5t110 -81.5t55.5 -137.5t14.5 -205.5l-620 -5q0 -61 1.5 -100.5t6 -85.5t13.5 -74t25 -58.5t39 -48t56 -32.5t76.5 -21t99.5 -6q65 0 149.5 19.5t121.5 32.5l34 -85q-18 -13 -56.5 -31.5t-125.5 -41t-177 -22.5 q-67 0 -118.5 7t-103.5 24.5t-88.5 50.5t-65.5 82.5t-44 124t-15 170.5zM275 622l442 16q-2 65 -15.5 111.5t-32 71t-46.5 37.5t-49 16t-51 3q-127 0 -181.5 -58.5t-66.5 -196.5zM327 1161l214 343l178 4l21 -42l-336 -360q-49 14 -77 55z" />
<glyph unicode="&#xea;" horiz-adv-x="983" d="M97 430q-1 283 112 416t321 133q109 0 179 -24.5t110 -81.5t55.5 -137.5t14.5 -205.5l-620 -5q0 -61 1.5 -100.5t6 -85.5t13.5 -74t25 -58.5t39 -48t56 -32.5t76.5 -21t99.5 -6q65 0 149.5 19.5t121.5 32.5l34 -85q-18 -13 -56.5 -31.5t-125.5 -41t-177 -22.5 q-67 0 -118.5 7t-103.5 24.5t-88.5 50.5t-65.5 82.5t-44 124t-15 170.5zM196 1200l255 308h101l246 -308q-8 -18 -32.5 -37.5t-43.5 -25.5l-226 207l-225 -207q-16 7 -39.5 26.5t-35.5 36.5zM275 622l442 16q-2 65 -15.5 111.5t-32 71t-46.5 37.5t-49 16t-51 3 q-127 0 -181.5 -58.5t-66.5 -196.5z" />
<glyph unicode="&#xeb;" horiz-adv-x="983" d="M97 430q-1 283 112 416t321 133q109 0 179 -24.5t110 -81.5t55.5 -137.5t14.5 -205.5l-620 -5q0 -61 1.5 -100.5t6 -85.5t13.5 -74t25 -58.5t39 -48t56 -32.5t76.5 -21t99.5 -6q65 0 149.5 19.5t121.5 32.5l34 -85q-18 -13 -56.5 -31.5t-125.5 -41t-177 -22.5 q-67 0 -118.5 7t-103.5 24.5t-88.5 50.5t-65.5 82.5t-44 124t-15 170.5zM186 1309q0 107 104 107q59 0 83 -27t24 -80q0 -103 -107 -103q-104 0 -104 103zM275 622l442 16q-2 65 -15.5 111.5t-32 71t-46.5 37.5t-49 16t-51 3q-127 0 -181.5 -58.5t-66.5 -196.5zM582 1309 q0 107 103 107q60 0 83.5 -27t23.5 -80q0 -103 -107 -103q-103 0 -103 103z" />
<glyph unicode="&#xec;" horiz-adv-x="657" d="M50 1477l20 43l155 14l158 -373q-27 -38 -88 -55zM81 927q45 17 118 34.5t115 17.5q39 0 64 -9t35 -27.5t13 -31t4 -34.5v-5v-761l172 -30q5 -45 -9 -81h-487l-9 78q22 8 49 13.5t66.5 11.5t49.5 8v730h-170z" />
<glyph unicode="&#xed;" horiz-adv-x="657" d="M81 927q45 17 118 34.5t115 17.5q39 0 64 -9t35 -27.5t13 -31t4 -34.5v-5v-761l172 -30q5 -45 -9 -81h-487l-9 78q22 8 49 13.5t66.5 11.5t49.5 8v730h-170zM180 1161l163 354l165 14l22 -43l-266 -380q-58 17 -84 55z" />
<glyph unicode="&#xee;" horiz-adv-x="683" d="M2 1200l255 308h101l246 -308q-8 -18 -32.5 -37.5t-43.5 -25.5l-226 207l-225 -207q-16 7 -39.5 26.5t-35.5 36.5zM97 927q45 17 118 34.5t115 17.5q39 0 64 -9t35 -27.5t13 -31t4 -34.5v-5v-761l172 -30q5 -45 -9 -81h-487l-9 78q22 8 49 13.5t66.5 11.5t49.5 8v730 h-170z" />
<glyph unicode="&#xef;" horiz-adv-x="679" d="M35 1309q0 107 104 107q59 0 83 -27t24 -80q0 -103 -107 -103q-104 0 -104 103zM93 927q45 17 118 34.5t115 17.5q39 0 64 -9t35 -27.5t13 -31t4 -34.5v-5v-761l172 -30q5 -45 -9 -81h-487l-9 78q22 8 49 13.5t66.5 11.5t49.5 8v730h-170zM403 1309q0 107 103 107 q60 0 83.5 -27t23.5 -80q0 -103 -107 -103q-103 0 -103 103z" />
<glyph unicode="&#xf0;" horiz-adv-x="1059" d="M99 440v40q0 87 15.5 159.5t40.5 122t60.5 88t72 60.5t79 36t76.5 18.5t69 4.5q71 0 139 -22.5t113 -55.5q-23 132 -55 208q-53 121 -107 175l-230 -142q-39 28 -67 83l222 142q-124 106 -304 151q0 58 18 85q244 -10 406 -156l237 162q18 -4 41.5 -37t33.5 -62 l-229 -145q63 -63 109 -155.5t70 -194t34.5 -194t10.5 -182.5q0 -115 -11 -209t-39 -179.5t-72 -143.5t-114 -92t-161 -34h-97q-104 0 -176 32.5t-112 96.5t-56.5 146t-16.5 194zM277 451q0 -64 5 -113t21 -99t42 -82t71.5 -52t106.5 -20q132 0 186 64q47 51 62.5 138 t15.5 205q0 219 -14 290q-115 59 -253 59q-119 0 -181 -85.5t-62 -275.5v-29z" />
<glyph unicode="&#xf1;" horiz-adv-x="1269" d="M83 927q32 14 108.5 33t127.5 19q39 0 64 -10t35 -29.5t13 -32.5t4 -35v-17q169 124 340 124q82 0 133 -14t85 -50.5t47.5 -98t13.5 -159.5v-549l157 -27q2 -8 2 -29q0 -29 -13 -52h-442l-7 78q41 12 135 30v539q0 113 -33 155t-118 42q-159 0 -300 -64v-669l158 -30 q2 -8 2 -29q0 -32 -11 -52h-464l-9 78q38 11 156 33v730h-172zM291 1211q30 67 116 129t152 58q43 -2 88.5 -30t83.5 -55t62 -27q41 -1 89.5 33t91.5 87l59 -44q-42 -113 -115.5 -168.5t-153.5 -55.5q-47 0 -126 57.5t-112 58.5q-32 2 -89 -27t-100 -69z" />
<glyph unicode="&#xf2;" horiz-adv-x="1116" d="M95 475q0 107 30 197t89.5 159.5t156.5 108.5t222 39q100 0 175.5 -26t122 -70.5t75.5 -110.5t40 -137t11 -160q0 -107 -30.5 -197t-90 -159.5t-156.5 -108.5t-222 -39q-100 0 -175.5 26t-122 70.5t-75 110.5t-39.5 137t-11 160zM279 475q0 -119 18 -198.5t56 -122 t85.5 -59.5t116.5 -17q62 0 109 17t86.5 59t60.5 123t21 198q0 119 -18 198.5t-56 122t-86 59.5t-117 17q-62 0 -108.5 -17t-86 -59t-60.5 -123t-21 -198zM345 1463l21 43l151 18l239 -363q-29 -41 -79 -55z" />
<glyph unicode="&#xf3;" horiz-adv-x="1116" d="M95 475q0 107 30 197t89.5 159.5t156.5 108.5t222 39q100 0 175.5 -26t122 -70.5t75.5 -110.5t40 -137t11 -160q0 -107 -30.5 -197t-90 -159.5t-156.5 -108.5t-222 -39q-100 0 -175.5 26t-122 70.5t-75 110.5t-39.5 137t-11 160zM279 475q0 -119 18 -198.5t56 -122 t85.5 -59.5t116.5 -17q62 0 109 17t86.5 59t60.5 123t21 198q0 119 -18 198.5t-56 122t-86 59.5t-117 17q-62 0 -108.5 -17t-86 -59t-60.5 -123t-21 -198zM390 1161l214 343l178 4l21 -42l-336 -360q-49 14 -77 55z" />
<glyph unicode="&#xf4;" horiz-adv-x="1116" d="M95 475q0 107 30 197t89.5 159.5t156.5 108.5t222 39q100 0 175.5 -26t122 -70.5t75.5 -110.5t40 -137t11 -160q0 -107 -30.5 -197t-90 -159.5t-156.5 -108.5t-222 -39q-100 0 -175.5 26t-122 70.5t-75 110.5t-39.5 137t-11 160zM259 1200l255 308h101l246 -308 q-8 -18 -32.5 -37.5t-43.5 -25.5l-226 207l-225 -207q-16 7 -39.5 26.5t-35.5 36.5zM279 475q0 -119 18 -198.5t56 -122t85.5 -59.5t116.5 -17q62 0 109 17t86.5 59t60.5 123t21 198q0 119 -18 198.5t-56 122t-86 59.5t-117 17q-62 0 -108.5 -17t-86 -59t-60.5 -123 t-21 -198z" />
<glyph unicode="&#xf5;" horiz-adv-x="1116" d="M95 475q0 107 30 197t89.5 159.5t156.5 108.5t222 39q100 0 175.5 -26t122 -70.5t75.5 -110.5t40 -137t11 -160q0 -107 -30.5 -197t-90 -159.5t-156.5 -108.5t-222 -39q-100 0 -175.5 26t-122 70.5t-75 110.5t-39.5 137t-11 160zM201 1211q30 67 116 129t152 58 q43 -2 88.5 -30t83.5 -55t62 -27q41 -1 89.5 33t91.5 87l59 -44q-42 -113 -115.5 -168.5t-153.5 -55.5q-47 0 -126 57.5t-112 58.5q-32 2 -89 -27t-100 -69zM279 475q0 -119 18 -198.5t56 -122t85.5 -59.5t116.5 -17q62 0 109 17t86.5 59t60.5 123t21 198q0 119 -18 198.5 t-56 122t-86 59.5t-117 17q-62 0 -108.5 -17t-86 -59t-60.5 -123t-21 -198z" />
<glyph unicode="&#xf6;" horiz-adv-x="1116" d="M95 475q0 107 30 197t89.5 159.5t156.5 108.5t222 39q100 0 175.5 -26t122 -70.5t75.5 -110.5t40 -137t11 -160q0 -107 -30.5 -197t-90 -159.5t-156.5 -108.5t-222 -39q-100 0 -175.5 26t-122 70.5t-75 110.5t-39.5 137t-11 160zM248 1309q0 107 104 107q59 0 83 -27 t24 -80q0 -103 -107 -103q-104 0 -104 103zM279 475q0 -119 18 -198.5t56 -122t85.5 -59.5t116.5 -17q62 0 109 17t86.5 59t60.5 123t21 198q0 119 -18 198.5t-56 122t-86 59.5t-117 17q-62 0 -108.5 -17t-86 -59t-60.5 -123t-21 -198zM644 1309q0 107 103 107 q60 0 83.5 -27t23.5 -80q0 -103 -107 -103q-103 0 -103 103z" />
<glyph unicode="&#xf7;" horiz-adv-x="1059" d="M118 478l4 115h814q10 -60 0 -115h-818zM433 227q0 44 23.5 73t75.5 29t77 -28t25 -74q0 -99 -102 -99q-54 0 -76.5 24.5t-22.5 74.5zM433 848q0 52 22.5 77t76.5 25t78 -24.5t24 -77.5q0 -43 -25.5 -71t-76.5 -28q-52 0 -75.5 28t-23.5 71z" />
<glyph unicode="&#xf8;" horiz-adv-x="1125" d="M100 475q0 107 30 197t89.5 159.5t156.5 108.5t222 39q63 0 120 -11l76 178q54 -3 94 -40l-73 -170q114 -55 160.5 -173t46.5 -288q0 -107 -30.5 -197t-90 -159.5t-156.5 -108.5t-222 -39q-64 0 -121 11l-75 -174l-91 36l72 168q-115 55 -161.5 173t-46.5 290zM284 475 q0 -240 81 -329l305 711q-44 15 -110 15q-62 0 -108.5 -17t-86 -59t-60.5 -123t-21 -198zM450 92q45 -14 110 -14q62 0 109 17t86.5 59t60.5 123t21 198q0 238 -80 327z" />
<glyph unicode="&#xf9;" horiz-adv-x="1220" d="M47 924q134 55 210 55q39 0 64.5 -10t36 -29t13.5 -33.5t3 -34.5v-570q0 -116 33.5 -152.5t129.5 -38.5q59 -2 145.5 25.5t147.5 61.5v643h-173l-12 86q36 15 110 33.5t124 18.5q39 0 64.5 -10t35.5 -29t13 -33.5t3 -34.5v-766h182l7 -83q-35 -15 -108.5 -33.5 t-123.5 -18.5q-39 0 -64.5 10.5t-35 30t-12.5 34t-3 35.5v41h-3q-70 -56 -171.5 -103.5t-202.5 -47.5q-71 0 -117 14t-77.5 50.5t-44.5 98.5t-13 159v548h-149zM369 1463l21 43l151 18l239 -363q-29 -41 -79 -55z" />
<glyph unicode="&#xfa;" horiz-adv-x="1220" d="M47 924q134 55 210 55q39 0 64.5 -10t36 -29t13.5 -33.5t3 -34.5v-570q0 -116 33.5 -152.5t129.5 -38.5q59 -2 145.5 25.5t147.5 61.5v643h-173l-12 86q36 15 110 33.5t124 18.5q39 0 64.5 -10t35.5 -29t13 -33.5t3 -34.5v-766h182l7 -83q-35 -15 -108.5 -33.5 t-123.5 -18.5q-39 0 -64.5 10.5t-35 30t-12.5 34t-3 35.5v41h-3q-70 -56 -171.5 -103.5t-202.5 -47.5q-71 0 -117 14t-77.5 50.5t-44.5 98.5t-13 159v548h-149zM457 1161l214 343l178 4l21 -42l-336 -360q-49 14 -77 55z" />
<glyph unicode="&#xfb;" horiz-adv-x="1220" d="M47 924q134 55 210 55q39 0 64.5 -10t36 -29t13.5 -33.5t3 -34.5v-570q0 -116 33.5 -152.5t129.5 -38.5q59 -2 145.5 25.5t147.5 61.5v643h-173l-12 86q36 15 110 33.5t124 18.5q39 0 64.5 -10t35.5 -29t13 -33.5t3 -34.5v-766h182l7 -83q-35 -15 -108.5 -33.5 t-123.5 -18.5q-39 0 -64.5 10.5t-35 30t-12.5 34t-3 35.5v41h-3q-70 -56 -171.5 -103.5t-202.5 -47.5q-71 0 -117 14t-77.5 50.5t-44.5 98.5t-13 159v548h-149zM279 1200l255 308h101l246 -308q-8 -18 -32.5 -37.5t-43.5 -25.5l-226 207l-225 -207q-16 7 -39.5 26.5 t-35.5 36.5z" />
<glyph unicode="&#xfc;" horiz-adv-x="1220" d="M47 924q134 55 210 55q39 0 64.5 -10t36 -29t13.5 -33.5t3 -34.5v-570q0 -116 33.5 -152.5t129.5 -38.5q59 -2 145.5 25.5t147.5 61.5v643h-173l-12 86q36 15 110 33.5t124 18.5q39 0 64.5 -10t35.5 -29t13 -33.5t3 -34.5v-766h182l7 -83q-35 -15 -108.5 -33.5 t-123.5 -18.5q-39 0 -64.5 10.5t-35 30t-12.5 34t-3 35.5v41h-3q-70 -56 -171.5 -103.5t-202.5 -47.5q-71 0 -117 14t-77.5 50.5t-44.5 98.5t-13 159v548h-149zM275 1309q0 107 104 107q59 0 83 -27t24 -80q0 -103 -107 -103q-104 0 -104 103zM671 1309q0 107 103 107 q60 0 83.5 -27t23.5 -80q0 -103 -107 -103q-103 0 -103 103z" />
<glyph unicode="&#xfd;" horiz-adv-x="1062" d="M-5 -564l23 82q103 -12 157 -7q51 4 93.5 25t81.5 76q81 119 175 388h-90l-342 844l-72 26q-3 7 -3 28q0 23 13 52h397l7 -78q-45 -14 -148 -30l238 -627l30 -123l241 748l-174 30q-2 7 -2 28q0 27 11 52h400l9 -85q-25 -11 -92 -26l-289 -837l-12 -31 q-32 -91 -58 -161.5t-43.5 -113t-28.5 -67t-20.5 -45t-11.5 -24.5q-51 -104 -106 -142t-156 -38q-64 0 -129 16t-99 40zM433 1161l214 343l178 4l21 -42l-336 -360q-49 14 -77 55z" />
<glyph unicode="&#xfe;" horiz-adv-x="1151" d="M-5 1558q35 14 113 33t129 19q39 0 64 -10.5t35 -30t13 -34t3 -35.5v-637q93 58 151 79q97 37 203 37q85 0 147 -23.5t100 -65t60 -107t29 -139.5t5 -173q-2 -95 -18 -171.5t-39.5 -127.5t-58 -89.5t-68.5 -59t-75.5 -33t-73.5 -16t-69 -3.5q-84 0 -163 25.5t-128 66.5 v-543q191 -12 258 -23q7 -44 0 -88h-569l-7 88q38 9 149 23v1955h-178zM354 189q49 -38 127 -62.5t157 -24.5q117 0 172.5 86.5t57.5 284.5q0 52 -0.5 87.5t-4.5 78.5t-11.5 71.5t-22 58t-34.5 46.5t-50 27.5t-69 10.5q-87 0 -175.5 -27t-146.5 -66v-571z" />
<glyph unicode="&#xff;" horiz-adv-x="1062" d="M-5 -564l23 82q103 -12 157 -7q51 4 93.5 25t81.5 76q81 119 175 388h-90l-342 844l-72 26q-3 7 -3 28q0 23 13 52h397l7 -78q-45 -14 -148 -30l238 -627l30 -123l241 748l-174 30q-2 7 -2 28q0 27 11 52h400l9 -85q-25 -11 -92 -26l-289 -837l-12 -31 q-32 -91 -58 -161.5t-43.5 -113t-28.5 -67t-20.5 -45t-11.5 -24.5q-51 -104 -106 -142t-156 -38q-64 0 -129 16t-99 40zM235 1309q0 107 104 107q59 0 83 -27t24 -80q0 -103 -107 -103q-104 0 -104 103zM631 1309q0 107 103 107q60 0 83.5 -27t23.5 -80q0 -103 -107 -103 q-103 0 -103 103z" />
<glyph unicode="&#x152;" horiz-adv-x="1995" d="M147 717v2q0 172 38 308t114.5 235.5t198.5 154.5t284 60q132 0 232 -29h839l14 -16q1 -68 -13 -176.5t-27 -163.5q-40 -9 -109 0l-18 239h-525v-523l498 6q8 -45 -7 -135l-491 11v-560h4v-10h567l67 223q68 4 111 -9q-5 -151 -26 -318l-22 -16h-862q-112 -37 -232 -40 h-52q-137 0 -238 33t-167 93t-106 155.5t-56 209.5t-16 266zM338 719q0 -121 9.5 -209.5t38 -171.5t77 -135.5t128.5 -84.5t191 -35q130 3 213 44v1184q-94 38 -213 44q-127 -5 -213.5 -46t-137 -123t-72 -194.5t-21.5 -272.5z" />
<glyph unicode="&#x153;" horiz-adv-x="1716" d="M95 475q0 107 30 197t89.5 159.5t156.5 108.5t222 39q246 0 333 -162q94 162 334 162q109 0 179 -24.5t110 -81.5t55.5 -137.5t14.5 -205.5l-620 -5q0 -61 1.5 -100.5t6 -85.5t14 -74.5t25 -58.5t39 -47.5t56 -32.5t76.5 -21t100 -6q45 0 110.5 12.5t103 22.5t57.5 17 l33 -85q-16 -12 -55.5 -31.5t-126.5 -41.5t-177 -22q-141 0 -229 36.5t-134 135.5q-117 -172 -381 -172q-100 0 -175.5 26t-122 70.5t-75 110.5t-39.5 137t-11 160zM279 475q0 -119 18 -198.5t56 -122t85.5 -59.5t116.5 -17q62 0 109 17t86.5 59t60.5 123t21 198 q0 119 -18 198.5t-56 122t-86 59.5t-117 17q-62 0 -108.5 -17t-86 -59t-60.5 -123t-21 -198zM1004 622l442 16q-1 65 -15 111.5t-31.5 71t-46 37.5t-50 16t-51.5 3q-126 0 -180.5 -58.5t-67.5 -196.5z" />
<glyph unicode="&#x178;" horiz-adv-x="1321" d="M28 1392q0 29 12 56h449l10 -89q-62 -17 -152 -30l303 -502l42 -83l353 582l-185 33q-3 7 -3 33q0 36 13 56h420l12 -89q-25 -13 -102 -28l-439 -697v-512l211 -32q2 -7 2 -33q0 -34 -13 -57h-566l-9 90q42 12 196 32v505l-440 706l-112 26q-2 7 -2 33zM376 1694 q0 107 104 107q60 0 86 -27t26 -80q0 -46 -27 -75t-85 -29q-104 0 -104 104zM795 1694q0 107 109 107q59 0 83 -26.5t24 -80.5q0 -104 -107 -104q-109 0 -109 104z" />
<glyph unicode="&#x2c6;" horiz-adv-x="659" d="M29 1200l255 308h101l246 -308q-8 -18 -32.5 -37.5t-43.5 -25.5l-226 207l-225 -207q-16 7 -39.5 26.5t-35.5 36.5z" />
<glyph unicode="&#x2dc;" horiz-adv-x="751" d="M19 1211q30 67 116 129t152 58q43 -2 88.5 -30t83.5 -55t62 -27q41 -1 89.5 33t91.5 87l59 -44q-42 -113 -115.5 -168.5t-153.5 -55.5q-47 0 -126 57.5t-112 58.5q-32 2 -89 -27t-100 -69z" />
<glyph unicode="&#x2000;" horiz-adv-x="966" />
<glyph unicode="&#x2001;" horiz-adv-x="1932" />
<glyph unicode="&#x2002;" horiz-adv-x="966" />
<glyph unicode="&#x2003;" horiz-adv-x="1932" />
<glyph unicode="&#x2004;" horiz-adv-x="644" />
<glyph unicode="&#x2005;" horiz-adv-x="483" />
<glyph unicode="&#x2006;" horiz-adv-x="322" />
<glyph unicode="&#x2007;" horiz-adv-x="322" />
<glyph unicode="&#x2008;" horiz-adv-x="241" />
<glyph unicode="&#x2009;" horiz-adv-x="386" />
<glyph unicode="&#x200a;" horiz-adv-x="107" />
<glyph unicode="&#x2010;" horiz-adv-x="650" d="M95 499l4 125h451q4 -22 4 -63t-4 -62h-455z" />
<glyph unicode="&#x2011;" horiz-adv-x="650" d="M95 499l4 125h451q4 -22 4 -63t-4 -62h-455z" />
<glyph unicode="&#x2012;" horiz-adv-x="650" d="M95 499l4 125h451q4 -22 4 -63t-4 -62h-455z" />
<glyph unicode="&#x2013;" horiz-adv-x="853" d="M95 499l4 118h650q4 -21 4 -59t-4 -59h-654z" />
<glyph unicode="&#x2014;" horiz-adv-x="1538" d="M95 499l4 123h1335q4 -22 4 -62t-4 -61h-1339z" />
<glyph unicode="&#x2018;" horiz-adv-x="372" d="M61 1144q3 88 80.5 200t125.5 140l55 -38q-25 -32 -62 -118t-43 -137l65 -47q-29 -142 -169 -90q-55 24 -52 90z" />
<glyph unicode="&#x2019;" horiz-adv-x="409" d="M73 1071q25 33 62 118.5t43 136.5l-65 47q29 142 169 90q55 -24 52 -90q-3 -88 -80.5 -199t-125.5 -141z" />
<glyph unicode="&#x201a;" horiz-adv-x="451" d="M95 -189q25 35 62 120.5t41 134.5l-63 47q13 71 57.5 94t109.5 -4q57 -22 52 -90q-3 -87 -80 -198.5t-125 -141.5z" />
<glyph unicode="&#x201c;" horiz-adv-x="740" d="M76 1139q3 89 80.5 200.5t125.5 139.5l54 -38q-25 -32 -62 -118t-42 -137l63 -47q-13 -71 -57.5 -93.5t-109.5 3.5q-57 24 -52 90zM406 1139q3 89 80.5 200.5t125.5 139.5l55 -38q-25 -32 -62 -118t-43 -137l65 -47q-29 -141 -169 -90q-55 24 -52 90z" />
<glyph unicode="&#x201d;" horiz-adv-x="740" d="M73 1071q25 33 62 118.5t43 136.5l-65 47q29 142 169 90q55 -24 52 -90q-3 -88 -80.5 -199t-125.5 -141zM404 1071q25 33 62 118.5t42 136.5l-64 47q14 71 58.5 93.5t109.5 -3.5q57 -24 52 -90q-3 -88 -80.5 -199t-125.5 -141z" />
<glyph unicode="&#x201e;" horiz-adv-x="782" d="M95 -189q25 35 62 120.5t41 134.5l-63 47q13 71 57.5 94t109.5 -4q57 -22 52 -90q-3 -87 -80 -198.5t-125 -141.5zM426 -189q25 34 62 119.5t42 135.5l-65 47q30 144 169 90q56 -23 51 -90q-3 -87 -80 -198.5t-125 -141.5z" />
<glyph unicode="&#x2022;" horiz-adv-x="792" d="M225 525q0 172 170 172q94 0 133.5 -42.5t39.5 -129.5q0 -171 -173 -171q-170 0 -170 171z" />
<glyph unicode="&#x2026;" horiz-adv-x="1351" d="M126 85q0 111 113 111q111 0 111 -111q0 -114 -111 -114q-62 0 -87.5 29.5t-25.5 84.5zM568 85q0 111 113 111t113 -111q0 -114 -113 -114q-62 0 -87.5 29.5t-25.5 84.5zM1012 85q0 111 111 111q113 0 113 -111q0 -114 -113 -114q-61 0 -86 29.5t-25 84.5z" />
<glyph unicode="&#x202f;" horiz-adv-x="386" />
<glyph unicode="&#x2039;" horiz-adv-x="634" d="M115 411v101l334 370q17 -4 38.5 -19t32.5 -33l-253 -365l256 -350q-10 -18 -33 -39.5t-41 -28.5z" />
<glyph unicode="&#x203a;" horiz-adv-x="636" d="M113 814q10 18 33 39.5t41 28.5l334 -364v-101l-334 -370q-17 4 -38.5 19t-32.5 33l253 365z" />
<glyph unicode="&#x205f;" horiz-adv-x="483" />
<glyph unicode="&#x20ac;" horiz-adv-x="1031" d="M47 338l5 104h116q-1 15 -1 47q0 39 1 59h-109l4 104h114q27 193 130 296t298 103q194 0 319 -54q8 -90 -33 -250q-66 0 -104 4l-14 154q-80 38 -201 38q-98 -2 -151.5 -72t-68.5 -219h338q9 -51 0 -104h-345v-43q0 -43 1 -63h333q7 -53 0 -104h-322q23 -122 91 -177 t199 -55q25 0 52 3.5t51 9.5t46.5 13.5t41 14.5t32.5 13t22.5 10.5t9.5 4.5l43 -90q-160 -114 -350 -114q-61 0 -112.5 9t-103.5 34t-90.5 65t-68.5 106t-43 153h-130z" />
<glyph unicode="&#xe000;" horiz-adv-x="950" d="M0 0v950h950v-950h-950z" />
<glyph unicode="&#xfb01;" horiz-adv-x="1222" d="M68 88q35 8 149 23v742h-149q-5 33 5 81l144 16v205q0 203 108.5 328t308.5 125q106 0 214.5 -35t137.5 -62l-69 -135q-59 36 -144.5 68.5t-163.5 32.5q-84 0 -130 -22.5t-70 -86t-24 -182.5v-236h587l25 -26v-818q142 -18 156 -21q9 -42 0 -85h-481l-8 85q62 11 166 21 v747h-445v-742q98 -6 199 -23q7 -44 0 -88h-508z" />
<glyph unicode="&#xfb02;" horiz-adv-x="1310" d="M68 88q35 8 149 23v735h-149q-6 37 5 88l144 16v239q0 83 26 156.5t77.5 133t139 94.5t201.5 35q279 0 433 -86v-1414q114 -13 158 -20q9 -44 0 -88h-494l-7 88q24 5 54 8.5t67.5 6.5t54.5 5v1313q-41 24 -111 39.5t-109.5 19.5t-52.5 4q-64 0 -106.5 -5t-73.5 -20 t-47.5 -33.5t-26.5 -56.5t-12.5 -77.5t-2.5 -105.5v-236h298q7 -51 0 -104h-298v-735q195 -12 260 -23q7 -44 0 -88h-569z" />
</font>
</defs>
</svg>
