<?xml version="1.0" standalone="no"?>
<!DOCTYPE svg PUBLIC "-//W3C//DTD SVG 1.1//EN" "http://www.w3.org/Graphics/SVG/1.1/DTD/svg11.dtd" >
<svg xmlns="http://www.w3.org/2000/svg">
<metadata></metadata>
<defs>
<font id="kingthings_calligraphica_liLt" horiz-adv-x="775" >
<font-face units-per-em="2048" ascent="1638" descent="-410" />
<missing-glyph horiz-adv-x="372" />
<glyph horiz-adv-x="2048" />
<glyph horiz-adv-x="2048" />
<glyph unicode="&#xd;" horiz-adv-x="390" />
<glyph unicode=" "  horiz-adv-x="372" />
<glyph unicode="&#x09;" horiz-adv-x="372" />
<glyph unicode="&#xa0;" horiz-adv-x="372" />
<glyph unicode="!" horiz-adv-x="365" d="M112 1164l2 -978l145 166l1 968zM124 85l1 -236l135 128v240z" />
<glyph unicode="&#x22;" horiz-adv-x="419" d="M220 1072q-82 52 -80 132t75 124l-21 22q-107 -90 -137.5 -138.5t-30.5 -112.5t27.5 -100t61.5 -39zM420 1072q-82 52 -80 132t75 124l-21 22q-107 -90 -137.5 -138.5t-30.5 -112.5t27.5 -100t61.5 -39z" />
<glyph unicode="#" horiz-adv-x="922" d="M864 588l53 107h-193l77 302l-119 -36l-68 -266l-194 -1l75 298l-119 -36l-67 -262h-163l-57 -106h193l-61 -238h-160l-57 -106h189l-79 -309l121 30l71 279h192l-78 -304l120 30l70 274h170l52 107h-195l60 237h167zM333 350l60 238h193l-61 -237z" />
<glyph unicode="$" horiz-adv-x="880" d="M221 1150q-71 -105 -85 -216.5t61 -197.5q64 -73 226 -141v-437q-50 19 -103 54q-121 82 -149.5 160t48.5 206l-14 18l-168 -203q-24 -77 47 -182t162 -160q82 -49 177 -58v-238l70 69v169q86 12 166 85q101 91 159 205.5t41.5 194.5t-97.5 156q-74 68 -270 150l-1 386 q55 -18 98 -54q81 -68 -31 -177l25 -23l192 237q-46 94 -131 140q-62 34 -153 19v235l-67 -77v-174q-133 -43 -203 -146zM736 385q36 -107 -23 -176.5t-165 -73.5q-27 -1 -55 4l-1 430q208 -79 244 -184zM424 813q-202 89 -182 229q21 148 144 145q19 0 38 -3v-371z" />
<glyph unicode="%" horiz-adv-x="851" d="M176 -111l40 -83l469 1226l-34 87zM106.5 818q-62.5 -63 -74 -161.5t56 -178.5t118 -86t89 29t89 122t41.5 164t-63 130.5t-95.5 62.5t-70 -5t-91 -77zM296 763q62 -72 68.5 -137t-26 -110.5t-82.5 -44t-112.5 94t-51 168.5t76.5 88.5t127 -59.5zM516.5 418 q-62.5 -63 -74 -161.5t56 -178.5t118 -86t89 29t89 122t41.5 164t-63 130.5t-95.5 62.5t-70 -5t-91 -77zM706 363q62 -72 68.5 -137t-26 -110.5t-82.5 -44t-112.5 94t-51 168.5t76.5 88.5t127 -59.5z" />
<glyph unicode="&#x26;" horiz-adv-x="1168" d="M240.5 1167.5q-139.5 -140.5 -50.5 -356.5l96 -150q-311 -228 -250 -430t267.5 -247t378.5 237q187 -168 288 -229l180 289l-26 24l-76 -102q-97 45 -251 184l352 490l-19 29l-307 1l-203 -199l29 -26q72 108 343 69l-237 -321q-173 154 -305 318t-164 253t3 147t106 51 t129 -52t72.5 -166t-81.5 -190l27 -39l180 239q59 151 -12.5 236.5t-200.5 83t-268.5 -143zM639 262q-147 -172 -285 -113.5t-173 193t133 285.5q140 -182 325 -365z" />
<glyph unicode="'" horiz-adv-x="232" d="M36 1288q82 -52 80 -132t-75 -124l21 -22q107 90 137.5 138.5t30.5 112.5t-27.5 100t-61.5 39z" />
<glyph unicode="(" horiz-adv-x="441" d="M27.5 727.5q-45.5 -409.5 69.5 -686.5t311 -391l76 174q-147 65 -249.5 273.5t-113.5 475t43 460t204 443.5l-24 26q-271 -365 -316.5 -774.5z" />
<glyph unicode=")" horiz-adv-x="467" d="M470.5 424.5q45.5 409.5 -69.5 686.5t-311 391l-76 -174q147 -65 249.5 -273.5t113.5 -475t-43 -460t-204 -443.5l24 -26q271 365 316.5 774.5z" />
<glyph unicode="*" horiz-adv-x="422" d="M169 1376l4 -113l-87 115l-22 -80l71 -88h-99l-35 -81l129 12l-80 -72l20 -103l101 125l-9 -132l82 -42l-12 176l106 -131l20 99l-84 80l108 -1l37 89l-151 -19l73 83l-19 81l-89 -108l9 155z" />
<glyph unicode="+" horiz-adv-x="795" d="M344 768v-171h-190l-126 -129l308 2v-394l121 172v222h185l142 130h-331l1 316z" />
<glyph unicode="," horiz-adv-x="218" d="M16 138q82 -52 80 -132t-75 -124l21 -22q107 90 137.5 138.5t30.5 112.5t-27.5 100t-61.5 39z" />
<glyph unicode="-" d="M626 550h-348q-165 -13 -252 -181l16 -13q44 60 170 62h413q132 -2 235 157l-10 16q-58 -46 -224 -41z" />
<glyph unicode="." horiz-adv-x="266" d="M23 133q107 -40 107 -166l130 110q4 124 -117 181z" />
<glyph unicode="/" horiz-adv-x="507" d="M-10 -242l74 -97l414 1665l-68 103z" />
<glyph unicode="0" horiz-adv-x="809" d="M168 750.5q-122 -112.5 -144.5 -289t109 -319t229.5 -153.5t173 52t172.5 218t80 293t-122.5 233.5t-184.5 111.5t-135 -9t-177.5 -137.5zM557 658q132 -142 128.5 -254.5t-54 -194.5t-161 -82.5t-242.5 155.5t-98.5 305t164.5 181t263 -110z" />
<glyph unicode="1" horiz-adv-x="410" d="M31 685l19 -45l101 86v-419q11 -142 -142 -292l14 -19h233l159 98l-16 24q-127 0 -244 -1q129 80 140 179v608l-14 18z" />
<glyph unicode="2" horiz-adv-x="655" d="M307 902q-145 -42 -225.5 -132t-71.5 -185.5t71 -151.5l172 157l-13 16q-67 -41 -89 36.5t19 134.5t114.5 56.5t145.5 -150.5t-23 -274l-390 -383l23 -26h525l114 201l-25 14l-45 -76l-408 2q314 305 380.5 445.5t-31.5 249t-243 66.5z" />
<glyph unicode="3" horiz-adv-x="699" d="M176 901l-204 -193l24 -24q80 81 221 65l261 -1l-360 -427l30 -27q169 168 321.5 2.5t-72.5 -427.5l-242 -250l38 -25q334 323 418 443.5t53 284t-276 217.5l262 340l-15 21z" />
<glyph unicode="4" horiz-adv-x="887" d="M-31 16l26 -19l454 2q26 -323 -74 -355l19 -36q153 128 192 221l2 171h126q115 94 203 287l-37 7q-61 -131 -166 -141l-130 6v600l-132 -289v-304l-319 -2q528 756 496 1138l-187 -135q144 -244 -473 -1151z" />
<glyph unicode="5" horiz-adv-x="578" d="M-12 269l19 -26q74 133 214 136.5t204 -89t41.5 -197t-147.5 -280.5l-148 -210l32 -15q275 337 320.5 430t56.5 203t-51 200.5t-133 113.5t-132 21t-146 -53l64 238h320l91 142l-8 19h-411z" />
<glyph unicode="6" horiz-adv-x="801" d="M150.5 904.5q-68.5 -109.5 -111 -245t-14 -291t160.5 -280.5t260 -81.5t247.5 199t96.5 313t-138.5 243.5t-231 57.5t-277.5 -253.5q-9 223 91.5 367t182 172.5t180.5 -5.5l108 206q-264 -84 -375 -188t-179.5 -213.5zM603.5 541q92.5 -167 54 -295t-167.5 -129 q-267 75 -330 380q98 187 224.5 199t219 -155z" />
<glyph unicode="7" horiz-adv-x="602" d="M-70 687l35 -6q55 68 121 67l386 -2l-242 -518q-102 -208 -98.5 -318t41.5 -180.5t119 -134.5l120 138q-236 203 -130 470l317 679l-20 22l-476 2z" />
<glyph unicode="8" horiz-adv-x="691" d="M221 850.5q-62 -42.5 -96 -85t-48 -119t41 -138.5t220 -104t214 -88t24.5 -104.5t-74 -79.5t-121 -16t-144 42.5t-109 116t73.5 163.5l-35 18q-172 -150 -138 -258t135 -159t179.5 -49t139.5 54t125 131t66.5 145.5t-47.5 128t-230.5 103.5t-216.5 116.5t44 131.5 t228 -31t-17 -209l42 -10q128 118 133 191t-76.5 127.5t-166 39.5t-146.5 -57.5z" />
<glyph unicode="9" horiz-adv-x="822" d="M675.5 1.5q68.5 109.5 111 245t14 291t-160.5 280.5t-260 81.5t-247.5 -199t-96.5 -313t138.5 -243.5t231 -57.5t274.5 288.5q3 -261 -79.5 -396t-183.5 -186t-215 -32l-81 -161q264 84 375 188t179.5 213.5zM212.5 337q-87.5 132 -60 264.5t150.5 207.5q243 3 369 -394 q-107 -166 -239.5 -188t-220 110z" />
<glyph unicode=":" horiz-adv-x="287" d="M23 133q107 -40 107 -166l130 110q4 124 -117 181zM23 543q107 -40 107 -166l130 110q4 124 -117 181z" />
<glyph unicode=";" horiz-adv-x="282" d="M23 543q107 -40 107 -166l130 110q4 124 -117 181zM46 138q82 -52 80 -132t-75 -124l21 -22q107 90 137.5 138.5t30.5 112.5t-27.5 100t-61.5 39z" />
<glyph unicode="&#x3c;" horiz-adv-x="466" d="M453 317q-155 169 -322 252l297 265l-29 47l-392 -347l-1 -35q208 -111 377 -292z" />
<glyph unicode="=" horiz-adv-x="752" d="M547 700h-296q-141 -13 -215 -181l14 -13q37 60 144 62h352q112 -2 200 157l-9 16q-49 -46 -190 -41zM547 510h-296q-141 -13 -215 -181l14 -13q37 60 144 62h352q112 -2 200 157l-9 16q-49 -46 -190 -41z" />
<glyph unicode="&#x3e;" horiz-adv-x="469" d="M7 771q155 -169 322 -252l-297 -265l29 -47l392 347l1 35q-208 111 -377 292z" />
<glyph unicode="?" horiz-adv-x="794" d="M329 83l1 -236l155 148v233zM481 604q269 193 291 410.5t-162 314t-438 -47.5t-129 -479l157 83q-95 166 -32.5 299t223.5 104t215.5 -198.5t-7.5 -297t-265 -224.5l-1 -381l148 119v298z" />
<glyph unicode="@" horiz-adv-x="1274" d="M387.5 1041q-108.5 -85 -213.5 -226t-133.5 -282.5t21 -282t187 -255t224.5 -97t327 262.5l-46 26q-167 -208 -362 -80.5t-219.5 326t45.5 342.5t227 213.5t299.5 56.5t248.5 -102.5t121 -275.5t-75 -261.5t-167.5 -1t-38.5 514.5l-271 3q-213 -168 -241.5 -332 t65 -271.5t162.5 -76t182 137.5q60 -127 142 -135q337 172 374.5 364.5t-42 339.5t-245 201.5t-314.5 15t-257.5 -124.5zM708 797q-32 -301 7 -388q-222 -93 -274 64t46 322z" />
<glyph unicode="A" horiz-adv-x="1173" d="M491 1233q-13 -86 45 -181q-57 -23 -78 -84l-147 -337h-146l-120 -169l27 -26l39 52h136q-61 -191 -296 -489l260 1l150 148l-265 -1q168 121 235 341h296l95 110l197 -463q59 -130 202 -141l97 270l-30 16l-38 -91q-52 -13 -105 89l-422 1016q-37 79 29 155l-25 23 q-123 -153 -136 -239zM714 626h-328l170 378z" />
<glyph unicode="B" horiz-adv-x="1030" d="M123 1306l-167 -217l27 -12l63 76l218 -1l-85 -123q19 -875 -31 -875l-103 -131l16 -24l538 -1q88 68 247 243q157 134 151 272.5t-101.5 203t-247.5 63.5q180 117 181 304.5t-261 220.5zM655.5 1110q60.5 -67 45.5 -161.5t-123 -163.5l-249 3l-2 364q268 25 328.5 -42z M823 546.5q54 -100.5 8 -206t-110 -171.5h-508l117 181v288l266 -1q173 10 227 -90.5z" />
<glyph unicode="C" horiz-adv-x="944" d="M379.5 1183q-142.5 -115 -206 -195t-120.5 -194.5t-17 -262t207.5 -328t385.5 -215.5l246 264l-30 19l-106 -106q-96 -34 -254 83t-254 285t-23 402q103 177 242 228t262 -47.5t36 -155.5l-57 -58l30 -16q207 172 212 221t-75 121.5t-149.5 82t-128 -1.5t-201 -126z" />
<glyph unicode="D" horiz-adv-x="1128" d="M22 1078l34 -14l57 83h228q-133 -178 -139 -268l-2 -576q8 -71 -185 -285l9 -23h519q102 -2 165.5 57.5t131 127.5t178.5 208t85.5 362.5t-208 396t-495.5 158.5l-224 -7zM762.5 1054q138.5 -115 182.5 -319t-16 -346t-184 -231l-542 -2q144 151 160 297l4 552 q-11 140 68 148q189 16 327.5 -99z" />
<glyph unicode="E" horiz-adv-x="918" d="M-8 1032l34 -14q60 112 132 112l153 3q-109 -95 -119 -203l-1 -140l-141 -199l29 -16q77 88 113 82l-2 -355q8 -71 -147 -307l670 1l185 269l-30 23q-63 -131 -146 -130l-524 1q96 71 155 212l1 283h137l173 142l-16 24l-288 1v317l343 -2l180 145l-6 20l-711 -1z" />
<glyph unicode="F" horiz-adv-x="836" d="M-8 1032l34 -14q58 108 132 122l143 -1q-81 -75 -109 -209l1 -129l-143 -170l15 -22q64 66 126 61l-1 -385q-3 -140 -168 -287l18 -25q43 42 323 23l165 151l-330 2q80 43 143 182l3 338h147l173 127l-16 24l-298 1v323l423 1l180 136l-6 20l-781 -1z" />
<glyph unicode="G" horiz-adv-x="1036" d="M176 991.5q-62 -72.5 -115 -188t-31 -280.5t177.5 -347.5t388.5 -187.5l165 118l1 -114l29 -12l131 163q-20 420 27 463l83 137l-16 25l-348 1l-153 -209l26 -12q31 56 123 64l221 2q-129 -73 -120 -234v-196q-104 -116 -290 -1.5t-270.5 310t7 424.5t312.5 269 q267 -11 246 -183l-82 -89l23 -16q192 174 197 223.5t-69.5 122.5t-184.5 72.5t-263 -126.5t-215 -198.5z" />
<glyph unicode="H" horiz-adv-x="1216" d="M22 1072l34 -14q32 69 102 82l183 -1q-99 -79 -120 -229v-150l-47 -2l-174 -207l15 -22q103 83 206 91l-1 -365q8 -84 -175 -288l25 -4q54 39 323 33l165 151l-330 2q120 43 153 252l3 223h407l81 66l-2 -405q8 -114 -175 -318l25 -4q54 39 323 33l165 151l-330 2 q120 43 153 222l2 775l190 135l-6 20l-371 -2l-174 -227l34 -14q32 69 102 82l173 -1q-90 -80 -107 -224l-1 -134h-483v363l3 2l180 135l-6 20l-371 -2z" />
<glyph unicode="I" horiz-adv-x="557" d="M12 1082l34 -14q32 69 102 72l163 -1q-105 -99 -110 -249l-1 -545l1 -122q-27 -106 -166 -256l25 -4q54 39 323 33l165 151l-24 18q-49 -35 -306 -26q100 113 143 262l9 743l3 2l190 135l-6 20l-371 -2z" />
<glyph unicode="J" horiz-adv-x="1033" d="M114 1047l25 -14q91 113 178 111h438q-103 -86 -110 -195v-485q1 -240 -53.5 -311.5t-216.5 1.5q-375 217 -130 439l-17 23l-109 -102q-111 -97 -87 -252q82 -151 219 -233q178 -101 305 30q191 136 253 396v695l188 1l166 153h-862z" />
<glyph unicode="K" horiz-adv-x="1048" d="M-8 1086l34 -14q32 69 102 72l153 -1q-69 -69 -100 -229l-1 -568l1 -152q-27 -76 -166 -227l25 -4q54 39 323 33l177 185l-24 18q-64 -87 -288 -49q86 140 101 253l1 199q17 28 86.5 32.5t164.5 -106t191.5 -296.5t192.5 -242l168 179l-25 24q-60 -78 -89 -22 q-49 34 -148 219t-203.5 280t-190.5 91l536 523l4 20h-324l-188 -198l15 -17q73 63 128 64l165 1l-481 -462l1 458l170 136l-6 17l-331 1z" />
<glyph unicode="L" horiz-adv-x="758" d="M2 1086l34 -14q52 75 140 72l119 -1q-73 -69 -104 -229l-1 -678q-36 -115 -175 -265l23 -16q42 45 194 45h481l165 211l-24 18q-46 -67 -166 -65l-480 -1q122 128 134 242l5 735l206 145l-6 20l-371 -2z" />
<glyph unicode="M" horiz-adv-x="1406" d="M1041 336q-17 -208 -176 -369l25 -4q53 39 322 32l161 157l-25 17q-48 -34 -295 -25q115 89 138 247l-2 786q-22 175 154 -105l106 148q-47 34 -124.5 68.5t-160.5 13.5t-151 -129l-334 -382q-351 530 -420.5 514t-245.5 -204l12 -21q144 126 237 -3q-98 -88 -101 -189 v-552q21 -202 -144 -348l13 -25q53 39 322 32l161 157l-25 17q-48 -34 -295 -25q106 77 119 247l-2 630l300 -434q76 -84 15 -187l19 -17l98 120q100 110 -32 230l331 374v-771z" />
<glyph unicode="N" horiz-adv-x="1138" d="M276.5 1300q-84.5 -11 -291.5 -229l32 -21q169 183 258 27q-120 -141 -114 -189v-641q-30 -134 -160 -266l19 -18q53 39 332 32l161 157l-24 17q-48 -34 -316 -25q59 71 132 137l-5 765l519 -820q14 -114 -120 -214l20 -21q27 15 306 8l151 181l-24 18q-68 -44 -179 -44 q41 51 42 142l2 861l3 2l176 125l-7 20l-371 -2l-168 -207l34 -14q31 69 102 71l192 1l-105 -118l-1 -620q-511 896 -595.5 885z" />
<glyph unicode="O" horiz-adv-x="1047" d="M227.5 1094q-154.5 -163 -183 -419.5t130 -462.5t284.5 -222t228.5 75.5t226.5 316.5t102 424.5t-155.5 338t-235.5 161.5t-172.5 -13t-225 -199zM718 1029q166 -185 169.5 -432t-119 -367t-260 -73.5t-258.5 283t-75 443.5t211.5 269t331.5 -123zM367 686 q109 -19 115 -160l147 119q6 132 -120 178z" />
<glyph unicode="P" horiz-adv-x="954" d="M367 396v54q258 -68 404 115.5t160 356.5t-119 287t-281 93l-346 2l-110 -122l-59 -72l24 -24l74 83h207q-104 -73 -110 -285l-1 -605q-38 -184 -202 -283l14 -29q71 38 335 24l172 170l-15 22q-66 -69 -314 -44q161 109 167 257zM363 558l-4 614q296 14 386 -102.5 t93.5 -259.5t-122 -216.5t-293.5 27.5z" />
<glyph unicode="Q" horiz-adv-x="1059" d="M786 233q77 108 98 347q22 247 -152.5 435t-357 122.5t-220 -297.5t115 -468t291.5 -244q51 -3 94 9l-1 1q-52 138 -93 164t-93 -12l-12 15q141 144 206 113q62 -30 124 -185zM686 57q-93 -82 -226 -71q-138 11 -291 221.5t-124.5 467t183 419.5t225 199t172.5 13 t235.5 -161.5t155.5 -338t-102 -424.5q-60 -109 -113 -186q57 -147 101 -259q49 -122 92 -172t146 19l11 -20q-173 -169 -228 -146t-135 202q-59 129 -102 237z" />
<glyph unicode="R" horiz-adv-x="1062" d="M2 1032l34 -14q52 110 132 122l103 -1q-108 -81 -110 -219l-1 -575l1 -122q-27 -106 -152 -230l11 -30q84 39 353 33l165 181l-24 18q-32 -73 -336 -56q123 112 141 262l1 237q135 2 198.5 -19.5t105 -89.5t85 -156.5t95 -203.5t160.5 -177l179 176l-25 24 q-63 -78 -103 -25q-47 66 -82 145t-75 171.5t-105.5 154t-166.5 46.5q148 26 233.5 146.5t30.5 279t-224 181.5l-107 10l-343 -2zM318 1143q238 15 315 -32t88 -166.5t-63 -179t-340 -57.5v435z" />
<glyph unicode="S" horiz-adv-x="887" d="M215 1147q-71 -105 -85 -216t61 -197t288.5 -165t250 -185.5t-22.5 -176t-165 -74t-227.5 77t-150 159.5t48.5 206l-14 18l-168 -202q-24 -77 47 -182t162.5 -160.5t201.5 -60t211 86.5t159 206t41.5 194.5t-97.5 155t-311 167.5t-209 240t143.5 145t203.5 -70.5 t-31 -176.5l25 -24l192 237q-46 94 -130.5 140t-218.5 4t-205 -147z" />
<glyph unicode="T" horiz-adv-x="1011" d="M-18 1096l34 -14q32 69 102 72l413 -1q-114 -104 -100 -280l-1 -527l1 -122q-77 -106 -216 -257l25 -4q54 39 323 33l165 152l-24 18q-49 -35 -276 -26q96 99 163 263l-1 749l292 1l191 133l-16 18h-901z" />
<glyph unicode="U" horiz-adv-x="1135" d="M832 237q49 -189 166 -254l163 292l-23 12q-112 -162 -158 -2v865l45 1l140 134l-6 20l-371 -2l-164 -204l34 -14q28 68 92 68l195 -1q-117 -95 -115 -299v-515q-51 -96 -125.5 -156t-148.5 -33t-169.5 131.5t-147 235t-50.5 302t153 348.5l154 140h-308l-8 -16 l-177 -199l24 -14q63 92 249 66q-300 -379 -191 -724q121 -271 381 -419q111 -22 243.5 104.5t122.5 132.5z" />
<glyph unicode="V" horiz-adv-x="1108" d="M120 1253l-202 -275l32 -28q119 174 182 -3l369 -895q69 -96 171 -37q411 512 435 713.5t-101.5 398t-251 182.5t-251 -123.5t-198.5 -188.5l-103 260q-35 99 -82 -4zM899 949.5q113 -232.5 59 -415t-262 -387.5q-91 42 -370 800q199 220 329.5 227.5t243.5 -225z" />
<glyph unicode="W" horiz-adv-x="1598" d="M1156.5 1143.5q115.5 -7.5 206.5 -208.5t48.5 -385t-193.5 -313q-100 43 -332 709l-20 50l-102 261q-29 90 -101 -11l-272 -271l-105 282q-35 98 -86 -5l-222 -314l31 -29q113 187 195 37l319 -834q78 -215 192 -47l173 203l-23 55l-120 -137q-87 -5 -335 733 q208 253 286 27l341 -865q61 -174 149 -6q359 452 381.5 653t-97 397.5t-239.5 182.5t-309 -283l22 -43q97 169 212.5 161.5z" />
<glyph unicode="X" horiz-adv-x="1008" d="M4 1025l19 -29q97 139 155 73l223 -403q-284 -259 -298.5 -396.5t46 -213t158.5 -61.5l174 254l-17 26q-124 -156 -220 -33t184 369l254 -486q90 -130 191 -130l136 207l-25 33q-84 -244 -418 492l419 534l-20 44l-311 -1l-134 -181l19 -25q52 84 288 62l-297 -383 l-239 469q-59 143 -165 -58z" />
<glyph unicode="Y" horiz-adv-x="885" d="M502 1137l17 -21q57 53 253 34l-220 -331l-297 406q-77 153 -148 28l-109 -125l28 -27q67 96 119 -1l275 -375l1 -431q-7 -134 -199 -297l389 2l151 168l-31 23q-33 -81 -329 -54q169 164 183 302l-1 319l360 539l-16 7l-248 -2z" />
<glyph unicode="Z" horiz-adv-x="921" d="M274 1303l-204 -211l41 -17q43 76 223 64h401l-712 -1115l29 -32q119 197 369 83t308 -59.5t106.5 143.5t102.5 170l-30 23q-47 -101 -109 -148.5t-139 -28.5t-395 116l638 984l-17 32z" />
<glyph unicode="[" horiz-adv-x="515" d="M74 1346l-1 -1725l387 -1l110 122h-360v1754l249 1l120 145h-249z" />
<glyph unicode="\" horiz-adv-x="419" d="M478 -242l-104 -97l-414 1665l98 103z" />
<glyph unicode="]" horiz-adv-x="570" d="M503 -219l-178 -161h-335l100 128h280v1764l-369 1l100 127h402v-1859z" />
<glyph unicode="_" horiz-adv-x="976" d="M732 -269h-438q-208 -8 -292 -137l21 -8q65 45 188 43h521q149 12 245 146l-12 10q-106 -56 -233 -54z" />
<glyph unicode="`" horiz-adv-x="395" d="M264 1032l137 154q-126 -22 -290 153l-117 -121q182 -197 270 -186z" />
<glyph unicode="a" horiz-adv-x="806" d="M143 674q-111 -153 -119 -261t106 -257t176 -157q113 94 213 153q26 -93 137 -160l187 239l-23 13l-43 -47q-55 -52 -93 -13t-29 139v481q3 73 54 97l-334 -1q-121 -73 -232 -226zM592 762q-52 -19 -85 -118v-37v-399q-159 -120 -293 96.5t67 457.5h311z" />
<glyph unicode="b" horiz-adv-x="729" d="M279 1401q-124 -78 -180 -167t-63 -224v-669q13 -114 39.5 -179t74.5 -108t134.5 -61.5t301.5 289.5q143 219 106 382t-166.5 226.5t-339.5 -176.5l2 402q-10 168 113 274zM539.5 576.5q56.5 -189.5 -63.5 -364.5q-79 -89 -182 -38t-106 240l-2 228q80 118 188.5 121 t165 -186.5z" />
<glyph unicode="c" horiz-adv-x="655" d="M208 762q-232 -226 -165 -415t162 -279t170 -72q151 118 292 306l-25 22q-84 -97 -171 -176q-104 -12 -204.5 149t-76.5 293t100.5 163.5t141.5 -7t79 -150.5l125 115q17 97 -57 152t-165 46q-93 -39 -206 -147z" />
<glyph unicode="d" horiz-adv-x="861" d="M534 1113v-213h-255q-238 -350 -256 -444t10 -175t132 -198.5t156 -73.5l210 153q45 -163 148 -162l130 165l59 65l-30 34l-80 -85q-80 -32 -72 253v672q-11 246 115 284l-28 17q-213 -62 -239 -292zM531 827v-605q-192 -104 -293 39t-92 260.5t79 224.5h224z" />
<glyph unicode="e" horiz-adv-x="676" d="M218 761q-232 -225 -165 -414t177.5 -294.5t195.5 -32.5q130 95 271 282l-25 22q-84 -97 -152 -161q-117 -64 -239 103t-103 313.5t108.5 180t140.5 -23t39.5 -115t-119.5 -138.5l-113 -107l19 -32l291 254l82 72q17 138 -57 192.5t-165 45.5q-93 -39 -186 -147z" />
<glyph unicode="f" horiz-adv-x="595" d="M267 1140q-73 -42 -64 -375l-99 -8l-155 -159l19 -16q79 46 232 43l2 -649q-3 -167 -74 -207t-248 40l-90 -176q314 -15 443.5 152.5t127.5 379.5l-7 469h92l150 149l-247 2q-15 401 53 441q161 17 153 -131l91 72q46 55 16 121.5t-181 105.5z" />
<glyph unicode="g" horiz-adv-x="799" d="M168 674q-113 -153 -126.5 -261t103 -262t179.5 -162q125 104 233 163q29 -340 -28 -401q-79 -70 -191 -14.5t-175 139.5l-125 -123q122 -125 216 -143.5t160 7t193.5 173t113.5 311t-10.5 449t75.5 329.5l-11 22l-370 -1q-124 -73 -237 -226zM637 761q-85 -48 -83 -199 v-350q-181 -123 -292 37.5t-98.5 272.5t144.5 240z" />
<glyph unicode="h" horiz-adv-x="774" d="M63 1070l1 -492v-410q3 -148 119 -168l189 186l-20 20l-98 -49q-40 17 -36 150v375l139 105q196 36 189 -248l-1 -367q-1 -146 72 -168l190 184l-20 26l-58 -54q-35 5 -34 118l1 397q-3 135 -86.5 191t-171.5 41l-229 -178v396q-7 214 113 274l-16 19 q-245 -127 -243 -348z" />
<glyph unicode="i" horiz-adv-x="429" d="M46 1161q109 -19 115 -160l147 129q6 132 -120 178zM17 710l20 -16l60 44q53 -20 41 -172v-406q12 -147 124 -166l157 192l-21 24l-58 -61q-55 13 -48 164l-1 423q-2 157 -68 176z" />
<glyph unicode="j" horiz-adv-x="384" d="M46 1161q109 -19 115 -160l137 129q6 132 -120 178zM17 710l17 -20l52 34q53 35 52 -158v-406q9 -191 -4.5 -282.5t-113.5 -201.5l18 -14q292 157 252 576l1 498q-2 157 -78 176z" />
<glyph unicode="k" horiz-adv-x="745" d="M34 949l4 -764q9 -136 125 -191l222 193l-26 27q-182 -186 -161 214q44 34 126 11t175.5 -235.5t166.5 -212.5l154 222l-30 27q-60 -162 -164 68.5t-223 251.5q81 44 131.5 130.5t19.5 219.5l-164 -102q51 -141 -19.5 -218.5t-178.5 -111.5l-1 589q2 255 126 317l-29 17 q-263 -173 -254 -452z" />
<glyph unicode="l" horiz-adv-x="368" d="M88 1066v-856q14 -158 124 -216l197 192l-15 29q-123 -119 -163 23v478v391q-5 197 75 273l-18 22q-208 -172 -200 -336z" />
<glyph unicode="m" horiz-adv-x="1251" d="M-43 720l24 -20l55 64q84 -25 76 -186v-414q3 -150 79 -170l189 188l-20 20l-58 -49q-40 17 -36 151v386l110 99q183 33 178 -251l-1 -370q-1 -148 72 -170l190 186l-20 26l-58 -54q-35 5 -34 119v409l100 94q197 47 193 -240l-1 -370q-1 -148 63 -170l189 186l-25 20 l-44 -41q-46 5 -41 118v350q-2 250 -249 276l-198 -177q-47 164 -244 180l-189 -180q-21 162 -152 180z" />
<glyph unicode="n" horiz-adv-x="835" d="M-33 719l24 -30l59 54q80 -5 72 -166v-414q3 -149 119 -169l149 188l-20 20l-58 -50q-40 18 -36 152v378l109 89q239 69 219 -233l-1 -370q-1 -148 72 -170l190 186l-20 26l-58 -55q-35 5 -34 119l1 401q-3 136 -86.5 192.5t-171.5 41.5l-229 -180q-21 162 -112 180z" />
<glyph unicode="o" horiz-adv-x="769" d="M166 760q-112 -114 -132.5 -292.5t100 -323t211 -155.5t159.5 52.5t158.5 220.5t73.5 296.5t-112.5 236.5t-170 113t-124.5 -9t-163 -139zM504.5 660q110.5 -131 122.5 -248t-46.5 -199t-148 -80t-200.5 169.5t-90.5 305t136.5 160.5t226.5 -108z" />
<glyph unicode="p" horiz-adv-x="859" d="M294 36l3 66q139 -88 230.5 -22t199 211t103 289.5t-144.5 256.5t-192 67l-200 -156q-39 144 -118 165l-140 -178l-49 -56l30 -34l70 76q59 -2 65 -247l-1 -490q14 -158 -142 -285l14 -16q71 25 146.5 -34t168.5 -47l142 158q-119 -41 -319 68q131 124 134 208zM293 233 l3 439l111 82q90 3 180 -76t96 -250t-116.5 -234.5t-203.5 93.5z" />
<glyph unicode="q" horiz-adv-x="773" d="M148 674q-106 -153 -114 -261t101.5 -262t168.5 -162q197 117 223 151l2 -487l339 288l-26 40l-163 -128l2 907q-6 86 64 122l-16 19h-299q-176 -74 -282 -227zM530 208q-129 -154 -245 -3t-128.5 273t88.5 264h338q-61 -24 -51 -159z" />
<glyph unicode="r" horiz-adv-x="692" d="M11 663l22 -14l78 84q68 11 59 -158l-7 -410q17 -146 121 -170l150 192l-20 24l-62 -74q-41 4 -36 105l7 396v60l71 73q83 57 181 -95l128 106q-64 102 -149.5 124t-159.5 -86l-75 -84q-9 141 -108 169z" />
<glyph unicode="s" horiz-adv-x="706" d="M223 850q-66 -43 -103 -85t-43.5 -127t57.5 -138.5t229.5 -105.5t191 -101t17 -91t-46 -60t-115.5 -9t-151.5 47.5t-110 91t23.5 116.5l-12 16l-135 -136q-18 -53 35.5 -125.5t127 -109.5t164 -41.5t149.5 47.5t122 153t60 172t-59.5 118.5t-238.5 90t-194.5 132 t69 108.5t172 -23t20.5 -109l16 -13l131 129q-34 65 -98 96.5t-138 15.5t-140 -59z" />
<glyph unicode="t" horiz-adv-x="625" d="M239 1182q-72 -88 -80 -184l2 -143l-47 -3l-143 -196l34 -23q52 104 160 82l-1 -494q0 -158 159 -235l179 228l-25 33q-145 -204 -168 31v458h148l140 97l-10 28h-290v20v245q-3 58 72 133l-20 20q-38 -9 -110 -97z" />
<glyph unicode="u" horiz-adv-x="879" d="M885 186l-24 30l-59 -54q-80 4 -72 166v416q-3 150 -119 170l-149 -188l20 -21l58 50q48 -15 36 -152v-380l-93 -80q-239 -62 -235 225l1 372q1 148 -112 170l-150 -186l20 -27l58 55q41 -5 34 -150l-1 -304q0 -152 83.5 -229t180.5 -82l223 188q21 -162 112 -180z" />
<glyph unicode="v" horiz-adv-x="885" d="M140 879l-165 -214l25 -21q69 91 102 20l288 -630q54 -64 133 -25q320 360 338.5 491.5t-80 274t-192 137.5t-173 -82t-106.5 -111l17 -35q80 91 167.5 93t169.5 -137t62.5 -270.5t-171.5 -206.5q-79 32 -365 719q-26 43 -50 -3z" />
<glyph unicode="w" horiz-adv-x="1262" d="M1023 696q131 -179 83 -307.5t-166 -222.5q-75 27 -369 706q-31 63 -70 3l-213 -199l-88 196q-26 62 -64 -3l-169 -212l26 -20q71 90 105 19l267 -580q69 -147 163 -39l110 120l-22 28l-47 -45q-54 -52 -265 499q119 130 175 17l286 -601q61 -119 135 -4q320 314 339 450 t-84 276.5t-195.5 131t-275.5 -202.5l18 -37q190 206 321 27z" />
<glyph unicode="x" horiz-adv-x="838" d="M-1 654l33 -28q78 143 106 75l134 -209q-230 -211 -242 -306.5t51.5 -147.5t146.5 -42l150 177l-14 18q-109 -116 -186.5 -15.5t122.5 279.5l230 -370q76 -89 161 -89l148 171l-21 23q-101 -161 -338 270l332 403l-21 40l-239 -1l-134 -144l16 -17q31 40 235 25 l-215 -261l-195 322q-50 144 -114 20z" />
<glyph unicode="y" horiz-adv-x="831" d="M511.5 -293q228.5 175 242.5 416v637q-20 146 -104 148l-177 -214l23 -32l75 80q42 8 41 -161v-317q-92 -134 -203.5 -139t-134.5 243l1 368q1 146 -117 168l-167 -204l30 -27l74 77q38 -18 40 -154v-321q15 -215 239 -281q152 88 247 183v-115q-11 -294 -168 -326.5 t-313 102.5l-93 -108q236 -198 464.5 -23z" />
<glyph unicode="z" horiz-adv-x="678" d="M38 679l15 -18q58 97 194 89h206q-384 -589 -445 -738l17 -19q58 37 285.5 11.5t248.5 23.5t111 270l-37 2l-39 -100q-31 -74 -437 -28l459 705l-15 27h-423z" />
<glyph unicode="{" horiz-adv-x="412" d="M135 1009v-252q2 -146 -112 -272q114 -142 112 -262q12 -541 146 -613l105 239l-13 25q-78 -79 -101 280v158q-21 139 -112 184q105 64 112 257v307q-5 308 67 403l-16 27q-195 -214 -188 -481z" />
<glyph unicode="}" horiz-adv-x="408" d="M248 83v257q-2 149 109 276q-111 145 -109 267q-12 552 -143 625l-102 -243l13 -26q76 81 99 -285v-161q20 -142 109 -187q-103 -66 -109 -263v-312q4 -314 -66 -410l16 -28q190 218 183 490z" />
<glyph unicode="&#xa3;" horiz-adv-x="843" d="M229 594l-110 -3l-119 -150l31 -21q15 60 154 47h5l-157 -481l41 -13q86 131 270.5 60t324.5 -34l179 230l-32 9q-131 -153 -319 -75.5t-335 7.5l103 302h198l166 147l-30 9q-32 -43 -294 -39l28 83h210l156 147l-30 9q-32 -44 -311 -39q44 321 190.5 344t195.5 -95 l-13 -80l24 -16l79 197q-23 99 -83.5 131t-127 31.5t-150 -68.5t-125.5 -216l-59 -223l-100 -3l-109 -150l31 -21q15 60 144 47l-24 -73h-2z" />
<glyph unicode="&#xad;" d="M626 550h-348q-165 -13 -252 -181l16 -13q44 60 170 62h413q132 -2 235 157l-10 16q-58 -46 -224 -41z" />
<glyph unicode="&#xb2;" horiz-adv-x="376" d="M177 896q-82 -23 -127.5 -72.5t-40 -102t40.5 -83.5l114 103l-8 9q-32 -14 -45.5 24t-0.5 61.5t49 20t74 -91.5t-6 -135l-204 -215l13 -14h275l67 113l-16 5l-21 -30l-201 1q154 156 192 233.5t-17.5 137t-137.5 36.5z" />
<glyph unicode="&#xb3;" horiz-adv-x="396" d="M118 901l-114 -139l13 -14q45 47 84 35l169 2l-189 -237l15 -22q73 87 151 -2t-4 -201l-135 -152l19 -13q187 184 233.5 252.5t42.5 147t-167 137.5l146 193l-9 12z" />
<glyph unicode="&#xb4;" horiz-adv-x="410" d="M35 1002l32 -48l259 159q98 83 33 233l-231 -155q105 -87 -93 -189z" />
<glyph unicode="&#xb8;" horiz-adv-x="234" d="M29 -119l6 -9q23 42 63 35.5t55 -33t14.5 -57t-20.5 -61.5l-60 -80l9 -9q86 106 100.5 135t18 63.5t-16 63t-42 35.5t-41.5 6.5t-45 -16.5l15 62l-20 5z" />
<glyph unicode="&#xb9;" horiz-adv-x="275" d="M27 775l12 -20l61 36v-223q7 -78 -86 -159l9 -11h165l97 65l-10 13q-77 0 -148 -1q78 33 85 87v332l-8 10z" />
<glyph unicode="&#xbc;" horiz-adv-x="790" d="M61 771l11 -14l56 47v-239q7 -78 -79 -159l8 -11h130l89 54l-9 12h-136q72 43 78 98v331l-8 10zM116 -111l40 -83l469 1226l-34 87zM349 7l14 1q21 16 39 21t76 -5t78 -13q16 -133 -28 -147l8 -16q68 56 85 94l1 58q55 -11 80.5 11t64.5 107l-16 3q-27 -58 -56 -62.5 t-75 16.5v263l-63 -128v-124q-107 24 -119 7q216 316 202 484l-83 -60q64 -107 -208 -510z" />
<glyph unicode="&#xbd;" horiz-adv-x="786" d="M61 771l11 -14l56 47v-239q7 -78 -79 -159l8 -11h130l89 54l-9 12h-136q72 43 78 98v331l-8 10zM116 -111l40 -83l469 1226l-34 87zM598.5 496.5q-82.5 -23.5 -128.5 -73t-40.5 -102t40.5 -83.5l98 87l-8 8q-38 -22 -50.5 20.5t11 74t65.5 31.5t83 -83t-13 -151 l-200 -211l13 -14h265l65 111l-14 7l-26 -42l-198 1q156 169 194 246t-18 137t-138.5 36.5z" />
<glyph unicode="&#xbe;" horiz-adv-x="825" d="M61 771l11 -14l56 47v-239q7 -78 -79 -159l8 -11h130l89 54l-9 12h-136q72 43 78 98v331l-8 10zM116 -111l40 -83l469 1226l-34 87zM523 462l-105 -102l12 -12q41 42 114 34l134 -1l-185 -224l15 -15q87 89 165.5 2t-37.5 -225l-124 -132l19 -13q172 170 215 233.5 t27 149.5t-142 114l135 179l-8 11z" />
<glyph unicode="&#xd7;" horiz-adv-x="679" d="M382 562l-195 237l-113 -104l215 -233l-226 -250l38 -26l218 240l227 -264l94 94l-228 265l230 250l-37 25z" />
<glyph unicode="&#xe7;" horiz-adv-x="654" d="M279 -129l6 -9q23 42 63 35.5t55 -33t14.5 -57t-20.5 -61.5l-60 -80l9 -9q86 106 100.5 135t18 63.5t-16 63t-42 35.5t-41.5 6.5t-45 -16.5l15 62l-20 5zM198 753q-232 -222 -165 -408.5t162 -275t170 -70.5q151 116 292 301l-25 22q-84 -96 -171 -173 q-104 -12 -204.5 146.5t-76.5 288.5t100.5 161t141.5 -7t79 -148l125 113q17 96 -57 150t-165 45q-93 -38 -206 -145z" />
<glyph unicode="&#xf7;" horiz-adv-x="892" d="M300 267q82 -14 87 -120l140 112q5 99 -90 134zM626 550h-348q-165 -13 -252 -181l16 -13q44 60 170 62h413q132 -2 235 157l-10 16q-58 -46 -224 -41zM307 700q82 -14 87 -120l140 112q5 99 -90 134z" />
<glyph unicode="&#x2c6;" horiz-adv-x="518" d="M399 1018q-139 6 -183 153l-150 -121l-35 39l271 239q76 -160 208 -178z" />
<glyph unicode="&#x2dc;" horiz-adv-x="566" d="M125 1144l-94 -145l25 -32l53 71q77 60 182 -26t157 15l107 166l-22 32l-44 -67q-64 -55 -172.5 35t-191.5 -49z" />
<glyph unicode="&#x2000;" horiz-adv-x="821" />
<glyph unicode="&#x2001;" horiz-adv-x="1642" />
<glyph unicode="&#x2002;" horiz-adv-x="821" />
<glyph unicode="&#x2003;" horiz-adv-x="1642" />
<glyph unicode="&#x2004;" horiz-adv-x="547" />
<glyph unicode="&#x2005;" horiz-adv-x="410" />
<glyph unicode="&#x2006;" horiz-adv-x="273" />
<glyph unicode="&#x2007;" horiz-adv-x="273" />
<glyph unicode="&#x2008;" horiz-adv-x="205" />
<glyph unicode="&#x2009;" horiz-adv-x="328" />
<glyph unicode="&#x200a;" horiz-adv-x="91" />
<glyph unicode="&#x2010;" d="M626 550h-348q-165 -13 -252 -181l16 -13q44 60 170 62h413q132 -2 235 157l-10 16q-58 -46 -224 -41z" />
<glyph unicode="&#x2011;" d="M626 550h-348q-165 -13 -252 -181l16 -13q44 60 170 62h413q132 -2 235 157l-10 16q-58 -46 -224 -41z" />
<glyph unicode="&#x2012;" d="M626 550h-348q-165 -13 -252 -181l16 -13q44 60 170 62h413q132 -2 235 157l-10 16q-58 -46 -224 -41z" />
<glyph unicode="&#x2013;" horiz-adv-x="965" d="M763 550h-428q-202 -13 -309 -181l20 -13q54 60 208 62h507q163 -2 289 157l-12 16q-71 -46 -275 -41z" />
<glyph unicode="&#x2014;" horiz-adv-x="1989" d="M1499 550h-854q-405 -13 -619 -181l39 -13q108 60 418 62h1014q324 -2 577 157l-25 16q-142 -46 -550 -41z" />
<glyph unicode="&#x2018;" horiz-adv-x="210" d="M210 1072q-82 52 -80 132t75 124l-21 22q-107 -90 -137.5 -138.5t-30.5 -112.5t27.5 -100t61.5 -39z" />
<glyph unicode="&#x2019;" horiz-adv-x="260" d="M36 1238q82 -52 80 -132t-75 -124l21 -22q107 90 137.5 138.5t30.5 112.5t-27.5 100t-61.5 39z" />
<glyph unicode="&#x201c;" horiz-adv-x="447" d="M220 1072q-82 52 -80 132t75 124l-21 22q-107 -90 -137.5 -138.5t-30.5 -112.5t27.5 -100t61.5 -39zM420 1072q-82 52 -80 132t75 124l-21 22q-107 -90 -137.5 -138.5t-30.5 -112.5t27.5 -100t61.5 -39z" />
<glyph unicode="&#x201d;" horiz-adv-x="421" d="M216 1238q82 -52 80 -132t-75 -124l21 -22q107 90 137.5 138.5t30.5 112.5t-27.5 100t-61.5 39zM16 1238q82 -52 80 -132t-75 -124l21 -22q107 90 137.5 138.5t30.5 112.5t-27.5 100t-61.5 39z" />
<glyph unicode="&#x2022;" horiz-adv-x="421" d="M169 706l4 -113l-87 115l-22 -80l71 -88h-99l-35 -81l129 12l-80 -72l20 -103l101 125l-9 -132l82 -42l-12 176l106 -131l20 99l-84 80l108 -1l37 89l-151 -19l73 83l-19 81l-89 -108l9 155z" />
<glyph unicode="&#x202f;" horiz-adv-x="328" />
<glyph unicode="&#x205f;" horiz-adv-x="410" />
<glyph unicode="&#x20ac;" horiz-adv-x="1008" d="M278 935q103 177 242 228t261 -36.5t30 -194.5l30 -15q157 141 162 190t-75 121.5t-149.5 82t-128 -1.5t-201 -126t-206 -195t-120.5 -194q-9 -19 -16 -39q-64 -48 -99 -147l16 -11q26 34 66 49q0 -55 16 -114q2 -6 3 -12q-51 -47 -81 -132l16 -11q37 48 100 58 q55 -108 170 -231q167 -181 385 -216l246 264l-30 19l-106 -106q-96 -34 -254 83q-111 82 -191 189h219q113 17 186 204l-9 13q-81 -78 -177 -75h-305q-15 38 -23 78h308q113 17 186 204l-9 13q-81 -78 -177 -75h-314q7 65 29 136z" />
<glyph unicode="&#xe000;" horiz-adv-x="905" d="M0 905h905v-905h-905v905z" />
</font>
</defs>
</svg>
