<?xml version="1.0" standalone="no"?>
<!DOCTYPE svg PUBLIC "-//W3C//DTD SVG 1.1//EN" "http://www.w3.org/Graphics/SVG/1.1/DTD/svg11.dtd" >
<svg xmlns="http://www.w3.org/2000/svg">
<metadata></metadata>
<defs>
<font id="minstrelposterwhgregular" horiz-adv-x="829" >
<font-face units-per-em="1000" ascent="800" descent="-200" />
<missing-glyph horiz-adv-x="200" />
<glyph horiz-adv-x="1000" />
<glyph horiz-adv-x="1000" />
<glyph unicode="&#xd;" horiz-adv-x="200" />
<glyph unicode=" "  horiz-adv-x="200" />
<glyph unicode="&#x09;" horiz-adv-x="200" />
<glyph unicode="&#xa0;" horiz-adv-x="200" />
<glyph unicode="!" horiz-adv-x="343" d="M328 773l-47 -535h-219l-46 535h312zM315 102q0 -48 -42 -82t-101 -34q-60 0 -102 34t-42 82t42 82t102 34q59 0 101 -34t42 -82z" />
<glyph unicode="&#x22;" horiz-adv-x="361" d="M344 799l-24 -209h-109l-23 209h156zM174 799l-24 -209h-109l-23 209h156z" />
<glyph unicode="#" horiz-adv-x="616" d="M599 237h-121l-23 -125h-171l22 125h-69l-22 -125h-172l23 125h-48v172h79l12 69h-91v171h122l22 125h171l-22 -125h69l23 125h171l-22 -125h47v-171h-78l-12 -69h90v-172zM349 478h-69l-12 -69h69z" />
<glyph unicode="$" horiz-adv-x="635" d="M619 504h-187v-3q67 -30 111 -109t44 -169q0 -80 -39 -152h-116v-71h-223v71h-192v195h192v2q-69 30 -114 109.5t-45 170.5q0 84 39 151h120v72h223v-72h187v-195z" />
<glyph unicode="&#x26;" horiz-adv-x="787" d="M770 75l-207 -127l-61 62q-71 -37 -157 -37q-135 0 -227 77q-98 82 -101 212q-3 107 57 184l-38 39v286h608v-197h-367l198 -201q0 45 -20 84l223 41q21 -66 21 -127q0 -98 -38 -185zM318 198l-78 79v-11q0 -27 21.5 -44.5t56.5 -23.5z" />
<glyph unicode="'" horiz-adv-x="198" d="M177 799l-24 -209h-109l-23 209h156z" />
<glyph unicode="(" horiz-adv-x="385" d="M367 -41l-259 -100q-90 233 -90 486q0 255 90 485l259 -100q-70 -188 -70 -385q0 -198 70 -386z" />
<glyph unicode=")" horiz-adv-x="385" d="M17 -41l259 -100q91 233 91 486q0 255 -91 485l-259 -100q71 -188 71 -385q0 -198 -71 -386z" />
<glyph unicode="*" horiz-adv-x="441" d="M421 631l-68 -39l67 -39l-66 -115l-67 39v-78h-133v78l-67 -38l-67 114l67 39l-67 39l66 115l68 -39v78h133v-78l67 39z" />
<glyph unicode="," horiz-adv-x="316" d="M302 102q0 -70 -61.5 -121t-133.5 -51q-25 0 -47 7l26 64q-72 35 -72 101q0 48 42.5 82t101.5 34t101.5 -34t42.5 -82z" />
<glyph unicode="-" horiz-adv-x="292" d="M278 292h-264v206h264v-206z" />
<glyph unicode="." horiz-adv-x="316" d="M302 99q0 -48 -42.5 -82t-101.5 -34t-101.5 34t-42.5 82t42.5 82t101.5 34t101.5 -34t42.5 -82z" />
<glyph unicode="/" horiz-adv-x="585" d="M579 772l-365 -903h-251l376 903h240z" />
<glyph unicode="1" horiz-adv-x="372" d="M353 0h-266v532h-68v239h334v-771z" />
<glyph unicode="2" horiz-adv-x="560" d="M543 0h-501q-25 60 -25 131q0 116 67 231q69 119 171 164v5h-225v240h225q117 0 200 -83t83 -199q0 -80 -41.5 -147.5t-110.5 -103.5h157v-238z" />
<glyph unicode="3" horiz-adv-x="621" d="M606 193q0 -85 -63 -139t-168 -54h-359v241h209q34 0 34 33q0 34 -34 34h-209v153h203q29 0 29 29t-29 29h-203v252h312q107 0 183.5 -61.5t76.5 -147.5q0 -101 -99 -164q117 -64 117 -205z" />
<glyph unicode="4" horiz-adv-x="682" d="M669 0h-265v153h-391l159 618h275l-108 -395h65v207h265v-583z" />
<glyph unicode="5" horiz-adv-x="624" d="M609 251q0 -104 -75.5 -177.5t-175.5 -73.5h-342v241h207q34 0 34 33q0 34 -34 34h-207v463h522v-240h-257v-29h76q104 0 178 -73.5t74 -177.5z" />
<glyph unicode="6" horiz-adv-x="733" d="M716 266q0 -110 -89.5 -188t-216.5 -78q-195 0 -302 121q-96 107 -91 264q5 156 105 265q109 121 283 121q13 0 37 -2v-203q-16 4 -37 4q-93 0 -150 -72q73 34 151 34q128 0 219 -78t91 -188zM468 266q0 13 -18 22t-44 9q-25 0 -43.5 -9t-18.5 -22q0 -16 25 -25 q20 -7 37 -7q19 0 38 7q24 9 24 25z" />
<glyph unicode="7" horiz-adv-x="523" d="M519 771l-249 -771h-265l201 532h-181v239h494z" />
<glyph unicode="8" horiz-adv-x="728" d="M712 193q0 -97 -109 -154q-98 -51 -239 -51t-239 51q-109 57 -109 154q0 140 117 205q-98 62 -98 164t103 163q93 56 226 56q132 0 226 -56q103 -61 103 -163t-98 -164q117 -65 117 -205zM402 526q0 39 -38 39q-39 0 -39 -39q0 -40 39 -40q38 0 38 40zM417 232 q0 20 -12 34q-15 17 -41 17t-39.5 -15.5t-13.5 -35.5q0 -19 12 -33q15 -17 41 -17t41 17q12 14 12 33z" />
<glyph unicode="9" horiz-adv-x="731" d="M715 385q-6 -155 -105 -265q-109 -120 -282 -120h-172v202h172q94 0 149 71q-70 -34 -151 -34q-128 0 -219 78t-91 188q0 109 90 187.5t217 78.5q194 0 302 -121q96 -107 90 -265zM388 505q0 15 -25 25q-18 6 -37 7t-38 -7q-24 -9 -24 -25q0 -13 18 -22.5t44 -9.5t44 9.5 t18 22.5z" />
<glyph unicode=":" horiz-adv-x="316" d="M302 389q0 -48 -42.5 -82t-101.5 -34t-101.5 34t-42.5 82t42.5 82t101.5 34t101.5 -34t42.5 -82zM302 99q0 -48 -42.5 -82t-101.5 -34t-101.5 34t-42.5 82t42.5 82t101.5 34t101.5 -34t42.5 -82z" />
<glyph unicode=";" horiz-adv-x="316" d="M302 389q0 -48 -42.5 -82t-101.5 -34t-101.5 34t-42.5 82t42.5 82t101.5 34t101.5 -34t42.5 -82zM302 102q0 -70 -61.5 -121t-133.5 -51q-25 0 -47 7l26 64q-72 35 -72 101q0 48 42.5 82t101.5 34t101.5 -34t42.5 -82z" />
<glyph unicode="?" horiz-adv-x="574" d="M560 532q0 -98 -70.5 -168t-168.5 -70h-14v-56h-229q-23 43 -23 93q0 77 51.5 134t127.5 65v2h-219v239h309q97 0 166.5 -70.5t69.5 -168.5zM343 102q0 -48 -42.5 -82t-101.5 -34q-60 0 -102 34t-42 82t42 82t102 34q59 0 101.5 -34t42.5 -82z" />
<glyph unicode="@" horiz-adv-x="869" d="M843 522q10 -38 10 -76q0 -77 -37 -136q-42 -68 -117 -87q-25 -6 -50 -6q-51 0 -90 26q-55 -45 -126 -45q-80 0 -138.5 56t-58.5 136t58.5 136t138.5 56q35 0 69 -13h132v-170q0 -34 14 -34q28 0 42 23t14 57q0 21 -5 41q-21 82 -104 123q-69 34 -162 34q-108 0 -188 -73 t-80 -180t80 -180t188 -73q113 0 191 75l102 -107q-121 -117 -293 -117q-169 0 -293 117t-124 285t124 285t293 117q145 0 254 -65q122 -72 156 -205zM481 390q0 19 -14.5 31t-33.5 12t-33.5 -12t-14.5 -31t14.5 -31t33.5 -12t33.5 12t14.5 31z" />
<glyph unicode="A" d="M814 0h-260v37h-160v260h160v184q-125 -63 -193 -194q-62 -122 -67 -287h-279q14 325 177 535q184 236 500 236h122v-771z" />
<glyph unicode="B" horiz-adv-x="739" d="M723 193q0 -85 -63 -139t-169 -54h-475v771h429q107 0 183 -61.5t76 -147.5q0 -102 -98 -164q117 -65 117 -205zM414 526q0 40 -40 40h-87v-80h87q40 0 40 40zM428 232q0 46 -45 46h-96v-91h96q21 0 33 13.5t12 31.5z" />
<glyph unicode="C" horiz-adv-x="673" d="M657 -1l-490 1q-150 165 -150 385q0 221 150 386h490v-239h-325q-37 -68 -37 -147q0 -80 38 -147h324v-239z" />
<glyph unicode="D" horiz-adv-x="747" d="M732 385q0 -159 -113 -272.5t-273 -113.5l-331 1v771h331q160 0 273 -113t113 -273zM490 385q0 61 -43 103.5t-103 42.5h-82v-292l82 -1q60 -1 103 42.5t43 104.5z" />
<glyph unicode="E" horiz-adv-x="644" d="M522 288h-206v194h206v-194zM630 0h-615v771h615v-239h-350v-294h350v-238z" />
<glyph unicode="F" horiz-adv-x="598" d="M476 288h-159v194h159v-194zM584 532h-303v-532h-266v771h569v-239z" />
<glyph unicode="G" horiz-adv-x="764" d="M748 0h-583q-149 163 -149 385q0 221 150 386h582v-239h-417q-38 -70 -38 -147t38 -147h183v49h-151v196h385v-483z" />
<glyph unicode="H" horiz-adv-x="660" d="M645 0h-266v395h-97v-395h-266v771h266v-154h97v154h266v-771z" />
<glyph unicode="I" horiz-adv-x="297" d="M282 0h-266v771h266v-771z" />
<glyph unicode="J" horiz-adv-x="554" d="M540 103q-137 -107 -317 -107q-107 0 -208 38v294q82 -53 173 -53q59 0 113 23v473h239v-668z" />
<glyph unicode="K" horiz-adv-x="747" d="M739 771l-194 -264l183 -507h-284l-90 248l-81 -110v-138h-265v771h265v-209l154 209h312z" />
<glyph unicode="L" horiz-adv-x="509" d="M495 0h-480v771h265v-532h215v-239z" />
<glyph unicode="M" horiz-adv-x="883" d="M868 0h-268v262l-159 -300l-158 300v-262h-268v771h265l161 -263l162 263h265v-771z" />
<glyph unicode="N" horiz-adv-x="828" d="M814 0h-260v62q-19 140 -91.5 250.5t-187.5 168.5v-481h-260v770l122 1q246 2 417 -148v148h260v-771z" />
<glyph unicode="O" horiz-adv-x="919" d="M903 387q0 -175 -130 -299t-313 -124t-313 124t-130 299t130 299t313 124t313 -124t130 -299zM595 371q0 54 -39.5 92.5t-95.5 38.5t-95.5 -38.5t-39.5 -92.5t39.5 -92.5t95.5 -38.5t95.5 38.5t39.5 92.5z" />
<glyph unicode="P" horiz-adv-x="781" d="M769 444q0 -154 -111 -243q-104 -84 -267 -84h-113v-117h-265v771h378q163 0 267 -84q111 -89 111 -243zM481 444q0 39 -28 61t-69 22h-106v-166h106q41 0 69 22t28 61z" />
<glyph unicode="Q" horiz-adv-x="913" d="M900 98l-200 -200l-91 92q-73 -26 -153 -26q-183 0 -313 124t-130 299t130 299t313 124t313 -124t130 -299q0 -121 -66 -222zM591 371q0 54 -39.5 92.5t-95.5 38.5t-95.5 -38.5t-39.5 -92.5t39.5 -92.5t95.5 -38.5t95.5 38.5t39.5 92.5z" />
<glyph unicode="R" horiz-adv-x="894" d="M884 88l-194 -181l-263 284h-154v-191h-263v771h467q144 0 237 -74q98 -79 98 -216q0 -134 -95 -213zM525 481q0 28 -19.5 44t-49.5 16h-183v-120h183q30 0 49.5 16t19.5 44z" />
<glyph unicode="S" horiz-adv-x="585" d="M570 532h-239q86 -34 142.5 -133.5t56.5 -212.5q0 -101 -48 -186h-467v238h243q-87 34 -145 133.5t-58 213.5q0 104 48 186h467v-239z" />
<glyph unicode="T" horiz-adv-x="591" d="M577 532h-148v-531h-266v531h-148v239h562v-239z" />
<glyph unicode="U" horiz-adv-x="663" d="M646 285q0 -129 -92.5 -221t-221.5 -92q-130 0 -222 92t-92 221v486h262v-471q0 -22 15 -37t37 -15q21 0 36.5 15t15.5 37v471h262v-486z" />
<glyph unicode="V" horiz-adv-x="624" d="M616 771l-155 -772h-298l-155 772h266l38 -356l39 356h265z" />
<glyph unicode="W" horiz-adv-x="1000" d="M993 771l-164 -771h-270l-59 209l-59 -209h-270l-164 771h275l38 -332l62 332h236l62 -332l39 332h274z" />
<glyph unicode="X" horiz-adv-x="690" d="M687 0h-303l-39 80l-39 -80h-303l190 395l-180 376h302l30 -61l29 61h303l-181 -376z" />
<glyph unicode="Y" horiz-adv-x="771" d="M766 771l-248 -399v-373h-265v373l-248 399h291l90 -158l89 158h291z" />
<glyph unicode="Z" horiz-adv-x="723" d="M708 0h-685l279 531h-287v240h685l-279 -533h287v-238z" />
<glyph unicode="\" horiz-adv-x="585" d="M-37 772l365 -903h251l-376 903h-240z" />
<glyph unicode="`" horiz-adv-x="448" d="M428 665h-160l-248 206h260z" />
<glyph unicode="a" horiz-adv-x="702" d="M676 0h-216v31h-132v216h132v152q-104 -52 -159 -161q-52 -101 -56 -238h-232q11 269 147 444q153 196 415 196h101v-640z" />
<glyph unicode="b" horiz-adv-x="613" d="M600 160q0 -70 -52.5 -115t-139.5 -45h-394v640h356q88 0 151.5 -51t63.5 -123q0 -84 -82 -136q97 -54 97 -170zM344 437q0 33 -33 33h-72v-67h72q33 0 33 34zM356 193q0 38 -38 38h-79v-76h79q38 0 38 38z" />
<glyph unicode="c" horiz-adv-x="559" d="M545 -1l-406 1q-125 136 -125 320t125 320h406v-198h-269q-31 -57 -31 -122q0 -66 31 -122h269v-199z" />
<glyph unicode="d" horiz-adv-x="620" d="M608 320q0 -132 -94 -226.5t-226 -94.5l-275 1v640h275q132 0 226 -94t94 -226zM407 320q0 50 -35.5 85.5t-85.5 35.5h-68v-243h68q50 0 85.5 35.5t35.5 86.5z" />
<glyph unicode="e" horiz-adv-x="535" d="M434 239h-171v161h171v-161zM523 0h-510v640h510v-198h-290v-244h290v-198z" />
<glyph unicode="f" horiz-adv-x="496" d="M395 239h-132v161h132v-161zM485 442h-252v-442h-221v640h473v-198z" />
<glyph unicode="g" horiz-adv-x="634" d="M621 0h-484q-124 135 -124 320q0 183 124 320h484v-198h-347q-31 -57 -31 -122q0 -66 31 -122h152v40h-125v163h320v-401z" />
<glyph unicode="h" horiz-adv-x="548" d="M535 0h-221v328h-80v-328h-221v640h221v-128h80v128h221v-640z" />
<glyph unicode="i" horiz-adv-x="247" d="M234 0h-220v640h220v-640z" />
<glyph unicode="j" horiz-adv-x="460" d="M448 85q-113 -89 -263 -89q-87 0 -173 32v244q69 -44 144 -44q48 0 94 19v393h198v-555z" />
<glyph unicode="k" horiz-adv-x="620" d="M614 640l-161 -219l152 -421h-236l-75 206l-67 -91v-115h-220v640h220v-174l128 174h259z" />
<glyph unicode="l" horiz-adv-x="422" d="M411 0h-399v640h220v-442h179v-198z" />
<glyph unicode="m" horiz-adv-x="733" d="M721 0h-222v217l-132 -249l-131 249v-217h-223v640h220l134 -218l134 218h220v-640z" />
<glyph unicode="n" horiz-adv-x="687" d="M675 0h-216v51q-15 116 -75.5 208t-155.5 140v-399h-216v639l101 1q203 2 346 -123v123h216v-640z" />
<glyph unicode="o" horiz-adv-x="763" d="M749 321q0 -145 -108 -248t-259 -103q-152 0 -260 103t-108 248t108 248t260 103t259.5 -103t107.5 -248zM494 308q0 45 -33 77t-79 32t-79 -32t-33 -77t33 -77t79 -32t79 32t33 77z" />
<glyph unicode="p" horiz-adv-x="648" d="M638 369q0 -128 -92 -202q-86 -70 -222 -70h-94v-97h-220v640h314q136 0 222 -69q92 -74 92 -202zM399 369q0 32 -23 50t-58 18h-88v-137h88q35 0 58 18.5t23 50.5z" />
<glyph unicode="q" horiz-adv-x="758" d="M747 81l-166 -166l-76 77q-61 -22 -127 -22q-151 0 -259 103t-108 248t107.5 248t259.5 103t260 -103t108 -248q0 -101 -55 -184zM491 308q0 45 -33 77t-80 32q-46 0 -79 -32t-33 -77t33 -77t79 -32q47 0 80 32t33 77z" />
<glyph unicode="r" horiz-adv-x="742" d="M734 73l-161 -150l-219 236h-128v-159h-218v640h388q119 0 196 -62q82 -66 82 -179q0 -111 -79 -177zM436 399q0 50 -58 50h-152v-100h152q58 0 58 50z" />
<glyph unicode="s" horiz-adv-x="486" d="M474 442h-199q71 -29 118.5 -111.5t47.5 -176.5q0 -84 -40 -154h-388v198h202q-73 28 -121 110.5t-48 177.5q0 86 40 154h388v-198z" />
<glyph unicode="t" horiz-adv-x="491" d="M479 442h-123v-441h-221v441h-123v198h467v-198z" />
<glyph unicode="u" horiz-adv-x="550" d="M536 237q0 -107 -77 -183.5t-184 -76.5q-108 0 -184 76.5t-76 183.5v403h217v-391q0 -18 12.5 -30.5t30.5 -12.5t30.5 12.5t12.5 30.5v391h218v-403z" />
<glyph unicode="v" horiz-adv-x="518" d="M511 640l-128 -641h-248l-128 641h221l31 -296l33 296h219z" />
<glyph unicode="w" horiz-adv-x="830" d="M825 640l-136 -640h-224l-49 173l-49 -173h-224l-137 640h229l31 -276l52 276h196l51 -276l32 276h228z" />
<glyph unicode="x" horiz-adv-x="573" d="M571 0h-252l-32 66l-32 -66h-252l158 328l-150 312h251l25 -51l24 51h252l-151 -312z" />
<glyph unicode="y" horiz-adv-x="640" d="M636 640l-206 -331v-310h-220v310l-206 331h242l74 -131l74 131h242z" />
<glyph unicode="z" horiz-adv-x="600" d="M588 0h-568l231 441h-238v199h568l-231 -442h238v-198z" />
<glyph unicode="&#xa1;" horiz-adv-x="343" d="M17 -195l47 535h219l46 -535h-312zM30 476q0 48 41.5 82t101.5 34q59 0 101.5 -34t42.5 -82t-42.5 -82t-101.5 -34q-60 0 -101.5 34t-41.5 82z" />
<glyph unicode="&#xa2;" horiz-adv-x="533" d="M509 455h-226q-18 -31 -18 -70q0 -36 18 -70h226v-193h-107v-122h-224v122h-51q-103 113 -103 263q0 151 103 264h51v122h224v-122h107v-194z" />
<glyph unicode="&#xa3;" horiz-adv-x="532" d="M461 506q-24 4 -47 4q-58 0 -107 -22v-77h78v-111h-78v-62h201l-75 -238h-365v300h-43v111h43v273q145 114 341 105z" />
<glyph unicode="&#xa4;" horiz-adv-x="723" d="M133 469h-51l-24 -68h65v-31h-40l-25 -68h75q32 -140 150 -227t264 -87q44 0 87 9v283q-38 -33 -87 -33q-69 0 -107 55h61l24 68h-107q-1 17 4 31h114l24 68h-90q35 24 79 24q9 0 19 -1l98 275q-58 15 -119 15q-147 0 -263 -85q-119 -88 -151 -228z" />
<glyph unicode="&#xa5;" horiz-adv-x="837" d="M222 475h-103v-69h146l19 -30h-165v-69h167v-307h265v307h167v69h-165l20 30h145v69h-103l184 296h-291l-89 -158l-90 158h-291z" />
<glyph unicode="&#xa8;" horiz-adv-x="438" d="M236 751q0 -33 25 -58t59 -25t61 24.5t27 58.5q0 36 -25.5 57.5t-61.5 21.5q-34 0 -59.5 -22.5t-25.5 -56.5zM30 752q0 -34 25 -58.5t59 -24.5t60.5 24.5t26.5 58.5q0 35 -25.5 57t-60.5 22q-34 0 -59.5 -22.5t-25.5 -56.5z" />
<glyph unicode="&#xaa;" horiz-adv-x="453" d="M427 363h-130v19h-79v129h79v91q-124 -62 -129 -239h-139q7 162 88 266q92 118 249 118h61v-384z" />
<glyph unicode="&#xab;" horiz-adv-x="502" d="M486 173h-181l-88 207l88 217h181l-89 -217zM286 173h-181l-88 207l88 217h181l-89 -217z" />
<glyph unicode="&#xad;" horiz-adv-x="292" d="M278 292h-264v206h264v-206z" />
<glyph unicode="&#xb4;" horiz-adv-x="448" d="M20 665h160l248 206h-260z" />
<glyph unicode="&#xb7;" horiz-adv-x="316" d="M302 389q0 -48 -42.5 -82t-101.5 -34t-101.5 34t-42.5 82t42.5 82t101.5 34t101.5 -34t42.5 -82z" />
<glyph unicode="&#xb8;" horiz-adv-x="448" d="M161 -68q18 18 37 0q8 -7 8 -19q0 -11 -8 -18q-19 -18 -37 0l-99 -98q49 -49 117 -49t117 49t49 117t-48.5 116.5t-117.5 48.5q-68 0 -117 -48z" />
<glyph unicode="&#xba;" horiz-adv-x="486" d="M464 565q0 -87 -64.5 -149t-155.5 -62t-156 62t-65 149t65 148.5t156 61.5t155.5 -61.5t64.5 -148.5zM311 557q0 27 -19.5 46t-47.5 19t-47.5 -19t-19.5 -46t19.5 -46.5t47.5 -19.5t47.5 19.5t19.5 46.5z" />
<glyph unicode="&#xbb;" horiz-adv-x="502" d="M9 173h181l88 207l-88 217h-181l89 -217zM209 173h181l88 207l-88 217h-181l89 -217z" />
<glyph unicode="&#xbf;" horiz-adv-x="574" d="M25 44q0 98 70 168t169 70h14v56h229q23 -43 23 -93q0 -77 -52 -134t-127 -65v-2h219v-239h-309q-98 0 -167 70.5t-69 168.5zM242 474q0 48 42 82t102 34q59 0 101.5 -34t42.5 -82t-42.5 -82t-101.5 -34q-60 0 -102 34t-42 82z" />
<glyph unicode="&#xc0;" d="M15 0zM814 0h-260v37h-160v260h160v184q-125 -63 -193 -194q-62 -122 -67 -287h-279q14 325 177 535q184 236 500 236h122v-771zM750 795h-160l-248 206h260z" />
<glyph unicode="&#xc1;" d="M15 0zM814 0h-260v37h-160v260h160v184q-125 -63 -193 -194q-62 -122 -67 -287h-279q14 325 177 535q184 236 500 236h122v-771zM589 802h160l248 206h-260z" />
<glyph unicode="&#xc2;" d="M15 0zM814 0h-260v37h-160v260h160v184q-125 -63 -193 -194q-62 -122 -67 -287h-279q14 325 177 535q184 236 500 236h122v-771zM823 801h-180l-34 38l-39 -38h-165l204 206z" />
<glyph unicode="&#xc3;" d="M15 0zM814 0h-260v37h-160v260h160v184q-125 -63 -193 -194q-62 -122 -67 -287h-279q14 325 177 535q184 236 500 236h122v-771zM820 960q0 -70 -49.5 -120t-120.5 -50q-47 0 -102 36q-23 15 -36 15q-19 0 -32.5 -13.5t-13.5 -32.5h-123q0 70 49.5 120t119.5 50 q50 0 102 -36q28 -15 36 -15q20 0 33 13.5t13 32.5h124z" />
<glyph unicode="&#xc4;" d="M15 0zM814 0h-260v37h-160v260h160v184q-125 -63 -193 -194q-62 -122 -67 -287h-279q14 325 177 535q184 236 500 236h122v-771zM623 880q0 -33 25 -58t59 -25t61 24.5t27 58.5q0 36 -25.5 57.5t-61.5 21.5q-34 0 -59.5 -22.5t-25.5 -56.5zM417 881q0 -34 25 -58.5 t59 -24.5t60.5 24.5t26.5 58.5q0 35 -25.5 57t-60.5 22q-34 0 -59.5 -22.5t-25.5 -56.5z" />
<glyph unicode="&#xc5;" d="M15 0zM814 0h-260v37h-160v260h160v184q-125 -63 -193 -194q-62 -122 -67 -287h-279q14 325 177 535q184 236 500 236h122v-771zM467 943q0 -70 49.5 -119.5t119.5 -49.5t119 49.5t49 119.5q0 69 -49 118.5t-119 49.5t-119.5 -49.5t-49.5 -118.5zM569 943 q0 -28 19.5 -47.5t47.5 -19.5t47.5 19.5t19.5 47.5q0 27 -19.5 47t-47.5 20t-47.5 -20t-19.5 -47z" />
<glyph unicode="&#xc6;" horiz-adv-x="1178" d="M1055 288h-206v194h206v-194zM1164 0h-616v37h-153v260h153v181q-123 -64 -188 -194q-62 -121 -66 -284h-279q14 325 178 535q183 236 499 236h472v-239h-350v-294h350v-238z" />
<glyph unicode="&#xc7;" horiz-adv-x="673" d="M17 0zM657 -1l-490 1q-150 165 -150 385q0 221 150 386h490v-239h-325q-37 -68 -37 -147q0 -80 38 -147h324v-239zM371 -68q18 18 37 0q8 -7 8 -19q0 -11 -8 -18q-19 -18 -37 0l-99 -98q49 -49 117 -49t117 49t49 117t-48.5 116.5t-117.5 48.5q-68 0 -117 -48z" />
<glyph unicode="&#xc8;" horiz-adv-x="644" d="M15 0zM522 288h-206v194h206v-194zM630 0h-615v771h615v-239h-350v-294h350v-238zM490 791h-160l-248 206h260z" />
<glyph unicode="&#xc9;" horiz-adv-x="644" d="M15 0zM522 288h-206v194h206v-194zM630 0h-615v771h615v-239h-350v-294h350v-238zM226 800h160l248 206h-260z" />
<glyph unicode="&#xca;" horiz-adv-x="644" d="M15 0zM522 288h-206v194h206v-194zM630 0h-615v771h615v-239h-350v-294h350v-238zM551 799h-180l-34 38l-39 -38h-165l204 206z" />
<glyph unicode="&#xcb;" horiz-adv-x="644" d="M15 0zM522 288h-206v194h206v-194zM630 0h-615v771h615v-239h-350v-294h350v-238zM347 886q0 -33 25 -58t59 -25t61 24.5t27 58.5q0 36 -25.5 57.5t-61.5 21.5q-34 0 -59.5 -22.5t-25.5 -56.5zM141 887q0 -34 25 -58.5t59 -24.5t60.5 24.5t26.5 58.5q0 35 -25.5 57 t-60.5 22q-34 0 -59.5 -22.5t-25.5 -56.5z" />
<glyph unicode="&#xcc;" horiz-adv-x="297" d="M0 0zM282 0h-266v771h266v-771zM276 797h-160l-248 206h260z" />
<glyph unicode="&#xcd;" horiz-adv-x="297" d="M16 0zM282 0h-266v771h266v-771zM62 801h160l248 206h-260z" />
<glyph unicode="&#xce;" horiz-adv-x="297" d="M0 0zM282 0h-266v771h266v-771zM365 799h-180l-34 38l-39 -38h-165l204 206z" />
<glyph unicode="&#xcf;" horiz-adv-x="297" d="M0 0zM282 0h-266v771h266v-771zM174 889q0 -33 25 -58t59 -25t61 24.5t27 58.5q0 36 -25.5 57.5t-61.5 21.5q-34 0 -59.5 -22.5t-25.5 -56.5zM-32 890q0 -34 25 -58.5t59 -24.5t60.5 24.5t26.5 58.5q0 35 -25.5 57t-60.5 22q-34 0 -59.5 -22.5t-25.5 -56.5z" />
<glyph unicode="&#xd0;" horiz-adv-x="804" d="M789 385q0 -159 -113.5 -272.5t-272.5 -113.5l-332 1v350h-55v70h55v351h323q159 0 277 -113.5t118 -272.5zM547 385q0 61 -43.5 103.5t-103.5 42.5h-81v-111h85v-70h-85v-111l81 -1q61 0 104 43t43 104z" />
<glyph unicode="&#xd1;" horiz-adv-x="828" d="M15 0zM814 0h-260v62q-19 140 -91.5 250.5t-187.5 168.5v-481h-260v770l122 1q246 2 417 -148v148h260v-771zM658 964q0 -70 -49.5 -120t-120.5 -50q-47 0 -102 36q-23 15 -36 15q-19 0 -32.5 -13.5t-13.5 -32.5h-123q0 70 49.5 120t119.5 50q50 0 102 -36q28 -15 36 -15 q20 0 33 13.5t13 32.5h124z" />
<glyph unicode="&#xd2;" horiz-adv-x="919" d="M17 0zM903 387q0 -175 -130 -299t-313 -124t-313 124t-130 299t130 299t313 124t313 -124t130 -299zM595 371q0 54 -39.5 92.5t-95.5 38.5t-95.5 -38.5t-39.5 -92.5t39.5 -92.5t95.5 -38.5t95.5 38.5t39.5 92.5zM528 831h-160l-248 206h260z" />
<glyph unicode="&#xd3;" horiz-adv-x="919" d="M17 0zM903 387q0 -175 -130 -299t-313 -124t-313 124t-130 299t130 299t313 124t313 -124t130 -299zM595 371q0 54 -39.5 92.5t-95.5 38.5t-95.5 -38.5t-39.5 -92.5t39.5 -92.5t95.5 -38.5t95.5 38.5t39.5 92.5zM372 831h160l248 206h-260z" />
<glyph unicode="&#xd4;" horiz-adv-x="919" d="M17 0zM903 387q0 -175 -130 -299t-313 -124t-313 124t-130 299t130 299t313 124t313 -124t130 -299zM595 371q0 54 -39.5 92.5t-95.5 38.5t-95.5 -38.5t-39.5 -92.5t39.5 -92.5t95.5 -38.5t95.5 38.5t39.5 92.5zM671 833h-180l-34 38l-39 -38h-165l204 206z" />
<glyph unicode="&#xd5;" horiz-adv-x="919" d="M17 0zM903 387q0 -175 -130 -299t-313 -124t-313 124t-130 299t130 299t313 124t313 -124t130 -299zM595 371q0 54 -39.5 92.5t-95.5 38.5t-95.5 -38.5t-39.5 -92.5t39.5 -92.5t95.5 -38.5t95.5 38.5t39.5 92.5zM698 1000q0 -70 -49.5 -120t-120.5 -50q-47 0 -102 36 q-23 15 -36 15q-19 0 -32.5 -13.5t-13.5 -32.5h-123q0 70 49.5 120t119.5 50q50 0 102 -36q28 -15 36 -15q20 0 33 13.5t13 32.5h124z" />
<glyph unicode="&#xd6;" horiz-adv-x="919" d="M17 0zM903 387q0 -175 -130 -299t-313 -124t-313 124t-130 299t130 299t313 124t313 -124t130 -299zM595 371q0 54 -39.5 92.5t-95.5 38.5t-95.5 -38.5t-39.5 -92.5t39.5 -92.5t95.5 -38.5t95.5 38.5t39.5 92.5zM468 912q0 -33 25 -58t59 -25t61 24.5t27 58.5 q0 36 -25.5 57.5t-61.5 21.5q-34 0 -59.5 -22.5t-25.5 -56.5zM262 913q0 -34 25 -58.5t59 -24.5t60.5 24.5t26.5 58.5q0 35 -25.5 57t-60.5 22q-34 0 -59.5 -22.5t-25.5 -56.5z" />
<glyph unicode="&#xd8;" horiz-adv-x="950" d="M948 779l-127 -127q98 -117 98 -265q0 -175 -130 -299t-313 -124q-146 0 -262 82l-50 -51h-161l128 127q-98 115 -98 265q0 175 129.5 299t313.5 124q144 0 261 -82l51 51h160zM611 371q0 31 -14 57l-177 -176q25 -12 56 -12q55 0 95 38.5t40 92.5zM507 498q-14 4 -31 4 q-57 0 -96 -38.5t-39 -92.5q0 -19 4 -34z" />
<glyph unicode="&#xd9;" horiz-adv-x="663" d="M18 0zM646 285q0 -129 -92.5 -221t-221.5 -92q-130 0 -222 92t-92 221v486h262v-471q0 -22 15 -37t37 -15q21 0 36.5 15t15.5 37v471h262v-486zM466 795h-160l-248 206h260z" />
<glyph unicode="&#xda;" horiz-adv-x="663" d="M18 0zM646 285q0 -129 -92.5 -221t-221.5 -92q-130 0 -222 92t-92 221v486h262v-471q0 -22 15 -37t37 -15q21 0 36.5 15t15.5 37v471h262v-486zM244 799h160l248 206h-260z" />
<glyph unicode="&#xdb;" horiz-adv-x="663" d="M18 0zM646 285q0 -129 -92.5 -221t-221.5 -92q-130 0 -222 92t-92 221v486h262v-471q0 -22 15 -37t37 -15q21 0 36.5 15t15.5 37v471h262v-486zM553 799h-180l-34 38l-39 -38h-165l204 206z" />
<glyph unicode="&#xdc;" horiz-adv-x="663" d="M18 0zM646 285q0 -129 -92.5 -221t-221.5 -92q-130 0 -222 92t-92 221v486h262v-471q0 -22 15 -37t37 -15q21 0 36.5 15t15.5 37v471h262v-486zM348 881q0 -33 25 -58t59 -25t61 24.5t27 58.5q0 36 -25.5 57.5t-61.5 21.5q-34 0 -59.5 -22.5t-25.5 -56.5zM142 882 q0 -34 25 -58.5t59 -24.5t60.5 24.5t26.5 58.5q0 35 -25.5 57t-60.5 22q-34 0 -59.5 -22.5t-25.5 -56.5z" />
<glyph unicode="&#xdd;" horiz-adv-x="771" d="M5 0zM766 771l-248 -399v-373h-265v373l-248 399h291l90 -158l89 158h291zM300 797h160l248 206h-260z" />
<glyph unicode="&#xde;" horiz-adv-x="750" d="M736 392q0 -132 -95 -208q-89 -72 -229 -72h-132v-113h-265v772h265v-98h132q140 0 229 -72q95 -77 95 -209zM485 392q0 45 -52 45h-153v-90h153q52 0 52 45z" />
<glyph unicode="&#xdf;" horiz-adv-x="735" d="M721 154q0 -84 -40 -154h-666v198h174q-73 28 -120.5 110.5t-47.5 177.5q0 85 39 154h655v-198h-159q71 -29 118 -111.5t47 -176.5zM351 356q-17 44 -22 86h-79q55 -23 101 -86zM495 198q-60 23 -106 87q17 -40 22 -87h84z" />
<glyph unicode="&#xe0;" horiz-adv-x="688" d="M13 0zM676 0h-216v31h-132v216h132v152q-104 -52 -159 -161q-52 -101 -56 -238h-232q11 269 147 444q153 196 415 196h101v-640zM588 665h-160l-248 206h260z" />
<glyph unicode="&#xe1;" horiz-adv-x="688" d="M13 0zM676 0h-216v31h-132v216h132v152q-104 -52 -159 -161q-52 -101 -56 -238h-232q11 269 147 444q153 196 415 196h101v-640zM330 665h160l248 206h-260z" />
<glyph unicode="&#xe2;" horiz-adv-x="688" d="M13 0zM676 0h-216v31h-132v216h132v152q-104 -52 -159 -161q-52 -101 -56 -238h-232q11 269 147 444q153 196 415 196h101v-640zM677 669h-180l-34 38l-39 -38h-165l204 206z" />
<glyph unicode="&#xe3;" horiz-adv-x="688" d="M13 0zM676 0h-216v31h-132v216h132v152q-104 -52 -159 -161q-52 -101 -56 -238h-232q11 269 147 444q153 196 415 196h101v-640zM678 834q0 -70 -49.5 -120t-120.5 -50q-47 0 -102 36q-23 15 -36 15q-19 0 -32.5 -13.5t-13.5 -32.5h-123q0 70 49.5 120t119.5 50 q50 0 102 -36q28 -15 36 -15q20 0 33 13.5t13 32.5h124z" />
<glyph unicode="&#xe4;" horiz-adv-x="688" d="M13 0zM676 0h-216v31h-132v216h132v152q-104 -52 -159 -161q-52 -101 -56 -238h-232q11 269 147 444q153 196 415 196h101v-640zM486 751q0 -33 25 -58t59 -25t61 24.5t27 58.5q0 36 -25.5 57.5t-61.5 21.5q-34 0 -59.5 -22.5t-25.5 -56.5zM280 752q0 -34 25 -58.5 t59 -24.5t60.5 24.5t26.5 58.5q0 35 -25.5 57t-60.5 22q-34 0 -59.5 -22.5t-25.5 -56.5z" />
<glyph unicode="&#xe5;" horiz-adv-x="688" d="M13 0zM676 0h-216v31h-132v216h132v152q-104 -52 -159 -161q-52 -101 -56 -238h-232q11 269 147 444q153 196 415 196h101v-640zM337 821q0 -70 49.5 -119.5t119.5 -49.5t119 49.5t49 119.5q0 69 -49 118.5t-119 49.5t-119.5 -49.5t-49.5 -118.5zM439 821 q0 -28 19.5 -47.5t47.5 -19.5t47.5 19.5t19.5 47.5q0 27 -19.5 47t-47.5 20t-47.5 -20t-19.5 -47z" />
<glyph unicode="&#xe6;" horiz-adv-x="982" d="M878 239h-171v161h171v-161zM968 0h-511v31h-127v216h127v150q-101 -53 -156 -161q-51 -101 -55 -236h-232q12 269 148 444q153 196 414 196h392v-198h-291v-244h291v-198z" />
<glyph unicode="&#xe7;" horiz-adv-x="559" d="M14 0zM545 -1l-406 1q-125 136 -125 320t125 320h406v-198h-269q-31 -57 -31 -122q0 -66 31 -122h269v-199zM281 -68q18 18 37 0q8 -7 8 -19q0 -11 -8 -18q-19 -18 -37 0l-99 -98q49 -49 117 -49t117 49t49 117t-48.5 116.5t-117.5 48.5q-68 0 -117 -48z" />
<glyph unicode="&#xe8;" horiz-adv-x="535" d="M13 0zM434 239h-171v161h171v-161zM523 0h-510v640h510v-198h-290v-244h290v-198zM428 665h-160l-248 206h260z" />
<glyph unicode="&#xe9;" horiz-adv-x="535" d="M13 0zM434 239h-171v161h171v-161zM523 0h-510v640h510v-198h-290v-244h290v-198zM180 665h160l248 206h-260z" />
<glyph unicode="&#xea;" horiz-adv-x="535" d="M13 0zM434 239h-171v161h171v-161zM523 0h-510v640h510v-198h-290v-244h290v-198zM477 669h-180l-34 38l-39 -38h-165l204 206z" />
<glyph unicode="&#xeb;" horiz-adv-x="535" d="M13 0zM434 239h-171v161h171v-161zM523 0h-510v640h510v-198h-290v-244h290v-198zM296 751q0 -33 25 -58t59 -25t61 24.5t27 58.5q0 36 -25.5 57.5t-61.5 21.5q-34 0 -59.5 -22.5t-25.5 -56.5zM90 752q0 -34 25 -58.5t59 -24.5t60.5 24.5t26.5 58.5q0 35 -25.5 57 t-60.5 22q-34 0 -59.5 -22.5t-25.5 -56.5z" />
<glyph unicode="&#xec;" horiz-adv-x="247" d="M0 0zM234 0h-220v640h220v-640zM228 665h-160l-248 206h260z" />
<glyph unicode="&#xed;" horiz-adv-x="247" d="M14 0zM234 0h-220v640h220v-640zM40 665h160l248 206h-260z" />
<glyph unicode="&#xee;" horiz-adv-x="247" d="M0 0zM234 0h-220v640h220v-640zM337 669h-180l-34 38l-39 -38h-165l204 206z" />
<glyph unicode="&#xef;" horiz-adv-x="247" d="M0 0zM234 0h-220v640h220v-640zM146 753q0 -33 25 -58t59 -25t61 24.5t27 58.5q0 36 -25.5 57.5t-61.5 21.5q-34 0 -59.5 -22.5t-25.5 -56.5zM-60 754q0 -34 25 -58.5t59 -24.5t60.5 24.5t26.5 58.5q0 35 -25.5 57t-60.5 22q-34 0 -59.5 -22.5t-25.5 -56.5z" />
<glyph unicode="&#xf0;" horiz-adv-x="668" d="M655 320q0 -132 -94 -226.5t-226 -94.5h-138l-138 1v291h-46v58h46v291h268q132 0 230 -94t98 -226zM454 320q0 50 -36 85.5t-86 35.5h-67v-92h70v-58h-70v-93h67q51 0 86.5 35.5t35.5 86.5z" />
<glyph unicode="&#xf1;" horiz-adv-x="687" d="M12 0zM675 0h-216v51q-15 116 -75.5 208t-155.5 140v-399h-216v639l101 1q203 2 346 -123v123h216v-640zM578 834q0 -70 -49.5 -120t-120.5 -50q-47 0 -102 36q-23 15 -36 15q-19 0 -32.5 -13.5t-13.5 -32.5h-123q0 70 49.5 120t119.5 50q50 0 102 -36q28 -15 36 -15 q20 0 33 13.5t13 32.5h124z" />
<glyph unicode="&#xf2;" horiz-adv-x="763" d="M14 0zM749 321q0 -145 -108 -248t-259 -103q-152 0 -260 103t-108 248t108 248t260 103t259.5 -103t107.5 -248zM494 308q0 45 -33 77t-79 32t-79 -32t-33 -77t33 -77t79 -32t79 32t33 77zM468 695h-160l-248 206h260z" />
<glyph unicode="&#xf3;" horiz-adv-x="763" d="M14 0zM749 321q0 -145 -108 -248t-259 -103q-152 0 -260 103t-108 248t108 248t260 103t259.5 -103t107.5 -248zM494 308q0 45 -33 77t-79 32t-79 -32t-33 -77t33 -77t79 -32t79 32t33 77zM290 695h160l248 206h-260z" />
<glyph unicode="&#xf4;" horiz-adv-x="763" d="M14 0zM749 321q0 -145 -108 -248t-259 -103q-152 0 -260 103t-108 248t108 248t260 103t259.5 -103t107.5 -248zM494 308q0 45 -33 77t-79 32t-79 -32t-33 -77t33 -77t79 -32t79 32t33 77zM591 689h-180l-34 38l-39 -38h-165l204 206z" />
<glyph unicode="&#xf5;" horiz-adv-x="763" d="M14 0zM749 321q0 -145 -108 -248t-259 -103q-152 0 -260 103t-108 248t108 248t260 103t259.5 -103t107.5 -248zM494 308q0 45 -33 77t-79 32t-79 -32t-33 -77t33 -77t79 -32t79 32t33 77zM628 864q0 -70 -49.5 -120t-120.5 -50q-47 0 -102 36q-23 15 -36 15 q-19 0 -32.5 -13.5t-13.5 -32.5h-123q0 70 49.5 120t119.5 50q50 0 102 -36q28 -15 36 -15q20 0 33 13.5t13 32.5h124z" />
<glyph unicode="&#xf6;" horiz-adv-x="763" d="M14 0zM749 321q0 -145 -108 -248t-259 -103q-152 0 -260 103t-108 248t108 248t260 103t259.5 -103t107.5 -248zM494 308q0 45 -33 77t-79 32t-79 -32t-33 -77t33 -77t79 -32t79 32t33 77zM400 773q0 -33 25 -58t59 -25t61 24.5t27 58.5q0 36 -25.5 57.5t-61.5 21.5 q-34 0 -59.5 -22.5t-25.5 -56.5zM194 774q0 -34 25 -58.5t59 -24.5t60.5 24.5t26.5 58.5q0 35 -25.5 57t-60.5 22q-34 0 -59.5 -22.5t-25.5 -56.5z" />
<glyph unicode="&#xf8;" horiz-adv-x="780" d="M782 647l-105 -106q81 -95 81 -220q0 -145 -108 -248t-259 -103q-120 0 -218 68l-41 -42h-134l106 105q-81 97 -81 220q0 145 108 248t260 103q120 0 216 -68l43 43h132zM503 308q0 26 -12 47l-147 -146q23 -10 47 -10q46 0 79 32t33 77zM416 413q-11 4 -25 4 q-47 0 -79.5 -32t-32.5 -77q0 -19 3 -28z" />
<glyph unicode="&#xf9;" horiz-adv-x="550" d="M0 0zM536 237q0 -107 -77 -183.5t-184 -76.5q-108 0 -184 76.5t-76 183.5v403h217v-391q0 -18 12.5 -30.5t30.5 -12.5t30.5 12.5t12.5 30.5v391h218v-403zM388 665h-160l-248 206h260z" />
<glyph unicode="&#xfa;" horiz-adv-x="550" d="M15 0zM536 237q0 -107 -77 -183.5t-184 -76.5q-108 0 -184 76.5t-76 183.5v403h217v-391q0 -18 12.5 -30.5t30.5 -12.5t30.5 12.5t12.5 30.5v391h218v-403zM180 665h160l248 206h-260z" />
<glyph unicode="&#xfb;" horiz-adv-x="550" d="M15 0zM536 237q0 -107 -77 -183.5t-184 -76.5q-108 0 -184 76.5t-76 183.5v403h217v-391q0 -18 12.5 -30.5t30.5 -12.5t30.5 12.5t12.5 30.5v391h218v-403zM493 673h-180l-34 38l-39 -38h-165l204 206z" />
<glyph unicode="&#xfc;" horiz-adv-x="550" d="M15 0zM536 237q0 -107 -77 -183.5t-184 -76.5q-108 0 -184 76.5t-76 183.5v403h217v-391q0 -18 12.5 -30.5t30.5 -12.5t30.5 12.5t12.5 30.5v391h218v-403zM296 749q0 -33 25 -58t59 -25t61 24.5t27 58.5q0 36 -25.5 57.5t-61.5 21.5q-34 0 -59.5 -22.5t-25.5 -56.5z M90 750q0 -34 25 -58.5t59 -24.5t60.5 24.5t26.5 58.5q0 35 -25.5 57t-60.5 22q-34 0 -59.5 -22.5t-25.5 -56.5z" />
<glyph unicode="&#xfd;" horiz-adv-x="640" d="M4 0zM636 640l-206 -331v-310h-220v310l-206 331h242l74 -131l74 131h242zM230 665h160l248 206h-260z" />
<glyph unicode="&#xfe;" horiz-adv-x="626" d="M612 325q0 -109 -79 -173q-73 -59 -190 -59h-109v-94h-220v641h220v-81h109q117 0 190 -60q79 -64 79 -174zM404 325q0 38 -43 38h-127v-75h127q43 0 43 37z" />
<glyph unicode="&#xff;" horiz-adv-x="640" d="M4 0zM636 640l-206 -331v-310h-220v310l-206 331h242l74 -131l74 131h242zM338 753q0 -33 25 -58t59 -25t61 24.5t27 58.5q0 36 -25.5 57.5t-61.5 21.5q-34 0 -59.5 -22.5t-25.5 -56.5zM132 754q0 -34 25 -58.5t59 -24.5t60.5 24.5t26.5 58.5q0 35 -25.5 57t-60.5 22 q-34 0 -59.5 -22.5t-25.5 -56.5z" />
<glyph unicode="&#x152;" horiz-adv-x="1247" d="M1120 286h-206v194h206v-194zM1229 -2h-576q-85 -38 -183 -38q-183 0 -313 124t-130 299t130 299t313 124q96 0 182 -37h577v-240h-351v-293h351v-238zM605 367q0 54 -39.5 92.5t-95.5 38.5t-95.5 -38.5t-39.5 -92.5t39.5 -92.5t95.5 -38.5t95.5 38.5t39.5 92.5z" />
<glyph unicode="&#x153;" horiz-adv-x="1042" d="M930 237h-171v161h171v-161zM1020 -2h-478q-71 -31 -152 -31q-152 0 -260 103t-108 248t108 248t260 103q80 0 151 -31h479v-199h-291v-243h291v-198zM502 305q0 44 -33 76t-79 32t-79 -32t-33 -76q0 -45 33 -77t79 -32t79 32t33 77z" />
<glyph unicode="&#x178;" horiz-adv-x="771" d="M5 0zM766 771l-248 -399v-373h-265v373l-248 399h291l90 -158l89 158h291zM401 879q0 -33 25 -58t59 -25t61 24.5t27 58.5q0 36 -25.5 57.5t-61.5 21.5q-34 0 -59.5 -22.5t-25.5 -56.5zM195 880q0 -34 25 -58.5t59 -24.5t60.5 24.5t26.5 58.5q0 35 -25.5 57t-60.5 22 q-34 0 -59.5 -22.5t-25.5 -56.5z" />
<glyph unicode="&#x2c6;" horiz-adv-x="471" d="M447 669h-180l-34 38l-39 -38h-165l204 206z" />
<glyph unicode="&#x2d8;" horiz-adv-x="438" d="M50 832q0 -70 49.5 -119.5t119.5 -49.5t119 49.5t49 119.5q0 69 -49 118.5t-119 49.5t-119.5 -49.5t-49.5 -118.5zM152 832q0 -28 19.5 -47.5t47.5 -19.5t47.5 19.5t19.5 47.5q0 27 -19.5 47t-47.5 20t-47.5 -20t-19.5 -47z" />
<glyph unicode="&#x2dc;" horiz-adv-x="519" d="M498 834q0 -70 -49.5 -120t-120.5 -50q-47 0 -102 36q-23 15 -36 15q-19 0 -32.5 -13.5t-13.5 -32.5h-123q0 70 49.5 120t119.5 50q50 0 102 -36q28 -15 36 -15q20 0 33 13.5t13 32.5h124z" />
<glyph unicode="&#x2000;" horiz-adv-x="555" />
<glyph unicode="&#x2001;" horiz-adv-x="1111" />
<glyph unicode="&#x2002;" horiz-adv-x="555" />
<glyph unicode="&#x2003;" horiz-adv-x="1111" />
<glyph unicode="&#x2004;" horiz-adv-x="370" />
<glyph unicode="&#x2005;" horiz-adv-x="277" />
<glyph unicode="&#x2006;" horiz-adv-x="185" />
<glyph unicode="&#x2007;" horiz-adv-x="185" />
<glyph unicode="&#x2008;" horiz-adv-x="138" />
<glyph unicode="&#x2009;" horiz-adv-x="222" />
<glyph unicode="&#x200a;" horiz-adv-x="61" />
<glyph unicode="&#x2010;" horiz-adv-x="292" d="M278 292h-264v206h264v-206z" />
<glyph unicode="&#x2011;" horiz-adv-x="292" d="M278 292h-264v206h264v-206z" />
<glyph unicode="&#x2012;" horiz-adv-x="292" d="M278 292h-264v206h264v-206z" />
<glyph unicode="&#x2013;" horiz-adv-x="500" d="M487 292h-474v206h474v-206zM13 292v206v-206z" />
<glyph unicode="&#x2014;" horiz-adv-x="1000" d="M982 292h-964v206h964v-206z" />
<glyph unicode="&#x2018;" horiz-adv-x="258" d="M25 621q0 70 46 121t101 51q19 0 35 -7l-20 -64q54 -34 54 -101q0 -48 -31.5 -82t-76.5 -34q-44 0 -76 34t-32 82z" />
<glyph unicode="&#x2019;" horiz-adv-x="258" d="M237 667q0 -70 -46 -121t-101 -51q-19 0 -35 7l20 64q-54 34 -54 101q0 48 31.5 82t76.5 34q44 0 76 -34t32 -82z" />
<glyph unicode="&#x201a;" horiz-adv-x="258" d="M237 102q0 -70 -46 -121t-101 -51q-19 0 -35 7l20 64q-54 34 -54 101q0 48 31.5 82t76.5 34q44 0 76 -34t32 -82z" />
<glyph unicode="&#x201c;" horiz-adv-x="471" d="M16 618q0 70 46 121t100 51q19 0 36 -7l-20 -64q54 -34 54 -101q0 -48 -32 -82t-76 -34q-45 0 -76.5 34t-31.5 82zM246 618q0 70 46 121t100 51q19 0 36 -7l-20 -64q54 -34 54 -101q0 -48 -32 -82t-76 -34q-45 0 -76.5 34t-31.5 82z" />
<glyph unicode="&#x201d;" horiz-adv-x="471" d="M459 664q0 -70 -46 -121t-101 -51q-19 0 -35 7l20 64q-54 34 -54 101q0 48 31.5 82t76.5 34q44 0 76 -34t32 -82zM229 664q0 -70 -46 -121t-101 -51q-19 0 -35 7l20 64q-54 34 -54 101q0 48 31.5 82t76.5 34q44 0 76 -34t32 -82z" />
<glyph unicode="&#x201e;" horiz-adv-x="471" d="M459 102q0 -70 -46.5 -121t-100.5 -51q-19 0 -35 7l20 64q-54 34 -54 101q0 48 31.5 82t76.5 34q44 0 76 -34t32 -82zM229 102q0 -70 -46.5 -121t-100.5 -51q-19 0 -35 7l20 64q-54 34 -54 101q0 48 31.5 82t76.5 34q44 0 76 -34t32 -82z" />
<glyph unicode="&#x2022;" horiz-adv-x="385" d="M364 366q0 -70 -50.5 -120.5t-120.5 -50.5q-71 0 -121 50.5t-50 120.5q0 71 50 121t121 50q70 0 120.5 -50t50.5 -121z" />
<glyph unicode="&#x2026;" horiz-adv-x="1000" d="M970 99q0 -48 -42.5 -82t-101.5 -34q-60 0 -102 34t-42 82t42 82t102 34q59 0 101.5 -34t42.5 -82zM646 99q0 -48 -42.5 -82t-101.5 -34q-60 0 -102 34t-42 82t42 82t102 34q59 0 101.5 -34t42.5 -82zM319 99q0 -48 -42.5 -82t-101.5 -34q-60 0 -102 34t-42 82t42 82 t102 34q59 0 101.5 -34t42.5 -82z" />
<glyph unicode="&#x202f;" horiz-adv-x="222" />
<glyph unicode="&#x2039;" horiz-adv-x="295" d="M282 173h-181l-88 207l88 217h181l-89 -217z" />
<glyph unicode="&#x203a;" horiz-adv-x="295" d="M13 173h181l88 207l-88 217h-181l89 -217z" />
<glyph unicode="&#x205f;" horiz-adv-x="277" />
<glyph unicode="&#xe000;" horiz-adv-x="640" d="M0 640h640v-640h-640v640z" />
<glyph horiz-adv-x="640" d="M0 0z" />
</font>
</defs>
</svg>
