<?xml version="1.0" standalone="no"?>
<!DOCTYPE svg PUBLIC "-//W3C//DTD SVG 1.1//EN" "http://www.w3.org/Graphics/SVG/1.1/DTD/svg11.dtd" >
<svg xmlns="http://www.w3.org/2000/svg">
<metadata></metadata>
<defs>
<font id="griffinregular" horiz-adv-x="298" >
<font-face units-per-em="1000" ascent="800" descent="-200" />
<missing-glyph horiz-adv-x="335" />
<glyph horiz-adv-x="1000" />
<glyph horiz-adv-x="1000" />
<glyph unicode="&#xd;" horiz-adv-x="335" />
<glyph unicode=" "  horiz-adv-x="335" />
<glyph unicode="&#x09;" horiz-adv-x="335" />
<glyph unicode="&#xa0;" horiz-adv-x="335" />
<glyph unicode="!" horiz-adv-x="290" d="M268 729q1 -29 -43 -78t-43 -92q1 -46 37 -75l2 -2l-2 -2q-39 -37 -38 -133q1 -41 17 -90q20 -61 55 -99q3 -3 0 -5q-9 -6 -16 -13q-16 -17 -20 -36q-1 -4 -5 -1q-32 20 -65 19q-20 -1 -65 -18.5t-71 -17.5q-3 -1 -3 2q-1 3 2 4q54 20 82 107q24 75 22 177q-1 61 -40 99 q-3 3 1 5q42 25 41 84q-2 93 -38 92q-21 0 -40 -14q-5 -4 -5 2q3 25 22 47q23 27 57 27q28 0 54.5 -8t32.5 -8q28 0 64 29q5 3 5 -2zM217 7q-13 -8 -24 -18q-25 -24 -34 -58q-1 -9 -9 -1q-14 51 -59 77q-8 3 -1 12q13 8 24 18q26 24 35 57q8 10 10 -1q13 -50 58 -74 q7 -10 0 -12z" />
<glyph unicode="&#x22;" horiz-adv-x="245" d="M224 632q-11 -9 -45 -158q-1 -7 -7 -1l-20 92q-15 59 -26 67q-4 4 0 9q10 6 19 14q20 20 26 47q6 8 8 -1q9 -40 45 -60q3 -6 0 -9zM112 632q-11 -9 -45 -158q-1 -7 -7 -1l-20 92q-15 59 -26 67q-4 4 0 9q10 6 19 14q20 20 26 47q6 8 8 -1q9 -40 45 -60q3 -6 0 -9z" />
<glyph unicode="#" horiz-adv-x="430" d="M431 550q-28 -34 -28 -66q0 -19 9 -32q0 -7 -10 -2q-26 12 -83 19q-2 -11 -7 -33q-1 -13 -5 -32q72 9 94 17q5 0 8 -3q-28 -34 -28 -66q0 -19 9 -32q-3 -2 -10 -2q-27 13 -79 18q-5 -69 5 -148q-1 -3 -5 -6q-25 21 -56 21q-29 0 -57 -21q-2 1 -2 6q14 38 51 153 q-14 1 -38 1q-8 0 -36 -2q-5 -78 5 -152q-1 -3 -4 -6q-25 21 -56 21q-30 0 -58 -21q-2 1 -2 6q14 35 49 146q-56 -5 -79 -14q-5 0 -9 3q29 39 29 73q0 13 -4 22q2 2 9 3q22 -13 71 -20q4 16 7 31q5 21 6 34q-63 -5 -87 -14q-10 -4 -10 3q29 38 29 72q0 14 -4 23q2 2 9 3 q22 -13 73 -20q11 81 1 154q1 4 4 5q22 -18 51 -18t58 21q3 2 4 0t0 -5q-16 -39 -57 -161h36q11 0 41 2q9 81 1 156q1 4 3 5q23 -18 52 -18t58 21q2 0 3 -5q-14 -37 -54 -152q64 7 84 15q9 2 9 -3zM266 473q-16 1 -45 1q-7 0 -39 -2q-2 -8 -13 -74q17 -1 45 -1q5 0 17 1h20 q6 19 15 75z" />
<glyph unicode="$" horiz-adv-x="417" d="M410 287q-28 -25 -46 -81q-22 -73 -28 -83q-21 -38 -66 -38q-7 0 -27 4v-74q0 -10 -10 -10t-10 10v78q-9 2 -27 5v-83q0 -10 -10 -10q-11 0 -11 10v85q-40 -2 -78 -25q-4 -1 -4 5q9 23 9 41q0 31 -26 63q-28 36 -73 48q-6 2 0 6q61 24 61 98q0 43 -14 71q1 3 4 4 q197 -98 197 -139q0 -13 -12 -45.5t-19 -32.5q-17 0 -17 10l6.5 18.5t6.5 29.5q0 16 -34 36q-31 17 -41 17q-8 0 -8 -4q0 -41 31.5 -89t59.5 -48q11 0 27 29q21 35 21 79q0 26 -59 96q-64 76 -107 76q-20 0 -28 -1q-8 0 -2 4q50 38 50 71q0 38 -24 38q-9 0 -28 -8q-4 1 -5 5 q38 67 93 67h13v84q0 10 11 10q10 0 10 -10v-86q10 -2 27 -5v91q0 10 10 10t10 -10v-89q27 8 50 33q4 2 4 -2q-3 -96 67 -128q9 0 1 -5q-13 -9 -26 -21q-33 -30 -62 -73q-66 36 -66 50q9 22 32 58q3 0 6 -2q-6 -18 -6 -48q0 -8 14 -8q4 0 10.5 14t6.5 21q0 23 -13 41t-39 18 q-35 0 -35 -55q0 -28 28 -61q15 -19 60 -59q53 -48 64 -56q34 -27 70 -39q4 -3 1 -6z" />
<glyph unicode="%" horiz-adv-x="607" d="M273 498q-27 -23 -51 -89q-20 -53 -45 -53q-9 0 -26.5 6t-25.5 6q-34 0 -65 -14q-3 -1 -3 2q-6 32 -13 59q-18 65 -39 91v2q24 19 50 68t26 78q0 14 -5 14t-13 -8q-3 -1 -3 2q2 14 16.5 28t34.5 14q13 0 30.5 -5.5t26.5 -5.5q23 0 45 27q1 2 2 1q2 0 1 -2q-9 -36 -9 -56 q0 -28 14 -71q19 -59 52 -92q2 -1 0 -2zM484 673q-44 -32 -104 -197q-14 -38 -14 -73q0 -30 10 -61q0 -2 -2 -4q-48 -20 -78 -101q-22 -59 -37 -137t-14 -128q-1 -2 -5 -2q-58 55 -139 50q-6 2 -2 6q31 27 71 99q37 66 60 129q18 48 18 81q0 29 -15 55q0 3 2 3q60 34 86 104 q49 134 49 202q0 10 -1 18q1 3 5 2q21 -11 39 -19q45 -20 71 -21q8 0 0 -6zM597 128q-27 -23 -51 -89q-20 -53 -45 -53q-9 0 -26.5 6t-25.5 6q-34 0 -65 -14q-3 -1 -3 2q-6 32 -13 59q-18 65 -39 91v2q24 19 50 68t26 78q0 14 -5 14t-13 -8q-3 -1 -3 2q2 14 16.5 28t34.5 14 q13 0 30.5 -5.5t26.5 -5.5q23 0 45 27q1 2 2 1q2 0 1 -2q-9 -36 -9 -56q0 -28 14 -71q19 -59 52 -92q2 -1 0 -2zM180 524q0 60 -16 99q-13 32 -24 32t-27 -36q-20 -44 -20 -100q0 -29 11 -64q12 -40 29 -40q22 0 36 43q11 35 11 66zM504 154q0 60 -16 99q-13 32 -24 32 t-27 -36q-20 -44 -20 -100q0 -29 11 -64q12 -40 29 -40q22 0 36 43q11 35 11 66z" />
<glyph unicode="&#x26;" horiz-adv-x="584" d="M601 31q-28 -24 -28 -46q0 -4 -4 -3q-31 11 -48 11q-32 0 -64 -18q-27 -17 -53 -33q-3 1 -3 5q44 48 44 82q0 10 -37 64q-11 -33 -22 -67q-22 -50 -50 -50q-10 0 -49 10.5t-57 10.5q-59 0 -119 -32q-4 -1 -4 3q-1 31 -11 59q-23 66 -86 103q-2 2 -1 5q71 63 71 162 q0 39 -16 77q-2 4 2 4q30 7 57 19q64 28 104 72q-12 35 -36 72q-39 59 -75 51q-3 -1 -4 2t2 4q23 10 69 72q38 52 81 52q26 0 59.5 -10t43.5 -10q32 0 73 17q2 0 4 -4q-4 -13 -24 -42q-16 -24 -16 -44q0 -33 34 -58q7 -5 -2 -5q-47 -6 -72 -29q-22 -19 -55 -81q3 -6 27 -46 q14 2 35 2q6 0 49.5 -6t50.5 -6q8 0 23 24q-13 12 -37 20q-16 -11 -29 -29q-1 -2 -3 -1t-1 3q3 21 7 32q7 25 21 39q14 -1 54 -21q44 -22 44 -35q0 -7 -27 -50.5t-31 -45.5q-36 4 -110 -1q20 -66 63 -142q71 -125 155 -157q4 -2 1 -5zM326 623q0 14 -9 25t-21 11 q-14 0 -27 -16.5t-13 -37.5q0 -38 19 -83q51 61 51 101zM338 253q0 7 -11 34.5t-19 31.5q-22 -1 -46.5 -23.5t-24.5 -34.5q0 -11 11.5 -27t22.5 -16q9 0 21 28t14 28q21 0 21 -15q0 -11 -18 -52q-20 -44 -32 -44q-21 0 -59.5 37t-38.5 52q0 16 27 54q30 43 69 72l-16 23 q-48 -29 -76 -95q-20 -48 -20 -82q0 -59 31 -106q26 -40 47 -40q44 0 74 75q23 57 23 100z" />
<glyph unicode="'" horiz-adv-x="132" d="M112 632q-11 -9 -45 -158q-1 -7 -7 -1l-20 92q-15 59 -26 67q-4 4 0 9q10 6 19 14q20 20 26 47q6 8 8 -1q9 -40 45 -60q3 -6 0 -9z" />
<glyph unicode="(" horiz-adv-x="264" d="M247 -85q1 -1 1 -6q0 -4 -2 -4q-15 -2 -19 -1q-50 11 -84 54q-31 40 -51 113q-16 62 -16 110q1 111 -41 154q-2 2 0 4q41 43 41 154q0 36 15 96q18 74 46 115q20 29 35 40q19 15 55 23q6 1 19 -2q2 0 2 -4q0 -5 -1 -6q-54 -33 -75 -78q-32 -69 -30 -216q1 -75 30 -120 q2 -1 2 -4t-2 -5q-29 -45 -30 -118q-2 -148 30 -219q22 -48 75 -80z" />
<glyph unicode=")" horiz-adv-x="264" d="M246 335q-42 -43 -41 -154q0 -48 -16 -110q-20 -73 -51 -113q-34 -43 -84 -54q-4 -1 -19 1q-2 0 -2 4q0 5 1 6q53 32 75 80q32 71 30 219q-1 73 -30 118q-1 2 -1 5t1 4q29 45 30 120q2 147 -30 216q-21 45 -75 78q-1 1 -1 6q0 4 2 4q13 3 19 2q36 -8 55 -23 q15 -11 35 -40q28 -41 46 -115q15 -60 15 -96q0 -111 41 -154q2 -2 0 -4z" />
<glyph unicode="*" horiz-adv-x="268" d="M259 611q-34 -24 -33 -59q0 -2 -4 -3q-11 6 -34 2q-16 -3 -17 -10q-3 -10 11.5 -25.5t39.5 -15.5q3 0 3 -6q-7 -11 -7 -24q0 -18 15 -43q2 -4 0 -6t-6 0q-21 30 -44 30q-5 0 -10 -2q-7 0 -4 4q2 9 2 16q0 12 -8 25q-16 16 -23 16q-9 0 -23 -16q-11 -20 -5 -40q1 -4 -5 -5 q-5 2 -10 2q-22 0 -45 -30q-2 -2 -4 0t0 6q14 27 14 44q0 12 -6 23q-1 6 3 6q27 0 37 14q7 7 6 13q-2 16 -16 25q-15 10 -39 -3q-3 0 -6 3q1 34 -33 59q-2 3 -1 6q2 3 6 2q20 -12 33 -12q14 0 23 13q4 4 8 -1q1 -30 18 -41q10 -7 20 -3q12 4 12 30q0 24 -19 35q-4 4 2 8 q26 16 27 62q0 4 2 4t3 -4q9 -50 32 -59q4 -2 1 -6q-22 -20 -22 -40q0 -29 9 -31q3 -1 11 3q15 10 18 42q4 5 5 1q11 -13 26 -13q14 0 34 12q3 1 4 -2t-1 -6z" />
<glyph unicode="+" horiz-adv-x="420" d="M391 393q-18 -33 -18 -72q0 -37 14 -69q0 -3 -4 -4q-77 37 -145 44q2 -69 41 -144q0 -2 -4 -4q-35 15 -74 15q-37 0 -67 -15q-3 1 -4 4q10 22 18 45q20 53 27 98q-68 -7 -146 -39q-3 1 -4 4q18 34 18 76q0 33 -10 61q0 3 4 4q73 -42 143 -47q0 71 -38 148q1 3 4 4 q31 -13 67 -13q37 0 68 15q2 0 4 -4q-10 -23 -18 -46q-19 -56 -25 -101q66 9 145 44q3 0 4 -4z" />
<glyph unicode="," horiz-adv-x="196" d="M161 49q10 -5 -2 -19q-21 -40 -42 -81q-27 -49 -63 -63q-3 1 -3 5q34 43 34 98q0 23 -47 47q-8 3 -1 12q13 8 24 18q26 24 35 57q8 10 10 -1q13 -50 55 -73z" />
<glyph unicode="-" d="M270 382q-11 -30 -11 -67q0 -35 9 -66q-1 -3 -5 -3q-42 31 -117 31q-18 0 -58.5 -10t-52.5 -18q-3 0 -5 3q11 33 11 73q0 31 -6 57q1 3 5 3q37 -32 110 -32q22 0 64 12q39 12 51 20q3 0 5 -3z" />
<glyph unicode="." horiz-adv-x="195" d="M164 36q-13 -8 -24 -18q-25 -24 -34 -58q-1 -9 -9 -1q-14 51 -59 77q-8 3 -1 12q13 8 24 18q26 24 35 57q8 10 10 -1q13 -50 58 -74q7 -10 0 -12z" />
<glyph unicode="/" horiz-adv-x="393" d="M390 673q-44 -32 -104 -197q-14 -38 -14 -73q0 -30 10 -61q0 -2 -2 -4q-48 -20 -78 -101q-22 -59 -37 -137t-14 -128q-1 -2 -5 -2q-58 55 -139 50q-6 2 -2 6q31 27 71 99q37 66 60 129q18 48 18 81q0 29 -15 55q0 3 2 3q60 34 86 104q49 134 49 202q0 10 -1 18q1 3 5 2 q21 -11 39 -19q45 -20 71 -21q8 0 0 -6z" />
<glyph unicode="0" horiz-adv-x="464" d="M463 206q-27 -42 -41 -108q-17 -75 -23 -87q-17 -36 -58 -36q-17 0 -57 9t-52 9q-41 0 -136 -21q-4 -2 -4 3q-6 33 -17 62q-27 69 -73 107q-2 2 -1 4q50 88 84 191q28 84 28 113q0 17 -11 27q-11 7 -21 14q-4 4 0 5q96 52 96 137q0 28 -15 28q-7 0 -16 -4.5l-9 -4.5 q-4 0 -3 4q22 64 79 64q20 0 44 -11.5t40 -11.5q35 0 57 37q4 6 6 -1.5t2 -14.5t-11.5 -40.5t-11.5 -76.5q0 -71 52 -108q2 -1 0 -4q-12 -18 -12 -59q0 -47 17 -101q22 -73 67 -121q2 -2 0 -4zM313 299q0 63 -21 182q-23 132 -43 132t-58 -150q-37 -145 -37 -207 q0 -78 19 -131q22 -63 62 -63q38 0 61 93q17 72 17 144zM279 349q-32 0 -37 -57q0 -3 -3 -3t-3 3q-15 57 -37 57q-3 0 -3 3t3 3q32 1 37 58q0 3 3 3t3 -3q4 -17 10 -29q12 -29 27 -29q3 0 3 -3t-3 -3z" />
<glyph unicode="1" horiz-adv-x="302" d="M304 26q-8 -6 -15 -12q-16 -16 -21 -30q-2 -3 -4 -2q-36 18 -69 18q-49 0 -101.5 -23t-58.5 -23q-9 0 -2 5q81 60 104 158q14 58 14 205q0 170 -29 191q-3 1 0 4q28 28 28 77q0 20 -3 33l-76 -71q4 -22 11 -61l32 1q2 -2 2 -5q-41 -41 -52 -41q-4 0 -21 43q-21 53 -33 75 q-2 3 2 5q13 7 42 30q9 9 31 49t26 43q16 12 30 12q8 0 26.5 -4t27.5 -4q29 0 64 29q3 0 5 -3q-2 -6 -28 -51q-21 -35 -21 -77q0 -44 37 -79q3 -2 1 -4q-32 -55 -32 -189q0 -85 10 -135q18 -97 73 -160q2 -3 0 -4z" />
<glyph unicode="2" horiz-adv-x="490" d="M492 243q-30 -26 -57 -100q-36 -99 -45 -114q-29 -55 -73 -55q-7 0 -47.5 13t-76.5 13q-101 0 -175 -41q-2 -2 -3 1q-1 2 1 4q41 51 41 115q0 44 -18 80l-24 40q-3 3 1 5q73 25 137 101q71 83 71 166q0 19 -7 40q-2 4 3 4q63 27 63 73q0 26 -5 36q-9 19 -39 19 q-43 0 -77 -35q-40 -41 -40 -110q0 -48 23 -85q-1 -3 -5 -4q-25 18 -40.5 56.5t-15.5 80.5q0 32 4.5 52t4.5 23q0 22 -28 22q-3 0 -4 2q0 3 3 4q37 22 75 45q44 24 96 24q31 0 60.5 -12t52.5 -12q38 0 80 33q5 5 5 -2q1 -14 -32 -64t-33 -107q0 -34 12 -67q1 -2 -2 -4 q-62 -36 -123 -132q-71 -113 -71 -218q0 -79 31 -79q29 0 71 54q55 71 61 182q-53 -5 -56 -8q-12 -15 -25 -89q-12 -65 -23 -65q-13 0 -16 5t-3 23q0 49 13 111q12 56 20 64q22 7 45 14q47 19 91 70q3 4 5 -1q10 -41 23 -72q31 -76 70 -94q5 -2 1 -5z" />
<glyph unicode="3" horiz-adv-x="520" d="M521 268q-48 -47 -68 -126q-13 -57 -25 -113q-18 -50 -67 -50q-28 0 -53.5 10.5t-51.5 10.5q-88 0 -155 -19.5t-85 -19.5q-2 0 -2 3q0 2 2 3q61 17 61 113q0 78 -77 127q-6 4 1 6q92 35 92 110q0 33 -10 60q1 3 4 4q41 -15 77 -15q24 0 57.5 9.5t34.5 9.5q9 0 44 -64 q36 -67 36 -96q0 -15 -12 -53q-14 -42 -24 -42q-20 0 -20 22q0 6 5.5 32t5.5 37q0 22 -18 57q-22 42 -51 42q-31 0 -48 -20.5t-17 -48.5q0 -45 22 -113q28 -87 66 -87q41 0 81 70q35 64 35 112q0 49 -49 125q-56 86 -119 104q-3 1 -3 3t3 3q117 29 117 114q0 44 -34 44 q-35 0 -64 -28q-45 -44 -53 -144q0 -3 -2 -4q-3 0 -4 2q-25 43 -25 82q0 19 4.5 41.5t4.5 31.5q0 17 -26 43q-2 1 -1 3t3 2q25 -4 82.5 23t83.5 27q27 0 47 -7.5t31 -7.5q33 0 66 30q5 5 5 -2q0 -17 -27.5 -70.5t-27.5 -81.5q0 -32 13 -51q7 -10 33 -31q7 -7 -8 -12 q-34 -8 -35 -9q-21 -8 -21 -25q0 -37 59 -100t105 -71q5 -2 2 -5z" />
<glyph unicode="4" horiz-adv-x="458" d="M456 252q0 -15 -27.5 -37t-40.5 -22q-11 0 -23 26q-11 23 -11 38q0 16 15 16q1 0 8.5 -18t12.5 -18t13.5 6.5t8.5 11.5q0 38 -14 38q-29 0 -68 -15q3 -164 69 -248q2 -3 0 -4q-8 -6 -13 -13q-14 -16 -16 -34q0 -5 -4 -3q-40 21 -78 21q-39 0 -78 -23.5t-48 -23.5 q-3 0 -3 3q-1 2 2 3q92 29 114 293q-86 -53 -172 -154q-3 -4 -5 1q-7 28 -19 50q-31 51 -85 61q-5 2 -1 5q120 178 120 256q0 20 -10 47q-1 2 2 4q88 27 88 103q0 11 -6 11q-20 0 -34 -25q-2 -3 -4 -1q-3 1 -2 4q19 92 97 92q10 0 32 -2t25 -2q55 0 99 44q3 0 4 -3 q-53 -124 -53 -162q0 -26 10 -42q2 -3 23 -25q2 -2 0 -4q-45 -54 -53 -171q51 19 84 19q14 0 28 -44q13 -38 13 -59zM290 584q0 27 -8 27q-10 0 -35 -35q-33 -45 -58 -115q-33 -93 -45 -213q51 29 134 67q1 23 1 70q0 54 -1 65q-5 37 -25 65q-2 2 0 4q37 38 37 65z" />
<glyph unicode="5" horiz-adv-x="521" d="M528 344q-36 -44 -60 -144q-32 -135 -38 -151q-28 -70 -80 -72q-18 -1 -65 11t-78 11q-32 -1 -95.5 -14.5t-75.5 -13.5q-2 2 -1 6q45 21 43 81q-2 81 -72 146q-3 3 0 5q26 19 48 44q53 61 80 145q2 6 5 3q29 -18 59 -31q72 -34 134 -44q1 -11 1 -23q0 -61 -24 -137.5 t-39 -76.5q-20 -1 -20 14q0 1 16 55.5t15 86.5q-1 34 -31 54q-25 17 -51 16q-23 -1 -40 -24.5t-16 -54.5q1 -44 29 -110q34 -78 70 -77q45 2 83 71q40 76 37 175q-2 70 -37 120q-32 47 -69 45q-59 -3 -111 -43q-5 -4 -5 2q-9 22 -19 38q-26 39 -56 45q-3 1 -4 3q0 2 3 3 q110 53 107 134q-1 26 -27 26q-6 0 -13 -1q-2 1 -2 4q20 23 36 34q29 19 68 20q29 1 72 -13t75 -13q45 2 96 28q2 0 4 -4q-8 -27 -46 -71q-42 -51 -72 -52q-23 -1 -60 21.5t-55 21.5q-39 -52 -38 -102q0 -16 7 -19.5t26 -2.5q67 3 127 39q3 2 3 -3q8 -35 27 -68 q43 -80 129 -139q3 -1 0 -4z" />
<glyph unicode="6" horiz-adv-x="508" d="M521 222q-34 -22 -60 -86q-19 -52 -39 -103q-25 -50 -64 -50q-16 0 -54 8.5t-62 8.5q-75 0 -144 -23q-4 -1 -4 3q1 6 6 26q3 14 3 26q0 26 -25 78q-32 66 -75 85q-4 2 -1 5q101 140 101 261q0 24 -20 60q-1 2 2 4q86 33 86 109q0 17 -6 17q-18 0 -25 -7q-3 0 -5 3 q33 66 92 66q27 0 50.5 -5.5t40.5 -5.5q35 0 70 30q3 1 5 -3q-6 -27 -6 -48q0 -25 22.5 -71t22.5 -49q0 -7 -37 -31q-52 -34 -81 -59q-3 -2 -4 -1q-18 13 -31 43q-19 42 -22 47q-1 2 -1 3q0 5 20.5 -7t30.5 -23l43 33q-12 26 -24.5 53t-24.5 27q-21 0 -48 -27 q-34 -32 -34 -75q0 -21 22 -45q2 -3 0 -5q-19 -13 -33 -33q-36 -47 -46 -117l66 97q1 0 27 -9q15 -5 35 -5q56 0 96 35q5 4 5 -2q6 -51 20 -93q35 -101 109 -139q5 -3 1 -6zM365 276q0 85 -77 85q-39 0 -74 -37q-38 -41 -42 -99q14 -19 46 -30q28 -11 34 -6q29 22 44 76 q13 46 24 46q16 0 16 -24q0 -37 -25 -98q-23 -53 -32 -60q-4 -4 -35 -1q-30 3 -59 6q10 -26 38 -51q24 -21 34 -21q8 0 32 26q31 32 50 73q26 55 26 115z" />
<glyph unicode="7" horiz-adv-x="396" d="M453 741q-7 -15 -61 -110q-34 -61 -34 -89t8 -41t17 -26q1 -2 -2 -4q-48 -23 -97 -134.5t-49 -186.5q0 -38 14 -67q5 -11 35 -56q2 -4 -1 -5q-8 -5 -15 -12q-17 -16 -23 -37q-2 -3 -3 -2q-59 27 -99 27q-36 0 -87 -17t-55 -17q-3 0 -4 2q0 2 2 4q54 35 133 177 q91 162 91 274q0 29 -10 74q0 3 2 4q33 12 60 41q32 35 32 76q0 29 -40 29q-58 0 -108 -29q-78 -46 -78 -149q0 -24 1 -43q-1 -3 -5 -2q-26 46 -26 91q0 27 12 64.5t12 45.5q0 19 -17 19q-19 0 -41 -33q-3 0 -5 3q28 110 178 110q29 0 73.5 -11t63.5 -11q56 0 121 45 q3 0 5 -4z" />
<glyph unicode="8" horiz-adv-x="487" d="M490 291q-38 -42 -60 -127q-31 -114 -36 -124q-25 -57 -77 -58q-43 6 -128 12q-25 -1 -56 -8t-61 -14q-2 1 -2 5l24 32q9 17 8 58q-2 99 -109 164q-6 4 0 6q91 27 89 111q0 19 -10 58q1 3 4 4q15 -3 29 -3q58 0 119 51q-63 73 -131 96q-7 0 -2 5q63 45 62 91q0 14 -9 13 q-15 0 -29 -10q-3 0 -4 3q29 67 109 68q23 0 58.5 -10.5t47.5 -10.5q44 1 85 45q3 1 5 -2q-2 -16 -16 -49q-13 -28 -12 -47q1 -42 31 -81q3 -3 -1 -5q-29 -11 -60.5 -43.5t-61.5 -65.5q52 -64 113 -111q49 -37 80 -48q4 -1 1 -5zM315 614q0 21 -13 34.5t-31 13.5 q-22 0 -39 -18q-20 -19 -20 -52q0 -36 50 -95q5 6 11 15q-16 17 -28 47q-9 23 -9 31q0 14 9 14q7 0 19 -20q15 -26 33 -37q19 33 18 67zM328 242q-2 76 -71 174q-3 -2 -9.5 -7.5t-9.5 -8.5q71 -84 72 -150q1 -36 -13 -73.5t-23 -37.5q-19 -1 -19 11q6 18 12 71q0 29 -22 66 q-25 43 -61 60q-21 -26 -21 -73q0 -48 31 -125q33 -84 62 -84q31 0 54 70q19 59 18 107z" />
<glyph unicode="9" horiz-adv-x="523" d="M528 288q3 -3 -1 -5q-42 -25 -67 -104q-18 -67 -35 -133q-21 -65 -56 -65q-17 0 -49 8t-52 8q-34 0 -97.5 -13.5t-78.5 -13.5q-5 0 -2 5q17 24 17 52q0 30 -31 97q-36 76 -73 99q-4 3 1 6q29 18 53 45q59 63 87 155q1 5 4 2q20 -13 98 -43q12 -3 68 -18q25 -6 31.5 -13 t6.5 -45q0 -36 -24 -108q-26 -76 -42 -76q-22 0 -22 15q0 -2 14.5 46t14.5 81q0 67 -75 67q-62 0 -62 -74q0 -76 36 -140q33 -60 67 -60q32 0 71.5 89.5t39.5 165.5q0 36 -13 82q-82 4 -144 34q-81 40 -81 113q0 18 6.5 38.5t6.5 28.5q0 18 -7 18q-17 0 -26 -6q-3 1 -3 5 q33 42 47 54q36 30 81 30q30 0 53.5 -6.5t46.5 -6.5q31 0 53 11q10 5 41 29q5 4 5 -3q-6 -22 -11.5 -45.5t-5.5 -47.5q0 -63 60 -95q2 -1 2 -3t-2 -3q-42 -21 -42 -88q0 -103 91 -169zM351 514q0 17 -13 23t-25 11q-5 4 1 6q33 12 33 52q0 21 -18 37t-35 16q-25 0 -41 -13 t-16 -33q0 -16 8.5 -24t16.5 -15q3 -3 -1 -5q-17 -6 -20 -9q-7 -6 -7 -24q0 -28 28 -51q25 -21 47 -21q17 0 29.5 14.5t12.5 35.5z" />
<glyph unicode=":" horiz-adv-x="195" d="M164 393q-13 -8 -24 -18q-25 -24 -34 -58q-1 -9 -9 -1q-14 51 -59 77q-8 3 -1 12q13 8 24 18q26 24 35 57q8 10 10 -1q13 -50 58 -74q7 -10 0 -12zM164 36q-13 -8 -24 -18q-25 -24 -34 -58q-1 -9 -9 -1q-14 51 -59 77q-8 3 -1 12q13 8 24 18q26 24 35 57q8 10 10 -1 q13 -50 58 -74q7 -10 0 -12z" />
<glyph unicode=";" horiz-adv-x="195" d="M164 393q-13 -8 -24 -18q-25 -24 -34 -58q-1 -9 -9 -1q-14 51 -59 77q-8 3 -1 12q13 8 24 18q26 24 35 57q8 10 10 -1q13 -50 58 -74q7 -10 0 -12zM161 49q10 -5 -2 -19q-21 -40 -42 -81q-27 -49 -63 -63q-3 1 -3 5q34 43 34 98q0 23 -47 47q-8 3 -1 12q13 8 24 18 q26 24 35 57q8 10 10 -1q13 -50 55 -73z" />
<glyph unicode="&#x3c;" horiz-adv-x="330" d="M318 226q-46 -32 -67 -101q-1 -4 -5 -1q-40 45 -77 81q-87 86 -143 110v25q83 35 220 190q4 3 5 -1q6 -20 15 -38q21 -42 52 -63q4 -3 -2 -5q-32 -6 -61 -18q-70 -28 -117 -79q70 -70 179 -95q6 -2 1 -5z" />
<glyph unicode="=" horiz-adv-x="420" d="M381 454q-17 -31 -17 -65q0 -31 13 -57q0 -3 -4 -4q-69 34 -172 34q-60 0 -162 -31q-3 1 -4 4q16 33 16 68q0 28 -9 51q0 3 4 4q60 -34 161 -34q64 0 170 34q3 0 4 -4zM381 301q-17 -31 -17 -65q0 -32 13 -58q0 -3 -4 -4q-73 36 -172 36q-60 0 -162 -33q-3 1 -4 4 q16 33 16 69q0 29 -9 53q0 3 4 4q62 -35 161 -35q64 0 170 33q3 0 4 -4z" />
<glyph unicode="&#x3e;" horiz-adv-x="330" d="M318 315q-83 -35 -220 -191q-4 -3 -5 1q-6 20 -15 38q-21 42 -52 63q-5 3 1 5q32 7 61 19q71 29 118 76q-70 75 -178 97q-6 2 -2 5q46 32 67 101q1 4 5 1q40 -45 77 -81q87 -85 143 -109v-25z" />
<glyph unicode="?" horiz-adv-x="486" d="M468 563q-76 -47 -76 -112q0 -38 32 -70q3 -4 -1 -5q-15 -5 -27 -14q-29 -21 -37 -56q-2 -5 -5 -2q-32 20 -55 20q-19 0 -30 -23q-9 -19 -9 -43q0 -28 12 -59q16 -42 46 -56q5 -3 1 -6q-9 -6 -16 -12q-16 -16 -17 -33q0 -6 -5 -3q-34 21 -67 21q-28 0 -67.5 -19 t-50.5 -19q-3 0 -3 3q-1 2 2 3q93 48 93 188q0 51 -21 51q-16 0 -30 -9q-3 0 -5 3q8 14 11 17q9 11 25 17q5 2 57 11q44 9 55 19q36 33 36 126q0 153 -71 153q-34 0 -69 -52q-30 -46 -30 -71q0 -17 11 -41t18 -24q8 0 38 17t35.5 25.5t5.5 45.5q0 9 -4.5 26.5t-4.5 18.5 q1 3 9 9t13 6q7 0 19 -26q15 -33 15 -76q0 -30 -10 -41t-76 -54q-73 -47 -92 -47q-40 89 -99 157q-3 3 1 5q83 49 83 102q0 16 -13 16q-18 0 -31 -12q-3 0 -5 3q13 26 40 49q37 31 79 31q41 0 72 -7t42 -7q42 0 91 46q3 1 5 -3q-15 -69 -15 -80q0 -66 95 -101q6 -2 0 -6z M282 7q-13 -8 -24 -18q-25 -24 -34 -58q-1 -9 -9 -1q-14 51 -59 77q-8 3 -1 12q13 8 24 18q26 24 35 57q8 10 10 -1q13 -50 58 -74q7 -10 0 -12z" />
<glyph unicode="@" horiz-adv-x="639" d="M613 350q0 -76 -40 -137q-43 -65 -101 -65q-27 0 -54.5 9t-44.5 9q-23 0 -59.5 -14t-48.5 -14q-26 0 -52 54q-28 58 -56 65q-5 1 0 4q29 4 51 43q29 54 48 70q47 41 63 41q17 0 53 -44q0 26 -18 34q-3 3 -1 5q19 13 19 32q0 16 -9 32q-12 19 -31 19q-72 0 -88 -104 q-1 -2 -3 -3q-1 0 -2 3q-8 31 -8 43q0 24 12.5 51.5t12.5 28.5q0 10 -12 10q-10 0 -18 -5q-1 -1 -3 -1q-2 1 -1 2q18 37 66 37q17 0 39.5 -4t31.5 -4q26 0 61 25q5 0 4 -3q-10 -57 -10 -60q0 -77 48 -102q2 -2 0 -4q-31 -35 -31 -104q0 -36 8 -71q12 -51 37 -51 q38 0 72.5 57t34.5 116q0 128 -76.5 219.5t-185.5 91.5t-185.5 -91.5t-76.5 -219.5t76.5 -219.5t185.5 -91.5q107 0 170 64q4 5 10 5q15 0 15 -17q0 -6 -3 -10q-35 -35 -92 -54q-51 -18 -100 -18q-121 0 -206.5 99.5t-85.5 241.5t85.5 241.5t206.5 99.5t206.5 -99.5 t85.5 -241.5zM363 249q-23 -27 -40 -27q-13 0 -13 16q0 -2 23.5 28.5t23.5 50.5q0 5 -17.5 21.5t-22.5 16.5q-10 0 -32 -29t-22 -49q0 -26 21.5 -52t48.5 -26q30 0 30 50z" />
<glyph unicode="A" horiz-adv-x="480" d="M491 193q-28 -13 -41 -39q-21 -40 -21 -127q0 -104 -33 -187q-35 -88 -97 -124q-2 1 -3 5q65 86 65 197q0 47 -11 64q-9 14 -33 14q-15 0 -56.5 -16t-58.5 -16q-3 0 -3 3t3 3q44 5 83 50q42 49 42 109q0 53 -62 108q-26 24 -93 79q-16 -76 -16 -122q0 -102 51 -148l2 -2 l-2 -2q-8 -6 -14 -14q-14 -18 -15 -38q0 -4 -4 -3q-33 15 -59 15q-47 0 -86.5 -22t-56.5 -22q-3 0 -4 3q0 2 3 3q83 23 83 119q0 42 -12 71q-4 10 -22 37q-1 1 1 4q41 47 94 158q-16 7 -49 24q-13 7 -27 46q-12 36 -12 55q0 15 27.5 37t40.5 22q11 0 22.5 -24.5t11.5 -39.5 q0 -16 -15 -16q-1 0 -8.5 18t-12.5 18t-13.5 -6.5t-8.5 -11.5q0 -33 12 -41q19 -13 54 -27q48 118 48 213q0 40 -14 40t-22 -20q-1 -3 -3 -2q-3 0 -3 3q-1 25 19.5 52.5t48.5 27.5q20 0 42.5 -9.5t44.5 -9.5q48 0 62 44q1 3 3 3t3 -3q3 -12 3 -22q0 -16 -20 -45t-20 -68 q0 -52 18 -74t60 -27q9 0 2 -5q-24 -17 -25 -19q-13 -15 -13 -50q0 -67 31 -135q35 -78 89 -102q2 -1 2 -3t-2 -3zM316 311q-8 65 -17 116q-18 102 -40 160q-40 -94 -71 -208q66 -31 128 -68z" />
<glyph unicode="B" horiz-adv-x="489" d="M504 126q-49 -31 -81 -74q-19 -31 -39 -61q-18 -25 -41 -25q-26 0 -74.5 16t-87.5 16q-108 0 -201 -53q-3 1 -3 5q19 19 38 39q31 40 49 105q25 89 25 225q0 72 -5 97q-13 65 -59 79q-5 1 -1 5q23 17 45 35q24 28 24 90q0 37 -30 37q-20 0 -36 -22q-3 0 -5 3 q39 77 110 77q37 0 71.5 -9t57.5 -9q26 0 100 33q3 0 4 -4q-2 -10 -2 -23q0 -62 54 -101q1 -1 2 -3l-2 -2q-31 -20 -54 -39q-57 -46 -68 -84q58 -64 128 -85q2 -1 2 -4q-5 -24 -5 -53q0 -128 84 -206q3 -3 0 -5zM302 618q0 41 -73 41q-70 0 -70 -46q0 -86 53 -86q35 0 64 33 q26 30 26 58zM350 243q0 88 -61 158q-53 60 -94 60q-27 0 -33 -33q-1 -7 -1 -62q0 -52 5 -117q10 20 21.5 40.5t35.5 20.5q72 0 98 -24q9 -8 9 -39q0 -58 -23 -107q-19 -41 -30 -41q-4 0 -9.5 4.5t-5.5 8.5q0 -2 16 38t16 73q0 36 -32 36q-23 0 -42 -60q-17 -52 -17 -85 q0 -54 39 -54q33 0 70.5 59t37.5 124z" />
<glyph unicode="C" horiz-adv-x="484" d="M483 222q-28 -19 -50 -83q-18 -52 -35 -105q-23 -51 -59 -51q-9 0 -48 9t-70 9q-46 0 -139 -27q-4 -1 -4 3q-1 30 -9 57q-18 65 -62 103q-2 2 0 4q89 113 89 272q0 44 -3 61q-6 30 -27 52q-3 4 1 5q65 19 65 96q0 30 -16 30q-18 0 -35 -21q-3 0 -5 3q24 80 91 80 q36 0 65.5 -9.5t48.5 -9.5q43 0 70 33q3 1 5 -3q-3 -10 -3 -23q0 -45 44 -70q3 -2 0 -5q-14 -16 -26 -33q-28 -41 -39 -81q-65 -4 -77 3t-31 35q-23 32 -23 51q0 14 15 14l8 -17t21 -27q18 -16 44 -16q9 0 20.5 22t11.5 30q0 7 -7.5 21.5t-11.5 17.5q-8 8 -61 8 q-25 0 -40.5 -20t-15.5 -50q0 -36 34 -70q3 -3 0 -5q-59 -34 -59 -241q0 -73 21 -136q23 -71 57 -71q40 0 77 68q33 61 33 101q0 19 -19.5 66.5t-28.5 47.5q-39 0 -52 -14q-17 -18 -17 -74q0 -33 9 -70.5t9 -36.5q0 -13 -20 -13q-9 0 -24 48q-17 53 -17 104q0 21 6 53.5 t13 38.5q4 3 31 7q33 5 57 14q30 11 68 40q5 4 5 -2q-6 -147 115 -218q3 -2 0 -5z" />
<glyph unicode="D" horiz-adv-x="457" d="M479 276q-36 -29 -64 -109q-41 -116 -46 -127q-31 -61 -82 -61q-4 0 -66 9.5t-101 9.5q-59 0 -111 -19t-82 -19q-3 0 -4 3q0 2 3 3q73 14 103 79q38 83 38 298q0 66 -3 86q-10 55 -48 72q-2 1 -2 3t2 3q57 26 57 92q0 29 -9 45t-19 16q-15 0 -29 -14q-3 0 -5 2 q1 20 26 44q32 31 77 31q12 0 43.5 -9.5t52.5 -9.5q31 0 58 10q5 1 51 22q3 0 4 -4q-5 -21 -5 -46q0 -89 62 -135q-9 -39 -9 -66q0 -132 108 -205l2 -2zM318 283q0 79 -27.5 150.5t-61.5 75.5q-5 0 -3 4q22 39 22 63q0 28 -30 56q-27 25 -49 25q-31 0 -31 -55q0 -75 45 -87 q7 0 2 -5q-51 -50 -51 -175q0 -34 3 -91l26 50q18 32 31 32q24 0 64 -18q46 -20 46 -43q0 -28 -26 -85.5t-36 -57.5q-21 0 -21 11q0 2 17 39t17 64q0 29 -31 29q-12 0 -31 -57.5t-19 -80.5q0 -52 42 -52q29 0 65.5 76.5t36.5 131.5z" />
<glyph unicode="E" horiz-adv-x="467" d="M467 98q-48 -44 -75 -83q-13 -22 -26 -43q-9 -13 -26 -13q-18 0 -57.5 20t-103.5 20q-88 0 -154.5 -21t-79.5 -21q-3 0 -3 3q-1 2 2 3q59 16 95 90q43 90 43 253q0 71 -8 104q-13 56 -53 79q-7 4 0 6q72 31 72 106q0 59 -28 59q-18 0 -36 -12q-3 0 -5 2q1 18 25 39 q33 28 87 28q34 0 75.5 -7.5t68.5 -7.5q36 0 58 13q2 2 32 27q3 1 5 -3q-3 -11 -3 -24q0 -56 60 -73q5 -2 2 -5q-20 -30 -67 -67.5t-66 -37.5q-18 0 -48 32t-30 42q0 11 15 11q1 0 23.5 -19t34.5 -19q6 0 21.5 15t15.5 20q0 6 -17 20q-20 17 -38 17q-80 0 -107 -19 q-15 -11 -15 -66q0 -52 105 -52q69 0 118 33q3 2 5 0q2 -3 0 -5q-8 -12 -31 -34q-27 -26 -42 -44q-1 -1 -33 -57q-23 -40 -38 -40t-26.5 10.5t-11.5 23.5t14 27q2 3 5 1q4 -3 2 -5q-5 -12 -5 -21q0 -8 15 -8q7 0 14 13.5t7 27.5q0 25 -46 25q-31 0 -42 -13q-6 -7 -12 -63 q-5 -49 -5 -85q0 -234 77 -234q37 0 77 40q37 38 37 61q0 28 -49 28q-34 0 -55 -23q-4 -4 -5 1q-5 19 -5 38q0 74 59 138q53 58 100 58q43 0 43 -44t-33 -44q-24 0 -39 28q-35 -16 -35 -56q0 -28 20 -44q15 -12 33 -12q20 0 47 12q4 1 4 -3q-5 -96 42 -142q2 -2 0 -4z" />
<glyph unicode="F" horiz-adv-x="346" d="M422 645q-47 -24 -79 -74q-27 -41 -35 -41q-20 0 -55 23q-38 24 -49 48q-2 5 2.5 9.5t8.5 0.5q33 -32 71 -32q6 0 17 23t11 33q0 11 -30 11q-104 0 -122.5 -23.5t-18.5 -69.5q0 -22 14 -32q20 -14 77 -14q56 0 95 18q11 6 48 32q3 0 5 -3q-5 -21 -11 -39q-16 -44 -37 -65 q-29 -29 -58 -57q-36 -40 -36 -64t17 -24q10 0 20.5 11t10.5 23q0 7 -3 18q-1 3 3 5q3 2 6 -1q8 -6 9 -22q2 -22 -12.5 -40.5t-37.5 -18.5q-19 0 -34 13q-18 15 -18 40q0 19 20.5 55.5t20.5 48.5q0 14 -39 14q-36 0 -56 -24q-2 -2 -2 -68q0 -83 16 -159q29 -142 102 -166 q7 -2 0 -6q-29 -16 -36 -52q0 -4 -4 -2q-47 18 -96 18q-64 0 -151 -57q-3 -1 -5 1q-1 2 1 4q33 28 36 33q27 33 42 95q20 83 20 219q0 150 -57 180q-7 4 0 6q62 25 62 105q0 71 -33 71q-20 0 -29 -19q-1 -3 -4 -2t-2 4q18 85 124 85q30 0 66.5 -7.5t62.5 -7.5q60 0 115 44 q3 1 5 -3q-2 -10 -2 -23q0 -56 44 -69q6 -2 0 -6z" />
<glyph unicode="G" horiz-adv-x="509" d="M494 250q-39 -38 -39 -112q0 -45 7 -94t7 -72q0 -74 -30 -136q-37 -76 -115 -114q-2 -2 -4 1q-1 2 1 4q62 53 62 164q0 35 -19 62q-31 45 -107 45q-115 0 -173 -29q-4 -1 -4 3q-3 29 -12 55q-22 64 -73 108q-2 2 0 4q109 147 109 304q0 36 -11 57q-4 7 -22 26q-3 4 1 5 q76 19 76 90q0 35 -16 35q-12 0 -24 -12q-3 0 -5 3q21 73 90 73q19 0 46 -9t50 -9q36 0 62 12l42 24q4 1 4 -3q1 -22 7 -40q15 -45 53 -67q3 -2 1 -5q-17 -25 -60.5 -62.5t-53.5 -37.5q-20 0 -50 22.5t-30 33.5q0 12 14.5 29.5t33.5 21.5q4 1 5 -3q2 -3 -1 -6 q-19 -15 -19 -28q0 -4 15 -12t21 -8q4 0 19 15t15 20q0 12 -20 25q-23 15 -57 15q-93 0 -93 -80q0 -27 8 -40q6 -9 24 -21q4 -3 -1 -6q-25 -13 -47 -66q-31 -73 -31 -175q0 -78 23 -135q27 -70 79 -70q55 0 88 54t33 138q0 141 -50 141q-25 0 -53 -43q-36 -53 -36 -133 q0 -25 59 -25q33 0 33 60q0 21 -2.5 37t-2.5 20q0 11 16 11q6 0 13 -16q10 -22 10 -59q0 -29 -11 -60q-8 -25 -13 -29q-11 -9 -58 -9q-20 0 -51 7t-36.5 14t-11.5 41.5t-6 64.5q0 77 32 149q59 4 90 17q47 19 128 83q5 5 5 -2q2 -13 7 -24q12 -25 36 -33q3 -2 2 -4 q-23 -47 -23 -99q0 -39 11 -61q8 -15 33 -41q3 -3 0 -4z" />
<glyph unicode="H" horiz-adv-x="535" d="M535 35q3 -4 -1 -5q-8 -4 -14 -11q-15 -16 -18 -41q0 -2 -2 -3t-3 1q-20 19 -73 19q-48 0 -95 -18t-59 -18q-3 0 -3 3q-1 2 2 3q103 44 103 230q0 64 -5 75q-10 21 -53 73q-53 65 -103 105q-3 -73 -3 -121q0 -239 66 -295q4 -3 -1 -5q-10 -5 -17 -11q-17 -16 -18 -39 q0 -5 -4 -3q-36 19 -71 19q-60 0 -102 -19.5t-56 -19.5q-3 0 -4 2q0 3 3 4q75 32 111 151q38 126 40 373q-24 11 -44 11q-16 0 -35.5 -33.5t-19.5 -48.5q0 -11 16.5 -26.5t23.5 -15.5q9 0 18 18.5t8 36.5q2 3 6 2q7 -13 7 -37q0 -27 -8 -50.5t-20 -23.5q-17 0 -55.5 26 t-47.5 45q-2 4 -2 10q0 29 24.5 84.5t45.5 72.5q15 12 24 12q28 0 59 -11q0 58 -2 77q-4 28 -16 28q-19 0 -27 -17q-1 -3 -4 -2q-2 0 -2 3q0 25 14 44q19 27 62 27q8 0 27.5 -4t29.5 -4q20 0 39 21q7 8 7 -14q0 -14 -16 -34q-22 -29 -31 -49q-18 -40 -22 -100q31 -15 97 -57 q48 -30 61 -30q9 0 9 15q0 6 -6.5 16.5t-18.5 13.5q-3 1 -3 3t3 3q41 18 41 100q0 58 -17 58q-16 0 -31 -19q-3 0 -5 3q18 69 70 69q9 0 28 -4t26 -4q18 0 38 27q4 4 6 -1t2 -11q0 -10 -29.5 -53t-29.5 -85q0 -40 9 -56.5t38 -36.5q1 -1 2 -3l-2 -2q-47 -36 -47 -149 t10 -162q16 -75 70 -132z" />
<glyph unicode="I" d="M294 19q4 -4 -1 -6q-10 -4 -18 -10q-20 -14 -26 -36q-1 -5 -5 -1q-40 30 -92 30q-24 0 -85.5 -24.5t-110.5 -24.5q-3 0 -4 3q0 2 3 3q99 18 125 112q19 67 19 300q0 82 -48 117q-3 3 1 5q32 13 46 31q17 22 17 63q0 83 -45 83q-41 0 -59 -31q-2 -3 -4 -1q-2 1 -2 4 q18 88 98 88q19 0 53.5 -10t57.5 -10q33 0 48 9q6 3 27 25q3 0 5 -2q-2 -48 -42 -75q-24 -13 -48 -25q-28 -22 -28 -71q0 -58 52 -79q4 -2 1 -5q-26 -21 -36 -41q-15 -32 -15 -93q0 -251 116 -328z" />
<glyph unicode="J" horiz-adv-x="490" d="M488 60q-11 -8 -19 -18q-20 -25 -24 -55q0 -5 -4 -3q-26 12 -58 12q-41 0 -95.5 -18.5t-79.5 -18.5q-60 0 -96 51q-8 12 -50 103q-28 61 -64 76q-6 3 -1 6q108 72 108 200q0 19 -3 38q0 5 5 2q28 -24 90 -40q92 -24 99 -27q15 -6 15 -108q0 -33 -8 -77q-11 -56 -26 -56 q-21 0 -19 14q13 81 13 122q0 56 -65 56q-24 0 -42.5 -29t-18.5 -55q0 -34 33 -99q37 -76 74 -76t62 97q19 79 19 157q0 69 -9 106q-13 50 -49 78q-3 4 1 5q44 24 44 90q0 71 -54 71q-39 0 -60 -22q-5 -5 -5 2q3 23 22 47q27 34 72 34q20 0 52.5 -11.5t51.5 -11.5q29 0 43 9 q13 13 26 25q5 5 5 -2q0 -37 -41.5 -71.5t-41.5 -72.5q0 -52 46 -87l2 -2l-2 -2q-37 -33 -37 -142q0 -92 8 -134q18 -101 81 -159l2 -2z" />
<glyph unicode="K" horiz-adv-x="426" d="M425 724q-7 -24 -51 -63q-60 -53 -62 -55q-87 -99 -87 -115q0 -19 48 -102q64 -112 150 -193q2 -2 0 -4q-34 -56 -34 -125q0 -11 4.5 -52.5t4.5 -51.5q0 -58 -31 -143q-40 -112 -109 -155q-3 -1 -5 1q-1 2 1 4q77 99 77 236q0 89 -37 89q-19 0 -54.5 -22.5t-47.5 -22.5 q-3 0 -3 2t2 4q103 68 103 191q0 54 -59 183q-56 122 -69 122q-8 0 -20 -9q-16 -12 -16 -27q2 -309 74 -380q2 -2 0 -4q-6 -6 -11 -12q-12 -16 -15 -34q0 -5 -4 -3q-39 12 -67 12q-42 0 -84 -28.5t-65 -28.5q-3 0 -3 3q-1 2 2 3q63 17 83 125q16 86 16 329q0 40 -15 63 q-12 18 -28 18q-3 0 -3 3q-1 2 2 3q52 19 52 95q0 84 -25 84q-20 0 -35 -16q-1 -2 -3 -1t-2 3q9 67 67 67q14 0 37 -7.5t35 -7.5q22 0 48 34q5 7 5 -2q4 -31 -11 -51q-27 -36 -31 -45q-18 -40 -18 -115q0 -11 10 -11q18 0 74.5 62.5t56.5 83.5q0 11 -13 11q-17 0 -31 -17 q-3 0 -5 3q30 65 78 65q16 0 36.5 -9t29.5 -9q27 0 53 25q3 0 5 -3z" />
<glyph unicode="L" horiz-adv-x="481" d="M499 180q-14 -11 -48 -41q-24 -23 -47 -73q-27 -56 -39 -71q-25 -32 -64 -32q-27 0 -85 18.5t-115 18.5q-46 0 -91.5 -20.5t-56.5 -20.5q-3 0 -4 3q0 2 3 3q52 11 92 111q46 112 46 274q0 58 -7 79q-9 25 -39 35q-7 2 0 6q60 34 60 115q0 78 -32 78q-13 0 -21 -6.5 t-14 -12.5q-3 0 -5 3q19 70 85 70q29 0 43.5 -9t30.5 -9q32 0 58 35q4 4 5 -1t1 -10q0 -22 -41.5 -68t-41.5 -88q0 -50 15 -70q9 -11 37 -24q5 -1 1 -5q-29 -23 -41 -56q-17 -45 -17 -132q0 -228 66 -228q35 0 72 66q32 58 32 87q0 24 -15 58q-17 38 -33 38q-31 0 -43 -23 q-8 -13 -8 -68q0 -16 3.5 -44t3.5 -30q0 -19 -20 -19q-25 0 -25 114q0 60 9 110q23 6 44 15q53 20 93 48q5 4 5 -2q7 -45 24 -83q40 -91 123 -134q5 -2 1 -5z" />
<glyph unicode="M" horiz-adv-x="599" d="M585 37q1 -3 -1 -4q-8 -7 -15 -15q-17 -19 -25 -42q-2 -3 -4 -2q-16 7 -33 14q-23 10 -51 10q-40 0 -95.5 -24.5t-66.5 -24.5q-3 0 -4 2q0 3 3 4q154 65 154 426q0 93 -38 103q-3 1 -3 3t3 3q36 11 36 28q0 13 -9 13t-32 -22q-29 -29 -29 -62q0 -9 25.5 -24.5t25.5 -34.5 q0 -28 -21 -98q-23 -75 -40 -92q-11 -11 -60 -20q-40 -7 -63 -7q-19 0 -35 49t-16 111q0 55 8.5 66t35.5 11q14 0 36 -13q27 -16 36 -37q0 -2 -4 -4q-45 21 -59 21q-5 0 -6 -2q-4 -7 4 -67q9 -64 20 -81q3 -4 21 -1t24.5 7.5t26 52t19.5 65.5q0 22 -63 79q-67 59 -106 62 q-20 -100 -20 -227q0 -88 8 -130q13 -73 54 -107q3 -3 -1 -5q-9 -6 -16 -13q-17 -18 -22 -42q-1 -4 -5 -2q-53 30 -101 30q-36 0 -80 -20.5t-55 -20.5q-3 0 -4 2q0 3 3 4q58 27 96 129q46 120 46 302q0 51 -8 73q-11 34 -45 46q-3 1 -3 3t3 3q66 22 66 100q0 45 -28 45 q-22 0 -35 -21q-1 -3 -4 -2q-3 2 -2 5q17 73 85 73q18 0 41.5 -5.5t36.5 -5.5q27 0 52 29q1 2 3 1t2 -3q-2 -21 -23 -45.5t-21 -44.5q0 -31 48 -86q43 -51 51 -51q7 0 59 56q55 60 55 86q0 23 -24 23q-19 0 -35 -17q-3 0 -5 3q6 21 27 40q26 26 60 26q14 0 40 -9t33 -9 q32 0 57 29q2 2 4 0t0 -4q-53 -81 -53 -135q0 -39 10 -58q5 -10 30 -35q2 -2 0 -4q-10 -11 -20 -23q-12 -16 -17 -48q-7 -42 -7 -124q0 -113 16 -168q11 -37 49 -96z" />
<glyph unicode="N" horiz-adv-x="481" d="M466 733q3 -6 3 -13q0 -14 -23 -54.5t-23 -65.5q0 -42 34 -56q4 -2 1 -5q-39 -31 -39 -241q0 -17 6 -78t6 -103q0 -65 -46 -180q-64 -159 -169 -237q-3 0 -4 4q121 136 121 321q0 60 -21 109q-23 54 -61 67q-7 2 -1 6q43 29 43 82q0 46 -39 117q-41 76 -87 102 q-9 -14 -16 -65q-6 -46 -6 -86q0 -235 76 -323q3 -3 0 -5q-8 -5 -14 -12q-14 -17 -17 -38q0 -5 -4 -3q-38 19 -76 19q-47 0 -94 -27.5t-63 -27.5q-9 0 -2 5q63 43 89 109q39 98 39 305q0 69 -2 85q-9 55 -44 72q-6 4 0 6q47 19 47 81q0 50 -30 50q-17 0 -36 -19q-3 0 -5 3 q25 80 87 80q20 0 43 -8t35 -8q21 0 43 21q3 3 5 -2q4 -20 -17.5 -41.5t-21.5 -33.5q0 -28 55 -101q61 -81 121 -116q0 86 -40 109q-4 2 -1 5q38 28 38 60q0 22 -8 41q-11 24 -29 24q-17 0 -25 -6l-8 -6q-3 0 -3 3q2 14 19 37q24 31 51 31q14 0 36.5 -11.5t31.5 -11.5 q23 0 39 30q1 2 3 2t3 -2z" />
<glyph unicode="O" horiz-adv-x="478" d="M477 206q-27 -42 -43 -108q-17 -75 -23 -87q-17 -36 -59 -36q-17 0 -58.5 9t-54.5 9q-43 0 -140 -21q-4 -2 -4 3q-7 33 -18 62q-27 69 -75 107q-2 2 -1 4q51 87 84 188q27 79 27 109q0 26 -29 48q-4 4 0 5q99 50 99 137q0 28 -15 28q-7 0 -16.5 -4.5l-9.5 -4.5q-4 0 -3 4 q22 64 82 64q21 0 45.5 -11.5t40.5 -11.5q35 0 59 37q8 13 8 -16q0 -7 -12 -40.5t-12 -76.5q0 -72 66 -104q2 -1 0 -4q-24 -22 -24 -63q0 -47 17 -101q23 -73 69 -121q2 -2 0 -4zM323 299q0 63 -21 182q-24 132 -45 132t-60 -150q-38 -145 -38 -207q0 -78 19 -131 q22 -63 64 -63q40 0 63 93q18 72 18 144zM288 349q-33 0 -39 -57q0 -3 -3 -3t-3 3q-15 57 -38 57q-3 0 -3 3t3 3q33 1 38 58q0 3 3 3t3 -3q5 -17 11 -29q14 -29 28 -29q3 0 3 -3t-3 -3z" />
<glyph unicode="P" horiz-adv-x="395" d="M455 638q-40 -35 -93 -142q-42 -88 -74 -89q-34 -1 -60 20.5t-34 21.5q-17 -1 -36 -28t-18 -46q1 -24 23 -50.5t33 -26.5q8 0 16.5 10t8.5 16q0 4 -9 25t-9 24q-1 11 14 11q6 1 27 -29.5t21 -42.5t-31 -47.5t-39 -35.5q-7 -1 -46 20q1 -79 13 -124q21 -74 76 -110 q4 -3 -1 -5q-12 -7 -36 -40q-2 -5 -5 -2q-41 26 -94 26q-39 0 -86 -30t-53 -30q-3 2 -2 6q50 24 78 117q31 101 31 265q0 29 -1 61q-3 86 -53 106q-2 0 -2 2q0 3 2 4q56 26 53 115q-2 64 -31 63q-21 -1 -37 -26q-3 -1 -5 3q17 72 115 75q37 1 73 -10t65 -10q40 1 65 13 q11 6 49 34q5 4 5 -3q6 -29 17 -51q25 -51 68 -55q8 -1 2 -5zM308 619q-2 38 -100 34q-49 -2 -65 -24q-13 -18 -11 -66q1 -22 3 -70q33 50 67 54q6 0 3 -5q-14 -17 -14 -24q1 -21 65 -18q15 1 35 51q18 47 17 68z" />
<glyph unicode="Q" horiz-adv-x="486" d="M477 206q-29 -44 -47 -129q-16 -74 -30 -84q-5 -4 -43 -21q-28 -13 -50 -38q-48 -56 -48 -87q0 -14 50 -28q42 -13 58 -13q6 0 11.5 30.5t5.5 56.5q0 23 -5 23q-17 0 -44 -32l-27 -32q-17 0 -17 10q0 23 37 58q42 41 87 41q17 0 17 -67q0 -157 -43 -157 q-32 0 -114.5 26.5t-89.5 26.5q-8 0 -34 -17q-3 0 -5 2q3 50 25 102q15 35 41 73q21 31 21 32q0 13 -19 13q-9 0 -115 -23q-4 -2 -4 3q-7 33 -18 62q-27 69 -75 107q-2 2 -1 4q51 88 86 191q29 84 29 113q0 17 -12 27q-10 7 -21 14q-4 4 0 5q99 50 99 137q0 28 -15 28 q-7 0 -16.5 -4.5l-9.5 -4.5q-4 0 -3 4q22 64 82 64q21 0 45.5 -11.5t40.5 -11.5q35 0 59 37q8 13 8 -16q0 -7 -12 -40.5t-12 -76.5q0 -70 54 -108q2 -1 0 -4q-12 -18 -12 -59q0 -47 17 -101q23 -73 69 -121q2 -2 0 -4zM323 299q0 63 -21 182q-24 132 -45 132t-60 -150 q-38 -145 -38 -207q0 -78 19 -131q22 -63 64 -63q10 0 20.5 6.5t10.5 17.5q0 24 -16 56q-20 40 -48 40q-7 0 -21 -12q-8 -8 -8 30q0 46 27 75l42 26q25 16 25 45q0 12 -7 33q1 3 5 3q27 -25 27 -56q0 -29 -18 -54.5t-18 -32.5q0 -14 16.5 -32.5t25.5 -18.5q7 0 13 46 q5 40 5 65z" />
<glyph unicode="R" horiz-adv-x="444" d="M444 212q-38 -61 -38 -146q0 -242 -207 -326q-3 1 -3 5q124 101 124 229q0 24 -15 24t-55 -21t-52 -21q-3 0 -3 3q-1 2 2 3q94 35 94 174q0 60 -32 142q-41 106 -110 149q-6 -96 -6 -99q0 -223 64 -301q3 -3 -1 -5q-9 -6 -16 -13q-17 -16 -18 -34q0 -5 -5 -2 q-39 24 -83 24q-24 0 -76 -22.5t-75 -22.5q-3 0 -4 3q0 2 3 3q134 50 134 413q0 47 -8 71q-12 36 -47 50q-8 3 0 6q29 11 47 43q17 28 17 56q0 59 -28 59q-19 0 -39 -15q-3 0 -5 3q11 28 37 49q34 27 82 27q19 0 69.5 -10t64.5 -10q43 0 98 26q4 2 4 -2q9 -16 18 -29 q22 -30 41 -37q4 -2 1 -5q-24 -23 -42 -49q-45 -65 -55 -140q0 -5 -4 -3q-31 9 -59 9q-22 0 -37 -6q31 -54 80 -116q79 -101 142 -131q3 -1 1 -5zM275 622q0 20 -42 20q-81 0 -81 -70q0 -38 4.5 -46t24.5 -8q41 0 71 47q23 36 23 57z" />
<glyph unicode="S" horiz-adv-x="510" d="M522 283q-31 -20 -53 -102q-32 -125 -37 -137q-28 -68 -78 -68q-13 0 -52.5 9t-54.5 9q-58 0 -102 -30q-3 -4 -5 2q-15 54 -35 99q-47 108 -107 150q-4 4 1 5q32 17 57 38q59 50 70 109q0 5 3 2l198 -52q1 -9 8 -47q4 -27 4 -44q0 -23 -19.5 -73.5t-28.5 -50.5 q-21 0 -21 13q0 2 14 47.5t14 64.5q0 69 -83 69q-22 0 -37.5 -22t-15.5 -45q0 -57 35.5 -113.5t72.5 -56.5q36 0 66 58t30 121t-35 107.5t-92 44.5q-31 0 -61 -15q-3 -1 -3 3q-5 25 -16 44q-25 43 -74 44q-2 0 -3 2q-1 3 1 4q87 74 87 162q0 33 -19 33q-18 0 -27 -12 q-3 0 -5 3q6 24 33 46q35 28 82 28q30 0 64 -14t48 -14q28 0 63 24q4 0 6 -3q-3 -12 -3 -27q0 -54 45 -75q3 -1 3 -4q-1 -2 -4 -2h-33q-13 0 -50.5 -48.5t-70.5 -48.5q-27 0 -44 21q-12 15 -12 27q0 11 12 28q13 21 30 23q4 0 3 -4t-9 -22q-5 -12 -5 -21q0 -15 24 -15 q9 0 26.5 31.5t17.5 48.5q0 22 -31 22q-33 0 -59 -19q-48 -35 -48 -123q0 -47 27 -47q18 0 49 9q38 12 59 29q4 4 4 -1q13 -42 34 -79q52 -89 141 -139q5 -3 1 -6z" />
<glyph unicode="T" horiz-adv-x="520" d="M520 602q-22 -15 -38 -29q-38 -35 -42 -64q13 5 21 5q28 0 28 -28q0 -16 -11 -28q-12 -15 -35 -15q-24 0 -38.5 16t-14.5 38q0 23 15.5 58.5t15.5 51.5q0 38 -62 38q-26 0 -38 -10t-21 -32t-9 -40q0 -42 28 -73q3 -3 -1 -5q-47 -22 -85 -101q-43 -93 -43 -212 q0 -40 18 -73q19 -38 50 -38q32 0 67 65q33 62 33 114q0 73 -31 73q-33 0 -51 -36q-15 -30 -15 -74q0 -32 4 -56.5l4 -24.5q0 -10 -21 -10q-6 0 -18 40q-13 45 -13 84q0 53 16 104q26 10 48 20q53 25 80 47q3 3 5 -1q16 -29 35 -54q46 -62 103 -96q3 -2 0 -5 q-38 -27 -65 -102q-20 -59 -41 -118q-26 -57 -69 -57q-15 0 -49 12t-50 12q-63 0 -132 -20q-4 -2 -4 3q-5 25 -14 44q-22 45 -63 54q-4 1 -1 5q154 173 154 360q0 45 -19 67q-3 4 1 5q82 24 82 97q0 18 -13 18q-26 0 -69 -29q-60 -41 -60 -103q0 -11 2 -22q-1 -2 -5 -2 q-23 25 -23 55q0 17 14 52t14 45q0 27 -26 27q-37 0 -53 -22q-3 -1 -5 3q40 87 151 87q29 0 74 -10.5t72 -10.5q55 0 122 42q5 3 5 -3q3 -28 12 -52q22 -56 73 -80q7 -2 1 -6z" />
<glyph unicode="U" horiz-adv-x="470" d="M466 186q-33 -21 -58 -77q-18 -44 -38 -87.5t-48 -43.5q-16 0 -55 11t-59 11q-40 0 -107 -26q-4 -2 -4 3q-3 36 -13 67q-25 74 -81 106q-3 2 0 5q81 113 81 253q0 48 -7.5 67t-29.5 30q-7 4 0 6q53 20 53 91q0 51 -26 51q-14 0 -30 -11q-3 0 -5 2q3 21 18 40q19 26 51 27 q25 1 39 -5.5t29 -5.5q17 1 37 24q3 4 5 -1q3 -17 -25 -54q-31 -41 -31 -84q0 -31 8 -46q4 -9 23 -27q2 -2 0 -4q-37 -33 -37 -152q0 -107 22 -192q23 -90 55 -90q37 0 72 120t35 237q0 88 -21 146q-32 -32 -59 -104q-24 -66 -24 -107q0 -34 35 -34q14 0 23 51q7 40 7 68 q0 14 11 14q15 0 15 -28q0 -20 -12 -89q-13 -77 -22 -77q-5 0 -34 15q-34 18 -71 24q-2 41 -2 57q0 134 68 240q61 81 121 161q1 2 4 2q2 -1 2 -4q-3 -63 41 -81q3 -1 2 -4q-28 -58 -28 -87q0 -44 52 -70q4 -2 1 -5q-41 -56 -41 -140q0 -109 58 -188q2 -4 0 -5z" />
<glyph unicode="V" horiz-adv-x="512" d="M528 648q4 -3 -1 -6q-87 -46 -87 -105q0 -24 7 -37.5t14 -25.5q1 -2 -2 -4q-36 -13 -77 -110q-45 -106 -45 -213q0 -67 51 -140q3 -3 -1 -5q-8 -4 -14 -10q-13 -15 -14 -38q0 -6 -5 -2q-48 45 -102 45q-43 0 -101.5 -23.5t-81.5 -23.5q-3 0 -3 3q-1 2 2 3q85 27 85 129 q0 106 -17 215q-27 167 -81 171q-6 0 -3 5q28 41 28 78q0 35 -16 68q-19 38 -47 38q-16 0 -33 -12q-3 0 -5 4q24 68 82 68q22 0 48.5 -10t42.5 -10q21 0 37 10q4 2 27 22q5 4 5 -2q0 -20 -35.5 -56.5t-35.5 -73.5q0 -32 16 -51q11 -13 41 -29q3 -2 2 -4q-7 -18 -15 -37 q-7 -22 -7 -56q0 -48 15 -118q17 -82 42 -122q23 52 46 123q36 107 36 159q0 27 -5 35.5t-10 15.5q-3 3 2 5q84 31 84 126q0 26 -10 26q-28 0 -63 -69q-41 -82 -41 -184q0 -43 3 -70q0 -2 -2 -3t-3 1q-38 60 -38 157q0 154 88 264l2 2l2 -2q22 -27 34 -35q28 -18 77 -18 q19 0 55 14q3 0 4 -4q-2 -10 -2 -22q0 -41 25 -56z" />
<glyph unicode="W" horiz-adv-x="654" d="M668 726q1 -23 -41.5 -69.5t-42.5 -84.5q0 -24 11 -40q9 -10 18 -21q3 -3 -1 -5q-41 -19 -77.5 -125.5t-36.5 -208.5q0 -95 55 -130l2 -2q-1 -2 -2 -3q-9 -7 -15 -15q-16 -19 -19 -37q0 -5 -5 -2q-29 18 -64 18q-52 0 -98.5 -25t-54.5 -25q-3 0 -4 2q0 3 3 4 q73 34 73 135q0 81 -46 149q-50 -70 -50 -119q0 -43 42 -83q2 -2 0 -4q-7 -6 -12 -13q-12 -17 -16 -35q0 -4 -4 -2q-33 13 -59 13q-45 0 -95 -21t-60 -21q-3 0 -3 3q-1 2 2 3q92 27 92 166q0 90 -19 184q-31 149 -98 180q-5 3 -1 6q40 27 40 72q0 31 -18 48q-14 12 -33 12 q-22 0 -32 -20q-1 -3 -4 -2q-2 0 -2 3q-1 29 18 59q24 40 69 40q11 0 29.5 -4.5t25.5 -4.5q36 0 66 40q7 7 7 -14q0 -19 -30.5 -53.5t-30.5 -60.5q0 -34 17 -50q6 -5 34 -19q3 -1 1 -5q-18 -29 -18 -70q0 -66 63 -190q12 17 30 47l-30 54q-27 52 -33 78q33 54 123 183 q1 3 4 0q15 -15 81 -71q36 -29 36 -47q0 -26 -20 -84t-33 -58q-18 0 -18 11q0 -2 10.5 36.5t10.5 70.5q0 12 -22.5 28t-37.5 16q-10 0 -29.5 -34.5t-19.5 -49.5q0 -16 46 -74t82 -86q19 36 37 89q25 68 25 104q0 21 -18 61q-2 4 3 4q45 24 45 57q0 36 -26 36q-14 0 -34 -14 q-3 0 -5 4q29 73 83 73q13 0 38 -10t39 -10q22 0 52 35q5 7 5 -2z" />
<glyph unicode="X" horiz-adv-x="452" d="M442 185q-43 -58 -43 -106q0 -28 5 -68t5 -58q0 -40 -26 -110q-32 -86 -75 -116q-3 0 -4 4q45 75 45 171q0 50 -13 81q-10 26 -22 26q-25 0 -59 -15.5t-46 -15.5q-3 0 -4 2q0 3 3 4q39 17 63 59q23 38 23 76q0 63 -71 251q-59 -128 -59 -200q0 -47 15 -75q7 -12 40 -50 q2 -3 0 -4q-7 -6 -13 -14q-14 -17 -20 -37q-2 -5 -5 -2q-21 13 -37 13q-53 0 -103 -31.5t-61 -31.5q-3 0 -4 3q0 2 3 3q30 12 50 46t20 74q0 58 -47 101q-3 3 0 4q109 94 193 269q-31 67 -72 67q-7 0 -15 -2q-3 2 -3 5q28 25 28 55q0 26 -17 55t-37 29q-10 0 -15.5 -5.5 t-11.5 -10.5q-3 0 -5 3q4 78 73 78q10 0 29 -2.5t25 -2.5q30 0 48 33q5 7 6 0q4 -19 -19 -55q-26 -39 -26 -59q0 -47 44 -53q5 0 2 -5q-13 -15 -13 -30q0 -7 9 -33q57 119 57 142q0 22 -13 22q-19 0 -32 -14q-1 -2 -3 -1t-2 3q3 20 17 41q21 29 52 29q10 0 33.5 -11.5 t38.5 -11.5q25 0 54 29q5 5 5 -2q0 -31 -34 -62q-42 -39 -71 -85q-25 -41 -75 -149q86 -185 190 -245q3 -2 0 -5z" />
<glyph unicode="Y" horiz-adv-x="526" d="M553 716q0 -33 -57.5 -84.5t-57.5 -81.5q0 -18 11 -28.5t23 -20.5q2 -2 0 -4q-24 -28 -47 -55q-29 -44 -29 -105q0 -51 23 -121q30 -92 84 -140q3 -3 -1 -5q-14 -8 -25 -18q-26 -25 -34 -57q-2 -3 -4 -2q-28 8 -55 8q-21 0 -84.5 -15.5t-82.5 -15.5q-75 0 -109 60 q-5 9 -43 125q-25 79 -74 108q-7 4 1 6q51 15 76 33q39 29 39 80q0 16 -6 43q1 3 5 4q50 -31 80 -41q11 -4 46 -13q18 -5 26 -12q12 -10 27.5 -65.5t15.5 -94.5q0 -78 -22 -78q-14 0 -14 37q0 44 -13 89q-21 74 -65 74q-41 0 -41 -59q0 -61 41 -132q44 -78 94 -78 q24 0 38 47q11 38 11 84q0 83 -59 193q-58 106 -94 106q-29 0 -39 -2q-3 -1 -4 2t2 4q33 23 33 75q0 38 -21 63t-45 25t-47 -16q-3 0 -5 4q24 76 100 76q19 0 43.5 -9.5t41.5 -9.5q23 0 37 8q6 4 26 22q4 3 5 -1q3 -14 -23 -58q-29 -47 -29 -84q0 -63 64 -130q68 117 68 155 q0 35 -26 35q-25 0 -43 -18q-3 0 -5 3q26 83 96 83q13 0 37.5 -10t43.5 -10q23 0 36 10q4 2 24 24q3 4 4.5 -1.5t1.5 -10.5z" />
<glyph unicode="Z" horiz-adv-x="488" d="M491 220q-40 -24 -61 -90q-16 -52 -31 -105q-20 -51 -62 -51q-16 0 -58 12t-80 12q-97 0 -199 -41q-3 -1 -5 2q-1 3 2 4q66 43 66 107q0 56 -48 117q-4 4 1 5q61 20 141 123q84 107 84 179q0 23 -16 47q-3 5 2 5q50 3 77 50q18 32 18 58q0 5 -31 5q-74 0 -108 -37 q-11 -12 -20 -53q-10 -46 -21 -63q-19 -31 -57 -31q-44 0 -44 41q0 38 35 38q25 0 28 -24q17 10 17 53q0 72 -44 72q-10 0 -27 -9q-3 1 -3 5q18 24 61 43q56 24 124 24q15 0 57 -7t71 -7q64 0 123 46q3 0 5 -2q-2 -43 -60.5 -86t-58.5 -84q0 -28 22 -56q4 -4 -1 -5 q-53 -14 -131 -150q-81 -139 -81 -230q0 -33 14.5 -56.5t37.5 -23.5q29 0 61 49q38 56 38 131q0 21 -8 35q-25 2 -37 -3q-42 -63 -42 -133q0 -13 -21 -13q-14 0 -14 43q0 27 18 81q23 74 60 104q73 0 115 31q5 4 5 -2q-3 -25 -3 -34q0 -72 88 -120q5 -3 1 -6z" />
<glyph unicode="[" horiz-adv-x="253" d="M238 -59q3 -1 3 -5q-1 -3 -4 -2q-24 0 -66.5 9t-62.5 9q-31 0 -58 -9q-5 -5 -5 1q-2 17 -17 27q-1 1 -1 2q0 2 1 4q47 58 48 223q1 105 -37 146q-2 2 0 4q38 40 37 145q0 70 -6 108q-10 77 -41 116q-1 1 -1 3t1 3q8 5 18 27q2 5 5 1q28 -10 56 -10q20 0 62.5 9t66.5 9 q3 1 4 -2q0 -4 -3 -5q-58 -25 -78 -79q-23 -62 -21 -211q1 -70 39 -112q1 -2 1 -5q0 -2 -1 -4q-38 -42 -39 -112q-2 -149 21 -211q20 -54 78 -79z" />
<glyph unicode="\" horiz-adv-x="393" d="M403 26q4 -4 -2 -6q-81 5 -139 -50q-3 -1 -5 2q1 50 -14 128t-37 137q-30 81 -78 101q-2 1 -2 4q10 31 10 61q0 35 -14 73q-18 48 -34 86q-41 90 -70 111q-8 6 0 6q39 2 110 40q4 1 5 -2q-1 -8 -1 -18q0 -68 49 -202q26 -70 86 -104q2 0 2 -3q-15 -26 -15 -55 q0 -33 18 -81q23 -63 60 -129q40 -72 71 -99z" />
<glyph unicode="]" horiz-adv-x="253" d="M219 -29q-7 -5 -17 -27q0 -6 -5 -1q-27 9 -58 9q-20 0 -62.5 -9t-66.5 -9q-3 -1 -4 2q0 4 3 5q58 25 78 79q23 62 21 211q-1 70 -39 112q-1 2 -1 4q0 3 1 5q38 42 39 112q2 149 -21 211q-20 54 -78 79q-3 1 -3 5q1 3 4 2q24 0 66.5 -9t62.5 -9q28 0 56 10q4 4 5 -1 q3 -16 18 -27q1 -1 2 -3q-1 -2 -2 -3q-46 -57 -47 -224q-1 -105 37 -145q2 -2 0 -4q-38 -41 -37 -146q0 -69 6 -107q10 -77 42 -116l2 -4z" />
<glyph unicode="^" horiz-adv-x="270" d="M252 729q0 -3 -3 -6q-3 -2 -5 0q-37 25 -107 64q-7 -3 -107 -65q-2 -2 -5 1t-3 6q34 45 83 114q2 4 8 2q24 -7 49 0q3 1 6 -2q9 -12 84 -114z" />
<glyph unicode="_" horiz-adv-x="563" d="M580 -53q-9 -35 -3 -56q1 -4 -3 -4q-145 8 -302 8t-284 -9q-2 0 -3 3q6 14 6 29t-6 27q-1 4 3 4q134 -12 293 -12q156 0 296 13q5 0 3 -3z" />
<glyph unicode="`" horiz-adv-x="192" d="M168 729q0 -9 -5 -4q-109 73 -127 70q-2 0 -5 7q3 9 3 21q0 24 -13 44q-2 2 -1 4q2 2 6 1q31 -19 66 -10q6 -1 6 -6q-3 -11 26 -57z" />
<glyph unicode="a" horiz-adv-x="418" d="M407 40q3 -3 -1 -5q-10 -5 -17 -12q-19 -17 -23 -43q-1 -5 -5 -1q-32 32 -80 32q-31 0 -80 -19.5t-64 -19.5q-29 0 -52 38l-38 74q-25 42 -57 50q-3 1 -3 3q1 2 4 3q39 5 68 59q39 74 64 96q18 16 48.5 35t38.5 19q7 0 31.5 -21t37.5 -38q0 36 -23 46q-5 3 -1 6 q25 18 25 44q0 23 -12 44q-15 26 -42 26q-38 0 -68 -28q-39 -37 -51 -113q-1 -3 -3 -4q-2 0 -3 3q-11 42 -11 59q0 32 17 69.5t17 39.5q0 14 -16 14q-14 0 -25 -8q-3 0 -4 3q21 50 89 50q21 0 52 -5.5t44 -5.5q35 0 82 32q3 1 5 -3q-14 -70 -14 -81q0 -105 64 -140 q4 -2 1 -5q-42 -47 -42 -141q0 -100 47 -152zM269 123q-12 -13 -30.5 -25t-24.5 -12t-11.5 8.5t-5.5 13.5q0 -3 32 38.5t32 70.5q0 7 -24 28.5t-31 21.5q-14 0 -42 -38q-31 -41 -31 -67q0 -35 29 -71t65 -36q39 0 42 68z" />
<glyph unicode="b" horiz-adv-x="419" d="M420 192q-33 -28 -59 -88q-35 -82 -41 -91q-27 -42 -70 -42q-28 0 -73 14.5t-65 14.5q-34 0 -85 -20t-64 -20q-3 0 -3 2q-1 3 2 4q99 50 99 294q0 58 -47 77q-4 2 -1 5q30 24 42 52q17 39 14 108q0 48 -1 96q-2 53 -22 53q-12 0 -26 -10q-3 0 -5 3q23 63 67 63 q22 0 34.5 -3t23.5 -3q19 0 45 20q3 1 5 -3q-7 -33 -25 -60t-25 -55q-12 -50 -12 -157q0 -19 1 -27q52 79 64 132q2 3 4 2q26 -13 57 -13q32 0 60 15q4 2 4 -3q7 -80 20 -145q30 -156 82 -211q2 -2 0 -4zM287 279q0 57 -15.5 111.5t-31.5 54.5q-14 0 -51 -63 q-35 -59 -35 -70q0 -38 18 -82q12 -30 32 -64l18 -29q0 -5 -9 -12.5t-16 -7.5q-8 0 -53 52q4 -34 16 -64q16 -37 37 -37q34 0 63 77q27 70 27 134z" />
<glyph unicode="c" horiz-adv-x="432" d="M436 145q-41 -36 -65 -80l-28 -58q-14 -22 -40 -22q-14 0 -50.5 6t-49.5 6q-37 0 -88 -20q-4 -2 -4 3q-3 40 -14 70q-28 72 -97 86q-6 2 -1 5q65 50 65 130q0 38 -32 55q-7 5 0 6q36 7 72.5 54.5t36.5 97.5q0 7 -5 7q-18 0 -31 -13q-3 0 -5 3q34 68 99 68q24 0 48.5 -7 t34.5 -7q32 0 61 19q4 0 5 -4q-11 -27 -11 -39t10 -30q13 -22 30 -29q3 -1 2 -4q-11 -30 -28 -54q-39 -56 -97 -68q-3 2 -3 5q44 43 44 93q0 62 -36 62q-27 0 -55.5 -37t-28.5 -83q0 -24 25 -52q3 -3 -1 -5q-47 -23 -47 -86q0 -40 30 -100.5t50 -60.5t44.5 42t24.5 78 q0 44 -16 44q-12 0 -26 -10q-17 -13 -17 -32q0 -18 4 -41t4 -24q0 -14 -15 -14q-10 0 -23 41q-14 45 -14 90q0 13 30 23l50 16q17 7 58 33q4 2 5 -2q7 -27 19 -53q29 -61 76 -104q3 -3 0 -4z" />
<glyph unicode="d" horiz-adv-x="439" d="M437 33q-18 -10 -41 -42q-44 18 -78 59q-7 -22 -26.5 -40t-43.5 -19q-17 -1 -48 4q-34 6 -48 6q-27 0 -45 -12q-10 -2 -10 7q-3 23 -19 65q-24 62 -83 113q9 12 25 38q52 105 77 173q19 50 38 153l3 3q30 -9 57 -9q35 0 56 16q5 0 13 -16q6 -24 52 -98h2q13 117 0 194 q-4 22 -22 31q-14 7 -25 1q-2 -1 -7 -7.5t-9 -6.5q-2 0 -4 1q13 40 39 56q11 7 25 7q10 0 30 -5t30 -5q16 0 28 8l21 20q5 -13 0 -24q-48 -97 -51 -174q-2 -47 -2 -55q0 -84 43 -118q4 -3 9 -7.5t4 -9.5q-12 -15 -31 -45q-17 -44 -17 -96q0 -84 42 -144q1 -1 10 -11 q6 -6 6 -11zM296 201l-25 -24q-1 0 -21 -15q-12 -9 -23 -9q-10 4 -12 22q31 31 50 65q21 54 21 70q-30 93 -73 139q-9 6 -13 0q-84 -117 -84 -203q0 -51 27 -96.5t73 -68.5q14 -3 26 4q42 34 54 116z" />
<glyph unicode="e" horiz-adv-x="430" d="M431 152q-40 -30 -63 -75q-14 -31 -29 -63q-16 -27 -47 -27q-21 0 -56 9t-58 9q-49 0 -105 -23q5 58 5 60q0 34 -16 90q-24 85 -68 123q41 28 80.5 98.5t39.5 116.5q0 24 -13 24q-17 0 -27 -12q9 27 34 47q31 24 73 24q28 0 51 -7.5t32 -7.5q38 0 78 20q-7 -54 -7 -60 q0 -54 45 -86q-28 -29 -27 -57q-38 -7 -70 -18q-77 -28 -115 -73q-3 12 -7 22q-11 23 -26 31q-7 -23 -7 -43q0 -45 27 -117q30 -81 61 -81q34 0 69.5 40.5t35.5 79.5q0 17 -8 52q-44 -4 -76.5 -31t-29.5 -27q-6 0 -11 8.5t-5 14.5q0 16 51 49q58 36 123 51q10 2 10 -13 q0 -97 56 -148zM268 425q0 23 -13.5 39.5t-30.5 16.5q-31 0 -65 -88l26 -39q47 14 65 28.5t18 42.5z" />
<glyph unicode="f" horiz-adv-x="311" d="M371 617q-31 -48 -61 -97q-45 -65 -87 -65q-44 0 -44 107q0 18 17 18q6 0 16 -34.5t21 -34.5q12 0 25 29q12 26 12 43q0 19 -14 37q-17 21 -40 21q-27 0 -42 -31t-15 -78q0 -100 21 -100q118 0 155 75q1 3 4 3q2 -1 2 -4q-3 -29 -36 -74q-44 -62 -56 -86 q-30 -58 -29 -123q0 -3 -4 -3t-5 3q-1 10 -1 22q0 22 4.5 56.5t4.5 37.5q0 31 -31 31q-15 0 -18 -17q-1 -7 -1 -58q0 -218 80 -267l2 -2q-1 -2 -2 -3q-8 -7 -14 -14q-14 -18 -17 -35q0 -7 -5 -2q-30 22 -74 22q-43 0 -88 -25t-56 -25q-3 0 -3 2t2 4q97 51 97 279 q0 126 -81 140q-3 1 -3 3t3 3q87 42 87 164q0 75 -22 75q-15 0 -30 -15q-5 -5 -5 2q4 49 52 81q18 12 52 18q40 7 59 16q35 17 67 58q5 6 5 -2q4 -33 14 -60q25 -65 81 -90q4 -2 1 -5z" />
<glyph unicode="g" horiz-adv-x="400" d="M405 -49q-40 -29 -85 -92q-31 -43 -64 -43q-12 0 -36.5 5.5t-37.5 5.5q-40 0 -81 -19q-2 -1 -4 2q-7 23 -21 44q-31 51 -87 86q-2 1 0 5q34 46 85 78q62 38 128 38q14 0 32 -45q15 -40 15 -53q0 -9 -19 -9q-2 0 -15 28.5t-25 28.5q-17 0 -50 -12.5t-33 -22.5 q0 -15 29 -53q31 -41 53 -41q20 0 51.5 45t31.5 70q0 19 -16 51t-25 32q-34 0 -81 -12q-53 -13 -75 -30q-3 -3 -5 1q-5 14 -13 25q-17 28 -40 41q-6 4 1 6q25 10 45 21q48 26 61 55q-18 28 -30 43q-34 41 -77 66q-5 3 0 6q36 18 75 75q45 64 45 114q0 22 -17 22 q-10 0 -21 -8q-3 0 -5 4q27 54 80 54q21 0 49 -10.5t51 -10.5q84 0 85 65q0 3 3 3q2 1 3 -2q5 -17 5 -31q0 -30 -27 -64.5t-27 -58.5q0 -80 80 -141q3 -3 0 -5q-39 -23 -63 -61q-16 -27 -31 -55q-17 -24 -44 -24q-3 0 -13 1t-16 1q-39 0 -62 -36q84 -4 167 40q3 -1 3 -5 q-21 -34 -21 -66q0 -28 24 -69q26 -46 65 -79l2 -2zM276 341q0 32 -25 86q-23 50 -30 50q-10 0 -43 -62t-33 -82q0 -18 32.5 -56t43.5 -38q10 0 31 33q24 38 24 69z" />
<glyph unicode="h" horiz-adv-x="426" d="M424 211q2 -1 -1 -4q-37 -55 -51 -152q-20 -143 -24 -157q-22 -84 -85 -130q-3 0 -4 4q50 69 50 167q0 62 -24 62q-6 0 -43 -18t-50 -18q-3 0 -4 2q0 3 3 4q39 18 69 76q39 76 39 186q0 81 -25 158q-21 68 -34 68q-11 0 -51.5 -59.5t-40.5 -79.5q0 -31 36.5 -106.5 l36.5 -75.5q0 -9 -6.5 -16.5t-12.5 -7.5q-5 0 -30.5 31.5t-41.5 59.5q0 -121 65 -177q3 -3 -1 -5q-7 -4 -13 -10q-13 -12 -15 -28q0 -5 -5 -2q-20 12 -50 12q-43 0 -84.5 -23.5t-49.5 -23.5q-3 0 -4 2q0 3 2 4q81 48 81 273q0 79 -40 108q-3 3 0 5q36 21 45 90q3 23 3 109 q0 58 -1 71q-5 43 -25 43q-13 0 -29 -14q-5 -3 -5 2q3 22 19 41q21 26 51 26q25 0 43.5 -5.5t26.5 -5.5q14 0 36 20q4 3 5 -1q3 -12 -12 -38q-23 -37 -33 -68q-19 -57 -19 -137q0 -53 -1 -66q66 82 88 145q2 5 5 2q20 -12 46 -12q29 0 58 17q5 3 5 -3q4 -61 15 -118 q28 -136 87 -227z" />
<glyph unicode="i" horiz-adv-x="228" d="M187 628q-31 -2 -42 -27q-2 -4 -10 -43q0 -4 -6 -4t-6 4l-8 44q-10 24 -42 26q-5 0 -5 6t5 6q31 2 41 27q4 22 9 44q1 3 6 3t6 -3l10 -44q10 -26 42 -27q7 0 7 -6t-7 -6zM230 22q-9 -6 -15 -12q-15 -15 -18 -30q-2 -5 -5 -2q-33 21 -75 21q-35 0 -84 -22.5t-58 -22.5 q-3 0 -4 3q0 2 3 3q46 18 74 84q31 72 27 177q-3 83 -42 105q-4 2 -1 5q53 41 53 100q0 30 -9 47t-20 17q-16 0 -30 -12q-3 0 -5 3q19 64 74 64q13 0 31 -5t33 -5q25 0 51 25q3 3 5 -1q3 -7 3 -14q0 -16 -33.5 -56.5t-33.5 -73.5q0 -56 46 -80q5 -4 1 -6q-39 -22 -39 -112 q0 -130 71 -195q4 -3 0 -5z" />
<glyph unicode="j" horiz-adv-x="256" d="M191 628q-31 -2 -42 -27q-2 -4 -10 -43q0 -4 -6 -4t-6 4l-8 44q-10 24 -42 26q-5 0 -5 6t5 6q31 2 41 27q4 22 9 44q1 3 6 3t6 -3l10 -44q10 -26 42 -27q7 0 7 -6t-7 -6zM287 27q-32 -30 -51 -96q-27 -91 -31 -99q-22 -46 -67 -46q-18 0 -45 6t-36 6q-34 0 -73 -16 q-4 -2 -4 3q-6 29 -17 55q-25 62 -67 96l-2 2l2 2q23 19 41 40q43 51 53 102q1 4 5 1q14 -13 72.5 -35t60.5 -25t2 -10q0 -29 -11 -74q-12 -51 -27 -51q-18 0 -18 11l5.5 21.5t5.5 34.5q0 23 -17 39t-37 16q-18 0 -18 -34q0 -29 23 -73t43 -44q31 0 55 50q21 45 21 88 q0 37 -31 77.5t-71 57.5q-4 2 -1 5q39 59 39 122q0 35 -39 74q-2 2 0 4q41 50 41 131q0 34 -23 34q-10 0 -28 -15q-1 -1 -3 -1q-3 0 -2 4q22 59 73 59q15 0 35 -7.5t30 -7.5q22 0 46 21q5 4 5 -2q2 -21 -27.5 -55t-29.5 -74q0 -62 39 -84q3 -2 0 -5q-31 -24 -31 -84 q0 -173 109 -219q4 -2 1 -5z" />
<glyph unicode="k" horiz-adv-x="432" d="M436 599q3 -42 -57 -95q-95 -82 -133 -133q24 -55 46 -92q55 -90 124 -133q2 -1 1 -4q-23 -43 -23 -104q0 -108 -24 -174q-26 -70 -90 -125q-3 0 -4 4q59 90 59 196q0 74 -33 74q-18 0 -60 -24t-49 -24q-3 0 -4 2q0 2 2 4q84 58 84 163q0 34 -20 87q-25 64 -62 101 q-37 -37 -55 -74q0 -43 8 -90q13 -87 46 -118q2 -2 0 -4q-6 -6 -10 -13q-11 -16 -12 -32q0 -4 -4 -3q-31 12 -49 12q-53 0 -104.5 -24t-58.5 -24q-3 0 -4 2q0 3 3 4q45 22 75 81q35 69 35 164q0 84 -44 115q-3 1 0 4q31 32 40 57q15 44 15 151q0 73 -2 91q-5 37 -25 37 t-36 -16q-3 -1 -5 3q5 23 21 43q21 28 51 28q23 0 45 -7.5t30 -7.5q30 0 49 23q3 0 5 -2q0 -29 -19 -50q-28 -30 -34 -41q-18 -35 -18 -100q0 -96 3 -186q126 105 126 161q0 13 -14 13q-19 0 -41 -18q-3 0 -5 3q30 66 79 66q15 0 34.5 -6.5t35.5 -6.5q41 0 77 44q4 7 5 -2z " />
<glyph unicode="l" horiz-adv-x="208" d="M213 37q-25 -26 -24 -50q0 -2 -4 -3q-62 17 -81 17q-38 0 -86 -24t-51 -24q-9 0 -2 5q104 75 104 267q0 86 -37 122q-2 2 0 4q47 46 47 164q0 131 -35 131q-13 0 -34 -19q-3 -1 -5 3q17 78 71 78q26 0 42.5 -3.5t26.5 -3.5q17 0 48 31q3 0 5 -2q-1 -26 -17 -47 q-22 -29 -29 -46q-15 -39 -15 -111q0 -59 3 -77q8 -62 41 -93q2 -2 0 -4q-34 -37 -34 -122q0 -40 14 -87q18 -63 52 -102q2 -2 0 -4z" />
<glyph unicode="m" horiz-adv-x="600" d="M597 288q-38 -59 -38 -139q0 -1 1 -22t1 -39q0 -207 -108 -278q-3 -1 -5 1q-1 2 1 4q21 26 36.5 70.5t15.5 84.5q0 44 -34 44q-15 0 -41 -15.5t-35 -17.5q-3 1 -3 5q33 22 56 85q26 75 26 180q0 104 -31 193q-23 -29 -43 -73q-18 -38 -18 -49q0 -38 28 -107.5t28 -66.5 q0 -6 -9.5 -12.5t-16.5 -6.5q-14 0 -52 76q-4 -116 40 -162q3 -3 0 -5q-8 -5 -13 -11q-14 -14 -16 -28q0 -5 -4 -3q-28 12 -46 12q-40 0 -106 -41q-3 -1 -5 1q-1 2 1 4q76 91 76 222q0 141 -46 239q-31 -30 -53 -65.5t-22 -49.5q0 -43 28.5 -97.5t28.5 -51.5 q0 -7 -8.5 -15.5t-14.5 -8.5q-12 0 -60 72q4 -150 61 -191q4 -3 -1 -5q-8 -4 -13 -9q-14 -11 -17 -24q0 -4 -4 -2q-47 12 -62 12q-26 0 -64 -17.5t-50 -17.5q-3 0 -4 2t2 4q34 20 59.5 91t25.5 146q0 60 -40 100q-2 2 0 4q24 25 30 39q11 27 11 84t-29 57q-20 0 -34 -14 q-5 -5 -5 2q3 22 23.5 44.5t42.5 22.5q12 0 26.5 -3.5t22.5 -3.5q28 0 41 27q5 7 6 0t1 -14q0 -15 -17.5 -47.5t-17.5 -71.5v-28q57 57 84 153q2 3 4 2q22 -10 46 -10q20 0 36 8q4 2 4 -2q9 -46 35 -141q50 77 67 141q2 3 4 2q34 -16 64 -16q20 0 34 8q4 1 4 -3 q2 -53 11 -98q22 -107 74 -156q2 -2 0 -4z" />
<glyph unicode="n" horiz-adv-x="442" d="M437 244q-37 -53 -52 -158q-23 -166 -24 -170q-22 -91 -80 -129q-3 -2 -5 0t0 5q44 67 44 142q0 33 -12 52t-27 18t-40 -13.5t-32 -14.5q-3 -1 -5 2q-1 3 2 4q37 24 64 83q33 74 33 176q0 48 -12 102q-16 75 -49 112q-25 -20 -56 -59.5t-31 -49.5q0 -39 23 -87 q15 -34 41 -72l23 -33q0 -6 -8.5 -15t-13.5 -9q-6 0 -34 24q-33 29 -51 60q-4 -118 62 -189q3 -3 -1 -5q-7 -4 -13 -9q-14 -12 -18 -28q-1 -5 -5 -1q-26 16 -49 16q-26 0 -68 -18.5t-54 -18.5q-3 0 -3 2q-1 3 2 4q81 41 81 242q0 36 -13 71q-14 41 -40 59q-3 4 1 5 q52 29 52 102q0 50 -27 50q-15 0 -32 -15q-3 0 -5 3q5 21 21 41.5t34 20.5q14 0 28 -5t23 -5q23 0 50 25q5 4 5 -2q1 -18 -22.5 -58t-23.5 -95q0 -12 33 42q36 58 55 112q1 4 5 2q35 -20 69 -20q20 0 36 8q4 2 4 -3q6 -58 19 -109q32 -123 96 -190q2 -2 0 -4z" />
<glyph unicode="o" horiz-adv-x="444" d="M445 215q-39 -32 -66 -97l-38 -96q-22 -44 -56 -44q-15 0 -44.5 10t-42.5 10q-58 0 -109 -23q-4 -2 -4 3q-5 48 -15 91q-25 102 -72 159v4q40 33 83 114.5t43 129.5q0 22 -7 22q-10 0 -22 -12q-5 -3 -5 2q3 24 25 46q26 25 60 25q22 0 51 -9t44 -9q40 0 75 45q3 0 5 -3 q-16 -59 -16 -92q0 -47 23 -119q32 -98 88 -153q3 -3 0 -4zM289 259q0 99 -26 165q-21 53 -40 53t-46 -60q-33 -74 -33 -167q0 -49 18 -106q21 -67 50 -67q36 0 59 72q18 57 18 110zM263 269q-25 -2 -34 -23q-4 -8 -8 -37q0 -3 -5 -3t-5 3q-6 37 -7 38q-8 20 -35 22 q-4 0 -4 5t4 5q26 2 34 23q4 19 8 37q1 3 5 3t5 -3q7 -37 8 -37q8 -22 34 -23q6 0 6 -5q0 -4 -6 -5z" />
<glyph unicode="p" horiz-adv-x="404" d="M412 214q-39 -28 -66 -89q-37 -83 -43 -91q-29 -43 -84 -44q-49 -1 -100 56q-5 -150 56 -208q3 -3 0 -4q-27 -23 -24 -44q0 -4 -4 -3q-37 17 -70 17q-34 0 -67.5 -17.5t-44.5 -17.5q-3 0 -4 2t2 4q39 22 64 118q30 110 27 274q-2 97 -42 145q-3 3 1 5q51 32 49 134 q-1 41 -17 40q-12 0 -30 -18q-5 -5 -5 2q3 27 17 48q16 26 39 26q18 -1 54 -2q15 0 38 23q3 0 5 -2q-1 -23 -22.5 -59.5t-21.5 -86.5q49 57 77 130q2 3 4 2q27 -12 56 -12q31 0 56 15q5 3 5 -3q2 -74 12 -134q24 -146 83 -202q3 -3 0 -4zM276 279q0 46 -14 106 q-14 65 -28 65q-15 0 -46.5 -56t-30.5 -93q1 -39 24.5 -85t23.5 -44q0 -8 -7.5 -14.5t-16.5 -6.5q-10 -1 -56 75q3 -54 22 -98q19 -48 43 -47q35 1 63 79q23 67 23 119z" />
<glyph unicode="q" horiz-adv-x="447" d="M439 -189q-9 -6 -15 -13q-16 -18 -17 -38q0 -5 -4 -3q-32 17 -54 17q-34 0 -78 -17q-49 -20 -52 -20q-3 -1 -3 2q-1 2 2 4q47 27 74 133q22 88 23 191q-16 -23 -33 -46q-24 -30 -55 -30q-13 0 -43.5 5t-35.5 5q-26 0 -57 -14q-4 -1 -4 3q-3 35 -12 67q-23 76 -76 121 q-3 1 0 4q33 44 60 95q65 125 87 269q0 6 3 3q26 -8 53 -8q37 0 62 16q3 2 5 -3q5 -29 13 -55q18 -61 45 -95q4 99 -10 99q-12 0 -23 -9q-3 -1 -5 3q4 20 18.5 41.5t29.5 21.5h38q23 4 40 24q4 4 5 -1q2 -9 2 -18q0 -15 -19 -60t-19 -101q0 -65 45 -110q2 -2 0 -4 q-48 -59 -48 -228q0 -166 58 -246q2 -4 0 -5zM294 194q-17 -19 -42 -37t-30 -18q-6 0 -11.5 10t-5.5 17q0 -3 33.5 43.5t33.5 86.5q0 42 -23 95q-21 50 -33 50q-26 0 -56 -88q-28 -80 -28 -126q0 -60 32 -108q26 -39 45 -39q16 0 46 35q34 39 39 79z" />
<glyph unicode="r" horiz-adv-x="367" d="M407 447q4 -3 -1 -6q-35 -18 -56 -56q-14 -30 -29 -58.5t-47 -28.5q-26 0 -49 24q-20 21 -20 32q0 10 12 34q15 28 31 41q3 1 5 -3q-13 -45 -13 -60q0 -10 20 -10q6 0 17.5 29t11.5 58q0 34 -17 34q-18 0 -62.5 -45t-44.5 -70q0 -17 24 -30q4 -2 1 -5q-42 -34 -42 -130 q0 -97 67 -165q3 -4 -1 -5q-10 -5 -18 -11q-18 -14 -21 -30q-1 -5 -4 -2q-39 22 -67 22q-31 0 -69 -19.5t-50 -19.5q-3 0 -3 2q0 3 2 4q84 48 84 227q0 97 -48 125q-4 2 -1 5q49 37 49 107q0 61 -26 61q-12 0 -27 -12q-3 0 -5 3q18 60 62 60q18 0 34.5 -7t23.5 -7 q11 0 24.5 12t19.5 26q5 7 6 0q1 -5 1 -11q0 -18 -23 -59.5t-24 -71.5q61 50 101 143q2 4 5 1q25 -29 59 -29q26 0 53 20q5 4 5 -2q1 -25 6 -46q13 -50 44 -71z" />
<glyph unicode="s" horiz-adv-x="417" d="M424 195q-31 -27 -50 -88q-24 -78 -30 -89q-23 -41 -71 -41q-16 0 -52.5 7.5t-44.5 7.5q-42 0 -90 -26q-3 1 -4 5q10 28 10 43q0 34 -28 69q-31 39 -79 52q-6 2 0 6q65 28 65 106q0 47 -15 76q1 4 4 5q213 -108 213 -150q0 -14 -13 -49.5t-21 -35.5q-18 0 -18 11 q0 1 7 21t7 32q0 17 -37 38q-33 18 -43 18q-9 0 -9 -4q0 -44 34 -96t64 -52q11 0 30 32q22 38 22 85q0 28 -64 104q-69 82 -115 82q-13 0 -31 -2q-2 0 -3 2t1 3q54 41 54 76q0 42 -25 42q-11 0 -31 -9q-4 1 -5 5q39 73 100 73q21 0 43 -4t30 -4q33 0 68 37q5 5 5 -2 q-3 -103 72 -137q7 -2 1 -6q-14 -9 -28 -23q-35 -32 -66 -78q-72 39 -72 53q10 24 35 64q3 1 5 -3q-5 -20 -5 -52q0 -9 14 -9q4 0 11.5 15.5t7.5 22.5q0 25 -13 43q-16 21 -43 21q-38 0 -38 -60q0 -30 30 -65q15 -18 65 -64q53 -49 69 -61q36 -28 76 -42q5 -2 1 -5z" />
<glyph unicode="t" horiz-adv-x="381" d="M400 151q-39 -30 -62 -76q-32 -62 -33 -62q-19 -26 -60 -26q-7 0 -49 8t-53 8q-35 0 -81 -23q-3 1 -3 5q24 23 24 52q0 22 -21 61q-26 48 -59 58q-6 2 0 6q70 37 70 143q0 64 -56 99q-4 3 1 6q77 42 77 121q0 42 -26 42q-21 0 -37 -22q-3 0 -5 3q16 43 61 65q37 17 75 33 q39 24 46 74q1 3 3 3q2 1 3 -2q5 -18 5 -36q0 -37 -26.5 -93t-26.5 -80q0 -56 60 -56q79 0 111 51q1 3 4 1q3 -1 2 -4q-13 -43 -75 -108q-58 -62 -69 -108q-1 -3 -3 -3q-2 1 -3 4q-3 14 3 42q7 32 7 35q0 23 -15 23q-19 0 -33 -29q-16 -33 -16 -87q0 -64 30 -135 q27 -65 44 -65q13 0 39 38t26 60q0 40 -17 40q-21 0 -30 -12q-4 -6 -3 -27q3 -34 3 -25q0 -15 -24 -15q-6 0 -12 34.5t-6 72.5q0 8 21 16t42.5 15.5t55.5 31.5q5 3 5 -2q5 -28 15 -53q24 -61 71 -98l2 -2z" />
<glyph unicode="u" horiz-adv-x="421" d="M407 251q-52 -53 -52 -104q0 -39 12 -62q10 -19 39 -47q3 -3 -1 -5q-9 -5 -16 -11q-16 -16 -20 -36q-16 3 -31 11q-35 18 -56 54q-35 -62 -64 -62q-14 0 -35 3.5t-30 3.5q-30 0 -68 -13q-4 -2 -4 3q0 36 -8 70q-20 82 -77 141q-2 2 0 4q39 60 51 90q23 58 23 138 q0 74 -23 74q-13 0 -25 -13q-2 -2 -4 -1t-1 4q4 20 17 37q18 22 42 22q19 0 37 -4.5t23 -4.5q26 0 53 24q3 0 5 -2q0 -28 -18 -56q-23 -37 -32 -67q-17 -60 -17 -167q0 -97 22 -144q15 -33 34 -33q30 0 50 30q22 34 22 97q0 9 -28 72.5t-28 65.5q0 5 10 14.5t14 9.5 q3 0 23.5 -28.5t32.5 -51.5q2 52 -1 106q-7 85 -29 85q-16 0 -34 -7q-3 1 -4 4q29 56 69 56q13 0 31.5 -6t23.5 -6q29 0 55 37q3 5 5 -1q2 -9 2 -17q0 -16 -27 -63t-27 -109q0 -90 64 -130l2 -2q-1 -2 -2 -3z" />
<glyph unicode="v" horiz-adv-x="437" d="M475 559q-5 -22 -57 -89q-49 -63 -49 -96q0 -22 19 -50q3 -3 -2 -5q-26 -12 -54 -67q-34 -63 -34 -127q0 -71 53 -101q5 -3 0 -6q-9 -6 -17 -13q-18 -17 -23 -33q-1 -5 -5 -1q-38 25 -75 25t-79 -15.5t-54 -15.5q-3 0 -3 2q-1 3 2 4q52 31 52 95q0 48 -22 110 q-32 89 -91 111q-4 2 -1 5q34 34 34 85q0 27 -10 61q-15 47 -39 47q-15 0 -34 -17q-5 -4 -5 2q-1 24 17.5 50.5t44.5 26.5q21 0 33.5 -3t16.5 -3q11 0 29.5 10.5t29.5 24.5q5 6 5 -2q2 -21 -15 -56q-19 -38 -19 -71q0 -74 56 -95q3 -2 2 -4q-7 -17 -7 -42q0 -63 45 -132 q37 70 37 133q0 25 -7 44q-1 2 2 4q75 45 75 132q0 28 -9 28q-6 0 -38 -17t-37 -25q-10 -17 -10 -61q0 -17 1.5 -39.5l1.5 -22.5q0 -12 -23 -12q-6 0 -13 44q-9 51 -9 114q0 14 13 25q8 7 45 29.5t64 47.5q2 2 4 0q52 -49 102 -49q26 0 53 14q3 0 4 -4z" />
<glyph unicode="w" horiz-adv-x="588" d="M592 564q-2 -22 -20 -49q-26 -37 -32 -51q-17 -37 -17 -88q0 -48 12 -76q10 -21 38 -52q2 -2 0 -4q-35 -41 -56 -97q-16 -43 -16 -67t16 -57q1 -2 -2 -4q-9 -4 -17 -11q-18 -14 -22 -35q0 -4 -4 -2q-63 25 -87 25q-40 0 -76 -23q-3 -1 -5 0q-1 2 0 5q19 32 19 48 q0 10 -45 89q-19 -19 -39 -80q-16 -47 -40 -47q-19 0 -41.5 7t-30.5 7q-11 0 -31 -8q-30 -12 -34 -13q-3 0 -4 4q21 41 21 70q0 31 -19 84q-23 63 -53 89q-2 2 0 4q57 92 57 188q0 76 -31 76q-9 0 -21 -7l-12 -8q-2 0 -4 4q20 66 66 66q14 0 32.5 -6t28.5 -6q28 0 61 31 q5 4 5 -2q1 -25 -16 -52q-26 -41 -32 -56q-18 -44 -18 -108q0 -107 29 -177q22 -53 38 -53q11 0 30 46.5t19 87.5q0 29 -32 61q-3 3 0 4q45 39 45 71q0 27 -19 27q-12 0 -37 -29q-1 -2 -3 -1t-2 3q1 15 4 28q7 31 24 44q12 9 62.5 24t67.5 30q24 21 31 35q2 3 4 2t2 -4 q2 -39 -29.5 -80.5t-31.5 -77.5q0 -43 37 -64q3 -2 0 -5q-33 -28 -33 -72q0 -42 26 -97q27 -58 51 -58q10 0 22.5 31t12.5 55q0 43 -27 101t-27 54q0 6 9.5 12t15.5 6q12 0 45 -49q3 57 3 83q0 29 -6 55q-8 33 -21 33q-22 0 -36 -11q-3 0 -5 3q22 40 25 44q23 28 61 28 q14 0 30.5 -1.5t22.5 -1.5q30 0 56 27q3 0 5 -2z" />
<glyph unicode="x" horiz-adv-x="422" d="M420 200q-35 -52 -35 -97q0 -12 2 -39t2 -31q0 -58 -29 -129q-35 -83 -88 -118q-3 -2 -5 0t0 5q51 87 51 165q0 51 -33 51q-39 0 -77 -25q-2 -2 -4 0t0 4q71 58 71 110q0 26 -16 84q-20 70 -45 102q-64 -93 -64 -165q0 -41 42 -86q3 -3 0 -4q-28 -21 -28 -46q0 -6 -5 -3 q-26 16 -49 16q-44 0 -103 -50q-3 0 -4 4q48 49 48 108q0 70 -42 105q-3 4 1 5q31 16 60 38q70 52 117 123q-76 152 -111 152q-19 0 -40 -18q-3 0 -5 3q12 39 27 55q19 21 54 21q46 0 65 32q4 7 6 0q2 -5 2 -10q0 -10 -7 -30.5t-7 -31.5q0 -20 14 -54q15 -38 37 -64 q56 81 56 105q0 18 -14 18q-19 0 -26 -9q-3 0 -5 3q35 60 72 60q21 0 37 -5.5t23 -5.5q13 0 37 22q5 3 5 -2q-4 -25 -24 -48q-29 -29 -57 -59q-12 -13 -76 -116q81 -100 169 -140q4 -2 1 -5z" />
<glyph unicode="y" horiz-adv-x="422" d="M412 36q-44 -37 -64 -116l-28 -120q-19 -56 -64 -56q-21 0 -47 6t-39 6q-36 0 -80 -24q-4 -2 -4 2q-9 35 -22 64q-31 69 -79 95q-2 1 -2 3t2 3q22 13 39 28q39 35 44 76q0 5 4 3q65 -21 125 -21q17 0 33 2q9 -38 9 -53q0 -18 -9 -48q-10 -35 -23 -35q-16 0 -16 10 q0 -1 5.5 17.5t5.5 33.5q0 19 -6 25q-10 10 -52 10q-15 0 -23 -5q-2 -1 -2 -21q0 -46 29 -80q24 -26 41 -26q23 0 48 47q36 68 38 200q-11 -14 -22 -27q-16 -20 -34 -20q-11 0 -40 12.5t-38 12.5q-22 0 -48 -19q-5 -4 -5 2q7 49 7 53q0 36 -32 85q-29 45 -62 68q-3 1 0 4 q69 79 69 174q0 85 -23 85q-18 0 -31 -15q-3 -1 -5 3q15 65 62 65q21 0 40.5 -4t23.5 -4q20 0 47 27q3 0 5 -2q-1 -18 -17 -47q-21 -37 -30 -67q-16 -53 -16 -133q0 -78 14 -131q19 -74 61 -74q26 0 47 41q19 38 19 78q0 22 -36 81.5l-36 59.5q0 6 9 13t15 7q14 0 70 -83v58 q0 57 -3 79q-8 51 -36 51q-16 0 -35 -12q-5 -3 -5 2q-1 15 20 36t43 21q14 0 36 -4.5t29 -4.5q27 0 52 27q5 5 5 -2q1 -28 -22.5 -72t-23.5 -114q0 -75 47 -110q2 -2 1 -4q-28 -50 -28 -105q0 -61 43 -113q2 -2 0 -4z" />
<glyph unicode="z" horiz-adv-x="430" d="M414 146q-35 -25 -49 -70l-16 -66q-10 -29 -38 -30q-18 0 -59.5 9t-64.5 9q-74 -1 -162 -34q-3 0 -4 4q18 37 18 65q-1 39 -35 69q-3 3 1 5q57 31 109 95q60 75 59 137q0 14 -15 42q-2 4 2 4q92 22 91 80q0 23 -21 22q-43 -1 -75 -20q-67 -40 -101 -151q-1 -3 -3 -2 q-3 0 -3 3q-3 43 9 82q7 25 22 52q12 23 12 26q-1 8 -18 8q-22 -4 -31 -10q-3 0 -6 3q15 28 54 51q43 25 83 26q33 1 87.5 -5.5t60.5 -6.5q38 0 82 29q3 0 5 -4q-7 -26 -54 -82q-43 -51 -43 -74t22 -47q5 -4 0 -5q-45 -12 -106 -93q-70 -92 -68 -170q1 -36 33 -35 q46 1 81 50q32 44 31 90q0 13 -17 13q-27 0 -52 -48t-26 -48q-18 0 -18 12q-2 14 23 67q32 66 75 93q2 2 4 -1q30 -25 70 -25q20 0 40 7q3 0 4 -4q-15 -52 -15 -69q1 -22 22 -49q1 -3 0 -4z" />
<glyph unicode="{" horiz-adv-x="288" d="M316 -55q3 -1 2 -5q0 -4 -3 -4q-18 -2 -25 -1q-60 8 -156 64q-55 32 -88 74q-2 4 1 7q4 2 6 -2q30 -20 43 -20q12 0 12 9q0 3 -19.5 30t-19.5 51q0 37 22.5 67.5t22.5 42.5q0 31 -23.5 52t-58.5 21q-23 0 -39 -9q7 20 39 40q28 16 55 33.5t27 44.5q0 13 -22.5 43.5 t-22.5 66.5q0 24 19.5 51t19.5 30q0 9 -12 9q-7 0 -43 -20q-2 -4 -6 -2q-3 2 -1 6q33 43 88 75q49 29 70 38q43 20 86 26q7 1 25 -1q3 0 3 -4q1 -4 -2 -5q-74 -24 -124 -83t-50 -119q0 -26 24 -59.5t24 -58.5q0 -38 -24 -63q-19 -19 -36 -19q60 -34 60 -90q0 -25 -24 -57 t-24 -58q0 -60 50 -118.5t124 -82.5z" />
<glyph unicode="|" horiz-adv-x="224" d="M190 -24q0 -3 -4 -4q-36 16 -73 16t-75 -16q-3 0 -4 4q20 36 33 117q12 75 12 142q0 92 -43 129q-2 2 0 4q46 51 46 127q0 167 -30 223q-1 4 3 4q37 -6 69 -6q31 0 48 6q3 -1 3 -6q-31 -45 -31 -221q0 -72 42 -127q2 -2 0 -4q-39 -37 -39 -122q0 -63 12.5 -141.5 t30.5 -124.5z" />
<glyph unicode="}" horiz-adv-x="288" d="M317 322q-16 9 -39 9q-35 0 -58.5 -21t-23.5 -52q0 -12 22.5 -42.5t22.5 -67.5q0 -24 -19.5 -51t-19.5 -30q0 -9 12 -9q13 0 43 20q2 4 6 2q3 -3 1 -7q-33 -42 -88 -74q-49 -29 -70 -38q-43 -20 -86 -26q-7 -1 -25 1q-3 0 -3 4q-1 4 2 5q74 24 124 82.5t50 118.5 q0 26 -24 58t-24 57q0 56 60 90q-17 0 -36 19q-24 25 -24 63q0 25 24 58.5t24 59.5q0 60 -50 119t-124 83q-3 1 -2 5q0 4 3 4q18 2 25 1q60 -8 156 -64q55 -32 88 -75q2 -4 -1 -6q-4 -2 -6 2q-36 20 -43 20q-12 0 -12 -9q0 -3 19.5 -30t19.5 -51q0 -36 -22.5 -66.5 t-22.5 -43.5q0 -27 27 -44.5t55 -33.5q32 -20 39 -40z" />
<glyph unicode="~" horiz-adv-x="239" d="M228 809q-19 -78 -72 -78q-19 0 -41 8t-31 8q-31 0 -61 -23q-4 0 -6 4q17 78 72 78q19 0 40 -8t32 -8q26 0 61 23q3 0 6 -4z" />
<glyph unicode="&#xa1;" horiz-adv-x="290" d="M207 668q-13 -8 -24 -18q-26 -24 -35 -57q-8 -10 -10 1q-13 50 -58 74q-7 10 0 12q13 8 24 18q25 24 34 58q1 9 9 1q14 -51 59 -77q8 -3 1 -12zM287 595q-54 -20 -82 -107q-24 -75 -22 -177q1 -61 40 -99q3 -3 -1 -5q-42 -25 -41 -84q2 -93 38 -92q21 0 40 14q5 4 5 -2 q-3 -25 -22 -47q-23 -27 -57 -27q-28 0 -54.5 8t-32.5 8q-28 0 -64 -29q-5 -3 -5 2q-1 29 43 78t43 92q-1 46 -37 75q-1 1 -1 2t1 2q39 37 38 133q-1 41 -17 90q-20 61 -55 99q-3 3 0 5q9 6 16 13q16 17 20 36q2 5 5 1q32 -20 65 -19q20 1 65 18.5t71 17.5q3 1 4 -2 q0 -3 -3 -4z" />
<glyph unicode="&#xa2;" horiz-adv-x="432" d="M404 242q-35 -30 -55 -68q-12 -25 -24 -49q-12 -19 -34 -19q-11 0 -39 4v-77q0 -15 -15 -15t-15 15v82q-6 1 -16 1q-32 0 -75 -17q-3 0 -3 3q-2 34 -12 59q-24 62 -82 74q-7 0 -1 4q55 42 55 110q0 32 -27 47q-6 4 0 5q30 7 60 45q32 42 32 84q0 6 -4 6q-15 0 -26 -11 q-3 0 -4 3q29 58 84 58q13 0 19 -1v84q0 15 15 15t15 -15v-91q14 -4 21 -4q28 0 52 16q3 0 4 -4q-9 -23 -9 -33t9 -25q10 -19 25 -25q4 -1 2 -3q-10 -26 -23 -46q-34 -48 -84 -58q-2 -1 -3 1t1 3q37 36 37 79q0 53 -30 53q-23 0 -47.5 -32t-24.5 -70q0 -20 22 -44 q2 -3 -1 -4q-40 -21 -40 -73q0 -34 25.5 -85.5t42.5 -51.5t37.5 36t20.5 66q0 37 -13 37q-11 0 -22 -9q-15 -10 -15 -27q0 -15 3.5 -34.5t3.5 -20.5q0 -12 -13 -12q-8 0 -19.5 36.5t-11.5 75.5q0 10 25 19q22 7 43 14q11 5 49 28q4 1 4 -2q6 -23 17 -45q24 -52 64 -88 q3 -3 0 -4z" />
<glyph unicode="&#xa3;" horiz-adv-x="476" d="M493 151q-39 -29 -89 -122q-40 -72 -81 -72q-25 0 -83.5 27t-83.5 27q-102 0 -180 -66q-2 -2 -4 0t0 4q44 37 70 146q27 114 27 274q0 76 -44 106q-3 4 1 5q63 35 63 85q0 38 -26 38q-19 0 -30 -11q-3 0 -5 3q46 104 159 104q29 0 63 -4t43 -4q61 0 107 40q3 0 5 -3 q-22 -57 -22 -86q0 -30 20 -65q2 -1 -1 -4q-19 -21 -40 -40q-51 -45 -100 -69q-2 -1 -4 1q-1 2 1 3q67 62 67 94q0 28 -18 48q-21 24 -58 24q-27 0 -53 -18q-34 -22 -34 -59q0 -49 36 -68q5 -3 1 -6q-39 -26 -39 -66q0 -21 16 -26q4 -1 31 -1q84 0 127 69q1 3 4 1q3 -1 2 -4 q-8 -27 -65.5 -84t-72.5 -108q-1 -3 -5 -1q-4 1 -3 4q6 18 6 34q0 24 -14 24q-23 0 -31 -29q-3 -13 -4 -54q-4 -180 121 -180q24 0 51 34t27 61q0 17 -15.5 51.5t-23.5 34.5t-36.5 -20t-31.5 -20q-7 0 -14.5 6t-7.5 12q0 7 59.5 55.5t64.5 48.5q10 0 29 -33q28 -52 42 -71 q34 -45 75 -65q5 -1 1 -5z" />
<glyph unicode="&#xa4;" horiz-adv-x="593" d="M536 35l-44 -46l-89 88q-47 -36 -112 -36q-64 0 -114 36l-87 -88l-46 46l88 87q-36 47 -36 114q0 65 36 112l-88 89l46 44l87 -87q48 35 114 35q69 0 112 -35l89 87l44 -44l-87 -89q35 -47 35 -112q0 -66 -35 -114zM421 236q0 55 -37.5 94.5t-92.5 39.5t-93.5 -40 t-38.5 -94q0 -55 38 -95.5t94 -40.5q55 0 92.5 40t37.5 96z" />
<glyph unicode="&#xa5;" horiz-adv-x="514" d="M506 716q0 -33 -57.5 -84.5t-57.5 -81.5q0 -26 34 -49q2 -2 0 -4q-45 -27 -62 -43q-37 -37 -53 -97v-16q49 7 107 22q3 0 4 -3q-15 -23 -15 -47q0 -23 11 -41q0 -2 -3 -3q-48 18 -104 22q1 -19 4 -58q48 6 103 20q7 0 4 -4q-15 -23 -15 -47q0 -23 11 -41q0 -3 -3 -4 q-38 16 -92 24q23 -114 96 -162q4 -4 -1 -6q-10 -4 -18 -10q-20 -14 -26 -36q-1 -5 -5 -1q-40 30 -92 30q-24 0 -85.5 -24.5t-110.5 -24.5q-3 0 -4 3q0 2 3 3q76 14 107 67q28 49 34 161q-47 -6 -104 -21q-1 -1 -3 0q-1 1 0 2q14 24 14 50q0 22 -8 39q0 2 3 3 q43 -19 100 -24q0 9 1 29v32q-48 -6 -107 -20q-2 1 -3 3q14 23 14 49q0 20 -8 37q1 3 3 3q41 -19 101 -24v26q-13 37 -44 79.5t-49 42.5q-29 0 -39 -2q-3 -1 -4 2t2 4q33 23 33 75q0 38 -21 63t-45 25t-47 -16q-3 0 -5 4q24 76 100 76q19 0 43.5 -9.5t41.5 -9.5q23 0 37 8 q6 4 26 22q4 3 5 -1q3 -14 -23 -58q-29 -47 -29 -84q0 -63 64 -130q68 117 68 155q0 35 -26 35q-25 0 -43 -18q-3 0 -5 3q26 83 96 83q13 0 37.5 -10t43.5 -10q23 0 36 10q4 2 24 24q3 4 4.5 -1.5t1.5 -10.5z" />
<glyph unicode="&#xa6;" horiz-adv-x="224" d="M175 716q-31 -45 -31 -313h-62q0 259 -30 315q-1 4 3 4q37 -6 69 -6q31 0 48 6q3 -1 3 -6zM190 -24q0 -3 -4 -4q-36 16 -73 16t-75 -16q-3 0 -4 4q19 35 33 151q12 101 12 176l68 7q0 -70 13 -175q13 -116 30 -159z" />
<glyph unicode="&#xa7;" horiz-adv-x="417" d="M424 136q-31 -25 -50 -79q-24 -70 -30 -80q-23 -37 -71 -37q-16 0 -52.5 7t-44.5 7q-43 0 -90 -24q-3 1 -4 5q10 25 10 39q0 30 -28 61q-31 36 -79 47q-7 2 0 6q65 25 65 95q0 43 -15 69q1 3 4 4q213 -96 213 -135q0 -13 -13 -44.5t-21 -31.5q-18 0 -18 10l7 18t7 29 q0 15 -37 35q-33 16 -43 16q-9 0 -9 -4q0 -39 34 -86t64 -47q12 0 30 28q22 34 22 77q0 25 -64 93q-69 74 -115 74q-22 0 -31 -1q-8 0 -2 4q54 37 54 69q0 37 -25 37q-11 0 -31 -8q-4 1 -5 5q39 65 100 65q22 0 41.5 -5t26.5 -5q-78 88 -128 88q-22 0 -31 -1q-8 0 -2 4 q54 37 54 69q0 37 -25 37q-11 0 -31 -8q-4 1 -5 5q39 65 100 65q21 0 43 -3.5t30 -3.5q32 0 68 34q5 3 5 -2q-3 -92 72 -124q9 0 1 -5q-14 -8 -28 -20q-35 -29 -66 -71q-72 35 -72 48q10 21 35 57q3 1 5 -2q-5 -18 -5 -47q0 -8 14 -8q4 0 11.5 14t7.5 20q0 23 -13 39 q-16 19 -43 19q-38 0 -38 -54q0 -27 30 -59q15 -16 65 -57q54 -45 69 -55q36 -25 76 -38q5 -1 1 -5q-25 -20 -40 -68q-19 -63 -24 -71q-17 -31 -56 -28q58 -58 119 -77q5 -1 1 -5zM277 346q0 23 -13 39q-16 19 -43 19q-38 0 -38 -54q0 -37 49 -76q11 -6 19 -6q22 0 26 36v42 z" />
<glyph unicode="&#xa8;" horiz-adv-x="288" d="M263 792q-10 -6 -18 -14q-20 -19 -27 -45q-2 -7 -6 -1q-11 40 -46 60q-7 2 -1 10q10 6 19 13q20 19 27 45q5 5 7 -1q11 -39 45 -57q6 -8 0 -10zM124 792q-10 -6 -18 -14q-20 -19 -27 -45q-1 -6 -6 -1q-12 40 -46 60q-7 2 -1 10q10 6 19 13q20 19 27 45q6 4 7 -1 q10 -39 45 -57q6 -8 0 -10z" />
<glyph unicode="&#xa9;" horiz-adv-x="606" d="M575 349q0 -141 -81 -240.5t-194 -99.5t-194 99.5t-81 240.5t81 240.5t194 99.5t194 -99.5t81 -240.5zM545 349q0 128 -71.5 219t-173.5 91t-173.5 -91t-71.5 -219t71.5 -219t173.5 -91t173.5 91t71.5 219zM461 257q-38 -33 -61 -86q-16 -36 -40 -36q-10 0 -38 4.5 t-38 4.5q-30 0 -67 -15q-2 -1 -2 3q-2 30 -11 53q-21 54 -74 64q-5 2 -1 4q49 39 49 99q0 29 -24 42q-3 3 0 4q27 6 54 40q29 38 29 76q0 5 -3 5q-15 0 -24 -9q-3 0 -4 1q26 53 75 53q18 0 36.5 -5.5t26.5 -5.5q25 0 46 15q6 0 4 -3q-9 -21 -9 -31q0 -8 8 -22q10 -17 23 -22 q3 -1 2 -3q-9 -23 -21 -41q-30 -43 -74 -52q-2 0 -3 2q-1 1 1 1q33 34 33 72q0 46 -27 46q-21 0 -42.5 -28t-21.5 -63q0 -16 19 -39q1 -3 -1 -4q-36 -18 -36 -65q0 -30 23.5 -76.5t37.5 -46.5q15 0 34 32t19 59q0 34 -12 34q-9 0 -20 -8q-14 -9 -14 -24q0 -14 3.5 -31 t3.5 -18q0 -10 -11 -10q-8 0 -18.5 32t-10.5 66q0 10 23 18q19 6 38 13q3 1 44 24q3 3 4 -2q6 -21 15 -40q21 -46 57 -78q1 -3 0 -3z" />
<glyph unicode="&#xaa;" horiz-adv-x="272" d="M265 371q2 -2 -1 -3q-6 -3 -11 -8q-12 -11 -15 -28q-1 -3 -3 -1q-21 21 -52 21q-20 0 -52 -12.5t-42 -12.5q-23 0 -46.5 49.5t-48.5 55.5q-5 1 0 4q26 3 44 39q26 47 42 62q39 35 56 35q5 0 21 -13.5t24 -25.5q0 24 -15 30q-1 1 -1 2t1 2q16 12 16 29q0 15 -8 28 q-10 17 -27 17q-63 0 -77 -91q-1 -2 -2 -3q-2 0 -2 2q-8 28 -8 38q0 21 11.5 45.5t11.5 25.5q0 9 -11 9q-9 0 -16 -5q-2 0 -3 2q15 33 58 33q14 0 34 -4t29 -4q22 0 53 21q2 1 3 -2q-9 -45 -9 -52q0 -69 42 -91q2 -2 0 -4q-27 -30 -27 -91q0 -65 31 -99zM175 425 q-22 -24 -36 -24q-11 0 -11 14q0 -2 21 25t21 46q0 5 -15.5 19t-20.5 14q-9 0 -28.5 -26t-19.5 -43q0 -22 19 -45.5t43 -23.5t27 44z" />
<glyph unicode="&#xab;" horiz-adv-x="332" d="M303 256q-22 -21 -32 -70q-1 -3 -3 -1q-20 32 -37 57q-43 60 -71 77v17q41 25 108 133q2 2 3 -1q3 -14 7 -26q10 -30 25 -44q2 -2 -1 -4q-15 -4 -29 -13q-34 -19 -57 -55q33 -48 87 -66q3 -1 0 -4zM181 256q-22 -21 -32 -70q-1 -3 -3 -1q-20 32 -37 57q-43 60 -71 77v17 q41 25 108 133q2 2 3 -1q3 -14 7 -26q10 -30 25 -44q2 -2 -1 -4q-15 -4 -29 -13q-34 -19 -57 -55q33 -48 87 -66q3 -1 0 -4z" />
<glyph unicode="&#xac;" horiz-adv-x="502" d="M439 175h-161v145h-237v88h398v-233z" />
<glyph unicode="&#xad;" d="M270 382q-11 -30 -11 -67q0 -35 9 -66q-1 -3 -5 -3q-42 31 -117 31q-18 0 -58.5 -10t-52.5 -18q-3 0 -5 3q11 33 11 73q0 31 -6 57q1 3 5 3q37 -32 110 -32q22 0 64 12q39 12 51 20q3 0 5 -3z" />
<glyph unicode="&#xae;" horiz-adv-x="376" d="M349 494q0 -84 -48 -144t-115 -60t-114.5 60t-47.5 144q0 83 47.5 143t114.5 60t115 -60t48 -143zM325 494q0 73 -40.5 125.5t-98.5 52.5q-57 0 -97.5 -52.5t-40.5 -125.5q0 -74 40 -126.5t98 -52.5t98.5 52.5t40.5 126.5zM266 463q-13 -19 -13 -47q0 -5 1 -12t1 -8 q0 -41 -29 -59q7 10 7 30q0 21 -14 21q-3 0 -15.5 -3t-16.5 -3q-2 0 0 2q29 10 29 54q0 20 -10 45q-12 34 -34 48q0 -2 -1 -13.5t-1 -17.5q0 -70 21 -95q2 -2 -2 -3t-10 -14q0 -2 -1 -1q-13 8 -26 8q-8 0 -24.5 -7t-23.5 -7q-4 2 0 2q41 14 41 130q0 32 -17 39v1q21 9 21 32 q0 19 -9 19t-12 -6q-2 0 -2 2q8 24 38 24q6 0 21.5 -3t20.5 -3q15 0 32 8v0q4 -9 19 -22q1 0 0 -1q-8 -7 -14 -16q-14 -20 -17 -44q0 -2 -1 -2q-18 7 -31 2q16 -24 26 -37q25 -32 45 -41q1 -1 1 -2zM212 593q0 6 -13 6q-26 0 -26 -22q0 -17 9 -17q13 0 23 15q7 11 7 18z" />
<glyph unicode="&#xaf;" horiz-adv-x="278" d="M250 734q-50 12 -108 12q-55 0 -104 -12q7 38 0 70q48 -10 107 -10q55 0 105 10q-6 -39 0 -70z" />
<glyph unicode="&#xb0;" horiz-adv-x="213" d="M193 588q0 -42 -25 -72t-60 -30t-60 30t-25 72q0 43 25 72t60 29t60 -29t25 -72zM150 588q0 58 -42 58t-42 -58q0 -24 11.5 -41.5t30.5 -17.5t30.5 17.5t11.5 41.5z" />
<glyph unicode="&#xb1;" horiz-adv-x="420" d="M391 393q-18 -33 -18 -72q0 -37 14 -69q0 -3 -4 -4q-77 37 -145 44q2 -69 41 -144q0 -2 -4 -4q-35 15 -74 15q-37 0 -67 -15q-3 1 -4 4q10 22 18 45q20 53 27 98q-68 -7 -146 -39q-3 1 -4 4q18 34 18 76q0 33 -10 61q0 3 4 4q73 -42 143 -47q0 71 -38 148q1 3 4 4 q31 -13 67 -13q37 0 68 15q2 0 4 -4q-10 -23 -18 -46q-19 -56 -25 -101q66 9 145 44q3 0 4 -4zM362 116q-13 -25 -13 -56q0 -30 11 -57q-2 -2 -7 -2q-52 26 -146 26q-23 0 -73 -8.5t-66 -15.5q-3 0 -6 3q13 28 13 61q0 26 -7 49q2 2 7 3q47 -28 137 -28q28 0 80 11 q49 10 64 17q4 0 6 -3z" />
<glyph unicode="&#xb2;" horiz-adv-x="273" d="M264 461q-14 -13 -40 -81q-20 -55 -49 -55q-4 0 -24 6.5t-38 6.5q-47 0 -86 -20q-2 -2 -5 1t-1 7q21 24 21 56q0 20 -9 38l-12 20q-8 8 2 8q36 11 69 50t33 80q0 3 -3 18q-8 8 3 8q30 5 30 32q0 24 -19 24q-21 0 -36 -17q-19 -19 -19 -52q0 -23 11 -41q0 -11 -8 -6 q-29 22 -29 71q0 16 2.5 26t2.5 12q0 7 -11 7q-5 0 -6 4q-1 5 4 7q19 11 39.5 22t47.5 11q15 0 30 -6t26 -6q15 0 37 17q2 2 6 0t4 -4q0 -7 -16.5 -32t-16.5 -54q0 -15 5 -30q4 -4 -3 -9q-37 -24 -64 -68q-30 -50 -30 -103q0 -37 12 -37q13 0 32 26q24 34 29 85 q-19 0 -20 -1q-7 -8 -15 -46q-6 -34 -12 -34q-13 0 -13 18q0 25 10 58q8 28 13 34q10 3 19 6q21 9 43 35q9 7 9 -3q4 -20 10 -35q14 -37 33 -45q9 0 2 -9z" />
<glyph unicode="&#xb3;" horiz-adv-x="274" d="M276 480q-29 -28 -42 -95q-10 -51 -40 -51q-14 0 -27 5.5t-26 5.5q-44 0 -77.5 -10t-42.5 -10q-2 0 -3 6q0 5 2 5q29 8 29 53q0 37 -38 61q-13 5 1 10q45 15 45 51q0 10 -5 27q-7 9 5 9q21 -9 38 -9q12 0 27.5 4.5t16.5 4.5q5 0 23 -31q19 -34 19 -49q0 -9 -8 -30 t-14 -21q-13 0 -13 15q0 3 5 15t5 17q0 10 -8 26q-11 19 -24 19q-28 0 -28 -30q0 -23 9 -55q12 -42 31 -42q20 0 38 34q17 30 17 54q0 23 -25 61q-27 42 -58 50q-5 2 -4 6q0 4 5 4q56 33 56 53q0 18 -14 18q-48 0 -54 -82q-1 -9 -10 -3q-13 20 -13 43q0 9 2.5 20.5t2.5 16.5 q0 8 -12 18q-4 2 -3 6t6 4q13 -2 41.5 11t41.5 13t23 -4t16 -4q11 0 30 15q9 7 9 -4q0 -8 -13.5 -34.5t-13.5 -41.5q0 -20 21 -38q7 -9 -2 -9.5t-17 -1.5q-11 -4 -11 -15q0 -18 28 -47.5t51 -33.5q4 -6 2 -10z" />
<glyph unicode="&#xb4;" horiz-adv-x="192" d="M173 867q-13 -20 -13 -44q0 -12 3 -21q-1 -6 -5 -7q-18 3 -127 -70q-5 -5 -5 4l44 70q29 46 26 57q0 3 6 6q35 -9 66 10q4 1 6 -1q1 -2 -1 -4z" />
<glyph unicode="&#xb6;" horiz-adv-x="494" d="M443 650h-32v-724h-65v724h-61v-724h-65l-1 369q-84 0 -142.5 59t-58.5 143t59.5 143.5t143.5 59.5h222v-50z" />
<glyph unicode="&#xb7;" horiz-adv-x="195" d="M164 316q-13 -8 -24 -18q-25 -24 -34 -58q-1 -9 -9 -1q-14 51 -59 77q-8 3 -1 12q13 8 24 18q26 24 35 57q8 10 10 -1q13 -50 58 -74q7 -10 0 -12z" />
<glyph unicode="&#xb8;" horiz-adv-x="215" d="M202 -77q-23 -20 -23 -65q0 -46 14 -67q-44 8 -68 6q-44 -4 -68 -27q-3 -6 -3 1q2 65 -46 87q-4 2 0 4q14 8 60 65q45 -26 45 -35q-6 -15 -23 -40q-2 -4 -2 1q2 11 2 35q0 4 -7 4q-3 0 -8 -9.5t-5 -13.5q0 -41 37 -41q26 0 26 37q0 35 -15 54q0 1 -37 34q-4 4 -5 30 q0 27 5 43q6 5 26 5q20 -1 21 -8v-39q0 -29 74 -61z" />
<glyph unicode="&#xb9;" horiz-adv-x="156" d="M154 353q-6 -3 -16 -19q0 -11 -8 -3q-17 8 -32 8q-25 0 -51 -11.5t-29 -11.5q-6 0 -8 3q-1 3 5 6q40 30 51 78q7 29 7 101q0 81 -13 93q-2 1 -2 7q14 14 14 36q0 1 -1 3.5t-1 3.5l-36 -27q2 -10 6 -28q2 -11 -3 -14q-4 -3 -8 2q-7 12 -27 46q10 9 22 22q13 21 30 46 q7 6 17 6q4 0 13 -2t14 -2q10 0 29 14q3 3 7 3q4 -1 1 -7q-1 -4 -13 -26q-10 -18 -10 -38q0 -22 15 -36q3 0 3 -6q-15 -27 -15 -94q0 -98 39 -144q5 -3 0 -9z" />
<glyph unicode="&#xba;" horiz-adv-x="289" d="M289 475q-29 -25 -56 -96q-21 -58 -48 -58q-10 0 -29 6.5t-27 6.5q-37 0 -71 -15q-3 -3 -3 2q-7 36 -15 65q-19 70 -41 97v3q26 21 54 74t28 84q0 15 -5 15q-6 0 -14 -8q-4 -2 -4 1q2 15 18 30.5t38 15.5q14 0 32.5 -5.5t28.5 -5.5q26 0 49 29q2 1 3 -2q-10 -44 -10 -60 q0 -30 15 -77q21 -64 57 -100q4 -2 0 -2zM188 503q0 64 -17 107q-14 35 -26 35t-30 -39q-21 -48 -21 -109q0 -32 12 -68q13 -44 32 -44q23 0 38 47q12 37 12 71zM171 510q-22 -1 -27 -39q0 -2 -3 -2q-4 0 -4 2q-3 21 -4 24q-6 14 -23 15q-3 0 -3 3t3 3q16 1 22 15q2 12 5 24 q1 2 3 2q3 0 4 -2q3 -20 4 -24q6 -14 23 -15q4 0 4 -3t-4 -3z" />
<glyph unicode="&#xbb;" horiz-adv-x="332" d="M306 319q-41 -25 -108 -134q-2 -2 -3 1q-3 14 -7 26q-10 30 -25 44q-3 3 0 4q16 5 30 14q35 20 57 52q-33 53 -86 68q-3 2 -1 4q22 21 32 70q1 3 3 1q20 -31 38 -56q43 -60 70 -77v-17zM184 319q-41 -25 -108 -134q-2 -2 -3 1q-3 14 -7 26q-10 30 -25 44q-3 3 0 4 q16 5 30 14q35 20 57 52q-33 53 -86 68q-3 2 -1 4q22 21 32 70q1 3 3 1q20 -31 38 -56q43 -60 70 -77v-17z" />
<glyph unicode="&#xbc;" horiz-adv-x="526" d="M154 353q-6 -3 -16 -19q0 -11 -8 -3q-17 8 -32 8q-25 0 -51 -11.5t-29 -11.5q-6 0 -8 3q-1 3 5 6q40 30 51 78q7 29 7 101q0 81 -13 93q-2 1 -2 7q14 14 14 36q0 1 -1 3.5t-1 3.5l-36 -27q2 -10 6 -28q2 -11 -3 -14q-4 -3 -8 2q-7 12 -27 46q10 9 22 22q13 21 30 46 q7 6 17 6q4 0 13 -2t14 -2q10 0 29 14q3 3 7 3q4 -1 1 -7q-1 -4 -13 -26q-10 -18 -10 -38q0 -22 15 -36q3 0 3 -6q-15 -27 -15 -94q0 -98 39 -144q5 -3 0 -9zM400 673q-44 -32 -104 -197q-14 -38 -14 -73q0 -30 10 -61q0 -2 -2 -4q-48 -20 -78 -101q-60 -164 -59 -259 q-1 -2 -5 -2q-47 44 -123 40q-6 2 -2 6q30 27 69 98q34 63 58 128q19 52 19 83q0 30 -20 59q-1 1 2 3q61 20 94 110q47 129 47 193q0 10 -1 19q1 3 5 2q19 -11 36 -18q42 -19 68 -20q8 0 0 -6zM477 134q0 -8 -15.5 -20.5t-22.5 -12.5t-12 11t-5 20q0 11 11 11q1 0 3 -6.5 t4 -6.5q8 0 8 6q0 15 -4 15q-14 0 -30 -7q3 -78 34 -119q0 -5 -1 -7q-5 -3 -13 -21q0 -10 -8 -4q-18 9 -37 9t-38.5 -11.5t-24.5 -11.5t-6 4q-1 5 4 7q40 11 53 134q-42 -28 -77 -70q-4 -3 -10 1q-6 14 -13 25q-17 25 -36 28q-10 0 -3 9q61 87 61 125q0 4 -5 21q-3 4 1 9 q44 30 44 47v2q-7 0 -14 -10q-2 -5 -7 -2t-3 7q8 47 52 47q5 0 16.5 -1t12.5 -1q27 0 47 22q5 3 7 1q3 -3 0 -7q-25 -60 -25 -80q0 -12 15 -30q4 -5 -1 -9q-19 -27 -23 -74q18 5 37 5q7 0 15.5 -22t8.5 -33zM386 299q0 10 0 8q-9 0 -28 -37q-24 -50 -34 -127q18 9 54 28 q1 10 1 30q0 42 -11 59q-8 3 -1 13q19 14 19 26z" />
<glyph unicode="&#xbd;" horiz-adv-x="526" d="M154 353q-6 -3 -16 -19q0 -11 -8 -3q-17 8 -32 8q-25 0 -51 -11.5t-29 -11.5q-6 0 -8 3q-1 3 5 6q40 30 51 78q7 29 7 101q0 81 -13 93q-2 1 -2 7q14 14 14 36q0 1 -1 3.5t-1 3.5l-36 -27q2 -10 6 -28q2 -11 -3 -14q-4 -3 -8 2q-7 12 -27 46q10 9 22 22q13 21 30 46 q7 6 17 6q4 0 13 -2t14 -2q10 0 29 14q3 3 7 3q4 -1 1 -7q-1 -4 -13 -26q-10 -18 -10 -38q0 -22 15 -36q3 0 3 -6q-15 -27 -15 -94q0 -98 39 -144q5 -3 0 -9zM525 131q-14 -13 -40 -81q-20 -55 -49 -55q-4 0 -24 6.5t-38 6.5q-47 0 -86 -20q-2 -2 -5 1t-1 7q21 24 21 56 q0 20 -9 38l-12 20q-8 8 2 8q36 11 69 50t33 80q0 3 -3 18q-8 8 3 8q30 5 30 32q0 24 -19 24q-21 0 -36 -17q-19 -19 -19 -52q0 -23 11 -41q0 -11 -8 -6q-29 22 -29 71q0 16 2.5 26t2.5 12q0 7 -11 7q-5 0 -6 4q-1 5 4 7q19 11 39.5 22t47.5 11q15 0 30 -6t26 -6q15 0 37 17 q2 2 6 0t4 -4q0 -7 -16.5 -32t-16.5 -54q0 -15 5 -30q4 -4 -3 -9q-37 -24 -64 -68q-30 -50 -30 -103q0 -37 12 -37q13 0 32 26q24 34 29 85q-19 0 -20 -1q-7 -8 -15 -46q-6 -34 -12 -34q-13 0 -13 18q0 25 10 58q8 28 13 34q10 3 19 6q21 9 43 35q9 7 9 -3q4 -20 10 -35 q14 -37 33 -45q9 0 2 -9zM400 673q-44 -32 -104 -197q-14 -38 -14 -73q0 -30 10 -61q0 -2 -2 -4q-48 -20 -78 -101q-60 -164 -59 -259q-1 -2 -5 -2q-47 44 -123 40q-6 2 -2 6q30 27 69 98q34 63 58 128q19 52 19 83q0 30 -20 59q-1 1 2 3q61 20 94 110q47 129 47 193 q0 10 -1 19q1 3 5 2q19 -11 36 -18q42 -19 68 -20q8 0 0 -6z" />
<glyph unicode="&#xbe;" horiz-adv-x="582" d="M273 480q-29 -28 -42 -95q-10 -51 -40 -51q-14 0 -27 5.5t-26 5.5q-44 0 -77.5 -10t-42.5 -10q-2 0 -3 6q0 5 2 5q29 8 29 53q0 37 -38 61q-13 5 1 10q45 15 45 51q0 10 -5 27q-7 9 5 9q21 -9 38 -9q12 0 27.5 4.5t16.5 4.5q5 0 23 -31q19 -34 19 -49q0 -9 -8 -30 t-14 -21q-13 0 -13 15q0 3 5 15t5 17q0 10 -8 26q-11 19 -24 19q-28 0 -28 -30q0 -23 9 -55q12 -42 31 -42q20 0 38 34q17 30 17 54q0 23 -25 61q-27 42 -58 50q-5 2 -4 6q0 4 5 4q56 33 56 53q0 18 -14 18q-48 0 -54 -82q-1 -9 -10 -3q-13 20 -13 43q0 9 2.5 20.5t2.5 16.5 q0 8 -12 18q-4 2 -3 6t6 4q13 -2 41.5 11t41.5 13t23 -4t16 -4q11 0 30 15q9 7 9 -4q0 -8 -13.5 -34.5t-13.5 -41.5q0 -20 21 -38q7 -9 -2 -9.5t-17 -1.5q-11 -4 -11 -15q0 -18 28 -47.5t51 -33.5q4 -6 2 -10zM496 673q-44 -32 -104 -197q-14 -38 -14 -73q0 -30 10 -61 q0 -2 -2 -4q-48 -20 -78 -101q-60 -164 -59 -259q-1 -2 -5 -2q-47 44 -123 40q-6 2 -2 6q30 27 69 98q34 63 58 128q19 52 19 83q0 30 -20 59q-1 1 2 3q61 20 94 110q47 129 47 193q0 10 -1 19q1 3 5 2q19 -11 36 -18q42 -19 68 -20q8 0 0 -6zM573 134q0 -8 -15.5 -20.5 t-22.5 -12.5t-12 11t-5 20q0 11 11 11q1 0 3 -6.5t4 -6.5q8 0 8 6q0 15 -4 15q-14 0 -30 -7q3 -78 34 -119q0 -5 -1 -7q-5 -3 -13 -21q0 -10 -8 -4q-18 9 -37 9t-38.5 -11.5t-24.5 -11.5t-6 4q-1 5 4 7q40 11 53 134q-42 -28 -77 -70q-4 -3 -10 1q-6 14 -13 25 q-17 25 -36 28q-10 0 -3 9q61 87 61 125q0 4 -5 21q-3 4 1 9q44 30 44 47v2q-7 0 -14 -10q-2 -5 -7 -2t-3 7q8 47 52 47q5 0 16.5 -1t12.5 -1q27 0 47 22q5 3 7 1q3 -3 0 -7q-25 -60 -25 -80q0 -12 15 -30q4 -5 -1 -9q-19 -27 -23 -74q18 5 37 5q7 0 15.5 -22t8.5 -33z M482 299q0 10 0 8q-9 0 -28 -37q-24 -50 -34 -127q18 9 54 28q1 10 1 30q0 42 -11 59q-8 3 -1 13q19 14 19 26z" />
<glyph unicode="&#xbf;" horiz-adv-x="486" d="M335 673q-13 -8 -24 -18q-26 -24 -35 -57q-8 -10 -10 1q-13 50 -58 74q-7 10 0 12q13 8 24 18q25 24 34 58q1 9 9 1q14 -51 59 -77q8 -3 1 -12zM466 165q3 -3 -1 -5q-83 -49 -83 -102q0 -16 13 -16q18 0 31 12q4 0 5 -3q-13 -26 -40 -49q-37 -31 -79 -31q-41 0 -72 7 t-42 7q-42 0 -91 -46q-3 -1 -5 3q15 69 15 80q0 66 -95 101q-6 2 0 6q76 47 76 112q0 38 -32 70q-4 3 1 5q15 5 27 14q29 21 37 56q2 5 5 2q32 -20 55 -20q19 0 30 23q9 19 9 43q0 28 -12 59q-16 42 -46 56q-5 3 -1 6q9 6 16 12q16 16 17 33q0 6 5 3q34 -21 67 -21 q29 0 68.5 19t49.5 19q3 0 4 -3q0 -2 -3 -3q-93 -48 -93 -188q0 -51 21 -51q16 0 30 9q3 0 5 -3q-8 -14 -11 -17q-9 -11 -25 -17q-5 -2 -57 -11q-44 -9 -55 -19q-36 -33 -36 -126q0 -153 71 -153q34 0 69 53q30 45 30 70q0 17 -11 41t-18 24q-8 0 -38 -17t-35.5 -25 t-5.5 -46q0 -9 4.5 -26.5t4.5 -18.5q-1 -3 -9 -9t-13 -6q-7 0 -19 26q-15 33 -15 76q0 30 10 41t76 54q73 47 92 47q40 -89 99 -157z" />
<glyph unicode="&#xc0;" horiz-adv-x="480" d="M273 729q0 -9 -5 -4q-109 73 -127 70q-2 0 -5 7q3 9 3 21q0 24 -13 44q-2 2 -1 4q2 2 6 1q31 -19 66 -10q6 -1 6 -6q-3 -11 26 -57zM491 193q-28 -13 -41 -39q-21 -40 -21 -127q0 -104 -33 -187q-35 -88 -97 -124q-2 1 -3 5q65 86 65 197q0 47 -11 64q-9 14 -33 14 q-15 0 -56.5 -16t-58.5 -16q-3 0 -3 3t3 3q44 5 83 50q42 49 42 109q0 53 -62 108q-26 24 -93 79q-16 -76 -16 -122q0 -102 51 -148l2 -2l-2 -2q-8 -6 -14 -14q-14 -18 -15 -38q0 -4 -4 -3q-33 15 -59 15q-47 0 -86.5 -22t-56.5 -22q-3 0 -4 3q0 2 3 3q83 23 83 119 q0 42 -12 71q-4 10 -22 37q-1 1 1 4q41 47 94 158q-16 7 -49 24q-13 7 -27 46q-12 36 -12 55q0 15 27.5 37t40.5 22q11 0 22.5 -24.5t11.5 -39.5q0 -16 -15 -16q-1 0 -8.5 18t-12.5 18t-13.5 -6.5t-8.5 -11.5q0 -33 12 -41q19 -13 54 -27q48 118 48 213q0 40 -14 40t-22 -20 q-1 -3 -3 -2q-3 0 -3 3q-1 25 19.5 52.5t48.5 27.5q20 0 42.5 -9.5t44.5 -9.5q48 0 62 44q1 3 3 3t3 -3q3 -12 3 -22q0 -16 -20 -45t-20 -68q0 -52 18 -74t60 -27q9 0 2 -5q-24 -17 -25 -19q-13 -15 -13 -50q0 -67 31 -135q35 -78 89 -102q2 -1 2 -3t-2 -3zM316 311 q-8 65 -17 116q-18 102 -40 160q-40 -94 -71 -208q66 -31 128 -68z" />
<glyph unicode="&#xc1;" horiz-adv-x="480" d="M403 867q-13 -20 -13 -44q0 -12 3 -21q-1 -6 -5 -7q-18 3 -127 -70q-5 -5 -5 4l44 70q29 46 26 57q0 3 6 6q35 -9 66 10q4 1 6 -1q1 -2 -1 -4zM491 193q-28 -13 -41 -39q-21 -40 -21 -127q0 -104 -33 -187q-35 -88 -97 -124q-2 1 -3 5q65 86 65 197q0 47 -11 64 q-9 14 -33 14q-15 0 -56.5 -16t-58.5 -16q-3 0 -3 3t3 3q44 5 83 50q42 49 42 109q0 53 -62 108q-26 24 -93 79q-16 -76 -16 -122q0 -102 51 -148l2 -2l-2 -2q-8 -6 -14 -14q-14 -18 -15 -38q0 -4 -4 -3q-33 15 -59 15q-47 0 -86.5 -22t-56.5 -22q-3 0 -4 3q0 2 3 3 q83 23 83 119q0 42 -12 71q-4 10 -22 37q-1 1 1 4q41 47 94 158q-16 7 -49 24q-13 7 -27 46q-12 36 -12 55q0 15 27.5 37t40.5 22q11 0 22.5 -24.5t11.5 -39.5q0 -16 -15 -16q-1 0 -8.5 18t-12.5 18t-13.5 -6.5t-8.5 -11.5q0 -33 12 -41q19 -13 54 -27q48 118 48 213 q0 40 -14 40t-22 -20q-1 -3 -3 -2q-3 0 -3 3q-1 25 19.5 52.5t48.5 27.5q20 0 42.5 -9.5t44.5 -9.5q48 0 62 44q1 3 3 3t3 -3q3 -12 3 -22q0 -16 -20 -45t-20 -68q0 -52 18 -74t60 -27q9 0 2 -5q-24 -17 -25 -19q-13 -15 -13 -50q0 -67 31 -135q35 -78 89 -102q2 -1 2 -3 t-2 -3zM316 311q-8 65 -17 116q-18 102 -40 160q-40 -94 -71 -208q66 -31 128 -68z" />
<glyph unicode="&#xc2;" horiz-adv-x="480" d="M491 193q-28 -13 -41 -39q-21 -40 -21 -127q0 -104 -33 -187q-35 -88 -97 -124q-2 1 -3 5q65 86 65 197q0 47 -11 64q-9 14 -33 14q-15 0 -56.5 -16t-58.5 -16q-3 0 -3 3t3 3q44 5 83 50q42 49 42 109q0 53 -62 108q-26 24 -93 79q-16 -76 -16 -122q0 -102 51 -148l2 -2 l-2 -2q-8 -6 -14 -14q-14 -18 -15 -38q0 -4 -4 -3q-33 15 -59 15q-47 0 -86.5 -22t-56.5 -22q-3 0 -4 3q0 2 3 3q83 23 83 119q0 42 -12 71q-4 10 -22 37q-1 1 1 4q41 47 94 158q-16 7 -49 24q-13 7 -27 46q-12 36 -12 55q0 15 27.5 37t40.5 22q11 0 22.5 -24.5t11.5 -39.5 q0 -16 -15 -16q-1 0 -8.5 18t-12.5 18t-13.5 -6.5t-8.5 -11.5q0 -33 12 -41q19 -13 54 -27q48 118 48 213q0 40 -14 40t-22 -20q-1 -3 -3 -2q-3 0 -3 3q-1 25 19.5 52.5t48.5 27.5q20 0 42.5 -9.5t44.5 -9.5q41 0 58 35q-65 44 -98 59q-7 -3 -107 -65q-2 -2 -5 1t-3 6 q34 45 83 114q2 4 8 2q24 -7 49 0q3 1 6 -2q9 -12 84 -114q0 -4 -4 -6q2 -21 -18 -50q-22 -32 -22 -71q0 -52 18 -74t60 -27q9 0 2 -5q-24 -17 -25 -19q-13 -15 -13 -50q0 -67 31 -135q35 -78 89 -102q2 -1 2 -3t-2 -3zM316 311q-8 65 -17 116q-18 102 -40 160 q-40 -94 -71 -208q66 -31 128 -68z" />
<glyph unicode="&#xc3;" horiz-adv-x="480" d="M373 821q-19 -78 -72 -78q-19 0 -41 8t-31 8q-31 0 -61 -23q-4 0 -6 4q17 78 72 78q19 0 40 -8t32 -8q26 0 61 23q3 0 6 -4zM491 193q-28 -13 -41 -39q-21 -40 -21 -127q0 -104 -33 -187q-35 -88 -97 -124q-2 1 -3 5q65 86 65 197q0 47 -11 64q-9 14 -33 14 q-15 0 -56.5 -16t-58.5 -16q-3 0 -3 3t3 3q44 5 83 50q42 49 42 109q0 53 -62 108q-26 24 -93 79q-16 -76 -16 -122q0 -102 51 -148l2 -2l-2 -2q-8 -6 -14 -14q-14 -18 -15 -38q0 -4 -4 -3q-33 15 -59 15q-47 0 -86.5 -22t-56.5 -22q-3 0 -4 3q0 2 3 3q83 23 83 119 q0 42 -12 71q-4 10 -22 37q-1 1 1 4q41 47 94 158q-16 7 -49 24q-13 7 -27 46q-12 36 -12 55q0 15 27.5 37t40.5 22q11 0 22.5 -24.5t11.5 -39.5q0 -16 -15 -16q-1 0 -8.5 18t-12.5 18t-13.5 -6.5t-8.5 -11.5q0 -33 12 -41q19 -13 54 -27q48 118 48 213q0 40 -14 40t-22 -20 q-1 -3 -3 -2q-3 0 -3 3q-1 25 19.5 52.5t48.5 27.5q20 0 42.5 -9.5t44.5 -9.5q48 0 62 44q1 3 3 3t3 -3q3 -12 3 -22q0 -16 -20 -45t-20 -68q0 -52 18 -74t60 -27q9 0 2 -5q-24 -17 -25 -19q-13 -15 -13 -50q0 -67 31 -135q35 -78 89 -102q2 -1 2 -3t-2 -3zM316 311 q-8 65 -17 116q-18 102 -40 160q-40 -94 -71 -208q66 -31 128 -68z" />
<glyph unicode="&#xc4;" horiz-adv-x="480" d="M378 792q-10 -6 -18 -14q-20 -19 -27 -45q-2 -7 -6 -1q-11 40 -46 60q-7 2 -1 10q10 6 19 13q20 19 27 45q5 5 7 -1q11 -39 45 -57q6 -8 0 -10zM239 792q-10 -6 -18 -14q-20 -19 -27 -45q-1 -6 -6 -1q-12 40 -46 60q-7 2 -1 10q10 6 19 13q20 19 27 45q6 4 7 -1 q10 -39 45 -57q6 -8 0 -10zM491 193q-28 -13 -41 -39q-21 -40 -21 -127q0 -104 -33 -187q-35 -88 -97 -124q-2 1 -3 5q65 86 65 197q0 47 -11 64q-9 14 -33 14q-15 0 -56.5 -16t-58.5 -16q-3 0 -3 3t3 3q44 5 83 50q42 49 42 109q0 53 -62 108q-26 24 -93 79 q-16 -76 -16 -122q0 -102 51 -148l2 -2l-2 -2q-8 -6 -14 -14q-14 -18 -15 -38q0 -4 -4 -3q-33 15 -59 15q-47 0 -86.5 -22t-56.5 -22q-3 0 -4 3q0 2 3 3q83 23 83 119q0 42 -12 71q-4 10 -22 37q-1 1 1 4q41 47 94 158q-16 7 -49 24q-13 7 -27 46q-12 36 -12 55 q0 15 27.5 37t40.5 22q11 0 22.5 -24.5t11.5 -39.5q0 -16 -15 -16q-1 0 -8.5 18t-12.5 18t-13.5 -6.5t-8.5 -11.5q0 -33 12 -41q19 -13 54 -27q48 118 48 213q0 40 -14 40t-22 -20q-1 -3 -3 -2q-3 0 -3 3q-1 25 19.5 52.5t48.5 27.5q20 0 42.5 -9.5t44.5 -9.5q48 0 62 44 q1 3 3 3t3 -3q3 -12 3 -22q0 -16 -20 -45t-20 -68q0 -52 18 -74t60 -27q9 0 2 -5q-24 -17 -25 -19q-13 -15 -13 -50q0 -67 31 -135q35 -78 89 -102q2 -1 2 -3t-2 -3zM316 311q-8 65 -17 116q-18 102 -40 160q-40 -94 -71 -208q66 -31 128 -68z" />
<glyph unicode="&#xc5;" horiz-adv-x="480" d="M344 806q0 -31 -22 -52.5t-53 -21.5t-53 21.5t-22 52.5t22 53t53 22t53 -22t22 -53zM491 193q-28 -13 -41 -39q-21 -40 -21 -127q0 -104 -33 -187q-35 -88 -97 -124q-2 1 -3 5q65 86 65 197q0 47 -11 64q-9 14 -33 14q-15 0 -56.5 -16t-58.5 -16q-3 0 -3 3t3 3 q44 5 83 50q42 49 42 109q0 53 -62 108q-26 24 -93 79q-16 -76 -16 -122q0 -102 51 -148l2 -2l-2 -2q-8 -6 -14 -14q-14 -18 -15 -38q0 -4 -4 -3q-33 15 -59 15q-47 0 -86.5 -22t-56.5 -22q-3 0 -4 3q0 2 3 3q83 23 83 119q0 42 -12 71q-4 10 -22 37q-1 1 1 4q41 47 94 158 q-16 7 -49 24q-13 7 -27 46q-12 36 -12 55q0 15 27.5 37t40.5 22q11 0 22.5 -24.5t11.5 -39.5q0 -16 -15 -16q-1 0 -8.5 18t-12.5 18t-13.5 -6.5t-8.5 -11.5q0 -33 12 -41q19 -13 54 -27q48 118 48 213q0 40 -14 40t-22 -20q-1 -3 -3 -2q-3 0 -3 3q-1 25 19.5 52.5 t48.5 27.5q20 0 42.5 -9.5t44.5 -9.5q48 0 62 44q1 3 3 3t3 -3q3 -12 3 -22q0 -16 -20 -45t-20 -68q0 -52 18 -74t60 -27q9 0 2 -5q-24 -17 -25 -19q-13 -15 -13 -50q0 -67 31 -135q35 -78 89 -102q2 -1 2 -3t-2 -3zM307 806q0 16 -11 27t-27 11t-27 -11t-11 -27t11 -26.5 t27 -10.5t27 10.5t11 26.5zM316 311q-8 65 -17 116q-18 102 -40 160q-40 -94 -71 -208q66 -31 128 -68z" />
<glyph unicode="&#xc6;" horiz-adv-x="720" d="M719 98q-48 -44 -75 -83q-13 -22 -26 -43q-9 -13 -26 -13q-18 0 -57.5 20t-103.5 20q-88 0 -154 -21t-80 -21q-3 0 -3 3q-1 2 2 3q85 23 119 159q6 55 -55 115q-24 24 -86 79q-28 -94 -28 -153q0 -78 39 -117l2 -2l-2 -2q-9 -6 -15 -14q-16 -18 -19 -38q0 -4 -4 -3 q-32 15 -58 15q-47 0 -88.5 -22t-58.5 -22q-3 0 -3 3q0 2 3 3q25 7 43 21q44 34 50 98q1 13 1 24q0 40 -25 84q-1 1 1 4q43 45 108 158q-15 6 -47 24q-12 7 -23 46q-9 36 -7 55q1 15 30.5 37t42.5 22q11 0 20.5 -24.5t7.5 -39.5q-2 -16 -16 -16q-1 0 -7 18t-11 18t-14 -6.5 t-10 -11.5q0 -34 9 -41q19 -14 52 -27q57 116 66 213q4 40 -10 40t-24 -20q-1 -3 -3 -2q-3 0 -3 3q1 25 24 52.5t51 27.5q20 0 38.5 -10.5t40.5 -10.5q3 -103 23 -126q3 113 -4 143q34 0 96.5 -7.5t89.5 -7.5q36 0 58 13q2 2 32 27q3 1 5 -3q-3 -11 -3 -24q0 -56 60 -73 q5 -2 2 -5q-20 -30 -67 -67.5t-66 -37.5q-18 0 -48 32t-30 42q0 11 15 11q1 0 23.5 -19t34.5 -19q6 0 21.5 15t15.5 20q0 6 -17 20q-20 17 -38 17q-80 0 -107 -19q-15 -11 -15 -66q0 -52 105 -52q69 0 118 33q3 2 5 0q2 -3 0 -5q-8 -12 -31 -34q-27 -26 -42 -44 q-1 -1 -33 -57q-23 -40 -38 -40t-26.5 10.5t-11.5 23.5t14 27q2 3 5 1q4 -3 2 -5q-5 -12 -5 -21q0 -8 15 -8q7 0 14 13.5t7 27.5q0 25 -46 25q-31 0 -42 -13q-6 -7 -12 -63q-5 -49 -5 -85q0 -234 77 -234q37 0 77 40q37 38 37 61q0 28 -49 28q-34 0 -55 -23q-4 -4 -5 1 q-5 19 -5 38q0 74 59 138q53 58 100 58q43 0 43 -44t-33 -44q-24 0 -39 28q-35 -16 -35 -56q0 -28 20 -44q15 -12 33 -12q20 0 47 12q4 1 4 -3q-5 -96 42 -142q2 -2 0 -4zM317 311q-6 184 -33 276q-51 -102 -89 -208q64 -32 122 -68z" />
<glyph unicode="&#xc7;" horiz-adv-x="484" d="M483 222q-28 -19 -50 -83q-18 -52 -35 -105q-23 -51 -59 -51q-10 0 -43 8q-36 8 -61 10v-12q0 -29 74 -61q-23 -20 -23 -65q0 -46 14 -67q-44 8 -68 6q-44 -4 -68 -27q-3 -6 -3 1q2 65 -46 87q-4 2 0 4q14 8 60 65q45 -26 45 -35q-6 -15 -23 -40q-2 -4 -2 1q2 11 2 35 q0 4 -7 4q-3 0 -8 -9.5t-5 -13.5q0 -41 37 -41q26 0 26 37q0 35 -15 54q-1 1 -37 34q-6 5 -4 41q-33 -4 -102 -25q-4 -1 -4 3q-1 30 -9 57q-18 65 -62 103q-2 2 0 4q89 113 89 272q0 44 -3 61q-6 30 -27 52q-3 4 1 5q65 19 65 96q0 30 -16 30q-18 0 -35 -21q-3 0 -5 3 q24 80 91 80q36 0 65.5 -9.5t48.5 -9.5q43 0 70 33q3 1 5 -3q-3 -10 -3 -23q0 -45 44 -70q3 -2 0 -5q-14 -16 -26 -33q-28 -41 -39 -81q-65 -4 -77 3t-31 35q-23 32 -23 51q0 14 15 14l8 -17t21 -27q18 -16 44 -16q9 0 20.5 22t11.5 30q0 7 -7.5 21.5t-11.5 17.5q-8 8 -61 8 q-25 0 -40.5 -20t-15.5 -50q0 -36 34 -70q3 -3 0 -5q-59 -34 -59 -241q0 -73 21 -136q23 -71 57 -71q40 0 77 68q33 61 33 101q0 19 -19.5 66.5t-28.5 47.5q-39 0 -52 -14q-17 -18 -17 -74q0 -33 9 -70.5t9 -36.5q0 -13 -20 -13q-9 0 -24 48q-17 53 -17 104q0 21 6 53.5 t13 38.5q4 3 31 7q33 5 57 14q30 11 68 40q5 4 5 -2q-6 -147 115 -218q3 -2 0 -5z" />
<glyph unicode="&#xc8;" horiz-adv-x="467" d="M255 729q0 -9 -5 -4q-109 73 -127 70q-2 0 -5 7q3 9 3 21q0 24 -13 44q-2 2 -1 4q2 2 6 1q31 -19 66 -10q6 -1 6 -6q-3 -11 26 -57zM467 98q-48 -44 -75 -83q-13 -22 -26 -43q-9 -13 -26 -13q-18 0 -57.5 20t-103.5 20q-88 0 -154.5 -21t-79.5 -21q-3 0 -3 3q-1 2 2 3 q59 16 95 90q43 90 43 253q0 71 -8 104q-13 56 -53 79q-7 4 0 6q72 31 72 106q0 59 -28 59q-18 0 -36 -12q-3 0 -5 2q1 18 25 39q33 28 87 28q34 0 75.5 -7.5t68.5 -7.5q36 0 58 13q2 2 32 27q3 1 5 -3q-3 -11 -3 -24q0 -56 60 -73q5 -2 2 -5q-20 -30 -67 -67.5t-66 -37.5 q-18 0 -48 32t-30 42q0 11 15 11q1 0 23.5 -19t34.5 -19q6 0 21.5 15t15.5 20q0 6 -17 20q-20 17 -38 17q-80 0 -107 -19q-15 -11 -15 -66q0 -52 105 -52q69 0 118 33q3 2 5 0q2 -3 0 -5q-8 -12 -31 -34q-27 -26 -42 -44q-1 -1 -33 -57q-23 -40 -38 -40t-26.5 10.5 t-11.5 23.5t14 27q2 3 5 1q4 -3 2 -5q-5 -12 -5 -21q0 -8 15 -8q7 0 14 13.5t7 27.5q0 25 -46 25q-31 0 -42 -13q-6 -7 -12 -63q-5 -49 -5 -85q0 -234 77 -234q37 0 77 40q37 38 37 61q0 28 -49 28q-34 0 -55 -23q-4 -4 -5 1q-5 19 -5 38q0 74 59 138q53 58 100 58 q43 0 43 -44t-33 -44q-24 0 -39 28q-35 -16 -35 -56q0 -28 20 -44q15 -12 33 -12q20 0 47 12q4 1 4 -3q-5 -96 42 -142q2 -2 0 -4z" />
<glyph unicode="&#xc9;" horiz-adv-x="467" d="M355 867q-13 -20 -13 -44q0 -12 3 -21q-1 -6 -5 -7q-18 3 -127 -70q-5 -5 -5 4l44 70q29 46 26 57q0 3 6 6q35 -9 66 10q4 1 6 -1q1 -2 -1 -4zM467 98q-48 -44 -75 -83q-13 -22 -26 -43q-9 -13 -26 -13q-18 0 -57.5 20t-103.5 20q-88 0 -154.5 -21t-79.5 -21q-3 0 -3 3 q-1 2 2 3q59 16 95 90q43 90 43 253q0 71 -8 104q-13 56 -53 79q-7 4 0 6q72 31 72 106q0 59 -28 59q-18 0 -36 -12q-3 0 -5 2q1 18 25 39q33 28 87 28q34 0 75.5 -7.5t68.5 -7.5q36 0 58 13q2 2 32 27q3 1 5 -3q-3 -11 -3 -24q0 -56 60 -73q5 -2 2 -5q-20 -30 -67 -67.5 t-66 -37.5q-18 0 -48 32t-30 42q0 11 15 11q1 0 23.5 -19t34.5 -19q6 0 21.5 15t15.5 20q0 6 -17 20q-20 17 -38 17q-80 0 -107 -19q-15 -11 -15 -66q0 -52 105 -52q69 0 118 33q3 2 5 0q2 -3 0 -5q-8 -12 -31 -34q-27 -26 -42 -44q-1 -1 -33 -57q-23 -40 -38 -40 t-26.5 10.5t-11.5 23.5t14 27q2 3 5 1q4 -3 2 -5q-5 -12 -5 -21q0 -8 15 -8q7 0 14 13.5t7 27.5q0 25 -46 25q-31 0 -42 -13q-6 -7 -12 -63q-5 -49 -5 -85q0 -234 77 -234q37 0 77 40q37 38 37 61q0 28 -49 28q-34 0 -55 -23q-4 -4 -5 1q-5 19 -5 38q0 74 59 138 q53 58 100 58q43 0 43 -44t-33 -44q-24 0 -39 28q-35 -16 -35 -56q0 -28 20 -44q15 -12 33 -12q20 0 47 12q4 1 4 -3q-5 -96 42 -142q2 -2 0 -4z" />
<glyph unicode="&#xca;" horiz-adv-x="467" d="M339 744q0 -3 -3 -6q-3 -2 -5 0q-37 25 -107 64q-7 -3 -107 -65q-2 -2 -5 1t-3 6q34 45 83 114q2 4 8 2q24 -7 49 0q3 1 6 -2q9 -12 84 -114zM467 98q-48 -44 -75 -83q-13 -22 -26 -43q-9 -13 -26 -13q-18 0 -57.5 20t-103.5 20q-88 0 -154.5 -21t-79.5 -21q-3 0 -3 3 q-1 2 2 3q59 16 95 90q43 90 43 253q0 71 -8 104q-13 56 -53 79q-7 4 0 6q72 31 72 106q0 59 -28 59q-18 0 -36 -12q-3 0 -5 2q1 18 25 39q33 28 87 28q34 0 75.5 -7.5t68.5 -7.5q36 0 58 13q2 2 32 27q3 1 5 -3q-3 -11 -3 -24q0 -56 60 -73q5 -2 2 -5q-20 -30 -67 -67.5 t-66 -37.5q-18 0 -48 32t-30 42q0 11 15 11q1 0 23.5 -19t34.5 -19q6 0 21.5 15t15.5 20q0 6 -17 20q-20 17 -38 17q-80 0 -107 -19q-15 -11 -15 -66q0 -52 105 -52q69 0 118 33q3 2 5 0q2 -3 0 -5q-8 -12 -31 -34q-27 -26 -42 -44q-1 -1 -33 -57q-23 -40 -38 -40 t-26.5 10.5t-11.5 23.5t14 27q2 3 5 1q4 -3 2 -5q-5 -12 -5 -21q0 -8 15 -8q7 0 14 13.5t7 27.5q0 25 -46 25q-31 0 -42 -13q-6 -7 -12 -63q-5 -49 -5 -85q0 -234 77 -234q37 0 77 40q37 38 37 61q0 28 -49 28q-34 0 -55 -23q-4 -4 -5 1q-5 19 -5 38q0 74 59 138 q53 58 100 58q43 0 43 -44t-33 -44q-24 0 -39 28q-35 -16 -35 -56q0 -28 20 -44q15 -12 33 -12q20 0 47 12q4 1 4 -3q-5 -96 42 -142q2 -2 0 -4z" />
<glyph unicode="&#xcb;" horiz-adv-x="467" d="M353 792q-10 -6 -18 -14q-20 -19 -27 -45q-2 -7 -6 -1q-11 40 -46 60q-7 2 -1 10q10 6 19 13q20 19 27 45q5 5 7 -1q11 -39 45 -57q6 -8 0 -10zM214 792q-10 -6 -18 -14q-20 -19 -27 -45q-1 -6 -6 -1q-12 40 -46 60q-7 2 -1 10q10 6 19 13q20 19 27 45q6 4 7 -1 q10 -39 45 -57q6 -8 0 -10zM467 98q-48 -44 -75 -83q-13 -22 -26 -43q-9 -13 -26 -13q-18 0 -57.5 20t-103.5 20q-88 0 -154.5 -21t-79.5 -21q-3 0 -3 3q-1 2 2 3q59 16 95 90q43 90 43 253q0 71 -8 104q-13 56 -53 79q-7 4 0 6q72 31 72 106q0 59 -28 59q-18 0 -36 -12 q-3 0 -5 2q1 18 25 39q33 28 87 28q34 0 75.5 -7.5t68.5 -7.5q36 0 58 13q2 2 32 27q3 1 5 -3q-3 -11 -3 -24q0 -56 60 -73q5 -2 2 -5q-20 -30 -67 -67.5t-66 -37.5q-18 0 -48 32t-30 42q0 11 15 11q1 0 23.5 -19t34.5 -19q6 0 21.5 15t15.5 20q0 6 -17 20q-20 17 -38 17 q-80 0 -107 -19q-15 -11 -15 -66q0 -52 105 -52q69 0 118 33q3 2 5 0q2 -3 0 -5q-8 -12 -31 -34q-27 -26 -42 -44q-1 -1 -33 -57q-23 -40 -38 -40t-26.5 10.5t-11.5 23.5t14 27q2 3 5 1q4 -3 2 -5q-5 -12 -5 -21q0 -8 15 -8q7 0 14 13.5t7 27.5q0 25 -46 25q-31 0 -42 -13 q-6 -7 -12 -63q-5 -49 -5 -85q0 -234 77 -234q37 0 77 40q37 38 37 61q0 28 -49 28q-34 0 -55 -23q-4 -4 -5 1q-5 19 -5 38q0 74 59 138q53 58 100 58q43 0 43 -44t-33 -44q-24 0 -39 28q-35 -16 -35 -56q0 -28 20 -44q15 -12 33 -12q20 0 47 12q4 1 4 -3q-5 -96 42 -142 q2 -2 0 -4z" />
<glyph unicode="&#xcc;" d="M157 736q0 -9 -5 -4q-109 73 -127 70q-2 0 -5 7q3 9 3 21q0 24 -13 44q-2 2 -1 4q2 2 6 1q31 -19 66 -10q6 -1 6 -6q-3 -11 26 -57zM294 19q4 -4 -1 -6q-10 -4 -18 -10q-20 -14 -26 -36q-1 -5 -5 -1q-40 30 -92 30q-24 0 -85.5 -24.5t-110.5 -24.5q-3 0 -4 3q0 2 3 3 q99 18 125 112q19 67 19 300q0 82 -48 117q-3 3 1 5q32 13 46 31q17 22 17 63q0 83 -45 83q-41 0 -59 -31q-2 -3 -4 -1q-2 1 -2 4q18 88 98 88q19 0 53.5 -10t57.5 -10q33 0 48 9q6 3 27 25q3 0 5 -2q-2 -48 -42 -75q-24 -13 -48 -25q-28 -22 -28 -71q0 -58 52 -79 q4 -2 1 -5q-26 -21 -36 -41q-15 -32 -15 -93q0 -251 116 -328z" />
<glyph unicode="&#xcd;" d="M290 870q-13 -20 -13 -44q0 -12 3 -21q-1 -6 -5 -7q-18 3 -127 -70q-5 -5 -5 4l44 70q29 46 26 57q0 3 6 6q35 -9 66 10q4 1 6 -1q1 -2 -1 -4zM294 19q4 -4 -1 -6q-10 -4 -18 -10q-20 -14 -26 -36q-1 -5 -5 -1q-40 30 -92 30q-24 0 -85.5 -24.5t-110.5 -24.5q-3 0 -4 3 q0 2 3 3q99 18 125 112q19 67 19 300q0 82 -48 117q-3 3 1 5q32 13 46 31q17 22 17 63q0 83 -45 83q-41 0 -59 -31q-2 -3 -4 -1q-2 1 -2 4q18 88 98 88q19 0 53.5 -10t57.5 -10q33 0 48 9q6 3 27 25q3 0 5 -2q-2 -48 -42 -75q-24 -13 -48 -25q-28 -22 -28 -71q0 -58 52 -79 q4 -2 1 -5q-26 -21 -36 -41q-15 -32 -15 -93q0 -251 116 -328z" />
<glyph unicode="&#xce;" d="M265 744q0 -3 -3 -6q-3 -2 -5 0q-37 25 -107 64q-7 -3 -107 -65q-2 -2 -5 1t-3 6q34 45 83 114q2 4 8 2q24 -7 49 0q3 1 6 -2q9 -12 84 -114zM294 19q4 -4 -1 -6q-10 -4 -18 -10q-20 -14 -26 -36q-1 -5 -5 -1q-40 30 -92 30q-24 0 -85.5 -24.5t-110.5 -24.5q-3 0 -4 3 q0 2 3 3q99 18 125 112q19 67 19 300q0 82 -48 117q-3 3 1 5q32 13 46 31q17 22 17 63q0 83 -45 83q-41 0 -59 -31q-2 -3 -4 -1q-2 1 -2 4q18 88 98 88q19 0 53.5 -10t57.5 -10q33 0 48 9q6 3 27 25q3 0 5 -2q-2 -48 -42 -75q-24 -13 -48 -25q-28 -22 -28 -71q0 -58 52 -79 q4 -2 1 -5q-26 -21 -36 -41q-15 -32 -15 -93q0 -251 116 -328z" />
<glyph unicode="&#xcf;" d="M264 792q-10 -6 -18 -14q-20 -19 -27 -45q-2 -7 -6 -1q-11 40 -46 60q-7 2 -1 10q10 6 19 13q20 19 27 45q5 5 7 -1q11 -39 45 -57q6 -8 0 -10zM125 792q-10 -6 -18 -14q-20 -19 -27 -45q-1 -6 -6 -1q-12 40 -46 60q-7 2 -1 10q10 6 19 13q20 19 27 45q6 4 7 -1 q10 -39 45 -57q6 -8 0 -10zM294 19q4 -4 -1 -6q-10 -4 -18 -10q-20 -14 -26 -36q-1 -5 -5 -1q-40 30 -92 30q-24 0 -85.5 -24.5t-110.5 -24.5q-3 0 -4 3q0 2 3 3q99 18 125 112q19 67 19 300q0 82 -48 117q-3 3 1 5q32 13 46 31q17 22 17 63q0 83 -45 83q-41 0 -59 -31 q-2 -3 -4 -1q-2 1 -2 4q18 88 98 88q19 0 53.5 -10t57.5 -10q33 0 48 9q6 3 27 25q3 0 5 -2q-2 -48 -42 -75q-24 -13 -48 -25q-28 -22 -28 -71q0 -58 52 -79q4 -2 1 -5q-26 -21 -36 -41q-15 -32 -15 -93q0 -251 116 -328z" />
<glyph unicode="&#xd0;" horiz-adv-x="457" d="M479 276q-36 -29 -64 -109q-41 -116 -46 -127q-31 -61 -82 -61q-4 0 -66 9.5t-101 9.5q-59 0 -111 -19t-82 -19q-3 0 -4 3q0 2 3 3q73 14 103 78q38 84 38 297h-55q-25 0 -25 25t25 25h55q-2 89 -51 110q-8 3 0 6q57 26 57 92q0 29 -9 45t-19 16q-15 0 -29 -14q-3 0 -5 2 q1 20 26 44q32 31 77 31q12 0 43.5 -9.5t52.5 -9.5q31 0 58 10q5 1 51 22q3 0 4 -4q-5 -21 -5 -46q0 -89 62 -135q-9 -39 -9 -66q0 -132 108 -205l2 -2zM318 283q0 79 -27.5 150.5t-61.5 75.5q-5 0 -3 4q22 39 22 63q0 28 -30 56q-27 25 -49 25q-31 0 -31 -55q0 -75 45 -87 q7 0 2 -5q-38 -37 -48 -119h47q25 0 25 -25t-25 -25h-50v-6q0 -34 3 -91l26 50q18 32 31 32q24 0 64 -18q46 -20 46 -43q0 -28 -26 -85.5t-36 -57.5q-21 0 -21 11q0 2 17 39t17 64q0 29 -31 29q-12 0 -31 -57.5t-19 -80.5q0 -52 42 -52q29 0 65.5 76.5t36.5 131.5z" />
<glyph unicode="&#xd1;" horiz-adv-x="481" d="M379 821q-19 -78 -72 -78q-19 0 -41 8t-31 8q-31 0 -61 -23q-4 0 -6 4q17 78 72 78q19 0 40 -8t32 -8q26 0 61 23q3 0 6 -4zM466 733q3 -6 3 -13q0 -14 -23 -54.5t-23 -65.5q0 -42 34 -56q4 -2 1 -5q-39 -31 -39 -241q0 -17 6 -78t6 -103q0 -65 -46 -180 q-64 -159 -169 -237q-3 0 -4 4q121 136 121 321q0 60 -21 109q-23 54 -61 67q-7 2 -1 6q43 29 43 82q0 46 -39 117q-41 76 -87 102q-9 -14 -16 -65q-6 -46 -6 -86q0 -235 76 -323q3 -3 0 -5q-8 -5 -14 -12q-14 -17 -17 -38q0 -5 -4 -3q-38 19 -76 19q-47 0 -94 -27.5 t-63 -27.5q-9 0 -2 5q63 43 89 109q39 98 39 305q0 69 -2 85q-9 55 -44 72q-6 4 0 6q47 19 47 81q0 50 -30 50q-17 0 -36 -19q-3 0 -5 3q25 80 87 80q20 0 43 -8t35 -8q21 0 43 21q3 3 5 -2q4 -20 -17.5 -41.5t-21.5 -33.5q0 -28 55 -101q61 -81 121 -116q0 86 -40 109 q-4 2 -1 5q38 28 38 60q0 22 -8 41q-11 24 -29 24q-17 0 -25 -6l-8 -6q-3 0 -3 3q2 14 19 37q24 31 51 31q14 0 36.5 -11.5t31.5 -11.5q23 0 39 30q1 2 3 2t3 -2z" />
<glyph unicode="&#xd2;" horiz-adv-x="478" d="M273 729q0 -9 -5 -4q-109 73 -127 70q-2 0 -5 7q3 9 3 21q0 24 -13 44q-2 2 -1 4q2 2 6 1q31 -19 66 -10q6 -1 6 -6q-3 -11 26 -57zM477 206q-27 -42 -43 -108q-17 -75 -23 -87q-17 -36 -59 -36q-17 0 -58.5 9t-54.5 9q-43 0 -140 -21q-4 -2 -4 3q-7 33 -18 62 q-27 69 -75 107q-2 2 -1 4q51 87 84 188q27 79 27 109q0 26 -29 48q-4 4 0 5q99 50 99 137q0 28 -15 28q-7 0 -16.5 -4.5l-9.5 -4.5q-4 0 -3 4q22 64 82 64q21 0 45.5 -11.5t40.5 -11.5q35 0 59 37q8 13 8 -16q0 -7 -12 -40.5t-12 -76.5q0 -72 66 -104q2 -1 0 -4 q-24 -22 -24 -63q0 -47 17 -101q23 -73 69 -121q2 -2 0 -4zM323 299q0 63 -21 182q-24 132 -45 132t-60 -150q-38 -145 -38 -207q0 -78 19 -131q22 -63 64 -63q40 0 63 93q18 72 18 144zM288 349q-33 0 -39 -57q0 -3 -3 -3t-3 3q-15 57 -38 57q-3 0 -3 3t3 3q33 1 38 58 q0 3 3 3t3 -3q5 -17 11 -29q14 -29 28 -29q3 0 3 -3t-3 -3z" />
<glyph unicode="&#xd3;" horiz-adv-x="478" d="M401 873q-13 -20 -13 -44q0 -12 3 -21q-1 -6 -5 -7q-18 3 -127 -70q-5 -5 -5 4l44 70q29 46 26 57q0 3 6 6q35 -9 66 10q4 1 6 -1q1 -2 -1 -4zM477 206q-27 -42 -43 -108q-17 -75 -23 -87q-17 -36 -59 -36q-17 0 -58.5 9t-54.5 9q-43 0 -140 -21q-4 -2 -4 3q-7 33 -18 62 q-27 69 -75 107q-2 2 -1 4q51 87 84 188q27 79 27 109q0 26 -29 48q-4 4 0 5q99 50 99 137q0 28 -15 28q-7 0 -16.5 -4.5l-9.5 -4.5q-4 0 -3 4q22 64 82 64q21 0 45.5 -11.5t40.5 -11.5q35 0 59 37q8 13 8 -16q0 -7 -12 -40.5t-12 -76.5q0 -72 66 -104q2 -1 0 -4 q-24 -22 -24 -63q0 -47 17 -101q23 -73 69 -121q2 -2 0 -4zM323 299q0 63 -21 182q-24 132 -45 132t-60 -150q-38 -145 -38 -207q0 -78 19 -131q22 -63 64 -63q40 0 63 93q18 72 18 144zM288 349q-33 0 -39 -57q0 -3 -3 -3t-3 3q-15 57 -38 57q-3 0 -3 3t3 3q33 1 38 58 q0 3 3 3t3 -3q5 -17 11 -29q14 -29 28 -29q3 0 3 -3t-3 -3z" />
<glyph unicode="&#xd4;" horiz-adv-x="478" d="M477 206q-27 -42 -43 -108q-17 -75 -23 -87q-17 -36 -59 -36q-17 0 -58.5 9t-54.5 9q-43 0 -140 -21q-4 -2 -4 3q-7 33 -18 62q-27 69 -75 107q-2 2 -1 4q51 87 84 188q27 79 27 109q0 26 -29 48q-4 4 0 5q99 50 99 137q0 28 -15 28q-7 0 -16.5 -4.5l-9.5 -4.5q-4 0 -3 4 q22 64 82 64q21 0 45.5 -11.5t40.5 -11.5q31 0 53 29q-35 24 -101 60q-7 -3 -107 -65q-2 -2 -5 1t-3 6q34 45 83 114q2 4 8 2q24 -7 49 0q3 1 6 -2q9 -12 84 -114q0 -1 -1 -4q1 -6 1 -11q0 -7 -12 -37.5t-12 -74.5q0 -72 66 -104q2 -1 0 -4q-24 -22 -24 -63q0 -47 17 -101 q23 -73 69 -121q2 -2 0 -4zM323 299q0 63 -21 182q-24 132 -45 132t-60 -150q-38 -145 -38 -207q0 -78 19 -131q22 -63 64 -63q40 0 63 93q18 72 18 144zM288 349q-33 0 -39 -57q0 -3 -3 -3t-3 3q-15 57 -38 57q-3 0 -3 3t3 3q33 1 38 58q0 3 3 3t3 -3q5 -17 11 -29 q14 -29 28 -29q3 0 3 -3t-3 -3z" />
<glyph unicode="&#xd5;" horiz-adv-x="478" d="M370 821q-19 -78 -72 -78q-19 0 -41 8t-31 8q-31 0 -61 -23q-4 0 -6 4q17 78 72 78q19 0 40 -8t32 -8q26 0 61 23q3 0 6 -4zM477 206q-27 -42 -43 -108q-17 -75 -23 -87q-17 -36 -59 -36q-17 0 -58.5 9t-54.5 9q-43 0 -140 -21q-4 -2 -4 3q-7 33 -18 62q-27 69 -75 107 q-2 2 -1 4q51 87 84 188q27 79 27 109q0 26 -29 48q-4 4 0 5q99 50 99 137q0 28 -15 28q-7 0 -16.5 -4.5l-9.5 -4.5q-4 0 -3 4q22 64 82 64q21 0 45.5 -11.5t40.5 -11.5q35 0 59 37q8 13 8 -16q0 -7 -12 -40.5t-12 -76.5q0 -72 66 -104q2 -1 0 -4q-24 -22 -24 -63 q0 -47 17 -101q23 -73 69 -121q2 -2 0 -4zM323 299q0 63 -21 182q-24 132 -45 132t-60 -150q-38 -145 -38 -207q0 -78 19 -131q22 -63 64 -63q40 0 63 93q18 72 18 144zM288 349q-33 0 -39 -57q0 -3 -3 -3t-3 3q-15 57 -38 57q-3 0 -3 3t3 3q33 1 38 58q0 3 3 3t3 -3 q5 -17 11 -29q14 -29 28 -29q3 0 3 -3t-3 -3z" />
<glyph unicode="&#xd6;" horiz-adv-x="478" d="M383 792q-10 -6 -18 -14q-20 -19 -27 -45q-2 -7 -6 -1q-11 40 -46 60q-7 2 -1 10q10 6 19 13q20 19 27 45q5 5 7 -1q11 -39 45 -57q6 -8 0 -10zM244 792q-10 -6 -18 -14q-20 -19 -27 -45q-1 -6 -6 -1q-12 40 -46 60q-7 2 -1 10q10 6 19 13q20 19 27 45q6 4 7 -1 q10 -39 45 -57q6 -8 0 -10zM477 206q-27 -42 -43 -108q-17 -75 -23 -87q-17 -36 -59 -36q-17 0 -58.5 9t-54.5 9q-43 0 -140 -21q-4 -2 -4 3q-7 33 -18 62q-27 69 -75 107q-2 2 -1 4q51 87 84 188q27 79 27 109q0 26 -29 48q-4 4 0 5q99 50 99 137q0 28 -15 28 q-7 0 -16.5 -4.5l-9.5 -4.5q-4 0 -3 4q22 64 82 64q21 0 45.5 -11.5t40.5 -11.5q35 0 59 37q8 13 8 -16q0 -7 -12 -40.5t-12 -76.5q0 -72 66 -104q2 -1 0 -4q-24 -22 -24 -63q0 -47 17 -101q23 -73 69 -121q2 -2 0 -4zM323 299q0 63 -21 182q-24 132 -45 132t-60 -150 q-38 -145 -38 -207q0 -78 19 -131q22 -63 64 -63q40 0 63 93q18 72 18 144zM288 349q-33 0 -39 -57q0 -3 -3 -3t-3 3q-15 57 -38 57q-3 0 -3 3t3 3q33 1 38 58q0 3 3 3t3 -3q5 -17 11 -29q14 -29 28 -29q3 0 3 -3t-3 -3z" />
<glyph unicode="&#xd7;" horiz-adv-x="420" d="M383 396q-81 -29 -137 -75q54 -51 134 -75q-23 -10 -41 -23q-44 -33 -60 -78q-9 23 -19 46q-24 53 -52 90q-45 -55 -80 -134q-22 67 -92 104q83 23 137 70q-50 52 -134 81q21 9 38 22q41 32 57 76q10 -24 21 -47q26 -54 55 -90q43 54 75 136q21 -70 98 -103z" />
<glyph unicode="&#xd8;" horiz-adv-x="478" d="M477 206q-27 -42 -43 -108q-17 -75 -23 -87q-17 -36 -59 -36q-17 0 -58.5 9t-54.5 9q-43 0 -140 -21q-4 -2 -4 3q-13 40 -31 91l-57 -86q-5 -7 -13 -7q-16 0 -16 15q0 4 3 8l65 99q-17 28 -44 49q-2 2 -1 4q51 87 84 188q27 79 27 109q0 26 -29 48q-4 4 0 5q99 50 99 137 q0 28 -15 28q-7 0 -16.5 -4.5l-9.5 -4.5q-4 0 -3 4q22 64 82 64q21 0 45.5 -11.5t40.5 -11.5q35 0 59 37q8 13 8 -16q0 -7 -12 -40.5t-12 -76.5q0 -22 7 -40l73 111q5 7 13 7q16 0 16 -15q0 -4 -3 -8l-83 -125q16 -21 43 -34q2 -1 0 -4q-24 -22 -24 -63q0 -47 17 -101 q23 -73 69 -121q2 -2 0 -4zM301 481q-23 132 -44 132q-20 0 -58 -140q-36 -135 -40 -207zM323 299q0 49 -14 138l-148 -224q12 -151 81 -151q40 0 63 93q18 72 18 144z" />
<glyph unicode="&#xd9;" horiz-adv-x="470" d="M265 729q0 -9 -5 -4q-109 73 -127 70q-2 0 -5 7q3 9 3 21q0 24 -13 44q-2 2 -1 4q2 2 6 1q31 -19 66 -10q6 -1 6 -6q-3 -11 26 -57zM466 186q-33 -21 -58 -77q-18 -44 -38 -87.5t-48 -43.5q-16 0 -55 11t-59 11q-40 0 -107 -26q-4 -2 -4 3q-3 36 -13 67q-25 74 -81 106 q-3 2 0 5q81 113 81 253q0 48 -7.5 67t-29.5 30q-7 4 0 6q53 20 53 91q0 51 -26 51q-14 0 -30 -11q-3 0 -5 2q3 21 18 40q19 26 51 27q25 1 39 -5.5t29 -5.5q17 1 37 24q3 4 5 -1q3 -17 -25 -54q-31 -41 -31 -84q0 -31 8 -46q4 -9 23 -27q2 -2 0 -4q-37 -33 -37 -152 q0 -107 22 -192q23 -90 55 -90q37 0 72 120t35 237q0 88 -21 146q-32 -32 -59 -104q-24 -66 -24 -107q0 -34 35 -34q14 0 23 51q7 40 7 68q0 14 11 14q15 0 15 -28q0 -20 -12 -89q-13 -77 -22 -77q-5 0 -34 15q-34 18 -71 24q-2 41 -2 57q0 134 68 240q61 81 121 161 q1 2 4 2q2 -1 2 -4q-3 -63 41 -81q3 -1 2 -4q-28 -58 -28 -87q0 -44 52 -70q4 -2 1 -5q-41 -56 -41 -140q0 -109 58 -188q2 -4 0 -5z" />
<glyph unicode="&#xda;" horiz-adv-x="470" d="M394 888q-13 -20 -13 -44q0 -12 3 -21q-1 -6 -5 -7q-18 3 -127 -70q-5 -5 -5 4l44 70q29 46 26 57q0 3 6 6q35 -9 66 10q4 1 6 -1q1 -2 -1 -4zM466 186q-33 -21 -58 -77q-18 -44 -38 -87.5t-48 -43.5q-16 0 -55 11t-59 11q-40 0 -107 -26q-4 -2 -4 3q-3 36 -13 67 q-25 74 -81 106q-3 2 0 5q81 113 81 253q0 48 -7.5 67t-29.5 30q-7 4 0 6q53 20 53 91q0 51 -26 51q-14 0 -30 -11q-3 0 -5 2q3 21 18 40q19 26 51 27q25 1 39 -5.5t29 -5.5q17 1 37 24q3 4 5 -1q3 -17 -25 -54q-31 -41 -31 -84q0 -31 8 -46q4 -9 23 -27q2 -2 0 -4 q-37 -33 -37 -152q0 -107 22 -192q23 -90 55 -90q37 0 72 120t35 237q0 88 -21 146q-32 -32 -59 -104q-24 -66 -24 -107q0 -34 35 -34q14 0 23 51q7 40 7 68q0 14 11 14q15 0 15 -28q0 -20 -12 -89q-13 -77 -22 -77q-5 0 -34 15q-34 18 -71 24q-2 41 -2 57q0 134 68 240 q61 81 121 161q1 2 4 2q2 -1 2 -4q-3 -63 41 -81q3 -1 2 -4q-28 -58 -28 -87q0 -44 52 -70q4 -2 1 -5q-41 -56 -41 -140q0 -109 58 -188q2 -4 0 -5z" />
<glyph unicode="&#xdb;" horiz-adv-x="470" d="M351 750q0 -3 -3 -6q-3 -2 -5 0q-37 25 -107 64q-7 -3 -107 -65q-2 -2 -5 1t-3 6q34 45 83 114q2 4 8 2q24 -7 49 0q3 1 6 -2q9 -12 84 -114zM466 186q-33 -21 -58 -77q-18 -44 -38 -87.5t-48 -43.5q-16 0 -55 11t-59 11q-40 0 -107 -26q-4 -2 -4 3q-3 36 -13 67 q-25 74 -81 106q-3 2 0 5q81 113 81 253q0 48 -7.5 67t-29.5 30q-7 4 0 6q53 20 53 91q0 51 -26 51q-14 0 -30 -11q-3 0 -5 2q3 21 18 40q19 26 51 27q25 1 39 -5.5t29 -5.5q17 1 37 24q3 4 5 -1q3 -17 -25 -54q-31 -41 -31 -84q0 -31 8 -46q4 -9 23 -27q2 -2 0 -4 q-37 -33 -37 -152q0 -107 22 -192q23 -90 55 -90q37 0 72 120t35 237q0 88 -21 146q-32 -32 -59 -104q-24 -66 -24 -107q0 -34 35 -34q14 0 23 51q7 40 7 68q0 14 11 14q15 0 15 -28q0 -20 -12 -89q-13 -77 -22 -77q-5 0 -34 15q-34 18 -71 24q-2 41 -2 57q0 134 68 240 q61 81 121 161q1 2 4 2q2 -1 2 -4q-3 -63 41 -81q3 -1 2 -4q-28 -58 -28 -87q0 -44 52 -70q4 -2 1 -5q-41 -56 -41 -140q0 -109 58 -188q2 -4 0 -5z" />
<glyph unicode="&#xdc;" horiz-adv-x="470" d="M356 792q-10 -6 -18 -14q-20 -19 -27 -45q-2 -7 -6 -1q-11 40 -46 60q-7 2 -1 10q10 6 19 13q20 19 27 45q5 5 7 -1q11 -39 45 -57q6 -8 0 -10zM217 792q-10 -6 -18 -14q-20 -19 -27 -45q-1 -6 -6 -1q-12 40 -46 60q-7 2 -1 10q10 6 19 13q20 19 27 45q6 4 7 -1 q10 -39 45 -57q6 -8 0 -10zM466 186q-33 -21 -58 -77q-18 -44 -38 -87.5t-48 -43.5q-16 0 -55 11t-59 11q-40 0 -107 -26q-4 -2 -4 3q-3 36 -13 67q-25 74 -81 106q-3 2 0 5q81 113 81 253q0 48 -7.5 67t-29.5 30q-7 4 0 6q53 20 53 91q0 51 -26 51q-14 0 -30 -11q-3 0 -5 2 q3 21 18 40q19 26 51 27q25 1 39 -5.5t29 -5.5q17 1 37 24q3 4 5 -1q3 -17 -25 -54q-31 -41 -31 -84q0 -31 8 -46q4 -9 23 -27q2 -2 0 -4q-37 -33 -37 -152q0 -107 22 -192q23 -90 55 -90q37 0 72 120t35 237q0 88 -21 146q-32 -32 -59 -104q-24 -66 -24 -107q0 -34 35 -34 q14 0 23 51q7 40 7 68q0 14 11 14q15 0 15 -28q0 -20 -12 -89q-13 -77 -22 -77q-5 0 -34 15q-34 18 -71 24q-2 41 -2 57q0 134 68 240q61 81 121 161q1 2 4 2q2 -1 2 -4q-3 -63 41 -81q3 -1 2 -4q-28 -58 -28 -87q0 -44 52 -70q4 -2 1 -5q-41 -56 -41 -140q0 -109 58 -188 q2 -4 0 -5z" />
<glyph unicode="&#xdd;" horiz-adv-x="526" d="M474 873q-13 -20 -13 -44q0 -12 3 -21q-1 -6 -5 -7q-18 3 -127 -70q-5 -5 -5 4l44 70q29 46 26 57q0 3 6 6q35 -9 66 10q4 1 6 -1q1 -2 -1 -4zM553 716q0 -33 -57.5 -84.5t-57.5 -81.5q0 -18 11 -28.5t23 -20.5q2 -2 0 -4q-24 -28 -47 -55q-29 -44 -29 -105 q0 -51 23 -121q30 -92 84 -140q3 -3 -1 -5q-14 -8 -25 -18q-26 -25 -34 -57q-2 -3 -4 -2q-28 8 -55 8q-21 0 -84.5 -15.5t-82.5 -15.5q-75 0 -109 60q-5 9 -43 125q-25 79 -74 108q-7 4 1 6q51 15 76 33q39 29 39 80q0 16 -6 43q1 3 5 4q50 -31 80 -41q11 -4 46 -13 q18 -5 26 -12q12 -10 27.5 -65.5t15.5 -94.5q0 -78 -22 -78q-14 0 -14 37q0 44 -13 89q-21 74 -65 74q-41 0 -41 -59q0 -61 41 -132q44 -78 94 -78q24 0 38 47q11 38 11 84q0 83 -59 193q-58 106 -94 106q-29 0 -39 -2q-3 -1 -4 2t2 4q33 23 33 75q0 38 -21 63t-45 25 t-47 -16q-3 0 -5 4q24 76 100 76q19 0 43.5 -9.5t41.5 -9.5q23 0 37 8q6 4 26 22q4 3 5 -1q3 -14 -23 -58q-29 -47 -29 -84q0 -63 64 -130q68 117 68 155q0 35 -26 35q-25 0 -43 -18q-3 0 -5 3q26 83 96 83q13 0 37.5 -10t43.5 -10q23 0 36 10q4 2 24 24q3 4 4.5 -1.5 t1.5 -10.5z" />
<glyph unicode="&#xde;" horiz-adv-x="456" d="M471 523q-40 -35 -93 -142q-42 -88 -74 -89q-34 -1 -60 20.5t-34 21.5q-17 -1 -36 -28t-18 -46q1 -24 23 -50.5t33 -26.5q8 0 16.5 10t8.5 16q0 4 -9 25t-9 24q-1 11 14 11q6 1 27 -29.5t21 -42.5t-31 -47.5t-39 -35.5q-7 -1 -46 20q1 -48 27 -76q10 -10 62 -43 q4 -3 -1 -5q-12 -7 -36 -40q-2 -5 -5 -2q-41 26 -94 26q-39 0 -86 -30t-53 -30q-3 2 -2 6q50 24 82 128q30 101 26 216q-3 86 -53 106q-2 0 -2 2q0 3 2 4q33 15 44 57q7 27 7 84t-13.5 92t-37.5 35q-41 0 -59 -31q-2 -3 -4 -1q-2 1 -2 4q18 88 98 88q19 0 53.5 -10t57.5 -10 q33 0 48 9q6 3 27 25q3 0 5 -2q-2 -48 -41 -73q-25 -10 -49 -21q-22 -14 -23 -34q37 1 65 -9t57 -9q40 1 65 13q11 6 49 34q5 4 5 -3q6 -29 17 -51q25 -51 68 -55q8 -1 2 -5zM324 504q-2 38 -100 34q-49 -2 -65 -24q-13 -18 -11 -66q1 -22 3 -70q33 50 67 54q6 0 3 -5 q-14 -17 -14 -24q1 -21 65 -18q15 1 35 51q18 47 17 68z" />
<glyph unicode="&#xdf;" horiz-adv-x="528" d="M521 268q-48 -47 -66 -111q-11 -52 -23 -103q-18 -57 -71 -95q-19 24 -73 53q-108 59 -108 190q0 48 20 48t20 -12v-10q0 -133 80 -140q22 0 42 55q19 51 19 96q0 49 -49 125q-56 86 -119 104q-3 1 -3 3t3 3q117 29 117 114q0 22 -30 34q-24 10 -50 10q-29 0 -57 -20 q-38 -28 -38 -80q0 -119 73 -160q-29 -10 -46 -46t-17 -79q0 -170 80 -219l2 -2q-1 -2 -2 -3q-8 -7 -14 -14q-14 -18 -17 -35q0 -7 -5 -2q-30 22 -74 22q-43 0 -88 -25t-56 -25q-3 0 -3 2t2 4q97 51 97 279q0 126 -81 140q-3 1 -3 3t3 3q87 42 87 164q0 75 -22 75 q-15 0 -30 -15q15 108 128 108q24 0 65.5 -5.5t54.5 -5.5q121 0 154 30q5 5 5 -2q0 -17 -27.5 -70.5t-27.5 -81.5q0 -32 13 -51q7 -10 33 -31q7 -7 -8 -12q-34 -8 -35 -9q-21 -8 -21 -25q0 -37 59 -100t105 -71q5 -2 2 -5z" />
<glyph unicode="&#xe0;" horiz-adv-x="418" d="M241 568q0 -9 -5 -4q-109 73 -127 70q-2 0 -5 7q3 9 3 21q0 24 -13 44q-2 2 -1 4q2 2 6 1q31 -19 66 -10q6 -1 6 -6q-3 -11 26 -57zM407 40q3 -3 -1 -5q-10 -5 -17 -12q-19 -17 -23 -43q-1 -5 -5 -1q-32 32 -80 32q-31 0 -80 -19.5t-64 -19.5q-29 0 -52 38l-38 74 q-25 42 -57 50q-3 1 -3 3q1 2 4 3q39 5 68 59q39 74 64 96q18 16 48.5 35t38.5 19q7 0 31.5 -21t37.5 -38q0 36 -23 46q-5 3 -1 6q25 18 25 44q0 23 -12 44q-15 26 -42 26q-38 0 -68 -28q-39 -37 -51 -113q-1 -3 -3 -4q-2 0 -3 3q-11 42 -11 59q0 32 17 69.5t17 39.5 q0 14 -16 14q-14 0 -25 -8q-3 0 -4 3q21 50 89 50q21 0 52 -5.5t44 -5.5q35 0 82 32q3 1 5 -3q-14 -70 -14 -81q0 -105 64 -140q4 -2 1 -5q-42 -47 -42 -141q0 -100 47 -152zM269 123q-12 -13 -30.5 -25t-24.5 -12t-11.5 8.5t-5.5 13.5q0 -3 32 38.5t32 70.5q0 7 -24 28.5 t-31 21.5q-14 0 -42 -38q-31 -41 -31 -67q0 -35 29 -71t65 -36q39 0 42 68z" />
<glyph unicode="&#xe1;" horiz-adv-x="418" d="M369 720q-13 -20 -13 -44q0 -12 3 -21q-1 -6 -5 -7q-18 3 -127 -70q-5 -5 -5 4l44 70q29 46 26 57q0 3 6 6q35 -9 66 10q4 1 6 -1q1 -2 -1 -4zM407 40q3 -3 -1 -5q-10 -5 -17 -12q-19 -17 -23 -43q-1 -5 -5 -1q-32 32 -80 32q-31 0 -80 -19.5t-64 -19.5q-29 0 -52 38 l-38 74q-25 42 -57 50q-3 1 -3 3q1 2 4 3q39 5 68 59q39 74 64 96q18 16 48.5 35t38.5 19q7 0 31.5 -21t37.5 -38q0 36 -23 46q-5 3 -1 6q25 18 25 44q0 23 -12 44q-15 26 -42 26q-38 0 -68 -28q-39 -37 -51 -113q-1 -3 -3 -4q-2 0 -3 3q-11 42 -11 59q0 32 17 69.5t17 39.5 q0 14 -16 14q-14 0 -25 -8q-3 0 -4 3q21 50 89 50q21 0 52 -5.5t44 -5.5q35 0 82 32q3 1 5 -3q-14 -70 -14 -81q0 -105 64 -140q4 -2 1 -5q-42 -47 -42 -141q0 -100 47 -152zM269 123q-12 -13 -30.5 -25t-24.5 -12t-11.5 8.5t-5.5 13.5q0 -3 32 38.5t32 70.5q0 7 -24 28.5 t-31 21.5q-14 0 -42 -38q-31 -41 -31 -67q0 -35 29 -71t65 -36q39 0 42 68z" />
<glyph unicode="&#xe2;" horiz-adv-x="418" d="M333 571q0 -3 -3 -6q-3 -2 -5 0q-37 25 -107 64q-7 -3 -107 -65q-2 -2 -5 1t-3 6q34 45 83 114q2 4 8 2q24 -7 49 0q3 1 6 -2q9 -12 84 -114zM407 40q3 -3 -1 -5q-10 -5 -17 -12q-19 -17 -23 -43q-1 -5 -5 -1q-32 32 -80 32q-31 0 -80 -19.5t-64 -19.5q-29 0 -52 38 l-38 74q-25 42 -57 50q-3 1 -3 3q1 2 4 3q39 5 68 59q39 74 64 96q18 16 48.5 35t38.5 19q7 0 31.5 -21t37.5 -38q0 36 -23 46q-5 3 -1 6q25 18 25 44q0 23 -12 44q-15 26 -42 26q-38 0 -68 -28q-39 -37 -51 -113q-1 -3 -3 -4q-2 0 -3 3q-11 42 -11 59q0 32 17 69.5t17 39.5 q0 14 -16 14q-14 0 -25 -8q-3 0 -4 3q21 50 89 50q21 0 52 -5.5t44 -5.5q35 0 82 32q3 1 5 -3q-14 -70 -14 -81q0 -105 64 -140q4 -2 1 -5q-42 -47 -42 -141q0 -100 47 -152zM269 123q-12 -13 -30.5 -25t-24.5 -12t-11.5 8.5t-5.5 13.5q0 -3 32 38.5t32 70.5q0 7 -24 28.5 t-31 21.5q-14 0 -42 -38q-31 -41 -31 -67q0 -35 29 -71t65 -36q39 0 42 68z" />
<glyph unicode="&#xe3;" horiz-adv-x="418" d="M344 668q-19 -78 -72 -78q-19 0 -41 8t-31 8q-31 0 -61 -23q-4 0 -6 4q17 78 72 78q19 0 40 -8t32 -8q26 0 61 23q3 0 6 -4zM407 40q3 -3 -1 -5q-10 -5 -17 -12q-19 -17 -23 -43q-1 -5 -5 -1q-32 32 -80 32q-31 0 -80 -19.5t-64 -19.5q-29 0 -52 38l-38 74q-25 42 -57 50 q-3 1 -3 3q1 2 4 3q39 5 68 59q39 74 64 96q18 16 48.5 35t38.5 19q7 0 31.5 -21t37.5 -38q0 36 -23 46q-5 3 -1 6q25 18 25 44q0 23 -12 44q-15 26 -42 26q-38 0 -68 -28q-39 -37 -51 -113q-1 -3 -3 -4q-2 0 -3 3q-11 42 -11 59q0 32 17 69.5t17 39.5q0 14 -16 14 q-14 0 -25 -8q-3 0 -4 3q21 50 89 50q21 0 52 -5.5t44 -5.5q35 0 82 32q3 1 5 -3q-14 -70 -14 -81q0 -105 64 -140q4 -2 1 -5q-42 -47 -42 -141q0 -100 47 -152zM269 123q-12 -13 -30.5 -25t-24.5 -12t-11.5 8.5t-5.5 13.5q0 -3 32 38.5t32 70.5q0 7 -24 28.5t-31 21.5 q-14 0 -42 -38q-31 -41 -31 -67q0 -35 29 -71t65 -36q39 0 42 68z" />
<glyph unicode="&#xe4;" horiz-adv-x="418" d="M349 634q-10 -6 -18 -14q-20 -19 -27 -45q-2 -7 -6 -1q-11 40 -46 60q-7 2 -1 10q10 6 19 13q20 19 27 45q5 5 7 -1q11 -39 45 -57q6 -8 0 -10zM210 634q-10 -6 -18 -14q-20 -19 -27 -45q-1 -6 -6 -1q-12 40 -46 60q-7 2 -1 10q10 6 19 13q20 19 27 45q6 4 7 -1 q10 -39 45 -57q6 -8 0 -10zM407 40q3 -3 -1 -5q-10 -5 -17 -12q-19 -17 -23 -43q-1 -5 -5 -1q-32 32 -80 32q-31 0 -80 -19.5t-64 -19.5q-29 0 -52 38l-38 74q-25 42 -57 50q-3 1 -3 3q1 2 4 3q39 5 68 59q39 74 64 96q18 16 48.5 35t38.5 19q7 0 31.5 -21t37.5 -38 q0 36 -23 46q-5 3 -1 6q25 18 25 44q0 23 -12 44q-15 26 -42 26q-38 0 -68 -28q-39 -37 -51 -113q-1 -3 -3 -4q-2 0 -3 3q-11 42 -11 59q0 32 17 69.5t17 39.5q0 14 -16 14q-14 0 -25 -8q-3 0 -4 3q21 50 89 50q21 0 52 -5.5t44 -5.5q35 0 82 32q3 1 5 -3q-14 -70 -14 -81 q0 -105 64 -140q4 -2 1 -5q-42 -47 -42 -141q0 -100 47 -152zM269 123q-12 -13 -30.5 -25t-24.5 -12t-11.5 8.5t-5.5 13.5q0 -3 32 38.5t32 70.5q0 7 -24 28.5t-31 21.5q-14 0 -42 -38q-31 -41 -31 -67q0 -35 29 -71t65 -36q39 0 42 68z" />
<glyph unicode="&#xe5;" horiz-adv-x="418" d="M298 651q0 -31 -22 -52.5t-53 -21.5t-53 21.5t-22 52.5t22 53t53 22t53 -22t22 -53zM407 40q3 -3 -1 -5q-10 -5 -17 -12q-19 -17 -23 -43q-1 -5 -5 -1q-32 32 -80 32q-31 0 -80 -19.5t-64 -19.5q-29 0 -52 38l-38 74q-25 42 -57 50q-3 1 -3 3q1 2 4 3q39 5 68 59 q39 74 64 96q18 16 48.5 35t38.5 19q7 0 31.5 -21t37.5 -38q0 36 -23 46q-5 3 -1 6q25 18 25 44q0 23 -12 44q-15 26 -42 26q-38 0 -68 -28q-39 -37 -51 -113q-1 -3 -3 -4q-2 0 -3 3q-11 42 -11 59q0 32 17 69.5t17 39.5q0 14 -16 14q-14 0 -25 -8q-3 0 -4 3q21 50 89 50 q21 0 52 -5.5t44 -5.5q35 0 82 32q3 1 5 -3q-14 -70 -14 -81q0 -105 64 -140q4 -2 1 -5q-42 -47 -42 -141q0 -100 47 -152zM261 651q0 16 -11 27t-27 11t-27 -11t-11 -27t11 -26.5t27 -10.5t27 10.5t11 26.5zM269 123q-12 -13 -30.5 -25t-24.5 -12t-11.5 8.5t-5.5 13.5 q0 -3 32 38.5t32 70.5q0 7 -24 28.5t-31 21.5q-14 0 -42 -38q-31 -41 -31 -67q0 -35 29 -71t65 -36q39 0 42 68z" />
<glyph unicode="&#xe6;" horiz-adv-x="644" d="M650 152q-40 -30 -63 -75q-14 -31 -29 -63q-16 -27 -46 -27t-84 -1t-66 -1l-28 16q-20 10 -53 10q-31 0 -80 -19.5t-64 -19.5q-29 0 -52 38l-38 74q-25 42 -57 50q-3 1 -3 3q1 2 4 3q39 5 68 59q39 74 64 96q18 16 48.5 35t38.5 19q7 0 31.5 -21t37.5 -38q0 36 -23 46 q-5 3 -1 6q25 18 25 44q0 23 -12 44q-15 26 -42 26q-38 0 -68 -28q-39 -37 -51 -113q-1 -3 -3 -4q-2 0 -3 3q-11 42 -11 59q0 32 17 69.5t17 39.5q0 14 -16 14q-14 0 -25 -8q-3 0 -4 3q21 50 89 50q21 0 52 -5.5t44 -5.5q14 0 50.5 11.5t46.5 11.5q13 0 48 -7.5t47 -7.5 q65 0 105 20q-7 -54 -7 -60q0 -54 45 -86q-28 -29 -27 -57q-38 -7 -70 -18q-77 -28 -115 -73q-3 12 -7 22q-11 23 -26 31q-7 -23 -7 -43q0 -45 27 -117q30 -81 61 -81q34 0 69.5 40.5t35.5 79.5q0 17 -8 52q-44 -4 -76.5 -31t-29.5 -27q-6 0 -11 8.5t-5 14.5q0 16 51 49 q58 36 123 51q10 2 10 -13q0 -97 56 -148zM487 425q0 23 -13.5 39.5t-30.5 16.5q-31 0 -65 -88l26 -39q47 14 65 28.5t18 42.5zM269 123q-12 -13 -30.5 -25t-24.5 -12t-11.5 8.5t-5.5 13.5q0 -3 32 38.5t32 70.5q0 7 -24 28.5t-31 21.5q-14 0 -42 -38q-31 -41 -31 -67 q0 -35 29 -71t65 -36q39 0 42 68z" />
<glyph unicode="&#xe7;" horiz-adv-x="432" d="M436 145q-41 -36 -65 -80l-28 -58q-14 -22 -40 -22q-16 0 -68 9v-5q0 -29 74 -61q-23 -20 -23 -65q0 -46 14 -67q-44 8 -68 6q-44 -4 -68 -27q-3 -6 -3 1q2 65 -46 87q-4 2 0 4q14 8 60 65q45 -26 45 -35q-6 -15 -23 -40q-2 -4 -2 1q2 11 2 35q0 4 -7 4q-3 0 -8 -9.5 t-5 -13.5q0 -41 37 -41q26 0 26 37q0 35 -15 54q-1 1 -37 34q-5 5 -5 38q-32 -5 -68 -19q-4 -2 -4 3q-3 40 -14 70q-28 72 -97 86q-6 2 -1 5q65 50 65 130q0 38 -32 55q-7 5 0 6q36 7 72.5 54.5t36.5 97.5q0 7 -5 7q-18 0 -31 -13q-3 0 -5 3q34 68 99 68q24 0 48.5 -7 t34.5 -7q32 0 61 19q4 0 5 -4q-11 -27 -11 -39t10 -30q13 -22 30 -29q3 -1 2 -4q-11 -30 -28 -54q-39 -56 -97 -68q-3 2 -3 5q44 43 44 93q0 62 -36 62q-27 0 -55.5 -37t-28.5 -83q0 -24 25 -52q3 -3 -1 -5q-47 -23 -47 -86q0 -40 30 -100.5t50 -60.5t44.5 42t24.5 78 q0 44 -16 44q-12 0 -26 -10q-17 -13 -17 -32q0 -18 4 -41t4 -24q0 -14 -15 -14q-10 0 -23 41q-14 45 -14 90q0 13 30 23l50 16q17 7 58 33q4 2 5 -2q7 -27 19 -53q29 -61 76 -104q3 -3 0 -4z" />
<glyph unicode="&#xe8;" horiz-adv-x="430" d="M239 578q0 -9 -5 -4q-109 73 -127 70q-2 0 -5 7q3 9 3 21q0 24 -13 44q-2 2 -1 4q2 2 6 1q31 -19 66 -10q6 -1 6 -6q-3 -11 26 -57zM431 152q-40 -30 -63 -75q-14 -31 -29 -63q-16 -27 -47 -27q-21 0 -56 9t-58 9q-49 0 -105 -23q5 58 5 60q0 34 -16 90q-24 85 -68 123 q41 28 80.5 98.5t39.5 116.5q0 24 -13 24q-17 0 -27 -12q9 27 34 47q31 24 73 24q28 0 51 -7.5t32 -7.5q38 0 78 20q-7 -54 -7 -60q0 -54 45 -86q-28 -29 -27 -57q-38 -7 -70 -18q-77 -28 -115 -73q-3 12 -7 22q-11 23 -26 31q-7 -23 -7 -43q0 -45 27 -117q30 -81 61 -81 q34 0 69.5 40.5t35.5 79.5q0 17 -8 52q-44 -4 -76.5 -31t-29.5 -27q-6 0 -11 8.5t-5 14.5q0 16 51 49q58 36 123 51q10 2 10 -13q0 -97 56 -148zM268 425q0 23 -13.5 39.5t-30.5 16.5q-31 0 -65 -88l26 -39q47 14 65 28.5t18 42.5z" />
<glyph unicode="&#xe9;" horiz-adv-x="430" d="M369 720q-13 -20 -13 -44q0 -12 3 -21q-1 -6 -5 -7q-18 3 -127 -70q-5 -5 -5 4l44 70q29 46 26 57q0 3 6 6q35 -9 66 10q4 1 6 -1q1 -2 -1 -4zM431 152q-40 -30 -63 -75q-14 -31 -29 -63q-16 -27 -47 -27q-21 0 -56 9t-58 9q-49 0 -105 -23q5 58 5 60q0 34 -16 90 q-24 85 -68 123q41 28 80.5 98.5t39.5 116.5q0 24 -13 24q-17 0 -27 -12q9 27 34 47q31 24 73 24q28 0 51 -7.5t32 -7.5q38 0 78 20q-7 -54 -7 -60q0 -54 45 -86q-28 -29 -27 -57q-38 -7 -70 -18q-77 -28 -115 -73q-3 12 -7 22q-11 23 -26 31q-7 -23 -7 -43q0 -45 27 -117 q30 -81 61 -81q34 0 69.5 40.5t35.5 79.5q0 17 -8 52q-44 -4 -76.5 -31t-29.5 -27q-6 0 -11 8.5t-5 14.5q0 16 51 49q58 36 123 51q10 2 10 -13q0 -97 56 -148zM268 425q0 23 -13.5 39.5t-30.5 16.5q-31 0 -65 -88l26 -39q47 14 65 28.5t18 42.5z" />
<glyph unicode="&#xea;" horiz-adv-x="430" d="M327 571q0 -3 -3 -6q-3 -2 -5 0q-37 25 -107 64q-7 -3 -107 -65q-2 -2 -5 1t-3 6q34 45 83 114q2 4 8 2q24 -7 49 0q3 1 6 -2q9 -12 84 -114zM431 152q-40 -30 -63 -75q-14 -31 -29 -63q-16 -27 -47 -27q-21 0 -56 9t-58 9q-49 0 -105 -23q5 58 5 60q0 34 -16 90 q-24 85 -68 123q41 28 80.5 98.5t39.5 116.5q0 24 -13 24q-17 0 -27 -12q9 27 34 47q31 24 73 24q28 0 51 -7.5t32 -7.5q38 0 78 20q-7 -54 -7 -60q0 -54 45 -86q-28 -29 -27 -57q-38 -7 -70 -18q-77 -28 -115 -73q-3 12 -7 22q-11 23 -26 31q-7 -23 -7 -43q0 -45 27 -117 q30 -81 61 -81q34 0 69.5 40.5t35.5 79.5q0 17 -8 52q-44 -4 -76.5 -31t-29.5 -27q-6 0 -11 8.5t-5 14.5q0 16 51 49q58 36 123 51q10 2 10 -13q0 -97 56 -148zM268 425q0 23 -13.5 39.5t-30.5 16.5q-31 0 -65 -88l26 -39q47 14 65 28.5t18 42.5z" />
<glyph unicode="&#xeb;" horiz-adv-x="430" d="M340 634q-10 -6 -18 -14q-20 -19 -27 -45q-2 -7 -6 -1q-11 40 -46 60q-7 2 -1 10q10 6 19 13q20 19 27 45q5 5 7 -1q11 -39 45 -57q6 -8 0 -10zM201 634q-10 -6 -18 -14q-20 -19 -27 -45q-1 -6 -6 -1q-12 40 -46 60q-7 2 -1 10q10 6 19 13q20 19 27 45q6 4 7 -1 q10 -39 45 -57q6 -8 0 -10zM431 152q-40 -30 -63 -75q-14 -31 -29 -63q-16 -27 -47 -27q-21 0 -56 9t-58 9q-49 0 -105 -23q5 58 5 60q0 34 -16 90q-24 85 -68 123q41 28 80.5 98.5t39.5 116.5q0 24 -13 24q-17 0 -27 -12q9 27 34 47q31 24 73 24q28 0 51 -7.5t32 -7.5 q38 0 78 20q-7 -54 -7 -60q0 -54 45 -86q-28 -29 -27 -57q-38 -7 -70 -18q-77 -28 -115 -73q-3 12 -7 22q-11 23 -26 31q-7 -23 -7 -43q0 -45 27 -117q30 -81 61 -81q34 0 69.5 40.5t35.5 79.5q0 17 -8 52q-44 -4 -76.5 -31t-29.5 -27q-6 0 -11 8.5t-5 14.5q0 16 51 49 q58 36 123 51q10 2 10 -13q0 -97 56 -148zM268 425q0 23 -13.5 39.5t-30.5 16.5q-31 0 -65 -88l26 -39q47 14 65 28.5t18 42.5z" />
<glyph unicode="&#xec;" horiz-adv-x="228" d="M135 570q0 -9 -5 -4q-109 73 -127 70q-2 0 -5 7q3 9 3 21q0 24 -13 44q-2 2 -1 4q2 2 6 1q31 -19 66 -10q6 -1 6 -6q-3 -11 26 -57zM230 22q-9 -6 -15 -12q-15 -15 -18 -30q-2 -5 -5 -2q-33 21 -75 21q-35 0 -84 -22.5t-58 -22.5q-3 0 -4 3q0 2 3 3q46 18 74 84 q31 72 27 177q-3 83 -42 105q-4 2 -1 5q53 41 53 100q0 30 -9 47t-20 17q-16 0 -30 -12q-3 0 -5 3q19 64 74 64q13 0 31 -5t33 -5q25 0 51 25q3 3 5 -1q3 -7 3 -14q0 -16 -33.5 -56.5t-33.5 -73.5q0 -56 46 -80q5 -4 1 -6q-39 -22 -39 -112q0 -130 71 -195q4 -3 0 -5z" />
<glyph unicode="&#xed;" horiz-adv-x="228" d="M264 720q-13 -20 -13 -44q0 -12 3 -21q-1 -6 -5 -7q-18 3 -127 -70q-5 -5 -5 4l44 70q29 46 26 57q0 3 6 6q35 -9 66 10q4 1 6 -1q1 -2 -1 -4zM230 22q-9 -6 -15 -12q-15 -15 -18 -30q-2 -5 -5 -2q-33 21 -75 21q-35 0 -84 -22.5t-58 -22.5q-3 0 -4 3q0 2 3 3 q46 18 74 84q31 72 27 177q-3 83 -42 105q-4 2 -1 5q53 41 53 100q0 30 -9 47t-20 17q-16 0 -30 -12q-3 0 -5 3q19 64 74 64q13 0 31 -5t33 -5q25 0 51 25q3 3 5 -1q3 -7 3 -14q0 -16 -33.5 -56.5t-33.5 -73.5q0 -56 46 -80q5 -4 1 -6q-39 -22 -39 -112q0 -130 71 -195 q4 -3 0 -5z" />
<glyph unicode="&#xee;" horiz-adv-x="228" d="M235 571q0 -3 -3 -6q-3 -2 -5 0q-37 25 -107 64q-7 -3 -107 -65q-2 -2 -5 1t-3 6q34 45 83 114q2 4 8 2q24 -7 49 0q3 1 6 -2q9 -12 84 -114zM230 22q-9 -6 -15 -12q-15 -15 -18 -30q-2 -5 -5 -2q-33 21 -75 21q-35 0 -84 -22.5t-58 -22.5q-3 0 -4 3q0 2 3 3q46 18 74 84 q31 72 27 177q-3 83 -42 105q-4 2 -1 5q53 41 53 100q0 30 -9 47t-20 17q-16 0 -30 -12q-3 0 -5 3q19 64 74 64q13 0 31 -5t33 -5q25 0 51 25q3 3 5 -1q3 -7 3 -14q0 -16 -33.5 -56.5t-33.5 -73.5q0 -56 46 -80q5 -4 1 -6q-39 -22 -39 -112q0 -130 71 -195q4 -3 0 -5z" />
<glyph unicode="&#xef;" horiz-adv-x="228" d="M235 634q-10 -6 -18 -14q-20 -19 -27 -45q-2 -7 -6 -1q-11 40 -46 60q-7 2 -1 10q10 6 19 13q20 19 27 45q5 5 7 -1q11 -39 45 -57q6 -8 0 -10zM96 634q-10 -6 -18 -14q-20 -19 -27 -45q-1 -6 -6 -1q-12 40 -46 60q-7 2 -1 10q10 6 19 13q20 19 27 45q6 4 7 -1 q10 -39 45 -57q6 -8 0 -10zM230 22q-9 -6 -15 -12q-15 -15 -18 -30q-2 -5 -5 -2q-33 21 -75 21q-35 0 -84 -22.5t-58 -22.5q-3 0 -4 3q0 2 3 3q46 18 74 84q31 72 27 177q-3 83 -42 105q-4 2 -1 5q53 41 53 100q0 30 -9 47t-20 17q-16 0 -30 -12q-3 0 -5 3q19 64 74 64 q13 0 31 -5t33 -5q25 0 51 25q3 3 5 -1q3 -7 3 -14q0 -16 -33.5 -56.5t-33.5 -73.5q0 -56 46 -80q5 -4 1 -6q-39 -22 -39 -112q0 -130 71 -195q4 -3 0 -5z" />
<glyph unicode="&#xf0;" horiz-adv-x="508" d="M504 200q3 -3 -1 -5q-43 -19 -75 -85q-25 -52 -25 -78q0 -12 3 -26q5 -20 6 -26q0 -4 -4 -3q-69 23 -144 23q-24 0 -62 -8.5t-54 -8.5q-39 0 -64 50q-20 51 -39 103q-26 64 -60 86q-4 3 1 6q110 56 129 232q0 6 5 2q40 -35 96 -35q20 0 35 5q26 9 27 9l66 -97 q-15 104 -79 150q-2 2 0 5q22 24 22 45q0 23 -9 41q-11 -17 -37 -55q-10 -16 -20.5 -33t-24.5 -27q-1 -1 -4 1q-29 25 -81 59q-37 24 -37 31q0 3 22.5 49t22.5 71q0 21 -6 48q1 3 5 3q35 -30 70 -30q17 0 40.5 5.5t50.5 5.5q20 0 35 -6l24 29q8 9 18 9q26 0 26 -25 q0 -9 -6 -16l-22 -27q6 -9 17 -30q-1 -3 -5 -3q-7 7 -25 7q-6 0 -6 -17q0 -76 86 -109q3 -2 2 -4q-20 -36 -20 -60q0 -121 101 -261zM246 625q-24 21 -41 21q-12 0 -24.5 -27t-24.5 -53l25 -20q1 2 3 4zM334 225q-4 58 -42 99q-35 37 -74 37q-77 0 -77 -85q0 -60 26 -115 q19 -41 50 -73q24 -26 32 -26q10 0 34 21q28 25 38 51q-29 -3 -59 -6q-31 -3 -35 1q-9 7 -31 60q-26 61 -26 98q0 24 16 24q11 0 24 -46q15 -54 44 -76q6 -5 34 6q32 11 46 30z" />
<glyph unicode="&#xf1;" horiz-adv-x="442" d="M302 659q-19 -78 -72 -78q-19 0 -41 8t-31 8q-31 0 -61 -23q-4 0 -6 4q17 78 72 78q19 0 40 -8t32 -8q26 0 61 23q3 0 6 -4zM437 244q-37 -53 -52 -158q-23 -166 -24 -170q-22 -91 -80 -129q-3 -2 -5 0t0 5q44 67 44 142q0 33 -12 52t-27 18t-40 -13.5t-32 -14.5 q-3 -1 -5 2q-1 3 2 4q37 24 64 83q33 74 33 176q0 48 -12 102q-16 75 -49 112q-25 -20 -56 -59.5t-31 -49.5q0 -39 23 -87q15 -34 41 -72l23 -33q0 -6 -8.5 -15t-13.5 -9q-6 0 -34 24q-33 29 -51 60q-4 -118 62 -189q3 -3 -1 -5q-7 -4 -13 -9q-14 -12 -18 -28q-1 -5 -5 -1 q-26 16 -49 16q-26 0 -68 -18.5t-54 -18.5q-3 0 -3 2q-1 3 2 4q81 41 81 242q0 36 -13 71q-14 41 -40 59q-3 4 1 5q52 29 52 102q0 50 -27 50q-15 0 -32 -15q-3 0 -5 3q5 21 21 41.5t34 20.5q14 0 28 -5t23 -5q23 0 50 25q5 4 5 -2q1 -18 -22.5 -58t-23.5 -95q0 -12 33 42 q36 58 55 112q1 4 5 2q35 -20 69 -20q20 0 36 8q4 2 4 -3q6 -58 19 -109q32 -123 96 -190q2 -2 0 -4z" />
<glyph unicode="&#xf2;" horiz-adv-x="444" d="M232 589q0 -9 -5 -4q-109 73 -127 70q-2 0 -5 7q3 9 3 21q0 24 -13 44q-2 2 -1 4q2 2 6 1q31 -19 66 -10q6 -1 6 -6q-3 -11 26 -57zM445 215q-39 -32 -66 -97l-38 -96q-22 -44 -56 -44q-15 0 -44.5 10t-42.5 10q-58 0 -109 -23q-4 -2 -4 3q-5 48 -15 91q-25 102 -72 159 v4q40 33 83 114.5t43 129.5q0 22 -7 22q-10 0 -22 -12q-5 -3 -5 2q3 24 25 46q26 25 60 25q22 0 51 -9t44 -9q40 0 75 45q3 0 5 -3q-16 -59 -16 -92q0 -47 23 -119q32 -98 88 -153q3 -3 0 -4zM289 259q0 99 -26 165q-21 53 -40 53t-46 -60q-33 -74 -33 -167q0 -49 18 -106 q21 -67 50 -67q36 0 59 72q18 57 18 110zM263 269q-25 -2 -34 -23q-4 -8 -8 -37q0 -3 -5 -3t-5 3q-6 37 -7 38q-8 20 -35 22q-4 0 -4 5t4 5q26 2 34 23q4 19 8 37q1 3 5 3t5 -3q7 -37 8 -37q8 -22 34 -23q6 0 6 -5q0 -4 -6 -5z" />
<glyph unicode="&#xf3;" horiz-adv-x="444" d="M369 720q-13 -20 -13 -44q0 -12 3 -21q-1 -6 -5 -7q-18 3 -127 -70q-5 -5 -5 4l44 70q29 46 26 57q0 3 6 6q35 -9 66 10q4 1 6 -1q1 -2 -1 -4zM445 215q-39 -32 -66 -97l-38 -96q-22 -44 -56 -44q-15 0 -44.5 10t-42.5 10q-58 0 -109 -23q-4 -2 -4 3q-5 48 -15 91 q-25 102 -72 159v4q40 33 83 114.5t43 129.5q0 22 -7 22q-10 0 -22 -12q-5 -3 -5 2q3 24 25 46q26 25 60 25q22 0 51 -9t44 -9q40 0 75 45q3 0 5 -3q-16 -59 -16 -92q0 -47 23 -119q32 -98 88 -153q3 -3 0 -4zM289 259q0 99 -26 165q-21 53 -40 53t-46 -60q-33 -74 -33 -167 q0 -49 18 -106q21 -67 50 -67q36 0 59 72q18 57 18 110zM263 269q-25 -2 -34 -23q-4 -8 -8 -37q0 -3 -5 -3t-5 3q-6 37 -7 38q-8 20 -35 22q-4 0 -4 5t4 5q26 2 34 23q4 19 8 37q1 3 5 3t5 -3q7 -37 8 -37q8 -22 34 -23q6 0 6 -5q0 -4 -6 -5z" />
<glyph unicode="&#xf4;" horiz-adv-x="444" d="M445 215q-39 -32 -66 -97l-38 -96q-22 -44 -56 -44q-15 0 -44.5 10t-42.5 10q-58 0 -109 -23q-4 -2 -4 3q-5 48 -15 91q-25 102 -72 159v4q40 33 83 114.5t43 129.5q0 22 -7 22q-10 0 -22 -12q-5 -3 -5 2q3 24 25 46q26 25 60 25q22 0 51 -9t44 -9q28 0 56 25 q-37 25 -106 63q-7 -3 -107 -65q-2 -2 -5 1t-3 6q34 45 83 114q2 4 8 2q24 -7 49 0q3 1 6 -2q15 -22 82 -112q4 4 12 13q3 0 5 -3q-16 -59 -16 -92q0 -47 23 -119q32 -98 88 -153q3 -3 0 -4zM289 259q0 99 -26 165q-21 53 -40 53t-46 -60q-33 -74 -33 -167q0 -49 18 -106 q21 -67 50 -67q36 0 59 72q18 57 18 110zM263 269q-25 -2 -34 -23q-4 -8 -8 -37q0 -3 -5 -3t-5 3q-6 37 -7 38q-8 20 -35 22q-4 0 -4 5t4 5q26 2 34 23q4 19 8 37q1 3 5 3t5 -3q7 -37 8 -37q8 -22 34 -23q6 0 6 -5q0 -4 -6 -5z" />
<glyph unicode="&#xf5;" horiz-adv-x="444" d="M336 680q-19 -78 -72 -78q-19 0 -41 8t-31 8q-31 0 -61 -23q-4 0 -6 4q17 78 72 78q19 0 40 -8t32 -8q26 0 61 23q3 0 6 -4zM445 215q-39 -32 -66 -97l-38 -96q-22 -44 -56 -44q-15 0 -44.5 10t-42.5 10q-58 0 -109 -23q-4 -2 -4 3q-5 48 -15 91q-25 102 -72 159v4 q40 33 83 114.5t43 129.5q0 22 -7 22q-10 0 -22 -12q-5 -3 -5 2q3 24 25 46q26 25 60 25q22 0 51 -9t44 -9q40 0 75 45q3 0 5 -3q-16 -59 -16 -92q0 -47 23 -119q32 -98 88 -153q3 -3 0 -4zM289 259q0 99 -26 165q-21 53 -40 53t-46 -60q-33 -74 -33 -167q0 -49 18 -106 q21 -67 50 -67q36 0 59 72q18 57 18 110zM263 269q-25 -2 -34 -23q-4 -8 -8 -37q0 -3 -5 -3t-5 3q-6 37 -7 38q-8 20 -35 22q-4 0 -4 5t4 5q26 2 34 23q4 19 8 37q1 3 5 3t5 -3q7 -37 8 -37q8 -22 34 -23q6 0 6 -5q0 -4 -6 -5z" />
<glyph unicode="&#xf6;" horiz-adv-x="444" d="M334 634q-10 -6 -18 -14q-20 -19 -27 -45q-2 -7 -6 -1q-11 40 -46 60q-7 2 -1 10q10 6 19 13q20 19 27 45q5 5 7 -1q11 -39 45 -57q6 -8 0 -10zM195 634q-10 -6 -18 -14q-20 -19 -27 -45q-1 -6 -6 -1q-12 40 -46 60q-7 2 -1 10q10 6 19 13q20 19 27 45q6 4 7 -1 q10 -39 45 -57q6 -8 0 -10zM445 215q-39 -32 -66 -97l-38 -96q-22 -44 -56 -44q-15 0 -44.5 10t-42.5 10q-58 0 -109 -23q-4 -2 -4 3q-5 48 -15 91q-25 102 -72 159v4q40 33 83 114.5t43 129.5q0 22 -7 22q-10 0 -22 -12q-5 -3 -5 2q3 24 25 46q26 25 60 25q22 0 51 -9 t44 -9q40 0 75 45q3 0 5 -3q-16 -59 -16 -92q0 -47 23 -119q32 -98 88 -153q3 -3 0 -4zM289 259q0 99 -26 165q-21 53 -40 53t-46 -60q-33 -74 -33 -167q0 -49 18 -106q21 -67 50 -67q36 0 59 72q18 57 18 110zM263 269q-25 -2 -34 -23q-4 -8 -8 -37q0 -3 -5 -3t-5 3 q-6 37 -7 38q-8 20 -35 22q-4 0 -4 5t4 5q26 2 34 23q4 19 8 37q1 3 5 3t5 -3q7 -37 8 -37q8 -22 34 -23q6 0 6 -5q0 -4 -6 -5z" />
<glyph unicode="&#xf7;" horiz-adv-x="420" d="M268 451q-12 -7 -22 -16q-23 -22 -31 -53q0 -7 -8 -1q-12 46 -53 70q-9 0 -1 10q12 7 22 16q24 22 32 52q8 10 8 -1q12 -46 53 -67q8 -10 0 -10zM391 393q-18 -33 -18 -72q0 -37 14 -69q0 -3 -4 -4q-87 42 -178 42q-65 0 -176 -38q-3 1 -4 4q18 34 18 76q0 33 -10 61 q0 3 4 4q66 -38 172 -38q66 0 178 38q3 0 4 -4zM268 187q-12 -7 -22 -16q-23 -22 -31 -53q0 -7 -8 -1q-12 46 -53 70q-9 0 -1 10q12 7 22 16q24 22 32 52q8 10 8 -1q12 -46 53 -67q8 -10 0 -10z" />
<glyph unicode="&#xf8;" horiz-adv-x="444" d="M445 215q-39 -32 -66 -97l-38 -96q-22 -44 -56 -44q-15 0 -44.5 10t-42.5 10q-58 0 -109 -23q-4 -2 -4 3l-13 78l-58 -77q-5 -6 -12 -6q-15 0 -15 15q0 5 3 9l73 96q-24 85 -65 135v4q40 33 83 114.5t43 129.5q0 22 -7 22q-10 0 -22 -12q-5 -3 -5 2q3 24 25 46 q26 25 60 25q22 0 51 -9t44 -9q40 0 75 45q3 0 5 -3q-16 -59 -16 -92q0 -13 3 -34l73 96q5 6 12 6q15 0 15 -15q0 -5 -3 -9l-89 -118q30 -129 100 -198q3 -3 0 -4zM277 377q-10 47 -28 76q-15 24 -26 24q-19 0 -46 -60q-33 -74 -33 -167q0 -21 4 -44zM289 259q0 40 -5 78 l-128 -171q21 -89 56 -89q36 0 59 72q18 57 18 110z" />
<glyph unicode="&#xf9;" horiz-adv-x="421" d="M235 586q0 -9 -5 -4q-109 73 -127 70q-2 0 -5 7q3 9 3 21q0 24 -13 44q-2 2 -1 4q2 2 6 1q31 -19 66 -10q6 -1 6 -6q-3 -11 26 -57zM407 251q-52 -53 -52 -104q0 -39 12 -62q10 -19 39 -47q3 -3 -1 -5q-9 -5 -16 -11q-16 -16 -20 -36q-16 3 -31 11q-35 18 -56 54 q-35 -62 -64 -62q-14 0 -35 3.5t-30 3.5q-30 0 -68 -13q-4 -2 -4 3q0 36 -8 70q-20 82 -77 141q-2 2 0 4q39 60 51 90q23 58 23 138q0 74 -23 74q-13 0 -25 -13q-2 -2 -4 -1t-1 4q4 20 17 37q18 22 42 22q19 0 37 -4.5t23 -4.5q26 0 53 24q3 0 5 -2q0 -28 -18 -56 q-23 -37 -32 -67q-17 -60 -17 -167q0 -97 22 -144q15 -33 34 -33q30 0 50 30q22 34 22 97q0 9 -28 72.5t-28 65.5q0 5 10 14.5t14 9.5q3 0 23.5 -28.5t32.5 -51.5q2 52 -1 106q-7 85 -29 85q-16 0 -34 -7q-3 1 -4 4q29 56 69 56q13 0 31.5 -6t23.5 -6q29 0 55 37q3 5 5 -1 q2 -9 2 -17q0 -16 -27 -63t-27 -109q0 -90 64 -130l2 -2q-1 -2 -2 -3z" />
<glyph unicode="&#xfa;" horiz-adv-x="421" d="M369 720q-13 -20 -13 -44q0 -12 3 -21q-1 -6 -5 -7q-18 3 -127 -70q-5 -5 -5 4l44 70q29 46 26 57q0 3 6 6q35 -9 66 10q4 1 6 -1q1 -2 -1 -4zM407 251q-52 -53 -52 -104q0 -39 12 -62q10 -19 39 -47q3 -3 -1 -5q-9 -5 -16 -11q-16 -16 -20 -36q-16 3 -31 11 q-35 18 -56 54q-35 -62 -64 -62q-14 0 -35 3.5t-30 3.5q-30 0 -68 -13q-4 -2 -4 3q0 36 -8 70q-20 82 -77 141q-2 2 0 4q39 60 51 90q23 58 23 138q0 74 -23 74q-13 0 -25 -13q-2 -2 -4 -1t-1 4q4 20 17 37q18 22 42 22q19 0 37 -4.5t23 -4.5q26 0 53 24q3 0 5 -2 q0 -28 -18 -56q-23 -37 -32 -67q-17 -60 -17 -167q0 -97 22 -144q15 -33 34 -33q30 0 50 30q22 34 22 97q0 9 -28 72.5t-28 65.5q0 5 10 14.5t14 9.5q3 0 23.5 -28.5t32.5 -51.5q2 52 -1 106q-7 85 -29 85q-16 0 -34 -7q-3 1 -4 4q29 56 69 56q13 0 31.5 -6t23.5 -6 q29 0 55 37q3 5 5 -1q2 -9 2 -17q0 -16 -27 -63t-27 -109q0 -90 64 -130l2 -2q-1 -2 -2 -3z" />
<glyph unicode="&#xfb;" horiz-adv-x="421" d="M333 571q0 -3 -3 -6q-3 -2 -5 0q-37 25 -107 64q-7 -3 -107 -65q-2 -2 -5 1t-3 6q34 45 83 114q2 4 8 2q24 -7 49 0q3 1 6 -2q9 -12 84 -114zM407 251q-52 -53 -52 -104q0 -39 12 -62q10 -19 39 -47q3 -3 -1 -5q-9 -5 -16 -11q-16 -16 -20 -36q-16 3 -31 11 q-35 18 -56 54q-35 -62 -64 -62q-14 0 -35 3.5t-30 3.5q-30 0 -68 -13q-4 -2 -4 3q0 36 -8 70q-20 82 -77 141q-2 2 0 4q39 60 51 90q23 58 23 138q0 74 -23 74q-13 0 -25 -13q-2 -2 -4 -1t-1 4q4 20 17 37q18 22 42 22q19 0 37 -4.5t23 -4.5q26 0 53 24q3 0 5 -2 q0 -28 -18 -56q-23 -37 -32 -67q-17 -60 -17 -167q0 -97 22 -144q15 -33 34 -33q30 0 50 30q22 34 22 97q0 9 -28 72.5t-28 65.5q0 5 10 14.5t14 9.5q3 0 23.5 -28.5t32.5 -51.5q2 52 -1 106q-7 85 -29 85q-16 0 -34 -7q-3 1 -4 4q29 56 69 56q13 0 31.5 -6t23.5 -6 q29 0 55 37q3 5 5 -1q2 -9 2 -17q0 -16 -27 -63t-27 -109q0 -90 64 -130l2 -2q-1 -2 -2 -3z" />
<glyph unicode="&#xfc;" horiz-adv-x="421" d="M335 634q-10 -6 -18 -14q-20 -19 -27 -45q-2 -7 -6 -1q-11 40 -46 60q-7 2 -1 10q10 6 19 13q20 19 27 45q5 5 7 -1q11 -39 45 -57q6 -8 0 -10zM196 634q-10 -6 -18 -14q-20 -19 -27 -45q-1 -6 -6 -1q-12 40 -46 60q-7 2 -1 10q10 6 19 13q20 19 27 45q6 4 7 -1 q10 -39 45 -57q6 -8 0 -10zM407 251q-52 -53 -52 -104q0 -39 12 -62q10 -19 39 -47q3 -3 -1 -5q-9 -5 -16 -11q-16 -16 -20 -36q-16 3 -31 11q-35 18 -56 54q-35 -62 -64 -62q-14 0 -35 3.5t-30 3.5q-30 0 -68 -13q-4 -2 -4 3q0 36 -8 70q-20 82 -77 141q-2 2 0 4 q39 60 51 90q23 58 23 138q0 74 -23 74q-13 0 -25 -13q-2 -2 -4 -1t-1 4q4 20 17 37q18 22 42 22q19 0 37 -4.5t23 -4.5q26 0 53 24q3 0 5 -2q0 -28 -18 -56q-23 -37 -32 -67q-17 -60 -17 -167q0 -97 22 -144q15 -33 34 -33q30 0 50 30q22 34 22 97q0 9 -28 72.5t-28 65.5 q0 5 10 14.5t14 9.5q3 0 23.5 -28.5t32.5 -51.5q2 52 -1 106q-7 85 -29 85q-16 0 -34 -7q-3 1 -4 4q29 56 69 56q13 0 31.5 -6t23.5 -6q29 0 55 37q3 5 5 -1q2 -9 2 -17q0 -16 -27 -63t-27 -109q0 -90 64 -130l2 -2q-1 -2 -2 -3z" />
<glyph unicode="&#xfd;" horiz-adv-x="422" d="M359 720q-13 -20 -13 -44q0 -12 3 -21q-1 -6 -5 -7q-18 3 -127 -70q-5 -5 -5 4l44 70q29 46 26 57q0 3 6 6q35 -9 66 10q4 1 6 -1q1 -2 -1 -4zM412 36q-44 -37 -64 -116l-28 -120q-19 -56 -64 -56q-21 0 -47 6t-39 6q-36 0 -80 -24q-4 -2 -4 2q-9 35 -22 64 q-31 69 -79 95q-2 1 -2 3t2 3q22 13 39 28q39 35 44 76q0 5 4 3q65 -21 125 -21q17 0 33 2q9 -38 9 -53q0 -18 -9 -48q-10 -35 -23 -35q-16 0 -16 10q0 -1 5.5 17.5t5.5 33.5q0 19 -6 25q-10 10 -52 10q-15 0 -23 -5q-2 -1 -2 -21q0 -46 29 -80q24 -26 41 -26q23 0 48 47 q36 68 38 200q-11 -14 -22 -27q-16 -20 -34 -20q-11 0 -40 12.5t-38 12.5q-22 0 -48 -19q-5 -4 -5 2q7 49 7 53q0 36 -32 85q-29 45 -62 68q-3 1 0 4q69 79 69 174q0 85 -23 85q-18 0 -31 -15q-3 -1 -5 3q15 65 62 65q21 0 40.5 -4t23.5 -4q20 0 47 27q3 0 5 -2 q-1 -18 -17 -47q-21 -37 -30 -67q-16 -53 -16 -133q0 -78 14 -131q19 -74 61 -74q26 0 47 41q19 38 19 78q0 22 -36 81.5l-36 59.5q0 6 9 13t15 7q14 0 70 -83v58q0 57 -3 79q-8 51 -36 51q-16 0 -35 -12q-5 -3 -5 2q-1 15 20 36t43 21q14 0 36 -4.5t29 -4.5q27 0 52 27 q5 5 5 -2q1 -28 -22.5 -72t-23.5 -114q0 -75 47 -110q2 -2 1 -4q-28 -50 -28 -105q0 -61 43 -113q2 -2 0 -4z" />
<glyph unicode="&#xfe;" horiz-adv-x="404" d="M412 214q-39 -28 -66 -89q-37 -83 -43 -91q-29 -43 -84 -44q-49 -1 -100 56q-5 -150 56 -208q3 -3 0 -4q-27 -23 -24 -44q0 -4 -4 -3q-37 17 -70 17q-34 0 -67.5 -17.5t-44.5 -17.5q-3 0 -4 2t2 4q39 22 64 118q30 110 27 274q-2 97 -42 145q-3 3 1 5q49 80 49 263 q0 41 -17 40q-12 0 -30 -18q-5 -5 -5 2q3 27 17 48q16 26 39 26q18 -1 54 -2q15 0 38 23q3 0 5 -2q-1 -18 -12 -48q-15 -36 -21 -71q-11 -60 -11 -156q49 57 77 130q2 3 4 2q27 -12 56 -12q31 0 56 15q5 3 5 -3q2 -74 12 -134q24 -146 83 -202q3 -3 0 -4zM276 279 q0 46 -14 106q-14 65 -28 65q-15 0 -46.5 -56t-30.5 -93q1 -39 24.5 -85t23.5 -44q0 -8 -7.5 -14.5t-16.5 -6.5q-10 -1 -56 75q3 -54 22 -98q19 -48 43 -47q35 1 63 79q23 67 23 119z" />
<glyph unicode="&#xff;" horiz-adv-x="422" d="M334 643q-10 -6 -18 -14q-20 -19 -27 -45q-2 -7 -6 -1q-11 40 -46 60q-7 2 -1 10q10 6 19 13q20 19 27 45q5 5 7 -1q11 -39 45 -57q6 -8 0 -10zM195 643q-10 -6 -18 -14q-20 -19 -27 -45q-1 -6 -6 -1q-12 40 -46 60q-7 2 -1 10q10 6 19 13q20 19 27 45q6 4 7 -1 q10 -39 45 -57q6 -8 0 -10zM412 36q-44 -37 -64 -116l-28 -120q-19 -56 -64 -56q-21 0 -47 6t-39 6q-36 0 -80 -24q-4 -2 -4 2q-9 35 -22 64q-31 69 -79 95q-2 1 -2 3t2 3q22 13 39 28q39 35 44 76q0 5 4 3q65 -21 125 -21q17 0 33 2q9 -38 9 -53q0 -18 -9 -48 q-10 -35 -23 -35q-16 0 -16 10q0 -1 5.5 17.5t5.5 33.5q0 19 -6 25q-10 10 -52 10q-15 0 -23 -5q-2 -1 -2 -21q0 -46 29 -80q24 -26 41 -26q23 0 48 47q36 68 38 200q-11 -14 -22 -27q-16 -20 -34 -20q-11 0 -40 12.5t-38 12.5q-22 0 -48 -19q-5 -4 -5 2q7 49 7 53 q0 36 -32 85q-29 45 -62 68q-3 1 0 4q69 79 69 174q0 85 -23 85q-18 0 -31 -15q-3 -1 -5 3q15 65 62 65q21 0 40.5 -4t23.5 -4q20 0 47 27q3 0 5 -2q-1 -18 -17 -47q-21 -37 -30 -67q-16 -53 -16 -133q0 -78 14 -131q19 -74 61 -74q26 0 47 41q19 38 19 78q0 22 -36 81.5 l-36 59.5q0 6 9 13t15 7q14 0 70 -83v58q0 57 -3 79q-8 51 -36 51q-16 0 -35 -12q-5 -3 -5 2q-1 15 20 36t43 21q14 0 36 -4.5t29 -4.5q27 0 52 27q5 5 5 -2q1 -28 -22.5 -72t-23.5 -114q0 -75 47 -110q2 -2 1 -4q-28 -50 -28 -105q0 -61 43 -113q2 -2 0 -4z" />
<glyph unicode="&#x152;" horiz-adv-x="712" d="M709 98q-48 -44 -75 -83q-13 -22 -26 -43q-9 -13 -26 -13q-18 0 -57.5 20t-103.5 20q-86 0 -121.5 -1t-60.5 -1q-34 0 -73 -9q-34 -8 -67 -16q-4 -2 -4 3q-7 33 -18 62q-27 69 -75 107q-2 2 -1 4q51 87 84 188q27 79 27 109q0 26 -29 48q-4 4 0 5q99 50 99 137 q0 28 -15 28q-7 0 -16.5 -4.5l-9.5 -4.5q-4 0 -3 4q22 64 82 64q21 0 45.5 -11.5t40.5 -11.5q12 0 98 1.5t118 1.5q36 0 58 13q2 2 32 27q3 1 5 -3q-3 -11 -3 -24q0 -56 60 -73q5 -2 2 -5q-20 -30 -67 -67.5t-66 -37.5q-18 0 -48 32t-30 42q0 11 15 11q1 0 23.5 -19 t34.5 -19q6 0 21.5 15t15.5 20q0 6 -17 20q-20 17 -38 17q-94 0 -121 -19q-15 -11 -15 -66q0 -19 25 -33q33 -19 94 -19q69 0 118 33q3 2 5 0q2 -3 0 -5q-8 -12 -31 -34q-27 -26 -42 -44q-1 -1 -33 -57q-23 -40 -38 -40t-26.5 10.5t-11.5 23.5t14 27q2 3 5 1q4 -3 2 -5 q-5 -12 -5 -21q0 -8 15 -8q7 0 14 13.5t7 27.5q0 25 -46 25q-31 0 -42 -13q-6 -7 -12 -63q-5 -49 -5 -85q0 -234 77 -234q37 0 77 40q37 38 37 61q0 28 -49 28q-34 0 -55 -23q-4 -4 -5 1q-5 19 -5 38q0 74 59 138q53 58 100 58q43 0 43 -44t-33 -44q-24 0 -39 28 q-35 -16 -35 -56q0 -28 20 -44q15 -12 33 -12q20 0 47 12q4 1 4 -3q-5 -96 42 -142q2 -2 0 -4zM323 299q0 63 -21 182q-24 132 -45 132t-60 -150q-38 -145 -38 -207q0 -78 19 -131q22 -63 64 -63q40 0 63 93q18 72 18 144zM288 349q-33 0 -39 -57q0 -3 -3 -3t-3 3 q-15 57 -38 57q-3 0 -3 3t3 3q33 1 38 58q0 3 3 3t3 -3q5 -17 11 -29q14 -29 28 -29q3 0 3 -3t-3 -3z" />
<glyph unicode="&#x153;" horiz-adv-x="728" d="M729 152q-40 -30 -63 -75q-14 -31 -29 -63q-16 -27 -47 -27q-21 0 -56 9t-58 9q-49 0 -105 -23q5 58 5 60q0 26 -9 71q-15 -46 -30 -93q-19 -42 -52 -42q-15 0 -44.5 10t-42.5 10q-58 0 -109 -23q-4 -2 -4 3q-5 48 -15 91q-25 102 -72 159v4q40 33 83 114.5t43 129.5 q0 22 -7 22q-10 0 -22 -12q-5 -3 -5 2q3 24 25 46q26 25 60 25q22 0 51 -9t44 -9q40 0 75 45q3 0 5 -3q-16 -59 -16 -92q0 -82 29 -162q49 84 49 141q0 24 -13 24q-17 0 -27 -12q9 27 34 47q31 24 73 24q28 0 51 -7.5t32 -7.5q38 0 78 20q-7 -54 -7 -60q0 -54 45 -86 q-28 -29 -27 -57q-38 -7 -70 -18q-77 -28 -115 -73q-3 12 -7 22q-11 23 -26 31q-7 -23 -7 -43q0 -45 27 -117q30 -81 61 -81q34 0 69.5 40.5t35.5 79.5q0 17 -8 52q-44 -4 -76.5 -31t-29.5 -27q-6 0 -11 8.5t-5 14.5q0 16 51 49q58 36 123 51q10 2 10 -13q0 -97 56 -148z M566 425q0 23 -13.5 39.5t-30.5 16.5q-31 0 -65 -88l26 -39q47 14 65 28.5t18 42.5zM289 259q0 99 -26 165q-21 53 -40 53t-46 -60q-33 -74 -33 -167q0 -49 18 -106q21 -67 50 -67q36 0 59 72q18 57 18 110zM263 269q-25 -2 -34 -23q-4 -8 -8 -37q0 -3 -5 -3t-5 3 q-6 37 -7 38q-8 20 -35 22q-4 0 -4 5t4 5q26 2 34 23q4 19 8 37q1 3 5 3t5 -3q7 -37 8 -37q8 -22 34 -23q6 0 6 -5q0 -4 -6 -5z" />
<glyph unicode="&#x178;" horiz-adv-x="526" d="M434 792q-10 -6 -18 -14q-20 -19 -27 -45q-2 -7 -6 -1q-11 40 -46 60q-7 2 -1 10q10 6 19 13q20 19 27 45q5 5 7 -1q11 -39 45 -57q6 -8 0 -10zM295 792q-10 -6 -18 -14q-20 -19 -27 -45q-1 -6 -6 -1q-12 40 -46 60q-7 2 -1 10q10 6 19 13q20 19 27 45q6 4 7 -1 q10 -39 45 -57q6 -8 0 -10zM553 716q0 -33 -57.5 -84.5t-57.5 -81.5q0 -18 11 -28.5t23 -20.5q2 -2 0 -4q-24 -28 -47 -55q-29 -44 -29 -105q0 -51 23 -121q30 -92 84 -140q3 -3 -1 -5q-14 -8 -25 -18q-26 -25 -34 -57q-2 -3 -4 -2q-28 8 -55 8q-21 0 -84.5 -15.5 t-82.5 -15.5q-75 0 -109 60q-5 9 -43 125q-25 79 -74 108q-7 4 1 6q51 15 76 33q39 29 39 80q0 16 -6 43q1 3 5 4q50 -31 80 -41q11 -4 46 -13q18 -5 26 -12q12 -10 27.5 -65.5t15.5 -94.5q0 -78 -22 -78q-14 0 -14 37q0 44 -13 89q-21 74 -65 74q-41 0 -41 -59 q0 -61 41 -132q44 -78 94 -78q24 0 38 47q11 38 11 84q0 83 -59 193q-58 106 -94 106q-29 0 -39 -2q-3 -1 -4 2t2 4q33 23 33 75q0 38 -21 63t-45 25t-47 -16q-3 0 -5 4q24 76 100 76q19 0 43.5 -9.5t41.5 -9.5q23 0 37 8q6 4 26 22q4 3 5 -1q3 -14 -23 -58q-29 -47 -29 -84 q0 -63 64 -130q68 117 68 155q0 35 -26 35q-25 0 -43 -18q-3 0 -5 3q26 83 96 83q13 0 37.5 -10t43.5 -10q23 0 36 10q4 2 24 24q3 4 4.5 -1.5t1.5 -10.5z" />
<glyph unicode="&#x2c6;" horiz-adv-x="270" d="M252 729q0 -3 -3 -6q-3 -2 -5 0q-37 25 -107 64q-7 -3 -107 -65q-2 -2 -5 1t-3 6q34 45 83 114q2 4 8 2q24 -7 49 0q3 1 6 -2q9 -12 84 -114z" />
<glyph unicode="&#x2dc;" horiz-adv-x="239" d="M228 809q-19 -78 -72 -78q-19 0 -41 8t-31 8q-31 0 -61 -23q-4 0 -6 4q17 78 72 78q19 0 40 -8t32 -8q26 0 61 23q3 0 6 -4z" />
<glyph unicode="&#x2000;" horiz-adv-x="446" />
<glyph unicode="&#x2001;" horiz-adv-x="893" />
<glyph unicode="&#x2002;" horiz-adv-x="446" />
<glyph unicode="&#x2003;" horiz-adv-x="893" />
<glyph unicode="&#x2004;" horiz-adv-x="297" />
<glyph unicode="&#x2005;" horiz-adv-x="223" />
<glyph unicode="&#x2006;" horiz-adv-x="148" />
<glyph unicode="&#x2007;" horiz-adv-x="148" />
<glyph unicode="&#x2008;" horiz-adv-x="111" />
<glyph unicode="&#x2009;" horiz-adv-x="178" />
<glyph unicode="&#x200a;" horiz-adv-x="49" />
<glyph unicode="&#x2010;" d="M270 382q-11 -30 -11 -67q0 -35 9 -66q-1 -3 -5 -3q-42 31 -117 31q-18 0 -58.5 -10t-52.5 -18q-3 0 -5 3q11 33 11 73q0 31 -6 57q1 3 5 3q37 -32 110 -32q22 0 64 12q39 12 51 20q3 0 5 -3z" />
<glyph unicode="&#x2011;" d="M270 382q-11 -30 -11 -67q0 -35 9 -66q-1 -3 -5 -3q-42 31 -117 31q-18 0 -58.5 -10t-52.5 -18q-3 0 -5 3q11 33 11 73q0 31 -6 57q1 3 5 3q37 -32 110 -32q22 0 64 12q39 12 51 20q3 0 5 -3z" />
<glyph unicode="&#x2012;" d="M270 382q-11 -30 -11 -67q0 -35 9 -66q-1 -3 -5 -3q-42 31 -117 31q-18 0 -58.5 -10t-52.5 -18q-3 0 -5 3q11 33 11 73q0 31 -6 57q1 3 5 3q37 -32 110 -32q22 0 64 12q39 12 51 20q3 0 5 -3z" />
<glyph unicode="&#x2013;" d="M298 382q-11 -30 -11 -67q0 -35 9 -66q-1 -3 -5 -3q-42 31 -145 31q-28 0 -75 -10t-60 -18q-3 0 -5 3q11 33 11 73q0 31 -6 57q1 3 5 3q37 -32 134 -32q41 0 89 12q41 11 54 20q3 0 5 -3z" />
<glyph unicode="&#x2014;" horiz-adv-x="456" d="M442 382q-16 -30 -16 -67q0 -35 13 -66q-2 -3 -8 -3q-63 31 -217 31q-43 0 -113 -10t-90 -18q-4 0 -7 3q16 33 16 72q0 31 -9 58q2 3 8 3q55 -32 201 -32q61 0 133 12q61 11 81 20q5 0 8 -3z" />
<glyph unicode="&#x2018;" horiz-adv-x="180" d="M151 551q-13 -8 -24 -18q-26 -24 -35 -57q-8 -10 -10 1q-13 50 -55 73q-10 5 2 19q21 40 42 81q27 49 63 63q3 -1 3 -5q-34 -43 -34 -98q0 -23 47 -47q8 -3 1 -12z" />
<glyph unicode="&#x2019;" horiz-adv-x="180" d="M155 630q10 -5 -2 -19q-21 -40 -42 -81q-27 -49 -63 -63q-3 1 -3 5q34 43 34 98q0 23 -47 47q-8 3 -1 12q13 8 24 18q26 24 35 57q8 10 10 -1q13 -50 55 -73z" />
<glyph unicode="&#x201a;" horiz-adv-x="196" d="M161 49q10 -5 -2 -19q-21 -40 -42 -81q-27 -49 -63 -63q-3 1 -3 5q34 43 34 98q0 23 -47 47q-8 3 -1 12q13 8 24 18q26 24 35 57q8 10 10 -1q13 -50 55 -73z" />
<glyph unicode="&#x201c;" horiz-adv-x="319" d="M298 551q-13 -8 -24 -18q-26 -24 -35 -57q-8 -10 -10 1q-13 50 -55 73q-10 5 2 19q21 40 42 81q27 49 63 63q3 -1 3 -5q-34 -43 -34 -98q0 -23 47 -47q8 -3 1 -12zM151 551q-13 -8 -24 -18q-26 -24 -35 -57q-8 -10 -10 1q-13 50 -55 73q-10 5 2 19q21 40 42 81 q27 49 63 63q3 -1 3 -5q-34 -43 -34 -98q0 -23 47 -47q8 -3 1 -12z" />
<glyph unicode="&#x201d;" horiz-adv-x="332" d="M308 630q10 -5 -2 -19q-21 -40 -42 -81q-27 -49 -63 -63q-3 1 -3 5q34 43 34 98q0 23 -47 47q-8 3 -1 12q13 8 24 18q26 24 35 57q8 10 10 -1q13 -50 55 -73zM155 630q10 -5 -2 -19q-21 -40 -42 -81q-27 -49 -63 -63q-3 1 -3 5q34 43 34 98q0 23 -47 47q-8 3 -1 12 q13 8 24 18q26 24 35 57q8 10 10 -1q13 -50 55 -73z" />
<glyph unicode="&#x201e;" horiz-adv-x="344" d="M313 49q10 -5 -2 -19q-21 -40 -42 -81q-27 -49 -63 -63q-3 1 -3 5q34 43 34 98q0 23 -47 47q-8 3 -1 12q13 8 24 18q26 24 35 57q8 10 10 -1q13 -50 55 -73zM161 49q10 -5 -2 -19q-21 -40 -42 -81q-27 -49 -63 -63q-3 1 -3 5q34 43 34 98q0 23 -47 47q-8 3 -1 12 q13 8 24 18q26 24 35 57q8 10 10 -1q13 -50 55 -73z" />
<glyph unicode="&#x2022;" horiz-adv-x="262" d="M249 300q-31 -28 -43 -65q-4 -12 -10 -53q0 -5 -4 -3q-30 8 -61 8q-35 0 -61 -11q-4 -2 -4 3q-5 77 -44 129q-2 2 0 4q27 21 49 76q19 48 19 77q0 4 4 3q23 -6 42 -6q21 0 41 6q4 1 4 -3q0 -30 18 -78q21 -53 50 -83q2 -2 0 -4z" />
<glyph unicode="&#x2026;" horiz-adv-x="580" d="M539 36q-13 -8 -24 -18q-25 -24 -34 -58q-1 -9 -9 -1q-14 51 -59 77q-8 3 -1 12q13 8 24 18q26 24 35 57q8 10 10 -1q13 -50 58 -74q7 -10 0 -12zM354 36q-13 -8 -24 -18q-25 -24 -34 -58q-1 -9 -9 -1q-14 51 -59 77q-8 3 -1 12q13 8 24 18q26 24 35 57q8 10 10 -1 q13 -50 58 -74q7 -10 0 -12zM164 36q-13 -8 -24 -18q-25 -24 -34 -58q-1 -9 -9 -1q-14 51 -59 77q-8 3 -1 12q13 8 24 18q26 24 35 57q8 10 10 -1q13 -50 58 -74q7 -10 0 -12z" />
<glyph unicode="&#x202f;" horiz-adv-x="178" />
<glyph unicode="&#x2039;" horiz-adv-x="208" d="M181 256q-22 -21 -32 -70q-1 -3 -3 -1q-20 32 -37 57q-43 60 -71 77v17q41 25 108 133q2 2 3 -1q3 -14 7 -26q10 -30 25 -44q2 -2 -1 -4q-15 -4 -29 -13q-34 -19 -57 -55q33 -48 87 -66q3 -1 0 -4z" />
<glyph unicode="&#x203a;" horiz-adv-x="208" d="M180 319q-41 -25 -108 -134q-2 -2 -3 1q-3 14 -7 26q-10 30 -25 44q-3 3 0 4q16 5 30 14q35 20 57 52q-33 53 -86 68q-3 2 -1 4q22 21 32 70q1 3 3 1q20 -31 38 -56q43 -60 70 -77v-17z" />
<glyph unicode="&#x205f;" horiz-adv-x="223" />
<glyph unicode="&#x2122;" horiz-adv-x="470" d="M434 443q0 -1 -1 -2q-5 -3 -15 -22l-1 -1q-1 0 -13 5q-8 4 -19 4q-15 0 -36.5 -9t-26.5 -9q-2 0 0 2q60 26 60 164q0 35 -15 38q-1 1 -1 2t1 0q14 7 14 11q0 5 -4 6q-23 -12 -23 -32q0 -3 9.5 -10t9.5 -14q0 -11 -8.5 -38t-14.5 -34q-10 -9 -47 -9q-7 0 -13 18t-6 43 q0 8 1 16l1 8q4 4 15 4q18 0 27 -19l-2 -2q-19 11 -25 9q-1 -5 2 -27q3 -25 8 -30q1 -2 8 -1t9.5 3.5t10 20t7.5 24.5q0 9 -25 30.5t-41 22.5q0 3 -3.5 -28t-3.5 -57q0 -71 23 -92q1 -1 0 -1q-5 -3 -14 -23h-2q-20 11 -39 11q-13 0 -30 -7.5t-22 -7.5q-2 1 0 3q22 9 37 49 q18 45 18 115q0 39 -20 46q-3 0 0 3q25 18 25 38q0 16 -11 16q-6 0 -14 -6q0 2 -1 0q5 28 32 28q7 0 16 -2.5t14 -2.5q10 0 19 13q1 0 2 -1q-1 -9 -8.5 -18.5t-7.5 -16.5q0 -20 37 -54q3 0 23.5 22t20.5 32t-9 10t-13 -7q-2 0 -2 2q9 26 33 26q5 0 15 -3.5t13 -3.5 q12 0 22 10q0 -4 1 -2q-20 -30 -20 -50t15 -37q1 1 1 0l-1 -1q-11 -14 -11 -15q-6 -15 -6 -59q0 -43 7 -65q3 -12 18 -36zM224 658q-8 -5 -14 -11q-15 -13 -16 -24q2 1 8 1q11 0 11 -11q0 -15 -18 -15q-21 0 -21 21q0 8 6.5 21.5t6.5 20.5q0 14 -24 14q-9 0 -15 -3 q-11 -15 -11 -28q0 -18 11 -29q0 -2 -1 -1q-18 -9 -32 -39q-17 -35 -17 -81q0 -15 7 -27q7 -15 19 -15t25 24t13 44q0 29 -11 29q-26 0 -26 -43q0 -12 1.5 -22t1.5 -9q0 -5 -8 -5q-3 0 -7.5 16.5t-4.5 31.5q0 19 7 40q16 7 48 26q2 2 2 -1q6 -11 14 -20q18 -23 39 -37 q1 1 1 0l-1 -1q-16 -12 -33 -64q-13 -43 -33 -43q-7 0 -20 4.5t-19 4.5q-18 0 -51 -7v1l-9 18q-11 18 -21 20l-1 1q59 64 59 138q0 17 -7 26l-1 1q0 1 1 0q32 22 32 39q0 6 -5 6q-11 0 -29 -13q-24 -19 -19 -46q0 -2 -2 0q-9 8 -9 19q0 8 5.5 21.5t5.5 17.5q0 9 -11 9 q-14 0 -20 -9q-3 1 -2 3q13 32 58 32q11 0 28.5 -3.5t27.5 -3.5q25 0 46 16q2 2 2 -3q1 -11 5 -20q9 -21 28 -30v-2z" />
<glyph unicode="&#xe000;" horiz-adv-x="575" d="M0 575h575v-575h-575v575z" />
</font>
</defs>
</svg>
