<?xml version="1.0" standalone="no"?>
<!DOCTYPE svg PUBLIC "-//W3C//DTD SVG 1.1//EN" "http://www.w3.org/Graphics/SVG/1.1/DTD/svg11.dtd" >
<svg xmlns="http://www.w3.org/2000/svg">
<metadata></metadata>
<defs>
<font id="hanalei_fillregular" horiz-adv-x="613" >
<font-face units-per-em="1000" ascent="800" descent="-200" />
<missing-glyph horiz-adv-x="200" />
<glyph unicode="&#xfb01;" horiz-adv-x="741" d="M28 52q24 60 24 118q0 42 -10 85v6q13 52 13 94q0 49 -16 100l-1 5q23 46 23 110q0 47 -15 92l1 2q29 38 92 38q44 0 75 -23q44 5 65 15l5 -1q47 -15 74 -15q25 0 85 20q41 -24 45 -86v-9q0 -56 -38 -86q-45 13 -78 13q-27 0 -72 -15l-7 -1q-43 8 -77 8q4 -31 11 -54v-7 q-4 -13 -8 -35q27 -7 53 -7q38 0 83 15l2.5 -2t4 -3t5 -4t5.5 -6t5.5 -7.5t5.5 -9t4.5 -11t4 -13t2.5 -15.5t1 -18q0 -50 -39 -89l-5 -4q-70 20 -96 20q-15 0 -30 -3l5 -10l-2 -4q-18 -51 -18 -102q0 -57 19 -104q-27 -53 -102 -53q-22 0 -39.5 5t-28 12.5t-17.5 15.5 t-9.5 13t-2.5 6zM503 54q24 48 24 118q0 43 -10 84v6q13 52 13 94q0 37 -17 105q23 46 23 111q0 46 -15 91l1 2q29 38 92 38q28 0 51 -10t31.5 -18.5t10.5 -11.5l5 -5l-3 -6q-18 -54 -18 -104q0 -43 11 -79v-7q-15 -54 -15 -102q0 -64 18 -100q-20 -40 -20 -105 q0 -57 19 -105q-26 -52 -102 -52q-22 0 -39.5 5t-28 12t-17.5 15t-9.5 13t-2.5 6z" />
<glyph unicode="&#xfb02;" horiz-adv-x="943" d="M28 52q24 60 24 118q0 42 -10 85v6q13 52 13 94q0 49 -16 100l-1 5q23 46 23 110q0 47 -15 92l1 2q29 38 92 38q44 0 75 -23q44 5 65 15l5 -1q47 -15 74 -15q25 0 85 20q41 -24 45 -86v-9q0 -56 -38 -86q-45 13 -78 13q-27 0 -72 -15l-7 -1q-43 8 -77 8q4 -31 11 -54v-7 q-4 -13 -8 -35q27 -7 53 -7q38 0 83 15l2.5 -2t4 -3t5 -4t5.5 -6t5.5 -7.5t5.5 -9t4.5 -11t4 -13t2.5 -15.5t1 -18q0 -50 -39 -89l-5 -4q-70 20 -96 20q-15 0 -30 -3l5 -10l-2 -4q-18 -51 -18 -102q0 -57 19 -104q-27 -53 -102 -53q-22 0 -39.5 5t-28 12.5t-17.5 15.5 t-9.5 13t-2.5 6zM503 54q24 48 24 118q0 43 -10 84v6q13 52 13 94q0 37 -17 105q23 46 23 111q0 46 -15 91l1 2q29 38 92 38q28 0 51 -10t31.5 -18.5t10.5 -11.5l5 -5l-3 -6q-18 -54 -18 -104q0 -43 11 -79v-7q-15 -54 -15 -102q0 -64 18 -100q-13 -26 -19 -75q8 2 15.5 3 t12 2t6.5 2q44 -22 110 -22q40 0 93 15l5 -4q34 -34 35 -86q0 -9 -1 -17t-3 -15t-4.5 -13.5t-5 -11.5t-5.5 -9.5t-6 -8t-5.5 -6.5t-4.5 -4.5t-3.5 -3l-1.5 -1.5l-5 -4q-60 20 -108 20q-40 0 -81 -12h-7q-13 4 -45 10q-31 -21 -75 -21q-22 0 -39.5 5t-28 12t-17.5 15t-9.5 13 t-2.5 6z" />
<glyph horiz-adv-x="0" />
<glyph unicode="&#xd;" horiz-adv-x="1000" />
<glyph unicode=" "  horiz-adv-x="200" />
<glyph unicode="&#x09;" horiz-adv-x="200" />
<glyph unicode="&#xa0;" horiz-adv-x="200" />
<glyph unicode="!" horiz-adv-x="258" d="M33 651q32 40 101 40q62 0 97 -44q-22 -66 -22 -131q0 -45 10 -78v-7q-1 -7 -6 -29t-7 -32.5t-4 -28.5t-2 -33q0 -41 11 -71l1 -5q-4 -7 -10.5 -15.5t-28 -20.5t-49.5 -12q-21 0 -38.5 6.5t-27 16.5t-14 16t-6.5 11q13 26 13 77q0 62 -13 114v8q15 42 15 91q0 67 -20 127 zM39 115q32 32 80 32q50 0 81 -31q-12 -42 -12 -60q0 -17 7 -38q-26 -33 -76 -33q-45 0 -70 28l-5 5q7 21 7 39q0 16 -12 58z" />
<glyph unicode="&#x22;" horiz-adv-x="476" d="M27 374q16 32 16 80q0 49 -13 81l2 4q16 47 16 77q0 29 -16 77q25 42 92 42q51 0 87 -36l5 -5q-17 -59 -17 -80q0 -24 13 -66l1 -6q-12 -29 -12 -77t20 -88q-22 -56 -102 -56q-11 0 -20.5 1.5t-17 3.5t-14.5 5.5t-11.5 6.5t-9 7t-7 7.5t-5 7.5t-3.5 6t-3 5zM257 374 q16 32 16 80q0 49 -13 81l2 4q16 47 16 77q0 29 -16 77q25 42 92 42q51 0 87 -36l5 -5q-17 -59 -17 -80q0 -24 13 -66l1 -6q-12 -29 -12 -77t20 -88q-22 -56 -102 -56q-11 0 -20.5 1.5t-17 3.5t-14.5 5.5t-11.5 6.5t-9 7t-7 7.5t-5 7.5t-3.5 6l-2.5 5z" />
<glyph unicode="#" horiz-adv-x="1076" d="M33 52q24 48 24 118q0 43 -10 84v6q13 52 13 94q0 37 -17 105q23 46 23 111q0 46 -15 91l1 2q29 38 92 38q37 0 65 -17h8q12 0 23.5 -2.5t16.5 -4.5t6 -3l6 -3l1 -6q10 -100 70 -169l3 -3v-3q12 -78 50 -138v1q0 26 -3.5 51t-11.5 51v8q21 54 21 109q0 47 -14 89l1 2 q7 8 13.5 14.5t28.5 15t50 8.5q61 0 97 -45q-21 -63 -21 -111q0 -39 12 -78v-7q-15 -52 -15 -101q0 -52 16 -97v-8q-19 -50 -19 -103q0 -56 19 -103q-26 -52 -101 -52q-42 0 -68 17h-5q-11 0 -20.5 1.5t-16 5t-10.5 6t-8 6.5l-4 3v5q-4 97 -73 185l-2 5q-12 65 -42 119 q2 -59 18 -91q-20 -40 -20 -105q0 -58 19 -105q-26 -52 -102 -52q-22 0 -39.5 5t-28 12t-17.5 15t-9.5 13t-2.5 6zM615 333q17 51 17 113q0 51 -12 91l-1 5l2 4q0 5 6 12q-5 20 -5 43q0 71 53 92q32 -16 80 -16q44 0 76 11h8q47 -16 78 -16q29 0 77 16l5 -4q35 -35 37 -85 q0 -9 -1 -14q16 -17 16 -25l2 -4q-24 -60 -24 -133q0 -18 10 -78l-3 -5q-1 0 -6 -7q4 -15 6 -35q0 -61 -42 -95q-48 16 -79 16q-26 0 -66 -13h-7q-57 11 -77 11q-33 0 -83 -18l-5 -1l-4 2q-2 0 -6.5 2.5t-12.5 10t-15 18.5t-12 30t-5 42q0 12 1 18q-4 4 -8 12zM659 91 q0 22 6.5 39.5t17.5 26.5t17 12.5t11 6.5h1h8q59 -22 143 -22q53 0 83 10l4.5 -3t7 -5.5t7 -7.5t7.5 -11t6.5 -14t5 -18.5t1.5 -22.5q0 -58 -45 -85q-54 18 -125 18q-58 0 -99 -12l-4 -2q-53 21 -53 90zM772 376q32 2 59 11h8q20 -8 40 -13q11 47 11 91q0 30 -4 53 q-9 -2 -37 -11h-7q-34 7 -54 9q-16 -53 -16 -113v-27z" />
<glyph unicode="$" horiz-adv-x="453" d="M23 109q0 36 25 61h5q40 1 69.5 11.5t66.5 33.5l7 6l4 3h4q11 0 29 2q-18 11 -67 32l-6 4q-29 36 -50 49t-73 28l-2 7l-0.5 3.5t-1.5 9.5t-1 13q0 25 10 48q-19 38 -19 67q0 36 25 61h5q52 0 100 24q3 30 3 61q0 68 -13 101q21 52 90 52q17 0 31 -3.5t22.5 -10t15 -12.5 t10.5 -13t5 -10.5t2 -6.5l-1 -5q-14 -37 -21 -103q18 10 51 36l6 -2q3 0 13 -4.5t26 -21t26 -40.5q10 -26 10 -49q0 -32 -15 -55h-6q-36 -3 -54.5 -7t-34 -13t-41.5 -29q-9 -3 -20.5 -5.5t-22.5 -4.5t-17 -4q28 -11 50 -16l7 -4q43 -64 133 -82l3 -4l0.5 -1l1.5 -3t2 -5 t2.5 -6.5t2.5 -7.5t1.5 -9t0.5 -10q0 -26 -11 -48l8 -15q10 -26 10 -49q0 -32 -15 -55l-6 -1q-42 -2 -62.5 -7.5t-42.5 -21.5q-7 -38 -7 -85q0 -52 10 -82l-4 -5q-27 -34 -78 -34q-12 0 -23 2t-19 6t-14.5 8t-11.5 9t-8 8.5t-6 7.5l-3 4q14 48 17 102q-7 -5 -18.5 -15 t-17.5 -14h-5q-2 0 -6.5 0.5t-14.5 4.5t-20 11t-21 21t-19 33q-11 26 -11 49z" />
<glyph unicode="%" horiz-adv-x="889" d="M22 375v7q14 46 14 137q0 71 -10 91l3 5q5 8 16 15q5 48 42 63h7q44 -18 113 -18q27 0 67 8l4 -2l1 -1t2.5 -2t3 -3t3.5 -4.5t4 -5.5t4 -6.5t4 -8t3 -9.5q35 -8 49 -32q-11 -55 -11 -109q0 -69 13 -121l-2 -3q0 -2 -2.5 -7t-11 -12.5t-19.5 -12.5q-9 -22 -30 -38 q-35 14 -99 14q-47 0 -80 -9h-8q-1 0 -5 2.5t-10.5 8.5t-11.5 14q-8 1 -15.5 4t-12.5 6.5t-9.5 7t-7 7.5t-4.5 7t-3 5zM149 500q0 -25 2 -61q38 -7 72 -7q5 42 5 85q0 8 -0.5 22t-0.5 21q-25 4 -57 4h-18q-3 -30 -3 -64zM311 87l2 4q13 20 23.5 47.5t16 57.5t5.5 58v9l1 5 q16 32 26 77.5t10 84.5q0 19 -2 25q14 20 24.5 49.5t16.5 60.5t6 59q0 3 -0.5 9t-0.5 9l-1 6l3 2.5t5 4t7 4t10 4t13.5 2.5t17.5 1q61 0 89 -47l1 -1l3 -5l-3 -4q-18 -31 -30 -76.5t-12 -83.5q0 -12 1 -17l-1 -6q-18 -33 -28.5 -77.5t-10.5 -82.5q0 -20 3 -29 q-19 -29 -30 -70.5t-11 -80.5q0 -21 3 -33l-2.5 -3l-5 -6t-8 -6.5t-11.5 -6t-15.5 -4.5t-20.5 -2q-17 0 -31.5 3.5t-24 8.5t-16.5 11.5t-11 12.5t-6.5 11t-2.5 9l-1 3zM535 74v7q14 46 14 137q0 71 -10 91l3 5q5 8 16 15q5 48 42 63h7q44 -18 113 -18q35 0 67 8l4 -2l1.5 -1 t3 -2.5l4 -4t4.5 -6t4.5 -7t4.5 -8.5t3 -11q35 -8 49 -32q-11 -55 -11 -109q0 -81 13 -120q-6 -24 -35 -37q-3 -6 -6 -11.5t-5.5 -9t-5.5 -6.5t-5 -4.5t-5 -3.5l-3 -2q-35 14 -99 14q-47 0 -80 -9h-7q-1 0 -4 1.5t-7 4t-8.5 8t-8.5 11.5q-8 1 -15.5 4t-12.5 6.5t-9.5 7 t-7 7.5t-4.5 7t-3 5zM662 199q0 -25 2 -61q39 -7 72 -7q5 42 5 85q0 8 -0.5 22t-0.5 21q-25 4 -57 4h-18q-3 -30 -3 -64z" />
<glyph unicode="&#x26;" horiz-adv-x="628" d="M-1 190q0 4 0.5 8.5t1 7l0.5 2.5l1 4l4 3q37 25 78 76.5t57 97.5l3 6l5 2l3 0.5l9 1.5t12 1q1 0 4.5 -0.5t5.5 -0.5l-3 3l-4 8q-9 103 -77 181l-4 4l1 7q0 2 3 10t14 23t28 26q11 59 62 72l5 -2q49 -24 104 -24q7 0 22.5 1.5t23.5 1.5l5 1q54 -27 97 -27q18 0 60 7l5 -4 q27 -27 27 -72v-12q-4 -36 -25 -61l5 -19v-6q-41 -31 -78.5 -84t-53.5 -99q11 -15 27 -31l4 -8q2 -20 4 -30q65 5 121 44l5 3l6 -2q1 0 4.5 -2t10 -7.5t13.5 -13t14 -20.5t12 -29q6 -22 6 -40q0 -15 -3.5 -28.5t-6.5 -19.5t-4 -7l-3 -6l-6 1h-17q-45 0 -84 -12l15 -16l3 -4 v-8q0 -9 -3 -20.5t-19 -30.5t-42 -31q-26 -13 -52 -13q-40 0 -58 24v4q-4 32 -8 48q-37 -13 -70 -38l-7 -2q-4 0 -11 0.5t-10 0.5q-84 0 -152 -53l-8 -2q-4 0 -14 4t-28 23.5t-28 50.5q-7 22 -7 41q0 23 10 43q-15 25 -15 43zM191 199l19 10l5 2q33 0 56 5q-1 1 -1 2l-3 6 q-3 19 -13 50q-33 -30 -63 -75zM293 555q12 -25 34 -54q15 16 30 38h-8q-35 12 -56 16z" />
<glyph unicode="'" horiz-adv-x="246" d="M27 374q16 32 16 80q0 49 -13 81l2 4q16 47 16 77q0 29 -16 77q25 42 92 42q51 0 87 -36l5 -5q-17 -59 -17 -80q0 -24 13 -66l1 -6q-12 -29 -12 -77t20 -88q-22 -56 -102 -56q-11 0 -20.5 1.5t-17 3.5t-14.5 5.5t-11.5 6.5t-9 7t-7 7.5t-5 7.5t-3.5 6t-3 5z" />
<glyph unicode="(" horiz-adv-x="387" d="M-12 387v4l1 5l3 3q56 48 98 170v5l4 3q80 72 95 174l6 2l2 1q2 0 5 1t7 2.5t9.5 2t11.5 0.5q16 0 30 -3t24.5 -8.5t20 -12.5t15.5 -14.5t11.5 -15.5t8.5 -14.5t5 -12t3 -7.5l1 -3l2 -7l-5 -4q-72 -73 -90 -160v-4l-3 -2q-59 -77 -78 -127q30 -77 90 -122l4 -6 q45 -114 119 -166l4 -3l1 -5v-10q0 -25 -30 -67t-86 -42q-30 0 -41 11l-5 7q-18 75 -106 165l-4 3q-25 100 -111 169v6q0 9 4 21q-26 31 -26 61z" />
<glyph unicode=")" horiz-adv-x="386" d="M-7 53v5t0.5 3.5l0.5 1.5l1 5q39 29 71.5 75t51.5 94l4 6q59 47 89 120q-30 81 -78 129l-3 6q-18 89 -89 160l-5 4l1 7l1.5 4t5 12.5t9 18t15.5 19.5t21.5 18.5t29 13.5t37.5 5q6 0 11.5 -0.5t9.5 -2t7 -2.5t5 -1.5l2 -0.5l6 -2q15 -102 96 -174l3 -3l1 -5 q42 -129 101 -173l1 -5v-4q0 -4 -1.5 -12t-8.5 -23t-17 -27q5 -14 5 -20v-6l-5 -4q-79 -61 -106 -161l-4 -7q-34 -23 -65.5 -74.5t-42.5 -94.5q-19 -14 -45 -14q-55 0 -85.5 42t-30.5 67z" />
<glyph unicode="*" horiz-adv-x="517" d="M21 529q0 28 17 51.5t44 32.5q57 -46 123 -66q3 -18 3 -25q0 -44 -42 -69q-65 32 -127 37l-6 1q-12 20 -12 38zM80 342q58 48 90 107h7q58 -2 77 -58q-44 -55 -63 -116l-1 -6q-15 -5 -26 -5q-31 0 -54.5 22.5t-29.5 55.5zM192 692l4 4q22 27 60 27q37 0 68 -31 q-17 -51 -17 -109q0 -16 1 -24v-7q-28 -17 -50 -17q-20 0 -52 19v7q1 11 1 33q0 53 -15 98zM263 393l3 6q22 49 78 49h6q33 -66 82 -104l4 -4l-1 -6q-1 -19 -13 -35t-31 -25.5t-40 -9.5q-1 0 -25 4q-26 79 -63 125zM310 520q0 6 4 30l6 2q65 18 113 55l5 3q24 -4 40.5 -27 t16.5 -53q0 -21 -11 -43h-6q-67 -6 -124 -31l-6 -2q-38 23 -38 66z" />
<glyph unicode="+" horiz-adv-x="459" d="M22 330q0 15 2.5 27.5t6.5 21.5t9.5 16.5t10.5 12t9.5 7.5t7 4.5t3.5 1.5l4 2l5 -1q38 -15 77 -15h6q-3 45 -12 76v9q24 48 88 48q14 0 26 -3t20.5 -7.5t15.5 -10t11 -10.5t7 -10t4 -8l1 -3l2 -5q-12 -24 -20 -81h11q29 0 77 16q41 -25 43 -88q0 -61 -42 -95 q-56 16 -79 16q-9 0 -13 -1v-15q0 -47 8 -76l1 -7q-23 -39 -82 -39q-15 0 -29 4t-23 10t-15.5 12t-10.5 10l-3 4l-4 6q11 34 17 90q-33 -1 -80 -18h-9q-51 25 -51 99z" />
<glyph unicode="," horiz-adv-x="228" d="M-27 -36q0 4 0.5 7.5t1 5.5l0.5 2l1 4l4 3q64 43 99 136l3 6l5 2l3 1t8 1.5t11 0.5q69 0 98 -72q11 -26 8 -31l-1 2v-6l-5 -4q-77 -59 -105 -140l-1 -4q-13 -10 -39 -10q-45 0 -68 37t-23 59z" />
<glyph unicode="-" horiz-adv-x="466" d="M25 335q0 70 51 92l2 1q40 -16 81 -16q32 0 76 11l4 2l4 -2q47 -16 77 -16q29 0 77 16q41 -25 43 -88q0 -61 -42 -95l-7 1q-49 15 -73 15t-66 -13l-6 -1q-29 12 -77 12q-35 0 -84 -18h-9q-51 26 -51 99z" />
<glyph unicode="." horiz-adv-x="202" d="M20 115q32 32 80 32q50 0 81 -31q-12 -42 -12 -60q0 -17 7 -38q-26 -33 -75 -33q-46 0 -71 28l-5 5q8 24 8 41q0 26 -13 56z" />
<glyph unicode="/" horiz-adv-x="453" d="M16 108v5q72 72 89 182l3 6q63 83 71 181l4 7q71 76 80 175l1 7q20 12 48 12q16 0 30 -3t25 -7.5t20.5 -11t16.5 -13.5t12.5 -14t9 -13t6 -11t3.5 -8l1 -2l2 -6l-4 -5q-67 -76 -76 -167l-3 -6q-68 -87 -74 -184v-4l-3 -3q-71 -80 -77 -186v-5l-5 -4q-4 -4 -7.5 -6 t-10 -5.5t-16 -5t-21.5 -1.5q-26 0 -54 12q-20 8 -35 19.5t-21.5 21.5t-10 21t-4 15t-0.5 7z" />
<glyph unicode="0" horiz-adv-x="647" d="M-6 366v5.5t0.5 4l0.5 1.5l1 5l4 2q33 25 64.5 71t46.5 91l4 7q81 60 108 159l2 6l6 3l1.5 0.5t4 1t5.5 1t7.5 1t8.5 0.5q58 0 93 -46q13 3 24 3h8t6.5 -0.5l2.5 -0.5l6 -2l3 -6q37 -92 113 -144l5 -5q52 -107 132 -156l4 -2l2 -5l0.5 -2.5t0.5 -6v-7.5q0 -46 -43 -83 q-31 -25 -60 -29q-27 -30 -47 -70l-4 -5q-37 -15 -79 -64t-59 -93l-5 -2q-5 -5 -27 -5q-39 0 -76 33q-23 20 -35 47q-9 8 -19.5 15t-23.5 16t-19 13l-4 1q-46 93 -142 136l-5 3q-3 9 -3 17q0 18 7 37q-20 23 -20 54zM177 332q40 -45 94 -70l5 -4q31 -42 40 -51q25 29 44 59 q2 3 3.5 7.5t2.5 5.5q52 26 84 61q-33 42 -66 63l-4 2l-1 4q-26 73 -79 120q-19 -33 -29 -68l-3 -6q-17 -12 -34.5 -32.5t-31.5 -43.5t-25 -47z" />
<glyph unicode="1" horiz-adv-x="401" d="M-9 526q0 25 13 42l4 1q27 9 60.5 28.5t66 47t52.5 53.5l3 5l6 1q27 0 53 -18q12 3 29 3q54 0 93 -39l4 -5l-2 -7q-19 -53 -19 -105q0 -42 11 -78l1 -7q-16 -52 -16 -102q0 -48 17 -96l1 -4l-2 -4q-18 -51 -18 -102q0 -48 17 -99l2 -4q-2 -6 -6 -12t-15 -17t-32 -17.5 t-49 -6.5q-12 0 -22.5 1.5t-18.5 4t-15.5 6t-12.5 7t-9.5 7.5t-7.5 7.5t-5.5 8t-4 6.5t-2.5 5l-1 3q24 60 24 118q0 43 -10 84v6q13 48 13 97q0 50 -15 98l-2 4q13 26 19 67q-49 -37 -81 -81l-2 -4l-5 -2l-3 -1q-2 0 -6 -0.5t-8 -0.5q-26 0 -62.5 28t-36.5 73z" />
<glyph unicode="2" horiz-adv-x="503" d="M11 494q0 24 6 30l2 4q43 22 92.5 65t73.5 86l4 6q12 2 16 2q28 0 54 -18q22 9 39 9q5 0 9.5 -0.5t8 -1.5t6.5 -2l4.5 -1.5l1.5 -0.5l4 -2l2 -4q17 -41 60 -91.5t85 -74.5l5 -3l1 -6v-7q0 -29 -18 -56q18 -30 18 -60v-8l-1 -6q-94 -47 -140 -128l-4 -5q-44 -27 -76 -57 q37 -11 74 -11q39 0 90 17l6 -4q36 -29 38 -85q0 -60 -44 -95q-60 17 -93 17q-35 0 -78 -13h-7q-13 2 -32.5 5.5t-32 5.5t-24.5 2q-38 0 -78 -16l-3.5 1.5t-6.5 3t-7.5 4.5t-8.5 7l-9 9t-8.5 12t-7 15.5t-5 20t-1.5 23.5q0 42 28 72q-3 9 -3 23q0 22 5 27l2 5q39 15 77 49.5 t67 76.5q4 6 7 12q72 36 111 82q-38 50 -85 85q-64 -55 -92 -112l-5 -2q-5 -5 -26 -5q-38 0 -70 32q-31 30 -31 66z" />
<glyph unicode="3" horiz-adv-x="456" d="M16 90q0 42 26 68h5q41 0 65.5 7.5t67.5 31.5l7 6l8 2q26 0 38 1q-46 31 -86 43l-2 1q-29 7 -53 30q-35 33 -35 81v7.5t0.5 6l0.5 2.5l2 5q38 19 57 38t45 61l2 4t2 4.5t2 4.5q21 10 31 18q-26 3 -50 3q-32 0 -72 -8q-46 23 -46 86q0 24 6.5 43t14 29t18.5 17.5t15.5 9 t9.5 2.5l5 -2q30 -15 77 -25t92 -10q25 0 55 5q19 -15 28 -47q20 -10 35.5 -25t22.5 -27.5t11 -27t4.5 -20t0.5 -8.5l-1 -7q-46 -28 -70 -52.5t-44 -66.5l-4 -5l-21 -15q73 -73 148 -98l2 -6l1 -3q1 -3 2 -8.5t1 -11.5q0 -22 -11 -45q8 -20 8 -41q0 -13 -2.5 -24.5 t-4.5 -16.5t-6 -12l-4 -7h-7q-50 -2 -81.5 -12.5t-68.5 -37.5l-7 -3q-5 0 -15 -2q-49 -6 -73.5 -14.5t-57.5 -34.5l-4 -3h-5q-6 0 -16.5 2.5t-31 21t-31.5 49.5q-6 16 -6 36z" />
<glyph unicode="4" horiz-adv-x="514" d="M-10 320v4.5t0.5 4t0.5 2.5v1l1 5q64 48 112 155q2 8 2 10l5 7q78 62 108 159l1 6l6 3l1.5 0.5t4 1t6 1t8 1t9.5 0.5q25 0 43 -9q28 17 68 17q54 0 93 -39l4 -5q-21 -73 -21 -112t12 -78v-7q-12 -37 -15 -73q2 0 4 0.5t4.5 2t3.5 1.5l5 -3l1.5 -1t3.5 -3t5 -4.5t6 -6 t6 -8t6 -10.5t5.5 -12.5t4.5 -14.5t3 -17v-11q0 -50 -37 -80l-7 1q-3 0 -9 2q-8 -32 -8 -71q0 -48 17 -99l2 -4q-2 -6 -6 -12t-15 -17t-32 -17.5t-49 -6.5q-12 0 -22.5 1.5t-18.5 4t-15.5 6t-12.5 7t-9.5 7.5t-7.5 7.5t-5.5 8t-4 6.5t-2.5 5l-1 3q25 62 25 118q0 15 -4 45 q-38 5 -41 5q-49 0 -95 -23l-5 2q-2 0 -7.5 3t-16 12t-18.5 22q-36 1 -61 22.5t-33 41t-8 32.5zM197 355q39 0 81 15h2q-3 34 -14 73v6q-6 -14 -9 -26l-4 -6q-24 -18 -56 -62z" />
<glyph unicode="5" horiz-adv-x="501" d="M20 91q0 17 5 33t11.5 25.5t14.5 17.5t12 11t6 4h9q40 -15 72 -15q53 0 79 13q40 -20 88 -20q8 43 8 91q0 19 -1 28h-5q-24 0 -61 -10h-7q-16 3 -33.5 7.5t-28.5 7t-21 2.5q-30 0 -62 -13q-51 20 -51 87q0 10 1 14q-7 6 -12.5 13.5t-7.5 12t-2 5.5l-2 4q20 50 20 136 q0 59 -12 95l4 5v1q28 35 79 35q29 0 52 -14q49 0 73 17h8q44 -11 66 -11q40 0 88 24l6 -3l1.5 -1t3.5 -3t5 -4.5t6.5 -6t6.5 -8t6.5 -10.5t6 -12.5t4.5 -15t3 -17.5q0 -3 0.5 -7t0.5 -6q0 -52 -36 -81q-60 10 -70 10q-27 0 -75 -19l-6 -1q-34 7 -68 7q-8 0 -12 -1 q0 -45 8 -83q21 0 48 7h8q52 -21 80 -21q24 0 68 12l6 1l5 -4q26 -26 31 -59q7 -4 12 -7.5t8.5 -7t5 -5.5t4 -5.5t3.5 -4.5q-15 -45 -15 -113q0 -66 15 -111l1 -4l-2 -5q0 -1 -2.5 -6t-10.5 -14t-18 -15q-5 -50 -41 -79q-51 17 -90 17q-30 0 -75 -14h-7q-74 14 -84 14 q-31 0 -71 -15l-5 -1l-4 2q-1 0 -6 2.5t-13 9.5t-15 17t-12 27t-5 38z" />
<glyph unicode="6" horiz-adv-x="521" d="M-7 83q55 73 55 183v12l2 6q39 75 39 159q0 28 -2 36q52 69 52 162q0 21 -2 35l2.5 2.5t4 3.5t5.5 3.5t7 3.5t8.5 3t11 3t13.5 2t16 1q27 0 49.5 -7.5t36 -20t19 -19.5t9.5 -13l1 -1l3 -6q-50 -75 -50 -160v-13q46 -67 121 -92l4 -1l3 -4q29 -41 53 -57.5t72 -32.5l2 -6 l0.5 -3t1 -8t0.5 -11q0 -36 -22 -69q-17 -26 -49 -43v-3q0 -30 -14 -51q-56 -9 -116 -37.5t-95 -63.5l-9 -4q-44 0 -73 39q-19 -7 -40 -7q-22 0 -40 4t-30 10.5t-21 15t-14 16t-8 14.5t-4 10l-1 4zM194 152q69 19 124 52l-15 5l-6 4q-32 41 -67 62q0 -14 3 -28l-2 -8 q-27 -45 -37 -87z" />
<glyph unicode="7" horiz-adv-x="424" d="M-2 596q0 28 12 50.5t21 29t16 10.5q56 -14 70 -14q37 0 78 14h8q45 -15 78 -15q32 0 92 20l5 -4q36 -36 39 -84v-13q12 -15 16 -28q-55 -68 -56 -159l-1 -7q-51 -79 -51 -151q0 -3 0.5 -9t0.5 -9v-5l-2 -3q-59 -80 -59 -178v-19q-22 -29 -69 -29q-91 0 -117 69 q-3 7 -5 15v1v5l3 3q61 75 68 186v4l2 2q27 44 37 80.5t10 86.5v5l3 3q26 34 36 58l-15 -5l-7 -1q-60 11 -79 11q-32 0 -77 -18l-4 1q-1 0 -6 2.5t-13 9.5t-15.5 17.5t-13 28t-5.5 39.5z" />
<glyph unicode="8" horiz-adv-x="528" d="M8 118v8l4 7q33 30 67 86.5t45 103.5l1 7q2 1 5.5 3t8 3.5t13.5 2.5l-18 16l-4 7q-24 99 -101 165l-4 4v6q0 18 16 41q-2 14 -2 25q0 13 2 24t5 18.5t7.5 13.5t9 10t9 7t8 4.5t7 2.5l3.5 1q38 -15 82 -15q53 0 94 14h9q50 -16 82 -16q31 0 91 20l6 -4l1.5 -1t3.5 -2 t5 -3.5t6 -5.5t6 -7t6 -9.5t5 -12t4 -15.5t2 -18q0 -36 -14 -59q15 -23 19 -46q-36 -36 -67 -93.5t-40 -103.5v-5l-4 -3l-1 -1l4 -3l4 -7q28 -106 115 -171l1 -4v-8q0 -3 -1 -5q4 -14 4 -24v-7q0 -14 -2.5 -26t-6 -19.5t-9 -14.5t-9 -9.5t-8.5 -5.5l-5 -4q-8 1 -25 5.5 t-26 5.5q-16 -2 -25 -2q-16 0 -32 6q-24 -6 -37 -11h-7q-49 9 -77 9q-50 0 -103 -19l-4 -2l-5 2q-2 0 -9 2.5t-18.5 14t-17.5 28.5q-31 5 -50.5 26t-24 37t-4.5 26zM197 141h15q33 0 73 8q-15 19 -37 41l-3 5l-6 16q-23 -30 -42 -70zM218 531q24 -39 57 -67l4 -5l5 -16 q34 47 52 92q-26 -5 -48 -13h-7q-44 8 -63 9z" />
<glyph unicode="9" horiz-adv-x="500" d="M3 535q0 43 29 65h4q45 0 78 11t71 36h5q21 0 37 1.5t30.5 4.5t27 9t25 14t26.5 19l6 -2q1 0 7 -2.5t17 -11t19 -20.5h3q87 0 125 -82l2 -6q-71 -71 -79 -172l-3 -7q-68 -89 -72 -184v-4l-3 -4q-70 -77 -76 -186v-5q-22 -22 -60 -22q-26 0 -54 11q-32 13 -49.5 35 t-19.5 32t-2 17v5q65 65 84 160q-26 42 -71 84.5t-85 63.5l-5 2l-2 4q-6 6 -6 28q0 20 9 39q-5 7 -9 19t-6.5 25t-2.5 23zM179 467q29 -38 68 -71q7 27 10 61v4q15 15 33 41q-30 -18 -38 -26h-4q-39 0 -69 -9z" />
<glyph unicode=":" horiz-adv-x="245" d="M42 115q32 32 80 32q50 0 81 -31q-12 -42 -12 -60q0 -17 7 -38q-26 -33 -75 -33q-46 0 -71 28l-5 5q8 24 8 41q0 26 -13 56zM42 485q32 32 80 32q50 0 81 -31q-12 -42 -12 -60q0 -17 7 -38q-26 -33 -75 -33q-46 0 -71 28l-5 5q8 24 8 41q0 26 -13 56z" />
<glyph unicode=";" horiz-adv-x="270" d="M-11 -36q0 4 0.5 7.5t1 5.5l0.5 2l1 4l4 3q64 43 99 136l3 6l5 2l3 1t8 1.5t11 0.5q69 0 98 -72q11 -26 8 -31l-1 2v-6l-5 -4q-77 -59 -105 -140l-1 -4q-13 -10 -39 -10q-45 0 -68 37t-23 59zM69 485q32 32 80 32q50 0 81 -31q-12 -42 -12 -60q0 -17 7 -38 q-26 -33 -75 -33q-46 0 -71 28l-5 5q8 24 8 41q0 26 -13 56z" />
<glyph unicode="&#x3c;" horiz-adv-x="446" d="M23 280q0 29 19 64q-17 27 -17 59q0 28 12 40l2 4q42 8 77 30t56 53l7 4q49 13 73.5 30t55.5 56l6 -1q5 0 14 -2t29 -14.5t35 -33.5q23 -31 23 -70q0 -4 -0.5 -8t-0.5 -7t-0.5 -5.5t-1 -4l-0.5 -1.5l-2 -6q-50 -14 -71.5 -28t-51.5 -50l-2 -3q-47 -12 -88 -44 q45 -28 71 -28l4 -1l3 -4q32 -38 56.5 -52.5t69.5 -24.5l7 -1l2 -6v-1q1 -2 1.5 -5t1.5 -6.5t1.5 -8.5t0.5 -10q0 -73 -67 -112q-25 -15 -29 -11l2 2l-7 -1l-4 5q-35 38 -54.5 50t-64.5 22l-6 3q-37 37 -66.5 52.5t-79.5 25.5q-16 16 -16 50z" />
<glyph unicode="=" horiz-adv-x="485" d="M35 235q0 70 51 92l2 1q40 -16 81 -16q32 0 76 11l4 2l4 -2q47 -16 77 -16q29 0 77 16q41 -25 43 -88q0 -61 -42 -95l-7 1q-50 15 -73 15q-24 0 -66 -13l-6 -1q-29 12 -77 12q-35 0 -84 -18h-9q-51 26 -51 99zM35 485q0 70 51 92l2 1q40 -16 81 -16q32 0 76 11l4 2l4 -2 q47 -16 77 -16q29 0 77 16q41 -25 43 -88q0 -61 -42 -95l-7 1q-49 15 -73 15t-66 -13l-6 -1q-29 12 -77 12q-34 0 -84 -18h-9q-4 2 -6.5 3.5t-12 9.5t-15.5 18t-11.5 28t-5.5 40z" />
<glyph unicode="&#x3e;" horiz-adv-x="446" d="M31 194q0 5 0.5 10t1.5 8.5t1.5 6.5t1 4.5l0.5 1.5l3 6q46 8 73 23.5t60 54.5l3 4l4 1q24 0 69 27q-25 21 -83 44l-6 4q-28 36 -48 48t-74 30l-2 6q-4 4 -4 27q0 90 101 119l7 1q32 -40 58 -58.5t75 -28.5q42 -63 135 -86l3 -4l1 -2t3 -5.5t3.5 -8.5t2.5 -11.5t1 -13.5 q0 -31 -17 -58q19 -33 19 -65q0 -33 -16 -49q-46 -9 -73 -22.5t-61 -44.5l-3.5 -3.5t-4.5 -4t-3 -3.5l-6 -3q-45 -11 -65 -23t-54 -49l-5 -5l-6 1q-4 1 -10.5 3t-22.5 11.5t-28.5 22t-23 35t-10.5 49.5z" />
<glyph unicode="?" horiz-adv-x="455" d="M25 589q0 18 3 33t8 26t11.5 20t13 14.5t14 10t13 7t10.5 3.5t7 1.5l2 0.5h5l3 -3q66 -50 144 -50l8 -2q20 -16 36 -25.5t32.5 -14.5t32 -6.5t39.5 -1.5h7l3 -4.5t5 -8.5t4.5 -10.5t4 -15.5t1.5 -20q0 -18 -6 -39q0 -1 -1 -3l-1 -2q11 -23 11 -46q0 -5 -0.5 -10 t-1.5 -8.5t-1.5 -6.5t-1 -4.5l-0.5 -1.5l-2 -6q-49 -14 -102 -47.5t-84 -69.5q-1 -10 -1 -30q0 -25 7 -46l-3 -4t-5.5 -7t-7.5 -7.5t-11 -8t-14 -7t-19 -5t-24 -1.5q-50 0 -80 37v1l-4 6l2 6q12 25 12 56q0 25 -11 63v9q14 27 41 40q3 20 17 39q40 10 87 35h-8l-7 2 q-58 44 -139 44h-20l-3 3q-3 2 -5 4t-5.5 6t-6 9.5t-4.5 12t-3.5 15t-1.5 18.5zM73 115q32 32 79 32q45 0 82 -31q-12 -42 -12 -61q0 -16 7 -37l-5 -5q-25 -28 -71 -28q-49 0 -75 33q7 21 7 39q0 16 -12 58z" />
<glyph unicode="@" horiz-adv-x="812" d="M34 93q22 44 22 103q0 29 -10 76l1 6q12 47 12 85q0 27 -16 91q21 42 21 99q0 37 -12 79l-1 6l3 5l1 1.5t2.5 3.5t3.5 4.5t5 5t7 5.5t10 5l12 4q7 40 43 58h8q44 -20 89 -20q30 0 69 9h5q42 -12 77 -12q40 0 79 14h7q49 -20 89 -20t75 14l4 -4l0.5 -0.5t1.5 -1t2.5 -2 t3 -2.5t3.5 -3t3.5 -4.5t3.5 -5.5t3.5 -6t3 -7.5t2.5 -8.5q7 -2 13 -5.5t9.5 -6l3.5 -2.5l4 -4v-6q-1 -12 -1 -32q0 -27 5.5 -46.5t20.5 -49.5l2 -6q0 -35 2.5 -54t8.5 -34t22 -43l2 -3q-2 -8 -2 -31q0 -16 1.5 -28.5t6 -26t10.5 -26t16 -30.5l2 -4v-4l-0.5 -1.5l-1.5 -4.5 t-2.5 -7t-4 -9t-6 -9.5t-8.5 -9.5t-11 -9q-7 -42 -44 -64l-5 3q-54 18 -81 18q-18 0 -50 -6l-6 1q-52 16 -76 16q-20 0 -64 -11l-3 2q-51 18 -78 18q-15 0 -70 -11l-4 2l-2 1.5t-5 3.5t-7 5.5t-8 8.5t-7.5 11t-6.5 14.5t-4 18.5q-11 6 -19 14.5t-11 14t-3 7.5l-2 4l2 5 q8 15 15.5 34t12.5 39t7.5 40t2.5 38q0 4 -0.5 10t-0.5 9q3 8 4 9q-12 19 -12 49q0 10 2 19.5t5.5 16t7.5 11.5t8 8.5t7.5 5.5t5.5 3l2 1l4 2q36 -12 64 -12q34 0 60 9h6q33 -12 61 -12q32 0 62 12l4 -3q1 0 3.5 -2t7 -7.5t8.5 -12t7 -17.5t3 -23q0 -9 -2 -21q16 -16 16 -23 l2 -3l-2 -4q-12 -41 -12 -97q0 -32 4 -55q2 0 8 2l7 -1q8 -4 19.5 -7.5t24.5 -6.5t18 -5q-3 31 -26 80l-1 6q-1 33 -3.5 51t-8.5 33.5t-21 42.5l-2 3q3 12 3 43t-11 58q-18 3 -35 3q-33 0 -64 -10h-6q-45 13 -82 13q-39 0 -77 -14l-3 -2q-38 19 -85 19q-16 0 -33 -3 q-5 -30 -5 -51q0 -32 11 -71v-6q-14 -53 -14 -90q0 -40 15 -85l1 -4l-1 -4q-17 -49 -17 -90q0 -26 4 -47q36 -18 88 -18l3 1q31 -21 51.5 -28.5t46.5 -7.5q3 0 9 0.5t9 0.5h5l2.5 -3t4 -5t3.5 -6.5t3.5 -9t2.5 -12t1 -15.5q0 -12 -3 -25q-5 -20 -17 -35.5t-20 -21t-10 -5.5 l-5 -2q-32 19 -49.5 26t-42.5 7h-18l-6 1q-46 30 -98 30q-21 0 -29 -2l-3 3q-14 7 -21 33q-19 4 -32.5 16t-18 20.5t-4.5 11.5zM338 287q21 -7 46 -7q16 0 54 5h6v24q0 64 -14 109l-16 -4h-6q-17 4 -37 6q3 -5 9 -23l-2 -4q-27 -43 -40 -106z" />
<glyph unicode="A" horiz-adv-x="508" d="M-4 79q52 69 52 179v17l2 6q37 74 37 152q0 29 -3 44q50 67 50 159q0 10 -2 32v6q24 24 70 24q72 0 112 -60l3 -6l-3 -6q-2 -2 -2 -3h7q8 0 15.5 -0.5t13 -1.5t9.5 -2t6.5 -1.5l2.5 -0.5l6 -4q-2 -14 -2 -30q0 -86 41 -159l2 -6v-13q0 -58 10 -93q19 7 42 21l6 -2l1.5 -1 t4 -2.5t5.5 -4t6.5 -6t7 -7.5t7.5 -10t7.5 -12.5t6.5 -15t5 -17.5q3 -17 3 -30q0 -42 -24 -72q-14 2 -34 2q13 -47 45 -98l-6 -7q-29 -29 -77 -40q-20 -5 -36 -5q-10 0 -19 1.5t-15.5 3t-11.5 3.5t-8 3l-3 2l-7 4l1 8q0 4 0.5 12t0.5 12q0 34 -6 67q-2 -2 -3 -2l-7 -2 q-73 0 -127 -18v-15q0 -27 4 -47q-26 -35 -79 -35q-29 0 -51.5 7.5t-34.5 18t-19 21.5t-9 19l-2 7zM230 275q5 2 21.5 9t26.5 10q8 -2 13 -2q-10 38 -32 88l-7 23q-22 -57 -22 -115v-13z" />
<glyph unicode="B" horiz-adv-x="533" d="M28 54q24 48 24 118q0 43 -10 84v6q13 52 13 94q0 37 -17 105q23 46 23 111q0 46 -15 91l4 5q24 24 57 31q12 19 29.5 30t29.5 13l11 2h5l4 -3q53 -48 141 -64q3 -1 10 -1h4l4 -3q40 -34 75.5 -49t85.5 -18h6l4 -6l1 -2q1 -3 3 -7t3.5 -9.5t2.5 -13.5t1 -16 q0 -45 -25 -77q5 -20 5 -32q0 -4 -0.5 -7.5t-0.5 -6.5t-1 -5.5t-1.5 -4.5t-0.5 -3.5t-1 -2.5v-1l-2 -6l-6 -2q-64 -18 -111 -54q50 -44 115 -61l6 -2l3 -6l1 -3q0 -4 1 -10t1 -13q0 -16 -5 -33q15 -27 15 -59q0 -30 -12 -50q-110 -16 -175 -74l-6 -3q-54 -11 -88.5 -26 t-67.5 -47l-9 -4q-41 0 -72 43q-21 5 -36 16.5t-19.5 19.5t-4.5 11zM210 174q25 14 37 26l5 1q29 1 63 11q-35 19 -68 30l-6 3l-8 8q-1 0 -8 -5q-12 -38 -15 -74zM216 540q0 -35 11 -71v-7q-7 -27 -8 -34l14 14l3 4q65 16 107 46q-26 6 -55 9q-12 6 -36.5 20t-35.5 19z" />
<glyph unicode="C" horiz-adv-x="515" d="M8 111l2 4q36 65 36 120q0 19 -3 45l1 6q25 60 25 110q0 29 -8 69l2 3q24 46 30 77q-18 23 -18 66q0 24 5.5 43t13 29t16 17t13.5 9.5t6 2.5l5 2q52 -26 110 -26q42 0 56 5l4 1q56 -28 105 -28q9 0 69 10l3 -2l5 -5t5 -6.5t5.5 -8.5t5.5 -10.5t5 -14t3 -17t1 -20.5v-8 q-3 -56 -41 -87h-1l-6 -4l-6 2q-57 24 -97 24q-23 0 -57 -8q-12 2 -57 13q-1 -10 -1 -28t5 -46v-4l-1 -3q-27 -63 -27 -114q0 -32 9 -68q-31 -61 -33 -99q13 2 67 20q3 1 13 6q32 -8 64 -8q54 0 118 32l3 -1.5t4.5 -2.5t5 -3.5t6.5 -5t6.5 -7t6.5 -8.5t6.5 -10t6 -12.5 t5 -15t3.5 -17.5q1 -7 1 -20q0 -9 -1.5 -18.5t-3.5 -16.5t-5 -13l-5.5 -11t-5 -8.5t-3.5 -5.5l-2 -2l-5 -5q-21 7 -61 7q-53 0 -111 -29l-3 1q-8 0 -22 1t-21 1q-74 0 -139 -34l-5 -2l-4 1l-2.5 1l-5 2t-7 3.5t-8 5t-8.5 6.5t-9 8.5t-8 10.5t-7 12.5t-5.5 14.5t-3.5 17 q-16 8 -27 21t-14 20t-3 9z" />
<glyph unicode="D" horiz-adv-x="520" d="M28 52q24 60 24 118q0 42 -10 85v6q13 52 13 94q0 49 -16 100l-1 5q23 46 23 110q0 47 -15 92l1 2q29 38 92 38h10q29 23 62 23q6 0 12 -0.5t9.5 -1.5l3.5 -1l4 -2q8 -19 22 -39t32 -38t37.5 -33.5t39.5 -29.5l9 -4l4 -2q48 -96 137 -141l6 -2q2 -14 2 -16q0 -29 -20 -60 q21 -30 21 -64v-5l-1 -7q-90 -45 -135 -132l-1 -4l-3 -1q-41 -24 -80.5 -66t-58.5 -85l-2 -4l-5 -2q-5 -5 -26 -5q-29 0 -58 20q-20 -4 -33 -4q-22 0 -39.5 5t-28 12.5t-17.5 15.5t-9.5 13t-2.5 6zM212 359q0 -64 18 -100q-7 -14 -14 -46q5 7 20 25t19 26q66 33 109 88 q-40 51 -98 82q-9 9 -23.5 28t-20.5 26q1 -5 5 -20v-7q-15 -54 -15 -102z" />
<glyph unicode="E" horiz-adv-x="490" d="M28 52q24 60 24 118q0 42 -10 85v6q13 52 13 94q0 49 -16 100l-1 5q23 46 23 110q0 47 -15 92l1 2q29 38 92 38q44 0 75 -23q44 5 65 15l5 -1q47 -15 74 -15q25 0 85 20q41 -24 45 -86v-9q0 -56 -38 -86q-45 13 -78 13q-27 0 -72 -15l-7 -1q-43 8 -77 8q4 -32 11 -54v-7 q-4 -13 -8 -35q27 -7 53 -7q38 0 83 15l2 -1q38 -29 38 -88q0 -50 -39 -89l-5 -4q-70 20 -96 20q-15 0 -30 -3l5 -10q-12 -23 -18 -70q34 8 57 8l4 1q50 -25 91 -25q33 0 72 13l5 -4q32 -32 32 -86q0 -16 -4.5 -31t-10.5 -25t-11.5 -17t-10.5 -11l-4 -4l-6 -3q-66 22 -91 22 q-22 0 -58 -9h-7l-54 12q-29 -34 -89 -34q-22 0 -39.5 5t-28 12.5t-17.5 15.5t-9.5 13t-2.5 6z" />
<glyph unicode="F" horiz-adv-x="475" d="M28 52q24 60 24 118q0 42 -10 85v6q13 52 13 94q0 49 -16 100l-1 5q23 46 23 110q0 47 -15 92l1 2q29 38 92 38q44 0 75 -23q44 5 65 15l5 -1q47 -15 74 -15q25 0 85 20q41 -24 45 -86v-9q0 -56 -38 -86q-45 13 -78 13q-27 0 -72 -15l-7 -1q-43 8 -77 8q4 -31 11 -54v-7 q-4 -13 -8 -35q27 -7 53 -7q38 0 83 15l2.5 -2t4 -3t5 -4t5.5 -6t5.5 -7.5t5.5 -9t4.5 -11t4 -13t2.5 -15.5t1 -18q0 -50 -39 -89l-5 -4q-70 20 -96 20q-15 0 -30 -3l5 -10l-2 -4q-18 -51 -18 -102q0 -57 19 -104q-27 -53 -102 -53q-22 0 -39.5 5t-28 12.5t-17.5 15.5 t-9.5 13t-2.5 6z" />
<glyph unicode="G" horiz-adv-x="557" d="M8 111l2 4q36 65 36 120q0 19 -3 45l1 6q25 60 25 110q0 29 -8 69l2 3q24 46 30 77q-18 23 -18 66q0 24 5.5 43t13 29t16 17t13.5 9.5t6 2.5l5 2q52 -26 110 -26q42 0 56 5l4 1q56 -28 105 -28q9 0 69 10l3 -2l5 -5t5 -6.5t5.5 -8.5t5.5 -10.5t5 -14t3 -17t1 -20.5v-8 q-3 -56 -41 -87h-1l-6 -4l-6 2q-57 24 -97 24q-23 0 -57 -8q-12 2 -57 13q-1 -10 -1 -28t5 -46v-4l-1 -3q-27 -63 -27 -114q0 -32 9 -68q-31 -61 -33 -99q13 2 67 20q3 1 13 6q32 -8 62 -8h19q-1 4 -5 19v8q13 40 13 72q0 25 -21 88l3 5q0 2 9 11t32.5 19.5t53.5 10.5 q51 0 85 -34q-13 -39 -13 -76q0 -31 18 -76v-7q-7 -35 -7 -66q0 -48 23 -94q-1 -3 -3 -8.5t-10 -15t-19 -17t-31 -13.5t-45 -6q-48 0 -75 29q-29 -9 -56 -22l-3 1q-8 0 -22 1t-21 1q-74 0 -139 -34l-5 -2l-4 1l-2.5 1l-5 2t-7 3.5t-8 5t-8.5 6.5t-9 8.5t-8 10.5t-7 12.5 t-5.5 14.5t-3.5 17q-16 8 -27 21t-14 20t-3 9z" />
<glyph unicode="H" horiz-adv-x="612" d="M28 54q24 48 24 118q0 43 -10 84v6q13 52 13 94q0 37 -17 105q23 46 23 111q0 46 -15 91l1 2q29 38 92 38q28 0 51 -10t31.5 -18.5t10.5 -11.5l5 -5l-3 -6q-18 -54 -18 -104q0 -43 11 -79v-7q-13 -45 -13 -89q0 -42 10 -91l16 9l7 1q9 -2 25 -2q52 0 104 27q2 24 2 37 q0 49 -14 100v8q15 45 15 89q0 62 -22 106q31 51 97 51q60 0 104 -44l5 -6q-22 -66 -22 -120q0 -41 10 -77v-7q-15 -43 -16 -79q8 6 12 10l5 -2h1q46 -18 55 -72q2 -16 2 -23q0 -45 -22 -83q-20 2 -34 2q-10 0 -15 -1q-2 -13 -2 -40q0 -50 15 -110q-28 -56 -100 -56t-103 51 q20 51 24 116q-52 -11 -102 -39l-6 -2q-6 0 -24 -0.5t-28 -0.5q4 -45 16 -75q-26 -52 -102 -52q-22 0 -39.5 5t-28 12t-17.5 15t-9.5 13t-2.5 6z" />
<glyph unicode="I" horiz-adv-x="266" d="M28 54q24 48 24 118q0 43 -10 84v6q13 52 13 94q0 37 -17 105q23 46 23 111q0 46 -15 91q32 40 93 40q28 0 51 -10t31.5 -18.5t10.5 -11.5l5 -5l-3 -6q-18 -54 -18 -104q0 -43 11 -79v-7q-15 -54 -15 -102q0 -64 18 -100q-20 -40 -20 -105q0 -58 19 -105 q-26 -52 -102 -52q-22 0 -39.5 5t-28 12t-17.5 15t-9.5 13t-2.5 6z" />
<glyph unicode="J" horiz-adv-x="485" d="M-17 250q0 46 41 83q36 32 79 32h7t5 -0.5l2 -0.5l7 -2l2 -6q20 -46 41.5 -71t61.5 -50l4 -5q29 -50 39 -64v3q0 41 -9 86v6q13 52 13 94q0 49 -16 100l-1 5q23 46 23 110q0 47 -15 92l1 2q7 8 13.5 14.5t28.5 15t50 8.5t51 -10t31.5 -18.5t10.5 -11.5l5 -5l-3 -6 q-18 -54 -18 -104q0 -43 11 -79v-7q-15 -54 -15 -102q0 -64 18 -100l-2 -4q-18 -51 -18 -102q0 -52 17 -99l1 -5l-2 -4q0 -1 -2.5 -6t-10 -12.5t-18 -14t-28.5 -11.5t-40 -5q-15 0 -35 4q-36 -36 -77 -36q-24 0 -31 7l-4 2q-19 48 -39 77t-60 55l-4 2l-1 4q-19 49 -43 77 t-70 55z" />
<glyph unicode="K" horiz-adv-x="542" d="M28 52q24 60 24 118q0 42 -10 85v6q13 52 13 94q0 49 -16 100l-1 5q23 46 23 110q0 47 -15 92l1 2q29 38 92 38q28 0 51 -10t31.5 -18.5t10.5 -11.5l5 -5l-3 -6q-18 -54 -18 -104q0 -43 11 -79v-7q-2 -8 -5 -21.5t-4 -16.5q35 41 57 97l2 4l4 2q90 52 126 145l3 6l6 1 l2 0.5t5 1t7 0.5q40 0 77 -30q21 -17 33 -40.5t13.5 -33t1.5 -15.5v-7l-6 -4q-85 -54 -119 -138q-7 -7 -22.5 -19.5t-21.5 -17.5q16 -68 61 -120l2 -6q11 -57 25 -90t47 -66v-5v-3.5t-1.5 -8.5t-4 -12t-7.5 -14t-12 -15.5t-18 -15.5t-25 -14q-27 -12 -51 -12q-16 0 -30 5 t-19.5 9.5t-6.5 6.5l-3 3l-1 5q-1 40 -12 70t-37 71l-10 10v5q-2 30 -7 52q-39 -28 -66 -66v-11q0 -57 19 -104q-27 -53 -102 -53q-22 0 -39.5 5t-28 12.5t-17.5 15.5t-9.5 13t-2.5 6z" />
<glyph unicode="L" horiz-adv-x="468" d="M28 54q24 48 24 118q0 43 -10 84v6q13 52 13 94q0 37 -17 105q23 46 23 111q0 46 -15 91l1 2q29 38 92 38q28 0 51 -10t31.5 -18.5t10.5 -11.5l5 -5l-3 -6q-18 -54 -18 -104q0 -43 11 -79v-7q-15 -54 -15 -102q0 -64 18 -100q-13 -26 -19 -75q6 1 12.5 2.5t10 2t6.5 1 t5 1.5q44 -22 110 -22q40 0 93 15l5 -4q34 -34 35 -86q0 -9 -1 -17t-3 -15t-4.5 -13.5t-5 -11.5t-5.5 -9.5t-6 -8t-5.5 -6.5t-4.5 -4.5t-3.5 -3l-1.5 -1.5l-5 -4q-60 20 -108 20q-41 0 -81 -12h-7q-13 4 -45 10q-31 -21 -75 -21q-22 0 -39.5 5t-28 12t-17.5 15t-9.5 13 t-2.5 6z" />
<glyph unicode="M" horiz-adv-x="734" d="M-5 73l2 4q44 72 44 164q0 20 -1 30l1 6q32 73 32 144q0 33 -5 53l2 4q41 70 41 145q0 22 -4 50l3 3t5.5 4.5l7.5 4.5t10.5 5.5t12.5 4.5t16 3t20 1q16 0 30.5 -3t25 -7.5t19.5 -10.5t15 -11.5t10.5 -11t6 -8t2.5 -3.5l4 -6l-3 -6l-6 -10q6 -1 11.5 -3t8.5 -3l3 -1l6 -4 v-7q0 -98 50 -179l2 -6q0 -32 6 -62q15 48 15 98q0 21 -2 29q55 73 55 170v19l-1 6q28 22 66 22q14 0 26.5 -2t22.5 -6t18.5 -8.5t15.5 -10t12.5 -10.5t9 -10t6 -8.5t3.5 -5.5l2 -3l3 -6q-4 -5 -9 -13q6 -2 11 -4.5t7.5 -4l2.5 -1.5l6 -5q-5 -35 -5 -55q0 -69 31 -136l1 -7 q-2 -14 -2 -42q0 -77 31 -140l2 -2v-4q0 -3 -0.5 -8.5t-0.5 -8.5q0 -79 40 -153l4 -8l-6 -6q-26 -26 -74 -35q-16 -3 -32 -3q-10 0 -18.5 1t-15.5 2.5t-12 3.5t-10 4.5t-7.5 4t-6 4l-3.5 2.5q5 40 5 59q0 57 -21 118v5q1 9 1 28q0 51 -15 105q-4 -23 -4 -51q0 -10 2 -32 l-2 -8q-49 -74 -49 -162q1 -2 11 -14l-6 -8q-5 -6 -14 -14.5t-40 -22.5t-64 -14q-11 0 -19.5 1t-14.5 2.5t-9.5 3t-8.5 3.5t-6 3l1 8q0 87 -38 166l-1 5q-3 75 -42 155q-4 -24 -4 -53q0 -34 5 -54l-2 -4q-37 -67 -37 -142q0 -31 6 -61q-29 -39 -83 -39q-28 0 -50 7t-33.5 17 t-19 20.5t-9.5 17.5l-2 7z" />
<glyph unicode="N" horiz-adv-x="598" d="M28 52q24 48 24 118q0 43 -10 84v6q13 52 13 94q0 37 -17 105q23 46 23 111q0 46 -15 91l1 2q29 38 92 38q37 0 65 -17h8q12 0 23.5 -2.5t16.5 -4.5t6 -3l6 -3l1 -6q10 -100 70 -169l3 -3v-3q12 -78 50 -138v1q0 26 -3.5 51t-11.5 51v8q21 54 21 109q0 47 -14 89l1 2 l9.5 9.5t15 12t28 12t39.5 4.5q61 0 97 -45q-21 -63 -21 -111q0 -39 12 -78v-7q-15 -52 -15 -101q0 -52 16 -97v-8q-19 -50 -19 -103q0 -56 19 -103q-26 -52 -101 -52q-43 0 -68 17h-5q-11 0 -20.5 1.5t-16 5t-10.5 6t-8 6.5l-4 3v5q-4 97 -73 185l-2 5q-12 65 -42 119 q2 -59 18 -91q-20 -40 -20 -105q0 -58 19 -105q-26 -52 -102 -52q-22 0 -39.5 5t-28 12t-17.5 15t-9.5 13t-2.5 6z" />
<glyph unicode="O" d="M8 111l2 4q13 24 20.5 41.5t11.5 37t4 41.5q0 19 -3 45l1 6q25 60 25 110q0 29 -8 69l2 3q24 46 30 77q-18 23 -18 66q0 24 5.5 43t13 29t16 17t13.5 9.5t6 2.5l5 2q52 -26 110 -26q42 0 56 5l4 1q53 -27 98 -28q32 14 62 14q11 0 21 -1.5t18 -4.5t15 -6t12 -6.5t8.5 -6 t6 -4.5l2.5 -2l5 -5q-13 -39 -13 -84t20 -94l2 -3q-8 -32 -8 -73q0 -61 27 -119l2 -3q-13 -33 -13 -80q0 -52 28 -108l-2 -5q0 -4 -8 -16t-35.5 -27.5t-67.5 -15.5q-38 0 -63 18q-47 -6 -87 -25l-3 -2l-3 1q-8 0 -23 1t-23 1q-91 0 -156 -34l-5 -2l-4 1l-2.5 1l-5 2t-7 3.5 t-8 5t-8.5 6.5t-9 8.5t-8 10.5t-7 12.5t-5.5 14.5t-3.5 17q-16 8 -27 21t-14 20t-3 9zM198 162q74 9 96 24l4 2q32 -8 69 -8q22 0 43 3q-4 26 -15 62l-1 6q6 33 6 64q0 68 -28 124q1 7 5 24.5t6.5 29.5t2.5 24q-18 2 -26 2q-23 0 -57 -8q-12 2 -57 13q-1 -10 -1 -28t5 -46 v-4l-1 -3q-27 -63 -27 -114q0 -32 9 -68q-31 -61 -33 -99z" />
<glyph unicode="P" horiz-adv-x="513" d="M27 43q24 48 24 118q0 43 -10 84v6q13 52 13 94q0 37 -17 105q23 46 23 111q0 46 -15 91l4 5q25 25 57 32q6 9 13.5 16.5t15 12t15 8t12.5 4.5t9.5 2l4.5 1h5l4 -3q13 -11 25.5 -20t25 -15.5t27 -12t29.5 -9.5t34 -7q2 0 5 -0.5t5 -0.5h4l4 -3q40 -34 75.5 -49t85.5 -18 h6l4 -5l2.5 -6t5.5 -17.5t3 -24.5q0 -19 -7.5 -43t-17.5 -36q9 -22 9 -44q0 -4 -0.5 -8.5t-1.5 -6.5v-3l-1 -6l-6 -2q-93 -41 -143 -114l-5 -5q-36 -15 -76.5 -47t-67.5 -68q-1 0 -1 -7l1 -8q0 -58 19 -105q-26 -52 -102 -52q-22 0 -39.5 5t-28 12t-17.5 15t-9.5 13t-2.5 6z M211 370q23 23 25 31l3 4l4 1q64 24 111 71q-30 10 -67 13q-12 6 -36.5 20t-35.5 19q0 -33 11 -71v-7q-12 -42 -15 -81z" />
<glyph unicode="Q" d="M8 111l2 4q13 24 20.5 41.5t11.5 37t4 41.5q0 19 -3 45l1 6q25 60 25 110q0 29 -8 69l2 3q24 46 30 77q-18 23 -18 66q0 24 5.5 43t13 29t16 17t13.5 9.5t6 2.5l5 2q52 -26 110 -26q42 0 56 5l4 1q53 -27 98 -28q32 14 62 14q11 0 21 -1.5t18 -4.5t15 -6t12 -6.5t8.5 -6 t5.5 -4.5l3 -2l5 -5q-13 -39 -13 -84t20 -94l2 -3q-8 -32 -8 -73q0 -60 27 -119l2 -3q-13 -33 -13 -80q0 -52 28 -108l-2 -5q0 -1 -2.5 -6.5t-10.5 -14.5t-19.5 -17.5t-32.5 -14.5t-46 -6q-38 0 -63 18q-30 -6 -32 -6v-6q0 -44 24 -104l-2 -4q0 -1 -2.5 -6t-10 -14 t-18.5 -16.5t-31 -13.5t-44 -6q-62 0 -85 45l1 5q11 33 11 69q0 11 -2 29q-64 -9 -104 -30l-5 -2l-4 1l-2.5 1l-5 2t-7 3.5t-8 5t-8.5 6.5t-9 8.5t-8 10.5t-7 12.5t-5.5 14.5t-3.5 17q-16 8 -27 21t-14 20t-3 9zM198 162q74 9 96 24l4 2q32 -8 69 -8q22 0 43 3q-4 26 -15 62 l-1 6q6 33 6 64q0 68 -28 124q1 7 5 24.5t6.5 29.5t2.5 24q-18 2 -26 2q-23 0 -57 -8q-12 2 -57 13q-1 -10 -1 -28t5 -46v-4l-1 -3q-27 -63 -27 -114q0 -32 9 -68q-31 -61 -33 -99z" />
<glyph unicode="R" horiz-adv-x="532" d="M27 36q24 48 24 118q0 43 -10 84v6q13 52 13 94q0 37 -17 105q23 46 23 111q0 47 -15 92l4 5q24 24 57 31q5 8 11.5 14.5t13 11t12.5 8t12 5.5t10 3t7.5 1.5l3.5 0.5h5l4 -3q72 -64 151 -64l8 -3q27 -23 50.5 -36.5t50 -21t60.5 -9.5l6 -1l4 -5l3 -6t5.5 -17.5t2.5 -24.5 t-3.5 -28t-9.5 -28.5t-12 -21.5q9 -22 9 -43q0 -5 -0.5 -9.5t-1 -7l-0.5 -2.5l-1 -6l-6 -3q-65 -28 -105 -69q14 -39 56 -78l3 -5q17 -84 80 -139l4 -2v-5q0 -50 -57 -83q-30 -17 -58 -17q-6 0 -12 0.5t-10 2t-7.5 2.5t-6.5 3l-4.5 3t-3 2.5t-2.5 1.5l-1 5q-7 62 -62 129 q-5 5 -7 6l-3 3v4q-8 48 -23 74q-41 -30 -73 -72q-1 0 0 -8v-7q0 -66 19 -104q-2 -6 -6 -12t-15 -17t-32 -17.5t-49 -6.5q-22 0 -39.5 5t-28 12t-17.5 15t-9.5 13t-2.5 6zM211 364q19 19 25 30l7 6q68 25 112 71q-30 10 -68 13l-6 2q-9 5 -22.5 13t-24 14t-19.5 10 q0 -34 11 -72v-7q-12 -42 -15 -80z" />
<glyph unicode="S" horiz-adv-x="443" d="M2 86q0 12 2 22.5t5.5 18t7.5 13.5t8.5 10t7.5 6.5t7 5l4 2.5q35 -7 52 -7q4 0 7.5 0.5t6.5 0.5t7 1t6.5 1.5t8 2t8 2t9 3t9.5 3.5t11.5 4t12.5 4l4 2q19 -5 45 -7q-8 12 -31 37l-3 5q-13 49 -34 83.5t-56 66.5l-4 3v4q-17 99 -89 166l-4 4v6v1.5t1 4t2 5.5t3 7.5t4 8.5 t6 9l8 10q-1 3 -1 9q0 56 42 77q35 -7 51 -7q41 0 91 25q32 -8 62 -8q40 0 98 29l6 -3l1.5 -1t4 -2.5t5.5 -4t6 -6t7 -8t7.5 -10t6.5 -12t5.5 -14.5t3.5 -17q2 -14 2 -21q0 -6 -0.5 -12.5t-2 -11.5l-3 -10t-3.5 -9l-4 -8l-3.5 -7t-3.5 -5.5t-3 -4t-2 -2.5l-1 -1l-5 -4 q-42 6 -60 6q-35 0 -87 -24l-3 -2l-4 1q-9 0 -22 0.5t-18 0.5q20 -34 49 -60l3 -5q14 -54 34.5 -89t56.5 -65l4 -7q10 -52 28.5 -84.5t57.5 -65.5l3 -3l1 -5q0 -51 -53 -86q-4 -9 -7.5 -14.5t-8 -9.5t-5.5 -6q-42 6 -61 6q-35 0 -86 -24l-7 -1q-9 0 -25 1t-21 1 q-47 0 -99 -31q-5 1 -9 2.5t-16.5 9t-21 18t-15.5 30.5t-7 46z" />
<glyph unicode="T" horiz-adv-x="453" d="M-8 617q0 11 1.5 20.5t3.5 17t5.5 14t6.5 11.5t7.5 9t7.5 7t7 5t6.5 3.5t5 2.5l2.5 1q40 -16 92 -16q67 0 93 13l4 -2q48 -16 91 -16q42 0 93 17l4 -3t7 -5.5t8 -7.5t8.5 -11.5t7 -15t5.5 -19.5t2 -24q0 -14 -2.5 -27t-6.5 -22t-8.5 -16.5t-8 -12t-6.5 -8.5l-4 -3l-5 -4 q-56 16 -94 16h-14v-8v-9v-8q0 -38 11 -79v-6q-15 -54 -15 -95q0 -57 18 -93l-2 -4q-18 -51 -18 -95q0 -48 19 -96q-26 -52 -102 -52q-77 0 -99 56q24 48 24 108q0 38 -10 79v6q13 48 13 90q0 44 -15 90l-2 4q21 42 23 110h-5q-49 0 -99 -18l-4 -1l-5 2q-1 0 -6 2.5t-13 9.5 t-15 17t-12 27.5t-5 38.5z" />
<glyph unicode="U" horiz-adv-x="583" d="M10 99q33 66 33 120q0 21 -5 56v6q21 58 21 108q0 32 -11 76q32 64 32 129q0 38 -10 73l5 5.5t10.5 9t15 8.5t23.5 7.5t31 2.5q64 0 101 -45v-1l4 -6q-29 -58 -29 -129q0 -29 6 -59v-7q-23 -66 -23 -113q0 -34 10 -70v-8q-26 -56 -26 -102q11 3 34.5 11.5t37.5 12.5 q32 -4 45 -4q33 0 63 9q-2 11 -7 32.5t-7 32.5q7 34 7 72q0 62 -23 122v8q14 42 14 89q0 65 -22 109l4 6q5 7 12.5 13.5t31.5 16.5t54 10q52 0 84 -32l5 -5q-14 -49 -14 -92q0 -50 18 -98v-7q-9 -42 -9 -79q0 -70 26 -122q-13 -52 -13 -87q0 -68 27 -122l-2 -5l-1 -2 q-1 -2 -3 -5l-5 -7.5t-7.5 -9t-10.5 -9t-14 -8.5t-17.5 -7t-22 -5t-26.5 -2q-59 0 -85 37q-30 -9 -59 -25l-6 -1q-41 0 -64 -1.5t-54 -9.5t-57 -24l-4 -3l-5 1q-1 0 -6 2t-9.5 4.5t-12 8t-13.5 13t-13 20t-12 28.5q-16 8 -27.5 19.5t-15 19t-3.5 9.5z" />
<glyph unicode="V" horiz-adv-x="507" d="M-3 609l3 6l1 2t3.5 5.5t5.5 8t8.5 9.5t11.5 10t14.5 10t18.5 8.5t22.5 5.5t26.5 2q41 0 70 -23v-7q-1 -9 -1 -27q0 -85 41 -151l1 -7q0 -95 36 -164q32 67 32 132q0 20 -1 31l2 8q24 36 33.5 68t9.5 72q0 4 -0.5 13.5t-0.5 14.5v6q23 23 66 23q24 0 44.5 -7.5t33 -20 t18 -19t8.5 -13.5l1 -1l2 -6l-3 -6q-22 -38 -31 -68.5t-9 -67.5q0 -14 1 -22l-2 -7q-39 -75 -39 -142q0 -10 2 -34l-2 -8q-46 -77 -46 -163q0 -11 2 -33v-4l-1.5 -2t-2.5 -3.5t-3.5 -4.5t-5 -5t-6 -4.5t-7.5 -4.5l-9 -4.5t-10.5 -3.5t-12.5 -2t-15 -1h-14q-42 -27 -85 -27 q-48 0 -73 34q3 15 3 43q0 80 -41 156l-2 6q0 105 -52 188l-2 8q2 26 2 38q0 78 -46 155z" />
<glyph unicode="W" horiz-adv-x="736" d="M-6 609l3 6l1 2t3.5 5.5t5.5 8t8.5 9.5t11.5 10t14.5 10t18.5 8.5t22.5 5.5t26.5 2q41 0 70 -23v-7q-1 -9 -1 -27q0 -85 41 -151l1 -7q0 -80 22 -135q13 42 13 85q0 34 -4 50l2 4q31 53 35 101v1l-3 6l2 5l1 2t3 5l5 7.5t7.5 9.5t10 9.5t13.5 9t16.5 8t19.5 5.5t23 2 q37 0 67 -24v-7q-1 -9 -1 -24q0 -35 8.5 -59.5t30.5 -62.5l2 -7q0 -59 9 -89q3 21 3 41q0 16 -4 48v5q44 66 44 151q0 23 -4 47l5 5q2 2 8 6t23 9.5t37 5.5q78 0 114 -61l-3 -6q-39 -72 -39 -144q0 -18 3 -36l-2 -6q-34 -74 -34 -146q0 -27 4 -50l-2 -8q-38 -70 -38 -144 q0 -29 6 -59l-2 -3q-2 -2 -3.5 -4t-4.5 -5.5t-6.5 -6t-8 -5.5t-10.5 -5.5t-13 -4.5t-16 -3t-19 -1q-27 0 -49 7t-33.5 17t-19.5 20.5t-10 17.5l-2 7l-1 4l3 5q-7 4 -12.5 8.5t-7.5 7.5t-2 4l-3 4v5q2 15 2 42q0 43 -20 92q-28 -59 -28 -127q0 -28 5 -53l-2 -3t-3.5 -5 t-5.5 -6t-7.5 -7t-9.5 -6t-12.5 -5.5t-15.5 -4t-19 -1.5q-37 -25 -82 -25q-48 0 -73 34q3 15 3 43q0 80 -41 156l-2 6q0 105 -52 188l-2 8q2 26 2 38q0 78 -46 155z" />
<glyph unicode="X" horiz-adv-x="484" d="M0 106v7l1 5l4 3q76 65 107 174l3 5q14 15 36 45q-11 16 -42 47l-1 5q-16 100 -92 176l-5 4l1 7q0 1 1 5t4.5 12.5t9 17.5t17 19.5t25.5 18.5q29 17 60 17q6 0 12 -0.5t10.5 -2t8 -2.5t5.5 -1.5l2 -0.5l6 -3l2 -6q18 -87 67 -145q56 62 73 143l2 6l6 3q13 6 33 6 q74 0 111 -74q4 -7 8 -20l1 -7l-5 -5q-74 -70 -97 -162l-3 -7q-20 -21 -40 -48q23 -29 42 -43q22 -112 103 -185l4 -3l1 -5q0 -57 -59 -91q-29 -17 -58 -17q-8 0 -16 1t-12.5 3t-9.5 4.5t-7 4t-5 4l-3 2.5q-19 93 -69 157q-54 -63 -73 -158q-23 -17 -53 -17q-28 0 -50 9.5 t-34 22.5t-19.5 28.5t-10 25.5t-2.5 15z" />
<glyph unicode="Y" horiz-adv-x="485" d="M-24 565v6l0.5 2.5t2.5 9t5 14t8 16.5t11 18t15.5 17.5t20.5 14.5t25.5 10t31.5 4q6 0 11.5 -1t8.5 -1.5l3 -0.5l6 -2q33 -100 108 -155q4 -6 10 -20.5t10 -21.5q0 1 0.5 3t0.5 4v4q73 73 84 178v7l6 3.5t9 4.5t12 2.5t21 1.5q86 0 125 -83l1 -6l-4 -5q-67 -76 -76 -167 v-3l-3 -3q-68 -87 -74 -184v-4l-3 -3q-71 -80 -77 -186v-5l-4 -3.5t-8 -6t-10.5 -6t-16 -5t-21.5 -1.5q-26 0 -54 12q-20 8 -35 19.5t-21.5 21.5t-10 21t-4 15t-0.5 7l4 9q68 70 86 178v1q-41 72 -87 103l-1 5q-30 98 -111 157z" />
<glyph unicode="Z" horiz-adv-x="458" d="M-9 120v5l1 5l3 3q77 63 105 168l3 6q73 74 91 172l4 7q22 19 36 35q-40 8 -58 8q-25 0 -78 -21l-4 2q-1 0 -5.5 2.5t-12.5 9.5t-15.5 17t-12.5 28t-5 39q0 66 48 87l1 1q35 -14 62 -14q58 0 71 13h8q45 -15 71 -15t80 18l5 -3q28 -28 35 -62q33 -29 40 -69l-5 -5 q-75 -69 -94 -157l-3 -6q-77 -79 -94 -175l-4 -7l-28 -27q45 -14 69 -14q25 0 79 18l5 -3q34 -27 37 -81v-7q0 -54 -38 -84l-6 1q-43 13 -69 13q-25 0 -67 -15h-7q-42 9 -63 9q-25 0 -73 -19h-9l-2 1q-2 1 -5 3t-6.5 4.5t-8 6.5t-8.5 9q-8 4 -12 7q-61 33 -61 86z" />
<glyph unicode="[" horiz-adv-x="421" d="M19 40q24 48 24 118q0 43 -10 84v6q13 52 13 94q0 37 -17 105q23 46 23 111q0 46 -15 91l4 5q0 1 5 6t17 12.5t27 11.5q11 26 26 34l8 2q2 0 8 -0.5t8 -0.5q48 0 106.5 14.5t97.5 38.5l6 -2q3 0 12 -5t22.5 -21.5t20.5 -39.5q4 -15 4 -29q0 -36 -23 -65h-7 q-87 0 -170 -36q-2 -14 -2 -40q0 -43 11 -79v-7q-15 -54 -15 -102q0 -64 18 -100q-20 -40 -20 -105q0 -24 2 -36q36 -7 84 -7q24 0 84 10q39 -23 39 -82q0 -12 -2 -23t-6 -19t-8 -14.5t-9 -11.5t-8.5 -8t-7.5 -6l-4 -3q-54 18 -126 18q-59 0 -98 -12h-9q-26 13 -38 39 q-25 4 -43.5 16.5t-24 21t-5.5 11.5z" />
<glyph unicode="\" horiz-adv-x="453" d="M15 594l2 6l1 4l6 12t10.5 16.5t16.5 17.5t22 16.5t30 12t38 4.5q28 0 48 -12l1 -7q9 -99 80 -175l4 -7q8 -98 71 -181l3 -6q16 -108 86 -178l3 -4v-5q0 -3 -0.5 -7t-4 -15t-10.5 -21t-21.5 -21.5t-34.5 -19.5q-28 -12 -54 -12q-16 0 -30 4.5t-19.5 8.5t-6.5 6l-3 3l-1 5 q-6 106 -77 186l-3 3v4q-6 97 -74 184l-3 6q-9 91 -76 167z" />
<glyph unicode="]" horiz-adv-x="421" d="M10 26q0 59 39 82q60 -10 84 -10q48 0 84 7q2 24 2 36q0 65 -20 105q18 36 18 100q0 48 -15 102v7q11 41 11 79q0 19 -3 40q-85 36 -169 36h-6l-3 3t-4.5 5.5t-4 6.5t-4.5 9t-4 11t-3 13.5t-1 16.5q0 12 2 23t5.5 19.5t8 15.5t9.5 12.5t10 9.5t9 7t7.5 4.5t5.5 2.5l2 1 l6 2q39 -24 97.5 -38.5t105.5 -14.5q3 0 9 0.5t8 0.5l8 -2l1 -0.5t2 -1.5l2.5 -2.5l3 -3t3 -3.5t3.5 -4.5t3.5 -5.5t3.5 -6t3 -7q7 -2 13.5 -4.5t10.5 -5t8.5 -5t7 -4.5t5.5 -5l4 -4t3 -4l2 -3q-15 -45 -15 -91q0 -65 23 -111l-1 -4q-16 -48 -16 -101q0 -48 13 -94v-6 q-10 -41 -10 -85q0 -69 24 -117l-2 -5q0 -1 -2 -5t-7.5 -10.5t-13 -13t-21 -12t-29.5 -8.5q-13 -27 -38 -39h-9q-41 12 -98 12q-63 0 -126 -18l-4 3t-7.5 6t-8.5 8t-9 11.5t-8 14.5t-6 19t-2 23z" />
<glyph unicode="^" horiz-adv-x="353" d="M23 483v4q62 62 100 157q28 7 32 7q14 0 28 -6q4 1 11 1q18 0 40 -11l1 -4q36 -95 93 -150l3 -4v-5q-3 -32 -26.5 -52t-50.5 -20q-15 0 -35 10l-1 4q-18 49 -43 91q-29 -40 -49 -90l-5 -5q-14 -7 -26 -7q-30 0 -51 24t-21 56z" />
<glyph unicode="_" horiz-adv-x="499" d="M42 -165q0 69 53 93q40 -16 81 -16q32 0 76 11l4 2l4 -2q47 -16 77 -16q29 0 77 16q41 -25 43 -88q0 -61 -42 -95l-7 1q-50 15 -73 15q-24 0 -66 -13l-6 -1q-29 12 -77 12q-34 0 -84 -18h-9q-51 26 -51 99z" />
<glyph unicode="`" horiz-adv-x="183" d="M0 904l2 6q9 27 37.5 44.5t61.5 17.5q16 0 28 -3l1 -8q6 -78 51 -151l2 -4q-7 -26 -27.5 -40t-46.5 -14q-6 0 -21 3q-33 82 -84 145z" />
<glyph unicode="a" horiz-adv-x="508" d="M-4 79q52 69 52 179v17l2 6q37 74 37 152q0 29 -3 44q50 67 50 159q0 10 -2 32v6q24 24 70 24q72 0 112 -60l3 -6l-3 -6q-2 -2 -2 -3h7q8 0 15.5 -0.5t13 -1.5t9.5 -2t6.5 -1.5l2.5 -0.5l6 -4q-2 -14 -2 -30q0 -86 41 -159l2 -6v-13q0 -58 10 -93q19 7 42 21l6 -2l1.5 -1 t4 -2.5t5.5 -4t6.5 -6t7 -7.5t7.5 -10t7.5 -12.5t6.5 -15t5 -17.5q3 -17 3 -30q0 -42 -24 -72q-14 2 -34 2q13 -47 45 -98l-6 -7q-29 -29 -77 -40q-20 -5 -36 -5q-10 0 -19 1.5t-15.5 3t-11.5 3.5t-8 3l-3 2l-7 4l1 8q0 4 0.5 12t0.5 12q0 34 -6 67q-2 -2 -3 -2l-7 -2 q-73 0 -127 -18v-15q0 -27 4 -47q-26 -35 -79 -35q-29 0 -51.5 7.5t-34.5 18t-19 21.5t-9 19l-2 7zM230 275q5 2 21.5 9t26.5 10q8 -2 13 -2q-10 38 -32 88l-7 23q-22 -57 -22 -115v-13z" />
<glyph unicode="b" horiz-adv-x="533" d="M28 54q24 48 24 118q0 43 -10 84v6q13 52 13 94q0 37 -17 105q23 46 23 111q0 46 -15 91l4 5q24 24 57 31q12 19 29.5 30t29.5 13l11 2h5l4 -3q53 -48 141 -64q3 -1 10 -1h4l4 -3q40 -34 75.5 -49t85.5 -18h6l4 -6l1 -2q1 -3 3 -7t3.5 -9.5t2.5 -13.5t1 -16 q0 -45 -25 -77q5 -20 5 -32q0 -4 -0.5 -7.5t-0.5 -6.5t-1 -5.5t-1.5 -4.5t-0.5 -3.5t-1 -2.5v-1l-2 -6l-6 -2q-64 -18 -111 -54q50 -44 115 -61l6 -2l3 -6l1 -3q0 -4 1 -10t1 -13q0 -16 -5 -33q15 -27 15 -59q0 -30 -12 -50q-110 -16 -175 -74l-6 -3q-54 -11 -88.5 -26 t-67.5 -47l-9 -4q-41 0 -72 43q-21 5 -36 16.5t-19.5 19.5t-4.5 11zM210 174q25 14 37 26l5 1q29 1 63 11q-35 19 -68 30l-6 3l-8 8q-1 0 -8 -5q-12 -38 -15 -74zM216 540q0 -35 11 -71v-7q-7 -27 -8 -34l14 14l3 4q65 16 107 46q-26 6 -55 9q-12 6 -36.5 20t-35.5 19z" />
<glyph unicode="c" horiz-adv-x="515" d="M8 111l2 4q36 65 36 120q0 19 -3 45l1 6q25 60 25 110q0 29 -8 69l2 3q24 46 30 77q-18 23 -18 66q0 24 5.5 43t13 29t16 17t13.5 9.5t6 2.5l5 2q52 -26 110 -26q42 0 56 5l4 1q56 -28 105 -28q9 0 69 10l3 -2l5 -5t5 -6.5t5.5 -8.5t5.5 -10.5t5 -14t3 -17t1 -20.5v-8 q-3 -56 -41 -87h-1l-6 -4l-6 2q-57 24 -97 24q-23 0 -57 -8q-12 2 -57 13q-1 -10 -1 -28t5 -46v-4l-1 -3q-27 -63 -27 -114q0 -32 9 -68q-31 -61 -33 -99q13 2 67 20q3 1 13 6q32 -8 64 -8q54 0 118 32l3 -1.5t4.5 -2.5t5 -3.5t6.5 -5t6.5 -7t6.5 -8.5t6.5 -10t6 -12.5 t5 -15t3.5 -17.5q1 -7 1 -20q0 -9 -1.5 -18.5t-3.5 -16.5t-5 -13l-5.5 -11t-5 -8.5t-3.5 -5.5l-2 -2l-5 -5q-21 7 -61 7q-53 0 -111 -29l-3 1q-8 0 -22 1t-21 1q-74 0 -139 -34l-5 -2l-4 1l-2.5 1l-5 2t-7 3.5t-8 5t-8.5 6.5t-9 8.5t-8 10.5t-7 12.5t-5.5 14.5t-3.5 17 q-16 8 -27 21t-14 20t-3 9z" />
<glyph unicode="d" horiz-adv-x="520" d="M28 52q24 60 24 118q0 42 -10 85v6q13 52 13 94q0 49 -16 100l-1 5q23 46 23 110q0 47 -15 92l1 2q29 38 92 38h10q29 23 62 23q6 0 12 -0.5t9.5 -1.5l3.5 -1l4 -2q8 -19 22 -39t32 -38t37.5 -33.5t39.5 -29.5l9 -4l4 -2q48 -96 137 -141l6 -2q2 -14 2 -16q0 -29 -20 -60 q21 -30 21 -64v-5l-1 -7q-90 -45 -135 -132l-1 -4l-3 -1q-41 -24 -80.5 -66t-58.5 -85l-2 -4l-5 -2q-5 -5 -26 -5q-29 0 -58 20q-20 -4 -33 -4q-22 0 -39.5 5t-28 12.5t-17.5 15.5t-9.5 13t-2.5 6zM212 359q0 -64 18 -100q-7 -14 -14 -46q5 7 20 25t19 26q66 33 109 88 q-40 51 -98 82q-9 9 -23.5 28t-20.5 26q1 -5 5 -20v-7q-15 -54 -15 -102z" />
<glyph unicode="e" horiz-adv-x="490" d="M28 52q24 60 24 118q0 42 -10 85v6q13 52 13 94q0 49 -16 100l-1 5q23 46 23 110q0 47 -15 92l1 2q29 38 92 38q44 0 75 -23q44 5 65 15l5 -1q47 -15 74 -15q25 0 85 20q41 -24 45 -86v-9q0 -56 -38 -86q-45 13 -78 13q-27 0 -72 -15l-7 -1q-43 8 -77 8q4 -32 11 -54v-7 q-4 -13 -8 -35q27 -7 53 -7q38 0 83 15l2 -1q38 -29 38 -88q0 -50 -39 -89l-5 -4q-70 20 -96 20q-15 0 -30 -3l5 -10q-12 -23 -18 -70q34 8 57 8l4 1q50 -25 91 -25q33 0 72 13l5 -4q32 -32 32 -86q0 -16 -4.5 -31t-10.5 -25t-11.5 -17t-10.5 -11l-4 -4l-6 -3q-66 22 -91 22 q-22 0 -58 -9h-7l-54 12q-29 -34 -89 -34q-22 0 -39.5 5t-28 12.5t-17.5 15.5t-9.5 13t-2.5 6z" />
<glyph unicode="f" horiz-adv-x="475" d="M28 52q24 60 24 118q0 42 -10 85v6q13 52 13 94q0 49 -16 100l-1 5q23 46 23 110q0 47 -15 92l1 2q29 38 92 38q44 0 75 -23q44 5 65 15l5 -1q47 -15 74 -15q25 0 85 20q41 -24 45 -86v-9q0 -56 -38 -86q-45 13 -78 13q-27 0 -72 -15l-7 -1q-43 8 -77 8q4 -31 11 -54v-7 q-4 -13 -8 -35q27 -7 53 -7q38 0 83 15l2.5 -2t4 -3t5 -4t5.5 -6t5.5 -7.5t5.5 -9t4.5 -11t4 -13t2.5 -15.5t1 -18q0 -50 -39 -89l-5 -4q-70 20 -96 20q-15 0 -30 -3l5 -10l-2 -4q-18 -51 -18 -102q0 -57 19 -104q-27 -53 -102 -53q-22 0 -39.5 5t-28 12.5t-17.5 15.5 t-9.5 13t-2.5 6z" />
<glyph unicode="g" horiz-adv-x="557" d="M8 111l2 4q36 65 36 120q0 19 -3 45l1 6q25 60 25 110q0 29 -8 69l2 3q24 46 30 77q-18 23 -18 66q0 24 5.5 43t13 29t16 17t13.5 9.5t6 2.5l5 2q52 -26 110 -26q42 0 56 5l4 1q56 -28 105 -28q9 0 69 10l3 -2l5 -5t5 -6.5t5.5 -8.5t5.5 -10.5t5 -14t3 -17t1 -20.5v-8 q-3 -56 -41 -87h-1l-6 -4l-6 2q-57 24 -97 24q-23 0 -57 -8q-12 2 -57 13q-1 -10 -1 -28t5 -46v-4l-1 -3q-27 -63 -27 -114q0 -32 9 -68q-31 -61 -33 -99q13 2 67 20q3 1 13 6q32 -8 62 -8h19q-1 4 -5 19v8q13 40 13 72q0 25 -21 88l3 5q0 2 9 11t32.5 19.5t53.5 10.5 q51 0 85 -34q-13 -39 -13 -76q0 -31 18 -76v-7q-7 -35 -7 -66q0 -48 23 -94q-1 -3 -3 -8.5t-10 -15t-19 -17t-31 -13.5t-45 -6q-48 0 -75 29q-29 -9 -56 -22l-3 1q-8 0 -22 1t-21 1q-74 0 -139 -34l-5 -2l-4 1l-2.5 1l-5 2t-7 3.5t-8 5t-8.5 6.5t-9 8.5t-8 10.5t-7 12.5 t-5.5 14.5t-3.5 17q-16 8 -27 21t-14 20t-3 9z" />
<glyph unicode="h" horiz-adv-x="612" d="M28 54q24 48 24 118q0 43 -10 84v6q13 52 13 94q0 37 -17 105q23 46 23 111q0 46 -15 91l1 2q29 38 92 38q28 0 51 -10t31.5 -18.5t10.5 -11.5l5 -5l-3 -6q-18 -54 -18 -104q0 -43 11 -79v-7q-13 -45 -13 -89q0 -42 10 -91l16 9l7 1q9 -2 25 -2q52 0 104 27q2 24 2 37 q0 49 -14 100v8q15 45 15 89q0 62 -22 106q31 51 97 51q60 0 104 -44l5 -6q-22 -66 -22 -120q0 -41 10 -77v-7q-15 -43 -16 -79q8 6 12 10l5 -2h1q46 -18 55 -72q2 -16 2 -23q0 -45 -22 -83q-20 2 -34 2q-10 0 -15 -1q-2 -13 -2 -40q0 -50 15 -110q-28 -56 -100 -56t-103 51 q20 51 24 116q-52 -11 -102 -39l-6 -2q-6 0 -24 -0.5t-28 -0.5q4 -45 16 -75q-26 -52 -102 -52q-22 0 -39.5 5t-28 12t-17.5 15t-9.5 13t-2.5 6z" />
<glyph unicode="i" horiz-adv-x="266" d="M28 54q24 48 24 118q0 43 -10 84v6q13 52 13 94q0 37 -17 105q23 46 23 111q0 46 -15 91q32 40 93 40q28 0 51 -10t31.5 -18.5t10.5 -11.5l5 -5l-3 -6q-18 -54 -18 -104q0 -43 11 -79v-7q-15 -54 -15 -102q0 -64 18 -100q-20 -40 -20 -105q0 -58 19 -105 q-26 -52 -102 -52q-22 0 -39.5 5t-28 12t-17.5 15t-9.5 13t-2.5 6z" />
<glyph unicode="j" horiz-adv-x="483" d="M-17 250q0 46 41 83q36 32 79 32h7t5 -0.5l2 -0.5l7 -2l2 -6q20 -46 41.5 -71t61.5 -50l4 -5q29 -50 39 -64v3q0 41 -9 86v6q13 52 13 94q0 49 -16 100l-1 5q23 46 23 110q0 47 -15 92l1 2q7 8 13.5 14.5t28.5 15t50 8.5t51 -10t31.5 -18.5t10.5 -11.5l5 -5l-3 -6 q-18 -54 -18 -104q0 -43 11 -79v-7q-15 -54 -15 -102q0 -64 18 -100l-2 -4q-18 -51 -18 -102q0 -52 17 -99l1 -5l-2 -4q0 -1 -2.5 -6t-10 -12.5t-18 -14t-28.5 -11.5t-40 -5q-15 0 -35 4q-36 -36 -77 -36q-24 0 -31 7l-4 2q-19 48 -39 77t-60 55l-4 2l-1 4q-19 49 -43 77 t-70 55z" />
<glyph unicode="k" horiz-adv-x="542" d="M28 52q24 60 24 118q0 42 -10 85v6q13 52 13 94q0 49 -16 100l-1 5q23 46 23 110q0 47 -15 92l1 2q29 38 92 38q28 0 51 -10t31.5 -18.5t10.5 -11.5l5 -5l-3 -6q-18 -54 -18 -104q0 -43 11 -79v-7q-2 -8 -5 -21.5t-4 -16.5q35 41 57 97l2 4l4 2q90 52 126 145l3 6l6 1 l2 0.5t5 1t7 0.5q40 0 77 -30q21 -17 33 -40.5t13.5 -33t1.5 -15.5v-7l-6 -4q-85 -54 -119 -138q-7 -7 -22.5 -19.5t-21.5 -17.5q16 -68 61 -120l2 -6q11 -57 25 -90t47 -66v-5v-3.5t-1.5 -8.5t-4 -12t-7.5 -14t-12 -15.5t-18 -15.5t-25 -14q-27 -12 -51 -12q-16 0 -30 5 t-19.5 9.5t-6.5 6.5l-3 3l-1 5q-1 40 -12 70t-37 71l-10 10v5q-2 30 -7 52q-39 -28 -66 -66v-11q0 -57 19 -104q-27 -53 -102 -53q-22 0 -39.5 5t-28 12.5t-17.5 15.5t-9.5 13t-2.5 6z" />
<glyph unicode="l" horiz-adv-x="468" d="M28 54q24 48 24 118q0 43 -10 84v6q13 52 13 94q0 37 -17 105q23 46 23 111q0 46 -15 91l1 2q29 38 92 38q28 0 51 -10t31.5 -18.5t10.5 -11.5l5 -5l-3 -6q-18 -54 -18 -104q0 -43 11 -79v-7q-15 -54 -15 -102q0 -64 18 -100q-13 -26 -19 -75q6 1 12.5 2.5t10 2t6.5 1 t5 1.5q44 -22 110 -22q40 0 93 15l5 -4q34 -34 35 -86q0 -9 -1 -17t-3 -15t-4.5 -13.5t-5 -11.5t-5.5 -9.5t-6 -8t-5.5 -6.5t-4.5 -4.5t-3.5 -3l-1.5 -1.5l-5 -4q-60 20 -108 20q-41 0 -81 -12h-7q-13 4 -45 10q-31 -21 -75 -21q-22 0 -39.5 5t-28 12t-17.5 15t-9.5 13 t-2.5 6z" />
<glyph unicode="m" horiz-adv-x="734" d="M-5 73l2 4q44 72 44 164q0 20 -1 30l1 6q32 73 32 144q0 33 -5 53l2 4q41 70 41 145q0 22 -4 50l3 3t5.5 4.5l7.5 4.5t10.5 5.5t12.5 4.5t16 3t20 1q16 0 30.5 -3t25 -7.5t19.5 -10.5t15 -11.5t10.5 -11t6 -8t2.5 -3.5l4 -6l-3 -6l-6 -10q6 -1 11.5 -3t8.5 -3l3 -1l6 -4 v-7q0 -98 50 -179l2 -6q0 -32 6 -62q15 48 15 98q0 21 -2 29q55 73 55 170v19l-1 6q28 22 66 22q14 0 26.5 -2t22.5 -6t18.5 -8.5t15.5 -10t12.5 -10.5t9 -10t6 -8.5t3.5 -5.5l2 -3l3 -6q-4 -5 -9 -13q6 -2 11 -4.5t7.5 -4l2.5 -1.5l6 -5q-5 -35 -5 -55q0 -69 31 -136l1 -7 q-2 -14 -2 -42q0 -77 31 -140l2 -2v-4q0 -3 -0.5 -8.5t-0.5 -8.5q0 -79 40 -153l4 -8l-6 -6q-26 -26 -74 -35q-16 -3 -32 -3q-10 0 -18.5 1t-15.5 2.5t-12 3.5t-10 4.5t-7.5 4t-6 4l-3.5 2.5q5 40 5 59q0 57 -21 118v5q1 9 1 28q0 51 -15 105q-4 -23 -4 -51q0 -10 2 -32 l-2 -8q-49 -74 -49 -162q1 -2 11 -14l-6 -8q-5 -6 -14 -14.5t-40 -22.5t-64 -14q-11 0 -19.5 1t-14.5 2.5t-9.5 3t-8.5 3.5t-6 3l1 8q0 87 -38 166l-1 5q-3 75 -42 155q-4 -24 -4 -53q0 -34 5 -54l-2 -4q-37 -67 -37 -142q0 -31 6 -61q-29 -39 -83 -39q-28 0 -50 7t-33.5 17 t-19 20.5t-9.5 17.5l-2 7z" />
<glyph unicode="n" horiz-adv-x="598" d="M28 52q24 48 24 118q0 43 -10 84v6q13 52 13 94q0 37 -17 105q23 46 23 111q0 46 -15 91l1 2q29 38 92 38q37 0 65 -17h8q12 0 23.5 -2.5t16.5 -4.5t6 -3l6 -3l1 -6q10 -100 70 -169l3 -3v-3q12 -78 50 -138v1q0 26 -3.5 51t-11.5 51v8q21 54 21 109q0 47 -14 89l1 2 l9.5 9.5t15 12t28 12t39.5 4.5q61 0 97 -45q-21 -63 -21 -111q0 -39 12 -78v-7q-15 -52 -15 -101q0 -52 16 -97v-8q-19 -50 -19 -103q0 -56 19 -103q-26 -52 -101 -52q-43 0 -68 17h-5q-11 0 -20.5 1.5t-16 5t-10.5 6t-8 6.5l-4 3v5q-4 97 -73 185l-2 5q-12 65 -42 119 q2 -59 18 -91q-20 -40 -20 -105q0 -58 19 -105q-26 -52 -102 -52q-22 0 -39.5 5t-28 12t-17.5 15t-9.5 13t-2.5 6z" />
<glyph unicode="o" d="M8 111l2 4q13 24 20.5 41.5t11.5 37t4 41.5q0 19 -3 45l1 6q25 60 25 110q0 29 -8 69l2 3q24 46 30 77q-18 23 -18 66q0 24 5.5 43t13 29t16 17t13.5 9.5t6 2.5l5 2q52 -26 110 -26q42 0 56 5l4 1q53 -27 98 -28q32 14 62 14q11 0 21 -1.5t18 -4.5t15 -6t12 -6.5t8.5 -6 t6 -4.5l2.5 -2l5 -5q-13 -39 -13 -84t20 -94l2 -3q-8 -32 -8 -73q0 -61 27 -119l2 -3q-13 -33 -13 -80q0 -52 28 -108l-2 -5q0 -4 -8 -16t-35.5 -27.5t-67.5 -15.5q-38 0 -63 18q-47 -6 -87 -25l-3 -2l-3 1q-8 0 -23 1t-23 1q-91 0 -156 -34l-5 -2l-4 1l-2.5 1l-5 2t-7 3.5 t-8 5t-8.5 6.5t-9 8.5t-8 10.5t-7 12.5t-5.5 14.5t-3.5 17q-16 8 -27 21t-14 20t-3 9zM198 162q74 9 96 24l4 2q32 -8 69 -8q22 0 43 3q-4 26 -15 62l-1 6q6 33 6 64q0 68 -28 124q1 7 5 24.5t6.5 29.5t2.5 24q-18 2 -26 2q-23 0 -57 -8q-12 2 -57 13q-1 -10 -1 -28t5 -46 v-4l-1 -3q-27 -63 -27 -114q0 -32 9 -68q-31 -61 -33 -99z" />
<glyph unicode="p" horiz-adv-x="513" d="M27 43q24 48 24 118q0 43 -10 84v6q13 52 13 94q0 37 -17 105q23 46 23 111q0 46 -15 91l4 5q25 25 57 32q6 9 13.5 16.5t15 12t15 8t12.5 4.5t9.5 2l4.5 1h5l4 -3q13 -11 25.5 -20t25 -15.5t27 -12t29.5 -9.5t34 -7q2 0 5 -0.5t5 -0.5h4l4 -3q40 -34 75.5 -49t85.5 -18 h6l4 -5l2.5 -6t5.5 -17.5t3 -24.5q0 -19 -7.5 -43t-17.5 -36q9 -22 9 -44q0 -4 -0.5 -8.5t-1.5 -6.5v-3l-1 -6l-6 -2q-93 -41 -143 -114l-5 -5q-36 -15 -76.5 -47t-67.5 -68q-1 0 -1 -7l1 -8q0 -58 19 -105q-26 -52 -102 -52q-22 0 -39.5 5t-28 12t-17.5 15t-9.5 13t-2.5 6z M211 370q23 23 25 31l3 4l4 1q64 24 111 71q-30 10 -67 13q-12 6 -36.5 20t-35.5 19q0 -33 11 -71v-7q-12 -42 -15 -81z" />
<glyph unicode="q" d="M8 111l2 4q13 24 20.5 41.5t11.5 37t4 41.5q0 19 -3 45l1 6q25 60 25 110q0 29 -8 69l2 3q24 46 30 77q-18 23 -18 66q0 24 5.5 43t13 29t16 17t13.5 9.5t6 2.5l5 2q52 -26 110 -26q42 0 56 5l4 1q53 -27 98 -28q32 14 62 14q11 0 21 -1.5t18 -4.5t15 -6t12 -6.5t8.5 -6 t5.5 -4.5l3 -2l5 -5q-13 -39 -13 -84t20 -94l2 -3q-8 -32 -8 -73q0 -60 27 -119l2 -3q-13 -33 -13 -80q0 -52 28 -108l-2 -5q0 -1 -2.5 -6.5t-10.5 -14.5t-19.5 -17.5t-32.5 -14.5t-46 -6q-38 0 -63 18q-30 -6 -32 -6v-6q0 -44 24 -104l-2 -4q0 -1 -2.5 -6t-10 -14 t-18.5 -16.5t-31 -13.5t-44 -6q-62 0 -85 45l1 5q11 33 11 69q0 11 -2 29q-64 -9 -104 -30l-5 -2l-4 1l-2.5 1l-5 2t-7 3.5t-8 5t-8.5 6.5t-9 8.5t-8 10.5t-7 12.5t-5.5 14.5t-3.5 17q-16 8 -27 21t-14 20t-3 9zM198 162q74 9 96 24l4 2q32 -8 69 -8q22 0 43 3q-4 26 -15 62 l-1 6q6 33 6 64q0 68 -28 124q1 7 5 24.5t6.5 29.5t2.5 24q-18 2 -26 2q-23 0 -57 -8q-12 2 -57 13q-1 -10 -1 -28t5 -46v-4l-1 -3q-27 -63 -27 -114q0 -32 9 -68q-31 -61 -33 -99z" />
<glyph unicode="r" horiz-adv-x="532" d="M27 36q24 48 24 118q0 43 -10 84v6q13 52 13 94q0 37 -17 105q23 46 23 111q0 47 -15 92l4 5q24 24 57 31q5 8 11.5 14.5t13 11t12.5 8t12 5.5t10 3t7.5 1.5l3.5 0.5h5l4 -3q72 -64 151 -64l8 -3q27 -23 50.5 -36.5t50 -21t60.5 -9.5l6 -1l4 -5l3 -6t5.5 -17.5t2.5 -24.5 t-3.5 -28t-9.5 -28.5t-12 -21.5q9 -22 9 -43q0 -5 -0.5 -9.5t-1 -7l-0.5 -2.5l-1 -6l-6 -3q-65 -28 -105 -69q14 -39 56 -78l3 -5q17 -84 80 -139l4 -2v-5q0 -50 -57 -83q-30 -17 -58 -17q-6 0 -12 0.5t-10 2t-7.5 2.5t-6.5 3l-4.5 3t-3 2.5t-2.5 1.5l-1 5q-7 62 -62 129 q-5 5 -7 6l-3 3v4q-8 48 -23 74q-41 -30 -73 -72q-1 0 0 -8v-7q0 -66 19 -104q-2 -6 -6 -12t-15 -17t-32 -17.5t-49 -6.5q-22 0 -39.5 5t-28 12t-17.5 15t-9.5 13t-2.5 6zM211 364q19 19 25 30l7 6q68 25 112 71q-30 10 -68 13l-6 2q-9 5 -22.5 13t-24 14t-19.5 10 q0 -34 11 -72v-7q-12 -42 -15 -80z" />
<glyph unicode="s" horiz-adv-x="443" d="M2 86q0 12 2 22.5t5.5 18t7.5 13.5t8.5 10t7.5 6.5t7 5l4 2.5q35 -7 52 -7q4 0 7.5 0.5t6.5 0.5t7 1t6.5 1.5t8 2t8 2t9 3t9.5 3.5t11.5 4t12.5 4l4 2q19 -5 45 -7q-8 12 -31 37l-3 5q-13 49 -34 83.5t-56 66.5l-4 3v4q-17 99 -89 166l-4 4v6v1.5t1 4t2 5.5t3 7.5t4 8.5 t6 9l8 10q-1 3 -1 9q0 56 42 77q35 -7 51 -7q41 0 91 25q32 -8 62 -8q40 0 98 29l6 -3l1.5 -1t4 -2.5t5.5 -4t6 -6t7 -8t7.5 -10t6.5 -12t5.5 -14.5t3.5 -17q2 -14 2 -21q0 -6 -0.5 -12.5t-2 -11.5l-3 -10t-3.5 -9l-4 -8l-3.5 -7t-3.5 -5.5t-3 -4t-2 -2.5l-1 -1l-5 -4 q-42 6 -60 6q-35 0 -87 -24l-3 -2l-4 1q-9 0 -22 0.5t-18 0.5q20 -34 49 -60l3 -5q14 -54 34.5 -89t56.5 -65l4 -7q10 -52 28.5 -84.5t57.5 -65.5l3 -3l1 -5q0 -51 -53 -86q-4 -9 -7.5 -14.5t-8 -9.5t-5.5 -6q-42 6 -61 6q-35 0 -86 -24l-7 -1q-9 0 -25 1t-21 1 q-47 0 -99 -31q-5 1 -9 2.5t-16.5 9t-21 18t-15.5 30.5t-7 46z" />
<glyph unicode="t" horiz-adv-x="453" d="M-8 617q0 11 1.5 20.5t3.5 17t5.5 14t6.5 11.5t7.5 9t7.5 7t7 5t6.5 3.5t5 2.5l2.5 1q40 -16 92 -16q67 0 93 13l4 -2q48 -16 91 -16q42 0 93 17l4 -3t7 -5.5t8 -7.5t8.5 -11.5t7 -15t5.5 -19.5t2 -24q0 -14 -2.5 -27t-6.5 -22t-8.5 -16.5t-8 -12t-6.5 -8.5l-4 -3l-5 -4 q-56 16 -94 16h-14v-8v-9v-8q0 -38 11 -79v-6q-15 -54 -15 -95q0 -57 18 -93l-2 -4q-18 -51 -18 -95q0 -48 19 -96q-26 -52 -102 -52q-77 0 -99 56q24 48 24 108q0 38 -10 79v6q13 48 13 90q0 44 -15 90l-2 4q21 42 23 110h-5q-49 0 -99 -18l-4 -1l-5 2q-1 0 -6 2.5t-13 9.5 t-15 17t-12 27.5t-5 38.5z" />
<glyph unicode="u" horiz-adv-x="583" d="M10 99q33 66 33 120q0 21 -5 56v6q21 58 21 108q0 32 -11 76q32 64 32 129q0 38 -10 73l5 5.5t10.5 9t15 8.5t23.5 7.5t31 2.5q64 0 101 -45v-1l4 -6q-29 -58 -29 -129q0 -29 6 -59v-7q-23 -66 -23 -113q0 -34 10 -70v-8q-26 -56 -26 -102q11 3 34.5 11.5t37.5 12.5 q32 -4 45 -4q33 0 63 9q-2 11 -7 32.5t-7 32.5q7 34 7 72q0 62 -23 122v8q14 42 14 89q0 65 -22 109l4 6q5 7 12.5 13.5t31.5 16.5t54 10q52 0 84 -32l5 -5q-14 -49 -14 -92q0 -50 18 -98v-7q-9 -42 -9 -79q0 -70 26 -122q-13 -52 -13 -87q0 -68 27 -122l-2 -5l-1 -2 q-1 -2 -3 -5l-5 -7.5t-7.5 -9t-10.5 -9t-14 -8.5t-17.5 -7t-22 -5t-26.5 -2q-59 0 -85 37q-30 -9 -59 -25l-6 -1q-41 0 -64 -1.5t-54 -9.5t-57 -24l-4 -3l-5 1q-1 0 -6 2t-9.5 4.5t-12 8t-13.5 13t-13 20t-12 28.5q-16 8 -27.5 19.5t-15 19t-3.5 9.5z" />
<glyph unicode="v" horiz-adv-x="507" d="M-3 609l3 6l1 2t3.5 5.5t5.5 8t8.5 9.5t11.5 10t14.5 10t18.5 8.5t22.5 5.5t26.5 2q41 0 70 -23v-7q-1 -9 -1 -27q0 -85 41 -151l1 -7q0 -95 36 -164q32 67 32 132q0 20 -1 31l2 8q24 36 33.5 68t9.5 72q0 4 -0.5 13.5t-0.5 14.5v6q23 23 66 23q24 0 44.5 -7.5t33 -20 t18 -19t8.5 -13.5l1 -1l2 -6l-3 -6q-22 -38 -31 -68.5t-9 -67.5q0 -14 1 -22l-2 -7q-39 -75 -39 -142q0 -10 2 -34l-2 -8q-46 -77 -46 -163q0 -11 2 -33v-4l-1.5 -2t-2.5 -3.5t-3.5 -4.5t-5 -5t-6 -4.5t-7.5 -4.5l-9 -4.5t-10.5 -3.5t-12.5 -2t-15 -1h-14q-42 -27 -85 -27 q-48 0 -73 34q3 15 3 43q0 80 -41 156l-2 6q0 105 -52 188l-2 8q2 26 2 38q0 78 -46 155z" />
<glyph unicode="w" horiz-adv-x="736" d="M-6 609l3 6l1 2t3.5 5.5t5.5 8t8.5 9.5t11.5 10t14.5 10t18.5 8.5t22.5 5.5t26.5 2q41 0 70 -23v-7q-1 -9 -1 -27q0 -85 41 -151l1 -7q0 -80 22 -135q13 42 13 85q0 34 -4 50l2 4q31 53 35 101v1l-3 6l2 5l1 2t3 5l5 7.5t7.5 9.5t10 9.5t13.5 9t16.5 8t19.5 5.5t23 2 q37 0 67 -24v-7q-1 -9 -1 -24q0 -35 8.5 -59.5t30.5 -62.5l2 -7q0 -59 9 -89q3 21 3 41q0 16 -4 48v5q44 66 44 151q0 23 -4 47l5 5q2 2 8 6t23 9.5t37 5.5q78 0 114 -61l-3 -6q-39 -72 -39 -144q0 -18 3 -36l-2 -6q-34 -74 -34 -146q0 -27 4 -50l-2 -8q-38 -70 -38 -144 q0 -29 6 -59l-2 -3q-2 -2 -3.5 -4t-4.5 -5.5t-6.5 -6t-8 -5.5t-10.5 -5.5t-13 -4.5t-16 -3t-19 -1q-27 0 -49 7t-33.5 17t-19.5 20.5t-10 17.5l-2 7l-1 4l3 5q-7 4 -12.5 8.5t-7.5 7.5t-2 4l-3 4v5q2 15 2 42q0 43 -20 92q-28 -59 -28 -127q0 -28 5 -53l-2 -3t-3.5 -5 t-5.5 -6t-7.5 -7t-9.5 -6t-12.5 -5.5t-15.5 -4t-19 -1.5q-37 -25 -82 -25q-48 0 -73 34q3 15 3 43q0 80 -41 156l-2 6q0 105 -52 188l-2 8q2 26 2 38q0 78 -46 155z" />
<glyph unicode="x" horiz-adv-x="484" d="M0 106v7l1 5l4 3q76 65 107 174l3 5q14 15 36 45q-11 16 -42 47l-1 5q-16 100 -92 176l-5 4l1 7q0 1 1 5t4.5 12.5t9 17.5t17 19.5t25.5 18.5q29 17 60 17q6 0 12 -0.5t10.5 -2t8 -2.5t5.5 -1.5l2 -0.5l6 -3l2 -6q18 -87 67 -145q56 62 73 143l2 6l6 3q13 6 33 6 q74 0 111 -74q4 -7 8 -20l1 -7l-5 -5q-74 -70 -97 -162l-3 -7q-20 -21 -40 -48q23 -29 42 -43q22 -112 103 -185l4 -3l1 -5q0 -57 -59 -91q-29 -17 -58 -17q-8 0 -16 1t-12.5 3t-9.5 4.5t-7 4t-5 4l-3 2.5q-19 93 -69 157q-54 -63 -73 -158q-23 -17 -53 -17q-28 0 -50 9.5 t-34 22.5t-19.5 28.5t-10 25.5t-2.5 15z" />
<glyph unicode="y" horiz-adv-x="485" d="M-24 565v6l0.5 2.5t2.5 9t5 14t8 16.5t11 18t15.5 17.5t20.5 14.5t25.5 10t31.5 4q6 0 11.5 -1t8.5 -1.5l3 -0.5l6 -2q33 -100 108 -155q4 -6 10 -20.5t10 -21.5q0 1 0.5 3t0.5 4v4q73 73 84 178v7l6 3.5t9 4.5t12 2.5t21 1.5q86 0 125 -83l1 -6l-4 -5q-67 -76 -76 -167 v-3l-3 -3q-68 -87 -74 -184v-4l-3 -3q-71 -80 -77 -186v-5l-4 -3.5t-8 -6t-10.5 -6t-16 -5t-21.5 -1.5q-26 0 -54 12q-20 8 -35 19.5t-21.5 21.5t-10 21t-4 15t-0.5 7l4 9q68 70 86 178v1q-41 72 -87 103l-1 5q-30 98 -111 157z" />
<glyph unicode="z" horiz-adv-x="458" d="M-9 120v5l1 5l3 3q77 63 105 168l3 6q73 74 91 172l4 7q22 19 36 35q-40 8 -58 8q-25 0 -78 -21l-4 2q-1 0 -5.5 2.5t-12.5 9.5t-15.5 17t-12.5 28t-5 39q0 66 48 87l1 1q35 -14 62 -14q58 0 71 13h8q45 -15 71 -15t80 18l5 -3q28 -28 35 -62q33 -29 40 -69l-5 -5 q-75 -69 -94 -157l-3 -6q-77 -79 -94 -175l-4 -7l-28 -27q45 -14 69 -14q25 0 79 18l5 -3q34 -27 37 -81v-7q0 -54 -38 -84l-6 1q-43 13 -69 13q-25 0 -67 -15h-7q-42 9 -63 9q-25 0 -73 -19h-9l-2 1q-2 1 -5 3t-6.5 4.5t-8 6.5t-8.5 9q-8 4 -12 7q-61 33 -61 86z" />
<glyph unicode="{" horiz-adv-x="473" d="M-3 368q0 19 5.5 35t12.5 24.5t15 15t13 8.5t6 2l5 2q40 -20 122 -20h13q-17 45 -35 64l-3 4v4q-1 51 -11.5 79.5t-40.5 65.5l1 6q2 4 4 9t11.5 17.5t21.5 22t32.5 17t44.5 7.5q23 0 43 -9q82 11 141 46l6 -2l2.5 -1t6 -3.5t8.5 -6t10 -9t9.5 -12t9 -15.5t7.5 -20 q4 -13 4 -28q0 -40 -26 -66h-18q-51 0 -107 -18q2 -4 8 -10l2 -6l3 -15q10 -51 19.5 -75t37.5 -59l3 -3v-5q0 -4 -1.5 -12t-12.5 -25t-30 -29q23 -21 33 -50l-4 -6q-32 -40 -40.5 -61t-11.5 -67l-2 -7q-21 -29 -31 -49q62 -16 111 -16q18 0 36 3q28 -28 28 -69q0 -12 -1 -18 q-4 -24 -17.5 -43t-21.5 -24t-13 -8l-6 -2l-6 2q-67 32 -154 32q-31 0 -51 -4l-4 3q-4 0 -16 14q-23 4 -40 14t-26 21t-14.5 23.5t-6.5 18.5t-1 9v4l3 4q58 66 58 140l3 8q37 43 47 73q-11 1 -31 1q-59 0 -106 -14l-5 -1l-4 2q-3 0 -13.5 7t-22.5 28.5t-12 51.5zM100 658z " />
<glyph unicode="|" horiz-adv-x="263" d="M27 16q24 60 24 136q0 48 -10 97v7q13 58 13 108q0 52 -17 120q23 58 23 128q0 52 -15 105l4 6q2 4 9.5 11.5t30 18t49.5 10.5q28 0 51 -12t31.5 -21t10.5 -13l5 -6l-3 -7q-18 -62 -18 -119q0 -50 11 -91v-8q-15 -62 -15 -117q0 -71 18 -116l-2 -4q-18 -59 -18 -116 q0 -64 19 -121q-24 -60 -102 -60q-22 0 -39.5 6t-28 14t-17.5 17t-9.5 14.5t-2.5 7.5z" />
<glyph unicode="}" horiz-adv-x="473" d="M13 671q0 20 6 37.5t14 27.5t16.5 17.5t14.5 9.5l6 3l6 2q59 -35 140 -46q18 9 43 9q19 0 35.5 -4t28 -11t20.5 -15t14.5 -15.5t9 -14.5l5 -10l1.5 -3l2 -6q-30 -37 -41 -66t-11 -79v-4l-3 -4q-17 -17 -35 -64h12q67 0 119 18l4 2l5 -2q1 0 6 -2t13 -8.5t15 -15 t12.5 -24.5t5.5 -35q0 -14 -2.5 -26t-6.5 -20.5t-9 -15.5t-10 -11.5t-9.5 -7.5t-7 -4.5t-3.5 -1.5l-5 -2q-60 15 -110 15q-21 0 -31 -1q13 -40 49 -76v-5q0 -75 58 -140l3 -4v-4v-1.5t-1 -6t-2.5 -10t-5 -12t-8 -13.5t-11 -13.5t-15 -12.5t-20 -10.5t-25.5 -6.5 q-5 -7 -19 -17q-20 4 -51 4q-88 0 -155 -32l-6 -2l-6 2l-2 1q-2 1 -5 3.5t-7 5.5t-8.5 7.5t-9 10t-8 12.5t-6.5 15t-5 17.5t-2 20.5t2.5 22t6 18.5t6.5 12.5t6 9l3 3l5 4q18 -3 36 -3q47 0 109 16q-29 50 -32 56q-3 45 -11.5 66.5t-39.5 61.5l-4 6l2 6q0 1 2.5 7t10 17 t17.5 20q-18 12 -29 29t-13 25t-2 12v5l3 3q31 37 45.5 70.5t14.5 78.5l3 6l7 10q-56 18 -106 18h-19q-25 31 -25 66z" />
<glyph unicode="~" horiz-adv-x="456" d="M23 335v4q66 66 102 156q12 6 32 6q15 0 29 -6q3 1 10 1q18 0 36 -9l5 -6q18 -50 40 -86q33 58 41 99q25 10 38 10q30 0 52.5 -20.5t24.5 -47.5v-5l-3 -3q-62 -71 -91 -161l-5 -6q-12 -8 -31 -8q-12 0 -21 3q-15 -6 -30 -6q-14 0 -34 10l-1 4q-17 49 -42 92 q-27 -37 -50 -89l-5 -6q-12 -6 -25 -6q-32 0 -52 24t-20 56z" />
<glyph unicode="&#xa1;" horiz-adv-x="260" d="M28 29q22 66 22 131q0 45 -10 78v7q2 8 5 23.5t5 25.5t4.5 23t3.5 26t1 25q0 41 -11 71l-1 5q2 4 6.5 10t15 15.5t28 16t38.5 6.5t38.5 -6.5t27 -16.5t14 -16t6.5 -11q-13 -26 -13 -77q0 -62 13 -114v-8q-15 -42 -15 -91q0 -67 20 -127q-32 -40 -101 -40q-62 0 -97 44z M59 560q12 42 12 60q0 17 -7 38q26 33 76 33q45 0 70 -28l5 -5q-7 -21 -7 -39q0 -16 12 -58q-32 -32 -80 -32q-50 0 -81 31z" />
<glyph unicode="&#xa2;" horiz-adv-x="481" d="M21 169q16 32 16 80q0 57 -12 76v8q16 47 16 77t-16 78l4 5q24 24 48 31q8 23 20 32h4q44 0 79 13q4 27 4 61q0 60 -12 99l-1 5l2 5q0 4 7 14t28.5 21.5t51.5 11.5q19 0 35 -5.5t24.5 -12.5t15 -15t8.5 -13t2 -6l2 -4q-16 -40 -23 -109q14 7 51 36l6 -2q3 0 12 -4.5 t25 -21.5t26 -41t10 -50q0 -30 -13 -52l-6 -1q-47 -2 -67 -9.5t-54 -34.5l-5 -3q-65 0 -117 -41q3 -22 14 -54v-6q-11 -57 -11 -77v-15q46 -26 101 -26h4l3 -3q36 -30 62 -39.5t70 -10.5h6q16 -20 16 -53q0 -21 -8 -44q-16 -51 -63 -74l-6 -2q-36 29 -56 37v-35q0 -30 9 -84 q-23 -39 -82 -39q-11 0 -20.5 1.5t-16.5 4.5t-14 7t-11.5 7.5t-9 8t-6.5 7t-5 6.5l-2 3q18 63 18 125q0 23 -1 35q-33 13 -71 13h-17q-13 10 -20 31q-40 12 -54 48z" />
<glyph unicode="&#xa3;" horiz-adv-x="594" d="M19 332q0 65 51 90h9q28 -11 58 -14v2q23 58 23 100q0 35 -13 77l-1 6l4 5q0 1 4.5 5.5t15.5 11.5t25 11q9 24 26.5 39.5t30.5 18.5l13 3l4 1q37 -28 99.5 -49t114.5 -21h6q0 -1 2 -2.5t3 -3t3 -4t3 -5.5t3 -6.5t3 -8t2 -9.5t1.5 -11t0.5 -13q0 -17 -4 -33 q-7 -25 -22 -43.5t-25.5 -25t-13.5 -6.5l-6 -3l-5 4q-52 32 -119 46v-3q0 -36 11 -72v-7l-3 -10h1q32 0 80 16l6 -4h1q5 -5 11 -11.5t15.5 -27t10.5 -44.5q0 -16 -4 -31t-9 -25t-11 -18t-10 -11.5t-5 -3.5l-5 -4q-56 16 -82 16l6 -16l1 -4q-9 -19 -16 -52q25 3 32 8h8 q46 -15 82 -15q32 0 92 20q42 -25 45 -86v-9q0 -9 -1.5 -18t-3.5 -16.5t-5 -14t-6 -11.5t-6 -9t-5.5 -6.5t-4 -4.5l-1.5 -2l-5 -4q-49 14 -84 14q-36 0 -81 -16h-7q-37 6 -58 7q-31 -23 -78 -23q-12 0 -22.5 1.5t-18.5 4t-15.5 6t-12.5 7t-9.5 7.5t-7.5 7.5t-5.5 8t-4 6.5 t-2.5 5l-1 3q24 60 24 103q0 34 -10 75v6l4 15q-23 -2 -64 -16l-5 -1l-5 2q-1 0 -6 2.5t-13 9.5t-15.5 17.5t-12.5 28t-5 38.5z" />
<glyph unicode="&#xa4;" horiz-adv-x="640" d="M33 220q40 20 81 58q-6 3 -12 9q-9 7 -15.5 14.5t-11 14t-8 14t-5 13t-2 12t-0.5 11t0.5 9.5t1 7t1.5 5.5l1 3.5l5 2q36 20 64 52q-53 54 -100 78q-25 50 24 101q14 15 29 22.5t26 9t21.5 0t15.5 -4t8 -4.5q26 -51 72 -99q26 25 47 74l3 5l6 2h1q5 0 15 1t31.5 -6 t40.5 -23l10 -10q4 0 9 -0.5t8 -1l6 -1t4.5 -1l1.5 -0.5l5 -2q2 -4 6.5 -11.5t4.5 -8.5q49 49 68 87l6 1h2t4.5 0.5t6.5 0.5t8.5 -1t10 -2t11.5 -3.5t12 -5.5t13 -8t13 -11q6 -5 10.5 -11t7.5 -11.5t5.5 -11.5t4 -11t2.5 -10.5t1 -9.5t0.5 -8t0 -6t-0.5 -4v-2l-1 -6 q-37 -18 -83 -61q1 0 3 -7l1 -3v-6q15 -6 31 -19q44 -35 44 -88v-6l-6 -4q-54 -33 -74 -65q43 -42 84 -62l1 -7v-2t0.5 -4t0 -6t-0.5 -8t-1 -9.5t-2.5 -10.5t-4 -11t-5.5 -11.5t-7.5 -11.5t-10.5 -11q-6 -6 -13 -11t-13 -8t-12 -5t-11.5 -3t-10 -2t-8.5 -1t-6.5 0.5 t-4.5 0.5h-2l-6 1q-17 34 -59 76q-18 -25 -32 -62l-1 -4q-48 -29 -110 21q-12 10 -19 19q-2 0 -14 2q-6 8 -17.5 25t-17.5 23q-45 -48 -69 -96q-52 -26 -100 24q-45 47 -24 101zM271 360q26 -42 64 -67q22 30 28 48l2 4q17 8 39 24q-29 44 -68 67q-3 -5 -6 -11.5t-6.5 -15 t-6.5 -13.5q-21 -14 -46 -36z" />
<glyph unicode="&#xa5;" horiz-adv-x="575" d="M20 555v6l0.5 2.5t2.5 9t5 14t8 16.5t11 18t15.5 17.5t20.5 14.5t25.5 10t31.5 4q6 0 11.5 -0.5t8.5 -1.5l3 -1l6 -2q33 -100 108 -155q4 -6 10 -20.5t10 -21.5q0 1 0.5 3t0.5 4v4q73 73 84 178v7l6 3.5t9 4.5t12 2.5t21 1.5q86 0 125 -83l1 -6l-4 -5q-67 -76 -76 -167 v-3l-3 -3q-28 -39 -42 -65q21 6 27 8l3.5 -2.5t6 -4.5t6.5 -6.5t7.5 -9t7 -11.5t6 -14.5t4.5 -18t2 -22.5q0 -61 -42 -95q-60 17 -82 17h-6q-46 -67 -52 -153v-5l-4 -3.5t-8 -6t-10.5 -6t-16 -5t-21.5 -1.5q-26 0 -54 12q-20 8 -35 19.5t-21.5 21.5t-10 21t-4 15t-0.5 7l4 9 q30 31 50 68q-17 -3 -49 -14h-9q-52 26 -52 99q0 20 5 36.5t12 26.5t14.5 16.5t12.5 9t6 2.5l4 2l5 -1q26 -10 50 -13q-28 35 -50 50l-1 5q-30 98 -111 157z" />
<glyph unicode="&#xa6;" horiz-adv-x="259" d="M33 -52q16 32 16 80q0 54 -13 80l2 4q16 47 16 78q0 29 -16 77q25 42 92 42q25 0 46.5 -9.5t30 -17t10.5 -10.5l5 -5q-17 -51 -17 -80q0 -25 13 -65l1 -7q-12 -30 -12 -77q0 -38 20 -88q-27 -55 -104 -55q-69 0 -90 53zM33 424q16 32 16 80q0 49 -13 81l2 4q16 47 16 77 q0 29 -16 77q25 42 92 42q51 0 87 -36l5 -5q-17 -59 -17 -80q0 -24 13 -66l1 -6q-12 -29 -12 -77t20 -88q-22 -56 -102 -56q-11 0 -20.5 1.5t-17 3.5t-14.5 5.5t-11.5 6.5t-9 7t-7 7.5t-5 7.5t-3.5 6l-2.5 5z" />
<glyph unicode="&#xa7;" horiz-adv-x="474" d="M32 85q0 56 42 77q32 -8 56 -8q29 0 54 7q-33 24 -54 31t-68 11l-6 1q-17 21 -17 54q0 17 7 35q-6 16 -6 24v2l4 7q41 42 70 112q-7 2 -27.5 3.5t-30.5 3.5q-17 21 -17 54q0 28 8 45q-15 28 -15 65q0 56 42 77q28 -7 56 -7q35 0 95 20l4 2q36 -9 62 -9q34 0 85 23l6 2 q7 -3 14.5 -8t19.5 -24.5t16 -46.5q1 -7 1 -19q0 -45 -30 -75q-56 8 -65 8q-25 0 -63 -16q62 -36 125 -38h5l3.5 -3t5.5 -5.5l6 -7.5t6 -10.5t4 -14t2 -18.5q0 -7 -1 -11q15 -22 18 -38q-45 -46 -74 -131q16 -2 25 -2h5l2.5 -2t4.5 -4.5t5 -6t5 -8t4.5 -10t3.5 -13t1 -15.5 q0 -28 -11 -46q13 -29 13 -57q0 -45 -30 -75q-49 7 -63 7q-30 0 -78 -21l-6 -1q-21 4 -49 4q-49 0 -109 -30l-5 1q-1 0 -6.5 2.5t-15 9.5t-18 18t-15 30.5t-6.5 44.5zM201 313q14 -3 44 -5q19 25 39 66q-20 9 -48 14q-23 -38 -35 -75z" />
<glyph unicode="&#xa8;" horiz-adv-x="351" d="M0 870q35 35 94 35q47 0 67 -20l6 -5q-16 -37 -16 -73q0 -15 3 -30q-28 -28 -72 -28q-26 0 -60 17q2 16 2 25q0 37 -24 79zM192 877l6 4q29 23 70 23q50 0 83 -33l-3 -8q-21 -42 -21 -79v-15q-22 -18 -57 -18q-40 0 -72 26q2 12 2 32q0 12 -8 68z" />
<glyph unicode="&#xa9;" horiz-adv-x="719" d="M25 93q22 44 22 103q0 29 -10 76l1 6q12 46 12 85q0 27 -16 91q21 42 21 99q0 37 -12 79l-1 6l3 5l1 1q1 2 2.5 4.5t4.5 5.5t6.5 5.5t9 5.5t11.5 5q7 42 44 60h8q44 -20 89 -20q30 0 69 9h5q42 -12 77 -12q40 0 79 14h7q49 -20 89 -20t75 14l4 -4q20 -10 27 -43 q11 -5 19.5 -12.5t11.5 -12.5l4 -5l4 -5q-19 -57 -19 -100q0 -33 11 -72v-6q-14 -48 -14 -91q0 -40 15 -84v-8q-17 -47 -17 -92q0 -40 15 -86l2 -4l-2 -5l-1 -2l-2.5 -5l-3.5 -7t-6.5 -8t-9.5 -8t-13 -7.5t-17 -5.5q-1 -8 -3.5 -15t-5.5 -12.5t-6 -9.5t-6 -7t-5.5 -5 t-3.5 -3l-2 -1l-5 -4q-47 19 -91 19q-32 0 -63 -10h-6q-48 14 -81 14q-36 0 -77 -15h-7q-45 17 -81 17q-34 0 -79 -16l-4 -1l-4 2q-3 0 -10 3.5t-17 17t-14 34.5q-11 7 -19 16.5t-10.5 15t-2.5 7.5zM171 182q0 -26 4 -47q16 -2 24 -2q26 0 69 10h5q42 -12 77 -12q50 0 82 16 l3 -2q44 -19 86 -19h13q10 38 10 69q0 29 -10 77v6q12 47 12 85q0 39 -14 87v8q20 52 20 96q0 16 -1 25q-9 1 -25 1q-33 0 -64 -10h-6q-45 13 -82 13q-39 0 -77 -14l-3 -2q-38 19 -85 19q-10 0 -28 -2q-5 -30 -5 -52q0 -32 11 -71v-6q-14 -53 -14 -90q0 -40 15 -85l1 -4 l-1 -4q-17 -49 -17 -90zM234 235q12 96 12 120q0 18 -1.5 35.5t-5.5 44t-5 34.5l7 4l17 7q2 24 15 44q49 -7 95 -7q38 0 94 7q14 -33 14 -55q0 -32 -14 -56q-64 8 -94 8h-22q-2 -23 -2 -69q0 -41 1 -61q9 -1 28 -1q23 0 87 8q14 -25 14 -54q0 -23 -13 -58q-40 9 -89 9 t-89 -9q-7 21 -10 33q-16 3 -39 16z" />
<glyph unicode="&#xaa;" horiz-adv-x="455" d="M-10 271v5l3 3q26 34 43.5 85t17.5 90v4q30 40 48 98.5t19 106.5v7l2.5 2t3.5 3t4.5 3t6 3t7 2.5t9 2.5t11 1.5t13.5 0.5q24 0 50 -10q24 11 58 11q12 0 23 -3t18.5 -7t13 -8t8.5 -7l3 -3l2 -9q-1 -6 -1 -17q0 -66 40 -144q1 -2 8 -12l-1 -4q0 -2 -0.5 -6.5t-0.5 -6.5 q0 -48 19.5 -104.5t44.5 -94.5l3 -6l-2 -6q-1 -3 -3.5 -7t-11.5 -15t-20 -19t-31 -15t-43 -7q-34 0 -67 22l1 6q0 11 -2 35q-13 1 -38 1q-35 0 -75 -5v-25l1 -4l-3 -4l-6.5 -6.5t-8.5 -6t-12 -6t-16 -4.5t-22 -2q-18 0 -33.5 3t-26.5 8t-20 11.5t-14.5 13t-10 14t-7 13 t-3.5 10.5t-2 7v2zM63 89q0 58 48 82h9q48 -16 120 -16q61 0 106 15l5 -4h1q34 -26 37 -77q0 -9 -1 -17t-2.5 -14.5t-4 -12.5t-5 -10.5t-6 -9t-5.5 -7.5t-5.5 -6t-5 -4.5t-4.5 -3.5l-3 -2q-39 13 -102 13q-79 0 -126 -19q-56 22 -56 93zM208 369h46q-9 20 -23 45 q-2 -6 -23 -45z" />
<glyph unicode="&#xab;" horiz-adv-x="690" d="M23 402q0 6 1 12.5t2.5 10.5l3 8t3 6l1.5 2l2 4l5 1q42 14 97 50.5t84 75.5l4 5h6q16 0 43 -15q54 -29 54 -90q0 -6 -1 -12l-1.5 -9l-0.5 -3l-2 -6l-6 -3q-62 -23 -129 -83q65 -65 126 -91l6 -2l2 -6l0.5 -2.5t1 -7.5t0.5 -10q0 -15 -3.5 -28.5t-9.5 -23t-14 -17.5 t-16.5 -13.5t-17.5 -9.5t-16.5 -6t-13.5 -3.5t-9 -2l-3 -0.5h-6q-28 42 -79.5 82t-96.5 57q-16 14 -16 42q0 20 11 42q-12 20 -12 46zM353 402q0 10 2.5 19.5t5 14t3.5 5.5l2 4l5 1q42 14 97 50.5t84 75.5l4 5h6l2.5 -0.5t8 -2t12.5 -3.5t15.5 -6.5t16.5 -9.5t16 -13.5 t13.5 -18t9 -23t3.5 -28.5q0 -6 -1 -12l-1.5 -9l-0.5 -3l-2 -6l-6 -3q-62 -23 -129 -83q65 -65 126 -91l6 -2l2 -6l0.5 -2.5t1 -7.5t0.5 -10q0 -15 -3.5 -28.5t-9.5 -23t-14 -17.5t-16.5 -13.5t-17.5 -9.5t-16.5 -6t-13.5 -3.5t-9 -2l-3 -0.5h-6q-28 42 -79.5 82t-96.5 57 q-6 5 -8 7.5t-5 11.5t-3 23q0 20 11 42q-12 20 -12 46z" />
<glyph unicode="&#xac;" horiz-adv-x="592" d="M23 324q0 67 49 92h9q43 -15 98 -15q61 0 98 12h8q49 -18 98 -18q38 0 101 18l5 -4q26 -26 33 -60q8 -4 15 -9.5t11.5 -10.5t7.5 -9.5t4.5 -7.5l1.5 -3l1 -5l-1 -4q-20 -55 -20 -135q0 -55 12 -91l-4 -5v-1q-27 -35 -78 -35q-59 0 -85 44l1 7q14 50 14 111q0 26 -3 50 h-19q-45 0 -85 -13h-7q-53 11 -93 11q-63 0 -112 -18l-4 -1l-5 2q-4 0 -14.5 7.5t-23.5 32t-13 58.5z" />
<glyph unicode="&#xad;" horiz-adv-x="466" d="M25 335q0 70 51 92l2 1q40 -16 81 -16q32 0 76 11l4 2l4 -2q47 -16 77 -16q29 0 77 16q41 -25 43 -88q0 -61 -42 -95l-7 1q-49 15 -73 15t-66 -13l-6 -1q-29 12 -77 12q-35 0 -84 -18h-9q-51 26 -51 99z" />
<glyph unicode="&#xae;" horiz-adv-x="719" d="M25 93q22 44 22 103q0 29 -10 76l1 6q12 46 12 85q0 27 -16 91q21 42 21 99q0 37 -12 79l-1 6l3 5l1 1q1 2 2.5 4.5t4.5 5.5t6.5 5.5t9 5.5t11.5 5q7 42 44 60h8q44 -20 89 -20q30 0 69 9h5q42 -12 77 -12q40 0 79 14h7q49 -20 89 -20t75 14l4 -4q20 -10 27 -43 q11 -5 19.5 -12.5t11.5 -12.5l4 -5l4 -5q-19 -57 -19 -100q0 -33 11 -72v-6q-14 -48 -14 -91q0 -40 15 -84v-8q-17 -47 -17 -92q0 -40 15 -86l2 -4l-2 -5l-1 -2l-2.5 -5l-3.5 -7t-6.5 -8t-9.5 -8t-13 -7.5t-17 -5.5q-1 -8 -3.5 -15t-5.5 -12.5t-6 -9.5t-6 -7t-5.5 -5 t-3.5 -3l-2 -1l-5 -4q-47 19 -91 19q-32 0 -63 -10h-6q-48 14 -81 14q-36 0 -77 -15h-7q-45 17 -81 17q-34 0 -79 -16l-4 -1l-4 2q-3 0 -10 3.5t-17 17t-14 34.5q-11 7 -19 16.5t-10.5 15t-2.5 7.5zM171 182q0 -26 4 -47q16 -2 24 -2q26 0 69 10h5q42 -12 77 -12q50 0 82 16 l3 -2q44 -19 86 -19h13q10 38 10 69q0 29 -10 77v6q12 47 12 85q0 39 -14 87v8q20 52 20 96q0 16 -1 25q-9 1 -25 1q-33 0 -64 -10h-6q-45 13 -82 13q-39 0 -77 -14l-3 -2q-38 19 -85 19q-10 0 -28 -2q-5 -30 -5 -52q0 -32 11 -71v-6q-14 -53 -14 -90q0 -40 15 -85l1 -4 l-1 -4q-17 -49 -17 -90zM238 196q8 64 8 143q0 74 -8 138l7 3q24 14 51 14h3q7 12 21 24l8 -4q64 -37 147 -43l9 -1l1 -9q0 -2 0.5 -6t0.5 -6q0 -45 -36 -87q-49 24 -103 38q-1 -22 -1 -67q0 -66 6 -129v-7q-24 -16 -55 -16q-24 0 -59 15z" />
<glyph unicode="&#xaf;" horiz-adv-x="263" d="M0 814q0 21 11.5 40t31.5 29q44 -11 100 -11q40 0 85 9q35 -26 35 -66v-6q-3 -41 -38 -58q-52 13 -112 13q-38 0 -77 -6q-17 5 -26.5 20.5t-9.5 35.5z" />
<glyph unicode="&#xb0;" horiz-adv-x="334" d="M11 532l5 5q53 47 84 122l3 6q12 2 17 2q28 0 55 -20q23 17 53 17q12 0 24 -5l2 -5q22 -71 64 -123l2 -3v-3q0 -33 -24 -54q2 -7 2 -23q-2 -41 -37 -59q-44 11 -101 11q-56 0 -92 -9q-33 17 -33 60q0 14 6 29q-25 20 -30 52zM136 508h29q25 0 37 1q-12 23 -29 47 q-19 -21 -37 -48z" />
<glyph unicode="&#xb1;" horiz-adv-x="465" d="M25 -15q0 69 53 93q40 -16 81 -16q32 0 76 11l4 2l4 -2q47 -16 77 -16q29 0 77 16q41 -25 43 -88q0 -61 -42 -95l-7 1q-49 15 -73 15t-66 -13l-6 -1q-29 12 -77 12q-35 0 -84 -18h-9q-51 26 -51 99zM25 330q0 20 5 36.5t11.5 26t14 16.5t12.5 9.5t6 2.5l4 2l5 -1 q38 -15 77 -15h6q-3 45 -12 76v9q24 48 88 48q14 0 26 -3t20.5 -7.5t15.5 -10t11 -10.5t7 -10t4 -8l1 -3l2 -5q-12 -24 -20 -81h11q29 0 77 16q41 -25 43 -88q0 -61 -42 -95q-56 16 -79 16q-9 0 -13 -1v-15q0 -47 8 -76l1 -7q-23 -39 -82 -39q-15 0 -29 4t-23 10t-15.5 12 t-10 10l-3.5 4l-4 6q11 34 17 90q-33 -1 -80 -18h-9q-4 2 -6.5 3.5t-12 9.5t-15.5 18t-11.5 28t-5.5 40z" />
<glyph unicode="&#xb2;" horiz-adv-x="324" d="M22 625q0 50 42 68h7q44 -18 113 -18q35 0 67 8q32 -16 32 -65q-1 -26 -13 -44q2 -5 3.5 -9.5l2.5 -7.5v-3v-5q-36 -27 -87 -117h16q26 0 66 8q31 -23 31 -66q0 -41 -36 -68q-35 14 -99 14q-47 0 -80 -9h-7q-39 19 -39 70v6q-8 16 -8 28q0 3 0.5 5t0.5 4v1l4 6 q19 15 48.5 54.5t51.5 78.5q-46 -2 -74 -11l-4 2q-2 0 -10 5.5t-18 23t-10 41.5z" />
<glyph unicode="&#xb3;" horiz-adv-x="332" d="M19 625q0 51 41 68h1h7q44 -18 113 -18q35 0 67 8l4 -2q17 -17 22 -30q18 -9 29 -24q-10 -50 -10 -97q0 -86 15 -129l1 -4l-1 -4l-1 -2t-3.5 -5.5t-5.5 -7.5q-1 -9 -2.5 -16.5t-4.5 -13t-5.5 -9t-5.5 -7l-3 -3.5l-6 1h-16q-39 0 -82.5 -10.5t-71.5 -26.5l-7 -1 q-12 0 -29 15q-27 24 -27 66q0 6 1 11t2 9t3 8t4 7.5t4 6t4 4.5t3.5 4t3 3t2.5 1.5l1 0.5l7 1q16 -2 28 -2q37 0 76 9q0 2 0.5 6t0.5 7q-41 -2 -59 -9l-3 3q-2 0 -7 5t-11.5 19t-6.5 32q0 8 1.5 15.5t4 13t5 10t5.5 8t5.5 5.5l5 4l2.5 2q21 -8 60 -10v15q-26 2 -37 2 q-49 0 -82 -11l-4 2q-2 0 -10 5.5t-18 23t-10 41.5z" />
<glyph unicode="&#xb4;" horiz-adv-x="202" d="M0 809q62 65 101 157h6q3 1 9 1q32 0 57.5 -23t27.5 -54l1 -6l-5 -3q-52 -40 -104 -127l-2 -4l-6 -1q-1 0 -5 -0.5t-5 -0.5q-26 0 -46.5 15.5t-26.5 39.5z" />
<glyph unicode="&#xb5;" horiz-adv-x="582" d="M27 -71q28 70 28 145q0 40 -8 82v6q16 52 16 128q0 62 -12 106l-2 4q27 54 27 148q0 51 -11 92l-1 6l4 5q32 32 90 32q12 0 24 -2.5t21 -6t16.5 -8t13 -9t9.5 -8t6 -5.5l2 -3l4 -5q-25 -58 -25 -146q0 -47 11 -91l-2 -3q-18 -58 -18 -134q0 -64 12 -100l24 10l8 2 q32 -4 45 -4q33 0 64 9q-4 26 -14 59v6q7 35 7 72q0 62 -23 122l-2 4l1 4q14 42 14 89q0 46 -21 109l3 6q40 40 98 40q11 0 21.5 -1.5t18.5 -4.5t15.5 -6.5t12.5 -6.5t8.5 -6t5.5 -5l3 -2l4 -5q-14 -49 -14 -92q0 -50 18 -98l1 -7q-9 -42 -9 -80q0 -62 24 -117v-8 q-12 -42 -12 -83q0 -68 27 -122l-2 -5q0 -1 -2.5 -6t-10.5 -13.5t-19 -16.5t-30.5 -13.5t-43.5 -5.5q-59 0 -85 37q-30 -9 -59 -25l-7 -1h-31q-33 0 -57 -4q0 -5 14 -73q-25 -49 -96 -49q-23 0 -42 5.5t-30 12.5t-18 15.5t-9.5 13.5t-2.5 7z" />
<glyph unicode="&#xb6;" horiz-adv-x="556" d="M19 541q0 8 1 15.5t2 12.5t3 10t3 7t3.5 5t2.5 4h7q50 3 85.5 18t75.5 49l3 3h4q2 0 5.5 0.5t4.5 0.5q46 8 78 22.5t64 41.5l3 3h5q2 0 5 -0.5t11.5 -3t16.5 -7t17.5 -14t17.5 -22.5q52 -6 82 -44q-21 -63 -21 -111q0 -39 12 -78v-7q-15 -54 -15 -102q0 -51 16 -96v-8 q-18 -50 -18 -101q0 -53 17 -100l1 -5q-26 -52 -101 -52q-23 0 -41.5 5.5t-28.5 12t-17 15.5t-9 14t-3 9q24 48 24 115v6q-54 70 -142 115l-5 5q-51 73 -143 114l-7 2l-1 6q-2 2 -2 18q0 25 9 44q-25 32 -25 78zM191 477q47 -47 111 -71l5 -1q7 -14 30 -37q-4 37 -15 73v8 q16 39 21 87q-35 -12 -78 -43l-7 -3q-38 -3 -67 -13z" />
<glyph unicode="&#xb7;" horiz-adv-x="216" d="M27 415q32 32 80 32q50 0 81 -31q-12 -42 -12 -60q0 -17 7 -38q-26 -33 -75 -33q-46 0 -71 28l-5 5q8 24 8 41q0 26 -13 56z" />
<glyph unicode="&#xb8;" horiz-adv-x="238" d="M0 -140q0 20 11 38q77 15 104 27q4 25 4 56q0 19 -1 33.5t-4 26.5l2 3q19 36 59 36q29 0 59 -24q-8 -56 -8 -72q0 -29 12 -89q-10 -12 -25 -20v-7q0 -10 -8 -34q-79 -11 -146 -54l-5 -4l-5 3q-21 8 -35 31t-14 50z" />
<glyph unicode="&#xb9;" horiz-adv-x="286" d="M2 557q0 22 8 30l2 4q35 12 78 43t66 63l3 4l5 1q2 0 9.5 -1.5t20 -7t24 -14t19.5 -25t8 -36.5q0 -4 -0.5 -8t-0.5 -6l-1 -3q-2 -6 -3 -6q8 -6 17 -17q-11 -55 -11 -110q0 -68 13 -120q-1 -6 -6 -14t-23 -19t-43 -11q-48 0 -68 40v7q14 39 14 130q0 7 -0.5 20t-0.5 19 q-18 -18 -32 -39l-4 -1q-2 -2 -15 -2q-22 0 -50.5 23t-28.5 56z" />
<glyph unicode="&#xba;" horiz-adv-x="476" d="M25 333q18 54 18 114t-14 95q6 12 8 15q-5 20 -5 42q0 11 1.5 21t3.5 17.5t5.5 14.5t6.5 12t7 9.5t7.5 7t7.5 5t6 3.5l5 2.5l3 1.5q32 -16 80 -16q44 0 76 11h9q47 -16 77 -16q29 0 77 16l4 -2q3 -3 5.5 -5t6.5 -6.5t7 -9t7 -11.5t6 -14.5t4 -18t2 -22.5v-14 q13 -15 17 -29q-24 -60 -24 -133q0 -45 11 -78q-8 -10 -10 -12q6 -20 6 -35q0 -62 -41 -95q-56 16 -80 16t-66 -13h-7q-57 11 -76 11q-34 0 -84 -18l-4 -1l-5 2q-4 0 -14.5 7.5t-23.5 32.5t-13 61q0 14 1 21q-2 2 -8 11zM70 91q0 62 52 85h9q58 -22 142 -22q54 0 84 10l5 -4 q6 -5 11.5 -11t14 -25t8.5 -42q0 -15 -4 -29t-10 -23t-11.5 -15.5t-10 -10.5l-4.5 -4l-5 -3q-63 18 -126 18q-68 0 -103 -14l-1 1q-51 22 -51 89zM182 405q0 -20 1 -29q32 2 58 11h9q22 -9 39 -13q11 41 11 91q0 30 -4 53q-9 -2 -37 -11h-7q-34 7 -54 9q-16 -53 -16 -111z " />
<glyph unicode="&#xbb;" horiz-adv-x="690" d="M31 473q0 24 9.5 44t22.5 30.5t28 17.5t24.5 9.5t12.5 2.5h7l3 -5q30 -39 84.5 -76t96.5 -50l5 -1l2 -4q11 -11 11 -40q0 -23 -12 -45q10 -20 10 -42q0 -6 -1 -11.5t-2 -10t-2 -7.5t-2 -5l-1 -2l-3 -4l-4 -2q-42 -16 -92 -54.5t-80 -78.5l-3 -6h-7q-3 0 -11.5 1.5t-25 8 t-30.5 17t-25 31t-11 46.5q0 5 0.5 10t0.5 7l1 3l2 6l6 2q64 27 125 92q-62 57 -128 82l-6 3l-2 6l-1 4q-1 3 -1.5 9t-0.5 12zM361 473q0 24 9.5 44t22.5 30.5t28 17.5t24.5 9.5t12.5 2.5h7l3 -5q30 -39 84.5 -76t96.5 -50l5 -1l2 -4q11 -11 11 -40q0 -23 -12 -45 q10 -20 10 -42q0 -6 -1 -11.5t-2 -10t-2 -7.5t-2 -5l-1 -2l-3 -4l-4 -2q-42 -16 -92 -54.5t-80 -78.5l-3 -6h-7q-3 0 -11.5 1.5t-25 8t-30.5 17t-25 31t-11 46.5q0 5 0.5 10t0.5 7l1 3l2 6l6 2q64 27 125 92q-62 57 -128 82l-6 3l-2 6l-1 4q-1 3 -1.5 9t-0.5 12z" />
<glyph unicode="&#xbc;" horiz-adv-x="790" d="M18 557q0 22 8 30l2 4q35 12 78 43t66 63l3 4l5 1q2 0 9.5 -1.5t20 -7t24 -14t19.5 -25t8 -36.5q0 -4 -0.5 -8t-0.5 -6l-1 -3q-2 -6 -3 -6q8 -6 17 -17q-11 -55 -11 -110q0 -68 13 -120q-1 -6 -6 -14t-23 -19t-43 -11q-48 0 -68 40v7q14 39 14 130q0 7 -0.5 20t-0.5 19 q-18 -18 -32 -39l-4 -1q-2 -2 -15 -2q-22 0 -50.5 23t-28.5 56zM238 87l2 4q13 20 23.5 47.5t16 57.5t5.5 58v9l1 5q16 32 26 77.5t10 84.5q0 19 -2 25q14 20 24.5 49.5t16.5 60.5t6 59q0 3 -0.5 9t-0.5 9l-1 6l3 2.5t5 4t7 4t10 4t13.5 2.5t17.5 1q11 0 20.5 -1.5 t17.5 -4.5t14.5 -6.5t12 -7.5t9.5 -7.5t7 -7.5t5 -6.5t3 -4.5l1 -2l3 -5l-3 -4q-18 -31 -30 -76.5t-12 -83.5q0 -12 1 -17l-1 -6q-18 -33 -28.5 -77.5t-10.5 -82.5q0 -20 3 -29q-13 -19 -22.5 -45t-14 -53.5t-4.5 -52.5q0 -21 3 -33l-2 -2.5l-4 -5t-6 -5.5t-8.5 -5.5 t-10.5 -4.5t-14.5 -3.5t-17.5 -1.5q-17 0 -31.5 3.5t-24 8.5t-16.5 11.5t-11 12.5t-6.5 11t-2.5 9l-1 3zM458 191q0 15 3 18l1 4l3 2q20 12 51.5 42.5t60.5 67.5t39 61q15 3 18 3q37 0 60 -29.5t23 -51.5v-3q29 -7 47 -31q-11 -55 -11 -110q0 -81 13 -120l-2 -4 q0 -1 -2 -4.5t-7 -10t-12.5 -12t-20.5 -9.5t-29 -4q-47 0 -67 40v7q5 14 8 34q-21 3 -43 3q-49 0 -82 -11l-4 2l-2 1t-5.5 3.5t-7.5 6t-8 9.5t-7.5 12.5t-5.5 16.5t-2 21t1 16q-10 18 -10 30zM615 195h25q0 5 -0.5 15t-0.5 14q-11 -12 -24 -29z" />
<glyph unicode="&#xbd;" horiz-adv-x="772" d="M18 557q0 22 8 30l2 4q35 12 78 43t66 63l3 4l5 1q2 0 9.5 -1.5t20 -7t24 -14t19.5 -25t8 -36.5q0 -4 -0.5 -8t-0.5 -6l-1 -3q-2 -6 -3 -6q8 -6 17 -17q-11 -55 -11 -110q0 -68 13 -120q-1 -6 -6 -14t-23 -19t-43 -11q-48 0 -68 40v7q14 39 14 130q0 7 -0.5 20t-0.5 19 q-18 -18 -32 -39l-4 -1q-2 -2 -15 -2q-22 0 -50.5 23t-28.5 56zM238 87l2 4q13 20 23.5 47.5t16 57.5t5.5 58v9l1 5q16 32 26 77.5t10 84.5q0 19 -2 25q14 20 24.5 49.5t16.5 60.5t6 59q0 3 -0.5 9t-0.5 9l-1 6l3 2.5t5 4t7 4t10 4t13.5 2.5t17.5 1q11 0 20.5 -1.5 t17.5 -4.5t14.5 -6.5t12 -7.5t9.5 -7.5t7 -7.5t5 -6.5t3 -4.5l1 -2l3 -5l-3 -4q-18 -31 -30 -76.5t-12 -83.5q0 -12 1 -17l-1 -6q-18 -33 -28.5 -77.5t-10.5 -82.5q0 -20 3 -29q-13 -19 -22.5 -45t-14 -53.5t-4.5 -52.5q0 -21 3 -33l-2 -2.5l-4 -5t-6 -5.5t-8.5 -5.5 t-10.5 -4.5t-14.5 -3.5t-17.5 -1.5q-17 0 -31.5 3.5t-24 8.5t-16.5 11.5t-11 12.5t-6.5 11t-2.5 9l-1 3zM466 306q0 11 2 21t6 16.5t8 12t8.5 9t8 6t6 3.5l2.5 1l4 1q38 -19 116 -19q28 0 68 8q31 -23 31 -66q0 -26 -12 -43q5 -14 5 -20l1 -5l-4 -4q-36 -32 -83 -114h12 q30 0 70 8q5 -3 10.5 -7.5t13 -20.5t7.5 -37q0 -8 -1 -14.5t-3 -12.5t-4.5 -10.5t-5.5 -9t-5.5 -7.5t-5.5 -5.5t-4.5 -4t-4 -3l-2.5 -1.5q-70 14 -101 14q-38 0 -82 -11l-4 2l-2 1t-5.5 3.5t-7.5 6t-8 9.5t-7.5 12.5t-5.5 16.5t-2 21v5q-8 16 -8 28q0 3 0.5 5t0.5 3.5v1.5 l1 4l3 2q19 17 48.5 56t50.5 77q-42 -2 -70 -9h-7q-1 0 -3 1t-6 4t-7.5 6.5t-7.5 9t-7 12.5t-5 16.5t-2 20.5z" />
<glyph unicode="&#xbe;" horiz-adv-x="818" d="M21 625q0 51 41 68h1h7q44 -18 113 -18q35 0 67 8l4 -2q17 -17 22 -30q18 -9 29 -24q-10 -50 -10 -97q0 -86 15 -129l1 -4l-1 -4l-1 -2t-3.5 -5.5t-5.5 -7.5q-1 -9 -2.5 -16.5t-4.5 -13t-5.5 -9t-5.5 -7l-3 -3.5l-6 1h-16q-39 0 -82.5 -10.5t-71.5 -26.5l-7 -1 q-12 0 -29 15q-27 24 -27 66q0 6 1 11t2 9t3 8t4 7.5t4 6t4 4.5t3.5 4t3 3t2.5 1.5l1 0.5l7 1q16 -2 28 -2q37 0 76 9q0 2 0.5 6t0.5 7q-41 -2 -59 -9l-3 3q-2 0 -7 5t-11.5 19t-6.5 32q0 8 1.5 15.5t4 13t5 10t5.5 8t5.5 5.5l5 4l2.5 2q21 -8 60 -10v15q-26 2 -37 2 q-49 0 -82 -11l-4 2q-2 0 -10 5.5t-18 23t-10 41.5zM271 87l2 4q45 68 45 163v9l1 5q36 70 36 162q0 19 -2 25q21 31 34 79t13 90q0 3 -0.5 9t-0.5 9l-1 6q24 18 56 18q11 0 20.5 -1.5t17.5 -4.5t14.5 -6.5t12 -7.5t9.5 -7.5t7 -7.5t5 -6.5t3 -4.5l1 -2l3 -5l-3 -4 q-18 -31 -30 -76.5t-12 -83.5q0 -12 1 -17l-1 -6q-39 -73 -39 -160q0 -20 3 -29q-19 -29 -30 -70.5t-11 -80.5q0 -21 3 -33l-2 -2.5l-4 -5t-6 -5.5t-8.5 -5.5t-10.5 -4.5t-14.5 -3.5t-17.5 -1.5q-17 0 -31.5 3.5t-24 8.5t-16.5 11t-11 12.5t-6.5 11.5t-2.5 9l-1 3zM491 191 q0 15 3 18l1 4l3 2q32 19 84 76.5t67 94.5q15 3 18 3q37 0 60 -29.5t23 -51.5v-3q29 -7 47 -31q-11 -55 -11 -110q0 -81 13 -120l-2 -4q0 -3 -5.5 -11t-23 -18.5t-42.5 -10.5q-47 0 -67 40v7q5 14 8 34q-21 3 -43 3q-49 0 -82 -11l-4 2q-2 0 -10 5.5t-18 23t-10 41.5 q0 11 1 16q-10 18 -10 30zM648 195h25q0 5 -0.5 15t-0.5 14q-11 -12 -24 -29z" />
<glyph unicode="&#xbf;" horiz-adv-x="455" d="M20 237q0 5 0.5 10t1 8.5t1.5 6.5l1.5 4.5l0.5 1.5l2 6q49 14 102 47.5t84 69.5q1 10 1 30q0 25 -7 46l3 4t5.5 7t7.5 7.5t11 8t14 7t19 5t24 1.5q47 0 80 -38l4 -6l-2 -6q-12 -25 -12 -56q0 -25 11 -63v-9q-14 -27 -41 -40q-3 -20 -17 -39q-40 -10 -87 -35h8l7 -2 q58 -44 139 -44h20l3 -3q3 -2 5 -4t5.5 -6t6 -9.5t4.5 -12t3.5 -15t1.5 -18.5q0 -18 -3 -33t-8 -26t-11.5 -20t-13 -14.5t-14 -10t-13 -7t-10.5 -3.5t-7 -1l-2 -1h-5l-3 3q-66 50 -144 50l-8 2q-39 30 -66.5 39t-73.5 9h-7l-3 4q-3 5 -5 9t-4.5 10.5t-4 15.5t-1.5 20 q0 18 6 39q0 1 0.5 2.5t1.5 2.5q-11 23 -11 46zM221 574q12 42 12 61q0 16 -7 37l5 5q25 28 71 28q49 0 75 -33q-7 -21 -7 -39q0 -16 12 -58q-32 -32 -79 -32q-45 0 -82 31z" />
<glyph unicode="&#xc0;" horiz-adv-x="508" d="M-4 79q52 69 52 179v17l2 6q37 74 37 152q0 29 -3 44q50 67 50 159q0 10 -2 32v6q24 24 70 24q72 0 112 -60l3 -6l-3 -6q-2 -2 -2 -3h7q8 0 15.5 -0.5t13 -1.5t9.5 -2t6.5 -1.5l2.5 -0.5l6 -4q-2 -14 -2 -30q0 -86 41 -159l2 -6v-13q0 -58 10 -93q19 7 42 21l6 -2l1.5 -1 t4 -2.5t5.5 -4t6.5 -6t7 -7.5t7.5 -10t7.5 -12.5t6.5 -15t5 -17.5q3 -17 3 -30q0 -42 -24 -72q-14 2 -34 2q13 -47 45 -98l-6 -7q-29 -29 -77 -40q-20 -5 -36 -5q-10 0 -19 1.5t-15.5 3t-11.5 3.5t-8 3l-3 2l-7 4l1 8q0 4 0.5 12t0.5 12q0 34 -6 67q-2 -2 -3 -2l-7 -2 q-73 0 -127 -18v-15q0 -27 4 -47q-26 -35 -79 -35q-29 0 -51.5 7.5t-34.5 18t-19 21.5t-9 19l-2 7zM123 880l2 6q9 27 37.5 44.5t61.5 17.5q16 0 28 -3l1 -8q6 -78 51 -151l2 -4q-4 -18 -16 -30.5t-26.5 -18t-31.5 -5.5q-6 0 -21 3q-33 82 -84 145zM230 275q5 2 21.5 9 t26.5 10q8 -2 13 -2q-10 38 -32 88l-7 23q-22 -57 -22 -115v-13z" />
<glyph unicode="&#xc1;" horiz-adv-x="508" d="M-4 79q52 69 52 179v17l2 6q37 74 37 152q0 29 -3 44q50 67 50 159q0 10 -2 32v6q24 24 70 24q72 0 112 -60l3 -6l-3 -6q-2 -2 -2 -3h7q8 0 15.5 -0.5t13 -1.5t9.5 -2t6.5 -1.5l2.5 -0.5l6 -4q-2 -14 -2 -30q0 -86 41 -159l2 -6v-13q0 -58 10 -93q19 7 42 21l6 -2l1.5 -1 t4 -2.5t5.5 -4t6.5 -6t7 -7.5t7.5 -10t7.5 -12.5t6.5 -15t5 -17.5q3 -17 3 -30q0 -42 -24 -72q-14 2 -34 2q13 -47 45 -98l-6 -7q-29 -29 -77 -40q-20 -5 -36 -5q-10 0 -19 1.5t-15.5 3t-11.5 3.5t-8 3l-3 2l-7 4l1 8q0 4 0.5 12t0.5 12q0 34 -6 67q-2 -2 -3 -2l-7 -2 q-73 0 -127 -18v-15q0 -27 4 -47q-26 -35 -79 -35q-29 0 -51.5 7.5t-34.5 18t-19 21.5t-9 19l-2 7zM230 275q5 2 21.5 9t26.5 10q8 -2 13 -2q-10 38 -32 88l-7 23q-22 -57 -22 -115v-13zM231 786q62 65 101 157h6q3 1 9 1q32 0 57.5 -23t27.5 -54l1 -6l-5 -3 q-52 -40 -104 -127l-2 -4l-6 -1q-2 0 -5 -0.5t-5 -0.5q-26 0 -46.5 15.5t-26.5 39.5z" />
<glyph unicode="&#xc2;" horiz-adv-x="508" d="M-4 79q52 69 52 179v17l2 6q37 74 37 152q0 29 -3 44q50 67 50 159q0 10 -2 32v6q24 24 70 24q72 0 112 -60l3 -6l-3 -6q-2 -2 -2 -3h7q8 0 15.5 -0.5t13 -1.5t9.5 -2t6.5 -1.5l2.5 -0.5l6 -4q-2 -14 -2 -30q0 -86 41 -159l2 -6v-13q0 -58 10 -93q19 7 42 21l6 -2l1.5 -1 t4 -2.5t5.5 -4t6.5 -6t7 -7.5t7.5 -10t7.5 -12.5t6.5 -15t5 -17.5q3 -17 3 -30q0 -42 -24 -72q-14 2 -34 2q13 -47 45 -98l-6 -7q-29 -29 -77 -40q-20 -5 -36 -5q-10 0 -19 1.5t-15.5 3t-11.5 3.5t-8 3l-3 2l-7 4l1 8q0 4 0.5 12t0.5 12q0 34 -6 67q-2 -2 -3 -2l-7 -2 q-73 0 -127 -18v-15q0 -27 4 -47q-26 -35 -79 -35q-29 0 -51.5 7.5t-34.5 18t-19 21.5t-9 19l-2 7zM106 809v4q62 62 100 157q28 7 32 7q14 0 28 -6q4 1 11 1q18 0 40 -11l1 -4q36 -95 93 -150l3 -4v-5q-3 -32 -26.5 -52t-50.5 -20q-15 0 -35 10l-1 4q-18 49 -43 91 q-29 -40 -49 -90l-5 -5q-14 -7 -26 -7q-30 0 -51 24t-21 56zM230 275q5 2 21.5 9t26.5 10q8 -2 13 -2q-10 38 -32 88l-7 23q-22 -57 -22 -115v-13z" />
<glyph unicode="&#xc3;" horiz-adv-x="508" d="M-4 79q52 69 52 179v17l2 6q37 74 37 152q0 29 -3 44q50 67 50 159q0 10 -2 32v6q24 24 70 24q72 0 112 -60l3 -6l-3 -6q-2 -2 -2 -3h7q8 0 15.5 -0.5t13 -1.5t9.5 -2t6.5 -1.5l2.5 -0.5l6 -4q-2 -14 -2 -30q0 -86 41 -159l2 -6v-13q0 -58 10 -93q19 7 42 21l6 -2l1.5 -1 t4 -2.5t5.5 -4t6.5 -6t7 -7.5t7.5 -10t7.5 -12.5t6.5 -15t5 -17.5q3 -17 3 -30q0 -42 -24 -72q-14 2 -34 2q13 -47 45 -98l-6 -7q-29 -29 -77 -40q-20 -5 -36 -5q-10 0 -19 1.5t-15.5 3t-11.5 3.5t-8 3l-3 2l-7 4l1 8q0 4 0.5 12t0.5 12q0 34 -6 67q-2 -2 -3 -2l-7 -2 q-73 0 -127 -18v-15q0 -27 4 -47q-26 -35 -79 -35q-29 0 -51.5 7.5t-34.5 18t-19 21.5t-9 19l-2 7zM65 804v4q66 66 102 156q12 6 32 6q16 0 29 -6q3 1 10 1q18 0 36 -9l5 -6q18 -50 40 -86q33 58 41 99q25 10 38 10q30 0 52.5 -20.5t24.5 -47.5v-5l-3 -3q-62 -71 -91 -161 l-5 -6q-12 -8 -31 -8q-12 0 -21 3q-15 -6 -30 -6q-14 0 -34 10l-1 4q-17 49 -42 92q-27 -37 -50 -89l-5 -6q-12 -6 -25 -6q-32 0 -52 24t-20 56zM230 275q5 2 21.5 9t26.5 10q8 -2 13 -2q-10 38 -32 88l-7 23q-22 -57 -22 -115v-13z" />
<glyph unicode="&#xc4;" horiz-adv-x="508" d="M-4 79q52 69 52 179v17l2 6q37 74 37 152q0 29 -3 44q50 67 50 159q0 10 -2 32v6q24 24 70 24q72 0 112 -60l3 -6l-3 -6q-2 -2 -2 -3h7q8 0 15.5 -0.5t13 -1.5t9.5 -2t6.5 -1.5l2.5 -0.5l6 -4q-2 -14 -2 -30q0 -86 41 -159l2 -6v-13q0 -58 10 -93q19 7 42 21l6 -2l1.5 -1 t4 -2.5t5.5 -4t6.5 -6t7 -7.5t7.5 -10t7.5 -12.5t6.5 -15t5 -17.5q3 -17 3 -30q0 -42 -24 -72q-14 2 -34 2q13 -47 45 -98l-6 -7q-29 -29 -77 -40q-20 -5 -36 -5q-10 0 -19 1.5t-15.5 3t-11.5 3.5t-8 3l-3 2l-7 4l1 8q0 4 0.5 12t0.5 12q0 34 -6 67q-2 -2 -3 -2l-7 -2 q-73 0 -127 -18v-15q0 -27 4 -47q-26 -35 -79 -35q-29 0 -51.5 7.5t-34.5 18t-19 21.5t-9 19l-2 7zM85 858q35 35 94 35q47 0 67 -20l6 -5q-16 -37 -16 -73q0 -15 3 -30q-28 -28 -72 -28q-26 0 -60 17q2 16 2 25q0 37 -24 79zM230 275q6 2 15 6t17 7.5t16 5.5q8 -2 13 -2 q-10 38 -32 88l-7 23q-22 -57 -22 -115v-13zM277 865l6 4q29 23 70 23q50 0 83 -33l-3 -8q-21 -42 -21 -79v-15q-22 -18 -57 -18q-39 0 -72 26q2 12 2 32q0 12 -8 68z" />
<glyph unicode="&#xc5;" horiz-adv-x="508" d="M-4 79q52 69 52 179v17l2 6q37 74 37 152q0 29 -3 44q50 67 50 159q0 10 -2 32v6q24 24 70 24q72 0 112 -60l3 -6l-3 -6q-2 -2 -2 -3h7q8 0 15.5 -0.5t13 -1.5t9.5 -2t6.5 -1.5l2.5 -0.5l6 -4q-2 -14 -2 -30q0 -86 41 -159l2 -6v-13q0 -58 10 -93q19 7 42 21l6 -2l1.5 -1 t4 -2.5t5.5 -4t6.5 -6t7 -7.5t7.5 -10t7.5 -12.5t6.5 -15t5 -17.5q3 -17 3 -30q0 -42 -24 -72q-14 2 -34 2q13 -47 45 -98l-6 -7q-29 -29 -77 -40q-20 -5 -36 -5q-10 0 -19 1.5t-15.5 3t-11.5 3.5t-8 3l-3 2l-7 4l1 8q0 4 0.5 12t0.5 12q0 34 -6 67q-2 -2 -3 -2l-7 -2 q-73 0 -127 -18v-15q0 -27 4 -47q-26 -35 -79 -35q-29 0 -51.5 7.5t-34.5 18t-19 21.5t-9 19l-2 7zM106 862l5 5q53 47 84 122l3 6q12 2 17 2q28 0 55 -20q23 17 53 17q12 0 24 -5l2 -5q22 -71 64 -123l2 -3v-3q0 -33 -24 -54q2 -7 2 -23q-2 -41 -37 -59q-44 11 -101 11 q-56 0 -92 -9q-33 17 -33 60q0 14 6 29q-25 20 -30 52zM230 275q5 2 21.5 9t26.5 10q8 -2 13 -2q-10 38 -32 88l-7 23q-22 -57 -22 -115v-13zM231 838h29q25 0 37 1q-12 23 -29 47q-19 -21 -37 -48z" />
<glyph unicode="&#xc6;" horiz-adv-x="798" d="M-21 113v5l4 3q72 65 96 173l2 6q70 81 82 177l4 7q73 69 91 176l6 3l2 0.5t5 1.5l7.5 2.5t10.5 2t12 0.5q29 0 54 -11l-1 3l1 2l9.5 9.5t15 12t28 12t39.5 4.5q44 0 75 -23q44 5 65 15q64 -16 79 -16q25 0 85 20l5 -3h1q35 -28 39 -83v-9q0 -56 -38 -86q-45 13 -78 13 q-28 0 -73 -15l-6 -1q-43 8 -77 8q4 -32 11 -54v-7q-4 -13 -8 -35q27 -7 53 -7q38 0 83 15l2.5 -2t4 -3t5 -4t5.5 -6t5.5 -7.5t5.5 -9t4.5 -11t4 -13t2.5 -15.5t1 -18q0 -50 -39 -89l-6 -4q-60 20 -95 20q-15 0 -30 -3l3 -6v-8q-11 -31 -16 -66q12 3 26 5t24 3t11 1 q50 -25 91 -25q33 0 72 13l5 -4q32 -32 32 -86q0 -28 -11.5 -50.5t-19.5 -29t-16 -11.5q-66 22 -91 22q-23 0 -59 -9h-6q-9 2 -26.5 6t-27.5 6q-27 -34 -89 -34q-22 0 -39.5 5t-28 12.5t-17.5 15.5t-9.5 13t-2.5 6l-2 4q20 50 23 98q-30 3 -62 3q-71 0 -103 -13l-2 1 q-26 -51 -32 -108l-1 -5q-24 -18 -54 -18q-29 0 -60 15q-66 31 -66 88zM270 299q36 -6 76 -6h11q6 31 6 62q0 49 -15 96q-8 -27 -10 -44l-3 -6q-43 -48 -65 -102z" />
<glyph unicode="&#xc7;" horiz-adv-x="515" d="M8 111l2 4q13 24 20.5 41.5t11.5 37t4 41.5q0 20 -3 45l1 6q25 60 25 110q0 29 -8 69l2 3q24 46 30 77q-18 23 -18 66q0 24 5.5 43t13 29t16 17t13.5 9.5t6 2.5l5 2q52 -26 110 -26q42 0 56 5l4 1q56 -28 105 -28q9 0 69 10l3 -2.5t5 -4.5t5 -6.5t5.5 -8.5t5.5 -10.5 t5 -14t3 -17t1 -20.5v-8q-3 -56 -41 -87h-1l-6 -4l-6 2q-57 24 -97 24q-23 0 -57 -8q-12 2 -57 13q-1 -10 -1 -28t5 -46v-4l-1 -3q-27 -63 -27 -114q0 -32 9 -68q-31 -61 -33 -99q13 2 67 20q3 1 13 6q32 -8 64 -8q54 0 118 32l3 -1.5t4.5 -2.5t5 -3.5t6.5 -5t6.5 -7 t6.5 -8.5t6.5 -10t6 -12.5t5 -15t3.5 -17.5q1 -7 1 -20q0 -9 -1.5 -18.5t-3.5 -16.5t-5 -13l-5.5 -11t-5 -8.5t-4 -5.5l-1.5 -2l-5 -5q-21 7 -61 7q-27 0 -51 -6q-3 -16 -3 -46q0 -29 12 -89q-10 -12 -25 -20v-7q0 -10 -8 -34q-79 -11 -146 -54l-5 -4l-5 3q-21 8 -35 31 t-14 50q0 20 11 38q77 15 104 27q4 25 4 56q0 5 -0.5 14.5t-0.5 14.5q-72 -2 -134 -34l-5 -2l-4 1l-2.5 1l-5 2t-7 3.5t-8 5t-8.5 6.5t-9 8.5t-8 10.5t-7 12.5t-5.5 14.5t-3.5 17q-16 8 -27 21t-14 20t-3 9z" />
<glyph unicode="&#xc8;" horiz-adv-x="490" d="M28 52q24 60 24 118q0 42 -10 85v6q13 52 13 94q0 49 -16 100l-1 5q23 46 23 110q0 47 -15 92l1 2q29 38 92 38q44 0 75 -23q44 5 65 15l5 -1q47 -15 74 -15q25 0 85 20q41 -24 45 -86v-9q0 -56 -38 -86q-45 13 -78 13q-27 0 -72 -15l-7 -1q-43 8 -77 8q4 -32 11 -54v-7 q-4 -13 -8 -35q27 -7 53 -7q38 0 83 15l2 -1q38 -29 38 -88q0 -50 -39 -89l-5 -4q-70 20 -96 20q-15 0 -30 -3l5 -10q-12 -23 -18 -70q34 8 57 8l4 1q50 -25 91 -25q33 0 72 13l5 -4q32 -32 32 -86q0 -16 -4.5 -31t-10.5 -25t-11.5 -17t-10.5 -11l-4 -4l-6 -3q-66 22 -91 22 q-22 0 -58 -9h-7l-54 12q-29 -34 -89 -34q-22 0 -39.5 5t-28 12.5t-17.5 15.5t-9.5 13t-2.5 6zM136 894l2 6q9 27 37.5 44.5t61.5 17.5q16 0 28 -3l1 -8q6 -78 51 -151l2 -4q-4 -18 -16 -30.5t-26.5 -18t-31.5 -5.5q-6 0 -21 3q-33 82 -84 145z" />
<glyph unicode="&#xc9;" horiz-adv-x="490" d="M28 52q24 60 24 118q0 42 -10 85v6q13 52 13 94q0 49 -16 100l-1 5q23 46 23 110q0 47 -15 92l1 2q29 38 92 38q44 0 75 -23q44 5 65 15l5 -1q47 -15 74 -15q25 0 85 20q41 -24 45 -86v-9q0 -56 -38 -86q-45 13 -78 13q-27 0 -72 -15l-7 -1q-43 8 -77 8q4 -32 11 -54v-7 q-4 -13 -8 -35q27 -7 53 -7q38 0 83 15l2 -1q38 -29 38 -88q0 -50 -39 -89l-5 -4q-70 20 -96 20q-15 0 -30 -3l5 -10q-12 -23 -18 -70q34 8 57 8l4 1q50 -25 91 -25q33 0 72 13l5 -4q32 -32 32 -86q0 -16 -4.5 -31t-10.5 -25t-11.5 -17t-10.5 -11l-4 -4l-6 -3q-66 22 -91 22 q-22 0 -58 -9h-7l-54 12q-29 -34 -89 -34q-22 0 -39.5 5t-28 12.5t-17.5 15.5t-9.5 13t-2.5 6zM199 795q62 65 101 157h6q3 1 9 1q32 0 57.5 -23t27.5 -54l1 -6l-5 -3q-33 -26 -56 -55.5t-48 -71.5l-2 -4l-6 -1q-1 0 -4.5 -0.5t-5.5 -0.5q-26 0 -46.5 15.5t-26.5 39.5z" />
<glyph unicode="&#xca;" horiz-adv-x="490" d="M28 52q24 60 24 118q0 42 -10 85v6q13 52 13 94q0 49 -16 100l-1 5q23 46 23 110q0 47 -15 92l1 2q29 38 92 38q44 0 75 -23q44 5 65 15l5 -1q47 -15 74 -15q25 0 85 20q41 -24 45 -86v-9q0 -56 -38 -86q-45 13 -78 13q-27 0 -72 -15l-7 -1q-43 8 -77 8q4 -32 11 -54v-7 q-4 -13 -8 -35q27 -7 53 -7q38 0 83 15l2 -1q38 -29 38 -88q0 -50 -39 -89l-5 -4q-70 20 -96 20q-15 0 -30 -3l5 -10q-12 -23 -18 -70q34 8 57 8l4 1q50 -25 91 -25q33 0 72 13l5 -4q32 -32 32 -86q0 -16 -4.5 -31t-10.5 -25t-11.5 -17t-10.5 -11l-4 -4l-6 -3q-66 22 -91 22 q-22 0 -58 -9h-7l-54 12q-29 -34 -89 -34q-22 0 -39.5 5t-28 12.5t-17.5 15.5t-9.5 13t-2.5 6zM104 816v4q62 62 100 157q28 7 32 7q14 0 28 -6q4 1 11 1q18 0 40 -11l1 -4q36 -95 93 -150l3 -4v-5q-2 -22 -14 -38.5t-29 -25t-34 -8.5q-15 0 -35 10l-1 4q-18 49 -43 91 q-29 -40 -49 -90l-5 -5q-14 -7 -26 -7q-30 0 -51 24t-21 56z" />
<glyph unicode="&#xcb;" horiz-adv-x="490" d="M28 52q24 60 24 118q0 42 -10 85v6q13 52 13 94q0 49 -16 100l-1 5q23 46 23 110q0 47 -15 92l1 2q29 38 92 38q44 0 75 -23q44 5 65 15l5 -1q47 -15 74 -15q25 0 85 20q41 -24 45 -86v-9q0 -56 -38 -86q-45 13 -78 13q-27 0 -72 -15l-7 -1q-43 8 -77 8q4 -32 11 -54v-7 q-4 -13 -8 -35q27 -7 53 -7q38 0 83 15l2 -1q38 -29 38 -88q0 -50 -39 -89l-5 -4q-70 20 -96 20q-15 0 -30 -3l5 -10q-12 -23 -18 -70q34 8 57 8l4 1q50 -25 91 -25q33 0 72 13l5 -4q32 -32 32 -86q0 -16 -4.5 -31t-10.5 -25t-11.5 -17t-10.5 -11l-4 -4l-6 -3q-66 22 -91 22 q-22 0 -58 -9h-7l-54 12q-29 -34 -89 -34q-22 0 -39.5 5t-28 12.5t-17.5 15.5t-9.5 13t-2.5 6zM82 870q35 35 94 35q47 0 67 -20l6 -5q-16 -37 -16 -73q0 -15 3 -30q-28 -28 -72 -28q-26 0 -60 17q2 16 2 25q0 37 -24 79zM274 877l6 4q29 23 70 23q50 0 83 -33l-3 -8 q-21 -42 -21 -79v-15q-22 -18 -57 -18q-39 0 -72 26q2 12 2 32q0 12 -8 68z" />
<glyph unicode="&#xcc;" horiz-adv-x="266" d="M-5 890l2 6q9 27 37.5 44.5t61.5 17.5q16 0 28 -3l1 -8q6 -78 51 -151l2 -4q-7 -26 -27.5 -40t-46.5 -14q-6 0 -21 3q-33 82 -84 145zM28 54q24 48 24 118q0 43 -10 84v6q13 52 13 94q0 37 -17 105q23 46 23 111q0 46 -15 91q32 40 93 40q28 0 51 -10t31.5 -18.5 t10.5 -11.5l5 -5l-3 -6q-18 -54 -18 -104q0 -43 11 -79v-7q-15 -54 -15 -102q0 -64 18 -100q-20 -40 -20 -105q0 -58 19 -105q-26 -52 -102 -52q-22 0 -39.5 5t-28 12t-17.5 15t-9.5 13t-2.5 6z" />
<glyph unicode="&#xcd;" horiz-adv-x="266" d="M28 54q24 48 24 118q0 43 -10 84v6q13 52 13 94q0 37 -17 105q23 46 23 111q0 46 -15 91q32 40 93 40q28 0 51 -10t31.5 -18.5t10.5 -11.5l5 -5l-3 -6q-18 -54 -18 -104q0 -43 11 -79v-7q-15 -54 -15 -102q0 -64 18 -100q-20 -40 -20 -105q0 -58 19 -105 q-26 -52 -102 -52q-22 0 -39.5 5t-28 12t-17.5 15t-9.5 13t-2.5 6zM99 802q62 65 101 157h6q3 1 9 1q32 0 57.5 -23t27.5 -54l1 -6l-5 -3q-52 -40 -104 -127l-2 -4l-6 -1q-2 0 -5 -0.5t-5 -0.5q-26 0 -46.5 15.5t-26.5 39.5z" />
<glyph unicode="&#xce;" horiz-adv-x="266" d="M-5 818v4q62 62 100 157q28 7 32 7q14 0 28 -6q4 1 11 1q18 0 40 -11l1 -4q36 -95 93 -150l3 -4v-5q-2 -22 -14 -38.5t-29 -25t-34 -8.5q-15 0 -35 10l-1 4q-18 49 -43 91q-29 -40 -49 -90l-5 -5q-14 -7 -26 -7q-30 0 -51 24t-21 56zM28 54q24 48 24 118q0 43 -10 84v6 q13 52 13 94q0 37 -17 105q23 46 23 111q0 46 -15 91q32 40 93 40q28 0 51 -10t31.5 -18.5t10.5 -11.5l5 -5l-3 -6q-18 -54 -18 -104q0 -43 11 -79v-7q-15 -54 -15 -102q0 -64 18 -100q-20 -40 -20 -105q0 -58 19 -105q-26 -52 -102 -52q-22 0 -39.5 5t-28 12t-17.5 15 t-9.5 13t-2.5 6z" />
<glyph unicode="&#xcf;" horiz-adv-x="266" d="M-36 858q35 35 94 35q47 0 67 -20l6 -5q-16 -37 -16 -73q0 -15 3 -30q-28 -28 -72 -28q-26 0 -60 17q2 16 2 25q0 37 -24 79zM28 54q24 48 24 118q0 43 -10 84v6q13 52 13 94q0 37 -17 105q23 46 23 111q0 46 -15 91l1 2q29 38 92 38q28 0 51 -10t31.5 -18.5t10.5 -11.5 l5 -5l-3 -6q-18 -54 -18 -104q0 -43 11 -79v-7q-15 -54 -15 -102q0 -64 18 -100q-20 -40 -20 -105q0 -58 19 -105q-26 -52 -102 -52q-22 0 -39.5 5t-28 12t-17.5 15t-9.5 13t-2.5 6zM156 865l6 4q29 23 70 23q50 0 83 -33l-3 -8q-21 -42 -21 -79v-15q-22 -18 -57 -18 q-40 0 -72 26q2 12 2 32q0 12 -8 68z" />
<glyph unicode="&#xd0;" horiz-adv-x="670" d="M-16 356q0 25 7.5 43t19 27t18.5 12.5t12 4.5q48 -24 146 -24h12q-1 7 -5.5 20.5t-5.5 20.5q23 46 23 110q0 47 -15 92l1 2q29 38 92 38h10q29 23 62 23q6 0 12 -0.5t9.5 -1.5l3.5 -1l4 -2q8 -19 22 -39t32 -38t37.5 -33.5t39.5 -29.5l9 -4l4 -2q48 -96 137 -141l6 -2 q2 -14 2 -16q0 -29 -20 -60q21 -30 21 -64v-5l-1 -7q-90 -45 -135 -132l-1 -4l-3 -1q-41 -24 -80.5 -66t-58.5 -85l-2 -4l-5 -2q-5 -5 -26 -5q-29 0 -58 20q-20 -4 -33 -4q-22 0 -39.5 5t-28 12.5t-17.5 15.5t-9.5 13t-2.5 6l-2 4q24 60 24 118q0 42 -10 85v6l4 16 q-28 3 -56 3q-58 0 -99 -12l-5 -1q-52 26 -52 89zM362 359q0 -64 18 -100q-7 -14 -14 -46q6 8 15 18.5t15 18.5t9 14q66 33 109 88q-40 51 -98 82q-9 9 -23.5 28t-20.5 26q1 -5 5 -20v-7q-15 -54 -15 -102z" />
<glyph unicode="&#xd1;" horiz-adv-x="598" d="M28 52q24 48 24 118q0 43 -10 84v6q13 52 13 94q0 37 -17 105q23 46 23 111q0 46 -15 91l1 2q29 38 92 38q37 0 65 -17h8q12 0 23.5 -2.5t16.5 -4.5t6 -3l6 -3l1 -6q10 -100 70 -169l3 -3v-3q12 -78 50 -138v1q0 26 -3.5 51t-11.5 51v8q21 54 21 109q0 47 -14 89l1 2 l9.5 9.5t15 12t28 12t39.5 4.5q61 0 97 -45q-21 -63 -21 -111q0 -39 12 -78v-7q-15 -52 -15 -101q0 -52 16 -97v-8q-19 -50 -19 -103q0 -56 19 -103q-26 -52 -101 -52q-43 0 -68 17h-5q-11 0 -20.5 1.5t-16 5t-10.5 6t-8 6.5l-4 3v5q-4 97 -73 185l-2 5q-12 65 -42 119 q2 -59 18 -91q-20 -40 -20 -105q0 -58 19 -105q-26 -52 -102 -52q-22 0 -39.5 5t-28 12t-17.5 15t-9.5 13t-2.5 6zM129 818v4q66 66 102 156q12 6 32 6q16 0 29 -6q3 1 10 1q18 0 36 -9l5 -6q18 -50 40 -86q33 58 41 99q25 10 38 10q30 0 52.5 -20.5t24.5 -47.5v-5l-3 -3 q-62 -71 -91 -161l-5 -6q-12 -8 -31 -8q-12 0 -21 3q-15 -6 -30 -6q-14 0 -34 10l-1 4q-17 49 -42 92q-27 -37 -50 -89l-5 -6q-12 -6 -25 -6q-32 0 -52 24t-20 56z" />
<glyph unicode="&#xd2;" d="M8 111l2 4q13 24 20.5 41.5t11.5 37t4 41.5q0 19 -3 45l1 6q25 60 25 110q0 29 -8 69l2 3q24 46 30 77q-18 23 -18 66q0 24 5.5 43t13 29t16 17t13.5 9.5t6 2.5l5 2q52 -26 110 -26q42 0 56 5l4 1q53 -27 98 -28q32 14 62 14q11 0 21 -1.5t18 -4.5t15 -6t12 -6.5t8.5 -6 t6 -4.5l2.5 -2l5 -5q-13 -39 -13 -84t20 -94l2 -3q-8 -32 -8 -73q0 -61 27 -119l2 -3q-13 -33 -13 -80q0 -52 28 -108l-2 -5q0 -4 -8 -16t-35.5 -27.5t-67.5 -15.5q-38 0 -63 18q-47 -6 -87 -25l-3 -2l-3 1q-8 0 -23 1t-23 1q-91 0 -156 -34l-5 -2l-4 1l-2.5 1l-5 2t-7 3.5 t-8 5t-8.5 6.5t-9 8.5t-8 10.5t-7 12.5t-5.5 14.5t-3.5 17q-16 8 -27 21t-14 20t-3 9zM198 162q74 9 96 24l4 2q32 -8 69 -8q22 0 43 3q-4 26 -15 62l-1 6q6 33 6 64q0 68 -28 124q1 7 5 24.5t6.5 29.5t2.5 24q-18 2 -26 2q-23 0 -57 -8q-12 2 -57 13q-1 -10 -1 -28t5 -46 v-4l-1 -3q-27 -63 -27 -114q0 -32 9 -68q-31 -61 -33 -99zM201 888l2 6q6 18 21 32t35.5 22t42.5 8q16 0 28 -3l1 -8q6 -78 51 -151l2 -4q-4 -18 -16 -30.5t-26.5 -18t-31.5 -5.5q-6 0 -21 3q-33 82 -84 145z" />
<glyph unicode="&#xd3;" d="M8 111l2 4q13 24 20.5 41.5t11.5 37t4 41.5q0 19 -3 45l1 6q25 60 25 110q0 29 -8 69l2 3q24 46 30 77q-18 23 -18 66q0 24 5.5 43t13 29t16 17t13.5 9.5t6 2.5l5 2q52 -26 110 -26q42 0 56 5l4 1q53 -27 98 -28q32 14 62 14q11 0 21 -1.5t18 -4.5t15 -6t12 -6.5t8.5 -6 t6 -4.5l2.5 -2l5 -5q-13 -39 -13 -84t20 -94l2 -3q-8 -32 -8 -73q0 -61 27 -119l2 -3q-13 -33 -13 -80q0 -52 28 -108l-2 -5q0 -4 -8 -16t-35.5 -27.5t-67.5 -15.5q-38 0 -63 18q-47 -6 -87 -25l-3 -2l-3 1q-8 0 -23 1t-23 1q-91 0 -156 -34l-5 -2l-4 1l-2.5 1l-5 2t-7 3.5 t-8 5t-8.5 6.5t-9 8.5t-8 10.5t-7 12.5t-5.5 14.5t-3.5 17q-16 8 -27 21t-14 20t-3 9zM198 162q74 9 96 24l4 2q32 -8 69 -8q22 0 43 3q-4 26 -15 62l-1 6q6 33 6 64q0 68 -28 124q1 7 5 24.5t6.5 29.5t2.5 24q-18 2 -26 2q-23 0 -57 -8q-12 2 -57 13q-1 -10 -1 -28t5 -46 v-4l-1 -3q-27 -63 -27 -114q0 -32 9 -68q-31 -61 -33 -99zM278 793q62 65 101 157h6q3 1 9 1q32 0 57.5 -23t27.5 -54l1 -6l-5 -3q-33 -26 -56 -55.5t-48 -71.5l-2 -4l-6 -1q-1 0 -4.5 -0.5t-5.5 -0.5q-26 0 -46.5 15.5t-26.5 39.5z" />
<glyph unicode="&#xd4;" d="M8 111l2 4q13 24 20.5 41.5t11.5 37t4 41.5q0 19 -3 45l1 6q25 60 25 110q0 29 -8 69l2 3q24 46 30 77q-18 23 -18 66q0 24 5.5 43t13 29t16 17t13.5 9.5t6 2.5l5 2q52 -26 110 -26q42 0 56 5l4 1q53 -27 98 -28q32 14 62 14q11 0 21 -1.5t18 -4.5t15 -6t12 -6.5t8.5 -6 t6 -4.5l2.5 -2l5 -5q-13 -39 -13 -84t20 -94l2 -3q-8 -32 -8 -73q0 -61 27 -119l2 -3q-13 -33 -13 -80q0 -52 28 -108l-2 -5q0 -4 -8 -16t-35.5 -27.5t-67.5 -15.5q-38 0 -63 18q-47 -6 -87 -25l-3 -2l-3 1q-8 0 -23 1t-23 1q-91 0 -156 -34l-5 -2l-4 1l-2.5 1l-5 2t-7 3.5 t-8 5t-8.5 6.5t-9 8.5t-8 10.5t-7 12.5t-5.5 14.5t-3.5 17q-16 8 -27 21t-14 20t-3 9zM169 809v4q62 62 100 157q28 7 32 7q14 0 28 -6q4 1 11 1q18 0 40 -11l1 -4q36 -95 93 -150l3 -4v-5q-2 -22 -14 -38.5t-29 -25t-34 -8.5q-15 0 -35 10l-1 4q-18 49 -43 91 q-29 -40 -49 -90l-5 -5q-14 -7 -26 -7q-30 0 -51 24t-21 56zM198 162q74 9 96 24l4 2q32 -8 69 -8q22 0 43 3q-4 26 -15 62l-1 6q6 33 6 64q0 68 -28 124q1 7 5 24.5t6.5 29.5t2.5 24q-18 2 -26 2q-23 0 -57 -8q-12 2 -57 13q-1 -10 -1 -28t5 -46v-4l-1 -3q-27 -63 -27 -114 q0 -32 9 -68q-31 -61 -33 -99z" />
<glyph unicode="&#xd5;" d="M8 111l2 4q13 24 20.5 41.5t11.5 37t4 41.5q0 19 -3 45l1 6q25 60 25 110q0 29 -8 69l2 3q24 46 30 77q-18 23 -18 66q0 24 5.5 43t13 29t16 17t13.5 9.5t6 2.5l5 2q52 -26 110 -26q42 0 56 5l4 1q53 -27 98 -28q32 14 62 14q11 0 21 -1.5t18 -4.5t15 -6t12 -6.5t8.5 -6 t6 -4.5l2.5 -2l5 -5q-13 -39 -13 -84t20 -94l2 -3q-8 -32 -8 -73q0 -61 27 -119l2 -3q-13 -33 -13 -80q0 -52 28 -108l-2 -5q0 -4 -8 -16t-35.5 -27.5t-67.5 -15.5q-38 0 -63 18q-47 -6 -87 -25l-3 -2l-3 1q-8 0 -23 1t-23 1q-91 0 -156 -34l-5 -2l-4 1l-2.5 1l-5 2t-7 3.5 t-8 5t-8.5 6.5t-9 8.5t-8 10.5t-7 12.5t-5.5 14.5t-3.5 17q-16 8 -27 21t-14 20t-3 9zM139 813v4q66 66 102 156q12 6 32 6q16 0 29 -6q3 1 10 1q18 0 36 -9l5 -6q18 -50 40 -86q33 58 41 99q25 10 38 10q15 0 28.5 -5.5t24 -15t17 -22t7.5 -25.5v-5l-3 -3q-62 -71 -91 -161 l-5 -6q-12 -8 -31 -8q-12 0 -21 3q-15 -6 -30 -6q-14 0 -34 10l-1 4q-17 49 -42 92q-27 -37 -50 -89l-5 -6q-12 -6 -25 -6q-32 0 -52 24t-20 56zM198 162q74 9 96 24l4 2q32 -8 69 -8q22 0 43 3q-4 26 -15 62l-1 6q6 33 6 64q0 68 -28 124q1 7 5 24.5t6.5 29.5t2.5 24 q-18 2 -26 2q-23 0 -57 -8q-12 2 -57 13q-1 -10 -1 -28t5 -46v-4l-1 -3q-27 -63 -27 -114q0 -32 9 -68q-31 -61 -33 -99z" />
<glyph unicode="&#xd6;" d="M8 111l2 4q13 24 20.5 41.5t11.5 37t4 41.5q0 19 -3 45l1 6q25 60 25 110q0 29 -8 69l2 3q24 46 30 77q-18 23 -18 66q0 24 5.5 43t13 29t16 17t13.5 9.5t6 2.5l5 2q52 -26 110 -26q42 0 56 5l4 1q53 -27 98 -28q32 14 62 14q11 0 21 -1.5t18 -4.5t15 -6t12 -6.5t8.5 -6 t6 -4.5l2.5 -2l5 -5q-13 -39 -13 -84t20 -94l2 -3q-8 -32 -8 -73q0 -61 27 -119l2 -3q-13 -33 -13 -80q0 -52 28 -108l-2 -5q0 -4 -8 -16t-35.5 -27.5t-67.5 -15.5q-38 0 -63 18q-47 -6 -87 -25l-3 -2l-3 1q-8 0 -23 1t-23 1q-91 0 -156 -34l-5 -2l-4 1l-2.5 1l-5 2t-7 3.5 t-8 5t-8.5 6.5t-9 8.5t-8 10.5t-7 12.5t-5.5 14.5t-3.5 17q-16 8 -27 21t-14 20t-3 9zM127 870q35 35 94 35q47 0 67 -20l6 -5q-16 -37 -16 -73q0 -15 3 -30q-28 -28 -72 -28q-26 0 -60 17q2 16 2 25q0 37 -24 79zM198 162q74 9 96 24l4 2q32 -8 69 -8q22 0 43 3 q-4 26 -15 62l-1 6q6 33 6 64q0 68 -28 124q1 7 5 24.5t6.5 29.5t2.5 24q-18 2 -26 2q-23 0 -57 -8q-12 2 -57 13q-1 -10 -1 -28t5 -46v-4l-1 -3q-27 -63 -27 -114q0 -32 9 -68q-31 -61 -33 -99zM319 877l6 4q29 23 70 23q50 0 83 -33l-3 -8q-21 -42 -21 -79v-15 q-22 -18 -57 -18q-39 0 -72 26q2 12 2 32q0 12 -8 68z" />
<glyph unicode="&#xd7;" horiz-adv-x="422" d="M27 395q0 41 35 78q36 37 76 37q7 0 13 -1t9.5 -2l3.5 -1l4 -2q25 -49 51 -73q25 26 45 61l2 5l5 2l3 1t9 2t13 1q38 0 70 -33q30 -30 30 -66q0 -5 -0.5 -10t-1.5 -8.5t-2 -6.5l-1.5 -4.5l-0.5 -1.5l-2 -4q-31 -12 -71 -44q22 -25 68 -47l5 -3l1 -6l0.5 -1.5t0.5 -3.5v-5 q0 -41 -34 -77q-36 -38 -85 -38h-6l-6 1q-3 5 -8.5 14.5t-8.5 14t-7 11.5t-7 11t-7 9t-8 9t-8 7q-39 -36 -59 -71l-4 -5q-12 -2 -15 -2q-39 0 -70 32q-31 31 -31 74q0 5 1 11v1l2 6q36 18 75 52q-31 29 -73 46l-2 5q-4 4 -4 25z" />
<glyph unicode="&#xd8;" d="M8 111l2 4q13 24 20.5 41.5t11.5 37t4 41.5q0 19 -3 45l1 6q25 60 25 110q0 29 -8 69q23 34 32 80q-18 23 -18 66q0 24 5.5 43t13 29t16 17t13.5 9.5t6 2.5l5 2q52 -26 110 -26q42 0 56 5l4 1q56 -28 107 -28h4q0 2 1 3l2 7l6 3l2 1t5.5 2.5t8 2.5t11 2t12.5 1 q74 0 96 -73q5 -16 5 -22l1 -7l-6 -5l-19 -21q0 -47 19 -94l2 -3q-8 -32 -8 -73q0 -60 27 -119l2 -3q-13 -33 -13 -80q0 -52 28 -108l-2 -5q0 -1 -2.5 -6.5t-10.5 -14.5t-19.5 -17.5t-32.5 -14.5t-46 -6q-38 0 -63 18q-47 -6 -87 -25l-3 -2l-3 1q-8 0 -23 1t-23 1 q-27 0 -62 -5l-4 -16l-1 -5q-22 -22 -58 -22q-23 0 -41 7.5t-29 19t-18.5 25t-10 24t-2.5 17.5q-41 20 -48 56zM222 320q52 73 74 153l1 5q15 11 38 39q-16 -2 -32 -6q-12 2 -57 13q-1 -10 -1 -28t5 -46v-4l-1 -3q-27 -66 -27 -113v-10zM325 183q21 -3 42 -3q22 0 43 3 q-4 26 -15 62l-1 6q6 33 6 63q0 15 -1 22q-51 -75 -65 -144z" />
<glyph unicode="&#xd9;" horiz-adv-x="583" d="M10 99q33 66 33 120q0 21 -5 56v6q21 58 21 108q0 32 -11 76q32 64 32 129q0 38 -10 73l5 5.5t10.5 9t15 8.5t23.5 7.5t31 2.5q64 0 101 -45v-1l4 -6q-29 -58 -29 -129q0 -29 6 -59v-7q-23 -66 -23 -113q0 -34 10 -70v-8q-26 -56 -26 -102q11 3 34.5 11.5t37.5 12.5 q32 -4 45 -4q33 0 63 9q-2 11 -7 32.5t-7 32.5q7 34 7 72q0 62 -23 122v8q14 42 14 89q0 65 -22 109l4 6q5 7 12.5 13.5t31.5 16.5t54 10q52 0 84 -32l5 -5q-14 -49 -14 -92q0 -50 18 -98v-7q-9 -42 -9 -79q0 -70 26 -122q-13 -52 -13 -87q0 -68 27 -122l-2 -5l-1 -2 q-1 -2 -3 -5l-5 -7.5t-7.5 -9t-10.5 -9t-14 -8.5t-17.5 -7t-22 -5t-26.5 -2q-59 0 -85 37q-30 -9 -59 -25l-6 -1q-41 0 -64 -1.5t-54 -9.5t-57 -24l-4 -3l-5 1q-1 0 -6 2t-9.5 4.5t-12 8t-13.5 13t-13 20t-12 28.5q-16 8 -27.5 19.5t-15 19t-3.5 9.5zM168 878l2 6 q9 27 37.5 44.5t61.5 17.5q16 0 28 -3l1 -8q6 -78 51 -151l2 -4q-7 -26 -27.5 -40t-46.5 -14q-6 0 -21 3q-33 82 -84 145z" />
<glyph unicode="&#xda;" horiz-adv-x="583" d="M10 99q33 66 33 120q0 21 -5 56v6q21 58 21 108q0 32 -11 76q32 64 32 129q0 38 -10 73l5 5.5t10.5 9t15 8.5t23.5 7.5t31 2.5q64 0 101 -45v-1l4 -6q-29 -58 -29 -129q0 -29 6 -59v-7q-23 -66 -23 -113q0 -34 10 -70v-8q-26 -56 -26 -102q11 3 34.5 11.5t37.5 12.5 q32 -4 45 -4q33 0 63 9q-2 11 -7 32.5t-7 32.5q7 34 7 72q0 62 -23 122v8q14 42 14 89q0 65 -22 109l4 6q5 7 12.5 13.5t31.5 16.5t54 10q52 0 84 -32l5 -5q-14 -49 -14 -92q0 -50 18 -98v-7q-9 -42 -9 -79q0 -70 26 -122q-13 -52 -13 -87q0 -68 27 -122l-2 -5l-1 -2 q-1 -2 -3 -5l-5 -7.5t-7.5 -9t-10.5 -9t-14 -8.5t-17.5 -7t-22 -5t-26.5 -2q-59 0 -85 37q-30 -9 -59 -25l-6 -1q-41 0 -64 -1.5t-54 -9.5t-57 -24l-4 -3l-5 1q-1 0 -6 2t-9.5 4.5t-12 8t-13.5 13t-13 20t-12 28.5q-16 8 -27.5 19.5t-15 19t-3.5 9.5zM236 793q62 65 101 157 h6q3 1 9 1q32 0 57.5 -23t27.5 -54l1 -6l-5 -3q-33 -26 -56 -55.5t-48 -71.5l-2 -4l-6 -1q-1 0 -4.5 -0.5t-5.5 -0.5q-26 0 -46.5 15.5t-26.5 39.5z" />
<glyph unicode="&#xdb;" horiz-adv-x="583" d="M10 99q33 66 33 120q0 21 -5 56v6q21 58 21 108q0 32 -11 76q32 64 32 129q0 38 -10 73l5 5.5t10.5 9t15 8.5t23.5 7.5t31 2.5q64 0 101 -45v-1l4 -6q-29 -58 -29 -129q0 -29 6 -59v-7q-23 -66 -23 -113q0 -34 10 -70v-8q-26 -56 -26 -102q11 3 34.5 11.5t37.5 12.5 q32 -4 45 -4q33 0 63 9q-2 11 -7 32.5t-7 32.5q7 34 7 72q0 62 -23 122v8q14 42 14 89q0 65 -22 109l4 6q5 7 12.5 13.5t31.5 16.5t54 10q52 0 84 -32l5 -5q-14 -49 -14 -92q0 -50 18 -98v-7q-9 -42 -9 -79q0 -70 26 -122q-13 -52 -13 -87q0 -68 27 -122l-2 -5l-1 -2 q-1 -2 -3 -5l-5 -7.5t-7.5 -9t-10.5 -9t-14 -8.5t-17.5 -7t-22 -5t-26.5 -2q-59 0 -85 37q-30 -9 -59 -25l-6 -1q-41 0 -64 -1.5t-54 -9.5t-57 -24l-4 -3l-5 1q-1 0 -6 2t-9.5 4.5t-12 8t-13.5 13t-13 20t-12 28.5q-16 8 -27.5 19.5t-15 19t-3.5 9.5zM134 812v4 q62 62 100 157q28 7 32 7q15 0 28 -6q4 1 11 1q18 0 40 -11l1 -4q36 -95 93 -150l3 -4v-5q-2 -22 -14 -38.5t-29 -25t-34 -8.5q-15 0 -35 10l-1 4q-18 49 -43 91q-29 -40 -49 -90l-5 -5q-14 -7 -26 -7q-30 0 -51 24t-21 56z" />
<glyph unicode="&#xdc;" horiz-adv-x="583" d="M10 99q33 66 33 120q0 21 -5 56v6q21 58 21 108q0 32 -11 76q32 64 32 129q0 38 -10 73l5 5.5t10.5 9t15 8.5t23.5 7.5t31 2.5q64 0 101 -45v-1l4 -6q-29 -58 -29 -129q0 -29 6 -59v-7q-23 -66 -23 -113q0 -34 10 -70v-8q-26 -56 -26 -102q11 3 34.5 11.5t37.5 12.5 q32 -4 45 -4q33 0 63 9q-2 11 -7 32.5t-7 32.5q7 34 7 72q0 62 -23 122v8q14 42 14 89q0 65 -22 109l4 6q5 7 12.5 13.5t31.5 16.5t54 10q52 0 84 -32l5 -5q-14 -49 -14 -92q0 -50 18 -98v-7q-9 -42 -9 -79q0 -70 26 -122q-13 -52 -13 -87q0 -68 27 -122l-2 -5l-1 -2 q-1 -2 -3 -5l-5 -7.5t-7.5 -9t-10.5 -9t-14 -8.5t-17.5 -7t-22 -5t-26.5 -2q-59 0 -85 37q-30 -9 -59 -25l-6 -1q-41 0 -64 -1.5t-54 -9.5t-57 -24l-4 -3l-5 1q-1 0 -6 2t-9.5 4.5t-12 8t-13.5 13t-13 20t-12 28.5q-16 8 -27.5 19.5t-15 19t-3.5 9.5zM112 870q35 35 94 35 q47 0 67 -20l6 -5q-16 -37 -16 -73q0 -15 3 -30q-28 -28 -72 -28q-26 0 -60 17q2 16 2 25q0 37 -24 79zM304 877l6 4q29 23 70 23q50 0 83 -33l-3 -8q-21 -42 -21 -79v-15q-22 -18 -57 -18q-39 0 -72 26q2 12 2 32q0 12 -8 68z" />
<glyph unicode="&#xdd;" horiz-adv-x="485" d="M-24 565v6l0.5 2.5t2.5 9t5 14t8 16.5t11 18t15.5 17.5t20.5 14.5t25.5 10t31.5 4q6 0 11.5 -1t8.5 -1.5l3 -0.5l6 -2q33 -100 108 -155q4 -6 10 -20.5t10 -21.5q0 1 0.5 3t0.5 4v4q73 73 84 178v7l6 3.5t9 4.5t12 2.5t21 1.5q86 0 125 -83l1 -6l-4 -5q-67 -76 -76 -167 v-3l-3 -3q-68 -87 -74 -184v-4l-3 -3q-71 -80 -77 -186v-5l-4 -3.5t-8 -6t-10.5 -6t-16 -5t-21.5 -1.5q-26 0 -54 12q-20 8 -35 19.5t-21.5 21.5t-10 21t-4 15t-0.5 7l4 9q68 70 86 178v1q-41 72 -87 103l-1 5q-30 98 -111 157zM193 745q62 65 101 157h6q3 1 9 1 q32 0 57.5 -23t27.5 -54l1 -6l-5 -3q-33 -26 -56 -55.5t-48 -71.5l-2 -4l-6 -1q-2 0 -5.5 -0.5t-4.5 -0.5q-26 0 -46.5 15.5t-26.5 39.5z" />
<glyph unicode="&#xde;" horiz-adv-x="521" d="M28 43q24 48 24 118q0 43 -10 84v6q13 52 13 94q0 37 -17 105q23 46 23 111q0 46 -15 91l1 2q29 38 92 38q28 0 51 -10t31.5 -18.5t10.5 -11.5l5 -5q-9 -19 -16 -52q39 -24 106 -37q1 0 5 -0.5t5 -0.5h4l4 -3q40 -34 75.5 -49t85.5 -18h6q15 -25 15 -54q0 -18 -8 -42 t-17 -36q9 -22 9 -43q0 -4 -3 -25l-6 -2q-93 -41 -143 -114l-6 -5q-84 -43 -133 -103q3 -9 9 -24q-26 -52 -102 -52q-22 0 -39.5 5t-28 12t-17.5 15t-9.5 13t-2.5 6zM212 349q0 -40 9 -76q4 4 19 24l4 1q64 24 111 71q-30 10 -67 13q-11 6 -34.5 19.5t-34.5 18.5 q-7 -34 -7 -71z" />
<glyph unicode="&#xdf;" horiz-adv-x="885" d="M2 86q0 12 2 22.5t5.5 18t7.5 13.5t8.5 10t7.5 6.5t7 5l4 2.5q35 -7 52 -7q4 0 7.5 0.5t6.5 0.5t7 1t6.5 1.5t8 2t8 2t9 3t9.5 3.5t11.5 4t12.5 4l4 2q19 -5 45 -7q-8 12 -31 37l-3 5q-13 49 -34 83.5t-56 66.5l-4 3v4q-17 99 -89 166l-4 4v6v1.5t1 4t2 5.5t3 7.5t4 8.5 t6 9l8 10q-1 3 -1 9q0 56 42 77q35 -7 51 -7q41 0 91 25q32 -8 62 -8q40 0 98 29l6 -3l1.5 -1t4 -2.5t5.5 -4t6 -6t7 -8t7.5 -10t6.5 -12t5.5 -14.5t3.5 -17q2 -14 2 -21q0 -6 -0.5 -12.5t-2 -11.5l-3 -10t-3.5 -9l-4 -8l-3.5 -7t-3.5 -5.5t-3 -4t-2 -2.5l-1 -1l-5 -4 q-42 6 -60 6q-35 0 -87 -24l-3 -2l-4 1q-9 0 -22 0.5t-18 0.5q20 -34 49 -60l3 -5q14 -54 34.5 -89t56.5 -65l4 -7q10 -52 28.5 -84.5t57.5 -65.5l3 -3l1 -5q0 -51 -53 -86q-4 -9 -7.5 -14.5t-8 -9.5t-5.5 -6q-42 6 -61 6q-35 0 -86 -24l-7 -1q-9 0 -25 1t-21 1 q-47 0 -99 -31q-5 1 -9 2.5t-16.5 9t-21 18t-15.5 30.5t-7 46zM444 86q0 12 2 22.5t5.5 18t7.5 13.5t8.5 10t7.5 6.5t7 5l4 2.5q35 -7 52 -7q4 0 7.5 0.5t6.5 0.5t7 1t6.5 1.5t8 2t8 2t9 3t9.5 3.5t11.5 4t12.5 4l4 2q19 -5 45 -7q-8 12 -31 37l-3 5q-13 49 -34 83.5 t-56 66.5l-4 3v4q-17 99 -89 166l-4 4v6v1t0.5 2.5t1 3.5t1.5 5t2.5 6t3 6.5t4 6.5t5.5 7l6 8q-1 3 -1 9q0 56 42 77q35 -7 51 -7q41 0 91 25q32 -8 62 -8q40 0 98 29l6 -3l1.5 -1t4 -2.5t5.5 -4t6 -6t7 -8t7.5 -10t6.5 -12t5.5 -14.5t3.5 -17q2 -14 2 -21q0 -9 -1.5 -17.5 t-3.5 -15.5t-5 -13t-5.5 -10.5t-5 -7.5t-4 -5l-1.5 -2l-5 -4q-42 6 -60 6q-35 0 -87 -24l-3 -2l-4 1q-9 0 -22 0.5t-18 0.5q20 -34 49 -60l3 -5q14 -54 34.5 -89t56.5 -65l4 -7q10 -52 28.5 -84.5t57.5 -65.5l3 -3l1 -5q0 -51 -53 -86q-4 -9 -7.5 -14.5t-8 -9.5t-5.5 -6 q-42 6 -61 6q-35 0 -86 -24l-7 -1q-9 0 -25 1t-21 1q-47 0 -99 -31q-5 1 -9 2.5t-16.5 9t-21 18t-15.5 30.5t-7 46z" />
<glyph unicode="&#xe0;" horiz-adv-x="508" d="M-4 79q52 69 52 179v17l2 6q37 74 37 152q0 29 -3 44q50 67 50 159q0 10 -2 32v6q24 24 70 24q72 0 112 -60l3 -6l-3 -6q-2 -2 -2 -3h7q8 0 15.5 -0.5t13 -1.5t9.5 -2t6.5 -1.5l2.5 -0.5l6 -4q-2 -14 -2 -30q0 -86 41 -159l2 -6v-13q0 -58 10 -93q19 7 42 21l6 -2l1.5 -1 t4 -2.5t5.5 -4t6.5 -6t7 -7.5t7.5 -10t7.5 -12.5t6.5 -15t5 -17.5q3 -17 3 -30q0 -42 -24 -72q-14 2 -34 2q13 -47 45 -98l-6 -7q-29 -29 -77 -40q-20 -5 -36 -5q-10 0 -19 1.5t-15.5 3t-11.5 3.5t-8 3l-3 2l-7 4l1 8q0 4 0.5 12t0.5 12q0 34 -6 67q-2 -2 -3 -2l-7 -2 q-73 0 -127 -18v-15q0 -27 4 -47q-26 -35 -79 -35q-29 0 -51.5 7.5t-34.5 18t-19 21.5t-9 19l-2 7zM123 880l2 6q9 27 37.5 44.5t61.5 17.5q16 0 28 -3l1 -8q6 -78 51 -151l2 -4q-4 -18 -16 -30.5t-26.5 -18t-31.5 -5.5q-6 0 -21 3q-33 82 -84 145zM230 275q5 2 21.5 9 t26.5 10q8 -2 13 -2q-10 38 -32 88l-7 23q-22 -57 -22 -115v-13z" />
<glyph unicode="&#xe1;" horiz-adv-x="508" d="M-4 79q52 69 52 179v17l2 6q37 74 37 152q0 29 -3 44q50 67 50 159q0 10 -2 32v6q24 24 70 24q72 0 112 -60l3 -6l-3 -6q-2 -2 -2 -3h7q8 0 15.5 -0.5t13 -1.5t9.5 -2t6.5 -1.5l2.5 -0.5l6 -4q-2 -14 -2 -30q0 -86 41 -159l2 -6v-13q0 -58 10 -93q19 7 42 21l6 -2l1.5 -1 t4 -2.5t5.5 -4t6.5 -6t7 -7.5t7.5 -10t7.5 -12.5t6.5 -15t5 -17.5q3 -17 3 -30q0 -42 -24 -72q-14 2 -34 2q13 -47 45 -98l-6 -7q-29 -29 -77 -40q-20 -5 -36 -5q-10 0 -19 1.5t-15.5 3t-11.5 3.5t-8 3l-3 2l-7 4l1 8q0 4 0.5 12t0.5 12q0 34 -6 67q-2 -2 -3 -2l-7 -2 q-73 0 -127 -18v-15q0 -27 4 -47q-26 -35 -79 -35q-29 0 -51.5 7.5t-34.5 18t-19 21.5t-9 19l-2 7zM230 275q5 2 21.5 9t26.5 10q8 -2 13 -2q-10 38 -32 88l-7 23q-22 -57 -22 -115v-13zM231 786q62 65 101 157h6q3 1 9 1q32 0 57.5 -23t27.5 -54l1 -6l-5 -3 q-52 -40 -104 -127l-2 -4l-6 -1q-2 0 -5 -0.5t-5 -0.5q-26 0 -46.5 15.5t-26.5 39.5z" />
<glyph unicode="&#xe2;" horiz-adv-x="508" d="M-4 79q52 69 52 179v17l2 6q37 74 37 152q0 29 -3 44q50 67 50 159q0 10 -2 32v6q24 24 70 24q72 0 112 -60l3 -6l-3 -6q-2 -2 -2 -3h7q8 0 15.5 -0.5t13 -1.5t9.5 -2t6.5 -1.5l2.5 -0.5l6 -4q-2 -14 -2 -30q0 -86 41 -159l2 -6v-13q0 -58 10 -93q19 7 42 21l6 -2l1.5 -1 t4 -2.5t5.5 -4t6.5 -6t7 -7.5t7.5 -10t7.5 -12.5t6.5 -15t5 -17.5q3 -17 3 -30q0 -42 -24 -72q-14 2 -34 2q13 -47 45 -98l-6 -7q-29 -29 -77 -40q-20 -5 -36 -5q-10 0 -19 1.5t-15.5 3t-11.5 3.5t-8 3l-3 2l-7 4l1 8q0 4 0.5 12t0.5 12q0 34 -6 67q-2 -2 -3 -2l-7 -2 q-73 0 -127 -18v-15q0 -27 4 -47q-26 -35 -79 -35q-29 0 -51.5 7.5t-34.5 18t-19 21.5t-9 19l-2 7zM106 809v4q62 62 100 157q28 7 32 7q14 0 28 -6q4 1 11 1q18 0 40 -11l1 -4q36 -95 93 -150l3 -4v-5q-3 -32 -26.5 -52t-50.5 -20q-15 0 -35 10l-1 4q-18 49 -43 91 q-29 -40 -49 -90l-5 -5q-14 -7 -26 -7q-30 0 -51 24t-21 56zM230 275q5 2 21.5 9t26.5 10q8 -2 13 -2q-10 38 -32 88l-7 23q-22 -57 -22 -115v-13z" />
<glyph unicode="&#xe3;" horiz-adv-x="508" d="M-4 79q52 69 52 179v17l2 6q37 74 37 152q0 29 -3 44q50 67 50 159q0 10 -2 32v6q24 24 70 24q72 0 112 -60l3 -6l-3 -6q-2 -2 -2 -3h7q8 0 15.5 -0.5t13 -1.5t9.5 -2t6.5 -1.5l2.5 -0.5l6 -4q-2 -14 -2 -30q0 -86 41 -159l2 -6v-13q0 -58 10 -93q19 7 42 21l6 -2l1.5 -1 t4 -2.5t5.5 -4t6.5 -6t7 -7.5t7.5 -10t7.5 -12.5t6.5 -15t5 -17.5q3 -17 3 -30q0 -42 -24 -72q-14 2 -34 2q13 -47 45 -98l-6 -7q-29 -29 -77 -40q-20 -5 -36 -5q-10 0 -19 1.5t-15.5 3t-11.5 3.5t-8 3l-3 2l-7 4l1 8q0 4 0.5 12t0.5 12q0 34 -6 67q-2 -2 -3 -2l-7 -2 q-73 0 -127 -18v-15q0 -27 4 -47q-26 -35 -79 -35q-29 0 -51.5 7.5t-34.5 18t-19 21.5t-9 19l-2 7zM65 804v4q66 66 102 156q12 6 32 6q16 0 29 -6q3 1 10 1q18 0 36 -9l5 -6q18 -50 40 -86q33 58 41 99q25 10 38 10q30 0 52.5 -20.5t24.5 -47.5v-5l-3 -3q-62 -71 -91 -161 l-5 -6q-12 -8 -31 -8q-12 0 -21 3q-15 -6 -30 -6q-14 0 -34 10l-1 4q-17 49 -42 92q-27 -37 -50 -89l-5 -6q-12 -6 -25 -6q-32 0 -52 24t-20 56zM230 275q5 2 21.5 9t26.5 10q8 -2 13 -2q-10 38 -32 88l-7 23q-22 -57 -22 -115v-13z" />
<glyph unicode="&#xe4;" horiz-adv-x="508" d="M-4 79q52 69 52 179v17l2 6q37 74 37 152q0 29 -3 44q50 67 50 159q0 10 -2 32v6q24 24 70 24q72 0 112 -60l3 -6l-3 -6q-2 -2 -2 -3h7q8 0 15.5 -0.5t13 -1.5t9.5 -2t6.5 -1.5l2.5 -0.5l6 -4q-2 -14 -2 -30q0 -86 41 -159l2 -6v-13q0 -58 10 -93q19 7 42 21l6 -2l1.5 -1 t4 -2.5t5.5 -4t6.5 -6t7 -7.5t7.5 -10t7.5 -12.5t6.5 -15t5 -17.5q3 -17 3 -30q0 -42 -24 -72q-14 2 -34 2q13 -47 45 -98l-6 -7q-29 -29 -77 -40q-20 -5 -36 -5q-10 0 -19 1.5t-15.5 3t-11.5 3.5t-8 3l-3 2l-7 4l1 8q0 4 0.5 12t0.5 12q0 34 -6 67q-2 -2 -3 -2l-7 -2 q-73 0 -127 -18v-15q0 -27 4 -47q-26 -35 -79 -35q-29 0 -51.5 7.5t-34.5 18t-19 21.5t-9 19l-2 7zM85 858q35 35 94 35q47 0 67 -20l6 -5q-16 -37 -16 -73q0 -15 3 -30q-28 -28 -72 -28q-26 0 -60 17q2 16 2 25q0 37 -24 79zM230 275q6 2 15 6t17 7.5t16 5.5q8 -2 13 -2 q-10 38 -32 88l-7 23q-22 -57 -22 -115v-13zM277 865l6 4q29 23 70 23q50 0 83 -33l-3 -8q-21 -42 -21 -79v-15q-22 -18 -57 -18q-39 0 -72 26q2 12 2 32q0 12 -8 68z" />
<glyph unicode="&#xe5;" horiz-adv-x="508" d="M-4 79q52 69 52 179v17l2 6q37 74 37 152q0 29 -3 44q50 67 50 159q0 10 -2 32v6q24 24 70 24q72 0 112 -60l3 -6l-3 -6q-2 -2 -2 -3h7q8 0 15.5 -0.5t13 -1.5t9.5 -2t6.5 -1.5l2.5 -0.5l6 -4q-2 -14 -2 -30q0 -86 41 -159l2 -6v-13q0 -58 10 -93q19 7 42 21l6 -2l1.5 -1 t4 -2.5t5.5 -4t6.5 -6t7 -7.5t7.5 -10t7.5 -12.5t6.5 -15t5 -17.5q3 -17 3 -30q0 -42 -24 -72q-14 2 -34 2q13 -47 45 -98l-6 -7q-29 -29 -77 -40q-20 -5 -36 -5q-10 0 -19 1.5t-15.5 3t-11.5 3.5t-8 3l-3 2l-7 4l1 8q0 4 0.5 12t0.5 12q0 34 -6 67q-2 -2 -3 -2l-7 -2 q-73 0 -127 -18v-15q0 -27 4 -47q-26 -35 -79 -35q-29 0 -51.5 7.5t-34.5 18t-19 21.5t-9 19l-2 7zM106 862l5 5q53 47 84 122l3 6q12 2 17 2q28 0 55 -20q23 17 53 17q12 0 24 -5l2 -5q22 -71 64 -123l2 -3v-3q0 -33 -24 -54q2 -7 2 -23q-2 -41 -37 -59q-44 11 -101 11 q-56 0 -92 -9q-33 17 -33 60q0 14 6 29q-25 20 -30 52zM230 275q5 2 21.5 9t26.5 10q8 -2 13 -2q-10 38 -32 88l-7 23q-22 -57 -22 -115v-13zM231 838h29q25 0 37 1q-12 23 -29 47q-19 -21 -37 -48z" />
<glyph unicode="&#xe6;" horiz-adv-x="798" d="M-21 113v5l4 3q72 65 96 173l2 6q70 81 82 177l4 7q73 69 91 176l6 3l2 0.5t5 1.5l7.5 2.5t10.5 2t12 0.5q29 0 54 -11l-1 3l1 2l9.5 9.5t15 12t28 12t39.5 4.5q44 0 75 -23q44 5 65 15q64 -16 79 -16q25 0 85 20l5 -3h1q35 -28 39 -83v-9q0 -56 -38 -86q-45 13 -78 13 q-28 0 -73 -15l-6 -1q-43 8 -77 8q4 -32 11 -54v-7q-4 -13 -8 -35q27 -7 53 -7q38 0 83 15l2.5 -2t4 -3t5 -4t5.5 -6t5.5 -7.5t5.5 -9t4.5 -11t4 -13t2.5 -15.5t1 -18q0 -50 -39 -89l-6 -4q-60 20 -95 20q-15 0 -30 -3l3 -6v-8q-11 -31 -16 -66q12 3 26 5t24 3t11 1 q50 -25 91 -25q33 0 72 13l5 -4q32 -32 32 -86q0 -28 -11.5 -50.5t-19.5 -29t-16 -11.5q-66 22 -91 22q-23 0 -59 -9h-6q-9 2 -26.5 6t-27.5 6q-27 -34 -89 -34q-22 0 -39.5 5t-28 12.5t-17.5 15.5t-9.5 13t-2.5 6l-2 4q20 50 23 98q-30 3 -62 3q-71 0 -103 -13l-2 1 q-26 -51 -32 -108l-1 -5q-24 -18 -54 -18q-29 0 -60 15q-66 31 -66 88zM270 299q36 -6 76 -6h11q6 31 6 62q0 49 -15 96q-8 -27 -10 -44l-3 -6q-43 -48 -65 -102z" />
<glyph unicode="&#xe7;" horiz-adv-x="515" d="M8 111l2 4q13 24 20.5 41.5t11.5 37t4 41.5q0 20 -3 45l1 6q25 60 25 110q0 29 -8 69l2 3q24 46 30 77q-18 23 -18 66q0 24 5.5 43t13 29t16 17t13.5 9.5t6 2.5l5 2q52 -26 110 -26q42 0 56 5l4 1q56 -28 105 -28q9 0 69 10l3 -2.5t5 -4.5t5 -6.5t5.5 -8.5t5.5 -10.5 t5 -14t3 -17t1 -20.5v-8q-3 -56 -41 -87h-1l-6 -4l-6 2q-57 24 -97 24q-23 0 -57 -8q-12 2 -57 13q-1 -10 -1 -28t5 -46v-4l-1 -3q-27 -63 -27 -114q0 -32 9 -68q-31 -61 -33 -99q13 2 67 20q3 1 13 6q32 -8 64 -8q54 0 118 32l3 -1.5t4.5 -2.5t5 -3.5t6.5 -5t6.5 -7 t6.5 -8.5t6.5 -10t6 -12.5t5 -15t3.5 -17.5q1 -7 1 -20q0 -9 -1.5 -18.5t-3.5 -16.5t-5 -13l-5.5 -11t-5 -8.5t-4 -5.5l-1.5 -2l-5 -5q-21 7 -61 7q-27 0 -51 -6q-3 -16 -3 -46q0 -29 12 -89q-10 -12 -25 -20v-7q0 -10 -8 -34q-79 -11 -146 -54l-5 -4l-5 3q-21 8 -35 31 t-14 50q0 20 11 38q77 15 104 27q4 25 4 56q0 5 -0.5 14.5t-0.5 14.5q-72 -2 -134 -34l-5 -2l-4 1l-2.5 1l-5 2t-7 3.5t-8 5t-8.5 6.5t-9 8.5t-8 10.5t-7 12.5t-5.5 14.5t-3.5 17q-16 8 -27 21t-14 20t-3 9z" />
<glyph unicode="&#xe8;" horiz-adv-x="490" d="M28 52q24 60 24 118q0 42 -10 85v6q13 52 13 94q0 49 -16 100l-1 5q23 46 23 110q0 47 -15 92l1 2q29 38 92 38q44 0 75 -23q44 5 65 15l5 -1q47 -15 74 -15q25 0 85 20q41 -24 45 -86v-9q0 -56 -38 -86q-45 13 -78 13q-27 0 -72 -15l-7 -1q-43 8 -77 8q4 -32 11 -54v-7 q-4 -13 -8 -35q27 -7 53 -7q38 0 83 15l2 -1q38 -29 38 -88q0 -50 -39 -89l-5 -4q-70 20 -96 20q-15 0 -30 -3l5 -10q-12 -23 -18 -70q34 8 57 8l4 1q50 -25 91 -25q33 0 72 13l5 -4q32 -32 32 -86q0 -16 -4.5 -31t-10.5 -25t-11.5 -17t-10.5 -11l-4 -4l-6 -3q-66 22 -91 22 q-22 0 -58 -9h-7l-54 12q-29 -34 -89 -34q-22 0 -39.5 5t-28 12.5t-17.5 15.5t-9.5 13t-2.5 6zM136 894l2 6q9 27 37.5 44.5t61.5 17.5q16 0 28 -3l1 -8q6 -78 51 -151l2 -4q-4 -18 -16 -30.5t-26.5 -18t-31.5 -5.5q-6 0 -21 3q-33 82 -84 145z" />
<glyph unicode="&#xe9;" horiz-adv-x="490" d="M28 52q24 60 24 118q0 42 -10 85v6q13 52 13 94q0 49 -16 100l-1 5q23 46 23 110q0 47 -15 92l1 2q29 38 92 38q44 0 75 -23q44 5 65 15l5 -1q47 -15 74 -15q25 0 85 20q41 -24 45 -86v-9q0 -56 -38 -86q-45 13 -78 13q-27 0 -72 -15l-7 -1q-43 8 -77 8q4 -32 11 -54v-7 q-4 -13 -8 -35q27 -7 53 -7q38 0 83 15l2 -1q38 -29 38 -88q0 -50 -39 -89l-5 -4q-70 20 -96 20q-15 0 -30 -3l5 -10q-12 -23 -18 -70q34 8 57 8l4 1q50 -25 91 -25q33 0 72 13l5 -4q32 -32 32 -86q0 -16 -4.5 -31t-10.5 -25t-11.5 -17t-10.5 -11l-4 -4l-6 -3q-66 22 -91 22 q-22 0 -58 -9h-7l-54 12q-29 -34 -89 -34q-22 0 -39.5 5t-28 12.5t-17.5 15.5t-9.5 13t-2.5 6zM199 795q62 65 101 157h6q3 1 9 1q32 0 57.5 -23t27.5 -54l1 -6l-5 -3q-33 -26 -56 -55.5t-48 -71.5l-2 -4l-6 -1q-1 0 -4.5 -0.5t-5.5 -0.5q-26 0 -46.5 15.5t-26.5 39.5z" />
<glyph unicode="&#xea;" horiz-adv-x="490" d="M28 52q24 60 24 118q0 42 -10 85v6q13 52 13 94q0 49 -16 100l-1 5q23 46 23 110q0 47 -15 92l1 2q29 38 92 38q44 0 75 -23q44 5 65 15l5 -1q47 -15 74 -15q25 0 85 20q41 -24 45 -86v-9q0 -56 -38 -86q-45 13 -78 13q-27 0 -72 -15l-7 -1q-43 8 -77 8q4 -32 11 -54v-7 q-4 -13 -8 -35q27 -7 53 -7q38 0 83 15l2 -1q38 -29 38 -88q0 -50 -39 -89l-5 -4q-70 20 -96 20q-15 0 -30 -3l5 -10q-12 -23 -18 -70q34 8 57 8l4 1q50 -25 91 -25q33 0 72 13l5 -4q32 -32 32 -86q0 -16 -4.5 -31t-10.5 -25t-11.5 -17t-10.5 -11l-4 -4l-6 -3q-66 22 -91 22 q-22 0 -58 -9h-7l-54 12q-29 -34 -89 -34q-22 0 -39.5 5t-28 12.5t-17.5 15.5t-9.5 13t-2.5 6zM104 816v4q62 62 100 157q28 7 32 7q14 0 28 -6q4 1 11 1q18 0 40 -11l1 -4q36 -95 93 -150l3 -4v-5q-2 -22 -14 -38.5t-29 -25t-34 -8.5q-15 0 -35 10l-1 4q-18 49 -43 91 q-29 -40 -49 -90l-5 -5q-14 -7 -26 -7q-30 0 -51 24t-21 56z" />
<glyph unicode="&#xeb;" horiz-adv-x="490" d="M28 52q24 60 24 118q0 42 -10 85v6q13 52 13 94q0 49 -16 100l-1 5q23 46 23 110q0 47 -15 92l1 2q29 38 92 38q44 0 75 -23q44 5 65 15l5 -1q47 -15 74 -15q25 0 85 20q41 -24 45 -86v-9q0 -56 -38 -86q-45 13 -78 13q-27 0 -72 -15l-7 -1q-43 8 -77 8q4 -32 11 -54v-7 q-4 -13 -8 -35q27 -7 53 -7q38 0 83 15l2 -1q38 -29 38 -88q0 -50 -39 -89l-5 -4q-70 20 -96 20q-15 0 -30 -3l5 -10q-12 -23 -18 -70q34 8 57 8l4 1q50 -25 91 -25q33 0 72 13l5 -4q32 -32 32 -86q0 -16 -4.5 -31t-10.5 -25t-11.5 -17t-10.5 -11l-4 -4l-6 -3q-66 22 -91 22 q-22 0 -58 -9h-7l-54 12q-29 -34 -89 -34q-22 0 -39.5 5t-28 12.5t-17.5 15.5t-9.5 13t-2.5 6zM82 870q35 35 94 35q47 0 67 -20l6 -5q-16 -37 -16 -73q0 -15 3 -30q-28 -28 -72 -28q-26 0 -60 17q2 16 2 25q0 37 -24 79zM274 877l6 4q29 23 70 23q50 0 83 -33l-3 -8 q-21 -42 -21 -79v-15q-22 -18 -57 -18q-39 0 -72 26q2 12 2 32q0 12 -8 68z" />
<glyph unicode="&#xec;" horiz-adv-x="266" d="M-5 890l2 6q9 27 37.5 44.5t61.5 17.5q16 0 28 -3l1 -8q6 -78 51 -151l2 -4q-7 -26 -27.5 -40t-46.5 -14q-6 0 -21 3q-33 82 -84 145zM28 54q24 48 24 118q0 43 -10 84v6q13 52 13 94q0 37 -17 105q23 46 23 111q0 46 -15 91q32 40 93 40q28 0 51 -10t31.5 -18.5 t10.5 -11.5l5 -5l-3 -6q-18 -54 -18 -104q0 -43 11 -79v-7q-15 -54 -15 -102q0 -64 18 -100q-20 -40 -20 -105q0 -58 19 -105q-26 -52 -102 -52q-22 0 -39.5 5t-28 12t-17.5 15t-9.5 13t-2.5 6z" />
<glyph unicode="&#xed;" horiz-adv-x="266" d="M28 54q24 48 24 118q0 43 -10 84v6q13 52 13 94q0 37 -17 105q23 46 23 111q0 46 -15 91q32 40 93 40q28 0 51 -10t31.5 -18.5t10.5 -11.5l5 -5l-3 -6q-18 -54 -18 -104q0 -43 11 -79v-7q-15 -54 -15 -102q0 -64 18 -100q-20 -40 -20 -105q0 -58 19 -105 q-26 -52 -102 -52q-22 0 -39.5 5t-28 12t-17.5 15t-9.5 13t-2.5 6zM99 802q62 65 101 157h6q3 1 9 1q32 0 57.5 -23t27.5 -54l1 -6l-5 -3q-52 -40 -104 -127l-2 -4l-6 -1q-2 0 -5 -0.5t-5 -0.5q-26 0 -46.5 15.5t-26.5 39.5z" />
<glyph unicode="&#xee;" horiz-adv-x="266" d="M-5 818v4q62 62 100 157q28 7 32 7q14 0 28 -6q4 1 11 1q18 0 40 -11l1 -4q36 -95 93 -150l3 -4v-5q-2 -22 -14 -38.5t-29 -25t-34 -8.5q-15 0 -35 10l-1 4q-18 49 -43 91q-29 -40 -49 -90l-5 -5q-14 -7 -26 -7q-30 0 -51 24t-21 56zM28 54q24 48 24 118q0 43 -10 84v6 q13 52 13 94q0 37 -17 105q23 46 23 111q0 46 -15 91q32 40 93 40q28 0 51 -10t31.5 -18.5t10.5 -11.5l5 -5l-3 -6q-18 -54 -18 -104q0 -43 11 -79v-7q-15 -54 -15 -102q0 -64 18 -100q-20 -40 -20 -105q0 -58 19 -105q-26 -52 -102 -52q-22 0 -39.5 5t-28 12t-17.5 15 t-9.5 13t-2.5 6z" />
<glyph unicode="&#xef;" horiz-adv-x="266" d="M-36 858q35 35 94 35q47 0 67 -20l6 -5q-16 -37 -16 -73q0 -15 3 -30q-28 -28 -72 -28q-26 0 -60 17q2 16 2 25q0 37 -24 79zM28 54q24 48 24 118q0 43 -10 84v6q13 52 13 94q0 37 -17 105q23 46 23 111q0 46 -15 91l1 2q29 38 92 38q28 0 51 -10t31.5 -18.5t10.5 -11.5 l5 -5l-3 -6q-18 -54 -18 -104q0 -43 11 -79v-7q-15 -54 -15 -102q0 -64 18 -100q-20 -40 -20 -105q0 -58 19 -105q-26 -52 -102 -52q-22 0 -39.5 5t-28 12t-17.5 15t-9.5 13t-2.5 6zM156 865l6 4q29 23 70 23q50 0 83 -33l-3 -8q-21 -42 -21 -79v-15q-22 -18 -57 -18 q-40 0 -72 26q2 12 2 32q0 12 -8 68z" />
<glyph unicode="&#xf0;" horiz-adv-x="670" d="M-16 356q0 25 7.5 43t19 27t18.5 12.5t12 4.5q48 -24 146 -24h12q-1 7 -5.5 20.5t-5.5 20.5q23 46 23 110q0 47 -15 92l1 2q29 38 92 38h10q29 23 62 23q6 0 12 -0.5t9.5 -1.5l3.5 -1l4 -2q8 -19 22 -39t32 -38t37.5 -33.5t39.5 -29.5l9 -4l4 -2q48 -96 137 -141l6 -2 q2 -14 2 -16q0 -29 -20 -60q21 -30 21 -64v-5l-1 -7q-90 -45 -135 -132l-1 -4l-3 -1q-41 -24 -80.5 -66t-58.5 -85l-2 -4l-5 -2q-5 -5 -26 -5q-29 0 -58 20q-20 -4 -33 -4q-22 0 -39.5 5t-28 12.5t-17.5 15.5t-9.5 13t-2.5 6l-2 4q24 60 24 118q0 42 -10 85v6l4 16 q-28 3 -56 3q-58 0 -99 -12l-5 -1q-52 26 -52 89zM362 359q0 -64 18 -100q-7 -14 -14 -46q6 8 15 18.5t15 18.5t9 14q66 33 109 88q-40 51 -98 82q-9 9 -23.5 28t-20.5 26q1 -5 5 -20v-7q-15 -54 -15 -102z" />
<glyph unicode="&#xf1;" horiz-adv-x="598" d="M28 52q24 48 24 118q0 43 -10 84v6q13 52 13 94q0 37 -17 105q23 46 23 111q0 46 -15 91l1 2q29 38 92 38q37 0 65 -17h8q12 0 23.5 -2.5t16.5 -4.5t6 -3l6 -3l1 -6q10 -100 70 -169l3 -3v-3q12 -78 50 -138v1q0 26 -3.5 51t-11.5 51v8q21 54 21 109q0 47 -14 89l1 2 l9.5 9.5t15 12t28 12t39.5 4.5q61 0 97 -45q-21 -63 -21 -111q0 -39 12 -78v-7q-15 -52 -15 -101q0 -52 16 -97v-8q-19 -50 -19 -103q0 -56 19 -103q-26 -52 -101 -52q-43 0 -68 17h-5q-11 0 -20.5 1.5t-16 5t-10.5 6t-8 6.5l-4 3v5q-4 97 -73 185l-2 5q-12 65 -42 119 q2 -59 18 -91q-20 -40 -20 -105q0 -58 19 -105q-26 -52 -102 -52q-22 0 -39.5 5t-28 12t-17.5 15t-9.5 13t-2.5 6zM129 818v4q66 66 102 156q12 6 32 6q16 0 29 -6q3 1 10 1q18 0 36 -9l5 -6q18 -50 40 -86q33 58 41 99q25 10 38 10q30 0 52.5 -20.5t24.5 -47.5v-5l-3 -3 q-62 -71 -91 -161l-5 -6q-12 -8 -31 -8q-12 0 -21 3q-15 -6 -30 -6q-14 0 -34 10l-1 4q-17 49 -42 92q-27 -37 -50 -89l-5 -6q-12 -6 -25 -6q-32 0 -52 24t-20 56z" />
<glyph unicode="&#xf2;" d="M8 111l2 4q13 24 20.5 41.5t11.5 37t4 41.5q0 19 -3 45l1 6q25 60 25 110q0 29 -8 69l2 3q24 46 30 77q-18 23 -18 66q0 24 5.5 43t13 29t16 17t13.5 9.5t6 2.5l5 2q52 -26 110 -26q42 0 56 5l4 1q53 -27 98 -28q32 14 62 14q11 0 21 -1.5t18 -4.5t15 -6t12 -6.5t8.5 -6 t6 -4.5l2.5 -2l5 -5q-13 -39 -13 -84t20 -94l2 -3q-8 -32 -8 -73q0 -61 27 -119l2 -3q-13 -33 -13 -80q0 -52 28 -108l-2 -5q0 -4 -8 -16t-35.5 -27.5t-67.5 -15.5q-38 0 -63 18q-47 -6 -87 -25l-3 -2l-3 1q-8 0 -23 1t-23 1q-91 0 -156 -34l-5 -2l-4 1l-2.5 1l-5 2t-7 3.5 t-8 5t-8.5 6.5t-9 8.5t-8 10.5t-7 12.5t-5.5 14.5t-3.5 17q-16 8 -27 21t-14 20t-3 9zM198 162q74 9 96 24l4 2q32 -8 69 -8q22 0 43 3q-4 26 -15 62l-1 6q6 33 6 64q0 68 -28 124q1 7 5 24.5t6.5 29.5t2.5 24q-18 2 -26 2q-23 0 -57 -8q-12 2 -57 13q-1 -10 -1 -28t5 -46 v-4l-1 -3q-27 -63 -27 -114q0 -32 9 -68q-31 -61 -33 -99zM201 888l2 6q6 18 21 32t35.5 22t42.5 8q16 0 28 -3l1 -8q6 -78 51 -151l2 -4q-4 -18 -16 -30.5t-26.5 -18t-31.5 -5.5q-6 0 -21 3q-33 82 -84 145z" />
<glyph unicode="&#xf3;" d="M8 111l2 4q13 24 20.5 41.5t11.5 37t4 41.5q0 19 -3 45l1 6q25 60 25 110q0 29 -8 69l2 3q24 46 30 77q-18 23 -18 66q0 24 5.5 43t13 29t16 17t13.5 9.5t6 2.5l5 2q52 -26 110 -26q42 0 56 5l4 1q53 -27 98 -28q32 14 62 14q11 0 21 -1.5t18 -4.5t15 -6t12 -6.5t8.5 -6 t6 -4.5l2.5 -2l5 -5q-13 -39 -13 -84t20 -94l2 -3q-8 -32 -8 -73q0 -61 27 -119l2 -3q-13 -33 -13 -80q0 -52 28 -108l-2 -5q0 -4 -8 -16t-35.5 -27.5t-67.5 -15.5q-38 0 -63 18q-47 -6 -87 -25l-3 -2l-3 1q-8 0 -23 1t-23 1q-91 0 -156 -34l-5 -2l-4 1l-2.5 1l-5 2t-7 3.5 t-8 5t-8.5 6.5t-9 8.5t-8 10.5t-7 12.5t-5.5 14.5t-3.5 17q-16 8 -27 21t-14 20t-3 9zM198 162q74 9 96 24l4 2q32 -8 69 -8q22 0 43 3q-4 26 -15 62l-1 6q6 33 6 64q0 68 -28 124q1 7 5 24.5t6.5 29.5t2.5 24q-18 2 -26 2q-23 0 -57 -8q-12 2 -57 13q-1 -10 -1 -28t5 -46 v-4l-1 -3q-27 -63 -27 -114q0 -32 9 -68q-31 -61 -33 -99zM278 793q62 65 101 157h6q3 1 9 1q32 0 57.5 -23t27.5 -54l1 -6l-5 -3q-33 -26 -56 -55.5t-48 -71.5l-2 -4l-6 -1q-1 0 -4.5 -0.5t-5.5 -0.5q-26 0 -46.5 15.5t-26.5 39.5z" />
<glyph unicode="&#xf4;" d="M8 111l2 4q13 24 20.5 41.5t11.5 37t4 41.5q0 19 -3 45l1 6q25 60 25 110q0 29 -8 69l2 3q24 46 30 77q-18 23 -18 66q0 24 5.5 43t13 29t16 17t13.5 9.5t6 2.5l5 2q52 -26 110 -26q42 0 56 5l4 1q53 -27 98 -28q32 14 62 14q11 0 21 -1.5t18 -4.5t15 -6t12 -6.5t8.5 -6 t6 -4.5l2.5 -2l5 -5q-13 -39 -13 -84t20 -94l2 -3q-8 -32 -8 -73q0 -61 27 -119l2 -3q-13 -33 -13 -80q0 -52 28 -108l-2 -5q0 -4 -8 -16t-35.5 -27.5t-67.5 -15.5q-38 0 -63 18q-47 -6 -87 -25l-3 -2l-3 1q-8 0 -23 1t-23 1q-91 0 -156 -34l-5 -2l-4 1l-2.5 1l-5 2t-7 3.5 t-8 5t-8.5 6.5t-9 8.5t-8 10.5t-7 12.5t-5.5 14.5t-3.5 17q-16 8 -27 21t-14 20t-3 9zM169 809v4q62 62 100 157q28 7 32 7q14 0 28 -6q4 1 11 1q18 0 40 -11l1 -4q36 -95 93 -150l3 -4v-5q-2 -22 -14 -38.5t-29 -25t-34 -8.5q-15 0 -35 10l-1 4q-18 49 -43 91 q-29 -40 -49 -90l-5 -5q-14 -7 -26 -7q-30 0 -51 24t-21 56zM198 162q74 9 96 24l4 2q32 -8 69 -8q22 0 43 3q-4 26 -15 62l-1 6q6 33 6 64q0 68 -28 124q1 7 5 24.5t6.5 29.5t2.5 24q-18 2 -26 2q-23 0 -57 -8q-12 2 -57 13q-1 -10 -1 -28t5 -46v-4l-1 -3q-27 -63 -27 -114 q0 -32 9 -68q-31 -61 -33 -99z" />
<glyph unicode="&#xf5;" d="M8 111l2 4q13 24 20.5 41.5t11.5 37t4 41.5q0 19 -3 45l1 6q25 60 25 110q0 29 -8 69l2 3q24 46 30 77q-18 23 -18 66q0 24 5.5 43t13 29t16 17t13.5 9.5t6 2.5l5 2q52 -26 110 -26q42 0 56 5l4 1q53 -27 98 -28q32 14 62 14q11 0 21 -1.5t18 -4.5t15 -6t12 -6.5t8.5 -6 t6 -4.5l2.5 -2l5 -5q-13 -39 -13 -84t20 -94l2 -3q-8 -32 -8 -73q0 -61 27 -119l2 -3q-13 -33 -13 -80q0 -52 28 -108l-2 -5q0 -4 -8 -16t-35.5 -27.5t-67.5 -15.5q-38 0 -63 18q-47 -6 -87 -25l-3 -2l-3 1q-8 0 -23 1t-23 1q-91 0 -156 -34l-5 -2l-4 1l-2.5 1l-5 2t-7 3.5 t-8 5t-8.5 6.5t-9 8.5t-8 10.5t-7 12.5t-5.5 14.5t-3.5 17q-16 8 -27 21t-14 20t-3 9zM139 813v4q66 66 102 156q12 6 32 6q16 0 29 -6q3 1 10 1q18 0 36 -9l5 -6q18 -50 40 -86q33 58 41 99q25 10 38 10q15 0 28.5 -5.5t24 -15t17 -22t7.5 -25.5v-5l-3 -3q-62 -71 -91 -161 l-5 -6q-12 -8 -31 -8q-12 0 -21 3q-15 -6 -30 -6q-14 0 -34 10l-1 4q-17 49 -42 92q-27 -37 -50 -89l-5 -6q-12 -6 -25 -6q-32 0 -52 24t-20 56zM198 162q74 9 96 24l4 2q32 -8 69 -8q22 0 43 3q-4 26 -15 62l-1 6q6 33 6 64q0 68 -28 124q1 7 5 24.5t6.5 29.5t2.5 24 q-18 2 -26 2q-23 0 -57 -8q-12 2 -57 13q-1 -10 -1 -28t5 -46v-4l-1 -3q-27 -63 -27 -114q0 -32 9 -68q-31 -61 -33 -99z" />
<glyph unicode="&#xf6;" d="M8 111l2 4q13 24 20.5 41.5t11.5 37t4 41.5q0 19 -3 45l1 6q25 60 25 110q0 29 -8 69l2 3q24 46 30 77q-18 23 -18 66q0 24 5.5 43t13 29t16 17t13.5 9.5t6 2.5l5 2q52 -26 110 -26q42 0 56 5l4 1q53 -27 98 -28q32 14 62 14q11 0 21 -1.5t18 -4.5t15 -6t12 -6.5t8.5 -6 t6 -4.5l2.5 -2l5 -5q-13 -39 -13 -84t20 -94l2 -3q-8 -32 -8 -73q0 -61 27 -119l2 -3q-13 -33 -13 -80q0 -52 28 -108l-2 -5q0 -4 -8 -16t-35.5 -27.5t-67.5 -15.5q-38 0 -63 18q-47 -6 -87 -25l-3 -2l-3 1q-8 0 -23 1t-23 1q-91 0 -156 -34l-5 -2l-4 1l-2.5 1l-5 2t-7 3.5 t-8 5t-8.5 6.5t-9 8.5t-8 10.5t-7 12.5t-5.5 14.5t-3.5 17q-16 8 -27 21t-14 20t-3 9zM127 870q35 35 94 35q47 0 67 -20l6 -5q-16 -37 -16 -73q0 -15 3 -30q-28 -28 -72 -28q-26 0 -60 17q2 16 2 25q0 37 -24 79zM198 162q74 9 96 24l4 2q32 -8 69 -8q22 0 43 3 q-4 26 -15 62l-1 6q6 33 6 64q0 68 -28 124q1 7 5 24.5t6.5 29.5t2.5 24q-18 2 -26 2q-23 0 -57 -8q-12 2 -57 13q-1 -10 -1 -28t5 -46v-4l-1 -3q-27 -63 -27 -114q0 -32 9 -68q-31 -61 -33 -99zM319 877l6 4q29 23 70 23q50 0 83 -33l-3 -8q-21 -42 -21 -79v-15 q-22 -18 -57 -18q-39 0 -72 26q2 12 2 32q0 12 -8 68z" />
<glyph unicode="&#xf7;" horiz-adv-x="457" d="M21 335q0 70 51 92l2 1q40 -16 81 -16q32 0 76 11l4 2l4 -2q47 -16 77 -16q29 0 77 16q41 -25 43 -88q0 -61 -42 -95l-7 1q-50 15 -73 15q-24 0 -66 -13l-6 -1q-29 12 -77 12q-35 0 -84 -18h-9q-51 26 -51 99zM149 182q32 32 80 32q50 0 81 -31q-12 -42 -12 -60 q0 -17 7 -38q-26 -33 -75 -33q-46 0 -71 28l-5 5q8 24 8 41q0 26 -13 56zM149 582q32 32 80 32q50 0 81 -31q-12 -42 -12 -60q0 -17 7 -38q-26 -33 -75 -33q-46 0 -71 28l-5 5q8 24 8 41q0 26 -13 56z" />
<glyph unicode="&#xf8;" d="M8 111l2 4q13 24 20.5 41.5t11.5 37t4 41.5q0 19 -3 45l1 6q25 60 25 110q0 29 -8 69q23 34 32 80q-18 23 -18 66q0 24 5.5 43t13 29t16 17t13.5 9.5t6 2.5l5 2q52 -26 110 -26q42 0 56 5l4 1q56 -28 107 -28h4q0 2 1 3l2 7l6 3l2 1t5.5 2.5t8 2.5t11 2t12.5 1 q74 0 96 -73q5 -16 5 -22l1 -7l-6 -5l-19 -21q0 -47 19 -94l2 -3q-8 -32 -8 -73q0 -60 27 -119l2 -3q-13 -33 -13 -80q0 -52 28 -108l-2 -5q0 -1 -2.5 -6.5t-10.5 -14.5t-19.5 -17.5t-32.5 -14.5t-46 -6q-38 0 -63 18q-47 -6 -87 -25l-3 -2l-3 1q-8 0 -23 1t-23 1 q-27 0 -62 -5l-4 -16l-1 -5q-22 -22 -58 -22q-23 0 -41 7.5t-29 19t-18.5 25t-10 24t-2.5 17.5q-41 20 -48 56zM222 320q52 73 74 153l1 5q15 11 38 39q-16 -2 -32 -6q-12 2 -57 13q-1 -10 -1 -28t5 -46v-4l-1 -3q-27 -66 -27 -113v-10zM325 183q21 -3 42 -3q22 0 43 3 q-4 26 -15 62l-1 6q6 33 6 63q0 15 -1 22q-51 -75 -65 -144z" />
<glyph unicode="&#xf9;" horiz-adv-x="583" d="M10 99q33 66 33 120q0 21 -5 56v6q21 58 21 108q0 32 -11 76q32 64 32 129q0 38 -10 73l5 5.5t10.5 9t15 8.5t23.5 7.5t31 2.5q64 0 101 -45v-1l4 -6q-29 -58 -29 -129q0 -29 6 -59v-7q-23 -66 -23 -113q0 -34 10 -70v-8q-26 -56 -26 -102q11 3 34.5 11.5t37.5 12.5 q32 -4 45 -4q33 0 63 9q-2 11 -7 32.5t-7 32.5q7 34 7 72q0 62 -23 122v8q14 42 14 89q0 65 -22 109l4 6q5 7 12.5 13.5t31.5 16.5t54 10q52 0 84 -32l5 -5q-14 -49 -14 -92q0 -50 18 -98v-7q-9 -42 -9 -79q0 -70 26 -122q-13 -52 -13 -87q0 -68 27 -122l-2 -5l-1 -2 q-1 -2 -3 -5l-5 -7.5t-7.5 -9t-10.5 -9t-14 -8.5t-17.5 -7t-22 -5t-26.5 -2q-59 0 -85 37q-30 -9 -59 -25l-6 -1q-41 0 -64 -1.5t-54 -9.5t-57 -24l-4 -3l-5 1q-1 0 -6 2t-9.5 4.5t-12 8t-13.5 13t-13 20t-12 28.5q-16 8 -27.5 19.5t-15 19t-3.5 9.5zM168 878l2 6 q9 27 37.5 44.5t61.5 17.5q16 0 28 -3l1 -8q6 -78 51 -151l2 -4q-7 -26 -27.5 -40t-46.5 -14q-6 0 -21 3q-33 82 -84 145z" />
<glyph unicode="&#xfa;" horiz-adv-x="583" d="M10 99q33 66 33 120q0 21 -5 56v6q21 58 21 108q0 32 -11 76q32 64 32 129q0 38 -10 73l5 5.5t10.5 9t15 8.5t23.5 7.5t31 2.5q64 0 101 -45v-1l4 -6q-29 -58 -29 -129q0 -29 6 -59v-7q-23 -66 -23 -113q0 -34 10 -70v-8q-26 -56 -26 -102q11 3 34.5 11.5t37.5 12.5 q32 -4 45 -4q33 0 63 9q-2 11 -7 32.5t-7 32.5q7 34 7 72q0 62 -23 122v8q14 42 14 89q0 65 -22 109l4 6q5 7 12.5 13.5t31.5 16.5t54 10q52 0 84 -32l5 -5q-14 -49 -14 -92q0 -50 18 -98v-7q-9 -42 -9 -79q0 -70 26 -122q-13 -52 -13 -87q0 -68 27 -122l-2 -5l-1 -2 q-1 -2 -3 -5l-5 -7.5t-7.5 -9t-10.5 -9t-14 -8.5t-17.5 -7t-22 -5t-26.5 -2q-59 0 -85 37q-30 -9 -59 -25l-6 -1q-41 0 -64 -1.5t-54 -9.5t-57 -24l-4 -3l-5 1q-1 0 -6 2t-9.5 4.5t-12 8t-13.5 13t-13 20t-12 28.5q-16 8 -27.5 19.5t-15 19t-3.5 9.5zM236 793q62 65 101 157 h6q3 1 9 1q32 0 57.5 -23t27.5 -54l1 -6l-5 -3q-33 -26 -56 -55.5t-48 -71.5l-2 -4l-6 -1q-1 0 -4.5 -0.5t-5.5 -0.5q-26 0 -46.5 15.5t-26.5 39.5z" />
<glyph unicode="&#xfb;" horiz-adv-x="583" d="M10 99q33 66 33 120q0 21 -5 56v6q21 58 21 108q0 32 -11 76q32 64 32 129q0 38 -10 73l5 5.5t10.5 9t15 8.5t23.5 7.5t31 2.5q64 0 101 -45v-1l4 -6q-29 -58 -29 -129q0 -29 6 -59v-7q-23 -66 -23 -113q0 -34 10 -70v-8q-26 -56 -26 -102q11 3 34.5 11.5t37.5 12.5 q32 -4 45 -4q33 0 63 9q-2 11 -7 32.5t-7 32.5q7 34 7 72q0 62 -23 122v8q14 42 14 89q0 65 -22 109l4 6q5 7 12.5 13.5t31.5 16.5t54 10q52 0 84 -32l5 -5q-14 -49 -14 -92q0 -50 18 -98v-7q-9 -42 -9 -79q0 -70 26 -122q-13 -52 -13 -87q0 -68 27 -122l-2 -5l-1 -2 q-1 -2 -3 -5l-5 -7.5t-7.5 -9t-10.5 -9t-14 -8.5t-17.5 -7t-22 -5t-26.5 -2q-59 0 -85 37q-30 -9 -59 -25l-6 -1q-41 0 -64 -1.5t-54 -9.5t-57 -24l-4 -3l-5 1q-1 0 -6 2t-9.5 4.5t-12 8t-13.5 13t-13 20t-12 28.5q-16 8 -27.5 19.5t-15 19t-3.5 9.5zM134 812v4 q62 62 100 157q28 7 32 7q15 0 28 -6q4 1 11 1q18 0 40 -11l1 -4q36 -95 93 -150l3 -4v-5q-2 -22 -14 -38.5t-29 -25t-34 -8.5q-15 0 -35 10l-1 4q-18 49 -43 91q-29 -40 -49 -90l-5 -5q-14 -7 -26 -7q-30 0 -51 24t-21 56z" />
<glyph unicode="&#xfc;" horiz-adv-x="583" d="M10 99q33 66 33 120q0 21 -5 56v6q21 58 21 108q0 32 -11 76q32 64 32 129q0 38 -10 73l5 5.5t10.5 9t15 8.5t23.5 7.5t31 2.5q64 0 101 -45v-1l4 -6q-29 -58 -29 -129q0 -29 6 -59v-7q-23 -66 -23 -113q0 -34 10 -70v-8q-26 -56 -26 -102q11 3 34.5 11.5t37.5 12.5 q32 -4 45 -4q33 0 63 9q-2 11 -7 32.5t-7 32.5q7 34 7 72q0 62 -23 122v8q14 42 14 89q0 65 -22 109l4 6q5 7 12.5 13.5t31.5 16.5t54 10q52 0 84 -32l5 -5q-14 -49 -14 -92q0 -50 18 -98v-7q-9 -42 -9 -79q0 -70 26 -122q-13 -52 -13 -87q0 -68 27 -122l-2 -5l-1 -2 q-1 -2 -3 -5l-5 -7.5t-7.5 -9t-10.5 -9t-14 -8.5t-17.5 -7t-22 -5t-26.5 -2q-59 0 -85 37q-30 -9 -59 -25l-6 -1q-41 0 -64 -1.5t-54 -9.5t-57 -24l-4 -3l-5 1q-1 0 -6 2t-9.5 4.5t-12 8t-13.5 13t-13 20t-12 28.5q-16 8 -27.5 19.5t-15 19t-3.5 9.5zM112 870q35 35 94 35 q47 0 67 -20l6 -5q-16 -37 -16 -73q0 -15 3 -30q-28 -28 -72 -28q-26 0 -60 17q2 16 2 25q0 37 -24 79zM304 877l6 4q29 23 70 23q50 0 83 -33l-3 -8q-21 -42 -21 -79v-15q-22 -18 -57 -18q-39 0 -72 26q2 12 2 32q0 12 -8 68z" />
<glyph unicode="&#xfd;" horiz-adv-x="485" d="M-24 565v6l0.5 2.5t2.5 9t5 14t8 16.5t11 18t15.5 17.5t20.5 14.5t25.5 10t31.5 4q6 0 11.5 -1t8.5 -1.5l3 -0.5l6 -2q33 -100 108 -155q4 -6 10 -20.5t10 -21.5q0 1 0.5 3t0.5 4v4q73 73 84 178v7l6 3.5t9 4.5t12 2.5t21 1.5q86 0 125 -83l1 -6l-4 -5q-67 -76 -76 -167 v-3l-3 -3q-68 -87 -74 -184v-4l-3 -3q-71 -80 -77 -186v-5l-4 -3.5t-8 -6t-10.5 -6t-16 -5t-21.5 -1.5q-26 0 -54 12q-20 8 -35 19.5t-21.5 21.5t-10 21t-4 15t-0.5 7l4 9q68 70 86 178v1q-41 72 -87 103l-1 5q-30 98 -111 157zM193 745q62 65 101 157h6q3 1 9 1 q32 0 57.5 -23t27.5 -54l1 -6l-5 -3q-33 -26 -56 -55.5t-48 -71.5l-2 -4l-6 -1q-2 0 -5.5 -0.5t-4.5 -0.5q-26 0 -46.5 15.5t-26.5 39.5z" />
<glyph unicode="&#xfe;" horiz-adv-x="521" d="M28 43q24 48 24 118q0 43 -10 84v6q13 52 13 94q0 37 -17 105q23 46 23 111q0 46 -15 91l1 2q29 38 92 38q28 0 51 -10t31.5 -18.5t10.5 -11.5l5 -5q-9 -19 -16 -52q39 -24 106 -37q1 0 5 -0.5t5 -0.5h4l4 -3q40 -34 75.5 -49t85.5 -18h6q15 -25 15 -54q0 -18 -8 -42 t-17 -36q9 -22 9 -43q0 -4 -3 -25l-6 -2q-93 -41 -143 -114l-6 -5q-84 -43 -133 -103q3 -9 9 -24q-26 -52 -102 -52q-22 0 -39.5 5t-28 12t-17.5 15t-9.5 13t-2.5 6zM212 349q0 -40 9 -76q4 4 19 24l4 1q64 24 111 71q-30 10 -67 13q-11 6 -34.5 19.5t-34.5 18.5 q-7 -34 -7 -71z" />
<glyph unicode="&#xff;" horiz-adv-x="485" d="M-24 565v6l0.5 2.5t2.5 9t5 14t8 16.5t11 18t15.5 17.5t20.5 14.5t25.5 10t31.5 4q6 0 11.5 -1t8.5 -1.5l3 -0.5l6 -2q33 -100 108 -155q4 -6 10 -20.5t10 -21.5q0 1 0.5 3t0.5 4v4q73 73 84 178v7l6 3.5t9 4.5t12 2.5t21 1.5q86 0 125 -83l1 -6l-4 -5q-67 -76 -76 -167 v-3l-3 -3q-68 -87 -74 -184v-4l-3 -3q-71 -80 -77 -186v-5l-4 -3.5t-8 -6t-10.5 -6t-16 -5t-21.5 -1.5q-26 0 -54 12q-20 8 -35 19.5t-21.5 21.5t-10 21t-4 15t-0.5 7l4 9q68 70 86 178v1q-41 72 -87 103l-1 5q-30 98 -111 157zM68 832q35 35 94 35q47 0 67 -20l6 -5 q-16 -37 -16 -73q0 -15 3 -30q-28 -28 -72 -28q-26 0 -60 17q2 16 2 25q0 37 -24 79zM260 839l6 4q29 23 70 23q50 0 83 -33l-3 -8q-21 -42 -21 -79v-15q-23 -18 -57 -18q-40 0 -72 26q2 12 2 32q0 12 -8 68z" />
<glyph unicode="&#x152;" horiz-adv-x="831" d="M8 111l2 4q13 24 20.5 41.5t11.5 37t4 41.5q0 20 -3 45l1 6q25 60 25 110q0 29 -8 69l2 3q24 46 30 77q-18 23 -18 66q0 24 5.5 43t13 29t16 17t13.5 9.5t6 2.5l5 2q52 -26 110 -26q42 0 56 5l4 1q48 -24 87 -27q2 3 9.5 10t30 16t49.5 9q43 0 74 -23q45 5 66 15 q64 -16 78 -16q25 0 85 20l6 -3h1q35 -28 39 -83v-9q0 -55 -39 -86q-39 13 -77 13q-28 0 -73 -15l-7 -1q-42 8 -76 8q1 -25 11 -54v-7q-4 -13 -8 -35q25 -7 53 -7q38 0 83 15l5 -4q35 -35 35 -85q0 -59 -43 -92l-2 -1q-60 20 -95 20q-15 0 -30 -3l3 -6v-8q-13 -35 -17 -66 q42 8 57 8l4 1q62 -25 91 -25q27 0 73 13l4 -3.5t6.5 -6.5t7 -8t7.5 -12t6 -15.5t4.5 -20t1.5 -24.5q-1 -28 -12.5 -50.5t-19.5 -29.5t-15 -11q-66 22 -91 22q-23 0 -59 -9h-7q-8 2 -26 6t-28 6q-29 -34 -88 -34t-88 36q-24 -5 -64 -25l-3 1q-7 0 -22 1t-22 1 q-78 0 -143 -34l-5 -2l-4 1l-2.5 1l-5 2t-7 3.5t-8 5t-8.5 6.5t-9 8.5t-8 10.5t-7 12.5t-5.5 14.5t-3.5 17q-16 8 -27 21t-14 20t-3 9zM198 162q57 8 81 24l4 2q32 -8 60 -8q25 0 49 7q-2 36 -10 68v6q14 50 14 95q0 48 -16 99v9q11 29 16 51q-24 4 -36 4q-23 0 -57 -8 q-12 2 -57 13q-1 -10 -1 -28t5 -46v-4l-1 -3q-27 -63 -27 -114q0 -32 9 -68q-31 -61 -33 -99z" />
<glyph unicode="&#x153;" horiz-adv-x="831" d="M8 111l2 4q13 24 20.5 41.5t11.5 37t4 41.5q0 20 -3 45l1 6q25 60 25 110q0 29 -8 69l2 3q24 46 30 77q-18 23 -18 66q0 24 5.5 43t13 29t16 17t13.5 9.5t6 2.5l5 2q52 -26 110 -26q42 0 56 5l4 1q48 -24 87 -27q2 3 9.5 10t30 16t49.5 9q43 0 74 -23q45 5 66 15 q64 -16 78 -16q25 0 85 20l6 -3h1q35 -28 39 -83v-9q0 -55 -39 -86q-39 13 -77 13q-28 0 -73 -15l-7 -1q-42 8 -76 8q1 -25 11 -54v-7q-4 -13 -8 -35q25 -7 53 -7q38 0 83 15l5 -4q35 -35 35 -85q0 -59 -43 -92l-2 -1q-60 20 -95 20q-15 0 -30 -3l3 -6v-8q-13 -35 -17 -66 q42 8 57 8l4 1q62 -25 91 -25q27 0 73 13l4 -3.5t6.5 -6.5t7 -8t7.5 -12t6 -15.5t4.5 -20t1.5 -24.5q-1 -28 -12.5 -50.5t-19.5 -29.5t-15 -11q-66 22 -91 22q-23 0 -59 -9h-7q-8 2 -26 6t-28 6q-29 -34 -88 -34t-88 36q-24 -5 -64 -25l-3 1q-7 0 -22 1t-22 1 q-78 0 -143 -34l-5 -2l-4 1l-2.5 1l-5 2t-7 3.5t-8 5t-8.5 6.5t-9 8.5t-8 10.5t-7 12.5t-5.5 14.5t-3.5 17q-16 8 -27 21t-14 20t-3 9zM198 162q57 8 81 24l4 2q32 -8 60 -8q25 0 49 7q-2 36 -10 68v6q14 50 14 95q0 48 -16 99v9q11 29 16 51q-24 4 -36 4q-23 0 -57 -8 q-12 2 -57 13q-1 -10 -1 -28t5 -46v-4l-1 -3q-27 -63 -27 -114q0 -32 9 -68q-31 -61 -33 -99z" />
<glyph unicode="&#x178;" horiz-adv-x="485" d="M-24 565v6l0.5 2.5t2.5 9t5 14t8 16.5t11 18t15.5 17.5t20.5 14.5t25.5 10t31.5 4q6 0 11.5 -1t8.5 -1.5l3 -0.5l6 -2q33 -100 108 -155q4 -6 10 -20.5t10 -21.5q0 1 0.5 3t0.5 4v4q73 73 84 178v7l6 3.5t9 4.5t12 2.5t21 1.5q86 0 125 -83l1 -6l-4 -5q-67 -76 -76 -167 v-3l-3 -3q-68 -87 -74 -184v-4l-3 -3q-71 -80 -77 -186v-5l-4 -3.5t-8 -6t-10.5 -6t-16 -5t-21.5 -1.5q-26 0 -54 12q-20 8 -35 19.5t-21.5 21.5t-10 21t-4 15t-0.5 7l4 9q68 70 86 178v1q-41 72 -87 103l-1 5q-30 98 -111 157zM68 832q35 35 94 35q47 0 67 -20l6 -5 q-16 -37 -16 -73q0 -15 3 -30q-28 -28 -72 -28q-26 0 -60 17q2 16 2 25q0 37 -24 79zM260 839l6 4q29 23 70 23q50 0 83 -33l-3 -8q-21 -42 -21 -79v-15q-23 -18 -57 -18q-40 0 -72 26q2 12 2 32q0 12 -8 68z" />
<glyph unicode="&#x2c6;" horiz-adv-x="308" d="M0 833v4q62 62 100 157q28 7 32 7q14 0 28 -6q4 1 11 1q18 0 40 -11l1 -4q36 -95 93 -150l3 -4v-5q-3 -32 -26.5 -52t-50.5 -20q-15 0 -35 10l-1 4q-18 49 -43 91q-29 -40 -49 -90l-5 -5q-14 -7 -26 -7q-30 0 -51 24t-21 56z" />
<glyph unicode="&#x2dc;" horiz-adv-x="410" d="M0 835v4q66 66 102 156q12 6 32 6q16 0 29 -6q3 1 10 1q18 0 36 -9l5 -6q18 -50 40 -86q33 58 41 99q25 10 38 10q30 0 52.5 -20.5t24.5 -47.5v-5l-3 -3q-62 -71 -91 -161l-5 -6q-12 -8 -31 -8q-12 0 -21 3q-15 -6 -30 -6q-14 0 -34 10l-1 4q-17 49 -42 92 q-27 -37 -50 -89l-5 -6q-12 -6 -25 -6q-32 0 -52 24t-20 56z" />
<glyph unicode="&#x2000;" horiz-adv-x="502" />
<glyph unicode="&#x2001;" horiz-adv-x="1004" />
<glyph unicode="&#x2002;" horiz-adv-x="502" />
<glyph unicode="&#x2003;" horiz-adv-x="1004" />
<glyph unicode="&#x2004;" horiz-adv-x="334" />
<glyph unicode="&#x2005;" horiz-adv-x="251" />
<glyph unicode="&#x2006;" horiz-adv-x="167" />
<glyph unicode="&#x2007;" horiz-adv-x="167" />
<glyph unicode="&#x2008;" horiz-adv-x="125" />
<glyph unicode="&#x2009;" horiz-adv-x="200" />
<glyph unicode="&#x200a;" horiz-adv-x="55" />
<glyph unicode="&#x2010;" horiz-adv-x="466" d="M25 335q0 70 51 92l2 1q40 -16 81 -16q32 0 76 11l4 2l4 -2q47 -16 77 -16q29 0 77 16q41 -25 43 -88q0 -61 -42 -95l-7 1q-49 15 -73 15t-66 -13l-6 -1q-29 12 -77 12q-35 0 -84 -18h-9q-51 26 -51 99z" />
<glyph unicode="&#x2011;" horiz-adv-x="466" d="M25 335q0 70 51 92l2 1q40 -16 81 -16q32 0 76 11l4 2l4 -2q47 -16 77 -16q29 0 77 16q41 -25 43 -88q0 -61 -42 -95l-7 1q-49 15 -73 15t-66 -13l-6 -1q-29 12 -77 12q-35 0 -84 -18h-9q-51 26 -51 99z" />
<glyph unicode="&#x2012;" horiz-adv-x="466" d="M25 335q0 70 51 92l2 1q40 -16 81 -16q32 0 76 11l4 2l4 -2q47 -16 77 -16q29 0 77 16q41 -25 43 -88q0 -61 -42 -95l-7 1q-49 15 -73 15t-66 -13l-6 -1q-29 12 -77 12q-35 0 -84 -18h-9q-51 26 -51 99z" />
<glyph unicode="&#x2013;" horiz-adv-x="592" d="M25 343q0 11 1.5 21t3.5 18t5.5 14.5t6.5 11.5t7.5 9.5t7.5 7t7 5t6.5 4t5.5 2.5l2 1q46 -23 84 -23q25 0 65 10h6q45 -13 68 -13q24 0 69 15h8q51 -21 80 -21q20 0 65 13l6 1q37 -28 37 -87q0 -51 -37 -88l-6 -4q-60 20 -83 20q-20 0 -58 -11h-7q-53 14 -73 14 q-24 0 -67 -15h-8q-44 17 -74 17q-27 0 -74 -16l-4 -1q-50 25 -50 95z" />
<glyph unicode="&#x2014;" horiz-adv-x="726" d="M25 340q0 65 49 89h9q51 -21 109 -21q41 0 81 10h5q47 -12 92 -12q52 0 95 14h8q52 -20 103 -20q45 0 87 14l5 -4q33 -33 33 -81q0 -10 -1 -19t-3.5 -16.5t-5 -14t-6.5 -11.5t-6.5 -9t-6.5 -7.5t-6 -5.5t-5 -4l-3 -2q-57 19 -106 19q-41 0 -75 -10h-7q-49 13 -98 13 q-50 0 -92 -14h-7q-49 17 -98 17q-44 0 -95 -16h-9q-46 23 -46 91z" />
<glyph unicode="&#x2018;" horiz-adv-x="292" d="M2 417v5l3 3q57 67 57 141l3 8q32 37 42.5 64t12.5 74l1 6q20 16 54 16q19 0 35 -4t27.5 -11t21 -15t15 -16t9.5 -14.5t5 -10.5l2 -4l3 -6q-32 -39 -42.5 -64t-12.5 -71l-3 -6q-29 -39 -39.5 -71.5t-11.5 -80.5v-5l-4.5 -4.5t-8 -6.5t-11.5 -7t-17.5 -6t-22.5 -2 q-90 0 -113 69q-5 13 -5 19z" />
<glyph unicode="&#x2019;" horiz-adv-x="292" d="M2 417v5l3 3q57 67 57 141l3 8q32 37 42.5 64t12.5 74l1 6q20 16 54 16q19 0 35 -4t27.5 -11t21 -15t15 -16t9.5 -14.5t5 -10.5l2 -4l3 -6q-32 -39 -42.5 -64t-12.5 -71l-3 -6q-29 -39 -39.5 -71.5t-11.5 -80.5v-5l-4.5 -4.5t-8 -6.5t-11.5 -7t-17.5 -6t-22.5 -2 q-90 0 -113 69q-5 13 -5 19z" />
<glyph unicode="&#x201a;" horiz-adv-x="228" d="M-27 -36q0 4 0.5 7.5t1 5.5l0.5 2l1 4l4 3q64 43 99 136l3 6l5 2l3 1t8 1.5t11 0.5q69 0 98 -72q11 -26 8 -31l-1 2v-6l-5 -4q-77 -59 -105 -140l-1 -4q-13 -10 -39 -10q-45 0 -68 37t-23 59z" />
<glyph unicode="&#x201c;" horiz-adv-x="532" d="M2 417v5l3 3q57 67 57 141l3 8q32 37 42.5 64t12.5 74l1 6q20 16 54 16q19 0 35 -4t27.5 -11t21 -15t15 -16t9.5 -14.5t5 -10.5l2 -4l3 -6q-32 -39 -42.5 -64t-12.5 -71l-3 -6q-29 -39 -39.5 -71.5t-11.5 -80.5v-5l-4.5 -4.5t-8 -6.5t-11.5 -7t-17.5 -6t-22.5 -2 q-18 0 -33.5 3t-26.5 8t-20.5 12t-15 14t-10 14.5t-7 14t-3.5 12t-2 7.5v3zM242 417v5l3 3q57 67 57 141l3 8q32 37 42.5 64t12.5 74l1 6q20 16 54 16q19 0 35 -4t27.5 -11t21 -15t15 -16t9.5 -14.5t5 -10.5l2 -4l3 -6q-32 -39 -42.5 -64t-12.5 -71l-3 -6 q-29 -39 -39.5 -71.5t-11.5 -80.5v-5l-4.5 -4.5t-8 -6.5t-11.5 -7t-17.5 -6t-22.5 -2q-18 0 -33.5 3t-26.5 8t-20.5 12t-15 14t-10 14.5t-7 14t-3.5 12t-2 7.5v3z" />
<glyph unicode="&#x201d;" horiz-adv-x="532" d="M2 417v5l3 3q57 67 57 141l3 8q32 37 42.5 64t12.5 74l1 6q20 16 54 16q19 0 35 -4t27.5 -11t21 -15t15 -16t9.5 -14.5t5 -10.5l2 -4l3 -6q-32 -39 -42.5 -64t-12.5 -71l-3 -6q-29 -39 -39.5 -71.5t-11.5 -80.5v-5l-4.5 -4.5t-8 -6.5t-11.5 -7t-17.5 -6t-22.5 -2 q-90 0 -113 69q-5 13 -5 19zM242 417v5l3 3q57 67 57 141l3 8q32 37 42.5 64t12.5 74l1 6q20 16 54 16q19 0 35 -4t27.5 -11t21 -15t15 -16t9.5 -14.5t5 -10.5l2 -4l3 -6q-32 -39 -42.5 -64t-12.5 -71l-3 -6q-29 -39 -39.5 -71.5t-11.5 -80.5v-5l-4.5 -4.5t-8 -6.5t-11.5 -7 t-17.5 -6t-22.5 -2q-90 0 -113 69q-5 13 -5 19z" />
<glyph unicode="&#x201e;" horiz-adv-x="448" d="M-27 -36q0 4 0.5 7.5t1 5.5l0.5 2l1 4l4 3q64 43 99 136l3 6l5 2l3 1t8 1.5t11 0.5q69 0 98 -72q11 -26 8 -31l-1 2v-6l-5 -4q-77 -59 -105 -140l-1 -4q-13 -10 -39 -10q-45 0 -68 37t-23 59zM193 -36q0 4 0.5 7.5t1 5.5l0.5 2l1 4l4 3q64 43 99 136l3 6l5 2l3 1t8 1.5 t11 0.5q69 0 98 -72q11 -26 8 -31l-1 2v-6l-5 -4q-77 -59 -105 -140l-1 -4q-13 -10 -39 -10q-25 0 -44 13t-28.5 31t-14 32t-4.5 20z" />
<glyph unicode="&#x2022;" horiz-adv-x="276" d="M57 415q32 32 80 32q50 0 81 -31q-12 -42 -12 -60q0 -17 7 -38q-26 -33 -75 -33q-46 0 -71 28l-5 5q8 24 8 41q0 26 -13 56z" />
<glyph unicode="&#x2026;" horiz-adv-x="606" d="M20 115q32 32 80 32q50 0 81 -31q-12 -42 -12 -60q0 -17 7 -38q-26 -33 -75 -33q-46 0 -71 28l-5 5q8 24 8 41q0 26 -13 56zM222 115q32 32 80 32q50 0 81 -31q-12 -42 -12 -60q0 -17 7 -38q-26 -33 -75 -33q-46 0 -71 28l-5 5q8 24 8 41q0 26 -13 56zM424 115 q32 32 80 32q50 0 81 -31q-12 -42 -12 -60q0 -17 7 -38q-26 -33 -75 -33q-46 0 -71 28l-5 5q8 24 8 41q0 26 -13 56z" />
<glyph unicode="&#x202f;" horiz-adv-x="200" />
<glyph unicode="&#x2039;" horiz-adv-x="360" d="M23 402q0 6 1 12.5t2.5 10.5l3 8t3 6l1.5 2l2 4l5 1q42 14 97 50.5t84 75.5l4 5h6q16 0 43 -15q54 -29 54 -90q0 -6 -1 -12l-1.5 -9l-0.5 -3l-2 -6l-6 -3q-62 -23 -129 -83q65 -65 126 -91l6 -2l2 -6l0.5 -2.5t1 -7.5t0.5 -10q0 -15 -3.5 -28.5t-9.5 -23t-14 -17.5 t-16.5 -13.5t-17.5 -9.5t-16.5 -6t-13.5 -3.5t-9 -2l-3 -0.5h-6q-28 42 -79.5 82t-96.5 57q-16 14 -16 42q0 20 11 42q-12 20 -12 46z" />
<glyph unicode="&#x203a;" horiz-adv-x="360" d="M31 473q0 24 9.5 44t22.5 30.5t28 17.5t24.5 9.5t12.5 2.5h7l3 -5q30 -39 84.5 -76t96.5 -50l5 -1l2 -4q11 -11 11 -40q0 -23 -12 -45q10 -20 10 -42q0 -6 -1 -11.5t-2 -10t-2 -7.5t-2 -5l-1 -2l-3 -4l-4 -2q-42 -16 -92 -54.5t-80 -78.5l-3 -6h-7q-3 0 -11.5 1.5t-25 8 t-30.5 17t-25 31t-11 46.5q0 5 0.5 10t0.5 7l1 3l2 6l6 2q64 27 125 92q-62 57 -128 82l-6 3l-2 6l-1 4q-1 3 -1.5 9t-0.5 12z" />
<glyph unicode="&#x205f;" horiz-adv-x="251" />
<glyph unicode="&#x20ac;" horiz-adv-x="691" d="M19 258q0 20 5.5 36t12.5 25t16 15t14 8t9 3q38 -19 123 -23q4 12 8 34q-17 -1 -68 -11l-4 2q-1 0 -5.5 2.5t-12 9t-14 16t-11.5 25t-5 34.5t5.5 35t12.5 24.5t15 15t13 8.5t6 2l5 2q22 -11 77 -19q10 26 14 43q-18 23 -18 66q0 24 5.5 43t13 29t16 17t13.5 9.5t6 2.5 l5 2q52 -26 110 -26q42 0 56 5l4 1q56 -28 105 -28q9 0 69 10l2.5 -2t4 -4t4.5 -5t5 -6.5t5 -8.5t5 -11t3.5 -13t2.5 -15.5t1 -18.5v-8q-3 -53 -42 -87l-6 -4l-6 2q-57 24 -98 24q-23 0 -57 -8q-12 2 -56 13q-1 -10 -1 -28t5 -46v-4l-1 -3q-27 -63 -27 -114q0 -27 8 -64 l-1 -8q-28 -55 -31 -95q13 2 67 20q3 1 13 6q32 -8 64 -8q54 0 118 32l2 -1q9 -5 16.5 -10.5t19 -25t15.5 -46.5q1 -7 1 -20q0 -8 -1 -16t-3 -14.5t-4 -12.5t-4.5 -11t-5 -8.5t-4 -6t-3 -4.5l-1.5 -2l-5 -5q-21 7 -61 7q-53 0 -111 -29l-3 1q-8 0 -22 1t-21 1 q-74 0 -139 -34l-5 -2q-6 1 -12 4t-18 10.5t-21.5 25t-14.5 41.5q-17 8 -28.5 21t-14.5 20t-3 10l-1 5q27 54 31 71h-10q-56 0 -95 -12l-5 -1q-52 26 -52 89z" />
<glyph unicode="&#xe000;" horiz-adv-x="675" d="M0 0v675h675v-675h-675z" />
</font>
</defs>
</svg>
