<?xml version="1.0" standalone="no"?>
<!DOCTYPE svg PUBLIC "-//W3C//DTD SVG 1.1//EN" "http://www.w3.org/Graphics/SVG/1.1/DTD/svg11.dtd" >
<svg xmlns="http://www.w3.org/2000/svg">
<metadata></metadata>
<defs>
<font id="sf_toontimeitalic" horiz-adv-x="1145" >
<font-face units-per-em="2048" ascent="1638" descent="-410" />
<missing-glyph horiz-adv-x="570" />
<glyph horiz-adv-x="2048" />
<glyph horiz-adv-x="2048" />
<glyph unicode="&#xd;" horiz-adv-x="1024" />
<glyph unicode=" "  horiz-adv-x="570" />
<glyph unicode="&#x09;" horiz-adv-x="570" />
<glyph unicode="&#xa0;" horiz-adv-x="570" />
<glyph unicode="!" horiz-adv-x="505" d="M718 1299q-20 -96 -88 -236q-101 -210 -108 -230q-27 -87 -101 -258q-61 -109 -145 -109q-52 0 -39 63q13 58 76 213q36 91 157 367q24 65 89 190q52 77 119 77q56 0 40 -77zM300 191q-14 -65 -54 -123q-51 -71 -107 -71q-60 0 -46 63q-4 -19 25 70l12 39 q14 41 49.5 73.5t74.5 32.5q63 0 46 -84z" />
<glyph unicode="&#x22;" horiz-adv-x="947" d="M1016 1287q-38 -178 -94 -302q-51 -116 -133 -116q-70 0 -49 102q42 198 79 289q46 116 140 116q75 0 57 -89zM675 1217q-8 -34 -23.5 -101.5t-22.5 -101.5q-11 -51 -19 -72q-16 -44 -57 -76.5t-86 -32.5q-44 0 -40 60q2 23 37 187q5 24 12.5 70t12.5 70q11 51 53 95 t93 44q70 0 40 -142z" />
<glyph unicode="#" horiz-adv-x="1606" d="M1612 664q-20 -96 -129 -132q-34 -11 -185 -30l-29 -135q-10 -48 -17 -67q-18 -42 -55 -72t-80 -30q-41 0 -37 56q1 24 44 226l-417 -50q-42 -165 -46 -181q-47 -114 -132 -114q-60 0 -43 80q0 2 47 191q-7 -2 -114 -24q-68 -15 -112 -15q-50 0 -37 60q21 100 124 140 q29 10 188 35q41 169 88 357q-80 -14 -161 -29q-97 -17 -160 -17q-56 0 -42 65q20 95 118 130q59 20 146 30q73 7 147 16q40 162 151 162q63 0 45 -85q-4 -19 -15 -53q264 37 402 53q42 177 148 177q63 0 47 -75q-2 -10 -24 -84q159 17 186 17q60 0 46 -66 q-19 -89 -114 -118q-18 -5 -166 -20q-35 -142 -85 -364l115 19q70 10 116 10q56 0 42 -63zM1250 1041q-87 -12 -403 -56q-28 -118 -85 -354q69 9 404 47q44 196 84 363z" />
<glyph unicode="$" horiz-adv-x="1411" d="M1559 1055q-18 -87 -117 -171q-85 -72 -185 -107q-18 -7 -30 -7q-59 0 -45 66q12 57 86 103q112 70 120 76q-36 62 -171 93q-87 -209 -179 -417q246 -104 206 -292q-35 -162 -191 -254q-133 -77 -308 -82q-33 -78 -113 -229q-54 -81 -115 -81q-72 0 -56 75q9 42 51 123 q34 61 65 122q-66 12 -122 33q-40 -87 -78 -173q-46 -102 -91 -169q-53 -78 -109 -78q-63 0 -48 70q16 75 87 217q55 109 112 218q-10 19 -6 41q13 58 67 99l133 294q-234 97 -192 291q29 140 189 253q137 96 298 130l128 288q35 79 116 79q59 0 47 -57q-13 -59 -51 -145 q-32 -70 -66 -141q85 6 146 3q29 80 100 237q58 110 129 110q28 0 40.5 -22.5t6.5 -49.5q-13 -63 -50 -150q-33 -75 -65 -149q299 -68 261 -247zM1057 1133q-42 4 -76 4q-29 0 -68 -4q-11 -27 -153 -350q42 -13 127 -39q85 193 170 389zM734 1111q-71 -15 -131 -48 q-81 -44 -93 -97q-17 -80 106 -133zM1048 331l2 7q18 85 -106 145q-54 -116 -98 -212q142 12 202 60zM793 536q-41 14 -127 39q-57 -128 -118 -261q60 -24 125 -36q41 86 120 258z" />
<glyph unicode="%" horiz-adv-x="1681" d="M1095 1027q-34 -160 -151 -269q-124 -116 -282 -116q-128 0 -203 71q-79 79 -52 203q31 149 161 294q141 159 283 159q126 0 199 -107t45 -235zM1609 1379q-21 -99 -439 -613q-267 -326 -536 -650q-34 -44 -104 -126q-56 -57 -97 -57q-31 0 -49 23.5t-12 53.5q5 21 34 60 q153 206 462 582q322 391 462 579q93 122 102 134q79 92 126 92q30 0 44 -23.5t7 -54.5zM1556 413q-37 -171 -177 -297t-309 -126q-125 0 -182 94q-51 88 -24 216q16 75 67 159q53 91 116 137q46 34 73 34q9 0 15 -2q53 109 196 109q135 0 196 -97q58 -90 29 -227zM903 952 q17 77 -36 140q-47 53 -121 79q-128 -72 -151 -179q-14 -67 32 -110q44 -39 112 -39q54 0 104 29t60 80zM1372 367q17 78 -27 123q-42 39 -122 39q-8 0 -30 -2.5t-33 -0.5q-13 -28 -61 -77q-39 -41 -50 -92q-14 -65 24 -115.5t103 -50.5q66 0 124 54.5t72 121.5z" />
<glyph unicode="&#x26;" horiz-adv-x="1565" d="M1660 1299q-8 -39 -98 -181q-87 -135 -126 -176q-61 -63 -109 -63q-70 0 -54 77q10 44 81 131q-249 80 -512 80q-208 0 -226 -87q-19 -88 256 -193l360 -126q50 -27 40 -73t-51.5 -88t-87.5 -42q-28 0 -81.5 7t-81.5 7q-126 0 -291 -51q-210 -64 -230 -161q-6 -25 15 -56 q67 -103 398 -103q106 0 240 14q120 251 219 251q29 0 45 -22t9 -53q-4 -21 -36 -70q-58 -101 -119 -202q-46 -73 -107 -95q-67 -24 -229 -24h-49q-263 0 -394 39q-227 70 -185 265q30 143 155 254q109 97 265 150q-282 144 -239 347q15 68 74 135q153 172 446 172 q253 0 520 -92q57 102 124 102q31 0 48 -21.5t11 -51.5z" />
<glyph unicode="'" horiz-adv-x="623" d="M660 1217q-8 -34 -24 -103q-14 -66 -21 -100q-11 -51 -19 -72q-16 -44 -58 -76.5t-86 -32.5q-45 0 -40 60q1 23 36 187q5 24 13 70t13 70q11 51 53 95t93 44q70 0 40 -142z" />
<glyph unicode="(" horiz-adv-x="744" d="M552 116q-10 -46 -52.5 -86t-86.5 -40q-22 0 -49 20q-103 82 -134 275q-26 167 10 336q40 186 150 381q123 215 271 327q47 36 80 36q32 0 47 -27t7 -61q-7 -35 -51 -81q-134 -141 -188 -225q-72 -113 -103 -261q-35 -166 -6 -288q12 -47 97 -250q13 -32 8 -56z" />
<glyph unicode=")" horiz-adv-x="739" d="M785 748q-41 -193 -149 -381q-118 -203 -273 -328q-49 -39 -78 -39q-32 0 -47.5 27.5t-8.5 61.5t54 83q136 145 187 224q71 111 102 259q36 166 8 289q-16 63 -97 249q-15 34 -11 56q10 46 53 86.5t88 40.5q22 0 49 -21q104 -82 133 -273q26 -166 -10 -334z" />
<glyph unicode="*" horiz-adv-x="1104" d="M1251 1114q-13 -58 -126 -141q-83 -57 -169 -113q97 -87 111 -102q73 -77 62 -127q-8 -40 -47 -78t-80 -38q-17 0 -41 21q-59 63 -184 181q-8 -28 -32 -142q-59 -278 -184 -278q-54 0 -34 92q-3 -12 51 203q-84 -65 -168 -129q-129 -96 -163 -96q-31 0 -43 31 q-12 25 -5 58q7 34 48 73q73 70 189 150q100 67 200 135l3 12q-79 46 -215 159q-27 30 -20 63q9 43 48 83t80 40q26 0 170 -109q10 39 34 150q41 196 148 196q69 0 52 -82q-25 -118 -94 -367q91 65 181 130q140 97 178 97q65 0 50 -72z" />
<glyph unicode="+" horiz-adv-x="920" d="M1044 761q-22 -102 -122 -126q-60 -14 -230 -14q-41 0 -61.5 -68t-35.5 -99q-49 -101 -131 -101q-56 0 -41 70q3 16 55 198q-77 -3 -223 10q-50 12 -40 60q10 46 52 92t86 46q31 0 89.5 -3t85.5 -3l4 20q6 27 13.5 79.5t13.5 79.5q10 46 58.5 88.5t92.5 42.5 q67 0 30 -172q-2 -12 -33 -138q28 0 124 3q77 3 125 3q102 0 88 -68z" />
<glyph unicode="," horiz-adv-x="522" d="M430 191q-8 -37 -54.5 -130t-75.5 -134q-61 -89 -124 -89q-67 0 -51 77q25 117 116 264q59 96 133 96q73 0 56 -84z" />
<glyph unicode="-" d="M1108 773q-23 -109 -127 -135q-15 -3 -176 -10q-412 -17 -373 -17q-80 0 -63 80q21 99 129 130q54 15 185 15h348q91 0 77 -63z" />
<glyph unicode="." horiz-adv-x="568" d="M410 188q-40 -188 -156 -188q-73 0 -44 135q11 51 53 95.5t92 44.5q73 0 55 -87z" />
<glyph unicode="/" horiz-adv-x="1043" d="M1218 1471q-4 -17 -11 -32q-135 -316 -399 -763q-220 -376 -442 -749q-27 -57 -90 -163q-61 -85 -131 -85q-73 0 -58 70q9 46 291 529q174 295 348 591q74 126 211 380q32 75 111 219q52 80 116 80q70 0 54 -77z" />
<glyph unicode="0" horiz-adv-x="1417" d="M1394 674q-60 -285 -284 -474.5t-509 -189.5q-213 0 -297 147q-75 133 -29 352q41 194 160 378.5t290 319.5q-2 12 1 24q30 141 215 141q267 0 395 -218q117 -203 58 -480zM1204 638q42 198 -54.5 346t-288.5 170q-14 -31 -66 -79q-144 -135 -212 -230 q-85 -123 -117 -277q-33 -155 25 -245q60 -98 212 -98q185 0 323.5 114.5t177.5 298.5z" />
<glyph unicode="1" horiz-adv-x="720" d="M803 1231q-36 -169 -153 -533q-71 -222 -119 -401q-14 -65 -59 -191q-58 -116 -148 -116q-56 0 -30 123q39 182 152 524q117 356 156 524h-19q-114 0 -192 -14q-20 -4 -44.5 -4t-12.5 57q19 90 116 133q67 29 297 29q84 0 56 -131z" />
<glyph unicode="2" horiz-adv-x="1442" d="M1268 152q-9 -44 -51.5 -86t-85.5 -42q-12 0 -34.5 2.5t-34.5 2.5q-68 0 -205.5 -14.5t-206.5 -14.5q-324 0 -278 215q32 154 245 280q194 104 389 206q214 130 248 291q38 179 -196 179q-128 0 -290 -55q-180 -61 -266 -150q-9 -9 -11 -21q-6 -29 39 -67t36 -78 q-9 -41 -47 -80t-77 -39q-14 0 -29 10q-120 87 -92 215q43 205 338 347q251 119 478 119q167 0 248 -83q85 -91 50 -255q-65 -307 -449 -529q-113 -60 -228 -121q-189 -101 -192 -116q-11 -53 205 -53q57 0 172 13t171 13q173 0 154 -89z" />
<glyph unicode="3" horiz-adv-x="1478" d="M1361 367q-44 -207 -285 -304q-179 -73 -416 -73q-251 0 -334 34q-52 20 -42 65q10 49 53.5 89t92.5 40q55 0 161.5 -11.5t161.5 -11.5q105 0 223 23q161 31 198 93q14 141 -167 213q-132 51 -310 51q-29 0 -85.5 -5t-85.5 -5q-60 0 -47 60q20 95 124 141q32 14 140 38 q160 34 314 90q239 87 255 164q13 63 -85 97q-71 26 -153 26q-279 0 -586 -97q-28 -9 -35 -9q-59 0 -43 75q14 65 94 110q91 51 312 83q188 29 323 29q419 0 358 -285q-44 -208 -400 -357q128 -47 202 -133q89 -102 62 -230z" />
<glyph unicode="4" horiz-adv-x="1271" d="M1306 572q-10 -45 -44 -83t-79 -49q-21 -5 -69 -7q-9 -42 -27 -129q-17 -87 -26 -130q-44 -206 -155 -206q-46 0 -35 52q15 69 40 197q30 145 41 196q-307 -49 -428 -49q-157 0 -238 64q-99 75 -67 224q21 101 97 232q67 113 133 224q25 54 79 162q51 102 124 102 q60 0 43 -77q-22 -105 -143.5 -295.5t-143.5 -294.5q-30 -140 209 -140q76 0 380 46l46 215q57 268 166 268q29 0 29 -46q0 -63 -29 -203q-9 -39 -26 -109q-17 -77 -24 -108q43 3 83 3q76 0 64 -59z" />
<glyph unicode="5" horiz-adv-x="1476" d="M1438 596q-52 -243 -322 -427q-253 -172 -503 -172q-112 0 -223 47q-125 55 -160 139q-11 27 -7 49q9 41 48.5 81t79.5 40q7 0 99 -68q108 -80 254 -80q163 0 315 87q177 97 209 251q23 104 -49 162q-62 49 -171 49q-169 0 -394 -107q-179 -86 -201 -86q-74 0 -57 81 q44 203 232 525q-9 23 -3 50q22 104 130 135q31 8 179 13q51 2 261 12q161 9 260 9q102 0 87 -67q-22 -107 -128 -138q-34 -10 -168 -10q-75 0 -447 -24q-46 -96 -135 -290q268 124 471 124q184 0 280 -99q101 -105 63 -286z" />
<glyph unicode="6" horiz-adv-x="1374" d="M1431 645q-52 -244 -339 -449q-278 -196 -525 -196q-198 0 -268 138q-61 121 -17 328q45 213 194 473q161 283 332 406q42 31 69 31q64 0 48 -77q-6 -29 -45 -75q-73 -84 -144 -168q-80 -97 -126 -177q235 109 506 109q236 0 300 -131q42 -86 15 -212zM1249 614 q18 89 -57 135q-61 38 -158 38q-261 0 -531 -149q-26 -66 -36 -112q-69 -325 182 -325q191 0 388 145q184 137 212 268z" />
<glyph unicode="7" horiz-adv-x="1266" d="M1466 1260q-13 -62 -234 -340q-146 -178 -291 -355q-154 -193 -235 -324q-28 -52 -90 -149q-61 -82 -121 -82q-68 0 -54 67q4 15 17 42q130 250 344 531q139 186 405 497q-254 31 -617 31q-127 0 -182 18q-46 16 -39 53q10 43 49.5 81.5t82.5 38.5q46 0 122 -4 q94 -3 121 -3h203q410 0 480 -33l5 -1q44 -21 34 -68z" />
<glyph unicode="8" horiz-adv-x="1425" d="M1327 406q-42 -199 -267 -324q-166 -92 -396 -92q-193 0 -307 75q-141 92 -103 270q42 197 240 332q-130 70 -98 222q35 166 228 297l1 4q16 76 97 119q115 60 318 60q179 0 287 -96q119 -104 82 -278q-36 -174 -203 -287q159 -123 121 -302zM1225 956q22 102 -86 164 q-86 51 -201 51q-34 0 -67 -4q-31 -34 -110 -68q-95 -43 -120 -60q-60 -41 -73 -104q-30 -138 355 -138q87 0 176 36q110 46 126 123zM1144 364q17 78 -79 158q-91 74 -173 74q-142 0 -260 -40q-167 -54 -192 -169q-21 -102 103 -162q99 -46 217 -46q109 0 221 41 q144 53 163 144z" />
<glyph unicode="9" horiz-adv-x="1468" d="M1522 1171q-9 -41 -47.5 -82t-77.5 -41q5 0 -89 66.5t-181 66.5q-181 0 -357 -113q-192 -124 -229 -298q-23 -106 17 -181q45 -80 149 -80q118 0 260 87q50 30 218 160q110 87 158 87q70 0 54 -77q-20 -94 -135 -353q-119 -270 -174 -336q-68 -84 -137 -84q-59 0 -47 60 q17 78 87 213q54 108 109 214q-262 -198 -461 -198q-176 0 -261 117.5t-47 295.5q58 273 333 486q269 208 544 208q102 0 187 -44q91 -46 124 -128q8 -22 3 -46z" />
<glyph unicode=":" horiz-adv-x="568" d="M506 614q-12 -56 -64 -110.5t-106 -54.5q-67 0 -51 73q12 55 63 114t104 59q71 0 54 -81zM414 183q-14 -64 -61 -120q-53 -63 -112 -63q-31 0 -45 25.5t-8 56.5q13 58 63 119q56 70 111 70q71 0 52 -88z" />
<glyph unicode=";" horiz-adv-x="498" d="M509 572q-10 -46 -51 -87t-86 -41q-42 0 -58 46q-14 39 -4 85q11 51 53.5 94.5t92.5 43.5q39 0 51 -53q11 -44 2 -88zM386 155q0 -1 -41 -80q-61 -121 -78 -145q-62 -89 -125 -89q-67 0 -50 77q2 12 15 39q54 120 85 166q70 106 139 106q71 0 55 -74z" />
<glyph unicode="&#x3c;" horiz-adv-x="893" d="M910 952q-13 -65 -101 -116q-59 -34 -164 -82q-122 -56 -167 -80q80 -56 221 -188q28 -34 20 -70q-10 -47 -49 -92q-44 -49 -90 -49q-51 0 -190 123q-123 105 -170 170q-31 41 -23 77q13 60 83 113q218 162 571 276q12 4 15 4q29 0 40 -27.5t4 -58.5z" />
<glyph unicode="=" horiz-adv-x="1300" d="M1287 906q-11 -49 -56.5 -92.5t-95.5 -43.5q-75 0 -223.5 6.5t-223.5 6.5q-128 0 -191 21q-56 17 -46 68q12 55 60 99t101 44q56 0 143 -6q115 -9 143 -11q89 -1 177 -3q105 -3 169 -26q52 -17 43 -63zM1228 543q-24 -113 -128 -137q-29 -7 -206 -7q-87 0 -263.5 -11 t-263.5 -11q-80 0 -63 79q24 111 135 140q79 20 267 20q67 0 198 -2h198q60 0 87 -6q51 -12 39 -65z" />
<glyph unicode="&#x3e;" horiz-adv-x="1000" d="M948 720q-9 -42 -55 -89q-58 -59 -240 -192q-200 -145 -243 -145q-65 0 -46 87q11 54 75 105q85 58 251 181q-69 60 -181 123q-33 17 -95 57q-33 23 -25 59q9 46 55.5 94t90.5 48q77 0 218 -94q129 -87 176 -154q28 -39 19 -80z" />
<glyph unicode="?" horiz-adv-x="1236" d="M1442 1114q-39 -182 -215 -286q-115 -69 -362 -130q-270 -67 -352 -106q14 -31 7 -63q-9 -44 -44 -84q-41 -46 -82 -46q-44 0 -67 60q-22 55 -12 102q32 151 255 246q54 24 346 98q241 59 317 122q9 7 11 16q32 150 -335 150q-177 0 -347 -72q-39 -17 -52 -17 q-31 0 -44 25.5t-7 56.5q11 53 73 97q73 53 256 87q149 28 263 28q176 0 282 -55q142 -73 109 -229zM477 172q-5 -20 -45 -73q-47 -61 -53 -68q-37 -38 -75 -38q-59 0 -45 70q12 56 64 114q57 67 110 67q59 0 44 -72z" />
<glyph unicode="@" horiz-adv-x="1783" d="M1827 754q-44 -206 -189 -353q-157 -160 -358 -160q-215 0 -238 140q-125 -87 -212 -87q-92 0 -123 88q-26 74 -5 173q38 179 164 341q150 191 316 191q63 0 139 -44q85 -51 73 -108q-9 -39 -48.5 -80t-76.5 -41q-14 0 -63.5 41t-92.5 41q-76 0 -146 -109 q-53 -87 -72 -176q-22 -102 22 -102q51 0 150 84.5t140 84.5q33 0 47 -25t8 -57q-3 -11 -12 -32t-11 -32q-19 -88 120 -88q218 0 272 254q48 225 -60 406q-115 191 -335 191q-251 0 -499 -283q-221 -254 -277 -519q-89 -416 380 -416q77 0 62 -70q-29 -137 -230 -137 q-255 0 -362 156q-106 150 -51 407q47 221 211 470q170 258 386 421q244 183 471 183q264 0 416 -247q142 -234 84 -506z" />
<glyph unicode="A" horiz-adv-x="1065" d="M1054 130q-10 -45 -57 -92.5t-89 -47.5q-55 0 -69 176q-42 -7 -107 -7q-29 0 -85.5 1.5t-83.5 1.5h-293q-102 -182 -178 -182q-69 0 -54 73q10 46 265 474q156 261 314 524q46 77 90 154q54 87 107 145t99 58t61 -63q18 -87 19 -229q0 -206 1 -234q29 -240 61 -727 q1 -15 -1 -25zM818 314q-35 288 -40 705q-31 -50 -419 -705h459z" />
<glyph unicode="B" horiz-adv-x="1234" d="M1413 1101q-46 -217 -457 -410q120 -37 188 -112q83 -91 58 -209q-21 -99 -107 -184q-76 -75 -184 -123q-165 -73 -420 -73q-246 0 -307 42q-73 0 -57 74l69 329q77 360 185 652q-13 -3 -26 -3q-60 0 -44 73q14 65 96.5 113.5t308.5 82.5q187 29 320 29q437 0 377 -281z M1230 1065q15 68 -84 102q-69 23 -161 23q-201 0 -431 -53q-39 -149 -113 -446q210 55 435 145q334 133 354 229zM1011 314q21 102 -120 160q-109 45 -233 45q-121 0 -267 -29q-42 -174 -71 -285q218 -10 262 -10q270 0 387 80q39 25 42 39z" />
<glyph unicode="C" horiz-adv-x="1121" d="M1143 335q-5 -26 -25 -53q-93 -130 -239.5 -211t-291.5 -81q-225 0 -349.5 166.5t-76.5 393.5q55 259 317 539q283 300 532 300q244 0 243 -355l-1 -3q-9 -45 -51 -88.5t-87 -43.5q-30 0 -47 76q-26 109 -41 136q-37 75 -115 75q-149 0 -349 -227q-185 -210 -218 -367 q-36 -169 63.5 -289t269.5 -120q108 0 200 56q47 29 129 107q60 57 89 57q63 0 48 -68z" />
<glyph unicode="D" horiz-adv-x="1326" d="M1463 804q-59 -275 -478 -521q-282 -167 -676 -293q-23 -7 -33 -7q-60 0 -33 123q24 116 84 324q66 227 87 324l56 261q20 96 52 142q-177 -7 -160 -7q-62 0 -48 63q20 93 125 125q61 17 180 17h48q333 0 560 -113q298 -148 236 -438zM1288 761q41 195 -207 302 q-173 75 -420 91l-83 -413q-70 -325 -142 -540q265 94 486 217q332 186 366 343z" />
<glyph unicode="E" horiz-adv-x="1073" d="M1079 244q-24 -113 -174 -154q-121 -22 -241 -44q-62 -19 -124 -36q-73 -20 -122 -20q-357 0 -261 454q27 126 120 350q97 240 125 349q-32 11 -22 57q22 102 114 126q39 33 78 33q17 0 28 -14q297 44 627 44q63 0 50 -60q-16 -78 -107 -109q-32 -12 -191 -20 q-87 -5 -399 -39q-19 -65 -139 -361q162 29 419 29q93 0 77 -75q-18 -85 -117 -112q-25 -7 -130.5 -14.5t-317.5 -25.5q-11 -39 -19 -76q-69 -325 146 -325q83 0 248.5 53t249.5 53q95 0 82 -63z" />
<glyph unicode="F" horiz-adv-x="1111" d="M1384 1333q-20 -97 -126 -130q-33 -10 -219 -17q-71 -3 -464 -39q-20 -140 -63 -420q211 39 381 39q82 0 64 -85t-94 -114q-41 -16 -146 -23q-127 -6 -241 -18q-10 -46 -30 -147q-21 -97 -32 -147q-52 -246 -170 -246q-59 0 -43 77q10 43 29 125.5t28 125.5 q57 270 144 814q-26 -3 -50 -3q-64 0 -50 65q19 88 123 129q71 28 316 53q348 36 589 36q70 0 54 -75z" />
<glyph unicode="G" horiz-adv-x="1331" d="M1370 353q-9 -42 -47 -85t-79 -43q-24 0 -52 19q-122 -118 -279 -186t-307 -68q-239 0 -363.5 167t-73.5 408q44 208 190 398q137 182 338.5 310t380.5 128q94 0 173.5 -47.5t106.5 -126.5q9 -24 4 -46q-9 -43 -47 -84q-42 -46 -83 -46q-7 0 -78 74.5t-162 74.5 q-193 0 -392 -191q-190 -183 -233 -381q-38 -179 52 -297.5t268 -118.5q158 0 339 105q-251 140 -233 226q9 42 43 82q39 46 80 46q12 0 32 -16q56 -44 113 -88q66 -50 120 -77q59 -21 166 -80q30 -26 23 -57z" />
<glyph unicode="H" horiz-adv-x="1186" d="M1391 1295q-32 -153 -187 -664q-24 -80 -109 -375q-14 -56 -55 -167q-49 -99 -124 -99q-53 0 -38 73q4 19 81 290q-37 -39 -97 -39q-49 0 -121 15q-99 21 -118 24q-88 4 -264 17q-26 4 -41 11q-8 -35 -34 -156q-47 -218 -162 -218q-49 0 -32 78q32 152 96 395 q82 317 100 392l39 181q59 280 185 280q53 0 32 -99q-42 -198 -177 -679q28 20 57 20q135 0 304 -19q220 -25 269 -66q57 177 159 532q16 63 30 127q20 75 44 124q50 99 124 99q56 0 39 -77z" />
<glyph unicode="I" horiz-adv-x="785" d="M1000 1300q-22 -105 -127 -136q-28 -9 -79 -9q-5 0 -70 2q-134 -630 -233 -939q88 7 187 7q80 0 62 -83q-23 -108 -135 -135q-23 -5 -130 -14q-297 -22 -346 -22q-70 0 -55 72q18 85 92 121q45 22 149 34q45 154 119 480q72 315 121 479q-10 0 -48 -2q-30 -1 -49 -1 q-131 0 -112 87q10 46 47.5 87t81.5 41q38 0 113.5 1.5t113.5 1.5h153q72 0 106 -10q49 -15 39 -62z" />
<glyph unicode="J" horiz-adv-x="1270" d="M1365 744q-65 -305 -264 -517q-221 -237 -514 -237q-203 0 -355 100q-173 120 -133 309q29 135 163 243q114 90 268 141q20 7 36 7q56 0 42 -66q-15 -72 -91 -120q-66 -32 -132 -65q-73 -37 -83 -83q-23 -106 125 -186q128 -69 247 -69q209 0 340 145q115 125 161 342 q35 164 28 539q0 15 1 22q10 43 56.5 90t89.5 47q27 0 37 -41q24 -92 14 -294q-9 -181 -36 -307z" />
<glyph unicode="K" horiz-adv-x="1152" d="M1110 119q-9 -42 -50 -80.5t-84 -38.5q-19 0 -45 20q-18 16 -130 149q-191 227 -419 377l-87 -314q-41 -148 -45 -155q-41 -94 -121 -94q-60 0 -43 80q31 145 98 391q75 285 99 389l57 265q56 268 184 268q53 0 31 -108q-54 -251 -101 -442q93 68 265 171 q192 116 267 167q81 63 247 181q47 31 71 31q29 0 43 -24t8 -53q-7 -33 -49 -75q-116 -123 -362 -268q-332 -198 -391 -239q172 -111 456 -427q111 -124 101 -171z" />
<glyph unicode="L" horiz-adv-x="1068" d="M1112 232q-19 -92 -130 -133q-17 -7 -152 -32q-4 0 -214 -53q-128 -31 -214 -31q-174 0 -233 155q-48 127 -8 314q29 135 134.5 398.5t133.5 398.5q11 50 49 91.5t86 41.5q66 0 43 -109q-38 -179 -143 -454q-89 -234 -106 -314q-24 -116 1 -200q30 -104 136 -104 q92 0 277.5 53t277.5 53q78 0 62 -75z" />
<glyph unicode="M" horiz-adv-x="1599" d="M1573 131q-11 -49 -55.5 -95t-94.5 -46q-31 0 -43 46q-15 56 -19 140q1 73 1 145q-10 201 -20 604q-108 -200 -328 -594q-53 -92 -71 -121q-44 -68 -88 -114q-53 -57 -99 -57q-67 0 -89 384q-20 340 -56 565q-154 -382 -247 -631q-28 -75 -54 -150q-34 -88 -72 -147 q-51 -80 -112 -80q-70 0 -54 76q2 12 10 33q109 264 314 797q40 111 77 222q50 136 102 211q65 92 133 92q31 0 51 -42q24 -51 52 -236q68 -450 75 -713q147 249 321 585q35 70 72 140q43 80 85 135q69 89 128 89q43 0 52 -63q2 -23 0 -113q-5 -155 6 -377l24 -372 q4 -77 9 -156q4 -90 -10 -157z" />
<glyph unicode="N" horiz-adv-x="1147" d="M1348 1299q-32 -149 -103.5 -447.5t-103.5 -447.5q-33 -157 -73 -238q-27 -55 -68 -98q-51 -58 -95 -58q-21 0 -40 29q-31 45 -131 282q-87 201 -247 614q-66 -251 -169 -631q-17 -60 -33 -120q-22 -71 -49 -117q-54 -96 -126 -96q-46 0 -30 75q30 140 107 391 q82 271 112 389l43 205q71 334 197 334q26 0 47 -42q28 -57 59 -151q43 -129 52 -153q87 -205 259 -616q48 210 145 631q23 106 29 121q17 70 44 118q56 106 134 106q57 0 40 -80z" />
<glyph unicode="O" horiz-adv-x="1365" d="M1452 684q-60 -285 -263 -479q-217 -208 -497 -208q-273 0 -418 160q-150 166 -93 435q41 196 165 369q129 182 311 281q78 123 340 123q271 0 398 -208q117 -194 57 -473zM1253 625q50 237 -62.5 377.5t-350.5 140.5q-44 0 -152 -58q-257 -138 -317 -421 q-44 -207 75 -338q116 -125 326 -125q182 0 312 119.5t169 304.5z" />
<glyph unicode="P" horiz-adv-x="1246" d="M1414 882q-52 -247 -407 -408q-262 -117 -575 -153q-39 -166 -53 -200q-51 -124 -144 -124q-60 0 -41 88q20 96 64 267q48 187 66 266l52 244q13 61 54 106q45 51 104 51q58 0 31 -125q-20 -94 -84 -372q235 39 412 98q296 99 323 227q29 136 -134 220q-116 58 -286 76 q-113 7 -226 16q-154 12 -201 36.5t-38 64.5q10 46 49.5 81t83.5 35q75 0 242 -14q345 -29 500 -96q265 -116 208 -384z" />
<glyph unicode="Q" horiz-adv-x="1357" d="M1448 744q-66 -309 -312 -536q136 -157 124 -211q-8 -40 -46 -76.5t-77 -36.5q-53 0 -176 198q-169 -92 -343 -92q-243 0 -375 140q-140 148 -90 385q50 233 216 441q168 215 392 321q35 61 107 80q44 12 131 12q263 0 386 -183q120 -176 63 -442zM1256 691 q48 227 -75 352q-114 114 -346 114q-11 -7 -41 -24q-384 -208 -457 -548q-38 -179 70 -286q99 -101 284 -101q95 0 186 31q-72 148 -62 194q7 33 38.5 64.5t63.5 31.5q41 0 134 -184q160 146 205 356z" />
<glyph unicode="R" horiz-adv-x="1329" d="M1458 850q-55 -256 -450 -401q64 -130 145 -217q28 -27 53 -56q30 -38 23 -74q-9 -42 -51 -86.5t-83 -44.5q-14 0 -33 15q-178 140 -267 398q-205 -51 -452 -77q-31 -133 -50 -181q-50 -123 -123 -123q-43 0 -30 64q13 58 41.5 173t41.5 173q10 48 28 142l30 141 q55 258 122 471q-88 -1 -74 64q9 46 53.5 87t90.5 41q308 0 587 -76q206 -56 300 -133q138 -112 98 -300zM1279 823q33 157 -280 250q-180 53 -450 81q-15 -51 -152 -652q263 32 485 92q369 99 397 229z" />
<glyph unicode="S" horiz-adv-x="1253" d="M1267 346q-40 -184 -218 -276q-145 -77 -343 -77q-111 0 -262 26q-175 29 -234 70q-49 34 -39 80q12 55 54.5 91.5t95.5 36.5q32 0 149 -31q182 -48 363 -48q68 0 131 14q94 19 103 58q23 108 -210 178q-388 117 -428 138q-223 113 -178 326q46 218 311 336 q209 94 452 94q394 0 349 -208q-12 -60 -72 -139q-68 -87 -123 -87q-32 0 -46 31q-14 26 -6 60q9 43 42 78q-67 50 -247 50q-276 0 -432 -120q-28 -22 -33 -42q-29 -137 204 -210q216 -65 433 -128q226 -101 184 -301z" />
<glyph unicode="T" horiz-adv-x="1526" d="M1760 1340q-21 -99 -127 -133q-43 -14 -117 -17q-60 -2 -119 -4q-93 -7 -248 -27q-191 -27 -248 -34q-28 -133 -86 -359q-69 -266 -90 -356l-43 -203q-44 -207 -143 -207q-29 0 -32 46q-7 75 27 234q35 165 99 416q103 398 106 415q-171 -14 -330 -14q-123 0 -109 64 q10 49 54.5 93.5t93.5 44.5q7 0 19.5 -2t19.5 -2q196 0 593.5 56.5t594.5 56.5q99 0 85 -68z" />
<glyph unicode="U" horiz-adv-x="1369" d="M1469 794q-73 -342 -231 -541q-198 -250 -515 -250q-292 0 -440 157q-153 168 -92 454q27 128 117 337q94 216 171 322q55 75 103 75q63 0 49 -65q-4 -18 -11 -34q-3 -8 -136 -280q-82 -167 -107 -285q-49 -232 91 -358q128 -111 368 -111q191 0 300 162q76 113 122 331 q21 96 28.5 284.5t27.5 284.5q9 42 58 88t92 46q65 0 48 -274q-13 -202 -43 -343z" />
<glyph unicode="V" horiz-adv-x="1222" d="M1475 1319q-4 -19 -26 -56q-27 -48 -161 -246q-116 -170 -343 -512q-76 -123 -153 -246q-98 -153 -176 -227q-68 -64 -120 -64q-32 0 -43 42q-8 28 -13 159q-3 104 -27 275q-35 208 -70 418q-51 317 -36 391q10 44 53 88.5t85 44.5q27 0 47 -46q31 -74 65 -285 q58 -362 80 -738q210 294 469 695q54 84 106 167q63 96 117 159t92 63q31 0 46 -25.5t8 -56.5z" />
<glyph unicode="W" horiz-adv-x="1710" d="M1928 1323q-2 -12 -9 -31q-113 -270 -329 -812q-41 -113 -80 -226q-53 -135 -109 -215q-64 -92 -129 -92q-29 0 -50 43q-31 59 -64 246q-75 411 -90 742q-170 -275 -348 -611q-38 -73 -77 -145q-46 -84 -90 -140q-69 -89 -131 -89q-41 0 -50 63q-4 28 -4 116 q-1 75 -9 268q-7 270 -34 806q-2 12 -1 14q9 42 58.5 85.5t91.5 43.5q29 0 44 -44q19 -58 22 -145q3 -77 4 -152q13 -210 27 -632q180 314 361 618q37 63 74 127q44 71 87 119q52 60 91 60q55 0 73 -120q6 -32 28 -281q28 -309 80 -586q115 272 260 656q29 78 59 155 q37 90 77 152q56 85 114 85q70 0 53 -78z" />
<glyph unicode="X" horiz-adv-x="1178" d="M1121 60q-9 -40 -49.5 -80t-79.5 -40q-20 0 -35.5 22.5t-89.5 199.5q-31 79 -194 410q-107 -113 -314 -347q-44 -59 -140 -172q-53 -56 -94 -56q-29 0 -44.5 23t-8.5 53q22 104 530 632q-257 517 -246 568q9 43 49.5 89t81.5 46q19 0 38 -29q13 -19 78 -169 q58 -111 169 -331l239 239q142 138 253 227q47 37 71 37q29 0 40.5 -24.5t5.5 -55.5q-7 -31 -43 -75q-23 -27 -161 -155q-108 -99 -338 -331q298 -604 282 -681z" />
<glyph unicode="Y" horiz-adv-x="1309" d="M1385 695q-66 -309 -221 -487q-183 -208 -478 -208q-90 0 -223 27q-151 29 -201 69q-33 25 -26 59q10 46 52 92.5t86 46.5q5 0 17 -4q260 -78 383 -78t198 43.5t130 157.5q40 84 88 311q-246 -209 -537 -209q-232 0 -328 151q-95 143 -45 378q70 332 208 332 q31 0 47.5 -25t9.5 -56q-7 -32 -31 -97t-31 -97q-34 -162 33.5 -263t227.5 -101q142 0 276 74q145 78 211 208q18 133 38 227q12 56 51 101q45 51 100 51q96 0 48 -227q-17 -80 -41.5 -238t-41.5 -238z" />
<glyph unicode="Z" horiz-adv-x="1382" d="M1373 198q-19 -90 -123 -131q-49 -19 -279 -35q-614 -39 -791 -39q-87 0 -72 74q9 42 51 95q58 75 159 164l176 150q248 222 713 669q-472 26 -687 26q-94 0 -140 13q-53 16 -44 60q11 50 55.5 92.5t94.5 42.5q27 0 187 -10q126 -5 378 -16q331 -13 360 -13q99 0 85 -67 q-9 -41 -51 -99q-82 -109 -340 -353q-228 -205 -680 -620q136 4 451 35q293 29 451 29q60 0 46 -67z" />
<glyph unicode="[" horiz-adv-x="1017" d="M854 142q-10 -50 -46 -91.5t-87 -53.5q-30 -7 -182 -7q-29 0 -85 -2t-85 -2q-119 0 -100 91q11 48 46 89q30 105 47 187q28 130 70 405q44 266 74 406q-85 -2 -67 85q11 48 49.5 89t84.5 41q70 0 213.5 9.5t213.5 9.5q79 0 64 -72q-24 -111 -156 -143q-52 -14 -219 -19 q-27 -184 -54 -369q-32 -220 -63 -368q-24 -110 -53 -215h6q35 0 109 2.5t110 2.5q126 0 110 -75z" />
<glyph unicode="\" horiz-adv-x="809" d="M724 -218q-10 -47 -49 -83.5t-83 -36.5q-36 0 -49.5 40t-18.5 107q-1 58 -4 114q-9 106 -44 388q-42 295 -83 592q-65 491 -55 536q9 44 54 91t88 47q36 0 52 -87q8 -62 13 -121q8 -74 111 -770q70 -466 71 -782q1 -15 -3 -35z" />
<glyph unicode="]" horiz-adv-x="1014" d="M864 130q-11 -48 -46 -89q-42 -44 -89 -44q-70 0 -213 -7t-213 -7q-77 0 -62 70q24 111 156 143q51 14 217 19q27 186 55 374q34 222 67 374q20 97 49 201q-26 0 -91 -2h-90q-77 0 -111 9q-53 13 -42 68q11 50 48 92.5t85 50.5q18 4 131 4h112q77 2 115 2q112 0 94 -86 q-10 -46 -48 -89q-15 -54 -35 -151q-29 -135 -76 -424q-46 -276 -78 -423q83 2 65 -85z" />
<glyph unicode="^" horiz-adv-x="1027" d="M999 483q-10 -46 -57.5 -99t-91.5 -53q-72 0 -106 304q-13 191 -29 384q-155 -258 -236 -411q-31 -67 -108 -195q-62 -82 -124 -82q-68 0 -53 68q9 41 227 427.5t261 439.5q83 103 141 103q59 0 94 -193q10 -53 33 -251q16 -114 33 -229q24 -175 16 -213z" />
<glyph unicode="_" horiz-adv-x="1359" d="M1104 0h-853l29 137h853z" />
<glyph unicode="`" horiz-adv-x="577" d="M819 1606q-9 -46 -50 -92t-85 -46q-26 0 -48 24q-32 34 -91.5 195t-50.5 204q10 48 57 91.5t93 43.5q36 0 53 -43q21 -61 60 -184q22 -46 58 -144q8 -30 4 -49z" />
<glyph unicode="a" horiz-adv-x="1070" d="M1055 130q-10 -45 -56.5 -92.5t-89.5 -47.5q-54 0 -68 176q-42 -7 -107 -7q-29 0 -85.5 1.5t-83.5 1.5h-294q-101 -182 -178 -182q-68 0 -53 73q10 46 265 474q156 261 314 524q46 77 89 154q55 87 108 145t99 58t60 -63q19 -87 20 -229q0 -206 1 -234q29 -240 61 -727 q0 -15 -2 -25zM820 314q-35 288 -40 705q-31 -51 -419 -705h459z" />
<glyph unicode="b" horiz-adv-x="1242" d="M1418 1101q-46 -217 -457 -410q120 -37 188 -112q83 -91 58 -209q-21 -99 -107 -184q-76 -75 -184 -123q-165 -73 -420 -73q-245 0 -306 42q-74 0 -58 74l69 329q77 360 185 652q-13 -3 -26 -3q-60 0 -44 73q14 65 96.5 113.5t308.5 82.5q187 29 321 29q436 0 376 -281z M1235 1065q15 68 -84 102q-69 23 -161 23q-201 0 -431 -53q-38 -149 -113 -446q210 55 435 145q334 133 354 229zM1016 314q21 102 -120 160q-108 45 -233 45q-121 0 -267 -29q-42 -174 -70 -285q217 -10 261 -10q270 0 387 80q39 25 42 39z" />
<glyph unicode="c" horiz-adv-x="1130" d="M1146 335q-5 -26 -24 -53q-93 -130 -240 -211t-292 -81q-225 0 -349 166.5t-76 393.5q55 259 317 539q282 300 532 300q244 0 242 -355l-1 -3q-9 -45 -51 -88.5t-86 -43.5q-31 0 -47 76q-27 109 -41 136q-37 75 -116 75q-148 0 -348 -227q-185 -210 -218 -367 q-36 -169 63 -289t270 -120q107 0 199 56q47 29 129 107q60 57 89 57q63 0 48 -68z" />
<glyph unicode="d" horiz-adv-x="1331" d="M1466 804q-59 -275 -478 -521q-282 -167 -676 -293q-22 -7 -33 -7q-59 0 -32 123q24 116 83 324q66 227 88 324l56 261q20 96 52 142q-178 -7 -161 -7q-61 0 -47 63q20 93 125 125q60 17 180 17h47q333 0 560 -113q298 -148 236 -438zM1292 761q41 195 -208 302 q-173 75 -419 91l-84 -413q-70 -325 -142 -540q266 94 486 217q333 186 367 343z" />
<glyph unicode="e" horiz-adv-x="1080" d="M1083 244q-24 -113 -175 -154q-121 -22 -241 -44q-62 -19 -124 -36q-72 -20 -122 -20q-356 0 -260 454q27 126 119 350q97 240 125 349q-32 11 -22 57q22 102 114 126q39 33 79 33q17 0 27 -14q298 44 627 44q63 0 50 -60q-16 -78 -106 -109q-33 -12 -192 -20 q-88 -5 -399 -39q-19 -65 -138 -361q161 29 419 29q92 0 76 -75q-18 -85 -116 -112q-25 -7 -130.5 -14.5t-318.5 -25.5q-11 -39 -19 -76q-69 -325 146 -325q84 0 249.5 53t248.5 53q96 0 83 -63z" />
<glyph unicode="f" horiz-adv-x="1114" d="M1387 1333q-20 -97 -126 -130q-32 -10 -219 -17q-71 -3 -463 -39q-20 -140 -64 -420q211 39 382 39q82 0 64 -85t-94 -114q-42 -16 -147 -23q-126 -6 -241 -18q-10 -46 -29 -147q-21 -97 -32 -147q-52 -246 -170 -246q-60 0 -44 77q10 43 29.5 125.5t28.5 125.5 q57 270 144 814q-27 -3 -51 -3q-63 0 -49 65q23 109 187 150q41 10 251 32q347 36 589 36q70 0 54 -75z" />
<glyph unicode="g" horiz-adv-x="1336" d="M1374 353q-9 -42 -47 -85t-79 -43q-24 0 -53 19q-122 -118 -279 -186t-307 -68q-239 0 -363 167t-73 408q44 208 189 398q137 182 338.5 310t380.5 128q94 0 173.5 -47.5t107.5 -126.5q8 -24 3 -46q-9 -43 -47 -84q-42 -46 -83 -46q-7 0 -78 74.5t-161 74.5 q-193 0 -393 -191q-190 -183 -233 -381q-38 -179 52.5 -297.5t267.5 -118.5q159 0 340 105q-252 140 -234 226q9 42 44 82q39 46 80 46q11 0 31 -16q56 -44 114 -88q66 -50 119 -77q59 -21 166 -80q31 -26 24 -57z" />
<glyph unicode="h" horiz-adv-x="1191" d="M1395 1295q-32 -153 -188 -664q-23 -80 -109 -375q-14 -56 -55 -167q-48 -99 -123 -99q-53 0 -38 73q4 19 80 290q-37 -39 -96 -39q-50 0 -122 15q-98 21 -118 24q-87 4 -264 17q-25 4 -40 11q-9 -35 -35 -156q-47 -218 -161 -218q-50 0 -33 78q32 152 96 395 q82 317 100 392l39 181q59 280 185 280q53 0 32 -99q-42 -198 -176 -679q28 20 57 20q135 0 303 -19q220 -25 269 -66q57 177 159 532q16 63 31 127q19 75 44 124q50 99 123 99q57 0 40 -77z" />
<glyph unicode="i" horiz-adv-x="350" d="M555 1254q-35 -162 -119 -488t-119 -488q-60 -281 -192 -281q-68 0 -49 88q30 140 93 383q74 276 99 382l51 241q63 295 203 295q61 0 33 -132z" />
<glyph unicode="j" horiz-adv-x="1273" d="M1365 744q-65 -305 -264 -517q-221 -237 -514 -237q-203 0 -355 100q-173 120 -133 309q29 135 163 243q114 90 268 141q20 7 36 7q56 0 42 -66q-15 -72 -91 -120q-66 -32 -132 -65q-73 -37 -83 -83q-23 -106 125 -186q128 -69 247 -69q209 0 340 145q115 125 161 342 q35 164 28 539q0 15 1 22q10 43 56.5 90t89.5 47q27 0 37 -41q24 -92 14 -294q-9 -181 -36 -307z" />
<glyph unicode="k" horiz-adv-x="1159" d="M1114 119q-9 -42 -50.5 -80.5t-83.5 -38.5q-19 0 -46 20q-18 16 -130 149q-191 227 -418 377l-88 -314q-41 -148 -45 -155q-40 -94 -120 -94q-60 0 -43 80q31 145 97 391q76 285 100 389l57 265q56 268 184 268q52 0 30 -108q-54 -251 -100 -442q92 68 264 171 q193 116 267 167q81 63 248 181q47 31 70 31q29 0 43 -24t8 -53q-7 -33 -48 -75q-117 -123 -363 -268q-332 -198 -391 -239q172 -111 457 -427q111 -124 101 -171z" />
<glyph unicode="l" horiz-adv-x="1070" d="M1114 232q-19 -92 -130 -133q-17 -7 -153 -32q-3 0 -214 -53q-128 -31 -213 -31q-174 0 -233 155q-48 127 -8 314q29 135 134.5 398.5t133.5 398.5q11 50 49 91.5t85 41.5q67 0 44 -109q-38 -179 -143 -454q-89 -234 -106 -314q-24 -116 0 -200q31 -104 137 -104 q92 0 277 53t277 53q79 0 63 -75z" />
<glyph unicode="m" horiz-adv-x="1604" d="M1574 131q-11 -49 -55.5 -95t-93.5 -46q-31 0 -43 46q-15 56 -19 140q1 73 0 145q-10 201 -19 604q-108 -200 -329 -594q-53 -92 -71 -121q-44 -68 -88 -114q-53 -57 -99 -57q-66 0 -88 384q-21 340 -56 565q-155 -382 -247 -631q-28 -75 -54 -150q-34 -88 -72 -147 q-51 -80 -113 -80q-70 0 -54 76q2 12 11 33q109 264 314 797q39 111 77 222q50 136 102 211q64 92 133 92q30 0 50 -42q25 -51 53 -236q68 -450 75 -713q147 249 321 585q34 70 72 140q42 80 85 135q68 89 128 89q43 0 52 -63q2 -23 0 -113q-6 -155 6 -377q12 -186 23 -372 q5 -77 10 -156q3 -90 -11 -157z" />
<glyph unicode="n" horiz-adv-x="1150" d="M1349 1299q-32 -150 -103.5 -448t-103.5 -448q-33 -156 -73 -237q-26 -55 -67 -98q-51 -58 -95 -58q-21 0 -41 29q-31 45 -131 282q-86 201 -246 614q-66 -251 -170 -631q-16 -60 -33 -120q-21 -71 -48 -117q-55 -96 -126 -96q-46 0 -30 75q30 140 107 391 q82 271 112 389l43 205q71 334 197 334q25 0 47 -42q27 -57 59 -151l51 -153q88 -205 260 -616q48 210 144 631q24 106 30 121q17 70 44 118q56 106 134 106q56 0 39 -80z" />
<glyph unicode="o" horiz-adv-x="1369" d="M1454 684q-60 -285 -263 -479q-217 -208 -497 -208q-273 0 -419 160q-150 166 -93 435q41 196 165 369q130 182 311 281q79 123 340 123q272 0 398 -208q118 -194 58 -473zM1254 625q50 237 -62.5 377.5t-349.5 140.5q-44 0 -152 -58q-257 -138 -317 -421 q-44 -207 75 -338q116 -125 325 -125q183 0 312.5 119.5t168.5 304.5z" />
<glyph unicode="p" horiz-adv-x="1249" d="M1416 882q-52 -247 -407 -408q-262 -117 -576 -153q-38 -166 -52 -200q-51 -124 -145 -124q-60 0 -41 88q20 96 64 267q49 187 67 266l52 244q13 61 53 106q45 51 105 51q58 0 31 -125q-20 -94 -84 -372q235 39 412 98q296 99 323 227q29 136 -134 220q-116 58 -286 76 q-114 7 -226 16q-154 12 -201 36.5t-38 64.5q10 46 49.5 81t83.5 35q75 0 242 -14q345 -29 500 -96q265 -116 208 -384z" />
<glyph unicode="q" horiz-adv-x="1360" d="M1450 744q-66 -309 -312 -536q136 -157 124 -211q-8 -40 -46 -76.5t-77 -36.5q-53 0 -177 198q-169 -92 -343 -92q-242 0 -374 140q-140 148 -90 385q50 233 215 441q169 215 393 321q35 61 107 80q44 12 131 12q263 0 386 -183q120 -176 63 -442zM1258 691 q48 227 -75 352q-114 114 -346 114q-11 -7 -41 -24q-384 -206 -457 -548q-38 -179 70 -286q99 -101 283 -101q96 0 186 31q-71 148 -61 194q7 33 38.5 64.5t63.5 31.5q41 0 133 -184q161 146 206 356z" />
<glyph unicode="r" horiz-adv-x="1333" d="M1459 850q-55 -256 -449 -401q63 -130 145 -217q27 -27 53 -56q29 -38 22 -74q-9 -42 -51 -86.5t-82 -44.5q-14 0 -33 15q-179 140 -267 398q-205 -51 -452 -77q-32 -133 -50 -181q-50 -123 -123 -123q-43 0 -30 64q13 58 41.5 173t41.5 173q10 48 28 142l30 141 q55 258 122 471q-89 -1 -75 64q9 46 54 87t91 41q307 0 586 -76q207 -56 301 -133q137 -112 97 -300zM1281 823q33 157 -280 250q-180 53 -451 81q-14 -51 -151 -652q263 32 485 92q369 99 397 229z" />
<glyph unicode="s" horiz-adv-x="1256" d="M1269 346q-40 -184 -218 -276q-146 -77 -344 -77q-111 0 -261 26q-175 29 -234 70q-49 34 -39 80q12 55 54.5 91.5t94.5 36.5q33 0 150 -31q182 -48 362 -48q69 0 131 14q95 19 104 58q23 108 -211 178q-388 117 -427 138q-223 113 -178 326q46 218 311 336 q209 94 451 94q395 0 350 -208q-12 -60 -72 -139q-69 -87 -123 -87q-33 0 -46 31q-14 26 -6 60q9 43 42 78q-68 50 -247 50q-276 0 -432 -120q-28 -22 -33 -42q-29 -137 203 -210q217 -65 434 -128q226 -101 184 -301z" />
<glyph unicode="t" horiz-adv-x="1529" d="M1761 1340q-21 -99 -127 -133q-42 -14 -116 -17q-60 -2 -119 -4q-93 -7 -248 -27q-191 -27 -248 -34q-28 -133 -86 -359q-69 -266 -90 -356l-43 -203q-44 -207 -143 -207q-29 0 -33 46q-6 75 28 234q35 165 98 416q104 398 107 415q-172 -14 -331 -14q-122 0 -108 64 q10 49 54.5 93.5t93.5 44.5q7 0 19.5 -2t18.5 -2q197 0 594.5 56.5t593.5 56.5q99 0 85 -68z" />
<glyph unicode="u" horiz-adv-x="1372" d="M1471 794q-73 -342 -231 -541q-198 -250 -515 -250q-292 0 -440 157q-154 168 -93 454q27 128 118 337q93 216 171 322q55 75 103 75q63 0 49 -65q-4 -18 -11 -34q-3 -8 -136 -280q-82 -167 -107 -285q-49 -232 91 -358q127 -111 368 -111q191 0 300 162q75 113 121 331 q21 96 28.5 284.5t27.5 284.5q9 42 58.5 88t92.5 46q65 0 47 -274q-12 -202 -42 -343z" />
<glyph unicode="v" horiz-adv-x="1222" d="M1475 1319q-4 -19 -26 -56q-27 -48 -161 -246q-116 -170 -343 -512q-77 -123 -153 -246q-98 -153 -176 -227q-68 -64 -120 -64q-32 0 -43 42q-8 28 -13 159q-3 104 -27 275q-35 208 -70 418q-51 317 -36 391q10 44 53 88.5t85 44.5q27 0 47 -46q31 -74 65 -285 q58 -362 80 -738q210 294 469 695q54 84 106 167q63 96 117 159t92 63q31 0 46 -25.5t8 -56.5z" />
<glyph unicode="w" horiz-adv-x="1710" d="M1928 1323q-2 -12 -9 -31q-113 -270 -329 -812q-41 -113 -80 -226q-53 -135 -109 -215q-64 -92 -129 -92q-29 0 -50 43q-31 59 -64 246q-75 411 -90 742q-170 -275 -348 -611q-38 -73 -77 -145q-46 -84 -90 -140q-69 -89 -131 -89q-41 0 -50 63q-4 28 -4 116 q-1 75 -9 268q-7 270 -34 806q-2 12 -1 14q9 42 58.5 85.5t91.5 43.5q29 0 44 -44q19 -58 22 -145q3 -77 4 -152q13 -210 27 -632q181 316 361 618q37 63 74 127q44 71 87 119q52 60 91 60q55 0 73 -120q6 -32 28 -281q28 -309 80 -586q115 272 260 656q29 78 59 155 q37 90 77 152q56 85 114 85q70 0 53 -78z" />
<glyph unicode="x" horiz-adv-x="1179" d="M1121 60q-9 -40 -49.5 -80t-79.5 -40q-20 0 -35.5 22.5t-89.5 199.5q-33 79 -194 410q-107 -113 -314 -347q-44 -59 -140 -172q-53 -56 -94 -56q-29 0 -44.5 23t-8.5 53q22 104 530 632q-257 517 -246 568q9 43 49.5 89t81.5 46q19 0 38 -29q13 -19 78 -169 q58 -111 169 -331l239 239q142 138 253 227q47 37 71 37q29 0 40.5 -24.5t5.5 -55.5q-7 -31 -43 -75q-23 -27 -161 -155q-108 -99 -338 -331q298 -604 282 -681z" />
<glyph unicode="y" horiz-adv-x="1309" d="M1385 695q-66 -309 -221 -487q-183 -208 -478 -208q-90 0 -223 27q-151 29 -201 69q-33 25 -26 59q10 46 52 92.5t86 46.5q5 0 17 -4q260 -78 383 -78t198 43.5t130 157.5q40 84 88 311q-246 -209 -537 -209q-232 0 -328 151q-95 143 -45 378q70 332 208 332 q31 0 47.5 -25t9.5 -56q-7 -32 -31 -97t-31 -97q-34 -162 33.5 -263t227.5 -101q142 0 276 74q145 78 211 208q18 133 38 227q12 56 51 101q45 51 100 51q96 0 48 -227q-17 -80 -41.5 -238t-41.5 -238z" />
<glyph unicode="z" horiz-adv-x="1382" d="M1373 198q-19 -90 -123 -131q-50 -21 -279 -35q-627 -39 -791 -39q-87 0 -72 74q9 42 51 95q58 75 159 164l176 150q248 222 713 669q-472 26 -687 26q-94 0 -140 13q-53 16 -44 60q11 50 55.5 92.5t94.5 42.5q27 0 187 -10q126 -5 378 -16q331 -13 360 -13q99 0 85 -67 q-9 -41 -51 -99q-82 -109 -340 -353q-228 -205 -680 -620q136 4 451 35q293 29 451 29q60 0 46 -67z" />
<glyph unicode="{" horiz-adv-x="1055" d="M944 191q-18 -82 -170 -152q-129 -59 -223 -59q-81 0 -115 58q-30 52 -12 134q13 62 63 166q54 114 69 164q-48 24 -96 24q-17 0 -49 -2t-49 -2q-219 0 -199 92q22 106 140 144q38 12 139 25q91 12 142 36q-11 60 -22 121q-12 72 -1 125q51 237 444 346q13 4 20 4 q53 0 38 -70q-15 -72 -70 -108q-29 -18 -110.5 -43t-118.5 -54q-9 -8 -11 -17q-10 -44 12 -134t11 -142q-17 -79 -80 -139q75 -49 52 -158q-12 -57 -63.5 -166t-63.5 -166q-4 -20 13 -20q46 0 133.5 36.5t123.5 36.5q31 0 45.5 -23.5t7.5 -56.5z" />
<glyph unicode="|" horiz-adv-x="541" d="M678 1464q-7 -32 -76 -324q-54 -234 -168 -703q-44 -161 -133 -483q-11 -55 -48 -162q-56 -116 -153 -116q-63 0 -50 59q2 12 10 33q115 307 193 672q85 403 202 840q12 53 49 159q49 106 131 106q60 0 43 -81z" />
<glyph unicode="}" horiz-adv-x="1053" d="M1188 787q-10 -48 -51 -90t-90 -55q-34 -11 -139 -24q-88 -12 -141 -36q10 -61 19 -121q10 -72 -2 -126q-52 -245 -440 -345q-12 -4 -21 -4q-50 0 -35 70q16 75 70 110q26 15 113 41q75 22 111 54q11 9 14 19q9 43 -12 132.5t-10 142.5q16 76 78 136q-76 50 -53 159 q12 58 63.5 169t64.5 169q3 15 -15 15q-46 0 -134.5 -37.5t-120.5 -37.5q-67 0 -50 82q14 65 102 116q165 96 288 96q80 0 110.5 -56.5t13.5 -138.5q-13 -61 -58 -164q-54 -116 -68 -164q43 -23 80 -23q19 0 57 1.5t57 1.5q219 0 199 -92z" />
<glyph unicode="~" horiz-adv-x="1345" d="M1334 869q-26 -121 -159.5 -244t-255.5 -123q-83 0 -201 81t-195 81q-65 0 -143 -59t-104 -59q-30 0 -43 29q-12 24 -5 56q8 38 49 82q63 70 159 116.5t182 46.5q97 0 223.5 -81.5t177.5 -81.5q48 0 124.5 116t136.5 116q70 0 54 -76z" />
<glyph unicode="&#xa1;" horiz-adv-x="507" d="M668 1142q4 19 -25 -70q-5 -14 -12 -39q-14 -41 -50 -73.5t-75 -32.5q-63 0 -45 83q13 65 53 123q51 72 107 72q60 0 47 -63zM524 672q-12 -58 -76 -213q-36 -89 -157 -367q-24 -65 -90 -189q-52 -77 -119 -77q-56 0 -40 77q21 95 88 235q101 210 108 231q28 87 102 257 q60 110 144 110q53 0 40 -64z" />
<glyph unicode="&#xa2;" horiz-adv-x="1237" d="M1433 1154q-8 -41 -47 -78.5t-80 -37.5q-12 0 -74 46q-73 51 -80 56l-450 -654q47 -6 204 -6q104 0 149 -14q53 -15 43 -63q-11 -48 -46.5 -87.5t-82.5 -50.5q-25 -7 -71 -7q-241 0 -342 20l-191 -275q-37 -52 -87 -52q-29 0 -42.5 23.5t-7.5 54.5q8 38 189 295 q-245 108 -192 357q53 251 359 468q291 206 547 206q51 80 166 236q48 56 86 56q29 0 43.5 -23t8.5 -54q-9 -39 -156 -247q57 -26 102 -67q62 -56 52 -102zM988 1150q-129 -17 -260.5 -88.5t-222.5 -175.5q-74 -86 -89 -156q-27 -129 140 -201q92 135 432 621z" />
<glyph unicode="&#xa3;" horiz-adv-x="1417" d="M1336 159q-23 -108 -136 -142q-58 -17 -166 -17q-129 0 -385.5 3.5t-386.5 3.5q-84 0 -68 75q24 109 142 150q45 14 89 26q47 20 58 70q14 65 -15 194q-50 0 -64 7q-28 10 -19 53q9 44 48 89q-30 143 -7 251q37 174 233 315q186 135 363 135q99 0 142 -54.5t22 -153.5 q-42 -198 -162 -198q-66 0 -51 68q2 12 12.5 37t13.5 37q11 53 -52 53q-91 0 -190 -57q-109 -63 -127 -148q-13 -60 32 -236q203 7 396 7q124 0 108 -72q-11 -51 -56.5 -93.5t-96.5 -42.5q-34 0 -101 1.5t-101 1.5h-115q6 -78 -11 -162q-13 -58 -52 -119q112 3 168 3h313 q114 0 176 -19q56 -17 46 -66z" />
<glyph unicode="&#xa4;" horiz-adv-x="1379" d="M1382 1075q-11 -56 -80 -109q-57 -39 -116 -80q26 -82 5 -181q-23 -108 -99 -203q100 -121 89 -171q-9 -46 -51.5 -88t-88.5 -42q-37 0 -157 159q-40 -10 -80 -10q-75 0 -133 24q-223 -162 -259 -162q-70 0 -53 78q14 68 188 190q-51 80 -31 172q15 73 52 142 q-144 141 -129 211q9 45 52 90t86 45q20 0 43 -29q34 -46 106 -136q146 109 221 109q71 0 155 -69q170 142 224 142q33 0 48.5 -24.5t7.5 -57.5zM991 649q28 134 -113 211q-55 -8 -100 -41q-51 -36 -61 -85q-14 -67 43.5 -118t125.5 -51q87 0 105 84z" />
<glyph unicode="&#xa5;" horiz-adv-x="1618" d="M1612 558q-20 -90 -118 -121q-26 -9 -183 -17q-49 -4 -384 -36l-16 -73q155 13 334 13q84 0 70 -63q-23 -109 -145 -136q-47 -12 -204 -12q-43 0 -85 -4q-11 -49 -51 -89q-41 -44 -89 -44q-62 0 -44 113q-34 -5 -193 -36q-117 -24 -191 -24q-66 0 -52 63q18 85 108 132 q67 34 186 49q85 9 171 17l16 77q-348 -32 -441 -32q-78 0 -62 75q21 97 127 129q74 22 224 22h12q73 0 112 4q-225 635 -218 669q9 43 52.5 82t85.5 39q33 0 56 -39q18 -33 74 -219q72 -240 155 -459q406 490 646 714q58 53 99 53q29 0 46 -20t11 -49q-10 -49 -225 -285 q-138 -150 -412 -455q370 32 472 32q70 0 56 -70z" />
<glyph unicode="&#xa6;" horiz-adv-x="567" d="M537 899q-11 -51 -54.5 -88.5t-93.5 -37.5q-44 0 -40 60q13 66 37 201q65 372 75 420q11 51 45 92q41 48 91 48q53 0 57 -51q1 -21 -15 -94l-21 -97q-16 -75 -40.5 -226t-40.5 -227zM341 -41q-64 -302 -177 -302q-49 0 -34 72q12 54 41.5 161.5t40.5 162.5q9 41 23 122 t23 122q8 36 42 69t68 33q29 0 31 -46q6 -95 -28 -254z" />
<glyph unicode="&#xa8;" horiz-adv-x="1162" d="M1310 1753q-6 -28 -28 -81.5t-28 -80.5q-8 -40 -49 -78t-80 -38q-36 0 -49 42q-8 33 1 74q15 71 63 146q61 91 123 91q63 0 47 -75zM788 1722q-3 -12 -37 -89q-36 -87 -52 -107q-41 -58 -99 -58q-68 0 -44 112q4 21 43 116q50 122 139 122q70 0 50 -96z" />
<glyph unicode="&#xa9;" horiz-adv-x="2121" d="M2109 727q-81 -381 -456 -621q-341 -219 -735 -219q-334 0 -504 188q-177 196 -107 527q48 226 201 437q159 224 368 331q68 35 140 58q23 6 72 19q22 10 71 28q106 32 223 32q339 0 561 -217q236 -232 166 -563zM1911 681q11 51 5 106q-21 211 -190.5 355.5 t-393.5 144.5q-310 0 -529 -159q-232 -167 -297 -473q-54 -254 108 -404q151 -138 412 -138q358 0 619 191q220 162 266 377zM1478 963q-9 -43 -47 -84q-42 -46 -83 -46q-16 0 -44.5 8.5t-43.5 8.5q-74 0 -131 -50.5t-73 -125.5q-26 -124 126 -124q22 0 69 7.5t69 7.5 q53 0 39 -68q-35 -162 -286 -162q-125 0 -181.5 79t-30.5 204q34 160 172 290q143 136 300 136q162 0 145 -81z" />
<glyph unicode="&#xab;" horiz-adv-x="1512" d="M1467 674q-15 -70 -108 -124q-77 -40 -229 -120q106 -101 128 -126q86 -97 75 -149q-10 -46 -48 -90q-43 -51 -87 -51q-31 0 -172 143t-161 186q-15 32 -10 56q13 60 85 116q43 33 240 137q203 106 232 106q32 0 47 -25.5t8 -58.5zM885 734q-12 -58 -71.5 -106 t-163.5 -106q-135 -77 -167 -99q81 -65 163 -129q117 -103 105 -159q-10 -46 -56 -90.5t-91 -44.5q-43 0 -204 140q-154 135 -184 184q-16 28 -12 50q13 58 89 119q56 46 280 179q238 142 272 142q57 0 40 -80z" />
<glyph unicode="&#xad;" horiz-adv-x="1143" d="M1106 773q-23 -109 -127 -135q-15 -3 -175 -10q-413 -17 -374 -17q-80 0 -63 80q21 99 129 130q54 15 185 15h349q90 0 76 -63z" />
<glyph unicode="&#xae;" horiz-adv-x="2099" d="M2085 720q-79 -374 -449 -614q-339 -219 -726 -219q-333 0 -500 186q-174 195 -104 523q47 223 197 431q158 221 365 326q65 33 137 57q23 5 70 18q23 11 71 29q100 31 225 31q334 0 552 -213q231 -229 162 -555zM1892 674q11 50 5 103q-21 209 -191 351t-392 142 q-303 0 -517 -157q-229 -166 -292 -464q-53 -251 106 -400q147 -136 405 -136q363 0 624 198q209 160 252 363zM1609 932q-35 -166 -269 -307q71 -147 55 -219q-9 -44 -47 -82.5t-80 -38.5q-33 0 -54 39q-25 67 -84 198q-39 -15 -117 -36q-27 -107 -48 -146 q-44 -86 -117 -86q-57 0 -42 70q10 48 36 143.5t36 143.5q8 38 17.5 112t17.5 112q8 34 18 61q-52 -20 -79 -20q-60 0 -44 73q16 77 94 115.5t223 67.5q131 25 222 25q121 0 195 -51q91 -62 67 -174zM1421 882q-18 70 -175 70q-69 0 -147 -13q-13 -135 -40 -265 q148 60 198 85q133 65 164 123z" />
<glyph unicode="&#xaf;" horiz-adv-x="1359" d="M1365 1229h-853l29 136h853z" />
<glyph unicode="&#xb0;" horiz-adv-x="1091" d="M1145 1051q-37 -174 -203 -308.5t-340 -134.5q-132 0 -197.5 91t-37.5 223q36 170 141 242q36 80 172 140q121 55 213 55q132 0 206 -88t46 -220zM956 1005q14 67 -38 108q-48 37 -116 37q-46 0 -107 -27q-52 -26 -103 -51q-37 -60 -47 -106q-16 -75 28 -115t121 -40 q86 0 165 55.5t97 138.5z" />
<glyph unicode="&#xb1;" horiz-adv-x="1033" d="M1107 761q-22 -102 -122 -126q-59 -14 -230 -14q-41 0 -61.5 -68t-35.5 -99q-49 -101 -131 -101q-56 0 -41 70q3 16 56 198q-78 -3 -224 10q-50 12 -40 60q10 46 52 92t87 46q30 0 88.5 -3t85.5 -3l4 20q6 27 14 79.5t14 79.5q10 46 58 88.5t92 42.5q67 0 30 -172 q-2 -12 -32 -138q27 0 124 3q76 3 124 3q102 0 88 -68zM907 179q-23 -107 -127 -133q-15 -3 -176 -10q-36 -2 -188 -12q-115 -7 -187 -7q-80 0 -63 82q23 106 134 130q71 15 197 15h332q92 0 78 -65z" />
<glyph unicode="&#xb4;" horiz-adv-x="526" d="M848 1894q-11 -49 -140 -208q-120 -148 -178 -196q-48 -39 -87 -39q-67 0 -51 73q8 39 53 92q84 101 256 297q56 60 100 60q63 0 47 -79z" />
<glyph unicode="&#xb6;" horiz-adv-x="1939" d="M1408 377q-106 -498 -194 -645q-61 -102 -136 -102q-53 0 -36 76q27 127 101.5 377t101.5 376q18 87 43 261t44 261q9 43 56 83t89 40q38 0 37 -60q1 -30 -20 -158q-59 -381 -86 -509zM2085 1207q-11 -48 -58.5 -91.5t-93.5 -43.5q-12 0 -26 3q-355 92 -522 92 q-420 0 -673 -145q-222 -126 -253 -274q-29 -135 117 -239q120 -84 269 -103q78 282 123 492q39 186 148 186q66 0 49 -82q-49 -232 -147 -599q39 -17 28 -68q-14 -67 -77 -113l-90 -314q-45 -157 -46 -162q-43 -99 -125 -99q-63 0 -46 82q14 64 125 466q-239 6 -394 134 q-178 147 -129 376q49 230 293 406q375 271 880 271q245 0 546 -90q112 -34 102 -85z" />
<glyph unicode="&#xb7;" horiz-adv-x="532" d="M532 785q-12 -56 -63.5 -110.5t-106.5 -54.5q-66 0 -51 73q12 55 63 113.5t104 58.5q71 0 54 -80z" />
<glyph unicode="&#xbb;" horiz-adv-x="1423" d="M1418 497q-9 -43 -60 -97.5t-259 -204.5q-219 -159 -258 -159q-67 0 -47 94q15 71 160 177q108 74 215 145q-17 22 -152 140q-106 92 -125 150q-7 17 -2 41q10 45 52.5 89t85.5 44q36 0 200 -158.5t182 -202.5q13 -34 8 -58zM929 469q-10 -44 -59 -92q-62 -60 -315 -223 q-267 -171 -315 -171q-56 0 -39 77q12 58 69 109q67 60 188 131q165 98 196 120q-79 48 -156 95q-98 60 -135 113q-24 36 -16 73q10 48 52 97t88 49q22 0 79 -47q40 -30 77 -63q8 -5 141 -85q85 -51 123 -102q30 -41 22 -81z" />
<glyph unicode="&#xbf;" horiz-adv-x="1237" d="M1238 1157q-12 -56 -64 -114q-57 -67 -110 -67q-60 0 -44 72q4 20 44 73q47 62 54 69q37 37 75 37q60 0 45 -70zM1181 659q-32 -150 -253 -246q-55 -24 -347 -97q-242 -60 -318 -123q-8 -7 -10 -16q-32 -150 335 -150q177 0 346 72q40 17 54 17q30 0 43.5 -25.5 t6.5 -56.5q-11 -53 -73 -97q-74 -53 -256 -87q-150 -27 -264 -27q-176 0 -282 54q-141 74 -108 229q38 182 215 287q115 68 362 129q270 67 351 106q-14 31 -7 63q9 45 46 84q40 46 81 46q45 0 66.5 -57t11.5 -105z" />
<glyph unicode="&#xc0;" horiz-adv-x="1065" d="M1066 1626q-10 -46 -50.5 -92t-85.5 -46q-25 0 -48 24q-31 34 -90.5 195.5t-50.5 203.5q10 48 57 91.5t93 43.5q36 0 54 -42q19 -62 60 -185q21 -46 56 -143q9 -31 5 -50zM1064 130q-10 -45 -56.5 -92.5t-89.5 -47.5q-55 0 -69 176q-42 -7 -107 -7q-29 0 -84.5 1.5 t-84.5 1.5h-293q-101 -182 -178 -182q-68 0 -53 73q10 46 264 474q156 261 314 524q46 77 90 154q55 87 108 145t99 58t60 -63q19 -87 19 -229q1 -206 1 -234q30 -240 62 -727q0 -15 -2 -25zM828 314q-34 288 -39 705q-32 -50 -420 -705h459z" />
<glyph unicode="&#xc1;" horiz-adv-x="1072" d="M1319 1932q-11 -50 -141 -208q-119 -149 -177 -197q-48 -39 -88 -39q-66 0 -50 74q8 39 54 92q82 100 254 297q56 59 101 59q63 0 47 -78zM1040 130q-10 -45 -56.5 -92.5t-89.5 -47.5q-55 0 -69 176q-42 -7 -107 -7q-29 0 -84.5 1.5t-84.5 1.5h-293q-101 -182 -178 -182 q-68 0 -53 73q10 46 264 474q156 261 315 524q46 77 89 154q55 87 108 145t99 58t60 -63q19 -87 19 -229q1 -206 2 -234q29 -240 61 -727q0 -15 -2 -25zM804 314q-34 288 -39 705q-32 -50 -420 -705h459z" />
<glyph unicode="&#xc2;" horiz-adv-x="1082" d="M1312 1606q-8 -41 -46 -83t-79 -42q-49 0 -132 135q-52 91 -105 183q-56 -72 -112 -145q-70 -86 -123 -136t-96 -50q-29 0 -46.5 20.5t-11.5 49.5q8 39 161 222q133 160 195.5 221.5t101.5 61.5q43 0 173 -195.5t120 -241.5zM1061 130q-10 -45 -57 -92.5t-90 -47.5 q-54 0 -68 176q-42 -7 -107 -7q-29 0 -84.5 1.5t-84.5 1.5h-294q-101 -182 -178 -182q-68 0 -53 73q10 46 265 474q156 261 314 524q46 77 89 154q55 87 108 145t99 58t61 -63q18 -87 19 -229q0 -206 1 -234q29 -240 61 -727q1 -15 -1 -25zM825 314q-35 288 -40 705 q-31 -50 -419 -705h459z" />
<glyph unicode="&#xc3;" horiz-adv-x="1155" d="M1448 1700q-4 -22 -29 -56q-51 -74 -142 -125t-171 -51q-64 0 -165.5 51t-164.5 51q-55 0 -128.5 -42.5t-94.5 -42.5q-68 0 -52 75q18 87 154 155q120 60 214 60q69 0 171.5 -51t151.5 -51q43 0 105.5 54.5t98.5 54.5q31 0 45 -25.5t7 -56.5zM1084 130 q-10 -45 -56.5 -92.5t-89.5 -47.5q-54 0 -68 176q-42 -7 -107 -7q-29 0 -84.5 1.5t-84.5 1.5h-294q-101 -182 -178 -182q-68 0 -53 73q10 46 265 474q156 261 314 524q46 77 89 154q55 87 108 145t99 58t61 -63q18 -87 19 -229q0 -206 1 -234q29 -240 61 -727q0 -15 -2 -25z M849 314q-35 288 -40 705q-31 -50 -419 -705h459z" />
<glyph unicode="&#xc4;" horiz-adv-x="1114" d="M1365 1753q-6 -28 -28 -81.5t-28 -80.5q-8 -40 -49 -78t-81 -38q-36 0 -48 42q-8 33 1 74q15 71 63 146q61 91 122 91q64 0 48 -75zM842 1722q-3 -12 -36 -89q-37 -87 -52 -107q-41 -58 -99 -58q-68 0 -44 112q4 21 43 116q49 122 138 122q70 0 50 -96zM1072 130 q-10 -45 -56.5 -92.5t-89.5 -47.5q-54 0 -68 176q-42 -7 -107 -7q-29 0 -84.5 1.5t-84.5 1.5h-294q-101 -182 -178 -182q-68 0 -53 73q10 46 265 474q156 261 314 524q46 77 89 154q55 87 108 145t99 58t61 -63q18 -87 19 -229q0 -206 1 -234q29 -240 61 -727q0 -15 -2 -25z M837 314q-35 288 -40 705q-31 -50 -419 -705h459z" />
<glyph unicode="&#xc5;" horiz-adv-x="1130" d="M1477 1954q-37 -174 -203 -309t-340 -135q-132 0 -197.5 91.5t-37.5 222.5q36 171 141 243q36 80 172 140q121 54 213 54q132 0 206 -87.5t46 -219.5zM1061 130q-10 -45 -57 -92.5t-90 -47.5q-54 0 -68 176q-42 -7 -107 -7q-29 0 -84.5 1.5t-84.5 1.5h-294 q-101 -182 -178 -182q-68 0 -53 73q10 46 265 474q156 261 314 524q46 77 89 154q55 87 108 145t99 58t61 -63q18 -87 19 -229q0 -206 1 -234q29 -240 61 -727q1 -15 -1 -25zM1288 1908q14 67 -38 108q-48 37 -116 37q-46 0 -107 -27q-52 -26 -104 -51q-36 -60 -46 -106 q-16 -75 28 -115.5t121 -40.5q86 0 165 55.5t97 139.5zM825 314q-35 288 -40 705q-31 -50 -419 -705h459z" />
<glyph unicode="&#xc6;" horiz-adv-x="1792" d="M1783 229q-21 -99 -128 -133q-15 -6 -103 -21q-108 -19 -188 -43q-193 -56 -246 -56q-113 0 -187.5 59t-86.5 163h-532q-68 -116 -84 -138q-65 -89 -120 -89q-66 0 -50 78q4 16 144 251q140 251 432 750q81 133 92 150q56 85 105.5 145t100.5 60q48 0 60 -65 q15 -91 15 -237q-2 -217 0 -243q67 161 95 268q-32 10 -22 58q9 43 43 83t75 47q36 24 73 24q18 0 26 -7q63 10 467 36q157 10 161 10q66 0 53 -63q-18 -82 -106 -109q-23 -7 -193 -21q-156 -12 -399 -39q-19 -65 -139 -364q195 36 427 36q86 0 70 -75q-20 -94 -117 -116 q-24 -5 -140 -15q-196 -17 -309 -24q-12 -41 -19 -77q-68 -321 147 -321q83 0 253.5 49.5t253.5 49.5q89 0 76 -61zM827 350q-35 241 -33 655q-52 -85 -391 -655h424z" />
<glyph unicode="&#xc8;" horiz-adv-x="1038" d="M1032 1603q-10 -47 -50.5 -93t-85.5 -46q-25 0 -48 24q-31 34 -91 195.5t-51 204.5q10 47 57.5 90.5t93.5 43.5q36 0 54 -42q19 -62 60 -185q21 -46 56 -143q9 -31 5 -49zM1067 244q-24 -113 -174 -154q-121 -22 -241 -44q-62 -19 -124 -36q-73 -20 -122 -20 q-357 0 -261 454q27 126 120 350q97 240 125 349q-32 11 -22 57q22 102 114 126q39 33 78 33q17 0 28 -14q298 44 627 44q63 0 50 -60q-16 -78 -107 -109q-32 -12 -191 -20q-87 -5 -399 -39q-19 -65 -139 -361q162 29 419 29q93 0 77 -75q-18 -85 -117 -112 q-24 -7 -130 -14.5t-318 -25.5q-11 -39 -19 -76q-69 -325 146 -325q83 0 248.5 53t249.5 53q95 0 82 -63z" />
<glyph unicode="&#xc9;" horiz-adv-x="1043" d="M1239 1894q-11 -49 -140 -208q-120 -148 -178 -196q-48 -39 -87 -39q-67 0 -51 73q8 39 53 92q84 101 255 297q57 60 101 60q63 0 47 -79zM1050 244q-24 -113 -174 -154q-121 -22 -241 -44q-62 -19 -124 -36q-73 -20 -122 -20q-357 0 -261 454q27 126 120 350 q97 240 125 349q-32 11 -22 57q22 102 114 126q39 33 78 33q17 0 28 -14q297 44 627 44q63 0 50 -60q-16 -78 -107 -109q-32 -12 -191 -20q-87 -5 -399 -39q-19 -65 -139 -361q162 29 419 29q93 0 77 -75q-18 -85 -117 -112q-25 -7 -130.5 -14.5t-317.5 -25.5 q-11 -39 -19 -76q-69 -325 146 -325q83 0 248.5 53t249.5 53q95 0 82 -63z" />
<glyph unicode="&#xca;" horiz-adv-x="1053" d="M1278 1606q-8 -41 -46 -83t-79 -42q-50 0 -132 135q-52 91 -105 183q-56 -72 -112 -145q-70 -86 -123 -136t-96 -50q-29 0 -46.5 20.5t-11.5 49.5q8 39 161 222q133 160 195.5 221.5t101.5 61.5q43 0 173 -195.5t120 -241.5zM1066 244q-24 -113 -175 -154 q-121 -22 -241 -44q-62 -19 -124 -36q-72 -20 -122 -20q-357 0 -261 454q27 126 120 350q97 240 125 349q-32 11 -22 57q22 102 114 126q39 33 79 33q17 0 27 -14q298 44 627 44q63 0 50 -60q-16 -78 -106 -109q-33 -12 -192 -20q-86 -5 -399 -39q-19 -65 -138 -361 q161 29 419 29q92 0 76 -75q-18 -85 -116 -112q-25 -7 -130.5 -14.5t-318.5 -25.5q-11 -39 -19 -76q-69 -325 146 -325q84 0 249.5 53t248.5 53q96 0 83 -63z" />
<glyph unicode="&#xcb;" horiz-adv-x="1079" d="M1320 1753q-6 -28 -27.5 -81.5t-27.5 -80.5q-8 -40 -49.5 -78t-80.5 -38q-36 0 -48 42q-9 33 0 74q15 71 64 146q61 91 122 91q63 0 47 -75zM798 1722q-3 -12 -36 -89q-37 -87 -52 -107q-41 -58 -99 -58q-69 0 -45 112q4 21 43 116q50 122 139 122q70 0 50 -96zM1074 244 q-24 -113 -174 -154q-121 -22 -241 -44q-62 -19 -125 -36q-72 -20 -121 -20q-357 0 -261 454q27 126 119 350q97 240 126 349q-33 11 -23 57q22 102 115 126q39 33 78 33q17 0 28 -14q297 44 627 44q63 0 50 -60q-16 -78 -107 -109q-32 -12 -191 -20q-87 -5 -399 -39 q-19 -65 -139 -361q162 29 419 29q92 0 76 -75q-18 -85 -116 -112q-25 -7 -130.5 -14.5t-317.5 -25.5q-11 -39 -19 -76q-69 -325 146 -325q83 0 248.5 53t249.5 53q95 0 82 -63z" />
<glyph unicode="&#xcc;" horiz-adv-x="729" d="M848 1606q-9 -46 -50 -92t-85 -46q-26 0 -48 24q-32 34 -91.5 195t-50.5 204q10 48 57 91.5t93 43.5q36 0 53 -43q21 -61 60 -184q22 -46 58 -144q8 -30 4 -49zM984 1300q-22 -105 -126 -136q-28 -9 -80 -9q-5 0 -69 2q-134 -630 -233 -939q87 7 186 7q81 0 63 -83 q-23 -108 -135 -135q-23 -5 -130 -14q-297 -22 -347 -22q-70 0 -55 72q18 85 93 121q44 22 149 34q45 154 119 480q72 315 121 479q-11 0 -48 -2q-30 -1 -49 -1q-131 0 -112 87q10 46 47.5 87t81.5 41q38 0 113.5 1.5t112.5 1.5h154q72 0 105 -10q49 -15 39 -62z" />
<glyph unicode="&#xcd;" horiz-adv-x="729" d="M1058 1894q-11 -49 -140 -208q-120 -148 -178 -196q-48 -39 -87 -39q-67 0 -51 73q8 39 53 92q84 101 255 297q57 60 101 60q63 0 47 -79zM950 1300q-22 -105 -126 -136q-28 -9 -80 -9q-5 0 -70 2q-134 -630 -232 -939q87 7 186 7q80 0 62 -83q-23 -108 -134 -135 q-24 -5 -130 -14q-297 -22 -347 -22q-70 0 -55 72q18 85 93 121q44 22 149 34q45 154 119 480q72 315 120 479q-10 0 -47 -2q-30 -1 -49 -1q-132 0 -113 87q10 46 47.5 87t82.5 41q37 0 113 1.5t113 1.5h154q71 0 105 -10q49 -15 39 -62z" />
<glyph unicode="&#xce;" horiz-adv-x="816" d="M1123 1606q-8 -41 -46 -83t-79 -42q-50 0 -133 135q-51 91 -104 183q-56 -72 -112 -145q-70 -86 -123.5 -136t-95.5 -50q-29 0 -47 20.5t-12 49.5q8 39 162 222q133 160 195.5 221.5t101.5 61.5q43 0 173 -195.5t120 -241.5zM998 1300q-22 -105 -126 -136q-29 -9 -80 -9 q-5 0 -70 2q-134 -630 -232 -939q87 7 186 7q80 0 62 -83q-23 -108 -135 -135q-23 -5 -130 -14q-296 -22 -346 -22q-70 0 -55 72q18 85 93 121q44 22 148 34q45 154 119 480q73 315 121 479q-10 0 -48 -2q-30 -1 -48 -1q-132 0 -113 87q10 46 47.5 87t82.5 41 q37 0 112.5 1.5t113.5 1.5h153q72 0 106 -10q49 -15 39 -62z" />
<glyph unicode="&#xcf;" horiz-adv-x="836" d="M1153 1753q-6 -28 -28 -81.5t-28 -80.5q-8 -40 -49 -78t-80 -38q-36 0 -49 42q-8 33 1 74q15 71 63 146q61 91 123 91q63 0 47 -75zM631 1722q-3 -12 -37 -89q-36 -87 -52 -107q-41 -58 -99 -58q-68 0 -44 112q4 21 43 116q50 122 139 122q70 0 50 -96zM1012 1300 q-22 -105 -127 -136q-28 -9 -79 -9q-5 0 -70 2q-134 -630 -233 -939q88 7 187 7q80 0 62 -83q-23 -108 -135 -135q-23 -5 -130 -14q-297 -22 -346 -22q-70 0 -55 72q18 85 92 121q45 22 149 34q45 154 119 480q72 315 121 479q-10 0 -48 -2q-30 -1 -49 -1q-131 0 -112 87 q10 46 47.5 87t81.5 41q38 0 113.5 1.5t113.5 1.5h153q72 0 106 -10q49 -15 39 -62z" />
<glyph unicode="&#xd1;" d="M1429 1700q-4 -22 -29 -56q-51 -74 -142 -125t-171 -51q-63 0 -165 51t-165 51q-54 0 -128 -42.5t-95 -42.5q-68 0 -52 75q18 87 154 155q120 60 214 60q70 0 172 -51t151 -51q43 0 106 54.5t98 54.5q31 0 45 -25.5t7 -56.5zM1344 1299q-32 -150 -103.5 -448t-103.5 -448 q-33 -156 -73 -237q-26 -55 -67 -98q-51 -58 -96 -58q-20 0 -40 29q-31 45 -131 282q-87 201 -246 614q-66 -251 -170 -631q-16 -60 -33 -120q-21 -71 -49 -117q-54 -96 -125 -96q-46 0 -30 75q30 140 106 391q83 271 112 389l43 205q71 334 198 334q25 0 47 -42 q27 -57 59 -151l51 -153q88 -205 260 -616q47 210 144 631q24 106 30 121q17 70 43 118q57 106 135 106q56 0 39 -80z" />
<glyph unicode="&#xd2;" horiz-adv-x="1328" d="M1119 1606q-9 -46 -49.5 -92t-85.5 -46q-25 0 -47 24q-33 34 -92 195t-50 204q10 48 57 91.5t93 43.5q36 0 53 -43q20 -61 60 -184q22 -46 57 -144q8 -30 4 -49zM1440 684q-60 -285 -263 -479q-217 -208 -497 -208q-273 0 -418 160q-150 166 -93 435q41 196 165 369 q129 182 311 281q78 123 340 123q271 0 398 -208q117 -194 57 -473zM1241 625q50 237 -62.5 377.5t-350.5 140.5q-44 0 -152 -58q-257 -138 -317 -421q-44 -207 75 -338q116 -125 326 -125q182 0 312 119.5t169 304.5z" />
<glyph unicode="&#xd3;" horiz-adv-x="1328" d="M1364 1894q-11 -49 -141 -208q-119 -148 -177 -196q-49 -39 -88 -39q-66 0 -50 73q8 39 53 92q83 101 255 297q56 60 101 60q63 0 47 -79zM1427 684q-60 -285 -263 -479q-218 -208 -498 -208q-273 0 -418 160q-150 166 -93 435q41 196 165 369q130 182 311 281 q79 123 340 123q271 0 398 -208q118 -194 58 -473zM1227 625q50 237 -62.5 377.5t-349.5 140.5q-45 0 -152 -58q-257 -138 -317 -421q-44 -207 75 -338q115 -125 325 -125q183 0 312.5 119.5t168.5 304.5z" />
<glyph unicode="&#xd4;" horiz-adv-x="1338" d="M1399 1606q-8 -41 -46 -83t-79 -42q-49 0 -132 135q-52 91 -105 183q-56 -72 -112 -145q-70 -86 -123 -136t-96 -50q-29 0 -46.5 20.5t-11.5 49.5q8 39 161 222q133 160 195.5 221.5t101.5 61.5q43 0 173 -195.5t120 -241.5zM1439 684q-60 -285 -263 -479 q-218 -208 -498 -208q-273 0 -418 160q-150 166 -93 435q41 196 165 369q129 182 311 281q79 123 340 123q271 0 398 -208q118 -194 58 -473zM1239 625q50 237 -62.5 377.5t-349.5 140.5q-45 0 -152 -58q-257 -138 -317 -421q-44 -207 75 -338q115 -125 325 -125 q183 0 312.5 119.5t168.5 304.5z" />
<glyph unicode="&#xd5;" horiz-adv-x="1364" d="M1547 1700q-4 -22 -29 -56q-51 -74 -142 -125t-171 -51q-64 0 -165.5 51t-164.5 51q-55 0 -128.5 -42.5t-94.5 -42.5q-68 0 -52 75q18 87 154 155q120 60 214 60q69 0 171.5 -51t151.5 -51q43 0 105.5 54.5t98.5 54.5q31 0 45 -25.5t7 -56.5zM1449 684 q-60 -285 -263 -479q-218 -208 -498 -208q-273 0 -418 160q-150 166 -93 435q41 196 165 369q130 182 311 281q79 123 340 123q272 0 398 -208q118 -194 58 -473zM1249 625q50 237 -62.5 377.5t-349.5 140.5q-44 0 -152 -58q-257 -138 -317 -421q-44 -207 75 -338 q115 -125 325 -125q183 0 312.5 119.5t168.5 304.5z" />
<glyph unicode="&#xd6;" horiz-adv-x="1355" d="M1448 1753q-6 -28 -27.5 -81.5t-27.5 -80.5q-8 -40 -49.5 -78t-80.5 -38q-36 0 -48 42q-9 33 0 74q15 71 64 146q61 91 122 91q63 0 47 -75zM926 1722q-3 -12 -36 -89q-37 -87 -52 -107q-41 -58 -99 -58q-69 0 -45 112q4 21 43 116q50 122 139 122q70 0 50 -96zM1445 684 q-60 -285 -263 -479q-217 -208 -497 -208q-273 0 -418 160q-150 166 -93 435q41 196 165 369q129 182 311 281q79 123 340 123q271 0 398 -208q117 -194 57 -473zM1246 625q50 237 -62.5 377.5t-349.5 140.5q-45 0 -152 -58q-257 -138 -317 -421q-44 -207 74 -338 q116 -125 326 -125q183 0 312.5 119.5t168.5 304.5z" />
<glyph unicode="&#xd7;" horiz-adv-x="1174" d="M1178 985q-12 -57 -112 -142q-77 -60 -154 -119q44 -46 89 -94q56 -67 45 -115q-9 -44 -52 -89t-85 -45q-36 0 -204 184q-88 -70 -267 -208q-54 -40 -86 -40q-34 0 -50 28.5t-8 64.5q8 39 58 87q33 32 241 191q-48 54 -96 107q-65 81 -55 127q10 47 56 91.5t92 44.5 q22 0 48 -24q36 -32 83 -94q63 -80 78 -97q306 232 335 232q63 0 44 -90z" />
<glyph unicode="&#xd8;" horiz-adv-x="1329" d="M1439 684q-60 -285 -263 -479q-218 -208 -498 -208q-66 0 -132 12q-27 -48 -47 -82q-41 -77 -85 -156q-62 -92 -136 -92q-73 0 -58 70q6 31 167 311q-146 73 -202 214t-18 318q41 196 165 369q129 182 311 281q79 123 340 123q73 0 135 -15q41 89 66 126q53 72 113 72 q70 0 54 -77q-8 -36 -82 -191q126 -90 168 -259q41 -156 2 -337zM1239 625q57 271 -93 413q-92 -173 -482 -830q41 -7 94 -7q183 0 312.5 119.5t168.5 304.5zM1003 1118q-82 25 -176 25q-45 0 -152 -58q-257 -138 -317 -421q-57 -270 150 -398q167 284 495 852z" />
<glyph unicode="&#xd9;" horiz-adv-x="1328" d="M1135 1606q-9 -46 -50 -92t-85 -46q-26 0 -48 24q-32 34 -91.5 195t-50.5 204q10 48 57 91.5t93 43.5q36 0 53 -43q21 -61 60 -184q22 -46 57 -144q9 -30 5 -49zM1456 794q-73 -342 -231 -541q-198 -250 -516 -250q-292 0 -439 157q-154 168 -93 454q27 128 117 337 q94 216 172 322q55 75 103 75q63 0 49 -65q-4 -18 -12 -34q-2 -8 -135 -280q-83 -167 -108 -285q-49 -232 92 -358q127 -111 368 -111q191 0 300 162q75 113 121 331q21 96 28.5 284.5t27.5 284.5q9 42 58.5 88t91.5 46q65 0 48 -274q-12 -202 -42 -343z" />
<glyph unicode="&#xda;" horiz-adv-x="1329" d="M1359 1894q-11 -49 -141 -208q-120 -148 -177 -196q-49 -39 -88 -39q-66 0 -50 73q8 39 53 92q83 101 255 297q56 60 101 60q63 0 47 -79zM1444 794q-73 -342 -231 -541q-198 -250 -516 -250q-292 0 -439 157q-154 168 -93 454q27 128 117 337q94 216 172 322 q55 75 103 75q63 0 49 -65q-4 -18 -12 -34q-2 -8 -135 -280q-82 -167 -107 -285q-49 -232 91 -358q127 -111 368 -111q191 0 300 162q75 113 121 331q21 96 28.5 284.5t27.5 284.5q9 42 58.5 88t91.5 46q65 0 48 -274q-12 -202 -42 -343z" />
<glyph unicode="&#xdb;" horiz-adv-x="1340" d="M1394 1606q-8 -41 -46 -83t-79 -42q-49 0 -132 135q-52 91 -105 183q-56 -72 -112 -145q-70 -86 -123 -136t-96 -50q-29 0 -46.5 20.5t-11.5 49.5q8 39 161 222q133 160 195.5 221.5t101.5 61.5q43 0 173 -195.5t120 -241.5zM1456 794q-73 -342 -231 -541 q-198 -250 -516 -250q-292 0 -439 157q-154 168 -93 454q27 128 117 337q94 216 172 322q55 75 103 75q63 0 49 -65q-4 -18 -12 -34q-2 -8 -135 -280q-83 -167 -108 -285q-49 -232 92 -358q127 -111 368 -111q191 0 300 162q75 113 121 331q21 96 28.5 284.5t27.5 284.5 q9 42 58.5 88t91.5 46q65 0 48 -274q-12 -202 -42 -343z" />
<glyph unicode="&#xdc;" horiz-adv-x="1355" d="M1429 1753q-6 -28 -27.5 -81.5t-27.5 -80.5q-8 -40 -49.5 -78t-80.5 -38q-36 0 -48 42q-9 33 0 74q15 71 64 146q61 91 122 91q63 0 47 -75zM907 1722q-3 -12 -36 -89q-37 -87 -52 -107q-41 -58 -99 -58q-68 0 -44 112q4 21 42 116q50 122 139 122q70 0 50 -96zM1463 794 q-73 -342 -231 -541q-198 -250 -516 -250q-292 0 -440 157q-153 168 -92 454q27 128 117 337q94 216 171 322q56 75 103 75q64 0 50 -65q-4 -18 -12 -34q-3 -8 -136 -280q-82 -167 -107 -285q-49 -232 92 -358q127 -111 367 -111q192 0 301 162q75 113 121 331 q21 96 28.5 284.5t27.5 284.5q9 42 58 88t92 46q65 0 48 -274q-12 -202 -42 -343z" />
<glyph unicode="&#xdd;" horiz-adv-x="1263" d="M1292 1894q-11 -49 -140 -208q-120 -148 -178 -196q-48 -39 -87 -39q-67 0 -51 73q8 39 53 92q84 101 255 297q57 60 101 60q63 0 47 -79zM1356 695q-66 -309 -221 -487q-183 -208 -478 -208q-90 0 -223 27q-151 29 -201 69q-33 25 -26 59q10 46 52 92.5t86 46.5 q5 0 17 -4q260 -78 383 -78t198 43.5t130 157.5q40 84 88 311q-246 -209 -537 -209q-232 0 -328 151q-95 143 -45 378q70 332 208 332q31 0 47.5 -25t9.5 -56q-7 -32 -31 -97t-31 -97q-34 -162 33.5 -263t227.5 -101q142 0 276 74q145 78 211 208q18 133 38 227 q12 56 51 101q45 51 100 51q96 0 48 -227q-17 -80 -41.5 -238t-41.5 -238z" />
<glyph unicode="&#xde;" horiz-adv-x="1260" d="M1403 730q-73 -343 -924 -462q-36 -128 -55 -167q-49 -98 -135 -98q-63 0 -47 79q-6 -29 58 203q-6 19 -2 39q1 4 24 53q13 26 37.5 142t90.5 360q-31 14 -21 60q13 61 66 105q16 74 68 216q58 112 147 112q39 0 36 -63q-4 -46 -16 -106q-6 -25 -15 -66q-13 -50 -16 -65 q769 -38 704 -342zM1208 681q27 128 -562 176q-50 -197 -106 -388q151 28 363 86q295 80 305 126z" />
<glyph unicode="&#xdf;" horiz-adv-x="1439" d="M1467 406q-42 -198 -249 -310q-175 -96 -385 -96q-183 0 -250 29q-49 20 -39 67q11 51 54.5 90t92.5 39q36 0 107.5 -8.5t107.5 -8.5q87 0 200 34q145 45 159 111q16 75 -92 144q-119 75 -355 75q-82 0 -66 77q17 80 107 131q31 19 142 54t160 62q80 46 93 106 q19 89 -118 128q-85 24 -212 24q-131 0 -206 -60q-124 -97 -201 -459q-35 -166 -62.5 -492.5t-62.5 -492.5q-35 -162 -132 -162q-65 0 -47 82q33 155 51 398q25 331 33 396q19 150 47 281q55 260 172 434q149 221 382 273q63 13 165 13q181 0 288 -68q132 -85 96 -253 q-36 -167 -235 -296q123 -38 196 -122q85 -97 59 -220z" />
<glyph unicode="&#xe0;" horiz-adv-x="1065" d="M1066 1626q-10 -46 -50.5 -92t-85.5 -46q-25 0 -48 24q-31 34 -90.5 195.5t-50.5 203.5q10 48 57 91.5t93 43.5q36 0 54 -42q19 -62 60 -185q21 -46 56 -143q9 -31 5 -50zM1064 130q-10 -45 -56.5 -92.5t-89.5 -47.5q-55 0 -69 176q-42 -7 -107 -7q-29 0 -85 1.5t-84 1.5 h-293q-101 -182 -178 -182q-68 0 -53 73q10 46 264 474q156 261 314 524q46 77 90 154q55 87 108 145t99 58t60 -63q19 -87 19 -229q1 -206 1 -234q30 -240 62 -727q0 -15 -2 -25zM828 314q-34 288 -39 705q-32 -50 -420 -705h459z" />
<glyph unicode="&#xe1;" horiz-adv-x="1072" d="M1319 1932q-11 -50 -141 -208q-119 -149 -177 -197q-48 -39 -88 -39q-66 0 -50 74q8 39 54 92q82 100 254 297q56 59 101 59q63 0 47 -78zM1040 130q-10 -45 -56.5 -92.5t-89.5 -47.5q-55 0 -69 176q-42 -7 -107 -7q-29 0 -85 1.5t-84 1.5h-293q-101 -182 -178 -182 q-68 0 -53 73q10 46 264 474q156 261 315 524q46 77 89 154q55 87 108 145t99 58t60 -63q19 -87 19 -229q1 -206 2 -234q29 -240 61 -727q0 -15 -2 -25zM804 314q-34 288 -39 705q-32 -50 -420 -705h459z" />
<glyph unicode="&#xe2;" horiz-adv-x="1082" d="M1312 1606q-8 -41 -46 -83t-79 -42q-49 0 -132 135q-52 91 -105 183q-56 -72 -112 -145q-70 -86 -123 -136t-96 -50q-29 0 -46.5 20.5t-11.5 49.5q8 39 161 222q133 160 195.5 221.5t101.5 61.5q43 0 173 -195.5t120 -241.5zM1061 130q-10 -45 -57 -92.5t-90 -47.5 q-54 0 -68 176q-42 -7 -107 -7q-29 0 -85.5 1.5t-83.5 1.5h-294q-101 -182 -178 -182q-68 0 -53 73q10 46 265 474q156 261 314 524q46 77 89 154q55 87 108 145t99 58t61 -63q18 -87 19 -229q0 -206 1 -234q29 -240 61 -727q1 -15 -1 -25zM825 314q-35 288 -40 705 q-31 -50 -419 -705h459z" />
<glyph unicode="&#xe3;" horiz-adv-x="1155" d="M1448 1700q-4 -22 -29 -56q-51 -74 -142 -125t-171 -51q-64 0 -165.5 51t-164.5 51q-55 0 -128.5 -42.5t-94.5 -42.5q-68 0 -52 75q18 87 154 155q120 60 214 60q69 0 171.5 -51t151.5 -51q43 0 105.5 54.5t98.5 54.5q31 0 45 -25.5t7 -56.5zM1084 130 q-10 -45 -56.5 -92.5t-89.5 -47.5q-54 0 -68 176q-42 -7 -107 -7q-29 0 -85.5 1.5t-83.5 1.5h-294q-101 -182 -178 -182q-68 0 -53 73q10 46 265 474q156 261 314 524q46 77 89 154q55 87 108 145t99 58t61 -63q18 -87 19 -229q0 -206 1 -234q29 -240 61 -727q0 -15 -2 -25z M849 314q-35 288 -40 705q-31 -50 -419 -705h459z" />
<glyph unicode="&#xe4;" horiz-adv-x="1114" d="M1365 1753q-6 -28 -28 -81.5t-28 -80.5q-8 -40 -49 -78t-81 -38q-36 0 -48 42q-8 33 1 74q15 71 63 146q61 91 122 91q64 0 48 -75zM842 1722q-3 -12 -36 -89q-37 -87 -52 -107q-41 -58 -99 -58q-68 0 -44 112q4 21 43 116q49 122 138 122q70 0 50 -96zM1072 130 q-10 -45 -56.5 -92.5t-89.5 -47.5q-54 0 -68 176q-42 -7 -107 -7q-29 0 -85.5 1.5t-83.5 1.5h-294q-101 -182 -178 -182q-68 0 -53 73q10 46 265 474q156 261 314 524q46 77 89 154q55 87 108 145t99 58t61 -63q18 -87 19 -229q0 -206 1 -234q29 -240 61 -727q0 -15 -2 -25z M837 314q-35 288 -40 705q-31 -50 -419 -705h459z" />
<glyph unicode="&#xe5;" horiz-adv-x="1130" d="M1477 1954q-37 -174 -203 -309t-340 -135q-132 0 -197.5 91.5t-37.5 222.5q36 171 141 243q36 80 172 140q121 54 213 54q132 0 206 -87.5t46 -219.5zM1061 130q-10 -45 -57 -92.5t-90 -47.5q-54 0 -68 176q-42 -7 -107 -7q-29 0 -85.5 1.5t-83.5 1.5h-294 q-101 -182 -178 -182q-68 0 -53 73q10 46 265 474q156 261 314 524q46 77 89 154q55 87 108 145t99 58t61 -63q18 -87 19 -229q0 -206 1 -234q29 -240 61 -727q1 -15 -1 -25zM1288 1908q14 67 -38 108q-48 37 -116 37q-46 0 -107 -27q-52 -26 -104 -51q-36 -60 -46 -106 q-16 -75 28 -115.5t121 -40.5q86 0 165 55.5t97 139.5zM825 314q-35 288 -40 705q-31 -50 -419 -705h459z" />
<glyph unicode="&#xe6;" horiz-adv-x="1792" d="M1783 229q-21 -99 -128 -133q-15 -6 -103 -21q-108 -19 -188 -43q-193 -56 -246 -56q-113 0 -187.5 59t-86.5 163h-532q-68 -116 -84 -138q-65 -89 -120 -89q-66 0 -50 78q4 16 144 251q140 251 432 750q81 133 92 150q56 85 105.5 145t100.5 60q48 0 60 -65 q15 -91 15 -237q-2 -217 0 -243q67 161 95 268q-32 10 -22 58q9 43 43 83t75 47q36 24 73 24q18 0 26 -7q63 10 467 36q157 10 161 10q66 0 53 -63q-18 -82 -106 -109q-23 -7 -193 -21q-154 -12 -399 -39q-19 -65 -139 -364q195 36 427 36q86 0 70 -75q-20 -94 -117 -116 q-24 -5 -140 -15q-196 -17 -309 -24q-12 -41 -19 -77q-68 -321 147 -321q83 0 253.5 49.5t253.5 49.5q89 0 76 -61zM827 350q-35 241 -33 655q-52 -85 -391 -655h424z" />
<glyph unicode="&#xe8;" horiz-adv-x="1038" d="M1032 1603q-10 -47 -50.5 -93t-85.5 -46q-25 0 -48 24q-31 34 -91 195.5t-51 204.5q10 47 57.5 90.5t93.5 43.5q36 0 54 -42q19 -62 60 -185q21 -46 56 -143q9 -31 5 -49zM1067 244q-24 -113 -174 -154q-121 -22 -241 -44q-62 -19 -124 -36q-73 -20 -122 -20 q-357 0 -261 454q27 126 120 350q97 240 125 349q-32 11 -22 57q22 102 114 126q39 33 78 33q17 0 28 -14q298 44 627 44q63 0 50 -60q-16 -78 -107 -109q-32 -12 -191 -20q-87 -5 -399 -39q-19 -65 -139 -361q162 29 419 29q93 0 77 -75q-18 -85 -117 -112 q-24 -7 -130 -14.5t-318 -25.5q-11 -39 -19 -76q-69 -325 146 -325q83 0 248.5 53t249.5 53q95 0 82 -63z" />
<glyph unicode="&#xe9;" horiz-adv-x="1043" d="M1239 1894q-11 -49 -140 -208q-120 -148 -178 -196q-48 -39 -87 -39q-67 0 -51 73q8 39 53 92q84 101 255 297q57 60 101 60q63 0 47 -79zM1050 244q-24 -113 -174 -154q-121 -22 -241 -44q-62 -19 -124 -36q-73 -20 -122 -20q-357 0 -261 454q27 126 120 350 q97 240 125 349q-32 11 -22 57q22 102 114 126q39 33 78 33q17 0 28 -14q297 44 627 44q63 0 50 -60q-16 -78 -107 -109q-32 -12 -191 -20q-87 -5 -399 -39q-19 -65 -139 -361q162 29 419 29q93 0 77 -75q-18 -85 -117 -112q-25 -7 -130.5 -14.5t-317.5 -25.5 q-11 -39 -19 -76q-69 -325 146 -325q83 0 248.5 53t249.5 53q95 0 82 -63z" />
<glyph unicode="&#xea;" horiz-adv-x="1053" d="M1278 1606q-8 -41 -46 -83t-79 -42q-50 0 -132 135q-52 91 -105 183q-56 -72 -112 -145q-70 -86 -123 -136t-96 -50q-29 0 -46.5 20.5t-11.5 49.5q8 39 161 222q133 160 195.5 221.5t101.5 61.5q43 0 173 -195.5t120 -241.5zM1066 244q-24 -113 -175 -154 q-121 -22 -241 -44q-62 -19 -124 -36q-72 -20 -122 -20q-357 0 -261 454q27 126 120 350q97 240 125 349q-32 11 -22 57q22 102 114 126q39 33 79 33q17 0 27 -14q298 44 627 44q63 0 50 -60q-16 -78 -106 -109q-33 -12 -192 -20q-86 -5 -399 -39q-19 -65 -138 -361 q161 29 419 29q92 0 76 -75q-18 -85 -116 -112q-25 -7 -130.5 -14.5t-318.5 -25.5q-11 -39 -19 -76q-69 -325 146 -325q84 0 249.5 53t248.5 53q96 0 83 -63z" />
<glyph unicode="&#xeb;" horiz-adv-x="1079" d="M1320 1753q-6 -28 -27.5 -81.5t-27.5 -80.5q-8 -40 -49.5 -78t-80.5 -38q-36 0 -48 42q-9 33 0 74q15 71 64 146q61 91 122 91q63 0 47 -75zM798 1722q-3 -12 -36 -89q-37 -87 -52 -107q-41 -58 -99 -58q-69 0 -45 112q4 21 43 116q50 122 139 122q70 0 50 -96zM1074 244 q-24 -113 -174 -154q-121 -22 -241 -44q-62 -19 -125 -36q-72 -20 -121 -20q-357 0 -261 454q27 126 119 350q97 240 126 349q-33 11 -23 57q22 102 115 126q39 33 78 33q17 0 28 -14q297 44 627 44q63 0 50 -60q-16 -78 -107 -109q-32 -12 -191 -20q-87 -5 -399 -39 q-19 -65 -139 -361q162 29 419 29q92 0 76 -75q-18 -85 -116 -112q-25 -7 -130.5 -14.5t-317.5 -25.5q-11 -39 -19 -76q-69 -325 146 -325q83 0 248.5 53t249.5 53q95 0 82 -63z" />
<glyph unicode="&#xec;" horiz-adv-x="461" d="M764 1606q-9 -46 -49.5 -92t-85.5 -46q-25 0 -47 24q-33 34 -92 195t-50 204q10 48 57 91.5t93 43.5q36 0 53 -43q20 -61 60 -184q22 -46 57 -144q8 -30 4 -49zM641 1254q-35 -162 -119.5 -488t-119.5 -488q-60 -281 -191 -281q-69 0 -50 88q30 140 93 383q75 276 99 382 l51 241q63 295 203 295q62 0 34 -132z" />
<glyph unicode="&#xed;" horiz-adv-x="469" d="M857 1894q-11 -49 -141 -208q-119 -148 -177 -196q-48 -39 -88 -39q-66 0 -50 73q8 39 53 92q83 101 255 297q56 60 101 60q63 0 47 -79zM547 1254q-35 -162 -119.5 -488t-119.5 -488q-60 -281 -191 -281q-69 0 -50 88q30 140 93 383q75 276 100 382l51 241 q63 295 202 295q62 0 34 -132z" />
<glyph unicode="&#xee;" horiz-adv-x="777" d="M1100 1606q-8 -41 -46 -83t-79 -42q-49 0 -132 135q-52 91 -104 183q-56 -72 -112 -145q-70 -86 -123.5 -136t-95.5 -50q-29 0 -47 20.5t-12 49.5q8 39 162 222q133 160 195.5 221.5t101.5 61.5q42 0 172 -195.5t120 -241.5zM769 1254q-35 -162 -119.5 -488t-119.5 -488 q-60 -281 -191 -281q-69 0 -50 88q30 140 93 383q75 276 99 382l51 241q63 295 203 295q62 0 34 -132z" />
<glyph unicode="&#xef;" horiz-adv-x="785" d="M1127 1753q-6 -28 -27.5 -81.5t-27.5 -80.5q-8 -40 -49.5 -78t-80.5 -38q-36 0 -48 42q-9 33 0 74q15 71 64 146q61 91 122 91q63 0 47 -75zM605 1722q-3 -12 -36 -89q-37 -87 -52 -107q-41 -58 -99 -58q-68 0 -44 112q4 21 42 116q50 122 139 122q70 0 50 -96zM760 1254 q-35 -162 -119 -488t-119 -488q-60 -281 -192 -281q-68 0 -49 88q30 140 93 383q74 276 99 382l51 241q63 295 203 295q61 0 33 -132z" />
<glyph unicode="&#xf1;" d="M1429 1700q-4 -22 -29 -56q-51 -74 -142 -125t-171 -51q-63 0 -165 51t-165 51q-54 0 -128 -42.5t-95 -42.5q-68 0 -52 75q18 87 154 155q120 60 214 60q70 0 172 -51t151 -51q43 0 106 54.5t98 54.5q31 0 45 -25.5t7 -56.5zM1344 1299q-32 -150 -103.5 -448t-103.5 -448 q-33 -156 -73 -237q-26 -55 -67 -98q-51 -58 -96 -58q-20 0 -40 29q-31 45 -131 282q-87 201 -246 614q-66 -251 -170 -631q-16 -60 -33 -120q-21 -71 -49 -117q-54 -96 -125 -96q-46 0 -30 75q30 140 106 391q83 271 112 389l43 205q71 334 198 334q25 0 47 -42 q27 -57 59 -151l51 -153q88 -205 260 -616q47 210 144 631q24 106 30 121q17 70 43 118q57 106 135 106q56 0 39 -80z" />
<glyph unicode="&#xf2;" d="M1429 1700q-4 -22 -29 -56q-51 -74 -142 -125t-171 -51q-63 0 -165 51t-165 51q-54 0 -128 -42.5t-95 -42.5q-68 0 -52 75q18 87 154 155q120 60 214 60q70 0 172 -51t151 -51q43 0 106 54.5t98 54.5q31 0 45 -25.5t7 -56.5zM1344 1299q-32 -150 -103.5 -448t-103.5 -448 q-33 -156 -73 -237q-26 -55 -67 -98q-51 -58 -96 -58q-20 0 -40 29q-31 45 -131 282q-87 201 -246 614q-66 -251 -170 -631q-16 -60 -33 -120q-21 -71 -49 -117q-54 -96 -125 -96q-46 0 -30 75q30 140 106 391q83 271 112 389l43 205q71 334 198 334q25 0 47 -42 q27 -57 59 -151l51 -153q88 -205 260 -616q47 210 144 631q24 106 30 121q17 70 43 118q57 106 135 106q56 0 39 -80z" />
<glyph unicode="&#xf3;" horiz-adv-x="1328" d="M1119 1606q-9 -46 -49.5 -92t-85.5 -46q-25 0 -47 24q-33 34 -92 195t-50 204q10 48 57 91.5t93 43.5q36 0 53 -43q20 -61 60 -184q22 -46 57 -144q8 -30 4 -49zM1440 684q-60 -285 -263 -479q-217 -208 -497 -208q-273 0 -418 160q-150 166 -93 435q41 196 165 369 q129 182 311 281q78 123 340 123q271 0 398 -208q117 -194 57 -473zM1241 625q50 237 -62.5 377.5t-350.5 140.5q-44 0 -152 -58q-257 -138 -317 -421q-44 -207 75 -338q116 -125 326 -125q182 0 312 119.5t169 304.5z" />
<glyph unicode="&#xf4;" horiz-adv-x="1328" d="M1364 1894q-11 -49 -141 -208q-119 -148 -177 -196q-49 -39 -88 -39q-66 0 -50 73q8 39 53 92q83 101 255 297q56 60 101 60q63 0 47 -79zM1427 684q-60 -285 -263 -479q-218 -208 -498 -208q-273 0 -418 160q-150 166 -93 435q41 196 165 369q130 182 311 281 q79 123 340 123q271 0 398 -208q118 -194 58 -473zM1227 625q50 237 -62.5 377.5t-349.5 140.5q-45 0 -152 -58q-257 -138 -317 -421q-44 -207 75 -338q115 -125 325 -125q183 0 312.5 119.5t168.5 304.5z" />
<glyph unicode="&#xf5;" horiz-adv-x="1338" d="M1399 1606q-8 -41 -46 -83t-79 -42q-49 0 -132 135q-52 91 -105 183q-56 -72 -112 -145q-70 -86 -123 -136t-96 -50q-29 0 -46.5 20.5t-11.5 49.5q8 39 161 222q133 160 195.5 221.5t101.5 61.5q43 0 173 -195.5t120 -241.5zM1439 684q-60 -285 -263 -479 q-218 -208 -498 -208q-273 0 -418 160q-150 166 -93 435q41 196 165 369q129 182 311 281q79 123 340 123q271 0 398 -208q118 -194 58 -473zM1239 625q50 237 -62.5 377.5t-349.5 140.5q-45 0 -152 -58q-257 -138 -317 -421q-44 -207 75 -338q115 -125 325 -125 q183 0 312.5 119.5t168.5 304.5z" />
<glyph unicode="&#xf6;" horiz-adv-x="1364" d="M1547 1700q-4 -22 -29 -56q-51 -74 -142 -125t-171 -51q-64 0 -165.5 51t-164.5 51q-55 0 -128.5 -42.5t-94.5 -42.5q-68 0 -52 75q18 87 154 155q120 60 214 60q69 0 171.5 -51t151.5 -51q43 0 105.5 54.5t98.5 54.5q31 0 45 -25.5t7 -56.5zM1449 684 q-60 -285 -263 -479q-218 -208 -498 -208q-273 0 -418 160q-150 166 -93 435q41 196 165 369q130 182 311 281q79 123 340 123q272 0 398 -208q118 -194 58 -473zM1249 625q50 237 -62.5 377.5t-349.5 140.5q-44 0 -152 -58q-257 -138 -317 -421q-44 -207 75 -338 q115 -125 325 -125q183 0 312.5 119.5t168.5 304.5z" />
<glyph unicode="&#xf7;" horiz-adv-x="824" d="M791 1118q-12 -56 -62 -109q-54 -57 -109 -57q-66 0 -50 74q12 56 59 111q54 61 107 61q72 0 55 -80zM935 773q-22 -107 -127 -135q-40 -10 -139 -10q-68 0 -204.5 -8.5t-204.5 -8.5q-81 0 -64 80q31 145 274 145h389q90 0 76 -63zM570 408q-14 -63 -62 -120 q-52 -63 -112 -63q-31 0 -45 25.5t-8 56.5q13 58 64 120q56 70 110 70q72 0 53 -89z" />
<glyph unicode="&#xf8;" horiz-adv-x="1329" d="M1439 684q-60 -285 -263 -479q-218 -208 -498 -208q-66 0 -132 12q-27 -48 -47 -82q-41 -77 -85 -156q-62 -92 -136 -92q-73 0 -58 70q6 31 167 311q-146 73 -202 214t-18 318q41 196 165 369q129 182 311 281q79 123 340 123q73 0 135 -15q41 89 66 126q53 72 113 72 q70 0 54 -77q-8 -36 -82 -191q126 -90 168 -259q41 -156 2 -337zM1239 625q57 271 -93 413q-92 -173 -482 -830q41 -7 94 -7q183 0 312.5 119.5t168.5 304.5zM1003 1118q-82 25 -176 25q-45 0 -152 -58q-257 -138 -317 -421q-57 -270 150 -398q167 284 495 852z" />
<glyph unicode="&#xf9;" horiz-adv-x="1328" d="M1135 1606q-9 -46 -50 -92t-85 -46q-26 0 -48 24q-32 34 -91.5 195t-50.5 204q10 48 57 91.5t93 43.5q36 0 53 -43q21 -61 60 -184q22 -46 57 -144q9 -30 5 -49zM1456 794q-73 -342 -231 -541q-198 -250 -516 -250q-292 0 -439 157q-154 168 -93 454q27 128 117 337 q94 216 172 322q55 75 103 75q63 0 49 -65q-4 -18 -12 -34q-2 -8 -135 -280q-83 -167 -108 -285q-49 -232 92 -358q127 -111 368 -111q191 0 300 162q75 113 121 331q21 96 28.5 284.5t27.5 284.5q9 42 58.5 88t91.5 46q65 0 48 -274q-12 -202 -42 -343z" />
<glyph unicode="&#xfa;" horiz-adv-x="1329" d="M1359 1894q-11 -49 -141 -208q-120 -148 -177 -196q-49 -39 -88 -39q-66 0 -50 73q8 39 53 92q83 101 255 297q56 60 101 60q63 0 47 -79zM1444 794q-73 -342 -231 -541q-198 -250 -516 -250q-292 0 -439 157q-154 168 -93 454q27 128 117 337q94 216 172 322 q55 75 103 75q63 0 49 -65q-4 -18 -12 -34q-2 -8 -135 -280q-82 -167 -107 -285q-49 -232 91 -358q127 -111 368 -111q191 0 300 162q75 113 121 331q21 96 28.5 284.5t27.5 284.5q9 42 58.5 88t91.5 46q65 0 48 -274q-12 -202 -42 -343z" />
<glyph unicode="&#xfb;" horiz-adv-x="1340" d="M1394 1606q-8 -41 -46 -83t-79 -42q-49 0 -132 135q-52 91 -105 183q-56 -72 -112 -145q-70 -86 -123 -136t-96 -50q-29 0 -46.5 20.5t-11.5 49.5q8 39 161 222q133 160 195.5 221.5t101.5 61.5q43 0 173 -195.5t120 -241.5zM1456 794q-73 -342 -231 -541 q-198 -250 -516 -250q-292 0 -439 157q-154 168 -93 454q27 128 117 337q94 216 172 322q55 75 103 75q63 0 49 -65q-4 -18 -12 -34q-2 -8 -135 -280q-83 -167 -108 -285q-49 -232 92 -358q127 -111 368 -111q191 0 300 162q75 113 121 331q21 96 28.5 284.5t27.5 284.5 q9 42 58.5 88t91.5 46q65 0 48 -274q-12 -202 -42 -343z" />
<glyph unicode="&#xfc;" horiz-adv-x="1355" d="M1429 1753q-6 -28 -27.5 -81.5t-27.5 -80.5q-8 -40 -49.5 -78t-80.5 -38q-36 0 -48 42q-9 33 0 74q15 71 64 146q61 91 122 91q63 0 47 -75zM907 1722q-3 -12 -36 -89q-37 -87 -52 -107q-41 -58 -99 -58q-68 0 -44 112q4 21 42 116q50 122 139 122q70 0 50 -96zM1463 794 q-73 -342 -231 -541q-198 -250 -516 -250q-292 0 -440 157q-153 168 -92 454q27 128 117 337q94 216 171 322q56 75 103 75q64 0 50 -65q-4 -18 -12 -34q-3 -8 -136 -280q-82 -167 -107 -285q-49 -232 92 -358q127 -111 367 -111q192 0 301 162q75 113 121 331 q21 96 28.5 284.5t27.5 284.5q9 42 58 88t92 46q65 0 48 -274q-12 -202 -42 -343z" />
<glyph unicode="&#xfd;" horiz-adv-x="1263" d="M1292 1894q-11 -49 -140 -208q-120 -148 -178 -196q-48 -39 -87 -39q-67 0 -51 73q8 39 53 92q84 101 255 297q57 60 101 60q63 0 47 -79zM1356 695q-66 -309 -221 -487q-183 -208 -478 -208q-90 0 -223 27q-151 29 -201 69q-33 25 -26 59q10 46 52 92.5t86 46.5 q5 0 17 -4q260 -78 383 -78t198 43.5t130 157.5q40 84 88 311q-246 -209 -537 -209q-232 0 -328 151q-95 143 -45 378q70 332 208 332q31 0 47.5 -25t9.5 -56q-7 -32 -31 -97t-31 -97q-34 -162 33.5 -263t227.5 -101q142 0 276 74q145 78 211 208q18 133 38 227 q12 56 51 101q45 51 100 51q96 0 48 -227q-17 -80 -41.5 -238t-41.5 -238z" />
<glyph unicode="&#xfe;" horiz-adv-x="1260" d="M1403 730q-73 -343 -924 -462q-36 -128 -55 -167q-49 -98 -135 -98q-63 0 -47 79q-6 -29 58 203q-6 19 -2 39q1 4 24 53q13 26 37.5 142t90.5 360q-31 14 -21 60q13 61 66 105q16 74 68 216q58 112 147 112q39 0 36 -63q-4 -46 -16 -106q-6 -25 -15 -66q-13 -50 -16 -65 q769 -38 704 -342zM1208 681q27 128 -562 176q-50 -197 -106 -388q151 28 363 86q295 80 305 126z" />
<glyph unicode="&#xff;" horiz-adv-x="1292" d="M1378 1753q-6 -28 -27.5 -81.5t-27.5 -80.5q-8 -40 -49.5 -78t-80.5 -38q-36 0 -48 42q-9 33 0 74q15 71 64 146q61 91 122 91q63 0 47 -75zM856 1722q-3 -12 -36 -89q-37 -87 -52 -107q-41 -58 -99 -58q-69 0 -45 112q4 21 43 116q50 122 139 122q70 0 50 -96zM1377 695 q-66 -309 -222 -487q-182 -208 -477 -208q-91 0 -223 27q-151 29 -201 69q-33 25 -26 59q10 46 51.5 92.5t86.5 46.5q5 0 17 -4q259 -78 382 -78t198.5 43.5t129.5 157.5q40 84 88 311q-246 -209 -536 -209q-232 0 -329 151q-95 143 -45 378q70 332 209 332q30 0 46.5 -25 t9.5 -56q-7 -32 -30.5 -97t-30.5 -97q-34 -162 33 -263t228 -101q141 0 276 74q145 78 210 208q18 133 38 227q12 56 52 101q45 51 99 51q96 0 48 -227q-17 -80 -41 -238t-41 -238z" />
<glyph unicode="&#x152;" horiz-adv-x="2400" d="M2251 241q-20 -94 -127 -135q-53 -19 -143 -34q-105 -16 -141 -26q-62 -19 -123 -36q-72 -20 -123 -20q-116 0 -193 62t-82 173q-214 -208 -499 -208q-268 0 -410.5 165.5t-85.5 431.5q41 193 162 364q129 177 307 275q24 47 80 76q88 47 257 47q328 0 435 -292l13 44 q-36 12 -26 58q11 53 75.5 106t117.5 53q17 0 28 -12q53 8 460 36q149 10 161 10q63 0 50 -63q-17 -80 -108 -109q-28 -9 -188 -21q-109 -8 -395 -39q-31 -103 -133 -357q178 33 419 33q85 0 69 -75q-19 -91 -116 -113q-4 0 -147 -10q-99 -14 -292 -33q-15 -39 -23 -73 q-67 -318 145 -318q81 0 245 51.5t246 51.5q99 0 85 -63zM1384 642q50 235 -60.5 373.5t-346.5 138.5q-44 0 -152 -58q-121 -65 -204.5 -177t-111.5 -241q-42 -198 82 -328q117 -125 319 -125q179 0 311 121q125 115 163 296z" />
<glyph unicode="&#x153;" horiz-adv-x="2400" d="M2251 241q-20 -94 -127 -135q-53 -19 -143 -34q-105 -16 -141 -26q-62 -19 -123 -36q-72 -20 -123 -20q-116 0 -193 62t-82 173q-214 -208 -499 -208q-268 0 -410.5 165.5t-85.5 431.5q41 193 162 364q129 177 307 275q24 47 80 76q88 47 257 47q328 0 435 -292l13 44 q-36 12 -26 58q11 53 75.5 106t117.5 53q17 0 28 -12q53 8 460 36q149 10 161 10q63 0 50 -63q-17 -80 -108 -109q-28 -9 -188 -21q-109 -8 -395 -39q-31 -103 -133 -357q178 33 419 33q85 0 69 -75q-19 -91 -116 -113q-4 0 -147 -10q-99 -14 -292 -33q-15 -39 -23 -73 q-67 -318 145 -318q81 0 245 51.5t246 51.5q99 0 85 -63zM1384 642q50 235 -60.5 373.5t-346.5 138.5q-44 0 -152 -58q-121 -65 -204.5 -177t-111.5 -241q-42 -198 82 -328q117 -125 319 -125q179 0 311 121q125 115 163 296z" />
<glyph unicode="&#x178;" horiz-adv-x="1514" d="M1476 1753q-6 -28 -28 -81.5t-28 -80.5q-8 -40 -49.5 -78t-80.5 -38q-36 0 -48 42q-8 33 1 74q15 71 63 146q61 91 122 91q64 0 48 -75zM953 1722q-3 -12 -36 -89q-37 -87 -52 -107q-41 -58 -99 -58q-68 0 -44 112q4 21 42 116q50 122 139 122q70 0 50 -96zM1474 695 q-66 -309 -222 -487q-182 -208 -477 -208q-91 0 -223 27q-151 29 -201 69q-33 25 -26 59q10 46 52 92.5t86 46.5q5 0 17 -4q260 -78 382 -78q123 0 198.5 43.5t130.5 157.5q40 84 88 311q-247 -209 -537 -209q-232 0 -329 151q-94 143 -44 378q70 332 208 332q31 0 47 -25 t9 -56q-7 -32 -30.5 -97t-30.5 -97q-34 -162 33 -263t228 -101q141 0 276 74q145 78 211 208q17 133 37 227q12 56 52 101q45 51 100 51q95 0 47 -227q-17 -80 -41 -238t-41 -238z" />
<glyph unicode="&#x2c6;" horiz-adv-x="986" d="M1205 1606q-8 -41 -46 -83t-79 -42q-50 0 -133 135q-52 91 -104 183q-56 -72 -112 -145q-70 -86 -123.5 -136t-95.5 -50q-29 0 -47 20.5t-12 49.5q8 39 162 222q133 160 195.5 221.5t101.5 61.5q43 0 173 -195.5t120 -241.5z" />
<glyph unicode="&#x2dc;" horiz-adv-x="1300" d="M1464 1700q-4 -22 -30 -56q-50 -74 -141.5 -125t-171.5 -51q-63 0 -164.5 51t-165.5 51q-54 0 -128 -42.5t-94 -42.5q-69 0 -53 75q18 87 154 155q120 60 214 60q70 0 172 -51t152 -51q42 0 105 54.5t99 54.5q30 0 44.5 -25.5t7.5 -56.5z" />
<glyph unicode="&#x2000;" horiz-adv-x="1130" />
<glyph unicode="&#x2001;" horiz-adv-x="2261" />
<glyph unicode="&#x2002;" horiz-adv-x="1130" />
<glyph unicode="&#x2003;" horiz-adv-x="2261" />
<glyph unicode="&#x2004;" horiz-adv-x="753" />
<glyph unicode="&#x2005;" horiz-adv-x="565" />
<glyph unicode="&#x2006;" horiz-adv-x="376" />
<glyph unicode="&#x2007;" horiz-adv-x="376" />
<glyph unicode="&#x2008;" horiz-adv-x="282" />
<glyph unicode="&#x2009;" horiz-adv-x="452" />
<glyph unicode="&#x200a;" horiz-adv-x="125" />
<glyph unicode="&#x2010;" d="M1108 773q-23 -109 -127 -135q-15 -3 -176 -10q-412 -17 -373 -17q-80 0 -63 80q21 99 129 130q54 15 185 15h348q91 0 77 -63z" />
<glyph unicode="&#x2011;" d="M1108 773q-23 -109 -127 -135q-15 -3 -176 -10q-412 -17 -373 -17q-80 0 -63 80q21 99 129 130q54 15 185 15h348q91 0 77 -63z" />
<glyph unicode="&#x2012;" d="M1108 773q-23 -109 -127 -135q-15 -3 -176 -10q-412 -17 -373 -17q-80 0 -63 80q21 99 129 130q54 15 185 15h348q91 0 77 -63z" />
<glyph unicode="&#x2013;" horiz-adv-x="964" d="M932 773q-23 -109 -127 -135q-36 -8 -87 -8q-46 -2 -88 -2q-26 -2 -101 -10q-64 -7 -102 -7q-80 0 -63 80q23 109 134 132q73 15 187 15q29 0 85 -2h86q90 0 76 -63z" />
<glyph unicode="&#x2014;" horiz-adv-x="1329" d="M1284 773q-23 -109 -127 -135q-17 -3 -176 -10q-448 -17 -544 -17q-80 0 -63 80q20 96 110 125q44 13 167 17q119 3 187 3h369q91 0 77 -63z" />
<glyph unicode="&#x2018;" horiz-adv-x="478" d="M563 956q-7 -36 -45.5 -74.5t-73.5 -38.5q-24 0 -35 36q-17 56 -15 193q1 128 17 201q7 34 37 63t64 29q27 0 40 -29q14 -368 11 -380z" />
<glyph unicode="&#x2019;" horiz-adv-x="490" d="M646 1289q-2 -11 -15 -36q-43 -110 -150 -321q-47 -79 -116 -79q-59 0 -46 60t69 184.5t94 182.5q57 85 115 85q65 0 49 -76z" />
<glyph unicode="&#x201a;" horiz-adv-x="488" d="M406 159q-3 -11 -15 -36q-43 -109 -150 -321q-47 -78 -116 -78q-59 0 -46 59q13 60 69 184.5t94 182.5q57 86 115 86q65 0 49 -77z" />
<glyph unicode="&#x201c;" horiz-adv-x="978" d="M971 942q-9 -43 -51 -81t-83 -38q-37 0 -44 59l-6 231q-5 116 1 143q10 46 49.5 84.5t85.5 38.5q37 0 50.5 -38.5t11.5 -191t-14 -207.5zM616 945q-8 -37 -45 -74.5t-73 -37.5q-24 0 -35 36q-17 56 -15 193q1 128 16 201q8 34 38 63t64 29q27 0 40 -29z" />
<glyph unicode="&#x201d;" horiz-adv-x="975" d="M1103 1292q-6 -27 -31 -65q-63 -95 -194 -275q-58 -80 -109 -80q-63 0 -48 70q9 39 102 183q88 135 131 181q53 59 101 59q63 0 48 -73zM718 1289q-2 -11 -15 -36q-44 -110 -150 -321q-48 -79 -116 -79q-60 0 -47 60t69.5 185.5t94.5 181.5q57 85 117 85q63 0 47 -76z " />
<glyph unicode="&#x201e;" horiz-adv-x="973" d="M863 166q-6 -28 -31 -65q-63 -96 -193 -275q-58 -80 -109 -80q-63 0 -48 70q8 39 102 182q87 135 130 181q54 60 102 60q63 0 47 -73zM478 162q-2 -10 -14 -36q-44 -109 -150 -321q-48 -78 -116 -78q-60 0 -47 60q12 59 69 184.5t95 182.5q57 85 117 85q63 0 46 -77z" />
<glyph unicode="&#x2022;" horiz-adv-x="1471" d="M1433 642q-50 -238 -287 -388q-213 -135 -459 -135q-203 0 -317 110q-124 119 -82 317q47 222 261.5 409t434.5 187q239 0 365 -128q134 -138 84 -372z" />
<glyph unicode="&#x2026;" horiz-adv-x="1331" d="M1169 160q-12 -56 -63.5 -110.5t-106.5 -54.5q-66 0 -51 73q12 55 62.5 114t103.5 59q72 0 55 -81zM807 174q-13 -63 -61 -119q-53 -64 -113 -64q-31 0 -45 26t-7 56q12 58 62 120q56 70 111 70q72 0 53 -89zM458 188q-40 -188 -156 -188q-73 0 -44 135q11 51 53 95.5 t92 44.5q73 0 55 -87z" />
<glyph unicode="&#x202f;" horiz-adv-x="452" />
<glyph unicode="&#x2039;" horiz-adv-x="819" d="M749 674q-15 -70 -108 -124q-77 -40 -229 -120q105 -101 127 -126q87 -97 76 -149q-10 -46 -48 -90q-43 -51 -88 -51q-31 0 -172 143t-161 186q-15 32 -10 56q13 60 86 116q42 33 240 137q202 106 231 106q33 0 48 -25.5t8 -58.5z" />
<glyph unicode="&#x203a;" horiz-adv-x="910" d="M969 469q-10 -44 -60 -92q-62 -60 -315 -223q-267 -171 -315 -171q-56 0 -39 77q12 58 69 109q68 60 188 131q165 98 196 120q-79 48 -156 95q-98 60 -134 113q-25 36 -17 73q10 48 52 97t88 49q23 0 79 -47q40 -30 78 -63q7 -5 140 -85q85 -51 123 -102q31 -41 23 -81z " />
<glyph unicode="&#x205f;" horiz-adv-x="565" />
<glyph unicode="&#x20ac;" horiz-adv-x="1893" d="M1923 1154q-8 -38 -41.5 -74t-68.5 -36q6 0 -91 68.5t-184 68.5q-147 0 -331 -92q-164 -84 -298 -207q213 11 409 11q103 0 89 -67q-23 -106 -129 -138q-31 -10 -161 -12q-225 -4 -360 -12l-5 -22q-14 -69 5 -133q21 3 332 27q201 17 332 63q24 9 27 9q45 0 31 -69 q-20 -90 -118 -126q-32 -12 -130 -26q-118 -15 -352 -49q143 -106 375 -106q155 0 343 65q30 10 40 10q53 0 39 -66q-16 -77 -97 -128q-70 -45 -206 -72q-118 -24 -214 -24q-182 0 -329 68q-156 75 -231 212q-190 -29 -230 -29q-59 0 -45 67q17 80 85 112q42 19 139 29 q0 46 11 96q8 41 24 80q-133 -10 -172 -10q-72 0 -55 78q23 109 147 137q16 3 206 12q156 199 413 346q268 154 488 154q99 0 186 -43q99 -48 123 -126q9 -26 4 -46z" />
<glyph unicode="&#x2122;" horiz-adv-x="1203" d="M1034 196q-5 -20 -30 -42.5t-46 -22.5q-15 0 -19 23q-2 8 -4 76q-4 64 -6 190q-40 -79 -130 -229q-32 -43 -58 -43q-32 0 -26 36q-14 34 -17 123q-3 67 -5 133l-46 -136q-30 -82 -60 -135q-21 -39 -52 -39q-36 0 -29 37q13 60 149 393q-60 -9 -177 -22q9 -29 1 -69 q-7 -30 -30 -86.5t-30 -82.5l-11 -51q-18 -85 -64 -85q-29 0 -9 94q28 131 65 274q-54 -3 -102 -3q-51 0 -44 29q5 27 28 47t51 20q66 0 199 19.5t200 19.5q54 0 41 -39q28 -128 33 -277q40 87 136 256q31 43 63 43q20 0 24 -31q2 -39 5 -116.5t8 -151.5q5 -87 -8 -152z" />
<glyph unicode="&#xe000;" horiz-adv-x="1410" d="M0 1410h1410v-1410h-1410v1410z" />
</font>
</defs>
</svg>
