<?xml version="1.0" standalone="no"?>
<!DOCTYPE svg PUBLIC "-//W3C//DTD SVG 1.1//EN" "http://www.w3.org/Graphics/SVG/1.1/DTD/svg11.dtd" >
<svg xmlns="http://www.w3.org/2000/svg">
<metadata></metadata>
<defs>
<font id="santanabold" horiz-adv-x="573" >
<font-face units-per-em="1000" ascent="800" descent="-200" />
<missing-glyph horiz-adv-x="225" />
<glyph horiz-adv-x="1000" />
<glyph horiz-adv-x="1000" />
<glyph horiz-adv-x="333" />
<glyph horiz-adv-x="300" d="M278 691h-61q-6 0 -6 -5q-1 -10 -5 -21t-11 -20t-18 -15t-27 -6q-27 0 -41.5 19t-19.5 43q-2 5 -6 5h-61q-6 0 -6 -6q0 -25 7.5 -48.5t23.5 -42t41.5 -29.5t61.5 -11q65 0 99 36t35 95z" />
<glyph horiz-adv-x="300" d="M189 607q0 26 -18 45t-44 19q-27 0 -46 -19t-19 -45t18 -45t47 -19q26 0 44 19t18 45z" />
<glyph horiz-adv-x="400" d="M313 627q0 44 -29.5 73t-82.5 29q-54 0 -84 -29.5t-30 -72.5q0 -42 31.5 -71t82.5 -29q50 0 81 28.5t31 71.5zM200 674q20 0 32 -13t12 -33t-12 -33t-32 -13q-19 0 -30.5 14t-11.5 31q0 20 11 33.5t31 13.5z" />
<glyph unicode="&#xa;" horiz-adv-x="300" d="M365 685q2 3 0.5 6.5t-5.5 3.5h-104q-4 0 -5 -3l-71 -138q-2 -3 -0.5 -6t5.5 -3h71q3 0 5 2zM203 685q2 3 0.5 6.5t-5.5 3.5h-104q-4 0 -5 -3l-71 -138q-2 -3 -0.5 -6t5.5 -3h71q3 0 5 2z" />
<glyph horiz-adv-x="300" d="M237 -175l-9 46q-2 7 -8 4q-23 -10 -49 -10q-14 0 -25.5 10t-11.5 27q0 25 27 52.5t65 46.5q5 2 3.5 6.5t-6.5 4.5h-66q-15 -6 -33 -18.5t-33 -29t-25 -36.5t-10 -40q0 -42 27 -64t67 -22q52 0 84 17z" />
<glyph horiz-adv-x="300" d="M296 687q2 3 0.5 6t-5.5 3h-81q-2 0 -5 -3q-13 -20 -26.5 -42.5t-26.5 -42.5l-56 85q-3 3 -5 3h-82q-4 0 -5.5 -3t0.5 -6l102 -147q3 -3 5 -3h79q2 0 5 3z" />
<glyph unicode="&#xd;" horiz-adv-x="267" d="M192 0q6 0 6 6v478q0 6 -6 6h-117q-6 0 -6 -6v-478q0 -6 6 -6h117z" />
<glyph horiz-adv-x="448" d="M453 654q2 3 0.5 6t-5.5 3h-69q-2 0 -5 -3l-379 -663q-2 -3 -0.5 -6t5.5 -3h69q2 0 5 3z" />
<glyph horiz-adv-x="584" d="M506 0q6 0 6 6v478q0 6 -6 6h-297v14q0 25 5.5 46.5t19 37.5t35.5 25.5t54 9.5q35 0 63 -8t45 -19q7 -4 9 3l28 86q2 4 -1 7q-23 17 -64 26.5t-79 9.5q-53 0 -97.5 -13.5t-76.5 -41.5t-50.5 -69.5t-18.5 -97.5v-16h-61q-6 0 -6 -6v-88q0 -6 6 -6h61v-582q0 -6 6 -6h117 q6 0 6 6v582h173v-384q0 -6 6 -6h117z" />
<glyph horiz-adv-x="584" d="M506 0q6 0 6 6v677q0 2 -3 5q-35 20 -78.5 30t-94.5 10q-112 0 -179 -54q-35 -29 -55.5 -73.5t-20.5 -97.5v-13h-61q-6 0 -6 -6v-88q0 -6 6 -6h61v-582q0 -6 6 -6h117q6 0 6 6v582h102q6 0 6 6v88q0 6 -6 6h-103v13q0 26 5.5 48.5t18.5 39.5t34 27t51 10q24 0 39.5 -2.5 t25.5 -7.5v-612q0 -6 6 -6h117z" />
<glyph horiz-adv-x="536" d="M508 0q6 0 6 6v97q0 6 -6 6h-301v223l134 90q3 3 3 5v80q0 4 -2.5 5.5t-5.5 -0.5q-65 -42 -129 -85v242q0 5 -6 5h-117q-6 0 -6 -5v-326l-82 -54q-3 -3 -3 -5v-80q0 -4 3 -5.5t6 0.5q19 12 38 24.5t38 25.5v-243q0 -6 6 -6h424z" />
<glyph horiz-adv-x="277" d="M274 402q2 2 2 5v85q0 3 -3.5 4.5t-6.5 -0.5q-15 -11 -31.5 -24t-31.5 -26v264q0 6 -6 6h-117q-6 0 -6 -6v-364l-66 -53q-2 -2 -2 -5v-84q0 -4 3.5 -5.5t6.5 0.5q14 11 29 23t29 24v-240q0 -6 6 -6h117q6 0 6 6v339z" />
<glyph horiz-adv-x="627" d="M587 0q6 0 6 6v95q0 6 -6 6h-381l380 494v68q0 5 -6 5h-510q-6 0 -6 -5v-96q0 -6 6 -6h344l-384 -494v-67q0 -6 6 -6h551zM475 820q3 3 2 6.5t-6 3.5h-86q-3 0 -5 -2l-28 -32l-28 -32l-60 64q-2 2 -4 2h-88q-5 0 -5.5 -3.5t1.5 -6.5l108 -120q2 -2 4 -2h85q2 0 4 2z" />
<glyph horiz-adv-x="483" d="M460 0q6 0 6 6v92q0 6 -6 6h-271q10 11 18.5 20t16 17t15.5 17t18 20l202 233l1 73q0 6 -6 6h-412q-5 0 -5 -6v-93q0 -6 5 -6h253q-20 -22 -35 -36t-34 -36l-208 -238v-69q0 -6 6 -6h436zM398 687q2 3 0.5 6t-5.5 3h-81q-2 0 -5 -3q-13 -20 -26.5 -42.5t-26.5 -42.5 l-56 85q-3 3 -5 3h-82q-4 0 -5.5 -3t0.5 -6l102 -147q3 -3 5 -3h79q2 0 5 3z" />
<glyph unicode=" "  horiz-adv-x="225" />
<glyph unicode="&#x09;" horiz-adv-x="225" />
<glyph unicode="&#xa0;" horiz-adv-x="225" />
<glyph unicode="!" horiz-adv-x="255" d="M195 669q0 5 -6 5h-124q-6 0 -6 -5l19 -461q0 -5 6 -5h86q6 0 6 5zM127 -12q36 0 58 23.5t22 57.5q0 36 -22 58.5t-58 22.5q-35 0 -57.5 -22.5t-22.5 -58.5q0 -34 22 -57.5t58 -23.5z" />
<glyph unicode="&#x22;" horiz-adv-x="376" d="M334 689q0 6 -5 6h-112q-5 0 -5 -6l19 -251q0 -5 6 -5h72q6 0 6 5zM164 689q0 6 -5 6h-112q-5 0 -5 -6l19 -251q0 -5 6 -5h72q6 0 6 5z" />
<glyph unicode="#" horiz-adv-x="558" d="M511 385q6 0 6 6v75q0 6 -6 6h-78l25 172q2 7 -6 7h-74q-6 0 -6 -5q-5 -43 -11.5 -87t-12.5 -87h-94l24 172q2 7 -6 7h-73q-6 0 -6 -5q-5 -43 -11.5 -87t-12.5 -87h-95q-6 0 -6 -6v-75q0 -6 6 -6h81q-5 -31 -8 -57.5t-8 -58.5h-93q-6 0 -6 -6v-74q0 -6 6 -6h80l-25 -176 q-2 -7 6 -7h74q6 0 6 5q5 45 11.5 89t12.5 89h93l-25 -176q-2 -7 6 -7h75q6 0 6 5q5 45 11.5 89t12.5 89h95q6 0 6 6v74q0 6 -6 6h-80q4 31 8 58.5t8 57.5h90zM334 385q-5 -31 -8 -57.5t-8 -58.5h-92q4 31 8 58.5t8 57.5h92z" />
<glyph unicode="$" d="M503 196q0 71 -45.5 115t-130.5 74q-64 23 -95.5 43.5t-31.5 49.5q0 11 5 23t16 21.5t30 16t46 6.5q55 0 90.5 -14t52.5 -23q2 -2 5 -1t4 4l28 87q2 5 -3 7q-26 12 -60 23t-83 13v88q0 5 -6 5h-79q-6 0 -6 -5v-92q-79 -14 -124 -60.5t-45 -112.5q0 -36 13 -64t37.5 -50 t59 -39t78.5 -31q57 -19 85.5 -40.5t28.5 -53.5q0 -34 -31 -54.5t-80 -20.5q-48 0 -90.5 14.5t-72.5 31.5q-7 4 -9 -3l-28 -88q-2 -4 3 -7q29 -20 75.5 -33t94.5 -15v-91q0 -6 6 -6h79q6 0 6 6v96q43 7 76.5 25t55.5 42.5t33.5 53.5t11.5 59z" />
<glyph unicode="%" horiz-adv-x="887" d="M855 203q0 94 -47.5 144.5t-128.5 50.5q-39 0 -72.5 -14t-58 -41t-38.5 -65.5t-14 -86.5q0 -51 15 -88t39.5 -62t56 -37t66.5 -12q36 0 69 13.5t58 40t40 66t15 91.5zM390 467q0 94 -47.5 145t-128.5 51q-39 0 -72.5 -14.5t-58 -41.5t-38.5 -65.5t-14 -86.5 q0 -50 15 -87.5t39.5 -62t56 -36.5t66.5 -12q36 0 69 13.5t58 40t40 65.5t15 91zM672 653q2 3 0.5 6t-5.5 3h-68q-2 0 -5 -3l-382 -662q-2 -3 -0.5 -6t5.5 -3h68q2 0 5 3zM753 197q0 -60 -19 -93.5t-57 -33.5q-36 0 -57 35t-20 90q1 54 20.5 89.5t56.5 35.5q20 0 34.5 -9.5 t23.5 -26t13.5 -39t4.5 -48.5zM288 461q0 -60 -19 -93t-57 -33q-36 0 -57 34.5t-20 89.5q1 54 20.5 89.5t56.5 35.5q41 0 58.5 -34.5t17.5 -88.5z" />
<glyph unicode="&#x26;" horiz-adv-x="677" d="M671 0q4 0 5 3.5t-1 6.5q-28 26 -55.5 54.5t-57.5 59.5q-3 3 -4 6q42 47 66.5 107t40.5 142q2 7 -6 7h-106q-6 0 -6 -5q-11 -60 -27.5 -101.5t-36.5 -72.5q-28 28 -64.5 66.5t-78.5 83.5q78 35 113.5 77.5t35.5 97.5q0 35 -13.5 63.5t-37.5 48.5t-56.5 31t-69.5 11 q-50 0 -87 -15.5t-61.5 -41t-37 -57t-12.5 -63.5q0 -34 14.5 -67.5t37.5 -61.5q-28 -16 -52 -36t-42 -45t-28.5 -54.5t-10.5 -63.5q0 -37 15 -72t44 -62t73 -43t102 -16q63 0 112.5 17t92.5 52l6.5 -6.5t5.5 -6.5q12 -12 24 -24.5t20 -19.5h143zM284 86q-57 0 -92.5 32.5 t-35.5 83.5q0 21 6.5 38t17 30.5t23.5 23.5t25 18q54 -59 100.5 -107.5t75.5 -75.5q-20 -19 -51 -31t-69 -12zM377 528q0 -35 -25.5 -59t-71.5 -49q-21 23 -34 48t-13 54t19 53.5t55 24.5q18 0 31 -6.5t21.5 -17t13 -23t4.5 -25.5z" />
<glyph unicode="'" horiz-adv-x="203" d="M163 689q0 6 -6 6h-111q-6 0 -6 -6l20 -251q0 -5 6 -5h71q6 0 6 5z" />
<glyph unicode="(" horiz-adv-x="310" d="M280 -117q4 0 5.5 3t-0.5 6q-49 73 -82.5 169t-33.5 225q0 132 33 229.5t83 169.5q2 3 0.5 6t-5.5 3h-84q-3 0 -5 -2q-23 -31 -45.5 -70.5t-41 -89.5t-30 -111t-11.5 -134t11.5 -133t30 -109.5t41 -89t45.5 -70.5q2 -2 5 -2h84z" />
<glyph unicode=")" horiz-adv-x="310" d="M246 288q0 73 -11.5 134t-29.5 110.5t-40.5 89t-45.5 70.5q-2 2 -5 2h-85q-4 0 -5.5 -3t0.5 -6q50 -73 83.5 -169.5t33.5 -226.5q0 -65 -9 -121.5t-25 -106t-37 -91.5t-46 -78q-2 -3 -0.5 -6t5.5 -3h85q2 0 5 3q23 32 45.5 71.5t40.5 89t29.5 109.5t11.5 132z" />
<glyph unicode="*" horiz-adv-x="449" d="M412 448q7 -2 7 6v83q0 8 -7 6q-36 -5 -72 -11.5t-72 -12.5l94 116q4 5 -2 9l-73 41q-7 4 -9 -3q-13 -32 -26.5 -65t-27.5 -65l-55 130q-2 7 -9 3l-74 -41q-6 -4 -2 -9q23 -28 45.5 -56.5t45.5 -56.5l-138 21q-7 0 -7 -6v-83q0 -8 7 -6q35 5 70 10.5t70 10.5l-93 -113 q-4 -5 2 -9l71 -42q7 -4 9 3q14 33 27.5 65.5t27.5 66.5l56 -132q2 -7 9 -3l74 42q6 4 2 9q-23 28 -46 55.5t-47 55.5z" />
<glyph unicode="+" horiz-adv-x="596" d="M552 225q6 0 6 6v75q0 6 -6 6h-209v217q0 6 -6 6h-78q-6 0 -6 -6v-217h-209q-6 0 -6 -6v-75q0 -6 6 -6h209v-219q0 -6 6 -6h78q6 0 6 6v219h209z" />
<glyph unicode="," horiz-adv-x="234" d="M199 160l-123 -10q-5 0 -5 -4q-5 -30 -12 -64t-16 -68t-18.5 -66t-19.5 -59q-4 -8 6 -8l80 8q2 0 5 3q14 23 29 53.5t29.5 65t27.5 70.5t23 71z" />
<glyph unicode="-" horiz-adv-x="327" d="M295 223q6 0 6 6v80q0 6 -6 6h-263q-6 0 -6 -6v-80q0 -6 6 -6h263z" />
<glyph unicode="." horiz-adv-x="234" d="M87 -12q36 0 58 23.5t22 57.5q0 36 -22 58.5t-58 22.5t-58 -22.5t-22 -58.5q0 -34 22 -57.5t58 -23.5z" />
<glyph unicode="/" horiz-adv-x="358" d="M361 678q2 3 -0.5 5.5t-5.5 2.5h-84q-4 0 -6 -4l-259 -713q-2 -8 6 -8h83q4 0 6 4z" />
<glyph unicode="0" d="M537 331q0 75 -15.5 136t-46.5 104.5t-77.5 67.5t-107.5 24q-59 0 -106 -24t-80 -68t-50.5 -107t-17.5 -141q0 -77 17 -139t49 -105.5t77.5 -67t103.5 -23.5q64 0 111.5 25t79 70t47.5 108t16 140zM407 328q0 -116 -30.5 -178.5t-92.5 -62.5q-54 0 -87.5 61.5 t-32.5 179.5q1 114 34 175t87 61q63 0 92.5 -61.5t29.5 -174.5z" />
<glyph unicode="1" d="M363 0q5 0 8.5 3.5t3.5 8.5v628q0 5 -3.5 8.5t-8.5 3.5h-97l-158 -77q-9 -3 -6 -13v1l21 -85q2 -6 7 -8.5t11 0.5q13 7 27 13.5t27 13.5q11 5 22 11l22 12l2 -508q0 -5 3.5 -8.5t8.5 -3.5h110z" />
<glyph unicode="2" d="M513 0q6 0 6 6v94q0 6 -6 6h-272l45 39q49 43 89.5 81.5t68.5 76.5t43.5 76.5t15.5 81.5q0 40 -14 76.5t-42.5 64.5t-71 44.5t-99.5 16.5q-66 0 -120.5 -21t-94.5 -53q-3 -3 -1 -7l37 -82q3 -7 9 -3q26 21 64 40t83 19q34 0 57 -9t37.5 -24.5t20.5 -35t6 -40.5 q0 -28 -15.5 -59t-46 -67.5t-76.5 -79.5t-108 -95l-79 -66q-2 -2 -2 -5v-69q0 -6 6 -6h460z" />
<glyph unicode="3" d="M511 188q0 60 -38 103t-96 58q54 24 81 63.5t27 86.5q0 32 -13 61.5t-39.5 52.5t-67 36.5t-95.5 13.5q-31 0 -60.5 -5t-56 -12.5t-48 -17.5t-36.5 -20q-5 -3 -3 -7l29 -83q1 -3 4 -4t5 1q10 7 25.5 14.5t34.5 14t40.5 10.5t43.5 4q58 0 82.5 -23.5t24.5 -52.5 q0 -23 -12.5 -39.5t-31.5 -27t-42 -15.5t-45 -5h-66q-6 0 -6 -6v-84q0 -6 6 -6h66q28 0 55.5 -6t49 -19t35 -33t13.5 -48q0 -16 -7 -34t-23 -33t-42 -24.5t-65 -9.5q-25 0 -49.5 4.5t-45.5 11.5t-37.5 14.5t-26.5 13.5q-8 4 -8 -3l-29 -88q-2 -4 3 -7q13 -9 33 -17.5 t45.5 -16t55.5 -12t63 -4.5q64 0 114 16t84 43t51.5 63.5t17.5 77.5z" />
<glyph unicode="4" d="M543 165q5 0 5 6v88q0 5 -5 5h-85v381q0 6 -6 6h-141q-3 0 -5 -2l-288 -400v-78q0 -6 5 -6h312v-159q0 -6 6 -6h111q6 0 6 6v159h85zM335 451v-187h-184l133 181q13 21 26 44.5t27 48.5q-2 -23 -2 -45v-42z" />
<glyph unicode="5" d="M510 214q0 66 -28.5 110t-70.5 66q-35 19 -76 28t-87 9q-17 0 -28 -0.5t-22 -1.5q5 32 9.5 59.5t9.5 59.5h264q6 0 6 6v95q0 6 -6 6h-350q-6 0 -6 -5l-43 -320q-1 -3 1.5 -5t5.5 -1q22 2 45.5 4t54.5 2q52 0 88 -9.5t58.5 -26t32.5 -38.5t10 -48q0 -27 -12 -48 t-32.5 -35.5t-47 -22t-53.5 -7.5q-49 0 -90.5 12.5t-63.5 24.5q-6 3 -8 -3l-26 -87q-2 -4 3 -7q27 -15 75.5 -29t112.5 -14q62 0 112.5 17.5t86.5 48.5t55.5 72t19.5 88z" />
<glyph unicode="6" d="M542 223q0 51 -17 91t-47 68t-70 43t-86 15q-48 0 -86.5 -15.5t-64.5 -38.5q8 31 26 59t45.5 51t66 38.5t87.5 20.5h-1q12 1 21 1h19q6 2 11.5 15t9.5 27q4 11 7.5 22t-0.5 12q1 0 -4 12q-5 6 -11 12.5t-14 6.5q-17 0 -38 -1.5t-40 -5.5q-57 -11 -111.5 -35t-93.5 -59 q-53 -48 -85.5 -121.5t-32.5 -167.5q0 -63 17.5 -115t51.5 -90t82.5 -59t110.5 -21q55 0 100.5 19t78 51.5t50.5 75t18 89.5zM160 241q0 10 2 17t6 15q15 29 47 49.5t71 20.5q58 0 91.5 -35t33.5 -92q0 -27 -8.5 -50.5t-23.5 -40.5t-36.5 -27t-47.5 -10q-34 0 -59 12.5 t-41.5 33.5t-25 49t-9.5 58z" />
<glyph unicode="7" d="M524 568v77q0 6 -6 6h-455q-6 0 -6 -6v-94q0 -6 6 -6h321l-290 -536q-2 -3 -0.5 -6t5.5 -3h124q3 0 5 3z" />
<glyph unicode="8" d="M537 186q0 58 -35 99t-88 62q51 27 73.5 66.5t22.5 81.5q0 30 -12.5 60t-39.5 54t-68.5 39t-98.5 15q-50 0 -92 -13.5t-72.5 -37.5t-48 -58t-17.5 -74q0 -42 22 -79t73 -63q-61 -27 -90 -67.5t-29 -99.5q0 -35 16 -68t47 -58.5t77 -41t106 -15.5q56 0 102.5 14t80.5 40 t52.5 62.5t18.5 81.5zM406 175q0 -38 -32 -65t-87 -27q-27 0 -49 8.5t-37 23t-23 32.5t-8 37q1 39 27.5 70t75.5 42q62 -14 97.5 -43.5t35.5 -77.5zM186 486q0 33 25.5 58.5t76.5 25.5q27 0 46 -8t31 -20.5t17.5 -28t5.5 -30.5q0 -38 -26 -64.5t-61 -36.5q-52 12 -84 39 t-31 65z" />
<glyph unicode="9" d="M537 380q0 63 -16.5 115t-48 89.5t-78 58t-105.5 20.5q-56 0 -102 -19t-79 -51.5t-51.5 -75.5t-18.5 -91q0 -44 15.5 -82t44 -65.5t68 -43t87.5 -15.5q97 0 154 59q-19 -77 -87 -131q-29 -23 -66.5 -37t-75.5 -17q-23 -2 -40.5 -2.5t-31.5 1.5q-7 0 -7 -5v-92q0 -6 5 -6 q14 -2 37 -0.5t46 3.5q67 5 126.5 26.5t104.5 59.5q54 47 86.5 121t32.5 180zM406 400q0 -15 -7 -25q-16 -24 -46 -40.5t-72 -16.5q-27 0 -48.5 9t-36.5 24.5t-22.5 36t-7.5 44.5q0 27 8.5 51t24 41.5t37 28t47.5 10.5q34 0 57.5 -14t38.5 -36.5t21 -52t6 -60.5z" />
<glyph unicode=":" horiz-adv-x="234" d="M127 321q36 0 58 23t22 57q0 36 -22 59t-58 23t-58 -23t-22 -59q0 -34 22 -57t58 -23zM126 -12q36 0 58 23.5t22 57.5q0 36 -22 58.5t-58 22.5t-58 -22.5t-22 -58.5q0 -34 22 -57.5t58 -23.5z" />
<glyph unicode=";" horiz-adv-x="234" d="M199 160l-122 -10q-6 0 -6 -4q-5 -30 -12 -64t-16 -68t-18.5 -66t-19.5 -59q-4 -8 6 -8l80 8q2 0 5 3q14 23 29 53.5t29.5 65t27.5 70.5t23 71zM133 321q36 0 57.5 23t21.5 57q0 36 -21.5 59t-57.5 23q-37 0 -58.5 -23t-21.5 -59q0 -34 21.5 -57t58.5 -23z" />
<glyph unicode="&#x3c;" horiz-adv-x="596" d="M526 1q3 -2 6 -0.5t3 5.5v83q0 3 -3 5q-91 43 -182.5 86t-182.5 86l365 174q3 1 3 5v84q0 4 -3 5.5t-6 -0.5l-462 -226q-3 -2 -3 -5v-71q0 -4 3 -5z" />
<glyph unicode="=" horiz-adv-x="596" d="M552 327q6 0 6 6v75q0 6 -6 6h-508q-6 0 -6 -6v-75q0 -6 6 -6h508zM552 126q6 0 6 6v74q0 6 -6 6h-508q-6 0 -6 -6v-74q0 -6 6 -6h508z" />
<glyph unicode="&#x3e;" horiz-adv-x="596" d="M532 227q3 1 3 5v71q0 3 -3 5l-462 226q-3 2 -6 0.5t-3 -5.5v-84q0 -4 3 -5q90 -42 183 -86t183 -86l-366 -174q-3 -2 -3 -5v-83q0 -4 3 -5.5t6 0.5z" />
<glyph unicode="?" horiz-adv-x="456" d="M411 530q0 31 -12 59.5t-35.5 50t-59 34t-82.5 12.5q-50 0 -94 -12t-75 -33q-5 -3 -3 -7l31 -81q1 -3 4 -4t5 1q21 14 50.5 23t56.5 9q45 -1 64 -20t19 -49q0 -26 -17.5 -53.5t-48.5 -61.5q-38 -41 -53.5 -83t-13.5 -79l2 -29q0 -5 6 -5h104q5 0 5 5l-1 24q-2 32 11.5 64 t45.5 66q18 19 34.5 37.5t29 38.5t20 43t7.5 50zM204 -12q37 0 58.5 23.5t21.5 57.5q0 36 -21.5 58.5t-58.5 22.5q-36 0 -57.5 -22.5t-21.5 -58.5q0 -34 21.5 -57.5t57.5 -23.5z" />
<glyph unicode="@" horiz-adv-x="800" d="M584 29q1 0 3 2q1 -1 4 -1q78 8 121.5 71.5t43.5 167.5q0 67 -24.5 122.5t-67.5 96t-102 63t-128 22.5q-88 0 -159 -30.5t-121 -82t-77 -120t-27 -143.5q0 -73 26.5 -132.5t71.5 -101.5t104.5 -65t125.5 -23q54 0 98.5 8.5t90.5 30.5q4 1 3 6l-18 53q-2 6 -8 2 q-30 -15 -69.5 -23.5t-81.5 -8.5q-56 0 -104 18.5t-83 52.5t-55 83t-20 109q0 70 23.5 125.5t63.5 94.5t93.5 59.5t114.5 20.5q59 0 105.5 -18t78.5 -50t49 -76t17 -95q0 -38 -9 -67t-23.5 -48.5t-32 -29t-33.5 -9.5q-1 5 -1 9v9v137q0 32 -8 63t-28 55.5t-53.5 39.5 t-85.5 15q-39 0 -67 -6q-4 0 -4 -5q0 -2 2 -14t5 -28.5t3 -22.5q0 -2 2 -3.5t4 -0.5q10 2 20.5 3t19.5 1q29 0 46 -8t26 -19.5t11.5 -23.5t2.5 -19v-1q-126 0 -190.5 -39t-64.5 -115q0 -18 6 -36.5t18 -34t29.5 -27t40.5 -15.5q28 -6 50 -6q12 0 23 2t25 6q18 6 36 19.5 t29 22.5l5 5l14 -51q2 -4 6 -4zM475 175q0 -5 -0.5 -10t-2.5 -11q-8 -20 -31.5 -38t-57.5 -18q-26 0 -42.5 13.5t-16.5 39.5q0 21 12 35t33 22t48.5 11.5t57.5 3.5v-48z" />
<glyph unicode="A" horiz-adv-x="692" d="M663 0q3 0 5 2.5t0 5.5l-244 663q-3 3 -6 3h-150q-3 0 -6 -3l-238 -663q-2 -8 5 -8l123 -5q4 0 6 4q17 50 33 99.5t33 99.5h234l71 -199q2 -4 6 -4zM433 297h-183l60 168q9 25 15 48t13 47q10 -26 16 -45.5t17 -50.5z" />
<glyph unicode="B" horiz-adv-x="609" d="M568 197q0 35 -11 62.5t-29 47.5t-40.5 34t-46.5 22q53 22 77 60t24 84q0 44 -21.5 76.5t-52.5 52.5q-35 22 -82 33t-119 11q-55 0 -106.5 -4.5t-81.5 -9.5q-5 -2 -5 -6v-652q0 -6 5 -6q26 -3 65 -6t93 -3q97 0 160.5 15.5t101.5 46.5q30 25 49.5 60.5t19.5 81.5z M433 201q0 -31 -13.5 -52t-36 -33.5t-51.5 -18t-59 -5.5q-23 0 -40 0.5t-31 2.5v212l68 1q34 0 63.5 -6t51.5 -19t35 -33.5t13 -48.5zM412 495q0 -42 -34.5 -67.5t-103.5 -25.5h-72v175q11 2 29.5 3.5t46.5 1.5q59 0 96.5 -19.5t37.5 -67.5z" />
<glyph unicode="C" horiz-adv-x="654" d="M430 686q-89 0 -161.5 -27t-124 -74.5t-79.5 -112.5t-28 -142q0 -78 26.5 -141t75.5 -108t118 -69t155 -24q71 0 123.5 12t77.5 25q5 3 3 5l-22 90q-2 7 -8 4q-29 -13 -70.5 -20.5t-84.5 -7.5q-63 0 -111.5 18t-81 50t-49.5 75.5t-17 94.5q0 57 18.5 103t53 77.5t83 48.5 t108.5 17q46 0 84.5 -8.5t65.5 -20.5q6 -4 8 3l27 91q2 5 -3 7q-21 11 -68.5 22.5t-118.5 11.5z" />
<glyph unicode="D" horiz-adv-x="750" d="M713 354q0 78 -29 138.5t-79 102.5q-102 85 -308 85q-60 0 -115 -4t-102 -10q-5 0 -5 -6v-652q0 -6 5 -6q36 -5 80.5 -7t104.5 -2q110 0 197 25.5t141 75.5q52 47 81 113t29 147zM577 349q0 -58 -19 -105t-55.5 -80t-91 -50.5t-125.5 -17.5q-24 0 -45 0.5t-37 2.5v471 q17 4 41 6t59 2q134 0 203.5 -59t69.5 -170z" />
<glyph unicode="E" horiz-adv-x="555" d="M521 0q6 0 6 6v94q0 6 -6 6h-318v190h276q6 0 6 6v94q0 6 -6 6h-276v166h283q6 0 6 6v95q0 5 -6 5h-406q-6 0 -6 -5v-663q0 -6 6 -6h441z" />
<glyph unicode="F" horiz-adv-x="549" d="M498 669q0 5 -6 5h-412q-6 0 -6 -5v-663q0 -6 6 -6h117q5 0 5 6v279h293q6 0 6 6v94q0 6 -6 6h-293v177h290q6 0 6 6v95z" />
<glyph unicode="G" horiz-adv-x="730" d="M672 31v337q0 6 -6 6h-252q-6 0 -6 -6v-91q0 -6 6 -6h132v-157q-16 -6 -44.5 -11t-67.5 -5q-61 0 -109.5 18t-82.5 50t-52 76t-18 97t19 96.5t54 74.5t84.5 48t111.5 17q59 0 99.5 -9.5t72.5 -22.5q6 -2 7 4l28 92q2 5 -4 7q-26 11 -78.5 23t-121.5 12q-96 0 -171.5 -27 t-128 -74.5t-80 -111t-27.5 -136.5q0 -72 26 -135t73 -107q106 -97 291 -97q57 0 107 8t88 19q8 3 14 3t13 1q8 0 18 2z" />
<glyph unicode="H" horiz-adv-x="728" d="M647 0q6 0 6 6v663q0 5 -6 5h-117q-6 0 -6 -5v-261h-320v261q0 5 -6 5h-117q-6 0 -6 -5v-663q0 -6 6 -6h117q6 0 6 6v291h320v-291q0 -6 6 -6h117z" />
<glyph unicode="I" horiz-adv-x="271" d="M194 0q6 0 6 6v663q0 5 -6 5h-117q-6 0 -6 -5v-663q0 -6 6 -6h117z" />
<glyph unicode="J" horiz-adv-x="423" d="M356 246v423q0 5 -6 5h-117q-6 0 -6 -5v-415q0 -46 -8 -76.5t-23.5 -48.5t-37.5 -25.5t-50 -7.5q-25 0 -46.5 4.5t-37.5 10.5q-6 2 -8 -5l-16 -92q0 -5 4 -7q21 -8 54 -13.5t61 -5.5q53 0 97 13.5t75 44t48 80t17 120.5z" />
<glyph unicode="K" horiz-adv-x="620" d="M626 0q4 0 5.5 3.5t-0.5 6.5q-68 95 -136.5 189t-136.5 188l252 278q3 3 1.5 6t-5.5 3l-140 5q-3 0 -5 -2l-213 -246l-15 -18q-7 -8 -13 -14.5t-14 -19.5l-3 290q0 5 -6 5h-116q-6 0 -6 -5v-663q0 -6 6 -6h116q6 0 6 6v236q15 17 30.5 33t31.5 33l222 -315q3 -3 5 -3z " />
<glyph unicode="L" horiz-adv-x="531" d="M503 0q6 0 6 6v206q0 6 -6 6h-60q-4 0 -4 -2l-2 -107h-234v560q0 5 -6 5h-117q-6 0 -6 -5v-663q0 -6 6 -6h423z" />
<glyph unicode="M" horiz-adv-x="890" d="M824 0q5 0 5 6l-38 663q0 5 -6 5h-157q-3 0 -6 -3l-110 -282q-20 -51 -37.5 -105t-31.5 -102q-15 54 -29 102t-34 105l-102 282q-3 3 -6 3h-159q-6 0 -6 -5l-45 -663q0 -6 5 -6l111 -5q5 0 5 6q4 69 8.5 140t8.5 140q3 53 6 110.5t5 111.5q0 7 0.5 19t0.5 18 q8 -32 15.5 -59l15 -54t16.5 -55.5t21 -62.5l102 -298q2 -4 6 -4h91q4 0 6 4l113 301q23 60 42.5 117t37.5 112q1 -35 2 -66.5t2.5 -62t3 -61.5t3.5 -65l14 -285q0 -6 5 -6z" />
<glyph unicode="N" horiz-adv-x="733" d="M652 0q6 0 6 6v663q0 5 -6 5h-109q-6 0 -6 -5v-258q0 -65 1 -120.5t6 -112.5q-24 47 -51.5 95t-62.5 99l-206 299q-1 1 -2.5 2l-1.5 1h-139q-6 0 -6 -5v-663q0 -6 6 -6h109q6 0 6 6v266q0 70 -1 130.5t-4 121.5q26 -53 59 -107t68 -107l205 -307q3 -3 5 -3h124z" />
<glyph unicode="O" horiz-adv-x="780" d="M742 344q0 73 -24.5 136t-70 108.5t-110 71.5t-144.5 26q-77 0 -142.5 -26t-112.5 -73.5t-73.5 -113t-26.5 -144.5q0 -73 25 -135.5t70.5 -108t109.5 -71.5t142 -26q76 0 141.5 25t113.5 71t75 112t27 148zM173 333q0 51 14 96.5t41.5 79.5t68 54t93.5 20 q52 0 92.5 -20.5t68 -54.5t41.5 -78t14 -91q0 -53 -15 -98.5t-43 -78.5t-68.5 -52t-91.5 -19q-50 0 -90 19t-67.5 52t-42.5 77t-15 94zM396 383q-19 0 -31.5 -12.5t-12.5 -31.5q0 -18 12.5 -31t31.5 -13q18 0 31 13t13 31q0 19 -13 31.5t-31 12.5z" />
<glyph unicode="P" horiz-adv-x="595" d="M556 473q0 48 -20 86.5t-49 63.5q-32 27 -83.5 42t-123.5 15q-68 0 -117 -4t-84 -9q-5 0 -5 -6v-655q0 -6 6 -6h116q6 0 6 6v244q14 -3 30 -3.5t36 -0.5q72 0 130 18t98 56q29 27 44.5 66.5t15.5 86.5zM429 469q0 -59 -42.5 -90.5t-116.5 -31.5q-21 0 -37.5 1t-30.5 5 v221q12 2 32 4t47 2q32 0 59.5 -6.5t47 -20t30.5 -34.5t11 -50z" />
<glyph unicode="Q" horiz-adv-x="780" d="M173 333q0 51 14 96.5t41.5 79.5t68 54t93.5 20q52 0 92.5 -20.5t68 -54.5t41.5 -78t14 -91q0 -53 -15 -98.5t-43 -78.5t-68.5 -52t-91.5 -19q-50 0 -90 19t-67.5 52t-42.5 77t-15 94zM762 -92l-69 29q-4 3 -8 -3q-17 -38 -34.5 -50t-34.5 -4q-23 10 -44 31.5t-44 48.5 q-11 12 -20 22.5t-17 18.5q55 15 101.5 45.5t79.5 74t51.5 100t18.5 123.5q0 73 -24.5 136t-70 108.5t-110 71.5t-144.5 26q-77 0 -142.5 -26t-112.5 -73.5t-73.5 -113t-26.5 -144.5q0 -56 15 -106t42.5 -91.5t67.5 -72.5t90 -49q-17 -25 -30 -58q-3 -5 3 -7l69 -30 q4 -1 8 3q20 39 38.5 49.5t37.5 2.5t35.5 -25.5t35.5 -40.5q2 -2 5 -6.5t5 -6.5q35 -42 61.5 -65t55.5 -36q24 -10 49.5 -12t50.5 9t47.5 38t40.5 75z" />
<glyph unicode="R" horiz-adv-x="603" d="M576 0q4 0 5.5 3t-0.5 6q-8 14 -18 50.5t-24 84.5q-3 12 -6 25t-7 27q-12 43 -33 75t-54 49q23 10 44 25.5t37.5 36.5t26 48t9.5 59q0 44 -16.5 78t-43.5 56q-69 57 -218 57q-58 0 -110 -4t-89 -10q-5 0 -5 -6v-654q0 -6 6 -6h116q6 0 6 6v269h74q54 0 83 -27.5t44 -87.5 q15 -61 27 -106.5t21 -60.5q1 -3 5 -3zM288 581q61 0 101 -24t40 -79q0 -49 -38 -77.5t-103 -28.5h-86v203q11 2 32.5 4t53.5 2z" />
<glyph unicode="S" horiz-adv-x="558" d="M514 193q0 80 -48 126.5t-144 77.5q-71 22 -103 44.5t-32 59.5q0 14 6.5 28.5t20 26t35.5 18.5t54 7q51 0 88.5 -12t54.5 -21q2 -2 5 -1t4 4l30 92q2 5 -3 7q-29 15 -72.5 25.5t-104.5 10.5q-57 0 -102.5 -14.5t-78 -40.5t-50 -61.5t-17.5 -77.5q0 -39 14.5 -69.5 t40.5 -55t62.5 -43t81.5 -32.5q67 -21 97 -45.5t30 -61.5q0 -40 -33.5 -65t-94.5 -25q-51 0 -96.5 13.5t-77.5 33.5q-6 3 -8 -3l-29 -96q-2 -4 3 -7q16 -9 38 -18t48.5 -15.5t55 -10.5t57.5 -4q70 0 121 17.5t83.5 46t48 65.5t15.5 76z" />
<glyph unicode="T" horiz-adv-x="566" d="M559 567q6 0 6 6v96q0 5 -6 5h-552q-6 0 -6 -5v-96q0 -6 6 -6h211v-561q0 -6 6 -6h117q6 0 6 6v561h212z" />
<glyph unicode="U" horiz-adv-x="723" d="M648 302v367q0 5 -6 5h-116q-6 0 -6 -5v-372q0 -104 -43 -155t-118 -51q-70 0 -112.5 51t-42.5 155v372q0 5 -6 5h-117q-6 0 -6 -5v-367q0 -85 21 -144.5t58 -97t88 -55t111 -17.5q66 0 120 18.5t93 56.5t60.5 97.5t21.5 141.5z" />
<glyph unicode="V" horiz-adv-x="642" d="M645 667q2 7 -6 7l-124 5q-4 0 -6 -4q-28 -75 -58.5 -159t-57.5 -159q-21 -57 -40 -110.5t-34 -105.5q-8 29 -16 54.5t-16.5 51t-18 53t-20.5 60.5l-105 315q-2 4 -6 4l-128 -5q-6 0 -6 -7l237 -663q2 -4 6 -4h135q4 0 6 4z" />
<glyph unicode="W" horiz-adv-x="929" d="M920 667q2 7 -6 7l-120 5q-5 0 -5 -4l-84 -318q-14 -54 -25 -103t-21 -94q-5 24 -9.5 45.5t-9 43.5t-10 46t-12.5 54l-74 321l-2.5 2.5t-3.5 1.5h-129q-3 0 -6 -3l-83 -313q-14 -54 -27 -106.5t-22 -97.5q-10 45 -20 92t-24 109l-75 319q-2 5 -5 5l-125 -5q-8 0 -6 -7 l178 -663q2 -4 6 -4h128q4 0 6 4q23 83 45 167.5t45 167.5q13 48 23 91.5t18 84.5q4 -25 8 -44.5t8 -38.5t9.5 -41t12.5 -52l80 -334q2 -5 6 -5h125q4 0 6 4z" />
<glyph unicode="X" horiz-adv-x="651" d="M620 0q4 0 5.5 3t-0.5 6q-57 85 -112 168.5t-111 168.5l216 320q2 3 0.5 5.5t-5.5 2.5h-138q-4 0 -4 -3l-87 -142q-18 -29 -31 -53.5t-27 -49.5q-16 26 -28 48.5t-32 55.5l-84 141q-3 3 -4 3h-138q-4 0 -5.5 -2.5t0.5 -5.5q54 -82 105.5 -163t104.5 -162l-219 -332 q-2 -3 -0.5 -6t5.5 -3h138q2 0 5 3q19 33 38 66.5t38 67.5q3 5 7.5 11.5t6.5 11.5q17 28 30 50t25 47q9 -14 17 -26.5t16.5 -26.5t18.5 -30.5t23 -37.5l82 -133q3 -3 5 -3h139z" />
<glyph unicode="Y" horiz-adv-x="622" d="M617 666q2 3 0.5 5.5t-5.5 2.5l-135 5q-4 0 -5 -3q-23 -45 -47.5 -91t-47.5 -91q-4 -7 -7 -13t-7 -13q-14 -25 -25 -47t-22 -45q-13 23 -21.5 39.5t-20.5 39.5q-3 5 -10.5 19.5t-10.5 20.5l-92 181q-2 3 -5 3l-136 -5q-4 0 -5.5 -2.5t0.5 -5.5l230 -381v-279q0 -6 6 -6 h117q6 0 6 6v281z" />
<glyph unicode="Z" horiz-adv-x="627" d="M594 21q4 2 4.5 5t-2.5 5l-89 76h-301l380 494v68q0 5 -6 5h-510q-6 0 -6 -5l-5 -96q0 -6 6 -6h349l-384 -494v-67q0 -6 6 -6h506z" />
<glyph unicode="[" horiz-adv-x="310" d="M279 -110q6 0 6 6v66q0 6 -6 6h-105v641h105q6 0 6 5v66q0 6 -6 6h-197q-6 0 -6 -6v-784q0 -6 6 -6h197z" />
<glyph unicode="\" horiz-adv-x="366" d="M353 -39q8 0 6 8l-257 713q-2 4 -6 4h-83q-8 0 -6 -8l257 -713q2 -4 6 -4h83z" />
<glyph unicode="]" horiz-adv-x="310" d="M228 -110q6 0 6 6v784q0 6 -6 6h-198q-6 0 -6 -6v-66q0 -5 6 -5h106v-641h-106q-6 0 -6 -6v-66q0 -6 6 -6h198z" />
<glyph unicode="^" horiz-adv-x="596" d="M540 181q9 0 5 8l-205 458q-2 4 -5 4h-74q-3 0 -5 -4l-205 -458q-4 -8 5 -8h86q4 0 6 4q37 90 74.5 177.5t74.5 177.5l150 -355q2 -4 6 -4h87z" />
<glyph unicode="_" horiz-adv-x="500" d="M496 -268q6 0 6 6v49q0 6 -6 6h-492q-6 0 -6 -6v-49q0 -6 6 -6h492z" />
<glyph unicode="`" horiz-adv-x="300" d="M219 537q4 0 5.5 3t-0.5 6l-90 147q-3 3 -5 3h-119q-4 0 -6 -3.5t1 -6.5l127 -147q2 -2 5 -2h82z" />
<glyph unicode="a" horiz-adv-x="539" d="M479 0q7 0 5 7q-5 22 -9 53t-4 63v167q0 39 -9.5 77t-34 67.5t-65.5 48t-104 18.5q-23 0 -43.5 -2t-38.5 -5q-5 -2 -5 -7q0 -2 2.5 -17t6 -35t4.5 -27q0 -7 7 -5q12 2 24.5 3.5t23.5 1.5q36 0 57 -9.5t31.5 -23t13.5 -28.5t3 -24v-1q-153 0 -231.5 -47.5t-78.5 -139.5 q0 -22 7.5 -44.5t22 -41.5t35.5 -33t49 -19q17 -3 32 -5t29 -2q28 0 59 10q22 7 43.5 23.5t35.5 27.5l6 6l17 -62q2 -5 7 -5zM347 177q0 -13 -4 -25q-10 -25 -38 -47t-70 -22q-32 0 -52 16.5t-20 48.5q0 25 15 42t40 27t58.5 14t70.5 4v-58z" />
<glyph unicode="b" horiz-adv-x="635" d="M598 252q0 56 -17 102t-47.5 78.5t-72.5 50.5t-91 18q-58 0 -99.5 -19.5t-67.5 -52.5l-2 281q0 6 -6 6h-117q-6 0 -6 -6v-571q0 -38 -0.5 -73t-2.5 -59q0 -7 4 -7l101 -10q7 0 7 6q1 19 2.5 35t2.5 35q32 -39 76 -58.5t92 -19.5q45 0 88.5 16.5t78 49.5t56 82.5 t21.5 115.5zM331 401q34 0 59.5 -12t43 -33t26.5 -49t9 -59q0 -74 -38 -115.5t-103 -41.5q-24 0 -44.5 8t-36.5 20.5t-27 29t-16 34.5q-2 6 -2.5 14t-0.5 13v62q0 9 1 17t3 16v-1q12 46 48 71.5t78 25.5z" />
<glyph unicode="c" horiz-adv-x="495" d="M325 501q-68 0 -122 -20t-91 -55.5t-56.5 -83.5t-19.5 -103q0 -56 19 -102t54 -79t84.5 -51.5t111.5 -18.5q54 0 95 10t61 20q5 2 3 6l-17 85q-2 7 -8 5q-20 -8 -47 -15.5t-64 -7.5q-34 0 -63.5 10.5t-51.5 30.5t-34.5 48.5t-12.5 65.5q0 33 11 61t32 49t51.5 32.5 t68.5 11.5t63 -6.5t42 -14.5q7 -3 9 3l22 87q1 3 -4 6q-23 11 -59.5 18.5t-76.5 7.5z" />
<glyph unicode="d" horiz-adv-x="606" d="M568 257q0 101 -42 182q-20 41 -47 74.5t-64 65.5v-1q-17 16 -33 27.5t-37 24.5q-1 1 -5 3q-8 6 -16.5 12t-13.5 8q-72 43 -147 71q-2 1 -4 0t-2 -3l-47 -72q-2 -2 -1 -5t4 -4q30 -11 57.5 -22.5t50.5 -26.5q8 -5 19.5 -12.5t22.5 -15.5q8 -5 11 -7l6 -4q61 -45 100 -94 q-23 15 -44.5 19.5t-44.5 4.5q-50 0 -96 -17.5t-81 -49.5t-55.5 -77.5t-20.5 -101.5t20.5 -101.5t55.5 -78t83 -50.5t104 -18q51 0 99.5 16.5t85.5 50t59.5 84t22.5 118.5zM435 246q0 -78 -37.5 -120t-97.5 -42q-29 0 -53 11t-41.5 31.5t-27.5 48.5t-10 62q0 27 7.5 55 t24 51.5t42 38t61.5 14.5q34 0 58 -11t40 -26q19 -17 26.5 -42.5t7.5 -70.5z" />
<glyph unicode="e" horiz-adv-x="554" d="M520 261q0 35 -10.5 77t-36.5 78t-70 60.5t-111 24.5q-64 0 -112 -22.5t-80 -60t-48 -85t-16 -96.5q0 -56 18 -102t52.5 -78.5t84.5 -50.5t113 -18q23 0 45.5 1t43.5 6q5 2 5 7l-13 85q0 4 -7 4q-27 -3 -59 -3q-29 0 -56 9t-48.5 24.5t-36.5 37.5t-19 49h351q4 0 6 5 q2 7 3 19.5t1 28.5zM285 411q34 0 55.5 -12t34 -29.5t17.5 -36.5t6 -32h-238q3 18 11 37.5t23 35.5t37.5 26.5t53.5 10.5z" />
<glyph unicode="f" horiz-adv-x="332" d="M355 625q4 0 4.5 10t0.5 24q0 21 -0.5 41.5t-5.5 22.5q-13 2 -37 3.5t-41 1.5q-33 0 -68.5 -11.5t-64.5 -37.5q-33 -31 -48 -78t-15 -98v-13h-61q-6 0 -6 -6l-5 -88q0 -6 6 -6h66v-449q0 -11 -2.5 -32.5t-5 -44t-5 -39l-2.5 -16.5q-2 -7 6 -7l127 -5q6 0 6 5l2.5 20 t2.5 44v524h102q6 0 6 6l5 88q0 6 -6 6h-108v18q0 24 4 44.5t14 36.5t25.5 25t39.5 9q15 0 34 -3.5t28 -6.5z" />
<glyph unicode="g" horiz-adv-x="423" d="M404 461l15 35q2 5 -2 6l-67 38q-6 4 -8 -3l-7 -13.5t-21 -27.5q-6 -8 -15 -13.5t-14 -8.5h-1q-28 22 -68 22q-48 0 -85 -12.5t-61.5 -35.5t-37.5 -55t-13 -70q0 -31 10.5 -61t36.5 -58q-6 -9 -10 -18.5t-9 -20.5l1 1q-9 -15 -13 -30t-4 -29q0 -32 22.5 -58.5t57.5 -48.5 q23 -14 47 -24.5t44 -18.5q13 -6 27.5 -9t26 -7.5t18.5 -12t6 -20.5q-1 -11 -5 -18t-11.5 -11.5t-19 -8.5t-27.5 -8h1q-9 -2 -17.5 -3t-15.5 -1q-8 0 -18.5 1t-18.5 2q-7 0 -7 -6q0 1 -1.5 -5l-3.5 -14q-2 -7 -2.5 -17.5t-1.5 -21t-1.5 -18l-0.5 -7.5l9.5 -2.5t22 -5 t25.5 -5t21 -2.5q13 0 25.5 1.5t21.5 5.5q24 10 48.5 27t44.5 37.5t32.5 43.5t12.5 46q0 24 -8 46q-6 20 -21.5 35.5t-36 28t-45.5 22.5t-50 19q-42 14 -66.5 26.5t-29.5 37.5q-3 2 -3 6q0 5 7 17q16 -6 35.5 -11t37.5 -5q37 0 71 12t59.5 35t41 56.5t15.5 76.5 q0 24 -8.5 50t-26.5 45q17 18 27 29.5t12 14.5v2zM295 321q0 -48 -24 -72.5t-58 -24.5q-33 0 -57.5 26t-24.5 68q0 18 5 35.5t14.5 31.5t25 22.5t36.5 8.5t36.5 -9t26 -22.5t15.5 -30.5t5 -33z" />
<glyph unicode="h" horiz-adv-x="614" d="M570 0q8 2 4 9q-1 2 -7.5 16t-14 37t-7.5 41v177q0 65 -18 107.5t-46 68t-61.5 35.5t-64.5 10q-23 0 -48.5 -6.5t-45.5 -17.5q-34 -18 -58 -48l-2 281q0 6 -6 6h-117q-6 0 -6 -6v-704q0 -6 6 -6h117q6 0 6 6v280q0 11 1 20t5 17q11 27 38 49.5t67 22.5q68 0 85 -68 q5 -6 9 -21t6.5 -34.5t4 -41t1.5 -41.5v-20q0 -13 0.5 -30.5t1.5 -36t2 -34.5q1 -23 7.5 -43t11.5 -30.5t6 -11.5q1 -3 6 -3z" />
<glyph unicode="i" horiz-adv-x="267" d="M192 0q6 0 6 6v478q0 6 -6 6h-117q-6 0 -6 -6v-478q0 -6 6 -6h117zM210 628q-1 30 -21 51t-55 21t-55.5 -21.5t-20.5 -50.5t20 -50.5t55 -21.5q36 0 56.5 21.5t20.5 50.5z" />
<glyph unicode="j" horiz-adv-x="283" d="M215 60v424q0 6 -6 6h-117q-6 0 -6 -6v-386q0 -42 -2 -71.5t-6 -49.5t-10 -32.5t-15 -21.5q-30 -30 -98 -33q-6 0 -6 -7l12 -91q0 -5 6 -5q49 0 99 14t83 48q35 35 50.5 86.5t15.5 124.5zM226 628q0 29 -20 50.5t-55 21.5t-56 -21.5t-21 -50.5t20 -50.5t56 -21.5t56 21.5 t20 50.5z" />
<glyph unicode="k" horiz-adv-x="539" d="M552 0q4 0 5.5 3.5t-0.5 6.5q-57 70 -113.5 140t-112.5 140l194 190q3 3 2 6.5t-6 3.5h-144q-3 0 -5 -2q-34 -39 -68 -78.5t-69 -78.5h1q-8 -8 -16.5 -19t-16.5 -21l-2 419q0 6 -6 6h-117q-6 0 -6 -6v-704q0 -6 6 -6h117q6 0 6 6v164q11 11 20.5 22.5t19.5 21.5l164 -222 q2 -2 5 -2z" />
<glyph unicode="l" horiz-adv-x="309" d="M325 89q0 7 -6 7q-24 2 -48 10t-40 24q-9 9 -15 21.5t-9.5 32.5t-5.5 49.5t-2 71.5v405q0 6 -6 6h-117q-6 0 -6 -6v-444q0 -73 14 -126t49 -88q16 -17 37.5 -28.5t44.5 -18.5t46.5 -10.5t45.5 -3.5q6 0 6 5z" />
<glyph unicode="m" horiz-adv-x="911" d="M864 0q8 2 4 9l-4.5 9.5t-9.5 23.5t-9.5 30.5t-4.5 30.5v174q0 65 -17 108.5t-43 69t-57.5 36t-60.5 10.5q-36 0 -63 -8.5t-50 -25.5q-16 -11 -30.5 -24t-26.5 -32q-20 39 -58 64.5t-89 25.5q-30 0 -54.5 -7t-43.5 -18t-33.5 -25t-24.5 -27l-7 61q0 5 -6 5h-99 q-6 0 -6 -6q2 -32 3 -66.5t1 -74.5v-337q0 -6 6 -6h113q6 0 6 6v278q0 20 7 39q5 12 13.5 24.5t20.5 23t28 17.5t35 7q43 0 67 -32t24 -88v-269q0 -6 6 -6h113q6 0 6 6v284q0 20 7 39q11 26 35 46t58 20q61 0 78 -68q4 -6 7 -20.5t5.5 -34t3.5 -42t1 -44.5q0 -5 0.5 -18 t1.5 -29.5t2 -35t2 -34.5q3 -37 13.5 -61.5l10.5 -24.5q1 -3 6 -3z" />
<glyph unicode="n" horiz-adv-x="614" d="M570 0q8 2 4 9q-1 2 -7.5 16t-14 37t-7.5 41v176q0 65 -18.5 108t-46.5 68.5t-62 35.5t-65 10q-30 0 -55.5 -7t-46 -18.5t-36.5 -25.5t-26 -28l-7 63q0 5 -6 5h-102q-6 0 -6 -6q2 -32 3 -66.5t1 -74.5v-337q0 -6 6 -6h117q6 0 6 6v278q0 9 1.5 18.5t4.5 17.5 q11 28 38 51.5t68 23.5q55 0 79 -36.5t24 -92.5v-163q0 -36 8 -64.5t15 -41t8 -14.5q1 -3 6 -3z" />
<glyph unicode="o" horiz-adv-x="612" d="M576 251q0 53 -19 99t-53.5 79.5t-83.5 52.5t-109 19q-61 0 -111.5 -18.5t-86.5 -53t-56 -82.5t-20 -107q0 -57 20.5 -103.5t56.5 -79.5t84.5 -51t104.5 -18q52 0 101 16.5t87 49.5t61.5 82t23.5 115zM443 246q0 -39 -11 -69t-29.5 -51t-44 -31.5t-54.5 -10.5t-54 11.5 t-43.5 32.5t-29 50.5t-10.5 65.5q0 31 8.5 60.5t26 52t43.5 36t62 13.5t61.5 -14.5t42 -37t24.5 -51.5t8 -57zM312 295q-19 0 -31.5 -13t-12.5 -31q0 -19 12.5 -32t31.5 -13q18 0 31 13t13 32q0 18 -13 31t-31 13z" />
<glyph unicode="p" horiz-adv-x="635" d="M598 254q0 57 -18.5 102.5t-49.5 78t-72 49.5t-86 17q-59 0 -105 -22.5t-77 -59.5l-7 75q0 6 -6 5l-104 -19q-5 0 -5 -6q2 -35 3 -70.5t1 -80.5v-24v-60q0 -36 0.5 -81t0.5 -89v-80v-57q0 -9 -2.5 -29t-5 -40.5t-5 -36.5l-2.5 -16q-2 -7 6 -7q13 -1 27.5 -2.5t28.5 -2.5 q2 -1 14 -3t26 1.5t14 18.5q0 11 3 42.5t7 68.5t8.5 72t6.5 53q26 -29 67 -46t88 -17q46 0 89.5 17t78 50t55.5 83t21 116zM332 399q33 0 58.5 -12t43 -33t26.5 -48.5t9 -57.5q0 -75 -38 -117.5t-103 -42.5q-24 0 -44.5 8t-36.5 21t-27.5 30t-15.5 35q-3 15 -3 30v60 q0 13 5 30q6 22 18 40t29 31t37.5 19.5t41.5 6.5z" />
<glyph unicode="q" horiz-adv-x="606" d="M50 240q0 -102 42 -183q20 -40 47 -74t64 -66v1q18 -16 33 -27t35 -24q7 -5 15 -10q6 -5 12.5 -8.5t8.5 -4.5l-1 1q38 -23 74.5 -41t74.5 -31q2 -1 4 0t2 3l47 72q4 6 -3 8q-30 11 -57.5 23t-50.5 27q-8 5 -19.5 12t-22.5 15q-4 2 -8 5t-8 7q-34 25 -59 47t-45 47 q23 -15 45.5 -19.5t45.5 -4.5q51 0 97 17.5t81 49.5t55.5 77.5t20.5 101.5q0 55 -20.5 100.5t-55.5 78t-83.5 50.5t-103.5 18q-51 0 -99.5 -16.5t-85.5 -49.5t-59.5 -83.5t-22.5 -118.5zM182 251q0 78 38 120t98 42q28 0 52.5 -11.5t42 -31.5t27.5 -48.5t10 -61.5 q0 -27 -8 -55.5t-24 -51.5t-41.5 -38t-61.5 -15q-33 0 -57.5 12t-40.5 26q-18 16 -26.5 43t-8.5 70z" />
<glyph unicode="r" horiz-adv-x="376" d="M358 384v109q0 4 -4 5q-8 2 -14.5 2.5t-16.5 0.5q-39 0 -77 -22t-61 -67l-5 72q0 6 -6 6h-102q-6 0 -6 -6q2 -34 3 -71.5t1 -88.5v-318q0 -6 6 -6h117q6 0 6 6v248q0 7 0.5 16.5t2.5 17.5q10 40 38.5 67t73.5 27q20 0 37 -3z" />
<glyph unicode="s" horiz-adv-x="448" d="M410 144q0 57 -35 92t-106 58q-46 15 -68 28t-22 37q0 21 17.5 35t51.5 14q35 0 64 -10.5t45 -18.5q7 -4 9 2l23 82q2 4 -3 7q-23 13 -59 22t-79 9q-46 0 -82 -12t-60.5 -33t-38 -49.5t-13.5 -60.5q0 -46 35 -83.5t110 -60.5q45 -14 65 -28.5t20 -38.5q0 -23 -19 -37.5 t-63 -14.5q-35 0 -71.5 11.5t-57.5 25.5q-7 4 -9 -3l-25 -86q-2 -4 3 -6q30 -16 70.5 -26.5t88.5 -10.5q52 0 91.5 12t65.5 33t39 49.5t13 61.5z" />
<glyph unicode="t" horiz-adv-x="368" d="M12 484q-1 -1 -1 -11v-11v-68q0 -2 2 -3t4 -1h72v-221q0 -45 10 -80t31 -58q17 -19 45.5 -31t65.5 -12q30 0 54.5 4t38.5 10q4 2 4 6l-3 88q0 8 -8 6q-11 -4 -22 -5.5t-29 -1.5q-36 0 -48.5 24t-12.5 65v206h115q6 0 6 6l5 88q0 6 -6 6h-120v116q0 8 -8 6l-114 -32 q-4 -2 -4 -6v-84h-57q-2 0 -4 -2z" />
<glyph unicode="u" horiz-adv-x="612" d="M549 0q7 2 5 7q-6 26 -10 61.5t-4 77.5v338q0 6 -6 6h-117q-6 0 -6 -6v-282q0 -11 -2 -20t-5 -17h1q-11 -26 -39 -48.5t-68 -22.5q-54 0 -77 36.5t-23 99.5v254q0 6 -6 6h-116q-6 0 -6 -6v-275q0 -66 17 -109t44 -67.5t60 -34.5t66 -10q36 0 63.5 8.5t48.5 21.5t35 28.5 t23 30.5q0 -5 0.5 -19t2.5 -21q1 -5 3.5 -16.5t4.5 -20.5t2 -10q2 -5 7 -5z" />
<glyph unicode="v" horiz-adv-x="546" d="M537 482q4 8 -5 8h-124q-4 0 -6 -4l-92 -251q-10 -26 -18 -51.5t-16 -48.5q-10 27 -16.5 48.5t-17.5 51.5l-93 251q-2 4 -6 4h-127q-9 0 -5 -8l195 -478q2 -4 6 -4h117q4 0 6 4z" />
<glyph unicode="w" horiz-adv-x="798" d="M783 482q2 8 -5 8h-115q-3 0 -5 -4l-63 -220q-9 -31 -17.5 -67t-14.5 -66q-5 19 -9 34t-8.5 30t-9 31.5t-11.5 37.5l-69 220q-2 4 -6 4h-96q-4 0 -6 -4q-17 -54 -36.5 -112t-36.5 -112q-1 -2 -1.5 -5t-1.5 -5q-10 -32 -18.5 -60t-16.5 -61q-5 19 -8.5 35t-6.5 30.5t-7 30 t-9 35.5l-59 224q-2 4 -6 4h-118q-7 0 -5 -8l150 -478q2 -4 6 -4h111q4 0 6 4l70 203q11 32 19 62t16 69q6 -21 10 -37.5t8 -31t9 -29.5t11 -34l66 -202q2 -4 6 -4h111q4 0 6 4z" />
<glyph unicode="x" horiz-adv-x="527" d="M514 0q4 0 5.5 3.5t-0.5 6.5q-45 60 -89.5 122.5t-89.5 123.5l174 224q2 3 0.5 6.5t-5.5 3.5h-129q-2 0 -5 -3l-64 -91q-12 -17 -22.5 -32.5t-21.5 -34.5q-14 19 -23.5 33t-23.5 33v-1l-67 93q-3 3 -5 3h-131q-4 0 -5.5 -3.5t0.5 -6.5q44 -58 87.5 -115t87.5 -114 l-183 -241q-2 -3 -0.5 -6.5t5.5 -3.5h132q2 0 5 3l66 98q2 2 2.5 4t2.5 4q11 17 21 31.5t20 31.5q14 -20 24 -35.5t24 -35.5l69 -98q3 -3 5 -3h134z" />
<glyph unicode="y" horiz-adv-x="535" d="M532 482q2 8 -6 8h-127q-4 0 -6 -4l-91 -261q-5 -14 -9 -29.5t-9 -30.5q-2 -7 -3.5 -12t-3.5 -10q-8 20 -14 39t-14 41l-102 263q-2 4 -6 4h-129q-7 0 -5 -8l193 -439q4 -8 5 -13.5t1 -9.5t-7 -18q-15 -29 -36 -50.5t-39 -32.5q-19 -11 -38 -18.5t-33 -10.5q-7 -2 -5 -7 l23 -97q2 -5 7 -5q24 2 60.5 14.5t73.5 41.5q21 16 42 42t43.5 64t47 89.5t52.5 119.5z" />
<glyph unicode="z" horiz-adv-x="483" d="M460 0q6 0 6 6v92q0 6 -6 6h-271q10 11 18.5 20t16 17t15.5 17t18 20l202 233l1 73q0 6 -6 6h-412q-5 0 -5 -6v-93q0 -6 5 -6h253q-20 -22 -35 -36t-34 -36l-208 -238v-69q0 -6 6 -6h436z" />
<glyph unicode="{" horiz-adv-x="310" d="M280 -110q6 0 6 6v67q0 6 -6 6h-19q-37 0 -53.5 19t-16.5 56q0 14 2 29.5t5 32.5q0 7 1 11l4 30t2 34q1 45 -16 70t-48 37q30 13 47.5 38t16.5 70q0 19 -2 34l-4 30q-1 4 -1 11q-3 17 -5 32t-2 29q0 36 15.5 56t54.5 20h19q6 0 6 5v67q0 6 -6 6h-31q-70 0 -112.5 -32 t-42.5 -103q0 -20 2.5 -40.5t5.5 -40.5q1 -3 1 -8q0 -4 1 -7q2 -15 3.5 -32.5t1.5 -31.5q0 -11 -2 -23t-10 -21.5t-23 -16t-41 -6.5q-6 0 -6 -5v-60q0 -6 6 -6q26 0 41 -7t23 -17t10 -21.5t2 -21.5q0 -14 -1.5 -29.5t-3.5 -30.5q-1 -5 -1 -9q0 -3 -1 -8q-3 -19 -5.5 -38.5 t-2.5 -39.5q0 -77 43 -109t112 -32h31z" />
<glyph unicode="|" horiz-adv-x="273" d="M178 -246q6 0 6 6v983q0 6 -6 6h-83q-6 0 -6 -6v-983q0 -6 6 -6h83z" />
<glyph unicode="}" horiz-adv-x="310" d="M282 259v60q0 5 -6 5q-26 0 -41 6.5t-22.5 16t-9.5 21.5t-2 23q0 19 2 39t5 40t5 40.5t2 40.5q0 71 -42.5 103t-112.5 32h-30q-6 0 -6 -6v-67q0 -5 6 -5h19q39 0 54.5 -20t15.5 -56q0 -14 -2 -29t-5 -32q0 -7 -1 -11l-4 -30t-2 -34q-1 -45 15 -70t47 -36q-29 -13 -46 -39 t-16 -70q0 -19 2 -34l4 -30q1 -4 1 -11q3 -17 5 -32.5t2 -29.5q0 -37 -16.5 -56t-53.5 -19h-19q-6 0 -6 -6v-67q0 -6 6 -6h30q69 0 112 32t43 109q0 20 -2 39.5t-5 38.5q-3 20 -5 39.5t-2 37.5q0 10 2 21.5t9.5 21.5t22.5 17t41 7z" />
<glyph unicode="~" horiz-adv-x="596" d="M552 373h-75q-6 0 -6 -6q-2 -42 -13 -59.5t-30 -17.5q-24 0 -52 11.5t-60 27.5q-49 24 -80 36t-65 12q-59 0 -97 -42.5t-36 -131.5q0 -6 6 -6h75q6 0 6 6q3 44 16.5 60.5t33.5 16.5t42.5 -9.5t48.5 -23.5q2 -1 7.5 -3.5t7.5 -4.5q48 -24 81.5 -35.5t65.5 -11.5q26 0 50 8 t42.5 28.5t29 54t8.5 84.5z" />
<glyph unicode="&#xa1;" horiz-adv-x="255" d="M190 -191q6 0 6 6l-19 457q0 6 -6 6h-86q-6 0 -6 -6l-19 -457q0 -6 6 -6h124zM127 330q37 0 59 23.5t22 57.5q1 36 -21.5 59t-58.5 23t-57.5 -23t-22.5 -59q0 -34 21.5 -57.5t57.5 -23.5z" />
<glyph unicode="&#xa2;" d="M379 674q0 6 -6 6h-78q-6 0 -6 -6v-93q-50 -9 -90.5 -32t-68.5 -56.5t-43 -76t-15 -90.5q0 -49 15 -91.5t44 -73.5q29 -32 66.5 -51.5t91.5 -25.5v-94q0 -6 6 -6h78q6 0 6 6v93q38 3 67 12t46 18q5 2 3 6l-18 83q-2 6 -8 3q-18 -7 -45.5 -14.5t-69.5 -7.5q-31 0 -58.5 10 t-48.5 29t-33 47t-12 65q0 34 11.5 62t32 48t49 31t63.5 11q38 0 63 -7t40 -16q7 -4 9 4l22 87q2 4 -4 6q-19 8 -48 15.5t-61 9.5v89z" />
<glyph unicode="&#xa3;" d="M522 0q6 0 6 6v95q0 6 -6 6h-289q18 18 31.5 39t20.5 45q4 14 5.5 29.5t1.5 31.5q0 7 -0.5 11.5t-0.5 11.5h135q6 0 6 6v82q0 6 -6 6h-147q-4 18 -6.5 38t-2.5 41q0 23 5.5 43t18 35t32.5 23.5t49 8.5q32 0 55 -5.5t37 -13.5q7 -4 9 4l22 87q1 3 -2 6q-19 11 -50 19 t-75 8q-49 0 -89.5 -15t-70 -42t-45.5 -65.5t-16 -85.5q0 -23 2 -45t5 -41h-83q-6 0 -6 -6v-82q0 -6 6 -6h100q2 -14 2.5 -24.5t0.5 -22.5q0 -27 -9.5 -50t-25 -43t-36.5 -35.5t-44 -27.5q-3 -2 -3 -5v-61q0 -6 6 -6h457z" />
<glyph unicode="&#xa5;" d="M562 642q2 3 0.5 6t-5.5 3h-125q-4 0 -5 -3l-102 -183q-11 -20 -21 -42t-18 -42q0 -1 -1 -1v-1q-6 13 -10.5 22.5t-8.5 19t-9 19.5l-12 24l-98 184q-2 3 -5 3h-127q-4 0 -5.5 -3t0.5 -6q43 -70 87 -141t87 -141h-121q-6 0 -6 -6v-58q0 -6 6 -6h156v-57h-156q-6 0 -6 -6 v-58q0 -6 6 -6h156v-157q0 -6 6 -6h110q6 0 6 6v157h157q6 0 6 6v58q0 6 -6 6h-157v57h157q6 0 6 6v58q0 6 -6 6h-119z" />
<glyph unicode="&#xa6;" horiz-adv-x="273" d="M178 320q6 0 6 5v345q0 5 -6 5h-83q-6 0 -6 -5v-345q0 -5 6 -5h83zM178 -172q6 0 6 6v344q0 6 -6 6h-83q-6 0 -6 -6v-344q0 -6 6 -6h83z" />
<glyph unicode="&#xa7;" horiz-adv-x="577" d="M519 294q0 36 -14.5 63t-39.5 46.5t-59 33.5t-73 26q-55 17 -88 33.5t-33 44.5q0 25 26 41t71 16q46 0 78.5 -10t52.5 -21q7 -4 9 3l23 72q2 5 -3 7q-66 34 -160 34q-44 0 -82.5 -10.5t-67 -30t-45 -47.5t-16.5 -64q0 -25 10 -48.5t25 -37.5q-40 -23 -57.5 -55.5 t-17.5 -62.5q0 -36 16 -62t43 -45.5t63.5 -34.5t77.5 -27q61 -19 88 -38t27 -45q0 -31 -29 -47t-74 -16q-46 0 -84.5 13.5t-58.5 27.5q-2 2 -5 1t-4 -4l-28 -71q-2 -4 3 -7q37 -26 85 -36t96 -10q36 0 74.5 8t70.5 27t52.5 49.5t20.5 74.5q0 30 -12 53t-26 37q29 21 47 51.5 t18 67.5zM412 279q0 -35 -30 -59q-16 8 -41 17.5t-50 17.5q-12 4 -28 8q-51 18 -75 39t-24 45q0 17 9.5 31t26.5 27q18 -9 40.5 -16.5l43.5 -14.5q12 -5 24 -9t22 -8q46 -16 64 -35.5t18 -42.5z" />
<glyph unicode="&#xa8;" horiz-adv-x="300" d="M312 607q0 26 -17 45t-46 19q-27 0 -45.5 -19t-18.5 -45t17.5 -45t46.5 -19t46 19t17 45zM114 607q0 26 -17.5 45t-43.5 19q-29 0 -47.5 -19t-18.5 -45t18 -45t47 -19q28 0 45 19t17 45z" />
<glyph unicode="&#xa9;" horiz-adv-x="677" d="M643 340q0 64 -23.5 120t-64.5 98t-96.5 66.5t-118.5 24.5q-64 0 -119.5 -24.5t-97 -66.5t-65.5 -98t-24 -120q0 -65 24 -121.5t65.5 -98.5t97 -66.5t119.5 -24.5q63 0 118.5 24.5t96.5 66.5t64.5 98.5t23.5 121.5zM577 340q0 -53 -18.5 -99t-50 -80t-75 -53.5 t-92.5 -19.5q-51 0 -94.5 19.5t-75.5 53t-50.5 79t-18.5 97.5q0 54 18.5 100t50.5 80t75.5 53.5t94.5 19.5q49 0 92.5 -19.5t75 -53t50 -79.5t18.5 -98zM484 190l-13 43q-2 8 -9 3q-17 -11 -42.5 -18.5t-54.5 -7.5q-60 0 -93 36.5t-33 90.5q0 57 31.5 91.5t93.5 34.5 q33 0 58 -8.5t34 -14.5q7 -4 9 3l13 45q0 4 -2 6q-5 5 -16.5 10t-26.5 9.5t-33 7t-37 2.5q-38 0 -73 -13t-62 -38t-43 -60t-16 -78q0 -39 12.5 -72.5t36.5 -58t58.5 -39t79.5 -14.5q31 0 64.5 7t60.5 26z" />
<glyph unicode="&#xaa;" horiz-adv-x="383" d="M338 263q7 0 6 6q-4 20 -5.5 43t-1.5 46q0 24 0.5 46.5t0.5 40.5q0 28 -7 55t-23.5 48t-44.5 33.5t-71 12.5q-41 0 -75.5 -10t-57.5 -26q-5 -2 -3 -6l19 -52q1 -3 4.5 -3.5t5.5 0.5q17 13 40.5 20t49.5 7q23 0 36.5 -6t20 -14t8.5 -15t2 -10v-2q-103 1 -156.5 -31 t-53.5 -87q0 -41 29 -71t85 -30q35 0 60.5 11t42.5 27l6 -29q1 -4 6 -4h77zM244 380q0 -8 -8 -22q-7 -14 -23.5 -24t-36.5 -10t-34 11t-14 29q0 29 34 41t82 11v-36z" />
<glyph unicode="&#xab;" horiz-adv-x="462" d="M433 62q3 0 4.5 3t-0.5 6q-32 46 -65 91.5t-65 91.5l130 183q2 2 0.5 5t-4.5 3h-88q-2 0 -5 -3l-130 -185q-2 -3 0 -6l131 -186q3 -3 5 -3h87zM251 62q4 0 5.5 3t-0.5 6q-33 46 -66 91.5t-65 91.5l131 183q2 2 0.5 5t-5.5 3h-87q-2 0 -5 -3l-130 -185q-2 -3 0 -6 l130 -186q3 -3 5 -3h87z" />
<glyph unicode="&#xac;" horiz-adv-x="596" d="M552 114q6 0 6 6v288q0 6 -6 6h-508q-6 0 -6 -6v-75q0 -6 6 -6h422v-207q0 -6 6 -6h80z" />
<glyph unicode="&#xad;" horiz-adv-x="327" d="M295 223q6 0 6 6v80q0 6 -6 6h-263q-6 0 -6 -6v-80q0 -6 6 -6h263z" />
<glyph unicode="&#xae;" horiz-adv-x="510" d="M480 457q0 47 -17.5 88.5t-47.5 72t-71 48.5t-88 18t-87.5 -18t-71.5 -48.5t-48.5 -72t-17.5 -88.5q0 -48 17.5 -89.5t48.5 -72t71.5 -48.5t87.5 -18t88 18t71 48.5t47.5 72t17.5 89.5zM424 457q0 -37 -13 -69.5t-35.5 -56.5t-53 -38t-65.5 -14t-66 14t-53.5 38 t-35.5 56.5t-13 69.5t13 69t35.5 56t53.5 38t66 14t65.5 -14t53 -38t35.5 -56t13 -69zM354 322q4 0 5.5 3t-0.5 6q-2 5 -6.5 17.5t-7.5 41.5q-6 44 -30 59q17 9 27 24.5t10 36.5q0 20 -6 34t-17 23q-26 20 -84 20q-26 0 -42.5 -2t-32.5 -4q-4 0 -4 -6v-247q0 -6 5 -6h45 q6 0 6 6v100h19q21 0 31.5 -8.5t13.5 -28.5q6 -49 17 -66q3 -3 5 -3h46zM244 542q29 0 39.5 -11t10.5 -25q0 -18 -14.5 -25.5t-37.5 -7.5h-20v68q5 1 9 1h13z" />
<glyph unicode="&#xaf;" horiz-adv-x="300" d="M271 576q6 0 6 6v64q0 6 -6 6h-241q-6 0 -6 -6v-64q0 -6 6 -6h241z" />
<glyph unicode="&#xb0;" horiz-adv-x="350" d="M325 543q0 28 -10.5 54t-30 45.5t-47.5 31.5t-62 12q-32 0 -59.5 -11.5t-47.5 -31.5t-31.5 -46.5t-11.5 -57.5q0 -29 11 -55t30.5 -46t47 -31.5t60.5 -11.5q30 0 57.5 11t48 30.5t33 46.5t12.5 60zM246 542q0 -33 -20 -54.5t-51 -21.5q-30 0 -50 20.5t-20 52.5 q0 28 17.5 52t52.5 24q19 0 32.5 -7t22 -17.5t12.5 -23.5t4 -25z" />
<glyph unicode="&#xb1;" horiz-adv-x="596" d="M552 311q6 0 6 6v73q0 6 -6 6h-209v177q0 6 -6 6h-78q-6 0 -6 -6v-177h-209q-6 0 -6 -6v-73q0 -6 6 -6h209v-182q0 -6 6 -6h78q6 0 6 6v182h209zM552 0q6 0 6 6v75q0 6 -6 6h-508q-6 0 -6 -6v-75q0 -6 6 -6h508z" />
<glyph unicode="&#xb2;" horiz-adv-x="385" d="M343 263q6 0 6 5v68q0 6 -6 6h-151q4 3 9.5 7.5t8.5 7.5v-1q28 24 52 45t42 42.5t28 45t10 52.5q0 23 -9.5 45t-28.5 39t-47.5 27.5t-66.5 10.5q-44 0 -81 -13.5t-61 -32.5q-3 -3 -1 -7l26 -58q3 -6 8 -2q15 11 37.5 20t48.5 9q35 0 50.5 -16t15.5 -38q0 -29 -32 -63 t-92 -85l-67 -57q-2 -2 -2 -5v-47q0 -5 6 -5h297z" />
<glyph unicode="&#xb3;" horiz-adv-x="375" d="M348 379q0 36 -21.5 61t-60.5 34q32 14 49 36t17 51q0 20 -8.5 38.5t-26 32.5t-44.5 22.5t-64 8.5q-44 0 -80 -11t-58 -23q-5 -2 -3 -7l22 -59q1 -3 4 -4t5 1q13 8 37.5 17.5t52.5 9.5q32 0 43.5 -11.5t11.5 -24.5q0 -14 -8 -23t-20 -14.5t-26 -8t-27 -2.5h-34 q-6 0 -6 -6v-55q0 -5 6 -5h34q17 0 34 -3t30.5 -9.5t22.5 -16.5t9 -25q0 -17 -19 -33.5t-60 -16.5q-14 0 -28.5 2.5t-28 6.5t-24.5 9t-18 9q-2 2 -5 1t-4 -4l-21 -62q-2 -4 3 -7q20 -12 57 -21t79 -9t75.5 9.5t56 26t34.5 38.5t12 47z" />
<glyph unicode="&#xb4;" horiz-adv-x="300" d="M301 686q3 3 1 6.5t-6 3.5h-119q-2 0 -5 -3l-90 -147q-2 -3 -0.5 -6t5.5 -3h82q3 0 5 2z" />
<glyph unicode="&#xb5;" horiz-adv-x="612" d="M538 0q6 0 6 6q-2 29 -3 63.5t-1 76.5v338q0 6 -6 6h-117q-6 0 -6 -6v-293q-2 -17 -11 -34.5t-24 -31t-34.5 -22t-41.5 -8.5q-28 0 -47.5 9.5t-31.5 27t-17.5 41t-5.5 51.5v260q0 6 -6 6h-116q-6 0 -6 -6v-675q0 -6 6 -6h105q6 0 6 6q-2 57 -4 110t-4 110 q23 -27 49.5 -33.5t47.5 -6.5q27 0 50 7.5t41 19.5t32 27t24 29l7 -67q0 -5 6 -5h102z" />
<glyph unicode="&#xb6;" horiz-adv-x="561" d="M470 -47q6 0 6 6v704q0 4 -5 6q-20 4 -55.5 6.5t-80.5 2.5q-94 0 -153 -21t-92 -53.5t-45 -72.5t-12 -79q0 -49 19 -85.5t48.5 -60.5t63.5 -36t64 -12h1v-299q0 -6 6 -6h80q6 0 6 6v630h63v-630q0 -6 6 -6h80z" />
<glyph unicode="&#xb7;" horiz-adv-x="840" d="M786 0q5 0 5 6v68q0 6 -5 6h-152q4 3 9.5 7t8.5 7v-1l52.5 45t42 43t27.5 45.5t10 51.5q0 23 -9.5 45t-28.5 39t-47.5 27.5t-67.5 10.5q-44 0 -81 -13.5t-61 -31.5q-3 -3 -1 -8l26 -58q3 -6 8 -2q15 11 38 20.5t49 9.5q35 0 50.5 -16.5t15.5 -37.5q0 -30 -32 -64t-92 -85 l-68 -57q-2 -2 -2 -5v-46q0 -6 6 -6h299zM604 654q2 3 0.5 6t-5.5 3h-70q-2 0 -5 -3l-378 -663q-2 -3 -0.5 -6t4.5 -3h70q2 0 5 3zM219 263q6 0 6 5v384q0 6 -6 6h-82l-101 -44q-3 -2 -3 -6l12 -67q2 -7 8 -4q18 8 33 15t33 15l2 -299q0 -5 6 -5h92z" />
<glyph unicode="&#xb8;" horiz-adv-x="300" d="M240 -110q0 29 -21 48.5t-47 25.5l27 41q2 3 0.5 6t-5.5 3h-67q-2 0 -5 -3l-46 -82q-2 -3 -0.5 -6t5.5 -3q36 -3 54.5 -10.5t19.5 -22.5q0 -13 -11 -18t-25 -5q-11 0 -25.5 3.5t-25.5 10.5q-7 4 -9 -3l-16 -47q-2 -4 3 -7q14 -9 34 -14t40 -5q24 0 46 4.5t38.5 15 t26 27.5t9.5 41z" />
<glyph unicode="&#xb9;" horiz-adv-x="355" d="M244 263q6 0 6 5v384q0 6 -6 6h-82l-100 -44q-4 -2 -4 -6l12 -67q2 -7 8 -4q17 8 33.5 15t33.5 15l1 -299q0 -5 6 -5h92z" />
<glyph unicode="&#xba;" horiz-adv-x="388" d="M375 429q0 34 -12.5 64t-36 52.5t-57 35.5t-74.5 13q-38 0 -71 -12.5t-58 -35t-39 -54.5t-14 -70q0 -37 14 -67t38.5 -51.5t57.5 -33.5t70 -12q34 0 66.5 11t58 32.5t41.5 53.5t16 74zM278 426q0 -47 -24.5 -72t-58.5 -25q-16 0 -31 7t-26 19.5t-18 30t-7 38.5 q0 18 5 35.5t15 31.5t25.5 22.5t36.5 8.5t36.5 -9t26 -23t15.5 -31t5 -33z" />
<glyph unicode="&#xbb;" horiz-adv-x="462" d="M431 251q1 3 0 6l-131 185q-3 3 -5 3h-87q-4 0 -5.5 -3t0.5 -5q33 -46 66.5 -91.5t65.5 -91.5l-131 -183q-2 -3 -0.5 -6t5.5 -3h86q2 0 5 3zM252 251q1 3 0 6l-132 185q-3 3 -5 3h-87q-4 0 -5.5 -3t0.5 -5q33 -46 66.5 -91.5t65.5 -91.5l-131 -183q-2 -3 -0.5 -6t5.5 -3 h86q2 0 5 3z" />
<glyph unicode="&#xbc;" horiz-adv-x="840" d="M797 95q6 0 6 6v59q0 6 -6 6h-55v228q0 6 -6 6h-105q-2 0 -4 -2l-196 -245v-52q0 -6 6 -6h206v-89q0 -6 6 -6h87q6 0 6 6v89h55zM624 654q2 3 0.5 6t-5.5 3h-70q-2 0 -5 -3l-379 -663q-2 -3 -0.5 -6t5.5 -3h70q2 0 5 3zM232 263q6 0 6 5v384q0 6 -6 6h-82l-101 -44 q-4 -2 -4 -6l13 -67q2 -7 8 -4q17 8 33.5 15t33.5 15l1 -299q0 -5 6 -5h92zM643 263v-97h-100l77 102l25 43v-4q0 -11 -1 -22t-1 -22z" />
<glyph unicode="&#xbd;" horiz-adv-x="840" d="M786 0q5 0 5 6v68q0 6 -5 6h-152q4 3 9.5 7t8.5 7v-1l52.5 45t42 43t27.5 45.5t10 51.5q0 23 -9.5 45t-28.5 39t-47.5 27.5t-67.5 10.5q-44 0 -81 -13.5t-61 -31.5q-3 -3 -1 -8l26 -58q3 -6 8 -2q15 11 38 20.5t49 9.5q35 0 50.5 -16.5t15.5 -37.5q0 -30 -32 -64t-92 -85 l-68 -57q-2 -2 -2 -5v-46q0 -6 6 -6h299zM604 654q2 3 0.5 6t-5.5 3h-70q-2 0 -5 -3l-378 -663q-2 -3 -0.5 -6t4.5 -3h70q2 0 5 3zM219 263q6 0 6 5v384q0 6 -6 6h-82l-101 -44q-3 -2 -3 -6l12 -67q2 -7 8 -4q18 8 33 15t33 15l2 -299q0 -5 6 -5h92z" />
<glyph unicode="&#xbe;" horiz-adv-x="840" d="M808 95q6 0 6 6v59q0 6 -6 6h-54v228q0 6 -6 6h-104q-3 0 -5 -2l-195 -245v-52q0 -6 6 -6h205v-89q0 -6 6 -6h87q6 0 6 6v89h54zM347 379q0 36 -21.5 61t-60.5 34q32 14 49 36t17 51q0 20 -8.5 38.5t-26.5 32.5t-45 22.5t-64 8.5q-44 0 -79.5 -10.5t-57.5 -24.5 q-5 -2 -3 -7l22 -58q1 -3 4 -4t5 1q11 8 36 17.5t53 9.5q32 0 44 -11.5t12 -24.5q0 -14 -8 -23t-20 -14.5t-26 -8t-27 -2.5h-34q-6 0 -6 -6v-55q0 -5 6 -5h34q17 0 34 -3t30.5 -9.5t22.5 -16.5t9 -25q0 -17 -19 -33.5t-60 -16.5q-14 0 -28.5 2.5t-28 6.5t-24.5 9t-18 9 q-2 2 -5 1t-4 -4l-21 -62q-2 -4 3 -7q20 -12 57 -21t79 -9t75.5 9.5t56 26t34.5 38.5t12 47zM664 654q2 3 0.5 6t-5.5 3h-70q-2 0 -5 -3l-378 -663q-2 -3 -0.5 -6t5.5 -3h69q2 0 5 3zM655 263v-97h-100l77 101q5 7 12 18t12 22l1 2q-1 -11 -1.5 -22.5t-0.5 -23.5z" />
<glyph unicode="&#xbf;" horiz-adv-x="456" d="M417 -152l-31 82q-1 3 -4 4t-5 -1q-21 -16 -50.5 -24.5t-56.5 -8.5q-44 1 -63.5 20t-19.5 49q0 26 17.5 53.5t49.5 61.5q37 41 52.5 83t13.5 79l-2 28q0 6 -6 6h-104q-5 0 -5 -6l1 -23q2 -33 -11 -65t-45 -65q-18 -19 -34.5 -37.5t-29 -39t-20 -43t-7.5 -49.5 q0 -32 11.5 -60t35 -49.5t59 -34t82.5 -12.5q50 0 94 12.5t75 32.5zM261 330q36 0 57.5 23.5t21.5 57.5q0 36 -21.5 59t-57.5 23t-58 -23t-22 -59q0 -34 21.5 -57.5t58.5 -23.5z" />
<glyph unicode="&#xc0;" horiz-adv-x="692" d="M663 0q3 0 5 2.5t0 5.5l-244 663q-3 3 -6 3h-150q-3 0 -6 -3l-238 -663q-2 -3 0 -5.5t5 -2.5h123q4 0 6 4q17 49 33 97t33 97h234l71 -194q2 -4 6 -4h128zM433 297h-183l60 168q9 25 15 48t13 47q10 -26 16 -45.5t17 -50.5zM402 699q4 0 5.5 3.5t-0.5 6.5l-88 119 q-2 2 -4 2h-133q-5 0 -6 -3.5t2 -6.5l126 -121h98z" />
<glyph unicode="&#xc1;" horiz-adv-x="692" d="M663 0q3 0 5 2.5t0 5.5l-244 663q-3 3 -6 3h-150q-3 0 -6 -3l-238 -663q-2 -3 0 -5.5t5 -2.5h123q4 0 6 4q17 49 33 97t33 97h234l71 -194q2 -4 6 -4h128zM433 297h-183l60 168q9 25 15 48t13 47q10 -26 16 -45.5t17 -50.5zM510 820q3 3 2 6.5t-6 3.5h-131q-3 0 -5 -2 l-88 -120q-2 -3 -0.5 -6.5t5.5 -3.5h97z" />
<glyph unicode="&#xc2;" horiz-adv-x="692" d="M663 0q3 0 5 2.5t0 5.5l-244 663q-3 3 -6 3h-150q-3 0 -6 -3l-238 -663q-2 -3 0 -5.5t5 -2.5h123q4 0 6 4q17 49 33 97t33 97h234l71 -194q2 -4 6 -4h128zM433 297h-183l60 168q9 25 15 48t13 47q10 -26 16 -45.5t17 -50.5zM500 698q5 0 6 3.5t-2 6.5l-107 120q-2 2 -4 2 h-85q-2 0 -4 -2l-106 -120q-3 -3 -2 -6.5t5 -3.5h87q3 0 5 2q14 17 28.5 32.5t28.5 32.5l58 -65q2 -2 4 -2h88z" />
<glyph unicode="&#xc3;" horiz-adv-x="692" d="M663 0q3 0 5 2.5t0 5.5l-244 663q-3 3 -6 3h-150q-3 0 -6 -3l-238 -663q-2 -3 0 -5.5t5 -2.5h123q4 0 6 4q17 49 33 97t33 97h234l71 -194q2 -4 6 -4h128zM481 829h-55q-6 0 -6 -6q-2 -23 -7 -30t-16 -7q-10 0 -21.5 4.5t-23.5 12.5q-17 10 -33 16t-36 6 q-37 0 -58.5 -30.5t-19.5 -86.5q0 -6 6 -6h56q6 0 6 5q2 18 7 29t13 11q9 0 18.5 -4.5t19.5 -9.5q4 -3 8 -4q18 -9 33.5 -15t35.5 -6q40 0 60.5 27.5t18.5 87.5zM433 297h-183l60 168q9 25 15 48t13 47q10 -26 16 -45.5t17 -50.5z" />
<glyph unicode="&#xc4;" horiz-adv-x="692" d="M663 0q3 0 5 2.5t0 5.5l-244 663q-3 3 -6 3h-150q-3 0 -6 -3l-238 -663q-2 -3 0 -5.5t5 -2.5h123q4 0 6 4q17 49 33 97t33 97h234l71 -194q2 -4 6 -4h128zM433 297h-183l60 168q9 25 15 48t13 47q10 -26 16 -45.5t17 -50.5zM511 769q0 26 -18 45t-45 19q-29 0 -47 -19 t-18 -45t17.5 -45t46.5 -19t46.5 19t17.5 45zM313 769q0 26 -18 45t-44 19q-29 0 -47 -19t-18 -45t17.5 -45t46.5 -19q28 0 45.5 19t17.5 45z" />
<glyph unicode="&#xc5;" horiz-adv-x="692" d="M665 0q3 0 5 2.5t0 5.5q-59 163 -119 324t-119 325q19 11 31.5 30.5t12.5 44.5q0 48 -32 78t-95 30q-30 0 -54 -8.5t-40 -23.5t-24.5 -34.5t-8.5 -41.5q0 -23 10.5 -42t27.5 -29l-233 -653q-2 -8 5 -8h122q4 0 6 4q17 49 33 97t33 97h236l69 -194q2 -4 6 -4h128zM435 297 h-184l65 180q6 17 11.5 37.5t10.5 38.5q1 2 1 3t1 3l4 -8q0 1 2 -6q6 -20 12 -40.5t13 -37.5zM398 736q0 -20 -13.5 -33.5t-36.5 -13.5q-22 0 -35 13.5t-13 32.5q0 21 12.5 35.5t35.5 14.5t36.5 -14t13.5 -35z" />
<glyph unicode="&#xc6;" horiz-adv-x="903" d="M860 0q6 0 6 6v94q0 6 -6 6h-267q-8 50 -14 95t-14 95h253q6 0 6 6v94q0 6 -6 6h-271q-6 42 -12 83t-12 83h303q6 0 6 6v95q0 5 -6 5h-492q-4 0 -5 -3l-327 -662q-2 -3 -0.5 -6t5.5 -3h122q3 0 5 3q26 54 52 106.5t51 105.5h215l31 -210q0 -5 6 -5h371zM436 321h-153 l84 176q2 5 5 11t5 11l-1 -1q12 27 25 50q2 -16 4 -32.5t4 -31.5q1 -3 1 -7q0 -3 1 -6z" />
<glyph unicode="&#xc7;" horiz-adv-x="654" d="M430 686q-89 0 -161.5 -27t-124 -74.5t-79.5 -112.5t-28 -142q0 -69 21 -126.5t60 -101t94 -71.5t123 -38l-36 -64q-2 -3 -1 -6t4 -3q75 -7 75 -33q0 -12 -10.5 -17.5t-23.5 -5.5t-27 4t-25 10q-2 2 -5 1t-4 -4l-17 -48q-2 -5 3 -7q14 -8 34 -13t44 -5t45 4.5t37.5 15 t26 27t9.5 39.5q0 29 -20.5 49.5t-47.5 26.5q3 5 8 12t9 12q72 1 124 12.5t78 24.5q5 2 3 6l-24 90q-2 6 -8 3q-29 -13 -70.5 -20.5t-84.5 -7.5q-63 0 -111.5 18t-81 50t-49.5 75.5t-17 94.5q0 57 18.5 103t53 77.5t83 48.5t108.5 17q46 0 84.5 -8.5t65.5 -20.5q6 -4 8 3 l27 91q2 5 -3 7q-21 11 -68.5 22.5t-118.5 11.5z" />
<glyph unicode="&#xc8;" horiz-adv-x="555" d="M511 0q6 0 6 6v94q0 6 -6 6h-308v190h276q6 0 6 6v94q0 6 -6 6h-276v166h293q5 0 5 6v95q0 5 -5 5h-416q-6 0 -6 -5v-663q0 -6 6 -6h431zM362 699q4 0 5.5 3.5t-0.5 6.5l-88 119q-2 2 -5 2h-131q-5 0 -6 -3.5t2 -6.5l126 -121h97z" />
<glyph unicode="&#xc9;" horiz-adv-x="555" d="M511 0q6 0 6 6v94q0 6 -6 6h-308v190h276q6 0 6 6v94q0 6 -6 6h-276v166h293q5 0 5 6v95q0 5 -5 5h-416q-6 0 -6 -5v-663q0 -6 6 -6h431zM452 820q3 3 2 6.5t-6 3.5h-131q-3 0 -5 -2l-88 -120q-2 -3 -0.5 -6.5t5.5 -3.5h97z" />
<glyph unicode="&#xca;" horiz-adv-x="555" d="M511 0q6 0 6 6v94q0 6 -6 6h-308v190h276q6 0 6 6v94q0 6 -6 6h-276v166h293q5 0 5 6v95q0 5 -5 5h-416q-6 0 -6 -5v-663q0 -6 6 -6h431zM440 698q4 0 5 3.5t-2 6.5l-107 120q-2 2 -4 2h-85q-2 0 -4 -2l-106 -120q-3 -3 -2 -6.5t6 -3.5h86q3 0 5 2q14 17 28.5 32.5 t28.5 32.5l58 -65q2 -2 4 -2h89z" />
<glyph unicode="&#xcb;" horiz-adv-x="555" d="M511 0q6 0 6 6v94q0 6 -6 6h-308v190h276q6 0 6 6v94q0 6 -6 6h-276v166h293q5 0 5 6v95q0 5 -5 5h-416q-6 0 -6 -5v-663q0 -6 6 -6h431zM450 769q0 26 -17 45t-46 19q-27 0 -45 -19t-18 -45t17 -45t46 -19t46 19t17 45zM252 769q0 26 -18 45t-44 19q-28 0 -46.5 -19 t-18.5 -45t18 -45t47 -19q28 0 45 19t17 45z" />
<glyph unicode="&#xcc;" horiz-adv-x="271" d="M193 0q6 0 6 6v663q0 5 -6 5h-117q-6 0 -6 -5v-663q0 -6 6 -6h117zM198 699q4 0 5.5 3.5t-0.5 6.5l-87 119q-2 2 -5 2h-132q-5 0 -6 -3.5t2 -6.5l126 -121h97z" />
<glyph unicode="&#xcd;" horiz-adv-x="271" d="M195 0q6 0 6 6v663q0 5 -6 5h-117q-6 0 -6 -5v-663q0 -6 6 -6h117zM298 820q3 3 2 6.5t-6 3.5h-132q-3 0 -5 -2l-87 -120q-2 -3 -0.5 -6.5t5.5 -3.5h97z" />
<glyph unicode="&#xce;" horiz-adv-x="271" d="M194 0q6 0 6 6v663q0 5 -6 5h-117q-6 0 -6 -5v-663q0 -6 6 -6h117zM285 698q5 0 6 3.5t-2 6.5l-107 120q-2 2 -4 2h-86q-2 0 -4 -2l-106 -120q-3 -3 -2 -6.5t6 -3.5h87q3 0 5 2q14 17 28.5 32.5t28.5 32.5l58 -65q2 -2 4 -2h88z" />
<glyph unicode="&#xcf;" horiz-adv-x="271" d="M194 0q6 0 6 6v663q0 5 -6 5h-117q-6 0 -6 -5v-663q0 -6 6 -6h117zM298 769q0 26 -18 45t-45 19q-29 0 -47 -19t-18 -45t17.5 -45t46.5 -19t46.5 19t17.5 45zM100 769q0 26 -18 45t-44 19q-29 0 -47 -19t-18 -45t17.5 -45t46.5 -19q28 0 45.5 19t17.5 45z" />
<glyph unicode="&#xd0;" horiz-adv-x="756" d="M718 355q0 79 -29 139.5t-79 102.5q-51 42 -127 64t-181 22q-61 0 -115 -4t-101 -10q-5 0 -5 -6v-270h-75q-6 0 -6 -6v-94q0 -6 6 -6h75v-281q0 -6 5 -6q35 -4 80 -6.5t105 -2.5q109 0 196 25.5t142 76.5q52 47 80.5 114t28.5 148zM582 351q-1 -119 -74 -188t-217 -69 q-23 0 -44.5 0.5t-36.5 2.5v190h176q5 0 5 6v94q0 6 -5 6h-176v180q34 8 99 8q134 0 203.5 -59t69.5 -171z" />
<glyph unicode="&#xd1;" horiz-adv-x="733" d="M652 0q6 0 6 6v663q0 5 -6 5h-109q-6 0 -6 -5v-258q0 -65 1 -120.5t6 -112.5q-24 47 -51.5 95t-62.5 99l-206 299q-1 1 -2.5 2l-1.5 1h-139q-6 0 -6 -5v-663q0 -6 6 -6h109q6 0 6 6v266q0 70 -1 130.5t-4 121.5q26 -53 59 -107t68 -107l205 -307q3 -3 5 -3h124zM508 829 h-55q-6 0 -6 -6q-2 -23 -7 -30t-16 -7t-22 4.5t-23 12.5q-17 10 -33 16t-36 6q-36 0 -58 -30.5t-20 -86.5q0 -6 6 -6h56q6 0 6 5q2 18 7 29t13 11q9 0 18.5 -4.5t19.5 -9.5q4 -3 8 -4q18 -9 34 -15t35 -6q40 0 60 27.5t18 87.5z" />
<glyph unicode="&#xd2;" horiz-adv-x="780" d="M742 344q0 73 -24.5 136t-70 108.5t-110 71.5t-144.5 26q-77 0 -142.5 -26t-112.5 -73.5t-73.5 -113t-26.5 -144.5q0 -73 25 -135.5t70.5 -108t109.5 -71.5t142 -26q76 0 141.5 25t113.5 71t75 112t27 148zM173 333q0 51 14 96.5t41.5 79.5t68 54t93.5 20 q52 0 92.5 -20.5t68 -54.5t41.5 -78t14 -91q0 -53 -15 -98.5t-43 -78.5t-68.5 -52t-91.5 -19q-50 0 -90 19t-67.5 52t-42.5 77t-15 94zM449 699q4 0 5.5 3.5t-0.5 6.5l-88 119q-2 2 -5 2h-132q-5 0 -6 -3.5t2 -6.5l126 -121h98z" />
<glyph unicode="&#xd3;" horiz-adv-x="780" d="M742 344q0 73 -24.5 136t-70 108.5t-110 71.5t-144.5 26q-77 0 -142.5 -26t-112.5 -73.5t-73.5 -113t-26.5 -144.5q0 -73 25 -135.5t70.5 -108t109.5 -71.5t142 -26q76 0 141.5 25t113.5 71t75 112t27 148zM173 333q0 51 14 96.5t41.5 79.5t68 54t93.5 20 q52 0 92.5 -20.5t68 -54.5t41.5 -78t14 -91q0 -53 -15 -98.5t-43 -78.5t-68.5 -52t-91.5 -19q-50 0 -90 19t-67.5 52t-42.5 77t-15 94zM560 820q3 3 2 6.5t-6 3.5h-133q-4 0 -4 -2l-88 -120q-2 -3 -0.5 -6.5t5.5 -3.5h98z" />
<glyph unicode="&#xd4;" horiz-adv-x="780" d="M742 344q0 73 -24.5 136t-70 108.5t-110 71.5t-144.5 26q-77 0 -142.5 -26t-112.5 -73.5t-73.5 -113t-26.5 -144.5q0 -73 25 -135.5t70.5 -108t109.5 -71.5t142 -26q76 0 141.5 25t113.5 71t75 112t27 148zM173 333q0 51 14 96.5t41.5 79.5t68 54t93.5 20 q52 0 92.5 -20.5t68 -54.5t41.5 -78t14 -91q0 -53 -15 -98.5t-43 -78.5t-68.5 -52t-91.5 -19q-50 0 -90 19t-67.5 52t-42.5 77t-15 94zM540 698q5 0 6 3.5t-2 6.5l-107 120q-2 2 -4 2h-86q-3 0 -5 -2l-105 -120q-3 -3 -1 -6.5t6 -3.5h86q3 0 5 2q14 17 28.5 32.5t28.5 32.5 l58 -65q2 -2 4 -2h88z" />
<glyph unicode="&#xd5;" horiz-adv-x="780" d="M742 344q0 73 -24.5 136t-70 108.5t-110 71.5t-144.5 26q-77 0 -142.5 -26t-112.5 -73.5t-73.5 -113t-26.5 -144.5q0 -73 25 -135.5t70.5 -108t109.5 -71.5t142 -26q76 0 141.5 25t113.5 71t75 112t27 148zM173 333q0 51 14 96.5t41.5 79.5t68 54t93.5 20 q52 0 92.5 -20.5t68 -54.5t41.5 -78t14 -91q0 -53 -15 -98.5t-43 -78.5t-68.5 -52t-91.5 -19q-50 0 -90 19t-67.5 52t-42.5 77t-15 94zM526 829h-56q-6 0 -6 -6q-2 -23 -7 -30t-16 -7t-21.5 4.5t-23.5 12.5q-17 10 -33 16t-36 6q-36 0 -57.5 -30.5t-19.5 -86.5q0 -6 6 -6h56 q6 0 6 6q2 17 7 28t13 11q10 0 18.5 -4.5t20.5 -10.5q2 -1 3.5 -2t3.5 -1q17 -9 33 -15t35 -6q41 0 61 27.5t19 87.5z" />
<glyph unicode="&#xd6;" horiz-adv-x="780" d="M742 344q0 73 -24.5 136t-70 108.5t-110 71.5t-144.5 26q-77 0 -142.5 -26t-112.5 -73.5t-73.5 -113t-26.5 -144.5q0 -73 25 -135.5t70.5 -108t109.5 -71.5t142 -26q76 0 141.5 25t113.5 71t75 112t27 148zM173 333q0 51 14 96.5t41.5 79.5t68 54t93.5 20 q52 0 92.5 -20.5t68 -54.5t41.5 -78t14 -91q0 -53 -15 -98.5t-43 -78.5t-68.5 -52t-91.5 -19q-50 0 -90 19t-67.5 52t-42.5 77t-15 94zM553 769q0 26 -18 45t-45 19q-29 0 -47 -19t-18 -45t17.5 -45t46.5 -19t46.5 19t17.5 45zM355 769q0 26 -18 45t-44 19q-28 0 -46.5 -19 t-18.5 -45t17.5 -45t46.5 -19q28 0 45.5 19t17.5 45z" />
<glyph unicode="&#xd7;" horiz-adv-x="596" d="M556 55q4 4 0 8q-49 50 -98.5 101t-98.5 100l197 201q4 4 0 8l-54 54q-4 4 -8 0q-49 -51 -98 -100.5t-98 -100.5l-196 201q-4 4 -8 0l-54 -54q-4 -4 0 -8q50 -51 98.5 -100.5t98.5 -100.5l-197 -201q-4 -4 0 -8l54 -53q4 -4 8 0q49 51 98 100.5t98 100.5l196 -201 q4 -4 8 0z" />
<glyph unicode="&#xd8;" horiz-adv-x="780" d="M742 342q0 71 -24.5 133t-69.5 108l62 78q2 6 -1 9l-69 50q-6 4 -9 -1q-15 -20 -31 -39.5t-31 -39.5q-38 23 -83 34.5t-93 11.5q-77 0 -142 -26t-112 -72.5t-74 -111.5t-27 -143q0 -73 25 -135.5t73 -108.5l-62 -78q-3 -5 1 -9l66 -55q6 -4 9 1q17 21 33.5 42.5 t33.5 42.5q38 -21 82 -33t92 -12q72 0 135.5 24t111.5 69.5t76 111.5t28 149zM212 188q-20 31 -31.5 66t-11.5 83q0 49 14.5 94t42.5 79.5t69.5 54.5t95.5 20q33 0 61 -9t51 -23q-72 -92 -145.5 -183t-145.5 -182zM612 339q0 -53 -15.5 -98.5t-44 -79t-69.5 -53t-93 -19.5 q-34 0 -60 8t-47 23q72 91 144.5 181t144.5 181q22 -36 31 -72t9 -71z" />
<glyph unicode="&#xd9;" horiz-adv-x="723" d="M648 302v367q0 5 -6 5h-116q-6 0 -6 -5v-372q0 -104 -43 -155t-118 -51q-70 0 -112.5 51t-42.5 155v372q0 5 -6 5h-117q-6 0 -6 -5v-367q0 -85 21 -144.5t58 -97t88 -55t111 -17.5q66 0 120 18.5t93 56.5t60.5 97.5t21.5 141.5zM426 699q4 0 5.5 3.5t-0.5 6.5l-88 119 q-2 2 -5 2h-131q-5 0 -6 -3.5t2 -6.5l126 -121h97z" />
<glyph unicode="&#xda;" horiz-adv-x="723" d="M648 302v367q0 5 -6 5h-116q-6 0 -6 -5v-372q0 -104 -43 -155t-118 -51q-70 0 -112.5 51t-42.5 155v372q0 5 -6 5h-117q-6 0 -6 -5v-367q0 -85 21 -144.5t58 -97t88 -55t111 -17.5q66 0 120 18.5t93 56.5t60.5 97.5t21.5 141.5zM531 820q3 3 2 6.5t-6 3.5h-132 q-3 0 -5 -2l-87 -120q-2 -3 -0.5 -6.5t5.5 -3.5h97z" />
<glyph unicode="&#xdb;" horiz-adv-x="723" d="M648 302v367q0 5 -6 5h-116q-6 0 -6 -5v-372q0 -104 -43 -155t-118 -51q-70 0 -112.5 51t-42.5 155v372q0 5 -6 5h-117q-6 0 -6 -5v-367q0 -85 21 -144.5t58 -97t88 -55t111 -17.5q66 0 120 18.5t93 56.5t60.5 97.5t21.5 141.5zM521 698q5 0 6 3.5t-2 6.5l-107 120 q-2 2 -4 2h-85q-2 0 -4 -2l-107 -120q-2 -3 -1.5 -6.5t5.5 -3.5h87q3 0 5 2q14 17 28.5 32.5t28.5 32.5l58 -65q2 -2 4 -2h88z" />
<glyph unicode="&#xdc;" horiz-adv-x="723" d="M648 302v367q0 5 -6 5h-116q-6 0 -6 -5v-372q0 -104 -43 -155t-118 -51q-70 0 -112.5 51t-42.5 155v372q0 5 -6 5h-117q-6 0 -6 -5v-367q0 -85 21 -144.5t58 -97t88 -55t111 -17.5q66 0 120 18.5t93 56.5t60.5 97.5t21.5 141.5zM529 769q0 26 -17 45t-46 19 q-27 0 -45.5 -19t-18.5 -45t17.5 -45t46.5 -19t46 19t17 45zM331 769q0 26 -18 45t-44 19q-28 0 -46.5 -19t-18.5 -45t18 -45t47 -19q28 0 45 19t17 45z" />
<glyph unicode="&#xdd;" horiz-adv-x="622" d="M617 666q2 3 0.5 5.5t-5.5 2.5h-135q-4 0 -5 -3q-23 -44 -47.5 -88.5t-47.5 -88.5q-4 -7 -7 -13t-7 -13q-14 -25 -25 -47t-22 -45q-13 23 -21.5 39.5t-20.5 39.5q-3 5 -10.5 19.5t-10.5 20.5l-92 176q-2 3 -5 3h-136q-4 0 -5.5 -2.5t0.5 -5.5l230 -381v-279q0 -6 6 -6 h117q6 0 6 6v281zM488 820q3 3 2 6.5t-6 3.5h-133q-3 0 -5 -2l-87 -120q-2 -3 -0.5 -6.5t5.5 -3.5h98z" />
<glyph unicode="&#xde;" horiz-adv-x="595" d="M556 361q0 42 -17 77t-45 60q-64 57 -196 57q-31 0 -54 -1.5t-43 -3.5v119q0 5 -6 5h-115q-6 0 -6 -5v-663q0 -6 6 -6h115q6 0 6 6v135q15 -2 34.5 -3.5t43.5 -1.5q61 0 111.5 13.5t87.5 41t57.5 70t20.5 100.5zM429 350q0 -51 -38 -81.5t-114 -30.5q-43 0 -76 6v204 q13 3 34.5 5t50.5 2q31 0 57 -5.5t45 -18.5t30 -33t11 -48z" />
<glyph unicode="&#xdf;" horiz-adv-x="607" d="M565 158q0 26 -8 48.5t-20 41.5t-26 35t-26 28q-2 1 -6 5q-20 20 -31 36t-11 36q0 41 66 71q10 14 16.5 36.5t6.5 49.5q0 43 -16.5 77.5t-45 57.5t-65.5 35.5t-79 12.5q-105 0 -170 -59q-35 -33 -56.5 -87t-21.5 -140v-489q0 -13 -2.5 -37l-5 -48t-5 -41.5l-2.5 -17.5 q0 -7 6 -7l57 -5l12.5 5.5t28 15t28 22.5t12.5 28v583q0 96 28.5 135.5t80.5 39.5q45 0 68.5 -26t23.5 -66q0 -11 -1 -18.5t-3 -13.5q-45 -23 -68 -56.5t-23 -71.5q0 -24 7.5 -43.5t19.5 -37t27 -32.5t30 -28q23 -22 33.5 -39.5t10.5 -41.5q0 -27 -21 -45.5t-62 -18.5 q-22 0 -41.5 5t-36.5 13q-7 4 -9 -4l-18 -86q-2 -4 3 -6q24 -12 55.5 -17t60.5 -5q48 0 85.5 13t62.5 35.5t38 53.5t13 68z" />
<glyph unicode="&#xe0;" horiz-adv-x="539" d="M479 0q7 0 5 7q-5 22 -9 53t-4 63v167q0 39 -9.5 77t-34 67.5t-65.5 48t-104 18.5q-23 0 -43.5 -2t-38.5 -5q-5 -2 -5 -7q0 -2 2.5 -17t6 -35t4.5 -27q0 -7 7 -5q12 2 24.5 3.5t23.5 1.5q36 0 57 -9.5t31.5 -23t13.5 -28.5t3 -24v-1q-153 0 -231.5 -47.5t-78.5 -139.5 q0 -22 7.5 -44.5t22 -41.5t35.5 -33t49 -19q17 -3 32 -5t29 -2q28 0 59 10q22 7 43.5 23.5t35.5 27.5l6 6l17 -62q2 -5 7 -5zM347 177q0 -13 -4 -25q-10 -25 -38 -47t-70 -22q-32 0 -52 16.5t-20 48.5q0 25 15 42t40 27t58.5 14t70.5 4v-58zM319 537q4 0 5.5 3t-0.5 6 l-90 147q-3 3 -5 3h-119q-4 0 -6 -3.5t1 -6.5l127 -147q2 -2 5 -2h82z" />
<glyph unicode="&#xe1;" horiz-adv-x="539" d="M479 0q7 0 5 7q-5 22 -9 53t-4 63v167q0 39 -9.5 77t-34 67.5t-65.5 48t-104 18.5q-23 0 -43.5 -2t-38.5 -5q-5 -2 -5 -7q0 -2 2.5 -17t6 -35t4.5 -27q0 -7 7 -5q12 2 24.5 3.5t23.5 1.5q36 0 57 -9.5t31.5 -23t13.5 -28.5t3 -24v-1q-153 0 -231.5 -47.5t-78.5 -139.5 q0 -22 7.5 -44.5t22 -41.5t35.5 -33t49 -19q17 -3 32 -5t29 -2q28 0 59 10q22 7 43.5 23.5t35.5 27.5l6 6l17 -62q2 -5 7 -5zM347 177q0 -13 -4 -25q-10 -25 -38 -47t-70 -22q-32 0 -52 16.5t-20 48.5q0 25 15 42t40 27t58.5 14t70.5 4v-58zM421 686q3 3 1 6.5t-6 3.5h-119 q-2 0 -5 -3l-90 -147q-2 -3 -0.5 -6t5.5 -3h82q3 0 5 2z" />
<glyph unicode="&#xe2;" horiz-adv-x="539" d="M479 0q7 0 5 7q-5 22 -9 53t-4 63v167q0 39 -9.5 77t-34 67.5t-65.5 48t-104 18.5q-23 0 -43.5 -2t-38.5 -5q-5 -2 -5 -7q0 -2 2.5 -17t6 -35t4.5 -27q0 -7 7 -5q12 2 24.5 3.5t23.5 1.5q36 0 57 -9.5t31.5 -23t13.5 -28.5t3 -24v-1q-153 0 -231.5 -47.5t-78.5 -139.5 q0 -22 7.5 -44.5t22 -41.5t35.5 -33t49 -19q17 -3 32 -5t29 -2q28 0 59 10q22 7 43.5 23.5t35.5 27.5l6 6l17 -62q2 -5 7 -5zM347 177q0 -13 -4 -25q-10 -25 -38 -47t-70 -22q-32 0 -52 16.5t-20 48.5q0 25 15 42t40 27t58.5 14t70.5 4v-58zM405 537q4 0 5.5 3t-0.5 6 l-101 147q-3 3 -5 3h-79q-2 0 -5 -3l-100 -147q-2 -3 -0.5 -6t5.5 -3h81q2 0 5 3q13 20 26 42t26 42l55 -84q3 -3 5 -3h82z" />
<glyph unicode="&#xe3;" horiz-adv-x="539" d="M479 0q7 0 5 7q-5 22 -9 53t-4 63v167q0 39 -9.5 77t-34 67.5t-65.5 48t-104 18.5q-23 0 -43.5 -2t-38.5 -5q-5 -2 -5 -7q0 -2 2.5 -17t6 -35t4.5 -27q0 -7 7 -5q12 2 24.5 3.5t23.5 1.5q36 0 57 -9.5t31.5 -23t13.5 -28.5t3 -24v-1q-153 0 -231.5 -47.5t-78.5 -139.5 q0 -22 7.5 -44.5t22 -41.5t35.5 -33t49 -19q17 -3 32 -5t29 -2q28 0 59 10q22 7 43.5 23.5t35.5 27.5l6 6l17 -62q2 -5 7 -5zM347 177q0 -13 -4 -25q-10 -25 -38 -47t-70 -22q-32 0 -52 16.5t-20 48.5q0 25 15 42t40 27t58.5 14t70.5 4v-58zM395 678h-54q-6 0 -6 -5 q-2 -23 -6.5 -31t-14.5 -8q-9 0 -18 4.5t-20 9.5q-4 2 -5 3q-17 10 -34 16.5t-37 6.5q-36 0 -57 -31t-19 -87q0 -5 6 -5h56q6 0 6 5q3 40 20 40q8 0 16.5 -4t22.5 -12q18 -11 34.5 -17t36.5 -6q82 0 79 115z" />
<glyph unicode="&#xe4;" horiz-adv-x="539" d="M479 0q7 0 5 7q-5 22 -9 53t-4 63v167q0 39 -9.5 77t-34 67.5t-65.5 48t-104 18.5q-23 0 -43.5 -2t-38.5 -5q-5 -2 -5 -7q0 -2 2.5 -17t6 -35t4.5 -27q0 -7 7 -5q12 2 24.5 3.5t23.5 1.5q36 0 57 -9.5t31.5 -23t13.5 -28.5t3 -24v-1q-153 0 -231.5 -47.5t-78.5 -139.5 q0 -22 7.5 -44.5t22 -41.5t35.5 -33t49 -19q17 -3 32 -5t29 -2q28 0 59 10q22 7 43.5 23.5t35.5 27.5l6 6l17 -62q2 -5 7 -5zM347 177q0 -13 -4 -25q-10 -25 -38 -47t-70 -22q-32 0 -52 16.5t-20 48.5q0 25 15 42t40 27t58.5 14t70.5 4v-58zM432 607q0 26 -17 45t-46 19 q-27 0 -45.5 -19t-18.5 -45t17.5 -45t46.5 -19t46 19t17 45zM234 607q0 26 -17.5 45t-43.5 19q-29 0 -47.5 -19t-18.5 -45t18 -45t47 -19q28 0 45 19t17 45z" />
<glyph unicode="&#xe5;" horiz-adv-x="539" d="M479 0q7 0 5 7q-5 22 -9 53t-4 63v167q0 39 -9.5 77t-34 67.5t-65.5 48t-104 18.5q-23 0 -43.5 -2t-38.5 -5q-5 -2 -5 -7q0 -2 2.5 -17t6 -35t4.5 -27q0 -7 7 -5q12 2 24.5 3.5t23.5 1.5q36 0 57 -9.5t31.5 -23t13.5 -28.5t3 -24v-1q-153 0 -231.5 -47.5t-78.5 -139.5 q0 -22 7.5 -44.5t22 -41.5t35.5 -33t49 -19q17 -3 32 -5t29 -2q28 0 59 10q22 7 43.5 23.5t35.5 27.5l6 6l17 -62q2 -5 7 -5zM347 177q0 -13 -4 -25q-10 -25 -38 -47t-70 -22q-32 0 -52 16.5t-20 48.5q0 25 15 42t40 27t58.5 14t70.5 4v-58zM382 627q0 44 -29.5 73t-82.5 29 q-54 0 -84 -29.5t-30 -72.5q0 -42 31.5 -71t82.5 -29q50 0 81 28.5t31 71.5zM269 674q20 0 32 -13t12 -33t-12 -33t-32 -13q-19 0 -30.5 14t-11.5 31q0 20 11 33.5t31 13.5z" />
<glyph unicode="&#xe6;" horiz-adv-x="850" d="M828 261q0 35 -10.5 77t-36.5 78t-70 60.5t-111 24.5q-62 0 -108.5 -21t-78.5 -61q-21 35 -61 58.5t-105 23.5q-47 0 -93 -14t-79 -34q-5 -3 -3 -7l26 -74q2 -7 9 -3q23 15 60 27t75 12q36 0 57.5 -11.5t32 -25.5t13.5 -27.5t3 -16.5v-9q-152 0 -231 -48t-79 -135 q0 -27 10.5 -53.5t32 -47.5t53.5 -33.5t76 -12.5q64 0 112 24t76 67q35 -42 89 -66.5t125 -24.5q23 0 45 1t43 6q5 2 5 7l-12 85q0 4 -7 4q-29 -3 -59 -3t-57 8.5t-49 24t-36.5 38t-18.5 49.5h351q4 0 6 4q5 15 5 49zM348 167q-1 -2 -2.5 -10.5t-2.5 -11.5h1 q-11 -24 -36.5 -43t-67.5 -19q-32 0 -52.5 16.5t-20.5 45.5q0 25 14.5 41.5t39.5 26.5t56.5 14.5t66.5 4.5v-16q0 -9 0.5 -18.5t1.5 -18t2 -12.5zM593 411q34 0 56 -12t34 -29.5t17 -36.5t5 -32h-238q3 18 11.5 37.5t23.5 35.5t37.5 26.5t53.5 10.5z" />
<glyph unicode="&#xe7;" horiz-adv-x="495" d="M325 501q-68 0 -122 -20t-91 -55.5t-56.5 -83t-19.5 -102.5q0 -49 14.5 -91t41.5 -74.5t66 -53.5t89 -28l-36 -64q-2 -3 -0.5 -6t5.5 -3q36 -3 54 -10.5t19 -22.5q0 -13 -11 -18t-25 -5q-26 0 -51 14q-7 4 -9 -3l-16 -47q-2 -4 3 -7q14 -9 34 -14t41 -5q24 0 46 4.5 t38.5 15t26 27.5t9.5 41q0 31 -20.5 50t-48.5 24q3 5 8 12t9 12q49 1 84.5 10.5t55.5 19.5q5 2 3 6l-19 85q-2 7 -8 5q-20 -8 -47 -15.5t-64 -7.5q-34 0 -63.5 10.5t-51.5 30.5t-34.5 48.5t-12.5 65.5q0 33 11 61t32 49t51.5 32.5t68.5 11.5t63 -6.5t42 -15.5q7 -3 9 3 l22 88q1 3 -4 6q-23 11 -59.5 18.5t-76.5 7.5z" />
<glyph unicode="&#xe8;" horiz-adv-x="554" d="M520 261q0 35 -10.5 77t-36.5 78t-70 60.5t-111 24.5q-64 0 -112 -22.5t-80 -60t-48 -85t-16 -96.5q0 -56 18 -102t52.5 -78.5t84.5 -50.5t113 -18q23 0 45.5 1t43.5 6q5 2 5 7l-13 85q0 4 -7 4q-27 -3 -59 -3q-29 0 -56 9t-48.5 24.5t-36.5 37.5t-19 49h351q4 0 6 5 q2 7 3 19.5t1 28.5zM285 411q34 0 55.5 -12t34 -29.5t17.5 -36.5t6 -32h-238q3 18 11 37.5t23 35.5t37.5 26.5t53.5 10.5zM357 537q4 0 5.5 3t-0.5 6l-90 147q-3 3 -5 3h-119q-4 0 -6 -3.5t1 -6.5l127 -147q2 -2 5 -2h82z" />
<glyph unicode="&#xe9;" horiz-adv-x="554" d="M520 261q0 35 -10.5 77t-36.5 78t-70 60.5t-111 24.5q-64 0 -112 -22.5t-80 -60t-48 -85t-16 -96.5q0 -56 18 -102t52.5 -78.5t84.5 -50.5t113 -18q23 0 45.5 1t43.5 6q5 2 5 7l-13 85q0 4 -7 4q-27 -3 -59 -3q-29 0 -56 9t-48.5 24.5t-36.5 37.5t-19 49h351q4 0 6 5 q2 7 3 19.5t1 28.5zM285 411q34 0 55.5 -12t34 -29.5t17.5 -36.5t6 -32h-238q3 18 11 37.5t23 35.5t37.5 26.5t53.5 10.5zM449 686q3 3 1 6.5t-6 3.5h-119q-2 0 -5 -3l-90 -147q-2 -3 -0.5 -6t5.5 -3h82q3 0 5 2z" />
<glyph unicode="&#xea;" horiz-adv-x="554" d="M520 261q0 35 -10.5 77t-36.5 78t-70 60.5t-111 24.5q-64 0 -112 -22.5t-80 -60t-48 -85t-16 -96.5q0 -56 18 -102t52.5 -78.5t84.5 -50.5t113 -18q23 0 45.5 1t43.5 6q5 2 5 7l-13 85q0 4 -7 4q-27 -3 -59 -3q-29 0 -56 9t-48.5 24.5t-36.5 37.5t-19 49h351q4 0 6 5 q2 7 3 19.5t1 28.5zM285 411q34 0 55.5 -12t34 -29.5t17.5 -36.5t6 -32h-238q3 18 11 37.5t23 35.5t37.5 26.5t53.5 10.5zM429 537q4 0 5.5 3t-0.5 6l-101 147q-3 3 -5 3h-79q-2 0 -5 -3l-100 -147q-2 -3 -0.5 -6t5.5 -3h81q2 0 5 3q13 20 26 42t26 42l55 -84q3 -3 5 -3h82z " />
<glyph unicode="&#xeb;" horiz-adv-x="554" d="M520 261q0 35 -10.5 77t-36.5 78t-70 60.5t-111 24.5q-64 0 -112 -22.5t-80 -60t-48 -85t-16 -96.5q0 -56 18 -102t52.5 -78.5t84.5 -50.5t113 -18q23 0 45.5 1t43.5 6q5 2 5 7l-13 85q0 4 -7 4q-27 -3 -59 -3q-29 0 -56 9t-48.5 24.5t-36.5 37.5t-19 49h351q4 0 6 5 q2 7 3 19.5t1 28.5zM285 411q34 0 55.5 -12t34 -29.5t17.5 -36.5t6 -32h-238q3 18 11 37.5t23 35.5t37.5 26.5t53.5 10.5zM457 607q0 26 -17 45t-46 19q-27 0 -45.5 -19t-18.5 -45t17.5 -45t46.5 -19t46 19t17 45zM259 607q0 26 -17.5 45t-43.5 19q-29 0 -47.5 -19 t-18.5 -45t18 -45t47 -19q28 0 45 19t17 45z" />
<glyph unicode="&#xec;" horiz-adv-x="267" d="M192 0q6 0 6 6v478q0 6 -6 6h-117q-6 0 -6 -6v-478q0 -6 6 -6h117zM182 537q4 0 5.5 3t-0.5 6l-90 147q-3 3 -5 3h-119q-4 0 -6 -3.5t1 -6.5l127 -147q2 -2 5 -2h82z" />
<glyph unicode="&#xed;" horiz-adv-x="267" d="M192 0q6 0 6 6v478q0 6 -6 6h-117q-6 0 -6 -6v-478q0 -6 6 -6h117zM295 686q3 3 1 6.5t-6 3.5h-119q-2 0 -5 -3l-90 -147q-2 -3 -0.5 -6t5.5 -3h82q3 0 5 2z" />
<glyph unicode="&#xee;" horiz-adv-x="267" d="M192 0q6 0 6 6v478q0 6 -6 6h-117q-6 0 -6 -6v-478q0 -6 6 -6h117zM274 537q4 0 5.5 3t-0.5 6l-101 147q-3 3 -5 3h-79q-2 0 -5 -3l-100 -147q-2 -3 -0.5 -6t5.5 -3h81q2 0 5 3q13 20 26 42t26 42l55 -84q3 -3 5 -3h82z" />
<glyph unicode="&#xef;" horiz-adv-x="267" d="M192 0q6 0 6 6v478q0 6 -6 6h-117q-6 0 -6 -6v-478q0 -6 6 -6h117zM296 607q0 26 -17 45t-46 19q-27 0 -45.5 -19t-18.5 -45t17.5 -45t46.5 -19t46 19t17 45zM98 607q0 26 -17.5 45t-43.5 19q-29 0 -47.5 -19t-18.5 -45t18 -45t47 -19q28 0 45 19t17 45z" />
<glyph unicode="&#xf0;" horiz-adv-x="606" d="M568 257q0 101 -42 182q-23 45 -56 85.5t-74 72.5l101 44q5 2 3 8l-25 53q-2 5 -7 3q-35 -16 -70 -31t-70 -31q-39 25 -81 45.5t-84 35.5q-2 1 -4 0t-2 -3l-47 -72q-2 -2 -1 -5t4 -4q28 -10 52.5 -20.5t47.5 -23.5l-110 -48q-4 -1 -4 -7l22 -53q2 -6 8 -4q39 16 77 32.5 t77 33.5q29 -21 53 -43.5t44 -48.5q-23 15 -44.5 19.5t-44.5 4.5q-50 0 -96 -17.5t-81 -49.5t-55.5 -77.5t-20.5 -101.5t20.5 -101.5t55.5 -78t83 -50.5t104 -18q51 0 99.5 16.5t85.5 50t59.5 84t22.5 118.5zM435 246q0 -78 -37.5 -120t-97.5 -42q-29 0 -53 11t-41.5 31.5 t-27.5 48.5t-10 62q0 27 7.5 55t24 51.5t42 38t61.5 14.5q34 0 58 -11t40 -26q19 -17 26.5 -42.5t7.5 -70.5z" />
<glyph unicode="&#xf1;" horiz-adv-x="614" d="M570 0q8 2 4 9q-1 2 -7.5 16t-14 37t-7.5 41v176q0 65 -18.5 108t-46.5 68.5t-62 35.5t-65 10q-30 0 -55.5 -7t-46 -18.5t-36.5 -25.5t-26 -28l-7 63q0 5 -6 5h-102q-6 0 -6 -6q2 -32 3 -66.5t1 -74.5v-337q0 -6 6 -6h117q6 0 6 6v278q0 9 1.5 18.5t4.5 17.5 q11 28 38 51.5t68 23.5q55 0 79 -36.5t24 -92.5v-163q0 -36 8 -64.5t15 -41t8 -14.5q1 -3 6 -3zM441 678h-54q-6 0 -6 -5q-2 -23 -6.5 -31t-14.5 -8q-9 0 -18 4.5t-20 9.5q-4 2 -5 3q-17 10 -34 16.5t-37 6.5q-36 0 -57 -31t-19 -87q0 -5 6 -5h56q6 0 6 5q3 40 20 40 q8 0 16.5 -4t22.5 -12q18 -11 34.5 -17t36.5 -6q82 0 79 115z" />
<glyph unicode="&#xf2;" horiz-adv-x="612" d="M576 251q0 53 -19 99t-53.5 79.5t-83.5 52.5t-109 19q-61 0 -111.5 -18.5t-86.5 -53t-56 -82.5t-20 -107q0 -57 20.5 -103.5t56.5 -79.5t84.5 -51t104.5 -18q52 0 101 16.5t87 49.5t61.5 82t23.5 115zM443 246q0 -39 -11 -69t-29.5 -51t-44 -31.5t-54.5 -10.5t-54 11.5 t-43.5 32.5t-29 50.5t-10.5 65.5q0 31 8.5 60.5t26 52t43.5 36t62 13.5t61.5 -14.5t42 -37t24.5 -51.5t8 -57zM372 537q4 0 5.5 3t-0.5 6l-90 147q-3 3 -5 3h-119q-4 0 -6 -3.5t1 -6.5l127 -147q2 -2 5 -2h82z" />
<glyph unicode="&#xf3;" horiz-adv-x="612" d="M576 251q0 53 -19 99t-53.5 79.5t-83.5 52.5t-109 19q-61 0 -111.5 -18.5t-86.5 -53t-56 -82.5t-20 -107q0 -57 20.5 -103.5t56.5 -79.5t84.5 -51t104.5 -18q52 0 101 16.5t87 49.5t61.5 82t23.5 115zM443 246q0 -39 -11 -69t-29.5 -51t-44 -31.5t-54.5 -10.5t-54 11.5 t-43.5 32.5t-29 50.5t-10.5 65.5q0 31 8.5 60.5t26 52t43.5 36t62 13.5t61.5 -14.5t42 -37t24.5 -51.5t8 -57zM458 686q3 3 1 6.5t-6 3.5h-119q-2 0 -5 -3l-90 -147q-2 -3 -0.5 -6t5.5 -3h82q3 0 5 2z" />
<glyph unicode="&#xf4;" horiz-adv-x="612" d="M576 251q0 53 -19 99t-53.5 79.5t-83.5 52.5t-109 19q-61 0 -111.5 -18.5t-86.5 -53t-56 -82.5t-20 -107q0 -57 20.5 -103.5t56.5 -79.5t84.5 -51t104.5 -18q52 0 101 16.5t87 49.5t61.5 82t23.5 115zM443 246q0 -39 -11 -69t-29.5 -51t-44 -31.5t-54.5 -10.5t-54 11.5 t-43.5 32.5t-29 50.5t-10.5 65.5q0 31 8.5 60.5t26 52t43.5 36t62 13.5t61.5 -14.5t42 -37t24.5 -51.5t8 -57zM447 537q4 0 5.5 3t-0.5 6l-101 147q-3 3 -5 3h-79q-2 0 -5 -3l-100 -147q-2 -3 -0.5 -6t5.5 -3h81q2 0 5 3q13 20 26 42t26 42l55 -84q3 -3 5 -3h82z" />
<glyph unicode="&#xf5;" horiz-adv-x="612" d="M576 251q0 53 -19 99t-53.5 79.5t-83.5 52.5t-109 19q-61 0 -111.5 -18.5t-86.5 -53t-56 -82.5t-20 -107q0 -57 20.5 -103.5t56.5 -79.5t84.5 -51t104.5 -18q52 0 101 16.5t87 49.5t61.5 82t23.5 115zM443 246q0 -39 -11 -69t-29.5 -51t-44 -31.5t-54.5 -10.5t-54 11.5 t-43.5 32.5t-29 50.5t-10.5 65.5q0 31 8.5 60.5t26 52t43.5 36t62 13.5t61.5 -14.5t42 -37t24.5 -51.5t8 -57zM440 678h-54q-6 0 -6 -5q-2 -23 -6.5 -31t-14.5 -8q-9 0 -18 4.5t-20 9.5q-4 2 -5 3q-17 10 -34 16.5t-37 6.5q-36 0 -57 -31t-19 -87q0 -5 6 -5h56q6 0 6 5 q3 40 20 40q8 0 16.5 -4t22.5 -12q18 -11 34.5 -17t36.5 -6q82 0 79 115z" />
<glyph unicode="&#xf6;" horiz-adv-x="612" d="M576 251q0 53 -19 99t-53.5 79.5t-83.5 52.5t-109 19q-61 0 -111.5 -18.5t-86.5 -53t-56 -82.5t-20 -107q0 -57 20.5 -103.5t56.5 -79.5t84.5 -51t104.5 -18q52 0 101 16.5t87 49.5t61.5 82t23.5 115zM443 246q0 -39 -11 -69t-29.5 -51t-44 -31.5t-54.5 -10.5t-54 11.5 t-43.5 32.5t-29 50.5t-10.5 65.5q0 31 8.5 60.5t26 52t43.5 36t62 13.5t61.5 -14.5t42 -37t24.5 -51.5t8 -57zM469 607q0 26 -17 45t-46 19q-27 0 -45.5 -19t-18.5 -45t17.5 -45t46.5 -19t46 19t17 45zM271 607q0 26 -17.5 45t-43.5 19q-29 0 -47.5 -19t-18.5 -45t18 -45 t47 -19q28 0 45 19t17 45z" />
<glyph unicode="&#xf7;" horiz-adv-x="596" d="M551 225q6 0 6 6v75q0 6 -6 6h-508q-6 0 -6 -6v-75q0 -6 6 -6h508zM298 370q32 0 51 20t19 50q-1 34 -19.5 53t-49.5 19q-32 0 -50.5 -19t-19.5 -53q0 -30 19.5 -50t49.5 -20zM297 25q32 0 51 20t19 50q-1 33 -19.5 52.5t-49.5 19.5q-32 0 -50.5 -19.5t-19.5 -52.5 q0 -30 19.5 -50t49.5 -20z" />
<glyph unicode="&#xf8;" horiz-adv-x="612" d="M54 -23l52 -31q5 -2 8 1l17.5 21.5t39.5 49.5q58 -30 132 -30q52 0 101 16.5t87 49.5t61.5 82t23.5 115q0 52 -20.5 99.5t-53.5 81.5l80 99q4 6 -1 9l-45 35q-6 4 -9 -1q-20 -24 -41.5 -51t-41.5 -51q-29 15 -62 22t-71 7q-61 0 -111.5 -18.5t-86.5 -53t-56 -82.5 t-20 -107q0 -56 19.5 -102t54.5 -78l-59 -74q-4 -5 2 -9zM188 154q-9 18 -15 41t-6 49q0 31 8.5 60.5t26 52t43.5 36t62 13.5q40 0 69 -19zM443 246q0 -39 -11 -69t-29.5 -51t-44 -31.5t-54.5 -10.5q-40 0 -68 18l12 14.5t30.5 37t40.5 50t43 53t37.5 46t23.5 29.5 q20 -40 20 -86z" />
<glyph unicode="&#xf9;" horiz-adv-x="612" d="M549 0q7 2 5 7q-6 26 -10 61.5t-4 77.5v338q0 6 -6 6h-117q-6 0 -6 -6v-282q0 -11 -2 -20t-5 -17h1q-11 -26 -39 -48.5t-68 -22.5q-54 0 -77 36.5t-23 99.5v254q0 6 -6 6h-116q-6 0 -6 -6v-275q0 -66 17 -109t44 -67.5t60 -34.5t66 -10q36 0 63.5 8.5t48.5 21.5t35 28.5 t23 30.5q0 -5 0.5 -19t2.5 -21q1 -5 3.5 -16.5t4.5 -20.5t2 -10q2 -5 7 -5zM366 537q4 0 5.5 3t-0.5 6l-90 147q-3 3 -5 3h-119q-4 0 -6 -3.5t1 -6.5l127 -147q2 -2 5 -2h82z" />
<glyph unicode="&#xfa;" horiz-adv-x="612" d="M549 0q7 2 5 7q-6 26 -10 61.5t-4 77.5v338q0 6 -6 6h-117q-6 0 -6 -6v-282q0 -11 -2 -20t-5 -17h1q-11 -26 -39 -48.5t-68 -22.5q-54 0 -77 36.5t-23 99.5v254q0 6 -6 6h-116q-6 0 -6 -6v-275q0 -66 17 -109t44 -67.5t60 -34.5t66 -10q36 0 63.5 8.5t48.5 21.5t35 28.5 t23 30.5q0 -5 0.5 -19t2.5 -21q1 -5 3.5 -16.5t4.5 -20.5t2 -10q2 -5 7 -5zM467 686q3 3 1 6.5t-6 3.5h-119q-2 0 -5 -3l-90 -147q-2 -3 -0.5 -6t5.5 -3h82q3 0 5 2z" />
<glyph unicode="&#xfb;" horiz-adv-x="612" d="M549 0q7 2 5 7q-6 26 -10 61.5t-4 77.5v338q0 6 -6 6h-117q-6 0 -6 -6v-282q0 -11 -2 -20t-5 -17h1q-11 -26 -39 -48.5t-68 -22.5q-54 0 -77 36.5t-23 99.5v254q0 6 -6 6h-116q-6 0 -6 -6v-275q0 -66 17 -109t44 -67.5t60 -34.5t66 -10q36 0 63.5 8.5t48.5 21.5t35 28.5 t23 30.5q0 -5 0.5 -19t2.5 -21q1 -5 3.5 -16.5t4.5 -20.5t2 -10q2 -5 7 -5zM446 537q4 0 5.5 3t-0.5 6l-101 147q-3 3 -5 3h-79q-2 0 -5 -3l-100 -147q-2 -3 -0.5 -6t5.5 -3h81q2 0 5 3q13 20 26 42t26 42l55 -84q3 -3 5 -3h82z" />
<glyph unicode="&#xfc;" horiz-adv-x="612" d="M549 0q7 2 5 7q-6 26 -10 61.5t-4 77.5v338q0 6 -6 6h-117q-6 0 -6 -6v-282q0 -11 -2 -20t-5 -17h1q-11 -26 -39 -48.5t-68 -22.5q-54 0 -77 36.5t-23 99.5v254q0 6 -6 6h-116q-6 0 -6 -6v-275q0 -66 17 -109t44 -67.5t60 -34.5t66 -10q36 0 63.5 8.5t48.5 21.5t35 28.5 t23 30.5q0 -5 0.5 -19t2.5 -21q1 -5 3.5 -16.5t4.5 -20.5t2 -10q2 -5 7 -5zM471 607q0 26 -17 45t-46 19q-27 0 -45.5 -19t-18.5 -45t17.5 -45t46.5 -19t46 19t17 45zM273 607q0 26 -17.5 45t-43.5 19q-29 0 -47.5 -19t-18.5 -45t18 -45t47 -19q28 0 45 19t17 45z" />
<glyph unicode="&#xfd;" horiz-adv-x="535" d="M532 482q2 8 -6 8h-127q-4 0 -6 -4l-91 -261q-5 -14 -9 -29.5t-9 -30.5q-2 -7 -3.5 -12t-3.5 -10q-8 20 -14 39t-14 41l-102 263q-2 4 -6 4h-129q-7 0 -5 -8l193 -439q4 -8 5 -13.5t1 -9.5t-7 -18q-15 -29 -36 -50.5t-39 -32.5q-19 -11 -38 -18.5t-33 -10.5q-7 -2 -5 -7 l23 -97q2 -5 7 -5q24 2 60.5 14.5t73.5 41.5q21 16 42 42t43.5 64t47 89.5t52.5 119.5zM439 686q3 3 1 6.5t-6 3.5h-119q-2 0 -5 -3l-90 -147q-2 -3 -0.5 -6t5.5 -3h82q3 0 5 2z" />
<glyph unicode="&#xfe;" horiz-adv-x="635" d="M598 252q0 59 -19 105.5t-50.5 78.5t-72.5 48.5t-86 16.5q-56 -1 -98 -21t-69 -50l-2 239q0 5 -6 5h-117q-6 0 -6 -5v-860q0 -6 6 -6h117q6 0 6 6v240q28 -29 67 -45t85 -16q44 0 88 16t79 48.5t56.5 82t21.5 117.5zM469 250q0 -78 -39 -120t-99 -42q-42 0 -74 22t-46 53 q-5 8 -7.5 19.5t-2.5 20.5v72q0 11 3.5 24t7.5 22q17 38 50.5 58t71.5 20q31 0 56.5 -12t42.5 -32.5t26.5 -47.5t9.5 -57z" />
<glyph unicode="&#xff;" horiz-adv-x="535" d="M532 482q2 8 -6 8h-127q-4 0 -6 -4l-91 -261q-5 -14 -9 -29.5t-9 -30.5q-2 -7 -3.5 -12t-3.5 -10q-8 20 -14 39t-14 41l-102 263q-2 4 -6 4h-129q-7 0 -5 -8l193 -439q4 -8 5 -13.5t1 -9.5t-7 -18q-15 -29 -36 -50.5t-39 -32.5q-19 -11 -38 -18.5t-33 -10.5q-7 -2 -5 -7 l23 -97q2 -5 7 -5q24 2 60.5 14.5t73.5 41.5q21 16 42 42t43.5 64t47 89.5t52.5 119.5zM444 607q0 26 -17 45t-46 19q-27 0 -45.5 -19t-18.5 -45t17.5 -45t46.5 -19t46 19t17 45zM246 607q0 26 -17.5 45t-43.5 19q-29 0 -47.5 -19t-18.5 -45t18 -45t47 -19q28 0 45 19t17 45 z" />
<glyph unicode="&#x152;" horiz-adv-x="1005" d="M957 0q6 0 6 6v94q0 6 -6 6h-309v190h277q6 0 6 6v94q0 6 -6 6h-277v166h293q6 0 6 6v95q0 5 -6 5h-361q-12 0 -26 1t-31 3q-4 0 -7 0.5t-7 1.5q-22 2 -47 4t-57 2q-80 0 -147 -24.5t-115.5 -70t-75.5 -111.5t-27 -149q0 -72 24.5 -134.5t71 -109t113.5 -73t153 -26.5 q28 0 52 2t44 4q3 0 6 0.5t6 0.5q17 2 31.5 3.5t27.5 1.5h388zM520 103q-18 -6 -42.5 -9t-50.5 -3q-62 0 -108.5 19.5t-78.5 53.5t-48 78t-16 94q0 53 16.5 98.5t48 78.5t75.5 51.5t100 18.5q34 0 59 -3.5t45 -9.5v-467z" />
<glyph unicode="&#x153;" horiz-adv-x="943" d="M915 261q0 35 -10.5 77t-36.5 78t-70 60.5t-111 24.5q-64 0 -114.5 -25.5t-81.5 -70.5q-30 45 -79.5 70.5t-110.5 25.5q-57 0 -105 -19t-83 -53.5t-54.5 -82t-19.5 -104.5q0 -58 20 -105t54.5 -80t80.5 -51t99 -18q57 0 109 22.5t86 70.5q34 -43 87 -68t124 -25 q24 0 46 1t43 6q5 2 5 7l-12 85q0 4 -7 4q-29 -3 -59 -3t-57.5 8.5t-49 24t-36 38t-18.5 49.5h352q4 0 6 5q2 7 2.5 19.5t0.5 28.5zM434 271q-2 -17 -4 -34.5t-5 -32.5q-6 -35 -18 -61l1 1q-17 -29 -44 -44.5t-60 -15.5q-28 0 -52.5 11.5t-42.5 32.5t-28 50.5t-10 65.5 q0 28 7.5 57t23.5 52.5t41.5 38t62.5 14.5q31 0 54 -11t39 -30t24.5 -43t10.5 -51zM681 411q34 0 55.5 -12t34 -29.5t17.5 -36.5t5 -32h-238q3 18 11 37.5t23 35.5t37.5 26.5t54.5 10.5z" />
<glyph unicode="&#x178;" horiz-adv-x="622" d="M617 666q2 3 0.5 5.5t-5.5 2.5h-135q-4 0 -5 -3q-23 -44 -47.5 -88.5t-47.5 -88.5q-4 -7 -7 -13t-7 -13q-14 -25 -25 -47t-22 -45q-13 23 -21.5 39.5t-20.5 39.5q-3 5 -10.5 19.5t-10.5 20.5l-92 176q-2 3 -5 3h-136q-4 0 -5.5 -2.5t0.5 -5.5l230 -381v-279q0 -6 6 -6 h117q6 0 6 6v281zM479 769q0 26 -18 45t-45 19q-29 0 -47 -19t-18 -45t17.5 -45t46.5 -19t46.5 19t17.5 45zM281 769q0 26 -18 45t-44 19q-29 0 -47.5 -19t-18.5 -45t18 -45t47 -19q28 0 45.5 19t17.5 45z" />
<glyph unicode="&#x2c6;" horiz-adv-x="300" d="M290 537q4 0 5.5 3t-0.5 6l-101 147q-3 3 -5 3h-79q-2 0 -5 -3l-100 -147q-2 -3 -0.5 -6t5.5 -3h81q2 0 5 3q13 20 26 42t26 42l55 -84q3 -3 5 -3h82z" />
<glyph unicode="&#x2dc;" horiz-adv-x="300" d="M283 678h-54q-6 0 -6 -5q-2 -23 -6.5 -31t-14.5 -8q-9 0 -18 4.5t-20 9.5q-4 2 -5 3q-17 10 -34 16.5t-37 6.5q-36 0 -57 -31t-19 -87q0 -5 6 -5h56q6 0 6 5q3 40 20 40q8 0 16.5 -4t22.5 -12q18 -11 34.5 -17t36.5 -6q82 0 79 115z" />
<glyph unicode="&#x2000;" horiz-adv-x="420" />
<glyph unicode="&#x2001;" horiz-adv-x="840" />
<glyph unicode="&#x2002;" horiz-adv-x="420" />
<glyph unicode="&#x2003;" horiz-adv-x="840" />
<glyph unicode="&#x2004;" horiz-adv-x="280" />
<glyph unicode="&#x2005;" horiz-adv-x="210" />
<glyph unicode="&#x2006;" horiz-adv-x="140" />
<glyph unicode="&#x2007;" horiz-adv-x="140" />
<glyph unicode="&#x2008;" horiz-adv-x="105" />
<glyph unicode="&#x2009;" horiz-adv-x="168" />
<glyph unicode="&#x200a;" horiz-adv-x="46" />
<glyph unicode="&#x2010;" horiz-adv-x="327" d="M295 223q6 0 6 6v80q0 6 -6 6h-263q-6 0 -6 -6v-80q0 -6 6 -6h263z" />
<glyph unicode="&#x2011;" horiz-adv-x="327" d="M295 223q6 0 6 6v80q0 6 -6 6h-263q-6 0 -6 -6v-80q0 -6 6 -6h263z" />
<glyph unicode="&#x2012;" horiz-adv-x="327" d="M295 223q6 0 6 6v80q0 6 -6 6h-263q-6 0 -6 -6v-80q0 -6 6 -6h263z" />
<glyph unicode="&#x2013;" horiz-adv-x="500" d="M466 211q6 0 6 6v73q0 6 -6 6h-432q-6 0 -6 -6v-73q0 -6 6 -6h432z" />
<glyph unicode="&#x2014;" horiz-adv-x="1000" d="M962 211q6 0 6 6v73q0 6 -6 6h-924q-6 0 -6 -6v-73q0 -6 6 -6h924z" />
<glyph unicode="&#x2018;" horiz-adv-x="244" d="M216 695l-74 -7q-2 0 -5 -3q-14 -22 -28 -51.5t-28 -63t-26.5 -68.5t-21.5 -68q-2 -8 6 -8l115 10q5 0 5 4q10 59 27 126.5t36 120.5z" />
<glyph unicode="&#x2019;" horiz-adv-x="244" d="M216 695l-116 -10q-5 0 -5 -5q-5 -29 -11.5 -61t-15 -64.5t-17.5 -63.5t-18 -57q-4 -8 6 -8l73 7q2 0 5 3q14 22 28.5 51.5t28 63t26 68.5t22.5 68z" />
<glyph unicode="&#x201a;" horiz-adv-x="290" d="M358 643l-1 7.5t-3 17.5l-4 18t-4.5 17t-5.5 13.5t-7 6.5q-12 2 -25.5 3.5t-30.5 1.5q-33 0 -69 -11t-65 -38q-33 -30 -48 -77.5t-15 -98.5v-545q0 -11 -2 -35.5t-5 -49.5t-5 -44.5l-2 -19.5q0 -7 5 -7l58 -5l12.5 6t27.5 15.5t27.5 22t12.5 25.5l-1 642q0 24 4.5 44.5 t14 36.5t25.5 25t40 9q14 0 25 -2.5t20 -5.5q5 0 8.5 3t7.5 8q3 3 -1 8z" />
<glyph unicode="&#x201c;" horiz-adv-x="420" d="M391 695l-75 -7q-2 0 -5 -3q-13 -22 -27.5 -51.5t-28 -63t-26.5 -68.5t-23 -68q-2 -8 6 -8l116 10q6 0 6 4q10 59 26.5 126.5t36.5 120.5zM218 695l-75 -7q-2 0 -5 -3q-13 -22 -27.5 -51.5t-28 -63t-26 -68.5t-22.5 -68q-2 -8 6 -8l115 10q6 0 6 4q10 59 26.5 126.5 t36.5 120.5z" />
<glyph unicode="&#x201d;" horiz-adv-x="420" d="M391 695l-116 -10q-6 0 -6 -5q-5 -29 -11.5 -61t-15 -65t-17.5 -64t-19 -56q-4 -8 6 -8l75 7q2 0 5 3q13 22 27.5 51.5t28.5 63t26.5 68.5t22.5 68zM218 695l-116 -10q-6 0 -6 -5q-5 -29 -11.5 -61t-14.5 -64.5t-17.5 -63.5t-18.5 -57q-4 -8 6 -8l74 7q2 0 5 3 q13 22 27.5 51.5t28.5 63t26.5 68.5t22.5 68z" />
<glyph unicode="&#x201e;" horiz-adv-x="424" d="M375 160l-116 -10q-6 0 -6 -4q-9 -59 -26 -126.5t-37 -120.5q-4 -8 6 -8l75 7q2 0 5 3q13 22 27.5 51.5t28 63t26.5 68.5t23 68zM202 160l-116 -10q-6 0 -6 -4q-5 -29 -11.5 -61.5t-14.5 -65t-17.5 -63.5t-18.5 -57q-4 -8 6 -8l74 7q2 0 5 3q13 22 27.5 51.5t28 63 t26.5 68.5t23 68z" />
<glyph unicode="&#x2022;" horiz-adv-x="316" d="M254 344q0 19 -7.5 36.5t-20.5 30.5t-30.5 20.5t-37.5 7.5t-37 -7.5t-30 -20.5t-20.5 -30.5t-7.5 -36.5q0 -20 7.5 -37.5t20.5 -30t30 -20t37 -7.5t37.5 7.5t30.5 20.5t20.5 30t7.5 37z" />
<glyph unicode="&#x2026;" horiz-adv-x="1000" d="M173 -12q36 0 57.5 23.5t21.5 57.5q-1 36 -22 58.5t-57 22.5q-37 0 -58 -22.5t-22 -58.5q0 -34 21.5 -57.5t58.5 -23.5zM825 -12q38 0 59.5 23.5t21.5 57.5q-1 36 -22 58.5t-58 22.5q-36 0 -57 -22.5t-22 -58.5q0 -34 21.5 -57.5t56.5 -23.5zM499 -12q36 0 58 23.5 t22 57.5q0 36 -22 58.5t-57 22.5q-36 0 -58.5 -22.5t-22.5 -58.5q0 -34 22 -57.5t58 -23.5z" />
<glyph unicode="&#x202f;" horiz-adv-x="168" />
<glyph unicode="&#x2039;" horiz-adv-x="277" d="M249 62q4 0 5.5 3t-0.5 6q-32 46 -65 91.5t-66 91.5l131 183q2 2 0.5 5t-5.5 3h-86q-2 0 -5 -3l-131 -185q-2 -3 0 -6l131 -186q3 -3 5 -3h86z" />
<glyph unicode="&#x203a;" horiz-adv-x="277" d="M250 251q1 3 0 6l-132 185q-3 3 -5 3h-86q-4 0 -5.5 -3t0.5 -5q32 -46 65.5 -91.5t66.5 -91.5l-131 -183q-2 -3 -0.5 -6t5.5 -3h85q2 0 5 3z" />
<glyph unicode="&#x205f;" horiz-adv-x="210" />
<glyph unicode="&#x20ac;" horiz-adv-x="686" d="M613 209q7 0 7 5v64q0 5 -7 5h-376q-5 28 -5 51q0 13 1 25.5t3 23.5h377q7 0 7 5v66q0 5 -7 5h-352q31 58 91.5 89.5t142.5 31.5q46 0 84.5 -8.5t65.5 -20.5q6 -4 8 3l27 91q2 5 -3 7q-21 11 -68.5 22.5t-118.5 11.5q-69 0 -128.5 -16.5t-106.5 -46t-81.5 -71.5 t-53.5 -93h-86q-7 0 -7 -5v-66q0 -5 7 -5h67q-2 -13 -3 -26t-1 -27q0 -23 3 -47h-66q-7 0 -7 -5v-64q0 -5 7 -5h82q35 -104 128 -162.5t228 -58.5q71 0 123.5 12t77.5 25q5 3 3 5l-22 90q-2 7 -8 4q-29 -13 -70.5 -20.5t-84.5 -7.5q-83 0 -140 30.5t-87 82.5h349z" />
<glyph unicode="&#x2122;" horiz-adv-x="886" d="M833 271q6 0 6 6l-27 392q0 5 -5 5h-103q-3 0 -6 -3l-66 -175q-6 -17 -11 -36.5t-11 -39.5q-2 -5 -3 -11.5t-3 -11.5q-5 13 -5 16q0 4 -3 15v-1q-5 20 -9.5 37.5t-9.5 31.5l-64 175q-3 3 -6 3h-107q-5 0 -5 -5l-28 -392q0 -6 6 -6h72q6 0 6 6l12 206q2 20 2 41v45v13 q3 -8 4 -14t3 -14q5 -19 9.5 -38t9.5 -34l69 -201q2 -4 6 -4h61q5 0 5 4l72 197q8 23 16 50t16 53q1 -9 1 -13v-7q0 -2 -0.5 -5t-0.5 -11q0 -17 0.5 -32.5t1.5 -29.5l12 -206q0 -6 6 -6h77zM354 599q6 0 6 6v64q0 5 -6 5h-331q-6 0 -6 -5v-64q0 -6 6 -6h120v-322q0 -6 6 -6 h77q6 0 6 6v322h122z" />
<glyph unicode="&#xe000;" horiz-adv-x="490" d="M0 490h490v-490h-490v490z" />
</font>
</defs>
</svg>
