<?xml version="1.0" standalone="no"?>
<!DOCTYPE svg PUBLIC "-//W3C//DTD SVG 1.1//EN" "http://www.w3.org/Graphics/SVG/1.1/DTD/svg11.dtd" >
<svg xmlns="http://www.w3.org/2000/svg">
<metadata></metadata>
<defs>
<font id="crete_rounditalic" horiz-adv-x="500" >
<font-face units-per-em="1000" ascent="800" descent="-200" />
<missing-glyph horiz-adv-x="200" />
<glyph horiz-adv-x="0" />
<glyph horiz-adv-x="0" />
<glyph horiz-adv-x="333" />
<glyph unicode="&#xd;" horiz-adv-x="200" />
<glyph unicode=" "  horiz-adv-x="200" />
<glyph unicode="&#x09;" horiz-adv-x="200" />
<glyph unicode="&#xa0;" horiz-adv-x="200" />
<glyph unicode="!" horiz-adv-x="253" d="M18 35q0 33 22 53t56 20q28 0 45 -15.5t17 -38.5q0 -33 -22.5 -53t-57.5 -20q-28 0 -44 15.5t-16 38.5zM78 172l37 338l27 153q2 15 19 15h76q10 0 12.5 -3t0.5 -12l-27 -155l-81 -337q-4 -15 -20 -15h-30q-10 0 -12.5 3t-1.5 13z" />
<glyph unicode="&#x22;" horiz-adv-x="374" d="M108 473l3 89q0 18 3 31l12 71q2 15 19 15h70q10 0 12.5 -3t0.5 -12l-12 -73q-4 -18 -8 -30l-29 -89q-5 -15 -21 -15h-34q-10 0 -13 3t-3 13zM260 473l3 89q0 18 3 31l12 71q2 15 19 15h70q10 0 12.5 -3t0.5 -12l-12 -73q-4 -18 -8 -30l-29 -89q-5 -15 -21 -15h-34 q-10 0 -13 3t-3 13z" />
<glyph unicode="#" horiz-adv-x="563" d="M23 186v6q2 9 5.5 12t13.5 3h104l45 123h-104q-10 0 -12.5 3t-0.5 12v6q2 9 5.5 12t13.5 3h111l55 150q5 15 21 15h5q9 0 11.5 -3t-0.5 -12l-55 -150h132l53 150q5 15 21 15h5q9 0 11.5 -3t-0.5 -12l-53 -150h111q10 0 12.5 -3t0.5 -12v-6q-2 -9 -5.5 -12t-13.5 -3h-118 l-43 -123h116q10 0 12.5 -3t0.5 -12v-6q-2 -9 -5.5 -12t-13.5 -3h-123l-61 -173q-5 -15 -21 -15h-5q-9 0 -11.5 3t0.5 12l61 173h-133l-63 -173q-5 -15 -21 -15h-5q-9 0 -11.5 3t0.5 12l63 173h-98q-10 0 -12.5 3t-0.5 12zM183 207h134l43 123h-132z" />
<glyph unicode="$" horiz-adv-x="431" d="M0 22l18 112q2 9 5.5 12t13.5 3h54q10 0 12.5 -3t0.5 -12l-13 -57q15 -13 39 -17l47 161q-70 35 -98 63.5t-28 80.5q0 80 60.5 124t156.5 43l15 49q4 15 20 15h10q9 0 11.5 -3t0.5 -12l-15 -51q43 -3 88 -17q15 -5 13 -20l-17 -105q-2 -9 -5.5 -12t-13.5 -3h-54 q-10 0 -12 3t0 12l12 54q-18 9 -33 12l-42 -140q31 -17 44.5 -26t37 -28.5t33.5 -44t10 -56.5q0 -87 -65.5 -131.5t-156.5 -44.5l-19 -66q-4 -15 -20 -15h-10q-10 0 -12 3t0 12l19 68q-49 3 -94 17q-15 5 -13 20zM154 393q0 -39 55 -64l38 127q-38 2 -65.5 -15t-27.5 -48z M172 57q39 1 69 18t30 54q0 26 -13.5 41.5t-43.5 32.5z" />
<glyph unicode="%" horiz-adv-x="833" d="M40 437q0 87 53 153.5t140 66.5q63 0 101.5 -37.5t38.5 -108.5q0 -86 -51.5 -156t-140.5 -70q-65 0 -103 40.5t-38 111.5zM126 434q0 -81 62 -81q37 0 60.5 28t31 61t7.5 69q0 38 -16 59t-45 21q-37 0 -61 -29t-31.5 -61.5t-7.5 -66.5zM154 -4l424 646q8 13 25 13h45 q17 0 7 -13l-425 -646q-8 -13 -25 -13h-44q-17 0 -7 13zM435 135q0 87 53 153.5t140 66.5q63 0 101.5 -37.5t38.5 -108.5q0 -86 -51.5 -156t-140.5 -70q-65 0 -103 40.5t-38 111.5zM521 132q0 -81 62 -81q37 0 60.5 28t31 61t7.5 69q0 38 -15.5 59t-44.5 21q-28 0 -49 -16 t-31.5 -42t-15.5 -50.5t-5 -48.5z" />
<glyph unicode="&#x26;" horiz-adv-x="834" d="M42 245q0 123 81.5 212t226.5 89q81 0 127.5 -36t46.5 -97q0 -32 -13.5 -59t-33.5 -44t-44 -28.5t-45.5 -16t-38.5 -4.5q34 -7 58 -21.5t42.5 -42.5t28.5 -50t27 -66q78 23 127 88.5t49 164.5q0 70 -35 143h-74q-10 -1 -12.5 2t-0.5 12l9 52q2 15 19 15h224q10 0 12.5 -3 t0.5 -12l-11 -53q-2 -9 -5.5 -12t-13.5 -2h-56q27 -73 27 -141q0 -119 -66 -208.5t-165 -119.5l53 -116q9 -20 18.5 -28.5t26.5 -8.5t35 7q14 6 22 -8l6 -13q7 -13 -5 -22q-46 -32 -102 -32q-40 0 -63 18t-41 57l-57 126q-32 -4 -74 -4q-149 0 -230 69t-81 193zM159 254 q0 -90 48.5 -142t146.5 -52q26 0 39 1q-16 37 -21.5 50t-18.5 40.5t-20 37.5t-18.5 25t-22 22t-23.5 10q-10 2 -12.5 5.5t-1.5 13.5l4 23q2 16 18 18q55 8 91.5 32.5t36.5 62.5q0 30 -20 46t-53 16q-45 0 -80 -20t-54.5 -52.5t-29 -67t-9.5 -69.5z" />
<glyph unicode="'" horiz-adv-x="222" d="M108 473l3 89q0 18 3 31l12 71q2 15 19 15h70q10 0 12.5 -3t0.5 -12l-12 -73q-4 -18 -8 -30l-29 -89q-5 -15 -21 -15h-34q-10 0 -13 3t-3 13z" />
<glyph unicode="(" horiz-adv-x="336" d="M91 -134l2 425q0 14 5 31l135 409q5 15 21 15h111q10 0 12.5 -3t0.5 -12l-9 -57q-2 -9 -5.5 -12t-13.5 -2l-45 3l-116 -356l-5 -377l48 3q10 1 12.5 -2t0.5 -12l-8 -54q-2 -9 -5.5 -12t-13.5 -3h-111q-10 0 -13 3t-3 13z" />
<glyph unicode=")" horiz-adv-x="336" d="M-32 -135l9 57q2 9 5.5 12t13.5 2l45 -3l116 356l5 377l-48 -3q-10 -1 -12.5 2t-0.5 12l8 54q2 9 5.5 12t13.5 3h111q10 0 13 -3t3 -13l-2 -425q0 -14 -5 -31l-135 -409q-5 -15 -21 -15h-111q-10 0 -12.5 3t-0.5 12z" />
<glyph unicode="*" horiz-adv-x="486" d="M108 458q-5 16 8 23l114 71l-86 72q-12 10 -2 22l7 10q10 13 24 5l96 -51l36 121q4 15 20 15h11q10 0 13 -3t2 -13l-10 -120l123 51q16 7 21 -13q7 -16 -7 -23l-115 -71l88 -73q12 -10 2 -22l-8 -9q-10 -13 -24 -5l-98 50l-35 -119q-4 -15 -20 -15h-10q-10 0 -13 3t-2 13 l8 118l-121 -51q-4 -2 -7 -2.5t-5.5 1.5t-3.5 3.5t-3 5.5z" />
<glyph unicode="+" horiz-adv-x="530" d="M31 280l6 35q1 9 5 12t14 3h176l31 177q1 9 5 12t14 3h41q10 0 12.5 -3t0.5 -12l-31 -177h179q10 0 12.5 -3t0.5 -12l-6 -35q-1 -9 -5 -12t-14 -3h-179l-33 -192q-2 -9 -5.5 -12t-13.5 -3h-41q-10 0 -12.5 3t-0.5 12l33 192h-176q-10 0 -12.5 3t-0.5 12z" />
<glyph unicode="," horiz-adv-x="292" d="M1 -126l57 107q-26 42 -26 69q0 32 22 53.5t59 21.5q30 0 48 -18.5t18 -45.5q0 -22 -10.5 -44.5t-18.5 -33t-33 -40.5l-76 -92q-10 -13 -24 -4l-9 5q-15 8 -7 22z" />
<glyph unicode="-" horiz-adv-x="282" d="M30 233l11 67q1 9 5 12t14 3h190q10 0 12.5 -3t0.5 -12l-12 -67q-1 -9 -5 -12t-14 -3h-189q-10 0 -12.5 3t-0.5 12z" />
<glyph unicode="." horiz-adv-x="279" d="M29 40q0 35 24 57t61 22q30 0 48.5 -17t18.5 -42q0 -35 -24.5 -57t-62.5 -22q-30 0 -47.5 17t-17.5 42z" />
<glyph unicode="/" horiz-adv-x="449" d="M-18 -87l443 818q8 14 23 14h46q16 0 9 -14l-444 -818q-8 -14 -23 -14h-45q-16 0 -9 14z" />
<glyph unicode="0" horiz-adv-x="576" d="M19 208q0 134 80 228.5t224 94.5q94 0 155.5 -53.5t61.5 -159.5q0 -137 -81 -233.5t-226 -96.5q-102 0 -158 57.5t-56 162.5zM130 208q0 -64 29 -101t87 -37q52 0 89.5 23t56.5 60.5t27.5 76.5t8.5 80q0 137 -122 137q-51 0 -87.5 -22t-55 -60t-26 -76t-7.5 -81z" />
<glyph unicode="1" horiz-adv-x="339" d="M-16 15l8 50q2 9 5.5 12t13.5 2h73l61 352l-79 -3q-10 -1 -12.5 2t-0.5 12l9 54q2 15 19 15h174q10 0 12.5 -3t0.5 -12l-73 -417h72q10 1 12.5 -2t0.5 -12l-9 -50q-1 -9 -5 -12t-14 -3h-255q-10 0 -12.5 3t-0.5 12z" />
<glyph unicode="2" horiz-adv-x="526" d="M-7 15l7 42q2 15 18 22q53 22 103.5 48.5t106 64.5t89.5 84t34 92q0 79 -85 79q-91 0 -111 -88q-4 -15 -19 -15h-63q-9 0 -11.5 3t-1.5 13q13 84 72 127.5t149 43.5t138.5 -41t48.5 -110q0 -169 -294 -298h193l6 56q2 10 5 13t13 3h51q10 0 12.5 -3t0.5 -12l-31 -177 q-2 -15 -19 -15h-51q-10 0 -12 3t0 12l9 38h-345q-10 0 -12.5 3t-0.5 12z" />
<glyph unicode="3" horiz-adv-x="483" d="M-22 5q0 8 2 26q2 15 18 15h62q7 0 9.5 -2.5t1.5 -9.5q-1 -5 -1 -14q0 -42 24 -60t74 -18q62 0 96 35.5t34 100.5q0 42 -25.5 65.5t-67.5 26.5q-33 3 -60 3q-10 0 -12.5 3t-0.5 13l8 49q2 15 19 15q49 0 67 3q49 5 80.5 36.5t31.5 80.5q0 35 -20 55t-61 20 q-88 0 -111 -89q-2 -9 -5.5 -12t-13.5 -3h-60q-9 0 -11.5 3t-1.5 12q15 85 76 128.5t146 43.5q83 0 128 -38t45 -100q0 -134 -155 -179q47 -6 80 -42t33 -92q0 -102 -69.5 -161.5t-180.5 -59.5q-86 0 -132.5 37.5t-46.5 108.5z" />
<glyph unicode="4" horiz-adv-x="524" d="M-8 30l8 52q2 13 13 27l306 390q10 12 26 12h84q10 0 12.5 -3t0.5 -12l-70 -397h100q10 0 12.5 -3t0.5 -12l-8 -54q-2 -9 -5.5 -12t-13.5 -3h-101l-23 -133q-2 -15 -19 -15h-73q-10 0 -12.5 3t-0.5 12l23 133h-247q-10 0 -12.5 3t-0.5 12zM92 99h175l49 285z" />
<glyph unicode="5" horiz-adv-x="475" d="M-27 6q0 17 2 27q1 9 4 12t13 3h60q9 0 11.5 -3t1.5 -11q-1 -6 -1 -16q0 -76 89 -76q72 0 112 42t40 113q0 110 -94 110q-57 0 -110 -37q-13 -8 -28 -2l-14 6q-14 7 -10 22l87 300q4 15 20 15h292q10 0 12.5 -3t0.5 -12l-11 -66q-2 -9 -5.5 -12t-13.5 -3h-236l-47 -149 q51 27 112 27q69 0 112.5 -47t43.5 -124q0 -117 -69.5 -190t-195.5 -73q-84 0 -131 38.5t-47 108.5z" />
<glyph unicode="6" horiz-adv-x="546" d="M37 208q0 78 18 153t55 143t104 110t154 42q70 0 112 -32.5t42 -98.5v-21q0 -16 -18 -16h-63q-8 0 -9.5 4t-1.5 15q0 33 -16 49.5t-55 16.5q-66 0 -120 -55t-81 -168q29 33 75.5 54t97.5 21q79 0 122 -49t43 -122q0 -123 -72.5 -194.5t-193.5 -71.5q-94 0 -143.5 59.5 t-49.5 160.5zM142 187q0 -117 105 -117q69 0 105 46.5t36 122.5q0 47 -27.5 74.5t-77.5 27.5q-68 0 -104.5 -40.5t-36.5 -113.5z" />
<glyph unicode="7" horiz-adv-x="461" d="M-3 -120l348 535h-307q-10 0 -12.5 3t-0.5 12l11 66q2 15 19 15h409q10 0 12.5 -3t0.5 -12l-8 -52q-3 -16 -11 -28l-352 -536q-7 -13 -24 -13h-77q-17 0 -8 13z" />
<glyph unicode="8" horiz-adv-x="534" d="M17 133q0 70 43.5 120t120.5 91q-75 55 -75 133q0 82 64 130.5t160 48.5q88 0 130 -36.5t42 -91.5q0 -107 -143 -177q120 -75 120 -171q0 -93 -76 -142.5t-189 -49.5q-98 0 -147.5 40t-49.5 105zM126 155q0 -90 103 -90q58 0 96.5 23.5t38.5 71.5q0 12 -3 23.5t-7 20 t-13 18.5t-14.5 16t-19 15.5t-19.5 13.5t-22 14.5t-21 13.5q-26 -14 -43.5 -26t-37 -29.5t-29 -38.5t-9.5 -46zM220 503q0 -31 17 -55t52 -51q49 25 77.5 52.5t28.5 66.5q0 30 -20.5 46.5t-54.5 16.5q-100 0 -100 -76z" />
<glyph unicode="9" horiz-adv-x="546" d="M9 -11q0 14 1 21q1 16 17 16h64q9 0 9 -10v-11q0 -67 75 -67q71 0 124 56t78 174q-62 -80 -174 -80q-79 0 -123.5 49.5t-44.5 121.5q0 124 72.5 198t193.5 74q95 0 144.5 -62t49.5 -173q0 -65 -10.5 -126t-35.5 -118.5t-62 -100t-93 -68t-126 -25.5q-73 0 -116 32t-43 99 zM143 279q0 -49 24.5 -78t75.5 -29q75 0 111 44.5t36 118.5q0 51 -25.5 83t-80.5 32q-69 0 -105 -47t-36 -124z" />
<glyph unicode=":" horiz-adv-x="279" d="M30 40q0 35 24 57t61 22q30 0 48.5 -17t18.5 -42q0 -35 -24.5 -57t-62.5 -22q-30 0 -47.5 17t-17.5 42zM100 437q0 35 24 57t61 22q30 0 48.5 -17t18.5 -42q0 -35 -24.5 -57t-62.5 -22q-30 0 -47.5 17t-17.5 42z" />
<glyph unicode=";" horiz-adv-x="292" d="M1 -126l57 107q-26 42 -26 69q0 32 22 53.5t59 21.5q30 0 48 -18.5t18 -45.5q0 -22 -10.5 -44.5t-18.5 -33t-33 -40.5l-76 -92q-10 -13 -24 -4l-9 5q-15 8 -7 22zM106 437q0 35 24 57t61 22q30 0 48.5 -17t18.5 -42q0 -35 -24.5 -57t-62.5 -22q-30 0 -47.5 17t-17.5 42z " />
<glyph unicode="&#x3c;" horiz-adv-x="530" d="M56 247l6 38q2 15 18 21l427 172q8 3 10.5 1t1.5 -10l-8 -52q-2 -15 -18 -21l-347 -132l298 -140q15 -8 11 -22l-8 -46q-2 -15 -17 -8l-363 177q-15 8 -11 22z" />
<glyph unicode="=" horiz-adv-x="530" d="M13 156l6 35q1 9 5 12t14 3h428q10 0 12.5 -3t0.5 -12l-6 -35q-1 -9 -5 -12t-14 -3h-428q-10 0 -12.5 3t-0.5 12zM43 335l6 35q1 9 5 12t14 3h428q10 0 12.5 -3t0.5 -12l-6 -35q-1 -9 -5 -12t-14 -3h-428q-10 0 -12.5 3t-0.5 12z" />
<glyph unicode="&#x3e;" horiz-adv-x="530" d="M16 56l9 50q3 16 18 21l343 143l-295 130q-13 5 -11 21l9 48q3 14 15 9l366 -172q13 -6 10 -21l-6 -38q-3 -16 -18 -21l-427 -179q-8 -3 -11.5 -1t-1.5 10z" />
<glyph unicode="?" horiz-adv-x="465" d="M81 530q11 82 68.5 124t146.5 42q88 0 135 -40.5t47 -118.5q0 -170 -227 -230l-23 -134q-2 -15 -19 -15h-54q-10 0 -12.5 3t-0.5 12l31 183q2 15 18 19q81 16 128.5 50.5t47.5 105.5q0 39 -21.5 63t-65.5 24q-46 0 -72.5 -21t-35.5 -68q-2 -9 -5.5 -12t-13.5 -3h-59 q-9 0 -11.5 3t-1.5 13zM96 35q0 33 22 53t56 20q28 0 45 -15.5t17 -38.5q0 -33 -22.5 -53t-57.5 -20q-28 0 -44 15.5t-16 38.5z" />
<glyph unicode="@" horiz-adv-x="877" d="M47 211q0 180 109.5 297t287.5 117q177 0 275 -87.5t98 -258.5q0 -38 -6 -74.5t-22.5 -74.5t-41.5 -66t-66.5 -46t-93.5 -18q-82 0 -92 58q-46 -58 -135 -58q-66 0 -102.5 40t-36.5 120q0 50 12.5 98.5t38 91.5t70 69t101.5 26q38 0 66.5 -13.5t40.5 -30.5l3 16q1 9 5 12 t14 3h63q10 0 12.5 -3t0.5 -12l-53 -310q-4 -25 3.5 -41t26.5 -16q70 0 109.5 65t39.5 164q0 149 -85.5 228.5t-251.5 79.5q-154 0 -248 -108t-94 -266q0 -163 95 -243t250 -80q32 0 64 3q10 1 13 -1.5t5 -12.5v-6q3 -16 -14 -17q-36 -3 -72 -3q-175 0 -282 90t-107 268z M316 171q0 -97 84 -97q37 0 70 23.5t39 66.5l31 168q0 2 -8 12t-30 21t-49 11q-49 0 -82 -36.5t-44 -80t-11 -88.5z" />
<glyph unicode="A" horiz-adv-x="696" d="M-34 15l9 50q2 9 5.5 12t13.5 2h61l302 586q8 14 23 14h86q16 0 18 -15l89 -568q3 -20 8 -28t17 -8q13 0 31 7q15 6 22 -8l7 -15q6 -14 -7 -22q-51 -34 -104 -34q-42 0 -58 20t-24 65l-26 141h-223l-69 -135h62q10 1 12.5 -2t0.5 -12l-10 -50q-2 -15 -19 -15h-214 q-10 0 -12.5 3t-0.5 12zM251 289h179l-40 275z" />
<glyph unicode="B" horiz-adv-x="597" d="M61 15l100 583h-51q-10 -1 -12.5 2t-0.5 12l9 52q2 15 19 16q185 5 209 5q120 0 176.5 -40t56.5 -107q0 -123 -147 -171q65 -11 99 -52.5t34 -97.5q0 -99 -74.5 -152.5t-187.5 -60.5q-57 -4 -145 -4h-72q-10 0 -12.5 3t-0.5 12zM184 79h49q45 0 75.5 4t63.5 16.5t49.5 41 t16.5 72.5q0 49 -35 75.5t-104 26.5h-72zM241 398h38q73 0 121.5 29t48.5 94q0 47 -36 64t-100 17h-36z" />
<glyph unicode="C" horiz-adv-x="632" d="M50 272q0 76 24 149.5t69 135.5t120.5 100.5t169.5 38.5q109 0 201 -52q14 -7 10 -23l-22 -125q-2 -15 -19 -15h-54q-10 0 -12.5 3t-0.5 12l16 71q-52 41 -132 41q-67 0 -117 -28.5t-77.5 -77.5t-40 -103.5t-12.5 -116.5q0 -95 44 -150.5t138 -55.5q82 0 116 29l9 65 q2 10 5 13t13 3h55q10 0 12.5 -3t0.5 -12l-22 -125q-4 -16 -17 -22q-81 -36 -188 -36q-146 0 -217.5 75t-71.5 209z" />
<glyph unicode="D" horiz-adv-x="686" d="M61 15l100 583h-51q-10 -1 -12.5 2t-0.5 12l9 52q2 15 19 16q190 5 221 5q55 0 104.5 -12t98.5 -39.5t78.5 -83t29.5 -132.5q0 -191 -115 -304.5t-329 -113.5h-139q-10 0 -12.5 3t-0.5 12zM184 79h66q74 0 130.5 27t89 73t48.5 101.5t16 118.5q0 106 -49 154.5t-146 48.5 h-64z" />
<glyph unicode="E" horiz-adv-x="564" d="M-7 15l8 50q2 9 5.5 12t13.5 2h52l90 519h-52q-10 -1 -12.5 2t-0.5 12l9 52q2 15 19 15h438q10 0 12.5 -3t0.5 -12l-23 -134q-1 -9 -5 -12t-14 -3h-54q-10 0 -12.5 3t-0.5 12l16 69h-207l-38 -213h193q10 0 12.5 -3t0.5 -12l-8 -48q-2 -15 -19 -15h-192l-41 -229h229 l9 69q2 10 5 13t13 3h54q10 0 12.5 -3t0.5 -12l-24 -134q-1 -9 -5 -12t-14 -3h-458q-10 0 -12.5 3t-0.5 12z" />
<glyph unicode="F" horiz-adv-x="540" d="M-7 15l8 50q2 9 5.5 12t13.5 2h51l91 519h-52q-10 -1 -12.5 2t-0.5 12l9 52q2 15 19 15h448q10 0 12.5 -3t0.5 -12l-23 -134q-1 -9 -5 -12t-14 -3h-54q-10 0 -12.5 3t-0.5 12l16 69h-217l-38 -208h193q10 0 12.5 -3t0.5 -12l-8 -48q-2 -15 -19 -15h-192l-42 -234h93 q10 1 12.5 -2t0.5 -12l-8 -50q-2 -9 -5.5 -12t-13.5 -3h-256q-10 0 -12.5 3t-0.5 12z" />
<glyph unicode="G" horiz-adv-x="697" d="M50 273q0 173 105.5 298t279.5 125q114 0 199 -51q14 -9 10 -24l-22 -125q-2 -15 -19 -15h-54q-10 0 -12.5 3t-0.5 12l16 72q-64 41 -133 41q-83 0 -140.5 -48t-82 -119.5t-24.5 -159.5q0 -90 46.5 -147t147.5 -57q67 0 113 23l25 133h-64q-10 -1 -12.5 2t-0.5 12l9 51 q2 15 19 15h206q10 0 12.5 -3t0.5 -12l-9 -51q-2 -9 -5.5 -12t-13.5 -2h-41l-33 -188q-4 -15 -17 -21q-86 -37 -202 -37q-72 0 -126.5 15.5t-87.5 41t-53.5 63.5t-28 77.5t-7.5 87.5z" />
<glyph unicode="H" horiz-adv-x="743" d="M-7 15l8 50q2 14 19 14h51l92 519h-53q-10 -1 -12.5 2t-0.5 12l9 52q2 15 19 15h216q10 0 12.5 -3t0.5 -12l-9 -52q-2 -9 -5.5 -12t-13.5 -2h-51l-37 -206h303l37 206h-53q-10 -1 -12.5 2t-0.5 12l9 52q1 9 5 12t14 3h216q10 0 12.5 -3t0.5 -12l-9 -52q-2 -9 -5.5 -12 t-13.5 -2h-51l-89 -498q-6 -31 16 -31q12 0 30 8q15 6 21 -7l8 -16q7 -13 -5 -23q-54 -43 -109 -43q-91 0 -75 95l40 223h-303l-41 -227h52q10 0 12.5 -2.5t1.5 -11.5l-9 -50q-2 -15 -18 -15h-216q-10 0 -12.5 3t-0.5 12z" />
<glyph unicode="I" horiz-adv-x="327" d="M-6 15l8 50q2 9 5.5 12t13.5 2h51l90 519h-51q-10 -1 -12.5 2t-0.5 12l8 52q2 9 5.5 12t13.5 3h216q10 0 12.5 -3t0.5 -12l-8 -52q-2 -9 -5.5 -12t-13.5 -2h-52l-91 -519h52q10 1 12.5 -2t0.5 -12l-8 -50q-2 -9 -5.5 -12t-13.5 -3h-215q-10 0 -12.5 3t-0.5 12z" />
<glyph unicode="J" horiz-adv-x="472" d="M-35 -193l16 41q6 14 21 9q47 -17 98 -17q45 0 71 34t39 108l108 617h-131l-10 -68q-2 -9 -5 -12t-13 -3h-59q-10 0 -12.5 3t-0.5 12l23 133q2 15 19 15h299q10 0 12.5 -3t0.5 -12l-124 -706q-18 -98 -65.5 -148t-143.5 -50q-72 0 -134 26q-14 6 -9 21z" />
<glyph unicode="K" horiz-adv-x="673" d="M-7 15l8 50q2 9 5.5 12t13.5 2h51l91 519h-52q-10 -1 -12.5 2t-0.5 12l8 52q2 9 5.5 12t13.5 3h216q10 0 12.5 -3t0.5 -12l-8 -52q-2 -9 -5.5 -12t-13.5 -2h-52l-38 -214h51l200 214h-45q-10 -1 -12.5 2t-1.5 12l9 52q2 9 5 12t13 3h199q10 0 12.5 -3t0.5 -12l-10 -52 q-2 -9 -5.5 -12t-13.5 -2h-52l-222 -235l146 -269q19 -34 41 -34q15 0 30 7q15 6 22 -8l10 -16q5 -8 3.5 -12.5t-9.5 -9.5q-49 -33 -97 -33q-44 0 -67.5 17t-48.5 64l-124 233h-48l-39 -223h52q10 1 12.5 -2t0.5 -12l-8 -50q-2 -9 -5.5 -12t-13.5 -3h-215q-10 0 -12.5 3 t-0.5 12z" />
<glyph unicode="L" horiz-adv-x="525" d="M-7 15l8 50q2 9 5.5 12t13.5 2h52l90 519h-52q-10 -1 -12.5 2t-0.5 12l9 52q2 15 19 15h216q10 0 12.5 -3t0.5 -12l-9 -52q-2 -9 -5.5 -12t-13.5 -2h-51l-91 -518h207l10 69q2 9 5 12t13 3h54q10 0 12.5 -3t0.5 -12l-33 -187q-1 -9 -5 -12t-14 -3h-54q-10 0 -12 3t0 12 l10 38h-372q-10 0 -12.5 3t-0.5 12z" />
<glyph unicode="M" horiz-adv-x="912" d="M-8 15l9 50q2 9 5 12t13 2h52l91 519h-51q-10 -1 -12.5 2t-0.5 12l8 52q2 9 5.5 12t13.5 3h170q17 0 19 -15l116 -544l296 545q8 14 23 14h173q10 0 12.5 -3t0.5 -12l-9 -52q-2 -9 -5.5 -12t-13.5 -2h-51l-83 -498q-6 -31 15 -31q12 0 30 8q15 6 21 -7l8 -16 q7 -13 -5 -23q-54 -43 -109 -43q-91 0 -75 95l74 424l-273 -493q-9 -14 -24 -14h-74q-17 0 -19 15l-110 493l-77 -429h65q10 1 12.5 -2t1.5 -12l-9 -50q-2 -9 -5 -12t-13 -3h-201q-10 0 -12.5 3t-1.5 12z" />
<glyph unicode="N" horiz-adv-x="743" d="M-7 15l9 50q2 9 5.5 12t13.5 2h52l89 519h-52q-10 -1 -12.5 2t-0.5 12l9 52q2 15 19 15h142q15 0 23 -14l244 -504l80 437h-50q-10 -1 -12.5 2t-0.5 12l8 52q2 9 5.5 12t13.5 3h188q10 0 12.5 -3t0.5 -12l-8 -52q-2 -9 -5.5 -12t-13.5 -2h-51l-103 -583q-2 -15 -19 -15 h-71q-15 0 -23 14l-249 505l-77 -440h81q10 1 12.5 -2t0.5 -12l-8 -50q-2 -9 -5.5 -12t-13.5 -3h-220q-10 0 -12.5 3t-0.5 12z" />
<glyph unicode="O" horiz-adv-x="706" d="M48 255q0 118 43 217t129.5 161.5t200.5 62.5q34 0 67 -7t68.5 -25.5t61.5 -47.5t43 -78t17 -112q0 -185 -103.5 -311.5t-278.5 -126.5q-117 0 -182.5 72.5t-65.5 194.5zM171 270q0 -80 33.5 -134t112.5 -54q54 0 96 22.5t67.5 57t42.5 80.5t23 89t6 87q0 89 -36 139.5 t-111 50.5q-46 0 -83.5 -15.5t-62 -43t-42.5 -60.5t-27.5 -72.5t-14 -75t-4.5 -71.5z" />
<glyph unicode="P" horiz-adv-x="566" d="M-6 15l8 50q2 9 5.5 12t13.5 2h51l89 519h-51q-10 -1 -12.5 2t-0.5 12l10 52q2 15 19 16q190 5 213 5q113 0 173 -46t60 -128q0 -116 -82.5 -177.5t-215.5 -61.5q-30 0 -56 3l-34 -196h82q10 1 12.5 -2t0.5 -12l-8 -50q-2 -9 -5.5 -12t-13.5 -3h-245q-10 0 -12.5 3 t-0.5 12zM233 351q8 -1 31 -1q87 0 139 39t52 118q0 95 -143 95h-36z" />
<glyph unicode="Q" horiz-adv-x="706" d="M48 255q0 118 43 217t129.5 161.5t200.5 62.5q34 0 67 -7t68.5 -25.5t61.5 -47.5t43 -78t17 -112q0 -158 -82.5 -279.5t-225.5 -151.5v-7q42 -9 90 -42q5 -3 15.5 -10l15 -10t13.5 -8.5t13 -8t11 -6.5t11 -5.5t9 -4t9 -3t8 -0.5q12 0 15.5 5t3.5 20q0 17 15 17h22 q17 0 17 -33q0 -53 -24 -77.5t-61 -24.5q-26 0 -48 10t-61 35q-119 76 -138 76q-20 0 -18 -26q0 -14 -15 -14h-28q-14 0 -14 16q0 34 7 54t28 37v7q-105 15 -161.5 84.5t-56.5 178.5zM171 270q0 -37 7 -68.5t22.5 -61t45.5 -46.5t71 -17q54 0 96 23t67.5 58t42.5 82t23 90.5 t6 87.5q0 89 -36 140t-111 51q-54 0 -97 -23t-68 -58t-41 -81.5t-22 -89.5t-6 -87z" />
<glyph unicode="R" horiz-adv-x="624" d="M-6 15l8 50q2 9 5.5 12t13.5 2h51l90 519h-51q-10 -1 -12.5 2t-0.5 12l9 52q2 15 19 16q190 5 213 5q113 0 172 -42.5t59 -119.5q0 -139 -160 -205l75 -223q12 -35 36 -35q13 0 32 8q15 6 21 -8l8 -17q6 -14 -7 -22q-47 -33 -100 -33q-43 0 -64 19.5t-36 61.5l-77 223 h-20q-32 0 -56 3l-38 -216h62q10 1 12.5 -2t0.5 -12l-8 -50q-2 -9 -5.5 -12t-13.5 -3h-225q-10 0 -12.5 3t-0.5 12zM233 362q8 -1 31 -1q83 0 136 36.5t53 109.5q0 95 -141 95h-36z" />
<glyph unicode="S" horiz-adv-x="517" d="M9 32l26 159q2 9 5.5 12t13.5 3h54q10 0 12.5 -3t0.5 -12l-21 -92q38 -25 107 -25q148 0 148 110q0 25 -8.5 44.5t-29.5 35t-36.5 24.5t-47.5 24q-36 17 -53.5 27t-43 31t-36.5 49t-11 66q0 90 66.5 150.5t187.5 60.5q77 0 153 -22q16 -5 12 -20l-24 -137q-2 -15 -19 -15 h-54q-10 0 -12 3t0 12l16 68q-39 24 -93 24q-60 0 -92.5 -25t-32.5 -67q0 -11 1.5 -20t6.5 -17.5t8 -14.5t12.5 -14t13.5 -11.5t17.5 -11t17.5 -9.5t20.5 -10.5t19.5 -10.5q27 -13 41.5 -21.5t38 -26.5t36.5 -35.5t23 -45.5t10 -60q0 -102 -72.5 -161.5t-193.5 -59.5 q-99 0 -176 24q-16 5 -12 20z" />
<glyph unicode="T" horiz-adv-x="593" d="M63 531l23 133q2 15 19 15h521q10 0 12.5 -3t0.5 -12l-23 -133q-2 -15 -19 -15h-59q-10 0 -12 3t0 12l16 68h-133l-93 -520h82q10 1 12.5 -2t1.5 -12l-9 -50q-2 -9 -5 -12t-13 -3h-276q-10 0 -12.5 3t-1.5 12l9 50q2 9 5 12t13 2h81l92 520h-134l-8 -67q-2 -10 -5 -13 t-13 -3h-59q-10 0 -12.5 3t-0.5 12z" />
<glyph unicode="U" horiz-adv-x="721" d="M83 170q0 33 8 79l61 349h-53q-10 -1 -12.5 2t-0.5 12l9 52q1 9 5 12t14 3h216q10 0 12.5 -3t0.5 -12l-9 -52q-2 -9 -5.5 -12t-13.5 -2h-51l-56 -314q-10 -55 -10 -91q0 -56 30 -85.5t107 -29.5q86 0 130 44.5t60 139.5l58 336h-53q-10 -1 -12.5 2t-0.5 12l9 52 q2 15 19 15h200q10 0 12.5 -3t0.5 -12l-9 -52q-2 -9 -5.5 -12t-13.5 -2h-51l-64 -361q-10 -55 -27.5 -96.5t-50.5 -78t-88.5 -55.5t-131.5 -19q-124 0 -179 45.5t-55 136.5z" />
<glyph unicode="V" horiz-adv-x="684" d="M66 612l9 52q1 9 5 12t14 3h243q10 0 12.5 -3t0.5 -12l-8 -52q-2 -9 -5.5 -12t-13.5 -2h-55l64 -487l235 487h-62q-10 -1 -12.5 2t-0.5 12l9 52q1 9 5 12t14 3h215q10 0 12.5 -3t0.5 -12l-10 -52q-2 -9 -5.5 -12t-13.5 -2h-58l-297 -591q-8 -14 -23 -14h-95q-16 0 -18 15 l-87 590h-62q-10 -1 -12.5 2t-0.5 12z" />
<glyph unicode="W" horiz-adv-x="997" d="M66 612l9 52q1 9 5 12t14 3h241q10 0 12.5 -3t0.5 -12l-8 -52q-2 -9 -5.5 -12t-13.5 -2h-63l23 -466l237 533q6 14 22 14h85q10 0 13 -3t4 -13l50 -534l189 469h-62q-10 -1 -12.5 2t-0.5 12l10 52q2 15 19 15h207q10 0 12.5 -3t0.5 -12l-9 -52q-2 -9 -5.5 -12t-13.5 -2 h-51l-246 -591q-6 -14 -22 -14h-98q-10 0 -13 3t-5 13l-49 511l-226 -513q-6 -14 -22 -14h-101q-10 0 -13 3t-4 13l-39 589h-59q-10 -1 -12.5 2t-0.5 12z" />
<glyph unicode="X" horiz-adv-x="677" d="M-41 15l7 50q2 9 5.5 12t13.5 2h52l241 259l-144 260h-53q-10 -1 -12.5 2t-0.5 12l8 52q2 9 5.5 12t13.5 3h248q10 0 12.5 -3t0.5 -12l-8 -52q-2 -9 -5.5 -12t-13.5 -2h-60l97 -180l163 180h-55q-10 -1 -12.5 2t-0.5 12l8 52q2 9 5.5 12t13.5 3h209q10 0 12.5 -3t0.5 -12 l-8 -52q-2 -9 -5.5 -12t-13.5 -2h-51l-228 -242l151 -277h60q10 1 12.5 -2t0.5 -12l-8 -50q-2 -9 -5.5 -12t-13.5 -3h-260q-10 0 -12.5 3t-0.5 12l8 50q2 9 5.5 12t13.5 2h63l-103 190l-176 -190h63q10 1 12.5 -2t0.5 -12l-8 -50q-2 -9 -5.5 -12t-13.5 -3h-216 q-10 0 -12.5 3t-0.5 12z" />
<glyph unicode="Y" horiz-adv-x="664" d="M79 612l10 52q1 9 5 12t14 3h236q10 0 12.5 -3t0.5 -12l-8 -52q-2 -9 -5.5 -12t-13.5 -2h-53l79 -238l169 238h-56q-10 -1 -12.5 2t-0.5 12l10 52q2 15 19 15h205q10 0 12.5 -3t0.5 -12l-9 -52q-2 -9 -5.5 -12t-13.5 -2h-51l-236 -328l-33 -191h52q10 1 12.5 -2t0.5 -12 l-8 -50q-2 -9 -5.5 -12t-13.5 -3h-216q-10 0 -12.5 3t-0.5 12l8 50q2 9 5.5 12t13.5 2h52l31 178l-125 341h-57q-10 -1 -12.5 2t-0.5 12z" />
<glyph unicode="Z" horiz-adv-x="588" d="M-16 15l6 40q2 13 13 27l455 519h-267l-10 -79q-2 -10 -5 -13t-13 -3h-59q-10 0 -12.5 3t-0.5 12l23 143q2 9 5.5 12t13.5 3h470q10 0 12.5 -3t0.5 -12l-6 -37q-2 -13 -13 -27l-460 -522h297l8 80q2 10 5 13t13 3h57q10 0 12.5 -3t0.5 -12l-34 -197q-2 -15 -19 -15h-54 q-10 0 -12 3t0 12l10 38h-424q-10 0 -12.5 3t-0.5 12z" />
<glyph unicode="[" horiz-adv-x="337" d="M41 -135l151 866q2 15 19 15h151q10 0 12.5 -3t0.5 -12l-9 -59q-2 -9 -5.5 -12t-13.5 -2l-70 5l-129 -733l72 5q10 1 12.5 -2t0.5 -12l-9 -56q-2 -15 -19 -15h-151q-10 0 -12.5 3t-0.5 12z" />
<glyph unicode="\" horiz-adv-x="537" d="M83 727q-4 11 -1 14.5t14 3.5h40q12 0 16.5 -3.5t8.5 -14.5l330 -810q4 -11 1 -14.5t-14 -3.5h-39q-12 0 -16.5 3.5t-8.5 14.5z" />
<glyph unicode="]" horiz-adv-x="337" d="M-34 -135l9 59q2 9 5.5 12t13.5 2l70 -5l129 733l-72 -5q-10 -1 -12.5 2t-0.5 12l9 56q1 9 5 12t14 3h151q10 0 12.5 -3t0.5 -12l-151 -866q-1 -9 -5 -12t-14 -3h-151q-10 0 -12.5 3t-0.5 12z" />
<glyph unicode="^" horiz-adv-x="584" d="M97 328l229 348q8 14 24 14h47q15 0 18 -14l107 -348q3 -14 -12 -14h-64q-15 0 -18 14l-70 259l-161 -259q-8 -14 -24 -14h-71q-15 0 -5 14z" />
<glyph unicode="_" d="M-72 -146l4 27q2 15 19 15h481q10 0 12.5 -3t0.5 -12l-4 -27q-1 -9 -5 -12t-14 -3h-481q-10 0 -12.5 3t-0.5 12z" />
<glyph unicode="`" d="M330 717q-3 9 -0.5 12t11.5 3h78q17 0 19 -15l22 -122q2 -9 -0.5 -12t-12.5 -3h-50q-16 0 -21 15z" />
<glyph unicode="a" horiz-adv-x="591" d="M30 172q0 60 15 117t45 106.5t82.5 80t120.5 30.5q87 0 135 -61l7 35q1 9 5 12t14 3h70q10 0 12.5 -3t0.5 -12l-68 -383q-6 -28 20 -28q11 0 27 8q15 6 22 -7l9 -16q7 -13 -5 -23q-59 -43 -110 -43q-81 0 -78 81q-58 -81 -159 -81q-79 0 -122 45.5t-43 138.5zM143 186 q0 -56 22.5 -84t75.5 -28q43 0 83 29t48 79l34 186l-1 1q-37 51 -102 52q-45 0 -78 -22.5t-50 -59.5t-24.5 -75t-7.5 -78z" />
<glyph unicode="b" horiz-adv-x="590" d="M43 10l114 656h-43q-10 -1 -12.5 2t-0.5 12l9 51q2 15 19 15h138q10 0 12.5 -3t0.5 -12l-53 -307q64 82 165 82q76 0 119 -49t43 -139q0 -139 -65 -234.5t-190 -95.5q-88 0 -146 60l-92 -51q-9 -5 -14.5 0t-3.5 13zM176 126q9 -10 17 -18t36 -21.5t59 -13.5 q148 0 148 221q0 55 -24 87t-74 32q-44 0 -83 -27.5t-48 -77.5z" />
<glyph unicode="c" horiz-adv-x="472" d="M26 193q0 126 72 219.5t205 93.5q88 0 127 -47.5t33 -123.5q-1 -16 -17 -16h-54q-9 0 -12 3t-3 13q2 45 -20.5 65t-65.5 20q-55 0 -90 -37t-47 -84.5t-12 -102.5q0 -124 118 -124q53 0 113 34q13 8 21 -6l16 -32q9 -13 -5 -22q-82 -58 -187 -58q-96 0 -144 55.5 t-48 149.5z" />
<glyph unicode="d" horiz-adv-x="586" d="M25 177q0 47 9 92.5t29.5 89t50.5 76t75 52t100 19.5q47 0 81 -18t47 -38l37 216h-43q-10 -1 -12.5 2t-0.5 12l9 51q1 9 5 12t14 3h138q10 0 12.5 -3t0.5 -12l-113 -634q-6 -28 19 -28q11 0 27 8q15 6 22 -7l9 -16q7 -13 -5 -23q-59 -43 -110 -43q-44 0 -61 20.5 t-17 60.5q-57 -81 -158 -81q-79 0 -122 47t-43 142zM138 191q0 -59 22.5 -88t76.5 -29q43 0 82.5 28.5t47.5 78.5l34 187l-1 1q-37 51 -102 52q-45 0 -78 -22t-50 -58.5t-24.5 -73.5t-7.5 -76z" />
<glyph unicode="e" horiz-adv-x="473" d="M25 185q0 59 17.5 115t50 102.5t87 75t121.5 28.5q76 0 116 -36.5t40 -96.5q-1 -90 -74 -131t-177 -41q-24 0 -64 4q-1 -8 -1 -22q0 -50 27.5 -80.5t83.5 -30.5q64 0 121 34q14 7 21 -6l17 -31q8 -13 -4 -23q-80 -58 -184 -58q-102 0 -150 52.5t-48 144.5zM150 279 q20 -4 38 -4q63 0 108.5 23t45.5 70q0 25 -17.5 38.5t-46.5 13.5q-52 0 -85 -40t-43 -101z" />
<glyph unicode="f" horiz-adv-x="346" d="M-148 -195l17 43q6 14 21 8q30 -16 63 -16q43 0 58.5 24t25.5 84l83 466h-61q-10 -1 -12.5 2t-0.5 12l8 52q2 9 5.5 12t13.5 3h61l17 97q7 38 15.5 62t26.5 51t52.5 40.5t84.5 13.5q61 0 107 -23q14 -7 8 -21l-19 -46q-6 -14 -21 -8q-28 15 -62 15q-43 0 -58.5 -24 t-25.5 -84l-13 -73h120q10 0 12.5 -3t0.5 -12l-8 -52q-2 -9 -5.5 -12t-13.5 -2h-120l-86 -486q-6 -37 -14.5 -61.5t-27 -51.5t-53 -40.5t-84.5 -13.5q-61 0 -107 23q-14 7 -8 21z" />
<glyph unicode="g" horiz-adv-x="586" d="M18 -187l18 51q4 9 8 10.5t12 -2.5q56 -27 123 -27q64 0 102 32t52 109l14 75q-24 -32 -65 -52.5t-88 -20.5q-79 0 -124 43.5t-45 136.5q0 89 27 163.5t88 124.5t146 50q87 0 138 -62l6 36q2 9 5.5 12t13.5 3h131q10 0 12.5 -3t0.5 -12l-9 -53q-2 -9 -5.5 -12t-13.5 -2 l-45 1l-61 -352q-12 -73 -24 -123q-45 -179 -245 -179q-98 0 -164 32q-9 4 -10.5 8t2.5 13zM137 185q0 -110 99 -110q45 0 84 28.5t47 79.5l34 185l-1 1q-39 51 -106 52q-43 0 -75.5 -22t-49 -58.5t-24.5 -75t-8 -80.5z" />
<glyph unicode="h" horiz-adv-x="599" d="M44 15l113 651h-43q-10 -1 -12.5 2t-0.5 12l9 51q2 15 19 15h139q10 0 12.5 -3t0.5 -12l-54 -308q70 83 173 83q127 0 127 -120q0 -30 -9 -73l-45 -213q-6 -31 15 -31q12 0 30 8q15 6 21 -7l8 -16q7 -13 -5 -23q-54 -43 -109 -43q-93 0 -75 95l42 203q8 42 8 60 q0 61 -68 61q-50 0 -88 -28.5t-46 -69.5l-51 -294q-1 -9 -5 -12t-14 -3h-79q-10 0 -12.5 3t-0.5 12z" />
<glyph unicode="i" horiz-adv-x="296" d="M55 82l57 332h-43q-10 -1 -12.5 2t-0.5 12l10 52q2 15 19 15h139q10 0 12.5 -3t0.5 -12l-68 -381q-6 -31 16 -31q12 0 30 8q15 6 21 -7l8 -16q7 -13 -5 -23q-54 -43 -109 -43q-91 0 -75 95zM116 646q0 33 23.5 55t52.5 22q33 0 51 -19t18 -47q0 -34 -22.5 -55.5 t-55.5 -21.5q-31 0 -49 19t-18 47z" />
<glyph unicode="j" horiz-adv-x="289" d="M-173 -199l20 48q6 15 20 9q30 -11 59 -11q89 0 111 127l77 441h-43q-10 -1 -12.5 2t-0.5 12l8 51q2 9 5.5 12t13.5 3h139q10 0 12.5 -3t0.5 -12l-92 -521q-8 -45 -20 -78t-34 -62t-58 -44t-86 -15q-59 0 -112 21q-14 5 -8 20zM116 646q0 33 23.5 55t52.5 22q33 0 51 -19 t18 -47q0 -34 -22.5 -55.5t-55.5 -21.5q-31 0 -49 19t-18 47z" />
<glyph unicode="k" horiz-adv-x="551" d="M43 15l114 650h-44q-10 -1 -12.5 2t-0.5 12l9 52q1 9 5 12t14 3h139q10 0 12.5 -3t0.5 -12l-69 -399h25q114 0 159 148q4 15 20 15h77q9 0 11 -3t0 -12q-18 -65 -63 -109.5t-105 -55.5q44 -5 65 -31t29 -88l12 -100q4 -36 25 -36q15 0 33 9q9 4 13 2.5t8 -10.5l7 -15 q6 -14 -6 -22q-51 -36 -102 -36q-43 0 -61 20.5t-25 64.5l-16 108q-6 44 -21.5 59t-64.5 15h-34l-43 -240q-2 -15 -19 -15h-79q-10 0 -12.5 3t-0.5 12z" />
<glyph unicode="l" horiz-adv-x="291" d="M54 82l102 584h-43q-10 -1 -12.5 2t-0.5 12l9 51q1 9 5 12t14 3h139q10 0 12.5 -3t0.5 -12l-113 -632q-6 -31 17 -31q12 0 30 8q15 6 21 -7l8 -16q7 -13 -5 -23q-54 -43 -109 -43q-91 0 -75 95z" />
<glyph unicode="m" horiz-adv-x="869" d="M43 15l70 400h-43q-10 -1 -12.5 2t-1.5 12l9 51q2 9 5 12t13 3h125q10 0 12.5 -3t1.5 -12l-9 -61q65 87 168 87q51 0 81 -24t39 -64q70 88 167 88q63 0 95.5 -32t32.5 -92q0 -25 -9 -70l-44 -213q-6 -31 15 -31q12 0 30 8q15 6 21 -7l8 -16q7 -13 -5 -23 q-54 -43 -109 -43q-94 0 -75 95l41 202q8 43 8 65q0 61 -62 61q-43 0 -77.5 -27.5t-40.5 -62.5l-53 -305q-2 -15 -19 -15h-80q-10 0 -12.5 3t-0.5 12l48 274q7 40 7 60q0 61 -61 61q-45 0 -79.5 -32t-41.5 -72l-52 -291q-1 -9 -5 -12t-14 -3h-78q-10 0 -12.5 3t-0.5 12z" />
<glyph unicode="n" horiz-adv-x="599" d="M44 15l70 400h-43q-10 -1 -12.5 2t-0.5 12l8 51q2 9 5.5 12t13.5 3h126q10 0 12.5 -3t0.5 -12l-9 -58q71 84 178 84q63 0 98.5 -32.5t35.5 -92.5q0 -27 -8 -63l-46 -219q-6 -31 15 -31q12 0 30 8q15 6 21 -7l8 -16q7 -13 -5 -23q-54 -43 -109 -43q-94 0 -75 95l43 208 q7 37 7 57q0 32 -15 48t-52 16q-50 0 -88.5 -28t-45.5 -69l-52 -299q-1 -9 -5 -12t-14 -3h-79q-10 0 -12.5 3t-0.5 12z" />
<glyph unicode="o" horiz-adv-x="540" d="M25 187q0 140 74 229.5t208 89.5q26 0 50 -4t52 -17t48.5 -34t34.5 -58t14 -85q0 -145 -77.5 -232.5t-214.5 -87.5q-90 0 -139.5 51t-49.5 148zM141 187q0 -116 90 -116q44 0 76.5 24t49 62.5t24 75.5t7.5 73q0 113 -98 113q-44 0 -75.5 -23t-46.5 -61t-21 -74t-6 -74z " />
<glyph unicode="p" horiz-adv-x="591" d="M3 -215l110 630h-43q-10 -1 -12.5 2t-0.5 12l9 51q2 15 19 15h128q10 0 12.5 -3t0.5 -12l-10 -54q64 80 168 80q82 0 126 -50t44 -138q0 -147 -67.5 -238.5t-191.5 -91.5q-42 0 -79.5 14.5t-56.5 31.5l-44 -249q-1 -9 -5 -12t-14 -3h-80q-10 0 -12.5 3t-0.5 12zM174 126 q53 -53 114 -53q42 0 72.5 19.5t46.5 54t23 72t7 81.5q0 112 -99 112q-44 0 -83 -27.5t-48 -77.5z" />
<glyph unicode="q" horiz-adv-x="581" d="M26 173q0 63 15.5 120.5t46 106t82.5 77.5t119 29q87 0 133 -61l9 35q4 15 20 15h69q10 0 12.5 -3t0.5 -12l-109 -608q-6 -31 17 -31q12 0 30 8q15 6 21 -7l8 -16q7 -13 -5 -23q-54 -43 -110 -43q-93 0 -75 95l41 212q-56 -79 -159 -79q-77 0 -121.5 47.5t-44.5 137.5z M140 183q0 -109 98 -109q44 0 83.5 28t47.5 78l33 188q0 3 -9.5 14.5t-35 25t-57.5 13.5q-45 0 -78 -21.5t-50 -57.5t-24.5 -75.5t-7.5 -83.5z" />
<glyph unicode="r" horiz-adv-x="446" d="M44 15l69 399h-43q-10 -1 -12.5 2t-0.5 12l9 52q2 15 19 15h127q10 0 12.5 -3t0.5 -12l-14 -82q63 108 167 108q26 0 53 -6q9 -3 11.5 -7t0.5 -13l-23 -132q-2 -15 -19 -15h-57q-10 0 -12.5 3t-0.5 12l9 53q-14 2 -20 2q-97 0 -121 -136l-44 -252q-1 -9 -5 -12t-14 -3 h-79q-10 0 -12.5 3t-0.5 12z" />
<glyph unicode="s" horiz-adv-x="460" d="M15 130q0 10 3 13t12 3h56q10 0 13 -3t5 -13q4 -34 25 -50.5t71 -16.5q92 0 92 65q0 29 -21 43.5t-68 29.5q-29 9 -40.5 13.5t-35.5 17t-34.5 25.5t-20 36t-9.5 52q0 76 55 118.5t143 42.5q85 0 127 -39t38 -103q0 -10 -3 -13t-13 -3h-57q-10 0 -13 3t-3 13 q-1 32 -20.5 48.5t-65.5 16.5q-82 0 -82 -59q0 -26 22 -40.5t70 -31.5q32 -11 51 -20t42.5 -25.5t35 -41.5t11.5 -58q0 -81 -57.5 -123t-151.5 -42q-81 0 -128.5 34t-48.5 108z" />
<glyph unicode="t" horiz-adv-x="362" d="M51 427l8 53q2 9 5.5 12t13.5 3h56l23 135q2 9 5.5 12t13.5 3h80q10 0 12.5 -3t0.5 -12l-23 -135h100q10 0 12.5 -3t0.5 -12l-9 -53q-2 -9 -5.5 -12t-13.5 -2h-100l-42 -235q-6 -34 -6 -58q0 -27 10.5 -39.5t36.5 -12.5q32 0 60 11q14 5 20 -9l9 -34q5 -15 -9 -21 q-60 -27 -122 -27q-69 0 -95.5 27t-26.5 75q0 28 10 82l44 241h-56q-10 -1 -12.5 2t-0.5 12z" />
<glyph unicode="u" horiz-adv-x="604" d="M60 429l9 51q1 9 5 12t14 3h138q10 0 12.5 -3t0.5 -12l-50 -279q-6 -36 -7 -63t16 -42.5t55 -15.5q46 0 84.5 30t45.5 68l54 302q1 9 5 12t14 3h80q10 0 12.5 -3t0.5 -12l-68 -383q-6 -28 19 -28q11 0 27 8q15 6 22 -7l9 -16q7 -13 -5 -23q-59 -43 -110 -43q-80 0 -78 76 q-64 -76 -170 -76q-156 0 -126 170l46 258l-42 -1q-10 -1 -12.5 2t-0.5 12z" />
<glyph unicode="v" horiz-adv-x="524" d="M15 454q-5 15 9 22q51 30 98 30q74 0 87 -85l49 -327q118 162 147 385q2 10 5 13t13 3h71q9 0 11.5 -3t1.5 -13q-14 -118 -78 -254.5t-146 -220.5q-10 -11 -26 -11h-80q-10 0 -13 3t-5 12l-64 393q-6 33 -25 33q-12 0 -29 -7q-14 -5 -19 9z" />
<glyph unicode="w" horiz-adv-x="803" d="M15 454q-5 15 9 22q51 30 98 30q77 0 83 -87l26 -325q107 160 136 385q2 10 5 13t13 3h112q10 0 13 -3t5 -13l39 -385q57 88 85.5 177.5t42.5 207.5q2 10 5 13t13 3h68q9 0 11.5 -3t1.5 -13q-13 -115 -70 -254.5t-134 -220.5q-10 -11 -26 -11h-75q-10 0 -13 3t-4 13 l-32 348q-26 -102 -71 -197.5t-102 -155.5q-10 -11 -26 -11h-75q-10 0 -13 3t-5 13l-41 396q-3 33 -25 33q-10 0 -29 -8q-14 -6 -19 9z" />
<glyph unicode="x" horiz-adv-x="516" d="M-7 12l198 232l-72 165q-12 28 -32 28q-13 0 -32 -9q-15 -6 -21 9l-8 17q-6 15 8 22q56 30 103 30q36 0 57.5 -16t38.5 -58l42 -103l126 154q10 12 26 12h72q17 0 6 -12l-195 -233l75 -163q13 -30 34 -30q11 0 32 8q13 6 21 -8l7 -17q7 -15 -6 -22q-55 -31 -100 -31 q-37 0 -61 16t-41 57l-45 105l-130 -153q-10 -12 -26 -12h-71q-17 0 -6 12z" />
<glyph unicode="y" horiz-adv-x="595" d="M35 -183l21 47q4 9 8 10.5t12 -2.5q62 -28 125 -28q123 0 146 132l16 88q-69 -76 -165 -76q-65 0 -99.5 31.5t-34.5 92.5q0 23 4 46l46 258l-42 -1q-10 -1 -12.5 2t-0.5 12l8 51q2 9 5.5 12t13.5 3h138q10 0 12.5 -3t0.5 -12l-49 -279q-7 -37 -7 -58q0 -31 16 -47t55 -16 q46 0 84.5 30t45.5 68l53 302q1 9 5 12t14 3h80q10 0 12.5 -3t0.5 -12l-70 -397q-12 -81 -28 -142q-23 -88 -80.5 -134.5t-161.5 -46.5q-90 0 -164 36q-14 6 -8 21z" />
<glyph unicode="z" horiz-adv-x="465" d="M-3 15l7 38q1 13 12 27l304 345h-158l-9 -63q-2 -9 -5 -12t-13 -3h-53q-10 0 -12.5 3t-0.5 12l20 118q1 9 5 12t14 3h341q10 0 12.5 -3t0.5 -12l-6 -36q-2 -13 -13 -27l-308 -348h175l10 72q2 10 5 13t13 3h54q10 0 12.5 -3t0.5 -12l-21 -127q-2 -9 -5.5 -12t-13.5 -3 h-354q-10 0 -12.5 3t-1.5 12z" />
<glyph unicode="{" horiz-adv-x="359" d="M60 -135l98 408h-81q-10 0 -12.5 3t-0.5 12l9 56q1 9 5 12t14 3h81l38 371q2 10 5 13t13 3h159q10 0 12.5 -3t0.5 -12l-9 -59q-2 -9 -5.5 -12t-13.5 -2l-70 5l-129 -733l72 5q10 1 12.5 -2t0.5 -12l-9 -56q-2 -15 -19 -15h-159q-10 0 -12 3t0 12z" />
<glyph unicode="|" horiz-adv-x="257" d="M26 -86l143 816q1 9 5 12t14 3h45q10 0 12.5 -3t0.5 -12l-143 -816q-1 -9 -5 -12t-14 -3h-45q-10 0 -12.5 3t-0.5 12z" />
<glyph unicode="}" horiz-adv-x="360" d="M-42 -135l9 59q2 9 5.5 12t13.5 2l70 -5l129 733l-72 -5q-10 -1 -12.5 2t-0.5 12l9 56q1 9 5 12t14 3h159q10 0 12 -3t0 -12l-98 -408h81q10 0 12.5 -3t0.5 -12l-9 -56q-2 -15 -19 -15h-81l-38 -371q-2 -10 -5 -13t-13 -3h-159q-10 0 -12.5 3t-0.5 12z" />
<glyph unicode="~" horiz-adv-x="636" d="M81 231q13 72 51 104.5t77 32.5q37 0 128.5 -27.5t126.5 -27.5q48 0 55 38q3 16 18 16h37q15 0 12 -15q-11 -71 -47.5 -103.5t-84.5 -32.5q-46 0 -138.5 27t-113.5 27q-24 0 -34 -9.5t-15 -32.5q-2 -13 -16 -13h-44q-16 0 -12 16z" />
<glyph unicode="&#xa1;" horiz-adv-x="253" d="M16 -169l27 155l81 337q4 15 20 15h30q10 0 12.5 -3t1.5 -13l-37 -338l-27 -153q-2 -15 -19 -15h-76q-10 0 -12.5 3t-0.5 12zM108 440q0 33 22.5 53t57.5 20q28 0 44 -15.5t16 -38.5q0 -33 -22 -53t-56 -20q-28 0 -45 15.5t-17 38.5z" />
<glyph unicode="&#xa2;" horiz-adv-x="468" d="M39 218q0 81 27.5 147t88.5 107.5t147 38.5l22 70q5 15 21 15h10q9 0 11.5 -3t-0.5 -12l-23 -76q90 -29 90 -121q0 -20 -4 -39q-2 -9 -5 -12t-13 -3h-40q-9 0 -11.5 3t-1.5 12t1 24q0 48 -40 60l-98 -314q9 -2 28 -2q42 0 92 21q14 6 20 -9l14 -30q6 -14 -8 -22 q-76 -39 -150 -39h-21l-25 -78q-5 -15 -21 -15h-10q-9 0 -11.5 3t0.5 12l27 85q-58 14 -87.5 62t-29.5 115zM144 232q0 -71 40 -101l94 303q-65 -6 -99.5 -64t-34.5 -138z" />
<glyph unicode="&#xa3;" horiz-adv-x="461" d="M-36 29q-2 15 12 23q29 16 54 47q36 49 51 134h-44q-9 0 -11.5 3t0.5 12l8 32q5 15 21 15h41l18 73q22 90 72.5 126.5t132.5 36.5q49 0 117 -17q16 -4 12 -19l-19 -115q-2 -9 -5.5 -12t-13.5 -3h-48q-10 0 -12 3t0 12l13 55q-24 19 -65 19q-36 0 -54 -20t-30 -67l-17 -72 h147q9 0 11.5 -3t-0.5 -12l-10 -34q-5 -15 -21 -15h-142q-13 -57 -27.5 -84.5t-54.5 -63.5h213l5 55q2 10 5 13t13 3h54q10 0 12.5 -3t0.5 -12l-21 -124q-2 -15 -19 -15h-274q-58 0 -105 -5q-10 -1 -13 2t-5 13z" />
<glyph unicode="&#xa5;" horiz-adv-x="523" d="M41 445l9 51q2 15 19 15h201q10 0 12.5 -3t0.5 -12l-9 -51q-2 -9 -5.5 -12t-13.5 -2h-49l78 -127l129 127h-48q-10 -1 -12.5 2t-0.5 12l9 51q1 9 5 12t14 3h160q10 0 12.5 -3t0.5 -12l-9 -51q-2 -9 -5.5 -12t-13.5 -2h-35l-161 -160h85q10 0 12.5 -3t0.5 -12l-3 -21 q-2 -9 -5.5 -12t-13.5 -3h-107l-7 -44h107q10 0 12.5 -3t0.5 -12l-3 -21q-2 -9 -5.5 -12t-13.5 -3h-107l-8 -46h36q10 1 12.5 -2t0.5 -12l-8 -50q-2 -9 -5.5 -12t-13.5 -3h-163q-10 0 -12.5 3t-0.5 12l8 50q2 9 5.5 12t13.5 2h35l8 46h-107q-10 0 -12.5 3t-0.5 12l3 21 q2 9 5.5 12t13.5 3h107l7 44h-107q-10 0 -12.5 3t-0.5 12l3 21q2 9 5.5 12t13.5 3h85l-101 160h-38q-10 -1 -12.5 2t-0.5 12z" />
<glyph unicode="&#xa6;" horiz-adv-x="257" d="M25 -86l53 304q2 15 19 15h45q10 0 12.5 -3t0.5 -12l-53 -304q-2 -15 -19 -15h-45q-10 0 -12.5 3t-0.5 12zM121 458l47 272q2 15 19 15h45q10 0 12.5 -3t0.5 -12l-47 -272q-2 -15 -19 -15h-45q-10 0 -12.5 3t-0.5 12z" />
<glyph unicode="&#xa7;" horiz-adv-x="573" d="M-3 -53q0 18 2 29q1 9 4 12t13 3h56q9 0 12 -3t2 -12q-1 -6 -1 -17q0 -64 70 -64q40 0 64 27t24 70q0 69 -84 206q-82 136 -82 226q0 117 78.5 194t207.5 77q183 0 183 -131q0 -15 -1 -23q-1 -16 -17 -16h-58q-9 0 -12 3t-2 13q2 36 -17 57t-57 21t-65 -17.5t-27 -56.5 q0 -49 61 -144q27 -43 38.5 -62t31 -58.5t28 -74.5t8.5 -71q0 -129 -83.5 -222.5t-211.5 -93.5q-165 0 -165 128zM170 438q0 -43 24.5 -94.5t54 -93t54 -100t24.5 -114.5q0 -29 -11 -86q50 81 50 163q0 52 -25 108t-55 96.5t-55 93.5t-25 99q0 27 9 57l-5 3 q-40 -63 -40 -132z" />
<glyph unicode="&#xa8;" d="M186 647q0 31 19 50t52 19q25 0 40 -13.5t15 -36.5q0 -31 -19.5 -51.5t-51.5 -20.5q-24 0 -39.5 15t-15.5 38zM389 647q0 31 19.5 50t51.5 19q25 0 40 -13.5t15 -36.5q0 -31 -19.5 -51.5t-51.5 -20.5q-24 0 -39.5 15t-15.5 38z" />
<glyph unicode="&#xa9;" horiz-adv-x="880" d="M86 339q0 153 100.5 253.5t256.5 100.5q161 0 264 -99.5t103 -248.5q0 -157 -102 -257t-265 -100q-164 0 -260.5 98t-96.5 253zM129 339q0 -141 88 -229t225 -88q144 0 234.5 86t90.5 231q0 141 -92 230t-233 89q-142 0 -227.5 -88t-85.5 -231zM274 343q0 87 45.5 144 t138.5 57q64 0 96.5 -33t33.5 -87q0 -10 -3 -13t-13 -3h-29q-10 0 -13 3t-5 13q-3 29 -19 42.5t-49 13.5q-96 0 -96 -134q0 -66 20 -100.5t70 -34.5q35 0 53 12.5t21 43.5q2 10 5 13t13 3h29q10 0 13 -3t3 -13q-2 -53 -37 -86.5t-99 -33.5q-92 0 -135 55t-43 141z" />
<glyph unicode="&#xaa;" horiz-adv-x="464" d="M75 460q0 42 11 82.5t33 75.5t60 56.5t87 21.5q55 0 84 -33q2 13 5.5 17.5t14.5 4.5h58q10 0 12.5 -3t0.5 -12l-46 -267q-4 -20 10 -20q5 0 13.5 2.5t13 1.5t8.5 -9q5 -9 5 -17t-10 -13q-34 -22 -73 -22q-31 0 -45 13.5t-12 38.5q-42 -52 -109 -52q-57 0 -89 34t-32 100z M166 468q0 -40 14.5 -57.5t49.5 -17.5q13 0 26 4.5t25.5 13.5t21.5 23.5t12 32.5l24 132v1l-10.5 10.5t-22.5 14t-35 8.5q-30 0 -51.5 -16t-32.5 -42.5t-16 -53t-5 -53.5z" />
<glyph unicode="&#xab;" horiz-adv-x="493" d="M80 272q-5 14 4 28l124 179q8 13 25 13h64q17 0 7 -13l-129 -191l59 -189q3 -9 0.5 -12t-11.5 -3h-66q-16 0 -21 15zM246 272q-5 14 4 28l124 179q8 13 25 13h64q17 0 7 -13l-129 -191l59 -189q3 -9 0.5 -12t-11.5 -3h-66q-16 0 -21 15z" />
<glyph unicode="&#xac;" horiz-adv-x="530" d="M28 300l5 35q2 9 5.5 12t13.5 3h428q10 0 12.5 -3t0.5 -12l-26 -153q-1 -9 -5 -12t-14 -3h-31q-10 0 -12.5 3t-0.5 12l18 103h-381q-10 0 -12.5 3t-0.5 12z" />
<glyph unicode="&#xad;" horiz-adv-x="282" d="M71 233l8 47q1 9 5 12t14 3h190q10 0 12.5 -3t0.5 -12l-8 -47q-1 -9 -5 -12t-14 -3h-190q-10 0 -12.5 3t-0.5 12z" />
<glyph unicode="&#xae;" horiz-adv-x="498" d="M121 565q0 77 50.5 127t128.5 50q80 0 132 -49.5t52 -123.5q0 -79 -51 -129t-133 -50t-130.5 49t-48.5 126zM149 565q0 -68 42.5 -110t108.5 -42q69 0 112.5 41t43.5 111q0 68 -44 111t-112 43q-69 0 -110 -42t-41 -112zM223 488v7q0 7 7 7h12v134h-11q-8 0 -8 8v11 q0 8 9 8h71q63 0 63 -48q0 -33 -34 -47l34 -66h18q8 0 8 -7v-7q0 -7 -8 -7h-39q-8 0 -10 6l-36 73h-23v-58h12q8 0 8 -9v-4q0 -8 -8 -8h-57q-8 0 -8 7zM276 584h16q38 0 38 29q0 23 -37 23h-17v-52z" />
<glyph unicode="&#xaf;" d="M213 637l8 51q2 9 5.5 12t13.5 3h266q10 0 12.5 -3t0.5 -12l-8 -51q-2 -9 -5.5 -12t-13.5 -3h-266q-10 0 -12.5 3t-0.5 12z" />
<glyph unicode="&#xb0;" horiz-adv-x="316" d="M40 573q0 57 40.5 97.5t97.5 40.5t97.5 -40.5t40.5 -97.5t-40.5 -97.5t-97.5 -40.5t-97.5 40.5t-40.5 97.5zM83 573q0 -40 27.5 -67.5t67.5 -27.5t67.5 27.5t27.5 67.5t-27.5 67.5t-67.5 27.5t-67.5 -27.5t-27.5 -67.5z" />
<glyph unicode="&#xb1;" horiz-adv-x="530" d="M-12 15l6 35q2 15 19 15h175l36 207h-176q-10 0 -12.5 3t-0.5 12l6 35q1 9 5 12t14 3h176l31 177q1 9 5 12t14 3h41q10 0 12.5 -3t0.5 -12l-31 -177h179q10 0 12.5 -3t0.5 -12l-6 -35q-1 -9 -5 -12t-14 -3h-179l-36 -207h180q10 0 12.5 -3t0.5 -12l-6 -35q-2 -15 -19 -15 h-428q-10 0 -12.5 3t-0.5 12z" />
<glyph unicode="&#xb2;" horiz-adv-x="381" d="M63 403l4 28q2 15 17 22q205 104 205 192q0 49 -53 49q-57 0 -72 -51q-5 -15 -21 -15h-39q-9 0 -11.5 3t-0.5 12q12 58 55 87t105 29q56 0 90.5 -29.5t34.5 -78.5q0 -63 -54 -109t-146 -89h165q10 0 12.5 -3t0.5 -12l-4 -35q-1 -9 -5 -12t-14 -3h-256q-10 0 -12.5 3 t-0.5 12z" />
<glyph unicode="&#xb3;" horiz-adv-x="361" d="M63 475q0 10 3 13t13 3h38q10 0 13 -3t3 -13q2 -45 57 -45q36 0 58 17t22 48q0 18 -7.5 29t-24.5 15.5t-30 5.5t-37 1q-10 0 -12.5 3t-0.5 13l3 21q2 10 5.5 13t13.5 3q35 0 47 2q63 6 63 60q0 40 -55 40q-53 0 -67 -44q-5 -15 -21 -15h-30q-9 0 -11.5 3t-0.5 12 q11 53 52 77.5t96 24.5q56 0 86.5 -23.5t30.5 -63.5q0 -68 -81 -97q23 -5 41.5 -24.5t18.5 -52.5q0 -58 -44.5 -91.5t-117.5 -33.5q-63 0 -94 25.5t-30 76.5z" />
<glyph unicode="&#xb4;" d="M275 598l63 116q8 18 28 18h75q19 0 7 -17l-86 -118q-11 -17 -31 -17h-46q-11 0 -13 4t3 14z" />
<glyph unicode="&#xb5;" horiz-adv-x="599" d="M82 -187v667q0 15 15 15h82q15 0 15 -15v-294q0 -60 15.5 -85.5t70.5 -25.5q46 0 79 31t33 69v305q0 15 15 15h82q15 0 15 -15v-401h44q15 0 15 -15v-49q0 -15 -15 -15h-112q-12 0 -15 15l-9 56q-58 -78 -154 -78q-41 0 -71 10v-190q0 -15 -15 -15h-75q-15 0 -15 15z" />
<glyph unicode="&#xb6;" horiz-adv-x="525" d="M50 -119l19 49q6 14 21 9q31 -11 63 -11q93 0 114 120l35 228q-97 0 -155 45.5t-58 127.5q0 117 82 173.5t215 56.5h152q10 0 12.5 -3t0.5 -12l-8 -52q-2 -9 -5.5 -12t-13.5 -2h-51l-100 -559q-34 -199 -212 -199q-57 0 -103 20q-14 6 -8 21z" />
<glyph unicode="&#xb7;" horiz-adv-x="253" d="M60 338q0 35 24 57t61 22q30 0 48.5 -17t18.5 -42q0 -35 -24.5 -57t-62.5 -22q-30 0 -47.5 17t-17.5 42z" />
<glyph unicode="&#xb8;" d="M157 -204q-4 8 -3.5 12.5t8.5 10.5q49 35 49 61q0 15 -18 33l-9 9q-7 7 1 17l54 64h44l-29 -35l14 -14q28 -30 28 -52q0 -56 -115 -116q-10 -5 -14.5 -2.5t-9.5 12.5z" />
<glyph unicode="&#xb9;" horiz-adv-x="285" d="M60 403l6 38q2 9 5.5 12t13.5 2h46l40 228l-51 -2q-10 0 -12.5 3t-0.5 12l6 38q1 9 5 12t14 3h120q10 0 12.5 -3t0.5 -12l-48 -279h46q10 1 12.5 -2t0.5 -12l-6 -38q-2 -9 -5.5 -12t-13.5 -3h-178q-10 0 -12.5 3t-0.5 12z" />
<glyph unicode="&#xba;" horiz-adv-x="449" d="M93 465q0 99 55 165t151 66q24 0 46 -5t45.5 -18.5t37.5 -42.5t14 -71q0 -99 -56.5 -166t-154.5 -67q-65 0 -101.5 36t-36.5 103zM186 475q0 -87 55 -87q38 0 63.5 32.5t34 68.5t8.5 71q0 77 -63 77q-29 0 -49.5 -16.5t-30.5 -43t-14 -51.5t-4 -51z" />
<glyph unicode="&#xbb;" horiz-adv-x="493" d="M39 97l131 192l-61 188q-3 9 -0.5 12t11.5 3h66q16 0 21 -15l56 -173q5 -14 -4 -28l-124 -179q-8 -13 -25 -13h-64q-17 0 -7 13zM205 97l131 192l-61 188q-3 9 -0.5 12t11.5 3h66q16 0 21 -15l56 -173q5 -14 -4 -28l-124 -179q-8 -13 -25 -13h-64q-17 0 -7 13z" />
<glyph unicode="&#xbc;" horiz-adv-x="900" d="M89 296l6 38q2 9 5.5 12t13.5 2h46l40 228l-51 -2q-10 0 -12.5 3t-0.5 12l6 38q2 15 19 15h120q10 0 12.5 -3t0.5 -12l-48 -279h46q10 1 12.5 -2t0.5 -12l-6 -38q-2 -9 -5.5 -12t-13.5 -3h-178q-10 0 -12.5 3t-0.5 12zM202 -4l438 670q8 13 25 13h48q17 0 7 -13 l-440 -670q-8 -13 -25 -13h-46q-17 0 -7 13zM477 88l3 27q2 13 13 27l172 207q10 12 26 12h65q10 0 12.5 -3t0.5 -12l-37 -215h49q10 0 12.5 -3t1.5 -12l-5 -28q-2 -15 -18 -15h-49l-11 -58q-2 -15 -19 -15h-52q-10 0 -12.5 3t-0.5 12l11 58h-149q-10 0 -12.5 3t-0.5 12z M547 131h101l26 152z" />
<glyph unicode="&#xbd;" horiz-adv-x="900" d="M79 296l6 38q2 9 5.5 12t13.5 2h46l40 228l-51 -2q-10 0 -12.5 3t-0.5 12l6 38q2 15 19 15h120q10 0 12.5 -3t0.5 -12l-48 -279h46q10 1 12.5 -2t0.5 -12l-6 -38q-2 -9 -5.5 -12t-13.5 -3h-178q-10 0 -12.5 3t-0.5 12zM174 -4l438 670q8 13 25 13h48q17 0 7 -13 l-440 -670q-8 -13 -25 -13h-46q-17 0 -7 13zM483 15l4 28q2 15 17 22q205 104 205 192q0 49 -53 49q-57 0 -72 -51q-5 -15 -21 -15h-39q-9 0 -11.5 3t-0.5 12q12 58 55 87t105 29q57 0 91 -29.5t34 -78.5q0 -63 -54 -109t-146 -89h165q10 0 12.5 -3t0.5 -12l-4 -35 q-1 -9 -5 -12t-14 -3h-256q-10 0 -12.5 3t-0.5 12z" />
<glyph unicode="&#xbe;" horiz-adv-x="900" d="M69 368q0 10 3 13t13 3h38q10 0 13 -3t3 -13q2 -45 57 -45q36 0 58 17t22 48q0 18 -7.5 29t-24.5 15.5t-30 5.5t-37 1q-10 0 -12.5 3t-0.5 13l3 21q2 10 5.5 13t13.5 3q35 0 47 2q63 6 63 60q0 40 -55 40q-53 0 -67 -44q-5 -15 -21 -15h-30q-9 0 -11.5 3t-0.5 12 q11 53 52 77.5t96 24.5q56 0 86.5 -23.5t30.5 -63.5q0 -68 -81 -97q23 -5 41.5 -24.5t18.5 -52.5q0 -58 -44.5 -91.5t-117.5 -33.5q-63 0 -94 25.5t-30 76.5zM232 -4l438 670q8 13 25 13h48q17 0 7 -13l-440 -670q-8 -13 -25 -13h-46q-17 0 -7 13zM507 88l3 27q2 13 13 27 l172 207q10 12 26 12h65q10 0 12.5 -3t0.5 -12l-37 -215h49q10 0 12.5 -3t1.5 -12l-5 -28q-2 -15 -18 -15h-49l-11 -58q-2 -15 -19 -15h-52q-10 0 -12.5 3t-0.5 12l11 58h-149q-10 0 -12.5 3t-0.5 12zM577 131h101l26 152z" />
<glyph unicode="&#xbf;" horiz-adv-x="465" d="M-8 -43q0 170 227 230l23 134q2 15 19 15h54q10 0 12.5 -3t0.5 -12l-31 -183q-2 -15 -18 -19q-81 -16 -128.5 -50.5t-47.5 -105.5q0 -39 21.5 -63t65.5 -24q46 0 72.5 21t35.5 68q2 9 5.5 12t13.5 3h59q9 0 11.5 -3t1.5 -13q-11 -82 -68.5 -124t-146.5 -42 q-88 0 -135 40.5t-47 118.5zM234 440q0 33 22.5 53t57.5 20q28 0 44 -15.5t16 -38.5q0 -33 -22 -53t-56 -20q-28 0 -45 15.5t-17 38.5z" />
<glyph unicode="&#xc0;" horiz-adv-x="696" d="M-34 15l9 50q2 9 5.5 12t13.5 2h61l302 586q8 14 23 14h86q16 0 18 -15l89 -568q3 -20 8 -28t17 -8q13 0 31 7q15 6 22 -8l7 -15q6 -14 -7 -22q-51 -34 -104 -34q-42 0 -58 20t-24 65l-26 141h-223l-69 -135h62q10 1 12.5 -2t0.5 -12l-10 -50q-2 -15 -19 -15h-214 q-10 0 -12.5 3t-0.5 12zM251 289h179l-40 275zM341 844q-7 14 9 14h66q16 0 20 -15l26 -96q2 -9 0 -12t-12 -3h-36q-15 0 -23 14z" />
<glyph unicode="&#xc1;" horiz-adv-x="696" d="M-34 15l9 50q2 9 5.5 12t13.5 2h61l302 586q8 14 23 14h86q16 0 18 -15l89 -568q3 -20 8 -28t17 -8q13 0 31 7q15 6 22 -8l7 -15q6 -14 -7 -22q-51 -34 -104 -34q-42 0 -58 20t-24 65l-26 141h-223l-69 -135h62q10 1 12.5 -2t0.5 -12l-10 -50q-2 -15 -19 -15h-214 q-10 0 -12.5 3t-0.5 12zM251 289h179l-40 275zM374 746l62 98q8 14 24 14h81q15 0 3 -12l-87 -102q-11 -12 -26 -12h-51q-14 0 -6 14z" />
<glyph unicode="&#xc2;" horiz-adv-x="696" d="M-34 15l9 50q2 9 5.5 12t13.5 2h61l302 586q8 14 23 14h86q16 0 18 -15l89 -568q3 -20 8 -28t17 -8q13 0 31 7q15 6 22 -8l7 -15q6 -14 -7 -22q-51 -34 -104 -34q-42 0 -58 20t-24 65l-26 141h-223l-69 -135h62q10 1 12.5 -2t0.5 -12l-10 -50q-2 -15 -19 -15h-214 q-10 0 -12.5 3t-0.5 12zM251 289h179l-40 275zM273 744l101 107q10 12 26 12h76q14 0 22 -12l63 -107q7 -12 -8 -12h-52q-16 0 -23 12l-45 71l-67 -71q-10 -12 -26 -12h-63q-15 0 -4 12z" />
<glyph unicode="&#xc3;" horiz-adv-x="696" d="M-34 15l9 50q2 9 5.5 12t13.5 2h61l302 586q8 14 23 14h86q16 0 18 -15l89 -568q3 -20 8 -28t17 -8q13 0 31 7q15 6 22 -8l7 -15q6 -14 -7 -22q-51 -34 -104 -34q-42 0 -58 20t-24 65l-26 141h-223l-69 -135h62q10 1 12.5 -2t0.5 -12l-10 -50q-2 -15 -19 -15h-214 q-10 0 -12.5 3t-0.5 12zM251 289h179l-40 275zM253 764q9 53 35 73.5t55 20.5q27 0 89 -20.5t85 -20.5q35 0 39 27q2 13 17 13h24q12 0 10 -14q-13 -99 -94 -99q-33 0 -95 19t-77 19q-30 0 -34 -22q-1 -7 -3 -8.5t-10 -1.5h-31q-13 0 -10 14z" />
<glyph unicode="&#xc4;" horiz-adv-x="696" d="M-34 15l9 50q2 9 5.5 12t13.5 2h61l302 586q8 14 23 14h86q16 0 18 -15l89 -568q3 -20 8 -28t17 -8q13 0 31 7q15 6 22 -8l7 -15q6 -14 -7 -22q-51 -34 -104 -34q-42 0 -58 20t-24 65l-26 141h-223l-69 -135h62q10 1 12.5 -2t0.5 -12l-10 -50q-2 -15 -19 -15h-214 q-10 0 -12.5 3t-0.5 12zM251 289h179l-40 275zM267 791q0 31 19.5 50t51.5 19q25 0 40 -13.5t15 -36.5q0 -31 -19.5 -51.5t-51.5 -20.5q-24 0 -39.5 15t-15.5 38zM470 791q0 31 19 50t52 19q25 0 40 -13.5t15 -36.5q0 -31 -19.5 -51.5t-51.5 -20.5q-24 0 -39.5 15t-15.5 38z " />
<glyph unicode="&#xc5;" horiz-adv-x="696" d="M-34 15l9 50q2 9 5.5 12t13.5 2h61l302 586q8 14 23 14h86q16 0 18 -15l89 -568q3 -20 8 -28t17 -8q13 0 31 7q15 6 22 -8l7 -15q6 -14 -7 -22q-51 -34 -104 -34q-42 0 -58 20t-24 65l-26 141h-223l-69 -135h62q10 1 12.5 -2t0.5 -12l-10 -50q-2 -15 -19 -15h-214 q-10 0 -12.5 3t-0.5 12zM251 289h179l-40 275zM334 807q0 42 28.5 71t71.5 29q45 0 72 -28t27 -67q0 -46 -28 -76t-73 -30q-46 0 -72 29t-26 72zM392 807q0 -21 11 -35t31 -14t31.5 14t11.5 35q0 22 -11.5 35t-31.5 13q-42 0 -42 -48z" />
<glyph unicode="&#xc6;" horiz-adv-x="903" d="M-36 15l8 50q2 9 5.5 12t13.5 2h50l368 519h-51q-10 -1 -12.5 2t-0.5 12l8 52q2 9 5.5 12t13.5 3h530q10 0 12.5 -3t0.5 -12l-23 -134q-2 -15 -19 -15h-54q-10 0 -12 3t0 12l16 69h-209l-37 -213h193q10 0 12.5 -3t0.5 -12l-9 -48q-2 -15 -19 -15h-192l-41 -229h229l9 69 q2 10 5 13t13 3h54q10 0 12.5 -3t0.5 -12l-23 -134q-2 -15 -19 -15h-458q-10 0 -12.5 3t-0.5 12l8 50q2 9 5.5 12t13.5 2h52l23 135h-198l-94 -135h55q10 1 12.5 -2t0.5 -12l-8 -50q-2 -9 -5.5 -12t-13.5 -3h-206q-10 0 -12.5 3t-0.5 12zM284 289h164l54 310z" />
<glyph unicode="&#xc7;" horiz-adv-x="632" d="M50 272q0 43 7.5 85.5t23 84.5t38 79.5t54.5 69.5t70 55.5t86.5 36.5t103.5 13q50 0 105.5 -14.5t95.5 -37.5q8 -5 10 -9t0 -14l-22 -125q-1 -6 -3 -9t-5.5 -4.5t-10.5 -1.5h-54q-10 0 -12.5 3t-0.5 12l16 71q-12 9 -28 17.5t-45 16t-59 7.5q-39 0 -72.5 -10t-58.5 -27.5 t-45 -42.5t-33 -53t-22 -61t-12.5 -65.5t-3.5 -66.5q0 -95 44 -150.5t138 -55.5q82 0 116 29l9 65q2 10 5 13t13 3h55q10 0 12.5 -3t0.5 -12l-22 -125q-2 -10 -5.5 -14t-11.5 -8q-72 -32 -170 -36l-16 -20l14 -14q28 -30 28 -52q0 -56 -115 -116q-10 -5 -14.5 -2.5 t-9.5 12.5q-7 13 5 23q49 35 49 61q0 15 -18 33l-9 9q-7 7 1 17l42 50q-134 7 -199 80.5t-65 202.5z" />
<glyph unicode="&#xc8;" horiz-adv-x="564" d="M-7 15l8 50q2 9 5.5 12t13.5 2h52l90 519h-52q-10 -1 -12.5 2t-0.5 12l9 52q2 15 19 15h438q10 0 12.5 -3t0.5 -12l-23 -134q-1 -9 -5 -12t-14 -3h-54q-10 0 -12.5 3t-0.5 12l16 69h-207l-38 -213h193q10 0 12.5 -3t0.5 -12l-8 -48q-2 -15 -19 -15h-192l-41 -229h229 l9 69q2 10 5 13t13 3h54q10 0 12.5 -3t0.5 -12l-24 -134q-1 -9 -5 -12t-14 -3h-458q-10 0 -12.5 3t-0.5 12zM285 844q-7 14 9 14h66q16 0 20 -15l26 -96q2 -9 0 -12t-12 -3h-36q-15 0 -23 14z" />
<glyph unicode="&#xc9;" horiz-adv-x="564" d="M-7 15l8 50q2 9 5.5 12t13.5 2h52l90 519h-52q-10 -1 -12.5 2t-0.5 12l9 52q2 15 19 15h438q10 0 12.5 -3t0.5 -12l-23 -134q-1 -9 -5 -12t-14 -3h-54q-10 0 -12.5 3t-0.5 12l16 69h-207l-38 -213h193q10 0 12.5 -3t0.5 -12l-8 -48q-2 -15 -19 -15h-192l-41 -229h229 l9 69q2 10 5 13t13 3h54q10 0 12.5 -3t0.5 -12l-24 -134q-1 -9 -5 -12t-14 -3h-458q-10 0 -12.5 3t-0.5 12zM303 746l62 98q8 14 24 14h81q15 0 3 -12l-87 -102q-10 -12 -26 -12h-51q-14 0 -6 14z" />
<glyph unicode="&#xca;" horiz-adv-x="564" d="M-7 15l8 50q2 9 5.5 12t13.5 2h52l90 519h-52q-10 -1 -12.5 2t-0.5 12l9 52q2 15 19 15h438q10 0 12.5 -3t0.5 -12l-23 -134q-1 -9 -5 -12t-14 -3h-54q-10 0 -12.5 3t-0.5 12l16 69h-207l-38 -213h193q10 0 12.5 -3t0.5 -12l-8 -48q-2 -15 -19 -15h-192l-41 -229h229 l9 69q2 10 5 13t13 3h54q10 0 12.5 -3t0.5 -12l-24 -134q-1 -9 -5 -12t-14 -3h-458q-10 0 -12.5 3t-0.5 12zM221 744l101 107q10 12 26 12h76q14 0 22 -12l63 -107q7 -12 -8 -12h-52q-16 0 -23 12l-45 71l-67 -71q-10 -12 -26 -12h-63q-15 0 -4 12z" />
<glyph unicode="&#xcb;" horiz-adv-x="564" d="M-7 15l8 50q2 9 5.5 12t13.5 2h52l90 519h-52q-10 -1 -12.5 2t-0.5 12l9 52q2 15 19 15h438q10 0 12.5 -3t0.5 -12l-23 -134q-1 -9 -5 -12t-14 -3h-54q-10 0 -12.5 3t-0.5 12l16 69h-207l-38 -213h193q10 0 12.5 -3t0.5 -12l-8 -48q-2 -15 -19 -15h-192l-41 -229h229 l9 69q2 10 5 13t13 3h54q10 0 12.5 -3t0.5 -12l-24 -134q-1 -9 -5 -12t-14 -3h-458q-10 0 -12.5 3t-0.5 12zM206 791q0 31 19 50t52 19q25 0 40 -13.5t15 -36.5q0 -31 -19.5 -51.5t-51.5 -20.5q-24 0 -39.5 15t-15.5 38zM409 791q0 31 19.5 50t51.5 19q25 0 40 -13.5 t15 -36.5q0 -31 -19.5 -51.5t-51.5 -20.5q-24 0 -39.5 15t-15.5 38z" />
<glyph unicode="&#xcc;" horiz-adv-x="327" d="M-6 15l8 50q2 9 5.5 12t13.5 2h51l90 519h-51q-10 -1 -12.5 2t-0.5 12l8 52q2 9 5.5 12t13.5 3h216q10 0 12.5 -3t0.5 -12l-8 -52q-2 -9 -5.5 -12t-13.5 -2h-52l-91 -519h52q10 1 12.5 -2t0.5 -12l-8 -50q-2 -9 -5.5 -12t-13.5 -3h-215q-10 0 -12.5 3t-0.5 12zM168 844 q-7 14 9 14h66q16 0 20 -15l26 -96q2 -9 0 -12t-12 -3h-36q-15 0 -23 14z" />
<glyph unicode="&#xcd;" horiz-adv-x="327" d="M-6 15l8 50q2 9 5.5 12t13.5 2h51l90 519h-51q-10 -1 -12.5 2t-0.5 12l8 52q2 9 5.5 12t13.5 3h216q10 0 12.5 -3t0.5 -12l-8 -52q-2 -9 -5.5 -12t-13.5 -2h-52l-91 -519h52q10 1 12.5 -2t0.5 -12l-8 -50q-2 -9 -5.5 -12t-13.5 -3h-215q-10 0 -12.5 3t-0.5 12zM200 746 l62 98q8 14 24 14h81q15 0 3 -12l-87 -102q-11 -12 -26 -12h-51q-14 0 -6 14z" />
<glyph unicode="&#xce;" horiz-adv-x="327" d="M-6 15l8 50q2 9 5.5 12t13.5 2h51l90 519h-51q-10 -1 -12.5 2t-0.5 12l8 52q2 9 5.5 12t13.5 3h216q10 0 12.5 -3t0.5 -12l-8 -52q-2 -9 -5.5 -12t-13.5 -2h-52l-91 -519h52q10 1 12.5 -2t0.5 -12l-8 -50q-2 -9 -5.5 -12t-13.5 -3h-215q-10 0 -12.5 3t-0.5 12zM99 744 l101 107q10 12 26 12h76q14 0 22 -12l63 -107q7 -12 -8 -12h-52q-16 0 -23 12l-45 71l-67 -71q-10 -12 -26 -12h-63q-15 0 -4 12z" />
<glyph unicode="&#xcf;" horiz-adv-x="327" d="M-6 15l8 50q2 9 5.5 12t13.5 2h51l90 519h-51q-10 -1 -12.5 2t-0.5 12l8 52q2 9 5.5 12t13.5 3h216q10 0 12.5 -3t0.5 -12l-8 -52q-2 -9 -5.5 -12t-13.5 -2h-52l-91 -519h52q10 1 12.5 -2t0.5 -12l-8 -50q-2 -9 -5.5 -12t-13.5 -3h-215q-10 0 -12.5 3t-0.5 12zM92 791 q0 31 19 50t52 19q25 0 40 -13.5t15 -36.5q0 -31 -19.5 -51.5t-51.5 -20.5q-24 0 -39.5 15t-15.5 38zM295 791q0 31 19.5 50t51.5 19q25 0 40 -13.5t15 -36.5q0 -31 -19.5 -51.5t-51.5 -20.5q-24 0 -39.5 15t-15.5 38z" />
<glyph unicode="&#xd0;" horiz-adv-x="689" d="M52 329l3 23q2 9 5.5 12t13.5 3h50l41 231h-52q-10 -1 -12.5 2t-0.5 12l9 52q2 15 19 16q190 5 221 5q55 0 104.5 -12t98.5 -39.5t78.5 -83t29.5 -132.5q0 -191 -115 -304.5t-329 -113.5h-139q-10 0 -12.5 3t-0.5 12l51 299h-50q-10 0 -12.5 3t-0.5 12zM187 79h66 q74 0 130.5 27t89 73t48.5 101.5t16 118.5q0 106 -49 154.5t-146 48.5h-64l-41 -235h153q10 0 12.5 -3t0.5 -12l-3 -23q-2 -9 -5.5 -12t-13.5 -3h-153z" />
<glyph unicode="&#xd1;" horiz-adv-x="743" d="M-7 15l9 50q2 9 5.5 12t13.5 2h52l89 519h-52q-10 -1 -12.5 2t-0.5 12l9 52q2 15 19 15h142q15 0 23 -14l244 -504l80 437h-50q-10 -1 -12.5 2t-0.5 12l8 52q2 9 5.5 12t13.5 3h188q10 0 12.5 -3t0.5 -12l-8 -52q-2 -9 -5.5 -12t-13.5 -2h-51l-103 -583q-2 -15 -19 -15 h-71q-15 0 -23 14l-249 505l-77 -440h81q10 1 12.5 -2t0.5 -12l-8 -50q-2 -9 -5.5 -12t-13.5 -3h-220q-10 0 -12.5 3t-0.5 12zM283 764q9 53 35 73.5t55 20.5q27 0 89 -20.5t85 -20.5q35 0 39 27q2 13 17 13h24q12 0 10 -14q-13 -99 -94 -99q-32 0 -94.5 19t-77.5 19 q-30 0 -34 -22q-1 -7 -3 -8.5t-10 -1.5h-31q-13 0 -10 14z" />
<glyph unicode="&#xd2;" horiz-adv-x="706" d="M48 255q0 118 43 217t129.5 161.5t200.5 62.5q34 0 67 -7t68.5 -25.5t61.5 -47.5t43 -78t17 -112q0 -185 -103.5 -311.5t-278.5 -126.5q-117 0 -182.5 72.5t-65.5 194.5zM171 270q0 -80 33.5 -134t112.5 -54q54 0 96 22.5t67.5 57t42.5 80.5t23 89t6 87q0 89 -36 139.5 t-111 50.5q-46 0 -83.5 -15.5t-62 -43t-42.5 -60.5t-27.5 -72.5t-14 -75t-4.5 -71.5zM362 844q-7 14 9 14h66q16 0 20 -15l26 -96q2 -9 0 -12t-12 -3h-36q-15 0 -23 14z" />
<glyph unicode="&#xd3;" horiz-adv-x="706" d="M48 255q0 118 43 217t129.5 161.5t200.5 62.5q34 0 67 -7t68.5 -25.5t61.5 -47.5t43 -78t17 -112q0 -185 -103.5 -311.5t-278.5 -126.5q-117 0 -182.5 72.5t-65.5 194.5zM171 270q0 -80 33.5 -134t112.5 -54q54 0 96 22.5t67.5 57t42.5 80.5t23 89t6 87q0 89 -36 139.5 t-111 50.5q-46 0 -83.5 -15.5t-62 -43t-42.5 -60.5t-27.5 -72.5t-14 -75t-4.5 -71.5zM376 746l62 98q8 14 24 14h81q15 0 3 -12l-87 -102q-11 -12 -26 -12h-51q-14 0 -6 14z" />
<glyph unicode="&#xd4;" horiz-adv-x="706" d="M48 255q0 118 43 217t129.5 161.5t200.5 62.5q34 0 67 -7t68.5 -25.5t61.5 -47.5t43 -78t17 -112q0 -185 -103.5 -311.5t-278.5 -126.5q-117 0 -182.5 72.5t-65.5 194.5zM171 270q0 -80 33.5 -134t112.5 -54q54 0 96 22.5t67.5 57t42.5 80.5t23 89t6 87q0 89 -36 139.5 t-111 50.5q-46 0 -83.5 -15.5t-62 -43t-42.5 -60.5t-27.5 -72.5t-14 -75t-4.5 -71.5zM294 744l101 107q11 12 26 12h76q15 0 22 -12l63 -107q8 -12 -8 -12h-52q-16 0 -23 12l-45 71l-67 -71q-11 -12 -26 -12h-63q-14 0 -4 12z" />
<glyph unicode="&#xd5;" horiz-adv-x="706" d="M48 255q0 118 43 217t129.5 161.5t200.5 62.5q34 0 67 -7t68.5 -25.5t61.5 -47.5t43 -78t17 -112q0 -185 -103.5 -311.5t-278.5 -126.5q-117 0 -182.5 72.5t-65.5 194.5zM171 270q0 -80 33.5 -134t112.5 -54q54 0 96 22.5t67.5 57t42.5 80.5t23 89t6 87q0 89 -36 139.5 t-111 50.5q-46 0 -83.5 -15.5t-62 -43t-42.5 -60.5t-27.5 -72.5t-14 -75t-4.5 -71.5zM269 764q9 53 35 73.5t55 20.5q27 0 89 -20.5t85 -20.5q35 0 39 27q2 13 17 13h24q12 0 10 -14q-13 -99 -94 -99q-32 0 -94.5 19t-77.5 19q-30 0 -34 -22q-1 -7 -3 -8.5t-10 -1.5h-31 q-13 0 -10 14z" />
<glyph unicode="&#xd6;" horiz-adv-x="706" d="M48 255q0 118 43 217t129.5 161.5t200.5 62.5q34 0 67 -7t68.5 -25.5t61.5 -47.5t43 -78t17 -112q0 -185 -103.5 -311.5t-278.5 -126.5q-117 0 -182.5 72.5t-65.5 194.5zM171 270q0 -80 33.5 -134t112.5 -54q54 0 96 22.5t67.5 57t42.5 80.5t23 89t6 87q0 89 -36 139.5 t-111 50.5q-46 0 -83.5 -15.5t-62 -43t-42.5 -60.5t-27.5 -72.5t-14 -75t-4.5 -71.5zM286 791q0 31 19 50t52 19q25 0 40 -13.5t15 -36.5q0 -31 -19.5 -51.5t-51.5 -20.5q-24 0 -39.5 15t-15.5 38zM489 791q0 31 19.5 50t51.5 19q25 0 40 -13.5t15 -36.5q0 -31 -19.5 -51.5 t-51.5 -20.5q-24 0 -39.5 15t-15.5 38z" />
<glyph unicode="&#xd7;" horiz-adv-x="530" d="M69 149q-10 12 2 22l148 125l-99 119q-10 12 2 22l31 27q12 10 22 -2l98 -119l156 133q12 10 22 -2l22 -29q10 -12 -2 -22l-157 -131l111 -134q10 -12 -2 -22l-31 -27q-12 -10 -22 2l-110 134l-148 -125q-12 -10 -22 2z" />
<glyph unicode="&#xd8;" horiz-adv-x="706" d="M48 255q0 118 43 217t129.5 161.5t200.5 62.5q35 0 74 -9l30 58q8 14 23 14h46q16 0 9 -14l-44 -83q119 -68 119 -236q0 -185 -103.5 -311.5t-278.5 -126.5q-46 0 -84 12l-37 -71q-8 -14 -23 -14h-45q-16 0 -9 14l52 99q-102 69 -102 227zM171 270q0 -88 34 -136l245 469 q-20 6 -45 6q-54 0 -97 -23t-68 -58t-41 -81.5t-22 -89.5t-6 -87zM260 91q24 -9 57 -9q54 0 96 22.5t67.5 57t42.5 80.5t23 89t6 87q0 98 -43 148z" />
<glyph unicode="&#xd9;" horiz-adv-x="721" d="M83 170q0 33 8 79l61 349h-53q-10 -1 -12.5 2t-0.5 12l9 52q1 9 5 12t14 3h216q10 0 12.5 -3t0.5 -12l-9 -52q-2 -9 -5.5 -12t-13.5 -2h-51l-56 -314q-10 -55 -10 -91q0 -56 30 -85.5t107 -29.5q86 0 130 44.5t60 139.5l58 336h-53q-10 -1 -12.5 2t-0.5 12l9 52 q2 15 19 15h200q10 0 12.5 -3t0.5 -12l-9 -52q-2 -9 -5.5 -12t-13.5 -2h-51l-64 -361q-10 -55 -27.5 -96.5t-50.5 -78t-88.5 -55.5t-131.5 -19q-124 0 -179 45.5t-55 136.5zM358 844q-7 14 9 14h66q16 0 20 -15l26 -96q2 -9 0 -12t-12 -3h-36q-15 0 -23 14z" />
<glyph unicode="&#xda;" horiz-adv-x="721" d="M83 170q0 33 8 79l61 349h-53q-10 -1 -12.5 2t-0.5 12l9 52q1 9 5 12t14 3h216q10 0 12.5 -3t0.5 -12l-9 -52q-2 -9 -5.5 -12t-13.5 -2h-51l-56 -314q-10 -55 -10 -91q0 -56 30 -85.5t107 -29.5q86 0 130 44.5t60 139.5l58 336h-53q-10 -1 -12.5 2t-0.5 12l9 52 q2 15 19 15h200q10 0 12.5 -3t0.5 -12l-9 -52q-2 -9 -5.5 -12t-13.5 -2h-51l-64 -361q-10 -55 -27.5 -96.5t-50.5 -78t-88.5 -55.5t-131.5 -19q-124 0 -179 45.5t-55 136.5zM402 746l62 98q8 14 24 14h81q15 0 3 -12l-87 -102q-11 -12 -26 -12h-51q-14 0 -6 14z" />
<glyph unicode="&#xdb;" horiz-adv-x="721" d="M83 170q0 33 8 79l61 349h-53q-10 -1 -12.5 2t-0.5 12l9 52q1 9 5 12t14 3h216q10 0 12.5 -3t0.5 -12l-9 -52q-2 -9 -5.5 -12t-13.5 -2h-51l-56 -314q-10 -55 -10 -91q0 -56 30 -85.5t107 -29.5q86 0 130 44.5t60 139.5l58 336h-53q-10 -1 -12.5 2t-0.5 12l9 52 q2 15 19 15h200q10 0 12.5 -3t0.5 -12l-9 -52q-2 -9 -5.5 -12t-13.5 -2h-51l-64 -361q-10 -55 -27.5 -96.5t-50.5 -78t-88.5 -55.5t-131.5 -19q-124 0 -179 45.5t-55 136.5zM302 744l101 107q11 12 26 12h76q15 0 22 -12l63 -107q8 -12 -8 -12h-52q-16 0 -23 12l-45 71 l-67 -71q-11 -12 -26 -12h-63q-14 0 -4 12z" />
<glyph unicode="&#xdc;" horiz-adv-x="721" d="M83 170q0 33 8 79l61 349h-53q-10 -1 -12.5 2t-0.5 12l9 52q1 9 5 12t14 3h216q10 0 12.5 -3t0.5 -12l-9 -52q-2 -9 -5.5 -12t-13.5 -2h-51l-56 -314q-10 -55 -10 -91q0 -56 30 -85.5t107 -29.5q86 0 130 44.5t60 139.5l58 336h-53q-10 -1 -12.5 2t-0.5 12l9 52 q2 15 19 15h200q10 0 12.5 -3t0.5 -12l-9 -52q-2 -9 -5.5 -12t-13.5 -2h-51l-64 -361q-10 -55 -27.5 -96.5t-50.5 -78t-88.5 -55.5t-131.5 -19q-124 0 -179 45.5t-55 136.5zM296 791q0 31 19 50t52 19q25 0 40 -13.5t15 -36.5q0 -31 -19.5 -51.5t-51.5 -20.5q-24 0 -39.5 15 t-15.5 38zM499 791q0 31 19.5 50t51.5 19q25 0 40 -13.5t15 -36.5q0 -31 -19.5 -51.5t-51.5 -20.5q-24 0 -39.5 15t-15.5 38z" />
<glyph unicode="&#xdd;" horiz-adv-x="664" d="M79 612l10 52q1 9 5 12t14 3h236q10 0 12.5 -3t0.5 -12l-8 -52q-2 -9 -5.5 -12t-13.5 -2h-53l79 -238l169 238h-56q-10 -1 -12.5 2t-0.5 12l10 52q2 15 19 15h205q10 0 12.5 -3t0.5 -12l-9 -52q-2 -9 -5.5 -12t-13.5 -2h-51l-236 -328l-33 -191h52q10 1 12.5 -2t0.5 -12 l-8 -50q-2 -9 -5.5 -12t-13.5 -3h-216q-10 0 -12.5 3t-0.5 12l8 50q2 9 5.5 12t13.5 2h52l31 178l-125 341h-57q-10 -1 -12.5 2t-0.5 12zM355 746l62 98q8 14 24 14h81q15 0 3 -12l-87 -102q-10 -12 -26 -12h-51q-14 0 -6 14z" />
<glyph unicode="&#xde;" horiz-adv-x="566" d="M-6 15l8 50q2 9 5.5 12t13.5 2h50l92 519h-52q-10 -1 -12.5 2t-0.5 12l8 52q2 9 5.5 12t13.5 3h216q10 0 12.5 -3t0.5 -12l-8 -52q-2 -9 -5.5 -12t-13.5 -2h-52l-7 -32h50q113 0 173.5 -45.5t60.5 -126.5q0 -116 -82.5 -177.5t-215.5 -61.5q-41 0 -57 2l-14 -78h83 q10 1 12.5 -2t0.5 -12l-8 -50q-2 -9 -5.5 -12t-13.5 -3h-245q-10 0 -12.5 3t-0.5 12zM210 233h34q87 0 139 39t52 118q0 93 -144 93h-37z" />
<glyph unicode="&#xdf;" horiz-adv-x="631" d="M-152 -195l17 40q6 14 21 8q30 -16 63 -16q43 0 57.5 22t25.5 83l114 641q14 74 72.5 125.5t175.5 51.5q79 0 137 -33t58 -94q0 -35 -18.5 -66t-45 -53t-52.5 -41.5t-44.5 -41.5t-18.5 -44q0 -23 18.5 -43.5t45 -38.5t53.5 -38t45.5 -51t18.5 -68q0 -74 -54.5 -117 t-140.5 -43q-66 0 -124 23q-14 5 -9 20l13 39q5 14 19 9q53 -21 100 -21q85 0 85 65q0 33 -28 60t-61.5 43.5t-61.5 47.5t-28 72q0 37 18 68.5t44 54t52 44t44 47.5t18 54q0 68 -91 68q-60 0 -89.5 -27t-39.5 -83l-115 -645q-6 -37 -15 -61.5t-27.5 -51t-52.5 -40t-84 -13.5 q-61 0 -107 23q-14 7 -8 21z" />
<glyph unicode="&#xe0;" horiz-adv-x="591" d="M30 172q0 60 15 117t45 106.5t82.5 80t120.5 30.5q87 0 135 -61l7 35q1 9 5 12t14 3h70q10 0 12.5 -3t0.5 -12l-68 -383q-6 -28 20 -28q11 0 27 8q15 6 22 -7l9 -16q7 -13 -5 -23q-59 -43 -110 -43q-81 0 -78 81q-58 -81 -159 -81q-79 0 -122 45.5t-43 138.5zM143 186 q0 -56 22.5 -84t75.5 -28q43 0 83 29t48 79l34 186l-1 1q-37 51 -102 52q-45 0 -78 -22.5t-50 -59.5t-24.5 -75t-7.5 -78zM259 717q-3 9 -0.5 12t11.5 3h78q10 0 14 -3t5 -12l22 -122q2 -9 -0.5 -12t-12.5 -3h-50q-16 0 -21 15z" />
<glyph unicode="&#xe1;" horiz-adv-x="591" d="M30 172q0 60 15 117t45 106.5t82.5 80t120.5 30.5q87 0 135 -61l7 35q1 9 5 12t14 3h70q10 0 12.5 -3t0.5 -12l-68 -383q-6 -28 20 -28q11 0 27 8q15 6 22 -7l9 -16q7 -13 -5 -23q-59 -43 -110 -43q-81 0 -78 81q-58 -81 -159 -81q-79 0 -122 45.5t-43 138.5zM143 186 q0 -56 22.5 -84t75.5 -28q43 0 83 29t48 79l34 186l-1 1q-37 51 -102 52q-45 0 -78 -22.5t-50 -59.5t-24.5 -75t-7.5 -78zM294 598l63 116q8 18 28 18h75q19 0 7 -17l-86 -118q-11 -17 -31 -17h-46q-11 0 -13 4t3 14z" />
<glyph unicode="&#xe2;" horiz-adv-x="591" d="M30 172q0 60 15 117t45 106.5t82.5 80t120.5 30.5q87 0 135 -61l7 35q1 9 5 12t14 3h70q10 0 12.5 -3t0.5 -12l-68 -383q-6 -28 20 -28q11 0 27 8q15 6 22 -7l9 -16q7 -13 -5 -23q-59 -43 -110 -43q-81 0 -78 81q-58 -81 -159 -81q-79 0 -122 45.5t-43 138.5zM143 186 q0 -56 22.5 -84t75.5 -28q43 0 83 29t48 79l34 186l-1 1q-37 51 -102 52q-45 0 -78 -22.5t-50 -59.5t-24.5 -75t-7.5 -78zM193 593l107 135q12 13 26 13h76q14 0 20 -13l61 -135q6 -13 -10 -13h-54q-15 0 -21 12l-43 85l-68 -84q-12 -13 -26 -13h-64q-16 0 -4 13z" />
<glyph unicode="&#xe3;" horiz-adv-x="591" d="M30 172q0 60 15 117t45 106.5t82.5 80t120.5 30.5q87 0 135 -61l7 35q1 9 5 12t14 3h70q10 0 12.5 -3t0.5 -12l-68 -383q-6 -28 20 -28q11 0 27 8q15 6 22 -7l9 -16q7 -13 -5 -23q-59 -43 -110 -43q-81 0 -78 81q-58 -81 -159 -81q-79 0 -122 45.5t-43 138.5zM143 186 q0 -56 22.5 -84t75.5 -28q43 0 83 29t48 79l34 186l-1 1q-37 51 -102 52q-45 0 -78 -22.5t-50 -59.5t-24.5 -75t-7.5 -78zM170 618q9 53 35 73.5t55 20.5q27 0 89 -20.5t85 -20.5q32 0 36 27q2 13 17 13h27q12 0 10 -14q-14 -99 -94 -99q-32 0 -96 19.5t-78 19.5 q-27 0 -32 -23q-1 -7 -3 -8.5t-10 -1.5h-31q-13 0 -10 14z" />
<glyph unicode="&#xe4;" horiz-adv-x="591" d="M30 172q0 60 15 117t45 106.5t82.5 80t120.5 30.5q87 0 135 -61l7 35q1 9 5 12t14 3h70q10 0 12.5 -3t0.5 -12l-68 -383q-6 -28 20 -28q11 0 27 8q15 6 22 -7l9 -16q7 -13 -5 -23q-59 -43 -110 -43q-81 0 -78 81q-58 -81 -159 -81q-79 0 -122 45.5t-43 138.5zM143 186 q0 -56 22.5 -84t75.5 -28q43 0 83 29t48 79l34 186l-1 1q-37 51 -102 52q-45 0 -78 -22.5t-50 -59.5t-24.5 -75t-7.5 -78zM187 647q0 31 19.5 50t51.5 19q25 0 40 -13.5t15 -36.5q0 -31 -19.5 -51.5t-51.5 -20.5q-24 0 -39.5 15t-15.5 38zM390 647q0 31 19 50t52 19 q25 0 40 -13.5t15 -36.5q0 -31 -19.5 -51.5t-51.5 -20.5q-24 0 -39.5 15t-15.5 38z" />
<glyph unicode="&#xe5;" horiz-adv-x="591" d="M30 172q0 60 15 117t45 106.5t82.5 80t120.5 30.5q87 0 135 -61l7 35q1 9 5 12t14 3h70q10 0 12.5 -3t0.5 -12l-68 -383q-6 -28 20 -28q11 0 27 8q15 6 22 -7l9 -16q7 -13 -5 -23q-59 -43 -110 -43q-81 0 -78 81q-58 -81 -159 -81q-79 0 -122 45.5t-43 138.5zM143 186 q0 -56 22.5 -84t75.5 -28q43 0 83 29t48 79l34 186l-1 1q-37 51 -102 52q-45 0 -78 -22.5t-50 -59.5t-24.5 -75t-7.5 -78zM245 666q0 42 28.5 71t71.5 29q45 0 72 -28t27 -67q0 -46 -28 -76t-73 -30q-46 0 -72 29t-26 72zM303 666q0 -21 11 -35t31 -14t31.5 14t11.5 35 q0 22 -11.5 35t-31.5 13q-42 0 -42 -48z" />
<glyph unicode="&#xe6;" horiz-adv-x="828" d="M25 177q0 60 15 117t45 106.5t83 80t121 30.5q80 0 126 -62l9 47q2 15 19 15h68q10 0 12.5 -3t0.5 -12l-10 -50q56 65 147 65q72 0 111 -37t39 -96q-1 -90 -74 -131t-177 -41q-24 0 -64 4q-1 -8 -1 -25q0 -52 27.5 -82.5t83.5 -30.5q64 0 121 34q14 7 21 -6l17 -31 q8 -13 -4 -23q-80 -58 -184 -58q-143 0 -184 110q-72 -110 -198 -110q-79 0 -124.5 47.5t-45.5 141.5zM138 191q0 -60 22.5 -89t75.5 -29q43 0 83 29.5t48 79.5l36 194l-1 1q-37 51 -102 52q-45 0 -78.5 -23.5t-50.5 -61.5t-25 -76t-8 -77zM504 284q20 -4 38 -4 q57 0 104 23.5t47 69.5q0 51 -61 51q-52 0 -85 -40t-43 -100z" />
<glyph unicode="&#xe7;" horiz-adv-x="472" d="M26 192q0 59 17 114.5t49.5 102t87.5 74.5t123 28q89 0 127.5 -45.5t31.5 -125.5q-1 -7 -2.5 -10t-5 -4.5t-9.5 -1.5h-53q-9 0 -12 3t-3 13q2 44 -20.5 63.5t-65.5 19.5q-42 0 -72.5 -21t-46.5 -56t-23 -72.5t-7 -77.5q0 -125 118 -125q53 0 113 34q13 8 21 -6l16 -31 q5 -8 4 -12.5t-9 -9.5q-67 -49 -153 -56l-18 -22l14 -14q28 -30 28 -52q0 -56 -115 -116q-10 -5 -14.5 -2.5t-9.5 12.5q-7 13 5 23q49 35 49 61q0 15 -18 33l-9 9q-7 7 1 17l41 49q-90 4 -135 58.5t-45 145.5z" />
<glyph unicode="&#xe8;" horiz-adv-x="473" d="M25 185q0 59 17.5 115t50 102.5t87 75t121.5 28.5q76 0 116 -36.5t40 -96.5q-1 -90 -74 -131t-177 -41q-24 0 -64 4q-1 -8 -1 -22q0 -50 27.5 -80.5t83.5 -30.5q64 0 121 34q14 7 21 -6l17 -31q8 -13 -4 -23q-80 -58 -184 -58q-102 0 -150 52.5t-48 144.5zM150 279 q20 -4 38 -4q63 0 108.5 23t45.5 70q0 25 -17.5 38.5t-46.5 13.5q-52 0 -85 -40t-43 -101zM217 717q-3 9 -0.5 12t11.5 3h78q10 0 14 -3t5 -12l22 -122q2 -9 -0.5 -12t-12.5 -3h-50q-16 0 -21 15z" />
<glyph unicode="&#xe9;" horiz-adv-x="473" d="M25 185q0 59 17.5 115t50 102.5t87 75t121.5 28.5q76 0 116 -36.5t40 -96.5q-1 -90 -74 -131t-177 -41q-24 0 -64 4q-1 -8 -1 -22q0 -50 27.5 -80.5t83.5 -30.5q64 0 121 34q14 7 21 -6l17 -31q8 -13 -4 -23q-80 -58 -184 -58q-102 0 -150 52.5t-48 144.5zM150 279 q20 -4 38 -4q63 0 108.5 23t45.5 70q0 25 -17.5 38.5t-46.5 13.5q-52 0 -85 -40t-43 -101zM257 598l63 116q8 18 28 18h75q19 0 7 -17l-86 -118q-11 -17 -31 -17h-46q-11 0 -13 4t3 14z" />
<glyph unicode="&#xea;" horiz-adv-x="473" d="M25 185q0 59 17.5 115t50 102.5t87 75t121.5 28.5q76 0 116 -36.5t40 -96.5q-1 -90 -74 -131t-177 -41q-24 0 -64 4q-1 -8 -1 -22q0 -50 27.5 -80.5t83.5 -30.5q64 0 121 34q14 7 21 -6l17 -31q8 -13 -4 -23q-80 -58 -184 -58q-102 0 -150 52.5t-48 144.5zM150 279 q20 -4 38 -4q63 0 108.5 23t45.5 70q0 25 -17.5 38.5t-46.5 13.5q-52 0 -85 -40t-43 -101zM164 593l107 135q12 13 26 13h76q14 0 20 -13l61 -135q6 -13 -10 -13h-54q-15 0 -21 12l-43 85l-68 -84q-12 -13 -26 -13h-64q-16 0 -4 13z" />
<glyph unicode="&#xeb;" horiz-adv-x="473" d="M25 185q0 59 17.5 115t50 102.5t87 75t121.5 28.5q76 0 116 -36.5t40 -96.5q-1 -90 -74 -131t-177 -41q-24 0 -64 4q-1 -8 -1 -22q0 -50 27.5 -80.5t83.5 -30.5q64 0 121 34q14 7 21 -6l17 -31q8 -13 -4 -23q-80 -58 -184 -58q-102 0 -150 52.5t-48 144.5zM150 279 q20 -4 38 -4q63 0 108.5 23t45.5 70q0 25 -17.5 38.5t-46.5 13.5q-52 0 -85 -40t-43 -101zM155 647q0 31 19.5 50t51.5 19q25 0 40 -13.5t15 -36.5q0 -31 -19.5 -51.5t-51.5 -20.5q-24 0 -39.5 15t-15.5 38zM358 647q0 31 19 50t52 19q25 0 40 -13.5t15 -36.5 q0 -31 -19.5 -51.5t-51.5 -20.5q-24 0 -39.5 15t-15.5 38z" />
<glyph unicode="&#xec;" horiz-adv-x="295" d="M55 82l57 332h-43q-10 -1 -12.5 2t-0.5 12l10 52q2 15 19 15h139q10 0 12.5 -3t0.5 -12l-68 -381q-6 -31 16 -31q12 0 30 8q15 6 21 -7l8 -16q7 -13 -5 -23q-54 -43 -109 -43q-91 0 -75 95zM110 717q-3 9 -0.5 12t11.5 3h78q17 0 19 -15l22 -122q2 -9 -0.5 -12t-12.5 -3 h-50q-16 0 -21 15z" />
<glyph unicode="&#xed;" horiz-adv-x="295" d="M55 82l57 332h-43q-10 -1 -12.5 2t-0.5 12l10 52q2 15 19 15h139q10 0 12.5 -3t0.5 -12l-68 -381q-6 -31 16 -31q12 0 30 8q15 6 21 -7l8 -16q7 -13 -5 -23q-54 -43 -109 -43q-91 0 -75 95zM151 598l63 116q8 18 28 18h75q19 0 7 -17l-86 -118q-11 -17 -31 -17h-46 q-11 0 -13 4t3 14z" />
<glyph unicode="&#xee;" horiz-adv-x="295" d="M35 593l107 135q12 13 26 13h76q14 0 20 -13l61 -135q6 -13 -10 -13h-54q-15 0 -21 12l-43 85l-68 -84q-12 -13 -26 -13h-64q-16 0 -4 13zM55 82l57 332h-43q-10 -1 -12.5 2t-0.5 12l10 52q2 15 19 15h139q10 0 12.5 -3t0.5 -12l-68 -381q-6 -31 16 -31q12 0 30 8 q15 6 21 -7l8 -16q7 -13 -5 -23q-54 -43 -109 -43q-91 0 -75 95z" />
<glyph unicode="&#xef;" horiz-adv-x="295" d="M25 647q0 31 19.5 50t51.5 19q25 0 40 -13.5t15 -36.5q0 -31 -19.5 -51.5t-51.5 -20.5q-24 0 -39.5 15t-15.5 38zM55 82l57 332h-43q-10 -1 -12.5 2t-0.5 12l10 52q2 15 19 15h139q10 0 12.5 -3t0.5 -12l-68 -381q-6 -31 16 -31q12 0 30 8q15 6 21 -7l8 -16q7 -13 -5 -23 q-54 -43 -109 -43q-91 0 -75 95zM228 647q0 31 19 50t52 19q25 0 40 -13.5t15 -36.5q0 -31 -19.5 -51.5t-51.5 -20.5q-24 0 -39.5 15t-15.5 38z" />
<glyph unicode="&#xf0;" horiz-adv-x="528" d="M17 168q0 117 64 190t173 73q36 0 65.5 -10t48.5 -26.5t30 -38.5q14 79 14 138q0 44 -8 82l-100 -43q-14 -4 -17 -2t-7 14q-1 2 -1 3q-4 18 15 25l98 43q-32 56 -100 56q-41 0 -64.5 -17.5t-33.5 -56.5q-4 -11 -8.5 -15t-15.5 -4h-48q-11 0 -14.5 4t-0.5 15 q31 149 201 149q126 0 172 -94l105 45q16 3 17.5 1t6.5 -16q3 -11 0 -15.5t-14 -9.5l-101 -43q18 -55 18 -150q0 -54 -5 -104.5t-17.5 -106.5t-35.5 -102t-55.5 -84t-82.5 -59t-112 -21q-90 0 -138.5 48t-48.5 132zM124 173q0 -48 23.5 -75.5t73.5 -27.5q34 0 60.5 12.5 t42.5 31t27.5 46t16.5 49.5t9 50q-10 33 -43 59t-73 26q-66 0 -101.5 -49.5t-35.5 -121.5z" />
<glyph unicode="&#xf1;" horiz-adv-x="599" d="M44 15l70 400h-43q-10 -1 -12.5 2t-0.5 12l8 51q2 9 5.5 12t13.5 3h126q10 0 12.5 -3t0.5 -12l-9 -58q71 84 178 84q63 0 98.5 -32.5t35.5 -92.5q0 -27 -8 -63l-46 -219q-6 -31 15 -31q12 0 30 8q15 6 21 -7l8 -16q7 -13 -5 -23q-54 -43 -109 -43q-94 0 -75 95l43 208 q7 37 7 57q0 32 -15 48t-52 16q-50 0 -88.5 -28t-45.5 -69l-52 -299q-1 -9 -5 -12t-14 -3h-79q-10 0 -12.5 3t-0.5 12zM185 618q9 53 35 73.5t55 20.5q27 0 89 -20.5t85 -20.5q16 0 24.5 5t11.5 22q2 13 17 13h27q12 0 10 -14q-14 -99 -94 -99q-33 0 -96 19.5t-78 19.5 q-27 0 -32 -23q-1 -7 -3 -8.5t-10 -1.5h-31q-13 0 -10 14z" />
<glyph unicode="&#xf2;" horiz-adv-x="540" d="M25 187q0 140 74 229.5t208 89.5q26 0 50 -4t52 -17t48.5 -34t34.5 -58t14 -85q0 -145 -77.5 -232.5t-214.5 -87.5q-90 0 -139.5 51t-49.5 148zM141 187q0 -116 90 -116q44 0 76.5 24t49 62.5t24 75.5t7.5 73q0 113 -98 113q-44 0 -75.5 -23t-46.5 -61t-21 -74t-6 -74z M251 717q-3 9 -0.5 12t11.5 3h78q10 0 14 -3t5 -12l22 -122q2 -9 -0.5 -12t-12.5 -3h-50q-16 0 -21 15z" />
<glyph unicode="&#xf3;" horiz-adv-x="540" d="M25 187q0 140 74 229.5t208 89.5q26 0 50 -4t52 -17t48.5 -34t34.5 -58t14 -85q0 -145 -77.5 -232.5t-214.5 -87.5q-90 0 -139.5 51t-49.5 148zM141 187q0 -116 90 -116q44 0 76.5 24t49 62.5t24 75.5t7.5 73q0 113 -98 113q-44 0 -75.5 -23t-46.5 -61t-21 -74t-6 -74z M276 598l63 116q8 18 28 18h75q19 0 7 -17l-86 -118q-11 -17 -31 -17h-46q-11 0 -13 4t3 14z" />
<glyph unicode="&#xf4;" horiz-adv-x="540" d="M25 187q0 140 74 229.5t208 89.5q26 0 50 -4t52 -17t48.5 -34t34.5 -58t14 -85q0 -145 -77.5 -232.5t-214.5 -87.5q-90 0 -139.5 51t-49.5 148zM141 187q0 -116 90 -116q44 0 76.5 24t49 62.5t24 75.5t7.5 73q0 113 -98 113q-44 0 -75.5 -23t-46.5 -61t-21 -74t-6 -74z M176 593l107 135q12 13 26 13h76q14 0 20 -13l61 -135q6 -13 -10 -13h-54q-15 0 -21 12l-43 85l-68 -84q-12 -13 -26 -13h-64q-16 0 -4 13z" />
<glyph unicode="&#xf5;" horiz-adv-x="540" d="M25 187q0 140 74 229.5t208 89.5q26 0 50 -4t52 -17t48.5 -34t34.5 -58t14 -85q0 -145 -77.5 -232.5t-214.5 -87.5q-90 0 -139.5 51t-49.5 148zM141 187q0 -116 90 -116q44 0 76.5 24t49 62.5t24 75.5t7.5 73q0 113 -98 113q-44 0 -75.5 -23t-46.5 -61t-21 -74t-6 -74z M155 618q9 53 35 73.5t55 20.5q27 0 89 -20.5t85 -20.5q16 0 24.5 5t11.5 22q2 13 17 13h27q12 0 10 -14q-14 -99 -94 -99q-33 0 -96 19.5t-78 19.5q-27 0 -32 -23q-1 -7 -3 -8.5t-10 -1.5h-31q-13 0 -10 14z" />
<glyph unicode="&#xf6;" horiz-adv-x="540" d="M25 187q0 140 74 229.5t208 89.5q26 0 50 -4t52 -17t48.5 -34t34.5 -58t14 -85q0 -145 -77.5 -232.5t-214.5 -87.5q-90 0 -139.5 51t-49.5 148zM141 187q0 -116 90 -116q44 0 76.5 24t49 62.5t24 75.5t7.5 73q0 113 -98 113q-44 0 -75.5 -23t-46.5 -61t-21 -74t-6 -74z M176 647q0 31 19 50t52 19q25 0 40 -13.5t15 -36.5q0 -31 -19.5 -51.5t-51.5 -20.5q-24 0 -39.5 15t-15.5 38zM379 647q0 31 19.5 50t51.5 19q25 0 40 -13.5t15 -36.5q0 -31 -19.5 -51.5t-51.5 -20.5q-24 0 -39.5 15t-15.5 38z" />
<glyph unicode="&#xf7;" horiz-adv-x="530" d="M34 280l6 35q2 15 19 15h428q10 0 12.5 -3t0.5 -12l-6 -35q-2 -15 -19 -15h-428q-10 0 -12.5 3t-0.5 12zM175 141q0 35 24 57t61 22q30 0 48.5 -17t18.5 -42q0 -35 -24.5 -57t-62.5 -22q-30 0 -47.5 17t-17.5 42zM229 447q0 35 24 57t61 22q30 0 48.5 -17t18.5 -42 q0 -35 -24.5 -57t-62.5 -22q-30 0 -47.5 17t-17.5 42z" />
<glyph unicode="&#xf8;" horiz-adv-x="540" d="M25 187q0 141 74.5 232.5t207.5 91.5q19 0 40 -3l32 69q8 14 23 14h38q16 0 9 -14l-40 -87q97 -47 97 -177q0 -146 -77.5 -236t-214.5 -90q-19 0 -37 3l-35 -76q-8 -14 -23 -14h-37q-16 0 -9 14l43 93q-91 46 -91 180zM141 187q0 -55 19 -83l148 319q-3 0 -9 0.5t-9 0.5 q-44 0 -75.5 -24t-46.5 -62.5t-21 -75.5t-6 -75zM215 71q5 -1 16 -1q44 0 76.5 25t49 64.5t24 77.5t7.5 74q0 55 -23 84z" />
<glyph unicode="&#xf9;" horiz-adv-x="604" d="M60 429l9 51q1 9 5 12t14 3h138q10 0 12.5 -3t0.5 -12l-50 -279q-6 -36 -7 -63t16 -42.5t55 -15.5q46 0 84.5 30t45.5 68l54 302q1 9 5 12t14 3h80q10 0 12.5 -3t0.5 -12l-68 -383q-6 -28 19 -28q11 0 27 8q15 6 22 -7l9 -16q7 -13 -5 -23q-59 -43 -110 -43q-80 0 -78 76 q-64 -76 -170 -76q-156 0 -126 170l46 258l-42 -1q-10 -1 -12.5 2t-0.5 12zM262 717q-3 9 -0.5 12t11.5 3h78q17 0 19 -15l22 -122q2 -9 -0.5 -12t-12.5 -3h-50q-16 0 -21 15z" />
<glyph unicode="&#xfa;" horiz-adv-x="604" d="M60 429l9 51q1 9 5 12t14 3h138q10 0 12.5 -3t0.5 -12l-50 -279q-6 -36 -7 -63t16 -42.5t55 -15.5q46 0 84.5 30t45.5 68l54 302q1 9 5 12t14 3h80q10 0 12.5 -3t0.5 -12l-68 -383q-6 -28 19 -28q11 0 27 8q15 6 22 -7l9 -16q7 -13 -5 -23q-59 -43 -110 -43q-80 0 -78 76 q-64 -76 -170 -76q-156 0 -126 170l46 258l-42 -1q-10 -1 -12.5 2t-0.5 12zM299 598l63 116q8 18 28 18h75q19 0 7 -17l-86 -118q-11 -17 -31 -17h-46q-11 0 -13 4t3 14z" />
<glyph unicode="&#xfb;" horiz-adv-x="604" d="M60 429l9 51q1 9 5 12t14 3h138q10 0 12.5 -3t0.5 -12l-50 -279q-6 -36 -7 -63t16 -42.5t55 -15.5q46 0 84.5 30t45.5 68l54 302q1 9 5 12t14 3h80q10 0 12.5 -3t0.5 -12l-68 -383q-6 -28 19 -28q11 0 27 8q15 6 22 -7l9 -16q7 -13 -5 -23q-59 -43 -110 -43q-80 0 -78 76 q-64 -76 -170 -76q-156 0 -126 170l46 258l-42 -1q-10 -1 -12.5 2t-0.5 12zM205 593l107 135q12 13 26 13h76q14 0 20 -13l61 -135q6 -13 -10 -13h-54q-15 0 -21 12l-43 85l-68 -84q-12 -13 -26 -13h-64q-16 0 -4 13z" />
<glyph unicode="&#xfc;" horiz-adv-x="604" d="M60 429l9 51q1 9 5 12t14 3h138q10 0 12.5 -3t0.5 -12l-50 -279q-6 -36 -7 -63t16 -42.5t55 -15.5q46 0 84.5 30t45.5 68l54 302q1 9 5 12t14 3h80q10 0 12.5 -3t0.5 -12l-68 -383q-6 -28 19 -28q11 0 27 8q15 6 22 -7l9 -16q7 -13 -5 -23q-59 -43 -110 -43q-80 0 -78 76 q-64 -76 -170 -76q-156 0 -126 170l46 258l-42 -1q-10 -1 -12.5 2t-0.5 12zM187 647q0 31 19.5 50t51.5 19q25 0 40 -13.5t15 -36.5q0 -31 -19.5 -51.5t-51.5 -20.5q-24 0 -39.5 15t-15.5 38zM390 647q0 31 19 50t52 19q25 0 40 -13.5t15 -36.5q0 -31 -19.5 -51.5 t-51.5 -20.5q-24 0 -39.5 15t-15.5 38z" />
<glyph unicode="&#xfd;" horiz-adv-x="595" d="M35 -183l21 47q4 9 8 10.5t12 -2.5q62 -28 125 -28q123 0 146 132l16 88q-69 -76 -165 -76q-65 0 -99.5 31.5t-34.5 92.5q0 23 4 46l46 258l-42 -1q-10 -1 -12.5 2t-0.5 12l8 51q2 9 5.5 12t13.5 3h138q10 0 12.5 -3t0.5 -12l-49 -279q-7 -37 -7 -58q0 -31 16 -47t55 -16 q46 0 84.5 30t45.5 68l53 302q1 9 5 12t14 3h80q10 0 12.5 -3t0.5 -12l-70 -397q-12 -81 -28 -142q-23 -88 -80.5 -134.5t-161.5 -46.5q-90 0 -164 36q-14 6 -8 21zM299 598l63 116q8 18 28 18h75q19 0 7 -17l-86 -118q-11 -17 -31 -17h-46q-11 0 -13 4t3 14z" />
<glyph unicode="&#xfe;" horiz-adv-x="590" d="M1 -215l156 881h-45q-10 -1 -12.5 2t-0.5 12l9 51q2 15 19 15h139q10 0 12.5 -3t0.5 -12l-54 -305q66 85 168 85q74 0 117 -54.5t43 -143.5q0 -149 -67 -237t-193 -88q-42 0 -79.5 14.5t-56.5 31.5l-44 -249q-1 -9 -5 -12t-14 -3h-80q-10 0 -12.5 3t-0.5 12zM171 115 q5 -5 14.5 -12.5t39 -19t61.5 -11.5q77 0 112.5 61.5t35.5 159.5q0 122 -97 122q-47 0 -85 -29t-47 -80z" />
<glyph unicode="&#xff;" horiz-adv-x="595" d="M35 -183l21 47q4 9 8 10.5t12 -2.5q62 -28 125 -28q123 0 146 132l16 88q-69 -76 -165 -76q-65 0 -99.5 31.5t-34.5 92.5q0 23 4 46l46 258l-42 -1q-10 -1 -12.5 2t-0.5 12l8 51q2 9 5.5 12t13.5 3h138q10 0 12.5 -3t0.5 -12l-49 -279q-7 -37 -7 -58q0 -31 16 -47t55 -16 q46 0 84.5 30t45.5 68l53 302q1 9 5 12t14 3h80q10 0 12.5 -3t0.5 -12l-70 -397q-12 -81 -28 -142q-23 -88 -80.5 -134.5t-161.5 -46.5q-90 0 -164 36q-14 6 -8 21zM192 647q0 31 19 50t52 19q25 0 40 -13.5t15 -36.5q0 -31 -19.5 -51.5t-51.5 -20.5q-24 0 -39.5 15 t-15.5 38zM395 647q0 31 19.5 50t51.5 19q25 0 40 -13.5t15 -36.5q0 -31 -19.5 -51.5t-51.5 -20.5q-24 0 -39.5 15t-15.5 38z" />
<glyph unicode="&#x152;" horiz-adv-x="993" d="M48 264q0 117 42.5 214.5t125.5 157.5t191 60q125 0 177 -77l7 45q1 9 5 12t14 3h378q10 0 12.5 -3t0.5 -12l-23 -134q-2 -15 -19 -15h-54q-10 0 -12.5 3t-0.5 12l16 69h-207l-38 -213h193q10 0 12.5 -3t0.5 -12l-8 -48q-1 -9 -5 -12t-14 -3h-192l-41 -229h229l9 69 q2 10 5 13t13 3h54q10 0 12.5 -3t0.5 -12l-24 -134q-2 -15 -19 -15h-399q-10 0 -12.5 3t-0.5 12l10 44q-71 -71 -191 -71q-118 0 -183 76t-65 200zM171 279q0 -197 146 -197q67 0 115 31t73 83t36 106.5t11 115.5q0 89 -36 140t-111 51q-67 0 -116 -32t-73 -84.5t-34.5 -105 t-10.5 -108.5z" />
<glyph unicode="&#x153;" horiz-adv-x="831" d="M25 187q0 141 74.5 232.5t207.5 91.5q116 0 166 -87q74 87 188 87q76 0 116 -36.5t40 -96.5q-1 -90 -74 -131t-177 -41q-24 0 -64 4q-1 -8 -1 -25q0 -50 27.5 -81.5t83.5 -31.5q64 0 121 34q14 7 21 -6l17 -31q8 -13 -4 -23q-80 -58 -184 -58q-123 0 -169 85 q-75 -86 -200 -86q-90 0 -139.5 51.5t-49.5 148.5zM141 187q0 -117 90 -117q44 0 76.5 25t49 64.5t24 77.5t7.5 74q0 113 -98 113q-44 0 -75.5 -24t-46.5 -62.5t-21 -75.5t-6 -75zM510 284q20 -4 38 -4q57 0 104 23.5t47 69.5q0 52 -61 52q-52 0 -85 -40t-43 -101z" />
<glyph unicode="&#x178;" horiz-adv-x="664" d="M79 612l10 52q1 9 5 12t14 3h236q10 0 12.5 -3t0.5 -12l-8 -52q-2 -9 -5.5 -12t-13.5 -2h-53l79 -238l169 238h-56q-10 -1 -12.5 2t-0.5 12l10 52q2 15 19 15h205q10 0 12.5 -3t0.5 -12l-9 -52q-2 -9 -5.5 -12t-13.5 -2h-51l-236 -328l-33 -191h52q10 1 12.5 -2t0.5 -12 l-8 -50q-2 -9 -5.5 -12t-13.5 -3h-216q-10 0 -12.5 3t-0.5 12l8 50q2 9 5.5 12t13.5 2h52l31 178l-125 341h-57q-10 -1 -12.5 2t-0.5 12zM261 791q0 31 19.5 50t51.5 19q25 0 40 -13.5t15 -36.5q0 -31 -19.5 -51.5t-51.5 -20.5q-24 0 -39.5 15t-15.5 38zM464 791q0 31 19 50 t52 19q25 0 40 -13.5t15 -36.5q0 -31 -19.5 -51.5t-51.5 -20.5q-24 0 -39.5 15t-15.5 38z" />
<glyph unicode="&#x2c6;" d="M225 593l107 135q12 13 26 13h76q14 0 20 -13l61 -135q6 -13 -10 -13h-54q-15 0 -21 12l-43 85l-68 -84q-12 -13 -26 -13h-64q-16 0 -4 13z" />
<glyph unicode="&#x2dc;" d="M195 618q9 53 35 73.5t55 20.5q27 0 89 -20.5t85 -20.5q16 0 24.5 5t11.5 22q2 13 17 13h27q12 0 10 -14q-14 -99 -94 -99q-33 0 -96 19.5t-78 19.5q-27 0 -32 -23q-1 -7 -3 -8.5t-10 -1.5h-31q-13 0 -10 14z" />
<glyph unicode="&#x2000;" horiz-adv-x="453" />
<glyph unicode="&#x2001;" horiz-adv-x="907" />
<glyph unicode="&#x2002;" horiz-adv-x="453" />
<glyph unicode="&#x2003;" horiz-adv-x="907" />
<glyph unicode="&#x2004;" horiz-adv-x="302" />
<glyph unicode="&#x2005;" horiz-adv-x="226" />
<glyph unicode="&#x2006;" horiz-adv-x="151" />
<glyph unicode="&#x2007;" horiz-adv-x="151" />
<glyph unicode="&#x2008;" horiz-adv-x="113" />
<glyph unicode="&#x2009;" horiz-adv-x="181" />
<glyph unicode="&#x200a;" horiz-adv-x="50" />
<glyph unicode="&#x2010;" horiz-adv-x="282" d="M30 233l11 67q1 9 5 12t14 3h190q10 0 12.5 -3t0.5 -12l-12 -67q-1 -9 -5 -12t-14 -3h-189q-10 0 -12.5 3t-0.5 12z" />
<glyph unicode="&#x2011;" horiz-adv-x="282" d="M30 233l11 67q1 9 5 12t14 3h190q10 0 12.5 -3t0.5 -12l-12 -67q-1 -9 -5 -12t-14 -3h-189q-10 0 -12.5 3t-0.5 12z" />
<glyph unicode="&#x2012;" horiz-adv-x="282" d="M30 233l11 67q1 9 5 12t14 3h190q10 0 12.5 -3t0.5 -12l-12 -67q-1 -9 -5 -12t-14 -3h-189q-10 0 -12.5 3t-0.5 12z" />
<glyph unicode="&#x2013;" d="M-4 263l8 47q2 15 19 15h468q10 0 12.5 -3t0.5 -12l-8 -47q-2 -15 -19 -15h-468q-10 0 -12.5 3t-0.5 12z" />
<glyph unicode="&#x2014;" horiz-adv-x="1000" d="M6 263l8 47q2 15 19 15h943q10 0 12.5 -3t0.5 -12l-8 -47q-1 -9 -5 -12t-14 -3h-943q-10 0 -12.5 3t-0.5 12z" />
<glyph unicode="&#x2018;" horiz-adv-x="254" d="M120 563q0 9 1 16.5t4.5 16t5.5 13t9 14t8.5 12t11.5 14t11 13.5l64 79q11 14 28 2q14 -8 7 -21l-46 -90q20 -35 20 -58q0 -28 -18 -48t-46 -20q-27 0 -43.5 16.5t-16.5 40.5z" />
<glyph unicode="&#x2019;" horiz-adv-x="254" d="M117 537l46 90q-20 35 -20 58q0 28 18.5 48t49.5 20q25 0 40.5 -15.5t15.5 -38.5q0 -20 -8.5 -39.5t-16 -29t-26.5 -33.5l-64 -79q-12 -14 -28 -2q-14 8 -7 21z" />
<glyph unicode="&#x201a;" horiz-adv-x="254" d="M2 -124l46 90q-20 35 -20 58q0 28 18.5 48t49.5 20q25 0 40.5 -15.5t15.5 -38.5q0 -20 -8.5 -39.5t-16 -29t-26.5 -33.5l-64 -79q-11 -14 -28 -2q-14 8 -7 21z" />
<glyph unicode="&#x201c;" horiz-adv-x="404" d="M120 563q0 9 1 16.5t4.5 16t5.5 13t9 14t8.5 12t11.5 14t11 13.5l64 79q11 14 28 2q14 -8 7 -21l-46 -90q20 -35 20 -58q0 -28 -18 -48t-46 -20q-27 0 -43.5 16.5t-16.5 40.5zM270 563q0 9 1 16.5t4.5 16t5.5 13t9 14t8.5 12t11.5 14t11 13.5l64 79q11 14 28 2 q14 -8 7 -21l-46 -90q20 -35 20 -58q0 -28 -18 -48t-46 -20q-27 0 -43.5 16.5t-16.5 40.5z" />
<glyph unicode="&#x201d;" horiz-adv-x="404" d="M117 537l46 90q-20 35 -20 58q0 28 18.5 48t49.5 20q25 0 40.5 -15.5t15.5 -38.5q0 -20 -8.5 -39.5t-16 -29t-26.5 -33.5l-64 -79q-12 -14 -28 -2q-14 8 -7 21zM267 537l46 90q-20 35 -20 58q0 28 18.5 48t49.5 20q25 0 40.5 -15.5t15.5 -38.5q0 -20 -8.5 -39.5t-16 -29 t-26.5 -33.5l-64 -79q-12 -14 -28 -2q-14 8 -7 21z" />
<glyph unicode="&#x201e;" horiz-adv-x="404" d="M2 -124l46 90q-20 35 -20 58q0 28 18.5 48t49.5 20q25 0 40.5 -15.5t15.5 -38.5q0 -20 -8.5 -39.5t-16 -29t-26.5 -33.5l-64 -79q-11 -14 -28 -2q-14 8 -7 21zM152 -124l46 90q-20 35 -20 58q0 28 18.5 48t49.5 20q25 0 40.5 -15.5t15.5 -38.5q0 -20 -8.5 -39.5t-16 -29 t-26.5 -33.5l-64 -79q-11 -14 -28 -2q-14 8 -7 21z" />
<glyph unicode="&#x2022;" horiz-adv-x="361" d="M88 335q0 42 32.5 71t80.5 29q44 0 68.5 -23.5t24.5 -60.5q0 -43 -31.5 -73t-80.5 -30q-47 0 -70.5 24.5t-23.5 62.5z" />
<glyph unicode="&#x2026;" horiz-adv-x="771" d="M30 40q0 35 24 57t61 22q30 0 48.5 -17t18.5 -42q0 -35 -24.5 -57t-62.5 -22q-30 0 -47.5 17t-17.5 42zM279 40q0 35 24 57t61 22q30 0 48.5 -17t18.5 -42q0 -35 -24.5 -57t-62.5 -22q-30 0 -47.5 17t-17.5 42zM534 40q0 35 24 57t61 22q30 0 48.5 -17t18.5 -42 q0 -35 -24.5 -57t-62.5 -22q-30 0 -47.5 17t-17.5 42z" />
<glyph unicode="&#x202f;" horiz-adv-x="181" />
<glyph unicode="&#x2039;" horiz-adv-x="327" d="M80 272q-5 14 4 28l124 179q8 13 25 13h64q17 0 7 -13l-129 -191l59 -189q3 -9 0.5 -12t-11.5 -3h-66q-16 0 -21 15z" />
<glyph unicode="&#x203a;" horiz-adv-x="327" d="M39 97l131 192l-61 188q-3 9 -0.5 12t11.5 3h66q16 0 21 -15l56 -173q5 -14 -4 -28l-124 -179q-8 -13 -25 -13h-64q-17 0 -7 13z" />
<glyph unicode="&#x205f;" horiz-adv-x="226" />
<glyph unicode="&#x20ac;" horiz-adv-x="527" d="M6 197l7 23q4 15 20 15h46q1 17 7 39h-43q-9 0 -11.5 3t0.5 12l6 23q5 15 21 15h39q27 102 102 153t161 51q92 0 160 -39q13 -7 11 -23l-16 -94q-2 -9 -5.5 -12t-13.5 -3h-49q-10 0 -12 3t0 12l13 54q-12 12 -41 22t-59 10q-117 0 -151 -134h196q9 0 11.5 -3t-0.5 -12 l-8 -23q-5 -15 -21 -15h-190q-4 -16 -6 -39h183q9 0 11.5 -3t-0.5 -12l-7 -23q-5 -15 -21 -15h-169q5 -121 124 -121q51 0 85 19l5 56q2 10 5 13t13 3h51q10 0 12.5 -3t0.5 -12l-15 -93q-4 -16 -17 -22q-75 -34 -157 -34q-104 0 -154.5 58.5t-53.5 135.5h-58q-9 0 -11.5 3 t-0.5 12z" />
<glyph unicode="&#x2122;" horiz-adv-x="844" d="M111 609v55q0 15 15 15h243q15 0 15 -15v-55q0 -15 -15 -15h-14q-15 0 -14 15l2 34h-64v-256h32q15 0 15 -15v-13q0 -15 -15 -15h-125q-15 0 -15 15v13q0 15 15 15h31v256h-63l2 -34q1 -15 -14 -15h-16q-15 0 -15 15zM408 359v12q0 15 15 15h18v251h-18q-15 0 -15 15v12 q0 15 15 15h75q16 0 20 -14l96 -254l99 254q4 14 20 14h67q15 0 15 -15v-12q0 -15 -15 -15h-17v-251h17q15 0 15 -15v-12q0 -15 -15 -15h-96q-15 0 -15 15v13q0 15 15 15h20v200l-88 -229q-4 -14 -20 -14h-20q-16 0 -20 14l-92 238v-209h28q15 0 15 -15v-13q0 -15 -15 -15 h-89q-15 0 -15 15z" />
<glyph unicode="&#xe000;" horiz-adv-x="505" d="M0 0v505h505v-505h-505z" />
<glyph unicode="&#xfb01;" horiz-adv-x="616" d="M-148 -195l17 40q6 14 21 8q30 -16 63 -16q43 0 58.5 24t25.5 84l83 471l-61 -1q-10 -1 -12.5 2t-0.5 12l8 51q2 9 5.5 12t13.5 3h61l17 98q6 35 18 61.5t34.5 52t63 39.5t96.5 14q74 0 149 -34q14 -7 7 -20l-20 -42q-8 -14 -23 -8q-57 20 -105 20q-94 0 -112 -108 l-13 -73h299q10 0 12.5 -3t0.5 -12l-69 -380q-6 -31 17 -31q12 0 30 8q15 6 21 -7l8 -16q7 -13 -5 -23q-54 -43 -109 -43q-91 0 -75 95l57 333h-201l-86 -488q-6 -37 -14.5 -61.5t-27 -51.5t-53 -40.5t-84.5 -13.5q-61 0 -107 23q-14 7 -8 21z" />
<glyph unicode="&#xfb02;" horiz-adv-x="624" d="M-148 -195l17 40q6 14 21 8q30 -16 63 -16q42 0 57.5 23.5t26.5 84.5l83 469h-61q-10 -1 -12.5 2t-0.5 12l8 52q2 9 5.5 12t13.5 3h61l17 98q6 35 17.5 61.5t34 52t61.5 39.5t93 14q75 0 150 -32l94 15q8 1 10.5 -1.5t1.5 -10.5l-113 -631q-6 -31 17 -31q12 0 30 8 q15 6 21 -7l8 -16q7 -13 -5 -23q-54 -43 -109 -43q-91 0 -75 95l100 566q-56 27 -118 27q-92 0 -110 -108l-13 -73h120q10 0 12.5 -3t0.5 -12l-8 -52q-2 -9 -5.5 -12t-13.5 -2h-120l-86 -486q-6 -37 -14.5 -61.5t-27 -51.5t-53 -40.5t-84.5 -13.5q-61 0 -107 23q-14 7 -8 21 z" />
<glyph unicode="&#xfb03;" horiz-adv-x="939" d="M-148 -195l17 40q6 14 21 8q30 -16 63 -16q42 0 57.5 23.5t26.5 84.5l83 471l-61 -1q-10 -1 -12.5 2t-0.5 12l8 51q2 9 5.5 12t13.5 3h61l15 87q7 38 15.5 62t26.5 51t52.5 40.5t84.5 13.5q61 0 107 -23q14 -7 8 -21l-19 -47q-6 -14 -21 -8q-28 15 -62 15 q-43 0 -58.5 -24t-25.5 -84l-11 -62h213l17 98q6 35 18 61.5t34.5 52t63 39.5t96.5 14q74 0 149 -34q14 -7 7 -20l-20 -42q-8 -14 -23 -8q-57 20 -105 20q-94 0 -112 -108l-13 -73h300q10 0 12.5 -3t0.5 -12l-70 -380q-6 -31 17 -31q12 0 30 8q15 6 21 -7l8 -16 q7 -13 -5 -23q-54 -43 -109 -43q-91 0 -75 95l58 333h-202l-86 -488q-6 -37 -14.5 -61.5t-27 -51.5t-53 -40.5t-84.5 -13.5q-61 0 -107 23q-14 7 -8 21l17 40q6 14 21 8q30 -16 63 -16q42 0 57.5 23.5t26.5 84.5l83 471h-213l-86 -488q-6 -37 -14.5 -61.5t-27 -51.5 t-53 -40.5t-84.5 -13.5q-61 0 -107 23q-14 7 -8 21z" />
<glyph unicode="&#xfb04;" horiz-adv-x="949" d="M-148 -195l17 40q6 14 21 8q30 -16 63 -16q42 0 57.5 23.5t26.5 84.5l83 471h-61q-10 -1 -12.5 2t-0.5 12l8 50q2 9 5.5 12t13.5 3h61l17 88q7 38 15.5 62t26.5 51t52.5 40.5t84.5 13.5q61 0 107 -23q14 -7 8 -21l-18 -47q-6 -14 -21 -8q-28 15 -62 15q-43 0 -58.5 -24 t-25.5 -84l-14 -63h213l17 98q6 35 18 61.5t34.5 52t63 39.5t96.5 14q59 0 143 -32l95 15q8 1 11 -1.5t1 -10.5l-113 -631q-6 -31 17 -31q12 0 30 8q15 6 21 -7l8 -16q7 -13 -5 -23q-54 -43 -109 -43q-91 0 -75 95l102 575q-46 18 -117 18q-94 0 -112 -108l-14 -73h120 q10 0 12.5 -3t0.5 -12l-8 -51q-2 -9 -5.5 -12t-13.5 -2l-120 1l-86 -488q-6 -37 -14.5 -61.5t-27 -51.5t-53 -40.5t-84.5 -13.5q-61 0 -107 23q-14 7 -8 21l17 40q6 14 21 8q30 -16 63 -16q42 0 57.5 23.5t26.5 84.5l83 471h-213l-86 -488q-6 -37 -14.5 -61.5t-27 -51.5 t-53 -40.5t-84.5 -13.5q-61 0 -107 23q-14 7 -8 21z" />
</font>
</defs>
</svg>
