<?xml version="1.0" standalone="no"?>
<!DOCTYPE svg PUBLIC "-//W3C//DTD SVG 1.1//EN" "http://www.w3.org/Graphics/SVG/1.1/DTD/svg11.dtd" >
<svg xmlns="http://www.w3.org/2000/svg">
<metadata></metadata>
<defs>
<font id="bloodynormal" horiz-adv-x="272" >
<font-face units-per-em="928" ascent="742" descent="-186" />
<missing-glyph horiz-adv-x="500" />
<glyph horiz-adv-x="928" />
<glyph horiz-adv-x="928" />
<glyph unicode="&#xd;" horiz-adv-x="500" />
<glyph unicode=" "  horiz-adv-x="500" />
<glyph unicode="&#x09;" horiz-adv-x="500" />
<glyph unicode="&#xa0;" horiz-adv-x="500" />
<glyph unicode="!" horiz-adv-x="235" d="M218 96q0 -25 -16 -25q-6 0 -15 3q-3 -9 -3 -19q0 -13 8 -32q5 -12 5 -14v-97q-10 -10 -17 -10q-17 0 -19.5 37.5t-12.5 63.5q-26 -7 -57 17q-37 28 -37 76q0 12 7 28t18 16q22 0 59 -20q8 -5 36 -23l7 10q-25 14 -38 31q-6 7 -8 8h-15q-13 0 -28.5 10t-39.5 49 q-27 44 -27 74v139q0 2 -2 5t-3 5q5 28 7.5 69.5t2.5 90.5l14 116q6 13 20 18.5t24 5.5q33 0 60 -60q35 -76 49 -230q1 -14 1.5 -40.5t1.5 -46.5v-31q0 -70 -12 -125q-4 -18 -12 -41q6 -15 8 -34q4 1 8 1h6q20 0 20 -25z" />
<glyph unicode="&#x22;" horiz-adv-x="412" d="M400 669q0 -18 -33 -75q-38 -66 -66 -66q-18 0 -23.5 4.5t-5.5 18.5q0 7 21 26q11 10 11 22q0 10 -38 22t-38 34q0 53 28 77q21 18 55 18q36 0 64 -30q25 -27 25 -51zM188 673q0 -18 -33 -75q-38 -66 -66 -66q-18 0 -23.5 4.5t-5.5 18.5q0 7 21 26q11 10 11 22 q0 10 -38 22t-38 34q0 53 28 77q21 18 55 18q36 0 64 -30q25 -27 25 -51z" />
<glyph unicode="#" />
<glyph unicode="$" horiz-adv-x="455" d="M160 449v61q-8 -10 -18 -27q-3 -5 -8 -16q0 -5 5 -8.5t21 -9.5zM296 297q0 9 -3.5 12t-23.5 13l3 -64q7 4 15.5 15t8.5 24zM159 353h-12q-58 24 -83 37q-44 24 -44 70q0 45 40 87l52 52q10 11 20 17t19 11q5 8 5 22q0 9 -3 27t-3 26q0 13 4.5 19t19.5 6q32 0 47 -16 q14 -25 28 -49q5 -4 16 -7t29 -15q36 -24 66 -62.5t30 -53.5q0 -3 -4 -16q-10 -32 -10 -33l14 -33q0 -8 -5.5 -14.5t-14.5 -6.5q-17 0 -17 28q1 15 1 22t-0.5 13.5t-5.5 9.5t-17 0.5t-18 -0.5q-2 1 -28 23q-15 13 -26 18l-3 -65q4 -16 4 -27q-1 -13 -1 -26q77 -37 127 -72.5 t50 -78.5q0 -56 -31 -96l-54 -62q-8 -13 -8 -24q0 -3 2 -14.5t0 -18.5h-10q-8 8 -11 13q-6 9 -6 15q0 3 3 10t5 16q-2 2 -4.5 3t-7.5 1q-7 0 -21 -9t-15 -14q-2 -9 3 -30t5 -31t-2 -15.5t-11 -18t-9 -24.5q0 -14 5 -20.5t9 -13.5v-13q-11 -3 -13 -3q-12 0 -19.5 6.5 t-7.5 28.5q1 20 1 29q0 11 -2 16h-7l-12 -20h-10l2 24q0 4 -4 8q-17 17 -20 23q-9 14 -11.5 28.5t-2.5 27.5t-5 17q-14 3 -30.5 11t-35.5 23.5t-43 45.5q-38 49 -38 83q0 9 2 17t12 8q16 0 60 -25q36 -21 69 -52q7 8 10.5 13t3.5 17v17q0 52 -4.5 74.5t-10.5 22.5 q-3 0 -3 -7z" />
<glyph unicode="%" />
<glyph unicode="&#x26;" horiz-adv-x="556" d="M545 233q-4 -10 -6.5 -48t-2.5 -117l-9 -3q-8 0 -15.5 10t-7.5 17q5 10 7 15q7 17 7 28q0 6 -4.5 12.5t-5.5 8.5q-14 -11 -23.5 -46t-17.5 -35q-5 0 -14 9q-23 -13 -45.5 -49.5t-22.5 -61.5q3 -6 4 -9q12 -25 12 -39q0 -17 -3 -21q-6 -8 -18 -8q-16 0 -22.5 10t-6.5 27 q0 11 3 22v58h-20q-14 -7 -30.5 -10.5t-36.5 -3.5q-33 0 -72 18q-47 22 -90 64q-32 32 -55 84.5t-23 83.5q0 48 20 84q22 36 45 72q-18 27 -32 56.5t-14 54.5q0 96 99 163q75 51 122 51q38 0 102 -36q83 -47 83 -109q0 -16 -9.5 -40t-9.5 -36q0 -3 0.5 -6.5t9.5 -19.5v-37 q-17 6 -21 16.5t-6 20.5q-3 -5 -4 -7q-5 -9 -14 -9q-13 0 -20 14t-7 26q0 6 5 22.5t5 21.5q0 4 -40.5 38.5t-81.5 71.5q-26 -24 -56 -80q-34 -65 -34 -107q0 -14 14 -17h19q3 0 15 -7q4 -2 12 -7q3 5 6 6q7 4 14 4q30 0 55.5 -21.5t25.5 -42.5q-2 -38 -4 -77t-5 -53 q-5 0 -7.5 -1.5t-3.5 -2.5q-7 0 -20 14q-8 9 -8 16q0 4 12 33q6 14 6 18q0 5 -5 11t-9 11q-35 -18 -75 -61q-34 -37 -34 -66q0 -45 35.5 -77t72.5 -32q29 0 52 18q15 12 48 50q-18 15 -28 22q-19 15 -19 37q0 14 11 17t32 3q17 6 41.5 11.5t45.5 5.5q31 0 54 -13t23 -40z M476 -1q0 -26 -2.5 -36.5t-15.5 -10.5q-12 0 -12 23v20q0 15 0.5 27t9.5 29q8 -6 14.5 -16t6.5 -23q-1 -11 -1 -13zM413 507v14v-14z" />
<glyph unicode="'" horiz-adv-x="204" d="M188 673q0 -18 -33 -75q-38 -66 -66 -66q-18 0 -23.5 4.5t-5.5 18.5q0 7 21 26q11 10 11 22q0 10 -38 22t-38 34q0 53 28 77q21 18 55 18q36 0 64 -30q25 -27 25 -51z" />
<glyph unicode="(" horiz-adv-x="284" d="M279 -158q0 -21 -5.5 -25t-19.5 -4q-29 0 -29 49q8 35 11 53q12 58 12 62q0 5 -2.5 8t-5.5 8h-15q-2 -7 -2 -21q0 -8 0.5 -18.5t1.5 -23.5q0 -19 -13 -19q-10 0 -13.5 7.5t-3.5 22.5v18q0 17 -3.5 32t-14.5 28q-7 5 -26 27q-30 34 -55 69q-34 45 -56 100q-26 65 -26 123 q0 46 17.5 109.5t38.5 109.5q17 35 65 102q60 83 82 83q5 0 19 -16t14 -26q-33 -95 -59 -200.5t-26 -178.5q0 -99 51.5 -203t51.5 -130q0 -40 -3 -59l-8 -30q0 -8 11 -25t11 -32z" />
<glyph unicode=")" horiz-adv-x="304" d="M292 291q0 -65 -21 -131q-27 -83 -81 -137q-19 -19 -60 -33q-29 -10 -29 -26q0 -5 5.5 -42.5t5.5 -39.5q0 -28 -21 -28q-11 0 -19 11t-8 17v107q23 58 41 133.5t18 140.5q0 109 -34 233l-74 232q0 5 5.5 12t11.5 7q56 -21 90 -55q57 -56 104 -152q14 -28 36 -99 q30 -97 30 -150zM149 -60q0 -4 -1.5 -7.5t-2.5 -6.5h-14q-2 12 -2 18q0 8 2 16q12 -5 15 -9t3 -11z" />
<glyph unicode="*" />
<glyph unicode="+" horiz-adv-x="356" d="M340 357q0 -24 -7.5 -34.5t-13.5 -18.5v-14.5v-17.5q0 -21 -2.5 -35t-12.5 -29h-7q-5 11 -5 17q0 2 3 10t3 21q0 10 -6 29t-13 19q-44 0 -46 -58t-26 -58q-44 0 -59.5 34.5t-28.5 66.5q-13 6 -28 15t-34 27q-2 -5 -3 -9q0 -2 10 -18q6 -10 6 -19q0 -7 -4 -15t-11 -8 t-10.5 12.5t-3.5 30.5q0 20 1 25.5t1 13.5q0 18 -12.5 27.5t-12.5 26.5q0 14 19 24t48 10q13 0 28 -3q4 15 4 29q0 2 -1 9.5t0 9.5q5 31 27.5 50t45.5 19q30 0 38 -53q1 -7 6 -58q7 0 11 0.5t9 2.5q45 0 66 -21t21 -60zM230 44q-10 -8 -18 -8q-18 0 -18 12q0 9 7 23q2 4 5 9 q1 11 -3 13q-13 6 -13 26q0 15 7 28t12 13q15 0 15 -24q0 -22 -4.5 -32t-7.5 -16zM70 226q0 -14 -5 -25t-19 -11q-22 0 -22 17q0 15 5.5 29t13.5 14t15 -5q12 -9 12 -19z" />
<glyph unicode="," horiz-adv-x="216" d="M204 66q0 -25 -36 -88q-40 -70 -65 -70q-14 0 -27.5 11.5t-13.5 26.5q4 13 7 19q8 19 16 28v11q-35 12 -53 45.5t-18 66.5q0 35 35 58q27 18 47 18q42 0 75 -35t33 -91z" />
<glyph unicode="-" horiz-adv-x="428" d="M410 346q0 -30 -6 -42l-20 -24v-30q0 -26 -3.5 -48.5t-14.5 -36.5h-9q-5 13 -5 21q0 5 3 16t3 20q-3 20 -5 29q-7 29 -16 29q-6 0 -17.5 -10t-11.5 -22l9 -12q9 -14 9 -26q0 -15 -4.5 -20.5t-15.5 -5.5q-8 0 -12.5 6.5t-4.5 18.5t1.5 18.5t7.5 27.5q-4 1 -8.5 1.5 t-13.5 0.5q-12 0 -31.5 -1t-23.5 -1q-70 0 -109 23.5t-59 62.5q-3 6 -20 24q-13 14 -13 29q0 36 84 42q27 2 82 2q23 0 67.5 2t51.5 2q53 0 81 -29q24 -25 24 -67zM326 140q0 -44 -30 -44q-15 0 -21.5 4.5t-6.5 16.5q0 9 7 30t18 21q9 0 21 -8.5t12 -19.5z" />
<glyph unicode="." horiz-adv-x="176" d="M162 102q0 -41 -14 -67q-18 -33 -58 -33q-46 0 -64 45q-12 29 -12 79q0 31 9 58q14 42 43 42q35 0 69 -44q27 -35 27 -80z" />
<glyph unicode="/" />
<glyph unicode="0" horiz-adv-x="552" d="M538 267q0 -80 -19 -127q-31 -57 -52 -98q-8 -15 -11.5 -36t-3.5 -43q0 -21 2.5 -53.5t2.5 -34.5q0 -20 -4.5 -29t-18.5 -9q-23 0 -23 27q10 48 15 73q16 80 16 91l-3 14h-7q-10 -9 -20.5 -12t-16.5 -5q-17 -15 -22.5 -43t-5.5 -63v-18q-1 -8 -6 -14t-5 -38q-7 -1 -14 -3 q-2 0 -6 11q-10 29 -10 64q0 9 8 33q5 15 5 24l-13 33q-7 -2 -14 -6t-25 -4q-39 0 -91 22.5t-86 52.5q-42 36 -69 100q-21 50 -21 75v121q7 41 14 67q21 77 58 132q34 51 46 62q15 10 33 24q29 24 44 31q7 3 11.5 5t8 17.5t13.5 15.5q31 0 80 -40q64 -52 142 -163 q30 -43 49 -118t19 -138zM381 314q0 127 -27 200q-19 52 -53 78l-34 20q-38 -68 -75 -136q-26 -63 -26 -122q0 -89 45 -155q58 -85 106 -85q25 0 44.5 70.5t19.5 129.5zM302 563q0 -17 -5 -38.5t-16 -21.5q-12 0 -16.5 7t-4.5 18q0 12 5.5 26.5t12.5 30.5h10l8 -8t6 -14z " />
<glyph unicode="1" horiz-adv-x="188" d="M169 59q0 -22 -7 -40t-24 -18q-37 0 -75 46q-48 58 -48 149q3 85 5 128q6 128 10 148t11 133t44 113q28 0 50 -50q28 -62 28 -167t1.5 -153.5t1.5 -69.5q0 -59 1.5 -134t1.5 -85zM155 -56q0 -30 -8 -48q-3 -5 -5 -11q3 -5 5 -11q6 -14 6 -31q-12 11 -16 13h-8q2 -3 3 -6 q10 -22 18 -49h-13q-2 3 -6 25q-10 50 -10 101q0 11 5.5 29.5t12.5 18.5t11.5 -9t4.5 -22z" />
<glyph unicode="2" horiz-adv-x="660" d="M647 58q0 -16 -2 -25q-6 -27 -6 -117l-8 -3q-10 0 -12.5 9t-2.5 45v67q-7 1 -14 3q-15 0 -22.5 -38.5t-17.5 -52.5q-7 13 -10.5 29t-6.5 41l-251 -16q-44 0 -119 10q-99 13 -125 34q-9 -10 -11 -18.5t-5 -15.5q-8 9 -15 27t-7 32q0 19 29 45q60 55 70 65q14 14 42 56 q24 35 49 75q54 87 82 143q42 85 42 131q0 23 -5 31.5t-25 8.5q-10 0 -41 -10q-77 -25 -97 -31t-34.5 -8.5t-27.5 -2.5q-21 2 -27 2q-8 0 -13 -5t-19 -27q-12 7 -16.5 26t-4.5 43q0 26 49 62q66 49 167 49q114 0 187 -92q62 -78 62 -164q0 -57 -38 -121l-96 -146 q158 -15 198 -27q102 -31 102 -114zM66 448q0 -9 -5.5 -14.5t-14.5 -5.5q-28 0 -28 48q0 28 19 53q6 -6 17.5 -41t11.5 -40zM647 -158q0 -23 -14 -23q-7 5 -10 10q-11 16 -11 40q2 5 3 12t1 22q14 -6 22.5 -24t8.5 -37zM579 -133q0 -17 -4 -23t-16 -6q-10 0 -15.5 10 t-5.5 18q4 10 6 16q6 13 15 31q12 -7 16 -18.5t4 -27.5zM42 -109q0 -5 -2 -12.5t-3 -12.5q-13 5 -17 16.5t-4 32.5l10 58h8z" />
<glyph unicode="3" horiz-adv-x="504" d="M492 187q0 -5 -4.5 -32t-12.5 -53q-1 -3 -1 -12q0 -10 3 -35t2 -33q-5 -9 -8 -15q-8 -13 -9 -18q-1 -4 3.5 -13.5t4.5 -15.5q0 -21 -7 -39.5t-16 -18.5q-11 0 -16.5 11.5t-5.5 25.5q0 20 12 38t12 20q-2 16 -4 23q-7 23 -19 23q-7 -5 -11 -8q-13 -10 -14.5 -19.5 t-2 -42.5t-0.5 -45q0 -33 2 -43h-25q-14 23 -14 38q0 7 7 21t7 29q0 19 -13 26.5t-32 7.5q-13 0 -22 -1.5t-19 -3.5q-115 0 -176 49q-45 56 -60 69q-8 -14 -11 -20q-6 -10 -14 -10q-18 0 -18 41q0 7 4 18q1 3 5 11q1 5 -3 26t-4 29q0 22 19 22q48 -32 103 -56 q63 -28 108 -28q57 0 80 17t23 61q0 33 -26 73q-30 46 -62 46h-89q-13 0 -41 12t-32 12q-2 0 -9 -9t-11 -9t-9 7q-13 18 -13 53q0 26 40 40q76 27 111 48q35 23 44 30q26 22 26 45q0 15 -17 20.5t-48 5.5q-22 0 -46 -1l-48 -2q-46 0 -69 10q-30 13 -30 45q0 13 56 36 q70 29 149 29q86 0 153 -83q57 -71 57 -128q0 -33 -12 -56q-15 -23 -29 -45q23 -24 44 -50q25 -30 34 -57q6 -15 15 -59.5t9 -56.5zM90 314l-10 -57h-13q-3 15 -3 27q0 11 1.5 29t1.5 21h13q4 -9 5.5 -12t4.5 -8zM59 -9q0 -6 -6 -13t-14 -7q-12 0 -16.5 14t-4.5 35 q2 13 4.5 28.5t7.5 23.5q10 -6 19.5 -36.5t9.5 -44.5z" />
<glyph unicode="4" horiz-adv-x="664" d="M653 168l-11 -2q-7 0 -16.5 16t-9.5 32q4 10 6 16q7 22 7 39q0 2 -1 9t-1 19q-6 4 -8 4q-28 0 -37.5 -22t-9.5 -58v-32l10 -361l-12 -3q-9 6 -13 10q-13 13 -13 27v75q0 4 5 14t5 17q0 11 -0.5 21t-0.5 20h-32q0 -25 -7.5 -37t-7.5 -30q0 -19 8.5 -30t8.5 -23l-2 -23 l-11 1q-15 0 -19 15.5t-4 41.5v75q-21 25 -40 60t-23.5 81t-6.5 84q-8 60 -26 60h-194q-9 -8 -22 -13.5t-34 -5.5q-18 0 -31 12q-37 33 -45 35q-4 -16 -4 -37q0 -19 3.5 -37t7.5 -35q0 -13 -12 -13q-17 0 -23.5 12t-6.5 32q0 15 2 31.5t2 18.5q-9 27 -14 45t-5 34q0 3 30 54 q39 65 71 123q44 76 52 88q43 63 73 63q16 0 34 -24q22 -30 22 -69q-10 -44 -15 -67q-17 -69 -26 -84v-17l166 -3q5 49 6 65.5t1 32.5v13q0 11 2.5 30.5t11.5 79.5q3 23 13 41q14 24 32 24q43 0 71 -207q4 -32 4 -54v-11t-1 -7q39 -34 65 -61.5t26 -60.5v-144z" />
<glyph unicode="5" horiz-adv-x="548" d="M537 468q-7 -2 -14 -3q-12 0 -17.5 10.5t-5.5 27.5q0 10 5 52q2 17 2 29q0 21 -11 21q-4 0 -19 -5t-24 -5h-40h-33h-27h-23h-19h-17h-15h-13h-12h-39t-41 1h-13q0 -15 5 -44t5 -66q7 -2 14 -2q6 3 17 3q16 0 53 -15q16 -7 32 -13q81 -35 125 -99t44 -150q0 -20 -10 -57.5 t-21.5 -62t-14.5 -68.5t-14 -58q-14 10 -17.5 38.5t-6.5 35.5q-50 -32 -88.5 -33.5t-38.5 -24.5q8 -14 12.5 -43t4.5 -84q0 -10 -6 -21q-16 6 -21.5 20.5t-5.5 37.5v21.5t1 21.5q0 35 -8 53q-11 26 -43 38q-71 28 -111 68q-46 45 -46 101q0 21 5 32t19 11q16 0 66 -44 t100 -44q22 0 48 61.5t26 107.5q0 44 -27 62q-21 14 -58 14q-15 0 -36 -3t-24 -3q-54 0 -75 41q-16 31 -16 94q0 13 1 40t1 40q0 30 -20.5 44t-20.5 26q0 16 44 28t103 12q10 0 54.5 3.5t97.5 8.5q62 0 129 -26q95 -37 95 -100q0 -12 -7 -23t-10 -15q11 -12 14 -25l6 -26 v-41zM433 -120q0 -20 -6.5 -28.5t-19.5 -8.5q-19 0 -23.5 19t-4.5 41q0 16 3 33t13 17q8 0 23 -23t15 -50z" />
<glyph unicode="6" horiz-adv-x="532" d="M516 184q0 -18 -6.5 -59.5t-13.5 -84.5l18 -136q0 -5 -5 -10t-10 -5q-14 0 -20.5 15t-6.5 38t4 47q1 8 5 22q0 5 -7.5 19t-14.5 14q-19 0 -19 -16q0 -7 3 -15.5t6 -14.5q2 -12 -3 -20t-8 -14q0 -50 6 -78l14 -46q0 -9 -5.5 -16t-15.5 -7q-7 0 -9 3q-6 9 -6 10 q-13 16 -13 27q0 8 6.5 15.5t6.5 8.5q-2 5 -3 9q-8 30 -8 77q0 24 -11.5 29.5t-41.5 5.5h-17q-47 0 -79 8q-50 13 -102 50q-71 53 -106.5 114.5t-35.5 129.5q0 64 20 131q17 58 44 104q36 62 86 116q62 66 104 66q37 0 79.5 -22.5t77.5 -60.5q29 -31 39 -61q7 -21 7 -50v-23 q0 -9 0.5 -17.5t5.5 -17.5v-13l-18 -3q-13 0 -18.5 6.5t-5.5 18.5q0 9 2 16t4 13q0 38 -29.5 40.5t-48.5 11.5q-45 21 -75 53q-11 12 -19 12q-15 0 -26 -23q-30 -73 -60 -145q59 0 119 -12.5t108 -49.5q56 -44 83 -116q19 -51 19 -94zM352 198q0 71 -46.5 128.5t-92.5 57.5 q-23 0 -31.5 -6.5t-8.5 -27.5q0 -26 13.5 -69t33 -74t33.5 -45q35 -37 74 -37q13 0 19 26t6 47z" />
<glyph unicode="7" horiz-adv-x="584" d="M567 614q-13 -20 -33 -54q-23 -38 -45 -113l-51 -174q-14 -48 -42 -107l-64 -132q-3 -14 -3 -25q0 -7 1.5 -20t1.5 -16q-1 -3 -7.5 -20.5t-6.5 -22.5q0 -9 9 -33q5 -14 5 -21q0 -25 -19 -25q-10 0 -19.5 15t-9.5 39q0 13 14 44q7 15 7 28q0 8 -1.5 15t-5.5 15 q-18 -16 -18 -27q2 -9 2 -13q0 -10 -14 -21q-10 7 -11 39t-22.5 48.5t-31.5 30.5q-19 26 -19 57q0 22 19 61t19 49l137 325v18h-232q-13 0 -32.5 6t-35.5 11q-4 -19 -7 -31t-13 -12q-6 0 -17.5 46.5t-11.5 53.5q0 33 66.5 53t203.5 20q116 0 175 -13q112 -25 112 -94z M51 472q0 -8 -4 -14q-7 -10 -20 -10q-8 0 -12.5 10t-4.5 24q0 9 5.5 28t12.5 27q11 -12 18 -40q2 -9 5 -25zM278 -106q0 -16 -11 -16t-15 8q-3 11 -5 15l3 21q9 -3 18.5 -11.5t9.5 -16.5z" />
<glyph unicode="8" horiz-adv-x="488" d="M470 146q0 -45 -30 -70t-30 -67h-17q-2 7 -6 17.5t-7 17.5q-9 -8 -13.5 -16.5t-4.5 -16.5q0 -6 5 -23t5 -30q0 -11 -4.5 -24.5t-8.5 -26.5q0 -5 14 -19q7 -7 7 -15q0 -7 -5.5 -12.5t-14.5 -5.5q-12 0 -20.5 28t-8.5 73q0 12 -9.5 36.5t-19.5 24.5q-10 -6 -17 -8 q-26 -9 -56 -9q-27 0 -52 9q-41 14 -95 55q-36 26 -52.5 60t-16.5 77q0 46 21 85l48 76q-26 36 -44 68q-21 36 -21 70q0 46 23 79t76 67q43 29 63 39q37 18 78 18v16l21 12q51 0 101 -44q64 -56 64 -144q-5 -18 -9 -39t-4 -44v-34q3 -18 4 -27l-8 -3q-9 0 -15 28t-15 42 q-5 -5 -41 -46q-12 -13 -36 -41q17 -13 28 -24q33 -32 70 -84q18 -27 35.5 -65t17.5 -60zM423 -51q0 -20 -16 -20q-10 0 -12.5 8t-2.5 23q0 18 2.5 22t11.5 4t13 -11.5t4 -25.5zM329 617q0 42 -31 42l-7 -3q0 -14 -11.5 -59.5t-18.5 -45.5q-18 0 -18 17q5 11 7 17q7 20 7 38 l-10 10q-33 -35 -65 -69q-43 -50 -43 -75q13 -11 19 -16q20 -16 24 -16q11 0 75 57q21 19 62 58q3 4 6.5 18.5t3.5 26.5zM294 129q0 49 -26 83q-18 23 -54 45l-30 -32q-25 -29 -25 -46q0 -34 21.5 -54.5t71.5 -20.5q17 0 29.5 5t12.5 20z" />
<glyph unicode="9" horiz-adv-x="468" d="M452 521l-11 -242q-6 -58 -11 -110q-10 -105 -12 -111q-8 -25 -12 -40q-12 -45 -12 -69q-1 -6 -4 -12q-7 -11 -7 -12q-2 -5 2 -23t4 -23q0 -21 -23 -21q-10 0 -14.5 10t-4.5 23q0 15 6 23q13 17 13 58q0 26 -10 37.5t-26 14.5q-5 1 -12 -5t-11 -6q-16 0 -32 123 q-1 10 2 39q9 82 9 90q-37 8 -56 11q-57 11 -62 11q-14 0 -22 -30.5t-22 -30.5q-19 0 -19 19q0 4 1 16.5t1 19.5q0 20 -4.5 36.5t-20 36t-42.5 69t-27 62.5q0 78 45 143q65 94 195 94q31 0 57 -8q20 -9 41 -18q6 0 13 14t23 14q28 0 44 -42q21 -54 21 -161zM134 186 q0 -15 -14 -15q-7 0 -18 13v21q7 2 15 4q8 0 12.5 -7t4.5 -16zM321 -52q-2 -10 -3 -14q-5 -15 -12 -15q-13 0 -18 41q0 7 -2 20q3 6 5 8q6 8 10 8q13 0 16.5 -13.5t3.5 -34.5zM332 593q0 15 -21 36t-38 21q-35 0 -78.5 -63t-43.5 -104q0 -23 18.5 -42.5t34.5 -19.5h74 q5 6 16.5 13t14 13.5t13.5 77.5q3 23 10 68z" />
<glyph unicode=":" horiz-adv-x="224" d="M186 546q0 -25 -25 -43.5t-63 -18.5q-34 0 -60 57q-22 49 -22 95q0 18 17 31t34 13q46 0 84 -48q35 -44 35 -86zM210 142q-7 -37 -11 -55q-12 -55 -15 -61q-3 8 -3 20q-4 1 -30 -2t-31 -2q-36 10 -50 57q-8 28 -8 67q0 31 9 58q14 42 43 42q35 0 69 -44q27 -35 27 -80z " />
<glyph unicode=";" horiz-adv-x="248" d="M194 463q0 -28 -25 -46q-31 -23 -67 -23q-29 15 -43 30q-43 47 -43 131q0 23 17.5 34t38.5 11q46 0 86 -53q36 -48 36 -84zM232 74q0 -27 -35 -87q-39 -67 -71 -67q-21 0 -28.5 9t-7.5 25q4 13 7 19q8 19 16 28v11q-35 12 -53 45.5t-18 66.5q0 35 35 58q27 18 47 18 q42 0 75 -35t33 -91z" />
<glyph unicode="&#x3c;" />
<glyph unicode="=" horiz-adv-x="428" d="M410 470q0 -30 -6 -42l-20 -24q2 -7 4.5 -18t2.5 -22q0 -12 -2.5 -20t-10.5 -19l-5 -8q-5 15 -10 15.5t-5 13.5q-3 20 -5 29q-7 29 -16 29q-6 0 -17.5 -10t-11.5 -22l9 -12q9 -14 9 -26q0 -15 -4.5 -20.5t-15.5 -5.5q-8 0 -12.5 6.5t-4.5 18.5t1.5 18.5t7.5 27.5 q-4 1 -8.5 1.5t-13.5 0.5q-12 0 -31.5 -1t-23.5 -1q-70 0 -109 23.5t-59 62.5q-3 6 -20 24q-13 14 -13 29q0 36 84 42q27 2 82 2q23 0 67.5 2t51.5 2q53 0 81 -29q24 -25 24 -67zM410 202q0 -30 -6 -42l-20 -24v-30q0 -26 -3.5 -48.5t-14.5 -36.5h-9q-5 13 -5 21q0 5 3 16 t3 20q-3 20 -5 29q-7 29 -16 29q-6 0 -17.5 -10t-11.5 -22l9 -12q9 -14 9 -26q0 -15 -4.5 -20.5t-15.5 -5.5q-8 0 -12.5 6.5t-4.5 18.5t1.5 18.5t7.5 27.5q-4 1 -8.5 1.5t-13.5 0.5q-12 0 -31.5 -1t-23.5 -1q-70 0 -109 23.5t-59 62.5q-3 6 -20 24q-13 14 -13 29q0 36 84 42 q27 2 82 2q23 0 67.5 2t51.5 2q53 0 81 -29q24 -25 24 -67zM326 -4q0 -44 -30 -44q-15 0 -21.5 4.5t-6.5 16.5q0 9 7 30t18 21q9 0 21 -8.5t12 -19.5z" />
<glyph unicode="&#x3e;" />
<glyph unicode="?" horiz-adv-x="432" d="M420 544q0 -20 -10.5 -65t-26.5 -83q-28 -65 -85 -76q-24 -5 -24 -15q8 -19 14 -46.5t6 -52.5q0 -17 -8 -42t-14 -25q-4 0 -14 11t-13 12q-5 -4 -11.5 -6.5t-18.5 0.5q-25 6 -49 45q-33 55 -33 143q0 17 44 53q32 26 57 58q36 45 48 74t12 60q0 24 -17 29.5t-49 5.5 q-14 0 -47 -6t-42 -7q-31 -6 -38 -38q-3 -15 -10 -15t-18 7q-11 -18 -11 -34q0 -8 3.5 -22t7.5 -26q-10 -4 -14 -4q-13 0 -17.5 15t-4.5 38v25v14q-11 17 -17 28.5t-6 28.5q0 35 48 62q58 33 154 33q25 0 50.5 -2t33.5 -5q29 -10 74.5 -70t45.5 -102zM103 519l-8 -3 q-3 0 -12 9v20l20 -3v-23zM330 -32v-13.5t1 -12.5q0 -12 -15 -12q-19 0 -19 19q0 5 5 26q2 8 2 15q0 11 -10 11q-22 0 -29 -16q-3 -7 -3 -30l-11 -7q-11 18 -15 32q-1 8 -2 15q-35 14 -60 41q-28 30 -28 67q0 11 14.5 23.5t36.5 12.5q7 0 38 -10q19 -6 43 -6q18 -31 29 -53 q23 -44 23 -102z" />
<glyph unicode="@" horiz-adv-x="724" d="M696 17h-680v698h680v-698zM687 26v680h-662v-680h662zM632 615h-299v-213h182v-64h-182v-267h-253v63h190v481h-200v59h562v-59z" />
<glyph unicode="A" horiz-adv-x="520" d="M499 154h-10v29q8 -11 9 -14t1 -15zM506 234q0 -3 -2 -9q-5 -16 -5 -29h-10q-4 16 -6 20q-6 10 -18 10t-18.5 -5.5t-6.5 -22.5q0 -6 15 -75t15 -87q0 -27 -17 -50q-9 -12 -9 -23l16 -62v-23l-6 -3q-8 10 -15.5 44.5t-13.5 69.5l-12 12q-11 12 -21 36q-23 57 -33 105 t-21 48q-8 0 -85 -11.5t-80.5 -14t-10.5 -24.5q-22 -68 -55 -139q-17 9 -26 9q-17 0 -24 -24l-12 -72q-3 -5 -13.5 -8.5t-18.5 -23.5h-7v77q11 54 27 126q32 137 71 263q25 78 43 126q15 39 26 70t17 49q22 61 29 83.5t12 34.5q10 23 20 23q6 0 10 -6t7.5 -9t10.5 -3 q6 0 13.5 -0.5t15.5 -7.5t35 -78q33 -89 39 -155q0 -21 9.5 -62.5t20.5 -86.5q6 -44 50 -50t44 -42zM418 -45q0 -4 -5 -20q-1 -5 -5 -15q-3 4 -6.5 8.5t-3.5 24.5v14q0 8 14 15q3 -13 6 -27zM418 -154q0 -2 -2 -6.5t-4 -9.5h-7q-13 15 -13 33q0 7 3 13t7 12q6 -4 11 -17 t5 -25zM113 -67l-4 43zM62 -141l-16 -3q1 4 2 7q7 13 7 15q5 -7 7 -19zM324 280q0 10 -16.5 123.5t-19.5 119.5q-16 -9 -19 -13q-21 -81 -31 -122q-31 -122 -34 -127z" />
<glyph unicode="B" horiz-adv-x="421" d="M405 223q0 -80 -67 -145q-34 -33 -68 -65l-4 4q-10 9 -14 9q-2 0 -13.5 -6.5t-33 -13.5t-45.5 -16q-8 -6 -16 -46q-1 -3 -1 -6.5v-4.5q0 -8 4.5 -19.5t4.5 -20.5l-3 -18h-17q1 4 1 12q0 5 -0.5 16t-0.5 27v11q0 6 -9 20t-16 14q-14 0 -18.5 -11.5t-4.5 -35.5 q0 -7 1 -26.5t1 -30.5q0 -29 -7 -51q-9 8 -13.5 21.5t-4.5 29.5q0 17 5 38q1 7 5 18q0 7 -4 19q-9 26 -9 44q0 14 16.5 32.5t16.5 32.5q0 11 -14.5 40t-14.5 74q-3 0 -5 1.5t-3 2.5q-3 -1 -4 -2q-10 -9 -18 -35h-17q0 10 -1.5 19t-1.5 17q0 51 14 69q29 36 30 38.5t1 20.5 q0 14 -0.5 28t-0.5 28v68q0 11 7 75.5t8 69.5q5 57 12 84q13 50 36 50q11 0 18 -4t18 -14q29 19 59 31t48 12q37 0 70.5 -33.5t33.5 -74.5q0 -40 -23 -100l-56 -120q66 -49 89 -80q29 -40 29 -97zM282 -37q0 -15 -12 -25q-3 3 -6 5q-6 6 -6 16t6 22h10q8 -12 8 -18zM38 84 l-3 -12h-14l-6 9v38h14q6 -13 7.5 -21t1.5 -14zM235 619v10h-14q-39 -31 -48 -49q-5 -10 -5 -32q0 -16 -4 -28v-70zM270 281q0 16 -4 28.5t-17 29.5h-9q-2 -4 -60 -65q-24 -25 -25 -35q-4 -39 -5 -62.5t-1 -60.5v-20q57 36 89 87.5t32 97.5z" />
<glyph unicode="C" horiz-adv-x="440" d="M382 361q0 -17 -15 -17q-10 0 -16.5 9.5t-6.5 23.5q6 4 6 30l11 3q8 0 14.5 -20t6.5 -29zM427 143q0 -15 -10 -38q-22 -51 -22 -59q0 -7 7.5 -33.5t7.5 -36.5q0 -14 -14 -14q-9 0 -13.5 12.5t-4.5 32.5q0 18 2 37.5t2 20.5q-17 -13 -21 -35.5t-4 -49.5q0 -22 7 -44t7 -34 q0 -16 -13 -16q-7 0 -17 15.5t-10 26.5q0 15 13 40q6 12 6 14q-2 5 -3 9q-4 14 -6 31q-2 0 -4 1.5t-3 2.5q-8 -10 -24.5 -18t-43.5 -8q-17 0 -42 6.5t-27 6.5l-10 -14q-15 9 -19.5 20.5t-6.5 13.5l-98 98q-44 70 -44 155q0 61 20 118.5t75 154.5q39 70 86 111q59 52 121 52 q30 0 59.5 -44.5t29.5 -94.5q0 -5 -6 -41q-12 -71 -19 -126h-16l-9 18t-3 15q0 7 6 27t6 24q0 5 -28 16t-28 86l-6 3q-12 0 -47 -41q-43 -51 -70 -117q-20 -49 -27.5 -93t-7.5 -82q0 -53 14 -87q19 -47 59 -47q27 0 78 29t63 29q23 0 40.5 -15.5t17.5 -37.5zM187 -31 q0 -16 -16 -30q-10 12 -10 23q0 7 2 15t5 16h12z" />
<glyph unicode="D" horiz-adv-x="424" d="M413 411q0 -48 -4 -89q-7 -71 -24 -116q-7 -19 -12.5 -45t-5.5 -57q0 -19 5 -54q2 -14 2 -22q0 -16 -15 -16q-13 0 -13 19q0 5 1 21.5t1 26.5q0 16 -1.5 27.5t-5.5 25.5q-8 -6 -40.5 -39.5t-45.5 -50.5q-2 1 -7.5 6.5t-9.5 5.5q-14 -8 -22 -11q-28 -12 -49 -12 q-5 0 -15 2l9 -100q-5 -19 -7 -28q-8 -28 -11 -28q-17 0 -17 16q0 7 7 16q-15 13 -15 26q0 6 2.5 18.5t2.5 17.5q0 19 -6.5 25.5t-18.5 6.5q-19 -2 -29 -2q-7 0 -18 7q-35 23 -35 72q0 12 5.5 18.5t6 8t0.5 18.5q0 14 -2 80t-2 106q0 35 6.5 95.5t13.5 115.5q4 49 8 77.5 t14 85.5l2 22q4 15 18 15q13 0 28 -17q8 -9 13 -9q15 10 35.5 18t45.5 8q88 0 146.5 -90t58.5 -221zM273 -25q0 -12 -11 -12q-9 0 -13 6q-3 8 -4 10l3 44q10 -10 17.5 -25t7.5 -23zM285 487q0 61 -9.5 99.5t-19.5 38.5q-17 0 -54 -28q-25 -20 -50 -39q0 -56 1.5 -128 t1.5 -80q0 -39 6 -86.5t14 -80.5q64 26 92 142q18 75 18 162z" />
<glyph unicode="E" horiz-adv-x="460" d="M350 545q0 -11 -13 -11q-12 0 -12 18q0 1 7 17q12 -8 13 -10q5 -7 5 -14zM447 82q0 -22 -16 -54t-16 -40q0 -12 11 -51q6 -23 11 -29v-23l-11 -2q-13 0 -16.5 16t-7 18.5t-15.5 6t-15 11t-4 15.5t-1 17q0 7 0.5 14.5t1.5 16.5q0 18 -11.5 22.5t-32.5 4.5q-12 0 -52 -7 q-62 -11 -66 -11.5t-10.5 -0.5h-9.5h-24q-22 0 -32 -5t-10 -23q0 -8 9.5 -27t9.5 -35q0 -15 -4 -23.5t-5 -10.5h-11q-9 12 -9 32q0 12 5 31t5 20q0 16 -54.5 54t-54.5 65q0 3 14 21q8 10 9 13l-6 115v148l27 244q-5 14 -13 23.5t-8 25.5q0 28 47.5 39.5t111.5 11.5 q29 0 86 -4.5t96 -11.5q16 -3 33 -6q25 -7 25 -22q0 -32 -18 -56t-18 -72l-10 -2q-11 0 -11 10q0 11 1 24l2 26q-5 0 -6.5 1t-2.5 2q-5 0 -21 -21q-8 -11 -15 -11q-4 0 -13.5 9.5t-17.5 9.5q-7 -4 -37 -7t-85 -3q-11 1 -15 1q-8 0 -10 -10.5t-2 -26.5q1 -10 2.5 -43.5 t1.5 -80.5q3 -2 5.5 -4t18.5 -2q24 0 93 10q35 5 71 11q36 0 66 -19.5t30 -51.5q0 -28 -10 -53q-8 -16 -15 -31q-2 -10 -2 -17q0 -9 1 -17.5t2 -15.5q0 -14 -12 -14q-16 0 -16 20q0 7 5 31q2 10 2 15q0 25 -11 25q-15 0 -21 -6t-6 -16q0 -6 2 -15t2 -10q-2 -1 -7 -1.5 t-11 -1.5q-2 7 -2 21q0 6 1 15t1 12q0 14 -13 14q-5 0 -49 -10q-114 -26 -115 -26v-134h153q29 0 69 -17q56 -24 56 -61zM405 -34q0 17 -1 20.5t-12 13.5q-3 -6 -7 -10l-5 -5q5 -11 12 -24.5t11 -17.5z" />
<glyph unicode="F" horiz-adv-x="496" d="M402 507q-9 -3 -11 -3q-14 0 -14 21l3 14h12l10 -16v-16zM479 631q0 -7 -26 -52q-14 -24 -14 -39q0 -3 8 -20q5 -11 5 -20q0 -8 -5.5 -14.5t-12.5 -6.5q-13 0 -17.5 9t-4.5 29q0 9 1 33t1 26l-6 6l-16 -25q-12 10 -14.5 27.5t-17.5 17.5q-58 -8 -88 -13q-90 -15 -105 -25 v-151q144 0 191 -20q65 -28 65 -120l-2 -69q-6 -2 -11 -4q-6 0 -14.5 23.5t-6.5 39.5l-3 22l-15 -19q-10 4 -17.5 15t-13.5 11q-37 -6 -59 -8q-74 -9 -114 -9v-240q0 -26 -22 -52t-22 -47q0 -10 10.5 -29t10.5 -34q0 -22 -17 -22q-15 0 -21 36q-9 55 -11 60q-4 -16 -4 -23 q1 -8 1 -12q0 -6 -3 -18l-7 -4q-10 10 -10 11q-3 9 -5 17v61q5 3 10 3q11 0 14.5 -10.5t6.5 -21.5q6 14 6 27q0 8 -28 27q-33 22 -42.5 56t-12 52t-2.5 68q0 105 16 212.5t34 216.5q-13 18 -23 34t-10 35q0 24 43.5 34.5t125.5 10.5q140 0 197 -15q77 -20 77 -77z" />
<glyph unicode="G" horiz-adv-x="612" d="M597 127l-11 -2q-19 0 -19 31q0 22 9 51q-5 3 -7 5.5t-10 2.5q-27 -9 -41 -13q-45 -15 -53 -19q23 -31 23 -69q0 -9 -5.5 -27t-11.5 -37q0 -13 11 -30q25 -38 25 -49q0 -18 -23 -18q-19 0 -26.5 17.5t-7.5 44.5q0 19 1.5 32t3.5 22q-10 -8 -14.5 -31t-4.5 -56 q0 -36 3 -71t6 -60q-7 -1 -13 -3q-9 0 -17.5 15.5t-8.5 32.5q0 10 5 25q12 35 12 46q0 18 -15.5 35.5t-35.5 17.5l-84 -17q-14 -2 -20 -2q-16 0 -32.5 3.5t-32.5 7.5q-3 0 -13 -23q-3 -7 -9 -23q0 -1 14 -17t14 -50l-7 -21h-10q-12 16 -16.5 30.5t-4.5 29.5q0 10 3 26t3 23 q0 9 -2 13q-6 14 -23 27q-55 43 -57 45q-41 48 -57 97t-16 104q0 47 19.5 105.5t68.5 148t99 141t88 51.5q51 0 107 -45q66 -53 82 -131q3 -17 3 -30q0 -18 -3.5 -32t-5.5 -23q0 -13 11.5 -23.5t11.5 -22.5q0 -11 -7 -21t-13 -10q-19 0 -27 12.5t-8 33.5q0 20 7 46q1 4 4 11 q0 17 -31.5 18t-55.5 37q-20 31 -30 50q-13 25 -25 51q-8 -7 -45 -78q-48 -91 -76 -171q-40 -113 -40 -191q0 -36 22 -63t50 -27q16 0 45.5 9t29.5 22q-20 19 -36 41.5t-16 44.5q0 20 51 42q60 26 144 26q43 0 85 -13q66 -21 66 -61v-94zM246 -133q0 -10 1 -13l2 -6 q-6 -5 -12 -11l-17 17v53h14q4 -7 8 -14.5t4 -25.5z" />
<glyph unicode="H" horiz-adv-x="580" d="M564 159q0 -18 -7 -30h-21l-3 35q0 13 5.5 26t8.5 22q11 -11 14 -22t3 -31zM564 342q0 -15 -4.5 -25.5t-5.5 -18.5q3 -9 5.5 -21t2.5 -26l-12 -3q-14 0 -14 32q0 21 11 46q-6 4 -11 9q-34 0 -44 -29q-5 -14 -5 -58v-122q0 -35 -40 -65t-40 -54q0 -16 9 -58l9 -39 q0 -14 -4.5 -17t-15.5 -3q-12 0 -21 26q-2 8 -6 26q6 35 9 52q9 54 9 62q0 4 -4 14q-13 35 -17 53q-8 46 -11 99.5t-15 68.5q-18 -11 -87 -21t-85 -22q0 -79 -3 -129q-4 -40 -7 -80q0 -54 3 -92q7 -89 7 -90q-7 -2 -14 -2q-6 0 -14 2q0 6 -4 20t-4 24q0 5 7 40t7 55 q0 12 -6 22q-14 -6 -19 -7.5t-13 -1.5q-48 0 -71.5 53t-23.5 135l19 280l15 115q5 39 9.5 73t11 42t21 10.5t29.5 4.5q17 0 33 -35q21 -46 21 -117v-128q0 -8 -3 -26t-3 -25q0 -20 16 -20q20 0 28 3q22 8 52 14t62 7t32 26q0 14 -0.5 27.5t-0.5 27.5v12l9 102q9 100 12 110 q10 22 36 22q40 0 49 -97.5t9 -100.5l11 -108q0 -13 37 -29t37 -45zM463 -12q0 -2 -0.5 -18.5t-0.5 -19.5v-17h-16q-2 9 -5 19.5t-3 15.5q5 8 9 28t4 43q15 -11 15 -15q0 -3 -1.5 -15.5t-1.5 -20.5z" />
<glyph unicode="I" horiz-adv-x="176" d="M159 51q0 -21 -6.5 -35.5t-23.5 -14.5q-36 0 -72 45q-45 56 -45 141q0 27 1 49.5t4 54.5l15 226q0 87 13 150t35 63q19 0 46 -62.5t27 -118.5q0 -113 1 -181t3 -165.5t2 -151.5zM153 -147q-10 -10 -20 -10q-17 0 -17 17q0 10 6 25q2 5 6 13q-6 5 -9 8q-7 7 -7 24 q0 9 5.5 26.5t12.5 17.5q8 0 12 -8t4 -19q0 -29 -6 -42q-2 -4 -7 -8l6 -15q8 -18 14 -29z" />
<glyph unicode="J" horiz-adv-x="356" d="M340 169q0 -20 -21 -99t-27 -88q-10 10 -15 26t-16 16q-5 0 -26 -12.5t-37 -12.5q-32 0 -80 34q-38 27 -67 67q-8 -8 -10.5 -19t-2.5 -26q0 -20 -3 -31q0 36 -6 60q-13 52 -13 76q0 36 18 65.5t46 29.5q20 0 48 -68t74 -68q16 0 20 39t4 176q0 75 -1.5 170t-1.5 107 q0 64 12.5 89t36.5 25t41 -55q14 -45 14 -101q4 -45 8.5 -95.5t4.5 -76.5v-228zM313 -115q0 -13 -14 -13q-8 0 -16.5 13t-8.5 35l3 24q5 24 13 24q13 0 18 -26.5t5 -56.5zM80 -53q-10 4 -16 16l3 67q8 -6 13 -17v-66zM60 -97l-11 -2q-7 0 -11 15.5t-4 35.5q0 16 2 24l3 12 q13 -14 13 -36t8 -33v-16z" />
<glyph unicode="K" horiz-adv-x="480" d="M370 416v-5q-3 -20 -3 -25q0 -6 2 -18l-19 -3q1 5 1 14q-1 14 -1 23q0 18 1 23.5t9 15.5q3 -6 6.5 -12t3.5 -13zM370 325l-3 -19h-7q-4 5 -5 7q-5 8 -5 13l7 14zM464 -9q-3 -7 -6 -15h-9q-3 8 -5 16q-7 12 -22 12q-17 0 -21 -11q-10 -25 -13 -29q0 46 -58 71 q-41 17 -68 48q-44 49 -70 90q-35 54 -46 60v-43q5 -18 11.5 -83t6.5 -77q2 -10 2 -16q0 -11 -2.5 -18t-8.5 -14q-6 11 -13.5 16.5t-21.5 5.5q-65 0 -86 93q-13 57 -13 194l-3 184q0 39 2.5 82.5t8.5 92t15.5 62.5t25.5 14q15 0 30 -27q19 -35 19 -90q0 -39 1.5 -90t1.5 -57 l6 -6q30 50 52.5 87t60.5 85q14 22 23 32q27 32 48 32q25 0 40 -32.5t15 -74.5v-104l-7 -9h-9q-10 19 -10 37q1 16 1 23q0 12 -6 22q-10 -12 -17 -30q-19 -53 -32 -74q-24 -41 -41 -64q-20 -28 -20 -35q0 -5 41.5 -63t83.5 -116q71 -94 88 -118q25 -34 25 -63zM464 -102 q0 -16 -14 -16q-4 2 -5 3q-5 5 -5 15q0 7 3 20t6 19q9 -10 12 -21t3 -20zM403 -98h-9l-3 31q5 -2 12 -9v-22zM404 -159h-10l-6 17q0 3 2.5 11.5t3.5 11.5h10v-40zM171 -113l-12 -3q-5 0 -11 12t-6 21q0 4 3.5 16t6.5 18q7 -8 10.5 -21.5t8.5 -30.5v-12z" />
<glyph unicode="L" horiz-adv-x="496" d="M485 24q0 -19 -2.5 -28.5t-12.5 -22.5v23t1 22q0 14 -1 22l-7 3q-6 0 -16 -28t-10 -37q0 -13 7.5 -23.5t16.5 -10.5q3 0 9 4q6 -14 6 -17q0 -5 -3 -16l-10 13q-5 -4 -10 -8.5t-11 -4.5q-20 0 -20 20q0 11 2 21q7 35 7 37q0 6 -4.5 22t-11.5 16q-10 -5 -18 -7 q-27 -7 -67 -7q-30 0 -58 1.5t-54 1.5q-17 0 -23.5 -10t-6.5 -27q0 -11 5 -35q2 -9 2 -13q0 -7 -4.5 -13.5t-9.5 -6.5q-13 0 -13 20q0 8 2.5 30t2.5 27q-61 0 -86 35q-11 16 -28 16l-11 -3q0 -8 -1.5 -15.5t-1.5 -10.5q-12 20 -28 59q-2 6 -7 17q0 10 19 23t19 48 q0 17 3 172t3 195q0 2 3.5 13.5t2.5 13.5q-6 27 -6 43t4 35q7 57 13 75t13 18q37 0 61.5 -61t24.5 -159q0 -66 1.5 -151t1.5 -95v-89q1 -15 6 -24.5t24 -9.5q13 0 44.5 2.5t43.5 2.5q133 0 167 -24q27 -19 27 -94zM192 -129l-6 -3v16zM51 -24q-7 2 -12 6v16q5 -2 12 -9v-13z " />
<glyph unicode="M" horiz-adv-x="568" d="M552 93q-2 -46 -3 -70q-5 -72 -12 -83q-1 13 -10 27q-2 -10 -4 -21.5t-8 -21.5q-9 7 -12.5 16t-3.5 19q0 12 1 24q-2 7 -14 16q-18 14 -23 20q-28 30 -33 58q-2 21 -4 43q-14 62 -19 114q-8 83 -11 92q-6 -6 -29.5 -89t-26.5 -101q-8 -44 -14.5 -67.5t-21.5 -64.5 q-4 -24 -6 -38t-15 -14q-9 0 -11.5 8.5t-4.5 14t-9 11.5q-19 16 -22 21q-8 14 -10 45.5t-17 71.5q-26 72 -51 144q-5 14 -17 30l-3 -370q-1 -6 -2 -8q-4 -8 -14 -8q-11 0 -11 22v22q0 19 -5 32.5t-22.5 22.5t-37.5 33q-27 32 -27 61v212l35 259q-2 12 -13 34.5t-11 32.5 q0 17 13 17h22q3 2 10.5 17t17.5 15q27 0 36 -53q2 -17 2.5 -35.5t11.5 -36.5q16 -28 38 -73q31 -65 55.5 -128t30.5 -71q7 4 34 89t33 113.5t23 78.5l20 56q2 11 -2.5 38.5t-4.5 32.5q0 15 4 24t15 9q12 0 21 -9t13 -9q1 0 10 6t20 6q34 0 47 -30q9 -20 9 -62 q0 -12 -0.5 -23t-0.5 -21l-2 -29q-16 14 -16 25q0 4 1.5 11.5t-0.5 12.5q-10 -15 -11.5 -19t-1.5 -11q1 0 20 -87t34 -185q20 -133 20 -219zM290 -88q0 -8 -1 -15t-2 -15q0 -10 2 -16h-13q-2 4 -9 40q-1 5 -3 16l6 12q8 -3 14 -10t6 -12zM132 -143h-15q-2 2 -2 3 q-5 10 -5 16l4 15h15l6 -18z" />
<glyph unicode="N" horiz-adv-x="464" d="M36 589l-6 -3l-6 9v25h9zM448 27q0 -40 -10 -61t-10 -43q2 -8 3 -16q6 -35 9 -67h-16q-6 9 -8.5 18t-2.5 19q0 7 2 22t2 22q0 37 -61 110q-42 50 -65 101q-11 25 -30 61q-13 25 -25.5 49.5t-26.5 58.5q-17 41 -27 52l-4 -6q6 -33 8 -55q9 -72 9 -126l-19 -249 q0 -10 3 -18t16 -25v-9l-10 -6q-14 0 -19.5 16.5t-5.5 39.5q0 24 0.5 30t2.5 10q-3 28 -10.5 39t-25.5 11q-13 0 -29 -4q-22 34 -32 52q-20 34 -20 63q0 59 1.5 133.5t1.5 84.5q4 18 6.5 45t2.5 55v80l10 82q0 18 -10 36t-21 18q-5 0 -10 -5q-16 18 -16 32q3 9 4 13 q6 14 10 14t10 -4q13 -9 39 -19q4 7 7.5 21.5t14.5 14.5q22 0 38 -36q11 -42 23 -83q2 -5 25 -38q11 -15 22 -37q5 -9 39 -81q50 -106 60 -121v171q0 30 11 94q15 89 35 89q36 0 63 -227q8 -67 19 -156q6 -47 6 -60q0 -11 -3 -20zM120 -86h-16v63q10 -12 11.5 -20.5 t4.5 -17.5v-25zM123 -129l-3 -6h-10l3 28q7 -10 10 -22z" />
<glyph unicode="O" horiz-adv-x="452" d="M436 279q0 -72 -30 -178q-15 -53 -15 -76q-1 -10 -2 -24t-1 -24v-24q0 -6 6 -25t6 -35q0 -13 -4 -18t-17 -5t-21 19t-8 35q10 25 14 41q15 53 15 98v17q-1 7 -1 10q-15 -13 -46 -41q-23 -20 -30 -28.5t-10.5 -19.5t-3.5 -22q1 -16 1 -22q0 -7 -1.5 -14t-11.5 -14 q0 73 -56.5 74t-117.5 59q-33 31 -59.5 101.5t-26.5 139.5q0 68 26 155q36 119 101 182q24 24 47 42q50 39 78 39q6 0 28 -40q19 -34 42 -63q11 -14 29 -48.5t27 -59.5q26 -76 34 -120.5t8 -110.5zM303 -147l-3 -17h-18q-10 18 -10 33q0 6 2 10.5t8 15.5h10q8 -23 9.5 -30 t1.5 -12zM318 293q0 113 -17 198q-21 103 -47 127q-57 -57 -88 -179q-24 -94 -24 -168q0 -87 21.5 -122t66.5 -35q49 0 72 71q16 50 16 108z" />
<glyph unicode="P" horiz-adv-x="416" d="M398 516q0 -106 -79 -181l-96 -72q-8 -9 -14.5 -32t-6.5 -45q0 -13 3 -22v-28l-14 -3q-3 10 -4 20.5t-1 17.5q0 8 1 21.5t1 18.5q0 16 -4 25t-17 18l-19 -336q-20 -2 -20 25q0 5 1 19t1 23q0 14 -3 29l-6 6q-7 -9 -12 -21q-6 7 -8.5 16t-4.5 17q-26 32 -52 65 q-21 47 -21 126q0 56 10 144.5t21 180.5q-4 7 -4 11l-15 3q-7 -17 -7 -35q0 -7 1 -20t1 -19q0 -11 -4 -19q-2 8 -10 56q-2 14 -7 42q0 30 25 58q8 9 26 22q9 11 14 46t25 35q21 0 30 -10q8 -14 13 -22q20 10 41 21q33 15 50 15q68 0 123 -76q42 -58 42 -140zM109 -37 q0 -6 -6 -20h-10q-3 19 -3 25q4 4 6 8q13 -6 13 -13zM292 594v16q0 26 -7 33t-38 7q-35 0 -57 -10q-33 -15 -36 -50l10 -204q52 19 92 90q36 64 36 118z" />
<glyph unicode="Q" horiz-adv-x="476" d="M468 -41q0 -10 -3 -23q-7 -30 -7 -73q0 -15 -16 -15q-14 0 -14 19q0 5 5 35q2 12 2 22t-3 16h-25v-109q-5 -1 -9 -3q-7 0 -14 8t-7 15q0 3 6 15t6 17q0 20 -27 69q-20 37 -52 70q-15 -8 -19.5 -34t-14.5 -38q-5 13 -5 23v11q0 12 -6 21q-51 21 -97 44t-77 62 q-41 50 -60 126q-14 56 -14 115q0 42 13.5 88.5t54.5 126.5q20 43 67 94q60 66 105 66q25 -26 38 -39q24 -26 49 -51q20 -20 37 -46.5t26 -56.5q13 -44 28 -93t15 -124q0 -86 -18 -134q-21 -42 -41 -84q0 -1 29.5 -33.5t29.5 -46.5q3 -3 5 -6q13 -20 13 -54zM298 -122 q0 -17 -15 -17q-12 0 -12 33l3 27h8q9 -10 12.5 -18.5t3.5 -24.5zM321 422q0 76 -25 148q-19 54 -35 70q-60 -60 -93 -159q-26 -78 -26 -144q0 -34 10.5 -89.5t32.5 -78.5q7 -3 13 -6.5t11 -12.5h13q-22 46 -36 85q-5 13 -11 32q0 8 7 13t24 5q20 0 46.5 -16t35.5 -30 q21 33 29 111q2 26 4 72z" />
<glyph unicode="R" horiz-adv-x="480" d="M468 -51l-9 -2q-6 0 -11.5 27.5t-7.5 31.5q-11 -3 -16 -22t-5 -43q1 -11 1 -15v-22q-6 7 -10 54.5t-9 53.5q-10 6 -27.5 16t-40.5 29q-27 22 -75.5 86.5t-63.5 83.5h-7q0 -52 3.5 -125.5t3.5 -104.5q-1 -16 -3 -36t-11 -48q-16 11 -16 28q0 7 2.5 19.5t2.5 14.5 q0 15 -13 25q-3 2 -17 5t-25 10.5t-21 22.5q-13 21 -27 35q-5 -2 -7 -4t-2 -15q-6 3 -11.5 6.5t-5.5 16.5q0 60 1 155t1 156q-3 14 -11 23.5t-8 15.5q14 10 25 48t11 98l-2 10h-11q-4 -18 -6.5 -39t-2.5 -47l-13 -3q-2 4 -4.5 10t-2.5 9q0 91 13 115q24 22 42 39 q12 10 14 18.5t2 16.5q5 5 14 5q5 0 18.5 -3t21.5 -2q6 1 48 13t48 12q72 0 136 -65q55 -55 55 -140q0 -74 -23.5 -116t-126.5 -100q80 -75 132 -141q57 -72 57 -120v-96zM477 -138l-8 -3q-8 8 -11 13q-12 18 -12 37q3 13 6 27q10 -11 13 -22q9 -32 12 -36v-16zM177 -153h-9 l-9 12q0 1 1.5 5.5t1.5 16.5h12zM57 -15q0 -6 -5 -15t-5 -18q0 -7 3 -19l-7 -3q-8 0 -10.5 9.5t-2.5 21.5q0 7 3 16q7 22 7 45q8 -7 12.5 -15.5t4.5 -21.5zM317 575q0 25 -16 34.5t-50 9.5q-30 0 -50 -7q-34 -12 -34 -40q0 -39 7 -86t10 -52q26 13 52 27q81 47 81 114z" />
<glyph unicode="S" horiz-adv-x="476" d="M459 212q0 -35 -7 -60t-13 -45q-9 -41 -25 -61q-18 -15 -35 -29q-4 -5 -4 -17q3 -25 5 -44t2 -43q0 -14 -6 -23t-18 -9q-7 0 -11 9t-4 16q5 12 7 19q8 25 8 43q-5 4 -7 8q-8 13 -8 35q-6 3 -8 3q-18 0 -24.5 -35t-11.5 -69q-14 9 -14 35q0 8 2 27t2 31q-13 0 -34 -1 t-34 -1q-73 0 -117.5 46.5t-64.5 46.5q0 18 -12 40t-12 39q0 13 9.5 31t19.5 18q19 0 74 -47q18 -15 52 -47q20 12 32 20q36 26 58 53q6 7 21 38.5t31 64.5v23l-10 4q-32 -17 -48 -26q-50 -30 -54 -42q0 -2 -0.5 -10t-0.5 -9q0 -13 0.5 -25t3.5 -39q-5 -3 -9 -6 q-9 0 -15.5 8t-6.5 24q0 9 13 44q7 19 7 21q0 7 -38 26q-44 22 -61 60q-5 9 -22 54.5t-17 59.5q5 27 10 43q15 49 39 87q26 35 91 78q54 36 90 36q39 0 93 -53q45 -44 62 -108q2 -9 11 -26.5t9 -19.5q-10 -12 -15 -20q-16 -26 -16 -46q7 -15 12.5 -27t5.5 -23q-5 -13 -7 -25 h-16q-4 13 -5 22.5t-1 21.5q0 9 1 20.5t3 25.5q0 14 -6 22.5t-25 17.5q-34 16 -53.5 53.5t-37.5 73.5q-18 -10 -57 -76.5t-56 -117.5v-25q39 13 62.5 19.5t35.5 6.5q45 0 101 -50q74 -66 74 -169zM301 -138q0 -9 -4.5 -12.5t-7.5 -5.5q-14 14 -14 23q1 3 1 4q6 15 7 20 q6 -3 13 -6q5 -5 5 -23z" />
<glyph unicode="T" horiz-adv-x="508" d="M447 506h-15l4 24h8zM496 618q0 -18 -10 -85.5t-17 -79.5q-13 8 -15 10q-5 5 -5 15q0 4 17 53q9 26 9 32q0 12 -12 27q-10 -10 -10 -17q0 -16 -3 -24h-9v16q0 27 -6 33t-35 6h-105v-88l21 -231v-78q-1 -12 -1.5 -20.5t-0.5 -14.5q0 -22 0.5 -32t2.5 -19q-6 -29 -11 -48 q-15 -55 -36 -101q-2 -4 -2 -12q0 -6 2.5 -22.5t2.5 -27.5q0 -27 -2 -37t-16 -10q-7 0 -10.5 12.5t-3.5 25.5q0 24 8.5 38.5t17.5 29.5q0 23 -9.5 34.5t-27.5 20.5q-9 -18 -9 -29q2 -11 2 -16q0 -8 -7 -16q-16 65 -34 119q-23 68 -23 147l27 388q-58 0 -100 16 q-53 20 -70 60v11q33 9 64.5 14.5t65.5 5.5q41 0 94.5 1.5t60.5 1.5q104 0 139 -14q56 -22 56 -95zM221 -103l-9 -2q0 8 -2 24t-2 19q7 -3 13 -9v-32zM221 -196h-13q-7 15 -7 17q3 9 4 14q11 -5 16 -16v-15z" />
<glyph unicode="U" horiz-adv-x="412" d="M395 -9l-19 9q-3 -18 -5 -45.5t-2 -86.5q-3 6 -9.5 57t-21.5 72q-3 5 -19 14q-5 3 -15 8q-11 10 -16.5 19t-9.5 9q-20 -8 -30 -13q-30 -17 -30 -34l23 -104q-6 -1 -11 -2q-8 0 -12.5 17t-11.5 23v-47q14 -11 14 -24q0 -5 -1.5 -7.5t-3.5 -6.5h-15q0 36 -2.5 76t-7.5 56 q-8 24 -32 41q-68 48 -79 63q-41 58 -54 121q-6 67 -11 135q2 15 11 83q6 43 6 83v66t1 53q0 26 9.5 62.5t23.5 36.5q46 0 67 -91q14 -62 14 -143v-154q0 -59 19 -126q23 -82 58 -82q25 0 36 15q8 11 8 32q0 13 -2 23.5t-3 18.5q0 75 2 215.5t2 161.5q0 46 10.5 87t26.5 41 q37 0 59.5 -77.5t22.5 -229.5q0 -38 -0.5 -74.5t-0.5 -70.5q0 -59 2 -110t9 -120q2 -12 4 -23q0 -8 -4 -27zM404 -40q-4 -10 -6 -17h-10v35l7 6q9 -21 9 -24z" />
<glyph unicode="V" horiz-adv-x="488" d="M460 356q0 -25 -16 -39h-10l-7 31q3 11 4 16q5 15 10 25h10q4 -8 6.5 -16t2.5 -17zM476 583l-22 -168h-20q1 3 2.5 24t1.5 31q0 23 -4 34l-121 -412q13 -31 17.5 -47t4.5 -24q0 -7 -4 -34q-11 -73 -11 -74l-7 -2q-4 0 -11 37.5t-38 37.5q-10 0 -14 -27.5t-17 -27.5 q-9 0 -11.5 6t-2.5 21v15q0 18 -1.5 28t-8.5 23q-13 18 -25 37q-8 19 -23 55q-28 65 -38 100l-22 90q-17 58 -45 176q-39 164 -39 209q0 15 7 25.5t20 10.5q17 0 48 -41q44 -58 81 -166l74 -220q6 12 51 135q24 66 25 69q7 24 18 58q16 49 30 79q8 19 16 32q14 23 27 23 q21 -11 31 -22q31 -34 31 -91zM319 -132q0 -9 -1.5 -19.5t-10.5 -22.5q-13 9 -13 14q1 7 1 13q0 12 3.5 22t5.5 18h10q5 -10 5 -25zM250 -129q-3 -5 -3 -9h-13q-2 5 -3 9l3 13h10q3 -5 4.5 -7t1.5 -6zM437 507v10v-10z" />
<glyph unicode="W" horiz-adv-x="668" d="M650 643q0 -81 -29 -230q-17 -88 -58 -256q-37 -153 -38 -157.5t-1 -14.5q0 -14 5 -27q2 -6 5 -12q0 -6 -4 -13.5t-5 -10.5t-1 -9q0 -1 5 -30q2 -11 2 -26l-8 -4q-8 0 -14 8.5t-6 17.5q0 2 10 18q5 8 5 16q0 16 -15 27q-10 7 -34 16q0 -28 -2.5 -63t-6.5 -43h-10 q-7 10 -8 58.5t-8 98.5q-2 15 -15 52l-14 36q-13 44 -21 70q-46 151 -56 174q-7 -7 -27 -70q-24 -76 -24 -126q0 -8 6.5 -23.5t15.5 -34.5q3 -12 3 -29q0 -22 -4.5 -51.5t-7.5 -54.5q3 -18 7 -38t4 -38q0 -2 -1 -9t-1 -18l-8 -2q-15 10 -23 16q-25 20 -31 39v38h15l13 -22 q7 12 9.5 31.5t2.5 43.5l-6 12q-9 -9 -10 -27t-2 -23h-10q-12 54 -47.5 74t-38 26.5t-2.5 17.5q0 10 -0.5 19.5t-4.5 26.5q-3 7 -23 79t-27 106.5t-30 115t-44.5 160t-21.5 95.5q0 8 8.5 15.5t15.5 7.5q40 0 66 -67l30 -80q16 -37 32.5 -83t23.5 -83l7 -6q6 11 26 81 q14 50 30 91q6 14 32 110q12 45 36 45q22 0 56 -76q30 -67 40 -117q4 -20 30 -115q8 -31 26 -92q4 9 23 87q0 1 36 134q14 52 22 84q13 53 15.5 70t5.5 36q7 16 24 16q34 0 47 -24q8 -15 8 -47v-17z" />
<glyph unicode="X" horiz-adv-x="428" d="M414 25q0 -6 -4 -45t-7 -43h-16q7 9 7 21q0 6 -2 15q-5 23 -5 37l-32 -6q-43 0 -76 46q-23 37 -45 74q-11 -9 -43 -61q-36 -59 -36 -79q0 -5 8 -33q4 -13 10 -32v-19l-10 -2q-18 0 -23 16.5t-5 48.5v13q0 28 -5 42.5t-22 14.5q-14 0 -14 -26q0 -18 6 -45q3 -15 7 -31h-15 q-7 10 -10 23t-3 25q0 6 1 20t1 21t-2 21q-5 19 -10 39q0 24 41 117t41 105q0 6 -35 95q-59 150 -66 168q-36 96 -36 110q0 43 32 43q35 0 96 -103q40 -69 80 -137q8 16 39 96q19 49 37 88.5t20 42.5q14 23 31 23q19 0 38 -20t19 -39l8 -186v-11q0 -10 -1.5 -16t-6.5 -12 q-15 8 -20.5 19t-5.5 28q0 11 7 50q4 22 4 32q0 18 -7 32q-11 -15 -54 -155q-14 -46 -41 -136q31 -62 62 -127q63 -132 63 -162zM408 -142l-2 -9h-9q-4 5 -5 7q-5 7 -5 24l3 17q10 -6 14 -15.5t4 -23.5zM110 -131l-6 -11q-17 12 -17 26q4 10 5 16q18 -10 18 -31z" />
<glyph unicode="Y" horiz-adv-x="487" d="M488 399q0 -4 -9 -18q-9 4 -14.5 12.5t-5.5 27.5q0 5 0.5 10.5t5.5 15.5h8q6 -7 10.5 -21t4.5 -27zM488 496q-4 -5 -5.5 -9t-9.5 -4q-9 0 -11.5 11.5t-2.5 46.5v49l-6 7q-8 -6 -40.5 -98t-32.5 -102t13 -51q6 -19 8 -23v-72l-14 -3q-15 0 -18.5 35t-7.5 43 q-30 -42 -56 -132q-29 -111 -58 -221h-9q-7 11 -10.5 21t-6.5 19q-12 -7 -14.5 -27.5t-2.5 -41.5h-9q-5 21 -7 40t-2 31q0 14 0.5 19.5t2.5 10.5q-14 16 -26 31q-24 31 -24 60q0 11 32 126t32 123q0 3 -53 77q-36 50 -76 116q-18 27 -32 50q-28 46 -28 61q0 7 22 20 q16 9 28 9q18 0 75 -52t121 -131q52 95 64 112q52 78 94 78q37 0 53 -19q12 -14 12 -39q0 -9 -1.5 -17.5t-2.5 -16.5q0 -21 4.5 -38t4.5 -21v-78zM253 -105q-4 -1 -8 -1h-6q-10 0 -12 1v46l7 6h10q4 -20 9 -35v-17z" />
<glyph unicode="Z" horiz-adv-x="572" d="M558 74q0 -27 -19 -70q-10 -22 -10 -41q4 -12 5 -19q5 -21 5 -31q0 -20 -4 -31.5t-18 -11.5q-11 0 -15.5 12t-4.5 32q0 21 5 52q2 15 5 30l-7 7q-9 -15 -12.5 -27.5t-3.5 -23.5q1 -11 1 -15q0 -8 -3 -14h-11q-2 6 1 20t3 20q0 18 -10.5 34t-30.5 16q-13 0 -23 -3.5 t-20 -6.5h-174q-6 -9 -15 -24q-4 -7 -14 -21q6 -18 9 -28q9 -33 9 -56q0 -13 -2 -18t-15 -5q-19 0 -19 31q0 15 6.5 46t3.5 34q-6 8 -26 11t-24 4q-21 8 -28 24q-10 22 -12 24q-14 4 -22 7q-51 23 -51 64q0 11 22 19q56 20 80 76l69 142q23 45 42 78q25 42 35 63 q19 43 36 69q24 38 54 62v15h-149q-11 0 -46.5 8.5t-55.5 19.5l-8 -14q11 -33 16 -50q17 -54 17 -61q0 -5 -5 -11t-12 -6q-12 0 -29.5 64.5t-17.5 82.5q0 27 83 49.5t193 22.5q66 0 134 -25.5t68 -53.5q0 -16 -13.5 -21t-31.5 -5h-13q-10 -5 -16.5 -25t-12.5 -38 q-15 -35 -26 -64q-22 -58 -24 -62q-51 -123 -70 -168q-33 -78 -39 -94h50h35t59 -4.5t74 -21.5q43 -24 43 -69zM144 433q0 -5 -6 -17h-12q-2 3 -3 5q-8 13 -8 16l11 20q6 -4 12 -11.5t6 -12.5z" />
<glyph unicode="[" horiz-adv-x="414" d="M315 554q0 -13 -12 -13q-4 0 -6 3q-5 7 -5 18q0 5 2 10t5 11q5 -5 10 -9q6 -8 6 -20zM364 -141q0 20 -1 25t-10 16q-2 -6 -6 -11.5t-5 -6.5q5 -14 11.5 -30t9.5 -20zM152 253v-161h138q40 0 80 -33q32 -26 32 -61q0 -23 -9 -50q-20 -61 -20 -62q0 -15 10 -62 q5 -26 10 -34v-28l-10 -2q-12 0 -14.5 18.5t-5.5 21.5t-14 7.5t-13 12.5q-5 19 -5 41v17.5t1 16.5q0 19 -7 27t-33 8q-9 0 -38 -6.5t-65 -15.5q-6 -1 -19 -1q-16 1 -23 1q-19 0 -28.5 -6t-9.5 -28q0 -10 8.5 -32.5t8.5 -42.5q0 -15 -3 -24t-5 -17h-10q-4 7 -6 17.5t-2 20.5 q0 17 3 33.5t6 28.5q0 19 -49 65t-49 78q0 4 13 26q7 11 7 15l-5 138v177l24 293q-5 18 -14 32q-5 8 -5 27q0 33 49 49q37 12 95 12q24 0 77 -5.5t86 -13.5q15 -4 30 -7q23 -9 23 -27q0 -27 -22 -78q-11 -26 -11 -75q-5 -3 -9 -3q-10 0 -10 12q0 13 1 29t2 31q-3 0 -5 1.5 t-3 2.5q-5 0 -12 -12q-15 -27 -21 -27q-2 0 -14 15q-7 8 -13 8q-7 -5 -32.5 -8.5t-77.5 -3.5q-10 1 -13 1q-7 0 -9.5 -8.5t-2.5 -35.5q1 -30 3.5 -75t6 -129t3.5 -109z" />
<glyph unicode="\" />
<glyph unicode="]" horiz-adv-x="414" d="M121 562q0 -7 -3 -14t-8 -7q-12 0 -12 13q0 10 3 16l13 13q2 -6 4.5 -11t2.5 -10zM402 1q0 -32 -49 -78t-49 -65q4 -17 6.5 -33t2.5 -29q0 -23 -8 -38h-10q-3 10 -5.5 19.5t-2.5 21.5q0 23 11 51q6 16 6 24q0 21 -9 27t-28 6q-18 -1 -27 -1q-6 0 -13 1.5t-52 12t-54 10.5 q-24 0 -32 -8t-8 -26v-17.5t1 -19.5q0 -8 -1 -18.5t-3.5 -19t-13 -13t-14 -8t-6.5 -22t-14 -18.5l-10 2v28q4 7 12 48.5t8 47.5q0 5 -19 61q-10 30 -10 51q0 34 31 60q41 34 81 34h138v161q0 65 6 191q2 44 7 122q0 29 -2 36.5t-10 7.5q-8 -1 -13 -1q-59 0 -80 3 q-15 4 -30 9q-8 0 -16 -11.5t-11 -11.5q-7 0 -17 19.5t-16 19.5q-6 -4 -8 -4q0 -22 1 -35.5t2 -24.5q0 -12 -10 -12q-4 0 -9 3q0 51 -10 74q-23 54 -23 79q0 17 22 26q26 7 31 8q31 8 83.5 13.5t79.5 5.5q56 0 94 -12q50 -16 50 -49q0 -19 -5 -27q-9 -15 -14 -32l24 -293 v-177l-5 -138q1 -5 10.5 -21.5t9.5 -19.5zM71 -118q-8 11 -11 18q-7 -9 -9 -17t-2 -24l1 -27q4 5 11 22q4 9 10 28z" />
<glyph unicode="^" />
<glyph unicode="_" horiz-adv-x="928" d="M-12 0h948v100h-948v-100z" />
<glyph unicode="`" horiz-adv-x="956" d="M926 46h-908v653h908v-653zM914 58v628h-884v-628h884zM860 435q0 -96 -60.5 -154.5t-147.5 -58.5h-157v117h-59v-117h-52v117h-190q0 -23 1 -58t1 -46q0 -50 -13 -72q-16 -27 -67 -53h-26v27q45 27 45 65v432h64v-209l211 209h26v-256h59v256h190q101 -34 131 -62 q44 -42 44 -137zM788 435q0 70 -20.5 100t-129.5 59h-78v-333h53q47 8 76 16q99 28 99 158zM378 386v136l-138 -136h138z" />
<glyph unicode="a" horiz-adv-x="520" d="M499 154h-10v29q8 -11 9 -14t1 -15zM506 234q0 -3 -2 -9q-5 -16 -5 -29h-10q-4 16 -6 20q-6 10 -18 10t-18.5 -5.5t-6.5 -22.5q0 -6 15 -75t15 -87q0 -27 -17 -50q-9 -12 -9 -23l16 -62v-23l-6 -3q-8 10 -15.5 44.5t-13.5 69.5l-12 12q-11 12 -21 36q-23 57 -33 105 t-21 48q-8 0 -85 -11.5t-80.5 -14t-10.5 -24.5q-22 -68 -55 -139q-17 9 -26 9q-17 0 -24 -24l-12 -72q-3 -5 -13.5 -8.5t-18.5 -23.5h-7v77q11 54 27 126q32 137 71 263q25 78 43 126q15 39 26 70t17 49q22 61 29 83.5t12 34.5q10 23 20 23q6 0 10 -6t7.5 -9t10.5 -3 q6 0 13.5 -0.5t15.5 -7.5t35 -78q33 -89 39 -155q0 -21 9.5 -62.5t20.5 -86.5q6 -44 50 -50t44 -42zM418 -45q0 -4 -5 -20q-1 -5 -5 -15q-3 4 -6.5 8.5t-3.5 24.5v14q0 8 14 15q3 -13 6 -27zM418 -154q0 -2 -2 -6.5t-4 -9.5h-7q-13 15 -13 33q0 7 3 13t7 12q6 -4 11 -17 t5 -25zM113 -67l-4 43zM62 -141l-16 -3q1 4 2 7q7 13 7 15q5 -7 7 -19zM324 280q0 10 -16.5 123.5t-19.5 119.5q-16 -9 -19 -13q-21 -81 -31 -122q-31 -122 -34 -127z" />
<glyph unicode="b" horiz-adv-x="421" d="M405 223q0 -80 -67 -145q-34 -33 -68 -65l-4 4q-10 9 -14 9q-2 0 -13.5 -6.5t-33 -13.5t-45.5 -16q-8 -6 -16 -46q-1 -3 -1 -6.5v-4.5q0 -8 4.5 -19.5t4.5 -20.5l-3 -18h-17q1 4 1 12q0 5 -0.5 16t-0.5 27v11q0 6 -9 20t-16 14q-14 0 -18.5 -11.5t-4.5 -35.5 q0 -7 1 -26.5t1 -30.5q0 -29 -7 -51q-9 8 -13.5 21.5t-4.5 29.5q0 17 5 38q1 7 5 18q0 7 -4 19q-9 26 -9 44q0 14 16.5 32.5t16.5 32.5q0 11 -14.5 40t-14.5 74q-3 0 -5 1.5t-3 2.5q-3 -1 -4 -2q-10 -9 -18 -35h-17q0 10 -1.5 19t-1.5 17q0 51 14 69q29 36 30 38.5t1 20.5 q0 14 -0.5 28t-0.5 28v68q0 11 7 75.5t8 69.5q5 57 12 84q13 50 36 50q11 0 18 -4t18 -14q29 19 59 31t48 12q37 0 70.5 -33.5t33.5 -74.5q0 -40 -23 -100l-56 -120q66 -49 89 -80q29 -40 29 -97zM282 -37q0 -15 -12 -25q-3 3 -6 5q-6 6 -6 16t6 22h10q8 -12 8 -18zM38 84 l-3 -12h-14l-6 9v38h14q6 -13 7.5 -21t1.5 -14zM235 619v10h-14q-39 -31 -48 -49q-5 -10 -5 -32q0 -16 -4 -28v-70zM270 281q0 16 -4 28.5t-17 29.5h-9q-2 -4 -60 -65q-24 -25 -25 -35q-4 -39 -5 -62.5t-1 -60.5v-20q57 36 89 87.5t32 97.5z" />
<glyph unicode="c" horiz-adv-x="440" d="M382 361q0 -17 -15 -17q-10 0 -16.5 9.5t-6.5 23.5q6 4 6 30l11 3q8 0 14.5 -20t6.5 -29zM427 143q0 -15 -10 -38q-22 -51 -22 -59q0 -7 7.5 -33.5t7.5 -36.5q0 -14 -14 -14q-9 0 -13.5 12.5t-4.5 32.5q0 18 2 37.5t2 20.5q-17 -13 -21 -35.5t-4 -49.5q0 -22 7 -44t7 -34 q0 -16 -13 -16q-7 0 -17 15.5t-10 26.5q0 15 13 40q6 12 6 14q-2 5 -3 9q-4 14 -6 31q-2 0 -4 1.5t-3 2.5q-8 -10 -24.5 -18t-43.5 -8q-17 0 -42 6.5t-27 6.5l-10 -14q-15 9 -19.5 20.5t-6.5 13.5l-98 98q-44 70 -44 155q0 61 20 118.5t75 154.5q39 70 86 111q59 52 121 52 q30 0 59.5 -44.5t29.5 -94.5q0 -5 -6 -41q-12 -71 -19 -126h-16l-9 18t-3 15q0 7 6 27t6 24q0 5 -28 16t-28 86l-6 3q-12 0 -47 -41q-43 -51 -70 -117q-20 -49 -27.5 -93t-7.5 -82q0 -53 14 -87q19 -47 59 -47q27 0 78 29t63 29q23 0 40.5 -15.5t17.5 -37.5zM187 -31 q0 -16 -16 -30q-10 12 -10 23q0 7 2 15t5 16h12z" />
<glyph unicode="d" horiz-adv-x="424" d="M413 411q0 -48 -4 -89q-7 -71 -24 -116q-7 -19 -12.5 -45t-5.5 -57q0 -19 5 -54q2 -14 2 -22q0 -16 -15 -16q-13 0 -13 19q0 5 1 21.5t1 26.5q0 16 -1.5 27.5t-5.5 25.5q-8 -6 -40.5 -39.5t-45.5 -50.5q-2 1 -7.5 6.5t-9.5 5.5q-14 -8 -22 -11q-28 -12 -49 -12 q-5 0 -15 2l9 -100q-5 -19 -7 -28q-8 -28 -11 -28q-17 0 -17 16q0 7 7 16q-15 13 -15 26q0 6 2.5 18.5t2.5 17.5q0 19 -6.5 25.5t-18.5 6.5q-19 -2 -29 -2q-7 0 -18 7q-35 23 -35 72q0 12 5.5 18.5t6 8t0.5 18.5q0 14 -2 80t-2 106q0 35 6.5 95.5t13.5 115.5q4 49 8 77.5 t14 85.5l2 22q4 15 18 15q13 0 28 -17q8 -9 13 -9q15 10 35.5 18t45.5 8q88 0 146.5 -90t58.5 -221zM273 -25q0 -12 -11 -12q-9 0 -13 6q-3 8 -4 10l3 44q10 -10 17.5 -25t7.5 -23zM285 487q0 61 -9.5 99.5t-19.5 38.5q-17 0 -54 -28q-25 -20 -50 -39q0 -56 1.5 -128 t1.5 -80q0 -39 6 -86.5t14 -80.5q64 26 92 142q18 75 18 162z" />
<glyph unicode="e" horiz-adv-x="460" d="M350 545q0 -11 -13 -11q-12 0 -12 18q0 1 7 17q12 -8 13 -10q5 -7 5 -14zM447 82q0 -22 -16 -54t-16 -40q0 -12 11 -51q6 -23 11 -29v-23l-11 -2q-13 0 -16.5 16t-7 18.5t-15.5 6t-15 11t-4 15.5t-1 17q0 7 0.5 14.5t1.5 16.5q0 18 -11.5 22.5t-32.5 4.5q-12 0 -52 -7 q-62 -11 -66 -11.5t-10.5 -0.5h-9.5h-24q-22 0 -32 -5t-10 -23q0 -8 9.5 -27t9.5 -35q0 -15 -4 -23.5t-5 -10.5h-11q-9 12 -9 32q0 12 5 31t5 20q0 16 -54.5 54t-54.5 65q0 3 14 21q8 10 9 13l-6 115v148l27 244q-5 14 -13 23.5t-8 25.5q0 28 47.5 39.5t111.5 11.5 q29 0 86 -4.5t96 -11.5q16 -3 33 -6q25 -7 25 -22q0 -32 -18 -56t-18 -72l-10 -2q-11 0 -11 10q0 11 1 24l2 26q-5 0 -6.5 1t-2.5 2q-5 0 -21 -21q-8 -11 -15 -11q-4 0 -13.5 9.5t-17.5 9.5q-7 -4 -37 -7t-85 -3q-11 1 -15 1q-8 0 -10 -10.5t-2 -26.5q1 -10 2.5 -43.5 t1.5 -80.5q3 -2 5.5 -4t18.5 -2q24 0 93 10q35 5 71 11q36 0 66 -19.5t30 -51.5q0 -28 -10 -53q-8 -16 -15 -31q-2 -10 -2 -17q0 -9 1 -17.5t2 -15.5q0 -14 -12 -14q-16 0 -16 20q0 7 5 31q2 10 2 15q0 25 -11 25q-15 0 -21 -6t-6 -16q0 -6 2 -15t2 -10q-2 -1 -7 -1.5 t-11 -1.5q-2 7 -2 21q0 6 1 15t1 12q0 14 -13 14q-5 0 -49 -10q-114 -26 -115 -26v-134h153q29 0 69 -17q56 -24 56 -61zM405 -34q0 17 -1 20.5t-12 13.5q-3 -6 -7 -10l-5 -5q5 -11 12 -24.5t11 -17.5z" />
<glyph unicode="f" horiz-adv-x="496" d="M402 507q-9 -3 -11 -3q-14 0 -14 21l3 14h12l10 -16v-16zM479 631q0 -7 -26 -52q-14 -24 -14 -39q0 -3 8 -20q5 -11 5 -20q0 -8 -5.5 -14.5t-12.5 -6.5q-13 0 -17.5 9t-4.5 29q0 9 1 33t1 26l-6 6l-16 -25q-12 10 -14.5 27.5t-17.5 17.5q-58 -8 -88 -13q-90 -15 -105 -25 v-151q144 0 191 -20q65 -28 65 -120l-2 -69q-6 -2 -11 -4q-6 0 -14.5 23.5t-6.5 39.5l-3 22l-15 -19q-10 4 -17.5 15t-13.5 11q-37 -6 -59 -8q-74 -9 -114 -9v-240q0 -26 -22 -52t-22 -47q0 -10 10.5 -29t10.5 -34q0 -22 -17 -22q-15 0 -21 36q-9 55 -11 60q-4 -16 -4 -23 q1 -8 1 -12q0 -6 -3 -18l-7 -4q-10 10 -10 11q-3 9 -5 17v61q5 3 10 3q11 0 14.5 -10.5t6.5 -21.5q6 14 6 27q0 8 -28 27q-33 22 -42.5 56t-12 52t-2.5 68q0 105 16 212.5t34 216.5q-13 18 -23 34t-10 35q0 24 43.5 34.5t125.5 10.5q140 0 197 -15q77 -20 77 -77z" />
<glyph unicode="g" horiz-adv-x="612" d="M597 127l-11 -2q-19 0 -19 31q0 22 9 51q-5 3 -7 5.5t-10 2.5q-27 -9 -41 -13q-45 -15 -53 -19q23 -31 23 -69q0 -9 -5.5 -27t-11.5 -37q0 -13 11 -30q25 -38 25 -49q0 -18 -23 -18q-19 0 -26.5 17.5t-7.5 44.5q0 19 1.5 32t3.5 22q-10 -8 -14.5 -31t-4.5 -56 q0 -36 3 -71t6 -60q-7 -1 -13 -3q-9 0 -17.5 15.5t-8.5 32.5q0 10 5 25q12 35 12 46q0 18 -15.5 35.5t-35.5 17.5l-84 -17q-14 -2 -20 -2q-16 0 -32.5 3.5t-32.5 7.5q-3 0 -13 -23q-3 -7 -9 -23q0 -1 14 -17t14 -50l-7 -21h-10q-12 16 -16.5 30.5t-4.5 29.5q0 10 3 26t3 23 q0 9 -2 13q-6 14 -23 27q-55 43 -57 45q-41 48 -57 97t-16 104q0 47 19.5 105.5t68.5 148t99 141t88 51.5q51 0 107 -45q66 -53 82 -131q3 -17 3 -30q0 -18 -3.5 -32t-5.5 -23q0 -13 11.5 -23.5t11.5 -22.5q0 -11 -7 -21t-13 -10q-19 0 -27 12.5t-8 33.5q0 20 7 46q1 4 4 11 q0 17 -31.5 18t-55.5 37q-20 31 -30 50q-13 25 -25 51q-8 -7 -45 -78q-48 -91 -76 -171q-40 -113 -40 -191q0 -36 22 -63t50 -27q16 0 45.5 9t29.5 22q-20 19 -36 41.5t-16 44.5q0 20 51 42q60 26 144 26q43 0 85 -13q66 -21 66 -61v-94zM246 -133q0 -10 1 -13l2 -6 q-6 -5 -12 -11l-17 17v53h14q4 -7 8 -14.5t4 -25.5z" />
<glyph unicode="h" horiz-adv-x="580" d="M564 159q0 -18 -7 -30h-21l-3 35q0 13 5.5 26t8.5 22q11 -11 14 -22t3 -31zM564 342q0 -15 -4.5 -25.5t-5.5 -18.5q3 -9 5.5 -21t2.5 -26l-12 -3q-14 0 -14 32q0 21 11 46q-6 4 -11 9q-34 0 -44 -29q-5 -14 -5 -58v-122q0 -35 -40 -65t-40 -54q0 -16 9 -58l9 -39 q0 -14 -4.5 -17t-15.5 -3q-12 0 -21 26q-2 8 -6 26q6 35 9 52q9 54 9 62q0 4 -4 14q-13 35 -17 53q-8 46 -11 99.5t-15 68.5q-18 -11 -87 -21t-85 -22q0 -79 -3 -129q-4 -40 -7 -80q0 -54 3 -92q7 -89 7 -90q-7 -2 -14 -2q-6 0 -14 2q0 6 -4 20t-4 24q0 5 7 40t7 55 q0 12 -6 22q-14 -6 -19 -7.5t-13 -1.5q-48 0 -71.5 53t-23.5 135l19 280l15 115q5 39 9.5 73t11 42t21 10.5t29.5 4.5q17 0 33 -35q21 -46 21 -117v-128q0 -8 -3 -26t-3 -25q0 -20 16 -20q20 0 28 3q22 8 52 14t62 7t32 26q0 14 -0.5 27.5t-0.5 27.5v12l9 102q9 100 12 110 q10 22 36 22q40 0 49 -97.5t9 -100.5l11 -108q0 -13 37 -29t37 -45zM463 -12q0 -2 -0.5 -18.5t-0.5 -19.5v-17h-16q-2 9 -5 19.5t-3 15.5q5 8 9 28t4 43q15 -11 15 -15q0 -3 -1.5 -15.5t-1.5 -20.5z" />
<glyph unicode="i" horiz-adv-x="176" d="M159 51q0 -21 -6.5 -35.5t-23.5 -14.5q-36 0 -72 45q-45 56 -45 141q0 27 1 49.5t4 54.5l15 226q0 87 13 150t35 63q19 0 46 -62.5t27 -118.5q0 -113 1 -181t3 -165.5t2 -151.5zM153 -147q-10 -10 -20 -10q-17 0 -17 17q0 10 6 25q2 5 6 13q-6 5 -9 8q-7 7 -7 24 q0 9 5.5 26.5t12.5 17.5q8 0 12 -8t4 -19q0 -29 -6 -42q-2 -4 -7 -8l6 -15q8 -18 14 -29z" />
<glyph unicode="j" horiz-adv-x="356" d="M340 169q0 -20 -21 -99t-27 -88q-10 10 -15 26t-16 16q-5 0 -26 -12.5t-37 -12.5q-32 0 -80 34q-38 27 -67 67q-8 -8 -10.5 -19t-2.5 -26q0 -20 -3 -31q0 36 -6 60q-13 52 -13 76q0 36 18 65.5t46 29.5q20 0 48 -68t74 -68q16 0 20 39t4 176q0 75 -1.5 170t-1.5 107 q0 64 12.5 89t36.5 25t41 -55q14 -45 14 -101q4 -45 8.5 -95.5t4.5 -76.5v-228zM313 -115q0 -13 -14 -13q-8 0 -16.5 13t-8.5 35l3 24q5 24 13 24q13 0 18 -26.5t5 -56.5zM80 -53q-10 4 -16 16l3 67q8 -6 13 -17v-66zM60 -97l-11 -2q-7 0 -11 15.5t-4 35.5q0 16 2 24l3 12 q13 -14 13 -36t8 -33v-16z" />
<glyph unicode="k" horiz-adv-x="480" d="M370 416v-5q-3 -20 -3 -25q0 -6 2 -18l-19 -3q1 5 1 14q-1 14 -1 23q0 18 1 23.5t9 15.5q3 -6 6.5 -12t3.5 -13zM370 325l-3 -19h-7q-4 5 -5 7q-5 8 -5 13l7 14zM464 -9q-3 -7 -6 -15h-9q-3 8 -5 16q-7 12 -22 12q-17 0 -21 -11q-10 -25 -13 -29q0 46 -58 71 q-41 17 -68 48q-44 49 -70 90q-35 54 -46 60v-43q5 -18 11.5 -83t6.5 -77q2 -10 2 -16q0 -11 -2.5 -18t-8.5 -14q-6 11 -13.5 16.5t-21.5 5.5q-65 0 -86 93q-13 57 -13 194l-3 184q0 39 2.5 82.5t8.5 92t15.5 62.5t25.5 14q15 0 30 -27q19 -35 19 -90q0 -39 1.5 -90t1.5 -57 l6 -6q30 50 52.5 87t60.5 85q14 22 23 32q27 32 48 32q25 0 40 -32.5t15 -74.5v-104l-7 -9h-9q-10 19 -10 37q1 16 1 23q0 12 -6 22q-10 -12 -17 -30q-19 -53 -32 -74q-24 -41 -41 -64q-20 -28 -20 -35q0 -5 41.5 -63t83.5 -116q71 -94 88 -118q25 -34 25 -63zM464 -102 q0 -16 -14 -16q-4 2 -5 3q-5 5 -5 15q0 7 3 20t6 19q9 -10 12 -21t3 -20zM403 -98h-9l-3 31q5 -2 12 -9v-22zM404 -159h-10l-6 17q0 3 2.5 11.5t3.5 11.5h10v-40zM171 -113l-12 -3q-5 0 -11 12t-6 21q0 4 3.5 16t6.5 18q7 -8 10.5 -21.5t8.5 -30.5v-12z" />
<glyph unicode="l" horiz-adv-x="496" d="M485 24q0 -19 -2.5 -28.5t-12.5 -22.5v23t1 22q0 14 -1 22l-7 3q-6 0 -16 -28t-10 -37q0 -13 7.5 -23.5t16.5 -10.5q3 0 9 4q6 -14 6 -17q0 -5 -3 -16l-10 13q-5 -4 -10 -8.5t-11 -4.5q-20 0 -20 20q0 11 2 21q7 35 7 37q0 6 -4.5 22t-11.5 16q-10 -5 -18 -7 q-27 -7 -67 -7q-30 0 -58 1.5t-54 1.5q-17 0 -23.5 -10t-6.5 -27q0 -11 5 -35q2 -9 2 -13q0 -7 -4.5 -13.5t-9.5 -6.5q-13 0 -13 20q0 8 2.5 30t2.5 27q-61 0 -86 35q-11 16 -28 16l-11 -3q0 -8 -1.5 -15.5t-1.5 -10.5q-12 20 -28 59q-2 6 -7 17q0 10 19 23t19 48 q0 17 3 172t3 195q0 2 3.5 13.5t2.5 13.5q-6 27 -6 43t4 35q7 57 13 75t13 18q37 0 61.5 -61t24.5 -159q0 -66 1.5 -151t1.5 -95v-89q1 -15 6 -24.5t24 -9.5q13 0 44.5 2.5t43.5 2.5q133 0 167 -24q27 -19 27 -94zM192 -129l-6 -3v16zM51 -24q-7 2 -12 6v16q5 -2 12 -9v-13z " />
<glyph unicode="m" horiz-adv-x="568" d="M552 93q-2 -46 -3 -70q-5 -72 -12 -83q-1 13 -10 27q-2 -10 -4 -21.5t-8 -21.5q-9 7 -12.5 16t-3.5 19q0 12 1 24q-2 7 -14 16q-18 14 -23 20q-28 30 -33 58q-2 21 -4 43q-14 62 -19 114q-8 83 -11 92q-6 -6 -29.5 -89t-26.5 -101q-8 -44 -14.5 -67.5t-21.5 -64.5 q-4 -24 -6 -38t-15 -14q-9 0 -11.5 8.5t-4.5 14t-9 11.5q-19 16 -22 21q-8 14 -10 45.5t-17 71.5q-26 72 -51 144q-5 14 -17 30l-3 -370q-1 -6 -2 -8q-4 -8 -14 -8q-11 0 -11 22v22q0 19 -5 32.5t-22.5 22.5t-37.5 33q-27 32 -27 61v212l35 259q-2 12 -13 34.5t-11 32.5 q0 17 13 17h22q3 2 10.5 17t17.5 15q27 0 36 -53q2 -17 2.5 -35.5t11.5 -36.5q16 -28 38 -73q31 -65 55.5 -128t30.5 -71q7 4 34 89t33 113.5t23 78.5l20 56q2 11 -2.5 38.5t-4.5 32.5q0 15 4 24t15 9q12 0 21 -9t13 -9q1 0 10 6t20 6q34 0 47 -30q9 -20 9 -62 q0 -12 -0.5 -23t-0.5 -21l-2 -29q-16 14 -16 25q0 4 1.5 11.5t-0.5 12.5q-10 -15 -11.5 -19t-1.5 -11q1 0 20 -87t34 -185q20 -133 20 -219zM290 -88q0 -8 -1 -15t-2 -15q0 -10 2 -16h-13q-2 4 -9 40q-1 5 -3 16l6 12q8 -3 14 -10t6 -12zM132 -143h-15q-2 2 -2 3 q-5 10 -5 16l4 15h15l6 -18z" />
<glyph unicode="n" horiz-adv-x="464" d="M36 589l-6 -3l-6 9v25h9zM448 27q0 -40 -10 -61t-10 -43q2 -8 3 -16q6 -35 9 -67h-16q-6 9 -8.5 18t-2.5 19q0 7 2 22t2 22q0 37 -61 110q-42 50 -65 101q-11 25 -30 61q-13 25 -25.5 49.5t-26.5 58.5q-17 41 -27 52l-4 -6q6 -33 8 -55q9 -72 9 -126l-19 -249 q0 -10 3 -18t16 -25v-9l-10 -6q-14 0 -19.5 16.5t-5.5 39.5q0 24 0.5 30t2.5 10q-3 28 -10.5 39t-25.5 11q-13 0 -29 -4q-22 34 -32 52q-20 34 -20 63q0 59 1.5 133.5t1.5 84.5q4 18 6.5 45t2.5 55v80l10 82q0 18 -10 36t-21 18q-5 0 -10 -5q-16 18 -16 32q3 9 4 13 q6 14 10 14t10 -4q13 -9 39 -19q4 7 7.5 21.5t14.5 14.5q22 0 38 -36q11 -42 23 -83q2 -5 25 -38q11 -15 22 -37q5 -9 39 -81q50 -106 60 -121v171q0 30 11 94q15 89 35 89q36 0 63 -227q8 -67 19 -156q6 -47 6 -60q0 -11 -3 -20zM120 -86h-16v63q10 -12 11.5 -20.5 t4.5 -17.5v-25zM123 -129l-3 -6h-10l3 28q7 -10 10 -22z" />
<glyph unicode="o" horiz-adv-x="452" d="M436 279q0 -72 -30 -178q-15 -53 -15 -76q-1 -10 -2 -24t-1 -24v-24q0 -6 6 -25t6 -35q0 -13 -4 -18t-17 -5t-21 19t-8 35q10 25 14 41q15 53 15 98v17q-1 7 -1 10q-15 -13 -46 -41q-23 -20 -30 -28.5t-10.5 -19.5t-3.5 -22q1 -16 1 -22q0 -7 -1.5 -14t-11.5 -14 q0 73 -56.5 74t-117.5 59q-33 31 -59.5 101.5t-26.5 139.5q0 68 26 155q36 119 101 182q24 24 47 42q50 39 78 39q6 0 28 -40q19 -34 42 -63q11 -14 29 -48.5t27 -59.5q26 -76 34 -120.5t8 -110.5zM303 -147l-3 -17h-18q-10 18 -10 33q0 6 2 10.5t8 15.5h10q8 -23 9.5 -30 t1.5 -12zM318 293q0 113 -17 198q-21 103 -47 127q-57 -57 -88 -179q-24 -94 -24 -168q0 -87 21.5 -122t66.5 -35q49 0 72 71q16 50 16 108z" />
<glyph unicode="p" horiz-adv-x="412" d="M398 516q0 -106 -79 -181l-96 -72q-8 -9 -14.5 -32t-6.5 -45q0 -13 3 -22v-28l-14 -3q-3 10 -4 20.5t-1 17.5q0 8 1 21.5t1 18.5q0 16 -4 25t-17 18l-19 -336q-20 -2 -20 25q0 5 1 19t1 23q0 14 -3 29l-6 6q-7 -9 -12 -21q-6 7 -8.5 16t-4.5 17q-26 32 -52 65 q-21 47 -21 126q0 56 10 144.5t21 180.5q-4 7 -4 11l-15 3q-7 -17 -7 -35q0 -7 1 -20t1 -19q0 -11 -4 -19q-2 8 -10 56q-2 14 -7 42q0 30 25 58q8 9 26 22q9 11 14 46t25 35q21 0 30 -10q8 -14 13 -22q20 10 41 21q33 15 50 15q68 0 123 -76q42 -58 42 -140zM109 -37 q0 -6 -6 -20h-10q-3 19 -3 25q4 4 6 8q13 -6 13 -13zM292 594v16q0 26 -7 33t-38 7q-35 0 -57 -10q-33 -15 -36 -50l10 -204q52 19 92 90q36 64 36 118z" />
<glyph unicode="q" horiz-adv-x="476" d="M468 -41q0 -10 -3 -23q-7 -30 -7 -73q0 -15 -16 -15q-14 0 -14 19q0 5 5 35q2 12 2 22t-3 16h-25v-109q-5 -1 -9 -3q-7 0 -14 8t-7 15q0 3 6 15t6 17q0 20 -27 69q-20 37 -52 70q-15 -8 -19.5 -34t-14.5 -38q-5 13 -5 23v11q0 12 -6 21q-51 21 -97 44t-77 62 q-41 50 -60 126q-14 56 -14 115q0 42 13.5 88.5t54.5 126.5q20 43 67 94q60 66 105 66q25 -26 38 -39q24 -26 49 -51q20 -20 37 -46.5t26 -56.5q13 -44 28 -93t15 -124q0 -86 -18 -134q-21 -42 -41 -84q0 -1 29.5 -33.5t29.5 -46.5q3 -3 5 -6q13 -20 13 -54zM298 -122 q0 -17 -15 -17q-12 0 -12 33l3 27h8q9 -10 12.5 -18.5t3.5 -24.5zM321 422q0 76 -25 148q-19 54 -35 70q-60 -60 -93 -159q-26 -78 -26 -144q0 -34 10.5 -89.5t32.5 -78.5q7 -3 13 -6.5t11 -12.5h13q-22 46 -36 85q-5 13 -11 32q0 8 7 13t24 5q20 0 46.5 -16t35.5 -30 q21 33 29 111q2 26 4 72z" />
<glyph unicode="r" horiz-adv-x="480" d="M468 -51l-9 -2q-6 0 -11.5 27.5t-7.5 31.5q-11 -3 -16 -22t-5 -43q1 -11 1 -15v-22q-6 7 -10 54.5t-9 53.5q-10 6 -27.5 16t-40.5 29q-27 22 -75.5 86.5t-63.5 83.5h-7q0 -52 3.5 -125.5t3.5 -104.5q-1 -16 -3 -36t-11 -48q-16 11 -16 28q0 7 2.5 19.5t2.5 14.5 q0 15 -13 25q-3 2 -17 5t-25 10.5t-21 22.5q-13 21 -27 35q-5 -2 -7 -4t-2 -15q-6 3 -11.5 6.5t-5.5 16.5q0 60 1 155t1 156q-3 14 -11 23.5t-8 15.5q14 10 25 48t11 98l-2 10h-11q-4 -18 -6.5 -39t-2.5 -47l-13 -3q-2 4 -4.5 10t-2.5 9q0 91 13 115q24 22 42 39 q12 10 14 18.5t2 16.5q5 5 14 5q5 0 18.5 -3t21.5 -2q6 1 48 13t48 12q72 0 136 -65q55 -55 55 -140q0 -74 -23.5 -116t-126.5 -100q80 -75 132 -141q57 -72 57 -120v-96zM477 -138l-8 -3q-8 8 -11 13q-12 18 -12 37q3 13 6 27q10 -11 13 -22q9 -32 12 -36v-16zM177 -153h-9 l-9 12q0 1 1.5 5.5t1.5 16.5h12zM57 -15q0 -6 -5 -15t-5 -18q0 -7 3 -19l-7 -3q-8 0 -10.5 9.5t-2.5 21.5q0 7 3 16q7 22 7 45q8 -7 12.5 -15.5t4.5 -21.5zM317 575q0 25 -16 34.5t-50 9.5q-30 0 -50 -7q-34 -12 -34 -40q0 -39 7 -86t10 -52q26 13 52 27q81 47 81 114z" />
<glyph unicode="s" horiz-adv-x="476" d="M459 212q0 -35 -7 -60t-13 -45q-9 -41 -25 -61q-18 -15 -35 -29q-4 -5 -4 -17q3 -25 5 -44t2 -43q0 -14 -6 -23t-18 -9q-7 0 -11 9t-4 16q5 12 7 19q8 25 8 43q-5 4 -7 8q-8 13 -8 35q-6 3 -8 3q-18 0 -24.5 -35t-11.5 -69q-14 9 -14 35q0 8 2 27t2 31q-13 0 -34 -1 t-34 -1q-73 0 -117.5 46.5t-64.5 46.5q0 18 -12 40t-12 39q0 13 9.5 31t19.5 18q19 0 74 -47q18 -15 52 -47q20 12 32 20q36 26 58 53q6 7 21 38.5t31 64.5v23l-10 4q-32 -17 -48 -26q-50 -30 -54 -42q0 -2 -0.5 -10t-0.5 -9q0 -13 0.5 -25t3.5 -39q-5 -3 -9 -6 q-9 0 -15.5 8t-6.5 24q0 9 13 44q7 19 7 21q0 7 -38 26q-44 22 -61 60q-5 9 -22 54.5t-17 59.5q5 27 10 43q15 49 39 87q26 35 91 78q54 36 90 36q39 0 93 -53q45 -44 62 -108q2 -9 11 -26.5t9 -19.5q-10 -12 -15 -20q-16 -26 -16 -46q7 -15 12.5 -27t5.5 -23q-5 -13 -7 -25 h-16q-4 13 -5 22.5t-1 21.5q0 9 1 20.5t3 25.5q0 14 -6 22.5t-25 17.5q-34 16 -53.5 53.5t-37.5 73.5q-18 -10 -57 -76.5t-56 -117.5v-25q39 13 62.5 19.5t35.5 6.5q45 0 101 -50q74 -66 74 -169zM301 -138q0 -9 -4.5 -12.5t-7.5 -5.5q-14 14 -14 23q1 3 1 4q6 15 7 20 q6 -3 13 -6q5 -5 5 -23z" />
<glyph unicode="t" horiz-adv-x="508" d="M447 506h-15l4 24h8zM496 618q0 -18 -10 -85.5t-17 -79.5q-13 8 -15 10q-5 5 -5 15q0 4 17 53q9 26 9 32q0 12 -12 27q-10 -10 -10 -17q0 -16 -3 -24h-9v16q0 27 -6 33t-35 6h-105v-88l21 -231v-78q-1 -12 -1.5 -20.5t-0.5 -14.5q0 -22 0.5 -32t2.5 -19q-6 -29 -11 -48 q-15 -55 -36 -101q-2 -4 -2 -12q0 -6 2.5 -22.5t2.5 -27.5q0 -27 -2 -37t-16 -10q-7 0 -10.5 12.5t-3.5 25.5q0 24 8.5 38.5t17.5 29.5q0 23 -9.5 34.5t-27.5 20.5q-9 -18 -9 -29q2 -11 2 -16q0 -8 -7 -16q-16 65 -34 119q-23 68 -23 147l27 388q-58 0 -100 16 q-53 20 -70 60v11q33 9 64.5 14.5t65.5 5.5q41 0 94.5 1.5t60.5 1.5q104 0 139 -14q56 -22 56 -95zM221 -103l-9 -2q0 8 -2 24t-2 19q7 -3 13 -9v-32zM221 -196h-13q-7 15 -7 17q3 9 4 14q11 -5 16 -16v-15z" />
<glyph unicode="u" horiz-adv-x="412" d="M395 -9l-19 9q-3 -18 -5 -45.5t-2 -86.5q-3 6 -9.5 57t-21.5 72q-3 5 -19 14q-5 3 -15 8q-11 10 -16.5 19t-9.5 9q-20 -8 -30 -13q-30 -17 -30 -34l23 -104q-6 -1 -11 -2q-8 0 -12.5 17t-11.5 23v-47q14 -11 14 -24q0 -5 -1.5 -7.5t-3.5 -6.5h-15q0 36 -2.5 76t-7.5 56 q-8 24 -32 41q-68 48 -79 63q-41 58 -54 121q-6 67 -11 135q2 15 11 83q6 43 6 83v66t1 53q0 26 9.5 62.5t23.5 36.5q46 0 67 -91q14 -62 14 -143v-154q0 -59 19 -126q23 -82 58 -82q25 0 36 15q8 11 8 32q0 13 -2 23.5t-3 18.5q0 75 2 215.5t2 161.5q0 46 10.5 87t26.5 41 q37 0 59.5 -77.5t22.5 -229.5q0 -38 -0.5 -74.5t-0.5 -70.5q0 -59 2 -110t9 -120q2 -12 4 -23q0 -8 -4 -27zM404 -40q-4 -10 -6 -17h-10v35l7 6q9 -21 9 -24z" />
<glyph unicode="v" horiz-adv-x="488" d="M460 356q0 -25 -16 -39h-10l-7 31q3 11 4 16q5 15 10 25h10q4 -8 6.5 -16t2.5 -17zM476 583l-22 -168h-20q1 3 2.5 24t1.5 31q0 23 -4 34l-121 -412q13 -31 17.5 -47t4.5 -24q0 -7 -4 -34q-11 -73 -11 -74l-7 -2q-4 0 -11 37.5t-38 37.5q-10 0 -14 -27.5t-17 -27.5 q-9 0 -11.5 6t-2.5 21v15q0 18 -1.5 28t-8.5 23q-13 18 -25 37q-8 19 -23 55q-28 65 -38 100l-22 90q-17 58 -45 176q-39 164 -39 209q0 15 7 25.5t20 10.5q17 0 48 -41q44 -58 81 -166l74 -220q6 12 51 135q24 66 25 69q7 24 18 58q16 49 30 79q8 19 16 32q14 23 27 23 q21 -11 31 -22q31 -34 31 -91zM319 -132q0 -9 -1.5 -19.5t-10.5 -22.5q-13 9 -13 14q1 7 1 13q0 12 3.5 22t5.5 18h10q5 -10 5 -25zM250 -129q-3 -5 -3 -9h-13q-2 5 -3 9l3 13h10q3 -5 4.5 -7t1.5 -6zM437 507v10v-10z" />
<glyph unicode="w" horiz-adv-x="668" d="M650 643q0 -81 -29 -230q-17 -88 -58 -256q-37 -153 -38 -157.5t-1 -14.5q0 -14 5 -27q2 -6 5 -12q0 -6 -4 -13.5t-5 -10.5t-1 -9q0 -1 5 -30q2 -11 2 -26l-8 -4q-8 0 -14 8.5t-6 17.5q0 2 10 18q5 8 5 16q0 16 -15 27q-10 7 -34 16q0 -28 -2.5 -63t-6.5 -43h-10 q-7 10 -8 58.5t-8 98.5q-2 15 -15 52l-14 36q-13 44 -21 70q-46 151 -56 174q-7 -7 -27 -70q-24 -76 -24 -126q0 -8 6.5 -23.5t15.5 -34.5q3 -12 3 -29q0 -22 -4.5 -51.5t-7.5 -54.5q3 -18 7 -38t4 -38q0 -2 -1 -9t-1 -18l-8 -2q-15 10 -23 16q-25 20 -31 39v38h15l13 -22 q7 12 9.5 31.5t2.5 43.5l-6 12q-9 -9 -10 -27t-2 -23h-10q-12 54 -47.5 74t-38 26.5t-2.5 17.5q0 10 -0.5 19.5t-4.5 26.5q-3 7 -23 79t-27 106.5t-30 115t-44.5 160t-21.5 95.5q0 8 8.5 15.5t15.5 7.5q40 0 66 -67l30 -80q16 -37 32.5 -83t23.5 -83l7 -6q6 11 26 81 q14 50 30 91q6 14 32 110q12 45 36 45q22 0 56 -76q30 -67 40 -117q4 -20 30 -115q8 -31 26 -92q4 9 23 87q0 1 36 134q14 52 22 84q13 53 15.5 70t5.5 36q7 16 24 16q34 0 47 -24q8 -15 8 -47v-17z" />
<glyph unicode="x" horiz-adv-x="428" d="M414 25q0 -6 -4 -45t-7 -43h-16q7 9 7 21q0 6 -2 15q-5 23 -5 37l-32 -6q-43 0 -76 46q-23 37 -45 74q-11 -9 -43 -61q-36 -59 -36 -79q0 -5 8 -33q4 -13 10 -32v-19l-10 -2q-18 0 -23 16.5t-5 48.5v13q0 28 -5 42.5t-22 14.5q-14 0 -14 -26q0 -18 6 -45q3 -15 7 -31h-15 q-7 10 -10 23t-3 25q0 6 1 20t1 21t-2 21q-5 19 -10 39q0 24 41 117t41 105q0 6 -35 95q-59 150 -66 168q-36 96 -36 110q0 43 32 43q35 0 96 -103q40 -69 80 -137q8 16 39 96q19 49 37 88.5t20 42.5q14 23 31 23q19 0 38 -20t19 -39l8 -186v-11q0 -10 -1.5 -16t-6.5 -12 q-15 8 -20.5 19t-5.5 28q0 11 7 50q4 22 4 32q0 18 -7 32q-11 -15 -54 -155q-14 -46 -41 -136q31 -62 62 -127q63 -132 63 -162zM408 -142l-2 -9h-9q-4 5 -5 7q-5 7 -5 24l3 17q10 -6 14 -15.5t4 -23.5zM110 -131l-6 -11q-17 12 -17 26q4 10 5 16q18 -10 18 -31z" />
<glyph unicode="y" horiz-adv-x="500" d="M488 399q0 -4 -9 -18q-9 4 -14.5 12.5t-5.5 27.5q0 5 0.5 10.5t5.5 15.5h8q6 -7 10.5 -21t4.5 -27zM488 496q-4 -5 -5.5 -9t-9.5 -4q-9 0 -11.5 11.5t-2.5 46.5v49l-6 7q-8 -6 -40.5 -98t-32.5 -102t13 -51q6 -19 8 -23v-72l-14 -3q-15 0 -18.5 35t-7.5 43 q-30 -42 -56 -132q-29 -111 -58 -221h-9q-7 11 -10.5 21t-6.5 19q-12 -7 -14.5 -27.5t-2.5 -41.5h-9q-5 21 -7 40t-2 31q0 14 0.5 19.5t2.5 10.5q-14 16 -26 31q-24 31 -24 60q0 11 32 126t32 123q0 3 -53 77q-36 50 -76 116q-18 27 -32 50q-28 46 -28 61q0 7 22 20 q16 9 28 9q18 0 75 -52t121 -131q52 95 64 112q52 78 94 78q37 0 53 -19q12 -14 12 -39q0 -9 -1.5 -17.5t-2.5 -16.5q0 -21 4.5 -38t4.5 -21v-78zM253 -105q-4 -1 -8 -1h-6q-10 0 -12 1v46l7 6h10q4 -20 9 -35v-17z" />
<glyph unicode="z" horiz-adv-x="572" d="M558 74q0 -27 -19 -70q-10 -22 -10 -41q4 -12 5 -19q5 -21 5 -31q0 -20 -4 -31.5t-18 -11.5q-11 0 -15.5 12t-4.5 32q0 21 5 52q2 15 5 30l-7 7q-9 -15 -12.5 -27.5t-3.5 -23.5q1 -11 1 -15q0 -8 -3 -14h-11q-2 6 1 20t3 20q0 18 -10.5 34t-30.5 16q-13 0 -23 -3.5 t-20 -6.5h-174q-6 -9 -15 -24q-4 -7 -14 -21q6 -18 9 -28q9 -33 9 -56q0 -13 -2 -18t-15 -5q-19 0 -19 31q0 15 6.5 46t3.5 34q-6 8 -26 11t-24 4q-21 8 -28 24q-10 22 -12 24q-14 4 -22 7q-51 23 -51 64q0 11 22 19q56 20 80 76l69 142q23 45 42 78q25 42 35 63 q19 43 36 69q24 38 54 62v15h-149q-11 0 -46.5 8.5t-55.5 19.5l-8 -14q11 -33 16 -50q17 -54 17 -61q0 -5 -5 -11t-12 -6q-12 0 -29.5 64.5t-17.5 82.5q0 27 83 49.5t193 22.5q66 0 134 -25.5t68 -53.5q0 -16 -13.5 -21t-31.5 -5h-13q-10 -5 -16.5 -25t-12.5 -38 q-15 -35 -26 -64q-22 -58 -24 -62q-51 -123 -70 -168q-33 -78 -39 -94h50h35t59 -4.5t74 -21.5q43 -24 43 -69zM144 433q0 -5 -6 -17h-12q-2 3 -3 5q-8 13 -8 16l11 20q6 -4 12 -11.5t6 -12.5z" />
<glyph unicode="{" />
<glyph unicode="|" horiz-adv-x="928" d="M368 756h124v-788h-124v788z" />
<glyph unicode="}" />
<glyph unicode="~" />
<glyph unicode="&#xa2;" horiz-adv-x="476" d="M462 359q0 -5 -5 -9t-12 -4q-12 0 -17 9.5t-5 14.5q0 6 3 12v36q-29 0 -52 17q-13 10 -49 58v-251q19 6 53 33q12 9 26 9q20 0 34 -20t14 -52l-13 -169h-13q-10 23 -10 41q0 10 6 22t6 18q0 10 -12 27l-46 -26q-7 -4 -26 -13q-5 -2 -16 -7q-3 -6 -3 -11t3 -15t3 -16 q0 -15 -7 -32q-10 -19 -19 -37q3 -11 5 -18q6 -16 6 -23q0 -13 -15 -13q-14 0 -15 32.5t-10 44.5q-7 -4 -13 -7q-11 0 -27 28l-32 64q-24 8 -42.5 14.5t-45 29.5t-59.5 75q-43 67 -43 112q0 31 29 81q25 43 50 66q36 33 95 73q32 22 32 40q0 42 16 94q12 39 27 39 q27 0 40 -47q5 -19 9 -45q1 -8 18 -19q31 -20 67 -53q57 -53 57 -128v-14q-2 -10 -2.5 -15t-0.5 -13q0 -9 5.5 -16.5t5.5 -16.5zM266 -94q-14 17 -14 35q0 8 1 12q5 18 10 35q11 -11 11 -46q0 -23 -8 -36zM214 428q-24 -21 -46 -61q-32 -57 -32 -75q0 -37 20 -49t42 -24h15z " />
<glyph unicode="&#xa9;" horiz-adv-x="481" d="M230 397q-38 0 -72.5 45t-34.5 93q0 44 33 86t74 42q23 0 45.5 -19.5t22.5 -41.5l5 -21q-3 -8 -5 -10q-6 -6 -15 -6t-14 8q-3 3 4 24q-6 13 -17.5 24t-27.5 11q-20 0 -43 -33q-22 -36 -22 -66t22 -66.5t43 -36.5q12 0 25 10q6 4 12 12t10 15q-2 13 2 22q1 8 11 10 q15 0 15 -15q0 -12 -7 -26q-3 -22 -25.5 -41.5t-40.5 -19.5zM117 669q-35 -26 -53.5 -62t-18.5 -79q0 -52 27 -94q28 -39 66 -58.5t79 -19.5q54 0 94.5 28.5t59.5 67.5t19 77q0 52 -28.5 93.5t-66 60t-78.5 18.5q-54 0 -100 -32zM71 689q62 55 146 55q48 0 88.5 -18 t86.5 -68q43 -51 43 -133q0 -47 -17.5 -87.5t-67 -85.5t-133.5 -45q-44 0 -88 19q-21 10 -42.5 27t-43.5 41q-44 50 -44 132q0 46 18.5 87.5t53.5 75.5z" />
<glyph unicode="&#xad;" horiz-adv-x="428" d="M410 346q0 -30 -6 -42l-20 -24v-30q0 -26 -3.5 -48.5t-14.5 -36.5h-9q-5 13 -5 21q0 5 3 16t3 20q-3 20 -5 29q-7 29 -16 29q-6 0 -17.5 -10t-11.5 -22l9 -12q9 -14 9 -26q0 -15 -4.5 -20.5t-15.5 -5.5q-8 0 -12.5 6.5t-4.5 18.5t1.5 18.5t7.5 27.5q-4 1 -8.5 1.5 t-13.5 0.5q-12 0 -31.5 -1t-23.5 -1q-70 0 -109 23.5t-59 62.5q-3 6 -20 24q-13 14 -13 29q0 36 84 42q27 2 82 2q23 0 67.5 2t51.5 2q53 0 81 -29q24 -25 24 -67zM326 140q0 -44 -30 -44q-15 0 -21.5 4.5t-6.5 16.5q0 9 7 30t18 21q9 0 21 -8.5t12 -19.5z" />
<glyph unicode="&#xae;" horiz-adv-x="481" d="M117 669q-35 -26 -53.5 -62t-18.5 -79q0 -52 27 -94q28 -39 66 -58.5t79 -19.5q54 0 94.5 28.5t59.5 67.5t19 77q0 52 -28.5 93.5t-66 60t-78.5 18.5q-54 0 -100 -32zM71 689q62 55 146 55q48 0 88.5 -18t86.5 -68q43 -51 43 -133q0 -47 -17.5 -87.5t-67 -85.5 t-133.5 -45q-44 0 -88 19q-21 10 -42.5 27t-43.5 41q-44 50 -44 132q0 46 18.5 87.5t53.5 75.5zM163 382l4 16v250l-3 9l-2 7l6 9q4 4 18 4l25 9l24 3q23 0 39.5 -17t16.5 -60q0 -34 -19.5 -62t-53.5 -58l60 -67l14 -9q11 -7 11 -16q0 -7 -10 -14t-20 -5q-14 6 -14 25 l-63 72v-78l2 -12q2 -6 -1.5 -9.5t-13.5 -5.5q-17 0 -20 9zM196 507q33 24 50 49q9 14 13.5 26.5t4.5 26.5q0 30 -7 41.5t-20 12.5l-21 -6l-20 -8v-142z" />
<glyph unicode="&#x2000;" horiz-adv-x="385" />
<glyph unicode="&#x2001;" horiz-adv-x="770" />
<glyph unicode="&#x2002;" horiz-adv-x="385" />
<glyph unicode="&#x2003;" horiz-adv-x="770" />
<glyph unicode="&#x2004;" horiz-adv-x="256" />
<glyph unicode="&#x2005;" horiz-adv-x="192" />
<glyph unicode="&#x2006;" horiz-adv-x="128" />
<glyph unicode="&#x2007;" horiz-adv-x="128" />
<glyph unicode="&#x2008;" horiz-adv-x="96" />
<glyph unicode="&#x2009;" horiz-adv-x="154" />
<glyph unicode="&#x200a;" horiz-adv-x="42" />
<glyph unicode="&#x2010;" horiz-adv-x="428" d="M410 346q0 -30 -6 -42l-20 -24v-30q0 -26 -3.5 -48.5t-14.5 -36.5h-9q-5 13 -5 21q0 5 3 16t3 20q-3 20 -5 29q-7 29 -16 29q-6 0 -17.5 -10t-11.5 -22l9 -12q9 -14 9 -26q0 -15 -4.5 -20.5t-15.5 -5.5q-8 0 -12.5 6.5t-4.5 18.5t1.5 18.5t7.5 27.5q-4 1 -8.5 1.5 t-13.5 0.5q-12 0 -31.5 -1t-23.5 -1q-70 0 -109 23.5t-59 62.5q-3 6 -20 24q-13 14 -13 29q0 36 84 42q27 2 82 2q23 0 67.5 2t51.5 2q53 0 81 -29q24 -25 24 -67zM326 140q0 -44 -30 -44q-15 0 -21.5 4.5t-6.5 16.5q0 9 7 30t18 21q9 0 21 -8.5t12 -19.5z" />
<glyph unicode="&#x2011;" horiz-adv-x="428" d="M410 346q0 -30 -6 -42l-20 -24v-30q0 -26 -3.5 -48.5t-14.5 -36.5h-9q-5 13 -5 21q0 5 3 16t3 20q-3 20 -5 29q-7 29 -16 29q-6 0 -17.5 -10t-11.5 -22l9 -12q9 -14 9 -26q0 -15 -4.5 -20.5t-15.5 -5.5q-8 0 -12.5 6.5t-4.5 18.5t1.5 18.5t7.5 27.5q-4 1 -8.5 1.5 t-13.5 0.5q-12 0 -31.5 -1t-23.5 -1q-70 0 -109 23.5t-59 62.5q-3 6 -20 24q-13 14 -13 29q0 36 84 42q27 2 82 2q23 0 67.5 2t51.5 2q53 0 81 -29q24 -25 24 -67zM326 140q0 -44 -30 -44q-15 0 -21.5 4.5t-6.5 16.5q0 9 7 30t18 21q9 0 21 -8.5t12 -19.5z" />
<glyph unicode="&#x2012;" horiz-adv-x="428" d="M410 346q0 -30 -6 -42l-20 -24v-30q0 -26 -3.5 -48.5t-14.5 -36.5h-9q-5 13 -5 21q0 5 3 16t3 20q-3 20 -5 29q-7 29 -16 29q-6 0 -17.5 -10t-11.5 -22l9 -12q9 -14 9 -26q0 -15 -4.5 -20.5t-15.5 -5.5q-8 0 -12.5 6.5t-4.5 18.5t1.5 18.5t7.5 27.5q-4 1 -8.5 1.5 t-13.5 0.5q-12 0 -31.5 -1t-23.5 -1q-70 0 -109 23.5t-59 62.5q-3 6 -20 24q-13 14 -13 29q0 36 84 42q27 2 82 2q23 0 67.5 2t51.5 2q53 0 81 -29q24 -25 24 -67zM326 140q0 -44 -30 -44q-15 0 -21.5 4.5t-6.5 16.5q0 9 7 30t18 21q9 0 21 -8.5t12 -19.5z" />
<glyph unicode="&#x2013;" horiz-adv-x="502" d="M484 346q0 -30 -7 -42l-24 -24v-30q0 -26 -4 -48.5t-17 -36.5h-11q-6 13 -6 21q0 5 3.5 16t3.5 20q-3 20 -6 29q-8 29 -19 29q-7 0 -20.5 -10t-13.5 -22q7 -8 10 -12q11 -14 11 -26q0 -15 -5.5 -20.5t-18.5 -5.5q-9 0 -14.5 6.5t-5.5 18.5t2 18.5t9 27.5q-5 1 -10.5 1.5 t-15.5 0.5q-15 0 -38 -1t-28 -1q-83 0 -129.5 23.5t-70.5 62.5q-3 6 -24 24q-15 14 -15 29q0 36 100 42q32 2 97 2q28 0 81 2t61 2q63 0 96 -29q29 -25 29 -67zM384 140q0 -44 -36 -44q-17 0 -25 4.5t-8 16.5q0 9 8.5 30t21.5 21q11 0 25 -8.5t14 -19.5z" />
<glyph unicode="&#x2014;" horiz-adv-x="966" d="M948 346q0 -30 -14 -42l-48 -24v-30q0 -26 -8.5 -48.5t-34.5 -36.5h-21q-12 13 -12 21q0 5 7 16t7 20q-7 20 -12 29q-16 29 -38 29q-14 0 -41.5 -10t-27.5 -22q15 -8 22 -12q21 -14 21 -26q0 -15 -10.5 -20.5t-36.5 -5.5q-20 0 -30.5 6.5t-10.5 18.5t3.5 18.5t17.5 27.5 q-9 1 -19.5 1.5t-32.5 0.5q-28 0 -74.5 -1t-56.5 -1q-166 0 -259 23.5t-140 62.5q-8 6 -48 24q-31 14 -31 29q0 36 200 42q64 2 195 2q55 0 160.5 2t122.5 2q126 0 193 -29q57 -25 57 -67zM748 140q0 -44 -71 -44q-36 0 -51.5 4.5t-15.5 16.5q0 9 16.5 30t43.5 21 q21 0 49.5 -8.5t28.5 -19.5z" />
<glyph unicode="&#x2018;" horiz-adv-x="204" d="M188 621q0 -54 -25 -77q-20 -18 -58 -18q-29 0 -57 22q-32 25 -32 58q0 18 37.5 80t61.5 62q29 0 29 -23q0 -13 -21 -30q-11 -9 -11 -18t38 -23t38 -33z" />
<glyph unicode="&#x2019;" horiz-adv-x="204" d="M188 673q0 -18 -33 -75q-38 -66 -66 -66q-18 0 -23.5 4.5t-5.5 18.5q0 7 21 26q11 10 11 22q0 10 -38 22t-38 34q0 53 28 77q21 18 55 18q36 0 64 -30q25 -27 25 -51z" />
<glyph unicode="&#x201c;" horiz-adv-x="408" d="M392 621q0 -54 -25 -77q-20 -18 -58 -18q-29 0 -57 22q-32 25 -32 58q0 18 37.5 80t61.5 62q29 0 29 -23q0 -13 -21 -30q-11 -9 -11 -18t38 -23t38 -33zM192 621q0 -54 -25 -77q-20 -18 -58 -18q-29 0 -57 22q-32 25 -32 58q0 18 37.5 80t61.5 62q29 0 29 -23 q0 -13 -21 -30q-11 -9 -11 -18t38 -23t38 -33z" />
<glyph unicode="&#x201d;" horiz-adv-x="412" d="M400 669q0 -18 -33 -75q-38 -66 -66 -66q-18 0 -23.5 4.5t-5.5 18.5q0 7 21 26q11 10 11 22q0 10 -38 22t-38 34q0 53 28 77q21 18 55 18q36 0 64 -30q25 -27 25 -51zM188 673q0 -18 -33 -75q-38 -66 -66 -66q-18 0 -23.5 4.5t-5.5 18.5q0 7 21 26q11 10 11 22 q0 10 -38 22t-38 34q0 53 28 77q21 18 55 18q36 0 64 -30q25 -27 25 -51z" />
<glyph unicode="&#x202f;" horiz-adv-x="154" />
<glyph unicode="&#x205f;" horiz-adv-x="192" />
<glyph unicode="&#x2122;" horiz-adv-x="500" d="M96 305q-25 0 -25 24q0 13 8 25v336l-26 -4l-12 -3l-9 -2q-9 0 -13.5 2.5t-6.5 13.5q0 11 8 14l12 -1q9 -2 14 1l104 10l14 7l15 2q6 0 9 -9l4 -18q0 -11 -8 -13q-8 0 -15 4l-12 4l-52 -8v-325q11 -20 13 -37q0 -18 -22 -23zM208 317q-5 4 -1 16l5 18v346q-3 5 -3 9 q0 8 4 13q1 5 10 8q12 2 22 -6t10 -19l-1 -15l-1 -17q0 -13 2 -18l69 -253l81 291l1 21q0 17 6 19l11 4q9 0 19 -7q8 -8 8 -20q0 -6 -5 -15v-326q0 -8 7 -21q2 -3 3.5 -8.5t1.5 -10.5q-3 -10 -19 -10q-10 0 -19 3q-5 3 -6 10l3 17l3 13v292l-66 -258v-26q-3 -23 -11 -37.5 t-26 -14.5q-9 0 -12.5 8.5t-3.5 24.5v23q0 17 -2 22l-60 234v-265q0 -8 3.5 -13.5t4.5 -8.5t2 -5q0 -7 -6 -14.5t-19 -7.5q-8 0 -15 4z" />
<glyph unicode="&#xe000;" horiz-adv-x="730" d="M0 730h730v-730h-730v730z" />
</font>
</defs>
</svg>
