<?xml version="1.0" standalone="no"?>
<!DOCTYPE svg PUBLIC "-//W3C//DTD SVG 1.1//EN" "http://www.w3.org/Graphics/SVG/1.1/DTD/svg11.dtd" >
<svg xmlns="http://www.w3.org/2000/svg">
<metadata></metadata>
<defs>
<font id="vanillaregular" horiz-adv-x="580" >
<font-face units-per-em="1000" ascent="800" descent="-200" />
<missing-glyph horiz-adv-x="338" />
<glyph horiz-adv-x="1000" />
<glyph horiz-adv-x="1000" />
<glyph unicode="&#xd;" horiz-adv-x="338" />
<glyph unicode=" "  horiz-adv-x="338" />
<glyph unicode="&#x09;" horiz-adv-x="338" />
<glyph unicode="&#xa0;" horiz-adv-x="338" />
<glyph unicode="!" horiz-adv-x="369" d="M283 662q-5 40 -31 93q-23 47 -83 45q-94 -3 -94 -146q0 -19 2 -43q19 -232 19 -381q0 -51 24 -92q29 -48 76 -48q59 0 81 164q12 87 11 206q-1 169 -5 202zM230 -200q47 4 74 99q6 21 6 41q0 63 -67 88q-21 8 -37 8q-61 0 -96 -87q-13 -33 -13 -59q0 -62 75 -87 q7 -7 58 -3z" />
<glyph unicode="&#x22;" horiz-adv-x="415" d="M181 783q-13 17 -23 19h-50q-37 0 -41 -80q-1 -20 -1 -40q0 -58 9 -113q18 -42 36 -45l23 -4q17 0 40 25q26 59 26 137q-1 1 -6 49q-3 34 -13 52zM369 739q-6 63 -66 63q-19 0 -44 -6q-21 -33 -21 -88q0 -58 21 -131q10 -36 53 -36q76 0 57 198z" />
<glyph unicode="#" horiz-adv-x="507" d="M365 440q0 -22 -4 -66.5t-35 -44.5q-34 0 -43 35q-1 4 -6 62q-19 -3 -53 -6l-4 -65q-9 -43 -50 -55q-20 -6 -29 20q-14 41 -12 95q-25 3 -50 5q-28 7 -28 33q0 28 29 42q2 1 53 15v80h-7q-51 0 -63 21q-1 2 -7 22q-1 5 -1 7q0 28 66 44q4 1 15 3q-5 31 -5 54q0 57 36 57 q19 0 38 -22q12 -15 13 -27q2 -21 2 -44q21 5 64 13q0 81 1 86q6 30 34 30q3 0 7 -1h8q45 -23 48 -105h17q25 0 45 -9q26 -11 26 -33q0 -16 -38 -45q-29 -6 -52 -16l-9 -78h17q34 0 65 -6q23 -4 23 -38q0 -17 -21 -29q-39 -21 -90 -34zM230 603l3 -74q15 3 46 7q0 24 1 73 q-22 -1 -50 -6z" />
<glyph unicode="$" horiz-adv-x="824" d="M452 388q28 -2 65 -9q138 -27 192 -64q82 -56 82 -176q0 -104 -83 -163q-48 -35 -129 -62q-86 -30 -139 -26q1 -8 1 -16q0 -83 -84 -83q-41 0 -57 26q-13 19 -15 63q-92 4 -131 19q-70 27 -70 99q0 35 54 53q93 -12 132 -12q10 0 17 1q1 10 5 84q0 1 5 63q3 38 3 62 q-57 3 -117 17q-78 18 -105 43q-58 54 -58 121q0 120 53 168q92 83 224 96q10 37 20 75q18 43 55 43q39 0 64 -40q21 -33 25 -76q57 -2 83 -6q45 -5 81 -19q64 -25 64 -59q0 -51 -28 -59q-41 -12 -96 -12q-48 0 -103 5q-4 -47 -10 -156zM309 463q0 32 -5 76q-68 2 -108 -28 q-32 -23 -32 -54q0 -57 94 -57h28q6 0 14 1h8v12q1 12 1 19v31zM444 252q-8 -47 -8 -209q107 9 131 19q59 25 59 109q0 24 -36 45q-56 33 -146 36z" />
<glyph unicode="%" horiz-adv-x="999" d="M938 68q-5 -18 -42 -67q-24 -32 -51 -38q-15 -5 -42 -15q-37 -8 -106 18t-87 58q-30 53 -30 112q0 46 35 114q14 27 67 61q17 11 61 19q36 7 85 -9q46 -15 75.5 -39.5t44 -73.5t4.5 -85q-3 -11 -14 -55zM318 227q-47 -23 -78 -28q-38 -6 -86.5 14.5t-70 52.5t-21.5 101 q0 86 37 134q5 9 22 22q64 50 130 50q89 0 145 -107q15 -29 21 -70q5 -34 -5 -62q-27 -75 -94 -107zM801 172q-4 7 -19 11q-39 5 -58 -21q-10 -14 -10 -31q0 -15 7 -29q4 -12 14 -18q17 -7 34 -7q11 -5 28 12t18 30q1 26 -14 53zM287 384q-1 4 -1 10q-4 13 -6 16 q-5 10 -11.5 13t-17.5 6q-6 3 -13 3q-15 0 -31 -12.5t-21 -26.5q-9 -29 -4 -37q12 -31 49 -31q12 0 23 2q32 20 32 48q1 5 1 9zM348 -195q-27 0 -49 14q-26 16 -26 41q0 46 47 165l66 164q30 84 65 164q30 67 69 163q3 8 42 128q26 78 30 87q25 51 68 51q83 0 83 -97 q0 -51 -71 -222q-53 -129 -102 -223q-6 -23 -17 -56q-20 -42 -26 -66q-11 -44 -41 -111q-34 -76 -47 -111q-14 -39 -23 -54q-18 -30 -43 -37h-25z" />
<glyph unicode="&#x26;" horiz-adv-x="850" d="M759 178q-18 -23 -59 -51q-52 -35 -65 -46l61 -47q78 -61 78 -106q0 -21 -16 -41q-24 -29 -46 -29q-37 0 -77 24q-11 7 -67 49q-31 24 -52 50q-61 -47 -155 -113q-31 -22 -97 -22q-56 0 -67 8q-16 5 -38 12q-70 31 -88 77q-13 33 -13 50q0 37 2 44t21 33.5t42 55.5 q45 43 133 130q-50 59 -85 126q-44 84 -44 143q0 54 42 94q37 35 93.5 50t130.5 15q189 0 256 -100q22 -33 22 -80q0 -46 -41 -98q-25 -31 -85 -84.5t-84 -84.5l58 -57q38 23 67 48q20 18 61.5 54t62.5 36q35 0 63 -20q2 -4 14.5 -18t12.5 -19q0 -31 -41 -83zM366 348 q60 67 91 110q6 8 6 42q0 23 -25 30q-11 3 -45 3q-53 0 -75 -34q-4 -6 -4 -29q0 -56 52 -122zM336 141l-100 -108l-3 -8q5 -19 11 -25t24 -6q11 0 17 4q37 25 111 82z" />
<glyph unicode="'" horiz-adv-x="232" d="M121 825q-54 -5 -73 -80q-13 -50 -8 -121l2 -46q2 -28 8 -43q12 -10 46 -14q50 -6 83 101q25 79 27 145q1 8 -4 16q-29 47 -81 42z" />
<glyph unicode="(" horiz-adv-x="432" d="M298 800q-32 0 -70 -19q-78 -39 -140 -179q-44 -100 -44 -248q0 -54 7 -122q15 -147 71 -266q77 -164 199 -166q75 -1 82 43q6 42 -2 58q-14 39 -59 75q-73 59 -101 127q-23 55 -31 163q-4 52 -4 89q0 91 19 142q28 75 111 158q49 49 49 84q0 27 -31 45q-27 16 -56 16z " />
<glyph unicode=")" horiz-adv-x="435" d="M150 -200q35 0 72 18q78 38 140 179q43 97 43 246q0 56 -7 124q-15 148 -71 267q-77 166 -198 166q-76 0 -82 -42q-3 -21 -3 -36t3 -23q19 -43 76 -94q45 -41 60 -59q44 -54 57 -210q4 -48 4 -91q0 -88 -20 -142q-29 -79 -110 -158q-50 -49 -50 -84q0 -29 30 -46 q25 -15 56 -15z" />
<glyph unicode="*" horiz-adv-x="803" d="M685 179q-44 -5 -103 -2q26 -22 77 -68q48 -44 61 -78q13 -35 -7.5 -66t-58.5 -31q-44 0 -111 65q-64 62 -144 137q-40 -77 -85 -141q-72 -102 -110 -93q-47 11 -65 33q-23 23 -18 44q3 11 22 45q11 20 105 136q-9 0 -90 -4q-109 -5 -109 75q0 43 31 64q28 20 72 15 q34 -4 141 -10q-30 30 -60 57q-34 31 -71 84q-44 63 -44 97q0 27 23 54q16 18 34 18q19 0 43 -19q81 -65 191 -208q70 121 142 205q28 32 58 32q12 0 22 -4q44 -17 44 -75q0 -54 -46 -107q-26 -29 -109 -131q108 12 123 12q59 0 79 -13q27 -18 24 -71q-3 -45 -61 -52z" />
<glyph unicode="+" horiz-adv-x="777" d="M350 650q-29 -3 -40 -13q-17 -24 -17 -73q0 -35 2 -62q2 -21 6 -77q2 -37 -2 -56q-111 -6 -136 -12q-79 -19 -80 -86q-1 -73 83 -79q26 -2 140 -7q0 -7 1 -20t1 -20q0 -133 13 -159q6 -9 13 -19q-1 0 20.5 -8t32.5 -9q26 0 47 13q30 27 37 71v44q0 30 -1 41v75 q36 1 133 7q74 5 88 64q4 17 4 30q0 34 -21 55q-30 30 -187 30h-31v101q0 27 2 100q1 56 -37 65q-46 11 -71 4z" />
<glyph unicode="," horiz-adv-x="264" d="M37 -217q40 0 104 38q51 31 67 83q6 20 6 36q0 53 -63 53q-30 0 -44.5 -9t-20.5 -36t-36 -75q-25 -41 -35 -51q1 -8 9 -22q8 -17 13 -17z" />
<glyph unicode="-" d="M518 241q5 21 5 36q0 26 -14 44q-21 27 -140 30q-126 3 -182 -7q-131 -23 -131 -112q0 -61 88 -70q97 -10 161 -2q36 5 132 17q68 8 81 64z" />
<glyph unicode="." horiz-adv-x="228" d="M208 -84q-7 81 -57 81q-31 0 -59.5 -20t-38.5 -49q-6 -18 -6 -32q0 -30 21 -53q14 -6 21 -12q0 -1 1 -3v-2q6 -6 19 -9q35 -8 60 7q45 27 39 92z" />
<glyph unicode="/" horiz-adv-x="465" d="M116 153q-21 -73 -42 -145q-27 -101 -27 -147q0 -70 56 -70q13 0 24 9q19 15 37 43.5t22 50.5q7 42 44 150q40 115 50 161q35 156 101 362q34 106 34 163q0 55 -33 65q-17 5 -28 5q-41 0 -59 -42q-41 -94 -64 -177q-31 -119 -115 -428z" />
<glyph unicode="0" horiz-adv-x="687" d="M141 702q-87 -115 -87 -339q0 -101 14 -210q17 -135 62 -215q58 -103 171 -132q24 -6 51 -6q68 0 145 40q107 56 136 320q9 82 9 157q0 156 -42 263q-50 127 -104 172q-66 55 -189 48q-96 -5 -166 -98zM216 335q-5 218 81 259q66 7 91 -12q40 -30 64 -173 q18 -112 18 -193q0 -83 -23 -148q-32 -94 -102 -89q-121 8 -129 356z" />
<glyph unicode="1" horiz-adv-x="568" d="M55 630q-21 -28 -21 -53q0 -26 23 -46t49 -20q61 0 120 81q10 -274 9 -453q-1 -169 -5 -198q-18 1 -33 1q-70 0 -89 -34q-13 -24 -13 -44q0 -53 68 -57q177 -10 269 -7q84 3 109 39q1 3 4 10q11 30 -5 63.5t-48 34.5q-44 1 -79 0q11 67 11 251v343q0 170 -30 217 q-27 42 -74 42q-69 0 -149 -56q-67 -48 -116 -114z" />
<glyph unicode="2" horiz-adv-x="736" d="M30 482q-10 -117 58 -161q23 -15 61 -14q31 1 52 29q19 25 19 57q-1 7 0 51q6 168 102 185q17 3 37 3q127 0 132 -145q4 -97 -10 -165q-26 -132 -223 -219q-80 -35 -108 -59q-45 -39 -54 -106q-2 -15 -2 -28q0 -46 22 -78q17 -24 184 -31q113 -4 204 -1q116 4 108 76 q-8 71 -49 88q-17 7 -111 11q-53 3 -83 -7q107 57 149 86q79 54 134 167q52 107 55 207q7 212 -122 314q-52 41 -164 55q-24 3 -50 3q-85 0 -166 -42q-159 -83 -175 -276z" />
<glyph unicode="3" horiz-adv-x="711" d="M658 561q-12 105 -57 160q-51 61 -151 75q-54 7 -168 4q-97 -3 -143 -15q-89 -24 -90 -91q-1 -64 60 -82q33 -10 115 -5q92 5 124 0q27 -5 63 -26q41 -32 41 -84q0 -12 -2 -26q-6 -36 -81 -47q-77 -11 -133 1q-19 4 -33 4q-40 0 -69 -18q-35 -21 -35 -58q0 -17 7 -38 q20 -60 112 -71l150 -6q119 -14 119 -100q0 -25 -16 -78q-10 -33 -69 -42q-26 -4 -85 -2q-54 1 -144 11q-9 2 -17 2q-61 0 -61 -86q0 -17 3 -39q10 -74 146 -96q66 -10 197 -8q111 2 180 80q50 57 50 164q0 41 -8 94q-22 146 -89 180q45 7 70 72q19 50 19 104q0 23 -5 67z " />
<glyph unicode="4" horiz-adv-x="875" d="M254 385q5 82 5 192q0 99 -10 137q-20 81 -90 86q-44 3 -79 -26q-28 -23 -28 -118q0 -25 2 -55q11 -163 10 -302l-1 -130q6 -64 46 -92q32 -23 104 -30q107 -11 179 -3l9 -179q3 -62 75 -65q45 -2 61 37q11 27 8 77q-1 17 -1 46q0 74 21.5 88.5t92.5 9.5q81 -5 111 3 q58 15 72 79q5 23 5 42q0 51 -42 56q-64 7 -125 4q-74 -4 -121 -2q-8 73 1 205q10 152 9 206q-3 140 -99 128q-95 -11 -85 -213q10 -210 4 -330q-15 -5 -76 0q-22 2 -58 7v17v125z" />
<glyph unicode="5" horiz-adv-x="827" d="M385 800q-95 -2 -161 -10l-103 -12q-16 0 -57 -10q-15 -77 -17 -143q-4 -107 -3 -154q1 -80 4 -122q2 -38 18 -95q12 -43 69 -43q23 0 47 5l140 29q81 14 141 16q63 2 89 -8q31 -11 58 -66q9 -18 9 -34q0 -37 -38 -75q-55 -55 -151 -65q-105 -11 -141 -6q-49 6 -88 3 q-41 -4 -59 -54q-8 -23 -8 -41q0 -21 10 -36q25 -30 102 -63q52 -22 130 -22q42 0 89 6q133 17 227.5 115t104.5 231q9 124 -67 219q-97 90 -232 90q-29 0 -54 -3q-144 -17 -225 -45q0 40 7 191q36 9 124 15t132 17q49 12 69 34t20 69q0 52 -68 63q-38 6 -118 4z" />
<glyph unicode="6" horiz-adv-x="751" d="M41 309q4 -199 69 -322q18 -34 38 -57q88 -97 185 -123q53 -14 123 -7t149 54q119 71 119 224q0 17 -2 34q-15 150 -179 208q-40 14 -82 14q-62 0 -122 -31q-99 -51 -93 -106q-12 85 -12 151q0 56 10 99q33 143 129 185q18 8 44 8q25 0 63 -10q59 -16 59 -76 q0 -12 -3 -35t-3 -35q0 -46 24 -61q35 -22 80 -18t57 129q1 11 1 32q0 102 -68 160q-80 68 -183 74q-85 5 -147 -13q-66 -19 -128 -71q-67 -56 -102 -190q-28 -109 -26 -217zM536 115q15 -33 15 -61t-17 -46q-43 -46 -97 -46q-80 0 -84 87q-3 70 74 103q23 10 44 10 q44 0 65 -47z" />
<glyph unicode="7" horiz-adv-x="787" d="M129 777q-52 -10 -74 -93q-7 -267 -3 -358q2 -57 11 -77q12 -27 51 -54q15 -10 31 -10q21 0 45 17q37 26 45 102q1 60 3 120q1 30 4 89q5 68 33 88q22 16 96 20q82 4 159 -7q10 -52 6 -137q-3 -64 -12 -208q-3 -49 -25 -205q-19 -129 -17 -204q1 -42 69 -60q34 -9 59 -9 q27 0 50 11q36 17 53 230q5 88 17 264q12 165 2 315q-11 166 -115 178q-123 14 -213 11q-94 -3 -138 -6q-79 -5 -137 -17z" />
<glyph unicode="8" horiz-adv-x="687" d="M515 723q-72 81 -182 81q-58 0 -128 -23q-98 -32 -118 -110q-11 -44 -7 -93q13 -141 138 -190q-57 -32 -74 -45q-36 -27 -57 -65q-17 -37 -36 -75q-1 -1 -1 -3q-16 -39 -17 -76q-5 -37 -3 -74q2 -46 33 -98q3 -4 9 -13q35 -52 100 -86q78 -41 151 -50q17 -2 47 -3 q93 -3 146 33t95 110q17 30 24 77q2 16 8 63q5 56 -25 120q-11 24 -33 56q-29 43 -119 99q-4 3 -21 13q109 51 120 207q6 82 -50 145zM377 565q-16 -44 -57 -52q-70 0 -70 66q0 17 2 29q7 45 47 45q13 0 34 -7q43 -14 47 -67q0 -5 -3 -14zM342 241q15 0 31 -3 q71 -14 73 -115q2 -102 -54 -126q-25 -11 -46 -11q-29 0 -55 18q-58 41 -58 117q0 49 30.5 84.5t78.5 35.5z" />
<glyph unicode="9" horiz-adv-x="698" d="M112 695q-39 -48 -51 -96q-7 -32 -9 -113q-3 -139 126 -200q76 -36 134 -36q44 0 75 17q77 42 90 64q0 -78 -41 -225q-44 -158 -104 -161q-43 -2 -64 23q-8 9 -26.5 52t-62.5 43q-27 0 -68 -31q-20 -15 -20 -44q0 -17 8 -41q27 -82 80 -114q46 -28 137 -33q105 -6 164 49 q44 40 94 151q48 107 70 289q11 92 11 170q0 70 -9 129q-13 86 -100 158q-65 54 -159 54q-40 0 -75 -7q-142 -28 -200 -98zM229 506q-3 17 -3 30q0 38 21 61.5t58 23.5q22 0 46 -6q57 -14 57 -65q0 -10 -3 -23q-16 -72 -90 -75q-76 -3 -86 54z" />
<glyph unicode=":" horiz-adv-x="340" d="M162 613q-30 -1 -55 -28q-19 -15 -30 -48q-5 -30 2 -63q8 -37 28 -56t64 -21q47 -2 66 24q9 13 32 45q10 19 8 43q-2 10 -8 35q-16 56 -74 64q-17 6 -33 5zM144 -5q-29 -42 -29 -89q0 -26 8 -54q36 -46 96 -39q64 7 77 89q2 13 2 25q0 60 -57 74q-28 7 -50 7 q-29 0 -47 -13z" />
<glyph unicode=";" horiz-adv-x="262" d="M151 593q-33 3 -53 -21q-18 -30 -29 -92q-4 -67 37 -85q32 -23 57 -23q66 0 89 81q10 38 2 74q-7 28 -33 47.5t-55 19.5q-7 0 -15 -1zM206 -96q18 31 25 67q6 32 0 53q-8 20 -68 47q-15 7 -27 7q-39 0 -54 -67q-9 -42 -39 -146q-7 -23 -9 -36q-4 -14 11 -31l10 -5 q27 5 48 16l8 4q60 31 95 91z" />
<glyph unicode="&#x3c;" horiz-adv-x="722" d="M684 -158q-18 -32 -68 -32q-36 0 -89 18q-188 63 -482 391q-35 39 -35 86q0 49 38 106q293 315 454 380q17 7 40 7q24 0 50 -10q52 -20 73 -57q13 -23 13 -44q0 -26 -25 -48q-125 -109 -273 -204q-95 -61 -124 -118q123 -151 380 -295q64 -55 77 -92q2 -6 2 -13 q0 -31 -31 -75z" />
<glyph unicode="=" horiz-adv-x="860" d="M156 413q0 -59 109 -66q125 -9 199 -2l164 16q85 8 100 59q6 20 6 33q0 25 -16 41q-25 25 -174 27q-169 2 -258 -11q-130 -19 -130 -97zM173 168q0 -87 309 -66q74 5 147 10q102 14 116 62q6 20 6 35q0 25 -16 42q-23 25 -173 26q-163 2 -259 -11q-130 -17 -130 -98z" />
<glyph unicode="&#x3e;" horiz-adv-x="724" d="M675 189q-292 -314 -454 -380q-15 -6 -34 -6q-71 0 -114 50q-26 30 -26 64q0 26 23 46q140 119 273 204q99 63 124 116q-122 153 -377 295q-68 61 -77 92q-3 6 -3 15q0 31 29 75q19 29 67 29q37 0 90 -17q130 -42 268 -173q122 -116 216 -216q35 -37 35 -83 q0 -49 -40 -111z" />
<glyph unicode="?" horiz-adv-x="785" d="M283 552.5q37 43.5 90 50.5q46 6 75 -8q92 -43 92 -146q0 -66 -24 -88q-63 -58 -148 -69q-12 0 -11 -23q2 -55 8 -179q2 -46 53 -46q7 0 16 2q42 5 57 64q5 20 3 40q-5 47 -2 58q39 21 66.5 31.5t70.5 40.5q39 27 62 66q26 59 33.5 96t5.5 100q-3 120 -97 183 q-79 53 -207 59q-22 1 -44 1q-149 0 -221 -57q-78 -62 -90 -208q-2 -24 -2 -40q0 -110 62 -134q30 -12 54 -12q37 0 50 45q7 22 9 76t39 97.5zM520 -106q8 56 -63 78q-23 7 -40 7q-37 0 -51 -33q-20 -50 -13 -60q24 -71 71 -71q12 0 24 4q64 21 72 75z" />
<glyph unicode="@" horiz-adv-x="1050" d="M641 88q-40 -65 -130 -65q-26 0 -52 7q-51 14 -74 32q-27 22 -42 69q-10 32 -10 56q0 26 16.5 59t37.5 46q48 30 104 30q19 0 52 -9t45 -20q5 28 5 51q0 33 -5 47.5t-27 31t-37 16.5q-16 0 -40 -55t-54 -55q8 0 -15 3q-27 4 -30 5q-34 13 -34 71q0 111 109 158 q33 14 60 14q72 0 112 -16q53 -22 80 -78q25 -52 25 -116q0 -12 -2.5 -36t-2.5 -36q0 -127 34 -169q40 33 53 82q9 32 9 101q0 47 -6 98q-9 80 -103 148q-90 65 -173 65t-150.5 -42.5t-108.5 -117.5q-35 -64 -35 -200q0 -134 80 -201q105 -88 239 -88q8 0 23 1.5t23 1.5 q61 0 61 -73q0 -75 -147 -75q-135 0 -252 70q-122 74 -171 194q-40 99 -40 198q0 151 79 296q57 104 202 154q111 38 218 38q171 0 272 -83q89 -73 123 -167q29 -79 29 -209q0 -188 -70 -257q-58 -58 -134 -58q-103 0 -146 83zM519 197q-1 2 -6 3q-5 5 -29 5 q-14 0 -21.5 -16.5t-7.5 -32.5q0 -32 39 -32q16 0 28.5 10.5t12.5 25.5q0 16 -2 20.5t-14 16.5z" />
<glyph unicode="A" horiz-adv-x="788" d="M421 800q-22 2 -40 2q-79 0 -138 -29q-68 -33 -95 -100q-28 -71 -56 -212q-32 -162 -37 -235q-2 -30 -11 -185q-6 -99 10 -150q25 -81 105 -91q16 -2 26 -2q99 0 99 120q0 11 -2 27q-7 57 -14 203q-5 95 2 134q14 80 74 100q30 10 85 8q53 -2 77 -151q10 -60 12 -171 q2 -117 9 -169.5t32 -75.5t77 -23q57 0 84 90q19 61 19 134q0 107 -18 236q-23 166 -39 230q-72 293 -261 310zM469 569q-15 -43 -77 -43q-50 0 -60 2q-31 6 -47 33q-7 12 -7 22q0 21 22 43q33 34 87 30q84 -6 84 -72q0 -8 -2 -15z" />
<glyph unicode="B" horiz-adv-x="747" d="M341 800q-68 -1 -136 -19q-152 -40 -161 -207q-4 -69 -4 -140q0 -192 28 -394q22 -157 125 -210q37 -19 110 -30q35 -5 72 -5q98 0 208 37q96 32 122 122q10 35 9 107q-3 144 -113 210q-51 30 -216 56q182 20 238 105q46 70 46 143q0 14 -3 34q-23 154 -190 181 q-67 11 -135 10zM212 560q-3 89 102 92q107 3 114 -72q8 -76 -104 -93q-19 -3 -31 -3q-78 0 -81 76zM283 149q31 13 61 13q24 0 48 -7q91 -27 91 -89q0 -14 -5 -30q-18 -58 -105 -58q-36 0 -75 13q-66 22 -69 78t54 80z" />
<glyph unicode="C" horiz-adv-x="798" d="M601 565q28 -6 51 -6q91 0 83 92q-10 118 -123 142q-42 14 -104 14q-42 0 -95 -7q-108 -14 -165 -39q-69 -31 -131 -103q-51 -60 -69 -191q-10 -75 -10 -149q0 -57 6 -115q31 -288 195 -356q120 -50 228 -47q46 1 155 29q101 45 101 104q0 21 -9 39q-33 68 -157 68 q-19 0 -56.5 -3.5t-56.5 -3.5q-144 0 -185 128q-27 85 -27 152q0 53 15 94q62 171 245 171q48 0 109 -13z" />
<glyph unicode="D" horiz-adv-x="880" d="M831 266q0 138 -50 260q-4 5 -6 11q-39 88 -70 126q-41 51 -111.5 86t-160.5 51q-34 6 -69 6q-69 0 -151 -20q-105 -26 -140 -97q-22 -44 -28 -172q-4 -72 13 -231q42 -406 152 -454q79 -35 214 -32q50 1 92 13q140 40 214 130q56 69 68 108q33 106 33 215zM410 543 q87 -19 149 -109.5t55 -180.5t-38 -140q-37 -59 -116 -83q-37 -11 -70 -11q-45 0 -81 19q-41 22 -51.5 61.5t-18.5 131.5q-7 83 0 166q12 123 55 143q22 10 54 10q29 0 62 -7z" />
<glyph unicode="E" horiz-adv-x="701" d="M616 626q1 3 4 23q5 32 -14 69.5t-48 50.5q-82 27 -185 31q-32 1 -97 -9q-203 -31 -231 -178q-21 -109 -21 -215q0 -39 4 -91q9 -122 12 -287.5t162 -193.5q36 -6 208 -20q62 -6 76 -6q116 0 116 92q0 15 -4 28q-21 62 -153 51q-71 -6 -162 9q-24 4 -50 26q-20 17 -10 60 q10 45 39 45q9 2 21 2t27 -2q12 -2 66 -5q37 -2 113 -10q69 -7 107 17q15 15 19 27q4 30 4 44q0 31 -30 52q-26 18 -59 20l-71 4q-37 2 -97 -1q-59 -3 -92 1q-53 6 -65 71q-5 63 -5 86q8 65 14 79q14 37 58 53q49 18 96 17q48 -1 105 0q63 1 83 7q39 11 60 53z" />
<glyph unicode="F" horiz-adv-x="765" d="M247 469q0 44 27 81q35 47 97 53q96 9 191 -10q51 -10 84 -10q25 0 37 8q56 36 56 89q0 19 -6 42q-13 50 -85 62q-82 13 -180 16q-78 2 -166.5 -9t-135.5 -33q-69 -32 -91 -100v-594q0 -3 1 -6q3 -15 8 -93q9 -131 58 -155q23 -11 81 -10q60 1 88 24q17 14 17 46 q0 26 -9 61q-20 77 -19 140q1 58 83 55l168 -10q85 -5 114 54q14 29 14 56q0 88 -111 88q-20 0 -31 -1q-48 -4 -180 -19q-9 -1 -24 -1q-60 0 -71 43q-5 21 -7 54q-1 10 -4 39q-4 25 -4 40z" />
<glyph unicode="G" horiz-adv-x="908" d="M862 496q0 82 -42 157q-44 79 -115 112q-62 29 -176 35q-94 5 -143 -2q-161 -23 -270 -157q-52 -64 -63 -195q-10 -119 -10 -204q0 -191 38 -263q28 -54 68 -89q28 -25 93 -61q47 -26 161 -29q125 -3 174 5q101 16 143.5 82t66.5 181q5 24 5 49q0 42 -13 82 q-21 65 -125 92q-78 20 -128 20q-14 0 -27 -2q-23 -3 -70 -10q-41 -7 -65 -24q-14 -10 -14 -44q0 -26 8 -65q13 -63 68 -63q26 0 63 14q53 20 83 20q33 0 40 -24q13 -46 9 -69q-2 -25 -19 -48t-57 -28l-66 -6q-172 0 -214 89q-32 65 -36 135q-12 203 30 304t158 112 q14 1 26 1q109 0 161 -96q1 -4 10 -49q6 -32 19 -47.5t45.5 -31t65.5 -14.5q28 1 69 16q49 18 49 115z" />
<glyph unicode="H" horiz-adv-x="808" d="M505 514q1 -60 -60 -73q-14 -2 -111 -1q-67 1 -80 34q-5 13 -4 94q1 61 -13 119q-27 113 -93 113q-16 0 -38 -7q-49 -15 -60 -111q-3 -28 -2 -141q1 -72 9 -212q3 -65 12 -229q7 -114 6 -145q0 -3 2 -66q1 -43 19 -62.5t61 -26.5q119 -20 121 83q1 51 -5 142.5t-5 170.5 q1 76 50 73q38 -3 123 6q76 8 79 -84l7 -202q2 -71 10 -99q15 -58 60 -71q22 -7 41 -7q44 0 69 34q22 30 25 77q4 69 -8 166q-8 55 -22 166q-1 10 -4 80l-10 219q-2 47 1 122q2 48 -16 82q-22 42 -67 42q-18 0 -41 -10q-47 -20 -56 -124q-2 -24 0 -152z" />
<glyph unicode="I" horiz-adv-x="605" d="M417 785q-54 15 -119 15q-55 0 -118 -11q-136 -24 -137 -97q-1 -75 19 -104q17 -25 38 -31q11 -2 110 -14q0 -40 4 -123q4 -76 2 -123q-1 -36 3 -135q4 -88 0 -134q-25 5 -27 5q-16 4 -31 4q-81 0 -88 -90q-5 -66 40 -101q32 -26 105 -42q54 -12 160 -4q70 5 117 29 q65 32 65 92q0 12 -3 25q-19 79 -149 63q-10 -3 -11 30q-1 13 0 39q2 58 -6 172q-9 123 -9 173q0 63 -5 119q24 -3 43 -3q35 0 55 11q30 16 52 63q11 23 11 50q0 22 -7 45q-15 49 -114 77z" />
<glyph unicode="J" horiz-adv-x="814" d="M600 800q-111 3 -239 -16q-63 -9 -76 -81q-2 -11 -2 -23q0 -50 51 -81q44 -26 98 -26q8 0 15 1q5 -61 13 -149v-42q0 -9 1 -25v-17q0 -51 -7 -152l-10 -144q-3 -36 -33 -40q-28 -3 -48 2t-77 52q-26 25 -51 50q-33 31 -59 37t-52 5q-28 -2 -50 -16q-23 -19 -31 -60 q-7 -37 1 -68q29 -113 186 -176q72 -29 116 -30q41 -1 75 0q64 2 101.5 24.5t67.5 77.5q38 70 43 246q6 192 3 263q-3 75 -3 176q89 6 115 87q9 30 1 55q-22 66 -149 70z" />
<glyph unicode="K" horiz-adv-x="859" d="M810 656q-6 98 -94 98q-59 0 -149 -73q-38 -31 -126 -119l-15 -15q-7 -7 -62 -59q-8 -7 -65 -52l-4 -3q-9 -7 -17 -7q-32 0 -30 125q2 146 -9 193q-9 40 -60 52q-16 4 -26 4q-46 0 -75 -45q-24 -36 -28 -87q-1 -12 -5 -119q-4 -112 7 -236l20 -223q2 -23 17 -150 q2 -19 7 -61q1 -9 25 -49q20 -34 84 -30q89 6 82 126q-3 44 -18 128q-3 15 -7 65q-2 27 -1 47q77 -96 190 -193q92 -79 170 -112q64 -27 98 -27q9 0 15 2q72 23 72 97q0 29 -38 67l-16 16q-52 52 -124 91q-45 24 -121 83q-83 64 -119 86q49 38 155.5 102.5t156.5 103.5 q115 89 110 174z" />
<glyph unicode="L" horiz-adv-x="795" d="M152 800q-3 0 -16 -3q-31 -2 -51 -20q-45 -32 -41 -146q1 -27 3 -93q1 -29 4 -158q2 -72 14 -187q3 -38 13 -138q2 -20 7 -69q3 -33 21 -70q20 -40 45 -58q41 -29 146 -49q46 -9 84 -9q90 0 206 13q72 8 90 16q52 23 52 122q0 49 -53 68q-39 15 -94 10q-46 -4 -100 -4 q-25 -3 -75 -10q-79 0 -121 35q-30 25 -23 185q1 24 3 79q3 74 20 166q5 37 18 131q5 34 -2 77t-24 71q-35 58 -126 41z" />
<glyph unicode="M" horiz-adv-x="995" d="M482 211q-15 269 -70 438q-42 128 -158 147q-24 4 -42 4q-95 0 -137 -93q-33 -73 -29 -176q4 -116 10 -169q6 -58 0 -262q-7 -211 39 -261q35 -39 72 -39q8 0 20 3q72 18 82 89q2 13 -5 129q-6 103 -18 291q-13 170 1 220q43 -90 69 -212.5t40 -192.5q22 -111 33 -194 q8 -57 58 -80q37 -18 62 -18q23 0 66 22q40 20 88 407q18 143 51 257q-4 -202 -1 -272q5 -112 9 -165q9 -105 17 -141q20 -88 71 -114q23 -12 41 -12q75 0 80 135q3 70 -4 221q-3 91 -11 273t-47 257q-48 93 -120 93q-39 0 -85 -21q-63 -29 -120 -257q-22 -85 -62 -307z" />
<glyph unicode="N" horiz-adv-x="957" d="M271 776q-51 17 -86 17q-69 0 -117 -81q-24 -40 -24 -175q0 -41 2 -81.5t2 -248.5q0 -288 39 -360q25 -47 96 -47q45 0 70 41q21 35 21 83q0 30 -9 71q-24 109 -48 368q-1 11 -1 25q0 64 39 84q4 3 9 3q26 0 53 -82q21 -63 73 -204q104 -282 198 -355q40 -31 94 -31 q22 0 42 4q65 13 94 60q21 34 36 109q35 176 35 444q0 27 3 81t3 81q0 218 -134 218q-109 0 -111 -143q-2 -147 14 -344t12 -257q-2 -35 -10 -35q-6 0 -12 11q-27 47 -67 158q-19 54 -57 163q-61 169 -97 240q-79 155 -162 183z" />
<glyph unicode="O" horiz-adv-x="803" d="M66 630q-38 -134 -37 -227q0 -76 1 -152q2 -99 15 -149l32 -125q0 -35 45 -83q41 -43 79 -57q55 -21 91 -28q20 -4 92 -9q15 -1 30 -1q68 0 132 22q93 32 121 99q24 57 27 78q31 223 30 330q0 43 -7 105q-8 71 -10 102q-5 65 -34 135q-15 37 -56 71t-80 45q-32 9 -98 14 q-35 3 -67 3q-257 0 -306 -173zM432 591q56 -16 82 -115q18 -68 18 -150q0 -52 -6 -114q-17 -176 -64 -210q-33 -24 -83 -24q-22 0 -44 4q-80 15 -102 156q-12 78 -12 151q0 66 9 138q18 148 84 164q62 16 118 0z" />
<glyph unicode="P" horiz-adv-x="874" d="M838 554q5 68 -27 117q-27 42 -90 80q-82 49 -219 49q-143 0 -204 -16q-155 -40 -189 -169q-20 -76 -20 -147v-206q2 -101 13 -206q2 -35 8 -104q12 -138 81 -152q34 -7 70.5 13t43.5 54q8 27 5 72q-3 38 -13 80q-12 49 -20 275q83 -14 162 -14q44 0 86 4q93 9 118 14 q124 26 169 143q22 58 26 113zM510 456q-3 -3 -11 -8l-20 -9q-18 -8 -83 -6q-119 4 -122 78q-5 111 107 129q18 3 41 3q80 0 120 -61q18 -27 18 -52q0 -42 -50 -74z" />
<glyph unicode="Q" horiz-adv-x="920" d="M455 800q-35 3 -66 3q-257 0 -306 -173q-40 -140 -39 -228q1 -90 2 -179q3 -103 14 -179q13 -85 17 -99q30 -100 147 -123q77 -15 175 -21q58 -3 147 17q103 24 137 102q21 49 27 79v4h3q7 -2 78 -17q11 -4 29 -4q19 -3 45.5 6.5t30.5 26.5q3 9 6 19q3 6 3 19 q2 19 -5 39.5t-22 28.5q-79 29 -147 47q10 96 9 162q-1 42 -7 103l-10 102q-6 65 -35 135q-16 39 -58 74q-37 30 -83 43q-31 8 -92 13zM559 206v-19q-16 2 -87 11q-59 8 -109 -1q-33 -6 -48 -56q-11 -21 10 -41.5t53 -30.5q80 -25 161 -35q0 -22 -35 -51q-21 -18 -78 -18 q-33 0 -80 7q-123 18 -135 165q-12 149 0 254q20 182 108 198q85 15 133 0q107 -33 107 -383z" />
<glyph unicode="R" horiz-adv-x="865" d="M138 737q-67 -46 -76 -212q-2 -43 -3 -155q-1 -163 14 -399q2 -32 6 -55v0q0 -124 70 -116q37 4 53 12q22 11 34 40t12 54q-1 8 0 85q1 43 -20 249l121 -243q36 -71 83 -122q64 -68 126 -68q19 0 38 9q52 25 52 73q0 45 -72 133q-35 40 -104 122q-48 58 -122 137 q-22 24 -22 35q0 7 11 7q28 0 86 -4.5t88 -4.5q200 2 283 145q20 35 20 86q0 39 -13 96q-28 122 -173 145q-139 22 -245 14q-191 -14 -247 -63zM462 624q62 -28 47 -98q-16 -74 -167 -66q-77 4 -76 76q1 55 48 85q32 21 71 21q38 0 77 -18z" />
<glyph unicode="S" horiz-adv-x="843" d="M791 103q-4 53 -29 116q-28 71 -63 98q-69 52 -212 57q-51 2 -116 5q-75 8 -106 32q-42 31 -36 100q7 77 91 97q51 12 120 12q46 0 95 -5q30 -3 50 -3q84 0 99 40q9 24 9 48q0 77 -86 86l-102 10q-16 1 -35 1q-76 0 -192 -21q-80 -15 -123 -45q-47 -32 -82 -99.5 t-35 -144.5q0 -22 2 -41q13 -118 92 -170q65 -43 192 -48q114 -4 155 -13q104 -22 110 -86q5 -59 -64 -79q-40 -12 -114 -11q-22 0 -48 -2q-45 9 -134 20q-16 2 -31 2q-82 0 -100 -70q-6 -24 -6 -44q0 -50 35 -80q44 -38 95 -46q35 -4 104 -11q32 -4 98 5q146 19 214 45 q24 9 52 28q16 11 46 36q17 14 37.5 72.5t17.5 108.5z" />
<glyph unicode="T" horiz-adv-x="862" d="M756 579q-62 -28 -155 -28q-31 0 -66 3q37 -312 49 -473q9 -124 9 -143q-5 -101 -56 -121q-35 -10 -70 -11q-39 -1 -72 19q-36 23 -39 60q-5 57 -5 141q-1 131 0 221q1 117 -3 178l-8 123q-98 -11 -147 -8q-34 2 -61 9q-42 21 -56 39q-26 26 -26 57q0 35 26 71t77 43 q160 23 302 25q46 1 180 2q83 1 122 -17q79 -36 79 -115q0 -39 -80 -75z" />
<glyph unicode="U" horiz-adv-x="916" d="M836 68q-11 -207 -223 -246q-76 -14 -136 -14q-123 0 -229 71q-84 56 -104 156q-9 45 -25 209l-26 266q-5 51 -5 96q0 80 18 118q28 58 94 56q74 -3 99 -54q15 -30 20 -120q4 -61 0 -190q-3 -125 2 -190q8 -108 26 -141q35 -64 141 -73q43 -4 83.5 27.5t50.5 175.5l9 201 q4 84 -3 218q-7 132 87 144q15 2 27 2q67 0 101 -53q29 -45 29 -115q0 -28 -4 -53q-16 -101 -22 -245z" />
<glyph unicode="V" horiz-adv-x="893" d="M861 670q-2 97 -63 130q-14 8 -35 8q-23 0 -48 -9q-55 -20 -83 -94q-22 -57 -41 -173q-26 -156 -32 -180q-68 -295 -118 -278q0 -9 -2 -9q-5 0 -19 43q-49 151 -63 202q-31 115 -39 208q-18 227 -90 266q-37 20 -81 15q-78 -10 -97 -94q-4 -16 -6 -68q-3 -69 31 -175 q80 -249 163 -411q19 -40 60 -120q33 -61 65 -89q39 -34 99 -41q36 -4 60 11q11 7 46 42q82 119 139 271l68 183q33 88 57 178q31 117 29 184z" />
<glyph unicode="W" horiz-adv-x="1054" d="M613 587q-8 50 -19 79q-19 49 -39 69q-26 27 -72 28q-91 2 -124 -172q-20 -106 -33 -267q-7 -92 -37 -229q0 -10 -3 -10q-4 0 -4 26l-15 120q-4 34 -16 233q-8 135 -22 196q-31 137 -106 137q-21 0 -45 -13q-46 -25 -50 -92q-4 -61 12 -226q19 -194 33 -281 q10 -60 26 -148q18 -84 43 -145q14 -35 60 -66q28 -19 60 -19q20 0 40 7q52 18 71 44q36 48 56 227q12 107 20 149q10 52 29 256q14 -141 23 -211q15 -125 33 -210q39 -185 99 -233q39 -31 59 -36q21 -6 59 3q90 20 150 302q54 257 72 521q5 71 -21 118q-31 57 -98 57 q-76 0 -107 -146q-10 -52 -20 -207l-16 -246q-8 -106 -13 -133q-1 -9 -4 -9q-7 0 -13 60q-2 22 -7 66q-3 6 -9 65q-1 10 -23 147q-8 52 -29 189z" />
<glyph unicode="X" horiz-adv-x="773" d="M671 -195q-20 -9 -57 0t-54 36q-59 89 -142 270q-20 42 -32 60q-30 -83 -44 -124q-17 -70 -58 -207q-16 -45 -91 -45q-43 0 -76 29t-33 72q0 22 10 48q20 52 74 167l61 130q13 28 13 42q0 17 -19 45q-37 53 -74 105q-43 62 -67 109q-48 91 -57 123q-6 19 -6 36 q0 35 25 62q35 40 95 40q92 0 131 -154q11 -43 29 -81q8 -17 71 -178q53 105 83.5 204.5t47.5 132.5q42 79 105 73q56 -5 88 -57q20 -32 20 -61q0 -20 -8 -37q-18 -38 -23 -55q-39 -73 -95 -170q-24 -36 -48 -73q-35 -53 -35 -73q0 -12 5 -23q17 -37 55 -85q69 -86 89 -114 q56 -79 65 -123q6 -32 8 -63q2 -34 -56 -61z" />
<glyph unicode="Y" horiz-adv-x="830" d="M662 187q-53 -65 -148 -65q-15 0 -31 2q2 -64 11 -129q7 -44 17 -109q3 -27 -11 -52t-38 -32t-62 -4q-68 6 -70 119q-1 65 -18 203q-88 -3 -147.5 40.5t-79.5 127.5q-10 44 -36 259q-8 67 -8 113q0 91 31 113q44 31 85 29q99 -6 107 -116q3 -55 13 -201q2 -27 5 -82 q6 -95 59 -115q18 -7 55 -8q97 -3 112 84q5 30 4 97q-1 49 -4 183q-4 117 51 141q44 19 79 19q68 0 97 -67q22 -50 19 -126q-4 -114 -22 -221q-25 -148 -70 -203z" />
<glyph unicode="Z" horiz-adv-x="806" d="M351 800q-75 8 -154 -12q-97 -25 -121 -80q-15 -34 -15 -62q0 -31 18 -55l33 -27q61 -25 155 -29q47 -2 82 -2q10 1 57 3t49 0q-32 -47 -87 -129q-14 -21 -41 -57v-2q-1 0 -1 -1h-2q0 3 2 3q-121 62 -144 65q-14 2 -52 7q-27 4 -62 -21q-27 -20 -27 -43q0 -8 3 -17 q17 -52 86 -77q17 -8 48 -23q11 -7 65 -32q-44 -58 -87 -117q-52 -72 -77 -122q-9 -18 -9 -40q0 -27 13 -60q24 -60 146 -70q56 -5 165.5 5.5t162.5 5.5q36 -3 108 17q61 17 61 71q0 34 -14 61q-16 32 -46 41q-19 6 -56 6q-50 0 -121 -10q-130 -18 -194 -20q26 46 43 73 q27 35 74 108v2q2 -8 28 -20q30 -14 91 -42t90 -29q41 -1 71 60q3 6 2 28t-21 42q-25 20 -176 93q76 106 147 232q57 101 57 157q0 18 -6 31q-26 58 -84 72q-22 5 -118 9q-117 4 -142 7z" />
<glyph unicode="[" horiz-adv-x="365" d="M364 711q8 56 -51 77q-39 14 -104 12q-168 -5 -164 -38q-45 -336 -45 -567q0 -288 33 -349q24 -44 113 -46q83 -2 115 2q97 12 97 76q0 25 -14 55q-55 6 -164 16q-5 115 -5 230q0 239 21 482q37 -7 73 -7t72 7q19 24 23 50z" />
<glyph unicode="\" horiz-adv-x="368" d="M299 153q21 -73 42 -145q27 -101 27 -147q0 -70 -56 -70q-13 0 -24 9q-19 15 -37 43.5t-22 50.5q-7 42 -44 150q-40 115 -50 161q-35 156 -101 362q-34 106 -34 163q0 55 33 65q17 5 29 5q40 0 58 -42q41 -94 64 -177q31 -119 115 -428z" />
<glyph unicode="]" horiz-adv-x="363" d="M1 -112q-7 -56 51 -76q38 -14 103 -12q168 5 163 38q46 333 46 566q0 289 -34 350q-25 45 -113 46q-84 1 -114 -3q-77 -10 -92 -49q-5 -13 -5 -28q0 -25 15 -53l163 -17q5 -114 5 -227q0 -242 -22 -484q-36 7 -74 7q-34 0 -70 -6q-19 -26 -22 -52z" />
<glyph unicode="^" horiz-adv-x="391" d="M327 537q-42 0 -90 72l-42 64q-42 -75 -52 -89q-41 -58 -78 -59q-34 -1 -41 32q-5 25 16 66q18 30 37 60q60 100 114 100q47 0 101 -58q41 -44 68 -100q14 -29 14 -49q0 -39 -47 -39z" />
<glyph unicode="_" horiz-adv-x="432" d="M419 -141q7 22 3 35q-3 10 -10 17q-18 18 -123 20q-113 2 -158 -4q-116 -16 -116 -74q0 -40 94 -49q55 -4 124 2q32 3 115 11q60 5 71 42z" />
<glyph unicode="`" horiz-adv-x="200" d="M101 788q38 -4 50 -69q7 -38 5 -96q-1 -34 -7 -73q-9 -9 -31 -12q-34 -5 -57 86q-17 66 -18 116q0 8 3 14q19 38 55 34z" />
<glyph unicode="a" horiz-adv-x="740" d="M272 677q-11 -4 -35 -15q-5 -3 -14 -6q-35 -14 -53 -72q-5 -17 -5 -29q0 -41 36 -72t77 -31q13 0 22 2q56 12 90 5q35 -7 60 -54q15 -28 15 -71q0 -27 -6 -63q0 -2 -3 -22q-11 8 -28 21q-62 37 -155 37q-22 0 -36 -1q-94 -7 -159 -70t-65 -156q0 -139 117 -220 q40 -28 103 -31q69 -4 138 20q79 27 114 76l10 20q31 -72 73 -79q12 -2 23 -2q46 0 70 39q5 8 5 23q0 33 -29 79q-25 40 -25 142q0 49 6 110q19 196 11 246q-7 44 -37 92q-21 35 -77.5 64.5t-97.5 29.5h-68q-48 1 -77 -12zM243 -15q-20 0 -37 10q-35 20 -29 76q6 64 88 64 q48 0 66 -51q6 -17 6 -29q0 -32 -32 -52q-28 -18 -62 -18z" />
<glyph unicode="b" horiz-adv-x="711" d="M124 759q-74 -15 -83 -99q-3 -28 -9 -208q-8 -244 32 -384q63 -223 249 -245q33 -4 61 -4q158 0 245 108q66 82 66 160q0 44 -21 88q-58 121 -216 143q-28 4 -47 4q-125 0 -187 -108q48 239 48 355q0 33 -1 43q-17 171 -137 147zM318 51q-15 19 -3 51q8 22 35 39t51 17 q31 0 56 -29q11 -13 6 -53q-5 -37 -35.5 -54.5t-64.5 -2.5t-45 32z" />
<glyph unicode="c" horiz-adv-x="671" d="M619 523q-20 164 -280 170q-198 5 -257 -95q-34 -58 -49 -204q-11 -115 -6 -214q13 -256 165 -319q107 -44 197 -41q40 1 134 25q85 39 85 102q0 24 -9 47q-27 69 -111 69q-27 0 -78.5 -12.5t-78.5 -12.5q-93 0 -122 94q-23 74 -23 132q0 43 13 80q46 133 175 133 q56 0 129 -24q37 -12 60 -12q57 0 57 62q0 12 -1 20z" />
<glyph unicode="d" horiz-adv-x="765" d="M690 693q-42 49 -92 49q-12 0 -23 -2q-66 -13 -84 -64q-8 -23 -8 -102q0 -108 14 -332q-125 96 -234 96q-46 0 -91 -18q-122 -49 -122 -207q0 -28 5 -66q28 -217 315 -229q179 -8 254 101q55 79 68 258l21 293q9 56 9 100q0 85 -32 123zM287 22q-37 30 -37 62q0 24 19 48 q25 32 60 32q31 0 66 -22q44 -28 44 -59q0 -24 -28 -51q-35 -33 -68 -33q-28 0 -56 23z" />
<glyph unicode="e" horiz-adv-x="674" d="M642 481q-2 170 -188 212q-63 14 -118 14q-105 0 -171 -56q-131 -91 -131 -317q0 -55 6 -108q35 -313 155 -379q73 -40 147 -40q48 0 97 16q127 41 120 129q-5 71 -55 71q-15 0 -28 -4q-74 -23 -148 -15q-62 6 -97 93q-22 55 -22 100q0 17 3 33q98 -43 178 -43 q77 0 136 42q118 84 116 252zM334 516q21 9 36 9q41 0 62 -52q14 -34 14 -58q0 -25 -16 -39q-30 -27 -80 -24q-33 2 -57.5 24.5t-25.5 55.5q-2 55 67 84z" />
<glyph unicode="f" horiz-adv-x="669" d="M646 62q16 33 16 66q0 16 -5 35q-14 51 -119 52q-107 1 -179 -22q-7 89 -14 211q-7 132 77 133q135 2 135 94q0 16 -5 34q-20 69 -70 89q-36 14 -118 8q-98 -7 -165 -89q-51 -62 -51 -164q0 -36 4 -64q23 -166 33 -266q-48 -4 -96 -7q-59 -12 -70 -52q-7 -18 -7 -34 q0 -60 67 -80q36 -11 66 -11q27 0 50 9q-7 -182 70 -193q48 -7 69.5 3t42.5 52q8 22 8 68q0 37 -5 89q92 -9 167 -10q74 -1 99 49z" />
<glyph unicode="g" horiz-adv-x="649" d="M283 696q-231 -34 -251 -233q-11 -108 28 -173q42 -68 145 -97q39 -11 81 -11q88 0 169 57q13 -77 5 -158q-7 -79 -53 -111q-27 -19 -51 -19q-21 0 -42 14q-45 30 -55 95q-8 50 -68 50q-15 0 -33 -3q-89 -15 -84 -103q6 -93 49.5 -141t136.5 -60q22 -3 47 -3 q130 0 210 93q76 88 77 220l1 134q2 39 6 166q5 143 -87 224q-71 63 -176 63q-28 0 -55 -4zM265 517q60 6 92 -46q15 -24 15 -47q0 -25 -18 -45q-36 -40 -95 -36q-60 5 -57 88q2 80 63 86z" />
<glyph unicode="h" horiz-adv-x="740" d="M558 317q-23 14 -82 23q-19 3 -37 3q-121 0 -238 -145q9 223 11 316q1 42 0 79l-1 61q0 50 -57 73q-23 9 -42 9q-34 0 -66 -22q-52 -36 -51 -138q1 -78 11 -200l16 -199q8 -93 10 -110q0 -23 3 -61q4 -45 0 -117q-2 -44 39 -67q33 -18 81 -18q85 0 109 108q17 77 30 117 q26 79 59 103q21 16 63 21q39 5 67 -86q8 -25 49 -200q19 -54 72 -54q104 0 104 127q0 28 -4 65q-9 86 -43 172q-44 112 -103 140z" />
<glyph unicode="i" horiz-adv-x="351" d="M182 469q63 -2 108 62q16 23 16 61q0 25 -6 56q-16 83 -88 94q-19 3 -43 3q-61 0 -90.5 -30t-39.5 -92q-4 -24 -4 -40q0 -41 21 -65q18 -20 59 -38q22 -10 67 -11zM181 333q-55 -12 -71 -128q-3 -21 -10 -166q-5 -95 0 -122q11 -71 68 -89q25 -8 49 -8q25 0 47 10 q41 18 43 71q1 32 -7 95.5t-7 95.5q4 78 -5 134q-15 96 -58 105q-25 4 -38 4q-9 0 -11 -2z" />
<glyph unicode="j" horiz-adv-x="581" d="M527 694q-34 55 -95 56q-72 1 -118 -49q-31 -34 -31 -72q0 -19 8 -41q36 -100 141 -91q49 4 81 43t32 89q0 36 -18 65zM534 247q3 82 -11 119q-22 59 -91 60q-74 2 -91 -79q-9 -44 0 -138q7 -69 3 -101q-8 -69 -55 -74h-63q-37 0 -81 20q-20 9 -40 9t-38 -9 q-43 -22 -43 -74q0 -100 135 -146q83 -28 148 -22q70 6 110 23q56 23 82 72.5t29 152.5z" />
<glyph unicode="k" horiz-adv-x="733" d="M643 477l-148 -194q-59 -78 -114 -142q74 -31 148 -61q86 -46 80 -117q-5 -61 -52 -83q-13 -6 -28 -6q-45 0 -124 48l-144 87q-4 -88 -4 -113q1 -55 -59 -78q-31 -12 -54 -12q-25 0 -42 13q-40 32 -43 96v113q-3 141 -15 309q-12 173 -8 264q4 89 25 118q28 39 110 34 q73 -4 80 -146q6 -123 6 -217v-132q5 10 20 34l37 55q40 67 123 201q92 142 155 139q67 -3 98 -53q10 -16 10 -35q0 -47 -57 -122z" />
<glyph unicode="l" horiz-adv-x="347" d="M176 739q-18 6 -32 6q-45 0 -70 -47q-32 -61 -29 -139q5 -121 11 -213q7 -107 18 -211q4 -39 15 -147q9 -85 31 -121q23 -48 64 -48q24 0 55 17q11 14 19.5 43t5.5 46q0 75 3 158q5 135 -3 292q0 42 -2 125q-5 213 -86 239z" />
<glyph unicode="m" horiz-adv-x="1090" d="M908 604q-49 24 -116 23q-61 -1 -112 -42q-47 -37 -73 -97q-24 86 -96 115q-52 21 -92 21q-31 0 -56 -11q-62 -27 -89 -64q3 6 3 25q0 50 -25 93q-29 51 -76 51q-11 0 -17 -1q-65 -10 -91 -48q-17 -25 -17 -82q0 -28 4 -61q38 -318 27 -491q-1 -16 -1 -32q0 -140 91 -178 q17 -7 32 -7q50 0 71 58q16 42 12 99q-6 93 -3 193q4 114 15 160q25 102 97 102q56 0 79 -76q16 -53 14 -122q-3 -103 -8 -194q-4 -72 22 -127q32 -69 98 -69q15 0 25 2q63 12 71 82q14 119 16 289q1 120 36 172q19 28 36 28q18 0 35 -28q36 -57 33 -183q-3 -136 -7 -218 q-4 -89 52 -120q29 -16 56 -16q25 0 48 13q42 24 42 152q0 24 -1 45q-9 191 -13 235q-11 121 -25 172q-29 104 -97 137z" />
<glyph unicode="n" horiz-adv-x="825" d="M423 390q72 -7 96.5 -34.5t26.5 -100.5q2 -62 -5 -188q-5 -99 6 -147q20 -84 95 -92q94 -10 107 122q1 14 3 109t-9 261q-12 188 -101 250q-64 45 -149 45q-29 0 -71 -8q-132 -25 -173 -63q3 19 3 38q0 26 -5 54q-11 47 -64 53q-103 11 -126 -77q-11 -41 3 -194 q16 -180 14 -223l-8 -142q-3 -53 -3 -97q0 -123 112 -119q99 4 91 172q-3 36 -7 109q-5 119 20 185q34 88 123 88q10 0 21 -1z" />
<glyph unicode="o" horiz-adv-x="748" d="M397 660q-186 9 -262 -73q-43 -46 -63 -113q-11 -35 -25 -129q-3 -20 -3 -50q0 -65 16 -169q17 -113 39 -163q29 -66 97 -108q60 -36 166 -42q98 -5 178 36q85 43 125.5 126.5t40.5 176.5q0 25 -2 45q-16 156 -23 194q-39 212 -163 253q-36 12 -121 16zM506 165 q2 -27 2 -38q0 -82 -52 -116q-41 -27 -83 -27q-24 0 -47 9q-65 25 -72 134q-5 76 -7 188q-1 87 24 124q30 44 113 43q62 -1 90 -71q16 -42 23 -123z" />
<glyph unicode="p" horiz-adv-x="689" d="M587 677q-13 13 -39 26q-69 35 -148 34q-113 -2 -236 -75q-51 -31 -85 -112q-27 -67 -34 -141q-7 -77 -7 -137v-127q0 -68 12 -180q5 -46 14 -103q3 -19 23 -38q27 -25 61 -25q8 0 16 2q25 6 27 8l22 22q24 23 22 107q-2 82 -40 278q92 -20 175 -20q55 0 81 4q33 6 77 27 q57 27 99 79q40 49 40 152q0 141 -80 219zM454 444q0 -36 -36 -61q-32 -23 -70 -23q-30 0 -50 28q-19 25 -19 56q0 36 31 59q28 22 65 21q79 -3 79 -80z" />
<glyph unicode="q" horiz-adv-x="639" d="M435 197q0 -43 -6.5 -128.5t-6.5 -128.5q0 -28 25 -80q20 -42 23 -45q-4 0 26 -8q49 -5 78 22q18 17 22 39q25 142 25 274v122l5 162q3 83 -21 157q-31 100 -96 114q-77 17 -126 20q-155 11 -264 -51q-51 -29 -75 -81q-18 -40 -26 -110q-7 -63 2 -105q10 -45 45 -94 q50 -70 147 -82q117 -14 223 3zM385 441q-4 -39 -29 -66t-63 -23q-36 3 -60 23q-27 22 -27 57q0 36 26.5 61t62.5 26q38 1 65.5 -20t24.5 -58z" />
<glyph unicode="r" horiz-adv-x="621" d="M267 450q11 85 -7 172q-15 70 -100 70q-17 0 -38 -3q-28 2 -64 -37q-24 -26 -24 -94q0 -32 6 -77q11 -81 23 -242t22 -238.5t21 -102.5q19 -41 72 -67q10 -5 24 -5q25 0 56 21q38 26 38 133q0 27 -3.5 80.5t-3.5 80.5q0 97 25 128q65 81 221 94q70 5 63 91q-6 85 -112 93 t-219 -97z" />
<glyph unicode="s" horiz-adv-x="785" d="M165 657q-57 -34 -93 -120q-28 -68 -28 -137q0 -111 64 -173q50 -49 188 -53q116 -4 132 -6q93 -14 97 -66q3 -36 -36 -64q-33 -24 -73 -30q-28 -5 -50 0q-116 24 -177 24q-39 0 -58 -12q-22 -14 -33 -51q-4 -14 -4 -25q0 -76 148 -110q74 -17 107 -18q29 -1 78 3l79 6 q17 1 94 22q43 12 87 69q42 54 50 100q6 35 6 66q0 89 -49 145q-27 31 -88 58q-52 23 -102 33q-20 4 -126 5q-78 1 -119 27q-31 19 -26 42q0 23 5 48q2 29 44 49q15 7 43 7q49 0 133 -24q70 -20 111 -20q37 0 49 17q24 34 28 96q3 60 -34 77q-129 59 -259 59 q-114 0 -188 -44z" />
<glyph unicode="t" horiz-adv-x="756" d="M638 363q-15 2 -54 6q-29 3 -53 0q-6 -1 -14 -1q-15 0 -39 4l7 144q2 38 6 104q9 142 -93 152q-73 7 -97 -46q-15 -33 -14 -117q1 -64 3 -240q-78 -7 -124 -3q-54 5 -103 -30q-32 -23 -32 -62q0 -21 7 -43q29 -88 136 -88q53 0 127 18q2 -191 5 -251q3 -54 8 -68 q12 -31 50 -41q11 -3 27 -3q40 0 64 31q22 28 22 69t4 141q3 85 3 142q67 -4 112 -4q70 0 85 9q34 19 45 32q16 19 17 53q1 41 -20 56q-53 36 -85 36z" />
<glyph unicode="u" horiz-adv-x="804" d="M744 -43q0 22 -8 41q-19 45 -40 200q-11 80 -11 155q0 27 5 81t5 81q0 99 -85 114q-12 2 -25 2q-78 0 -82 -99q-1 -81 -4 -243q-3 -123 -19 -170q-30 -90 -123 -90q-98 0 -107 78q-7 63 -3 234q3 134 -1 171q-14 121 -80 126q-117 9 -123 -118q-7 -139 2 -204 q4 -32 11 -164q6 -101 22 -163q23 -85 105 -125q69 -33 165 -28q109 6 178 44q46 25 44 59q10 -47 64 -65q20 -7 39 -7q34 0 54 29q17 25 17 61z" />
<glyph unicode="v" horiz-adv-x="795" d="M654 677q-25 0 -55 -23q-43 -33 -83 -154q-18 -59 -56 -178q-10 -32 -31 -108q-18 -68 -40 -104q-33 47 -65 170q-23 92 -45 184q-9 36 -27 107q-16 57 -38 80q-28 29 -81 23q-33 -4 -57.5 -25.5t-31.5 -53.5q-2 -10 -5 -59q-3 -55 29 -162q5 -17 54 -159 q79 -229 151 -341q26 -41 112 -49q51 -5 95 42q74 111 113 218q12 32 79 166q50 100 65 171q18 87 17 115q-2 36 -23 75q-37 65 -77 65z" />
<glyph unicode="w" horiz-adv-x="992" d="M473 -59l-2 -11q-17 -94 -120 -105q-48 -5 -82 -4q-129 4 -162 180q-25 133 -31 201l-13 147q-14 158 -14 165q0 111 115 103q53 -4 73 -32q17 -25 17 -237q0 -126 19 -244q7 -45 50 -45q42 0 50 47q1 5 6 95q5 88 -1 238q-7 166 56 176q87 13 116 -32q21 -34 21 -130 q0 -344 48 -394q15 -15 34 -15q15 0 31 9q44 24 49 143q1 19 -5 161q-4 107 -3 133q5 108 40 122q18 4 60 7t67 -44q19 -37 19 -84q0 -37 -6 -140q-6 -98 4 -175q5 -44 19 -159q4 -35 4 -62q0 -95 -52 -93q-17 1 -44 4q-37 14 -46 75q-13 -45 -32 -61q-31 -25 -86 -37 t-92 -1q-36 11 -48 16q-16 3 -37 35q-19 29 -22 48z" />
<glyph unicode="x" horiz-adv-x="815" d="M708 409q-124 -138 -179 -203q77 -79 111 -117q76 -85 94 -131q7 -23 1 -60q-5 -35 -58 -63q-22 -12 -41 -12q-30 0 -56 26q-41 41 -174 218l-132 -178q-42 -56 -96 -61q-54 -4 -84 58q-11 23 -11 47q0 40 32 83q59 79 174 192q-105 108 -194 256q-37 62 -37 108 q0 38 24 65q35 40 75 40q21 0 43 -11q53 -26 123 -147q33 -59 98 -176l112 147q74 97 124 128q16 10 33 10q34 0 67 -42q17 -22 17 -49q0 -54 -66 -128z" />
<glyph unicode="y" horiz-adv-x="679" d="M434 607q-6 -23 -6 -95q1 -81 -7 -113q-12 -36 -24 -50q-15 -18 -46 -25q-36 0 -44 1q-31 4 -50 11q-44 17 -38 109q3 45 3 96q0 3 -2 45q0 5 -1 43q-1 42 -56 59q-20 6 -32 6q-32 0 -52 -25q-32 -39 -30 -81q2 -26 6 -94q2 -29 6 -104q3 -61 7 -73q7 -59 29 -96 q17 -30 33 -39q9 -7 21 -13q19 -10 68 -21.5t73 -12.5q112 -4 154 30q31 25 34 29q0 -7 -3 -22q-2 -43 -16 -100q-10 -40 -29.5 -54.5t-65.5 -21.5q-40 0 -63 -1q-12 -1 -65 28q-9 7 -37 24q-13 8 -32 8q-63 0 -71 -64q-5 -37 7 -70q32 -88 170 -113q55 -9 103 -8 q106 2 155 55q39 42 59 134q9 43 21 148q3 31 10 82q28 220 24 285q-4 43 -12 128q-3 30 -18 45q-16 11 -56 23q-14 4 -29 4q-31 0 -67 -17q-17 -23 -31 -80z" />
<glyph unicode="z" horiz-adv-x="779" d="M468 492q-11 4 -67 8q-88 7 -214 0q-58 10 -71 27q-25 53 -25 88q0 29 17 45q33 37 137 39q78 1 282 6q103 4 128 -7q44 -19 66 -101q3 -11 3 -24q0 -70 -96 -174q-70 -76 -115 -129l179 -81q65 -29 65 -79q0 -46 -25 -65q-14 -8 -41 -23q-4 -2 -11 -2q-48 0 -165 60 q-55 28 -97 52q-10 -17 -44 -62l-36 -48h-1v0v-1l-6 -6q41 -2 260 -27q52 -6 56 -61q6 -86 -84 -93q-36 -3 -108 -5q-310 -10 -347 59q-17 31 -17 55q0 14 5 26q19 47 75 121q12 14 92 112l-204 77q-36 18 -39 64q-2 41 27 66t72 28q40 3 203 -86l33 -18l86 122q23 33 27 37 z" />
<glyph unicode="{" horiz-adv-x="438" d="M306 -200q128 1 125 58q-2 41 -37 54l-64 18q-34 17 -35 73q0 56 1 112q-2 67 -17 109q-21 54 -70 83q47 56 52 98q3 26 4 136q1 100 61 100q6 0 17.5 -1.5t17.5 -1.5q58 0 74 71q3 13 3 27q0 64 -91 64q-75 0 -143 -52q-81 -62 -79 -338q-49 -8 -83 -35q-42 -31 -42 -76 q0 -15 4 -28q15 -48 52 -53q16 -2 56 -8q23 -3 32 -1q15 -37 4 -100q-8 -46 -8 -93q0 -58 14 -115q25 -102 152 -101z" />
<glyph unicode="|" horiz-adv-x="331" d="M182 790q-21 10 -40 10q-36 0 -55 -40q-29 -59 -23 -237q6 -193 28 -442q8 -93 6 -145q9 -91 27 -108q5 -5 20 -16q0 -5 33 -12q11 -4 19 -4q19 0 38 16q28 23 30 117q3 130 2 164q-1 28 -12 255q-8 158 -7 256q1 154 -66 186z" />
<glyph unicode="}" horiz-adv-x="438" d="M131 800q-127 -1 -125 -57q2 -42 35 -52.5t65 -19.5q35 -17 36 -73l4 -167q2 -88 82 -138q-53 -61 -55 -139q0 -32 -1 -97q-1 -98 -60 -98q-6 0 -17 1.5t-17 1.5q-60 0 -76 -76q-2 -10 -2 -22q0 -64 91 -64q72 0 144 54q79 59 79 335q45 9 82 37q42 33 42 75q0 14 -5 29 q-16 49 -51 53l-56 7q-24 3 -32 3q-16 34 -4 99q8 44 8 88q0 58 -15 120q-24 101 -152 100z" />
<glyph unicode="~" horiz-adv-x="463" d="M309 554q-28 0 -75 35q-40 51 -77 51q-22 0 -34 -54q-9 -39 -41 -39q-41 0 -41 66q0 40 31 94q34 60 72 60q22 0 52 -27q15 -14 46 -42q11 -10 39 -23h12q6 2 19 5q7 6 16.5 25t11.5 30q8 46 39 46q22 0 35 -22q11 -18 11 -42q0 -54 -24 -100q-21 -41 -73 -57z" />
<glyph unicode="&#xa5;" horiz-adv-x="680" d="M605 33q21 12 21 27q0 49 -125 49q-12 0 -61 -3q-17 0 -47 -3q0 8 -1 23.5t-1 23.5q125 9 158.5 41t48.5 157q16 139 18 212q4 157 -75 173q-15 3 -29 3q-96 0 -92 -146l5 -170q1 -52 -4 -81q-10 -53 -43 -58q-21 -3 -59 -7t-63 21t-21 63q0 3 -6 83q-3 52 -11 187 q-7 99 -84 105q-36 3 -70 -25q-23 -19 -23 -101q0 -40 7 -107l24 -229q7 -70 66 -103q41 -23 124 -30q1 -13 3 -36q-18 0 -110 -2q-48 -1 -68 -6q-43 -13 -27 -49q9 -20 75 -26q54 -5 86 0q41 2 46 -4.5t8 -45.5h-49q-177 5 -177 -37q0 -19 18 -32q15 -11 35 -11h81l95 3 q3 -35 11 -51q9 -28 42 -32q30 -3 50 2q42 24 38 77q42 2 63 1q34 -1 86 2q70 4 70 45q0 26 -45 32q-62 8 -107 6q-52 -3 -78 -5q-1 9 -3 20l-5 32q41 -4 71 -4t49 4q53 -7 85 12z" />
<glyph unicode="&#xa9;" horiz-adv-x="828" d="M758 255q5 32 0 124q-4 77 -60 145.5t-131 92.5q-96 31 -176 31q-107 0 -189 -52q-103 -65 -125 -183q-12 -64 -12 -122q0 -53 9 -102q36 -194 259 -235q38 -7 75 -7q70 0 142 24q109 36 148 98q30 48 42 90q7 27 18 96zM275 483q9 0 16 -5q15 -15 15 -35q0 -4 -2 -11 t-2 -9t-2 -4q-8 -14 -28 -16q-3 1 -9 5q-7 17 -14 38q6 37 26 37zM222 177v19q0 9 4 17q1 2 3 2q4 0 13 -9q0 -1 6 -18.5t7 -18.5q4 -20 31 -45q42 -38 113 -50q26 -4 65 0q28 3 44 15q48 35 56 108q1 7 6 25l3 4q2 1 6 1q1 -1 2 -1q15 -23 14 -34q0 -50 -26 -89.5 t-73 -56.5q-20 -8 -45 -9q-35 -2 -43 -3q-42 0 -87 19q-48 21 -72 53q-27 36 -27 71zM539 408q-2 19 -2 29q-2 17 13 27q6 5 12 5q7 0 13.5 -7.5t11.5 -17.5q0 -2 1 -6q6 -17 1 -26q-9 -17 -26 -24q-24 6 -24 20zM452 317q-4 21 -18 22q-5 2 -9 2q-15 0 -24 -25 q-4 -7 -7 -20q0 -7 -4 -20q-1 -7 -9 -18q-2 -2 -5 -2q-4 0 -12 4q-7 29 5 61q17 47 54 47q27 0 44 -17q20 -50 17 -70q-5 -21 -14 -21q-6 2 -6 7q-5 14 -12 50z" />
<glyph unicode="&#xad;" d="M518 241q5 21 5 36q0 26 -14 44q-21 27 -140 30q-126 3 -182 -7q-131 -23 -131 -112q0 -61 88 -70q97 -10 161 -2q36 5 132 17q68 8 81 64z" />
<glyph unicode="&#xae;" horiz-adv-x="780" d="M748 258q5 32 0 124q-4 77 -60.5 145.5t-130.5 92.5q-96 31 -176 31q-106 0 -189 -52q-103 -65 -125 -182q-12 -64 -12 -123q0 -53 9 -102q36 -194 259 -235q38 -7 75 -7q69 0 141 24q78 26 123.5 69.5t67.5 118.5q7 24 18 96zM265 487q14 0 22.5 -13t8.5 -28 q0 -6 -2 -12l-4 -12q-9 -14 -28 -16q-4 1 -9 5q-8 18 -15 39q7 37 27 37zM212 180v19q0 9 4 17q1 2 3 2q4 0 13 -9q-1 -1 5.5 -18t6.5 -19q5 -21 31 -45q41 -38 114 -50q28 -5 65 0q26 3 43 15q48 34 57 108q0 4 5 25l4 4q2 1 5 1q2 -1 3 -1q15 -23 13 -34q0 -36 -14 -69 q-22 -52 -85 -76q-30 -11 -87 -12q-42 -1 -89 19t-71 52q-4 6 -11 18q-15 30 -15 53zM529 411q-3 19 -3 29q-2 16 13 27q24 17 37 -20q0 -2 2 -5q6 -17 1 -27q-9 -17 -26 -23q-24 5 -24 19zM442 320q-4 21 -19 23q-4 1 -8 1q-15 0 -25 -25q-4 -6 -6 -20q0 -5 -8 -33 q-2 -2 -4.5 -4t-5.5 -2q-4 0 -13 3q-6 28 6 61q17 47 53 47q28 0 44 -16q19 -24 19 -55q0 -18 -7 -31q-2 -6 -8 -6q-6 3 -6 7q-5 14 -12 50z" />
<glyph unicode="&#x2000;" horiz-adv-x="417" />
<glyph unicode="&#x2001;" horiz-adv-x="834" />
<glyph unicode="&#x2002;" horiz-adv-x="417" />
<glyph unicode="&#x2003;" horiz-adv-x="834" />
<glyph unicode="&#x2004;" horiz-adv-x="278" />
<glyph unicode="&#x2005;" horiz-adv-x="208" />
<glyph unicode="&#x2006;" horiz-adv-x="139" />
<glyph unicode="&#x2007;" horiz-adv-x="139" />
<glyph unicode="&#x2008;" horiz-adv-x="104" />
<glyph unicode="&#x2009;" horiz-adv-x="166" />
<glyph unicode="&#x200a;" horiz-adv-x="46" />
<glyph unicode="&#x2010;" d="M518 241q5 21 5 36q0 26 -14 44q-21 27 -140 30q-126 3 -182 -7q-131 -23 -131 -112q0 -61 88 -70q97 -10 161 -2q36 5 132 17q68 8 81 64z" />
<glyph unicode="&#x2011;" d="M518 241q5 21 5 36q0 26 -14 44q-21 27 -140 30q-126 3 -182 -7q-131 -23 -131 -112q0 -61 88 -70q97 -10 161 -2q36 5 132 17q68 8 81 64z" />
<glyph unicode="&#x2012;" d="M518 241q5 21 5 36q0 26 -14 44q-21 27 -140 30q-126 3 -182 -7q-131 -23 -131 -112q0 -61 88 -70q97 -10 161 -2q36 5 132 17q68 8 81 64z" />
<glyph unicode="&#x2013;" horiz-adv-x="613" d="M551 241q5 21 5 36q0 26 -15 44q-22 27 -150 30q-135 3 -195 -7q-140 -23 -140 -112q0 -61 94 -70q104 -10 173 -2q38 5 141 17q73 8 87 64z" />
<glyph unicode="&#x2014;" horiz-adv-x="1113" d="M1045 241q11 21 11 36q0 26 -30 44q-45 27 -300 30q-270 3 -389 -7q-281 -23 -281 -112q0 -61 188 -70q208 -10 345 -2q77 5 283 17q145 8 173 64z" />
<glyph unicode="&#x202f;" horiz-adv-x="166" />
<glyph unicode="&#x205f;" horiz-adv-x="208" />
<glyph unicode="&#xe000;" horiz-adv-x="675" d="M0 675h675v-675h-675v675z" />
</font>
</defs>
</svg>
