<?xml version="1.0" standalone="no"?>
<!DOCTYPE svg PUBLIC "-//W3C//DTD SVG 1.1//EN" "http://www.w3.org/Graphics/SVG/1.1/DTD/svg11.dtd" >
<svg xmlns="http://www.w3.org/2000/svg">
<metadata></metadata>
<defs>
<font id="griffosfontregular" horiz-adv-x="333" >
<font-face units-per-em="1000" ascent="800" descent="-200" />
<missing-glyph horiz-adv-x="222" />
<glyph horiz-adv-x="1000" />
<glyph horiz-adv-x="1000" />
<glyph />
<glyph d="M290 629h-15q-9 -44 -40 -65t-67 -20.5t-68 22t-42 63.5h-14q4 -28 12.5 -53.5t23.5 -44.5t37 -30t54 -11q31 0 52.5 11.5t35 31t21 44.5t10.5 52z" />
<glyph d="M207 558q0 17 -11.5 28t-26 12.5t-27.5 -7.5t-16 -30q-3 -19 9.5 -29.5t28.5 -12t29.5 8t13.5 30.5z" />
<glyph d="M247 561q0 27 -12 44.5t-30 26.5t-39 9t-39 -9t-30 -26.5t-12 -44.5t12 -44.5t30 -26.5t39 -9t39 9t30 26.5t12 44.5zM218 561q0 -26 -16.5 -39t-36 -12.5t-35.5 13.5t-16 38t16 38t35.5 13.5t36 -12.5t16.5 -39z" />
<glyph unicode="&#xa;" d="M326 618q-1 11 -13 18.5t-22 7.5q-7 0 -18 -10.5t-23.5 -26.5t-26 -35.5t-25.5 -38t-21 -34t-14 -22.5l9 -6l108 87q5 4 13 11.5t15.5 15.5t12.5 17t5 16zM208 618q-1 11 -13 18.5t-22 7.5q-7 0 -18 -10.5t-23.5 -26.5t-26 -35.5t-25.5 -38t-21 -34t-14 -22.5l10 -6 l107 87q5 4 13 11.5t15.5 15.5t12.5 17t5 16z" />
<glyph d="M269 -150l-9 16q-37 -12 -74 -6.5t-61.5 25t-30 51t20.5 72.5h-21q-30 -39 -38 -71t0 -56t29.5 -39t50.5 -19.5t64 2t69 25.5z" />
<glyph d="M278 642l-4 4q-9 -7 -22 -21t-26.5 -30.5t-26 -32t-21.5 -25.5q-33 24 -59.5 54.5t-59.5 53.5l-5 -2v-7l90 -162h47q9 16 22.5 38t26.5 45.5t23.5 45.5t14.5 39z" />
<glyph unicode="&#xd;" horiz-adv-x="240" d="M219 1v24q-5 1 -12.5 3t-15.5 4.5t-14.5 6t-9.5 6.5q-2 8 -2 16v16v329q-11 0 -16.5 -0.5t-10.5 -2.5t-10 -5t-14 -7q-6 -3 -18 -8t-24 -11.5t-21.5 -13.5t-9.5 -14q0 -4 5.5 -10.5t12 -13.5t13 -13t9.5 -10q3 -5 5.5 -22.5t3.5 -41t1 -50.5v-52t-1 -44.5t-2 -27.5 q-1 -6 -9.5 -11.5t-20 -10.5t-22.5 -10t-17 -9l-1 -19q11 0 23 -1t23 0q4 0 8 1.5t8 1.5h139z" />
<glyph horiz-adv-x="73" d="M217 636h-36l-326 -670h35z" />
<glyph horiz-adv-x="427" d="M403 18q0 9 -8 12.5t-15 6.5q-22 10 -25.5 25.5t-5.5 37.5q-4 70 -5.5 139.5t0.5 139.5q-52 -5 -104.5 -10t-104.5 4v67q0 27 6.5 54.5t21 50t36.5 36.5t53 14q28 0 38.5 -9.5t16 -21.5t11 -21.5t23.5 -9.5q9 0 19 2t18.5 6.5t14 11.5t5.5 18q0 20 -10.5 33.5t-26.5 21.5 t-35 11.5t-35 3.5q-44 0 -83.5 -17t-71 -46t-52 -67.5t-24.5 -81.5q-2 -15 -2.5 -27.5t-13.5 -23.5q-13 -12 -23.5 -20.5t-10.5 -29.5q9 -6 17 -9.5t18 -7.5q6 -3 10 -17.5t6 -36t3.5 -46.5t1.5 -48v-42v-26q0 -13 -2 -26t-8 -25q-3 -7 -10 -8.5t-14.5 -4t-13.5 -8t-7 -19.5 q14 -3 37 -4.5t47 -1.5q25 0 48 1t38 4l3 23q-12 1 -21 2.5t-14.5 5t-8.5 11t-4 21.5q-5 60 -4 117.5t0 117.5l9 16l5 3h122q3 -8 6 -31t5 -52.5t3 -62.5t0.5 -61t-3 -47.5t-7.5 -21.5l-27 -14q-2 -17 5 -30q34 -1 68 -1t68 3q10 1 13.5 3t3.5 13z" />
<glyph horiz-adv-x="479" d="M446 22q-13 12 -21 20.5t-13 18t-7 21t-2 29.5q0 254 6 509q1 25 -12.5 38t-38.5 10q-18 -2 -35.5 -3t-35.5 -2q-75 -3 -125 -37t-66 -111q-3 -12 -5.5 -31t-5.5 -38.5t-7.5 -36.5t-11.5 -26q-8 -11 -17.5 -20.5t-9.5 -25.5q0 -9 3.5 -13.5t9 -6t12.5 -1.5h13 q0 -22 1 -59t0.5 -76t-5 -73.5t-16.5 -50.5q-7 -10 -14.5 -19.5t-7.5 -22.5q0 -8 20 -11t45.5 -4t50 -0.5t32.5 0.5l4 6v13q-6 7 -13.5 12t-13.5 13q-9 11 -11 34t-1.5 49t2 51t0.5 40q-1 23 -3 45t2 45q12 6 37.5 8.5t53.5 2.5q29 0 55 -3t39 -8q2 -63 5 -128t-11 -127 l-53 -34v-15q11 0 37.5 -1t54.5 -2.5t50.5 -2.5t26.5 0q4 10 2 24zM338 474q0 -8 2 -24.5t1.5 -33t-5 -29.5t-17.5 -13h-164l-6 6q-6 23 -3 47.5t5 48.5q2 22 5 46.5t12 45t26 33.5t46 13q23 0 47.5 -9.5t43.5 -21.5q6 -27 6.5 -54.5t0.5 -54.5z" />
<glyph horiz-adv-x="677" d="M657 112q0 7 -10.5 14t-16.5 9q-5 -3 -7.5 -6.5t-5.5 -8.5q-18 -26 -43.5 -42t-54.5 -25.5t-60 -13t-61 -3.5q-12 0 -37 2t-50.5 6.5t-46.5 12.5t-27 19q-6 12 -8.5 41.5t-2.5 63.5t0.5 65.5t0.5 48.5l138 111v42l-138 -112v177q0 31 9.5 48.5t25.5 26t37.5 12t46.5 8.5 q5 11 3 22q-36 6 -71 -1t-71 -7q-13 0 -30.5 1.5t-35 3.5t-33.5 3.5t-25 0.5q-6 0 -8.5 -5t-3.5 -11.5t0 -13.5t2 -11q22 -6 35.5 -9t21 -9t10 -18.5t2.5 -38.5v-248l-120 -96v-42l120 96v-133q0 -25 -6 -37t-15 -17.5t-20 -5.5t-20 -0.5t-15 -4t-6 -14.5q0 -9 6 -15 q112 6 223 0t223 -8q24 0 48 3q10 1 18 7t15 14t13 16.5t11 16.5q3 4 9.5 13.5t13.5 19.5t12 19t5 13z" />
<glyph horiz-adv-x="240" d="M227 405v34l-71 -54l3 242v28q0 15 -2 29h-17q-29 -14 -59.5 -26.5t-56.5 -31.5q-1 -19 4 -26.5t13.5 -10.5t19.5 -6t22 -12l-1 -249l-66 -51v-34l65 51q-1 -54 -1 -106v-106q0 -26 -8 -33t-17.5 -8.5t-17.5 -3t-8 -15.5t10.5 -18t24.5 -3.5t28.5 3.5t22.5 3t23 -1.5 t30.5 -2.5t29.5 -0.5t20 4.5q0 7 -0.5 13.5t-2.5 13.5q-26 3 -39 5.5t-18 9t-5 19.5v40l3 247z" />
<glyph horiz-adv-x="677" d="M450 840l-4 4q-9 -7 -22 -21t-26.5 -30.5t-26 -32t-21.5 -25.5q-33 24 -59.5 54t-59.5 54l-5 -2v-7l90 -162h47q9 16 22.5 38t26.5 45.5t23.5 45.5t14.5 39zM617 176q-2 16 -14 19.5t-23 -7.5q-6 -18 -9.5 -42.5t-11 -47t-22 -38t-40.5 -15.5h-321q95 121 185 242.5 t181 245.5q12 17 24.5 33t23.5 33l-1 24h-492q0 -23 0.5 -44.5t-0.5 -44.5q-1 -20 -2.5 -38.5t-0.5 -38.5q17 -2 30 2q6 21 10.5 42.5t13 39t24 28t44.5 10.5h255q-94 -124 -186 -246.5t-186 -246.5q-11 -15 -19.5 -23t-14 -16t-8 -19t-2.5 -31h545q2 16 5 40.5t6 50.5t5 50 t1 38z" />
<glyph horiz-adv-x="385" d="M304 608l-4 4q-9 -7 -22 -21t-26.5 -30.5t-26 -32t-21.5 -25.5q-33 24 -59.5 54.5t-59.5 53.5l-5 -2v-7l90 -162h47q9 16 22.5 38t26.5 45.5t23.5 45.5t14.5 39zM358 90q-11 1 -14.5 -3t-8.5 -12q-6 -9 -13.5 -13.5t-16.5 -5.5t-19 -1h-18q-66 -3 -133 -3l198 289 q8 12 14 26t3 29q-24 2 -47.5 -3t-47.5 -5q-38 0 -75 2.5t-74 4.5q-6 0 -17 3t-22.5 3.5t-19.5 -2.5t-8 -13l6 -102q7 -2 14 -1.5t15 0.5q4 17 8 32.5t9 31.5q14 4 32 5.5t37 1.5q20 0 39 -0.5t34 -0.5q8 0 15 1.5t15 0.5q-15 -14 -37.5 -45.5t-45.5 -68t-45 -71.5t-36 -56 q-5 -8 -12 -15t-13 -15q-14 -17 -26 -34.5t-24 -35.5l-3 -22q15 -1 30.5 1.5t30.5 2.5h236q9 0 18 2l18 4q5 22 4.5 44t-0.5 44z" />
<glyph unicode=" "  horiz-adv-x="222" />
<glyph unicode="&#x09;" horiz-adv-x="222" />
<glyph unicode="&#xa0;" horiz-adv-x="222" />
<glyph unicode="!" horiz-adv-x="240" d="M172 625q1 8 -5.5 12.5t-11.5 8.5h-79l-3 -2q-4 -13 -4.5 -26t1.5 -27q6 -69 12.5 -136t14.5 -136q3 -29 3.5 -57.5t5.5 -57.5q13 -3 27 -3l4 7l18 227q4 48 8.5 95t8.5 95zM183 54q0 28 -19.5 39.5t-42.5 9.5t-42.5 -17t-19.5 -40q0 -38 19.5 -51t42.5 -8.5t42.5 23 t19.5 44.5z" />
<glyph unicode="&#x22;" horiz-adv-x="406" d="M338 543q3 15 3 31t-4.5 29.5t-15.5 22.5t-30 9q-26 0 -36 -16.5t-11 -39t3 -46t7 -38.5l27 -145h21zM159 543q3 15 3 31t-4.5 29.5t-15.5 22.5t-30 9q-26 0 -36 -16.5t-11 -39t3 -46t7 -38.5l27 -145h21z" />
<glyph unicode="#" horiz-adv-x="667" d="M621 179v43h-154l41 199h113v43h-104l43 203h-43l-42 -203h-223l43 203h-43l-42 -203h-164v-43h154l-41 -199h-113v-43h104l-43 -202h44l41 202h224l-43 -202h44l41 202h163zM466 421l-41 -198h-224l42 198h223z" />
<glyph unicode="$" horiz-adv-x="427" d="M401 143q0 31 -10 54t-27.5 40.5t-39.5 31t-46 27.5v205q10 -5 19.5 -11.5t15.5 -16.5q7 -11 11.5 -21t10 -18t14.5 -12.5t25 -4.5q23 0 23 26q0 22 -12.5 38t-30.5 27.5t-38.5 19.5t-37.5 14v62h-29v-58h-66v58h-29v-62q-26 -8 -48.5 -18t-39.5 -24.5t-27 -35.5t-10 -52 q0 -30 10.5 -52.5t27.5 -39t40 -28.5t47 -23v-234q-18 9 -28 22.5t-19 25.5t-20.5 20.5t-31.5 8.5q-24 0 -26.5 -13.5t1.5 -31.5q24 -34 54 -51.5t70 -25.5v-96h29v93h66v-93h29v96q27 13 49.5 26t39 30t25.5 40.5t9 56.5zM249 310q-17 5 -33 13.5t-33 16.5v170q17 5 33 4 t33 -4v-200zM154 355q-40 14 -55 37t-11.5 46t21.5 41.5t45 24.5v-149zM278 33v177q32 -18 48.5 -41.5t17.5 -48t-15.5 -47.5t-50.5 -40zM249 23q-19 -4 -33 -4t-33 4v229l66 -26v-203z" />
<glyph unicode="%" horiz-adv-x="813" d="M757 122q0 29 -9 57.5t-26.5 51.5t-42.5 37.5t-57 14.5t-63 -10t-54 -35q-24 -26 -37.5 -54.5t-13.5 -64.5q0 -78 35.5 -118.5t116.5 -40.5q34 0 62 13t47.5 35.5t30.5 51.5t11 62zM697 108q0 -44 -13.5 -71.5t-34 -40t-44 -10t-44 20t-34 49.5t-13.5 79t13.5 75t34 39.5 t44 7t44 -23t34 -50.5t13.5 -75zM674 639h-38l-490 -678h39zM360 473q0 29 -9 57.5t-26.5 51.5t-42.5 37.5t-57 14.5t-63 -10t-54 -35q-24 -26 -37.5 -54.5t-13.5 -64.5q0 -78 35.5 -118.5t116.5 -40.5q34 0 62 13t47.5 35.5t30.5 51.5t11 62zM300 459q0 -44 -13.5 -71.5 t-34 -40t-44 -10t-44 20t-34 49.5t-13.5 79t13.5 75t34 39.5t44 7t44 -23t34 -50.5t13.5 -75z" />
<glyph unicode="&#x26;" horiz-adv-x="719" d="M673 394v20l-3 7l-52 8t-52 4q-12 0 -17 -4.5t-5 -16.5v-31t-2.5 -18t-8 -17t-15.5 -27l-69 -120q-20 31 -31.5 51t-25 35.5t-32.5 29.5t-52 32q16 11 33 23t31 26.5t22.5 32t8.5 40.5q0 19 -6.5 39.5t-18.5 36.5t-29 26.5t-39 10.5q-34 0 -71 -16.5t-62.5 -43t-33 -60.5 t16.5 -68q14 -20 31.5 -36.5t34.5 -33.5q-15 -9 -34 -17t-38 -17t-35.5 -19.5t-26.5 -25.5q-7 -10 -12.5 -24t-9.5 -29.5t-6 -30.5t-2 -27q0 -41 14.5 -70.5t39.5 -48t58.5 -27t70.5 -8.5q34 0 60 10.5t48 27.5t41 39t39 45q13 -20 25 -40t27.5 -35.5t35 -25t47.5 -9.5 q21 0 40 8t33 22.5t20.5 33.5t3.5 41q-19 -7 -35 -20t-37 -13q-35 0 -59 22t-38 52q-2 5 -5.5 12.5t-3.5 12.5q0 7 7 22.5t17.5 34t23 38.5t24 37.5t20 30t10.5 16.5q3 4 7 11.5t8.5 15t10 13t11.5 6.5q10 1 19 -0.5t19 0.5zM336 463q0 -35 -9.5 -58.5t-43.5 -39.5 q-9 7 -21 18.5t-23 25t-19 27.5t-8 26t8.5 24t21.5 21t27 15t25 6q13 0 21.5 -6.5t13 -16t6 -21t1.5 -21.5zM411 129q-27 -38 -59 -61t-81 -23q-57 0 -86 26t-29 84q0 51 23.5 85t62.5 63q27 -11 51 -30.5t45 -43.5t39.5 -50t33.5 -50z" />
<glyph unicode="'" horiz-adv-x="177" d="M134 543q3 15 3 31t-4.5 29.5t-15.5 22.5t-30 9q-26 0 -36 -16.5t-11 -39t3 -46t7 -38.5l27 -145h21z" />
<glyph unicode="(" d="M313 -212q-44 42 -83 84.5t-64 98.5q-24 54 -35 117t-11 127q0 65 11 128.5t33 117.5q13 32 28.5 58t34 49t40 44t46.5 44l-15 24l-4 2l-4 -1q-72 -54 -116 -119.5t-80 -146.5q-27 -62 -32 -134t7 -144.5t39.5 -140t66.5 -120.5q25 -34 54.5 -62t62.5 -54l7 4z" />
<glyph unicode=")" d="M239 27q27 61 32 133.5t-7 145t-39.5 140t-66.5 120.5q-25 34 -54.5 62t-62.5 54l-7 -4l-14 -24q22 -21 43 -41.5t40 -42.5t35.5 -46.5t28.5 -52.5q24 -54 35 -117t11 -128q0 -64 -11 -127.5t-33 -117.5q-13 -32 -28.5 -58t-34 -49t-40 -44.5t-46.5 -43.5l15 -24l4 -2 l4 1q72 54 116 119.5t80 146.5z" />
<glyph unicode="*" horiz-adv-x="479" d="M439 379l-158 90l158 79q-10 21 -24 43q-43 -17 -80.5 -42.5t-75.5 -50.5q-1 18 0.5 36.5t3.5 36.5q2 28 3 55t0 55h-54q-1 -14 1 -29t3 -29q2 -32 2.5 -62.5t1.5 -62.5q-38 26 -75.5 53t-79.5 48l-23 -40l162 -94l-165 -84q5 -11 11 -21t14 -19l155 89q1 -44 -2 -87.5 t-1 -87.5h48q-2 32 -2 64t-1 64q0 14 -1.5 28t-0.5 28l157 -103q7 11 12.5 21.5t10.5 21.5z" />
<glyph unicode="+" horiz-adv-x="667" d="M595 299v43h-240v240h-43v-240h-240v-43h240v-240h43v240h240z" />
<glyph unicode="," horiz-adv-x="240" d="M192 3q0 43 -23 66t-50.5 27t-50.5 -11t-23 -47q0 -22 10 -31.5t22.5 -14.5t22.5 -10.5t10 -18.5q0 -12 -9.5 -21.5t-20.5 -18t-20.5 -17t-9.5 -18.5q0 -13 11 -19.5t22 -6.5q20 0 39.5 15.5t35 37t25 46t9.5 42.5z" />
<glyph unicode="-" horiz-adv-x="292" d="M233 219q1 14 0.5 29t-2.5 29l-207 -29q-9 -1 -12.5 -7.5t-3.5 -15.5q0 -8 2.5 -16.5t4.5 -14.5q4 -2 8 -3.5t9 -1.5q19 0 45.5 3.5t54 8t54.5 9.5t47 9z" />
<glyph unicode="." horiz-adv-x="240" d="M182 48q0 25 -19 40t-42.5 16t-42.5 -13t-19 -48q0 -32 19 -44.5t42.5 -10t42.5 18t19 41.5z" />
<glyph unicode="/" horiz-adv-x="292" d="M262 680h-57l-174 -918h56z" />
<glyph unicode="0" horiz-adv-x="427" d="M405 318q0 108 -28.5 178.5t-70.5 104.5t-92 32.5t-92 -38.5t-70.5 -108.5t-28.5 -176.5q0 -106 28.5 -178t70.5 -109.5t92 -38.5t92 35.5t70.5 110.5t28.5 188zM324 214q0 -22 -4.5 -56.5t-16 -66.5t-31 -55.5t-49.5 -23.5q-26 0 -44.5 17t-31.5 37q-22 35 -31.5 76.5 t-12 85t-1 87t1.5 83.5q0 16 2 37.5t7 44.5t12.5 45.5t19.5 40.5t28 29t37 11q34 0 56 -23t34.5 -59t18 -80.5t6.5 -88t0 -81.5t-1 -60z" />
<glyph unicode="1" horiz-adv-x="427" d="M375 -1v12q-7 11 -12.5 13t-17.5 3q-37 3 -59.5 22t-24.5 57q-3 49 -5 98t-3 98q-1 47 -0.5 92.5t2.5 92.5q0 15 2 35t3.5 40t1 39t-4.5 33q-17 2 -31 -9l-133 -98q-6 -4 -13 -9.5t-11.5 -12t-4.5 -14.5q0 -7 8 -14q10 4 28.5 15.5t36 18.5t30.5 4t13 -28l5 -288 q1 -29 1 -58t-5 -57q-4 -22 -17.5 -31.5t-30.5 -14t-36 -8t-33 -12.5l3 -22q26 -1 52.5 1t52.5 3q22 1 43.5 0.5t43.5 -0.5q27 0 53 -5t53 -5z" />
<glyph unicode="2" horiz-adv-x="427" d="M405 181q0 4 -3 6t-6 3l-12 -5q-4 -10 -11 -28.5t-16 -37t-20 -32.5t-23 -15q-22 -2 -44 -2.5t-44 -1.5q-28 -2 -55 2.5t-54 7.5q26 38 55 73.5t61 69.5q25 27 50.5 55t46.5 59.5t34 66t13 73.5q0 25 -9 47.5t-24 41t-35 33t-42 24.5q-11 5 -23.5 9t-25.5 4t-29 -5.5 t-31 -14.5t-28.5 -20t-21.5 -21q-4 -5 -10.5 -12.5t-12.5 -16t-10.5 -17t-4.5 -13.5t4 -9.5t9 -4.5q7 0 18 9.5t25.5 20.5t32.5 20.5t39 9.5q25 0 45 -12.5t34.5 -32t22.5 -43.5t8 -46q0 -38 -16 -71t-40 -63t-51.5 -57t-50.5 -53q-34 -38 -66 -78t-65 -80q2 -7 5 -13.5 t7 -12.5q8 2 18.5 5t18.5 3l251 -11q12 -1 23 1.5t22 7.5q6 13 13 37t13.5 50.5t11 51t3.5 38.5z" />
<glyph unicode="3" horiz-adv-x="427" d="M352 199q0 22 -3.5 44.5t-12 41.5t-24 34t-39.5 23l-52 17q20 17 40 30.5t36 29t26 36t10 50.5q0 51 -27.5 83t-66.5 41.5t-80.5 -6t-69.5 -60.5q-5 -8 -9.5 -17t-4.5 -18q0 -5 4.5 -8t9.5 -3q4 0 12 8t20 17.5t28 17.5t36 8q35 0 57 -23.5t22 -58.5q0 -29 -17 -53.5 t-40.5 -46.5t-49.5 -41.5t-44 -37.5l6 -15h38t39.5 -3t36.5 -11.5t29 -24.5q17 -23 24.5 -59.5t1.5 -71.5t-26.5 -60.5t-58.5 -25.5q-13 0 -24.5 4.5t-22 10.5t-20 10.5t-18.5 4.5q-11 0 -24 -12.5t-13 -23.5q0 -10 11 -18t25.5 -14t29.5 -9.5t23 -3.5q15 0 30 4t29 10 q65 26 94 79.5t29 120.5z" />
<glyph unicode="4" horiz-adv-x="427" d="M408 213v47q-2 8 -7 8.5t-12 0.5q-34 -2 -67 3q-2 91 3.5 181t3.5 181l-33 -1q-73 -89 -137 -184.5t-128 -191.5q-9 -14 -12 -23t5 -26q13 0 26 1t26 1h177l6 -226l62 -1q3 6 4.5 38t2 70.5t0 73.5t-0.5 48q20 2 39.5 1t38.5 -7zM255 523q0 -65 2 -129.5t-7 -129.5 q-28 0 -56 0.5t-56 -1.5q-16 -1 -31 -2.5t-31 -0.5v6q39 66 82.5 132.5t94.5 124.5h2z" />
<glyph unicode="5" horiz-adv-x="427" d="M401 579q-11 7 -29.5 14t-38.5 14t-38 13.5t-27 13.5l-9 -1q-8 -8 -22.5 -24t-33 -36t-38 -43t-36.5 -43t-29.5 -36.5t-16.5 -23.5q1 -4 10 -13t22 -20t29 -23t30.5 -23t26.5 -20t17 -13q29 -23 45.5 -55.5t16.5 -70.5q0 -32 -11 -59t-30.5 -47t-47 -30t-59.5 -7 q-7 1 -14 1.5t-14 1.5q-14 1 -27 -4t-13 -23q0 -20 18 -28.5t35 -8.5q14 0 34 6t33 11q35 13 65 33t51.5 46.5t34 59.5t12.5 73q0 57 -28 103t-74 77q-23 15 -45 30t-41 35q4 8 14.5 24t23.5 32.5t25.5 30t20.5 17.5q3 1 20 -4.5t37.5 -13t38.5 -14.5t22 -8q23 27 40 56z " />
<glyph unicode="6" horiz-adv-x="427" d="M404 613q-5 6 -15 13.5t-18 7.5q-5 0 -17.5 -4t-26 -9.5t-25.5 -10.5t-18 -8q-57 -27 -104.5 -64.5t-81 -84.5t-52 -103.5t-18.5 -122.5q0 -42 10 -85t31.5 -78t55.5 -57t83 -22q65 0 109 31t66.5 77.5t23.5 100.5t-20 100.5t-63.5 77.5t-106.5 31q-27 0 -57 -8 q16 48 41 80t56 56t68 42.5zM332 185q0 -50 -17 -87t-42.5 -57.5t-55.5 -23t-55.5 17t-42.5 62.5t-17 113q0 38 9 77.5t36 68.5q14 14 28.5 17.5t33.5 3.5q20 0 34.5 -5.5t28.5 -20.5q29 -31 44.5 -77.5t15.5 -88.5z" />
<glyph unicode="7" horiz-adv-x="427" d="M401 604l-8 9q-75 0 -150 1t-150 3q-19 1 -30 -0.5t-17.5 -6.5t-9 -16t-5.5 -30q-2 -11 -4.5 -27t-4 -32.5t-1 -31.5t5.5 -24h9q7 11 10.5 23.5t8.5 24.5q9 25 23.5 35.5t32 13.5t38 0.5t41.5 -2.5q34 -1 67.5 -0.5t67.5 0.5q-6 -26 -21 -63t-35 -78.5t-43 -85.5 t-46 -85.5t-44 -76.5t-36 -59q-4 -6 -14.5 -20t-22 -29t-20 -28t-8.5 -18q0 -8 7 -11t16.5 -4t19 0t14.5 2q23 38 46.5 74t43.5 76l187 383q3 6 8 17.5t10 24.5t9.5 24.5t4.5 16.5z" />
<glyph unicode="8" horiz-adv-x="427" d="M388 139q0 34 -11 60.5t-28.5 48.5t-39.5 42t-45 41l55 63q11 13 20 23t15 20.5t9 23.5t3 31q0 33 -10.5 58t-36.5 46q-22 17 -45.5 27.5t-52.5 10.5q-33 0 -64 -11t-56 -31.5t-40 -49t-15 -63.5q0 -31 11.5 -56t30 -46t40.5 -40t43 -37q-20 -15 -42 -27t-40 -29 q-24 -22 -37 -55.5t-13 -65.5q0 -49 26 -80t64.5 -45t84 -11.5t84 21t64.5 51.5t26 80zM305 498q0 -20 -6 -39.5t-16 -38.5t-22.5 -36t-25.5 -31q-17 13 -39 30.5t-41.5 38t-33.5 42.5t-14 46q0 21 8 38t22 29t32 18.5t38 6.5t37.5 -9t31 -24t21.5 -33.5t8 -37.5zM320 112 q0 -22 -8.5 -38.5t-23 -28t-33.5 -17.5t-39 -6q-23 0 -43.5 9t-36 24t-24.5 35.5t-9 43.5q0 48 23.5 84.5t60.5 65.5h6q15 -10 28.5 -21.5t27.5 -24.5q28 -26 49.5 -55.5t21.5 -70.5z" />
<glyph unicode="9" horiz-adv-x="427" d="M401 384q0 42 -9.5 86t-31 80.5t-56 60t-83.5 23.5q-50 0 -86.5 -18t-61.5 -49t-37 -72t-12 -87q0 -47 13.5 -82t50.5 -66q45 -38 91 -43.5t101 11.5q-23 -47 -45.5 -78t-49.5 -53t-61.5 -39.5t-81.5 -36.5q-2 -10 -2.5 -18t2.5 -18q48 5 94 25.5t85 47.5 q81 57 130.5 141t49.5 185zM327 415q0 -64 -17 -103t-42.5 -56t-55 -13t-55 27t-42.5 63.5t-17 96.5q0 53 17 91t42.5 58t55 22t55 -17.5t42.5 -61t17 -107.5z" />
<glyph unicode=":" horiz-adv-x="240" d="M182 335q0 27 -19.5 42t-42.5 16t-42.5 -13t-19.5 -45q0 -30 19.5 -44t42.5 -14t42.5 14.5t19.5 43.5zM182 48q0 25 -19 40t-42.5 16t-42.5 -13t-19 -48q0 -32 19 -44.5t42.5 -10t42.5 18t19 41.5z" />
<glyph unicode=";" horiz-adv-x="240" d="M178 339q0 30 -18.5 43.5t-41 12t-41 -17.5t-18.5 -44q0 -32 18.5 -45.5t41 -11t41 19t18.5 43.5zM192 3q0 43 -23 66t-50.5 27t-50.5 -11t-23 -47q0 -22 10 -31.5t22.5 -14.5t22.5 -10.5t10 -18.5q0 -12 -9.5 -21.5t-20.5 -18t-20.5 -17t-9.5 -18.5q0 -13 11 -19.5 t22 -6.5q20 0 39.5 15.5t35 37t25 46t9.5 42.5z" />
<glyph unicode="&#x3c;" horiz-adv-x="667" d="M595 77v48l-467 194l467 193v47l-523 -221v-38z" />
<glyph unicode="=" horiz-adv-x="667" d="M595 412v43h-523v-43h523zM595 186v43h-523v-43h523z" />
<glyph unicode="&#x3e;" horiz-adv-x="667" d="M595 300v39l-523 222v-47l467 -194l-467 -194v-47z" />
<glyph unicode="?" horiz-adv-x="240" d="M205 316q0 45 -12.5 76t-31.5 50t-41.5 26t-41.5 4t-31.5 -15t-12.5 -31q0 -14 10 -20t25 -9t32.5 -6t32.5 -10t25 -21.5t10 -40.5q0 -18 -10 -24.5t-25 -8t-32.5 -2t-32.5 -5.5t-25 -19t-10 -42q0 -19 9 -34t21 -29l27 6q-6 22 -2.5 32t13 14t23 4.5t27.5 3.5t24 14.5 t16.5 26.5t9.5 31t3 29zM172 51q-10 33 -30.5 45t-41.5 8t-36.5 -22t-15.5 -46q0 -26 16.5 -38.5t37.5 -11t41.5 17.5t28.5 47z" />
<glyph unicode="@" horiz-adv-x="917" d="M814 60h-23q-17 -36 -35.5 -65.5t-47.5 -58.5q-46 -45 -104.5 -67.5t-122.5 -22.5q-68 0 -123.5 23t-95.5 64.5t-61.5 98t-21.5 123.5q0 70 23.5 136.5t67 117.5t104.5 82t136 31q53 0 98.5 -17t79.5 -48t53 -75t19 -98q0 -26 -6.5 -59t-19.5 -65t-31 -59.5t-42 -42.5 q-8 -5 -20 -10.5t-23 -6t-19 5t-8 22.5v205q0 56 -18.5 83.5t-45.5 34.5t-59.5 -2.5t-59.5 -26t-45.5 -37t-18.5 -35.5q0 -18 13 -19.5t24 7.5t19.5 21.5t18.5 23.5t22 19t29 8q31 0 42 -21.5t11 -47.5q0 -23 1.5 -49t-3.5 -49q-25 -4 -58.5 -10t-63.5 -18.5t-51 -33.5 t-21 -55q0 -18 7 -32.5t19 -25.5t27.5 -17t32.5 -6q13 0 27.5 5t29.5 12.5t28.5 16t24.5 15.5l5 -3q13 -33 28.5 -41.5t33.5 -3t37 19t38 24.5q1 1 1.5 2t2.5 2q12 10 23 19t21 21q28 33 44.5 73.5t21.5 83.5q9 68 -6.5 125t-51.5 98.5t-90.5 64.5t-123.5 23q-79 0 -146 -30 t-115.5 -81.5t-76 -120.5t-27.5 -146q0 -103 41.5 -175t106.5 -113t144.5 -51t154 12.5t135.5 78t90 143.5zM525 162q3 -23 1.5 -49.5t-6.5 -49.5q-2 -11 -16 -16.5t-31.5 -6.5t-33 3t-21.5 12q-2 3 -4.5 6.5t-4.5 7.5q-4 23 6.5 39t28.5 27t39 17.5t38 11.5z" />
<glyph unicode="A" horiz-adv-x="813" d="M776 -7q-1 8 -2.5 17t-9.5 13q-9 4 -21.5 7.5t-26 6.5t-27 6.5t-23.5 7.5q-21 52 -41.5 103.5t-42.5 102.5q-9 20 -19 40.5t-18 40.5q-18 42 -34.5 84.5t-32.5 85.5q-10 27 -18 54t-18 54q-4 10 -8 16t-15 8q-5 1 -15.5 -1.5t-22 -6t-22.5 -7.5t-15 -7l-3 -6 q2 -7 9 -19.5t7 -16.5q0 -1 -12.5 -29.5t-32 -72.5t-42.5 -96.5t-44 -100.5t-37 -85.5t-20 -51.5q-4 -11 -6.5 -23t-6 -23t-10 -20t-18.5 -15q-14 -7 -29.5 -13t-30.5 -10q-5 -1 -14 -3t-17.5 -5t-15 -7.5t-6.5 -11.5v-16q66 -2 130.5 3.5t130.5 3.5v18q0 5 -10.5 12t-24 14 t-26.5 12.5t-18 7.5q16 43 29 87.5t35 84.5h235q6 -12 17 -37.5t22 -53t19.5 -52.5t8.5 -35q0 -14 -18 -18.5t-38 -8.5t-34 -11.5t-7 -26.5q78 9 155 8t155 -8zM478 284h-203q7 26 20 58t27 65t28.5 65t26.5 58q28 -60 53 -121.5t48 -124.5z" />
<glyph unicode="B" horiz-adv-x="573" d="M532 177q0 38 -11.5 67.5t-31.5 52t-48 39t-61 28.5q41 23 66 54t25 80q0 58 -28.5 86.5t-70.5 38.5t-90.5 7.5t-88.5 -7.5q-14 -2 -28.5 -4t-29.5 -2q-26 1 -50 2t-50 -2l-2 -13l3 -8q17 -10 35.5 -16t37.5 -12v-481q0 -14 -11 -24t-26 -17.5t-31 -12.5t-26 -7l-3 -26 q32 2 64 3.5t64 1.5q41 0 80 -5.5t80 -5.5q46 0 88 9t74 30t51 56t19 88zM386 472q0 -50 -23 -81t-76 -33l-99 -3q1 35 1.5 70.5t0.5 70.5q0 18 -1.5 37.5t0.5 37.5q2 19 18.5 22t31.5 3q31 0 58 -6.5t47 -21t31 -38t11 -58.5zM381 294q42 -29 56.5 -72t2.5 -83.5t-50 -69.5 t-101 -29q-31 0 -52.5 7t-47.5 23v241q0 6 4 8t10 3t11.5 0.5t8.5 -0.5q20 -1 40 -1q21 0 41.5 -2t39.5 -7.5t37 -17.5z" />
<glyph unicode="C" horiz-adv-x="771" d="M736 151q-10 8 -21 14.5t-23 11.5q-6 -13 -13 -29t-15.5 -31.5t-18.5 -29t-21 -22.5q-14 -11 -34.5 -19.5t-43 -13.5t-44.5 -7.5t-40 -2.5q-63 0 -118 20t-95.5 57.5t-64 90.5t-23.5 118q0 69 23 122t64 89t96.5 54.5t121.5 18.5q23 0 41.5 -2.5t40.5 -12.5 q24 -11 39 -23.5t24.5 -28t15.5 -34.5t13 -43q15 -3 28 -2q2 31 -0.5 61.5t-4.5 61.5v20t-2.5 15.5t-8.5 11t-19 6.5q-61 9 -125 9q-63 0 -125 -2q-62 -3 -120 -29.5t-103 -70.5t-72 -101.5t-27 -120.5q0 -86 35 -147t92 -100t130 -57.5t148 -18.5q54 0 105.5 9t102.5 23 q39 63 62 135z" />
<glyph unicode="D" horiz-adv-x="771" d="M720 331q0 75 -28 131t-75.5 93t-110 55.5t-131.5 18.5q-67 0 -143.5 -6.5t-142.5 -17.5q-14 -2 -23.5 -8.5t-9.5 -23.5q0 -7 9.5 -10.5t21.5 -4.5t23.5 -0.5t16.5 0.5v-450q0 -4 -0.5 -10.5t-1 -14t-2 -14t-3.5 -9.5t-12.5 -6t-23.5 -5.5t-24.5 -4t-16.5 -2.5 q-5 -14 -4 -27t21 -13l262 -4q39 -1 79 2t78 12t73 26.5t65 46.5q49 48 76 112.5t27 133.5zM543 511q42 -43 63 -94.5t23 -103.5t-15 -101t-50.5 -86.5t-83.5 -60t-115 -22.5q-14 0 -40 3t-51 10.5t-43.5 20t-18.5 32.5v464q28 9 56.5 12t57.5 3q34 0 63 -2.5t55 -10.5 t50 -23.5t49 -40.5z" />
<glyph unicode="E" horiz-adv-x="573" d="M548 126q-15 9 -22 9t-11 -5t-6.5 -15t-8.5 -20q-14 -25 -38 -37.5t-51.5 -17.5t-56.5 -5h-54q-10 0 -26.5 -0.5t-32.5 2.5t-27.5 10.5t-11.5 22.5v231q14 0 45.5 -0.5t65.5 -2t63 -4t38 -8.5q7 -11 10 -24t4 -26l25 -3q5 38 7 77t2 78h-18l-39 -39q-6 -6 -34 -8t-62 -2 q-33 0 -64 1t-43 1v248q20 0 56 2t74 2t71.5 -2.5t48.5 -11.5q8 -10 10.5 -22.5t5.5 -23.5t10 -17t24 -3l-8 117q-54 -2 -107.5 -4.5t-107 -4t-107 0t-107.5 7.5q-3 -17 4.5 -24t18 -10.5t20 -7.5t9.5 -15v-502q0 -14 -12 -24t-28.5 -17.5t-34 -12t-27.5 -8.5v-15 q87 6 171 3.5t171 -3.5q16 0 31 2.5t31 1.5q19 -1 37 -2t37 -2l8 4q18 29 28 63t19 66z" />
<glyph unicode="F" horiz-adv-x="531" d="M496 513q-1 11 -2 27.5t-2.5 34t-3.5 33.5t-6 25l-330 -11q-29 -1 -57.5 3.5t-57.5 9.5l-1 -21l66 -17q12 -3 14 -9t4 -17q2 -8 3.5 -16t1.5 -16v-456q0 -12 0.5 -20t-2 -13.5t-9 -8.5t-19.5 -6q-8 -2 -20 -3t-22.5 -4t-18 -9.5t-5.5 -18.5q149 1 299 -3l-1 20 q-25 11 -48 16.5t-49 9.5q-12 2 -13 5t-2 14q-1 6 -1.5 27t-1 49t-1 59t-1 58t0 44.5t1.5 19.5q2 4 20 6t40 3t42 1h26q14 0 33 -0.5t33 -5.5q4 -5 7.5 -14.5t6.5 -20.5t5 -21.5t4 -17.5h26l-13 164h-26l-14 -40h-192q1 26 2 50.5t1 50.5q0 6 -1 23t-2 35.5t-1 33.5t2 18 q2 2 15 4t32.5 3.5t42.5 2t44 1t37 0.5h22q19 0 30 -7.5t17 -19.5t9.5 -26.5t7.5 -29.5z" />
<glyph unicode="G" horiz-adv-x="771" d="M735 204q0 12 -7.5 14.5t-16.5 2.5h-145q-6 0 -16.5 -2.5t-14.5 -7.5l-2 -6q5 -8 16 -14t16 -13q7 -9 10.5 -27.5t3.5 -38.5t-3 -38.5t-10 -28.5q-4 -6 -18.5 -10t-32 -6t-33.5 -3t-24 -1q-64 0 -118.5 19t-94 55.5t-62 88.5t-22.5 118q0 70 23 124t64 90.5t97.5 55.5 t124.5 19q56 0 92.5 -26t52.5 -80q2 -6 5.5 -13.5t8 -13t11 -6.5t14.5 5q1 6 0.5 30t-1 51t-2 49t-2.5 24q-3 4 -11.5 5.5t-18.5 1.5q-9 0 -18.5 -1t-14.5 -1q-12 0 -23.5 2.5t-22.5 4.5q-23 5 -46 6.5t-46 1.5q-78 0 -149 -21t-125 -63.5t-86 -106t-32 -147.5 q0 -71 31 -135t88 -106q30 -23 66.5 -37.5t75 -23t78 -10.5t76.5 0l224 14q11 1 12 6t1 13q0 14 -4 15t-15 4t-16 9t-7 13.5t-1.5 16.5t0.5 18q0 18 1.5 42.5t9.5 41.5q10 4 20.5 2.5t18.5 -1.5q9 0 14.5 4t5.5 21z" />
<glyph unicode="H" horiz-adv-x="771" d="M752 -5q-2 8 -5 18.5t-11 14.5q-17 8 -32 13t-25.5 13t-16.5 21t-6 37q0 91 1.5 179.5t1.5 179.5q0 15 -0.5 35t3.5 37.5t15 29t34 10.5l32 -2q7 11 8 19.5t-3 20.5q-26 1 -50.5 -1t-50.5 -2q-38 0 -75 3.5t-75 -2.5q0 -10 2 -19t4 -19q22 -2 36 -0.5t22.5 -2.5 t11.5 -15.5t3 -38.5v-190l-264 5q-12 0 -23.5 -2t-22.5 -3l-60 -2l2 179q0 28 3.5 42t12 19.5t24 6.5t40.5 4q2 18 -6 33q-40 1 -79 -0.5t-78 -3.5q-20 -1 -39.5 4.5t-39.5 5.5l-10 -26q6 -2 20 -7t29 -11.5t26.5 -14t11.5 -13.5q1 -13 0 -26t-1 -26v-346q0 -23 -1.5 -47 t-0.5 -47l-101 -38q-1 -6 2 -14t5 -14q66 6 130 10.5t130 2.5l8 32q-8 2 -20.5 2.5l-25 1t-23.5 0.5q-10 0 -13 2q-2 8 -2.5 17t-0.5 17l-3 204h272q4 0 7 1.5t7 1.5l80 1l-4 -180q0 -13 -2 -28.5t-13 -24.5q-3 -3 -13.5 -7t-23 -8t-24 -7.5t-17.5 -5.5q-1 -6 -1.5 -12 t1.5 -12q68 6 137 5t136 -12z" />
<glyph unicode="I" d="M304 619q-41 -4 -81.5 -6t-81.5 1q-27 2 -53.5 3.5t-53.5 1.5l-2 -15q22 -11 44 -19.5t45 -14.5v-428q0 -6 -0.5 -19.5t-1 -27.5t-2 -26.5t-4.5 -16.5q-6 -10 -19 -15.5t-26.5 -10t-24 -10.5t-11.5 -18h268v13q-6 2 -19.5 7.5t-28 11.5t-26.5 13t-13 12q-3 11 -5 52 t-3 97t-1 119v116q0 54 1 90t2 40q3 3 16 6.5t28 8t29.5 8t21.5 6.5z" />
<glyph unicode="J" horiz-adv-x="385" d="M351 601l-1 19q-19 2 -38 -1t-38 -5t-37 -2t-37 1q-33 2 -65.5 5.5t-65.5 1.5l-2 -21q13 -5 30.5 -9t33 -10.5t26 -17.5t10.5 -30v-574q0 -16 -1.5 -40t-8 -46.5t-19.5 -38.5t-35 -16q-14 0 -25.5 6t-22.5 13.5t-21.5 14t-21.5 6.5q-16 0 -27 -10.5t-11 -26.5t8.5 -26.5 t21 -17t27.5 -9t28 -2.5q45 0 81 21t60.5 54t38 74.5t13.5 82.5v549q0 18 16 24z" />
<glyph unicode="K" horiz-adv-x="771" d="M751 -3q1 11 -4 25q-31 5 -54 15.5t-42.5 25t-37.5 32.5l-39 39q-61 60 -121 121t-126 115l214 175q29 23 63.5 37.5t69.5 22.5l10 27q-24 1 -48.5 -1.5t-48.5 -3.5q-35 -1 -70.5 -0.5t-70.5 0.5q-1 -8 -1 -16q0 -7 5 -15q6 -3 19.5 -4.5t24 -4.5t13.5 -9.5t-12 -18.5 q-68 -55 -135 -110t-134 -112v237q0 5 10.5 9.5t24 8t26 6t17.5 4.5q4 8 4 13q0 6 -3 14q-51 -2 -103 -5.5t-103 1.5q-27 3 -55 3v-29q17 -3 32 -7.5t31 -9.5q15 -5 24.5 -10.5t9.5 -23.5v-469q0 -20 -15 -29.5t-33 -13t-33.5 -4.5t-17.5 -5q-2 -2 -3 -12t1 -14 q6 -3 23 -3.5t37 0.5t39 2t28 1q40 0 79.5 -2t79.5 -6q6 11 4 26q-35 13 -55.5 16.5t-31 11t-13.5 27t-3 63.5v156l38 28l266 -262q13 -13 12 -20t-9.5 -10.5t-20.5 -5.5t-21 -5l-1 -19q25 -1 49.5 0t49.5 3q20 1 40 -1.5t40.5 -4.5t40.5 -3t40 4z" />
<glyph unicode="L" horiz-adv-x="677" d="M658 112q0 6 -11 13.5t-16 9.5q-7 -5 -14 -15q-19 -26 -44.5 -42t-54 -25.5t-59 -13t-60.5 -3.5q-12 0 -36 2t-49.5 6.5t-46.5 11.5t-27 18q-7 12 -10 34t-3.5 46.5t0 47.5t0.5 38v267q0 32 9 49t25 26t38 12t47 8q5 11 3 22q-34 7 -70.5 1.5t-71.5 -5.5q-12 0 -29.5 1.5 t-35.5 3t-34 3t-25 0.5q-5 0 -7.5 -5.5t-3 -12t0 -13.5t1.5 -10q10 -9 22 -8t22.5 -1.5t17 -15.5t6.5 -49v-420q0 -38 -12.5 -49t-28 -12t-28 -1.5t-12.5 -17.5q0 -9 6 -15l446 -8q24 0 47 3q20 2 33.5 20.5t24.5 33.5q3 5 10 13.5t13.5 18.5t11.5 19t5 14z" />
<glyph unicode="M" horiz-adv-x="813" d="M795 33q-19 8 -35.5 13t-28.5 13t-19.5 21.5t-8.5 38.5l-27 431q-1 12 -0.5 19.5t12.5 15.5t24.5 9.5t24.5 8.5l4 19l-2 12l-83 -9q-26 -3 -38 -10.5t-18.5 -19.5t-10.5 -27.5t-14 -34.5l-179 -350l-167 438q-20 0 -43 1.5t-46.5 2t-46.5 -1t-42 -6.5v-27q20 0 36 2 t27.5 -1t17 -14t5.5 -37q-1 -46 -5.5 -91.5t-7.5 -90.5q-5 -62 -7.5 -122.5t-7.5 -122.5q-2 -18 -5.5 -30t-20.5 -23l-72 -45l2 -19q26 -1 50.5 1t50.5 3q23 1 45.5 0.5t45.5 -2.5q8 -1 15 -2t15 -1q11 0 11.5 10t-1.5 17q-13 11 -29 17.5t-33 11.5q-13 4 -22 7t-8 20 l27 446h2q51 -131 99.5 -260.5t85.5 -264.5h8q11 29 21 58t23 58q33 73 69 139.5t71 138.5q11 24 20.5 49t27.5 45l18 -360q1 -28 -6.5 -44t-20.5 -25t-28.5 -14.5t-29.5 -11t-24 -14t-11 -25.5q19 0 37 3.5t37 3.5q35 0 70.5 0.5t70.5 -0.5q19 -1 37 -3t37 -1q2 1 3.5 6.5 t1.5 11.5q0 7 -1 12t-3 7z" />
<glyph unicode="N" horiz-adv-x="771" d="M747 612l-7 4q-19 0 -37.5 0.5t-37.5 -0.5q-11 -1 -20.5 -2.5t-20.5 -1.5q-31 0 -62 4t-62 0q-4 -11 -1 -20l8 -5q12 -2 27 -6t27.5 -11t21 -17.5t8.5 -26.5q0 -47 2.5 -92.5t3.5 -92.5q1 -18 0 -36t0 -36q1 -32 4 -64t1 -64q-33 34 -63.5 70t-62.5 71q-55 60 -110.5 119 t-109.5 120q-10 11 -24 21t-19 24q1 7 7.5 11t12 8t7 9.5t-6.5 15.5q-13 3 -25 1t-25 -2q-35 0 -68.5 5.5t-68.5 10.5l-1 -31q14 -3 27.5 -6t25.5 -10q15 -8 22.5 -25t10.5 -36.5t3 -39.5v-34l5 -372q0 -20 -15 -28t-33 -13t-32.5 -12.5t-14.5 -25.5q29 2 57 4t57 1 q34 -1 67 -6t67 -3l8 21q-14 11 -29.5 17.5t-32.5 12.5q-18 7 -28 14t-14.5 16.5t-5 22t0.5 30.5l2 44t1 44q0 68 -4.5 134.5t-2.5 134.5q26 -22 45 -47.5t41 -50.5l352 -397l22 -6l7 6v556q0 13 10.5 20t24.5 10.5t28 6t22 5.5q8 4 8.5 11t-0.5 15z" />
<glyph unicode="O" horiz-adv-x="813" d="M758 308q0 68 -27 127.5t-72.5 104t-106.5 70t-128 25.5q-68 0 -134.5 -26t-118.5 -71t-84 -106.5t-32 -133.5q0 -71 26.5 -128.5t72 -99t106 -64t128.5 -22.5q69 0 135 23t118.5 65.5t84.5 102t32 133.5zM665 301q0 -82 -36 -150t-111 -105q-23 -11 -46.5 -17.5 t-48.5 -6.5q-49 0 -93.5 18t-80 49t-60.5 72t-35 88q-5 20 -5 40t-1 40q0 7 -0.5 13t-0.5 13q0 51 20.5 95t55.5 77t80.5 51.5t95.5 18.5q27 0 54 -8t51 -20q80 -40 120.5 -110t40.5 -158z" />
<glyph unicode="P" horiz-adv-x="573" d="M519 429q0 51 -25 88t-63.5 60.5t-85.5 35t-90 11.5q-29 0 -57 -2.5t-57 -4.5q-26 -2 -51.5 0t-51.5 3l7 -25q17 -3 32.5 -5.5t32.5 -5.5q4 -4 6 -12.5t3 -19t1 -20.5v-15q1 -59 2.5 -118t2.5 -118.5t-1 -118.5t-9 -118q-20 -10 -42 -16.5t-44 -11.5l7 -22q48 10 98.5 9 t99.5 -3q20 -1 38.5 -4t38.5 -1v23q-15 5 -33.5 8.5t-35 10t-27.5 18t-11 32.5v455q0 12 1.5 23.5t3.5 23.5q14 4 27.5 6.5t27.5 2.5q31 0 62.5 -14t56 -37.5t40 -54t15.5 -62.5q0 -33 -13 -66.5t-35.5 -58.5t-53.5 -37.5t-68 -4.5q-1 -12 2 -27q46 -17 90.5 -6t80 40t57 71 t21.5 88z" />
<glyph unicode="Q" horiz-adv-x="781" d="M1018 -155l-18 28q-26 -17 -52.5 -30t-58.5 -13q-43 0 -85.5 22.5t-81.5 55.5t-73.5 70t-62.5 66q22 13 39.5 25.5t34.5 32.5t32 47.5t25.5 57.5t16.5 60t6 57q0 69 -30.5 126.5t-80 98.5t-112 63.5t-127.5 22.5q-72 0 -135.5 -27.5t-111 -75t-74.5 -111.5t-27 -136 q0 -70 25 -124.5t68 -93t101 -60t124 -25.5q28 -2 48 0t38 1t37 -8t44 -25q16 -12 31.5 -23.5t30.5 -24.5q32 -27 60 -52t58 -44.5t64.5 -31t80.5 -11.5q29 0 51.5 5t41.5 15.5t36.5 25.5t36.5 36zM661 284q0 -47 -17.5 -89.5t-47.5 -76t-69 -56.5t-82 -31.5t-87.5 -1 t-85.5 36.5q-28 19 -53.5 48.5t-45 64t-31.5 71t-12 71.5q0 32 7.5 59t19.5 56q15 35 30.5 61t36 43t48.5 25.5t69 8.5q44 0 84.5 -9.5t78.5 -31.5q28 -17 56.5 -45t50.5 -62.5t36 -71.5t14 -70z" />
<glyph unicode="R" horiz-adv-x="677" d="M666 -4l-2 19q-20 0 -37 1.5t-32 7t-27.5 16t-24.5 28.5l-159 246q28 12 56 27t50 35.5t35.5 47t13.5 60.5q0 38 -20.5 70.5t-54.5 50.5q-28 15 -64 18.5t-74 1.5t-75.5 -6t-68.5 -5q-32 -1 -64 4t-64 0q-2 -9 3 -17q25 -4 41 -6t25 -9t12 -21.5t3 -42.5v-398 q0 -35 -4.5 -55t-16.5 -30.5t-33.5 -14.5t-55.5 -6l-1 -28q34 -2 67 2.5t66 6.5q39 3 77.5 -2.5t77.5 -3.5l2 25q-23 5 -48 7t-48 10q0 40 -0.5 90t0.5 90q0 17 -1.5 37.5t2.5 37.5h76q20 -23 38.5 -50.5t35.5 -57t33 -58.5t33 -54q14 -20 28 -35.5t38 -23.5q43 -14 80 -20 t82 5zM449 456q0 -50 -21.5 -77.5t-54.5 -41.5t-73 -17.5t-78 -4.5q-2 66 -3 131.5t-1 131.5q27 11 55 13t57 3q16 0 28 -0.5t22.5 -4.5t20 -12t18.5 -22q14 -20 22 -47t8 -52z" />
<glyph unicode="S" horiz-adv-x="531" d="M480 149q0 54 -25 89t-63 59t-82 41t-82 34.5t-63 40t-25 56.5q0 33 19 57.5t47.5 39t62.5 18t63.5 -5t50.5 -30.5t23 -59q8 -3 17 -3.5t18 0.5v27t-1.5 42t-3.5 40t-6 23q-5 6 -12.5 6.5t-15.5 -2t-16 -5.5t-14 -3q-11 0 -22 3t-22 5q-13 2 -25 2.5t-25 0.5 q-38 0 -75 -8.5t-66.5 -27t-47.5 -49t-18 -74.5q0 -55 24.5 -89t61.5 -57.5t80.5 -39.5t80.5 -34.5t61.5 -44t24.5 -66.5q0 -27 -14 -47.5t-35.5 -35t-47.5 -21.5t-49 -7q-11 0 -27 2t-32.5 5.5t-31.5 8t-24 10.5q-24 15 -33.5 35.5t-14.5 39t-10 32t-19 13.5q-8 0 -11 -4 t-3.5 -9t0.5 -11.5t2 -10.5q4 -26 6 -54t9 -54q3 -11 27 -19.5t54 -14t58 -8.5t39 -3q38 0 79 9t75.5 29.5t56.5 52t22 76.5z" />
<glyph unicode="T" horiz-adv-x="677" d="M642 616q0 10 -2 14.5t-13 4.5q-27 0 -54 -5t-54 -9q-33 -5 -67 -5h-67q-54 0 -106.5 -2t-105.5 3q-23 2 -46.5 6.5t-47.5 4.5q-8 0 -10 -10q-7 -28 -13.5 -61.5t-6.5 -62.5q0 -3 5 -7t12 -5.5t14 1.5t10 15q5 18 11 36t17 33q45 8 92 6.5t93 0.5v-483q0 -26 -10.5 -39 t-27 -19.5t-36 -8.5t-38.5 -6v-24l202 8q27 1 54 -4.5t54 -3.5v9l-5 10q-27 7 -47 13t-33.5 16t-20.5 28t-7 50v450q61 3 123 3q14 0 27 2t27 2q18 0 25 -6.5t8 -16.5t-1.5 -21.5t-3 -21.5t3 -16.5t16.5 -6.5q10 0 15 6t7 14.5t2 17.5v17q2 18 3 36.5t2 36.5z" />
<glyph unicode="U" horiz-adv-x="813" d="M785 599l-3 22q-28 -3 -55 -7.5t-55 -4.5t-55.5 5t-55.5 6l-4 -20q38 -11 58 -20t29 -22.5t10.5 -35.5t1.5 -61q0 -37 3 -85.5t2.5 -98t-8 -94.5t-29.5 -76q-20 -27 -39 -44t-41 -26.5t-47.5 -12.5t-57.5 -3q-59 0 -105.5 13.5t-86.5 59.5q-17 18 -23.5 49t-8 65.5 t0 68.5t1.5 58q0 23 -1 45.5t-1 45.5q0 30 1.5 61.5t1.5 62.5q0 12 8 20q3 3 15 7t26 7t27 5.5t19 4.5q4 10 2 26q-32 -2 -62.5 -7t-62.5 -3l-157 10l1 -22q8 -2 19.5 -4t23.5 -5.5t23 -8t17 -9.5q10 -8 10.5 -17.5t0.5 -21.5q1 -30 3 -59.5t2 -59.5q1 -50 -0.5 -99.5 t-2.5 -99.5q0 -40 8.5 -76t33.5 -68t52.5 -49.5t58 -26t64 -10.5t70.5 -2q28 0 54.5 1.5t51 7t48 17t45.5 31.5q46 41 61.5 93.5t15.5 112.5q0 50 -0.5 99.5t0.5 99.5q1 26 1 50q0 25 1 51q0 12 11 21t25.5 15t29.5 10.5t24 7.5z" />
<glyph unicode="V" horiz-adv-x="771" d="M743 607q0 11 -6 14.5t-16 3.5q-21 1 -42.5 -0.5t-43.5 -1.5q-24 0 -48.5 1.5t-48.5 0.5q-9 -1 -16 -4.5t-8 -14.5l3 -9q11 -6 21.5 -7.5t21 -3.5t20.5 -6t21 -14q-13 -27 -24 -55.5t-26 -54.5q-19 -34 -35 -68t-33 -69q-9 -19 -18 -37t-17 -37q-11 -28 -22.5 -55.5 t-25.5 -53.5q-23 52 -47 102.5t-49 101.5q-12 24 -18 50.5t-17 51.5q-5 10 -13 27t-16.5 35t-14.5 35t-6 26q0 6 5.5 10.5t13.5 7t16 4t13 1.5h18q9 0 15 2.5t9 9t0 20.5q-12 4 -26 5t-29 -0.5t-29.5 -3.5t-27.5 -2q-20 -1 -39.5 -0.5t-39.5 1.5q-5 0 -19.5 1t-29.5 1.5 t-27 -1t-12 -6.5q0 -10 11 -16t25 -9.5t28.5 -6.5t21.5 -6q5 -6 17 -31.5t25.5 -56t25 -58t14.5 -37.5q5 -14 8.5 -27t9.5 -26q41 -89 80 -176t72 -180q7 -2 14.5 -2.5t14.5 2.5q8 29 16 57.5t21 55.5q13 28 26.5 55.5t25.5 55.5q14 30 24 61t29 58q18 26 27 56.5t27 57.5 q17 25 29 53.5t25 55.5q10 22 26.5 26.5t31.5 4.5q16 0 27 2.5t11 22.5z" />
<glyph unicode="W" horiz-adv-x="1010" d="M985 586q0 10 -1 19.5t-4 18.5q-20 2 -40 -2t-40 -6q-27 -2 -54.5 -1t-54.5 1q-2 -8 -3 -15.5t-2 -15.5h22t24.5 -3t20 -10t8.5 -20q0 -11 -5.5 -23.5t-9.5 -22.5l-66 -181q-8 -23 -19.5 -45.5t-22.5 -45.5q-13 -28 -24.5 -56t-27.5 -54q-9 19 -21 36t-21 36l-100 207 q18 30 32.5 62t28.5 64q8 18 12.5 27.5t10.5 14.5t16 7.5t29 7.5q12 3 21 10.5t2 22.5q-1 3 -9 3.5t-17.5 -0.5t-18 -2t-11.5 -1q-81 0 -162.5 -1.5t-162.5 1.5l-1 -27q22 -2 36.5 -9.5t25.5 -27.5q3 -6 12 -22t20.5 -37.5t24 -45.5t23 -44t17 -34.5t6.5 -16.5 q0 -4 -7.5 -21.5t-17.5 -38t-19 -38.5t-12 -23q-5 -9 -11 -17t-10 -18q-8 -18 -15 -35.5t-18 -34.5q-10 24 -27.5 59.5t-37.5 76.5t-40.5 84t-37.5 83.5t-27.5 74.5t-10.5 56q0 9 8.5 13.5t20.5 6t23 1.5h18l-1 32q-29 3 -58.5 -1.5t-58.5 -2.5q-22 2 -43.5 4t-43.5 2 q-8 0 -14.5 -0.5t-14.5 -2.5v-22q20 -5 37 -9.5t29 -24.5q9 -16 16 -33t13 -34.5t12 -35.5t14 -34q17 -32 32 -65t29 -66q34 -77 68 -153.5t53 -159.5h26q14 53 36 105.5t48 100.5q5 8 10 15.5t10 15.5q12 23 22 46.5t21 46.5q32 -63 65 -125t67 -124q11 -19 15 -40t13 -41 h24q17 57 38 112t45 109q8 19 17.5 36.5t17.5 36.5q26 63 49 125.5t47 125.5q9 22 15 33.5t14.5 17.5t21.5 7.5t36 4.5zM577 571q0 -12 -6 -30.5t-15 -37.5t-19 -36.5t-17 -28.5q-5 11 -14.5 30t-19 39.5t-16.5 39t-7 29.5q0 6 18 10t39 4t39 -4.5t18 -14.5z" />
<glyph unicode="X" horiz-adv-x="771" d="M740 -4v21q-18 7 -35.5 13.5t-35.5 11.5q-15 5 -20 10.5t-14 16.5l-46 56q-11 14 -19.5 28t-19.5 28q-8 10 -17.5 18t-17.5 19l-93 121q8 11 24 31.5t36 44.5t42 49.5t42 48t37 38.5t27 21q17 9 36.5 12.5t37.5 9.5l-6 24q-24 2 -48.5 -1.5t-48.5 -3.5q-33 0 -65.5 3 t-65.5 5l-11 -21q14 -5 29 -10t30 -8q8 -2 16.5 -4.5t8.5 -13.5q0 -9 -8.5 -24.5t-22.5 -34.5t-30.5 -39.5t-32.5 -39t-29.5 -34t-20.5 -23.5l-11 13t-27 32.5t-34.5 43t-34.5 44.5t-26.5 36.5t-10.5 19.5q0 5 11 9.5t24.5 8.5t26.5 6.5t18 4.5q7 2 8.5 3.5t1.5 9.5 q0 10 -1 15q-48 0 -94 -1t-94 1q-29 1 -57 4.5t-57 1.5l3 -21l45 -18q8 -4 17.5 -5t17.5 -5q17 -7 29.5 -23t23.5 -30l167 -217q-32 -36 -63 -71t-62 -72q-26 -31 -40 -53t-29.5 -37.5t-38.5 -26.5t-66 -20q-5 -13 -7 -30q42 5 83.5 7t83.5 -2q18 -2 36 -5t37 -1l3 14l-2 13 q-5 1 -18 4.5t-26 8t-23 10.5t-10 12q0 10 10 28t26 39.5t35.5 44.5t38.5 43.5t35 36.5t25 23q12 -15 39 -47t54.5 -67t50 -66.5t27.5 -44.5q-21 -10 -46.5 -11.5t-48.5 -7.5q-1 -8 1 -16.5t4 -16.5q51 5 101 8t101 1q21 -1 42 -3t42 -1z" />
<glyph unicode="Y" horiz-adv-x="677" d="M662 577q1 7 2 13.5t0 12t-5 9t-14 3.5q-20 1 -41 -0.5t-41 -1.5q-22 0 -43.5 1.5t-43.5 1.5q-15 0 -21.5 -4t-5.5 -21q5 -3 18 -6t27 -7t25 -9t11 -10q0 -11 -5 -24t-12.5 -26t-15.5 -25t-14 -22q-28 -45 -54.5 -90.5t-57.5 -88.5l-124 214l-16 26t-8 29q0 15 6 21.5 t15 8t19 1.5q11 0 20 2t15 9t6 22q-10 -1 -19 1t-18 3q-20 2 -38.5 -2t-38.5 -5t-39 -0.5t-39 0.5t-39 4t-38 -1q-2 -6 -2.5 -14t3.5 -13q5 -1 15.5 -2.5t21.5 -3.5t20.5 -4.5t12.5 -4.5q8 -5 12.5 -13.5t9.5 -16.5q14 -25 28 -48t29 -47q26 -42 49.5 -84t48.5 -84 q9 -16 13.5 -27t5.5 -30l4 -139q1 -23 -15 -31.5t-35.5 -14.5t-36.5 -13.5t-19 -27.5l4 -6q3 0 6.5 -0.5t6.5 -0.5q55 2 109.5 6.5t109.5 3.5q16 0 31.5 -5t31.5 -5q11 0 13 6.5t1 14.5l-63 25q-16 6 -27.5 12t-18 14.5t-9.5 20.5t-2 30l4 123q1 14 10.5 28t17.5 25 q17 22 31.5 45.5t28.5 47.5q23 38 47 75.5t44 77.5q8 16 16.5 24t18.5 11.5t22.5 4t28.5 1.5z" />
<glyph unicode="Z" horiz-adv-x="677" d="M617 176q-2 16 -14 19.5t-23 -7.5q-6 -18 -9.5 -42.5t-11 -47t-22 -38t-40.5 -15.5h-321q95 121 185 242.5t181 245.5q12 17 24.5 33t23.5 33l-1 24h-492q0 -23 0.5 -44.5t-0.5 -44.5q-1 -20 -2.5 -38.5t-0.5 -38.5q17 -2 30 2q6 21 10.5 42.5t13 39t24 28t44.5 10.5h255 q-94 -124 -186 -246.5t-186 -246.5q-11 -15 -19.5 -23t-14 -16t-8 -19t-2.5 -31h545q2 16 5 40.5t6 50.5t5 50t1 38z" />
<glyph unicode="[" d="M303 -223l-1 29l-90 5q-11 1 -20.5 0t-18.5 -0.5t-17 5t-14 15.5l1 150q1 124 2 246t3 246q0 9 0.5 31t1 47t1.5 46t3 28l7 5h141v34h-225v-887h226z" />
<glyph unicode="\" horiz-adv-x="292" d="M261 -238l-174 918h-57l175 -918h56z" />
<glyph unicode="]" d="M256 -223v887h-226l1 -29l90 -5q10 -1 20 0t19 0.5t17 -5t14 -15.5l-1 -150q-1 -124 -2 -246t-3 -246q0 -9 -0.5 -31t-1 -47t-1.5 -46t-3 -28l-7 -5h-141v-34h225z" />
<glyph unicode="^" horiz-adv-x="469" d="M451 273l-208 350h-14l-211 -350h47l170 286l171 -286h45z" />
<glyph unicode="_" horiz-adv-x="500" d="M506 -289v50h-512v-50h512z" />
<glyph unicode="`" d="M221 479l-87 136q-5 8 -17 16t-25 11t-22.5 -0.5t-9.5 -19.5q0 -9 5.5 -19t13 -19.5t16.5 -17.5t16 -14l102 -80z" />
<glyph unicode="a" horiz-adv-x="385" d="M369 61q-9 -3 -22.5 -9.5t-26 -9t-21 2t-8.5 24.5v205q0 56 -18.5 83.5t-45.5 34.5t-59.5 -2.5t-59.5 -26t-45.5 -37t-18.5 -35.5q0 -17 13 -20t24 8q10 10 19 22.5t19 23.5t22 18.5t29 7.5q31 0 42 -21.5t11 -47.5q0 -6 0.5 -21t0.5 -31q0 -15 -0.5 -28.5t-2.5 -17.5 q-25 -4 -58.5 -10t-63.5 -18.5t-51 -33.5t-21 -55q0 -18 7 -32.5t19 -25.5t27.5 -17t32.5 -6q13 0 27.5 5t29.5 12.5t28.5 16t24.5 15.5l5 -3q8 -17 17.5 -31.5t31.5 -14.5q24 0 46.5 11t42.5 22q2 11 3.5 21t-0.5 21zM225 162q3 -23 1.5 -49.5t-6.5 -49.5q-2 -11 -16 -16.5 t-31.5 -6.5t-33 3t-21.5 12q-2 3 -4.5 6.5t-4.5 7.5q-4 23 6.5 39t28.5 27t39 17.5t38 11.5z" />
<glyph unicode="b" horiz-adv-x="479" d="M446 227q0 35 -13 66.5t-35.5 55t-53.5 37.5t-66 14q-37 0 -68.5 -16t-60.5 -36q-1 58 0 115.5t4 115.5q2 23 5 44.5t5 43.5q-6 3 -26 7t-41.5 5.5t-38.5 -2t-17 -14.5q0 -5 5.5 -15.5t12 -22.5t12 -24t5.5 -18v-565l6 -9q19 -2 37.5 -1.5t37.5 -3.5q20 -4 39 -9t39 -5 q50 0 89.5 19.5t66.5 52t41.5 75.5t14.5 90zM380 174q0 -44 -17 -74.5t-43 -47.5t-55.5 -19.5t-55.5 8.5t-43 36.5t-17 65.5v151q0 13 10.5 24t25 18.5t30 11.5t26.5 4q34 0 60 -16.5t43.5 -42.5t26.5 -57.5t9 -61.5z" />
<glyph unicode="c" horiz-adv-x="385" d="M364 319q0 19 -16.5 33.5t-39 24.5t-46.5 15t-39 5q-41 0 -76 -16.5t-61 -44.5t-41 -64.5t-15 -76.5q0 -35 10.5 -69.5t28.5 -63.5q23 -38 57.5 -54.5t78.5 -16.5q27 0 48 5t38 15t32 26t30 37q-6 11 -18 14q-23 -18 -45.5 -29.5t-52.5 -11.5q-32 0 -55.5 14.5t-39.5 37 t-24 51t-8 56.5q0 21 6.5 47.5t19 49.5t31.5 39t45 16t41 -11.5t26 -26t21 -26t25 -11.5q14 0 26.5 11t12.5 25z" />
<glyph unicode="d" horiz-adv-x="479" d="M454 9q2 14 -3 26q-20 5 -33 14.5t-13 32.5v598q-29 -5 -58 -9.5t-58 -7.5l-5 -3l-1 -33q16 -6 26.5 -9t17 -8.5t9 -15.5t2.5 -29v-185q-21 13 -44 16.5t-46.5 0.5t-46 -11.5t-42.5 -19.5q-49 -27 -77 -65.5t-37 -80t-1.5 -83t29 -74t55 -53t76.5 -20.5q41 0 72 20t59 47 q-1 -17 -1 -33t3 -32q30 0 59 5.5t58 11.5zM338 168v-27q0 -13 -2 -25.5t-8.5 -23.5t-18.5 -20q-38 -27 -72.5 -25t-60.5 23t-41.5 56t-15.5 74q0 29 6 56.5t20 49t37 34.5t56 13q37 0 57 -19t29.5 -46.5t11.5 -60t2 -59.5z" />
<glyph unicode="e" d="M312 251q9 54 -8.5 88t-49.5 49t-71 10t-74 -30t-58.5 -70t-23.5 -110q0 -59 19 -100t48.5 -65t64 -31.5t66 2.5t55.5 37t31 70l-21 3q-5 -8 -8.5 -16t-8.5 -15q-16 -20 -40 -20q-40 0 -67.5 18.5t-43 47t-20.5 64t-1 68.5h211zM243 279h-136q6 35 20 55t31 26.5t34 2.5 t30 -15.5t19.5 -29.5t1.5 -39z" />
<glyph unicode="f" horiz-adv-x="240" d="M379 624q0 17 -12.5 28.5t-30 18t-36.5 9.5t-32 3q-27 0 -57.5 -13.5t-56.5 -34.5t-45 -48t-24 -54q-1 -6 -3.5 -27t-5.5 -43.5t-6.5 -41t-5.5 -19.5l-46 -31q-1 -9 -1 -19q0 -9 2 -18q18 0 28.5 0.5t16 -2.5t6.5 -12t1 -28l2 -234q0 -9 -5.5 -14t-14 -8.5t-17 -6 t-14.5 -4.5l1 -27q22 -1 44 0.5t44 2.5q26 1 51 0.5t51 -0.5v16q0 9 -1 17q-3 1 -13.5 2t-21.5 1.5t-20 1.5t-10 2q-1 0 -1 2v3q-4 23 -4 47v47q-2 51 -2 100t-1 99l6 3q16 -2 32 0.5t32 1.5q3 12 5 24t2 24q-3 3 -13.5 4t-23.5 1t-24.5 -1t-16.5 -1q0 27 0.5 67t8.5 77.5 t28.5 64.5t59.5 27q17 0 31 -6.5t26.5 -14t23.5 -13.5t22 -6q14 0 27.5 8.5t13.5 24.5z" />
<glyph unicode="g" horiz-adv-x="427" d="M411 -84q0 13 -6 29t-15.5 31.5t-20.5 28.5t-21 21q-16 12 -42 17t-54.5 6.5t-56 0.5t-47.5 -1h-15q-7 0 -13 2t-9.5 7t-3.5 15q0 22 11 30.5t31 12.5q17 4 33.5 5t33.5 5q33 7 56 23t36 39t16 51.5t-3 60.5q7 2 20 2q14 0 28 0.5t25.5 2t14.5 6.5q-2 12 -5 24t-8 24 l-102 -8q-14 12 -25 20.5t-22.5 13t-25.5 6.5t-32 2q-76 0 -119.5 -40t-43.5 -118q0 -22 5.5 -37.5t15.5 -27t24 -21.5t31 -20q-11 -12 -23 -21t-26 -17q-24 -15 -24 -31q0 -15 12.5 -29.5t31.5 -26.5t32 -20q-16 -18 -32.5 -31.5t-30 -28.5t-22 -33.5t-8.5 -45.5 q0 -26 15.5 -43t38 -26.5t48 -13.5t45.5 -4q64 0 126.5 26t102.5 79q8 11 15.5 25t7.5 28zM256 231q0 -40 -20.5 -63t-61.5 -23q-24 0 -38.5 10.5t-22 27t-9.5 36t-2 38.5q0 18 2 36t9.5 32.5t21 23t36.5 8.5q11 0 21 -0.5t19 -6.5q12 -8 21 -22.5t14 -31.5t7.5 -34t2.5 -31 zM277 -28q50 -11 60 -39t-6 -57.5t-50 -52.5t-73 -23q-12 0 -26 2t-27.5 6t-25.5 10.5t-19 16.5q-18 24 -23 44t0.5 37t20 33t35.5 33q33 0 67.5 -1.5t66.5 -8.5z" />
<glyph unicode="h" horiz-adv-x="479" d="M438 12q0 9 -6 14.5t-13 10.5t-13.5 11t-6.5 17q0 14 1.5 28.5t3.5 28.5q1 21 3 48t1.5 55t-3.5 54.5t-12 45.5q-15 34 -42.5 49t-63.5 15q-19 0 -38 -5t-37.5 -13t-36 -17.5t-33.5 -18.5l2 272q0 18 1.5 36.5t-0.5 36.5h-8q-9 -4 -26.5 -8.5t-34.5 -11t-30 -15.5 t-13 -21q0 -9 5 -16l10 -14q14 -19 19 -43.5t6 -47.5q2 -114 1 -227t-6 -227l-3 -7q-8 -7 -18 -9.5t-20 -5.5q-3 -15 2 -32h37t45 0.5t45 1.5t37 3q0 7 0.5 15t-3.5 14q-5 2 -11 3.5t-12.5 3t-12 4t-7.5 7.5q-3 5 -4.5 23.5t-2 43.5t-0.5 53q0 29 0.5 55.5t1 48t0.5 31.5 q21 17 44.5 29t51.5 12q36 0 57 -15t32 -39t14.5 -53.5t3.5 -57.5q0 -12 -0.5 -31t-3 -38.5t-6.5 -37t-11 -27.5q-8 -3 -15.5 -5.5t-15.5 -5.5q-17 -7 -13.5 -20t25.5 -14q11 -1 22 0t22 1q17 0 35 -1.5t35 -0.5q7 0 13 2.5t6 11.5z" />
<glyph unicode="i" horiz-adv-x="240" d="M178 610q0 20 -13 30t-28.5 10.5t-28.5 -8.5t-13 -27q0 -21 13 -33t28.5 -13.5t28.5 8.5t13 33zM219 1v24q-5 1 -12.5 3t-15.5 4.5t-14.5 6t-9.5 6.5q-2 8 -2 16v16v329q-11 0 -16.5 -0.5t-10.5 -2.5t-10 -5t-14 -7q-6 -3 -18 -8t-24 -11.5t-21.5 -13.5t-9.5 -14 q0 -4 5.5 -10.5t12 -13.5t13 -13t9.5 -10q3 -5 5.5 -22.5t3.5 -41t1 -50.5v-52t-1 -44.5t-2 -27.5q-1 -6 -9.5 -11.5t-20 -10.5t-22.5 -10t-17 -9l-1 -19q11 0 23 -1t23 0q4 0 8 1.5t8 1.5h139z" />
<glyph unicode="j" horiz-adv-x="240" d="M147 571q15 22 16 38.5t-6.5 26t-21 13t-26 0t-22 -13.5t-9.5 -27t9.5 -27t23.5 -17h15l11 6zM173 -9l-6 417l-11 3l-110 -53v-21q15 -11 25 -19t16 -17.5t8.5 -22t2.5 -31.5v-345q0 -10 -1.5 -26.5t-5.5 -32t-12.5 -27t-21.5 -11.5q-11 0 -20.5 6t-19 13t-19 13t-20.5 6 q-18 0 -26 -13t-3.5 -28t21.5 -28t49 -13q44 0 73.5 22.5t47.5 56.5t25.5 74.5t7.5 76.5z" />
<glyph unicode="k" horiz-adv-x="479" d="M458 -5q2 18 -1 24.5t-21 13.5q-17 6 -27.5 12t-19.5 13t-17 16.5t-19 22.5l-118 143q23 25 50.5 50t56.5 44q3 2 12.5 6t20 8t20.5 7t15 5q3 13 3 26q-14 2 -27 -0.5t-27 -4.5q-26 -4 -53 -1t-53 5l-6 -25q12 -4 24.5 -7t23.5 -9q-5 -7 -23.5 -24t-40.5 -35t-41.5 -33 t-25.5 -17l-3 1v449q-14 0 -32 -5.5t-36.5 -14t-35.5 -17.5t-30 -15v-15q0 -7 4 -13q14 -5 27 -9.5t27 -6.5v-505q0 -16 -2.5 -25.5t-8.5 -15.5t-15 -10.5t-22 -10.5q-3 -2 -10.5 -4.5t-9.5 -4.5q-2 -3 -2 -12v-12q32 0 64 5t64 7q18 2 36 -2t35 -8q4 7 5 12t0 13 q-14 8 -29.5 13t-31.5 10q-3 21 -2 42l2 42q1 24 0.5 47.5t-0.5 47.5q5 -6 18 -21.5t29.5 -36t34.5 -43.5t33.5 -43t25.5 -34.5t11 -18.5l-4 -11l10 -11h99q11 0 21.5 -2t21.5 -2z" />
<glyph unicode="l" horiz-adv-x="240" d="M218 1q0 7 -0.5 13.5t-2.5 13.5q-26 3 -39 5.5t-18 9t-5 19.5v40l6 525v28q0 15 -2 29h-17q-29 -14 -59.5 -26.5t-56.5 -31.5q-1 -20 4 -27t13.5 -10t19.5 -5.5t22 -12.5l-3 -496q0 -25 -8 -32t-17.5 -8.5t-17.5 -3t-8 -15.5q0 -15 10.5 -19t24.5 -3t28.5 4t22.5 3 t23 -1.5t31 -2.5t29.5 -0.5t19.5 4.5z" />
<glyph unicode="m" horiz-adv-x="719" d="M682 0q9 0 14.5 4.5t6 10.5t-5 12.5t-17.5 9.5q-10 3 -17.5 3.5t-16.5 7.5q-6 29 -4.5 73t2 89.5t-4 85.5t-23.5 62q-14 17 -38.5 27.5t-47.5 10.5q-15 0 -34 -7t-38 -17.5t-37.5 -21.5t-31.5 -19q-18 45 -46 59.5t-60.5 9.5t-66 -23.5t-61.5 -40.5l-2 1q5 30 -6 58h-18 q-23 -12 -45 -19t-33.5 -16.5t-7.5 -26t33 -46.5q7 -55 6 -109.5t-1 -109.5q0 -12 -8 -18.5t-16.5 -12.5t-13 -15t2.5 -26q42 -2 82.5 -1t80.5 9q0 19 -4 26t-10 8.5t-13.5 2t-13.5 6t-10 19.5t-3 44l4 140q1 18 2.5 31.5t7 23t16.5 16t31 10.5q16 3 31.5 3.5t30.5 -3.5 q11 -8 21.5 -18.5t12.5 -24.5q3 -22 5 -49.5t2 -56.5q0 -28 -1 -55.5t-3 -49.5q-2 -26 -18.5 -35t-38.5 -18v-12t2 -12q12 0 39 -0.5t56 -0.5t53.5 1t31.5 4q4 8 2.5 13.5t-6 9.5t-10.5 7l-12 6q-14 6 -14 12q0 7 -2 21q-4 57 -2 113t3 113q22 14 45.5 27t49.5 13 q22 0 36 -13.5t22 -35.5t11.5 -49t4 -53t-0.5 -49.5t-2 -37.5q-1 -16 -4.5 -31t-7.5 -30l-33 -9l-5 -21z" />
<glyph unicode="n" horiz-adv-x="479" d="M464 21q-8 4 -16.5 5.5t-16 4t-13 8t-6.5 17.5q-4 53 -3 103.5t2 103.5q1 47 -15 75.5t-43 41t-62.5 9.5t-73.5 -18q-17 -7 -32.5 -16t-30.5 -18q-1 13 -1.5 25.5t-2.5 25.5q-5 3 -11 5.5t-13 2.5q-20 -13 -41.5 -23.5t-43.5 -19.5q-5 -11 -2 -21l26.5 -26.5t14.5 -34.5 q1 -14 1.5 -48.5t0 -72t-2.5 -69.5t-6 -41q-9 -5 -18.5 -9t-18.5 -9q-3 -22 3.5 -25.5t26.5 -2.5q14 1 29 2t29 1q7 0 20.5 -2t26.5 -2q14 0 24 4t10 16q0 10 -4.5 14.5t-11 7.5t-13.5 5t-13 7q-5 4 -7.5 21t-3 37.5t-0.5 38.5v27l4 146q34 23 75 23.5t75 -22.5 q17 -11 25 -23.5t10.5 -26.5t2 -29.5t-0.5 -32.5q0 -10 -0.5 -32t-1.5 -45.5t-3.5 -44.5t-5.5 -28q-2 -6 -9.5 -11.5t-16.5 -11t-18 -10l-15 -7.5l1 -20q32 4 63 4.5t62 -0.5q14 0 30 -2t30 0q8 1 7.5 9.5t-2.5 13.5z" />
<glyph unicode="o" horiz-adv-x="427" d="M401 178q0 45 -11.5 83.5t-42.5 72.5q-23 25 -60 37t-71 15q-13 1 -29 -3t-31.5 -10.5t-30 -14t-25.5 -14.5q-16 -10 -30 -28.5t-24 -40.5t-15.5 -45t-5.5 -41q0 -40 13.5 -77.5t29.5 -72.5q17 -12 31 -21.5t28.5 -16t31 -10.5t38.5 -4q12 0 24 2l24 4q16 2 29 4t24 5.5 t22 10.5t23 20q32 34 45 66t13 79zM329 157q0 -39 -16 -73t-41.5 -52t-58.5 -15t-66 38q-10 10 -18 29.5t-14 42t-9.5 44t-3.5 35.5q0 6 1 18t3 24.5t4.5 23.5t5.5 17q24 53 67.5 60t87.5 -29q13 -11 23.5 -31.5t18 -44.5t12 -47.5t4.5 -39.5z" />
<glyph unicode="p" horiz-adv-x="479" d="M390 353q-6 6 -18.5 14t-26.5 15.5t-27 13t-21 5.5t-25 -8t-36.5 -18.5t-37 -20.5t-26.5 -15q0 21 -1 42.5t-4 42.5h-14q-23 -29 -55 -46t-63 -34q-2 -12 2 -15.5t13 -8.5q12 -6 22.5 -12t21.5 -14v-504q-5 -1 -17.5 -2t-25.5 -3t-22.5 -6t-9.5 -11q0 -9 3.5 -10.5 t11.5 -1.5q57 1 112.5 0t112.5 1l-6 28q-7 0 -18 -1t-23 -1t-22 1.5t-16 6.5q-2 1 -3 16t-2 36.5t-1 46.5v49v41v24q46 -18 91 -9t82.5 35.5t64 66.5t36 85t-2 90t-49.5 81zM377 169q0 -20 -8.5 -43t-23 -43t-34 -33.5t-41.5 -13.5q-15 0 -32 4.5t-32 13t-25.5 21.5 t-11.5 30q-2 49 -1 98.5t1 98.5q0 4 9 11t21 14t23.5 11.5t16.5 4.5q7 0 23 -8.5t33 -19.5t31.5 -22.5t19.5 -17.5q6 -9 12 -22.5t10 -28.5t6.5 -30t2.5 -25z" />
<glyph unicode="q" horiz-adv-x="479" d="M416 -229q0 14 -4 27.5t-6 27.5q-2 12 -2 30q0 17 0.5 35.5t1 36.5t0.5 31q1 78 1 155v156q0 33 2.5 65.5t1.5 65.5h-13q-31 -15 -47 -17t-29 1t-27.5 8t-42.5 5q-17 0 -34 -5t-32 -11q-63 -26 -105.5 -76t-42.5 -121q0 -35 9 -69.5t27.5 -62t47.5 -45t68 -17.5 q43 0 75.5 13t68.5 35q-2 -48 -2 -97t-5 -97q-3 -29 -16.5 -38t-27.5 -12t-24.5 -8.5t-7.5 -27.5h90q4 0 16.5 0.5t25.5 2t23 3.5t10 6zM332 86q0 -6 -2 -15.5t-7 -13.5q-8 -5 -19.5 -8.5t-24 -6t-24.5 -3.5t-21 -1t-18.5 5t-19.5 12t-18 15.5t-14 14.5q-22 25 -30.5 62 t-8.5 69q0 20 6 43.5t17.5 43t29.5 32.5t42 13q22 0 42.5 -8.5t36 -23t24.5 -34.5t9 -42v-154z" />
<glyph unicode="r" horiz-adv-x="292" d="M280 380q-11 4 -22 7.5t-23 3.5q-15 0 -28.5 -9t-25.5 -22t-21.5 -28t-15.5 -26h-2q0 20 2 46.5t-7 45.5q-29 0 -55.5 -14t-51.5 -28q-2 -18 5 -27.5t16 -16.5t17 -14.5t8 -20.5v-191q0 -25 -10.5 -36.5t-21 -18.5t-14.5 -13.5t9 -22.5q32 2 64.5 3.5t64.5 1.5 q16 0 31.5 -2t31.5 -2l3 19q-15 6 -29.5 13t-26.5 16.5t-20 22.5t-8 31l-3 141q0 11 2 25t7 27t14.5 21.5t23.5 8.5q7 0 14.5 -3.5l15 -7t13.5 -7t9 -3.5q8 0 14 10t10.5 23.5t7 27t2.5 19.5z" />
<glyph unicode="s" horiz-adv-x="292" d="M264 87q0 32 -12.5 56t-31 42.5t-40 33t-40 29t-31 30t-12.5 35.5q0 22 14.5 32.5t34.5 10.5q22 0 33.5 -10t19.5 -21.5t16 -20.5t23 -7q1 21 4 40t-7 39q-3 5 -18.5 10.5t-37.5 8.5t-47 1t-46 -11.5t-35 -29t-14 -51.5q0 -46 24 -78t53.5 -57.5t53.5 -47t24 -46.5 q0 -18 -7 -28t-18.5 -14.5t-25.5 -5t-28 -0.5q-15 0 -23.5 7.5t-12.5 18.5t-6 23.5t-3 23.5q-9 2 -16.5 2.5t-15.5 -2.5q0 -29 4 -50.5t15 -35.5t30.5 -20.5t51.5 -6.5q24 0 46.5 5.5t40.5 17.5t29 31t11 46z" />
<glyph unicode="t" horiz-adv-x="240" d="M224 27q-2 7 -5 14.5t-8 12.5q-19 -6 -36 -5.5t-30 7.5t-20 21t-6 37l6 214l6 5q22 0 38.5 -2.5t27.5 -0.5t16.5 13t5.5 38q-23 4 -45 4.5t-45 -0.5v69q-17 -2 -26.5 -12t-20.5 -22q-16 -18 -34 -33.5t-36 -31.5v-9q8 -11 16.5 -21.5t17.5 -21.5q1 -50 0 -98.5t-2 -98.5 q0 -21 4 -41.5t14 -37t27 -27t41 -10.5q26 0 49 11.5t45 25.5z" />
<glyph unicode="u" horiz-adv-x="479" d="M444 65h-52l6 329q-3 0 -23.5 -1.5t-45 -4t-46.5 -4.5t-29 -3l8 -30q20 -4 32.5 -8.5t19.5 -12.5t9.5 -20.5t2.5 -33.5q0 -51 1 -102.5t-7 -102.5q-28 -15 -58.5 -23t-56 -3.5t-42 25t-16.5 63.5v257q0 5 -1 8.5t-7 3.5q-20 0 -38 -6t-37 -11q-2 -1 -7 -2t-10 -3t-9 -4 t-4 -4q0 -5 6.5 -13.5t14 -18.5t13.5 -21.5t6 -21.5l-4 -193q-2 -57 24.5 -85.5t84.5 -28.5q41 0 75 18.5t68 38.5q0 -6 -1 -15.5t-0.5 -19t4.5 -16t14 -6.5q7 0 20 5.5t26 13t25 15t18 12.5q8 6 12.5 12t3.5 17z" />
<glyph unicode="v" horiz-adv-x="427" d="M420 351q2 17 -3 32q-17 2 -32 -2t-32 -4t-34.5 4t-35.5 2v-17q6 -8 20.5 -17t23.5 -14q0 -22 -7.5 -43.5t-15.5 -41.5l-71 -173l-39 103q-3 7 -13.5 31t-22.5 50t-21 47t-9 23q0 3 6.5 7t15 7.5t16 7t10.5 4.5q-1 5 0 11t3 11q-20 1 -40.5 -1t-40.5 -1t-41 4t-41 1 q-6 -17 -2.5 -22t11.5 -9t18 -10.5t18 -24.5l120 -279q3 -8 11 -24.5t13 -21.5q3 -3 11 -3q12 0 18 5.5t9.5 14t5.5 18.5t5 18q11 25 24 48.5t24 48.5q18 42 32.5 85t31.5 85q7 16 23 24.5t31 15.5z" />
<glyph unicode="w" horiz-adv-x="677" d="M660 352q0 8 -0.5 16t-2.5 16q-12 -2 -26 -5t-26 -2q-19 2 -37 5t-38 1v-23q15 -7 24 -11.5t12.5 -10.5t2 -15.5t-7.5 -25.5q-18 -51 -35.5 -103.5t-45.5 -100.5l-106 237q10 10 21 12t19.5 5t11.5 10t-4 27q-21 -4 -41.5 -4.5t-40 0.5t-40 2.5t-41.5 1.5l-4 -23 q9 -5 18.5 -10t17.5 -11q4 -3 9.5 -13.5t11 -23t10.5 -24.5t7 -18q-4 -21 -13.5 -44t-22.5 -45.5t-26.5 -44t-25.5 -39.5q-5 10 -9.5 20t-9.5 21l-86 207q10 3 18 5.5t14 7t9 11.5t3 20q-29 -3 -58 -2.5t-58 2.5q-11 1 -21.5 2.5t-21.5 1.5q-1 0 -2 -0.5t-2 -0.5 q-1 -7 -1.5 -14.5t3.5 -13.5q13 -5 21.5 -10t14 -12t10 -16.5t9.5 -21.5q13 -30 24 -60.5t25 -60.5l86 -187h32q16 39 33 75t40 71q11 17 19 36t17 38q10 -19 17 -38.5t16 -38.5q17 -35 36 -70t30 -73h28q24 83 60 162t72 157q8 18 20.5 28t30.5 18z" />
<glyph unicode="x" horiz-adv-x="479" d="M454 8v23q-19 7 -30.5 8.5t-19.5 4.5t-16.5 9.5t-21.5 24.5q-23 30 -46.5 58.5t-48.5 57.5q17 27 38 50t43 46q9 10 16 17t13.5 12t15 8.5t22.5 8.5q16 5 20.5 9t7.5 21l3 17q-23 0 -44.5 -3t-44.5 -2q-20 1 -38.5 5t-38.5 2q-9 -15 -9 -24t6.5 -14.5t17.5 -9.5t22 -9 q-17 -29 -37 -54t-40 -51q-5 7 -15 21.5t-19.5 30.5t-16.5 30.5t-7 22.5q0 4 3 10t6.5 12.5t6.5 12.5t3 10q0 5 -10.5 5.5t-13.5 0.5h-78q-38 0 -77 2q6 -26 17 -33.5t23.5 -9.5t25 -5t22.5 -18q20 -31 39.5 -62t41.5 -60l-70 -91q-13 -17 -20.5 -26.5t-15.5 -15t-19.5 -9 t-32.5 -7.5q-10 -2 -14 -6.5t-5.5 -10.5t-0.5 -13.5t1 -15.5l164 5l9 28q-27 7 -33 17.5t-1 23.5t17 26.5t21 26.5l24 33q27 -26 47 -56.5t40 -62.5l-44 -11q-1 -14 2 -29h40t55.5 0.5t54.5 2t38 3.5z" />
<glyph unicode="y" horiz-adv-x="385" d="M363 360q10 6 7.5 20.5t-9.5 21.5q-6 -1 -25 -3t-39.5 -4t-37 -5t-18.5 -5q-4 -5 -5 -10.5t-2 -11.5q9 -1 27 -2.5t25 -6.5q2 -12 -1 -26t-7.5 -28.5t-10 -28.5t-8.5 -25l-42 -160l-4 1q-14 33 -23.5 67.5t-20.5 68.5q-5 13 -11 30t-12.5 34.5t-12 34t-8.5 29.5 q-2 11 9 11.5t18 0.5l7 5v23l-138 4q-7 -9 -7 -16t4 -18q19 -8 27 -21.5t14 -31.5l83 -241q12 -35 17 -59.5t3.5 -47.5t-10 -47.5t-22.5 -57.5q-5 -11 -18.5 -14.5t-27.5 -7.5t-25.5 -11.5t-11.5 -25.5q0 -12 6.5 -19.5t16 -12t21 -6t20.5 -1.5q15 0 25.5 6t18 15.5t12 21.5 t8.5 24l155 509q2 7 5 12.5t8 10.5z" />
<glyph unicode="z" horiz-adv-x="385" d="M358 90q-11 1 -14.5 -3t-8.5 -12q-6 -9 -13.5 -13.5t-16.5 -5.5t-19 -1h-18q-66 -3 -133 -3l198 289q8 12 14 26t3 29q-24 2 -47.5 -3t-47.5 -5q-38 0 -75 2.5t-74 4.5q-6 0 -17 3t-22.5 3.5t-19.5 -2.5t-8 -13l6 -102q7 -2 14 -1.5t15 0.5q4 17 8 32.5t9 31.5 q14 4 32 5.5t37 1.5q20 0 39 -0.5t34 -0.5q8 0 15 1.5t15 0.5q-15 -14 -37.5 -45.5t-45.5 -68t-45 -71.5t-36 -56q-5 -8 -12 -15t-13 -15q-14 -17 -26 -34.5t-24 -35.5l-3 -22q15 -1 30.5 1.5t30.5 2.5h236q9 0 18 2l18 4q5 22 4.5 44t-0.5 44z" />
<glyph unicode="{" horiz-adv-x="479" d="M404 -232v17q-55 16 -78 39.5t-28.5 52.5t1 62t11.5 67t2.5 68.5t-25.5 66.5t-51 50.5t-64 32.5q60 23 90.5 51.5t42.5 59t9.5 63t-8 64t-10 61.5t2.5 56t30.5 47t74.5 35v17q-37 -7 -70.5 -22.5t-58.5 -39.5t-39.5 -56t-14.5 -72q0 -38 11 -74.5t11 -74.5 q0 -24 -9.5 -42.5t-25 -31.5t-35.5 -21t-41 -11v-20q21 -3 40.5 -11t35.5 -21t25.5 -31t9.5 -41q0 -38 -11 -75t-11 -75q0 -40 14.5 -72.5t39.5 -56.5t58.5 -39.5t70.5 -22.5z" />
<glyph unicode="|" horiz-adv-x="500" d="M272 -240v920h-44v-920h44z" />
<glyph unicode="}" horiz-adv-x="479" d="M347 213v20q-21 3 -40.5 11t-35.5 21t-25.5 31t-9.5 41q0 38 11 75t11 75q0 40 -14.5 72.5t-39.5 56.5t-58.5 39.5t-70.5 22.5v-17q54 -16 77.5 -39.5t29 -52.5t-1 -62t-11.5 -67t-2.5 -68.5t25.5 -66.5t51 -50.5t64 -32.5q-60 -23 -90.5 -51.5t-42.5 -59t-9.5 -63t8 -64 t10 -61.5t-2.5 -56t-30.5 -47t-74.5 -35v-17q37 7 70.5 22.5t58.5 39.5t39.5 56t14.5 72q0 38 -11 74.5t-11 74.5q0 24 9.5 42.5t25 31.5t35.5 21t41 11z" />
<glyph unicode="~" horiz-adv-x="667" d="M594 387h-21q-5 -40 -26.5 -65.5t-64.5 -25.5q-28 0 -61 12.5t-69 28t-72.5 30t-70 19.5t-62.5 -4.5t-50 -42.5q-13 -20 -17.5 -40.5t-5.5 -43.5h21q11 49 35.5 68.5t56.5 19.5q33 0 71 -14t76.5 -30.5t74.5 -30.5t64 -14q30 0 51.5 10.5t36.5 28.5t23 42.5t10 51.5z" />
<glyph unicode="&#xa1;" horiz-adv-x="240" d="M182 326q0 33 -19 45t-42.5 7.5t-42.5 -22.5t-19 -45q0 -25 19 -36.5t42.5 -9.5t42.5 17.5t19 43.5zM170 -214q5 22 2 46t-5 46l-25 237q-3 26 -3 52t-5 52q-6 4 -13.5 2.5t-13.5 -3.5l-32 -367q-3 -35 -3.5 -50.5t7.5 -20.5t28 -3t58 2z" />
<glyph unicode="&#xa2;" horiz-adv-x="385" d="M366 636h-27l-81 -241q-9 0 -18 1t-18 1q-39 0 -74 -15.5t-61 -42.5t-41.5 -62t-15.5 -74q0 -38 9 -68.5t26 -63.5q12 -23 27.5 -36t36.5 -27l-78 -237h27l77 226q36 -6 63.5 -5.5t50 9t43 26t42.5 46.5l-15 13q-21 -12 -40 -22t-38.5 -14.5t-40 -1.5t-43.5 17l91 270 q4 -5 11.5 -14t16 -18t17 -15.5t15.5 -6.5q14 0 25 11.5t11 25.5q0 13 -8.5 24t-21 19.5t-26.5 15t-24 9.5zM244 351l-89 -268q-24 28 -34 62.5t-9.5 68t11.5 63.5t28.5 50.5t41.5 28t51 -4.5z" />
<glyph unicode="&#xa3;" horiz-adv-x="719" d="M681 620q0 17 -10 29.5t-24.5 20t-31.5 11t-31 3.5q-41 0 -76.5 -18t-64 -46.5t-50.5 -63.5t-37 -69q-42 -93 -80 -187t-67 -192l-137 -3l-13 -33h138q-4 -12 -11.5 -36.5t-17.5 -50t-20 -47t-18 -28.5q-12 -10 -30 -22.5t-34.5 -27t-28 -31.5t-11.5 -35q0 -13 9.5 -23 t22.5 -10q16 0 32.5 13.5t31.5 32t26.5 38.5t19.5 32q11 19 19 21.5t29 2.5q42 0 74.5 -22t63 -48.5t62.5 -48.5t72 -22q33 0 65 12t56.5 33t40 50.5t15.5 64.5q0 36 -13 53.5t-28.5 20t-28.5 -7t-13 -26.5q0 -9 5 -18.5t11.5 -20t11.5 -21.5t5 -24q0 -24 -12 -36.5t-30 -17 t-38.5 -2.5t-36.5 7q-9 3 -19 9t-20.5 14t-20.5 16t-17 14q-55 43 -108.5 53t-120.5 -10q23 36 42.5 73.5t36.5 76.5q40 -1 79 -2t79 2l10 32q-39 0 -77.5 -1t-77.5 2l148 383q7 18 19 42.5t28.5 47t36 38t41.5 15.5q14 0 26 -7.5t23 -16.5t22 -16.5t23 -7.5q14 0 22 11.5 t8 24.5z" />
<glyph unicode="&#xa4;" horiz-adv-x="796" d="M782 151q-22 16 -44 26q-6 -13 -13 -29t-15.5 -31.5t-18.5 -29t-21 -22.5q-14 -11 -34.5 -19.5t-43 -13.5t-44.5 -7.5t-40 -2.5q-46 0 -90 11.5t-82 34.5t-67 57t-45 79h462l3 33h-475q-8 34 -8 69t7 70h487l3 33h-482q7 22 18.5 42t26.5 37q51 60 110 82t136 22 q23 0 41 -2.5t41 -12.5q24 -11 39 -23.5t24.5 -28t15.5 -34.5t13 -43q15 -3 28 -2q1 31 -1.5 61.5t-3.5 61.5q-1 11 -0.5 20t-2 15.5t-8.5 11t-19 6.5q-63 8 -125 8.5t-125 -1.5q-50 -2 -96.5 -19.5t-86.5 -46.5t-71 -68.5t-49 -85.5h-95l-2 -33h86q-17 -68 -1 -139h-97 l-3 -33h109q20 -61 61.5 -103t94.5 -68t113.5 -37.5t119.5 -11.5q53 0 105 9t103 23q37 63 62 135z" />
<glyph unicode="&#xa5;" horiz-adv-x="677" d="M662 577q1 7 2 13.5t0 12t-5 9t-14 3.5q-20 1 -41 -0.5t-41 -1.5q-22 0 -43.5 1.5t-43.5 1.5q-15 0 -21.5 -4t-5.5 -21q5 -3 18 -6t27 -7t25 -9t11 -10q0 -11 -5 -24t-12.5 -26t-15.5 -25t-14 -22q-28 -45 -54.5 -90.5t-57.5 -88.5l-124 214l-16 26t-8 29q0 15 6 21.5 t15 8t19 1.5q11 0 20 2t15 9t6 22q-10 -1 -19 1t-18 3q-20 2 -38.5 -2t-38.5 -5t-39 -0.5t-39 0.5t-39 4t-38 -1q-2 -6 -2.5 -14t3.5 -13q31 -6 45.5 -8t23 -7t16 -17.5t24.5 -39.5q4 -20 16.5 -35.5t23.5 -32.5q16 -26 30.5 -52.5t29.5 -52.5q10 -17 20 -33.5t19 -33.5 h-224v-40h242l1 -66h-243v-40h245q0 -11 1.5 -22.5t1 -22.5t-5.5 -20t-18 -15l-65 -28q-11 -5 -14.5 -8.5t-4.5 -16.5l4 -6q3 0 6.5 -0.5t6.5 -0.5q55 2 109.5 6.5t109.5 3.5q16 0 31.5 -5t31.5 -5q11 0 13 6.5t1 14.5q-29 11 -51 17.5t-37.5 17t-23.5 29.5t-8 55h230v40 h-228l2 66h226v40h-209q38 51 71 105.5t66 109.5q15 24 22.5 40t16.5 25t25 13.5t47 6.5z" />
<glyph unicode="&#xa6;" horiz-adv-x="500" d="M272 323v357h-44v-357h44zM272 -240v356h-44v-356h44z" />
<glyph unicode="&#xa7;" horiz-adv-x="479" d="M423 -1q0 38 -5.5 81t-18.5 79q-8 23 -29 60t-47 79t-54.5 86.5t-52 82.5t-38.5 67t-15 40q0 26 16 43.5t43 17.5q28 0 48.5 -11t36.5 -23.5t30.5 -23.5t30.5 -11q17 0 26.5 12t9.5 28q0 22 -13.5 36t-33.5 22.5t-42 12t-39 3.5q-54 0 -95 -21.5t-68.5 -57.5t-41.5 -82.5 t-14 -95.5q0 -68 19 -128t47 -113.5t61.5 -100t61.5 -87.5t47 -77t19 -67q0 -24 -17 -36t-39 -12q-25 0 -42.5 10.5t-32 23t-29 23t-33.5 10.5q-8 0 -14.5 -2t-13.5 -5q-13 -35 -2 -57.5t36.5 -34t61 -12t72 8.5t68.5 27t51 45q24 34 34.5 76t10.5 84zM387 -14 q0 -45 -10 -78.5t-36 -69.5l-2 2q8 31 -3 66.5t-33 75.5t-51 83.5t-57.5 90.5t-52.5 97t-35.5 102.5t-7 107.5t32.5 111l3 -2q-6 -29 10.5 -66.5t44.5 -82t62.5 -95t64 -106t50 -115t20.5 -121.5z" />
<glyph unicode="&#xa8;" d="M295 558q0 17 -11.5 27.5t-26 12.5t-27.5 -6.5t-16 -30.5q-3 -20 9.5 -30.5t28.5 -11.5t29.5 8.5t13.5 30.5zM119 557q0 20 -12.5 30t-28.5 10q-15 0 -27.5 -10t-12.5 -30q0 -19 12.5 -28.5t27.5 -9.5q16 0 28.5 9t12.5 29z" />
<glyph unicode="&#xa9;" horiz-adv-x="760" d="M726 289q0 72 -27 135t-74 110t-110 74t-135 27t-135 -27t-110 -74t-74 -110t-27 -135t27 -135t74 -110t110 -74t135 -27t135 27t110 74t74 110t27 135zM696 289q0 -66 -25 -123.5t-67.5 -100t-100 -67.5t-123.5 -25t-123.5 25t-100 67.5t-67.5 100t-25 123.5t25 123.5 t67.5 100t100 67.5t123.5 25t123.5 -25t100 -67.5t67.5 -100t25 -123.5zM569 168l-18 10q-29 -40 -65 -59.5t-86 -19.5q-45 0 -76 16t-50.5 43t-28 63t-8.5 76q0 38 9 73t28 61.5t49 42.5t72 16q60 0 94.5 -30t52.5 -85h19l-10 137h-19q-2 -7 -8 -14.5t-14 -7.5 q-25 0 -53.5 11t-59.5 11q-48 0 -92 -16.5t-77 -46.5t-52.5 -71.5t-19.5 -91.5q0 -48 18 -88t49.5 -68.5t72.5 -44.5t88 -16q63 0 105.5 24.5t79.5 74.5z" />
<glyph unicode="&#xaa;" horiz-adv-x="260" d="M250 379q3 14 0 28q-6 -4 -15 -8.5t-17.5 -5.5t-14.5 3t-6 17v159q0 28 -13 42.5t-32 18.5t-41 -1.5t-40 -17t-29.5 -27.5t-8.5 -33l13 -3q9 6 17 15.5t16 18.5t17.5 15.5t21.5 6.5q17 0 24.5 -13.5t9.5 -32.5t0.5 -38t-1.5 -30q-17 -4 -39.5 -8t-43.5 -12.5t-35.5 -22 t-14.5 -36.5q0 -25 15.5 -41t40.5 -16q20 0 41 10.5t38 20.5q11 -20 21.5 -27t22.5 -6t25 8t28 16zM153 479q1 -18 -0.5 -36.5t-2.5 -36.5q-25 -16 -47.5 -12t-29 18t10 33t69.5 34z" />
<glyph unicode="&#xab;" horiz-adv-x="385" d="M360 60l-96 163l95 159h-36l-134 -162l135 -160h36zM197 60l-96 163l95 159h-36l-134 -162l135 -160h36z" />
<glyph unicode="&#xac;" horiz-adv-x="667" d="M595 186v269h-523v-43h480v-226h43z" />
<glyph unicode="&#xad;" horiz-adv-x="292" d="M233 219q1 14 0.5 29t-2.5 29l-207 -29q-9 -1 -12.5 -7.5t-3.5 -15.5q0 -8 2.5 -16.5t4.5 -14.5q4 -2 8 -3.5t9 -1.5q19 0 45.5 3.5t54 8t54.5 9.5t47 9z" />
<glyph unicode="&#xae;" horiz-adv-x="760" d="M726 289q0 72 -27 135t-74 110t-110 74t-135 27t-135 -27t-110 -74t-74 -110t-27 -135t27 -135t74 -110t110 -74t135 -27t135 27t110 74t74 110t27 135zM696 289q0 -66 -25 -123.5t-67.5 -100t-100 -67.5t-123.5 -25t-123.5 25t-100 67.5t-67.5 100t-25 123.5t25 123.5 t67.5 100t100 67.5t123.5 25t123.5 -25t100 -67.5t67.5 -100t25 -123.5zM574 79v17q-22 2 -34 14t-24 29l-103 145q21 6 40.5 14.5t35 21t24.5 30t9 42.5q0 30 -13 50.5t-34 34t-47 19.5t-51 6h-189v-17q19 0 28.5 -5t13 -13t3.5 -21v-27v-256q0 -16 -0.5 -28.5t-5 -21 t-15 -13t-29.5 -4.5v-17h179v17q-8 0 -18 0.5t-19 3.5t-15 9t-6 17v151h37l144 -198h89zM319 298h-15v175q37 12 66.5 3.5t48 -27.5t23.5 -45.5t-5.5 -49.5t-39.5 -39.5t-78 -16.5z" />
<glyph unicode="&#xaf;" d="M313 538v43h-293v-43h293z" />
<glyph unicode="&#xb0;" horiz-adv-x="396" d="M348 485q0 31 -12 58.5t-32 47.5t-47.5 32t-58.5 12t-58 -12t-47.5 -32.5t-32.5 -47.5t-12 -58q0 -50 22 -82.5t55.5 -49t72.5 -17t72.5 16.5t55.5 49.5t22 82.5zM307 485q0 -36 -16 -60t-40.5 -36t-52.5 -12t-52.5 12t-40.5 36t-16 60t16 60t40.5 36t52.5 12t52.5 -12 t40.5 -36t16 -60z" />
<glyph unicode="&#xb1;" horiz-adv-x="667" d="M595 377v43h-240v240h-43v-240h-240v-43h240v-240h43v240h240zM595 -18v43h-523v-43h523z" />
<glyph unicode="&#xb2;" horiz-adv-x="292" d="M244 418l-1 13l-11 3q-5 -3 -11 -15.5t-9 -18.5q-8 -15 -19.5 -20.5t-24.5 -6.5t-27.5 1.5t-27.5 3.5q13 17 34 39t41 46t35 48.5t15 46.5q0 16 -7.5 30t-20 24.5t-28 16t-30.5 5.5q-11 0 -26 -7t-28.5 -18t-23 -23.5t-9.5 -23.5q0 -2 4 -5t6 -5q12 9 27.5 20t31.5 11 q22 0 35 -19.5t13 -39.5q0 -26 -14.5 -46t-31.5 -38l-102 -104l8 -18q10 3 33.5 3.5t50 0t52 -1.5t39.5 -1q9 24 14 49.5t13 49.5z" />
<glyph unicode="&#xb3;" horiz-adv-x="292" d="M217 430q0 36 -17.5 50t-50.5 19q9 6 18.5 12t17.5 14t13 17.5t5 21.5q0 30 -16 48t-38 21.5t-45 -8.5t-37 -42l5 -9q12 4 24.5 8t25.5 3q5 -2 9 -4.5t8 -5.5q12 -9 12.5 -21t-6 -24t-17 -22.5t-19.5 -14.5l-21 -10l-6 -9l6 -11q41 1 59 -17.5t19.5 -42t-10.5 -43 t-30 -19.5q-8 0 -16.5 5t-15.5 9h-8q-8 -7 -14 -13t-11 -15q27 -23 54.5 -20.5t50 20.5t37 46.5t14.5 56.5z" />
<glyph unicode="&#xb4;" d="M273 618q-1 11 -13 18.5t-22 7.5q-7 0 -18 -10.5t-23.5 -26.5t-26 -35.5t-25.5 -38t-21.5 -34t-13.5 -22.5l9 -6l108 87q5 4 13 11.5t15.5 15.5t12.5 17t5 16z" />
<glyph unicode="&#xb5;" horiz-adv-x="500" d="M490 99h-20q-2 -8 -4 -18.5t-6.5 -19.5t-11.5 -15.5t-18 -6.5q-12 0 -18.5 7t-10 17.5t-4 21.5t-0.5 20v283h-81v-276q-23 -26 -50.5 -46t-64.5 -20q-22 0 -35 10.5t-20.5 26.5t-10 35t-2.5 36v234h-81v-327q0 -28 -1 -56t-8 -56l-14 -54t-7 -55q0 -29 16.5 -44.5 t34.5 -12t29.5 28.5t1.5 77q-7 35 -12 69t-5 70h2q14 -23 31 -32.5t43 -9.5q25 0 46.5 8t40 21t35 29.5t31.5 34.5q2 -18 6.5 -35t12.5 -29.5t22 -20.5t36 -8q25 0 43 9t29.5 25t17 36t7.5 43z" />
<glyph unicode="&#xb6;" horiz-adv-x="479" d="M470 604v19h-262q-45 0 -86.5 -11t-73 -34t-50 -59t-18.5 -86q0 -39 14 -76t43 -64q18 -16 40.5 -26t47 -15.5t50 -8t48.5 -3.5v-528h37v883h95v-883h36v789v47q0 20 6.5 32.5t23 18t49.5 5.5z" />
<glyph unicode="&#xb7;" horiz-adv-x="240" d="M180 307q0 30 -19 45t-41.5 14.5t-41 -15t-18.5 -42.5q0 -30 18.5 -45.5t40.5 -15.5q23 0 42 15t19 44z" />
<glyph unicode="&#xb8;" d="M247 7h-42l-97 -109l25.5 -8.5t25.5 -12t20 -18t8 -25.5q0 -14 -14 -27.5t-28 -13.5q-16 0 -30 13t-27.5 24t-26.5 11t-28 -25v-14q16 -23 38 -33.5t45 -11t45.5 7t40 22t28.5 33.5t11 42q0 29 -16 45t-37 32q32 32 59 68z" />
<glyph unicode="&#xb9;" horiz-adv-x="292" d="M250 323q-20 11 -31.5 13.5t-17 7t-7 16t-1.5 40.5v207q0 23 -6.5 25t-24.5 -8q-6 -3 -19.5 -10t-27.5 -14.5t-25.5 -15t-14.5 -13.5q-2 -2 -1.5 -6.5t1.5 -7.5l7 -3q5 3 12 7.5t14 6.5t13 1t11 -8v-202q0 -10 -9.5 -15.5t-17.5 -5.5h-11q-3 0 -5.5 -0.5t-5.5 -2.5t-9 -5 l4 -12q20 -6 40 -3.5t40 2.5t40 -2.5t40 -4.5l9 3z" />
<glyph unicode="&#xba;" horiz-adv-x="292" d="M275 501q0 46 -19 75.5t-48 44t-62 13.5t-62 -16t-48 -43.5t-19 -70.5q0 -10 1.5 -23.5t5 -27.5t9 -26.5t12.5 -19.5q8 -9 22.5 -20.5t26.5 -13.5q14 -2 27 -4t27 -4q11 -2 22 1t21 7q42 16 63 49.5t21 78.5zM226 477q0 -16 -5.5 -32.5t-15.5 -30t-24 -22t-32 -8.5 q-21 0 -36 14t-24.5 34.5t-14.5 42.5t-5 39q0 38 11.5 61t29 32t38 4t38 -21.5t29 -45t11.5 -67.5z" />
<glyph unicode="&#xbb;" horiz-adv-x="385" d="M360 222l-135 160h-36l96 -163l-95 -159h36zM197 222l-135 160h-36l96 -163l-95 -159h36z" />
<glyph unicode="&#xbc;" horiz-adv-x="656" d="M547 636h-36l-327 -670h36zM251 324q-20 11 -31.5 13.5t-17 7t-7 16t-1.5 40.5v207q0 23 -6.5 25t-24.5 -8q-6 -3 -19.5 -10t-27.5 -14.5t-25.5 -15t-14.5 -13.5q-2 -2 -1.5 -6.5t1.5 -7.5l7 -3q5 3 12 7.5t14 6.5t13 1t11 -8v-202q0 -10 -9.5 -15.5t-17.5 -5.5h-11 q-3 0 -5.5 -0.5t-5.5 -2.5t-9 -5l4 -12q20 -6 40 -3.5t40 2.5t40 -2.5t40 -4.5l9 3zM603 71q0 11 0.5 20.5t-1.5 20.5q-21 3 -41 3q-1 22 1 43t3 43q1 23 0.5 45.5t-0.5 45.5h-24l-5 -2q-42 -44 -80 -90.5t-73 -96.5l-3 -19l8 -14h121q0 -26 -1 -52t4 -52q6 -1 12.5 0 t12.5 3q5 -2 11 -3t12 0q0 26 0.5 52t0.5 52q11 2 21 1.5t21 -0.5zM509 221q0 -27 -1 -54t0 -54h-83q4 7 15.5 24t24.5 34.5t25.5 32t18.5 17.5z" />
<glyph unicode="&#xbd;" horiz-adv-x="656" d="M547 636h-36l-327 -670h36zM251 324q-20 11 -31.5 13.5t-17 7t-7 16t-1.5 40.5v207q0 23 -6.5 25t-24.5 -8q-6 -3 -19.5 -10t-27.5 -14.5t-25.5 -15t-14.5 -13.5q-2 -2 -1.5 -6.5t1.5 -7.5l7 -3q5 3 12 7.5t14 6.5t13 1t11 -8v-202q0 -10 -9.5 -15.5t-17.5 -5.5h-11 q-3 0 -5.5 -0.5t-5.5 -2.5t-9 -5l4 -12q20 -6 40 -3.5t40 2.5t40 -2.5t40 -4.5l9 3zM601 71l-1 13l-11 3q-5 -3 -11 -15.5t-9 -18.5q-8 -15 -19.5 -20.5t-24.5 -6.5t-27.5 1.5t-27.5 3.5q13 17 34 39t41 46t35 48.5t15 46.5q0 16 -8 30t-20 24.5t-27.5 16t-30.5 5.5 q-12 0 -27 -7.5t-28.5 -18t-22.5 -23t-9 -23.5q0 -2 4 -5t6 -5q12 9 27.5 20t31.5 11q22 0 35 -19.5t13 -39.5q0 -26 -14.5 -46t-31.5 -38l-102 -104l8 -18q10 3 33.5 3.5t50 0t52 -1.5t39.5 -1q9 24 14 49.5t13 49.5z" />
<glyph unicode="&#xbe;" horiz-adv-x="656" d="M547 636h-36l-327 -670h36zM246 430q0 36 -17.5 50t-50.5 19q9 6 18.5 12t17.5 14t13 17.5t5 21.5q0 30 -16 48t-38 21.5t-45 -8.5t-37 -42l5 -9q12 4 24.5 8t25.5 3q5 -2 9 -4.5t8 -5.5q12 -9 12.5 -21t-6 -24t-17 -22.5t-19.5 -14.5l-21 -10l-6 -9l6 -11q41 1 59 -17.5 t19.5 -42t-10.5 -43t-30 -19.5q-8 0 -16.5 5t-15.5 9h-8q-8 -7 -14 -13t-11 -15q27 -23 54.5 -20.5t50 20.5t37 46.5t14.5 56.5zM603 71q0 11 0.5 20.5t-1.5 20.5q-21 3 -41 3q-1 22 1 43t3 43q1 23 0.5 45.5t-0.5 45.5h-24l-5 -2q-42 -44 -80 -90.5t-73 -96.5l-3 -19l8 -14 h121q0 -26 -1 -52t4 -52q6 -1 12.5 0t12.5 3q5 -2 11 -3t12 0q0 26 0.5 52t0.5 52q11 2 21 1.5t21 -0.5zM509 221q0 -27 -1 -54t0 -54h-83q4 7 15.5 24t24.5 34.5t25.5 32t18.5 17.5z" />
<glyph unicode="&#xbf;" horiz-adv-x="240" d="M192 332q0 26 -16.5 38.5t-37.5 11t-41.5 -17.5t-28.5 -47q10 -33 30.5 -45t41.5 -8t36.5 22t15.5 46zM206 -58q0 14 -10 20t-25 9t-32.5 6t-32.5 10t-25 21.5t-10 40.5q0 18 10 24.5t25 8t32.5 2t32.5 5.5t25 19t10 42q0 19 -9 34t-21 29l-27 -6q6 -22 2.5 -32t-13 -14 t-23 -4.5t-27.5 -3.5t-24 -14.5t-16.5 -26.5t-9.5 -31t-3 -29q0 -45 12.5 -76t31.5 -50t41.5 -26t41.5 -4t31.5 15t12.5 31z" />
<glyph unicode="&#xc0;" horiz-adv-x="813" d="M461 677l-87 136q-5 8 -17 16t-25 11t-22.5 -0.5t-9.5 -19.5q0 -9 5.5 -19t13 -19.5t16.5 -17.5t16 -14l102 -80zM776 -7q-1 8 -2.5 17t-9.5 13q-9 4 -21.5 7.5t-26 6.5t-27 6.5t-23.5 7.5q-21 52 -41.5 103.5t-42.5 102.5q-9 20 -19 40.5t-18 40.5q-18 42 -34.5 84.5 t-32.5 85.5q-10 27 -18 54t-18 54q-4 10 -8 16t-15 8q-5 1 -15.5 -1.5t-22 -6t-22.5 -7.5t-15 -7l-3 -6q2 -7 9 -19.5t7 -16.5q0 -1 -12.5 -29.5t-32 -72.5t-42.5 -96.5t-44 -100.5t-37 -85.5t-20 -51.5q-4 -11 -6.5 -23t-6 -23t-10 -20t-18.5 -15q-14 -7 -29.5 -13 t-30.5 -10q-5 -1 -14 -3t-17.5 -5t-15 -7.5t-6.5 -11.5v-16q66 -2 130.5 3.5t130.5 3.5v18q0 5 -10.5 12t-24 14t-26.5 12.5t-18 7.5q16 43 29 87.5t35 84.5h235q6 -12 17 -37.5t22 -53t19.5 -52.5t8.5 -35q0 -14 -18 -18.5t-38 -8.5t-34 -11.5t-7 -26.5q78 9 155 8t155 -8z M478 284h-203q7 26 20 58t27 65t28.5 65t26.5 58q28 -60 53 -121.5t48 -124.5z" />
<glyph unicode="&#xc1;" horiz-adv-x="813" d="M513 816q-1 11 -13 18.5t-22 7.5q-7 0 -18 -10.5t-23.5 -26.5t-26 -35.5t-25.5 -38t-21.5 -34t-13.5 -22.5l9 -6l108 87q5 4 13 11.5t15.5 15.5t12.5 17t5 16zM776 -7q-1 8 -2.5 17t-9.5 13q-9 4 -21.5 7.5t-26 6.5t-27 6.5t-23.5 7.5q-21 52 -41.5 103.5t-42.5 102.5 q-9 20 -19 40.5t-18 40.5q-18 42 -34.5 84.5t-32.5 85.5q-10 27 -18 54t-18 54q-4 10 -8 16t-15 8q-5 1 -15.5 -1.5t-22 -6t-22.5 -7.5t-15 -7l-3 -6q2 -7 9 -19.5t7 -16.5q0 -1 -12.5 -29.5t-32 -72.5t-42.5 -96.5t-44 -100.5t-37 -85.5t-20 -51.5q-4 -11 -6.5 -23t-6 -23 t-10 -20t-18.5 -15q-14 -7 -29.5 -13t-30.5 -10q-5 -1 -14 -3t-17.5 -5t-15 -7.5t-6.5 -11.5v-16q66 -2 130.5 3.5t130.5 3.5v18q0 5 -10.5 12t-24 14t-26.5 12.5t-18 7.5q16 43 29 87.5t35 84.5h235q6 -12 17 -37.5t22 -53t19.5 -52.5t8.5 -35q0 -14 -18 -18.5t-38 -8.5 t-34 -11.5t-7 -26.5q78 9 155 8t155 -8zM478 284h-203q7 26 20 58t27 65t28.5 65t26.5 58q28 -60 53 -121.5t48 -124.5z" />
<glyph unicode="&#xc2;" horiz-adv-x="813" d="M519 678q0 8 -11.5 31.5t-26 50t-29 50.5t-20.5 35h-50l-89 -165l4 -4h5l95 105q29 -27 57 -54.5t59 -51.5zM776 -7q-1 8 -2.5 17t-9.5 13q-9 4 -21.5 7.5t-26 6.5t-27 6.5t-23.5 7.5q-21 52 -41.5 103.5t-42.5 102.5q-9 20 -19 40.5t-18 40.5q-18 42 -34.5 84.5 t-32.5 85.5q-10 27 -18 54t-18 54q-4 10 -8 16t-15 8q-5 1 -15.5 -1.5t-22 -6t-22.5 -7.5t-15 -7l-3 -6q2 -7 9 -19.5t7 -16.5q0 -1 -12.5 -29.5t-32 -72.5t-42.5 -96.5t-44 -100.5t-37 -85.5t-20 -51.5q-4 -11 -6.5 -23t-6 -23t-10 -20t-18.5 -15q-14 -7 -29.5 -13 t-30.5 -10q-5 -1 -14 -3t-17.5 -5t-15 -7.5t-6.5 -11.5v-16q66 -2 130.5 3.5t130.5 3.5v18q0 5 -10.5 12t-24 14t-26.5 12.5t-18 7.5q16 43 29 87.5t35 84.5h235q6 -12 17 -37.5t22 -53t19.5 -52.5t8.5 -35q0 -14 -18 -18.5t-38 -8.5t-34 -11.5t-7 -26.5q78 9 155 8t155 -8z M478 284h-203q7 26 20 58t27 65t28.5 65t26.5 58q28 -60 53 -121.5t48 -124.5z" />
<glyph unicode="&#xc3;" horiz-adv-x="813" d="M547 816h-11q-4 -41 -14 -56.5t-25 -15.5q-14 0 -32 11.5t-37 25t-38.5 25t-37.5 11.5q-24 0 -40 -10.5t-26.5 -27.5t-15 -37.5t-4.5 -40.5h11q1 11 3.5 23t7.5 22.5t14 17t23 6.5q15 0 30 -11t32 -23.5t36 -23.5t42 -11q22 0 37.5 11t25.5 28t14.5 37.5t4.5 38.5z M776 -7q-1 8 -2.5 17t-9.5 13q-9 4 -21.5 7.5t-26 6.5t-27 6.5t-23.5 7.5q-21 52 -41.5 103.5t-42.5 102.5q-9 20 -19 40.5t-18 40.5q-18 42 -34.5 84.5t-32.5 85.5q-10 27 -18 54t-18 54q-4 10 -8 16t-15 8q-5 1 -15.5 -1.5t-22 -6t-22.5 -7.5t-15 -7l-3 -6q2 -7 9 -19.5 t7 -16.5q0 -1 -12.5 -29.5t-32 -72.5t-42.5 -96.5t-44 -100.5t-37 -85.5t-20 -51.5q-4 -11 -6.5 -23t-6 -23t-10 -20t-18.5 -15q-14 -7 -29.5 -13t-30.5 -10q-5 -1 -14 -3t-17.5 -5t-15 -7.5t-6.5 -11.5v-16q66 -2 130.5 3.5t130.5 3.5v18q0 5 -10.5 12t-24 14t-26.5 12.5 t-18 7.5q16 43 29 87.5t35 84.5h235q6 -12 17 -37.5t22 -53t19.5 -52.5t8.5 -35q0 -14 -18 -18.5t-38 -8.5t-34 -11.5t-7 -26.5q78 9 155 8t155 -8zM478 284h-203q7 26 20 58t27 65t28.5 65t26.5 58q28 -60 53 -121.5t48 -124.5z" />
<glyph unicode="&#xc4;" horiz-adv-x="813" d="M535 756q0 17 -11.5 27.5t-26 12.5t-27.5 -6.5t-16 -30.5q-3 -20 9.5 -30.5t28.5 -11.5t29.5 8.5t13.5 30.5zM359 755q0 20 -12.5 30t-28.5 10q-15 0 -27.5 -10t-12.5 -30q0 -19 12.5 -28.5t27.5 -9.5q16 0 28.5 9t12.5 29zM776 -7q-1 8 -2.5 17t-9.5 13q-9 4 -21.5 7.5 t-26 6.5t-27 6.5t-23.5 7.5q-21 52 -41.5 103.5t-42.5 102.5q-9 20 -19 40.5t-18 40.5q-18 42 -34.5 84.5t-32.5 85.5q-10 27 -18 54t-18 54q-4 10 -8 16t-15 8q-5 1 -15.5 -1.5t-22 -6t-22.5 -7.5t-15 -7l-3 -6q2 -7 9 -19.5t7 -16.5q0 -1 -12.5 -29.5t-32 -72.5 t-42.5 -96.5t-44 -100.5t-37 -85.5t-20 -51.5q-4 -11 -6.5 -23t-6 -23t-10 -20t-18.5 -15q-14 -7 -29.5 -13t-30.5 -10q-5 -1 -14 -3t-17.5 -5t-15 -7.5t-6.5 -11.5v-16q66 -2 130.5 3.5t130.5 3.5v18q0 5 -10.5 12t-24 14t-26.5 12.5t-18 7.5q16 43 29 87.5t35 84.5h235 q6 -12 17 -37.5t22 -53t19.5 -52.5t8.5 -35q0 -14 -18 -18.5t-38 -8.5t-34 -11.5t-7 -26.5q78 9 155 8t155 -8zM478 284h-203q7 26 20 58t27 65t28.5 65t26.5 58q28 -60 53 -121.5t48 -124.5z" />
<glyph unicode="&#xc5;" horiz-adv-x="813" d="M487 759q0 27 -12 44.5t-30 26.5t-39 9t-39 -9t-30 -26.5t-12 -44.5t12 -44.5t30 -26.5t39 -9t39 9t30 26.5t12 44.5zM458 759q0 -26 -16.5 -39t-36 -12.5t-35.5 13.5t-16 38t16 38t35.5 13.5t36 -12.5t16.5 -39zM776 -7q-1 8 -2.5 17t-9.5 13q-9 4 -21.5 7.5t-26 6.5 t-27 6.5t-23.5 7.5q-21 52 -41.5 103.5t-42.5 102.5q-9 20 -19 40.5t-18 40.5q-18 42 -34.5 84.5t-32.5 85.5q-10 27 -18 54t-18 54q-4 10 -8 16t-15 8q-5 1 -15.5 -1.5t-22 -6t-22.5 -7.5t-15 -7l-3 -6q2 -7 9 -19.5t7 -16.5q0 -1 -12.5 -29.5t-32 -72.5t-42.5 -96.5 t-44 -100.5t-37 -85.5t-20 -51.5q-4 -11 -6.5 -23t-6 -23t-10 -20t-18.5 -15q-14 -7 -29.5 -13t-30.5 -10q-5 -1 -14 -3t-17.5 -5t-15 -7.5t-6.5 -11.5v-16q66 -2 130.5 3.5t130.5 3.5v18q0 5 -10.5 12t-24 14t-26.5 12.5t-18 7.5q16 43 29 87.5t35 84.5h235q6 -12 17 -37.5 t22 -53t19.5 -52.5t8.5 -35q0 -14 -18 -18.5t-38 -8.5t-34 -11.5t-7 -26.5q78 9 155 8t155 -8zM478 284h-203q7 26 20 58t27 65t28.5 65t26.5 58q28 -60 53 -121.5t48 -124.5z" />
<glyph unicode="&#xc6;" horiz-adv-x="1010" d="M972 126q-15 9 -33 9q-8 -18 -19.5 -35t-25.5 -31q-16 -16 -48 -23t-69 -8.5t-72 0t-57 3.5q-18 2 -28.5 8t-10.5 26v224l160 -5q19 -1 30 -1.5t18 -5.5t10.5 -15.5t6.5 -30.5l4 -6h20q4 38 7.5 75.5t1.5 75.5q-8 4 -18 4q-12 -14 -20.5 -24t-18.5 -16t-22.5 -8.5 t-31.5 -2.5q-20 0 -40 -0.5t-40 0.5q-17 1 -35 3t-35 1v239l209 6h16t19.5 -2t17.5 -6t11 -11q5 -14 6 -27.5t8 -26.5l6 -3h28q0 30 -3.5 59.5t-5.5 59.5q-111 -6 -221 -8t-221 0q-23 1 -45 2.5t-45 -0.5q-5 -16 -4 -29q22 -6 44.5 -5.5t45.5 1.5q-70 -109 -139 -216.5 t-143 -213.5q-18 -26 -28 -44t-17.5 -30t-14.5 -20.5t-19.5 -15t-32.5 -14t-53 -17.5v-27q43 4 85.5 5.5t85.5 -0.5q21 -1 42 -4t42 -1q2 8 3.5 15.5t0.5 15.5l-36 6t-36 7q-10 2 -14 6t-4 10t2.5 12.5t6.5 12.5l90 152q58 3 115.5 3.5t115.5 -0.5l-1 -176l-5 -8 q-8 -6 -20.5 -10.5t-26 -9t-26.5 -8.5t-23 -7l-1 -20q38 -2 75 2.5t75 4.5q37 0 73.5 -3t73.5 -4q51 -1 102 -0.5t102 0.5q18 31 28.5 64.5t21.5 66.5zM526 284q-102 1 -204 -3q9 17 19 33.5t21 33.5l143 226q3 5 7 8l8 6l6 1v-305z" />
<glyph unicode="&#xc7;" horiz-adv-x="771" d="M739 150q-19 15 -44 24q-13 -28 -26.5 -55t-34.5 -50q-12 -13 -33.5 -22.5t-46 -15.5t-48.5 -8.5t-42 -2.5q-62 0 -117 20t-96.5 57t-65.5 89.5t-24 116.5q0 69 23.5 123t65 91t98 56t123.5 19q74 0 117 -35t54 -109q15 -3 29 -2v21t-0.5 34t-1.5 39t-3 37t-5 28.5 t-8 12.5q-11 2 -24 2t-25 2q-50 5 -100.5 8t-100 -1t-97.5 -17.5t-92 -40.5q-35 -22 -63.5 -53t-48.5 -67.5t-30.5 -77t-10.5 -82.5q0 -61 26.5 -114t70 -93t98.5 -65t113 -30l86 -7q-44 -50 -96 -90q12 0 28 -3t30 -9.5t24.5 -16.5t10.5 -25q1 -20 -13.5 -32.5t-34.5 -12.5 q-12 0 -21.5 6.5t-18.5 15t-18.5 15t-21.5 6.5q-13 0 -20 -11t-7 -22q0 -18 16 -29t40.5 -14.5t52.5 0t52.5 16t40.5 33t16 49.5q0 16 -3.5 27t-10.5 19t-16.5 15t-21.5 15q13 12 26 24.5t25 25.5q82 9 162 30q40 62 63 136z" />
<glyph unicode="&#xc8;" horiz-adv-x="573" d="M341 677l-87 136q-5 8 -17 16t-25 11t-22.5 -0.5t-9.5 -19.5q0 -9 5.5 -19t13 -19.5t16.5 -17.5t16 -14l102 -80zM548 126q-15 9 -22 9t-11 -5t-6.5 -15t-8.5 -20q-14 -25 -38 -37.5t-51.5 -17.5t-56.5 -5h-54q-10 0 -26.5 -0.5t-32.5 2.5t-27.5 10.5t-11.5 22.5v231 q14 0 45.5 -0.5t65.5 -2t63 -4t38 -8.5q7 -11 10 -24t4 -26l25 -3q5 38 7 77t2 78h-18l-39 -39q-6 -6 -34 -8t-62 -2q-33 0 -64 1t-43 1v248q20 0 56 2t74 2t71.5 -2.5t48.5 -11.5q8 -10 10.5 -22.5t5.5 -23.5t10 -17t24 -3l-8 117q-54 -2 -107.5 -4.5t-107 -4t-107 0 t-107.5 7.5q-3 -17 4.5 -24t18 -10.5t20 -7.5t9.5 -15v-502q0 -14 -12 -24t-28.5 -17.5t-34 -12t-27.5 -8.5v-15q87 6 171 3.5t171 -3.5q16 0 31 2.5t31 1.5q19 -1 37 -2t37 -2l8 4q18 29 28 63t19 66z" />
<glyph unicode="&#xc9;" horiz-adv-x="573" d="M393 816q-1 11 -13 18.5t-22 7.5q-7 0 -18 -10.5t-23.5 -26.5t-26 -35.5t-25.5 -38t-21 -34t-14 -22.5l9 -6l108 87q5 4 13 11.5t15.5 15.5t12.5 17t5 16zM548 126q-15 9 -22 9t-11 -5t-6.5 -15t-8.5 -20q-14 -25 -38 -37.5t-51.5 -17.5t-56.5 -5h-54q-10 0 -26.5 -0.5 t-32.5 2.5t-27.5 10.5t-11.5 22.5v231q14 0 45.5 -0.5t65.5 -2t63 -4t38 -8.5q7 -11 10 -24t4 -26l25 -3q5 38 7 77t2 78h-18l-39 -39q-6 -6 -34 -8t-62 -2q-33 0 -64 1t-43 1v248q20 0 56 2t74 2t71.5 -2.5t48.5 -11.5q8 -10 10.5 -22.5t5.5 -23.5t10 -17t24 -3l-8 117 q-54 -2 -107.5 -4.5t-107 -4t-107 0t-107.5 7.5q-3 -17 4.5 -24t18 -10.5t20 -7.5t9.5 -15v-502q0 -14 -12 -24t-28.5 -17.5t-34 -12t-27.5 -8.5v-15q87 6 171 3.5t171 -3.5q16 0 31 2.5t31 1.5q19 -1 37 -2t37 -2l8 4q18 29 28 63t19 66z" />
<glyph unicode="&#xca;" horiz-adv-x="573" d="M399 678q0 8 -11.5 31.5t-26 50t-29 50.5t-20.5 35h-50l-89 -165l4 -4h5l95 105q29 -27 57 -54.5t59 -51.5zM548 126q-15 9 -22 9t-11 -5t-6.5 -15t-8.5 -20q-14 -25 -38 -37.5t-51.5 -17.5t-56.5 -5h-54q-10 0 -26.5 -0.5t-32.5 2.5t-27.5 10.5t-11.5 22.5v231 q14 0 45.5 -0.5t65.5 -2t63 -4t38 -8.5q7 -11 10 -24t4 -26l25 -3q5 38 7 77t2 78h-18l-39 -39q-6 -6 -34 -8t-62 -2q-33 0 -64 1t-43 1v248q20 0 56 2t74 2t71.5 -2.5t48.5 -11.5q8 -10 10.5 -22.5t5.5 -23.5t10 -17t24 -3l-8 117q-54 -2 -107.5 -4.5t-107 -4t-107 0 t-107.5 7.5q-3 -17 4.5 -24t18 -10.5t20 -7.5t9.5 -15v-502q0 -14 -12 -24t-28.5 -17.5t-34 -12t-27.5 -8.5v-15q87 6 171 3.5t171 -3.5q16 0 31 2.5t31 1.5q19 -1 37 -2t37 -2l8 4q18 29 28 63t19 66z" />
<glyph unicode="&#xcb;" horiz-adv-x="573" d="M415 756q0 17 -11.5 27.5t-26 12.5t-27.5 -6.5t-16 -30.5q-3 -20 9.5 -30.5t28.5 -11.5t29.5 8.5t13.5 30.5zM239 755q0 20 -12.5 30t-28.5 10q-15 0 -27.5 -10t-12.5 -30q0 -19 12.5 -28.5t27.5 -9.5q16 0 28.5 9t12.5 29zM548 126q-15 9 -22 9t-11 -5t-6.5 -15 t-8.5 -20q-14 -25 -38 -37.5t-51.5 -17.5t-56.5 -5h-54q-10 0 -26.5 -0.5t-32.5 2.5t-27.5 10.5t-11.5 22.5v231q14 0 45.5 -0.5t65.5 -2t63 -4t38 -8.5q7 -11 10 -24t4 -26l25 -3q5 38 7 77t2 78h-18l-39 -39q-6 -6 -34 -8t-62 -2q-33 0 -64 1t-43 1v248q20 0 56 2t74 2 t71.5 -2.5t48.5 -11.5q8 -10 10.5 -22.5t5.5 -23.5t10 -17t24 -3l-8 117q-54 -2 -107.5 -4.5t-107 -4t-107 0t-107.5 7.5q-3 -17 4.5 -24t18 -10.5t20 -7.5t9.5 -15v-502q0 -14 -12 -24t-28.5 -17.5t-34 -12t-27.5 -8.5v-15q87 6 171 3.5t171 -3.5q16 0 31 2.5t31 1.5 q19 -1 37 -2t37 -2l8 4q18 29 28 63t19 66z" />
<glyph unicode="&#xcc;" d="M221 677l-87 136q-5 8 -17 16t-25 11t-22.5 -0.5t-9.5 -19.5q0 -9 5.5 -19t13 -19.5t16.5 -17.5t16 -14l102 -80zM304 619q-41 -4 -81.5 -6t-81.5 1q-27 2 -53.5 3.5t-53.5 1.5l-2 -15q22 -11 44 -19.5t45 -14.5v-428q0 -6 -0.5 -19.5t-1 -27.5t-2 -26.5t-4.5 -16.5 q-6 -10 -19 -15.5t-26.5 -10t-24 -10.5t-11.5 -18h268v13q-6 2 -19.5 7.5t-28 11.5t-26.5 13t-13 12q-3 11 -5 52t-3 97t-1 119v116q0 54 1 90t2 40q3 3 16 6.5t28 8t29.5 8t21.5 6.5z" />
<glyph unicode="&#xcd;" d="M273 816q-1 11 -13 18.5t-22 7.5q-7 0 -18 -10.5t-23.5 -26.5t-26 -35.5t-25.5 -38t-21.5 -34t-13.5 -22.5l9 -6l108 87q5 4 13 11.5t15.5 15.5t12.5 17t5 16zM304 619q-41 -4 -81.5 -6t-81.5 1q-27 2 -53.5 3.5t-53.5 1.5l-2 -15q22 -11 44 -19.5t45 -14.5v-428 q0 -6 -0.5 -19.5t-1 -27.5t-2 -26.5t-4.5 -16.5q-6 -10 -19 -15.5t-26.5 -10t-24 -10.5t-11.5 -18h268v13q-6 2 -19.5 7.5t-28 11.5t-26.5 13t-13 12q-3 11 -5 52t-3 97t-1 119v116q0 54 1 90t2 40q3 3 16 6.5t28 8t29.5 8t21.5 6.5z" />
<glyph unicode="&#xce;" d="M279 678q0 8 -11.5 31.5t-26 50t-29 50.5t-20.5 35h-50l-89 -165l4 -4h5l95 105q29 -27 57 -54.5t59 -51.5zM304 619q-41 -4 -81.5 -6t-81.5 1q-27 2 -53.5 3.5t-53.5 1.5l-2 -15q22 -11 44 -19.5t45 -14.5v-428q0 -6 -0.5 -19.5t-1 -27.5t-2 -26.5t-4.5 -16.5 q-6 -10 -19 -15.5t-26.5 -10t-24 -10.5t-11.5 -18h268v13q-6 2 -19.5 7.5t-28 11.5t-26.5 13t-13 12q-3 11 -5 52t-3 97t-1 119v116q0 54 1 90t2 40q3 3 16 6.5t28 8t29.5 8t21.5 6.5z" />
<glyph unicode="&#xcf;" d="M295 756q0 17 -11.5 27.5t-26 12.5t-27.5 -6.5t-16 -30.5q-3 -20 9.5 -30.5t28.5 -11.5t29.5 8.5t13.5 30.5zM119 755q0 20 -12.5 30t-28.5 10q-15 0 -27.5 -10t-12.5 -30q0 -19 12.5 -28.5t27.5 -9.5q16 0 28.5 9t12.5 29zM304 619q-41 -4 -81.5 -6t-81.5 1 q-27 2 -53.5 3.5t-53.5 1.5l-2 -15q22 -11 44 -19.5t45 -14.5v-428q0 -6 -0.5 -19.5t-1 -27.5t-2 -26.5t-4.5 -16.5q-6 -10 -19 -15.5t-26.5 -10t-24 -10.5t-11.5 -18h268v13q-6 2 -19.5 7.5t-28 11.5t-26.5 13t-13 12q-3 11 -5 52t-3 97t-1 119v116q0 54 1 90t2 40 q3 3 16 6.5t28 8t29.5 8t21.5 6.5z" />
<glyph unicode="&#xd0;" horiz-adv-x="771" d="M720 331q0 75 -28 131t-75.5 93t-110 55.5t-131.5 18.5q-55 0 -109.5 -5t-108.5 -11q-17 -2 -34 -3.5t-34 -4.5q-14 -3 -23.5 -9t-9.5 -23q0 -7 9.5 -10.5t21.5 -4.5t23.5 -0.5t16.5 0.5v-230h-82v-32h82q0 -9 0.5 -28.5t1 -44.5t0.5 -52t-1 -50t-3 -40t-5 -21t-13.5 -7 t-23 -5t-24 -3.5t-16.5 -2.5q-5 -14 -4 -27t21 -13l262 -4q39 -1 79 2t78 12t73 26.5t65 46.5q49 48 76 112.5t27 133.5zM543 511q42 -44 63 -95.5t22.5 -103.5t-15 -100.5t-50 -86t-83.5 -60t-115 -22.5q-14 0 -39.5 3t-51 10.5t-44 20t-18.5 32.5v187h197v33h-197v244 q28 9 56.5 12t57.5 3q34 0 63 -2.5t55 -10.5t50.5 -23.5t48.5 -40.5z" />
<glyph unicode="&#xd1;" horiz-adv-x="771" d="M526 816h-11q-4 -41 -14 -56.5t-25 -15.5q-14 0 -32 11.5t-37 25t-38.5 25t-37.5 11.5q-24 0 -40 -10.5t-26.5 -27.5t-15 -37.5t-4.5 -40.5h11q1 11 3.5 23t7.5 22.5t14 17t23 6.5q15 0 30 -11t32 -23.5t36 -23.5t42 -11q22 0 37.5 11t25.5 28t14.5 37.5t4.5 38.5z M747 612l-7 4q-19 0 -37.5 0.5t-37.5 -0.5q-11 -1 -20.5 -2.5t-20.5 -1.5q-31 0 -62 4t-62 0q-4 -11 -1 -20l8 -5q12 -2 27 -6t27.5 -11t21 -17.5t8.5 -26.5q0 -47 2.5 -92.5t3.5 -92.5q1 -18 0 -36t0 -36q1 -32 4 -64t1 -64q-33 34 -63.5 70t-62.5 71q-55 60 -110.5 119 t-109.5 120q-10 11 -24 21t-19 24q1 7 7.5 11t12 8t7 9.5t-6.5 15.5q-13 3 -25 1t-25 -2q-35 0 -68.5 5.5t-68.5 10.5l-1 -31q14 -3 27.5 -6t25.5 -10q15 -8 22.5 -25t10.5 -36.5t3 -39.5v-34l5 -372q0 -20 -15 -28t-33 -13t-32.5 -12.5t-14.5 -25.5q29 2 57 4t57 1 q34 -1 67 -6t67 -3l8 21q-14 11 -29.5 17.5t-32.5 12.5q-18 7 -28 14t-14.5 16.5t-5 22t0.5 30.5l2 44t1 44q0 68 -4.5 134.5t-2.5 134.5q26 -22 45 -47.5t41 -50.5l352 -397l22 -6l7 6v556q0 13 10.5 20t24.5 10.5t28 6t22 5.5q8 4 8.5 11t-0.5 15z" />
<glyph unicode="&#xd2;" horiz-adv-x="813" d="M461 677l-87 136q-5 8 -17 16t-25 11t-22.5 -0.5t-9.5 -19.5q0 -9 5.5 -19t13 -19.5t16.5 -17.5t16 -14l102 -80zM758 308q0 68 -27 127.5t-72.5 104t-106.5 70t-128 25.5q-68 0 -134.5 -26t-118.5 -71t-84 -106.5t-32 -133.5q0 -71 26.5 -128.5t72 -99t106 -64 t128.5 -22.5q69 0 135 23t118.5 65.5t84.5 102t32 133.5zM665 301q0 -82 -36 -150t-111 -105q-23 -11 -46.5 -17.5t-48.5 -6.5q-49 0 -93.5 18t-80 49t-60.5 72t-35 88q-5 20 -5 40t-1 40q0 7 -0.5 13t-0.5 13q0 51 20.5 95t55.5 77t80.5 51.5t95.5 18.5q27 0 54 -8t51 -20 q80 -40 120.5 -110t40.5 -158z" />
<glyph unicode="&#xd3;" horiz-adv-x="813" d="M513 816q-1 11 -13 18.5t-22 7.5q-7 0 -18 -10.5t-23.5 -26.5t-26 -35.5t-25.5 -38t-21.5 -34t-13.5 -22.5l9 -6l108 87q5 4 13 11.5t15.5 15.5t12.5 17t5 16zM758 308q0 68 -27 127.5t-72.5 104t-106.5 70t-128 25.5q-68 0 -134.5 -26t-118.5 -71t-84 -106.5t-32 -133.5 q0 -71 26.5 -128.5t72 -99t106 -64t128.5 -22.5q69 0 135 23t118.5 65.5t84.5 102t32 133.5zM665 301q0 -82 -36 -150t-111 -105q-23 -11 -46.5 -17.5t-48.5 -6.5q-49 0 -93.5 18t-80 49t-60.5 72t-35 88q-5 20 -5 40t-1 40q0 7 -0.5 13t-0.5 13q0 51 20.5 95t55.5 77 t80.5 51.5t95.5 18.5q27 0 54 -8t51 -20q80 -40 120.5 -110t40.5 -158z" />
<glyph unicode="&#xd4;" horiz-adv-x="813" d="M519 678q0 8 -11.5 31.5t-26 50t-29 50.5t-20.5 35h-50l-89 -165l4 -4h5l95 105q29 -27 57 -54.5t59 -51.5zM758 308q0 68 -27 127.5t-72.5 104t-106.5 70t-128 25.5q-68 0 -134.5 -26t-118.5 -71t-84 -106.5t-32 -133.5q0 -71 26.5 -128.5t72 -99t106 -64t128.5 -22.5 q69 0 135 23t118.5 65.5t84.5 102t32 133.5zM665 301q0 -82 -36 -150t-111 -105q-23 -11 -46.5 -17.5t-48.5 -6.5q-49 0 -93.5 18t-80 49t-60.5 72t-35 88q-5 20 -5 40t-1 40q0 7 -0.5 13t-0.5 13q0 51 20.5 95t55.5 77t80.5 51.5t95.5 18.5q27 0 54 -8t51 -20 q80 -40 120.5 -110t40.5 -158z" />
<glyph unicode="&#xd5;" horiz-adv-x="813" d="M547 816h-11q-4 -41 -14 -56.5t-25 -15.5q-14 0 -32 11.5t-37 25t-38.5 25t-37.5 11.5q-24 0 -40 -10.5t-26.5 -27.5t-15 -37.5t-4.5 -40.5h11q1 11 3.5 23t7.5 22.5t14 17t23 6.5q15 0 30 -11t32 -23.5t36 -23.5t42 -11q22 0 37.5 11t25.5 28t14.5 37.5t4.5 38.5z M758 308q0 68 -27 127.5t-72.5 104t-106.5 70t-128 25.5q-68 0 -134.5 -26t-118.5 -71t-84 -106.5t-32 -133.5q0 -71 26.5 -128.5t72 -99t106 -64t128.5 -22.5q69 0 135 23t118.5 65.5t84.5 102t32 133.5zM665 301q0 -82 -36 -150t-111 -105q-23 -11 -46.5 -17.5t-48.5 -6.5 q-49 0 -93.5 18t-80 49t-60.5 72t-35 88q-5 20 -5 40t-1 40q0 7 -0.5 13t-0.5 13q0 51 20.5 95t55.5 77t80.5 51.5t95.5 18.5q27 0 54 -8t51 -20q80 -40 120.5 -110t40.5 -158z" />
<glyph unicode="&#xd6;" horiz-adv-x="813" d="M535 756q0 17 -11.5 27.5t-26 12.5t-27.5 -6.5t-16 -30.5q-3 -20 9.5 -30.5t28.5 -11.5t29.5 8.5t13.5 30.5zM359 755q0 20 -12.5 30t-28.5 10q-15 0 -27.5 -10t-12.5 -30q0 -19 12.5 -28.5t27.5 -9.5q16 0 28.5 9t12.5 29zM758 308q0 68 -27 127.5t-72.5 104t-106.5 70 t-128 25.5q-68 0 -134.5 -26t-118.5 -71t-84 -106.5t-32 -133.5q0 -71 26.5 -128.5t72 -99t106 -64t128.5 -22.5q69 0 135 23t118.5 65.5t84.5 102t32 133.5zM665 301q0 -82 -36 -150t-111 -105q-23 -11 -46.5 -17.5t-48.5 -6.5q-49 0 -93.5 18t-80 49t-60.5 72t-35 88 q-5 20 -5 40t-1 40q0 7 -0.5 13t-0.5 13q0 51 20.5 95t55.5 77t80.5 51.5t95.5 18.5q27 0 54 -8t51 -20q80 -40 120.5 -110t40.5 -158z" />
<glyph unicode="&#xd7;" horiz-adv-x="667" d="M572 528l-30 30l-208 -208l-208 208l-30 -30l208 -209l-207 -205l30 -31l207 206l206 -206l30 31l-206 205z" />
<glyph unicode="&#xd8;" horiz-adv-x="813" d="M696 617l-25 20l-52 -59q-50 25 -96 41t-103 16q-68 0 -134 -26.5t-117.5 -72.5t-83.5 -108t-32 -133q0 -69 30 -132t87 -104l-60 -70l26 -20l59 68q64 -37 131.5 -47.5t130 0t118 39.5t97 72t65.5 96.5t23.5 113t-28 122t-88.5 123.5zM670 299q0 -58 -19 -107t-51.5 -86 t-75.5 -59t-90.5 -25.5t-96.5 13.5t-94 58l353 407q38 -44 56 -93.5t18 -107.5zM573 525l-353 -409q-39 44 -58 97.5t-19.5 107t16.5 103.5t50.5 88.5t83.5 62t114 23.5q22 0 44 -7t43.5 -17.5t41.5 -23.5t37 -25z" />
<glyph unicode="&#xd9;" horiz-adv-x="813" d="M461 677l-87 136q-5 8 -17 16t-25 11t-22.5 -0.5t-9.5 -19.5q0 -9 5.5 -19t13 -19.5t16.5 -17.5t16 -14l102 -80zM775 599l-3 22q-28 -3 -55 -7.5t-55 -4.5t-55.5 5t-55.5 6l-4 -20q38 -11 58 -20t29 -22.5t10.5 -35.5t1.5 -61q0 -37 4.5 -85.5t6 -98t-4.5 -94.5t-28 -76 q-20 -27 -39 -44t-41 -26.5t-47.5 -12.5t-57.5 -3q-59 0 -105.5 13.5t-86.5 59.5q-17 18 -23.5 49t-8 65.5t0 68.5t1.5 58q0 23 -1 45.5t-1 45.5q0 30 1.5 61.5t1.5 62.5q0 12 8 20q3 3 15 7t26 7t27 5.5t19 4.5q4 10 2 26q-32 -2 -62.5 -7t-62.5 -3l-157 10l1 -22 q8 -2 19.5 -4t23.5 -5.5t23 -8t17 -9.5q10 -8 10.5 -17.5t0.5 -21.5q1 -30 3 -59.5t2 -59.5q1 -50 -0.5 -99.5t-2.5 -99.5q0 -40 8.5 -76t33.5 -68t52.5 -49.5t58 -26t64 -10.5t70.5 -2q28 0 54.5 1.5t51 7t48 17t45.5 31.5q46 41 61.5 93.5t15.5 112.5q0 37 -1 73.5 t-5 73.5q-2 13 -3 26t-1 26q1 26 1 50q0 25 1 51q0 12 11 21t25.5 15t29.5 10.5t24 7.5z" />
<glyph unicode="&#xda;" horiz-adv-x="813" d="M513 816q-1 11 -13 18.5t-22 7.5q-7 0 -18 -10.5t-23.5 -26.5t-26 -35.5t-25.5 -38t-21.5 -34t-13.5 -22.5l9 -6l108 87q5 4 13 11.5t15.5 15.5t12.5 17t5 16zM775 599l-3 22q-28 -3 -55 -7.5t-55 -4.5t-55.5 5t-55.5 6l-4 -20q38 -11 58 -20t29 -22.5t10.5 -35.5 t1.5 -61q0 -37 4.5 -85.5t6 -98t-4.5 -94.5t-28 -76q-20 -27 -39 -44t-41 -26.5t-47.5 -12.5t-57.5 -3q-59 0 -105.5 13.5t-86.5 59.5q-17 18 -23.5 49t-8 65.5t0 68.5t1.5 58q0 23 -1 45.5t-1 45.5q0 30 1.5 61.5t1.5 62.5q0 12 8 20q3 3 15 7t26 7t27 5.5t19 4.5 q4 10 2 26q-32 -2 -62.5 -7t-62.5 -3l-157 10l1 -22q8 -2 19.5 -4t23.5 -5.5t23 -8t17 -9.5q10 -8 10.5 -17.5t0.5 -21.5q1 -30 3 -59.5t2 -59.5q1 -50 -0.5 -99.5t-2.5 -99.5q0 -40 8.5 -76t33.5 -68t52.5 -49.5t58 -26t64 -10.5t70.5 -2q28 0 54.5 1.5t51 7t48 17 t45.5 31.5q46 41 61.5 93.5t15.5 112.5q0 37 -1 73.5t-5 73.5q-2 13 -3 26t-1 26q1 26 1 50q0 25 1 51q0 12 11 21t25.5 15t29.5 10.5t24 7.5z" />
<glyph unicode="&#xdb;" horiz-adv-x="813" d="M519 678q0 8 -11.5 31.5t-26 50t-29 50.5t-20.5 35h-50l-89 -165l4 -4h5l95 105q29 -27 57 -54.5t59 -51.5zM775 599l-3 22q-28 -3 -55 -7.5t-55 -4.5t-55.5 5t-55.5 6l-4 -20q38 -11 58 -20t29 -22.5t10.5 -35.5t1.5 -61q0 -37 4.5 -85.5t6 -98t-4.5 -94.5t-28 -76 q-20 -27 -39 -44t-41 -26.5t-47.5 -12.5t-57.5 -3q-59 0 -105.5 13.5t-86.5 59.5q-17 18 -23.5 49t-8 65.5t0 68.5t1.5 58q0 23 -1 45.5t-1 45.5q0 30 1.5 61.5t1.5 62.5q0 12 8 20q3 3 15 7t26 7t27 5.5t19 4.5q4 10 2 26q-32 -2 -62.5 -7t-62.5 -3l-157 10l1 -22 q8 -2 19.5 -4t23.5 -5.5t23 -8t17 -9.5q10 -8 10.5 -17.5t0.5 -21.5q1 -30 3 -59.5t2 -59.5q1 -50 -0.5 -99.5t-2.5 -99.5q0 -40 8.5 -76t33.5 -68t52.5 -49.5t58 -26t64 -10.5t70.5 -2q28 0 54.5 1.5t51 7t48 17t45.5 31.5q46 41 61.5 93.5t15.5 112.5q0 37 -1 73.5 t-5 73.5q-2 13 -3 26t-1 26q1 26 1 50q0 25 1 51q0 12 11 21t25.5 15t29.5 10.5t24 7.5z" />
<glyph unicode="&#xdc;" horiz-adv-x="813" d="M535 756q0 17 -11.5 27.5t-26 12.5t-27.5 -6.5t-16 -30.5q-3 -20 9.5 -30.5t28.5 -11.5t29.5 8.5t13.5 30.5zM359 755q0 20 -12.5 30t-28.5 10q-15 0 -27.5 -10t-12.5 -30q0 -19 12.5 -28.5t27.5 -9.5q16 0 28.5 9t12.5 29zM775 599l-3 22q-28 -3 -55 -7.5t-55 -4.5 t-55.5 5t-55.5 6l-4 -20q38 -11 58 -20t29 -22.5t10.5 -35.5t1.5 -61q0 -37 4.5 -85.5t6 -98t-4.5 -94.5t-28 -76q-20 -27 -39 -44t-41 -26.5t-47.5 -12.5t-57.5 -3q-59 0 -105.5 13.5t-86.5 59.5q-17 18 -23.5 49t-8 65.5t0 68.5t1.5 58q0 23 -1 45.5t-1 45.5 q0 30 1.5 61.5t1.5 62.5q0 12 8 20q3 3 15 7t26 7t27 5.5t19 4.5q4 10 2 26q-32 -2 -62.5 -7t-62.5 -3l-157 10l1 -22q8 -2 19.5 -4t23.5 -5.5t23 -8t17 -9.5q10 -8 10.5 -17.5t0.5 -21.5q1 -30 3 -59.5t2 -59.5q1 -50 -0.5 -99.5t-2.5 -99.5q0 -40 8.5 -76t33.5 -68 t52.5 -49.5t58 -26t64 -10.5t70.5 -2q28 0 54.5 1.5t51 7t48 17t45.5 31.5q46 41 61.5 93.5t15.5 112.5q0 37 -1 73.5t-5 73.5q-2 13 -3 26t-1 26q1 26 1 50q0 25 1 51q0 12 11 21t25.5 15t29.5 10.5t24 7.5z" />
<glyph unicode="&#xdd;" horiz-adv-x="677" d="M445 816q-1 11 -13 18.5t-22 7.5q-7 0 -18 -10.5t-23.5 -26.5t-26 -35.5t-25.5 -38t-21.5 -34t-13.5 -22.5l9 -6l108 87q5 4 13 11.5t15.5 15.5t12.5 17t5 16zM662 577q1 7 2 13.5t0 12t-5 9t-14 3.5q-20 1 -41 -0.5t-41 -1.5q-22 0 -43.5 1.5t-43.5 1.5q-15 0 -21.5 -4 t-5.5 -21q5 -3 18 -6t27 -7t25 -9t11 -10q0 -11 -5 -24t-12.5 -26t-15.5 -25t-14 -22q-28 -45 -54.5 -90.5t-57.5 -88.5l-124 214l-16 26t-8 29q0 15 6 21.5t15 8t19 1.5q11 0 20 2t15 9t6 22q-10 -1 -19 1t-18 3q-20 2 -38.5 -2t-38.5 -5t-39 -0.5t-39 0.5t-39 4t-38 -1 q-2 -6 -2.5 -14t3.5 -13q5 -1 15.5 -2.5t21.5 -3.5t20.5 -4.5t12.5 -4.5q8 -5 12.5 -13.5t9.5 -16.5q14 -25 28 -48t29 -47q26 -42 49.5 -84t48.5 -84q9 -16 13.5 -27t5.5 -30l4 -139q1 -23 -15 -31.5t-35.5 -14.5t-36.5 -13.5t-19 -27.5l4 -6q3 0 6.5 -0.5t6.5 -0.5 q55 2 109.5 6.5t109.5 3.5q16 0 31.5 -5t31.5 -5q11 0 13 6.5t1 14.5l-63 25q-16 6 -27.5 12t-18 14.5t-9.5 20.5t-2 30l4 123q1 14 10.5 28t17.5 25q17 22 31.5 45.5t28.5 47.5q23 38 47 75.5t44 77.5q8 16 16.5 24t18.5 11.5t22.5 4t28.5 1.5z" />
<glyph unicode="&#xde;" horiz-adv-x="573" d="M516 322q0 51 -24 87.5t-61.5 60.5t-83.5 35t-90 11h-50q-1 27 -1 42q0 16 6 24t20.5 11t43.5 5l6 24q-61 -4 -122 -4t-122 5l7 -25q17 -3 32.5 -5.5t32.5 -5.5q6 -6 9 -43.5t4 -92.5t0.5 -119t-1.5 -122.5t-3 -103.5t-4 -61q-20 -10 -41.5 -17t-44.5 -11l7 -22 q49 7 98 7q50 0 100 -2q20 -1 38.5 -3.5t38.5 -1.5v24q-14 4 -32.5 8t-35 11t-28 18.5t-11.5 30.5v33h116q40 0 75.5 17t62.5 45t42.5 64.5t15.5 75.5zM381 197q-19 -19 -40 -28t-43.5 -12t-46 -2t-47.5 1v337h55q38 0 70 -14.5t54.5 -38t35 -54.5t13.5 -64t-11.5 -65.5 t-39.5 -59.5z" />
<glyph unicode="&#xdf;" horiz-adv-x="479" d="M442 190q0 39 -10 66.5t-28 48.5t-44 36.5t-58 30.5q26 13 46.5 27t34.5 31.5t21.5 40.5t7.5 55q0 34 -12 63t-33.5 49.5t-50.5 32t-63 11.5q-47 0 -80.5 -15.5t-55 -42.5t-31.5 -64t-10 -80v-409q0 -19 -8 -25.5t-25 -10.5l-12 -10v-14l3 -7l6 -4q37 -1 74 -0.5t74 3.5 q7 15 5 23t-8.5 12t-17 6t-20.5 5v481q0 21 6.5 42t18.5 38.5t30 28t42 10.5q38 0 62 -26t33.5 -62.5t4 -75t-27.5 -62.5q-18 -20 -42.5 -33.5t-51.5 -13.5v-25q40 0 67.5 -12.5t45 -35t25.5 -53.5t8 -67q0 -12 -1 -28t-4 -32.5t-8 -31.5t-12 -25q-12 -17 -19.5 -21t-15 -3 t-16 5t-23.5 4q-10 0 -17.5 -7t-7.5 -17q0 -15 12 -22.5t26 -7.5q36 0 65.5 18t50.5 46t32.5 62t11.5 67z" />
<glyph unicode="&#xe0;" horiz-adv-x="385" d="M247 445l-87 136q-5 8 -17 16t-25 11t-22.5 -0.5t-9.5 -19.5q0 -9 5.5 -19t13 -19.5t16.5 -17.5t16 -14l102 -80zM369 61q-9 -3 -22.5 -9.5t-26 -9t-21 2t-8.5 24.5v205q0 56 -18.5 83.5t-45.5 34.5t-59.5 -2.5t-59.5 -26t-45.5 -37t-18.5 -35.5q0 -17 13 -20t24 8 q10 10 19 22.5t19 23.5t22 18.5t29 7.5q31 0 42 -21.5t11 -47.5q0 -6 0.5 -21t0.5 -31q0 -15 -0.5 -28.5t-2.5 -17.5q-25 -4 -58.5 -10t-63.5 -18.5t-51 -33.5t-21 -55q0 -18 7 -32.5t19 -25.5t27.5 -17t32.5 -6q13 0 27.5 5t29.5 12.5t28.5 16t24.5 15.5l5 -3 q8 -17 17.5 -31.5t31.5 -14.5q24 0 46.5 11t42.5 22q2 11 3.5 21t-0.5 21zM225 162q3 -23 1.5 -49.5t-6.5 -49.5q-2 -11 -16 -16.5t-31.5 -6.5t-33 3t-21.5 12q-2 3 -4.5 6.5t-4.5 7.5q-4 23 6.5 39t28.5 27t39 17.5t38 11.5z" />
<glyph unicode="&#xe1;" horiz-adv-x="385" d="M299 584q-1 11 -13 18.5t-22 7.5q-7 0 -18 -10.5t-23.5 -26.5t-26 -35.5t-25.5 -38t-21.5 -34t-13.5 -22.5l9 -6l108 87q5 4 13 11.5t15.5 15.5t12.5 17t5 16zM369 61q-9 -3 -22.5 -9.5t-26 -9t-21 2t-8.5 24.5v205q0 56 -18.5 83.5t-45.5 34.5t-59.5 -2.5t-59.5 -26 t-45.5 -37t-18.5 -35.5q0 -17 13 -20t24 8q10 10 19 22.5t19 23.5t22 18.5t29 7.5q31 0 42 -21.5t11 -47.5q0 -6 0.5 -21t0.5 -31q0 -15 -0.5 -28.5t-2.5 -17.5q-25 -4 -58.5 -10t-63.5 -18.5t-51 -33.5t-21 -55q0 -18 7 -32.5t19 -25.5t27.5 -17t32.5 -6q13 0 27.5 5 t29.5 12.5t28.5 16t24.5 15.5l5 -3q8 -17 17.5 -31.5t31.5 -14.5q24 0 46.5 11t42.5 22q2 11 3.5 21t-0.5 21zM225 162q3 -23 1.5 -49.5t-6.5 -49.5q-2 -11 -16 -16.5t-31.5 -6.5t-33 3t-21.5 12q-2 3 -4.5 6.5t-4.5 7.5q-4 23 6.5 39t28.5 27t39 17.5t38 11.5z" />
<glyph unicode="&#xe2;" horiz-adv-x="385" d="M295 446q0 8 -11.5 31.5t-26 50t-29 50.5t-20.5 35h-50l-89 -165l4 -4h5l95 105q29 -27 57 -54.5t59 -51.5zM369 61q-9 -3 -22.5 -9.5t-26 -9t-21 2t-8.5 24.5v205q0 56 -18.5 83.5t-45.5 34.5t-59.5 -2.5t-59.5 -26t-45.5 -37t-18.5 -35.5q0 -17 13 -20t24 8 q10 10 19 22.5t19 23.5t22 18.5t29 7.5q31 0 42 -21.5t11 -47.5q0 -6 0.5 -21t0.5 -31q0 -15 -0.5 -28.5t-2.5 -17.5q-25 -4 -58.5 -10t-63.5 -18.5t-51 -33.5t-21 -55q0 -18 7 -32.5t19 -25.5t27.5 -17t32.5 -6q13 0 27.5 5t29.5 12.5t28.5 16t24.5 15.5l5 -3 q8 -17 17.5 -31.5t31.5 -14.5q24 0 46.5 11t42.5 22q2 11 3.5 21t-0.5 21zM225 162q3 -23 1.5 -49.5t-6.5 -49.5q-2 -11 -16 -16.5t-31.5 -6.5t-33 3t-21.5 12q-2 3 -4.5 6.5t-4.5 7.5q-4 23 6.5 39t28.5 27t39 17.5t38 11.5z" />
<glyph unicode="&#xe3;" horiz-adv-x="385" d="M333 584h-11q-4 -41 -14 -56.5t-25 -15.5q-14 0 -32 11.5t-37 25t-38.5 25t-37.5 11.5q-24 0 -40 -10.5t-26.5 -27.5t-15 -37.5t-4.5 -40.5h11q1 11 3.5 23t7.5 22.5t14 17t23 6.5q15 0 30 -11t32 -23.5t36 -23.5t42 -11q22 0 37.5 11t25.5 28t14.5 37.5t4.5 38.5z M369 61q-9 -3 -22.5 -9.5t-26 -9t-21 2t-8.5 24.5v205q0 56 -18.5 83.5t-45.5 34.5t-59.5 -2.5t-59.5 -26t-45.5 -37t-18.5 -35.5q0 -17 13 -20t24 8q10 10 19 22.5t19 23.5t22 18.5t29 7.5q31 0 42 -21.5t11 -47.5q0 -6 0.5 -21t0.5 -31q0 -15 -0.5 -28.5t-2.5 -17.5 q-25 -4 -58.5 -10t-63.5 -18.5t-51 -33.5t-21 -55q0 -18 7 -32.5t19 -25.5t27.5 -17t32.5 -6q13 0 27.5 5t29.5 12.5t28.5 16t24.5 15.5l5 -3q8 -17 17.5 -31.5t31.5 -14.5q24 0 46.5 11t42.5 22q2 11 3.5 21t-0.5 21zM225 162q3 -23 1.5 -49.5t-6.5 -49.5q-2 -11 -16 -16.5 t-31.5 -6.5t-33 3t-21.5 12q-2 3 -4.5 6.5t-4.5 7.5q-4 23 6.5 39t28.5 27t39 17.5t38 11.5z" />
<glyph unicode="&#xe4;" horiz-adv-x="385" d="M311 524q0 17 -11.5 27.5t-26 12.5t-27.5 -6.5t-16 -30.5q-3 -20 9.5 -30.5t28.5 -11.5t29.5 8.5t13.5 30.5zM135 523q0 20 -12.5 30t-28.5 10q-15 0 -27.5 -10t-12.5 -30q0 -19 12.5 -28.5t27.5 -9.5q16 0 28.5 9t12.5 29zM369 61q-9 -3 -22.5 -9.5t-26 -9t-21 2 t-8.5 24.5v205q0 56 -18.5 83.5t-45.5 34.5t-59.5 -2.5t-59.5 -26t-45.5 -37t-18.5 -35.5q0 -17 13 -20t24 8q10 10 19 22.5t19 23.5t22 18.5t29 7.5q31 0 42 -21.5t11 -47.5q0 -6 0.5 -21t0.5 -31q0 -15 -0.5 -28.5t-2.5 -17.5q-25 -4 -58.5 -10t-63.5 -18.5t-51 -33.5 t-21 -55q0 -18 7 -32.5t19 -25.5t27.5 -17t32.5 -6q13 0 27.5 5t29.5 12.5t28.5 16t24.5 15.5l5 -3q8 -17 17.5 -31.5t31.5 -14.5q24 0 46.5 11t42.5 22q2 11 3.5 21t-0.5 21zM225 162q3 -23 1.5 -49.5t-6.5 -49.5q-2 -11 -16 -16.5t-31.5 -6.5t-33 3t-21.5 12 q-2 3 -4.5 6.5t-4.5 7.5q-4 23 6.5 39t28.5 27t39 17.5t38 11.5z" />
<glyph unicode="&#xe5;" horiz-adv-x="385" d="M273 527q0 27 -12 44.5t-30 26.5t-39 9t-39 -9t-30 -26.5t-12 -44.5t12 -44.5t30 -26.5t39 -9t39 9t30 26.5t12 44.5zM244 527q0 -26 -16.5 -39t-36 -12.5t-35.5 13.5t-16 38t16 38t35.5 13.5t36 -12.5t16.5 -39zM369 61q-9 -3 -22.5 -9.5t-26 -9t-21 2t-8.5 24.5v205 q0 56 -18.5 83.5t-45.5 34.5t-59.5 -2.5t-59.5 -26t-45.5 -37t-18.5 -35.5q0 -17 13 -20t24 8q10 10 19 22.5t19 23.5t22 18.5t29 7.5q31 0 42 -21.5t11 -47.5q0 -6 0.5 -21t0.5 -31q0 -15 -0.5 -28.5t-2.5 -17.5q-25 -4 -58.5 -10t-63.5 -18.5t-51 -33.5t-21 -55 q0 -18 7 -32.5t19 -25.5t27.5 -17t32.5 -6q13 0 27.5 5t29.5 12.5t28.5 16t24.5 15.5l5 -3q8 -17 17.5 -31.5t31.5 -14.5q24 0 46.5 11t42.5 22q2 11 3.5 21t-0.5 21zM225 162q3 -23 1.5 -49.5t-6.5 -49.5q-2 -11 -16 -16.5t-31.5 -6.5t-33 3t-21.5 12q-2 3 -4.5 6.5 t-4.5 7.5q-4 23 6.5 39t28.5 27t39 17.5t38 11.5z" />
<glyph unicode="&#xe6;" horiz-adv-x="531" d="M508 266q0 45 -24.5 75.5t-59 42t-72.5 2t-65 -44.5q-17 29 -37 43.5t-55 14.5q-19 0 -43 -6.5t-45.5 -18.5t-36 -29.5t-14.5 -40.5q0 -13 5 -18.5t12.5 -5t15.5 5t14 11.5q7 8 12.5 16.5t12 15t15 11t21.5 4.5q26 0 40 -16t21 -38.5t8 -47.5t2 -43l-97 -26 q-18 -5 -38 -11.5t-36.5 -17t-27 -26t-10.5 -38.5q0 -25 10 -43.5t27 -30t38.5 -14t44.5 5.5q26 9 50.5 22.5t50.5 23.5q23 -23 46 -38t57 -15q23 0 46 7t43 20.5t34.5 32t19.5 42.5l-20 5q-14 -17 -30.5 -29.5t-39.5 -12.5q-44 0 -70 29.5t-26 71.5v42l100.5 33.5zM432 303 q4 -12 -12 -23.5t-38.5 -20.5t-45.5 -15.5t-32 -9.5v21t0.5 26t3.5 24.5t9 17.5q16 16 38 21t44 0q24 -16 33 -41zM242 77q-12 -10 -24.5 -14.5t-26.5 -9.5q-31 -9 -51 -2t-25 22t5.5 33.5t40.5 32.5l71 32q6 -23 7.5 -46.5t2.5 -47.5z" />
<glyph unicode="&#xe7;" horiz-adv-x="385" d="M354 74q-5 9 -18 13q-41 -33 -81 -37.5t-72.5 13t-52.5 54t-20 86.5q0 22 6 49t19 50.5t32 39.5t46 16q26 0 42.5 -11.5t28 -25.5t21 -25.5t22.5 -11.5q17 0 25 9.5t8.5 22.5t-6 26.5t-17.5 22.5q-24 19 -57.5 25.5t-63.5 6.5q-21 0 -43 -6.5t-42 -18t-37 -26.5t-28 -33 q-21 -32 -29.5 -69t-5.5 -74t18.5 -71.5t42.5 -61.5q23 -22 46.5 -34t55.5 -12q9 0 21.5 -0.5t20.5 2.5l2 -2l-68 -91q9 -6 21 -11.5t23.5 -12t19 -16t7.5 -22.5q0 -8 -4 -16t-11 -15t-15 -11.5t-15 -4.5q-10 0 -20 8t-20 18t-20 18t-20 8q-11 0 -21 -10.5t-10 -21.5 t10.5 -21t24.5 -17t29.5 -11t24.5 -4q20 0 40 8t36.5 22.5t26.5 33t10 39.5q0 23 -17.5 43.5t-32.5 35.5l54 71q0 1 7.5 5.5t9.5 5.5q13 8 25 23.5t21 28.5z" />
<glyph unicode="&#xe8;" d="M221 445l-87 136q-5 8 -17 16t-25 11t-22.5 -0.5t-9.5 -19.5q0 -9 5.5 -19t13 -19.5t16.5 -17.5t16 -14l102 -80zM312 251q9 54 -8.5 88t-49.5 49t-71 10t-74 -30t-58.5 -70t-23.5 -110q0 -59 19 -100t48.5 -65t64 -31.5t66 2.5t55.5 37t31 70l-21 3q-5 -8 -8.5 -16 t-8.5 -15q-16 -20 -40 -20q-40 0 -67.5 18.5t-43 47t-20.5 64t-1 68.5h211zM243 279h-136q6 35 20 55t31 26.5t34 2.5t30 -15.5t19.5 -29.5t1.5 -39z" />
<glyph unicode="&#xe9;" d="M273 584q-1 11 -13 18.5t-22 7.5q-7 0 -18 -10.5t-23.5 -26.5t-26 -35.5t-25.5 -38t-21.5 -34t-13.5 -22.5l9 -6l108 87q5 4 13 11.5t15.5 15.5t12.5 17t5 16zM312 251q9 54 -8.5 88t-49.5 49t-71 10t-74 -30t-58.5 -70t-23.5 -110q0 -59 19 -100t48.5 -65t64 -31.5 t66 2.5t55.5 37t31 70l-21 3q-5 -8 -8.5 -16t-8.5 -15q-16 -20 -40 -20q-40 0 -67.5 18.5t-43 47t-20.5 64t-1 68.5h211zM243 279h-136q6 35 20 55t31 26.5t34 2.5t30 -15.5t19.5 -29.5t1.5 -39z" />
<glyph unicode="&#xea;" d="M289 446q0 8 -11.5 31.5t-26 50t-29 50.5t-20.5 35h-50l-89 -165l4 -4h5l95 105q29 -27 57 -54.5t59 -51.5zM312 251q9 54 -8.5 88t-49.5 49t-71 10t-74 -30t-58.5 -70t-23.5 -110q0 -59 19 -100t48.5 -65t64 -31.5t66 2.5t55.5 37t31 70l-21 3q-5 -8 -8.5 -16t-8.5 -15 q-16 -20 -40 -20q-40 0 -67.5 18.5t-43 47t-20.5 64t-1 68.5h211zM243 279h-136q6 35 20 55t31 26.5t34 2.5t30 -15.5t19.5 -29.5t1.5 -39z" />
<glyph unicode="&#xeb;" d="M305 524q0 17 -11.5 27.5t-26 12.5t-27.5 -6.5t-16 -30.5q-3 -20 9.5 -30.5t28.5 -11.5t29.5 8.5t13.5 30.5zM129 523q0 20 -12.5 30t-28.5 10q-15 0 -27.5 -10t-12.5 -30q0 -19 12.5 -28.5t27.5 -9.5q16 0 28.5 9t12.5 29zM312 251q9 54 -8.5 88t-49.5 49t-71 10 t-74 -30t-58.5 -70t-23.5 -110q0 -59 19 -100t48.5 -65t64 -31.5t66 2.5t55.5 37t31 70l-21 3q-5 -8 -8.5 -16t-8.5 -15q-16 -20 -40 -20q-40 0 -67.5 18.5t-43 47t-20.5 64t-1 68.5h211zM243 279h-136q6 35 20 55t31 26.5t34 2.5t30 -15.5t19.5 -29.5t1.5 -39z" />
<glyph unicode="&#xec;" horiz-adv-x="240" d="M175 445l-87 136q-5 8 -17 16t-25 11t-22.5 -0.5t-9.5 -19.5q0 -9 5.5 -19t13 -19.5t16.5 -17.5t16 -14l102 -80zM219 1v24q-5 1 -12.5 3t-15.5 4.5t-14.5 6t-9.5 6.5q-2 8 -2 16v16v329q-11 0 -16.5 -0.5t-10.5 -2.5t-10 -5t-14 -7q-6 -3 -18 -8t-24 -11.5t-21.5 -13.5 t-9.5 -14q0 -4 5.5 -10.5t12 -13.5t13 -13t9.5 -10q3 -5 5.5 -22.5t3.5 -41t1 -50.5v-52t-1 -44.5t-2 -27.5q-1 -6 -9.5 -11.5t-20 -10.5t-22.5 -10t-17 -9l-1 -19q11 0 23 -1t23 0q4 0 8 1.5t8 1.5h139z" />
<glyph unicode="&#xed;" horiz-adv-x="240" d="M227 584q-1 11 -13 18.5t-22 7.5q-7 0 -18 -10.5t-23.5 -26.5t-26 -35.5t-25.5 -38t-21 -34t-14 -22.5l9 -6l108 87q5 4 13 11.5t15.5 15.5t12.5 17t5 16zM219 1v24q-5 1 -12.5 3t-15.5 4.5t-14.5 6t-9.5 6.5q-2 8 -2 16v16v329q-11 0 -16.5 -0.5t-10.5 -2.5t-10 -5 t-14 -7q-6 -3 -18 -8t-24 -11.5t-21.5 -13.5t-9.5 -14q0 -4 5.5 -10.5t12 -13.5t13 -13t9.5 -10q3 -5 5.5 -22.5t3.5 -41t1 -50.5v-52t-1 -44.5t-2 -27.5q-1 -6 -9.5 -11.5t-20 -10.5t-22.5 -10t-17 -9l-1 -19q11 0 23 -1t23 0q4 0 8 1.5t8 1.5h139z" />
<glyph unicode="&#xee;" horiz-adv-x="240" d="M233 446q0 8 -11.5 31.5t-26 50t-29 50.5t-20.5 35h-50l-89 -165l4 -4h5l95 105q29 -27 57 -54.5t59 -51.5zM219 1v24q-5 1 -12.5 3t-15.5 4.5t-14.5 6t-9.5 6.5q-2 8 -2 16v16v329q-11 0 -16.5 -0.5t-10.5 -2.5t-10 -5t-14 -7q-6 -3 -18 -8t-24 -11.5t-21.5 -13.5 t-9.5 -14q0 -4 5.5 -10.5t12 -13.5t13 -13t9.5 -10q3 -5 5.5 -22.5t3.5 -41t1 -50.5v-52t-1 -44.5t-2 -27.5q-1 -6 -9.5 -11.5t-20 -10.5t-22.5 -10t-17 -9l-1 -19q11 0 23 -1t23 0q4 0 8 1.5t8 1.5h139z" />
<glyph unicode="&#xef;" horiz-adv-x="240" d="M249 524q0 17 -11.5 27.5t-26 12.5t-27.5 -6.5t-16 -30.5q-3 -20 9.5 -30.5t28.5 -11.5t29.5 8.5t13.5 30.5zM73 523q0 20 -12.5 30t-28.5 10q-15 0 -27.5 -10t-12.5 -30q0 -19 12.5 -28.5t27.5 -9.5q16 0 28.5 9t12.5 29zM219 1v24q-5 1 -12.5 3t-15.5 4.5t-14.5 6 t-9.5 6.5q-2 8 -2 16v16v329q-11 0 -16.5 -0.5t-10.5 -2.5t-10 -5t-14 -7q-6 -3 -18 -8t-24 -11.5t-21.5 -13.5t-9.5 -14q0 -4 5.5 -10.5t12 -13.5t13 -13t9.5 -10q3 -5 5.5 -22.5t3.5 -41t1 -50.5v-52t-1 -44.5t-2 -27.5q-1 -6 -9.5 -11.5t-20 -10.5t-22.5 -10t-17 -9 l-1 -19q11 0 23 -1t23 0q4 0 8 1.5t8 1.5h139z" />
<glyph unicode="&#xf0;" horiz-adv-x="438" d="M409 250q0 50 -10.5 90.5t-29.5 76.5t-46 69.5t-59 68.5l101 47l-10 22l-112 -52q-40 31 -89 51l-12 -23q16 -11 31.5 -22.5t29.5 -25.5l-128 -58l10 -22l134 62q38 -41 63 -90t38 -103l-2 -2q-19 20 -44.5 32t-53.5 12q-55 0 -94 -29.5t-60.5 -73.5t-24 -95t15.5 -95 t58 -73.5t104 -29.5q54 0 90.5 24t58.5 62t31.5 85t9.5 92zM335 180q0 -24 -5.5 -52.5t-18 -53t-33 -41.5t-49.5 -17q-30 0 -52.5 22t-37 53.5t-21.5 65.5t-7 58q0 50 16.5 81t41.5 44.5t54 9.5t54 -24.5t41.5 -57.5t16.5 -88z" />
<glyph unicode="&#xf1;" horiz-adv-x="479" d="M380 584h-11q-4 -41 -14 -56.5t-25 -15.5q-14 0 -32 11.5t-37 25t-38.5 25t-37.5 11.5q-24 0 -40 -10.5t-26.5 -27.5t-15 -37.5t-4.5 -40.5h11q1 11 3.5 23t7.5 22.5t14 17t23 6.5q15 0 30 -11t32 -23.5t36 -23.5t42 -11q22 0 37.5 11t25.5 28t14.5 37.5t4.5 38.5z M464 21q-8 4 -17 5.5t-16.5 4t-12.5 8t-6 17.5q-4 53 -3 103.5t2 103.5q1 47 -15 75.5t-43 41t-62.5 9.5t-73.5 -18q-17 -7 -32.5 -16t-30.5 -18q-1 13 -1.5 25.5t-2.5 25.5q-6 3 -11.5 5.5t-12.5 2.5q-20 -13 -41.5 -23.5t-43.5 -19.5q-5 -11 -2 -21l26.5 -26.5t14.5 -34.5 q1 -14 1.5 -48.5t0 -72t-2.5 -69.5t-6 -41q-9 -5 -18.5 -9t-18.5 -9q-4 -22 3 -25.5t27 -2.5q14 1 29 2t29 1q7 0 20.5 -2t26.5 -2q14 0 24 4t10 16q0 10 -4.5 14.5t-11 7.5t-13.5 5t-13 7q-5 4 -7.5 21t-3.5 37.5t-0.5 39t0.5 26.5l4 146q33 23 74.5 23.5t75.5 -22.5 q17 -11 25 -23.5t10.5 -26.5t2 -29.5t-0.5 -32.5q0 -10 -0.5 -32t-2 -45.5t-3.5 -44.5t-5 -28q-2 -6 -9.5 -11.5t-16.5 -11t-18 -10l-15 -7.5l1 -20q32 4 62.5 4.5t62.5 -0.5q14 0 30 -2t30 0q8 1 7.5 9.5t-2.5 13.5z" />
<glyph unicode="&#xf2;" horiz-adv-x="427" d="M268 445l-87 136q-5 8 -17 16t-25 11t-22.5 -0.5t-9.5 -19.5q0 -9 5.5 -19t13 -19.5t16.5 -17.5t16 -14l102 -80zM401 178q0 45 -11.5 83.5t-42.5 72.5q-23 25 -60 37t-71 15q-13 1 -29 -3t-31.5 -10.5t-30 -14t-25.5 -14.5q-16 -10 -30 -28.5t-24 -40.5t-15.5 -45 t-5.5 -41q0 -40 13.5 -77.5t29.5 -72.5q17 -12 31 -21.5t28.5 -16t31 -10.5t38.5 -4q12 0 24 2l24 4q16 2 29 4t24 5.5t22 10.5t23 20q32 34 45 66t13 79zM329 157q0 -39 -16 -73t-41.5 -52t-58.5 -15t-66 38q-10 10 -18 29.5t-14 42t-9.5 44t-3.5 35.5q0 6 1 18t3 24.5 t4.5 23.5t5.5 17q24 53 67.5 60t87.5 -29q13 -11 23.5 -31.5t18 -44.5t12 -47.5t4.5 -39.5z" />
<glyph unicode="&#xf3;" horiz-adv-x="427" d="M320 584q-1 11 -13 18.5t-22 7.5q-7 0 -18 -10.5t-23.5 -26.5t-26 -35.5t-25.5 -38t-21.5 -34t-13.5 -22.5l9 -6l108 87q5 4 13 11.5t15.5 15.5t12.5 17t5 16zM401 178q0 45 -11.5 83.5t-42.5 72.5q-23 25 -60 37t-71 15q-13 1 -29 -3t-31.5 -10.5t-30 -14t-25.5 -14.5 q-16 -10 -30 -28.5t-24 -40.5t-15.5 -45t-5.5 -41q0 -40 13.5 -77.5t29.5 -72.5q17 -12 31 -21.5t28.5 -16t31 -10.5t38.5 -4q12 0 24 2l24 4q16 2 29 4t24 5.5t22 10.5t23 20q32 34 45 66t13 79zM329 157q0 -39 -16 -73t-41.5 -52t-58.5 -15t-66 38q-10 10 -18 29.5t-14 42 t-9.5 44t-3.5 35.5q0 6 1 18t3 24.5t4.5 23.5t5.5 17q24 53 67.5 60t87.5 -29q13 -11 23.5 -31.5t18 -44.5t12 -47.5t4.5 -39.5z" />
<glyph unicode="&#xf4;" horiz-adv-x="427" d="M326 446q0 8 -11.5 31.5t-26 50t-29 50.5t-20.5 35h-50l-89 -165l4 -4h5l95 105q29 -27 57 -54.5t59 -51.5zM401 178q0 45 -11.5 83.5t-42.5 72.5q-23 25 -60 37t-71 15q-13 1 -29 -3t-31.5 -10.5t-30 -14t-25.5 -14.5q-16 -10 -30 -28.5t-24 -40.5t-15.5 -45t-5.5 -41 q0 -40 13.5 -77.5t29.5 -72.5q17 -12 31 -21.5t28.5 -16t31 -10.5t38.5 -4q12 0 24 2l24 4q16 2 29 4t24 5.5t22 10.5t23 20q32 34 45 66t13 79zM329 157q0 -39 -16 -73t-41.5 -52t-58.5 -15t-66 38q-10 10 -18 29.5t-14 42t-9.5 44t-3.5 35.5q0 6 1 18t3 24.5t4.5 23.5 t5.5 17q24 53 67.5 60t87.5 -29q13 -11 23.5 -31.5t18 -44.5t12 -47.5t4.5 -39.5z" />
<glyph unicode="&#xf5;" horiz-adv-x="427" d="M354 584h-11q-4 -41 -14 -56.5t-25 -15.5q-14 0 -32 11.5t-37 25t-38.5 25t-37.5 11.5q-24 0 -40 -10.5t-26.5 -27.5t-15 -37.5t-4.5 -40.5h11q1 11 3.5 23t7.5 22.5t14 17t23 6.5q15 0 30 -11t32 -23.5t36 -23.5t42 -11q22 0 37.5 11t25.5 28t14.5 37.5t4.5 38.5z M401 178q0 45 -11.5 83.5t-42.5 72.5q-23 25 -60 37t-71 15q-13 1 -29 -3t-31.5 -10.5t-30 -14t-25.5 -14.5q-16 -10 -30 -28.5t-24 -40.5t-15.5 -45t-5.5 -41q0 -40 13.5 -77.5t29.5 -72.5q17 -12 31 -21.5t28.5 -16t31 -10.5t38.5 -4q12 0 24 2l24 4q16 2 29 4t24 5.5 t22 10.5t23 20q32 34 45 66t13 79zM329 157q0 -39 -16 -73t-41.5 -52t-58.5 -15t-66 38q-10 10 -18 29.5t-14 42t-9.5 44t-3.5 35.5q0 6 1 18t3 24.5t4.5 23.5t5.5 17q24 53 67.5 60t87.5 -29q13 -11 23.5 -31.5t18 -44.5t12 -47.5t4.5 -39.5z" />
<glyph unicode="&#xf6;" horiz-adv-x="427" d="M342 524q0 17 -11.5 27.5t-26 12.5t-27.5 -6.5t-16 -30.5q-3 -20 9.5 -30.5t28.5 -11.5t29.5 8.5t13.5 30.5zM166 523q0 20 -12.5 30t-28.5 10q-15 0 -27.5 -10t-12.5 -30q0 -19 12.5 -28.5t27.5 -9.5q16 0 28.5 9t12.5 29zM401 178q0 45 -11.5 83.5t-42.5 72.5 q-23 25 -60 37t-71 15q-13 1 -29 -3t-31.5 -10.5t-30 -14t-25.5 -14.5q-16 -10 -30 -28.5t-24 -40.5t-15.5 -45t-5.5 -41q0 -40 13.5 -77.5t29.5 -72.5q17 -12 31 -21.5t28.5 -16t31 -10.5t38.5 -4q12 0 24 2l24 4q16 2 29 4t24 5.5t22 10.5t23 20q32 34 45 66t13 79z M329 157q0 -39 -16 -73t-41.5 -52t-58.5 -15t-66 38q-10 10 -18 29.5t-14 42t-9.5 44t-3.5 35.5q0 6 1 18t3 24.5t4.5 23.5t5.5 17q24 53 67.5 60t87.5 -29q13 -11 23.5 -31.5t18 -44.5t12 -47.5t4.5 -39.5z" />
<glyph unicode="&#xf7;" horiz-adv-x="667" d="M364 519q0 15 -9.5 22.5t-21.5 7.5q-11 0 -20.5 -7.5t-9.5 -22.5t9.5 -22.5t20.5 -7.5q12 0 21.5 7.5t9.5 22.5zM595 299v43h-523v-43h523zM364 123q0 15 -9.5 22.5t-21.5 7.5q-11 0 -20.5 -7.5t-9.5 -22.5t9.5 -22.5t20.5 -7.5q12 0 21.5 7.5t9.5 22.5z" />
<glyph unicode="&#xf8;" horiz-adv-x="427" d="M401 177q0 45 -11 80.5t-39 70.5q11 13 21.5 25t21.5 26l-21 16l-41 -48q-8 7 -23.5 13.5t-33 12t-34.5 8.5t-28 3q-30 0 -59 -13t-54 -28q-16 -10 -30 -28.5t-24 -40.5t-15.5 -45t-5.5 -41q0 -40 13.5 -77.5t29.5 -72.5h1l-44 -52l21 -15l45 52q25 -17 41 -25t31.5 -11 t34 -1t47.5 5q32 4 53.5 10t44.5 31q32 34 45 66t13 79zM289 296l-166 -194q-9 23 -15 46t-6 48q0 24 4 50t14.5 48.5t29.5 38t48 16.5q25 1 51 -16.5t40 -36.5zM329 155q0 -11 -2.5 -26.5t-7.5 -31t-12 -29.5t-15 -21q-20 -19 -42.5 -26t-44 -3.5t-40.5 17.5t-32 38 l168 196q12 -24 20 -55.5t8 -58.5z" />
<glyph unicode="&#xf9;" horiz-adv-x="479" d="M294 445l-87 136q-5 8 -17 16t-25 11t-22.5 -0.5t-9.5 -19.5q0 -9 5.5 -19t13 -19.5t16.5 -17.5t16 -14l102 -80zM444 65h-52l6 329q-3 0 -23.5 -1.5t-45 -4t-46.5 -4.5t-29 -3l8 -30q20 -4 32.5 -8.5t19.5 -12.5t9.5 -20.5t2.5 -33.5q0 -51 1 -102.5t-7 -102.5 q-28 -15 -58.5 -23t-56 -3.5t-42 25t-16.5 63.5v257q0 5 -1 8.5t-7 3.5q-20 0 -38 -6t-37 -11q-2 -1 -7 -2t-10 -3t-9 -4t-4 -4q0 -5 6.5 -13.5t14 -18.5t13.5 -21.5t6 -21.5l-4 -193q-2 -57 24.5 -85.5t84.5 -28.5q41 0 75 18.5t68 38.5q0 -6 -1 -15.5t-0.5 -19t4.5 -16 t14 -6.5q7 0 20 5.5t26 13t25 15t18 12.5q8 6 12.5 12t3.5 17z" />
<glyph unicode="&#xfa;" horiz-adv-x="479" d="M346 584q-1 11 -13 18.5t-22 7.5q-7 0 -18 -10.5t-23.5 -26.5t-26 -35.5t-25.5 -38t-21.5 -34t-13.5 -22.5l9 -6l108 87q5 4 13 11.5t15.5 15.5t12.5 17t5 16zM444 65h-52l6 329q-3 0 -23.5 -1.5t-45 -4t-46.5 -4.5t-29 -3l8 -30q20 -4 32.5 -8.5t19.5 -12.5t9.5 -20.5 t2.5 -33.5q0 -51 1 -102.5t-7 -102.5q-28 -15 -58.5 -23t-56 -3.5t-42 25t-16.5 63.5v257q0 5 -1 8.5t-7 3.5q-20 0 -38 -6t-37 -11q-2 -1 -7 -2t-10 -3t-9 -4t-4 -4q0 -5 6.5 -13.5t14 -18.5t13.5 -21.5t6 -21.5l-4 -193q-2 -57 24.5 -85.5t84.5 -28.5q41 0 75 18.5 t68 38.5q0 -6 -1 -15.5t-0.5 -19t4.5 -16t14 -6.5q7 0 20 5.5t26 13t25 15t18 12.5q8 6 12.5 12t3.5 17z" />
<glyph unicode="&#xfb;" horiz-adv-x="479" d="M352 446q0 8 -11.5 31.5t-26 50t-29 50.5t-20.5 35h-50l-89 -165l4 -4h5l95 105q29 -27 57 -54.5t59 -51.5zM444 65h-52l6 329q-3 0 -23.5 -1.5t-45 -4t-46.5 -4.5t-29 -3l8 -30q20 -4 32.5 -8.5t19.5 -12.5t9.5 -20.5t2.5 -33.5q0 -51 1 -102.5t-7 -102.5 q-28 -15 -58.5 -23t-56 -3.5t-42 25t-16.5 63.5v257q0 5 -1 8.5t-7 3.5q-20 0 -38 -6t-37 -11q-2 -1 -7 -2t-10 -3t-9 -4t-4 -4q0 -5 6.5 -13.5t14 -18.5t13.5 -21.5t6 -21.5l-4 -193q-2 -57 24.5 -85.5t84.5 -28.5q41 0 75 18.5t68 38.5q0 -6 -1 -15.5t-0.5 -19t4.5 -16 t14 -6.5q7 0 20 5.5t26 13t25 15t18 12.5q8 6 12.5 12t3.5 17z" />
<glyph unicode="&#xfc;" horiz-adv-x="479" d="M368 524q0 17 -11.5 27.5t-26 12.5t-27.5 -6.5t-16 -30.5q-3 -20 9.5 -30.5t28.5 -11.5t29.5 8.5t13.5 30.5zM192 523q0 20 -12.5 30t-28.5 10q-15 0 -27.5 -10t-12.5 -30q0 -19 12.5 -28.5t27.5 -9.5q16 0 28.5 9t12.5 29zM444 65h-52l6 329q-3 0 -23.5 -1.5t-45 -4 t-46.5 -4.5t-29 -3l8 -30q20 -4 32.5 -8.5t19.5 -12.5t9.5 -20.5t2.5 -33.5q0 -51 1 -102.5t-7 -102.5q-28 -15 -58.5 -23t-56 -3.5t-42 25t-16.5 63.5v257q0 5 -1 8.5t-7 3.5q-20 0 -38 -6t-37 -11q-2 -1 -7 -2t-10 -3t-9 -4t-4 -4q0 -5 6.5 -13.5t14 -18.5t13.5 -21.5 t6 -21.5l-4 -193q-2 -57 24.5 -85.5t84.5 -28.5q41 0 75 18.5t68 38.5q0 -6 -1 -15.5t-0.5 -19t4.5 -16t14 -6.5q7 0 20 5.5t26 13t25 15t18 12.5q8 6 12.5 12t3.5 17z" />
<glyph unicode="&#xfd;" horiz-adv-x="385" d="M299 584q-1 11 -13 18.5t-22 7.5q-7 0 -18 -10.5t-23.5 -26.5t-26 -35.5t-25.5 -38t-21.5 -34t-13.5 -22.5l9 -6l108 87q5 4 13 11.5t15.5 15.5t12.5 17t5 16zM363 360q10 6 7.5 20.5t-9.5 21.5q-6 -1 -25 -3t-39.5 -4t-37 -5t-18.5 -5q-4 -5 -5 -10.5t-2 -11.5 q9 -1 27 -2.5t25 -6.5q2 -12 -1 -26t-7.5 -28.5t-10 -28.5t-8.5 -25l-42 -160l-4 1q-14 33 -23.5 67.5t-20.5 68.5q-5 13 -11 30t-12.5 34.5t-12 34t-8.5 29.5q-2 11 9 11.5t18 0.5l7 5v23l-138 4q-7 -9 -7 -16t4 -18q19 -8 27 -21.5t14 -31.5l83 -241q12 -35 17 -59.5 t3.5 -47.5t-10 -47.5t-22.5 -57.5q-5 -11 -18.5 -14.5t-27.5 -7.5t-25.5 -11.5t-11.5 -25.5q0 -12 6.5 -19.5t16 -12t21 -6t20.5 -1.5q15 0 25.5 6t18 15.5t12 21.5t8.5 24l155 509q2 7 5 12.5t8 10.5z" />
<glyph unicode="&#xfe;" horiz-adv-x="479" d="M411 331q-6 9 -20.5 21.5t-31 23t-33.5 18t-28 7.5q-6 0 -24.5 -9t-39.5 -20t-40 -22t-28 -15l4 220q1 29 6 57.5t5 57.5q-6 4 -26 8t-41.5 5t-38.5 -2.5t-17 -14.5q0 -6 5.5 -16.5t12.5 -24t12.5 -29t5.5 -31.5v-774q-14 -3 -28 -3t-28 -4q-8 -2 -13.5 -6.5t-6.5 -9 t2.5 -8t13.5 -3.5q23 -1 46 2.5t46 1.5q34 -2 66.5 -2.5t66.5 -0.5l2 3l-8 25q-7 0 -18 -1t-23 -1t-22 1.5t-16 6.5q-2 1 -3 15.5t-2 36t-1 47.5v48v41v24q43 -17 86 -10t79 30t63 59t39.5 78t7.5 86.5t-32 83.5zM377 169q0 -20 -8.5 -43t-23 -43t-34 -33.5t-41.5 -13.5 q-15 0 -32 4.5t-32 13t-25.5 21.5t-11.5 30q-2 49 -1 98.5t1 98.5q0 4 9 11t21 14t23.5 11.5t16.5 4.5q7 0 23 -8.5t33 -19.5t31.5 -22.5t19.5 -17.5q6 -9 12 -22.5t10 -28.5t6.5 -30t2.5 -25z" />
<glyph unicode="&#xff;" horiz-adv-x="385" d="M321 524q0 17 -11.5 27.5t-26 12.5t-27.5 -6.5t-16 -30.5q-3 -20 9.5 -30.5t28.5 -11.5t29.5 8.5t13.5 30.5zM145 523q0 20 -12.5 30t-28.5 10q-15 0 -27.5 -10t-12.5 -30q0 -19 12.5 -28.5t27.5 -9.5q16 0 28.5 9t12.5 29zM363 360q10 6 7.5 20.5t-9.5 21.5 q-6 -1 -25 -3t-39.5 -4t-37 -5t-18.5 -5q-4 -5 -5 -10.5t-2 -11.5q9 -1 27 -2.5t25 -6.5q2 -12 -1 -26t-7.5 -28.5t-10 -28.5t-8.5 -25l-42 -160l-4 1q-14 33 -23.5 67.5t-20.5 68.5q-5 13 -11 30t-12.5 34.5t-12 34t-8.5 29.5q-2 11 9 11.5t18 0.5l7 5v23l-138 4 q-7 -9 -7 -16t4 -18q19 -8 27 -21.5t14 -31.5l83 -241q12 -35 17 -59.5t3.5 -47.5t-10 -47.5t-22.5 -57.5q-5 -11 -18.5 -14.5t-27.5 -7.5t-25.5 -11.5t-11.5 -25.5q0 -12 6.5 -19.5t16 -12t21 -6t20.5 -1.5q15 0 25.5 6t18 15.5t12 21.5t8.5 24l155 509q2 7 5 12.5t8 10.5z " />
<glyph unicode="&#x152;" horiz-adv-x="1010" d="M982 128q-14 10 -29 11q-6 -11 -13 -24t-15 -25.5t-18 -22.5t-22 -14q-19 -6 -42.5 -9.5t-47.5 -4.5t-48 -0.5t-44 0.5q-10 0 -22 0.5t-22 3.5t-17 10.5t-7 21.5v225h43t67 -0.5t63.5 -2.5t33.5 -6q7 -6 10.5 -23.5t7.5 -26.5l6 -4h17q3 11 5 31.5t2.5 43t1 43.5t0.5 35 h-17q-6 -6 -13 -13.5t-15 -15t-16.5 -13t-17.5 -5.5l-128 -4q-29 -2 -53 4q1 38 1 76q0 39 -2 77q0 18 -2 38.5t0 37.5q1 9 7.5 13t14.5 5t17 0.5t16 -0.5h174q13 0 21.5 -8t14 -19.5t8.5 -24t5 -22.5h26l-8 116q-89 -2 -177 -7.5t-177 -2.5q-26 1 -50.5 3.5t-50.5 4.5 q-11 1 -30.5 -1t-41 -5t-41 -6.5t-29.5 -7.5q-53 -19 -100 -50.5t-81.5 -74t-54.5 -94.5t-20 -110q0 -66 27.5 -121t72.5 -94.5t104 -61.5t122 -21q61 1 121.5 8t121.5 9q15 1 30.5 -0.5t30.5 -2.5q50 -2 99.5 -1t99.5 1q8 0 14 -1.5t14 -1.5q18 32 29.5 66t23.5 68z M550 138q0 -32 -5.5 -54.5t-19 -36.5t-35 -20t-54.5 -6q-65 0 -115.5 25t-85 67t-53 97t-18.5 116q0 66 23 113.5t75 88.5q38 29 82.5 45.5t92.5 16.5q63 0 88 -27.5t25 -89.5v-335z" />
<glyph unicode="&#x153;" horiz-adv-x="573" d="M541 255q13 36 9.5 63t-19.5 45t-43.5 26t-62.5 5q-12 -1 -28.5 -7.5t-33 -15t-32 -18t-26.5 -16.5q-22 28 -46.5 40.5t-50.5 12.5t-53 -10t-54 -27q-36 -22 -55.5 -64t-22.5 -89t9.5 -92t41.5 -74q4 -8 14.5 -13.5t18.5 -9.5q33 -16 60.5 -18.5t52.5 5t48 25t46 42.5 q10 -9 22 -19.5t25 -19.5t27 -15t28 -6q29 0 62 12.5t57 29.5l1 26q-14 2 -29 -3.5t-29 -5.5q-44 0 -68.5 16.5t-36 42.5t-13.5 59.5t-1 68.5q7 3 32 4t54 1q30 0 57 -0.5t39 -0.5zM485 289q-31 2 -62 -2t-62 -2q5 32 18.5 50t30 25t33.5 3.5t28.5 -13.5t16.5 -26t-3 -35z M281 190q0 -22 -2 -46.5t-10 -45.5t-24.5 -34.5t-46.5 -13.5q-25 0 -44 12.5t-32.5 31.5t-21 42t-9.5 44q-3 25 -1.5 53.5t11 52.5t28.5 39.5t52 15.5q25 0 50 -12.5t38 -34.5q11 -20 11.5 -50.5t0.5 -53.5z" />
<glyph unicode="&#x178;" horiz-adv-x="677" d="M467 756q0 17 -11.5 27.5t-26 12.5t-27.5 -6.5t-16 -30.5q-3 -20 9.5 -30.5t28.5 -11.5t29.5 8.5t13.5 30.5zM291 755q0 20 -12.5 30t-28.5 10q-15 0 -27.5 -10t-12.5 -30q0 -19 12.5 -28.5t27.5 -9.5q16 0 28.5 9t12.5 29zM662 577q1 7 2 13.5t0 12t-5 9t-14 3.5 q-20 1 -41 -0.5t-41 -1.5q-22 0 -43.5 1.5t-43.5 1.5q-15 0 -21.5 -4t-5.5 -21q5 -3 18 -6t27 -7t25 -9t11 -10q0 -11 -5 -24t-12.5 -26t-15.5 -25t-14 -22q-28 -45 -54.5 -90.5t-57.5 -88.5l-124 214l-16 26t-8 29q0 15 6 21.5t15 8t19 1.5q11 0 20 2t15 9t6 22 q-10 -1 -19 1t-18 3q-20 2 -38.5 -2t-38.5 -5t-39 -0.5t-39 0.5t-39 4t-38 -1q-2 -6 -2.5 -14t3.5 -13q5 -1 15.5 -2.5t21.5 -3.5t20.5 -4.5t12.5 -4.5q8 -5 12.5 -13.5t9.5 -16.5q14 -25 28 -48t29 -47q26 -42 49.5 -84t48.5 -84q9 -16 13.5 -27t5.5 -30l4 -139 q1 -23 -15 -31.5t-35.5 -14.5t-36.5 -13.5t-19 -27.5l4 -6q3 0 6.5 -0.5t6.5 -0.5q55 2 109.5 6.5t109.5 3.5q16 0 31.5 -5t31.5 -5q11 0 13 6.5t1 14.5l-63 25q-16 6 -27.5 12t-18 14.5t-9.5 20.5t-2 30l4 123q1 14 10.5 28t17.5 25q17 22 31.5 45.5t28.5 47.5 q23 38 47 75.5t44 77.5q8 16 16.5 24t18.5 11.5t22.5 4t28.5 1.5z" />
<glyph unicode="&#x2c6;" d="M279 480q0 8 -11.5 31.5t-26 50t-29 50.5t-20.5 35h-50l-89 -165l4 -4h5l95 105q29 -27 57 -54.5t59 -51.5z" />
<glyph unicode="&#x2dc;" d="M307 618h-11q-4 -41 -14 -56.5t-25 -15.5q-14 0 -32 11.5t-37 25t-38.5 25t-37.5 11.5q-24 0 -40 -10.5t-26.5 -27.5t-15 -37.5t-4.5 -40.5h11q1 11 3.5 23t7.5 22.5t14 17t23 6.5q15 0 30 -11t32 -23.5t36 -23.5t42 -11q22 0 37.5 11t25.5 28t14.5 37.5t4.5 38.5z" />
<glyph unicode="&#x2000;" horiz-adv-x="422" />
<glyph unicode="&#x2001;" horiz-adv-x="845" />
<glyph unicode="&#x2002;" horiz-adv-x="422" />
<glyph unicode="&#x2003;" horiz-adv-x="845" />
<glyph unicode="&#x2004;" horiz-adv-x="281" />
<glyph unicode="&#x2005;" horiz-adv-x="211" />
<glyph unicode="&#x2006;" horiz-adv-x="140" />
<glyph unicode="&#x2007;" horiz-adv-x="140" />
<glyph unicode="&#x2008;" horiz-adv-x="105" />
<glyph unicode="&#x2009;" horiz-adv-x="169" />
<glyph unicode="&#x200a;" horiz-adv-x="46" />
<glyph unicode="&#x2010;" horiz-adv-x="292" d="M233 219q1 14 0.5 29t-2.5 29l-207 -29q-9 -1 -12.5 -7.5t-3.5 -15.5q0 -8 2.5 -16.5t4.5 -14.5q4 -2 8 -3.5t9 -1.5q19 0 45.5 3.5t54 8t54.5 9.5t47 9z" />
<glyph unicode="&#x2011;" horiz-adv-x="292" d="M233 219q1 14 0.5 29t-2.5 29l-207 -29q-9 -1 -12.5 -7.5t-3.5 -15.5q0 -8 2.5 -16.5t4.5 -14.5q4 -2 8 -3.5t9 -1.5q19 0 45.5 3.5t54 8t54.5 9.5t47 9z" />
<glyph unicode="&#x2012;" horiz-adv-x="292" d="M233 219q1 14 0.5 29t-2.5 29l-207 -29q-9 -1 -12.5 -7.5t-3.5 -15.5q0 -8 2.5 -16.5t4.5 -14.5q4 -2 8 -3.5t9 -1.5q19 0 45.5 3.5t54 8t54.5 9.5t47 9z" />
<glyph unicode="&#x2013;" horiz-adv-x="500" d="M506 236v30h-512v-30h512z" />
<glyph unicode="&#x2014;" horiz-adv-x="1000" d="M1006 236v30h-1012v-30h1012z" />
<glyph unicode="&#x2018;" horiz-adv-x="240" d="M184 658q-2 6 -7.5 13.5t-13.5 7.5q-6 0 -15 -4t-14 -6q-37 -17 -64 -48t-27 -74q0 -17 5.5 -34.5t15.5 -31.5t25 -23t34 -9q27 0 41 14t17.5 32t-2.5 33.5t-20 18.5q-8 2 -15.5 0.5t-13.5 -1t-9.5 5t-3.5 18.5q0 17 7.5 28.5t18 20.5t22 18t19.5 21z" />
<glyph unicode="&#x2019;" horiz-adv-x="240" d="M197 581q0 17 -5.5 34.5t-15.5 31.5t-25 23t-34 9q-27 0 -41 -14t-17.5 -32t2.5 -33.5t20 -18.5q8 -2 15.5 -0.5t13.5 1t9.5 -5t3.5 -18.5q0 -17 -7.5 -28.5t-18 -20.5t-22 -18t-19.5 -21q2 -6 7.5 -13.5t13.5 -7.5q6 0 15 4t14 6q37 17 64 48t27 74z" />
<glyph unicode="&#x201a;" horiz-adv-x="240" d="M207 0q0 17 -5.5 34.5t-15.5 31.5t-25 23t-34 9q-27 0 -41 -14t-17.5 -32t2.5 -33.5t20 -18.5q8 -2 15.5 -0.5t13.5 1t9.5 -5t3.5 -18.5q0 -17 -7.5 -28.5t-18 -20.5t-22 -18t-19.5 -21q2 -6 7.5 -13.5t13.5 -7.5q6 0 15 4t14 6q37 17 64 48t27 74z" />
<glyph unicode="&#x201c;" horiz-adv-x="427" d="M373 660q0 8 -8.5 13.5t-15.5 5.5q-6 0 -15 -4t-14 -6q-35 -17 -54.5 -40t-27.5 -47.5t-5 -48t13.5 -42.5t26.5 -30.5t35 -11.5q31 0 45.5 15.5t17.5 34.5t-4.5 34.5t-20.5 15.5q-8 0 -15.5 -1t-13 0.5t-9 6t-3.5 16.5q0 20 10.5 33t23.5 22t23.5 17t10.5 17zM174 658 q-2 6 -7.5 13.5t-13.5 7.5q-6 0 -15 -4t-14 -6q-37 -17 -64 -48t-27 -74q0 -17 5.5 -34.5t15.5 -31.5t25 -23t34 -9q27 0 41 14t17.5 32t-2.5 33.5t-20 18.5q-8 2 -15.5 0.5t-13.5 -1t-9.5 5t-3.5 18.5q0 17 7.5 28.5t18 20.5t22 18t19.5 21z" />
<glyph unicode="&#x201d;" horiz-adv-x="427" d="M394 581q0 17 -5.5 34.5t-15.5 31.5t-25 23t-34 9q-27 0 -41 -14t-17.5 -32t2.5 -33.5t20 -18.5q8 -2 15.5 -0.5t13.5 1t9.5 -5t3.5 -18.5q0 -17 -7.5 -28.5t-18 -20.5t-22 -18t-19.5 -21q2 -6 7.5 -13.5t13.5 -7.5q6 0 15 4t14 6q37 17 64 48t27 74zM195 578 q0 45 -22 70t-48 29.5t-48 -10t-22 -48.5q0 -27 10.5 -33t22.5 -6q13 0 23.5 -2t10.5 -21q0 -20 -10.5 -33t-23.5 -22t-23.5 -17t-10.5 -17q0 -8 8.5 -13.5t15.5 -5.5q6 0 15 4t14 6q35 17 61.5 47t26.5 72z" />
<glyph unicode="&#x201e;" horiz-adv-x="427" d="M394 -2q0 17 -5.5 34.5t-15.5 31.5t-25 23t-34 9q-27 0 -41 -14t-17.5 -32t2.5 -33.5t20 -18.5q8 -2 15.5 -0.5t13.5 1t9.5 -5t3.5 -18.5q0 -17 -7.5 -28.5t-18 -20.5t-22 -18t-19.5 -21q2 -6 7.5 -13.5t13.5 -7.5q6 0 15 4t14 6q37 17 64 48t27 74zM195 -5q0 45 -22 70 t-48 29.5t-48 -10t-22 -48.5q0 -27 10.5 -33t22.5 -6q13 0 23.5 -2t10.5 -21q0 -20 -10.5 -33t-23.5 -22t-23.5 -17t-10.5 -17q0 -8 8.5 -13.5t15.5 -5.5q6 0 15 4t14 6q35 17 61.5 47t26.5 72z" />
<glyph unicode="&#x2022;" horiz-adv-x="354" d="M260 307q0 41 -26 61.5t-58 20.5q-31 0 -57 -20.5t-26 -61.5t26 -62t57 -21q32 0 58 20.5t26 62.5z" />
<glyph unicode="&#x2026;" horiz-adv-x="1000" d="M824 -13q34 0 52.5 19.5t18.5 42.5t-19.5 40t-62.5 13q-23 -13 -33 -32.5t-7.5 -38t15.5 -31.5t36 -13zM490 -13q34 0 52.5 19.5t18.5 42.5t-19.5 40t-62.5 13q-23 -13 -33 -32.5t-7.5 -38t15.5 -31.5t36 -13zM156 -13q34 0 52.5 19.5t18.5 42.5t-19.5 40t-62.5 13 q-23 -13 -33 -32.5t-7.5 -38t15.5 -31.5t36 -13z" />
<glyph unicode="&#x202f;" horiz-adv-x="169" />
<glyph unicode="&#x2039;" horiz-adv-x="240" d="M206 60l-95 163l94 159h-36l-134 -163l136 -159h35z" />
<glyph unicode="&#x203a;" horiz-adv-x="240" d="M205 223l-136 159h-35l95 -163l-94 -159h36z" />
<glyph unicode="&#x205f;" horiz-adv-x="211" />
<glyph unicode="&#x2122;" horiz-adv-x="979" d="M957 229v17q-20 1 -31 4.5t-16 10.5t-6 19t-1 31v228q0 18 1 30t6 20t16 12t31 4v18h-136l-129 -279l-134 279h-139v-18q21 0 32 -3.5t16.5 -11.5t6 -21t0.5 -31v-228q0 -18 -1.5 -30t-6.5 -19.5t-16.5 -11t-30.5 -3.5v-17h149v17q-22 0 -34.5 2t-19 9t-8 20t-1.5 34v235 h2l148 -317h16l148 321h2v-240q0 -19 -2 -31t-8 -19t-17.5 -10t-30.5 -4v-17h194zM385 525l-11 98h-355l-11 -98h17q6 29 18 43.5t28.5 20t37.5 5.5h46v-284q0 -17 -1 -28.5t-5.5 -18.5t-14.5 -11t-28 -6v-17h183v17q-19 1 -29.5 5t-15.5 11.5t-6 19.5t-1 29v283h45 q22 0 39 -5.5t29.5 -20t17.5 -43.5h17z" />
<glyph unicode="&#xe000;" horiz-adv-x="385" d="M0 385h385v-385h-385v385z" />
</font>
</defs>
</svg>
