<?xml version="1.0" standalone="no"?>
<!DOCTYPE svg PUBLIC "-//W3C//DTD SVG 1.1//EN" "http://www.w3.org/Graphics/SVG/1.1/DTD/svg11.dtd" >
<svg xmlns="http://www.w3.org/2000/svg">
<metadata></metadata>
<defs>
<font id="juralight" horiz-adv-x="548" >
<font-face units-per-em="1024" ascent="819" descent="-205" />
<missing-glyph horiz-adv-x="260" />
<glyph horiz-adv-x="1024" />
<glyph horiz-adv-x="1024" />
<glyph unicode="&#xd;" horiz-adv-x="0" />
<glyph unicode=" "  horiz-adv-x="260" />
<glyph unicode="&#x09;" horiz-adv-x="260" />
<glyph unicode="&#xa0;" horiz-adv-x="260" />
<glyph unicode="!" horiz-adv-x="234" d="M71 29q0 14 15.5 25t30.5 11q16 0 31.5 -11t15.5 -25t-15.5 -25t-31.5 -11q-15 0 -30.5 11t-15.5 25zM96 197v419q0 28 21 28t21 -28v-419q0 -28 -22 -28q-20 0 -20 28z" />
<glyph unicode="&#x22;" horiz-adv-x="285" d="M71 466v149q0 28 21 28q20 0 20 -28v-149q0 -28 -21 -28q-20 0 -20 28zM172 466v149q0 28 21 28t21 -28v-149q0 -28 -22 -28q-20 0 -20 28z" />
<glyph unicode="#" horiz-adv-x="595" d="M45 226q0 21 28 21h89l51 142h-110q-27 0 -27 22q0 20 27 20h125l64 173q8 21 21 21q21 0 21 -20q0 -6 -3 -15l-59 -159h134l64 173q8 21 22 21q9 0 15 -6t6 -15q0 -6 -3 -14l-58 -159h70q28 0 28 -21t-28 -21h-86l-51 -142h106q28 0 28 -22q0 -20 -28 -20h-121l-64 -173 q-7 -21 -22 -21q-21 0 -21 21q0 6 3 14l59 159h-135l-63 -173q-7 -21 -22 -21q-20 0 -20 20q0 6 3 15l58 159h-73q-28 0 -28 21zM206 247h134l51 142h-134z" />
<glyph unicode="$" horiz-adv-x="567" d="M61 198q0 30 21 30t21 -28q0 -36 13 -51.5t47 -15.5h104v173h-82q-124 0 -124 128q0 58 28.5 88t95.5 30h82v63q0 28 21 28t21 -28v-63h101q31 0 51.5 -9t29 -26t11.5 -33t3 -39q0 -30 -21 -30t-21 28q0 36 -13 51.5t-47 15.5h-94v-162h75q123 0 123 -134 q0 -123 -123 -123h-75v-71q0 -27 -22 -27q-20 0 -20 27v71h-111q-31 0 -51.5 9t-29 26t-11.5 33t-3 39zM103 434q0 -41 18 -63.5t46 -22.5h100v162h-100q-64 0 -64 -76zM309 133h92q64 0 64 81q0 42 -18 67t-46 25h-92v-173z" />
<glyph unicode="%" horiz-adv-x="540" d="M69 146q0 10 11 21l350 350q13 11 21 11q7 0 13.5 -6t6.5 -14t-11 -21l-350 -350q-11 -11 -21 -11q-7 0 -13.5 6t-6.5 14zM81 471q0 32 23 54.5t55 22.5q31 0 53.5 -22.5t22.5 -54.5t-22.5 -54.5t-53.5 -22.5q-32 0 -55 22.5t-23 54.5zM124 471q0 -14 10.5 -24.5 t24.5 -10.5t24.5 10.5t10.5 24.5t-10.5 24.5t-24.5 10.5t-24.5 -10.5t-10.5 -24.5zM305 183q0 31 22.5 54t54.5 23t54.5 -23t22.5 -54t-22.5 -54t-54.5 -23t-54.5 23t-22.5 54zM347 183q0 -14 10.5 -24.5t24.5 -10.5q15 0 25 10.5t10 24.5q0 15 -10 25t-25 10 q-14 0 -24.5 -10t-10.5 -25z" />
<glyph unicode="&#x26;" horiz-adv-x="494" d="M37 182q0 49 21.5 97t64.5 77l-14 17q-47 54 -47 103q0 74 55.5 122.5t119.5 48.5q39 0 73 -28.5t49 -55t15 -35.5q0 -8 -6 -14t-15 -6q-10 0 -21 15t-20.5 33.5t-30 33.5t-46.5 15q-49 0 -89 -35.5t-40 -93.5q0 -37 39 -82l240 -277q34 47 34 110q0 31 22 31 q19 0 19 -31q0 -80 -46 -143l48 -55q6 -7 6 -18q0 -18 -17 -18q-13 0 -26 14l-39 45q-66 -61 -145 -61q-33 0 -67 10t-65.5 31t-51.5 60t-20 90zM79 182q0 -77 50 -113t112 -36q64 0 118 51l-208 241q-37 -21 -54.5 -61t-17.5 -82z" />
<glyph unicode="'" horiz-adv-x="183" d="M71 466v149q0 28 21 28q20 0 20 -28v-149q0 -28 -21 -28q-20 0 -20 28z" />
<glyph unicode="(" horiz-adv-x="237" d="M73 133v370q0 74 13.5 112.5t37.5 50.5t69 12v-42q-54 0 -66 -20.5t-12 -112.5v-370q0 -92 12 -112.5t66 -20.5v-42q-45 0 -69 12t-37.5 50.5t-13.5 112.5z" />
<glyph unicode=")" horiz-adv-x="236" d="M44 0q53 0 65 20.5t12 112.5v370q0 92 -12 112.5t-65 20.5v42q67 0 93 -33.5t26 -141.5v-370q0 -108 -26 -141.5t-93 -33.5v42z" />
<glyph unicode="*" horiz-adv-x="387" d="M65 429q0 12 16 22l70 41l-70 39q-16 10 -16 22q0 5 4.5 12.5t14.5 7.5q6 0 18 -5l70 -41v81q0 28 22 28q20 0 20 -28v-81l70 41q12 5 18 5q8 0 14 -6.5t6 -13.5q0 -11 -17 -22l-69 -39l69 -41q17 -11 17 -22q0 -5 -5 -12.5t-15 -7.5q-6 0 -18 5l-70 41v-81 q0 -28 -21 -28t-21 28v81l-70 -41q-12 -5 -18 -5q-8 0 -13.5 6.5t-5.5 13.5z" />
<glyph unicode="+" horiz-adv-x="510" d="M39 231q0 21 26 21h169v188q0 28 22 28q20 0 20 -28v-188h167q29 0 29 -23q0 -20 -29 -20h-167v-189q0 -27 -21 -27t-21 27v189h-169q-26 0 -26 22z" />
<glyph unicode="," horiz-adv-x="203" d="M50 -60q0 6 3 15l24 86q6 20 20 20q10 0 23 -5t13 -15q0 -9 -4 -17l-42 -83q-9 -21 -20 -21q-17 0 -17 20z" />
<glyph unicode="-" horiz-adv-x="446" d="M73 231q0 21 26 21h245q29 0 29 -23q0 -20 -29 -20h-245q-26 0 -26 22z" />
<glyph unicode="." horiz-adv-x="224" d="M66 29q0 14 15 25t31 11q15 0 30.5 -11t15.5 -25t-15.5 -25t-30.5 -11q-16 0 -31 11t-15 25z" />
<glyph unicode="/" horiz-adv-x="349" d="M43 11q0 5 3 16l218 598q6 20 20 20q22 0 22 -19q0 -7 -3 -16l-218 -598q-6 -20 -21 -20q-21 0 -21 19z" />
<glyph unicode="0" horiz-adv-x="598" d="M77 154v328q0 68 49 111t121 43h104q72 0 121 -43t49 -111v-328q0 -68 -49 -111t-121 -43h-104q-72 0 -121 43t-49 111zM119 138q0 -37 35 -66.5t85 -29.5h120q50 0 85 29.5t35 66.5v359q0 37 -35 66.5t-85 29.5h-120q-50 0 -85 -29.5t-35 -66.5v-359z" />
<glyph unicode="1" horiz-adv-x="243" d="M35 588q0 11 12 22l62 63q12 12 24 12q4 0 8.5 -1.5t9 -7t4.5 -14.5v-642q0 -27 -21 -27t-21 27v596l-34 -33q-12 -13 -25 -13q-19 0 -19 18z" />
<glyph unicode="2" horiz-adv-x="568" d="M62 529q0 58 22 82.5t73 24.5h142q51 0 85.5 -6.5t64 -24.5t43.5 -54t14 -91q0 -49 -41.5 -89t-100 -71t-117.5 -63.5t-100.5 -82.5t-41.5 -112h371q30 0 30 -22q0 -20 -30 -20h-413v44q0 51 22 94t57.5 71.5t78.5 53.5t85.5 46t78 42.5t57.5 49t22 59.5q0 86 -36 110 t-129 24h-135q-34 0 -47 -15t-13 -50q0 -30 -22 -30q-20 0 -20 30z" />
<glyph unicode="3" horiz-adv-x="576" d="M63 106q0 31 21 31t21 -28q0 -32 47.5 -49.5t92.5 -17.5h80q80 0 110.5 32.5t30.5 91.5q0 50 -65.5 94t-120.5 44q-32 0 -32 22q0 21 32 21q57 0 121.5 37.5t64.5 85.5q0 59 -30.5 91.5t-110.5 32.5h-80q-45 0 -92.5 -17.5t-47.5 -49.5q0 -28 -21 -28t-21 30 q0 42 47 74.5t128 32.5h77q104 0 148 -41t44 -144q0 -35 -48.5 -76.5t-81.5 -48.5q32 -6 81 -55t49 -86q0 -103 -44 -144t-148 -41h-77q-81 0 -128 32.5t-47 73.5z" />
<glyph unicode="4" horiz-adv-x="513" d="M32 175v56l303 405h57v-419h61q27 0 27 -21t-27 -21h-61v-155q0 -27 -21 -27t-21 27v155h-318zM69 217h281v377z" />
<glyph unicode="5" d="M63 90q0 8 6 14.5t13 6.5q3 0 30.5 -19.5t72 -39t90.5 -19.5q85 0 132.5 51.5t47.5 142.5q0 44 -16 78t-40.5 52t-49.5 26.5t-49 8.5h-231l9 120q6 69 30 96.5t79 27.5h241q27 0 27 -22q0 -20 -27 -20h-247q-28 0 -42 -15t-17 -50l-6 -95h175q80 0 143 -56.5t63 -150.5 q0 -110 -62.5 -173t-159.5 -63q-62 0 -137 34.5t-75 64.5z" />
<glyph unicode="6" horiz-adv-x="536" d="M52 207q0 89 21.5 166t51.5 124.5t64 82.5t58.5 49.5t34.5 14.5q22 0 22 -18q0 -13 -18 -23q-53 -29 -101.5 -91t-72.5 -153q64 64 162 64q95 0 158.5 -61t63.5 -155t-63.5 -155t-158.5 -61t-158.5 61t-63.5 155zM94 207q0 -78 48.5 -126t131.5 -48t131.5 48t48.5 126 t-48.5 126t-131.5 48t-131.5 -48t-48.5 -126z" />
<glyph unicode="7" horiz-adv-x="478" d="M29 529q0 58 22 82.5t73 24.5h310q21 0 21 -18q0 -8 -4 -19l-213 -586q-8 -23 -21 -23q-22 0 -22 19q0 8 4 19l206 566h-273q-34 0 -47.5 -15t-13.5 -50q0 -30 -21 -30t-21 30z" />
<glyph unicode="8" horiz-adv-x="592" d="M74 174q0 115 70 152q-70 32 -70 146q0 45 10.5 75.5t26 48t45 26.5t56.5 11.5t70 2.5h29q43 0 70 -2.5t56 -11.5t44.5 -26.5t26 -48t10.5 -75.5q0 -115 -69 -146q69 -36 69 -152q0 -55 -14 -90.5t-43.5 -53.5t-64 -24t-85.5 -6h-29q-106 0 -157 34.5t-51 139.5zM116 174 q0 -36 7 -60.5t18.5 -38.5t34 -21.5t45.5 -9.5t61 -2h29q47 0 73.5 3.5t50 16.5t32.5 40t9 72t-9.5 72t-32.5 40.5t-49.5 17t-73.5 3.5h-29q-48 0 -74.5 -3.5t-49.5 -17t-32.5 -40.5t-9.5 -72zM116 472q0 -30 4 -51.5t15 -35t21.5 -21t33.5 -11t40 -4t52 -0.5h29 q35 0 51.5 0.5t40 4t33.5 11t21 21t15 35t4 51.5q0 36 -7.5 59.5t-17.5 36t-35 18.5t-44 7t-61 1h-29q-42 0 -61 -1t-44.5 -7t-35.5 -18.5t-17.5 -36t-7.5 -59.5z" />
<glyph unicode="9" horiz-adv-x="537" d="M42 471q0 53 25.5 89t67.5 51t75 20t69 5q207 0 207 -166q0 -107 -30.5 -200t-79.5 -154.5t-110 -96.5t-123 -35q-26 0 -26 22q0 21 26 21q35 0 76.5 18.5t84.5 55t78 100.5t51 144q-50 -38 -154 -38q-237 0 -237 164zM84 471q0 -32 13 -55.5t31.5 -36t47 -20t51 -9 t52.5 -1.5q165 0 165 121q0 124 -165 124q-195 0 -195 -123z" />
<glyph unicode=":" horiz-adv-x="238" d="M73 80q0 14 15 25t31 11q15 0 30.5 -11t15.5 -25t-15.5 -25t-30.5 -11q-16 0 -31 11t-15 25zM73 433q0 14 15 25t31 11q15 0 30.5 -11t15.5 -25t-15.5 -25t-30.5 -11q-16 0 -31 11t-15 25z" />
<glyph unicode=";" horiz-adv-x="241" d="M73 433q0 14 15 25t31 11q15 0 30.5 -11t15.5 -25t-15.5 -25t-30.5 -11q-16 0 -31 11t-15 25zM80 -9q0 6 3 15l24 86q6 20 20 20q10 0 23 -5t13 -15q0 -9 -4 -17l-42 -83q-9 -21 -20 -21q-17 0 -17 20z" />
<glyph unicode="&#x3c;" horiz-adv-x="522" d="M33 333q0 12 16 21l363 210q9 5 18 5q20 0 20 -18q0 -12 -16 -24l-339 -194l338 -196q17 -9 17 -21q0 -6 -4.5 -14t-14.5 -8q-7 0 -19 6l-363 210q-16 11 -16 23z" />
<glyph unicode="=" horiz-adv-x="458" d="M79 281q0 21 26 21h245q29 0 29 -23q0 -20 -29 -20h-245q-26 0 -26 22zM79 384q0 21 26 21h245q29 0 29 -23q0 -20 -29 -20h-245q-26 0 -26 22z" />
<glyph unicode="&#x3e;" horiz-adv-x="522" d="M72 113q0 13 16 23l339 195l-338 195q-17 9 -17 22q0 6 4.5 13.5t14.5 7.5q7 0 18 -6l364 -210q16 -11 16 -22q0 -13 -16 -22l-364 -210q-8 -5 -17 -5q-20 0 -20 19z" />
<glyph unicode="?" horiz-adv-x="528" d="M39 471q0 55 14 90.5t44.5 53t64.5 23.5t86 6h76q86 0 123.5 -47t37.5 -113t-27.5 -101t-95.5 -54l-94 -26v-109q0 -28 -21 -28t-21 28v140l153 42q28 8 46 37t18 71q0 44 -24.5 81t-77.5 37h-93q-48 0 -74.5 -3.5t-50 -16t-32.5 -39.5t-9 -72q0 -28 -21 -28 q-22 0 -22 28zM201 29q0 14 15 25t31 11q15 0 30.5 -11t15.5 -25t-15.5 -25t-30.5 -11q-16 0 -31 11t-15 25z" />
<glyph unicode="@" horiz-adv-x="584" d="M71 241v154q0 113 56.5 177t151.5 64h29q95 0 151.5 -64t56.5 -177q0 -31 -1 -51t-6 -44t-13.5 -38.5t-24.5 -30t-39 -23.5t-57 -13t-78 -5q-70 0 -95.5 32.5t-25.5 109.5q0 76 25.5 108.5t95.5 32.5q71 0 96.5 -32.5t25.5 -108.5q0 -57 -13 -89q28 6 41 18t20 43t7 91 q0 94 -42 146.5t-124 52.5h-29q-82 0 -124 -52.5t-42 -146.5v-154q0 -94 42 -146.5t124 -52.5h134q34 0 47.5 15t13.5 52q0 28 20 28q22 0 22 -31q0 -22 -3 -38t-12 -33t-29.5 -26t-51.5 -9h-141q-95 0 -151.5 64t-56.5 177zM218 332q0 -59 14 -79.5t65 -20.5q52 0 66 20.5 t14 79.5q0 58 -14 78.5t-66 20.5q-51 0 -65 -20.5t-14 -78.5z" />
<glyph unicode="A" d="M23 4q0 6 3 14l225 618h46l225 -618q3 -7 3 -14q0 -20 -21 -20q-14 0 -22 20l-72 200h-272l-72 -200q-9 -20 -22 -20q-21 0 -21 20zM154 246h240l-121 329z" />
<glyph unicode="B" horiz-adv-x="584" d="M84 31v574q0 31 19 31h176q103 0 155 -32t52 -118q0 -84 -55 -119q49 -15 73 -53t24 -110v-29q0 -105 -51 -140t-156 -35h-218q-19 0 -19 31zM126 42h195q47 0 73.5 3.5t49.5 17t32.5 40.5t9.5 72v29q0 45 -9.5 72t-32.5 40.5t-49.5 17t-73.5 3.5h-195v-295zM126 379h153 q90 0 127.5 21t37.5 86q0 66 -37.5 87t-127.5 21h-153v-215z" />
<glyph unicode="C" horiz-adv-x="572" d="M72 175v286q0 105 51 140t157 35h141q31 0 51.5 -9t29 -26t11.5 -33t3 -39q0 -30 -21 -30t-21 28q0 36 -13 51.5t-47 15.5h-134q-48 0 -74.5 -3.5t-49.5 -17t-32.5 -40.5t-9.5 -72v-286q0 -45 9.5 -72t32.5 -40.5t49.5 -17t74.5 -3.5h134q34 0 47 15t13 52q0 28 21 28 t21 -31q0 -22 -3 -38t-11.5 -33t-29 -26t-51.5 -9h-141q-106 0 -157 35t-51 140z" />
<glyph unicode="D" horiz-adv-x="600" d="M84 31v574q0 31 19 31h218q105 0 156 -35t51 -140v-286q0 -105 -51 -140t-156 -35h-218q-19 0 -19 31zM126 42h195q47 0 73.5 3.5t49.5 17t32.5 40.5t9.5 72v286q0 45 -9.5 72t-32.5 40.5t-49.5 17t-73.5 3.5h-195v-552z" />
<glyph unicode="E" horiz-adv-x="577" d="M84 31v574q0 31 19 31h396q29 0 29 -23q0 -19 -29 -19h-373v-215h255q30 0 30 -23q0 -19 -30 -19h-255v-295h373q29 0 29 -23q0 -19 -29 -19h-396q-19 0 -19 31z" />
<glyph unicode="F" horiz-adv-x="558" d="M84 23v582q0 31 19 31h396q29 0 29 -23q0 -19 -29 -19h-373v-215h255q30 0 30 -23q0 -19 -30 -19h-255v-314q0 -30 -21 -30t-21 30z" />
<glyph unicode="G" horiz-adv-x="585" d="M72 175v286q0 55 14 91t44 54t64 24t86 6h141q31 0 51.5 -9t29 -26t11.5 -33t3 -38q0 -31 -21 -31t-21 29q0 36 -13 51t-47 15h-134q-48 0 -74.5 -3.5t-49.5 -17t-32.5 -40.5t-9.5 -72v-286q0 -45 9.5 -72t32.5 -40.5t49.5 -17t74.5 -3.5h134q34 0 47 15t13 51v143h-133 q-30 0 -30 20q0 22 30 22h175v-187q0 -22 -3 -38t-11.5 -33t-29 -26t-51.5 -9h-141q-52 0 -86 6t-64 24t-44 54t-14 91z" />
<glyph unicode="H" horiz-adv-x="612" d="M84 23v589q0 31 19 31q23 0 23 -31v-248h360v248q0 31 20 31q22 0 22 -31v-589q0 -30 -20 -30q-22 0 -22 30v299h-360v-299q0 -30 -21 -30t-21 30z" />
<glyph unicode="I" horiz-adv-x="210" d="M84 20v595q0 28 21 28t21 -28v-595q0 -27 -22 -27q-20 0 -20 27z" />
<glyph unicode="J" horiz-adv-x="530" d="M32 167q0 28 23 28q20 0 20 -28q0 -86 36 -109.5t130 -23.5q48 0 74.5 3.5t49.5 17t32.5 40.5t9.5 72v448q0 28 21 28t21 -28v-448q0 -55 -14 -91t-44 -54t-64 -24t-86 -6t-86.5 6t-64.5 24t-44 54t-14 91z" />
<glyph unicode="K" horiz-adv-x="497" d="M84 20v595q0 28 21 28t21 -28v-294l260 309q10 13 21 13q7 0 13.5 -5.5t6.5 -13.5q0 -10 -9 -21l-206 -246l272 -324q10 -10 10 -20q0 -8 -7 -14t-14 -6q-11 0 -21 13l-268 319l-58 -70v-235q0 -27 -22 -27q-20 0 -20 27z" />
<glyph unicode="L" horiz-adv-x="495" d="M84 31v584q0 28 21 28t21 -28v-573h318q28 0 28 -22q0 -20 -28 -20h-341q-19 0 -19 31z" />
<glyph unicode="M" horiz-adv-x="633" d="M84 23v589q0 31 19 31q15 0 26 -17l187 -284l188 284q11 17 25 17q20 0 20 -31v-589q0 -30 -22 -30q-20 0 -20 30v534l-178 -272q-5 -6 -13 -6q-7 0 -12 6l-178 272v-534q0 -30 -21 -30t-21 30z" />
<glyph unicode="N" horiz-adv-x="612" d="M84 23v589q0 31 19 31q15 0 26 -17l357 -542v528q0 31 20 31q22 0 22 -31v-589q0 -30 -20 -30q-12 0 -16 7l-366 557v-534q0 -30 -21 -30t-21 30z" />
<glyph unicode="O" horiz-adv-x="574" d="M65 227v182q0 110 62.5 173t159.5 63t159.5 -63t62.5 -173v-182q0 -110 -62.5 -173t-159.5 -63t-159.5 63t-62.5 173zM107 227q0 -91 48 -142.5t132 -51.5t132 51.5t48 142.5v182q0 91 -48 142.5t-132 51.5t-132 -51.5t-48 -142.5v-182z" />
<glyph unicode="P" horiz-adv-x="520" d="M84 20v585q0 31 19 31h176q103 0 155 -32t52 -118q0 -73 -43.5 -111t-121.5 -38h-195v-317q0 -27 -22 -27q-20 0 -20 27zM126 379h153q90 0 127.5 21t37.5 86q0 66 -37.5 87t-127.5 21h-153v-215z" />
<glyph unicode="Q" horiz-adv-x="574" d="M65 227v182q0 110 62.5 173t159.5 63t159.5 -63t62.5 -173v-182q0 -99 -51 -160l38 -38q10 -10 10 -21q0 -7 -5.5 -13.5t-13.5 -6.5t-21 11l-37 38q-60 -46 -142 -46q-97 0 -159.5 63t-62.5 173zM107 227q0 -91 48 -142.5t132 -51.5q69 0 112 34l-58 57q-11 11 -11 20 q0 7 6 14t14 7q10 0 21 -11l58 -59q38 50 38 132v182q0 91 -48 142.5t-132 51.5t-132 -51.5t-48 -142.5v-182z" />
<glyph unicode="R" horiz-adv-x="549" d="M84 20v585q0 31 19 31h176q103 0 155 -32t52 -118q0 -63 -32 -100t-91 -46q33 -26 65.5 -104.5t49 -141t16.5 -74.5q0 -27 -22 -27q-9 0 -14.5 8t-5.5 19q0 14 -14 71t-48 135t-76 111h-188v-317q0 -27 -22 -27q-20 0 -20 27zM126 379h153q90 0 127.5 21t37.5 86 q0 66 -37.5 87t-127.5 21h-153v-215z" />
<glyph unicode="S" horiz-adv-x="570" d="M62 167q0 28 23 28q20 0 20 -28q0 -86 36 -109.5t130 -23.5h93q53 0 77.5 38t24.5 82q0 51 -20.5 84t-43.5 38l-216 53q-68 16 -96 52t-28 103q0 66 38 113t124 47h76q52 0 86 -6t64 -23.5t44 -53t14 -90.5q0 -28 -22 -28q-21 0 -21 28q0 45 -9 72t-32.5 39.5t-49.5 16 t-74 3.5h-94q-53 0 -77.5 -37.5t-24.5 -80.5q0 -42 18.5 -71.5t45.5 -36.5l217 -52q123 -31 123 -170q0 -66 -37.5 -114t-123.5 -48h-76q-52 0 -86.5 6t-64.5 24t-44 54t-14 91z" />
<glyph unicode="T" horiz-adv-x="460" d="M26 615q0 21 28 21h351q28 0 28 -22q0 -20 -28 -20h-154v-574q0 -27 -22 -27q-20 0 -20 27v574h-155q-28 0 -28 21z" />
<glyph unicode="U" horiz-adv-x="598" d="M77 227v388q0 28 21 28t21 -28v-388q0 -91 48 -142.5t132 -51.5t132 51.5t48 142.5v388q0 28 22 28q20 0 20 -28v-388q0 -110 -62.5 -173t-159.5 -63t-159.5 63t-62.5 173z" />
<glyph unicode="V" d="M23 632q0 7 4.5 12t9 6.5t7.5 1.5q13 0 22 -20l208 -572l208 572q8 20 22 20q3 0 7.5 -1.5t9 -6.5t4.5 -12q0 -6 -3 -15l-225 -617h-46l-225 617q-3 9 -3 15z" />
<glyph unicode="W" horiz-adv-x="892" d="M24 632q0 7 5.5 12t10.5 6.5t8 1.5q13 0 19 -20l178 -572l176 570q7 22 23 22q18 0 25 -22l177 -570l176 572q8 20 20 20q3 0 8 -1.5t10 -6.5t5 -12q0 -6 -3 -15l-192 -617h-50l-176 565l-175 -565h-49l-188 617q-1 3 -4.5 8t-3.5 7z" />
<glyph unicode="X" horiz-adv-x="537" d="M35 12q0 9 7 20l201 285l-201 287q-7 8 -7 19q0 8 6.5 14t13.5 6q11 0 22 -16l191 -273l192 273q11 16 21 16q7 0 14 -6t7 -14q0 -11 -7 -19l-201 -287l201 -285q7 -11 7 -20q0 -8 -6.5 -13.5t-14.5 -5.5q-10 0 -21 14l-192 274l-191 -274q-11 -14 -22 -14 q-7 0 -13.5 5.5t-6.5 13.5z" />
<glyph unicode="Y" horiz-adv-x="499" d="M16 623q0 8 6.5 14t13.5 6q10 0 21 -16l192 -273l191 273q13 16 22 16q7 0 13.5 -6t6.5 -14q0 -9 -7 -19l-205 -294v-290q0 -27 -21 -27q-20 0 -20 27v290l-206 294q-7 10 -7 19z" />
<glyph unicode="Z" horiz-adv-x="535" d="M45 615q0 21 31 21h413v-46l-394 -548h364q30 0 30 -22q0 -20 -30 -20h-413v44l396 550h-366q-31 0 -31 21z" />
<glyph unicode="[" horiz-adv-x="244" d="M80 -42v720h120v-42h-78v-636h78v-42h-120z" />
<glyph unicode="\" horiz-adv-x="349" d="M43 626q0 19 21 19q15 0 21 -20l218 -598q3 -10 3 -16q0 -19 -22 -19q-14 0 -20 20l-218 598q-3 9 -3 16z" />
<glyph unicode="]" horiz-adv-x="244" d="M44 0h78v636h-78v42h120v-720h-120v42z" />
<glyph unicode="^" horiz-adv-x="443" d="M85 383q0 2 2 10l108 243h54l107 -243q2 -4 2 -10q0 -18 -18 -18q-15 0 -24 18l-93 207h-3l-93 -207q-9 -18 -24 -18q-18 0 -18 18z" />
<glyph unicode="_" horiz-adv-x="475" d="M0 -20q0 20 28 20h419q28 0 28 -22q0 -20 -28 -20h-419q-28 0 -28 22z" />
<glyph unicode="`" horiz-adv-x="212" d="M34 657q0 9 6.5 15t13.5 6q9 0 21 -13l96 -115q8 -9 8 -20q0 -8 -6.5 -14t-13.5 -6q-9 0 -21 13l-96 115q-8 9 -8 19z" />
<glyph unicode="a" horiz-adv-x="534" d="M60 120q0 42 10 73t27 49.5t44 29t57 14.5t70 4h152v64q0 35 -13 50t-47 15h-141q-117 0 -117 -65q0 -30 -22 -30q-20 0 -20 30q0 54 42.5 80.5t109.5 26.5h155q55 0 75 -27t20 -97v-314q0 -30 -21 -30t-21 30v49q-54 -72 -165 -72h-93q-45 0 -73.5 32.5t-28.5 87.5z M102 115q0 -28 18.5 -50.5t41.5 -22.5h93q79 0 122 48t43 138v20h-152q-48 0 -74.5 -3.5t-49.5 -17t-32.5 -40.5t-9.5 -72z" />
<glyph unicode="b" horiz-adv-x="580" d="M74 23v589q0 31 19 31q23 0 23 -31v-223q56 72 166 72h29q105 0 156 -35t51 -140v-111q0 -105 -51 -140t-156 -35h-29q-110 0 -166 72v-49q0 -30 -21 -30t-21 30zM116 228q0 -90 43 -138t123 -48h29q47 0 73.5 3.5t49.5 17t32.5 40.5t9.5 72v111q0 45 -9.5 72t-32.5 40.5 t-49.5 17t-73.5 3.5h-29q-80 0 -123 -48.5t-43 -138.5v-4z" />
<glyph unicode="c" horiz-adv-x="564" d="M62 175v111q0 105 51 140t157 35h141q31 0 51.5 -9t29 -26.5t11.5 -33t3 -38.5q0 -30 -21 -30t-21 28q0 36 -13 51.5t-47 15.5h-134q-48 0 -74.5 -3.5t-49.5 -17t-32.5 -40.5t-9.5 -72v-111q0 -45 9.5 -72t32.5 -40.5t49.5 -17t74.5 -3.5h134q34 0 47 15t13 52 q0 28 21 28t21 -31q0 -22 -3 -38t-11.5 -33t-29 -26t-51.5 -9h-141q-106 0 -157 35t-51 140z" />
<glyph unicode="d" horiz-adv-x="580" d="M62 175v111q0 105 51 140t157 35h194v151q0 31 23 31q19 0 19 -31v-589q0 -30 -21 -30t-21 30v49q-54 -72 -165 -72h-29q-106 0 -157 35t-51 140zM104 175q0 -45 9.5 -72t32.5 -40.5t49.5 -17t74.5 -3.5h29q79 0 122 48t43 138v191h-194q-48 0 -74.5 -3.5t-49.5 -17 t-32.5 -40.5t-9.5 -72v-111z" />
<glyph unicode="e" horiz-adv-x="566" d="M62 175v111q0 105 51 140t157 35h29q105 0 156 -35t51 -140v-36h-402v-75q0 -45 9.5 -72t32.5 -40.5t49.5 -17t74.5 -3.5h134q34 0 47 15t13 52q0 28 21 28t21 -31q0 -22 -3 -38t-11.5 -33t-29 -26t-51.5 -9h-141q-106 0 -157 35t-51 140zM104 292h360q0 81 -37 104 t-128 23h-29q-92 0 -129 -23t-37 -104z" />
<glyph unicode="f" horiz-adv-x="313" d="M48 441q0 20 31 20q0 56 14 91.5t44 53.5t64 24t86 6q31 0 31 -23q0 -19 -31 -19q-48 0 -74.5 -3.5t-49.5 -17t-32.5 -40.5t-9.5 -72h143q31 0 31 -23q0 -19 -31 -19h-143v-395q0 -31 -23 -31q-19 0 -19 31v395q-31 0 -31 22z" />
<glyph unicode="g" horiz-adv-x="581" d="M62 -98q0 30 21 30t21 -28q0 -36 13 -51.5t47 -15.5h249q31 0 41 11.5t10 43.5v117q-20 -9 -53 -9h-141q-106 0 -157 35t-51 140v111q0 105 51 140t157 35h29q111 0 165 -72v49q0 30 21 30t21 -30v-530q0 -64 -18 -88.5t-68 -24.5h-263q-31 0 -51.5 9t-29 26.5t-11.5 33 t-3 38.5zM104 175q0 -45 9.5 -72t32.5 -40.5t49.5 -17t74.5 -3.5h134q34 0 47 14.5t13 49.5v126q0 90 -43 138.5t-122 48.5h-29q-48 0 -74.5 -3.5t-49.5 -17t-32.5 -40.5t-9.5 -72v-111z" />
<glyph unicode="h" horiz-adv-x="588" d="M74 23v589q0 31 19 31q23 0 23 -31v-223q56 72 166 72h29q105 0 156 -35t51 -140v-263q0 -30 -20 -30q-22 0 -22 30v263q0 45 -9.5 72t-32.5 40.5t-49.5 17t-73.5 3.5h-29q-80 0 -123 -48.5t-43 -138.5v-209q0 -30 -21 -30t-21 30z" />
<glyph unicode="i" horiz-adv-x="190" d="M49 601q0 14 15 25t31 11q15 0 30.5 -11t15.5 -25t-15.5 -25t-30.5 -11q-16 0 -31 11t-15 25zM74 20v420q0 28 21 28t21 -28v-420q0 -27 -22 -27q-20 0 -20 27z" />
<glyph unicode="j" horiz-adv-x="192" d="M-122 -153q0 20 31 20q48 0 74.5 3.5t49.5 17t32.5 40.5t9.5 72v437q0 31 22 31q20 0 20 -31v-437q0 -56 -14 -92t-44 -53.5t-64 -23.5t-86 -6q-31 0 -31 22zM50 601q0 14 15.5 25t30.5 11q16 0 31 -11t15 -25t-15 -25t-31 -11q-15 0 -30.5 11t-15.5 25z" />
<glyph unicode="k" horiz-adv-x="433" d="M74 20v595q0 28 21 28t21 -28v-353l192 193q13 11 21 11q7 0 13.5 -6t6.5 -15t-11 -20l-159 -159l232 -231q10 -10 10 -21q0 -7 -5.5 -13.5t-13.5 -6.5q-10 0 -21 11l-231 232l-34 -34v-183q0 -27 -22 -27q-20 0 -20 27z" />
<glyph unicode="l" horiz-adv-x="260" d="M90 124v489q0 30 21 30t21 -30v-507q0 -35 13 -49.5t47 -14.5q30 0 30 -22q0 -20 -30 -20h-7q-55 0 -75 27t-20 97z" />
<glyph unicode="m" horiz-adv-x="812" d="M74 23v414q0 31 19 31q23 0 23 -31v-48q30 39 59 55.5t76 16.5q67 0 108 -18t58 -69q47 87 146 87q89 0 133.5 -35t44.5 -140v-263q0 -30 -21 -30t-21 30v263q0 45 -7 72t-26 40.5t-41 17t-62 3.5q-64 0 -99.5 -48.5t-35.5 -138.5v-209q0 -30 -20 -30q-22 0 -22 30v263 q0 45 -7 72t-26 40.5t-40.5 17t-61.5 3.5q-64 0 -99.5 -48.5t-35.5 -138.5v-209q0 -30 -21 -30t-21 30z" />
<glyph unicode="n" horiz-adv-x="587" d="M74 23v414q0 31 19 31q23 0 23 -31v-48q56 72 166 72h29q105 0 156 -35t51 -140v-263q0 -30 -20 -30q-22 0 -22 30v263q0 45 -9.5 72t-32.5 40.5t-49.5 17t-73.5 3.5h-29q-80 0 -123 -48.5t-43 -138.5v-209q0 -30 -21 -30t-21 30z" />
<glyph unicode="o" horiz-adv-x="568" d="M62 175v111q0 105 51 140t157 35h29q105 0 156 -35t51 -140v-111q0 -105 -51 -140t-156 -35h-29q-106 0 -157 35t-51 140zM104 175q0 -45 9.5 -72t32.5 -40.5t49.5 -17t74.5 -3.5h29q47 0 73.5 3.5t49.5 17t32.5 40.5t9.5 72v111q0 45 -9.5 72t-32.5 40.5t-49.5 17 t-73.5 3.5h-29q-48 0 -74.5 -3.5t-49.5 -17t-32.5 -40.5t-9.5 -72v-111z" />
<glyph unicode="p" horiz-adv-x="581" d="M75 -152v590q0 30 21 30t21 -30v-49q56 72 166 72h29q105 0 156 -35t51 -140v-111q0 -105 -51 -140t-156 -35h-195v-152q0 -30 -23 -30q-19 0 -19 30zM117 42h195q47 0 73.5 3.5t49.5 17t32.5 40.5t9.5 72v111q0 45 -9.5 72t-32.5 40.5t-49.5 17t-73.5 3.5h-29 q-80 0 -123 -48.5t-43 -138.5v-190z" />
<glyph unicode="q" horiz-adv-x="581" d="M62 175v111q0 105 51 140t157 35h29q111 0 165 -72v49q0 30 21 30t21 -30v-590q0 -30 -19 -30q-23 0 -23 30v152h-194q-106 0 -157 35t-51 140zM104 175q0 -45 9.5 -72t32.5 -40.5t49.5 -17t74.5 -3.5h194v190q0 90 -43 138.5t-122 48.5h-29q-48 0 -74.5 -3.5t-49.5 -17 t-32.5 -40.5t-9.5 -72v-111z" />
<glyph unicode="r" horiz-adv-x="372" d="M74 23v414q0 31 19 31q23 0 23 -31v-48q56 72 166 72h46q30 0 30 -21t-30 -21h-46q-80 0 -123 -48.5t-43 -138.5v-209q0 -30 -21 -30t-21 30z" />
<glyph unicode="s" horiz-adv-x="566" d="M60 106q0 31 21 31t21 -28q0 -37 13 -52t47 -15h238q64 0 64 81q0 42 -18 67t-46 25h-216q-124 0 -124 128q0 58 28.5 88t95.5 30h225q31 0 51.5 -9t29 -26.5t11.5 -33t3 -38.5q0 -30 -21 -30t-21 28q0 36 -13 51.5t-47 15.5h-236q-64 0 -64 -76q0 -41 18 -63.5t46 -22.5 h217q123 0 123 -134q0 -123 -123 -123h-228q-31 0 -51.5 9t-29 26t-11.5 33t-3 38z" />
<glyph unicode="t" horiz-adv-x="330" d="M46 441q0 20 31 20v109q0 31 19 31q23 0 23 -31v-109h143q31 0 31 -23q0 -19 -31 -19h-143v-244q0 -45 9.5 -72t32.5 -40.5t49.5 -17t74.5 -3.5q30 0 30 -19q0 -23 -30 -23q-51 0 -86 6.5t-64.5 24.5t-43.5 53.5t-14 90.5v244q-31 0 -31 22z" />
<glyph unicode="u" horiz-adv-x="588" d="M70 175v263q0 30 20 30q22 0 22 -30v-263q0 -45 9.5 -72t32.5 -40.5t49.5 -17t74.5 -3.5h29q79 0 122 48t43 138v210q0 30 21 30t21 -30v-414q0 -31 -19 -31q-23 0 -23 31v48q-54 -72 -165 -72h-29q-106 0 -157 35t-51 140z" />
<glyph unicode="v" horiz-adv-x="499" d="M28 449q0 8 5.5 13.5t13.5 5.5q15 0 23 -19l173 -403h7l180 404q9 18 23 18q19 0 19 -18q0 -8 -3 -11l-193 -439h-64l-181 439q-3 2 -3 10z" />
<glyph unicode="w" horiz-adv-x="771" d="M31 449q0 7 10 13t17 6q10 0 17 -19l139 -403h6l144 404q3 17 23 17q16 0 21 -17l138 -404h6l145 404q6 18 17 18q8 0 17.5 -5.5t9.5 -12.5q0 -8 -3 -11l-155 -439h-71l-126 384l-136 -384h-71l-145 439q-3 2 -3 10z" />
<glyph unicode="x" horiz-adv-x="488" d="M38 8q0 7 9 21l170 201l-170 203q-9 11 -9 20q0 8 6.5 13.5t13.5 5.5q10 0 21 -12l166 -197l165 197q10 12 20 12q7 0 13.5 -5.5t6.5 -13.5q0 -9 -9 -20l-170 -203l170 -201q9 -14 9 -21q0 -8 -6.5 -13.5t-13.5 -5.5q-10 0 -20 12l-165 197l-166 -197q-11 -12 -21 -12 q-7 0 -13.5 5.5t-6.5 13.5z" />
<glyph unicode="y" horiz-adv-x="589" d="M70 -98q0 30 21 30t21 -28q0 -36 13 -51.5t47 -15.5h249q31 0 41 11.5t10 43.5v180q-54 -72 -165 -72h-29q-106 0 -157 35t-51 140v261q0 32 21 32t21 -32v-261q0 -45 9.5 -72t32.5 -40.5t49.5 -17t74.5 -3.5h29q79 0 122 48t43 138v208q0 32 22 32q20 0 20 -32v-528 q0 -64 -18 -88.5t-68 -24.5h-263q-31 0 -51.5 9t-29 26.5t-11.5 33t-3 38.5z" />
<glyph unicode="z" horiz-adv-x="530" d="M58 0v59l354 360h-252q-39 0 -49.5 -20.5t-10.5 -61.5q0 -31 -22 -31q-20 0 -20 31q0 70 20 97t75 27h306v-62l-351 -357h269q28 0 42 12.5t16.5 27t2.5 42.5q0 31 21 31t21 -31q0 -70 -20.5 -97t-74.5 -27h-327z" />
<glyph unicode="{" horiz-adv-x="250" d="M34 317q9 4 21.5 12t33.5 30t21 41t-14 64.5t-14 63.5q0 89 27 119.5t93 30.5v-42q-52 0 -65 -20t-13 -88q0 -12 14 -57.5t14 -70.5q0 -19 -19 -40t-38 -32l-19 -11q9 -4 21.5 -11.5t33.5 -29t21 -40.5q0 -26 -14 -71t-14 -57q0 -69 13 -88.5t65 -19.5v-42 q-66 0 -93 30.5t-27 119.5q0 18 14 63.5t14 64.5t-19 39.5t-38 30.5z" />
<glyph unicode="|" horiz-adv-x="204" d="M81 20v595q0 28 21 28t21 -28v-595q0 -27 -22 -27q-20 0 -20 27z" />
<glyph unicode="}" horiz-adv-x="251" d="M48 0q52 0 65 19.5t13 88.5q0 12 -14 57t-14 71q0 19 19 39.5t38 31.5l19 11q-9 4 -21.5 12t-33.5 29.5t-21 40.5q0 25 14 70.5t14 57.5q0 68 -13 88t-65 20v42q66 0 93 -30.5t27 -119.5q0 -18 -14 -63.5t-14 -64.5t19 -39.5t38 -31.5l19 -11q-9 -4 -21.5 -12 t-33.5 -29.5t-21 -40.5t14 -64.5t14 -63.5q0 -89 -27 -119.5t-93 -30.5v42z" />
<glyph unicode="~" horiz-adv-x="418" d="M73 201q0 13 12 22l47 39q5 7 15 7q3 0 11 -2l98 -36q4 -2 7 -2q4 0 11 5l31 28q11 8 19 8t14.5 -5t6.5 -13q0 -12 -12 -23l-47 -39q-7 -7 -16 -7q-4 0 -10 2l-98 36q-4 2 -8 2t-11 -5l-31 -28q-11 -8 -19 -8q-7 0 -13.5 5.5t-6.5 13.5z" />
<glyph unicode="&#xa1;" horiz-adv-x="218" d="M62 450q0 14 15.5 25t30.5 11q16 0 31.5 -11t15.5 -25t-15.5 -25t-31.5 -11q-15 0 -30.5 11t-15.5 25zM88 -138v420q0 28 21 28t21 -28v-420q0 -27 -22 -27q-20 0 -20 27z" />
<glyph unicode="&#xa2;" horiz-adv-x="471" d="M50 298v42q0 95 42.5 132.5t126.5 41.5v101q0 28 22 28q20 0 20 -28v-100h57q58 0 77 -29t19 -77q0 -31 -22 -31q-20 0 -20 29q0 36 -13.5 51t-47.5 15h-50v-308h48q34 0 47.5 15t13.5 51q0 29 20 29q22 0 22 -31q0 -22 -3 -38t-12 -33t-29.5 -26t-51.5 -9h-55v-103 q0 -27 -22 -27q-20 0 -20 27v104q-85 4 -127 41t-42 133zM92 298q0 -77 28.5 -103.5t98.5 -28.5v306q-68 -2 -97.5 -29.5t-29.5 -102.5v-42z" />
<glyph unicode="&#xa3;" horiz-adv-x="491" d="M65 23q0 5 1 8l38 437q5 55 21 91.5t42.5 53.5t53 23.5t62.5 6.5q69 0 108.5 -29.5t39.5 -112.5q0 -28 -22 -28q-20 0 -20 28q0 34 -8 55.5t-25.5 30.5t-33.5 11.5t-43 2.5q-60 0 -93 -25t-40 -108l-9 -104h39q27 0 27 -22q0 -20 -27 -20h-43l-24 -280h296q28 0 28 -22 q0 -20 -28 -20h-323q-17 0 -17 23z" />
<glyph unicode="&#xa4;" horiz-adv-x="493" d="M72 76q0 10 11 21l48 48q-28 37 -28 85q0 49 28 85l-48 49q-11 11 -11 20q0 7 6.5 13.5t13.5 6.5q9 0 20 -11l49 -48q37 29 86 29q48 0 85 -29l48 48q11 11 21 11q6 0 13 -5.5t7 -13.5q0 -11 -12 -21l-48 -49q29 -35 29 -85q0 -48 -29 -85l48 -48q12 -10 12 -20 q0 -7 -7 -14t-14 -7q-10 0 -20 12l-48 48q-37 -29 -85 -29q-49 0 -86 29l-49 -48q-10 -12 -21 -12q-6 0 -12.5 5.5t-6.5 14.5zM137 230q0 -45 32 -77t78 -32q45 0 77 32t32 77q0 46 -32 78t-77 32q-46 0 -78 -32t-32 -78z" />
<glyph unicode="&#xa5;" horiz-adv-x="529" d="M32 623q0 8 6.5 14t13.5 6q10 0 21 -16l192 -273l191 273q13 16 22 16q7 0 13.5 -6t6.5 -14q0 -9 -7 -19l-205 -294v-38h99q28 0 28 -22q0 -21 -28 -21h-99v-46h99q28 0 28 -22q0 -21 -28 -21h-99v-120q0 -27 -21 -27q-20 0 -20 27v120h-105q-27 0 -27 23q0 20 27 20h105 v46h-105q-27 0 -27 23q0 20 27 20h105v38l-206 294q-7 10 -7 19z" />
<glyph unicode="&#xa6;" horiz-adv-x="207" d="M83 22v215q0 26 21 26q20 0 20 -26v-215q0 -29 -22 -29q-19 0 -19 29zM83 401v215q0 27 21 27q20 0 20 -27v-215q0 -28 -22 -28q-19 0 -19 28z" />
<glyph unicode="&#xa7;" horiz-adv-x="510" d="M75 86q0 25 22 25q8 0 14 -6t6 -17q0 -29 8.5 -37.5t36.5 -8.5h184q27 0 37 13.5t10 43.5q0 69 -43 75l-175 25q-100 14 -100 107q0 76 53 93q-53 25 -53 96q0 99 100 99h185q25 0 41 -7t23 -21t9 -27t2 -31q0 -25 -21 -25t-21 23q0 29 -8.5 37.5t-36.5 8.5h-184 q-27 0 -37 -14t-10 -43q0 -69 43 -75l175 -25q100 -14 100 -106q0 -77 -53 -94q53 -25 53 -96q0 -99 -100 -99h-184q-33 0 -50.5 14t-21.5 30.5t-4 41.5zM117 306q0 -43 55 -64t135 -21q53 0 69.5 11t16.5 57q0 43 -55 63.5t-135 20.5q-53 0 -69.5 -11t-16.5 -56z" />
<glyph unicode="&#xa8;" horiz-adv-x="367" d="M65 630q0 14 15 25t31 11q15 0 30.5 -11t15.5 -25t-15.5 -25t-30.5 -11q-16 0 -31 11t-15 25zM211 630q0 14 15 25t31 11q15 0 30.5 -11t15.5 -25t-15.5 -25t-30.5 -11q-16 0 -31 11t-15 25z" />
<glyph unicode="&#xa9;" horiz-adv-x="604" d="M80 262v111q0 105 51 140t157 35h29q105 0 156 -35t51 -140v-111q0 -105 -51 -140t-156 -35h-29q-106 0 -157 35t-51 140zM122 262q0 -45 9.5 -72t32.5 -40.5t49.5 -17t74.5 -3.5h29q47 0 73.5 3.5t49.5 17t32.5 40.5t9.5 72v111q0 45 -9.5 72t-32.5 40.5t-49.5 17 t-73.5 3.5h-29q-48 0 -74.5 -3.5t-49.5 -17t-32.5 -40.5t-9.5 -72v-111zM207 298v39q0 39 26.5 59t63.5 20h50q20 0 32 -10.5t15 -21t3 -22.5q0 -11 -15 -11q-14 0 -14 10q0 24 -23 24h-48q-25 0 -42.5 -12.5t-17.5 -35.5v-39q0 -23 17.5 -35.5t42.5 -12.5h48q23 0 23 23 q0 11 14 11q15 0 15 -12q0 -11 -3 -21.5t-15 -21t-32 -10.5h-50q-37 0 -63.5 20t-26.5 59z" />
<glyph unicode="&#xaa;" horiz-adv-x="376" d="M68 182q0 17 21 17h196q23 0 23 -19q0 -16 -23 -16h-196q-21 0 -21 18zM93 311q0 42 23.5 58t73.5 16h62v19q0 14 -5.5 20t-19.5 6h-79q-13 0 -18.5 -6t-5.5 -20q0 -12 -16 -12q-15 0 -15 12q0 24 14.5 40.5t37.5 16.5h85q53 0 53 -64v-139q0 -12 -16 -12q-15 0 -15 12 v34q-8 -22 -22 -32.5t-45 -10.5h-37q-24 0 -39.5 19t-15.5 43zM124 309q0 -11 7 -20t17 -9h37q32 0 49.5 19t17.5 55h-62q-37 0 -51.5 -8.5t-14.5 -36.5z" />
<glyph unicode="&#xab;" horiz-adv-x="484" d="M36 333q0 7 16 21l182 169q5 5 20 5t15 -14t-13 -28l-158 -153l158 -155q13 -13 13 -28t-15 -15q-14 0 -20 6l-182 169q-16 14 -16 23zM190 333q0 7 16 21l182 169q5 5 20 5t15 -14t-13 -28l-158 -153l158 -155q13 -13 13 -28t-15 -15q-14 0 -20 6l-182 169 q-16 14 -16 23z" />
<glyph unicode="&#xac;" horiz-adv-x="515" d="M83 231q0 21 26 21h298q29 0 29 -27v-84q0 -28 -23 -28q-20 0 -20 28v68h-284q-26 0 -26 22z" />
<glyph unicode="&#xad;" horiz-adv-x="446" d="M73 231q0 21 26 21h245q29 0 29 -23q0 -20 -29 -20h-245q-26 0 -26 22z" />
<glyph unicode="&#xae;" horiz-adv-x="604" d="M80 262v111q0 105 51 140t157 35h29q105 0 156 -35t51 -140v-111q0 -105 -51 -140t-156 -35h-29q-106 0 -157 35t-51 140zM122 262q0 -45 9.5 -72t32.5 -40.5t49.5 -17t74.5 -3.5h29q47 0 73.5 3.5t49.5 17t32.5 40.5t9.5 72v111q0 45 -9.5 72t-32.5 40.5t-49.5 17 t-73.5 3.5h-29q-48 0 -74.5 -3.5t-49.5 -17t-32.5 -40.5t-9.5 -72v-111zM203 217v194q0 10 14 10h84q104 0 104 -60q0 -21 -15 -37.5t-40 -19.5q15 -9 29.5 -30t21.5 -37.5t7 -19.5q0 -9 -16 -9q-5 0 -10 3t-5 6t-7.5 18t-24 36t-34.5 32h-77v-86q0 -9 -16 -9q-15 0 -15 9z M234 334h67q40 0 56.5 5t16.5 22q0 18 -16.5 23.5t-56.5 5.5h-67v-56z" />
<glyph unicode="&#xaf;" horiz-adv-x="429" d="M65 700q0 21 26 21h245q29 0 29 -23q0 -20 -29 -20h-245q-26 0 -26 22z" />
<glyph unicode="&#xb0;" horiz-adv-x="394" d="M54 535q0 59 42 101t101 42t101.5 -42t42.5 -101t-42.5 -101.5t-101.5 -42.5t-101 42.5t-42 101.5zM95 535q0 -43 30 -73t72 -30q43 0 73 30t30 73q0 42 -30 72t-73 30q-42 0 -72 -30t-30 -72z" />
<glyph unicode="&#xb1;" horiz-adv-x="573" d="M70 23q0 20 26 20h378q29 0 29 -23q0 -20 -29 -20h-378q-26 0 -26 23zM70 293q0 20 26 20h169v127q0 28 22 28q20 0 20 -28v-127h167q29 0 29 -22q0 -21 -29 -21h-167v-127q0 -27 -21 -27t-21 27v127h-169q-26 0 -26 23z" />
<glyph unicode="&#xb2;" horiz-adv-x="310" d="M41 461v22q0 35 20 62.5t48 44.5t56 31t48 29t20 32q0 35 -18 43.5t-69 8.5h-26q-43 0 -43 -31q0 -7 -5.5 -12.5t-12.5 -5.5q-6 0 -12 5.5t-6 12.5q0 27 22.5 45.5t52.5 18.5h30q61 0 90.5 -16t29.5 -69q0 -28 -29.5 -52.5t-64.5 -40.5t-64.5 -41.5t-29.5 -53.5h166 q8 0 15 -5.5t7 -11.5q0 -5 -7 -10.5t-15 -5.5h-203z" />
<glyph unicode="&#xb3;" horiz-adv-x="280" d="M30 525q0 15 17 15q19 0 19 -13q0 -16 21 -24.5t44 -8.5h12q43 0 55.5 12t12.5 35q0 24 -30.5 42t-61.5 18q-18 0 -18 17q0 16 18 16q32 0 62 15t30 38q0 11 -2 18t-8 14.5t-20.5 11t-37.5 3.5h-12q-23 0 -44 -8.5t-21 -24.5q0 -13 -19 -13q-17 0 -17 15q0 21 26.5 42.5 t70.5 21.5h12q57 0 80.5 -19t23.5 -64q0 -24 -25 -43t-45 -23q21 -3 45.5 -25.5t24.5 -52.5q0 -42 -23.5 -60.5t-80.5 -18.5h-12q-44 0 -70.5 21.5t-26.5 42.5z" />
<glyph unicode="&#xb4;" horiz-adv-x="212" d="M34 530q0 11 8 20l96 115q12 13 21 13q7 0 13.5 -6t6.5 -15q0 -10 -8 -19l-96 -115q-12 -13 -21 -13q-7 0 -13.5 6t-6.5 14z" />
<glyph unicode="&#xb5;" horiz-adv-x="564" d="M82 -172v610q0 30 20 30q22 0 22 -30v-210q0 -90 43 -138t123 -48q79 0 122.5 48t43.5 138v210q0 30 20 30q22 0 22 -30v-414q0 -31 -20 -31q-22 0 -22 31v48q-56 -72 -166 -72t-166 72v-244q0 -31 -23 -31q-19 0 -19 31z" />
<glyph unicode="&#xb6;" horiz-adv-x="447" d="M36 486q0 86 52 118t155 32h115v-616q0 -27 -20 -27q-22 0 -22 27v574h-31v-574q0 -27 -20 -27q-22 0 -22 27v317h-42q-78 0 -121.5 38t-43.5 111z" />
<glyph unicode="&#xb7;" horiz-adv-x="232" d="M70 387q0 14 15 25t31 11q15 0 30.5 -11t15.5 -25t-15.5 -25t-30.5 -11q-16 0 -31 11t-15 25z" />
<glyph unicode="&#xb8;" horiz-adv-x="242" d="M42 -120q0 13 10 13q3 0 26 -9t40 -9q47 0 47 31q0 12 -11 23.5t-23.5 19.5t-23.5 25.5t-11 40.5h42q0 -18 11 -31t23.5 -20t23.5 -20.5t11 -32.5q0 -33 -26 -54.5t-65 -21.5q-23 0 -48.5 10.5t-25.5 34.5z" />
<glyph unicode="&#xb9;" horiz-adv-x="138" d="M-10 692q0 9 10 18l49 50q10 10 19 10q18 0 18 -19v-271q0 -22 -17 -22t-17 22v235l-27 -27q-9 -10 -20 -10q-15 0 -15 14z" />
<glyph unicode="&#xba;" horiz-adv-x="376" d="M68 182q0 17 21 17h196q23 0 23 -19q0 -16 -23 -16h-196q-21 0 -21 18zM93 333v44q0 49 19.5 66.5t70.5 17.5h9q52 0 71.5 -17.5t19.5 -66.5v-44q0 -50 -19.5 -67t-71.5 -17h-9q-51 0 -70.5 17t-19.5 67zM124 333q0 -35 11.5 -44t47.5 -9h9q36 0 48 9t12 44v44 q0 35 -12 44t-48 9h-9q-36 0 -47.5 -9t-11.5 -44v-44z" />
<glyph unicode="&#xbb;" horiz-adv-x="484" d="M61 150q0 15 13 28l158 155l-158 153q-13 14 -13 28t15 14q14 0 19 -5l183 -169q16 -14 16 -21q0 -9 -16 -23l-183 -169q-6 -6 -19 -6q-15 0 -15 15zM215 150q0 15 13 28l158 155l-158 153q-13 14 -13 28t15 14q14 0 19 -5l183 -169q16 -14 16 -21q0 -9 -16 -23 l-183 -169q-6 -6 -19 -6q-15 0 -15 15z" />
<glyph unicode="&#xbc;" horiz-adv-x="579" d="M40 93q0 10 11 21l409 409q13 11 21 11q15 0 15 -15q0 -8 -11 -21l-409 -409q-11 -11 -21 -11q-15 0 -15 15zM97 558q0 9 10 18l49 50q10 10 19 10q18 0 18 -19v-271q0 -22 -17 -22t-17 22v235l-27 -27q-9 -10 -20 -10q-15 0 -15 14zM302 100v45l120 160h46v-172h49 q21 0 21 -16q0 -17 -21 -17h-49v-82q0 -22 -17 -22t-17 22v82h-132zM331 133h103v138z" />
<glyph unicode="&#xbd;" horiz-adv-x="602" d="M40 93q0 10 11 21l409 409q13 11 21 11q15 0 15 -15q0 -8 -11 -21l-409 -409q-11 -11 -21 -11q-15 0 -15 15zM97 558q0 9 10 18l49 50q10 10 19 10q18 0 18 -19v-271q0 -22 -17 -22t-17 22v235l-27 -27q-9 -10 -20 -10q-15 0 -15 14zM324 -1v22q0 35 20 62.5t48 44.5 t56 31t48 29t20 32q0 35 -18 43.5t-69 8.5h-26q-43 0 -43 -31q0 -7 -5.5 -12.5t-12.5 -5.5q-6 0 -12 5.5t-6 12.5q0 27 22.5 45.5t52.5 18.5h30q61 0 90.5 -16t29.5 -69q0 -28 -29.5 -52.5t-64.5 -40.5t-64.5 -41.5t-29.5 -53.5h166q8 0 15 -5.5t7 -11.5q0 -5 -7 -10.5 t-15 -5.5h-203z" />
<glyph unicode="&#xbe;" horiz-adv-x="622" d="M66 394q0 15 17 15q19 0 19 -13q0 -16 21 -24.5t44 -8.5h12q43 0 55.5 12t12.5 35q0 24 -30.5 42t-61.5 18q-18 0 -18 17q0 16 18 16q32 0 62 15t30 38q0 11 -2 18t-8 14.5t-20.5 11t-37.5 3.5h-12q-23 0 -44 -8.5t-21 -24.5q0 -13 -19 -13q-17 0 -17 15q0 21 26.5 42.5 t70.5 21.5h12q57 0 80.5 -19t23.5 -64q0 -24 -25 -43t-45 -23q21 -3 45.5 -25.5t24.5 -52.5q0 -42 -23.5 -60.5t-80.5 -18.5h-12q-44 0 -70.5 21.5t-26.5 42.5zM90 93q0 10 11 21l409 409q13 11 21 11q15 0 15 -15q0 -8 -11 -21l-409 -409q-11 -11 -21 -11q-15 0 -15 15z M343 100v45l120 160h46v-172h49q21 0 21 -16q0 -17 -21 -17h-49v-82q0 -22 -17 -22t-17 22v82h-132zM372 133h103v138z" />
<glyph unicode="&#xbf;" horiz-adv-x="520" d="M39 -5q0 66 28 101t96 54l93 26v109q0 28 22 28q20 0 20 -28v-140l-153 -42q-27 -8 -45.5 -37.5t-18.5 -70.5q0 -44 24.5 -81t77.5 -37h94q48 0 74 3.5t49.5 16t32.5 39.5t9 72q0 28 21 28q22 0 22 -28q0 -55 -14 -90.5t-44 -53t-64 -23.5t-86 -6h-76q-86 0 -124 47 t-38 113zM231 450q0 14 15.5 25t31.5 11q15 0 30.5 -11t15.5 -25t-15.5 -25t-30.5 -11q-16 0 -31.5 11t-15.5 25z" />
<glyph unicode="&#xc0;" d="M23 4q0 6 3 14l225 618h46l225 -618q3 -7 3 -14q0 -20 -21 -20q-14 0 -22 20l-72 200h-272l-72 -200q-9 -20 -22 -20q-21 0 -21 20zM154 246h240l-121 329zM171 799q0 6 6.5 13t14.5 7q10 0 20 -11l70 -69q11 -13 11 -22q0 -6 -6 -12.5t-14 -6.5q-11 0 -21 11l-69 69 q-12 12 -12 21z" />
<glyph unicode="&#xc1;" d="M23 4q0 6 3 14l225 618h46l225 -618q3 -7 3 -14q0 -20 -21 -20q-14 0 -22 20l-72 200h-272l-72 -200q-9 -20 -22 -20q-21 0 -21 20zM154 246h240l-121 329zM235 717q0 10 12 22l69 69q10 11 21 11q8 0 14 -7t6 -13q0 -8 -11 -21l-70 -69q-10 -11 -20 -11q-8 0 -14.5 6.5 t-6.5 12.5z" />
<glyph unicode="&#xc2;" d="M23 4q0 6 3 14l225 618h46l225 -618q3 -7 3 -14q0 -20 -21 -20q-14 0 -22 20l-72 200h-272l-72 -200q-9 -20 -22 -20q-21 0 -21 20zM138 669q0 9 4 13l104 137h55l106 -137q4 -5 4 -13q0 -18 -18 -18q-4 0 -7.5 1.5t-5 3t-5.5 6.5t-6 7l-94 104h-3l-92 -104 q-16 -18 -24 -18q-18 0 -18 18zM154 246h240l-121 329z" />
<glyph unicode="&#xc3;" d="M23 4q0 6 3 14l225 618h46l225 -618q3 -7 3 -14q0 -20 -21 -20q-14 0 -22 20l-72 200h-272l-72 -200q-9 -20 -22 -20q-21 0 -21 20zM138 725q0 13 12 22l47 39q5 7 15 7q3 0 11 -2l98 -36q4 -2 7 -2q4 0 11 5l31 28q11 8 19 8t14.5 -5t6.5 -13q0 -12 -12 -23l-47 -39 q-7 -7 -16 -7q-4 0 -10 2l-98 36q-4 2 -8 2t-11 -5l-31 -28q-11 -8 -19 -8q-7 0 -13.5 5.5t-6.5 13.5zM154 246h240l-121 329z" />
<glyph unicode="&#xc4;" d="M23 4q0 6 3 14l225 618h46l225 -618q3 -7 3 -14q0 -20 -21 -20q-14 0 -22 20l-72 200h-272l-72 -200q-9 -20 -22 -20q-21 0 -21 20zM154 246h240l-121 329zM155 743q0 14 15 25t31 11q15 0 30.5 -11t15.5 -25t-15.5 -25t-30.5 -11q-16 0 -31 11t-15 25zM301 743 q0 14 15 25t31 11q15 0 30.5 -11t15.5 -25t-15.5 -25t-30.5 -11q-16 0 -31 11t-15 25z" />
<glyph unicode="&#xc5;" d="M23 4q0 6 3 14l225 618h46l225 -618q3 -7 3 -14q0 -20 -21 -20q-14 0 -22 20l-72 200h-272l-72 -200q-9 -20 -22 -20q-21 0 -21 20zM154 246h240l-121 329zM198 716q0 32 22 54t54 22t54 -22t22 -54t-22 -54t-54 -22t-54 22t-22 54zM225 716q0 -20 14.5 -34.5t34.5 -14.5 t34.5 14.5t14.5 34.5t-14.5 34.5t-34.5 14.5t-34.5 -14.5t-14.5 -34.5z" />
<glyph unicode="&#xc6;" horiz-adv-x="846" d="M8 -3q0 7 7 21l383 610q5 8 15 8h356q29 0 29 -23q0 -19 -29 -19h-334v-215h215q31 0 31 -23q0 -19 -31 -19h-215v-295h334q29 0 29 -23q0 -19 -29 -19h-356q-19 0 -19 31v173h-219l-123 -199q-13 -21 -29 -21q-15 0 -15 13zM203 246h191v304z" />
<glyph unicode="&#xc7;" horiz-adv-x="572" d="M72 175v286q0 105 51 140t157 35h141q31 0 51.5 -9t29 -26t11.5 -33t3 -39q0 -30 -21 -30t-21 28q0 36 -13 51.5t-47 15.5h-134q-48 0 -74.5 -3.5t-49.5 -17t-32.5 -40.5t-9.5 -72v-286q0 -45 9.5 -72t32.5 -40.5t49.5 -17t74.5 -3.5h134q34 0 47 15t13 52q0 28 21 28 t21 -31q0 -22 -3 -38t-11.5 -33t-29 -26t-51.5 -9h-103q4 -15 21.5 -27.5t31.5 -26.5t14 -35q0 -33 -26 -54.5t-65 -21.5q-23 0 -48.5 10.5t-25.5 34.5q0 13 10 13q3 0 26 -9t40 -9q47 0 47 31q0 14 -15 26.5t-32 28.5t-21 39q-103 1 -153 36t-50 139z" />
<glyph unicode="&#xc8;" horiz-adv-x="577" d="M84 31v574q0 31 19 31h396q29 0 29 -23q0 -19 -29 -19h-373v-215h255q30 0 30 -23q0 -19 -30 -19h-255v-295h373q29 0 29 -23q0 -19 -29 -19h-396q-19 0 -19 31zM199 799q0 6 6.5 13t14.5 7q10 0 20 -11l70 -69q11 -13 11 -22q0 -6 -6 -12.5t-14 -6.5q-11 0 -21 11 l-69 69q-12 12 -12 21z" />
<glyph unicode="&#xc9;" horiz-adv-x="577" d="M84 31v574q0 31 19 31h396q29 0 29 -23q0 -19 -29 -19h-373v-215h255q30 0 30 -23q0 -19 -30 -19h-255v-295h373q29 0 29 -23q0 -19 -29 -19h-396q-19 0 -19 31zM250 717q0 10 12 22l69 69q10 11 21 11q8 0 14 -7t6 -13q0 -8 -11 -21l-70 -69q-10 -11 -20 -11 q-8 0 -14.5 6.5t-6.5 12.5z" />
<glyph unicode="&#xca;" horiz-adv-x="577" d="M84 31v574q0 31 19 31h396q29 0 29 -23q0 -19 -29 -19h-373v-215h255q30 0 30 -23q0 -19 -30 -19h-255v-295h373q29 0 29 -23q0 -19 -29 -19h-396q-19 0 -19 31zM165 669q0 9 4 13l104 137h55l106 -137q4 -5 4 -13q0 -18 -18 -18q-4 0 -7.5 1.5t-5 3t-5.5 6.5t-6 7 l-94 104h-3l-92 -104q-2 -2 -5.5 -6t-5 -5.5t-4 -3.5t-4.5 -2.5t-5 -0.5q-18 0 -18 18z" />
<glyph unicode="&#xcb;" horiz-adv-x="577" d="M84 31v574q0 31 19 31h396q29 0 29 -23q0 -19 -29 -19h-373v-215h255q30 0 30 -23q0 -19 -30 -19h-255v-295h373q29 0 29 -23q0 -19 -29 -19h-396q-19 0 -19 31zM183 743q0 14 15 25t31 11q15 0 30.5 -11t15.5 -25t-15.5 -25t-30.5 -11q-16 0 -31 11t-15 25zM329 743 q0 14 15 25t31 11q15 0 30.5 -11t15.5 -25t-15.5 -25t-30.5 -11q-16 0 -31 11t-15 25z" />
<glyph unicode="&#xcc;" horiz-adv-x="210" d="M4 799q0 6 6.5 13t14.5 7q10 0 20 -11l70 -69q11 -13 11 -22q0 -6 -6 -12.5t-14 -6.5q-11 0 -21 11l-69 69q-12 12 -12 21zM84 20v595q0 28 21 28t21 -28v-595q0 -27 -22 -27q-20 0 -20 27z" />
<glyph unicode="&#xcd;" horiz-adv-x="210" d="M84 20v595q0 28 21 28t21 -28v-595q0 -27 -22 -27q-20 0 -20 27zM85 717q0 10 12 22l69 69q10 11 21 11q8 0 14 -7t6 -13q0 -8 -11 -21l-70 -69q-10 -11 -20 -11q-8 0 -14.5 6.5t-6.5 12.5z" />
<glyph unicode="&#xce;" horiz-adv-x="210" d="M-30 669q0 9 4 13l104 137h55l106 -137q4 -5 4 -13q0 -18 -18 -18q-4 0 -7.5 1.5t-5 3t-5.5 6.5t-6 7l-94 104h-3l-92 -104q-16 -18 -24 -18q-18 0 -18 18zM84 20v595q0 28 21 28t21 -28v-595q0 -27 -22 -27q-20 0 -20 27z" />
<glyph unicode="&#xcf;" horiz-adv-x="210" d="M-13 743q0 14 15 25t31 11q15 0 30.5 -11t15.5 -25t-15.5 -25t-30.5 -11q-16 0 -31 11t-15 25zM84 20v595q0 28 21 28t21 -28v-595q0 -27 -22 -27q-20 0 -20 27zM133 743q0 14 15 25t31 11q15 0 30.5 -11t15.5 -25t-15.5 -25t-30.5 -11q-16 0 -31 11t-15 25z" />
<glyph unicode="&#xd0;" horiz-adv-x="600" d="M49 326q0 20 27 20h8v259q0 31 19 31h218q105 0 156 -35t51 -140v-286q0 -105 -51 -140t-156 -35h-218q-19 0 -19 31v272h-8q-27 0 -27 23zM126 42h195q47 0 73.5 3.5t49.5 17t32.5 40.5t9.5 72v286q0 45 -9.5 72t-32.5 40.5t-49.5 17t-73.5 3.5h-195v-248h106 q29 0 29 -22q0 -21 -29 -21h-106v-261z" />
<glyph unicode="&#xd1;" horiz-adv-x="612" d="M84 23v589q0 31 19 31q15 0 26 -17l357 -542v528q0 31 20 31q22 0 22 -31v-589q0 -30 -20 -30q-12 0 -16 7l-366 557v-534q0 -30 -21 -30t-21 30zM169 725q0 13 12 22l47 39q5 7 15 7q3 0 11 -2l98 -36q4 -2 7 -2q4 0 11 5l31 28q11 8 19 8t14.5 -5t6.5 -13 q0 -12 -12 -23l-47 -39q-7 -7 -16 -7q-4 0 -10 2l-98 36q-4 2 -8 2t-11 -5l-31 -28q-11 -8 -19 -8q-7 0 -13.5 5.5t-6.5 13.5z" />
<glyph unicode="&#xd2;" horiz-adv-x="574" d="M65 227v182q0 110 62.5 173t159.5 63t159.5 -63t62.5 -173v-182q0 -110 -62.5 -173t-159.5 -63t-159.5 63t-62.5 173zM107 227q0 -91 48 -142.5t132 -51.5t132 51.5t48 142.5v182q0 91 -48 142.5t-132 51.5t-132 -51.5t-48 -142.5v-182zM185 799q0 6 6.5 13t14.5 7 q10 0 20 -11l70 -69q11 -13 11 -22q0 -6 -6 -12.5t-14 -6.5q-11 0 -21 11l-69 69q-12 12 -12 21z" />
<glyph unicode="&#xd3;" horiz-adv-x="574" d="M65 227v182q0 110 62.5 173t159.5 63t159.5 -63t62.5 -173v-182q0 -110 -62.5 -173t-159.5 -63t-159.5 63t-62.5 173zM107 227q0 -91 48 -142.5t132 -51.5t132 51.5t48 142.5v182q0 91 -48 142.5t-132 51.5t-132 -51.5t-48 -142.5v-182zM266 717q0 10 12 22l69 69 q10 11 21 11q8 0 14 -7t6 -13q0 -8 -11 -21l-70 -69q-10 -11 -20 -11q-8 0 -14.5 6.5t-6.5 12.5z" />
<glyph unicode="&#xd4;" horiz-adv-x="574" d="M65 227v182q0 110 62.5 173t159.5 63t159.5 -63t62.5 -173v-182q0 -110 -62.5 -173t-159.5 -63t-159.5 63t-62.5 173zM107 227q0 -91 48 -142.5t132 -51.5t132 51.5t48 142.5v182q0 91 -48 142.5t-132 51.5t-132 -51.5t-48 -142.5v-182zM151 669q0 9 4 13l104 137h55 l106 -137q4 -5 4 -13q0 -18 -18 -18q-4 0 -7.5 1.5t-5 3t-5.5 6.5t-6 7l-94 104h-3l-92 -104q-2 -2 -5.5 -6t-5 -5.5t-4 -3.5t-4.5 -2.5t-5 -0.5q-18 0 -18 18z" />
<glyph unicode="&#xd5;" horiz-adv-x="574" d="M65 227v182q0 110 62.5 173t159.5 63t159.5 -63t62.5 -173v-182q0 -110 -62.5 -173t-159.5 -63t-159.5 63t-62.5 173zM107 227q0 -91 48 -142.5t132 -51.5t132 51.5t48 142.5v182q0 91 -48 142.5t-132 51.5t-132 -51.5t-48 -142.5v-182zM151 725q0 13 12 22l47 39 q5 7 15 7q3 0 11 -2l98 -36q4 -2 7 -2q4 0 11 5l31 28q11 8 19 8t14.5 -5t6.5 -13q0 -12 -12 -23l-47 -39q-7 -7 -16 -7q-4 0 -10 2l-98 36q-4 2 -8 2t-11 -5l-31 -28q-11 -8 -19 -8q-7 0 -13.5 5.5t-6.5 13.5z" />
<glyph unicode="&#xd6;" horiz-adv-x="574" d="M65 227v182q0 110 62.5 173t159.5 63t159.5 -63t62.5 -173v-182q0 -110 -62.5 -173t-159.5 -63t-159.5 63t-62.5 173zM107 227q0 -91 48 -142.5t132 -51.5t132 51.5t48 142.5v182q0 91 -48 142.5t-132 51.5t-132 -51.5t-48 -142.5v-182zM169 743q0 14 15 25t31 11 q15 0 30.5 -11t15.5 -25t-15.5 -25t-30.5 -11q-16 0 -31 11t-15 25zM315 743q0 14 15 25t31 11q15 0 30.5 -11t15.5 -25t-15.5 -25t-30.5 -11q-16 0 -31 11t-15 25z" />
<glyph unicode="&#xd7;" horiz-adv-x="491" d="M71 76q0 10 11 21l133 133l-133 134q-11 11 -11 20q0 7 6.5 13.5t13.5 6.5q9 0 20 -11l135 -133l133 133q11 11 21 11q6 0 13 -5.5t7 -13.5q0 -11 -12 -21l-133 -134l133 -133q12 -10 12 -20q0 -7 -7 -14t-14 -7q-9 0 -20 12l-133 133l-135 -133q-11 -12 -21 -12 q-6 0 -12.5 5.5t-6.5 14.5z" />
<glyph unicode="&#xd8;" horiz-adv-x="574" d="M65 227v182q0 110 62.5 173t159.5 63q83 0 139 -45l13 22q9 16 21 16q3 0 7.5 -1.5t9 -6.5t4.5 -12q0 -6 -5 -18l-19 -30q52 -63 52 -161v-182q0 -110 -62.5 -173t-159.5 -63q-82 0 -138 44l-12 -21q-9 -16 -22 -16q-5 0 -12.5 4.5t-7.5 14.5q0 7 5 19l17 29 q-52 61 -52 162zM107 227q0 -76 33 -124l266 461q-47 39 -119 39q-84 0 -132 -51.5t-48 -142.5v-182zM169 71q46 -38 118 -38q84 0 132 51.5t48 142.5v182q0 75 -32 122z" />
<glyph unicode="&#xd9;" horiz-adv-x="598" d="M77 227v388q0 28 21 28t21 -28v-388q0 -91 48 -142.5t132 -51.5t132 51.5t48 142.5v388q0 28 22 28q20 0 20 -28v-388q0 -110 -62.5 -173t-159.5 -63t-159.5 63t-62.5 173zM198 783q0 9 6.5 15t13.5 6q9 0 21 -13l96 -115q8 -9 8 -20q0 -8 -6.5 -14t-13.5 -6q-9 0 -21 13 l-96 115q-8 9 -8 19z" />
<glyph unicode="&#xda;" horiz-adv-x="598" d="M77 227v388q0 28 21 28t21 -28v-388q0 -91 48 -142.5t132 -51.5t132 51.5t48 142.5v388q0 28 22 28q20 0 20 -28v-388q0 -110 -62.5 -173t-159.5 -63t-159.5 63t-62.5 173zM279 656q0 11 8 20l96 115q12 13 21 13q7 0 13.5 -6t6.5 -15q0 -10 -8 -19l-96 -115 q-12 -13 -21 -13q-7 0 -13.5 6t-6.5 14z" />
<glyph unicode="&#xdb;" horiz-adv-x="598" d="M77 227v388q0 28 21 28t21 -28v-388q0 -91 48 -142.5t132 -51.5t132 51.5t48 142.5v388q0 28 22 28q20 0 20 -28v-388q0 -110 -62.5 -173t-159.5 -63t-159.5 63t-62.5 173zM163 669q0 9 4 13l104 137h55l106 -137q4 -5 4 -13q0 -18 -18 -18q-4 0 -7.5 1.5t-5 3t-5.5 6.5 t-6 7l-94 104h-3l-92 -104q-7 -9 -12 -13.5t-12 -4.5q-18 0 -18 18z" />
<glyph unicode="&#xdc;" horiz-adv-x="598" d="M77 227v388q0 28 21 28t21 -28v-388q0 -91 48 -142.5t132 -51.5t132 51.5t48 142.5v388q0 28 22 28q20 0 20 -28v-388q0 -110 -62.5 -173t-159.5 -63t-159.5 63t-62.5 173zM181 743q0 14 15 25t31 11q15 0 30.5 -11t15.5 -25t-15.5 -25t-30.5 -11q-16 0 -31 11t-15 25z M327 743q0 14 15 25t31 11q15 0 30.5 -11t15.5 -25t-15.5 -25t-30.5 -11q-16 0 -31 11t-15 25z" />
<glyph unicode="&#xdd;" horiz-adv-x="499" d="M16 623q0 8 6.5 14t13.5 6q10 0 21 -16l192 -273l191 273q13 16 22 16q7 0 13.5 -6t6.5 -14q0 -9 -7 -19l-205 -294v-290q0 -27 -21 -27q-20 0 -20 27v290l-206 294q-7 10 -7 19zM229 656q0 11 8 20l96 115q12 13 21 13q7 0 13.5 -6t6.5 -15q0 -10 -8 -19l-96 -115 q-12 -13 -21 -13q-7 0 -13.5 6t-6.5 14z" />
<glyph unicode="&#xde;" horiz-adv-x="500" d="M84 20v553q0 28 21 28t21 -28v-112h173q78 0 122 -38t44 -112q0 -73 -44.5 -111.5t-122.5 -38.5h-172v-141q0 -27 -22 -27q-20 0 -20 27zM126 203h130q91 0 128 20.5t38 86.5q0 66 -37.5 87.5t-127.5 21.5h-131v-216z" />
<glyph unicode="&#xdf;" horiz-adv-x="442" d="M31 441q0 20 31 20q0 55 13.5 91.5t37.5 53.5t47.5 23.5t53.5 6.5q59 0 91 -33t32 -78q0 -94 -80 -141q148 -38 148 -189q0 -61 -13 -105.5t-35.5 -67t-46 -32.5t-49.5 -10q-40 0 -75 27.5t-35 78.5q0 31 21 31t21 -29q0 -34 22.5 -50t53.5 -16q37 0 65.5 37t28.5 136 q0 71 -52.5 118t-149.5 47v42q60 0 97 31t37 94q0 30 -21.5 48.5t-59.5 18.5q-27 0 -44 -4t-34 -16.5t-24.5 -40.5t-7.5 -72v-437q0 -31 -23 -31q-19 0 -19 31v395q-31 0 -31 22z" />
<glyph unicode="&#xe0;" horiz-adv-x="534" d="M60 120q0 42 10 73t27 49.5t44 29t57 14.5t70 4h152v64q0 35 -13 50t-47 15h-141q-117 0 -117 -65q0 -30 -22 -30q-20 0 -20 30q0 54 42.5 80.5t109.5 26.5h155q55 0 75 -27t20 -97v-314q0 -30 -21 -30t-21 30v49q-54 -72 -165 -72h-93q-45 0 -73.5 32.5t-28.5 87.5z M102 115q0 -28 18.5 -50.5t41.5 -22.5h93q79 0 122 48t43 138v20h-152q-48 0 -74.5 -3.5t-49.5 -17t-32.5 -40.5t-9.5 -72zM160 654q0 9 6.5 15t13.5 6q9 0 21 -13l96 -115q8 -9 8 -20q0 -8 -6.5 -14t-13.5 -6q-9 0 -21 13l-96 115q-8 9 -8 19z" />
<glyph unicode="&#xe1;" horiz-adv-x="534" d="M60 120q0 42 10 73t27 49.5t44 29t57 14.5t70 4h152v64q0 35 -13 50t-47 15h-141q-117 0 -117 -65q0 -30 -22 -30q-20 0 -20 30q0 54 42.5 80.5t109.5 26.5h155q55 0 75 -27t20 -97v-314q0 -30 -21 -30t-21 30v49q-54 -72 -165 -72h-93q-45 0 -73.5 32.5t-28.5 87.5z M102 115q0 -28 18.5 -50.5t41.5 -22.5h93q79 0 122 48t43 138v20h-152q-48 0 -74.5 -3.5t-49.5 -17t-32.5 -40.5t-9.5 -72zM241 530q0 11 8 20l96 115q12 13 21 13q7 0 13.5 -6t6.5 -15q0 -10 -8 -19l-96 -115q-12 -13 -21 -13q-7 0 -13.5 6t-6.5 14z" />
<glyph unicode="&#xe2;" horiz-adv-x="534" d="M60 120q0 42 10 73t27 49.5t44 29t57 14.5t70 4h152v64q0 35 -13 50t-47 15h-141q-117 0 -117 -65q0 -30 -22 -30q-20 0 -20 30q0 54 42.5 80.5t109.5 26.5h155q55 0 75 -27t20 -97v-314q0 -30 -21 -30t-21 30v49q-54 -72 -165 -72h-93q-45 0 -73.5 32.5t-28.5 87.5z M102 115q0 -28 18.5 -50.5t41.5 -22.5h93q79 0 122 48t43 138v20h-152q-48 0 -74.5 -3.5t-49.5 -17t-32.5 -40.5t-9.5 -72zM125 540q0 9 4 13l104 137h55l106 -137q4 -5 4 -13q0 -18 -18 -18q-4 0 -7.5 1.5t-5 3t-5.5 6.5t-6 7l-94 104h-3l-92 -104q-2 -2 -5.5 -6t-5 -5.5 t-4 -3.5t-4.5 -2.5t-5 -0.5q-18 0 -18 18z" />
<glyph unicode="&#xe3;" horiz-adv-x="534" d="M60 120q0 42 10 73t27 49.5t44 29t57 14.5t70 4h152v64q0 35 -13 50t-47 15h-141q-117 0 -117 -65q0 -30 -22 -30q-20 0 -20 30q0 54 42.5 80.5t109.5 26.5h155q55 0 75 -27t20 -97v-314q0 -30 -21 -30t-21 30v49q-54 -72 -165 -72h-93q-45 0 -73.5 32.5t-28.5 87.5z M102 115q0 -28 18.5 -50.5t41.5 -22.5h93q79 0 122 48t43 138v20h-152q-48 0 -74.5 -3.5t-49.5 -17t-32.5 -40.5t-9.5 -72zM126 541q0 13 12 22l47 39q5 7 15 7q3 0 11 -2l98 -36q4 -2 7 -2q4 0 11 5l31 28q11 8 19 8t14.5 -5t6.5 -13q0 -12 -12 -23l-47 -39q-7 -7 -16 -7 q-4 0 -10 2l-98 36q-4 2 -8 2t-11 -5l-31 -28q-11 -8 -19 -8q-7 0 -13.5 5.5t-6.5 13.5z" />
<glyph unicode="&#xe4;" horiz-adv-x="534" d="M60 120q0 42 10 73t27 49.5t44 29t57 14.5t70 4h152v64q0 35 -13 50t-47 15h-141q-117 0 -117 -65q0 -30 -22 -30q-20 0 -20 30q0 54 42.5 80.5t109.5 26.5h155q55 0 75 -27t20 -97v-314q0 -30 -21 -30t-21 30v49q-54 -72 -165 -72h-93q-45 0 -73.5 32.5t-28.5 87.5z M102 115q0 -28 18.5 -50.5t41.5 -22.5h93q79 0 122 48t43 138v20h-152q-48 0 -74.5 -3.5t-49.5 -17t-32.5 -40.5t-9.5 -72zM142 558q0 14 15 25t31 11q15 0 30.5 -11t15.5 -25t-15.5 -25t-30.5 -11q-16 0 -31 11t-15 25zM288 558q0 14 15 25t31 11q15 0 30.5 -11t15.5 -25 t-15.5 -25t-30.5 -11q-16 0 -31 11t-15 25z" />
<glyph unicode="&#xe5;" horiz-adv-x="534" d="M60 120q0 42 10 73t27 49.5t44 29t57 14.5t70 4h152v64q0 35 -13 50t-47 15h-141q-117 0 -117 -65q0 -30 -22 -30q-20 0 -20 30q0 54 42.5 80.5t109.5 26.5h155q55 0 75 -27t20 -97v-314q0 -30 -21 -30t-21 30v49q-54 -72 -165 -72h-93q-45 0 -73.5 32.5t-28.5 87.5z M102 115q0 -28 18.5 -50.5t41.5 -22.5h93q79 0 122 48t43 138v20h-152q-48 0 -74.5 -3.5t-49.5 -17t-32.5 -40.5t-9.5 -72zM186 598q0 32 22 54t54 22t54 -22t22 -54t-22 -54t-54 -22t-54 22t-22 54zM213 598q0 -20 14.5 -34.5t34.5 -14.5t34.5 14.5t14.5 34.5t-14.5 34.5 t-34.5 14.5t-34.5 -14.5t-14.5 -34.5z" />
<glyph unicode="&#xe6;" horiz-adv-x="924" d="M60 118q0 100 54.5 138.5t161.5 38.5h150v62q0 33 -12.5 47.5t-46.5 14.5h-139q-126 0 -126 -65q0 -30 -22 -30q-20 0 -20 30q0 40 26 65.5t59.5 33.5t75.5 8h153q24 0 40.5 -4.5t25.5 -14t12 -15t8 -17.5q16 16 29 24.5t53 17.5t99 9h8q114 0 164.5 -35t50.5 -136v-37 h-396v-81q0 -45 9 -71t33.5 -39t52 -16.5t78.5 -3.5h121q35 0 47.5 15.5t12.5 51.5q0 28 21 28t21 -31q0 -51 -19.5 -78.5t-75.5 -27.5h-128q-55 0 -92.5 6.5t-58.5 20t-30.5 25t-19.5 30.5l-5 -6q-25 -35 -79 -55.5t-102 -20.5h-92q-44 0 -73 32t-29 86zM102 113 q0 -28 18.5 -49.5t41.5 -21.5h92q83 0 127.5 51t44.5 140v20h-150q-96 0 -135 -27.5t-39 -112.5zM468 295h354q-1 76 -36.5 100t-136.5 24h-8q-102 0 -137 -23.5t-36 -100.5z" />
<glyph unicode="&#xe7;" horiz-adv-x="564" d="M62 175v111q0 105 51 140t157 35h141q31 0 51.5 -9t29 -26.5t11.5 -33t3 -38.5q0 -30 -21 -30t-21 28q0 36 -13 51.5t-47 15.5h-134q-48 0 -74.5 -3.5t-49.5 -17t-32.5 -40.5t-9.5 -72v-111q0 -45 9.5 -72t32.5 -40.5t49.5 -17t74.5 -3.5h134q34 0 47 15t13 52 q0 28 21 28t21 -31q0 -22 -3 -38t-11.5 -33t-29 -26t-51.5 -9h-101q4 -15 21.5 -27.5t31.5 -26.5t14 -35q0 -33 -26 -54.5t-65 -21.5q-23 0 -48.5 10.5t-25.5 34.5q0 13 10 13q3 0 26 -9t40 -9q47 0 47 31q0 14 -15 26.5t-32 28.5t-21 39q-104 0 -154.5 35.5t-50.5 139.5z " />
<glyph unicode="&#xe8;" horiz-adv-x="566" d="M62 175v111q0 105 51 140t157 35h29q105 0 156 -35t51 -140v-36h-402v-75q0 -45 9.5 -72t32.5 -40.5t49.5 -17t74.5 -3.5h134q34 0 47 15t13 52q0 28 21 28t21 -31q0 -22 -3 -38t-11.5 -33t-29 -26t-51.5 -9h-141q-106 0 -157 35t-51 140zM104 292h360q0 81 -37 104 t-128 23h-29q-92 0 -129 -23t-37 -104zM181 657q0 9 6.5 15t13.5 6q9 0 21 -13l96 -115q8 -9 8 -20q0 -8 -6.5 -14t-13.5 -6q-9 0 -21 13l-96 115q-8 9 -8 19z" />
<glyph unicode="&#xe9;" horiz-adv-x="566" d="M62 175v111q0 105 51 140t157 35h29q105 0 156 -35t51 -140v-36h-402v-75q0 -45 9.5 -72t32.5 -40.5t49.5 -17t74.5 -3.5h134q34 0 47 15t13 52q0 28 21 28t21 -31q0 -22 -3 -38t-11.5 -33t-29 -26t-51.5 -9h-141q-106 0 -157 35t-51 140zM104 292h360q0 81 -37 104 t-128 23h-29q-92 0 -129 -23t-37 -104zM265 530q0 11 8 20l96 115q12 13 21 13q7 0 13.5 -6t6.5 -15q0 -10 -8 -19l-96 -115q-12 -13 -21 -13q-7 0 -13.5 6t-6.5 14z" />
<glyph unicode="&#xea;" horiz-adv-x="566" d="M62 175v111q0 105 51 140t157 35h29q105 0 156 -35t51 -140v-36h-402v-75q0 -45 9.5 -72t32.5 -40.5t49.5 -17t74.5 -3.5h134q34 0 47 15t13 52q0 28 21 28t21 -31q0 -22 -3 -38t-11.5 -33t-29 -26t-51.5 -9h-141q-106 0 -157 35t-51 140zM104 292h360q0 81 -37 104 t-128 23h-29q-92 0 -129 -23t-37 -104zM148 540q0 9 4 13l104 137h55l106 -137q4 -5 4 -13q0 -18 -18 -18q-4 0 -7.5 1.5t-5 3t-5.5 6.5t-6 7l-94 104h-3l-92 -104q-16 -18 -24 -18q-18 0 -18 18z" />
<glyph unicode="&#xeb;" horiz-adv-x="566" d="M62 175v111q0 105 51 140t157 35h29q105 0 156 -35t51 -140v-36h-402v-75q0 -45 9.5 -72t32.5 -40.5t49.5 -17t74.5 -3.5h134q34 0 47 15t13 52q0 28 21 28t21 -31q0 -22 -3 -38t-11.5 -33t-29 -26t-51.5 -9h-141q-106 0 -157 35t-51 140zM104 292h360q0 81 -37 104 t-128 23h-29q-92 0 -129 -23t-37 -104zM166 558q0 14 15 25t31 11q15 0 30.5 -11t15.5 -25t-15.5 -25t-30.5 -11q-16 0 -31 11t-15 25zM312 558q0 14 15 25t31 11q15 0 30.5 -11t15.5 -25t-15.5 -25t-30.5 -11q-16 0 -31 11t-15 25z" />
<glyph unicode="&#xec;" horiz-adv-x="190" d="M-29 658q0 9 6.5 15t13.5 6q9 0 21 -13l96 -115q8 -9 8 -20q0 -8 -6.5 -14t-13.5 -6q-9 0 -21 13l-96 115q-8 9 -8 19zM74 20v420q0 28 21 28t21 -28v-420q0 -27 -22 -27q-20 0 -20 27z" />
<glyph unicode="&#xed;" horiz-adv-x="190" d="M74 20v420q0 28 21 28t21 -28v-420q0 -27 -22 -27q-20 0 -20 27zM74 530q0 11 8 20l96 115q12 13 21 13q7 0 13.5 -6t6.5 -15q0 -10 -8 -19l-96 -115q-12 -13 -21 -13q-7 0 -13.5 6t-6.5 14z" />
<glyph unicode="&#xee;" horiz-adv-x="190" d="M-41 547q0 9 4 13l104 137h55l106 -137q4 -5 4 -13q0 -18 -18 -18q-4 0 -7.5 1.5t-5 3t-5.5 6.5t-6 7l-94 104h-3l-92 -104q-16 -18 -24 -18q-18 0 -18 18zM74 20v420q0 28 21 28t21 -28v-420q0 -27 -22 -27q-20 0 -20 27z" />
<glyph unicode="&#xef;" horiz-adv-x="190" d="M-24 565q0 14 15 25t31 11q15 0 30.5 -11t15.5 -25t-15.5 -25t-30.5 -11q-16 0 -31 11t-15 25zM74 20v420q0 28 21 28t21 -28v-420q0 -27 -22 -27q-20 0 -20 27zM122 565q0 14 15 25t31 11q15 0 30.5 -11t15.5 -25t-15.5 -25t-30.5 -11q-16 0 -31 11t-15 25z" />
<glyph unicode="&#xf0;" horiz-adv-x="546" d="M47 220q0 111 66.5 173.5t170.5 62.5q82 0 135 -53q-42 106 -132 154l-50 -49q-11 -11 -20 -11q-7 0 -14 6t-7 14q0 7 12 21l38 37q-48 18 -98 18q-26 0 -26 20q0 23 26 23q71 0 131 -27l34 34q11 11 21 11q7 0 13.5 -5.5t6.5 -13.5q0 -10 -11 -22l-25 -24 q173 -106 173 -368q0 -98 -56 -167.5t-151 -69.5q-104 0 -170.5 63t-66.5 173zM89 220q0 -85 53.5 -139.5t141.5 -54.5q80 0 122.5 61.5t42.5 133.5q0 80 -41.5 136.5t-123.5 56.5q-88 0 -141.5 -54t-53.5 -140z" />
<glyph unicode="&#xf1;" horiz-adv-x="588" d="M74 23v414q0 31 19 31q23 0 23 -31v-48q56 72 166 72h29q105 0 156 -35t51 -140v-263q0 -30 -20 -30q-22 0 -22 30v263q0 45 -9.5 72t-32.5 40.5t-49.5 17t-73.5 3.5h-29q-80 0 -123 -48.5t-43 -138.5v-209q0 -30 -21 -30t-21 30zM160 548q0 13 12 22l47 39q5 7 15 7 q3 0 11 -2l98 -36q4 -2 7 -2q4 0 11 5l31 28q11 8 19 8t14.5 -5t6.5 -13q0 -12 -12 -23l-47 -39q-7 -7 -16 -7q-4 0 -10 2l-98 36q-4 2 -8 2t-11 -5l-31 -28q-11 -8 -19 -8q-7 0 -13.5 5.5t-6.5 13.5z" />
<glyph unicode="&#xf2;" horiz-adv-x="568" d="M62 175v111q0 105 51 140t157 35h29q105 0 156 -35t51 -140v-111q0 -105 -51 -140t-156 -35h-29q-106 0 -157 35t-51 140zM104 175q0 -45 9.5 -72t32.5 -40.5t49.5 -17t74.5 -3.5h29q47 0 73.5 3.5t49.5 17t32.5 40.5t9.5 72v111q0 45 -9.5 72t-32.5 40.5t-49.5 17 t-73.5 3.5h-29q-48 0 -74.5 -3.5t-49.5 -17t-32.5 -40.5t-9.5 -72v-111zM183 657q0 9 6.5 15t13.5 6q9 0 21 -13l96 -115q8 -9 8 -20q0 -8 -6.5 -14t-13.5 -6q-9 0 -21 13l-96 115q-8 9 -8 19z" />
<glyph unicode="&#xf3;" horiz-adv-x="568" d="M62 175v111q0 105 51 140t157 35h29q105 0 156 -35t51 -140v-111q0 -105 -51 -140t-156 -35h-29q-106 0 -157 35t-51 140zM104 175q0 -45 9.5 -72t32.5 -40.5t49.5 -17t74.5 -3.5h29q47 0 73.5 3.5t49.5 17t32.5 40.5t9.5 72v111q0 45 -9.5 72t-32.5 40.5t-49.5 17 t-73.5 3.5h-29q-48 0 -74.5 -3.5t-49.5 -17t-32.5 -40.5t-9.5 -72v-111zM263 530q0 11 8 20l96 115q12 13 21 13q7 0 13.5 -6t6.5 -15q0 -10 -8 -19l-96 -115q-12 -13 -21 -13q-7 0 -13.5 6t-6.5 14z" />
<glyph unicode="&#xf4;" horiz-adv-x="568" d="M62 175v111q0 105 51 140t157 35h29q105 0 156 -35t51 -140v-111q0 -105 -51 -140t-156 -35h-29q-106 0 -157 35t-51 140zM104 175q0 -45 9.5 -72t32.5 -40.5t49.5 -17t74.5 -3.5h29q47 0 73.5 3.5t49.5 17t32.5 40.5t9.5 72v111q0 45 -9.5 72t-32.5 40.5t-49.5 17 t-73.5 3.5h-29q-48 0 -74.5 -3.5t-49.5 -17t-32.5 -40.5t-9.5 -72v-111zM148 540q0 9 4 13l104 137h55l106 -137q4 -5 4 -13q0 -18 -18 -18q-4 0 -7.5 1.5t-5 3t-5.5 6.5t-6 7l-94 104h-3l-92 -104q-16 -18 -24 -18q-18 0 -18 18z" />
<glyph unicode="&#xf5;" horiz-adv-x="568" d="M62 175v111q0 105 51 140t157 35h29q105 0 156 -35t51 -140v-111q0 -105 -51 -140t-156 -35h-29q-106 0 -157 35t-51 140zM104 175q0 -45 9.5 -72t32.5 -40.5t49.5 -17t74.5 -3.5h29q47 0 73.5 3.5t49.5 17t32.5 40.5t9.5 72v111q0 45 -9.5 72t-32.5 40.5t-49.5 17 t-73.5 3.5h-29q-48 0 -74.5 -3.5t-49.5 -17t-32.5 -40.5t-9.5 -72v-111zM148 541q0 13 12 22l47 39q5 7 15 7q3 0 11 -2l98 -36q4 -2 7 -2q4 0 11 5l31 28q11 8 19 8t14.5 -5t6.5 -13q0 -12 -12 -23l-47 -39q-7 -7 -16 -7q-4 0 -10 2l-98 36q-4 2 -8 2t-11 -5l-31 -28 q-11 -8 -19 -8q-7 0 -13.5 5.5t-6.5 13.5z" />
<glyph unicode="&#xf6;" horiz-adv-x="568" d="M62 175v111q0 105 51 140t157 35h29q105 0 156 -35t51 -140v-111q0 -105 -51 -140t-156 -35h-29q-106 0 -157 35t-51 140zM104 175q0 -45 9.5 -72t32.5 -40.5t49.5 -17t74.5 -3.5h29q47 0 73.5 3.5t49.5 17t32.5 40.5t9.5 72v111q0 45 -9.5 72t-32.5 40.5t-49.5 17 t-73.5 3.5h-29q-48 0 -74.5 -3.5t-49.5 -17t-32.5 -40.5t-9.5 -72v-111zM166 558q0 14 15 25t31 11q15 0 30.5 -11t15.5 -25t-15.5 -25t-30.5 -11q-16 0 -31 11t-15 25zM312 558q0 14 15 25t31 11q15 0 30.5 -11t15.5 -25t-15.5 -25t-30.5 -11q-16 0 -31 11t-15 25z" />
<glyph unicode="&#xf7;" horiz-adv-x="440" d="M70 231q0 21 26 21h245q29 0 29 -23q0 -20 -29 -20h-245q-26 0 -26 22zM170 128q0 14 15 25t31 11q15 0 30.5 -11t15.5 -25t-15.5 -25t-30.5 -11q-16 0 -31 11t-15 25zM170 333q0 14 15 25t31 11q15 0 30.5 -11t15.5 -25t-15.5 -25t-30.5 -11q-16 0 -31 11t-15 25z" />
<glyph unicode="&#xf8;" horiz-adv-x="568" d="M62 175v111q0 105 51 140t157 35h29q91 0 134 -22l13 17q11 13 21 13q7 0 14 -6t7 -14q0 -10 -9 -20l-12 -14q39 -41 39 -129v-111q0 -105 -51 -140t-156 -35h-29q-89 0 -133 20l-14 -15q-11 -13 -21 -13q-7 0 -14 6t-7 14t10 20l11 13q-40 42 -40 130zM104 175 q0 -69 25 -98l276 330q-32 12 -106 12h-29q-48 0 -74.5 -3.5t-49.5 -17t-32.5 -40.5t-9.5 -72v-111zM164 53q32 -11 106 -11h29q47 0 73.5 3.5t49.5 17t32.5 40.5t9.5 72v111q0 68 -24 97z" />
<glyph unicode="&#xf9;" horiz-adv-x="588" d="M70 175v263q0 30 20 30q22 0 22 -30v-263q0 -45 9.5 -72t32.5 -40.5t49.5 -17t74.5 -3.5h29q79 0 122 48t43 138v210q0 30 21 30t21 -30v-414q0 -31 -19 -31q-23 0 -23 31v48q-54 -72 -165 -72h-29q-106 0 -157 35t-51 140zM190 657q0 9 6.5 15t13.5 6q9 0 21 -13 l96 -115q8 -9 8 -20q0 -8 -6.5 -14t-13.5 -6q-9 0 -21 13l-96 115q-8 9 -8 19z" />
<glyph unicode="&#xfa;" horiz-adv-x="588" d="M70 175v263q0 30 20 30q22 0 22 -30v-263q0 -45 9.5 -72t32.5 -40.5t49.5 -17t74.5 -3.5h29q79 0 122 48t43 138v210q0 30 21 30t21 -30v-414q0 -31 -19 -31q-23 0 -23 31v48q-54 -72 -165 -72h-29q-106 0 -157 35t-51 140zM272 530q0 11 8 20l96 115q12 13 21 13 q7 0 13.5 -6t6.5 -15q0 -10 -8 -19l-96 -115q-12 -13 -21 -13q-7 0 -13.5 6t-6.5 14z" />
<glyph unicode="&#xfb;" horiz-adv-x="588" d="M70 175v263q0 30 20 30q22 0 22 -30v-263q0 -45 9.5 -72t32.5 -40.5t49.5 -17t74.5 -3.5h29q79 0 122 48t43 138v210q0 30 21 30t21 -30v-414q0 -31 -19 -31q-23 0 -23 31v48q-54 -72 -165 -72h-29q-106 0 -157 35t-51 140zM155 547q0 9 4 13l104 137h55l106 -137 q4 -5 4 -13q0 -18 -18 -18q-4 0 -7.5 1.5t-5 3t-5.5 6.5t-6 7l-94 104h-3l-92 -104q-2 -2 -5.5 -6t-5 -5.5t-4 -3.5t-4.5 -2.5t-5 -0.5q-18 0 -18 18z" />
<glyph unicode="&#xfc;" horiz-adv-x="588" d="M70 175v263q0 30 20 30q22 0 22 -30v-263q0 -45 9.5 -72t32.5 -40.5t49.5 -17t74.5 -3.5h29q79 0 122 48t43 138v210q0 30 21 30t21 -30v-414q0 -31 -19 -31q-23 0 -23 31v48q-54 -72 -165 -72h-29q-106 0 -157 35t-51 140zM173 565q0 14 15 25t31 11q15 0 30.5 -11 t15.5 -25t-15.5 -25t-30.5 -11q-16 0 -31 11t-15 25zM319 565q0 14 15 25t31 11q15 0 30.5 -11t15.5 -25t-15.5 -25t-30.5 -11q-16 0 -31 11t-15 25z" />
<glyph unicode="&#xfd;" horiz-adv-x="589" d="M70 -98q0 30 21 30t21 -28q0 -36 13 -51.5t47 -15.5h249q31 0 41 11.5t10 43.5v180q-54 -72 -165 -72h-29q-106 0 -157 35t-51 140v261q0 32 21 32t21 -32v-261q0 -45 9.5 -72t32.5 -40.5t49.5 -17t74.5 -3.5h29q79 0 122 48t43 138v208q0 32 22 32q20 0 20 -32v-528 q0 -64 -18 -88.5t-68 -24.5h-263q-31 0 -51.5 9t-29 26.5t-11.5 33t-3 38.5zM273 530q0 11 8 20l96 115q12 13 21 13q7 0 13.5 -6t6.5 -15q0 -10 -8 -19l-96 -115q-12 -13 -21 -13q-7 0 -13.5 6t-6.5 14z" />
<glyph unicode="&#xfe;" horiz-adv-x="581" d="M75 -152v765q0 30 21 30t21 -30v-224q56 72 166 72h29q105 0 156 -35t51 -140v-111q0 -105 -51 -140t-156 -35h-195v-152q0 -30 -23 -30q-19 0 -19 30zM117 42h195q47 0 73.5 3.5t49.5 17t32.5 40.5t9.5 72v111q0 45 -9.5 72t-32.5 40.5t-49.5 17t-73.5 3.5h-29 q-80 0 -123 -48.5t-43 -138.5v-190z" />
<glyph unicode="&#xff;" horiz-adv-x="589" d="M70 -98q0 30 21 30t21 -28q0 -36 13 -51.5t47 -15.5h249q31 0 41 11.5t10 43.5v180q-54 -72 -165 -72h-29q-106 0 -157 35t-51 140v261q0 32 21 32t21 -32v-261q0 -45 9.5 -72t32.5 -40.5t49.5 -17t74.5 -3.5h29q79 0 122 48t43 138v208q0 32 22 32q20 0 20 -32v-528 q0 -64 -18 -88.5t-68 -24.5h-263q-31 0 -51.5 9t-29 26.5t-11.5 33t-3 38.5zM174 565q0 14 15 25t31 11q15 0 30.5 -11t15.5 -25t-15.5 -25t-30.5 -11q-16 0 -31 11t-15 25zM320 565q0 14 15 25t31 11q15 0 30.5 -11t15.5 -25t-15.5 -25t-30.5 -11q-16 0 -31 11t-15 25z" />
<glyph unicode="&#x152;" horiz-adv-x="706" d="M65 227v182q0 105 65 170.5t138 65.5q64 0 108 -28q3 19 18 19h239q30 0 30 -20q0 -22 -30 -22h-216v-215h98q30 0 30 -23q0 -19 -30 -19h-98v-295h216q30 0 30 -23q0 -19 -30 -19h-239q-15 0 -18 18q-45 -27 -108 -27q-73 0 -138 65.5t-65 170.5zM106 227 q0 -86 50.5 -140t111.5 -54q70 0 107 37v496q-37 37 -107 37q-61 0 -111.5 -54t-50.5 -140v-182z" />
<glyph unicode="&#x153;" horiz-adv-x="727" d="M62 175v111q0 91 37.5 133t128.5 42q57 0 91 -17t55 -53q34 70 136 70q73 0 115 -36t42 -139v-36h-272v-75q0 -43 12.5 -71.5t34.5 -41t41.5 -16.5t45.5 -4q96 0 96 67q0 28 20 28q22 0 22 -31q0 -34 -12 -56.5t-34.5 -32.5t-43 -13.5t-48.5 -3.5q-119 0 -153 74 q-20 -38 -54 -56t-94 -18q-91 0 -128.5 42t-37.5 133zM103 175q0 -70 24 -101.5t101 -31.5q78 0 101.5 31.5t23.5 101.5v111q0 70 -23.5 101.5t-101.5 31.5q-77 0 -101 -31.5t-24 -101.5v-111zM395 292h230q0 80 -28 103.5t-87 23.5t-87 -23.5t-28 -103.5z" />
<glyph unicode="&#x178;" horiz-adv-x="499" d="M16 623q0 8 6.5 14t13.5 6q10 0 21 -16l192 -273l191 273q13 16 22 16q7 0 13.5 -6t6.5 -14q0 -9 -7 -19l-205 -294v-290q0 -27 -21 -27q-20 0 -20 27v290l-206 294q-7 10 -7 19zM131 743q0 14 15 25t31 11q15 0 30.5 -11t15.5 -25t-15.5 -25t-30.5 -11q-16 0 -31 11 t-15 25zM277 743q0 14 15 25t31 11q15 0 30.5 -11t15.5 -25t-15.5 -25t-30.5 -11q-16 0 -31 11t-15 25z" />
<glyph unicode="&#x2c6;" horiz-adv-x="402" d="M65 528q0 9 4 13l104 137h55l106 -137q4 -5 4 -13q0 -18 -18 -18q-4 0 -7.5 1.5t-5 3t-5.5 6.5t-6 7l-94 104h-3l-92 -104q-16 -18 -24 -18q-18 0 -18 18z" />
<glyph unicode="&#x2dc;" horiz-adv-x="401" d="M65 201q0 13 12 22l47 39q5 7 15 7q3 0 11 -2l98 -36q4 -2 7 -2q4 0 11 5l31 28q11 8 19 8t14.5 -5t6.5 -13q0 -12 -12 -23l-47 -39q-7 -7 -16 -7q-4 0 -10 2l-98 36q-4 2 -8 2t-11 -5l-31 -28q-11 -8 -19 -8q-7 0 -13.5 5.5t-6.5 13.5z" />
<glyph unicode="&#x2000;" horiz-adv-x="409" />
<glyph unicode="&#x2001;" horiz-adv-x="819" />
<glyph unicode="&#x2002;" horiz-adv-x="409" />
<glyph unicode="&#x2003;" horiz-adv-x="819" />
<glyph unicode="&#x2004;" horiz-adv-x="273" />
<glyph unicode="&#x2005;" horiz-adv-x="204" />
<glyph unicode="&#x2006;" horiz-adv-x="136" />
<glyph unicode="&#x2007;" horiz-adv-x="136" />
<glyph unicode="&#x2008;" horiz-adv-x="102" />
<glyph unicode="&#x2009;" horiz-adv-x="163" />
<glyph unicode="&#x200a;" horiz-adv-x="45" />
<glyph unicode="&#x2010;" horiz-adv-x="446" d="M73 231q0 21 26 21h245q29 0 29 -23q0 -20 -29 -20h-245q-26 0 -26 22z" />
<glyph unicode="&#x2011;" horiz-adv-x="446" d="M73 231q0 21 26 21h245q29 0 29 -23q0 -20 -29 -20h-245q-26 0 -26 22z" />
<glyph unicode="&#x2012;" horiz-adv-x="446" d="M73 231q0 21 26 21h245q29 0 29 -23q0 -20 -29 -20h-245q-26 0 -26 22z" />
<glyph unicode="&#x2013;" horiz-adv-x="514" d="M73 231q0 21 26 21h313q29 0 29 -23q0 -20 -29 -20h-313q-26 0 -26 22z" />
<glyph unicode="&#x2014;" horiz-adv-x="631" d="M73 231q0 21 26 21h430q29 0 29 -23q0 -20 -29 -20h-430q-26 0 -26 22z" />
<glyph unicode="&#x2018;" horiz-adv-x="193" d="M63 555q0 43 25.5 82t41.5 39t16 -12q0 -4 -13 -34t-13 -75q0 -20 -30 -20q-27 0 -27 20z" />
<glyph unicode="&#x2019;" horiz-adv-x="192" d="M61 547q0 3 13.5 33.5t13.5 74.5q0 21 30 21q26 0 26 -21q0 -43 -25 -81.5t-41 -38.5q-17 0 -17 12z" />
<glyph unicode="&#x201a;" horiz-adv-x="203" d="M47 -67q0 3 13.5 33.5t13.5 74.5q0 21 30 21q26 0 26 -21q0 -43 -25 -81.5t-41 -38.5q-17 0 -17 12z" />
<glyph unicode="&#x201c;" horiz-adv-x="316" d="M63 555q0 43 25.5 82t41.5 39t16 -12q0 -4 -13 -34t-13 -75q0 -20 -30 -20q-27 0 -27 20zM186 555q0 43 25.5 82t41.5 39t16 -12q0 -4 -13 -34t-13 -75q0 -20 -30 -20q-27 0 -27 20z" />
<glyph unicode="&#x201d;" horiz-adv-x="315" d="M61 547q0 3 13.5 33.5t13.5 74.5q0 21 30 21q26 0 26 -21q0 -43 -25 -81.5t-41 -38.5q-17 0 -17 12zM184 547q0 3 13.5 33.5t13.5 74.5q0 21 30 21q26 0 26 -21q0 -43 -25 -81.5t-41 -38.5q-17 0 -17 12z" />
<glyph unicode="&#x201e;" horiz-adv-x="326" d="M47 -67q0 3 13.5 33.5t13.5 74.5q0 21 30 21q26 0 26 -21q0 -43 -25 -81.5t-41 -38.5q-17 0 -17 12zM170 -67q0 3 13.5 33.5t13.5 74.5q0 21 30 21q26 0 26 -21q0 -43 -25 -81.5t-41 -38.5q-17 0 -17 12z" />
<glyph unicode="&#x2022;" horiz-adv-x="382" d="M56 258q0 56 39.5 95.5t95.5 39.5t95.5 -39.5t39.5 -95.5t-39.5 -95.5t-95.5 -39.5t-95.5 39.5t-39.5 95.5z" />
<glyph unicode="&#x2026;" horiz-adv-x="470" d="M66 29q0 14 15 25t31 11q15 0 30.5 -11t15.5 -25t-15.5 -25t-30.5 -11q-16 0 -31 11t-15 25zM189 29q0 14 15 25t31 11q15 0 30.5 -11t15.5 -25t-15.5 -25t-30.5 -11q-16 0 -31 11t-15 25zM312 29q0 14 15 25t31 11q15 0 30.5 -11t15.5 -25t-15.5 -25t-30.5 -11 q-16 0 -31 11t-15 25z" />
<glyph unicode="&#x202f;" horiz-adv-x="163" />
<glyph unicode="&#x2039;" horiz-adv-x="330" d="M36 333q0 7 16 21l182 169q5 5 20 5t15 -14t-13 -28l-158 -153l158 -155q13 -13 13 -28t-15 -15q-14 0 -20 6l-182 169q-16 14 -16 23z" />
<glyph unicode="&#x203a;" horiz-adv-x="330" d="M61 150q0 15 13 28l158 155l-158 153q-13 14 -13 28t15 14q14 0 19 -5l183 -169q16 -14 16 -21q0 -9 -16 -23l-183 -169q-6 -6 -19 -6q-15 0 -15 15z" />
<glyph unicode="&#x205f;" horiz-adv-x="204" />
<glyph unicode="&#x20ac;" horiz-adv-x="551" d="M44 260q0 21 27 21h36v75h-36q-27 0 -27 23q0 20 27 20h36v10q0 109 62 168t161 59h63q31 0 51.5 -9t29 -26t11.5 -33t3 -39q0 -30 -21 -30t-21 28q0 36 -13 51.5t-47 15.5h-56q-86 0 -133.5 -47.5t-47.5 -137.5v-10h199q29 0 29 -22q0 -21 -29 -21h-199v-75h199 q29 0 29 -23q0 -20 -29 -20h-199v-11q0 -90 47.5 -137.5t133.5 -47.5h56q34 0 47 15t13 52q0 28 21 28t21 -31q0 -22 -3 -38t-11.5 -33t-29 -26t-51.5 -9h-63q-99 0 -161 59t-62 168v11h-36q-27 0 -27 22z" />
<glyph unicode="&#x2122;" horiz-adv-x="644" d="M53 657q0 21 28 21h148q28 0 28 -22q0 -20 -28 -20h-53v-202q0 -27 -21 -27t-21 27v202h-53q-28 0 -28 21zM291 436v218q0 31 22 31q18 0 26 -17l87 -192l87 193q7 16 26 16q22 0 22 -31v-217q0 -30 -21 -30t-21 30v162l-81 -186q-2 -6 -12 -6q-7 0 -12 6l-81 186v-163 q0 -29 -21 -29t-21 29z" />
<glyph unicode="&#xe000;" horiz-adv-x="470" d="M0 0v470h470v-470h-470z" />
<glyph unicode="&#xfb01;" horiz-adv-x="447" d="M48 441q0 20 31 20q0 56 11.5 91.5t38 53.5t58.5 24t84 6q55 0 80.5 -27t25.5 -49q0 -14 -4.5 -18t-18.5 -4q-9 0 -13.5 9t-7 19t-18 19t-44.5 9h-2q-46 0 -70.5 -3.5t-44 -17.5t-26.5 -40t-7 -72h231q21 0 21 -28v-413q0 -27 -22 -27q-20 0 -20 27v399h-210v-395 q0 -31 -23 -31q-19 0 -19 31v395q-31 0 -31 22z" />
<glyph unicode="&#xfb02;" horiz-adv-x="496" d="M48 441q0 20 31 20q0 56 14 91.5t44 53.5t64 24t86 6h60q21 0 21 -30v-500q0 -35 13 -49.5t47 -14.5q30 0 30 -22q0 -20 -30 -20h-7q-55 0 -75 27t-20 97v470h-39q-48 0 -74.5 -3.5t-49.5 -17t-32.5 -40.5t-9.5 -72h143q31 0 31 -23q0 -19 -31 -19h-143v-395 q0 -31 -23 -31q-19 0 -19 31v395q-31 0 -31 22z" />
</font>
</defs>
</svg>
