<?xml version="1.0" standalone="no"?>
<!DOCTYPE svg PUBLIC "-//W3C//DTD SVG 1.1//EN" "http://www.w3.org/Graphics/SVG/1.1/DTD/svg11.dtd" >
<svg xmlns="http://www.w3.org/2000/svg">
<metadata></metadata>
<defs>
<font id="sinkin_sans100_thin_italic" horiz-adv-x="649" >
<font-face units-per-em="1000" ascent="810" descent="-190" />
<missing-glyph horiz-adv-x="307" />
<glyph horiz-adv-x="1000" />
<glyph horiz-adv-x="1000" />
<glyph horiz-adv-x="333" />
<glyph unicode="&#x9;" horiz-adv-x="990" />
<glyph unicode="&#xa;" horiz-adv-x="990" />
<glyph unicode="&#xd;" horiz-adv-x="990" />
<glyph horiz-adv-x="990" />
<glyph horiz-adv-x="990" />
<glyph horiz-adv-x="990" />
<glyph horiz-adv-x="990" />
<glyph horiz-adv-x="990" />
<glyph horiz-adv-x="990" />
<glyph horiz-adv-x="990" />
<glyph unicode=" "  horiz-adv-x="307" />
<glyph unicode="&#x09;" horiz-adv-x="307" />
<glyph unicode="&#xa0;" horiz-adv-x="307" />
<glyph unicode="!" horiz-adv-x="192" d="M5 20q7 30 34 30t20 -30q-8 -30 -35 -30t-19 30zM51 132l161 678h30l-174 -678h-17z" />
<glyph unicode="&#x22;" horiz-adv-x="217" d="M136 581l56 259h29l-71 -259h-14zM215 581l57 259h29l-72 -259h-14z" />
<glyph unicode="#" horiz-adv-x="624" d="M9 0l119 237l5 5h-113l5 19h117l1 5l139 279l5 4h-115l5 19h118v4l120 238h19l-120 -238l-4 -4h228l-1 5l120 237h20l-120 -237l-5 -5h113l-5 -19h-117v-4l-140 -279l-4 -5h114l-5 -19h-119l1 -3l-121 -239h-19l120 238l4 4h-226v-4l-120 -238h-19zM158 261h227l-1 5 l141 279l4 4h-229l1 -4l-138 -279z" />
<glyph unicode="$" horiz-adv-x="679" d="M8 90l20 16q40 -44 100.5 -69.5t132.5 -26.5l-1 3l87 351l2 2l-64 19q-100 30 -139 70t-23 104q18 73 98 124t219 52l-1 3l25 101h17l-25 -102l-3 -3q127 -3 211 -84l-19 -15q-73 78 -196 82l1 -2l-81 -328l-2 -3q49 -16 68 -20q97 -31 131 -78t18 -111q-18 -74 -94 -127 t-220 -55l1 -3l-24 -100h-17l24 100l3 3q-147 1 -249 97zM144 560q-15 -59 27 -94.5t136 -63.5l47 -14l-1 3l80 324l3 2q-119 0 -196.5 -43t-95.5 -114zM274 10q126 2 199.5 49t90.5 117q29 119 -144 169q-3 1 -11.5 3.5t-22 7t-24.5 7.5l1 -3l-86 -347z" />
<glyph unicode="%" horiz-adv-x="714" d="M106 591q26 105 80 167.5t118 62.5q65 0 88 -62.5t-3 -167.5t-78 -164.5t-119 -59.5q-66 0 -89 60t3 164zM124 591q-11 -53 -13.5 -98.5t19 -76.5t66.5 -31q66 0 109.5 58t65.5 148q51 212 -71 212q-67 0 -110.5 -61t-65.5 -151zM137 -10l476 830h19l-476 -830h-19z M385 213q25 105 79 167.5t119 62.5t87.5 -62.5t-3.5 -167.5t-77.5 -164.5t-118.5 -59.5t-89.5 60t3.5 164zM403 213q-11 -53 -13.5 -98.5t19 -76.5t66.5 -31q65 0 108.5 58.5t65.5 147.5q10 41 13.5 75.5t-1.5 67t-26 51t-57 18.5q-46 0 -83 -33t-57.5 -77.5t-34.5 -101.5z " />
<glyph unicode="&#x26;" horiz-adv-x="647" d="M32 190q17 71 84 132t195 121l-3 1q-21 35 -44 80q-30 61 -15 123q17 71 78 121t129 50q69 0 105.5 -50t18.5 -121q-13 -56 -51.5 -93.5t-129.5 -85.5l-65 -32l4 -2q4 -7 46 -83t83.5 -151.5t54.5 -98.5l-1 -3q56 53 79 118h24q-30 -74 -95 -132l2 -1l46 -83h-23l-39 70 v3q-111 -84 -263 -84q-126 0 -184.5 54.5t-35.5 146.5zM53 190q-12 -49 0.5 -85t44 -56.5t71.5 -30t88 -9.5q73 0 131 15.5t121 63.5h-4l-188 340l1 3q-129 -71 -159 -94q-87 -72 -106 -147zM268 644q-14 -55 10 -102q3 -6 15 -28t21.5 -39.5t13.5 -23.5l-1 -3l66 33 q82 42 118 77.5t48 84.5q16 64 -15.5 110.5t-90.5 46.5q-61 0 -115 -45t-70 -111z" />
<glyph unicode="'" horiz-adv-x="138" d="M136 581l56 259h29l-71 -259h-14z" />
<glyph unicode="(" horiz-adv-x="210" d="M59 358q69 281 277 549h19q-185 -264 -251 -536q-77 -307 -20 -562h-19q-75 271 -6 549z" />
<glyph unicode=")" horiz-adv-x="210" d="M-106 -191q182 256 257 562q68 275 14 536h19q74 -271 6 -549q-69 -277 -278 -549h-18z" />
<glyph unicode="*" horiz-adv-x="560" d="M127 548l1 29l220 41l-140 129l24 23l127 -142l46 217h29l-62 -218l197 142l13 -23l-205 -128l202 -41l-14 -29l-193 56l52 -192l-30 -13l-37 198l-134 -198l-23 12l146 192z" />
<glyph unicode="+" horiz-adv-x="666" d="M117 395l5 20h237l-2 4l63 254h20l-63 -254l-3 -4h236l-5 -20h-237l2 -4l-62 -253h-20l62 253l4 4h-237z" />
<glyph unicode="," horiz-adv-x="183" d="M-32 -90l42 78l5 4q-13 -1 -18 7.5t-2 21.5q8 30 35 30q39 0 7 -57l-50 -93z" />
<glyph unicode="-" horiz-adv-x="332" d="M38 316l5 20h273l-5 -20h-273z" />
<glyph unicode="." horiz-adv-x="183" d="M-5 22q8 30 35 30t19 -30q-6 -30 -34 -30q-26 0 -20 30z" />
<glyph unicode="/" horiz-adv-x="169" d="M-151 -50l512 910h21l-511 -910h-22z" />
<glyph unicode="0" horiz-adv-x="673" d="M84 400q48 194 152 307t233 113q132 0 180 -112t-1 -308q-48 -195 -148.5 -302.5t-235.5 -107.5q-134 0 -181 107.5t1 302.5zM105 400q-20 -79 -23 -145t11.5 -123.5t59 -90t116.5 -32.5t132 31.5t103 87.5t73 123.5t50 148.5q19 76 22.5 144t-10.5 127.5t-58.5 94.5 t-115.5 35q-69 0 -130 -34.5t-105 -93.5t-75 -127.5t-50 -145.5z" />
<glyph unicode="1" horiz-adv-x="308" d="M107 633l208 177h24l-199 -810h-20l176 715l21 77h-2q-29 -27 -61 -55t-75 -64t-62 -53z" />
<glyph unicode="2" horiz-adv-x="600" d="M-14 0l25 106q22 89 82 160t161 106l124 43q105 37 158 84t70 118q18 75 -20.5 129.5t-149.5 54.5q-58 0 -121 -24.5t-113 -65.5l-11 15q111 94 250 94q52 0 90.5 -12t59.5 -32t33 -46t11 -55t-7 -58q-36 -150 -234 -219l-136 -46q-92 -32 -149 -98t-78 -152l-19 -80 l-4 -3h472l-5 -19h-489z" />
<glyph unicode="3" horiz-adv-x="609" d="M6 84l20 18q73 -93 196 -93q120 0 197 59t97 141q21 84 -24 138.5t-149 67.5q-1 0 -88 3l5 18q74 2 87 4q110 12 174 63.5t81 122.5q18 71 -28.5 122.5t-152.5 51.5q-131 0 -236 -86l-12 18q116 88 253 88q117 0 167 -57.5t31 -134.5q-7 -30 -23 -58.5t-42 -57.5 t-68.5 -51t-95.5 -32l-1 -2q95 -21 128.5 -80t14.5 -138q-22 -89 -104 -154t-215 -65q-131 0 -212 94z" />
<glyph unicode="4" horiz-adv-x="639" d="M22 209l4 17l587 584h13l-143 -579l-3 -3h106l-5 -19h-106l2 -3l-51 -206h-20l51 206l2 3h-437zM52 228h412l-1 3l118 480l19 62h-2l-42 -44q-40 -40 -222 -221.5t-281 -277.5z" />
<glyph unicode="5" horiz-adv-x="626" d="M11 106l18 15q69 -113 200 -113q128 0 208.5 71t105.5 172q25 102 -22.5 173.5t-166.5 71.5q-124 0 -242 -79l-9 13l134 380h407l-4 -19l-394 -1l3 -3l-109 -307l-16 -36l1 -1q107 71 234 71q129 0 180.5 -76t24.5 -187q-27 -110 -115 -186t-225 -76q-75 0 -124.5 29 t-88.5 88z" />
<glyph unicode="6" horiz-adv-x="666" d="M81 390q20 81 57 156t87.5 137t118.5 99.5t142 37.5q69 0 116 -21.5t83 -70.5l-20 -18q-56 91 -184 91q-68 0 -131 -36.5t-111 -96.5t-83 -131.5t-54 -146.5q-12 -55 -16 -81h2q54 105 141.5 155t173.5 50q63 0 109.5 -22.5t68.5 -59t30 -84t-7 -97.5q-26 -108 -116 -185 t-221 -77q-140 0 -187 102.5t1 298.5zM88 250q-13 -41 -5.5 -84t27 -78t62.5 -57.5t101 -22.5q119 0 202.5 72t107.5 170q13 42 6.5 85.5t-25.5 79t-62 58t-103 22.5q-111 0 -199 -76t-112 -169z" />
<glyph unicode="7" horiz-adv-x="583" d="M148 0l29 120q30 122 69 200.5t112 155.5l228 245l69 68l1 2h-500l4 19h524l-3 -13l-305 -326q-71 -76 -111.5 -158.5t-69.5 -198.5l-28 -114h-19z" />
<glyph unicode="8" horiz-adv-x="670" d="M37 212q42 165 242 217v2q-73 23 -100 77.5t-11 116.5q20 81 98.5 138t203.5 57t173.5 -57t29.5 -138q-16 -62 -70.5 -117.5t-138.5 -75.5v-1q175 -56 135 -219q-21 -85 -113.5 -153.5t-222.5 -68.5q-86 0 -143 34.5t-76.5 84.5t-6.5 103zM60 214q-20 -82 35.5 -143.5 t172.5 -61.5q116 0 203 63t107 142q23 93 -36.5 150.5t-172.5 57.5t-199 -56t-110 -152zM188 618q-18 -73 31 -127t154 -54t181.5 54t94.5 127q19 77 -27.5 129.5t-157.5 52.5t-184 -52.5t-92 -129.5z" />
<glyph unicode="9" horiz-adv-x="666" d="M42 82l20 17q57 -90 185 -90q89 0 169.5 63t132 154t76.5 194q8 32 16 80h-2q-54 -105 -141.5 -154.5t-173.5 -49.5q-63 0 -109.5 22t-68.5 59t-30 84t7 97q27 108 116.5 185t220.5 77q140 0 187 -102.5t-1 -297.5q-20 -81 -57 -156.5t-87.5 -137.5t-118 -99.5 t-141.5 -37.5q-70 0 -117 22t-83 71zM144 560q-13 -42 -6.5 -86t25.5 -79.5t62 -58t103 -22.5q111 0 199.5 76t111.5 169q13 41 5.5 84t-27 78t-62.5 57.5t-101 22.5q-118 0 -202 -71.5t-108 -169.5z" />
<glyph unicode=":" horiz-adv-x="192" d="M5 20q8 30 34 30t20 -30q-8 -30 -35 -30t-19 30zM126 510q7 30 34 30t20 -30q-8 -30 -35 -30t-19 30z" />
<glyph unicode=";" horiz-adv-x="192" d="M-22 -90l42 78l5 4q-13 -1 -18 7.5t-2 21.5q8 30 35 30q39 0 7 -57l-50 -93zM126 510q7 30 34 30t20 -30q-8 -30 -35 -30t-19 30z" />
<glyph unicode="&#x3c;" horiz-adv-x="415" d="M85 405l327 285l11 -15q-36 -31 -98.5 -85.5t-115 -99.5t-99.5 -84l-1 -2q28 -39 58 -84l66 -99t57 -85l-19 -15z" />
<glyph unicode="=" horiz-adv-x="668" d="M84 261l5 19h490l-5 -19h-490zM151 530l4 19h490l-4 -19h-490z" />
<glyph unicode="&#x3e;" horiz-adv-x="415" d="M54 136q36 31 98.5 85t115 99t99.5 84v2q-28 39 -58 84t-65.5 99.5t-56.5 85.5l18 15l186 -285l-325 -284z" />
<glyph unicode="?" horiz-adv-x="544" d="M121 20q8 30 35 30t19 -30q-6 -30 -34 -30q-26 0 -20 30zM164 724q110 96 243 96q67 0 110.5 -31.5t56 -74.5t1.5 -88q-15 -59 -52.5 -97.5t-100.5 -70.5l-34 -17q-82 -42 -120 -88t-60 -136l-20 -84h-21l23 94q23 92 61 139t128 92l29 15q61 30 96.5 65.5t48.5 87.5 q17 69 -27.5 121.5t-123.5 52.5q-122 0 -226 -93z" />
<glyph unicode="@" horiz-adv-x="948" d="M102 412q28 115 110 215.5t192.5 159t220.5 58.5q161 0 248.5 -116t46.5 -283q-28 -111 -105 -194.5t-169 -83.5q-41 0 -64 31t-16 74h-2q-43 -53 -83 -79.5t-95 -26.5q-73 0 -99 58t-3 149q25 99 108.5 179t179.5 80q57 0 77.5 -41.5t6.5 -102.5h2l66 133h21l-120 -246 q-26 -55 -34 -92q-10 -38 7.5 -67.5t50.5 -29.5q86 0 156.5 82t93.5 176q39 158 -43.5 269.5t-233.5 111.5q-161 0 -310 -123t-190 -290q-44 -179 41.5 -299.5t255.5 -120.5q110 0 207 57l11 -15q-113 -61 -217 -61q-186 0 -275.5 124.5t-42.5 313.5zM306 374 q-11 -52 -9.5 -93.5t26 -68t69.5 -26.5q43 0 84.5 27.5t71.5 69t51 85.5t31 83q40 163 -70 163q-80 0 -156 -75t-98 -165z" />
<glyph unicode="A" horiz-adv-x="719" d="M-54 0l536 810h18l135 -810h-24l-38 222l3 3h-461l1 -3l-146 -222h-24zM128 244h445l-4 4l-78 472l-6 67h-1l-38 -67l-313 -473z" />
<glyph unicode="B" horiz-adv-x="698" d="M20 0l200 810h318q107 0 144.5 -57t16.5 -142q-17 -69 -64.5 -120t-113.5 -67v-2q82 -20 108.5 -76.5t7.5 -133.5q-53 -212 -290 -212h-327zM42 19h310q217 0 264 194q23 92 -21.5 144t-147.5 52h-310l3 -3l-95 -384zM142 428h291q104 0 165 52.5t80 130.5 q22 91 -20 135.5t-135 44.5h-291l2 -3l-88 -357z" />
<glyph unicode="C" horiz-adv-x="688" d="M84 400q47 192 169 306t291 114q157 0 224 -94l-19 -16q-59 91 -210 91q-168 0 -280 -113.5t-156 -288.5q-22 -80 -18 -151t28.5 -124t83.5 -84t146 -31q147 0 255 90l10 -14q-116 -95 -270 -95q-173 0 -237 108.5t-17 301.5z" />
<glyph unicode="D" horiz-adv-x="743" d="M20 0l200 810h268q80 0 134.5 -23t81.5 -60t35.5 -92t2.5 -109t-22 -121q-17 -67 -37.5 -121.5t-55.5 -109t-79.5 -91.5t-109.5 -60t-145 -23h-273zM42 18h248q79 0 143 23t106 58.5t75 89t51.5 103.5t33.5 113q15 62 21.5 112t-0.5 103.5t-32 89.5t-78.5 59t-133.5 23 h-244l2 -4l-189 -767z" />
<glyph unicode="E" horiz-adv-x="673" d="M20 0l200 810h515l-5 -19h-498l2 -3l-91 -370l-3 -3h450l-5 -19h-450l2 -3l-92 -371l-3 -3h497l-4 -19h-515z" />
<glyph unicode="F" horiz-adv-x="614" d="M20 0l200 810h495l-5 -19h-478l2 -3l-96 -391l-4 -4h430l-4 -19h-431l2 -3l-91 -371h-20z" />
<glyph unicode="G" horiz-adv-x="811" d="M83 396q49 199 171 311.5t291 112.5q158 0 234 -92l-19 -17q-33 45 -93 67.5t-127 22.5q-164 0 -277 -109.5t-159 -295.5q-45 -179 15 -283t223 -104q130 0 238.5 108t150.5 277l3 3h-266l5 19h282l-103 -416h-17l62 251h-2q-18 -42 -50 -85t-77 -84t-105.5 -66.5 t-125.5 -25.5q-173 0 -237.5 106.5t-16.5 299.5z" />
<glyph unicode="H" horiz-adv-x="762" d="M20 0l200 810h20l-97 -392l-4 -3h550l-2 3l97 392h20l-200 -810h-20l97 393l4 3h-550l2 -3l-97 -393h-20z" />
<glyph unicode="I" horiz-adv-x="208" d="M25 0l200 810h19l-199 -810h-20z" />
<glyph unicode="J" horiz-adv-x="521" d="M-49 83l20 17q50 -91 151 -91q228 0 296 273l130 528h20l-130 -526q-72 -294 -322 -294q-110 0 -165 93z" />
<glyph unicode="K" horiz-adv-x="606" d="M20 0l200 810h20l-200 -810h-20zM150 409l545 401h30l-545 -400v-1l357 -409h-30z" />
<glyph unicode="L" horiz-adv-x="572" d="M20 0l200 810h20l-195 -788l-4 -3h452l-5 -19h-468z" />
<glyph unicode="M" horiz-adv-x="890" d="M20 -1l200 811h19l129 -675l15 -100h2l65 100l461 674h20l-200 -809h-19l188 762h-2q-100 -155 -297 -442t-226 -330h-3l-121 636l-21 137h-2l-189 -764h-19z" />
<glyph unicode="N" horiz-adv-x="762" d="M20 0l200 810h17l304 -658l50 -117h2l191 775h20l-200 -810h-17l-304 654l-50 120h-2l-191 -774h-20z" />
<glyph unicode="O" horiz-adv-x="786" d="M84 400q48 194 164 307t278 113q163 0 223 -112.5t12 -307.5q-47 -192 -162.5 -301t-277.5 -109q-164 0 -224.5 108.5t-12.5 301.5zM105 400q-22 -79 -19.5 -150t24.5 -124.5t77.5 -85t138.5 -31.5q82 0 152.5 31.5t121 86.5t85.5 123.5t55 149.5t20 151t-22.5 127 t-77 90t-138.5 33q-83 0 -154.5 -33t-122 -90t-85.5 -127t-55 -151z" />
<glyph unicode="P" horiz-adv-x="688" d="M20 0l200 810h329q109 0 151 -63.5t16 -171.5q-25 -103 -100 -168.5t-184 -65.5h-311l2 -4l-83 -337h-20zM126 360h309q99 0 168 60t92 155q25 98 -14.5 157t-138.5 59h-310l2 -3l-105 -425z" />
<glyph unicode="Q" horiz-adv-x="786" d="M86 407q47 192 162 302.5t278 110.5q164 0 224 -110t13 -303q-42 -172 -155 -298l95 -127l-16 -14l-95 127q-119 -105 -271 -105q-163 0 -223 112t-12 305zM106 407q-15 -63 -18.5 -120t8.5 -108.5t39 -88.5t76 -59t115 -22q147 0 252 98l3 1l-100 135l18 15l99 -134l1 4 q99 100 143 279q15 63 18.5 119t-8 107t-38.5 88t-76 58.5t-116 21.5q-83 0 -154 -31.5t-121.5 -87.5t-85.5 -125t-55 -150z" />
<glyph unicode="R" horiz-adv-x="688" d="M20 0l200 810h314q104 0 153 -55.5t22 -166.5q-20 -83 -83.5 -144.5t-160.5 -74.5v-2q80 -27 104 -147l45 -220h-26l-41 211q-15 81 -60 118t-133 37h-226l1 -2l-89 -364h-20zM132 385h287q116 0 183 60t87 143q25 102 -20 152.5t-140 50.5h-297l2 -4l-99 -399z" />
<glyph unicode="S" horiz-adv-x="668" d="M5 99l21 18q40 -49 105.5 -78.5t137.5 -29.5q131 0 209.5 53t98.5 132q33 134 -143 190q-8 2 -68.5 22t-69.5 23q-102 33 -141 78t-21 117q21 83 105 139.5t227 56.5q137 0 224 -95l-20 -17q-36 43 -91.5 68t-116.5 25q-123 0 -205 -48.5t-102 -128.5 q-16 -67 25.5 -105.5t138.5 -70.5q71 -22 130 -43q185 -65 148 -211q-9 -38 -31.5 -72t-60.5 -65t-100 -49t-141 -18q-153 0 -259 109z" />
<glyph unicode="T" horiz-adv-x="634" d="M146 791l4 19h594l-4 -19h-289l1 -3l-195 -788h-19l194 788l3 3h-289z" />
<glyph unicode="U" horiz-adv-x="774" d="M106 368l109 442h20l-112 -452q-41 -165 6 -257t191 -92q283 0 369 349l112 452h20l-109 -442q-94 -378 -396 -378q-303 0 -210 378z" />
<glyph unicode="V" horiz-adv-x="701" d="M145 810h25l110 -704l7 -81h2l46 81l458 704h24l-526 -810h-18z" />
<glyph unicode="W" horiz-adv-x="942" d="M155 810h24l15 -719l-3 -58h2l26 57l374 720h16l18 -720l-2 -57h2l26 57l371 720h24l-420 -810h-20l-18 695l3 75h-3l-35 -75l-361 -695h-20z" />
<glyph unicode="X" horiz-adv-x="612" d="M-50 0l375 407l-172 403h28l138 -326l22 -60h2q67 77 197 219t153 167h28l-371 -404l173 -406h-27q-11 27 -70.5 171t-90.5 222h-2q-68 -79 -198.5 -221.5t-156.5 -171.5h-28z" />
<glyph unicode="Y" horiz-adv-x="650" d="M145 810h28l147 -370l26 -76h1l62 76l330 370h27l-414 -464l-85 -346h-20l85 346z" />
<glyph unicode="Z" horiz-adv-x="707" d="M-10 0l4 18l679 702l72 69l1 2h-551l5 19h574l-4 -17l-679 -703l-73 -69l-1 -2h566l-5 -19h-588z" />
<glyph unicode="[" horiz-adv-x="237" d="M-57 -190l271 1097h168l-5 -19h-147l-261 -1058h147l-5 -20h-168z" />
<glyph unicode="\" horiz-adv-x="249" d="M113 860h21l64 -910h-22z" />
<glyph unicode="]" horiz-adv-x="237" d="M-106 -190l5 20h146l261 1058h-146l5 19h167l-271 -1097h-167z" />
<glyph unicode="^" horiz-adv-x="562" d="M107 415l302 395h5l107 -395h-21l-82 304l-13 59h-2q-40 -54 -86 -115.5t-100.5 -133t-87.5 -114.5h-22z" />
<glyph unicode="_" horiz-adv-x="651" d="M-115 -147l4 19h671l-4 -19h-671z" />
<glyph unicode="`" horiz-adv-x="616" d="M352 860l22 18l121 -175l-11 -9z" />
<glyph unicode="a" d="M63 314q36 149 124.5 237t213.5 88q83 0 129.5 -46t53.5 -130h2l41 167h19l-156 -630h-19l40 161h-2q-44 -79 -115 -125t-154 -46q-124 0 -168.5 88.5t-8.5 235.5zM81 314q-17 -59 -14.5 -114.5t19 -98t57.5 -68.5t102 -26q108 0 191 87.5t115 219.5q34 138 -5.5 222.5 t-149.5 84.5q-119 0 -201 -89.5t-114 -217.5z" />
<glyph unicode="b" d="M20 0l207 839h19l-93 -376h2q48 84 117.5 130t153.5 46q124 0 168.5 -87.5t7.5 -237.5q-36 -147 -124 -235.5t-212 -88.5q-83 0 -131.5 46t-54.5 125h-2l-39 -161h-19zM114 314q-32 -131 8 -219t147 -88q119 0 201 89t114 218q17 58 15 113t-18 98t-57 69.5t-102 26.5 q-111 0 -192.5 -84.5t-115.5 -222.5z" />
<glyph unicode="c" horiz-adv-x="524" d="M62 309q37 149 129 240t214 91q97 0 155 -55l-16 -15q-49 54 -144 52q-118 -1 -202.5 -92t-117.5 -221q-16 -57 -14 -111.5t17.5 -96.5t57.5 -67.5t105 -25.5q103 0 183 60l9 -14q-85 -64 -195 -64q-128 0 -172.5 86t-8.5 233z" />
<glyph unicode="d" d="M63 314q36 149 124.5 237t213.5 88q83 0 129.5 -46t53.5 -130h2l93 376h18l-207 -839h-19l40 161h-2q-44 -79 -115 -125t-154 -46q-124 0 -168.5 88.5t-8.5 235.5zM81 314q-17 -59 -14.5 -114.5t19 -98t57.5 -68.5t102 -26q108 0 191 87.5t115 219.5q34 138 -5.5 222.5 t-149.5 84.5q-119 0 -201 -89.5t-114 -217.5z" />
<glyph unicode="e" horiz-adv-x="626" d="M62 309q22 89 64.5 161t115 121t162.5 49q69 0 113.5 -27.5t61.5 -75t17 -104.5t-18 -124l-501 -1l2 -3q-16 -60 -13.5 -113.5t19.5 -94.5t60 -65t106 -24q99 0 187 62l9 -15q-92 -65 -199 -65q-92 0 -143 44t-57 115t14 160zM81 326l485 1l-2 3q13 56 10 108.5 t-18.5 93.5t-55.5 65.5t-101 24.5q-114 0 -196.5 -86t-117.5 -207z" />
<glyph unicode="f" horiz-adv-x="337" d="M-209 -207l4 18q26 -8 52 -8q75 0 118.5 45.5t66.5 137.5l154 622l2 3h-77l5 18h77l-1 4l9 36q20 83 74 129.5t132 46.5q30 0 47 -7l-4 -17q-20 6 -45 6q-147 0 -186 -160l-8 -34l-3 -4h195l-5 -18h-195l2 -3l-153 -619q-25 -102 -74 -153t-129 -51q-32 0 -58 8z" />
<glyph unicode="g" d="M6 -154l20 16q60 -60 169 -60q228 0 287 241l44 178h-2q-41 -69 -109 -112t-151 -43q-127 0 -175.5 79t-16.5 207q32 129 118.5 208.5t214.5 79.5q82 0 130 -46.5t53 -114.5h2l37 151h19l-146 -589q-63 -256 -309 -256q-113 0 -185 61zM91 352q-30 -121 14.5 -194.5 t162.5 -73.5q109 0 186.5 78t105.5 190q15 51 11.5 100t-20 86.5t-56 60.5t-95.5 23q-118 0 -199 -75.5t-110 -194.5z" />
<glyph unicode="h" d="M20 0l207 840h19l-86 -349h2q41 69 114 109t159 40q111 0 150 -58.5t14 -162.5l-104 -419h-19l101 409q52 213 -146 213q-40 0 -82.5 -12.5t-86 -38t-78 -73.5t-50.5 -111l-95 -387h-19z" />
<glyph unicode="i" horiz-adv-x="197" d="M20 0l155 629h19l-155 -629h-19zM205 812q8 34 32 34q25 0 17 -34q-9 -33 -33 -33q-25 0 -16 33z" />
<glyph unicode="j" horiz-adv-x="197" d="M-184 -207l5 19q22 -9 42 -9q55 0 89.5 31t51.5 103l171 693h19l-173 -699q-35 -146 -163 -146q-20 0 -42 8zM205 813q8 33 33 33q24 0 16 -33q-8 -34 -33 -34t-16 34z" />
<glyph unicode="k" horiz-adv-x="476" d="M20 0l207 840h19l-207 -840h-19zM129 324l389 305h27l-389 -305l250 -324h-27z" />
<glyph unicode="l" horiz-adv-x="197" d="M20 0l207 840h19l-207 -840h-19z" />
<glyph unicode="m" horiz-adv-x="922" d="M20 0l155 630h20l-33 -133h2q34 63 90.5 103t124.5 40q81 0 112 -45.5t24 -109.5h2q38 72 99 113.5t128 41.5q183 0 122 -247l-97 -393h-20l93 377q32 119 7.5 182.5t-109.5 62.5q-83 -1 -149.5 -66.5t-89.5 -159.5l-97 -396h-19l95 383q30 117 4.5 178t-110.5 61 q-82 0 -148.5 -67.5t-91.5 -170.5l-95 -384h-19z" />
<glyph unicode="n" d="M20 0l155 630h19l-33 -134h2q41 67 112.5 105.5t148.5 38.5q229 0 173 -228l-102 -412h-19l96 390q13 51 13 90t-14 72.5t-52 51t-99 17.5q-99 0 -179 -62.5t-108 -177.5l-94 -381h-19z" />
<glyph unicode="o" horiz-adv-x="626" d="M63 315q37 150 125 237.5t213 87.5q126 0 171.5 -87t7.5 -238q-37 -149 -126 -237t-213 -88q-126 0 -171 87t-7 238zM83 315q-16 -62 -15.5 -115.5t17.5 -97.5t58 -69t103 -25q121 0 201 87t113 220q16 63 15.5 116.5t-17.5 96.5t-58 68t-103 25q-122 0 -202 -87 t-112 -219z" />
<glyph unicode="p" d="M-32 -210l207 840h19l-40 -162h2q45 79 116 125t154 46q124 0 168.5 -88.5t8.5 -235.5q-37 -149 -125 -237t-213 -88q-83 0 -130 46t-54 129h-2l-92 -375h-19zM114 315q-34 -138 6 -223t150 -85q119 0 200.5 90t113.5 218q17 59 15 114t-18.5 97.5t-57.5 68.5t-102 26 q-108 0 -191 -87t-116 -219z" />
<glyph unicode="q" d="M63 315q36 147 124.5 235.5t212.5 88.5q83 0 131.5 -46t53.5 -125h2l40 162h19l-208 -840h-18l92 375h-2q-48 -83 -117.5 -129t-152.5 -46q-125 0 -169.5 88t-7.5 237zM82 315q-17 -58 -15 -113t17.5 -98.5t56.5 -70t103 -26.5q110 0 191.5 85t115.5 223 q33 131 -7.5 218.5t-147.5 87.5q-81 0 -147.5 -45t-106.5 -112t-60 -149z" />
<glyph unicode="r" horiz-adv-x="348" d="M20 0l155 629h19l-45 -180h2q40 83 112 132.5t149 49.5h3l-5 -21h-3q-90 1 -172.5 -75.5t-119.5 -224.5l-76 -310h-19z" />
<glyph unicode="s" horiz-adv-x="542" d="M4 75l18 15q68 -82 181 -82q88 0 152 38t81 105q13 54 -12.5 87.5t-89.5 54.5q-4 1 -49.5 17.5t-52.5 18.5q-79 27 -109.5 63.5t-16.5 93.5q15 63 78 108.5t170 45.5q113 0 174 -77l-19 -16q-55 74 -159 74q-85 0 -147 -37t-77 -98q-13 -54 21 -85t109 -56q5 -2 45 -17 t47 -17q136 -46 108 -160q-17 -67 -79.5 -114.5t-175.5 -47.5q-124 0 -197 86z" />
<glyph unicode="t" horiz-adv-x="375" d="M76 164l110 444l3 3h-78l5 19h77l-1 3l30 121l21 10l-32 -131l-3 -3h195l-5 -19h-195l1 -3l-108 -440q-39 -160 80 -160q59 0 118 38l10 -14q-69 -42 -137 -42q-62 0 -87 43.5t-4 130.5z" />
<glyph unicode="u" horiz-adv-x="641" d="M71 229l100 401h18l-97 -395q-12 -48 -12.5 -85t12.5 -70.5t51 -52t99 -18.5q96 0 175.5 62.5t107.5 177.5l94 381h19l-156 -630h-18l33 135h-2q-41 -67 -108.5 -106t-149.5 -39q-224 0 -166 239z" />
<glyph unicode="v" horiz-adv-x="551" d="M96 630h23l85 -528l7 -76h2l42 76l349 528h23l-414 -630h-15z" />
<glyph unicode="w" horiz-adv-x="787" d="M101 630h22l23 -542l-3 -61h2l28 61l296 542h23l28 -542l-3 -61h2l27 61l291 542h22l-337 -630h-19l-29 548l1 57h-2l-26 -57l-300 -548h-20z" />
<glyph unicode="x" horiz-adv-x="484" d="M-50 0l290 317l-131 313h24l105 -254l16 -43h2l35 43l232 254h25l-285 -313l132 -317h-24l-107 259l-15 43h-2l-35 -43l-236 -259h-26z" />
<glyph unicode="y" horiz-adv-x="547" d="M-77 -202l4 19q36 -13 67 -13q51 0 91.5 29t91.5 112l29 49l-105 636h23l87 -526l10 -86h2l49 86l324 526h23l-437 -709q-46 -75 -90.5 -105.5t-97.5 -30.5q-42 0 -71 13z" />
<glyph unicode="z" horiz-adv-x="594" d="M-10 0l4 15l537 543l57 51l1 2h-441l5 18h464l-3 -13l-542 -548l-53 -48v-2h451l-4 -18h-476z" />
<glyph unicode="{" horiz-adv-x="283" d="M28 -60l69 281q6 24 8 40.5t-0.5 35t-14.5 31t-34 18.5l6 25q29 9 49.5 26t32.5 40t20 54l76 310q7 30 20 50t26.5 31.5t39 18t45.5 9t58 4.5l-5 -19q-84 0 -119 -21.5t-48 -73.5l-72 -294q-15 -61 -38 -94.5t-72 -51.5l-1 -2q40 -16 47 -52.5t-9 -95.5l-67 -270 q-7 -34 -6 -60t30.5 -41.5t90.5 -15.5l-5 -19q-27 0 -46 3q-61 9 -79.5 37t-1.5 96z" />
<glyph unicode="|" horiz-adv-x="247" d="M32 -50l225 910h19l-225 -910h-19z" />
<glyph unicode="}" horiz-adv-x="283" d="M-108 -196l5 19q88 0 123 29.5t49 87.5l67 270q16 65 39.5 98.5t70.5 49.5l1 2q-40 18 -47 55t9 91l73 294q13 52 -11.5 73.5t-108.5 21.5l4 19q31 -1 47 -3q60 -6 80.5 -28.5t5.5 -81.5l-77 -310q-12 -44 -2.5 -75.5t45.5 -44.5l-6 -25q-47 -12 -69 -43.5t-34 -81.5 l-69 -281q-17 -68 -50 -96t-97 -37z" />
<glyph unicode="~" horiz-adv-x="528" d="M32 291q28 44 67.5 72t81.5 28q44 0 93 -52q20 -23 46 -42q25 -18 54 -18q38 0 69 19.5t66 73.5l9 -12q-55 -100 -149 -100q-43 0 -87 44q-39 39 -50 47q-26 21 -56 21q-71 0 -134 -95z" />
<glyph horiz-adv-x="990" />
<glyph unicode="&#xa1;" horiz-adv-x="192" d="M11 0l175 678h17l-161 -678h-31zM195 790q8 30 34 30q27 0 20 -30q-8 -30 -34 -30q-28 0 -20 30z" />
<glyph unicode="&#xa2;" horiz-adv-x="524" d="M84 399q37 149 129 240t214 91q33 0 47 -3l-1 3l39 90h18l-41 -93l-3 -2q54 -10 97 -50l-17 -15q-32 35 -88 46l1 -3l-261 -597l-4 -3q27 -5 54 -5q103 0 183 60l9 -14q-85 -64 -195 -64q-37 0 -58 5v-3l-41 -94h-17l42 98l3 3q-88 23 -115.5 107t5.5 203zM103 399 q-62 -242 99 -292v3l260 596l4 3q-13 3 -43 3q-119 -1 -203.5 -92t-116.5 -221z" />
<glyph unicode="&#xa3;" horiz-adv-x="638" d="M-15 0l4 16q105 52 152.5 140t47.5 236l2 3h-91l4 18h87l-2 3q-4 109 17 196q25 100 99.5 153.5t172.5 53.5q134 0 199 -84l-16 -14q-62 80 -188 80q-87 0 -156 -49.5t-91 -139.5q-20 -80 -18 -196l-2 -3h233l-5 -18h-228l2 -2q0 -86 -14 -145q-39 -157 -167 -228l-1 -2 h477l-4 -18h-514z" />
<glyph unicode="&#xa4;" horiz-adv-x="569" d="M32 187l94 77q-36 62 -17 139q17 70 86 137l-57 80l19 15l59 -77q74 54 151 54q76 0 124 -54l96 78l12 -16l-95 -77q36 -64 18 -140q-21 -82 -87 -141l55 -76l-18 -15l-59 75q-70 -50 -149 -50q-75 0 -126 52l-95 -76zM128 403q-20 -78 21 -133q41 -56 120 -56 q80 0 147 55q67 54 86 134q20 80 -21.5 135.5t-117.5 55.5q-81 0 -148 -57q-68 -57 -87 -134z" />
<glyph unicode="&#xa5;" horiz-adv-x="670" d="M91 240l5 19h225l21 87l-10 25h-209l5 19h196l-169 420h28l147 -370l26 -76h1l62 76l330 370h27l-375 -420h197l-4 -19h-210l-22 -25l-22 -87h226l-5 -19h-225l-60 -240h-19l59 240h-225z" />
<glyph unicode="&#xa6;" horiz-adv-x="247" d="M32 -50l101 410h19l-101 -410h-19zM156 450l101 410h19l-102 -410h-18z" />
<glyph unicode="&#xa7;" horiz-adv-x="550" d="M-6 -131l18 15q63 -66 162 -66q68 0 115.5 30.5t62.5 91.5q3 15 3.5 29t-1.5 26t-7.5 24.5t-11 22t-14.5 20t-16 17.5t-17.5 16.5t-17 14.5t-17.5 13q-15 12 -50 37t-52 38q-59 45 -77.5 87t-5.5 94q12 51 52 95.5t118 97.5q-42 47 -25 115q14 59 71 95.5t137 36.5 q97 0 165 -76l-18 -16q-62 74 -151 74q-72 0 -122 -31t-63 -85q-8 -33 2 -62.5t50 -68.5q5 -5 48 -39q8 -6 25 -17.5t36.5 -25t25.5 -18.5q62 -44 81 -85t5 -98q-12 -51 -52 -96t-115 -98q29 -43 35.5 -74t-3.5 -64q-17 -67 -71.5 -103.5t-128.5 -36.5q-108 0 -176 70z M87 379q-22 -86 78 -164q12 -10 47.5 -35t66.5 -49t49 -44q137 96 158 183q13 52 -6.5 88t-69.5 75q-9 7 -47.5 33t-68.5 49.5t-47 44.5q-72 -47 -110.5 -90.5t-49.5 -90.5z" />
<glyph unicode="&#xa8;" horiz-adv-x="616" d="M306 735q6 27 31 27q24 0 18 -27q-8 -27 -31 -27q-24 0 -18 27zM468 735q6 27 31 27q23 0 17 -27q-7 -27 -31 -27q-23 0 -17 27z" />
<glyph unicode="&#xa9;" horiz-adv-x="912" d="M89 401q42 171 188.5 292.5t310.5 121.5t250 -121.5t44 -292.5q-43 -172 -189 -294t-310 -122t-250.5 122t-43.5 294zM110 401q-27 -107 1.5 -198.5t102 -145t174.5 -53.5q154 0 293.5 117t179.5 280q40 162 -42.5 278.5t-235.5 116.5t-293 -116.5t-180 -278.5zM253 396 q31 124 112 201t189 77q82 0 139 -48l-18 -16q-51 44 -126 44q-102 0 -175.5 -75t-100.5 -183q-14 -48 -11.5 -93t17.5 -80t51.5 -56t91.5 -21q83 0 158 53l12 -17q-88 -56 -175 -56q-114 0 -154 73t-10 197z" />
<glyph unicode="&#xaa;" horiz-adv-x="418" d="M109 601q24 98 82.5 156.5t140.5 58.5q104 0 120 -104l24 98h18l-103 -415h-18l23 94q-30 -48 -74.5 -75t-95.5 -27q-82 0 -111.5 59t-5.5 155zM127 601q-20 -83 4.5 -139.5t99.5 -56.5q68 0 121 56t73 140q22 89 -2.5 143t-94.5 54q-76 0 -128.5 -57.5t-72.5 -139.5z " />
<glyph unicode="&#xab;" horiz-adv-x="419" d="M48 255l200 186l13 -17l-141 -132l-48 -36v-2l30 -36l76 -132l-22 -17zM187 255l199 186l14 -17l-142 -132l-47 -36l-1 -2l30 -36l76 -132l-21 -17z" />
<glyph unicode="&#xac;" horiz-adv-x="504" d="M34 300l5 18h445l-67 -268h-18l61 246l4 4h-430z" />
<glyph unicode="&#xad;" horiz-adv-x="332" d="M38 316l5 20h273l-5 -20h-273z" />
<glyph unicode="&#xae;" horiz-adv-x="912" d="M89 401q42 171 188.5 292.5t310.5 121.5t250 -121.5t44 -292.5q-43 -172 -189 -294t-310 -122t-250.5 122t-43.5 294zM110 401q-27 -107 1.5 -198.5t102 -145t174.5 -53.5q154 0 293.5 117t179.5 280q40 162 -42.5 278.5t-235.5 116.5t-293 -116.5t-180 -278.5zM260 164 l118 476l193 -1q64 0 95.5 -34t15.5 -98q-11 -43 -45 -78.5t-97 -48.5q42 -20 56 -83l26 -133h-23l-24 124q-9 46 -36.5 67.5t-79.5 21.5h-130l2 -4l-52 -209h-19zM334 396h170q58 0 100.5 30t55.5 81q15 59 -12.5 86t-81.5 27h-177l2 -4l-54 -217z" />
<glyph unicode="&#xaf;" horiz-adv-x="673" d="M271 720l5 19h355l-5 -19h-355z" />
<glyph unicode="&#xb0;" horiz-adv-x="372" d="M123 659q19 74 66.5 117.5t116.5 43.5q70 0 96.5 -43t8.5 -118q-19 -73 -66.5 -116.5t-117.5 -43.5t-96 43t-8 117zM142 659q-15 -61 6 -101.5t84 -40.5t104 40t56 102q15 63 -6 103t-84 40q-64 0 -104 -40t-56 -103z" />
<glyph unicode="&#xb1;" horiz-adv-x="668" d="M46 105l5 20h490l-5 -20h-490zM134 465l6 20h237l-2 4l62 254h20l-63 -254l-3 -4h237l-5 -20h-237l2 -4l-63 -253h-20l63 253l3 4h-237z" />
<glyph unicode="&#xb2;" horiz-adv-x="360" d="M74 361l12 47q31 126 120 162l71 30q52 21 79 44t36 58q9 40 -10 67t-71 27q-60 0 -118 -52l-9 16q62 55 132 55q62 0 83.5 -33t10.5 -80q-10 -39 -38 -67t-84 -51l-71 -29q-85 -34 -114 -152l-5 -20l-3 -3h235l-5 -19h-251z" />
<glyph unicode="&#xb3;" horiz-adv-x="383" d="M87 411l16 15q36 -53 104 -53q60 0 101 33.5t52 76.5q11 41 -13.5 70.5t-73.5 34.5q-4 0 -47 3l4 17q44 2 46 3q52 8 87 35t44 62q10 43 -13 68.5t-81 25.5q-67 0 -125 -49l-9 15q64 52 139 52q70 0 94 -33.5t13 -79.5q-8 -36 -44.5 -67.5t-81.5 -38.5l-1 -2 q45 -6 68 -39t12 -77q-11 -49 -57 -88t-118 -39q-78 0 -116 55z" />
<glyph unicode="&#xb4;" horiz-adv-x="616" d="M351 703l215 183l15 -20l-223 -172z" />
<glyph unicode="&#xb5;" horiz-adv-x="632" d="M-41 -210l207 840h19l-97 -394q-13 -64 -5.5 -107t34 -69.5t56 -38t61.5 -11.5q37 0 77 12.5t80 38t72.5 71.5t47.5 107l97 391h19l-156 -630h-18l33 135h-2q-37 -63 -108 -103.5t-147 -40.5q-67 0 -113 39t-51 104h-2l-85 -344h-19z" />
<glyph unicode="&#xb6;" horiz-adv-x="441" d="M70 566q26 101 112.5 172.5t183.5 71.5h136l-5 -20h-59l1 -3l-239 -968h-20l239 968l3 3h-31l3 -3l-239 -968h-21l123 501l4 3h-18q-97 0 -147.5 71t-25.5 172z" />
<glyph unicode="&#xb7;" horiz-adv-x="183" d="M90 404q7 30 34 30t20 -30q-8 -30 -35 -30t-19 30z" />
<glyph unicode="&#xb8;" horiz-adv-x="688" d="M224 -165l72 58q34 27 38 42t-16 41l-16 20l22 4l20 -29q28 -38 -21 -78l-89 -72z" />
<glyph unicode="&#xb9;" horiz-adv-x="216" d="M135 709l120 101h17l-112 -454h-20l97 393l13 39h-2l-31 -31l-72 -60z" />
<glyph unicode="&#xba;" horiz-adv-x="426" d="M109 604q25 100 83.5 158t140.5 58q84 0 113.5 -58t4.5 -158t-83.5 -158.5t-140.5 -58.5q-83 0 -113 58t-5 159zM129 604q-21 -86 2 -142.5t100 -56.5t128.5 56.5t72.5 142.5q21 85 -2.5 141.5t-100.5 56.5t-128 -56t-72 -142z" />
<glyph unicode="&#xbb;" horiz-adv-x="419" d="M6 86l142 132l47 36l1 2l-30 36l-76 132l21 17l109 -186l-200 -186zM145 86l141 132l48 36v2l-29 36l-77 132l22 17l108 -186l-200 -186z" />
<glyph unicode="&#xbc;" horiz-adv-x="632" d="M38 -10l479 830h18l-478 -830h-19zM135 709l120 101h17l-112 -454h-20l97 393l13 39h-2l-31 -31l-72 -60zM242 120l4 16l312 319h14l-78 -314l-2 -2h50l-4 -19h-50l1 -2l-30 -119h-18l29 119l3 2h-231zM269 139h209l-2 2l61 245l12 42h-2l-33 -38l-211 -218l-34 -31v-2z " />
<glyph unicode="&#xbd;" horiz-adv-x="647" d="M38 -10l479 830h18l-478 -830h-19zM135 709l120 101h17l-112 -454h-20l97 393l13 39h-2l-31 -31l-72 -60zM272 -1l12 47q31 127 120 163l71 29q52 21 79 44.5t36 58.5q9 40 -10 67t-71 27q-60 0 -118 -52l-9 16q62 55 132 55q62 0 83.5 -33t10.5 -80q-10 -40 -38 -67.5 t-84 -50.5l-71 -29q-85 -34 -114 -153l-5 -20l-3 -2h234l-4 -20h-251z" />
<glyph unicode="&#xbe;" horiz-adv-x="771" d="M87 411l16 15q36 -53 104 -53q60 0 101 33.5t52 76.5q11 41 -13.5 70.5t-73.5 34.5q-4 0 -47 3l4 17q44 2 46 3q52 8 87 35t44 62q10 43 -13 68.5t-81 25.5q-67 0 -125 -49l-9 15q64 52 139 52q70 0 94 -33.5t13 -79.5q-8 -36 -44.5 -67.5t-81.5 -38.5l-1 -2 q45 -6 68 -39t12 -77q-11 -49 -57 -88t-118 -39q-78 0 -116 55zM177 -10l479 830h19l-479 -830h-19zM381 120l4 16l312 319h14l-78 -314l-2 -2h51l-5 -19h-50l1 -2l-30 -119h-17l28 119l3 2h-231zM408 139h209l-2 2l61 245l12 42h-2l-33 -38l-211 -218l-33 -31z" />
<glyph unicode="&#xbf;" horiz-adv-x="544" d="M31 184q14 59 51 97t101 71l34 17q82 41 120 87.5t60 135.5l21 85h20l-23 -95q-23 -92 -61 -139t-127 -91l-29 -15q-61 -30 -97 -65.5t-49 -87.5q-17 -70 27.5 -122.5t123.5 -52.5q125 0 227 94l11 -17q-108 -96 -243 -96q-67 0 -110 31.5t-55.5 74.5t-1.5 88zM430 790 q8 30 34 30q27 0 20 -30q-8 -30 -34 -30q-28 0 -20 30z" />
<glyph unicode="&#xc0;" horiz-adv-x="719" d="M-54 0l536 810h18l135 -810h-24l-38 222l3 3h-461l1 -3l-146 -222h-24zM128 244h445l-4 4l-78 472l-6 67h-1l-38 -67l-313 -473zM454 1040l22 18l121 -175l-11 -9z" />
<glyph unicode="&#xc1;" horiz-adv-x="719" d="M-54 0l536 810h18l135 -810h-24l-38 222l3 3h-461l1 -3l-146 -222h-24zM128 244h445l-4 4l-78 472l-6 67h-1l-38 -67l-313 -473zM433 883l207 175l14 -18l-215 -166z" />
<glyph unicode="&#xc2;" horiz-adv-x="719" d="M-54 0l536 810h18l135 -810h-24l-38 222l3 3h-461l1 -3l-146 -222h-24zM128 244h445l-4 4l-78 472l-6 67h-1l-38 -67l-313 -473zM350 883l198 162l119 -162l-11 -9l-116 139l-183 -139z" />
<glyph unicode="&#xc3;" horiz-adv-x="719" d="M-54 0l536 810h18l135 -810h-24l-38 222l3 3h-461l1 -3l-146 -222h-24zM128 244h445l-4 4l-78 472l-6 67h-1l-38 -67l-313 -473zM309 897q40 82 125 82q34 0 87.5 -42.5t82.5 -42.5q73 0 118 82l9 -13q-50 -88 -134 -88q-35 0 -88 42.5t-81 42.5q-73 0 -111 -75z" />
<glyph unicode="&#xc4;" horiz-adv-x="719" d="M-54 0l536 810h18l135 -810h-24l-38 222l3 3h-461l1 -3l-146 -222h-24zM128 244h445l-4 4l-78 472l-6 67h-1l-38 -67l-313 -473zM414 927q8 27 31 27q24 0 18 -27q-7 -27 -31 -27q-25 0 -18 27zM577 927q6 27 31 27q24 0 18 -27q-7 -27 -31 -27q-25 0 -18 27z" />
<glyph unicode="&#xc5;" horiz-adv-x="719" d="M-54 0l536 810h18l135 -810h-24l-38 222l3 3h-461l1 -3l-146 -222h-24zM128 244h445l-4 4l-78 472l-6 67h-1l-38 -67l-313 -473zM444 966q23 91 107 91q42 0 57.5 -24.5t4.5 -66.5q-10 -42 -37.5 -66.5t-69.5 -24.5t-57 24t-5 67zM461 966q-7 -31 4.5 -52t44.5 -21 t55.5 20.5t30.5 52.5q7 32 -4.5 52.5t-44.5 20.5t-55.5 -20.5t-30.5 -52.5z" />
<glyph unicode="&#xc6;" horiz-adv-x="944" d="M-54 0l529 810h531l-5 -18h-366l1 -3l-91 -372l-4 -3h327l-4 -18h-327l2 -3l-92 -371l-4 -4h367l-4 -18h-385l56 223l3 2h-367v-3l-144 -222h-23zM123 244h360l-2 3l135 542l3 3h-135l1 -4l-357 -541z" />
<glyph unicode="&#xc7;" horiz-adv-x="688" d="M84 400q47 192 169 306t291 114q157 0 224 -94l-19 -16q-59 91 -210 91q-168 0 -280 -113.5t-156 -288.5q-22 -80 -18 -151t28.5 -124t83.5 -84t146 -31q147 0 255 90l10 -14q-116 -95 -270 -95h-7l13 -19q28 -38 -21 -78l-89 -72l-10 14l72 58q34 27 38 42t-16 41 l-12 15q-155 10 -211 118t-11 291z" />
<glyph unicode="&#xc8;" horiz-adv-x="673" d="M20 0l200 810h515l-5 -19h-498l2 -3l-91 -370l-3 -3h450l-5 -19h-450l2 -3l-92 -371l-3 -3h497l-4 -19h-515zM432 1040l22 18l121 -175l-11 -9z" />
<glyph unicode="&#xc9;" horiz-adv-x="673" d="M20 0l200 810h515l-5 -19h-498l2 -3l-91 -370l-3 -3h450l-5 -19h-450l2 -3l-92 -371l-3 -3h497l-4 -19h-515zM445 883l207 175l13 -18l-214 -166z" />
<glyph unicode="&#xca;" horiz-adv-x="673" d="M20 0l200 810h515l-5 -19h-498l2 -3l-91 -370l-3 -3h450l-5 -19h-450l2 -3l-92 -371l-3 -3h497l-4 -19h-515zM339 883l198 162l119 -162l-11 -9l-116 139l-183 -139z" />
<glyph unicode="&#xcb;" horiz-adv-x="673" d="M20 0l200 810h515l-5 -19h-498l2 -3l-91 -370l-3 -3h450l-5 -19h-450l2 -3l-92 -371l-3 -3h497l-4 -19h-515zM411 925q6 27 31 27q23 0 17 -27q-7 -27 -31 -27q-25 0 -17 27zM572 925q6 27 31 27q24 0 18 -27q-7 -27 -31 -27q-25 0 -18 27z" />
<glyph unicode="&#xcc;" horiz-adv-x="208" d="M25 0l200 810h19l-199 -810h-20zM187 1040l23 18l121 -175l-11 -9z" />
<glyph unicode="&#xcd;" horiz-adv-x="208" d="M25 0l200 810h19l-199 -810h-20zM170 883l208 175l13 -18l-214 -166z" />
<glyph unicode="&#xce;" horiz-adv-x="208" d="M25 0l200 810h19l-199 -810h-20zM94 883l199 162l118 -162l-11 -9l-115 139l-184 -139z" />
<glyph unicode="&#xcf;" horiz-adv-x="208" d="M25 0l200 810h19l-199 -810h-20zM159 927q6 27 31 27q23 0 17 -27q-7 -27 -31 -27t-17 27zM320 927q6 27 31 27q24 0 18 -27q-7 -27 -31 -27q-25 0 -18 27z" />
<glyph unicode="&#xd0;" horiz-adv-x="741" d="M20 0l97 393l3 3h-67l5 18h66l-1 3l97 393h265q69 0 118.5 -15t78 -44.5t44 -65.5t16.5 -84t-5 -94t-20 -102q-17 -68 -37.5 -122t-55 -109t-78.5 -91.5t-109.5 -59.5t-146.5 -23h-270zM41 18h244q79 0 142.5 22.5t105.5 58t75 89t51.5 103.5t34.5 114q16 63 22 113.5 t-1.5 103.5t-32.5 88.5t-78.5 58.5t-132.5 23h-239l2 -3l-92 -372l-3 -3h196l-5 -18h-195l2 -3l-92 -371z" />
<glyph unicode="&#xd1;" horiz-adv-x="762" d="M20 0l200 810h17l304 -658l50 -117h2l191 775h20l-200 -810h-17l-304 654l-50 120h-2l-191 -774h-20zM337 897q42 82 126 82q28 0 58 -21.5t58.5 -42.5t52.5 -21q72 0 119 82l8 -13q-48 -88 -133 -88q-35 0 -88.5 42.5t-81.5 42.5q-72 0 -110 -75z" />
<glyph unicode="&#xd2;" horiz-adv-x="786" d="M84 400q48 194 164 307t278 113q163 0 223 -112.5t12 -307.5q-47 -192 -162.5 -301t-277.5 -109q-164 0 -224.5 108.5t-12.5 301.5zM105 400q-22 -79 -19.5 -150t24.5 -124.5t77.5 -85t138.5 -31.5q82 0 152.5 31.5t121 86.5t85.5 123.5t55 149.5t20 151t-22.5 127 t-77 90t-138.5 33q-83 0 -154.5 -33t-122 -90t-85.5 -127t-55 -151zM475 1040l23 18l121 -175l-11 -9z" />
<glyph unicode="&#xd3;" horiz-adv-x="786" d="M84 400q48 194 164 307t278 113q163 0 223 -112.5t12 -307.5q-47 -192 -162.5 -301t-277.5 -109q-164 0 -224.5 108.5t-12.5 301.5zM105 400q-22 -79 -19.5 -150t24.5 -124.5t77.5 -85t138.5 -31.5q82 0 152.5 31.5t121 86.5t85.5 123.5t55 149.5t20 151t-22.5 127 t-77 90t-138.5 33q-83 0 -154.5 -33t-122 -90t-85.5 -127t-55 -151zM465 883l208 175l13 -18l-214 -166z" />
<glyph unicode="&#xd4;" horiz-adv-x="786" d="M84 400q48 194 164 307t278 113q163 0 223 -112.5t12 -307.5q-47 -192 -162.5 -301t-277.5 -109q-164 0 -224.5 108.5t-12.5 301.5zM105 400q-22 -79 -19.5 -150t24.5 -124.5t77.5 -85t138.5 -31.5q82 0 152.5 31.5t121 86.5t85.5 123.5t55 149.5t20 151t-22.5 127 t-77 90t-138.5 33q-83 0 -154.5 -33t-122 -90t-85.5 -127t-55 -151zM384 883l198 162l118 -162l-11 -9l-115 139l-184 -139z" />
<glyph unicode="&#xd5;" horiz-adv-x="786" d="M84 400q48 194 164 307t278 113q163 0 223 -112.5t12 -307.5q-47 -192 -162.5 -301t-277.5 -109q-164 0 -224.5 108.5t-12.5 301.5zM105 400q-22 -79 -19.5 -150t24.5 -124.5t77.5 -85t138.5 -31.5q82 0 152.5 31.5t121 86.5t85.5 123.5t55 149.5t20 151t-22.5 127 t-77 90t-138.5 33q-83 0 -154.5 -33t-122 -90t-85.5 -127t-55 -151zM333 897q42 82 126 82q28 0 58 -21.5t58.5 -42.5t52.5 -21q72 0 119 82l8 -13q-48 -88 -133 -88q-35 0 -88.5 42.5t-81.5 42.5q-72 0 -110 -75z" />
<glyph unicode="&#xd6;" horiz-adv-x="786" d="M84 400q48 194 164 307t278 113q163 0 223 -112.5t12 -307.5q-47 -192 -162.5 -301t-277.5 -109q-164 0 -224.5 108.5t-12.5 301.5zM105 400q-22 -79 -19.5 -150t24.5 -124.5t77.5 -85t138.5 -31.5q82 0 152.5 31.5t121 86.5t85.5 123.5t55 149.5t20 151t-22.5 127 t-77 90t-138.5 33q-83 0 -154.5 -33t-122 -90t-85.5 -127t-55 -151zM447 927q6 27 31 27q23 0 17 -27q-7 -27 -31 -27t-17 27zM608 927q8 27 31 27q24 0 18 -27q-7 -27 -31 -27q-25 0 -18 27z" />
<glyph unicode="&#xd7;" horiz-adv-x="551" d="M59 217l237 191h-5l-139 188l17 14l140 -188l-1 -4l235 191l10 -15l-235 -190l4 1l139 -187l-17 -14l-139 186l1 4l-236 -192z" />
<glyph unicode="&#xd8;" horiz-adv-x="786" d="M70 -45l69 86l5 2q-123 102 -60 357q48 194 164 307t278 113q125 0 191 -69l1 4l74 91l10 -8l-75 -93l-4 -1q96 -109 38 -344q-47 -192 -162.5 -301t-277.5 -109q-106 0 -170 47l-1 -4l-70 -86zM105 400q-60 -241 53 -338l1 4l541 666l3 1q-62 68 -181 68 q-83 0 -154.5 -33t-122 -90t-85.5 -127t-55 -151zM165 56q60 -47 161 -47q82 0 152.5 31.5t121 86.5t85.5 123.5t55 149.5q55 218 -31 326l-1 -4l-539 -665z" />
<glyph unicode="&#xd9;" horiz-adv-x="774" d="M106 368l109 442h20l-112 -452q-41 -165 6 -257t191 -92q283 0 369 349l112 452h20l-109 -442q-94 -378 -396 -378q-303 0 -210 378zM464 1040l22 18l121 -175l-11 -9z" />
<glyph unicode="&#xda;" horiz-adv-x="774" d="M106 368l109 442h20l-112 -452q-41 -165 6 -257t191 -92q283 0 369 349l112 452h20l-109 -442q-94 -378 -396 -378q-303 0 -210 378zM456 883l208 175l13 -18l-214 -166z" />
<glyph unicode="&#xdb;" horiz-adv-x="774" d="M106 368l109 442h20l-112 -452q-41 -165 6 -257t191 -92q283 0 369 349l112 452h20l-109 -442q-94 -378 -396 -378q-303 0 -210 378zM379 883l198 162l118 -162l-11 -9l-115 139l-184 -139z" />
<glyph unicode="&#xdc;" horiz-adv-x="774" d="M106 368l109 442h20l-112 -452q-41 -165 6 -257t191 -92q283 0 369 349l112 452h20l-109 -442q-94 -378 -396 -378q-303 0 -210 378zM437 927q6 27 31 27q23 0 17 -27q-7 -27 -31 -27t-17 27zM599 927q6 27 31 27q23 0 17 -27q-7 -27 -31 -27t-17 27z" />
<glyph unicode="&#xdd;" horiz-adv-x="650" d="M145 810h28l147 -370l26 -76h1l62 76l330 370h27l-414 -464l-85 -346h-20l85 346zM386 884l208 175l13 -18l-214 -166z" />
<glyph unicode="&#xde;" horiz-adv-x="688" d="M20 0l200 810h20l-42 -168l-3 -3h312q109 0 151 -63.5t16 -171.5q-26 -103 -100.5 -168.5t-183.5 -65.5h-312l3 -4l-41 -166h-20zM84 189h309q99 0 168 60t92 155q25 98 -14.5 157t-138.5 59h-310l2 -3l-105 -425z" />
<glyph unicode="&#xdf;" horiz-adv-x="602" d="M20 1l162 654q46 190 229 190q92 0 140.5 -55t25.5 -149q-19 -76 -64 -123.5t-92 -60.5l-1 -2q72 -16 104 -77.5t9 -153.5q-26 -105 -100.5 -170t-163.5 -65q-65 0 -106 20l4 20q45 -21 97 -21q87 0 156.5 58.5t93.5 156.5q22 93 -17.5 156.5t-150.5 63.5h-72l4 18h67 q79 -1 135.5 49t76.5 131q22 87 -22.5 136.5t-126.5 49.5q-84 0 -135.5 -44t-74.5 -138l-159 -644h-19z" />
<glyph unicode="&#xe0;" d="M63 314q36 149 124.5 237t213.5 88q83 0 129.5 -46t53.5 -130h2l41 167h19l-156 -630h-19l40 161h-2q-44 -79 -115 -125t-154 -46q-124 0 -168.5 88.5t-8.5 235.5zM81 314q-17 -59 -14.5 -114.5t19 -98t57.5 -68.5t102 -26q108 0 191 87.5t115 219.5q34 138 -5.5 222.5 t-149.5 84.5q-119 0 -201 -89.5t-114 -217.5zM366 860l22 18l121 -175l-11 -9z" />
<glyph unicode="&#xe1;" d="M63 314q36 149 124.5 237t213.5 88q83 0 129.5 -46t53.5 -130h2l41 167h19l-156 -630h-19l40 161h-2q-44 -79 -115 -125t-154 -46q-124 0 -168.5 88.5t-8.5 235.5zM81 314q-17 -59 -14.5 -114.5t19 -98t57.5 -68.5t102 -26q108 0 191 87.5t115 219.5q34 138 -5.5 222.5 t-149.5 84.5q-119 0 -201 -89.5t-114 -217.5zM357 703l207 175l14 -18l-215 -166z" />
<glyph unicode="&#xe2;" d="M63 314q36 149 124.5 237t213.5 88q83 0 129.5 -46t53.5 -130h2l41 167h19l-156 -630h-19l40 161h-2q-44 -79 -115 -125t-154 -46q-124 0 -168.5 88.5t-8.5 235.5zM81 314q-17 -59 -14.5 -114.5t19 -98t57.5 -68.5t102 -26q108 0 191 87.5t115 219.5q34 138 -5.5 222.5 t-149.5 84.5q-119 0 -201 -89.5t-114 -217.5zM263 703l198 162l119 -162l-11 -8l-116 139l-183 -139z" />
<glyph unicode="&#xe3;" d="M63 314q36 149 124.5 237t213.5 88q83 0 129.5 -46t53.5 -130h2l41 167h19l-156 -630h-19l40 161h-2q-44 -79 -115 -125t-154 -46q-124 0 -168.5 88.5t-8.5 235.5zM81 314q-17 -59 -14.5 -114.5t19 -98t57.5 -68.5t102 -26q108 0 191 87.5t115 219.5q34 138 -5.5 222.5 t-149.5 84.5q-119 0 -201 -89.5t-114 -217.5zM233 744q42 82 126 82q22 0 46 -13.5t41.5 -29t39.5 -29t42 -13.5q72 0 119 82l8 -13q-50 -88 -133 -88q-35 0 -88.5 42.5t-81.5 42.5q-72 0 -110 -75z" />
<glyph unicode="&#xe4;" d="M63 314q36 149 124.5 237t213.5 88q83 0 129.5 -46t53.5 -130h2l41 167h19l-156 -630h-19l40 161h-2q-44 -79 -115 -125t-154 -46q-124 0 -168.5 88.5t-8.5 235.5zM81 314q-17 -59 -14.5 -114.5t19 -98t57.5 -68.5t102 -26q108 0 191 87.5t115 219.5q34 138 -5.5 222.5 t-149.5 84.5q-119 0 -201 -89.5t-114 -217.5zM321 735q6 27 31 27q23 0 17 -27q-7 -27 -31 -27q-23 0 -17 27zM483 735q6 27 31 27q23 0 17 -27q-7 -27 -31 -27q-23 0 -17 27z" />
<glyph unicode="&#xe5;" d="M63 314q36 149 124.5 237t213.5 88q83 0 129.5 -46t53.5 -130h2l41 167h19l-156 -630h-19l40 161h-2q-44 -79 -115 -125t-154 -46q-124 0 -168.5 88.5t-8.5 235.5zM81 314q-17 -59 -14.5 -114.5t19 -98t57.5 -68.5t102 -26q108 0 191 87.5t115 219.5q34 138 -5.5 222.5 t-149.5 84.5q-119 0 -201 -89.5t-114 -217.5zM359 786q23 91 107 91q42 0 57.5 -24.5t4.5 -66.5q-10 -42 -37.5 -66.5t-69.5 -24.5t-57 24t-5 67zM376 786q-7 -31 4.5 -52t44.5 -21t55.5 20.5t30.5 52.5q7 32 -4.5 52.5t-44.5 20.5t-55.5 -20.5t-30.5 -52.5z" />
<glyph unicode="&#xe6;" horiz-adv-x="1103" d="M63 314q36 149 124.5 237t213.5 88q83 0 129.5 -46t53.5 -130h2l41 167h19l-41 -164h2q46 78 117 126t157 48q69 0 114 -27.5t62 -75.5t16.5 -104.5t-17.5 -123.5l-497 -1l2 -3q-17 -82 -12.5 -148t50 -107.5t129.5 -41.5q99 0 187 62l10 -15q-93 -65 -200 -65 q-90 0 -139 44.5t-55 121.5h-2l-39 -156h-19l40 161h-2q-44 -79 -115 -125t-154 -46q-124 0 -168.5 88.5t-8.5 235.5zM81 314q-17 -59 -14.5 -114.5t19 -98t57.5 -68.5t102 -26q108 0 191 87.5t115 219.5q34 138 -5.5 222.5t-149.5 84.5q-119 0 -201 -89.5t-114 -217.5z M564 326l479 1l-2 3q13 56 10 108.5t-18 93.5t-55 65.5t-101 24.5q-114 0 -194.5 -85t-115.5 -208z" />
<glyph unicode="&#xe7;" horiz-adv-x="524" d="M62 309q37 149 129 240t214 91q97 0 155 -55l-16 -15q-49 54 -144 52q-118 -1 -202.5 -92t-117.5 -221q-16 -57 -14 -111.5t17.5 -96.5t57.5 -67.5t105 -25.5q103 0 183 60l9 -14q-87 -66 -195 -64h-5l13 -19q28 -38 -21 -78l-89 -72l-10 14l72 58q34 27 38 42t-16 41 l-12 15q-111 10 -148.5 95t-2.5 223z" />
<glyph unicode="&#xe8;" horiz-adv-x="626" d="M62 309q22 89 64.5 161t115 121t162.5 49q69 0 113.5 -27.5t61.5 -75t16.5 -104.5t-17.5 -124l-501 -1l2 -3q-16 -60 -13.5 -113.5t19.5 -94.5t60 -65t106 -24q99 0 187 62l9 -15q-92 -65 -199 -65q-92 0 -143 44t-57 115t14 160zM81 326l485 1l-2 3q13 56 10 108.5 t-18.5 93.5t-55.5 65.5t-101 24.5q-114 0 -196.5 -86t-117.5 -207zM361 860l22 18l121 -175l-11 -9z" />
<glyph unicode="&#xe9;" horiz-adv-x="626" d="M62 309q22 89 64.5 161t115 121t162.5 49q69 0 113.5 -27.5t61.5 -75t16.5 -104.5t-17.5 -124l-501 -1l2 -3q-16 -60 -13.5 -113.5t19.5 -94.5t60 -65t106 -24q99 0 187 62l9 -15q-92 -65 -199 -65q-92 0 -143 44t-57 115t14 160zM81 326l485 1l-2 3q13 56 10 108.5 t-18.5 93.5t-55.5 65.5t-101 24.5q-114 0 -196.5 -86t-117.5 -207zM354 703l207 175l14 -18l-214 -166z" />
<glyph unicode="&#xea;" horiz-adv-x="626" d="M62 309q22 89 64.5 161t115 121t162.5 49q69 0 113.5 -27.5t61.5 -75t16.5 -104.5t-17.5 -124l-501 -1l2 -3q-16 -60 -13.5 -113.5t19.5 -94.5t60 -65t106 -24q99 0 187 62l9 -15q-92 -65 -199 -65q-92 0 -143 44t-57 115t14 160zM81 326l485 1l-2 3q13 56 10 108.5 t-18.5 93.5t-55.5 65.5t-101 24.5q-114 0 -196.5 -86t-117.5 -207zM261 701l198 162l118 -162l-11 -8l-115 139l-184 -139z" />
<glyph unicode="&#xeb;" horiz-adv-x="626" d="M62 309q22 89 64.5 161t115 121t162.5 49q69 0 113.5 -27.5t61.5 -75t16.5 -104.5t-17.5 -124l-501 -1l2 -3q-16 -60 -13.5 -113.5t19.5 -94.5t60 -65t106 -24q99 0 187 62l9 -15q-92 -65 -199 -65q-92 0 -143 44t-57 115t14 160zM81 326l485 1l-2 3q13 56 10 108.5 t-18.5 93.5t-55.5 65.5t-101 24.5q-114 0 -196.5 -86t-117.5 -207zM323 735q6 27 31 27q23 0 17 -27q-7 -27 -31 -27q-23 0 -17 27zM485 735q6 27 31 27q23 0 17 -27q-7 -27 -31 -27q-25 0 -17 27z" />
<glyph unicode="&#xec;" horiz-adv-x="197" d="M20 0l155 629h19l-155 -629h-19zM139 860l22 18l121 -175l-11 -9z" />
<glyph unicode="&#xed;" horiz-adv-x="197" d="M20 0l155 629h19l-155 -629h-19zM124 703l208 175l13 -18l-214 -166z" />
<glyph unicode="&#xee;" horiz-adv-x="197" d="M20 0l155 629h19l-155 -629h-19zM46 701l198 162l119 -162l-11 -8l-116 139l-183 -139z" />
<glyph unicode="&#xef;" horiz-adv-x="197" d="M20 0l155 629h19l-155 -629h-19zM105 735q6 27 31 27q24 0 18 -27q-8 -27 -31 -27q-24 0 -18 27zM267 735q6 27 31 27q23 0 17 -27q-7 -27 -31 -27q-23 0 -17 27z" />
<glyph unicode="&#xf0;" horiz-adv-x="602" d="M57 289q34 138 116.5 218.5t202.5 80.5q81 0 130 -43h2l-76 211l1 4l-106 -57l-6 17l107 58l-4 1l-23 67h23l21 -55l-2 -5l85 44l6 -17l-85 -45l2 -2l103 -288q25 -71 -4 -189q-34 -137 -118 -218t-203 -81q-120 0 -163.5 80.5t-8.5 218.5zM75 289q-16 -55 -13 -105.5 t19 -89.5t55.5 -62.5t97.5 -23.5q114 0 191.5 81t106.5 200q16 76 10.5 138.5t-49.5 102.5t-121 40q-114 0 -190.5 -80t-106.5 -201z" />
<glyph unicode="&#xf1;" d="M20 0l155 630h19l-33 -134h2q41 67 112.5 105.5t148.5 38.5q229 0 173 -228l-102 -412h-19l96 390q13 51 13 90t-14 72.5t-52 51t-99 17.5q-99 0 -179 -62.5t-108 -177.5l-94 -381h-19zM239 744q42 82 125 82q23 0 47 -13.5t41.5 -29t39.5 -29t42 -13.5q72 0 119 82 l8 -13q-50 -88 -133 -88q-35 0 -88.5 42.5t-81.5 42.5q-72 0 -110 -75z" />
<glyph unicode="&#xf2;" horiz-adv-x="626" d="M63 315q37 150 125 237.5t213 87.5q126 0 171.5 -87t7.5 -238q-37 -149 -126 -237t-213 -88q-126 0 -171 87t-7 238zM83 315q-16 -62 -15.5 -115.5t17.5 -97.5t58 -69t103 -25q121 0 201 87t113 220q16 63 15.5 116.5t-17.5 96.5t-58 68t-103 25q-122 0 -202 -87 t-112 -219zM349 860l22 18l121 -175l-11 -9z" />
<glyph unicode="&#xf3;" horiz-adv-x="626" d="M63 315q37 150 125 237.5t213 87.5q126 0 171.5 -87t7.5 -238q-37 -149 -126 -237t-213 -88q-126 0 -171 87t-7 238zM83 315q-16 -62 -15.5 -115.5t17.5 -97.5t58 -69t103 -25q121 0 201 87t113 220q16 63 15.5 116.5t-17.5 96.5t-58 68t-103 25q-122 0 -202 -87 t-112 -219zM346 703l207 175l14 -18l-214 -166z" />
<glyph unicode="&#xf4;" horiz-adv-x="626" d="M63 315q37 150 125 237.5t213 87.5q126 0 171.5 -87t7.5 -238q-37 -149 -126 -237t-213 -88q-126 0 -171 87t-7 238zM83 315q-16 -62 -15.5 -115.5t17.5 -97.5t58 -69t103 -25q121 0 201 87t113 220q16 63 15.5 116.5t-17.5 96.5t-58 68t-103 25q-122 0 -202 -87 t-112 -219zM257 701l198 162l118 -162l-11 -8l-115 139l-184 -139z" />
<glyph unicode="&#xf5;" horiz-adv-x="626" d="M63 315q37 150 125 237.5t213 87.5q126 0 171.5 -87t7.5 -238q-37 -149 -126 -237t-213 -88q-126 0 -171 87t-7 238zM83 315q-16 -62 -15.5 -115.5t17.5 -97.5t58 -69t103 -25q121 0 201 87t113 220q16 63 15.5 116.5t-17.5 96.5t-58 68t-103 25q-122 0 -202 -87 t-112 -219zM222 744q42 82 126 82q22 0 46 -13.5t41.5 -29t39.5 -29t42 -13.5q72 0 119 82l8 -13q-48 -88 -133 -88q-35 0 -88.5 42.5t-81.5 42.5q-72 0 -110 -75z" />
<glyph unicode="&#xf6;" horiz-adv-x="626" d="M63 315q37 150 125 237.5t213 87.5q126 0 171.5 -87t7.5 -238q-37 -149 -126 -237t-213 -88q-126 0 -171 87t-7 238zM83 315q-16 -62 -15.5 -115.5t17.5 -97.5t58 -69t103 -25q121 0 201 87t113 220q16 63 15.5 116.5t-17.5 96.5t-58 68t-103 25q-122 0 -202 -87 t-112 -219zM319 735q6 27 31 27t17 -27q-7 -27 -31 -27q-23 0 -17 27zM481 735q6 27 31 27q23 0 17 -27q-7 -27 -31 -27q-23 0 -17 27z" />
<glyph unicode="&#xf7;" horiz-adv-x="668" d="M117 395l5 20h490l-5 -20h-490zM278 160q7 30 34 30t20 -30q-8 -30 -35 -30t-19 30zM399 650q7 30 34 30t19 -30q-6 -30 -34 -30q-27 0 -19 30z" />
<glyph unicode="&#xf8;" horiz-adv-x="626" d="M26 -44l70 86q-80 83 -33 273q37 150 125 237.5t213 87.5q94 0 143 -49l69 84l15 -11l-71 -87q66 -85 23 -262q-37 -149 -126 -237t-213 -88q-85 0 -131 39l-69 -84zM83 315q-44 -173 28 -255l418 512q-44 49 -132 49q-122 0 -202 -87t-112 -219zM124 47q47 -39 122 -39 q121 0 201 87t113 220q40 159 -19 243z" />
<glyph unicode="&#xf9;" horiz-adv-x="641" d="M71 229l100 401h18l-97 -395q-12 -48 -12.5 -85t12.5 -70.5t51 -52t99 -18.5q96 0 175.5 62.5t107.5 177.5l94 381h19l-156 -630h-18l33 135h-2q-41 -67 -108.5 -106t-149.5 -39q-225 0 -166 239zM357 860l22 18l121 -175l-11 -9z" />
<glyph unicode="&#xfa;" horiz-adv-x="641" d="M71 229l100 401h18l-97 -395q-12 -48 -12.5 -85t12.5 -70.5t51 -52t99 -18.5q96 0 175.5 62.5t107.5 177.5l94 381h19l-156 -630h-18l33 135h-2q-41 -67 -108.5 -106t-149.5 -39q-225 0 -166 239zM340 703l207 175l14 -18l-214 -166z" />
<glyph unicode="&#xfb;" horiz-adv-x="641" d="M71 229l100 401h18l-97 -395q-12 -48 -12.5 -85t12.5 -70.5t51 -52t99 -18.5q96 0 175.5 62.5t107.5 177.5l94 381h19l-156 -630h-18l33 135h-2q-41 -67 -108.5 -106t-149.5 -39q-225 0 -166 239zM262 701l198 162l118 -162l-11 -8l-115 139l-184 -139z" />
<glyph unicode="&#xfc;" horiz-adv-x="641" d="M71 229l100 401h18l-97 -395q-12 -48 -12.5 -85t12.5 -70.5t51 -52t99 -18.5q96 0 175.5 62.5t107.5 177.5l94 381h19l-156 -630h-18l33 135h-2q-41 -67 -108.5 -106t-149.5 -39q-225 0 -166 239zM319 735q6 27 31 27t17 -27q-7 -27 -31 -27q-23 0 -17 27zM481 735 q6 27 31 27q23 0 17 -27q-7 -27 -31 -27q-23 0 -17 27z" />
<glyph unicode="&#xfd;" horiz-adv-x="547" d="M-77 -202l4 19q36 -13 67 -13q51 0 91.5 29t91.5 112l29 49l-105 636h23l87 -526l10 -86h2l49 86l324 526h23l-437 -709q-46 -75 -90.5 -105.5t-97.5 -30.5q-42 0 -71 13zM293 703l208 175l13 -18l-214 -166z" />
<glyph unicode="&#xfe;" d="M-32 -210l259 1051h19l-92 -373h2q45 79 116 125t154 46q124 0 168.5 -88.5t8.5 -235.5q-37 -149 -125 -237t-213 -88q-83 0 -130 46t-54 129h-2l-92 -375h-19zM114 315q-34 -138 6 -223t150 -85q119 0 200.5 90t113.5 218q17 59 15 114t-18.5 97.5t-57.5 68.5t-102 26 q-108 0 -191 -87t-116 -219z" />
<glyph unicode="&#xff;" horiz-adv-x="547" d="M-77 -202l4 19q36 -13 67 -13q51 0 91.5 29t91.5 112l29 49l-105 636h23l87 -526l10 -86h2l49 86l324 526h23l-437 -709q-46 -75 -90.5 -105.5t-97.5 -30.5q-42 0 -71 13zM282 735q6 27 31 27q24 0 18 -27q-7 -27 -31 -27t-18 27zM444 735q6 27 31 27q24 0 18 -27 q-8 -27 -31 -27q-24 0 -18 27z" />
<glyph unicode="&#x152;" horiz-adv-x="1032" d="M84 400q48 197 148.5 308.5t229.5 111.5q173 0 190 -202h1l48 191h392l-4 -18h-374l2 -3l-92 -371l-3 -3h334l-4 -18h-335l3 -3l-92 -371l-4 -3h374l-4 -18h-393l44 180h-2q-111 -191 -286 -191q-130 0 -175.5 107t2.5 303zM109 400q-19 -77 -22.5 -144.5t11 -124.5 t56 -90t108.5 -33t124.5 33t99 90t71 124t48.5 145q19 77 23 144.5t-8 127.5t-53.5 95t-108.5 35t-125.5 -34.5t-101 -93.5t-73 -127.5t-49.5 -146.5z" />
<glyph unicode="&#x153;" horiz-adv-x="1121" d="M63 315q37 150 125 237.5t213 87.5q185 0 195 -213h2q49 107 131 160t170 53q125 0 168.5 -88.5t5.5 -242.5l-502 -1l2 -3q-31 -148 16.5 -222.5t158.5 -74.5q97 0 185 62l9 -15q-91 -65 -199 -65q-94 0 -148.5 52t-52.5 158h-2q-109 -210 -299 -210q-126 0 -171 87 t-7 238zM82 315q-17 -60 -15.5 -115.5t18 -98t58 -68t103.5 -25.5q121 0 200.5 87t112.5 220q18 83 14 151t-49 111.5t-127 43.5q-122 0 -202.5 -87t-112.5 -219zM577 328h483l-2 3q32 138 -12.5 214t-150.5 76q-109 0 -191.5 -75t-123.5 -215z" />
<glyph unicode="&#x178;" horiz-adv-x="650" d="M145 810h28l147 -370l26 -76h1l62 76l330 370h27l-414 -464l-85 -346h-20l85 346zM377 927q6 27 31 27q24 0 18 -27q-7 -27 -31 -27q-25 0 -18 27zM539 927q6 27 31 27q24 0 18 -27q-7 -27 -31 -27q-25 0 -18 27z" />
<glyph unicode="&#x2c6;" horiz-adv-x="542" d="M211 701l199 162l118 -162l-11 -8l-116 139l-183 -139z" />
<glyph unicode="&#x2dc;" horiz-adv-x="616" d="M219 744q42 82 126 82q22 0 46 -13.5t41.5 -29t39.5 -29t42 -13.5q72 0 119 82l8 -13q-48 -88 -133 -88q-35 0 -88.5 42.5t-81.5 42.5q-72 0 -110 -75z" />
<glyph unicode="&#x2000;" horiz-adv-x="529" />
<glyph unicode="&#x2001;" horiz-adv-x="1059" />
<glyph unicode="&#x2002;" horiz-adv-x="529" />
<glyph unicode="&#x2003;" horiz-adv-x="1059" />
<glyph unicode="&#x2004;" horiz-adv-x="353" />
<glyph unicode="&#x2005;" horiz-adv-x="264" />
<glyph unicode="&#x2006;" horiz-adv-x="176" />
<glyph unicode="&#x2007;" horiz-adv-x="176" />
<glyph unicode="&#x2008;" horiz-adv-x="132" />
<glyph unicode="&#x2009;" horiz-adv-x="211" />
<glyph unicode="&#x200a;" horiz-adv-x="58" />
<glyph unicode="&#x2010;" horiz-adv-x="332" d="M38 316l5 20h273l-5 -20h-273z" />
<glyph unicode="&#x2011;" horiz-adv-x="332" d="M38 316l5 20h273l-5 -20h-273z" />
<glyph unicode="&#x2012;" horiz-adv-x="332" d="M38 316l5 20h273l-5 -20h-273z" />
<glyph unicode="&#x2013;" horiz-adv-x="530" d="M38 316l5 20h471l-5 -20h-471z" />
<glyph unicode="&#x2014;" horiz-adv-x="757" d="M38 316l5 20h698l-5 -20h-698z" />
<glyph unicode="&#x2018;" horiz-adv-x="143" d="M161 729l50 93l19 -9l-42 -78l-6 -4q14 1 18.5 -7.5t1.5 -21.5q-6 -30 -34 -30q-16 0 -19.5 11t1 23t11.5 23z" />
<glyph unicode="&#x2019;" horiz-adv-x="143" d="M143 679l42 77l5 4q-14 -1 -18.5 7.5t-1.5 22.5q8 30 35 30q36 0 7 -58l-50 -92z" />
<glyph unicode="&#x201a;" horiz-adv-x="143" d="M-46 -87l42 78l5 4q-14 -1 -18.5 7.5t-1.5 22.5q8 30 35 30q36 0 7 -58l-50 -93z" />
<glyph unicode="&#x201c;" horiz-adv-x="229" d="M161 729l50 93l19 -9l-42 -78l-6 -4q14 1 18.5 -7.5t1.5 -21.5q-6 -30 -34 -30q-16 0 -19.5 11t1 23t11.5 23zM247 729l50 93l19 -9l-42 -78l-5 -4q13 1 17.5 -7.5t1.5 -21.5q-6 -30 -34 -30q-39 0 -7 57z" />
<glyph unicode="&#x201d;" horiz-adv-x="229" d="M143 679l42 77l5 4q-14 -1 -18.5 7.5t-1.5 22.5q8 30 35 30q36 0 7 -58l-50 -92zM229 679l42 77l5 4q-14 -1 -18.5 7.5t-1.5 22.5q8 30 35 30q36 0 7 -58l-50 -92z" />
<glyph unicode="&#x201e;" horiz-adv-x="229" d="M-46 -87l42 78l5 4q-14 -1 -18.5 7.5t-1.5 22.5q8 30 35 30q36 0 7 -58l-50 -93zM40 -87l42 78l5 4q-14 -1 -18.5 7.5t-1.5 22.5q8 30 35 30q36 0 7 -58l-50 -93z" />
<glyph unicode="&#x2022;" horiz-adv-x="280" d="M31 405q10 40 44.5 68t74.5 28t61 -28t11 -68t-45 -68.5t-75 -28.5q-39 0 -60 28.5t-11 68.5z" />
<glyph unicode="&#x2026;" horiz-adv-x="537" d="M-5 19q7 28 32 28q26 0 19 -28q-6 -29 -33 -29q-26 0 -18 29zM173 19q8 28 33 28q26 0 19 -28q-8 -29 -33 -29t-19 29zM352 19q7 28 33 28t18 -28q-6 -29 -32 -29q-25 0 -19 29z" />
<glyph unicode="&#x202f;" horiz-adv-x="211" />
<glyph unicode="&#x2039;" horiz-adv-x="280" d="M48 255l200 186l13 -17l-141 -132l-48 -36v-2l30 -36l76 -132l-22 -17z" />
<glyph unicode="&#x203a;" horiz-adv-x="280" d="M6 86l142 132l47 36l1 2l-30 36l-76 132l21 17l109 -186l-200 -186z" />
<glyph unicode="&#x205f;" horiz-adv-x="264" />
<glyph unicode="&#x20ac;" horiz-adv-x="668" d="M47 309l5 22h82q14 65 39 149h-84l5 21h86q24 63 54.5 115.5t72.5 100.5t98 75.5t121 27.5q134 0 183 -92l-18 -16q-45 90 -169 90q-59 0 -112 -26.5t-92.5 -71.5t-68 -95t-49.5 -108h317l-6 -21l-318 -1q-19 -62 -23 -79q-3 -13 -8 -37.5t-7 -31.5h320l-6 -22h-317 q-11 -55 -6.5 -109t21 -96.5t57 -69t101.5 -26.5q124 0 214 89l9 -15q-96 -92 -228 -92q-65 0 -109.5 27.5t-62.5 72t-23.5 102t6.5 117.5h-84z" />
<glyph unicode="&#x2122;" horiz-adv-x="781" d="M156 791l4 19h322l-4 -19h-154l1 -3l-94 -383h-19l94 383l4 3h-154zM417 405l100 405h18l61 -303l12 -64h2q49 73 145 210.5t109 156.5h18l-100 -405h-19l89 361h-2q-35 -57 -76.5 -117.5t-95 -136t-79.5 -113.5h-2l-54 270l-16 97h-2l-89 -361h-19z" />
<glyph unicode="&#x25fc;" horiz-adv-x="630" d="M0 0v630h630v-630h-630z" />
<glyph unicode="&#xfb01;" horiz-adv-x="514" d="M-209 -207l4 18q26 -8 52 -8q75 0 118.5 45.5t66.5 137.5l154 622l2 3h-77l5 18h77l-1 4l9 36q20 83 74 129.5t132 46.5q30 0 47 -7l-4 -17q-20 6 -45 6q-147 0 -186 -160l-8 -34l-3 -4h303l-156 -629h-18l150 611h-284l2 -3l-151 -608l-2 -11q-25 -102 -74 -153 t-129 -51q-32 0 -58 8zM522 812q8 34 32 34q25 0 17 -34q-9 -33 -33 -33q-25 0 -16 33z" />
<glyph unicode="&#xfb02;" horiz-adv-x="514" d="M-209 -207l4 18q26 -8 52 -8q75 0 118.5 45.5t66.5 137.5l154 622l2 3h-77l5 18h77l-1 4l9 36q20 83 73 127t132 44h157l-208 -840h-18l203 823q-22 0 -78.5 -0.5t-58.5 -0.5q-146 0 -184 -155l-8 -34l-3 -4h195l-5 -18h-195l2 -3l-153 -619q-25 -102 -74 -153t-129 -51 q-32 0 -58 8z" />
</font>
</defs>
</svg>
