<?xml version="1.0" standalone="no"?>
<!DOCTYPE svg PUBLIC "-//W3C//DTD SVG 1.1//EN" "http://www.w3.org/Graphics/SVG/1.1/DTD/svg11.dtd" >
<svg xmlns="http://www.w3.org/2000/svg">
<metadata></metadata>
<defs>
<font id="metrophobicregular" horiz-adv-x="1324" >
<font-face units-per-em="2048" ascent="1638" descent="-410" />
<missing-glyph horiz-adv-x="500" />
<glyph horiz-adv-x="2048" />
<glyph horiz-adv-x="2048" />
<glyph unicode="&#xd;" horiz-adv-x="2048" />
<glyph unicode="!" horiz-adv-x="496" d="M143 0v221h211v-221h-211zM167 1171v195h162v-195q-5 -134 -19.5 -418t-19.5 -418h-83q-6 134 -19.5 418t-20.5 418z" />
<glyph unicode="&#x22;" horiz-adv-x="793" d="M128 1452h197l-4 -192l-29 -308h-129l-31 308zM468 1452h195l-2 -192l-31 -308h-129l-31 308z" />
<glyph unicode="#" horiz-adv-x="949" d="M130 566l7 132h121l49 298h-159l6 131h176l52 284h138l-52 -284h118l52 284h139l-52 -284h99v-131h-121l-50 -298h154v-132h-175l-50 -279h-139l52 279h-120l-50 -279h-140l51 279h-106zM381 698h145l55 298h-145z" />
<glyph unicode="$" horiz-adv-x="1088" d="M104 1024q0 184 106.5 264t310.5 80q18 0 52 -2l17 171h106l-18 -185q30 -6 60.5 -14.5t53 -16t46.5 -17t36 -15t28 -13t17 -8.5v-142q-26 18 -97 47t-156 47l-46 -475l118 -40q97 -32 151 -69.5t83.5 -103.5t29.5 -169q0 -363 -452 -364l-15 -155h-106l15 163 q-140 23 -287 116v145q28 -25 117 -67t183 -60l48 506l-159 55q-130 53 -186 123.5t-56 198.5zM250 1031q0 -50 9 -83t35 -58.5t58 -42t92 -41.5l74 -26l43 454q-32 2 -47 2q-138 0 -201 -44.5t-63 -160.5zM562 132q157 2 224.5 61t67.5 168q0 57 -11 95t-40 65t-65 44 t-99 37l-31 10z" />
<glyph unicode="%" horiz-adv-x="1524" d="M71 1061q0 149 73.5 240t209.5 91q135 0 207.5 -90t72.5 -239q0 -148 -72.5 -239t-206.5 -91q-137 0 -210.5 89.5t-73.5 238.5zM204 1069q0 -234 150 -234q55 0 89.5 35.5t46 83t11.5 107.5q0 45 -6.5 83t-22 72.5t-46 54t-72.5 19.5t-73 -19.5t-47 -53t-23 -70t-7 -78.5 zM410 -28l576 1418l106 -41l-575 -1419zM888 370q0 149 73.5 238.5t209.5 89.5q132 0 205.5 -92t73.5 -240q0 -145 -73.5 -236t-205.5 -91q-137 0 -210 90t-73 241zM1019 378q0 -237 150 -237q42 0 72.5 20t46.5 54t23 71.5t7 80.5q0 44 -7 82t-23 72t-46 54t-72 20 q-43 0 -73.5 -19t-47 -52t-23.5 -69t-7 -77z" />
<glyph unicode="&#x26;" horiz-adv-x="1449" d="M88 416q0 62 9.5 114t24 90.5t40 72.5t49.5 56.5t61 45.5t65.5 37t72.5 33q-68 76 -95 132.5t-27 133.5q0 341 379 341q107 0 175.5 -14.5t111.5 -53.5q26 -20 54 -75t43 -100l15 -45l-133 -60q-53 141 -85 169q-47 37 -179 39q-107 0 -158 -48.5t-51 -158.5 q0 -121 94 -214l498 -482q8 39 12.5 80.5t8.5 83.5t6 60l133 -31q-19 -213 -42 -292l252 -217l-85 -110q-12 20 -216 185q-13 -50 -45 -89.5t-58 -54.5l-25 -15q-10 -6 -33 -14t-118.5 -22t-221.5 -14q-164 0 -272 23.5t-171 89.5q-89 95 -89 324zM270 438q0 -99 11 -157.5 t43 -92.5q38 -38 109.5 -51t196.5 -13q101 0 173.5 7t94.5 13l22 7q3 1 7.5 4t17.5 14.5t24 25.5t22 38.5t15 51.5l-519 480q-128 -46 -172.5 -112t-44.5 -215z" />
<glyph unicode="'" horiz-adv-x="455" d="M130 1452h195l-2 -192l-31 -308h-129l-31 308z" />
<glyph unicode="(" horiz-adv-x="586" d="M91 638q0 279 97 515q89 215 296 387l39 -116q-268 -310 -268 -786t268 -786l-39 -116q-207 172 -296 387q-97 236 -97 515z" />
<glyph unicode=")" horiz-adv-x="584" d="M62 -143q85 97 141.5 205t82.5 213.5t35 187.5t9 172t-9 172t-35 187.5t-82.5 213.5t-141.5 205l38 117q208 -172 296 -388q97 -236 97 -507t-97 -507q-88 -216 -296 -388z" />
<glyph unicode="*" horiz-adv-x="982" d="M121 1204l65 119l263 -172l-21 296h133l-22 -296l258 172l65 -120l-287 -127l287 -131l-65 -120l-258 172l22 -296h-133l21 296l-263 -172l-64 112l296 139z" />
<glyph unicode="+" horiz-adv-x="942" d="M109 562v122h292v277h147v-277h286v-122h-286v-279h-147v279h-292z" />
<glyph unicode="," horiz-adv-x="474" d="M142 -174q1 1 11.5 13t14 16.5t13.5 17.5t14 20.5t11.5 21t11 24t6.5 24t3 26.5h-79v196h180v-191q0 -43 -16 -83t-41 -69t-45.5 -46.5t-40.5 -30.5z" />
<glyph unicode="-" horiz-adv-x="841" d="M141 474v131h559v-131h-559z" />
<glyph unicode="." horiz-adv-x="494" d="M141 0v221h211v-221h-211z" />
<glyph unicode="/" horiz-adv-x="711" d="M95 -153l396 1767l125 -23l-398 -1768z" />
<glyph unicode="0" horiz-adv-x="1207" d="M132 665q0 388 143 547q111 122 333 122q134 0 226.5 -46.5t144.5 -138t74 -208t22 -275.5q0 -401 -145 -565q-110 -122 -325 -122q-218 0 -326 121q-147 164 -147 565zM294 661q0 -168 17 -281t69 -181q67 -88 223 -88q157 0 225 89q52 68 68.5 182.5t16.5 288.5 q0 160 -15 266t-63 172q-68 94 -228 94q-161 0 -229 -91q-51 -68 -67.5 -178.5t-16.5 -272.5z" />
<glyph unicode="1" horiz-adv-x="670" d="M48 1100q127 70 305 231l126 -24v-1307h-151v1133q-133 -97 -241 -157z" />
<glyph unicode="2" horiz-adv-x="1065" d="M100 0q8 81 25 149t45.5 123.5t58 97.5t75 84.5t83 71.5t95.5 70q15 10 52 36t50.5 36t43.5 32.5t42 35t33 34t29.5 38.5t19.5 40t14.5 47.5t3.5 51.5q0 123 -44 179q-57 73 -191 73q-141 0 -218 -60q-84 -66 -73 -190l-111 37q-10 68 14 133.5t79 113.5q112 99 314 99 q100 0 182 -33t131 -91q80 -94 80 -255q0 -81 -23.5 -145.5t-80.5 -120.5t-95 -84.5t-123 -82.5q-23 -15 -34 -22q-147 -98 -214.5 -171t-97.5 -184h679v-143h-844z" />
<glyph unicode="3" horiz-adv-x="1102" d="M112 275l125 47q0 -106 58 -159q63 -58 210 -58q163 0 226 77q48 58 48 195q0 51 -12.5 90.5t-31.5 66t-52.5 45.5t-65 29t-79.5 15.5t-84.5 6.5t-91.5 1v126h114q60 0 109.5 11.5t89.5 36t62.5 68t22.5 102.5q0 116 -53 173t-164 57q-140 0 -210 -49q-61 -42 -86 -125 l-121 39q22 121 133 193q110 71 282 71q171 0 282 -80q125 -90 125 -272q0 -66 -24.5 -119.5t-64 -87t-81 -54t-84.5 -29.5q52 -9 100.5 -33t89 -61.5t65 -94t24.5 -123.5q0 -213 -141 -316q-119 -86 -329 -86q-76 0 -145 17t-126.5 51t-90.5 93.5t-29 135.5z" />
<glyph unicode="4" horiz-adv-x="1037" d="M60 446l537 864l178 -20v-883h184v-128h-184v-280h-152v280h-549zM188 405h435v709z" />
<glyph unicode="5" horiz-adv-x="1098" d="M121 200l96 87q38 -87 113 -133q78 -47 202 -47q151 0 225 71q75 72 75 234q0 168 -68 233q-68 67 -218 67q-91 0 -164.5 -38t-103.5 -86l-132 37q9 115 28 389.5t20 289.5h690v-143h-566l-31 -410q42 33 119 61.5t162 28.5q209 0 316 -105.5t107 -315.5 q0 -225 -128 -339q-119 -106 -329 -106q-159 0 -267.5 58.5t-145.5 166.5z" />
<glyph unicode="6" horiz-adv-x="1144" d="M129 599q0 96 9 182.5t23 148t30.5 113.5t33.5 84t31 55t23 32l9 10q5 5 14.5 14t41.5 31.5t68 39.5t92 31t115 14q35 0 68 -3.5t64.5 -14t52 -17t52 -23.5t41 -22.5t41.5 -26t34 -21.5l-70 -112q-4 4 -12 11t-35 24t-57 30t-77 24t-96 11q-44 0 -84 -10t-65.5 -24.5 t-44.5 -29t-27 -24.5l-9 -10q-4 -5 -10.5 -14t-22.5 -43.5t-28.5 -75.5t-23 -111.5t-10.5 -150.5q65 74 152 111t181 37q80 0 144 -17.5t88 -35.5l24 -17q6 -4 16 -13t36 -41.5t46 -71t36 -105t16 -140.5q0 -92 -28.5 -175t-56.5 -121l-28 -37q-4 -5 -12 -13.5t-38 -30.5 t-65.5 -39t-95 -30.5t-125.5 -13.5q-55 0 -105.5 9.5t-83 23t-57.5 27.5t-36 24l-12 9q-7 5 -18 16t-40 55t-51 99.5t-40 154t-18 213.5zM301 511q0 -78 9.5 -143t23.5 -101.5t27.5 -62t22.5 -34.5l10 -9q2 -3 7 -7t22.5 -14.5t38 -19t56 -15t74.5 -6.5q49 0 91 9.5t67 23.5 t43 28t25 24l7 9q2 2 5.5 6t12 22t15 41.5t12 67.5t5.5 97q0 54 -8 99.5t-19 72t-22 45t-19 25.5l-8 7q-2 3 -7 7t-22.5 14.5t-37.5 19t-52.5 15t-67.5 6.5q-103 0 -189 -62t-122 -165z" />
<glyph unicode="7" horiz-adv-x="894" d="M73 1170v137h760l5 -134q-186 -323 -293.5 -638.5t-117.5 -527.5h-166q20 256 142 566t282 597h-612z" />
<glyph unicode="8" horiz-adv-x="1137" d="M120 335q0 124 82 218t240 150q-59 31 -102.5 61t-83.5 70t-61.5 91t-21.5 110q0 172 114 249q96 66 288 66q185 0 281 -67q110 -76 110 -242q0 -59 -22 -110t-64 -91.5t-84.5 -69.5t-100.5 -61q321 -113 321 -373q0 -194 -132 -286q-119 -83 -327 -83q-199 0 -314 83 q-123 90 -123 285zM282 343q0 -138 68 -191q71 -56 217 -56q143 0 215 58t72 191q0 57 -22 103.5t-63 81t-89.5 59t-112.5 46.5q-62 -23 -109.5 -48.5t-89 -60.5t-64 -81.5t-22.5 -101.5zM324 1030q0 -90 62.5 -149.5t182.5 -103.5q121 46 183 105.5t62 149.5q0 108 -58 153 q-57 44 -186 44q-130 0 -188 -46t-58 -153z" />
<glyph unicode="9" horiz-adv-x="1146" d="M105 894q0 63 11 120t27.5 94t32.5 64.5t27 39.5l11 13q4 5 12.5 14t39.5 31t67 39t95.5 31t125.5 14q57 0 108.5 -9.5t85 -23t58.5 -27.5t36 -24l12 -9q7 -4 17.5 -13.5t38.5 -50.5t49 -95t38.5 -155t17.5 -224q0 -141 -16 -258t-38.5 -183t-45.5 -112t-39 -62l-16 -16 q-5 -5 -14.5 -13.5t-42.5 -30t-69.5 -37.5t-93 -29.5t-115.5 -13.5q-35 0 -68 3.5t-64.5 14t-52 17t-52 23.5t-41 22.5t-41.5 26t-34 21.5l70 112q4 -4 12 -11t35 -24t57 -30t77 -24t96 -11q44 0 84.5 9.5t66.5 23t45.5 27t28.5 22.5l9 10q4 4 10 12t21.5 40.5t27.5 73.5 t22 114.5t10 160.5q-65 -74 -152 -111t-181 -37q-74 0 -136.5 17.5t-87.5 34.5l-25 17q-6 4 -17 13t-38 41.5t-47.5 71.5t-37.5 105.5t-17 140.5zM269 895q0 -52 7.5 -96.5t18.5 -71t22.5 -45.5t18.5 -26l8 -8q3 -3 7.5 -7t22 -15t37.5 -19.5t53 -15.5t68 -7q103 0 189 62 t122 165q0 82 -9 148t-21.5 102t-25.5 60.5t-22 32.5l-9 7q-2 3 -7 7t-23 14.5t-39.5 19t-57.5 15t-77 6.5q-49 0 -91 -11t-66.5 -26.5t-42.5 -30.5t-25 -26l-7 -11q-2 -2 -5.5 -6.5t-12.5 -22t-15.5 -40.5t-12 -64t-5.5 -90z" />
<glyph unicode=":" horiz-adv-x="494" d="M142 242v221h211v-221h-211zM142 711v221h211v-221h-211z" />
<glyph unicode=";" horiz-adv-x="494" d="M141 711v221h211v-221h-211zM156 105q1 1 11.5 13t14 16.5t13.5 17.5t14 20.5t11.5 21t11 24t6.5 24t3 26.5h-79v196h180v-191q0 -43 -16 -83t-41 -69t-45.5 -46.5t-40.5 -30.5z" />
<glyph unicode="&#x3c;" horiz-adv-x="1072" d="M64 561v66l823 499l78 -94l-727 -440l729 -438l-80 -95z" />
<glyph unicode="=" horiz-adv-x="1039" d="M153 446v111h733v-111h-733zM153 698v109h733v-109h-733z" />
<glyph unicode="&#x3e;" horiz-adv-x="1073" d="M106 154l729 438l-729 440l80 94l823 -499v-66l-823 -502z" />
<glyph unicode="?" horiz-adv-x="892" d="M68 1179q20 37 55 71t59 50l25 15q9 6 26.5 14.5t81 22.5t137.5 14q55 0 105 -10.5t81.5 -26t55 -30.5t34.5 -25l10 -11q3 -3 8 -9.5t18.5 -29t23.5 -47.5t18 -64.5t8 -80.5q0 -44 -15 -86.5t-35.5 -74t-54.5 -66.5t-59.5 -56t-64 -51.5t-54.5 -44.5q-49 -42 -60.5 -86 t-11.5 -153l-1 -65l-133 1q-9 126 -9 184q0 54 19 99.5t48.5 77.5t65.5 60.5t72 55.5t65.5 56t48 68.5t18.5 87.5q0 41 -11.5 73.5t-22.5 43.5l-11 12q-5 5 -15 12.5t-52 20t-98 12.5q-55 0 -96 -7t-54 -14l-13 -7q-8 -4 -22 -12t-48 -36t-58 -60zM279 0v221h211v-221h-211z " />
<glyph unicode="@" horiz-adv-x="1753" d="M86 536q0 184 73 344.5t193 268t274.5 169t317.5 61.5q110 0 215 -26t198.5 -80.5t164 -131t111.5 -185.5t41 -236q0 -148 -50 -276.5t-138.5 -205.5t-193.5 -77q-92 0 -154 66.5t-62 194.5q-45 -131 -116.5 -200t-181.5 -69q-148 0 -229.5 107t-81.5 282q0 132 55.5 243 t155.5 177t223 66q140 0 243 -96q28 64 65 64l77 -7l-80 -497q-7 -27 -3.5 -62.5t12.5 -66.5t34.5 -52.5t63.5 -21.5q66 0 118 66.5t76.5 160t24.5 189.5q0 127 -50.5 230.5t-135 168.5t-190.5 100t-222 35q-134 0 -261 -51t-225 -139.5t-157.5 -219t-59.5 -279.5 q0 -99 22.5 -186t72 -161.5t121.5 -128t176 -84t232 -30.5q142 0 331 67l55 -123q-205 -83 -407 -83q-107 0 -211 25t-202 81t-172 137.5t-118.5 203t-44.5 268.5zM637 504q0 -91 48 -157t130 -66q89 0 149.5 87.5t91.5 222.5l56 267q-122 39 -195 39q-74 0 -129.5 -32.5 t-87.5 -88.5t-47.5 -124.5t-15.5 -147.5z" />
<glyph unicode="A" d="M18 0l544 1441h201l541 -1441h-176l-136 367h-662l-135 -367h-177zM378 502h565l-280 827z" />
<glyph unicode="B" horiz-adv-x="1353" d="M192 0v1441h416q127 0 207 -4q180 -7 264 -96t84 -269q0 -138 -64 -211q-12 -14 -28 -26t-27.5 -19.5t-32 -16t-28.5 -11l-32 -10t-27 -8.5q87 -15 139 -39q31 -14 49 -24t46.5 -36t44.5 -57t28.5 -84.5t12.5 -122.5q0 -204 -112 -312q-99 -95 -351 -95h-589zM366 141 h386q96 0 152.5 10.5t95 40.5t52.5 81.5t14 136.5q0 164 -69 222q-76 64 -270 64h-361v-555zM366 833h341q169 0 238 52t69 194q0 122 -42 165q-31 31 -95 43.5t-182 12.5h-329v-467z" />
<glyph unicode="C" horiz-adv-x="1405" d="M118 699q0 123 16 226.5t43 173.5t51.5 114t51.5 76q60 70 183.5 126.5t300.5 56.5q90 0 169 -15.5t131 -39.5t81.5 -42.5t46.5 -34.5q32 -31 66 -94t52 -151l-146 -75q-19 87 -50.5 147.5t-64.5 81.5q-112 73 -282 73q-128 0 -211 -34t-128 -77q-53 -50 -91.5 -172 t-38.5 -325q0 -197 34 -314.5t76 -165.5q46 -53 139 -88.5t216 -35.5q119 0 201 31t116 65q62 62 95 210l140 -79q-41 -180 -136 -256q-19 -15 -46.5 -30.5t-79 -38.5t-128 -37t-162.5 -14q-93 0 -175 16.5t-139 43t-92.5 50t-60.5 47.5q-76 73 -127 227t-51 354z" />
<glyph unicode="D" horiz-adv-x="1442" d="M192 0v1441h468q299 0 472 -149q34 -30 63.5 -71t61 -107t49.5 -166t18 -221q0 -105 -13 -195.5t-33 -151.5t-47.5 -111.5t-51.5 -78.5t-51 -50t-61.5 -42.5t-91 -44.5t-137 -38.5t-172.5 -14.5h-474zM366 145h297q147 0 238 36.5t131 84.5q113 135 113 457 q0 317 -106 452q-39 48 -135.5 85t-258.5 37h-279v-1152z" />
<glyph unicode="E" horiz-adv-x="1164" d="M192 0v1441h860l-22 -142h-664v-475h610v-138h-610v-543h666l23 -143h-863z" />
<glyph unicode="F" horiz-adv-x="1076" d="M192 0v1441h829l-31 -146h-624v-476h548v-146h-548v-673h-174z" />
<glyph unicode="G" horiz-adv-x="1482" d="M114 692q0 131 20 241.5t52.5 184t63.5 119.5t65 78q29 26 65.5 50t94 50t138 42t171.5 16q82 0 156.5 -14t126 -36t81.5 -39t50 -32q81 -68 124 -216l-130 -87q-20 72 -47 118t-45 61q-24 20 -55.5 38.5t-105 39t-158.5 20.5q-131 0 -217 -34.5t-132 -77.5 q-56 -52 -97.5 -178t-41.5 -339q0 -198 41.5 -317.5t95.5 -166.5q122 -105 343 -105q151 0 242 41t155 108v307h-437v143h611v-707h-124l-29 118q-78 -70 -176.5 -112.5t-246.5 -44.5q-93 0 -175 17t-140 44.5t-96.5 54.5t-64.5 55q-23 24 -43.5 51.5t-46 78t-44 108 t-31.5 142.5t-13 180z" />
<glyph unicode="H" horiz-adv-x="1523" d="M192 0v1441h174v-624h791v624h174v-1441h-174v680h-791v-680h-174z" />
<glyph unicode="I" horiz-adv-x="696" d="M96 1441h509l-8 -101h-153v-1239h155l-6 -101h-490l-6 101h173v1239h-168z" />
<glyph unicode="J" horiz-adv-x="815" d="M43 139q0 28 3 47l3 33l142 30v-10q0 -2 0.5 -22.5t0.5 -43.5q0 -81 139 -81q49 0 75 21.5t40.5 84.5t14.5 182v1061h174v-1109q0 -248 -100 -328q-73 -62 -218 -62q-124 0 -199 62.5t-75 134.5z" />
<glyph unicode="K" horiz-adv-x="1273" d="M192 0v1441h174v-716l185 146l462 570h212l-515 -621l541 -820h-196l-484 757l-205 -163v-594h-174z" />
<glyph unicode="L" horiz-adv-x="1041" d="M192 0v1441h174v-1298h635v-143h-809z" />
<glyph unicode="M" horiz-adv-x="1741" d="M192 0v1441h259l421 -1188l420 1188h257v-1441h-156v1284q-83 -239 -241.5 -677.5t-195.5 -543.5h-169q-35 98 -195 540t-244 681v-1284h-156z" />
<glyph unicode="N" horiz-adv-x="1561" d="M192 0v1441h217q86 -131 253 -380t299 -451t246 -387v1218h162v-1441h-199q-91 139 -258.5 392t-304 461.5t-254.5 396.5v-1250h-161z" />
<glyph unicode="O" horiz-adv-x="1541" d="M121 727q0 394 154 568q27 30 65 57t97.5 56t146.5 46.5t188 17.5q100 0 186.5 -17.5t146.5 -47t98 -56.5t65 -57q152 -172 152 -566q0 -458 -184 -614q-179 -152 -467 -152q-102 0 -189 17.5t-146.5 46.5t-97 56.5t-64.5 57.5q-151 171 -151 587zM300 721 q0 -365 104 -487q39 -48 134 -86t231 -38q137 0 233 38.5t135 87.5q104 135 104 493q0 344 -103 471q-39 48 -134.5 86t-231.5 38q-138 0 -234 -38.5t-135 -86.5q-103 -126 -103 -478z" />
<glyph unicode="P" horiz-adv-x="1246" d="M192 0v1441h370q205 0 317.5 -25t172.5 -82q122 -111 122 -322t-124 -318q-121 -106 -421 -106h-263v-588h-174zM366 728h183q165 0 244 14.5t120 47.5q37 30 57.5 76.5t20.5 142.5q0 100 -22.5 151t-63.5 83q-36 25 -92 39.5t-171 14.5h-276v-569z" />
<glyph unicode="Q" horiz-adv-x="1545" d="M121 724q0 424 169 585q29 28 67 53t96.5 51.5t140.5 42.5t175 16q101 0 188 -17.5t146.5 -47t98 -57t65.5 -56.5q155 -170 155 -563q0 -397 -140 -571q-69 -87 -198 -142q96 -134 177 -210l-123 -70q-93 93 -194 239q-76 -16 -171 -16q-107 0 -198.5 19t-153 50.5 t-102 64t-65.5 68.5q-133 175 -133 561zM301 721q0 -190 28 -310.5t65 -174.5q77 -123 432 -123q21 0 32 1q-85 124 -168 215l129 57q63 -73 181 -240q84 30 128 77q115 123 115 506q0 339 -104 470q-41 48 -135.5 86t-231.5 38q-138 0 -233.5 -38.5t-134.5 -86.5 q-103 -126 -103 -477z" />
<glyph unicode="R" horiz-adv-x="1335" d="M192 0v1441h445q168 0 275.5 -15.5t174.5 -68.5q125 -93 125 -309q0 -231 -113 -320q-90 -67 -274 -79q24 -17 51 -44q55 -51 100 -124l278 -461l-152 -61q-21 35 -75 125.5t-76 127.5t-66 108.5t-67.5 107t-54.5 82.5t-53.5 75.5t-40.5 46.5h-303v-632h-174zM366 775 h277q88 0 127 1q150 4 214 67q29 32 39.5 80.5t10.5 123.5q0 50 -7.5 87.5t-19.5 64.5t-36 45t-49.5 29t-67 16.5t-81.5 7.5t-100 2h-307v-524z" />
<glyph unicode="S" horiz-adv-x="1211" d="M106 158l66 143q31 -77 156 -133t277 -56q330 0 330 278q0 124 -61.5 182t-224.5 97q-199 47 -262 70q-77 29 -134 69q-132 102 -132 284q0 101 36 176t103 119.5t154.5 65.5t197.5 21q95 0 176 -18t132.5 -46t79.5 -49t45 -41l-58 -152q-14 20 -41.5 43t-73.5 49.5 t-117 44t-153 17.5q-150 0 -228.5 -51.5t-78.5 -174.5q0 -46 15.5 -81.5t40 -59t69 -43.5t87.5 -32.5t110 -27.5q81 -20 121 -31t103.5 -32.5t95 -41.5t72.5 -54t59.5 -73.5t32.5 -96t14 -125.5q0 -221 -138 -329t-389 -108q-180 0 -308 55t-174 142z" />
<glyph unicode="T" horiz-adv-x="1145" d="M38 1297v144h1068v-144h-448v-1298h-173v1298h-447z" />
<glyph unicode="U" horiz-adv-x="1511" d="M176 679v762h174v-758q0 -194 22.5 -309.5t52.5 -157.5q32 -44 115 -80.5t219 -36.5q134 0 218 35.5t113 81.5q71 110 71 405v820h174v-753q0 -256 -43 -401.5t-104 -199.5q-33 -29 -79.5 -56t-144 -53t-209.5 -26q-161 0 -273.5 43t-166.5 92q-139 124 -139 592z" />
<glyph unicode="V" horiz-adv-x="1226" d="M21 1441h174l154 -446q242 -710 265 -806q8 34 33 115t60.5 188t65.5 195.5t64 189.5t40 118l149 446h174l-202 -592q-135 -395 -302 -849h-159q-194 514 -344 945z" />
<glyph unicode="W" horiz-adv-x="1789" d="M38 1441h165l252 -963l62 -284q30 163 69.5 337t92.5 392t78 328l52 190h170q38 -139 77.5 -302t85 -358.5t72.5 -306.5l58 -281l61 283l255 965h164l-392 -1441h-173l-237 987l-56 271q-37 -192 -86.5 -402.5t-111.5 -461.5t-95 -394h-172z" />
<glyph unicode="X" horiz-adv-x="1191" d="M46 0q36 60 110 182.5t118 196t107.5 177t117.5 189.5q-53 80 -115 176.5t-105 165t-114 183.5t-106 171h198l337 -570l333 570h194q-34 -56 -103.5 -170.5t-111.5 -183t-102.5 -165t-112.5 -175.5q56 -86 120.5 -189.5t109 -177t120 -197.5t111.5 -183h-199l-359 614 l-351 -614h-197z" />
<glyph unicode="Y" horiz-adv-x="1142" d="M-4 1441h186q40 -75 119 -217t139 -247l59 -105l73 -132l72 132q228 401 320 569h188q-64 -116 -187.5 -326t-215.5 -361l-92 -152v-602h-174v599q-348 580 -487 842z" />
<glyph unicode="Z" horiz-adv-x="1183" d="M48 102q172 230 436 603.5t413 591.5h-745v144h897l21 -166q-30 -39 -96.5 -132.5t-166.5 -236.5t-178 -255t-196.5 -283t-155.5 -224h818v-144h-1007z" />
<glyph unicode="[" horiz-adv-x="621" d="M164 -218v1737h388v-107h-245l18 -217v-1057l-18 -251h245v-105h-388z" />
<glyph unicode="\" horiz-adv-x="676" d="M100 1479l106 30l371 -1601l-109 -29z" />
<glyph unicode="]" horiz-adv-x="619" d="M68 -113h244l-17 262v1036l17 228h-244v107h387v-1738h-387v105z" />
<glyph unicode="^" horiz-adv-x="1147" d="M102 596l392 856h159l391 -856l-194 -14q-239 553 -277 643q-40 -100 -83.5 -202t-109 -250t-87.5 -198z" />
<glyph unicode="_" horiz-adv-x="1085" d="M123 -22h839l-1 -104h-837z" />
<glyph unicode="`" horiz-adv-x="846" d="M122 1516l175 74l240 -378l-93 -32z" />
<glyph unicode="a" horiz-adv-x="1091" d="M99 282q0 137 57 210q35 42 125.5 78t252.5 43q39 2 96 2t88 2.5t60 9.5q0 96 -8 151t-17 70.5t-25 23.5l-8 4q-8 5 -13.5 7t-17 6.5t-25 7.5t-31.5 6t-41.5 4.5t-50.5 1.5q-111 0 -173 -16q-27 -8 -39 -16t-26 -26q-31 -42 -41 -101l-128 48q17 87 49.5 126t95.5 68 q95 43 260 43q163 0 245.5 -35.5t104.5 -77.5q42 -84 42 -331v-380q0 -77 9.5 -94.5t51.5 -17.5v-114q-34 -10 -70 -10q-123 15 -123 143q-16 -21 -41.5 -42t-67.5 -45t-105 -39t-135 -15q-119 0 -191.5 29.5t-101.5 66.5q-58 75 -58 209zM256 285q0 -93 23 -126 q10 -17 25.5 -28.5t62 -21.5t120.5 -10q134 0 212.5 57t78.5 139v220q-17 -6 -39.5 -9t-42 -4t-66 -3t-85.5 -4q-209 -15 -260 -77q-29 -34 -29 -133z" />
<glyph unicode="b" horiz-adv-x="1162" d="M158 0v1441h154v-597q17 29 32.5 50.5t44.5 49t62 45t84 30t111 12.5q202 0 303 -101q98 -100 98 -424q0 -118 -13.5 -204t-25.5 -116.5t-31 -62.5q-33 -58 -114.5 -102t-217.5 -44q-246 0 -349 180l-19 -157h-119zM311 512q0 -143 16.5 -226t35.5 -107q61 -79 245 -79 q175 0 226 76q57 82 57 322q0 248 -55 336q-48 74 -227 74q-180 -1 -236 -75q-62 -81 -62 -321z" />
<glyph unicode="c" horiz-adv-x="1068" d="M109 509q0 284 106 402q43 48 132.5 86t228.5 38q216 0 313 -97q64 -64 79 -199l-126 -35q-18 106 -47 142q-57 64 -223 64q-189 0 -248 -79q-59 -77 -59 -324q0 -109 11 -182t22.5 -100.5t29.5 -49.5q61 -78 249 -78q166 0 227 65q31 33 49 142l121 -35 q-13 -132 -79 -196q-99 -96 -320 -96q-139 0 -229 37.5t-132 85.5q-105 117 -105 409z" />
<glyph unicode="d" horiz-adv-x="1163" d="M114 505q0 319 101 424q101 104 305 104q262 0 331 -176v584h154v-1441h-122l-18 166q-17 -28 -27 -43.5t-40.5 -47.5t-63.5 -50t-90 -33t-126 -15q-137 0 -219.5 44.5t-115.5 103.5q-19 33 -30.5 62t-25 114.5t-13.5 203.5zM270 495q0 -237 56 -315q54 -78 227 -78 q174 0 234 78q64 81 64 325q0 221 -38 301q-31 55 -94 79t-163 24q-179 -1 -231 -82q-55 -84 -55 -332z" />
<glyph unicode="e" horiz-adv-x="1096" d="M110 505q0 93 11 167t31 122t35.5 73.5t36.5 49.5q41 47 122.5 82t213.5 35q256 0 352 -136q76 -105 77 -307q0 -6 -1 -53.5t-1 -57.5h-721q0 -83 12.5 -149.5t31 -102.5t36.5 -60t30 -32l13 -7q5 -4 16 -9t57 -14t106 -9q142 0 213 46q27 18 44 56t30 108l124 -34 q-9 -59 -25.5 -101.5t-24.5 -53.5t-23 -28q-40 -46 -123.5 -79.5t-218.5 -33.5q-244 0 -342 112q-112 128 -112 416zM268 594h487l79 -6q-12 227 -81 275q-70 48 -197 48q-159 0 -219 -65q-62 -67 -69 -252z" />
<glyph unicode="f" horiz-adv-x="697" d="M66 899v112h192v124q0 200 55 255q73 68 206 68q43 0 77 -8t46 -16l12 -8q5 -3 13.5 -10t27 -31.5t27.5 -53.5l-82 -70q-11 19 -23.5 34t-20.5 20l-7 5q-23 12 -68 12q-37 0 -60 -8t-27 -16l-5 -7q-2 0 -5 -5t-8 -49.5t-5 -124.5v-111h219v-112h-219v-899h-153v899h-192z " />
<glyph unicode="g" horiz-adv-x="1161" d="M115 507q0 291 85 404q36 48 114.5 85.5t207.5 37.5q67 0 124 -15t91 -33.5t64.5 -48.5t41.5 -46t25 -40l19 160h118v-949q0 -258 -107 -362q-105 -102 -336 -102q-85 0 -157 15t-101.5 28t-49.5 27q-29 19 -56.5 63t-35.5 119l87 47q23 -51 45.5 -84t33.5 -41l11 -7 q2 -2 5.5 -5t20.5 -10.5t39 -13t64 -10.5t93 -5q95 0 155 22t82 50q55 72 53 263l-1 94q-49 -77 -125.5 -119.5t-208.5 -42.5q-129 0 -205.5 37.5t-111.5 85.5q-84 112 -84 396zM272 518q0 -248 55 -328q49 -75 233 -75q176 0 232 72q60 77 60 309q0 152 -18.5 236 t-43.5 110q-19 19 -39.5 32t-71.5 25t-122 12q-179 -1 -230 -74q-55 -77 -55 -319z" />
<glyph unicode="h" horiz-adv-x="1163" d="M157 0v1441h153v-556q109 149 342 149q119 0 189 -28.5t101 -63.5q33 -37 52.5 -116t19.5 -258v-568h-154v616q0 73 -9 124.5t-15 63.5t-17 31q-42 73 -215 73q-196 0 -249 -84q-45 -72 -45 -235v-589h-153z" />
<glyph unicode="i" horiz-adv-x="470" d="M142 1271q0 51 20 75t72 24q57 0 75.5 -23t18.5 -76q0 -49 -19 -67.5t-75 -18.5q-51 0 -71.5 19t-20.5 67zM158 0v1011h154v-1011h-154z" />
<glyph unicode="j" horiz-adv-x="469" d="M-254 -130l109 24q8 -31 19 -53t18 -29l7 -7q33 -24 111 -24q48 0 79 10.5t39 20.5l7 10q23 26 23 190v999h153v-999q0 -85 -14 -150t-28 -87l-14 -22q-3 -3 -8 -9t-25.5 -20.5t-45.5 -26t-68.5 -20.5t-93.5 -9q-45 0 -82 5t-58.5 12t-37 14.5t-20.5 12.5l-6 5q-2 2 -6 5 t-14 16t-18 29t-16 43.5t-10 59.5zM140 1271q0 51 20 75t72 24q57 0 75.5 -23t18.5 -76q0 -49 -19 -67.5t-75 -18.5q-51 0 -71.5 19t-20.5 67z" />
<glyph unicode="k" horiz-adv-x="995" d="M158 0v1441h153v-924q71 73 147.5 158.5t169 191.5t143.5 163l133 -57l-349 -382l395 -565l-135 -47l-384 544l-120 -118v-405h-153z" />
<glyph unicode="l" horiz-adv-x="484" d="M165 0v1441h153v-1441h-153z" />
<glyph unicode="m" horiz-adv-x="1730" d="M158 0v1011h127l11 -147q24 30 34 41.5t43.5 42t62.5 45t78 28t104 13.5q109 0 172.5 -31.5t92.5 -70.5q25 -37 38 -75q2 2 14.5 18.5t17 22.5t19 22.5t24 24t28 22t34 22t38 18t45.5 15.5t52.5 8.5t60.5 3.5q64 0 115.5 -13t80 -31t48 -36t26.5 -31l6 -13q2 -3 5.5 -9 t12.5 -31.5t15.5 -58.5t12 -93t5.5 -132v-586h-153v619q0 200 -64 247q-17 13 -25 18.5t-44.5 15t-84.5 9.5q-155 0 -209 -66q-55 -70 -55 -258v-585h-154v603q0 217 -63 264q-16 12 -24.5 17.5t-45.5 15.5t-85 10q-59 0 -103.5 -11.5t-55 -18.5t-30.5 -22 q-36 -28 -55 -94.5t-19 -223.5v-540h-153z" />
<glyph unicode="n" horiz-adv-x="1160" d="M158 0v1011h127l12 -148q120 171 359 171q66 0 121 -13t86 -31.5t52.5 -37t28.5 -31.5l8 -13q2 -3 6 -9.5t14.5 -32.5t18 -59t14 -92t6.5 -128v-587h-154v617q0 73 -9.5 124t-15.5 63t-17 30q-45 74 -208 74q-197 0 -251 -85q-44 -67 -44 -278v-545h-154z" />
<glyph unicode="o" horiz-adv-x="1153" d="M109 506q0 289 105 406q43 47 132.5 84.5t227.5 37.5q139 0 229.5 -37.5t133.5 -83.5q106 -116 106 -404q0 -294 -106 -412q-41 -46 -132 -83t-231 -37q-139 0 -228.5 37t-130.5 84q-106 121 -106 408zM266 502q0 -251 60 -324q62 -76 254 -76q187 0 247 78q59 77 59 324 q0 255 -63 332q-62 73 -249 73q-190 0 -249 -77t-59 -330z" />
<glyph unicode="p" horiz-adv-x="1162" d="M158 -379v1390h121l16 -170q95 193 353 193q128 0 205 -37t112 -85q22 -31 37.5 -65.5t30 -123t14.5 -211.5q0 -298 -86 -413q-36 -48 -115 -85t-208 -37q-58 0 -106 11t-79.5 26t-60.5 41t-44.5 45.5t-35.5 49.5v-529h-154zM311 510q0 -281 131 -371l6 -4l7.5 -6 t10.5 -6t15.5 -6.5t20 -5.5t26.5 -4.5t34 -3t43 -1.5q182 0 229 76q56 89 56 339q0 237 -55 317q-52 73 -226 73q-179 0 -236 -77q-17 -23 -28.5 -49t-22.5 -97t-11 -174z" />
<glyph unicode="q" horiz-adv-x="1162" d="M115 506q0 118 13.5 203t25.5 114.5t31 63.5q33 58 115.5 102.5t220.5 44.5q69 0 127 -16t92 -35.5t64 -50.5t40 -46t23 -38l18 163h119v-1390h-155v539q-45 -101 -128 -142t-202 -41q-135 0 -217 43.5t-116 101.5q-71 118 -71 384zM270 512q0 -250 54 -332 q51 -78 231 -78q180 2 236 77q61 81 61 324q0 221 -37 299q-53 108 -260 108q-176 0 -229 -78q-56 -79 -56 -320z" />
<glyph unicode="r" horiz-adv-x="698" d="M158 0v1011h139l6 -157q65 87 138.5 133.5t182.5 46.5h19v-153q-12 1 -22 1q-47 0 -91.5 -8.5t-90 -27.5t-81 -57t-52.5 -91v-698h-148z" />
<glyph unicode="s" horiz-adv-x="962" d="M98 228l125 52q21 -110 78.5 -146.5t181.5 -36.5q74 0 126.5 18t71.5 39q13 11 23 39.5t10 65.5q0 79 -40 110t-154 59q-187 51 -251 82q-112 53 -141 147q-13 41 -13 92q0 114 70 184q37 37 113 69t185 32q82 0 145 -16.5t99 -40.5t60 -58t32.5 -61.5t12.5 -58.5 l-117 -52q-12 55 -33.5 89.5t-55.5 50t-65.5 20t-81.5 4.5q-70 0 -117 -16t-68 -35q-33 -30 -33 -96q4 -74 42 -103.5t162 -59.5q19 -6 59 -16.5t67 -18t65.5 -21.5t65 -28.5t55.5 -38t47 -51t29.5 -65.5t11.5 -83q0 -70 -23 -123t-55 -81q-115 -98 -312 -98 q-81 0 -142.5 13t-101 34t-67 54.5t-41.5 68t-25 81.5z" />
<glyph unicode="t" horiz-adv-x="760" d="M60 896v115h178v322l142 48v-370h243v-115h-243v-609q0 -58 6 -97.5t12 -49.5l5 -11q2 -3 6 -7.5t26.5 -12t54.5 -7.5q35 0 59 3.5t31 6.5l7 4q3 1 8.5 6t17.5 31.5t19 66.5l91 -53q-6 -50 -19 -85t-23 -45l-10 -10q-5 -6 -17 -14t-58 -22t-105 -14q-88 0 -143.5 24 t-71.5 50q-50 81 -50 261v584h-166z" />
<glyph unicode="u" horiz-adv-x="1157" d="M149 376v635h154v-608q0 -160 38 -223q36 -78 206 -78q172 0 237 70q62 64 62 250v589h153v-1011h-128l-13 146q-107 -169 -353 -169q-199 0 -285 89q-71 73 -71 310z" />
<glyph unicode="v" horiz-adv-x="967" d="M53 1011h160l198 -610l75 -260q36 134 79 274t104.5 329t86.5 267h158l-339 -1011h-179z" />
<glyph unicode="w" horiz-adv-x="1485" d="M59 1011h161q20 -81 69.5 -274t84.5 -335t66 -277l53 251l164 635h170l164 -628l59 -256q22 89 217 884h158l-290 -1011h-175l-170 651l-49 223q-28 -134 -63.5 -278t-82.5 -324t-70 -272h-176z" />
<glyph unicode="x" horiz-adv-x="968" d="M64 17l333 509l-322 467l157 34l252 -377l247 377l154 -34l-314 -465l340 -511l-155 -34l-271 417l-268 -417z" />
<glyph unicode="y" horiz-adv-x="1157" d="M149 376v635h154v-608q0 -160 38 -223q36 -78 206 -78q172 0 237 70q62 64 62 250v589h153v-949q0 -258 -107 -362q-105 -102 -336 -102q-85 0 -157 15t-101.5 28t-49.5 27q-29 19 -56.5 63t-35.5 119l87 47q23 -51 45.5 -84t33.5 -41l11 -7q2 -2 5.5 -5t20.5 -10.5 t39 -13t64 -10.5t93 -5q95 0 155 22t82 50q53 70 53 263v72q-98 -151 -340 -151q-199 0 -285 89q-71 73 -71 310z" />
<glyph unicode="z" horiz-adv-x="900" d="M82 117l420 614l125 162l-162 -6h-344v124h666l14 -107l-413 -606l-135 -178l121 5h430v-125h-709z" />
<glyph unicode="{" horiz-adv-x="573" d="M60 581v116q62 23 113 73q19 97 35 351q6 91 15 151t27 113t47 82t73.5 45t107.5 16l25 -100q-32 0 -56 -12.5t-40 -40.5t-26.5 -60.5t-17 -84.5t-9.5 -99t-5 -117q-7 -232 -23 -268q-41 -60 -116 -107q75 -47 116 -107q16 -36 23 -268q2 -70 5 -117t9.5 -99t17 -84.5 t26.5 -60.5t40 -40.5t56 -12.5l-25 -100q-63 0 -107.5 16t-73.5 45t-47 82t-27 113t-15 151q-16 254 -35 351q-51 50 -113 73z" />
<glyph unicode="|" horiz-adv-x="500" d="M162 -301v1837h176v-1837h-176z" />
<glyph unicode="}" horiz-adv-x="574" d="M71 -150q32 0 56 12.5t40 40.5t26.5 60.5t17 84.5t9.5 99t5 117q7 232 23 268q41 60 116 107q-75 47 -116 107q-16 36 -23 268q-2 70 -5 117t-9.5 99t-17 84.5t-26.5 60.5t-40 40.5t-56 12.5l25 100q63 0 107.5 -16t73.5 -45t47 -82t27 -113t15 -151q16 -254 35 -351 q51 -50 113 -73v-116q-62 -23 -113 -73q-19 -97 -35 -351q-6 -91 -15 -151t-27 -113t-47 -82t-73.5 -45t-107.5 -16z" />
<glyph unicode="~" horiz-adv-x="1142" d="M116 547q10 43 26.5 82t44.5 77.5t72 61.5t99 23q53 0 119 -27t117 -59.5t105.5 -59.5t87.5 -27q29 0 49.5 8.5t36 30t24 39t22.5 52.5l111 -56q-8 -40 -25.5 -78t-46.5 -72t-74.5 -55t-101.5 -21q-61 0 -147 41t-161.5 81.5t-109.5 40.5q-48 0 -79.5 -34.5t-57.5 -100.5 z" />
<glyph unicode="&#xa1;" horiz-adv-x="496" d="M143 1145v221h211v-221h-211zM167 0v195q7 134 20.5 418t19.5 418h83q5 -134 19.5 -418t19.5 -418v-195h-162z" />
<glyph unicode="&#xa2;" horiz-adv-x="1028" d="M80 509q0 284 106 402q39 44 120 81t205 42v282l89 12v-295q177 -12 260 -95q64 -64 79 -199l-126 -35q-18 106 -47 142q-48 52 -166 62v-810q125 10 175 64q31 33 49 142l121 -35q-13 -132 -79 -196q-85 -82 -266 -94v-343l-89 -12v354q-125 5 -206 41.5t-120 80.5 q-105 117 -105 409zM236 507q0 -109 11 -182t22.5 -100.5t29.5 -49.5q56 -71 212 -78v812q-162 -6 -216 -78q-59 -77 -59 -324z" />
<glyph unicode="&#xa3;" horiz-adv-x="1130" d="M93 96q50 15 83.5 44t50 72.5t23 86t7.5 102.5l4 190h-154v118h163l9 222q9 230 100.5 324.5t281.5 94.5q164 0 238.5 -57.5t105.5 -199.5l-107 -72q-21 107 -60.5 154.5t-126.5 47.5q-60 0 -99 -3.5t-72 -15.5t-51 -30t-32 -52t-20 -76t-9 -107l-12 -230h321l-16 -118 h-316l-6 -177q-4 -112 -18.5 -177t-53.5 -112l2 -2q55 23 124 23q46 0 136 -19t134 -19q143 0 272 90l41 -134q-160 -87 -277 -87q-57 0 -177.5 26.5t-179.5 26.5q-56 0 -278 -39z" />
<glyph unicode="&#xa4;" horiz-adv-x="1242" d="M150 451l114 116q-45 102 -45 226q0 140 57 254l-126 129l110 108q84 -84 125 -127q89 60 236 60t236 -60l125 127l110 -108l-126 -129q57 -114 57 -254q0 -124 -45 -226l114 -116l-110 -107l-100 100q-92 -69 -261 -69t-261 69l-100 -100zM366 793q0 -128 40 -197 q28 -49 78 -72.5t137 -23.5t137 23.5t78 72.5q40 69 40 197q0 47 -1.5 74.5t-15 74.5t-39.5 78q-60 72 -199 72t-199 -72q-26 -31 -39.5 -78t-15 -74.5t-1.5 -74.5z" />
<glyph unicode="&#xa5;" horiz-adv-x="1209" d="M60 1418h160q20 -36 163.5 -295t217.5 -397h10q71 139 212.5 396t162.5 296h163l-367 -643h188v-109h-255l-40 -66v-43h295v-111h-295v-446h-143v446h-295v111h295v43l-41 66h-254v109h188z" />
<glyph unicode="&#xa6;" horiz-adv-x="546" d="M168 -162v762h209v-762h-209zM168 766v764h209v-764h-209z" />
<glyph unicode="&#xa7;" horiz-adv-x="1016" d="M119 663q0 101 55.5 168t154.5 95q-165 91 -165 264q0 292 363 292q167 0 238 -33.5t101 -132.5l-99 -60q-21 69 -71 93t-165 24q-132 0 -180 -41.5t-48 -134.5q0 -62 41 -109.5t117 -90.5l306 -174q78 -46 113 -104.5t35 -148.5q0 -154 -185 -232q72 -44 97.5 -102.5 t25.5 -137.5q0 -171 -84 -236.5t-277 -65.5q-75 0 -122 3t-93.5 14t-74 31t-48.5 53.5t-32 83.5l91 60q16 -55 43 -82.5t82.5 -40t157.5 -12.5q58 0 91 4.5t64.5 21.5t45 53.5t13.5 96.5q0 37 -7.5 63t-28.5 47t-40 33t-60 35l-271 140q-63 36 -100.5 65t-55.5 61.5t-23 61 t-5 75.5zM261 678q0 -20 4 -37.5t7.5 -29.5t15 -25.5t16.5 -19.5t22.5 -17t21 -13.5t25 -13.5t22.5 -12l246 -121q5 2 14 5.5t32 17t40 30.5t31.5 46.5t14.5 63.5q0 25 -4.5 46t-15.5 38.5t-19.5 30t-28 27t-28.5 20.5t-32.5 20t-29.5 18l-220 124q-60 -16 -97 -66t-37 -132 z" />
<glyph unicode="&#xa8;" horiz-adv-x="688" d="M44 1341q0 51 20 75t72 24q57 0 75.5 -23t18.5 -76q0 -51 -19.5 -73t-74.5 -22q-50 0 -71 23t-21 72zM462 1341q0 51 20 75t72 24q57 0 75.5 -23t18.5 -76q0 -51 -19.5 -73t-74.5 -22q-50 0 -71 23t-21 72z" />
<glyph unicode="&#xa9;" horiz-adv-x="1458" d="M95 633q0 130 50 248t134.5 203t201.5 135t246 50q173 0 319.5 -84.5t232 -229.5t85.5 -317q0 -174 -85.5 -321t-232 -232t-319.5 -85q-172 0 -317.5 85t-230 230.5t-84.5 317.5zM207 633q0 -145 70 -269t189.5 -196.5t260.5 -72.5q142 0 262 72.5t189 196.5t69 269 q0 148 -69 272t-189 196t-262 72q-141 0 -260.5 -72t-189.5 -196.5t-70 -271.5zM335 633q0 93 34 171t90.5 128.5t128 78.5t148.5 28q169 0 288 -118l-62 -62q-103 88 -222 88q-118 0 -199 -86.5t-81 -235.5q0 -144 82.5 -233t203.5 -89q133 0 252 109l51 -58 q-128 -145 -308 -145q-105 0 -197 51t-150.5 150t-58.5 223z" />
<glyph unicode="&#xaa;" horiz-adv-x="885" d="M117 788q0 102 41 151q23 30 89 56t182 31q32 2 70.5 2.5t61.5 1.5t43 6q0 70 -5.5 109t-11.5 49.5t-18 17.5q-2 1 -9.5 5t-16 7t-23 7t-37 6t-49.5 2q-69 0 -124 -12q-29 -7 -47 -30q-25 -41 -29 -73l-92 35q13 62 36 90.5t68 48.5q65 31 187 31q117 0 175.5 -25 t75.5 -56q30 -58 30 -238v-273q0 -55 7 -67.5t37 -12.5v-82q-27 -7 -50 -7q-88 13 -88 103q-86 -102 -251 -102q-84 0 -137 21.5t-73 47.5q-42 56 -42 150zM230 791q0 -64 16 -91q9 -12 19 -19.5t44 -15.5t87 -8q95 0 151.5 41t56.5 100v158q-14 -6 -32 -7.5t-58.5 -3 t-76.5 -4.5q-151 -10 -186 -55q-21 -23 -21 -95z" />
<glyph unicode="&#xab;" horiz-adv-x="1100" d="M58 721l387 391l104 -92l-323 -299l323 -301l-104 -90zM496 721l389 391l101 -92l-322 -299l322 -301l-101 -90z" />
<glyph unicode="&#xac;" horiz-adv-x="1388" d="M153 532v101h1076v-633h-179v532h-897z" />
<glyph unicode="&#xad;" horiz-adv-x="841" d="M141 474v131h559v-131h-559z" />
<glyph unicode="&#xae;" horiz-adv-x="1392" d="M104 811q0 120 46.5 228t125.5 186t188 124t230 46q161 0 298 -77.5t217 -211t80 -291.5q0 -160 -80 -294.5t-216.5 -212.5t-298.5 -78q-120 0 -229.5 46t-188.5 124t-125.5 185.5t-46.5 225.5zM235 811q0 -196 135 -336.5t324 -140.5q190 0 324.5 140t134.5 337 q0 131 -61.5 241t-167 174t-230.5 64q-124 0 -229.5 -63.5t-167.5 -174t-62 -241.5zM487 462v674h197q133 0 196.5 -40t63.5 -147q0 -74 -52 -121t-128 -53l174 -288l-78 -47l-186 327h-97v-305h-90zM577 844h107q95 0 133 22t38 83q0 74 -36.5 96.5t-134.5 22.5h-107v-224z " />
<glyph unicode="&#xaf;" horiz-adv-x="965" d="M174 1212v156h619v-156h-619z" />
<glyph unicode="&#xb0;" horiz-adv-x="634" d="M102 1219q0 85 57 146.5t159 61.5q101 0 157.5 -61.5t56.5 -146.5t-56.5 -146.5t-157.5 -61.5q-102 0 -159 61.5t-57 146.5zM215 1219q0 -45 27 -77.5t76 -32.5q48 0 74.5 32.5t26.5 77.5t-26.5 77.5t-74.5 32.5q-49 0 -76 -32.5t-27 -77.5z" />
<glyph unicode="&#xb1;" horiz-adv-x="1280" d="M144 20v154h992v-154h-992zM144 610v154h420v311h154v-311h418v-154h-418v-311h-154v311h-420z" />
<glyph unicode="&#xb2;" horiz-adv-x="901" d="M114 300q8 75 27.5 137t43 105t63.5 85.5t74 69.5t88 65q11 7 40.5 28t39.5 28t33.5 25t32 27t25.5 26t23 30t14.5 31t11.5 37t3 40q0 96 -34 138q-43 57 -148 57t-169.5 -49t-55.5 -145l-86 29q-12 82 31 144.5t118 93t166 30.5q143 0 224 -77.5t81 -216.5 q0 -63 -18 -113t-62.5 -93t-74 -65t-95.5 -64q-17 -11 -26 -17q-114 -76 -166.5 -132.5t-75.5 -142.5h526v-111h-654z" />
<glyph unicode="&#xb3;" horiz-adv-x="910" d="M109 510l98 37q0 -84 45 -124q49 -45 163 -45q127 0 176 60q37 43 37 151q0 46 -11.5 80t-36 55.5t-50.5 34.5t-68 19t-74.5 7.5t-83.5 1.5v98h89q99 0 160 40t61 130q0 179 -169 179q-189 0 -231 -136l-94 30q18 95 104 151q85 55 219 55q131 0 220 -62q97 -71 97 -212 q0 -51 -19 -93t-50 -68t-63 -42t-66 -23q87 -15 152 -78.5t65 -163.5q0 -166 -109 -246q-94 -67 -256 -67q-47 0 -90.5 8t-84 26t-70 44t-46 65.5t-14.5 87.5z" />
<glyph unicode="&#xb4;" horiz-adv-x="846" d="M187 1212l239 378l173 -74l-318 -336z" />
<glyph unicode="&#xb5;" horiz-adv-x="1164" d="M170 -213v1224h154v-608q0 -160 38 -223q36 -78 206 -78q172 0 237 70q62 64 62 250v589h153v-1011h-128l-13 146q-109 -172 -353 -172q-113 0 -202 56v-216z" />
<glyph unicode="&#xb6;" horiz-adv-x="1166" d="M67 1103q0 151 107.5 244t279.5 93h616v-130h-132v-1545h-170v1545h-184v-1545h-169v1004q-157 11 -252.5 102.5t-95.5 231.5z" />
<glyph unicode="&#xb7;" horiz-adv-x="494" d="M141 697v221h211v-221h-211z" />
<glyph unicode="&#xb8;" horiz-adv-x="563" d="M104 -327l30 59q52 -42 138 -42q45 0 61.5 16.5t16.5 46.5q0 34 -16 48.5t-49 14.5h-52l-50 61l34 122h98l-36 -119q180 0 180 -116q0 -69 -46.5 -113t-122.5 -44q-53 0 -91 10.5t-55 22t-40 33.5z" />
<glyph unicode="&#xb9;" horiz-adv-x="561" d="M56 1152q100 55 237 179l97 -19v-1012h-117v878q-103 -76 -186 -122z" />
<glyph unicode="&#xba;" horiz-adv-x="898" d="M113 947q0 206 76 292q30 33 94.5 60t163.5 27q100 0 164.5 -27t95.5 -60q76 -83 76 -290q0 -212 -76 -295q-29 -33 -94.5 -60t-165.5 -27t-164 27t-94 60q-76 86 -76 293zM226 944q0 -183 43 -232q44 -55 182 -55q134 0 177 56q43 57 43 233q0 183 -46 238 q-43 52 -178 52t-179 -55q-42 -53 -42 -237z" />
<glyph unicode="&#xbb;" horiz-adv-x="1100" d="M114 420l322 301l-322 299l101 92l389 -391l-389 -391zM551 420l323 301l-323 299l104 92l387 -391l-387 -391z" />
<glyph unicode="&#xbc;" horiz-adv-x="1853" d="M62 1152q100 55 237 179l97 -19v-1012h-117v878q-103 -76 -186 -122zM565 1l611 1643l104 -17l-612 -1644zM1086 344l414 665l137 -15v-680h142v-99h-142v-216h-117v216h-423zM1185 312h335v546z" />
<glyph unicode="&#xbd;" horiz-adv-x="1964" d="M62 1152q100 55 237 179l97 -19v-1012h-117v878q-103 -76 -186 -122zM553 1l611 1643l104 -17l-612 -1644zM1210 0q8 75 27.5 137t43 105t63.5 85.5t74 69.5t88 65q11 7 40.5 28t39.5 28t33.5 25t32 27t25.5 26t23 30t14.5 31t11.5 37t3 40q0 96 -34 138q-43 57 -148 57 t-169.5 -49t-55.5 -145l-86 29q-12 82 31 144.5t118 93t166 30.5q143 0 224 -77.5t81 -216.5q0 -63 -18 -113t-62.5 -93t-74 -65t-95.5 -64q-17 -11 -26 -17q-114 -76 -166.5 -132.5t-75.5 -142.5h526v-111h-654z" />
<glyph unicode="&#xbe;" horiz-adv-x="2142" d="M97 510l98 37q0 -84 45 -124q49 -45 163 -45q127 0 176 60q37 43 37 151q0 46 -11.5 80t-36 55.5t-50.5 34.5t-68 19t-74.5 7.5t-83.5 1.5v98h89q99 0 160 40t61 130q0 179 -169 179q-189 0 -231 -136l-94 30q18 95 104 151q85 55 219 55q131 0 220 -62q97 -71 97 -212 q0 -51 -19 -93t-50 -68t-63 -42t-66 -23q87 -15 152 -78.5t65 -163.5q0 -166 -109 -246q-94 -67 -256 -67q-47 0 -90.5 8t-84 26t-70 44t-46 65.5t-14.5 87.5zM861 1l611 1643l104 -17l-612 -1644zM1382 344l414 665l137 -15v-680h142v-99h-142v-216h-117v216h-423z M1481 312h335v546z" />
<glyph unicode="&#xbf;" horiz-adv-x="892" d="M78 310q0 44 15 86.5t35.5 74t54.5 66.5t59.5 56t64 51.5t54.5 44.5q49 42 60.5 86t11.5 153l1 65l133 -1q9 -126 9 -184q0 -54 -19 -99.5t-48.5 -77.5t-65.5 -60.5t-72 -55.5t-65.5 -56t-48 -68.5t-18.5 -87.5q0 -41 11.5 -73.5t22.5 -43.5l11 -12q5 -5 15 -12.5t52 -20 t98 -12.5q55 0 96 7t54 14l13 7q8 4 22 12t48 36t58 60l84 -102q-20 -37 -55 -71t-59 -50l-25 -15q-9 -6 -26.5 -14.5t-81 -22.5t-137.5 -14q-55 0 -105 10.5t-81.5 25.5t-55 30.5t-34.5 25.5l-10 11q-3 3 -8 9.5t-18.5 29t-23.5 47.5t-18 64.5t-8 80.5zM402 1121v221h211 v-221h-211z" />
<glyph unicode="&#xc0;" d="M18 0l544 1441h201l541 -1441h-176l-136 367h-662l-135 -367h-177zM378 502h565l-280 827zM453 1946l175 74l240 -378l-93 -32z" />
<glyph unicode="&#xc1;" d="M18 0l544 1441h201l541 -1441h-176l-136 367h-662l-135 -367h-177zM378 502h565l-280 827zM454 1642l239 378l173 -74l-318 -336z" />
<glyph unicode="&#xc2;" d="M18 0l544 1441h201l541 -1441h-176l-136 367h-662l-135 -367h-177zM378 502h565l-280 827zM410 1565l178 337h144l179 -337h-145l-103 277l-108 -277h-145z" />
<glyph unicode="&#xc3;" d="M18 0l544 1441h201l541 -1441h-176l-136 367h-662l-135 -367h-177zM378 502h565l-280 827zM390 1687q0 99 47 141.5t118 42.5q44 0 126.5 -42.5t93.5 -42.5q27 0 39 21t14 63h112q-1 -98 -44.5 -141.5t-113.5 -43.5q-58 0 -123 40q-70 43 -90 47q-6 1 -12 1 q-54 0 -54 -86h-113z" />
<glyph unicode="&#xc4;" d="M18 0l544 1441h201l541 -1441h-176l-136 367h-662l-135 -367h-177zM358 1771q0 51 20 75t72 24q57 0 75.5 -23t18.5 -76q0 -51 -19.5 -73t-74.5 -22q-50 0 -71 23t-21 72zM378 502h565l-280 827zM776 1771q0 51 20 75t72 24q57 0 75.5 -23t18.5 -76q0 -51 -19.5 -73 t-74.5 -22q-50 0 -71 23t-21 72z" />
<glyph unicode="&#xc5;" d="M18 0l544 1441h201l541 -1441h-176l-136 367h-662l-135 -367h-177zM378 502h565l-280 827zM499 1746q0 69 46 112t117 43q69 0 114.5 -43.5t45.5 -113.5t-45.5 -114t-116.5 -44q-70 0 -115.5 44.5t-45.5 115.5zM578 1746q0 -39 21 -62.5t62 -23.5t62.5 23t21.5 61 t-21.5 61.5t-62.5 23.5q-40 0 -61.5 -23t-21.5 -60z" />
<glyph unicode="&#xc6;" horiz-adv-x="1839" d="M-17 0l687 1441h966l-13 -139h-654l79 -481h591l11 -136h-583l92 -546h592l33 -139h-781l-62 368h-598l-177 -368h-183zM403 507h525l-123 792h-34z" />
<glyph unicode="&#xc7;" horiz-adv-x="1407" d="M120 699q0 123 16 226.5t43 173.5t51.5 114t51.5 76q20 24 48.5 47.5t73 48.5t96 44t121 31t145.5 12q90 0 169 -15.5t131 -39.5t81.5 -42.5t46.5 -34.5q32 -31 66 -94t52 -151l-146 -75q-19 87 -50.5 147.5t-64.5 81.5q-112 73 -282 73q-68 0 -127 -11t-100 -29.5 t-67 -35.5t-45 -35q-24 -22 -45 -59.5t-41 -95.5t-32 -146.5t-12 -195.5q0 -105 11 -192t29 -143t35 -90t35 -55q46 -53 139 -88.5t216 -35.5q119 0 201 31t116 65q12 12 26 32t34.5 68.5t34.5 109.5l140 -79q-23 -102 -61.5 -164.5t-74.5 -91.5q-19 -15 -46.5 -30.5 t-79 -38.5t-128 -37t-162.5 -14h-22l-25 -81q180 0 180 -116q0 -69 -46.5 -113t-122.5 -44q-53 0 -91 10.5t-55 22t-40 33.5l30 59q52 -42 138 -42q45 0 61.5 16.5t16.5 46.5q0 34 -16 48.5t-49 14.5h-52l-50 61l25 91q-54 7 -105 21t-87.5 29.5t-69 34.5t-52 34.5 t-35.5 30.5q-76 73 -127 227t-51 354z" />
<glyph unicode="&#xc8;" horiz-adv-x="1164" d="M192 0v1441h860l-22 -142h-664v-475h610v-138h-610v-543h666l23 -143h-863zM375 1946l175 74l240 -378l-93 -32z" />
<glyph unicode="&#xc9;" horiz-adv-x="1164" d="M192 0v1441h860l-22 -142h-664v-475h610v-138h-610v-543h666l23 -143h-863zM376 1642l239 378l173 -74l-318 -336z" />
<glyph unicode="&#xca;" horiz-adv-x="1164" d="M192 0v1441h860l-22 -142h-664v-475h610v-138h-610v-543h666l23 -143h-863zM404 1565l178 337h144l179 -337h-145l-103 277l-108 -277h-145z" />
<glyph unicode="&#xcb;" horiz-adv-x="1164" d="M192 0v1441h860l-22 -142h-664v-475h610v-138h-610v-543h666l23 -143h-863zM343 1771q0 51 20 75t72 24q57 0 75.5 -23t18.5 -76q0 -51 -19.5 -73t-74.5 -22q-50 0 -71 23t-21 72zM761 1771q0 51 20 75t72 24q57 0 75.5 -23t18.5 -76q0 -51 -19.5 -73t-74.5 -22 q-50 0 -71 23t-21 72z" />
<glyph unicode="&#xcc;" horiz-adv-x="696" d="M96 1441h509l-8 -101h-153v-1239h155l-6 -101h-490l-6 101h173v1239h-168zM143 1946l175 74l240 -378l-93 -32z" />
<glyph unicode="&#xcd;" horiz-adv-x="696" d="M96 1441h509l-8 -101h-153v-1239h155l-6 -101h-490l-6 101h173v1239h-168zM145 1642l239 378l173 -74l-318 -336z" />
<glyph unicode="&#xce;" horiz-adv-x="696" d="M96 1441h509l-8 -101h-153v-1239h155l-6 -101h-490l-6 101h173v1239h-168zM100 1565l178 337h144l179 -337h-145l-103 277l-108 -277h-145z" />
<glyph unicode="&#xcf;" horiz-adv-x="696" d="M60 1771q0 51 20 75t72 24q57 0 75.5 -23t18.5 -76q0 -51 -19.5 -73t-74.5 -22q-50 0 -71 23t-21 72zM96 1441h509l-8 -101h-153v-1239h155l-6 -101h-490l-6 101h173v1239h-168zM478 1771q0 51 20 75t72 24q57 0 75.5 -23t18.5 -76q0 -51 -19.5 -73t-74.5 -22 q-50 0 -71 23t-21 72z" />
<glyph unicode="&#xd0;" horiz-adv-x="1444" d="M64 670v131h130v640h468q299 0 472 -149q34 -30 63.5 -71t61 -107t49.5 -166t18 -221q0 -105 -13 -195.5t-33 -151.5t-47.5 -111.5t-51.5 -78.5t-51 -50t-61.5 -42.5t-91 -44.5t-137 -38.5t-172.5 -14.5h-474v670h-130zM368 145h297q147 0 238 36.5t131 84.5 q113 135 113 457q0 317 -106 452q-39 48 -135.5 85t-258.5 37h-279v-496h255v-131h-255v-525z" />
<glyph unicode="&#xd1;" horiz-adv-x="1561" d="M192 0v1441h217q86 -131 253 -380t299 -451t246 -387v1218h162v-1441h-199q-82 125 -203 308.5t-210 317.5t-200.5 306t-203.5 318v-1250h-161zM505 1687q0 51 14 88.5t38 57.5t52 29t61 9t81 -21.5t87 -42.5t52 -21q27 0 39 21t14 63h112q-1 -98 -44.5 -141.5 t-113.5 -43.5q-58 0 -123 40q-4 2 -10 6q-28 17 -40 24t-26.5 12.5t-25.5 5.5q-18 0 -30.5 -11.5t-18 -30t-5.5 -44.5h-113z" />
<glyph unicode="&#xd2;" horiz-adv-x="1541" d="M121 727q0 394 154 568q27 30 65 57t97.5 56t146.5 46.5t188 17.5q100 0 186.5 -17.5t146.5 -47t98 -56.5t65 -57q152 -172 152 -566q0 -458 -184 -614q-179 -152 -467 -152q-102 0 -189 17.5t-146.5 46.5t-97 56.5t-64.5 57.5q-151 171 -151 587zM300 721 q0 -365 104 -487q39 -48 134 -86t231 -38q137 0 233 38.5t135 87.5q104 135 104 493q0 344 -103 471q-39 48 -134.5 86t-231.5 38q-138 0 -234 -38.5t-135 -86.5q-103 -126 -103 -478zM562 1946l175 74l240 -378l-93 -32z" />
<glyph unicode="&#xd3;" horiz-adv-x="1541" d="M121 727q0 394 154 568q27 30 65 57t97.5 56t146.5 46.5t188 17.5q100 0 186.5 -17.5t146.5 -47t98 -56.5t65 -57q152 -172 152 -566q0 -458 -184 -614q-179 -152 -467 -152q-102 0 -189 17.5t-146.5 46.5t-97 56.5t-64.5 57.5q-151 171 -151 587zM300 721 q0 -365 104 -487q39 -48 134 -86t231 -38q137 0 233 38.5t135 87.5q104 135 104 493q0 344 -103 471q-39 48 -134.5 86t-231.5 38q-138 0 -234 -38.5t-135 -86.5q-103 -126 -103 -478zM564 1642l239 378l173 -74l-318 -336z" />
<glyph unicode="&#xd4;" horiz-adv-x="1541" d="M121 727q0 394 154 568q27 30 65 57t97.5 56t146.5 46.5t188 17.5q100 0 186.5 -17.5t146.5 -47t98 -56.5t65 -57q152 -172 152 -566q0 -458 -184 -614q-179 -152 -467 -152q-102 0 -189 17.5t-146.5 46.5t-97 56.5t-64.5 57.5q-151 171 -151 587zM300 721 q0 -365 104 -487q39 -48 134 -86t231 -38q137 0 233 38.5t135 87.5q104 135 104 493q0 344 -103 471q-39 48 -134.5 86t-231.5 38q-138 0 -234 -38.5t-135 -86.5q-103 -126 -103 -478zM519 1565l178 337h144l179 -337h-145l-103 277l-108 -277h-145z" />
<glyph unicode="&#xd5;" horiz-adv-x="1541" d="M121 727q0 394 154 568q27 30 65 57t97.5 56t146.5 46.5t188 17.5q100 0 186.5 -17.5t146.5 -47t98 -56.5t65 -57q152 -172 152 -566q0 -458 -184 -614q-179 -152 -467 -152q-102 0 -189 17.5t-146.5 46.5t-97 56.5t-64.5 57.5q-151 171 -151 587zM300 721 q0 -365 104 -487q39 -48 134 -86t231 -38q137 0 233 38.5t135 87.5q104 135 104 493q0 344 -103 471q-39 48 -134.5 86t-231.5 38q-138 0 -234 -38.5t-135 -86.5q-103 -126 -103 -478zM488 1687q0 99 47 141.5t118 42.5q44 0 126.5 -42.5t93.5 -42.5q27 0 39 21t14 63h112 q-1 -98 -44.5 -141.5t-113.5 -43.5q-58 0 -123 40q-70 43 -90 47q-6 1 -12 1q-54 0 -54 -86h-113z" />
<glyph unicode="&#xd6;" horiz-adv-x="1541" d="M121 727q0 394 154 568q27 30 65 57t97.5 56t146.5 46.5t188 17.5q100 0 186.5 -17.5t146.5 -47t98 -56.5t65 -57q152 -172 152 -566q0 -458 -184 -614q-179 -152 -467 -152q-102 0 -189 17.5t-146.5 46.5t-97 56.5t-64.5 57.5q-151 171 -151 587zM300 721 q0 -365 104 -487q39 -48 134 -86t231 -38q137 0 233 38.5t135 87.5q104 135 104 493q0 344 -103 471q-39 48 -134.5 86t-231.5 38q-138 0 -234 -38.5t-135 -86.5q-103 -126 -103 -478zM468 1771q0 51 20 75t72 24q57 0 75.5 -23t18.5 -76q0 -51 -19.5 -73t-74.5 -22 q-50 0 -71 23t-21 72zM886 1771q0 51 20 75t72 24q57 0 75.5 -23t18.5 -76q0 -51 -19.5 -73t-74.5 -22q-50 0 -71 23t-21 72z" />
<glyph unicode="&#xd7;" horiz-adv-x="892" d="M143 428l200 201l-200 200l102 101l201 -201l200 201l103 -101l-201 -200l201 -201l-103 -100l-200 200l-201 -200z" />
<glyph unicode="&#xd8;" horiz-adv-x="1539" d="M120 727q0 394 154 568q27 30 65 57t97.5 56t146.5 46.5t188 17.5q54 0 104 -5l-33 -146q-34 3 -71 3q-138 0 -234 -38.5t-135 -86.5q-103 -126 -103 -478q0 -365 104 -487q22 -27 66.5 -54t107.5 -45l-33 -147q-178 44 -273 152q-151 171 -151 587zM512 -153l32 141 q58 -15 123 -21l-32 -144zM577 135l265 1186q67 -6 125 -23l-267 -1185q-65 6 -123 22zM667 -33l33 146q33 -3 68 -3q137 0 233 38.5t135 87.5q104 135 104 493q0 344 -103 471q-22 27 -65.5 53.5t-104.5 44.5l33 146q170 -45 267 -150q152 -172 152 -566 q0 -114 -12.5 -210.5t-31 -160t-44.5 -115t-48.5 -79.5t-47.5 -49q-24 -21 -52.5 -39.5t-72.5 -40t-92 -37t-113.5 -25.5t-136.5 -10q-52 0 -101 5zM875 1467l33 147l125 -23l-33 -147q-59 16 -125 23z" />
<glyph unicode="&#xd9;" horiz-adv-x="1511" d="M176 679v762h174v-758q0 -194 22.5 -309.5t52.5 -157.5q32 -44 115 -80.5t219 -36.5q134 0 218 35.5t113 81.5q71 110 71 405v820h174v-753q0 -256 -43 -401.5t-104 -199.5q-33 -29 -79.5 -56t-144 -53t-209.5 -26q-161 0 -273.5 43t-166.5 92q-139 124 -139 592z M547 1946l175 74l240 -378l-93 -32z" />
<glyph unicode="&#xda;" horiz-adv-x="1511" d="M176 679v762h174v-758q0 -194 22.5 -309.5t52.5 -157.5q32 -44 115 -80.5t219 -36.5q134 0 218 35.5t113 81.5q71 110 71 405v820h174v-753q0 -256 -43 -401.5t-104 -199.5q-33 -29 -79.5 -56t-144 -53t-209.5 -26q-161 0 -273.5 43t-166.5 92q-139 124 -139 592z M549 1642l239 378l173 -74l-318 -336z" />
<glyph unicode="&#xdb;" horiz-adv-x="1511" d="M176 679v762h174v-758q0 -194 22.5 -309.5t52.5 -157.5q32 -44 115 -80.5t219 -36.5q134 0 218 35.5t113 81.5q71 110 71 405v820h174v-753q0 -256 -43 -401.5t-104 -199.5q-33 -29 -79.5 -56t-144 -53t-209.5 -26q-161 0 -273.5 43t-166.5 92q-139 124 -139 592z M504 1565l178 337h144l179 -337h-145l-103 277l-108 -277h-145z" />
<glyph unicode="&#xdc;" horiz-adv-x="1511" d="M176 679v762h174v-758q0 -194 22.5 -309.5t52.5 -157.5q32 -44 115 -80.5t219 -36.5q134 0 218 35.5t113 81.5q71 110 71 405v820h174v-753q0 -256 -43 -401.5t-104 -199.5q-33 -29 -79.5 -56t-144 -53t-209.5 -26q-161 0 -273.5 43t-166.5 92q-139 124 -139 592z M453 1771q0 51 20 75t72 24q57 0 75.5 -23t18.5 -76q0 -51 -19.5 -73t-74.5 -22q-50 0 -71 23t-21 72zM871 1771q0 51 20 75t72 24q57 0 75.5 -23t18.5 -76q0 -51 -19.5 -73t-74.5 -22q-50 0 -71 23t-21 72z" />
<glyph unicode="&#xdd;" horiz-adv-x="1142" d="M-4 1441h186q40 -75 119 -217t139 -247l59 -105l73 -132l72 132q228 401 320 569h188q-64 -116 -187.5 -326t-215.5 -361l-92 -152v-602h-174v599q-348 580 -487 842zM367 1642l239 378l173 -74l-318 -336z" />
<glyph unicode="&#xde;" horiz-adv-x="1245" d="M191 0v1441h174v-210h196q205 0 317 -25t173 -82q122 -111 122 -322q0 -209 -124 -318q-119 -106 -421 -106h-263v-378h-174zM365 518h183q164 0 243.5 14.5t120.5 47.5q37 30 57.5 76t20.5 143q0 101 -22.5 152.5t-63.5 81.5q-34 25 -91 39.5t-172 14.5h-276v-569z" />
<glyph unicode="&#xdf;" horiz-adv-x="1226" d="M157 0v1105q0 173 91 276q80 91 341 91q223 0 308 -60q56 -40 95 -113.5t39 -181.5q0 -72 -19.5 -132.5t-63.5 -104t-107 -52.5q2 -1 22 -5.5t28 -6.5t27.5 -8t31.5 -11.5t28.5 -15t30.5 -20.5q113 -95 113 -329q0 -255 -106 -363q-45 -42 -126 -67t-180 -25 q-112 0 -175.5 41.5t-103.5 115.5l70 50q10 -14 22.5 -25t24 -18t28.5 -12t27 -7.5t29.5 -4t27 -1.5h27.5h23q162 0 209 68q26 33 34 86.5t8 158.5q0 181 -53 247q-75 89 -199 89h-178v116h179q83 0 122.5 52.5t39.5 180.5q0 52 -5.5 88t-20.5 62t-34 41t-54 23.5t-73 11.5 t-96 3q-88 0 -138 -9t-84 -38t-45.5 -77.5t-11.5 -131.5v-1087h-153z" />
<glyph unicode="&#xe0;" horiz-adv-x="1091" d="M99 282q0 137 57 210q35 42 125.5 78t252.5 43q39 2 96 2t88 2.5t60 9.5q0 96 -8 151t-17 70.5t-25 23.5l-8 4q-8 5 -13.5 7t-17 6.5t-25 7.5t-31.5 6t-41.5 4.5t-50.5 1.5q-111 0 -173 -16q-27 -8 -39 -16t-26 -26q-31 -42 -41 -101l-128 48q17 87 49.5 126t95.5 68 q95 43 260 43q163 0 245.5 -35.5t104.5 -77.5q42 -84 42 -331v-380q0 -77 9.5 -94.5t51.5 -17.5v-114q-34 -10 -70 -10q-123 15 -123 143q-16 -21 -41.5 -42t-67.5 -45t-105 -39t-135 -15q-119 0 -191.5 29.5t-101.5 66.5q-58 75 -58 209zM256 285q0 -93 23 -126 q10 -17 25.5 -28.5t62 -21.5t120.5 -10q134 0 212.5 57t78.5 139v220q-17 -6 -39.5 -9t-42 -4t-66 -3t-85.5 -4q-209 -15 -260 -77q-29 -34 -29 -133zM348 1516l175 74l240 -378l-93 -32z" />
<glyph unicode="&#xe1;" horiz-adv-x="1091" d="M99 282q0 137 57 210q35 42 125.5 78t252.5 43q39 2 96 2t88 2.5t60 9.5q0 96 -8 151t-17 70.5t-25 23.5l-8 4q-8 5 -13.5 7t-17 6.5t-25 7.5t-31.5 6t-41.5 4.5t-50.5 1.5q-111 0 -173 -16q-27 -8 -39 -16t-26 -26q-31 -42 -41 -101l-128 48q17 87 49.5 126t95.5 68 q95 43 260 43q163 0 245.5 -35.5t104.5 -77.5q42 -84 42 -331v-380q0 -77 9.5 -94.5t51.5 -17.5v-114q-34 -10 -70 -10q-123 15 -123 143q-16 -21 -41.5 -42t-67.5 -45t-105 -39t-135 -15q-119 0 -191.5 29.5t-101.5 66.5q-58 75 -58 209zM256 285q0 -93 23 -126 q10 -17 25.5 -28.5t62 -21.5t120.5 -10q134 0 212.5 57t78.5 139v220q-17 -6 -39.5 -9t-42 -4t-66 -3t-85.5 -4q-209 -15 -260 -77q-29 -34 -29 -133zM349 1212l239 378l173 -74l-318 -336z" />
<glyph unicode="&#xe2;" horiz-adv-x="1091" d="M99 282q0 137 57 210q35 42 125.5 78t252.5 43q39 2 96 2t88 2.5t60 9.5q0 96 -8 151t-17 70.5t-25 23.5l-8 4q-8 5 -13.5 7t-17 6.5t-25 7.5t-31.5 6t-41.5 4.5t-50.5 1.5q-111 0 -173 -16q-27 -8 -39 -16t-26 -26q-31 -42 -41 -101l-128 48q17 87 49.5 126t95.5 68 q95 43 260 43q163 0 245.5 -35.5t104.5 -77.5q42 -84 42 -331v-380q0 -77 9.5 -94.5t51.5 -17.5v-114q-34 -10 -70 -10q-123 15 -123 143q-16 -21 -41.5 -42t-67.5 -45t-105 -39t-135 -15q-119 0 -191.5 29.5t-101.5 66.5q-58 75 -58 209zM256 285q0 -93 23 -126 q10 -17 25.5 -28.5t62 -21.5t120.5 -10q134 0 212.5 57t78.5 139v220q-17 -6 -39.5 -9t-42 -4t-66 -3t-85.5 -4q-209 -15 -260 -77q-29 -34 -29 -133zM305 1135l178 337h144l179 -337h-145l-103 277l-108 -277h-145z" />
<glyph unicode="&#xe3;" horiz-adv-x="1091" d="M99 282q0 137 57 210q35 42 125.5 78t252.5 43q39 2 96 2t88 2.5t60 9.5q0 96 -8 151t-17 70.5t-25 23.5l-8 4q-8 5 -13.5 7t-17 6.5t-25 7.5t-31.5 6t-41.5 4.5t-50.5 1.5q-111 0 -173 -16q-27 -8 -39 -16t-26 -26q-31 -42 -41 -101l-128 48q17 87 49.5 126t95.5 68 q95 43 260 43q163 0 245.5 -35.5t104.5 -77.5q42 -84 42 -331v-380q0 -77 9.5 -94.5t51.5 -17.5v-114q-34 -10 -70 -10q-123 15 -123 143q-16 -21 -41.5 -42t-67.5 -45t-105 -39t-135 -15q-119 0 -191.5 29.5t-101.5 66.5q-58 75 -58 209zM256 285q0 -93 23 -126 q10 -17 25.5 -28.5t62 -21.5t120.5 -10q134 0 212.5 57t78.5 139v220q-17 -6 -39.5 -9t-42 -4t-66 -3t-85.5 -4q-209 -15 -260 -77q-29 -34 -29 -133zM280 1257q0 99 47 141.5t118 42.5q44 0 126.5 -42.5t93.5 -42.5q27 0 39 21t14 63h112q-1 -98 -44.5 -141.5t-113.5 -43.5 q-58 0 -123 40q-70 43 -90 47q-6 1 -12 1q-54 0 -54 -86h-113z" />
<glyph unicode="&#xe4;" horiz-adv-x="1091" d="M99 282q0 137 57 210q35 42 125.5 78t252.5 43q39 2 96 2t88 2.5t60 9.5q0 96 -8 151t-17 70.5t-25 23.5l-8 4q-8 5 -13.5 7t-17 6.5t-25 7.5t-31.5 6t-41.5 4.5t-50.5 1.5q-111 0 -173 -16q-27 -8 -39 -16t-26 -26q-31 -42 -41 -101l-128 48q17 87 49.5 126t95.5 68 q95 43 260 43q163 0 245.5 -35.5t104.5 -77.5q42 -84 42 -331v-380q0 -77 9.5 -94.5t51.5 -17.5v-114q-34 -10 -70 -10q-123 15 -123 143q-16 -21 -41.5 -42t-67.5 -45t-105 -39t-135 -15q-119 0 -191.5 29.5t-101.5 66.5q-58 75 -58 209zM253 1341q0 51 20 75t72 24 q57 0 75.5 -23t18.5 -76q0 -51 -19.5 -73t-74.5 -22q-50 0 -71 23t-21 72zM256 285q0 -93 23 -126q10 -17 25.5 -28.5t62 -21.5t120.5 -10q134 0 212.5 57t78.5 139v220q-17 -6 -39.5 -9t-42 -4t-66 -3t-85.5 -4q-209 -15 -260 -77q-29 -34 -29 -133zM671 1341q0 51 20 75 t72 24q57 0 75.5 -23t18.5 -76q0 -51 -19.5 -73t-74.5 -22q-50 0 -71 23t-21 72z" />
<glyph unicode="&#xe5;" horiz-adv-x="1091" d="M99 282q0 137 57 210q35 42 125.5 78t252.5 43q39 2 96 2t88 2.5t60 9.5q0 96 -8 151t-17 70.5t-25 23.5l-8 4q-8 5 -13.5 7t-17 6.5t-25 7.5t-31.5 6t-41.5 4.5t-50.5 1.5q-111 0 -173 -16q-27 -8 -39 -16t-26 -26q-31 -42 -41 -101l-128 48q17 87 49.5 126t95.5 68 q95 43 260 43q163 0 245.5 -35.5t104.5 -77.5q42 -84 42 -331v-380q0 -77 9.5 -94.5t51.5 -17.5v-114q-34 -10 -70 -10q-123 15 -123 143q-16 -21 -41.5 -42t-67.5 -45t-105 -39t-135 -15q-119 0 -191.5 29.5t-101.5 66.5q-58 75 -58 209zM256 285q0 -93 23 -126 q10 -17 25.5 -28.5t62 -21.5t120.5 -10q134 0 212.5 57t78.5 139v220q-17 -6 -39.5 -9t-42 -4t-66 -3t-85.5 -4q-209 -15 -260 -77q-29 -34 -29 -133zM394 1316q0 69 46 112t117 43q69 0 114.5 -43.5t45.5 -113.5t-45.5 -114t-116.5 -44q-70 0 -115.5 44.5t-45.5 115.5z M473 1316q0 -39 21 -62.5t62 -23.5t62.5 23t21.5 61t-21.5 61.5t-62.5 23.5q-40 0 -61.5 -23t-21.5 -60z" />
<glyph unicode="&#xe6;" horiz-adv-x="1731" d="M99 282q0 140 57 210q34 43 124.5 78.5t253.5 42.5q40 2 97 2t87.5 2.5t59.5 9.5q0 97 -7.5 151t-17 70t-25.5 24l-10 6q-10 5 -17 7.5t-23.5 7.5t-33.5 8t-44.5 5.5t-58.5 2.5q-80 0 -132.5 -7.5t-64.5 -15.5l-13 -8q-2 -1 -5.5 -3.5t-13.5 -13t-18.5 -23.5t-17.5 -36.5 t-14 -51.5l-128 48q11 60 32 98.5t46 57.5t67 38q93 43 260 43q83 0 147.5 -14t101 -36.5t56.5 -44.5t27 -44l1 1q42 54 126 95.5t220 41.5q237 0 328 -136q76 -105 77 -307q0 -6 -1 -53.5t-1 -57.5h-687q0 -83 12.5 -149.5t30.5 -102.5t36.5 -60t30.5 -32l13 -7 q5 -4 15.5 -9t54 -14t99.5 -9q125 0 189 46q27 18 44 56t30 108l124 -34q-9 -59 -25.5 -101.5t-24.5 -53.5t-23 -28q-94 -115 -318 -115q-127 0 -225 40.5t-139 131.5q-52 -80 -156 -126t-252 -46q-118 0 -190.5 30.5t-102.5 67.5q-58 74 -58 209zM256 285q0 -89 23 -126 q7 -12 17.5 -20.5t32 -18.5t62 -15.5t96.5 -5.5q134 0 212.5 57t78.5 139v220q-14 -4 -28 -7t-36.5 -4.5t-40 -2.5t-57.5 -2.5t-71 -3.5q-208 -14 -260 -77q-29 -33 -29 -133zM936 594h453l79 -6q-12 227 -81 275q-65 48 -173 48q-152 0 -209 -65q-62 -67 -69 -252z" />
<glyph unicode="&#xe7;" horiz-adv-x="1071" d="M112 509q0 284 106 402q19 21 46.5 40t71 39.5t106.5 32.5t137 12q56 0 104.5 -7.5t81 -17.5t60 -24.5t42 -25.5t25.5 -22q64 -64 79 -199l-126 -35q-18 106 -47 142q-57 64 -223 64q-189 0 -248 -79q-12 -15 -20.5 -34t-18.5 -54.5t-15 -95.5t-5 -140q0 -109 11 -182 t22.5 -100.5t29.5 -49.5q61 -78 249 -78q166 0 227 65q31 33 49 142l121 -35q-6 -57 -20.5 -99.5t-27.5 -61t-31 -35.5q-15 -15 -36.5 -28.5t-59.5 -30.5t-96 -27t-128 -10h-16l-29 -97q180 0 180 -116q0 -69 -46.5 -113t-122.5 -44q-53 0 -91 10.5t-55 22t-40 33.5l30 59 q52 -42 138 -42q45 0 61.5 16.5t16.5 46.5q0 34 -16 48.5t-49 14.5h-52l-50 61l30 108q-93 13 -155.5 46t-94.5 69q-105 117 -105 409z" />
<glyph unicode="&#xe8;" horiz-adv-x="1096" d="M110 505q0 93 11 167t31 122t35.5 73.5t36.5 49.5q41 47 122.5 82t213.5 35q256 0 352 -136q76 -105 77 -307q0 -6 -1 -53.5t-1 -57.5h-721q0 -83 12.5 -149.5t31 -102.5t36.5 -60t30 -32l13 -7q5 -4 16 -9t57 -14t106 -9q142 0 213 46q27 18 44 56t30 108l124 -34 q-9 -59 -25.5 -101.5t-24.5 -53.5t-23 -28q-40 -46 -123.5 -79.5t-218.5 -33.5q-244 0 -342 112q-112 128 -112 416zM268 594h487l79 -6q-12 227 -81 275q-70 48 -197 48q-159 0 -219 -65q-62 -67 -69 -252zM340 1516l175 74l240 -378l-93 -32z" />
<glyph unicode="&#xe9;" horiz-adv-x="1096" d="M110 505q0 93 11 167t31 122t35.5 73.5t36.5 49.5q41 47 122.5 82t213.5 35q256 0 352 -136q76 -105 77 -307q0 -6 -1 -53.5t-1 -57.5h-721q0 -83 12.5 -149.5t31 -102.5t36.5 -60t30 -32l13 -7q5 -4 16 -9t57 -14t106 -9q142 0 213 46q27 18 44 56t30 108l124 -34 q-9 -59 -25.5 -101.5t-24.5 -53.5t-23 -28q-40 -46 -123.5 -79.5t-218.5 -33.5q-244 0 -342 112q-112 128 -112 416zM268 594h487l79 -6q-12 227 -81 275q-70 48 -197 48q-159 0 -219 -65q-62 -67 -69 -252zM341 1212l239 378l173 -74l-318 -336z" />
<glyph unicode="&#xea;" horiz-adv-x="1096" d="M110 505q0 93 11 167t31 122t35.5 73.5t36.5 49.5q41 47 122.5 82t213.5 35q256 0 352 -136q76 -105 77 -307q0 -6 -1 -53.5t-1 -57.5h-721q0 -83 12.5 -149.5t31 -102.5t36.5 -60t30 -32l13 -7q5 -4 16 -9t57 -14t106 -9q142 0 213 46q27 18 44 56t30 108l124 -34 q-9 -59 -25.5 -101.5t-24.5 -53.5t-23 -28q-40 -46 -123.5 -79.5t-218.5 -33.5q-244 0 -342 112q-112 128 -112 416zM268 594h487l79 -6q-12 227 -81 275q-70 48 -197 48q-159 0 -219 -65q-62 -67 -69 -252zM297 1135l178 337h144l179 -337h-145l-103 277l-108 -277h-145z " />
<glyph unicode="&#xeb;" horiz-adv-x="1096" d="M110 505q0 93 11 167t31 122t35.5 73.5t36.5 49.5q41 47 122.5 82t213.5 35q256 0 352 -136q76 -105 77 -307q0 -6 -1 -53.5t-1 -57.5h-721q0 -83 12.5 -149.5t31 -102.5t36.5 -60t30 -32l13 -7q5 -4 16 -9t57 -14t106 -9q142 0 213 46q27 18 44 56t30 108l124 -34 q-9 -59 -25.5 -101.5t-24.5 -53.5t-23 -28q-40 -46 -123.5 -79.5t-218.5 -33.5q-244 0 -342 112q-112 128 -112 416zM245 1341q0 51 20 75t72 24q57 0 75.5 -23t18.5 -76q0 -51 -19.5 -73t-74.5 -22q-50 0 -71 23t-21 72zM268 594h487l79 -6q-12 227 -81 275q-70 48 -197 48 q-159 0 -219 -65q-62 -67 -69 -252zM663 1341q0 51 20 75t72 24q57 0 75.5 -23t18.5 -76q0 -51 -19.5 -73t-74.5 -22q-50 0 -71 23t-21 72z" />
<glyph unicode="&#xec;" horiz-adv-x="470" d="M28 1516l175 74l240 -378l-93 -32zM158 0v1011h154v-1011h-154z" />
<glyph unicode="&#xed;" horiz-adv-x="470" d="M29 1212l239 378l173 -74l-318 -336zM158 0v1011h154v-1011h-154z" />
<glyph unicode="&#xee;" horiz-adv-x="470" d="M-15 1135l178 337h144l179 -337h-145l-103 277l-108 -277h-145zM158 0v1011h154v-1011h-154z" />
<glyph unicode="&#xef;" horiz-adv-x="470" d="M-65 1147q0 51 20 75t72 24q57 0 75.5 -23t18.5 -76q0 -51 -19.5 -73t-74.5 -22q-50 0 -71 23t-21 72zM158 0v1011h154v-1011h-154zM353 1147q0 51 20 75t72 24q57 0 75.5 -23t18.5 -76q0 -51 -19.5 -73t-74.5 -22q-50 0 -71 23t-21 72z" />
<glyph unicode="&#xf0;" horiz-adv-x="1119" d="M87 428q0 74 15 140t36.5 106.5t43 70t36.5 41.5l15 13q3 3 9.5 7.5t30 16.5t51 21.5t73 17t96.5 7.5q94 0 181 -37t152 -111q-1 229 -72 358l-112 -82l-63 91l98 76q-76 50 -176 50q-49 0 -95.5 -10.5t-78 -25t-56 -29t-35.5 -25.5l-12 -10l-70 112q2 1 34 21.5t41.5 26 t41 22.5t52 23.5t52 17t64.5 14t68 3.5q166 0 292 -96l114 88l71 -100l-106 -77q119 -203 119 -570q0 -115 -17 -213t-41.5 -155.5t-49.5 -98t-42 -56.5l-17 -15q-4 -4 -12 -10t-35.5 -22t-58.5 -28.5t-82 -22.5t-106 -10q-66 0 -125.5 13t-96.5 32t-64.5 37.5t-39.5 31.5 l-12 13q-5 5 -12 15t-26.5 42.5t-34 69t-26.5 92.5t-12 114zM251 427q0 -84 12 -142.5t24 -74.5l12 -17q2 -4 7.5 -10t25 -22.5t44 -29t67 -22.5t91.5 -10q63 0 112.5 15.5t67.5 31.5l18 15q4 3 10 9.5t22 33.5t28.5 63t22.5 101t10 143q-36 103 -122 165t-189 62 q-56 0 -104 -15.5t-68 -30.5l-19 -16q-3 -2 -8 -7t-17 -25t-21.5 -45.5t-17.5 -71.5t-8 -100z" />
<glyph unicode="&#xf1;" horiz-adv-x="1160" d="M158 0v1011h127l12 -148q120 171 359 171q66 0 121 -13t86 -31.5t52.5 -37t28.5 -31.5l8 -13q2 -3 6 -9.5t14.5 -32.5t18 -59t14 -92t6.5 -128v-587h-154v617q0 73 -9.5 124t-15.5 63t-17 30q-45 74 -208 74q-197 0 -251 -85q-44 -67 -44 -278v-545h-154zM307 1257 q0 99 47 141.5t118 42.5q44 0 126.5 -42.5t93.5 -42.5q27 0 39 21t14 63h112q-1 -98 -44.5 -141.5t-113.5 -43.5q-58 0 -123 40q-70 43 -90 47q-6 1 -12 1q-54 0 -54 -86h-113z" />
<glyph unicode="&#xf2;" horiz-adv-x="1153" d="M109 506q0 289 105 406q43 47 132.5 84.5t227.5 37.5q139 0 229.5 -37.5t133.5 -83.5q106 -116 106 -404q0 -294 -106 -412q-41 -46 -132 -83t-231 -37q-139 0 -228.5 37t-130.5 84q-106 121 -106 408zM266 502q0 -251 60 -324q62 -76 254 -76q187 0 247 78q59 77 59 324 q0 255 -63 332q-62 73 -249 73q-190 0 -249 -77t-59 -330zM368 1516l175 74l240 -378l-93 -32z" />
<glyph unicode="&#xf3;" horiz-adv-x="1153" d="M109 506q0 289 105 406q43 47 132.5 84.5t227.5 37.5q139 0 229.5 -37.5t133.5 -83.5q106 -116 106 -404q0 -294 -106 -412q-41 -46 -132 -83t-231 -37q-139 0 -228.5 37t-130.5 84q-106 121 -106 408zM266 502q0 -251 60 -324q62 -76 254 -76q187 0 247 78q59 77 59 324 q0 255 -63 332q-62 73 -249 73q-190 0 -249 -77t-59 -330zM370 1212l239 378l173 -74l-318 -336z" />
<glyph unicode="&#xf4;" horiz-adv-x="1153" d="M109 506q0 289 105 406q43 47 132.5 84.5t227.5 37.5q139 0 229.5 -37.5t133.5 -83.5q106 -116 106 -404q0 -294 -106 -412q-41 -46 -132 -83t-231 -37q-139 0 -228.5 37t-130.5 84q-106 121 -106 408zM266 502q0 -251 60 -324q62 -76 254 -76q187 0 247 78q59 77 59 324 q0 255 -63 332q-62 73 -249 73q-190 0 -249 -77t-59 -330zM325 1135l178 337h144l179 -337h-145l-103 277l-108 -277h-145z" />
<glyph unicode="&#xf5;" horiz-adv-x="1153" d="M109 506q0 289 105 406q43 47 132.5 84.5t227.5 37.5q139 0 229.5 -37.5t133.5 -83.5q106 -116 106 -404q0 -294 -106 -412q-41 -46 -132 -83t-231 -37q-139 0 -228.5 37t-130.5 84q-106 121 -106 408zM266 502q0 -251 60 -324q62 -76 254 -76q187 0 247 78q59 77 59 324 q0 255 -63 332q-62 73 -249 73q-190 0 -249 -77t-59 -330zM301 1257q0 99 47 141.5t118 42.5q44 0 126.5 -42.5t93.5 -42.5q27 0 39 21t14 63h112q-1 -98 -44.5 -141.5t-113.5 -43.5q-58 0 -123 40q-70 43 -90 47q-6 1 -12 1q-54 0 -54 -86h-113z" />
<glyph unicode="&#xf6;" horiz-adv-x="1153" d="M109 506q0 289 105 406q43 47 132.5 84.5t227.5 37.5q139 0 229.5 -37.5t133.5 -83.5q106 -116 106 -404q0 -294 -106 -412q-41 -46 -132 -83t-231 -37q-139 0 -228.5 37t-130.5 84q-106 121 -106 408zM266 502q0 -251 60 -324q62 -76 254 -76q187 0 247 78q59 77 59 324 q0 255 -63 332q-62 73 -249 73q-190 0 -249 -77t-59 -330zM274 1341q0 51 20 75t72 24q57 0 75.5 -23t18.5 -76q0 -51 -19.5 -73t-74.5 -22q-50 0 -71 23t-21 72zM692 1341q0 51 20 75t72 24q57 0 75.5 -23t18.5 -76q0 -51 -19.5 -73t-74.5 -22q-50 0 -71 23t-21 72z" />
<glyph unicode="&#xf7;" horiz-adv-x="1006" d="M127 573v109h753v-109h-753zM400 283v221h211v-221h-211zM400 752v221h211v-221h-211z" />
<glyph unicode="&#xf8;" horiz-adv-x="1153" d="M109 506q0 289 105 406q43 47 132.5 84.5t227.5 37.5q36 0 68 -3l32 141l115 -17l-33 -144q120 -33 181 -98q106 -116 106 -404q0 -294 -106 -412q-42 -47 -132.5 -84.5t-230.5 -37.5q-19 0 -51 2l-28 -127l-113 18l28 125q-132 32 -195 105q-106 121 -106 408zM266 502 q0 -251 60 -324q34 -42 111 -61l178 791q-6 0 -20 0.5t-21 0.5q-190 0 -249 -77t-59 -330zM552 102h28q187 0 247 78q59 77 59 324q0 255 -63 332q-33 37 -94 54z" />
<glyph unicode="&#xf9;" horiz-adv-x="1157" d="M149 376v635h154v-608q0 -160 38 -223q36 -78 206 -78q172 0 237 70q62 64 62 250v589h153v-1011h-128l-13 146q-107 -169 -353 -169q-199 0 -285 89q-71 73 -71 310zM368 1516l175 74l240 -378l-93 -32z" />
<glyph unicode="&#xfa;" horiz-adv-x="1157" d="M149 376v635h154v-608q0 -160 38 -223q36 -78 206 -78q172 0 237 70q62 64 62 250v589h153v-1011h-128l-13 146q-107 -169 -353 -169q-199 0 -285 89q-71 73 -71 310zM369 1212l239 378l173 -74l-318 -336z" />
<glyph unicode="&#xfb;" horiz-adv-x="1157" d="M149 376v635h154v-608q0 -160 38 -223q36 -78 206 -78q172 0 237 70q62 64 62 250v589h153v-1011h-128l-13 146q-107 -169 -353 -169q-199 0 -285 89q-71 73 -71 310zM325 1135l178 337h144l179 -337h-145l-103 277l-108 -277h-145z" />
<glyph unicode="&#xfc;" horiz-adv-x="1157" d="M149 376v635h154v-608q0 -160 38 -223q36 -78 206 -78q172 0 237 70q62 64 62 250v589h153v-1011h-128l-13 146q-107 -169 -353 -169q-199 0 -285 89q-71 73 -71 310zM273 1341q0 51 20 75t72 24q57 0 75.5 -23t18.5 -76q0 -51 -19.5 -73t-74.5 -22q-50 0 -71 23t-21 72z M691 1341q0 51 20 75t72 24q57 0 75.5 -23t18.5 -76q0 -51 -19.5 -73t-74.5 -22q-50 0 -71 23t-21 72z" />
<glyph unicode="&#xfd;" horiz-adv-x="1158" d="M150 376v635h154v-608q0 -160 38 -223q36 -78 206 -78q172 0 237 70q62 64 62 250v589h153v-949q0 -258 -107 -362q-105 -102 -336 -102q-85 0 -157 15t-101.5 28t-49.5 27q-29 19 -56.5 63t-35.5 119l87 47q23 -51 45.5 -84t33.5 -41l11 -7q2 -2 5.5 -5t20.5 -10.5 t39 -13t64 -10.5t93 -5q95 0 155 22t82 50q53 70 53 263v72q-98 -151 -340 -151q-199 0 -285 89q-71 73 -71 310zM343 1212l239 378l173 -74l-318 -336z" />
<glyph unicode="&#xfe;" horiz-adv-x="1162" d="M158 -301v1742h154v-567q22 32 44 54.5t60.5 48.5t96.5 40t133 14q202 0 303 -101q98 -100 98 -424q0 -118 -13.5 -204t-25.5 -116.5t-31 -62.5q-33 -58 -114.5 -102t-217.5 -44q-66 0 -120.5 12.5t-86.5 27.5t-60 40t-38.5 39t-23.5 35q-3 4 -4 6v-438h-154zM311 512 q0 -143 16.5 -226t35.5 -107q61 -79 245 -79q175 0 226 76q57 82 57 322q0 248 -55 336q-48 74 -227 74q-180 -1 -236 -75q-62 -81 -62 -321z" />
<glyph unicode="&#xff;" horiz-adv-x="1158" d="M150 376v635h154v-608q0 -160 38 -223q36 -78 206 -78q172 0 237 70q62 64 62 250v589h153v-949q0 -258 -107 -362q-105 -102 -336 -102q-85 0 -157 15t-101.5 28t-49.5 27q-29 19 -56.5 63t-35.5 119l87 47q23 -51 45.5 -84t33.5 -41l11 -7q2 -2 5.5 -5t20.5 -10.5 t39 -13t64 -10.5t93 -5q95 0 155 22t82 50q53 70 53 263v72q-98 -151 -340 -151q-199 0 -285 89q-71 73 -71 310zM310 1341q0 51 20 75t72 24q57 0 75.5 -23t18.5 -76q0 -51 -19.5 -73t-74.5 -22q-50 0 -71 23t-21 72zM728 1341q0 51 20 75t72 24q57 0 75.5 -23t18.5 -76 q0 -51 -19.5 -73t-74.5 -22q-50 0 -71 23t-21 72z" />
<glyph unicode="&#x152;" horiz-adv-x="2050" d="M121 720q0 404 154 576q161 176 501 176q56 0 132 -8t124 -16l49 -7h858l-24 -138h-667v-481h614v-136h-614v-545h669l24 -140h-854q-186 -42 -319 -42q-301 0 -474 158q-173 157 -173 603zM301 724q0 -376 116 -506q104 -111 388 -111q47 0 115.5 7.5t113.5 15.5l45 8 v1158q-174 27 -265 27q-160 0 -258.5 -32.5t-138.5 -76.5q-116 -133 -116 -490z" />
<glyph unicode="&#x153;" horiz-adv-x="1841" d="M109 499q0 293 104 417q41 48 129.5 86t226.5 38q96 0 175 -21.5t112.5 -42t57.5 -43.5q21 -21 39 -48q25 39 56 64q105 91 304 91q70 0 125.5 -10t92.5 -28t54.5 -30t37.5 -29q45 -39 78 -127t33 -222q0 -84 -3 -114h-702q2 -142 24.5 -220.5t50.5 -102.5 q66 -57 215 -57q124 0 197 38q54 28 82 182l124 -46q-23 -152 -85 -207q-110 -98 -326 -98q-221 0 -319 107q-15 15 -41 52q-18 -28 -43 -51q-111 -108 -334 -108q-137 0 -227 38t-132 85q-106 119 -106 407zM270 505q0 -244 62 -327q59 -77 239 -77q183 0 239 78 q57 82 57 316q0 257 -58 338q-57 77 -238 77q-183 0 -239 -78q-62 -86 -62 -327zM1033 595h469l76 -6q-9 202 -58 260q-59 67 -213 67q-136 0 -201 -53q-68 -56 -73 -268z" />
<glyph unicode="&#x178;" horiz-adv-x="1142" d="M-4 1441h186q40 -75 119 -217t139 -247l59 -105l73 -132l72 132q228 401 320 569h188q-64 -116 -187.5 -326t-215.5 -361l-92 -152v-602h-174v599q-348 580 -487 842zM268 1771q0 51 20 75t72 24q57 0 75.5 -23t18.5 -76q0 -51 -19.5 -73t-74.5 -22q-50 0 -71 23t-21 72z M686 1771q0 51 20 75t72 24q57 0 75.5 -23t18.5 -76q0 -51 -19.5 -73t-74.5 -22q-50 0 -71 23t-21 72z" />
<glyph unicode="&#x2c6;" horiz-adv-x="705" d="M76 1135l178 337h144l179 -337h-145l-103 277l-108 -277h-145z" />
<glyph unicode="&#x2dc;" horiz-adv-x="1017" d="M167 1257q0 99 47 141.5t118 42.5q44 0 126.5 -42.5t93.5 -42.5q27 0 39 21t14 63h112q-1 -98 -44.5 -141.5t-113.5 -43.5q-58 0 -123 40q-70 43 -90 47q-6 1 -12 1q-54 0 -54 -86h-113z" />
<glyph unicode="&#x2000;" horiz-adv-x="1010" />
<glyph unicode="&#x2001;" horiz-adv-x="2020" />
<glyph unicode="&#x2002;" horiz-adv-x="1010" />
<glyph unicode="&#x2003;" horiz-adv-x="2020" />
<glyph unicode="&#x2004;" horiz-adv-x="673" />
<glyph unicode="&#x2005;" horiz-adv-x="505" />
<glyph unicode="&#x2006;" horiz-adv-x="336" />
<glyph unicode="&#x2007;" horiz-adv-x="336" />
<glyph unicode="&#x2008;" horiz-adv-x="252" />
<glyph unicode="&#x2009;" horiz-adv-x="404" />
<glyph unicode="&#x200a;" horiz-adv-x="112" />
<glyph unicode="&#x2010;" horiz-adv-x="841" d="M141 474v131h559v-131h-559z" />
<glyph unicode="&#x2011;" horiz-adv-x="841" d="M141 474v131h559v-131h-559z" />
<glyph unicode="&#x2012;" horiz-adv-x="841" d="M141 474v131h559v-131h-559z" />
<glyph unicode="&#x2013;" horiz-adv-x="974" d="M123 575v109h729v-109h-729z" />
<glyph unicode="&#x2014;" horiz-adv-x="1160" d="M123 575v109h914v-109h-914z" />
<glyph unicode="&#x2018;" horiz-adv-x="440" d="M127 1183q0 93 36 158t81 98l50 -53q-4 -7 -18.5 -25t-22.5 -31t-16 -40t-9 -60h82v-197h-175z" />
<glyph unicode="&#x2019;" horiz-adv-x="414" d="M121 1243v197h175l8 -150q0 -93 -36 -158t-81 -98l-50 53q4 7 18.5 25t22.5 31t16 40t9 60h-82z" />
<glyph unicode="&#x201a;" horiz-adv-x="467" d="M138 -164q1 1 11.5 13t14 16.5t13.5 17.5t14 20.5t11.5 21t11 24t6.5 24t3 26.5h-79v196h180v-191q0 -43 -16 -83t-41 -69t-45.5 -46.5t-40.5 -30.5z" />
<glyph unicode="&#x201c;" horiz-adv-x="746" d="M126 1181q0 94 36.5 160t80.5 98l52 -52q-4 -7 -19 -25.5t-23 -31t-16 -39.5t-8 -60h82v-195h-177zM432 1184q0 156 120 255l50 -51q-3 -5 -16.5 -23t-22 -32t-16.5 -42t-9 -61h78v-194h-176z" />
<glyph unicode="&#x201d;" horiz-adv-x="723" d="M122 1246v194h176l8 -148q0 -156 -120 -255l-50 51q3 5 16.5 23t22 32t16.5 42t9 61h-78zM427 1245v195h177l8 -145q0 -94 -36.5 -160t-80.5 -98l-52 52q4 7 19 25.5t23 31t16 39.5t8 60h-82z" />
<glyph unicode="&#x201e;" horiz-adv-x="745" d="M138 -164q1 1 11.5 13t14 16.5t13.5 17.5t14 20.5t11.5 21t11 24t6.5 24t3 26.5h-79v196h180v-191q0 -43 -16 -83t-41 -69t-45.5 -46.5t-40.5 -30.5zM416 -164q1 1 11.5 13t14 16.5t13.5 17.5t14 20.5t11.5 21t11 24t6.5 24t3 26.5h-79v196h180v-191q0 -43 -16 -83 t-41 -69t-45.5 -46.5t-40.5 -30.5z" />
<glyph unicode="&#x2022;" horiz-adv-x="855" d="M103 616q0 122 95 214t225 92q136 0 232.5 -93t96.5 -221t-94.5 -217t-225.5 -89q-137 0 -233 93t-96 221z" />
<glyph unicode="&#x2026;" horiz-adv-x="1790" d="M141 0v221h211v-221h-211zM789 0v221h211v-221h-211zM1437 0v221h211v-221h-211z" />
<glyph unicode="&#x202f;" horiz-adv-x="404" />
<glyph unicode="&#x2039;" horiz-adv-x="642" d="M80 609v106l318 391l141 -68l-298 -376l298 -376l-141 -68z" />
<glyph unicode="&#x203a;" horiz-adv-x="642" d="M102 286l298 376l-298 376l141 68l318 -391v-106l-318 -391z" />
<glyph unicode="&#x205f;" horiz-adv-x="505" />
<glyph unicode="&#x20ac;" horiz-adv-x="1425" d="M85 515v111h89q-2 24 -2 73q0 46 1 68h-88v109h96q32 270 153 413q25 31 63.5 60t94.5 58t136 47t170 18q84 0 157.5 -13t121.5 -33t76 -36t43 -30q86 -73 118 -205l-136 -55q-18 65 -49.5 108.5t-65.5 60.5q-106 53 -262 53q-208 0 -319 -111q-96 -90 -122 -335h458 v-109h-466v-53q0 -61 2 -88h464v-111h-454q26 -200 98 -281q43 -53 131 -88.5t204 -35.5q111 0 185.5 22.5t108.5 47.5q65 46 98 156l130 -59q-39 -151 -139 -222q-18 -12 -42.5 -24t-72 -30t-118 -29t-150.5 -11q-89 0 -167.5 16.5t-133 43t-88.5 50t-58 47.5 q-57 55 -101.5 158t-63.5 239h-100z" />
<glyph unicode="&#x2122;" horiz-adv-x="1271" d="M131 1327v68h402v-68h-164v-553h-74v553h-164zM596 774v621h70l184 -504l180 504h72v-621h-76v397l-137 -387h-80l-137 387v-397h-76z" />
<glyph unicode="&#xe000;" horiz-adv-x="1025" d="M0 0v1025h1025v-1025h-1025z" />
<glyph unicode="&#xfb01;" horiz-adv-x="1113" d="M66 899v112h192v124q0 206 49 255q73 68 212 68q43 0 77 -8t46 -16l12 -8q5 -3 13.5 -10t27 -31.5t27.5 -53.5l-82 -70q-11 19 -23.5 34t-20.5 20l-7 5q-23 12 -68 12q-37 0 -60 -8t-27 -16l-5 -7q-2 0 -5 -5t-8 -49.5t-5 -124.5v-111h544v-1011h-154v899h-390v-899h-153 v899h-192zM785 1271q0 51 20 75t72 24q57 0 75.5 -23t18.5 -76q0 -49 -19 -67.5t-75 -18.5q-51 0 -71.5 19t-20.5 67z" />
<glyph unicode="&#xfb02;" horiz-adv-x="1283" d="M66 899v112h192v124q0 200 55 255q73 68 206 68q43 0 77 -8t46 -16l12 -8q5 -3 13.5 -10t27 -31.5t27.5 -53.5l-82 -70q-11 19 -23.5 34t-20.5 20l-7 5q-23 12 -68 12q-37 0 -60 -8t-27 -16l-5 -7q-2 0 -5 -5t-8 -49.5t-5 -124.5v-111h219v-112h-219v-899h-153v899h-192z M964 0v1441h153v-1441h-153z" />
</font>
</defs>
</svg>
