<?xml version="1.0" standalone="no"?>
<!DOCTYPE svg PUBLIC "-//W3C//DTD SVG 1.1//EN" "http://www.w3.org/Graphics/SVG/1.1/DTD/svg11.dtd" >
<svg xmlns="http://www.w3.org/2000/svg">
<metadata></metadata>
<defs>
<font id="trade_windsregular" horiz-adv-x="1790" >
<font-face units-per-em="2048" ascent="1638" descent="-410" />
<missing-glyph horiz-adv-x="634" />
<glyph horiz-adv-x="2048" />
<glyph horiz-adv-x="2048" />
<glyph unicode="&#xd;" horiz-adv-x="2048" />
<glyph unicode=" "  horiz-adv-x="634" />
<glyph unicode="&#x09;" horiz-adv-x="634" />
<glyph unicode="&#xa0;" horiz-adv-x="634" />
<glyph unicode="!" horiz-adv-x="614" d="M-11 67q-1 13 3 23q2 6 7 11t7 13q2 12 -1 28t1 30q2 6 9 15t15 20t16 20t14 13q16 14 35 23t39 19q32 2 64 -8t58 -28t42 -43t16 -57q0 -14 -5 -34t-13 -40t-17 -38t-17 -26q-6 -8 -25 -21t-31 -15q-28 -8 -63 -7t-67 10t-55 26t-29 43q-2 10 -3 23zM134 402 q-12 26 2 59t22 63q4 14 2 31t2 27q4 24 14 42t10 46q-2 24 -10 43t-18 45q6 60 29 116t33 112q2 6 1 13t1 13q4 10 10 20t8 20q2 12 -1 24t-3 22q4 20 13 39t17 41q8 20 13 46t13 50q8 22 16 46t12 46q4 28 6 50t18 44q22 12 41 31t35 37q40 6 77 -2t69 -16q10 -16 12 -37 t6 -41q8 -30 26 -52t12 -62q-4 -34 -27 -68t-29 -72q-4 -30 0 -58t0 -56q-2 -22 -18 -46t-30 -50q-26 -50 -41 -98t-33 -106q-10 -28 -18 -58t-8 -54q0 -14 4 -25t2 -21q-2 -12 -14 -26t-22 -30q-14 -12 -23 -26t-19 -24q-24 -34 -35 -63t-31 -51q-8 -12 -28 -25t-30 -13 q-8 0 -22 6t-28 15t-25 18t-13 15z" />
<glyph unicode="&#x22;" horiz-adv-x="536" d="M134 996q0 40 15 87t25 91q6 32 10 63t14 61q10 28 19 59t20 59t25 50t32 34q28 16 57 7t53 -27q14 -50 -3 -102t-29 -90q-24 -86 -44 -185t-52 -169q-12 -26 -34 -55t-48 -25q-12 2 -22 16t-19 35t-14 45t-5 46zM416 1016q2 30 14 63t22 69q10 40 18 90t17 99t23 89 t36 62q12 12 28 14t32 0t32 -6t32 -4q4 -10 10 -22t10 -22q0 -40 -7 -71t-18 -59t-24 -55t-25 -59q-22 -64 -33 -131t-35 -121q-4 -10 -12 -25t-19 -29t-23 -23t-22 -9q-12 0 -24 15t-19 37t-11 48t-2 50z" />
<glyph unicode="#" horiz-adv-x="1308" d="M-10 336q0 8 3 17t6 19t3 20q0 8 -5 15t-5 15q0 24 15 49t23 45q30 4 66 1t60 11q30 -8 53 -7t43 21q2 28 11 65t21 74t23 72t19 61q6 22 17 45t-11 45q-40 -8 -61 -1t-59 5q-28 -2 -54 -7t-48 17q0 22 2 47t7 49t16 43t31 27q28 -10 54 -3t58 9q24 2 42 -5t32 -11t27 -2 t27 22q12 16 8 33t6 39q8 18 15 19t17 17q2 12 -7 19t-11 21q-2 22 11 48t21 54q10 30 14 58t18 44q18 10 41 9t41 3q12 2 24 8l24 12t24 9t24 -3q12 -44 -4 -91t-36 -99q-12 -34 -16 -57t-14 -51q-6 -20 -15 -45t1 -43q4 -4 13 -8t19 -6q36 -4 54 1t54 3q24 -2 50 -7t50 -7 t45 3t35 27q4 16 7 26t6 19l6 18t7 25q4 10 5 19t5 19q4 14 14 24t14 20q20 38 26 78t24 80q44 12 97 15t85 -9q6 -34 -12 -60t-28 -48q-6 -14 -8 -27t-6 -29q-4 -10 -10 -21t-10 -25q-4 -12 -5 -24t-5 -24q-10 -30 -18 -42t-4 -44q26 -10 55 -7t57 6t54 2t48 -19 q6 -28 -7 -47t-23 -35q-16 -28 -30 -55t-46 -37q-24 -8 -45 -9t-41 1t-40 2t-40 -8q-12 -4 -22 -21t-18 -39t-14 -45t-10 -37q-4 -20 -4 -34t2 -32q-8 -12 -21 -34t-21 -32q2 -10 5 -20t7 -20q28 0 50 1t43 2t43 0t52 -3q4 -8 10 -13t12 -13q-4 -24 -13 -54t-22 -55t-31 -44 t-38 -23q-12 -2 -21 -2t-17 2t-18 3t-26 1q-20 -2 -41 -7t-47 -5q-16 -40 -26 -84t-19 -90t-21 -91t-32 -83q-14 -12 -34 -24t-43 -18t-46 -5t-41 17q-8 24 -12 46t4 50q4 16 15 28t15 28t2 34t0 34q8 40 19 70t21 66q-40 0 -76 2t-72 3t-73 -1t-77 -10q-16 -36 -27 -66 t-25 -68q-20 -50 -29 -103t-41 -91q-26 4 -46 0t-38 -8t-34 -4t-34 12q-14 10 -16 28t-8 36q20 48 34 91t34 91q6 16 16 28t6 34q-24 6 -46 5t-43 -2t-44 -2t-49 3q-8 8 -8 16zM442 544q20 -10 33 -11t39 1q20 0 52 -1t65 0t60 4t39 11q8 6 19 29t15 33q10 28 20 70t20 72 q12 28 26 64t16 64q-10 16 -29 13t-35 -1q-28 2 -52 4t-48 3t-51 0t-61 -5q-4 -8 -13 -9t-13 -7q-16 -28 -30 -72t-26 -91t-23 -93t-23 -78z" />
<glyph unicode="$" horiz-adv-x="958" d="M0 408q-4 40 16 82q6 10 16 25t23 29t28 25t27 15q16 4 45 6t45 2q28 -2 49 -21t15 -39q-10 -24 -29 -37t-29 -47q-4 -22 14 -34t28 -34q6 -10 9 -27t11 -21q20 -10 38 0t34 16q76 -22 127 -5t93 61q12 50 -4 84q-10 18 -25 39t-31 35q-26 14 -54 23t-30 41 q-18 -6 -35 -2t-33 13t-30 20t-26 19q-10 8 -18 15t-18 15q-14 10 -22 17t-15 15t-13 18t-16 24q-8 14 -27 27t-23 27q-22 52 -13 99t25 105q2 8 1 15t3 15t13 14t17 14t12 18t2 26q34 26 64 58t70 54q16 10 46 15t54 11q30 6 57 14t73 4q14 18 21 41t17 44t27 36t49 15 q20 -8 22 -38q14 -12 28 -22t14 -30q0 -14 -14 -29t-10 -27q2 -8 13 -15t26 -14t29 -13t22 -10q46 -26 77 -72t41 -104q6 -32 -2 -62t-25 -56t-42 -46t-51 -28q-10 -4 -23 -5t-23 -5q-28 -8 -63 -14t-55 14q-10 8 -18 21t-12 28t-4 27t8 16q10 4 26 13t30 15q18 8 26 16 t10 20t4 27t8 37q-6 10 -23 8t-27 2t-12 13t-12 17q-8 6 -16 8t-16 6q-32 14 -65 11t-63 -16t-53 -36t-35 -49q-4 -10 -13 -41t-7 -47t19 -33t31 -33q24 -26 31 -44t37 -40q10 -6 24 -16t22 -14q26 -12 48 -20t44 -24q6 -4 10 -9t10 -9q34 -22 62 -52t68 -48q10 -28 15 -62 t23 -56q-10 -72 -28 -130t-62 -98q-30 -26 -78 -50t-94 -40q-48 -14 -108 -14q-10 -8 -17 -24t-16 -32t-19 -31t-22 -21t-27 -5t-31 -3q-22 -6 -43 -10t-33 18q-6 12 -4 30t7 37t8 38t-1 33h-24t-22 2q-32 8 -67 28t-65 50t-52 65t-24 73z" />
<glyph unicode="%" horiz-adv-x="1282" d="M-20 52q4 16 17 32t25 30q34 38 61 73t57 71q26 8 46 27t37 42t34 48t37 43q2 8 2 13t6 15q70 76 145 162t145 176q20 26 50 56q24 30 43 52t55 34q4 14 1 24t-1 22q84 90 169 175t161 187q-38 0 -80 -9t-84 -16t-80 -7t-66 18q-12 -70 -35 -141t-63 -125 q-18 -22 -34 -35t-34 -31q-10 -14 -19 -27t-19 -25q-24 -26 -58 -54t-73 -50t-81 -34t-86 -6q-52 10 -82 37t-50 61q-10 20 -12 53t3 71t19 77t38 73q10 12 24 24t24 26q8 10 12 20t12 20q14 16 32 30t36 30q18 20 34 37t30 27q16 10 37 18t43 24q28 16 48 34t44 26 q24 6 60 10t58 -2q30 -8 51 -30t55 -34q52 -22 120 -15t134 23q40 8 76 12t64 14q26 10 48 28t50 30q8 8 31 6t31 -6t18 -22t8 -30q-2 -18 -13 -39t-1 -39q-22 -14 -34 -35t-28 -39q-14 -16 -35 -29t-39 -29q-8 -6 -14 -15t-14 -15q-6 -8 -14 -14l-16 -12q-32 -34 -56 -74 t-58 -70q-20 -16 -48 -29t-48 -35q-10 -12 -18 -25t-18 -29q-20 -24 -42 -48t-36 -44q-10 -14 -16 -29t-16 -27q-22 -30 -50 -60t-54 -56q-10 -12 -23 -27t-29 -31q-22 -24 -40 -40t-22 -52q-40 -40 -86 -90t-84 -100q-32 -32 -58 -64q-8 -10 -14 -22t-14 -22 q-34 -46 -74 -86t-70 -80q-16 -20 -31 -44t-33 -32q-16 -6 -46 -3t-46 9q-16 8 -27 30t-9 34zM301 993q-1 -25 15 -37q14 -10 33 -11t39 5t39 17t31 21q34 26 62 65t42 81q26 16 45 47t28 65t9 66t-14 50q-38 2 -70 -10t-59 -34t-51 -50t-44 -56q-12 -16 -25 -31t-19 -25 q-12 -22 -27 -51t-24 -58t-10 -54zM507 157q3 35 19 93q8 26 15 44t16 34t19 31t22 35q28 44 50 74t56 62q10 10 21 18t21 18q36 34 81 66t103 38q14 2 36 3t46 0t46 -5t36 -10q6 -2 11 -10t13 -16q16 -10 33 -19t21 -29t-1 -54t-11 -58q-10 -50 -27 -88t-39 -78 q-40 -74 -91 -130t-113 -100q-26 -18 -59 -39t-69 -34t-71 -14t-67 19q-10 4 -15 13t-15 13q-28 16 -48 23t-30 35q-12 30 -9 65zM701 201q-5 -25 4 -43t30 -25t51 5q28 10 50 35t44 51q16 16 34 38t35 47t31 50t22 49q4 10 5 21t5 21t10 21t8 19q4 20 -14 37t-46 7 q-4 8 -7 11t-17 3q-18 0 -35 -13t-32 -31l-30 -36t-27 -28q-24 -46 -55 -81t-45 -87q-2 -8 4 -10t2 -12q-22 -24 -27 -49z" />
<glyph unicode="&#x26;" horiz-adv-x="1602" d="M-40 262q-4 48 7 90t23 94q10 20 36 29t36 27q8 14 4 28t0 30t18 33t32 33t37 29t31 21q60 34 130 62l140 56q-24 26 -66 46q-16 10 -37 12t-35 12q-6 6 -10 22t-12 26q-12 22 -24 42t-8 60q12 24 9 32t-3 18q4 70 30 138t64 118q8 10 19 20t19 16q20 16 42 21t48 17 q20 10 29 26t25 28q16 14 46 26t58 22t60 18t54 12q52 4 96 -7t98 -19q18 -4 39 -4t39 -6q44 -12 86 -27t86 -26t88 -15t90 8q28 8 53 27t51 23q20 4 38 -2t42 -10q26 -4 58 -6t58 0q16 2 31 8t30 11t30 6t31 -9q-2 -8 0 -13t-2 -15q-6 -18 -29 -33t-52 -29t-60 -26t-55 -24 q-12 -8 -24 -17t-28 -19q-30 -16 -64 -25t-64 -19l-63 -21t-66 -19t-68 -8t-67 12q-22 10 -46 26t-42 30q-22 16 -35 23t-13 37q-18 -4 -31 -2t-23 7t-19 10t-17 9q-24 6 -53 4t-58 -10t-53 -21t-38 -29q-10 -10 -26 -31t-31 -45t-26 -49t-11 -43q-4 -14 2 -19t6 -17 q2 -20 -3 -41t-5 -43q-4 -48 14 -92t46 -54l28 -8t34 -8q24 -4 57 -2t43 -8q2 -2 4 -12t2 -21v-22t-2 -15q-2 -8 -11 -21t-19 -25t-21 -22t-19 -12q-22 -6 -51 -7t-51 -5q-52 -8 -89 -17t-87 -33q-16 -6 -28 -20t-32 -30t-37 -25t-31 -31q-12 -34 -35 -70t-33 -76t-11 -88 t17 -68q4 -6 13 -12t17 -14q20 -16 47 -32t67 -16q30 -2 64 0t64 6q14 4 29 8t29 6q16 2 29 1t27 3q48 12 84 41t76 53q24 16 49 24t45 32q20 54 34 106t8 102q-26 -10 -48 -17t-42 -23q-10 -6 -16 -17t-16 -19q-8 -8 -17 -14t-19 -16q-28 -22 -57 -33t-67 -29q-10 8 -27 17 t-25 25q-4 6 -3 17t-3 19q-4 16 -12 28t-8 22q2 20 13 34t21 34q46 36 104 52t126 38q40 12 79 34t77 26q36 4 71 -2t71 -6q28 2 58 8t58 10q14 2 26 0t24 0q44 8 78 25t74 33q16 -8 13 -27t-3 -41q0 -8 5 -17t1 -17q-2 -10 -10 -20t-17 -19t-16 -19t-7 -22 q-58 -28 -133 -42t-151 -10q-6 -58 -17 -118t-17 -118t-4 -109t24 -89q16 -28 37 -57t43 -45q22 -14 50 -22t50 -28q-14 -24 -38 -34t-53 -10t-60 6t-55 12q-34 -28 -64 -32t-58 24q-20 20 -34 49t-22 65t-7 75t11 79q-26 -12 -48 -29t-46 -33q-22 -16 -46 -34t-48 -28 q-16 -6 -33 -9t-33 -9q-40 -16 -85 -36t-89 -36q-46 -4 -95 -16t-107 -4q-36 4 -68 15t-66 23q-10 4 -23 4t-23 4q-20 6 -39 20t-41 24q-34 16 -60 26t-48 40q-6 10 -14 29t-14 41t-10 43t-4 33z" />
<glyph unicode="'" horiz-adv-x="256" d="M134 996q0 40 15 87t25 91q6 32 10 63t14 61q10 28 19 59t20 59t25 50t32 34q28 16 57 7t53 -27q14 -50 -3 -102t-29 -90q-24 -86 -44 -185t-52 -169q-12 -26 -34 -55t-48 -25q-12 2 -22 16t-19 35t-14 45t-5 46z" />
<glyph unicode="(" horiz-adv-x="596" d="M62 454q2 20 10 37t12 33q6 22 6 45t-4 43q0 8 -4 17t-4 19q2 30 13 71t21 73q8 28 23 59t27 61q14 32 24 63t22 57q10 18 24 33t26 31t22 32t10 36q28 34 55 74t61 76q10 16 25 26t25 24q40 46 78 90t78 74q22 16 64 39t72 33q8 2 27 6t40 5t38 -2t19 -11q2 -24 -8 -36 t-22 -22q-32 -22 -60 -55t-60 -63q-88 -92 -157 -205t-139 -223q-2 -52 -28 -106t-38 -108q-18 -80 -35 -161t-19 -151q0 -18 2 -37t2 -39q-2 -22 2 -41t0 -35q-2 -10 -9 -19t-9 -19q-4 -10 5 -21t13 -21q4 -14 5 -30t5 -30q8 -22 15 -43t13 -37q6 -14 17 -25t19 -25 q6 -12 8 -25t8 -25q4 -6 14 -18t20 -26t18 -28t8 -24q0 -20 -12 -25t-29 -4t-35 4t-30 1q-20 -8 -29 4t-25 22q-12 6 -26 7t-24 7t-18 22t-18 32q-22 28 -37 56t-31 58q-10 16 -20 28t-16 26q-4 8 -4 18t-4 16q-4 10 -10 15t-8 13q-6 22 -10 48t-8 54t-2 55t2 55q0 10 -4 21 t-2 21z" />
<glyph unicode=")" horiz-adv-x="576" d="M-296 -122q-4 22 7 34t23 22q30 24 59 56t59 64q90 90 159 203t139 225q2 52 27 105t39 109q18 78 35 160t19 152q0 18 -2 36t-2 40q2 20 -2 40t0 36q2 10 8 18t8 18q4 10 -4 21t-12 23q-4 14 -5 29t-5 29q-8 22 -15 43t-13 37q-6 14 -18 26t-20 26q-4 10 -6 23t-8 25 q-4 8 -15 20t-21 25t-18 27t-8 24q0 20 13 26t30 5t35 -5t30 0q20 6 29 -6t25 -22q10 -6 25 -7t23 -7q10 -6 19 -22t19 -30q22 -28 37 -56t31 -60q10 -14 19 -27t15 -25q4 -8 5 -18t5 -18q4 -10 10 -15t8 -11q6 -22 10 -49t8 -51q4 -30 1 -58t-1 -56q0 -10 4 -21t2 -21 q-2 -18 -11 -36t-13 -34q-4 -22 -4 -44t4 -42q0 -10 4 -18t4 -18q-2 -32 -14 -73t-22 -73q-10 -28 -23 -59t-25 -59q-14 -34 -25 -64t-23 -56q-10 -18 -23 -33t-27 -31t-23 -32t-9 -36q-28 -34 -55 -75t-59 -77q-10 -14 -25 -24t-27 -26l-76 -88t-78 -74q-12 -8 -29 -19 t-36 -21t-38 -19t-33 -13q-8 -4 -28 -7t-41 -4t-38 1t-17 12z" />
<glyph unicode="*" horiz-adv-x="890" d="M154 1076q10 26 8 57t10 61q6 16 18 35t22 35q14 22 33 46t43 28q32 4 52 -24t28 -58q20 -10 46 -33t48 -37q10 -4 30 -7t30 7q4 42 -1 76t-12 66t-12 64t1 72q16 4 19 17t13 17q16 4 23 -9t21 -17q6 8 11 17t13 15q30 2 62 5t59 1t48 -10t29 -28q8 -22 -12 -49t-34 -49 q-22 -30 -31 -54t-19 -58q-12 -28 -30 -47t-22 -51q28 10 50 26t56 30q18 6 30 21t30 25q26 16 60 31t66 13q12 -28 17 -65t5 -76t-6 -77t-16 -68q-38 -22 -78 -16t-74 8q-6 12 -20 11t-32 1q-28 2 -45 3t-39 -21q6 -24 23 -38t39 -25t46 -20t44 -23q16 -10 34 -29t14 -43 q0 -4 -8 -17t-17 -26t-18 -25t-13 -16q-10 -8 -30 -14q-10 -10 -22 -27t-34 -29l-28 -14t-33 -14t-31 -10t-20 -2q-16 6 -16 23t-12 27q14 28 5 53t-11 53q0 10 2 21t0 21q-2 16 -11 30t-11 34q-4 12 -1 24t-7 18q-24 -8 -31 -29t-17 -41q-12 -24 -36 -55t-34 -59 q-6 -16 -8 -35t-10 -29q-10 -12 -31 -20t-37 -10t-25 5t-25 15t-32 12t-26 14q-24 24 -36 55t-16 71q16 16 36 34t42 14q50 44 103 82t99 80q-22 8 -52 6t-60 -6q-16 14 -41 15t-52 0t-52 0t-41 15z" />
<glyph unicode="+" horiz-adv-x="1158" d="M2 642q-10 34 11 77t39 79q48 18 97 19t102 -3t108 -7t113 5q8 20 13 41t9 42t13 40t27 35q6 42 12 86t16 88t25 85t41 77q32 8 62 19t54 1q4 -2 7 -10t7 -16q4 -10 9 -15t5 -13q2 -28 -20 -78t-36 -98q-8 -26 -8 -52t-6 -42q-8 -16 -22 -25t-18 -19q-12 -26 -6 -66 t-6 -70q18 -10 47 -12t63 -2h70t72 -4q8 -2 14 -5t16 -3t41 4t64 7t57 0t22 -21q-4 -16 -23 -28t-31 -22q-20 -18 -32 -34t-28 -30q-44 -26 -94 -28t-102 4t-103 12t-97 -2q-10 -36 -8 -69t-8 -71q-2 -10 -7 -20t-9 -20q-4 -22 -4 -49t-10 -57q-8 -22 -16 -50t-18 -54 q-6 -14 -15 -34t-17 -30q-6 -6 -20 -9t-30 -6t-32 -3h-26q-20 0 -41 17t-19 29q12 58 34 120t50 102q0 14 -9 16t-11 18q0 12 7 29t11 35q4 28 7 54t13 52q-44 4 -86 1t-86 3q-26 4 -49 11t-51 3q-34 -4 -74 -19t-80 -15z" />
<glyph unicode="," horiz-adv-x="394" d="M-144 59q2 31 15 61t33 52q18 20 36 26t38 5t43 -7t51 -12q26 -26 45 -64t5 -96q-6 -26 -17 -66t-23 -64q-18 -34 -51 -68t-63 -58l-32 20t-14 28q0 8 8 28t19 44t20 46t9 36q-16 -8 -36 -14t-42 6q-26 14 -36 40t-8 57z" />
<glyph unicode="-" horiz-adv-x="946" d="M0 636q-4 24 3 43t19 36t24 31t22 30q20 8 41 9t42 -2t43 -7t46 -2q12 0 23 5t23 5q20 2 40 1t42 -1q20 0 43 2t33 -2q14 -2 25 -12t25 -10q10 0 19 7t23 11q16 4 39 5t45 1h42t32 2q44 4 86 0t88 -8q28 -36 14 -73t-46 -55q-8 -4 -16 -5t-18 -5q-20 -10 -33 -25t-29 -19 q-16 -2 -37 3t-43 9q-46 4 -99 2t-99 -2q-40 0 -72 5t-54 21q-48 -14 -102 -24t-108 -4q-34 4 -65 16t-61 12z" />
<glyph unicode="." horiz-adv-x="394" d="M-144 68q0 34 20 64q10 14 27 22t33 20q12 10 28 23t36 15q10 0 22 -2t22 -4q32 -6 61 -42t19 -82q-12 -56 -57 -91t-101 -47q-30 -4 -56 14t-40 47t-14 63z" />
<glyph unicode="/" horiz-adv-x="784" d="M-154 62q2 14 14 30t28 32t32 33t26 31q28 36 45 74t35 74q22 34 47 72t53 74q30 34 59 68t53 68q6 10 9 21t9 21q12 16 28 30t32 30q24 30 40 60t50 50q4 12 -1 18t-3 16q20 32 31 65t29 63q16 24 38 45t26 53q38 42 73 94t73 104q12 18 29 34t29 34q6 10 9 19t9 17 q4 10 15 22t21 24q10 14 19 25t19 15q16 8 39 7t45 -9t37 -21t15 -29q0 -28 -21 -47t-35 -35q-12 -16 -22 -33t-20 -33q-32 -44 -64 -90t-66 -86q-16 -6 -26 -14t-20 -18q0 -10 2 -18t-2 -18q-10 -22 -21 -40t-29 -30q-70 -114 -142 -222t-148 -216q-42 -78 -88 -151 t-100 -139q-6 -10 -9 -32t-11 -38q-8 -10 -24 -21t-26 -31q-4 -10 -7 -20t-7 -20q-4 -8 -15 -25t-24 -34t-26 -31t-21 -16t-32 3t-30 7q-10 4 -22 8l-24 8q0 8 -5 16t-12 17t-12 17t-3 18z" />
<glyph unicode="0" horiz-adv-x="1372" d="M52 742q2 34 25 69t33 67q6 26 1 51t3 51q4 14 18 30t24 32q28 48 58 95t64 83q26 28 50 52t58 46q32 24 62 48t62 47t68 41t78 30q64 20 124 27t124 -3q28 -4 73 -18t71 -26q38 -18 62 -51t48 -67q10 -16 25 -28t21 -22q14 -28 22 -65t20 -73q8 -32 22 -63t26 -64 t20 -70t4 -81q-4 -52 -14 -120t-24 -122q-6 -26 -17 -57t-23 -49q-14 -16 -29 -20t-25 -20q-6 -10 -9 -26t-3 -26q-2 -16 1 -29t1 -29q0 -18 -13 -37t-29 -37t-35 -34t-31 -30q-30 -34 -53 -65t-51 -65q-90 -86 -218 -132t-300 -30q-54 8 -97 37t-77 57q-10 8 -18 13t-14 11 q-8 10 -13 21t-15 21q-16 18 -34 30t-28 26q-12 16 -14 36t-20 36q-2 44 -10 84t-18 80t-18 81t-8 87q0 24 8 51t4 51q-2 18 -12 32t-10 36zM412 533q0 -63 8 -115q4 -22 6 -47t8 -43q16 -52 34 -90t62 -56q4 -4 2 -11t0 -11l48 -6q18 22 46 38t50 40q14 16 41 43t41 53 l30 48q8 16 17 29t15 23q24 50 37 99t25 101q8 34 20 68t4 66q8 16 24 28t20 32q8 24 2 53t-2 59q4 32 6 57t2 55q-4 84 -25 146t-67 96q-24 -2 -45 2t-43 0q-26 -6 -48 -22t-42 -36t-38 -42t-36 -36q-22 -44 -40 -79t-40 -81q-10 -24 -22 -44t-22 -40q-14 -34 -21 -79 t-23 -73q-6 -10 -15 -14t-13 -12q-4 -6 -2 -15t6 -18t6 -20t0 -19q-16 -64 -16 -127z" />
<glyph unicode="1" horiz-adv-x="940" d="M-52 -16q46 34 105 65t101 77q14 20 35 55t31 61q4 16 3 32t3 32q4 22 13 45t15 49q14 66 31 121t41 113q4 12 10 23t8 17q2 14 -3 26t-5 28q2 42 24 88t32 96q6 26 7 50t7 48q10 40 21 73t21 67q-54 -12 -99 -47t-91 -65q-6 -6 -9 -13t-9 -13q-12 -8 -30 -13t-36 -6 t-32 6t-18 23q-6 24 7 42t33 31t42 25t34 24q54 114 168 174q6 24 22 41t37 31l42 28t35 30q16 16 26 38t26 32q28 16 62 11t60 -21q4 -12 7 -24t13 -20q10 -6 30 -5t30 -3q22 -8 38 -21t32 -21q-4 -30 -8 -64t-7 -68t-8 -68t-11 -60q-10 -42 -35 -86t-41 -88 q-16 -66 -35 -138t-37 -144q-6 -22 -15 -45t-13 -45q-2 -22 -1 -43t-3 -43q-16 -66 -37 -130t-33 -128q-8 -40 -13 -83t7 -83q6 -24 25 -37t29 -41q-4 -10 -8 -15t-8 -15q-42 -12 -71 -3t-67 15q-22 2 -50 1t-58 -1q-22 -2 -57 -1t-55 -3q-30 -4 -63 -8t-57 -8 q-26 -6 -57 -20t-59 -21t-48 0t-26 43z" />
<glyph unicode="2" horiz-adv-x="1212" d="M-10 100q0 34 10 74t40 85t46 85q4 10 3 21t3 21t22 18t22 18q4 6 4 13t4 13q18 38 46 71t61 63t64 59t55 59q44 30 75 49t62 36t66 38t85 55q8 28 24 50t32 41t33 37t29 42q20 40 36 84t4 92q-6 24 -26 38t-47 20t-56 5t-55 -9q-14 -4 -33 -12t-38 -17t-34 -19t-23 -18 q-16 -24 -29 -62t-25 -70q-20 -52 -62 -83t-102 -33q-16 -2 -34 -2t-26 4q-14 4 -25 18t-17 34t-7 43t7 45q6 18 24 35t28 33q32 50 57 93t61 73q12 10 31 17t35 17t33 19t33 19q54 34 105 64t115 48q30 -10 57 -5t61 1q48 -4 92 -20t82 -39t71 -50t63 -53q20 -34 15 -81 t1 -99q4 -28 4 -65t-6 -73t-21 -66t-41 -44q-4 -26 -9 -41t-11 -26t-14 -22t-20 -29l-16 -28t-16 -24t-18 -14t-20 -12q-28 -28 -52 -45t-46 -43q-40 -44 -79 -77t-81 -71q-40 -16 -72 -38t-60 -60q-48 -16 -79 -57t-51 -95q16 -4 44 -1t62 -1q12 0 34 -4q18 -4 45 -8 t63 -14q10 -6 16 -15t16 -13q14 -8 31 -14t33 -14t32 -18t28 -14q34 -10 72 1t62 23q18 8 37 -3t49 -23q10 -22 0 -46t-22 -36q-4 -6 -19 -16t-33 -19t-36 -17t-30 -10q-10 -4 -23 -2t-23 0q-22 -4 -46 -10t-46 -8q-30 -4 -67 -3t-73 3q-36 0 -56 5t-52 11q-22 6 -41 15 t-39 13q-24 4 -40 7t-30 5t-28 3t-32 1q-54 2 -102 -6q-22 -4 -37 -17t-37 -21q-30 -10 -67 -14t-53 0q-22 6 -26 22t-14 32q-2 44 -2 78z" />
<glyph unicode="3" horiz-adv-x="1212" d="M-29 54q5 14 20 25t36 18t45 13t45 9t45 7t51 10t61 16q30 10 46 14t44 22t55 24t49 26q14 10 22 21t18 21q18 16 47 29t39 35q-12 18 -8 29t13 23t20 29t15 47q6 38 -1 70t-21 58q0 12 4 19t4 19q-28 32 -72 40t-96 4q-24 -2 -48 -12t-40 -6q-12 2 -21 18t-15 37t-9 41 t-1 32q8 34 37 52t49 36q90 18 156 50t136 76q10 32 33 50t37 50q0 10 -10 13t-8 15q10 28 17 41t11 24t3 23t-9 38q-8 28 -33 47t-65 19q-16 0 -39 -5t-47 -13t-45 -18t-31 -18q-12 -10 -32 -18t-24 -24q-8 -22 -4 -47t-4 -53q-8 -26 -29 -45t-43 -35q-16 -10 -44 -15 t-54 -1q-24 4 -45 21t-43 21q-4 10 -8 22l-8 24q12 46 20 85t32 69q36 46 82 78t98 64q26 14 48 30t48 28q28 16 58 23t54 23q54 0 110 9t110 11q30 0 61 -8t61 -19t60 -21t58 -12q16 -22 38 -32t34 -36q8 -14 6 -28t8 -26q4 -10 15 -16t15 -14q16 -26 21 -65t3 -67 q-2 -52 -31 -105t-49 -107q-106 -110 -246 -184q18 -26 52 -39t66 -29q40 -42 47 -98t1 -132q0 -10 -2 -23t-6 -27q-10 -36 -26 -75t-35 -75t-39 -68t-38 -56q-30 -36 -70 -60t-74 -40q-14 0 -17 7t-13 9q-16 -28 -35 -45t-43 -29t-53 -20t-65 -20q-44 -16 -100 -23t-122 -9 q-50 -2 -76 0t-66 2q-32 0 -64 4t-59 12t-47 21t-28 31q-8 20 -3 34z" />
<glyph unicode="4" horiz-adv-x="1274" d="M-20 478q0 4 2 16t4 16q16 46 52 82t76 82q36 42 67 82t63 74q10 12 16 25t14 19q14 12 29 17t28 13t21 20t6 38q34 46 69 89t75 83q12 12 22 31t21 38t24 37t29 30q8 22 23 38t33 31t33 32t23 39q16 12 25 28t29 26q18 10 45 13t53 1q30 -2 81 2t105 7t100 2t64 -11 q-10 -12 -15 -28t-13 -32q-6 -12 -16 -21t-14 -19q-10 -16 -15 -35t-11 -39q-4 -16 -12 -32t-14 -32q-14 -42 -23 -94t-25 -92q-4 -10 -11 -18t-11 -18q-2 -6 -1 -12t-3 -12q-6 -16 -17 -28t-13 -22t1 -22t1 -22q-2 -22 -9 -39t-13 -35q-8 -30 -13 -62t-13 -64 q-10 -42 -24 -71t-6 -67q30 -10 52 -1t52 9q10 2 18 -1t18 -3q36 0 72 6t62 -12q-4 -26 -21 -43t-37 -33t-38 -34t-24 -46q-52 -6 -87 -10t-85 -14q-36 -40 -48 -92q-16 -58 -30 -116t-28 -122q-2 -16 -3 -32t-5 -26q-12 -20 -34 -27t-46 -21q-10 -4 -20 -14t-20 -12 q-26 -6 -46 0t-36 18t-29 26t-27 22q-26 10 -25 17t-7 11q-22 10 -40 12t-30 24q12 18 25 54t24 76t19 80t10 68q-84 4 -181 -6t-181 -6q-10 16 -27 25t-31 23q-10 10 -33 27t-35 27q-16 12 -29 19t-11 43zM344 542q46 -8 108 -9t116 9q14 68 29 122t32 105t36 103t39 114 q8 16 12 30t14 38q-28 -34 -43 -56t-25 -36q-10 -16 -14 -24q-22 -22 -37 -41t-27 -38t-23 -38t-29 -39q-4 -12 -17 -29t-29 -32t-30 -26t-16 -11q-12 -18 -21 -44t-25 -42q-8 -8 -17 -12t-16 -9t-12 -13t-5 -22z" />
<glyph unicode="5" horiz-adv-x="1200" d="M-30 16q0 26 29 45t70 31t87 19t80 11q36 8 72 24t70 36q22 12 40 19t26 33q14 8 30 14t31 12t29 17t26 29q22 36 41 59t41 51q10 12 26 19t16 23q2 16 -10 22t-22 12q6 14 2 31t-11 35t-15 36t-14 32q-26 28 -80 35t-108 -1q-24 -4 -47 -15t-46 -25t-47 -26t-50 -14 q-12 8 -17 17t-15 21q-4 8 -15 18t-15 20q-2 10 1 22t-1 26q-4 10 -9 16t-11 12t-10 15t-4 25q0 38 18 79t34 81q10 34 23 69t23 73q16 54 32 109t26 113q6 30 10 58t14 50q40 30 79 60t97 44q34 -4 65 5t65 5q22 -2 33 -8t20 -13t21 -14t36 -9q38 -6 84 -8t94 -4 q70 -2 135 -11t135 3q28 6 55 15t43 -11q-4 -80 -60 -122t-126 -54q-10 -4 -19 -8t-21 -6q-24 -6 -51 -6t-56 1t-56 0t-51 -7q-32 -8 -54 -16t-68 -8q-12 0 -16 5t-6 9t-5 7t-13 1q-22 -8 -26 -36t-12 -54q-10 -28 -18 -41t-8 -39q-14 -8 -26 -23t-12 -35q0 -8 5 -16t5 -18 q0 -16 -2 -19t-6 -21q-8 -28 -11 -44t-19 -38q22 2 35 4t27 12q30 10 54 6t64 2q14 4 24 5t19 0t20 -4t27 -9q14 -6 35 -13t40 -17t36 -21t25 -23q4 -10 8 -22l8 -24q10 -16 21 -34t13 -32t-5 -30t-3 -32q4 -14 17 -16t19 -12q4 -6 5 -17t3 -17q10 -122 -30 -204 q-16 -34 -51 -71t-63 -65q-30 -30 -59 -61t-63 -59q-26 -20 -65 -41t-73 -37q-60 -28 -144 -48t-162 -30q-18 -16 -56 -20t-80 -8q-32 -2 -71 1t-74 12t-58 26t-23 45z" />
<glyph unicode="6" horiz-adv-x="1200" d="M10 473q-2 25 4 51q4 16 11 31t7 31q0 8 -3 16t-3 16q-2 36 11 66t31 59t36 56t26 57q14 12 21 26t13 29t14 30t20 27q28 32 57 59t59 59q16 16 29 31t29 31t35 26t35 24q28 22 55 46t63 42q10 4 19 7t19 7q38 20 80 36t86 32q34 14 63 33t63 29l68 20l68 20q36 10 72 16 t70 16q14 4 36 0t24 -20q2 -10 -1 -27t-9 -35t-14 -32t-14 -18q-34 -18 -75 -31t-57 -35q-20 -8 -33 -18t-25 -21t-26 -22t-34 -19q-22 -10 -44 -27t-44 -25q-10 -4 -25 -14t-31 -23t-28 -25t-16 -18q-26 -6 -34 -21t-30 -29q-8 -4 -14 -5t-12 -5q-8 -4 -10 -13t-8 -15 l-30 -28q12 6 33 5t37 5q12 4 23 1t25 -1q10 2 16 -1t12 -7t15 -8t25 -6q6 -2 19 -11t28 -21t29 -23t22 -17q46 -30 82 -91t42 -131q4 -36 10 -61t-20 -41q18 -32 19 -57t-3 -65q-6 -50 -16 -84t-28 -80q-12 -22 -42 -46t-44 -50q-26 -46 -55 -75t-73 -55q-76 -48 -162 -77 t-214 -19q-24 2 -47 8t-47 10t-48 7t-44 11q-12 6 -29 20t-34 32t-31 35t-22 29q-4 8 -8 20t-10 22q-10 20 -17 33t-1 39q-16 20 -20 34t-8 46q-2 10 1 21t-1 23q-2 16 -7 34t-7 38q-2 26 -4 51zM371 322q3 -42 12 -76t25 -52q12 -16 34 -28t46 -4q10 4 24 15t24 21t22 24 t20 26q10 16 18 40t18 46q4 14 12 25t12 21q6 16 8 30t6 28q6 12 14 20t12 24q-10 22 -10 43t2 53q2 36 -1 75t-13 70t-30 46t-52 3q-30 -12 -52 -26t-38 -33t-30 -43t-32 -56q-20 -34 -26 -59t-16 -69q-6 -36 -9 -79t0 -85z" />
<glyph unicode="7" horiz-adv-x="1130" d="M102 -28q4 40 31 77t55 71t50 71t44 71q24 40 47 82t45 84q32 54 54 103t48 111q18 10 34 20t26 28q-2 52 23 97t47 93q32 66 57 117t59 115q20 32 35 61t3 61q-34 6 -52 9t-32 2t-30 -5t-44 -10q-30 -8 -60 -2t-50 -10q-12 -8 -21 -18t-23 -24l-25 -25t-21 -25 q-8 -10 -12 -22t-12 -22q-14 -20 -27 -44t-26 -47t-26 -41t-27 -26q-14 -10 -34 -13t-40 0t-36 13t-20 28q-8 38 4 67t30 57q18 30 34 80t28 80q6 14 17 27t17 27q6 16 7 34t7 34q6 18 11 28t9 17t9 15t9 22t16 26t22 30q50 4 86 3t70 -17q78 -8 154 -9t160 3q10 -14 32 -11 t52 1q34 -4 55 -5t43 23q32 2 59 3l54 2t56 5t63 10q10 -10 24 -16t22 -16q4 -22 -4 -41t-4 -41q-22 -40 -50 -71t-56 -73q-30 -48 -52 -107t-56 -111q-6 -10 -18 -16t-18 -14q-8 -14 -11 -28t-11 -24q-10 -12 -23 -21t-23 -19q-16 -22 -28 -44t-32 -38q6 -40 -14 -73 t-38 -73q-28 -58 -58 -109t-58 -111q-12 -22 -24 -42t-22 -44q-24 -44 -40 -87t-29 -88t-26 -93t-33 -98q-24 -20 -61 -16t-77 2q-18 0 -39 -5t-42 -8t-38 -1t-25 18q-12 -20 -35 -29t-49 -10t-52 4t-44 11z" />
<glyph unicode="8" horiz-adv-x="1218" d="M21 271q-1 21 4 40t23 35q-4 16 -8 31t-10 27q4 40 21 74t35 62q24 38 44 64t54 62q24 22 45 47t43 43q34 24 64 39t54 51q-22 28 -38 56t-28 56t-24 57t-26 57q8 26 0 46t-4 44q2 14 12 27t18 29q10 26 17 52t25 50q34 48 83 87t109 61q22 10 52 17t50 11q14 2 28 -2 t30 -4q26 0 52 1t50 -1t45 -8t37 -20q6 -4 13 -2t19 -2q20 -8 28 -21t26 -23q12 -6 34 -8l44 -4t39 -8t17 -20t-9 -23t-23 -15t-29 -11t-23 -11q-10 -4 -15 -12t-15 -14q-12 -8 -40 -20t-58 -22t-58 -16t-42 -2q-22 6 -37 20t-43 14q-24 0 -48 -11t-36 -31q-10 -16 -20 -37 t-8 -35q0 -10 7 -18t13 -22q10 -22 15 -41t31 -29q34 4 60 23t46 41q10 8 15 18t13 18q12 10 35 21t50 22l54 22t43 23q58 46 116 89t110 87q28 18 57 27t61 19q40 12 75 34t71 38q40 16 90 35t96 25q16 0 17 -7t-4 -17t-13 -19l-8 -9q-16 -16 -23 -25t-17 -19 q-28 -18 -60 -31t-62 -31q-52 -34 -105 -66t-105 -70q-38 -24 -75 -58t-65 -68q-24 -32 -34 -53t-34 -45q-48 -50 -116 -96t-124 -96q-12 -10 -34 -32t-22 -30q-2 -10 5 -21t17 -22t19 -21t11 -16q22 -16 30 -39t28 -41q16 -16 20 -24l14 -28q16 -28 30 -67t16 -69 q8 -114 -14 -193t-80 -145q-24 -12 -44 -31t-41 -40t-46 -39t-61 -28q-40 -10 -84 -14t-90 -8q-60 -4 -121 -10t-113 10q-10 4 -17 12t-17 12q-6 4 -16 2t-16 0l-15 6t-13 2q-30 22 -65 50t-49 72q-4 16 -7 35t-9 37t-12 39t-7 42zM358 334q0 -10 3 -21t7 -27q8 -46 25 -63 t47 -39q16 -10 30 -19t24 -9q28 -4 59 15t45 45q16 30 24 79t10 91q0 14 1 31t-3 27q-2 10 -8 23t-12 27q-14 34 -32 73t-40 65q-18 -14 -32 -28t-28 -32q-14 -16 -23 -34t-21 -36q-4 -8 -11 -14t-11 -16q-8 -16 -14 -35t-16 -37q-8 -20 -15 -37t-9 -29z" />
<glyph unicode="9" horiz-adv-x="1198" d="M-20 -22q-2 20 8 36t25 28t30 20t21 12q30 20 71 36t53 38q20 8 34 19t25 23t24 23t33 21q22 10 38 29t38 27q10 6 25 17t30 25t26 26t15 18q12 6 29 25t31 40t22 36t0 13q-16 -4 -27 -3t-23 -1q-18 -4 -28 4t-42 12q-6 0 -22 7t-35 17t-36 20t-25 16q-48 28 -89 85 t-51 125q-6 34 -14 58t14 42q-20 30 -22 54t-2 64q2 48 10 84t24 82q4 10 14 22t22 25t23 27t17 26q22 44 50 76t70 60q36 26 74 48t82 38t96 26t118 10q22 0 46 -4l48 -8q22 -2 48 -3t44 -9q14 -4 32 -17t36 -29t33 -32t25 -28q6 -8 11 -18t9 -20q12 -20 21 -33t3 -37 q18 -18 21 -32t11 -42q2 -10 1 -21t1 -23q6 -18 13 -35t11 -35q4 -28 7 -51t-1 -49q-4 -16 -9 -32t-5 -30q0 -10 4 -17t6 -17q4 -36 -7 -66t-26 -58t-31 -56t-22 -58q-26 -28 -32 -58t-30 -60q-26 -30 -52 -59t-52 -61q-16 -16 -28 -33t-28 -33q-14 -16 -32 -28t-34 -28 q-24 -22 -50 -47t-62 -47q-8 -4 -17 -8t-19 -8q-34 -20 -75 -49t-81 -49q-34 -16 -61 -36t-61 -32q-34 -14 -69 -17t-67 -13q-36 -14 -72 -22t-70 -20q-6 -2 -24 -4t-37 0t-35 10t-18 26zM528 964q12 -20 12 -41v-51q0 -36 4 -74t16 -66t32 -39t54 7q30 18 50 36t35 39 t29 47t30 60q10 20 16 35t9 29t5 31t6 39q4 36 5 79t-2 83t-13 72t-26 46q-14 12 -36 20t-46 -4q-10 -6 -24 -20l-24 -24q-10 -12 -21 -28t-19 -28q-10 -18 -17 -42t-15 -48q-4 -16 -11 -28t-11 -24q-4 -16 -5 -30t-9 -28q-4 -14 -12 -23t-12 -25z" />
<glyph unicode=":" horiz-adv-x="528" d="M-52 68q0 34 20 64q10 14 27 22t33 20q14 10 29 23t35 15q10 0 22 -2t22 -4q32 -6 61 -43t21 -81q-14 -56 -58 -91t-102 -47q-30 -4 -56 14t-40 47t-14 63zM126 763q0 35 20 65q8 12 25 20t33 20q14 10 30 25t36 15q10 2 23 0t21 -4q32 -8 60 -45t20 -81q-12 -56 -57 -91 t-103 -45q-30 -6 -55 11t-39 46t-14 64z" />
<glyph unicode=";" horiz-adv-x="538" d="M-52 59q2 31 15 61t33 52q18 20 37 26t38 5t42 -7t51 -12q26 -26 45 -64t7 -96q-8 -26 -19 -66t-23 -64q-18 -34 -51 -68t-63 -58l-32 20t-14 28q0 8 8 28t19 44t20 46t9 36q-16 -8 -36 -14t-42 6q-26 14 -36 40t-8 57zM136 763q0 35 20 65q10 12 27 20t33 20 q12 10 28 25t36 15q10 2 23 0t21 -4q32 -8 60 -45t20 -81q-10 -56 -56 -91t-104 -45q-30 -6 -55 11t-39 46t-14 64z" />
<glyph unicode="&#x3c;" horiz-adv-x="1100" d="M10 706q4 18 22 47t30 39q14 12 34 21t43 16t45 13t40 14q36 16 75 43t79 45q56 26 109 41t101 37q10 2 17 -1t19 -1q26 2 36 24t28 38q10 8 33 13t43 13q36 14 76 41t82 47q16 10 34 15t34 13q28 16 49 30t55 20q22 -12 16 -39t-16 -57q-8 -28 -13 -57t-21 -41 q-16 -18 -48 -27t-58 -23q-30 -18 -54 -32t-44 -30q-28 8 -46 -6t-38 -26q-32 -22 -69 -37t-77 -27t-82 -25t-82 -31q-36 -20 -71 -42t-67 -36q-14 -6 -27 -7t-25 -3t-24 -8t-20 -20q6 -12 16 -18t24 -9l28 -6t26 -9q6 -4 11 -12t11 -12q32 -18 68 -30t74 -24q8 -12 5 -33 t7 -33q12 -18 45 -16t59 -6q44 -12 79 -44t77 -56q38 -24 77 -41t57 -49q-14 -44 -25 -87t-39 -63q-32 0 -47 21t-37 37q-10 10 -23 13t-23 11t-16 18t-16 16q-24 16 -59 27t-71 21q-26 8 -44 26t-44 34q-10 8 -20 10t-20 6q-16 10 -30 21t-30 21t-31 22t-31 22 q-14 10 -28 15t-26 13q-12 10 -23 20t-23 16q-10 6 -23 8t-23 8q-14 6 -22 17t-18 21q-8 4 -18 6t-18 8q-10 6 -21 18t-18 25t-12 27t-3 26z" />
<glyph unicode="=" horiz-adv-x="1176" d="M10 478q-4 44 12 68t30 52q12 4 31 12t35 8t31 -7t31 -9q22 -4 46 -6t46 -4q34 0 69 7t75 7q78 0 162 -11t158 -3q22 4 43 11t43 9q28 4 56 2t56 2q10 0 18 5t18 5q26 2 51 -16t29 -34q4 -20 -11 -36t-23 -28q-10 -16 -20 -37t-28 -31q-106 -12 -211 1t-205 7 q-34 -4 -70 -8t-76 -4q-64 0 -128 1t-120 -1q-52 0 -89 1t-59 37zM106 784q-4 22 5 40t13 40q20 20 48 31t56 25q64 -4 133 -15t145 -7t149 8t163 2q24 0 47 -4t47 -4q30 0 68 5t66 9q10 2 21 5t21 3q22 0 38 -14t18 -26t-6 -28t-20 -31t-26 -28t-24 -19q-34 -18 -86 -18 h-110q-94 0 -192 7t-186 3q-38 -4 -70 -13t-62 -13q-36 -4 -70 -1t-65 10t-61 16t-60 17z" />
<glyph unicode="&#x3e;" horiz-adv-x="1120" d="M-30 190q6 26 16 58q8 28 12 57t20 43q16 16 49 24t57 24q32 18 55 31t45 29q28 -8 45 7t39 27q32 22 69 36t77 27l80 26t80 31t74 41t68 37q12 6 26 7t26 3t23 7t21 19q-6 12 -18 18t-25 10t-27 7t-24 9q-6 4 -11 11t-11 11q-32 20 -68 32t-74 24q-8 12 -5 32t-7 34 q-12 18 -45 16t-59 6q-44 12 -80 44t-76 56q-40 22 -79 40t-57 50q14 44 25 87t41 63q28 0 45 -22t39 -38q10 -8 22 -11t22 -11t17 -18t17 -16q22 -16 57 -27t69 -21q28 -8 47 -27t43 -35q10 -6 21 -8t19 -6q16 -10 31 -21t31 -21q16 -12 30 -23t30 -21t30 -14t26 -14 t22 -21t22 -17t25 -8t23 -6q12 -6 19 -17t19 -21q10 -4 20 -6t18 -8q20 -16 39 -45t15 -53q-4 -16 -22 -45t-30 -41q-14 -12 -35 -20t-43 -15t-45 -13t-41 -14q-38 -18 -75 -44t-79 -44q-56 -28 -109 -42t-99 -36q-12 -2 -18 1t-20 1q-26 -2 -35 -24t-29 -38q-10 -8 -32 -13 t-42 -13q-36 -14 -77 -41t-81 -47q-16 -10 -34 -16t-34 -14q-28 -14 -49 -28t-55 -20q-22 12 -16 38z" />
<glyph unicode="?" horiz-adv-x="1016" d="M112 94q-2 30 11 62t34 58t48 46t53 26q20 4 47 0t43 -14q4 -4 10 -16t12 -18q16 -22 40 -41t30 -39q4 -22 -3 -45t-15 -45q-6 -18 -15 -38t-25 -30q-22 -16 -56 -19t-62 1q-10 2 -17 8t-19 10q-22 4 -44 2t-36 8t-24 39t-12 45zM166 1205q0 29 5 57t12 56t11 58 q28 26 57 49t57 51q16 8 41 12t53 12q20 6 37 14t33 10q8 2 16 0t18 0q14 4 29 9t31 7q32 4 71 5t67 -3q8 0 17 -4t19 -6q14 -4 27 -2t25 0q58 -10 85 -31t43 -63q28 -2 52 -7t40 -19q32 -64 39 -146t17 -160q4 -46 -9 -83t-33 -69t-43 -61t-41 -59q-36 -22 -58 -36t-54 -34 q-30 -20 -59 -40t-81 -24q-24 -2 -55 0t-51 -8q-12 -6 -17 -23t-19 -31q-8 -8 -14 -7t-12 -9q-10 -32 -16 -71t-16 -73q-12 -42 -45 -70t-85 -36q-10 0 -25 -3t-32 -4t-32 -1t-21 4q-6 2 -14 16t-17 31t-15 35t-6 28q0 20 8 42t18 47t19 53t13 60q2 18 0 38t2 38q4 16 14 37 t18 35q28 40 82 60t124 4q16 -4 29 -10t31 -6q64 -2 101 30t61 84q20 40 34 100t14 118q0 26 -5 53t-11 47q-8 30 -30 43t-49 22t-53 18t-42 31q-20 -6 -32 -17t-26 -21q-60 -6 -111 -28t-79 -74q-6 -12 -15 -33t-11 -35q-6 -38 20 -63t60 -23q16 2 30 11t28 19q12 8 30 17 t30 5q16 -6 21 -30t1 -46q-6 -28 -35 -51t-67 -36t-78 -12t-70 19q-12 6 -26 21t-27 33t-24 37t-17 33q-12 30 -12 59z" />
<glyph unicode="@" horiz-adv-x="1550" d="M31 654q1 68 14 134t40 124t69 102q14 62 50 103t70 89q24 32 44 57t46 45q52 44 115 75t129 61q12 6 23 13t25 11q76 28 160 41t170 13q20 0 48 -3t59 -9t60 -13t49 -15q8 -4 17 -11t21 -11q16 -6 31 -9t23 -7q32 -16 53 -42t49 -36q28 -40 54 -85t46 -97t29 -112 t3 -130q-4 -34 -7 -69t-7 -73q-2 -34 -11 -64t-21 -58q-16 -42 -30 -69t-40 -63q-26 -32 -45 -66t-43 -66q-24 -30 -51 -54t-43 -52q-46 -26 -87 -33t-95 17q-18 10 -38 18t-34 22q-20 22 -26 52t-18 52q-12 -10 -20 -24t-18 -30q-16 -22 -35 -31t-51 -19q-6 -2 -13 -6 t-13 -8q-20 -4 -45 -7t-47 -9q-36 -10 -62 -14t-66 12q-32 10 -64 28t-48 40q-8 10 -13 26t-13 28q-20 34 -34 77t-10 101q6 74 32 148t60 144q14 32 45 77t55 67q10 10 24 18t26 20q12 10 24 22t22 18q12 6 31 11t35 13q12 8 22 19t22 21q24 18 69 36t92 26t87 -2t54 -52 q20 18 36 22t31 -1t29 -16t30 -25q18 -18 35 -32t25 -28q-28 -12 -38 -35t-26 -57q-6 -16 -16 -31t-14 -25q-4 -16 -7 -34t-9 -40q-8 -16 -13 -34t-11 -34q-20 -66 -38 -140t-22 -154q6 -22 26 -44t48 -18q14 2 28 15t26 23q40 28 55 62t37 92q20 46 42 99t26 117q2 26 3 50 t3 48q0 10 -3 23t-3 25q-2 40 -1 77t-11 65q-24 60 -73 110t-117 81t-150 41t-172 -12q-40 -10 -85 -26t-85 -36q-48 -22 -101 -45t-85 -57q-10 -10 -16 -22t-14 -22q-10 -10 -18 -19t-16 -19q-28 -34 -49 -72t-59 -68q-36 -66 -63 -150t-41 -160q-4 -28 -5 -57t3 -57 q0 -14 5 -25t9 -23q0 -10 -3 -22t-1 -22q6 -52 33 -112t57 -100q16 -22 33 -45t31 -33q14 -12 33 -15l38 -6t36 -9t27 -22q30 6 52 4t43 -8t44 -13t51 -9q22 -4 56 5t72 13q32 6 62 9t48 11q12 4 25 14t26 21t26 19t23 8q12 0 26 -15t24 -25q12 -12 23 -29t7 -31 q-2 -12 -18 -28t-36 -31t-41 -27t-33 -18q-42 -20 -106 -32q-52 -14 -119 -27t-123 3q-22 8 -49 18t-57 20q-114 34 -212 70t-168 112q-28 54 -49 124t-35 142q-6 22 -15 45t-11 45q-6 64 -5 132zM622 506q2 -16 14 -31t30 -26t39 -17t39 -4q20 2 43 16t42 35t33 45t20 46 q2 6 1 13t-1 15q4 34 18 73t22 67l9 36t9 40q6 18 14 34t12 32q2 8 -1 16t-1 18q4 34 19 71t13 73q-8 10 -15 20t-17 14q-32 16 -55 5t-45 -27q-30 -22 -66 -54t-52 -64q-16 -24 -22 -53t-18 -49q-8 -12 -19 -19t-15 -17q-2 -10 1 -18t1 -18q-2 -34 -16 -71t-22 -77 q-2 -16 -1 -34t-3 -36q-2 -16 -7 -30t-3 -24z" />
<glyph unicode="A" d="M-216 488q14 6 31 6t36 -2t38 -3t35 5q18 -12 33 -12t28 6t25 13t22 9t18 0t18 -2q16 0 32 5t38 9q30 4 62 5t54 11q14 6 32 21t26 27q4 10 3 19t3 19q10 34 35 60t41 58l9 24t5 14t5 14t13 24q18 28 37 54t45 50q0 12 4 21t8 19q54 22 88 58t68 76q-2 20 8 29t10 29 q0 10 -7 23t-7 27q0 16 13 33t23 31q16 16 25 32t19 30q16 18 33 32t33 34q8 12 13 27t17 23q18 12 50 14l64 4q38 2 83 9t90 15t88 15t79 9q24 3 47 3q11 0 22 -1q33 -2 53 6q28 -24 57 -47t55 -49q8 -40 14 -74q4 -20 4 -41q0 -14 -2 -27q-4 -16 -13 -30t-7 -32 q0 -30 18 -59t26 -63q2 -16 -5 -31t-9 -31t2 -35t8 -39q0 -24 -2 -48t2 -50t10 -53t4 -55q-4 -28 -11 -52t-7 -50v-18q0 -26 4 -51q2 -12 2 -25q0 -21 -6 -42q16 -20 17 -40t-3 -40t-8 -41t4 -43q4 -14 16 -25t16 -27q6 -20 7 -49t1 -55v-17q0 -54 -11 -97q-13 -50 -15 -108 q0 -26 -1 -58t-11 -50q-10 -12 -32 -25t-38 -15h-6q-28 0 -63 16q-39 18 -59 38q-18 20 -33 44t-30 50t-31 49t-36 39q-10 6 -22 12t-18 14q-12 20 -13 45t2 52t6 53t-3 46t-16 31t-25 16t-34 6t-45 3q-94 6 -194 12q-75 4 -152 4h-52q-22 0 -32 -2t-18 -3t-16 -3t-26 -2 q-40 -2 -72 -5t-56 -21q-14 -10 -30 -40t-24 -46q-10 -24 -17 -50t-14 -51t-17 -47t-28 -38q-40 0 -59 -17t-27 -43q-24 6 -55 2l-62 -8t-60 -5t-49 11q-10 6 -16 17t-14 21q-8 12 -17 22t-11 20q-4 12 6 35t18 33q8 6 19 10t21 12q28 22 41 55t23 53q14 10 33 21t15 29 q-18 10 -42 9t-48 1q-40 0 -80 6t-72 10q-52 10 -91 48q-34 33 -34 81q0 7 1 15zM624 570q36 -10 62 -10t51 3t52 8t63 7q68 2 131 2.5t119 5.5q8 4 15 6t23 -2q0 10 10 11t16 5q8 14 8 23t-3 16t-8 16t-5 25t5 33t7 35q2 14 -3 30t-3 32q2 14 12 25t10 25q0 8 -3 18t-5 20 q-2 14 -1 28t-3 24q-4 16 -20 30t-20 30q-6 20 -1 45t5 49q-2 34 -6 62t-20 56q-18 10 -28 10q-3 0 -5 -1q-11 -3 -18 -14t-12 -25t-17 -24q-54 -48 -84 -97t-74 -107q-18 -22 -37 -44t-34 -48t-23 -54t-4 -62q-10 -16 -17 -23t-15 -13t-17 -14t-21 -22q-22 -28 -48 -57 t-34 -63z" />
<glyph unicode="B" horiz-adv-x="1652" d="M-122 -6q4 10 12 13t10 15q56 16 89 51t69 109q8 16 14 30t16 28q10 16 12 28t8 24q8 18 9 37t2 37t6 34t21 26q-4 26 -4 54t12 58q6 16 16 26t14 22q6 20 1 43t3 49q6 22 23 46t23 48q10 42 12 85t12 89q4 12 11 22t11 24q10 28 10 64t6 70q10 48 22 85q7 20 7 41 q0 18 -5 36q-8 30 -31 65t-39 45q-24 16 -50 23t-48 25q-22 2 -33 8t-7 22q2 12 17 20t33 10t33 -2t21 -16q24 -2 60 -2t56 -12q38 2 94 7q16 1 32 1q37 0 68 -8q10 -2 21 -9t19 -7q18 2 34 18t34 20q40 0 93 5t99 9q12 1 24 0q25 0 52 -2q40 -4 74 -4q28 0 58 -3t70 -11 q48 -6 90 -10t86 -20q24 -10 50 -25t56 -25q32 -14 70 -19t60 -17q10 -6 16 -17t16 -17q6 -4 16 -5t18 -5q24 -16 40 -50t26 -68q8 -24 13 -59q4 -25 4 -51q0 -10 -1 -21q-2 -37 -12 -72t-30 -59q-4 -4 -10 -9t-12 -11q-24 -22 -51 -41t-67 -29q-6 -24 -19 -37t-31 -21 t-39 -13t-43 -17q-34 -18 -63 -37t-69 -29q2 -18 12 -27t24 -13t30 -7t28 -9q14 -6 26 -17t26 -21q18 -10 28 -21t16 -23t11 -28t15 -38q10 -28 26 -58t20 -64q2 -18 -2 -42t-13 -49t-20 -47t-23 -34q-44 -40 -109 -75t-133 -67q-14 -6 -28 -14t-26 -14q-20 -4 -37 1t-33 1 q-16 -2 -26 -9t-26 -11q-28 -10 -63 -12t-73 -8q-14 -4 -28 -2t-28 -2q-30 -6 -66 -14t-76 -8q-56 0 -110 4q-27 2 -55 2t-57 -2q-28 -2 -53 3t-53 3q-56 -2 -95 -6t-75 -8t-74 -9t-94 -7q-36 0 -74 3t-52 37zM476 192q2 -12 22 -18t45 -10t50 -7t39 -5q6 -2 13 -2 q10 0 22 4q19 6 38 15t36 17t29 10q18 4 38 -1t42 -3q52 4 96 37t66 67q24 44 30 108q2 24 2 45q0 36 -6 65q-4 20 -21 47t-31 37q-8 4 -19 7t-21 9q-8 4 -12 11t-12 11q-14 6 -38 5t-46 5q-12 4 -24 10t-22 6q-16 4 -35 0t-39 -4q-22 2 -40 5t-34 -1q-38 -6 -51 -38 t-27 -72q-12 -28 -14 -63t-10 -71q-6 -28 -18 -54t-16 -48q-2 -10 -1 -20t-3 -18q-6 -18 -20 -42q-10 -17 -10 -32q0 -6 2 -12zM654 862q14 -20 37 -31q17 -8 41 -8q9 0 18 1q20 4 40 12t46 10q14 0 29 -2t33 0q20 2 47 11t54 21t51 27t40 29q14 12 29 32t27 42t18 46 q4 18 4 35v11q-2 10 -15 36t-23 38q-16 18 -53 45t-71 43q-8 4 -16 4t-18 4q-16 6 -30 20t-26 18q-23 5 -47 5q-21 0 -42 -4q-45 -9 -61 -35q-4 -10 -2 -20t-2 -18q-6 -10 -17 -14t-15 -20q18 -22 8 -49t-20 -57q-16 -58 -30 -118t-34 -114z" />
<glyph unicode="C" horiz-adv-x="1410" d="M1 542q-2 23 -2 47q0 66 15 131q4 16 11 28t11 26q6 18 8 38t6 36q18 66 48 121t64 109q16 24 33 44t35 44q8 10 15 21t17 21q16 16 36 27t36 27q22 26 33 63t33 63q4 6 15 14t24 16t26 15t21 11q42 20 87 25t97 21q30 10 62 20t60 14q46 8 106 10h20q49 0 92 -8 q8 -2 14 -5t16 -5q22 -4 43 0t39 0q10 -2 18 -7t20 -7q10 -4 22 -3.5t24 -2.5q12 -4 26 -9t26 -9q28 -4 60 -4t60 2q54 4 106 14q26 5 52.5 5t53.5 -5q5 -12 5 -23q0 -17 -12 -32q-19 -23 -39 -33q-36 -18 -87 -24t-91 -22q-22 -10 -34 -25t-34 -21q-70 0 -139 2h-35 q-53 0 -108 -4q-14 -2 -28 -7t-28 -5q-18 0 -37 6t-39 2q-10 -2 -17 -9t-17 -15q-36 -22 -80 -43t-82 -47q-34 -24 -58 -61t-50 -77q-8 -14 -17 -27t-13 -23q-4 -12 -3 -27t-3 -31q-4 -24 -10 -52t-16 -52q-10 -26 -21 -51t-15 -49q-4 -28 -5 -55t-11 -57q-6 -26 -13 -51 t-9 -53q0 -9 -1 -18q0 -36 7 -71q8 -43 8 -89q34 -40 63 -77t77 -53q18 -6 40 -6t46 3t49 6t49 1q18 -2 29 -7t22 -9t24 -8t31 -2l68 4t68 6q54 4 99 20t87 30q10 4 20 4t20 4q16 6 29 14t31 16q18 10 37 20t29 6q14 -4 17 -27t1 -29q-4 -14 -22 -24t-36 -26 q-20 -14 -34 -26t-28 -22q-34 -24 -71 -44t-67 -40q-28 -16 -46 -33t-46 -27q-30 -12 -68 -15t-66 -13q-22 -8 -33 -23t-39 -23q-52 -18 -110 -22q-19 -1 -39 -1q-40 0 -83 5q-96 14 -189 47t-165 73q-10 28 -36 44t-42 42q-22 28 -37 59t-49 51q2 13 2 24q0 31 -16 51 q-22 27 -44 51q-22 82 -29 172z" />
<glyph unicode="D" horiz-adv-x="1718" d="M-184 -22q2 8 12 17t24 17t28 15t24 13q46 32 72 58t54 78q10 18 19 31t15 25t10 26t4 36q6 14 21 19t19 21q4 14 -2 25t-4 27q0 8 4 17t8 19q6 24 10 49t9 49t13 44t24 32q4 36 21 70t23 74q2 10 0 22t0 22q4 22 13 42t13 42q12 52 24 101t22 93q6 22 4 41t2 37 q6 40 12 76q3 18 3 35.5t-3 34.5q-4 12 -12 25t-12 29q-4 10 -4 19t-4 19q-8 18 -23 27t-29 19t-23 25t-5 43q14 14 34 17q10 2 21 1.5t22 -1.5q23 -3 47 -10t46 -11q24 -3 51 -3h13q34 1 71 3t74 2t71 -4q10 -2 15 -6t13 -4q16 2 27 9t27 11q27 4 54 3q45 0 87 -10 q67 -17 133 -27q64 -10 129 -16t107 -32q22 -16 40 -35t40 -31q34 -18 73 -30t73 -28q10 -4 18 -11t18 -11q16 -10 30 -14t28 -18q14 -10 23 -26t19 -32q18 -28 38 -48t32 -54q4 -18 7 -36t9 -34q16 -44 25 -105q3 -20 3 -41q0 -41 -12 -84q-4 -14 -12 -26t-12 -26 q-28 -72 -64 -139t-98 -131q-20 0 -40 -8q-14 -22 -23 -46t-25 -42q-8 -10 -21 -18t-23 -20q-42 -52 -94 -107t-106 -89q-16 -10 -35 -20t-33 -16q-10 -4 -19 -4t-19 -4q-22 -10 -38 -27t-34 -31q-13 2 -26 2q-28 0 -54 -9q-38 -13 -80 -13q-66 0 -145 -5t-159 -9 q-28 -2 -55 -4t-59 -2q-26 -1 -51 -1t-49 1q-48 2 -94 2h-19q-47 0 -88 -8q-49 -10 -109 -16q-40 -4 -77 -16t-65 -12q-10 0 -22 3t-22 9t-17 14q-5 6 -5 15v5zM520 256q2 -20 17 -40t25 -38q28 0 52 3t52 1q20 -2 37 -8t35 -8h7q35 0 62 18q29 20 53 36q18 10 38 18t32 16 q42 26 77 66t65 88t55 99t47 97q14 28 28 55t24 53q9 26 9 49q0 8 -1 16q-4 31 6 61q4 10 16 21t14 25v5q0 16 -11 24q-13 9 -15 27q-2 12 2 25t4 27q0 28 -7 59t-19 60t-30 53t-38 38t-58 28t-82 23t-87 11h-20q-29 0 -49 -4q-30 -10 -45 -30t-26 -45t-21 -52t-28 -49 q-8 -8 -25 -15t-21 -23q-4 -12 4 -27t8 -27q0 -18 -8 -31t-12 -29q-10 -34 -18 -69t-20 -73q-12 -34 -27 -69t-19 -67q-10 -60 -17 -127t-23 -123q-12 -38 -29 -76q-14 -31 -14 -59q0 -7 1 -13z" />
<glyph unicode="E" horiz-adv-x="1470" d="M2 258q4 36 24 71t30 75q8 34 8 66t8 66q28 30 39 64t25 86q4 18 12 38t8 36q2 18 -5 35t-7 37q0 22 12 52t22 58q10 32 15 62t13 58q4 14 11 25t11 23q6 26 10 56t6 60t-1 58t-13 50q-8 12 -28 32l-30 30q-10 8 -24 14t-14 16q-2 12 6 18t18 8t22 1t20 -1q64 -8 124 -15 q32 -4 68 -4q31 0 64 3l40 5t49 6t48 5t37 0q6 -2 13 -6t17 -8q38 -14 88 -21q15 -2 31 -2q35 0 71 11q35 -5 73 -4q45 0 91 6q86 12 172 16q22 2 44 -3t46 -7q23 -3 48 -3q12 0 25 1q39 2 79 6q34 4 71 5t67 7q26 4 55 13q17 5 36 5q12 0 25 -2q4 -10 4 -20q0 -14 -9 -24 q-15 -18 -35 -28q-46 -26 -100 -43t-100 -45q-28 -16 -50 -38t-56 -34q-34 -10 -75 -12t-85 -6q-46 -4 -90 -14q-31 -7 -59 -7q-11 0 -21 1q-16 2 -34 7t-34 7t-36 -2t-38 -6q-12 -2 -26 0t-30 0q-18 -2 -39 -4t-41 -7t-35 -13t-21 -22q-10 -58 -27 -108t-35 -100 q-10 -26 -21 -56t1 -58q50 -8 99 -8q35 0 70 4q52 6 102 6q30 0 59 -2q22 -2 48 -5t48 -7q16 -4 33 -19t35 -19q28 -6 54 -3t50 -1q18 -10 28 -29t30 -31q12 -10 27 -10t27 -12q0 -30 -10 -47t-26 -23t-38 -6t-48 2q-29 3 -65 3h-18q-47 -1 -87 -3q-26 0 -50 -2t-44 2 q-16 4 -29 17t-33 15q-18 4 -41 -3t-45 -11q-64 -12 -121 -29t-115 -29q-40 -80 -64 -192l-8 -48t-2 -43t14 -31t42 -12q26 0 57 4l62 8t64 5h7q29 0 58 -7q18 -4 36 -18t42 -12q16 2 30 17t32 21q24 10 54 11h31h33q34 -1 69 -4t67 -3q56 0 121 -4t111 -20q18 -26 4 -52 t-40 -30q-24 -34 -52 -48t-76 -30q-36 -10 -62 -26t-70 -18q-58 0 -116 1h-11l-105 -9q-40 -8 -77 -18t-77 -16q-100 -16 -193 -38t-199 -26q-22 -2 -44 -6q-11 -2 -20 -2t-16 2q-16 2 -26 16t-26 22q-14 4 -26 6t-22 6q-12 6 -22 19t-22 25q-12 14 -25 26t-23 28 q-18 34 -31 76q-9 29 -9 62q0 16 2 32z" />
<glyph unicode="F" horiz-adv-x="1272" d="M-20 -24q34 76 70 165t62 181q10 40 12 98t6 104q4 22 14 44t8 44q0 18 -14 34t-28 34t-19 38t11 44q8 12 25 16t35 7t35 9t23 18q-6 24 11 38t21 30q4 14 2 32t2 38q4 16 11 32t11 32q4 14 1 28t1 30q4 10 17 25t15 27q0 10 -9 17t-13 17q-2 12 4 23t6 23q0 16 -7 36 t-11 40t-7 41t-7 33q-6 18 -26 35t-34 33t-14 32t30 28q134 -23 288 -23h13h64q129 0 257 -3q26 0 43 -2t32 -4t30 -2h37q48 0 98 10t100 14q41 4 79 5q33 0 64 -4q43 -4 84 -4q24 0 47 1q76 6 140 16t136 28q8 4 22 4t26 -4q-10 -32 -29 -53l-38 -42t-33 -48t-14 -71 q-34 -42 -77 -50t-101 -14q-60 -6 -113 -8h-13q-47 0 -100 12q-24 4 -47 11t-49 11q-32 3 -68 3h-19q-47 -1 -87 -5q-70 -6 -111 -21t-81 -51q-16 -14 -29 -38t-29 -46q-10 -12 -22 -20t-18 -20q-6 -10 -9 -25t-7 -31q-10 -34 -24 -78t-20 -86q20 -14 44 -16t51 1t55 9t54 8 q32 3 65 3h16h16q32 0 61 3q34 2 63 -4t61 -10q36 -4 70 -8t34 -28q0 -10 -14 -24t-24 -18q-26 -16 -56 -22t-59 -12t-57 -15t-48 -27q-14 -12 -26 -33t-32 -31q-12 -6 -28 -6t-32 -2q-72 -14 -153 -35t-141 -47q-10 -20 -15 -44t-10 -49t-14 -46t-25 -35q3 -17 3 -33 q0 -21 -5 -41q-8 -34 -16 -80q-4 -30 -9 -64t-15 -58q-2 -8 -9 -21t-15 -26t-16 -23t-14 -12q-16 -8 -36 -3t-36 1q-20 -6 -34 -20t-26 -30t-25 -32t-31 -26q-18 2 -37 3t-36 5t-30 12t-19 24q-23 -17 -44 -17q-14 0 -27 8q-33 19 -45 53z" />
<glyph unicode="G" horiz-adv-x="1678" d="M24 546q-5 38 -5 76q0 46 7 91q12 83 40 151q2 6 8 11t10 13q4 10 4 19t4 15q12 22 20 46t24 48q16 30 32 62t38 48q14 8 29 14t29 13t25 18t15 31q2 12 -4 23t0 21q62 76 160 130q10 4 21 8t21 8q14 8 26 18t30 14q34 10 71 19t77 15q14 2 28 5t26 7q20 2 57 1t78 -3 t80 -3t61 3q14 4 27 10t29 8q10 1 19 1q22 0 38 -4q23 -5 65 -9q26 -2 51 -6t53 -6q17 -1 34.5 -1t35.5 1q36 2 70 2t67 -4t59 0q18 4 34 12t34 6q16 -4 34 -18t18 -30q0 -18 -27 -40t-45 -30q-58 -24 -126 -37t-148 -19q-26 -2 -51 -2t-47 -4q-12 -4 -23 -9t-21 -9 q-28 -8 -59 -8t-61 -4q-58 -6 -127 -17t-107 -41q-10 -8 -28 -16t-36 -17t-35 -18t-25 -19q-24 -24 -41 -42t-27 -58q-10 -4 -24 -5t-24 -7q-4 -16 -7 -32t1 -32q-20 -46 -49 -92t-57 -82q-20 -72 -37 -133t-17 -149q-4 -10 -8 -22t-4 -28q0 -12 7 -22t7 -22q4 -18 -5 -36 t-9 -36q0 -14 6 -24t2 -24q26 -28 53 -44t47 -50q6 0 19 -8t29 -17t35 -18t35 -11q24 -2 42 1t52 7q88 10 156 56t108 98q0 40 8 68t24 56q10 16 22 26t14 34q2 12 1 27t1 31t-8 31t-14 25q-4 16 -30 36t-42 32q-14 10 -30 22t-25 24t-7 25t26 23q42 -2 90 -8t99 -11t101 -9 q25 -2 48 -2t44 2q28 2 44 5t28 6t27 7t41 8q16 2 27 0t21 -2q14 4 28 11t30 9q20 2 35 0t28 -6t29 -8t38 -6q36 -4 55 -8t19 -32q0 -18 -13 -26t-32 -11t-40 -4t-39 -3q-20 -4 -30 -9t-16 -11t-11 -13t-17 -11t-22 -9t-22 -9q-26 -10 -36 -32t-26 -46q-16 -18 -17 -31 t-13 -29q-20 -30 -38 -78t-32 -86q-24 -66 -33 -139t-25 -141q-6 -22 -7 -47t-5 -49q-6 -16 -13 -33t-9 -33q-4 -18 -2 -35t-4 -35q-10 -4 -23 -8t-17 -12q-10 -14 -10 -43t-14 -45q-8 -10 -27 -19t-31 -13q-16 -4 -35 2t-41 4q-28 -2 -48 -20t-46 -32q-16 -10 -45 -18 t-49 -18q-14 -8 -27 -16t-25 -12q-8 -3 -16 -3l-8 1q-12 2 -24 16q-10 34 -1 58t24 44t31 40t24 48q10 34 13 63t13 57q16 34 40 62t34 66q-34 -14 -73 -33t-91 -27q-8 -2 -16 -1t-16 1q-18 -4 -34 -9t-32 -9q-22 -2 -33 1t-31 3q-44 -2 -72 -8q-12 -3 -26 -3q-18 0 -40 5 q-22 4 -47 16t-49 22t-50 18t-46 18q-34 16 -67 38t-73 34q-40 52 -78 126t-48 148q-2 18 0 37t-2 37q-4 10 -11 20t-11 20q-6 14 -11 40t-9 46z" />
<glyph unicode="H" horiz-adv-x="1800" d="M-59 -31q9 31 13 59q2 14 0 26t0 24q4 30 15 73t25 75q6 16 16 27t18 27q8 20 10 38t10 34q4 18 13 33t13 31q4 14 3 28t3 30q2 10 8 18t8 18q2 22 -10 43t-22 41t-12 42t20 46q20 6 41 11t35 15q10 40 16 78t16 76q4 20 13 38t13 34q4 18 2 37t4 35q4 16 16 26t18 26 q-16 24 -13 60t14 76t25 81t20 79q10 42 20 74t48 40q25 -3 50 -3q47 0 92 10q70 15 140 33q10 2 11 -7t9 -11q14 14 36 21q19 6 39 6h6q23 -1 45 -8t36 -19q0 -14 -8 -25t-18 -20t-21 -19t-17 -22q-2 -4 -1 -13t-3 -15q-10 -28 -28 -61t-32 -67q-6 -16 -13 -33t-17 -33 q-8 -16 -19 -33t-13 -29q-2 -10 3 -19t5 -19q-4 -20 -12 -42t-12 -44q-4 -26 -7 -49t-9 -43q-10 -28 -22 -65t-18 -77q70 0 135 18t123 38q14 -4 42 -6t59 -2t63 1t56 5q24 2 58 11t44 21q16 22 22 64t16 80q10 34 24 66t22 62q4 12 3 25t3 25q10 34 30 66t26 54t8 46t5 46 t8 41t19 33q8 4 15 9t15 11q26 -8 46 -8t39 3t37 9t42 12q18 -16 28 -35t38 -21q12 0 24 8t28 12q28 8 69 19t71 11q34 2 62 -5t62 3q8 -8 14 -18t0 -30q-20 -16 -41 -27l-42 -22t-40 -23t-35 -30q-28 -32 -47 -76t-41 -84q-8 -14 -18 -27t-14 -23q-12 -30 -16 -65t-12 -69 t-18 -65t-14 -65q26 -10 50 -5t56 3q16 -2 32 -6t36 -6q30 -2 54 1t52 1q10 0 26 -1t31 -5t26 -11t11 -19q2 -16 -25 -33t-45 -25q-34 -16 -65 -18t-75 -12q-28 -4 -49 -21t-55 -23t-58 -7t-64 -5q-40 -52 -53 -121t-23 -139q-8 -52 -20 -105t-28 -99q-6 -26 -23 -47 t-33 -51q-10 -22 -17 -44t-19 -36q-16 -16 -44 -24t-46 -20q-24 -20 -39 -40t-43 -36q-20 -2 -33 -2t-23 2t-19 7t-21 15q-4 12 -2 21t-2 23q-12 4 -19 -7t-23 -11t-32 19t-14 37q2 14 10 33t12 41q4 18 7 39t9 39q4 10 10 20t8 22q6 32 5 61t5 57q4 10 9 18t9 18 q12 34 24 66t22 64q10 34 23 68q9 23 9 46q0 10 -2 20q-26 2 -50 -4t-48 -14t-50 -15t-54 -7q-12 0 -33 2t-45 4t-47 1t-37 -3q-24 -4 -49 -16t-53 -20q-28 -6 -51 -16t-47 -14q-22 -14 -32 -41t-17 -57t-18 -56t-37 -36q12 -12 10 -49t-8 -69q-10 -54 -27 -102t-39 -86 q-32 -14 -61 -29t-69 -19q-10 4 -13 15t-5 23q-10 -24 -27 -39t-37 -27t-39 -24t-31 -32q-46 0 -80 -1h-4q-32 0 -62 15q-5 17 -5 33q0 15 4 30z" />
<glyph unicode="I" horiz-adv-x="820" d="M-112 -22q6 26 23 44t38 35t40 37t27 48q6 22 4 43t2 45q4 36 17 81t27 85q14 42 26 83t24 77q8 20 27 39t23 49q2 16 -3 31t-3 25q2 14 10 26t12 26q4 10 6 22t6 22q10 36 20 81t20 83q10 34 27 62t23 58q0 14 -9 19t-13 19q10 22 8 59q-1 18 -1 35t1 32q4 36 9 63 t-9 57q-10 22 -26 40t-10 50q24 6 47 9t51 1q14 -2 26 -8t28 -10q25 -3 50 -3q21 0 41 2q45 5 87 5t62 -2t56 2q46 4 90 19t86 21q10 2 22 2t26 -2q28 -4 46 -20q1 -5 1 -10q0 -22 -16 -28q-19 -8 -35 -16q-32 -16 -50 -38t-40 -50q-14 -18 -25 -30t-21 -34q-4 -10 -5 -25 t-7 -27q-16 -44 -43 -88t-37 -82q-4 -20 -5 -38t-5 -38q-8 -26 -22 -57t-26 -63q-16 -40 -35 -89t-33 -95q-8 -30 -13 -61t-11 -63q-4 -30 -6 -64t-12 -60q-8 -20 -27 -34t-29 -36q4 -8 11 -12t5 -16q-6 -12 -12 -27t-4 -31q4 -20 19 -37t19 -33q4 -12 2 -22t2 -20 q6 -22 23 -42t33 -30q24 -16 51 -24t39 -36l-16 -22q-38 10 -78 10h-14q-16 -1 -32 -1q-32 0 -62 3q-22 4 -45 12t-47 12q-62 12 -113 12q-29 0 -54 -4q-71 -10 -147 -34q-16 -6 -33 -13t-35 -13t-37 -7h-3q-18 0 -34 9z" />
<glyph unicode="J" horiz-adv-x="732" d="M-824 -358q-5 32 -5 66q0 36 6 74q11 72 55 106q10 10 30 18t36 18t30 24t28 20q24 14 51 20t55 16q40 -10 81 -23t69 -37q18 -22 30 -58t15 -76q1 -10 1 -20q0 -30 -7 -58q-9 -38 -33 -62q-20 4 -40 3t-32 9q-8 12 -7 24t6 23t11 22t8 21q8 34 -4 58t-34 44 q-34 -4 -65 -16t-54 -34t-34 -55q-8 -24 -8 -54q0 -11 1 -23q2 -16 8 -37t16 -40t24 -33t30 -20q24 -6 50 -3t58 3q26 -2 48 -4t38 2q24 6 41 17t31 24t27 27t29 24q44 68 91 134t75 148q6 16 7 35t5 37q6 26 21 51t15 55q22 20 27 41t15 55q4 16 14 29t14 29q20 48 30 101 t20 111q6 32 17 67t22 71t20 71t11 69q0 18 -2 30t4 28q6 18 18 24t16 18q10 26 3 57t-9 49q0 28 11 57t26 59t30 59t19 55q6 24 6 54q-2 30 -6 64t-16 54q-14 10 -12 14t0 6q-6 6 -18 13t-23 14t-20 15t-9 16q0 14 11 21t27 10q12 2 25 2h8q17 -1 29 -3q30 -4 53 -10t61 -8 q24 -2 43 0t37 4t38 5t50 3q72 4 127 4t125 4q4 0 15 1h7q8 0 16 -1q12 -2 21 -5t13 -9q-4 -14 -16 -18t-22 -12q-26 -18 -54 -43t-48 -53q-16 -22 -29 -48t-7 -58q-22 -52 -24 -108t-22 -106q-10 -32 -30 -60q-18 -25 -18 -61v-7q-10 -6 -20 -11t-16 -15q6 -30 -9 -54 t-15 -54q0 -22 8 -41t6 -37q-2 -14 -10 -25t-12 -27q-12 -36 -24 -77t-24 -85q-12 -40 -29 -77t-25 -73q-4 -10 -3 -21t-1 -21q-6 -28 -19 -60t-25 -62q-12 -32 -24 -63t-22 -63q-10 -28 -25 -55t-29 -55q-16 -32 -26 -65t-24 -55q-18 -36 -48 -64t-52 -52q-2 -32 -13 -54 t-26 -40t-32 -35t-33 -35q-28 -30 -57 -49t-63 -41q-58 -36 -137 -69q-70 -29 -146 -29h-19q-62 2 -120 18t-109 43t-92 61t-67 70q-22 30 -41 59t-25 69z" />
<glyph unicode="K" horiz-adv-x="1534" d="M-162 -26q-1 6 -1 12q0 12 5 26q8 20 34 16q24 22 46 43t42 47q8 32 29 62t33 66q6 18 7 37t11 35q8 14 24 20t24 18q2 22 -9 29t-11 21q-2 10 8 36t18 54q14 52 24 96t18 96q2 14 1 30t3 26q6 20 24 38t24 40q4 16 0 34t0 36q4 16 11 26t15 24q26 76 47 163q10 42 10 82 q0 42 -11 81q-10 42 -25 80t-41 52q-16 8 -35 8t-19 18q0 14 18 22t43 13t50 7t39 2q28 2 61 -14t63 -16q28 0 58 -1t58 -3q32 -2 61 2t61 4q52 2 103 13q27 6 52 6q23 0 45 -5q16 -14 9 -29t-23 -31t-34 -32t-26 -32q-8 -28 -16 -55t-24 -51q-4 -6 -13 -10t-15 -12 q-28 -42 -48 -92t-46 -104q-8 -6 -18 -22t-18 -26q6 -12 3 -28t-7 -32t-6 -30t4 -22q4 -6 24 -11t36 -1q30 8 54 31t48 45q24 20 51 34t56 27t59 28t60 37q46 34 84 71t82 73q22 16 38 30t38 22q14 4 28 1t24 1q16 8 28 30t30 36q10 8 19 11t21 13q16 10 31 22t35 24 q16 10 34 20t34 24q34 24 68 50t62 44q10 6 19 8t17 6q20 10 37 26t35 32t38 29t44 15h8q16 0 27 -6q13 -8 29 -10q17 -22 17 -59q0 -24 -7 -53q-4 -16 -6 -33t-6 -27q-6 -14 -21 -34t-37 -32q-16 -10 -37 -22t-37 -16q-12 -4 -21 -1t-19 1q-24 -8 -37 -29t-21 -41 q-34 -28 -72 -45t-74 -39q-40 -22 -78 -40t-76 -38q-48 -24 -90 -62t-88 -68q-48 -28 -93 -61t-81 -71q-12 -4 -38 -16t-30 -28q-2 -8 5 -18t17 -21t19 -18t11 -9q10 -8 19 -11t17 -9q24 -20 43 -43t29 -51q10 -26 19 -60t19 -68q12 -40 25 -76t21 -84q10 -68 16 -138 t26 -132q4 -10 5 -21t5 -21t8 -19t6 -19q2 -14 -1 -31t1 -27t17 -32t21 -32q10 -16 23 -33t25 -35q14 -18 25 -36t23 -32q24 -28 58 -48t58 -40q12 2 25 -1t27 -7t29 -8t29 -2q8 2 26 12t37 25t35 32t22 29q6 10 10 33t4 33q-2 22 -22 45t-44 25q-26 2 -44 -15t-34 -31 q-4 -4 -14 -13t-22 -18t-22 -17t-16 -8q-20 -4 -31 13t-3 47q4 14 18 31t22 31q10 20 16 35t20 29q22 24 57 38t72 18q11 1 21 1q26 0 50 -7q34 -10 56 -34q6 -6 11 -20t9 -26q12 -24 27 -48t19 -48q2 -10 1 -27t1 -33v-12q0 -45 -13 -71q-15 -29 -43 -69q-14 -20 -29 -42 t-29 -32q-10 -8 -24 -10t-24 -8q-12 -8 -21 -20t-19 -20q-22 -14 -61 -24t-67 -14q-42 -6 -85 -6q-16 0 -32 1q-59 3 -97 21q-20 10 -34 24t-36 18q-28 4 -48 2t-38 6q-40 18 -64 48t-52 64q-4 6 0 13t10 11q-14 18 -33 26t-33 24q-26 24 -34 60t-12 78q-26 12 -50 16 q-18 14 -27 33t-19 37q-10 16 -22 32t-20 36q-6 18 -10 40t-10 46q-12 48 -19 103t-15 109q-4 26 -5 51t-1 47q4 50 12 101q4 23 4 45q0 28 -6 54q-2 10 -8 24t-14 28t-17 25t-17 13q-24 8 -55 -1t-53 -19q-14 -4 -41 -16t-35 -22q-10 -14 -9 -32t-7 -38q-4 -14 -14 -24 t-14 -20t-1 -20t1 -20q0 -12 -5 -25t-9 -29q-6 -28 -8 -59t-6 -59q-6 -32 -13 -62q-4 -19 -4 -40q0 -12 1 -24q4 -24 19 -54t11 -42q-8 -24 -46 -27q-23 -2 -44 -2q-14 0 -28 1q-36 4 -73 8q-25 3 -47 3q-11 0 -22 -1q-48 -2 -96 -15t-94 -23q-44 -10 -92 -23q-20 -5 -40 -5 q-26 0 -52 10z" />
<glyph unicode="L" horiz-adv-x="1362" d="M-52 18q-1 7 -1 13q0 32 17 58q20 31 32 67q20 48 38 101t28 105q8 44 8 100t16 100l90 226q-8 32 -6 58t10 52t18 53t20 61q10 42 21 85t15 97q4 46 4 90t-24 74q-6 8 -20 17l-28 18t-24 20t-10 21q0 14 13 23t31 14t38 6t38 1q34 -2 71 -8t71 -10q10 -2 20 0t20 0 q16 -2 29 -8t25 -6q10 -2 37 1t37 1q12 0 23 -5t25 -7q16 -2 32.5 -2t33.5 2q34 4 67 8t68 7q12 1 23 1q24 0 48 -4q-2 -26 -23 -39t-35 -23l-15 -15t-15 -13q-10 -8 -18 -13t-16 -13q-24 -26 -34 -51t-26 -61q-4 -10 -11 -19t-13 -19q-4 -12 -7 -26t-9 -24q-8 -12 -23 -21 t-25 -25q8 -24 4 -47t-11 -44t-17 -42t-14 -41l-76 -192q-14 -52 -34 -104t-28 -116q-2 -16 1 -36t3 -42t-3 -53t-2 -60t8 -52t27 -29q24 -8 56 -4t66 11t69 15q28 6 54 6h13q28 -2 58 -9t58 -3q16 2 33 7t33 7q22 2 47 0t51 2q24 4 50 10t48 8q32 0 63 -6t60 -15t59 -15 t60 -6q18 2 35 7t31 -15q-4 -22 -15 -33t-21 -25q-43 -15 -81 -15h-5h-16q-33 0 -68 -3q-60 -4 -130 -24t-128 -36q-34 -10 -70 -23t-76 -23q-48 -16 -96 -28t-94 -30q-48 -20 -95 -44t-99 -36q-32 -10 -66 -19t-64 -9q-24 0 -49 5t-48 15t-41 24t-28 30q-20 -14 -38 -16 t-36 1t-36 9t-38 8q-10 18 -23 32t-25 30z" />
<glyph unicode="M" horiz-adv-x="2110" d="M-52 172q-1 10 -1 20q0 20 5 38q8 28 20 46q6 12 16 21t16 19q8 16 1 45t3 51q14 30 30 57t18 67q2 16 -2 34t0 34q2 16 7 33t11 39q6 30 22 64t26 74q8 16 14 33t12 33q12 34 17 67t15 65q4 12 13 21t13 19q16 34 16 71t8 77q6 38 15 69t15 58t3 51t-21 50 q-10 14 -21 20t-13 16q0 24 19 27t43 -3t47 -15t29 -11q10 -2 24 0t30 -2q18 -2 36 -6t32 -6q32 0 46 1t44 3q14 1 31 1t38 -1q14 -1 26 -1q25 0 45 3q26 2 65 8t76 10q21 2 40 2q14 0 26 -1q29 -3 33 -21q6 -22 -11 -39t-21 -35q-4 -48 -10 -107q-3 -30 -3 -54.5t3 -44.5 q4 -22 2 -43t4 -37q12 -44 18 -84q2 -24 19 -45t15 -43q-2 -28 11 -57t15 -61q4 -32 5 -66t21 -62q20 16 25 40t15 46q4 10 13 19t17 19q22 46 55 97t57 103q26 50 50 101t46 103q4 8 15 18t23 20t23 19t17 19q30 56 51 97t31 103q12 1 24 1q23 0 45 -3q33 -4 73 -10 q16 -4 29 -10t27 -8q28 -4 45 -2t30 5t26 4t37 -7q68 0 140 10t145 21t146 19t143 8q14 -24 14 -46q-46 -12 -81 -27t-63 -34t-51 -46t-45 -63q-12 -18 -27 -28t-25 -30q-14 -26 -22 -57t-16 -63q-4 -10 -8 -21t-8 -21q-4 -22 -2 -42t-6 -40q-6 -16 -16 -26t-16 -22 q-16 -28 -21 -62t-9 -72q-2 -12 -7 -22t-9 -22q-4 -16 -6 -31t-6 -31q-14 -40 -29 -81t-21 -81q-4 -22 -3 -43t-3 -43q-10 -58 -28 -111t-34 -103q-10 -36 -15 -67t-17 -65q-8 -18 -12 -33t-16 -29t-34 -22t-46 -14t-47 -11t-41 -11q-18 -8 -30 -23t-26 -28t-31 -18t-45 7 q-2 24 -1 54t5 54q6 34 21 60t29 56q22 52 28 100t26 100q18 12 24 26t7 31t-1 37t2 44q2 24 12 48t14 50q4 22 5 35t2 23t4 21t9 29q8 18 18 36t18 38q16 52 24 110t16 114q4 34 13 76q6 29 6 54q0 11 -1 22q-8 0 -29 -24t-50 -63t-64 -88t-68 -100t-62 -96t-47 -77 q-30 -18 -45 -41t-25 -49t-20 -55t-30 -59q-16 -62 -54 -122t-62 -118q-6 -16 -11 -29t-15 -29q-16 -40 -37 -77t-43 -77q-24 -40 -54 -74q-12 -16 -19 -42t-21 -30q-6 -1 -11 -1q-13 0 -27 6q-20 9 -38 13q-36 52 -42 104q0 14 4 27t2 25q-2 22 -18 49t-20 55 q-4 17 -4 33.5t4 31.5q8 31 0 57q-4 12 -15 21t-15 19q-4 14 -3 32t-1 36q-6 34 -19 76t-23 84q-10 30 -27 70t-21 76q-2 20 -3 37t-3 33q-4 36 -18 78t-29 84t-26 84t-11 82q-10 -4 -18 -18t-16 -34t-14 -40t-10 -32q-6 -10 -16 -22t-12 -28q-2 -8 3 -18t5 -22v-8 q0 -28 -12 -59q-14 -35 -24 -69q-10 -40 -16 -83t-24 -89q-16 -44 -25 -89t-19 -81q-4 -26 -4 -52t-8 -42q-10 -20 -33 -32t-29 -34q-2 -42 -18 -96t-28 -100q-4 -18 -6 -37t-7 -34t-16 -26t-33 -13q-6 -1 -12 -1q-32 0 -63 19q-37 22 -45 46q-4 16 0 33t4 33 q-26 -16 -39 -16t-23 9t-22 24t-32 29q-20 16 -30 19t-14 31z" />
<glyph unicode="N" horiz-adv-x="1618" d="M-102 14q4 28 13 62t20 69t23 68t22 59q6 22 13 42t13 42q6 20 16 39t14 39q4 22 2 43t0 43q4 20 14 44t16 46q20 68 42 131t62 111q0 28 8 52t16 46t10 43t-10 45q8 36 21 69t21 71q2 10 1 22t3 22q4 18 15 39t24 42t24 41t15 36q22 4 42 9t48 5q12 0 24 -3t24 -1 q22 4 33 20t27 24q28 4 55 5t53 9q12 4 31 10t31 6q24 0 39 -18t25 -43t18 -50t22 -39q0 -60 6 -109t10 -113q8 -68 22 -125t30 -117q6 -26 9 -52t13 -48q16 -40 33 -74t21 -74q4 -34 4 -66v-21v-14q0 -34 8 -67q10 -32 22 -52t34 -46q22 28 26 60l8 64q6 34 16 65t20 65 q10 48 27 100t35 94q4 12 14 26t18 28q12 22 5 51t-3 57q4 20 11 43t13 47q14 58 17 124t17 114q6 16 16 44t8 48q0 16 -11 24t-11 24t15 28t36 20t44 12t39 4q18 0 33 -4t29 -8t31 -7t39 -1q34 4 76 9t82 7q20 2 39 3t33 5q20 6 40 13t48 11q24 4 47 11t39 13q6 4 13 5h1 q7 0 16 -9q-18 -34 -43 -53t-53 -39q-24 -22 -54 -39t-52 -39q-42 -46 -73 -113t-59 -133q-8 -16 -21 -32t-21 -34q-22 -54 -37 -114t-28 -121t-27 -123t-34 -120q-10 -10 -24 -17t-20 -21q2 -10 9 -19t9 -21q2 -16 -5 -32t-11 -36q-10 -58 -31 -127t-53 -109 q-18 -60 -33 -122t-49 -108q-18 -6 -33 -16t-37 -10q-10 0 -21 6t-25 10q-16 4 -36 7t-38 9q-18 4 -35 10t-33 6h-48t-46 6q-6 20 -17 37t-19 37q-8 18 -18 40t-12 44q-2 10 2 22t2 22q-4 16 -16 32t-16 32q-2 10 0 21t0 21q-2 14 -9 22t-11 20q-4 6 -2 13t0 13 q-4 14 -13 27t-13 25q-7 28 -7 59v8v14q0 28 -3 55q-4 28 -13 55t-9 57q0 16 6 28t6 26q2 16 -4 28t-8 28q-6 14 -19 20t-25 14q-16 58 -44 133t-44 135q0 4 -3 -11t-8 -37t-13 -46t-20 -38q9 -15 9 -33q0 -16 -7 -35q-14 -40 -24 -80q-14 -58 -26 -117t-32 -117 q-4 -14 -10 -24t-10 -22q-6 -20 -6 -42t-4 -44t-7 -42t-7 -40q-6 -36 -13 -80t-18 -85t-29 -74t-46 -47q-22 -14 -39 -10t-35 16q-10 -2 -12 -13t-10 -15q-28 2 -46 -9t-40 -17q-6 -2 -13 -1t-13 -3q-18 -6 -32 -16t-27 -19t-27 -15t-30 -2q-24 6 -35 26t-27 36z" />
<glyph unicode="O" horiz-adv-x="1666" d="M21 594q1 62 13 136q4 22 14 43t20 43q8 22 15 44t15 42q10 18 28 34t24 38t-1 40t-3 42q6 48 45 85t73 77q44 48 84 80t94 72q8 4 21 9t25 13q10 8 20 17t18 13q18 4 37 1t37 1q16 4 31 16t29 26l28 28t28 22q6 4 15 5t17 5q43 19 91 19q14 0 28 -2q63 -7 127 -11 q48 -4 97 -7t91 -15q28 -8 54 -23t54 -19q48 -42 99 -79t85 -87q8 -10 13 -22t13 -22q16 -22 34 -48t26 -60q4 -24 0 -51t0 -55q2 -12 13 -19t15 -23q6 -28 -3 -56q-6 -19 -6 -43q0 -10 1 -21q0 -22 11 -37t11 -33v-11q0 -22 -6 -44q-8 -27 -12 -53q-16 -82 -29 -140 t-45 -118q-18 -28 -31 -58t-29 -54q-42 -64 -94 -117t-94 -107q-76 -34 -144 -66t-154 -60q-20 -6 -39 -14t-41 -14q-26 -6 -54 -8t-56 -6q-20 -4 -40 -11t-42 -9q-9 -2 -17 -2q-12 0 -24 4q-19 6 -41 10q-16 4 -35 1t-35 -1q-10 2 -20 9t-24 13q-12 6 -27 8t-27 6 q-16 6 -30 15t-30 13q-12 4 -24 4t-22 4q-14 4 -25 17t-27 23t-32 16t-26 14q-28 20 -57 56t-51 76q-18 36 -43 74t-39 80q-4 24 -6 53t-6 59q-3 46 -3 95v25zM434 466q0 -12 4 -25t6 -27q6 -52 12 -88t32 -68q10 -12 28 -21t30 -21q10 -10 15 -20t15 -18q66 -52 188 -52 q38 26 89 46t85 56q14 14 28 37t30 45q32 54 60 111t56 115q26 58 45 123t41 131q8 22 25 48t17 44v5q0 11 -7 22q-9 13 -11 23q0 14 1 25t-1 23q0 12 -4 22l-8 20q-4 18 -6 38t-2 38q0 16 2 31t0 31q-10 48 -42 83t-64 61q-10 8 -16 17t-14 13q-14 4 -31 6q-8 1 -15.5 1 t-13.5 -1q-44 -4 -79 -19t-79 -25q-64 -42 -137 -96t-119 -122q-6 -10 -9 -20t-9 -20q-10 -16 -22 -27t-22 -27q-18 -30 -36 -66t-24 -66q-10 -40 -12 -86t-8 -92q-6 -56 -14 -109q-5 -35 -5 -68q0 -16 1 -31z" />
<glyph unicode="P" horiz-adv-x="1440" d="M-130 -62q-4 12 -4 23q0 15 8 26q14 19 38 35t49 30t35 34q14 36 34 68t34 72q14 38 22 80t24 80q8 16 22 30t18 30q8 30 5 63q-1 8 -1 15q0 25 8 50q4 12 14 22t14 22q6 22 2 46t-2 46q2 18 8 34t10 34q2 8 1 18t1 20q8 22 22 44t22 50q22 70 45 151q20 69 20 142 q0 13 -1 25q-2 12 -5 23t-5 21q-2 28 1 48t-7 40q-6 12 -24 33t-31 44t-15 43t26 30q112 -36 219 -42q64 -4 135 -4q47 0 96 2q54 0 106 6t105 9q32 2 63 1h42q52 -2 104 -16q20 -6 39 -15t37 -17q48 -18 71 -35t45 -59q40 -20 70 -40t51 -44t35 -55t26 -73q9 -36 9 -73 q0 -12 -1 -24q-4 -49 -18 -94t-34 -85t-40 -70q-22 -28 -45 -53t-55 -49q-12 -10 -20 -22t-18 -20q-12 -8 -30 -17l-34 -17t-22 -17t-18 -13q-44 -16 -88 -28t-88 -28q-16 -4 -30 -11t-26 -9q-14 -2 -26 2t-30 4q-18 -2 -39 -11t-47 -11q-13 -1 -26 -1l-38 2q-14 1 -28 1 q-19 0 -40 -2q-28 -2 -48 -4t-34 -9t-25 -20t-23 -37q-4 -12 -8 -27t-8 -31q-14 -38 -22 -77q-5 -26 -5 -53q0 -14 1 -28q0 -12 -1 -23t1 -17q4 -18 15 -32t23 -29t21 -31t9 -38q-30 -23 -76 -23h-11q-53 3 -109 3q-50 0 -88 3q-13 1 -26 1q-27 0 -58 -4q-22 -4 -43 -13 t-43 -13q-16 -2 -33 1t-35 -1q-24 -4 -46 -11t-43 -15t-43 -13q-16 -4 -30 -4q-6 0 -12 1zM604 658q48 -16 116 -16t118 24q26 12 44 30t48 18q16 16 23 38t19 42q30 10 40 34t20 52q4 10 11 19t11 19q26 58 38 109q7 28 7 60q0 26 -5 55q-4 34 -17 57t-31 42t-38 35t-38 36 q-20 4 -45 15q-21 9 -47 9h-10q-20 0 -39 -6t-39 -10q-28 -52 -46 -119t-46 -123q-4 -12 -13 -22t-13 -20q-2 -12 3 -25t3 -25q-2 -14 -7 -25t-9 -23q-8 -26 -13 -56t-15 -58q-12 -44 -28 -84q-9 -21 -9 -43q0 -19 7 -39z" />
<glyph unicode="Q" horiz-adv-x="1678" d="M10 490q0 78 5 158t20 157t39 147t60 126q28 44 51 73t67 61q32 26 59 46t71 30q18 10 33 23t17 43q30 22 75 47t85 41q58 28 127 51t139 25q13 1 27 1l53 -3q40 -4 76 -8q66 0 98 -23t66 -45q12 2 22 2q32 0 58 -18q34 -24 62 -44q10 -6 19 -10t17 -8q12 -10 20 -25 t20 -19t24 -2t22 -2q8 -4 15 -16t15 -20q10 -12 22 -19t18 -17q4 -6 8 -16l8 -20q12 -20 22 -38t20 -46q20 -30 26 -48q4 -16 4 -37t4 -41l12 -68q4 -26 4 -56v-20q-2 -14 -5 -27t-5 -29q0 -16 2 -30t-2 -30q-10 -58 -37 -112t-55 -106q-14 -26 -26 -53t-24 -51 q-12 -28 -31 -45t-35 -39q-4 -8 -6 -16t-6 -18q-16 -32 -40 -64t-50 -60q-8 -10 -14 -21t-14 -19q-24 -30 -63 -49t-65 -43q20 -32 47 -56t56 -45t58 -43t51 -50q29 -7 57 -7q36 0 69 12q58 21 100 49q12 8 25 20t27 20t30 9t34 -11q-4 -16 -11 -38t-19 -38q-18 -20 -44 -43 t-55 -43t-60 -35t-61 -21q-10 -4 -20 -2t-22 -2q-32 -4 -65 -15q-28 -9 -57 -9h-10q-34 0 -70 15t-58 31q-12 10 -19 25t-11 33q-14 -2 -28 -6t-30 4q-10 4 -12 11t-12 17q-4 4 -13 6t-17 8q-10 6 -18 17t-18 17q-28 22 -57 39t-41 45q-50 -10 -126 -19q-36 -4 -71 -4 q-38 0 -75 5q-16 2 -34 7t-36 5q-26 0 -52 2t-36 24q-76 26 -134 69t-106 97q-38 10 -56 36q-10 14 -14 33t-14 31q-4 8 -13 11t-15 9q-8 8 -22 24t-20 32q-4 6 -4 14t-4 14q-4 8 -8 11t-6 9q-8 24 -11 61t-3 65zM410 480q-1 -7 -1 -15q0 -18 4 -34q5 -23 13 -44t17 -39 t15 -36t14 -35t20 -25q30 4 62 16t66 26t67 32q27 15 55 15q6 0 12 -1q10 -2 23 -7t25 -9q32 -12 58 -16t42 -30q4 -24 22 -38t28 -32q38 16 57 45t45 77q22 36 52 88t40 100q10 52 15 107t15 107l16 100t18 98q4 16 9 31t5 31q1 9 1 19.5t-1 21.5q-2 23 -6 43q-4 28 -10 59 t-14 51q-16 50 -47 68t-71 40q-16 8 -28 19t-22 13q-7 1 -15 1q-17 0 -34 -6q-25 -9 -47 -5q-10 0 -18 7q-5 4 -13 4q-4 0 -9 -1q-22 -30 -56 -44t-68 -36q-40 -28 -71 -50t-63 -52l-20 -20t-16 -20q-8 -10 -12 -25t-10 -29t-18 -22t-22 -22q-10 -12 -19 -35t-21 -45 q-16 -34 -30 -64t-24 -72q-8 -28 -17 -66q-6 -26 -6 -51q0 -11 1 -21q2 -12 7 -21t7 -19q1 -10 1 -18q0 -27 -9 -48q-12 -28 -14 -66z" />
<glyph unicode="R" horiz-adv-x="1482" d="M-216 -48q4 24 22 32t30 22q52 10 105 45t69 87q6 18 8 39t6 41q10 52 20 106t26 108q4 10 10 18t10 18q12 34 15 71t13 71q10 26 20 49t16 47q6 26 11 50t19 44q4 34 8 64q3 20 3 44q0 12 -1 26q22 26 41 55t25 69q4 22 -1 42t-5 44q2 52 9 93t11 93q-16 36 -49 49 t-71 37q-6 2 -16 8t-21 13t-18 15t-7 14q2 14 17 23t34 12q14 2 29 2h10q20 -1 34 -3q50 -10 96 -20t95 -17t104 -9h28q44 0 97 4q26 2 45 7t43 7q34 2 67 7q18 3 37 3q15 0 30 -2q29 -3 54 -3q30 0 56 4t53 4q24 0 49 -3q26 -4 49 -15t46 -23t46 -21t47 -11q36 -22 69 -56 t61 -76q22 -34 42 -78t30 -74q12 -32 13 -62q0 -4 -1 -9q-2 -35 -10 -67q-16 -58 -40 -104t-53 -87t-60 -82t-57 -85q-16 -6 -31 -7t-29 -7q-22 -10 -38 -29t-42 -27q-10 -4 -21 -2t-21 0q-22 -6 -41 -15t-45 -13q44 -34 91 -68t75 -82q-6 -18 -2 -29t13 -20l18 -18t13 -23 q6 -26 -4 -59t-14 -65q-4 -16 -5 -33t-5 -33q-8 -42 -12 -80q-1 -8 -1 -17q0 -30 11 -63q10 -32 35 -71t51 -51q10 -6 16 -5t16 -3q12 -6 19 -18t25 -18q19 12 40 12q11 0 22 -3q28 -7 56 -7h12q10 0 18 5t16 5q46 4 95 8t95 18q22 6 46 20l48 28q32 20 65 42q20 13 44 13 q15 0 31 -5v-9q0 -32 -12 -52q-14 -23 -36 -40t-46 -33t-40 -36q-36 -10 -58 -27t-50 -35q-16 -8 -31 -12t-29 -14q-16 -8 -28 -22t-26 -24q-16 -10 -37 -13t-39 -7q-54 -16 -114 -27t-121 -14q-15 -1 -30 -1q-46 0 -91 7q-60 9 -114 33q-30 12 -49 31l-41 41q-26 22 -55 51 t-45 57q-6 16 -11 38t-11 44t-15 49t-9 57v16q0 43 9 89q11 55 20 108t9 102t-20 87q-6 12 -17 23t-21 25q-22 28 -48 51t-72 29q-18 2 -39 2q-16 0 -33 -1q-40 -3 -58 -17q-28 -16 -31 -51t-11 -73q-10 -46 -27 -84q-13 -28 -13 -62q0 -12 2 -24q4 -20 12 -48t16 -44 q6 -14 20 -34t4 -36q-12 -16 -40 -12t-56 6q-34 2 -57 3t-43 0t-42 -4t-54 -7q-16 -2 -25 -4t-16 -5l-14 -6t-21 -7q-12 -4 -22 -11t-20 -11q-34 -10 -74 -13t-76 -3q-14 -1 -27 -1q-21 0 -42 2q-35 3 -63 13zM542 628q32 -6 68 -7q9 0 18 1q46 2 90 12t83 27t65 41 q32 40 70 75t60 81q10 22 17 53t13 59q6 33 6 62q0 23 -4 44q-8 46 -28 82t-50 62t-66 46q-28 16 -57 35q-18 12 -40 12q-14 0 -31 -5q-30 -18 -49 -58t-35 -74q-6 -14 -13 -28t-11 -24q-2 -14 0 -29t-2 -31q-4 -14 -20 -19t-18 -19q0 -14 11 -25t11 -27q-2 -24 -17 -54 t-19 -62q-4 -30 -13 -58l-18 -56t-16 -57q-5 -23 -5 -46v-13z" />
<glyph unicode="S" horiz-adv-x="1280" d="M-82 252v6q0 8 4 15q6 9 8 19q4 22 5 44t17 40q18 4 50 20t61 25t46 5t3 -40q20 -12 28 -31t11 -40t6 -45t13 -46q10 -24 41 -40t47 -34q30 2 56 -6t51 -17t52 -16t59 -3q12 2 25 21t25 21q52 12 96 14t78 32q26 22 41 42t17 48q2 32 -7 51t-25 31t-37 22t-41 26 q-12 8 -23 18t-21 14q-40 18 -87 31t-87 31q-20 10 -34 36t-36 30q-10 4 -22 0t-26 -2q-16 2 -43 18t-37 26q-6 6 -10 17t-12 19q-14 18 -30 32t-22 30q-4 12 -5 22t-5 20q-4 8 -10 14t-12 14q-4 10 -4 21t-4 23q-12 36 -24 63q-9 20 -9 52q0 11 1 23q2 32 -3 50t1 40 q4 16 8 29t10 29q4 14 5 28t5 24q6 10 17 22t19 24q22 34 44 69t58 59q16 32 58 65t84 51q46 22 102 47t96 33q30 6 58 6h60q25 1 44.5 1t33.5 -1q28 -2 68 -8q16 -4 35 -6t33 -6q10 -4 16 -9t20 -7q22 -2 45 5t45 5q40 -4 65 -20t57 -34q18 -10 36 -18t28 -18 q12 -12 24 -34t22 -47t17 -51t7 -44q0 -10 -2 -18t-2 -18q2 -16 12 -36q7 -14 7 -30q0 -6 -1 -12q-2 -16 -15 -25t-23 -23q-8 -12 -12 -27t-12 -25q-10 -14 -19 -24t-13 -24q-20 -22 -61 -39t-91 -27t-101 -10t-89 12q-10 4 -19 12t-21 12t-25 6t-21 8q-12 8 -35 37t-27 45 q-8 14 -7 31t3 37q4 18 7 45t15 37q4 4 18 10t30 0q16 -4 28 -22t24 -39t25 -40t29 -27q24 -14 59 -15t57 9q38 12 57 40t19 62t-17 67t-51 57q-4 10 -2 14t2 16q-22 12 -43 6t-43 -8q-22 0 -51 6t-60 12t-63 9t-62 -3q-16 -4 -46 -19t-44 -23q-46 -28 -66 -82t-36 -110 q-8 -8 -17 -14t-13 -16q0 -14 11 -22t15 -20q12 -30 22 -60t26 -56q26 -40 73 -64t95 -46q34 -18 59 -27t59 -25q20 -10 36 -14t30 -10t26 -15t26 -25q12 -12 23 -24t21 -22q22 -22 31 -41t37 -33q4 -20 18 -33t18 -29q4 -22 -6 -38t-8 -36q2 -18 13 -29t15 -27t0 -36 t-12 -40q-10 -30 -15 -58t-13 -54t-22 -49t-42 -41q-8 -4 -17 -7t-17 -7q-10 -4 -16 -10t-12 -10q-8 -4 -17 -6t-17 -6q-12 -6 -22 -15t-22 -13q-20 -10 -30 -27t-36 -27q-22 -10 -36 -26t-32 -20q-30 -6 -62 2t-64 8q-9 1 -18 1q-23 0 -48 -4q-34 -5 -68 -7q-36 -4 -77 -9 q-19 -2 -35 -2q-19 0 -34 3q-24 4 -62 13t-76 20t-71 24t-47 27q-10 10 -17 25t-17 25q-22 22 -52 43t-44 45q-6 12 -9 25t-7 27t-12 26t-10 22z" />
<glyph unicode="T" horiz-adv-x="1068" d="M-40 1228q4 22 5 47t7 41q12 10 24 11t26 3q-8 12 -7 22t4 19t8 18t7 17q4 20 3 40t17 32q28 2 50 0t42 -5t41 -5t49 0q64 4 105 10t101 8q42 0 81 -1t73 -5q36 -6 53 -6t31 1t30 3t48 2q34 0 65 5q22 4 46 4q9 0 19 -1q38 0 53 -5t25 -9t22 -7t44 1q22 4 28 9t28 9 q20 2 40 1t42 1q60 6 121 21q40 10 81 10q22 0 44 -3q-2 -10 -2 -21t-2 -21q-16 -14 -27 -18t-19 -20q-6 -10 -6 -22t-6 -22q-6 -14 -29 -29t-33 -19q-12 -6 -25 -10t-25 -10q-18 -8 -29 -12t-23 -5t-26 -2t-36 -5q-6 0 -8 -3t-8 -7t-18 -7t-36 -5l-33 -3t-35 -5 q-14 -4 -26 -12t-26 -14q-28 -16 -41 -31t-21 -27q-12 -20 -11 -45t-9 -53q-8 -20 -26 -40t-26 -42q-2 -10 0 -22t0 -26q-4 -26 -18 -53t-24 -57q-4 -16 -3 -32t-3 -32q-6 -38 -18 -81t-22 -85q-4 -24 -3 -49t-5 -43q-4 -18 -15 -34t-20 -33t-12 -36t9 -41q-6 -74 -20 -150 t-36 -146q-6 -22 -19 -58t-25 -46t-31 -13t-38 1t-35 14t-22 24q-12 -8 -21 -22t-25 -22q-20 -10 -41 -8t-43 -8q-20 -8 -36 -19t-32 -15q-10 -4 -19 -3t-17 -3q-12 -6 -18 -20t-18 -22q-16 4 -36 5t-30 11q-1 9 -1 17q0 42 17 74q20 39 30 77q8 22 11 42t7 46q8 28 20 59 t18 63q6 22 7 45t9 45q4 16 20 35t24 41t14 50t16 54q10 34 29 58t17 54q0 14 -6 22t-6 18q-2 16 4 44t12 50q10 42 20 76l20 68q4 16 7 31t7 27q4 16 13 27t13 23q4 14 7 34t9 38q6 14 13 26t9 24q4 26 -7 48t-11 46q-22 16 -52 19t-58 1t-50 -3t-50 -3q-46 -2 -80 -8 t-65 -12t-63 -9q-19 -2 -41 -2q-15 0 -31 1z" />
<glyph unicode="U" horiz-adv-x="1474" d="M-10 354q4 44 6 84t16 90q8 34 12 69t9 67t17 60t36 48q22 62 29 121t17 117q6 32 20 63t24 59q10 24 16 47t16 45q4 16 12 27t12 23q16 42 25 82t31 80q20 0 45 7t50 16t51 14t50 3q14 -2 33 -10t34 -20t25 -27t8 -31q-4 -22 -24 -38t-28 -34q-4 -10 -2 -19t0 -19 q-4 -16 -12 -36t-14 -40q-24 -66 -47 -138t-41 -146q-10 -46 -18 -89t-24 -83q-10 -28 -25 -42t-25 -36q-12 -32 -12 -78v-14v-22q0 -44 -6 -86q-10 -56 -18 -96q-4 -18 -4 -36q0 -23 6 -46q4 -14 13 -24t17 -26q10 -26 17 -41t23 -19q12 -2 24 2t24 4q20 0 34 -5l28 -10 t30 -8t40 1q18 4 38 12t36 16q22 10 36 13t26 11q46 22 69 51t55 63q16 4 29 9t21 15q2 10 -6 24t-6 30q0 10 6 20t10 24q4 12 7 27t7 27t15 21t17 25q6 22 3 45t-1 47q0 28 10 53t20 59q8 30 10 62t10 60q4 16 13 28t15 26q12 28 20 60t16 62q10 30 19 60t13 58q4 22 5 41 t5 41q4 18 13 33t15 33q4 14 3 28t3 26q16 46 59 61t101 25q18 4 47 9t45 3q10 -2 17 -9t17 -9q20 -2 39 12t41 18q20 6 43 10q15 3 33 3q9 0 18 -1q18 -4 37 -10t39 -10q30 -2 61 3t51 -13q-6 -22 -23 -34t-38 -19t-45 -12t-44 -13t-44 -25t-36 -33q-26 -34 -32 -78 t-18 -84q-4 -22 -13 -42t-15 -42q-16 -60 -42 -130t-36 -136q-4 -32 -7 -65t-11 -67l-10 -40t-12 -49t-14 -47t-14 -36q-6 -12 -16 -17t-16 -17q-10 -20 -12 -44t-8 -44q-8 -30 -13 -48t-10 -32t-13 -31t-24 -45q-6 -10 -25 -24t-29 -28q-10 -12 -18 -26t-18 -24 q-18 -20 -56 -35t-62 -29q-22 -16 -46 -34t-48 -28q-22 -10 -50 -16t-52 -14t-51 -16t-53 -10q-42 -4 -94 -10q-31 -4 -60 -4q-19 0 -38 2q-28 2 -53 2q-31 0 -56 -3q-12 -1 -24 -1q-34 0 -71 10q-140 38 -214 143q-67 95 -67 233q0 15 1 30z" />
<glyph unicode="V" horiz-adv-x="1260" d="M53 1366q-4 11 -4 24q0 22 13 48q22 14 65 30t90 24q29 5 56 5q17 0 32 -2q41 -5 59 -31q12 -16 18 -41t7 -54t-2 -58t-11 -53q-4 -16 -15 -33t-20 -34t-11 -32t14 -27q-16 -28 -5 -53t15 -51q2 -14 -3 -29t-5 -31q0 -96 8 -195t24 -185q4 -22 13 -42t13 -40q4 -30 3 -58 t3 -56t5 -54t6 -48t14 -41t31 -31q14 12 19 28t7 34t5 36t13 34q14 24 24 48q4 12 5 25t5 27q6 20 22 43t26 45q12 24 21 49t21 45q16 28 37 52t37 52q12 22 21 46t21 46q10 18 28 33t22 37q18 0 30 6t24 14q4 30 18 54t26 50q10 26 13 55t15 57q4 12 17 25t27 29 q10 10 16 23t14 21q8 12 19 22t21 20q26 34 46 82t44 82q26 32 66 44t92 18q17 1 34 1q33 0 63 -5q45 -8 93 -10q22 0 42 6t42 10q27 3 54 3h14h22q22 0 44 1q16 2 38 7t41 5t33 -9t14 -39q-32 -16 -63 -25t-63 -19q-34 -10 -67 -14t-67 -20q-32 -16 -65 -55t-57 -75 q-54 -80 -108 -154t-108 -152q-28 -40 -47 -83t-47 -81q-10 -12 -23 -22t-21 -20q-12 -22 -16 -44t-14 -42q-10 -22 -23 -35t-19 -33q-32 -34 -57 -74t-53 -90q-12 -20 -29 -42t-21 -40q-4 -10 -1 -18t1 -18q-4 -14 -18 -34t-24 -36q-14 -16 -26 -32t-22 -32 q-28 -36 -53 -73t-55 -59q-20 -14 -40 -22t-34 -22q-8 -8 -13 -18t-13 -20q-20 -22 -44 -45t-46 -37q-20 -14 -39 -14q-8 0 -15 2q-26 8 -52 28q-12 10 -20 26t-18 24q-10 10 -24 9t-24 5q-16 8 -28 20t-34 16q-4 34 -22 58t-22 52q-3 19 -3 37q0 16 2 32q3 19 3 39 q0 15 -2 30q-4 22 -11 43t-11 43t-7 46t-7 46q-8 30 -19 59t-15 59q-4 28 -1 60t3 66q-2 28 -2 61t4 61q2 10 5 22t1 22q0 22 -19 51t-21 61q0 34 4 69q3 23 3 47q0 12 -1 24q-2 32 -6 65q-3 22 -3 44q0 11 1 21q0 28 3 48t-1 42q-4 26 -15 58z" />
<glyph unicode="W" horiz-adv-x="2254" d="M82 1448q22 26 54 22t66 -10q16 -2 32 0t32 0q52 -4 110 -13q40 -6 78 -6q17 0 34 1q90 8 172 13t166 11q0 -12 -2 -26t-8 -24q-12 -16 -42 -32t-56 -24q-24 -8 -38 -10t-36 -14q-24 -14 -35 -30t-27 -34q-8 -37 -8 -82q0 -13 1 -27q1 -26 1 -52q0 -35 -2 -69 q-4 -32 -8 -62t-4 -58v-52t-22 -46q4 -58 4 -120v-42v-33q0 -66 6 -129q18 6 40 26t32 40q6 16 7 34t7 34q10 32 28 59l36 54t34 55t24 62q10 2 17 6t15 8q10 28 14 50t26 44q8 10 21 17t25 15t21 16t13 22q4 12 -1 22t-1 24q2 16 19 39t27 45q24 40 40 65t42 59 q26 32 44 52t44 50q16 18 31 38t25 24q22 12 51 7t59 -1q18 2 40 14t48 16t52 4h18q36 -2 68 -11t54 -27t26 -48q-8 -28 -1 -58q4 -16 4 -33q0 -15 -3 -31q-10 -48 -39 -92t-37 -96q-1 -9 -1 -18q0 -25 8 -52q11 -36 15 -76q2 -14 -1 -28t1 -30q6 -58 12 -120q2 -26 -4 -53 t-13 -54t-14 -53t-7 -50q2 -34 6 -74t12 -62q4 -10 15 -20t15 -20q8 -22 3 -46t5 -40q24 4 24 21t6 31q10 28 32 58t44 64q42 64 70 124q12 20 19 44t17 40q12 18 27 29t19 33q8 18 4 35t-2 33q2 22 15 46t29 50t31 53t25 57q10 36 20 65t26 59q10 22 25 41t23 37 q10 22 13 46t11 46q6 22 16 45t12 39q0 10 -2 18t0 14q2 12 14 23t27 21t32 18t29 12q24 6 53 6q20 0 43 -3q56 -7 106 -11q10 -1 21 -1q23 0 51 3l84 8q48 4 97 12q39 6 73 6h16q10 0 26 -5t16 -15q2 -10 -7 -17t-22 -14t-28 -12t-27 -7q-38 -10 -77 -16t-75 -13t-68 -21 t-54 -40q-10 -2 -18 -6t-18 -6q-34 -42 -59 -92t-53 -102q-10 -22 -25 -51t-23 -59q-16 -60 -28 -126t-44 -114q-4 -8 -14 -20t-20 -22q-8 -10 -22 -20t-16 -18q-2 -12 4 -24t4 -24q-2 -18 -17 -34t-25 -36q-8 -18 -14 -35t-16 -37q-18 -34 -44 -72t-46 -76 q-30 -60 -57 -123t-65 -115q-14 -20 -29 -34t-25 -36q-4 -8 -4 -16t-4 -16q-10 -20 -31 -38t-39 -38q-16 -22 -35 -40t-39 -28q-42 8 -80 17t-76 19q-12 2 -18 12t-10 20q-22 -18 -35 -10t-33 18q-10 4 -19 7t-15 7q-38 20 -52 44q-10 76 -18 153t-20 151q-4 18 -9 36t-1 40 q4 24 17 49t13 49q2 16 -8 27t-16 27q-4 14 -8 37t-8 45q-4 25 -4 53q0 32 5 67q9 66 19 130t12 122v9q0 52 -22 89q-18 0 -28 -9t-15 -22t-9 -29t-12 -30q-10 -20 -27 -35t-31 -37q-20 -28 -34 -68t-32 -74q-12 -26 -29 -55t-21 -69q-10 -4 -16 -12t-16 -12 q-28 -52 -61 -104t-67 -105t-66 -108t-54 -109q-8 -10 -24 -21t-26 -27q-6 -12 -7 -27t-7 -31q-8 -22 -24 -43t-26 -43q-18 -40 -45 -77t-61 -63q-14 -10 -36 -20q-14 -6 -29 -6q-9 0 -19 2t-19 9t-19 14t-22 10t-28 -1q-16 14 -22 28t-22 28q-10 8 -21 13t-22 11t-20 15 t-13 25q-6 26 -8 62q-1 24 -1 49v26q1 39 1 80t-2 81q-4 42 -4 77t-4 69q0 10 -4 22t-4 22q2 22 14 39t12 33q0 24 -10 50q-16 32 -26 73q-7 29 -7 65q0 14 1 30q4 40 9 84q3 24 3 51q0 21 -2 43q-2 48 -7 89q-2 16 -2 33q0 28 5 60q2 22 10 49t4 61q-2 14 -11 33t-21 39 t-21 41t-11 39z" />
<glyph unicode="X" horiz-adv-x="1492" d="M-236 -44q0 10 11 25t27 30t30 28t20 19l24 24t22 24q30 34 63 70t67 70q22 16 43 30t33 36l8 20l8 20q20 28 46 47t50 35l21 21t21 23t22 22t22 20q6 8 9 17t9 19q16 20 40 36t38 38q-16 56 -24 111t-32 111q-8 18 -18 35t-18 33q-16 40 -29 78t-31 72q-8 16 -18 30 l-20 28q-18 30 -31 61t-29 61q-6 10 -16 17t-14 17q-8 16 -11 37t-13 43q-6 14 -16 28t-8 28q2 12 20 30t40 22q6 2 14 1t16 3q8 2 24 9l32 14t31 12t23 5q14 0 17 -12t13 -24q16 -22 40 -43t50 -37q4 4 1 15t7 15q32 16 59 17t51 -25q30 -34 58 -93t50 -115q10 -22 22 -36 t16 -30q6 -20 5 -39t7 -31q8 -14 21 -20t21 -12q12 -46 18 -80t32 -74q34 18 60 45t49 57t47 60t52 54q22 14 41 28t35 30q2 30 17 52t35 40t42 35t40 37q16 20 30 46t30 48q6 6 13 12t11 10q4 10 8 23t8 19q22 28 69 35q30 4 59 4q17 0 34 -1q22 -2 61 -9t61 -9q28 -2 61 1 t65 7q18 2 38 8t37 8q6 1 11 1q11 0 21 -3q15 -4 25 -22q-10 -22 -34 -31t-48 -19q-28 -14 -57 -27t-59 -31q-56 -30 -102 -81t-92 -99q-24 -22 -49 -40t-41 -40q-22 -22 -42 -46t-46 -46q-18 -14 -36 -24t-26 -24q-4 -4 -6 -17t-6 -21q-10 -22 -30 -37t-36 -35 q-8 -10 -13 -19t-13 -19q-10 -10 -22 -19t-22 -19q-16 -18 -32 -37t-40 -39q-20 -18 -45 -42t-29 -36q-2 -12 4 -26t14 -29t16 -29t12 -26q10 -20 17 -45t15 -49q10 -24 23 -46t17 -44t5 -43t7 -37q8 -16 22 -28t26 -28t21 -32t25 -26q10 -28 19 -57t27 -51q10 -12 22 -29 t24 -27q10 -8 22 -10t20 -12q8 -6 11 -16t9 -20q16 -20 44 -37t52 -37q22 -20 40 -36t50 -32q6 -4 15 -4t17 -4q14 -4 24 -14t32 -8q30 -12 42 -15t21 -10t17 -15t18 -12q20 10 48 2t56 -6q22 2 34 5t22 8t21 8t31 5q24 2 48 20t50 30q20 10 39 15t41 13q16 6 35 15t41 1v-5 q0 -29 -21 -53q-23 -26 -45 -44q-38 -30 -80 -51t-70 -57q-76 -32 -159 -63t-179 -43q-12 -1 -23 -1q-25 0 -45 6q-30 9 -52 25q-14 -8 -29 -13t-25 -19q-12 12 -31 6t-39 -4q-22 4 -37 15t-27 21q-22 -4 -32 3t-26 15q-64 28 -116 73t-110 87q-16 12 -35 22t-33 22 q-8 10 -13 22t-15 26q-12 18 -25 37t-11 51q-38 18 -65 50t-47 72t-36 82t-34 82q-4 10 -11 15t-11 11q-24 40 -42 81t-40 77q-62 -66 -124 -131t-146 -109q-24 -28 -55 -47l-62 -38t-62 -39t-55 -46q-22 -10 -46 -21t-58 -11q-20 0 -49 -5t-56 -8t-47 1t-20 20z" />
<glyph unicode="Y" horiz-adv-x="1568" d="M-134 -515v20q0 28 4 49q4 10 12 20t14 26q14 34 31 71t45 61q10 8 23 16t27 18q20 14 40 29t47 26t62 15q12 1 25 1q26 0 58 -5q58 -10 105 -47t75 -81q12 -20 22 -43t4 -51q-10 -10 -29 -27t-43 -13q-12 2 -23 13t-22 25t-23 28t-26 20q-16 6 -38 9t-38 1 q-26 -2 -40 -6t-23 -10t-16 -16t-21 -24q-4 -38 -9 -71t11 -61q8 -12 18 -22t20 -22q10 -10 23 -20t17 -20q6 -12 3 -24t9 -22q16 -10 29 -3t23 11q39 -11 76 -11q18 0 36 3q54 8 101 30t84 55t61 69q10 4 21 7t19 7q-4 32 2 59t17 52t23 48t22 49q14 32 22 70t16 72t21 66 t23 66q14 36 22 72t18 72q10 34 23 68t15 68q-10 -22 -29 -33t-37 -29q-22 -22 -37 -48t-37 -42q-20 -14 -49 -22t-51 -22q-46 -28 -86 -47t-108 -29q-37 -5 -68 -5q-20 0 -37 2q-45 5 -91 29q-22 12 -52 36q-24 18 -49 33t-41 39q-6 10 -12 28t-8 30q-2 16 2 31t0 27 q-4 10 -15 13t-21 13q-16 16 -20 33t-14 33q-2 24 -2 48q0 30 3 60q5 54 9 116q4 40 4 80t14 80q6 20 14 39t12 41q6 22 11 43t11 39q10 30 29 58t23 56q2 16 -2 30t-2 30q2 34 13 60t23 56q10 52 29 96t37 88q16 34 28 69t38 63q14 4 20 -6t16 -4q28 12 58 11t62 3 q16 2 31 7t31 9q37 7 73 7h9q40 -1 56 -39q12 -32 3 -60t-26 -53t-36 -49t-27 -48q-28 -2 -44 -14t-28 -31t-20 -43t-18 -50q-12 -28 -25 -53t-17 -49q-4 -26 -4 -49t-10 -45q-6 -18 -20 -35t-22 -37q-4 -10 -3 -22t-3 -24q-4 -10 -8 -17t-8 -15q-6 -22 -9 -47t-11 -53 q-10 -34 -15 -63t-5 -67q-2 -40 -7 -74t-4 -62t14 -47t47 -25q12 -34 49 -58q32 -21 74 -21q8 0 15 1q42 4 80 29t66 35q20 24 44 43t47 39t44 42t37 50q10 8 29 14t27 26q6 10 5 28t5 32t18 23t21 19t12 21t-7 29q18 46 39 94t42 98t39 103t28 109q6 34 13 76q3 20 3 39 q0 22 -4 43q-2 12 -15 25t-13 31q0 16 9 35t21 39t23 38t17 32q32 4 66 17t68 13q22 2 44 -8t42 -14q50 -9 97 -9q32 0 63 4q76 11 160 25q20 4 39 1t39 1q12 2 24 7t25 8t27 2t28 -13q-2 -24 -13 -36t-28 -19t-37 -11t-38 -10q-36 -12 -63 -39t-53 -43q-18 -30 -39 -57 t-37 -57q-16 -28 -34 -59t-28 -65q-8 -26 -8 -52t-6 -54q-8 -30 -25 -58t-25 -62q-4 -26 -6 -51t-4 -53q-4 -42 -21 -84t-31 -88q-12 -46 -20 -86t-16 -78q-10 -36 -25 -56t-37 -44q-22 -76 -31 -170t-25 -180q-4 -28 -7 -55t-11 -49q-18 -50 -43 -99t-41 -95q-6 -18 -9 -36 t-13 -34q-10 -18 -26 -31t-24 -29q-4 -10 -3 -20t-3 -20q-16 -54 -47 -95t-63 -81q-30 -36 -61 -67t-75 -51q-14 -36 -45 -48t-67 -32q-16 -8 -29 -20t-25 -16q-24 -10 -53 -10h-10h-17q-26 0 -50 -4q-42 -6 -82 -19t-80 -17q-12 -1 -24 -1q-17 0 -34 2q-28 3 -56 7 q-24 4 -49 8t-55 20q-10 8 -19 16t-19 14q-28 18 -52 35t-46 49q-10 12 -19 27t-19 31q-20 30 -35 64t-21 78q-6 30 -8 71z" />
<glyph unicode="Z" horiz-adv-x="1442" d="M-102 -10q4 8 6 16t6 14q-3 40 -3 90v26q1 66 29 112q8 10 27 25t35 29q44 36 94 52q46 36 88 73t94 67q12 16 23 36t23 40t26 36t32 26q14 4 25 6t21 6q18 8 40 21t34 29q8 10 8 20t10 26q10 20 32 38t42 40q70 74 149 131t155 127q36 30 58 60t54 66q10 14 22 30t6 36 q-20 14 -47 8t-53 -8q-23 -2 -47 -2q-18 0 -38 1q-27 2 -53 2q-17 0 -34 -1q-20 -2 -40 -5t-36 -1q-24 4 -43 14t-41 14q-9 1 -18 1q-33 0 -71 -17q-49 -22 -85 -44q-32 -18 -57 -50t-48 -70t-44 -78t-43 -70q-14 -18 -35 -35t-47 -23q-16 10 -16 27t7 36t16 41t13 42 q4 24 0 46t0 36q4 12 12 22t12 20q4 16 2 25t-6 19q2 24 10 45t16 45q4 22 3 44t3 40q4 16 18 43t30 37t39 3t47 -11q22 -4 48 -1t50 -1q24 -2 47 -2q35 0 68 4t71 3q25 0 52 -1q46 -4 99 -11q20 -3 39 -2q33 0 66 7q20 4 39 18t37 18q9 1 19 1q34 0 74 -11q51 -14 97 -14 q16 -2 29 2t27 6q28 0 56 -5t54 -7q32 0 63 -3q13 -1 27 -1q19 0 40 2q22 2 45 7t44 7t36 -2t23 -20q3 -43 3 -90v-23q-1 -59 -29 -103q-14 -20 -42 -37t-56 -33q-56 -34 -99 -65t-89 -77q-22 -22 -41 -39t-36 -34t-32 -38t-27 -49q-28 -16 -57 -27t-51 -35q-12 -14 -20 -28 t-20 -28q-68 -72 -148 -135t-142 -137q-28 -58 -76 -93t-86 -79q-34 -10 -57 -31t-51 -35q-10 -22 -24 -37t-24 -35q24 2 46 -6t48 -12q64 -10 129 -17t117 -31q10 -4 15 -9t13 -9q24 -10 51 -10t49 -10q14 -6 31 -15t33 -17t34 -15t30 -15q20 -14 39 -34t51 -26 q18 -20 34 -41t28 -47q30 18 47 7t41 -27q52 -34 137 -51q76 -15 148 -16q8 0 17 1q28 2 55 7t49 5q10 -2 21 -8t21 -4q14 4 21 17t19 19q56 4 99 21t93 29q26 14 46 33t60 15q10 -10 10 -20q0 -7 -4 -14q-10 -18 -18 -36q-22 -22 -46 -35t-52 -35q-10 -6 -19 -16t-19 -16 q-20 -14 -43 -27t-43 -29q-20 -14 -41 -30t-41 -24q-14 -8 -34 -10t-42 -10q-30 -10 -67 -23t-77 -17q-22 -4 -43 -1t-43 -5q-12 -4 -23 -16t-25 -16q-11 -4 -22 -4q-14 0 -29 6q-27 10 -49 14q-54 4 -109 12t-87 40q-22 0 -43 2t-41 8q-10 4 -14 13t-14 13t-24 4t-24 6 q-12 6 -19 21t-19 17q-10 4 -21 -2t-21 -6q-16 2 -38 18t-40 32q-38 28 -70 51t-70 51q-18 12 -32 27t-32 29q-16 14 -40 22t-46 18t-44 19t-44 13q-26 10 -54 13t-54 9q-22 6 -48 15t-48 13q-22 2 -51 -3t-58 -12t-57 -13t-50 -2q-18 2 -21 9t-27 13z" />
<glyph unicode="[" horiz-adv-x="636" d="M-10 -44q2 30 8 60t12 52q4 14 15 26t15 22q14 30 18 69t14 83q16 58 29 111t31 111q6 22 19 41t21 41q10 32 13 75t11 77q2 12 6 21t6 19q0 10 -4 17t-4 17q0 14 6 33t10 35q6 42 20 94t14 92q42 70 56 142q4 34 19 69t23 73q8 30 12 59t10 58t15 57t25 52q14 16 41 22 t58 8t62 0t53 -2q38 -2 75 -5t73 -5q16 -30 -1 -51t-48 -36t-66 -27t-53 -24q-10 -14 -11 -28t-5 -28q-4 -18 -9 -31t-10 -25t-11 -25t-10 -33t-5 -40t-7 -40q-4 -14 -11 -27t-11 -29q-34 -104 -59 -212t-45 -216q-8 -38 -16 -77t-20 -79q-10 -40 -15 -79t-17 -75 q-4 -16 -12 -28t-14 -26q-16 -32 -23 -68t-19 -80q-8 -28 -16 -49t-12 -59q-4 -28 -3 -64t15 -42q8 -4 23 -4h31h32t26 -4q16 -6 17 -38t-11 -60q-52 -16 -98 -11t-96 3q-12 0 -38 -2t-54 -3t-52 0t-32 5q-12 8 -15 33t-1 55z" />
<glyph unicode="\" horiz-adv-x="602" d="M62 1419q-2 25 0 35q4 22 25 34t49 12t57 -11t51 -37q14 -80 39 -165t43 -165q4 -20 8 -43t6 -39t-8 -28t-8 -28q4 -28 19 -62t25 -68q10 -32 22 -68t12 -68q2 -12 -3 -24t-3 -22q4 -22 18 -44t22 -48q12 -40 21 -90t21 -98q12 -56 27 -110t25 -104t10 -94t-18 -80 q-34 -10 -65 -12t-63 26q-22 46 -34 103t-24 121q-4 20 -6 41t0 35q4 16 11 33t-1 43q-4 12 -12 22t-14 20q-16 24 -20 48t-12 52q-4 10 -11 23t-11 25q-8 28 -9 62t-11 68q-10 46 -22 82t-20 78q-4 18 -9 36t-5 28q0 14 11 28t7 32q-2 10 -13 21t-19 25q-12 24 -14 50 t-10 52q-4 12 -13 22t-13 20q-4 8 -2 17t-2 19q-6 20 -16 39t-14 37q-4 20 -9 38t-9 36q-4 20 -6 45z" />
<glyph unicode="]" horiz-adv-x="648" d="M-126 -118q-16 30 2 49t48 34t64 27t52 24q14 14 15 28t5 30q8 36 19 55t19 57q4 20 5 40t7 42q4 12 11 26t13 28q32 104 57 212t47 216q6 38 14 78t18 80t16 79t18 73q4 16 13 28t15 28q14 32 20 67t18 79q10 28 19 49t13 61q4 28 2 63t-16 41q-10 4 -24 4h-30h-31 t-27 4q-16 10 -16 40t10 60q52 14 99 10t95 -4q12 0 38 2t54 3t51 0t31 -5q12 -8 16 -32t2 -54t-9 -61t-13 -53q-4 -14 -14 -25t-14 -21q-14 -32 -18 -71t-14 -81q-16 -58 -29 -111t-31 -113q-6 -22 -18 -41t-20 -41q-14 -32 -17 -75t-9 -77q-4 -12 -8 -21t-4 -17 q-2 -10 3 -18t5 -18q-2 -12 -6 -32t-8 -36q-8 -40 -22 -93t-14 -93q-22 -34 -36 -69t-18 -73q-6 -34 -21 -69t-25 -71q-14 -58 -20 -117t-38 -109q-16 -16 -43 -23t-59 -9t-63 0t-53 2q-36 2 -74 6t-72 8z" />
<glyph unicode="^" horiz-adv-x="998" d="M30 666q0 14 14 31t24 31q34 44 61 90t55 90q4 10 2 16t0 14q16 18 26 37t26 37q12 16 28 30t28 32q10 14 14 29t12 29q18 34 45 67t56 66t57 65t52 64q10 14 23 32t27 36t29 32t29 20q22 6 41 -2t37 -12q14 -64 29 -124t37 -116q16 -42 35 -86t29 -92q4 -18 1 -39t1 -39 q4 -16 15 -27t15 -27q2 -6 1 -13t1 -15q4 -16 10 -30t10 -30q10 -46 16 -96t10 -102q-12 -18 -30 -22t-35 2t-31 18t-22 24q-6 10 -10 25t-8 31q-4 14 -12 27t-16 29t-9 34t-7 28q-8 10 -23 17t-23 21q-4 6 -6 16t-6 20t-11 19t-9 19q-6 18 -8 37t-6 37q-8 24 -14 39t-12 28 t-13 28t-15 37q-40 -14 -56 -45t-46 -69q-8 -8 -18 -14t-20 -16q-18 -22 -33 -51t-31 -55q-18 -28 -38 -50t-36 -46q-20 -26 -34 -42t-26 -30t-25 -28t-31 -36q-6 -8 -19 -21t-30 -25t-35 -20t-32 -8q-20 0 -40 16t-20 28z" />
<glyph unicode="_" horiz-adv-x="838" d="M-438 22q-4 24 5 43t25 35t35 31t31 31q30 8 61 9t63 -2t63 -7t65 -2q18 0 35 5t37 5q26 2 57 1t61 -1q28 0 62 2t50 -2q22 -2 37 -12t35 -10q16 0 29 7t35 11q24 4 56 5t65 1h63t48 2q64 4 127 0t129 -8q36 -38 17 -74t-69 -56q-10 -4 -21 -5t-23 -5q-30 -10 -50 -24 t-42 -18q-26 -2 -57 3t-63 9q-66 4 -144 2t-146 -2q-60 0 -106 5t-78 21q-70 -14 -150 -24t-158 -4q-50 4 -95 16t-89 12z" />
<glyph unicode="`" horiz-adv-x="1662" d="M858 1404q4 14 16 31t27 33t31 28t28 18q28 12 55 -4t41 -34q10 -10 13 -24t13 -24q16 -22 27 -30t27 -30q22 -30 37 -60t43 -52q-4 -22 -27 -43t-39 -39q-38 -10 -61 -3t-38 22t-27 33t-26 34q-20 18 -36 30t-38 34q-10 8 -23 17t-24 19t-17 21t-2 23z" />
<glyph unicode="a" horiz-adv-x="1184" d="M-108 109q10 15 26 37q22 32 50 72t50 76q12 20 21 38t23 34q16 22 41 36t35 36q4 10 4 21t4 23q16 40 50 72t52 72q4 10 5 19t5 19q32 74 79 132t81 116q38 26 66 60t54 68q16 -2 28 6t26 12q28 8 57 -1t57 -7q34 4 65 18t73 14q14 0 26 -9t24 -11q16 -4 29 4t29 8 q28 0 43 -18t35 -36q6 -26 6 -50q0 -20 -4 -40q-5 -29 -6 -60q0 -15 2 -30q4 -30 9 -58t5 -58q2 -26 -3 -55t-3 -57q2 -10 6 -20t2 -20q-4 -22 -18 -34t-16 -32q-4 -30 13 -56t21 -54q2 -12 -2 -26t-4 -26q-2 -20 -2 -41q0 -27 3 -57q5 -54 7 -100q0 -16 3 -32q1 -7 1 -13 q0 -8 -2 -13q-2 -10 -9 -16t-11 -14q-2 -10 1 -28t3 -34q0 -14 -2 -27t-2 -23q2 -6 5 -13t1 -13q-4 -18 -27 -39q-21 -19 -43 -19h-4q-12 2 -35 19t-33 27q-18 22 -22 56t-18 62q-6 10 -17 19t-19 21q-12 22 -16 45t-5 46t-3 46t-10 47q-4 8 -12 14t-14 16q-12 20 -16 34 t-26 22q-70 0 -141 4q-24 1 -47 1q-47 0 -92 -5q-16 -2 -28 -7t-28 -7q-8 0 -16 2t-14 2q-28 -4 -54 -25t-40 -41q-8 -12 -9 -29t-7 -33t-20 -29t-10 -33q-22 -16 -37 -40t-29 -49t-31 -47t-41 -32q-10 -4 -19 -10t-19 -6q-10 2 -11 6t-13 12t-29 18t-33 22t-29 25t-19 25 q-10 21 -10 35q0 8 4 14zM362 482q6 -16 24 -21t41 -6h15q15 0 30 1q22 2 36 2q28 0 57 -1t56 1t48 10t33 24q13 43 13 86q0 22 -3 43q-10 65 -18 129q-4 18 -6 40t0 40q2 20 13 39t3 45l-6 4q-24 -18 -41 -41t-45 -35q-8 -18 -19 -34t-29 -26q-6 -32 -24 -55t-34 -45 q-8 -8 -14 -17t-14 -19q-10 -10 -20 -15t-18 -13q-12 -16 -26 -44t-26 -46l-20 -20q-7 -7 -7 -17q0 -4 1 -9z" />
<glyph unicode="b" horiz-adv-x="1210" d="M-144 4q0 8 11 16t25 15l28 14t22 13q12 10 31 28t37 39t32 42t18 37q2 10 0 18t0 16q4 24 19 59t25 59q4 14 6 30t6 28q10 22 22 39t23 35t16 39t3 53q-2 10 -6 20t-6 22q0 36 21 66t27 66q0 10 -4 17t-4 17q0 24 7 47t11 45q1 8 1 15q0 24 -10 49q-13 32 -29 56 q-6 8 -15 16t-17 17t-13 21t-1 32q17 3 31 3q17 0 32 -4q27 -7 47 -21q19 3 38 3q26 0 53 -5q47 -8 81 -24q28 4 55 2t55 -6q10 0 19 -4t19 -4q22 0 44 9t44 13q16 4 30 -1t28 -5q18 2 30 8t22 6q27 5 55 5q17 0 34 -2q45 -5 79 -19q10 -4 32 -1t34 -5q22 -14 51 -24t47 -26 q14 -12 25 -27t31 -23q12 -4 15 -16t15 -20q26 -16 41 -56q13 -35 13 -66v-8q-4 -22 -17 -39t-25 -35q-6 -10 -12 -24t-14 -22q-8 -6 -21 -12t-25 -14q-16 -10 -28 -24t-26 -18q-14 -6 -27 -15t-25 -13q-32 -10 -57 -20t-41 -32q0 -8 7 -11t15 -6t15 -8t5 -13q28 -28 51 -41 t51 -45q4 -4 8 -23t8 -23q20 -28 20 -57q0 -13 -4 -26q-12 -43 -43 -82t-73 -70t-74 -45q-30 -16 -59 -22t-69 -14q-10 -2 -18 -6t-18 -8q-47 -10 -93 -10q-16 0 -33 1q-34 3 -71 3q-29 0 -59 -2q-22 -2 -41 -6t-43 4q-10 2 -20 9t-20 9q-14 4 -30 -1t-32 -7q-22 -4 -46 -1 t-50 -1q-14 -2 -26 -7t-26 -7q-40 -6 -81 -7h-26q-25 0 -45 1q-12 0 -22 4t-20 4q-8 0 -26 -3t-36 -4t-31 3t-13 18zM342 180q6 -12 10 -24t14 -22q22 4 40 -6t42 -10q44 0 76 23t66 33q22 6 44 6t38 8q10 4 23 19t15 19q6 10 15 44t13 62q2 13 2 24q0 40 -23 52 q-29 16 -79 20q-46 5 -89 5h-14q-49 -1 -95 -15q-8 -16 -18 -33t-20 -35q-10 -16 -22 -33t-20 -35q-10 -22 -9 -48t-9 -54zM478 600q24 -18 53 -21q11 -1 22 -1q19 0 39 3q32 5 66 10q19 3 38 3q16 0 32 -2q14 16 32 17t38 11q12 6 25 18t27 28t24 33t16 29q10 18 10 38 q0 12 -4 25q-10 33 -24 55q-4 8 -18 25t-24 21q-6 2 -15 0t-17 0q-26 4 -59 8t-63 8q-12 1 -23 1q-52 0 -74 -24q-27 -29 -47 -91q-16 -48 -29 -95t-25 -99z" />
<glyph unicode="c" horiz-adv-x="1084" d="M10 502q4 14 10 30t8 34q4 28 9 51t17 45q8 14 19 26l22 24t19 26t10 36q12 16 29 24t27 24q6 10 6 20t8 20q10 12 30 26t34 24q40 22 84 41t82 47q24 0 47 7t44 16t43 18t46 13q22 2 48 1t50 1q36 2 73 3h15q28 0 52 -3q14 -2 28 -9t30 -7q14 0 29 6t29 8q23 2 46 2 q18 0 36 -1q42 -3 82 -7q1 -5 1 -10q0 -16 -10 -27q-13 -15 -33 -19q4 -14 14 -17t14 -13q-16 -32 -53 -47t-77 -25q-24 -4 -51 -4t-51 4q-34 6 -64 23t-58 13q-8 -2 -17 -10t-19 -12q-20 -14 -49 -23t-45 -19q-46 -26 -86 -64t-84 -66q-16 -32 -31 -63t-31 -71 q-8 -18 -17 -37t-13 -37t-7 -44t-9 -48q-4 -16 -13 -28t-7 -30q4 -16 17 -26t17 -24q4 -8 1 -17t-1 -19q8 -34 35 -62t45 -54q42 -4 75 -13t69 -15q34 16 69 26t75 24q30 10 59 31t61 25q6 0 14 -3t14 -1q16 2 28 12t25 19t28 15t35 2q20 -34 7 -54t-37 -37t-47 -37t-23 -52 q-18 -20 -44 -42t-60 -36q-14 -4 -29 -7t-27 -7q-42 -16 -78 -34q-32 -16 -79 -16h-11q-32 0 -58 6q-22 4 -41 14t-41 14q-28 4 -56 0t-52 0t-50 19t-50 31q-26 14 -49 27t-45 25q-26 18 -43 45t-41 49q-8 33 -8 66v13q1 20 1 39.5t-1 39.5q-2 36 -13 74q-8 28 -8 51 q0 9 1 17z" />
<glyph unicode="d" horiz-adv-x="1226" d="M-134 10q0 9 7 17q9 9 22 16t27 12t22 9q24 14 41 31t41 25q14 32 24 61t26 65q8 20 12 42t14 44q10 18 25 36t23 40q7 19 7 40q0 18 -5 37.5t-5 38.5q0 24 7 48q10 42 23 83t17 73q4 22 4 45t4 47q4 26 16 51t14 47q1 6 1 13q0 39 -22 70q-25 37 -51 63q2 12 13 19 q9 5 14 5h3q24 -4 54 -16t58 -16q24 -4 53 0t61 0q34 -4 82 -8t94 -4q17 -1 34 -1q34 0 66 3q19 2 38 2q28 0 56 -4q34 -4 62 -18t62 -10q28 -32 65 -49t67 -43q42 -34 72 -81t72 -81q0 -16 8 -30t10 -32q0 -10 -4 -23t-4 -25q2 -18 12 -29q8 -9 8 -26v-7q-2 -70 -36 -138 t-68 -120q-22 -2 -31 -18t-23 -36q-20 -28 -47 -47t-49 -47q-44 -16 -81 -42t-83 -48q-16 -8 -33 -15t-33 -15q-20 -6 -38 -14t-34 -12q-12 -4 -25 -2t-25 -2q-26 -6 -50 -21t-48 -19q-28 -4 -56 4t-54 14q-27 -3 -54 -3h-14q-34 1 -70 3q-18 1 -37 1t-39 -1q-40 -2 -86 -10 q-12 -2 -25 -8t-25 -8q-22 -4 -49 -4h-51q-10 0 -24 1t-27 3t-23 7q-12 6 -12 17zM398 266q-2 -14 -2 -25q0 -35 22 -54q30 -25 72 -35q28 -6 55 -6q41 0 78 15q61 25 97 57q26 30 54 65t44 77q6 16 12 43t14 53q6 22 15 41t15 39q18 42 18 89q0 11 -1 22q-5 59 -21 93 q-6 12 -19 26t-25 28q-14 16 -25 32t-19 24q-28 26 -67 37t-71 37q-34 -2 -50 -12t-36 -18q-16 -16 -23 -38t-12 -47t-9 -51t-12 -50q-8 -16 -16 -31t-12 -31q-10 -38 -12 -74t-12 -76q-4 -22 -15 -43t-15 -43t0 -42t0 -42q-4 -16 -11 -30t-11 -30z" />
<glyph unicode="e" horiz-adv-x="1150" d="M-72 -34q4 16 18 28t28 22q14 12 27 25l25 25q12 16 20 39t15 47t16 45t23 37q-8 17 -8 37q0 21 9 45q17 46 31 96q4 12 4 24t4 22q4 20 18 35t18 31q2 10 1 20t1 20q4 30 15 57t15 49q4 16 1 33t-1 33q4 40 17 76t15 64q2 22 -6 48t-16 40q-6 10 -18 21t-24 21t-21 19 t-9 17q2 22 18 23t30 13q72 -2 137 -16t135 -18q26 -4 54 1t54 7h11q38 0 84 -12q41 -11 82 -11q12 0 23 1q70 4 132 4t130 4q12 -10 36 -9t49 4t46 1t29 -18q5 -12 5 -23q0 -14 -9 -25q-16 -20 -44 -26q-8 0 -22 -2t-30 -4t-31 -2h-21q-54 -26 -108 -26t-120 4 q-18 0 -39 -2t-39 -4q-94 -10 -158 -71t-94 -153q-10 -34 -16 -62t26 -32q20 -4 40 0t41 11t41 13t40 6q8 0 15 -4t15 -4q10 -1 21 -1q24 0 51 6q20 5 39 5q16 0 31 -4q6 -2 11 -7t15 -9q26 -10 62 -13t58 -13q10 -4 20 -15t10 -15q0 -22 -26 -28t-44 -8q-16 -2 -32 0 t-32 -2q-28 -4 -54 -11t-56 -17q-34 -12 -64 -29t-66 -21q-26 -4 -50 0t-52 0q-10 -2 -19 -6t-19 -6q-18 -4 -27 -5t-14 -5t-10 -12l-15 -24q-16 -36 -20 -77t-8 -87q22 -22 42 -35t62 -13q22 0 35 5t35 7q22 0 44 -3t50 -1q58 4 98 15q29 8 68 8q14 0 30 -1q12 0 43 -2 t63 -5t57 -9t25 -16q0 -12 -15 -25t-34 -24t-38 -18t-25 -9q-23 -7 -44 -7q-11 0 -22 2q-18 3 -37 3q-16 0 -33 -2q-28 -4 -50 -12t-44 -17t-45 -18t-53 -11q-40 -4 -68 -9t-66 -13q-16 -4 -30 -9t-30 -9q-37 -8 -77 -8q-23 0 -48 3q-31 3 -65 3q-38 0 -80 -4 q-50 -6 -89 -15q-27 -6 -54 -6q-12 0 -25 1q-14 2 -27 3t-23 11z" />
<glyph unicode="f" horiz-adv-x="1052" d="M-30 -26v5q0 17 10 38q12 25 28 39q-2 22 10 38t16 38q2 10 0 22t0 24q4 22 26 47t32 53q16 44 27 107t29 111q6 16 17 29t17 27q16 44 16 86t4 90q2 18 10 33t14 35q14 42 17 85t17 79q-2 20 -12 34t-21 25t-22 24t-13 33q14 8 28 9t28 -2l28 -6t28 -1q12 4 29 10 q10 4 23 4q8 0 18 -2q14 -4 26 -11t34 -9q20 -4 42 -3t40 -9q14 -4 33 -9t29 -7q22 -3 46 -3q20 0 42 2q27 3 55 3q22 0 45 -2q24 -2 46 -8t46 -10q23 -3 50 -3q14 0 29 1q45 2 85 6q26 2 44 5t34 6t33 4t41 -1q12 -2 27 -3t15 -17q2 -22 -16 -30t-38 -18q-28 -14 -49 -31 t-45 -27q-28 -12 -54 -15t-62 -13q-44 -10 -86 -17q-27 -4 -56 -4q-17 0 -34 1q-26 4 -56 9t-54 -3q-18 -4 -31 -27t-35 -37q-10 -6 -20 -8t-18 -6q-18 -12 -29 -34t-19 -47t-16 -53t-16 -52q26 -8 52 -4t56 0q32 -4 58 -15q17 -7 39 -7q12 0 25 2q54 8 110 17q20 3 40 3 q34 0 66 -10q4 -22 -7 -37t-27 -19q-6 -26 -21 -35t-34 -11t-42 -1t-45 -7q-16 -6 -32 -21t-40 -21q-10 -4 -22 -3t-28 -1q-14 -2 -28 -6t-26 -8q-12 -2 -24 0t-22 -2q-14 -4 -33 -12t-41 -6q-22 -24 -38 -62t-28 -80t-22 -86t-22 -82q-4 -16 -7 -36t-7 -30q-4 -6 -27 -13 t-51 -12t-53 -7t-31 4q-16 10 -19 -3t-13 -15q-12 -4 -28 -2t-30 -4q-10 -4 -16 -14t-16 -16q-18 -10 -36 -10q-7 0 -15 2q-25 6 -27 36z" />
<glyph unicode="g" horiz-adv-x="1198" d="M20 438q0 28 10 64q12 34 28 72t30 70q24 50 60 104q22 32 42 55t42 47q36 42 95 79t115 65q48 22 109 44t129 26q20 2 40 2q39 0 78 -8q58 -12 116 -16q34 -2 74 -3h9q35 0 65 7q10 2 20 5t19 5t18 -1t17 -13q-4 -20 -13 -34t-19 -30q-36 -8 -67 -31t-71 -27q-8 0 -15 3 t-15 3q-24 2 -53 -2t-57 -8q-38 -4 -64 -18t-60 -22q-78 -20 -139 -57t-95 -101q-16 -30 -33 -69t-49 -63q10 -22 7 -40t-10 -33t-16 -30t-13 -29q-4 -8 -3 -18t-1 -20q-4 -23 -4 -45q0 -39 12 -74q18 -55 68 -77q32 -16 62 -18q10 -1 22 -1q23 0 52 3q46 4 100 6t84 24 q16 12 24 32t24 40q16 22 26 53t8 57q-2 14 -19 28t-29 18q-14 6 -29 7t-28 4t-22 9t-9 22q0 20 27 29t65 12t79 3t65 4q30 6 63 26q30 18 61 18h6q20 0 30 -2t16 -6t11 -11t11 -17q7 -26 7 -50q0 -15 -3 -29q-8 -35 -24 -69q-6 -18 -7 -37t-5 -35t-17 -34t-25 -40 q-10 -22 -17 -46t-17 -46q-4 -6 -9 -11t-9 -13q-10 -22 -12 -43t-10 -37q-12 -38 -37 -66t-43 -56q-14 -4 -26 -5t-22 -3q-10 -4 -11 6t-9 14q-22 -16 -49 -34q-16 -11 -35 -11q-12 0 -26 5q-4 22 2 39t15 32t19 29t14 32q-28 -4 -54 -24t-56 -30q-10 -4 -23 -1t-27 -1 q-50 -8 -110 -24q-37 -10 -69 -10q-21 0 -39 4q-12 2 -19 9t-17 13q-22 12 -50 16t-50 12q-38 12 -62 39t-46 47q-2 16 -12 29t-23 24t-25 22t-18 25q-6 16 -7 36t-7 40q-8 32 -17 57t-14 50t-5 53z" />
<glyph unicode="h" horiz-adv-x="1324" d="M20 40q14 26 24 59t18 66t18 64t24 57q0 26 7 49t16 44t15 43t4 46q-2 18 -15 32t-28 29t-27 31t-10 36q4 8 19 14t32 10t34 6t27 4q18 24 22 54l8 60q4 22 11 40t11 46q2 16 9 30t11 30q6 26 5 49t13 45q28 16 76 29t84 13q14 0 24 8t20 17t21 15t23 4q10 -2 19 -15 t9 -23q2 -16 -10 -25t-18 -21q-10 -22 -17 -56t-17 -62q-4 -8 -10 -15t-8 -13q-2 -16 5 -36t-1 -40q-8 -30 -29 -59t-21 -71q10 -16 30 -23t40 -11q44 -10 99 -18t111 -8q30 0 60 2t54 -20q36 24 55 50t27 84q22 16 33 42t33 42q-2 10 -12 17t-10 21q-2 8 4 14t10 16 q12 46 14 89t18 95q36 34 93 45q20 4 41 4q38 0 80 -13q28 16 57 37t55 31q14 -4 20 -13t14 -15v-14q0 -59 -15 -106q-17 -52 -45 -94q-8 -10 -18 -17t-14 -17q-12 -22 -15 -49t-9 -57q-4 -26 -7 -53t-13 -51q-6 -16 -13 -25t-13 -20t-11 -24t-5 -37q0 -8 3 -18t3 -16 q-2 -50 -25 -106t-43 -108q-6 -16 -6 -33t-4 -39q-2 -18 -9 -44t-16 -53t-19 -51t-20 -34q-8 -8 -23 -16t-32 -12t-33 -4t-28 8q-16 -6 -24 -29t-30 -35q-12 -6 -40 -11q-16 -3 -26 -3q-8 0 -14 2q-12 4 -20 14t-18 20q0 34 5 64t19 50q-2 14 -2 27q0 35 12 64q16 41 38 75 q-16 16 -14 43t16 43q-2 20 -16 32t-35 18t-45 9t-44 7q-36 4 -52 3t-44 -3q-32 0 -61 2t-56 3t-52 -1t-47 -14q-2 -18 -10 -32t-17 -27t-16 -28t-9 -33q0 -6 3 -14t1 -14q-4 -28 -31 -67t-37 -83q-4 -22 -13 -44t-27 -32q-10 -6 -22 -6t-22 -4q-16 -8 -23 -19t-23 -15 q-6 0 -21 1t-30 1t-28 1t-17 5q-2 7 -2 15q0 6 1 13q3 16 -1 30z" />
<glyph unicode="i" horiz-adv-x="566" d="M10 102q4 46 31 83t41 77q8 26 11 55t4 58t5 58t14 57q-10 18 -8 40t2 46q10 14 16 32t28 24q20 44 20 91t10 97q2 10 8 18t10 18q14 42 14 89t16 89q12 4 30 13t37 18t37 15q14 4 25 4h7q10 -4 20 -11t24 -17q10 -6 19 -14t19 -14q8 -4 21 -7t17 -7q2 -2 13 -14t22 -26 t21 -27t12 -17q1 -4 1 -8q0 -9 -3 -19q-4 -15 -11 -30l-14 -30t-11 -27q-6 -22 -12 -43t-16 -43q-10 -26 -22 -60t-16 -72q-4 -28 -21 -42t-23 -40q-4 -18 -4 -38t1 -39t0 -37t-9 -34q-6 -10 -18 -15t-20 -15q-12 -20 -21 -50t-15 -63q-5 -28 -5 -57v-9q1 -33 11 -59 q-10 -32 -35 -56t-59 -37t-73 -14h-5q-36 0 -74 13q-16 24 -38 45t-34 51z" />
<glyph unicode="j" horiz-adv-x="604" d="M-574 -270q2 14 15 17t29 0t32 -10t24 -13q29 -5 55.5 -5t51.5 5q49 10 89 32q56 32 105 65t95 73q10 28 28 48t37 39t35 41t24 52q-8 28 9 50t25 44q4 16 2 33t-2 37q2 28 15 64t17 72q2 18 2 32t6 26q10 18 25 38t27 42t25 49t15 43q0 22 -12 45t-12 47q2 10 4 24t6 24 q10 36 26 67t26 69q8 28 10 56t18 56q28 20 59 35t65 29q12 2 15 -5t9 -11q16 14 29 43t41 43q6 4 16 3t20 3q28 6 40 19q8 9 23 9q7 0 15 -2q16 -4 26 -19t20 -27q-22 -84 -47 -156t-47 -156q-18 -6 -25 -22t-11 -36t-6 -43t-8 -43q-4 -16 -14 -29t-14 -27q-6 -24 -6 -53 t-4 -55q-12 -52 -40 -103t-46 -109q-16 -40 -25 -81t-25 -77q-10 -24 -25 -48t-29 -52q-14 -24 -26 -50t-28 -48q-10 -14 -27 -28t-31 -34q-32 -44 -65 -74t-91 -52q-16 -46 -58 -64t-100 -34q-26 -6 -58 -13t-58 -11q-18 0 -38 6t-42 10q-54 8 -101 10t-85 22 q-14 10 -34 29q-17 16 -17 32q0 4 1 7z" />
<glyph unicode="k" horiz-adv-x="1192" d="M10 -10v15q0 23 4 46q6 31 14 59q6 30 13 58t13 58q4 14 7 28t7 26t12 22t12 22t2 24t-2 24q4 24 14 46t24 38q2 46 11 85t20 75t22 73t17 77q24 42 46 102q10 26 17 56t15 56t21 46t37 30q10 34 39 60q16 15 36 15q15 0 33 -9q8 -8 13 -21t9 -26t9 -25t15 -20 q16 -14 36 -14t38 -12q10 -26 9 -48t-9 -43t-18 -41t-16 -40q-4 -10 -4 -23t-4 -23t-7 -20t-7 -20q-6 -34 -11 -59t-29 -43q10 -26 0 -40t-12 -38q30 12 54 32t47 41t48 41t57 34q10 0 21 1t21 -3q16 10 28 24t22 28q12 12 21 27t21 29q20 18 43 30t45 28t34 37t32 37 q32 24 70 41t72 45t75 50t77 40q7 3 13 3l11 -2q12 -5 26 -15q10 -46 10 -82t-28 -60q-8 -8 -18 -11t-18 -11q-14 -14 -21 -32t-17 -34q-58 -28 -108 -67t-106 -71q-26 -14 -51 -34t-49 -36q-10 -10 -19 -20t-21 -18q-14 -10 -30 -13t-30 -9q-22 -14 -36 -32t-34 -40 q0 -52 13 -89t31 -70t35 -67t27 -76q30 -14 41 -44t33 -52q6 -8 16 -11t18 -11q10 -8 16 -20t16 -22q18 -16 37 -27t35 -27t32 -34t44 -26q18 -34 40 -62t62 -40q4 -16 18 -27t12 -23q-6 -22 -36 -25q-13 -1 -27 -1q-19 0 -42 2q-39 4 -76 12t-55 10q-4 4 -9 7t-9 7 q-46 4 -78 20t-62 34q-14 26 -30 50t-38 44q0 16 -5 28t-5 32q-16 12 -32 23t-42 15q-18 28 -28 61t-32 61q-4 8 -11 12t-11 14q-4 12 -3 25t-3 23q-6 30 -21 51t-27 45q-4 46 -26 50t-49 -11t-53 -37t-40 -30q-14 -22 -20 -58t-18 -68q-4 -8 -11 -14t-15 -22 q-16 -32 -23 -82t-23 -90q-12 -38 -56 -44q-9 -1 -17 -1q-34 0 -63 19q-16 -10 -29 -20t-29 -10q-22 2 -42 19t-38 23z" />
<glyph unicode="l" horiz-adv-x="978" d="M-8 2q4 18 15 37t21 43q16 42 24 89t22 75q8 16 24 30t18 30q2 12 -4 20t-6 22q0 10 5 21t7 27t0 29t2 23q4 12 12 23t17 22t15 25t6 32q0 10 6 33t4 35q-3 19 -3 36q0 19 4 34q7 28 18 51t24 47t19 58q8 42 12 88t15 83t34 59q18 17 52 17q9 0 19 -1q20 -24 27 -46 t21 -50q6 -16 32 -28t36 -26q10 -12 23 -25t17 -27q6 -26 3 -60t-5 -62q-2 -16 -4 -33t-6 -29q-4 -14 -9 -24t-7 -20q-4 -20 -5 -35t-5 -29q-10 -30 -29 -52t-29 -52q-6 -14 -9 -32t-7 -34q-12 -44 -26 -100q-11 -44 -11 -85q0 -12 1 -23q16 4 28 6t22 3t23 -1t33 -6 q30 -8 66 -20t74 -16q28 -2 57 0t57 -2t53 -9t47 -1q10 4 15 7t13 5q15 3 32 3q20 0 42 -4q42 -7 78 -11q6 0 18 1t24 0t20 -7t8 -18q-2 -18 -27 -28t-41 -14q-24 -6 -45 -6t-45 -6q-22 -6 -39 -15t-35 -13q-6 -4 -12 -3t-14 -1q-12 -4 -28 -13t-26 -11q-14 -3 -30 -3 q-23 0 -47 7q-31 9 -62 9q-10 0 -21 -1q-16 -2 -32 -7t-32 -9t-32 -6t-28 -6l-56 -4q-14 2 -41 -10t-49 -20q-22 -6 -48 -14t-50 -6q-16 2 -30 9t-26 5q-10 0 -18 -8t-20 -12q-22 -8 -52 -13q-21 -4 -42 -4q-8 0 -16 1q-28 2 -45 15q-13 10 -13 27q0 7 2 14z" />
<glyph unicode="m" horiz-adv-x="1644" d="M2 32q4 28 19 61t25 73q14 52 25 94t35 72v38q8 14 14 27t18 23q-6 28 -3 54t12 51t19 48t18 45q8 24 10 43t12 35q4 8 14 13t16 15q10 18 23 51t17 53q6 18 5 37t-3 38t-1 37t11 32q6 10 21 18t25 14q22 14 42 23t48 19q10 4 22 8t20 4q22 0 40 -14t42 -24q10 -4 20 -4 t16 -2q36 -16 64 -39t48 -43q21 -73 21 -151v-7v-18q0 -72 7 -140l8 -24t6 -24q2 -22 -1 -42t1 -40q6 -40 21 -72t23 -70q20 10 32 31t22 41q20 42 40 79t48 71q22 30 34 66t44 56q12 10 26 12t24 16q10 76 39 130t67 106q16 20 37 53t41 41q18 8 45 3t49 -5q30 0 51 8 t40 16t40 14t51 2q4 4 10 5t12 5q18 -8 36 -19t33 -26t24 -34q7 -16 7 -33v-8q0 -10 -8 -22t-14 -28q-4 -12 -10 -26t-10 -26q-6 -22 2 -45t-2 -37q-8 -10 -21 -16t-19 -18q-10 -14 -13 -36t-9 -40q-12 -40 -23 -78t-19 -80q-6 -34 -11 -66t-27 -48q-6 -32 -5 -63t-3 -61 q-8 -58 -32 -112t-38 -106q-8 -30 -13 -53t-25 -41q-32 -4 -62 -12t-58 -8q-10 2 -10 14t-8 16q-26 0 -41 -1t-43 9q-12 28 -12 58t10 58q4 12 13 21t13 19q2 10 -1 22t-3 22q2 60 26 119t34 117q2 16 -2 39t0 39q4 18 15 34t15 36q8 40 9 79t17 77q-68 -70 -124 -143 t-106 -169q-22 -46 -54 -83t-54 -87q-4 -10 -4 -19t-4 -19q-10 -22 -27 -46t-27 -54q-6 -22 -13 -48t-18 -49t-27 -39t-42 -18q-24 0 -39 9t-35 3q-30 22 -61 41t-49 57q-20 38 -29 97t-21 107q-4 16 -11 31t-9 27q-2 24 0 47t-2 45q-6 24 -25 42t-29 34q-6 30 -8 65t-4 69 q-20 -8 -24 -32t-14 -52q-6 -14 -13 -26t-9 -22q-2 -12 2 -24t2 -28q-2 -12 -7 -30t-9 -34q-10 -28 -24 -56t-22 -62q-12 -34 -15 -73t-13 -67q-4 -12 -16 -22t-24 -23t-21 -29t-9 -36q-22 -16 -47 -27t-59 -23q-18 -6 -37 -8t-35 5t-24 24q-5 11 -5 28q0 9 1 19z" />
<glyph unicode="n" horiz-adv-x="1294" d="M-18 106q-2 8 -2 20t2 29q4 33 12 53q8 22 34 52t40 68q14 36 23 69t27 53q14 14 30 25t18 29q0 16 -9 28t-7 32q0 18 11 46t21 50q22 48 34 98q4 14 7 33t7 29q6 8 13 26t17 36t22 33t26 21q16 6 35 9t35 11q18 6 22 14t20 16q12 4 25 4t27 4q16 6 34 18t42 -2 q10 -6 20 -36t20 -56q4 -14 11 -34t13 -41t12 -38t10 -25q10 -20 14 -42t12 -40q10 -20 20 -38t20 -40t18 -42t20 -42q8 -16 24 -29t20 -29q6 -16 0 -35t-2 -35q6 -22 26 -36t36 -30q10 -12 12 -24t18 -16q4 38 9 66t11 55t12 56t10 65q20 26 36 49t14 61q-2 12 -7 24t-3 26 q2 20 8 36t16 40q6 16 10 33t10 37q6 16 11 26t11 19t10 20t8 33q6 34 6 58t10 48q16 36 51 61t67 41q56 -2 92 -29t46 -65q7 -17 7 -31q0 -16 -9 -28q-16 -23 -32 -51q-10 -18 -15 -34t-8 -31t-6 -31t-11 -36q-6 -20 -18 -33t-16 -27q6 -28 5 -46t-6 -33l-10 -30t-9 -33 q-4 -14 -4 -28t-4 -26q-6 -24 -16 -44t-20 -38q-14 -30 -31 -56t-21 -70q-2 -28 -3 -49t-2 -39t-6 -38t-13 -48q-4 -16 -11 -31t-11 -31q-12 -52 -34 -79t-66 -55l-48 -12t-47 -6t-43 7t-34 29q-10 16 -21 47t-25 61q-6 14 -13 27t-11 27q-10 22 -13 38t-13 44 q-14 44 -44 66t-52 48q-2 20 -6 36t-18 26q-4 4 -10 5t-10 7q-6 8 -8 19t-8 17q-4 4 -12 18t-15 28t-15 25t-12 9q-10 0 -19 -16t-18 -36t-17 -39t-14 -27q-10 -14 -15 -41t-13 -43q-14 -24 -25 -48t5 -52q0 -14 -7 -23t-3 -29q-12 -22 -23 -50t-23 -62q-6 -20 -10 -41 t-10 -40t-17 -33t-29 -16q-7 -1 -13 -1q-16 0 -27 7q-16 10 -30 23t-28 28t-30 23q-15 -5 -29 -5q-25 0 -45 16q-32 25 -40 59z" />
<glyph unicode="o" horiz-adv-x="1214" d="M30 408v16q0 27 5 53q7 33 16 65t20 62t19 58q8 34 30 54t42 44q8 8 12 18t12 20q16 20 36 35t38 31q20 16 42 31t36 31q16 22 25 44t29 38q22 18 49 26t63 18q34 8 67 23t71 19q36 4 78 5h17q33 0 66 -3q41 -4 78 -14t65 -28q14 -8 29 -24t29 -30q32 -32 55 -65t57 -63 q20 -40 30 -74t16 -92q4 -40 9 -71q3 -17 2 -39q0 -17 -1 -38q-2 -32 -10 -67t-20 -65q-18 -54 -34 -94t-38 -86q-14 -26 -28 -42t-30 -34q-4 -6 -7 -14t-9 -14q-26 -30 -71 -62t-83 -46q-14 -4 -29 -5t-31 -5q-20 -8 -34 -23t-36 -21q-12 -4 -29 -7t-33 -7q-40 -10 -99 -20 q-27 -5 -52 -5q-30 0 -57 7q-8 2 -16 8t-18 10t-20 6t-18 6q-26 10 -50 28t-50 28q-28 16 -56 29t-38 47q-34 10 -48 46t-34 64q-6 10 -17 17t-15 17q-14 22 -22 71t-10 83zM334 368q2 -12 9 -31t13 -35q8 -18 15 -35t15 -31q12 -24 31 -51t44 -46t56 -28q15 -4 30 -5 q18 0 37 6q22 8 54 25t58 33q38 24 54 49t32 65q4 10 11 19t13 19q12 22 20 48t20 50q24 54 30 104t10 120v16q0 26 -5 40q-7 18 -11 50q-2 22 -2 41t-8 33q-10 18 -37 24t-43 22q-16 26 -34 50t-44 40q-10 -2 -14 0t-8 2q-8 0 -23 -6t-30 -13t-27 -15l-18 -12 q-24 -22 -43 -55t-43 -59q-10 -10 -21 -15t-17 -13q-34 -38 -49 -88t-31 -96q-18 -48 -34 -108q-12 -44 -11 -84q-1 -15 1 -30z" />
<glyph unicode="p" horiz-adv-x="1128" d="M-8 -49q6 29 20 67t33 79t37 75q12 24 16 65t6 69q0 10 -4 19t-2 19t13 26t19 32q14 36 17 83t15 79q4 10 11 19t11 19q4 12 2 30t-2 34q0 26 11 59t21 64t15 60t-3 51q-6 30 -6 40t-4 14q-10 10 -7 13t-9 11q-10 10 -19 17t-23 17q-12 8 -25 15t-15 25q18 16 31 22t25 7 h6q10 0 20 -2q14 -3 34 -5q34 -4 61 -2t67 2q26 0 59 -5t59 -9t53 -1t49 -1q18 -4 32 -9t34 -5q56 0 107 12q31 7 59 7q20 0 38 -3q16 -4 35 -10t37 -12l27 -9t25 -9t33 -19t35 -29q28 -20 57 -42t39 -54q4 -10 11 -32t7 -32v-6q0 -23 -14 -46q16 -24 12 -53t-19 -58 t-37 -55t-40 -44q-30 -28 -65 -49t-75 -41q-22 -10 -42 -25t-38 -23q-10 -4 -11 -2t-13 0q-40 -8 -78 -28t-80 -30q-10 -4 -22 -3t-22 -1q-30 -4 -59 -15t-59 -15q-28 -4 -51 -4t-49 -8q-28 -58 -45 -130t-33 -130q-8 -28 -31 -41t-51 -18t-56 -7t-46 -8t-39 -19t-41 -24 t-37 -17q-7 -3 -13 -3q-7 0 -12 5t-5 16q0 9 3 21zM440 502q2 -18 20 -24q3 -1 7 -1q6 0 12 3q9 4 21 6q8 0 17 -3t19 -1q74 6 137 26t79 82q8 4 15 7t17 7q30 32 51 88t25 102q0 16 -13 35t-17 29q-4 8 -18 17t-32 18t-37 15t-29 8t-18 2q-10 0 -18 -3q-14 -5 -34 -7 q-28 -2 -52 0t-42 -16q-6 -36 -25 -73t-29 -75q-8 -28 -13 -56t-11 -56q-4 -18 -13 -42t-15 -47q-4 -17 -4 -32v-9z" />
<glyph unicode="q" horiz-adv-x="1264" d="M31 395q5 43 13 95q2 16 0 34t2 34q6 36 21 74t27 60q8 14 19 26t20 25t14 29t3 40q26 76 90 122t136 86q22 12 48 23t54 17q28 10 57 19t53 15q10 2 18 3t14 1q21 1 41 1q51 0 100 -7q69 -10 137 -32q18 -20 46 -32t52 -32q10 -10 19 -23t19 -25q10 -10 23 -19t23 -19 q10 -14 15 -29t15 -31t21 -28t15 -24q8 -18 9 -45t5 -47q4 -22 13 -44t15 -48q6 -22 13 -50t7 -50q-2 -22 -10 -46t-14 -46q-6 -24 -8 -49t-12 -45q-18 -42 -47 -78t-62 -68t-68 -62t-67 -58q-4 -8 -15 -6t-13 -4q10 -36 40 -59t52 -53q8 -10 12 -22t14 -22q16 -10 35 -15 t41 -15t45 -28t51 -22q6 -2 13 0t15 0q14 -2 28 -6t32 -4h32t33 -2t27 -6q14 -5 14 -19q0 -9 -8 -19q-10 -12 -25 -23t-30 -19t-23 -12q-22 -9 -54 -9h-6q-36 1 -64 7q-12 4 -22 8t-20 4q-12 2 -24 -3t-24 -5q-20 -2 -42 4t-40 14q-190 78 -322 230h-21q-43 0 -82 -6 q-22 -4 -44 -4q-28 0 -57 6q-46 10 -90 23t-78 33q-46 24 -85 60t-73 64q-30 38 -52 82t-30 106q-30 28 -30 64q0 5 1 11zM333 486q-1 -9 -1 -17q0 -16 4 -31q2 -8 6 -12t6 -12q6 -26 -1 -45t-5 -45q4 -34 21 -58t31 -46q6 -12 13 -23t17 -15q22 6 45 17t47 27q22 10 46 25 t48 17q8 0 18 -2t22 -4q22 -4 42 -4t36 -14q4 -16 18 -23t24 -19q24 16 37 36t29 54q12 28 30 66t22 70q3 23 3 46q0 12 -1 24q-1 18 -1 36t1 36q2 34 5 68t7 66q2 10 5 21q2 7 2 13q0 4 -1 8q0 26 -14 54q-4 20 -11 40t-15 32q-16 30 -39 39t-57 19q-12 4 -22 9t-18 5h-8 q-15 0 -29 -6q-17 -8 -33 -8q-8 0 -15 3t-17 -1q-16 -22 -39 -35t-47 -31q-26 -22 -47 -40t-43 -42q-6 -6 -13 -14t-11 -16q-4 -6 -6 -17t-6 -21t-11 -16t-13 -16t-12 -25t-14 -33q-10 -24 -17 -45t-11 -49q-4 -20 -7 -46z" />
<glyph unicode="r" horiz-adv-x="1212" d="M5 -46q-3 11 -3 26q0 27 10 70q10 42 31 82t29 68q4 18 3 33t-3 29t-2 25t8 21q2 22 12 35t14 35q4 20 10 42t8 42q2 24 3 45t13 49q10 26 21 53t15 53q4 20 5 41t9 41q4 16 17 26t17 26q2 12 -2 22t0 20q9 30 9 50q0 7 -1 13q-4 23 -13 38t-16 29t-1 38q10 2 18 17 t22 19q8 2 30 3t48 2t50 0t38 -1q16 -2 40 1t50 4t49 1t39 -8h266q16 -4 32 -4t32 -4q6 0 12 -4t12 -6t12 0t12 0q46 -12 74 -37t56 -61q12 -20 30 -47t30 -60t14 -69v-8q0 -32 -14 -64q-4 -10 -12 -25t-16 -31q-12 -22 -30 -46t-38 -34q-16 -10 -27 -18t-27 -16 q-28 -10 -55 -29t-55 -31q-10 -4 -21 -5t-21 -5q-14 -8 -22 -22t-30 -20q50 -12 92 -55t64 -89q10 -28 28 -50t16 -50q14 -12 23 -31t15 -41t11 -45t13 -41q12 -26 26 -43t30 -32t32 -32t28 -43q8 2 13 5t15 1q30 -22 67 -34t91 -20q33 -6 64 -6q12 0 23 1q41 3 85 11 q14 2 35 11t42 15t37 5t16 -21q0 -14 -18 -34t-32 -30q-34 -24 -78 -38t-92 -23t-98 -13t-94 -6q-28 0 -51 9t-41 13q-40 6 -71 14t-59 24q-24 14 -42 39t-50 31q-52 46 -104 93t-82 117q-10 18 -22 35t-18 37q-6 14 -7 30t-5 36q-4 22 -12 47t-16 47q-2 6 -6 12t-6 12 q-4 12 -8 29t-14 27q-10 8 -33 18t-39 14q-22 4 -43 -2t-39 -8q-26 -4 -50 -1t-40 -3q-28 -10 -46 -52t-22 -88q-8 -46 -24 -89t-26 -83q-8 -26 -26 -43t-50 -13q-16 2 -25 3t-23 9q-10 -4 -35 -19l-35 -21q-26 -8 -44 -8q-26 0 -31 18zM426 542q30 4 60 -3q23 -5 45 -5h13 q16 0 31 8t29 4q20 -4 40 -6t44 -6q3 -1 7 -1l13 3q10 4 26 2q32 24 57 36t47 48q10 18 22 35t16 29q6 20 6 38q0 23 -10 41q-18 33 -34 59q-20 30 -38 43t-60 9q-14 -1 -28 -1q-21 0 -42.5 2t-41.5 2q-14 0 -27 -1q-33 -2 -59 -12t-38 -36q-10 -30 -24 -66t-26 -73t-20 -75 t-8 -74z" />
<glyph unicode="s" horiz-adv-x="1086" d="M-8 250q-2 9 -2 19q0 20 8 43q12 34 22 58q12 2 23 2q23 0 40 -9q25 -13 43 -35t32 -49t28 -47q16 -26 50 -40t66 -28q12 -6 23 -11t21 -9q26 -10 45 -21t41 -13q20 0 39 3t43 7q24 8 48 7t46 9q26 10 30 24t18 38q-8 38 -18 54t-36 38q-10 8 -23 13t-23 11 q-42 26 -92 52t-110 36q-38 12 -79 33t-59 57q-6 8 -7 16t-5 18q-16 40 -45 76t-39 82q-4 14 -2 29t5 29t5 30t-2 34q8 8 10 16t6 16q8 12 11 25t17 25t23 25t19 21q6 4 14 5t14 5q10 6 18 15t18 17q40 30 90 51t102 33q8 10 26 17t39 10t41 5t34 4q62 -8 99 -20t70 -25 t71 -25t98 -20q24 -18 51 -43t47 -55t29 -63q4 -13 4 -26q0 -20 -9 -41q-10 -20 -16 -45t-18 -45q-10 -16 -21 -38t-25 -36q-28 -28 -72 -40q-33 -9 -65 -9q-11 0 -21 1q-12 20 -37 34t-50 29t-46 34t-27 47q-2 14 -2 28q0 21 5 44q9 38 43 54q18 -8 24 -21t9 -27t7 -28 t20 -22q4 -4 14 -10t22 -13t23 -12t17 -3q12 2 22 18t17 37t9 43t-2 36q-4 6 -22 17t-28 15q-28 10 -52 24t-52 24q-12 4 -25 13t-25 9q-8 2 -18 -3t-20 -5q-12 -2 -29 -1t-35 -1t-37 -6t-33 -14q-26 -22 -37 -49t-29 -61q-4 -8 -14 -18t-10 -24q0 -8 7 -14t11 -18 q6 -12 8 -25t6 -23q6 -6 12 -11t10 -9q6 -6 9 -14t9 -12l35 -21t47 -19q38 -8 69 -25t61 -29q22 -10 35 -23t23 -26t21 -25t31 -18q10 -4 18 -4t18 -4t20 -13t22 -19q8 -8 15 -17t11 -17q6 -12 8 -31t2 -31q1 -16 1 -30q0 -28 -3 -46q-4 -28 -14 -52t-25 -48t-33 -62 q-26 -12 -54 -27t-48 -31q-10 -8 -28 -20t-32 -16q-28 -10 -68 -12t-74 -14q-20 -6 -47 -2t-49 2q-26 -4 -44 -9q-10 -3 -22 -3q-9 0 -20 2q-28 4 -62 21t-60 33q-10 4 -16 11t-16 13q-14 8 -28 11t-26 13t-22 19t-20 19q-24 16 -53 33t-41 35q-8 10 -9 27t-9 33 q-4 14 -14 24t-12 20z" />
<glyph unicode="t" horiz-adv-x="920" d="M67 1018q11 28 27 40q36 6 72 6q40 0 82 -7q69 -11 139 -11h21q32 2 64 12q16 5 32.5 5t33.5 -5q10 -4 35 -13t35 -13q10 -2 20 0t20 0q16 0 31 -5t31 -5q20 0 29 1t16 3t15 5t26 5q16 2 32 -2t32 -4h12q38 0 73 11q41 13 81 17q15 1 30 1h15q23 -1 43 -13 q-4 -32 -23 -40t-39 -18q-14 -10 -20 -26t-16 -24q-10 -10 -29 -15t-31 -9q-34 -10 -71 -10t-65 -4q-16 -4 -32 -18t-34 -22q-18 -6 -28 -10t-17 -10t-13 -15t-16 -25q-10 -18 -10 -52t-6 -56q-6 -18 -13 -42t-15 -52q-4 -16 -4 -35t-4 -35q-6 -20 -19 -30t-19 -36 q-4 -12 -3 -25t-1 -25q-8 -48 -19 -104t-21 -110q-10 -46 -21 -88t-27 -78q-16 2 -32 -9t-32 -15q-14 -4 -27 -4t-25 -10q-14 -14 -36 -37t-38 -27q-7 -2 -13.5 -2t-11.5 2q-11 4 -21 6q-16 0 -31 -1t-35 1q-8 20 -6 43t9 45t16 43t13 41q4 14 5 30t7 32q6 18 19 33t19 35 q8 22 20 52t14 50q4 24 -1 46t3 48q4 12 11 21t11 25q6 22 8 47t6 49q4 22 8 43t10 43q6 26 13 49t12 45t5 43t-12 45q-12 22 -32 32t-44 12t-52 0t-54 -2q-10 6 -18 22t-22 22q-24 8 -53 8t-43 22q-6 16 -6 31q0 14 5 27z" />
<glyph unicode="u" horiz-adv-x="1108" d="M20 224q6 42 18 78t26 70q6 24 7 53l2 58t5 58t14 53q4 10 18 21t20 21q6 16 10 37t8 37q4 26 8 64t6 66q4 52 13 99t45 67q30 8 55 22q16 9 39 9q13 0 28 -3q10 -2 25 -7l27 -9q28 -8 45 -13t21 -39q2 -10 -2 -33t-10 -39q-4 -10 -12 -18t-12 -18q-4 -6 -3 -14t-3 -14 q-4 -10 -16 -32t-16 -32q-12 -22 -20 -46t-18 -52q-12 -34 -28 -76t-26 -84q-8 -42 -8 -79t-6 -75q-4 -16 -10 -30t-2 -36q-22 -22 -14 -44t24 -46q12 -12 26 -28t32 -30t42 -21t54 -3q20 4 42 16t40 22q40 16 70 41t44 65q8 20 9 39t0 38t0 40t11 45q10 22 30 40t26 42 q4 12 1 23t-3 23q0 28 8 56t19 57t20 57t11 56q2 26 4 44t5 33t7 30t14 35q10 18 18 39t12 53q4 10 4 25t6 27q8 18 26 29t40 17t46 9t44 7q16 -4 16 -23t8 -29q20 12 50 25q21 9 45 9q11 0 23 -2q10 -24 10 -45t-4 -41t-10 -41t-10 -45q-4 -40 -10 -62t-14 -52 q-10 -32 -15 -63t-11 -59t-16 -51t-30 -41v-14q0 -75 -19 -152q-21 -84 -49 -150q-8 -18 -13 -38t-11 -34q-6 -12 -15 -23t-19 -23q-28 -52 -59 -97t-87 -67q-16 -6 -29 -10t-27 -12q-18 -10 -47 -28t-55 -20q-14 0 -32 6t-34 6q-18 0 -39 -3t-40 -3t-35 4t-26 20 q-24 4 -44 -10t-42 -14q-24 2 -41 18t-39 26q-14 -8 -26 -7t-26 -3q-12 8 -24 11t-24 11q-22 18 -33 47t-19 62t-17 64t-27 53z" />
<glyph unicode="v" horiz-adv-x="1100" d="M92 994q0 32 2 38q4 16 25 31t39 15t30 -12t32 -18q16 -4 26 -6t32 -2q20 2 41 -4t37 -10q34 -10 50 -48q12 -28 12 -60q0 -12 -2 -24q-4 -18 -4 -40t-6 -40q-4 -14 3 -25t5 -23q0 -12 4 -37t10 -54t12 -55t10 -38q8 -26 22 -49t14 -45q0 -12 -4 -23t-4 -21 q-1 -12 -1 -23q0 -36 10 -66q13 -39 35 -73q30 18 47 49t37 59q22 26 44 50t42 52q2 12 3 14t2 3t2 3t5 12q26 16 51 37q17 14 17 41q0 13 -4 28q14 28 26 47t25 36t26 36t29 45q28 4 34 29t16 51q10 22 22 42t22 38q14 20 26 38t26 32q6 22 22 48t39 46t52 27q10 2 20 2 q20 0 41 -9q18 -8 33 -32t17 -46q0 -36 -24 -70t-34 -58q2 -18 -6 -32t-20 -26t-24 -22t-18 -22q-24 -20 -37 -33t-41 -33q-18 -16 -28 -34t-16 -39t-12 -45t-18 -50q-18 -40 -48 -71t-52 -69q-26 -40 -33 -77t-33 -77q-8 -14 -20 -27t-22 -27q-38 -50 -77 -100t-67 -110 q-12 -2 -21 -14t-19 -22q-6 -4 -16 -7t-18 -7q-12 -10 -22 -20t-32 -18q-16 -4 -37 -7q-13 -2 -22 -2q-6 0 -11 1q-32 6 -58 41t-36 69q-32 28 -46 65t-22 87q-2 10 -1 18t1 18q-2 20 -12 41t-22 43t-22 45t-10 45q0 20 2 40t-2 42q-4 20 -15 35t-13 43q-2 16 -5 43t-6 56 t-5 56t-4 41q-4 40 -20 89t-24 83q-4 20 -4 52z" />
<glyph unicode="w" horiz-adv-x="1556" d="M134 778q0 34 8 71t10 71q2 30 0 59t14 57q14 22 37 33t49 17q22 -12 40 -18t34 -24q14 -16 25 -37t25 -31q20 -12 32 -11t26 -19t18 -48t3 -59t-4 -62t-1 -59q2 -16 2 -29t-2 -39q-2 -22 8 -46t6 -40q-2 -12 -12 -19t-12 -23t9 -29t13 -29q8 -34 2 -61t0 -55 q28 16 45 42t33 48q20 22 22 45t18 45q14 18 37 50t39 48q8 10 17 38t17 38q18 26 40 51t44 47q28 -16 49 -2t7 40q10 16 26 38t36 38q25 17 53 17q6 0 12 -1q35 -4 67 -26q16 -28 15 -57t1 -59q0 -18 6 -36t6 -40q0 -20 -1 -46t-2 -53l-2 -54t3 -49q12 -18 17 -44t7 -54 t5 -55t13 -47q24 0 27 10t13 28q10 22 15 32t8 18t7 18t14 32t21 43t19 43t9 34t21 28q12 10 26 18t20 24q4 10 3 18t3 16q8 34 22 68t22 64q6 30 11 58t29 50q12 38 22 58t22 36t24 35t26 53q40 -8 69 -29t45 -65q6 -22 14 -40q4 -8 4 -18q0 -12 -6 -26q-6 -16 -12 -22 t-13 -10t-14 -13t-13 -33q-2 -10 0 -20t0 -22q-4 -22 -13 -46t-13 -32q-10 -14 -27 -21t-29 -19q-6 -10 -15 -22t-13 -24q-22 -46 -32 -95t-30 -101q-12 -30 -26 -42t-26 -22t-20 -27t-8 -59q-20 -44 -34 -91t-34 -95q-20 -46 -41 -83t-55 -73q-26 2 -51 2q-18 0 -36 -1h-11 q-34 0 -60 17q-4 4 -7 11t-9 17q-16 20 -24 37t-14 47q-4 8 -8 15t-6 15q-4 12 -2 30t-2 34q-6 26 -17 46t1 48q-16 24 -29 67t-17 89q-1 17 -1 38.5t1 48.5v20q0 39 -6 65q-20 -8 -35 -28t-28 -42t-27 -43t-32 -31q-16 -22 -29 -64t-23 -66q-20 -46 -59 -73t-73 -59 q-18 -18 -32 -42t-27 -50t-27 -50t-34 -42q-12 -10 -24 -14t-22 -18q-42 -14 -76 -15h-3q-32 0 -59 21q-12 8 -23 30t-18 49t-10 57t-3 52q2 16 9 30t7 30q0 12 -7 23t-9 23q0 16 8 27t8 21q0 14 -11 26t-13 28q0 24 -5 56t-9 65t-7 65t1 54q4 14 10 26t6 24q2 28 -13 57 t-15 61z" />
<glyph unicode="x" horiz-adv-x="1228" d="M-62 -10q-1 7 -1 13q0 16 7 28q10 17 26 31t34 26t30 24q22 22 42 45t42 39q18 14 41 31t46 37t43 40t32 38q10 4 17 8t15 8q10 28 29 46t37 36q-10 34 -21 53t-21 49q-4 4 -12 2t-12 2q-16 26 -22 48t-22 50q-6 10 -14 19t-12 19q-4 14 -2 28t-6 26q-4 10 -13 11t-21 7 q-12 10 -19 28t-17 34q-8 8 -18 17t-19 19t-14 23t-3 33q2 10 6 18t6 18q4 18 27 42t52 46t60 37t53 15q10 0 30 -17t26 -27q6 -8 10 -20t12 -24q16 -34 27 -66t27 -68q28 -60 55 -108t61 -104q6 -12 24 -34t28 -22q12 0 39 19t37 29q22 16 36 35t25 39t23 39t34 33 q22 -4 33 3t23 13q4 38 29 53t51 35q12 8 17 12t8 7t8 6t17 11q14 8 19 12t8 8t9 9t20 15q24 18 44 31t40 29t31 26t20 20t20 21t31 27q22 -2 35 -11t25 -19q6 -17 6 -35q0 -14 -4 -29q-8 -34 -14 -62q-4 -14 -4 -26v-23t-4 -21t-14 -22q-4 -4 -11 -8t-15 -8l-36 -33 t-21 -19t-22 -16t-41 -24q-12 -16 -23 -26t-22 -18t-23 -17t-26 -23q-32 -30 -64 -59t-84 -35q-10 -30 -28 -50t-39 -37t-45 -31t-46 -30q28 -46 45 -72t32 -47t34 -45t53 -68q-2 -6 -3 -13t-3 -13q40 -10 69 -41t63 -59q8 -6 19 -12t21 -14t17 -16t7 -18q-2 -18 -12 -32 t-24 -20t-28 -2t-26 26q-10 -18 -22 -33t-26 -25l-25 5t-23 7q-16 -2 -25 -10t-18 -17t-19 -15q-8 -4 -18 -4h-8q-14 2 -23 18t-19 28q-16 22 -45 48t-47 54q-10 16 -17 30t-25 24q-36 16 -42 26t-11 21t-10 23t-19 28q-10 14 -13 18t-3 5t-1 5t-9 20q-8 -10 -16 -6l-16 8 q-26 -18 -54 -47t-59 -56t-64 -50t-69 -29q-14 -30 -29 -43t-47 -35q-22 -16 -42 -31t-48 -19h-10q-30 0 -64 10q-40 12 -56 34z" />
<glyph unicode="y" horiz-adv-x="1162" d="M-438 -368q10 14 33 15t41 -5q26 4 42 10t30 13t28 13t36 10q38 8 71 20q22 8 49 8q13 0 28 -2q6 4 9 18t9 18q28 34 64 52q14 24 32 33t37 14t40 11t41 24q38 34 72 61t62 73q12 16 23 36t25 42q8 12 17 20t19 24q4 6 -1 13t-11 13t-11 13t-3 15q4 10 0 31t-8 35 q-4 30 -13 68t-17 60q-10 16 -17 27t-9 31q-2 28 1 50t-1 44q-10 48 -20 82q-6 22 -17 37t-19 37q0 24 -11 53t-24 59t-24 59t-13 53q-12 18 -32 32t-38 25t-31 20t-13 19q0 12 5 17t11 8t13 7t13 16q14 6 32 6t38 -3t39 -6t37 -1q17 2 34.5 2t34.5 -2q35 -4 69 -6 q2 -10 14 -11t24 0t23 -1t13 -10q2 -10 1 -39t-3 -64q-1 -23 -1 -46v-23q1 -34 9 -52q4 -10 12 -16t12 -14q12 -22 15 -48t17 -46q-4 -12 -12 -18t-12 -16q16 -18 24 -40t-2 -62q18 -4 25 -16t10 -28t5 -31t12 -25q14 0 16 6t12 6q20 26 41 60t44 69t46 67t47 54q6 6 16 11 t14 13q14 20 18 55t14 57q10 26 28 48t34 48q12 22 22 39t23 29t31 19t46 9q14 0 26 -5t26 -5q38 0 80 7t85 15t84 9h6q38 0 75 -11q1 -4 1 -8q0 -22 -20 -32q-23 -12 -41 -22q-22 -14 -47 -31t-41 -35q-10 -12 -18 -26t-18 -26q-30 -34 -63 -75t-55 -93q-28 -40 -65 -76 t-71 -82q-18 -24 -33 -53t-33 -57q-28 -44 -51 -83t-71 -55q-2 -34 -24 -58t-36 -48q-30 -54 -61 -104t-71 -94q-28 -10 -47 -25t-33 -32t-27 -37t-31 -42q-12 -12 -25 -17t-26 -8t-26 -8t-23 -17q-16 -22 -32 -45t-36 -41q-22 -22 -48 -35t-42 -39q-40 -14 -78 -27t-90 -27 q-22 -6 -42 -9t-46 -9q-28 -6 -54 -18t-54 -14q-16 -1 -32 -1q-47 0 -91 9q-59 12 -105 30q-2 16 -12 24q-6 5 -6 15q0 7 2 15z" />
<glyph unicode="z" horiz-adv-x="1150" d="M-82 12q8 30 28 54t44 45t49 41t45 42q2 8 2 30q14 10 19 22t17 24q10 10 21 15t19 15q6 8 9 16t9 16q10 14 27 24t31 26q20 22 38 48t38 48q10 10 23 18t23 18q32 26 56 56t50 46q12 6 25 11t23 12t15 18t-1 31q18 12 28 30t22 34q10 14 23 22t23 20q24 26 41 51t33 55 q-18 6 -36 16q-41 -3 -74 -3q-16 0 -30 1q-17 1 -32 1q-23 0 -42 -2q-32 -3 -61 -15t-63 -46l-24 -24t-26 -28q-34 -32 -56 -54t-54 -60q-16 -16 -36 -33t-48 -5q-6 26 10 45t26 41q12 20 14 33t12 33q8 16 18 23t14 29q2 10 0 19t2 19q4 20 11 34t15 40q10 40 25 74t57 40 q11 2 23 2l45 -8q34 -12 60 -16q16 -2 34 0t34 2q12 -2 11 -5t9 -5q22 -2 40 3t38 7q20 -4 42 -4q11 0 23 1q35 3 59 -1q10 0 21 -5t21 -7q10 0 19 3t23 3q52 6 110 9t110 11q22 2 41 7t31 7t30 4q12 1 23 1h11q16 -1 29 -7q15 -7 15 -21q0 -21 -22 -49q-24 -30 -42 -50 q-24 -22 -47 -41t-43 -37q-16 -12 -28 -28t-24 -26t-27 -17t-27 -15q-22 -16 -38 -37t-38 -43q-38 -40 -72 -76t-66 -88q-14 -22 -26 -50t-28 -46q-10 -8 -23 -11t-23 -9q-34 -18 -65 -57t-55 -71q-26 -40 -60 -75t-58 -71q20 0 49 -8t51 -10q24 -4 38 -2t27 5l26 6t35 3 q16 2 35 0t29 2q24 8 47 30t39 42q42 42 75 79t85 71q12 12 25 31t28 34t32 23t39 -4q-8 -22 -8 -43t-18 -41q-16 -20 -35 -38t-33 -46q-6 -16 -8 -25t-10 -25q-6 -14 -11 -24t-11 -26q-22 -52 -48 -101t-54 -95q-22 -10 -51 -8t-49 2q-46 0 -92 -3t-96 -7q-14 -2 -19 -4 t-9 -4t-10 -3t-20 -1q-8 2 -17 4t-19 4q-76 6 -139 10t-133 6q-38 0 -67 -11t-69 -11q-20 -2 -40 5t-40 1q-12 8 -26 14t-20 18z" />
<glyph unicode="{" horiz-adv-x="644" d="M20 154q0 8 1 25t4 35t8 35t11 27q8 20 25 35t23 33q4 8 2 16t0 18q8 32 32 60t38 62q10 24 22 57t12 51q0 12 -5 16t-13 14q-12 16 -26 38t-36 30q-12 4 -26 2t-24 8q-10 44 11 62t67 40q34 16 72 37t50 69q4 12 2 26t-2 28q-2 16 0 31t4 31q4 42 7 87t14 91t34 91 t65 87q20 22 48 40t60 36q46 28 89 52t99 34q10 4 21 2t25 2q14 2 36 7t45 10t46 8t39 1q14 -22 7 -36t-25 -23t-43 -15t-45 -14q-36 -14 -66 -29t-52 -23q-94 -50 -130 -186q-6 -10 -23 -15t-23 -21q-4 -10 4 -22t10 -24q4 -26 -5 -62t-13 -76t-7 -76t-15 -64 q-22 -48 -57 -77t-79 -57q18 -22 37 -39t35 -45q16 -24 19 -75t-25 -103q-4 -8 -11 -14t-13 -16q-4 -10 -4 -20t-4 -20q-10 -28 -30 -59t-36 -63q-16 -28 -27 -56t-21 -54q-14 -34 -10 -71t8 -61t12 -48t24 -43t41 -28t65 -3q4 -10 5 -24t-9 -30q-16 -10 -25 -6t-21 2 q-66 -6 -124 7t-102 39t-69 64t-27 84q0 8 2 15t2 15q0 10 -5 19t-5 19z" />
<glyph unicode="|" horiz-adv-x="512" d="M-10 18q0 46 15 103t33 121q6 20 14 41t18 35q10 16 25 33t19 43q2 12 -2 22t-4 20q-2 24 5 48t11 52q2 10 0 23t0 25q8 28 22 62t22 68q10 46 16 82t18 78l8 36t10 28q6 14 24 28t22 32q2 10 -4 21t-8 25q-2 24 9 50t15 52q2 12 -2 22t-2 20q2 8 6 17t6 19q4 20 2 39 t2 37q4 20 11 38t11 36q4 20 14 45t16 35q14 22 41 34t55 12t52 -11t32 -37q-24 -80 -39 -164t-37 -166q-4 -20 -10 -43t-14 -39q-6 -16 -21 -28t-23 -28q-10 -28 -9 -62t-5 -68q-8 -32 -13 -68t-19 -68q-6 -12 -15 -24t-13 -22q-8 -22 -4 -44t0 -48q-10 -40 -23 -90 t-27 -98q-12 -56 -23 -110t-25 -104t-35 -94t-55 -80q-40 -10 -73 -12t-49 26z" />
<glyph unicode="}" horiz-adv-x="644" d="M-263 -74q7 14 25 23t42 16t44 13q38 12 67 28t51 22q46 28 80 74t50 116q4 10 23 15t25 19q4 10 -4 21t-10 23q-6 28 3 63t15 77q4 40 6 75t16 65q20 46 56 75t80 57q-22 24 -39 41t-33 43t-20 77t24 101q4 8 12 16t12 16q4 10 4 20t4 20q10 28 31 58t37 64q14 28 26 57 t22 51q14 34 10 71t-8 61q-6 24 -14 48t-24 43t-41 29t-63 4q-4 8 -5 23t9 31q16 10 24 7t20 -1q68 6 126 -7t101 -40t68 -65t25 -86q2 -6 -1 -14t-1 -14q0 -10 4 -19t6 -19q0 -10 -2 -26t-5 -34t-7 -35t-8 -27q-8 -18 -25 -33t-25 -35q-4 -10 -2 -18t0 -16q-10 -32 -32 -61 t-36 -63q-12 -22 -24 -55t-12 -53q0 -10 5 -14t13 -14q14 -16 27 -38t35 -30q12 -4 27 -3t25 -9q8 -44 -13 -61t-65 -39q-36 -18 -73 -38t-53 -66q-4 -14 -1 -29t3 -29q2 -16 0 -31t-4 -29q-4 -42 -7 -87t-14 -91t-33 -92t-64 -88q-20 -20 -49 -39t-59 -37q-46 -26 -90 -51 t-102 -35q-10 -2 -20 -1t-22 -1q-16 -4 -38 -8t-45 -8t-46 -7t-37 -1q-14 20 -7 34z" />
<glyph unicode="~" horiz-adv-x="1054" d="M-30 566q2 22 10 35t12 35q10 12 23 20t21 24q40 10 72 37t62 49q22 16 44 24t50 18q34 16 68 33t76 11q22 -4 53 -16t57 -28q14 -6 21 -16t21 -14q14 -6 31 -4t33 -4q18 -6 35 -14t36 -15t41 -9t50 4q26 6 52 21t51 33t48 36t43 30q12 8 25 -9t19 -29q-20 -48 -51 -96 t-73 -72q-12 -10 -25 -10t-25 -8q-32 -14 -61 -32t-60 -30t-65 -15t-76 15q-20 10 -41 24t-41 26q-16 10 -35 23t-40 24t-45 16t-52 -3q-16 -4 -29 -21t-29 -27q-24 -12 -54 -19t-58 -23q-40 -22 -76 -35t-88 -21q-8 10 -17 15t-13 17z" />
<glyph unicode="&#xa1;" horiz-adv-x="614" d="M-8 176q4 34 26 68t30 74q4 28 0 57t0 55q4 22 18 47t28 49q28 52 42 100t34 106q8 28 17 58t9 54q0 12 -4 23t-2 21q2 14 13 28t25 26q12 14 21 28t17 26q26 32 38 62t28 52q10 10 29 22t31 14q6 0 20 -6t29 -14t27 -17t14 -15q10 -28 -4 -60t-22 -64q-4 -14 -2 -30 t-2 -26q-4 -26 -15 -45t-9 -43q0 -26 9 -45t19 -43q-6 -62 -29 -117t-33 -111q0 -18 -2 -26q-2 -12 -9 -22t-11 -22q-2 -10 2 -21t2 -21q-2 -22 -12 -40t-18 -40q-6 -22 -11 -47t-13 -49t-17 -47t-13 -45q-4 -30 -6 -52t-18 -44q-22 -12 -39 -30t-37 -36q-38 -6 -75 2 t-69 16q-12 16 -14 36t-6 42q-8 28 -25 50t-11 62zM300 1350q0 12 5 32t13 40t17 38t15 26q6 10 27 23t31 15q28 6 63 6t67 -9t55 -26t27 -43q4 -10 4 -24t-2 -26q-2 -4 -7 -9t-7 -13q-4 -12 -1 -27t-1 -29q-4 -12 -22 -35t-28 -33q-16 -16 -37 -25t-37 -19q-34 -2 -65 8 t-57 28t-43 44t-17 58z" />
<glyph unicode="&#xa2;" horiz-adv-x="920" d="M72 558q2 22 9 43t11 43q0 10 -8 16t-12 16q-4 12 3 25t9 23q2 20 2 32t1 23t3 22t8 31q4 14 13 25t13 23q12 34 21 65t21 59q20 16 31 37t27 43q20 26 37 49t39 47q10 10 13 19t11 15q34 28 86 34t110 18q6 14 12 36t13 45t14 44t17 33q10 8 27 9t34 -5t32 -15t19 -21 q6 -14 2 -34t-11 -40t-15 -39t-8 -31q14 -10 32 -14t34 -14t36 -25t30 -27q10 -16 11 -32t7 -36q6 -12 12 -22t8 -22q2 -18 -3 -43t-16 -48t-25 -41t-28 -22q-34 -14 -58 -3t-28 39q0 8 3 26t5 28q4 10 11 19t3 25q-2 8 -13 22t-26 28t-32 25t-31 11q-24 0 -57 -21t-53 -41 q-40 -34 -59 -90t-31 -120q-4 -12 -10 -24t-10 -24q0 -4 2 1t3 12t2 12t1 3q-4 -22 -12 -38t-12 -32q-2 -8 0 -15t0 -13q-2 -14 -6 -21t-4 -17q2 -10 10 -22t10 -26t-2 -30t-4 -32q0 -18 -2 -24t-2 -11v-13t2 -28q4 -30 18 -47t30 -39q16 -24 38 -46t72 -14q46 8 76 30 t62 36q22 24 40 54t52 46q48 -6 59 -29t1 -51t-31 -55t-37 -39q-36 -66 -115 -105t-193 -39q-14 -14 -26 -50t-29 -69t-40 -52t-57 1q-14 18 -19 48t-5 64t2 65t2 49q-16 26 -45 41t-47 43q-10 18 -15 41t-15 45q-8 10 -20 19t-18 21q-14 26 -18 39t-4 43z" />
<glyph unicode="&#xa3;" horiz-adv-x="1012" d="M-9 294q-1 12 2 25t15 29q10 10 25 19t27 23q10 10 20 22t22 22q24 22 49 50t41 56q8 18 11 30t21 28q-22 6 -46 8t-52 -4q-16 -4 -29 -9t-25 -5q-22 0 -34 12l-24 24q12 28 22 56t32 48q56 4 100 7t90 5q8 48 4 98t-8 99t1 98t35 97q16 16 35 32t13 44q64 52 147 93 t187 39q22 0 35 -4t31 -8q24 -6 49 -13t48 -16t41 -21t28 -28q14 -28 16 -67t-5 -80t-24 -77t-43 -60q-10 -8 -27 -20t-40 -24t-47 -21t-44 -9q-32 0 -51 9t-45 17q-12 18 -29 32t-17 42q0 42 27 77t55 57q30 0 52 8q10 -10 16 -18t4 -22q-4 -16 -15 -28t-11 -22 q0 -8 10 -13t16 -7q8 0 20 6t24 15t21 19t13 20q12 38 3 78t-41 50q-30 8 -64 2t-64 -16q-40 -16 -81 -50t-57 -74q-10 -16 -15 -42t-7 -44q-2 -42 11 -79t25 -75q-4 -16 -5 -41t1 -41q24 -4 52 -8l56 -8q26 -4 51 -2t41 -14q2 -12 9 -26t12 -30t6 -34t-9 -36q-22 -6 -43 2 t-47 10q-42 4 -86 2t-84 -10q-22 -44 -40 -78t-37 -64t-43 -59t-54 -65q40 10 83 16t87 22q14 -10 40 -6t42 0q14 -4 27 -11t27 -15q14 -6 31 -9t31 -7q10 -4 16 -11t16 -11q42 -22 112 -6q18 4 28 4h20t22 1t32 5q10 -22 1 -37t-25 -31l-33 -33t-35 -29q-22 -20 -56 -26 t-80 -6q-18 0 -29 5t-23 9q-10 4 -18 6t-14 6q-16 8 -26 20t-26 16q-12 6 -33 5t-44 -4t-46 -8t-41 -7q-40 -10 -75 -27t-75 -31t-70 -15t-58 27q8 10 9 22t9 22q-24 0 -35 6t-18 15t-15 19t-24 14q-2 14 -7 27t-6 25z" />
<glyph unicode="&#xa4;" horiz-adv-x="990" d="M-10 352q2 12 14 24t26 23t27 20t21 19q6 8 10 16t10 14q14 18 31 26t27 24q-10 30 -26 62t-12 76q0 14 7 33t11 41q4 30 7 57t13 61q6 22 20 45t26 41q16 24 28 44t28 34q-4 8 1 14t9 12q-2 14 -11 21t-15 17q-10 20 -16 42t-16 46q-4 10 -14 21t-6 27q4 10 19 24t25 18 q22 10 42 12t36 -16q6 -10 7 -21t5 -21q4 -16 12 -29t16 -29t17 -29t19 -25q34 16 82 28t99 16t99 -1t82 -23q10 -4 19 -11t21 -11q22 6 36 20t30 24q16 40 49 60t61 46q24 4 37 -5t23 -21q4 -6 9 -10t5 -10q0 -12 -8 -23t-20 -23t-24 -23t-18 -19q-10 -10 -15 -22t-15 -26 q-12 -14 -37 -28t-29 -30q-4 -10 2 -23t10 -25q4 -24 4 -66t-2 -70q-4 -50 -19 -92t-35 -78t-44 -68t-48 -62q12 -28 33 -56t33 -56q8 -12 14 -33t2 -31t-16 -22t-27 -20t-31 -10t-28 8q-8 8 -10 19t-8 21q-4 8 -12 13t-12 13q-12 18 -19 36t-19 26q-42 -30 -99 -48 t-116 -21t-114 9t-91 42q-32 -28 -65 -54t-61 -56q-10 -10 -17 -20t-21 -14q-10 6 -22 14t-24 20t-19 25t-3 27zM340 661q2 -19 6 -35q8 -26 17 -42t27 -32q30 -22 64 -17t54 15q10 8 20 19t20 21q10 6 18 12t12 12q8 10 17 23t13 23q10 18 14 41t14 49q8 16 15 27t11 25 q4 18 5 32t9 30q4 18 -2 30t-2 30q-6 20 -28 26q-2 4 0 11t0 11q-20 0 -33 9t-25 13q-16 4 -36 0q-28 -12 -57 -30t-53 -40q-28 -50 -56 -106t-40 -114q-6 -24 -4 -43z" />
<glyph unicode="&#xa5;" horiz-adv-x="1008" d="M92 1250q2 8 5 12t5 12q30 8 62 7t65 -5t68 -9t69 -7q16 -2 31 0t31 4q26 0 53 -1t53 3q4 0 16 3t24 5t22 -1t10 -13q0 -18 -23 -26t-39 -18q-10 -4 -22 -20t-14 -20q-4 -12 -2 -30t6 -32q4 -12 12 -28t12 -32q4 -14 2 -24t2 -20q2 -10 11 -22t13 -22q10 -22 14 -40 t24 -28q20 14 34 36t32 38q8 0 16 -1t14 3q6 42 29 71t45 63q16 26 33 48t7 52q-4 4 -12 4t-16 2t-14 6t-4 16t18 15t36 1t40 -5t28 -3q32 -4 69 1t73 13t68 15t56 11h30q14 -10 2 -23t-18 -21q-56 -22 -112 -38t-96 -56q-12 -12 -21 -27t-19 -29q-20 -26 -42 -48t-42 -48 q-20 -34 -38 -54q-10 -14 -21 -27t-17 -27q-6 -12 -7 -22t-11 -20q-8 -6 -18 -9t-18 -9q-24 -20 -32 -48t-28 -50q22 -4 49 -2t54 3t53 0t46 -13q4 -18 -4 -32t-18 -24q-22 -12 -51 -13t-59 -1t-57 -4t-47 -20q-4 -22 -15 -40t-7 -40q20 -10 42 -12t46 0t49 5t51 3 q14 0 28 -3t30 -3q-2 -24 -12 -52t-34 -34q-10 -4 -27 1t-33 3q-14 0 -23 1t-17 11q-24 -14 -62 -16t-68 -6q-12 -26 -18 -56t2 -56q4 -14 22 -31t32 -21q18 -8 40 -7t36 -15q4 -24 -10 -37t-28 -23q-36 0 -75 -6t-81 -6q-24 0 -47 7t-47 3t-48 -15t-48 -19q-10 -2 -28 -8 t-37 -9t-33 0t-14 19q0 6 10 19t16 23q10 14 18 23t12 17q16 18 32 35t28 41q6 10 11 21t13 23q12 18 16 30t0 40q-28 -4 -45 0t-37 -12q-20 6 -44 3t-46 -6t-40 0t-24 23q4 12 7 22t7 24q20 20 49 25t61 5t64 -1t60 9q16 20 21 46t9 56q-28 6 -72 9t-78 -7q-14 -4 -22 -11 t-18 -7q-24 0 -37 25t-3 55q20 14 49 12t53 0q14 2 33 1t39 -1h37t25 2q18 6 20 23t-2 38t-12 43t-14 38q-4 12 -13 22t-13 24q-4 16 0 30t6 34q-16 8 -27 20t-23 24q-10 26 -20 50t-18 54q-4 10 -9 22t-9 22t-11 16t-3 20q-10 14 -30 20t-42 11t-41 12t-29 23z" />
<glyph unicode="&#xa6;" horiz-adv-x="516" d="M-10 24q4 26 14 60t18 70q8 38 17 72t19 50q10 14 24 24t18 22q4 10 -3 21t-7 21q2 14 11 29t13 29q14 54 23 112t29 104q32 24 70 13t64 -23q4 -52 -13 -106t-27 -108q-2 -12 1 -24t-1 -24q-6 -34 -25 -70t-29 -72q-16 -60 -25 -123t-31 -121q-16 -4 -13 5t-7 9 q-24 0 -35 -8t-27 -8q-6 0 -20 5t-27 12t-22 15t-9 14zM220 926q24 34 36 84t21 105t17 111t24 102q4 10 10 20t8 20q8 28 10 52t18 44q10 12 33 23t35 11q20 0 45 -18t47 -16q2 -60 -18 -139t-42 -145q-14 -50 -23 -97t-31 -79q-2 -18 -5 -42t-9 -48t-16 -44t-26 -32 q-10 6 -27 8t-35 3t-35 3t-27 8q-10 12 -8 31t-2 35z" />
<glyph unicode="&#xa7;" horiz-adv-x="954" d="M0 232q-6 18 16 48q22 32 53 59t67 51q12 8 31 20t31 12q22 0 36 -13t36 -17q4 -22 22 -42t28 -44q6 -16 13 -36t5 -32q-4 -14 -22 -28t-44 -8q-16 2 -23 15t-13 27t-15 27t-25 19q-14 -6 -19 -19t-11 -25t-13 -25t-7 -27q0 -18 12 -40t33 -40t48 -28t57 -6q16 2 33 15 t33 23q30 22 38 38t20 50q4 16 13 48t3 58q-6 16 -27 30t-33 30q-6 10 -10 21t-14 21q-22 28 -50 59t-54 65q-24 34 -50 68t-40 66q-12 24 -15 56t1 65t15 63t27 50q44 28 87 56t107 40q-10 22 -29 34t-31 34q-12 18 -17 38t-15 40q-10 22 -21 39t-15 39q-6 36 5 69t31 60 t46 50t48 41q34 26 67 49t83 35q44 10 96 14t110 -2q50 -6 105 -29t73 -59q8 -70 8 -139t-36 -115q-30 -40 -70 -67t-80 -55q-34 2 -66 7t-60 21q-4 2 -12 11t-17 20t-16 21t-9 16q-8 26 0 66t22 58q12 16 37 26t51 2q8 -16 6 -33t-7 -33t-8 -32t3 -30q24 -6 38 1t23 22 t13 37l8 44q8 42 13 67t-13 53q-52 14 -94 12t-74 -17t-56 -38t-42 -51q-16 -24 -25 -43t-9 -43q0 -22 7 -42t13 -34q16 -30 33 -58t39 -44q36 -26 81 -46t81 -50q10 -8 22 -20l22 -22t24 -21t20 -21q34 -42 38 -92t-12 -98t-47 -89t-67 -65q-32 -10 -60 -22t-50 -34 q24 -28 47 -50t43 -45t32 -49t14 -60q4 -38 -13 -77t-43 -73q-18 -26 -47 -50t-59 -46q-34 -22 -65 -43t-61 -31q-66 -26 -139 -27t-131 33q-20 12 -42 34t-38 44q-16 20 -35 43t-27 45q-4 10 -4 23t-4 25q-10 34 -16 52zM382 774q4 -28 19 -48t29 -44q16 -34 34 -63t42 -51 q50 30 63 81t0 104t-45 100t-72 71q-36 -16 -55 -58t-15 -92z" />
<glyph unicode="&#xa8;" horiz-adv-x="1662" d="M698 1320q-2 16 3 29t3 33q22 26 47 49t63 25q16 0 35 -7t36 -19t29 -28t14 -34q4 -34 -7 -65t-32 -53t-49 -32t-56 0q-10 4 -24 16t-27 27t-23 31t-12 28zM1147 1363q17 55 63 79q28 14 62 9t54 -19q18 -12 34 -43t14 -55q0 -10 -5 -23t-11 -25t-11 -24t-13 -20 q-10 -10 -41 -23t-59 -9q-22 4 -38 21t-38 25q-28 52 -11 107z" />
<glyph unicode="&#xa9;" horiz-adv-x="1208" d="M72 783q2 25 0 53q-2 44 2 84t20 82q8 20 22 40t26 44q10 22 18 45t20 45q10 16 23 32t27 34q34 52 77 81t99 59q18 10 35 22t37 20q14 6 35 12t43 14q36 10 75 17t85 11q10 2 21 1t23 -3q26 0 54 -1t50 -9q12 -4 22 -11t26 -11q26 -8 49 -13t45 -15q10 -4 18 -11t18 -15 q46 -32 74 -73t56 -93q16 -30 29 -58t17 -68q2 -28 -1 -59t-7 -65q-4 -64 -13 -122t-25 -120q-16 -54 -50 -91t-68 -77q-36 -46 -76 -82t-92 -64q-46 -28 -86 -47t-92 -35q-40 -12 -92 -15t-105 2t-100 17t-79 30q-20 12 -41 31t-39 37q-18 20 -39 36t-37 36q-12 16 -24 40 t-26 46t-20 46q-10 22 -19 45t-13 49q-4 22 -2 47zM232 746q2 -16 12 -37t20 -35q6 -8 12 -15t14 -17t14 -19t12 -19q28 -34 57 -59t71 -43q26 -10 49 -20t45 -14q32 -4 58 2t48 10q10 2 20 1t20 1q44 12 84 34t74 46q28 20 60 43t54 45q18 20 32 46t26 50q16 28 31 67 t25 80t13 81t-5 72q-4 14 -12 27t-12 27t-7 29t-9 31q-2 6 -6 12t-8 14t-5 16t-5 14q-16 28 -44 46t-62 34q-20 8 -37 19t-31 15q-22 6 -57 6t-55 -4q-26 -4 -50 -4t-46 -4l-14 -7t-14 -5q-28 -4 -44 -8t-27 -11t-25 -17q-12 -6 -24 -11t-22 -13t-20 -19t-22 -21 q-68 -56 -116 -130q0 -32 -15 -50t-25 -44q-4 -16 -5 -37t-5 -41q-10 -46 -18 -90t-4 -74zM400 848q0 48 14 104q6 28 27 64t37 60q6 10 11 19t9 17q18 24 42 35t40 39q14 6 34 16t43 17t45 11t40 -2q26 -6 49 -22t51 -22q26 -8 51 -7t45 -13q0 -10 -8 -15t-14 -9 q-16 -12 -38 -33t-46 -27q-20 -4 -40 0t-39 8t-38 6t-37 -4q-22 -8 -48 -37t-38 -57q-10 -24 -20 -47t-14 -49q-4 -16 -4 -28t-10 -24q2 -10 4 -12t4 -12q4 -8 1 -16t-1 -16q4 -18 15 -35t27 -23q4 -2 11 -1t13 -3q10 -4 19 -10t19 -6q30 0 62 23t58 45q16 14 43 26t39 12 q4 0 11 -7t7 -13q0 -16 -16 -32t-28 -32q-4 -6 -5 -14t-5 -12t-11 -8t-11 -8q-8 -10 -13 -17t-15 -15q-14 -10 -43 -30t-45 -28q-28 -14 -55 -16t-53 2t-51 12t-45 18q-22 30 -40 64t-29 75t-11 89z" />
<glyph unicode="&#xaa;" horiz-adv-x="912" d="M10 264q-2 6 5 19t16 27t19 25t16 15q34 16 74 11t86 -1q38 4 74 0t78 -2q26 2 51 6t51 8q62 8 120 4t110 -14q4 -22 3 -46t-5 -52q-12 -10 -23 -29t-31 -25q-28 -4 -62 3t-74 11q-42 4 -81 3t-79 -3q-22 0 -45 -7t-37 -7q-34 4 -65 19t-65 19q-18 2 -41 0t-42 -2t-34 3 t-19 15zM94 764q0 46 10 101t-4 95q38 72 69 151t85 137q20 12 36 29t36 31q18 0 33 7t29 15t30 15t38 9q70 6 134 -15t98 -67q16 16 27 38t25 44q60 -2 108 -16t94 -30q4 -18 -12 -28t-22 -26q-4 -8 -3 -17t-3 -17q-10 -20 -24 -37t-20 -39q-4 -10 -3 -20t-3 -22 q-6 -40 -21 -80t-15 -88q-2 -44 -12 -88t-16 -90q-4 -24 -6 -46t-6 -42q-4 -14 -7 -33t5 -35q4 -12 24 -21t22 -23q4 -16 -8 -24t-20 -18q-26 0 -52 -5t-51 -8t-48 -1t-41 16q-20 16 -21 47t-5 67q-22 -18 -50 -38t-62 -38t-71 -32t-77 -18q-50 -6 -88 9t-68 37 q-12 34 -30 59t-20 67q12 8 15 20t-1 25t-12 25t-16 18zM322 816q-4 -36 2 -69t21 -52t39 -21t58 22q28 20 58 44t46 52q8 8 8 18t6 18q6 12 16 21t14 23t2 34t2 40q8 36 28 84t14 94q-4 34 -35 64t-65 26q-14 -2 -38 -16t-40 -24q-28 -26 -59 -63t-41 -77q-4 -14 -4 -29 t-4 -31q-4 -10 -11 -18t-9 -24q-2 -10 2 -22t4 -26q-2 -16 -7 -33t-7 -35z" />
<glyph unicode="&#xab;" horiz-adv-x="790" d="M-72 436q6 34 17 53t27 31t35 23t37 29q16 16 30 33t30 33q28 26 42 34t23 13t18 15t31 40q6 10 15 15t17 11q20 12 36 32t33 40t36 38t45 28q6 -14 10 -26t2 -26t-5 -26t-7 -26q-14 -50 -20 -70t-14 -32t-21 -27t-43 -55q-26 -18 -41 -31t-31 -24t-32 -21t-32 -28 q-16 -16 -28 -32t-28 -30q-10 -8 -19 -9t-5 -7q16 -10 18 -14t8 -20q2 -10 19 -24t23 -20q2 -14 0 -27t-2 -27q16 0 24 -8q6 -4 16 -27t21 -50t19 -52t8 -33q-10 -34 -19 -71t-33 -67q-16 2 -27 13t-18 26t-12 32t-11 29q-4 10 -14 17t-18 13q-10 10 -15 25t-11 29 q-6 4 -16 21t-20 38t-19 40t-13 29q-10 6 -22 22t-23 36t-17 40t-4 32zM256 436q6 34 17 53t27 31t34 23t36 29q18 16 32 33t30 33q28 26 42 34t23 13t18 15t29 40q6 10 16 15t18 11q18 12 35 32l34 40t36 38t45 28q6 -14 10 -26t2 -26t-5 -26t-7 -26q-14 -50 -20 -70 t-14 -32t-22 -27t-44 -55q-24 -18 -39 -31t-31 -24t-32 -21t-32 -28q-16 -16 -28 -32t-28 -30q-10 -8 -19 -9t-5 -7q16 -10 18 -14t8 -20q2 -10 19 -24t23 -20q2 -14 0 -27t-2 -27q16 0 24 -8q6 -4 16 -27t21 -50t19 -52t8 -33q-10 -34 -20 -71t-32 -67q-16 2 -27 13t-18 26 t-12 32t-11 29q-4 10 -14 17t-18 13q-10 10 -15 25t-11 29q-6 4 -16 21t-21 38t-19 40t-12 29q-12 6 -24 22t-22 36t-16 40t-4 32z" />
<glyph unicode="&#xac;" horiz-adv-x="1206" d="M32 707q6 7 12 35q2 10 -4 17t-4 17q6 22 25 39t25 37q88 4 162 12t158 -6q2 -14 12 -18t25 -2t32 6t35 6q56 4 119 -3t133 -9q48 0 94 4t90 8t87 5t85 -7q4 -8 13 -11t13 -9q-32 -104 -51 -195t-41 -181q-22 -2 -38 -3t-31 -1t-32 -1t-39 -1q-28 16 -26 48t14 70t25 75 t5 65q-64 2 -144 1t-163 -3t-163 -5t-142 -5q-34 -2 -64 2t-74 0q-16 0 -37 -5t-42 -9t-39 -4t-26 10q-10 14 -4 21z" />
<glyph unicode="&#xad;" horiz-adv-x="946" d="M0 636q-4 24 3 43t19 36t24 31t22 30q20 8 41 9t42 -2t43 -7t46 -2q12 0 23 5t23 5q20 2 40 1t42 -1q20 0 43 2t33 -2q14 -2 25 -12t25 -10q10 0 19 7t23 11q16 4 39 5t45 1h42t32 2q44 4 86 0t88 -8q28 -36 14 -73t-46 -55q-8 -4 -16 -5t-18 -5q-20 -10 -33 -25t-29 -19 q-16 -2 -37 3t-43 9q-46 4 -99 2t-99 -2q-40 0 -72 5t-54 21q-48 -14 -102 -24t-108 -4q-34 4 -65 16t-61 12z" />
<glyph unicode="&#xae;" horiz-adv-x="1208" d="M72 783q2 25 0 53q-2 44 2 84t20 82q8 20 22 40t26 44q10 22 18 45t20 45q10 16 23 32t27 34q34 52 77 81t99 59q18 10 35 22t37 20q14 6 35 12t43 14q36 10 75 17t85 11q10 2 21 1t23 -3q26 0 54 -1t50 -9q12 -4 22 -11t26 -11q26 -8 49 -13t45 -15q10 -4 18 -11t18 -15 q46 -32 74 -73t56 -93q16 -30 29 -58t17 -68q2 -28 -1 -59t-7 -65q-4 -64 -13 -122t-25 -120q-16 -54 -50 -91t-68 -77q-36 -46 -76 -82t-92 -64q-46 -28 -86 -47t-92 -35q-40 -12 -92 -15t-105 2t-100 17t-79 30q-20 12 -41 31t-39 37q-18 20 -39 36t-37 36q-12 16 -24 40 t-26 46t-20 46q-10 22 -19 45t-13 49q-4 22 -2 47zM232 746q2 -16 12 -37t20 -35q6 -8 12 -15t14 -17t14 -19t12 -19q28 -34 57 -59t71 -43q26 -10 49 -20t45 -14q32 -4 58 2t48 10q10 2 20 1t20 1q44 12 84 34t74 46q28 20 60 43t54 45q18 20 32 46t26 50q16 28 31 67 t25 80t13 81t-5 72q-4 14 -12 27t-12 27t-7 29t-9 31q-2 6 -6 12t-8 14t-5 16t-5 14q-16 28 -44 46t-62 34q-20 8 -37 19t-31 15q-22 6 -57 6t-55 -4q-26 -4 -50 -4t-46 -4l-14 -7t-14 -5q-28 -4 -44 -8t-27 -11t-25 -17q-12 -6 -24 -11t-22 -13t-20 -19t-22 -21 q-68 -56 -116 -130q0 -32 -15 -50t-25 -44q-4 -16 -5 -37t-5 -41q-10 -46 -18 -90t-4 -74zM358 638q-6 12 0 21t16 16t21 14t17 17q10 22 15 55t17 67q4 16 12 30t12 28q8 26 10 49t10 45q4 10 7 21t7 23q4 16 10 36t8 32q0 8 -3 18t-7 20q-4 12 -9 28t1 40q12 2 22 9t22 5 q12 0 13 -6t11 -10q16 -4 45 2t63 6q16 0 31 -3t29 -3q28 0 51 4t47 -2q26 -16 35 -17t15 -5q16 -12 20 -26t22 -22q32 -70 -8 -140l-20 -40t-24 -36q-22 -22 -49 -33t-55 -25q36 -34 36 -78q0 -6 -2 -12l-4 -12q-4 -22 -5 -43t9 -31t30 -2t36 24q18 -6 15 -21t-15 -31 t-27 -30t-23 -16q-10 -4 -28 -5t-38 -1t-38 2t-24 8q-4 4 -6 10t-6 12q-4 10 -10 13t-8 9q-4 8 -3 23t1 29q0 26 5 53t5 55q-20 16 -35 10t-49 -8q-10 -24 -15 -52t-12 -54t-19 -47t-32 -33q-14 2 -36 1t-45 -2t-43 1t-28 10zM608 932q26 -2 44 -1t30 3q14 2 24 4 q26 4 48 20t34 40q8 16 8 32t8 32q-10 12 -24 19t-24 17q-34 -6 -62 -3t-46 -21q-4 -10 -10 -21t-10 -21q-10 -28 -13 -51t-7 -49z" />
<glyph unicode="&#xaf;" horiz-adv-x="1662" d="M780 1278q-4 22 3 41t11 33q6 2 11 5t11 7q22 4 44 -3t44 -9t39 3t32 11t32 9t41 -3q10 -2 17 -5t17 -3q10 4 18 9t26 7q30 2 70 0q22 -2 38 0t32 -2q8 -2 17 -11t9 -13q2 -10 -4 -22t-15 -23t-20 -20t-19 -11q-22 -8 -44 -10t-52 -6q-24 -4 -40 -12t-42 -6q-22 0 -35 2 t-24 3t-23 0t-30 -3q-8 0 -15 -5t-15 -7t-17 2t-19 6q-10 0 -19 -3t-15 -3q-10 4 -35 17t-29 25z" />
<glyph unicode="&#xb0;" horiz-adv-x="638" d="M216 1222q0 10 4 23t4 27q4 30 5 57t23 53q8 10 21 21t23 21q22 18 46 36t52 30q34 0 66 10t62 6q28 -4 45 -17t39 -17q14 -20 28 -41t24 -45t11 -54t-11 -68q-8 -22 -27 -44t-35 -38t-38 -36t-42 -30q-16 -8 -39 -11t-48 -4t-52 1t-47 4q-26 4 -43 14t-35 18q0 14 -5 24 t-12 19t-13 19t-6 22zM334 1262q12 -22 31 -48t53 -24q22 0 60 23t52 45q8 10 10 26t4 28q6 52 -16 79t-76 15q-46 -10 -80 -48t-38 -96z" />
<glyph unicode="&#xb2;" horiz-adv-x="728" d="M-11 612q3 34 19 70q6 14 19 27t25 26t22 26t10 27q38 62 86 111t101 91t109 79t112 77q0 22 15 46t34 48t34 46t13 42q-2 22 -21 29t-45 2t-53 -17t-45 -26q-18 -22 -29 -55t-35 -55q-14 -14 -44 -26t-54 -8q-16 4 -20 25t4 43q4 10 14 19t18 19q22 24 36 49t38 41 q16 12 36 23t38 23q56 36 126 64q16 -2 35 -1t38 1t37 -2t32 -10q18 -14 44 -29t32 -25q10 -18 9 -57t-5 -69q-2 -10 -7 -33t-11 -35q-4 -8 -13 -14t-13 -14q-8 -10 -10 -23t-8 -25q-10 -22 -23 -39t-23 -35q-44 -34 -78 -75t-80 -75q-28 -22 -59 -37t-59 -35q-8 -4 -15 -13 t-15 -13q-6 -4 -14 -6t-14 -8q-46 -32 -66 -88q18 2 30 -3t22 -3t20 7t22 9q48 4 75 -14t55 -34q16 -10 36 -20t36 -12q18 -4 34 1t31 12t31 13t36 4q-4 -40 -36 -59t-56 -27q-26 -8 -61 -13t-71 -7t-71 -1t-61 7q-50 10 -105 20t-107 -4q-16 -4 -30 -11t-28 -13t-29 -9 t-31 1q-22 16 -19 50z" />
<glyph unicode="&#xb3;" horiz-adv-x="1576" d="M-30 564q22 26 54 30t60 8q32 4 65 7t63 13q16 6 31 17t31 21q16 8 32 15t28 17q20 14 40 30t42 28q-10 20 6 52t26 62q10 32 6 56t6 52q-34 32 -98 26q-12 -2 -24 -8t-22 -2q-22 4 -23 17t9 28t25 29t27 20q24 10 51 16t53 18q26 10 45 23t37 19q10 18 24 28t24 26 q8 12 1 13t-1 11q12 24 19 53t6 54t-11 42t-34 17q-18 2 -53 -18t-57 -36q-6 -4 -16 -15t-14 -17q-8 -14 -8 -28t-6 -26q-12 -26 -31 -45t-42 -27t-45 -5t-40 21q-4 22 7 58t33 60q24 22 54 38t66 36q58 32 119 53t133 21q52 2 87 -23t57 -47q-2 -18 2 -33t8 -28t6 -29 t-4 -38q-12 -46 -38 -81t-57 -63t-66 -49l-65 -39q16 -16 40 -29t34 -35q4 -52 -14 -107t-49 -105t-71 -88t-82 -54q-8 -4 -12 0t-10 6q-20 -24 -44 -35t-62 -21q-18 -4 -37 -12t-35 -12q-26 -6 -57 -7t-61 -5q-52 -8 -98 -3t-70 29zM168 -4q4 16 0 35t0 35q4 14 19 29 t33 32t36 32t30 29q34 36 57 74t47 72q50 72 122 144q34 34 68 67t62 67q8 10 13 21t13 21q12 16 31 29t35 29q28 28 50 58t56 50q6 12 2 18t0 16q24 30 40 63t42 61q18 26 43 46t35 54q40 40 84 91t88 103q16 18 35 32t35 34q6 8 10 18t12 18q6 10 19 20t23 24q14 14 24 25 t20 15q18 8 37 6t36 -11t27 -23t8 -30q-4 -28 -29 -45t-41 -35q-12 -16 -24 -31t-26 -31q-40 -44 -79 -90t-79 -84q-28 -12 -50 -34q-2 -10 -1 -17t-3 -17q-12 -20 -26 -39t-34 -29q-86 -114 -175 -219t-181 -211q-52 -78 -109 -150t-121 -136q-8 -10 -15 -32t-17 -38 q-8 -10 -25 -20t-31 -32q-6 -8 -11 -18t-11 -20q-6 -8 -19 -25t-28 -34t-31 -30t-24 -15q-6 0 -28 5t-30 7q-10 4 -21 8t-23 8zM732 304q12 36 34 65t49 53t56 46t57 44q26 22 46 41t54 29q4 8 8 14t6 16q14 16 27 24t27 14t29 14t33 24q8 6 15 18t15 22q6 8 16 15t20 17 q38 40 110 46q36 6 84 4t88 -4q-12 -18 -25 -25t-23 -27l-15 -39t-17 -37q-10 -16 -27 -34t-23 -34q-4 -8 -3 -16t-1 -16q-16 -52 -46 -104t-40 -108q46 -6 95 2t89 -6q-6 -16 -19 -26t-27 -18t-27 -18t-19 -26q-34 0 -64 -4l-60 -8q-22 -22 -36 -53t-25 -64t-23 -65 t-26 -56q-8 -12 -22 -16t-30 -12q-22 -8 -39 -16t-39 6q-10 4 -14 15t-14 19q-20 14 -25 18t-15 22q28 38 55 76t41 96q-22 2 -52 1t-63 -4t-65 -6t-58 -3q-22 18 -37 41t-35 43zM946 360q12 -4 34 -5t47 -1t49 1t40 3q20 58 50 103t52 99l6 11t12 23l11 22t3 10 q-6 -8 -26 -30t-28 -26q-4 0 -14 -7t-21 -16t-21 -16t-14 -7q-10 -16 -25 -27t-27 -29q-8 -8 -11 -18t-11 -18q-10 -8 -16 -9t-16 -5q-16 -8 -39 -28t-35 -30z" />
<glyph unicode="&#xb4;" horiz-adv-x="1662" d="M818 1256q40 22 71 52t69 60q28 22 44 30t42 30q16 10 27 24t25 24l27 18t32 16t32 8t25 -4q18 -10 34 -46t10 -64q-2 -12 -14 -23t-28 -21t-35 -19t-33 -17q-32 -22 -55 -34t-53 -30q-24 -16 -45 -34t-45 -33t-50 -22t-58 3q-4 18 -17 39t-5 43z" />
<glyph unicode="&#xb5;" horiz-adv-x="804" d="M-154 -126q-4 20 3 32t13 26q4 14 8 36q12 28 25 52t19 64q10 64 26 129t38 123q2 20 4 43t6 45t5 45t9 39q4 10 13 15t13 15q14 28 17 66t7 78q4 22 5 49t7 39q6 8 24 17t41 16t44 11t31 4q12 0 20 -6t20 -10q10 -4 19 -3t15 -7q12 -12 12 -27t-4 -29t-12 -26t-10 -20 q-2 -4 -2 -10t-4 -12q-12 -30 -26 -66t-30 -70q-20 -60 -27 -114t-17 -124q-18 -22 -13 -48t25 -48t47 -34t53 -6q16 4 30 13t28 17q18 8 31 11t22 7t14 14t11 34q2 12 1 19t-1 12v12t6 19q8 20 25 34t21 36q2 8 -1 16t-3 12q4 38 16 62t22 62q4 20 5 38t5 34l8 32t12 30 q4 6 9 11t7 13q8 18 7 39t7 39q12 24 33 33t45 9q10 -2 9 -16t7 -20q16 12 33 19t39 3q10 -34 1 -64t-13 -60q-4 -28 -12 -52t-14 -46t-8 -40t-4 -33t-9 -28t-21 -27q4 -42 -5 -72t-19 -66q-6 -22 -10 -41t-12 -37q-12 -32 -23 -55t-25 -43t-30 -38t-38 -38q-12 -6 -11 -11 t-17 -13q-26 -10 -45 -30t-47 -22q-10 0 -23 4t-25 6q-12 0 -25 -3t-24 -4t-19 3t-14 18q-20 4 -35 -8t-31 -12q-18 2 -31 17t-33 19q-6 -26 -11 -50t-13 -56q-2 -10 -6 -25t-10 -30t-12 -27t-14 -14q-12 -6 -35 -9t-49 -4t-49 3t-31 14q-4 6 -11 21t-9 25z" />
<glyph unicode="&#xb6;" horiz-adv-x="1194" d="M160 956q-12 60 1 129t41 119q30 56 88 106t116 80q68 38 152 62t178 34q22 2 43 -2t45 -4q36 -2 89 2t93 0q22 -2 44 -9t48 -11q8 0 16 2t18 2q54 -4 119 -5t113 25l10 4q18 -6 36 -18q-6 -28 -22 -45t-36 -27t-41 -17t-39 -15q-22 -12 -54 -39t-50 -55q-6 -10 -10 -21 t-12 -23q-12 -20 -28 -35t-24 -35q-12 -32 -19 -74t-21 -80q-4 -16 -12 -31t-12 -31q-4 -18 -5 -37t-5 -35q-12 -34 -27 -62t-21 -60q-4 -28 -8 -57t-8 -59q-2 -16 1 -32t3 -32q-2 -36 -11 -76t-19 -80q-10 -54 -21 -101t-15 -105q0 -12 -2 -31t-5 -40t-7 -40t-8 -29 q-10 -26 -32 -33t-56 -21q-16 -10 -31 -21t-33 -11t-27 10t-19 18q-2 52 18 100t30 98q6 22 7 45t5 47q8 38 21 76t23 78q12 52 28 106t26 106q10 50 12 95t18 91q6 20 16 39t16 39q6 22 9 42t9 38q6 16 15 32t15 36q24 70 40 140t48 134q-10 10 -29 17t-39 -3 q-8 -4 -22 -14t-28 -22t-25 -25t-15 -25q-4 -18 -14 -37t-14 -39q-4 -18 -4 -38t-4 -42q-14 -50 -35 -100t-37 -102q-8 -28 -15 -54t-13 -52q-10 -32 -11 -64t-11 -62q-10 -34 -28 -70t-28 -78q-18 -64 -25 -131t-25 -129q-2 -10 -7 -17t-7 -17q-4 -10 -3 -19t-1 -19 q-4 -14 -10 -24t-10 -24q-4 -22 -6 -48t-6 -51t-12 -47t-24 -34q-18 -16 -43 -18t-48 6t-41 23t-22 33q16 34 19 72t13 68q4 4 5 12t11 4q6 56 11 97t17 87q8 32 23 66t7 60q-8 22 -31 27t-41 13q-20 6 -46 18t-36 22t-16 27t-18 29q-28 34 -62 66t-46 82q-6 18 -2 38t4 42 q2 28 -7 51t-13 49z" />
<glyph unicode="&#xb7;" horiz-adv-x="424" d="M50 682q0 34 20 64q10 14 28 22t34 20q12 10 28 24t34 16q10 0 23 -2t21 -4q32 -6 61 -44t21 -82q-12 -56 -57 -91t-103 -45q-30 -6 -56 12t-40 47t-14 63z" />
<glyph unicode="&#xb8;" horiz-adv-x="1662" d="M840 -284q2 10 10 12t14 8q18 -2 36 -10t37 -14t41 -6t46 12q16 10 32 24t20 26q8 40 -12 54t-51 18t-63 6t-48 18q-6 4 -12 19t-4 25q2 8 10 17t12 19q4 8 3 16t1 12q10 24 30 44t30 48q32 14 63 11t71 1q14 -12 13 -26t-8 -31t-15 -36t-8 -37q40 -4 72 -12t50 -34 q16 -24 24 -52t-8 -72q-4 -14 -18 -30t-26 -32q-4 -6 -6 -15t-6 -13q-16 -22 -44 -41t-48 -31q-52 -24 -106 -22t-106 22q-16 16 -24 43t-2 59z" />
<glyph unicode="&#xb9;" horiz-adv-x="618" d="M0 608q24 16 50 30t51 31t47 37t38 48q18 28 34 64l32 72q16 34 40 65t34 59q4 8 3 16t3 16q6 24 23 49t31 49q18 40 31 76t35 70q-22 -10 -52 -23t-58 -33q-16 -10 -33 -26t-45 -12q-4 0 -10 6t-6 10q0 14 10 25t23 19t27 15t22 13q12 10 20 24t20 26q20 18 41 29t43 23 q14 28 39 39t53 33q16 10 26 26t20 20q28 10 50 1t22 -35q20 -4 31 -12t25 -16q-16 -40 -25 -75t-27 -75q-12 -24 -32 -47t-36 -49q-22 -40 -42 -82t-42 -88q-6 -12 -15 -25t-13 -25q-4 -10 -6 -22t-6 -24q-22 -48 -52 -98t-46 -98q-10 -36 -10 -56q2 -8 15 -23t5 -29 q-16 -20 -43 -13t-49 9q-78 10 -148 -8t-138 -30q-4 6 -7 11t-3 13z" />
<glyph unicode="&#xba;" horiz-adv-x="942" d="M10 260q4 32 24 47t40 29q28 -4 51 5t51 13q16 2 32 0t28 2t20 14t20 16q14 4 38 0t46 -4q30 0 67 1t75 3t73 5t59 3q42 2 76 -14t32 -60q0 -22 -20 -50t-32 -32t-25 2t-27 6q-16 2 -34 -1t-36 -3q-36 -4 -74 -3t-78 -3q-64 -4 -131 -9t-133 1q-22 2 -45 7t-49 -7 q-16 6 -29 12t-19 20zM108 905q2 21 6 43t10 43t12 35q8 16 21 33t21 33q10 24 19 46t25 42q22 32 49 65t61 59t75 44t93 24q8 0 15 -2t15 -2q6 2 12 5t14 3q26 2 59 3t65 -2t61 -9t49 -16q26 -10 53 -44t47 -58q16 -18 31 -41t21 -47q14 -48 10 -93t-15 -91t-23 -93 t-14 -97q-10 -8 -15 -23t-15 -27q-6 -10 -18 -19t-22 -21q-14 -16 -27 -36t-31 -40q-24 -22 -55 -45t-57 -37t-59 -26t-63 -18q-14 -4 -36 -5t-46 0t-47 4t-41 9q-14 4 -31 15t-33 21q-46 22 -67 47t-53 65q-16 16 -31 33t-21 39q-8 24 -5 49t-1 51q0 12 -6 22t-10 24t-2 35 zM346 852q12 -14 11 -33t3 -37q10 -44 41 -83t67 -51q22 -8 45 -1t44 22t37 33t24 34q14 24 29 57t29 68t24 71t16 66q6 28 1 43t-9 41q-2 22 2 47t2 43q-4 26 -20 44t-39 27t-48 6t-49 -17q-8 -4 -14 -11t-14 -13q-22 -18 -48 -39t-40 -47q-14 -22 -27 -53t-21 -53 q-10 -22 -10 -48t-10 -54q-4 -16 -15 -30t-11 -32z" />
<glyph unicode="&#xbb;" horiz-adv-x="760" d="M-154 48q4 12 6 24t6 26q14 50 20 70t14 32t21 27t43 55q24 18 40 32t32 24t32 21t32 29q16 14 28 29t28 29q10 8 19 9t5 7q-16 10 -18 16t-8 22q-2 8 -18 21t-24 19q-2 16 1 29t1 27q-6 2 -13 3t-11 5q-6 4 -16 27t-21 50t-19 52t-8 33q10 36 19 71t33 67q16 0 27 -11 t18 -27t12 -33t11 -31q4 -10 14 -17t18 -13q10 -10 16 -24t10 -30q6 -4 16 -21t20 -37t19 -39t13 -27q10 -6 22 -22t23 -36t17 -41t4 -33q-4 -36 -16 -55t-28 -31t-34 -22t-36 -26t-32 -35t-30 -35q-28 -26 -42 -34t-23 -12t-19 -14t-30 -40q-6 -10 -15 -14t-17 -10 q-20 -14 -36 -34t-33 -40t-36 -38t-45 -28q-6 12 -10 25t-2 29zM174 48q4 12 6 24t6 26q14 50 20 70t13 32t21 27t44 55q24 18 39 32t31 24t32 21t34 29q16 14 28 29t28 29q10 8 19 9t5 7q-16 10 -18 16t-8 22q-2 8 -18 21t-24 19q-2 16 1 29t1 27q-6 2 -13 3t-11 5 q-6 4 -16 27t-21 50t-19 52t-8 33q10 36 19 71t33 67q16 0 27 -11t18 -27t11 -33t10 -31q4 -10 15 -17t19 -13q10 -10 16 -24t10 -30q6 -4 16 -21t20 -37t19 -39t13 -27q10 -6 22 -22t23 -36t17 -41t4 -33q-4 -36 -16 -55t-28 -31t-35 -22t-37 -26q-16 -16 -30 -35t-30 -35 q-28 -26 -42 -34t-23 -12t-19 -14t-30 -40q-6 -10 -15 -14t-17 -10q-20 -14 -36 -34t-33 -40t-36 -38t-45 -28q-6 12 -10 25t-2 29z" />
<glyph unicode="&#xbc;" horiz-adv-x="1498" d="M-30 570q56 28 111 61t87 93q4 10 6 20t6 20q28 58 57 113t63 107q-6 34 19 70t41 72q16 40 31 75t37 67q-28 -6 -60 -24t-58 -36q-12 -8 -25 -17t-26 -14t-26 -3t-21 18q10 30 39 43t51 31q10 10 18 24t18 24q18 20 41 31t45 23q10 28 38 41t56 35q16 12 26 28t24 20 q30 12 50 0t24 -38q22 -2 34 -10t24 -18q-16 -38 -25 -77t-31 -83q-10 -22 -30 -46t-36 -52q-14 -26 -28 -54l-28 -56q-20 -40 -33 -72t-31 -78q-20 -58 -55 -116t-49 -110q-6 -28 -4 -44q0 -8 13 -24t7 -30q-6 -10 -17 -13t-25 -1t-27 5t-21 3q-84 10 -156 -7t-142 -33 q-12 16 -12 32zM66 2q4 16 0 34t2 36q4 14 19 29t34 32t38 32t31 29q34 36 58 74t48 72q28 36 61 73t67 71t70 67t64 67q8 10 13 21t13 19q14 16 33 30t37 30q28 28 51 58t57 50q6 12 3 17t1 15q24 34 43 66t41 62q20 22 46 43t36 55q44 40 88 91t90 103q16 16 36 31t36 35 q8 8 12 18t10 18q8 8 21 19t25 25t23 25t21 15q18 8 38 6t36 -11t25 -23t7 -30q-4 -28 -30 -46t-40 -34q-16 -16 -28 -32t-26 -30q-40 -44 -80 -90t-82 -86q-16 -4 -28 -13t-24 -19q-2 -10 -2 -17t-4 -17q-12 -20 -27 -39t-33 -29q-90 -114 -182 -219t-188 -211 q-58 -78 -116 -150t-122 -136q-10 -10 -17 -32t-19 -38q-8 -10 -25 -20t-33 -32q-6 -8 -11 -18t-11 -20t-19 -26t-30 -33t-32 -30t-23 -15t-31 4t-27 8q-12 4 -23 8t-21 8zM672 304q12 36 34 65t49 53t56 46t57 44t47 41t53 29q4 8 8 14t8 16q12 16 25 24t27 14t29 14t33 24 q8 6 15 18t15 22q6 8 17 15t21 17q34 40 108 46q38 6 85 4t87 -4q-10 -18 -24 -25t-24 -27l-15 -39t-17 -37q-10 -16 -26 -34t-24 -34q-4 -8 -3 -16t-1 -16q-16 -52 -45 -104t-41 -108q46 -6 95 2t91 -6q-8 -16 -20 -26t-26 -18t-27 -18t-21 -26q-32 0 -63 -4t-61 -8 q-22 -22 -36 -53t-25 -64t-22 -65t-25 -56q-8 -12 -23 -16t-31 -12q-20 -8 -37 -16t-41 6q-10 4 -14 15t-14 19q-18 14 -23 18t-17 22q28 38 55 76t43 96q-22 2 -52 1t-63 -4t-65 -6t-58 -3q-22 18 -37 41t-37 43zM886 360q14 -4 36 -5t47 -1t48 1t39 3q22 58 51 103t53 99 l5 11t11 23l11 22t3 10q-6 -8 -26 -30t-28 -26q-4 0 -14 -7t-20 -16t-20 -16t-14 -7q-12 -16 -27 -27t-27 -29q-6 -8 -9 -18t-11 -18t-16 -9t-18 -5q-16 -8 -38 -28t-36 -30z" />
<glyph unicode="&#xbd;" horiz-adv-x="1446" d="M-30 608q24 16 49 30t50 31t47 37t40 48t33 64t33 72q16 34 39 65t33 59q4 8 4 16t4 16q6 24 23 49t29 49q18 40 32 76t36 70q-22 -10 -52 -23t-58 -33q-18 -10 -35 -26t-43 -12q-4 0 -10 6t-6 10q0 14 9 25t23 19t28 15t22 13q12 10 20 24t20 26q18 18 40 29t44 23 q12 28 38 39t54 33q14 10 24 26t22 20q28 10 49 1t21 -35q22 -4 33 -12t25 -16q-16 -40 -25 -75t-29 -75q-12 -24 -31 -47t-35 -49q-22 -40 -42 -82t-42 -88q-6 -12 -16 -25t-14 -25q-4 -10 -6 -22t-6 -24q-22 -48 -51 -98t-45 -98q-10 -36 -10 -56q2 -8 14 -23t4 -29 q-14 -20 -42 -13t-48 9q-78 10 -148 -8t-138 -30q-4 6 -7 11t-3 13zM-20 22q4 18 0 35t2 33q6 14 21 29t33 32t37 32t31 29q34 36 58 73t48 71q28 34 61 71t67 71t70 66t64 66q8 10 13 20t13 20q16 16 34 30t36 30q28 28 51 56t57 48q6 12 3 18t1 16q24 30 43 62t43 62 q18 24 44 44t36 52q46 40 90 90t90 102q16 18 35 32t35 34q8 8 12 17t12 19q8 8 20 18t26 24q12 14 22 24t20 14q18 8 37 7t35 -10t24 -23t6 -30q-4 -26 -29 -44t-41 -34q-14 -16 -26 -31t-26 -31q-40 -44 -81 -89t-83 -83q-28 -12 -50 -32q-4 -10 -3 -17t-3 -17 q-14 -20 -28 -38t-34 -30q-90 -110 -184 -213t-186 -211q-62 -70 -119 -144t-121 -138q-8 -10 -15 -31t-19 -37q-8 -10 -25 -20t-33 -30q-6 -10 -11 -20t-11 -20q-6 -8 -19 -24t-30 -33t-32 -29t-23 -14t-30 3t-26 7q-12 4 -22 8zM575 35q3 35 19 71q6 14 19 27t25 26t22 25 t10 26q38 62 86 111t101 91t109 80t112 78q0 22 15 45t34 47t34 46t13 42q-2 24 -22 30t-45 2t-52 -16t-45 -26q-18 -24 -30 -56t-34 -56q-14 -14 -44 -26t-54 -6q-16 4 -20 24t6 42q4 10 13 19t17 19q20 28 36 51t38 41q16 10 36 22t38 22q32 20 62 36t64 32q34 -4 75 -1 t67 -15q18 -12 44 -28t32 -26q10 -16 9 -56t-5 -70q-2 -10 -7 -32t-11 -32q-4 -10 -14 -17t-14 -15q-6 -10 -8 -23t-6 -23q-10 -24 -24 -41t-24 -35q-44 -34 -78 -75t-80 -75q-28 -20 -60 -36t-60 -36q-6 -4 -13 -13t-15 -13q-6 -4 -14 -6t-14 -6q-26 -16 -40 -38t-24 -50 q16 4 27 -1t25 -5q10 2 19 7t21 7q48 4 75 -14t55 -34q16 -10 35 -19t35 -13q18 -4 34 2t32 13t32 12t36 3q-4 -38 -35 -58t-57 -28t-60 -13t-70 -7t-72 -1t-62 7l-105 21t-107 -5q-28 -8 -58 -24t-60 -8q-22 16 -19 51z" />
<glyph unicode="&#xbe;" horiz-adv-x="776" d="M-10 584q22 24 54 28t60 8q34 4 66 7t64 17q14 4 29 14t31 20t32 17t28 15q20 16 40 31t42 27q-10 20 6 52t26 62q12 32 8 57t6 53q-20 16 -44 22t-56 4q-12 -2 -24 -8t-22 -4q-22 4 -23 18t9 29t25 29t27 20q24 10 51 15t55 17q24 10 43 24t39 20q10 16 23 27t23 27 q8 12 1 14t-1 12q12 24 20 53t7 53t-12 41t-35 19q-8 0 -22 -6t-30 -14t-31 -19t-25 -19q-6 -4 -17 -15l-15 -15q-8 -16 -8 -30t-6 -26q-12 -26 -31 -44t-41 -27t-45 -6t-41 21q-4 26 8 60t34 58t53 40t65 36q58 30 119 52t133 22q52 0 87 -24t57 -46q0 -20 3 -34t7 -28 t6 -30t-4 -38q-12 -46 -37 -81t-57 -63t-67 -49l-65 -39q18 -16 41 -28t33 -34q4 -52 -14 -107t-48 -105t-70 -88t-82 -54q-10 -6 -14 0t-10 6q-20 -24 -43 -35t-63 -21q-18 -6 -37 -12t-35 -10q-26 -6 -57 -8t-61 -6q-52 -10 -98 -5t-70 31z" />
<glyph unicode="&#xbf;" horiz-adv-x="1016" d="M-52 420q-4 46 9 83t33 69t43 62t41 60q34 18 57 34t55 36q30 20 59 39t79 23q26 4 57 1t51 7q12 8 17 25t17 27q10 10 16 9t12 9q10 32 16 71t16 73q26 92 130 106q8 2 24 4t33 3t32 1t21 -2q6 -4 14 -18t16 -31t15 -34t7 -29q0 -20 -8 -42t-18 -46t-20 -52t-12 -60 q-2 -18 0 -39t-2 -37t-14 -39t-20 -33q-26 -40 -80 -60t-124 -6q-16 4 -29 11t-31 7q-64 0 -101 -31t-63 -83q-18 -40 -32 -100t-14 -120q0 -24 5 -51t11 -47q8 -30 30 -43t49 -22t53 -18t42 -31q18 4 31 16t25 22q62 6 113 28t79 74q6 12 15 32t11 36q4 38 -21 63t-61 23 q-16 -2 -29 -13t-27 -19l-30 -15t-30 -5q-16 4 -21 29t-1 45q6 28 35 51t67 35t78 13t70 -17q24 -16 53 -56t41 -72q12 -28 12 -56t-5 -56t-12 -56t-11 -58q-28 -28 -57 -50t-57 -50q-16 -10 -41 -14t-53 -12q-20 -4 -37 -12t-33 -12q-8 0 -16 1t-18 -1q-14 -2 -29 -7 t-31 -7q-32 -4 -71 -6t-67 2q-8 2 -17 5t-19 7q-14 2 -27 0t-25 2q-58 10 -85 30t-43 64q-28 2 -52 7t-40 19q-16 32 -25 69t-14 76t-9 80t-8 79zM576 1368q-4 22 3 45t15 43q6 20 15 39t23 31q22 16 57 18t63 -2q10 -2 17 -7t19 -9q22 -4 44 -3t36 -9t24 -38t12 -44 q2 -30 -11 -62t-34 -59t-48 -46t-53 -25q-20 -6 -47 -3t-43 17q-4 4 -10 15t-12 19q-16 18 -40 39t-30 41z" />
<glyph unicode="&#xc0;" d="M-216 488q14 6 31 6t36 -2t38 -3t35 5q18 -12 33 -12t28 6t25 13t22 9t18 0t18 -2q16 0 32 5t38 9q30 4 62 5t54 11q14 6 32 21t26 27q4 10 3 19t3 19q10 34 35 60t41 58l9 24t5 14t5 14t13 24q18 28 37 54t45 50q0 12 4 21t8 19q54 22 88 58t68 76q-2 20 8 29t10 29 q0 10 -7 23t-7 27q0 16 13 33t23 31q16 16 25 32t19 30q16 18 33 32t33 34q8 12 13 27t17 23q18 12 50 14l64 4q38 2 83 9t90 15t88 15t79 9q36 4 69 2t53 6q28 -24 57 -47t55 -49q8 -40 14 -74t2 -68q-4 -16 -13 -30t-7 -32q0 -30 18 -59t26 -63q2 -16 -5 -31t-9 -31t2 -35 t8 -39q0 -24 -2 -48t2 -50t10 -53t4 -55q-4 -28 -11 -52t-7 -50q-2 -36 4 -69t-4 -67q16 -20 17 -40t-3 -40t-8 -41t4 -43q4 -14 16 -25t16 -27q6 -20 7 -49t1 -55q2 -64 -11 -114t-15 -108q0 -26 -1 -58t-11 -50q-10 -12 -32 -25t-38 -15q-30 -2 -69 16t-59 38 q-18 20 -33 44t-30 50t-31 49t-36 39q-10 6 -22 12t-18 14q-12 20 -13 45t2 52t6 53t-3 46t-16 31t-25 16t-34 6t-45 3q-94 6 -194 12t-204 4q-22 0 -32 -2t-18 -3t-16 -3t-26 -2q-40 -2 -72 -5t-56 -21q-14 -10 -30 -40t-24 -46q-10 -24 -17 -50t-14 -51t-17 -47t-28 -38 q-40 0 -59 -17t-27 -43q-24 6 -55 2l-62 -8t-60 -5t-49 11q-10 6 -16 17t-14 21q-8 12 -17 22t-11 20q-4 12 6 35t18 33q8 6 19 10t21 12q28 22 41 55t23 53q14 10 33 21t15 29q-18 10 -42 9t-48 1q-40 0 -80 6t-72 10q-52 10 -91 48t-33 96zM624 570q36 -10 62 -10t51 3 t52 8t63 7q68 2 131 3t119 5q8 4 15 6t23 -2q0 10 10 11t16 5q8 14 8 23t-3 16t-8 16t-5 25t5 33t7 35q2 14 -3 30t-3 32q2 14 12 25t10 25q0 8 -3 18t-5 20q-2 14 -1 28t-3 24q-4 16 -20 30t-20 30q-6 20 -1 45t5 49q-2 34 -6 62t-20 56q-22 12 -33 9t-18 -14t-12 -25 t-17 -24q-54 -48 -84 -97t-74 -107q-18 -22 -37 -44t-34 -48t-23 -54t-4 -62q-10 -16 -17 -23t-15 -13t-17 -14t-21 -22q-22 -28 -48 -57t-34 -63zM898 1916q4 14 16 31t27 33t31 28t28 18q28 12 55 -4t41 -34q10 -10 13 -24t13 -24q16 -22 27 -30t27 -30q22 -30 37 -60 t43 -52q-4 -22 -27 -43t-39 -39q-38 -10 -61 -3t-38 22t-27 33t-26 34q-20 18 -36 30t-38 34q-10 8 -23 17t-24 19t-17 21t-2 23z" />
<glyph unicode="&#xc1;" d="M-216 488q14 6 31 6t36 -2t38 -3t35 5q18 -12 33 -12t28 6t25 13t22 9t18 0t18 -2q16 0 32 5t38 9q30 4 62 5t54 11q14 6 32 21t26 27q4 10 3 19t3 19q10 34 35 60t41 58l9 24t5 14t5 14t13 24q18 28 37 54t45 50q0 12 4 21t8 19q54 22 88 58t68 76q-2 20 8 29t10 29 q0 10 -7 23t-7 27q0 16 13 33t23 31q16 16 25 32t19 30q16 18 33 32t33 34q8 12 13 27t17 23q18 12 50 14l64 4q38 2 83 9t90 15t88 15t79 9q36 4 69 2t53 6q28 -24 57 -47t55 -49q8 -40 14 -74t2 -68q-4 -16 -13 -30t-7 -32q0 -30 18 -59t26 -63q2 -16 -5 -31t-9 -31t2 -35 t8 -39q0 -24 -2 -48t2 -50t10 -53t4 -55q-4 -28 -11 -52t-7 -50q-2 -36 4 -69t-4 -67q16 -20 17 -40t-3 -40t-8 -41t4 -43q4 -14 16 -25t16 -27q6 -20 7 -49t1 -55q2 -64 -11 -114t-15 -108q0 -26 -1 -58t-11 -50q-10 -12 -32 -25t-38 -15q-30 -2 -69 16t-59 38 q-18 20 -33 44t-30 50t-31 49t-36 39q-10 6 -22 12t-18 14q-12 20 -13 45t2 52t6 53t-3 46t-16 31t-25 16t-34 6t-45 3q-94 6 -194 12t-204 4q-22 0 -32 -2t-18 -3t-16 -3t-26 -2q-40 -2 -72 -5t-56 -21q-14 -10 -30 -40t-24 -46q-10 -24 -17 -50t-14 -51t-17 -47t-28 -38 q-40 0 -59 -17t-27 -43q-24 6 -55 2l-62 -8t-60 -5t-49 11q-10 6 -16 17t-14 21q-8 12 -17 22t-11 20q-4 12 6 35t18 33q8 6 19 10t21 12q28 22 41 55t23 53q14 10 33 21t15 29q-18 10 -42 9t-48 1q-40 0 -80 6t-72 10q-52 10 -91 48t-33 96zM624 570q36 -10 62 -10t51 3 t52 8t63 7q68 2 131 3t119 5q8 4 15 6t23 -2q0 10 10 11t16 5q8 14 8 23t-3 16t-8 16t-5 25t5 33t7 35q2 14 -3 30t-3 32q2 14 12 25t10 25q0 8 -3 18t-5 20q-2 14 -1 28t-3 24q-4 16 -20 30t-20 30q-6 20 -1 45t5 49q-2 34 -6 62t-20 56q-22 12 -33 9t-18 -14t-12 -25 t-17 -24q-54 -48 -84 -97t-74 -107q-18 -22 -37 -44t-34 -48t-23 -54t-4 -62q-10 -16 -17 -23t-15 -13t-17 -14t-21 -22q-22 -28 -48 -57t-34 -63zM1104 1728q40 22 71 52t69 60q28 22 44 30t42 30q16 10 27 24t25 24l27 18t32 16t32 8t25 -4q18 -10 34 -46t10 -64 q-2 -12 -14 -23t-28 -21t-35 -19t-33 -17q-32 -22 -55 -34t-53 -30q-24 -16 -45 -34t-45 -33t-50 -22t-58 3q-4 18 -17 39t-5 43z" />
<glyph unicode="&#xc2;" d="M-216 488q14 6 31 6t36 -2t38 -3t35 5q18 -12 33 -12t28 6t25 13t22 9t18 0t18 -2q16 0 32 5t38 9q30 4 62 5t54 11q14 6 32 21t26 27q4 10 3 19t3 19q10 34 35 60t41 58l9 24t5 14t5 14t13 24q18 28 37 54t45 50q0 12 4 21t8 19q54 22 88 58t68 76q-2 20 8 29t10 29 q0 10 -7 23t-7 27q0 16 13 33t23 31q16 16 25 32t19 30q16 18 33 32t33 34q8 12 13 27t17 23q18 12 50 14l64 4q38 2 83 9t90 15t88 15t79 9q36 4 69 2t53 6q28 -24 57 -47t55 -49q8 -40 14 -74t2 -68q-4 -16 -13 -30t-7 -32q0 -30 18 -59t26 -63q2 -16 -5 -31t-9 -31t2 -35 t8 -39q0 -24 -2 -48t2 -50t10 -53t4 -55q-4 -28 -11 -52t-7 -50q-2 -36 4 -69t-4 -67q16 -20 17 -40t-3 -40t-8 -41t4 -43q4 -14 16 -25t16 -27q6 -20 7 -49t1 -55q2 -64 -11 -114t-15 -108q0 -26 -1 -58t-11 -50q-10 -12 -32 -25t-38 -15q-30 -2 -69 16t-59 38 q-18 20 -33 44t-30 50t-31 49t-36 39q-10 6 -22 12t-18 14q-12 20 -13 45t2 52t6 53t-3 46t-16 31t-25 16t-34 6t-45 3q-94 6 -194 12t-204 4q-22 0 -32 -2t-18 -3t-16 -3t-26 -2q-40 -2 -72 -5t-56 -21q-14 -10 -30 -40t-24 -46q-10 -24 -17 -50t-14 -51t-17 -47t-28 -38 q-40 0 -59 -17t-27 -43q-24 6 -55 2l-62 -8t-60 -5t-49 11q-10 6 -16 17t-14 21q-8 12 -17 22t-11 20q-4 12 6 35t18 33q8 6 19 10t21 12q28 22 41 55t23 53q14 10 33 21t15 29q-18 10 -42 9t-48 1q-40 0 -80 6t-72 10q-52 10 -91 48t-33 96zM624 570q36 -10 62 -10t51 3 t52 8t63 7q68 2 131 3t119 5q8 4 15 6t23 -2q0 10 10 11t16 5q8 14 8 23t-3 16t-8 16t-5 25t5 33t7 35q2 14 -3 30t-3 32q2 14 12 25t10 25q0 8 -3 18t-5 20q-2 14 -1 28t-3 24q-4 16 -20 30t-20 30q-6 20 -1 45t5 49q-2 34 -6 62t-20 56q-22 12 -33 9t-18 -14t-12 -25 t-17 -24q-54 -48 -84 -97t-74 -107q-18 -22 -37 -44t-34 -48t-23 -54t-4 -62q-10 -16 -17 -23t-15 -13t-17 -14t-21 -22q-22 -28 -48 -57t-34 -63zM900 1670q-2 6 8 12t16 10q22 16 41 33t39 33q10 18 17 24t17 14l20 10t20 12q4 4 7 10t9 12q26 24 68 48t74 48q14 10 33 24 t39 18q16 2 28 -1t24 -5l20 -44t26 -42q10 -16 23 -31t19 -35q2 -6 0 -13t0 -15q4 -4 11 -9t11 -9q4 -16 7 -22t7 -12q6 -16 11 -34t7 -36q-18 -14 -46 -11t-36 13q-4 4 -7 10t-7 10l-20 20q-4 6 -6 12t-6 10t-14 7t-14 7q-12 18 -16 21t-8 7q-4 6 -5 13t-5 13 q-10 16 -12 17t-12 17q-14 -4 -22 -7t-14 -8l-12 -10t-18 -11q-4 -4 -11 -6t-11 -6q-14 -8 -24 -18t-20 -22q-14 -10 -27 -17t-25 -17q-24 -18 -42 -22t-40 -20q-8 -8 -36 -13t-48 -5q-12 0 -25 5t-13 11z" />
<glyph unicode="&#xc3;" d="M-216 488q14 6 31 6t36 -2t38 -3t35 5q18 -12 33 -12t28 6t25 13t22 9t18 0t18 -2q16 0 32 5t38 9q30 4 62 5t54 11q14 6 32 21t26 27q4 10 3 19t3 19q10 34 35 60t41 58l9 24t5 14t5 14t13 24q18 28 37 54t45 50q0 12 4 21t8 19q54 22 88 58t68 76q-2 20 8 29t10 29 q0 10 -7 23t-7 27q0 16 13 33t23 31q16 16 25 32t19 30q16 18 33 32t33 34q8 12 13 27t17 23q18 12 50 14l64 4q38 2 83 9t90 15t88 15t79 9q36 4 69 2t53 6q28 -24 57 -47t55 -49q8 -40 14 -74t2 -68q-4 -16 -13 -30t-7 -32q0 -30 18 -59t26 -63q2 -16 -5 -31t-9 -31t2 -35 t8 -39q0 -24 -2 -48t2 -50t10 -53t4 -55q-4 -28 -11 -52t-7 -50q-2 -36 4 -69t-4 -67q16 -20 17 -40t-3 -40t-8 -41t4 -43q4 -14 16 -25t16 -27q6 -20 7 -49t1 -55q2 -64 -11 -114t-15 -108q0 -26 -1 -58t-11 -50q-10 -12 -32 -25t-38 -15q-30 -2 -69 16t-59 38 q-18 20 -33 44t-30 50t-31 49t-36 39q-10 6 -22 12t-18 14q-12 20 -13 45t2 52t6 53t-3 46t-16 31t-25 16t-34 6t-45 3q-94 6 -194 12t-204 4q-22 0 -32 -2t-18 -3t-16 -3t-26 -2q-40 -2 -72 -5t-56 -21q-14 -10 -30 -40t-24 -46q-10 -24 -17 -50t-14 -51t-17 -47t-28 -38 q-40 0 -59 -17t-27 -43q-24 6 -55 2l-62 -8t-60 -5t-49 11q-10 6 -16 17t-14 21q-8 12 -17 22t-11 20q-4 12 6 35t18 33q8 6 19 10t21 12q28 22 41 55t23 53q14 10 33 21t15 29q-18 10 -42 9t-48 1q-40 0 -80 6t-72 10q-52 10 -91 48t-33 96zM624 570q36 -10 62 -10t51 3 t52 8t63 7q68 2 131 3t119 5q8 4 15 6t23 -2q0 10 10 11t16 5q8 14 8 23t-3 16t-8 16t-5 25t5 33t7 35q2 14 -3 30t-3 32q2 14 12 25t10 25q0 8 -3 18t-5 20q-2 14 -1 28t-3 24q-4 16 -20 30t-20 30q-6 20 -1 45t5 49q-2 34 -6 62t-20 56q-22 12 -33 9t-18 -14t-12 -25 t-17 -24q-54 -48 -84 -97t-74 -107q-18 -22 -37 -44t-34 -48t-23 -54t-4 -62q-10 -16 -17 -23t-15 -13t-17 -14t-21 -22q-22 -28 -48 -57t-34 -63zM912 1694q0 16 6 24t8 24q8 8 16 13t12 15q24 6 43 25t41 35q14 10 27 15t29 13q22 10 43 22t47 8q16 -4 35 -12t35 -18 q8 -4 12 -10t14 -10t20 -3t20 -3q22 -6 44 -20t56 -4q32 8 63 37t59 45q8 4 15 -7t11 -19q-12 -32 -32 -65t-46 -49q-6 -4 -14 -5t-16 -5q-20 -10 -38 -22t-37 -21t-40 -11t-47 10q-12 6 -26 16t-26 20q-20 12 -46 30t-60 8q-10 -4 -18 -15t-18 -15q-16 -10 -34 -15t-36 -15 q-26 -16 -48 -24t-54 -14q-6 6 -11 10t-9 12z" />
<glyph unicode="&#xc4;" d="M-216 488q14 6 31 6t36 -2t38 -3t35 5q18 -12 33 -12t28 6t25 13t22 9t18 0t18 -2q16 0 32 5t38 9q30 4 62 5t54 11q14 6 32 21t26 27q4 10 3 19t3 19q10 34 35 60t41 58l9 24t5 14t5 14t13 24q18 28 37 54t45 50q0 12 4 21t8 19q54 22 88 58t68 76q-2 20 8 29t10 29 q0 10 -7 23t-7 27q0 16 13 33t23 31q16 16 25 32t19 30q16 18 33 32t33 34q8 12 13 27t17 23q18 12 50 14l64 4q38 2 83 9t90 15t88 15t79 9q36 4 69 2t53 6q28 -24 57 -47t55 -49q8 -40 14 -74t2 -68q-4 -16 -13 -30t-7 -32q0 -30 18 -59t26 -63q2 -16 -5 -31t-9 -31t2 -35 t8 -39q0 -24 -2 -48t2 -50t10 -53t4 -55q-4 -28 -11 -52t-7 -50q-2 -36 4 -69t-4 -67q16 -20 17 -40t-3 -40t-8 -41t4 -43q4 -14 16 -25t16 -27q6 -20 7 -49t1 -55q2 -64 -11 -114t-15 -108q0 -26 -1 -58t-11 -50q-10 -12 -32 -25t-38 -15q-30 -2 -69 16t-59 38 q-18 20 -33 44t-30 50t-31 49t-36 39q-10 6 -22 12t-18 14q-12 20 -13 45t2 52t6 53t-3 46t-16 31t-25 16t-34 6t-45 3q-94 6 -194 12t-204 4q-22 0 -32 -2t-18 -3t-16 -3t-26 -2q-40 -2 -72 -5t-56 -21q-14 -10 -30 -40t-24 -46q-10 -24 -17 -50t-14 -51t-17 -47t-28 -38 q-40 0 -59 -17t-27 -43q-24 6 -55 2l-62 -8t-60 -5t-49 11q-10 6 -16 17t-14 21q-8 12 -17 22t-11 20q-4 12 6 35t18 33q8 6 19 10t21 12q28 22 41 55t23 53q14 10 33 21t15 29q-18 10 -42 9t-48 1q-40 0 -80 6t-72 10q-52 10 -91 48t-33 96zM624 570q36 -10 62 -10t51 3 t52 8t63 7q68 2 131 3t119 5q8 4 15 6t23 -2q0 10 10 11t16 5q8 14 8 23t-3 16t-8 16t-5 25t5 33t7 35q2 14 -3 30t-3 32q2 14 12 25t10 25q0 8 -3 18t-5 20q-2 14 -1 28t-3 24q-4 16 -20 30t-20 30q-6 20 -1 45t5 49q-2 34 -6 62t-20 56q-22 12 -33 9t-18 -14t-12 -25 t-17 -24q-54 -48 -84 -97t-74 -107q-18 -22 -37 -44t-34 -48t-23 -54t-4 -62q-10 -16 -17 -23t-15 -13t-17 -14t-21 -22q-22 -28 -48 -57t-34 -63zM882 1770q-2 16 3 29t3 33q22 26 47 49t63 25q16 0 35 -7t36 -19t29 -28t14 -34q4 -34 -7 -65t-32 -53t-49 -32t-56 0 q-10 4 -24 16t-27 27t-23 31t-12 28zM1331 1813q17 55 63 79q28 14 62 9t54 -19q18 -12 34 -43t14 -55q0 -10 -5 -23t-11 -25t-11 -24t-13 -20q-10 -10 -41 -23t-59 -9q-22 4 -38 21t-38 25q-28 52 -11 107z" />
<glyph unicode="&#xc5;" d="M-216 488q14 6 31 6t36 -2t38 -3t35 5q18 -12 33 -12t28 6t25 13t22 9t18 0t18 -2q16 0 32 5t38 9q30 4 62 6t54 12q14 4 32 19t26 27q4 10 3 19t3 19q10 34 35 60t41 58l9 24t5 14t5 14t13 24q18 28 37 54t45 50q0 12 4 21t8 19q54 22 88 58t68 76q-2 20 8 29t10 29 q0 10 -7 23t-7 27q0 16 13 33t23 31q16 16 25 32t19 30q16 18 33 32t33 34q8 12 13 27t17 25q18 10 50 12t66 4q22 2 46 4t52 6q-28 4 -45 15t-35 19q0 14 -5 23t-12 18t-14 19t-7 24q0 10 4 22t4 26q4 32 5 58t25 54q8 10 21 20t23 20q22 18 46 37t50 31q34 0 66 9t64 5 q26 -4 43 -16t41 -16q12 -20 27 -41t24 -46t11 -55t-12 -68q-8 -22 -26 -44t-34 -38q-10 -10 -22 -20l-24 -20q6 0 11 1t11 1q36 4 69 2t53 6q28 -24 57 -47t55 -49q8 -40 14 -74t2 -68q-4 -16 -13 -30t-7 -32q0 -30 18 -59t26 -63q2 -16 -5 -31t-9 -31t2 -35t8 -39 q0 -24 -2 -48t2 -50t10 -53t4 -55q-4 -28 -11 -52t-7 -50q-2 -36 4 -69t-4 -67q16 -20 17 -39t-3 -40l-8 -42t4 -43q4 -14 16 -25t16 -27q6 -20 7 -49t1 -55q2 -64 -11 -114t-15 -108q0 -26 -1 -58t-11 -50q-10 -12 -32 -25t-38 -15q-30 -2 -69 16t-59 38q-18 20 -33 44 t-30 50t-31 49t-36 39q-10 6 -22 12t-18 14q-12 20 -13 45t2 52t6 53t-3 46t-16 31t-25 16t-34 6t-45 3q-94 6 -194 12t-204 4q-22 0 -32 -2t-18 -3t-16 -3t-26 -2q-40 -2 -72 -5t-56 -21q-14 -10 -30 -40t-24 -46q-10 -24 -17 -50t-14 -51t-17 -47t-28 -38q-40 0 -59 -17 t-27 -43q-24 6 -55 2l-62 -8t-60 -5t-49 11q-10 6 -16 17t-14 21q-8 12 -17 22t-11 20q-4 12 6 35t18 33q8 6 19 10t21 12q28 22 41 55t23 53q14 10 33 21t15 29q-18 10 -41 9t-49 1q-40 0 -81 6t-71 10q-52 10 -91 48t-33 96zM624 570q36 -10 62 -10t51 3t52 8t63 7 q68 2 131 3t119 5q8 4 15 6t23 -2q-2 10 9 11t17 5q8 14 8 23t-3 16t-8 16t-5 25t5 33t7 35q2 14 -3 30t-3 32q2 14 12 25t10 25q0 8 -3 18t-3 20q-4 14 -2 28t-2 24q-6 16 -22 30t-20 30q-6 20 -1 45t5 49q-2 34 -6 62t-20 56q-22 12 -33 9t-18 -14t-12 -25t-17 -24 q-54 -48 -84 -97t-74 -107q-18 -22 -37 -44t-34 -48t-23 -54t-4 -62q-10 -16 -17 -24t-15 -14t-17 -13t-21 -21q-22 -28 -48 -57t-34 -63zM1072 1630q12 -22 31 -48t53 -24q10 0 27 7t33 17t31 22t21 22q8 10 10 27t4 31q6 48 -16 75t-74 17q-50 -10 -83 -49t-37 -97z" />
<glyph unicode="&#xc6;" horiz-adv-x="2630" d="M-204 488q14 6 32 6t36 -2t36 -3t36 5q14 -12 29 -12t30 6t30 13t27 9q8 2 15 0t17 -2q16 0 35 5t39 9q32 4 65 5t57 11q16 6 39 21t33 27q8 10 10 19t8 19q22 34 55 60t59 58q12 16 17 24t9 14t10 14t20 24q28 28 55 54t61 50q4 12 11 21t13 19q62 22 108 58t90 76 q4 20 18 29t20 29q4 10 0 23t0 27q4 16 23 33t35 31q18 16 33 32t29 30q20 18 43 32t43 34q10 12 21 27t27 23q22 12 54 14t66 4q38 2 85 9t94 15t93 15t82 9q38 4 70 2t54 6q22 -22 41 -44t39 -46q34 -10 77 -12t85 8q78 -10 163 2t171 16q24 2 46 -3t46 -7q34 -4 73 -2 t77 6t73 5t67 7q24 4 54 13t62 3q8 -26 -7 -44t-33 -28q-46 -26 -101 -43t-101 -45q-26 -16 -49 -38t-57 -34q-34 -10 -74 -12t-86 -6q-44 -4 -88 -14t-82 -6q-16 2 -33 7t-33 7q-18 2 -37 -2t-37 -6q-12 -2 -27 0t-29 0q-38 -4 -81 -11t-57 -35q-10 -58 -26 -108l-32 -100 q-10 -26 -23 -56t-1 -58q88 -14 171 -4t159 4q24 -2 49 -5t47 -7q18 -4 35 -19t33 -19q30 -6 55 -3t51 -1q18 -10 28 -29t28 -31q12 -10 28 -10t28 -12q0 -30 -10 -47t-27 -23t-39 -6t-48 2q-34 4 -81 3t-89 -3q-24 0 -48 -2t-46 2q-16 4 -28 17t-32 15q-20 4 -42 -3 t-42 -11q-64 -12 -122 -29t-116 -29q-44 -82 -62 -192q-4 -24 -9 -48t-3 -43t14 -31t42 -12q26 0 56 4t61 8t64 5t65 -7q22 -4 39 -18t39 -12q16 2 31 17t31 21q24 10 55 11t64 0t68 -4t67 -3q58 0 123 -4t111 -20q16 -26 3 -52t-41 -30q-22 -34 -50 -48t-76 -30 q-38 -10 -63 -26t-71 -18q-58 0 -115 1t-115 -9q-40 -8 -77 -18t-77 -16q-100 -16 -194 -38t-200 -26q-8 -2 -15 -2t-17 -2q-6 -22 -15 -41t-21 -33q-12 -12 -40 -25t-44 -15q-28 -2 -62 16t-46 38t-20 44t-14 50t-15 49t-25 39q-8 6 -17 12t-13 14q-6 20 1 45t19 52t23 53 t11 46t-7 31t-20 16t-33 6t-46 3q-90 6 -189 12t-201 4q-22 0 -33 -2t-19 -3t-17 -3t-27 -2q-40 -2 -73 -5t-65 -21q-8 -6 -19 -17l-23 -23t-22 -25t-16 -21q-36 -50 -62 -101t-72 -85q-40 0 -64 -17t-42 -43q-22 6 -53 2t-64 -8t-62 -5t-43 11q-8 6 -12 17t-10 21 q-4 12 -10 22t-4 20q2 12 19 35t27 33q10 6 23 10t23 12q34 22 59 55t43 53q16 10 37 21t23 29q-14 10 -37 9t-51 1q-40 0 -78 6t-66 10q-50 10 -76 48t-2 96zM662 570q32 -10 58 -10t51 3t53 8t66 7q68 2 132 3t122 5q18 8 40 4q2 10 11 11t19 5q14 14 16 23t0 16t-4 16 t4 25q4 16 16 33t18 35q6 14 7 30t7 32q4 10 11 17l15 15q2 10 6 21t8 23q6 26 11 40t5 24q0 16 -12 30t-12 30q2 20 15 45t21 49q10 34 14 62t-4 56q-18 12 -30 9t-22 -14t-20 -25t-24 -24q-34 -24 -62 -48t-53 -49l-51 -51t-58 -56q-24 -22 -50 -44t-49 -48t-40 -54 t-23 -62q-16 -16 -26 -23t-19 -13t-20 -14t-27 -22q-32 -28 -67 -57t-53 -63z" />
<glyph unicode="&#xc7;" horiz-adv-x="1410" d="M1 542q-7 90 13 178q4 16 11 28t11 26q6 18 8 38t6 36q18 66 49 121t65 109q14 24 31 44t35 44q8 10 15 21t17 21q16 16 36 27t36 27q22 26 33 63t33 63q4 6 15 14t24 16t26 15t21 11q42 20 87 25t97 21q30 10 62 19t60 15q46 8 106 10t112 -8q8 -2 14 -5t16 -5 q22 -4 43 0t39 0q10 -2 18 -7t20 -7q10 -4 22 -3t24 -3q14 -4 27 -9t25 -9q28 -4 60 -4t60 2q54 4 106 14t106 0q12 -32 -7 -55t-39 -33q-36 -18 -87 -24t-91 -22q-22 -10 -34 -25t-34 -21q-70 0 -139 2t-143 -4q-14 -2 -28 -7t-28 -5q-18 0 -37 7t-39 3q-10 -4 -16 -11 t-16 -15q-38 -22 -82 -43t-82 -47q-34 -24 -58 -61t-48 -77q-10 -14 -19 -27t-13 -23q-4 -12 -3 -27t-3 -31q-4 -24 -10 -52t-16 -52q-10 -26 -21 -51t-15 -49q-4 -28 -5 -55t-11 -55q-6 -28 -13 -53t-7 -53q-4 -46 4 -89t8 -89q34 -40 64 -76t76 -52q20 -8 42 -8t46 3l48 6 t48 1q18 -2 29 -7t22 -9t24 -8t31 -2l68 4t68 6q54 4 99 20t87 30q10 4 20 4t20 4q16 6 29 14t31 16q18 10 37 20t29 6q16 -4 19 -26t1 -30q-4 -14 -23 -24t-37 -26q-20 -14 -34 -26t-28 -22q-34 -24 -71 -44t-67 -38q-28 -18 -45 -35t-45 -27q-32 -12 -69 -15t-65 -13 q-24 -8 -35 -23t-39 -25q-88 -26 -194 -20q-8 -18 -18 -39t-10 -41q42 -4 73 -12t51 -34q16 -24 24 -52t-8 -72q-4 -14 -18 -30t-28 -34q-4 -6 -5 -14t-5 -12q-16 -22 -45 -42t-49 -30q-52 -24 -105 -22t-105 22q-18 16 -27 43t-1 57q2 10 11 13t15 9q18 -2 35 -10t37 -14 t41 -7t45 11q18 10 34 25t18 27q8 38 -12 52t-50 18t-63 7t-49 19q-4 4 -10 19t-4 25q0 8 8 17t12 19q4 8 3 15t1 11q10 22 29 41t29 41q-68 20 -131 45t-115 53q-10 28 -36 45t-42 41q-22 28 -37 60t-49 50q8 48 -14 75t-44 51q-22 82 -29 172z" />
<glyph unicode="&#xc8;" horiz-adv-x="1470" d="M2 258q4 36 24 71t30 75q8 34 8 66t8 66q28 30 39 64t25 86q4 18 12 38t8 36q2 18 -5 35t-7 37q0 22 12 52t22 58q10 32 15 62t13 58q4 14 11 25t11 23q6 26 10 56t6 60t-1 58t-13 50q-8 12 -28 32l-30 30q-10 8 -24 14t-14 16q-2 12 6 18t18 8t22 1t20 -1q64 -8 124 -15 t132 -1l40 5t49 6t48 5t37 0q6 -2 13 -6t17 -8q38 -14 88 -21t102 9q78 -10 164 2t172 16q22 2 44 -3t46 -7q34 -4 73 -2t79 6q34 4 71 5t67 7q26 4 55 13t61 3q10 -26 -5 -44t-35 -28q-46 -26 -100 -43t-100 -45q-28 -16 -50 -38t-56 -34q-34 -10 -75 -12t-85 -6 q-46 -4 -90 -14t-80 -6q-16 2 -34 7t-34 7t-36 -2t-38 -6q-12 -2 -26 0t-30 0q-18 -2 -39 -4t-41 -7t-35 -13t-21 -22q-10 -58 -27 -108t-35 -100q-10 -26 -21 -56t1 -58q86 -14 169 -4t161 4q22 -2 48 -5t48 -7q16 -4 33 -19t35 -19q28 -6 54 -3t50 -1q18 -10 28 -29 t30 -31q12 -10 27 -10t27 -12q0 -30 -10 -47t-26 -23t-38 -6t-48 2q-36 4 -83 3t-87 -3q-26 0 -50 -2t-44 2q-16 4 -29 17t-33 15q-18 4 -41 -3t-45 -11q-64 -12 -121 -29t-115 -29q-40 -80 -64 -192l-8 -48t-2 -43t14 -31t42 -12q26 0 57 4l62 8t64 5t65 -7q18 -4 36 -18 t42 -12q16 2 30 17t32 21q24 10 54 11t64 0t69 -4t67 -3q56 0 121 -4t111 -20q18 -26 4 -52t-40 -30q-24 -34 -52 -48t-76 -30q-36 -10 -62 -26t-70 -18q-58 0 -116 1t-116 -9q-40 -8 -77 -18t-77 -16q-100 -16 -193 -38t-199 -26q-22 -2 -44 -6t-36 0q-16 2 -26 16t-26 22 q-14 4 -26 6t-22 6q-12 6 -22 19t-22 25q-12 14 -25 26t-23 28q-18 34 -31 76t-7 94zM696 1854q4 14 16 31t27 33t31 28t28 18q28 12 55 -4t41 -34q10 -10 13 -24t13 -24q16 -22 27 -30t27 -30q22 -30 37 -60t43 -52q-4 -22 -27 -43t-39 -39q-38 -10 -61 -3t-38 22t-27 33 t-26 34q-20 18 -36 30t-38 34q-10 8 -23 17t-24 19t-17 21t-2 23z" />
<glyph unicode="&#xc9;" horiz-adv-x="1470" d="M2 258q4 36 24 71t30 75q8 34 8 66t8 66q28 30 39 64t25 86q4 18 12 38t8 36q2 18 -5 35t-7 37q0 22 12 52t22 58q10 32 15 62t13 58q4 14 11 25t11 23q6 26 10 56t6 60t-1 58t-13 50q-8 12 -28 32l-30 30q-10 8 -24 14t-14 16q-2 12 6 18t18 8t22 1t20 -1q64 -8 124 -15 t132 -1l40 5t49 6t48 5t37 0q6 -2 13 -6t17 -8q38 -14 88 -21t102 9q78 -10 164 2t172 16q22 2 44 -3t46 -7q34 -4 73 -2t79 6q34 4 71 5t67 7q26 4 55 13t61 3q10 -26 -5 -44t-35 -28q-46 -26 -100 -43t-100 -45q-28 -16 -50 -38t-56 -34q-34 -10 -75 -12t-85 -6 q-46 -4 -90 -14t-80 -6q-16 2 -34 7t-34 7t-36 -2t-38 -6q-12 -2 -26 0t-30 0q-18 -2 -39 -4t-41 -7t-35 -13t-21 -22q-10 -58 -27 -108t-35 -100q-10 -26 -21 -56t1 -58q86 -14 169 -4t161 4q22 -2 48 -5t48 -7q16 -4 33 -19t35 -19q28 -6 54 -3t50 -1q18 -10 28 -29 t30 -31q12 -10 27 -10t27 -12q0 -30 -10 -47t-26 -23t-38 -6t-48 2q-36 4 -83 3t-87 -3q-26 0 -50 -2t-44 2q-16 4 -29 17t-33 15q-18 4 -41 -3t-45 -11q-64 -12 -121 -29t-115 -29q-40 -80 -64 -192l-8 -48t-2 -43t14 -31t42 -12q26 0 57 4l62 8t64 5t65 -7q18 -4 36 -18 t42 -12q16 2 30 17t32 21q24 10 54 11t64 0t69 -4t67 -3q56 0 121 -4t111 -20q18 -26 4 -52t-40 -30q-24 -34 -52 -48t-76 -30q-36 -10 -62 -26t-70 -18q-58 0 -116 1t-116 -9q-40 -8 -77 -18t-77 -16q-100 -16 -193 -38t-199 -26q-22 -2 -44 -6t-36 0q-16 2 -26 16t-26 22 q-14 4 -26 6t-22 6q-12 6 -22 19t-22 25q-12 14 -25 26t-23 28q-18 34 -31 76t-7 94zM838 1666q40 22 71 52t69 60q28 22 44 30t42 30q16 10 27 24t25 24l27 18t32 16t32 8t25 -4q18 -10 34 -46t10 -64q-2 -12 -14 -23t-28 -21t-35 -19t-33 -17q-32 -22 -55 -34t-53 -30 q-24 -16 -45 -34t-45 -33t-50 -22t-58 3q-4 18 -17 39t-5 43z" />
<glyph unicode="&#xca;" horiz-adv-x="1470" d="M2 258q4 36 24 71t30 75q8 34 8 66t8 66q28 30 39 64t25 86q4 18 12 38t8 36q2 18 -5 35t-7 37q0 22 12 52t22 58q10 32 15 62t13 58q4 14 11 25t11 23q6 26 10 56t6 60t-1 58t-13 50q-8 12 -28 32l-30 30q-10 8 -24 14t-14 16q-2 12 6 18t18 8t22 1t20 -1q64 -8 124 -15 t132 -1l40 5t49 6t48 5t37 0q6 -2 13 -6t17 -8q38 -14 88 -21t102 9q78 -10 164 2t172 16q22 2 44 -3t46 -7q34 -4 73 -2t79 6q34 4 71 5t67 7q26 4 55 13t61 3q10 -26 -5 -44t-35 -28q-46 -26 -100 -43t-100 -45q-28 -16 -50 -38t-56 -34q-34 -10 -75 -12t-85 -6 q-46 -4 -90 -14t-80 -6q-16 2 -34 7t-34 7t-36 -2t-38 -6q-12 -2 -26 0t-30 0q-18 -2 -39 -4t-41 -7t-35 -13t-21 -22q-10 -58 -27 -108t-35 -100q-10 -26 -21 -56t1 -58q86 -14 169 -4t161 4q22 -2 48 -5t48 -7q16 -4 33 -19t35 -19q28 -6 54 -3t50 -1q18 -10 28 -29 t30 -31q12 -10 27 -10t27 -12q0 -30 -10 -47t-26 -23t-38 -6t-48 2q-36 4 -83 3t-87 -3q-26 0 -50 -2t-44 2q-16 4 -29 17t-33 15q-18 4 -41 -3t-45 -11q-64 -12 -121 -29t-115 -29q-40 -80 -64 -192l-8 -48t-2 -43t14 -31t42 -12q26 0 57 4l62 8t64 5t65 -7q18 -4 36 -18 t42 -12q16 2 30 17t32 21q24 10 54 11t64 0t69 -4t67 -3q56 0 121 -4t111 -20q18 -26 4 -52t-40 -30q-24 -34 -52 -48t-76 -30q-36 -10 -62 -26t-70 -18q-58 0 -116 1t-116 -9q-40 -8 -77 -18t-77 -16q-100 -16 -193 -38t-199 -26q-22 -2 -44 -6t-36 0q-16 2 -26 16t-26 22 q-14 4 -26 6t-22 6q-12 6 -22 19t-22 25q-12 14 -25 26t-23 28q-18 34 -31 76t-7 94zM636 1630q-2 6 8 12t16 10q22 16 41 33t39 33q10 18 17 24t17 14l20 10t20 12q4 4 7 10t9 12q26 24 68 48t74 48q14 10 33 24t39 18q16 2 28 -1t24 -5l20 -44t26 -42q10 -16 23 -31 t19 -35q2 -6 0 -13t0 -15q4 -4 11 -9t11 -9q4 -16 7 -22t7 -12q6 -16 11 -34t7 -36q-18 -14 -46 -11t-36 13q-4 4 -7 10t-7 10l-20 20q-4 6 -6 12t-6 10t-14 7t-14 7q-12 18 -16 21t-8 7q-4 6 -5 13t-5 13q-10 16 -12 17t-12 17q-14 -4 -22 -7t-14 -8l-12 -10t-18 -11 q-4 -4 -11 -6t-11 -6q-14 -8 -24 -18t-20 -22q-14 -10 -27 -17t-25 -17q-24 -18 -42 -22t-40 -20q-8 -8 -36 -13t-48 -5q-12 0 -25 5t-13 11z" />
<glyph unicode="&#xcb;" horiz-adv-x="1470" d="M2 258q4 36 24 71t30 75q8 34 8 66t8 66q28 30 39 64t25 86q4 18 12 38t8 36q2 18 -5 35t-7 37q0 22 12 52t22 58q10 32 15 62t13 58q4 14 11 25t11 23q6 26 10 56t6 60t-1 58t-13 50q-8 12 -28 32l-30 30q-10 8 -24 14t-14 16q-2 12 6 18t18 8t22 1t20 -1q64 -8 124 -15 t132 -1l40 5t49 6t48 5t37 0q6 -2 13 -6t17 -8q38 -14 88 -21t102 9q78 -10 164 2t172 16q22 2 44 -3t46 -7q34 -4 73 -2t79 6q34 4 71 5t67 7q26 4 55 13t61 3q10 -26 -5 -44t-35 -28q-46 -26 -100 -43t-100 -45q-28 -16 -50 -38t-56 -34q-34 -10 -75 -12t-85 -6 q-46 -4 -90 -14t-80 -6q-16 2 -34 7t-34 7t-36 -2t-38 -6q-12 -2 -26 0t-30 0q-18 -2 -39 -4t-41 -7t-35 -13t-21 -22q-10 -58 -27 -108t-35 -100q-10 -26 -21 -56t1 -58q86 -14 169 -4t161 4q22 -2 48 -5t48 -7q16 -4 33 -19t35 -19q28 -6 54 -3t50 -1q18 -10 28 -29 t30 -31q12 -10 27 -10t27 -12q0 -30 -10 -47t-26 -23t-38 -6t-48 2q-36 4 -83 3t-87 -3q-26 0 -50 -2t-44 2q-16 4 -29 17t-33 15q-18 4 -41 -3t-45 -11q-64 -12 -121 -29t-115 -29q-40 -80 -64 -192l-8 -48t-2 -43t14 -31t42 -12q26 0 57 4l62 8t64 5t65 -7q18 -4 36 -18 t42 -12q16 2 30 17t32 21q24 10 54 11t64 0t69 -4t67 -3q56 0 121 -4t111 -20q18 -26 4 -52t-40 -30q-24 -34 -52 -48t-76 -30q-36 -10 -62 -26t-70 -18q-58 0 -116 1t-116 -9q-40 -8 -77 -18t-77 -16q-100 -16 -193 -38t-199 -26q-22 -2 -44 -6t-36 0q-16 2 -26 16t-26 22 q-14 4 -26 6t-22 6q-12 6 -22 19t-22 25q-12 14 -25 26t-23 28q-18 34 -31 76t-7 94zM598 1710q-2 16 3 29t3 33q22 26 47 49t63 25q16 0 35 -7t36 -19t29 -28t14 -34q4 -34 -7 -65t-32 -53t-49 -32t-56 0q-10 4 -24 16t-27 27t-23 31t-12 28zM1047 1753q17 55 63 79 q28 14 62 9t54 -19q18 -12 34 -43t14 -55q0 -10 -5 -23t-11 -25t-11 -24t-13 -20q-10 -10 -41 -23t-59 -9q-22 4 -38 21t-38 25q-28 52 -11 107z" />
<glyph unicode="&#xcc;" horiz-adv-x="820" d="M-112 -22q6 26 23 44t38 35t40 37t27 48q6 22 4 43t2 45q4 36 17 81t27 85q14 42 26 83t24 77q8 20 27 39t23 49q2 16 -3 31t-3 25q2 14 10 26t12 26q4 10 6 22t6 22q10 36 20 81t20 83q10 34 27 62t23 58q0 14 -9 19t-13 19q10 22 8 59t0 67q4 36 9 63t-9 57 q-10 22 -26 40t-10 50q24 6 47 9t51 1q14 -2 26 -8t28 -10q46 -6 91 -1t87 5t62 -2t56 2q46 4 90 19t86 21q20 4 48 0t46 -20q4 -30 -15 -38t-35 -16q-32 -16 -50 -38t-40 -50q-14 -18 -25 -30t-21 -34q-4 -10 -5 -25t-7 -27q-16 -44 -43 -88t-37 -82q-4 -20 -5 -38t-5 -38 q-8 -26 -22 -57t-26 -63q-16 -40 -35 -89t-33 -95q-8 -30 -13 -61t-11 -63q-4 -30 -6 -64t-12 -60q-8 -20 -27 -34t-29 -36q4 -8 11 -12t5 -16q-6 -12 -12 -27t-4 -31q4 -20 19 -37t19 -33q4 -12 2 -22t2 -20q6 -22 23 -42t33 -30q24 -16 51 -24t39 -36l-16 -22 q-44 12 -92 10t-94 2q-22 4 -45 12t-47 12q-96 18 -167 8t-147 -34q-16 -6 -33 -13t-35 -13t-37 -7t-37 9zM388 1854q4 14 16 31t27 33t31 28t28 18q28 12 55 -4t41 -34q10 -10 13 -24t13 -24q16 -22 27 -30t27 -30q22 -30 37 -60t43 -52q-4 -22 -27 -43t-39 -39 q-38 -10 -61 -3t-38 22t-27 33t-26 34q-20 18 -36 30t-38 34q-10 8 -23 17t-24 19t-17 21t-2 23z" />
<glyph unicode="&#xcd;" horiz-adv-x="820" d="M-112 -22q6 26 23 44t38 35t40 37t27 48q6 22 4 43t2 45q4 36 17 81t27 85q14 42 26 83t24 77q8 20 27 39t23 49q2 16 -3 31t-3 25q2 14 10 26t12 26q4 10 6 22t6 22q10 36 20 81t20 83q10 34 27 62t23 58q0 14 -9 19t-13 19q10 22 8 59t0 67q4 36 9 63t-9 57 q-10 22 -26 40t-10 50q24 6 47 9t51 1q14 -2 26 -8t28 -10q46 -6 91 -1t87 5t62 -2t56 2q46 4 90 19t86 21q20 4 48 0t46 -20q4 -30 -15 -38t-35 -16q-32 -16 -50 -38t-40 -50q-14 -18 -25 -30t-21 -34q-4 -10 -5 -25t-7 -27q-16 -44 -43 -88t-37 -82q-4 -20 -5 -38t-5 -38 q-8 -26 -22 -57t-26 -63q-16 -40 -35 -89t-33 -95q-8 -30 -13 -61t-11 -63q-4 -30 -6 -64t-12 -60q-8 -20 -27 -34t-29 -36q4 -8 11 -12t5 -16q-6 -12 -12 -27t-4 -31q4 -20 19 -37t19 -33q4 -12 2 -22t2 -20q6 -22 23 -42t33 -30q24 -16 51 -24t39 -36l-16 -22 q-44 12 -92 10t-94 2q-22 4 -45 12t-47 12q-96 18 -167 8t-147 -34q-16 -6 -33 -13t-35 -13t-37 -7t-37 9zM512 1706q40 22 71 52t69 60q28 22 44 30t42 30q16 10 27 24t25 24l27 18t32 16t32 8t25 -4q18 -10 34 -46t10 -64q-2 -12 -14 -23t-28 -21t-35 -19t-33 -17 q-32 -22 -55 -34t-53 -30q-24 -16 -45 -34t-45 -33t-50 -22t-58 3q-4 18 -17 39t-5 43z" />
<glyph unicode="&#xce;" horiz-adv-x="820" d="M-112 -22q6 26 23 44t38 35t40 37t27 48q6 22 4 43t2 45q4 36 17 81t27 85q14 42 26 83t24 77q8 20 27 39t23 49q2 16 -3 31t-3 25q2 14 10 26t12 26q4 10 6 22t6 22q10 36 20 81t20 83q10 34 27 62t23 58q0 14 -9 19t-13 19q10 22 8 59t0 67q4 36 9 63t-9 57 q-10 22 -26 40t-10 50q24 6 47 9t51 1q14 -2 26 -8t28 -10q46 -6 91 -1t87 5t62 -2t56 2q46 4 90 19t86 21q20 4 48 0t46 -20q4 -30 -15 -38t-35 -16q-32 -16 -50 -38t-40 -50q-14 -18 -25 -30t-21 -34q-4 -10 -5 -25t-7 -27q-16 -44 -43 -88t-37 -82q-4 -20 -5 -38t-5 -38 q-8 -26 -22 -57t-26 -63q-16 -40 -35 -89t-33 -95q-8 -30 -13 -61t-11 -63q-4 -30 -6 -64t-12 -60q-8 -20 -27 -34t-29 -36q4 -8 11 -12t5 -16q-6 -12 -12 -27t-4 -31q4 -20 19 -37t19 -33q4 -12 2 -22t2 -20q6 -22 23 -42t33 -30q24 -16 51 -24t39 -36l-16 -22 q-44 12 -92 10t-94 2q-22 4 -45 12t-47 12q-96 18 -167 8t-147 -34q-16 -6 -33 -13t-35 -13t-37 -7t-37 9zM328 1670q-2 6 8 12t16 10q22 16 41 33t39 33q10 18 17 24t17 14l20 10t20 12q4 4 7 10t9 12q26 24 68 48t74 48q14 10 33 24t39 18q16 2 28 -1t24 -5l20 -44t26 -42 q10 -16 23 -31t19 -35q2 -6 0 -13t0 -15q4 -4 11 -9t11 -9q4 -16 7 -22t7 -12q6 -16 11 -34t7 -36q-18 -14 -46 -11t-36 13q-4 4 -7 10t-7 10l-20 20q-4 6 -6 12t-6 10t-14 7t-14 7q-12 18 -16 21t-8 7q-4 6 -5 13t-5 13q-10 16 -12 17t-12 17q-14 -4 -22 -7t-14 -8l-12 -10 t-18 -11q-4 -4 -11 -6t-11 -6q-14 -8 -24 -18t-20 -22q-14 -10 -27 -17t-25 -17q-24 -18 -42 -22t-40 -20q-8 -8 -36 -13t-48 -5q-12 0 -25 5t-13 11z" />
<glyph unicode="&#xcf;" horiz-adv-x="820" d="M-112 -22q6 26 23 44t38 35t40 37t27 48q6 22 4 43t2 45q4 36 17 81t27 85q14 42 26 83t24 77q8 20 27 39t23 49q2 16 -3 31t-3 25q2 14 10 26t12 26q4 10 6 22t6 22q10 36 20 81t20 83q10 34 27 62t23 58q0 14 -9 19t-13 19q10 22 8 59t0 67q4 36 9 63t-9 57 q-10 22 -26 40t-10 50q24 6 47 9t51 1q14 -2 26 -8t28 -10q46 -6 91 -1t87 5t62 -2t56 2q46 4 90 19t86 21q20 4 48 0t46 -20q4 -30 -15 -38t-35 -16q-32 -16 -50 -38t-40 -50q-14 -18 -25 -30t-21 -34q-4 -10 -5 -25t-7 -27q-16 -44 -43 -88t-37 -82q-4 -20 -5 -38t-5 -38 q-8 -26 -22 -57t-26 -63q-16 -40 -35 -89t-33 -95q-8 -30 -13 -61t-11 -63q-4 -30 -6 -64t-12 -60q-8 -20 -27 -34t-29 -36q4 -8 11 -12t5 -16q-6 -12 -12 -27t-4 -31q4 -20 19 -37t19 -33q4 -12 2 -22t2 -20q6 -22 23 -42t33 -30q24 -16 51 -24t39 -36l-16 -22 q-44 12 -92 10t-94 2q-22 4 -45 12t-47 12q-96 18 -167 8t-147 -34q-16 -6 -33 -13t-35 -13t-37 -7t-37 9zM310 1750q-2 16 3 29t3 33q22 26 47 49t63 25q16 0 35 -7t36 -19t29 -28t14 -34q4 -34 -7 -65t-32 -53t-49 -32t-56 0q-10 4 -24 16t-27 27t-23 31t-12 28zM759 1793 q17 55 63 79q28 14 62 9t54 -19q18 -12 34 -43t14 -55q0 -10 -5 -23t-11 -25t-11 -24t-13 -20q-10 -10 -41 -23t-59 -9q-22 4 -38 21t-38 25q-28 52 -11 107z" />
<glyph unicode="&#xd0;" horiz-adv-x="1718" d="M-184 -22q2 8 12 17t24 17t28 15t24 13q46 32 72 58t54 78q10 18 19 31t15 25t10 26t4 36q6 14 21 19t19 21q4 14 -2 25t-4 27q0 8 4 17t8 19q6 24 10 49t9 49t13 44t24 32q2 10 3 19t5 19l-98 -6q-28 4 -51 0l-46 -8t-47 -5t-52 7q-10 14 -12 26t1 25t8 26t7 29 q30 26 74 35t91 15t92 14t79 30q10 20 16 46q12 52 24 101t22 93q6 22 4 41t2 37q6 40 12 76t0 70q-4 12 -12 25t-12 29q-4 10 -4 19t-4 19q-8 18 -23 27t-29 19t-23 25t-5 43q14 14 34 17t43 0t47 -10t46 -11q30 -4 64 -3t71 3t74 2t71 -4q10 -2 15 -6t13 -4q16 2 27 9 t27 11q74 10 141 -7t133 -27q64 -10 129 -16t107 -32q22 -16 40 -35t40 -31q34 -18 73 -30t73 -28q10 -4 18 -11t18 -11q16 -10 30 -14t28 -18q14 -10 23 -26t19 -32q18 -28 38 -48t32 -54q4 -18 7 -36t9 -34q16 -44 25 -105t-9 -125q-4 -14 -12 -26t-12 -26 q-28 -72 -64 -139t-98 -131q-20 0 -40 -8q-14 -22 -23 -46t-25 -42q-8 -10 -21 -18t-23 -20q-42 -52 -94 -107t-106 -89q-16 -10 -35 -20t-33 -16q-10 -4 -19 -4t-19 -4q-22 -10 -38 -27t-34 -31q-42 6 -80 -7t-80 -13q-66 0 -145 -5t-159 -9q-28 -2 -55 -4t-59 -2 q-52 -2 -100 0t-94 2q-58 2 -107 -8t-109 -16q-40 -4 -77 -16t-65 -12q-10 0 -22 3t-22 9t-17 14t-5 20zM520 256q2 -20 17 -40t25 -38q28 0 52 3t52 1q20 -2 37 -8t35 -8q40 -2 69 18t53 36q18 10 38 18t32 16q42 26 77 66t65 88t55 99t47 97q14 28 28 55t24 53q12 34 8 65 t6 61q4 10 16 21t14 25q2 20 -11 29t-15 27q-2 12 2 25t4 27q0 28 -7 59t-19 60t-30 53t-38 38t-58 28t-82 23t-87 11t-69 -4q-30 -10 -45 -30t-26 -45t-21 -52t-28 -49q-8 -8 -25 -15t-21 -23q-4 -12 4 -27t8 -27q0 -18 -8 -31t-12 -29q-8 -26 -14 -55t-16 -57h30 q44 0 78 4t86 6q34 2 69 0t45 -26q4 -4 0 -22t-10 -26q-12 -14 -49 -22t-61 -24q-10 -6 -22 -18t-26 -16q-24 -8 -58 -6t-62 0q-20 -2 -38 -3t-34 -5q-12 -68 -19 -135t-23 -123q-12 -38 -29 -76t-13 -72z" />
<glyph unicode="&#xd1;" horiz-adv-x="1618" d="M-102 14q4 28 13 62t20 69t23 68t22 59q6 22 13 42t13 42q6 20 16 39t14 39q4 22 2 43t0 43q4 20 14 44t16 46q20 68 42 131t62 111q0 28 8 52t16 46t10 43t-10 45q8 36 21 69t21 71q2 10 1 22t3 22q4 18 15 39t24 42t24 41t15 36q22 4 42 9t48 5q12 0 24 -3t24 -1 q22 4 33 20t27 24q28 4 55 5t53 9q12 4 31 10t31 6q24 0 39 -18t25 -43t18 -50t22 -39q0 -60 6 -109t10 -113q8 -68 22 -125t30 -117q6 -26 9 -52t13 -48q16 -40 33 -74t21 -74q6 -46 4 -87t8 -81q10 -32 22 -52t34 -46q22 28 26 60l8 64q6 34 16 65t20 65q10 48 27 100 t35 94q4 12 14 26t18 28q12 22 5 51t-3 57q4 20 11 43t13 47q14 58 17 124t17 114q6 16 16 44t8 48q0 16 -11 24t-11 24t15 28t36 20t44 12t39 4q18 0 33 -4t29 -8t31 -7t39 -1q34 4 76 9t82 7q20 2 39 3t33 5q20 6 40 13t48 11q24 4 47 11t39 13q6 4 13 5t17 -9 q-18 -34 -43 -53t-53 -39q-24 -22 -54 -39t-52 -39q-42 -46 -73 -113t-59 -133q-8 -16 -21 -32t-21 -34q-22 -54 -37 -114t-28 -121t-27 -123t-34 -120q-10 -10 -24 -17t-20 -21q2 -10 9 -19t9 -21q2 -16 -5 -32t-11 -36q-10 -58 -31 -127t-53 -109q-18 -60 -33 -122 t-49 -108q-18 -6 -33 -16t-37 -10q-10 0 -21 6t-25 10q-16 4 -36 7t-38 9q-18 4 -35 10t-33 6h-48t-46 6q-6 20 -17 37t-19 37q-8 18 -18 40t-12 44q-2 10 2 22t2 22q-4 16 -16 32t-16 32q-2 10 0 21t0 21q-2 14 -9 22t-11 20q-4 6 -2 13t0 13q-4 14 -13 27t-13 25 q-8 32 -7 67t-3 69q-4 28 -13 55t-9 57q0 16 6 28t6 26q2 16 -4 28t-8 28q-6 14 -19 20t-25 14q-16 58 -44 133t-44 135q0 4 -3 -11t-8 -37t-13 -46t-20 -38q16 -28 2 -68t-24 -80q-14 -58 -26 -117t-32 -117q-4 -14 -10 -24t-10 -22q-6 -20 -6 -42t-4 -44t-7 -42t-7 -40 q-6 -36 -13 -80t-18 -85t-29 -74t-46 -47q-22 -14 -39 -10t-35 16q-10 -2 -12 -13t-10 -15q-28 2 -46 -9t-40 -17q-6 -2 -13 -1t-13 -3q-18 -6 -32 -16t-27 -19t-27 -15t-30 -2q-24 6 -35 26t-27 36zM708 1632q0 16 6 24t8 24q8 8 16 13t12 15q24 6 43 25t41 35q14 10 27 15 t29 13q22 10 43 22t47 8q16 -4 35 -12t35 -18q8 -4 12 -10t14 -10t20 -3t20 -3q22 -6 44 -20t56 -4q32 8 63 37t59 45q8 4 15 -7t11 -19q-12 -32 -32 -65t-46 -49q-6 -4 -14 -5t-16 -5q-20 -10 -38 -22t-37 -21t-40 -11t-47 10q-12 6 -26 16t-26 20q-20 12 -46 30t-60 8 q-10 -4 -18 -15t-18 -15q-16 -10 -34 -15t-36 -15q-26 -16 -48 -24t-54 -14q-6 6 -11 10t-9 12z" />
<glyph unicode="&#xd2;" horiz-adv-x="1666" d="M21 594q1 62 13 136q4 22 14 43t20 43q8 22 15 44t15 42q10 18 28 34t24 38t-1 40t-3 42q6 48 45 85t73 77q44 48 84 80t94 72q8 4 21 9t25 13q10 8 20 17t18 13q18 4 37 1t37 1q16 4 31 16t29 26l28 28t28 22q6 4 15 5t17 5q56 24 119 17t127 -11q48 -4 97 -7t91 -15 q28 -8 54 -23t54 -19q48 -42 99 -79t85 -87q8 -10 13 -22t13 -22q16 -22 34 -48t26 -60q4 -24 0 -51t0 -55q2 -12 13 -19t15 -23q6 -28 -3 -56t-5 -64q0 -22 11 -37t11 -33q2 -28 -6 -55t-12 -53q-16 -82 -29 -140t-45 -118q-18 -28 -31 -58t-29 -54q-42 -64 -94 -117 t-94 -107q-76 -34 -144 -66t-154 -60q-20 -6 -39 -14t-41 -14q-26 -6 -54 -8t-56 -6q-20 -4 -40 -11t-42 -9q-22 -4 -41 2t-41 10q-16 4 -35 1t-35 -1q-10 2 -20 9t-24 13q-12 6 -27 8t-27 6q-16 6 -30 15t-30 13q-12 4 -24 4t-22 4q-14 4 -25 17t-27 23t-32 16t-26 14 q-28 20 -57 56t-51 76q-18 36 -43 74t-39 80q-4 24 -6 53t-6 59q-4 58 -3 120zM434 466q0 -12 4 -25t6 -27q6 -52 12 -88t32 -68q10 -12 28 -21t30 -21q10 -10 15 -20t15 -18q66 -52 188 -52q38 26 89 46t85 56q14 14 28 37t30 45q32 54 60 111t56 115q26 58 45 123t41 131 q8 22 25 48t17 44q2 14 -7 27t-11 23q0 14 1 25t-1 23q0 12 -4 22l-8 20q-4 18 -6 38t-2 38q0 16 2 31t0 31q-10 48 -42 83t-64 61q-10 8 -16 17t-14 13q-14 4 -31 6t-29 0q-44 -4 -79 -19t-79 -25q-64 -42 -137 -96t-119 -122q-6 -10 -9 -20t-9 -20q-10 -16 -22 -27 t-22 -27q-18 -30 -36 -66t-24 -66q-10 -40 -12 -86t-8 -92q-6 -56 -14 -109t-4 -99zM858 1916q4 14 16 31t27 33t31 28t28 18q28 12 55 -4t41 -34q10 -10 13 -24t13 -24q16 -22 27 -30t27 -30q22 -30 37 -60t43 -52q-4 -22 -27 -43t-39 -39q-38 -10 -61 -3t-38 22t-27 33 t-26 34q-20 18 -36 30t-38 34q-10 8 -23 17t-24 19t-17 21t-2 23z" />
<glyph unicode="&#xd3;" horiz-adv-x="1666" d="M21 594q1 62 13 136q4 22 14 43t20 43q8 22 15 44t15 42q10 18 28 34t24 38t-1 40t-3 42q6 48 45 85t73 77q44 48 84 80t94 72q8 4 21 9t25 13q10 8 20 17t18 13q18 4 37 1t37 1q16 4 31 16t29 26l28 28t28 22q6 4 15 5t17 5q56 24 119 17t127 -11q48 -4 97 -7t91 -15 q28 -8 54 -23t54 -19q48 -42 99 -79t85 -87q8 -10 13 -22t13 -22q16 -22 34 -48t26 -60q4 -24 0 -51t0 -55q2 -12 13 -19t15 -23q6 -28 -3 -56t-5 -64q0 -22 11 -37t11 -33q2 -28 -6 -55t-12 -53q-16 -82 -29 -140t-45 -118q-18 -28 -31 -58t-29 -54q-42 -64 -94 -117 t-94 -107q-76 -34 -144 -66t-154 -60q-20 -6 -39 -14t-41 -14q-26 -6 -54 -8t-56 -6q-20 -4 -40 -11t-42 -9q-22 -4 -41 2t-41 10q-16 4 -35 1t-35 -1q-10 2 -20 9t-24 13q-12 6 -27 8t-27 6q-16 6 -30 15t-30 13q-12 4 -24 4t-22 4q-14 4 -25 17t-27 23t-32 16t-26 14 q-28 20 -57 56t-51 76q-18 36 -43 74t-39 80q-4 24 -6 53t-6 59q-4 58 -3 120zM434 466q0 -12 4 -25t6 -27q6 -52 12 -88t32 -68q10 -12 28 -21t30 -21q10 -10 15 -20t15 -18q66 -52 188 -52q38 26 89 46t85 56q14 14 28 37t30 45q32 54 60 111t56 115q26 58 45 123t41 131 q8 22 25 48t17 44q2 14 -7 27t-11 23q0 14 1 25t-1 23q0 12 -4 22l-8 20q-4 18 -6 38t-2 38q0 16 2 31t0 31q-10 48 -42 83t-64 61q-10 8 -16 17t-14 13q-14 4 -31 6t-29 0q-44 -4 -79 -19t-79 -25q-64 -42 -137 -96t-119 -122q-6 -10 -9 -20t-9 -20q-10 -16 -22 -27 t-22 -27q-18 -30 -36 -66t-24 -66q-10 -40 -12 -86t-8 -92q-6 -56 -14 -109t-4 -99zM1022 1748q40 22 71 52t69 60q28 22 44 30t42 30q16 10 27 24t25 24l27 18t32 16t32 8t25 -4q18 -10 34 -46t10 -64q-2 -12 -14 -23t-28 -21t-35 -19t-33 -17q-32 -22 -55 -34t-53 -30 q-24 -16 -45 -34t-45 -33t-50 -22t-58 3q-4 18 -17 39t-5 43z" />
<glyph unicode="&#xd4;" horiz-adv-x="1666" d="M21 594q1 62 13 136q4 22 14 43t20 43q8 22 15 44t15 42q10 18 28 34t24 38t-1 40t-3 42q6 48 45 85t73 77q44 48 84 80t94 72q8 4 21 9t25 13q10 8 20 17t18 13q18 4 37 1t37 1q16 4 31 16t29 26l28 28t28 22q6 4 15 5t17 5q56 24 119 17t127 -11q48 -4 97 -7t91 -15 q28 -8 54 -23t54 -19q48 -42 99 -79t85 -87q8 -10 13 -22t13 -22q16 -22 34 -48t26 -60q4 -24 0 -51t0 -55q2 -12 13 -19t15 -23q6 -28 -3 -56t-5 -64q0 -22 11 -37t11 -33q2 -28 -6 -55t-12 -53q-16 -82 -29 -140t-45 -118q-18 -28 -31 -58t-29 -54q-42 -64 -94 -117 t-94 -107q-76 -34 -144 -66t-154 -60q-20 -6 -39 -14t-41 -14q-26 -6 -54 -8t-56 -6q-20 -4 -40 -11t-42 -9q-22 -4 -41 2t-41 10q-16 4 -35 1t-35 -1q-10 2 -20 9t-24 13q-12 6 -27 8t-27 6q-16 6 -30 15t-30 13q-12 4 -24 4t-22 4q-14 4 -25 17t-27 23t-32 16t-26 14 q-28 20 -57 56t-51 76q-18 36 -43 74t-39 80q-4 24 -6 53t-6 59q-4 58 -3 120zM434 466q0 -12 4 -25t6 -27q6 -52 12 -88t32 -68q10 -12 28 -21t30 -21q10 -10 15 -20t15 -18q66 -52 188 -52q38 26 89 46t85 56q14 14 28 37t30 45q32 54 60 111t56 115q26 58 45 123t41 131 q8 22 25 48t17 44q2 14 -7 27t-11 23q0 14 1 25t-1 23q0 12 -4 22l-8 20q-4 18 -6 38t-2 38q0 16 2 31t0 31q-10 48 -42 83t-64 61q-10 8 -16 17t-14 13q-14 4 -31 6t-29 0q-44 -4 -79 -19t-79 -25q-64 -42 -137 -96t-119 -122q-6 -10 -9 -20t-9 -20q-10 -16 -22 -27 t-22 -27q-18 -30 -36 -66t-24 -66q-10 -40 -12 -86t-8 -92q-6 -56 -14 -109t-4 -99zM676 1710q-2 6 8 12t16 10q22 16 41 33t39 33q10 18 17 24t17 14l20 10t20 12q4 4 7 10t9 12q26 24 68 48t74 48q14 10 33 24t39 18q16 2 28 -1t24 -5l20 -44t26 -42q10 -16 23 -31t19 -35 q2 -6 0 -13t0 -15q4 -4 11 -9t11 -9q4 -16 7 -22t7 -12q6 -16 11 -34t7 -36q-18 -14 -46 -11t-36 13q-4 4 -7 10t-7 10l-20 20q-4 6 -6 12t-6 10t-14 7t-14 7q-12 18 -16 21t-8 7q-4 6 -5 13t-5 13q-10 16 -12 17t-12 17q-14 -4 -22 -7t-14 -8l-12 -10t-18 -11q-4 -4 -11 -6 t-11 -6q-14 -8 -24 -18t-20 -22q-14 -10 -27 -17t-25 -17q-24 -18 -42 -22t-40 -20q-8 -8 -36 -13t-48 -5q-12 0 -25 5t-13 11z" />
<glyph unicode="&#xd5;" horiz-adv-x="1666" d="M21 594q1 62 13 136q4 22 14 43t20 43q8 22 15 44t15 42q10 18 28 34t24 38t-1 40t-3 42q6 48 45 85t73 77q44 48 84 80t94 72q8 4 21 9t25 13q10 8 20 17t18 13q18 4 37 1t37 1q16 4 31 16t29 26l28 28t28 22q6 4 15 5t17 5q56 24 119 17t127 -11q48 -4 97 -7t91 -15 q28 -8 54 -23t54 -19q48 -42 99 -79t85 -87q8 -10 13 -22t13 -22q16 -22 34 -48t26 -60q4 -24 0 -51t0 -55q2 -12 13 -19t15 -23q6 -28 -3 -56t-5 -64q0 -22 11 -37t11 -33q2 -28 -6 -55t-12 -53q-16 -82 -29 -140t-45 -118q-18 -28 -31 -58t-29 -54q-42 -64 -94 -117 t-94 -107q-76 -34 -144 -66t-154 -60q-20 -6 -39 -14t-41 -14q-26 -6 -54 -8t-56 -6q-20 -4 -40 -11t-42 -9q-22 -4 -41 2t-41 10q-16 4 -35 1t-35 -1q-10 2 -20 9t-24 13q-12 6 -27 8t-27 6q-16 6 -30 15t-30 13q-12 4 -24 4t-22 4q-14 4 -25 17t-27 23t-32 16t-26 14 q-28 20 -57 56t-51 76q-18 36 -43 74t-39 80q-4 24 -6 53t-6 59q-4 58 -3 120zM434 466q0 -12 4 -25t6 -27q6 -52 12 -88t32 -68q10 -12 28 -21t30 -21q10 -10 15 -20t15 -18q66 -52 188 -52q38 26 89 46t85 56q14 14 28 37t30 45q32 54 60 111t56 115q26 58 45 123t41 131 q8 22 25 48t17 44q2 14 -7 27t-11 23q0 14 1 25t-1 23q0 12 -4 22l-8 20q-4 18 -6 38t-2 38q0 16 2 31t0 31q-10 48 -42 83t-64 61q-10 8 -16 17t-14 13q-14 4 -31 6t-29 0q-44 -4 -79 -19t-79 -25q-64 -42 -137 -96t-119 -122q-6 -10 -9 -20t-9 -20q-10 -16 -22 -27 t-22 -27q-18 -30 -36 -66t-24 -66q-10 -40 -12 -86t-8 -92q-6 -56 -14 -109t-4 -99zM708 1734q0 16 6 24t8 24q8 8 16 13t12 15q24 6 43 25t41 35q14 10 27 15t29 13q22 10 43 22t47 8q16 -4 35 -12t35 -18q8 -4 12 -10t14 -10t20 -3t20 -3q22 -6 44 -20t56 -4q32 8 63 37 t59 45q8 4 15 -7t11 -19q-12 -32 -32 -65t-46 -49q-6 -4 -14 -5t-16 -5q-20 -10 -38 -22t-37 -21t-40 -11t-47 10q-12 6 -26 16t-26 20q-20 12 -46 30t-60 8q-10 -4 -18 -15t-18 -15q-16 -10 -34 -15t-36 -15q-26 -16 -48 -24t-54 -14q-6 6 -11 10t-9 12z" />
<glyph unicode="&#xd6;" horiz-adv-x="1666" d="M21 594q1 62 13 136q4 22 14 43t20 43q8 22 15 44t15 42q10 18 28 34t24 38t-1 40t-3 42q6 48 45 85t73 77q44 48 84 80t94 72q8 4 21 9t25 13q10 8 20 17t18 13q18 4 37 1t37 1q16 4 31 16t29 26l28 28t28 22q6 4 15 5t17 5q56 24 119 17t127 -11q48 -4 97 -7t91 -15 q28 -8 54 -23t54 -19q48 -42 99 -79t85 -87q8 -10 13 -22t13 -22q16 -22 34 -48t26 -60q4 -24 0 -51t0 -55q2 -12 13 -19t15 -23q6 -28 -3 -56t-5 -64q0 -22 11 -37t11 -33q2 -28 -6 -55t-12 -53q-16 -82 -29 -140t-45 -118q-18 -28 -31 -58t-29 -54q-42 -64 -94 -117 t-94 -107q-76 -34 -144 -66t-154 -60q-20 -6 -39 -14t-41 -14q-26 -6 -54 -8t-56 -6q-20 -4 -40 -11t-42 -9q-22 -4 -41 2t-41 10q-16 4 -35 1t-35 -1q-10 2 -20 9t-24 13q-12 6 -27 8t-27 6q-16 6 -30 15t-30 13q-12 4 -24 4t-22 4q-14 4 -25 17t-27 23t-32 16t-26 14 q-28 20 -57 56t-51 76q-18 36 -43 74t-39 80q-4 24 -6 53t-6 59q-4 58 -3 120zM434 466q0 -12 4 -25t6 -27q6 -52 12 -88t32 -68q10 -12 28 -21t30 -21q10 -10 15 -20t15 -18q66 -52 188 -52q38 26 89 46t85 56q14 14 28 37t30 45q32 54 60 111t56 115q26 58 45 123t41 131 q8 22 25 48t17 44q2 14 -7 27t-11 23q0 14 1 25t-1 23q0 12 -4 22l-8 20q-4 18 -6 38t-2 38q0 16 2 31t0 31q-10 48 -42 83t-64 61q-10 8 -16 17t-14 13q-14 4 -31 6t-29 0q-44 -4 -79 -19t-79 -25q-64 -42 -137 -96t-119 -122q-6 -10 -9 -20t-9 -20q-10 -16 -22 -27 t-22 -27q-18 -30 -36 -66t-24 -66q-10 -40 -12 -86t-8 -92q-6 -56 -14 -109t-4 -99zM738 1792q-2 16 3 29t3 33q22 26 47 49t63 25q16 0 35 -7t36 -19t29 -28t14 -34q4 -34 -7 -65t-32 -53t-49 -32t-56 0q-10 4 -24 16t-27 27t-23 31t-12 28zM1187 1835q17 55 63 79 q28 14 62 9t54 -19q18 -12 34 -43t14 -55q0 -10 -5 -23t-11 -25t-11 -24t-13 -20q-10 -10 -41 -23t-59 -9q-22 4 -38 21t-38 25q-28 52 -11 107z" />
<glyph unicode="&#xd7;" horiz-adv-x="1196" d="M-66 280q6 10 25 23t29 23q50 48 111 95t123 92t123 92t111 95q-10 36 -25 69t-31 64t-30 64t-22 71q-8 20 -32 42t-40 48t-14 56t48 66q4 10 2 16t2 14q2 4 14 14t27 21t29 19t20 8q8 0 16 -9t15 -23t13 -28t12 -24q16 -24 22 -51t12 -49q4 -10 11 -22t7 -16 q2 -14 -4 -31t-2 -25t15 -12t19 -10q12 -10 18 -30t12 -41t14 -36t22 -15q16 0 41 27t43 43q32 26 69 52t75 52q16 14 33 28t37 28q18 12 38 22t36 22t29 28t27 26q12 10 37 22t41 22q10 8 22 21t22 15q16 4 33 -5t23 -13t14 -15t14 -26t8 -31t-4 -30q-6 -12 -24 -26 t-30 -24q-30 -20 -57 -37t-55 -39t-56 -42l-56 -40q-10 -2 -13 3t-13 3q-20 -6 -26 -36q-24 -28 -52 -51t-56 -45t-56 -45t-52 -53q16 -40 33 -82t35 -84q16 -38 34 -80t46 -72q16 -22 32 -38t24 -40q-16 -24 -10 -42t-4 -38q-14 -36 -44 -53t-68 -9q-18 10 -25 28t-19 34 q-6 4 -13 7t-11 9q-18 26 -22 57t-20 59q-10 18 -25 32t-25 30t-19 32t-25 32q4 6 1 10t-1 12q-16 8 -22 22t-20 24q-30 -22 -51 -43t-51 -45q-18 -14 -42 -19t-46 -19q-16 -14 -30 -42t-36 -44q-20 -18 -54 -39t-62 -43q-22 -16 -40 -34t-38 -32t-43 -21t-51 1q-4 4 -2 13 t0 15q-26 2 -46 23t-4 53z" />
<glyph unicode="&#xd8;" horiz-adv-x="1682" d="M-10 -64q2 -12 16 -21t18 -13q16 -16 24 -32t30 -16q14 0 42 20t44 30q46 28 77 62t65 68l184 218q40 62 93 113t109 103q24 22 47 45t33 57q18 14 42 23t42 23q4 12 8 26t10 24q12 20 40 30t44 26t28 36t28 38q46 58 98 120t110 112l230 220q16 14 31 32t33 36 q16 20 29 39t29 35t29 24t19 24q8 22 4 44t0 44q2 16 9 30t5 32q-2 10 -4 17t-6 17q-30 10 -54 -4t-44 -30q-38 -30 -65 -70t-61 -68q-24 -20 -46 -33t-44 -35l-134 -150q-16 -26 -39 -46t-41 -46q-16 -24 -32 -51t-38 -49q-10 -8 -19 -15t-19 -17q-42 -40 -85 -85t-83 -91 q-18 -20 -36 -36t-32 -34q-20 -34 -37 -65t-45 -55q-16 -16 -37 -27t-39 -25q-28 -22 -51 -50l-46 -56t-46 -55t-51 -49l-250 -234q-36 -34 -66 -73t-66 -77q-10 -10 -23 -27t-11 -33zM23 594q1 62 15 136q4 22 14 43t18 43q10 22 16 44t16 42q10 18 27 34t23 38t0 40t-2 42 q2 24 15 45t30 40t36 38t37 39q44 48 83 80t95 72q8 4 21 9t23 13q12 8 22 17t18 13q20 4 38 1t36 1q30 8 58 42t58 50q8 4 16 5t14 5q56 24 120 17t128 -11q48 -4 96 -7t90 -15q28 -8 54 -23t54 -19q48 -42 99 -79t87 -87q8 -10 12 -22t14 -22q16 -22 34 -48t24 -60 q6 -24 1 -51t-1 -55q4 -12 15 -19t15 -23q6 -28 -3 -56t-7 -64q2 -22 12 -37t12 -33q2 -28 -6 -55t-12 -53q-16 -82 -29 -140t-47 -118q-16 -28 -29 -58t-29 -54q-42 -64 -93 -117t-95 -107q-76 -34 -145 -66t-155 -60q-18 -6 -38 -14t-40 -14q-26 -6 -54 -8t-58 -6 q-20 -4 -39 -11t-41 -9q-22 -4 -42 2t-42 10q-16 4 -34 1t-34 -1q-10 2 -21 9t-23 13t-27 8t-27 6q-16 6 -30 15t-30 13q-12 4 -24 4t-22 4q-14 4 -25 17t-27 23t-33 16t-27 14q-28 20 -56 56t-50 76q-18 36 -44 74t-38 80q-6 24 -7 53t-5 59q-6 58 -5 120zM436 466 q2 -12 6 -25t6 -27q6 -52 12 -88t32 -68q10 -12 27 -21t31 -21q10 -10 15 -20t15 -18q66 -52 188 -52q38 26 89 46t85 56q12 14 27 37t31 45q30 54 59 111t57 115q26 58 45 123t41 131q8 22 25 48t17 44q0 14 -8 27t-10 23q-2 14 0 25t0 23t-5 22t-7 20q-4 18 -6 38t-2 38 q0 16 2 31t-2 31q-10 48 -41 83t-63 61q-10 8 -16 17t-16 13q-28 10 -60 6q-42 -4 -77 -19t-81 -25q-62 -42 -136 -96t-118 -122q-6 -10 -9 -20t-9 -20q-10 -16 -23 -27t-23 -27q-18 -30 -36 -66t-24 -66q-10 -40 -11 -86t-7 -92q-6 -56 -14 -109t-6 -99z" />
<glyph unicode="&#xd9;" horiz-adv-x="1474" d="M-10 354q4 44 6 84t16 90q8 34 12 69t9 67t17 60t36 48q22 62 29 121t17 117q6 32 20 63t24 59q10 24 16 47t16 45q4 16 12 27t12 23q16 42 25 82t31 80q20 0 45 7t50 16t51 14t50 3q14 -2 33 -10t34 -20t25 -27t8 -31q-4 -22 -24 -38t-28 -34q-4 -10 -2 -19t0 -19 q-4 -16 -12 -36t-14 -40q-24 -66 -47 -138t-41 -146q-10 -46 -18 -89t-24 -83q-10 -28 -25 -42t-25 -36q-14 -36 -12 -92t-6 -108q-10 -56 -18 -96t2 -82q4 -14 13 -24t17 -26q10 -26 17 -41t23 -19q12 -2 24 2t24 4q20 0 34 -5l28 -10t30 -8t40 1q18 4 38 12t36 16 q22 10 36 13t26 11q46 22 69 51t55 63q16 4 29 9t21 15q2 10 -6 24t-6 30q0 10 6 20t10 24q4 12 7 27t7 27t15 21t17 25q6 22 3 45t-1 47q0 28 10 53t20 59q8 30 10 62t10 60q4 16 13 28t15 26q12 28 20 60t16 62q10 30 19 60t13 58q4 22 5 41t5 41q4 18 13 33t15 33 q4 14 3 28t3 26q16 46 59 61t101 25q18 4 47 9t45 3q10 -2 17 -9t17 -9q20 -2 39 12t41 18q20 6 43 10t51 2q18 -4 37 -10t39 -10q30 -2 61 3t51 -13q-6 -22 -23 -34t-38 -19t-45 -12t-44 -13t-44 -25t-36 -33q-26 -34 -32 -78t-18 -84q-4 -22 -13 -42t-15 -42 q-16 -60 -42 -130t-36 -136q-4 -32 -7 -65t-11 -67l-10 -40t-12 -49t-14 -47t-14 -36q-6 -12 -16 -17t-16 -17q-10 -20 -12 -44t-8 -44q-8 -30 -13 -48t-10 -32t-13 -31t-24 -45q-6 -10 -25 -24t-29 -28q-10 -12 -18 -26t-18 -24q-18 -20 -56 -35t-62 -29q-22 -16 -46 -34 t-48 -28q-22 -10 -50 -16t-52 -14t-51 -16t-53 -10q-42 -4 -94 -10t-98 -2q-64 4 -109 -1t-95 9q-140 38 -214 143t-66 263zM656 1814q4 14 16 31t27 33t31 28t28 18q28 12 55 -4t41 -34q10 -10 13 -24t13 -24q16 -22 27 -30t27 -30q22 -30 37 -60t43 -52q-4 -22 -27 -43 t-39 -39q-38 -10 -61 -3t-38 22t-27 33t-26 34q-20 18 -36 30t-38 34q-10 8 -23 17t-24 19t-17 21t-2 23z" />
<glyph unicode="&#xda;" horiz-adv-x="1474" d="M-10 354q4 44 6 84t16 90q8 34 12 69t9 67t17 60t36 48q22 62 29 121t17 117q6 32 20 63t24 59q10 24 16 47t16 45q4 16 12 27t12 23q16 42 25 82t31 80q20 0 45 7t50 16t51 14t50 3q14 -2 33 -10t34 -20t25 -27t8 -31q-4 -22 -24 -38t-28 -34q-4 -10 -2 -19t0 -19 q-4 -16 -12 -36t-14 -40q-24 -66 -47 -138t-41 -146q-10 -46 -18 -89t-24 -83q-10 -28 -25 -42t-25 -36q-14 -36 -12 -92t-6 -108q-10 -56 -18 -96t2 -82q4 -14 13 -24t17 -26q10 -26 17 -41t23 -19q12 -2 24 2t24 4q20 0 34 -5l28 -10t30 -8t40 1q18 4 38 12t36 16 q22 10 36 13t26 11q46 22 69 51t55 63q16 4 29 9t21 15q2 10 -6 24t-6 30q0 10 6 20t10 24q4 12 7 27t7 27t15 21t17 25q6 22 3 45t-1 47q0 28 10 53t20 59q8 30 10 62t10 60q4 16 13 28t15 26q12 28 20 60t16 62q10 30 19 60t13 58q4 22 5 41t5 41q4 18 13 33t15 33 q4 14 3 28t3 26q16 46 59 61t101 25q18 4 47 9t45 3q10 -2 17 -9t17 -9q20 -2 39 12t41 18q20 6 43 10t51 2q18 -4 37 -10t39 -10q30 -2 61 3t51 -13q-6 -22 -23 -34t-38 -19t-45 -12t-44 -13t-44 -25t-36 -33q-26 -34 -32 -78t-18 -84q-4 -22 -13 -42t-15 -42 q-16 -60 -42 -130t-36 -136q-4 -32 -7 -65t-11 -67l-10 -40t-12 -49t-14 -47t-14 -36q-6 -12 -16 -17t-16 -17q-10 -20 -12 -44t-8 -44q-8 -30 -13 -48t-10 -32t-13 -31t-24 -45q-6 -10 -25 -24t-29 -28q-10 -12 -18 -26t-18 -24q-18 -20 -56 -35t-62 -29q-22 -16 -46 -34 t-48 -28q-22 -10 -50 -16t-52 -14t-51 -16t-53 -10q-42 -4 -94 -10t-98 -2q-64 4 -109 -1t-95 9q-140 38 -214 143t-66 263zM780 1646q40 22 71 52t69 60q28 22 44 30t42 30q16 10 27 24t25 24l27 18t32 16t32 8t25 -4q18 -10 34 -46t10 -64q-2 -12 -14 -23t-28 -21t-35 -19 t-33 -17q-32 -22 -55 -34t-53 -30q-24 -16 -45 -34t-45 -33t-50 -22t-58 3q-4 18 -17 39t-5 43z" />
<glyph unicode="&#xdb;" horiz-adv-x="1474" d="M-10 354q4 44 6 84t16 90q8 34 12 69t9 67t17 60t36 48q22 62 29 121t17 117q6 32 20 63t24 59q10 24 16 47t16 45q4 16 12 27t12 23q16 42 25 82t31 80q20 0 45 7t50 16t51 14t50 3q14 -2 33 -10t34 -20t25 -27t8 -31q-4 -22 -24 -38t-28 -34q-4 -10 -2 -19t0 -19 q-4 -16 -12 -36t-14 -40q-24 -66 -47 -138t-41 -146q-10 -46 -18 -89t-24 -83q-10 -28 -25 -42t-25 -36q-14 -36 -12 -92t-6 -108q-10 -56 -18 -96t2 -82q4 -14 13 -24t17 -26q10 -26 17 -41t23 -19q12 -2 24 2t24 4q20 0 34 -5l28 -10t30 -8t40 1q18 4 38 12t36 16 q22 10 36 13t26 11q46 22 69 51t55 63q16 4 29 9t21 15q2 10 -6 24t-6 30q0 10 6 20t10 24q4 12 7 27t7 27t15 21t17 25q6 22 3 45t-1 47q0 28 10 53t20 59q8 30 10 62t10 60q4 16 13 28t15 26q12 28 20 60t16 62q10 30 19 60t13 58q4 22 5 41t5 41q4 18 13 33t15 33 q4 14 3 28t3 26q16 46 59 61t101 25q18 4 47 9t45 3q10 -2 17 -9t17 -9q20 -2 39 12t41 18q20 6 43 10t51 2q18 -4 37 -10t39 -10q30 -2 61 3t51 -13q-6 -22 -23 -34t-38 -19t-45 -12t-44 -13t-44 -25t-36 -33q-26 -34 -32 -78t-18 -84q-4 -22 -13 -42t-15 -42 q-16 -60 -42 -130t-36 -136q-4 -32 -7 -65t-11 -67l-10 -40t-12 -49t-14 -47t-14 -36q-6 -12 -16 -17t-16 -17q-10 -20 -12 -44t-8 -44q-8 -30 -13 -48t-10 -32t-13 -31t-24 -45q-6 -10 -25 -24t-29 -28q-10 -12 -18 -26t-18 -24q-18 -20 -56 -35t-62 -29q-22 -16 -46 -34 t-48 -28q-22 -10 -50 -16t-52 -14t-51 -16t-53 -10q-42 -4 -94 -10t-98 -2q-64 4 -109 -1t-95 9q-140 38 -214 143t-66 263zM616 1630q-2 6 8 12t16 10q22 16 41 33t39 33q10 18 17 24t17 14l20 10t20 12q4 4 7 10t9 12q26 24 68 48t74 48q14 10 33 24t39 18q16 2 28 -1 t24 -5l20 -44t26 -42q10 -16 23 -31t19 -35q2 -6 0 -13t0 -15q4 -4 11 -9t11 -9q4 -16 7 -22t7 -12q6 -16 11 -34t7 -36q-18 -14 -46 -11t-36 13q-4 4 -7 10t-7 10l-20 20q-4 6 -6 12t-6 10t-14 7t-14 7q-12 18 -16 21t-8 7q-4 6 -5 13t-5 13q-10 16 -12 17t-12 17 q-14 -4 -22 -7t-14 -8l-12 -10t-18 -11q-4 -4 -11 -6t-11 -6q-14 -8 -24 -18t-20 -22q-14 -10 -27 -17t-25 -17q-24 -18 -42 -22t-40 -20q-8 -8 -36 -13t-48 -5q-12 0 -25 5t-13 11z" />
<glyph unicode="&#xdc;" horiz-adv-x="1474" d="M-10 354q4 44 6 84t16 90q8 34 12 69t9 67t17 60t36 48q22 62 29 121t17 117q6 32 20 63t24 59q10 24 16 47t16 45q4 16 12 27t12 23q16 42 25 82t31 80q20 0 45 7t50 16t51 14t50 3q14 -2 33 -10t34 -20t25 -27t8 -31q-4 -22 -24 -38t-28 -34q-4 -10 -2 -19t0 -19 q-4 -16 -12 -36t-14 -40q-24 -66 -47 -138t-41 -146q-10 -46 -18 -89t-24 -83q-10 -28 -25 -42t-25 -36q-14 -36 -12 -92t-6 -108q-10 -56 -18 -96t2 -82q4 -14 13 -24t17 -26q10 -26 17 -41t23 -19q12 -2 24 2t24 4q20 0 34 -5l28 -10t30 -8t40 1q18 4 38 12t36 16 q22 10 36 13t26 11q46 22 69 51t55 63q16 4 29 9t21 15q2 10 -6 24t-6 30q0 10 6 20t10 24q4 12 7 27t7 27t15 21t17 25q6 22 3 45t-1 47q0 28 10 53t20 59q8 30 10 62t10 60q4 16 13 28t15 26q12 28 20 60t16 62q10 30 19 60t13 58q4 22 5 41t5 41q4 18 13 33t15 33 q4 14 3 28t3 26q16 46 59 61t101 25q18 4 47 9t45 3q10 -2 17 -9t17 -9q20 -2 39 12t41 18q20 6 43 10t51 2q18 -4 37 -10t39 -10q30 -2 61 3t51 -13q-6 -22 -23 -34t-38 -19t-45 -12t-44 -13t-44 -25t-36 -33q-26 -34 -32 -78t-18 -84q-4 -22 -13 -42t-15 -42 q-16 -60 -42 -130t-36 -136q-4 -32 -7 -65t-11 -67l-10 -40t-12 -49t-14 -47t-14 -36q-6 -12 -16 -17t-16 -17q-10 -20 -12 -44t-8 -44q-8 -30 -13 -48t-10 -32t-13 -31t-24 -45q-6 -10 -25 -24t-29 -28q-10 -12 -18 -26t-18 -24q-18 -20 -56 -35t-62 -29q-22 -16 -46 -34 t-48 -28q-22 -10 -50 -16t-52 -14t-51 -16t-53 -10q-42 -4 -94 -10t-98 -2q-64 4 -109 -1t-95 9q-140 38 -214 143t-66 263zM578 1750q-2 16 3 29t3 33q22 26 47 49t63 25q16 0 35 -7t36 -19t29 -28t14 -34q4 -34 -7 -65t-32 -53t-49 -32t-56 0q-10 4 -24 16t-27 27t-23 31 t-12 28zM1027 1793q17 55 63 79q28 14 62 9t54 -19q18 -12 34 -43t14 -55q0 -10 -5 -23t-11 -25t-11 -24t-13 -20q-10 -10 -41 -23t-59 -9q-22 4 -38 21t-38 25q-28 52 -11 107z" />
</font>
</defs>
</svg>
