<?xml version="1.0" standalone="no"?>
<!DOCTYPE svg PUBLIC "-//W3C//DTD SVG 1.1//EN" "http://www.w3.org/Graphics/SVG/1.1/DTD/svg11.dtd" >
<svg xmlns="http://www.w3.org/2000/svg">
<metadata></metadata>
<defs>
<font id="ciclegordita_italic" horiz-adv-x="596" >
<font-face units-per-em="1000" ascent="800" descent="-200" />
<missing-glyph horiz-adv-x="257" />
<glyph horiz-adv-x="1000" />
<glyph horiz-adv-x="1000" />
<glyph unicode="&#xd;" horiz-adv-x="1000" />
<glyph unicode=" "  horiz-adv-x="257" />
<glyph unicode="&#x09;" horiz-adv-x="257" />
<glyph unicode="&#xa0;" horiz-adv-x="257" />
<glyph unicode="!" horiz-adv-x="176" d="M46 30q4 17 17 27.5t30 10.5q36 0 29 -37v-1q-3 -15 -16.5 -27t-28.5 -12q-17 0 -25.5 11.5t-5.5 27.5zM65 93l125 588h65l-125 -588h-65z" />
<glyph unicode="&#x22;" horiz-adv-x="217" d="M144 529l21 152h70h6h71l-8 -77l-69 -102l-21 27l8 57l-57 -84z" />
<glyph unicode="#" horiz-adv-x="714" d="M51 207l76 74h95q6 11 22.5 38.5t23.5 40.5q4 6 7.5 11.5t6.5 11.5h-194l74 73h160q12 20 34 56.5t27 44.5q8 14 25 41.5t23 37.5h75l-106 -180h191q81 139 107 180h76l-106 -180h122l-74 -73h-87q-8 -14 -29.5 -48t-32.5 -54h187l-77 -74h-152q-19 -33 -59 -103.5 t-59 -103.5h-78l120 207h-193q-48 -87 -74 -131q-7 -12 -22.5 -38.5t-21.5 -37.5h-77l120 207h-130zM299 281h193q8 15 26 47q11 16 33 55h-191z" />
<glyph unicode="$" horiz-adv-x="466" d="M40 98l67 46q35 -72 96 -79l52 241q-73 16 -107 67.5t-19 120.5q14 67 71.5 118t133.5 67l9 45h72l-8 -40q94 -6 150 -90l-67 -46q-38 58 -98 65l-53 -248q72 -18 107.5 -68.5t20.5 -118.5q-14 -65 -73.5 -116.5t-133.5 -66.5l-12 -57h-72l12 55q-50 6 -89 34t-59 71z M204 497q-8 -38 10 -70t57 -45l47 224q-43 -13 -74.5 -42.5t-39.5 -66.5zM276 68q43 9 75.5 38t41.5 69q8 39 -11.5 72.5t-57.5 46.5z" />
<glyph unicode="&#x26;" horiz-adv-x="597" d="M73 193q11 55 63.5 106.5t134.5 88.5l2 0.5t3 0.5q-1 1 0 2q0 1 -1 2q-36 50 -44 81.5t-1 63.5q13 58 67.5 102.5t125.5 44.5q67 0 101 -41.5t22 -99.5q-19 -91 -160 -160l-3 -2q10 -16 27 -46.5t26 -46.5q26 -44 39 -67q1 2 4 5q28 40 51 91l77 -16q-58 -104 -92 -144 q0 -2 -2 -6l-2 -4q15 -37 47 -70l-18 -84q-51 38 -79 84q-4 8 -5 9l-3 6l-5 -4q-101 -90 -207 -89q-89 0 -137 57t-31 136zM156 198q-6 -24 -1 -47t17 -42t34 -30.5t49 -11.5q38 -1 82 22t77 59l2 2q-9 15 -21 37t-23.5 42t-21.5 36q-9 16 -24 40.5t-21 35.5l-3 -2 q-69 -35 -103.5 -69t-42.5 -72zM309 546q-6 -37 16 -71l30 -45l1 1h1q56 29 80 53.5t31 58.5t-10.5 57.5t-52.5 23.5q-21 0 -41.5 -10.5t-35.5 -28.5t-19 -39z" />
<glyph unicode="'" horiz-adv-x="121" d="M117 534l49 70l6 71l78 6l-8 -80l-105 -92z" />
<glyph unicode="(" horiz-adv-x="260" d="M93 287q27 128 85.5 239.5t127.5 171.5l14 -78q-46 -45 -87 -135t-63 -198q-25 -120 -19 -214t40 -134l-57 -67q-46 57 -57.5 167.5t16.5 247.5z" />
<glyph unicode=")" horiz-adv-x="246" d="M26 -60q51 40 97 134.5t71 212.5q23 108 20.5 198.5t-30.5 134.5l46 78q44 -61 56 -171t-14 -240q-29 -133 -89 -245t-129 -169z" />
<glyph unicode="*" horiz-adv-x="471" d="M160 506l15 71h91l-51 65l62 51l50 -64l20 91h71l-20 -91l79 64l40 -50l-78 -65h91l-15 -72h-93q1 -2 18 -21l34 -44l-60 -50l-52 66l-20 -94h-71l19 92q-8 -7 -25 -20.5t-30.5 -24.5t-21.5 -19l-42 50l80 65h-91z" />
<glyph unicode="+" horiz-adv-x="452" d="M98 256l15 72h141l30 142h72l-30 -142h142l-15 -72h-142l-30 -142h-72l30 142h-141z" />
<glyph unicode="," horiz-adv-x="173" d="M11 -42l52 63l15 72h77l-18 -84l-113 -83z" />
<glyph unicode="-" horiz-adv-x="421" d="M84 256l15 72h356l-15 -72h-356z" />
<glyph unicode="." horiz-adv-x="145" d="M26 0l19 93h93l-19 -93h-93z" />
<glyph unicode="/" horiz-adv-x="378" d="M26 0l393 681h76l-393 -681h-76z" />
<glyph unicode="0" horiz-adv-x="586" d="M104 338q31 144 127.5 245.5t201.5 101.5t157 -101.5t21 -245.5q-30 -143 -125 -245t-200 -102q-104 0 -158 102.5t-24 244.5zM177 338q-24 -114 12 -194t112 -80t145.5 80t93.5 194q25 114 -10.5 194t-111.5 80t-146 -80t-95 -194z" />
<glyph unicode="1" horiz-adv-x="263" d="M135 568l160 113h61l-144 -681h-72l123 579q-14 -10 -39.5 -27.5t-35.5 -24.5q-5 -1 -12 -9z" />
<glyph unicode="2" horiz-adv-x="475" d="M45 0l13 62l343 310q45 40 57 96q13 61 -21.5 102.5t-96.5 41.5q-60 0 -125 -52l-41 52q99 73 181 73q91 0 142 -64t32 -153q-17 -81 -90 -147l-273 -250h279l-15 -71h-385z" />
<glyph unicode="3" horiz-adv-x="431" d="M24 72l60 50q44 -61 112 -61q59 0 109 37.5t60 89.5q9 41 -23.5 76.5t-81.5 46.5h-101l15 72h103q56 3 101.5 36.5t54.5 77.5q10 48 -24 82t-92 34q-76 0 -141 -60l-38 53q90 79 194 79q89 0 140.5 -55t35.5 -133q-9 -46 -43.5 -86t-82.5 -66q77 -60 55 -157 q-17 -83 -92 -141t-164 -58q-50 0 -91 22.5t-66 60.5z" />
<glyph unicode="4" horiz-adv-x="473" d="M76 238l15 61l306 387l56 -34l-271 -342h147l31 144h73l-31 -144h92l-15 -72h-92l-50 -238h-73l50 238h-238z" />
<glyph unicode="5" horiz-adv-x="504" d="M78 110l63 52q16 -42 46.5 -66.5t68.5 -24.5q63 0 118.5 52.5t71.5 126.5q15 73 -18.5 124.5t-96.5 51.5q-43 0 -85.5 -26t-71.5 -70h-67l99 351h377l-15 -73h-308q-15 -45 -22 -67q-17 -59 -25 -83q62 39 133 39q94 0 144 -72t28 -175q-23 -104 -103.5 -177t-173.5 -73 q-54 0 -97.5 29.5t-65.5 80.5z" />
<glyph unicode="6" horiz-adv-x="506" d="M88 197q5 39 24 131l4 20q22 98 47 156q30 76 99.5 128t147.5 53q115 0 170 -103l-77 -40q-16 32 -44.5 51.5t-62.5 19.5q-52 0 -101 -36.5t-69 -90.5q-23 -59 -40 -132q66 56 153 61q88 0 139.5 -58.5t33.5 -146.5l-2 -9q-19 -88 -93 -148.5t-163 -60.5q-85 0 -132.5 59 t-32.5 147zM160 199q-12 -56 21 -96t90 -40q58 0 107.5 40t61.5 97q15 59 -18.5 101t-93.5 42q-58 0 -107 -42.5t-61 -101.5z" />
<glyph unicode="7" horiz-adv-x="443" d="M23 0l413 608h-253l15 73h369l-462 -681h-82z" />
<glyph unicode="8" horiz-adv-x="459" d="M62 196q11 51 45.5 96t81.5 74q-58 49 -39 140q16 73 81 126t139 53q78 0 120.5 -52.5t26.5 -126.5q-18 -89 -99 -140q37 -27 50.5 -71.5t2.5 -98.5q-18 -85 -90 -145t-158 -60q-83 0 -131 60.5t-30 144.5zM135 196q-11 -54 19.5 -93t83.5 -39q55 0 103 39t59 93 q12 55 -19 94t-87 39q-53 0 -100 -39t-59 -94zM221 506q-9 -44 17 -75t72 -31q47 0 86 31t48 75q10 44 -16 75t-73 31q-46 0 -85 -31t-49 -75z" />
<glyph unicode="9" horiz-adv-x="489" d="M61 89l76 53q16 -35 44 -55t62 -20q55 0 102.5 35t71.5 88q25 80 38 133q-75 -58 -161 -58q-84 0 -133.5 59t-32.5 144q15 89 91.5 153t165.5 64q84 0 132 -61t37 -146q-5 -39 -25 -133l-5 -25q-21 -92 -44 -146q-31 -80 -104.5 -130.5t-155.5 -50.5q-49 0 -91.5 26 t-67.5 70zM197 470q-8 -56 24 -95t88 -39q59 0 109 40.5t63 99.5q11 55 -22 95.5t-88 40.5q-59 0 -110 -42t-64 -100z" />
<glyph unicode=":" horiz-adv-x="182" d="M44 0l19 93h93l-19 -93h-93zM130 409l20 92h93l-20 -92h-93z" />
<glyph unicode=";" horiz-adv-x="169" d="M0 -42l53 63l15 72h78l-18 -84l-115 -83zM130 409l20 92h91l-20 -92h-91z" />
<glyph unicode="&#x3c;" horiz-adv-x="330" d="M62 249l304 253l42 -50l-245 -203q8 -10 33.5 -42.5t40.5 -50.5q14 -19 44 -55.5t41 -50.5l-62 -52z" />
<glyph unicode="=" horiz-adv-x="440" d="M96 188l16 73h346l-16 -73h-346zM135 369l16 74h346l-16 -74h-346z" />
<glyph unicode="&#x3e;" horiz-adv-x="336" d="M30 50l243 199q-5 7 -32 40.5t-42 53.5q-72 93 -83 109l61 50l197 -253l-304 -251z" />
<glyph unicode="?" horiz-adv-x="410" d="M146 586q39 45 86.5 72t95.5 27q51 0 88.5 -26t53 -71t4.5 -97q-17 -77 -82.5 -133.5t-142.5 -56.5h-29q5 -46 13.5 -150.5t13.5 -150.5h-78l-22 312l13 60h105q48 2 88.5 36t50.5 83q11 50 -16 86t-75 36q-64 0 -127 -78zM168 -74q4 18 18.5 29.5t30.5 11.5q19 0 28 -11 t5 -30q-4 -18 -18.5 -31t-32.5 -13q-16 0 -25.5 13.5t-5.5 30.5z" />
<glyph unicode="@" horiz-adv-x="754" d="M110 322q34 156 151 259.5t271 103.5q60 0 110 -19t84 -55t48 -88t0 -118q-20 -95 -96 -178t-164 -95q-53 3 -69 21q-44 -24 -82 -24q-57 0 -87.5 40.5t-18.5 98.5q13 58 61.5 97.5t106.5 39.5h59q13 72 -13 72q-35 0 -63 -9l-22 -1l-3 74l24 1q32 10 81 10 q86 -3 69 -144q-18 -74 -32 -142q-1 -8 -6 -23q-14 -37 15 -37q19 0 53.5 25t57.5 59q14 19 28.5 55t20.5 61q18 82 -33 140t-149 58q-113 0 -204.5 -79t-117.5 -197q-25 -116 33 -181t187 -65q77 0 142.5 28.5t105.5 74.5h92l-21 -32q-49 -64 -138 -108t-197 -44 q-160 0 -238.5 83.5t-45.5 237.5zM322 268q-6 -28 10.5 -48t45.5 -20q28 0 52 20t30 48l15 67h-65q-30 0 -55.5 -19t-32.5 -48z" />
<glyph unicode="A" d="M15 0l401 691h55l109 -691h-76l-43 273h-210q-59 -99 -104 -177q-50 -84 -57 -96h-75zM292 346h157q-2 17 -8 52.5t-8 48.5q-13 72 -18 109q-29 -45 -47 -80l-1 -1q-15 -26 -75 -129z" />
<glyph unicode="B" horiz-adv-x="512" d="M42 0l146 691h226q79 -1 123.5 -54t29.5 -124q-19 -91 -107 -146q35 -27 50 -71t5 -93q-17 -82 -88.5 -141t-157.5 -60l-18 -2h-209zM129 73h154q55 3 101.5 41t57.5 89q11 50 -20 87.5t-85 39.5h-153zM199 403h154q51 2 91.5 33t50.5 77q8 42 -20 73t-77 34h-153z" />
<glyph unicode="C" horiz-adv-x="590" d="M92 345q30 141 144.5 245.5t245.5 104.5q61 0 114.5 -29t89.5 -79l-61 -50q-64 85 -158 85q-100 0 -188 -81t-113 -196q-24 -116 27.5 -198t154.5 -82q91 0 193 84l40 -50q-126 -108 -248 -108q-126 0 -199 105t-42 249z" />
<glyph unicode="D" horiz-adv-x="575" d="M26 0l146 691h260q67 -1 114.5 -48t62 -123t-3.5 -173q-30 -142 -121.5 -242.5t-195.5 -104.5h-262zM114 73q60 0 91 1q17 0 49.5 0.5t48.5 0.5q71 2 138.5 81.5t90.5 190.5q24 111 -10 190t-105 81h-187z" />
<glyph unicode="E" horiz-adv-x="485" d="M33 0l146 691h412l-15 -71h-340l-46 -217h290l-15 -73h-290l-55 -257h340l-15 -73h-412z" />
<glyph unicode="F" horiz-adv-x="487" d="M37 0l146 691h412l-15 -70h-340l-46 -218h290l-15 -73h-290l-70 -330h-72z" />
<glyph unicode="G" horiz-adv-x="604" d="M88 342q31 146 146 249.5t246 103.5q126 0 205 -108l-62 -51q-63 85 -159 85q-102 0 -190.5 -81t-113.5 -198q-24 -115 30.5 -197.5t155.5 -82.5q81 0 160 59l35 165h-181l15 71h254l-55 -259l-4 -10q-114 -97 -239 -97q-131 0 -202.5 103.5t-40.5 247.5z" />
<glyph unicode="H" horiz-adv-x="558" d="M38 0l146 691h73l-61 -288h330l61 288h72l-146 -691h-72l70 330h-330l-70 -330h-73z" />
<glyph unicode="I" horiz-adv-x="138" d="M33 0l146 691h73l-146 -691h-73z" />
<glyph unicode="J" horiz-adv-x="305" d="M24 48l58 50q25 -34 45 -34q27 0 53 31.5t36 79.5l109 516h74l-109 -514q-16 -75 -69 -130.5t-109 -55.5q-50 0 -88 57z" />
<glyph unicode="K" horiz-adv-x="583" d="M33 0l146 691h73l-69 -328q160 148 352 328h98l-324 -303q45 -71 139 -215.5t112 -172.5h-96l-216 333q-26 -26 -41 -39q-23 -23 -49 -46l-52 -248h-73z" />
<glyph unicode="L" horiz-adv-x="453" d="M32 0l146 691h72l-131 -618h322l-15 -73h-394z" />
<glyph unicode="M" horiz-adv-x="623" d="M24 0l146 691h66l135 -351l278 351h67l-146 -691h-74l113 536q-167 -209 -240 -303h-45l-114 303l-113 -536h-73z" />
<glyph unicode="N" horiz-adv-x="537" d="M36 0l146 691h65l202 -533l113 533h73l-146 -691h-66l-202 536l-113 -536h-72z" />
<glyph unicode="O" horiz-adv-x="690" d="M93 345q31 145 145 247.5t245 102.5q135 0 203.5 -101.5t37.5 -248.5q-33 -154 -151 -257q-110 -97 -239 -97t-201 102.5t-40 251.5zM167 345q-25 -117 28 -198.5t154 -81.5q104 0 191.5 81.5t112.5 198.5q26 126 -35 203q-50 73 -151 73t-188 -80.5t-112 -195.5z" />
<glyph unicode="P" horiz-adv-x="480" d="M41 0l146 691h205q84 0 132.5 -52.5t33.5 -125.5q-16 -77 -87 -130.5t-156 -53.5h-133l-69 -329h-72zM198 402h133q54 0 99 32t55 79q9 43 -23.5 75t-85.5 32h-132z" />
<glyph unicode="Q" horiz-adv-x="665" d="M106 367q29 138 135.5 233t225.5 95q121 0 188 -95.5t38 -232.5q-30 -138 -144 -236q-73 -65 -164 -84q0 -41 16 -41q12 0 32 32l44 -48q-52 -54 -91 -54q-32 0 -51.5 30.5t-19.5 75.5q-112 10 -174.5 103t-34.5 222zM175 367q-19 -87 11 -156t96 -93l13 65 q41 1 67 -18.5t31 -50.5q78 22 144 93t85 160q23 116 -33 191q-50 70 -136 70q-92 0 -174 -76.5t-104 -184.5z" />
<glyph unicode="R" horiz-adv-x="474" d="M32 0l146 691h205q85 0 133 -52t32 -127q-16 -76 -86 -129t-155 -53h-58q67 -103 97 -146q15 -24 124 -184h-95l-206 303l-64 -303h-73zM190 403h132q54 0 98.5 31.5t54.5 77.5q10 44 -22 76.5t-87 32.5h-130z" />
<glyph unicode="S" horiz-adv-x="485" d="M50 100l67 46q35 -82 128 -82q56 0 103.5 33.5t57.5 80.5q10 45 -20.5 82t-84.5 45q-83 12 -130.5 68t-31.5 129q18 82 93 137t166 55q113 0 176 -90l-70 -48q-40 68 -121 68q-57 0 -108 -35t-61 -83q-11 -49 21 -87t89 -42q83 -10 128.5 -66.5t29.5 -129.5 q-17 -79 -91 -134.5t-163 -55.5q-61 0 -108.5 30t-69.5 79z" />
<glyph unicode="T" horiz-adv-x="575" d="M162 620l15 71h503l-15 -71h-214l-131 -620h-73l131 620h-216z" />
<glyph unicode="U" horiz-adv-x="598" d="M70 180l108 511h76l-108 -509q-2 -47 44.5 -82t117.5 -35q68 0 128.5 35t77.5 82l108 509h73l-108 -510q-20 -77 -106.5 -133.5t-187.5 -56.5q-106 0 -170 55.5t-53 133.5z" />
<glyph unicode="V" horiz-adv-x="639" d="M173 691h75l91 -569q48 84 161 276t170 293h76l-401 -691h-64z" />
<glyph unicode="W" horiz-adv-x="915" d="M179 691h75l91 -570q27 45 62 108v-1q13 22 37.5 64t36.5 64q-5 28 -13 81.5t-12 77.5q-17 119 -27 176h75l43 -273q4 -29 13 -78.5t12 -68.5q8 -47 23 -150q24 40 66.5 113.5t59.5 103.5q30 52 100 172t105 181h77l-401 -691h-65l-40 251q-14 -23 -64 -111 q-27 -47 -80 -140h-65z" />
<glyph unicode="X" horiz-adv-x="541" d="M14 0l281 353l-126 338h84l104 -270q36 46 109 136t108 134h85l-274 -344q108 -295 128 -347h-85l-107 280q-9 -12 -58.5 -74t-75.5 -94q-11 -14 -42.5 -53t-46.5 -59h-84z" />
<glyph unicode="Y" horiz-adv-x="681" d="M156 691h95l160 -310q53 55 153.5 160.5t142.5 149.5h94l-367 -382l-65 -309h-74l65 309q-125 235 -204 382z" />
<glyph unicode="Z" horiz-adv-x="548" d="M11 0l516 618h-345l15 73h474l-514 -618h337l-15 -73h-468z" />
<glyph unicode="[" horiz-adv-x="210" d="M93 313l15 72h36q10 0 19.5 7.5t11.5 18.5l46 219q9 22 37.5 36.5t61.5 14.5l-15 -74q-3 0 -7.5 -0.5t-6.5 -1t-3 0.5l-44 -208q-23 -40 -50 -44l-2 -10q29 -10 32 -39l-49 -234h16l-15 -71q-29 0 -55 17.5t-21 43.5l49 226q2 11 -4 18.5t-16 7.5h-36z" />
<glyph unicode="\" horiz-adv-x="371" d="M170 681h75l106 -681h-77z" />
<glyph unicode="]" horiz-adv-x="183" d="M14 0l15 71h18l49 232q16 36 47 42q1 4 3 10q-30 12 -30 41l45 211h-18l15 74q36 0 57 -14.5t21 -36.5l1 -8l-45 -211q-5 -26 16 -26h36l-15 -72h-36q-22 0 -27 -26l-49 -226q-5 -26 -37.5 -43.5t-65.5 -17.5z" />
<glyph unicode="^" horiz-adv-x="551" d="M107 437l308 250l197 -251l-63 -51l-157 201q-42 -34 -114 -94q-44 -36 -131 -107z" />
<glyph unicode="_" horiz-adv-x="513" d="M30 0l15 71h428l-15 -71h-428z" />
<glyph unicode="`" horiz-adv-x="204" d="M121 632h117l61 -113h-58z" />
<glyph unicode="a" horiz-adv-x="406" d="M60 148q15 69 75.5 114.5t131.5 45.5h91l1 3q11 51 -5 87t-53 37q-55 0 -124 -19l-3 70q79 21 143 21q62 -1 96 -52t22 -124l-2 -10q-19 -81 -36 -158q-27 -133 -6 -163h-98l4 19q-52 -29 -104 -29q-68 0 -107.5 46.5t-25.5 111.5zM132 148q-7 -35 15.5 -59.5t61.5 -24.5 q41 0 74.5 24.5t40.5 59.5l19 88h-91q-42 0 -77 -24.5t-43 -63.5z" />
<glyph unicode="b" horiz-adv-x="523" d="M26 0q12 13 23.5 39t16.5 45l6 20l122 577h72l-42 -197q58 23 128 23q100 0 154.5 -76t32.5 -181q-22 -106 -109.5 -182t-188.5 -78q-78 5 -119 25l-3 -15h-93zM141 104q-2 -11 13 -20t42.5 -14.5t61.5 -6.5q69 2 131 56.5t78 130.5q16 75 -22.5 130t-107.5 55 q-46 0 -85 -10.5t-49 -25.5z" />
<glyph unicode="c" horiz-adv-x="478" d="M66 249q23 106 110 182t185 76q102 0 165 -90l-63 -53q-45 71 -117 71q-70 0 -131.5 -54.5t-77.5 -131.5t22 -131t108 -54t143 67l43 -51q-105 -89 -201 -89q-98 0 -153 76.5t-33 181.5z" />
<glyph unicode="d" horiz-adv-x="534" d="M95 253q22 105 109 179t186 75q77 0 117 -24l42 198h72l-122 -575q-16 -74 14 -103h-108l3 15q-54 -20 -126 -25q-99 2 -154 78t-33 182zM165 253q-16 -76 22 -131t110 -57q51 2 89 14.5t41 26.5l62 291q-3 15 -35.5 26.5t-78.5 11.5q-72 -2 -133 -55.5t-77 -126.5z" />
<glyph unicode="e" horiz-adv-x="456" d="M67 231l4 19q22 106 98.5 182t159.5 76q85 0 127.5 -73t19.5 -180l-9 -39h-329q-6 -66 24 -109t84 -44q48 0 137 39l15 -63q-69 -34 -141 -47q-8 -1 -26 -1q-84 0 -132 70t-32 170zM155 286h255q6 65 -21 107t-75 42q-45 0 -90 -43t-69 -106z" />
<glyph unicode="f" horiz-adv-x="328" d="M96 0l88 418h-71l16 73h70v6l3 13q19 71 75 123t115 52q28 0 66 -5l-37 -73q-24 6 -44 6q-35 -2 -65.5 -34.5t-40.5 -79.5l-2 -8h123l-16 -73h-123l-88 -418h-69z" />
<glyph unicode="g" horiz-adv-x="551" d="M20 -21q9 41 42 78t79 59q-2 10 4 36q4 22 22 48q-51 49 -35 129q16 73 86 125.5t154 52.5q32 0 74 -10h194l-83 -72h-29q21 -47 10 -96q-16 -75 -86 -126t-155 -51q-23 0 -47 6q-17 5 -27 5q-14 0 -17 -9q-2 -14 14 -14h5q1 0 2.5 0.5t2.5 0.5h2q8 2 27 2q86 0 135 -48 t35 -116q-14 -69 -84 -118t-156 -49q-83 0 -133 49.5t-36 117.5zM91 -21q-8 -39 25 -68t87 -29q57 0 103 29t54 68t-26 67.5t-90 28.5q-54 0 -99.5 -29t-53.5 -67zM203 329q-9 -44 23 -75.5t86 -31.5q57 0 102 31t54 76q10 45 -22 76.5t-89 31.5q-54 0 -99 -31.5t-55 -76.5z " />
<glyph unicode="h" horiz-adv-x="455" d="M35 0l145 683h71l-47 -219q57 44 124 44q72 0 110.5 -54.5t23.5 -132.5l-65 -318h-71l68 318q8 49 -17.5 82.5t-69.5 33.5q-35 0 -73 -31t-58 -73l-70 -333h-71z" />
<glyph unicode="i" horiz-adv-x="177" d="M49 0l106 501h70l-106 -501h-70zM174 626q3 17 18 29t33 12q17 0 28 -12.5t8 -28.5q-4 -17 -20 -29.5t-33 -12.5q-18 0 -28 12.5t-6 29.5z" />
<glyph unicode="j" horiz-adv-x="354" d="M-2 -182l20 69q27 0 41 -2q3 -1 4 -1l2 3q39 0 72 32t43 77l107 506h71l-109 -515q-19 -71 -73 -121t-117 -52q-12 0 -28.5 2t-32.5 2zM304 621q10 41 52 41q15 0 25 -11.5t6 -29.5q-3 -16 -18 -29t-30 -13q-19 0 -28.5 12.5t-6.5 29.5z" />
<glyph unicode="k" horiz-adv-x="440" d="M21 0q34 29 40 59l132 622h72l-67 -318q177 128 183 133h113l-197 -139q7 -20 21.5 -58.5t16.5 -43.5q6 -16 40.5 -113t51.5 -142h-85l-111 309q-6 -4 -24 -18t-29 -21l-57 -270h-100z" />
<glyph unicode="l" horiz-adv-x="162" d="M49 0l144 681h71l-144 -681h-71z" />
<glyph unicode="m" horiz-adv-x="739" d="M34 0l93 440q3 12 -2 32.5t-13 28.5h100l-8 -39q54 44 121 44q93 0 128 -83q33 43 76.5 64t86.5 21q71 0 109.5 -54t24.5 -133l-66 -319h-72l68 319q8 48 -15.5 81.5t-67.5 33.5q-38 0 -76 -31t-56 -72l-70 -331h-72l67 317q10 49 -14.5 82t-69.5 33q-36 0 -73.5 -31 t-56.5 -72l-70 -331h-72z" />
<glyph unicode="n" horiz-adv-x="433" d="M28 0l93 442q3 12 -2.5 29t-13.5 26h99l-7 -32q54 44 125 44t109.5 -54.5t24.5 -133.5l-66 -321h-72l68 321q10 48 -15 82t-70 34q-37 0 -74.5 -31t-57.5 -73l-70 -333h-71z" />
<glyph unicode="o" horiz-adv-x="513" d="M65 248q23 107 108.5 183t182.5 76q98 0 150.5 -76t29.5 -183q-23 -106 -107.5 -182t-182.5 -76q-97 0 -150.5 76t-30.5 182zM138 248q-16 -77 20.5 -131t103.5 -54t126 54.5t75 130.5q16 77 -19.5 132t-102.5 55t-126.5 -55t-76.5 -132z" />
<glyph unicode="p" horiz-adv-x="506" d="M-8 -183l122 582q13 71 -8 101h101l-4 -16q70 26 130 26q100 -2 155 -77.5t32 -179.5q-23 -109 -109.5 -185t-187.5 -76q-72 0 -118 24l-42 -199h-71zM122 102q2 -14 35.5 -25t80.5 -13q72 2 133.5 56.5t77.5 132.5q16 76 -22.5 130t-109.5 54q-50 0 -89 -11.5t-43 -26.5 z" />
<glyph unicode="q" horiz-adv-x="513" d="M82 258q22 102 106.5 175.5t179.5 73.5q74 0 116 -21l2 10h71l-144 -679h-71l46 217q-51 -24 -125 -24q-95 2 -149 74.5t-32 173.5zM152 258q-15 -73 21.5 -125t103.5 -54q46 0 82.5 11t45.5 27l60 282q2 10 -12 18.5t-41 14t-59 5.5q-68 0 -126.5 -52.5t-74.5 -126.5z " />
<glyph unicode="r" horiz-adv-x="279" d="M31 0l93 440q3 14 -5 31.5t-25 30.5h115l-8 -39q55 44 122 44q21 0 41 -9l-33 -70q-20 7 -28 7q-37 0 -74.5 -31t-55.5 -73l-70 -331h-72z" />
<glyph unicode="s" horiz-adv-x="417" d="M50 72l63 42q40 -50 103 -50q42 0 75.5 19t40.5 49q5 25 -21 50.5t-64 36.5q-63 11 -101.5 56t-28.5 96q13 59 71.5 97t130.5 38q46 0 87.5 -21t67.5 -55l-67 -42q-40 46 -107 46q-41 0 -72.5 -18t-37.5 -46t18 -52t67 -31q66 -10 102.5 -55t25.5 -100 q-13 -61 -71 -100.5t-128 -39.5q-46 0 -89 21.5t-65 58.5z" />
<glyph unicode="t" horiz-adv-x="340" d="M109 0l89 422h-71l16 73h69l39 186h73l-39 -186h126l-16 -73h-126l-89 -422h-71z" />
<glyph unicode="u" horiz-adv-x="450" d="M73 178l69 321h71l-67 -314v-5q-8 -47 16.5 -81t68.5 -34q37 0 74.5 31.5t54.5 72.5l71 332h72l-93 -439q-4 -14 1.5 -33t13.5 -29h-100l7 36q-59 -45 -123 -45q-70 0 -108.5 53.5t-24.5 130.5z" />
<glyph unicode="v" horiz-adv-x="500" d="M113 501h76l77 -387q74 122 169 276q7 11 32 52t37 59h79l-311 -501h-63z" />
<glyph unicode="w" horiz-adv-x="705" d="M111 501h77l75 -384q50 77 87 139q-5 32 -14 77.5t-17.5 89.5t-13.5 78h80l72 -386q120 193 238 386h79l-311 -501l-63 3l-29 157q-26 -39 -102 -160l-61 3z" />
<glyph unicode="x" horiz-adv-x="444" d="M8 0l213 260l-102 241h87l73 -178q17 21 51 60t47 54q11 11 31 34.5t25 29.5h86l-210 -249q41 -100 61 -149q5 -11 20.5 -49t22.5 -54h-85l-80 188q-6 -6 -16.5 -19.5t-17.5 -21.5h1q-18 -23 -59.5 -72.5t-61.5 -74.5h-86z" />
<glyph unicode="y" horiz-adv-x="535" d="M1 -180l29 83q15 -20 39 -20q30 0 61 20.5t53 56.5q7 12 28 46q4 6 12 19.5t13 21.5q-10 57 -12 69l-36 184.5t-41 206.5h77l68 -368q15 24 97.5 160.5t126.5 207.5h77l-286 -464q-4 -7 -13 -22t-14 -22q-5 -10 -19 -32t-20 -33q-33 -56 -86 -89t-102 -33q-23 0 -52 8z " />
<glyph unicode="z" horiz-adv-x="452" d="M34 0l13 63l354 366h-273l15 72h374l-13 -62l-354 -367h276l-15 -72h-377z" />
<glyph unicode="{" horiz-adv-x="223" d="M93 313l15 72h36q10 0 19.5 7.5t11.5 18.5l46 219q9 22 37.5 36.5t61.5 14.5l-15 -74q-3 0 -7.5 -0.5t-6.5 -1t-3 0.5l-44 -208q-23 -40 -50 -44l-2 -10q29 -10 32 -39l-49 -234h16l-15 -71q-29 0 -55 17.5t-21 43.5l49 226q2 11 -4 18.5t-16 7.5h-36z" />
<glyph unicode="|" horiz-adv-x="131" d="M40 1l149 704h57l-149 -704h-57z" />
<glyph unicode="}" horiz-adv-x="188" d="M14 0l15 71h18l49 232q16 36 47 42q1 4 3 10q-30 12 -30 41l45 211h-18l15 74q36 0 57 -14.5t21 -36.5l1 -8l-45 -211q-5 -26 16 -26h36l-15 -72h-36q-22 0 -27 -26l-49 -226q-5 -26 -37.5 -43.5t-65.5 -17.5z" />
<glyph unicode="~" horiz-adv-x="347" d="M84 322q56 34 114 34q16 0 49 -11l-1 1h4l3 -1q24 -8 34 -8q43 0 87 30l13 -60q-56 -34 -110 -34q-39 0 -63 15q-16 4 -28 4q-42 0 -84 -30z" />
<glyph unicode="&#xa1;" horiz-adv-x="160" d="M46 0l124 584h65l-124 -584h-65zM177 644l1 2q3 16 16 27.5t30 11.5q15 0 24 -12t6 -27q-4 -16 -17.5 -27.5t-28.5 -11.5q-37 0 -31 37z" />
<glyph unicode="&#xa2;" horiz-adv-x="478" d="M66 249q21 96 94.5 168.5t162.5 85.5l14 66h76l-14 -66q74 -13 127 -86l-63 -53q-31 54 -79 66l-77 -363q51 15 105 63l41 -50q-86 -75 -162 -86l-13 -64h-76l13 65q-80 18 -124 90.5t-25 163.5zM137 249q-14 -66 12.5 -117.5t81.5 -64.5l77 363q-61 -13 -109 -64 t-62 -117z" />
<glyph unicode="&#xa3;" horiz-adv-x="556" d="M75 282l16 72h113l69 327h72l-69 -327h171l-16 -72h-171l-44 -211h316l-15 -71h-388l59 282h-113z" />
<glyph unicode="&#xa5;" horiz-adv-x="681" d="M156 681h94l157 -306q48 50 145.5 152.5t146.5 153.5h93l-361 -377l-3 -15h137l-16 -73h-137v-4h137l-16 -73h-137l-29 -139h-74l29 139h-137l16 73h137v4h-137l16 73h137l3 15q-31 59 -100 187.5t-101 189.5z" />
<glyph unicode="&#xa6;" horiz-adv-x="131" d="M40 1l75 354h57l-75 -354h-57zM121 385l68 320h57l-68 -320h-57z" />
<glyph unicode="&#xa7;" horiz-adv-x="356" d="M37 23l45 61q42 -21 75 -21q56 0 80 35q-17 -3 -37 -3q-51 0 -104 30l45 64q42 -22 76 -22q14 0 26 3q-12 26 -51 49q-74 42 -84.5 120t55.5 125l4 17q12 57 60.5 90.5t110.5 33.5q48 0 105 -28l-45 -68q-43 25 -77 25q-52 0 -76 -35q10 2 34 2q44 0 107 -29l-45 -66 q-45 24 -79 24q-4 0 -8 1t-7 -1q14 -27 48 -46h-1q48 -25 70 -68.5t12 -89.5q-12 -51 -55 -88l-4 -16q-12 -59 -63.5 -95t-110.5 -36q-47 0 -106 32zM180 374q-5 -25 10.5 -50.5t46.5 -42.5q44 -25 65 -61l3 8q5 24 -11.5 51t-45.5 45q-43 20 -65 60q-1 -1 -1.5 -3l-1 -4 t-0.5 -3z" />
<glyph unicode="&#xa8;" horiz-adv-x="263" d="M158 626q3 16 18.5 28.5t32.5 12.5t27.5 -12.5t7.5 -28.5q-4 -16 -19.5 -29t-32.5 -13t-27.5 12.5t-6.5 29.5zM283 626q3 16 18.5 28.5t32.5 12.5t28 -12.5t8 -28.5q-4 -17 -20 -29.5t-33 -12.5t-27.5 12.5t-6.5 29.5z" />
<glyph unicode="&#xaa;" horiz-adv-x="179" d="M89 368q6 29 32 49t59 20h14q0 14 -8 14q-18 0 -58 -11l1 57q40 10 69 10q27 0 42 -23t9 -58q-6 -26 -12 -53q-3 -15 2.5 -38t15.5 -35l-76 1q-12 -5 -31 -5q-32 0 -49 21t-10 51zM145 368q-2 -5 3.5 -10t12.5 -5t13 5t8 10l3 14h-18q-7 0 -14 -4.5t-8 -9.5z" />
<glyph unicode="&#xab;" horiz-adv-x="532" d="M73 279l322 230l35 -55l-259 -185q25 -42 75.5 -120t60.5 -94l-63 -48zM232 279l322 230l35 -55l-259 -185q4 -7 12 -19t12 -19q63 -96 112 -177l-63 -47z" />
<glyph unicode="&#xac;" horiz-adv-x="662" d="M102 324l15 71h576l-51 -242h-71l36 171h-505z" />
<glyph unicode="&#xad;" horiz-adv-x="421" d="M84 256l15 72h356l-15 -72h-356z" />
<glyph unicode="&#xb0;" horiz-adv-x="250" d="M135 576q10 47 48 78t86 31q44 0 68 -31.5t14 -77.5q-10 -44 -47 -75t-81 -31q-48 0 -73 30.5t-15 75.5zM194 576q-4 -19 8.5 -34.5t32.5 -15.5q17 0 35 15.5t22 34.5q4 20 -7 36.5t-28 16.5q-20 0 -39 -16.5t-24 -36.5z" />
<glyph unicode="&#xb1;" horiz-adv-x="452" d="M73 145l15 71h355l-15 -71h-355zM135 431l15 72h141l31 142h72l-31 -142h142l-15 -72h-142l-30 -142h-72l30 142h-141z" />
<glyph unicode="&#xb2;" horiz-adv-x="280" d="M83 297l10 51l186 168q20 15 26 43q6 26 -10 45t-42 19t-71 -36l-36 47q71 51 120 51q54 0 82.5 -37t17.5 -89q-8 -44 -53 -89l-123 -112h134l-13 -61h-228z" />
<glyph unicode="&#xb3;" horiz-adv-x="265" d="M71 348l43 35h20q21 -30 52 -30q23 0 45.5 16t26.5 37t-10 37t-35 19h-65l13 61h67q20 1 40.5 16.5t24.5 33.5t-11.5 32.5t-38.5 14.5q-31 0 -76 -40l-34 48q61 53 123 53q51 0 80.5 -31.5t19.5 -76.5q-11 -56 -56 -84q28 -38 19 -83q-10 -48 -52.5 -80.5t-93.5 -32.5 q-62 0 -102 55z" />
<glyph unicode="&#xb4;" horiz-adv-x="209" d="M123 519l109 113h115l-166 -113h-58z" />
<glyph unicode="&#xb6;" horiz-adv-x="382" d="M123 510q15 71 75 121t130 50h90v-1h60l-144 -678h-60v-2h-106l72 340q-62 8 -96 57t-21 113zM194 514q-8 -38 6 -66t44 -32l42 196q-33 -4 -58.5 -31.5t-33.5 -66.5z" />
<glyph unicode="&#xb7;" horiz-adv-x="225" d="M111 310q5 24 29 44t51 20q26 0 42 -20t11 -44q-5 -23 -29 -42t-51 -19t-42.5 18.5t-10.5 42.5z" />
<glyph unicode="&#xb9;" horiz-adv-x="263" d="M135 568l160 113h61l-67 -315h-72l46 213q-14 -10 -39.5 -27.5t-35.5 -24.5q-5 -1 -12 -9z" />
<glyph unicode="&#xba;" horiz-adv-x="232" d="M97 397q10 48 45 79t79 31q40 0 62 -31.5t12 -78.5q-10 -44 -44.5 -74.5t-74.5 -30.5q-43 0 -66 30.5t-13 74.5zM153 397q-4 -18 6.5 -33.5t27.5 -15.5q15 0 31 15.5t20 33.5q4 21 -5 37.5t-24 16.5q-17 0 -34.5 -16.5t-21.5 -37.5z" />
<glyph unicode="&#xbb;" horiz-adv-x="524" d="M62 54l228 215q-70 74 -114 118q-21 20 -68 67l60 55l223 -230l-286 -272zM221 54l228 215q-70 74 -114 118q-21 20 -68 67l60 55l223 -230l-286 -272z" />
<glyph unicode="&#xbc;" horiz-adv-x="382" d="M109 443l90 64h42l-65 -307h-53l49 232l-16 -12q-9 -5 -18 -13zM164 120l9 40l159 201l41 -24l-132 -165h53l15 71h52l-15 -71h46l-11 -52h-46l-25 -120h-52l25 120h-119z" />
<glyph unicode="&#xbd;" horiz-adv-x="355" d="M97 443l90 65h42l-40 -189q55 39 95 39q50 0 77 -34t17 -83q-9 -40 -50 -79l-123 -111h132l-10 -51h-209l8 41l175 159q20 16 25 41q6 28 -9.5 46.5t-43.5 18.5q-24 0 -64 -29l-23 29l-22 -106h-52l50 233l-18 -12q-6 -4 -18 -13z" />
<glyph unicode="&#xbe;" horiz-adv-x="458" d="M56 196l46 34q21 -33 53 -33q26 0 49 16.5t27 38.5q7 29 -26 43.5t-80 7.5l12 55h59q25 2 45 15.5t24 32.5q5 21 -10.5 36t-41.5 15q-33 0 -71 -33l-29 37q55 47 110 47q48 0 76 -29.5t19 -72.5q-10 -47 -57 -75q33 -33 22 -79q-10 -45 -50 -76t-89 -31q-53 0 -88 51z M236 121l9 41l160 200l42 -23l-130 -165h49l16 71h53l-16 -71h46l-11 -53h-46l-25 -119h-53l25 119h-119z" />
<glyph unicode="&#xbf;" horiz-adv-x="432" d="M75 184q17 78 84 136t141 58h30q-6 81 -6 88q-7 66 -19 215h76l25 -315l-13 -61h-109q-48 -2 -88.5 -36.5t-50.5 -84.5q-11 -49 16.5 -84.5t76.5 -35.5q65 0 128 76l41 -52q-86 -98 -185 -98q-78 0 -121 57.5t-26 136.5zM299 753q4 20 18 31.5t33 11.5q16 0 26 -12t6 -31 q-4 -18 -19 -30t-31 -12q-19 0 -28.5 12t-4.5 30z" />
<glyph unicode="&#xc0;" d="M15 0l401 691h55l109 -691h-76l-43 273h-210q-59 -99 -104 -177q-50 -84 -57 -96h-75zM292 346h157q-2 17 -8 52.5t-8 48.5q-13 72 -18 109q-29 -45 -47 -80l-1 -1q-15 -26 -75 -129zM321 823h117l61 -113h-58z" />
<glyph unicode="&#xc1;" d="M15 0l401 691h55l109 -691h-76l-43 273h-210q-59 -99 -104 -177q-50 -84 -57 -96h-75zM292 346h157q-2 17 -8 52.5t-8 48.5q-13 72 -18 109q-29 -45 -47 -80l-1 -1q-15 -26 -75 -129zM410 710l109 113h115l-166 -113h-58z" />
<glyph unicode="&#xc2;" d="M15 0l401 691h55l109 -691h-76l-43 273h-210q-59 -99 -104 -177q-50 -84 -57 -96h-75zM292 346h157q-2 17 -8 52.5t-8 48.5q-13 72 -18 109q-29 -45 -47 -80l-1 -1q-15 -26 -75 -129z" />
<glyph unicode="&#xc3;" d="M25 17l401 691h55l109 -691h-76l-43 273h-210q-59 -99 -104 -177q-50 -84 -57 -96h-75zM302 363h157q-2 17 -8 52.5t-8 48.5q-13 72 -18 109q-29 -45 -47 -80l-1 -1q-15 -26 -75 -129zM320 784q58 33 110 33q17 0 47 -7q0 -1 1 -1q24 -8 36 -8q45 0 82 27l15 -57 q-51 -33 -109 -33q-31 0 -56 11q-15 5 -29 5q-38 0 -80 -26z" />
<glyph unicode="&#xc4;" d="M15 0l401 691h55l109 -691h-76l-43 273h-210q-59 -99 -104 -177q-50 -84 -57 -96h-75zM292 346h157q-2 17 -8 52.5t-8 48.5q-13 72 -18 109q-29 -45 -47 -80l-1 -1q-15 -26 -75 -129zM345 739q3 16 18.5 28.5t32.5 12.5t27.5 -12.5t7.5 -28.5q-4 -16 -19.5 -29t-32.5 -13 t-27.5 12.5t-6.5 29.5zM470 739q3 16 18.5 28.5t32.5 12.5t28 -12.5t8 -28.5q-4 -17 -20 -29.5t-33 -12.5t-27.5 12.5t-6.5 29.5z" />
<glyph unicode="&#xc6;" horiz-adv-x="1081" d="M18 0l402 691h641l-15 -71h-340l-46 -217h291l-15 -73h-291l-55 -257h340l-15 -73h-413l58 273h-306q-30 -52 -90 -155t-69 -118h-77zM296 346h279l67 274h-190q-10 -18 -80 -140q-17 -31 -76 -134z" />
<glyph unicode="&#xc7;" horiz-adv-x="634" d="M114 342q31 148 145.5 250.5t246.5 102.5q127 0 205 -110l-62 -48q-62 87 -158 87q-102 0 -191 -83t-114 -199q-24 -114 30 -197t156 -83q92 0 192 85l41 -49q-117 -100 -241 -106q35 -24 27 -59q-7 -39 -81 -76l-67 59q22 0 52 4.5t33 14.5q1 5 -5 8t-12.5 4t-12.5 1 h-25l13 52q-99 28 -149 123t-23 219z" />
<glyph unicode="&#xc8;" horiz-adv-x="485" d="M33 0l146 691h412l-15 -71h-340l-46 -217h290l-15 -73h-290l-55 -257h340l-15 -73h-412zM252 823h117l61 -113h-58z" />
<glyph unicode="&#xc9;" horiz-adv-x="485" d="M33 0l146 691h412l-15 -71h-340l-46 -217h290l-15 -73h-290l-55 -257h340l-15 -73h-412zM327 710l109 113h115l-166 -113h-58z" />
<glyph unicode="&#xcb;" horiz-adv-x="485" d="M33 0l146 691h412l-15 -71h-340l-46 -217h290l-15 -73h-290l-55 -257h340l-15 -73h-412zM289 740q3 16 18.5 28.5t32.5 12.5t27.5 -12.5t7.5 -28.5q-4 -16 -19.5 -29t-32.5 -13t-27.5 12.5t-6.5 29.5zM414 740q3 16 18.5 28.5t32.5 12.5t28 -12.5t8 -28.5 q-4 -17 -20 -29.5t-33 -12.5t-27.5 12.5t-6.5 29.5z" />
<glyph unicode="&#xcc;" horiz-adv-x="131" d="M41 0l146 691h73l-146 -691h-73zM105 823h117l61 -113h-58z" />
<glyph unicode="&#xcd;" horiz-adv-x="154" d="M33 0l146 691h73l-146 -691h-73zM181 710l109 113h115l-166 -113h-58z" />
<glyph unicode="&#xce;" horiz-adv-x="138" d="M33 0l146 691h73l-146 -691h-73z" />
<glyph unicode="&#xcf;" horiz-adv-x="138" d="M33 0l146 691h73l-146 -691h-73zM117 739q3 16 18.5 28.5t32.5 12.5t27.5 -12.5t7.5 -28.5q-4 -16 -19.5 -29t-32.5 -13t-27.5 12.5t-6.5 29.5zM242 739q3 16 18.5 28.5t32.5 12.5t28 -12.5t8 -28.5q-4 -17 -20 -29.5t-33 -12.5t-27.5 12.5t-6.5 29.5z" />
<glyph unicode="&#xd0;" horiz-adv-x="653" d="M89 261l15 72h64l76 358h259q67 -1 114.5 -48t62 -123t-3.5 -173q-30 -142 -121.5 -242.5t-195.5 -104.5h-261l55 261h-64zM186 73q59 0 90 1q17 0 49.5 0.5t48.5 0.5q72 2 139 81.5t90 190.5q24 112 -9.5 190.5t-105.5 80.5h-186l-61 -285h166l-15 -72h-166z" />
<glyph unicode="&#xd1;" horiz-adv-x="537" d="M36 0l146 691h65l202 -533l113 533h73l-146 -691h-66l-202 536l-113 -536h-72zM282 766q48 23 89 23q8 0 15.5 -0.5t14.5 -2.5t11.5 -3t12 -4t10.5 -4q24 -13 49 -13q27 0 68 22l8 -60q-45 -24 -89 -24q-42 0 -83 28l11 -8q-17 7 -42 7t-65 -21z" />
<glyph unicode="&#xd2;" horiz-adv-x="690" d="M93 345q31 145 145 247.5t245 102.5q135 0 203.5 -101.5t37.5 -248.5q-33 -154 -151 -257q-110 -97 -239 -97t-201 102.5t-40 251.5zM167 345q-25 -117 28 -198.5t154 -81.5q104 0 191.5 81.5t112.5 198.5q26 126 -35 203q-50 73 -151 73t-188 -80.5t-112 -195.5z M343 823h117l61 -113h-58z" />
<glyph unicode="&#xd3;" horiz-adv-x="690" d="M93 345q31 145 145 247.5t245 102.5q135 0 203.5 -101.5t37.5 -248.5q-33 -154 -151 -257q-110 -97 -239 -97t-201 102.5t-40 251.5zM167 345q-25 -117 28 -198.5t154 -81.5q104 0 191.5 81.5t112.5 198.5q26 126 -35 203q-50 73 -151 73t-188 -80.5t-112 -195.5z M465 710l109 113h115l-166 -113h-58z" />
<glyph unicode="&#xd5;" horiz-adv-x="690" d="M93 345q31 145 145 247.5t245 102.5q135 0 203.5 -101.5t37.5 -248.5q-33 -154 -151 -257q-110 -97 -239 -97t-201 102.5t-40 251.5zM167 345q-25 -117 28 -198.5t154 -81.5q104 0 191.5 81.5t112.5 198.5q26 126 -35 203q-50 73 -151 73t-188 -80.5t-112 -195.5z M358 767q48 23 89 23q8 0 15.5 -0.5t14.5 -2.5t11.5 -3t12 -4t10.5 -4q24 -13 49 -13q27 0 68 22l8 -60q-45 -24 -89 -24q-42 0 -83 28l11 -8q-17 7 -42 7t-65 -21z" />
<glyph unicode="&#xd6;" horiz-adv-x="690" d="M93 345q31 145 145 247.5t245 102.5q135 0 203.5 -101.5t37.5 -248.5q-33 -154 -151 -257q-110 -97 -239 -97t-201 102.5t-40 251.5zM167 345q-25 -117 28 -198.5t154 -81.5q104 0 191.5 81.5t112.5 198.5q26 126 -35 203q-50 73 -151 73t-188 -80.5t-112 -195.5z M392 740q3 16 18.5 28.5t32.5 12.5t27.5 -12.5t7.5 -28.5q-4 -16 -19.5 -29t-32.5 -13t-27.5 12.5t-6.5 29.5zM517 740q3 16 18.5 28.5t32.5 12.5t28 -12.5t8 -28.5q-4 -17 -20 -29.5t-33 -12.5t-27.5 12.5t-6.5 29.5z" />
<glyph unicode="&#xd7;" horiz-adv-x="367" d="M65 210l123 101l-79 100l61 51l79 -100l122 100l40 -50l-122 -101l79 -101l-60 -50l-80 101l-122 -101z" />
<glyph unicode="&#xd8;" horiz-adv-x="690" d="M93 345q31 145 145 247.5t245 102.5q42 0 83 -13l5 9h74l-18 -37q65 -48 91.5 -129.5t5.5 -179.5q-33 -154 -151 -257q-110 -97 -239 -97q-41 0 -80 12v-3h-82l19 34q-66 43 -93 126t-5 185zM167 345q-16 -78 1 -141t63 -100q226 391 295 509q-24 8 -59 8 q-101 0 -188 -80.5t-112 -195.5zM291 73q24 -8 58 -8q104 0 191.5 81.5t112.5 198.5q16 76 -3 138t-64 100q-57 -96 -159 -274t-136 -236z" />
<glyph unicode="&#xd9;" horiz-adv-x="598" d="M70 180l108 511h76l-108 -509q-2 -47 44.5 -82t117.5 -35q68 0 128.5 35t77.5 82l108 509h73l-108 -510q-20 -77 -106.5 -133.5t-187.5 -56.5q-106 0 -170 55.5t-53 133.5zM315 823h117l61 -113h-58z" />
<glyph unicode="&#xda;" horiz-adv-x="598" d="M70 180l108 511h76l-108 -509q-2 -47 44.5 -82t117.5 -35q68 0 128.5 35t77.5 82l108 509h73l-108 -510q-20 -77 -106.5 -133.5t-187.5 -56.5q-106 0 -170 55.5t-53 133.5zM406 710l109 113h115l-166 -113h-58z" />
<glyph unicode="&#xdc;" horiz-adv-x="598" d="M70 180l108 511h76l-108 -509q-2 -47 44.5 -82t117.5 -35q68 0 128.5 35t77.5 82l108 509h73l-108 -510q-20 -77 -106.5 -133.5t-187.5 -56.5q-106 0 -170 55.5t-53 133.5zM346 739q3 16 18.5 28.5t32.5 12.5t27.5 -12.5t7.5 -28.5q-4 -16 -19.5 -29t-32.5 -13 t-27.5 12.5t-6.5 29.5zM471 739q3 16 18.5 28.5t32.5 12.5t28 -12.5t8 -28.5q-4 -17 -20 -29.5t-33 -12.5t-27.5 12.5t-6.5 29.5z" />
<glyph unicode="&#xdd;" horiz-adv-x="681" d="M156 691h95l160 -310q53 55 153.5 160.5t142.5 149.5h94l-367 -382l-65 -309h-74l65 309q-125 235 -204 382zM456 710l109 113h115l-166 -113h-58z" />
<glyph unicode="&#xde;" horiz-adv-x="535" d="M11 -187l187 879h72l-43 -201q62 26 130 26q102 -2 158 -78.5t33 -182.5q-23 -110 -111 -187.5t-191 -77.5q-62 0 -121 27l-43 -205h-71zM145 105q-3 -10 11.5 -19.5t42.5 -15t62 -6.5q71 2 134 57.5t79 133.5q16 76 -23 132t-109 56q-48 0 -87 -11t-48 -27z" />
<glyph unicode="&#xdf;" horiz-adv-x="520" d="M7 -162l179 843h224q78 -1 122 -53.5t29 -122.5q-19 -89 -107 -143q37 -26 51.5 -69t3.5 -93q-17 -80 -87.5 -138.5t-155.5 -59.5h-87l-50 65l-49 -229h-73zM130 71h151q53 3 99.5 41t56.5 88q11 50 -22 86t-97 40h-134zM199 397h151q49 2 89 32.5t50 75.5 q8 41 -19.5 71.5t-75.5 33.5h-150z" />
<glyph unicode="&#xe0;" horiz-adv-x="406" d="M60 148q15 69 75.5 114.5t131.5 45.5h91l1 3q11 51 -5 87t-53 37q-55 0 -124 -19l-3 70q79 21 143 21q62 -1 96 -52t22 -124l-2 -10q-19 -81 -36 -158q-27 -133 -6 -163h-98l4 19q-52 -29 -104 -29q-68 0 -107.5 46.5t-25.5 111.5zM132 148q-7 -35 15.5 -59.5t61.5 -24.5 q41 0 74.5 24.5t40.5 59.5l19 88h-91q-42 0 -77 -24.5t-43 -63.5zM181 632h117l61 -113h-58z" />
<glyph unicode="&#xe1;" horiz-adv-x="406" d="M60 148q15 69 75.5 114.5t131.5 45.5h91l1 3q11 51 -5 87t-53 37q-55 0 -124 -19l-3 70q79 21 143 21q62 -1 96 -52t22 -124l-2 -10q-19 -81 -36 -158q-27 -133 -6 -163h-98l4 19q-52 -29 -104 -29q-68 0 -107.5 46.5t-25.5 111.5zM132 148q-7 -35 15.5 -59.5t61.5 -24.5 q41 0 74.5 24.5t40.5 59.5l19 88h-91q-42 0 -77 -24.5t-43 -63.5zM258 519l109 113h115l-166 -113h-58z" />
<glyph unicode="&#xe2;" horiz-adv-x="406" d="M60 148q15 69 75.5 114.5t131.5 45.5h91l1 3q11 51 -5 87t-53 37q-55 0 -124 -19l-3 70q79 21 143 21q62 -1 96 -52t22 -124l-2 -10q-19 -81 -36 -158q-27 -133 -6 -163h-98l4 19q-52 -29 -104 -29q-68 0 -107.5 46.5t-25.5 111.5zM132 148q-7 -35 15.5 -59.5t61.5 -24.5 q41 0 74.5 24.5t40.5 59.5l19 88h-91q-42 0 -77 -24.5t-43 -63.5zM190 549l150 122l98 -123l-57 -47l-60 78l-96 -78z" />
<glyph unicode="&#xe3;" horiz-adv-x="406" d="M70 164q15 69 75.5 114.5t131.5 45.5h91l1 3q11 51 -5 87t-53 37q-55 0 -124 -19l-3 70q79 21 143 21q62 -1 96 -52t22 -124l-2 -10q-19 -81 -36 -158q-27 -133 -6 -163h-98l4 19q-52 -29 -104 -29q-68 0 -107.5 46.5t-25.5 111.5zM142 164q-7 -35 15.5 -59.5t61.5 -24.5 q41 0 74.5 24.5t40.5 59.5l19 88h-91q-42 0 -77 -24.5t-43 -63.5zM166 570q59 35 111 35q24 0 47 -7h-3q1 0 1 -0.5t1 -0.5q19 -7 31 -7q44 0 85 31l16 -56q-53 -37 -110 -37q-34 0 -53 11v-1q-15 5 -27 5q-41 0 -79 -30z" />
<glyph unicode="&#xe4;" horiz-adv-x="406" d="M70 164q15 69 75.5 114.5t131.5 45.5h91l1 3q11 51 -5 87t-53 37q-55 0 -124 -19l-3 70q79 21 143 21q62 -1 96 -52t22 -124l-2 -10q-19 -81 -36 -158q-27 -133 -6 -163h-98l4 19q-52 -29 -104 -29q-68 0 -107.5 46.5t-25.5 111.5zM142 164q-7 -35 15.5 -59.5t61.5 -24.5 q41 0 74.5 24.5t40.5 59.5l19 88h-91q-42 0 -77 -24.5t-43 -63.5zM233 626q3 17 18 29t34 12q17 0 27.5 -12.5t7.5 -28.5q-4 -16 -19.5 -29t-32.5 -13q-18 0 -28.5 12.5t-6.5 29.5zM359 626q3 16 18.5 28.5t32.5 12.5t27.5 -12t7.5 -29q-4 -17 -19.5 -29.5t-32.5 -12.5 t-27.5 12.5t-6.5 29.5z" />
<glyph unicode="&#xe6;" horiz-adv-x="743" d="M65 148q14 66 73 113t128 47h94l1 2q1 3 1 4q4 8 4 9q10 47 -8 78.5t-52 33.5q-57 0 -124 -19l-3 70q81 21 143 21q39 -1 68 -23.5t43 -59.5q79 84 167 84q85 0 127.5 -73t20.5 -180l-9 -39h-326l-4 -23q2 -55 32 -92.5t75 -37.5q50 0 137 39l16 -63q-60 -31 -142 -47 q-8 -1 -26 -1q-69 0 -120 51q4 -26 25 -42h-108l4 19q-52 -29 -104 -29q-68 0 -107.5 46.5t-25.5 111.5zM138 148q-8 -35 14 -59.5t62 -24.5t74 24.5t41 59.5l5 26q0 38 6 62h-89q-40 0 -72.5 -25.5t-40.5 -62.5zM429 286h252q5 65 -21.5 107t-74.5 42q-49 0 -93.5 -42 t-62.5 -107z" />
<glyph unicode="&#xe7;" horiz-adv-x="493" d="M81 250q22 106 108.5 181.5t187.5 75.5q103 0 165 -91l-61 -50q-49 69 -119 69q-71 0 -132 -54.5t-77 -130.5q-17 -77 21.5 -131.5t108.5 -54.5q69 0 143 64l41 -49q-84 -75 -177 -87q15 -8 25.5 -25t6.5 -37q-8 -37 -81 -77l-59 56q71 8 74 19q2 9 -6.5 13t-19.5 4 l-2 -1h-3h-21l13 53q-79 18 -117.5 88t-18.5 165z" />
<glyph unicode="&#xe8;" horiz-adv-x="456" d="M67 231l4 19q22 106 98.5 182t159.5 76q85 0 127.5 -73t19.5 -180l-9 -39h-329q-6 -66 24 -109t84 -44q48 0 137 39l15 -63q-69 -34 -141 -47q-8 -1 -26 -1q-84 0 -132 70t-32 170zM155 286h255q6 65 -21 107t-75 42q-45 0 -90 -43t-69 -106zM210 632h117l61 -113h-58z " />
<glyph unicode="&#xe9;" horiz-adv-x="456" d="M67 231l4 19q22 106 98.5 182t159.5 76q85 0 127.5 -73t19.5 -180l-9 -39h-329q-6 -66 24 -109t84 -44q48 0 137 39l15 -63q-69 -34 -141 -47q-8 -1 -26 -1q-84 0 -132 70t-32 170zM155 286h255q6 65 -21 107t-75 42q-45 0 -90 -43t-69 -106zM287 519l109 113h115 l-166 -113h-58z" />
<glyph unicode="&#xea;" horiz-adv-x="456" d="M67 231l4 19q22 106 98.5 182t159.5 76q85 0 127.5 -73t19.5 -180l-9 -39h-329q-6 -66 24 -109t84 -44q48 0 137 39l15 -63q-69 -34 -141 -47q-8 -1 -26 -1q-84 0 -132 70t-32 170zM155 286h255q6 65 -21 107t-75 42q-45 0 -90 -43t-69 -106zM215 549l150 122l98 -123 l-57 -47l-60 78l-96 -78z" />
<glyph unicode="&#xeb;" horiz-adv-x="456" d="M67 231l4 19q22 106 98.5 182t159.5 76q85 0 127.5 -73t19.5 -180l-9 -39h-329q-6 -66 24 -109t84 -44q48 0 137 39l15 -63q-69 -34 -141 -47q-8 -1 -26 -1q-84 0 -132 70t-32 170zM155 286h255q6 65 -21 107t-75 42q-45 0 -90 -43t-69 -106zM251 626q3 16 18.5 28.5 t32.5 12.5t27.5 -12.5t7.5 -28.5q-4 -16 -19.5 -29t-32.5 -13t-27.5 12.5t-6.5 29.5zM376 626q3 16 18.5 28.5t32.5 12.5t28 -12.5t8 -28.5q-4 -17 -20 -29.5t-33 -12.5t-27.5 12.5t-6.5 29.5z" />
<glyph unicode="&#xec;" horiz-adv-x="211" d="M77 0l106 501h70l-106 -501h-70zM112 648h117l61 -113h-58z" />
<glyph unicode="&#xed;" horiz-adv-x="211" d="M49 0l106 501h72l-106 -501h-72zM137 535l109 113h115l-166 -113h-58z" />
<glyph unicode="&#xee;" horiz-adv-x="177" d="M49 0l106 501h70l-106 -501h-70zM86 565l150 122l98 -123l-57 -47l-60 78l-96 -78z" />
<glyph unicode="&#xef;" horiz-adv-x="177" d="M49 0l106 501h70l-106 -501h-70zM131 626q3 16 18.5 28.5t32.5 12.5t27.5 -12t7.5 -29q-4 -17 -19.5 -29.5t-32.5 -12.5t-27.5 12.5t-6.5 29.5zM219 626q3 17 18 29t34 12q17 0 27.5 -12.5t7.5 -28.5q-4 -16 -19.5 -29t-32.5 -13q-18 0 -28.5 12.5t-6.5 29.5z" />
<glyph unicode="&#xf0;" horiz-adv-x="489" d="M61 89l76 53q16 -35 44 -55t62 -20q55 0 102.5 35t71.5 88q25 80 38 133q-75 -58 -161 -58q-84 0 -133.5 59t-32.5 144q15 89 91.5 153t165.5 64q84 0 132 -61t37 -146q-5 -39 -25 -133l-5 -25q-21 -92 -44 -146q-31 -80 -104.5 -130.5t-155.5 -50.5q-49 0 -91.5 26 t-67.5 70zM197 470q-8 -56 24 -95t88 -39q59 0 109 40.5t63 99.5q11 55 -22 95.5t-88 40.5q-59 0 -110 -42t-64 -100z" />
<glyph unicode="&#xf1;" horiz-adv-x="433" d="M37 16l93 442q3 12 -2.5 29t-13.5 26h99l-7 -32q54 44 125 44t109.5 -54.5t24.5 -133.5l-66 -321h-72l68 321q10 48 -15 82t-70 34q-37 0 -74.5 -31t-57.5 -73l-70 -333h-71zM189 614q55 32 109 32q23 0 42.5 -8t38.5 -8q38 0 80 30l17 -58q-55 -34 -111 -34 q-36 0 -55 11q-13 5 -28 5q-31 0 -80 -28z" />
<glyph unicode="&#xf2;" horiz-adv-x="527" d="M65 248q23 107 108.5 183t182.5 76q98 0 150.5 -76t29.5 -183q-23 -106 -107.5 -182t-182.5 -76q-97 0 -150.5 76t-30.5 182zM138 248q-16 -77 20.5 -131t103.5 -54t126 54.5t75 130.5q16 77 -19.5 132t-102.5 55t-126.5 -55t-76.5 -132zM246 632h117l61 -113h-58z" />
<glyph unicode="&#xf3;" horiz-adv-x="527" d="M65 248q23 107 108.5 183t182.5 76q98 0 150.5 -76t29.5 -183q-23 -106 -107.5 -182t-182.5 -76q-97 0 -150.5 76t-30.5 182zM138 248q-16 -77 20.5 -131t103.5 -54t126 54.5t75 130.5q16 77 -19.5 132t-102.5 55t-126.5 -55t-76.5 -132zM329 519l109 113h115l-166 -113 h-58z" />
<glyph unicode="&#xf4;" horiz-adv-x="513" d="M65 248q23 107 108.5 183t182.5 76q98 0 150.5 -76t29.5 -183q-23 -106 -107.5 -182t-182.5 -76q-97 0 -150.5 76t-30.5 182zM138 248q-16 -77 20.5 -131t103.5 -54t126 54.5t75 130.5q16 77 -19.5 132t-102.5 55t-126.5 -55t-76.5 -132zM244 549l150 122l98 -123 l-57 -47l-60 78l-96 -78z" />
<glyph unicode="&#xf5;" horiz-adv-x="513" d="M65 248q23 107 108.5 183t182.5 76q98 0 150.5 -76t29.5 -183q-23 -106 -107.5 -182t-182.5 -76q-97 0 -150.5 76t-30.5 182zM138 248q-16 -77 20.5 -131t103.5 -54t126 54.5t75 130.5q16 77 -19.5 132t-102.5 55t-126.5 -55t-76.5 -132zM243 608q48 23 89 23 q8 0 15.5 -0.5t14.5 -2.5t11.5 -3t12 -4t10.5 -4q24 -13 49 -13q27 0 68 22l8 -60q-45 -24 -89 -24q-42 0 -83 28l11 -8q-18 7 -42 7q-25 0 -65 -21z" />
<glyph unicode="&#xf6;" horiz-adv-x="527" d="M65 248q23 107 108.5 183t182.5 76q98 0 150.5 -76t29.5 -183q-23 -106 -107.5 -182t-182.5 -76q-97 0 -150.5 76t-30.5 182zM138 248q-16 -77 20.5 -131t103.5 -54t126 54.5t75 130.5q16 77 -19.5 132t-102.5 55t-126.5 -55t-76.5 -132zM292 626q3 16 18.5 28.5 t32.5 12.5t27.5 -12.5t7.5 -28.5q-4 -16 -19.5 -29t-32.5 -13t-27.5 12.5t-6.5 29.5zM417 626q3 16 18.5 28.5t32.5 12.5t28 -12.5t8 -28.5q-4 -17 -20 -29.5t-33 -12.5t-27.5 12.5t-6.5 29.5z" />
<glyph unicode="&#xf7;" horiz-adv-x="425" d="M88 272l15 72h356l-15 -72h-356zM184 131l20 93h93l-20 -93h-93zM233 362l20 93h93l-20 -93h-93z" />
<glyph unicode="&#xf8;" horiz-adv-x="513" d="M65 248q23 107 108.5 183t182.5 76q101 0 162 -92l-67 -49q-45 69 -110 69q-67 0 -126.5 -55t-76.5 -132q-11 -53 5 -102l-66 -49q-26 82 -12 151zM79 94l64 49q19 -37 50.5 -58.5t68.5 -21.5q59 0 115 44.5t79 111.5t-5 145l67 48q35 -85 18 -164q-23 -106 -107.5 -182 t-182.5 -76q-108 0 -167 104z" />
<glyph unicode="&#xf9;" horiz-adv-x="450" d="M73 178l69 321h71l-67 -314v-5q-8 -47 16.5 -81t68.5 -34q37 0 74.5 31.5t54.5 72.5l71 332h72l-93 -439q-4 -14 1.5 -33t13.5 -29h-100l7 36q-59 -45 -123 -45q-70 0 -108.5 53.5t-24.5 130.5zM209 632h117l61 -113h-58z" />
<glyph unicode="&#xfa;" horiz-adv-x="450" d="M73 178l69 321h71l-67 -314v-5q-8 -47 16.5 -81t68.5 -34q37 0 74.5 31.5t54.5 72.5l71 332h72l-93 -439q-4 -14 1.5 -33t13.5 -29h-100l7 36q-59 -45 -123 -45q-70 0 -108.5 53.5t-24.5 130.5zM276 519l109 113h115l-166 -113h-58z" />
<glyph unicode="&#xfb;" horiz-adv-x="450" d="M73 178l69 321h71l-67 -314v-5q-8 -47 16.5 -81t68.5 -34q37 0 74.5 31.5t54.5 72.5l71 332h72l-93 -439q-4 -14 1.5 -33t13.5 -29h-100l7 36q-59 -45 -123 -45q-70 0 -108.5 53.5t-24.5 130.5zM212 549l150 122l98 -123l-57 -47l-60 78l-96 -78z" />
<glyph unicode="&#xfc;" horiz-adv-x="450" d="M73 178l69 321h71l-67 -314v-5q-8 -47 16.5 -81t68.5 -34q37 0 74.5 31.5t54.5 72.5l71 332h72l-93 -439q-4 -14 1.5 -33t13.5 -29h-100l7 36q-59 -45 -123 -45q-70 0 -108.5 53.5t-24.5 130.5zM248 626q3 16 18.5 28.5t32.5 12.5t27.5 -12.5t7.5 -28.5q-4 -16 -19.5 -29 t-32.5 -13t-27.5 12.5t-6.5 29.5zM373 626q3 16 18.5 28.5t32.5 12.5t28 -12.5t8 -28.5q-4 -17 -20 -29.5t-33 -12.5t-27.5 12.5t-6.5 29.5z" />
<glyph unicode="&#xfd;" horiz-adv-x="535" d="M1 -180l29 83q15 -20 39 -20q30 0 61 20.5t53 56.5q7 12 28 46q4 6 12 19.5t13 21.5q-10 57 -12 69l-36 184.5t-41 206.5h77l68 -368q15 24 97.5 160.5t126.5 207.5h77l-286 -464q-4 -7 -13 -22t-14 -22q-5 -10 -19 -32t-20 -33q-33 -56 -86 -89t-102 -33q-23 0 -52 8z M339 519l109 113h115l-166 -113h-58z" />
<glyph unicode="&#xfe;" horiz-adv-x="517" d="M11 -184l184 866h73l-42 -198q58 25 128 25q100 -2 155 -77.5t32 -179.5q-23 -109 -109.5 -185t-187.5 -76q-60 0 -118 27l-43 -202h-72zM145 103q-3 -10 11.5 -18.5t41.5 -14t61 -6.5q70 2 132 56t78 131q16 74 -23 129.5t-108 55.5q-45 0 -83 -11.5t-50 -26.5z" />
<glyph unicode="&#xff;" horiz-adv-x="535" d="M1 -180l29 83q15 -20 39 -20q30 0 61 20.5t53 56.5q7 12 28 46q4 6 12 19.5t13 21.5q-10 57 -12 69l-36 184.5t-41 206.5h77l68 -368q15 24 97.5 160.5t126.5 207.5h77l-286 -464q-4 -7 -13 -22t-14 -22q-5 -10 -19 -32t-20 -33q-33 -56 -86 -89t-102 -33q-23 0 -52 8z M301 626q3 16 18.5 28.5t32.5 12.5t27.5 -12.5t7.5 -28.5q-4 -16 -19.5 -29t-32.5 -13t-27.5 12.5t-6.5 29.5zM426 626q3 16 18.5 28.5t32.5 12.5t28 -12.5t8 -28.5q-4 -17 -20 -29.5t-33 -12.5t-27.5 12.5t-6.5 29.5z" />
<glyph unicode="&#x152;" horiz-adv-x="1056" d="M98 345q31 145 144.5 247.5t244.5 102.5q159 0 218 -123l25 119h413l-15 -71h-341l-46 -217h291l-15 -73h-291l-55 -257h341l-15 -73h-413l25 118q-21 -21 -32 -30q-110 -97 -239 -97q-128 0 -200 102.5t-40 251.5zM172 345q-25 -117 27.5 -198.5t153.5 -81.5 q93 0 178.5 74.5t120.5 181.5l10 47q13 109 -39 180q-51 73 -152 73q-100 0 -187 -80.5t-112 -195.5z" />
<glyph unicode="&#x153;" horiz-adv-x="880" d="M71 248q23 107 108.5 183t183.5 76q59 0 105 -33.5t68 -87.5q39 58 90.5 90t107.5 32q85 0 127.5 -73t20.5 -180l-9 -39h-331q-5 -66 25 -109t83 -44q50 0 137 39l16 -63q-61 -32 -142 -47q-7 -1 -26 -1q-57 0 -97.5 33t-57.5 90q-45 -56 -105.5 -90t-121.5 -34 q-97 0 -151 76t-31 182zM143 248q-16 -77 21 -131t105 -54q66 0 125 54.5t75 130.5q16 77 -19.5 132t-101.5 55q-68 0 -128 -55t-77 -132zM559 286h256q5 65 -21.5 107t-74.5 42q-45 0 -90 -42.5t-70 -106.5z" />
<glyph unicode="&#x178;" horiz-adv-x="681" d="M156 691h95l160 -310q53 55 153.5 160.5t142.5 149.5h94l-367 -382l-65 -309h-74l65 309q-125 235 -204 382zM384 729q3 16 18.5 28.5t32.5 12.5t27.5 -12.5t7.5 -28.5q-4 -16 -19.5 -29t-32.5 -13t-27.5 12.5t-6.5 29.5zM509 729q3 16 18.5 28.5t32.5 12.5t28 -12.5 t8 -28.5q-4 -17 -20 -29.5t-33 -12.5t-27.5 12.5t-6.5 29.5z" />
<glyph unicode="&#x2c6;" horiz-adv-x="268" d="M127 549l150 122l98 -123l-57 -47l-60 78l-96 -78z" />
<glyph unicode="&#x2dc;" horiz-adv-x="334" d="M146 608q48 23 89 23q8 0 15.5 -0.5t14.5 -2.5t11.5 -3t12 -4t10.5 -4q24 -13 49 -13q27 0 68 22l8 -60q-45 -24 -89 -24q-42 0 -83 28l11 -8q-17 7 -42 7t-65 -21z" />
<glyph unicode="&#x2000;" horiz-adv-x="414" />
<glyph unicode="&#x2001;" horiz-adv-x="828" />
<glyph unicode="&#x2002;" horiz-adv-x="414" />
<glyph unicode="&#x2003;" horiz-adv-x="828" />
<glyph unicode="&#x2004;" horiz-adv-x="276" />
<glyph unicode="&#x2005;" horiz-adv-x="207" />
<glyph unicode="&#x2006;" horiz-adv-x="138" />
<glyph unicode="&#x2007;" horiz-adv-x="138" />
<glyph unicode="&#x2008;" horiz-adv-x="103" />
<glyph unicode="&#x2009;" horiz-adv-x="165" />
<glyph unicode="&#x200a;" horiz-adv-x="46" />
<glyph unicode="&#x2010;" horiz-adv-x="421" d="M84 256l15 72h356l-15 -72h-356z" />
<glyph unicode="&#x2011;" horiz-adv-x="421" d="M84 256l15 72h356l-15 -72h-356z" />
<glyph unicode="&#x2012;" horiz-adv-x="421" d="M84 256l15 72h356l-15 -72h-356z" />
<glyph unicode="&#x2013;" horiz-adv-x="416" d="M84 256l15 72h356l-15 -72h-356z" />
<glyph unicode="&#x2014;" horiz-adv-x="532" d="M86 256l15 72h463l-15 -72h-463z" />
<glyph unicode="&#x2018;" horiz-adv-x="150" d="M139 573l76 112l30 -16l-27 -78l16 -63l-77 -31z" />
<glyph unicode="&#x2019;" horiz-adv-x="159" d="M129 534l48 70l7 71l78 6l-8 -80l-105 -92z" />
<glyph unicode="&#x201a;" horiz-adv-x="172" d="M11 -42l52 63l15 72h77l-18 -84l-113 -83z" />
<glyph unicode="&#x201c;" horiz-adv-x="218" d="M147 601l26 80l66 -5l2 5l77 -6l-24 -71q2 -10 6.5 -27.5t6.5 -26.5q1 -1 2.5 -8.5t1.5 -8.5l-28 -24l-52 71q6 -21 8 -30q0 -8 3 -17l-28 -24z" />
<glyph unicode="&#x201d;" horiz-adv-x="237" d="M130 534l48 70l6 71l79 6l-1 -5l69 5l-8 -80l-105 -92l-19 25l32 47l-82 -72z" />
<glyph unicode="&#x201e;" horiz-adv-x="231" d="M3 -41l51 64l13 71h72h6h70l-17 -84l-114 -84l-12 32l27 33l-84 -63z" />
<glyph unicode="&#x2022;" horiz-adv-x="209" d="M108 376q7 30 34.5 52.5t56.5 22.5t47.5 -22.5t11.5 -52.5q-5 -28 -33 -50t-57 -22t-47 22t-13 50z" />
<glyph unicode="&#x2026;" horiz-adv-x="435" d="M31 0l19 93h92l-19 -93h-92zM167 0l19 93h92l-19 -93h-92zM303 0l19 93h92l-19 -93h-92z" />
<glyph unicode="&#x202f;" horiz-adv-x="165" />
<glyph unicode="&#x2039;" horiz-adv-x="352" d="M79 249l306 253l41 -50l-245 -203q45 -59 159 -199l-61 -52z" />
<glyph unicode="&#x203a;" horiz-adv-x="343" d="M37 50l245 199q-8 10 -68 87.5t-91 115.5l62 50l197 -253l-305 -251z" />
<glyph unicode="&#x205f;" horiz-adv-x="207" />
<glyph unicode="&#x20ac;" horiz-adv-x="745" d="M86 245l15 72h91q0 7 4 19q6 26 10 36v2h-93l15 72h107q55 106 154.5 172.5t205.5 66.5q136 0 226 -121l-62 -52q-71 99 -180 99q-75 0 -149 -46.5t-118 -118.5h314l-15 -72h-332q-5 -11 -10 -38q-2 -6 -2 -14l-1 -5h333l-15 -72h-317q11 -78 65 -129t131 -51 q110 0 223 105l39 -58q-139 -121 -277 -121q-113 0 -184 71t-75 183h-103z" />
<glyph unicode="&#x2122;" horiz-adv-x="417" d="M149 613l13 60h158h15h35l27 -71q39 48 40 49q15 18 19 22h49l-48 -223h-61l19 89q-8 -13 -20 -27h-35l-8 22l-18 -84h-62l35 163h-40l-35 -163h-62l35 163h-56z" />
<glyph unicode="&#xe000;" horiz-adv-x="500" d="M0 0v500h500v-500h-500z" />
<glyph unicode="&#xfb01;" horiz-adv-x="505" d="M96 0l88 418h-71l16 73h70v6l3 13q19 71 75 123t115 52q28 0 66 -5l-37 -73q-24 6 -44 6q-35 -2 -65.5 -34.5t-40.5 -79.5l-2 -8h122l-104 -491h-70l88 418h-52l-88 -418h-69z" />
<glyph unicode="&#xfb02;" horiz-adv-x="490" d="M96 0l88 418h-72l16 73h71v6l3 13q19 73 73.5 123t116.5 52h62l-145 -685h-74l88 418h-70l-88 -418h-69zM269 491h70l26 121q-31 -7 -58.5 -39.5t-35.5 -73.5z" />
</font>
</defs>
</svg>
