<?xml version="1.0" standalone="no"?>
<!DOCTYPE svg PUBLIC "-//W3C//DTD SVG 1.1//EN" "http://www.w3.org/Graphics/SVG/1.1/DTD/svg11.dtd" >
<svg xmlns="http://www.w3.org/2000/svg">
<metadata></metadata>
<defs>
<font id="radiolandregular" horiz-adv-x="961" >
<font-face units-per-em="1000" ascent="800" descent="-200" />
<missing-glyph horiz-adv-x="570" />
<glyph horiz-adv-x="1000" />
<glyph horiz-adv-x="1000" />
<glyph unicode="&#xd;" horiz-adv-x="570" />
<glyph unicode=" "  horiz-adv-x="570" />
<glyph unicode="&#x09;" horiz-adv-x="570" />
<glyph unicode="&#xa0;" horiz-adv-x="570" />
<glyph unicode="!" d="M1010 452q-151 -3 -400 7q173 38 183 39q106 20 186 16q-48 40 -94 80q-65 -15 -148 -50l-142 -64q6 6 79 71q47 42 72 77q19 28 25 62l-48 40q-24 20 -45 43q1 -12 1 -23q0 -57 -32 -125q-17 -36 -39 -71l-43 -68q33 188 46 319q-26 -11 -79 -32q-24 -66 -20 -149 q3 -53 21 -144q-2 3 -57 72q-34 43 -49 77q-13 28 -13 61q-82 -61 -141 -96q94 -40 236 -135q-153 36 -174 40q-99 18 -177 15q-20 -20 -28 -29q-15 -17 -22 -33q197 -12 397 -18q-144 -31 -155 -33q-90 -17 -158 -17q-29 0 -57 3q1 -1 87 -83q68 11 153 45l146 64 q-10 -10 -81 -71q-49 -43 -75 -75q-23 -28 -37 -60q31 -27 90 -84q7 92 89 217q22 34 44 67q-32 -181 -66 -315q4 1 79 31q36 65 36 147q0 47 -17 143q24 -31 71 -94q32 -50 32 -93q0 -9 -1 -19q37 26 74 50l75 47q-54 19 -118 58q-15 9 -110 72q170 -45 259 -49q44 -3 91 2 q22 22 30 31q15 17 24 34z" />
<glyph unicode="&#x22;" horiz-adv-x="541" d="M196 600h60l116 150l32 180h-150zM406 600h60l116 150l32 180h-150z" />
<glyph unicode="#" d="M1010 452q-151 -3 -400 7q173 38 183 39q106 20 186 16q-48 40 -94 80q-65 -15 -148 -50l-142 -64q6 6 79 71q47 42 72 77q19 28 25 62l-48 40q-24 20 -45 43q1 -12 1 -23q0 -57 -32 -125q-17 -36 -39 -71l-43 -68q33 188 46 319q-26 -11 -79 -32q-24 -66 -20 -149 q3 -53 21 -144q-2 3 -57 72q-34 43 -49 77q-13 28 -13 61q-82 -61 -141 -96q94 -40 236 -135q-153 36 -174 40q-99 18 -177 15q-20 -20 -28 -29q-15 -17 -22 -33q197 -12 397 -18q-144 -31 -155 -33q-90 -17 -158 -17q-29 0 -57 3q1 -1 87 -83q68 11 153 45l146 64 q-10 -10 -81 -71q-49 -43 -75 -75q-23 -28 -37 -60q31 -27 90 -84q7 92 89 217q22 34 44 67q-32 -181 -66 -315q4 1 79 31q36 65 36 147q0 47 -17 143q24 -31 71 -94q32 -50 32 -93q0 -9 -1 -19q37 26 74 50l75 47q-54 19 -118 58q-15 9 -110 72q170 -45 259 -49q44 -3 91 2 q22 22 30 31q15 17 24 34z" />
<glyph unicode="$" d="M1010 452q-151 -3 -400 7q173 38 183 39q106 20 186 16q-48 40 -94 80q-65 -15 -148 -50l-142 -64q6 6 79 71q47 42 72 77q19 28 25 62l-48 40q-24 20 -45 43q1 -12 1 -23q0 -57 -32 -125q-17 -36 -39 -71l-43 -68q33 188 46 319q-26 -11 -79 -32q-24 -66 -20 -149 q3 -53 21 -144q-2 3 -57 72q-34 43 -49 77q-13 28 -13 61q-82 -61 -141 -96q94 -40 236 -135q-153 36 -174 40q-99 18 -177 15q-20 -20 -28 -29q-15 -17 -22 -33q197 -12 397 -18q-144 -31 -155 -33q-90 -17 -158 -17q-29 0 -57 3q1 -1 87 -83q68 11 153 45l146 64 q-10 -10 -81 -71q-49 -43 -75 -75q-23 -28 -37 -60q31 -27 90 -84q7 92 89 217q22 34 44 67q-32 -181 -66 -315q4 1 79 31q36 65 36 147q0 47 -17 143q24 -31 71 -94q32 -50 32 -93q0 -9 -1 -19q37 26 74 50l75 47q-54 19 -118 58q-15 9 -110 72q170 -45 259 -49q44 -3 91 2 q22 22 30 31q15 17 24 34z" />
<glyph unicode="%" d="M1010 452q-151 -3 -400 7q173 38 183 39q106 20 186 16q-48 40 -94 80q-65 -15 -148 -50l-142 -64q6 6 79 71q47 42 72 77q19 28 25 62l-48 40q-24 20 -45 43q1 -12 1 -23q0 -57 -32 -125q-17 -36 -39 -71l-43 -68q33 188 46 319q-26 -11 -79 -32q-24 -66 -20 -149 q3 -53 21 -144q-2 3 -57 72q-34 43 -49 77q-13 28 -13 61q-82 -61 -141 -96q94 -40 236 -135q-153 36 -174 40q-99 18 -177 15q-20 -20 -28 -29q-15 -17 -22 -33q197 -12 397 -18q-144 -31 -155 -33q-90 -17 -158 -17q-29 0 -57 3q1 -1 87 -83q68 11 153 45l146 64 q-10 -10 -81 -71q-49 -43 -75 -75q-23 -28 -37 -60q31 -27 90 -84q7 92 89 217q22 34 44 67q-32 -181 -66 -315q4 1 79 31q36 65 36 147q0 47 -17 143q24 -31 71 -94q32 -50 32 -93q0 -9 -1 -19q37 26 74 50l75 47q-54 19 -118 58q-15 9 -110 72q170 -45 259 -49q44 -3 91 2 q22 22 30 31q15 17 24 34z" />
<glyph unicode="&#x26;" horiz-adv-x="510" d="M541 454l-177 7l178 55l-18 56l-166 -99l130 143l-51 28l-92 -167l31 177l-63 -10l17 -171l-78 143l-52 -44l120 -111l-158 55l-21 -62l177 -7l-178 -55l18 -56l166 99l-130 -143l52 -28l91 167l-31 -177l64 10l-18 171l78 -143l52 44l-120 111l158 -55z" />
<glyph unicode="'" horiz-adv-x="331" d="M196 600h60l116 150l32 180h-150z" />
<glyph unicode="(" d="M1010 452q-151 -3 -400 7q173 38 183 39q106 20 186 16q-48 40 -94 80q-65 -15 -148 -50l-142 -64q6 6 79 71q47 42 72 77q19 28 25 62l-48 40q-24 20 -45 43q1 -12 1 -23q0 -57 -32 -125q-17 -36 -39 -71l-43 -68q33 188 46 319q-26 -11 -79 -32q-24 -66 -20 -149 q3 -53 21 -144q-2 3 -57 72q-34 43 -49 77q-13 28 -13 61q-82 -61 -141 -96q94 -40 236 -135q-153 36 -174 40q-99 18 -177 15q-20 -20 -28 -29q-15 -17 -22 -33q197 -12 397 -18q-144 -31 -155 -33q-90 -17 -158 -17q-29 0 -57 3q1 -1 87 -83q68 11 153 45l146 64 q-10 -10 -81 -71q-49 -43 -75 -75q-23 -28 -37 -60q31 -27 90 -84q7 92 89 217q22 34 44 67q-32 -181 -66 -315q4 1 79 31q36 65 36 147q0 47 -17 143q24 -31 71 -94q32 -50 32 -93q0 -9 -1 -19q37 26 74 50l75 47q-54 19 -118 58q-15 9 -110 72q170 -45 259 -49q44 -3 91 2 q22 22 30 31q15 17 24 34z" />
<glyph unicode=")" d="M1010 452q-151 -3 -400 7q173 38 183 39q106 20 186 16q-48 40 -94 80q-65 -15 -148 -50l-142 -64q6 6 79 71q47 42 72 77q19 28 25 62l-48 40q-24 20 -45 43q1 -12 1 -23q0 -57 -32 -125q-17 -36 -39 -71l-43 -68q33 188 46 319q-26 -11 -79 -32q-24 -66 -20 -149 q3 -53 21 -144q-2 3 -57 72q-34 43 -49 77q-13 28 -13 61q-82 -61 -141 -96q94 -40 236 -135q-153 36 -174 40q-99 18 -177 15q-20 -20 -28 -29q-15 -17 -22 -33q197 -12 397 -18q-144 -31 -155 -33q-90 -17 -158 -17q-29 0 -57 3q1 -1 87 -83q68 11 153 45l146 64 q-10 -10 -81 -71q-49 -43 -75 -75q-23 -28 -37 -60q31 -27 90 -84q7 92 89 217q22 34 44 67q-32 -181 -66 -315q4 1 79 31q36 65 36 147q0 47 -17 143q24 -31 71 -94q32 -50 32 -93q0 -9 -1 -19q37 26 74 50l75 47q-54 19 -118 58q-15 9 -110 72q170 -45 259 -49q44 -3 91 2 q22 22 30 31q15 17 24 34z" />
<glyph unicode="*" horiz-adv-x="510" d="M541 454l-177 7l178 55l-18 56l-166 -99l130 143l-51 28l-92 -167l31 177l-63 -10l17 -171l-78 143l-52 -44l120 -111l-158 55l-21 -62l177 -7l-178 -55l18 -56l166 99l-130 -143l52 -28l91 167l-31 -177l64 10l-18 171l78 -143l52 44l-120 111l158 -55z" />
<glyph unicode="+" d="M1010 452q-151 -3 -400 7q173 38 183 39q106 20 186 16q-48 40 -94 80q-65 -15 -148 -50l-142 -64q6 6 79 71q47 42 72 77q19 28 25 62l-48 40q-24 20 -45 43q1 -12 1 -23q0 -57 -32 -125q-17 -36 -39 -71l-43 -68q33 188 46 319q-26 -11 -79 -32q-24 -66 -20 -149 q3 -53 21 -144q-2 3 -57 72q-34 43 -49 77q-13 28 -13 61q-82 -61 -141 -96q94 -40 236 -135q-153 36 -174 40q-99 18 -177 15q-20 -20 -28 -29q-15 -17 -22 -33q197 -12 397 -18q-144 -31 -155 -33q-90 -17 -158 -17q-29 0 -57 3q1 -1 87 -83q68 11 153 45l146 64 q-10 -10 -81 -71q-49 -43 -75 -75q-23 -28 -37 -60q31 -27 90 -84q7 92 89 217q22 34 44 67q-32 -181 -66 -315q4 1 79 31q36 65 36 147q0 47 -17 143q24 -31 71 -94q32 -50 32 -93q0 -9 -1 -19q37 26 74 50l75 47q-54 19 -118 58q-15 9 -110 72q170 -45 259 -49q44 -3 91 2 q22 22 30 31q15 17 24 34z" />
<glyph unicode="," horiz-adv-x="331" d="M64 -150h60l116 150l32 180h-150z" />
<glyph unicode="-" d="M1010 452q-151 -3 -400 7q173 38 183 39q106 20 186 16q-48 40 -94 80q-65 -15 -148 -50l-142 -64q6 6 79 71q47 42 72 77q19 28 25 62l-48 40q-24 20 -45 43q1 -12 1 -23q0 -57 -32 -125q-17 -36 -39 -71l-43 -68q33 188 46 319q-26 -11 -79 -32q-24 -66 -20 -149 q3 -53 21 -144q-2 3 -57 72q-34 43 -49 77q-13 28 -13 61q-82 -61 -141 -96q94 -40 236 -135q-153 36 -174 40q-99 18 -177 15q-20 -20 -28 -29q-15 -17 -22 -33q197 -12 397 -18q-144 -31 -155 -33q-90 -17 -158 -17q-29 0 -57 3q1 -1 87 -83q68 11 153 45l146 64 q-10 -10 -81 -71q-49 -43 -75 -75q-23 -28 -37 -60q31 -27 90 -84q7 92 89 217q22 34 44 67q-32 -181 -66 -315q4 1 79 31q36 65 36 147q0 47 -17 143q24 -31 71 -94q32 -50 32 -93q0 -9 -1 -19q37 26 74 50l75 47q-54 19 -118 58q-15 9 -110 72q170 -45 259 -49q44 -3 91 2 q22 22 30 31q15 17 24 34z" />
<glyph unicode="." horiz-adv-x="360" d="M104 72q0 -32 22 -52t54 -20q43 0 75.5 32.5t32.5 75.5q0 32 -22 52t-54 20q-38 0 -68 -26q-40 -33 -40 -82z" />
<glyph unicode="/" d="M1010 452q-151 -3 -400 7q173 38 183 39q106 20 186 16q-48 40 -94 80q-65 -15 -148 -50l-142 -64q6 6 79 71q47 42 72 77q19 28 25 62l-48 40q-24 20 -45 43q1 -12 1 -23q0 -57 -32 -125q-17 -36 -39 -71l-43 -68q33 188 46 319q-26 -11 -79 -32q-24 -66 -20 -149 q3 -53 21 -144q-2 3 -57 72q-34 43 -49 77q-13 28 -13 61q-82 -61 -141 -96q94 -40 236 -135q-153 36 -174 40q-99 18 -177 15q-20 -20 -28 -29q-15 -17 -22 -33q197 -12 397 -18q-144 -31 -155 -33q-90 -17 -158 -17q-29 0 -57 3q1 -1 87 -83q68 11 153 45l146 64 q-10 -10 -81 -71q-49 -43 -75 -75q-23 -28 -37 -60q31 -27 90 -84q7 92 89 217q22 34 44 67q-32 -181 -66 -315q4 1 79 31q36 65 36 147q0 47 -17 143q24 -31 71 -94q32 -50 32 -93q0 -9 -1 -19q37 26 74 50l75 47q-54 19 -118 58q-15 9 -110 72q170 -45 259 -49q44 -3 91 2 q22 22 30 31q15 17 24 34z" />
<glyph unicode="0" horiz-adv-x="690" d="M588 780h-210l-50 60l106 90h299l-5 -30zM561 630l16 90l141 120h30l-58 -330h-30zM222 750l71 60l74 -90l-16 -90l-141 -120h-30zM476 150h-210l-141 -120l-5 -30h300l106 90zM503 300l-16 -90l74 -90l71 60l42 240h-30zM106 90h30l141 120l16 90l-99 120h-30z" />
<glyph unicode="1" horiz-adv-x="330" d="M351 630l16 90l-99 120h-30l-58 -330h30zM106 90h30l141 120l16 90l-99 120h-30z" />
<glyph unicode="2" horiz-adv-x="690" d="M279 390h270l70 60l6 30l-50 60h-270l-70 -60l-6 -30zM378 780h210l70 60l-74 90h-299l-5 -30zM732 750l-49 60l-106 -90l-16 -90l99 -120h30zM266 150h210l99 -120l-5 -30h-300l-74 90zM293 300l-16 -90l-106 -90l-49 60l42 240h30z" />
<glyph unicode="3" horiz-adv-x="660" d="M249 390h270l70 60l6 30l-50 60h-270l-70 -60l-6 -30zM348 780h210l70 60l-74 90h-299l-5 -30zM702 750l-49 60l-106 -90l-16 -90l99 -120h30zM446 150h-210l-141 -120l-5 -30h300l106 90zM473 300l-16 -90l74 -90l71 60l42 240h-30z" />
<glyph unicode="4" horiz-adv-x="690" d="M279 390h270l70 60l6 30l-50 60h-270l-70 -60l-6 -30zM351 630l16 90l-99 120h-30l-58 -330h30zM748 840h-30l-141 -120l-16 -90l99 -120h30zM503 300l-16 -90l99 -120h30l58 330h-30z" />
<glyph unicode="5" horiz-adv-x="690" d="M279 390h270l70 60l6 30l-50 60h-270l-70 -60l-6 -30zM378 780h210l141 120l5 30h-449l-5 -30zM351 630l16 90l-99 120h-30l-58 -330h30zM476 150h-210l-141 -120l-5 -30h449l5 30zM503 300l-16 -90l99 -120h30l58 330h-30z" />
<glyph unicode="6" horiz-adv-x="690" d="M549 390h-270l-50 60l6 30l70 60h270l50 -60l-6 -30zM588 780h-210l-50 60l106 90h299l-5 -30zM222 750l71 60l74 -90l-16 -90l-141 -120h-30zM266 150h210l50 -60l-106 -90h-150l-74 90zM293 300l-16 -90l-106 -90l-49 60l42 240h30zM632 180l-71 -60l-74 90l16 90 l141 120h30z" />
<glyph unicode="7" horiz-adv-x="660" d="M558 780h-210l-99 120l5 30h449l-5 -30zM531 630l16 90l141 120h30l-58 -330h-30zM586 90h-30l-99 120l16 90l141 120h30z" />
<glyph unicode="8" horiz-adv-x="690" d="M588 780h-210l-50 60l106 90h299l-5 -30zM561 630l16 90l141 120h30l-58 -330h-30zM222 750l71 60l74 -90l-16 -90l-141 -120h-30zM476 150h-210l-141 -120l-5 -30h300l106 90zM503 300l-16 -90l74 -90l71 60l42 240h-30zM106 90h30l141 120l16 90l-99 120h-30zM279 390 h270l70 60l6 30l-50 60h-270l-70 -60l-6 -30z" />
<glyph unicode="9" horiz-adv-x="690" d="M305 540h270l50 -60l-6 -30l-70 -60h-270l-50 60l6 30zM266 150h210l50 -60l-106 -90h-299l5 30zM632 180l-71 -60l-74 90l16 90l141 120h30zM588 780h-210l-50 60l106 90h150l74 -90zM561 630l16 90l106 90l49 -60l-42 -240h-30zM222 750l71 60l74 -90l-16 -90 l-141 -120h-30z" />
<glyph unicode=":" horiz-adv-x="360" d="M199 612q0 -32 22 -52t54 -20q43 0 75.5 32.5t32.5 75.5q0 32 -22 52t-54 20q-38 0 -68 -26q-40 -33 -40 -82zM141 282q0 -32 22 -52t54 -20q43 0 75.5 32.5t32.5 75.5q0 32 -22 52t-54 20q-38 0 -68 -26q-40 -33 -40 -82z" />
<glyph unicode=";" horiz-adv-x="360" d="M199 612q0 -32 22 -52t54 -20q43 0 75.5 32.5t32.5 75.5q0 32 -22 52t-54 20q-38 0 -68 -26q-40 -33 -40 -82zM114 60h60l116 150l32 180h-150z" />
<glyph unicode="&#x3c;" d="M1010 452q-151 -3 -400 7q173 38 183 39q106 20 186 16q-48 40 -94 80q-65 -15 -148 -50l-142 -64q6 6 79 71q47 42 72 77q19 28 25 62l-48 40q-24 20 -45 43q1 -12 1 -23q0 -57 -32 -125q-17 -36 -39 -71l-43 -68q33 188 46 319q-26 -11 -79 -32q-24 -66 -20 -149 q3 -53 21 -144q-2 3 -57 72q-34 43 -49 77q-13 28 -13 61q-82 -61 -141 -96q94 -40 236 -135q-153 36 -174 40q-99 18 -177 15q-20 -20 -28 -29q-15 -17 -22 -33q197 -12 397 -18q-144 -31 -155 -33q-90 -17 -158 -17q-29 0 -57 3q1 -1 87 -83q68 11 153 45l146 64 q-10 -10 -81 -71q-49 -43 -75 -75q-23 -28 -37 -60q31 -27 90 -84q7 92 89 217q22 34 44 67q-32 -181 -66 -315q4 1 79 31q36 65 36 147q0 47 -17 143q24 -31 71 -94q32 -50 32 -93q0 -9 -1 -19q37 26 74 50l75 47q-54 19 -118 58q-15 9 -110 72q170 -45 259 -49q44 -3 91 2 q22 22 30 31q15 17 24 34z" />
<glyph unicode="=" d="M1010 452q-151 -3 -400 7q173 38 183 39q106 20 186 16q-48 40 -94 80q-65 -15 -148 -50l-142 -64q6 6 79 71q47 42 72 77q19 28 25 62l-48 40q-24 20 -45 43q1 -12 1 -23q0 -57 -32 -125q-17 -36 -39 -71l-43 -68q33 188 46 319q-26 -11 -79 -32q-24 -66 -20 -149 q3 -53 21 -144q-2 3 -57 72q-34 43 -49 77q-13 28 -13 61q-82 -61 -141 -96q94 -40 236 -135q-153 36 -174 40q-99 18 -177 15q-20 -20 -28 -29q-15 -17 -22 -33q197 -12 397 -18q-144 -31 -155 -33q-90 -17 -158 -17q-29 0 -57 3q1 -1 87 -83q68 11 153 45l146 64 q-10 -10 -81 -71q-49 -43 -75 -75q-23 -28 -37 -60q31 -27 90 -84q7 92 89 217q22 34 44 67q-32 -181 -66 -315q4 1 79 31q36 65 36 147q0 47 -17 143q24 -31 71 -94q32 -50 32 -93q0 -9 -1 -19q37 26 74 50l75 47q-54 19 -118 58q-15 9 -110 72q170 -45 259 -49q44 -3 91 2 q22 22 30 31q15 17 24 34z" />
<glyph unicode="&#x3e;" d="M1010 452q-151 -3 -400 7q173 38 183 39q106 20 186 16q-48 40 -94 80q-65 -15 -148 -50l-142 -64q6 6 79 71q47 42 72 77q19 28 25 62l-48 40q-24 20 -45 43q1 -12 1 -23q0 -57 -32 -125q-17 -36 -39 -71l-43 -68q33 188 46 319q-26 -11 -79 -32q-24 -66 -20 -149 q3 -53 21 -144q-2 3 -57 72q-34 43 -49 77q-13 28 -13 61q-82 -61 -141 -96q94 -40 236 -135q-153 36 -174 40q-99 18 -177 15q-20 -20 -28 -29q-15 -17 -22 -33q197 -12 397 -18q-144 -31 -155 -33q-90 -17 -158 -17q-29 0 -57 3q1 -1 87 -83q68 11 153 45l146 64 q-10 -10 -81 -71q-49 -43 -75 -75q-23 -28 -37 -60q31 -27 90 -84q7 92 89 217q22 34 44 67q-32 -181 -66 -315q4 1 79 31q36 65 36 147q0 47 -17 143q24 -31 71 -94q32 -50 32 -93q0 -9 -1 -19q37 26 74 50l75 47q-54 19 -118 58q-15 9 -110 72q170 -45 259 -49q44 -3 91 2 q22 22 30 31q15 17 24 34z" />
<glyph unicode="?" d="M1010 452q-151 -3 -400 7q173 38 183 39q106 20 186 16q-48 40 -94 80q-65 -15 -148 -50l-142 -64q6 6 79 71q47 42 72 77q19 28 25 62l-48 40q-24 20 -45 43q1 -12 1 -23q0 -57 -32 -125q-17 -36 -39 -71l-43 -68q33 188 46 319q-26 -11 -79 -32q-24 -66 -20 -149 q3 -53 21 -144q-2 3 -57 72q-34 43 -49 77q-13 28 -13 61q-82 -61 -141 -96q94 -40 236 -135q-153 36 -174 40q-99 18 -177 15q-20 -20 -28 -29q-15 -17 -22 -33q197 -12 397 -18q-144 -31 -155 -33q-90 -17 -158 -17q-29 0 -57 3q1 -1 87 -83q68 11 153 45l146 64 q-10 -10 -81 -71q-49 -43 -75 -75q-23 -28 -37 -60q31 -27 90 -84q7 92 89 217q22 34 44 67q-32 -181 -66 -315q4 1 79 31q36 65 36 147q0 47 -17 143q24 -31 71 -94q32 -50 32 -93q0 -9 -1 -19q37 26 74 50l75 47q-54 19 -118 58q-15 9 -110 72q170 -45 259 -49q44 -3 91 2 q22 22 30 31q15 17 24 34z" />
<glyph unicode="@" d="M1010 452q-151 -3 -400 7q173 38 183 39q106 20 186 16q-48 40 -94 80q-65 -15 -148 -50l-142 -64q6 6 79 71q47 42 72 77q19 28 25 62l-48 40q-24 20 -45 43q1 -12 1 -23q0 -57 -32 -125q-17 -36 -39 -71l-43 -68q33 188 46 319q-26 -11 -79 -32q-24 -66 -20 -149 q3 -53 21 -144q-2 3 -57 72q-34 43 -49 77q-13 28 -13 61q-82 -61 -141 -96q94 -40 236 -135q-153 36 -174 40q-99 18 -177 15q-20 -20 -28 -29q-15 -17 -22 -33q197 -12 397 -18q-144 -31 -155 -33q-90 -17 -158 -17q-29 0 -57 3q1 -1 87 -83q68 11 153 45l146 64 q-10 -10 -81 -71q-49 -43 -75 -75q-23 -28 -37 -60q31 -27 90 -84q7 92 89 217q22 34 44 67q-32 -181 -66 -315q4 1 79 31q36 65 36 147q0 47 -17 143q24 -31 71 -94q32 -50 32 -93q0 -9 -1 -19q37 26 74 50l75 47q-54 19 -118 58q-15 9 -110 72q170 -45 259 -49q44 -3 91 2 q22 22 30 31q15 17 24 34z" />
<glyph unicode="A" horiz-adv-x="690" d="M279 390h270l70 60l6 30l-50 60h-270l-70 -60l-6 -30zM378 780h210l70 60l-74 90h-150l-106 -90zM351 630l16 90l-74 90l-71 -60l-42 -240h30zM732 750l-49 60l-106 -90l-16 -90l99 -120h30zM503 300l-16 -90l99 -120h30l58 330h-30zM106 90h30l141 120l16 90l-99 120 h-30z" />
<glyph unicode="B" horiz-adv-x="690" d="M279 390h270l70 60l6 30l-50 60h-270l-70 -60l-6 -30zM378 780h210l70 60l-74 90h-299l-5 -30zM351 630l16 90l-99 120h-30l-58 -330h30zM732 750l-49 60l-106 -90l-16 -90l99 -120h30zM476 150h-210l-141 -120l-5 -30h300l106 90zM503 300l-16 -90l74 -90l71 60l42 240 h-30zM106 90h30l141 120l16 90l-99 120h-30z" />
<glyph unicode="C" horiz-adv-x="690" d="M618 780h-240l-50 60l106 90h329l-5 -30zM222 750l71 60l74 -90l-16 -90l-141 -120h-30zM266 150h240l99 -120l-5 -30h-330l-74 90zM293 300l-16 -90l-106 -90l-49 60l42 240h30z" />
<glyph unicode="D" horiz-adv-x="690" d="M378 780h210l70 60l-74 90h-299l-5 -30zM351 630l16 90l-99 120h-30l-58 -330h30zM732 750l-49 60l-106 -90l-16 -90l99 -120h30zM476 150h-210l-141 -120l-5 -30h300l106 90zM503 300l-16 -90l74 -90l71 60l42 240h-30zM106 90h30l141 120l16 90l-99 120h-30z" />
<glyph unicode="E" horiz-adv-x="660" d="M279 390h270l70 60l6 30l-50 60h-270l-70 -60l-6 -30zM378 780h210l141 120l5 30h-449l-5 -30zM351 630l16 90l-99 120h-30l-58 -330h30zM476 150h-210l-141 -120l-5 -30h449l5 30zM106 90h30l141 120l16 90l-99 120h-30z" />
<glyph unicode="F" horiz-adv-x="660" d="M279 390h270l70 60l6 30l-50 60h-270l-70 -60l-6 -30zM378 780h210l141 120l5 30h-449l-5 -30zM351 630l16 90l-99 120h-30l-58 -330h30zM106 90h30l141 120l16 90l-99 120h-30z" />
<glyph unicode="G" horiz-adv-x="690" d="M588 780h-210l-50 60l106 90h299l-5 -30zM222 750l71 60l74 -90l-16 -90l-141 -120h-30zM266 150h210l99 -120l-5 -30h-300l-74 90zM293 300l-16 -90l-106 -90l-49 60l42 240h30zM616 90h-30l-99 120l16 90l141 120h30z" />
<glyph unicode="H" horiz-adv-x="690" d="M279 390h270l70 60l6 30l-50 60h-270l-70 -60l-6 -30zM351 630l16 90l-99 120h-30l-58 -330h30zM748 840h-30l-141 -120l-16 -90l99 -120h30zM503 300l-16 -90l99 -120h30l58 330h-30zM106 90h30l141 120l16 90l-99 120h-30z" />
<glyph unicode="I" horiz-adv-x="330" d="M351 630l16 90l-99 120h-30l-58 -330h30zM106 90h30l141 120l16 90l-99 120h-30z" />
<glyph unicode="J" horiz-adv-x="690" d="M577 720l-16 -90l99 -120h30l58 330h-30zM476 150h-210l-141 -120l-5 -30h300l106 90zM503 300l-16 -90l74 -90l71 60l42 240h-30zM106 90h30l141 120l16 90l-99 120h-30z" />
<glyph unicode="K" horiz-adv-x="690" d="M279 390h210l10 60l6 30l10 60h-210l-70 -60l-6 -30zM351 630l16 90l-99 120h-30l-58 -330h30zM748 840h-30l-141 -120l-37 -210h60l111 120zM524 420l-37 -210l99 -120h30l37 210l-69 120h-60zM106 90h30l141 120l16 90l-99 120h-30z" />
<glyph unicode="L" horiz-adv-x="690" d="M367 720l-16 -90l-141 -120h-30l58 330h30zM266 150h210l99 -120l-5 -30h-300l-74 90zM293 300l-16 -90l-106 -90l-49 60l42 240h30zM616 90h-30l-99 120l16 90l141 120h30z" />
<glyph unicode="M" horiz-adv-x="1080" d="M378 780h210l70 60l-74 90h-299l-5 -30zM351 630l16 90l-99 120h-30l-58 -330h30zM732 750l-49 60l-106 -90l-16 -90l99 -120h30zM106 90h30l141 120l16 90l-99 120h-30zM674 420h-30l-141 -120l-16 -90l99 -120h30zM978 780h-210l-50 60l106 90h299l-5 -30zM951 630 l16 90l141 120h30l-58 -330h-30zM1006 90h-30l-99 120l16 90l141 120h30z" />
<glyph unicode="N" horiz-adv-x="690" d="M378 780h210l70 60l-74 90h-299l-5 -30zM351 630l16 90l-99 120h-30l-58 -330h30zM732 750l-49 60l-106 -90l-16 -90l99 -120h30zM106 90h30l141 120l16 90l-99 120h-30zM674 420h-30l-141 -120l-16 -90l99 -120h30z" />
<glyph unicode="O" horiz-adv-x="690" d="M588 780h-210l-50 60l106 90h299l-5 -30zM561 630l16 90l141 120h30l-58 -330h-30zM222 750l71 60l74 -90l-16 -90l-141 -120h-30zM476 150h-210l-141 -120l-5 -30h300l106 90zM503 300l-16 -90l74 -90l71 60l42 240h-30zM106 90h30l141 120l16 90l-99 120h-30z" />
<glyph unicode="P" horiz-adv-x="690" d="M279 390h270l70 60l6 30l-50 60h-270l-70 -60l-6 -30zM378 780h210l70 60l-74 90h-299l-5 -30zM351 630l16 90l-99 120h-30l-58 -330h30zM732 750l-49 60l-106 -90l-16 -90l99 -120h30zM106 90h30l141 120l16 90l-99 120h-30z" />
<glyph unicode="Q" horiz-adv-x="690" d="M244 -150l282 240l-50 60h-210l-141 -120l-5 -30h150zM588 780l140 120l5 30h-299l-106 -90l50 -60h210zM561 630l99 -120h30l58 330h-30l-141 -120zM106 90h30l141 120l16 90l-99 120h-30zM222 750l-42 -240h30l141 120l16 90l-74 90zM503 300l-16 -90l74 -90l71 60 l42 240h-30z" />
<glyph unicode="R" horiz-adv-x="690" d="M279 390h210l10 60l6 30l10 60h-210l-70 -60l-6 -30zM351 630l16 90l-99 120h-30l-58 -330h30zM748 840h-30l-141 -120l-37 -210h60l111 120zM524 420l-37 -210l99 -120h30l37 210l-69 120h-60zM106 90h30l141 120l16 90l-99 120h-30zM378 780h210l141 120l5 30h-449 l-5 -30z" />
<glyph unicode="S" horiz-adv-x="690" d="M549 390h-270l-50 60l6 30l70 60h270l50 -60l-6 -30zM588 780h-210l-50 60l106 90h299l-5 -30zM222 750l71 60l74 -90l-16 -90l-141 -120h-30zM476 150h-210l-141 -120l-5 -30h300l106 90zM503 300l-16 -90l74 -90l71 60l42 240h-30z" />
<glyph unicode="T" horiz-adv-x="660" d="M378 780h210l141 120l5 30h-449l-5 -30zM351 630l16 90l-99 120h-30l-58 -330h30zM106 90h30l141 120l16 90l-99 120h-30z" />
<glyph unicode="U" horiz-adv-x="690" d="M351 630l16 90l-99 120h-30l-58 -330h30zM748 840h-30l-141 -120l-16 -90l99 -120h30zM476 150h-210l-141 -120l-5 -30h449l5 30zM503 300l-16 -90l99 -120h30l58 330h-30zM106 90h30l141 120l16 90l-99 120h-30z" />
<glyph unicode="V" horiz-adv-x="690" d="M266 150h210l50 -60l-106 -90h-150l-74 90zM293 300l-16 -90l-106 -90l-49 60l42 240h30zM632 180l-71 -60l-74 90l16 90l141 120h30zM351 630l16 90l-99 120h-30l-58 -330h30zM748 840h-30l-141 -120l-16 -90l99 -120h30z" />
<glyph unicode="W" horiz-adv-x="1080" d="M266 150h210l50 -60l-106 -90h-299l5 30zM293 300l-16 -90l-141 -120h-30l58 330h30zM632 180l-71 -60l-74 90l16 90l141 120h30zM238 840h30l99 -120l-16 -90l-141 -120h-30zM690 510h-30l-99 120l16 90l141 120h30zM866 150h-210l-70 -60l74 -90h299l5 30zM893 300 l-16 -90l99 -120h30l58 330h-30zM1138 840h-30l-141 -120l-16 -90l99 -120h30z" />
<glyph unicode="X" horiz-adv-x="690" d="M339 390h150l26 150h-150zM748 840h-30l-141 -120l-37 -210h60l111 120zM524 420l-37 -210l99 -120h30l37 210l-69 120h-60zM104 82h30l142 120l37 210h-60l-112 -120zM329 502l37 210l-99 120h-30l-37 -210l69 -120h60z" />
<glyph unicode="Y" horiz-adv-x="690" d="M476 150h-240l-141 -120l-5 -30h330l106 90zM503 300l-16 -90l74 -90l71 60l42 240h-30zM279 390h270l70 60l6 30l-50 60h-270l-70 -60l-6 -30zM351 630l16 90l-99 120h-30l-58 -330h30zM748 840h-30l-141 -120l-16 -90l99 -120h30z" />
<glyph unicode="Z" horiz-adv-x="690" d="M279 390h270l70 60l6 30l-50 60h-270l-70 -60l-6 -30zM378 780h210l70 60l-74 90h-299l-5 -30zM732 750l-49 60l-106 -90l-16 -90l99 -120h30zM266 150h210l99 -120l-5 -30h-300l-74 90zM293 300l-16 -90l-106 -90l-49 60l42 240h30z" />
<glyph unicode="[" d="M1010 452q-151 -3 -400 7q173 38 183 39q106 20 186 16q-48 40 -94 80q-65 -15 -148 -50l-142 -64q6 6 79 71q47 42 72 77q19 28 25 62l-48 40q-24 20 -45 43q1 -12 1 -23q0 -57 -32 -125q-17 -36 -39 -71l-43 -68q33 188 46 319q-26 -11 -79 -32q-24 -66 -20 -149 q3 -53 21 -144q-2 3 -57 72q-34 43 -49 77q-13 28 -13 61q-82 -61 -141 -96q94 -40 236 -135q-153 36 -174 40q-99 18 -177 15q-20 -20 -28 -29q-15 -17 -22 -33q197 -12 397 -18q-144 -31 -155 -33q-90 -17 -158 -17q-29 0 -57 3q1 -1 87 -83q68 11 153 45l146 64 q-10 -10 -81 -71q-49 -43 -75 -75q-23 -28 -37 -60q31 -27 90 -84q7 92 89 217q22 34 44 67q-32 -181 -66 -315q4 1 79 31q36 65 36 147q0 47 -17 143q24 -31 71 -94q32 -50 32 -93q0 -9 -1 -19q37 26 74 50l75 47q-54 19 -118 58q-15 9 -110 72q170 -45 259 -49q44 -3 91 2 q22 22 30 31q15 17 24 34z" />
<glyph unicode="\" d="M1010 452q-151 -3 -400 7q173 38 183 39q106 20 186 16q-48 40 -94 80q-65 -15 -148 -50l-142 -64q6 6 79 71q47 42 72 77q19 28 25 62l-48 40q-24 20 -45 43q1 -12 1 -23q0 -57 -32 -125q-17 -36 -39 -71l-43 -68q33 188 46 319q-26 -11 -79 -32q-24 -66 -20 -149 q3 -53 21 -144q-2 3 -57 72q-34 43 -49 77q-13 28 -13 61q-82 -61 -141 -96q94 -40 236 -135q-153 36 -174 40q-99 18 -177 15q-20 -20 -28 -29q-15 -17 -22 -33q197 -12 397 -18q-144 -31 -155 -33q-90 -17 -158 -17q-29 0 -57 3q1 -1 87 -83q68 11 153 45l146 64 q-10 -10 -81 -71q-49 -43 -75 -75q-23 -28 -37 -60q31 -27 90 -84q7 92 89 217q22 34 44 67q-32 -181 -66 -315q4 1 79 31q36 65 36 147q0 47 -17 143q24 -31 71 -94q32 -50 32 -93q0 -9 -1 -19q37 26 74 50l75 47q-54 19 -118 58q-15 9 -110 72q170 -45 259 -49q44 -3 91 2 q22 22 30 31q15 17 24 34z" />
<glyph unicode="]" d="M1010 452q-151 -3 -400 7q173 38 183 39q106 20 186 16q-48 40 -94 80q-65 -15 -148 -50l-142 -64q6 6 79 71q47 42 72 77q19 28 25 62l-48 40q-24 20 -45 43q1 -12 1 -23q0 -57 -32 -125q-17 -36 -39 -71l-43 -68q33 188 46 319q-26 -11 -79 -32q-24 -66 -20 -149 q3 -53 21 -144q-2 3 -57 72q-34 43 -49 77q-13 28 -13 61q-82 -61 -141 -96q94 -40 236 -135q-153 36 -174 40q-99 18 -177 15q-20 -20 -28 -29q-15 -17 -22 -33q197 -12 397 -18q-144 -31 -155 -33q-90 -17 -158 -17q-29 0 -57 3q1 -1 87 -83q68 11 153 45l146 64 q-10 -10 -81 -71q-49 -43 -75 -75q-23 -28 -37 -60q31 -27 90 -84q7 92 89 217q22 34 44 67q-32 -181 -66 -315q4 1 79 31q36 65 36 147q0 47 -17 143q24 -31 71 -94q32 -50 32 -93q0 -9 -1 -19q37 26 74 50l75 47q-54 19 -118 58q-15 9 -110 72q170 -45 259 -49q44 -3 91 2 q22 22 30 31q15 17 24 34z" />
<glyph unicode="^" d="M1010 452q-151 -3 -400 7q173 38 183 39q106 20 186 16q-48 40 -94 80q-65 -15 -148 -50l-142 -64q6 6 79 71q47 42 72 77q19 28 25 62l-48 40q-24 20 -45 43q1 -12 1 -23q0 -57 -32 -125q-17 -36 -39 -71l-43 -68q33 188 46 319q-26 -11 -79 -32q-24 -66 -20 -149 q3 -53 21 -144q-2 3 -57 72q-34 43 -49 77q-13 28 -13 61q-82 -61 -141 -96q94 -40 236 -135q-153 36 -174 40q-99 18 -177 15q-20 -20 -28 -29q-15 -17 -22 -33q197 -12 397 -18q-144 -31 -155 -33q-90 -17 -158 -17q-29 0 -57 3q1 -1 87 -83q68 11 153 45l146 64 q-10 -10 -81 -71q-49 -43 -75 -75q-23 -28 -37 -60q31 -27 90 -84q7 92 89 217q22 34 44 67q-32 -181 -66 -315q4 1 79 31q36 65 36 147q0 47 -17 143q24 -31 71 -94q32 -50 32 -93q0 -9 -1 -19q37 26 74 50l75 47q-54 19 -118 58q-15 9 -110 72q170 -45 259 -49q44 -3 91 2 q22 22 30 31q15 17 24 34z" />
<glyph unicode="_" d="M1010 452q-151 -3 -400 7q173 38 183 39q106 20 186 16q-48 40 -94 80q-65 -15 -148 -50l-142 -64q6 6 79 71q47 42 72 77q19 28 25 62l-48 40q-24 20 -45 43q1 -12 1 -23q0 -57 -32 -125q-17 -36 -39 -71l-43 -68q33 188 46 319q-26 -11 -79 -32q-24 -66 -20 -149 q3 -53 21 -144q-2 3 -57 72q-34 43 -49 77q-13 28 -13 61q-82 -61 -141 -96q94 -40 236 -135q-153 36 -174 40q-99 18 -177 15q-20 -20 -28 -29q-15 -17 -22 -33q197 -12 397 -18q-144 -31 -155 -33q-90 -17 -158 -17q-29 0 -57 3q1 -1 87 -83q68 11 153 45l146 64 q-10 -10 -81 -71q-49 -43 -75 -75q-23 -28 -37 -60q31 -27 90 -84q7 92 89 217q22 34 44 67q-32 -181 -66 -315q4 1 79 31q36 65 36 147q0 47 -17 143q24 -31 71 -94q32 -50 32 -93q0 -9 -1 -19q37 26 74 50l75 47q-54 19 -118 58q-15 9 -110 72q170 -45 259 -49q44 -3 91 2 q22 22 30 31q15 17 24 34z" />
<glyph unicode="`" d="M1010 452q-151 -3 -400 7q173 38 183 39q106 20 186 16q-48 40 -94 80q-65 -15 -148 -50l-142 -64q6 6 79 71q47 42 72 77q19 28 25 62l-48 40q-24 20 -45 43q1 -12 1 -23q0 -57 -32 -125q-17 -36 -39 -71l-43 -68q33 188 46 319q-26 -11 -79 -32q-24 -66 -20 -149 q3 -53 21 -144q-2 3 -57 72q-34 43 -49 77q-13 28 -13 61q-82 -61 -141 -96q94 -40 236 -135q-153 36 -174 40q-99 18 -177 15q-20 -20 -28 -29q-15 -17 -22 -33q197 -12 397 -18q-144 -31 -155 -33q-90 -17 -158 -17q-29 0 -57 3q1 -1 87 -83q68 11 153 45l146 64 q-10 -10 -81 -71q-49 -43 -75 -75q-23 -28 -37 -60q31 -27 90 -84q7 92 89 217q22 34 44 67q-32 -181 -66 -315q4 1 79 31q36 65 36 147q0 47 -17 143q24 -31 71 -94q32 -50 32 -93q0 -9 -1 -19q37 26 74 50l75 47q-54 19 -118 58q-15 9 -110 72q170 -45 259 -49q44 -3 91 2 q22 22 30 31q15 17 24 34z" />
<glyph unicode="a" horiz-adv-x="690" d="M279 390h270l70 60l6 30l-50 60h-270l-70 -60l-6 -30zM378 780h210l70 60l-74 90h-150l-106 -90zM351 630l16 90l-74 90l-71 -60l-42 -240h30zM732 750l-49 60l-106 -90l-16 -90l99 -120h30zM503 300l-16 -90l99 -120h30l58 330h-30zM106 90h30l141 120l16 90l-99 120 h-30z" />
<glyph unicode="b" horiz-adv-x="690" d="M279 390h270l70 60l6 30l-50 60h-270l-70 -60l-6 -30zM378 780h210l70 60l-74 90h-299l-5 -30zM351 630l16 90l-99 120h-30l-58 -330h30zM732 750l-49 60l-106 -90l-16 -90l99 -120h30zM476 150h-210l-141 -120l-5 -30h300l106 90zM503 300l-16 -90l74 -90l71 60l42 240 h-30zM106 90h30l141 120l16 90l-99 120h-30z" />
<glyph unicode="c" horiz-adv-x="690" d="M618 780h-240l-50 60l106 90h329l-5 -30zM222 750l71 60l74 -90l-16 -90l-141 -120h-30zM266 150h240l99 -120l-5 -30h-330l-74 90zM293 300l-16 -90l-106 -90l-49 60l42 240h30z" />
<glyph unicode="d" horiz-adv-x="690" d="M378 780h210l70 60l-74 90h-299l-5 -30zM351 630l16 90l-99 120h-30l-58 -330h30zM732 750l-49 60l-106 -90l-16 -90l99 -120h30zM476 150h-210l-141 -120l-5 -30h300l106 90zM503 300l-16 -90l74 -90l71 60l42 240h-30zM106 90h30l141 120l16 90l-99 120h-30z" />
<glyph unicode="e" horiz-adv-x="660" d="M279 390h270l70 60l6 30l-50 60h-270l-70 -60l-6 -30zM378 780h210l141 120l5 30h-449l-5 -30zM351 630l16 90l-99 120h-30l-58 -330h30zM476 150h-210l-141 -120l-5 -30h449l5 30zM106 90h30l141 120l16 90l-99 120h-30z" />
<glyph unicode="f" horiz-adv-x="660" d="M279 390h270l70 60l6 30l-50 60h-270l-70 -60l-6 -30zM378 780h210l141 120l5 30h-449l-5 -30zM351 630l16 90l-99 120h-30l-58 -330h30zM106 90h30l141 120l16 90l-99 120h-30z" />
<glyph unicode="g" horiz-adv-x="690" d="M588 780h-210l-50 60l106 90h299l-5 -30zM222 750l71 60l74 -90l-16 -90l-141 -120h-30zM266 150h210l99 -120l-5 -30h-300l-74 90zM293 300l-16 -90l-106 -90l-49 60l42 240h30zM616 90h-30l-99 120l16 90l141 120h30z" />
<glyph unicode="h" horiz-adv-x="690" d="M279 390h270l70 60l6 30l-50 60h-270l-70 -60l-6 -30zM351 630l16 90l-99 120h-30l-58 -330h30zM748 840h-30l-141 -120l-16 -90l99 -120h30zM503 300l-16 -90l99 -120h30l58 330h-30zM106 90h30l141 120l16 90l-99 120h-30z" />
<glyph unicode="i" horiz-adv-x="330" d="M351 630l16 90l-99 120h-30l-58 -330h30zM106 90h30l141 120l16 90l-99 120h-30z" />
<glyph unicode="j" horiz-adv-x="690" d="M577 720l-16 -90l99 -120h30l58 330h-30zM476 150h-210l-141 -120l-5 -30h300l106 90zM503 300l-16 -90l74 -90l71 60l42 240h-30zM106 90h30l141 120l16 90l-99 120h-30z" />
<glyph unicode="k" horiz-adv-x="690" d="M279 390h210l10 60l6 30l10 60h-210l-70 -60l-6 -30zM351 630l16 90l-99 120h-30l-58 -330h30zM748 840h-30l-141 -120l-37 -210h60l111 120zM524 420l-37 -210l99 -120h30l37 210l-69 120h-60zM106 90h30l141 120l16 90l-99 120h-30z" />
<glyph unicode="l" horiz-adv-x="690" d="M367 720l-16 -90l-141 -120h-30l58 330h30zM266 150h210l99 -120l-5 -30h-300l-74 90zM293 300l-16 -90l-106 -90l-49 60l42 240h30zM616 90h-30l-99 120l16 90l141 120h30z" />
<glyph unicode="m" horiz-adv-x="1080" d="M378 780h210l70 60l-74 90h-299l-5 -30zM351 630l16 90l-99 120h-30l-58 -330h30zM732 750l-49 60l-106 -90l-16 -90l99 -120h30zM106 90h30l141 120l16 90l-99 120h-30zM674 420h-30l-141 -120l-16 -90l99 -120h30zM978 780h-210l-50 60l106 90h299l-5 -30zM951 630 l16 90l141 120h30l-58 -330h-30zM1006 90h-30l-99 120l16 90l141 120h30z" />
<glyph unicode="n" horiz-adv-x="690" d="M378 780h210l70 60l-74 90h-299l-5 -30zM351 630l16 90l-99 120h-30l-58 -330h30zM732 750l-49 60l-106 -90l-16 -90l99 -120h30zM106 90h30l141 120l16 90l-99 120h-30zM674 420h-30l-141 -120l-16 -90l99 -120h30z" />
<glyph unicode="o" horiz-adv-x="690" d="M588 780h-210l-50 60l106 90h299l-5 -30zM561 630l16 90l141 120h30l-58 -330h-30zM222 750l71 60l74 -90l-16 -90l-141 -120h-30zM476 150h-210l-141 -120l-5 -30h300l106 90zM503 300l-16 -90l74 -90l71 60l42 240h-30zM106 90h30l141 120l16 90l-99 120h-30z" />
<glyph unicode="p" horiz-adv-x="690" d="M279 390h270l70 60l6 30l-50 60h-270l-70 -60l-6 -30zM378 780h210l70 60l-74 90h-299l-5 -30zM351 630l16 90l-99 120h-30l-58 -330h30zM732 750l-49 60l-106 -90l-16 -90l99 -120h30zM106 90h30l141 120l16 90l-99 120h-30z" />
<glyph unicode="q" horiz-adv-x="690" d="M244 -150l282 240l-50 60h-210l-141 -120l-5 -30h150zM588 780l140 120l5 30h-299l-106 -90l50 -60h210zM561 630l99 -120h30l58 330h-30l-141 -120zM106 90h30l141 120l16 90l-99 120h-30zM222 750l-42 -240h30l141 120l16 90l-74 90zM503 300l-16 -90l74 -90l71 60 l42 240h-30z" />
<glyph unicode="r" horiz-adv-x="690" d="M279 390h210l10 60l6 30l10 60h-210l-70 -60l-6 -30zM351 630l16 90l-99 120h-30l-58 -330h30zM748 840h-30l-141 -120l-37 -210h60l111 120zM524 420l-37 -210l99 -120h30l37 210l-69 120h-60zM106 90h30l141 120l16 90l-99 120h-30zM378 780h210l141 120l5 30h-449 l-5 -30z" />
<glyph unicode="s" horiz-adv-x="690" d="M549 390h-270l-50 60l6 30l70 60h270l50 -60l-6 -30zM588 780h-210l-50 60l106 90h299l-5 -30zM222 750l71 60l74 -90l-16 -90l-141 -120h-30zM476 150h-210l-141 -120l-5 -30h300l106 90zM503 300l-16 -90l74 -90l71 60l42 240h-30z" />
<glyph unicode="t" horiz-adv-x="660" d="M378 780h210l141 120l5 30h-449l-5 -30zM351 630l16 90l-99 120h-30l-58 -330h30zM106 90h30l141 120l16 90l-99 120h-30z" />
<glyph unicode="u" horiz-adv-x="690" d="M351 630l16 90l-99 120h-30l-58 -330h30zM748 840h-30l-141 -120l-16 -90l99 -120h30zM476 150h-210l-141 -120l-5 -30h449l5 30zM503 300l-16 -90l99 -120h30l58 330h-30zM106 90h30l141 120l16 90l-99 120h-30z" />
<glyph unicode="v" horiz-adv-x="690" d="M266 150h210l50 -60l-106 -90h-150l-74 90zM293 300l-16 -90l-106 -90l-49 60l42 240h30zM632 180l-71 -60l-74 90l16 90l141 120h30zM351 630l16 90l-99 120h-30l-58 -330h30zM748 840h-30l-141 -120l-16 -90l99 -120h30z" />
<glyph unicode="w" horiz-adv-x="1080" d="M266 150h210l50 -60l-106 -90h-299l5 30zM293 300l-16 -90l-141 -120h-30l58 330h30zM632 180l-71 -60l-74 90l16 90l141 120h30zM238 840h30l99 -120l-16 -90l-141 -120h-30zM690 510h-30l-99 120l16 90l141 120h30zM866 150h-210l-70 -60l74 -90h299l5 30zM893 300 l-16 -90l99 -120h30l58 330h-30zM1138 840h-30l-141 -120l-16 -90l99 -120h30z" />
<glyph unicode="x" horiz-adv-x="690" d="M339 390h150l26 150h-150zM748 840h-30l-141 -120l-37 -210h60l111 120zM524 420l-37 -210l99 -120h30l37 210l-69 120h-60zM104 82h30l142 120l37 210h-60l-112 -120zM329 502l37 210l-99 120h-30l-37 -210l69 -120h60z" />
<glyph unicode="y" horiz-adv-x="690" d="M476 150h-240l-141 -120l-5 -30h330l106 90zM503 300l-16 -90l74 -90l71 60l42 240h-30zM279 390h270l70 60l6 30l-50 60h-270l-70 -60l-6 -30zM351 630l16 90l-99 120h-30l-58 -330h30zM748 840h-30l-141 -120l-16 -90l99 -120h30z" />
<glyph unicode="z" horiz-adv-x="690" d="M279 390h270l70 60l6 30l-50 60h-270l-70 -60l-6 -30zM378 780h210l70 60l-74 90h-299l-5 -30zM732 750l-49 60l-106 -90l-16 -90l99 -120h30zM266 150h210l99 -120l-5 -30h-300l-74 90zM293 300l-16 -90l-106 -90l-49 60l42 240h30z" />
<glyph unicode="{" d="M1010 452q-151 -3 -400 7q173 38 183 39q106 20 186 16q-48 40 -94 80q-65 -15 -148 -50l-142 -64q6 6 79 71q47 42 72 77q19 28 25 62l-48 40q-24 20 -45 43q1 -12 1 -23q0 -57 -32 -125q-17 -36 -39 -71l-43 -68q33 188 46 319q-26 -11 -79 -32q-24 -66 -20 -149 q3 -53 21 -144q-2 3 -57 72q-34 43 -49 77q-13 28 -13 61q-82 -61 -141 -96q94 -40 236 -135q-153 36 -174 40q-99 18 -177 15q-20 -20 -28 -29q-15 -17 -22 -33q197 -12 397 -18q-144 -31 -155 -33q-90 -17 -158 -17q-29 0 -57 3q1 -1 87 -83q68 11 153 45l146 64 q-10 -10 -81 -71q-49 -43 -75 -75q-23 -28 -37 -60q31 -27 90 -84q7 92 89 217q22 34 44 67q-32 -181 -66 -315q4 1 79 31q36 65 36 147q0 47 -17 143q24 -31 71 -94q32 -50 32 -93q0 -9 -1 -19q37 26 74 50l75 47q-54 19 -118 58q-15 9 -110 72q170 -45 259 -49q44 -3 91 2 q22 22 30 31q15 17 24 34z" />
<glyph unicode="|" d="M1010 452q-151 -3 -400 7q173 38 183 39q106 20 186 16q-48 40 -94 80q-65 -15 -148 -50l-142 -64q6 6 79 71q47 42 72 77q19 28 25 62l-48 40q-24 20 -45 43q1 -12 1 -23q0 -57 -32 -125q-17 -36 -39 -71l-43 -68q33 188 46 319q-26 -11 -79 -32q-24 -66 -20 -149 q3 -53 21 -144q-2 3 -57 72q-34 43 -49 77q-13 28 -13 61q-82 -61 -141 -96q94 -40 236 -135q-153 36 -174 40q-99 18 -177 15q-20 -20 -28 -29q-15 -17 -22 -33q197 -12 397 -18q-144 -31 -155 -33q-90 -17 -158 -17q-29 0 -57 3q1 -1 87 -83q68 11 153 45l146 64 q-10 -10 -81 -71q-49 -43 -75 -75q-23 -28 -37 -60q31 -27 90 -84q7 92 89 217q22 34 44 67q-32 -181 -66 -315q4 1 79 31q36 65 36 147q0 47 -17 143q24 -31 71 -94q32 -50 32 -93q0 -9 -1 -19q37 26 74 50l75 47q-54 19 -118 58q-15 9 -110 72q170 -45 259 -49q44 -3 91 2 q22 22 30 31q15 17 24 34z" />
<glyph unicode="}" d="M1010 452q-151 -3 -400 7q173 38 183 39q106 20 186 16q-48 40 -94 80q-65 -15 -148 -50l-142 -64q6 6 79 71q47 42 72 77q19 28 25 62l-48 40q-24 20 -45 43q1 -12 1 -23q0 -57 -32 -125q-17 -36 -39 -71l-43 -68q33 188 46 319q-26 -11 -79 -32q-24 -66 -20 -149 q3 -53 21 -144q-2 3 -57 72q-34 43 -49 77q-13 28 -13 61q-82 -61 -141 -96q94 -40 236 -135q-153 36 -174 40q-99 18 -177 15q-20 -20 -28 -29q-15 -17 -22 -33q197 -12 397 -18q-144 -31 -155 -33q-90 -17 -158 -17q-29 0 -57 3q1 -1 87 -83q68 11 153 45l146 64 q-10 -10 -81 -71q-49 -43 -75 -75q-23 -28 -37 -60q31 -27 90 -84q7 92 89 217q22 34 44 67q-32 -181 -66 -315q4 1 79 31q36 65 36 147q0 47 -17 143q24 -31 71 -94q32 -50 32 -93q0 -9 -1 -19q37 26 74 50l75 47q-54 19 -118 58q-15 9 -110 72q170 -45 259 -49q44 -3 91 2 q22 22 30 31q15 17 24 34z" />
<glyph unicode="~" d="M1010 452q-151 -3 -400 7q173 38 183 39q106 20 186 16q-48 40 -94 80q-65 -15 -148 -50l-142 -64q6 6 79 71q47 42 72 77q19 28 25 62l-48 40q-24 20 -45 43q1 -12 1 -23q0 -57 -32 -125q-17 -36 -39 -71l-43 -68q33 188 46 319q-26 -11 -79 -32q-24 -66 -20 -149 q3 -53 21 -144q-2 3 -57 72q-34 43 -49 77q-13 28 -13 61q-82 -61 -141 -96q94 -40 236 -135q-153 36 -174 40q-99 18 -177 15q-20 -20 -28 -29q-15 -17 -22 -33q197 -12 397 -18q-144 -31 -155 -33q-90 -17 -158 -17q-29 0 -57 3q1 -1 87 -83q68 11 153 45l146 64 q-10 -10 -81 -71q-49 -43 -75 -75q-23 -28 -37 -60q31 -27 90 -84q7 92 89 217q22 34 44 67q-32 -181 -66 -315q4 1 79 31q36 65 36 147q0 47 -17 143q24 -31 71 -94q32 -50 32 -93q0 -9 -1 -19q37 26 74 50l75 47q-54 19 -118 58q-15 9 -110 72q170 -45 259 -49q44 -3 91 2 q22 22 30 31q15 17 24 34z" />
<glyph unicode="&#xad;" d="M1010 452q-151 -3 -400 7q173 38 183 39q106 20 186 16q-48 40 -94 80q-65 -15 -148 -50l-142 -64q6 6 79 71q47 42 72 77q19 28 25 62l-48 40q-24 20 -45 43q1 -12 1 -23q0 -57 -32 -125q-17 -36 -39 -71l-43 -68q33 188 46 319q-26 -11 -79 -32q-24 -66 -20 -149 q3 -53 21 -144q-2 3 -57 72q-34 43 -49 77q-13 28 -13 61q-82 -61 -141 -96q94 -40 236 -135q-153 36 -174 40q-99 18 -177 15q-20 -20 -28 -29q-15 -17 -22 -33q197 -12 397 -18q-144 -31 -155 -33q-90 -17 -158 -17q-29 0 -57 3q1 -1 87 -83q68 11 153 45l146 64 q-10 -10 -81 -71q-49 -43 -75 -75q-23 -28 -37 -60q31 -27 90 -84q7 92 89 217q22 34 44 67q-32 -181 -66 -315q4 1 79 31q36 65 36 147q0 47 -17 143q24 -31 71 -94q32 -50 32 -93q0 -9 -1 -19q37 26 74 50l75 47q-54 19 -118 58q-15 9 -110 72q170 -45 259 -49q44 -3 91 2 q22 22 30 31q15 17 24 34z" />
<glyph unicode="&#xc0;" d="M1010 452q-151 -3 -400 7q173 38 183 39q106 20 186 16q-48 40 -94 80q-65 -15 -148 -50l-142 -64q6 6 79 71q47 42 72 77q19 28 25 62l-48 40q-24 20 -45 43q1 -12 1 -23q0 -57 -32 -125q-17 -36 -39 -71l-43 -68q33 188 46 319q-26 -11 -79 -32q-24 -66 -20 -149 q3 -53 21 -144q-2 3 -57 72q-34 43 -49 77q-13 28 -13 61q-82 -61 -141 -96q94 -40 236 -135q-153 36 -174 40q-99 18 -177 15q-20 -20 -28 -29q-15 -17 -22 -33q197 -12 397 -18q-144 -31 -155 -33q-90 -17 -158 -17q-29 0 -57 3q1 -1 87 -83q68 11 153 45l146 64 q-10 -10 -81 -71q-49 -43 -75 -75q-23 -28 -37 -60q31 -27 90 -84q7 92 89 217q22 34 44 67q-32 -181 -66 -315q4 1 79 31q36 65 36 147q0 47 -17 143q24 -31 71 -94q32 -50 32 -93q0 -9 -1 -19q37 26 74 50l75 47q-54 19 -118 58q-15 9 -110 72q170 -45 259 -49q44 -3 91 2 q22 22 30 31q15 17 24 34z" />
<glyph unicode="&#xc1;" d="M1010 452q-151 -3 -400 7q173 38 183 39q106 20 186 16q-48 40 -94 80q-65 -15 -148 -50l-142 -64q6 6 79 71q47 42 72 77q19 28 25 62l-48 40q-24 20 -45 43q1 -12 1 -23q0 -57 -32 -125q-17 -36 -39 -71l-43 -68q33 188 46 319q-26 -11 -79 -32q-24 -66 -20 -149 q3 -53 21 -144q-2 3 -57 72q-34 43 -49 77q-13 28 -13 61q-82 -61 -141 -96q94 -40 236 -135q-153 36 -174 40q-99 18 -177 15q-20 -20 -28 -29q-15 -17 -22 -33q197 -12 397 -18q-144 -31 -155 -33q-90 -17 -158 -17q-29 0 -57 3q1 -1 87 -83q68 11 153 45l146 64 q-10 -10 -81 -71q-49 -43 -75 -75q-23 -28 -37 -60q31 -27 90 -84q7 92 89 217q22 34 44 67q-32 -181 -66 -315q4 1 79 31q36 65 36 147q0 47 -17 143q24 -31 71 -94q32 -50 32 -93q0 -9 -1 -19q37 26 74 50l75 47q-54 19 -118 58q-15 9 -110 72q170 -45 259 -49q44 -3 91 2 q22 22 30 31q15 17 24 34z" />
<glyph unicode="&#xc2;" d="M1010 452q-151 -3 -400 7q173 38 183 39q106 20 186 16q-48 40 -94 80q-65 -15 -148 -50l-142 -64q6 6 79 71q47 42 72 77q19 28 25 62l-48 40q-24 20 -45 43q1 -12 1 -23q0 -57 -32 -125q-17 -36 -39 -71l-43 -68q33 188 46 319q-26 -11 -79 -32q-24 -66 -20 -149 q3 -53 21 -144q-2 3 -57 72q-34 43 -49 77q-13 28 -13 61q-82 -61 -141 -96q94 -40 236 -135q-153 36 -174 40q-99 18 -177 15q-20 -20 -28 -29q-15 -17 -22 -33q197 -12 397 -18q-144 -31 -155 -33q-90 -17 -158 -17q-29 0 -57 3q1 -1 87 -83q68 11 153 45l146 64 q-10 -10 -81 -71q-49 -43 -75 -75q-23 -28 -37 -60q31 -27 90 -84q7 92 89 217q22 34 44 67q-32 -181 -66 -315q4 1 79 31q36 65 36 147q0 47 -17 143q24 -31 71 -94q32 -50 32 -93q0 -9 -1 -19q37 26 74 50l75 47q-54 19 -118 58q-15 9 -110 72q170 -45 259 -49q44 -3 91 2 q22 22 30 31q15 17 24 34z" />
<glyph unicode="&#xc3;" d="M1010 452q-151 -3 -400 7q173 38 183 39q106 20 186 16q-48 40 -94 80q-65 -15 -148 -50l-142 -64q6 6 79 71q47 42 72 77q19 28 25 62l-48 40q-24 20 -45 43q1 -12 1 -23q0 -57 -32 -125q-17 -36 -39 -71l-43 -68q33 188 46 319q-26 -11 -79 -32q-24 -66 -20 -149 q3 -53 21 -144q-2 3 -57 72q-34 43 -49 77q-13 28 -13 61q-82 -61 -141 -96q94 -40 236 -135q-153 36 -174 40q-99 18 -177 15q-20 -20 -28 -29q-15 -17 -22 -33q197 -12 397 -18q-144 -31 -155 -33q-90 -17 -158 -17q-29 0 -57 3q1 -1 87 -83q68 11 153 45l146 64 q-10 -10 -81 -71q-49 -43 -75 -75q-23 -28 -37 -60q31 -27 90 -84q7 92 89 217q22 34 44 67q-32 -181 -66 -315q4 1 79 31q36 65 36 147q0 47 -17 143q24 -31 71 -94q32 -50 32 -93q0 -9 -1 -19q37 26 74 50l75 47q-54 19 -118 58q-15 9 -110 72q170 -45 259 -49q44 -3 91 2 q22 22 30 31q15 17 24 34z" />
<glyph unicode="&#xc4;" d="M1010 452q-151 -3 -400 7q173 38 183 39q106 20 186 16q-48 40 -94 80q-65 -15 -148 -50l-142 -64q6 6 79 71q47 42 72 77q19 28 25 62l-48 40q-24 20 -45 43q1 -12 1 -23q0 -57 -32 -125q-17 -36 -39 -71l-43 -68q33 188 46 319q-26 -11 -79 -32q-24 -66 -20 -149 q3 -53 21 -144q-2 3 -57 72q-34 43 -49 77q-13 28 -13 61q-82 -61 -141 -96q94 -40 236 -135q-153 36 -174 40q-99 18 -177 15q-20 -20 -28 -29q-15 -17 -22 -33q197 -12 397 -18q-144 -31 -155 -33q-90 -17 -158 -17q-29 0 -57 3q1 -1 87 -83q68 11 153 45l146 64 q-10 -10 -81 -71q-49 -43 -75 -75q-23 -28 -37 -60q31 -27 90 -84q7 92 89 217q22 34 44 67q-32 -181 -66 -315q4 1 79 31q36 65 36 147q0 47 -17 143q24 -31 71 -94q32 -50 32 -93q0 -9 -1 -19q37 26 74 50l75 47q-54 19 -118 58q-15 9 -110 72q170 -45 259 -49q44 -3 91 2 q22 22 30 31q15 17 24 34z" />
<glyph unicode="&#xc5;" horiz-adv-x="690" d="M635 1050h-210l-81 -120l-16 -90l50 -60h210l70 60l16 90zM279 390h270l70 60l6 30l-50 60h-270l-70 -60l-6 -30zM503 300l-16 -90l99 -120h30l58 330h-30zM106 90h30l141 120l16 90l-99 120h-30zM351 630l16 90l-74 90l-71 -60l-42 -240h30zM732 750l-49 60l-106 -90 l-16 -90l99 -120h30zM434 930l41 60h90l19 -60h-150z" />
<glyph unicode="&#xc6;" horiz-adv-x="1020" d="M279 390h270l70 60l6 30l-50 60h-270l-70 -60l-6 -30zM378 780h210l70 60l-74 90h-150l-106 -90zM351 630l16 90l-74 90l-71 -60l-42 -240h30zM732 750l-49 60l-106 -90l-16 -90l99 -120h30zM503 300l-37 -210h30l141 120l37 210h-30zM106 90h30l141 120l16 90l-99 120 h-30zM699 390h210l70 60l6 30l-50 60h-210zM738 780h210l141 120l5 30h-449l-5 -30zM836 150h-210l-141 -120l-5 -30h449l5 30z" />
<glyph unicode="&#xc7;" d="M1010 452q-151 -3 -400 7q173 38 183 39q106 20 186 16q-48 40 -94 80q-65 -15 -148 -50l-142 -64q6 6 79 71q47 42 72 77q19 28 25 62l-48 40q-24 20 -45 43q1 -12 1 -23q0 -57 -32 -125q-17 -36 -39 -71l-43 -68q33 188 46 319q-26 -11 -79 -32q-24 -66 -20 -149 q3 -53 21 -144q-2 3 -57 72q-34 43 -49 77q-13 28 -13 61q-82 -61 -141 -96q94 -40 236 -135q-153 36 -174 40q-99 18 -177 15q-20 -20 -28 -29q-15 -17 -22 -33q197 -12 397 -18q-144 -31 -155 -33q-90 -17 -158 -17q-29 0 -57 3q1 -1 87 -83q68 11 153 45l146 64 q-10 -10 -81 -71q-49 -43 -75 -75q-23 -28 -37 -60q31 -27 90 -84q7 92 89 217q22 34 44 67q-32 -181 -66 -315q4 1 79 31q36 65 36 147q0 47 -17 143q24 -31 71 -94q32 -50 32 -93q0 -9 -1 -19q37 26 74 50l75 47q-54 19 -118 58q-15 9 -110 72q170 -45 259 -49q44 -3 91 2 q22 22 30 31q15 17 24 34z" />
<glyph unicode="&#xc8;" d="M1010 452q-151 -3 -400 7q173 38 183 39q106 20 186 16q-48 40 -94 80q-65 -15 -148 -50l-142 -64q6 6 79 71q47 42 72 77q19 28 25 62l-48 40q-24 20 -45 43q1 -12 1 -23q0 -57 -32 -125q-17 -36 -39 -71l-43 -68q33 188 46 319q-26 -11 -79 -32q-24 -66 -20 -149 q3 -53 21 -144q-2 3 -57 72q-34 43 -49 77q-13 28 -13 61q-82 -61 -141 -96q94 -40 236 -135q-153 36 -174 40q-99 18 -177 15q-20 -20 -28 -29q-15 -17 -22 -33q197 -12 397 -18q-144 -31 -155 -33q-90 -17 -158 -17q-29 0 -57 3q1 -1 87 -83q68 11 153 45l146 64 q-10 -10 -81 -71q-49 -43 -75 -75q-23 -28 -37 -60q31 -27 90 -84q7 92 89 217q22 34 44 67q-32 -181 -66 -315q4 1 79 31q36 65 36 147q0 47 -17 143q24 -31 71 -94q32 -50 32 -93q0 -9 -1 -19q37 26 74 50l75 47q-54 19 -118 58q-15 9 -110 72q170 -45 259 -49q44 -3 91 2 q22 22 30 31q15 17 24 34z" />
<glyph unicode="&#xc9;" d="M1010 452q-151 -3 -400 7q173 38 183 39q106 20 186 16q-48 40 -94 80q-65 -15 -148 -50l-142 -64q6 6 79 71q47 42 72 77q19 28 25 62l-48 40q-24 20 -45 43q1 -12 1 -23q0 -57 -32 -125q-17 -36 -39 -71l-43 -68q33 188 46 319q-26 -11 -79 -32q-24 -66 -20 -149 q3 -53 21 -144q-2 3 -57 72q-34 43 -49 77q-13 28 -13 61q-82 -61 -141 -96q94 -40 236 -135q-153 36 -174 40q-99 18 -177 15q-20 -20 -28 -29q-15 -17 -22 -33q197 -12 397 -18q-144 -31 -155 -33q-90 -17 -158 -17q-29 0 -57 3q1 -1 87 -83q68 11 153 45l146 64 q-10 -10 -81 -71q-49 -43 -75 -75q-23 -28 -37 -60q31 -27 90 -84q7 92 89 217q22 34 44 67q-32 -181 -66 -315q4 1 79 31q36 65 36 147q0 47 -17 143q24 -31 71 -94q32 -50 32 -93q0 -9 -1 -19q37 26 74 50l75 47q-54 19 -118 58q-15 9 -110 72q170 -45 259 -49q44 -3 91 2 q22 22 30 31q15 17 24 34z" />
<glyph unicode="&#xca;" d="M1010 452q-151 -3 -400 7q173 38 183 39q106 20 186 16q-48 40 -94 80q-65 -15 -148 -50l-142 -64q6 6 79 71q47 42 72 77q19 28 25 62l-48 40q-24 20 -45 43q1 -12 1 -23q0 -57 -32 -125q-17 -36 -39 -71l-43 -68q33 188 46 319q-26 -11 -79 -32q-24 -66 -20 -149 q3 -53 21 -144q-2 3 -57 72q-34 43 -49 77q-13 28 -13 61q-82 -61 -141 -96q94 -40 236 -135q-153 36 -174 40q-99 18 -177 15q-20 -20 -28 -29q-15 -17 -22 -33q197 -12 397 -18q-144 -31 -155 -33q-90 -17 -158 -17q-29 0 -57 3q1 -1 87 -83q68 11 153 45l146 64 q-10 -10 -81 -71q-49 -43 -75 -75q-23 -28 -37 -60q31 -27 90 -84q7 92 89 217q22 34 44 67q-32 -181 -66 -315q4 1 79 31q36 65 36 147q0 47 -17 143q24 -31 71 -94q32 -50 32 -93q0 -9 -1 -19q37 26 74 50l75 47q-54 19 -118 58q-15 9 -110 72q170 -45 259 -49q44 -3 91 2 q22 22 30 31q15 17 24 34z" />
<glyph unicode="&#xcb;" d="M1010 452q-151 -3 -400 7q173 38 183 39q106 20 186 16q-48 40 -94 80q-65 -15 -148 -50l-142 -64q6 6 79 71q47 42 72 77q19 28 25 62l-48 40q-24 20 -45 43q1 -12 1 -23q0 -57 -32 -125q-17 -36 -39 -71l-43 -68q33 188 46 319q-26 -11 -79 -32q-24 -66 -20 -149 q3 -53 21 -144q-2 3 -57 72q-34 43 -49 77q-13 28 -13 61q-82 -61 -141 -96q94 -40 236 -135q-153 36 -174 40q-99 18 -177 15q-20 -20 -28 -29q-15 -17 -22 -33q197 -12 397 -18q-144 -31 -155 -33q-90 -17 -158 -17q-29 0 -57 3q1 -1 87 -83q68 11 153 45l146 64 q-10 -10 -81 -71q-49 -43 -75 -75q-23 -28 -37 -60q31 -27 90 -84q7 92 89 217q22 34 44 67q-32 -181 -66 -315q4 1 79 31q36 65 36 147q0 47 -17 143q24 -31 71 -94q32 -50 32 -93q0 -9 -1 -19q37 26 74 50l75 47q-54 19 -118 58q-15 9 -110 72q170 -45 259 -49q44 -3 91 2 q22 22 30 31q15 17 24 34z" />
<glyph unicode="&#xcc;" d="M1010 452q-151 -3 -400 7q173 38 183 39q106 20 186 16q-48 40 -94 80q-65 -15 -148 -50l-142 -64q6 6 79 71q47 42 72 77q19 28 25 62l-48 40q-24 20 -45 43q1 -12 1 -23q0 -57 -32 -125q-17 -36 -39 -71l-43 -68q33 188 46 319q-26 -11 -79 -32q-24 -66 -20 -149 q3 -53 21 -144q-2 3 -57 72q-34 43 -49 77q-13 28 -13 61q-82 -61 -141 -96q94 -40 236 -135q-153 36 -174 40q-99 18 -177 15q-20 -20 -28 -29q-15 -17 -22 -33q197 -12 397 -18q-144 -31 -155 -33q-90 -17 -158 -17q-29 0 -57 3q1 -1 87 -83q68 11 153 45l146 64 q-10 -10 -81 -71q-49 -43 -75 -75q-23 -28 -37 -60q31 -27 90 -84q7 92 89 217q22 34 44 67q-32 -181 -66 -315q4 1 79 31q36 65 36 147q0 47 -17 143q24 -31 71 -94q32 -50 32 -93q0 -9 -1 -19q37 26 74 50l75 47q-54 19 -118 58q-15 9 -110 72q170 -45 259 -49q44 -3 91 2 q22 22 30 31q15 17 24 34z" />
<glyph unicode="&#xcd;" d="M1010 452q-151 -3 -400 7q173 38 183 39q106 20 186 16q-48 40 -94 80q-65 -15 -148 -50l-142 -64q6 6 79 71q47 42 72 77q19 28 25 62l-48 40q-24 20 -45 43q1 -12 1 -23q0 -57 -32 -125q-17 -36 -39 -71l-43 -68q33 188 46 319q-26 -11 -79 -32q-24 -66 -20 -149 q3 -53 21 -144q-2 3 -57 72q-34 43 -49 77q-13 28 -13 61q-82 -61 -141 -96q94 -40 236 -135q-153 36 -174 40q-99 18 -177 15q-20 -20 -28 -29q-15 -17 -22 -33q197 -12 397 -18q-144 -31 -155 -33q-90 -17 -158 -17q-29 0 -57 3q1 -1 87 -83q68 11 153 45l146 64 q-10 -10 -81 -71q-49 -43 -75 -75q-23 -28 -37 -60q31 -27 90 -84q7 92 89 217q22 34 44 67q-32 -181 -66 -315q4 1 79 31q36 65 36 147q0 47 -17 143q24 -31 71 -94q32 -50 32 -93q0 -9 -1 -19q37 26 74 50l75 47q-54 19 -118 58q-15 9 -110 72q170 -45 259 -49q44 -3 91 2 q22 22 30 31q15 17 24 34z" />
<glyph unicode="&#xce;" d="M1010 452q-151 -3 -400 7q173 38 183 39q106 20 186 16q-48 40 -94 80q-65 -15 -148 -50l-142 -64q6 6 79 71q47 42 72 77q19 28 25 62l-48 40q-24 20 -45 43q1 -12 1 -23q0 -57 -32 -125q-17 -36 -39 -71l-43 -68q33 188 46 319q-26 -11 -79 -32q-24 -66 -20 -149 q3 -53 21 -144q-2 3 -57 72q-34 43 -49 77q-13 28 -13 61q-82 -61 -141 -96q94 -40 236 -135q-153 36 -174 40q-99 18 -177 15q-20 -20 -28 -29q-15 -17 -22 -33q197 -12 397 -18q-144 -31 -155 -33q-90 -17 -158 -17q-29 0 -57 3q1 -1 87 -83q68 11 153 45l146 64 q-10 -10 -81 -71q-49 -43 -75 -75q-23 -28 -37 -60q31 -27 90 -84q7 92 89 217q22 34 44 67q-32 -181 -66 -315q4 1 79 31q36 65 36 147q0 47 -17 143q24 -31 71 -94q32 -50 32 -93q0 -9 -1 -19q37 26 74 50l75 47q-54 19 -118 58q-15 9 -110 72q170 -45 259 -49q44 -3 91 2 q22 22 30 31q15 17 24 34z" />
<glyph unicode="&#xcf;" d="M1010 452q-151 -3 -400 7q173 38 183 39q106 20 186 16q-48 40 -94 80q-65 -15 -148 -50l-142 -64q6 6 79 71q47 42 72 77q19 28 25 62l-48 40q-24 20 -45 43q1 -12 1 -23q0 -57 -32 -125q-17 -36 -39 -71l-43 -68q33 188 46 319q-26 -11 -79 -32q-24 -66 -20 -149 q3 -53 21 -144q-2 3 -57 72q-34 43 -49 77q-13 28 -13 61q-82 -61 -141 -96q94 -40 236 -135q-153 36 -174 40q-99 18 -177 15q-20 -20 -28 -29q-15 -17 -22 -33q197 -12 397 -18q-144 -31 -155 -33q-90 -17 -158 -17q-29 0 -57 3q1 -1 87 -83q68 11 153 45l146 64 q-10 -10 -81 -71q-49 -43 -75 -75q-23 -28 -37 -60q31 -27 90 -84q7 92 89 217q22 34 44 67q-32 -181 -66 -315q4 1 79 31q36 65 36 147q0 47 -17 143q24 -31 71 -94q32 -50 32 -93q0 -9 -1 -19q37 26 74 50l75 47q-54 19 -118 58q-15 9 -110 72q170 -45 259 -49q44 -3 91 2 q22 22 30 31q15 17 24 34z" />
<glyph unicode="&#xd0;" d="M1010 452q-151 -3 -400 7q173 38 183 39q106 20 186 16q-48 40 -94 80q-65 -15 -148 -50l-142 -64q6 6 79 71q47 42 72 77q19 28 25 62l-48 40q-24 20 -45 43q1 -12 1 -23q0 -57 -32 -125q-17 -36 -39 -71l-43 -68q33 188 46 319q-26 -11 -79 -32q-24 -66 -20 -149 q3 -53 21 -144q-2 3 -57 72q-34 43 -49 77q-13 28 -13 61q-82 -61 -141 -96q94 -40 236 -135q-153 36 -174 40q-99 18 -177 15q-20 -20 -28 -29q-15 -17 -22 -33q197 -12 397 -18q-144 -31 -155 -33q-90 -17 -158 -17q-29 0 -57 3q1 -1 87 -83q68 11 153 45l146 64 q-10 -10 -81 -71q-49 -43 -75 -75q-23 -28 -37 -60q31 -27 90 -84q7 92 89 217q22 34 44 67q-32 -181 -66 -315q4 1 79 31q36 65 36 147q0 47 -17 143q24 -31 71 -94q32 -50 32 -93q0 -9 -1 -19q37 26 74 50l75 47q-54 19 -118 58q-15 9 -110 72q170 -45 259 -49q44 -3 91 2 q22 22 30 31q15 17 24 34z" />
<glyph unicode="&#xd1;" d="M1010 452q-151 -3 -400 7q173 38 183 39q106 20 186 16q-48 40 -94 80q-65 -15 -148 -50l-142 -64q6 6 79 71q47 42 72 77q19 28 25 62l-48 40q-24 20 -45 43q1 -12 1 -23q0 -57 -32 -125q-17 -36 -39 -71l-43 -68q33 188 46 319q-26 -11 -79 -32q-24 -66 -20 -149 q3 -53 21 -144q-2 3 -57 72q-34 43 -49 77q-13 28 -13 61q-82 -61 -141 -96q94 -40 236 -135q-153 36 -174 40q-99 18 -177 15q-20 -20 -28 -29q-15 -17 -22 -33q197 -12 397 -18q-144 -31 -155 -33q-90 -17 -158 -17q-29 0 -57 3q1 -1 87 -83q68 11 153 45l146 64 q-10 -10 -81 -71q-49 -43 -75 -75q-23 -28 -37 -60q31 -27 90 -84q7 92 89 217q22 34 44 67q-32 -181 -66 -315q4 1 79 31q36 65 36 147q0 47 -17 143q24 -31 71 -94q32 -50 32 -93q0 -9 -1 -19q37 26 74 50l75 47q-54 19 -118 58q-15 9 -110 72q170 -45 259 -49q44 -3 91 2 q22 22 30 31q15 17 24 34z" />
<glyph unicode="&#xd2;" d="M1010 452q-151 -3 -400 7q173 38 183 39q106 20 186 16q-48 40 -94 80q-65 -15 -148 -50l-142 -64q6 6 79 71q47 42 72 77q19 28 25 62l-48 40q-24 20 -45 43q1 -12 1 -23q0 -57 -32 -125q-17 -36 -39 -71l-43 -68q33 188 46 319q-26 -11 -79 -32q-24 -66 -20 -149 q3 -53 21 -144q-2 3 -57 72q-34 43 -49 77q-13 28 -13 61q-82 -61 -141 -96q94 -40 236 -135q-153 36 -174 40q-99 18 -177 15q-20 -20 -28 -29q-15 -17 -22 -33q197 -12 397 -18q-144 -31 -155 -33q-90 -17 -158 -17q-29 0 -57 3q1 -1 87 -83q68 11 153 45l146 64 q-10 -10 -81 -71q-49 -43 -75 -75q-23 -28 -37 -60q31 -27 90 -84q7 92 89 217q22 34 44 67q-32 -181 -66 -315q4 1 79 31q36 65 36 147q0 47 -17 143q24 -31 71 -94q32 -50 32 -93q0 -9 -1 -19q37 26 74 50l75 47q-54 19 -118 58q-15 9 -110 72q170 -45 259 -49q44 -3 91 2 q22 22 30 31q15 17 24 34z" />
<glyph unicode="&#xd3;" d="M1010 452q-151 -3 -400 7q173 38 183 39q106 20 186 16q-48 40 -94 80q-65 -15 -148 -50l-142 -64q6 6 79 71q47 42 72 77q19 28 25 62l-48 40q-24 20 -45 43q1 -12 1 -23q0 -57 -32 -125q-17 -36 -39 -71l-43 -68q33 188 46 319q-26 -11 -79 -32q-24 -66 -20 -149 q3 -53 21 -144q-2 3 -57 72q-34 43 -49 77q-13 28 -13 61q-82 -61 -141 -96q94 -40 236 -135q-153 36 -174 40q-99 18 -177 15q-20 -20 -28 -29q-15 -17 -22 -33q197 -12 397 -18q-144 -31 -155 -33q-90 -17 -158 -17q-29 0 -57 3q1 -1 87 -83q68 11 153 45l146 64 q-10 -10 -81 -71q-49 -43 -75 -75q-23 -28 -37 -60q31 -27 90 -84q7 92 89 217q22 34 44 67q-32 -181 -66 -315q4 1 79 31q36 65 36 147q0 47 -17 143q24 -31 71 -94q32 -50 32 -93q0 -9 -1 -19q37 26 74 50l75 47q-54 19 -118 58q-15 9 -110 72q170 -45 259 -49q44 -3 91 2 q22 22 30 31q15 17 24 34z" />
<glyph unicode="&#xd4;" d="M1010 452q-151 -3 -400 7q173 38 183 39q106 20 186 16q-48 40 -94 80q-65 -15 -148 -50l-142 -64q6 6 79 71q47 42 72 77q19 28 25 62l-48 40q-24 20 -45 43q1 -12 1 -23q0 -57 -32 -125q-17 -36 -39 -71l-43 -68q33 188 46 319q-26 -11 -79 -32q-24 -66 -20 -149 q3 -53 21 -144q-2 3 -57 72q-34 43 -49 77q-13 28 -13 61q-82 -61 -141 -96q94 -40 236 -135q-153 36 -174 40q-99 18 -177 15q-20 -20 -28 -29q-15 -17 -22 -33q197 -12 397 -18q-144 -31 -155 -33q-90 -17 -158 -17q-29 0 -57 3q1 -1 87 -83q68 11 153 45l146 64 q-10 -10 -81 -71q-49 -43 -75 -75q-23 -28 -37 -60q31 -27 90 -84q7 92 89 217q22 34 44 67q-32 -181 -66 -315q4 1 79 31q36 65 36 147q0 47 -17 143q24 -31 71 -94q32 -50 32 -93q0 -9 -1 -19q37 26 74 50l75 47q-54 19 -118 58q-15 9 -110 72q170 -45 259 -49q44 -3 91 2 q22 22 30 31q15 17 24 34z" />
<glyph unicode="&#xd5;" d="M1010 452q-151 -3 -400 7q173 38 183 39q106 20 186 16q-48 40 -94 80q-65 -15 -148 -50l-142 -64q6 6 79 71q47 42 72 77q19 28 25 62l-48 40q-24 20 -45 43q1 -12 1 -23q0 -57 -32 -125q-17 -36 -39 -71l-43 -68q33 188 46 319q-26 -11 -79 -32q-24 -66 -20 -149 q3 -53 21 -144q-2 3 -57 72q-34 43 -49 77q-13 28 -13 61q-82 -61 -141 -96q94 -40 236 -135q-153 36 -174 40q-99 18 -177 15q-20 -20 -28 -29q-15 -17 -22 -33q197 -12 397 -18q-144 -31 -155 -33q-90 -17 -158 -17q-29 0 -57 3q1 -1 87 -83q68 11 153 45l146 64 q-10 -10 -81 -71q-49 -43 -75 -75q-23 -28 -37 -60q31 -27 90 -84q7 92 89 217q22 34 44 67q-32 -181 -66 -315q4 1 79 31q36 65 36 147q0 47 -17 143q24 -31 71 -94q32 -50 32 -93q0 -9 -1 -19q37 26 74 50l75 47q-54 19 -118 58q-15 9 -110 72q170 -45 259 -49q44 -3 91 2 q22 22 30 31q15 17 24 34z" />
<glyph unicode="&#xd6;" d="M1010 452q-151 -3 -400 7q173 38 183 39q106 20 186 16q-48 40 -94 80q-65 -15 -148 -50l-142 -64q6 6 79 71q47 42 72 77q19 28 25 62l-48 40q-24 20 -45 43q1 -12 1 -23q0 -57 -32 -125q-17 -36 -39 -71l-43 -68q33 188 46 319q-26 -11 -79 -32q-24 -66 -20 -149 q3 -53 21 -144q-2 3 -57 72q-34 43 -49 77q-13 28 -13 61q-82 -61 -141 -96q94 -40 236 -135q-153 36 -174 40q-99 18 -177 15q-20 -20 -28 -29q-15 -17 -22 -33q197 -12 397 -18q-144 -31 -155 -33q-90 -17 -158 -17q-29 0 -57 3q1 -1 87 -83q68 11 153 45l146 64 q-10 -10 -81 -71q-49 -43 -75 -75q-23 -28 -37 -60q31 -27 90 -84q7 92 89 217q22 34 44 67q-32 -181 -66 -315q4 1 79 31q36 65 36 147q0 47 -17 143q24 -31 71 -94q32 -50 32 -93q0 -9 -1 -19q37 26 74 50l75 47q-54 19 -118 58q-15 9 -110 72q170 -45 259 -49q44 -3 91 2 q22 22 30 31q15 17 24 34z" />
<glyph unicode="&#xd7;" d="M1010 452q-151 -3 -400 7q173 38 183 39q106 20 186 16q-48 40 -94 80q-65 -15 -148 -50l-142 -64q6 6 79 71q47 42 72 77q19 28 25 62l-48 40q-24 20 -45 43q1 -12 1 -23q0 -57 -32 -125q-17 -36 -39 -71l-43 -68q33 188 46 319q-26 -11 -79 -32q-24 -66 -20 -149 q3 -53 21 -144q-2 3 -57 72q-34 43 -49 77q-13 28 -13 61q-82 -61 -141 -96q94 -40 236 -135q-153 36 -174 40q-99 18 -177 15q-20 -20 -28 -29q-15 -17 -22 -33q197 -12 397 -18q-144 -31 -155 -33q-90 -17 -158 -17q-29 0 -57 3q1 -1 87 -83q68 11 153 45l146 64 q-10 -10 -81 -71q-49 -43 -75 -75q-23 -28 -37 -60q31 -27 90 -84q7 92 89 217q22 34 44 67q-32 -181 -66 -315q4 1 79 31q36 65 36 147q0 47 -17 143q24 -31 71 -94q32 -50 32 -93q0 -9 -1 -19q37 26 74 50l75 47q-54 19 -118 58q-15 9 -110 72q170 -45 259 -49q44 -3 91 2 q22 22 30 31q15 17 24 34z" />
<glyph unicode="&#xd8;" horiz-adv-x="690" d="M588 780h-210l-50 60l106 90h299l-5 -30zM561 630l16 90l141 120h30l-58 -330h-30zM222 750l71 60l74 -90l-16 -90l-141 -120h-30zM476 150h-210l-141 -120l-5 -30h300l106 90zM503 300l-16 -90l74 -90l71 60l42 240h-30zM106 90h30l141 120l16 90l-99 120h-30zM279 390 h270l70 60l6 30l-50 60h-270l-70 -60l-6 -30z" />
<glyph unicode="&#xd9;" d="M1010 452q-151 -3 -400 7q173 38 183 39q106 20 186 16q-48 40 -94 80q-65 -15 -148 -50l-142 -64q6 6 79 71q47 42 72 77q19 28 25 62l-48 40q-24 20 -45 43q1 -12 1 -23q0 -57 -32 -125q-17 -36 -39 -71l-43 -68q33 188 46 319q-26 -11 -79 -32q-24 -66 -20 -149 q3 -53 21 -144q-2 3 -57 72q-34 43 -49 77q-13 28 -13 61q-82 -61 -141 -96q94 -40 236 -135q-153 36 -174 40q-99 18 -177 15q-20 -20 -28 -29q-15 -17 -22 -33q197 -12 397 -18q-144 -31 -155 -33q-90 -17 -158 -17q-29 0 -57 3q1 -1 87 -83q68 11 153 45l146 64 q-10 -10 -81 -71q-49 -43 -75 -75q-23 -28 -37 -60q31 -27 90 -84q7 92 89 217q22 34 44 67q-32 -181 -66 -315q4 1 79 31q36 65 36 147q0 47 -17 143q24 -31 71 -94q32 -50 32 -93q0 -9 -1 -19q37 26 74 50l75 47q-54 19 -118 58q-15 9 -110 72q170 -45 259 -49q44 -3 91 2 q22 22 30 31q15 17 24 34z" />
<glyph unicode="&#xda;" d="M1010 452q-151 -3 -400 7q173 38 183 39q106 20 186 16q-48 40 -94 80q-65 -15 -148 -50l-142 -64q6 6 79 71q47 42 72 77q19 28 25 62l-48 40q-24 20 -45 43q1 -12 1 -23q0 -57 -32 -125q-17 -36 -39 -71l-43 -68q33 188 46 319q-26 -11 -79 -32q-24 -66 -20 -149 q3 -53 21 -144q-2 3 -57 72q-34 43 -49 77q-13 28 -13 61q-82 -61 -141 -96q94 -40 236 -135q-153 36 -174 40q-99 18 -177 15q-20 -20 -28 -29q-15 -17 -22 -33q197 -12 397 -18q-144 -31 -155 -33q-90 -17 -158 -17q-29 0 -57 3q1 -1 87 -83q68 11 153 45l146 64 q-10 -10 -81 -71q-49 -43 -75 -75q-23 -28 -37 -60q31 -27 90 -84q7 92 89 217q22 34 44 67q-32 -181 -66 -315q4 1 79 31q36 65 36 147q0 47 -17 143q24 -31 71 -94q32 -50 32 -93q0 -9 -1 -19q37 26 74 50l75 47q-54 19 -118 58q-15 9 -110 72q170 -45 259 -49q44 -3 91 2 q22 22 30 31q15 17 24 34z" />
<glyph unicode="&#xdb;" d="M1010 452q-151 -3 -400 7q173 38 183 39q106 20 186 16q-48 40 -94 80q-65 -15 -148 -50l-142 -64q6 6 79 71q47 42 72 77q19 28 25 62l-48 40q-24 20 -45 43q1 -12 1 -23q0 -57 -32 -125q-17 -36 -39 -71l-43 -68q33 188 46 319q-26 -11 -79 -32q-24 -66 -20 -149 q3 -53 21 -144q-2 3 -57 72q-34 43 -49 77q-13 28 -13 61q-82 -61 -141 -96q94 -40 236 -135q-153 36 -174 40q-99 18 -177 15q-20 -20 -28 -29q-15 -17 -22 -33q197 -12 397 -18q-144 -31 -155 -33q-90 -17 -158 -17q-29 0 -57 3q1 -1 87 -83q68 11 153 45l146 64 q-10 -10 -81 -71q-49 -43 -75 -75q-23 -28 -37 -60q31 -27 90 -84q7 92 89 217q22 34 44 67q-32 -181 -66 -315q4 1 79 31q36 65 36 147q0 47 -17 143q24 -31 71 -94q32 -50 32 -93q0 -9 -1 -19q37 26 74 50l75 47q-54 19 -118 58q-15 9 -110 72q170 -45 259 -49q44 -3 91 2 q22 22 30 31q15 17 24 34z" />
<glyph unicode="&#xdc;" d="M1010 452q-151 -3 -400 7q173 38 183 39q106 20 186 16q-48 40 -94 80q-65 -15 -148 -50l-142 -64q6 6 79 71q47 42 72 77q19 28 25 62l-48 40q-24 20 -45 43q1 -12 1 -23q0 -57 -32 -125q-17 -36 -39 -71l-43 -68q33 188 46 319q-26 -11 -79 -32q-24 -66 -20 -149 q3 -53 21 -144q-2 3 -57 72q-34 43 -49 77q-13 28 -13 61q-82 -61 -141 -96q94 -40 236 -135q-153 36 -174 40q-99 18 -177 15q-20 -20 -28 -29q-15 -17 -22 -33q197 -12 397 -18q-144 -31 -155 -33q-90 -17 -158 -17q-29 0 -57 3q1 -1 87 -83q68 11 153 45l146 64 q-10 -10 -81 -71q-49 -43 -75 -75q-23 -28 -37 -60q31 -27 90 -84q7 92 89 217q22 34 44 67q-32 -181 -66 -315q4 1 79 31q36 65 36 147q0 47 -17 143q24 -31 71 -94q32 -50 32 -93q0 -9 -1 -19q37 26 74 50l75 47q-54 19 -118 58q-15 9 -110 72q170 -45 259 -49q44 -3 91 2 q22 22 30 31q15 17 24 34z" />
<glyph unicode="&#xdd;" d="M1010 452q-151 -3 -400 7q173 38 183 39q106 20 186 16q-48 40 -94 80q-65 -15 -148 -50l-142 -64q6 6 79 71q47 42 72 77q19 28 25 62l-48 40q-24 20 -45 43q1 -12 1 -23q0 -57 -32 -125q-17 -36 -39 -71l-43 -68q33 188 46 319q-26 -11 -79 -32q-24 -66 -20 -149 q3 -53 21 -144q-2 3 -57 72q-34 43 -49 77q-13 28 -13 61q-82 -61 -141 -96q94 -40 236 -135q-153 36 -174 40q-99 18 -177 15q-20 -20 -28 -29q-15 -17 -22 -33q197 -12 397 -18q-144 -31 -155 -33q-90 -17 -158 -17q-29 0 -57 3q1 -1 87 -83q68 11 153 45l146 64 q-10 -10 -81 -71q-49 -43 -75 -75q-23 -28 -37 -60q31 -27 90 -84q7 92 89 217q22 34 44 67q-32 -181 -66 -315q4 1 79 31q36 65 36 147q0 47 -17 143q24 -31 71 -94q32 -50 32 -93q0 -9 -1 -19q37 26 74 50l75 47q-54 19 -118 58q-15 9 -110 72q170 -45 259 -49q44 -3 91 2 q22 22 30 31q15 17 24 34z" />
<glyph unicode="&#xde;" d="M1010 452q-151 -3 -400 7q173 38 183 39q106 20 186 16q-48 40 -94 80q-65 -15 -148 -50l-142 -64q6 6 79 71q47 42 72 77q19 28 25 62l-48 40q-24 20 -45 43q1 -12 1 -23q0 -57 -32 -125q-17 -36 -39 -71l-43 -68q33 188 46 319q-26 -11 -79 -32q-24 -66 -20 -149 q3 -53 21 -144q-2 3 -57 72q-34 43 -49 77q-13 28 -13 61q-82 -61 -141 -96q94 -40 236 -135q-153 36 -174 40q-99 18 -177 15q-20 -20 -28 -29q-15 -17 -22 -33q197 -12 397 -18q-144 -31 -155 -33q-90 -17 -158 -17q-29 0 -57 3q1 -1 87 -83q68 11 153 45l146 64 q-10 -10 -81 -71q-49 -43 -75 -75q-23 -28 -37 -60q31 -27 90 -84q7 92 89 217q22 34 44 67q-32 -181 -66 -315q4 1 79 31q36 65 36 147q0 47 -17 143q24 -31 71 -94q32 -50 32 -93q0 -9 -1 -19q37 26 74 50l75 47q-54 19 -118 58q-15 9 -110 72q170 -45 259 -49q44 -3 91 2 q22 22 30 31q15 17 24 34z" />
<glyph unicode="&#xdf;" d="M1010 452q-151 -3 -400 7q173 38 183 39q106 20 186 16q-48 40 -94 80q-65 -15 -148 -50l-142 -64q6 6 79 71q47 42 72 77q19 28 25 62l-48 40q-24 20 -45 43q1 -12 1 -23q0 -57 -32 -125q-17 -36 -39 -71l-43 -68q33 188 46 319q-26 -11 -79 -32q-24 -66 -20 -149 q3 -53 21 -144q-2 3 -57 72q-34 43 -49 77q-13 28 -13 61q-82 -61 -141 -96q94 -40 236 -135q-153 36 -174 40q-99 18 -177 15q-20 -20 -28 -29q-15 -17 -22 -33q197 -12 397 -18q-144 -31 -155 -33q-90 -17 -158 -17q-29 0 -57 3q1 -1 87 -83q68 11 153 45l146 64 q-10 -10 -81 -71q-49 -43 -75 -75q-23 -28 -37 -60q31 -27 90 -84q7 92 89 217q22 34 44 67q-32 -181 -66 -315q4 1 79 31q36 65 36 147q0 47 -17 143q24 -31 71 -94q32 -50 32 -93q0 -9 -1 -19q37 26 74 50l75 47q-54 19 -118 58q-15 9 -110 72q170 -45 259 -49q44 -3 91 2 q22 22 30 31q15 17 24 34z" />
<glyph unicode="&#xe0;" d="M1010 452q-151 -3 -400 7q173 38 183 39q106 20 186 16q-48 40 -94 80q-65 -15 -148 -50l-142 -64q6 6 79 71q47 42 72 77q19 28 25 62l-48 40q-24 20 -45 43q1 -12 1 -23q0 -57 -32 -125q-17 -36 -39 -71l-43 -68q33 188 46 319q-26 -11 -79 -32q-24 -66 -20 -149 q3 -53 21 -144q-2 3 -57 72q-34 43 -49 77q-13 28 -13 61q-82 -61 -141 -96q94 -40 236 -135q-153 36 -174 40q-99 18 -177 15q-20 -20 -28 -29q-15 -17 -22 -33q197 -12 397 -18q-144 -31 -155 -33q-90 -17 -158 -17q-29 0 -57 3q1 -1 87 -83q68 11 153 45l146 64 q-10 -10 -81 -71q-49 -43 -75 -75q-23 -28 -37 -60q31 -27 90 -84q7 92 89 217q22 34 44 67q-32 -181 -66 -315q4 1 79 31q36 65 36 147q0 47 -17 143q24 -31 71 -94q32 -50 32 -93q0 -9 -1 -19q37 26 74 50l75 47q-54 19 -118 58q-15 9 -110 72q170 -45 259 -49q44 -3 91 2 q22 22 30 31q15 17 24 34z" />
<glyph unicode="&#xe1;" d="M1010 452q-151 -3 -400 7q173 38 183 39q106 20 186 16q-48 40 -94 80q-65 -15 -148 -50l-142 -64q6 6 79 71q47 42 72 77q19 28 25 62l-48 40q-24 20 -45 43q1 -12 1 -23q0 -57 -32 -125q-17 -36 -39 -71l-43 -68q33 188 46 319q-26 -11 -79 -32q-24 -66 -20 -149 q3 -53 21 -144q-2 3 -57 72q-34 43 -49 77q-13 28 -13 61q-82 -61 -141 -96q94 -40 236 -135q-153 36 -174 40q-99 18 -177 15q-20 -20 -28 -29q-15 -17 -22 -33q197 -12 397 -18q-144 -31 -155 -33q-90 -17 -158 -17q-29 0 -57 3q1 -1 87 -83q68 11 153 45l146 64 q-10 -10 -81 -71q-49 -43 -75 -75q-23 -28 -37 -60q31 -27 90 -84q7 92 89 217q22 34 44 67q-32 -181 -66 -315q4 1 79 31q36 65 36 147q0 47 -17 143q24 -31 71 -94q32 -50 32 -93q0 -9 -1 -19q37 26 74 50l75 47q-54 19 -118 58q-15 9 -110 72q170 -45 259 -49q44 -3 91 2 q22 22 30 31q15 17 24 34z" />
<glyph unicode="&#xe2;" d="M1010 452q-151 -3 -400 7q173 38 183 39q106 20 186 16q-48 40 -94 80q-65 -15 -148 -50l-142 -64q6 6 79 71q47 42 72 77q19 28 25 62l-48 40q-24 20 -45 43q1 -12 1 -23q0 -57 -32 -125q-17 -36 -39 -71l-43 -68q33 188 46 319q-26 -11 -79 -32q-24 -66 -20 -149 q3 -53 21 -144q-2 3 -57 72q-34 43 -49 77q-13 28 -13 61q-82 -61 -141 -96q94 -40 236 -135q-153 36 -174 40q-99 18 -177 15q-20 -20 -28 -29q-15 -17 -22 -33q197 -12 397 -18q-144 -31 -155 -33q-90 -17 -158 -17q-29 0 -57 3q1 -1 87 -83q68 11 153 45l146 64 q-10 -10 -81 -71q-49 -43 -75 -75q-23 -28 -37 -60q31 -27 90 -84q7 92 89 217q22 34 44 67q-32 -181 -66 -315q4 1 79 31q36 65 36 147q0 47 -17 143q24 -31 71 -94q32 -50 32 -93q0 -9 -1 -19q37 26 74 50l75 47q-54 19 -118 58q-15 9 -110 72q170 -45 259 -49q44 -3 91 2 q22 22 30 31q15 17 24 34z" />
<glyph unicode="&#xe3;" d="M1010 452q-151 -3 -400 7q173 38 183 39q106 20 186 16q-48 40 -94 80q-65 -15 -148 -50l-142 -64q6 6 79 71q47 42 72 77q19 28 25 62l-48 40q-24 20 -45 43q1 -12 1 -23q0 -57 -32 -125q-17 -36 -39 -71l-43 -68q33 188 46 319q-26 -11 -79 -32q-24 -66 -20 -149 q3 -53 21 -144q-2 3 -57 72q-34 43 -49 77q-13 28 -13 61q-82 -61 -141 -96q94 -40 236 -135q-153 36 -174 40q-99 18 -177 15q-20 -20 -28 -29q-15 -17 -22 -33q197 -12 397 -18q-144 -31 -155 -33q-90 -17 -158 -17q-29 0 -57 3q1 -1 87 -83q68 11 153 45l146 64 q-10 -10 -81 -71q-49 -43 -75 -75q-23 -28 -37 -60q31 -27 90 -84q7 92 89 217q22 34 44 67q-32 -181 -66 -315q4 1 79 31q36 65 36 147q0 47 -17 143q24 -31 71 -94q32 -50 32 -93q0 -9 -1 -19q37 26 74 50l75 47q-54 19 -118 58q-15 9 -110 72q170 -45 259 -49q44 -3 91 2 q22 22 30 31q15 17 24 34z" />
<glyph unicode="&#xe4;" d="M1010 452q-151 -3 -400 7q173 38 183 39q106 20 186 16q-48 40 -94 80q-65 -15 -148 -50l-142 -64q6 6 79 71q47 42 72 77q19 28 25 62l-48 40q-24 20 -45 43q1 -12 1 -23q0 -57 -32 -125q-17 -36 -39 -71l-43 -68q33 188 46 319q-26 -11 -79 -32q-24 -66 -20 -149 q3 -53 21 -144q-2 3 -57 72q-34 43 -49 77q-13 28 -13 61q-82 -61 -141 -96q94 -40 236 -135q-153 36 -174 40q-99 18 -177 15q-20 -20 -28 -29q-15 -17 -22 -33q197 -12 397 -18q-144 -31 -155 -33q-90 -17 -158 -17q-29 0 -57 3q1 -1 87 -83q68 11 153 45l146 64 q-10 -10 -81 -71q-49 -43 -75 -75q-23 -28 -37 -60q31 -27 90 -84q7 92 89 217q22 34 44 67q-32 -181 -66 -315q4 1 79 31q36 65 36 147q0 47 -17 143q24 -31 71 -94q32 -50 32 -93q0 -9 -1 -19q37 26 74 50l75 47q-54 19 -118 58q-15 9 -110 72q170 -45 259 -49q44 -3 91 2 q22 22 30 31q15 17 24 34z" />
<glyph unicode="&#xe5;" horiz-adv-x="690" d="M635 1050h-210l-81 -120l-16 -90l50 -60h210l70 60l16 90zM279 390h270l70 60l6 30l-50 60h-270l-70 -60l-6 -30zM503 300l-16 -90l99 -120h30l58 330h-30zM106 90h30l141 120l16 90l-99 120h-30zM351 630l16 90l-74 90l-71 -60l-42 -240h30zM732 750l-49 60l-106 -90 l-16 -90l99 -120h30zM434 930l41 60h90l19 -60h-150z" />
<glyph unicode="&#xe6;" horiz-adv-x="1020" d="M279 390h270l70 60l6 30l-50 60h-270l-70 -60l-6 -30zM378 780h210l70 60l-74 90h-150l-106 -90zM351 630l16 90l-74 90l-71 -60l-42 -240h30zM732 750l-49 60l-106 -90l-16 -90l99 -120h30zM503 300l-37 -210h30l141 120l37 210h-30zM106 90h30l141 120l16 90l-99 120 h-30zM699 390h210l70 60l6 30l-50 60h-210zM738 780h210l141 120l5 30h-449l-5 -30zM836 150h-210l-141 -120l-5 -30h449l5 30z" />
<glyph unicode="&#xe7;" horiz-adv-x="690" d="M635 1050h-210l-81 -120l-16 -90l50 -60h210l70 60l16 90zM279 390h270l70 60l6 30l-50 60h-270l-70 -60l-6 -30zM503 300l-16 -90l99 -120h30l58 330h-30zM106 90h30l141 120l16 90l-99 120h-30zM351 630l16 90l-74 90l-71 -60l-42 -240h30zM732 750l-49 60l-106 -90 l-16 -90l99 -120h30zM434 930l41 60h90l19 -60h-150z" />
<glyph unicode="&#xe8;" horiz-adv-x="1020" d="M279 390h270l70 60l6 30l-50 60h-270l-70 -60l-6 -30zM378 780h210l70 60l-74 90h-150l-106 -90zM351 630l16 90l-74 90l-71 -60l-42 -240h30zM732 750l-49 60l-106 -90l-16 -90l99 -120h30zM503 300l-37 -210h30l141 120l37 210h-30zM106 90h30l141 120l16 90l-99 120 h-30zM699 390h210l70 60l6 30l-50 60h-210zM738 780h210l141 120l5 30h-449l-5 -30zM836 150h-210l-141 -120l-5 -30h449l5 30z" />
<glyph unicode="&#xe9;" d="M1010 452q-151 -3 -400 7q173 38 183 39q106 20 186 16q-48 40 -94 80q-65 -15 -148 -50l-142 -64q6 6 79 71q47 42 72 77q19 28 25 62l-48 40q-24 20 -45 43q1 -12 1 -23q0 -57 -32 -125q-17 -36 -39 -71l-43 -68q33 188 46 319q-26 -11 -79 -32q-24 -66 -20 -149 q3 -53 21 -144q-2 3 -57 72q-34 43 -49 77q-13 28 -13 61q-82 -61 -141 -96q94 -40 236 -135q-153 36 -174 40q-99 18 -177 15q-20 -20 -28 -29q-15 -17 -22 -33q197 -12 397 -18q-144 -31 -155 -33q-90 -17 -158 -17q-29 0 -57 3q1 -1 87 -83q68 11 153 45l146 64 q-10 -10 -81 -71q-49 -43 -75 -75q-23 -28 -37 -60q31 -27 90 -84q7 92 89 217q22 34 44 67q-32 -181 -66 -315q4 1 79 31q36 65 36 147q0 47 -17 143q24 -31 71 -94q32 -50 32 -93q0 -9 -1 -19q37 26 74 50l75 47q-54 19 -118 58q-15 9 -110 72q170 -45 259 -49q44 -3 91 2 q22 22 30 31q15 17 24 34z" />
<glyph unicode="&#xea;" d="M1010 452q-151 -3 -400 7q173 38 183 39q106 20 186 16q-48 40 -94 80q-65 -15 -148 -50l-142 -64q6 6 79 71q47 42 72 77q19 28 25 62l-48 40q-24 20 -45 43q1 -12 1 -23q0 -57 -32 -125q-17 -36 -39 -71l-43 -68q33 188 46 319q-26 -11 -79 -32q-24 -66 -20 -149 q3 -53 21 -144q-2 3 -57 72q-34 43 -49 77q-13 28 -13 61q-82 -61 -141 -96q94 -40 236 -135q-153 36 -174 40q-99 18 -177 15q-20 -20 -28 -29q-15 -17 -22 -33q197 -12 397 -18q-144 -31 -155 -33q-90 -17 -158 -17q-29 0 -57 3q1 -1 87 -83q68 11 153 45l146 64 q-10 -10 -81 -71q-49 -43 -75 -75q-23 -28 -37 -60q31 -27 90 -84q7 92 89 217q22 34 44 67q-32 -181 -66 -315q4 1 79 31q36 65 36 147q0 47 -17 143q24 -31 71 -94q32 -50 32 -93q0 -9 -1 -19q37 26 74 50l75 47q-54 19 -118 58q-15 9 -110 72q170 -45 259 -49q44 -3 91 2 q22 22 30 31q15 17 24 34z" />
<glyph unicode="&#xeb;" d="M1010 452q-151 -3 -400 7q173 38 183 39q106 20 186 16q-48 40 -94 80q-65 -15 -148 -50l-142 -64q6 6 79 71q47 42 72 77q19 28 25 62l-48 40q-24 20 -45 43q1 -12 1 -23q0 -57 -32 -125q-17 -36 -39 -71l-43 -68q33 188 46 319q-26 -11 -79 -32q-24 -66 -20 -149 q3 -53 21 -144q-2 3 -57 72q-34 43 -49 77q-13 28 -13 61q-82 -61 -141 -96q94 -40 236 -135q-153 36 -174 40q-99 18 -177 15q-20 -20 -28 -29q-15 -17 -22 -33q197 -12 397 -18q-144 -31 -155 -33q-90 -17 -158 -17q-29 0 -57 3q1 -1 87 -83q68 11 153 45l146 64 q-10 -10 -81 -71q-49 -43 -75 -75q-23 -28 -37 -60q31 -27 90 -84q7 92 89 217q22 34 44 67q-32 -181 -66 -315q4 1 79 31q36 65 36 147q0 47 -17 143q24 -31 71 -94q32 -50 32 -93q0 -9 -1 -19q37 26 74 50l75 47q-54 19 -118 58q-15 9 -110 72q170 -45 259 -49q44 -3 91 2 q22 22 30 31q15 17 24 34z" />
<glyph unicode="&#xec;" d="M1010 452q-151 -3 -400 7q173 38 183 39q106 20 186 16q-48 40 -94 80q-65 -15 -148 -50l-142 -64q6 6 79 71q47 42 72 77q19 28 25 62l-48 40q-24 20 -45 43q1 -12 1 -23q0 -57 -32 -125q-17 -36 -39 -71l-43 -68q33 188 46 319q-26 -11 -79 -32q-24 -66 -20 -149 q3 -53 21 -144q-2 3 -57 72q-34 43 -49 77q-13 28 -13 61q-82 -61 -141 -96q94 -40 236 -135q-153 36 -174 40q-99 18 -177 15q-20 -20 -28 -29q-15 -17 -22 -33q197 -12 397 -18q-144 -31 -155 -33q-90 -17 -158 -17q-29 0 -57 3q1 -1 87 -83q68 11 153 45l146 64 q-10 -10 -81 -71q-49 -43 -75 -75q-23 -28 -37 -60q31 -27 90 -84q7 92 89 217q22 34 44 67q-32 -181 -66 -315q4 1 79 31q36 65 36 147q0 47 -17 143q24 -31 71 -94q32 -50 32 -93q0 -9 -1 -19q37 26 74 50l75 47q-54 19 -118 58q-15 9 -110 72q170 -45 259 -49q44 -3 91 2 q22 22 30 31q15 17 24 34z" />
<glyph unicode="&#xed;" d="M1010 452q-151 -3 -400 7q173 38 183 39q106 20 186 16q-48 40 -94 80q-65 -15 -148 -50l-142 -64q6 6 79 71q47 42 72 77q19 28 25 62l-48 40q-24 20 -45 43q1 -12 1 -23q0 -57 -32 -125q-17 -36 -39 -71l-43 -68q33 188 46 319q-26 -11 -79 -32q-24 -66 -20 -149 q3 -53 21 -144q-2 3 -57 72q-34 43 -49 77q-13 28 -13 61q-82 -61 -141 -96q94 -40 236 -135q-153 36 -174 40q-99 18 -177 15q-20 -20 -28 -29q-15 -17 -22 -33q197 -12 397 -18q-144 -31 -155 -33q-90 -17 -158 -17q-29 0 -57 3q1 -1 87 -83q68 11 153 45l146 64 q-10 -10 -81 -71q-49 -43 -75 -75q-23 -28 -37 -60q31 -27 90 -84q7 92 89 217q22 34 44 67q-32 -181 -66 -315q4 1 79 31q36 65 36 147q0 47 -17 143q24 -31 71 -94q32 -50 32 -93q0 -9 -1 -19q37 26 74 50l75 47q-54 19 -118 58q-15 9 -110 72q170 -45 259 -49q44 -3 91 2 q22 22 30 31q15 17 24 34z" />
<glyph unicode="&#xee;" d="M1010 452q-151 -3 -400 7q173 38 183 39q106 20 186 16q-48 40 -94 80q-65 -15 -148 -50l-142 -64q6 6 79 71q47 42 72 77q19 28 25 62l-48 40q-24 20 -45 43q1 -12 1 -23q0 -57 -32 -125q-17 -36 -39 -71l-43 -68q33 188 46 319q-26 -11 -79 -32q-24 -66 -20 -149 q3 -53 21 -144q-2 3 -57 72q-34 43 -49 77q-13 28 -13 61q-82 -61 -141 -96q94 -40 236 -135q-153 36 -174 40q-99 18 -177 15q-20 -20 -28 -29q-15 -17 -22 -33q197 -12 397 -18q-144 -31 -155 -33q-90 -17 -158 -17q-29 0 -57 3q1 -1 87 -83q68 11 153 45l146 64 q-10 -10 -81 -71q-49 -43 -75 -75q-23 -28 -37 -60q31 -27 90 -84q7 92 89 217q22 34 44 67q-32 -181 -66 -315q4 1 79 31q36 65 36 147q0 47 -17 143q24 -31 71 -94q32 -50 32 -93q0 -9 -1 -19q37 26 74 50l75 47q-54 19 -118 58q-15 9 -110 72q170 -45 259 -49q44 -3 91 2 q22 22 30 31q15 17 24 34z" />
<glyph unicode="&#xef;" d="M1010 452q-151 -3 -400 7q173 38 183 39q106 20 186 16q-48 40 -94 80q-65 -15 -148 -50l-142 -64q6 6 79 71q47 42 72 77q19 28 25 62l-48 40q-24 20 -45 43q1 -12 1 -23q0 -57 -32 -125q-17 -36 -39 -71l-43 -68q33 188 46 319q-26 -11 -79 -32q-24 -66 -20 -149 q3 -53 21 -144q-2 3 -57 72q-34 43 -49 77q-13 28 -13 61q-82 -61 -141 -96q94 -40 236 -135q-153 36 -174 40q-99 18 -177 15q-20 -20 -28 -29q-15 -17 -22 -33q197 -12 397 -18q-144 -31 -155 -33q-90 -17 -158 -17q-29 0 -57 3q1 -1 87 -83q68 11 153 45l146 64 q-10 -10 -81 -71q-49 -43 -75 -75q-23 -28 -37 -60q31 -27 90 -84q7 92 89 217q22 34 44 67q-32 -181 -66 -315q4 1 79 31q36 65 36 147q0 47 -17 143q24 -31 71 -94q32 -50 32 -93q0 -9 -1 -19q37 26 74 50l75 47q-54 19 -118 58q-15 9 -110 72q170 -45 259 -49q44 -3 91 2 q22 22 30 31q15 17 24 34z" />
<glyph unicode="&#xf0;" d="M1010 452q-151 -3 -400 7q173 38 183 39q106 20 186 16q-48 40 -94 80q-65 -15 -148 -50l-142 -64q6 6 79 71q47 42 72 77q19 28 25 62l-48 40q-24 20 -45 43q1 -12 1 -23q0 -57 -32 -125q-17 -36 -39 -71l-43 -68q33 188 46 319q-26 -11 -79 -32q-24 -66 -20 -149 q3 -53 21 -144q-2 3 -57 72q-34 43 -49 77q-13 28 -13 61q-82 -61 -141 -96q94 -40 236 -135q-153 36 -174 40q-99 18 -177 15q-20 -20 -28 -29q-15 -17 -22 -33q197 -12 397 -18q-144 -31 -155 -33q-90 -17 -158 -17q-29 0 -57 3q1 -1 87 -83q68 11 153 45l146 64 q-10 -10 -81 -71q-49 -43 -75 -75q-23 -28 -37 -60q31 -27 90 -84q7 92 89 217q22 34 44 67q-32 -181 -66 -315q4 1 79 31q36 65 36 147q0 47 -17 143q24 -31 71 -94q32 -50 32 -93q0 -9 -1 -19q37 26 74 50l75 47q-54 19 -118 58q-15 9 -110 72q170 -45 259 -49q44 -3 91 2 q22 22 30 31q15 17 24 34z" />
<glyph unicode="&#xf1;" d="M1010 452q-151 -3 -400 7q173 38 183 39q106 20 186 16q-48 40 -94 80q-65 -15 -148 -50l-142 -64q6 6 79 71q47 42 72 77q19 28 25 62l-48 40q-24 20 -45 43q1 -12 1 -23q0 -57 -32 -125q-17 -36 -39 -71l-43 -68q33 188 46 319q-26 -11 -79 -32q-24 -66 -20 -149 q3 -53 21 -144q-2 3 -57 72q-34 43 -49 77q-13 28 -13 61q-82 -61 -141 -96q94 -40 236 -135q-153 36 -174 40q-99 18 -177 15q-20 -20 -28 -29q-15 -17 -22 -33q197 -12 397 -18q-144 -31 -155 -33q-90 -17 -158 -17q-29 0 -57 3q1 -1 87 -83q68 11 153 45l146 64 q-10 -10 -81 -71q-49 -43 -75 -75q-23 -28 -37 -60q31 -27 90 -84q7 92 89 217q22 34 44 67q-32 -181 -66 -315q4 1 79 31q36 65 36 147q0 47 -17 143q24 -31 71 -94q32 -50 32 -93q0 -9 -1 -19q37 26 74 50l75 47q-54 19 -118 58q-15 9 -110 72q170 -45 259 -49q44 -3 91 2 q22 22 30 31q15 17 24 34z" />
<glyph unicode="&#xf2;" d="M1010 452q-151 -3 -400 7q173 38 183 39q106 20 186 16q-48 40 -94 80q-65 -15 -148 -50l-142 -64q6 6 79 71q47 42 72 77q19 28 25 62l-48 40q-24 20 -45 43q1 -12 1 -23q0 -57 -32 -125q-17 -36 -39 -71l-43 -68q33 188 46 319q-26 -11 -79 -32q-24 -66 -20 -149 q3 -53 21 -144q-2 3 -57 72q-34 43 -49 77q-13 28 -13 61q-82 -61 -141 -96q94 -40 236 -135q-153 36 -174 40q-99 18 -177 15q-20 -20 -28 -29q-15 -17 -22 -33q197 -12 397 -18q-144 -31 -155 -33q-90 -17 -158 -17q-29 0 -57 3q1 -1 87 -83q68 11 153 45l146 64 q-10 -10 -81 -71q-49 -43 -75 -75q-23 -28 -37 -60q31 -27 90 -84q7 92 89 217q22 34 44 67q-32 -181 -66 -315q4 1 79 31q36 65 36 147q0 47 -17 143q24 -31 71 -94q32 -50 32 -93q0 -9 -1 -19q37 26 74 50l75 47q-54 19 -118 58q-15 9 -110 72q170 -45 259 -49q44 -3 91 2 q22 22 30 31q15 17 24 34z" />
<glyph unicode="&#xf3;" d="M1010 452q-151 -3 -400 7q173 38 183 39q106 20 186 16q-48 40 -94 80q-65 -15 -148 -50l-142 -64q6 6 79 71q47 42 72 77q19 28 25 62l-48 40q-24 20 -45 43q1 -12 1 -23q0 -57 -32 -125q-17 -36 -39 -71l-43 -68q33 188 46 319q-26 -11 -79 -32q-24 -66 -20 -149 q3 -53 21 -144q-2 3 -57 72q-34 43 -49 77q-13 28 -13 61q-82 -61 -141 -96q94 -40 236 -135q-153 36 -174 40q-99 18 -177 15q-20 -20 -28 -29q-15 -17 -22 -33q197 -12 397 -18q-144 -31 -155 -33q-90 -17 -158 -17q-29 0 -57 3q1 -1 87 -83q68 11 153 45l146 64 q-10 -10 -81 -71q-49 -43 -75 -75q-23 -28 -37 -60q31 -27 90 -84q7 92 89 217q22 34 44 67q-32 -181 -66 -315q4 1 79 31q36 65 36 147q0 47 -17 143q24 -31 71 -94q32 -50 32 -93q0 -9 -1 -19q37 26 74 50l75 47q-54 19 -118 58q-15 9 -110 72q170 -45 259 -49q44 -3 91 2 q22 22 30 31q15 17 24 34z" />
<glyph unicode="&#xf4;" d="M1010 452q-151 -3 -400 7q173 38 183 39q106 20 186 16q-48 40 -94 80q-65 -15 -148 -50l-142 -64q6 6 79 71q47 42 72 77q19 28 25 62l-48 40q-24 20 -45 43q1 -12 1 -23q0 -57 -32 -125q-17 -36 -39 -71l-43 -68q33 188 46 319q-26 -11 -79 -32q-24 -66 -20 -149 q3 -53 21 -144q-2 3 -57 72q-34 43 -49 77q-13 28 -13 61q-82 -61 -141 -96q94 -40 236 -135q-153 36 -174 40q-99 18 -177 15q-20 -20 -28 -29q-15 -17 -22 -33q197 -12 397 -18q-144 -31 -155 -33q-90 -17 -158 -17q-29 0 -57 3q1 -1 87 -83q68 11 153 45l146 64 q-10 -10 -81 -71q-49 -43 -75 -75q-23 -28 -37 -60q31 -27 90 -84q7 92 89 217q22 34 44 67q-32 -181 -66 -315q4 1 79 31q36 65 36 147q0 47 -17 143q24 -31 71 -94q32 -50 32 -93q0 -9 -1 -19q37 26 74 50l75 47q-54 19 -118 58q-15 9 -110 72q170 -45 259 -49q44 -3 91 2 q22 22 30 31q15 17 24 34z" />
<glyph unicode="&#xf5;" d="M1010 452q-151 -3 -400 7q173 38 183 39q106 20 186 16q-48 40 -94 80q-65 -15 -148 -50l-142 -64q6 6 79 71q47 42 72 77q19 28 25 62l-48 40q-24 20 -45 43q1 -12 1 -23q0 -57 -32 -125q-17 -36 -39 -71l-43 -68q33 188 46 319q-26 -11 -79 -32q-24 -66 -20 -149 q3 -53 21 -144q-2 3 -57 72q-34 43 -49 77q-13 28 -13 61q-82 -61 -141 -96q94 -40 236 -135q-153 36 -174 40q-99 18 -177 15q-20 -20 -28 -29q-15 -17 -22 -33q197 -12 397 -18q-144 -31 -155 -33q-90 -17 -158 -17q-29 0 -57 3q1 -1 87 -83q68 11 153 45l146 64 q-10 -10 -81 -71q-49 -43 -75 -75q-23 -28 -37 -60q31 -27 90 -84q7 92 89 217q22 34 44 67q-32 -181 -66 -315q4 1 79 31q36 65 36 147q0 47 -17 143q24 -31 71 -94q32 -50 32 -93q0 -9 -1 -19q37 26 74 50l75 47q-54 19 -118 58q-15 9 -110 72q170 -45 259 -49q44 -3 91 2 q22 22 30 31q15 17 24 34z" />
<glyph unicode="&#xf6;" d="M1010 452q-151 -3 -400 7q173 38 183 39q106 20 186 16q-48 40 -94 80q-65 -15 -148 -50l-142 -64q6 6 79 71q47 42 72 77q19 28 25 62l-48 40q-24 20 -45 43q1 -12 1 -23q0 -57 -32 -125q-17 -36 -39 -71l-43 -68q33 188 46 319q-26 -11 -79 -32q-24 -66 -20 -149 q3 -53 21 -144q-2 3 -57 72q-34 43 -49 77q-13 28 -13 61q-82 -61 -141 -96q94 -40 236 -135q-153 36 -174 40q-99 18 -177 15q-20 -20 -28 -29q-15 -17 -22 -33q197 -12 397 -18q-144 -31 -155 -33q-90 -17 -158 -17q-29 0 -57 3q1 -1 87 -83q68 11 153 45l146 64 q-10 -10 -81 -71q-49 -43 -75 -75q-23 -28 -37 -60q31 -27 90 -84q7 92 89 217q22 34 44 67q-32 -181 -66 -315q4 1 79 31q36 65 36 147q0 47 -17 143q24 -31 71 -94q32 -50 32 -93q0 -9 -1 -19q37 26 74 50l75 47q-54 19 -118 58q-15 9 -110 72q170 -45 259 -49q44 -3 91 2 q22 22 30 31q15 17 24 34z" />
<glyph unicode="&#xf7;" d="M1010 452q-151 -3 -400 7q173 38 183 39q106 20 186 16q-48 40 -94 80q-65 -15 -148 -50l-142 -64q6 6 79 71q47 42 72 77q19 28 25 62l-48 40q-24 20 -45 43q1 -12 1 -23q0 -57 -32 -125q-17 -36 -39 -71l-43 -68q33 188 46 319q-26 -11 -79 -32q-24 -66 -20 -149 q3 -53 21 -144q-2 3 -57 72q-34 43 -49 77q-13 28 -13 61q-82 -61 -141 -96q94 -40 236 -135q-153 36 -174 40q-99 18 -177 15q-20 -20 -28 -29q-15 -17 -22 -33q197 -12 397 -18q-144 -31 -155 -33q-90 -17 -158 -17q-29 0 -57 3q1 -1 87 -83q68 11 153 45l146 64 q-10 -10 -81 -71q-49 -43 -75 -75q-23 -28 -37 -60q31 -27 90 -84q7 92 89 217q22 34 44 67q-32 -181 -66 -315q4 1 79 31q36 65 36 147q0 47 -17 143q24 -31 71 -94q32 -50 32 -93q0 -9 -1 -19q37 26 74 50l75 47q-54 19 -118 58q-15 9 -110 72q170 -45 259 -49q44 -3 91 2 q22 22 30 31q15 17 24 34z" />
<glyph unicode="&#xf8;" d="M1010 452q-151 -3 -400 7q173 38 183 39q106 20 186 16q-48 40 -94 80q-65 -15 -148 -50l-142 -64q6 6 79 71q47 42 72 77q19 28 25 62l-48 40q-24 20 -45 43q1 -12 1 -23q0 -57 -32 -125q-17 -36 -39 -71l-43 -68q33 188 46 319q-26 -11 -79 -32q-24 -66 -20 -149 q3 -53 21 -144q-2 3 -57 72q-34 43 -49 77q-13 28 -13 61q-82 -61 -141 -96q94 -40 236 -135q-153 36 -174 40q-99 18 -177 15q-20 -20 -28 -29q-15 -17 -22 -33q197 -12 397 -18q-144 -31 -155 -33q-90 -17 -158 -17q-29 0 -57 3q1 -1 87 -83q68 11 153 45l146 64 q-10 -10 -81 -71q-49 -43 -75 -75q-23 -28 -37 -60q31 -27 90 -84q7 92 89 217q22 34 44 67q-32 -181 -66 -315q4 1 79 31q36 65 36 147q0 47 -17 143q24 -31 71 -94q32 -50 32 -93q0 -9 -1 -19q37 26 74 50l75 47q-54 19 -118 58q-15 9 -110 72q170 -45 259 -49q44 -3 91 2 q22 22 30 31q15 17 24 34z" />
<glyph unicode="&#xf9;" d="M1010 452q-151 -3 -400 7q173 38 183 39q106 20 186 16q-48 40 -94 80q-65 -15 -148 -50l-142 -64q6 6 79 71q47 42 72 77q19 28 25 62l-48 40q-24 20 -45 43q1 -12 1 -23q0 -57 -32 -125q-17 -36 -39 -71l-43 -68q33 188 46 319q-26 -11 -79 -32q-24 -66 -20 -149 q3 -53 21 -144q-2 3 -57 72q-34 43 -49 77q-13 28 -13 61q-82 -61 -141 -96q94 -40 236 -135q-153 36 -174 40q-99 18 -177 15q-20 -20 -28 -29q-15 -17 -22 -33q197 -12 397 -18q-144 -31 -155 -33q-90 -17 -158 -17q-29 0 -57 3q1 -1 87 -83q68 11 153 45l146 64 q-10 -10 -81 -71q-49 -43 -75 -75q-23 -28 -37 -60q31 -27 90 -84q7 92 89 217q22 34 44 67q-32 -181 -66 -315q4 1 79 31q36 65 36 147q0 47 -17 143q24 -31 71 -94q32 -50 32 -93q0 -9 -1 -19q37 26 74 50l75 47q-54 19 -118 58q-15 9 -110 72q170 -45 259 -49q44 -3 91 2 q22 22 30 31q15 17 24 34z" />
<glyph unicode="&#xfa;" horiz-adv-x="690" d="M588 780h-210l-50 60l106 90h299l-5 -30zM561 630l16 90l141 120h30l-58 -330h-30zM222 750l71 60l74 -90l-16 -90l-141 -120h-30zM476 150h-210l-141 -120l-5 -30h300l106 90zM503 300l-16 -90l74 -90l71 60l42 240h-30zM106 90h30l141 120l16 90l-99 120h-30zM279 390 h270l70 60l6 30l-50 60h-270l-70 -60l-6 -30z" />
<glyph unicode="&#xfb;" d="M1010 452q-151 -3 -400 7q173 38 183 39q106 20 186 16q-48 40 -94 80q-65 -15 -148 -50l-142 -64q6 6 79 71q47 42 72 77q19 28 25 62l-48 40q-24 20 -45 43q1 -12 1 -23q0 -57 -32 -125q-17 -36 -39 -71l-43 -68q33 188 46 319q-26 -11 -79 -32q-24 -66 -20 -149 q3 -53 21 -144q-2 3 -57 72q-34 43 -49 77q-13 28 -13 61q-82 -61 -141 -96q94 -40 236 -135q-153 36 -174 40q-99 18 -177 15q-20 -20 -28 -29q-15 -17 -22 -33q197 -12 397 -18q-144 -31 -155 -33q-90 -17 -158 -17q-29 0 -57 3q1 -1 87 -83q68 11 153 45l146 64 q-10 -10 -81 -71q-49 -43 -75 -75q-23 -28 -37 -60q31 -27 90 -84q7 92 89 217q22 34 44 67q-32 -181 -66 -315q4 1 79 31q36 65 36 147q0 47 -17 143q24 -31 71 -94q32 -50 32 -93q0 -9 -1 -19q37 26 74 50l75 47q-54 19 -118 58q-15 9 -110 72q170 -45 259 -49q44 -3 91 2 q22 22 30 31q15 17 24 34z" />
<glyph unicode="&#xfc;" d="M1010 452q-151 -3 -400 7q173 38 183 39q106 20 186 16q-48 40 -94 80q-65 -15 -148 -50l-142 -64q6 6 79 71q47 42 72 77q19 28 25 62l-48 40q-24 20 -45 43q1 -12 1 -23q0 -57 -32 -125q-17 -36 -39 -71l-43 -68q33 188 46 319q-26 -11 -79 -32q-24 -66 -20 -149 q3 -53 21 -144q-2 3 -57 72q-34 43 -49 77q-13 28 -13 61q-82 -61 -141 -96q94 -40 236 -135q-153 36 -174 40q-99 18 -177 15q-20 -20 -28 -29q-15 -17 -22 -33q197 -12 397 -18q-144 -31 -155 -33q-90 -17 -158 -17q-29 0 -57 3q1 -1 87 -83q68 11 153 45l146 64 q-10 -10 -81 -71q-49 -43 -75 -75q-23 -28 -37 -60q31 -27 90 -84q7 92 89 217q22 34 44 67q-32 -181 -66 -315q4 1 79 31q36 65 36 147q0 47 -17 143q24 -31 71 -94q32 -50 32 -93q0 -9 -1 -19q37 26 74 50l75 47q-54 19 -118 58q-15 9 -110 72q170 -45 259 -49q44 -3 91 2 q22 22 30 31q15 17 24 34z" />
<glyph unicode="&#xfd;" d="M1010 452q-151 -3 -400 7q173 38 183 39q106 20 186 16q-48 40 -94 80q-65 -15 -148 -50l-142 -64q6 6 79 71q47 42 72 77q19 28 25 62l-48 40q-24 20 -45 43q1 -12 1 -23q0 -57 -32 -125q-17 -36 -39 -71l-43 -68q33 188 46 319q-26 -11 -79 -32q-24 -66 -20 -149 q3 -53 21 -144q-2 3 -57 72q-34 43 -49 77q-13 28 -13 61q-82 -61 -141 -96q94 -40 236 -135q-153 36 -174 40q-99 18 -177 15q-20 -20 -28 -29q-15 -17 -22 -33q197 -12 397 -18q-144 -31 -155 -33q-90 -17 -158 -17q-29 0 -57 3q1 -1 87 -83q68 11 153 45l146 64 q-10 -10 -81 -71q-49 -43 -75 -75q-23 -28 -37 -60q31 -27 90 -84q7 92 89 217q22 34 44 67q-32 -181 -66 -315q4 1 79 31q36 65 36 147q0 47 -17 143q24 -31 71 -94q32 -50 32 -93q0 -9 -1 -19q37 26 74 50l75 47q-54 19 -118 58q-15 9 -110 72q170 -45 259 -49q44 -3 91 2 q22 22 30 31q15 17 24 34z" />
<glyph unicode="&#xfe;" d="M1010 452q-151 -3 -400 7q173 38 183 39q106 20 186 16q-48 40 -94 80q-65 -15 -148 -50l-142 -64q6 6 79 71q47 42 72 77q19 28 25 62l-48 40q-24 20 -45 43q1 -12 1 -23q0 -57 -32 -125q-17 -36 -39 -71l-43 -68q33 188 46 319q-26 -11 -79 -32q-24 -66 -20 -149 q3 -53 21 -144q-2 3 -57 72q-34 43 -49 77q-13 28 -13 61q-82 -61 -141 -96q94 -40 236 -135q-153 36 -174 40q-99 18 -177 15q-20 -20 -28 -29q-15 -17 -22 -33q197 -12 397 -18q-144 -31 -155 -33q-90 -17 -158 -17q-29 0 -57 3q1 -1 87 -83q68 11 153 45l146 64 q-10 -10 -81 -71q-49 -43 -75 -75q-23 -28 -37 -60q31 -27 90 -84q7 92 89 217q22 34 44 67q-32 -181 -66 -315q4 1 79 31q36 65 36 147q0 47 -17 143q24 -31 71 -94q32 -50 32 -93q0 -9 -1 -19q37 26 74 50l75 47q-54 19 -118 58q-15 9 -110 72q170 -45 259 -49q44 -3 91 2 q22 22 30 31q15 17 24 34z" />
<glyph unicode="&#xff;" d="M1010 452q-151 -3 -400 7q173 38 183 39q106 20 186 16q-48 40 -94 80q-65 -15 -148 -50l-142 -64q6 6 79 71q47 42 72 77q19 28 25 62l-48 40q-24 20 -45 43q1 -12 1 -23q0 -57 -32 -125q-17 -36 -39 -71l-43 -68q33 188 46 319q-26 -11 -79 -32q-24 -66 -20 -149 q3 -53 21 -144q-2 3 -57 72q-34 43 -49 77q-13 28 -13 61q-82 -61 -141 -96q94 -40 236 -135q-153 36 -174 40q-99 18 -177 15q-20 -20 -28 -29q-15 -17 -22 -33q197 -12 397 -18q-144 -31 -155 -33q-90 -17 -158 -17q-29 0 -57 3q1 -1 87 -83q68 11 153 45l146 64 q-10 -10 -81 -71q-49 -43 -75 -75q-23 -28 -37 -60q31 -27 90 -84q7 92 89 217q22 34 44 67q-32 -181 -66 -315q4 1 79 31q36 65 36 147q0 47 -17 143q24 -31 71 -94q32 -50 32 -93q0 -9 -1 -19q37 26 74 50l75 47q-54 19 -118 58q-15 9 -110 72q170 -45 259 -49q44 -3 91 2 q22 22 30 31q15 17 24 34z" />
<glyph unicode="&#x2000;" horiz-adv-x="525" />
<glyph unicode="&#x2001;" horiz-adv-x="1050" />
<glyph unicode="&#x2002;" horiz-adv-x="525" />
<glyph unicode="&#x2003;" horiz-adv-x="1050" />
<glyph unicode="&#x2004;" horiz-adv-x="350" />
<glyph unicode="&#x2005;" horiz-adv-x="262" />
<glyph unicode="&#x2006;" horiz-adv-x="175" />
<glyph unicode="&#x2007;" horiz-adv-x="175" />
<glyph unicode="&#x2008;" horiz-adv-x="131" />
<glyph unicode="&#x2009;" horiz-adv-x="210" />
<glyph unicode="&#x200a;" horiz-adv-x="58" />
<glyph unicode="&#x2010;" d="M1010 452q-151 -3 -400 7q173 38 183 39q106 20 186 16q-48 40 -94 80q-65 -15 -148 -50l-142 -64q6 6 79 71q47 42 72 77q19 28 25 62l-48 40q-24 20 -45 43q1 -12 1 -23q0 -57 -32 -125q-17 -36 -39 -71l-43 -68q33 188 46 319q-26 -11 -79 -32q-24 -66 -20 -149 q3 -53 21 -144q-2 3 -57 72q-34 43 -49 77q-13 28 -13 61q-82 -61 -141 -96q94 -40 236 -135q-153 36 -174 40q-99 18 -177 15q-20 -20 -28 -29q-15 -17 -22 -33q197 -12 397 -18q-144 -31 -155 -33q-90 -17 -158 -17q-29 0 -57 3q1 -1 87 -83q68 11 153 45l146 64 q-10 -10 -81 -71q-49 -43 -75 -75q-23 -28 -37 -60q31 -27 90 -84q7 92 89 217q22 34 44 67q-32 -181 -66 -315q4 1 79 31q36 65 36 147q0 47 -17 143q24 -31 71 -94q32 -50 32 -93q0 -9 -1 -19q37 26 74 50l75 47q-54 19 -118 58q-15 9 -110 72q170 -45 259 -49q44 -3 91 2 q22 22 30 31q15 17 24 34z" />
<glyph unicode="&#x2011;" d="M1010 452q-151 -3 -400 7q173 38 183 39q106 20 186 16q-48 40 -94 80q-65 -15 -148 -50l-142 -64q6 6 79 71q47 42 72 77q19 28 25 62l-48 40q-24 20 -45 43q1 -12 1 -23q0 -57 -32 -125q-17 -36 -39 -71l-43 -68q33 188 46 319q-26 -11 -79 -32q-24 -66 -20 -149 q3 -53 21 -144q-2 3 -57 72q-34 43 -49 77q-13 28 -13 61q-82 -61 -141 -96q94 -40 236 -135q-153 36 -174 40q-99 18 -177 15q-20 -20 -28 -29q-15 -17 -22 -33q197 -12 397 -18q-144 -31 -155 -33q-90 -17 -158 -17q-29 0 -57 3q1 -1 87 -83q68 11 153 45l146 64 q-10 -10 -81 -71q-49 -43 -75 -75q-23 -28 -37 -60q31 -27 90 -84q7 92 89 217q22 34 44 67q-32 -181 -66 -315q4 1 79 31q36 65 36 147q0 47 -17 143q24 -31 71 -94q32 -50 32 -93q0 -9 -1 -19q37 26 74 50l75 47q-54 19 -118 58q-15 9 -110 72q170 -45 259 -49q44 -3 91 2 q22 22 30 31q15 17 24 34z" />
<glyph unicode="&#x2012;" d="M1010 452q-151 -3 -400 7q173 38 183 39q106 20 186 16q-48 40 -94 80q-65 -15 -148 -50l-142 -64q6 6 79 71q47 42 72 77q19 28 25 62l-48 40q-24 20 -45 43q1 -12 1 -23q0 -57 -32 -125q-17 -36 -39 -71l-43 -68q33 188 46 319q-26 -11 -79 -32q-24 -66 -20 -149 q3 -53 21 -144q-2 3 -57 72q-34 43 -49 77q-13 28 -13 61q-82 -61 -141 -96q94 -40 236 -135q-153 36 -174 40q-99 18 -177 15q-20 -20 -28 -29q-15 -17 -22 -33q197 -12 397 -18q-144 -31 -155 -33q-90 -17 -158 -17q-29 0 -57 3q1 -1 87 -83q68 11 153 45l146 64 q-10 -10 -81 -71q-49 -43 -75 -75q-23 -28 -37 -60q31 -27 90 -84q7 92 89 217q22 34 44 67q-32 -181 -66 -315q4 1 79 31q36 65 36 147q0 47 -17 143q24 -31 71 -94q32 -50 32 -93q0 -9 -1 -19q37 26 74 50l75 47q-54 19 -118 58q-15 9 -110 72q170 -45 259 -49q44 -3 91 2 q22 22 30 31q15 17 24 34z" />
<glyph unicode="&#x2013;" horiz-adv-x="559" d="M608 452q-84 -3 -222 7q96 38 102 39q58 20 103 16q-27 40 -52 80q-36 -15 -82 -50q-40 -32 -79 -64q3 6 44 71q26 42 40 77q10 28 14 62l-27 40q-13 20 -25 43q1 -12 1 -23q0 -57 -18 -125q-10 -36 -22 -71l-24 -68q19 188 26 319q-15 -11 -44 -32q-13 -66 -11 -149 q2 -53 12 -144q-2 3 -32 72q-19 43 -27 77q-7 28 -7 61q-46 -61 -79 -96q53 -40 131 -135q-85 36 -96 40q-55 18 -98 15q-11 -20 -16 -29q-8 -17 -12 -33q109 -12 220 -18q-80 -31 -86 -33q-50 -17 -87 -17q-17 0 -32 3q1 -1 48 -83q38 11 85 45q40 32 81 64q-6 -10 -45 -71 q-27 -43 -42 -75q-12 -28 -20 -60q17 -27 50 -84q4 92 49 217q12 34 25 67q-18 -181 -37 -315q2 1 44 31q20 65 20 147q0 47 -10 143q14 -31 40 -94q17 -50 17 -93v-19q20 26 41 50l41 47q-29 19 -65 58q-8 9 -61 72q94 -45 144 -49q24 -3 50 2q12 22 17 31q8 17 13 34z" />
<glyph unicode="&#x2014;" horiz-adv-x="1059" d="M1108 452q-167 -3 -443 7q191 38 202 39q118 20 207 16q-54 40 -105 80q-72 -15 -164 -50q-78 -32 -157 -64q7 6 87 71q53 42 80 77q21 28 28 62l-53 40q-27 20 -50 43q1 -12 1 -23q0 -57 -35 -125q-19 -36 -44 -71l-47 -68q36 188 51 319q-29 -11 -88 -32 q-27 -66 -22 -149q3 -53 23 -144q-2 3 -63 72q-38 43 -54 77q-15 28 -15 61q-91 -61 -156 -96q104 -40 262 -135q-170 36 -193 40q-110 18 -197 15q-22 -20 -31 -29q-16 -17 -24 -33q218 -12 440 -18q-160 -31 -172 -33q-99 -17 -175 -17q-32 0 -63 3q1 -1 96 -83 q76 11 170 45l162 64q-11 -10 -90 -71q-54 -43 -83 -75q-26 -28 -41 -60q34 -27 100 -84q7 92 98 217q25 34 49 67q-35 -181 -73 -315q4 1 88 31q39 65 39 147q0 47 -18 143q26 -31 78 -94q36 -50 36 -93q0 -9 -1 -19q41 26 82 50l83 47q-60 19 -131 58q-17 9 -122 72 q189 -45 287 -49q49 -3 101 2q25 22 33 31q17 17 27 34z" />
<glyph unicode="&#x2018;" horiz-adv-x="331" d="M404 930h-60l-116 -150l-32 -180h150z" />
<glyph unicode="&#x2019;" horiz-adv-x="331" d="M196 600h60l116 150l32 180h-150z" />
<glyph unicode="&#x201a;" horiz-adv-x="331" d="M64 -150h60l116 150l32 180h-150z" />
<glyph unicode="&#x201c;" horiz-adv-x="541" d="M404 930h-60l-116 -150l-32 -180h150zM406 600h60l116 150l32 180h-150z" />
<glyph unicode="&#x201d;" horiz-adv-x="541" d="M196 600h60l116 150l32 180h-150zM614 930h-60l-116 -150l-32 -180h150z" />
<glyph unicode="&#x201e;" horiz-adv-x="540" d="M64 -150h60l116 150l32 180h-150zM274 -150h60l116 150l32 180h-150z" />
<glyph unicode="&#x202f;" horiz-adv-x="210" />
<glyph unicode="&#x205f;" horiz-adv-x="262" />
<glyph unicode="&#xe000;" horiz-adv-x="840" d="M0 840h840v-840h-840v840z" />
</font>
</defs>
</svg>
