<?xml version="1.0" standalone="no"?>
<!DOCTYPE svg PUBLIC "-//W3C//DTD SVG 1.1//EN" "http://www.w3.org/Graphics/SVG/1.1/DTD/svg11.dtd" >
<svg xmlns="http://www.w3.org/2000/svg">
<metadata></metadata>
<defs>
<font id="molengoregular" horiz-adv-x="0" >
<font-face units-per-em="2048" ascent="1556" descent="-492" />
<missing-glyph horiz-adv-x="582" />
<glyph />
<glyph />
<glyph horiz-adv-x="682" />
<glyph unicode=" "  horiz-adv-x="582" />
<glyph unicode="&#x09;" horiz-adv-x="582" />
<glyph unicode="&#xa0;" horiz-adv-x="582" />
<glyph unicode="!" horiz-adv-x="454" d="M107 1392h240l-64 -932h-92zM109 103q0 50 34.5 85.5t83.5 35.5t83.5 -35.5t34.5 -85.5t-34.5 -85.5t-83.5 -35.5t-83.5 35.5t-34.5 85.5z" />
<glyph unicode="&#x22;" horiz-adv-x="575" d="M64 980zM216 1428l-48 -448h-104v448h152zM513 1428l-48 -448h-104v448h152z" />
<glyph unicode="#" horiz-adv-x="1181" d="M524 1475h128l-98 -464h296l98 464h128l-98 -465h209v-109h-232l-77 -362h209v-109h-232l-91 -430h-128l91 431h-296l-91 -431h-128l91 432h-219v109h242l77 362h-219v109h242zM454 540h296l77 362h-296z" />
<glyph unicode="$" horiz-adv-x="966" d="M429 683v357q-63 -16 -102.5 -60t-39.5 -108t37 -108.5t105 -80.5zM429 1174v164h117v-165q149 -14 237 -74l-36 -128q-88 60 -201 73v-415q1 -1 4 -2l52.5 -22.5t50 -23t50 -26.5t44 -29t41.5 -34t33 -38t27 -45t15.5 -52t6.5 -61q0 -121 -88.5 -209.5t-235.5 -102.5 v-164h-117v164q-48 3 -90 10.5t-73.5 17.5t-61.5 23t-54.5 27t-53.5 29l58 120q37 -24 54.5 -34t54 -27t76.5 -25.5t90 -11.5v414q-38 17 -64 29.5t-61 32.5t-57.5 38.5t-47.5 44.5t-39.5 54t-24 64t-9.5 77q0 122 83 207t220 100zM546 473v-356q79 14 121 59t42 98 q0 67 -42 113t-121 86z" />
<glyph unicode="%" horiz-adv-x="1566" d="M1117 1391h128l-787 -1391h-128zM375 1392q56 0 111 -17t106.5 -53t83.5 -102.5t32 -154.5t-32 -154.5t-83.5 -102t-106.5 -52.5t-111 -17q-57 0 -112 17t-106.5 52.5t-83.5 102t-32 154.5t32 154.5t83.5 102.5t106.5 53t112 17zM375 846q32 0 63 11.5t60.5 35.5t48 68.5 t18.5 103.5t-18.5 103.5t-48 68.5t-60.5 35.5t-63 11.5t-63.5 -11.5t-61 -35.5t-48 -68.5t-18.5 -103.5t18.5 -103.5t48 -68.5t61 -35.5t63.5 -11.5zM1153 635q56 0 111 -17t106.5 -53t83.5 -102.5t32 -154.5t-32 -154.5t-83.5 -102t-106.5 -52.5t-111 -17q-57 0 -112 17 t-106.5 52.5t-83.5 102t-32 154.5t32 154.5t83.5 102.5t106.5 53t112 17zM1153 89q32 0 63 11.5t60.5 35.5t48 68.5t18.5 103.5t-18.5 103.5t-48 68.5t-60.5 35.5t-63 11.5t-63.5 -11.5t-61 -35.5t-48 -68.5t-18.5 -103.5t18.5 -103.5t48 -68.5t61 -35.5t63.5 -11.5z" />
<glyph unicode="&#x26;" horiz-adv-x="1466" d="M452 714q-98 -47 -156.5 -139.5t-58.5 -202.5q0 -114 87 -187.5t212 -73.5q95 0 193.5 39.5t146.5 104.5zM944 1296l-40 -140q-26 23 -110.5 62t-153.5 39q-58 0 -96 -32t-51 -71.5t-13 -81.5q0 -129 86 -244q145 -193 406 -454q58 88 112 253.5t72 292.5l106 -68 q-13 -123 -79 -297.5t-131 -268.5l267 -286h-211l-148 160q-30 -24 -55.5 -49t-61.5 -48t-76 -41t-99.5 -29t-131.5 -11q-89 0 -169.5 23.5t-146.5 69t-105 122.5t-39 175q0 102 44.5 193.5t107 151.5t144.5 111q-33 49 -54.5 118.5t-21.5 141.5q0 136 95 217t225 81 q196 0 328 -90z" />
<glyph unicode="'" horiz-adv-x="264" d="M216 1428l-48 -448h-104v448h152z" />
<glyph unicode="(" horiz-adv-x="634" d="M271 492q0 -140 22 -271.5t64.5 -253.5t96.5 -231.5t127 -228.5h-110q-106 152 -179 289t-111.5 258t-54.5 224.5t-16 213.5q0 108 16 210.5t54.5 224.5t111.5 260.5t179 289.5h110q-73 -119 -127 -228.5t-96.5 -231.5t-64.5 -253.5t-22 -271.5z" />
<glyph unicode=")" horiz-adv-x="634" d="M363 492q0 140 -22 271.5t-64.5 253.5t-96.5 231.5t-127 228.5h110q106 -151 179 -289.5t111.5 -260.5t54.5 -224.5t16 -210.5q0 -110 -16 -213.5t-54.5 -224.5t-111.5 -258t-179 -289h-110q73 119 127 228.5t96.5 231.5t64.5 253.5t22 271.5z" />
<glyph unicode="*" horiz-adv-x="849" d="M454 953l149 -249l-126 -59l-79 285l-190 -219l-95 102l247 162l-267 113l68 122l230 -184l25 289l137 -27l-104 -276l283 66l16 -139z" />
<glyph unicode="+" horiz-adv-x="1130" d="M620 558h449v-109h-449v-449h-110v449h-449v109h449v450h110v-450z" />
<glyph unicode="," horiz-adv-x="450" d="M205 -27q0 12 -15.5 22.5t-33.5 19t-33.5 33.5t-15.5 63q0 42 31.5 77.5t86.5 35.5q41 0 68.5 -17.5t38.5 -45.5t15 -49t4 -43q0 -78 -39 -164.5t-155 -198.5l-82 72q130 124 130 195z" />
<glyph unicode="-" horiz-adv-x="765" d="M690 449h-629v109h629v-109z" />
<glyph unicode="." horiz-adv-x="450" d="M107 103q0 50 34.5 85.5t83.5 35.5t83.5 -35.5t34.5 -85.5t-34.5 -85.5t-83.5 -35.5t-83.5 35.5t-34.5 85.5z" />
<glyph unicode="/" horiz-adv-x="645" d="M493 1475h128l-469 -1475h-128z" />
<glyph unicode="0" horiz-adv-x="1231" d="M616 111q51 0 102.5 12.5t105 43t94 76.5t66.5 118.5t26 162.5t-26 163t-66.5 118.5t-94 76.5t-105 43.5t-102.5 12.5t-103 -12.5t-105 -43.5t-94 -76.5t-66.5 -118.5t-25.5 -163t25.5 -162.5t66.5 -118.5t94 -76.5t105 -43t103 -12.5zM616 1067q74 0 147 -16.5 t148 -56.5t131.5 -100t92.5 -156t36 -214t-36 -213.5t-92.5 -155.5t-131.5 -100t-148 -56.5t-147 -16.5t-147 16.5t-148 56.5t-131.5 100t-92.5 155.5t-36 213.5q0 119 36 214.5t92.5 155.5t131.5 100t148 56.5t147 16.5z" />
<glyph unicode="1" horiz-adv-x="581" d="M436 1049v-1049h-161v906l-188 -96l-53 115l241 124h161z" />
<glyph unicode="2" horiz-adv-x="919" d="M400 938q-120 0 -250 -84l-60 105q49 40 131.5 74t178.5 34q163 0 260.5 -72t97.5 -215q0 -47 -17 -96.5t-40 -90t-65 -92.5t-73.5 -85.5t-84.5 -87.5l-196 -200h520v-128h-712v128l196 200q55 57 102 104.5t85.5 92.5t65.5 86t42 85t15 88q0 63 -49.5 108.5t-146.5 45.5 z" />
<glyph unicode="3" horiz-adv-x="841" d="M788 81q0 -87 -32 -165.5t-90 -137.5t-143.5 -93.5t-186.5 -34.5q-183 0 -300 92l65 104q45 -30 90.5 -45.5t72 -18.5t63.5 -3q135 0 216.5 87.5t81.5 214.5q0 143 -91 221t-218 78h-82v128h54q45 0 89 13t85 39t66.5 75t25.5 113q0 49 -19.5 87.5t-51 60t-66 32.5 t-69.5 11q-101 0 -204 -45l-42 112q51 26 121 43.5t123 17.5q87 0 154 -20t107 -51.5t66 -75t35 -85.5t9 -88q0 -50 -15 -95t-34.5 -74t-47.5 -55t-46 -38t-38 -23q34 -13 59.5 -25.5t64.5 -43t64.5 -68t44.5 -101.5t19 -143z" />
<glyph unicode="4" horiz-adv-x="995" d="M591 259v563l-359 -563h359zM62 236l529 831h161v-808h217v-128h-217v-387h-161v387h-529v105z" />
<glyph unicode="5" horiz-adv-x="835" d="M120 1049h596v-128h-434l-18 -361q69 -5 129.5 -18t128 -45.5t115.5 -80.5t79.5 -129t31.5 -185q0 -205 -124.5 -328.5t-347.5 -123.5q-48 0 -115.5 13.5t-112.5 38.5l56 123q71 -40 172 -40q153 0 232 90t79 227q0 78 -28 139t-71.5 97.5t-103.5 60.5t-117 32.5 t-119 8.5h-63z" />
<glyph unicode="6" horiz-adv-x="1013" d="M522 111q102 0 178.5 73t80.5 203q5 141 -72 217.5t-201 76.5q-86 0 -149.5 -26.5t-122.5 -82.5q-5 -32 -5 -62q0 -95 21 -169t52.5 -116t73 -69t76 -36t68.5 -9zM525 -18q-61 0 -120 14t-121.5 51t-108.5 94.5t-75.5 152t-29.5 215.5q0 75 10 146t35 147t63.5 142 t99.5 127.5t139 108t186 80t237 45.5l15 -129q-244 -22 -400 -138t-202 -325q42 45 121 71t162 26q175 0 290.5 -109.5t115.5 -284.5q0 -184 -111 -309t-306 -125z" />
<glyph unicode="7" horiz-adv-x="787" d="M379 636l165 285h-509v128h736l-164 -285q-132 -229 -214.5 -500t-107.5 -521h-161q21 218 99 487t156 406z" />
<glyph unicode="8" horiz-adv-x="952" d="M673 1012q0 45 -21.5 79t-54.5 51.5t-64.5 25.5t-60.5 8t-61 -8t-65 -25t-54.5 -51t-21.5 -80q0 -45 16 -83t48 -69t65.5 -53.5t83.5 -49.5q43 30 70.5 53t58 55.5t46 69.5t15.5 77zM436 605q-98 -56 -151.5 -125.5t-53.5 -167.5q0 -79 72 -140t163 -61q108 0 183 54 t75 147q0 32 -8.5 60t-23 51t-35.5 44t-46 38t-54 34.5t-59.5 33t-61.5 32.5zM316 672q-46 30 -81 61.5t-65 73t-45.5 95.5t-15.5 118q0 86 53.5 152.5t135 99.5t174.5 33t174 -33t134.5 -99.5t53.5 -152.5q0 -56 -19 -105.5t-53 -89.5t-72.5 -70.5t-86.5 -60.5 q49 -27 85 -50.5t75.5 -59.5t64.5 -74t41 -91t16 -115q0 -64 -24 -120t-71.5 -102t-129.5 -73t-188 -27t-186 26.5t-126 72.5t-68 102t-22 121q0 43 7.5 81t19.5 67.5t32 57.5t38.5 48t47 42.5t49 37t52.5 34.5z" />
<glyph unicode="9" horiz-adv-x="1013" d="M490 938q-102 0 -178.5 -73t-80.5 -203q-5 -141 72 -217.5t201 -76.5q86 0 149.5 26.5t122.5 82.5q5 32 5 62q0 95 -21 169t-52.5 116t-73 69t-76 36t-68.5 9zM487 1067q61 0 120 -14t121.5 -51t108.5 -94.5t75.5 -152t29.5 -215.5q0 -75 -10 -146t-35 -147t-63.5 -142 t-99.5 -127.5t-139 -108t-186 -80t-237 -45.5l-15 129q244 22 400 138t202 325q-42 -45 -121 -71t-162 -26q-175 0 -290.5 109.5t-115.5 284.5q0 184 111 309t306 125z" />
<glyph unicode=":" horiz-adv-x="450" d="M107 0zM107 754q0 50 34.5 85.5t83.5 35.5t83.5 -35.5t34.5 -85.5t-34.5 -85.5t-83.5 -35.5t-83.5 35.5t-34.5 85.5zM107 103q0 50 34.5 85.5t83.5 35.5t83.5 -35.5t34.5 -85.5t-34.5 -85.5t-83.5 -35.5t-83.5 35.5t-34.5 85.5z" />
<glyph unicode=";" horiz-adv-x="450" d="M75 0zM205 -27q0 12 -15.5 22.5t-33.5 19t-33.5 33.5t-15.5 63q0 42 31.5 77.5t86.5 35.5q41 0 68.5 -17.5t38.5 -45.5t15 -49t4 -43q0 -78 -39 -164.5t-155 -198.5l-82 72q130 124 130 195zM107 754q0 50 34.5 85.5t83.5 35.5t83.5 -35.5t34.5 -85.5t-34.5 -85.5 t-83.5 -35.5t-83.5 35.5t-34.5 85.5z" />
<glyph unicode="&#x3c;" horiz-adv-x="967" d="M0 525l800 630l79 -84l-692 -546l692 -546l-79 -84z" />
<glyph unicode="=" horiz-adv-x="1052" d="M991 630h-930v108h930v-108zM991 294h-930v108h930v-108z" />
<glyph unicode="&#x3e;" horiz-adv-x="967" d="M967 525l-800 -630l-79 84l692 546l-692 546l79 84z" />
<glyph unicode="?" horiz-adv-x="864" d="M302 103q0 50 34.5 85.5t83.5 35.5t83.5 -35.5t34.5 -85.5t-34.5 -85.5t-83.5 -35.5t-83.5 35.5t-34.5 85.5zM108 1380q30 19 46.5 27.5t56.5 25t92 24t117 7.5q136 0 240 -79.5t104 -204.5q0 -67 -29.5 -139.5t-72 -134t-85 -119t-72 -114.5t-29.5 -101q0 -76 26 -164 l-134 -20q-8 15 -17.5 36.5t-17.5 42.5t-13 50t-5 59q0 59 29.5 124t72 122.5t85 114.5t72 121t29.5 122q0 62 -59 108.5t-170 46.5t-216 -63z" />
<glyph unicode="@" horiz-adv-x="1994" d="M1930 608q0 -97 -23.5 -189.5t-69.5 -170.5t-108.5 -137t-145 -92.5t-174.5 -33.5q-61 0 -106 9.5t-70.5 23.5t-42.5 36.5t-23.5 42t-10.5 47.5q-115 -162 -308 -162q-64 0 -117 19t-93.5 57t-62.5 101t-22 146q0 121 35 228t93.5 183t132.5 131.5t153.5 82.5t156.5 27 q99 0 172 -23.5t146 -74.5l-91 -467q-24 -122 -24 -183q0 -65 26 -89.5t87 -24.5q86 0 167 74t130.5 190.5t49.5 236.5q0 144 -51 272t-143 224t-229.5 152t-299.5 56q-124 0 -246 -41t-226.5 -120t-185.5 -185t-127 -244.5t-46 -289.5q0 -170 60.5 -319.5t165.5 -255.5 t253.5 -167.5t317.5 -61.5q92 0 178.5 18t145.5 41t125.5 64t99.5 66.5t86 69.5l90 -70q-121 -129 -308.5 -213t-416.5 -84q-164 0 -303.5 37t-240.5 103t-178.5 153.5t-124 192.5t-70 215.5t-23.5 226.5q0 158 49.5 306.5t139.5 268t208.5 209.5t264 139t298.5 49 q163 0 304.5 -42.5t245.5 -117t179.5 -175t113 -219t37.5 -246.5zM1135 828q-70 0 -129.5 -19.5t-101.5 -51.5t-76 -76t-54.5 -90t-34.5 -96.5t-19.5 -93t-5.5 -81.5q0 -109 47 -159.5t122 -50.5q48 0 89.5 14t77.5 42.5t62 55.5t59 69l97 500q-51 37 -133 37z" />
<glyph unicode="A" horiz-adv-x="1328" d="M933 404h-548l-150 -404h-168l522 1391h150l522 -1391h-178zM881 544l-222 600l-223 -600h445zM664 1409zM786 1053zM1166 0zM664 0z" />
<glyph unicode="B" horiz-adv-x="1116" d="M361 1252v-457h66q167 0 255 63q89 63 89 182q0 55 -21 98q-21 42 -52 66t-72 40t-75 21t-67 5q-66 0 -123 -18zM361 655v-515q18 -6 64 -12t74 -6q188 0 286 70q98 69 98 198q0 265 -462 265h-60zM508 -18q-75 0 -173 9t-155 22v1359q166 37 320 37q202 0 332 -87 q131 -87 131 -238q0 -131 -69 -217t-177 -115q52 -7 98 -20t93 -39q48 -26 82 -62q35 -36 56 -93q22 -56 22 -125q0 -142 -76 -241q-75 -99 -199 -144q-124 -46 -285 -46zM540 1409zM892 1053zM636 0zM540 0z" />
<glyph unicode="C" horiz-adv-x="1255" d="M693 1409q96 0 162 -7.5t121 -28t93 -43t97 -65.5l-88 -119q-86 65 -169 95t-181 28q-112 0 -205.5 -48t-154 -128.5t-94 -183.5t-33.5 -214t33.5 -213.5t94 -183t154 -128.5t205.5 -48q98 -2 181 28t169 95l88 -119q-59 -43 -97 -65.5t-93 -43t-121 -28t-162 -7.5 q-196 0 -343 90t-224 251.5t-77 372.5t77 372t224 251t343 90zM660 1409zM1080 1245zM1080 153zM660 0z" />
<glyph unicode="D" horiz-adv-x="1375" d="M584 -18q-217 0 -404 31v1359q211 37 364 37q119 0 233 -30t214 -90.5t175.5 -145t119.5 -201.5t44 -251q0 -167 -62.5 -304t-167 -224t-237.5 -134t-279 -47zM361 1252l-1 -1112q92 -18 197 -18q108 0 211 37t187 105.5t135.5 179t51.5 244.5q0 111 -36.5 207 t-96.5 163.5t-137.5 116.5t-161 72t-164.5 23q-107 0 -185 -18zM620 1409zM1135 1053zM620 0z" />
<glyph unicode="E" horiz-adv-x="1077" d="M361 644v-504h614v-140h-795v1391h795v-139h-614v-468h418v-140h-418zM908 0zM568 1409zM868 1053zM568 0z" />
<glyph unicode="F" horiz-adv-x="999" d="M361 644v-644h-181v1391h795v-139h-614v-468h418v-140h-418zM580 1409zM872 1053zM270 0z" />
<glyph unicode="G" horiz-adv-x="1435" d="M49 696q0 211 86.5 372t250.5 251t384 90q97 0 168.5 -9t132 -30.5t101 -43t104.5 -62.5l-70 -133q-214 138 -432 138q-122 0 -224.5 -48t-169 -128t-103 -182.5t-36.5 -213.5q0 -89 21 -173t63 -157t99.5 -127.5t136.5 -86t169 -31.5q168 -3 341 75v329h-297v139l478 1 l-1 -540q-111 -75 -232.5 -109.5t-276.5 -34.5q-318 0 -505.5 197t-187.5 517zM740 1409zM1255 1053zM740 0z" />
<glyph unicode="H" horiz-adv-x="1364" d="M1184 1390v-1390h-181v664h-642v-664h-181v1391h181v-587h642v586h181zM682 1409zM1096 1053zM1093 0zM682 0z" />
<glyph unicode="I" horiz-adv-x="541" d="M361 1391v-1391h-181v1391h181zM270 1409zM270 1053zM270 0z" />
<glyph unicode="J" horiz-adv-x="541" d="M361 1391v-1251q-2 -66 -2 -107.5t-7.5 -100t-20 -99t-36.5 -90.5t-57.5 -87.5t-84.5 -77.5t-116 -73l-78 99q117 90 169 195.5t52 269.5v1322h181zM270 1409zM270 1053zM180 -492zM60 -492z" />
<glyph unicode="K" horiz-adv-x="1115" d="M361 0h-181v1391h181v-698l510 698h188l-504 -690l548 -701h-211l-531 679v-679zM620 1409zM999 1053zM997 0zM620 0z" />
<glyph unicode="L" horiz-adv-x="1010" d="M180 0v1391h181v-1251h614v-140h-795zM270 1409zM270 1053zM580 0z" />
<glyph unicode="M" horiz-adv-x="1774" d="M893 249l430 1143h168l173 -1392h-178l-124 1039l-381 -1039h-165l-417 1087l-130 -1087h-160l173 1392h178zM886 1409zM1455 1053zM1575 0zM886 0z" />
<glyph unicode="N" horiz-adv-x="1385" d="M1205 1391v-1391h-181l-663 1042v-1042h-181v1391h181l663 -1043v1043h181zM692 1409zM1114 1053zM1114 0zM692 0z" />
<glyph unicode="O" horiz-adv-x="1444" d="M727 1409q129 0 238.5 -36t189 -101t135 -153.5t82.5 -193.5t27 -222q0 -116 -28 -223.5t-85 -198t-136.5 -157.5t-188 -104.5t-234.5 -37.5q-165 0 -296 55.5t-214.5 153t-127.5 228t-44 284.5q0 152 45.5 281t130 223.5t214.5 148t292 53.5zM727 1271 q-154 0 -266.5 -75t-168 -202t-55.5 -291q0 -166 54 -295t166.5 -207t269.5 -78q113 0 205.5 47t152.5 127t92.5 184.5t32.5 221.5q0 158 -53.5 285t-165 205t-264.5 78zM1263 1053zM727 0z" />
<glyph unicode="P" horiz-adv-x="1083" d="M515 1409q116 0 207.5 -23.5t149 -62.5t95 -93.5t53 -112t15.5 -121.5q0 -183 -140 -301.5t-364 -118.5h-170v-576h-181v1372q68 13 168.5 25t166.5 12zM361 1252v-536h66q222 0 319 65.5t97 214.5q0 128 -81.5 201t-241.5 73q-86 0 -159 -18zM540 1409zM950 1053zM270 0 z" />
<glyph unicode="Q" horiz-adv-x="1449" d="M727 1409q129 0 238.5 -36t189 -101t135 -153.5t82.5 -193.5t27 -222q0 -149 -45.5 -280t-136.5 -233t-217 -156q28 -15 84.5 -49.5t91.5 -54.5t89.5 -41.5t106.5 -30.5l-53 -130q-65 11 -129 39.5t-117 61.5t-106.5 65t-117 57t-128.5 31q-131 1 -241.5 37.5t-190 101.5 t-135 154.5t-82.5 197.5t-27 230q0 152 45.5 281t130 223.5t214.5 148t292 53.5zM727 1271q-154 0 -266.5 -75t-168 -202t-55.5 -291q0 -166 54 -295t166.5 -207t269.5 -78q113 0 205.5 47t152.5 127t92.5 184.5t32.5 221.5q0 158 -53.5 285t-165 205t-264.5 78zM727 1409z M1263 1053zM727 0z" />
<glyph unicode="R" horiz-adv-x="1045" d="M1079 0h-201l-517 628v-628h-181v1372q187 37 320 37q232 0 363 -106.5t131 -272.5q0 -164 -118 -273t-317 -126zM361 1252v-484h25q416 0 416 256q0 109 -93.5 177.5t-217.5 68.5q-34 0 -75 -6.5t-55 -11.5zM548 1409zM900 1053zM997 0zM548 0z" />
<glyph unicode="S" horiz-adv-x="1007" d="M157 253q28 -20 51.5 -39t53.5 -35.5t62 -29t77 -20t98 -7.5q59 0 103.5 19.5t69 51t36 67t11.5 72.5q0 41 -12.5 75t-38 62t-54 48.5t-68.5 43.5l-154 81q-46 25 -80.5 49t-71 59.5t-60 75t-38.5 95t-15 119.5q0 159 103 264t268 105q105 0 188.5 -27t132.5 -65 l-38 -138q-119 92 -270 92q-85 0 -138.5 -63t-53.5 -162q0 -45 14.5 -82.5t43.5 -67t60.5 -51t76.5 -45.5l157 -80q42 -23 74.5 -45.5t65 -55t53.5 -69t34 -86t13 -107.5q0 -157 -109 -266t-284 -109q-55 0 -102.5 5t-84 14t-69.5 21.5t-59.5 27t-54 30.5t-52.5 33z M504 1409zM772 1053zM504 0z" />
<glyph unicode="T" horiz-adv-x="1183" d="M57 1391h1069v-139h-444v-1252h-181v1252h-444v139zM591 1409zM1008 1053zM591 0z" />
<glyph unicode="U" horiz-adv-x="1310" d="M361 486q0 -187 86 -275t234 -88q133 0 205.5 95.5t72.5 294.5v878h171v-922q0 -221 -118 -354t-331 -133q-501 0 -501 456v953h181v-905zM655 0zM1048 1053zM655 1392z" />
<glyph unicode="V" horiz-adv-x="1328" d="M669 248l424 1143h168l-522 -1391h-150l-522 1391h178zM664 1409zM1048 1053zM664 0z" />
<glyph unicode="W" horiz-adv-x="2027" d="M1792 1391h168l-461 -1391h-150l-336 1014l-336 -1014h-150l-460 1391h178l362 -1143l363 1143h97l362 -1143zM1013 1409zM1772 1053zM1013 0zM1424 0z" />
<glyph unicode="X" horiz-adv-x="1288" d="M108 1392h211l343 -538l340 537h188l-434 -685l448 -705h-212l-359 565l-361 -571h-188l455 719zM1098 0zM644 1409zM892 1053zM644 0z" />
<glyph unicode="Y" horiz-adv-x="1241" d="M1014 1391h168l-471 -773v-618h-181v619l-471 772h178l389 -637zM620 1409zM896 1053zM620 0z" />
<glyph unicode="Z" horiz-adv-x="1259" d="M87 1391h1029l-796 -1252h796v-140l-1066 1l796 1252h-759v139zM1048 0zM601 1409zM808 1053zM601 0z" />
<glyph unicode="[" horiz-adv-x="581" d="M100 -490v1965h422v-128h-261v-1709h261v-128h-422z" />
<glyph unicode="\" horiz-adv-x="645" d="M152 1475l469 -1475h-128l-469 1475h128z" />
<glyph unicode="]" horiz-adv-x="581" d="M522 -490h-422v128h261v1709h-261v128h422v-1965z" />
<glyph unicode="^" horiz-adv-x="1085" d="M600 1409l415 -581l-100 -33l-375 515l-375 -515l-100 33l415 581h120z" />
<glyph unicode="_" horiz-adv-x="1048" d="M983 -297h-918v109h918v-109z" />
<glyph unicode="`" horiz-adv-x="491" d="M10 1475h188l162 -375h-111z" />
<glyph unicode="a" horiz-adv-x="894" d="M611 416h-6q-108 0 -192 -18.5t-137.5 -59t-53.5 -99.5q0 -49 38 -91t116 -42q220 0 235 225v85zM145 890q180 63 299 63q111 0 194 -57t112 -169q16 -63 16 -260v-307q0 -88 14 -160h-156q-14 44 -13 100q-25 -30 -55 -52q-94 -69 -200 -69q-64 0 -115 18t-81 45.5 t-49.5 63.5t-27 67.5t-7.5 61.5q0 60 27.5 110t75 83t102.5 54t118 33q75 14 194 14h18v104q0 31 -1.5 50.5t-11.5 50.5t-29 49t-57 32t-92 14q-128 0 -267 -64zM439 956zM693 0zM439 0zM720 0zM774 828z" />
<glyph unicode="b" horiz-adv-x="1059" d="M594 828q-163 -1 -269 -180v-500q58 -37 165 -37q86 0 153.5 30t109.5 82t63.5 120t21.5 147q0 92 -21.5 160.5t-58 105.5t-77.5 54.5t-87 17.5zM606 956q78 0 147 -27.5t125 -82.5t88.5 -148.5t32.5 -215.5q0 -95 -28.5 -177.5t-76 -140.5t-109 -100t-127.5 -62 t-132 -20q-203 0 -362 98v1395h161v-647q65 73 132 100.5t149 27.5zM555 0zM841 828zM244 1475z" />
<glyph unicode="c" horiz-adv-x="888" d="M61 469q0 221 120.5 354t326.5 133q125 0 187 -21t141 -79l-62 -108q-59 43 -113 61.5t-118 17.5q-146 0 -233.5 -105t-87.5 -253t87.5 -253t233.5 -105q64 -1 118 17.5t113 61.5l62 -108q-79 -58 -141 -79t-187 -21q-206 0 -326.5 133t-120.5 354zM486 956zM773 828z M486 0zM516 0z" />
<glyph unicode="d" horiz-adv-x="1063" d="M465 -18q-116 0 -210 64t-144 166.5t-50 219.5q0 233 135.5 378.5t336.5 145.5q84 0 201 -32v551h165v-1475h-165v110q-113 -128 -269 -128zM734 784q-83 44 -191 44q-55 0 -111.5 -28.5t-103.5 -78t-76.5 -124.5t-29.5 -161q0 -139 74.5 -232t183.5 -93q74 0 141 50.5 t113 128.5v494zM816 1475zM482 0zM816 828zM816 0z" />
<glyph unicode="e" horiz-adv-x="939" d="M500 828q-139 0 -208 -84q-48 -58 -63 -164h485q-9 109 -65.5 178.5t-148.5 69.5zM222 460q2 -166 88 -256q88 -93 233 -93q43 0 62.5 1.5t69.5 15t120 42.5l43 -115q-56 -38 -137.5 -55.5t-154.5 -17.5q-233 0 -359 133t-126 354q0 102 25 185.5t66 138.5t96 92.5 t113 54t119 16.5q72 0 131 -18t98.5 -47t70 -69.5t47 -79.5t27.5 -83.5t14 -76t4 -62.5l-24 -60h-626zM495 956zM773 828zM740 0zM495 0z" />
<glyph unicode="f" horiz-adv-x="675" d="M383 0h-161v810h-166v128h166v82q0 444 351 444q59 0 108 -11.5t72.5 -23t53.5 -31t39 -24.5l-44 -127q-41 36 -102.5 62.5t-124.5 26.5q-75 0 -133.5 -72t-58.5 -157v-169h229v-128h-229v-810zM302 0zM580 828zM564 1475z" />
<glyph unicode="g" horiz-adv-x="980" d="M492 827q-57 0 -100 -20.5t-67 -54.5t-35.5 -72t-11.5 -78q0 -83 51 -135.5t163 -52.5q57 0 100 19t67 50.5t35.5 66.5t11.5 71q0 34 -11.5 68.5t-35.5 66t-67 51.5t-100 20zM805 810q62 -88 62 -189q0 -47 -12 -93t-40 -90.5t-70 -78t-107 -54t-146 -20.5q-86 0 -154 18 q-59 -45 -59 -102q0 -25 22 -42t63 -24.5t80 -10t92 -2.5q58 0 110.5 -6.5t107.5 -23.5t94.5 -43t64.5 -70t25 -100q0 -123 -69 -208t-182.5 -124t-262.5 -39q-159 0 -258.5 64t-99.5 187q0 46 12 84t36.5 69t54 55t73.5 51q-124 42 -124 152q0 41 28 92t85 91 q-111 80 -114 245q-1 64 19 124.5t62 114.5t118 86.5t176 32.5q71 0 132 -18h314v-128h-133zM396 -6q-27 -15 -45.5 -26t-44 -31.5t-41 -41.5t-27 -51.5t-11.5 -65.5q0 -51 35 -84t83 -45t109 -12q83 0 153.5 20.5t120 69t49.5 117.5q0 34 -14 60.5t-42 42t-57 25.5 t-72.5 14.5t-74 5.5t-75.5 1q-24 0 -46 1zM516 -492zM516 956zM892 828z" />
<glyph unicode="h" horiz-adv-x="1121" d="M164 0v1475h161v-709q90 190 293 190q36 0 76 -9.5t88.5 -36.5t86 -69t63 -114t25.5 -164v-563h-161v507q0 171 -60 246t-170 75q-59 0 -108 -31.5t-76 -75.5t-42 -82.5t-15 -60.5v-578h-161zM555 0zM876 0zM907 828zM244 1475z" />
<glyph unicode="i" horiz-adv-x="547" d="M56 0zM383 938v-938h-161v810h-166v128h327zM302 956zM302 828zM302 0zM184 1145q0 50 34.5 85.5t83.5 35.5t83.5 -35.5t34.5 -85.5t-34.5 -85.5t-83.5 -35.5t-83.5 35.5t-34.5 85.5zM302 1311zM302 792zM302 956z" />
<glyph unicode="j" horiz-adv-x="547" d="M10 0zM383 938v-827q0 -63 -2 -105.5t-10.5 -100t-27.5 -109.5t-50 -100q-67 -105 -193 -188l-90 72q38 37 58.5 59t47 58t44.5 73q62 127 62 341v699h-166v128h327zM302 956zM302 828zM222 -492zM184 1309q0 50 34.5 85.5t83.5 35.5t83.5 -35.5t34.5 -85.5t-34.5 -85.5 t-83.5 -35.5t-83.5 35.5t-34.5 85.5zM302 1475zM302 956zM302 1120z" />
<glyph unicode="k" horiz-adv-x="935" d="M325 0h-161v1475h161v-851l319 314h200l-386 -376l455 -562h-199l-389 479v-479zM555 0zM555 0zM632 828zM244 1475z" />
<glyph unicode="l" horiz-adv-x="593" d="M325 1475v-1219q0 -77 30.5 -110.5t67.5 -33.5q15 0 103 8l13 -117q-100 -21 -167 -21q-102 0 -155 62.5t-53 201.5v1229h161zM344 0zM244 828zM244 1475z" />
<glyph unicode="m" horiz-adv-x="1645" d="M164 0v938h161v-149q31 73 91.5 120t150.5 47q226 0 300 -225q79 225 278 225q165 0 250.5 -123t85.5 -364v-468l-156 -1v469q0 359 -214 359q-58 0 -105 -43t-72 -105q-31 -63 -31 -131v-549h-156v469q0 359 -214 359q-58 0 -105 -43t-72 -105q-31 -63 -31 -131v-549 h-161zM825 0zM825 956zM1431 828zM1403 0z" />
<glyph unicode="n" horiz-adv-x="1121" d="M796 507q0 171 -60 246t-170 75q-59 0 -108 -31.5t-76 -75.5t-42 -82.5t-15 -60.5v-578h-161v938h161v-172q90 190 293 190q36 0 76 -9.5t88.5 -36.5t86 -69t63 -114t25.5 -164v-563h-161v507zM555 0zM555 956zM795 828zM876 0z" />
<glyph unicode="o" horiz-adv-x="1012" d="M222 469q0 -97 24.5 -169.5t66 -112t90 -58t103.5 -18.5t103 18.5t89.5 58t65.5 112t24 169.5t-24 169.5t-65.5 112t-89.5 58t-103 18.5t-103.5 -18.5t-90 -58t-66 -112t-24.5 -169.5zM61 469q0 107 25.5 192t68 139.5t101 90t120.5 50.5t130 15t130 -15t120.5 -50.5 t101 -90t68 -139.5t25.5 -192t-25.5 -192t-68 -139.5t-101 -90t-120.5 -50.5t-130 -15t-130 15t-120.5 50.5t-101 90t-68 139.5t-25.5 192zM506 956zM773 828zM506 0z" />
<glyph unicode="p" horiz-adv-x="1063" d="M329 154q80 -44 191 -44q55 0 111.5 28.5t103.5 78t76.5 124.5t29.5 161q0 139 -74.5 232t-183.5 93q-74 0 -141 -50.5t-113 -128.5v-494zM598 956q116 0 210 -64t144 -166.5t50 -219.5q0 -233 -135.5 -378.5t-336.5 -145.5q-84 0 -201 32v-506h-165v1430h165v-110 q113 128 269 128zM555 956zM841 828zM244 -492z" />
<glyph unicode="q" horiz-adv-x="1060" d="M454 -18q-78 0 -147 27.5t-125 82.5t-88.5 148.5t-32.5 215.5q0 95 28.5 177.5t76 140.5t109 100t127.5 62t132 20q203 0 362 -98v-1350h-161v602q-65 -73 -132 -100.5t-149 -27.5zM464 110q164 0 271 180v500q-58 37 -165 37q-86 0 -153.5 -30t-109.5 -82t-63.5 -120 t-21.5 -147q0 -91 21.5 -159.5t57.5 -106t76.5 -55t86.5 -17.5zM555 956zM816 828zM816 -492z" />
<glyph unicode="r" horiz-adv-x="830" d="M164 0v938h161v-172q36 78 102.5 134t161.5 56q74 0 128.5 -29.5t72.5 -62.5l-68 -102q-14 18 -27 30.5t-44.5 24t-72.5 11.5q-64 0 -122 -46.5t-92 -113.5t-39 -134v-534h-161zM244 0zM465 956zM728 828z" />
<glyph unicode="s" horiz-adv-x="782" d="M396 956q90 0 160 -23.5t108 -53.5l-57 -120q-31 25 -88 47t-113 22q-75 0 -117 -39t-42 -84q0 -51 32 -83t129 -66l98 -34q107 -37 158.5 -97.5t51.5 -160.5q0 -130 -88 -206t-240 -76q-81 0 -155.5 16.5t-166.5 69.5l58 124q77 -46 131 -63.5t127 -17.5q173 0 173 149 q0 90 -165 144l-98 34q-105 37 -155.5 105.5t-50.5 151.5q0 104 87 182.5t223 78.5zM400 0zM400 956zM597 828z" />
<glyph unicode="t" horiz-adv-x="669" d="M335 1188v-250h229v-128h-229v-554q0 -77 39 -110.5t87 -33.5q93 0 145 16l20 -113q-92 -33 -214 -33q-117 0 -177.5 62.5t-60.5 201.5v564h-166v128h166v190zM372 0zM254 956zM510 828z" />
<glyph unicode="u" horiz-adv-x="1121" d="M325 431q0 -171 60 -246t170 -75q59 0 108 31.5t76 75.5t42 82.5t15 60.5v578h161v-938h-161v172q-90 -190 -293 -190q-36 0 -76 9.5t-88.5 36.5t-86 69t-63 114t-25.5 164v563h161v-507zM555 0zM555 956zM907 828zM876 0z" />
<glyph unicode="v" horiz-adv-x="984" d="M801 938h162l-417 -938h-106l-419 938h173l304 -672zM492 0zM492 956zM846 828z" />
<glyph unicode="w" horiz-adv-x="1512" d="M1329 938h162l-367 -938h-104l-264 671l-262 -671h-104l-369 938h173l253 -672l252 672h125l253 -672zM756 0zM756 956zM1362 828zM1068 0z" />
<glyph unicode="x" horiz-adv-x="945" d="M61 938h186l235 -346l244 343h172l-336 -461l321 -474h-186l-234 345l-245 -345h-172l337 463zM472 0zM472 956zM738 828zM790 0z" />
<glyph unicode="y" horiz-adv-x="1027" d="M24 938h173l323 -731l324 731h162l-414 -920q-89 -205 -159 -317.5t-129.5 -154.5t-133.5 -42q-100 0 -171 76l58 98q19 -16 30.5 -23.5t30.5 -14.5t39 -7q24 0 48 13t48 40.5t45 58t45.5 78t43.5 88.5t46 100zM515 -492zM515 956zM880 828zM170 -492z" />
<glyph unicode="z" horiz-adv-x="972" d="M111 938h778l-549 -810h565v-128h-838l549 810h-505v128zM508 0zM508 956zM738 828zM820 0z" />
<glyph unicode="{" horiz-adv-x="667" d="M214 492q67 -22 106.5 -55t63 -97.5t23.5 -165.5q0 -60 -12 -186t-12 -144q0 -38 4.5 -67.5t19 -69.5t50 -77.5t89.5 -70.5l-26 -81q-298 81 -298 370q0 76 12 183.5t12 142.5q0 72 -20 128t-50.5 86t-62 44.5t-60.5 14.5v90q29 0 60.5 14.5t62 44.5t50.5 86t20 128 q0 35 -12 142.5t-12 183.5q0 289 298 370l26 -81q-54 -33 -89.5 -70.5t-50 -77.5t-19 -69.5t-4.5 -67.5q0 -18 12 -144t12 -186q0 -101 -23.5 -165.5t-63 -97.5t-106.5 -55z" />
<glyph unicode="|" horiz-adv-x="310" d="M210 1477v-1965h-110v1965h110z" />
<glyph unicode="}" horiz-adv-x="667" d="M453 492q-67 22 -106.5 55t-63 97.5t-23.5 165.5q0 60 12 186t12 144q0 38 -4.5 67.5t-19 69.5t-50 77.5t-89.5 70.5l26 81q298 -81 298 -370q0 -76 -12 -183.5t-12 -142.5q0 -72 20 -128t50.5 -86t62 -44.5t60.5 -14.5v-90q-29 0 -60.5 -14.5t-62 -44.5t-50.5 -86 t-20 -128q0 -35 12 -142.5t12 -183.5q0 -289 -298 -370l-26 81q54 33 89.5 70.5t50 77.5t19 69.5t4.5 67.5q0 18 -12 144t-12 186q0 101 23.5 165.5t63 97.5t106.5 55z" />
<glyph unicode="~" horiz-adv-x="1144" d="M167 423l-108 66q146 206 316 206q62 0 137.5 -26t147.5 -52t125 -26q108 0 193 108l108 -66q-146 -206 -316 -206q-62 0 -137.5 26t-147.5 52t-125 26q-108 0 -193 -108z" />
<glyph unicode="&#xa1;" horiz-adv-x="442" d="M339 946q0 -50 -34.5 -85.5t-83.5 -35.5t-83.5 35.5t-34.5 85.5t34.5 85.5t83.5 35.5t83.5 -35.5t34.5 -85.5zM341 -343h-240l64 932h92z" />
<glyph unicode="&#xa3;" horiz-adv-x="1052" d="M200 869q0 133 97.5 221t254.5 88q99 0 179 -22.5t126 -54.5l-36 -128q-112 76 -257 76q-84 0 -143 -48t-60 -127q-1 -52 13.5 -99t41.5 -103h369v-109h-318q22 -58 22 -107q0 -98 -36.5 -162t-116.5 -141q122 47 258 47q97 0 201.5 -33t180.5 -74l-80 -111 q-176 89 -326 89q-77 0 -154 -16t-113.5 -29t-113.5 -44l-60 129q79 59 139 139.5t60 172.5q0 66 -29 140h-143v109h94q-50 109 -50 197z" />
<glyph unicode="&#xa4;" horiz-adv-x="1130" d="M454 504q0 -46 32.5 -78.5t78.5 -32.5t78.5 32.5t32.5 78.5t-32.5 78.5t-78.5 32.5t-78.5 -32.5t-32.5 -78.5zM375 390q-32 52 -32 114q0 61 31 113l-204 204l78 78l204 -204q52 31 113 31q62 0 114 -32l204 205l77 -78l-204 -204q31 -52 31 -113t-31 -113l204 -204 l-78 -78l-204 204q-52 -31 -113 -31t-113 31l-204 -204l-78 77z" />
<glyph unicode="&#xa6;" horiz-adv-x="310" d="M210 298v-786h-110v786h110zM210 1477v-786h-110v786h110z" />
<glyph unicode="&#xa8;" horiz-adv-x="944" d="M118 956zM118 1309q0 50 34.5 85.5t83.5 35.5t83.5 -35.5t34.5 -85.5t-34.5 -85.5t-83.5 -35.5t-83.5 35.5t-34.5 85.5zM590 1309q0 50 34.5 85.5t83.5 35.5t83.5 -35.5t34.5 -85.5t-34.5 -85.5t-83.5 -35.5t-83.5 35.5t-34.5 85.5zM472 956zM472 1475zM472 1120z" />
<glyph unicode="&#xab;" horiz-adv-x="978" d="M646 525l227 -257l-33 -100l-352 357l352 357l33 -100zM187 525l280 -257l-33 -100l-416 357l416 357l33 -100z" />
<glyph unicode="&#xad;" horiz-adv-x="765" d="M690 449h-629v109h629v-109z" />
<glyph unicode="&#xb6;" horiz-adv-x="960" d="M552 0v1049h110v-1049h-110zM332 0v1049h110v-1049h-110zM774 940h-442v109h442v-109zM332 468q-66 0 -127.5 41t-99.5 110.5t-38 144.5q0 114 80.5 199.5t184.5 85.5l92 -313z" />
<glyph unicode="&#xbb;" horiz-adv-x="978" d="M332 525l-227 257l33 100l352 -357l-352 -357l-33 100zM791 525l-280 257l33 100l416 -357l-416 -357l-33 100z" />
<glyph unicode="&#xbf;" horiz-adv-x="863" d="M764 -408q-30 -19 -46.5 -27.5t-56.5 -25t-92 -24t-117 -7.5q-87 0 -165 34t-128.5 100t-50.5 150q0 67 29.5 139.5t72 134t85 119t72 114.5t29.5 101q0 46 -5.5 79t-20.5 85l134 20q8 -15 17.5 -36.5t17.5 -42.5t13 -50t5 -59q0 -59 -29.5 -124t-72 -122.5t-85 -114.5 t-72 -121t-29.5 -122q0 -62 59 -108.5t170 -46.5t216 63zM570 869q0 -50 -34.5 -85.5t-83.5 -35.5t-83.5 35.5t-34.5 85.5t34.5 85.5t83.5 35.5t83.5 -35.5t34.5 -85.5z" />
<glyph unicode="&#xc0;" horiz-adv-x="1328" d="M67 0zM933 404h-548l-150 -404h-168l522 1391h150l522 -1391h-178zM881 544l-222 600l-223 -600h445zM664 1409zM786 1053zM1166 0zM664 0zM-249 1475h188l143 -331l-92 -44zM0 1475zM0 956z" />
<glyph unicode="&#xc1;" horiz-adv-x="1328" d="M67 0zM933 404h-548l-150 -404h-168l522 1391h150l522 -1391h-178zM881 544l-222 600l-223 -600h445zM664 1409zM786 1053zM1166 0zM664 0zM249 1475l-239 -375l-92 44l143 331h188zM0 1475zM0 956z" />
<glyph unicode="&#xc2;" horiz-adv-x="1328" d="M67 0zM933 404h-548l-150 -404h-168l522 1391h150l522 -1391h-178zM881 544l-222 600l-223 -600h445zM664 1409zM786 1053zM1166 0zM664 0zM0 1349l-234 -249l-75 49l215 300h188l215 -300l-75 -49zM0 1475zM0 956z" />
<glyph unicode="&#xc3;" horiz-adv-x="1328" d="M67 0zM933 404h-548l-150 -404h-168l522 1391h150l522 -1391h-178zM881 544l-222 600l-223 -600h445zM664 1409zM786 1053zM1166 0zM664 0zM392 1481l-70 60q26 51 57 88t61 56t55.5 27t48.5 8q42 0 117.5 -44t110.5 -44q33 0 74 24t69 74l70 -60q-26 -51 -57 -88 t-61 -56t-55.5 -27.5t-48.5 -8.5q-42 0 -117.5 45t-109.5 45q-33 0 -74.5 -24.5t-69.5 -74.5zM664 1784zM664 1330zM664 1409z" />
<glyph unicode="&#xc4;" horiz-adv-x="1328" d="M67 0zM933 404h-548l-150 -404h-168l522 1391h150l522 -1391h-178zM881 544l-222 600l-223 -600h445zM664 1409zM786 1053zM1166 0zM664 0zM310 890zM310 1243q0 50 34.5 85.5t83.5 35.5t83.5 -35.5t34.5 -85.5t-34.5 -85.5t-83.5 -35.5t-83.5 35.5t-34.5 85.5zM782 1243 q0 50 34.5 85.5t83.5 35.5t83.5 -35.5t34.5 -85.5t-34.5 -85.5t-83.5 -35.5t-83.5 35.5t-34.5 85.5zM664 890zM664 1409zM664 1054z" />
<glyph unicode="&#xc5;" horiz-adv-x="1328" d="M67 0zM933 404h-548l-150 -404h-168l522 1391h150l522 -1391h-178zM881 544l-222 600l-223 -600h445zM664 1409zM786 1053zM1166 0zM664 0zM-95 1220q0 -39 28 -66.5t67 -27.5t67 27.5t28 66.5q0 40 -28 67.5t-67 27.5t-67 -27.5t-28 -67.5zM-180 1220q0 74 53 127 t127 53t127 -53t53 -127t-53 -127t-127 -53t-127 53t-53 127zM0 1475zM0 956z" />
<glyph unicode="&#xc6;" horiz-adv-x="1818" d="M1102 644v-505l614 1v-140h-795v404h-432l-234 -404h-188l804 1391h845v-139h-614v-468h418v-140h-418zM921 544v608l-352 -609z" />
<glyph unicode="&#xc7;" horiz-adv-x="1255" d="M49 0zM693 1409q96 0 162 -7.5t121 -28t93 -43t97 -65.5l-88 -119q-86 65 -169 95t-181 28q-112 0 -205.5 -48t-154 -128.5t-94 -183.5t-33.5 -214t33.5 -213.5t94 -183t154 -128.5t205.5 -48q98 -2 181 28t169 95l88 -119q-59 -43 -97 -65.5t-93 -43t-121 -28t-162 -7.5 q-196 0 -343 90t-224 251.5t-77 372.5t77 372t224 251t343 90zM660 1409zM1080 1245zM1080 153zM660 0zM-48 36h93q-42 -72 -42 -142q50 -13 86 -64t36 -118q0 -82 -42.5 -126.5t-128.5 -79.5l-79 75q62 26 95.5 55t33.5 76q0 53 -33.5 84.5t-91.5 31.5q0 125 73 208z M0 -492zM0 0z" />
<glyph unicode="&#xc8;" horiz-adv-x="1077" d="M180 0zM361 644v-504h614v-140h-795v1391h795v-139h-614v-468h418v-140h-418zM908 0zM568 1409zM868 1053zM568 0zM-249 1475h188l143 -331l-92 -44zM0 1475zM0 956z" />
<glyph unicode="&#xc9;" horiz-adv-x="1077" d="M180 0zM361 644v-504h614v-140h-795v1391h795v-139h-614v-468h418v-140h-418zM908 0zM568 1409zM868 1053zM568 0zM249 1475l-239 -375l-92 44l143 331h188zM0 1475zM0 956z" />
<glyph unicode="&#xca;" horiz-adv-x="1077" d="M180 0zM361 644v-504h614v-140h-795v1391h795v-139h-614v-468h418v-140h-418zM908 0zM568 1409zM868 1053zM568 0zM0 1349l-234 -249l-75 49l215 300h188l215 -300l-75 -49zM0 1475zM0 956z" />
<glyph unicode="&#xcb;" horiz-adv-x="1077" d="M180 0zM361 644v-504h614v-140h-795v1391h795v-139h-614v-468h418v-140h-418zM908 0zM568 1409zM868 1053zM568 0zM214 890zM214 1243q0 50 34.5 85.5t83.5 35.5t83.5 -35.5t34.5 -85.5t-34.5 -85.5t-83.5 -35.5t-83.5 35.5t-34.5 85.5zM686 1243q0 50 34.5 85.5 t83.5 35.5t83.5 -35.5t34.5 -85.5t-34.5 -85.5t-83.5 -35.5t-83.5 35.5t-34.5 85.5zM568 890zM568 1409zM568 1054z" />
<glyph unicode="&#xcc;" horiz-adv-x="541" d="M21 0zM361 1391v-1391h-181v1391h181zM270 1409zM270 1053zM270 0zM-249 1475h188l143 -331l-92 -44zM0 1475zM0 956z" />
<glyph unicode="&#xcd;" horiz-adv-x="541" d="M180 0zM361 1391v-1391h-181v1391h181zM270 1409zM270 1053zM270 0zM249 1475l-239 -375l-92 44l143 331h188zM0 1475zM0 956z" />
<glyph unicode="&#xce;" horiz-adv-x="541" d="M0 0zM361 1391v-1391h-181v1391h181zM270 1409zM270 1053zM270 0zM0 1349l-234 -249l-75 49l215 300h188l215 -300l-75 -49zM0 1475zM0 956z" />
<glyph unicode="&#xcf;" horiz-adv-x="541" d="M0 0zM361 1391v-1391h-181v1391h181zM270 1409zM270 1053zM270 0zM-84 890zM-84 1243q0 50 34.5 85.5t83.5 35.5t83.5 -35.5t34.5 -85.5t-34.5 -85.5t-83.5 -35.5t-83.5 35.5t-34.5 85.5zM388 1243q0 50 34.5 85.5t83.5 35.5t83.5 -35.5t34.5 -85.5t-34.5 -85.5 t-83.5 -35.5t-83.5 35.5t-34.5 85.5zM270 890zM270 1409zM270 1054z" />
<glyph unicode="&#xd0;" horiz-adv-x="1375" d="M584 -18q-217 0 -404 31v643h-119v139h119v577q211 37 364 37q119 0 233 -30t214 -90.5t175.5 -145t119.5 -201.5t44 -251q0 -167 -62.5 -304t-167 -224t-237.5 -134t-279 -47zM360 655v-515q92 -18 197 -18q108 0 211 37t187 105.5t135.5 179t51.5 244.5 q0 111 -36.5 207t-96.5 163.5t-137.5 116.5t-161 72t-164.5 23q-107 0 -185 -18v-457h143v-140h-144zM620 1409zM1135 1053zM620 0z" />
<glyph unicode="&#xd1;" horiz-adv-x="1385" d="M180 0zM1205 1391v-1391h-181l-663 1042v-1042h-181v1391h181l663 -1043v1043h181zM692 1409zM1114 1053zM1114 0zM692 0zM420 1481l-70 60q26 51 57 88t61 56t55.5 27t48.5 8q42 0 117.5 -44t110.5 -44q33 0 74 24t69 74l70 -60q-26 -51 -57 -88t-61 -56t-55.5 -27.5 t-48.5 -8.5q-42 0 -117.5 45t-109.5 45q-33 0 -74.5 -24.5t-69.5 -74.5zM692 1784zM692 1330zM692 1409z" />
<glyph unicode="&#xd2;" horiz-adv-x="1444" d="M45 0zM727 1409q129 0 238.5 -36t189 -101t135 -153.5t82.5 -193.5t27 -222q0 -116 -28 -223.5t-85 -198t-136.5 -157.5t-188 -104.5t-234.5 -37.5q-165 0 -296 55.5t-214.5 153t-127.5 228t-44 284.5q0 152 45.5 281t130 223.5t214.5 148t292 53.5zM727 1271 q-154 0 -266.5 -75t-168 -202t-55.5 -291q0 -166 54 -295t166.5 -207t269.5 -78q113 0 205.5 47t152.5 127t92.5 184.5t32.5 221.5q0 158 -53.5 285t-165 205t-264.5 78zM1263 1053zM727 0zM-249 1475h188l143 -331l-92 -44zM0 1475zM0 956z" />
<glyph unicode="&#xd3;" horiz-adv-x="1444" d="M45 0zM727 1409q129 0 238.5 -36t189 -101t135 -153.5t82.5 -193.5t27 -222q0 -116 -28 -223.5t-85 -198t-136.5 -157.5t-188 -104.5t-234.5 -37.5q-165 0 -296 55.5t-214.5 153t-127.5 228t-44 284.5q0 152 45.5 281t130 223.5t214.5 148t292 53.5zM727 1271 q-154 0 -266.5 -75t-168 -202t-55.5 -291q0 -166 54 -295t166.5 -207t269.5 -78q113 0 205.5 47t152.5 127t92.5 184.5t32.5 221.5q0 158 -53.5 285t-165 205t-264.5 78zM1263 1053zM727 0zM249 1475l-239 -375l-92 44l143 331h188zM0 1475zM0 956z" />
<glyph unicode="&#xd4;" horiz-adv-x="1444" d="M45 0zM727 1409q129 0 238.5 -36t189 -101t135 -153.5t82.5 -193.5t27 -222q0 -116 -28 -223.5t-85 -198t-136.5 -157.5t-188 -104.5t-234.5 -37.5q-165 0 -296 55.5t-214.5 153t-127.5 228t-44 284.5q0 152 45.5 281t130 223.5t214.5 148t292 53.5zM727 1271 q-154 0 -266.5 -75t-168 -202t-55.5 -291q0 -166 54 -295t166.5 -207t269.5 -78q113 0 205.5 47t152.5 127t92.5 184.5t32.5 221.5q0 158 -53.5 285t-165 205t-264.5 78zM1263 1053zM727 0zM0 1349l-234 -249l-75 49l215 300h188l215 -300l-75 -49zM0 1475zM0 956z" />
<glyph unicode="&#xd5;" horiz-adv-x="1444" d="M45 0zM727 1409q129 0 238.5 -36t189 -101t135 -153.5t82.5 -193.5t27 -222q0 -116 -28 -223.5t-85 -198t-136.5 -157.5t-188 -104.5t-234.5 -37.5q-165 0 -296 55.5t-214.5 153t-127.5 228t-44 284.5q0 152 45.5 281t130 223.5t214.5 148t292 53.5zM727 1271 q-154 0 -266.5 -75t-168 -202t-55.5 -291q0 -166 54 -295t166.5 -207t269.5 -78q113 0 205.5 47t152.5 127t92.5 184.5t32.5 221.5q0 158 -53.5 285t-165 205t-264.5 78zM1263 1053zM727 0zM455 1481l-70 60q26 51 57 88t61 56t55.5 27t48.5 8q42 0 117.5 -44t110.5 -44 q33 0 74 24t69 74l70 -60q-26 -51 -57 -88t-61 -56t-55.5 -27.5t-48.5 -8.5q-42 0 -117.5 45t-109.5 45q-33 0 -74.5 -24.5t-69.5 -74.5zM727 1784zM727 1330zM727 1409z" />
<glyph unicode="&#xd6;" horiz-adv-x="1444" d="M45 0zM727 1409q129 0 238.5 -36t189 -101t135 -153.5t82.5 -193.5t27 -222q0 -116 -28 -223.5t-85 -198t-136.5 -157.5t-188 -104.5t-234.5 -37.5q-165 0 -296 55.5t-214.5 153t-127.5 228t-44 284.5q0 152 45.5 281t130 223.5t214.5 148t292 53.5zM727 1271 q-154 0 -266.5 -75t-168 -202t-55.5 -291q0 -166 54 -295t166.5 -207t269.5 -78q113 0 205.5 47t152.5 127t92.5 184.5t32.5 221.5q0 158 -53.5 285t-165 205t-264.5 78zM1263 1053zM727 0zM373 1409zM373 1762q0 50 34.5 85.5t83.5 35.5t83.5 -35.5t34.5 -85.5t-34.5 -85.5 t-83.5 -35.5t-83.5 35.5t-34.5 85.5zM845 1762q0 50 34.5 85.5t83.5 35.5t83.5 -35.5t34.5 -85.5t-34.5 -85.5t-83.5 -35.5t-83.5 35.5t-34.5 85.5zM727 1409zM727 1928zM727 1573z" />
<glyph unicode="&#xd7;" horiz-adv-x="1130" d="M566 581l317 318l77 -78l-317 -317l317 -317l-78 -78l-317 317l-317 -317l-78 77l318 317l-318 318l78 78z" />
<glyph unicode="&#xd8;" horiz-adv-x="1444" d="M727 1271q-154 0 -266.5 -75t-168 -202t-55.5 -291q0 -202 80 -347l686 830q-116 85 -276 85zM202 0l-100 96l96 116q-153 192 -153 491q0 152 45.5 281t130 223.5t214.5 148t292 53.5q218 0 376 -101l69 83l100 -96l-62 -74q93 -96 141 -230t48 -288q0 -116 -28 -223.5 t-85 -198t-136.5 -157.5t-188 -104.5t-234.5 -37.5q-258 0 -430 133zM1100 1087l-697 -843q127 -121 324 -121q113 0 205.5 47t152.5 127t92.5 184.5t32.5 221.5q0 230 -110 384z" />
<glyph unicode="&#xd9;" horiz-adv-x="1310" d="M180 0zM361 486q0 -187 86 -275t234 -88q133 0 205.5 95.5t72.5 294.5v878h171v-922q0 -221 -118 -354t-331 -133q-501 0 -501 456v953h181v-905zM655 0zM1048 1053zM655 1392zM-249 1475h188l143 -331l-92 -44zM0 1475zM0 956z" />
<glyph unicode="&#xda;" horiz-adv-x="1310" d="M180 0zM361 486q0 -187 86 -275t234 -88q133 0 205.5 95.5t72.5 294.5v878h171v-922q0 -221 -118 -354t-331 -133q-501 0 -501 456v953h181v-905zM655 0zM1048 1053zM655 1392zM249 1475l-239 -375l-92 44l143 331h188zM0 1475zM0 956z" />
<glyph unicode="&#xdb;" horiz-adv-x="1310" d="M180 0zM361 486q0 -187 86 -275t234 -88q133 0 205.5 95.5t72.5 294.5v878h171v-922q0 -221 -118 -354t-331 -133q-501 0 -501 456v953h181v-905zM655 0zM1048 1053zM655 1392zM0 1349l-234 -249l-75 49l215 300h188l215 -300l-75 -49zM0 1475zM0 956z" />
<glyph unicode="&#xdc;" horiz-adv-x="1310" d="M180 0zM361 486q0 -187 86 -275t234 -88q133 0 205.5 95.5t72.5 294.5v878h171v-922q0 -221 -118 -354t-331 -133q-501 0 -501 456v953h181v-905zM655 0zM1048 1053zM655 1392zM301 873zM301 1226q0 50 34.5 85.5t83.5 35.5t83.5 -35.5t34.5 -85.5t-34.5 -85.5 t-83.5 -35.5t-83.5 35.5t-34.5 85.5zM773 1226q0 50 34.5 85.5t83.5 35.5t83.5 -35.5t34.5 -85.5t-34.5 -85.5t-83.5 -35.5t-83.5 35.5t-34.5 85.5zM655 873zM655 1392zM655 1037z" />
<glyph unicode="&#xdd;" horiz-adv-x="1241" d="M59 0zM1014 1391h168l-471 -773v-618h-181v619l-471 772h178l389 -637zM620 1409zM896 1053zM620 0zM249 1475l-239 -375l-92 44l143 331h188zM0 1475zM0 956z" />
<glyph unicode="&#xde;" horiz-adv-x="1083" d="M843 696q0 148 -97 214t-319 66h-66v-560h66q222 0 319 65.5t97 214.5zM361 276v-276h-181v1391h181v-275h170q148 0 263 -54.5t178 -150t63 -215.5q0 -121 -63 -216.5t-178 -149.5t-263 -54h-170z" />
<glyph unicode="&#xdf;" horiz-adv-x="1162" d="M505 1336q-89 0 -134.5 -67t-45.5 -187v-1082h-161v1044q0 420 339 420q113 0 191 -25.5t121.5 -76t62.5 -117.5t19 -159q0 -51 -15.5 -92.5t-41 -69t-55.5 -51t-60.5 -42.5t-55.5 -38.5t-41 -45t-16 -55.5q0 -49 33.5 -80t128.5 -63l78 -27q107 -37 158.5 -97.5 t51.5 -160.5q0 -130 -88 -206t-240 -76q-81 0 -155.5 16.5t-166.5 69.5l58 124q77 -46 131 -63.5t127 -17.5q173 0 173 149q0 90 -165 144l-78 27q-105 37 -155.5 108.5t-50.5 155.5q0 49 15.5 88.5t40.5 65t55.5 47t60.5 41t55.5 41t41 52t15.5 68.5q0 238 -231 238z" />
<glyph unicode="&#xe0;" horiz-adv-x="894" d="M76 0zM611 416h-6q-108 0 -192 -18.5t-137.5 -59t-53.5 -99.5q0 -49 38 -91t116 -42q220 0 235 225v85zM145 890q180 63 299 63q111 0 194 -57t112 -169q16 -63 16 -260v-307q0 -88 14 -160h-156q-14 44 -13 100q-25 -30 -55 -52q-94 -69 -200 -69q-64 0 -115 18 t-81 45.5t-49.5 63.5t-27 67.5t-7.5 61.5q0 60 27.5 110t75 83t102.5 54t118 33q75 14 194 14h18v104q0 31 -1.5 50.5t-11.5 50.5t-29 49t-57 32t-92 14q-128 0 -267 -64zM439 956zM693 0zM439 0zM720 0zM774 828zM-249 1475h188l143 -331l-92 -44zM0 1475zM0 956z" />
<glyph unicode="&#xe1;" horiz-adv-x="894" d="M76 0zM611 416h-6q-108 0 -192 -18.5t-137.5 -59t-53.5 -99.5q0 -49 38 -91t116 -42q220 0 235 225v85zM145 890q180 63 299 63q111 0 194 -57t112 -169q16 -63 16 -260v-307q0 -88 14 -160h-156q-14 44 -13 100q-25 -30 -55 -52q-94 -69 -200 -69q-64 0 -115 18 t-81 45.5t-49.5 63.5t-27 67.5t-7.5 61.5q0 60 27.5 110t75 83t102.5 54t118 33q75 14 194 14h18v104q0 31 -1.5 50.5t-11.5 50.5t-29 49t-57 32t-92 14q-128 0 -267 -64zM439 956zM693 0zM439 0zM720 0zM774 828zM249 1475l-239 -375l-92 44l143 331h188zM0 1475zM0 956z " />
<glyph unicode="&#xe2;" horiz-adv-x="894" d="M76 0zM611 416h-6q-108 0 -192 -18.5t-137.5 -59t-53.5 -99.5q0 -49 38 -91t116 -42q220 0 235 225v85zM145 890q180 63 299 63q111 0 194 -57t112 -169q16 -63 16 -260v-307q0 -88 14 -160h-156q-14 44 -13 100q-25 -30 -55 -52q-94 -69 -200 -69q-64 0 -115 18 t-81 45.5t-49.5 63.5t-27 67.5t-7.5 61.5q0 60 27.5 110t75 83t102.5 54t118 33q75 14 194 14h18v104q0 31 -1.5 50.5t-11.5 50.5t-29 49t-57 32t-92 14q-128 0 -267 -64zM439 956zM693 0zM439 0zM720 0zM774 828zM0 1349l-234 -249l-75 49l215 300h188l215 -300l-75 -49z M0 1475zM0 956z" />
<glyph unicode="&#xe3;" horiz-adv-x="894" d="M76 0zM611 416h-6q-108 0 -192 -18.5t-137.5 -59t-53.5 -99.5q0 -49 38 -91t116 -42q220 0 235 225v85zM145 890q180 63 299 63q111 0 194 -57t112 -169q16 -63 16 -260v-307q0 -88 14 -160h-156q-14 44 -13 100q-25 -30 -55 -52q-94 -69 -200 -69q-64 0 -115 18 t-81 45.5t-49.5 63.5t-27 67.5t-7.5 61.5q0 60 27.5 110t75 83t102.5 54t118 33q75 14 194 14h18v104q0 31 -1.5 50.5t-11.5 50.5t-29 49t-57 32t-92 14q-128 0 -267 -64zM439 956zM693 0zM439 0zM720 0zM774 828zM167 1028l-70 60q26 51 57 88t61 56t55.5 27t48.5 8 q42 0 117.5 -44t110.5 -44q33 0 74 24t69 74l70 -60q-26 -51 -57 -88t-61 -56t-55.5 -27.5t-48.5 -8.5q-42 0 -117.5 45t-109.5 45q-33 0 -74.5 -24.5t-69.5 -74.5zM439 1331zM439 877zM439 956z" />
<glyph unicode="&#xe4;" horiz-adv-x="894" d="M76 0zM611 416h-6q-108 0 -192 -18.5t-137.5 -59t-53.5 -99.5q0 -49 38 -91t116 -42q220 0 235 225v85zM145 890q180 63 299 63q111 0 194 -57t112 -169q16 -63 16 -260v-307q0 -88 14 -160h-156q-14 44 -13 100q-25 -30 -55 -52q-94 -69 -200 -69q-64 0 -115 18 t-81 45.5t-49.5 63.5t-27 67.5t-7.5 61.5q0 60 27.5 110t75 83t102.5 54t118 33q75 14 194 14h18v104q0 31 -1.5 50.5t-11.5 50.5t-29 49t-57 32t-92 14q-128 0 -267 -64zM439 956zM693 0zM439 0zM720 0zM774 828zM85 956zM85 1309q0 50 34.5 85.5t83.5 35.5t83.5 -35.5 t34.5 -85.5t-34.5 -85.5t-83.5 -35.5t-83.5 35.5t-34.5 85.5zM557 1309q0 50 34.5 85.5t83.5 35.5t83.5 -35.5t34.5 -85.5t-34.5 -85.5t-83.5 -35.5t-83.5 35.5t-34.5 85.5zM439 956zM439 1475zM439 1120z" />
<glyph unicode="&#xe5;" horiz-adv-x="894" d="M76 0zM611 416h-6q-108 0 -192 -18.5t-137.5 -59t-53.5 -99.5q0 -49 38 -91t116 -42q220 0 235 225v85zM145 890q180 63 299 63q111 0 194 -57t112 -169q16 -63 16 -260v-307q0 -88 14 -160h-156q-14 44 -13 100q-25 -30 -55 -52q-94 -69 -200 -69q-64 0 -115 18 t-81 45.5t-49.5 63.5t-27 67.5t-7.5 61.5q0 60 27.5 110t75 83t102.5 54t118 33q75 14 194 14h18v104q0 31 -1.5 50.5t-11.5 50.5t-29 49t-57 32t-92 14q-128 0 -267 -64zM439 956zM693 0zM439 0zM720 0zM774 828zM-95 1220q0 -39 28 -66.5t67 -27.5t67 27.5t28 66.5 q0 40 -28 67.5t-67 27.5t-67 -27.5t-28 -67.5zM-180 1220q0 74 53 127t127 53t127 -53t53 -127t-53 -127t-127 -53t-127 53t-53 127zM0 1475zM0 956z" />
<glyph unicode="&#xe6;" horiz-adv-x="1444" d="M117 866q92 46 172 68t195 22q75 0 139 -36t104 -98q60 67 140 100.5t165 33.5q72 0 131 -18t98.5 -47t70 -69.5t47 -79.5t27.5 -83.5t14 -76t4 -62.5l-24 -60h-626q2 -169 89.5 -259t230.5 -90q43 0 62.5 1.5t69.5 15t120 42.5l44 -115q-56 -38 -137.5 -55.5 t-154.5 -17.5q-270 0 -399 180q-56 -81 -151.5 -130.5t-228.5 -49.5q-109 0 -180 54.5t-71 163.5q0 34 10 64.5t32 58t45 50t61.5 46t69 40.5t80 38.5t80.5 34t85 34t81 32.5l1 57q-8 173 -183 173q-73 0 -135 -17t-145 -59zM612 481q-55 -23 -109.5 -44t-105.5 -47 t-89.5 -52t-62 -59t-23.5 -69q0 -39 25.5 -63t53.5 -30t60 -6q63 0 115 24t79.5 58t42 66t14.5 53v169zM781 580h485q-9 109 -65.5 178.5t-148.5 69.5q-117 0 -184.5 -59t-86.5 -189zM718 0zM1080 0zM1230 820zM718 956zM1320 93z" />
<glyph unicode="&#xe7;" horiz-adv-x="888" d="M61 0zM61 469q0 221 120.5 354t326.5 133q125 0 187 -21t141 -79l-62 -108q-59 43 -113 61.5t-118 17.5q-146 0 -233.5 -105t-87.5 -253t87.5 -253t233.5 -105q64 -1 118 17.5t113 61.5l62 -108q-79 -58 -141 -79t-187 -21q-206 0 -326.5 133t-120.5 354zM486 956z M773 828zM486 0zM516 0zM-48 36h93q-42 -72 -42 -142q50 -13 86 -64t36 -118q0 -82 -42.5 -126.5t-128.5 -79.5l-79 75q62 26 95.5 55t33.5 76q0 53 -33.5 84.5t-91.5 31.5q0 125 73 208zM0 -492zM0 0z" />
<glyph unicode="&#xe8;" horiz-adv-x="939" d="M61 0zM500 828q-139 0 -208 -84q-48 -58 -63 -164h485q-9 109 -65.5 178.5t-148.5 69.5zM222 460q2 -166 88 -256q88 -93 233 -93q43 0 62.5 1.5t69.5 15t120 42.5l43 -115q-56 -38 -137.5 -55.5t-154.5 -17.5q-233 0 -359 133t-126 354q0 102 25 185.5t66 138.5t96 92.5 t113 54t119 16.5q72 0 131 -18t98.5 -47t70 -69.5t47 -79.5t27.5 -83.5t14 -76t4 -62.5l-24 -60h-626zM495 956zM773 828zM740 0zM495 0zM-249 1475h188l143 -331l-92 -44zM0 1475zM0 956z" />
<glyph unicode="&#xe9;" horiz-adv-x="939" d="M61 0zM500 828q-139 0 -208 -84q-48 -58 -63 -164h485q-9 109 -65.5 178.5t-148.5 69.5zM222 460q2 -166 88 -256q88 -93 233 -93q43 0 62.5 1.5t69.5 15t120 42.5l43 -115q-56 -38 -137.5 -55.5t-154.5 -17.5q-233 0 -359 133t-126 354q0 102 25 185.5t66 138.5t96 92.5 t113 54t119 16.5q72 0 131 -18t98.5 -47t70 -69.5t47 -79.5t27.5 -83.5t14 -76t4 -62.5l-24 -60h-626zM495 956zM773 828zM740 0zM495 0zM249 1475l-239 -375l-92 44l143 331h188zM0 1475zM0 956z" />
<glyph unicode="&#xea;" horiz-adv-x="939" d="M61 0zM500 828q-139 0 -208 -84q-48 -58 -63 -164h485q-9 109 -65.5 178.5t-148.5 69.5zM222 460q2 -166 88 -256q88 -93 233 -93q43 0 62.5 1.5t69.5 15t120 42.5l43 -115q-56 -38 -137.5 -55.5t-154.5 -17.5q-233 0 -359 133t-126 354q0 102 25 185.5t66 138.5t96 92.5 t113 54t119 16.5q72 0 131 -18t98.5 -47t70 -69.5t47 -79.5t27.5 -83.5t14 -76t4 -62.5l-24 -60h-626zM495 956zM773 828zM740 0zM495 0zM0 1349l-234 -249l-75 49l215 300h188l215 -300l-75 -49zM0 1475zM0 956z" />
<glyph unicode="&#xeb;" horiz-adv-x="939" d="M61 0zM500 828q-139 0 -208 -84q-48 -58 -63 -164h485q-9 109 -65.5 178.5t-148.5 69.5zM222 460q2 -166 88 -256q88 -93 233 -93q43 0 62.5 1.5t69.5 15t120 42.5l43 -115q-56 -38 -137.5 -55.5t-154.5 -17.5q-233 0 -359 133t-126 354q0 102 25 185.5t66 138.5t96 92.5 t113 54t119 16.5q72 0 131 -18t98.5 -47t70 -69.5t47 -79.5t27.5 -83.5t14 -76t4 -62.5l-24 -60h-626zM495 956zM773 828zM740 0zM495 0zM141 956zM141 1309q0 50 34.5 85.5t83.5 35.5t83.5 -35.5t34.5 -85.5t-34.5 -85.5t-83.5 -35.5t-83.5 35.5t-34.5 85.5zM613 1309 q0 50 34.5 85.5t83.5 35.5t83.5 -35.5t34.5 -85.5t-34.5 -85.5t-83.5 -35.5t-83.5 35.5t-34.5 85.5zM495 956zM495 1475zM495 1120z" />
<glyph unicode="&#xec;" horiz-adv-x="547" d="M53 0zM383 938v-938h-161v810h-166v128h327zM302 956zM302 828zM302 0zM-249 1475h188l143 -331l-92 -44zM0 1475zM0 956z" />
<glyph unicode="&#xed;" horiz-adv-x="547" d="M56 0zM383 938v-938h-161v810h-166v128h327zM302 956zM302 828zM302 0zM249 1475l-239 -375l-92 44l143 331h188zM0 1475zM0 956z" />
<glyph unicode="&#xee;" horiz-adv-x="547" d="M0 0zM383 938v-938h-161v810h-166v128h327zM302 956zM302 828zM302 0zM0 1349l-234 -249l-75 49l215 300h188l215 -300l-75 -49zM0 1475zM0 956z" />
<glyph unicode="&#xef;" horiz-adv-x="547" d="M0 0zM383 938v-938h-161v810h-166v128h327zM302 956zM302 828zM302 0zM-52 437zM-52 790q0 50 34.5 85.5t83.5 35.5t83.5 -35.5t34.5 -85.5t-34.5 -85.5t-83.5 -35.5t-83.5 35.5t-34.5 85.5zM420 790q0 50 34.5 85.5t83.5 35.5t83.5 -35.5t34.5 -85.5t-34.5 -85.5 t-83.5 -35.5t-83.5 35.5t-34.5 85.5zM302 437zM302 956zM302 601z" />
<glyph unicode="&#xf0;" horiz-adv-x="1012" d="M222 469q0 -97 24.5 -169.5t66 -112t90 -58t103.5 -18.5q44 0 83 12t76.5 42t63.5 76t42.5 119.5t16.5 167.5q0 114 -24 224q-101 76 -230 76q-125 0 -218.5 -96t-93.5 -263zM707 931q-45 106 -110 197l-189 -113l-56 93l175 105q-100 106 -191 137l80 125 q138 -55 250 -178l157 94l56 -93l-144 -87q105 -148 160.5 -332t55.5 -339q0 -124 -25.5 -222t-68 -160t-101 -102.5t-120 -57t-130.5 -16.5q-68 0 -130 15t-120.5 50.5t-101 90t-68 139.5t-25.5 192q0 209 136.5 348t342.5 139q97 0 167 -25z" />
<glyph unicode="&#xf1;" horiz-adv-x="1121" d="M164 0zM796 507q0 171 -60 246t-170 75q-59 0 -108 -31.5t-76 -75.5t-42 -82.5t-15 -60.5v-578h-161v938h161v-172q90 190 293 190q36 0 76 -9.5t88.5 -36.5t86 -69t63 -114t25.5 -164v-563h-161v507zM555 0zM555 956zM795 828zM876 0zM283 1028l-70 60q26 51 57 88 t61 56t55.5 27t48.5 8q42 0 117.5 -44t110.5 -44q33 0 74 24t69 74l70 -60q-26 -51 -57 -88t-61 -56t-55.5 -27.5t-48.5 -8.5q-42 0 -117.5 45t-109.5 45q-33 0 -74.5 -24.5t-69.5 -74.5zM555 1331zM555 877zM555 956z" />
<glyph unicode="&#xf2;" horiz-adv-x="1012" d="M61 0zM222 469q0 -97 24.5 -169.5t66 -112t90 -58t103.5 -18.5t103 18.5t89.5 58t65.5 112t24 169.5t-24 169.5t-65.5 112t-89.5 58t-103 18.5t-103.5 -18.5t-90 -58t-66 -112t-24.5 -169.5zM61 469q0 107 25.5 192t68 139.5t101 90t120.5 50.5t130 15t130 -15 t120.5 -50.5t101 -90t68 -139.5t25.5 -192t-25.5 -192t-68 -139.5t-101 -90t-120.5 -50.5t-130 -15t-130 15t-120.5 50.5t-101 90t-68 139.5t-25.5 192zM506 956zM773 828zM506 0zM-249 1475h188l143 -331l-92 -44zM0 1475zM0 956z" />
<glyph unicode="&#xf3;" horiz-adv-x="1012" d="M61 0zM222 469q0 -97 24.5 -169.5t66 -112t90 -58t103.5 -18.5t103 18.5t89.5 58t65.5 112t24 169.5t-24 169.5t-65.5 112t-89.5 58t-103 18.5t-103.5 -18.5t-90 -58t-66 -112t-24.5 -169.5zM61 469q0 107 25.5 192t68 139.5t101 90t120.5 50.5t130 15t130 -15 t120.5 -50.5t101 -90t68 -139.5t25.5 -192t-25.5 -192t-68 -139.5t-101 -90t-120.5 -50.5t-130 -15t-130 15t-120.5 50.5t-101 90t-68 139.5t-25.5 192zM506 956zM773 828zM506 0zM249 1475l-239 -375l-92 44l143 331h188zM0 1475zM0 956z" />
<glyph unicode="&#xf4;" horiz-adv-x="1012" d="M61 0zM222 469q0 -97 24.5 -169.5t66 -112t90 -58t103.5 -18.5t103 18.5t89.5 58t65.5 112t24 169.5t-24 169.5t-65.5 112t-89.5 58t-103 18.5t-103.5 -18.5t-90 -58t-66 -112t-24.5 -169.5zM61 469q0 107 25.5 192t68 139.5t101 90t120.5 50.5t130 15t130 -15 t120.5 -50.5t101 -90t68 -139.5t25.5 -192t-25.5 -192t-68 -139.5t-101 -90t-120.5 -50.5t-130 -15t-130 15t-120.5 50.5t-101 90t-68 139.5t-25.5 192zM506 956zM773 828zM506 0zM0 1349l-234 -249l-75 49l215 300h188l215 -300l-75 -49zM0 1475zM0 956z" />
<glyph unicode="&#xf5;" horiz-adv-x="1012" d="M61 0zM222 469q0 -97 24.5 -169.5t66 -112t90 -58t103.5 -18.5t103 18.5t89.5 58t65.5 112t24 169.5t-24 169.5t-65.5 112t-89.5 58t-103 18.5t-103.5 -18.5t-90 -58t-66 -112t-24.5 -169.5zM61 469q0 107 25.5 192t68 139.5t101 90t120.5 50.5t130 15t130 -15 t120.5 -50.5t101 -90t68 -139.5t25.5 -192t-25.5 -192t-68 -139.5t-101 -90t-120.5 -50.5t-130 -15t-130 15t-120.5 50.5t-101 90t-68 139.5t-25.5 192zM506 956zM773 828zM506 0zM234 1028l-70 60q26 51 57 88t61 56t55.5 27t48.5 8q42 0 117.5 -44t110.5 -44q33 0 74 24 t69 74l70 -60q-26 -51 -57 -88t-61 -56t-55.5 -27.5t-48.5 -8.5q-42 0 -117.5 45t-109.5 45q-33 0 -74.5 -24.5t-69.5 -74.5zM506 1331zM506 877zM506 956z" />
<glyph unicode="&#xf6;" horiz-adv-x="1012" d="M61 0zM222 469q0 -97 24.5 -169.5t66 -112t90 -58t103.5 -18.5t103 18.5t89.5 58t65.5 112t24 169.5t-24 169.5t-65.5 112t-89.5 58t-103 18.5t-103.5 -18.5t-90 -58t-66 -112t-24.5 -169.5zM61 469q0 107 25.5 192t68 139.5t101 90t120.5 50.5t130 15t130 -15 t120.5 -50.5t101 -90t68 -139.5t25.5 -192t-25.5 -192t-68 -139.5t-101 -90t-120.5 -50.5t-130 -15t-130 15t-120.5 50.5t-101 90t-68 139.5t-25.5 192zM506 956zM773 828zM506 0zM152 956zM152 1309q0 50 34.5 85.5t83.5 35.5t83.5 -35.5t34.5 -85.5t-34.5 -85.5 t-83.5 -35.5t-83.5 35.5t-34.5 85.5zM624 1309q0 50 34.5 85.5t83.5 35.5t83.5 -35.5t34.5 -85.5t-34.5 -85.5t-83.5 -35.5t-83.5 35.5t-34.5 85.5zM506 956zM506 1475zM506 1120z" />
<glyph unicode="&#xf7;" horiz-adv-x="1130" d="M1069 449h-1008v109h1008v-109zM447 829q0 50 34.5 85.5t83.5 35.5t83.5 -35.5t34.5 -85.5t-34.5 -85.5t-83.5 -35.5t-83.5 35.5t-34.5 85.5zM447 178q0 50 34.5 85.5t83.5 35.5t83.5 -35.5t34.5 -85.5t-34.5 -85.5t-83.5 -35.5t-83.5 35.5t-34.5 85.5z" />
<glyph unicode="&#xf8;" horiz-adv-x="1012" d="M61 469q0 107 25.5 192t68 139.5t101 90t120.5 50.5t130 15q174 0 288 -92l66 74l67 -68l-67 -74q91 -123 91 -327q0 -107 -25.5 -192t-68 -139.5t-101 -90t-120.5 -50.5t-130 -15q-174 0 -288 92l-66 -74l-67 68l67 74q-91 123 -91 327zM751 672l-435 -488 q74 -73 190 -73q55 0 103 18.5t89.5 58t65.5 112t24 169.5q0 121 -37 203zM696 753q-74 74 -190 74q-55 0 -103.5 -18.5t-90 -58t-66 -112t-24.5 -169.5q0 -121 38 -204z" />
<glyph unicode="&#xf9;" horiz-adv-x="1121" d="M164 0zM325 431q0 -171 60 -246t170 -75q59 0 108 31.5t76 75.5t42 82.5t15 60.5v578h161v-938h-161v172q-90 -190 -293 -190q-36 0 -76 9.5t-88.5 36.5t-86 69t-63 114t-25.5 164v563h161v-507zM555 0zM555 956zM907 828zM876 0zM-249 1475h188l143 -331l-92 -44z M0 1475zM0 956z" />
<glyph unicode="&#xfa;" horiz-adv-x="1121" d="M164 0zM325 431q0 -171 60 -246t170 -75q59 0 108 31.5t76 75.5t42 82.5t15 60.5v578h161v-938h-161v172q-90 -190 -293 -190q-36 0 -76 9.5t-88.5 36.5t-86 69t-63 114t-25.5 164v563h161v-507zM555 0zM555 956zM907 828zM876 0zM249 1475l-239 -375l-92 44l143 331h188 zM0 1475zM0 956z" />
<glyph unicode="&#xfb;" horiz-adv-x="1121" d="M164 0zM325 431q0 -171 60 -246t170 -75q59 0 108 31.5t76 75.5t42 82.5t15 60.5v578h161v-938h-161v172q-90 -190 -293 -190q-36 0 -76 9.5t-88.5 36.5t-86 69t-63 114t-25.5 164v563h161v-507zM555 0zM555 956zM907 828zM876 0zM0 1349l-234 -249l-75 49l215 300h188 l215 -300l-75 -49zM0 1475zM0 956z" />
<glyph unicode="&#xfc;" horiz-adv-x="1121" d="M164 0zM325 431q0 -171 60 -246t170 -75q59 0 108 31.5t76 75.5t42 82.5t15 60.5v578h161v-938h-161v172q-90 -190 -293 -190q-36 0 -76 9.5t-88.5 36.5t-86 69t-63 114t-25.5 164v563h161v-507zM555 0zM555 956zM907 828zM876 0zM201 956zM201 1309q0 50 34.5 85.5 t83.5 35.5t83.5 -35.5t34.5 -85.5t-34.5 -85.5t-83.5 -35.5t-83.5 35.5t-34.5 85.5zM673 1309q0 50 34.5 85.5t83.5 35.5t83.5 -35.5t34.5 -85.5t-34.5 -85.5t-83.5 -35.5t-83.5 35.5t-34.5 85.5zM555 956zM555 1475zM555 1120z" />
<glyph unicode="&#xfd;" horiz-adv-x="1027" d="M0 0zM24 938h173l323 -731l324 731h162l-414 -920q-89 -205 -159 -317.5t-129.5 -154.5t-133.5 -42q-100 0 -171 76l58 98q19 -16 30.5 -23.5t30.5 -14.5t39 -7q24 0 48 13t48 40.5t45 58t45.5 78t43.5 88.5t46 100zM515 -492zM515 956zM880 828zM170 -492zM249 1475 l-239 -375l-92 44l143 331h188zM0 1475zM0 956z" />
<glyph unicode="&#xfe;" horiz-adv-x="1063" d="M329 154q80 -44 191 -44q55 0 111.5 28.5t103.5 78t76.5 124.5t29.5 161q0 139 -74.5 232t-183.5 93q-74 0 -141 -50.5t-113 -128.5v-494zM598 956q116 0 210 -64t144 -166.5t50 -219.5q0 -233 -135.5 -378.5t-336.5 -145.5q-84 0 -201 32v-506h-165v1967h165v-647 q113 128 269 128zM244 -492zM841 828zM244 1475z" />
<glyph unicode="&#xff;" horiz-adv-x="1027" d="M0 0zM24 938h173l323 -731l324 731h162l-414 -920q-89 -205 -159 -317.5t-129.5 -154.5t-133.5 -42q-100 0 -171 76l58 98q19 -16 30.5 -23.5t30.5 -14.5t39 -7q24 0 48 13t48 40.5t45 58t45.5 78t43.5 88.5t46 100zM515 -492zM515 956zM880 828zM170 -492zM161 956z M161 1309q0 50 34.5 85.5t83.5 35.5t83.5 -35.5t34.5 -85.5t-34.5 -85.5t-83.5 -35.5t-83.5 35.5t-34.5 85.5zM633 1309q0 50 34.5 85.5t83.5 35.5t83.5 -35.5t34.5 -85.5t-34.5 -85.5t-83.5 -35.5t-83.5 35.5t-34.5 85.5zM515 956zM515 1475zM515 1120z" />
<glyph unicode="&#x131;" horiz-adv-x="547" d="M383 938v-938h-161v810h-166v128h327zM302 956zM302 828zM302 0z" />
<glyph unicode="&#x152;" horiz-adv-x="1832" d="M672 1271q-137 0 -236.5 -75t-149 -202t-49.5 -291q0 -123 28 -228t81 -184t137 -123.5t189 -44.5q132 0 231.5 81t148.5 211t49 288q0 117 -28 219.5t-80.5 180.5t-135 123t-185.5 45zM1288 644v-505l498 1v-140h-679v171q-168 -189 -434 -189q-152 0 -272.5 55.5 t-197.5 153t-117.5 228t-40.5 284.5q0 204 71.5 362.5t215 251t341.5 92.5q270 0 434 -178v160h679v-139h-498v-468h302v-140h-302z" />
<glyph unicode="&#x153;" horiz-adv-x="1666" d="M956 580h485q-9 109 -65.5 178.5t-148.5 69.5q-117 0 -184.5 -59t-86.5 -189zM222 469q0 -97 24.5 -169.5t66 -112t90 -58t103.5 -18.5t103 18.5t89.5 58t65.5 112t24 169.5t-24 169.5t-65.5 112t-89.5 58t-103 18.5t-103.5 -18.5t-90 -58t-66 -112t-24.5 -169.5zM61 469 q0 107 25.5 192t68 139.5t101 90t120.5 50.5t130 15q112 0 208 -42t157 -133q59 88 149 131.5t187 43.5q72 0 131 -18t98.5 -47t70 -69.5t47 -79.5t27.5 -83.5t14 -76t4 -62.5l-24 -60h-624q0 -19 -1 -29q10 -155 97 -237.5t223 -82.5q43 0 62.5 1.5t69.5 15t120 42.5 l43 -115q-56 -38 -137.5 -55.5t-154.5 -17.5q-271 0 -398 181q-60 -94 -157.5 -137.5t-211.5 -43.5q-68 0 -130 15t-120.5 50.5t-101 90t-68 139.5t-25.5 192z" />
<glyph unicode="&#x237;" horiz-adv-x="547" d="M383 938v-827q0 -63 -2 -105.5t-10.5 -100t-27.5 -109.5t-50 -100q-67 -105 -193 -188l-90 72q38 37 58.5 59t47 58t44.5 73q62 127 62 341v699h-166v128h327zM302 956zM302 828zM222 -492z" />
<glyph unicode="&#x300;" d="M-249 1475h188l143 -331l-92 -44zM0 1475zM0 956z" />
<glyph unicode="&#x301;" d="M249 1475l-239 -375l-92 44l143 331h188zM0 1475zM0 956z" />
<glyph unicode="&#x302;" d="M0 1349l-234 -249l-75 49l215 300h188l215 -300l-75 -49zM0 1475zM0 956z" />
<glyph unicode="&#x303;" d="M-272 1107l-70 60q26 51 57 88t61 56t55.5 27t48.5 8q42 0 117.5 -44t110.5 -44q33 0 74 24t69 74l70 -60q-26 -51 -57 -88t-61 -56t-55.5 -27.5t-48.5 -8.5q-42 0 -117.5 45t-109.5 45q-33 0 -74.5 -24.5t-69.5 -74.5zM0 1410zM0 956zM0 1035z" />
<glyph unicode="&#x307;" d="M-118 1309q0 50 34.5 85.5t83.5 35.5t83.5 -35.5t34.5 -85.5t-34.5 -85.5t-83.5 -35.5t-83.5 35.5t-34.5 85.5zM0 1475zM0 956zM0 1120z" />
<glyph unicode="&#x308;" d="M-354 1309q0 50 34.5 85.5t83.5 35.5t83.5 -35.5t34.5 -85.5t-34.5 -85.5t-83.5 -35.5t-83.5 35.5t-34.5 85.5zM118 1309q0 50 34.5 85.5t83.5 35.5t83.5 -35.5t34.5 -85.5t-34.5 -85.5t-83.5 -35.5t-83.5 35.5t-34.5 85.5zM0 956zM0 1475zM0 1120z" />
<glyph unicode="&#x30a;" d="M-95 1220q0 -39 28 -66.5t67 -27.5t67 27.5t28 66.5q0 40 -28 67.5t-67 27.5t-67 -27.5t-28 -67.5zM-180 1220q0 74 53 127t127 53t127 -53t53 -127t-53 -127t-127 -53t-127 53t-53 127zM0 1475zM0 956z" />
<glyph unicode="&#x327;" d="M-48 36h93q-42 -72 -42 -142q50 -13 86 -64t36 -118q0 -82 -42.5 -126.5t-128.5 -79.5l-79 75q62 26 95.5 55t33.5 76q0 53 -33.5 84.5t-91.5 31.5q0 125 73 208zM0 -492zM0 0z" />
<glyph unicode="&#x2000;" horiz-adv-x="941" />
<glyph unicode="&#x2001;" horiz-adv-x="1883" />
<glyph unicode="&#x2002;" horiz-adv-x="941" />
<glyph unicode="&#x2003;" horiz-adv-x="1883" />
<glyph unicode="&#x2004;" horiz-adv-x="627" />
<glyph unicode="&#x2005;" horiz-adv-x="470" />
<glyph unicode="&#x2006;" horiz-adv-x="313" />
<glyph unicode="&#x2007;" horiz-adv-x="313" />
<glyph unicode="&#x2008;" horiz-adv-x="235" />
<glyph unicode="&#x2009;" horiz-adv-x="376" />
<glyph unicode="&#x200a;" horiz-adv-x="104" />
<glyph unicode="&#x2010;" horiz-adv-x="765" d="M690 449h-629v109h629v-109z" />
<glyph unicode="&#x2011;" horiz-adv-x="765" d="M690 449h-629v109h629v-109z" />
<glyph unicode="&#x2012;" horiz-adv-x="765" d="M690 449h-629v109h629v-109z" />
<glyph unicode="&#x2013;" horiz-adv-x="765" d="M61 449zM690 449h-629v109h629v-109z" />
<glyph unicode="&#x2014;" horiz-adv-x="1556" d="M1488 449h-1420v109h1420v-109z" />
<glyph unicode="&#x2018;" horiz-adv-x="450" d="M221 1142q0 -12 15.5 -22.5t33.5 -19t33.5 -33.5t15.5 -63q0 -42 -31.5 -77.5t-86.5 -35.5q-41 0 -68.5 17.5t-38.5 45.5t-15 49t-4 43q0 78 39 164.5t155 198.5l82 -72q-130 -124 -130 -195z" />
<glyph unicode="&#x2019;" horiz-adv-x="450" d="M205 1158q0 12 -15.5 22.5t-33.5 19t-33.5 33.5t-15.5 63q0 42 31.5 77.5t86.5 35.5q41 0 68.5 -17.5t38.5 -45.5t15 -49t4 -43q0 -78 -39 -164.5t-155 -198.5l-82 72q130 124 130 195z" />
<glyph unicode="&#x201a;" horiz-adv-x="450" d="M75 0zM205 -4q0 12 -15.5 22.5t-33.5 19t-33.5 33.5t-15.5 63q0 42 31.5 77.5t86.5 35.5q41 0 68.5 -17.5t38.5 -45.5t15 -49t4 -43q0 -78 -39 -164.5t-155 -198.5l-82 72q130 124 130 195z" />
<glyph unicode="&#x201c;" horiz-adv-x="821" d="M75 891zM221 1142q0 -12 15.5 -22.5t33.5 -19t33.5 -33.5t15.5 -63q0 -42 -31.5 -77.5t-86.5 -35.5q-41 0 -68.5 17.5t-38.5 45.5t-15 49t-4 43q0 78 39 164.5t155 198.5l82 -72q-130 -124 -130 -195zM596 1142q0 -12 15.5 -22.5t33.5 -19t33.5 -33.5t15.5 -63 q0 -42 -31.5 -77.5t-86.5 -35.5q-41 0 -68.5 17.5t-38.5 45.5t-15 49t-4 43q0 78 39 164.5t155 198.5l82 -72q-130 -124 -130 -195z" />
<glyph unicode="&#x201d;" horiz-adv-x="821" d="M75 891zM205 1158q0 12 -15.5 22.5t-33.5 19t-33.5 33.5t-15.5 63q0 42 31.5 77.5t86.5 35.5q41 0 68.5 -17.5t38.5 -45.5t15 -49t4 -43q0 -78 -39 -164.5t-155 -198.5l-82 72q130 124 130 195zM580 1158q0 12 -15.5 22.5t-33.5 19t-33.5 33.5t-15.5 63q0 42 31.5 77.5 t86.5 35.5q41 0 68.5 -17.5t38.5 -45.5t15 -49t4 -43q0 -78 -39 -164.5t-155 -198.5l-82 72q130 124 130 195z" />
<glyph unicode="&#x201e;" horiz-adv-x="821" d="M75 0zM580 -4q0 12 -15.5 22.5t-33.5 19t-33.5 33.5t-15.5 63q0 42 31.5 77.5t86.5 35.5q41 0 68.5 -17.5t38.5 -45.5t15 -49t4 -43q0 -78 -39 -164.5t-155 -198.5l-82 72q130 124 130 195zM205 -4q0 12 -15.5 22.5t-33.5 19t-33.5 33.5t-15.5 63q0 42 31.5 77.5 t86.5 35.5q41 0 68.5 -17.5t38.5 -45.5t15 -49t4 -43q0 -78 -39 -164.5t-155 -198.5l-82 72q130 124 130 195z" />
<glyph unicode="&#x2022;" horiz-adv-x="466" d="M63 504q0 72 50 123t120 51t120 -51t50 -123t-50 -123t-120 -51t-120 51t-50 123z" />
<glyph unicode="&#x202f;" horiz-adv-x="376" />
<glyph unicode="&#x2039;" horiz-adv-x="572" d="M187 525l280 -257l-33 -100l-416 357l416 357l33 -100z" />
<glyph unicode="&#x203a;" horiz-adv-x="572" d="M385 525l-280 257l33 100l416 -357l-416 -357l-33 100z" />
<glyph unicode="&#x205f;" horiz-adv-x="470" />
<glyph unicode="&#x20ac;" horiz-adv-x="1398" d="M877 1305q76 0 142.5 -9.5t109 -21.5t85.5 -33.5t62.5 -35t49.5 -35.5l-88 -106q-16 14 -37.5 28.5t-63 35.5t-103 34.5t-131.5 13.5q-183 0 -313 -100.5t-172 -277.5h584v-109h-600q-1 -23 -1 -46q0 -30 2 -58h545v-109h-531q17 -82 52 -147t91 -114.5t138 -76.5 t185 -27q183 0 365 106l78 -102q-81 -61 -192.5 -97t-278.5 -36q-108 0 -205 30t-178 89.5t-138 155.5t-80 219h-193v109h181q-2 28 -2 58q0 23 1 46h-127v109h141q31 152 119 267t218.5 177.5t284.5 62.5z" />
<glyph unicode="&#xe000;" horiz-adv-x="940" d="M0 940h940v-940h-940v940z" />
<glyph horiz-adv-x="605" d="M0 0z" />
</font>
</defs>
</svg>
