<?xml version="1.0" standalone="no"?>
<!DOCTYPE svg PUBLIC "-//W3C//DTD SVG 1.1//EN" "http://www.w3.org/Graphics/SVG/1.1/DTD/svg11.dtd" >
<svg xmlns="http://www.w3.org/2000/svg">
<metadata></metadata>
<defs>
<font id="spilt_inkregular" horiz-adv-x="540" >
<font-face units-per-em="1000" ascent="800" descent="-200" />
<missing-glyph horiz-adv-x="451" />
<glyph unicode="&#xd;" horiz-adv-x="1000" />
<glyph unicode=" "  horiz-adv-x="451" />
<glyph unicode="&#x09;" horiz-adv-x="451" />
<glyph unicode="&#xa0;" horiz-adv-x="451" />
<glyph unicode="!" horiz-adv-x="343" d="M229 658q2 -1 4.5 -3t4.5 -4q8 -8 19 -12t22 -7q4 -3 8 -4t8 -4q1 -2 3 -3.5t3 -3.5q3 -3 4 -5q7 -7 9 -16t6 -18q6 -36 1 -76q0 -3 -1 -5.5t-1 -5.5q0 -6 -2.5 -11t-2.5 -12l-2 -6t-2 -7l-1 -4h-1q-2 -3 -2.5 -6.5t-1.5 -6.5q-2 -2 -2 -5q0 -2 -2 -4q-10 -24 -19 -49 t-7 -53q0 -6 1 -11.5t2 -11.5q-1 -5 -0.5 -10.5t-0.5 -10.5q-5 -26 -23.5 -44t-44.5 -24q-22 -7 -44.5 -3.5t-41.5 14.5q-17 13 -31 31.5t-11 41.5l12 47q1 7 -1 13.5t-8 10.5q-7 2 -13 -1t-11 -6.5t-10.5 -4.5t-12.5 5q-5 5 -5 12t2 13q4 9 13.5 13t13.5 14q3 10 0 18.5 t-9 15.5q-16 34 -24 73q-8 38 0 75t28 66q14 19 35 28t45 9q29 0 52 -12.5t42 -29.5zM297 681q7 -13 -1 -23q-4 -3 -7 -5.5t-8 -2.5q-2 0 -5.5 -0.5t-5.5 1.5q-18 3 -23 21q-2 12 5 19q9 9 24 7q6 -3 12 -6.5t9 -10.5zM124 415q-4 8 -9 12q-9 2 -13 -3q-5 -5 -6.5 -13.5 t0.5 -16.5q3 -3 5.5 -6.5t8.5 -2.5q4 -1 6.5 1.5t5.5 4.5q4 5 4 11q0 7 -2 13zM240 166q16 -8 28.5 -21t13.5 -32q0 -24 -22 -34q-11 -6 -23 -11.5t-20 -15.5q-5 -5 -9 -10.5t-9 -10.5q-20 -21 -49 -29q-23 -5 -44.5 2.5t-33.5 24.5q-5 9 -9.5 18.5t-5.5 20.5q-2 36 22 63 q4 5 4.5 11.5t0.5 12.5q2 3 2.5 6.5t2.5 5.5q9 11 24 11q19 -4 40 -1q12 2 24 1.5t23 -1.5q11 -2 20.5 -5t19.5 -6zM288 58q3 -14 -7 -24q-5 -6 -12 -10t-15 -3q-5 2 -8.5 4t-5.5 7q-2 9 2 16.5t10 12.5q12 8 23 7q8 -1 13 -10z" />
<glyph unicode="&#x22;" horiz-adv-x="467" d="M208 675q5 -5 10 -11t9 -13q4 -4 9.5 -6.5t10.5 0.5q12 3 17 12.5t16 14.5q17 12 39.5 17.5t45.5 6.5q5 -2 11 -2q7 0 12 -2q8 -1 15 -4.5t15 -6.5q17 -11 25 -28t5 -38q-6 -26 -17 -50.5t-22 -48.5q-9 -14 -16.5 -29t-24.5 -21q-9 -3 -20 -3t-18 7q-8 7 -7 18q0 11 9 17 t11 17q2 12 -8 19q-6 4 -16 6q-2 2 -5 2q-2 0 -5 1q-17 5 -32.5 14.5t-23.5 26.5q-2 3 -10 7q-7 1 -14 -4q-5 -5 -6.5 -11t-4.5 -11q-3 -9 -7 -18t-7 -17q-7 -13 -12.5 -25t-12.5 -24l-10 -9q-6 -4 -13 -5.5t-15 -3.5q-7 0 -14 2.5t-11 7.5q-9 14 -2 24q2 3 4 6.5t6 5.5 q2 5 2 9t-1 9q-2 4 -8 8q-8 5 -18.5 6t-19.5 5q-17 5 -32 15.5t-22 27.5q-6 16 -1 33q8 24 27 39.5t42 23.5q6 1 10.5 2t10.5 2q4 2 9 2.5t10 0.5q21 1 40.5 -4.5t34.5 -19.5z" />
<glyph unicode="&#x26;" horiz-adv-x="610" d="M427 699q-29 -10 -59.5 -9.5t-60.5 3.5t-60 4.5t-58 -7.5q-13 -3 -19.5 -11.5t-11 -18t-9.5 -19.5t-15 -16q-20 -7 -28.5 1t-13 21t-9 27t-17.5 20q-22 8 -39 -6q-5 -8 -2 -14.5t8.5 -12t12 -11t9.5 -11.5q16 -16 18 -32t-2 -32t-10.5 -33t-7.5 -34q-10 -14 -14 -30 t-4 -33q0 -33 11 -64q12 -31 35 -56t39 -53q5 -18 -4 -28t-21.5 -18t-23.5 -17.5t-11 -26.5q-6 -23 -0.5 -43.5t16.5 -39.5q32 -48 79 -73.5t107 -21.5q29 17 59.5 14t60 -8.5t57.5 -3.5t52 29q22 21 24.5 54t-5.5 61q-2 8 -6.5 15.5l-9 15t-7 16t-0.5 18.5q8 11 20 12t23 4 q14 6 23 19t12 27q-3 11 -2.5 23t0 23.5t-4 22.5t-13.5 19q-9 3 -14.5 0.5t-10 -7.5t-9 -10.5t-11.5 -8.5q-29 -1 -59 -5.5t-52 -29.5q-9 -11 -15 -22.5t-3 -27.5q-2 -17 10 -27t24.5 -18.5t19 -19t-6.5 -27.5q-29 -8 -59 -3t-52 23q-7 8 -12 16.5t0 18.5q7 7 16 9t18.5 3 t18 3t14.5 10q1 18 -8 31t-19.5 26t-18 27t-2.5 34q6 13 16 16.5t22 3.5t25 -2t24 0q51 7 92.5 42t61.5 83q13 32 9.5 70.5t-22.5 65.5q-21 28 -50.5 44.5t-64.5 15.5zM175 613q2 -8 -2.5 -14.5t-11.5 -10.5q-9 0 -14 8q-1 8 1.5 15t10.5 10q10 1 16 -8zM170 286 q2 -10 -1.5 -19t-11.5 -11q-7 0 -10 4.5t-6 9.5q-1 8 0 16.5t9 13.5q8 3 13.5 -2t6.5 -12zM129 9q-3 11 -10 22t-18 18q-7 4 -16.5 5t-11.5 -10q4 -13 13.5 -24.5t21.5 -16.5q5 -3 12 -2t9 8z" />
<glyph unicode="'" horiz-adv-x="254" d="M240 643q4 -23 -5.5 -41t-22 -35t-24.5 -34.5t-13 -39.5q-8 -13 -21 -19.5t-27 -8.5q-12 -1 -22.5 5t-14.5 17q-1 7 2 13l6 12t5 12t-1 13q-13 4 -27.5 9.5t-27 14t-20.5 20.5t-9 28q3 29 24.5 51t47.5 31q20 8 42.5 9t43 -5t37.5 -19t27 -33z" />
<glyph unicode="," horiz-adv-x="260" d="M242 106q4 -23 -5.5 -41t-22 -35t-24.5 -34.5t-13 -39.5q-8 -13 -21 -20t-27 -9q-12 0 -22.5 6t-14.5 17q-1 7 2 13l6 12t5 12t-1 13q-13 4 -27.5 9.5t-27 14t-20.5 20.5t-9 28q3 29 24.5 51t47.5 30q20 8 42.5 9.5t43 -4.5t37.5 -19t27 -33z" />
<glyph unicode="." horiz-adv-x="261" d="M177 157q20 -5 35.5 -16t24.5 -28q9 -19 3.5 -39t-19.5 -34q-2 -1 -3 -2.5t-3 -2.5l-1 -1q-6 -5 -11.5 -9t-12.5 -7q-23 -11 -49 -15.5t-53 0.5q-23 5 -43.5 18.5t-26.5 38.5q-3 15 1.5 29t12.5 25l11 11t14 9q0 2 1 2h1q10 5 20.5 10.5t21.5 8.5q13 5 26 6t28 0 q2 -1 5.5 -0.5t6.5 -1.5z" />
<glyph unicode="0" horiz-adv-x="753" d="M449 680q-20 6 -39.5 12t-42.5 8q-17 0 -33.5 -1t-32.5 -5q-7 -1 -12.5 -3.5t-12.5 -3.5q-16 -7 -31.5 -14t-30.5 -17q-11 -6 -21 -14.5t-22 -12.5q-5 -1 -9 -1.5t-8 0.5q-7 1 -12 5t-9 9q-6 7 -10 15t-11 15q-4 4 -8.5 5t-9.5 2q-10 -3 -15 -11q-2 -4 -2 -7q0 -6 1 -9 q2 -4 5 -6.5t6 -5.5q11 -5 20 -10.5t15 -15.5q2 -8 -2 -12q-5 -5 -11 -4q-6 -3 -13 -5.5t-11 -9.5q-2 -4 -3 -9.5t1 -10.5q2 -22 -10 -39t-20 -35q-9 -19 -15.5 -39.5t-11.5 -40.5q-4 -23 -4 -54q0 -28 3 -53l5 -24l2 -10q7 -23 15.5 -45.5t21.5 -42.5q6 -11 14 -20t7 -22 q-1 -8 -6 -13.5t-11 -10t-11.5 -9t-8.5 -11.5q-2 -6 -0.5 -13t6.5 -11q5 -2 10.5 -3t9.5 3q6 5 9.5 11.5t7.5 12.5q5 7 9.5 13.5t12.5 8.5q6 1 11 -2q3 -5 3 -9t-2 -10q0 -11 9 -17q8 -2 13 2t11 6q7 1 15 -3q14 -12 10 -26q1 -16 17 -27q11 -8 24.5 -9t27.5 0q17 1 31.5 -4 t29.5 -10q19 -6 39 -7t41 1q22 0 42 5.5t40 11.5q24 8 46 20.5t45 23.5h12q11 -3 16 -11t9.5 -17t9.5 -17t16 -11q14 -2 21 8q5 11 1 19q-2 8 -8 12.5t-12 7.5l-14 10t-10 13q-1 12 7 20q2 2 3 2l2 2q14 11 23 26t15 31q2 9 8 16.5t11 15.5q22 27 31 60.5t13 67.5q1 17 0 33 t-2 33q-3 8 -3.5 15.5t-1.5 15.5q-3 17 -7 33.5t-10 32.5l-11 25q-8 18 -17 34.5t-21 32.5q-6 8 -13 15.5t-15 15.5q-10 8 -21.5 15t-23.5 12q-12 4 -24.5 6t-25.5 7q-20 8 -40 18.5t-42 18.5zM207 679v-2v2zM651 650q-8 5 -14 3q-9 -1 -11 -9q-3 -17 8 -28q6 -6 16 -3 q5 2 6.5 5.5t2.5 8.5q2 7 -1.5 12.5t-6.5 10.5zM452 352q0 -2 1.5 -2.5t2.5 -2.5q2 -5 3 -10l2 -10q-1 -5 -7 -9q-5 0 -7.5 2t-5.5 4q-5 5 -7.5 11t-4.5 12q-1 4 4 13q3 2 6 1t5 -2zM412 318q10 -12 13.5 -27t3.5 -32q-1 -12 -3 -23.5t-7 -22.5q-6 -11 -15 -21t-23 -12 q-16 -3 -33 8q-4 4 -7 7.5t-6 7.5q-6 13 -11 26t-11 26q-5 8 -10 17.5t-10 18.5q-6 11 3 22q7 7 18 4q5 -3 8 -8.5t5 -11.5q2 -4 3 -7.5t5 -6.5q6 -7 16 -7q3 0 5 2l4 4q1 2 2.5 4.5t0.5 4.5q2 7 -3 11.5t-5 10.5q-1 5 2 9t7 7q5 4 14 4q5 0 15 -2q5 -2 9.5 -5.5t9.5 -7.5z M308 278v1h-2zM209 134l3 -6q3 -11 -6 -18q-5 -5 -12 -2q-9 3 -11 14q1 2 0 3.5t1 2.5q0 6 7 10q9 5 18 -4zM140 66q-5 4 -9 6q-9 3 -15.5 -4t-6.5 -13q0 -3 2 -9q3 -6 8.5 -7t11.5 -2q9 5 10 8q2 5 2.5 11t-3.5 10z" />
<glyph unicode="1" horiz-adv-x="369" d="M203 690q11 -5 21 -10.5t22 -9.5q7 -2 13 -0.5t13 3.5q8 5 15 11.5t16 10.5q2 1 9 1q5 0 9 -4l4 -7v-12q-5 -8 -13 -12.5t-12 -13.5q-4 -3 -3 -10q4 -6 8 -11.5t8 -10.5q16 -23 19 -51.5t1 -57.5q-2 -16 -5 -32.5t-8 -31.5q-3 -11 -4.5 -22.5t3.5 -22.5q3 -11 7.5 -21 t6.5 -21q3 -12 2 -25t-3 -24q-3 -10 -4 -19.5t-3 -20.5q0 -4 -0.5 -7.5t0.5 -8.5q0 -9 1 -18.5t3 -17.5q5 -21 7.5 -43.5t-0.5 -44.5q-2 -27 -12 -48q-13 -39 -52 -64q-2 -1 -4 -1.5t-4 -1.5q-1 -2 -2 -1.5t-3 -0.5l-12 -4t-13 -3q-11 -2 -21 -1.5t-21 2.5q-8 2 -14.5 4.5 t-14.5 4.5q-2 2 -5 3.5l-7 3.5q-12 7 -23.5 13.5t-24.5 11.5q-15 5 -32 9t-28 20q-11 19 -11 44v13q0 8 1 11q2 14 4 27.5t4 27.5q4 26 0 52.5t-6 53.5q-6 35 0 71q5 22 9 44t7 45q2 11 0 22v3q0 14 -2.5 28.5t-6.5 27.5q-3 6 -4 12.5t-2 12.5q-3 24 4.5 46t21.5 41 q9 11 19.5 18.5t21.5 13.5q8 3 14.5 5.5t14.5 4.5l15 2q18 2 27 -1q16 -1 29 -8zM269 602q-3 8 -13 8q-5 -1 -10 -6q-2 -11 -1 -12q4 -7 13 -7q2 -2 4.5 0t4.5 3q6 8 2 14zM100 238q-4 5 -12 7q-4 -1 -8 -7q-2 -5 -1.5 -11t-1.5 -11q-1 -7 -4 -14.5t2 -13.5q3 -5 9 -5 q5 0 9.5 4.5t6.5 9.5q4 10 4.5 20.5t-4.5 20.5zM86 34q2 -4 1.5 -8.5t-1.5 -8.5q-4 -10 -18 -8q-5 -2 -9 3q-7 4 -7 14q1 13 13 16q4 2 7 1t8 -2z" />
<glyph unicode="2" horiz-adv-x="619" d="M577 556q-12 27 -31.5 52.5t-46.5 43.5q-39 22 -85.5 34t-94.5 13t-95 -9.5t-86 -32.5q-11 -6 -17.5 -2t-11.5 11t-11 14.5t-15 8.5q-7 0 -9.5 -4.5t-6.5 -9.5q24 -19 22.5 -34t-13.5 -29.5t-27 -28.5t-18 -32q-3 -17 -1.5 -35t12.5 -31q31 -14 53 -43t25 -62 q6 -11 18 -19.5t28 -3.5q11 3 15.5 10.5t7.5 16.5l6 18t11 15q10 4 20 1.5t17 -10.5q11 -21 0 -41q-23 -18 -40.5 -38.5t-33 -41.5t-31.5 -42.5t-34 -40.5q-7 -5 -15.5 -2.5t-16.5 2.5q-4 0 -9 -5q-3 -5 -3 -11t7 -9q21 -7 27.5 -15t4.5 -18t-9 -20.5t-13.5 -22.5t-8 -24.5 t7.5 -25.5q19 -24 46.5 -35.5t58.5 -15t63 -0.5t61 8q54 -12 112 -8t103 30q6 -3 11 -8.5t11 -11t12.5 -8t15.5 0.5q12 8 9 20q-6 15 -24 17q-8 3 -12.5 10.5t-1.5 16.5q9 16 12.5 36.5t-3.5 39.5q-9 19 -20.5 24t-23.5 3.5t-25 -7.5t-26 -10t-25.5 -2t-23.5 15 q-12 24 -10 40t12.5 26.5t27.5 18.5t34.5 15.5t33.5 17t25 23.5q23 24 39 54t22.5 63t3.5 66.5t-17 63.5zM163 624q4 -9 -2.5 -15.5t-13.5 -11.5q-8 -2 -14 2t-11 10q0 8 1 16t9 13q10 2 19 -1.5t12 -12.5zM104 396q-6 9 -15.5 21.5t-23.5 8.5q-9 -8 -6.5 -17.5t6.5 -17.5 q5 -10 14.5 -19t22.5 -8q10 6 6 15t-4 17zM378 192q-2 -8 -3 -16t-10 -13q-6 1 -14 0t-7 9q-2 11 3 20t15 12q5 -3 11.5 -3.5t4.5 -8.5zM525 67q0 -5 -1 -10t-6 -9q-7 2 -14.5 0.5t-11.5 6.5q0 7 1 14t9 9q7 1 14.5 -0.5t8.5 -10.5z" />
<glyph unicode="3" horiz-adv-x="566" d="M442 632q-14 30 -38.5 44.5t-54.5 19.5t-62.5 2.5t-61.5 -6.5q-18 -6 -37 -5t-37.5 2.5t-36 0t-33.5 -12.5q-23 -14 -38 -36.5t-21 -47.5q-8 -30 -0.5 -54.5t20 -47t25.5 -45t16 -49.5q5 -12 16.5 -18.5t22.5 -10.5q18 2 36.5 7.5t36.5 8.5t35 0t34 -18q1 -7 1.5 -13.5 t0.5 -14.5q0 -14 -14 -22q-8 -9 -19 -10.5t-23 -2t-23 -3t-18 -13.5q-6 -20 1.5 -26.5t19.5 -8.5t25.5 -5t19.5 -16q5 -30 -18 -41q-15 -8 -31.5 -7.5t-32.5 4.5q-11 7 -21 17t-8 24q-2 9 -9 17t-18 6q-11 -7 -11.5 -15t3.5 -16.5t9 -17.5t6 -17q-17 -11 -38 -19.5 t-32 -27.5q-2 -13 -3 -25t7 -23q39 -46 91 -65t110 -22q26 -4 47.5 2.5t41.5 15.5t40.5 17t44.5 7q28 8 51 31.5t32 50.5q7 24 4 50t-15 47q-4 9 -12 16t-15 13.5t-11 15t0 20.5q39 45 65 100q10 23 15 50t4.5 54t-8 53t-22.5 47q-5 12 -2 21.5t9.5 18.5t14.5 17t14 16 q2 8 -1 16t-10 13q-16 1 -23 -6.5t-11 -18.5t-8 -22.5t-15 -17.5q-5 -5 -13.5 -4.5t-13.5 6.5zM431 616q2 -5 -1 -9.5t-8 -6.5q-8 0 -14 7q-2 13 9 18q4 -2 7.5 -3.5t6.5 -5.5zM74 366q-1 14 -9 27t-22 18q-7 -3 -8.5 -8t-1 -10t2.5 -11t2 -10q7 -6 12 -16t18 -8q9 7 6 18z M433 285q3 -23 -13 -32q-2 1 -5 1.5t-5.5 1.5t-4.5 2.5t-1 5.5q-2 11 1.5 18t9.5 14q8 2 11 -2t7 -9z" />
<glyph unicode="4" horiz-adv-x="697" d="M458 697q-17 -5 -29 -5q-21 0 -42.5 4.5t-44.5 2.5q-31 -11 -58 -32.5t-48 -48.5t-36 -58t-22 -62q-5 -10 -12.5 -19t-14.5 -18t-11 -19.5t-2 -22.5q-1 -8 -5 -12.5t-10 -6.5t-13 -2.5t-13 -1.5q-13 -4 -16.5 -12t-2.5 -18.5t2.5 -21t-2.5 -19.5q-16 -15 -32.5 -31 t-20.5 -37q-14 -60 32 -100q19 -12 41.5 -17.5t46.5 -0.5q18 15 38.5 19.5t42.5 4.5t44.5 -0.5t43.5 4.5q21 -12 19.5 -23.5t-10 -23.5t-18 -25t-5.5 -28q3 -14 8.5 -27t17.5 -23q15 -16 31 -16t32 4t32.5 6.5t33.5 -6.5q16 -2 33.5 -3.5t34 0t31.5 8t26 20.5q11 12 14.5 26 t2.5 28.5t-4.5 29t-7.5 27.5q10 14 27 15t31 7q17 11 26 27t11 35q-3 14 -7 26.5t-18 21.5q-22 14 -47.5 9t-48.5 -9q-8 4 -16.5 12.5t-3.5 20.5q6 14 18 12t23 -3q16 6 19.5 20.5t3.5 28.5v20q-15 24 -13 47.5t9 46.5t12.5 47.5t-3.5 51.5q-4 16 -14.5 27.5t-24.5 20.5 q-9 15 1.5 26.5t21.5 19.5q2 5 2.5 12.5t-7.5 10.5q-17 9 -26 3.5t-15.5 -15.5t-14 -18.5t-22.5 -5.5q-5 2 -6 6t-3 7q-11 28 -42 26zM497 620q2 -7 -2 -12.5t-10 -7.5t-10.5 1.5t-7 8t-3 9.5t2.5 8q7 7 18.5 5.5t11.5 -12.5zM319 424q3 -11 -3 -16t-13 -8q-11 0 -15 10 t1 19q5 4 16.5 5t13.5 -10zM316 364q-3 -9 -2 -19.5t1.5 -20t-2.5 -17.5t-15 -13q-6 -1 -12.5 -1.5t-14.5 -0.5q-15 0 -21 14q-2 14 1 27t15 21q8 13 24 18.5t26 -8.5zM643 313q-8 12 -19 16q-5 -2 -12 -7.5t-4 -13.5q2 -7 8.5 -10.5t14.5 -1.5q4 4 7.5 8t4.5 9z" />
<glyph unicode="5" horiz-adv-x="592" d="M444 695q-28 -6 -55.5 -5t-55.5 4t-56.5 5t-58.5 -2q-24 -3 -47.5 -6.5t-45 -11t-39.5 -21t-30 -35.5q-7 -34 23 -61q8 -17 3 -22t-15.5 -5.5t-23 0t-18.5 -6.5q-3 -15 3.5 -21.5t16.5 -9.5t21.5 -5.5t19.5 -9.5q10 -20 11 -40t-2.5 -39.5t-8.5 -39t-7.5 -38.5t0.5 -38 t16 -38q14 -14 28 -14q10 -1 21 2t22 7.5t22.5 7.5t22.5 2q24 -8 35 -31q7 -19 -0.5 -36t-20.5 -31q-17 -17 -33 -15.5t-31.5 8t-31.5 13t-34 -0.5q-26 -17 -26 -47q5 -27 25.5 -50t44.5 -36q28 -14 61.5 -21t68 -6.5t67.5 9.5t59 27q13 9 21 5.5t14.5 -12t13.5 -17t18 -8.5 q11 5 11.5 16.5t-1.5 20.5q24 20 46 46t30 57q5 33 -1 64t-31 54q-19 22 -45 27.5t-54 5.5h-36q-13 5 -19.5 16.5t-1.5 24.5q11 24 30 32.5t40.5 9t44.5 -2.5t43 -1q19 7 29.5 23.5t12.5 36.5q7 24 -4 42.5t-25 35.5t-22.5 34.5t4.5 40.5q7 22 4 46t-20 40q-12 9 -25.5 13.5 t-27.5 7.5zM560 679q-2 8 -9 12.5t-14 5.5q-8 -2 -12.5 -8t-1.5 -15q4 -7 10.5 -12.5t14.5 -3.5q4 5 9.5 9t2.5 12zM127 553q0 -3 0.5 -8t-0.5 -9t-3 -6.5t-8 -1.5q-6 -3 -9 2t-7 7q-3 8 -2.5 18.5t9.5 16.5q7 1 12.5 -5.5t7.5 -13.5zM360 409q5 -8 0.5 -16t-12.5 -11 q-2 -2 -3 0.5t-3 3.5q-3 9 2 18.5t16 4.5z" />
<glyph unicode="6" horiz-adv-x="616" d="M536 622q2 -16 -2 -30t-9.5 -27.5t-9 -27.5t-0.5 -30q2 -21 6 -45t-6 -44q-10 -19 -28 -26.5t-38.5 -10t-40.5 -3t-35.5 -6.5t-23 -20.5t-2.5 -43.5q13 -11 26 -11.5t27 2.5l28 6t29 0q37 -4 70 -25.5t49 -57.5q14 -34 8.5 -73t-28.5 -66q-17 -25 -38.5 -41t-46.5 -25.5 t-52.5 -13t-55.5 -3.5q-37 5 -73 12t-67 27q-8 2 -14.5 0.5l-13 -3t-13 -2t-12.5 4.5q-9 3 -9.5 11.5l-1 17t-4 13.5t-17.5 2q-11 -9 -18 -19t-13.5 -20.5t-14 -20.5t-18.5 -19q-9 1 -18 7.5t-9 15.5q0 20 13.5 33t27.5 25t24.5 25.5t4.5 34.5q-20 22 -37.5 46t-29.5 50.5 t-17 54.5t0 60l30 69q-6 24 -2.5 44.5t11 39.5t15.5 37.5t12 38.5q11 15 27.5 19.5t32.5 10.5q33 27 72.5 47.5t82 30.5t86.5 6t85 -25q17 -8 29 -22.5t22 -29.5zM88 638q2 -8 -2 -14.5t-9 -10.5q-5 -3 -10.5 -2.5t-10.5 0.5q-10 5 -13.5 15.5t4.5 18.5q7 11 21.5 9 t19.5 -16zM503 599q1 9 -7 9h-13l-3 -18q2 -5 6 -8t10 -1q8 0 7 6.5t0 11.5zM395 221q-8 11 -18 14.5t-21 5.5q-9 1 -15.5 -5t-11.5 -11q-3 -10 -2 -20.5t8 -18.5q10 -5 20 -8t22 -1q12 5 18 17.5t0 26.5zM193 115q-3 6 -8 6.5t-10 2.5q-7 0 -5 -5t0 -9q4 -5 10 -9.5t13 0.5 v14z" />
<glyph unicode="7" horiz-adv-x="588" d="M347 662q-29 -5 -52.5 2t-46 16.5t-46 16t-52.5 0.5q-32 -6 -59.5 -26.5t-45.5 -49.5q-13 -23 -15 -48.5t3.5 -50t17 -48t25.5 -42.5q3 -9 4 -18.5t2.5 -19t6 -17.5t14.5 -14q23 -12 47 0q13 -5 24 -2t21.5 8.5t21.5 11t23 5.5q10 -3 16 -12t3 -20q-4 -14 -15 -18.5 t-20 -12.5q-25 -20 -23 -53q-5 -15 -19 -16t-25 2q-8 -2 -10 -9.5t-4 -13.5q17 -23 13 -41t-15 -35t-22 -34.5t-8 -38.5q0 -16 4.5 -30t15.5 -26q20 -25 43.5 -26.5t48 3.5t50 8.5t49.5 -10.5q14 1 26 9.5t20 20.5q10 20 11.5 45t-4.5 48q-1 17 7.5 30.5t19.5 25.5 t20.5 24.5t10.5 28.5q6 10 3 19t-9.5 17t-13.5 16t-8 18q10 15 21.5 14.5t24 -6.5t25.5 -13t27 -5q6 3 10 8.5t3 12.5q-5 9 -14.5 11.5t-19.5 4.5q-17 8 -21.5 24t0.5 32q32 49 60.5 99t39.5 108q-3 26 -16.5 50t-39.5 36q-20 13 -39.5 11.5t-39 -8.5t-39 -14.5t-40.5 -7.5z M71 386q-6 11 -10.5 23.5t-17.5 20.5q-5 6 -13 4.5t-12 -9.5q-2 -6 0 -11.5t2 -11.5q5 -12 15 -26.5t27 -14.5q7 4 8 10.5t1 14.5zM484 230q-3 9 -11.5 12.5t-16.5 3.5q-5 -1 -7.5 -6t-3.5 -10q4 -16 20 -16q10 -4 14 2.5t5 13.5z" />
<glyph unicode="8" horiz-adv-x="693" d="M549 620l-39 37q-39 26 -87.5 35.5t-99 6.5t-99 -16t-87.5 -33q-44 -36 -76.5 -81t-35.5 -101q1 -45 17 -82t51 -66q11 -15 9 -28t-9.5 -25t-16 -24t-10.5 -25q-3 -15 -1 -29t6 -27.5t7 -27t2 -28.5q-2 -14 -12 -24.5t-20.5 -20t-19 -20t-7.5 -24.5q5 -8 13 -13t19 -3 q8 3 11.5 8t5 11t3 12.5t5.5 11.5q4 6 8 14t9.5 15t12.5 10.5t18 -0.5q12 -10 13 -25q7 -14 21 -23.5t29 -13.5q38 -5 78 -10.5t80 -7.5t79 2t75 19q23 12 45 28.5t39 37.5t26.5 46t7.5 54q0 15 -8 26.5t-17.5 22t-17 22.5t-5.5 27q12 13 27 25.5t29 26t24.5 29t13.5 35.5 q7 28 3 57t-19 52q-14 23 -33.5 32.5t-39.5 20.5q-3 13 3 18.5t14.5 10t15.5 10t6 18.5q-7 12 -14.5 11.5t-16 -4.5t-17.5 -8.5t-18 -1.5zM656 670q-4 12 -17.5 14.5t-19.5 -11.5q1 -4 0.5 -8t1.5 -6q2 -8 8.5 -9t12.5 -2q6 3 11 8.5t3 13.5zM137 605q1 -5 1.5 -11t0.5 -12 q0 -12 -13 -16q-6 -1 -11.5 2t-4.5 9q-2 12 5.5 23.5t21.5 4.5zM385 352q7 -9 8.5 -22t-1.5 -24q-9 -16 -26 -19t-34 1q-11 3 -20 12.5t-14 19.5q-8 25 10 43q16 15 40 11t37 -22zM556 304q-2 -9 -5 -16.5t-11 -13.5q-5 2 -10.5 0.5t-8.5 4.5q-4 13 3 22.5t18 14.5 q5 -2 9.5 -4t4.5 -8zM378 240q8 -11 14 -22.5t0 -25.5q-5 -9 -12.5 -17.5t-19.5 -9.5q-32 -2 -52 18q-8 11 -12.5 23t0.5 25q2 8 9.5 14.5t15.5 8.5q34 3 57 -14z" />
<glyph unicode="9" horiz-adv-x="663" d="M505 613q-23 14 -46 31t-49 26q-27 13 -59 21t-65 8.5t-64 -9t-55 -31.5q-7 -26 -23.5 -43.5t-35.5 -33.5t-37 -32.5t-27 -39.5q-11 -29 -11.5 -58t6 -57.5t19.5 -54.5t29 -49q21 -24 48 -38.5t57 -21t61 -5t61 9.5q11 -4 17.5 -14.5t2.5 -24.5q-5 -9 -13.5 -13t-18.5 -5 q-29 14 -62.5 8.5t-58.5 -21.5q-8 0 -14.5 7t-14.5 7q-6 0 -10 -7q-6 -6 -4.5 -10.5t0.5 -12.5q15 -11 16 -28.5t7 -33.5q24 -48 69.5 -68.5t99.5 -18.5q23 -3 42 4.5t37 18t36.5 19.5t41.5 8q9 4 11 10.5t1.5 13.5t-0.5 14t6 13q11 0 19 -5.5t16 -13.5q12 -7 20.5 -18.5 t17.5 -22.5t19.5 -19t26.5 -8q15 5 12 22q-10 11 -23.5 21t-26 20.5t-23 23t-14.5 27.5q-5 15 0 26t14 21.5t18 20t13 21.5q21 35 27 76t1 82.5t-20 80.5t-37 70q-3 7 -2.5 14t2 14t2.5 14t-2 14q-7 20 -24.5 24.5t-35.5 5.5zM601 627q0 7 -5 10.5t-10.5 2.5t-9.5 -5t-2 -11 q4 -4 7 -10.5t11 -4.5q8 -1 9 5.5t0 12.5zM174 583q-3 -8 -12 -12t-18 1q-5 11 1.5 21t17.5 11q10 2 13 -5.5t-2 -15.5zM318 355q1 -14 5 -26t18 -19q5 -4 14 -4t9 -10q2 -7 -1.5 -13t-10.5 -6q-8 0 -14.5 3.5t-13 6.5t-13.5 4.5t-16 -2.5q-13 -4 -26.5 -2t-23.5 13 q-7 11 -10.5 23t1.5 25q4 11 13.5 18.5t20.5 9.5q15 1 28 -3t20 -18zM492 120q-2 -5 -4.5 -11t-9.5 -5h-8q-4 0 -6 5q2 6 3.5 12t8.5 10q6 3 11 -1.5t5 -9.5zM115 122q-3 4 -7.5 2.5t-6.5 2.5q-13 -1 -18 -14q-5 -11 -1 -21.5t15 -17.5q19 -5 30 12q5 10 0.5 19.5 t-12.5 16.5z" />
<glyph unicode=":" horiz-adv-x="278" d="M242 319q6 -11 3 -24t-7 -24q-14 -24 -37 -38.5t-49 -20.5q-24 -4 -47.5 -1t-43.5 14q-13 11 -21 23t-8 27q2 23 17 42t35 30q18 10 40.5 13.5t44.5 0.5t41.5 -13t31.5 -29zM228 126q7 -18 0 -32.5t-20 -26.5t-28.5 -23.5t-24.5 -24.5q-20 -18 -47 -19t-50 10 q-28 17 -30 51q0 26 18 47.5t41 35.5q15 9 35 15t40 5t37.5 -9.5t28.5 -28.5zM235 40q-2 -11 -8 -22t-17 -13q-6 2 -10.5 3t-7.5 6q-4 14 3.5 22.5t17.5 14.5q16 2 22 -11z" />
<glyph unicode=";" horiz-adv-x="304" d="M241 325q11 -12 14 -28t2 -30q-9 -22 -30 -37t-44 -18q-29 -4 -57.5 3.5t-54.5 18.5q-6 -1 -10.5 -5t-9 -7.5t-10 -4.5t-11.5 4q-10 12 -7 22t10 20.5t13 22t1 25.5q11 23 31.5 34.5t43.5 16.5q35 5 65 -5t54 -32zM268 104q8 -24 6 -46.5t-10.5 -43t-22 -39.5t-29.5 -35 q-11 -8 -21 -16t-25 -6q-10 0 -20.5 5t-15.5 17q-2 9 2 16.5t8.5 14.5t5.5 14t-8 15q-25 4 -48 14t-34 36q-7 19 0 35t18 30q27 26 64.5 34t73.5 -1q15 -8 31.5 -17.5t24.5 -26.5z" />
<glyph unicode="?" horiz-adv-x="558" d="M413 655q7 -9 15.5 -18t22.5 -4q8 7 13.5 15.5t10.5 17.5q9 11 18 15q3 2 7 2.5t9 1.5q14 -2 18 -13q3 -10 -1 -18t-10 -14q-5 -5 -12 -8t-10 -11q-8 -16 -3.5 -33.5t12.5 -31.5q7 -11 13 -22t11 -24q11 -40 4.5 -83.5t-31.5 -75.5q-10 -13 -21 -25t-26 -20 q-21 -14 -48 -19.5t-53 -0.5q-10 -2 -13 -11q-1 -10 4.5 -17t12.5 -12q5 -5 4.5 -11t-1.5 -12q-2 -8 -7.5 -11t-12.5 -4t-15 -1.5t-14 -2.5q-8 -3 -16.5 -6t-16.5 -7q-17 -6 -36.5 -7t-36.5 7q-13 4 -23 12t-15 21q-1 2 -1 4q0 3 -1 5q-2 20 12 35t29 23q16 5 32 12.5 t19 27.5q2 11 -3 20.5t-13 15.5q-12 11 -30 13t-34 -3q-4 -2 -7.5 -3t-6.5 -4q-5 -2 -8.5 -5t-7.5 -5q-11 -6 -22 -13.5t-24 -9.5q-13 -4 -26 -1.5t-24 9.5q-12 12 -11 26q2 12 9.5 20t16.5 16q4 8 3.5 15t-2.5 15q-2 2 -1.5 5t-1.5 6t-3.5 7.5t-3.5 7.5q-2 5 -5 10.5 t-5 10.5q-9 18 -14 40.5t-4.5 45.5t6.5 44.5t20 37.5q26 31 69 28q14 -2 27 -4t26 3q12 3 22.5 8t22.5 7q45 9 92.5 3.5t83.5 -30.5zM425 605q-6 9 -14 8q-5 -1 -8.5 -4t-5.5 -7q-5 -8 1 -14q2 -4 10 -6q4 2 7.5 3t6.5 4q3 4 3 8v8zM367 127q11 -23 4.5 -47.5t-21.5 -43.5 q-23 -23 -57.5 -32.5t-65.5 3.5q-11 4 -20 9l-18 10q-2 0 -3.5 1t-3.5 2q-7 1 -14.5 2.5t-13.5 -3.5q-5 -19 -22 -21t-25 11t0 28q5 7 15 10q17 2 25 13q13 34 37 62q12 15 27.5 26.5t34.5 16.5q31 10 62.5 1t50.5 -34z" />
<glyph unicode="A" horiz-adv-x="784" d="M450 695l-20 4q-2 0 -4 0.5t-5 0.5h-18q-7 0 -17 -2q-14 -3 -27 -7t-25 -10q-12 -7 -22 -17t-23 -16q-6 -2 -11 0t-10 6q-11 8 -18.5 19.5t-19.5 19.5q-11 7 -22 -1q-5 -3 -5.5 -9t0.5 -12q2 -5 5 -8t6 -7q8 -5 15 -9.5t14 -11.5q2 -4 5 -7t4 -8q0 -7 -3 -11.5t-8 -9.5 q-7 -5 -12.5 -11.5t-6.5 -15.5q0 -23 -7 -37q-6 -20 -18 -36.5t-22 -33.5q-11 -17 -20.5 -35t-14.5 -38q-5 -19 -10 -37t-13 -35q-12 -26 -28.5 -51t-33.5 -48q-18 -26 -27 -54q-4 -8 -4.5 -16t-2.5 -16q-3 -23 3.5 -44t16.5 -40q5 -7 10 -13.5t11 -12.5q22 -19 49 -23 q13 -2 27 -2t26 4q15 5 28.5 15t20.5 25q2 3 3 6.5t4 5.5l21 48l13 18q8 9 19 13.5t23 7.5q14 2 26.5 0t25.5 -2q17 -1 32.5 1t31.5 6t33 -7q15 -10 16 -26q0 -19 -3 -35q-3 -14 -0.5 -28.5t9.5 -25.5q11 -14 25 -20q9 -4 21 -4q7 -2 14 -0.5t13.5 3.5l13 4t14.5 1l41 -6 q20 -3 40 -1.5t37 10.5q19 6 35 20t27 31q5 8 8 17t5 18q5 21 -0.5 40.5t-15.5 36.5q-4 7 -9 13t-10 13q-4 3 -6.5 6.5t-5.5 6.5q-5 5 -10.5 10t-10.5 11q-5 5 -8 11.5t-7 12.5q-8 20 -13 39.5t-10 40.5q-9 40 -25 77t-38 72q-7 9 -12.5 19t-11.5 20q-5 12 -5.5 25t-2.5 27 q-5 20 -13.5 38t-23.5 33q-14 17 -33.5 27t-39.5 17zM209 598l-9 5q-9 6 -22 2q-5 -3 -6 -9v-2q2 -6 5.5 -9t8.5 -6q14 -5 24 0l2 2q0 2 2 4q2 5 -5 13zM289 588q8 -8 5 -18q-1 -7 -5 -14t-11 -10q-2 -1 -5 -2t-6 1q-4 0 -5.5 3.5t-3.5 5.5q-2 3 -1 5.5t-1 5.5q0 6 6 14 q5 9 16 11q5 0 11 -2zM633 558q2 -3 2.5 -6t2.5 -6q1 -6 1 -14t-1.5 -15.5t-5.5 -13t-12 -6.5q-9 0 -14 8q-11 14 -9 31q-2 10 2 16q1 5 3.5 8t5.5 6q4 2 9.5 3.5t9.5 -3.5q2 -1 3 -3.5t3 -4.5zM376 314q1 -2 -2 -5q-6 0 -12 2l-3.5 3.5t-0.5 4.5q2 2 3 2q2 0 3 1 q4 -2 7 -2.5t5 -5.5zM377 266q3 -4 5.5 -7t3.5 -8q5 -12 -4 -24q-11 -15 -33 -23q-16 -4 -34 -1.5t-29 15.5q-1 2 -3 4t-2 4q-1 1 -1 6q-3 11 3.5 20.5t15.5 14.5q1 0 1 1t2 1q16 9 38 9t37 -12zM237 42l-2 1q-3 1 -6 0t-6 -1q-8 -4 -13 -18q-3 -9 4 -18q3 -4 7 -4q5 0 8 -1 q3 2 6.5 2.5t5.5 2.5q8 8 8 20q-3 11 -12 16z" />
<glyph unicode="B" horiz-adv-x="731" d="M507 698q11 -2 22 -3.5t21 -5.5q36 -11 63 -31q3 -1 5 -3t4 -3q25 -20 44 -45.5t30 -55.5q10 -28 13 -59.5t-3 -62.5q-5 -22 -12.5 -42t-19.5 -39q-10 -14 -21 -28t-17 -30q-3 -6 -1.5 -12.5t1.5 -12.5q4 -9 10 -14q19 -14 34 -31t23 -40q2 -8 2 -13q2 -8 2 -18 q0 -9 -1 -18q-7 -28 -20.5 -53t-38.5 -43q-8 -5 -16.5 -9.5t-18.5 -7.5q-5 -2 -9 -3t-9 -3q-35 -9 -69 -5q-10 2 -19.5 3.5t-18.5 5.5q-8 3 -16.5 4t-16.5 3q-5 -1 -8.5 0t-8.5 1q-9 -1 -18 -1.5t-18 -2.5q-40 -14 -90 -16q-16 -1 -32 0t-30 5q-13 1 -25 6q-12 4 -22.5 8.5 t-21.5 9.5q-10 5 -19 8t-20 4h-13q-6 0 -11 -3q-6 -6 -12 -13.5t-12.5 -14t-14.5 -11t-18 -3.5l-12 2q-5 3 -11 6.5t-9 10.5q-8 11 -8 26q0 16 7 28q8 14 14 27.5t8 30.5q-2 17 -7 32t-7 32q-2 12 -2.5 23.5t1.5 22.5q2 13 5 25t5 26q1 26 -3 51.5t-9 50.5q-2 15 -3.5 29 t-2.5 28q-2 15 -2.5 31.5t0.5 32.5q2 13 2.5 26t5.5 25q3 12 12.5 21t20.5 14q2 4 3.5 8t-0.5 9q-2 4 -4.5 7t-4.5 7q-5 4 -10.5 8t-10 9t-6.5 10.5t0 13.5q1 5 6 7.5t10 3.5q6 0 10 -3.5t7 -8.5q3 -1 2.5 -3.5t2.5 -3.5q5 -9 12 -13q3 -4 9 -2q2 -1 3.5 0.5t3.5 2.5 q4 7 0 12.5t-5 11.5q-1 4 -1.5 8t2.5 7q2 3 5 4l6 2q11 2 18 -5t15 -9l13 -1l52 12q8 1 16.5 2t17.5 0q23 0 44.5 -4.5t43.5 -8.5q8 -1 17.5 -0.5t17.5 1.5q3 2 7 1t7 1q12 2 23.5 4t24.5 4q5 0 9 0.5t9 1.5q5 2 11 1.5t11 1.5h22q12 0 23 -2zM681 688q2 -5 2.5 -9t-1.5 -9 q-5 -9 -14 -10q-8 -1 -16 3q-2 2 -4.5 4t-3.5 4q-2 3 -2 6t-1 5q0 5 6 11q3 2 5.5 3.5t6.5 2.5q6 0 12.5 -2.5t9.5 -8.5zM130 632q0 2 -6 6q-2 -1 -6 -1q-6 -4 -6 -9q2 -7 9 -7q4 -1 7 2t2 9zM384 335q-8 14 -27 14q-6 -1 -11.5 -3t-8.5 -7q-4 -3 -5.5 -7.5t-2.5 -8.5 q2 -16 11 -24q6 -2 12 -6q11 -2 20 3q5 2 8.5 6t6.5 8q2 6 1.5 13t-4.5 12zM604 300q-2 4 -5 5q-2 2 -3.5 -0.5t-3.5 -3.5q-2 -3 -4.5 -6t-0.5 -7q-2 -9 4 -15q5 -2 8 2q10 10 5 25zM387 255q-6 5 -13.5 6.5t-15.5 1.5t-15 -4t-13 -9q-8 -9 -10.5 -21t2.5 -23q5 -16 21 -24 q22 -10 42 3q12 8 17.5 20t2.5 26q0 1 -1 1.5t0 1.5q-5 10 -12 17q-2 1 -2.5 2.5t-2.5 1.5z" />
<glyph unicode="C" horiz-adv-x="639" d="M376 699q8 1 14.5 -0.5t14.5 -0.5l1 -1q18 -2 35.5 -5.5t34.5 -11.5q10 -4 18 -10t15 -14q11 -15 14 -29v-1q-1 -8 2 -16.5t11 -13.5q4 -2 14 -4q5 -2 9.5 -3.5t9.5 -5.5q28 -20 42 -50q17 -35 7 -75q0 -5 -2 -8.5t-3 -8.5q-5 -12 -12.5 -22t-15.5 -20q-20 -20 -46 -27.5 t-55 -8.5q-15 -1 -30 1.5t-29 0.5q-10 -2 -18.5 -7.5t-16.5 -11.5q-6 -4 -13 -3l-14 2t-12.5 -0.5t-9.5 -8.5q-2 -6 0 -12t6 -11q5 -5 10 -9.5t9 -10.5q3 -6 2 -13t-5 -12q-7 -9 -16.5 -13t-15.5 -15q-5 -8 -5 -18t4 -18q8 -15 25 -19t34 -1q8 2 17 2q10 0 19 -1 q11 -1 19 -5.5t16 -11.5q5 -4 10.5 -6t11.5 1q11 4 19.5 13t17.5 17q7 5 16 7q13 -2 17 -11q3 -5 1.5 -11t-5.5 -10q-7 -8 -15.5 -11t-16.5 -9q-6 -5 -8.5 -12t-3.5 -14q2 -11 3.5 -22t-0.5 -23q-3 -10 -9 -19.5t-15 -15.5q-5 -4 -11.5 -7t-11.5 -7q-2 -2 -3.5 -2.5 t-3.5 -1.5q-2 -2 -5 -2.5t-5 -2.5q-5 -1 -13 -5q-9 -3 -18 -5.5t-20 -4.5t-23 -3.5t-24 -0.5q-28 1 -53.5 7t-48.5 17q-1 1 -2.5 1.5t-2.5 1.5q-8 5 -16.5 9.5t-17.5 7.5q-11 5 -24 -2q-5 -4 -10 -6.5t-12 -0.5q-5 1 -6.5 4.5t-3.5 7.5q-1 11 6.5 17.5t8.5 17.5 q-1 3 -3.5 5.5l-4.5 4.5q-5 2 -10.5 0.5t-10.5 -3.5q-14 -5 -23 -16t-18 -21q-7 -8 -12.5 -16.5t-12.5 -17.5q-5 -5 -11.5 -10.5t-15.5 -3.5q-5 0 -8.5 3.5t-5.5 7.5q-2 5 -0.5 10.5t4.5 9.5q14 20 33 32.5t31 32.5q4 6 8.5 12t5.5 14q0 8 -2 15.5t-8 12.5q-8 9 -15.5 18 t-15.5 19l-9 13q-4 4 -5.5 8.5t-4.5 8.5q-8 13 -13.5 27t-9.5 28q-7 25 -8 45q0 23 5.5 44t15.5 40q3 8 5.5 16.5t4.5 17.5q3 17 2.5 35.5t6.5 34.5q5 14 12 28.5t12 29.5q1 10 1 20t8 18q9 9 21 8q22 -2 38 10.5t33 22.5q25 14 50.5 25.5t53.5 17.5q15 4 30.5 6t31.5 4 l17 1q3 -2 5.5 -1t4.5 0zM76 643q3 -5 3 -12q0 -6 -5 -11q-9 -12 -22 -9q-16 4 -18 19q0 5 0.5 9t4.5 8q3 4 8 5t10 3q12 0 19 -12zM493 589q-2 6 -7.5 9.5t-12.5 4.5q-7 0 -9 -7q-2 -5 0.5 -9t5.5 -7q8 -6 13 -5q2 -2 3 -1t3 1q6 4 4 14zM327 302q0 1 -1 1t0 1q-9 8 -20 4 q-5 -3 -6 -7.5t-1 -9.5q1 -3 2.5 -5t3.5 -4q3 -1 6 -2.5t6 0.5q7 2 8 5l2 1q0 1 2 2q2 4 1 7.5t-3 6.5zM183 124q-2 4 -5.5 5t-8.5 2q-2 -2 -4.5 -2.5t-4.5 -2.5q0 -3 -2 -5t0 -5q2 -8 10 -11q10 0 14 7q3 4 1 12zM574 120q5 -8 5 -16v-2l-1 -10q-2 -11 -9.5 -20.5 t-18.5 -12.5q-4 0 -7.5 -0.5t-8.5 1.5l-7 5q-7 9 -6.5 20.5t5.5 21.5q2 2 3 3.5t3 3.5q7 9 20.5 13t21.5 -7z" />
<glyph unicode="D" horiz-adv-x="731" d="M428 691q24 -4 46 -13.5t44 -19.5q35 -20 67.5 -47t58.5 -58q5 -5 10.5 -10t13.5 -6q6 -1 12 1.5t12 0.5q10 -5 14 -13q3 -8 0.5 -13.5t-6.5 -11t-8.5 -10.5t-4.5 -12q-2 -21 2 -41.5t6 -42.5q2 -14 3.5 -28.5t1.5 -29.5q1 -6 0.5 -13t-0.5 -14q-2 -23 -8 -44.5 t-14 -42.5q-21 -46 -59 -79q-4 -2 -6 -5.5t-6 -5.5q-11 -14 -20.5 -29.5t-23.5 -27.5q-8 -8 -17 -14q-8 -5 -15 -8.5l-15 -7.5l-14 -4l-14 -4q-11 -3 -21 -6t-21 -8q-9 -5 -19 -7.5t-20 -5.5q-14 -5 -28.5 -6t-28.5 -3q-9 -1 -18.5 -1.5t-19.5 -0.5q-9 0 -18 0.5t-19 0.5 q-21 2 -42.5 4.5t-43.5 1.5q-14 2 -28 0.5t-28 -3.5q-9 -2 -18.5 -1.5t-14.5 7.5t-2.5 15t4.5 14q1 8 -7 12q-5 1 -8 -1.5t-8 -4.5q-5 -5 -7 -10.5t-6 -11.5q-2 -4 -5 -8t-7 -6q-7 -5 -15 -4q-3 2 -6.5 4t-5.5 6l-1 10q1 6 4 10.5t6 9.5q2 2 2.5 3t2.5 3q8 7 16.5 13 t16.5 14l9.5 9.5t6.5 9.5q2 13 -8 18l-3 2q-8 2 -16 1.5t-16 4.5q-5 0 -6.5 3.5t-5.5 5.5q-2 2 -3 5.5t-3 6.5q-3 11 -2.5 23t3.5 23q3 12 4 25.5t0 26.5q1 14 0.5 28t-1.5 28q-2 20 -2 39q0 20 -2 40q-2 29 9 55q5 11 10.5 21.5t9.5 21.5q1 5 2 9.5t-1 9.5q-3 10 -8 19 l-10 18q-12 31 -7 65.5t28 57.5q13 16 31 25q3 2 7.5 3t7.5 4q9 2 16.5 4.5t17.5 2.5q13 0 24.5 -2t22.5 -5q11 -2 20.5 -6t21.5 -2q17 0 32.5 5t32.5 9q20 4 41.5 6.5t43.5 0.5q12 -2 23.5 -3.5t23.5 -4.5zM659 627q2 -12 -8 -18q-5 -3 -6 -2q-9 -1 -16.5 3t-12.5 10 t-7 13.5t2 15.5q3 5 9 6.5t12 2.5q11 -4 18.5 -12t8.5 -19zM657 484q-2 5 -7 4t-9 -3q-8 -6 -12.5 -15t-2.5 -19q0 -4 3 -4t5 -2q7 -1 12 6q7 6 10 15.5t1 17.5zM317 392q-2 1 -4.5 3t-5.5 1q-6 -2 -8 -8q-1 -6 4 -11q7 -2 12 0q2 1 2.5 2t1.5 2q3 6 -2 11zM366 349 q-5 5 -11 5q-5 2 -11.5 0.5t-9.5 -6.5q-8 -8 -7.5 -19t2.5 -21q3 -5 3.5 -9t2.5 -9q3 -12 -2 -22t-9 -19q-2 -3 -3 -6.5t-3 -7.5q-2 -6 -1 -13t3 -13q2 -10 10 -17.5t18 -10.5q8 -4 17 -3.5t17 3.5q13 6 22 17q7 11 10 25q2 5 1 11.5t-1 12.5q-1 5 -2 10.5t-6 9.5 q-10 5 -21 -1q-1 -1 -2 -1t-3 -1q-8 2 -11 4q-10 11 -4.5 21.5t8.5 20.5q5 7 4 16t-5 16q-2 2 -3 4t-3 3zM591 61q2 -3 3 -7.5t-1 -8.5q-1 -3 -3.5 -4t-4.5 -3h-10q-2 2 -4.5 3.5t-2.5 3.5q-2 2 -1.5 3t-0.5 2q2 3 2 6q0 4 4 4q2 2 4.5 3.5t5.5 0.5q2 2 2 0q0 -1 2 -1l5 -2 v0z" />
<glyph unicode="E" horiz-adv-x="574" d="M165 697q17 -4 33 -10t33 -9q31 -4 64 -3q32 4 62.5 11t63.5 8q23 2 44 -2.5t39 -15.5q16 -10 26.5 -25.5t16.5 -31.5q4 -11 5 -22l2 -22q1 -23 -3 -43.5t-12 -40.5q-4 -13 -10.5 -24t-12.5 -23q-4 -9 -9 -17.5t-7 -19.5q-1 -9 0 -18t-5 -17q-4 -5 -9 -9t-11 -3 q-10 0 -18 3t-16 4q-5 2 -10 3t-10 1q-1 2 -1.5 1t-1.5 -1q-18 4 -38 2.5t-37 -6.5q-8 -2 -15 -6t-12 -10q-7 -7 -11 -17t-1 -20q5 -14 20 -19q22 -2 39.5 6t37.5 13q8 2 17.5 3t17.5 -3q21 -8 26 -30v-15q-2 -14 -11.5 -24t-21.5 -16q-5 -2 -9.5 -2.5t-9.5 -2.5 q-8 -2 -14.5 0.5t-14.5 3.5q-7 1 -12 4t-12 1q-8 1 -14.5 -3.5t-9.5 -11.5q-2 -9 1.5 -17t11.5 -13q2 -3 5.5 -4.5t6.5 -3.5q5 -2 10 -2.5t10 -2.5q23 -1 44 4.5t44 2.5q7 -1 13 -2t12 -3q5 -3 10 -4.5t9 -4.5q4 -1 6 -3t5 -4q5 -4 9 -8.5t8 -8.5q6 -8 9 -16.5t8 -16.5 q3 -14 1.5 -29.5t-9.5 -28.5q-7 -13 -19 -22.5t-25 -16.5q-2 0 -4.5 -1t-4.5 -2q-15 -5 -33.5 -5.5t-34.5 4.5q-30 5 -58 -1q-11 -2 -21.5 -3.5t-21.5 -3.5q-23 -2 -46.5 -1t-44.5 6q-7 2 -12.5 5t-12.5 5q-16 6 -31.5 13t-34.5 6l-7 -2q0 -2 -1 -1.5t-2 -0.5l-5 -4 q-4 -7 -9.5 -15t-13.5 -11v-1q-5 -1 -11 -1q-5 0 -9 5q-4 4 -3.5 8.5t1.5 9.5q4 10 7 14q8 8 18 15t8 20q-4 10 -12 12q-11 2 -20 0t-20 0q-17 4 -28 19.5t-13 32.5l-1 12q1 0 0 0.5t0 1.5q1 14 4.5 25.5t6.5 24.5q3 10 5.5 20t4.5 21q0 5 2 8.5t1 8.5q3 22 2 42 q-3 14 -6.5 26.5t-6.5 25.5q-1 7 -2 13t-3 13l-4 29q0 21 5 41.5t5 41.5q-1 9 -1.5 17.5t-2.5 17.5q-2 11 -6.5 22t-4.5 23q-2 17 1 29q3 17 9 32q7 15 18 27q3 5 6.5 8t7.5 6q8 6 16.5 10.5t17.5 9.5q15 5 31.5 7.5t32.5 -1.5zM321 390q-2 4 -6 4q-2 -2 -4.5 -3t-4.5 -4 q0 -2 -0.5 -5t1.5 -5q4 -2 6.5 0t4.5 3q5 5 3 10zM521 346q3 -3 5.5 -6t2.5 -8q2 -13 -12 -20q-4 -2 -7.5 -1.5t-7.5 0.5q-5 2 -8 6.5t-5 9.5q-1 5 1 9l4 8q4 4 8 4q2 2 8 2q7 0 11 -4zM147 112q-6 6 -12 3l-5 -3q-1 -2 -1 -3t-1 -3q0 -5 3 -8q2 -2 4 -2h6q4 0 7 5 q3 7 -1 11zM74 60q1 -6 1 -12q0 -5 -5 -10q-6 -4 -11 -3q-8 2 -12.5 7.5t-6.5 12.5v9t3 7q2 5 7 5h8q12 -5 16 -16zM113 5h1h-1z" />
<glyph unicode="F" horiz-adv-x="588" d="M272 690q11 -1 22 -0.5t22 -0.5q12 1 23.5 1.5t22.5 2.5q28 3 58 3q2 2 3 0.5t2 0.5q8 -2 14 0q3 -1 6 -0.5t5 -0.5q1 2 1 1t1 -1q16 -1 31.5 -3.5t29.5 -10.5q33 -18 45 -52t9 -69q-2 -20 -6 -39t-9 -39q-2 -17 -3 -35.5t-12 -32.5q-11 -17 -27 -27q-11 -8 -24 -9.5 t-27 -1.5q-22 1 -44 -0.5t-42 -9.5q-16 -5 -31.5 -15.5t-23.5 -26.5q-2 -6 0 -11.5t7 -10.5q6 -5 14 -4.5t14 3.5q5 3 10 5.5t10 7.5q5 2 10 4.5t10 4.5q8 2 17 3t17 -2q13 -5 22 -15.5t10 -24.5q-1 -9 -2.5 -17.5t-7.5 -16.5q-8 -11 -21 -18.5t-29 -4.5q-6 1 -10.5 3 t-9.5 4q-8 3 -15.5 6.5t-15.5 6.5q-11 2 -19 -1q-5 -4 -10 -10.5t-3 -14.5q0 -15 3.5 -30t-6.5 -28q-7 -9 -15.5 -18.5t-3.5 -22.5q6 -13 17.5 -22t13.5 -24q4 -16 0 -31t-14 -26q-2 -2 -4.5 -4t-5.5 -4q-16 -10 -39 -10q-16 0 -33 10q-17 16 -39 11q-16 -3 -29 -11t-28 -10 q-19 -3 -38 -0.5t-33 14.5q-10 7 -16 16t-11 20l-2 2q-2 8 -4 16.5t-1 17.5q-1 8 -0.5 15t1.5 15q2 37 9.5 71.5t10.5 72.5q1 16 -1.5 32t-5.5 31q-4 19 -8 37.5t-2 38.5q2 8 4.5 15t7.5 13q15 15 11 35q-3 7 -7.5 11.5t-8.5 11.5q-13 16 -16 36.5t6 38.5q2 8 7.5 14t2.5 16 q-2 4 -4 6.5t-4 6.5q-1 2 -0.5 4t-1.5 4q2 0 1.5 1.5t1.5 3.5q2 5 6.5 6.5t9.5 2.5q8 -2 17.5 -6t17.5 5q2 2 3 6.5t0 7.5q0 5 -3.5 9t-7.5 7q-8 3 -18 5t-13 13q-4 9 1 15q5 9 18 9q16 0 24 -14q14 -12 30 -7q6 2 10.5 5.5t10.5 5.5q7 3 14 5.5t15 4.5q9 2 18 2.5t18 -1.5z M141 627q-5 6 -13 4t-14 -6q-2 -1 -1.5 -2t-1.5 -1q-5 -5 -8 -10.5t-3 -12.5v-9q0 -4 4 -6q5 -3 12 -1q5 3 9 10q3 6 8.5 11t8.5 11t-1 12zM551 389q2 -3 1.5 -7t-1.5 -7q-4 -10 -11.5 -18t-18.5 -10q-7 -1 -13 5q-4 5 -2 11t4 11q0 2 1.5 3t1.5 3q5 5 10.5 10t12.5 7 q5 -1 9 -2t6 -6zM317 365q-2 2 -4 3.5t-4 0.5q-2 0 -3.5 -1t-3.5 -2q-4 -7 1 -12q1 -3 8 -3q2 0 3.5 2t3.5 3q-1 2 0 4.5t-1 4.5zM351 157q2 -4 1 -8.5t-3 -9.5q-6 -9 -17 -12q-5 1 -10 1q-4 0 -6 5q-2 4 -2.5 7.5t1.5 7.5q-1 4 1.5 6t4.5 5q3 2 5 3.5t5 2.5q4 0 6 1 q4 -1 8.5 -2t5.5 -7z" />
<glyph unicode="G" horiz-adv-x="651" d="M410 698q11 -1 22.5 -2t22.5 -4q11 -1 20.5 -4t20.5 -5q13 -6 26.5 -10.5t24.5 -12.5q7 -4 13.5 -9.5t12.5 -11.5l10 -10t7 -13q3 -2 3 -5q0 -2 2 -4q2 -5 4 -10.5t4 -11.5q2 -1 1 -1.5t-1 -1.5q2 -11 1 -21.5t-3 -21.5l-2 -8t-4 -7q-5 -11 -12 -20.5t-5 -23.5 q1 -5 3 -8.5t3 -7.5q7 -19 3 -38.5t-17 -32.5q-11 -12 -29 -19q-8 -4 -16 -5l-16 -2q-18 -2 -32.5 5t-31.5 9q-11 1 -16 -7.5t-13 -12.5q-11 -7 -21.5 -10.5t-21.5 -10.5q-24 -11 -41 -31q-3 -5 -6.5 -8.5t-5.5 -8.5q0 -2 -2 -3t-2 -3l-4 -11q-1 -5 -2 -9t0 -9 q-2 -12 3 -23.5t13 -20.5q6 -7 12 -10q13 -11 29.5 -15.5t33.5 -5.5q1 -1 5 -1q5 -1 10 0t10 1q9 0 18 3q11 2 22 5.5t19 13.5q5 4 5.5 10.5t-1.5 12.5q-3 5 -8 9.5t-12 4.5q-8 1 -15 -2.5t-13 -8.5q-2 0 -2.5 -1t-2.5 -1q-11 -5 -23.5 -6t-23.5 6q-6 4 -11.5 9t-8.5 12 q-4 11 -1 23.5t11 20.5q9 8 19.5 13.5t23.5 5.5q11 1 20.5 -3t19.5 -6q14 -5 30 -5t31 2q8 2 15.5 5t15.5 6q8 2 16 4.5t17 0.5q8 -1 16.5 -4.5t14.5 -11.5q13 -16 13 -38q1 -24 -5.5 -45t-8.5 -44q-2 -11 -0.5 -21t1.5 -21q0 -25 -10.5 -46.5t-30.5 -35.5 q-17 -13 -36.5 -20.5t-39.5 -15.5q-17 -4 -34 -7.5t-34 -4.5t-35 -1t-35 2q-16 1 -31.5 3.5t-30.5 5.5q-10 2 -18.5 5t-17.5 5q-23 8 -46 17.5t-44 21.5q-11 8 -21.5 15t-20.5 16q-10 8 -20 3q-4 -1 -6.5 -4t-5.5 -5q-6 -3 -13.5 -5t-13.5 2q-8 5 -8 17q2 2 2 4q0 3 3 5 q2 2 4.5 3t5.5 3q2 0 2 2q3 -1 5.5 0.5t4.5 0.5q2 2 3.5 1.5t3.5 1.5q5 2 10.5 5.5t7.5 8.5q3 10 -2 16.5t-9 14.5q-14 17 -27.5 32t-24.5 32q-5 5 -8 11l-6 12q-18 37 -18 81q-3 33 10 65q4 8 7.5 16.5t5.5 17.5q2 12 1.5 23.5t4.5 22.5q3 13 10 24.5t4 26.5q-1 5 -4.5 8 l-7 6t-6 7t-2.5 10q0 13 13 18q8 2 15.5 -0.5t16.5 -0.5q17 5 28.5 16.5t25.5 21.5q18 18 39.5 31t44.5 23q12 6 24.5 11t26.5 7q6 2 13 3.5t13 3.5q12 3 25 3.5t26 2.5zM460 696v1v-1zM97 639q7 -9 2 -20q-2 -4 -5 -7q-5 -2 -11.5 -2.5t-11.5 3.5l-6 6t-4 8q-1 4 0 7l2 6 q3 9 10 10q8 2 14.5 -1t9.5 -10zM144 628q0 -1 -1 -1v0v2zM543 504q-2 -1 -2.5 0t-2.5 -1q-5 1 -8 -2.5t-5 -8.5q-4 -8 2 -14q3 -2 5.5 -4t5.5 -1q4 0 7 2.5t5 4.5q3 4 3.5 7.5t0.5 8.5q-3 6 -11 8zM164 155q-2 13 -11 19q-3 2 -8 0q-5 -5 -3 -10t3 -10q3 -2 5 -5.5t7 -3.5 h3q3 2 3.5 5t0.5 5zM85 61q5 -8 1 -18q-6 -8 -15 -9l-8 2q-3 2 -6 4.5t-4 7.5q0 6 3 14q3 3 8.5 5.5t10.5 0.5q3 0 5.5 -2.5z" />
<glyph unicode="H" horiz-adv-x="709" d="M235 686q18 -8 34 -21.5t27 -30.5q21 -32 23 -73q2 -32 -2.5 -64t-12.5 -63q-3 -14 -6 -28.5t-4 -30.5q-1 -11 1.5 -21.5t10.5 -18.5q2 -4 5 -4q7 -7 20 -3q1 1 2 0.5t2 0.5q12 3 20 13q17 16 27 37q3 4 4.5 8.5t3.5 8.5q8 18 10 43q3 11 3.5 22t-0.5 22q-1 7 -2 13.5 t-2 14.5q-2 20 -6 40t-6 42q2 25 12 46q2 1 2 2q0 2 2 4q11 18 28 29q5 3 9 5.5t8 4.5q3 0 5 1.5t4 1.5q19 7 40.5 4.5t38.5 -10.5q7 -2 13 -5t14 -3q12 1 22 8t22 9q16 2 29 -6t21 -19q13 -19 17.5 -41.5t5.5 -45.5q1 -39 -8 -75q-3 -14 -5.5 -29.5t-0.5 -30.5q1 -30 6 -59 t10 -59q2 -16 3.5 -31.5t3.5 -32.5v-17q1 -36 -3 -70q-2 -16 -5.5 -31.5t-12.5 -28.5q-7 -11 -20 -12l-26 -2q-4 -1 -7.5 -2.5t-5.5 -5.5q-10 -12 -3 -25q2 -2 2.5 -3.5t2.5 -2.5q5 -4 8 -9q4 -5 5 -12t-2 -14q1 -1 -2 -4q-7 -13 -23 -15q-10 0 -20 8q-11 6 -22 5.5 t-21.5 -4l-21 -7t-21.5 -3.5q-2 1 -3 0.5t-3 -0.5q-5 0 -9 0.5t-9 1.5q-20 6 -37 21q-5 3 -8 8q-2 4 -5 7t-6 7q-7 16 -11 29q-5 23 -5 43q-2 10 -1.5 20t-5.5 19q-13 21 -36 19q-5 0 -9.5 -0.5t-7.5 -3.5q-7 -3 -14 -10q-1 -3 -2.5 -5.5t-2.5 -5.5q-2 -11 -2.5 -23.5 t-4.5 -23.5q-1 -7 -4.5 -14.5t-6.5 -15t-2.5 -14.5t7.5 -14q8 -7 16.5 -9.5t14.5 -10.5q3 -5 3.5 -10.5t-3.5 -10.5l-4 -4t-6 -2q-9 0 -15 4t-11 9.5t-10.5 10.5t-13.5 7q-12 1 -19 -6q-2 0 -3 -1t-3 -2q-35 -24 -80 -26q-32 0 -61 12t-50 36q-8 8 -11 12q-1 2 -2.5 4.5 t-2.5 4.5l-6 10t-5 11q-2 5 -3.5 9.5t-3.5 9.5h-1q2 2 1 4.5t-1 5.5q-4 14 -3 30.5t4 30.5q-1 1 0 1.5t1 1.5q8 29 9 57q1 7 1.5 15t-1.5 15q-1 8 -1.5 17.5t-2.5 17.5q-3 19 -5.5 38t-1.5 39q-1 17 3.5 33.5t10.5 32.5q5 17 1.5 33.5t-7.5 31.5q-5 20 -6 39v5q0 4 0.5 8.5 t0.5 8.5q2 5 2 9q0 5 2 10q6 22 19 42t32 34q24 18 54 26t62 2q22 -3 38 -11zM91 471q-1 3 -7 5q-2 0 -3.5 -0.5t-3.5 -0.5l-2 -2q-3 -2 -3.5 -5t-0.5 -6q3 -7 9 -7q7 -1 10 5q2 2 2.5 5.5t-1.5 5.5zM391 309q-5 11 -14 12q-13 2 -23 -4t-21 -11q-5 -4 -12 -8t-9 -11v-4 q2 -4 6 -6h6q6 1 11.5 1.5t10.5 0.5q11 3 23 1t20 8q4 4 4 10t-2 11zM416 213q-2 1 -3 0.5t-3 0.5q-3 0 -5 -2q-3 0 -5 -4q-3 -4 -1 -11q2 -6 9 -8q8 -2 13 5q3 4 3 10q-1 3 -3.5 5t-4.5 4zM669 86q1 -4 -1 -9q-1 -2 -6 -5q-7 -6 -13 -13.5t-17 -3.5q-5 1 -6.5 4.5t-3.5 7.5 q0 4 3 6.5t5 5.5q13 9 30 12q2 -1 5 -1t4 -4z" />
<glyph unicode="I" horiz-adv-x="347" d="M193 690q11 -5 21 -10.5t22 -9.5q7 -2 13 -0.5t13 3.5q8 5 15 11.5t16 10.5q2 1 9 1q5 0 9 -4l4 -7v-12q-5 -8 -13 -12.5t-12 -13.5q-4 -3 -3 -10q4 -6 8 -11.5t8 -10.5q16 -23 19 -51.5t1 -57.5q-2 -16 -5 -32.5t-8 -31.5q-3 -11 -4.5 -22.5t3.5 -22.5q3 -11 7.5 -21 t6.5 -21q3 -12 2 -25t-3 -24q-3 -10 -4 -19.5t-3 -20.5q0 -4 -0.5 -7.5t0.5 -8.5q0 -9 1 -18.5t3 -17.5q5 -21 7.5 -43.5t-0.5 -44.5q-2 -27 -12 -48q-13 -39 -52 -64q-2 -1 -4 -1.5t-4 -1.5q-1 -2 -2 -1.5t-3 -0.5l-12 -4t-13 -3q-11 -2 -21 -1.5t-21 2.5q-8 2 -14.5 4.5 t-14.5 4.5q-2 2 -5 3.5l-7 3.5q-12 7 -23.5 13.5t-24.5 11.5q-15 5 -32 9t-28 20q-11 19 -11 44v13q0 8 1 11q2 14 4 27.5t4 27.5q4 26 0 52.5t-6 53.5q-6 35 0 71q5 22 9 44t7 45q2 11 0 22v3q0 14 -2.5 28.5t-6.5 27.5q-3 6 -4 12.5t-2 12.5q-3 24 4.5 46t21.5 41 q9 11 19.5 18.5t21.5 13.5q8 3 14.5 5.5t14.5 4.5l15 2q18 2 27 -1q16 -1 29 -8zM259 602q-3 8 -13 8q-5 -1 -10 -6q-2 -11 -1 -12q4 -7 13 -7q2 -2 4.5 0t4.5 3q6 8 2 14zM90 238q-4 5 -12 7q-4 -1 -8 -7q-2 -5 -1.5 -11t-1.5 -11q-1 -7 -4 -14.5t2 -13.5q3 -5 9 -5 q5 0 9.5 4.5t6.5 9.5q4 10 4.5 20.5t-4.5 20.5zM76 34q2 -4 1.5 -8.5t-1.5 -8.5q-4 -10 -18 -8q-5 -2 -9 3q-7 4 -7 14q1 13 13 16q4 2 7 1t8 -2z" />
<glyph unicode="J" d="M482 689q2 -5 3.5 -11t-2.5 -11q-7 -7 -14 -8q-2 1 -4 0t-4 1q-8 0 -13 9q-2 1 -2 3t-2 4q-2 11 5 19q4 3 12 5q12 0 21 -11zM368 691q6 -2 11.5 -5t10.5 -5q8 -4 13.5 -9.5t12.5 -10.5q13 -13 36 -11q5 1 9.5 -0.5t9.5 -2.5q1 -2 2.5 -1.5t3.5 -0.5q7 -4 11.5 -9 t9.5 -12q2 -5 3.5 -11t3.5 -12q3 -33 -7 -67q-2 -13 -4.5 -25.5t-1.5 -25.5q0 -17 2.5 -35t4.5 -35q1 -11 2.5 -20.5t2.5 -20.5q2 -14 4 -28.5t2 -29.5l1 -36q0 -10 -0.5 -21t-1.5 -21q-2 -27 -6.5 -54t-14.5 -52q0 -4 -4 -10q-4 -8 -7.5 -15.5t-9.5 -14.5q-4 -7 -5 -15 t4 -15q4 -6 10 -12t11 -12.5t7 -13.5t-3 -16q-3 -3 -7 -5t-8 0q-12 3 -18 11.5t-11.5 18t-12 17t-19.5 8.5q-13 0 -20 -5q-44 -33 -100 -46q-20 -3 -39.5 -4t-39.5 2q-31 4 -61 17q-16 8 -34 10t-37 2q-15 1 -28 8.5t-22 18.5q-13 14 -15.5 34t5.5 37q8 16 21.5 27t30.5 14 q17 4 34.5 -0.5t34.5 1.5q11 3 20 14q8 8 13 16.5t10 17.5q5 12 9 24.5t7 25.5q0 7 1.5 13.5t1.5 12.5q1 12 1 22v23q-2 11 -4 21.5t-4 21.5q0 8 -1.5 15.5t0.5 16.5q2 8 3.5 16t4.5 16q5 12 11 23t6 25q0 17 -4 32l-8 30q-6 35 6.5 67t40.5 52l15 9q2 0 4.5 2t5.5 3 q14 4 29.5 6t30.5 0q14 -2 24 -6zM428 619q-6 6 -12 9q-10 2 -13 -1q-2 -2 -2 -4v-3q6 -13 22 -15q2 -1 3.5 1t3.5 3q2 2 0.5 4.5t-2.5 5.5zM73 224q5 -7 5 -15t-4 -15q-9 -12 -25 -12q-12 3 -19 15q-6 15 6 29q6 4 15 6q6 -1 11.5 -2t10.5 -6zM520 85q2 -5 3 -11.5 t-2 -11.5q-2 0 -2 -2q-3 -2 -6.5 -3t-7.5 1q-11 3 -17 12t-10 19q0 10 4 15q4 4 8 4q5 0 10 -1q5 -2 7.5 -5t5.5 -6z" />
<glyph unicode="K" horiz-adv-x="709" d="M637 689q13 -6 22.5 -16t16.5 -21q4 -7 7 -14.5t5 -15.5q4 -15 3.5 -29t-3.5 -28q-5 -23 -19 -43.5t-34 -35.5q-7 -6 -13 -14t-8 -18q0 -8 1.5 -15t9.5 -11q8 -3 16.5 -6t14.5 -11q2 -4 1 -8t-3 -8q-3 -3 -7.5 -5.5t-9.5 -2.5q-8 0 -14.5 3.5t-13.5 5.5q-6 1 -11.5 2.5 t-10.5 -0.5q-12 -5 -14 -21q-2 -12 1 -22q5 -17 14.5 -30t20.5 -27q2 -1 2.5 -2t2.5 -3q9 -11 19.5 -22.5t19.5 -23.5q4 -7 8.5 -13.5t7.5 -13.5q11 -23 14 -50t-5 -52q0 -8 5.5 -14t1.5 -13q-3 -6 -7.5 -9t-9.5 -5v-1q-1 1 -6 -2q-4 -3 -4 -8q0 -4 1 -8q1 -9 9 -15 q6 -4 14 -9t8 -14l-2 -6q-3 -5 -9 -6t-11 0q-7 1 -12 6.5t-10 10.5q-5 2 -9 4t-9 1q-10 -2 -18 -8t-17 -9q-3 0 -5 -1.5t-5 -2.5q-8 -2 -17 -4t-18 -1q-6 -1 -13 -0.5t-14 1.5q-3 3 -6 1q-2 2 -4.5 2.5t-4.5 1.5q-8 5 -16 8.5t-15 9.5q-5 4 -8.5 7.5t-8.5 7.5q-5 5 -9 11.5 t-7 12.5q-8 14 -14.5 27.5t-12.5 27.5q-4 8 -7.5 15.5t-8.5 14.5q-5 6 -10.5 11.5l-10.5 10.5q-6 2 -12 4.5t-13 3.5q-12 -1 -22 -6.5t-14 -16.5q-4 -7 -3.5 -14t-1.5 -14q-3 -27 -15 -51t-32 -42v-1q-11 -9 -24 -16.5t-27 -12.5q-3 -1 -5.5 -2.5t-7.5 -1.5q-9 -1 -17 -3 t-19 -1q-16 -1 -37 2q-12 2 -22.5 6.5t-18.5 16.5q-5 8 -7.5 16.5t-4.5 18.5q0 18 -15 32q-2 4 -6.5 4.5t-6.5 3.5q-4 1 -5.5 3.5t-4.5 4.5q-3 5 -5.5 9.5t-3.5 9.5q-2 8 -2 15v15q4 23 2 47t-4 49q-3 40 1 78.5t12 76.5q4 24 3.5 50t-9.5 49q-4 15 -6 32t1 34q5 24 15 46 q3 8 3.5 18.5t-7.5 17.5q-6 3 -12 7.5t-6 12.5q2 5 4 9t7 6q11 5 21 -5q5 -4 9 -10t11 -7q7 -2 12.5 1.5t12.5 5.5q16 11 38 17q8 2 16.5 3.5t18.5 1.5q8 1 17.5 -0.5t19.5 -3.5q24 -5 45.5 -18.5t38.5 -33.5q23 -26 30 -62t-2 -70q-1 -5 -2.5 -9.5t-1.5 -9.5q-2 -5 -3 -9.5 t-2 -9.5q-1 -7 -2.5 -15t-0.5 -16q-1 -2 -0.5 -3t0.5 -3q0 -12 1.5 -23.5t6.5 -22.5t13 -19.5t19 -12.5q7 -2 13 -3.5t13 -0.5q6 1 12.5 2.5t11.5 5.5q4 5 8 9.5t4 10.5q5 12 5 21q-1 14 -9.5 26t-19.5 20q-5 4 -11.5 7.5t-12.5 8t-9.5 10.5t-1.5 14q0 5 3.5 8t7.5 5 q3 2 7 2t8 -1q11 -5 15 -15t12 -18q8 -10 20 -8q14 8 15 20q2 8 2.5 17.5t1.5 18.5q2 17 3 32.5t4 32.5q0 3 1 6.5t2 7.5q8 32 30.5 57t51.5 40q8 4 16 5t16 3q4 1 8 1q5 0 10 1l28 -4t26 -9zM657 483q4 -3 6.5 -7.5t0.5 -9.5q-2 -7 -8 -11q-8 -3 -15 1l-4.5 4.5t-3.5 5.5 q0 7 3 13q4 3 9 5t10 -1h2zM332 320l-1 1q-9 1 -16 0q-5 -2 -6 -5t-2 -7q-2 -4 0 -7.5t4 -6.5h1q9 -10 23 -18q3 0 5 -2.5t5 -2.5q9 -3 17 -3q2 2 4.5 1.5t4.5 1.5q6 6 5 12q-2 9 -8 16t-14 12q-6 2 -11 5t-11 3zM53 68q4 -1 6 -3.5t4 -4.5q2 -5 3 -10.5t-1 -10.5 q-5 -5 -8 -6q-5 -1 -9 0q-8 2 -10 5q-5 5 -8 11t0 13q1 3 2.5 6.5t6.5 3.5q7 1 14 -4zM603 68q-2 0 -4.5 1t-5.5 0q-7 -2 -8 -6q-3 -7 1 -14q6 -6 12 -5q2 0 6 2q4 1 5 4.5t2 5.5q0 8 -8 12z" />
<glyph unicode="L" d="M145 699q25 -3 50 -14q21 -6 43 -5q5 2 11.5 1.5t11.5 -0.5q5 -2 9.5 -4t8.5 -5q14 -10 23 -25.5t15 -31.5q9 -27 12.5 -55.5t1.5 -57.5q-2 -23 -7 -46.5t-13 -45.5q-2 -15 -4 -30.5t3 -30.5q2 -3 2.5 -7t1.5 -7q5 -14 7.5 -29.5t-0.5 -30.5q-1 -10 -2.5 -20.5 t-5.5 -20.5q-2 -5 -1 -11t4 -10l10 -4q8 2 13.5 7t9.5 12q8 6 17 2q4 -2 7 -7t3 -10q1 -8 -3.5 -13.5t-4.5 -13.5q2 -10 9 -11q4 -3 8.5 -2t9.5 2q10 4 19.5 8t20.5 4q12 2 21.5 -1.5t19.5 -6.5q25 -14 36 -40q4 -11 6 -24t0 -24q-1 -11 -4 -21t-8 -19q-7 -9 -13.5 -17 t-14.5 -15q-3 -1 -6 -2.5t-6 -3.5q-20 -11 -44 -11q-23 0 -45 3l-74 11q-14 0 -28.5 1.5t-28.5 -2.5q-17 -3 -33 -10t-36 -5l-22 4q-11 3 -20.5 9t-22.5 5q-6 -1 -13 -1.5t-11 5.5q-6 8 -3 19q3 6 9 10t2 12q-2 5 -10 7q-10 -1 -15.5 -8.5t-8.5 -15.5q-4 -5 -5.5 -11.5 t-3.5 -11.5q-2 -7 -5 -13t-10 -8q-11 -2 -19 6l-4 6q-2 7 1.5 12.5t6.5 10.5q7 9 14.5 17t7.5 20v13q-2 8 -6.5 14.5t-7.5 13.5l-8 19q-2 8 -3 16t1 16q4 23 12 43t4 43q-1 11 -4 22t-4 22q-6 26 -3.5 54.5t7.5 54.5q5 18 9 37t1 39q-2 12 -5.5 23.5t-5.5 24.5 q-2 2 -1.5 4.5t-1.5 4.5v5q-2 11 -3 22t0 22q1 12 3.5 22.5t6.5 21.5t10.5 21t14.5 19q11 11 24.5 16.5t28.5 10.5q5 -1 10.5 1t11.5 0q2 2 4.5 1t4.5 -1zM96 483q-2 6 -6 7q-5 2 -7.5 -1t-4.5 -5q-5 -9 -9 -18t-2 -19q1 -10 11 -14h6q4 0 6 2q8 6 8 17q1 4 1 8v9q-1 4 -1 7 q0 4 -2 7zM411 272q3 -6 1 -12t-6 -11q-4 -6 -14 -8q-5 -1 -8 2t-7 5q-8 11 -1 25q2 4 6.5 7t9.5 3q6 0 11.5 -2.5t7.5 -8.5z" />
<glyph unicode="M" horiz-adv-x="905" d="M757 696q8 -2 15 -4.5t14 -4.5q3 -2 6 -3t7 -3q43 -23 66 -66q8 -19 13 -45q2 -18 0.5 -36.5t-6.5 -36.5q-6 -31 5 -61q12 -39 8 -79.5t-21 -76.5l-4 -10t-2 -11l-1 -1q-3 -15 1.5 -29.5t9.5 -27.5q2 -8 5 -14.5t5 -13.5q7 -28 4 -60q-2 -8 -3.5 -16.5t-4.5 -16.5 q-4 -9 -9 -16t-10 -15q-2 -2 -4 -5t-5 -5q-18 -18 -40 -25q-14 -7 -31 -7t-32 4q-14 5 -28.5 10t-30.5 -1q-5 -2 -10.5 -3.5t-10.5 -3.5q-12 -2 -24 -3t-24 3q-9 5 -16.5 11.5t-12.5 16.5q-5 9 -6 19t0 21q0 2 -1 3t1 3q0 8 0.5 16.5t0.5 16.5q2 11 -1.5 23t-13.5 20 q-14 8 -31 1q-5 -2 -8.5 -5.5l-7.5 -7.5q-7 -8 -10 -19t0 -22q5 -14 14 -26t3 -27q-5 -10 -14 -10q-7 -1 -11.5 3.5t-7.5 9.5q-5 11 -4.5 22.5t-8.5 19.5q-4 2 -8.5 2.5t-7.5 -1.5q-8 -5 -10 -14v-8q-1 -10 -1.5 -20t-5.5 -18q-2 -5 -4 -9l-4 -8q-2 -3 -4 -5l-4 -4 q-5 -3 -8 -6t-7 -5q-8 -6 -19 -6t-20 2q-8 2 -15 8t-13 13q0 2 -1.5 2.5t-2.5 2.5q-11 17 -16.5 35t-11.5 37q-2 10 -7 18.5t-10 16.5q-7 6 -14 12.5t-15 8.5l-15 3l-14 -2t-12 -6q-6 -5 -9 -11.5t-5 -14.5q-2 -11 0.5 -21.5t0.5 -21.5q0 -4 -2 -12t-3.5 -14.5t-6.5 -13.5 q-2 -2 -3.5 -4.5t-3.5 -5.5q-2 -2 -3 -3.5t-3 -3.5q-4 -4 -8 -7t-9 -6q-5 -4 -11 -5.5t-12 -3.5q-21 -5 -39 1q-6 2 -12 3t-11 5l-14 10t-13 11q-3 3 -5 6.5t-5 6.5q-4 6 -7.5 12t-5.5 12q-2 1 -1 2t0 2q-3 5 -3.5 12t-1.5 13q-2 15 1.5 29.5t5.5 29.5q2 21 0 42.5t-7 41.5 l-1 2q-4 17 -7 34.5t-3 36.5q-1 14 1 30.5t4 31.5q1 4 3 14q4 12 6.5 24.5t4.5 25.5q3 17 2.5 34.5t-2.5 34.5q-5 24 -6 47q-2 20 1 35v1q3 21 10.5 40.5t21.5 35.5q10 10 21 18q10 3 22 8q9 2 19 2t19 -3q8 0 14 -3.5t13 -7.5q8 -6 16 -12.5t14 -14.5l2 -1q8 -12 15 -24.5 t12 -26.5q6 -15 17.5 -28.5t27.5 -20.5q17 -9 32.5 -23t26.5 -30q10 -11 22.5 -22t29.5 -6q8 2 14 6.5t11 10.5q2 6 3 13t-4 13q-2 1 -3 3t-3 4q-7 8 -14 17.5t-1 20.5q2 4 5.5 5t6.5 2q13 -2 18 -9t7.5 -14.5t4.5 -15.5q5 -11 17 -11l8 2q7 4 8 11.5t6 13.5q8 13 20.5 21 t25.5 16q17 13 28.5 31t29.5 32q32 28 71 43t84 10q5 -1 11 -1.5t11 -1.5zM475 576q2 -10 0 -14q-6 -11 -20 -11q-5 2 -9 5t-5 8q-2 4 -0.5 7.5t1.5 7.5q2 0 3.5 2t3.5 3q10 5 19 -1q4 -3 7 -7zM391 448q-2 0 -3 -0.5t-3 0.5q-1 0 -4 -3q-4 0 -6 -7q0 -3 2 -9q3 -6 10 -6 q6 0 11 3q2 2 3.5 5t0.5 6q-3 9 -11 11zM828 278l-4 4q-1 1 -1.5 0.5t-1.5 0.5q-2 0 -4 0.5t-3 -1.5q-6 -3 -6 -10v-12q0 -5 1 -11q2 -7 3 -14t8 -11q4 0 5 2q5 8 6 18t0 19q-1 5 -1 8t-2 7zM31 237h-1h1zM239 204q-2 4 -9 4q-4 -2 -8 -2q-3 0 -5 -3q-5 -2 -8.5 -5.5 l-6.5 -6.5q-1 -4 -2.5 -6t-0.5 -7q0 -2 1 -2q2 0 2 -2q5 -3 11.5 -1.5t11.5 5.5q2 1 2.5 2.5t2.5 1.5l8 10t1 12z" />
<glyph unicode="N" horiz-adv-x="637" d="M554 695q19 -6 34 -21t17 -35q2 -5 1.5 -11t-0.5 -12q-2 -12 -6.5 -21.5t-7.5 -20.5q-5 -17 -8.5 -36.5t1.5 -38.5q13 -38 17 -75q7 -45 4.5 -90.5t-8.5 -90.5q-2 -14 -6 -29t0 -31q0 -12 4 -22t8.5 -20.5t8 -20.5t3.5 -22q2 -25 -8.5 -47.5t-32.5 -35.5q-5 -3 -10.5 -6 t-12.5 -4q-7 -2 -15.5 -1.5t-16.5 0.5q-2 1 -4 1t-4 1q-12 4 -22.5 11t-21.5 15q-2 2 -5.5 5t-5.5 5q-11 11 -23.5 20.5t-24.5 19.5q-15 11 -31 18.5t-30 17.5q-2 -1 -1.5 0.5t-1.5 0.5q-2 2 -4 3t-3 3q-3 -1 -7 3q-4 3 -7.5 6t-6.5 8q-3 4 -6.5 10t-10.5 7q-11 -1 -15 -11 t-8 -18q-1 -5 -3.5 -10t-7.5 -7q-14 -2 -22 7q-5 8 1 16q3 3 9 7q4 5 7 11t-1 13q-6 8 -12 9q-22 5 -36 -9q-6 -5 -10.5 -12t-3.5 -15l1 -22q2 -2 0.5 -4t-0.5 -4q0 -6 -1 -8q2 -1 0.5 -4l-2.5 -5q-3 -7 -8.5 -12.5t-12.5 -7.5q-8 -2 -16 -2q-7 0 -13 -5q-9 -5 -11 -14.5 t-7 -17.5q-6 -11 -16 -20t-22 -12q-22 -6 -41 6l-8 5q-16 14 -19 35q-4 17 2 32t9 31q6 31 -2 62q-2 15 -4.5 30.5t-3.5 30.5q-1 10 -1.5 19t-1.5 18q0 49 3.5 98t13.5 97q1 12 2 25t-1 25q0 14 -3 26.5t-6 24.5q-2 15 -1 30t6 28q3 8 6.5 15t8.5 14q4 5 7 9t8 7 q12 10 25 16t30 7q13 1 29 -2q8 -3 15.5 -6.5t15.5 -7.5q11 -8 20 -17.5t16 -20.5q4 -4 8.5 -4.5t9.5 0.5q9 4 15 11.5t10 15.5q4 11 11 20.5t18 11.5q4 -1 7.5 -1.5t5.5 -4.5t2 -8q0 -3 -1 -7q-2 -11 -10 -19t-16 -15.5t-14 -16t-5 -20.5q1 -5 4 -8.5t8 -3.5q8 2 15.5 0 t14.5 -4q8 -5 16.5 -9t16.5 -9q1 0 2.5 -1t3.5 -1q17 -8 33.5 -16t36.5 -7q13 2 18 13q5 14 2 28.5t-1 28.5q5 37 33 62q14 10 29 16.5t32 8.5q9 -1 18 -0.5t16 -4.5zM84 692h1h-1zM323 630q3 -5 3 -11q-2 -4 -5 -7.5t-8 -3.5q-10 0 -14 6q-2 2 -1.5 5.5t-0.5 5.5 q5 10 16 10q7 0 10 -5zM300 633q0 -2 -2 0q1 0 0.5 0.5t0.5 0.5t1 -1v0zM400 506q-6 5 -12.5 8.5t-14.5 3.5t-12 -6q-2 -3 0 -6l4 -6q7 -7 16.5 -10.5t19.5 -0.5q3 1 3 4t1 5q-2 4 -5 8zM253 218q-3 4 -9 4q-5 -2 -7 -5q0 -4 2 -8q4 -4 10 -4q2 0 6 4q2 2 0.5 4.5t-2.5 4.5z M183 58l3 -6q-1 -1 0 -1.5t1 -1.5q1 -5 -1.5 -9.5t-4.5 -8.5q-6 -6 -14 -9q-9 0 -13 4q-6 6 -4 15q4 13 11 18q7 7 17 3z" />
<glyph unicode="O" horiz-adv-x="743" d="M443 680q22 -8 42 -18.5t40 -18.5q13 -5 25.5 -7t24.5 -6q12 -5 23.5 -12t21.5 -15q8 -8 15 -15.5t13 -15.5q12 -16 21 -32.5t17 -34.5l11 -25q6 -16 10 -32.5t7 -33.5q1 -8 1.5 -15.5t2.5 -15.5q1 -17 2 -33t0 -33q-3 -34 -12 -67.5t-31 -60.5q-5 -8 -11 -15.5t-8 -16.5 q-6 -16 -15 -31t-23 -26q-1 -2 -2 -2t-3 -2q-8 -8 -7 -20q3 -8 10 -13l14 -10q6 -3 12 -7.5t8 -12.5q4 -9 -1 -19q-8 -10 -21 -8q-11 3 -16 11t-9.5 17t-9.5 17t-16 11h-12q-23 -11 -45 -23.5t-46 -20.5q-20 -6 -40 -11.5t-42 -5.5q-21 -2 -41 -0.5t-39 6.5q-15 5 -29.5 10 t-31.5 4q-14 -1 -27.5 0t-24.5 9q-15 10 -17 27q2 8 -1 14.5t-9 11.5q-8 4 -15 3q-6 -2 -11 -6t-13 -2q-9 6 -9 17q2 5 2 10t-3 9q-5 3 -11 2q-8 -2 -12.5 -8.5t-9.5 -13.5q-4 -6 -7.5 -12.5t-9.5 -11.5q-4 -4 -9.5 -3t-10.5 3q-5 4 -6.5 11t0.5 13q3 7 9 11.5l12 9t10.5 10 t5.5 13.5q1 13 -7 22t-14 20q-13 20 -21.5 42.5t-15.5 45.5l-2 10l-5 24q-3 26 -3 53q0 28 4 54q5 20 11.5 40.5t15.5 39.5q8 18 20 35t10 39q-2 5 -1 10.5t3 9.5q4 7 11 9.5t13 5.5q7 -1 11 4q4 4 2 12q-6 10 -15 15.5t-20 10.5q-3 3 -6 5.5t-5 6.5q-1 5 -1 9t2 7 q5 8 15 11q5 -1 9.5 -2t8.5 -5q7 -7 11 -15t10 -15q4 -5 9 -9t12 -5q4 -1 8 -0.5t9 1.5q12 4 22 12.5t21 14.5q15 10 30.5 17t31.5 14q7 1 12.5 3.5t12.5 3.5q16 4 32.5 5t33.5 1q23 -2 42.5 -8t39.5 -12zM201 679v-2v2zM645 650q3 -5 6.5 -10.5t1.5 -12.5q-1 -5 -2.5 -8.5 t-6.5 -5.5q-10 -3 -16 3q-11 11 -8 28q1 7 11 9q6 1 14 -3zM446 352l-8 7q-2 1 -5 2t-6 -1q-5 -7 -4 -13q2 -6 4.5 -12t7.5 -11q3 -2 5.5 -4t7.5 -2q5 3 7 9l-2 10t-3 10q-1 2 -2.5 2.5t-1.5 2.5zM406 318q-5 4 -9.5 7.5t-9.5 5.5q-7 2 -15 2t-14 -4q-4 -3 -7 -7t-2 -9 q0 -6 5 -10.5t3 -11.5q1 -2 -0.5 -4.5t-2.5 -4.5l-4 -4t-5 -2q-10 0 -16 7q-4 3 -5 6.5t-3 7.5q-2 6 -5 11.5t-8 8.5q-11 3 -18 -4q-9 -11 -3 -22q5 -9 10 -18.5t10 -17.5q6 -13 11 -26t11 -26q3 -4 6 -7.5t7 -7.5q16 -11 33 -8q14 2 23 12t15 21q5 11 7 22.5t3 23.5 q0 17 -3.5 32t-13.5 27zM302 278l-2 1h2v-1zM203 134q-9 9 -18 4q-7 -4 -7 -10q-2 -1 -1 -2.5t0 -3.5q2 -11 11 -14q7 -3 12 2q9 7 6 18zM134 66q4 -4 3.5 -10t-2.5 -11q-2 -4 -10 -8q-6 1 -11.5 2t-8.5 7q-2 4 -2 9t3 9t8 7t11 1q2 -1 4.5 -2.5t4.5 -3.5z" />
<glyph unicode="P" horiz-adv-x="723" d="M463 691q-53 11 -110 9q-12 -1 -24.5 -1.5t-24.5 -1.5q-11 -3 -23 -3.5t-23 -3.5q-16 -2 -31.5 -3t-31.5 1q-25 2 -49 8t-48 -1q-8 -2 -14.5 -5t-13.5 -5q-5 -4 -10 -6.5t-9 -7.5q-11 -8 -17 -19t-10 -23q-6 -24 -1 -57q9 -39 34 -74q16 -20 24 -47.5t-5 -53.5 q-5 -9 -14 -13.5t-18 -6.5q-7 -4 -12 -8q-2 -4 -4 -7t-4 -7q-8 -20 -6 -43.5t7 -43.5q9 -52 5 -97q-2 -17 -5.5 -34t-4.5 -35q-1 -20 3 -40t17 -35q5 -7 11.5 -11t12.5 -9q7 -2 15 -4t16 -3q15 0 29 4.5t27.5 9.5t27 8.5t28.5 1.5q14 -2 24.5 -8t24.5 -9q1 -1 2.5 -0.5 t2.5 -1.5q12 -2 26 -1.5t23 9.5h2l-0.5 0.5t-0.5 1.5q3 3 3.5 7.5t2.5 8.5q0 10 -5 18t-8 16q-2 6 0 13t6 12q11 11 23 5q11 -5 22.5 -11t23.5 -10q25 -6 50 -2q60 12 107 43q11 5 20.5 12.5t22.5 5.5q18 -3 30 -17.5t27 -23.5h1q11 -5 21 -2t7 17q-3 11 -13 17t-18 13 q-6 5 -12.5 11t-5.5 15q3 11 14 16q8 4 10 11.5t1 15.5q1 7 6 18q9 14 19.5 27t18.5 28q15 28 19.5 60.5t-1.5 64.5q-5 26 -16 50t-26 45q-2 4 -2.5 7t-2.5 7q-2 14 -10.5 27.5t-21.5 20.5q-8 4 -16.5 6t-11.5 11q-4 7 0 13q2 6 6.5 9t10 5.5t10.5 5t8 8.5q5 11 -1.5 21 t-24.5 5q-8 -5 -14 -12.5t-16 -9.5q-11 -5 -17 3q-8 8 -12.5 18t-13.5 17q-15 13 -32.5 19t-36.5 11zM662 617q-7 4 -16 3q-3 -2 -5 -3.5t-4 -3.5q-7 -10 0 -22q6 -4 11 -6q14 -2 19 8q6 8 1 15q0 3 -2 5zM16 592v-1v1zM58 478l-8 8q-4 1 -7.5 1.5t-7.5 -1.5q-10 -5 -12 -15 t-1 -21v-4q2 -13 9 -25.5t20 -18.5q3 1 7 1.5t7 2.5q6 5 7.5 12.5t1.5 15.5q0 2 -0.5 3t0.5 3q-2 11 -5.5 20.5t-10.5 17.5zM410 380q3 -5 1 -15q-1 -3 -4 -5t-5 -4q-3 -2 -5 0t-4 1q-4 6 -6 14q1 3 1.5 6.5t2.5 6.5q2 1 3.5 3t4.5 2q6 0 11 -9zM378 345h1q8 -8 14.5 -15.5 t10.5 -17.5q9 -21 9 -45q-2 -2 -3 -2.5t-2 -2.5l4 1q0 -15 -9 -25q-10 -8 -23.5 -7t-23.5 -8q-6 -5 -6 -13t-6 -12q-5 -5 -10 -5q-14 1 -18 12q-6 11 -3 23q2 9 5 18t1 18q0 8 -3 14q-2 12 -3 26.5t6 25.5l7 11q8 5 15.5 9.5t17.5 2.5q5 0 9.5 -2.5t9.5 -5.5zM605 190 q1 -1 1 -9q-2 -2 -4 -4.5t-6 -2.5q-6 0 -10 6q-2 5 -1 8q2 1 2.5 2.5t2.5 1.5q0 2 1 2t2 1q2 1 2.5 -0.5t1.5 0.5q6 -2 8 -5zM153 2q-2 0 -2 -1h1z" />
<glyph unicode="Q" horiz-adv-x="743" d="M496 679l36 -15q19 -5 34 -4q5 1 10 1.5t9 2.5q8 2 13.5 6t12.5 9t15.5 9.5t18.5 2.5q5 -2 8 -6t4 -9q2 -11 -7 -16q-5 -4 -10.5 -6.5t-11.5 -1.5q-5 -1 -11 -1q-5 0 -9 -4q-5 -3 -6.5 -8.5t-1.5 -11.5q4 -10 12 -16t16 -14l8 -8q8 -9 16 -17.5t15 -19.5l2 -1l8 -12 l8 -12l1 -3q10 -14 16 -28.5t12 -29.5q3 -14 5.5 -29t1.5 -30q-1 -6 -1 -12q0 -5 -2 -12q-2 -5 -3.5 -11.5t-0.5 -12.5q2 -17 9.5 -32.5t7.5 -33.5q0 -22 -2 -42t-13 -39q-6 -14 -14 -25t-18 -23q-6 -8 -5.5 -17.5t-7.5 -16.5q-9 -14 -25 -12q-8 1 -15.5 5.5t-15.5 9.5 q-3 1 -6.5 1.5t-5.5 -1.5q-5 1 -6.5 -2.5t-3.5 -6.5q-1 -3 -1.5 -6.5t1.5 -5.5q9 -12 21 -11q21 0 41.5 2t40.5 -3q2 -2 4.5 -2.5t4.5 -2.5q1 -2 3.5 -3t4.5 -3q8 -8 11.5 -21.5t-1.5 -24.5q-3 -8 -7 -13q0 -2 -2 -2q-3 -6 -8.5 -10.5t-10.5 -7.5q-6 -2 -11.5 -4t-13.5 -1 q-18 1 -31.5 12t-29.5 18q-7 3 -13.5 5.5t-14.5 0.5q-7 0 -12.5 -1t-10.5 -3q-6 -3 -12.5 -6t-13.5 -5q-5 -4 -15 -6q-6 -3 -12.5 -4.5t-12.5 -3.5q-1 0 -2 -1q-11 -1 -20 -4t-20 -3q-11 -2 -21.5 -3t-21.5 -1l-46 1q-10 2 -19.5 3t-20.5 3q-5 2 -10.5 2.5t-10.5 2.5 q-8 2 -16 4.5t-16 5.5q-4 0 -6.5 1t-5.5 3q-2 0 -2.5 1t-2.5 2q-9 3 -18 7t-20 2q-6 -2 -12.5 -2.5t-11.5 3.5q-6 5 -6.5 13t0.5 15q0 9 -7 14q-7 2 -11 -1l-8 -6q-8 -8 -9 -18t-3 -20q-2 -12 -14 -17q-5 -2 -11.5 -1.5t-9.5 5.5q-8 10 -5 20q5 12 12 18q5 8 12 16t2 19 q-5 10 -14.5 17t-16.5 15q-22 20 -34 46.5t-15 55.5q-2 16 -2.5 32.5t-8.5 31.5q-8 13 -13.5 27.5t-4.5 30.5q1 13 5.5 25t8.5 23q16 38 22 79q4 14 11 30q2 5 4.5 9t4.5 9q3 2 4.5 5.5t3.5 6.5l10 16t11 16q8 11 22 23q30 32 68 54.5t80 36.5q8 3 16 5l16 4l30 4t30 2 q34 0 66 -5t61 -16zM669 651q3 -2 6 -4.5t3 -7.5l-2 -6t-5 -5q-7 -6 -14 0q-4 3 -6 10q-1 4 2 6.5t5 5.5q3 3 10 1h1zM445 362q-2 3 -4.5 6t-5.5 4q-8 2 -15 -2q-5 -5 -9.5 -10.5t-10.5 -8.5q-2 0 -2 -2q0 -1 -2 0q-1 -2 -2 -2t-2 -1q-5 -2 -9 -3t-9 -3q-20 -9 -29 -27 q-3 -8 -6 -15.5t-5 -16.5q-2 -3 -1.5 -6.5t-0.5 -8.5q-2 -7 -1.5 -15t-0.5 -16q1 -6 2 -12.5t3 -12.5q11 -22 33 -30q2 -2 5.5 -0.5t6.5 -0.5q25 0 39 14q15 16 23 39t-2 45q-4 9 -13.5 11t-13.5 11q-5 11 2 20q5 8 13.5 10.5t13.5 10.5q3 5 5 11t-2 11zM336 352 q-1 4 -0.5 8t-4.5 5q-8 0 -12 -8q-3 -4 -4 -9.5t2 -10.5q2 -2 4 -2q7 2 10 7t5 10zM684 353q2 6 -3 11q-3 0 -5 -2q-4 -4 -4 -6q1 -3 1.5 -6t5.5 -4q3 1 5 7zM723 146q13 -8 11 -23q-1 -5 -4.5 -8t-8.5 -7q-11 -4 -18 2q-11 8 -9 22q2 11 9 14q9 6 20 0z" />
<glyph unicode="R" horiz-adv-x="733" d="M218 695q24 -5 48.5 -10.5t50.5 -4.5q17 -2 33.5 2.5t32.5 9.5q15 3 33 6q15 2 31 2.5t30 -0.5q10 0 18.5 -0.5t16.5 -1.5q9 -3 19 -4q20 -5 39 -14t33 -26q10 -5 20 -5q9 3 16 9.5t14 13.5q5 9 12.5 18t19.5 7q9 -2 14 -11q2 -8 -1.5 -15t-8.5 -12q-11 -8 -25.5 -17 t-19.5 -24q-2 -10 4 -14q1 0 1.5 -0.5t1.5 -0.5q4 -4 8.5 -2t9.5 2q5 -1 9 -2.5t6 -6.5q1 -12 -7 -22q-7 -11 -4 -25q5 -14 14.5 -25t15.5 -24q6 -11 8 -23t4 -25q2 -14 0.5 -29.5t-4.5 -29.5q-9 -44 -31 -80q-7 -9 -13 -18t-15 -18q-4 -5 -8 -9.5t-9 -9.5q-5 -4 -10.5 -9 t-9.5 -12l-4 -10t0 -10q2 -3 3 -5.5t4 -4.5v-1q10 -11 21 -18.5t20 -18.5q30 -33 36 -73v-23t-4 -22q-2 -6 -3.5 -11.5t-6.5 -10.5q-11 -14 -27 -19.5t-34 -3.5q-19 4 -39 8.5t-40 -0.5q-8 -5 -15 -8t-16 -4q-7 1 -14 2.5t-12 6.5q-2 2 -5 3.5t-5 6.5q-4 2 -5.5 6.5 t-3.5 8.5q-1 2 -2 4.5t-1 5.5q-3 10 -11.5 14t-18.5 4q-11 2 -21 -1t-21 -1q-16 3 -27 11q-8 5 -16.5 9t-19.5 2q-9 -2 -13.5 -10t-6.5 -16q0 -12 -4.5 -22.5t-15.5 -18.5q-4 -4 -8.5 -5.5t-9.5 -3.5q-5 -1 -8.5 -1.5t-8.5 -0.5q-2 0 -4 0.5t-4 -0.5q-7 2 -16 3.5t-18 3.5 q-14 3 -30.5 2.5t-29.5 -5.5q-8 -1 -14.5 -2.5t-13.5 -1.5q-8 -1 -15.5 -0.5t-14.5 2.5q-22 5 -40 21t-27 37q-6 14 -7 29.5t2 29.5q5 12 8 24t2 25q-4 27 -7 54.5t-4 55.5q-1 11 -0.5 22t0.5 23q1 2 0 5t1 6q0 11 1 21t3 21q0 2 1 3t0 3q3 20 8 40t4 42q0 14 -3 27t-7 25 q-5 23 -2.5 46.5t10.5 45.5q1 0 3 5q13 27 37 48t53 29q34 12 74 4zM715 621q2 -3 1 -6l-2 -6q-3 -6 -9 -6q-7 -1 -13 3q-5 8 -2 16q2 2 4.5 4t7.5 3q4 -1 7.5 -2.5t5.5 -5.5zM710 492h-2h2zM356 336q-6 5 -13.5 1.5t-12.5 -7.5q-5 -6 -9.5 -12.5t0.5 -14.5q5 -5 10.5 -2.5 t10.5 4.5l9 9q2 5 4 6q-1 2 0.5 2.5t1.5 2.5q1 3 -1 11zM401 297q-6 10 -17 8t-20 -7q-5 -3 -9.5 -7t-9.5 -8q-5 -3 -7 -8t-6 -9q-11 -14 -15 -31.5t1 -35.5q2 -4 4 -7t4 -7q8 -9 19.5 -12t23.5 -1q11 2 20.5 7.5t14.5 16.5q2 5 2.5 11t0.5 11q-2 8 -6.5 15t-8.5 15 q-2 7 -1 15t8 12q3 5 4.5 11t-2.5 11zM113 192q-4 4 -8 3q-3 0 -6 -3t1 -10q2 -2 5 -1.5t6 0.5q1 1 1.5 2t1.5 2q1 2 -1 7zM78 164q-1 2 -2.5 1.5t-3.5 -0.5q-5 -1 -8.5 -5.5t-5.5 -9.5q-1 -1 -0.5 -2t-1.5 -2q-1 -5 -0.5 -11t2.5 -11q2 -3 4 -3.5t4 -0.5q7 2 10 6.5t5 9.5 q2 7 2 15t-5 13z" />
<glyph unicode="S" horiz-adv-x="643" d="M435 684l20 -8t20 -10q5 -2 8.5 -5.5t8.5 -6.5q15 -17 32 -31t37 -24q3 -1 5.5 -3t6.5 -3q3 -3 6.5 -6t7.5 -6q29 -25 38 -62.5t-2 -72.5q-4 -8 -7 -17q-3 -4 -7 -12q-11 -17 -29 -29.5t-36 -20.5q-12 -3 -24.5 -5.5t-25.5 -1.5q-10 1 -19 2t-19 2q-5 0 -10.5 0.5 t-10.5 -1.5q-6 -2 -9.5 -6t-7.5 -9q-5 -12 -4 -20q2 -5 3.5 -9.5t5.5 -8.5q8 -10 18 -17.5t20 -16.5q3 -5 5 -6q18 -23 26 -46q3 -6 5 -12t8 -10q5 -3 10.5 -2t10.5 4q11 5 22 -4q8 -8 4 -19q-4 -10 -10 -12q-5 -3 -10 -2.5t-10 1.5q-12 0 -17 -11q-4 -12 -6 -24.5t-8 -23.5 q-3 -10 -8 -19t-11 -17q-2 -2 -3 -4t-3 -3q-3 -5 -8 -10l-10 -10q-7 -5 -12.5 -9.5t-13.5 -7.5q-16 -11 -34 -15l-36 -8q-16 -4 -33 -4t-34 -2q-15 1 -31 2t-30 4q-17 2 -32 7t-31 10q-11 0 -15 -6q-3 -5 -7 -9.5t-11 -4.5q-8 0 -15 5q-7 7 -5 19q2 5 2.5 10t-3.5 10 q-3 6 -11 4q-8 -3 -11 -10.5t-8 -14.5q-1 -7 -5.5 -12.5t-12.5 -7.5q-5 -2 -10.5 -1.5t-8.5 5.5q-4 3 -4.5 7t-0.5 8q2 8 8 12t10 10q6 8 12 16.5t10 18.5q-1 4 0 8t-1 8q-2 8 -4 15.5t0 15.5q2 12 7.5 24.5t16.5 18.5q5 2 11 3.5t11 -0.5q1 -1 3 -0.5t2 -1.5q4 -1 10 -5 q7 -5 14.5 -9t15.5 -6t12 -1q9 -2 17 2.5t14 10.5q2 2 4.5 5t3.5 7q5 8 4 19t-5 19q-3 7 -8 14q-5 8 -13.5 13.5t-17.5 8.5q-5 2 -8.5 3.5t-8.5 3.5q-15 8 -29 16t-26 19q-11 8 -19.5 17t-16.5 20q-5 9 -11.5 17.5t-10.5 18.5q-2 3 -3 6t-3 6q-3 10 -6.5 19.5t-5.5 20.5 q-12 53 1 102q6 23 18 50q2 0 2 1t1 2q8 17 20.5 31.5t26.5 28.5q17 15 37 26t41 19q6 4 13 5t13 4q2 1 5 1t6 2q9 1 18.5 3t18.5 3q2 1 3.5 0.5t3.5 -0.5q35 4 68 4q34 0 69 -5q12 -2 23.5 -5t22.5 -6zM552 685q4 -6 2 -12q-3 -6 -9 -10.5t-12 -7.5q-6 -2 -14 -3t-14 4 q-6 6 -5 12q4 10 12.5 14.5t16.5 7.5q4 0 7 1t6 -1q7 -2 10 -5zM490 613q-4 2 -7 2q-2 0 -3.5 -1.5t-3.5 -1.5q-3 -4 -2.5 -7.5t2.5 -6.5q8 -4 14 -2q3 2 5 8q0 3 -1.5 5t-3.5 4zM402 401q-4 3 -10 1q-8 -5 -10 -12.5t-4 -15.5q0 -7 3 -13q2 -3 5 -3h5q7 3 10 11q4 7 5 15.5 t-4 16.5zM94 293l-1 -1l-1 1l1 1q1 0 0.5 -0.5t0.5 -0.5zM538 250q2 -5 1 -9.5t-3 -8.5q-5 -7 -13 -7q-10 -1 -18 10q-2 5 -0.5 9.5t3.5 9.5q2 2 4 3.5t4 2.5q4 0 7 0.5t7 -1.5q6 -6 8 -9z" />
<glyph unicode="T" horiz-adv-x="705" d="M279 697q26 -5 53 -11t55 1q14 3 27 8t27 4q5 0 10.5 0.5t10.5 -1.5q20 -1 35.5 -9.5t31.5 -19.5q3 -3 7 -5l8 -4q6 -3 12.5 -6t13.5 -3q5 0 10.5 -0.5t10.5 1.5q8 1 14.5 7.5t11.5 13.5q4 10 11 18t19 8q9 0 14 -8q1 -5 0.5 -11.5t-5.5 -10.5t-10 -7t-8 -9l-3 -7l2 -9 q4 -5 6.5 -9t7.5 -8q7 -8 13 -16t11 -18q14 -31 10 -66.5t-27 -61.5q-3 -4 -7.5 -8t-8 -8.5t-4.5 -9.5t4 -11q3 -3 7 -5t8 -4.5t6.5 -6t1.5 -9.5q0 -8 -9 -12l-6 -2t-7 1q-11 3 -17.5 13t-18.5 12q-13 2 -22 -7q-2 -2 -3 -4t-1 -5q2 -9 8.5 -16t13.5 -12q6 -8 12.5 -15.5 t4.5 -18.5q-4 -14 -18 -16q-14 -1 -20 10.5t-13 19.5q-6 9 -16 13t-21 2q-5 -2 -8.5 -4.5t-7.5 -5.5q-2 -2 -3.5 -4t-3.5 -4q0 -2 -1 -3t-2 -3q-10 -22 -7 -44q2 -2 2 -5t2 -5q1 -5 1.5 -10.5t0.5 -10.5l1 -1l-2 -32t-6 -30v-1q-4 -9 -7.5 -17.5t-3.5 -18.5q0 -7 1.5 -13.5 t2.5 -14.5q3 -17 2.5 -35t-11.5 -32q-7 -9 -17 -12.5t-21 -4.5q-6 -1 -11.5 -3t-10.5 -4l-10 -4t-10 -5q-8 -5 -17 -10l-18 -10q-12 -5 -25 -8.5t-27 -3.5q-18 1 -34.5 5.5t-30.5 15.5q-16 10 -24 23q-10 11 -15.5 24t-9.5 27q-5 19 -4.5 39t5.5 39q5 15 10 30.5t-1 32.5 q-4 9 -7 18t-3 18q-1 3 -0.5 6t0.5 6q0 8 2.5 16t5.5 15q5 7 6.5 15.5t2.5 16.5q-2 1 -1 2.5t-1 3.5q-2 5 -11 7q-11 1 -20.5 -3t-20.5 -4q-11 -1 -20.5 0.5t-20.5 3.5q-4 2 -8.5 3t-8.5 4q-4 2 -7.5 4t-7.5 4q-2 1 -3 2.5t-3 1.5q-3 4 -6.5 5.5t-6.5 4.5q-4 3 -7.5 7 t-6.5 8q-24 29 -33 65t-2 74q5 14 11 28.5t16 25.5q5 7 9.5 15.5t-1.5 17.5q-5 9 -13 14.5t-16 12.5q-10 10 -7 24q4 13 16 15q8 0 16 -5q11 -14 15.5 -29.5t20.5 -26.5q4 -3 8 -1.5t7 3.5q4 3 4.5 6.5t0.5 7.5t1 7.5t4 6.5q5 4 10 6t12 0q8 -2 13.5 3t12.5 7q22 17 56 20 q15 2 30 2t30 -3zM149 618q-2 3 -6.5 4t-7.5 -2q-4 -8 -1 -13q2 0 3 -2t3 -1q2 -2 3.5 -1t3.5 1l3 7q1 2 -1 7zM113 342q2 -4 3.5 -9t-0.5 -10l-3.5 -7t-6.5 -5q-3 -2 -7 -1t-7 1q-3 2 -6 3t-5 5q-2 2 -2.5 4t-1.5 4q-4 11 2 18q2 0 2.5 2t2.5 2q3 3 8 3t10 -1l6 -4t5 -5z M441 112q-2 5 -5.5 6t-8.5 2q-8 -2 -12.5 -9.5t-9.5 -13.5l-2 -1q-5 -5 -10.5 -9t-10.5 -7q-7 -5 -5 -15q1 -4 4 -5.5t6 -3.5q8 -2 15 0.5t15 4.5q11 7 18.5 18t8.5 24q-1 2 -2 4.5t-1 4.5zM476 25q0 -7 -4 -11q-3 -3 -6.5 -4.5t-6.5 -3.5q-9 -2 -18 0q-5 2 -7 6 q-1 2 -1.5 5t1.5 5q2 4 5 5t5 4q5 2 9 2q5 0 10 1q4 -2 7.5 -3t5.5 -6z" />
<glyph unicode="U" horiz-adv-x="699" d="M577 677q5 -5 8.5 -10t7.5 -10q2 -5 6 -10t11 -4q5 0 10 2t7 7q4 6 6 13.5t4.5 14.5t7.5 12.5t14 6.5q7 2 13 -4q2 -3 3 -7t1 -7q-2 -9 -9 -16t-12 -15q-5 -10 0 -16q2 -4 5.5 -4.5t8.5 -1.5q4 0 7 2.5t6.5 4.5t7.5 2.5t9 -2.5q8 -8 5 -20q-4 -6 -7 -12t-3 -13 q1 -12 5.5 -22.5t5.5 -23.5q2 -5 2 -11v-12q2 -10 0.5 -19t-2.5 -19q-1 -5 -1 -10q0 -4 -2 -9q-6 -30 -20 -62q0 -7 -0.5 -14.5t3.5 -12.5q6 -11 12 -21.5t8 -23.5q2 -8 2 -17t-1 -19l1 -1l-4 -21q-5 -24 -16.5 -46t-26.5 -42q-5 -8 -6.5 -17.5t2.5 -17.5q0 -4 1 -8.5 t1 -7.5q0 -11 -6 -19t-15 -13q-2 0 -4 -2t-4 -2q-11 -3 -21.5 -2t-20.5 -4q-10 -6 -19 -12.5t-18 -13.5q-3 -1 -5 -3t-5 -3q-6 -4 -11 -7l-10 -6q-8 -4 -14.5 -7.5t-14.5 -7.5q-5 -2 -5 -3q-26 -10 -59 -19q-9 -2 -18.5 -3t-18.5 -3q-24 -3 -47 -3q-35 0 -72 8 q-21 5 -40 12.5t-38 17.5q-6 1 -11.5 2.5t-10.5 -0.5q-7 -2 -13.5 -4.5t-12.5 2.5q-8 4 -9.5 10t-0.5 14q0 4 -3 7q-7 2 -10 1q-5 -2 -6.5 -5.5t-4.5 -5.5q-7 -11 -12.5 -23.5t-16.5 -20.5q-4 -5 -9 -5h-9q-5 2 -9 4.5t-6 7.5q-2 4 -1.5 8.5t1.5 9.5l11 13q13 13 27 23.5 t26 24.5q2 5 4 9.5t1 10.5q-1 1 -0.5 2.5t-0.5 2.5q-2 2 -3.5 4.5t-4.5 2.5q-5 1 -9.5 -0.5t-9.5 -2.5q-7 -2 -13 0.5t-11 6.5q-8 13 -7 23q1 5 -1 9.5t-4 8.5q-4 11 -10 20.5t-9 20.5q-4 7 -5 15q-5 19 -5.5 38.5t0.5 39.5q1 31 5.5 60.5t4.5 59.5q-2 1 -2 4l-1 1h1h-1 l1 -1q2 1 1 2t-2 1v2l-1 -1v1q1 0 1 3q-1 -1 -2 1q1 2 -0.5 3.5t0.5 2.5q0 1 -0.5 1.5t-0.5 1.5h1q1 1 -1 1q-1 0 0 2h-1v-1h-1v2h1v0q0 1 -1 1v1h1v1h-1l-1 1t-0.5 3t-1.5 2l-1 1l1 1q-1 0 -0.5 1t-0.5 1q1 0 2 -2v3h-1q0 1 -2 8q-1 1 -0.5 2.5t-1.5 3.5q1 2 -0.5 1.5 t-0.5 1.5v4q-2 7 -2.5 14.5t-0.5 15.5q0 5 0.5 9t0.5 9q2 15 6.5 29.5t9.5 27.5l2 2q6 14 14 27.5t20 24.5q5 6 12 10.5t13 10.5q16 8 32 15.5t35 9.5q13 1 25 1t24 -3q17 -6 33 -13.5t28 -21.5q31 -30 42 -68q11 -33 8 -64q-2 -22 -6 -42.5t-10 -40.5q-5 -13 -8.5 -27.5 t5.5 -28.5q5 -9 10.5 -16.5t8.5 -17.5q6 -22 1 -47q1 -2 -0.5 -4.5t-1.5 -5.5l-1 -7q-2 -12 -1.5 -24.5t7.5 -23.5q2 -3 4 -4.5t4 -3.5q5 -2 11 -2q7 0 11 2q9 2 16 8t12 14q3 1 3.5 3.5t2.5 4.5q11 18 18.5 39t5.5 44q0 8 -1 13q-2 1 -1 1.5t0 1.5q0 5 -1 9.5t-1 9.5 q-1 9 -2.5 18t0.5 19q-2 9 -2 17t3 17q1 20 2 38.5t-2 37.5v24q0 13 3 24q6 43 31 77q13 17 30 28.5t37 15.5q4 1 8 0.5t8 0.5q32 -3 53 -24zM53 686q7 -8 3 -17q-3 -9 -11 -13q-10 -4 -18 -2q-7 2 -7 7q-2 2 -1.5 6t1.5 7t3 5t4 5q2 2 5 3t6 3q10 4 15 -4zM650 592 q-3 9 -9 13q-5 2 -6 2q-3 2 -6 -1q-4 -4 -4 -8q-2 -9 4 -15q1 -4 4 -5l6 -2q7 0 10 5q2 6 1 11zM397 222l-3 1q-5 3 -14 -1q-10 -3 -20 -9.5t-13 -17.5q-1 -5 3 -11q5 -5 13 -3t14 4q2 0 2 1q0 2 2 2q7 5 12.5 10.5t7.5 13.5q0 8 -4 10zM100 205q-2 8 -10 8q-7 0 -12 -10 q0 -3 -2 -6t-1 -7q2 -2 3 -5t5 -4q2 1 3 0t3 0q3 2 5 4.5t5 4.5q1 4 2 7.5t-1 7.5zM625 83q3 -3 6 -6.5t3 -8.5q3 -8 -5 -17q-4 -4 -10 -5t-11 1t-8.5 6t-4.5 9q-3 10 9 20q2 2 5 3.5t7 -0.5q2 2 4 0t5 -2z" />
<glyph unicode="V" horiz-adv-x="590" d="M178 688q4 -2 7.5 -3.5t7.5 -3.5q8 -5 18.5 -6t20.5 0q13 3 25 -1.5t21 -12.5q4 -5 7.5 -10t5.5 -11q3 -4 5 -14q4 -12 4.5 -25.5t6.5 -25.5q2 -3 4 -6.5t7 -4.5q5 -5 11 -4t11 3q16 9 27 24q8 8 12 18t9 21l1 3q19 42 58 62q7 0 14 5q7 0 9 2q19 1 36.5 -2t31.5 -15 q23 -17 29 -44t-2 -54q-7 -20 -18.5 -37t-13.5 -40t-6.5 -44.5t-9.5 -43.5q-4 -15 -9.5 -29.5t-10.5 -29.5q-1 -4 -2.5 -7l-3.5 -7q-3 -7 -5.5 -13.5t-6.5 -13.5q-5 -11 -10 -20t-10 -19q-18 -30 -30 -60q-5 -17 -5 -35q0 -17 -1 -35q-1 -8 -1.5 -17.5t-2.5 -17.5 q-4 -15 -9 -29t-14 -28q-8 -10 -17 -19.5t-20 -16.5q-2 -2 -4 -2q-13 -9 -27.5 -13t-31.5 -6q-16 0 -34 5q-5 1 -9.5 3.5t-9.5 4.5l-15 9q-4 5 -8.5 8.5t-7.5 8.5q-17 22 -24 48q-6 12 -20 10q-6 0 -13 1t-9 8q-3 7 -2 15q3 11 13.5 12t19.5 2q5 1 9 7q3 9 -2 16q-5 5 -13 5 q-9 -1 -16.5 -5.5t-14.5 -10t-14.5 -10t-16.5 -5.5q-11 2 -16 13q-4 11 4 19q4 5 9 6.5t10 3.5q11 2 21.5 6t15.5 16q3 10 -0.5 18t-8.5 16q-13 21 -25 42t-22 44q-2 0 -1 1q-14 29 -25 64h-1q-5 17 -8 34.5t-5 35.5q0 22 -4 39q-5 17 -14.5 31t-15.5 30q-5 16 -6.5 33 t2.5 33q4 19 13.5 35t25.5 27q20 15 46 19t52 -2q5 -2 11 -3.5t11 -4.5zM340 531q-3 5 -9.5 7t-11.5 -1q-3 0 -5 -3t-4 -5t-1.5 -5t0.5 -6l4 -5q7 -7 18 -3q10 4 11 11q1 2 0 5t-2 5zM462 176q4 -8 2.5 -17.5t-3.5 -17.5q-2 -3 -2.5 -6.5t-2.5 -5.5q-2 -5 -4 -8t-5 -7l-7 -4 q-8 0 -10 7q-2 13 1 23.5t7 21.5q3 4 7 12q2 2 4 3l4 2q3 2 5 0.5t4 -3.5zM122 96q3 -5 2.5 -11.5t-2.5 -11.5q-3 -4 -11 -8q-6 -1 -12.5 0.5t-10.5 8.5q-7 12 1 23q7 7 15 8q9 0 18 -9z" />
<glyph unicode="W" horiz-adv-x="925" d="M849 697l7 -3q22 -8 34 -27.5t13 -42.5q2 -20 -4.5 -36.5t-16.5 -32.5q-11 -20 -21.5 -40.5t-14.5 -43.5q-2 -11 -3.5 -20t-1.5 -19q-3 -19 -4 -38t-5 -38q-7 -33 -16 -65.5t-23 -62.5l-1 -3q-11 -25 -24 -41q-3 -2 -4.5 -5t-3.5 -5q-3 -2 -4.5 -5.5t-3.5 -6.5 q-10 -11 -5 -27q1 -6 3 -12t-1 -11q-1 -4 -4 -6t-5 -5q-3 -1 -4.5 -3.5t-3.5 -4.5q-7 -10 -1 -20q2 -5 5 -9t8 -6q10 -6 22 -7.5t20 -11.5q2 -8 2 -9q0 -6 -1 -8q-2 -2 -3.5 -4.5t-4.5 -2.5q-10 -3 -17.5 1t-14.5 9q-8 5 -16.5 10t-18.5 5q-7 -2 -13 -4.5t-11 -7.5 q-14 -12 -31.5 -17.5t-36.5 -6.5q-3 2 -5 0q-10 2 -11 2q-7 2 -13 3.5t-11 3.5q-16 7 -29.5 18.5t-21.5 27.5q-10 18 -11 40q-2 1 -1 2t0 3q-3 14 -10.5 31.5t-23.5 27.5q-2 2 -5 3.5t-5 3.5q-4 2 -7.5 4t-7.5 2q-2 1 -4 0.5t-4 0.5h-12q-7 0 -11 -4q-2 -2 -4 -2.5t-2 -2.5 q-6 -4 -11 -15q-2 -6 -3 -13t1 -14q-1 -3 0 -7t0 -7q0 -5 -0.5 -10.5t-1.5 -10.5q-4 -24 -18 -44q-12 -17 -30 -27q-15 -12 -39 -17q-40 -7 -73 9q-5 2 -9.5 5t-9.5 6q-2 2 -4.5 3.5t-4.5 4.5q-14 13 -21.5 29.5t-12.5 34.5q-4 8 -8 17t-10 17q-7 13 -12 29q-6 29 1 51 q0 5 -2 11q-4 4 -8.5 6.5t-10.5 0.5q-10 -2 -21 -10q-6 -6 -11.5 -12.5t-13.5 -11.5q-6 -6 -13 -6q-6 -2 -11 3q-9 7 -6 16q2 8 7.5 12.5t11.5 6.5q5 4 11.5 5t11.5 4q4 2 8 5t5 8q1 6 -2 14q-4 5 -8.5 6.5t-7.5 6.5q-5 10 -4 15q5 45 -4 83q-1 2 -0.5 3.5t-1.5 3.5 q-8 35 -20 67t-29 63q-7 13 -11 27.5t-5 31.5q0 6 0.5 12t1.5 11q6 45 42 77q43 39 109 28q44 -8 74 -41q13 -14 20 -30.5t11 -33.5q2 -2 1.5 -3t0.5 -3q2 -5 5.5 -10t8.5 -8q3 -5 13 -6q8 -2 15 0t15 3l17 7q11 8 18.5 17.5t16.5 19.5v2q7 7 12 15l10 16q3 5 6.5 8.5 t5.5 8.5q3 1 5 5q11 10 22 18t24 13q5 1 9.5 2.5t9.5 3.5q2 -2 4.5 -1t4.5 1q14 0 27.5 -5.5t23.5 -16.5q6 -5 11.5 -12t11.5 -13t13 -9t16 0q4 2 7.5 3.5t7.5 3.5q0 3 5 3q8 6 15 13.5t15 14.5q5 8 13.5 11.5t17.5 3.5q8 -2 11 -8q5 -11 -4 -21q-8 -10 -19.5 -12.5 t-22.5 -8.5q-11 -7 -23 -14t-13 -22q0 -6 6 -7q7 -2 13 0.5t10 7.5q1 2 3 3t4 3q9 7 19 0q5 -2 5 -7q0 -8 -1 -10q-2 -3 -4 -5.5t-5 -5.5q-7 -4 -12.5 -10.5t-3.5 -14.5q-2 -4 -0.5 -7.5t2.5 -5.5q12 -17 30 -12q1 1 2 0.5t2 0.5l9 3q2 2 3 2q2 0 2.5 1.5t2.5 1.5 q13 7 18.5 18t7.5 22.5t3 23.5t6 22q6 15 15.5 28.5t23.5 21.5q2 2 5 3t6 3q14 7 30.5 9t31.5 -3zM345 533q-5 6 -17 8q-19 3 -30 -8q0 -2 -0.5 -4t0.5 -4q5 -7 12 -7.5t14 -0.5q2 0 4.5 0.5t4.5 0.5q2 2 5.5 3.5t6.5 3.5q0 2 0.5 4t-0.5 4zM811 474q-2 0 -4 0.5t-3 -1.5 q-2 -1 -2.5 -3t-2.5 -2q-3 -5 -3.5 -11t0.5 -12q1 -9 8 -16q3 -3 9 -1q5 2 5 6q2 2 2.5 6t1.5 7l-1 7q1 2 0 4t-1 4zM390 162q0 7 -8 9q-5 0 -9 -3.5t-6 -7.5q-1 -2 -0.5 -3t-1.5 -1q-2 -13 5 -17q11 -2 18 7q2 4 3 8t-1 8zM788 105q3 -9 -1 -16q-2 -5 -6.5 -6t-8.5 -1 q-11 2 -12 11h-1q-2 12 5 16q6 6 14 4q3 -1 5.5 -3.5zM153 108q12 -3 16 -12q2 -2 2 -3q0 -2 1 -3q4 -12 -4 -20q-2 -2 -3 -2l-2 -2q-2 1 -3.5 0t-2.5 1q-13 3 -17 13q-6 9 -3 17q0 3 2.5 5.5l4.5 4.5q2 -1 3.5 1t3.5 0h2z" />
<glyph unicode="X" horiz-adv-x="673" d="M648 657q-8 17 -23.5 27t-32.5 13q-12 4 -24.5 3t-23.5 -4q-14 -3 -25 -10t-22 -15q-5 -7 -10 -12t-9 -12q-5 -5 -7.5 -12t-5.5 -13l-6 -18q-5 -6 -9 -13.5t-9 -12.5q-3 -3 -7 -6t-7 -6q-17 -11 -37 -11q-17 2 -30 13t-18 26q-7 11 -14.5 22.5t-18.5 21.5q-35 33 -76 46 q-42 15 -86.5 8.5t-77.5 -31.5q-8 -6 -15 -14t-13 -16q-7 -9 -11 -18.5t-8 -20.5q-1 -5 -2 -9t-1 -9q-2 -10 -2 -15q0 -9 1 -14q2 -11 3 -21.5t5 -21.5q5 -11 11 -23t14 -22q2 -4 5 -6t5 -5q4 -4 7 -8t8 -6q4 -5 8 -7t7 -7q9 -15 14 -33q8 -23 19 -38q2 -5 5.5 -8t7.5 -7 q5 -3 9.5 -7.5t10.5 -6.5q2 -1 4 -3t4 -2q2 -2 4 -2.5t3 -1.5q6 -2 12 -5t10 -8q4 -9 2 -15q-6 -11 -16 -11q-2 1 -6 1q-3 0 -5 2l-0.5 0.5t-1.5 -0.5l1 -1q-4 1 -4 3q-4 1 -9 2t-10 -1q-6 -3 -8 -9q-1 -5 -1.5 -10t-4.5 -10q-3 -3 -8 -3.5t-8 1.5q-8 6 -14.5 15t-17.5 8 q-5 1 -8.5 -2t-6.5 -6q-2 -4 -3 -8.5t1 -8.5q2 -6 6.5 -10t9.5 -7.5t8.5 -7.5t3.5 -11q0 -5 -3 -9t-6 -6q-2 -3 -4.5 -4t-3.5 -3q-14 -13 -24 -29t-14 -34q-6 -20 -3 -40.5t13 -37.5l1 -1q9 -14 23.5 -24.5t31.5 -14.5t35.5 -3t34.5 7q11 5 21.5 11.5t19.5 14.5q7 9 14.5 17 t10.5 19q3 6 5.5 12.5t4.5 13.5l4 6q2 5 6 7t9 4q9 2 16.5 -1.5t14.5 -8.5q7 -6 12 -13.5t11 -15.5q29 -35 66 -53q24 -15 56 -17q11 -1 21 0t18 6q7 4 15 4h8t8 -1q20 -5 41 -6q2 0 2.5 1t1.5 0l12 2q4 0 5 1q11 2 28 11q8 4 13.5 9.5t10.5 11.5q2 5 5 8.5t5 8.5 q5 10 7.5 20t4.5 21h1q2 23 -2.5 46.5t-12.5 44.5l1 2q-3 2 -5 8q-4 8 -8.5 15.5t-8.5 15.5l-2 1q-15 20 -30 35.5t-30 25.5q-9 6 -15 15.5t-10 19.5q-1 2 -0.5 3t-0.5 2q-5 20 6 41q5 7 11 13t12 13q10 9 10.5 21.5t4.5 23.5q1 4 4.5 5.5t6.5 3.5q4 1 12 -3q6 -6 12 -13.5 t16 -7.5q7 0 11.5 4.5t6.5 9.5q2 10 -3.5 15.5t-13.5 9.5t-15 8.5t-8 14.5q-2 14 12 23q22 16 36 45q12 22 11 48t-13 47zM17 592h-1v1v-2q1 0 1 1zM388 514q0 -2 0.5 -3.5t-1.5 -3.5q-4 -5 -10 -4q-10 1 -19 6.5t-13 15.5q-2 5 3 11q5 2 10.5 0.5t10.5 -3.5q13 -6 19 -19z M604 414q-1 3 -9 8q-2 0 -3.5 1t-3.5 -1q-5 0 -8.5 -3t-5.5 -6q-5 -8 -1 -17q7 -9 17 -10q7 1 13 7q8 10 1 21zM624 229q-2 2 -2 0l1 -1q0 1 1 1zM311 150q3 -6 -2 -11q-4 -4 -13 -3q-6 6 -5 10v4q3 2 4.5 4t5.5 2q2 0 3.5 -0.5t3.5 -0.5z" />
<glyph unicode="Y" horiz-adv-x="661" d="M633 648q-9 17 -24.5 29t-33.5 18q-27 9 -55 2t-48 -25t-27 -42q-1 -3 -2 -6.5t-2 -5.5q-1 -3 -2 -5.5t-1 -5.5q-4 -10 -8.5 -18.5t-12.5 -16.5q-7 -10 -16 -14q-2 -3 -5.5 -4.5t-5.5 -3.5q-11 -5 -22.5 -8t-23.5 -1q-2 0 -2.5 1t-1.5 0q-24 5 -29 29q-2 10 -2 16t2 16 q3 7 3.5 14t0.5 15q0 12 -5 20q-6 12 -17.5 19t-25.5 6q-8 -1 -17 -1.5t-18 -0.5q-16 0 -32 8q-19 9 -41 11.5t-44 -1.5q-25 -7 -47 -22.5t-35 -38.5q-3 -7 -6 -12t-4 -13q-4 -7 -4.5 -14.5t-2.5 -15.5q0 -17 3 -34t11 -31q30 -39 40 -81q1 -8 4 -15t5 -15l6 -14t8 -13 q3 -6 8 -12t9.5 -11.5t6.5 -12t-1 -14.5q-8 -13 -21.5 -19t-24.5 -16q-5 -5 -5.5 -12.5t1.5 -13.5l5 -6q6 -4 13 -2q9 2 13.5 8t9 13t10 12t15.5 5q5 -1 8.5 -2.5t5.5 -6.5q1 -2 1 -7q0 -2 -2 -6q-1 -2 -3 -3.5t-3 -4.5l-3 -3t-2 -3q-2 -2 -2 -6t-1 -6l2 -10t5 -9 q6 -7 13 -13.5t11 -15.5l3 -9q3 -14 8.5 -27t7.5 -27q2 -9 -1 -17l-6 -16q-2 -11 -1.5 -21.5t5.5 -20.5q18 -35 54 -48q25 -11 53 -11q29 0 55 7q3 0 6.5 1.5t7.5 1.5q10 4 20.5 2.5t19.5 -3.5q11 -4 24 -4.5t24 3.5q9 5 17.5 12t13.5 18q5 10 7 21t2 22q2 20 -4.5 37 t-4.5 37t11 38t21 34l2 2q0 2 2 4q0 2 1 2l4 6t4 7q13 20 16 51q0 4 1 7.5t-1 7.5q1 22 6.5 43t11.5 42q3 6 5.5 12.5t5.5 13.5q5 14 11 27.5t13 27.5q7 13 16 24.5t17 23.5q0 1 1 1t0 1q20 24 24 56.5t-12 61.5zM350 506q4 0 6 -2.5t4 -4.5q4 -6 1 -11q-5 -5 -10 -5 q-7 0 -10 1q-4 2 -7.5 4.5t-4.5 7.5q0 3 1 6t5 4q5 3 13 1zM506 332q2 -8 0.5 -15.5t-3.5 -15.5q-2 -2 -3.5 -5t-5.5 -5q-4 0 -4 4q-2 8 -0.5 15.5t3.5 14.5q1 1 1 3t1 3q2 2 3.5 4.5t5.5 1.5zM580 290q-1 7 -4 13.5t-9 10.5q-5 2 -11 0q-2 0 -2 -1h-2q-11 -10 -14 -28 q1 -4 1 -8v-8q0 -7 5 -15q-1 -3 1.5 -4.5t3.5 -3.5q6 -5 14 -3q4 1 7 4q3 2 4 5t3 5q2 8 3.5 16.5t-0.5 16.5z" />
<glyph unicode="Z" horiz-adv-x="584" d="M218 692q4 0 8 -2q1 -2 2.5 -1t2.5 -1q5 -1 8.5 -2t7.5 -2q5 -2 11 -4t13 -3q19 -4 39 -6.5t41 -0.5q14 1 27.5 3t25.5 7q8 2 14 4.5t13 4.5q5 4 11.5 5t12.5 3q6 0 12.5 0.5t13.5 1.5q19 -2 36.5 -10t28.5 -25q4 -4 5.5 -8.5t4.5 -9.5q4 -11 5 -20q2 -15 0 -29t-6 -28 q-3 -8 -6 -16.5t-8 -16.5q-10 -17 -19.5 -32.5t-17.5 -32.5q-2 -5 -4.5 -8t-3.5 -7q-8 -14 -13.5 -29t-11.5 -30l-2 -6l-2 -6q-2 -14 1 -27.5t16 -21.5q11 -10 24.5 -13.5t22.5 -16.5q2 -3 3 -7.5t-1 -8.5q-2 -5 -6 -8.5t-9 -3.5q-15 -2 -24.5 9t-19.5 19q-8 6 -13 8 q-9 4 -18 6q-8 1 -15.5 -0.5t-11.5 -8.5q-5 -6 -3 -15q2 -6 8.5 -8.5t11.5 -4.5q3 -2 6.5 -4t5.5 -6q2 -9 -5 -20q-10 -10 -23 -8.5t-25 3.5q-8 1 -15.5 -4t-10.5 -12q-1 -4 -1.5 -7t0.5 -7q1 -6 4.5 -10.5t7.5 -9.5q12 -11 27 -16t32 -1q1 1 3 0q10 2 20.5 1.5t19.5 -1.5 q24 -5 41 -19q26 -22 21 -57q-3 -12 -7.5 -23t-12.5 -21q-2 -3 -4.5 -5.5t-4.5 -5.5q-20 -21 -47 -35q-7 -2 -13 -5.5t-14 -4.5q-5 -1 -10.5 -2t-10.5 -2q-5 0 -11.5 -0.5t-13.5 0.5q-2 1 -4 0t-4 1q-8 0 -14 1.5t-14 2.5q-2 2 -5 1.5t-5 1.5q-8 2 -17 3t-17 3 q-6 1 -11.5 1.5t-10.5 1.5q-7 1 -14 1.5t-13 1.5h-8t-9 1q-17 0 -34 -1t-32 -6q-8 -2 -16.5 -4.5t-16.5 -4.5q-10 -2 -20.5 -3.5t-20.5 -0.5q-2 1 -2.5 0t-2.5 1q-30 0 -55 19q-17 14 -23 33q-2 8 -3 15.5t1 15.5q2 21 12.5 38.5t24.5 32.5q5 2 8.5 6.5t8.5 6.5q2 4 5 5t5 4 q8 6 14.5 15t4.5 20l-5 9q-4 3 -7 6t-5 7q-3 13 9 20q8 4 16 1t17 -1q7 2 13.5 5.5t9.5 10.5q3 6 3.5 12.5t1.5 14.5q2 13 10 23.5t19 18.5q9 7 10 17q-2 10 -9 14q-11 4 -20 -2.5t-19 -8.5q-13 -5 -25 -1t-22 12q-11 10 -15.5 22.5t-9.5 25.5q-7 22 -21.5 41t-22.5 41 q-8 16 -9.5 34.5t0.5 36.5q4 23 13 43.5t26 37.5q27 27 59 38q9 2 18.5 4t19.5 4q31 1 59 -8zM46 432q10 -5 15 -15t7 -20q2 -7 1.5 -14t-4.5 -12q-9 -9 -18 -6q-4 2 -9 7q-11 9 -14 24q-1 1 -0.5 2.5t-0.5 2.5q1 4 -1 6q0 7 1.5 13.5t6.5 11.5q6 4 13 2zM239 390h-3 q-7 2 -12 -2l-4.5 -4.5t-1.5 -6.5q1 -5 6 -8q11 -5 21 0q2 2 5 3.5t2 6.5q-3 9 -13 11zM470 259q4 0 6 -1q14 -8 14 -23q0 -3 -1 -5.5t-2 -4.5q-7 -5 -17 -2q-5 1 -8.5 4t-5.5 6q-3 5 -4.5 10.5t1.5 10.5q3 4 7.5 5.5t9.5 -0.5z" />
<glyph unicode="\" horiz-adv-x="332" d="M303 682l-9 -39l-220 -631q-14 -14 -32 -11q-14 5 -15.5 20t4.5 26l226 644q8 11 24.5 8.5t21.5 -17.5z" />
<glyph unicode="a" horiz-adv-x="596" d="M342 521q16 -5 30 -12.5t25 -20.5q11 -11 17.5 -24.5t10.5 -28.5q1 -11 1.5 -20.5t4.5 -18.5q5 -8 9 -15t9 -14q17 -27 28.5 -54.5t18.5 -57.5q4 -16 8 -31t9 -29q3 -5 5 -9.5t7 -8.5q4 -5 7.5 -8.5l7.5 -7.5q2 -2 4.5 -5t4.5 -5q10 -10 15 -19q7 -13 11 -27.5t1 -30.5 l-4 -14t-6 -12q-8 -13 -20.5 -23t-26.5 -15q-12 -7 -27.5 -8t-29.5 1l-31 4q-12 2 -21 -3t-20 -3q-5 0 -8.5 1t-7.5 2q-10 4 -19 15q-12 20 -7 41q3 12 3 26q-2 13 -12 20q-6 3 -12 5t-13 0q-26 -6 -48 -5q-10 0 -19.5 1.5t-19.5 -0.5q-9 -2 -17 -5.5t-15 -10.5l-9 -13 q-5 -9 -9 -18t-7 -18q-2 -2 -2.5 -4.5t-2.5 -4.5q-5 -11 -15.5 -18.5t-21.5 -11.5q-9 -4 -19.5 -3.5t-20.5 1.5q-21 5 -37 18q-5 5 -8 9.5t-7 9.5q-8 14 -12.5 30t-2.5 33q1 6 1.5 12.5t3.5 11.5q6 21 20 41q13 17 25.5 35.5t21.5 38.5q6 12 9.5 26t7.5 28q3 15 10.5 28 t15.5 27q8 13 16.5 25.5t13.5 26.5q3 6 4 13t1 15q1 7 5.5 12t9.5 8q3 4 5.5 7.5t2.5 8.5q-1 3 -3 5.5t-4 5.5q-5 5 -10.5 8.5t-11.5 7.5q-2 3 -4 5.5t-4 5.5q-1 5 -0.5 9.5t4.5 6.5q8 6 16 1q9 -6 15 -14.5t14 -15.5q3 -2 7 -4t9 0q9 5 16.5 12.5t16.5 12.5t19 7.5t20 4.5 q7 2 13 2h14q2 0 3 -0.5t3 -0.5zM162 448q4 -6 3 -9q-2 -5 -3 -5q-4 -2 -8.5 -1.5t-9.5 1.5l-6 4t-4 7v2q1 4 4 7q11 2 17 -2zM222 441q-3 1 -9 1q-7 0 -12 -8q-4 -6 -4 -10q1 -2 0 -4.5t1 -4.5t3 -4t4 -2q2 -2 4 -1t4 1q5 2 8.5 7.5t3.5 10.5q3 8 -3 14zM480 418 q2 -2 1.5 -4.5t1.5 -4.5q1 -5 1.5 -10.5t-1.5 -10.5t-5 -10t-8 -5q-7 0 -11 6q-8 9 -6 23q-1 5 1 12q1 4 7 10q3 2 7 3t7 -3q2 0 2.5 -2t2.5 -4zM287 235q-2 4 -4 4.5t-5 1.5q-3 0 -5 -2q0 -2 1 -3t2 -3q3 -1 9 -1q1 0 2 1t0 2zM288 199q-11 9 -27.5 9.5t-29.5 -6.5 q-1 0 -1 -1t-1 -1q-7 -4 -11.5 -11t-2.5 -15q0 -3 1 -5q0 -2 1.5 -3t1.5 -3q9 -9 22.5 -11t25.5 1q3 2 6.5 3.5t7.5 3.5q6 4 10 10q7 9 3 18q0 5 -6 11zM262 72h1v-1h-1v1zM183 31q6 -3 9 -12q0 -9 -6 -15q-2 -2 -5 -2q-2 0 -4 -1q-3 0 -6.5 0.5t-5.5 2.5q-5 6 -3 14 q4 9 10 13q2 0 4.5 1t4.5 0z" />
<glyph unicode="b" horiz-adv-x="552" d="M385 523q19 -2 32 -6q14 -5 25.5 -10.5t22.5 -13.5q2 0 3 -1.5t3 -2.5q19 -15 33.5 -34t22.5 -42q8 -21 10 -44.5t-3 -46.5q-4 -17 -9.5 -32t-14.5 -29q-7 -11 -15 -21.5t-13 -22.5q-2 -5 -1 -9t1 -9q1 -5 7 -11q14 -11 26 -23.5t17 -29.5q2 -6 2 -10q2 -13 0 -27 q-5 -21 -15 -39.5t-29 -32.5q-6 -3 -12 -7t-14 -6q-6 -2 -14 -4q-23 -7 -51 -4q-8 2 -15 3t-14 4q-6 2 -12 3t-13 2q-3 -1 -6 0t-6 1l-27 -3q-16 -6 -33 -8.5t-35 -3.5q-26 -2 -46 4q-5 0 -9.5 1t-9.5 3q-9 3 -17 6t-16 8q-8 3 -14.5 5.5t-14.5 3.5q-5 0 -9.5 -0.5 t-8.5 -2.5q-5 -4 -9.5 -9.5t-9.5 -10.5t-11 -8.5t-13 -2.5l-9 1q-4 2 -8.5 5t-6.5 8q-6 8 -6 20t5 21q13 21 17 43q-2 13 -5.5 24.5t-5.5 23.5q-1 9 -1.5 17.5t0.5 17.5l4 18t4 20q1 20 -2 39t-7 37q-2 11 -3 21.5t-2 21.5t-1.5 23.5t0.5 24.5q1 10 1.5 19.5t4.5 18.5 q5 19 25 27q2 2 3 5.5t-1 6.5t-3.5 5.5t-3.5 5.5q-7 5 -15.5 12.5t-4.5 18.5q1 4 4.5 5.5t7.5 2.5q5 0 8 -3t5 -6q2 -1 1.5 -3t1.5 -2q6 -8 9 -10q2 -2 7 -2q2 0 5 3q3 5 0 9t-3 9q-1 2 -1.5 5.5t1.5 5.5q3 4 9 4q8 2 13 -3t11 -7l10 -1l39 9q6 1 12.5 1.5t13.5 0.5 q17 0 33 -3.5t33 -6.5q6 -1 13 -0.5t13 1.5q2 1 5 0.5t5 0.5l36 6q4 0 7 0.5t7 1.5t8 0.5t8 1.5h17t17 -2zM516 516q1 -4 1.5 -7t-1.5 -7q-4 -5 -10 -7q-4 -1 -7 0t-5 2q-2 2 -3.5 3t-2.5 3q-2 3 -2 8q0 3 1 5t3 4l4 2t5 2q5 0 10 -1.5t7 -6.5zM102 474q0 2 -4 4h-5 q-4 -4 -4 -7q2 -5 7 -5q1 -1 5 1q2 4 1 7zM293 251q-7 11 -20 11q-11 -2 -15 -8q-6 -5 -6 -12q0 -10 8 -18q6 -2 9 -4q7 -1 15 2q3 2 6 5l5 5q2 5 1.5 10.5t-3.5 8.5zM458 225q-1 1 -1.5 2t-2.5 2t-3 -1t-2 -2q-2 -2 -3.5 -4.5t-0.5 -5.5q-1 -7 3 -11q4 -2 6 1q7 7 4 19z M295 191q-5 4 -10.5 5t-11.5 1q-11 0 -21 -10q-12 -15 -6 -33q5 -12 16 -18q17 -7 32 3q20 12 15 34q0 2 -1 2q-3 7 -9 13q-2 1 -2 2t-2 1z" />
<glyph unicode="c" horiz-adv-x="484" d="M283 524q6 1 11.5 0t10.5 -1h1q14 -2 27 -5t25 -8q8 -3 14 -8t11 -10q8 -12 11 -22v-1q-1 -6 1.5 -12.5t7.5 -9.5q2 -2 5 -2t6 -1q3 -2 7 -3t7 -4q21 -15 32 -37q12 -26 5 -57q0 -4 -1.5 -6.5t-2.5 -5.5q-3 -9 -9 -16.5t-12 -15.5q-15 -15 -34.5 -20.5t-41.5 -6.5 q-11 -1 -22 1t-22 1q-8 -2 -14.5 -6t-11.5 -9q-5 -3 -10 -2t-10 1.5t-9.5 0t-7.5 -6.5q-2 -5 0 -9.5t5 -7.5q4 -4 7.5 -7t6.5 -8q2 -5 1 -10.5t-3 -8.5q-5 -7 -12 -10t-12 -11q-5 -6 -4.5 -13.5t3.5 -13.5q6 -11 19 -14t25 -1q6 2 13 1.5t14 -0.5q14 -1 26 -13q4 -3 8 -4.5 t9 0.5q8 3 14.5 9.5l13.5 13.5q3 3 12 5q10 -2 12 -8q4 -9 -3 -16q-5 -6 -11.5 -8t-12.5 -7q-5 -4 -6.5 -9.5t-2.5 -10.5q2 -8 3 -16t0 -17q-2 -8 -6.5 -15t-11.5 -12q-5 -2 -9 -4.5t-9 -5.5q0 -1 -5 -3q-2 -2 -4 -2q-1 0 -3 -2q-6 -2 -10 -4l-14 -4t-15 -3q-8 -2 -17 -3 t-18 0q-41 1 -76 18q-1 1 -2 1t-2 1q-6 4 -12.5 7.5t-13.5 5.5q-7 3 -18 -2q-3 -2 -7 -4.5t-9 -0.5q-4 1 -5 3.5t-3 5.5q0 8 5.5 13t6.5 13q-1 2 -2.5 4t-3.5 4q-5 1 -9 0t-7 -2q-11 -5 -17.5 -12.5t-13.5 -15.5q-5 -6 -9.5 -12.5t-9.5 -13.5q-4 -4 -8.5 -8t-11.5 -2 q-6 0 -10 8q-2 4 -0.5 8t3.5 7q10 15 24.5 24.5t23.5 24.5q2 5 5.5 9.5t4.5 9.5q0 6 -1 11.5t-6 9.5q-6 7 -12 13.5t-12 14.5l-6 10q-3 3 -4.5 6.5t-3.5 6.5q-6 9 -10 19.5t-7 21.5q-5 17 -6 34q0 33 16 63l4 12t3 13q2 13 2 27t5 26q4 11 9 21.5t9 21.5q1 8 0.5 15.5 t6.5 13.5q6 6 15 6q17 -2 28.5 7.5t25.5 16.5q18 11 37.5 19.5t40.5 13.5q11 2 22.5 4t23.5 3l13 1q2 -2 3.5 -1t3.5 0zM58 482q2 -4 2 -9t-3 -8q-7 -8 -17 -7q-11 4 -13 14q0 9 4 13q3 4 13 6q9 0 14 -9zM371 442q-1 5 -5.5 7t-9.5 3q-5 0 -7 -5q-1 -6 5 -12q2 -2 4.5 -3.5 t5.5 -0.5h4q5 3 3 11zM247 226q0 1 -1 1t0 1q-4 3 -8 3.5t-7 -0.5q-4 -2 -4.5 -5.5t-0.5 -7.5q0 -2 1.5 -3.5t2.5 -3.5q2 0 4.5 -1.5t4.5 0.5q2 1 3.5 1.5t2.5 2.5q1 0 3 2q2 3 1 5.5t-2 4.5zM139 93q-2 3 -4.5 3.5t-6.5 1.5q-2 -1 -3.5 -1.5t-3.5 -2.5q0 -2 -1.5 -3.5 t0.5 -3.5q2 -6 7 -8q8 0 11 5q1 2 1 9zM432 90q4 -8 4 -12v-2l-1 -7q-2 -8 -7.5 -15.5t-13.5 -9.5q-3 0 -6 -0.5t-6 1.5l-5 4q-5 7 -5 15t4 16q1 2 2 2.5t2 2.5q5 7 15.5 10t16.5 -5z" />
<glyph unicode="d" horiz-adv-x="564" d="M329 518q18 -3 34.5 -10t33.5 -15q26 -14 50 -34.5t44 -43.5q4 -5 8.5 -8.5t9.5 -3.5q5 -1 9 1t9 0q8 -3 11 -10q2 -6 0 -10t-5 -8l-6 -8t-3 -9q-2 -16 1 -31t5 -32q3 -20 3 -43q1 -5 0.5 -10.5t-0.5 -10.5q-2 -17 -6 -33t-10 -32q-8 -17 -19 -32t-25 -27q-3 -2 -5 -4 l-4 -4q-9 -11 -16 -22.5t-17 -20.5q-5 -5 -13 -11q-6 -3 -11 -6t-12 -6q-5 -2 -10.5 -3t-10.5 -3q-8 -2 -15.5 -4.5t-15.5 -5.5q-7 -4 -14.5 -6t-14.5 -4q-11 -3 -21.5 -4t-21.5 -3q-7 0 -14 -0.5t-15 -0.5q-7 0 -13.5 0.5t-13.5 0.5q-16 2 -32 3.5t-33 0.5q-11 2 -21 0.5 t-21 -2.5q-7 -2 -13.5 -1.5t-11.5 5.5q-4 5 -2 11t4 11q1 7 -5 9q-4 1 -6.5 -1t-5.5 -3q-4 -4 -5.5 -8t-4.5 -9q-4 -7 -9 -10q-5 -5 -11 -3l-5 2.5t-4 4.5l-1 8q1 5 3 8t4 7q2 1 2.5 2t1.5 2q6 5 12.5 10t12.5 10q3 4 6.5 7t5.5 8q2 9 -6 13l-2 2q-6 1 -13 1q-6 0 -11 3 q-4 0 -5.5 2.5t-3.5 4.5t-2.5 4.5t-2.5 4.5q-2 8 -1.5 17t2.5 17q5 19 3 39q1 11 0.5 21.5t-1.5 20.5q-1 16 -1 30q0 15 -2 30q-1 19 7 41l8 16t7 16q2 10 1 14q-2 8 -6 14.5t-8 13.5q-9 23 -5 49t21 43q10 13 23 19q2 2 5.5 2.5t5.5 2.5q7 2 12.5 4t13.5 2q10 0 18.5 -2 t16.5 -4t15.5 -4.5t16.5 -1.5q13 0 24.5 4t23.5 7q16 3 31.5 5t32.5 0q16 -1 35 -6zM503 470q0 -9 -6 -13q-2 -1 -2.5 -2t-2.5 0q-7 -1 -12 2t-10 8q-3 5 -4.5 10.5t1.5 11.5q4 6 15 6q19 -5 21 -23zM501 363q-2 4 -5.5 3.5t-6.5 -2.5q-5 -5 -9 -11.5t-2 -14.5q0 -3 2 -3 t4 -1q5 -1 9 4q5 5 7.5 12t0.5 13zM246 294q-2 1 -3.5 2.5t-3.5 0.5q-6 -2 -6 -6q-2 -5 3 -8t9 0l3 3q1 4 -2 8zM283 262q-3 3 -8 3q-11 4 -16 -4q-6 -6 -6 -14t2 -16q2 -4 2.5 -7t2.5 -7q2 -9 -2 -16t-7 -14q-2 -3 -4 -11q-2 -5 -1 -9.5t2 -9.5q5 -16 21 -21q6 -3 13 -2.5 t13 2.5q11 5 16 12q3 5 4.5 9.5t3.5 9.5q2 4 1 8.5t-1 9.5l-2 8t-4 7q-9 3 -16 -1q-2 0 -4 -1q-2 1 -4 1t-4 2q-8 8 -3.5 16t6.5 15q4 5 3 12t-4 12t-4 6zM452 46q4 -7 1 -12q-1 -2 -2.5 -3t-3.5 -3h-7q-6 4 -6 6q-1 1 -0.5 2t-0.5 1q1 2 1.5 5t2.5 3q2 1 4 2.5t4 0.5 q1 1 1 0t2 -1l4 -1v0z" />
<glyph unicode="e" horiz-adv-x="443" d="M127 523q12 -3 24 -8t25 -7q12 -2 24 -2.5t24 0.5q24 3 47 8.5t48 5.5q35 3 62 -13q12 -8 19.5 -19.5t12.5 -23.5q3 -8 4 -16.5t1 -16.5q1 -32 -11 -63q-3 -10 -7.5 -18t-9.5 -17q-3 -7 -6.5 -13.5t-5.5 -14.5q-1 -7 0 -14t-4 -12q-3 -4 -6.5 -7t-8.5 -2q-8 0 -13.5 2 t-11.5 3q-8 3 -15 3q-1 2 -1.5 1t-1.5 -1q-14 3 -28.5 2t-27.5 -5t-20 -12q-5 -5 -8 -12.5t-1 -15.5q4 -11 15 -14q17 -1 30 5t28 9q6 2 13 2.5t13 -2.5q16 -5 19 -22v-11q-2 -11 -8.5 -18t-15.5 -12q-6 -3 -15 -4q-6 -2 -11 0t-10 3t-9 3t-9 1q-13 0 -18 -12q-2 -7 1 -13 t8 -9q2 -2 4.5 -3t4.5 -3q4 -2 8 -2t7 -2q18 -1 33.5 3t32.5 2q5 0 9.5 -1t9.5 -2q4 -2 8 -3.5t6 -3.5q3 -1 5 -2.5t4 -2.5l6.5 -6.5t5.5 -6.5q5 -6 7.5 -12.5t5.5 -12.5q2 -11 1 -22.5t-7 -20.5q-5 -10 -14 -17.5t-19 -12.5q-1 0 -7 -2q-11 -4 -25 -4.5t-26 3.5 q-22 5 -43 0q-8 -2 -16 -3t-16 -3q-17 -2 -35 -1t-34 5q-5 2 -9 4t-9 4l-24 10t-26 4l-5 -2q0 -1 -1 -0.5t-1 -0.5l-4 -3q-3 -5 -7 -11.5t-10 -8.5q-5 -1 -9 -1t-6 4q-3 2 -3 6t1 7q2 3 2.5 6t2.5 5q7 5 14 10.5t6 15.5q-4 8 -9 9q-8 2 -15 0t-15 0q-13 3 -21 14.5t-10 24.5 l-1 9q1 0 0.5 0.5l-0.5 0.5q1 11 4 19.5t5 18.5q2 8 3.5 15.5t3.5 15.5q0 3 1.5 6t0.5 6q3 17 2 32q-2 10 -5 19.5t-5 19.5q-2 12 -4 19l-3 22q0 16 4 31t4 31q-1 7 -1 13q0 7 -2 14q-2 8 -5 16t-3 17q-1 12 0 22q2 6 3.5 12.5t3.5 11.5q6 12 14 20q4 6 10 11t12.5 8t13.5 7 q11 3 23.5 5t24.5 -1h3zM244 292q-2 3 -5 3q-2 -1 -3.5 -2t-3.5 -3q0 -2 -0.5 -3.5t1.5 -3.5q3 -2 4.5 -0.5t3.5 2.5q3 2 3 7zM394 259q6 -6 6 -10q0 -11 -9 -15q-3 -2 -6 -1.5t-6 0.5q-4 2 -6 5.5t-3 6.5q-1 5 3 13q2 1 3 2t3 1q2 1 6 1q6 0 9 -3zM113 84q-2 2 -4.5 3 t-4.5 -1l-4 -2q0 -3 -1 -5q0 -2 2 -6q2 -2 4 -1.5t4 0.5q3 0 5 4q2 5 -1 8zM58 45q1 -5 1 -9t-4 -8l-4 -2t-4 0q-12 4 -14 15v7t2 5q2 4 5 4h6q9 -3 12 -12z" />
<glyph unicode="f" horiz-adv-x="451" d="M207 517q-13 2 -25.5 3.5t-25.5 3.5q-12 2 -27 -1q-13 -2 -21.5 -7.5t-16.5 -7.5q-5 -2 -11 -0.5t-11 5.5q-6 10 -18 10q-10 0 -14 -6q-6 -9 3 -17.5t20 -7.5l5 -5t3 -7q2 -6 -2 -11q-6 -7 -13 -3.5t-14 4.5q-10 -1 -12 -7q-1 -1 -0.5 -2t-1.5 -1q2 -2 1.5 -3t0.5 -3 q1 -3 2.5 -5t3.5 -5q2 -8 -2 -12.5t-6 -10.5q-7 -14 -4.5 -29t12.5 -27q2 -5 6 -8.5t6 -8.5q3 -16 -9 -26q-4 -5 -5.5 -10.5t-3.5 -10.5q-1 -15 2 -29l6 -28q2 -11 4 -23.5t1 -24.5q-2 -28 -7.5 -54t-7.5 -54q-1 -3 -1 -11v-11q0 -7 1.5 -13t2.5 -13l2 -1q6 -16 20 -27 q11 -9 25 -10.5t28 -0.5q11 2 21 8t22 8q15 3 29 -8q14 -8 25 -8q15 0 29 8q3 1 8 6q7 8 10 19.5t0 23.5q-1 11 -9.5 17.5t-13.5 16.5q-4 10 2.5 17t11.5 14q8 10 5 21t-3 22q-1 7 2.5 11.5t7.5 7.5q6 3 14 1q6 -2 11.5 -5t12.5 -5q4 -2 7.5 -3t7.5 -2q11 -2 21 3.5t16 13.5 q5 6 6 12.5t2 13.5q-1 11 -8 18.5t-16 11.5q-7 2 -13.5 1t-12.5 -2q-4 -2 -7.5 -3.5t-7.5 -3.5q-3 -3 -7 -5.5t-8 -4.5q-11 -6 -21 1q-8 10 -5 17q5 11 17 19t24 12q15 6 31.5 7t33.5 1q11 0 20.5 1t17.5 7q12 8 20 20q8 11 8.5 24.5t2.5 26.5q4 15 7 29t5 30q2 26 -7 51 t-34 39q-10 6 -22 8t-24 3q0 1 -1 0q-2 1 -4 0.5t-4 0.5q-5 -2 -11 0q-1 -2 -1.5 -1t-2.5 0q-11 0 -21.5 -0.5t-21.5 -1.5q-8 -2 -17 -2.5t-18 -0.5h-33zM109 470q3 -4 2 -7t-4 -6l-6 -6t-4 -6q-1 -4 -7 -8q-5 -2 -9 1q-3 3 -3 11t9 17q1 0 0.5 1t1.5 2q5 2 10.5 4t9.5 -3z M417 292q-2 4 -5 4.5t-7 1.5q-4 -2 -8 -5t-9 -8q0 -2 -1 -2.5t-1 -2.5q-2 -3 -3 -7.5t1 -8.5q5 -5 10 -4q17 5 23 21q0 2 1 5.5t-1 5.5zM241 274q2 -2 1 -3.5t0 -3.5q-2 -1 -2.5 -2.5t-2.5 -1.5q-6 0 -6 2q-4 4 -1 9q2 1 2.5 2t2.5 1q3 0 6 -3zM267 118q-1 5 -4.5 5.5 t-6.5 0.5h-4q-5 -2 -8 -5q-1 -2 -3 -3.5t-1 -4.5q-2 -3 -1.5 -6t1.5 -5q1 -4 5 -4q5 0 7 -1q9 4 13 9q4 9 2 14z" />
<glyph unicode="g" horiz-adv-x="498" d="M315 523q19 0 34 -4q8 -1 15 -3t15 -4q10 -5 20 -8t19 -9t19 -16q4 -4 7.5 -8t5.5 -9q2 -2 2 -4q0 -1 2 -3q2 -4 3 -7.5t3 -8.5v-3q2 -8 1 -16t-3 -16q-1 -3 -1.5 -6t-2.5 -5q-4 -8 -9.5 -15.5t-3.5 -17.5q1 -4 2.5 -6.5t1.5 -5.5q5 -14 2.5 -29t-12.5 -24 q-9 -10 -22 -15q-5 -2 -11.5 -3t-12.5 -2q-14 -1 -24.5 4t-23.5 7q-8 1 -11.5 -6t-10.5 -9q-8 -5 -16 -8t-16 -8q-8 -4 -16 -10t-15 -13q-2 -4 -4.5 -6.5t-4.5 -6.5q0 -2 -1.5 -2.5t-1.5 -2.5l-3 -8q0 -3 -1 -6.5t0 -6.5q-2 -9 2 -17.5t10 -15.5q3 -5 9 -8q10 -8 22 -11.5 t25 -4.5h4q4 -1 7.5 -0.5t7.5 0.5q7 0 13 3q9 2 17.5 4t13.5 10q4 3 4.5 7.5t-1.5 9.5q-2 4 -6 7.5t-9 3.5q-10 0 -21 -9q-1 0 -1.5 -0.5t-2.5 -0.5q-8 -4 -17.5 -4.5t-17.5 4.5q-5 3 -9 7t-6 9q-7 18 8 33q7 6 14.5 10t17.5 4q8 1 15 -2t15 -5q11 -4 23 -4t23 2 q6 1 11.5 3.5t11.5 4.5t12 3.5t13 0.5q14 -2 23 -12q10 -11 10 -29t-4.5 -33.5t-6.5 -32.5q-1 -8 0 -16t1 -16q0 -19 -8 -35t-23 -26q-13 -10 -27.5 -16t-29.5 -11q-12 -3 -25 -6t-26 -3q-27 -2 -52 0q-12 1 -24 3t-23 4q-8 2 -14 4t-13 4q-35 11 -67 29q-8 6 -16 11t-16 12 q-7 7 -15 2q-3 0 -5 -2l-4 -4q-5 -2 -10 -3.5t-10 0.5q-6 4 -6 13q2 2 2 3q0 2 2 4t7 4q2 0 2 2q2 -1 3.5 0t3.5 1q2 1 3 0.5t2 1.5q11 2 14 10q2 8 -2 13t-6 11q-11 12 -21 23t-18 25q-4 4 -6.5 8t-4.5 9q-13 27 -13 61q-3 24 7 48q3 7 5.5 13t4.5 13q1 9 1 17q0 9 3 17 q2 10 7.5 19t3.5 20q-2 7 -9 10.5t-6 12.5q0 10 10 13q6 2 11.5 0t12.5 0q12 3 21 11.5t19 16.5q14 14 30 23.5t33 17.5q9 5 18.5 8t19.5 5q5 2 10 2.5t10 2.5q9 2 18.5 2.5t19.5 2.5zM352 522v1v-1zM80 479q5 -7 2 -15q-1 -1 -2 -2.5t-2 -2.5q-4 -2 -9 -2t-8 3l-4.5 4.5 t-3.5 5.5t0 5.5t2 4.5q2 7 7 7q13 3 18 -8zM115 471v-1v2v-1zM415 378q-2 -1 -2.5 0t-1.5 -1q-4 1 -6 -2l-4 -6q-2 -7 2 -11q6 -4 8 -3q3 0 5 1.5t4 3.5q3 4 3 12q-2 4 -8 6zM130 116q0 9 -8 14q-2 2 -6 0q-3 -3 -2 -7l2 -8l4 -4t5 -2h2q2 1 2.5 3t0.5 4zM71 46q3 -6 1 -14 q-4 -5 -11 -7l-6 2q-2 2 -4.5 3.5t-3.5 5.5q0 4 2 10q6 6 15 5q2 0 3.5 -1.5z" />
<glyph unicode="h" horiz-adv-x="550" d="M187 514q14 -6 26 -15.5t20 -23.5q15 -23 17 -54q2 -25 -2 -49t-9 -47q-2 -11 -4.5 -21.5t-3.5 -22.5q0 -8 2 -16t7 -14q3 -3 4 -3q6 -6 15 -2q1 1 1.5 0.5t1.5 0.5q5 1 8.5 3.5t6.5 5.5q6 6 11.5 13t8.5 15q2 3 3 6.5t3 6.5q4 8 5.5 16t2.5 16q2 8 2.5 16.5t-0.5 16.5 l-3 21q-2 15 -4.5 30t-4.5 32q2 19 9 34q1 0 3 5q7 12 21 21q4 2 7 4l6 4q2 0 3.5 1t3.5 1q14 5 30 3.5t29 -7.5q5 -2 9.5 -4t10.5 -2q9 0 16.5 5.5t16.5 6.5q12 2 21.5 -4t16.5 -14q9 -14 12.5 -31t4.5 -35q1 -14 -1 -28.5t-5 -27.5q-2 -11 -4.5 -22.5t-0.5 -22.5 q1 -23 5 -44t7 -44q2 -12 3 -24t3 -24v-13q0 -14 -0.5 -26.5t-2.5 -26.5q-2 -11 -4 -23t-9 -22q-5 -8 -15 -8.5t-20 -1.5q-2 -1 -5 -2t-4 -4q-4 -4 -4.5 -9.5t1.5 -9.5q2 -1 2.5 -2.5t1.5 -1.5l3.5 -3.5t2.5 -3.5q7 -9 2 -20q1 -1 -1 -3q-6 -9 -17 -11q-9 0 -15 6 q-9 4 -17 3.5t-16 -2.5t-16 -5t-16 -3h-4t-7 0.5t-7 1.5q-15 5 -28 16q-3 1 -6 6q-2 2 -4 4.5t-4 5.5q-2 5 -4 10.5t-4 11.5q-2 8 -3 16t-1 16q-2 8 -1 15t-4 14q-9 15 -27 15q-10 0 -13 -3q-4 -2 -10 -8l-2 -4l-2 -4q-2 -8 -2.5 -17.5t-2.5 -17.5q-1 -6 -3.5 -11.5l-5 -11 t-2 -11t5.5 -10.5q6 -5 12 -7t11 -8q6 -8 0 -16q-2 -1 -3 -2.5t-4 -1.5q-6 0 -10.5 3t-8.5 7t-8.5 8t-10.5 5q-7 1 -14 -4q-1 0 -4 -3q-26 -17 -60 -19q-25 0 -46.5 9t-37.5 27q-6 6 -8 9q-1 2 -2 3.5t-2 3.5q-2 4 -4 7t-4 8q-1 4 -2.5 7.5t-2.5 7.5h-1q2 1 1 3t-1 4 q-3 11 -2 23t3 23q-1 1 0 1t1 1q2 11 4 21.5t2 21.5q1 5 1.5 11t-1.5 11q0 13 -3 27q-2 14 -4 28.5t-1 28.5q-1 14 2.5 26t8.5 24q3 12 0.5 25t-5.5 24q-2 7 -3 14t-1 15v4v12q2 5 2 8t1 7q5 16 15 31t24 26q18 14 40.5 20t46.5 1q8 -2 14.5 -3.5t13.5 -5.5zM79 353 q-1 2 -5 4q-2 0 -2.5 -0.5t-2.5 -0.5q-1 -1 -2 -1q-3 -2 -3 -9q3 -5 7 -5q5 -1 7 4q2 1 2.5 3.5t-1.5 4.5zM304 232q-4 8 -10 9q-10 1 -17.5 -3.5t-15.5 -8.5q-5 -2 -9.5 -5.5t-6.5 -8.5v-3q1 -1 2 -2.5t2 -1.5h5q5 0 8.5 0.5t7.5 0.5q8 2 17 0.5t16 6.5q4 6 1 16zM323 160 h-5q-3 0 -3 -1q-1 0 -4 -3t-1 -8q2 -6 7 -6q6 -1 10 3q2 6 2 8q-1 2 -2.5 3.5zM513 64q0 -5 -1 -6q-1 -2 -5 -4q-5 -5 -9.5 -10.5t-12.5 -2.5q-4 1 -5 3.5t-3 5.5q0 3 2.5 5t3.5 4q10 7 23 9q2 -1 4 -1t3 -3z" />
<glyph unicode="i" horiz-adv-x="260" d="M145 517q8 -3 15.5 -7.5t16.5 -7.5q8 -2 19 3q6 3 11.5 8t12.5 8q1 1 6 1q4 0 7 -3l3 -5v-9q-3 -7 -9.5 -10t-9.5 -10q-3 -1 -2 -7q3 -5 6 -9l6 -8q12 -17 14.5 -38.5t0.5 -43.5q-1 -11 -3.5 -23t-6.5 -25q-2 -8 -3 -16.5t3 -16.5q2 -8 5.5 -16t4.5 -16q4 -13 -1 -37 q-2 -7 -2.5 -14.5t-2.5 -15.5q0 -2 -0.5 -5t0.5 -7q0 -14 3 -27q4 -16 5.5 -32.5t-0.5 -33.5q0 -20 -9 -36q-11 -30 -39 -48q-2 0 -3 -0.5l-3 -1.5q0 -1 -3 -1q-9 -5 -19 -6q-8 -1 -16 -0.5t-16 1.5q-5 2 -10.5 3.5t-10.5 3.5q-5 4 -9 5l-18 10t-18 9q-8 3 -16.5 4t-16.5 6 q-16 9 -18.5 27.5t-1.5 35.5q2 10 3 20t3 21q3 20 0.5 39.5t-4.5 39.5q-5 27 0 54q3 16 6.5 32.5t5.5 33.5v17v2q0 11 -2 21.5t-5 20.5q-2 5 -3 9.5t-2 9.5q-2 18 3.5 34.5t16.5 30.5q7 8 14.5 13.5t16.5 10.5q5 2 10.5 4t10.5 4l12 1q12 2 20 -1q11 0 22 -6zM194 451 q-1 4 -4 5t-6 1q-2 0 -4 -1.5t-3 -2.5q-2 -8 -1 -9q2 -5 10 -5q2 -2 3.5 -0.5t3.5 2.5q1 2 2 5t-1 5zM67 178q-2 4 -9 6q-3 -2 -6 -6q-1 -4 -0.5 -8t-1.5 -8q-1 -5 -3 -10.5t2 -10.5q1 -4 6 -4t7.5 3.5t4.5 7.5q3 7 3.5 15t-3.5 15zM57 25q1 -6 0 -12q-5 -8 -14 -6 q-3 -1 -6 2q-6 3 -6 10q2 11 10 12q3 2 5.5 1t5.5 -1z" />
<glyph unicode="j" horiz-adv-x="419" d="M364 517q2 -5 2.5 -9t-1.5 -8q-4 -4 -11 -6q-2 1 -3 0t-3 1q-5 0 -10 7q-2 0 -1.5 1.5t-1.5 3.5q0 9 4 14q3 2 9 4q8 0 16 -8zM278 518q5 -1 9 -3l8 -4q5 -3 9.5 -7.5t9.5 -7.5q5 -5 12 -7t15 -2q4 1 7 0t8 -2q0 -1 4 -1q5 -3 8.5 -7t7.5 -9q1 -4 2.5 -8t2.5 -9 q2 -14 0 -26.5t-5 -24.5q-2 -9 -3.5 -18.5t-1.5 -19.5q0 -13 2 -26l4 -26q0 -8 1.5 -15.5t1.5 -15.5q2 -11 3.5 -22t1.5 -22l1 -27q0 -7 -0.5 -15t-1.5 -16q-1 -20 -4.5 -40.5t-11.5 -39.5q0 -4 -3 -7q-2 -6 -4.5 -12t-7.5 -11q-3 -5 -4 -11t3 -11q3 -5 7.5 -9.5t8 -9t5 -10 t-1.5 -12.5q-6 -6 -12 -3q-9 2 -13.5 8.5t-8.5 13.5t-9 12.5t-14 6.5q-10 0 -15 -4q-34 -25 -75 -34q-15 -2 -30 -3t-30 1q-11 2 -22.5 5t-22.5 8q-12 5 -26 7t-28 2q-11 1 -20.5 6.5t-16.5 13.5q-10 11 -12 25.5t4 27.5q13 26 39 31q14 3 26.5 -0.5t25.5 1.5q5 1 8.5 4 t6.5 6q6 6 9.5 12.5t7.5 13.5q5 9 7.5 18.5t4.5 18.5q0 5 1.5 10t1.5 10v34q-2 16 -6 32q0 6 -1 11.5t1 12.5q1 12 6 24q4 9 8 17t4 19q0 12 -3 23.5t-6 22.5q-5 26 5 50t31 40q3 2 11 6q2 0 3.5 1.5t3.5 2.5q11 3 22.5 5t22.5 0q9 -2 18 -5zM323 464q-3 3 -9 7q-6 2 -9 -1 q-2 -1 -2 -5q5 -11 17 -11q2 -1 2.5 0.5t2.5 2.5t0.5 3t-2.5 4zM57 168q8 -11 1 -23q-8 -9 -19 -9q-10 3 -14 12q-5 11 4 21q3 3 12 5q5 -1 9 -2t7 -4v0zM392 64q2 -4 2.5 -8.5t-1.5 -9.5q-1 0 -1 -1q-6 -4 -11 -2q-8 2 -12.5 9t-7.5 15q0 6 3 11q3 3 6 3q4 0 7 -1 q4 -1 6 -3.5t4 -4.5z" />
<glyph unicode="k" d="M480 515q10 -5 17 -12.5t12 -15.5q3 -5 5 -11t4 -11q3 -11 2.5 -21.5t-2.5 -21.5q-8 -34 -40 -58q-5 -5 -9 -11t-6 -13q0 -6 1 -11.5t7 -8.5q5 -2 11.5 -4t11.5 -9q2 -2 1 -5.5t-2 -6.5q-6 -6 -13 -6q-6 0 -11 3t-10 4t-8.5 2.5t-8.5 -0.5q-8 -4 -10 -16q-2 -9 1 -17 q3 -13 10.5 -22.5t15.5 -19.5q1 -1 1.5 -2t2.5 -2q7 -8 14.5 -17t14.5 -17q3 -5 6.5 -10t5.5 -10q8 -17 10 -37.5t-3 -39.5q0 -5 4 -9.5t1 -10.5q-2 -5 -5.5 -6.5t-7.5 -3.5v-1q-1 1 -4 -2q-3 -2 -3 -6v-6q1 -7 7 -11q5 -3 11 -6.5t6 -10.5l-2 -5q-2 -4 -6.5 -4.5t-8.5 0.5 q-5 1 -9 4.5t-7 8.5q-4 2 -7 3t-7 0q-8 -1 -13.5 -5.5t-12.5 -6.5q-2 0 -4 -1.5t-4 -1.5q-6 -2 -12.5 -3.5t-13.5 -0.5q-5 -1 -10 -0.5t-10 1.5q-1 0 -2 0.5t-3 -0.5q-2 3 -6 3q-7 4 -13 6.5t-11 7.5q-3 3 -6 5.5t-6 5.5q-4 4 -7 8.5t-5 9.5q-5 11 -10 21l-10 20 q-3 6 -5.5 12t-6.5 11q-3 5 -7 8.5t-9 7.5q-5 2 -9 4t-9 2q-9 0 -17 -4.5t-10 -12.5q-3 -5 -2.5 -10.5t-1.5 -10.5q-5 -43 -35 -70q-9 -7 -18.5 -13t-20.5 -9l-4 -2t-5 -1q-7 -1 -13 -2.5t-14 -0.5q-7 -1 -13.5 -0.5t-13.5 1.5q-9 2 -17.5 5.5t-13.5 12.5q-7 10 -9 26 q0 13 -11 24q-2 3 -5 3.5t-5 2.5q-3 1 -4.5 2.5l-3.5 3.5q-6 8 -6 14q-2 6 -2 11v12q3 17 1.5 35t-2.5 37q-2 29 0.5 57.5t8.5 57.5q3 18 3 37q0 20 -7 37q-3 11 -4.5 24t0.5 25q3 15 11 35q2 6 3 14t-6 13q-5 2 -9 5t-4 10q1 3 2.5 6t5.5 5q9 3 16 -4q4 -3 7 -7.5t8 -5.5 t9.5 1.5t9.5 4.5q7 5 13.5 7.5t14.5 4.5q6 2 12.5 3t13.5 1q6 1 13 0t14 -3q38 -8 63 -39q17 -20 22.5 -46t-1.5 -52q0 -4 -1.5 -7t-1.5 -7q-1 -4 -2 -7t-1 -8q-1 -5 -2 -11t-1 -12v-4q0 -19 6 -35q5 -8 10.5 -14.5t13.5 -9.5q5 -1 10 -2.5t10 -0.5t9.5 2t8.5 4q3 4 6 7t3 8 q4 10 4 16q-1 11 -7.5 19.5t-14.5 14.5t-18.5 12t-7.5 18q0 6 8 10q4 3 11 1q8 -4 11.5 -11.5t8.5 -13.5q7 -7 15 -6q11 6 12 15q2 6 2 13t1 14q2 13 2.5 24.5t2.5 23.5q0 3 2 11q6 24 22.5 42.5t38.5 29.5q5 3 11.5 3.5t12.5 2.5q3 1 6 1q4 0 7 1q11 -2 21.5 -3.5 t19.5 -6.5zM495 361q8 -6 5 -12q-2 -5 -6 -9q-6 -2 -11 1q-2 2 -3.5 4t-2.5 4q0 3 2 9q3 2 7 3.5t7 -0.5h2zM252 239l-1 1q-6 1 -12 0q-4 -2 -6 -9q-1 -3 0.5 -6l2.5 -5h1q4 -5 8 -7.5t9 -5.5q2 0 4 -2t4 -2q8 -2 12 -2q2 1 3 1q2 0 4 1q5 5 4 9q-3 12 -17 21q-5 2 -8 4 t-8 2zM43 51q3 -1 4.5 -2.5l3.5 -3.5l2 -8t-1 -8q-4 -4 -6 -4q-4 -1 -6 0q-5 0 -8 3q-3 4 -5.5 8.5t-0.5 9.5q1 2 2 5t5 3q4 1 10 -3zM454 51q-2 0 -3.5 0.5t-3.5 0.5q-5 -2 -6 -5q-4 -5 1 -10q4 -5 9 -4q1 0 2 0.5t2 0.5q3 1 4 3.5t1 4.5q0 7 -6 9z" />
<glyph unicode="l" horiz-adv-x="407" d="M112 524q9 -1 18.5 -3.5t18.5 -6.5q8 -2 16 -3.5t16 -0.5q5 2 9 1.5t9 -0.5q3 -2 6.5 -3.5t6.5 -3.5q11 -8 17.5 -19.5t11.5 -23.5q13 -36 10 -85q-3 -36 -15 -69q-2 -11 -3.5 -22.5t2.5 -22.5q3 -5 3 -11q4 -11 6 -22.5t0 -22.5q-1 -17 -6 -31q-2 -4 -1 -8.5t3 -6.5 l7 -3q10 1 18 14q6 6 12 1q8 -5 8 -12q1 -6 -2.5 -10.5t-3.5 -10.5q2 -7 7 -8q2 -2 6 -1.5t7 1.5q8 3 15 6t15 3q9 2 16 -1t15 -5q19 -11 27 -30q7 -19 4 -36q0 -8 -2.5 -15.5t-6.5 -14.5q-5 -7 -9.5 -13t-11.5 -11q-2 -1 -4.5 -2t-4.5 -2q-14 -8 -32 -8q-9 0 -17.5 0.5 t-16.5 1.5l-56 8q-10 0 -21 1t-22 -2q-13 -2 -25 -6.5t-26 -4.5l-17 3q-8 2 -15 6.5t-17 3.5q-5 0 -10 -1t-8 4q-5 6 -2 15q5 5 8 12t-8 9q-7 0 -11.5 -6t-6.5 -12q-2 -4 -3 -8.5t-3 -8.5q-2 -5 -4.5 -9.5t-7.5 -6.5q-9 0 -14 5l-3 4q-2 5 1 9t5 9q5 7 11 12.5t6 14.5v10 q-2 6 -5.5 11t-5.5 10l-6 14q-1 6 -2 12.5t1 11.5q2 17 8 32.5t4 32.5q-1 8 -3.5 16.5t-2.5 16.5q-5 20 -3.5 41t6.5 41l6 28t1 29q-1 9 -4 17.5t-4 18.5q-2 1 -1.5 2.5t-0.5 3.5v4q-3 16 -3 33q1 8 2.5 16.5t5.5 16.5q5 14 19 30q8 8 18 12.5t21 7.5q5 0 8.5 1.5t8.5 -0.5 q1 2 3 1t4 -1zM75 362q2 -2 1.5 -5t0.5 -5v-7q0 -5 -1 -6q0 -9 -6 -13q-2 -2 -4.5 -1.5t-4.5 0.5q-6 2 -7.5 6.5t-0.5 10.5t3.5 11.5t4.5 9.5l4 4t5 0q2 0 5 -5zM311 204q2 -5 0.5 -9t-4.5 -8q-3 -6 -10 -6q-5 -2 -11 5t-1 19q2 2 5 4.5t7 2.5q11 0 14 -8z" />
<glyph unicode="m" horiz-adv-x="681" d="M568 522q-3 1 -9 1q-5 0 -8 1q-33 4 -63 -7.5t-53 -32.5q-14 -10 -22 -23.5t-22 -23.5q-9 -5 -18.5 -11.5t-15.5 -16.5q-4 -5 -5 -10.5t-6 -7.5l-6 -2q-9 0 -12 8l-4 12t-5 11q-6 6 -14 7q-8 -2 -9 -6q-5 -8 0.5 -15.5t10.5 -12.5q2 -2 2.5 -3.5t2.5 -1.5q3 -5 2.5 -10 t-1.5 -10q-7 -10 -19 -13q-13 -4 -22 4.5t-17 16.5q-8 12 -20 22.5t-24 17.5q-12 5 -20.5 15.5t-13.5 21.5q-4 11 -9.5 20t-10.5 18l-2 1q-5 6 -10.5 10.5t-11.5 9.5q-5 3 -10 5.5t-11 2.5q-12 4 -28 1q-4 -2 -8 -3t-9 -3q-4 -3 -7.5 -6t-7.5 -7q-11 -12 -16.5 -26.5 t-7.5 -30.5v-1q-3 -9 -1 -26q1 -9 1.5 -18t2.5 -18q4 -26 0 -51q-2 -10 -3.5 -19.5t-4.5 -18.5q-1 -2 -1 -6q0 -3 -1 -4q-2 -11 -3.5 -23.5t-0.5 -23.5q0 -14 2.5 -27t5.5 -26v-2q9 -30 6 -63q-2 -11 -5 -22t-1 -22q1 -5 1.5 -9.5t2.5 -9.5q1 0 0 -1t1 -2q2 -5 4.5 -9 t5.5 -9q2 -2 3.5 -4.5t3.5 -4.5q11 -11 20 -15.5t18 -6.5q12 -3 29 -1q5 2 9.5 3t7.5 4q7 4 13 10q2 2 2.5 3t1.5 2q1 2 6 7q5 9 7 21q2 8 2 9q1 8 -1 16t0 17q1 11 10 19t20 6l11 -2q10 -4 22 -16q4 -6 7.5 -12t5.5 -14q5 -14 9 -28t12 -26q0 -2 1 -2q2 0 2 -2l9.5 -9.5 t11.5 -6.5q7 -1 15 -1t14 4q3 2 5.5 4.5t5.5 4.5q2 2 3.5 3t2.5 3q2 3 3 6.5t3 6.5q4 6 4.5 13.5t0.5 15.5v6q1 7 8 10q5 3 12 -1q7 -6 6.5 -14.5t3.5 -16.5q2 -4 5.5 -7.5t8.5 -2.5q7 0 10 8q5 11 -2 20t-10 19q-4 17 7 31l5.5 5.5t6.5 4.5q14 5 23 -1q8 -5 11 -14.5 t1 -17.5q0 -6 -0.5 -12.5t-0.5 -12.5q-2 -1 -1 -2t1 -2q-2 -17 4 -30q8 -14 22 -21q9 -3 18 -2.5t18 2.5q4 2 8 2.5t8 2.5q12 5 23 1t21 -8q10 -3 24 -3q11 0 23 5q9 3 16.5 8t13.5 11q2 1 7 8q4 5 8 10.5t6 12.5q5 11 6 25q3 22 -3 45q-2 5 -3.5 10t-3.5 11q-4 9 -7 20 t-1 22v1q0 8 5 16q12 27 15.5 57.5t-5.5 59.5q-9 20 -4 46q3 14 4.5 27t-0.5 27q-3 21 -9 34q-18 32 -50 50q-3 1 -5.5 2t-4.5 2q-5 2 -10.5 3.5t-10.5 3.5zM356 432q-2 3 -5 5q-7 4 -14 1q-2 -1 -3 -2.5t-3 -1.5q0 -3 -1 -5.5t1 -5.5q0 -4 3.5 -6t6.5 -4q10 0 15 8 q2 3 0 11zM293 336q6 -2 8 -8q1 -3 -3 -9q-6 -2 -8 -2q-5 0 -7 5l-2 6q1 6 5 6l0.5 1t2.5 1h4zM621 208q1 -1 1 -5q0 -3 1 -6q1 -7 0.5 -14.5t-4.5 -13.5q-1 -1 -4 -1q-6 4 -7.5 14t-1.5 13v9q0 6 4 7q1 2 2.5 1.5t3.5 -0.5q0 1 2 -1zM23 178h-1h1zM179 153q2 -5 -1 -9 l-6 -8q-2 0 -2 -1t-1 -2q-5 -2 -9 -3.5t-9 0.5q0 2 -1 2t-1 1q-1 4 0.5 5.5t1.5 4.5l5 5t7 4q2 2 4 2q3 0 5 2q5 0 7 -3z" />
<glyph unicode="n" horiz-adv-x="475" d="M415 521q14 -5 25.5 -16t13.5 -26q1 -4 0.5 -8t-0.5 -9q-1 -9 -4.5 -16.5t-5.5 -15.5q-4 -13 -6.5 -27.5t1.5 -28.5q9 -27 12 -56q5 -34 3.5 -68.5t-6.5 -67.5q-1 -11 -4 -22t0 -23q1 -17 9.5 -31.5t8.5 -32.5q1 -18 -6.5 -35t-24.5 -27q-4 -2 -8 -4.5t-9 -2.5 q-5 -2 -12 -1.5t-12 0.5q-2 1 -6 1q-9 3 -17 8.5t-16 11.5q-2 2 -4 3.5t-4 3.5q-8 9 -17.5 16t-18.5 14q-11 8 -23 14t-23 13q-2 0 -1.5 1t-0.5 0q-2 2 -3.5 2.5t-2.5 2.5q-2 -1 -5 2q-6 4 -10 10l-5 7.5t-8 5.5q-8 -1 -11.5 -8t-5.5 -14q-1 -4 -2.5 -7.5t-6.5 -4.5 q-11 -2 -16 5q-4 7 1 12q4 4 6 5q3 4 5.5 8.5t-0.5 9.5q-4 6 -9 7q-17 3 -27 -7q-11 -9 -11 -20l1 -17q2 -1 0.5 -2.5t-0.5 -3.5q0 -4 -1 -6q2 0 1 -2l-2 -4q-2 -5 -6.5 -9.5t-9.5 -5.5q-5 -2 -11 -2t-11 -4q-7 -4 -8 -10.5t-5 -13.5q-5 -8 -12.5 -15t-16.5 -9q-16 -5 -30 5 l-6 4q-12 9 -15 26q-2 13 2.5 24t6.5 23q4 23 -2 47q-2 11 -3.5 22.5t-2.5 22.5q-1 8 -1 14q0 7 -1 14q0 37 2.5 74t10.5 72q0 9 1 19t-1 19q0 10 -2 19.5t-4 18.5q-5 24 3 44q2 5 4.5 10.5t7.5 10.5q5 8 11 12q9 8 19 12.5t22 5.5h11t11 -2t12 -5t11 -5q16 -12 27 -29 q5 -5 14 -3q7 3 11.5 9t6.5 11q3 8 8.5 15.5t13.5 8.5q8 0 10 -4q2 -3 1.5 -6t-0.5 -5q-2 -9 -8 -15t-12 -11.5t-10.5 -12t-3.5 -15.5q1 -3 3 -6t6 -3q5 2 11 0.5t11 -3.5q7 -4 13 -6.5t12 -6.5q1 0 2 -1t3 -1q12 -6 24.5 -12t27.5 -5q9 2 14 10q4 10 1.5 21t-1.5 22 q5 27 25 46q23 16 46 19q7 -1 13.5 -0.5t11.5 -3.5zM63 519h1h-1zM242 472q2 -2 2 -8q-2 -8 -9 -8q-8 0 -11 4q-1 3 -1 9q3 7 12 7q6 0 7 -4zM225 475q0 -2 -2 0h1h1zM300 379q-9 9 -20 9q-7 0 -9 -4q-2 -2 -0.5 -4.5t3.5 -4.5q5 -5 12 -7.5t15 -0.5q2 0 2 2t1 4q-1 3 -4 6z M190 163q-2 3 -7 3t-5 -3q0 -5 1 -6q2 -3 8 -3q2 0 4 3q2 2 0.5 3t-1.5 3zM137 43l2 -4q0 -1 0.5 -1.5l0.5 -0.5q1 -5 -0.5 -8t-3.5 -6q-3 -3 -11 -7q-6 0 -10 3q-2 2 -2.5 5.5t-0.5 6.5q2 4 3.5 7.5t5.5 5.5q6 6 12 2z" />
<glyph unicode="o" horiz-adv-x="562" d="M339 510q16 -6 31 -14t30 -14q10 -3 19.5 -5t18.5 -5q20 -8 33 -20q11 -10 21 -23q17 -22 29 -50l8 -19q5 -12 8 -24.5t5 -25.5q1 -6 1 -12q0 -5 2 -11q1 -12 1.5 -24.5t-0.5 -24.5q-2 -26 -8.5 -51t-23.5 -45q-4 -6 -8 -11.5t-6 -12.5q-5 -12 -11.5 -23.5t-17.5 -19.5 q0 -2 -1 -2t-2 -1q-6 -6 -6 -15q2 -6 7.5 -10t10.5 -7q5 -2 9.5 -6t5.5 -9q4 -6 0 -15q-6 -6 -16 -6q-8 2 -12 8t-7 13t-7 13t-12 8h-9q-17 -8 -34 -17.5t-35 -15.5q-15 -5 -29.5 -8.5t-31.5 -3.5q-33 -3 -60 4q-11 4 -22 7.5t-24 3.5q-10 -1 -20.5 0t-18.5 6q-12 8 -13 21 q2 5 0 10.5t-7 8.5q-7 3 -11 2q-5 -2 -9 -5t-9 -1q-7 4 -7 13q1 4 1 8t-2 6q-4 3 -8 2q-6 -2 -9.5 -7t-7.5 -10q-2 -5 -4.5 -9.5t-7.5 -8.5q-3 -2 -8 -2q-4 0 -7 2q-5 3 -6 8t1 10q5 10 15.5 16t12.5 17q1 10 -5 17t-11 15q-10 15 -16.5 32t-11.5 34l-1 7l-4 18q-5 43 1 81 q4 15 8.5 30.5t11.5 29.5q6 14 15.5 26t7.5 29q-2 4 -1.5 8t2.5 7q3 5 8 7l10 4q6 0 8 3q4 4 2 9q-5 8 -11.5 12t-14.5 8q-2 2 -4.5 4t-4.5 5q0 3 -0.5 6.5t1.5 5.5q5 6 11 8q4 -1 7.5 -1.5t6.5 -3.5q5 -5 8 -11.5t8 -11.5q5 -8 15 -10q3 -1 6.5 -0.5t6.5 1.5q9 2 16.5 8.5 t15.5 11.5q11 8 23 13l24 10q5 1 9.5 3t9.5 2q11 3 24 4t25 1q17 -2 32 -6t30 -9zM157 509v-1v1zM490 487q2 -4 5 -8t1 -9l-2 -6t-5 -4q-7 -3 -12 2q-8 8 -6 21q1 5 9 7q5 0 10 -3zM341 264l-6 5q-4 2 -8 1q-4 -4 -3 -10q1 -5 2.5 -9.5t6.5 -7.5q2 -2 4 -3.5t5 -1.5q5 3 6 7 q-1 4 -1.5 8t-2.5 7q-1 2 -2 2t-1 2zM311 238q-4 3 -7 5.5t-7 4.5q-13 4 -22 -1q-8 -6 -7 -12q0 -5 4 -8.5t2 -8.5q1 -2 0 -3.5t-2 -3.5q-2 -1 -3.5 -2.5t-3.5 -1.5q-8 0 -12 5q-3 2 -3.5 5t-2.5 6q-2 11 -10 15q-8 2 -13 -3q-7 -9 -2 -17q4 -7 7 -14t8 -13q5 -10 8 -19.5 t8 -19.5q3 -4 10 -11q12 -9 25 -6q10 1 16.5 9t11.5 16q4 8 5.5 16.5t2.5 17.5q0 13 -2.5 24t-10.5 20zM233 208l-2 1h2v-1zM159 100q-3 3 -7 4t-7 -1q-5 -2 -5 -7q-2 -1 -1 -2t0 -3q1 -3 3 -6t5 -4q5 -3 9 1q7 5 5 14zM107 49q3 -2 3 -7q0 -4 -2 -8q-3 -4 -8 -6 q-5 0 -9 0.5t-6 5.5q-4 8 1 14q6 7 14 6q4 -2 7 -5z" />
<glyph unicode="p" horiz-adv-x="550" d="M350 518q14 -3 27.5 -8t24.5 -14q7 -5 10 -12.5t9 -14.5q2 -2 6 -2.5t7 0.5q8 2 12 7.5t11 9.5q5 2 10.5 1t7.5 -5q5 -6 1 -16q-2 -5 -5.5 -7t-7.5 -3.5t-8 -3.5t-5 -7q-4 -4 0 -10q2 -7 8.5 -8.5t12.5 -3.5q10 -5 16 -15t8 -21q1 -6 4 -11q11 -16 19.5 -33.5t11.5 -37.5 q5 -24 1.5 -48.5t-14.5 -45.5q-6 -11 -14 -21t-15 -20q-2 -4 -3 -6.5t-1 -7.5q0 -6 -1.5 -11.5t-7.5 -8.5q-8 -3 -10 -12q-1 -7 3.5 -11t9.5 -8q7 -5 14.5 -10t9.5 -13q0 -3 -0.5 -7t-5.5 -6q-4 -2 -8 -1t-7 3h-1q-11 7 -20 18t-23 13q-10 2 -17 -4t-15 -10 q-19 -12 -39 -19.5t-41 -12.5q-21 -3 -38 1q-9 3 -17.5 7.5t-16.5 8.5q-9 5 -18 -4q-2 -4 -4 -8.5t0 -9.5q2 -7 6 -12.5t4 -13.5q-2 -3 -2.5 -6.5t-2.5 -5.5v-1h1h-2q-7 -7 -17 -7.5t-19 1.5q-1 1 -2 0.5t-2 0.5q-11 2 -18.5 6.5t-18.5 6.5q-12 1 -22 -1.5t-19.5 -6.5 t-20 -7.5t-22.5 -2.5l-12 2t-11 3q-5 4 -10 7t-8 8q-10 11 -13 26.5t-2 29.5t3.5 26.5t3.5 25.5q2 18 1 36.5t-4 36.5q-5 15 -6 32.5t5 32.5q1 3 2.5 5.5t3.5 5.5q2 1 9 6q7 1 13.5 4.5t10.5 10.5q10 20 3.5 40t-17.5 35q-9 14 -15.5 27.5t-10.5 28.5q-3 23 1 43q7 20 20 31 q3 4 7 6t7 5q5 1 10 3.5t11 3.5q18 5 36 1t37 -6q12 -2 24 -1.5t23 2.5q8 2 17.5 3t17.5 3q9 0 18.5 0.5t18.5 1.5q20 1 41 -1t41 -6zM499 463l3.5 -3.5t1.5 -3.5q3 -5 -1 -11q-4 -8 -14 -6q-2 0 -8 4q-5 8 0 17q2 2 3 2.5t3 2.5q4 1 7 0t5 -2zM15 444v-1v1zM46 358 q5 -5 8 -12.5t4 -15.5v-5q0 -5 -0.5 -10.5t-5.5 -10.5q-2 -2 -6 -2q-3 0 -5 -1q-10 5 -15 14.5t-7 18.5v3q0 8 1 15.5t9 11.5q3 2 6 1.5t5 -1.5t3 -2.5t3 -3.5zM310 285q-2 7 -8 7q-2 0 -3 -1.5t-3 -2.5q-1 -2 -1.5 -5t-1.5 -5q2 -7 5 -10q2 0 3 -1.5t3 0.5q5 2 7 7 q2 6 -1 11zM286 259q-8 6 -14 6q-8 2 -13.5 -1.5t-11.5 -7.5l-5 -9q-5 -8 -4.5 -19t2.5 -20q2 -6 2 -10q2 -7 0 -13.5t-4 -13.5q-3 -8 2 -17q3 -9 13 -9q5 0 8 3q5 5 4.5 10.5t4.5 8.5q8 7 17.5 6t17.5 5q7 8 7 19l-3 -1q1 3 4 4q0 15 -7 34q-3 8 -8 13.5t-11 11.5h-1z M457 142q-2 2 -3 2.5l-3 1.5q-1 -1 -1.5 0t-1.5 0q-3 -3 -3 -2q-2 0 -2 -1t-1 -2q-1 -2 -0.5 -3.5t0.5 -2.5q5 -5 8 -5t4 2t3 4v6zM118 1h-1h-1h2z" />
<glyph unicode="q" horiz-adv-x="572" d="M373 509l27 -11q7 -2 13.5 -3t12.5 0q3 1 7 1t7 2q6 1 10.5 4.5t9.5 6.5q5 4 11 7.5t14 1.5q4 -1 6 -4.5t3 -6.5q2 -9 -5 -12q-9 -7 -17 -6q-4 -1 -8 -1t-7 -3q-6 -4 -6 -15q3 -8 9.5 -12.5t11.5 -9.5l6 -6q15 -15 24 -28l1 -1l12 -18l1 -2q8 -11 12 -22t9 -22l4 -22 t1 -22q-1 -5 -1 -9t-1 -9q-2 -4 -3 -8.5t0 -9.5q1 -13 7 -24t6 -25q0 -17 -2 -32t-10 -29q-5 -11 -10.5 -19t-13.5 -17q-5 -6 -4.5 -13.5t-4.5 -12.5q-8 -9 -19 -9q-6 1 -11.5 4.5t-11.5 7.5q-2 0 -4.5 1t-4.5 -1q-4 0 -5 -2.5t-3 -4.5q-2 -5 0 -9q7 -9 16 -8q16 0 31 1.5 t30 -2.5q2 -2 3 -2q2 0 4 -2q1 -2 2 -2q2 0 4 -2q6 -7 8.5 -17t-0.5 -18q-2 -3 -3 -5.5t-3 -4.5v-1h-1q-2 -5 -6 -8.5t-8 -5.5q-5 -1 -9.5 -2.5t-9.5 -0.5q-14 0 -24 8.5t-22 13.5l-10 4t-11 1q-5 0 -9 -1l-8 -2q-5 -2 -10 -4.5t-10 -4.5q-3 -2 -11 -4q-5 -2 -9.5 -3 t-9.5 -3l-1 -1q-8 -1 -15 -3t-15 -2q-17 -3 -32 -3l-35 1q-8 2 -15 2t-15 2q-4 2 -8 2q-3 0 -8 2q-6 1 -11.5 3t-12.5 4q-2 0 -4.5 1t-4.5 2l-3 3q-7 2 -14 5t-15 1q-5 -1 -9.5 -1.5t-8.5 2.5q-5 4 -5 10t1 11q0 5 -6 11q-5 1 -8 -1.5t-6 -4.5q-5 -5 -6 -12.5t-3 -15.5 q-2 -10 -10 -13q-5 -1 -9.5 -0.5t-6.5 3.5q-6 7 -4 15q3 8 9 14q4 5 9 11.5t2 14.5q-5 8 -12 13t-12 11q-31 30 -36 76q-2 12 -2.5 24.5t-6.5 23.5q-5 10 -9.5 21t-3.5 23q1 10 4.5 19t5.5 17q7 14 11 28.5t6 30.5q3 10 8 23q2 3 3.5 6l3.5 7q2 2 3 4.5t3 4.5q4 6 7.5 12.5 t8.5 11.5q5 8 16 17q23 25 51 41.5t60 27.5q6 2 12 3t12 3q25 5 45 5q53 0 95 -16zM503 488q2 -2 4.5 -3.5t2.5 -5.5q-2 -7 -5 -8q-6 -4 -11 0q-4 2 -4 7q-1 3 1 5l4 4q2 4 7 1h1zM335 271q-2 2 -3.5 4.5t-3.5 3.5q-7 2 -12 -2q-4 -3 -7 -7.5t-8 -6.5q-1 0 -1 -1t-2 0 q0 -2 -1 -2t-2 -1q-3 -1 -6.5 -1.5t-6.5 -2.5q-14 -6 -22 -20q-2 -7 -4.5 -12t-3.5 -12q-2 -2 -1.5 -5t-0.5 -7q-2 -5 -1 -11t0 -12q1 -5 1.5 -9.5t2.5 -9.5q8 -16 24 -22q2 -2 4.5 -0.5t4.5 -0.5q19 0 30 11t17 28.5t-2 34.5q-2 7 -9.5 8t-10.5 8q-3 8 2 15q4 6 10 8t10 8 q2 3 3.5 7.5t-1.5 8.5zM253 264v6t-3 4q-7 0 -9 -6q-2 -3 -3 -7.5t1 -7.5q2 -2 3 -2q5 2 7 5.5t4 7.5zM514 265q1 4 -2 8q-2 0 -4 -2q-3 -3 -3 -4q1 -2 1.5 -4.5t4.5 -3.5q3 1 3 6zM544 109q10 -5 8 -17q-1 -4 -3.5 -6t-6.5 -5q-8 -4 -13 1q-9 6 -7 17q1 3 2.5 6t4.5 4 q7 5 15 0z" />
<glyph unicode="r" horiz-adv-x="576" d="M171 520l36 -8t38 -3q14 -1 26 2t24 7q5 2 11.5 2.5t13.5 2.5q11 1 22.5 1.5t22.5 -0.5q8 0 14 -0.5t13 -0.5q7 -3 13 -3q15 -5 29 -11t25 -19q7 -4 15 -4q7 2 12.5 7t10.5 10q3 7 9 14t15 5q7 -2 10 -8q2 -7 -1 -11.5t-6 -9.5q-9 -6 -20 -12.5t-14 -17.5q-2 -8 3 -11 q1 0 1 -1h1q3 -2 6 -1t8 1q8 0 11 -6q1 -5 -1 -9l-4 -8q-6 -9 -3 -19q4 -11 10.5 -19t11.5 -17t6.5 -18t2.5 -18q2 -11 0.5 -22.5t-3.5 -22.5q-6 -31 -23 -59q-5 -7 -9.5 -13.5t-11.5 -13.5q-3 -3 -6 -7t-7 -7t-8 -7t-7 -9q-2 -3 -3 -7t0 -8q2 -2 2.5 -4t2.5 -3v-1 q8 -8 16 -14t15 -14q23 -26 27 -55v-17t-3 -16q-2 -10 -7 -17q-17 -20 -46 -17q-14 3 -29 6.5t-30 -0.5q-6 -4 -11 -6t-12 -3l-10 2t-9 5q-2 2 -4 3t-4 4q-3 2 -4 5.5t-3 5.5q0 2 -1 4t-1 4q-2 8 -8.5 10.5t-13.5 2.5q-8 2 -16 -0.5t-16 -0.5q-8 1 -20 8q-6 4 -12.5 7 t-14.5 1q-7 -2 -10.5 -7.5t-4.5 -11.5q0 -19 -15 -31q-4 -4 -14 -7q-3 0 -6 -0.5t-6 -0.5q-2 0 -3 0.5t-3 -0.5q-5 2 -12 2.5t-14 2.5q-11 2 -23 2t-22 -4q-5 -1 -10.5 -2t-10.5 -1q-13 -2 -22 1q-17 4 -30.5 16t-20.5 28q-5 10 -5 21q0 12 2 23q3 9 5.5 18t1.5 19 q-3 20 -5 41t-3 41q-1 8 -0.5 16.5t0.5 16.5q1 2 0 4.5t1 4.5q0 16 3 31q0 2 0.5 2.5t-0.5 2.5q2 15 6 29.5t3 31.5q0 11 -2 20.5t-5 18.5q-4 17 -2 34.5t8 34.5l2 4q10 20 28 36t40 22q13 5 27 5t28 -2zM543 465q2 -2 1 -4.5t-2 -4.5q-2 -5 -6 -5q-7 0 -10 3q-4 5 -2 12 q2 2 4 3t5 2l6 -2t4 -4zM539 368h-1h1zM275 251q-5 4 -10.5 1t-9.5 -5q-3 -5 -6.5 -9.5t-0.5 -10.5q4 -3 8.5 -1.5t7.5 3.5l7 6q1 3 3 4q-1 2 0 2t1 2q1 2 0.5 4t-0.5 4zM308 223q-5 7 -12.5 5.5t-14.5 -5.5q-5 -2 -7.5 -5t-7.5 -6q-3 -2 -5 -6t-4 -7q-18 -21 -11 -50 q2 -4 6 -10q12 -13 32 -10q8 2 15.5 6t11.5 12q2 3 2 7v9q-2 7 -5.5 12t-5.5 11q-2 5 -1 11t6 9q2 4 3 8t-2 9zM92 144q-3 3 -6 2q-2 0 -4 -2q-3 -3 1 -8q2 -1 4 -0.5t4 0.5q-1 0 2 3q1 1 -1 5zM66 123q-1 1 -4 1q-7 -1 -11 -12q-1 0 -0.5 -1t-0.5 -2q-2 -8 1 -16q2 -3 6 -3 q5 1 7 4.5t4 7.5q2 5 2 11t-4 10z" />
<glyph unicode="s" horiz-adv-x="494" d="M328 513q7 -3 14.5 -6t15.5 -8q3 -2 6 -4.5t6 -4.5q11 -12 24.5 -22.5t27.5 -18.5q2 -1 4 -2.5t5 -1.5q3 -3 11 -9q21 -19 28 -47t-1 -55q-2 -3 -3 -6t-3 -6q-2 -2 -2.5 -4.5t-2.5 -4.5q-8 -14 -21.5 -23t-27.5 -15l-18 -4t-19 -1q-8 1 -14.5 1.5t-14.5 1.5 q-4 0 -7.5 0.5t-7.5 -1.5q-5 -1 -7.5 -4.5t-5.5 -6.5q-4 -10 -3 -15q2 -9 7 -14q6 -7 13 -12.5t15 -12.5q2 -4 4 -5q14 -17 19 -34q2 -5 3.5 -9.5t6.5 -7.5q4 -2 8 -1t8 3q9 4 16 -3t3 -14q-2 -8 -7 -9q-4 -2 -8 -2t-7 1q-9 0 -13 -8q-3 -9 -4 -18.5t-6 -17.5 q-2 -8 -6 -14.5t-9 -12.5q-2 -2 -2 -4q0 -1 -2 -2q-4 -7 -14 -15q-5 -3 -9.5 -6.5t-9.5 -5.5q-12 -8 -25.5 -11.5t-27.5 -6.5q-11 -2 -24 -2.5t-26 -1.5q-11 1 -23 1.5t-23 2.5q-12 2 -23.5 6t-23.5 7q-8 0 -11 -4q-6 -11 -14 -11q-5 0 -11 4q-4 4 -4 14q4 10 0 15 q-3 5 -9 3t-8 -8t-6 -11q-1 -5 -4.5 -9t-8.5 -6q-4 -1 -8.5 -0.5t-6.5 3.5q-2 2 -2.5 5.5t-0.5 6.5q1 5 5.5 8t7.5 8q5 6 9.5 12.5t7.5 13.5q-1 3 0 6.5t-1 5.5q-2 6 -3.5 12t0.5 12q1 9 5.5 18t12.5 14q4 1 8 2.5t8 -0.5q1 -1 2.5 -0.5t1.5 -0.5l4 -2l4 -2q5 -4 10.5 -7 t11.5 -4q6 -2 9 -1q7 -2 12.5 1.5t10.5 8.5q6 4 6 9q4 6 3 14.5t-3 13.5q-4 8 -6 11q-8 11 -24 16q-8 4 -12 5l-22 12t-20 15q-8 6 -14 12.5t-13 14.5q-4 7 -8.5 13.5t-7.5 13.5q-2 2 -2.5 4.5t-2.5 4.5q-2 8 -4.5 15t-4.5 15q-9 40 1 77q4 17 14 37q-1 0 2 3q6 13 15 23.5 t20 21.5q13 11 28 19.5t31 13.5q5 3 9.5 4t9.5 3q2 1 4 1t4 1q7 1 14 2.5t14 2.5q2 1 3 0.5t2 -0.5q54 6 103 -1q9 -1 17.5 -3.5t17.5 -4.5zM415 514q4 -6 2 -9q-2 -5 -6.5 -8.5t-9.5 -5.5q-5 -1 -10.5 -2t-10.5 3q-4 4 -4 9q3 8 9.5 11t12.5 5q3 0 5.5 1t4.5 -1q4 0 7 -3z M369 460q-2 0 -2.5 0.5t-2.5 0.5t-3 -1t-3 -1q-2 -3 -1.5 -6t1.5 -5q2 -1 5 -2t6 1q1 1 4 6q0 2 -1.5 3.5t-2.5 3.5zM303 301q-3 2 -8 0q-5 -3 -7 -9t-3 -12q0 -3 2 -9q2 -3 8 -3q6 4 7 9q7 11 1 24zM72 220l-1 -1l-1 1h1h1zM405 187q3 -6 -2 -13q-3 -5 -9 -5q-8 -1 -14 7 q-2 6 2 14l3 3t3 2q3 0 5.5 0.5t5.5 -1.5q4 -4 6 -7z" />
<glyph unicode="t" horiz-adv-x="538" d="M214 523q20 -5 40 -9t41 1q11 2 20.5 6t20.5 3q4 0 8 0.5t7 -1.5q15 0 27 -6.5t24 -14.5q3 -3 11 -7q5 -2 9.5 -4.5t9.5 -2.5t8.5 -0.5t7.5 1.5q6 1 11 6t9 10q2 7 7.5 13t14.5 6q6 0 11 -6v-9t-4 -7q-4 -3 -8 -5t-6 -7l-2 -6l2 -6q4 -8 10 -13l10 -12t8 -14 q11 -23 8 -49.5t-21 -46.5q-4 -6 -11.5 -12t-0.5 -15q5 -5 12.5 -7.5t5.5 -11.5q0 -7 -7 -9q-6 -2 -10 -1q-8 2 -13 9.5t-14 9.5t-16 -5q-3 -5 -3 -7q1 -7 6 -12t10 -9l10 -12t3 -14q-3 -10 -14 -12q-11 0 -15 8.5t-9 14.5q-5 7 -12.5 10t-15.5 1q-4 -1 -6.5 -3t-5.5 -4 q-2 -2 -2.5 -3.5t-2.5 -2.5q0 -2 -1 -2.5t-2 -2.5q-7 -16 -5 -33q2 -2 1.5 -3.5t1.5 -3.5q2 -10 2 -16v-1q0 -12 -0.5 -23.5t-5.5 -22.5v-1q-2 -7 -5 -13t-3 -14q0 -5 1 -10.5t2 -10.5q2 -13 1.5 -26t-8.5 -24q-5 -7 -12.5 -9.5t-15.5 -3.5q-5 -1 -8.5 -2.5t-8.5 -2.5 l-7 -3.5t-8 -3.5q-6 -4 -12.5 -8t-13.5 -7q-9 -4 -18.5 -6.5t-20.5 -2.5q-14 1 -26 4t-23 12q-11 7 -18 17q-13 16 -18 38q-5 14 -4.5 29.5t4.5 29.5q4 11 8 22.5t-1 24.5q-7 16 -7 27q-1 2 -0.5 4.5t0.5 4.5q0 6 2 12t4 11q4 5 5 11.5t1 12.5q-1 1 -0.5 2t-0.5 3q-2 3 -8 5 q-9 1 -16 -2t-15 -3q-15 -1 -31 3q-3 1 -6.5 2t-6.5 3l-5 2.5t-6 3.5q-3 3 -4 3q-2 3 -5 4t-5 3q-3 2 -6 5.5t-5 6.5q-18 21 -24.5 48t-1.5 56q4 11 8.5 21.5t11.5 18.5q5 5 8 11.5t-2 13.5q-4 7 -10 11t-11 9q-8 8 -6 18q3 10 12 12q6 0 12 -4q8 -11 12 -22.5t15 -19.5 q3 -2 6.5 -1t5.5 2q5 5 3.5 11t3.5 10q9 7 17 5q5 -2 9.5 1.5t9.5 5.5q18 13 42 15q11 2 22 2q12 0 23 -2zM117 463q-2 2 -5.5 3t-5.5 -1q-2 -7 -1 -10q2 0 2.5 -1.5t2.5 -0.5q1 -2 2 -1t3 1l2 5q1 2 0.5 3t-0.5 2zM90 256q4 -6 2 -14q-2 -3 -3 -5t-5 -4q-2 -1 -5 -0.5 t-5 0.5q-2 2 -4 2.5t-4 3.5q-3 2 -3 6q-3 8 1 14q2 0 2 1q0 2 2 2q2 2 6 2t7 -1q6 -4 9 -7zM336 84q-2 4 -11 6q-6 -2 -9 -7t-7 -10l-2 -1q-8 -8 -16 -12q-5 -5 -3 -11q0 -5 7 -7q6 -2 11.5 0t11.5 4q18 10 20 31q-2 4 -2 7zM362 19q0 -5 -3 -9q-2 -2 -5 -3t-5 -3h-13 q-2 1 -6 5q0 2 -0.5 4t0.5 3q2 3 4 4t4 3q4 2 14 2q8 -2 10 -6z" />
<glyph unicode="u" horiz-adv-x="562" d="M443 507q4 -4 6.5 -7.5t5.5 -7.5q2 -4 4.5 -7.5t7.5 -3.5q9 0 13 7q3 4 4.5 10t3.5 11t5.5 9t10.5 5q7 2 10 -3t3 -10q-2 -7 -7 -12t-9 -11q-3 -8 0 -12q2 -3 4.5 -3.5t6.5 -1.5q5 1 9.5 5.5t12.5 -0.5q6 -4 4 -15q-3 -5 -5.5 -9t-2.5 -9q1 -9 4.5 -17t4.5 -18q1 -4 1 -8 v-9q2 -8 0.5 -14.5t-1.5 -14.5q-1 -3 -1 -7q0 -3 -2 -7q-4 -23 -15 -46v-11q0 -5 3 -10q5 -8 9 -15.5t6 -17.5q2 -5 1.5 -12t-1.5 -15h1l-3 -16q-4 -18 -12.5 -34.5t-19.5 -31.5q-9 -14 -3 -26q0 -3 0.5 -6.5t0.5 -5.5q0 -17 -15 -24q-2 0 -3 -1.5t-3 -1.5q-8 -2 -16 -1.5 t-16 -3.5q-8 -5 -14.5 -9.5t-13.5 -9.5q-2 -1 -3.5 -2.5t-3.5 -2.5q-5 -3 -8.5 -5.5t-7.5 -4.5q-5 -2 -10.5 -5t-11.5 -6q-3 -3 -3 -2q-11 -4 -22 -7.5t-23 -6.5q-7 -2 -13.5 -2.5t-13.5 -2.5q-9 -1 -18 -1.5t-17 -0.5q-29 0 -54 6q-16 4 -30 9.5t-28 12.5q-5 1 -9 2.5 t-8 -0.5q-5 -2 -9.5 -3.5t-9.5 1.5q-10 5 -8 18q0 2 -2 6q-2 0 -4 0.5t-4 -0.5q-3 -1 -4.5 -3.5t-3.5 -4.5q-5 -8 -9 -17.5t-13 -15.5q-2 -3 -6 -3.5t-7 -0.5q-4 2 -7 4t-4 5q-2 3 -1.5 6.5t1.5 7.5l8 10q10 9 20.5 17t19.5 19q4 8 3 15v3q-2 2 -3 4t-3 2q-5 0 -8 -1t-7 -2 q-7 -1 -18 6q-2 5 -4 8.5t-1 8.5q1 7 -4 13q-2 9 -7 16t-7 15q-1 2 -2 5l-2 6q-3 14 -3.5 29t0.5 30q0 23 3.5 44.5t3.5 44.5q-1 1 -1 3l-1 1h1h-1l1 -1q2 2 -1 2v2l-1 -1v1q1 0 1 2q-1 -1 -2 1q1 1 0 2.5t0 1.5v3q-1 0 0 2h-1v-1h-1v2h1h-1v1h1v1h-1l-1 1v1q0 2 -1 2l-1 1 l1 1q-1 0 -0.5 0.5t-0.5 0.5q1 0 2 -1v2h-1q0 1 -2 6q0 3 -1 5q1 1 -0.5 0.5t-0.5 1.5v3q-2 5 -2 10v12q0 4 0.5 7t0.5 7q3 24 12 43l1 1q5 11 11 21t15 18q4 5 8.5 8t9.5 8q12 6 24.5 11.5t26.5 7.5h18t18 -2q13 -5 25 -10.5t21 -15.5q23 -21 32 -51q7 -24 6 -48 q-3 -32 -12 -62q-4 -10 -7 -21t4 -21q4 -7 8.5 -12.5t6.5 -13.5q5 -15 0 -34q1 -2 0 -4t-1 -4l-1 -5q-2 -9 -1 -18.5t6 -17.5q1 -4 6 -6q8 -4 16 0q6 1 11 6t9 10q2 1 2.5 2.5t2.5 3.5q8 14 14 30t4 33q0 5 -1 9q1 0 -1 2q0 3 -0.5 7t-0.5 7q-1 7 -2 13.5t0 14.5q-1 7 -1 12 q0 6 2 13q1 15 1.5 29t-1.5 28v18q0 10 2 18q5 33 24 58q19 27 50 33q3 1 6 0.5t6 0.5q23 -3 40 -18zM50 514q5 -6 3 -13q-2 -4 -4.5 -6t-4.5 -4q-2 -1 -5.5 -2t-7.5 1q-5 0 -5 5q-2 2 -1.5 5t1.5 5q0 2 1.5 3.5l3.5 3.5q1 2 3.5 2.5t4.5 2.5q8 2 11 -3zM497 443q-1 5 -6 10 q-4 2 -5 1q-1 1 -2.5 0.5l-1.5 -0.5q-3 -3 -3 -6q-2 -7 3 -12q0 -3 7 -5q4 0 8 4q0 2 0.5 4t-0.5 4zM308 166l-3 1q-3 2 -10 -1q-8 -2 -15 -7t-9 -13q-1 -3 2 -8q4 -4 9.5 -2.5t10.5 3.5q1 0 1 1t2 1q5 4 9 8t6 10q0 6 -3 7zM86 154q-2 6 -8 6t-9 -8q0 -2 -1.5 -4.5 t-0.5 -5.5q2 -2 2.5 -4t3.5 -2h4q2 1 4 2.5t4 3.5q2 8 1 12zM479 62q6 -6 6 -11q2 -6 -3 -13q-3 -3 -8 -3.5t-8 0.5q-8 3 -10 11q-1 8 7 15q4 4 9 3q1 1 3 -0.5t4 -1.5z" />
<glyph unicode="v" horiz-adv-x="459" d="M143 516q3 -2 6 -2.5t6 -2.5q6 -4 13.5 -5t15.5 0q10 2 18.5 -1t15.5 -9q3 -5 5.5 -8t4.5 -8q2 -3 4 -11q3 -9 3 -19t5 -19q2 -2 3.5 -4.5t4.5 -3.5q4 -4 8.5 -3.5t8.5 2.5q13 8 20 18q6 6 9 13.5t7 15.5l1 3q14 31 43 46q5 0 11 4q5 0 6 1q14 1 27 -1t24 -11 q17 -14 21.5 -34t-0.5 -40q-5 -15 -14 -28t-10 -30q-2 -17 -5 -33t-7 -33q-3 -11 -7 -22l-8 -22q-1 -4 -5 -10q-2 -5 -4 -10.5t-5 -10.5q-3 -8 -7 -14.5t-8 -14.5q-7 -11 -12 -22.5t-10 -22.5q-5 -13 -4.5 -25.5t-0.5 -26.5q-1 -7 -1 -14q0 -6 -2 -13q-3 -11 -6.5 -21.5 t-10.5 -20.5q-6 -8 -13 -15t-15 -12q-2 -2 -3 -2q-18 -12 -44 -14q-14 0 -26 4q-4 0 -7 2t-7 4q-3 2 -5.5 3t-5.5 3q-3 5 -6.5 7.5t-5.5 5.5q-12 16 -18 36q-4 8 -15 8q-5 0 -10 0.5t-7 5.5q-2 6 -1 12q2 8 10 8.5t15 1.5q4 1 6 5q3 6 -1 12q-4 4 -10 4q-14 -1 -23 -11.5 t-23 -11.5q-9 2 -12 10q-4 7 3 14q4 5 14 7q8 2 16 5t12 12q2 8 -1 14t-6 11q-10 16 -19 32t-16 33q-2 0 -1 1q-11 20 -19 48h-1q-3 13 -5.5 25.5t-3.5 26.5q0 15 -3 29q-4 13 -11 23.5t-12 22.5q-3 12 -4.5 25t1.5 25q3 14 10.5 26t18.5 20q15 11 34.5 14.5t39.5 -1.5 q4 -2 8 -3t8 -3zM265 398q-2 4 -7 5.5t-9 -0.5q-2 0 -3.5 -2t-3.5 -4t-1 -4.5t1 -4.5l3 -3q2 -3 6 -3.5t7 0.5q8 4 8 9q1 2 -1 7zM356 132q3 -6 2 -13t-2 -13q-2 -2 -2 -5q0 -2 -2 -4q-2 -6 -7 -12l-5 -3q-6 0 -8 6q-1 9 1.5 17t4.5 16q2 2 3 4.5t3 4.5q3 3 6 4q2 2 3 0.5 t3 -2.5zM101 72q5 -9 0 -17q-3 -4 -8 -6q-5 -1 -9.5 0t-7.5 6q-5 9 1 18q5 5 11 6q8 0 13 -7z" />
<glyph unicode="w" horiz-adv-x="701" d="M644 523l5 -3q17 -6 25.5 -20.5t9.5 -31.5q2 -15 -3 -27.5t-13 -24.5q-8 -15 -16 -30.5t-11 -32.5q-1 -8 -2 -14.5t-1 -14.5q-2 -14 -3 -28.5t-4 -28.5q-5 -25 -11.5 -49t-17.5 -47l-1 -2q-7 -15 -18 -31q-2 -2 -3 -4t-3 -4q-4 -3 -6 -9q-6 -7 -4 -20q1 -5 2.5 -9 t-0.5 -8q-1 -3 -3 -4.5t-4 -3.5q-2 -1 -3 -2.5t-3 -3.5q-5 -9 -1 -15q4 -10 10 -12q8 -5 16.5 -5.5t14.5 -8.5q2 -3 2 -7q0 -3 -1 -6q-3 -5 -6 -5q-8 -2 -13.5 1t-10.5 7q-6 4 -12 7.5t-14 3.5q-5 -2 -10 -3.5t-8 -5.5q-11 -9 -24 -13t-27 -5q-2 1 -4 0q-2 1 -4 1h-4 q-5 2 -9.5 3t-8.5 3q-26 10 -38 34q-7 13 -9 30v4q-2 5 -3.5 11.5t-5.5 11.5q-3 6 -7 11.5t-10 9.5q-2 2 -4 2.5t-3 2.5q-3 2 -6 3.5t-6 1.5q-1 1 -2.5 0.5t-3.5 0.5q-5 0 -9 -0.5t-8 -2.5q-1 -2 -3 -2q-1 0 -1 -2q-3 -2 -5 -5l-4 -6q-4 -11 -1 -21q-1 -2 0 -5t0 -5 q0 -6 -2 -16q-1 -16 -13 -33q-5 -6 -10.5 -11.5t-12.5 -8.5q-13 -10 -29 -13q-29 -6 -55 7q-4 2 -7 4t-7 4q-1 2 -3 3t-4 3q-11 10 -16.5 22t-8.5 26q-3 6 -6 12.5t-8 13.5q-2 5 -4.5 10.5t-4.5 10.5q-5 21 1 39q0 6 -1 8q-8 7 -15 5q-7 -1 -15 -7l-9.5 -9.5t-9.5 -8.5 q-3 -5 -10 -5q-5 -2 -8 2q-7 5 -5 12q2 6 6 9.5t9 5.5q4 2 8.5 3t8.5 3l6 4t4 6q0 7 -2 11q-3 3 -6.5 4.5t-5.5 4.5q-4 6 -3 12q2 15 1.5 31t-4.5 31q-1 1 0 2.5t-1 2.5q-6 26 -15.5 50.5t-21.5 47.5q-6 10 -8.5 21t-3.5 23q0 5 0.5 9t0.5 8q2 17 10.5 32t21.5 26 q33 29 82 21q33 -6 55 -31q10 -11 15.5 -23t7.5 -25q2 -1 1.5 -2t0.5 -2q3 -10 10 -14q4 -4 10 -4q6 -2 11.5 -0.5t11.5 2.5l12 5q9 6 14.5 13t12.5 15v1q5 5 8.5 11.5t7.5 12.5q2 3 4.5 6t4.5 6q2 1 2.5 2t1.5 2q15 15 34 23q5 1 7.5 2l7.5 3q1 -2 2.5 -1t3.5 1 q25 0 39 -17q4 -3 8 -8t8.5 -9.5t10 -7t12.5 -0.5q3 1 11 5q0 2 4 2q6 5 11.5 10.5l10.5 10.5q7 12 23 12q6 -2 9 -6q2 -5 0.5 -9t-3.5 -7q-7 -8 -15.5 -9.5t-16.5 -6.5t-17 -10.5t-10 -16.5q0 -3 5 -5q10 -3 17 6q1 2 2 2q2 0 3 2q7 5 14 0q4 -2 4 -6q0 -3 -1 -6 q-2 -2 -3 -4.5t-3 -4.5q-5 -2 -9.5 -7.5t-2.5 -10.5q-2 -3 -1 -5.5t2 -4.5q8 -12 23 -9q0 1 1 0.5t2 0.5q2 0 6 2q2 2 3 1q1 0 1.5 1.5t1.5 1.5q10 6 17 18q5 11 4 23t6 23q5 11 11.5 21t17.5 17q2 2 8 4q23 11 47 5zM266 400q-2 2 -6 3.5t-7 2.5q-15 2 -23 -6v-6 q5 -5 10 -5.5t10 -0.5h7q2 2 4.5 3t4.5 3v6zM615 355q-1 0 -2.5 0.5t-2.5 -0.5q-2 -1 -2 -3q0 -1 -2 -1q-4 -6 -2 -17q1 -8 6 -12q1 -3 7 -1q3 3 3 4q3 3 3 10v5q0 2 -0.5 3t-0.5 3q-2 2 -3.5 4.5t-3.5 4.5zM299 121q0 5 -6 7q-7 0 -11 -8q-2 -3 -1 -3q-2 -8 3 -13 q8 -1 14 5q1 3 2 6.5t-1 5.5zM598 79q2 -8 -1 -12q-2 -4 -5 -5t-6 -1q-8 1 -9 9h-1q-2 8 4 12q4 4 10 3q2 -1 4 -2.5t4 -3.5zM122 81q7 -3 12 -9q2 -1 1.5 -2t0.5 -3q2 -10 -3 -15q-2 -1 -4 -3q-1 1 -2.5 0.5t-1.5 0.5q-10 3 -13 10q-4 8 -2 13q0 4 5 7q1 -1 2 1t3 0h2z" />
<glyph unicode="x" horiz-adv-x="518" d="M492 493q9 -16 9.5 -35.5t-8.5 -36.5q-2 -8 -7.5 -14t-11.5 -11.5t-11 -11.5t-6 -14q1 -8 6.5 -11.5t11 -6t9.5 -6t3 -12.5q-4 -10 -13 -10q-8 0 -12 5.5t-9 10.5q-5 3 -9 2q-2 -2 -5 -3t-3 -4q-3 -8 -3.5 -17.5t-8.5 -16.5q-5 -5 -9 -9.5t-8 -9.5q-3 -8 -4.5 -15.5 t0.5 -15.5v-4q3 -7 7.5 -14t11.5 -12q6 -5 11.5 -9t11.5 -10q6 -5 11.5 -12.5t10.5 -14.5h2q2 -6 6 -11.5t6 -12.5q2 -4 4 -6l-1 -1q14 -32 12 -68h-1q-2 -8 -3.5 -15.5t-5.5 -15.5q-2 -4 -4 -6.5t-4 -6.5q-8 -11 -18 -16q-10 -6 -21 -8q0 -1 -2 -1h-1l-9 -1q-1 1 -1.5 0 t-1.5 -1q-8 1 -15.5 2t-15.5 3h-12q-7 0 -11 -3q-13 -6 -30 -4q-11 1 -21.5 4.5t-20.5 8.5q-29 16 -49 39q-5 6 -8.5 11.5t-8.5 10.5q-5 4 -11 7t-13 1q-3 -2 -6 -3.5t-5 -5.5q-1 -1 -1 -2l-2 -2q-2 -5 -3.5 -10t-3.5 -10q-2 -8 -8 -14t-11 -13q-7 -6 -15 -10.5t-16 -8.5 q-12 -5 -25.5 -5.5t-26.5 2.5q-28 6 -42 29v1q-8 13 -10.5 28.5t2.5 29.5q6 28 29 48q0 2 2 2.5t4 2.5q6 4 6 11q0 10 -9 14t-12 13q-2 8 2 13l4.5 4.5t6.5 1.5q8 1 13.5 -5.5t10.5 -11.5q2 -2 6 -1.5t6 2.5q3 4 3.5 7.5t1.5 7.5q0 3 2 4t4 3q3 2 7 1t7 -2q0 -1 3 -2l-1 1h2 q2 -2 3 -2q4 0 5 -1q7 0 12 9q1 3 -2 11q-2 4 -6.5 6t-9.5 4q-4 0 -5 3q-2 0 -3 1.5t-3 1.5q-5 2 -8.5 5.5t-6.5 5.5q-8 8 -10 11q-10 13 -14 29q-4 11 -11 24q-2 4 -5 5.5t-6 5.5q-8 4 -12 9t-7 10q-5 7 -9.5 16t-9.5 17q-2 8 -3 16.5t-3 16.5q0 5 -0.5 10.5t1.5 10.5 q0 4 1 7t1 7q3 8 6.5 15t8.5 14q5 6 9.5 12t11.5 11q25 18 58.5 23t64.5 -6q33 -11 57 -35q8 -7 13.5 -15.5t10.5 -17.5q11 -25 36 -29q8 0 15 2.5t13 5.5q2 2 5.5 4.5t5.5 4.5q4 5 6.5 10t6.5 10q2 3 2.5 6.5t2.5 6.5l4 10t5 9q3 5 6.5 9t8.5 9q8 6 16 11.5t19 7.5 q23 5 36 1q13 -2 24.5 -10t17.5 -20zM19 444q0 -1 -1 -1v2v-1h1zM297 385q-5 11 -14 15q-4 2 -8 3t-8 -1q-4 -4 -2 -8q2 -8 9 -12t15 -5q5 -2 7 3q2 2 1.5 3t-0.5 2zM459 310q5 -9 -1 -15q-3 -5 -10 -6q-8 2 -12 8q-5 8 0 13q6 6 11 6q1 2 2.5 1t2.5 -1q6 -2 7 -6zM474 172 q-1 0 -1 -1l-1 1h2zM239 112l-2 4q-2 0 -3 0.5t-2 0.5q-3 0 -4.5 -1.5l-3.5 -3.5v-3q-2 -2 4 -7q6 -2 10 2t1 8z" />
<glyph unicode="y" horiz-adv-x="520" d="M487 486q11 -22 8.5 -46.5t-17.5 -42.5h-1v-1q-6 -9 -13 -17.5t-12 -18.5q-10 -19 -18 -41l-4 -10l-4 -10q-5 -16 -9 -31.5t-5 -32.5q2 -2 1 -5t-1 -6q-2 -22 -12 -38q-2 -3 -3 -5.5t-3 -4.5v-1q-2 -2 -1.5 -3t-1.5 -2q-9 -12 -16 -25.5t-8 -28.5q-2 -14 3 -27.5t3 -27.5 q0 -18 -6 -33q-5 -8 -11 -13t-13 -9q-16 -6 -36 1q-7 2 -14.5 2.5t-15.5 -2.5q-2 0 -5 -1t-5 -1q-20 -5 -41 -5t-40 8q-13 5 -23.5 14.5t-17.5 21.5q-3 8 -3.5 16t0.5 16q2 6 4.5 11.5t1.5 12.5q-2 11 -6 20.5t-6 20.5l-3 7q-2 7 -7.5 11.5t-10.5 9.5q-3 4 -5 15 q1 2 0.5 4.5t1.5 4.5q1 2 2 2.5t2 1.5q1 2 2.5 3t2.5 3q2 3 0 10q-1 4 -4 5l-6 2q-8 0 -12 -4t-7 -9t-7 -10t-10 -6q-5 -2 -10 2l-4 4q-2 5 -1.5 10t4.5 10q8 7 18.5 11.5t16.5 14.5q2 6 0.5 11t-4.5 9t-7 8t-6 9q-5 5 -7 10.5t-4 10.5t-4 10.5t-3 11.5q-4 17 -11.5 32 t-18.5 29q-10 20 -10 49q1 5 1.5 11t3.5 11q1 6 3.5 10t4.5 9q9 17 25.5 29t35.5 17q17 2 33.5 0.5t30.5 -8.5q11 -5 24.5 -5.5t25.5 1.5q22 0 32 -19q4 -7 4 -15q0 -6 -0.5 -11.5t-2.5 -10.5q-1 -5 -1.5 -11.5t1.5 -12.5q3 -17 22 -22h3q9 -2 17.5 0.5t16.5 5.5q2 2 4.5 3 t4.5 3q3 2 6.5 4.5t5.5 6.5q10 10 15 26q0 2 1 4l2 4q0 2 1 4.5t2 4.5q5 18 20 32t36 19t41 -2q14 -5 25.5 -14t18.5 -21zM274 379l-1 1q-6 2 -10 -1q-4 0 -4 -7q0 -4 3 -6t6 -3q4 -1 8 -1t7 4q1 4 -1 8l-3.5 3.5t-4.5 1.5zM391 249l-1 4q-3 0 -4 -1.5t-3 -3.5q-1 -1 -1 -4 q-5 -11 -3 -23q0 -3 3 -3q3 2 4 4t3 4q2 5 3 11t-1 12zM447 217q1 -12 -2 -24q-2 -2 -3 -4t-3 -4q0 -1 -5 -3q-5 -1 -10 2q-1 2 -3 3t-1 3q-4 6 -4 12t-1 12q3 13 11 21h3q5 2 8 0q5 -2 7 -7.5t3 -10.5z" />
<glyph unicode="z" horiz-adv-x="455" d="M172 519q-10 3 -21 5t-23 1q-8 -2 -14.5 -3t-13.5 -3q-14 -5 -24.5 -12t-20.5 -17q-12 -12 -19 -27.5t-10 -32.5q-1 -14 0 -28t7 -26q5 -16 16.5 -30t16.5 -31q3 -10 7 -19t12 -17q7 -6 16 -9t19 1q8 2 14.5 6.5t14.5 1.5q5 -4 7 -11q-2 -8 -8 -12q-16 -12 -21 -32 q-2 -11 -4.5 -20t-16.5 -12q-7 -2 -13.5 0.5t-11.5 -0.5q-9 -4 -7 -15q4 -7 9 -10l4 -7q2 -8 -3 -14.5t-11 -11.5q-2 -2 -4 -3t-4 -4q-4 -1 -6 -4t-7 -5q-10 -11 -17.5 -24.5t-9.5 -29.5q-2 -5 -1 -11l2 -12q5 -16 17 -25q20 -14 42 -14q1 -1 1.5 -0.5t1.5 -0.5q16 0 31 3 q6 2 12.5 4t12.5 3q11 4 23.5 4.5t25.5 0.5h13q5 -1 10 -1.5t10 -1.5q5 0 8.5 -0.5t8.5 -1.5q8 -2 12 -2q5 0 13 -2q2 -2 4 -1.5t4 -1.5q5 0 10 -1.5t11 -1.5h6q5 -1 9.5 -0.5t9.5 0.5q4 0 7.5 1t7.5 2q6 0 11 2.5t10 4.5q19 10 35 26q2 2 3.5 4.5t3.5 4.5q6 7 9.5 15.5 t5.5 17.5q3 26 -16 42q-7 6 -15 9.5t-16 5.5q-7 0 -14.5 1t-15.5 -1h-2q-25 -6 -44 12q-3 5 -6 7.5t-3 7.5q-1 3 -0.5 5.5t0.5 5.5q2 5 8 9t12 3q9 -2 18.5 -3t17.5 7q5 9 4 15q-2 2 -4.5 3.5t-4.5 3.5q-5 2 -9 3.5t-6 6.5q-2 10 6 15t16 3q7 -1 14 -5q4 -2 9 -6 q8 -6 15 -14t18 -7q4 0 7 3t5 6q2 8 -2 12q-7 10 -17 12.5t-18 10.5q-10 6 -12.5 16t-0.5 21l3 9q5 11 9 22t10 22q1 4 6 11q6 13 13 24.5t15 24.5q2 5 5 11t5 14q6 22 5 42q-1 5 -2 8.5t-2 6.5q-2 4 -3.5 7.5t-4.5 6.5q-8 13 -21 18.5t-27 7.5q-3 -1 -10 -1h-10 q-5 -2 -9.5 -3t-8.5 -3l-10 -4t-10 -3q-9 -4 -19 -5.5t-21 -2.5q-16 -1 -31 1t-29 5q-10 0 -18 5q-3 1 -5.5 1.5t-6.5 1.5q-1 2 -2 0.5t-2 0.5q-2 2 -6 2zM43 324l-2 1q-3 1 -10 -1q-6 -6 -6 -19q2 -3 1 -4q1 -1 0.5 -2t0.5 -2q1 -9 10 -18q4 -4 7 -5q7 -3 14 4q4 6 2 20 q-2 7 -5.5 14.5t-11.5 11.5zM188 292q7 0 10 -8q1 -3 -1 -4t-4 -3q-8 -5 -16 0q-3 1 -5 6q0 3 5 8q6 2 9 1h2zM361 194q-8 3 -12 -4q-2 -3 -1 -7.5t3 -7.5q4 -6 10 -8q9 -2 13 2q2 6 2 7q0 13 -10 17q-1 1 -5 1z" />
<glyph unicode="&#x2000;" horiz-adv-x="351" />
<glyph unicode="&#x2001;" horiz-adv-x="702" />
<glyph unicode="&#x2002;" horiz-adv-x="351" />
<glyph unicode="&#x2003;" horiz-adv-x="702" />
<glyph unicode="&#x2004;" horiz-adv-x="234" />
<glyph unicode="&#x2005;" horiz-adv-x="175" />
<glyph unicode="&#x2006;" horiz-adv-x="117" />
<glyph unicode="&#x2007;" horiz-adv-x="117" />
<glyph unicode="&#x2008;" horiz-adv-x="87" />
<glyph unicode="&#x2009;" horiz-adv-x="140" />
<glyph unicode="&#x200a;" horiz-adv-x="39" />
<glyph unicode="&#x2018;" horiz-adv-x="260" d="M21 524q-4 22 5.5 40.5t22 35.5t24.5 34.5t13 39.5q8 13 21 19.5t27 8.5q12 1 22.5 -5t14.5 -17q1 -7 -2 -13l-6 -12t-5 -12t1 -13q13 -4 27.5 -9.5t27 -14t20.5 -20.5t9 -28q-3 -29 -24.5 -51t-47.5 -31q-20 -8 -42.5 -9t-43 5t-37.5 19t-27 33z" />
<glyph unicode="&#x2019;" horiz-adv-x="252" d="M238 644q4 -23 -5.5 -41t-22 -35t-24.5 -34.5t-13 -39.5q-8 -13 -21 -19.5t-27 -8.5q-12 -1 -22.5 5t-14.5 17q-1 7 2 13l6 12t5 12t-1 13q-13 4 -27.5 9.5t-27 14t-20.5 20.5t-9 28q3 29 24.5 51t47.5 31q20 8 42.5 9t43 -5t37.5 -19t27 -33z" />
<glyph unicode="&#x201c;" horiz-adv-x="461" d="M258 489q-10 10 -19 25q-3 4 -8.5 6.5t-11.5 0.5q-11 -5 -16.5 -14.5t-15.5 -14.5q-18 -12 -40.5 -17.5t-44.5 -6.5q-6 2 -12 2t-11 2q-8 1 -15.5 4.5t-14.5 7.5q-17 11 -25.5 28t-4.5 37q6 27 17 51.5t21 48.5q10 13 17.5 28t24.5 21q9 4 19.5 3.5t18.5 -6.5q9 -7 7 -18 q0 -11 -9 -17.5t-11 -17.5q0 -13 7 -19q4 -2 8 -3.5t9 -2.5q2 -2 4 -2q3 0 5 -1q18 -5 33.5 -14t23.5 -26q1 -3 4 -4.5t6 -2.5q5 -1 13 3q5 5 7 11t5 12q3 8 7 17t7 17q7 13 12.5 25t12.5 25l10 8q12 7 28 9q7 0 14 -2.5t12 -7.5q2 -5 3 -11.5t-2 -12.5q-2 -2 -4.5 -6 t-5.5 -6q-2 -5 -2 -9t1 -9q4 -6 8 -8q8 -5 18.5 -6t19.5 -4q17 -6 32 -16.5t22 -27.5q5 -17 0 -33q-7 -24 -26.5 -39t-42.5 -23q-6 -1 -10 -2.5t-10 -2.5q-5 -1 -10 -1q-4 0 -9 -2q-21 -1 -40.5 4.5t-35.5 19.5z" />
<glyph unicode="&#x201d;" horiz-adv-x="457" d="M202 675q5 -5 10 -11t9 -13q4 -4 9.5 -6.5t10.5 0.5q12 3 17 12.5t16 14.5q17 12 39.5 17.5t45.5 6.5q5 -2 11 -2q7 0 12 -2q8 -1 15 -4.5t15 -6.5q17 -11 25 -28t5 -38q-6 -26 -17 -50.5t-22 -48.5q-9 -14 -16.5 -29t-24.5 -21q-9 -3 -20 -3t-18 7q-8 7 -7 18q0 11 9 17 t11 17q2 12 -8 19q-6 4 -16 6q-2 2 -5 2q-2 0 -5 1q-17 5 -32.5 14.5t-23.5 26.5q-2 3 -10 7q-7 1 -14 -4q-5 -5 -6.5 -11t-4.5 -11q-3 -9 -7 -18t-7 -17q-7 -13 -12.5 -25t-12.5 -24l-10 -9q-6 -4 -13 -5.5t-15 -3.5q-7 0 -14 2.5t-11 7.5q-9 14 -2 24q2 3 4 6.5t6 5.5 q2 5 2 9t-1 9q-2 4 -8 8q-8 5 -18.5 6t-19.5 5q-17 5 -32 15.5t-22 27.5q-6 16 -1 33q8 24 27 39.5t42 23.5q6 1 10.5 2t10.5 2q4 2 9 2.5t10 0.5q21 1 40.5 -4.5t34.5 -19.5z" />
<glyph unicode="&#x202f;" horiz-adv-x="140" />
<glyph unicode="&#x205f;" horiz-adv-x="175" />
<glyph unicode="&#xe000;" horiz-adv-x="525" d="M0 525h525v-525h-525v525z" />
</font>
</defs>
</svg>
