<?xml version="1.0" standalone="no"?>
<!DOCTYPE svg PUBLIC "-//W3C//DTD SVG 1.1//EN" "http://www.w3.org/Graphics/SVG/1.1/DTD/svg11.dtd" >
<svg xmlns="http://www.w3.org/2000/svg">
<metadata></metadata>
<defs>
<font id="print_dashedregular" horiz-adv-x="451" >
<font-face units-per-em="1000" ascent="755" descent="-245" />
<missing-glyph horiz-adv-x="297" />
<glyph unicode="&#xfb02;" horiz-adv-x="569" d="M66 321v14h44v-14h-44zM137 7v49h14v-49h-14zM137 90v49h14v-49h-14zM137 173v49h14v-49h-14zM137 256v49h14v-49h-14zM137 339v49h14v-49h-14zM137 422v48l14 1v-49h-14zM140 321v14h44v-14h-44zM142 543q10 31 36 43l7 -12q-19 -10 -30 -35zM215 321v14h44v-14h-44z M215 599q14 3 29 3q13 0 25 -3l-3 -14q-10 3 -22 3q-14 0 -27 -3zM298 573l7 12q26 -17 42 -36l-12 -8q-13 16 -37 32zM484 7v46h14v-46h-14zM484 84v46h14v-46h-14zM484 162v45h14v-45h-14zM484 239v45h14v-45h-14zM484 316v45h14v-45h-14zM484 393v45h14v-45h-14zM484 470 v45h14v-45h-14zM484 547v46h14v-46h-14z" />
<glyph horiz-adv-x="0" />
<glyph horiz-adv-x="0" />
<glyph horiz-adv-x="333" />
<glyph unicode="&#xd;" horiz-adv-x="367" />
<glyph unicode=" "  horiz-adv-x="297" />
<glyph unicode="&#x09;" horiz-adv-x="297" />
<glyph unicode="&#xa0;" horiz-adv-x="297" />
<glyph unicode="!" horiz-adv-x="194" d="M71 17v5l7 -1q0 -9 4 -13l-6 -5q-5 7 -5 14zM76 34q5 8 16 10l1 -7q-7 0 -11 -7zM86 -5l3 6q2 -1 7 -1h2q3 0 5 1l2 -7q-2 -1 -7 -1h-2q-4 0 -10 2zM90 132v49h14v-49h-14zM90 215v49h14v-49h-14zM90 298v49h14v-49h-14zM90 382v49h14v-49h-14zM90 465v49h14v-49h-14z M90 549v49h14v-49h-14zM103 37l2 6q10 -3 14 -12l-6 -3q-3 5 -10 9zM111 6q5 5 5 13h7q0 -11 -7 -18z" />
<glyph unicode="&#x22;" horiz-adv-x="236" d="M71 434v37h14v-37h-14zM71 497v37h14v-37h-14zM71 559v37h14v-37h-14zM151 434v37h14v-37h-14zM151 497v37h14v-37h-14zM151 559v37h14v-37h-14z" />
<glyph unicode="#" horiz-adv-x="432" d="M69 388v14h48v-14h-48zM69 502v14h48v-14h-48zM98 306l11 48l14 -3l-11 -48zM117 388l12 49l13 -3l-11 -49zM137 471l11 48q8 -3 51 -3v-14h-41l-8 -34zM151 388v14h48v-14h-48zM156 553l11 49l14 -4l-11 -48zM233 388v14h41l8 35l14 -3l-12 -49q-16 6 -51 3zM233 502v14 h48v-14h-48zM251 306l12 48l13 -3l-11 -48zM290 471l11 48l14 -3l-12 -48zM309 553l11 49l14 -4l-11 -48zM315 388v14h48v-14h-48zM315 502v14h48v-14h-48z" />
<glyph unicode="$" horiz-adv-x="475" d="M69 164h14q0 -28 6 -46l-14 -4q-6 26 -6 50zM70 466v8q0 18 7 43l14 -5q-7 -23 -7 -38v-7zM75 431l14 4q2 -15 21 -40l-11 -9q-21 27 -24 45zM88 81l13 7q8 -19 27 -38l-10 -10q-20 20 -30 41zM95 548q13 20 36 35l8 -11q-23 -16 -33 -32zM125 362l9 11q18 -14 40 -23 l-5 -13q-26 12 -44 25zM146 18l7 12q31 -15 43 -17l-3 -14q-10 2 -47 19zM162 600q21 9 49 11l1 -14q-24 0 -45 -10zM201 324l5 13q5 -2 14.5 -5.5t13.5 -4.5h5v-2l12 -5l-5 -13l-7 3v-30h-14v35zM225 8h14v-1h4q6 -1 32 2l3 -13q-16 -3 -32 -3h-7v-32h-14v47zM225 41v47h14 v-47h-14zM225 -71h14v-47h-14v47zM225 121v47h14v-47h-14zM225 200v47h14v-47h-14zM225 360v47h14v-47h-14zM225 439v47h14v-47h-14zM225 519v47h14v-47h-14zM225 599v46h14v-46h-14zM245 596l2 14q26 -3 49 -13l-6 -13q-25 11 -45 12zM278 295l6 13q6 -4 20.5 -12t22.5 -13 l-8 -12q-8 6 -23 14t-18 10zM307 18q9 2 22 11.5t18 11.5l9 -11q-3 -2 -18.5 -12.5t-25.5 -12.5zM317 567l9 11q20 -17 32 -39l-12 -7q-11 20 -29 35zM345 251l10 10q1 -2 14 -16t17 -23l-12 -7q-3 6 -7.5 12t-11.5 13t-10 11zM359 502l13 4q8 -26 8 -50h-14q0 20 -7 46z M368 65q3 5 19 42l13 -3q-13 -35 -21 -47zM386 185l14 4q4 -10 6 -50h-14q-2 37 -6 46z" />
<glyph unicode="%" horiz-adv-x="721" d="M69 441v12q0 20 4 36l13 -2q-3 -17 -3 -34v-11zM73 408l13 2q4 -21 14 -43l-13 -5q-11 22 -14 46zM82 522q7 22 22 43l11 -8q-14 -22 -20 -40zM104 332l11 8q20 -22 32 -30l-7 -12q-19 13 -36 34zM128 590q18 16 44 23l3 -14q-23 -7 -38 -20zM172 285l3 13q12 -2 18 -2 q8 0 24 4l5 -14q-20 -4 -29 -4q-11 0 -21 3zM205 600l2 14q24 -3 45 -19l-8 -12q-17 14 -39 17zM217 6l21 46l13 -6l-22 -46zM244 314q15 9 30 32l12 -8q-16 -24 -34 -35zM253 84l22 46l13 -6l-22 -46zM267 562l10 9q17 -22 25 -42l-13 -6q-6 17 -22 39zM289 374q6 13 12 43 l14 -2q-10 -41 -13 -47zM290 162l22 45l13 -6l-22 -45zM298 493l14 3q0 -1 6 -47h-14q-6 43 -6 44zM327 239l22 46l13 -6l-22 -46zM364 317l22 46l13 -6l-22 -46zM401 395l22 45l13 -6l-22 -45zM403 139v11q0 21 4 37l13 -3q-3 -17 -3 -34v-11h-14zM407 105l13 3 q5 -25 14 -43l-13 -6q-11 24 -14 46zM416 220q6 18 22 43l11 -8q-16 -26 -20 -40zM438 30l11 8q15 -20 32 -30l-7 -12q-19 13 -36 34zM438 472l22 46l13 -6l-22 -46zM462 288q19 16 44 22l3 -13q-21 -6 -38 -20zM475 550l22 46l12 -6l-21 -46zM506 -18l3 14q12 -2 18 -2 q12 0 24 3l5 -13q-13 -4 -30 -4q-6 0 -20 2zM539 297l2 14q22 -1 45 -19l-8 -11q-18 14 -39 16zM578 12q17 10 30 32l12 -8q-15 -24 -34 -36zM600 260l11 8q17 -20 25 -42l-13 -5q-6 16 -23 39zM623 71q6 14 12 44l14 -3q-11 -42 -13 -46zM632 191l14 3q2 -7 3 -15t1.5 -18 t1.5 -15h-14z" />
<glyph unicode="&#x26;" horiz-adv-x="763" d="M69 112l14 -1q2 -34 7 -45l-13 -4q-6 13 -8 50zM75 147q7 21 22 45l12 -7q-13 -19 -21 -42zM91 29l12 7q7 -13 30 -34l-8 -11q-25 21 -34 38zM119 220l15.5 15.5t20.5 18.5l9 -10q-8 -6 -20 -18l-15 -15zM155 -28l6 13q10 -6 44 -17l-4 -14q-32 10 -46 18zM178 474l14 2 q6 -27 13 -45l-13 -5q-4 9 -14 48zM178 510q5 28 18 48l12 -8q-13 -20 -16 -42zM181 276l40 29l8 -12l-39 -28zM207 394l13 7q4 -8 14 -23.5t11 -16.5l-11 -8q-2 2 -12.5 17t-14.5 24zM221 585q16 14 44 25l4 -13q-23 -8 -39 -23zM235 -53l3 14q30 -4 47 -4v-14q-16 0 -50 4 zM249 324l41 27l7 -11l-22 -15l23 -26l-10 -10l-25 28l-6 -4zM299 619q3 0 9.5 0.5t9.5 0.5h7q7 0 25 -2l-3 -14q-16 2 -25 2q-14 0 -21 -1zM313 265l9 10l36 -33l-9 -10zM317 371l39 29l9 -11l-39 -30zM319 -43q14 1 47 5l3 -13q-26 -5 -50 -6v14zM375 209l9 11l38 -30 l-9 -11zM377 593l7 13q26 -14 37 -35l-11 -8q-11 18 -33 30zM380 423q22 22 29 36l12 -7q-5 -11 -31 -39zM399 -31q29 7 46 14l5 -13q-24 -9 -48 -15zM421 489q2 14 2 23q0 8 -2 22l13 3q3 -12 3 -25q0 -12 -3 -26zM440 158l8 11l39 -29l-8 -11zM476 -4q23 11 41 24l8 -11 q-24 -17 -43 -26zM507 109l8 11l40 -27l-8 -12zM542 41q27 33 30 37l9 -7l2 3l41 -27l-8 -12l-39 26q-4 -5 -12.5 -15t-12.5 -15zM590 106q12 20 20 43l13 -5q-7 -24 -21 -45zM616 307l13 5q7 -24 9 -50l-14 -1q-1 21 -8 46zM619 181q4 22 6 47l14 -1q-2 -25 -6 -49zM645 17 l8 12l41 -26l-8 -12z" />
<glyph unicode="'" horiz-adv-x="156" d="M71 434v37h14v-37h-14zM71 497v37h14v-37h-14zM71 559v37h14v-37h-14z" />
<glyph unicode="(" horiz-adv-x="287" d="M69 170v50l14 -1v-48zM70 136l14 1q0 -8 1.5 -24t2.5 -25l-14 -1q0 8 -2 24.5t-2 24.5zM70 254q0 8 2 24.5t2 24.5l14 -2q0 -8 -2 -24t-2 -24zM79 53l13 2l9 -48l-14 -3q-6 32 -8 49zM79 337q2 19 8 49l14 -3l-9 -48zM95 -29l13 3q5 -20 14 -46l-13 -5q-10 32 -14 48z M95 419q4 16 14 48l13 -5q-9 -26 -14 -46zM122 -109l13 6q8 -21 23 -42l-12 -8q-13 20 -24 44zM122 499q11 24 24 44l12 -8q-15 -21 -23 -42zM170 -180l9 11q21 -17 39 -17v-14q-23 0 -48 20zM170 570q25 20 48 20v-14q-18 0 -39 -17z" />
<glyph unicode=")" horiz-adv-x="287" d="M69 -186q18 0 39 17l10 -11q-25 -20 -49 -20v14zM69 576v14q24 0 49 -20l-10 -11q-21 17 -39 17zM130 -145q10 15 23 42l13 -6q-12 -26 -25 -44zM130 535l11 8q13 -18 25 -44l-13 -6q-13 27 -23 42zM165 -72q5 13 14 46l14 -3q-6 -24 -15 -48zM165 462l13 5q9 -24 15 -48 l-14 -3q-9 33 -14 46zM187 7q6 32 8 48l14 -2q-2 -17 -8 -49zM187 383l14 3q6 -30 8 -49l-14 -2q-2 16 -8 48zM199 88q2 17 4 49l14 -1q-2 -34 -4 -49zM199 301l14 2q2 -15 4 -49l-14 -1q-2 32 -4 48zM204 171v48l14 1v-50z" />
<glyph unicode="*" horiz-adv-x="394" d="M69 364l41 27l8 -11l-41 -28zM69 526l8 12l41 -28l-8 -11zM138 411l41 27l8 -12l-41 -27zM138 479l8 12l41 -28l-8 -11zM191 300v48h14v-48h-14zM191 381v47h14v-47h-14zM191 462v47h14v-47h-14zM191 542v48h14v-48h-14zM207 433l8 11l41 -27l-8 -12zM207 457l41 28 l8 -12l-41 -27zM277 386l7 11l41 -27l-8 -12zM277 504l40 28l8 -12l-41 -27z" />
<glyph unicode="+" horiz-adv-x="418" d="M69 318v14h46v-14h-46zM147 318v14h46v-14h-46zM202 185v46h14v-46h-14zM202 263v46h14v-46h-14zM202 341v46h14v-46h-14zM202 419v46h14v-46h-14zM225 318v14h46v-14h-46zM303 318v14h46v-14h-46z" />
<glyph unicode="," horiz-adv-x="194" d="M71 18v5l7 -1q0 -9 4 -13l-6 -4q-5 5 -5 13zM72 -65l7 13l13 -6l-8 -14zM76 35q5 8 16 10l1 -7q-7 0 -11 -7zM84 -42l6 13l13 -4l-6 -15zM86 -4l3 6q3 -1 8 -1q4 0 6 1l2 -7l6 -2l-4 -16l-14 4l3 13q-4 0 -10 2zM103 38l2 6q9 -3 14 -11l-6 -4q-3 5 -10 9zM111 7 q5 5 5 13h7q0 -11 -7 -18z" />
<glyph unicode="-" horiz-adv-x="337" d="M69 321v14h45v-14h-45zM146 321v14h45v-14h-45zM223 321v14h45v-14h-45z" />
<glyph unicode="." horiz-adv-x="194" d="M71 17v5l7 -1q0 -9 4 -13l-6 -5q-5 7 -5 14zM76 34q5 8 16 10l1 -7q-7 0 -11 -7zM86 -5l3 6q2 -1 7 -1h2q3 0 5 1l2 -7q-2 -1 -7 -1h-2q-4 0 -10 2zM103 37l2 6q10 -3 14 -12l-6 -3q-3 5 -10 9zM111 6q5 5 5 13h7q0 -11 -7 -18z" />
<glyph unicode="/" horiz-adv-x="329" d="M69 5l14 46l13 -4l-14 -46zM92 83l14 46l14 -4l-14 -46zM116 161l13 46l14 -4l-14 -46zM139 239l14 46l13 -4l-13 -46zM162 317l14 46l14 -4l-14 -46zM186 396l14 45l13 -4l-14 -45zM209 474l14 46l13 -4l-13 -46zM233 552l13 46l14 -4l-14 -46z" />
<glyph unicode="0" horiz-adv-x="531" d="M66 297v11q0 6 1 19t1 20l14 -2q0 -6 -1 -20t-1 -21v-7h-14zM68 263l14 1q1 -16 7 -48l-14 -2q-6 32 -7 49zM72 381q1 6 4.5 23t6.5 26l13 -4q-2 -8 -5 -23.5t-5 -23.5zM83 180l13 4l16 -46l-13 -5zM94 463q2 7 5.5 14.5t8.5 16.5t7 14l12 -7l-20 -43zM115 102l12 7 q6 -12 27 -40l-11 -9q-25 35 -28 42zM134 537q22 28 34 37l9 -10q-8 -6 -32 -35zM168 35l9 11q17 -17 39 -26l-6 -12q-24 9 -42 27zM196 595q30 16 48 18l2 -13q-15 -3 -43 -17zM244 -4l2 14q14 -2 21 -2q13 0 25 3l3 -13q-12 -4 -28 -4q-9 0 -23 2zM278 600l2 14 q24 -1 48 -16l-6 -12q-26 13 -44 14zM322 23q11 4 38 27l9 -10q-29 -24 -41 -29zM349 568l9 11q21 -16 35 -36l-12 -9q-10 18 -32 34zM381 75q15 16 26 40l12 -7q-10 -21 -26 -42zM400 507l12 7q20 -37 22 -44l-13 -6q-1 3 -21 43zM421 145l16 45l13 -3l-16 -47zM432 433 l14 4q3 -9 6.5 -27t4.5 -22l-14 -2q-8 41 -11 47zM443 223q6 24 6 48l14 -1q-2 -33 -6 -49zM448 353l14 1l3 -49h-14z" />
<glyph unicode="1" horiz-adv-x="427" d="M145 543l18 12l7 -12l-17 -12zM173 8v14h24v-14h-24zM175 563l18 12l8 -11l-18 -12zM206 584l28 21v-66h-14v38l-7 -5zM215 8v14h5v40h14v-40h6v-14h-25zM220 98v52h14v-52h-14zM220 186v52h14v-52h-14zM220 274v52h14v-52h-14zM220 362v52h14v-52h-14zM220 450v52h14 v-52h-14zM257 8v14h25v-14h-25z" />
<glyph unicode="2" horiz-adv-x="459" d="M66 442q5 43 8 51l14 -5q-3 -7 -8 -46h-14zM67 6q6 53 7 58l14 -3q-4 -13 -6 -41h43v-14h-58zM86 98q9 23 26 43l11 -9q-13 -15 -25 -40zM89 526q8 17 31 40l10 -11q-20 -18 -29 -36zM137 167q22 20 39 31l8 -11q-22 -15 -38 -30zM149 587q14 8 48 19l3 -14 q-36 -12 -44 -17zM160 6v14h50v-14h-50zM204 218l42 27l8 -12l-42 -27zM233 595v14q31 -2 50 -10l-4 -13q-18 7 -46 9zM245 6v14h50v-14h-50zM274 264q22 15 38 30l10 -10q-26 -22 -40 -31zM308 572l8 12q28 -20 38 -34l-11 -9q-9 13 -35 31zM330 6v14h50v-14h-50zM335 318 q17 22 26 40l13 -6q-10 -22 -28 -43zM361 514l13 6q9 -14 17 -48l-14 -3q-9 34 -16 45zM372 389q1 3 7 47h14q-5 -46 -7 -50z" />
<glyph unicode="3" horiz-adv-x="483" d="M66 162h14q5 -38 8 -45l-14 -4q-3 7 -8 49zM81 465q2 30 10 49l13 -5q-7 -17 -9 -44h-14zM88 81l12 7q4 -9 28 -37l-10 -10q-25 30 -30 40zM107 544q19 25 35 35l8 -11q-11 -7 -32 -32zM145 20l8 12q29 -15 42 -19l-4 -13q-16 4 -46 20zM171 597q26 10 48 13l1 -14 q-22 -3 -43 -12zM225 -6l1 13q5 -1 46 2l2 -14q-33 -3 -34 -3q-5 0 -15 2zM241 318v14q41 5 45 7l4 -13l-2 -1l2 -1l-3 -13q-5 2 -46 7zM252 597l1 14q20 -1 48 -10l-5 -13q-28 8 -44 9zM303 18q35 19 39 23l9 -11q-11 -10 -43 -25zM315 351q21 11 36 27l10 -10 q-17 -19 -39 -29zM316 299l7 13q12 -5 41 -28l-10 -11q-25 21 -38 26zM325 574l7 12q23 -15 37 -33l-11 -9q-9 12 -33 30zM365 63q4 4 25 38l13 -6q-19 -33 -27 -41zM370 403q10 13 16 41l13 -2q-6 -32 -17 -46zM375 249l12 8q18 -31 21 -44l-13 -5q-2 8 -20 41zM375 518 l13 6q12 -30 13 -47l-14 -2q-1 20 -12 43zM400 132q3 30 3 32q0 5 -2 13l14 2q2 -10 2 -15t-0.5 -11t-1.5 -13t-1 -11z" />
<glyph unicode="4" horiz-adv-x="464" d="M66 310l9 55l14 -3l-6 -38h44v-14h-61zM81 397l8 47l14 -2l-8 -47zM95 477l8 46l14 -2l-9 -47zM108 556l8 46l14 -2l-8 -47zM165 310v14h53v-14h-53zM255 310v14h53v-14h-53zM319 11v46h14v-46h-14zM319 89v45h14v-45h-14zM319 167v45h14v-45h-14zM319 244v46h14v-46h-14 zM319 322v46h14v-46h-14zM319 400v46h14v-46h-14zM319 478v45h14v-45h-14zM319 555v46h14v-46h-14zM345 310v14h53v-14h-53z" />
<glyph unicode="5" horiz-adv-x="464" d="M66 168v36l14 -1q0 -38 1 -46l-14 -1q-1 4 -1 12zM73 122l14 4q10 -28 18 -41l-12 -8q-5 8 -20 45zM75 317l10 82l14 -2l-5 -45q23 20 34 27l7 -12q-9 -5 -19.5 -13.5t-22.5 -20t-18 -16.5zM90 437l6 55l14 -1l-6 -55zM101 531l6 61h50v-14h-37l-5 -49zM113 50l10 9 q25 -22 35 -28l-7 -12q-9 4 -38 31zM158 395q24 10 47 14l2 -14q-26 -5 -44 -13zM182 5l5 13q7 -3 44 -8v-14q-40 5 -49 9zM187 578v14h43v-14h-43zM238 397l1 14q29 -2 48 -12l-6 -13q-17 9 -43 11zM260 578v14h43v-14h-43zM262 13q35 15 40 19l8 -11q-9 -7 -45 -21z M308 371l9 11q9 -6 35 -34l-11 -9q-3 3 -9.5 10.5t-12 12.5t-11.5 9zM326 53q10 9 28 35l12 -7q-21 -30 -30 -38zM333 578v14h43v-14h-43zM358 313l12 6q2 -5 6.5 -14t7.5 -16.5t4 -14.5l-13 -4q-2 8 -8.5 22.5t-8.5 20.5zM368 117q4 8 8 25t4 19l14 -2q-10 -41 -13 -47z M381 239l14 2q0 -4 1 -12t1.5 -14t0.5 -12q0 -7 -1 -11l-14 1q1 4 -2 46z" />
<glyph unicode="6" horiz-adv-x="485" d="M66 234q0 4 6 47l14 -2q-6 -44 -6 -46zM67 184h14q1 -4 2.5 -21t4.5 -26l-13 -3q-4 9 -6 28t-2 22zM80 327q2 8 14 46l13 -5q-1 -5 -6 -20.5t-7 -24.5zM87 100l13 6q8 -19 25 -40l-10 -9q-19 22 -28 43zM105 300q12 17 36 37l9 -11q-25 -21 -33 -35zM106 404q16 34 21 43 l13 -7q-11 -18 -21 -41zM141 32l9 11q32 -20 41 -22l-5 -14q-7 2 -45 25zM145 476q18 26 28 39l11 -9q-10 -12 -28 -38zM172 356q44 14 49 14l2 -14q-6 0 -45 -13zM196 540q29 27 36 32l9 -12q-16 -11 -35 -30zM221 -1l2 14q12 -2 19 -2q14 0 28 3l3 -14q-15 -3 -31 -3 q-7 0 -21 2zM256 357l1 14q20 -1 51 -12l-6 -13q-30 10 -46 11zM261 591q19 11 45 19l3 -13q-24 -9 -41 -19zM302 23q32 16 40 25l9 -11q-9 -9 -43 -27zM331 330l8 11q32 -27 37 -35l-10 -9q-5 8 -35 33zM366 72q10 12 24 40l13 -5q-12 -27 -26 -44zM384 269l12 7 q10 -17 18 -48l-14 -3q-8 32 -16 44zM400 144q5 22 5 41v7h14v-11q0 -18 -5 -40z" />
<glyph unicode="7" horiz-adv-x="456" d="M66 578v14h51v-14h-51zM153 578v14h52v-14h-52zM154 10l17 45l13 -5l-17 -45zM183 86l17 45l13 -5l-17 -45zM212 162l17 45l13 -5l-17 -45zM241 239l17 44l13 -5l-17 -44zM241 578v14h51v-14h-51zM270 315l17 44l13 -4l-17 -45zM298 391l17 45l13 -5l-16 -45zM327 467 l17 45l13 -5l-17 -45zM328 578v14h62l-21 -54l-13 5l13 35h-41z" />
<glyph unicode="8" horiz-adv-x="482" d="M66 159v10q0 17 5 39l14 -4q-5 -20 -5 -38v-7h-14zM71 125l14 3q7 -25 17 -41l-12 -7q-12 18 -19 45zM81 460v11q0 23 7 40l13 -4q-6 -17 -6 -36v-10zM83 240q11 22 28 40l10 -9q-16 -18 -25 -37zM88 425l14 4q5 -20 22 -40l-11 -9q-19 25 -25 45zM104 544q18 25 35 37 l9 -11q-19 -13 -32 -34zM111 52l10 10q13 -15 35 -29l-7 -12q-23 15 -38 31zM136 303q16 13 44 23l4 -13q-21 -7 -39 -21zM139 355l9 12q13 -12 41 -23l-5 -13q-30 11 -45 24zM170 599q26 11 49 14l2 -14q-22 -1 -45 -13zM180 6l4 14q27 -9 45 -10l-2 -14q-21 1 -47 10z M219 323l2 14q6 -1 18 -1q9 0 29 2l2 -14q-18 -2 -28 -2h-6q-11 0 -17 1zM254 600l1 14q18 -1 50 -11l-5 -13q-35 9 -46 10zM260 11q3 0 44 11l5 -13q-36 -12 -47 -12zM291 315l4 13q7 -1 14.5 -4.5t17 -8.5t13.5 -7l-8 -12q-36 18 -41 19zM300 347q23 10 40 24l9 -11 q-14 -12 -44 -26zM328 574l8 12q20 -14 38 -36l-11 -8q-21 23 -35 32zM332 36q31 28 33 31l11 -9q-6 -8 -36 -33zM356 276l10 10q23 -27 29 -40l-12 -6q-4 8 -27 36zM363 394q16 25 20 42l13 -4q-5 -19 -22 -46zM378 513l13 6q8 -18 10 -51h-14q-2 28 -9 45zM383 93 q2 3 16 42l14 -3q-12 -37 -18 -46zM395 211l13 4q3 -6 8 -49h-14q-1 4 -1.5 14t-1.5 17.5t-4 13.5z" />
<glyph unicode="9" horiz-adv-x="483" d="M66 432v10q0 17 5 39l14 -4q-5 -20 -5 -38v-6zM71 398l14 4q7 -26 17 -41l-12 -8q-13 20 -19 45zM83 513q9 19 28 40l10 -10q-16 -16 -25 -36zM111 326l10 10q13 -15 35 -29l-7 -12q-23 15 -38 31zM137 576q23 16 43 22l4 -13q-21 -7 -39 -21zM180 281l5 13q25 -9 44 -9 l-1 -14q-23 0 -48 10zM185 10q17 13 38 34l10 -11q-26 -24 -40 -35zM213 607q18 2 26 2h6q3 0 8.5 -0.5t8.5 -0.5l-2 -14q-6 1 -18 1q-9 0 -27 -2zM248 69q20 21 33 40l11 -9q-5 -6 -33 -40zM260 285q4 0 44 11l5 -13q-44 -11 -47 -11zM291 587l4 13q13 -3 44 -20l-7 -11 l-17 8.5t-24 9.5zM303 138q6 8 15.5 23.5t11.5 19.5l12 -7q-21 -35 -28 -44zM332 311q28 23 33 30l11 -9q-7 -10 -37 -33zM347 213q2 4 9.5 21t11.5 26l13 -5q-3 -7 -6.5 -15t-8 -18t-6.5 -15zM356 549l10 10q26 -34 29 -40l-12 -6q-5 10 -27 36zM380 294q11 43 12 50l14 -3 q-2 -10 -7 -28t-6 -23zM383 367q3 4 16 41h2l2 22h14l-5 -53l-8 1q-4 -12 -9 -18zM395 484l13 4q3 -6 8 -48h-14q-6 42 -7 44z" />
<glyph unicode=":" horiz-adv-x="194" d="M71 17v5l7 -1q0 -9 4 -13l-6 -5q-5 7 -5 14zM71 302v4h7q0 -9 4 -13l-6 -5q-5 7 -5 14zM76 34q5 8 16 10l1 -7q-7 0 -11 -7zM76 319q5 8 16 10l1 -7q-7 0 -11 -7zM86 -5l3 6q2 -1 7 -1h2q3 0 5 1l2 -7q-2 -1 -7 -1h-2q-4 0 -10 2zM86 280l3 6q2 -1 7 -1h2q3 0 5 1l2 -7 q-2 -1 -6 -1h-3q-4 0 -10 2zM103 37l2 6q10 -3 14 -12l-6 -3q-3 5 -10 9zM103 322l2 6q10 -3 14 -12l-6 -3q-3 5 -10 9zM111 6q5 5 5 13h7q0 -11 -7 -18zM111 291q5 5 5 13h7q0 -11 -7 -18z" />
<glyph unicode=";" horiz-adv-x="194" d="M71 18v5l7 -1q0 -9 4 -13l-6 -4q-5 5 -5 13zM71 302v4h7q0 -9 4 -13l-6 -5q-5 7 -5 14zM72 -65l7 13l13 -6l-8 -14zM76 35q5 8 16 10l1 -7q-7 0 -11 -7zM76 319q5 8 16 10l1 -7q-7 0 -11 -7zM84 -42l6 13l13 -4l-6 -15zM86 -4l3 6q3 -1 8 -1q4 0 6 1l2 -7l6 -2l-4 -16 l-14 4l3 13q-4 0 -10 2zM86 280l3 6q2 -1 7 -1h2q3 0 5 1l2 -7q-2 -1 -6 -1h-3q-4 0 -10 2zM103 38l2 6q9 -3 14 -11l-6 -4q-3 5 -10 9zM103 322l2 6q10 -3 14 -12l-6 -3q-3 5 -10 9zM111 7q5 5 5 13h7q0 -11 -7 -18zM111 291q5 5 5 13h7q0 -11 -7 -18z" />
<glyph unicode="&#x3c;" horiz-adv-x="367" d="M69 319l6 8l-6 9l36 24l8 -12l-31 -21l31 -21l-8 -11zM131 278l7 11l36 -24l-7 -11zM131 377l36 24l7 -12l-36 -24zM192 237l8 11l36 -24l-8 -12zM192 418l36 24l8 -12l-36 -24zM254 196l7 11l37 -24l-8 -12zM254 459l36 24l8 -11l-37 -25z" />
<glyph unicode="=" horiz-adv-x="418" d="M69 272v14h46v-14h-46zM69 377v14h46v-14h-46zM147 272v14h46v-14h-46zM147 377v14h46v-14h-46zM225 272v14h46v-14h-46zM225 377v14h46v-14h-46zM303 272v14h46v-14h-46zM303 377v14h46v-14h-46z" />
<glyph unicode="&#x3e;" horiz-adv-x="367" d="M69 183l36 24l8 -11l-36 -25zM69 472l8 11l36 -24l-8 -12zM131 224l36 24l7 -11l-36 -25zM131 430l7 12l36 -24l-7 -12zM192 265l36 24l8 -11l-36 -24zM192 389l8 12l36 -24l-8 -12zM254 306l31 21l-31 21l7 12l37 -24l-6 -9l6 -8l-37 -24z" />
<glyph unicode="?" horiz-adv-x="471" d="M71 450q0 22 7 50l14 -4q-7 -20 -7 -46h-14zM92 533q15 25 33 40l9 -11q-17 -14 -30 -35zM155 592q24 11 49 15l2 -14q-25 -5 -45 -13zM180 15v3q0 8 5 15l6 -4q-4 -4 -4 -10v-3zM185 3l6 4q3 -7 11 -7l-1 -7q-9 2 -16 10zM195 42q6 2 10 2h2q5 0 7 -1l-2 -7q-5 2 -14 0z M200 131l1 18q0 21 1 32l14 -2q-1 -8 -1 -48h-15zM209 216q8 21 25 45l11 -9q-15 -20 -22 -41zM212 0q7 3 11 9l6 -4q-5 -9 -15 -12zM220 31l5 5q7 -7 7 -18h-7q0 6 -5 13zM239 596v14h4q15 0 47 -8l-4 -13q-33 7 -43 7h-4zM258 287q12 11 38 31l9 -11q-17 -12 -38 -31z M316 576l7 12q17 -8 41 -30l-11 -10q-19 19 -37 28zM323 339q21 18 34 33l11 -8q-12 -16 -36 -36zM372 522l12 6q11 -15 15 -49l-14 -1q-4 29 -13 44zM375 400q10 22 11 45l14 -1q-4 -31 -13 -50z" />
<glyph unicode="@" horiz-adv-x="850" d="M69 177v7h14q-1 -9 0.5 -25t1.5 -22l-14 -1q0 7 -1 20.5t-1 20.5zM71 218q1 10 3.5 26.5t3.5 22.5l14 -3q-1 -6 -3.5 -22t-3.5 -25zM76 102l14 2q1 -8 11 -45l-13 -4q-10 29 -12 47zM87 299q6 24 17 46l12 -5q-12 -27 -15 -44zM100 22l13 6q13 -31 21 -42l-12 -7 q-9 14 -22 43zM118 376q21 37 25 42l12 -8q-5 -7 -13 -21t-12 -19zM140 -50l12 9q3 -4 9 -11.5t11 -13.5t10 -11l-9 -10q-7 6 -18.5 20t-14.5 17zM164 445q4 6 9.5 12t12.5 13l11 11l10 -10l-15 -15t-18 -20zM198 -110l9 11l37 -28l-7 -12zM223 503q34 26 39 29l8 -12 q-7 -4 -39 -28zM256 134v8l14 -1q-2 -16 6 -46l-14 -4q-7 32 -6 43zM260 177q3 19 17 48l12 -6q-14 -34 -15 -45zM267 -156l6 13q8 -5 23 -11t20 -9l-5 -13q-3 2 -19.5 8.5t-24.5 11.5zM277 58l12 7q12 -20 31 -34l-8 -11q-21 15 -35 38zM292 549q8 5 24.5 11.5t19.5 8.5 l5 -13q-5 -3 -20 -9t-23 -11zM296 256q26 29 36 35l9 -11q-10 -7 -34 -33zM344 3l5 13q14 -6 46 -6l1 -14q-36 0 -52 7zM344 -186l4 14q23 -6 46 -9l-2 -14zM362 311q23 11 49 16l2 -14q-27 -5 -44 -15zM368 580q21 7 48 10l2 -13q-33 -7 -46 -11zM426 -198l1 14 q5 0 21.5 0.5t25.5 1.5l1 -14q-9 -1 -26.5 -1.5t-22.5 -0.5zM427 15q27 9 43 20l8 -12q-19 -12 -47 -22zM446 313l1 14q28 -2 50 -15l-7 -12q-18 11 -44 13zM450 594h17q5 0 16 -0.5t16 -0.5l-1 -14q-6 0 -17.5 0.5t-16.5 0.5h-13zM496 56q16 16 30 36l12 -7 q-20 -28 -33 -39zM506 -178q30 6 46 11l4 -13q-22 -7 -47 -12zM516 280l9 10q7 -4 12 -11t10 -16.5t8 -14.5l-13 -6q-1 1 -9.5 17t-16.5 21zM530 574l3 13q27 -5 47 -13l-5 -13q-15 5 -45 13zM531 -25l13 6q4 -9 17 -9q9 0 18 3l3 -13q-9 -4 -20 -4q-22 0 -31 17zM533 43 l6 45l14 -2l-7 -45zM543 120l7 44l13 -2l-6 -45zM554 196l6 44l14 -2l-6 -45zM565 272l6 45l14 -2l-7 -45zM583 -155q7 2 41 22l7 -12q-35 -20 -43 -23zM605 548l7 13q31 -18 41 -26l-8 -11q-6 5 -40 24zM609 -14q26 11 40 23l8 -11q-12 -11 -42 -25zM650 -113q15 12 30 34 l12 -8q-20 -26 -33 -37zM671 503l9 11q13 -10 34 -35l-11 -9q-20 24 -32 33zM674 30q28 31 31 35l11 -8q-4 -7 -32 -37zM722 92q6 8 12 24t8 19l13 -5q-1 -2 -7.5 -19t-12.5 -25zM722 443l12 8q9 -14 23 -44l-13 -5q-17 33 -22 41zM752 166l10 46l14 -2l-10 -48zM755 371 l14 4l9 -48l-14 -2q0 1 -9 46zM765 245l2 47l14 1l-2 -49z" />
<glyph unicode="A" horiz-adv-x="539" d="M66 9l15 47l14 -5l-16 -46zM92 88l15 47l13 -5l-15 -46zM118 167l15 46l13 -4l-15 -46zM144 246l15 46l13 -4l-11 -34h49v-14h-51v8l-2 -6zM169 325l16 46l13 -4l-15 -47zM195 404l16 46l13 -4l-15 -47zM221 482l15 47l14 -4l-15 -47zM245 240v14h50v-14h-50zM247 561 l15 47h15l15 -47l-13 -4l-9 28l-10 -28zM289 525l14 4l15 -46l-13 -5zM315 446l13 4l16 -46l-14 -5zM331 240v14h47l-11 34l13 4l15 -46l-13 -4l-1 3v-5h-50zM341 367l13 4l16 -46l-14 -5zM393 209l13 4l15 -46l-13 -4zM419 130l13 5l15 -47l-13 -4zM444 51l14 5l15 -47 l-13 -4z" />
<glyph unicode="B" horiz-adv-x="452" d="M71 1v55h14v-41h42v-14h-56zM71 88v45h14v-45h-14zM71 165v46h14v-46h-14zM71 243v45h14v-45h-14zM71 320v45h14v-34h44v-14h-48v3h-10zM71 397v46h14v-46h-14zM71 475v45h14v-45h-14zM71 552v54h52v-14h-38v-40h-14zM155 592v14h45v-14h-45zM160 1v14h48v-14h-48z M163 317v14h47v-14h-47zM230 590l2 14q26 -5 45 -17l-7 -12q-18 12 -40 15zM240 17q16 1 44 13l6 -13q-30 -12 -48 -14zM243 314l2 14q2 0 6.5 -1t6.5 -1l-5 12q22 10 36 23l9 -10q-13 -13 -39 -26q15 -3 33 -11l-6 -13q-20 10 -43 13zM293 557l10 10q19 -19 27 -38l-13 -7 q-6 17 -24 35zM308 383q12 18 18 39l14 -4q-8 -25 -20 -43zM312 46q18 14 32 32l11 -9q-16 -21 -35 -34zM313 284l9 12q13 -10 35 -36l-12 -8q-17 23 -32 32zM328 494l13 4q5 -20 5 -37q0 -7 -1 -10l-14 1q2 17 -3 42zM360 105q12 34 12 44l14 -2q-1 -16 -13 -48zM361 225 l13 5q12 -36 12 -48l-14 -1q0 11 -11 44z" />
<glyph unicode="C" horiz-adv-x="498" d="M66 302v6q0 4 0.5 11.5t0.5 10.5h14q0 -4 -0.5 -11t-0.5 -10v-7q0 -4 0.5 -11t0.5 -10l-14 -1q0 4 -0.5 11.5t-0.5 10.5zM70 245l13 2l10 -48l-14 -3zM70 366l9 49l14 -3l-10 -48zM89 162l13 4q16 -39 19 -44l-13 -7q-5 9 -19 47zM89 449q14 37 19 46l13 -6 q-5 -8 -19 -45zM125 84l12 8q2 -3 13 -17t17 -20l-10 -10q-7 6 -18.5 21t-13.5 18zM125 527q3 3 14 17.5t18 21.5l10 -10q-6 -6 -17 -20t-13 -17zM185 21l8 12q38 -19 42 -20l-3 -14q-13 4 -47 22zM185 589q27 16 47 22l3 -13q-6 -2 -42 -20zM268 -5v14q31 2 45 11l5 -13 q-17 -10 -50 -12zM268 602v14q37 -4 50 -12l-5 -13q-11 7 -45 11zM342 36q4 4 11.5 10t13 11.5t9.5 11.5l11 -9q-5 -9 -20.5 -22t-16.5 -14zM342 575l8 11q4 -3 12.5 -10t14.5 -12.5t10 -12.5l-11 -9q-4 6 -9.5 11.5t-13 11.5t-11.5 10zM396 95l23 43l13 -5l-24 -45z M396 515l12 8l24 -45l-13 -6z" />
<glyph unicode="D" horiz-adv-x="476" d="M71 3v51h14v-37h46v-14h-60zM71 86v45h14v-45h-14zM71 163v46h14v-46h-14zM71 241v45h14v-45h-14zM71 318v45h14v-45h-14zM71 395v46h14v-46h-14zM71 473v45h14v-45h-14zM71 550v54h56v-14h-42v-40h-14zM161 590v14h49v-14h-49zM165 3v14h48v-14h-48zM242 586l3 14 q10 -1 47 -18l-7 -12l-13 6.5t-16 7t-14 2.5zM245 20q9 1 23.5 8.5t19.5 9.5l7 -12q-5 -2 -14 -7.5t-17 -8.5t-16 -3zM310 549l9 11q8 -6 19 -21.5t13 -17.5l-12 -8q-1 2 -11 16.5t-18 19.5zM312 59q5 4 10 10.5t11 15t8 11.5l12 -8q-28 -37 -31 -39zM356 485l12 6 q10 -18 19 -46l-13 -4q-8 24 -18 44zM357 125q7 12 18 44l13 -5q-11 -32 -18 -45zM383 409l14 3l9 -48l-14 -2zM384 201q3 15 9 47l14 -2l-9 -48zM394 329h14q2 -14 2 -23v-7q0 -3 -0.5 -9t-0.5 -10l-14 1q2 27 -1 48z" />
<glyph unicode="E" horiz-adv-x="414" d="M71 4v53h14v-39h37v-14h-51zM71 88v46h14v-46h-14zM71 166v45h14v-45h-14zM71 243v45h14v-45h-14zM71 320v45h14v-45h-14zM71 397v45h14v-45h-14zM71 474v46h14v-46h-14zM71 551v53h51v-14h-37v-39h-14zM86 320v14h39v-14h-39zM153 4v14h44v-14h-44zM153 320v14h39v-14 h-39zM153 590v14h44v-14h-44zM220 320v14h39v-14h-39zM228 4v14h45v-14h-45zM228 590v14h45v-14h-45zM304 4v14h44v-14h-44zM304 590v14h44v-14h-44z" />
<glyph unicode="F" horiz-adv-x="414" d="M71 5v51h14v-51h-14zM71 88v45h14v-45h-14zM71 165v45h14v-45h-14zM71 242v45h14v-45h-14zM71 319v45h14v-45h-14zM71 396v46h14v-46h-14zM71 473v46h14v-46h-14zM71 550v53h51v-14h-37v-39h-14zM86 319v14h39v-14h-39zM153 319v14h39v-14h-39zM153 589v14h44v-14h-44z M220 319v14h39v-14h-39zM228 589v14h45v-14h-45zM304 589v14h44v-14h-44z" />
<glyph unicode="G" horiz-adv-x="531" d="M66 316l3 47l14 -1l-3 -46h-14zM67 283h14q3 -39 4 -46l-14 -2q-1 8 -4 48zM75 396q7 37 11 47l14 -5q-4 -10 -11 -44zM78 203l13 3q1 -12 13 -44l-13 -5q-12 35 -13 46zM97 474q4 9 12.5 24.5t9.5 18.5l12 -7q-2 -4 -10 -18.5t-11 -22.5zM103 126l13 6q17 -33 22 -41 l-12 -7q-5 8 -13 23t-10 19zM138 545q15 21 33 34l9 -10q-22 -18 -31 -33zM147 57l11 9q4 -5 9.5 -10t12.5 -11t11 -9l-8 -12q-4 4 -12 10t-14 11.5t-10 11.5zM199 599q30 14 46 17l2 -14q-15 -2 -41 -16zM213 8l5 13q15 -9 43 -11l-1 -14q-31 2 -47 12zM278 602l2 14 q22 -1 46 -15l-6 -13q-20 13 -42 14zM292 13q7 1 13.5 4t14.5 7.5t12 6.5l8 -12l-19 -9.5t-26 -9.5zM314 300v14h33v-14h-33zM347 572l8 11q29 -26 34 -34l-11 -9q-5 9 -31 32zM357 50q8 5 18.5 19t11.5 15l11 -8q-3 -3 -9 -11.5t-11.5 -14.5t-11.5 -10zM370 300v14h33v-14 h-33zM397 514l12 8l23 -43l-13 -5zM404 111q17 33 19 42l13 -5q-2 -6 -20 -43zM425 300v14h40q-1 -19 -3 -55l-14 1l2 40h-25zM434 183q3 8 5.5 23.5t4.5 21.5l13 -2q-8 -40 -10 -46z" />
<glyph unicode="H" horiz-adv-x="447" d="M71 9v46h14v-46h-14zM71 87v46h14v-46h-14zM71 165v46h14v-46h-14zM71 243v45h14v-45h-14zM71 320v46h14v-46h-14zM71 398v46h14v-46h-14zM71 476v46h14v-46h-14zM71 554v45h14v-45h-14zM86 316v14h46v-14h-46zM164 316v14h46v-14h-46zM243 316v14h46v-14h-46zM321 316 v14h41v36h14v-46h-9v-4h-46zM362 9v46h14v-46h-14zM362 87v46h14v-46h-14zM362 165v46h14v-46h-14zM362 243v45h14v-45h-14zM362 398v46h14v-46h-14zM362 476v46h14v-46h-14zM362 554v45h14v-45h-14z" />
<glyph unicode="I" horiz-adv-x="242" d="M66 10v14h25v-14h-25zM66 583v14h25v-14h-25zM108 10v14h6v40h14v-40h5v-14h-25zM108 583v14h25v-14h-5v-42h-14v42h-6zM114 100v52h14v-52h-14zM114 189v51h14v-51h-14zM114 277v51h14v-51h-14zM114 365v51h14v-51h-14zM114 453v52h14v-52h-14zM151 10v14h25v-14h-25z M151 583v14h25v-14h-25z" />
<glyph unicode="J" horiz-adv-x="526" d="M66 151h14q2 -29 9 -46l-13 -5q-8 19 -10 51zM92 67l12 8q22 -26 33 -34l-8 -11q-17 11 -37 37zM160 12l6 13q28 -12 45 -12l-1 -14q-18 1 -50 13zM245 13q19 0 46 9l5 -13q-27 -10 -50 -10zM302 586v14h36v-14h-36zM320 38q12 9 30 35l12 -6q-17 -29 -34 -40zM363 104 l9 48l14 -2q0 -8 -10 -50zM363 586v14h36v-14h-36zM375 186v49h14v-50zM375 270v50h14v-50h-14zM375 355v50h14v-50h-14zM375 439v50h14v-50h-14zM375 524v50h14v-50h-14zM424 586v14h36v-14h-36z" />
<glyph unicode="K" horiz-adv-x="479" d="M71 10v45h14v-45h-14zM71 87v46h14v-46h-14zM71 165v46h14v-46h-14zM71 243v46h7l28 28l10 -10l-31 -32v-32h-14zM71 321v45h14v-45h-14zM71 398v46h14v-46h-14zM71 476v46h14v-46h-14zM71 554v46h14v-46h-14zM129 341l32 34l10 -10l-32 -34zM176 367l12 7l24 -38l-12 -7 zM184 398l33 34l10 -10l-33 -34zM216 302l12 8l24 -39l-12 -7zM239 456l33 33l10 -9l-32 -34zM257 237l12 8l23 -38l-12 -8zM295 513l32 34l11 -10l-33 -34zM297 173l12 7l23 -38l-12 -8zM337 108l12 7l23 -38l-12 -7zM350 571l33 33l10 -9l-33 -34zM377 43l12 7l24 -38 l-12 -7z" />
<glyph unicode="L" horiz-adv-x="414" d="M71 7v52h14v-38h37v-14h-51zM71 91v45h14v-45h-14zM71 168v45h14v-45h-14zM71 245v45h14v-45h-14zM71 322v46h14v-46h-14zM71 399v46h14v-46h-14zM71 477v45h14v-45h-14zM71 554v45h14v-45h-14zM153 7v14h44v-14h-44zM228 7v14h45v-14h-45zM304 7v14h44v-14h-44z" />
<glyph unicode="M" horiz-adv-x="584" d="M71 8v45h14v-45h-14zM71 85v46h14v-46h-14zM71 163v45h14v-45h-14zM71 240v45h14v-45h-14zM71 317v46h14v-46h-14zM71 395v45h14v-45h-14zM71 472v46h14v-46h-14zM71 549v47h14l19 -47l-14 -5l-5 15v-10h-14zM102 513l13 5l17 -45l-14 -5zM130 437l13 5l17 -45l-14 -5z M158 361l13 4l16 -44l-13 -5zM186 284l13 5l16 -45l-13 -4zM214 208l13 5l16 -45l-13 -5zM242 132l13 5l16 -45l-13 -5zM270 56l13 5l9 -25l11 28l13 -5l-18 -48h-12zM314 96l16 44l14 -4l-17 -45zM342 172l16 45l14 -5l-17 -45zM370 248l16 45l14 -5l-17 -45zM398 324 l16 45l13 -5l-16 -45zM426 400l16 45l13 -5l-16 -45zM454 476l16 45l13 -5l-16 -44zM482 553l16 43h15v-47h-14v9l-4 -10zM499 8v45h14v-45h-14zM499 85v46h14v-46h-14zM499 163v45h14v-45h-14zM499 240v45h14v-45h-14zM499 317v46h14v-46h-14zM499 395v45h14v-45h-14z M499 472v46h14v-46h-14z" />
<glyph unicode="N" horiz-adv-x="448" d="M71 8v45h14v-45h-14zM71 85v46h14v-46h-14zM71 163v46h14v-46h-14zM71 241v46h14v-46h-14zM71 319v45h14v-45h-14zM71 396v46h14v-46h-14zM71 474v46h14v-46h-14zM71 552v48h14v-1l22 -44l-13 -6l-9 21v-18h-14zM110 517l13 6l22 -45l-12 -6zM149 440l12 6l23 -46l-13 -6 zM187 362l13 7l22 -46l-12 -6zM226 285l12 6l23 -45l-13 -7zM264 208l13 6l22 -46l-12 -6zM303 130l12 6l23 -45l-13 -6zM341 53l13 6l9 -21v18h14v-48h-14v1zM363 88v46h14v-46h-14zM363 166v46h14v-46h-14zM363 244v45h14v-45h-14zM363 321v46h14v-46h-14zM363 399v46h14 v-46h-14zM363 477v46h14v-46h-14zM363 555v45h14v-45h-14z" />
<glyph unicode="O" horiz-adv-x="531" d="M66 297v11q0 6 1 19t1 20l14 -2q0 -6 -1 -20t-1 -21v-7h-14zM68 263l14 1q1 -16 7 -48l-14 -2q-6 32 -7 49zM72 381q1 6 4.5 23t6.5 26l13 -4q-2 -8 -5 -23.5t-5 -23.5zM83 180l13 4l16 -46l-13 -5zM94 463q2 7 5.5 14.5t8.5 16.5t7 14l12 -7l-20 -43zM115 102l12 7 q6 -12 27 -40l-11 -9q-25 35 -28 42zM134 537q22 28 34 37l9 -10q-8 -6 -32 -35zM168 35l9 11q17 -17 39 -26l-6 -12q-24 9 -42 27zM196 595q30 16 48 18l2 -13q-15 -3 -43 -17zM244 -4l2 14q14 -2 21 -2q13 0 25 3l3 -13q-12 -4 -28 -4q-9 0 -23 2zM278 600l2 14 q24 -1 48 -16l-6 -12q-26 13 -44 14zM322 23q11 4 38 27l9 -10q-29 -24 -41 -29zM349 568l9 11q21 -16 35 -36l-12 -9q-10 18 -32 34zM381 75q15 16 26 40l12 -7q-10 -21 -26 -42zM400 507l12 7q20 -37 22 -44l-13 -6q-1 3 -21 43zM421 145l16 45l13 -3l-16 -47zM432 433 l14 4q3 -9 6.5 -27t4.5 -22l-14 -2q-8 41 -11 47zM443 223q6 24 6 48l14 -1q-2 -33 -6 -49zM448 353l14 1l3 -49h-14z" />
<glyph unicode="P" horiz-adv-x="438" d="M71 8v46h14v-46h-14zM71 86v45h14v-45h-14zM71 163v45h14v-45h-14zM71 240v45h12v3h46v-14h-44v-34h-14zM71 317v45h14v-45h-14zM71 394v45h14v-45h-14zM71 471v45h14v-45h-14zM71 548v56h53v-14h-39v-42h-14zM156 590v14h46v-14h-46zM161 274v14h46v-14h-46zM233 588 l3 13q29 -6 45 -15l-6 -12q-10 6 -42 14zM238 291q40 14 41 15l6 -12q-7 -4 -44 -17zM301 557l8 11q12 -8 34 -34l-12 -8q-20 24 -30 31zM304 324q8 6 30 32l12 -8q-24 -29 -33 -35zM347 499l12 6q12 -38 12 -47l-14 -1q0 7 -10 42zM348 383q9 25 10 43l14 -1 q-1 -17 -11 -47z" />
<glyph unicode="Q" horiz-adv-x="531" d="M66 296v11q0 7 1 20t1 19l14 -1q0 -7 -1 -21t-1 -20v-7zM68 262l14 1q1 -17 7 -47l-14 -3q-6 32 -7 49zM72 380q1 6 4.5 23t6.5 26l13 -4q-2 -8 -5 -23.5t-5 -23.5zM83 179l13 4l16 -46l-13 -5zM94 462q2 7 5.5 14.5t8.5 16.5t7 14l12 -7q-18 -37 -20 -43zM115 101l12 7 q7 -15 27 -39l-11 -9q-23 30 -28 41zM134 536q19 26 34 37l9 -10q-8 -6 -32 -35zM168 34l9 11q18 -18 39 -25l-6 -13q-24 9 -42 27zM196 594q30 16 48 19l2 -14q-15 -3 -43 -17zM244 -5l2 14q7 -1 21 -1q17 0 25 3l3 -14q-12 -4 -29 -4q-8 0 -22 2zM278 599l2 14 q22 -1 48 -15l-6 -13q-22 13 -44 14zM322 23q9 3 38 27l9 -11q-29 -24 -41 -29zM328 150l11 8l26 -34l-12 -9zM349 567l9 11q21 -16 35 -36l-12 -9q-10 17 -32 34zM371 91l11 9l10 -12q12 19 15 26l12 -6q-7 -17 -19 -32l8 -11l-11 -8q-8 13 -16 17l2 2zM400 506l12 7 q20 -37 22 -44l-13 -6q-1 3 -21 43zM415 33l11 8l25 -34l-11 -8zM421 144l16 46l13 -4l-16 -47zM432 432l14 4q4 -9 7 -26.5t4 -21.5l-14 -3q-7 39 -11 47zM443 223q6 23 6 47l14 -1q-2 -33 -6 -49zM448 352l14 1l3 -49h-14z" />
<glyph unicode="R" horiz-adv-x="447" d="M71 9v52h14v-52h-14zM71 97v52h14v-52h-14zM71 185v52h14v-52h-14zM71 273v52h14v-39h44v-14h-46v1h-12zM71 361v52h14v-52h-14zM71 449v52h14v-52h-14zM71 537v63h53v-14h-39v-49h-14zM156 586v14h46v-14h-46zM161 272v14h46v-14h-46zM227 275l12 7l-2 7q40 14 41 15 l7 -12q-13 -8 -43 -16l21 -38l-13 -7zM233 584l2 13q29 -5 46 -14l-7 -13q-8 4 -41 14zM266 200l13 7l23 -44l-12 -7zM300 554l9 11q16 -11 33 -34l-11 -9q-16 22 -31 32zM304 321q3 2 30 32l11 -8q-23 -28 -32 -34zM306 125l12 7l24 -44l-13 -7zM346 51l12 6l23 -44l-12 -6 zM346 496l13 6q12 -38 12 -47l-14 -1q0 11 -11 42zM348 380q9 33 10 43l14 -1q-1 -17 -11 -47z" />
<glyph unicode="S" horiz-adv-x="469" d="M66 164h14q0 -24 6 -46l-14 -4q-6 26 -6 50zM67 466v8q0 18 7 43l14 -5q-7 -21 -7 -38v-7zM72 431l14 4q2 -15 21 -40l-11 -9q-21 30 -24 45zM85 81l13 7q8 -19 27 -38l-10 -10q-20 20 -30 41zM92 548q12 19 36 36l8 -12q-23 -16 -33 -32zM122 362l9 11q12 -9 40 -23 l-5 -13q-26 12 -44 25zM143 18l7 12q31 -15 43 -17l-3 -14q-10 2 -47 19zM159 600q24 10 50 12v-14q-25 -2 -45 -11zM198 324l5 13q30 -10 45 -16l-5 -14q-30 12 -45 17zM224 -7l2 14q16 -2 46 2l3 -13q-24 -4 -35 -4q-2 0 -7.5 0.5t-8.5 0.5zM242 597l2 13q22 -1 49 -13 l-6 -13q-19 10 -45 13zM275 295l6 13q6 -4 20.5 -12t22.5 -13l-8 -12q-8 6 -23 14t-18 10zM304 18q9 2 22 11.5t18 11.5l9 -11q-3 -2 -18.5 -12.5t-25.5 -12.5zM314 567l9 11q20 -17 32 -39l-12 -7q-12 22 -29 35zM342 251l10 10q1 -2 14 -16t17 -23l-12 -7q-3 6 -7.5 12 t-11.5 13t-10 11zM356 502l13 4q8 -26 8 -50h-14q0 20 -7 46zM365 65q3 4 19 42l14 -3q-18 -41 -22 -47zM384 185l13 4q4 -10 6 -50l-14 1q-3 38 -5 45z" />
<glyph unicode="T" horiz-adv-x="440" d="M66 583v14h50v-14h-50zM152 583v14h50v-14h-50zM213 12v51h14v-51h-14zM213 99v52h14v-52h-14zM213 187v52h14v-52h-14zM213 275v52h14v-52h-14zM213 363v51h14v-51h-14zM213 451v51h14v-51h-14zM213 538v52h14v-52h-14zM238 583v14h50v-14h-50zM323 583v14h51v-14h-51z " />
<glyph unicode="U" horiz-adv-x="495" d="M71 154v47h14v-46zM71 234v47h14v-47h-14zM71 314v47h14v-47h-14zM71 394v47h14v-47h-14zM71 474v47h14v-47h-14zM71 554v47h14v-47h-14zM75 120l14 3q13 -38 16 -41l-12 -7q-5 7 -18 45zM113 47l10 10q6 -7 35 -27l-6 -13q-32 20 -39 30zM184 5l4 13q33 -7 44 -7l-1 -14 q-17 0 -47 8zM264 11q10 0 45 7l4 -14q-37 -7 -48 -7zM338 29q26 16 35 27l11 -9q-6 -7 -39 -30zM392 81q4 6 6.5 13t4.5 15.5t4 13.5l14 -3q-1 -2 -6 -19.5t-11 -25.5zM410 155v14.5v17v14.5h14v-47zM410 234v47h14v-47h-14zM410 314v47h14v-47h-14zM410 394v47h14v-47h-14 zM410 474v47h14v-47h-14zM410 554v47h14v-47h-14z" />
<glyph unicode="V" horiz-adv-x="539" d="M66 595l13 5l16 -47l-14 -5zM92 516l13 4l15 -47l-13 -4zM118 436l13 4l15 -46l-13 -5zM144 357l13 4l15 -47l-13 -4zM169 277l14 4l15 -47l-13 -4zM195 197l14 5l15 -47l-13 -4zM221 118l14 4l15 -47l-14 -4zM247 38l13 4l10 -28l9 28l13 -4l-15 -47l-7 3l-8 -3zM289 75 l16 47l13 -4l-15 -47zM315 155l15 47l14 -5l-15 -46zM341 234l15 47l14 -4l-16 -47zM367 314l15 47l13 -4l-15 -47zM393 394l15 46l13 -4l-15 -47zM419 473l15 47l13 -4l-15 -47zM444 553l16 47l13 -5l-15 -47z" />
<glyph unicode="W" horiz-adv-x="830" d="M66 596l13 4l14 -47l-14 -4zM88 516l14 4l13 -47l-13 -4zM111 437l13 3l14 -46l-14 -4zM133 357l14 4l13 -47l-13 -4zM156 277l13 4l13 -47l-13 -3zM178 198l14 4l13 -47l-14 -4zM201 118l13 4l13 -47l-13 -4zM223 39l14 3l7 -25l7 25l13 -3l-13 -45h-15zM260 75l13 47 l14 -4l-14 -47zM282 155l13 47l14 -4l-13 -47zM305 234l13 47l13 -4l-13 -46zM327 314l13 47l14 -4l-13 -47zM350 394l13 46l13 -3l-13 -47zM372 473l13 47l14 -4l-13 -47zM394 553l14 45h14l13 -45l-13 -4l-7 25l-7 -25zM431 516l13 4l14 -47l-14 -4zM453 437l14 3l13 -46 l-13 -4zM476 357l13 4l13 -47l-13 -4zM498 277l14 4l13 -47l-14 -3zM521 198l13 4l13 -47l-13 -4zM543 118l14 4l13 -47l-14 -4zM566 39l13 3l7 -25l7 25l14 -3l-14 -45h-14zM602 75l13 47l14 -4l-13 -47zM625 155l13 47l13 -4l-13 -47zM647 234l13 47l14 -4l-13 -46z M670 314l13 47l13 -4l-13 -47zM692 394l13 46l14 -3l-13 -47zM714 473l14 47l13 -4l-13 -47zM737 553l13 47l14 -4l-14 -47z" />
<glyph unicode="X" horiz-adv-x="472" d="M66 15l22 40l13 -7l-23 -40zM66 592l12 7l23 -40l-13 -7zM104 83l23 40l12 -7l-23 -40zM104 524l12 7l23 -40l-12 -7zM142 151l23 40l12 -7l-22 -40zM142 456l13 7l22 -40l-12 -7zM180 219l23 40l12 -7l-22 -40zM180 388l13 7l22 -40l-12 -7zM219 287l9 17l-9 16l12 7 l5 -9l5 9l12 -7l-9 -16l9 -17l-12 -7l-5 9l-5 -9zM257 252l12 7l22 -40l-12 -7zM257 355l22 40l12 -7l-22 -40zM295 184l12 7l23 -40l-13 -7zM295 423l22 40l13 -7l-23 -40zM333 116l12 7l23 -40l-12 -7zM333 491l23 40l12 -7l-23 -40zM371 48l12 7l23 -40l-12 -7zM371 559 l23 40l12 -7l-23 -40z" />
<glyph unicode="Y" horiz-adv-x="466" d="M66 593l12 7l21 -39l-12 -6zM101 527l12 7l21 -39l-12 -6zM136 461l12 7l21 -39l-12 -6zM171 395l12 7l21 -39l-12 -6zM206 329l12 7l15 -28l15 28l12 -7l-20 -38v-35h-14v35zM226 10v48h14v-48h-14zM226 92v48h14v-48h-14zM226 174v48h14v-48h-14zM262 363l21 39l12 -7 l-20 -38zM297 429l21 39l12 -7l-20 -38zM332 495l21 39l12 -7l-20 -38zM367 561l21 39l12 -7l-20 -38z" />
<glyph unicode="Z" horiz-adv-x="486" d="M66 12l33 55l12 -7l-20 -34h41v-14h-66zM90 582v14h52v-14h-52zM117 97l25 45l12 -7l-25 -45zM160 173l26 44l12 -7l-26 -44zM168 12v14h52v-14h-52zM179 582v14h52v-14h-52zM203 248l26 44l12 -7l-25 -44zM247 323l25 44l13 -7l-26 -44zM257 12v14h52v-14h-52zM268 582 v14h52v-14h-52zM290 398l26 45l12 -7l-26 -45zM334 474l25 44l12 -7l-25 -44zM346 12v14h52v-14h-52zM356 582v14h64l-31 -54l-12 7l19 33h-40z" />
<glyph unicode="[" horiz-adv-x="285" d="M69 -24v48h14v-48h-14zM69 -57h14v-48h-14v48zM69 58v47h14v-47h-14zM69 -138h14v-41h25v-14h-38v7h-1v48zM69 139v48h14v-48h-14zM69 220v48h14v-48h-14zM69 301v48h14v-48h-14zM69 383v47h14v-47h-14zM69 464v48h14v-48h-14zM69 545v48h1v7h38v-14h-25v-41h-14z M130 -179h32v-14h-32v14zM130 586v14h32v-14h-32zM184 -179h32v-14h-32v14zM184 586v14h32v-14h-32z" />
<glyph unicode="\" horiz-adv-x="329" d="M69 5l14 46l13 -4l-14 -46zM92 83l14 46l14 -4l-14 -46zM116 161l13 46l14 -4l-14 -46zM139 239l14 46l13 -4l-13 -46zM162 317l14 46l14 -4l-14 -46zM186 396l14 45l13 -4l-14 -45zM209 474l14 46l13 -4l-13 -46zM233 552l13 46l14 -4l-14 -46z" />
<glyph unicode="]" horiz-adv-x="285" d="M69 -179h32v-14h-32v14zM69 586v14h32v-14h-32zM123 -179h32v-14h-32v14zM123 586v14h32v-14h-32zM177 -179h25v41h14v-48h-2v-7h-37v14zM177 586v14h38v-7h1v-48h-14v41h-25zM202 -24v48h14v-48h-14zM202 -57h14v-48h-14v48zM202 58v47h14v-47h-14zM202 139v48h14v-48 h-14zM202 220v48h14v-48h-14zM202 301v48h14v-48h-14zM202 383v47h14v-47h-14zM202 464v48h14v-48h-14z" />
<glyph unicode="^" horiz-adv-x="364" d="M69 363l24 50l13 -6l-24 -50zM110 448l23 50l13 -6l-24 -50zM150 534l24 50l8 -4l8 4l24 -50l-13 -7l-19 41l-19 -41zM218 492l13 6l24 -50l-13 -6zM259 407l12 6l24 -50l-12 -6z" />
<glyph unicode="_" horiz-adv-x="519" d="M69 -40h381v-14h-381v14z" />
<glyph unicode="`" horiz-adv-x="241" d="M69 577l10 10l21 -22l-10 -9zM105 541l10 10l21 -21l-10 -10zM141 505l10 10l21 -21l-10 -10z" />
<glyph unicode="a" horiz-adv-x="446" d="M66 161h14q1 -4 1.5 -14t1.5 -17t4 -14l-14 -3q-2 5 -7 48zM69 195q12 38 17 46l12 -6q-6 -9 -15 -42zM86 81l12 6q5 -12 26 -37l-10 -10q-23 27 -28 41zM104 270q12 17 37 33l7 -11q-24 -18 -33 -31zM141 19l7 11q19 -12 41 -18l-3 -13q-28 7 -45 20zM172 319q11 4 48 9 v-14q-38 -5 -44 -8zM220 -6v14q37 5 44 8l5 -13q-13 -5 -49 -9zM251 310l4 13q26 -7 45 -20l-8 -11q-18 12 -41 18zM292 30q24 18 33 30l11 -8q-11 -16 -36 -33zM316 272l10 10q23 -27 29 -41l-13 -6q-5 12 -26 37zM342 87q6 9 15 42h4v16h14v-50h-14q-4 -10 -6 -14zM361 10 v50h14v-50h-14zM361 180v50h14v-50h-14zM361 265v50h14v-50h-14z" />
<glyph unicode="b" horiz-adv-x="444" d="M71 7v46h14v-46h-14zM71 84v46h14v-3h1q9 -33 15 -42l-12 -7q-3 4 -4 8v-2h-14zM71 162v45h14v-45h-14zM71 239v45h14v-45h-14zM71 316v45h14v-45h-14zM71 393v45h14v-45h-14zM71 470v45h14v-45h-14zM71 547v46h14v-46h-14zM89 239q7 17 28 40l10 -10q-20 -22 -26 -36z M107 49l11 9q12 -16 33 -30l-7 -12q-23 15 -37 33zM144 301q17 13 45 20l3 -14q-26 -7 -41 -18zM175 1l4 13q14 -6 44 -8v-14q-33 2 -48 9zM223 312v14q37 -4 49 -10l-5 -13q-11 5 -44 9zM254 10q26 7 41 18l8 -12q-18 -12 -45 -20zM295 289l8 12q23 -16 36 -33l-11 -9 q-14 18 -33 30zM319 48q19 21 26 37l13 -7q-4 -9 -28 -40zM345 233l13 6q8 -14 16 -46l-14 -3q-9 33 -15 43zM357 114q2 4 7 45h14q-5 -40 -8 -49z" />
<glyph unicode="c" horiz-adv-x="413" d="M66 144l14 1q0 -9 10 -44l-13 -5q-11 33 -11 48zM66 178q0 15 11 48l13 -5q-10 -35 -10 -44zM93 65l12 7q14 -21 30 -33l-9 -11q-18 14 -33 37zM93 257q15 23 33 37l9 -11q-17 -13 -30 -34zM155 9l6 13q28 -12 44 -12l-2 -14q-13 0 -48 13zM155 313q35 13 48 13l2 -14 q-16 0 -44 -12zM236 10q15 1 43 13l6 -12q-30 -14 -47 -15zM236 312l2 14q17 -1 47 -15l-6 -12q-28 12 -43 13zM305 41q12 10 30 34l12 -7q-22 -28 -33 -37zM305 281l9 10q11 -9 33 -37l-12 -7q-18 24 -30 34z" />
<glyph unicode="d" horiz-adv-x="444" d="M66 160h14q1 -4 1.5 -14t1.5 -17.5t4 -13.5l-14 -4q-1 5 -7 49zM69 194q12 38 17 46l12 -6q-6 -10 -15 -43zM86 79l12 7q7 -16 26 -37l-10 -10q-23 27 -28 40zM104 269q14 18 37 33l7 -12q-21 -14 -33 -30zM141 17l7 12q19 -12 41 -18l-3 -14q-29 9 -45 20zM172 318 q11 4 48 9v-14q-33 -4 -44 -9zM220 7q37 5 44 8l5 -13q-10 -4 -49 -9v14zM251 309l4 13q26 -7 45 -20l-8 -12q-13 10 -41 19zM292 29q21 14 33 30l11 -9q-10 -13 -36 -33zM316 271l10 9q21 -23 29 -40l-13 -6q-5 12 -26 37zM342 86q6 9 15 42h2v3h14v-45h-14v1q-3 -4 -4 -8z M359 9v45h14v-45h-14zM359 163v45h14v-45h-14zM359 240v45h14v-45h-14zM359 317v45h14v-45h-14zM359 394v46h14v-46h-14zM359 471v46h14v-46h-14zM359 548v46h14v-46h-14z" />
<glyph unicode="e" horiz-adv-x="439" d="M66 148l14 1q0 -11 9 -45l-13 -5q-10 32 -10 49zM67 184q1 16 13 48l13 -6q-11 -25 -12 -44zM77 154v14h47v-14h-47zM91 67l12 8q18 -24 31 -35l-9 -10q-12 9 -34 37zM97 263q8 11 35 36l9 -11q-23 -19 -32 -34zM154 10l7 12q26 -12 43 -12l-1 -14q-17 0 -49 14zM158 154 v14h47v-14h-47zM163 316q25 11 50 11v-14q-21 0 -44 -10zM236 10q14 0 45 11l6 -13q-38 -12 -49 -12zM238 154v14h48v-14h-48zM245 311l3 14q34 -11 47 -19l-7 -12q-16 10 -43 17zM309 37q8 5 17.5 17.5t13.5 15.5l12 -7q-2 -2 -14 -17t-21 -20zM313 274l10 10 q23 -25 30 -41l-13 -6q-7 18 -27 37zM319 154v14h39q-3 31 -6 39l14 4q4 -12 7 -57h-54z" />
<glyph unicode="f" horiz-adv-x="413" d="M66 321v14h44v-14h-44zM137 7v49h14v-49h-14zM137 90v49h14v-49h-14zM137 173v49h14v-49h-14zM137 256v49h14v-49h-14zM137 339v49h14v-49h-14zM137 422v48l14 1v-49h-14zM140 321v14h44v-14h-44zM142 543q10 31 36 43l7 -12q-19 -10 -30 -35zM215 321v14h44v-14h-44z M215 599q14 3 29 3q13 0 25 -3l-3 -14q-10 3 -22 3q-14 0 -27 -3zM298 573l7 12q26 -17 42 -36l-12 -8q-13 16 -37 32z" />
<glyph unicode="g" horiz-adv-x="444" d="M66 162h14q5 -40 7 -44l-14 -4q-2 5 -7 48zM69 196q12 39 17 47l12 -7q-6 -9 -15 -42zM86 82l12 6q5 -12 26 -37l-10 -9q-21 23 -28 40zM99 -143l9 10q12 -11 40 -25l-6 -13q-32 17 -43 28zM104 272q14 18 37 33l7 -12q-21 -14 -33 -30zM141 20l7 12q13 -9 41 -19l-3 -13 q-28 7 -45 20zM172 320q9 4 48 9v-14q-37 -5 -44 -8zM176 -182l3 13q1 0 47 -6v-14q-34 2 -50 7zM220 -5v14q33 4 44 9l5 -13q-13 -6 -49 -10zM251 311l4 14q27 -8 45 -20l-8 -12q-15 11 -41 18zM259 -172l45 15l6 -12q-3 -2 -48 -16zM292 32q21 14 33 30l11 -9 q-13 -17 -36 -33zM316 273l10 10q23 -27 29 -40l-13 -7q-7 16 -26 37zM330 -139q20 20 25 38l14 -5q-9 -25 -29 -43zM342 88q6 10 15 43l2 -1v17h14v-49h-11q-3 -10 -7 -16zM359 14v49h14v-49h-14zM359 -20h14v-50h-14v50zM359 181v49h14v-49h-14zM359 265v49h14v-49h-14z " />
<glyph unicode="h" horiz-adv-x="397" d="M71 8v45h14v-45h-14zM71 85v45h14v-45h-14zM71 162v45h14v-45h-14zM71 239v45h14v-45h-14zM71 316v45h14v-45h-14zM71 393v45h14v-45h-14zM71 470v46h14v-46h-14zM71 547v46h14v-46h-14zM86 229q13 32 22 44l12 -9q-12 -14 -21 -40zM132 299q21 16 45 23l3 -14 q-20 -6 -39 -20zM211 312l1 14q24 0 49 -11l-6 -13q-23 10 -44 10zM280 284l9 10q19 -17 28 -42l-13 -5q-8 22 -24 37zM314 216l13 3q4 -17 4 -39v-10h-14q0 24 -3 46zM317 8v48h14v-48h-14zM317 89v48h14v-48h-14z" />
<glyph unicode="i" horiz-adv-x="194" d="M71 422v2q0 10 5 16l6 -4q-4 -4 -4 -11v-3h-7zM76 409l6 4q4 -7 11 -7l-1 -7q-9 1 -16 10zM86 448q6 2 10 2h2q5 0 7 -1l-2 -7q-5 2 -14 0zM90 8v50h14v-50h-14zM90 93v49h14v-49h-14zM90 177v50h14v-50h-14zM90 262v50h14v-50h-14zM103 406q7 4 10 9l6 -3q-4 -9 -14 -12 zM111 437l5 5q7 -7 7 -18h-7q0 8 -5 13z" />
<glyph unicode="j" horiz-adv-x="199" d="M6 -173q3 1 13.5 2t17.5 3.5t12 6.5l7 -12q-6 -5 -14 -7.5t-19.5 -4t-16.5 -2.5v14zM72 -141q13 17 19 41l13 -3q-7 -29 -21 -47zM76 422v2q-1 8 5 16l5 -4q-3 -5 -3 -11v-3h-7zM81 409l5 4q5 -7 12 -7l-2 -7q-10 2 -15 10zM91 448q6 2 10 2h2q5 0 7 -1l-2 -7q-5 2 -14 0 zM95 15v49h14v-49h-14zM95 -19h14v-49h-14v49zM95 98v48h14v-48h-14zM95 180v49h14v-49h-14zM95 263v49h14v-49h-14zM108 406q7 4 10 9l6 -3q-4 -9 -14 -12zM116 437l5 5q5 -7 7 -18h-7q-2 10 -5 13z" />
<glyph unicode="k" horiz-adv-x="366" d="M71 7v46h14v-46h-14zM71 84v46h14v-46h-14zM71 162v45h14v-45h-14zM71 239v45h14v-45h-14zM71 316v45h14v-45h-14zM71 393v45h14v-45h-14zM71 470v45h14v-45h-14zM71 547v46h14v-46h-14zM77 152l34 28l9 -10l-34 -28zM135 200l34 28l9 -11l-16 -13l30 -41l-12 -8l-28 41 l-8 -7zM193 247l34 28l8 -10l-34 -28zM202 124l12 8l32 -45l-12 -8zM250 295l34 28l9 -11l-34 -28zM257 48l11 8l32 -45l-12 -8z" />
<glyph unicode="l" horiz-adv-x="156" d="M71 7v46h14v-46h-14zM71 84v46h14v-46h-14zM71 162v45h14v-45h-14zM71 239v45h14v-45h-14zM71 316v45h14v-45h-14zM71 393v45h14v-45h-14zM71 470v45h14v-45h-14zM71 547v46h14v-46h-14z" />
<glyph unicode="m" horiz-adv-x="642" d="M71 8v50h14v-50h-14zM71 93v51h14v-51h-14zM71 179v50h14q3 9 9 20l12 -6q-7 -14 -15 -46l-6 1v-19h-14zM71 264v50h14v-50h-14zM113 280q20 24 41 34l7 -13q-17 -7 -37 -29zM190 326q6 1 18 1q15 0 35 -5l-4 -13q-13 4 -31 4q-11 0 -16 -1zM268 295l8 11q18 -12 35 -40 l-12 -7q-12 22 -31 36zM311 228l14 4q2 -8 2 -13q1 1 2 4.5t1 5.5l14 -5q-4 -8 -7 -25.5t-4 -20.5h-16q-2 38 -6 50zM317 8v51h14v-51h-14zM317 94v50h14v-50h-14zM344 258q10 21 29 37l9 -10q-19 -19 -26 -33zM400 314q20 11 46 13l1 -14q-21 -2 -40 -11zM476 311l3 14 q27 -7 44 -20l-9 -11q-17 13 -38 17zM535 273l11 8q10 -12 22 -42l-14 -4q-6 23 -19 38zM560 206l14 1q2 -16 2 -26v-20h-14q0 30 -2 45zM562 8v45h14v-45h-14zM562 85v45h14v-45h-14z" />
<glyph unicode="n" horiz-adv-x="396" d="M71 9v50h14v-50h-14zM71 94v51h14v-51h-14zM71 180v50h14v-5l11 -4q-1 -2 -9 -43q-10 2 -16 2zM71 265v50h14v-50h-14zM96 256q7 18 28 38l9 -10q-16 -16 -25 -35zM151 314q22 12 46 14l1 -14q-23 -2 -40 -13zM228 313l2 13q25 -5 44 -18l-8 -12q-14 11 -38 17zM288 276 l11 9q15 -22 22 -42l-13 -5q-7 21 -20 38zM314 209l14 1q2 -18 2 -28v-18h-14q0 30 -2 45zM316 10v45h14v-45h-14zM316 87v45h14v-45h-14z" />
<glyph unicode="o" horiz-adv-x="440" d="M66 162h14q1 -4 1.5 -14t1.5 -17.5t4 -13.5l-14 -4q-2 6 -7 49zM69 196q14 41 17 46l12 -6q-6 -10 -15 -43zM86 81l12 7q7 -16 26 -37l-10 -10q-21 23 -28 40zM104 271q14 18 37 33l7 -12q-21 -14 -33 -30zM141 19l7 12q15 -11 41 -18l-3 -14q-29 9 -45 20zM172 319 q12 5 48 10v-15q-30 -2 -44 -8zM220 -5v14q30 2 44 8l5 -13q-16 -7 -49 -9zM251 310l4 14q27 -8 45 -20l-8 -12q-15 11 -41 18zM292 31q21 14 33 30l11 -9q-13 -17 -36 -33zM316 272l10 10q21 -23 29 -40l-13 -6q-6 14 -26 36zM342 88q6 9 15 42l14 -3q-9 -34 -16 -46z M354 206l13 4q5 -12 7 -48h-14q-2 34 -6 44z" />
<glyph unicode="p" horiz-adv-x="446" d="M71 -5v52h14v-52h-14zM71 -42h14v-52h-14v52zM71 84v52h14v-7h4q9 -33 15 -42l-12 -7l-7 14v-10h-14zM71 -131h14v-52h-14v52zM71 173v53h14v-53h-14zM71 262v53h14v-53h-14zM92 241q6 16 28 40l10 -9q-21 -25 -26 -37zM110 52l11 8q9 -12 33 -30l-7 -12q-26 19 -37 34z M147 303q17 13 45 20l3 -13q-22 -6 -41 -18zM178 3l4 13q7 -3 44 -8v-14q-39 5 -48 9zM226 314v14q38 -5 49 -9l-5 -14q-9 4 -44 9zM257 12q25 7 41 18l8 -12q-17 -11 -46 -20zM298 292l8 11q23 -16 36 -33l-11 -9q-9 13 -33 31zM322 50q21 25 26 37l12 -7q-5 -13 -28 -40z M348 235l12 6q5 -8 17 -46l-14 -3q-9 33 -15 43zM359 116q3 6 4 13.5t1.5 17.5t1.5 14h14q-1 -5 -1.5 -15.5t-1.5 -18.5t-4 -15z" />
<glyph unicode="q" horiz-adv-x="446" d="M66 161h14q1 -4 1.5 -14t1.5 -17t4 -14l-14 -3q-2 5 -7 48zM69 195q12 39 17 47l12 -7q-6 -9 -15 -42zM86 81l12 6q5 -12 26 -37l-10 -9q-22 24 -28 40zM104 270q12 17 37 33l7 -11q-24 -18 -33 -30zM141 19l7 11q19 -12 41 -18l-3 -13q-28 7 -45 20zM172 319q11 4 48 9 v-14q-37 -5 -44 -8zM220 -6v14q35 5 44 9l5 -14q-13 -5 -49 -9zM251 310l4 14q28 -9 45 -21l-8 -11q-18 12 -41 18zM292 30q24 18 33 31l11 -9q-13 -17 -36 -33zM316 272l10 10q23 -27 29 -40l-13 -7q-5 12 -26 37zM342 87q6 9 15 42h4v8h14v-53h-14v11q-4 -10 -6 -14z M361 -5v53h14v-53h-14zM361 -42h14v-52h-14v52zM361 -131h14v-52h-14v52zM361 173v53h14v-53h-14zM361 262v53h14v-53h-14z" />
<glyph unicode="r" horiz-adv-x="273" d="M71 9v50h14v-50h-14zM71 94v50h14v-50h-14zM71 179v50h14v-2l1 1l12 -6q-6 -13 -12 -41h-1v-2h-14zM71 264v50h14v-50h-14zM101 257q16 23 32 34l8 -11q-14 -10 -28 -31zM161 309q21 10 46 12v-14q-18 -1 -41 -10z" />
<glyph unicode="s" horiz-adv-x="391" d="M66 89q0 7 1 10l13 -2q-2 -23 9 -44l-13 -6q-10 22 -10 42zM71 260q3 26 30 44l8 -12q-23 -15 -24 -35zM76 222l13 6q9 -16 34 -27l-6 -13q-30 13 -41 34zM101 19l8 11q15 -12 43 -18l-4 -14q-30 7 -47 21zM135 318q22 7 50 7l1 -14q-24 0 -48 -6zM151 177l4 14 q8 -2 24 -5.5t24 -5.5l-3 -13q-36 7 -49 10zM184 -7l1 14q31 0 47 4l3 -14q-17 -4 -51 -4zM219 309l2 14q15 -1 50 -14l-7 -13q-28 12 -45 13zM233 159l4 14q31 -8 48 -18l-8 -12q-14 8 -44 16zM263 22q18 8 34 29l12 -8q-18 -23 -40 -34zM288 276l11 9q18 -23 18 -48v-3 l-14 2q0 22 -15 40zM301 122l11 7q13 -18 13 -39q0 -5 -2 -13l-13 3q3 23 -9 42z" />
<glyph unicode="t" horiz-adv-x="279" d="M52 307v14h40v-14h-40zM120 307v14h11v38h14v-38h15v-14h-40zM131 6v46h14v-46h-14zM131 83v46h14v-46h-14zM131 160v45h14v-45h-14zM131 237v45h14v-45h-14zM131 391v45h14v-45h-14zM187 307v14h40v-14h-40z" />
<glyph unicode="u" horiz-adv-x="396" d="M66 148v10h14q0 -30 2 -44l-14 -2q-2 12 -2 36zM66 190v45h14v-45h-14zM66 266v46h14v-46h-14zM74 80l14 4q5 -18 19 -38l-11 -8q-10 12 -22 42zM120 14l8 12q16 -12 39 -17l-3 -14q-26 6 -44 19zM196 7q22 2 40 12l7 -12q-22 -12 -46 -14zM260 37q18 22 24 35l13 -6 q-7 -15 -27 -39zM295 100q3 8 6.5 23.5t4.5 19.5q12 -2 19 -2v-50h-14v11l-2 -6zM311 6v50h14v-50h-14zM311 176v50h14v-50h-14zM311 262v50h14v-50h-14z" />
<glyph unicode="v" horiz-adv-x="391" d="M66 311l13 6l16 -41l-13 -5zM92 243l13 5l16 -40l-13 -5zM119 175l13 5l15 -41l-13 -5zM145 106l13 5l16 -40l-13 -5zM171 38l13 5l12 -31l11 31l13 -5l-16 -38h-17zM218 71l15 40l13 -5l-15 -40zM244 139l16 41l13 -5l-16 -41zM270 208l16 40l13 -5l-16 -40zM297 276 l15 41l13 -6l-15 -40z" />
<glyph unicode="w" horiz-adv-x="603" d="M66 314l13 5l19 -52l-14 -4zM97 227l13 4l19 -51l-13 -5zM128 139l14 5l18 -52l-13 -4zM160 51l13 5l14 -40l13 40l14 -5l-19 -49h-17zM213 92l18 52l14 -5l-19 -51zM244 180l19 51l13 -4l-18 -52zM276 267l18 49h16l18 -49l-13 -4l-13 38l-13 -38zM327 227l14 4l18 -51 l-13 -5zM359 139l13 5l18 -52l-13 -5zM390 51l13 5l14 -40l14 40l13 -5l-19 -49h-17zM443 92l19 52l13 -5l-18 -52zM475 180l18 51l13 -4l-18 -52zM506 267l18 52l13 -5l-18 -51z" />
<glyph unicode="x" horiz-adv-x="354" d="M66 12l27 39l12 -7l-27 -40zM66 311l12 8l27 -39l-12 -8zM112 79l27 39l11 -8l-27 -39zM112 244l11 8l27 -39l-11 -8zM158 146l10 16l-10 15l11 8l8 -11l8 11l11 -8l-11 -15l11 -16l-11 -8l-8 11l-8 -11zM203 110l12 8l27 -39l-12 -8zM203 213l27 39l12 -8l-27 -39z M249 44l12 7l27 -39l-12 -8zM249 280l27 39l12 -8l-27 -39z" />
<glyph unicode="y" horiz-adv-x="397" d="M66 313l13 5l20 -50l-13 -5zM101 228l13 5l20 -49l-13 -6zM123 -183l18 44l13 -5l-18 -44zM136 143l13 6l20 -50l-13 -5zM153 -107l17 45l13 -6l-17 -44zM171 59l12 5l21 -50l-3 -1l12 -5l-18 -44l-13 5l17 43l-8 -3zM212 45l17 45l14 -5l-18 -45zM242 121l17 45l13 -5 l-17 -45zM271 197l18 45l13 -5l-18 -45zM301 273l17 45l13 -5l-17 -45z" />
<glyph unicode="z" horiz-adv-x="403" d="M66 10l41 49l10 -9l-21 -26h37v-14h-67zM91 297v14h53v-14h-53zM128 84l31 37l11 -9l-31 -37zM170 10v14h53v-14h-53zM181 147l31 36l11 -9l-31 -36zM181 297v14h52v-14h-52zM234 209l30 37l11 -9l-31 -37zM260 10v14h52v-14h-52zM270 297v14h67l-40 -49l-11 9l21 26h-37 z" />
<glyph unicode="{" horiz-adv-x="343" d="M69 199l2 14l11 -1v-14zM90 198v14l11 1l2 -14zM108 215q19 2 19 47h14q0 -2 -0.5 -9.5t-0.5 -11t-1.5 -10.5t-3 -11t-5 -8.5t-8.5 -6.5q17 -12 19 -42l-14 -1q-2 26 -14 33l4 8l-5 -2zM127 10v45h14v-45h-14zM127 -21h14v-45h-14v45zM127 86v45h14v-45h-14zM127 -97h14 q-1 -10 6 -41l-13 -6q-7 33 -7 42v5zM127 298v52h14v-52h-14zM127 387v52h14v-52h-14zM127 475v11.5v14v11.5q0 2 0.5 7.5t0.5 8.5l14 -1q-1 -9 -1 -26v-26h-14zM140 565q14 26 44 34l4 -14q-25 -7 -36 -28zM154 -171l9 10q16 -14 36 -16l-1 -14q-25 3 -44 20zM222 589v14 h52v-14h-52zM230 -178h44v-14h-44v14z" />
<glyph unicode="|" horiz-adv-x="152" d="M69 -23v48h14v-48h-14zM69 -57h14v-48h-14v48zM69 59v48h14v-48h-14zM69 -138h14v-48h-14v48zM69 141v48h14v-48h-14zM69 222v49h14v-49h-14zM69 304v48h14v-48h-14zM69 386v48h14v-48h-14zM69 468v48h14v-48h-14zM69 550v48h14v-48h-14z" />
<glyph unicode="}" horiz-adv-x="343" d="M69 -178h45v-14h-45v14zM69 589v14h52v-14h-52zM144 -177q20 1 36 16l10 -10q-20 -17 -45 -20zM155 585l4 14q30 -8 44 -34l-12 -8q-11 21 -36 28zM197 -138q5 37 5 41h14v-5q1 -14 -7 -42zM201 527l14 1q1 -6 1 -16v-37h-14v26t-1 26zM202 10v45h14v-45h-14zM202 -21h14 v-45h-14v45zM202 86v45h14v-45h-14zM202 262h14q0 -1 0.5 -10t1 -12.5t2.5 -10.5t5.5 -10t9.5 -4l-4 -14l-5 2l4 -8q-12 -8 -14 -33l-13 1q0 28 18 42q-7 4 -11 11.5t-5 13t-2 18.5t-1 14zM202 298v52h14v-52h-14zM202 387v52h14v-52h-14zM240 199l2 14l11 -1v-14zM261 198 v14l11 1l2 -14z" />
<glyph unicode="~" horiz-adv-x="466" d="M69 258q0 24 10 51l13 -5q-9 -21 -9 -46h-14zM100 340q19 16 43 16h8v-14q-23 3 -41 -12zM182 335l5 13q20 -9 42 -31l-10 -10q-21 21 -37 28zM243 282l10 10q20 -20 38 -27l-6 -13q-21 9 -42 30zM321 243l1 14q27 2 40 15l10 -10q-18 -19 -51 -19zM377 299q6 18 6 39v7 l14 1v-5q1 -20 -6 -47z" />
<glyph unicode="&#xa1;" horiz-adv-x="194" d="M71 422q2 10 7 17l5 -4q-3 -3 -5 -13h-7zM75 409l6 3q3 -6 10 -8l-2 -7q-10 3 -14 12zM89 446q4 2 7 2h2q4 0 10 -2l-3 -7q-4 2 -7 2h-2q-1 0 -2.5 -0.5t-2.5 -0.5zM90 10v49h14v-49h-14zM90 -25h14v-49h-14v49zM90 93v49h14v-49h-14zM90 -108h14v-49h-14v49zM90 176v49 h14v-49h-14zM90 260v49h14v-49h-14zM101 403q7 1 12 8l5 -4q-5 -9 -15 -11zM113 433l5 4q5 -7 5 -14v-4l-7 1q2 7 -3 13z" />
<glyph unicode="&#xa2;" horiz-adv-x="419" d="M69 290l14 2q0 -8 10 -45l-13 -5q-11 35 -11 48zM69 325q0 13 11 48l13 -5q-10 -38 -10 -45zM96 211l12 8q14 -21 30 -33l-9 -11q-17 13 -33 36zM96 404q16 23 33 36l9 -10q-16 -14 -30 -34zM127 17l12 44l14 -3l-13 -45zM148 93l13 45l13 -4l-12 -45zM158 156l6 12 q31 -11 44 -12l-2 -14q-18 1 -48 14zM158 460q32 12 48 13l2 -14q-13 -1 -44 -12zM170 169l12 45l14 -4l-13 -44zM191 246l13 45l13 -4l-12 -45zM213 322l12 45l14 -4l-13 -45zM234 398l13 45l13 -3l-12 -45zM239 157q13 0 43 13l6 -12q-26 -14 -47 -15zM239 459l2 13 q19 -1 47 -14l-6 -13q-26 13 -43 14zM256 475l12 45l14 -4l-13 -45zM277 551l13 45l13 -4l-13 -45zM308 188q10 8 30 34l12 -8q-22 -28 -33 -37zM308 427l9 11q11 -9 33 -37l-12 -8q-20 26 -30 34z" />
<glyph unicode="&#xa3;" horiz-adv-x="527" d="M69 307v14h43q-1 2 -3 8t-3 8l13 5q3 -8 9 -23t8 -22l-13 -5l-10 26v-11h-44zM90 419h14q2 -31 6 -46l-14 -3q-4 16 -6 49zM91 12q20 8 37 25l11 -10l-1 -1l3 -11q-30 -10 -44 -16h-1q-2 6 -5 13zM92 453q0 8 13 48l13 -6q-12 -41 -12 -44zM122 531q27 32 34 37l9 -11 q-6 -4 -11 -9.5t-11 -13t-9 -10.5zM136 261l13 5q15 -44 15 -46l-14 -4q-1 7 -14 45zM144 307v14h44v-14h-44zM146 63q8 13 14 43l14 -2q-5 -30 -15 -48zM158 184l13 3q5 -35 5 -41v-8h-14q1 11 -4 46zM170 36q32 6 48 6l1 -14q-15 0 -47 -6zM185 587q9 6 46 18l3 -14 q-38 -14 -42 -16zM219 307v14h44v-14h-44zM251 28l1 14q27 -2 48 -7l-3 -14q-20 5 -46 7zM266 595v14h9q18 0 40 -5l-3 -14q-16 5 -40 5h-6zM328 13l5 13q7 -2 22 -7t23 -7l-4 -14q-30 10 -46 15zM342 580l6 12q22 -10 42 -27l-9 -10q-17 14 -39 25zM403 532l11 9 q15 -20 26 -43l-13 -5q-16 29 -24 39zM408 -8l1 14q17 -1 41 10l8 -12q-28 -13 -47 -12h-3z" />
<glyph unicode="&#xa5;" horiz-adv-x="472" d="M69 592l12 7l21 -39l-12 -6zM96 166v14h46v-14h-46zM96 271v14h46v-14h-46zM104 526l12 7l21 -39l-12 -6zM139 460l12 7l21 -39l-12 -6zM174 166v14h46v-14h-46zM174 271v14h46v-14h-46zM174 394l12 7l21 -39l-12 -6zM209 329l12 6l15 -28l15 28l12 -6l-20 -39v-35h-14 v35zM229 9v48h14v-48h-14zM229 91v48h14v-48h-14zM229 173v48h14v-48h-14zM252 166v14h46v-14h-46zM252 271v14h46v-14h-46zM265 362l21 39l12 -7l-20 -38zM300 428l21 39l12 -7l-20 -38zM330 166v14h46v-14h-46zM330 271v14h46v-14h-46zM335 494l21 39l12 -7l-20 -38z M370 560l21 39l12 -7l-20 -38z" />
<glyph unicode="&#xa6;" horiz-adv-x="152" d="M69 24h14v-49h-14v49zM69 -58h14v-49h-14v49zM69 58v48h14v-48h-14zM69 -141h14v-48h-14v48zM69 303v48h14v-48h-14zM69 385v49h14v-49h-14zM69 467v49h14v-49h-14zM69 550v48h14v-48h-14z" />
<glyph unicode="&#xa7;" horiz-adv-x="475" d="M69 -18h14q0 -28 6 -46l-14 -3q-6 19 -6 49zM70 284v7q0 11 1 17l14 -2q-3 -24 1 -45l-14 -3q-2 18 -2 26zM70 464v9q0 18 7 41l13 -4q-6 -24 -6 -37v-9h-14zM76 428l13 4q3 -13 22 -39l-10 -9q-22 26 -25 44zM80 342q10 21 28 41l10 -10q-17 -19 -25 -37zM84 225l13 7 q7 -16 28 -35l-9 -10q-21 18 -32 38zM87 -100l13 7q9 -22 26 -37l-10 -10q-17 15 -29 40zM93 546q11 17 36 36l9 -11q-22 -15 -33 -33zM128 360l8 11q10 -7 41 -23l-6 -13q-34 18 -43 25zM142 -162l8 11l17 -8.5t24 -9.5l-4 -13q-7 1 -14.5 4.5t-17 8.5t-13.5 7zM144 167 l7 12q32 -16 42 -20l-5 -13q-24 10 -44 21zM161 599q22 10 49 12l1 -14q-27 -2 -45 -11zM204 322l4 14q10 -3 47 -17l-5 -13zM219 135l5 13q15 -5 45 -17l-6 -13zM221 -189l2 14q3 0 9.5 -0.5t10.5 -0.5h6q7 0 19 2l2 -14q-14 -2 -21 -2h-6q-4 0 -11.5 0.5t-10.5 0.5z M244 596l2 14q26 -3 49 -13l-6 -13q-25 11 -45 12zM281 293l6 12q4 -3 13.5 -7.5t16.5 -8.5t13 -9l-8 -11q-7 6 -22.5 14t-18.5 10zM293 104l6 12q26 -12 41 -26l-9 -11q-15 13 -38 25zM299 -167q17 4 40 20l9 -11q-28 -18 -44 -22zM317 567l8 11q21 -16 33 -39l-12 -7 q-12 22 -29 35zM348 248l9 10q25 -27 31 -40l-12 -7q-4 9 -28 37zM355 57l10 10l3 -3q13 23 18 39l13 -4q-8 -26 -22 -46q6 -9 16 -27l-13 -6q-13 26 -25 37zM359 502l13 4q8 -26 8 -50h-14q0 20 -7 46zM362 -125q7 7 21 40l13 -5q-17 -38 -24 -43zM388 181l13 3 q5 -10 5 -27v-23l-14 1q-3 42 -4 46zM390 -10l14 3q2 -22 2 -32q0 -12 -2 -18l-14 2q2 6 2 16q0 11 -2 29z" />
<glyph unicode="&#xa8;" horiz-adv-x="284" d="M69 527v4l7 -1q0 -8 4 -13l-6 -4q-5 7 -5 14zM74 544q5 8 16 10l1 -7q-8 -2 -11 -8zM84 504l3 7q4 -2 7 -2h2q1 0 2.5 0.5t2.5 0.5l2 -6q-4 -2 -7 -2h-2q-4 0 -10 2zM101 546l2 7q10 -3 14 -12l-6 -3q-3 6 -10 8zM109 515q5 7 5 13h7q0 -10 -7 -17zM162 527v2l1 2l7 -1 q-2 -7 3 -13l-6 -4q-3 4 -5 14zM167 544q7 8 16 10l2 -7q-7 -1 -12 -8zM178 504l2 7q6 -2 8 -2h2l2 1h2l2 -6q-4 -2 -6 -2h-2q-4 0 -10 2zM194 546l2 7q11 -4 15 -12l-6 -3q-3 6 -11 8zM202 515q4 4 6 13h7q-2 -10 -7 -17z" />
<glyph unicode="&#xa9;" horiz-adv-x="764" d="M69 293v15q0 18 3 35l14 -2q-3 -15 -3 -47zM72 258l14 2q2 -14 10 -47l-14 -4q-8 32 -10 49zM79 378q4 20 16 48l12 -6q-14 -42 -15 -46zM95 176l12 6q12 -26 23 -43l-12 -7q-9 14 -23 44zM111 457q8 15 28 41l11 -8q-16 -21 -27 -40zM139 103l11 9q18 -21 33 -34l-9 -11 q-9 8 -35 36zM163 524q18 18 38 32l8 -11q-13 -9 -37 -31zM201 45l8 12q31 -20 42 -25l-6 -12q-12 5 -44 25zM231 575q24 13 46 21l5 -14q-16 -5 -44 -19zM237 278l13 2q1 -10 10 -45l-13 -5q-10 40 -10 48zM237 313q0 8 10 48l13 -5q-9 -35 -10 -45zM263 199l12 8 q17 -22 31 -33l-9 -11q-15 12 -34 36zM263 392q19 24 34 36l9 -10q-15 -12 -31 -34zM277 6l5 13q16 -6 46 -12l-2 -14q-27 5 -49 13zM311 606q31 6 49 7l1 -14q-15 -1 -47 -7zM326 144l6 12q31 -11 43 -12l-1 -14q-21 1 -48 14zM326 447q27 13 48 14l1 -14q-12 -1 -43 -12z M360 -11l1 14q16 -2 48 0l2 -14q-9 -1 -26 -1h-8q-11 0 -17 1zM395 599l1 14q16 0 50 -6l-3 -13q-40 5 -48 5zM407 145q14 0 42 13l7 -12q-26 -14 -47 -15zM407 447l2 13q20 -1 47 -14l-7 -13q-28 13 -42 14zM443 8q37 10 46 14l5 -13q-16 -7 -48 -15zM475 176q9 6 30 34 l12 -8q-23 -30 -32 -37zM475 415l10 11q9 -7 32 -37l-12 -8q-21 28 -30 34zM475 585l5 13q18 -6 46 -19l-7 -13q-18 10 -44 19zM519 35q28 16 41 26l8 -11q-15 -12 -42 -27zM548 549l8 12q25 -17 39 -32l-9 -10q-16 15 -38 30zM586 82q15 13 32 36l11 -9q-18 -24 -34 -37z M609 495l11 9q23 -30 29 -41l-12 -7q-10 17 -28 39zM637 145q2 4 22 43l13 -5q-16 -34 -23 -45zM653 426l13 6q11 -24 17 -47l-13 -4q-9 29 -17 45zM670 220q6 22 9 47l14 -1q-3 -29 -10 -50zM677 349l14 2q1 -8 4 -50h-14q-3 40 -4 48z" />
<glyph unicode="&#xaa;" horiz-adv-x="360" d="M69 489q0 18 4 31l13 -4q-3 -14 -3 -27q0 -3 0.5 -9.5t0.5 -10.5l-13 -2q-2 14 -2 22zM83 432l12 6q7 -17 30 -36l-9 -11q-25 21 -33 41zM87 554q18 26 37 38l8 -12q-20 -11 -33 -33zM150 374l4 14q9 -4 22 -4q12 0 24 3l3 -14q-13 -3 -27 -3q-15 0 -26 4zM159 606 q5 1 16 1q17 0 37 -5l-4 -14q-18 5 -33 5q-9 0 -13 -1zM229 400q16 11 32 34l12 -6q-18 -27 -36 -40zM236 572l9 11q15 -12 32 -42l-12 -6q-15 27 -29 37zM277 382v48h14v-48h-14zM277 464v49h14v-49h-14zM277 547v48h14v-48h-14z" />
<glyph unicode="&#xab;" horiz-adv-x="310" d="M69 155l12 5l-12 6l16 34l13 -6l-16 -34l16 -34l-13 -6zM97 96l12 6l17 -35l-13 -6zM97 225l16 34l13 -6l-17 -34zM124 37l13 6l16 -35l-12 -6zM124 283l17 35l12 -6l-16 -34zM157 155l12 6l-12 5l16 35l13 -6l-16 -34l16 -34l-13 -6zM184 97l13 6l16 -35l-12 -6z M184 225l17 35l12 -6l-16 -35zM212 38l13 6l16 -35l-13 -6zM212 284l16 35l13 -6l-16 -35z" />
<glyph unicode="&#xac;" horiz-adv-x="394" d="M69 364l41 27l8 -11l-41 -28zM69 526l8 12l41 -28l-8 -11zM138 411l41 27l8 -12l-41 -27zM138 479l8 12l41 -28l-8 -11zM191 300v48h14v-48h-14zM191 381v47h14v-47h-14zM191 462v47h14v-47h-14zM191 542v48h14v-48h-14zM207 433l8 11l41 -27l-8 -12zM207 457l41 28 l8 -12l-41 -27zM277 386l7 11l41 -27l-8 -12zM277 504l40 28l8 -12l-41 -27z" />
<glyph unicode="&#xad;" horiz-adv-x="337" d="M69 321v14h45v-14h-45zM146 321v14h45v-14h-45zM223 321v14h45v-14h-45z" />
<glyph unicode="&#xae;" horiz-adv-x="764" d="M69 295v15q0 17 3 35l14 -2q-3 -16 -3 -48h-14zM72 260l14 2q2 -18 10 -47l-14 -4q-8 32 -10 49zM79 380q4 21 16 47l12 -5q-14 -42 -15 -46zM95 178l12 5q16 -32 23 -42l-12 -8q-10 16 -23 45zM111 459q10 18 28 41l11 -9q-18 -24 -27 -39zM139 105l11 9q17 -20 33 -35 l-9 -10q-16 14 -35 36zM163 526q18 18 38 32l8 -11q-20 -15 -37 -31zM201 47l8 11q30 -19 42 -24l-6 -13q-20 9 -44 26zM231 577q36 17 46 20l5 -13q-16 -5 -44 -19zM277 8l5 13q10 -4 46 -13l-2 -13q-32 6 -49 13zM288 147v50h14v-50h-14zM288 232v51h10v14h52v-14h-48v-51 h-14zM288 318v50h14v-50h-14zM288 403v59h52v-14h-38v-45h-14zM311 607q26 7 49 8l1 -14q-15 -1 -47 -7zM360 -10l1 14q16 -1 48 1l2 -14q-9 -1 -26 -1h-8h-17zM377 448v14h5q26 0 48 -6l-4 -14q-19 6 -49 6zM387 283v14q28 0 49 9l5 -14q-12 -5 -25 -6l18 -25l-11 -8 l-22 31q-5 -1 -14 -1zM395 601l1 14q16 0 50 -6l-3 -14q-32 6 -48 6zM439 230l11 9l23 -33l-11 -8zM443 9q33 9 46 14l5 -13q-16 -6 -48 -14zM458 428l7 12q27 -17 37 -42l-13 -5q-8 21 -31 35zM466 322q19 14 25 39l14 -3q-6 -30 -31 -47zM475 587l5 13q23 -8 46 -20 l-7 -12q-14 7 -44 19zM478 176l11 8l23 -32l-11 -8zM519 37q33 19 41 25l8 -11q-11 -8 -42 -27zM548 551l8 12q25 -18 39 -32l-9 -10q-5 5 -38 30zM586 84q12 11 32 35l11 -8q-18 -24 -34 -37zM609 497l11 9q23 -30 29 -41l-12 -7q-6 10 -28 39zM637 147q7 11 22 43l13 -5 q-13 -29 -23 -45zM653 428l13 6q11 -24 17 -47l-13 -4q-11 33 -17 45zM670 222q6 22 9 47l14 -2q-4 -28 -10 -49zM677 350l14 2q2 -8 4 -50h-14q-3 40 -4 48z" />
<glyph unicode="&#xaf;" horiz-adv-x="394" d="M69 364l41 27l8 -11l-41 -28zM69 526l8 12l41 -28l-8 -11zM138 411l41 27l8 -12l-41 -27zM138 479l8 12l41 -28l-8 -11zM191 300v48h14v-48h-14zM191 381v47h14v-47h-14zM191 462v47h14v-47h-14zM191 542v48h14v-48h-14zM207 433l8 11l41 -27l-8 -12zM207 457l41 28 l8 -12l-41 -27zM277 386l7 11l41 -27l-8 -12zM277 504l40 28l8 -12l-41 -27z" />
<glyph unicode="&#xb0;" horiz-adv-x="316" d="M69 466h14q0 -24 14 -44l-12 -8q-14 23 -16 52zM77 503q9 22 36 40l7 -12q-21 -13 -30 -34zM113 389l7 12q16 -10 37 -10h8l1 -14h-9q-25 0 -44 12zM150 554q3 1 9 1q23 0 43 -12l-7 -12q-16 10 -36 10q-5 0 -8 -1zM195 401q23 14 31 33l12 -5q-11 -26 -36 -40zM219 509 l11 8q15 -21 17 -51h-14q-2 25 -14 43z" />
<glyph unicode="&#xb1;" horiz-adv-x="394" d="M69 364l41 27l8 -11l-41 -28zM69 526l8 12l41 -28l-8 -11zM138 411l41 27l8 -12l-41 -27zM138 479l8 12l41 -28l-8 -11zM191 300v48h14v-48h-14zM191 381v47h14v-47h-14zM191 462v47h14v-47h-14zM191 542v48h14v-48h-14zM207 433l8 11l41 -27l-8 -12zM207 457l41 28 l8 -12l-41 -27zM277 386l7 11l41 -27l-8 -12zM277 504l40 28l8 -12l-41 -27z" />
<glyph unicode="&#xb2;" horiz-adv-x="300" d="M69 525q0 5 5 17l6 -2q0 -3 -2 -8t-2 -8zM70 313l3 18l7 -2q-3 -9 -3 -17zM78 343q1 1 4 7t5 9l6 -4l-9 -15zM79 554q2 3 6 8t5 7l5 -5q0 -1 -4 -5.5t-6 -7.5zM84 297v7h17v-7h-17zM95 369q2 1 6.5 5.5t7.5 6.5l4 -5l-12 -12zM100 578q2 2 16 9l3 -6l-15 -9zM112 297v7 h17v-7h-17zM119 389l15 10l3 -6l-14 -10zM128 592q3 1 6 1.5t6.5 1t5.5 0.5v-7q-1 0 -7 -1t-9 -2zM140 297v7h17v-7h-17zM144 406l15 9l4 -6l-15 -9zM158 587l1 7q6 0 18 -4l-2 -6q-1 0 -7 1.5t-10 1.5zM169 297v7h16v-7h-16zM169 422l14 10l5 -5l-15 -11zM185 579l4 6 q5 -3 15 -11l-5 -5q-4 4 -14 10zM193 440q8 8 11 13l6 -5q-6 -7 -13 -13zM197 297v7h16v-7h-16zM207 560l6 5q5 -7 10 -16l-7 -3q-3 8 -9 14zM211 463q7 11 8 15l6 -3q-1 -4 -8 -16zM221 535l6 2q4 -12 4 -18l-7 -1q0 10 -3 17zM222 489q0 3 0.5 8.5t1.5 8.5h7q-1 -3 -1 -9 t-1 -9z" />
<glyph unicode="&#xb3;" horiz-adv-x="312" d="M69 359l7 1q0 -3 2 -8t2 -7l-6 -3q-5 15 -5 17zM77 536q1 9 6 18l6 -3q-4 -9 -5 -16zM79 331l6 3q2 -5 10 -13l-6 -5q-9 11 -10 15zM90 565q1 1 3.5 4t4.5 5.5t5 3.5l4 -5l-12 -12zM98 308l5 5q11 -8 13 -9l-3 -6q-4 1 -15 10zM113 585q13 7 18 8l2 -7q-6 -1 -16 -7z M124 292l3 7q2 0 7 -2t8 -2l-1 -7q-3 0 -9 2t-8 2zM143 595q4 1 11 1h8l-1 -7q-5 1 -17 -1zM154 287v7q2 0 8 0.5t8 0.5l1 -7q-3 0 -8 -0.5t-7 -0.5h-2zM167 448v10q3 0 9 2t8 2l2 -7l-7 -2l6 -2l-2 -6q-15 3 -16 3zM173 587l1 7q2 -1 6 -2t7 -2t5 -2l-3 -6q-5 3 -16 5z M181 298q5 1 15 7l4 -6q-14 -7 -17 -8zM193 440l3 6q9 -3 15 -9l-4 -6q-6 6 -14 9zM195 467q2 2 6.5 5.5t6.5 4.5l5 -5q-10 -8 -15 -11zM199 576l4 6q10 -8 14 -12l-5 -5q-8 8 -13 11zM206 311q6 5 11 11l6 -4q-6 -7 -13 -13zM215 423l5 5q9 -9 11 -14l-6 -4q-2 5 -10 13z M216 486q8 13 8 15l7 -3q-1 -2 -9 -16zM219 555l6 4q4 -5 8 -17l-7 -2q-3 10 -7 15zM224 331q6 10 7 15l7 -2q-1 -4 -8 -16zM227 512q2 11 1 17h7q0 -1 1 -1v-2v-4q0 -5 -2 -11zM230 400l7 3q1 -3 3 -8.5t2 -8.5l-7 -1q-1 5 -5 15zM235 357q0 2 0.5 7.5t0.5 8.5h7v-2 q0 -3 -0.5 -8t-0.5 -7z" />
<glyph unicode="&#xb4;" horiz-adv-x="245" d="M71 656l21 21l10 -10l-21 -21zM107 692l21 21l10 -10l-21 -21zM143 728l21 21l10 -10l-21 -21z" />
<glyph unicode="&#xb6;" horiz-adv-x="577" d="M69 444q0 7 2 23l14 -3q-2 -12 -2 -20q0 -9 2 -25l-14 -3q-2 18 -2 28zM80 501q13 27 26 43l11 -10q-12 -12 -24 -38zM81 382l13 6q11 -22 25 -39l-10 -9q-12 12 -28 42zM89 436l143 143l9 1l-151 -151q0 1 -0.5 3.5t-0.5 3.5zM91 473q1 2 2 5.5t1 5.5l84 85l12 3z M96 400l168 168v-9l-166 -166q0 1 -1 3.5t-1 3.5zM110 370l154 154v-8l-151 -151zM130 346l134 134v-8l-130 -130zM132 568q27 18 45 22l5 -13q-20 -5 -41 -21zM135 316l8 12q26 -16 42 -19l-4 -14q-12 3 -46 21zM155 328l108 109v-9l-103 -103zM186 315l77 78v-9l-71 -70z M212 596q12 2 18 2h7h24v-15q-43 0 -48 -1zM216 290l1 14q8 -1 48 -1v-14h-31q-12 0 -18 1zM222 308l40 41v-9l-32 -32h-8zM269 19h14v-48h-14v48zM269 53v48h14v-48h-14zM269 -63h14v-48h-14v48zM269 135v48h14v-48h-14zM269 -144h14v-49h-14v49zM269 216v48h14v-48h-14z M269 298v48h14v-48h-14zM269 380v48h14v-48h-14zM269 462v48h14v-48h-14zM269 543v49h14v-49h-14zM295 583v15h48v-15h-48zM377 583v15h49v-15h-49zM451 19h14v-48h-14v48zM451 53v48h14v-48h-14zM451 -63h14v-48h-14v48zM451 135v48h14v-48h-14zM451 -144h14v-49h-14v49z M451 216v48h14v-48h-14zM451 298v48h14v-48h-14zM451 380v48h14v-48h-14zM451 462v48h14v-48h-14zM451 543v49h8v6h49v-15h-43v-40h-14z" />
<glyph unicode="&#xb7;" horiz-adv-x="194" d="M71 264v5l7 -1q0 -9 4 -13l-6 -5q-5 7 -5 14zM76 281q5 8 16 10l1 -7q-7 0 -11 -7zM86 242l3 6q2 -1 7 -1h2q3 0 5 1l2 -7q-2 -1 -7 -1h-2q-4 0 -10 2zM103 284l2 6q10 -3 14 -12l-6 -3q-3 5 -10 9zM111 253q5 5 5 13h7q0 -11 -7 -18z" />
<glyph unicode="&#xb8;" horiz-adv-x="231" d="M69 -74l3 17l13 -3q17 9 32 14l4 -14q-18 -5 -41 -20q-3 6 -11 6zM74 -46l2 16l14 -2l-3 -16zM78 -19l3 17l14 -3l-3 -16zM82 -145q17 2 39 20l9 -11q-24 -19 -46 -23zM141 -101q7 12 7 23q0 9 -4 14l11 9q7 -10 7 -23q0 -14 -9 -30z" />
<glyph unicode="&#xb9;" horiz-adv-x="179" d="M69 570l16 11l4 -6l-16 -11zM87 295v7h23v-7h-23zM95 308v19h7v-19h-7zM95 339v18h7v-18h-7zM95 370v18h7v-18h-7zM95 401v18h7v-18h-7zM95 432v18h7v-18h-7zM95 463v18h7v-18h-7zM95 493v18h7v-18h-7zM95 524v18h7v-18h-7zM95 555v18h7v-18h-7z" />
<glyph unicode="&#xba;" horiz-adv-x="358" d="M69 488h14q2 -29 10 -45l-13 -6q-9 21 -11 51zM75 524q5 20 25 46l10 -9q-16 -20 -22 -41zM100 406l10 9q20 -20 38 -26l-5 -13q-23 8 -43 30zM128 593q22 12 51 14v-14q-27 -2 -44 -12zM179 369v14q27 2 44 12l7 -12q-18 -12 -51 -14zM210 587l5 13q24 -9 44 -30l-11 -9 q-15 17 -38 26zM248 415q16 20 22 41l13 -4q-6 -24 -24 -46zM265 533l13 6q9 -18 11 -51h-14q-2 29 -10 45z" />
<glyph unicode="&#xbb;" horiz-adv-x="310" d="M69 9l16 35l13 -6l-16 -35zM69 313l13 6l16 -35l-13 -6zM97 68l16 35l13 -6l-17 -35zM97 254l12 6l17 -35l-13 -6zM124 127l16 34l-16 34l13 6l16 -35l-12 -5l12 -6l-16 -34zM157 8l16 35l13 -6l-16 -35zM157 312l13 6l16 -35l-13 -5zM184 67l17 35l12 -6l-16 -35z M184 253l13 6l16 -34l-12 -6zM212 126l16 34l-16 34l13 6l16 -34l-12 -6l12 -5l-16 -35z" />
<glyph unicode="&#xbc;" horiz-adv-x="569" d="M69 564l16 11l4 -6l-16 -11zM87 289v7h23v-7h-23zM94 6l22 46l12 -6l-21 -46zM95 303v18h7v-18h-7zM95 334v18h7v-18h-7zM95 364v18h7v-18h-7zM95 395v18h7v-18h-7zM95 426v18h7v-18h-7zM95 457v18h7v-18h-7zM95 488v18h7v-18h-7zM95 518v19h7v-19h-7zM95 549v18h7v-18 h-7zM131 84l22 46l12 -6l-22 -46zM168 162l21 45l13 -6l-22 -45zM205 239l21 46l13 -6l-22 -46zM242 317l21 46l13 -6l-22 -46zM279 395l21 45l13 -6l-22 -45zM315 472l22 46l13 -6l-22 -46zM349 167l4 18l7 -1l-4 -18zM352 550l22 46l13 -6l-22 -46zM355 198l3 18l7 -1 l-3 -18zM360 229l3 19l7 -2l-3 -18zM366 146v7h17v-7h-17zM366 260l3 19l7 -1l-3 -19zM395 146v7h18v-7h-18zM425 146v7h17v-7h-17zM454 146v7h17v-7h-17zM472 9v18h7v-18h-7zM472 40v19h7v-19h-7zM472 72v18h7v-18h-7zM472 103v18h7v-18h-7zM472 134v19h7v-19h-7zM472 166 v18h7v-18h-7zM472 197v19h7v-19h-7zM472 228v19h7v-19h-7zM472 260v18h7v-18h-7zM483 146v7h17v-7h-17z" />
<glyph unicode="&#xbd;" horiz-adv-x="554" d="M69 564l16 11l4 -6l-16 -11zM87 289v7h23v-7h-23zM94 6l22 46l12 -6l-21 -46zM95 303v18h7v-18h-7zM95 334v18h7v-18h-7zM95 364v18h7v-18h-7zM95 395v18h7v-18h-7zM95 426v18h7v-18h-7zM95 457v18h7v-18h-7zM95 488v18h7v-18h-7zM95 518v19h7v-19h-7zM95 549v18h7v-18 h-7zM131 84l22 46l12 -6l-22 -46zM168 162l21 45l13 -6l-22 -45zM205 239l21 46l13 -6l-22 -46zM242 317l21 46l13 -6l-22 -46zM279 395l21 45l13 -6l-22 -45zM315 472l22 46l13 -6l-22 -46zM323 30q2 12 4 18l7 -2q-2 -4 -4 -16h-7zM323 242q0 3 2 9.5t2 8.5l7 -3 q-4 -10 -4 -16zM332 60q3 8 9 16l6 -4q-2 -2 -3.5 -4.5t-3 -5.5l-2.5 -5zM333 271q1 2 11 15l5 -4q-1 -2 -5 -6.5t-5 -7.5zM338 14v7h16v-7h-16zM349 86q11 10 13 12l5 -5l-13 -12zM352 550l22 46l13 -6l-22 -46zM354 295q2 3 15 10l3 -7q-1 -1 -6.5 -3.5t-7.5 -4.5zM366 14 v7h16v-7h-16zM372 106l15 10l4 -6l-15 -9zM381 309q3 1 6 1.5t7 1t6 0.5v-7q-16 -3 -17 -3zM394 14v7h17v-7h-17zM398 123l15 9l3 -5l-15 -10zM412 305l1 7q6 -1 18 -5l-3 -6q-10 4 -16 4zM422 14v7h17v-7h-17zM423 139l14 11l4 -6l-14 -11zM439 296l3 6q8 -4 15 -11l-4 -5 q-11 9 -14 10zM446 158l5 4q5 5 7 8l5 -4q-2 -3 -6.5 -7.5t-5.5 -6.5zM450 14v7h17v-7h-17zM461 278l5 4q5 -7 10 -16l-6 -3zM465 180l3.5 7t3.5 8l7 -2q-1 -3 -8 -17zM474 252l7 2q3 -7 3 -18h-7q0 9 -3 16zM476 207q1 3 1.5 8.5t0.5 8.5l7 -1q0 -2 -0.5 -5.5t-1 -6.5 t-1.5 -6z" />
<glyph unicode="&#xbe;" horiz-adv-x="660" d="M69 370l7 1q0 -3 2 -9t2 -7l-6 -3q-5 15 -5 18zM77 547q2 10 6 17l6 -3q-4 -10 -5 -16zM79 341l6 4q3 -7 10 -14l-6 -4q-7 7 -10 14zM90 575q9 11 13 14l4 -6l-12 -12zM98 318l5 6q6 -6 13 -10l-3 -6q-7 3 -15 10zM113 596q12 6 18 7l2 -7q-2 0 -16 -6zM124 303l3 6 q3 -1 8 -2t7 -2l-1 -7q-4 1 -17 5zM143 606q2 0 5.5 0.5t5.5 0.5h4q2 0 4 -1l-1 -7q0 1 -9 1l-8 -1zM154 297v7q6 0 16 2l1 -7q-10 -2 -15 -2h-2zM167 459v9q3 0 8.5 2t8.5 2l2 -6l-7 -2l6 -2l-2 -7q-1 0 -7 2t-9 2zM173 598l1 7q2 -1 6 -2t7 -2t5 -2l-3 -7q-3 2 -9 4t-7 2z M181 309q3 0 5.5 1t5 2.5t4.5 2.5l4 -6q-13 -6 -17 -7zM185 6l21 46l13 -6l-22 -46zM193 451l3 6q10 -5 15 -10l-4 -5q-4 3 -14 9zM195 478q6 3 13 10l5 -5q-10 -8 -15 -11zM199 586l4 6q8 -5 14 -12l-5 -5q-5 6 -13 11zM206 321q10 9 11 12l6 -5q-6 -8 -13 -12zM215 434 l5 5q10 -13 11 -15l-6 -3q-2 5 -10 13zM216 496q8 12 8 15l7 -2q-1 -3 -4.5 -9t-4.5 -8zM219 566l6 4q4 -5 8 -17l-7 -2q-4 10 -7 15zM221 84l22 46l13 -6l-22 -46zM224 342q6 10 7 15l7 -3q-1 -4 -8 -16zM227 522q2 12 1 17l7 1l1 -2v-2v-3q0 -4 -2 -12zM230 411l7 2 q0 -2 2 -8l3 -9l-7 -1q-1 6 -5 16zM235 367q0 3 0.5 8.5t0.5 8.5h7v-2q0 -3 -0.5 -8.5t-0.5 -7.5zM258 162l22 45l13 -6l-22 -45zM295 239l22 46l13 -6l-22 -46zM332 317l22 46l13 -6l-22 -46zM369 395l22 45l13 -6l-22 -45zM406 472l22 46l12 -6l-21 -46zM440 167l3 18 l7 -1l-3 -18zM443 550l22 46l12 -6l-21 -46zM445 198l4 18l7 -1l-4 -18zM451 229l3 19l7 -2l-3 -18zM456 260l3 19l7 -1l-3 -19zM457 146v7h17v-7h-17zM486 146v7h17v-7h-17zM515 146v7h17v-7h-17zM544 146v7h18v-7h-18zM563 9v18h7v-18h-7zM563 40v19h7v-19h-7zM563 72v18 h7v-18h-7zM563 103v18h7v-18h-7zM563 134v19h7v-19h-7zM563 166v18h7v-18h-7zM563 197v19h7v-19h-7zM563 228v19h7v-19h-7zM563 260v18h7v-18h-7zM574 146v7h17v-7h-17z" />
<glyph unicode="&#xbf;" horiz-adv-x="471" d="M71 -11q2 28 13 49l12 -6q-10 -22 -11 -44zM72 -47l14 1q4 -28 13 -43l-13 -7q-10 17 -14 49zM103 69q10 13 36 35l9 -11q-18 -14 -34 -33zM107 -125l11 9q19 -19 37 -28l-7 -12q-21 11 -41 31zM166 125q26 20 37 31l10 -10q-20 -19 -39 -32zM181 -170l4 14q25 -7 43 -7 h4l-1 -14h-3q-21 0 -47 7zM226 180q16 23 22 41l13 -4q-7 -23 -24 -45zM239 414h7q0 -6 5 -13l-5 -4q-7 7 -7 17zM242 427q4 8 15 12l2 -7q-6 -2 -11 -8zM255 253q1 8 1 49h14v-19q0 -21 -1 -31zM257 390l2 6q7 -2 14 1l3 -7q-8 -2 -10 -2h-3q-2 0 -6 2zM265 -161 q26 5 45 14l6 -13q-26 -11 -49 -14zM269 433l1 7q9 -2 16 -10l-6 -5q-3 6 -11 8zM280 403q4 6 4 10v3l7 1v-3q0 -8 -5 -15zM337 -130q19 16 29 36l13 -7q-15 -25 -33 -39zM379 -64q7 21 7 46l14 1q0 -21 -7 -51z" />
<glyph unicode="&#xc0;" horiz-adv-x="550" d="M66 9l15 47l14 -5l-16 -46zM92 88l15 47l13 -5l-15 -46zM118 167l15 46l13 -4l-15 -46zM144 246l15 46l13 -4l-11 -34h49v-14h-51v8l-2 -6zM169 325l16 46l13 -4l-15 -47zM169 757l10 10l21 -22l-10 -9zM195 404l16 46l13 -4l-15 -47zM205 721l10 10l21 -21l-10 -10z M221 482l15 47l14 -4l-15 -47zM241 685l10 10l21 -21l-10 -10zM245 240v14h50v-14h-50zM247 561l15 47h15l15 -47l-13 -4l-9 28l-10 -28zM289 525l14 4l15 -46l-13 -5zM315 446l13 4l16 -46l-14 -5zM331 240v14h47l-11 34l13 4l15 -46l-13 -4l-1 3v-5h-50zM341 367l13 4 l16 -46l-14 -5zM393 209l13 4l15 -46l-13 -4zM419 130l13 5l15 -47l-13 -4zM444 51l14 5l15 -47l-13 -4z" />
<glyph unicode="&#xc1;" horiz-adv-x="539" d="M66 9l15 47l14 -5l-16 -46zM92 88l15 47l13 -5l-15 -46zM118 167l15 46l13 -4l-15 -46zM144 246l15 46l13 -4l-11 -34h49v-14h-51v8l-2 -6zM169 325l16 46l13 -4l-15 -47zM195 404l16 46l13 -4l-15 -47zM221 482l15 47l14 -4l-15 -47zM245 240v14h50v-14h-50zM247 561 l15 47h15l15 -47l-13 -4l-9 28l-10 -28zM271 656l21 21l10 -10l-21 -21zM289 525l14 4l15 -46l-13 -5zM307 692l21 21l10 -10l-21 -21zM315 446l13 4l16 -46l-14 -5zM331 240v14h47l-11 34l13 4l15 -46l-13 -4l-1 3v-5h-50zM341 367l13 4l16 -46l-14 -5zM343 728l21 21 l10 -10l-21 -21zM393 209l13 4l15 -46l-13 -4zM419 130l13 5l15 -47l-13 -4zM444 51l14 5l15 -47l-13 -4z" />
<glyph unicode="&#xc2;" horiz-adv-x="550" d="M66 9l15 47l14 -5l-16 -46zM92 88l15 47l13 -5l-15 -46zM118 167l15 46l13 -4l-15 -46zM144 246l15 46l13 -4l-11 -34h49v-14h-51v8l-2 -6zM169 325l16 46l13 -4l-15 -47zM195 404l16 46l13 -4l-15 -47zM209 747l12 7l13 -20l-12 -8zM221 482l15 47l14 -4l-15 -47z M232 712l11 8l14 -20l-12 -8zM245 240v14h50v-14h-50zM247 561l15 47h15l15 -47l-13 -4l-9 28l-10 -28zM254 678l12 8l8 -13l8 13l12 -8l-13 -20l-7 4l-6 -4zM289 525l14 4l15 -46l-13 -5zM292 700l13 20l12 -8l-14 -20zM314 734l14 20l12 -7l-14 -21zM315 446l13 4l16 -46 l-14 -5zM331 240v14h47l-11 34l13 4l15 -46l-13 -4l-1 3v-5h-50zM341 367l13 4l16 -46l-14 -5zM393 209l13 4l15 -46l-13 -4zM419 130l13 5l15 -47l-13 -4zM444 51l14 5l15 -47l-13 -4z" />
<glyph unicode="&#xc3;" horiz-adv-x="550" d="M66 9l15 47l14 -5l-16 -46zM92 88l15 47l13 -5l-15 -46zM118 167l15 46l13 -4l-15 -46zM144 246l15 46l13 -4l-11 -34h49v-14h-51v8l-2 -6zM169 325l16 46l13 -4l-15 -47zM179 665q2 32 10 51l13 -6q-7 -17 -9 -45h-14zM195 404l16 46l13 -4l-15 -47zM218 742h6 q24 0 41 -26l-12 -8q-13 21 -29 20h-4zM221 482l15 47l14 -4l-15 -47zM245 240v14h50v-14h-50zM247 561l15 47h15l15 -47l-13 -4l-9 28l-10 -28zM273 680l11 8q12 -18 28 -18q4 0 5 1l3 -14q-1 0 -3.5 -0.5t-4.5 -0.5q-24 0 -39 24zM289 525l14 4l15 -46l-13 -5zM315 446 l13 4l16 -46l-14 -5zM331 240v14h47l-11 34l13 4l15 -46l-13 -4l-1 3v-5h-50zM334 690q7 16 7 45h14q0 -29 -8 -50zM341 367l13 4l16 -46l-14 -5zM393 209l13 4l15 -46l-13 -4zM419 130l13 5l15 -47l-13 -4zM444 51l14 5l15 -47l-13 -4z" />
<glyph unicode="&#xc4;" horiz-adv-x="550" d="M66 9l15 47l14 -5l-16 -46zM92 88l15 47l13 -5l-15 -46zM118 167l15 46l13 -4l-15 -46zM144 246l15 46l13 -4l-11 -34h49v-14h-51v8l-2 -6zM169 325l16 46l13 -4l-15 -47zM189 677v4l7 -1q0 -8 4 -13l-6 -4q-5 7 -5 14zM194 694q5 8 16 10l1 -7q-8 -2 -11 -8zM195 404 l16 46l13 -4l-15 -47zM204 654l3 7q4 -2 7 -2h2q1 0 2.5 0.5t2.5 0.5l2 -6q-4 -2 -7 -2h-2q-4 0 -10 2zM221 482l15 47l14 -4l-15 -47zM221 696l2 7q10 -3 14 -12l-6 -3q-3 6 -10 8zM229 665q5 7 5 13h7q0 -10 -7 -17zM245 240v14h50v-14h-50zM247 561l15 47h15l15 -47 l-13 -4l-9 28l-10 -28zM282 677v2l1 2l7 -1q-2 -7 3 -13l-6 -4q-3 4 -5 14zM287 694q7 8 16 10l2 -7q-7 -1 -12 -8zM289 525l14 4l15 -46l-13 -5zM298 654l2 7q6 -2 8 -2h2l2 1h2l2 -6q-4 -2 -6 -2h-2q-4 0 -10 2zM314 696l2 7q11 -4 15 -12l-6 -3q-3 6 -11 8zM315 446l13 4 l16 -46l-14 -5zM322 665q4 4 6 13h7q-2 -10 -7 -17zM331 240v14h47l-11 34l13 4l15 -46l-13 -4l-1 3v-5h-50zM341 367l13 4l16 -46l-14 -5zM393 209l13 4l15 -46l-13 -4zM419 130l13 5l15 -47l-13 -4zM444 51l14 5l15 -47l-13 -4z" />
<glyph unicode="&#xc5;" horiz-adv-x="550" d="M66 9l15 47l14 -5l-16 -46zM92 88l15 47l13 -5l-15 -46zM118 167l15 46l13 -4l-15 -46zM144 246l15 46l13 -4l-11 -34h49v-14h-51v8l-2 -6zM169 325l16 46l13 -4l-15 -47zM179 686h14q0 -24 14 -44l-12 -8q-14 23 -16 52zM187 723q9 22 36 40l7 -12q-21 -13 -30 -34z M195 404l16 46l13 -4l-15 -47zM221 482l15 47l14 -4l-15 -47zM223 609l7 12q16 -10 37 -10h8v-3h2l15 -47l-13 -4l-9 28l-10 -28l-13 4l11 36q-20 2 -35 12zM245 240v14h50v-14h-50zM260 774q3 1 9 1q23 0 43 -12l-7 -12q-16 10 -36 10q-5 0 -8 -1zM289 525l14 4l15 -46 l-13 -5zM305 621q23 14 31 33l12 -5q-11 -26 -36 -40zM315 446l13 4l16 -46l-14 -5zM329 729l11 8q15 -21 17 -51h-14q-2 25 -14 43zM331 240v14h47l-11 34l13 4l15 -46l-13 -4l-1 3v-5h-50zM341 367l13 4l16 -46l-14 -5zM393 209l13 4l15 -46l-13 -4zM419 130l13 5l15 -47 l-13 -4zM444 51l14 5l15 -47l-13 -4z" />
<glyph unicode="&#xc6;" horiz-adv-x="815" d="M69 11l27 40l11 -7l-26 -41zM114 80l27 40l12 -7l-27 -41zM160 149l27 40l11 -8l-26 -40zM205 218l27 40l7 -5v1h51v-14h-51v3l-22 -33zM251 286l27 41l11 -8l-26 -40zM296 355l27 41l12 -8l-27 -40zM325 240v14h50v-14h-50zM342 424l27 41l11 -8l-26 -41zM387 493l27 41 l12 -8l-27 -41zM411 240v14h50v-14h-50zM433 562l27 40l2 -1v2h47v-14h-26v-38h-14v38h-1l-23 -35zM469 4v52h14v-38h32v-14h-46zM469 88v45h14v-45h-14zM469 165v46h14v-46h-14zM469 242v46h14v-46h-14zM469 319v46h14v-46h-14zM469 397v45h14v-45h-14zM469 474v45h14v-45 h-14zM484 319v14h40v-14h-40zM541 589v14h47v-14h-47zM546 4v14h46v-14h-46zM551 319v14h40v-14h-40zM618 319v14h40v-14h-40zM620 589v14h47v-14h-47zM624 4v14h45v-14h-45zM700 589v14h46v-14h-46zM701 4v14h45v-14h-45z" />
<glyph unicode="&#xc7;" horiz-adv-x="509" d="M66 302v6q0 4 0.5 11.5t0.5 10.5h14q0 -4 -0.5 -11t-0.5 -10v-7q0 -4 0.5 -11t0.5 -10l-14 -1q0 4 -0.5 11.5t-0.5 10.5zM70 245l13 2l10 -48l-14 -3zM70 366l9 49l14 -3l-10 -48zM89 162l13 4q16 -39 19 -44l-13 -7q-5 9 -19 47zM89 449q14 37 19 46l13 -6 q-5 -8 -19 -45zM125 84l12 8q2 -3 13 -17t17 -20l-10 -10q-7 6 -18.5 21t-13.5 18zM125 527q3 3 14 17.5t18 21.5l10 -10q-6 -6 -17 -20t-13 -17zM185 21l8 12q38 -19 42 -20l-3 -14q-13 4 -47 22zM185 589q27 16 47 22l3 -13q-6 -2 -42 -20zM249 -74l3 17l13 -3q17 9 32 14 l4 -14q-18 -5 -41 -20q-3 6 -11 6zM254 -46l2 16l14 -2l-3 -16zM258 -19l3 17l7 -1v12q31 2 45 11l5 -13q-10 -6 -20.5 -8.5t-22.5 -3.5l-3 -16zM262 -145q17 2 39 20l9 -11q-24 -19 -46 -23zM268 602v14q37 -4 50 -12l-5 -13q-11 7 -45 11zM321 -101q7 12 7 23q0 9 -4 14 l11 9q7 -10 7 -23q0 -14 -9 -30zM342 36q1 1 15 13t19 20l11 -9q-4 -7 -10.5 -13t-14.5 -12.5t-12 -10.5zM342 575l8 11q4 -3 12.5 -10t14.5 -12.5t10 -12.5l-11 -9q-4 6 -9.5 11.5t-13 11.5t-11.5 10zM396 95l23 43l13 -5l-24 -45zM396 515l12 8l24 -45l-13 -6z" />
<glyph unicode="&#xc8;" horiz-adv-x="431" d="M71 4v53h14v-39h37v-14h-51zM71 88v46h14v-46h-14zM71 166v45h14v-45h-14zM71 243v45h14v-45h-14zM71 320v45h14v-45h-14zM71 397v45h14v-45h-14zM71 474v46h14v-46h-14zM71 551v53h51v-14h-37v-39h-14zM86 320v14h39v-14h-39zM149 747l10 10l21 -22l-10 -9zM153 4v14h44 v-14h-44zM153 320v14h39v-14h-39zM153 590v14h44v-14h-44zM185 711l10 10l21 -21l-10 -10zM220 320v14h39v-14h-39zM221 675l10 10l21 -21l-10 -10zM228 4v14h45v-14h-45zM228 590v14h45v-14h-45zM304 4v14h44v-14h-44zM304 590v14h44v-14h-44z" />
<glyph unicode="&#xc9;" horiz-adv-x="414" d="M71 4v53h14v-39h37v-14h-51zM71 88v46h14v-46h-14zM71 166v45h14v-45h-14zM71 243v45h14v-45h-14zM71 320v45h14v-45h-14zM71 397v45h14v-45h-14zM71 474v46h14v-46h-14zM71 551v53h51v-14h-37v-39h-14zM86 320v14h39v-14h-39zM153 4v14h44v-14h-44zM153 320v14h39v-14 h-39zM153 590v14h44v-14h-44zM171 656l21 21l10 -10l-21 -21zM207 692l21 21l10 -10l-21 -21zM220 320v14h39v-14h-39zM228 4v14h45v-14h-45zM228 590v14h45v-14h-45zM243 728l21 21l10 -10l-21 -21zM304 4v14h44v-14h-44zM304 590v14h44v-14h-44z" />
<glyph unicode="&#xca;" horiz-adv-x="431" d="M71 4v53h14v-39h37v-14h-51zM71 88v46h14v-46h-14zM71 166v45h14v-45h-14zM71 243v45h14v-45h-14zM71 320v45h14v-45h-14zM71 397v45h14v-45h-14zM71 474v46h14v-46h-14zM71 551v53h51v-14h-37v-39h-14zM86 320v14h39v-14h-39zM139 747l12 7l13 -20l-12 -8zM153 4v14h44 v-14h-44zM153 320v14h39v-14h-39zM153 590v14h44v-14h-44zM162 712l11 8l14 -20l-12 -8zM184 678l12 8l8 -13l8 13l12 -8l-13 -20l-7 4l-6 -4zM220 320v14h39v-14h-39zM222 700l13 20l12 -8l-14 -20zM228 4v14h45v-14h-45zM228 590v14h45v-14h-45zM244 734l14 20l12 -7 l-14 -21zM304 4v14h44v-14h-44zM304 590v14h44v-14h-44z" />
<glyph unicode="&#xcb;" horiz-adv-x="431" d="M71 4v53h14v-39h37v-14h-51zM71 88v46h14v-46h-14zM71 166v45h14v-45h-14zM71 243v45h14v-45h-14zM71 320v45h14v-45h-14zM71 397v45h14v-45h-14zM71 474v46h14v-46h-14zM71 551v53h51v-14h-37v-39h-14zM86 320v14h39v-14h-39zM149 687v4l7 -1q0 -8 4 -13l-6 -4 q-5 7 -5 14zM153 4v14h44v-14h-44zM153 320v14h39v-14h-39zM153 590v14h44v-14h-44zM154 704q5 8 16 10l1 -7q-8 -2 -11 -8zM164 664l3 7q4 -2 7 -2h2q1 0 2.5 0.5t2.5 0.5l2 -6q-4 -2 -7 -2h-2q-4 0 -10 2zM181 706l2 7q10 -3 14 -12l-6 -3q-3 6 -10 8zM189 675q5 7 5 13h7 q0 -10 -7 -17zM220 320v14h39v-14h-39zM228 4v14h45v-14h-45zM228 590v14h45v-14h-45zM242 687v2l1 2l7 -1q-2 -7 3 -13l-6 -4q-3 4 -5 14zM247 704q7 8 16 10l2 -7q-7 -1 -12 -8zM258 664l2 7q6 -2 8 -2h2l2 1h2l2 -6q-4 -2 -6 -2h-2q-4 0 -10 2zM274 706l2 7q11 -4 15 -12 l-6 -3q-3 6 -11 8zM282 675q4 4 6 13h7q-2 -10 -7 -17zM304 4v14h44v-14h-44zM304 590v14h44v-14h-44z" />
<glyph unicode="&#xcc;" horiz-adv-x="266" d="M66 10v14h25v-14h-25zM66 583v14h25v-14h-25zM69 747l10 10l21 -22l-10 -9zM105 711l10 10l21 -21l-10 -10zM108 10v14h6v40h14v-40h5v-14h-25zM108 583v14h25v-14h-5v-42h-14v42h-6zM114 100v52h14v-52h-14zM114 189v51h14v-51h-14zM114 277v51h14v-51h-14zM114 365v51 h14v-51h-14zM114 453v52h14v-52h-14zM141 675l10 10l21 -21l-10 -10zM151 10v14h25v-14h-25zM151 583v14h25v-14h-25z" />
<glyph unicode="&#xcd;" horiz-adv-x="266" d="M66 10v14h25v-14h-25zM66 583v14h25v-14h-25zM71 656l21 21l10 -10l-21 -21zM107 692l21 21l10 -10l-21 -21zM108 10v14h6v40h14v-40h5v-14h-25zM108 583v14h25v-14h-5v-42h-14v42h-6zM114 100v52h14v-52h-14zM114 189v51h14v-51h-14zM114 277v51h14v-51h-14zM114 365v51 h14v-51h-14zM114 453v52h14v-52h-14zM143 728l21 21l10 -10l-21 -21zM151 10v14h25v-14h-25zM151 583v14h25v-14h-25z" />
<glyph unicode="&#xce;" horiz-adv-x="266" d="M59 737l12 7l13 -20l-12 -8zM66 10v14h25v-14h-25zM66 583v14h25v-14h-25zM82 702l11 8l14 -20l-12 -8zM104 668l12 8l8 -13l8 13l12 -8l-13 -20l-7 4l-6 -4zM108 10v14h6v40h14v-40h5v-14h-25zM108 583v14h25v-14h-5v-42h-14v42h-6zM114 100v52h14v-52h-14zM114 189v51 h14v-51h-14zM114 277v51h14v-51h-14zM114 365v51h14v-51h-14zM114 453v52h14v-52h-14zM142 690l13 20l12 -8l-14 -20zM151 10v14h25v-14h-25zM151 583v14h25v-14h-25zM164 724l14 20l12 -7l-14 -21z" />
<glyph unicode="&#xcf;" horiz-adv-x="266" d="M59 677v4l7 -1q0 -8 4 -13l-6 -4q-5 7 -5 14zM64 694q5 8 16 10l1 -7q-8 -2 -11 -8zM66 10v14h25v-14h-25zM66 583v14h25v-14h-25zM74 654l3 7q4 -2 7 -2h2q1 0 2.5 0.5t2.5 0.5l2 -6q-4 -2 -7 -2h-2q-4 0 -10 2zM91 696l2 7q10 -3 14 -12l-6 -3q-3 6 -10 8zM99 665 q5 7 5 13h7q0 -10 -7 -17zM108 10v14h6v40h14v-40h5v-14h-25zM108 583v14h25v-14h-5v-42h-14v42h-6zM114 100v52h14v-52h-14zM114 189v51h14v-51h-14zM114 277v51h14v-51h-14zM114 365v51h14v-51h-14zM114 453v52h14v-52h-14zM151 10v14h25v-14h-25zM151 583v14h25v-14h-25z M152 677v2l1 2l7 -1q-2 -7 3 -13l-6 -4q-3 4 -5 14zM157 694q7 8 16 10l2 -7q-7 -1 -12 -8zM168 654l2 7q6 -2 8 -2h2l2 1h2l2 -6q-4 -2 -6 -2h-2q-4 0 -10 2zM184 696l2 7q11 -4 15 -12l-6 -3q-3 6 -11 8zM192 665q4 4 6 13h7q-2 -10 -7 -17z" />
<glyph unicode="&#xd0;" horiz-adv-x="517" d="M69 319v14h39v-14h-39zM109 7v46h14v-37h37v-14h-50v5h-1zM109 85v45h14v-45h-14zM109 162v46h14v-46h-14zM109 240v45h14v-45h-14zM109 317v45h14v-45h-14zM109 394v46h14v-46h-14zM109 472v45h14v-45h-14zM109 549v46h1v8h50v-14h-37v-40h-14zM135 319v14h40v-14h-40z M194 2v14h49v-14h-49zM194 589v14h49v-14h-49zM202 319v14h39v-14h-39zM277 18q13 1 43 16l7 -12q-32 -17 -48 -17zM277 586l2 14q20 -1 48 -18l-7 -12q-26 15 -43 16zM346 54q3 2 31 36l11 -7q-23 -32 -32 -39zM346 550l10 11q6 -5 32 -39l-11 -8l-9 12t-11 14t-11 10z M393 120q13 22 19 44l13 -5q-5 -20 -19 -46zM393 485l13 6q13 -23 19 -46l-13 -5q-5 21 -19 45zM422 196l9 48l14 -2l-10 -49zM422 408l13 3l10 -49l-14 -2zM433 278q3 24 0 48l14 1q1 -7 1 -20v-8q0 -15 -1 -22z" />
<glyph unicode="&#xd1;" horiz-adv-x="458" d="M71 8v45h14v-45h-14zM71 85v46h14v-46h-14zM71 163v46h14v-46h-14zM71 241v46h14v-46h-14zM71 319v45h14v-45h-14zM71 396v46h14v-46h-14zM71 474v46h14v-46h-14zM71 552v48h14v-1l22 -44l-13 -6l-9 21v-18h-14zM110 517l13 6l22 -45l-12 -6zM139 655q2 32 10 51l13 -6 q-7 -17 -9 -45h-14zM149 440l12 6l23 -46l-13 -6zM178 732h6q24 0 41 -26l-12 -8q-13 21 -29 20h-4zM187 362l13 7l22 -46l-12 -6zM226 285l12 6l23 -45l-13 -7zM233 670l11 8q12 -18 28 -18q4 0 5 1l3 -14q-1 0 -3.5 -0.5t-4.5 -0.5q-24 0 -39 24zM264 208l13 6l22 -46 l-12 -6zM294 680q7 16 7 45h14q0 -29 -8 -50zM303 130l12 6l23 -45l-13 -6zM341 53l13 6l9 -21v18h14v-48h-14v1zM363 88v46h14v-46h-14zM363 166v46h14v-46h-14zM363 244v45h14v-45h-14zM363 321v46h14v-46h-14zM363 399v46h14v-46h-14zM363 477v46h14v-46h-14zM363 555v45 h14v-45h-14z" />
<glyph unicode="&#xd2;" horiz-adv-x="542" d="M66 297v11q0 6 1 19t1 20l14 -2q0 -6 -1 -20t-1 -21v-7h-14zM68 263l14 1q1 -16 7 -48l-14 -2q-6 32 -7 49zM72 381q1 6 4.5 23t6.5 26l13 -4q-2 -8 -5 -23.5t-5 -23.5zM83 180l13 4l16 -46l-13 -5zM94 463q2 7 5.5 14.5t8.5 16.5t7 14l12 -7l-20 -43zM115 102l12 7 q6 -12 27 -40l-11 -9q-25 35 -28 42zM134 537q22 28 34 37l9 -10q-8 -6 -32 -35zM168 35l9 11q17 -17 39 -26l-6 -12q-24 9 -42 27zM179 757l10 10l21 -22l-10 -9zM196 595q30 16 48 18l2 -13q-15 -3 -43 -17zM215 721l10 10l21 -21l-10 -10zM244 -4l2 14q14 -2 21 -2 q13 0 25 3l3 -13q-12 -4 -28 -4q-9 0 -23 2zM251 685l10 10l21 -21l-10 -10zM278 600l2 14q24 -1 48 -16l-6 -12q-26 13 -44 14zM322 23q11 4 38 27l9 -10q-29 -24 -41 -29zM349 568l9 11q21 -16 35 -36l-12 -9q-10 18 -32 34zM381 75q15 16 26 40l12 -7q-10 -21 -26 -42z M400 507l12 7q20 -37 22 -44l-13 -6q-1 3 -21 43zM421 145l16 45l13 -3l-16 -47zM432 433l14 4q3 -9 6.5 -27t4.5 -22l-14 -2q-8 41 -11 47zM443 223q6 24 6 48l14 -1q-2 -33 -6 -49zM448 353l14 1l3 -49h-14z" />
<glyph unicode="&#xd3;" horiz-adv-x="531" d="M66 297v11q0 6 1 19t1 20l14 -2q0 -6 -1 -20t-1 -21v-7h-14zM68 263l14 1q1 -16 7 -48l-14 -2q-6 32 -7 49zM72 381q1 6 4.5 23t6.5 26l13 -4q-2 -8 -5 -23.5t-5 -23.5zM83 180l13 4l16 -46l-13 -5zM94 463q2 7 5.5 14.5t8.5 16.5t7 14l12 -7l-20 -43zM115 102l12 7 q6 -12 27 -40l-11 -9q-25 35 -28 42zM134 537q22 28 34 37l9 -10q-8 -6 -32 -35zM168 35l9 11q17 -17 39 -26l-6 -12q-24 9 -42 27zM196 595q30 16 48 18l2 -13q-15 -3 -43 -17zM244 -4l2 14q14 -2 21 -2q13 0 25 3l3 -13q-12 -4 -28 -4q-9 0 -23 2zM261 656l21 21l10 -10 l-21 -21zM278 600l2 14q24 -1 48 -16l-6 -12q-26 13 -44 14zM297 692l21 21l10 -10l-21 -21zM322 23q11 4 38 27l9 -10q-29 -24 -41 -29zM333 728l21 21l10 -10l-21 -21zM349 568l9 11q21 -16 35 -36l-12 -9q-10 18 -32 34zM381 75q15 16 26 40l12 -7q-10 -21 -26 -42z M400 507l12 7q20 -37 22 -44l-13 -6q-1 3 -21 43zM421 145l16 45l13 -3l-16 -47zM432 433l14 4q3 -9 6.5 -27t4.5 -22l-14 -2q-8 41 -11 47zM443 223q6 24 6 48l14 -1q-2 -33 -6 -49zM448 353l14 1l3 -49h-14z" />
<glyph unicode="&#xd4;" horiz-adv-x="542" d="M66 297v11q0 6 1 19t1 20l14 -2q0 -6 -1 -20t-1 -21v-7h-14zM68 263l14 1q1 -16 7 -48l-14 -2q-6 32 -7 49zM72 381q1 6 4.5 23t6.5 26l13 -4q-2 -8 -5 -23.5t-5 -23.5zM83 180l13 4l16 -46l-13 -5zM94 463q2 7 5.5 14.5t8.5 16.5t7 14l12 -7l-20 -43zM115 102l12 7 q6 -12 27 -40l-11 -9q-25 35 -28 42zM134 537q22 28 34 37l9 -10q-8 -6 -32 -35zM168 35l9 11q17 -17 39 -26l-6 -12q-24 9 -42 27zM196 595q30 16 48 18l2 -13q-15 -3 -43 -17zM199 737l12 7l13 -20l-12 -8zM222 702l11 8l14 -20l-12 -8zM244 -4l2 14q14 -2 21 -2 q13 0 25 3l3 -13q-12 -4 -28 -4q-9 0 -23 2zM244 668l12 8l8 -13l8 13l12 -8l-13 -20l-7 4l-6 -4zM278 600l2 14q24 -1 48 -16l-6 -12q-26 13 -44 14zM282 690l13 20l12 -8l-14 -20zM304 724l14 20l12 -7l-14 -21zM322 23q11 4 38 27l9 -10q-29 -24 -41 -29zM349 568l9 11 q21 -16 35 -36l-12 -9q-10 18 -32 34zM381 75q15 16 26 40l12 -7q-10 -21 -26 -42zM400 507l12 7q20 -37 22 -44l-13 -6q-1 3 -21 43zM421 145l16 45l13 -3l-16 -47zM432 433l14 4q3 -9 6.5 -27t4.5 -22l-14 -2q-8 41 -11 47zM443 223q6 24 6 48l14 -1q-2 -33 -6 -49z M448 353l14 1l3 -49h-14z" />
<glyph unicode="&#xd5;" horiz-adv-x="542" d="M66 297v11q0 6 1 19t1 20l14 -2q0 -6 -1 -20t-1 -21v-7h-14zM68 263l14 1q1 -16 7 -48l-14 -2q-6 32 -7 49zM72 381q1 6 4.5 23t6.5 26l13 -4q-2 -8 -5 -23.5t-5 -23.5zM83 180l13 4l16 -46l-13 -5zM94 463q2 7 5.5 14.5t8.5 16.5t7 14l12 -7l-20 -43zM115 102l12 7 q6 -12 27 -40l-11 -9q-25 35 -28 42zM134 537q22 28 34 37l9 -10q-8 -6 -32 -35zM168 35l9 11q17 -17 39 -26l-6 -12q-24 9 -42 27zM169 665q2 32 10 51l13 -6q-7 -17 -9 -45h-14zM196 595q30 16 48 18l2 -13q-15 -3 -43 -17zM208 742h6q24 0 41 -26l-12 -8q-13 21 -29 20 h-4zM244 -4l2 14q14 -2 21 -2q13 0 25 3l3 -13q-12 -4 -28 -4q-9 0 -23 2zM263 680l11 8q12 -18 28 -18q4 0 5 1l3 -14q-1 0 -3.5 -0.5t-4.5 -0.5q-24 0 -39 24zM278 600l2 14q24 -1 48 -16l-6 -12q-26 13 -44 14zM322 23q11 4 38 27l9 -10q-29 -24 -41 -29zM324 690 q7 16 7 45h14q0 -29 -8 -50zM349 568l9 11q21 -16 35 -36l-12 -9q-10 18 -32 34zM381 75q15 16 26 40l12 -7q-10 -21 -26 -42zM400 507l12 7q20 -37 22 -44l-13 -6q-1 3 -21 43zM421 145l16 45l13 -3l-16 -47zM432 433l14 4q3 -9 6.5 -27t4.5 -22l-14 -2q-8 41 -11 47z M443 223q6 24 6 48l14 -1q-2 -33 -6 -49zM448 353l14 1l3 -49h-14z" />
<glyph unicode="&#xd6;" horiz-adv-x="542" d="M66 297v11q0 6 1 19t1 20l14 -2q0 -6 -1 -20t-1 -21v-7h-14zM68 263l14 1q1 -16 7 -48l-14 -2q-6 32 -7 49zM72 381q1 6 4.5 23t6.5 26l13 -4q-2 -8 -5 -23.5t-5 -23.5zM83 180l13 4l16 -46l-13 -5zM94 463q2 7 5.5 14.5t8.5 16.5t7 14l12 -7l-20 -43zM115 102l12 7 q6 -12 27 -40l-11 -9q-25 35 -28 42zM134 537q22 28 34 37l9 -10q-8 -6 -32 -35zM168 35l9 11q17 -17 39 -26l-6 -12q-24 9 -42 27zM189 677v4l7 -1q0 -8 4 -13l-6 -4q-5 7 -5 14zM194 694q5 8 16 10l1 -7q-8 -2 -11 -8zM196 595q30 16 48 18l2 -13q-15 -3 -43 -17zM204 654 l3 7q4 -2 7 -2h2q1 0 2.5 0.5t2.5 0.5l2 -6q-4 -2 -7 -2h-2q-4 0 -10 2zM221 696l2 7q10 -3 14 -12l-6 -3q-3 6 -10 8zM229 665q5 7 5 13h7q0 -10 -7 -17zM244 -4l2 14q14 -2 21 -2q13 0 25 3l3 -13q-12 -4 -28 -4q-9 0 -23 2zM278 600l2 14q24 -1 48 -16l-6 -12 q-26 13 -44 14zM282 677v2l1 2l7 -1q-2 -7 3 -13l-6 -4q-3 4 -5 14zM287 694q7 8 16 10l2 -7q-7 -1 -12 -8zM298 654l2 7q6 -2 8 -2h2l2 1h2l2 -6q-4 -2 -6 -2h-2q-4 0 -10 2zM314 696l2 7q11 -4 15 -12l-6 -3q-3 6 -11 8zM322 23q11 4 38 27l9 -10q-29 -24 -41 -29z M322 665q4 4 6 13h7q-2 -10 -7 -17zM349 568l9 11q21 -16 35 -36l-12 -9q-10 18 -32 34zM381 75q15 16 26 40l12 -7q-10 -21 -26 -42zM400 507l12 7q20 -37 22 -44l-13 -6q-1 3 -21 43zM421 145l16 45l13 -3l-16 -47zM432 433l14 4q3 -9 6.5 -27t4.5 -22l-14 -2 q-8 41 -11 47zM443 223q6 24 6 48l14 -1q-2 -33 -6 -49zM448 353l14 1l3 -49h-14z" />
<glyph unicode="&#xd7;" horiz-adv-x="418" d="M105 231l33 32l9 -10l-32 -32zM105 419l10 10l32 -33l-9 -9zM160 286l33 32l10 -9l-33 -33zM160 364l10 10l33 -33l-10 -10zM216 309l9 9l33 -32l-10 -10zM216 341l32 33l10 -10l-33 -33zM271 253l10 10l32 -32l-10 -10zM271 396l32 33l10 -10l-32 -32z" />
<glyph unicode="&#xd8;" horiz-adv-x="537" d="M69 297v10q0 7 1 20t1 19l14 -1q0 -7 -1 -21t-1 -20v-7h-14zM71 262l14 1q1 -17 7 -47l-14 -3q-6 32 -7 49zM75 380q1 4 4.5 22t6.5 27l13 -4q-2 -8 -5 -23.5t-5 -23.5zM86 179l13 4l16 -46l-13 -5zM97 462q2 7 5.5 14.5t8.5 16.5t7 14l12 -7q-18 -37 -20 -43zM112 16 l23 45l13 -6l-23 -46zM118 101l12 7q7 -15 27 -39l-11 -9q-23 29 -28 41zM137 536q19 26 34 37l9 -10q-7 -5 -32 -35zM152 93l23 45l12 -6l-23 -45zM171 34l9 11q18 -18 39 -25l-6 -13q-24 9 -42 27zM191 170l24 46l12 -7l-23 -45zM199 594q30 16 48 19l2 -14 q-12 -2 -43 -17zM231 248l23 45l13 -6l-24 -46zM247 -5l2 14q7 -1 20 -1q18 0 26 3l3 -14q-14 -3 -29 -3t-22 1zM270 325l24 45l12 -6l-23 -45zM281 600l2 13q22 -1 48 -15l-6 -13q-24 14 -44 15zM310 402l23 46l13 -7l-24 -45zM325 23q9 3 38 27l9 -11q-35 -27 -41 -29z M350 480l23 45l12 -6l-23 -46zM352 567l9 11q21 -17 34 -36l-11 -8q-10 17 -32 33zM384 74q13 14 26 40l12 -6q-10 -23 -26 -42zM389 557l23 45l13 -6l-23 -45zM403 506l12 7q18 -32 22 -44l-13 -5zM424 144l16 46l13 -4l-16 -47zM435 432l14 4q4 -9 7 -26.5t4 -21.5l-14 -3 q-7 39 -11 47zM446 223q6 23 6 47l14 -1q-2 -33 -6 -49zM451 352l14 1l3 -49h-14z" />
<glyph unicode="&#xd9;" horiz-adv-x="505" d="M71 154v47h14v-46zM71 234v47h14v-47h-14zM71 314v47h14v-47h-14zM71 394v47h14v-47h-14zM71 474v47h14v-47h-14zM71 554v47h14v-47h-14zM75 120l14 3q13 -38 16 -41l-12 -7q-5 7 -18 45zM113 47l10 10q6 -7 35 -27l-6 -13q-32 20 -39 30zM179 737l10 10l21 -22l-10 -9z M184 5l4 13q33 -7 44 -7l-1 -14q-17 0 -47 8zM215 701l10 10l21 -21l-10 -10zM251 665l10 10l21 -21l-10 -10zM264 11q10 0 45 7l4 -14q-37 -7 -48 -7zM338 29q26 16 35 27l11 -9q-6 -7 -39 -30zM392 81q4 6 6.5 13t4.5 15.5t4 13.5l14 -3q-1 -2 -6 -19.5t-11 -25.5z M410 155v14.5v17v14.5h14v-47zM410 234v47h14v-47h-14zM410 314v47h14v-47h-14zM410 394v47h14v-47h-14zM410 474v47h14v-47h-14zM410 554v47h14v-47h-14z" />
<glyph unicode="&#xda;" horiz-adv-x="495" d="M71 154v47h14v-46zM71 234v47h14v-47h-14zM71 314v47h14v-47h-14zM71 394v47h14v-47h-14zM71 474v47h14v-47h-14zM71 554v47h14v-47h-14zM75 120l14 3q13 -38 16 -41l-12 -7q-5 7 -18 45zM113 47l10 10q6 -7 35 -27l-6 -13q-32 20 -39 30zM184 5l4 13q33 -7 44 -7l-1 -14 q-17 0 -47 8zM211 656l21 21l10 -10l-21 -21zM247 692l21 21l10 -10l-21 -21zM264 11q10 0 45 7l4 -14q-37 -7 -48 -7zM283 728l21 21l10 -10l-21 -21zM338 29q26 16 35 27l11 -9q-6 -7 -39 -30zM392 81q4 6 6.5 13t4.5 15.5t4 13.5l14 -3q-1 -2 -6 -19.5t-11 -25.5z M410 155v14.5v17v14.5h14v-47zM410 234v47h14v-47h-14zM410 314v47h14v-47h-14zM410 394v47h14v-47h-14zM410 474v47h14v-47h-14zM410 554v47h14v-47h-14z" />
<glyph unicode="&#xdb;" horiz-adv-x="505" d="M71 154v47h14v-46zM71 234v47h14v-47h-14zM71 314v47h14v-47h-14zM71 394v47h14v-47h-14zM71 474v47h14v-47h-14zM71 554v47h14v-47h-14zM75 120l14 3q13 -38 16 -41l-12 -7q-5 7 -18 45zM113 47l10 10q6 -7 35 -27l-6 -13q-32 20 -39 30zM179 747l12 7l13 -20l-12 -8z M184 5l4 13q33 -7 44 -7l-1 -14q-17 0 -47 8zM202 712l11 8l14 -20l-12 -8zM224 678l12 8l8 -13l8 13l12 -8l-13 -20l-7 4l-6 -4zM262 700l13 20l12 -8l-14 -20zM264 11q10 0 45 7l4 -14q-37 -7 -48 -7zM284 734l14 20l12 -7l-14 -21zM338 29q26 16 35 27l11 -9 q-6 -7 -39 -30zM392 81q4 6 6.5 13t4.5 15.5t4 13.5l14 -3q-1 -2 -6 -19.5t-11 -25.5zM410 155v14.5v17v14.5h14v-47zM410 234v47h14v-47h-14zM410 314v47h14v-47h-14zM410 394v47h14v-47h-14zM410 474v47h14v-47h-14zM410 554v47h14v-47h-14z" />
<glyph unicode="&#xdc;" horiz-adv-x="505" d="M71 154v47h14v-46zM71 234v47h14v-47h-14zM71 314v47h14v-47h-14zM71 394v47h14v-47h-14zM71 474v47h14v-47h-14zM71 554v47h14v-47h-14zM75 120l14 3q13 -38 16 -41l-12 -7q-5 7 -18 45zM113 47l10 10q6 -7 35 -27l-6 -13q-32 20 -39 30zM179 677v4l7 -1q0 -8 4 -13 l-6 -4q-5 7 -5 14zM184 5l4 13q33 -7 44 -7l-1 -14q-17 0 -47 8zM184 694q5 8 16 10l1 -7q-8 -2 -11 -8zM194 654l3 7q4 -2 7 -2h2q1 0 2.5 0.5t2.5 0.5l2 -6q-4 -2 -7 -2h-2q-4 0 -10 2zM211 696l2 7q10 -3 14 -12l-6 -3q-3 6 -10 8zM219 665q5 7 5 13h7q0 -10 -7 -17z M264 11q10 0 45 7l4 -14q-37 -7 -48 -7zM272 677v2l1 2l7 -1q-2 -7 3 -13l-6 -4q-3 4 -5 14zM277 694q7 8 16 10l2 -7q-7 -1 -12 -8zM288 654l2 7q6 -2 8 -2h2l2 1h2l2 -6q-4 -2 -6 -2h-2q-4 0 -10 2zM304 696l2 7q11 -4 15 -12l-6 -3q-3 6 -11 8zM312 665q4 4 6 13h7 q-2 -10 -7 -17zM338 29q26 16 35 27l11 -9q-6 -7 -39 -30zM392 81q4 6 6.5 13t4.5 15.5t4 13.5l14 -3q-1 -2 -6 -19.5t-11 -25.5zM410 155v14.5v17v14.5h14v-47zM410 234v47h14v-47h-14zM410 314v47h14v-47h-14zM410 394v47h14v-47h-14zM410 474v47h14v-47h-14zM410 554v47 h14v-47h-14z" />
<glyph unicode="&#xdd;" horiz-adv-x="478" d="M66 593l12 7l21 -39l-12 -6zM101 527l12 7l21 -39l-12 -6zM136 461l12 7l21 -39l-12 -6zM171 395l12 7l21 -39l-12 -6zM201 656l21 21l10 -10l-21 -21zM206 329l12 7l15 -28l15 28l12 -7l-20 -38v-35h-14v35zM226 10v48h14v-48h-14zM226 92v48h14v-48h-14zM226 174v48h14 v-48h-14zM237 692l21 21l10 -10l-21 -21zM262 363l21 39l12 -7l-20 -38zM273 728l21 21l10 -10l-21 -21zM297 429l21 39l12 -7l-20 -38zM332 495l21 39l12 -7l-20 -38zM367 561l21 39l12 -7l-20 -38z" />
<glyph unicode="&#xde;" horiz-adv-x="443" d="M69 8v46h14v-46h-14zM69 86v45h14v-45h-14zM69 163v46h14v-46h-14zM69 241v46h14v-46h-14zM69 319v45h14v-45h-14zM69 396v46h14v-46h-14zM69 474v46h14v-46h-14zM69 552v45h14v-45h-14zM81 454v14h46v-14h-46zM85 137v14h47v-14h-47zM159 454v14h46v-14h-46zM164 137v14 h46v-14h-46zM236 451l3 14q35 -9 45 -15l-6 -13q-12 8 -42 14zM241 155q33 10 41 15l6 -12q-8 -5 -45 -17zM304 421l8 11q13 -9 34 -34l-12 -9q-16 22 -30 32zM307 187q7 5 30 33l11 -8q-21 -27 -32 -35zM349 363l13 5q12 -36 12 -46l-14 -2q0 4 -11 43zM351 247q9 31 9 43 l14 -2q0 -16 -10 -46z" />
<glyph unicode="&#xdf;" d="M69 3v49h14v-49h-14zM69 86v49l14 1v-50h-14zM69 170v49h14v-49h-14zM69 254v49h14v-49h-14zM69 337v49l14 1v-49zM69 421v49l14 1v-49zM72 539q7 25 29 42l8 -11q-19 -15 -23 -34zM129 64l10 9q28 -26 34 -30l-9 -11q-18 15 -35 32zM133 595q17 5 33 5h6q2 0 5 -0.5 t4 -0.5l-1 -14q-24 2 -44 -4zM191 12l8 12q32 -15 41 -16l-4 -14q-7 1 -14.5 4t-16.5 7.5t-14 6.5zM208 318l13 6q5 -11 28 -34l-10 -10q-23 23 -31 38zM210 578l5 13q25 -12 40 -28l-10 -10q-9 11 -35 25zM211 355q5 7 16.5 18.5t15.5 16.5l10 -9q-5 -7 -16 -18t-15 -16z M261 416q14 26 16 41l14 -3q-2 -17 -18 -45zM263 258l9 10l34 -32l-9 -10zM264 528l12 7q13 -23 16 -46l-14 -2q-3 22 -14 41zM270 4q20 0 42 10l6 -12q-21 -12 -48 -12v14zM320 203l10 10q25 -27 31 -36l-11 -8q-4 6 -30 34zM336 32q18 20 24 37l13 -6q-9 -23 -27 -41z M363 142l13 4q6 -18 6 -37q0 -8 -1 -12l-14 1q3 20 -4 44z" />
<glyph unicode="&#xe0;" horiz-adv-x="462" d="M66 161h14q1 -4 1.5 -14t1.5 -17t4 -14l-14 -3q-2 5 -7 48zM69 195q12 38 17 46l12 -6q-6 -9 -15 -42zM86 81l12 6q5 -12 26 -37l-10 -10q-23 27 -28 41zM104 270q12 17 37 33l7 -11q-24 -18 -33 -31zM141 19l7 11q19 -12 41 -18l-3 -13q-28 7 -45 20zM169 467l10 10 l21 -22l-10 -9zM172 319q11 4 48 9v-14q-38 -5 -44 -8zM205 431l10 10l21 -21l-10 -10zM220 -6v14q37 5 44 8l5 -13q-13 -5 -49 -9zM241 395l10 10l21 -21l-10 -10zM251 310l4 13q26 -7 45 -20l-8 -11q-18 12 -41 18zM292 30q24 18 33 30l11 -8q-11 -16 -36 -33zM316 272 l10 10q23 -27 29 -41l-13 -6q-5 12 -26 37zM342 87q6 9 15 42h4v16h14v-50h-14q-4 -10 -6 -14zM361 10v50h14v-50h-14zM361 180v50h14v-50h-14zM361 265v50h14v-50h-14z" />
<glyph unicode="&#xe1;" horiz-adv-x="446" d="M66 161h14q1 -4 1.5 -14t1.5 -17t4 -14l-14 -3q-2 5 -7 48zM69 195q12 38 17 46l12 -6q-6 -9 -15 -42zM86 81l12 6q5 -12 26 -37l-10 -10q-23 27 -28 41zM104 270q12 17 37 33l7 -11q-24 -18 -33 -31zM141 19l7 11q19 -12 41 -18l-3 -13q-28 7 -45 20zM172 319q11 4 48 9 v-14q-38 -5 -44 -8zM181 366l21 21l10 -10l-21 -21zM217 402l21 21l10 -10l-21 -21zM220 -6v14q37 5 44 8l5 -13q-13 -5 -49 -9zM251 310l4 13q26 -7 45 -20l-8 -11q-18 12 -41 18zM253 438l21 21l10 -10l-21 -21zM292 30q24 18 33 30l11 -8q-11 -16 -36 -33zM316 272l10 10 q23 -27 29 -41l-13 -6q-5 12 -26 37zM342 87q6 9 15 42h4v16h14v-50h-14q-4 -10 -6 -14zM361 10v50h14v-50h-14zM361 180v50h14v-50h-14zM361 265v50h14v-50h-14z" />
<glyph unicode="&#xe2;" horiz-adv-x="462" d="M66 161h14q1 -4 1.5 -14t1.5 -17t4 -14l-14 -3q-2 5 -7 48zM69 195q12 38 17 46l12 -6q-6 -9 -15 -42zM86 81l12 6q5 -12 26 -37l-10 -10q-23 27 -28 41zM104 270q12 17 37 33l7 -11q-24 -18 -33 -31zM141 19l7 11q19 -12 41 -18l-3 -13q-28 7 -45 20zM159 457l12 7 l13 -20l-12 -8zM172 319q11 4 48 9v-14q-38 -5 -44 -8zM182 422l11 8l14 -20l-12 -8zM204 388l12 8l8 -13l8 13l12 -8l-13 -20l-7 4l-6 -4zM220 -6v14q37 5 44 8l5 -13q-13 -5 -49 -9zM242 410l13 20l12 -8l-14 -20zM251 310l4 13q26 -7 45 -20l-8 -11q-18 12 -41 18z M264 444l14 20l12 -7l-14 -21zM292 30q24 18 33 30l11 -8q-11 -16 -36 -33zM316 272l10 10q23 -27 29 -41l-13 -6q-5 12 -26 37zM342 87q6 9 15 42h4v16h14v-50h-14q-4 -10 -6 -14zM361 10v50h14v-50h-14zM361 180v50h14v-50h-14zM361 265v50h14v-50h-14z" />
<glyph unicode="&#xe3;" horiz-adv-x="462" d="M66 161h14q1 -4 1.5 -14t1.5 -17t4 -14l-14 -3q-2 5 -7 48zM69 195q12 38 17 46l12 -6q-6 -9 -15 -42zM86 81l12 6q5 -12 26 -37l-10 -10q-23 27 -28 41zM104 270q12 17 37 33l7 -11q-24 -18 -33 -31zM129 385q2 32 10 51l13 -6q-7 -17 -9 -45h-14zM141 19l7 11 q19 -12 41 -18l-3 -13q-28 7 -45 20zM168 462h6q24 0 41 -26l-12 -8q-13 21 -29 20h-4zM172 319q11 4 48 9v-14q-38 -5 -44 -8zM220 -6v14q37 5 44 8l5 -13q-13 -5 -49 -9zM223 400l11 8q12 -18 28 -18q4 0 5 1l3 -14q-1 0 -3.5 -0.5t-4.5 -0.5q-24 0 -39 24zM251 310l4 13 q26 -7 45 -20l-8 -11q-18 12 -41 18zM284 410q7 16 7 45h14q0 -29 -8 -50zM292 30q24 18 33 30l11 -8q-11 -16 -36 -33zM316 272l10 10q23 -27 29 -41l-13 -6q-5 12 -26 37zM342 87q6 9 15 42h4v16h14v-50h-14q-4 -10 -6 -14zM361 10v50h14v-50h-14zM361 180v50h14v-50h-14z M361 265v50h14v-50h-14z" />
<glyph unicode="&#xe4;" horiz-adv-x="462" d="M66 161h14q1 -4 1.5 -14t1.5 -17t4 -14l-14 -3q-2 5 -7 48zM69 195q12 38 17 46l12 -6q-6 -9 -15 -42zM86 81l12 6q5 -12 26 -37l-10 -10q-23 27 -28 41zM104 270q12 17 37 33l7 -11q-24 -18 -33 -31zM141 19l7 11q19 -12 41 -18l-3 -13q-28 7 -45 20zM149 397v4l7 -1 q0 -8 4 -13l-6 -4q-5 7 -5 14zM154 414q5 8 16 10l1 -7q-8 -2 -11 -8zM164 374l3 7q4 -2 7 -2h2q1 0 2.5 0.5t2.5 0.5l2 -6q-4 -2 -7 -2h-2q-4 0 -10 2zM172 319q11 4 48 9v-14q-38 -5 -44 -8zM181 416l2 7q10 -3 14 -12l-6 -3q-3 6 -10 8zM189 385q5 7 5 13h7q0 -10 -7 -17 zM220 -6v14q37 5 44 8l5 -13q-13 -5 -49 -9zM242 397v2l1 2l7 -1q-2 -7 3 -13l-6 -4q-3 4 -5 14zM247 414q7 8 16 10l2 -7q-7 -1 -12 -8zM251 310l4 13q26 -7 45 -20l-8 -11q-18 12 -41 18zM258 374l2 7q6 -2 8 -2h2l2 1h2l2 -6q-4 -2 -6 -2h-2q-4 0 -10 2zM274 416l2 7 q11 -4 15 -12l-6 -3q-3 6 -11 8zM282 385q4 4 6 13h7q-2 -10 -7 -17zM292 30q24 18 33 30l11 -8q-11 -16 -36 -33zM316 272l10 10q23 -27 29 -41l-13 -6q-5 12 -26 37zM342 87q6 9 15 42h4v16h14v-50h-14q-4 -10 -6 -14zM361 10v50h14v-50h-14zM361 180v50h14v-50h-14z M361 265v50h14v-50h-14z" />
<glyph unicode="&#xe5;" horiz-adv-x="462" d="M66 161h14q1 -4 1.5 -14t1.5 -17t4 -14l-14 -3q-2 5 -7 48zM69 195q12 38 17 46l12 -6q-6 -9 -15 -42zM86 81l12 6q5 -12 26 -37l-10 -10q-23 27 -28 41zM104 270q12 17 37 33l7 -11q-24 -18 -33 -31zM129 406h14q0 -24 14 -44l-12 -8q-14 23 -16 52zM137 443q9 22 36 40 l7 -12q-21 -13 -30 -34zM141 19l7 11q19 -12 41 -18l-3 -13q-28 7 -45 20zM172 319q2 0 6 1.5t6 2.5q-7 2 -11 6l7 12q16 -10 37 -10h8l1 -14h-6v-3q-38 -5 -44 -8zM210 494q3 1 9 1q23 0 43 -12l-7 -12q-16 10 -36 10q-5 0 -8 -1zM220 -6v14q37 5 44 8l5 -13q-13 -5 -49 -9 zM251 310l4 13q26 -7 45 -20l-8 -11q-18 12 -41 18zM255 341q23 14 31 33l12 -5q-11 -26 -36 -40zM279 449l11 8q15 -21 17 -51h-14q-2 25 -14 43zM292 30q24 18 33 30l11 -8q-11 -16 -36 -33zM316 272l10 10q23 -27 29 -41l-13 -6q-5 12 -26 37zM342 87q6 9 15 42h4v16h14 v-50h-14q-4 -10 -6 -14zM361 10v50h14v-50h-14zM361 180v50h14v-50h-14zM361 265v50h14v-50h-14z" />
<glyph unicode="&#xe6;" horiz-adv-x="744" d="M69 159q0 11 2 33l14 -2q-2 -20 -2 -31t1 -17l-14 -2q-1 7 -1 19zM78 105l13 4q12 -30 22 -42l-11 -9q-13 17 -24 47zM82 228q14 30 27 44l10 -9q-15 -18 -24 -41zM127 31l9 11q14 -14 40 -25l-5 -13q-30 13 -44 27zM135 298q25 18 47 23l4 -13q-15 -4 -43 -21zM207 -4 l2 14q19 -4 47 3l3 -14q-18 -5 -35 -5q-5 0 -17 2zM218 313v14q29 2 52 -8l-5 -13q-21 9 -47 7zM287 25q23 14 36 30l11 -9q-19 -21 -41 -33zM295 292l8 12q22 -16 38 -36l-11 -9q-14 19 -35 33zM366 9v50h14v-50h-14zM366 94v50h14v-50h-14zM366 179v49h14v-49h-14z M366 263v50h14v-50h-14zM378 154v14h49v-14h-49zM403 270q21 22 37 33l8 -12q-15 -9 -34 -30zM406 49l11 9q15 -17 32 -28l-8 -12q-18 13 -35 31zM461 154v14h49v-14h-49zM470 3l5 13q23 -7 42 -8v-14q-25 2 -47 9zM471 319q19 7 49 9v-14q-27 -2 -44 -8zM544 154v14h48v-14 h-48zM547 11q6 0 13 2t15 5.5t13 4.5l6 -13l-19.5 -6.5t-25.5 -6.5zM551 310l3 14q29 -9 46 -20l-8 -12q-14 10 -41 18zM613 39q5 4 10 9t10 12t8 10l13 -7q-3 -3 -13.5 -16.5t-18.5 -18.5zM617 272l10 10q21 -25 28 -40l-12 -7q-5 11 -26 37zM626 154v14h34q-2 29 -6 38 l14 4q4 -10 6 -42h1v-14h-49z" />
<glyph unicode="&#xe7;" horiz-adv-x="426" d="M66 144l14 1q0 -9 10 -44l-13 -5q-11 33 -11 48zM66 178q0 15 11 48l13 -5q-10 -35 -10 -44zM93 65l12 7q14 -21 30 -33l-9 -11q-18 14 -33 37zM93 257q15 23 33 37l9 -11q-17 -13 -30 -34zM155 9l6 13q28 -12 44 -12l-2 -14q-13 0 -48 13zM155 313q35 13 48 13l2 -14 q-16 0 -44 -12zM199 -74l3 17l13 -3q17 9 32 14l4 -14q-18 -5 -41 -20q-3 6 -11 6zM204 -46l2 16l14 -2l-3 -16zM208 -19l3 17l14 -3l-3 -16zM212 -145q17 2 39 20l9 -11q-24 -19 -46 -23zM236 10q15 1 43 13l6 -12q-30 -14 -47 -15zM236 312l2 14q17 -1 47 -15l-6 -12 q-28 12 -43 13zM271 -101q7 12 7 23q0 9 -4 14l11 9q7 -10 7 -23q0 -14 -9 -30zM305 41q12 10 30 34l12 -7q-22 -28 -33 -37zM305 281l9 10q11 -9 33 -37l-12 -7q-18 24 -30 34z" />
<glyph unicode="&#xe8;" d="M66 148l14 1q0 -11 9 -45l-13 -5q-10 32 -10 49zM67 184q1 16 13 48l13 -6q-11 -25 -12 -44zM77 154v14h47v-14h-47zM91 67l12 8q18 -24 31 -35l-9 -10q-12 9 -34 37zM97 263q8 11 35 36l9 -11q-23 -19 -32 -34zM129 467l10 10l21 -22l-10 -9zM154 10l7 12q26 -12 43 -12 l-1 -14q-17 0 -49 14zM158 154v14h47v-14h-47zM163 316q25 11 50 11v-14q-21 0 -44 -10zM165 431l10 10l21 -21l-10 -10zM201 395l10 10l21 -21l-10 -10zM236 10q14 0 45 11l6 -13q-38 -12 -49 -12zM238 154v14h48v-14h-48zM245 311l3 14q34 -11 47 -19l-7 -12 q-16 10 -43 17zM309 37q8 5 17.5 17.5t13.5 15.5l12 -7q-2 -2 -14 -17t-21 -20zM313 274l10 10q23 -25 30 -41l-13 -6q-7 18 -27 37zM319 154v14h39q-3 31 -6 39l14 4q4 -12 7 -57h-54z" />
<glyph unicode="&#xe9;" horiz-adv-x="439" d="M66 148l14 1q0 -11 9 -45l-13 -5q-10 32 -10 49zM67 184q1 16 13 48l13 -6q-11 -25 -12 -44zM77 154v14h47v-14h-47zM91 67l12 8q18 -24 31 -35l-9 -10q-12 9 -34 37zM97 263q8 11 35 36l9 -11q-23 -19 -32 -34zM154 10l7 12q26 -12 43 -12l-1 -14q-17 0 -49 14zM158 154 v14h47v-14h-47zM163 316q25 11 50 11v-14q-21 0 -44 -10zM201 366l21 21l10 -10l-21 -21zM236 10q14 0 45 11l6 -13q-38 -12 -49 -12zM237 402l21 21l10 -10l-21 -21zM238 154v14h48v-14h-48zM245 311l3 14q34 -11 47 -19l-7 -12q-16 10 -43 17zM273 438l21 21l10 -10 l-21 -21zM309 37q8 5 17.5 17.5t13.5 15.5l12 -7q-2 -2 -14 -17t-21 -20zM313 274l10 10q23 -25 30 -41l-13 -6q-7 18 -27 37zM319 154v14h39q-3 31 -6 39l14 4q4 -12 7 -57h-54z" />
<glyph unicode="&#xea;" d="M66 148l14 1q0 -11 9 -45l-13 -5q-10 32 -10 49zM67 184q1 16 13 48l13 -6q-11 -25 -12 -44zM77 154v14h47v-14h-47zM91 67l12 8q18 -24 31 -35l-9 -10q-12 9 -34 37zM97 263q8 11 35 36l9 -11q-23 -19 -32 -34zM149 457l12 7l13 -20l-12 -8zM154 10l7 12q26 -12 43 -12 l-1 -14q-17 0 -49 14zM158 154v14h47v-14h-47zM163 316q25 11 50 11v-14q-21 0 -44 -10zM172 422l11 8l14 -20l-12 -8zM194 388l12 8l8 -13l8 13l12 -8l-13 -20l-7 4l-6 -4zM232 410l13 20l12 -8l-14 -20zM236 10q14 0 45 11l6 -13q-38 -12 -49 -12zM238 154v14h48v-14h-48z M245 311l3 14q34 -11 47 -19l-7 -12q-16 10 -43 17zM254 444l14 20l12 -7l-14 -21zM309 37q8 5 17.5 17.5t13.5 15.5l12 -7q-2 -2 -14 -17t-21 -20zM313 274l10 10q23 -25 30 -41l-13 -6q-7 18 -27 37zM319 154v14h39q-3 31 -6 39l14 4q4 -12 7 -57h-54z" />
<glyph unicode="&#xeb;" d="M66 148l14 1q0 -11 9 -45l-13 -5q-10 32 -10 49zM67 184q1 16 13 48l13 -6q-11 -25 -12 -44zM77 154v14h47v-14h-47zM91 67l12 8q18 -24 31 -35l-9 -10q-12 9 -34 37zM97 263q8 11 35 36l9 -11q-23 -19 -32 -34zM149 397v4l7 -1q0 -8 4 -13l-6 -4q-5 7 -5 14zM154 10 l7 12q26 -12 43 -12l-1 -14q-17 0 -49 14zM154 414q5 8 16 10l1 -7q-8 -2 -11 -8zM158 154v14h47v-14h-47zM163 316q25 11 50 11v-14q-21 0 -44 -10zM164 374l3 7q4 -2 7 -2h2q1 0 2.5 0.5t2.5 0.5l2 -6q-4 -2 -7 -2h-2q-4 0 -10 2zM181 416l2 7q10 -3 14 -12l-6 -3 q-3 6 -10 8zM189 385q5 7 5 13h7q0 -10 -7 -17zM236 10q14 0 45 11l6 -13q-38 -12 -49 -12zM238 154v14h48v-14h-48zM242 397v2l1 2l7 -1q-2 -7 3 -13l-6 -4q-3 4 -5 14zM245 311l3 14q34 -11 47 -19l-7 -12q-16 10 -43 17zM247 414q7 8 16 10l2 -7q-7 -1 -12 -8zM258 374 l2 7q6 -2 8 -2h2l2 1h2l2 -6q-4 -2 -6 -2h-2q-4 0 -10 2zM274 416l2 7q11 -4 15 -12l-6 -3q-3 6 -11 8zM282 385q4 4 6 13h7q-2 -10 -7 -17zM309 37q8 5 17.5 17.5t13.5 15.5l12 -7q-2 -2 -14 -17t-21 -20zM313 274l10 10q23 -25 30 -41l-13 -6q-7 18 -27 37zM319 154v14h39 q-3 31 -6 39l14 4q4 -12 7 -57h-54z" />
<glyph unicode="&#xec;" horiz-adv-x="184" d="M-11 467l10 10l21 -22l-10 -9zM25 431l10 10l21 -21l-10 -10zM61 395l10 10l21 -21l-10 -10zM90 8v50h14v-50h-14zM90 93v49h14v-49h-14zM90 177v50h14v-50h-14zM90 262v50h14v-50h-14z" />
<glyph unicode="&#xed;" horiz-adv-x="184" d="M81 376l21 21l10 -10l-21 -21zM90 8v50h14v-50h-14zM90 93v49h14v-49h-14zM90 177v50h14v-50h-14zM90 262v50h14v-50h-14zM117 412l21 21l10 -10l-21 -21zM153 448l21 21l10 -10l-21 -21z" />
<glyph unicode="&#xee;" horiz-adv-x="184" d="M19 467l12 7l13 -20l-12 -8zM42 432l11 8l14 -20l-12 -8zM64 398l12 8l8 -13l8 13l12 -8l-13 -20l-7 4l-6 -4zM90 8v50h14v-50h-14zM90 93v49h14v-49h-14zM90 177v50h14v-50h-14zM90 262v50h14v-50h-14zM102 420l13 20l12 -8l-14 -20zM124 454l14 20l12 -7l-14 -21z" />
<glyph unicode="&#xef;" horiz-adv-x="184" d="M19 397v4l7 -1q0 -8 4 -13l-6 -4q-5 7 -5 14zM24 414q5 8 16 10l1 -7q-8 -2 -11 -8zM34 374l3 7q4 -2 7 -2h2q1 0 2.5 0.5t2.5 0.5l2 -6q-4 -2 -7 -2h-2q-4 0 -10 2zM51 416l2 7q10 -3 14 -12l-6 -3q-3 6 -10 8zM59 385q5 7 5 13h7q0 -10 -7 -17zM90 8v50h14v-50h-14z M90 93v49h14v-49h-14zM90 177v50h14v-50h-14zM90 262v50h14v-50h-14zM112 397v2l1 2l7 -1q-2 -7 3 -13l-6 -4q-3 4 -5 14zM117 414q7 8 16 10l2 -7q-7 -1 -12 -8zM128 374l2 7q6 -2 8 -2h2l2 1h2l2 -6q-4 -2 -6 -2h-2q-4 0 -10 2zM144 416l2 7q11 -4 15 -12l-6 -3 q-3 6 -11 8zM152 385q4 4 6 13h7q-2 -10 -7 -17z" />
<glyph unicode="&#xf0;" horiz-adv-x="447" d="M69 160h14q1 -4 1.5 -14t1.5 -17.5t4 -13.5l-14 -4q-1 5 -7 49zM72 194q12 38 17 46l12 -6q-6 -10 -15 -43zM89 79l12 7q7 -16 26 -37l-10 -10q-23 27 -28 40zM107 269q14 18 37 33l7 -12q-21 -14 -33 -30zM117 589v14q36 -2 53 -7l-3 -13q-16 4 -50 6zM144 17l7 12 q19 -12 41 -18l-3 -14q-29 9 -45 20zM170 472l32 29l9 -10l-32 -29zM175 318q11 4 48 9v-14q-33 -4 -44 -9zM201 572l5 13q28 -13 47 -28l-9 -11q-20 15 -43 26zM223 7q37 5 44 8l5 -13q-10 -4 -49 -9v14zM224 521l32 29l10 -11l-33 -28zM254 309l4 13q26 -7 45 -20l-8 -12 q-13 10 -41 19zM271 523l10 9q22 -24 33 -42l-12 -8q-13 21 -31 41zM279 570l32 28l9 -10l-32 -29zM295 29q21 14 33 30l11 -9q-10 -13 -36 -33zM319 271l10 9q21 -23 29 -40l-13 -6q-5 12 -26 37zM319 451l13 6q5 -9 20 -49l-13 -5q-15 39 -20 48zM345 86q6 9 15 42l14 -2 q-8 -32 -16 -47zM348 369l14 3q1 -4 4.5 -23t4.5 -29l-13 -2q-1 10 -5 27.5t-5 23.5zM357 204l13 4q5 -12 7 -48h-14q-2 33 -6 44zM362 282l14 1l2 -53h-14z" />
<glyph unicode="&#xf1;" horiz-adv-x="406" d="M71 9v50h14v-50h-14zM71 94v51h14v-51h-14zM71 180v50h14v-5l11 -4q-1 -2 -9 -43q-10 2 -16 2zM71 265v50h14v-50h-14zM96 256q7 18 28 38l9 -10q-16 -16 -25 -35zM109 385q2 32 10 51l13 -6q-7 -17 -9 -45h-14zM148 462h6q24 0 41 -26l-12 -8q-13 21 -29 20h-4zM151 314 q22 12 46 14l1 -14q-23 -2 -40 -13zM203 400l11 8q12 -18 28 -18q4 0 5 1l3 -14q-1 0 -3.5 -0.5t-4.5 -0.5q-24 0 -39 24zM228 313l2 13q25 -5 44 -18l-8 -12q-14 11 -38 17zM264 410q7 16 7 45h14q0 -29 -8 -50zM288 276l11 9q15 -22 22 -42l-13 -5q-7 21 -20 38zM314 209 l14 1q2 -18 2 -28v-18h-14q0 30 -2 45zM316 10v45h14v-45h-14zM316 87v45h14v-45h-14z" />
<glyph unicode="&#xf2;" d="M66 162h14q1 -4 1.5 -14t1.5 -17.5t4 -13.5l-14 -4q-2 6 -7 49zM69 196q14 41 17 46l12 -6q-6 -10 -15 -43zM86 81l12 7q7 -16 26 -37l-10 -10q-21 23 -28 40zM104 271q14 18 37 33l7 -12q-21 -14 -33 -30zM119 467l10 10l21 -22l-10 -9zM141 19l7 12q15 -11 41 -18 l-3 -14q-29 9 -45 20zM155 431l10 10l21 -21l-10 -10zM172 319q12 5 48 10v-15q-30 -2 -44 -8zM191 395l10 10l21 -21l-10 -10zM220 -5v14q30 2 44 8l5 -13q-16 -7 -49 -9zM251 310l4 14q27 -8 45 -20l-8 -12q-15 11 -41 18zM292 31q21 14 33 30l11 -9q-13 -17 -36 -33z M316 272l10 10q21 -23 29 -40l-13 -6q-6 14 -26 36zM342 88q6 9 15 42l14 -3q-9 -34 -16 -46zM354 206l13 4q5 -12 7 -48h-14q-2 34 -6 44z" />
<glyph unicode="&#xf3;" d="M66 162h14q1 -4 1.5 -14t1.5 -17.5t4 -13.5l-14 -4q-2 6 -7 49zM69 196q14 41 17 46l12 -6q-6 -10 -15 -43zM86 81l12 7q7 -16 26 -37l-10 -10q-21 23 -28 40zM104 271q14 18 37 33l7 -12q-21 -14 -33 -30zM141 19l7 12q15 -11 41 -18l-3 -14q-29 9 -45 20zM172 319 q12 5 48 10v-15q-30 -2 -44 -8zM211 376l21 21l10 -10l-21 -21zM220 -5v14q30 2 44 8l5 -13q-16 -7 -49 -9zM247 412l21 21l10 -10l-21 -21zM251 310l4 14q27 -8 45 -20l-8 -12q-15 11 -41 18zM283 448l21 21l10 -10l-21 -21zM292 31q21 14 33 30l11 -9q-13 -17 -36 -33z M316 272l10 10q21 -23 29 -40l-13 -6q-6 14 -26 36zM342 88q6 9 15 42l14 -3q-9 -34 -16 -46zM354 206l13 4q5 -12 7 -48h-14q-2 34 -6 44z" />
<glyph unicode="&#xf4;" d="M66 162h14q1 -4 1.5 -14t1.5 -17.5t4 -13.5l-14 -4q-2 6 -7 49zM69 196q14 41 17 46l12 -6q-6 -10 -15 -43zM86 81l12 7q7 -16 26 -37l-10 -10q-21 23 -28 40zM104 271q14 18 37 33l7 -12q-21 -14 -33 -30zM141 19l7 12q15 -11 41 -18l-3 -14q-29 9 -45 20zM149 447l12 7 l13 -20l-12 -8zM172 319q12 5 48 10v-15q-30 -2 -44 -8zM172 412l11 8l14 -20l-12 -8zM194 378l12 8l8 -13l8 13l12 -8l-13 -20l-7 4l-6 -4zM220 -5v14q30 2 44 8l5 -13q-16 -7 -49 -9zM232 400l13 20l12 -8l-14 -20zM251 310l4 14q27 -8 45 -20l-8 -12q-15 11 -41 18z M254 434l14 20l12 -7l-14 -21zM292 31q21 14 33 30l11 -9q-13 -17 -36 -33zM316 272l10 10q21 -23 29 -40l-13 -6q-6 14 -26 36zM342 88q6 9 15 42l14 -3q-9 -34 -16 -46zM354 206l13 4q5 -12 7 -48h-14q-2 34 -6 44z" />
<glyph unicode="&#xf5;" d="M66 162h14q1 -4 1.5 -14t1.5 -17.5t4 -13.5l-14 -4q-2 6 -7 49zM69 196q14 41 17 46l12 -6q-6 -10 -15 -43zM86 81l12 7q7 -16 26 -37l-10 -10q-21 23 -28 40zM104 271q14 18 37 33l7 -12q-21 -14 -33 -30zM119 375q2 32 10 51l13 -6q-7 -17 -9 -45h-14zM141 19l7 12 q15 -11 41 -18l-3 -14q-29 9 -45 20zM158 452h6q24 0 41 -26l-12 -8q-13 21 -29 20h-4zM172 319q12 5 48 10v-15q-30 -2 -44 -8zM213 390l11 8q12 -18 28 -18q4 0 5 1l3 -14q-1 0 -3.5 -0.5t-4.5 -0.5q-24 0 -39 24zM220 -5v14q30 2 44 8l5 -13q-16 -7 -49 -9zM251 310l4 14 q27 -8 45 -20l-8 -12q-15 11 -41 18zM274 400q7 16 7 45h14q0 -29 -8 -50zM292 31q21 14 33 30l11 -9q-13 -17 -36 -33zM316 272l10 10q21 -23 29 -40l-13 -6q-6 14 -26 36zM342 88q6 9 15 42l14 -3q-9 -34 -16 -46zM354 206l13 4q5 -12 7 -48h-14q-2 34 -6 44z" />
<glyph unicode="&#xf6;" d="M66 162h14q1 -4 1.5 -14t1.5 -17.5t4 -13.5l-14 -4q-2 6 -7 49zM69 196q14 41 17 46l12 -6q-6 -10 -15 -43zM86 81l12 7q7 -16 26 -37l-10 -10q-21 23 -28 40zM104 271q14 18 37 33l7 -12q-21 -14 -33 -30zM141 19l7 12q15 -11 41 -18l-3 -14q-29 9 -45 20zM149 397v4 l7 -1q0 -8 4 -13l-6 -4q-5 7 -5 14zM154 414q5 8 16 10l1 -7q-8 -2 -11 -8zM164 374l3 7q4 -2 7 -2h2q1 0 2.5 0.5t2.5 0.5l2 -6q-4 -2 -7 -2h-2q-4 0 -10 2zM172 319q12 5 48 10v-15q-30 -2 -44 -8zM181 416l2 7q10 -3 14 -12l-6 -3q-3 6 -10 8zM189 385q5 7 5 13h7 q0 -10 -7 -17zM220 -5v14q30 2 44 8l5 -13q-16 -7 -49 -9zM242 397v2l1 2l7 -1q-2 -7 3 -13l-6 -4q-3 4 -5 14zM247 414q7 8 16 10l2 -7q-7 -1 -12 -8zM251 310l4 14q27 -8 45 -20l-8 -12q-15 11 -41 18zM258 374l2 7q6 -2 8 -2h2l2 1h2l2 -6q-4 -2 -6 -2h-2q-4 0 -10 2z M274 416l2 7q11 -4 15 -12l-6 -3q-3 6 -11 8zM282 385q4 4 6 13h7q-2 -10 -7 -17zM292 31q21 14 33 30l11 -9q-13 -17 -36 -33zM316 272l10 10q21 -23 29 -40l-13 -6q-6 14 -26 36zM342 88q6 9 15 42l14 -3q-9 -34 -16 -46zM354 206l13 4q5 -12 7 -48h-14q-2 34 -6 44z" />
<glyph unicode="&#xf7;" horiz-adv-x="337" d="M69 321v14h45v-14h-45zM142 265v3l1 1h7q-2 -8 3 -13l-6 -5q-5 7 -5 14zM142 388v2l1 2l7 -1q-2 -8 3 -13l-6 -4q-5 5 -5 14zM146 321v14h45v-14h-45zM147 282q7 8 16 10l2 -7q-7 0 -12 -7zM147 404q8 10 16 10l2 -7q-7 0 -12 -7zM158 243l2 6q3 -1 8 -1h2q3 0 4 1l2 -7 q-2 -1 -6 -1h-2q-4 0 -10 2zM158 365l2 6q2 0 4 -0.5t4 -0.5h2q3 0 4 1l2 -7q-1 0 -3 -0.5t-3 -0.5h-2q-4 0 -10 2zM174 285l2 6q11 -4 15 -12l-6 -3q-3 6 -11 9zM174 407l2 7q10 -3 15 -12l-6 -4q-3 6 -11 9zM182 254q4 3 6 13h7q-2 -11 -7 -18zM182 376q4 4 6 13h7 q-2 -12 -7 -18zM223 321v14h45v-14h-45z" />
<glyph unicode="&#xf8;" horiz-adv-x="446" d="M69 162h14q5 -40 7 -44l-14 -4q-2 5 -7 48zM72 196q12 39 17 47l12 -7q-6 -9 -15 -42zM84 10l30 35q-17 19 -25 37l12 6q5 -12 26 -37l-5 -4l7 -6l-35 -40zM107 271q11 15 37 34l7 -12q-21 -14 -33 -30zM142 78l35 40l10 -9l-34 -40zM144 20l7 11q19 -12 41 -18l-3 -13 q-28 7 -45 20zM175 320q9 4 48 9v-14q-37 -5 -44 -8zM201 146l34 39l11 -9l-35 -40zM223 -5v14q33 4 44 9l5 -14q-13 -5 -49 -9zM254 311l4 14q27 -8 45 -20l-8 -12q-18 12 -41 18zM259 213l35 40l10 -9l-34 -40zM295 31q22 17 33 31l11 -9q-13 -17 -36 -33zM318 281l34 40 l11 -9l-29 -34q18 -22 24 -35l-13 -7q-7 16 -26 37l4 4zM345 88q6 10 15 43l14 -3q-8 -32 -16 -46zM357 207l13 4q5 -13 7 -49h-14q-2 35 -6 45z" />
<glyph unicode="&#xf9;" horiz-adv-x="406" d="M66 148v10h14q0 -30 2 -44l-14 -2q-2 12 -2 36zM66 190v45h14v-45h-14zM66 266v46h14v-46h-14zM74 80l14 4q5 -18 19 -38l-11 -8q-10 12 -22 42zM120 14l8 12q16 -12 39 -17l-3 -14q-26 6 -44 19zM129 437l10 10l21 -22l-10 -9zM165 401l10 10l21 -21l-10 -10zM196 7 q22 2 40 12l7 -12q-22 -12 -46 -14zM201 365l10 10l21 -21l-10 -10zM260 37q18 22 24 35l13 -6q-7 -15 -27 -39zM295 100q3 8 6.5 23.5t4.5 19.5q12 -2 19 -2v-50h-14v11l-2 -6zM311 6v50h14v-50h-14zM311 176v50h14v-50h-14zM311 262v50h14v-50h-14z" />
<glyph unicode="&#xfa;" horiz-adv-x="406" d="M66 148v10h14q0 -30 2 -44l-14 -2q-2 12 -2 36zM66 190v45h14v-45h-14zM66 266v46h14v-46h-14zM74 80l14 4q5 -18 19 -38l-11 -8q-10 12 -22 42zM120 14l8 12q16 -12 39 -17l-3 -14q-26 6 -44 19zM161 366l21 21l10 -10l-21 -21zM196 7q22 2 40 12l7 -12q-22 -12 -46 -14 zM197 402l21 21l10 -10l-21 -21zM233 438l21 21l10 -10l-21 -21zM260 37q18 22 24 35l13 -6q-7 -15 -27 -39zM295 100q3 8 6.5 23.5t4.5 19.5q12 -2 19 -2v-50h-14v11l-2 -6zM311 6v50h14v-50h-14zM311 176v50h14v-50h-14zM311 262v50h14v-50h-14z" />
<glyph unicode="&#xfb;" horiz-adv-x="406" d="M66 148v10h14q0 -30 2 -44l-14 -2q-2 12 -2 36zM66 190v45h14v-45h-14zM66 266v46h14v-46h-14zM74 80l14 4q5 -18 19 -38l-11 -8q-10 12 -22 42zM120 14l8 12q16 -12 39 -17l-3 -14q-26 6 -44 19zM129 447l12 7l13 -20l-12 -8zM152 412l11 8l14 -20l-12 -8zM174 378l12 8 l8 -13l8 13l12 -8l-13 -20l-7 4l-6 -4zM196 7q22 2 40 12l7 -12q-22 -12 -46 -14zM212 400l13 20l12 -8l-14 -20zM234 434l14 20l12 -7l-14 -21zM260 37q18 22 24 35l13 -6q-7 -15 -27 -39zM295 100q3 8 6.5 23.5t4.5 19.5q12 -2 19 -2v-50h-14v11l-2 -6zM311 6v50h14v-50 h-14zM311 176v50h14v-50h-14zM311 262v50h14v-50h-14z" />
<glyph unicode="&#xfc;" horiz-adv-x="406" d="M66 148v10h14q0 -30 2 -44l-14 -2q-2 12 -2 36zM66 190v45h14v-45h-14zM66 266v46h14v-46h-14zM74 80l14 4q5 -18 19 -38l-11 -8q-10 12 -22 42zM120 14l8 12q16 -12 39 -17l-3 -14q-26 6 -44 19zM129 397v4l7 -1q0 -8 4 -13l-6 -4q-5 7 -5 14zM134 414q5 8 16 10l1 -7 q-8 -2 -11 -8zM144 374l3 7q4 -2 7 -2h2q1 0 2.5 0.5t2.5 0.5l2 -6q-4 -2 -7 -2h-2q-4 0 -10 2zM161 416l2 7q10 -3 14 -12l-6 -3q-3 6 -10 8zM169 385q5 7 5 13h7q0 -10 -7 -17zM196 7q22 2 40 12l7 -12q-22 -12 -46 -14zM222 397v2l1 2l7 -1q-2 -7 3 -13l-6 -4q-3 4 -5 14 zM227 414q7 8 16 10l2 -7q-7 -1 -12 -8zM238 374l2 7q6 -2 8 -2h2l2 1h2l2 -6q-4 -2 -6 -2h-2q-4 0 -10 2zM254 416l2 7q11 -4 15 -12l-6 -3q-3 6 -11 8zM260 37q18 22 24 35l13 -6q-7 -15 -27 -39zM262 385q4 4 6 13h7q-2 -10 -7 -17zM295 100q3 8 6.5 23.5t4.5 19.5 q12 -2 19 -2v-50h-14v11l-2 -6zM311 6v50h14v-50h-14zM311 176v50h14v-50h-14zM311 262v50h14v-50h-14z" />
<glyph unicode="&#xfd;" horiz-adv-x="408" d="M66 313l13 5l20 -50l-13 -5zM101 228l13 5l20 -49l-13 -6zM123 -183l18 44l13 -5l-18 -44zM136 143l13 6l20 -50l-13 -5zM153 -107l17 45l13 -6l-17 -44zM171 59l12 5l21 -50l-3 -1l12 -5l-18 -44l-13 5l17 43l-8 -3zM171 366l21 21l10 -10l-21 -21zM207 402l21 21 l10 -10l-21 -21zM212 45l17 45l14 -5l-18 -45zM242 121l17 45l13 -5l-17 -45zM243 438l21 21l10 -10l-21 -21zM271 197l18 45l13 -5l-18 -45zM301 273l17 45l13 -5l-17 -45z" />
<glyph unicode="&#xfe;" horiz-adv-x="439" d="M69 -21v47h14v-47h-14zM69 -55h14v-47h-14v47zM69 59v48h14v-8l4 2q13 -28 25 -42l-11 -9q-11 14 -18 27v-18h-14zM69 -135h14v-48h-14v48zM69 140v47h14v-47h-14zM69 220v48h14v-24q10 18 26 36l10 -10q-11 -11 -27 -39l-9 4v-15h-14zM69 301v47h14v-47h-14zM69 381v48 h14v-48h-14zM69 462v47h14v-47h-14zM69 543v47h14v-47h-14zM127 24l9 12q21 -17 42 -22l-4 -14q-23 7 -47 24zM138 304q27 16 49 20l2 -14q-16 -2 -44 -18zM211 -6v14q29 0 47 7l5 -13q-19 -8 -52 -8zM223 313v14q23 -1 52 -12l-6 -13q-24 10 -46 11zM288 30q23 15 35 33 l11 -9q-11 -18 -38 -36zM298 284l9 11q17 -13 35 -38l-12 -8q-15 22 -32 35zM341 91q9 19 14 47l13 -2q-3 -30 -14 -50zM346 219l13 5q10 -34 11 -52h-14q-1 19 -10 47z" />
<glyph unicode="&#xff;" horiz-adv-x="408" d="M66 313l13 5l20 -50l-13 -5zM101 228l13 5l20 -49l-13 -6zM123 -183l18 44l13 -5l-18 -44zM129 397v4l7 -1q0 -8 4 -13l-6 -4q-5 7 -5 14zM134 414q5 8 16 10l1 -7q-8 -2 -11 -8zM136 143l13 6l20 -50l-13 -5zM144 374l3 7q4 -2 7 -2h2q1 0 2.5 0.5t2.5 0.5l2 -6 q-4 -2 -7 -2h-2q-4 0 -10 2zM153 -107l17 45l13 -6l-17 -44zM161 416l2 7q10 -3 14 -12l-6 -3q-3 6 -10 8zM169 385q5 7 5 13h7q0 -10 -7 -17zM171 59l12 5l21 -50l-3 -1l12 -5l-18 -44l-13 5l17 43l-8 -3zM212 45l17 45l14 -5l-18 -45zM222 397v2l1 2l7 -1q-2 -7 3 -13 l-6 -4q-3 4 -5 14zM227 414q7 8 16 10l2 -7q-7 -1 -12 -8zM238 374l2 7q6 -2 8 -2h2l2 1h2l2 -6q-4 -2 -6 -2h-2q-4 0 -10 2zM242 121l17 45l13 -5l-17 -45zM254 416l2 7q11 -4 15 -12l-6 -3q-3 6 -11 8zM262 385q4 4 6 13h7q-2 -10 -7 -17zM271 197l18 45l13 -5l-18 -45z M301 273l17 45l13 -5l-17 -45z" />
<glyph unicode="&#x152;" horiz-adv-x="797" d="M69 310h14l3 -48l-14 -1zM71 345q2 38 5 49l14 -2q-3 -11 -5 -48zM78 226l14 3q7 -37 11 -47l-13 -4q-6 14 -12 48zM83 429q2 9 8 27t7 20l13 -5q-14 -42 -15 -46zM101 145l13 5l22 -42l-12 -8zM113 508q13 27 26 43l11 -9q-12 -15 -25 -40zM145 72l11 9q6 -10 34 -33 l-9 -11q-32 29 -36 35zM162 577q3 3 9 8.5t10 9t10 7t12 5.5l6 -12q-7 -2 -13 -6.5t-13.5 -12t-10.5 -9.5zM212 19l6 12q19 -10 44 -12v-14q-29 2 -50 14zM236 621q15 5 28 5h6q7 0 17 -2l-2 -13q-28 2 -46 -3zM294 22q7 1 14.5 4t16 7.5t12.5 6.5l8 -12q-5 -2 -21 -10 t-26 -10zM316 601l5 13q28 -12 43 -27l-9 -11q-14 14 -39 25zM363 61q6 4 11 10t10.5 14t8.5 12l12 -8q-2 -2 -13.5 -17t-19.5 -21zM379 553l10 9q3 -4 10 -12.5t11.5 -15.5t7.5 -14l-12 -7q-1 3 -27 40zM410 126q14 24 19 44l14 -5q-6 -21 -20 -46zM421 484l13 5l17 -46h14 v-45h-14v44l-13 -4zM440 202l10 47h1v40h14v-46h-2l-7 -31h9v-46h-14v33zM451 5v52h14v-38h31v-14h-45zM451 89v45h14v-45h-14zM451 320v46h14v-46h-14zM451 475v45h14v-45h-14zM451 552v52h46v-14h-32v-38h-14zM466 320v14h39v-14h-39zM528 5v14h45v-14h-45zM528 590v14h46 v-14h-46zM533 320v14h39v-14h-39zM600 320v14h39v-14h-39zM605 5v14h45v-14h-45zM605 590v14h46v-14h-46zM682 5v14h46v-14h-46zM682 590v14h46v-14h-46z" />
<glyph unicode="&#x153;" horiz-adv-x="739" d="M69 161q0 8 1 13l14 -1q-2 -9 3 -47l-14 -3q-4 26 -4 38zM76 209q4 16 20 46l12 -8q-15 -28 -18 -42zM84 90l13 5q9 -21 24 -39l-11 -9q-18 21 -26 43zM119 282q15 16 41 30l6 -12q-26 -15 -37 -27zM136 22l9 11q26 -16 41 -20l-4 -13q-15 4 -46 22zM194 324q30 3 32 3 q5 0 19 -2l-3 -14q-15 3 -46 -1zM217 -6l1 14q24 -2 45 6l4 -13q-20 -7 -44 -7h-6zM273 303l6 12q24 -10 43 -27l-10 -10q-18 17 -39 25zM293 27q22 16 34 31l11 -9q-16 -19 -38 -33zM334 254l11 8q15 -21 23 -45l-13 -5q-7 22 -21 42zM345 85q10 21 15 44l6 -1q-3 10 -3 21 l14 1q0 -12 9 -46l-13 -4l-3 11q-5 -19 -13 -32zM364 184q1 18 13 48l13 -5q-11 -27 -12 -45zM374 154v14h49v-14h-49zM389 68l11 7q24 -29 31 -34l-9 -11q-17 13 -33 38zM395 263q8 12 34 36l9 -11q-24 -20 -32 -33zM451 10l7 13q28 -12 43 -13l-1 -14q-14 1 -49 14z M457 154v14h48v-14h-48zM460 317q25 10 50 11l1 -14q-25 -2 -45 -10zM534 10q13 1 44 12l6 -13q-32 -12 -49 -13zM539 154v14h49v-14h-49zM542 311l3 14q35 -10 47 -19l-7 -12q-13 9 -43 17zM606 38q8 4 18.5 17.5t12.5 15.5l12 -7q-4 -4 -10 -12.5t-12 -14.5t-13 -10z M610 274l10 10q21 -21 30 -40l-13 -7q-7 18 -27 37zM622 154v14h34q-2 27 -7 39l14 4q5 -14 7 -43v-14h-48z" />
<glyph unicode="&#x178;" horiz-adv-x="478" d="M66 593l12 7l21 -39l-12 -6zM101 527l12 7l21 -39l-12 -6zM136 461l12 7l21 -39l-12 -6zM169 647v4l7 -1q0 -8 4 -13l-6 -4q-5 7 -5 14zM171 395l12 7l21 -39l-12 -6zM174 664q5 8 16 10l1 -7q-8 -2 -11 -8zM184 624l3 7q4 -2 7 -2h2q1 0 2.5 0.5t2.5 0.5l2 -6 q-4 -2 -7 -2h-2q-4 0 -10 2zM201 666l2 7q10 -3 14 -12l-6 -3q-3 6 -10 8zM206 329l12 7l15 -28l15 28l12 -7l-20 -38v-35h-14v35zM209 635q5 7 5 13h7q0 -10 -7 -17zM226 10v48h14v-48h-14zM226 92v48h14v-48h-14zM226 174v48h14v-48h-14zM262 363l21 39l12 -7l-20 -38z M262 647v2l1 2l7 -1q-2 -7 3 -13l-6 -4q-3 4 -5 14zM267 664q7 8 16 10l2 -7q-7 -1 -12 -8zM278 624l2 7q6 -2 8 -2h2l2 1h2l2 -6q-4 -2 -6 -2h-2q-4 0 -10 2zM294 666l2 7q11 -4 15 -12l-6 -3q-3 6 -11 8zM297 429l21 39l12 -7l-20 -38zM302 635q4 4 6 13h7q-2 -10 -7 -17z M332 495l21 39l12 -7l-20 -38zM367 561l21 39l12 -7l-20 -38z" />
<glyph unicode="&#x2c6;" horiz-adv-x="269" d="M69 567l12 7l13 -20l-12 -8zM92 532l11 8l14 -20l-12 -8zM114 498l12 8l8 -13l8 13l12 -8l-13 -20l-7 4l-6 -4zM152 520l13 20l12 -8l-14 -20zM174 554l14 20l12 -7l-14 -21z" />
<glyph unicode="&#x2dc;" horiz-adv-x="314" d="M69 485q2 32 10 51l13 -6q-7 -17 -9 -45h-14zM108 562h6q24 0 41 -26l-12 -8q-13 21 -29 20h-4zM163 500l11 8q12 -18 28 -18q4 0 5 1l3 -14q-1 0 -3.5 -0.5t-4.5 -0.5q-24 0 -39 24zM224 510q7 16 7 45h14q0 -29 -8 -50z" />
<glyph unicode="&#x2000;" horiz-adv-x="387" />
<glyph unicode="&#x2001;" horiz-adv-x="775" />
<glyph unicode="&#x2002;" horiz-adv-x="387" />
<glyph unicode="&#x2003;" horiz-adv-x="775" />
<glyph unicode="&#x2004;" horiz-adv-x="258" />
<glyph unicode="&#x2005;" horiz-adv-x="193" />
<glyph unicode="&#x2006;" horiz-adv-x="129" />
<glyph unicode="&#x2007;" horiz-adv-x="129" />
<glyph unicode="&#x2008;" horiz-adv-x="96" />
<glyph unicode="&#x2009;" horiz-adv-x="155" />
<glyph unicode="&#x200a;" horiz-adv-x="43" />
<glyph unicode="&#x2010;" horiz-adv-x="337" d="M69 321v14h45v-14h-45zM146 321v14h45v-14h-45zM223 321v14h45v-14h-45z" />
<glyph unicode="&#x2011;" horiz-adv-x="337" d="M69 321v14h45v-14h-45zM146 321v14h45v-14h-45zM223 321v14h45v-14h-45z" />
<glyph unicode="&#x2012;" horiz-adv-x="337" d="M69 321v14h45v-14h-45zM146 321v14h45v-14h-45zM223 321v14h45v-14h-45z" />
<glyph unicode="&#x2013;" horiz-adv-x="454" d="M69 319v14h52v-14h-52zM157 319v14h52v-14h-52zM245 319v14h52v-14h-52zM333 319v14h52v-14h-52z" />
<glyph unicode="&#x2014;" horiz-adv-x="570" d="M69 319v14h45v-14h-45zM146 319v14h46v-14h-46zM224 319v14h45v-14h-45zM301 319v14h45v-14h-45zM378 319v14h45v-14h-45zM455 319v14h46v-14h-46z" />
<glyph unicode="&#x2018;" horiz-adv-x="197" d="M71 543q2 11 7 18l5 -5q-3 -4 -5 -13h-7zM75 530l6 4q3 -5 10 -9l-2 -7q-8 3 -14 12zM83 570l5 16l13 -4l-3 -13q4 0 10 -2l-3 -6q-1 0 -3.5 0.5t-4.5 0.5q-4 0 -6 -1l-2 7h3zM91 596l6 15l13 -6l-6 -14zM101 525q7 0 12 7l5 -4q-5 -8 -15 -10zM102 621l8 14l12 -7 l-7 -13zM113 554l5 4q5 -5 5 -13v-5l-7 1q2 8 -3 13z" />
<glyph unicode="&#x2019;" horiz-adv-x="177" d="M71 608v5l7 -1q0 -9 4 -13l-6 -4q-5 5 -5 13zM72 525l7 13l13 -6l-8 -14zM76 625q5 8 16 10l1 -7q-7 0 -11 -7zM84 548l6 13l13 -4l-6 -15zM86 586l3 6q3 -1 8 -1q4 0 6 1l2 -7l6 -2l-4 -16l-14 4l3 13q-4 0 -10 2zM103 628l2 6q9 -3 14 -11l-6 -4q-3 5 -10 9zM111 597 q5 5 5 13h7q0 -11 -7 -18z" />
<glyph unicode="&#x201a;" horiz-adv-x="194" d="M71 18v5l7 -1q0 -9 4 -13l-6 -4q-5 5 -5 13zM72 -65l7 13l13 -6l-8 -14zM76 35q5 8 16 10l1 -7q-7 0 -11 -7zM84 -42l6 13l13 -4l-6 -15zM86 -4l3 6q3 -1 8 -1q4 0 6 1l2 -7l6 -2l-4 -16l-14 4l3 13q-4 0 -10 2zM103 38l2 6q9 -3 14 -11l-6 -4q-3 5 -10 9zM111 7 q5 5 5 13h7q0 -11 -7 -18z" />
<glyph unicode="&#x201c;" horiz-adv-x="261" d="M71 543q2 11 7 18l5 -5q-3 -4 -5 -13h-7zM75 530l6 4q3 -5 10 -9l-2 -7q-8 3 -14 12zM83 570l5 16l13 -4l-3 -13q4 0 10 -2l-3 -6q-1 0 -3.5 0.5t-4.5 0.5q-4 0 -6 -1l-2 7h3zM91 596l6 15l13 -6l-6 -14zM101 525q7 0 12 7l5 -4q-5 -8 -15 -10zM102 621l8 14l12 -7 l-7 -13zM113 554l5 4q5 -5 5 -13v-5l-7 1q2 8 -3 13zM151 543q2 11 7 18l5 -5q-3 -4 -5 -13h-7zM155 530l6 4q3 -5 10 -9l-2 -7q-9 3 -14 12zM163 570l5 16l13 -4l-3 -13q4 0 10 -2l-3 -6q-1 0 -3.5 0.5t-4.5 0.5q-4 0 -6 -1l-2 7h3zM171 596l6 15l13 -6l-6 -14zM181 525 q7 0 12 7l5 -4q-5 -8 -15 -10zM182 621l8 14l12 -7l-7 -13zM193 554l5 4q5 -5 5 -13v-5l-7 1q2 8 -3 13z" />
<glyph unicode="&#x201d;" horiz-adv-x="261" d="M71 608v5l7 -1q0 -9 4 -13l-6 -4q-5 5 -5 13zM72 525l7 13l13 -6l-8 -14zM76 625q5 8 16 10l1 -7q-7 0 -11 -7zM84 548l6 13l13 -4l-6 -15zM86 586l3 6q3 -1 8 -1q4 0 6 1l2 -7l6 -2l-4 -16l-14 4l3 13q-4 0 -10 2zM103 628l2 6q9 -3 14 -11l-6 -4q-3 5 -10 9zM111 597 q5 5 5 13h7q0 -11 -7 -18zM151 608v5l7 -1q0 -9 4 -13l-6 -4q-5 5 -5 13zM152 525l7 13l13 -6l-8 -14zM156 625q5 8 16 10l1 -7q-7 0 -11 -7zM164 548l6 13l13 -4l-6 -15zM166 586l3 6q3 -1 8 -1q4 0 6 1l2 -7l6 -2l-4 -16l-14 4l3 13q-4 0 -10 2zM183 628l2 6q9 -3 14 -11 l-6 -4q-3 5 -10 9zM191 597q5 5 5 13h7q0 -11 -7 -18z" />
<glyph unicode="&#x201e;" horiz-adv-x="261" d="M71 18v5l7 -1q0 -9 4 -13l-6 -4q-5 5 -5 13zM72 -65l7 13l13 -6l-8 -14zM76 35q5 8 16 10l1 -7q-7 0 -11 -7zM84 -42l6 13l13 -4l-6 -15zM86 -4l3 6q3 -1 8 -1q4 0 6 1l2 -7l6 -2l-4 -16l-14 4l3 13q-4 0 -10 2zM103 38l2 6q9 -3 14 -11l-6 -4q-3 5 -10 9zM111 7 q5 5 5 13h7q0 -11 -7 -18zM151 18v5l7 -1q0 -9 4 -13l-6 -4q-5 5 -5 13zM152 -65l7 13l13 -6l-8 -14zM156 35q5 8 16 10l1 -7q-7 0 -11 -7zM164 -42l6 13l13 -4l-6 -15zM166 -4l3 6q3 -1 8 -1q4 0 6 1l2 -7l6 -2l-4 -16l-14 4l3 13q-4 0 -10 2zM183 38l2 6q9 -3 14 -11 l-6 -4q-3 5 -10 9zM191 7q5 5 5 13h7q0 -11 -7 -18z" />
<glyph unicode="&#x2022;" horiz-adv-x="371" d="M69 326h14q2 -25 8 -43l-13 -5q-7 18 -9 48zM74 361q6 25 21 44l11 -8q-12 -16 -19 -40zM87 318l115 116l7 -2l-121 -121zM91 357q2 8 4 12l61 62q2 1 5.5 2t5.5 1zM95 247l11 9q15 -21 33 -30l-7 -12q-22 12 -37 33zM95 283l139 138l5 -3l-142 -141zM111 255l146 146 l4 -4l-147 -147zM119 430q22 17 45 21l3 -14q-22 -5 -40 -18zM133 234l141 141l2 -6l-138 -138zM163 220l120 121l1 -8l-115 -114zM164 201l3 14q6 -1 19 -1q12 0 24 3l4 -14q-14 -3 -28 -3q-15 0 -22 1zM197 438l2 14q25 -3 47 -17l-8 -12q-20 14 -41 15zM205 219l75 75 q-1 -2 -2.5 -6.5t-2.5 -6.5l-58 -58q-2 0 -6 -1.5t-6 -2.5zM238 230q19 12 31 31l12 -8q-19 -25 -35 -35zM261 402l11 9q16 -21 23 -43l-13 -4q-5 19 -21 38zM282 289q6 18 6 37l-1 7l14 1l1 -5v-6q0 -17 -7 -38z" />
<glyph unicode="&#x2026;" horiz-adv-x="526" d="M71 17v5l7 -1q0 -9 4 -13l-6 -5q-5 7 -5 14zM76 34q5 8 16 10l1 -7q-7 0 -11 -7zM86 -5l3 6q2 -1 7 -1h2q3 0 5 1l2 -7q-2 -1 -7 -1h-2q-4 0 -10 2zM103 37l2 6q10 -3 14 -12l-6 -3q-3 5 -10 9zM111 6q5 5 5 13h7q0 -11 -7 -18zM237 17v5l7 -1q0 -10 4 -13l-6 -5 q-5 7 -5 14zM242 34q5 8 16 10l1 -7q-7 0 -11 -7zM252 -5l3 6q2 -1 7 -1h2q3 0 5 1l2 -7q-2 -1 -7 -1h-2q-4 0 -10 2zM269 37l2 6q10 -3 14 -12l-6 -3q-3 5 -10 9zM277 6q3 3 5 13h7q-2 -11 -7 -18zM418 16v4h7q-2 -8 3 -13l-5 -5q-5 7 -5 14zM423 33q5 8 16 10l1 -7 q-7 0 -12 -7zM433 -6l3 6q2 -1 7 -1h2q3 0 5 1l2 -7q-2 -1 -7 -1h-2q-4 0 -10 2zM450 36l2 6q10 -3 14 -12l-6 -3q-3 5 -10 9zM458 5q3 3 5 13h7q-2 -11 -7 -18z" />
<glyph unicode="&#x202f;" horiz-adv-x="155" />
<glyph unicode="&#x2039;" horiz-adv-x="222" d="M69 155l12 5l-12 6l16 34l13 -6l-16 -34l16 -34l-13 -6zM97 96l12 6l17 -35l-13 -6zM97 225l16 34l13 -6l-17 -34zM124 37l13 6l16 -35l-12 -6zM124 283l17 35l12 -6l-16 -34z" />
<glyph unicode="&#x203a;" horiz-adv-x="222" d="M69 8l16 35l13 -6l-16 -35zM69 312l13 6l16 -35l-13 -5zM97 67l16 35l13 -6l-17 -35zM97 253l12 6l17 -34l-13 -6zM124 126l16 34l-16 34l13 6l16 -34l-12 -6l12 -5l-16 -35z" />
<glyph unicode="&#x205f;" horiz-adv-x="193" />
<glyph unicode="&#x20ac;" horiz-adv-x="484" d="M69 285v14h34q0 17 1 26l14 -1q-1 -8 -1 -25h7v-14h-6v-8l-14 -1v9h-35zM69 353v14h39q2 11 8 41l13 -4l-3.5 -17.5t-3.5 -19.5h2v-14h-55zM106 242l14 2q6 -32 9 -47l-13 -3q-1 8 -5 24t-5 24zM125 161l13 4q17 -42 18 -44l-13 -6q-2 3 -18 46zM125 441q2 5 5 14.5t6 17 t7 13.5l13 -6q-1 -1 -18 -44zM159 84l12 8q5 -6 14.5 -19t13.5 -19l-10 -9zM159 517l30 39l10 -9q-4 -6 -13.5 -18.5t-14.5 -19.5zM162 285v14h55v-14h-55zM162 353v14h55v-14h-55zM216 22l8 11q5 -5 11.5 -8.5t15.5 -7.5t13 -6l-4 -14q-3 2 -20 10t-24 15zM216 579 q5 5 12 9.5t17.5 9t14.5 6.5l4 -14q-4 -2 -13 -6t-15.5 -7.5t-11.5 -8.5zM256 285v14h55v-14h-55zM256 353v14h55v-14h-55zM294 -9l1 14q19 -2 45 5l5 -13q-25 -7 -42 -7q-6 0 -9 1zM294 611h9q17 0 42 -7l-5 -13q-27 7 -37 6h-8zM369 24q6 4 12 9t13 11.5t11 9.5l10 -10 q-4 -3 -17 -14.5t-21 -16.5zM369 577l8 12q1 0 38 -32l-10 -9q-4 3 -16.5 13.5t-19.5 15.5z" />
<glyph unicode="&#x2122;" horiz-adv-x="557" d="M69 581v14h35v-14h-35zM128 581v14h35v-14h-10v-40h-14v40h-11zM139 299v47h14v-47h-14zM139 379v48h14v-48h-14zM139 460v47h14v-47h-14zM188 581v14h35v-14h-35zM260 298v48h14v-48h-14zM260 380v48h14v-48h-14zM260 462v48h14v-48h-14zM260 544v52h15l17 -51l-13 -5 l-5 14v-10h-14zM291 507l13 5l18 -47l-13 -5zM321 427l13 4l17 -47l-13 -5zM350 346l13 5l11 -29l11 31l13 -5l-17 -53h-13zM397 386l18 47l13 -5l-18 -47zM427 466l17 48l13 -5l-17 -48zM456 547l18 49h14v-52h-14v9l-5 -11zM474 298v48h14v-48h-14zM474 380v48h14v-48h-14 zM474 462v48h14v-48h-14z" />
<glyph unicode="&#xe000;" horiz-adv-x="320" d="M0 0v320h320v-320h-320z" />
<glyph unicode="&#xfb01;" horiz-adv-x="543" d="M66 321v14h44v-14h-44zM137 7v49h14v-49h-14zM137 90v49h14v-49h-14zM137 173v49h14v-49h-14zM137 256v49h14v-49h-14zM137 339v49h14v-49h-14zM137 422v48l14 1v-49h-14zM140 321v14h44v-14h-44zM142 543q10 31 36 43l7 -12q-19 -10 -30 -35zM215 321v14h44v-14h-44z M215 599q14 3 29 3q13 0 25 -3l-3 -14q-10 3 -22 3q-14 0 -27 -3zM298 573l7 12q26 -17 42 -36l-12 -8q-13 16 -37 32zM420 422v2q0 10 5 16l6 -4q-4 -4 -4 -11v-3h-7zM425 409l6 4q3 -7 11 -7l-1 -7q-9 1 -16 10zM435 448q6 2 10 2h2q5 0 7 -1l-2 -7q-5 2 -14 0zM439 8v50 h14v-50h-14zM439 93v49h14v-49h-14zM439 177v50h14v-50h-14zM439 262v50h14v-50h-14zM452 406q7 4 10 9l6 -3q-4 -9 -14 -12zM460 437l5 5q7 -7 7 -18h-7q0 8 -5 13z" />
</font>
</defs>
</svg>
