<?xml version="1.0" standalone="no"?>
<!DOCTYPE svg PUBLIC "-//W3C//DTD SVG 1.1//EN" "http://www.w3.org/Graphics/SVG/1.1/DTD/svg11.dtd" >
<svg xmlns="http://www.w3.org/2000/svg">
<metadata></metadata>
<defs>
<font id="latiniaregular" horiz-adv-x="556" >
<font-face units-per-em="1000" ascent="800" descent="-200" />
<missing-glyph horiz-adv-x="278" />
<glyph horiz-adv-x="1000" />
<glyph horiz-adv-x="1000" />
<glyph horiz-adv-x="333" />
<glyph horiz-adv-x="278" d="M140 596q62 0 99 32t44 94h-39q-8 -42 -35.5 -61.5t-68.5 -19.5q-42 0 -69.5 19.5t-35.5 61.5h-39q7 -63 44.5 -94.5t99.5 -31.5z" />
<glyph horiz-adv-x="278" d="M94 705v-86h90v86h-90z" />
<glyph horiz-adv-x="278" d="M139 782q-42 0 -71 -29t-29 -71t29 -71t71 -29t71 29t29 71t-29 71t-71 29zM139 748q28 0 47 -19t19 -47t-19 -47t-47 -19t-47 19t-19 47t19 47t47 19z" />
<glyph unicode="&#xa;" horiz-adv-x="278" d="M17 600h51l138 138h-77zM150 600h50l138 138h-77z" />
<glyph horiz-adv-x="278" d="M149 12q-30 -16 -47 -44t-17 -62q0 -46 28 -70.5t73 -24.5q14 0 28 2.5t27 8.5v48q-10 -5 -19.5 -7.5t-20.5 -2.5q-31 0 -47.5 20.5t-16.5 49.5t16.5 49t40.5 33h-45z" />
<glyph horiz-adv-x="278" d="M-8 738l113 -138h68l113 138h-65l-82 -101l-82 101h-65z" />
<glyph unicode="&#xd;" horiz-adv-x="296" />
<glyph horiz-adv-x="167" d="M-168 0h59l443 729h-58z" />
<glyph horiz-adv-x="593" d="M501 63v459h-308q0 31 4.5 57.5t20.5 45.5t46.5 29.5t81.5 10.5q21 0 43 -4t40 -12.5t30 -22t14 -32.5h19q0 39 -16 65.5t-42 42.5t-58.5 22.5t-65.5 6.5q-56 0 -94 -12.5t-61.5 -38.5t-33.5 -65t-10 -93h-90v-9l90 -50v-400l-88 -50v-13h249v13l-79 50v400h226v-400 l-80 -50v-13h246v13z" />
<glyph horiz-adv-x="593" d="M419 63l-81 -50v-13h246v13l-83 50v653q-15 -1 -30.5 2.5t-30.5 5.5q-29 4 -58 5.5t-58 1.5q-113 0 -163 -48t-50 -161h-90v-59h90v-400l-88 -50v-13h248v13l-78 50v400h111v59h-111q0 40 7.5 74t24.5 59.5t44 40t66 14.5q21 0 42 -1t42 -4v-642z" />
<glyph horiz-adv-x="560" d="M279 515q36 0 68 -13.5t56 -37.5t37.5 -56t13.5 -68t-13.5 -68t-37.5 -56t-56 -37.5t-68 -13.5t-68 13.5t-56 37.5t-37.5 56t-13.5 68t13.5 68t37.5 56t56 37.5t68 13.5zM514 340q0 39 -12.5 75.5t-36.5 66.5l53 53l-44 44l-53 -53q-30 26 -66.5 37.5t-75.5 11.5 t-75.5 -12.5t-66.5 -36.5l-53 53l-44 -44l53 -53q-26 -30 -37.5 -66.5t-11.5 -75.5t12.5 -75.5t36.5 -66.5l-53 -53l44 -44l53 53q30 -26 66.5 -37.5t75.5 -11.5t75.5 12.5t66.5 36.5l53 -53l44 44l-53 53q26 30 37.5 66.5t11.5 75.5z" />
<glyph unicode=" "  horiz-adv-x="278" />
<glyph unicode="&#x09;" horiz-adv-x="278" />
<glyph unicode="&#xa0;" horiz-adv-x="278" />
<glyph unicode="!" horiz-adv-x="389" d="M148 94v-94h95v94h-95zM245 716h-103l22 -548h64z" />
<glyph unicode="&#x22;" horiz-adv-x="280" d="M244 716h-76l12 -277h52zM112 716h-76l12 -277h52z" />
<glyph unicode="#" d="M18 308v-47h141l-36 -261h47l36 261h124l-36 -261h47l36 261h136v47h-129l16 116h139v47h-132l34 245h-47l-34 -245h-124l34 245h-47l-34 -245h-145v-47h138l-16 -116h-148zM213 308l16 116h124l-16 -116h-124z" />
<glyph unicode="$" d="M507 191q0 64 -27.5 102.5t-69.5 62.5t-90 39t-90 32.5t-69.5 43.5t-27.5 72q0 58 35.5 89t91.5 31q71 0 116.5 -35.5t47.5 -110.5h69v197h-11l-60 -68q-8 17 -20.5 30t-28.5 22t-33.5 15t-34.5 9v101h-46v-98q-44 -1 -83 -13t-68 -35.5t-45.5 -59t-16.5 -83.5 q0 -47 16 -78.5t42.5 -53.5t60.5 -36.5t69.5 -27t69.5 -25t60.5 -30.5t42.5 -43t16 -63q0 -62 -39 -93t-98 -31q-31 0 -60 12t-51.5 32t-36 47.5t-14.5 59.5h-71v-204h12l60 78q18 -37 56.5 -59.5t77.5 -28.5v-104h46v103q44 2 81 16.5t64 41t42 63t15 81.5z" />
<glyph unicode="%" horiz-adv-x="889" d="M620 729l-412 -741h61l410 741h-59zM269 729q-37 0 -64.5 -15t-45.5 -39.5t-26.5 -56.5t-8.5 -65q0 -34 8 -66.5t25 -58t44 -41t66 -15.5t66 15.5t44 40.5t25 57t8 66t-7 66.5t-23.5 57t-43.5 39.5t-67 15zM270 676q23 0 37 -12.5t21.5 -31.5t10 -40t2.5 -39 q0 -17 -3 -39t-11 -41.5t-22.5 -33t-36.5 -13.5q-23 0 -37.5 12.5t-22.5 31t-10.5 40t-2.5 39.5t3 40t11.5 41.5t23 32.5t37.5 13zM622 342q-37 0 -64 -15t-45 -39.5t-26.5 -56t-8.5 -64.5t8 -65.5t25 -57.5t44 -40.5t65 -15.5t65 15t44.5 39.5t25.5 56.5t8 66q0 35 -7 67 t-23.5 56.5t-43.5 39t-67 14.5zM623 289q23 0 37 -12.5t21.5 -31t10 -39.5t2.5 -39q0 -17 -3 -39t-11 -41t-22.5 -32t-36.5 -13q-23 0 -37.5 12.5t-22 30.5t-10 39t-2.5 39t3 39.5t11 41t22.5 32.5t37.5 13z" />
<glyph unicode="&#x26;" horiz-adv-x="778" d="M618 358l90 55v9h-245v-9l77 -55q0 -19 -2.5 -40.5t-7.5 -43.5t-12 -42.5t-16 -37.5l-173 192q30 16 55.5 35t44 43t29 53t10.5 65q0 37 -13.5 64.5t-37 46.5t-54 28.5t-64.5 9.5q-37 0 -70.5 -9t-59 -28t-41 -48.5t-15.5 -70.5q0 -51 26.5 -92.5t61.5 -76.5 q-72 -35 -108 -86.5t-36 -132.5q0 -49 18.5 -87t50 -64.5t73 -40t86.5 -13.5q67 0 116.5 21t96.5 69l64 -72h161v11l-107 55l-65 73q31 48 46.5 105t20.5 114zM285 436q-13 15 -27.5 31.5t-26.5 34.5t-19.5 37.5t-7.5 40.5q0 41 24.5 65t65.5 24q45 0 67 -25.5t22 -69.5 q0 -23 -8.5 -43t-22 -37.5t-31.5 -31.5t-36 -26zM253 350q100 -111 198 -225q-34 -34 -75 -54.5t-90 -20.5q-30 0 -55 11.5t-43.5 31t-29 45.5t-10.5 55q0 30 7.5 52.5t21.5 40.5t33 33.5t43 30.5z" />
<glyph unicode="'" horiz-adv-x="140" d="M108 716h-76l12 -277h52z" />
<glyph unicode="(" horiz-adv-x="333" d="M142 271q0 56 8 118t24.5 123t42 117.5t60.5 101.5h-74q-74 -97 -110.5 -218t-36.5 -242t36.5 -242t110.5 -218h74q-35 45 -60.5 101.5t-42 117.5t-24.5 123t-8 118z" />
<glyph unicode=")" horiz-adv-x="333" d="M181 271q0 -57 -8.5 -119.5t-26.5 -123t-45 -116.5t-64 -101h74q39 47 68 102.5t48.5 114.5t29.5 121t10 122t-10 122t-29.5 121t-48.5 114.5t-68 102.5h-74q37 -45 64 -101t45 -116.5t26.5 -123t8.5 -119.5z" />
<glyph unicode="*" horiz-adv-x="444" d="M223 510l68 -123l60 44l-96 102l138 27l-22 70l-128 -58l17 139h-74l17 -139l-128 58l-22 -70l138 -27l-96 -102l60 -44z" />
<glyph unicode="+" horiz-adv-x="660" d="M294 390h-223v-62h223v-224h62v224h224v62h-224v221h-62v-221z" />
<glyph unicode="," horiz-adv-x="278" d="M84 101v-101h47l-47 -141h58q1 4 8 26t15 47.5t14.5 46t6.5 21.5v101h-102z" />
<glyph unicode="-" horiz-adv-x="333" d="M49 313v-73h236v73h-236z" />
<glyph unicode="." horiz-adv-x="278" d="M87 100v-100h102v100h-102z" />
<glyph unicode="/" horiz-adv-x="352" d="M1 0h70l285 731h-70z" />
<glyph unicode="0" d="M509 358q0 38 -3.5 80.5t-12.5 83.5t-25 78.5t-41.5 66t-62 45.5t-85.5 17t-85.5 -17t-62 -45.5t-42 -66t-25.5 -78.5t-12.5 -83.5t-3.5 -80.5t3.5 -80.5t12.5 -83.5t25.5 -78.5t42 -65.5t61.5 -45t85 -17t85 17t62 45t42 65.5t25.5 78.5t13 83.5t3.5 80.5zM417 358 q0 -23 -1 -54.5t-5.5 -65t-13.5 -67t-24.5 -59.5t-38 -42t-55.5 -16t-56 16t-38.5 42t-24.5 59t-13.5 67t-5.5 65.5t-1 54.5t1 54.5t5.5 65.5t13.5 67t24.5 59.5t38 42.5t55.5 16q49 0 77 -34.5t41.5 -83t17 -100.5t3.5 -87z" />
<glyph unicode="1" d="M351 63v653h-92q-36 -38 -75 -71.5t-80 -65.5v-9l159 48v-555l-108 -55v-8h297v8z" />
<glyph unicode="2" d="M49 0h443v184h-9l-70 -115h-296q24 23 60.5 56t77 71.5t81 82t73 88.5t53 89t20.5 85q0 46 -16 81t-44 59t-66 36t-81 12q-106 0 -161.5 -56t-58.5 -161h12q0 30 16.5 57t42.5 47t59.5 32t66.5 12q27 0 51.5 -9.5t44 -26t31 -39t11.5 -48.5q0 -39 -20.5 -79t-50.5 -77.5 t-63.5 -70.5t-58.5 -58l-148 -145v-107z" />
<glyph unicode="3" d="M72 526q0 27 20.5 51.5t50.5 43t64.5 29.5t63.5 11q59 0 92.5 -34.5t33.5 -92.5q0 -36 -12 -61.5t-33 -42t-49.5 -24t-61.5 -7.5v-67q35 0 65 -8t51.5 -25.5t34 -44.5t12.5 -65q0 -28 -10.5 -52t-29 -41.5t-43 -27.5t-52.5 -10q-32 0 -67.5 11.5t-65.5 31t-50 45 t-20 54.5h-13q0 -107 59.5 -159.5t163.5 -52.5q46 0 85.5 13.5t69 39t46 63t16.5 85.5q0 73 -40 121t-115 54q69 11 108.5 56t39.5 115q0 47 -15 83.5t-42.5 61t-65.5 37t-83 12.5q-46 0 -86 -13.5t-70 -39.5t-47 -64t-17 -86h12z" />
<glyph unicode="4" d="M308 716l-280 -428v-97h305v-128l-110 -55v-8h282v8l-91 55v128h100v65h-100v460h-106zM333 638v-382h-243z" />
<glyph unicode="5" d="M477 716h-387l-14 -422h85q14 45 48.5 70.5t81.5 25.5q36 0 60.5 -14.5t39.5 -38t21.5 -53.5t6.5 -61q0 -33 -12 -63t-33.5 -53t-51.5 -37t-67 -14q-29 0 -59.5 10.5t-56 28.5t-41.5 42.5t-16 52.5h-10q0 -48 15 -86t42.5 -63.5t66.5 -39t86 -13.5q55 0 97 17.5 t70.5 49.5t42.5 76.5t14 97.5q0 48 -12.5 89.5t-37 72t-62.5 48.5t-89 18q-48 0 -88.5 -21.5t-59.5 -67.5l13 278l307 60v10z" />
<glyph unicode="6" d="M504 225q0 45 -11 87t-34.5 73.5t-60 50.5t-86.5 19q-61 0 -103 -31.5t-66 -85.5q1 27 3 62t8.5 71t19 70.5t34 61.5t53.5 43.5t77 16.5q26 0 52 -9.5t46 -25.5t33 -37.5t14 -44.5h10q-2 85 -50 134t-133 49q-54 0 -94 -16.5t-67.5 -45.5t-45 -67t-27.5 -81t-13.5 -88.5 t-3.5 -88.5q0 -59 7.5 -122t32 -114.5t70 -84.5t120.5 -33q52 0 92.5 18.5t67.5 50.5t41 75t14 93zM290 53q-36 0 -61.5 15t-41 39.5t-23 55t-7.5 61.5t8.5 60.5t25.5 52.5t42.5 37t59.5 14t58 -14t39 -37t21.5 -52t6.5 -59q0 -29 -7 -60t-22.5 -56t-40 -41t-58.5 -16z" />
<glyph unicode="7" d="M514 716h-458v-196h6l75 125h296q-78 -160 -144 -318t-123 -327h94q52 168 115.5 326.5t138.5 317.5v72z" />
<glyph unicode="8" d="M281 336q64 0 97 -38t33 -99q0 -66 -34 -106t-102 -40q-33 0 -57 11.5t-40.5 31.5t-24.5 47t-8 57q0 63 36 99.5t100 36.5zM279 666q60 0 93.5 -34.5t33.5 -94.5q0 -28 -8.5 -53.5t-24.5 -45t-39.5 -31.5t-52.5 -12t-53 11t-41 29.5t-26.5 44t-9.5 54.5q0 59 34 95.5 t94 36.5zM207 369q-72 -12 -111 -58.5t-39 -118.5q0 -51 16 -89.5t45.5 -64t70 -38t89.5 -12.5t89.5 13t69.5 39.5t45.5 65t16.5 89.5q0 74 -40 119t-112 56q68 15 106 55.5t38 112.5q0 48 -16.5 84t-45 60t-67.5 35.5t-84 11.5q-46 0 -84.5 -12.5t-66.5 -37.5t-44 -61.5 t-16 -84.5q0 -70 37.5 -109t102.5 -55z" />
<glyph unicode="9" d="M54 492q0 -45 11 -86.5t34 -74t59.5 -51.5t86.5 -19q64 0 104 32t66 87q-1 -27 -2.5 -61.5t-7 -71t-16 -71t-28.5 -62t-44.5 -44t-64.5 -16.5q-87 0 -130.5 34.5t-45.5 82.5h-12q3 -85 50 -134t133 -49q54 0 94 16.5t68 45.5t45.5 67t27.5 81t13.5 88.5t3.5 88.5 q0 59 -7.5 122t-32 114.5t-70 84.5t-120.5 33q-53 0 -93 -18.5t-67 -50.5t-41 -75t-14 -93zM270 663q34 0 58.5 -15t40.5 -39t23.5 -54t7.5 -60t-8.5 -60t-25 -54t-42 -38.5t-59.5 -14.5q-35 0 -58.5 15t-38 38.5t-21 53t-6.5 59.5t7 60t23 54t40 39.5t59 15.5z" />
<glyph unicode=":" horiz-adv-x="389" d="M143 501v-100h102v100h-102zM143 100v-100h102v100h-102z" />
<glyph unicode=";" horiz-adv-x="389" d="M139 501v-100h102v100h-102zM140 101v-101h47l-47 -141h58q1 4 8 26t15 47.5t14.5 46t6.5 21.5v101h-102z" />
<glyph unicode="&#x3c;" horiz-adv-x="660" d="M121 357l475 214v63l-542 -248v-58l542 -248v63z" />
<glyph unicode="=" horiz-adv-x="660" d="M76 401h507v62h-507v-62zM76 251h507v62h-507v-62z" />
<glyph unicode="&#x3e;" horiz-adv-x="660" d="M54 143v-63l542 248v58l-542 248v-63l475 -214z" />
<glyph unicode="?" horiz-adv-x="500" d="M250 727q-95 0 -152.5 -47.5t-60.5 -146.5h8q0 26 13 49t38.5 40.5t63 27.5t86.5 10q57 0 85 -34t28 -88q0 -40 -13.5 -66t-33.5 -47t-44 -40.5t-44 -46.5t-33.5 -67t-13.5 -100v-6h88q0 23 1.5 45.5t8.5 45.5q7 24 22.5 42.5t35 36.5t40.5 37.5t38 44t28 56t11 74.5 q0 42 -16.5 75.5t-44 57t-63.5 35.5t-76 12zM173 94v-94h95v94h-95z" />
<glyph unicode="@" horiz-adv-x="900" d="M464 728q-76 0 -147 -27.5t-125.5 -76.5t-87.5 -115.5t-33 -145.5q0 -83 33 -151.5t88 -117t127.5 -75t152.5 -26.5q36 0 81.5 8t89.5 23.5t81.5 39t59.5 55.5l-23 31q-23 -30 -58.5 -52.5t-76 -36.5t-83 -21t-78.5 -7q-68 0 -131.5 24t-112.5 67.5t-78.5 103.5 t-29.5 131q0 72 29.5 132.5t78.5 104t113 68t133 24.5q55 0 111 -16.5t101.5 -49t74 -80t28.5 -108.5q0 -32 -11.5 -73t-33 -78.5t-52 -63t-67.5 -25.5q-20 0 -30.5 12.5t-10.5 31.5q0 9 5.5 32.5t14 53.5t18.5 64.5t19.5 66t17.5 56.5t12 38h-48l-16 -63q-11 37 -41 60 t-69 23q-50 0 -94.5 -20t-77.5 -54.5t-52.5 -79.5t-19.5 -95q0 -32 10 -61.5t29 -52.5t46.5 -36.5t61.5 -13.5q38 0 78 17t65 47q5 -24 19 -45t43 -21q50 0 91 26.5t70.5 67.5t46 89.5t16.5 93.5q0 71 -32 126.5t-83 93.5t-115 57.5t-128 19.5zM481 529q18 0 35.5 -6.5 t31 -18.5t22 -28t8.5 -35q0 -35 -13.5 -75t-27.5 -72q-19 -42 -49.5 -68.5t-79.5 -26.5q-52 0 -81 34.5t-29 83.5q0 37 13.5 75t37.5 68.5t57.5 49.5t74.5 19z" />
<glyph unicode="A" horiz-adv-x="778" d="M503 304h-240l121 333zM758 6l-70 60l-250 650h-101l-253 -650l-74 -60v-6h262v6l-98 60l61 172h296l62 -172l-99 -60v-6h264v6z" />
<glyph unicode="B" horiz-adv-x="667" d="M217 334h152q67 0 102.5 -30t35.5 -99q0 -33 -12.5 -59t-34 -44t-50 -27t-59.5 -9h-134v268zM376 0q48 0 89 13t70.5 38.5t46 63.5t16.5 89q0 73 -42 120.5t-117 50.5q31 3 57 16.5t44.5 34.5t29 48.5t10.5 58.5q0 90 -50 136.5t-138 46.5h-362v-6l100 -60l-2 -584 l-99 -60v-6h347zM217 399v251h141q31 0 55.5 -5.5t42 -19t26.5 -35.5t9 -56q0 -36 -12 -62t-33 -42t-50 -23.5t-62 -7.5h-117z" />
<glyph unicode="C" horiz-adv-x="722" d="M156 358q0 58 11.5 112.5t38.5 95.5t72 66t113 25q48 0 82 -14t56.5 -40t35 -62t17.5 -79h78v254h-10l-62 -105q-14 33 -36.5 55t-50.5 35.5t-60.5 19.5t-65.5 6q-81 0 -140.5 -30.5t-98.5 -81.5t-58 -118t-19 -141q0 -77 18.5 -144.5t58 -117t100 -78t144.5 -28.5 q61 0 111.5 16t87.5 47.5t59 79t25 110.5h-13q-5 -81 -73 -131t-191 -50q-66 0 -110 25.5t-70.5 67t-38 95t-11.5 110.5z" />
<glyph unicode="D" horiz-adv-x="722" d="M580 348q0 -136 -69.5 -209t-206.5 -73h-91v584h102q71 0 121.5 -22.5t82.5 -62.5t46.5 -95.5t14.5 -121.5zM126 650l-2 -584l-99 -60v-6h294q174 0 262.5 92.5t88.5 264.5q0 84 -21.5 151t-64 113t-107 70.5t-150.5 24.5h-302v-6z" />
<glyph unicode="E" horiz-adv-x="667" d="M601 0v223h-8l-70 -157h-305v265h248l60 -107h12v281h-12l-60 -108h-248v253h305l70 -148h8v214h-572v-6l102 -60l-2 -584l-100 -60v-6h572z" />
<glyph unicode="F" horiz-adv-x="611" d="M209 66v252l236 -1l60 -109l8 1v278l-8 -1l-61 -103l-235 1v266h285l70 -151h8v217h-551v-6l101 -60l-2 -584l-99 -60v-6h307v6z" />
<glyph unicode="G" horiz-adv-x="778" d="M154 349q0 54 10.5 109t36 99.5t68 72.5t107.5 28q94 0 144 -52.5t55 -143.5h79v254h-9l-70 -94q-13 26 -34.5 45.5t-47.5 33t-55 20t-57 6.5q-84 0 -145 -28.5t-100.5 -78.5t-58.5 -117.5t-19 -145.5q0 -76 17.5 -143t55 -117.5t96.5 -79.5t143 -29q31 0 63.5 7.5 t61 22.5t51 38t34.5 54l70 -110h13v289l89 60v5h-281v-5l110 -60q0 -45 -13.5 -86.5t-39 -74t-63.5 -51.5t-86 -19q-62 0 -105 25.5t-69.5 66.5t-38.5 93t-12 106z" />
<glyph unicode="H" horiz-adv-x="778" d="M131 650l-2 -584l-98 -60v-6h287v6l-100 60v260h341l-2 -260l-98 -60v-6h287v6l-100 60l2 584l98 60v6h-287v-6l100 -60v-254h-341l2 254l98 60v6h-287v-6z" />
<glyph unicode="I" horiz-adv-x="333" d="M211 66v584l100 60v6h-288v-6l100 -60v-584l-100 -60v-6h288v6z" />
<glyph unicode="J" horiz-adv-x="500" d="M319 650v-441q0 -29 -11 -56t-30.5 -48t-45.5 -34t-55 -13q-30 0 -57 15t-47.5 38.5t-32.5 52.5t-12 57h-8q0 -50 8 -92.5t28.5 -73.5t57 -48.5t93.5 -17.5q103 0 151 53.5t48 153.5q0 114 0.5 227t1.5 227l77 60v6h-271v-6z" />
<glyph unicode="K" horiz-adv-x="667" d="M209 66v314l264 -314l-87 -60v-6h284v6q-3 2 -16.5 11.5t-29 20t-28 19t-13.5 9.5q-71 74 -136.5 155t-132.5 159l176 180q18 18 37.5 38.5t41 41t44 38.5t45.5 32v6h-278v-6l87 -60l-258 -270l2 270l96 60v6h-287v-6l102 -60l-2 -584l-100 -60v-6h287v6z" />
<glyph unicode="L" horiz-adv-x="611" d="M222 650l117 60v6h-310v-6l103 -60l-2 -584l-101 -58v-8h543v234h-11l-70 -162h-272z" />
<glyph unicode="M" horiz-adv-x="944" d="M664 716l-194 -612l-188 612h-252v-6l103 -60v-584l-103 -57v-9h272v10l-93 56v597l220 -663h78l221 663v-597l-93 -56v-10h277v9l-100 57v584l100 60v6h-248z" />
<glyph unicode="N" horiz-adv-x="778" d="M576 91l-316 625h-231v-6l101 -60v-584l-101 -59v-7h280v9l-103 57v574l327 -640h119v650l99 60v6h-276v-6l101 -60v-559z" />
<glyph unicode="O" horiz-adv-x="778" d="M626 357q0 -56 -12.5 -110.5t-40.5 -97.5t-73 -69.5t-110 -26.5t-110.5 26.5t-73.5 69.5t-40.5 97.5t-12.5 110.5q0 57 12.5 111.5t40.5 97.5t73.5 69.5t110.5 26.5t110 -26.5t73 -69.5t40.5 -98t12.5 -111zM722 357q0 78 -21 145.5t-62.5 117.5t-103.5 78.5t-145 28.5 t-145.5 -28.5t-104 -78.5t-62.5 -117.5t-21 -145.5t21 -145.5t62.5 -117t104 -78t145.5 -28.5q82 0 144.5 28.5t104 78.5t62.5 117t21 145z" />
<glyph unicode="P" horiz-adv-x="611" d="M218 360v290h112q73 0 115 -33.5t42 -110.5q0 -72 -33.5 -109t-106.5 -37h-129zM218 294h158q48 0 85 16t62.5 44t39 67t13.5 85q0 103 -56 156.5t-159 53.5h-332v-6l102 -60l-2 -584l-100 -55v-11h309v11l-120 55v228z" />
<glyph unicode="Q" horiz-adv-x="778" d="M603 357q0 -56 -12.5 -110.5t-40.5 -97.5t-73 -69.5t-110 -26.5t-110.5 26.5t-73.5 69.5t-40.5 97.5t-12.5 110.5q0 57 12.5 111.5t40.5 97.5t73.5 69.5t110.5 26.5t110 -26.5t73 -69.5t40.5 -98t12.5 -111zM755 6l-130 44q20 30 34 68.5t23 79.5t13 82.5t4 76.5 q0 78 -21 145.5t-62.5 117.5t-103.5 78.5t-145 28.5t-145.5 -28.5t-104 -78.5t-62.5 -117.5t-21 -145.5t21 -145.5t62.5 -117t104 -78t145.5 -28.5q22 0 44 4.5t42 4.5h302v9z" />
<glyph unicode="R" horiz-adv-x="667" d="M211 315h99q34 0 56 -4.5t36.5 -16.5t24 -32.5t18.5 -52.5l60 -209h147v6l-77 60l-52 182q-7 24 -15 40.5t-20 27t-29.5 17t-41.5 11.5q38 0 67 15.5t48.5 41t29 58.5t9.5 68q0 100 -52.5 144.5t-149.5 44.5h-347v-6l102 -60l-2 -584l-100 -60v-6h286v6l-97 60v249z M211 382v268h138q67 0 100.5 -30.5t33.5 -99.5q0 -75 -41.5 -106.5t-112.5 -31.5h-118z" />
<glyph unicode="S" d="M513 194q0 48 -16 81.5t-42.5 57t-60 38.5t-68.5 27.5t-68.5 23.5t-60 26.5t-42.5 37t-16 54.5q0 59 36 90.5t93 31.5q42 0 71 -14t47 -38t26 -57t8 -71h77v234h-9l-68 -67q-25 45 -69.5 61.5t-93.5 16.5q-45 0 -83.5 -12.5t-67 -36.5t-44.5 -60t-16 -83t16 -79t42.5 -54 t60 -37t69 -27t69 -24.5t60 -29.5t42.5 -42t16 -62q0 -62 -37.5 -93t-97.5 -31q-42 0 -72 15t-50 40.5t-30 59t-11 71.5h-76v-242h9l67 90q24 -57 69.5 -79.5t104.5 -22.5q47 0 86.5 14t68.5 41t45 65t16 86z" />
<glyph unicode="T" horiz-adv-x="667" d="M372 66v574h164l70 -153h10v229h-578v-229h10l70 153h167l-2 -574l-108 -60v-6h307v6z" />
<glyph unicode="U" horiz-adv-x="722" d="M539 266q0 -42 -10.5 -79.5t-32 -66t-55 -45t-78.5 -16.5t-78 15.5t-54 42t-31 63t-10 78.5l2 392l105 60v6h-282v-6l88 -60v-413q0 -56 19 -101.5t52.5 -78.5t80 -51t101.5 -18q62 0 110 19.5t81.5 55t51 85.5t17.5 110l2 392l87 60v6h-271v-6l105 -60v-384z" />
<glyph unicode="V" horiz-adv-x="722" d="M455 710l103 -60l-197 -562l-194 562l105 60v6h-278v-6l78 -60l236 -650h99l241 650l78 60v6h-271v-6z" />
<glyph unicode="W" horiz-adv-x="1000" d="M846 650l-124 -569l-154 635h-125l-163 -629l-120 563l103 60v6h-259v-6l68 -60l146 -650h118l163 666l162 -666h117l150 650l74 59v7h-259v-6z" />
<glyph unicode="X" horiz-adv-x="722" d="M427 710l94 -60l-149 -208l-147 208l94 60v6h-298v-6l95 -60l195 -275l-224 -309l-91 -60v-6h300v6l-110 60l180 245l171 -245l-105 -60v-6h293v6q-3 2 -15 11.5t-26 20t-25 19t-12 9.5q-28 35 -56 74.5t-55.5 80t-54.5 80.5t-53 78l194 271l95 60v6h-290v-6z" />
<glyph unicode="Y" horiz-adv-x="667" d="M412 710l94 -60l-169 -280l-170 280l99 60v6h-264v-6q2 -2 12 -11.5t22 -20t21.5 -19t9.5 -9.5l221 -358l-2 -226l-109 -60v-6h309v6l-111 60v227l225 357q0 1 10 9.5t21.5 19t22 20t12.5 11.5v6h-254v-6z" />
<glyph unicode="Z" horiz-adv-x="611" d="M492 69h-360l428 563v84h-515v-212h10l70 144h337l-424 -557v-91h531v219h-10z" />
<glyph unicode="[" horiz-adv-x="333" d="M176 676q19 -2 38 -1.5t39 0.5v56h-153v-920h153v56h-54l-23 -1v810z" />
<glyph unicode="\" horiz-adv-x="580" d="M380 0h68l-299 731h-68z" />
<glyph unicode="]" horiz-adv-x="333" d="M153 676v-810q-19 2 -38 1.5t-39 -0.5v-56h153v920h-153v-56h54z" />
<glyph unicode="^" horiz-adv-x="660" d="M116 176l213 468l214 -468h62l-248 540h-56l-247 -540h62z" />
<glyph unicode="_" horiz-adv-x="500" d="M500 -113v65h-500v-65h500z" />
<glyph unicode="`" horiz-adv-x="278" d="M202 600l-112 138h-77l138 -138h51z" />
<glyph unicode="a" d="M383 253q0 -37 -8.5 -74.5t-27.5 -67.5t-49 -48.5t-73 -18.5q-49 0 -71.5 29t-22.5 75q0 33 11.5 54t30.5 33t44.5 17t54.5 5q28 0 55.5 -1t55.5 -3zM383 104v-104h158v8l-82 55v304q0 46 -15 78.5t-41 53t-62.5 30t-78.5 9.5q-81 0 -128 -37.5t-52 -126.5h7 q1 27 13.5 47.5t32.5 34t46 19.5t55 3q43 -5 71.5 -14.5t45 -25.5t23.5 -38t7 -51v-34q-34 0 -72 1t-75.5 -1.5t-72 -11t-61 -27t-42 -49.5t-15.5 -79q0 -80 47.5 -121.5t124.5 -41.5q60 0 103 31t63 88z" />
<glyph unicode="b" horiz-adv-x="611" d="M184 433v283h-161v-6l80 -53v-594l-83 -55v-8h164v95q10 -24 26.5 -43t38 -32t46 -20t50.5 -7q62 0 106 21.5t71.5 58.5t40.5 86.5t13 105.5q0 54 -12 103.5t-38.5 87t-69 60t-103.5 22.5q-57 0 -100 -28.5t-69 -76.5zM181 267q0 37 9 74t28 67t49.5 48.5t73.5 18.5 q42 0 70.5 -19.5t46.5 -50.5t26 -68t8 -72q0 -37 -8 -74t-26.5 -67t-48.5 -48.5t-73 -18.5q-47 0 -77 18t-47.5 47.5t-24 67.5t-6.5 77z" />
<glyph unicode="c" horiz-adv-x="500" d="M402 177q-3 -24 -13 -45.5t-26 -38t-37 -26t-46 -9.5q-41 0 -70 19t-48 49t-27.5 66.5t-8.5 71.5q0 37 7.5 74t25.5 67t47.5 48.5t73.5 18.5q29 0 53 -12t40.5 -31.5t26 -45.5t9.5 -53h63v192h-9l-54 -65q-23 42 -62 61.5t-86 19.5q-58 0 -100 -24.5t-69.5 -64t-41 -89.5 t-13.5 -101q0 -56 15.5 -104.5t45.5 -84.5t75 -56.5t104 -20.5q42 0 77.5 13t62.5 37t43.5 58t18.5 76h-77z" />
<glyph unicode="d" horiz-adv-x="611" d="M432 106v-106h165v9l-84 54v653h-167v-9l85 -50v-218q-25 48 -68 73.5t-98 25.5q-61 0 -103 -22.5t-68.5 -60.5t-38 -87t-11.5 -103q0 -53 12.5 -102t39.5 -87t69 -60.5t101 -22.5q57 0 102.5 29t63.5 84zM432 258q0 -36 -7.5 -72.5t-24.5 -65.5t-45.5 -47.5t-71.5 -18.5 q-44 0 -73.5 20t-47.5 51.5t-25.5 69.5t-7.5 75q0 35 8.5 71.5t27 66.5t47.5 49t70 19q45 0 74.5 -20.5t46 -52t23 -70t6.5 -75.5z" />
<glyph unicode="e" d="M513 163l-10 -1q-1 -24 -16.5 -44.5t-40 -35.5t-54 -23.5t-59.5 -7.5q-57 2 -94 18t-59.5 41.5t-32.5 60t-12 74.5h386q0 59 -9 112.5t-33.5 93.5t-68 63.5t-113.5 23.5q-63 0 -109 -22t-76.5 -59.5t-45 -88.5t-14.5 -109q0 -62 15 -111t46 -83.5t78 -53t111 -18.5 q38 0 74 12t64.5 34t47.5 53.5t25 70.5zM136 304q2 32 13.5 63.5t31 56.5t47.5 40.5t64 15.5q39 0 66 -15t44.5 -39.5t25 -56.5t7.5 -66q-75 5 -149.5 3t-149.5 -2z" />
<glyph unicode="f" horiz-adv-x="333" d="M191 63v400h110v59h-110q0 28 0.5 53.5t8 45t26 30.5t54.5 11q18 0 37 -1.5t36 -6.5v68q-23 4 -44.5 6.5t-44.5 2.5q-55 0 -86 -15.5t-46.5 -43.5t-19 -66.5t-3.5 -83.5h-91v-59h91v-400l-88 -56v-7h268v7z" />
<glyph unicode="g" horiz-adv-x="611" d="M434 91q0 -43 -6 -81.5t-24.5 -68.5t-54 -49t-95.5 -23q-28 -2 -58 1.5t-55.5 13t-42.5 25.5t-20 40h-11q4 -43 24.5 -70.5t50.5 -43t66.5 -21.5t72.5 -6q112 0 173 56t61 170v437l72 45v6l-163 1v-93q-23 51 -63.5 79t-97.5 28q-59 0 -101.5 -21t-70 -57t-41 -83.5 t-13.5 -101.5q0 -55 12 -106t38.5 -90t69.5 -62t106 -23q57 0 99.5 25t71.5 73zM434 257q0 -36 -9.5 -72.5t-29 -65t-50 -46.5t-71.5 -18q-42 0 -71 19.5t-46.5 50t-25 67.5t-7.5 72q0 37 8 74t26.5 65.5t48 46.5t73.5 18q42 0 71.5 -19.5t48 -50.5t26.5 -68t8 -73z" />
<glyph unicode="h" horiz-adv-x="611" d="M520 63v309q0 83 -45 124.5t-126 41.5q-101 0 -154 -87v265h-165v-7l83 -52v-594l-84 -54v-9h251v9l-85 54v249q0 30 7.5 59t23.5 52.5t40.5 37.5t58.5 14q36 0 58 -10.5t34 -29.5t16.5 -45.5t4.5 -57.5v-269l-85 -54v-9h252v9z" />
<glyph unicode="i" horiz-adv-x="296" d="M111 632h94v84h-94v-84zM200 63v459h-165v-6l83 -53v-400l-84 -56v-7h246v7z" />
<glyph unicode="j" horiz-adv-x="278" d="M106 632h94v84h-94v-84zM113 463v-485q0 -20 -2 -43.5t-9 -44.5t-20.5 -35t-35.5 -14q-11 0 -23.5 2t-23.5 4v-15q31 -7 66 -7q38 0 63 9.5t40 28t21 45.5t6 63v551h-169v-7z" />
<glyph unicode="k" d="M25 707l83 -50v-594l-83 -53v-10h238v10l-73 53v126l91 91l115 -216l-61 -53v-11h209v11l-56 53l-148 268l125 131l70 50v9h-235v-9l77 -50l-187 -198v451h-165v-9z" />
<glyph unicode="l" horiz-adv-x="278" d="M21 707l83 -50v-594l-83 -53v-10h244v10l-79 53v653h-165v-9z" />
<glyph unicode="m" horiz-adv-x="889" d="M801 63v309q0 79 -43 122.5t-122 43.5q-56 0 -92 -28.5t-53 -80.5q-16 53 -54 81t-93 28t-93.5 -27t-54.5 -80v91h-166v-9l85 -50v-400l-85 -54v-9h247v9l-81 54v249q0 29 6.5 58t20.5 52.5t37.5 38t57.5 14.5q56 0 77.5 -32.5t21.5 -83.5v-296l-79 -54v-9h242v9l-81 54 v259q0 28 7.5 55.5t22.5 49.5t38.5 35t55.5 13q28 0 46.5 -8.5t29.5 -24t16 -37t5 -46.5v-296l-80 -54v-9h238v9z" />
<glyph unicode="n" horiz-adv-x="611" d="M514 63v309q0 81 -43 123.5t-124 42.5q-60 0 -96.5 -26t-56.5 -82v92h-167v-9l85 -50v-400l-87 -54v-9h250v9l-81 54v249q0 29 7.5 58t23 52.5t39.5 38t57 14.5q36 0 57.5 -11t33.5 -30t16 -45t4 -57v-269l-82 -54v-9h245v9z" />
<glyph unicode="o" d="M520 265q0 57 -15 106.5t-45 86.5t-75 58.5t-106 21.5t-106.5 -21.5t-75.5 -58t-45 -86.5t-15 -107t15 -106.5t45 -86t75.5 -58t106.5 -21.5q60 0 105.5 21.5t75.5 58t45 86t15 106.5zM434 265q0 -38 -7.5 -75.5t-25.5 -67.5t-48 -48.5t-74 -18.5q-45 0 -75 18.5 t-48 48.5t-25.5 67.5t-7.5 75.5t7.5 75.5t25.5 67.5t48 49t75 19t74.5 -19t47.5 -49t25.5 -68t7.5 -75z" />
<glyph unicode="p" horiz-adv-x="611" d="M185 96q27 -48 67.5 -75.5t97.5 -27.5q61 0 104 22.5t70 60.5t39.5 88t12.5 105q0 52 -12 100.5t-38 86t-67 60t-100 22.5q-63 0 -105.5 -31.5t-68.5 -86.5v102h-162v-9l80 -50v-562l-83 -56v-7h248v7l-83 56v195zM185 265q0 39 7.5 77t25.5 68t48.5 48.5t76.5 18.5 q43 0 72 -19.5t46.5 -50.5t25 -68.5t7.5 -73.5q0 -35 -8 -72.5t-26 -68.5t-46.5 -51t-70.5 -20q-46 0 -76.5 18.5t-48.5 48.5t-25.5 68t-7.5 77z" />
<glyph unicode="q" horiz-adv-x="611" d="M427 97v-196l-83 -54v-9h248v9l-83 54v562l81 52v7h-163v-96q-10 26 -27.5 47t-40 35.5t-48.5 22t-54 7.5q-62 0 -104 -22.5t-68 -60t-37.5 -87t-11.5 -103.5t12.5 -103.5t40 -87t70.5 -59.5t103 -22q58 0 98 27t67 77zM427 273q0 -38 -7 -77t-24.5 -70.5t-47 -52 t-75.5 -20.5q-42 0 -71.5 20t-47.5 51t-26.5 68.5t-8.5 72.5q0 36 7.5 74t25.5 68.5t47 50t73 19.5q42 0 71.5 -18.5t48 -47.5t27 -65.5t8.5 -72.5z" />
<glyph unicode="r" horiz-adv-x="389" d="M196 63v209q0 36 7 70t23.5 60.5t44.5 42t70 15.5q8 0 16 -1.5t16 -2.5v75q-38 0 -65.5 -3t-48 -14.5t-35.5 -33.5t-28 -60v102h-165v-9l83 -50v-400l-83 -53v-10h263v10z" />
<glyph unicode="s" horiz-adv-x="500" d="M444 150q0 56 -22.5 86t-56.5 45t-73 21t-73 14t-56.5 24t-22.5 51q0 22 9.5 38.5t24.5 27t34.5 15.5t39.5 5q60 0 93 -31t33 -92h64v168h-10l-53 -54q-21 40 -58.5 55t-80.5 15q-35 0 -67 -9.5t-56.5 -28.5t-39 -47.5t-14.5 -66.5q0 -42 13 -68.5t34 -42.5t48 -23.5 t55.5 -12.5t55.5 -9.5t48 -13.5t34 -25t13 -44q0 -22 -8.5 -39t-23 -29t-33.5 -18.5t-39 -6.5q-62 0 -98 32t-43 94h-63v-180h10l53 81q26 -48 62 -68t90 -20q35 0 67 10.5t56.5 30.5t39 49t14.5 67z" />
<glyph unicode="t" horiz-adv-x="370" d="M179 125v338h150v59h-150v133l-7 -1l-75 -132h-89v-59h89v-322q0 -33 5.5 -60.5t19 -47t37.5 -30t61 -10.5q39 0 64 13.5t39 36.5t19 53t5 64h-15q0 -14 -7 -32t-19 -35t-29 -28.5t-36 -11.5q-32 0 -47 22.5t-15 49.5z" />
<glyph unicode="u" horiz-adv-x="611" d="M501 522h-170v-8l88 -51v-228q0 -32 -7 -64.5t-22.5 -58.5t-41.5 -42.5t-63 -16.5q-34 0 -54 12t-30.5 32.5t-14 46.5t-3.5 54v324h-163v-8l81 -51v-286q0 -45 9 -79.5t29.5 -58t53.5 -35t80 -11.5q57 0 92 25.5t54 78.5v-97h163v13l-81 50v459z" />
<glyph unicode="v" d="M488 463l53 50v9h-218v-9l84 -50l-127 -405l-126 405l85 50v9h-224v-9l52 -50l160 -463h103z" />
<glyph unicode="w" horiz-adv-x="889" d="M505 522h-114l-126 -459l-104 400l88 50v9h-234v-9l60 -50l134 -463h107l130 470l129 -470h107l134 463l57 50v9h-226v-9l88 -50l-102 -401z" />
<glyph unicode="x" d="M487 463l70 50v9h-233v-9l80 -50l-115 -149l-113 149l72 50v9h-251v-9l82 -50l154 -192l-166 -208l-76 -53v-10h248v13l-86 50l124 153l120 -153l-80 -50v-13h247v10l-72 53l-159 200z" />
<glyph unicode="y" d="M328 513l83 -50l-124 -364l-128 364l81 50v9h-223v-9l50 -50l175 -463q-6 -17 -12 -43.5t-16 -52t-24.5 -44t-36.5 -18.5q-14 0 -28.5 2.5t-28.5 4.5v-16q15 -2 32 -4.5t32 -2.5q32 0 55 9.5t40.5 26t30 39.5t22.5 50l189 512l46 50v9h-215v-9z" />
<glyph unicode="z" horiz-adv-x="500" d="M56 522v-166h10l60 105h227l-304 -395v-66h402v179h-10l-60 -117h-240l307 396v64h-392z" />
<glyph unicode="{" horiz-adv-x="300" d="M36 270q43 -10 61 -35t18 -68v-215q0 -33 6.5 -59t21 -44.5t38.5 -28t59 -9.5q5 0 11 1t11 2q-24 1 -39.5 13t-24.5 29t-12 38t-3 41v202q0 24 -4 46t-14 39.5t-27 30t-43 18.5q37 8 56.5 31t27.5 55t7.5 71t-2.5 79t-3 78t6 69t24.5 51.5t52.5 25.5h-24q-35 0 -59 -9.5 t-38.5 -28t-21 -44.5t-6.5 -59v-215q0 -44 -18.5 -68.5t-60.5 -36.5z" />
<glyph unicode="|" horiz-adv-x="660" d="M294 0h62v731h-62v-731z" />
<glyph unicode="}" horiz-adv-x="300" d="M255 272q-42 11 -57.5 36.5t-15.5 66.5v215q0 32 -5.5 58t-19 44.5t-36.5 28.5t-58 10q-5 0 -11.5 -1t-11.5 -2q31 -2 47 -21t22 -49t5.5 -68t-2.5 -78.5t-2 -80.5q0 -39 7.5 -72t25.5 -56.5t53 -31.5q-46 -11 -63.5 -47t-20.5 -85t1.5 -103.5t2.5 -102.5t-17.5 -81.5 t-58.5 -40.5h23q35 0 58 10t36.5 28.5t19 44.5t5.5 58v215q0 42 16 67t57 38z" />
<glyph unicode="~" horiz-adv-x="660" d="M209 366q24 0 53.5 -11.5t61 -25t64 -24.5t62.5 -11q28 0 50.5 8.5t40.5 23.5t33 34.5t29 41.5l-48 31q-9 -14 -19.5 -28.5t-23.5 -26t-28 -19t-34 -7.5q-25 0 -54 11t-60.5 24.5t-64 25t-62.5 11.5q-28 0 -50.5 -8.5t-40.5 -23.5t-33.5 -34.5t-28.5 -41.5l48 -31 q17 30 42 55.5t63 25.5z" />
<glyph unicode="&#xa1;" horiz-adv-x="389" d="M241 445v94h-95v-94h95zM144 -177h103l-22 548h-64z" />
<glyph unicode="&#xa2;" d="M317 -98v93q80 5 132 54t56 130h-77q-2 -23 -11 -43.5t-23.5 -36.5t-34 -26.5t-42.5 -12.5v412q27 -2 49 -15t37.5 -32.5t23.5 -44t8 -50.5h63v192h-63v-65q-18 33 -49.5 53.5t-68.5 25.5v87h-41v-85q-54 -4 -93.5 -29.5t-64.5 -64.5t-37 -87.5t-12 -96.5 q0 -50 12.5 -95.5t38 -80.5t64.5 -58t92 -29v-95h41zM276 64q-33 9 -55.5 30.5t-36.5 49t-20 59.5t-6 62q0 33 5 65t18.5 60t36.5 48.5t58 30.5v-405z" />
<glyph unicode="&#xa3;" d="M35 0h459v175h-16l-60 -106h-213v290h126v68h-126v97q0 28 6 53t19.5 43.5t35 29t53.5 10.5q46 0 78 -5t51 -16.5t27.5 -31t8.5 -48.5h19q0 40 -14 72t-39 53.5t-58 33t-72 11.5q-74 0 -115.5 -25.5t-61 -67.5t-23.5 -96.5t-4 -112.5h-85v-68h85v-293l-81 -50v-16z" />
<glyph unicode="&#xa4;" horiz-adv-x="722" d="M16 251h82q11 -58 35.5 -106t63 -83t91.5 -54.5t122 -19.5q61 0 111.5 16t87.5 47.5t59 79t25 110.5h-13q-3 -41 -28.5 -74t-64 -57t-84 -37t-87.5 -13q-50 0 -87 15t-63.5 40.5t-43 60.5t-25.5 75h326v62h-335q-1 11 -1.5 22.5t-0.5 22.5v21q0 11 1 22h336v62h-327 q8 41 25 76.5t44 61.5t65.5 41t90.5 15q48 0 82 -14t56.5 -40t35 -62t17.5 -79h78v254h-10l-62 -105q-14 33 -36.5 55t-50.5 35.5t-60.5 19.5t-65.5 6q-66 0 -117.5 -20.5t-89.5 -56t-62.5 -83.5t-35.5 -104h-84v-62h75q-1 -11 -1.5 -22.5t-0.5 -22.5v-22q0 -10 1 -21h-74 v-62z" />
<glyph unicode="&#xa5;" horiz-adv-x="717" d="M65 266v-45h247l-1 -155l-109 -55v-11h307v11l-111 55v155h250v45h-250v27l28 45h222v45h-194l168 267l88 56v10h-274v-10l92 -56l-167 -280l-168 280l97 56v10h-284v-10l87 -56l164 -267h-192v-45h220l28 -46v-26h-248z" />
<glyph unicode="&#xa6;" horiz-adv-x="660" d="M294 0h62v294h-62v-294zM294 436h62v295h-62v-295z" />
<glyph unicode="&#xa7;" d="M213 416l115 -49q28 -12 46 -31t18 -51q0 -27 -13.5 -52t-36.5 -39l-116 48q-28 11 -46 31t-18 52q0 28 14 52t37 39zM394 166q42 17 64 52.5t22 80.5q0 46 -23 75.5t-57.5 49.5t-74.5 34t-74.5 29.5t-57.5 35.5t-23 52q0 22 8 38t22 27t32.5 16.5t38.5 5.5q28 0 59 -8 t57 -23t43 -36t17 -47h19q0 96 -50 137.5t-143 41.5q-36 0 -70.5 -8.5t-61 -27.5t-43 -48t-16.5 -69q0 -42 20 -76.5t58 -54.5q-42 -17 -64 -52.5t-22 -80.5q0 -46 23 -75t57.5 -49t74.5 -34.5t74.5 -30t57.5 -35.5t23 -52q0 -43 -30 -65t-70 -22q-28 0 -59 8t-57.5 22.5 t-43.5 35.5t-17 48h-19q0 -96 50.5 -137.5t142.5 -41.5q36 0 70.5 8.5t61 27.5t43 47.5t16.5 69.5q0 43 -20 77t-58 54z" />
<glyph unicode="&#xa8;" horiz-adv-x="278" d="M-1 705v-86h90v86h-90zM189 705v-86h90v86h-90z" />
<glyph unicode="&#xa9;" horiz-adv-x="820" d="M411 728q-77 0 -144 -29t-117 -79t-79 -117t-29 -144t29 -144t79 -117t117 -79t144 -29t144 29t117 79t79 117t29 144t-29 144t-79 117t-117 79t-144 29zM411 678q66 0 124.5 -25t101.5 -68t68 -101.5t25 -124.5t-25 -124.5t-68 -101.5t-101.5 -68t-124.5 -25t-124.5 25 t-101.5 68t-68 101.5t-25 124.5t25 124.5t68 101.5t101.5 68t124.5 25zM609 460q-3 31 -24 54t-49.5 37.5t-60.5 21.5t-59 7q-48 0 -87 -17t-67 -46.5t-43.5 -70t-15.5 -87.5q0 -48 14.5 -89t41.5 -70t66 -45.5t89 -16.5q31 0 62 7.5t58 23.5t47 39t30 55l-60 19 q-10 -48 -48 -73t-85 -25q-37 0 -65 14t-46.5 38t-28 55t-9.5 65t9 67t28 58.5t47 41.5t66 16q22 0 43.5 -5.5t38.5 -17t28.5 -29.5t13.5 -43z" />
<glyph unicode="&#xaa;" horiz-adv-x="334" d="M216 567q0 -20 -4.5 -39.5t-15 -35t-26.5 -25t-39 -9.5q-26 0 -38.5 14.5t-12.5 39.5q0 35 23 46t53 11q15 0 30 -0.5t30 -1.5zM216 489v-54h85v5l-44 28v158q0 24 -8.5 41t-23 27.5t-34 15.5t-41.5 5q-44 0 -74 -19t-34 -67h9q1 14 10.5 24.5t23 17t29.5 10t29 3.5 q32 0 52.5 -18.5t20.5 -49.5v-17q-26 0 -58 0.5t-59.5 -6t-46.5 -25t-19 -56.5q0 -43 26 -64t67 -21q32 0 55.5 16t34.5 46z" />
<glyph unicode="&#xab;" d="M361 273l85 216h-75l-84 -216l82 -216h75zM184 273l85 216h-75l-84 -216l82 -216h75z" />
<glyph unicode="&#xac;" horiz-adv-x="660" d="M524 155h61v308h-509v-61h448v-247z" />
<glyph unicode="&#xad;" horiz-adv-x="333" d="M49 313v-73h236v73h-236z" />
<glyph unicode="&#xae;" horiz-adv-x="820" d="M411 728q-77 0 -144 -29t-117 -79t-79 -117t-29 -144t29 -144t79 -117t117 -79t144 -29t144 29t117 79t79 117t29 144t-29 144t-79 117t-117 79t-144 29zM411 678q66 0 124.5 -25t101.5 -68t68 -101.5t25 -124.5t-25 -124.5t-68 -101.5t-101.5 -68t-124.5 -25t-124.5 25 t-101.5 68t-68 101.5t-25 124.5t25 124.5t68 101.5t101.5 68t124.5 25zM322 389v148h133q21 0 39 -2.5t31.5 -10.5t21 -23t7.5 -39t-11 -38.5t-27.5 -22t-37 -10t-38.5 -2.5h-118zM322 143v199h96l119 -199h72l-126 199q60 3 96.5 30.5t36.5 92.5q0 34 -12 57t-32.5 36.5 t-47.5 19t-57 5.5h-207v-440h62z" />
<glyph unicode="&#xaf;" horiz-adv-x="278" d="M9 683v-45h261v45h-261z" />
<glyph unicode="&#xb0;" horiz-adv-x="400" d="M200 729q-31 0 -58.5 -12t-47.5 -32t-32 -47.5t-12 -58.5t12 -58.5t32 -47.5t47.5 -32t58.5 -12t58.5 12t47.5 32t32 47.5t12 58.5t-12 58.5t-32 47.5t-47.5 32t-58.5 12zM200 688q47 0 78 -31t31 -78t-31 -78t-78 -31t-78 31t-31 78t31 78t78 31z" />
<glyph unicode="&#xb1;" horiz-adv-x="660" d="M294 389h-223v-62h223v-222h62v222h224v62h-224v222h-62v-222zM71 0h509v62h-509v-62z" />
<glyph unicode="&#xb4;" horiz-adv-x="278" d="M76 600h51l138 138h-77z" />
<glyph unicode="&#xb5;" horiz-adv-x="611" d="M501 522h-170v-6l88 -53v-228q0 -32 -7 -64.5t-22.5 -58.5t-41.5 -42.5t-63 -16.5q-34 0 -54 12t-30.5 32.5t-14 46.5t-3.5 54v324h-163v-6l81 -53v-626h84v185q24 -16 47.5 -22.5t52.5 -6.5q55 0 87 26.5t47 77.5v-97h163v10l-81 53v459z" />
<glyph unicode="&#xb6;" horiz-adv-x="500" d="M401 654h88v62h-260q-39 0 -74 -11t-61.5 -33t-42 -53.5t-15.5 -73.5q0 -83 48 -132.5t130 -54.5v-486h54v782h79v-782h54v782z" />
<glyph unicode="&#xb7;" horiz-adv-x="278" d="M87 416v-100h102v100h-102z" />
<glyph unicode="&#xb8;" horiz-adv-x="278" d="M29 -188q20 -10 45 -14.5t47 -4.5q19 0 39 4.5t36 14.5t26 25.5t10 38.5q0 36 -24 53.5t-57 17.5q-8 0 -17 -2t-17 -4l56 71h-39l-70 -94l15 -14q2 0 8.5 1.5t14 3t14 3t7.5 1.5q18 0 34.5 -10t16.5 -31q0 -13 -6.5 -21.5t-16.5 -14t-22 -7.5t-22 -2q-17 0 -32 5t-31 10z " />
<glyph unicode="&#xba;" horiz-adv-x="334" d="M300 573q0 61 -33 101.5t-97 40.5q-65 0 -98 -40t-33 -102t33 -102t98 -40q64 0 97 40.5t33 101.5zM253 573q0 -20 -4 -39.5t-14 -35t-25.5 -25t-39.5 -9.5t-40.5 9.5t-26 24.5t-14 34.5t-4.5 40.5t4.5 40.5t14 35t26 25t40.5 9.5t39.5 -9.5t25.5 -25t14 -35.5t4 -40z " />
<glyph unicode="&#xbb;" d="M372 273l-80 -216h74l80 216l-82 216h-74zM195 273l-80 -216h74l80 216l-82 216h-74z" />
<glyph unicode="&#xbc;" horiz-adv-x="834" d="M196 0h59l443 729h-58zM674 430l-182 -257v-58h198v-77l-71 -30v-8h183v8l-59 30v77h65v39h-65v276h-69zM690 383v-229h-157zM185 332v392h-60q-12 -12 -29 -26t-32.5 -27t-27 -21.5l-11.5 -8.5v-14l103 44v-339l-70 -30v-8h192v8z" />
<glyph unicode="&#xbd;" horiz-adv-x="834" d="M185 332v392h-60q-12 -12 -29 -26t-32.5 -27t-27 -21.5l-11.5 -8.5v-14l103 44v-339l-70 -30v-8h192v8zM165 0h59l443 729h-58zM519 0h288v110h-12l-40 -69h-192q15 13 38 32.5t49.5 43t53 49.5t48 53.5t35 54t13.5 51.5q0 29 -11 50t-29.5 35t-43 20.5t-50.5 6.5 q-64 0 -102.5 -32t-40.5 -98h10q0 38 31 63.5t100 25.5q33 0 55 -20t22 -54q0 -20 -13.5 -44t-34.5 -49.5t-46.5 -50.5t-50.5 -47t-45.5 -39.5t-31.5 -27.5v-64z" />
<glyph unicode="&#xbe;" horiz-adv-x="834" d="M40 610q0 17 8.5 32t22.5 26t31 17t35 6t37.5 -5t36 -15t27.5 -24t11 -33q0 -23 -8.5 -38t-22.5 -25t-32 -14t-38 -4v-40q21 0 40 -4.5t34 -15t23.5 -26.5t8.5 -40q0 -18 -12.5 -32t-30.5 -24.5t-38.5 -16t-36.5 -5.5q-19 0 -37 6t-32 17.5t-22.5 27t-8.5 34.5h-11 q0 -68 41 -97.5t104 -29.5q28 0 53.5 7.5t45 22.5t31 37.5t11.5 52.5q0 47 -27 74.5t-73 30.5q42 6 69 32t27 71q0 30 -10.5 51.5t-29 36t-43 21.5t-51.5 7q-28 0 -53.5 -7.5t-45.5 -22.5t-32 -37.5t-12 -53.5h10zM194 0h59l443 729h-58zM674 430l-182 -257v-58h198v-77 l-71 -30v-8h183v8l-59 30v77h65v39h-65v276h-69zM690 383v-229h-157z" />
<glyph unicode="&#xbf;" horiz-adv-x="500" d="M245 -187q95 0 152.5 47.5t60.5 146.5h-13q0 -26 -12.5 -49t-37 -40.5t-61 -27.5t-85.5 -10q-57 0 -85 34t-28 88q0 39 13.5 65t33.5 47t44 41t44 47.5t33.5 67t13.5 99.5v6h-88q0 -23 -1.5 -45.5t-7.5 -45.5q-7 -24 -23 -43t-35.5 -36.5t-40.5 -36.5t-38 -43.5 t-28 -56.5t-11 -75q0 -42 16.5 -75.5t44 -57t63.5 -35.5t76 -12zM322 446v94h-95v-94h95z" />
<glyph unicode="&#xc0;" horiz-adv-x="778" d="M503 304h-240l121 333zM758 6l-70 60l-250 650h-101l-253 -650l-74 -60v-6h262v6l-98 60l61 172h296l62 -172l-99 -60v-6h264v6zM449 794l-112 138h-77l138 -138h51z" />
<glyph unicode="&#xc1;" horiz-adv-x="778" d="M503 304h-240l121 333zM758 6l-70 60l-250 650h-101l-253 -650l-74 -60v-6h262v6l-98 60l61 172h296l62 -172l-99 -60v-6h264v6zM323 794h51l138 138h-77z" />
<glyph unicode="&#xc2;" horiz-adv-x="778" d="M503 304h-240l121 333zM758 6l-70 60l-250 650h-101l-253 -650l-74 -60v-6h262v6l-98 60l61 172h296l62 -172l-99 -60v-6h264v6zM239 794h65l82 101l82 -101h65l-113 138h-68z" />
<glyph unicode="&#xc3;" horiz-adv-x="778" d="M503 304h-240l121 333zM758 6l-70 60l-250 650h-101l-253 -650l-74 -60v-6h262v6l-98 60l61 172h296l62 -172l-99 -60v-6h264v6zM543 907h-36q-5 -18 -15.5 -33.5t-31.5 -15.5q-16 0 -33 7t-34 15t-35.5 15t-37.5 7q-20 0 -36 -8.5t-27 -22t-17.5 -31t-8.5 -35.5h36 q5 18 16 33.5t32 15.5q16 0 33 -7t34 -15t35 -15t37 -7q20 0 36 8.5t27 22t17.5 31t8.5 35.5z" />
<glyph unicode="&#xc4;" horiz-adv-x="778" d="M503 304h-240l121 333zM758 6l-70 60l-250 650h-101l-253 -650l-74 -60v-6h262v6l-98 60l61 172h296l62 -172l-99 -60v-6h264v6zM246 899v-86h90v86h-90zM436 899v-86h90v86h-90z" />
<glyph unicode="&#xc5;" horiz-adv-x="778" d="M503 304h-240l121 333zM758 6l-70 60l-250 650h-101l-253 -650l-74 -60v-6h262v6l-98 60l61 172h296l62 -172l-99 -60v-6h264v6zM386 973q-42 0 -71 -29t-29 -71t29 -71t71 -29t71 29t29 71t-29 71t-71 29zM386 939q28 0 47 -19t19 -47t-19 -47t-47 -19t-47 19t-19 47 t19 47t47 19z" />
<glyph unicode="&#xc6;" horiz-adv-x="1000" d="M459 664h9l46 -361h-241zM521 238l19 -172l-97 -60v-6h498v223h-9l-69 -157h-234l-36 265h213l63 -107h9v281h-9l-63 -108h-223l-35 253h315l69 -148h9v214h-532l-358 -650l-87 -60v-6h278v6l-101 60l92 172h288z" />
<glyph unicode="&#xc7;" horiz-adv-x="722" d="M260 -188q20 -10 45 -14.5t47 -4.5q19 0 39 4.5t36 14.5t26 25.5t10 38.5q0 36 -24 53.5t-57 17.5q-8 0 -17 -2t-17 -4l37 47q60 1 109.5 17t86 48t58 79t24.5 109h-93q-5 -81 -52.5 -131t-131.5 -50q-66 0 -110 25.5t-70.5 67t-38 95t-11.5 110.5q0 58 11.5 112.5 t38.5 95.5t72 66t113 25q48 0 82 -14t56.5 -40t35 -62t17.5 -79h78v254h-10l-62 -105q-14 33 -36.5 55t-50.5 35.5t-60.5 19.5t-65.5 6q-81 0 -140.5 -30.5t-98.5 -81.5t-58 -118t-19 -141t17 -138t52 -113t90 -79.5t130 -36.5l-53 -71l15 -14q2 0 8.5 1.5t14 3t14 3 t7.5 1.5q18 0 34.5 -10t16.5 -31q0 -13 -6.5 -21.5t-16.5 -14t-22 -7.5t-22 -2q-17 0 -32 5t-31 10z" />
<glyph unicode="&#xc8;" horiz-adv-x="667" d="M601 0v223h-8l-70 -157h-305v265h248l60 -107h12v281h-12l-60 -108h-248v253h305l70 -148h8v214h-572v-6l102 -60l-2 -584l-100 -60v-6h572zM396 794l-112 138h-77l138 -138h51z" />
<glyph unicode="&#xc9;" horiz-adv-x="667" d="M601 0v223h-8l-70 -157h-305v265h248l60 -107h12v281h-12l-60 -108h-248v253h305l70 -148h8v214h-572v-6l102 -60l-2 -584l-100 -60v-6h572zM270 794h51l138 138h-77z" />
<glyph unicode="&#xca;" horiz-adv-x="667" d="M601 0v223h-8l-70 -157h-305v265h248l60 -107h12v281h-12l-60 -108h-248v253h305l70 -148h8v214h-572v-6l102 -60l-2 -584l-100 -60v-6h572zM186 794h65l82 101l82 -101h65l-113 138h-68z" />
<glyph unicode="&#xcb;" horiz-adv-x="667" d="M601 0v223h-8l-70 -157h-305v265h248l60 -107h12v281h-12l-60 -108h-248v253h305l70 -148h8v214h-572v-6l102 -60l-2 -584l-100 -60v-6h572zM193 899v-86h90v86h-90zM383 899v-86h90v86h-90z" />
<glyph unicode="&#xcc;" horiz-adv-x="333" d="M211 66v584l100 60v6h-288v-6l100 -60v-584l-100 -60v-6h288v6zM229 794l-112 138h-77l138 -138h51z" />
<glyph unicode="&#xcd;" horiz-adv-x="333" d="M211 66v584l100 60v6h-288v-6l100 -60v-584l-100 -60v-6h288v6zM103 794h51l138 138h-77z" />
<glyph unicode="&#xce;" horiz-adv-x="333" d="M211 66v584l100 60v6h-288v-6l100 -60v-584l-100 -60v-6h288v6zM19 794h65l82 101l82 -101h65l-113 138h-68z" />
<glyph unicode="&#xcf;" horiz-adv-x="333" d="M211 66v584l100 60v6h-288v-6l100 -60v-584l-100 -60v-6h288v6zM26 899v-86h90v86h-90zM216 899v-86h90v86h-90z" />
<glyph unicode="&#xd1;" horiz-adv-x="778" d="M576 91l-316 625h-231v-6l101 -60v-584l-101 -59v-7h280v9l-103 57v574l327 -640h119v650l99 60v6h-276v-6l101 -60v-559zM546 907h-36q-5 -18 -15.5 -33.5t-31.5 -15.5q-16 0 -33 7t-34 15t-35.5 15t-37.5 7q-20 0 -36 -8.5t-27 -22t-17.5 -31t-8.5 -35.5h36 q5 18 16 33.5t32 15.5q16 0 33 -7t34 -15t35 -15t37 -7q20 0 36 8.5t27 22t17.5 31t8.5 35.5z" />
<glyph unicode="&#xd2;" horiz-adv-x="778" d="M626 357q0 -56 -12.5 -110.5t-40.5 -97.5t-73 -69.5t-110 -26.5t-110.5 26.5t-73.5 69.5t-40.5 97.5t-12.5 110.5q0 57 12.5 111.5t40.5 97.5t73.5 69.5t110.5 26.5t110 -26.5t73 -69.5t40.5 -98t12.5 -111zM722 357q0 78 -21 145.5t-62.5 117.5t-103.5 78.5t-145 28.5 t-145.5 -28.5t-104 -78.5t-62.5 -117.5t-21 -145.5t21 -145.5t62.5 -117t104 -78t145.5 -28.5q82 0 144.5 28.5t104 78.5t62.5 117t21 145zM449 794l-112 138h-77l138 -138h51z" />
<glyph unicode="&#xd3;" horiz-adv-x="778" d="M626 357q0 -56 -12.5 -110.5t-40.5 -97.5t-73 -69.5t-110 -26.5t-110.5 26.5t-73.5 69.5t-40.5 97.5t-12.5 110.5q0 57 12.5 111.5t40.5 97.5t73.5 69.5t110.5 26.5t110 -26.5t73 -69.5t40.5 -98t12.5 -111zM722 357q0 78 -21 145.5t-62.5 117.5t-103.5 78.5t-145 28.5 t-145.5 -28.5t-104 -78.5t-62.5 -117.5t-21 -145.5t21 -145.5t62.5 -117t104 -78t145.5 -28.5q82 0 144.5 28.5t104 78.5t62.5 117t21 145zM323 794h51l138 138h-77z" />
<glyph unicode="&#xd4;" horiz-adv-x="778" d="M626 357q0 -56 -12.5 -110.5t-40.5 -97.5t-73 -69.5t-110 -26.5t-110.5 26.5t-73.5 69.5t-40.5 97.5t-12.5 110.5q0 57 12.5 111.5t40.5 97.5t73.5 69.5t110.5 26.5t110 -26.5t73 -69.5t40.5 -98t12.5 -111zM722 357q0 78 -21 145.5t-62.5 117.5t-103.5 78.5t-145 28.5 t-145.5 -28.5t-104 -78.5t-62.5 -117.5t-21 -145.5t21 -145.5t62.5 -117t104 -78t145.5 -28.5q82 0 144.5 28.5t104 78.5t62.5 117t21 145zM239 794h65l82 101l82 -101h65l-113 138h-68z" />
<glyph unicode="&#xd5;" horiz-adv-x="778" d="M626 357q0 -56 -12.5 -110.5t-40.5 -97.5t-73 -69.5t-110 -26.5t-110.5 26.5t-73.5 69.5t-40.5 97.5t-12.5 110.5q0 57 12.5 111.5t40.5 97.5t73.5 69.5t110.5 26.5t110 -26.5t73 -69.5t40.5 -98t12.5 -111zM722 357q0 78 -21 145.5t-62.5 117.5t-103.5 78.5t-145 28.5 t-145.5 -28.5t-104 -78.5t-62.5 -117.5t-21 -145.5t21 -145.5t62.5 -117t104 -78t145.5 -28.5q82 0 144.5 28.5t104 78.5t62.5 117t21 145zM543 907h-36q-5 -18 -15.5 -33.5t-31.5 -15.5q-16 0 -33 7t-34 15t-35.5 15t-37.5 7q-20 0 -36 -8.5t-27 -22t-17.5 -31t-8.5 -35.5 h36q5 18 16 33.5t32 15.5q16 0 33 -7t34 -15t35 -15t37 -7q20 0 36 8.5t27 22t17.5 31t8.5 35.5z" />
<glyph unicode="&#xd6;" horiz-adv-x="778" d="M626 357q0 -56 -12.5 -110.5t-40.5 -97.5t-73 -69.5t-110 -26.5t-110.5 26.5t-73.5 69.5t-40.5 97.5t-12.5 110.5q0 57 12.5 111.5t40.5 97.5t73.5 69.5t110.5 26.5t110 -26.5t73 -69.5t40.5 -98t12.5 -111zM722 357q0 78 -21 145.5t-62.5 117.5t-103.5 78.5t-145 28.5 t-145.5 -28.5t-104 -78.5t-62.5 -117.5t-21 -145.5t21 -145.5t62.5 -117t104 -78t145.5 -28.5q82 0 144.5 28.5t104 78.5t62.5 117t21 145zM246 899v-86h90v86h-90zM436 899v-86h90v86h-90z" />
<glyph unicode="&#xd7;" horiz-adv-x="660" d="M287 357l-212 -212l43 -43l212 212l212 -212l43 43l-212 212l212 212l-43 43l-212 -212l-212 212l-43 -43z" />
<glyph unicode="&#xd8;" horiz-adv-x="778" d="M581 554q28 -44 37 -95t9 -102q0 -56 -12.5 -110.5t-40.5 -97.5t-73 -69.5t-110 -26.5q-48 0 -89.5 16t-73.5 53zM199 162q-27 44 -36 94t-9 101q0 57 12.5 111.5t40.5 97.5t73.5 69.5t110.5 26.5q47 0 88.5 -16.5t72.5 -52.5zM673 741l-70 -85q-44 40 -99 55.5 t-113 15.5q-83 0 -145.5 -28.5t-104 -78.5t-62.5 -117.5t-21 -145.5q0 -72 18.5 -140.5t66.5 -123.5l-72 -87l35 -32l70 86q45 -41 100.5 -56.5t114.5 -15.5q82 0 144.5 28.5t104 78.5t62.5 117t21 145q0 72 -19 141t-67 124l71 87z" />
<glyph unicode="&#xd9;" horiz-adv-x="722" d="M539 266q0 -42 -10.5 -79.5t-32 -66t-55 -45t-78.5 -16.5t-78 15.5t-54 42t-31 63t-10 78.5l2 392l105 60v6h-282v-6l88 -60v-413q0 -56 19 -101.5t52.5 -78.5t80 -51t101.5 -18q62 0 110 19.5t81.5 55t51 85.5t17.5 110l2 392l87 60v6h-271v-6l105 -60v-384zM423 794 l-112 138h-77l138 -138h51z" />
<glyph unicode="&#xda;" horiz-adv-x="722" d="M539 266q0 -42 -10.5 -79.5t-32 -66t-55 -45t-78.5 -16.5t-78 15.5t-54 42t-31 63t-10 78.5l2 392l105 60v6h-282v-6l88 -60v-413q0 -56 19 -101.5t52.5 -78.5t80 -51t101.5 -18q62 0 110 19.5t81.5 55t51 85.5t17.5 110l2 392l87 60v6h-271v-6l105 -60v-384zM297 794h51 l138 138h-77z" />
<glyph unicode="&#xdb;" horiz-adv-x="722" d="M539 266q0 -42 -10.5 -79.5t-32 -66t-55 -45t-78.5 -16.5t-78 15.5t-54 42t-31 63t-10 78.5l2 392l105 60v6h-282v-6l88 -60v-413q0 -56 19 -101.5t52.5 -78.5t80 -51t101.5 -18q62 0 110 19.5t81.5 55t51 85.5t17.5 110l2 392l87 60v6h-271v-6l105 -60v-384zM213 794h65 l82 101l82 -101h65l-113 138h-68z" />
<glyph unicode="&#xdc;" horiz-adv-x="722" d="M539 266q0 -42 -10.5 -79.5t-32 -66t-55 -45t-78.5 -16.5t-78 15.5t-54 42t-31 63t-10 78.5l2 392l105 60v6h-282v-6l88 -60v-413q0 -56 19 -101.5t52.5 -78.5t80 -51t101.5 -18q62 0 110 19.5t81.5 55t51 85.5t17.5 110l2 392l87 60v6h-271v-6l105 -60v-384zM220 899 v-86h90v86h-90zM410 899v-86h90v86h-90z" />
<glyph unicode="&#xdf;" d="M181 63v450q0 33 4.5 61.5t18 49t37.5 32.5t62 12q109 0 109 -109q0 -27 -10 -48.5t-27 -37t-40 -23.5t-49 -8v-74q40 3 68 -8t46 -32.5t26 -52t8 -67.5q0 -75 -33.5 -110t-108.5 -35v-63q56 0 99 11.5t72 37t43.5 66.5t14.5 100q0 83 -43.5 134.5t-126.5 60.5 q67 8 107 48.5t40 109.5q0 45 -16 76t-43 50t-63 27.5t-76 8.5q-202 0 -202 -200v-467l-84 -50v-13h255v13z" />
<glyph unicode="&#xe0;" d="M383 253q0 -37 -8.5 -74.5t-27.5 -67.5t-49 -48.5t-73 -18.5q-49 0 -71.5 29t-22.5 75q0 33 11.5 54t30.5 33t44.5 17t54.5 5q28 0 55.5 -1t55.5 -3zM383 104v-104h158v8l-82 55v304q0 46 -15 78.5t-41 53t-62.5 30t-78.5 9.5q-81 0 -128 -37.5t-52 -126.5h7 q1 27 13.5 47.5t32.5 34t46 19.5t55 3q43 -5 71.5 -14.5t45 -25.5t23.5 -38t7 -51v-34q-34 0 -72 1t-75.5 -1.5t-72 -11t-61 -27t-42 -49.5t-15.5 -79q0 -80 47.5 -121.5t124.5 -41.5q60 0 103 31t63 88zM341 600l-112 138h-77l138 -138h51z" />
<glyph unicode="&#xe1;" d="M383 253q0 -37 -8.5 -74.5t-27.5 -67.5t-49 -48.5t-73 -18.5q-49 0 -71.5 29t-22.5 75q0 33 11.5 54t30.5 33t44.5 17t54.5 5q28 0 55.5 -1t55.5 -3zM383 104v-104h158v8l-82 55v304q0 46 -15 78.5t-41 53t-62.5 30t-78.5 9.5q-81 0 -128 -37.5t-52 -126.5h7 q1 27 13.5 47.5t32.5 34t46 19.5t55 3q43 -5 71.5 -14.5t45 -25.5t23.5 -38t7 -51v-34q-34 0 -72 1t-75.5 -1.5t-72 -11t-61 -27t-42 -49.5t-15.5 -79q0 -80 47.5 -121.5t124.5 -41.5q60 0 103 31t63 88zM215 600h51l138 138h-77z" />
<glyph unicode="&#xe2;" d="M383 253q0 -37 -8.5 -74.5t-27.5 -67.5t-49 -48.5t-73 -18.5q-49 0 -71.5 29t-22.5 75q0 33 11.5 54t30.5 33t44.5 17t54.5 5q28 0 55.5 -1t55.5 -3zM383 104v-104h158v8l-82 55v304q0 46 -15 78.5t-41 53t-62.5 30t-78.5 9.5q-81 0 -128 -37.5t-52 -126.5h7 q1 27 13.5 47.5t32.5 34t46 19.5t55 3q43 -5 71.5 -14.5t45 -25.5t23.5 -38t7 -51v-34q-34 0 -72 1t-75.5 -1.5t-72 -11t-61 -27t-42 -49.5t-15.5 -79q0 -80 47.5 -121.5t124.5 -41.5q60 0 103 31t63 88zM131 600h65l82 101l82 -101h65l-113 138h-68z" />
<glyph unicode="&#xe3;" d="M383 253q0 -37 -8.5 -74.5t-27.5 -67.5t-49 -48.5t-73 -18.5q-49 0 -71.5 29t-22.5 75q0 33 11.5 54t30.5 33t44.5 17t54.5 5q28 0 55.5 -1t55.5 -3zM383 104v-104h158v8l-82 55v304q0 46 -15 78.5t-41 53t-62.5 30t-78.5 9.5q-81 0 -128 -37.5t-52 -126.5h7 q1 27 13.5 47.5t32.5 34t46 19.5t55 3q43 -5 71.5 -14.5t45 -25.5t23.5 -38t7 -51v-34q-34 0 -72 1t-75.5 -1.5t-72 -11t-61 -27t-42 -49.5t-15.5 -79q0 -80 47.5 -121.5t124.5 -41.5q60 0 103 31t63 88zM435 713h-36q-5 -18 -15.5 -33.5t-31.5 -15.5q-16 0 -33 7t-34 15 t-35.5 15t-37.5 7q-20 0 -36 -8.5t-27 -22t-17.5 -31t-8.5 -35.5h36q5 18 16 33.5t32 15.5q16 0 33 -7t34 -15t35 -15t37 -7q20 0 36 8.5t27 22t17.5 31t8.5 35.5z" />
<glyph unicode="&#xe4;" d="M383 253q0 -37 -8.5 -74.5t-27.5 -67.5t-49 -48.5t-73 -18.5q-49 0 -71.5 29t-22.5 75q0 33 11.5 54t30.5 33t44.5 17t54.5 5q28 0 55.5 -1t55.5 -3zM383 104v-104h158v8l-82 55v304q0 46 -15 78.5t-41 53t-62.5 30t-78.5 9.5q-81 0 -128 -37.5t-52 -126.5h7 q1 27 13.5 47.5t32.5 34t46 19.5t55 3q43 -5 71.5 -14.5t45 -25.5t23.5 -38t7 -51v-34q-34 0 -72 1t-75.5 -1.5t-72 -11t-61 -27t-42 -49.5t-15.5 -79q0 -80 47.5 -121.5t124.5 -41.5q60 0 103 31t63 88zM138 705v-86h90v86h-90zM328 705v-86h90v86h-90z" />
<glyph unicode="&#xe5;" d="M383 253q0 -37 -8.5 -74.5t-27.5 -67.5t-49 -48.5t-73 -18.5q-49 0 -71.5 29t-22.5 75q0 33 11.5 54t30.5 33t44.5 17t54.5 5q28 0 55.5 -1t55.5 -3zM383 104v-104h158v8l-82 55v304q0 46 -15 78.5t-41 53t-62.5 30t-78.5 9.5q-81 0 -128 -37.5t-52 -126.5h7 q1 27 13.5 47.5t32.5 34t46 19.5t55 3q43 -5 71.5 -14.5t45 -25.5t23.5 -38t7 -51v-34q-34 0 -72 1t-75.5 -1.5t-72 -11t-61 -27t-42 -49.5t-15.5 -79q0 -80 47.5 -121.5t124.5 -41.5q60 0 103 31t63 88zM278 782q-42 0 -71 -29t-29 -71t29 -71t71 -29t71 29t29 71t-29 71 t-71 29zM278 748q28 0 47 -19t19 -47t-19 -47t-47 -19t-47 19t-19 47t19 47t47 19z" />
<glyph unicode="&#xe6;" horiz-adv-x="833" d="M378 253q0 -35 -7 -71.5t-24 -67.5t-44.5 -50.5t-69.5 -19.5q-23 0 -39 8.5t-25.5 23t-13.5 33t-4 39.5q0 62 36 85.5t93 23.5q24 0 48.5 -1t49.5 -3zM433 443q-20 53 -60.5 74t-94.5 21q-81 0 -126 -38t-50 -126h10q2 49 38 76.5t123 27.5q30 0 50 -10t32.5 -27.5 t17.5 -41t5 -50.5v-34q-34 0 -70 0.5t-71 -2t-66 -11.5t-54.5 -27.5t-37.5 -49t-14 -77.5q0 -77 44 -120t120 -43q29 0 58 9t53 25.5t40.5 41t21.5 55.5q29 -66 76 -94.5t119 -28.5q36 0 66 13.5t52.5 37t36 54t16.5 65.5h-12q0 -20 -11.5 -40t-33.5 -36t-53.5 -26 t-71.5 -10q-41 0 -67 18t-41 46t-21 62.5t-7 67.5h326q0 45 -6.5 96.5t-26 95t-55.5 72.5t-94 29q-54 0 -96.5 -21t-64.5 -74zM451 304q1 27 9 57.5t23 57t38.5 44t55.5 17.5q35 0 57 -17.5t34.5 -43.5t17 -57t4.5 -59q-60 3 -119.5 2t-119.5 -1z" />
<glyph unicode="&#xe7;" horiz-adv-x="500" d="M151 -188q20 -10 45 -14.5t47 -4.5q19 0 39 4.5t36 14.5t26 25.5t10 38.5q0 36 -24 53.5t-57 17.5q-8 0 -17 -2t-17 -4l41 52q41 0 76.5 13.5t62 37.5t42.5 57.5t18 75.5h-77q-3 -24 -13 -45.5t-26 -38t-37 -26t-46 -9.5q-41 0 -70 19t-48 49t-27.5 66.5t-8.5 71.5 q0 37 7.5 74t25.5 67t47.5 48.5t73.5 18.5q29 0 53 -12t40.5 -31.5t26 -45.5t9.5 -53h63v192h-9l-54 -65q-23 42 -62 61.5t-86 19.5q-58 0 -100 -24.5t-69.5 -64t-41 -89.5t-13.5 -101q0 -52 13 -97.5t39 -80.5t64.5 -57.5t89.5 -28.5l-57 -77l15 -14q2 0 8.5 1.5t14 3t14 3 t7.5 1.5q18 0 34.5 -10t16.5 -31q0 -13 -6.5 -21.5t-16.5 -14t-22 -7.5t-22 -2q-17 0 -32 5t-31 10z" />
<glyph unicode="&#xe8;" d="M513 163l-10 -1q-1 -24 -16.5 -44.5t-40 -35.5t-54 -23.5t-59.5 -7.5q-57 2 -94 18t-59.5 41.5t-32.5 60t-12 74.5h386q0 59 -9 112.5t-33.5 93.5t-68 63.5t-113.5 23.5q-63 0 -109 -22t-76.5 -59.5t-45 -88.5t-14.5 -109q0 -62 15 -111t46 -83.5t78 -53t111 -18.5 q38 0 74 12t64.5 34t47.5 53.5t25 70.5zM136 304q2 32 13.5 63.5t31 56.5t47.5 40.5t64 15.5q39 0 66 -15t44.5 -39.5t25 -56.5t7.5 -66q-75 5 -149.5 3t-149.5 -2zM341 600l-112 138h-77l138 -138h51z" />
<glyph unicode="&#xe9;" d="M513 163l-10 -1q-1 -24 -16.5 -44.5t-40 -35.5t-54 -23.5t-59.5 -7.5q-57 2 -94 18t-59.5 41.5t-32.5 60t-12 74.5h386q0 59 -9 112.5t-33.5 93.5t-68 63.5t-113.5 23.5q-63 0 -109 -22t-76.5 -59.5t-45 -88.5t-14.5 -109q0 -62 15 -111t46 -83.5t78 -53t111 -18.5 q38 0 74 12t64.5 34t47.5 53.5t25 70.5zM136 304q2 32 13.5 63.5t31 56.5t47.5 40.5t64 15.5q39 0 66 -15t44.5 -39.5t25 -56.5t7.5 -66q-75 5 -149.5 3t-149.5 -2zM215 600h51l138 138h-77z" />
<glyph unicode="&#xea;" d="M513 163l-10 -1q-1 -24 -16.5 -44.5t-40 -35.5t-54 -23.5t-59.5 -7.5q-57 2 -94 18t-59.5 41.5t-32.5 60t-12 74.5h386q0 59 -9 112.5t-33.5 93.5t-68 63.5t-113.5 23.5q-63 0 -109 -22t-76.5 -59.5t-45 -88.5t-14.5 -109q0 -62 15 -111t46 -83.5t78 -53t111 -18.5 q38 0 74 12t64.5 34t47.5 53.5t25 70.5zM136 304q2 32 13.5 63.5t31 56.5t47.5 40.5t64 15.5q39 0 66 -15t44.5 -39.5t25 -56.5t7.5 -66q-75 5 -149.5 3t-149.5 -2zM131 600h65l82 101l82 -101h65l-113 138h-68z" />
<glyph unicode="&#xeb;" d="M513 163l-10 -1q-1 -24 -16.5 -44.5t-40 -35.5t-54 -23.5t-59.5 -7.5q-57 2 -94 18t-59.5 41.5t-32.5 60t-12 74.5h386q0 59 -9 112.5t-33.5 93.5t-68 63.5t-113.5 23.5q-63 0 -109 -22t-76.5 -59.5t-45 -88.5t-14.5 -109q0 -62 15 -111t46 -83.5t78 -53t111 -18.5 q38 0 74 12t64.5 34t47.5 53.5t25 70.5zM136 304q2 32 13.5 63.5t31 56.5t47.5 40.5t64 15.5q39 0 66 -15t44.5 -39.5t25 -56.5t7.5 -66q-75 5 -149.5 3t-149.5 -2zM138 705v-86h90v86h-90zM328 705v-86h90v86h-90z" />
<glyph unicode="&#xec;" horiz-adv-x="296" d="M196 63v459h-165v-59h83v-400h-84v-63h246v63h-80zM208 600l-112 138h-77l138 -138h51z" />
<glyph unicode="&#xed;" horiz-adv-x="296" d="M196 63v459h-165v-59h83v-400h-84v-63h246v63h-80zM82 600h51l138 138h-77z" />
<glyph unicode="&#xee;" horiz-adv-x="296" d="M196 63v459h-165v-59h83v-400h-84v-63h246v63h-80zM-2 600h65l82 101l82 -101h65l-113 138h-68z" />
<glyph unicode="&#xef;" horiz-adv-x="296" d="M196 63v459h-165v-59h83v-400h-84v-63h246v63h-80zM5 705v-86h90v86h-90zM195 705v-86h90v86h-90z" />
<glyph unicode="&#xf1;" horiz-adv-x="611" d="M514 63v309q0 81 -43 123.5t-124 42.5q-60 0 -96.5 -26t-56.5 -82v92h-167v-9l85 -50v-400l-87 -54v-9h250v9l-81 54v249q0 29 7.5 58t23 52.5t39.5 38t57 14.5q36 0 57.5 -11t33.5 -30t16 -45t4 -57v-269l-82 -54v-9h245v9zM461 713h-36q-5 -18 -15.5 -33.5t-31.5 -15.5 q-16 0 -33 7t-34 15t-35.5 15t-37.5 7q-20 0 -36 -8.5t-27 -22t-17.5 -31t-8.5 -35.5h36q5 18 16 33.5t32 15.5q16 0 33 -7t34 -15t35 -15t37 -7q20 0 36 8.5t27 22t17.5 31t8.5 35.5z" />
<glyph unicode="&#xf2;" d="M520 265q0 57 -15 106.5t-45 86.5t-75 58.5t-106 21.5t-106.5 -21.5t-75.5 -58t-45 -86.5t-15 -107t15 -106.5t45 -86t75.5 -58t106.5 -21.5q60 0 105.5 21.5t75.5 58t45 86t15 106.5zM434 265q0 -38 -7.5 -75.5t-25.5 -67.5t-48 -48.5t-74 -18.5q-45 0 -75 18.5 t-48 48.5t-25.5 67.5t-7.5 75.5t7.5 75.5t25.5 67.5t48 49t75 19t74.5 -19t47.5 -49t25.5 -68t7.5 -75zM341 600l-112 138h-77l138 -138h51z" />
<glyph unicode="&#xf3;" d="M520 265q0 57 -15 106.5t-45 86.5t-75 58.5t-106 21.5t-106.5 -21.5t-75.5 -58t-45 -86.5t-15 -107t15 -106.5t45 -86t75.5 -58t106.5 -21.5q60 0 105.5 21.5t75.5 58t45 86t15 106.5zM434 265q0 -38 -7.5 -75.5t-25.5 -67.5t-48 -48.5t-74 -18.5q-45 0 -75 18.5 t-48 48.5t-25.5 67.5t-7.5 75.5t7.5 75.5t25.5 67.5t48 49t75 19t74.5 -19t47.5 -49t25.5 -68t7.5 -75zM215 600h51l138 138h-77z" />
<glyph unicode="&#xf4;" d="M520 265q0 57 -15 106.5t-45 86.5t-75 58.5t-106 21.5t-106.5 -21.5t-75.5 -58t-45 -86.5t-15 -107t15 -106.5t45 -86t75.5 -58t106.5 -21.5q60 0 105.5 21.5t75.5 58t45 86t15 106.5zM434 265q0 -38 -7.5 -75.5t-25.5 -67.5t-48 -48.5t-74 -18.5q-45 0 -75 18.5 t-48 48.5t-25.5 67.5t-7.5 75.5t7.5 75.5t25.5 67.5t48 49t75 19t74.5 -19t47.5 -49t25.5 -68t7.5 -75zM131 600h65l82 101l82 -101h65l-113 138h-68z" />
<glyph unicode="&#xf5;" d="M520 265q0 57 -15 106.5t-45 86.5t-75 58.5t-106 21.5t-106.5 -21.5t-75.5 -58t-45 -86.5t-15 -107t15 -106.5t45 -86t75.5 -58t106.5 -21.5q60 0 105.5 21.5t75.5 58t45 86t15 106.5zM434 265q0 -38 -7.5 -75.5t-25.5 -67.5t-48 -48.5t-74 -18.5q-45 0 -75 18.5 t-48 48.5t-25.5 67.5t-7.5 75.5t7.5 75.5t25.5 67.5t48 49t75 19t74.5 -19t47.5 -49t25.5 -68t7.5 -75zM435 713h-36q-5 -18 -15.5 -33.5t-31.5 -15.5q-16 0 -33 7t-34 15t-35.5 15t-37.5 7q-20 0 -36 -8.5t-27 -22t-17.5 -31t-8.5 -35.5h36q5 18 16 33.5t32 15.5 q16 0 33 -7t34 -15t35 -15t37 -7q20 0 36 8.5t27 22t17.5 31t8.5 35.5z" />
<glyph unicode="&#xf6;" d="M520 265q0 57 -15 106.5t-45 86.5t-75 58.5t-106 21.5t-106.5 -21.5t-75.5 -58t-45 -86.5t-15 -107t15 -106.5t45 -86t75.5 -58t106.5 -21.5q60 0 105.5 21.5t75.5 58t45 86t15 106.5zM434 265q0 -38 -7.5 -75.5t-25.5 -67.5t-48 -48.5t-74 -18.5q-45 0 -75 18.5 t-48 48.5t-25.5 67.5t-7.5 75.5t7.5 75.5t25.5 67.5t48 49t75 19t74.5 -19t47.5 -49t25.5 -68t7.5 -75zM138 705v-86h90v86h-90zM328 705v-86h90v86h-90z" />
<glyph unicode="&#xf7;" horiz-adv-x="660" d="M274 609v-100h102v100h-102zM76 326h507v62h-507v-62zM274 205v-100h102v100h-102z" />
<glyph unicode="&#xf8;" d="M475 557l-51 -65q-30 26 -68.5 36t-77.5 10q-61 0 -106.5 -21.5t-75.5 -58t-45 -86.5t-15 -107q0 -52 13.5 -102.5t47.5 -91.5l-51 -66l35 -28l49 63q31 -26 69.5 -36.5t78.5 -10.5q60 0 105.5 21.5t75.5 58t45 86t15 106.5q0 52 -13.5 103t-48.5 92l53 68zM406 395 q17 -29 22 -63t5 -67q0 -38 -7.5 -75.5t-25.5 -67.5t-48 -48.5t-74 -18.5q-29 0 -56.5 9.5t-47.5 32.5zM148 136q-16 29 -21 62.5t-5 66.5q0 38 7.5 75.5t25.5 67.5t48 49t75 19q29 0 55.5 -9.5t46.5 -32.5z" />
<glyph unicode="&#xf9;" horiz-adv-x="611" d="M501 522h-170v-8l88 -51v-228q0 -32 -7 -64.5t-22.5 -58.5t-41.5 -42.5t-63 -16.5q-34 0 -54 12t-30.5 32.5t-14 46.5t-3.5 54v324h-163v-8l81 -51v-286q0 -45 9 -79.5t29.5 -58t53.5 -35t80 -11.5q57 0 92 25.5t54 78.5v-97h163v13l-81 50v459zM364 600l-112 138h-77 l138 -138h51z" />
<glyph unicode="&#xfa;" horiz-adv-x="611" d="M501 522h-170v-8l88 -51v-228q0 -32 -7 -64.5t-22.5 -58.5t-41.5 -42.5t-63 -16.5q-34 0 -54 12t-30.5 32.5t-14 46.5t-3.5 54v324h-163v-8l81 -51v-286q0 -45 9 -79.5t29.5 -58t53.5 -35t80 -11.5q57 0 92 25.5t54 78.5v-97h163v13l-81 50v459zM238 600h51l138 138h-77z " />
<glyph unicode="&#xfb;" horiz-adv-x="611" d="M501 522h-170v-8l88 -51v-228q0 -32 -7 -64.5t-22.5 -58.5t-41.5 -42.5t-63 -16.5q-34 0 -54 12t-30.5 32.5t-14 46.5t-3.5 54v324h-163v-8l81 -51v-286q0 -45 9 -79.5t29.5 -58t53.5 -35t80 -11.5q57 0 92 25.5t54 78.5v-97h163v13l-81 50v459zM154 600h65l82 101 l82 -101h65l-113 138h-68z" />
<glyph unicode="&#xfc;" horiz-adv-x="611" d="M501 522h-170v-8l88 -51v-228q0 -32 -7 -64.5t-22.5 -58.5t-41.5 -42.5t-63 -16.5q-34 0 -54 12t-30.5 32.5t-14 46.5t-3.5 54v324h-163v-8l81 -51v-286q0 -45 9 -79.5t29.5 -58t53.5 -35t80 -11.5q57 0 92 25.5t54 78.5v-97h163v13l-81 50v459zM161 705v-86h90v86h-90z M351 705v-86h90v86h-90z" />
<glyph unicode="&#xff;" d="M328 513l83 -50l-124 -364l-128 364l81 50v9h-223v-9l50 -50l175 -463q-6 -17 -12 -43.5t-16 -52t-24.5 -44t-36.5 -18.5q-14 0 -28.5 2.5t-28.5 4.5v-16q15 -2 32 -4.5t32 -2.5q32 0 55 9.5t40.5 26t30 39.5t22.5 50l189 512l46 50v9h-215v-9zM135 705v-86h90v86h-90z M325 705v-86h90v86h-90z" />
<glyph unicode="&#x152;" horiz-adv-x="1000" d="M398 663q24 0 48.5 -2.5t47.5 -8.5v-584q-26 -4 -52 -6.5t-53 -2.5q-68 0 -114 24t-74.5 65t-40.5 95t-12 114q0 63 12 119t41 97.5t77 65.5t120 24zM937 0v223h-11l-67 -157h-278v265h221l60 -107h12v281h-12l-60 -108h-221v253h278l67 -148h11v214h-375q-46 0 -91 5.5 t-91 5.5q-86 0 -147.5 -27.5t-101 -76.5t-58.5 -116.5t-19 -146.5q0 -71 17.5 -137t54 -117t94 -81.5t137.5 -30.5q53 0 104.5 2.5t103.5 3.5q94 1 186 0.5t186 -0.5z" />
<glyph unicode="&#x153;" horiz-adv-x="833" d="M399 265q0 -33 -6 -70t-21 -68t-42 -51.5t-69 -20.5t-69 20.5t-42 51.5t-21 68t-6 70q0 34 6 71t21 68t42 51.5t69 20.5t69 -20.5t42 -51.5t21 -68t6 -71zM436 116q20 -64 68 -93.5t113 -29.5q37 0 68.5 13t55 36t38 54t17.5 67h-13q0 -21 -14.5 -41t-35.5 -35.5 t-46 -25.5t-46 -10q-52 0 -84 17.5t-50.5 45.5t-25.5 62.5t-8 68.5h331q0 48 -7.5 100t-28.5 94.5t-58.5 70.5t-97.5 28q-69 0 -109.5 -29t-64.5 -93q-18 66 -65 94t-112 28q-60 0 -102.5 -22.5t-69.5 -60.5t-39.5 -87.5t-12.5 -102.5t12.5 -102t39 -87t68.5 -60.5 t102 -22.5q63 0 110 30.5t67 92.5zM474 304q1 27 9.5 58t24 57t39 43.5t56.5 17.5q35 0 57.5 -17t35 -43.5t17.5 -57.5t5 -59q-61 3 -122 2t-122 -1z" />
<glyph unicode="&#x178;" horiz-adv-x="667" d="M412 710l94 -60l-169 -280l-170 280l99 60v6h-264v-6q2 -2 12 -11.5t22 -20t21.5 -19t9.5 -9.5l221 -358l-2 -226l-109 -60v-6h309v6l-111 60v227l225 357q0 1 10 9.5t21.5 19t22 20t12.5 11.5v6h-254v-6zM194 899v-86h90v86h-90zM384 899v-86h90v86h-90z" />
<glyph unicode="&#x2c6;" horiz-adv-x="278" d="M-8 600h65l82 101l82 -101h65l-113 138h-68z" />
<glyph unicode="&#x2dc;" horiz-adv-x="278" d="M296 713h-36q-5 -18 -15.5 -33.5t-31.5 -15.5q-16 0 -33 7t-34 15t-35.5 15t-37.5 7q-20 0 -36 -8.5t-27 -22t-17.5 -31t-8.5 -35.5h36q5 18 16 33.5t32 15.5q16 0 33 -7t34 -15t35 -15t37 -7q20 0 36 8.5t27 22t17.5 31t8.5 35.5z" />
<glyph unicode="&#x2000;" horiz-adv-x="486" />
<glyph unicode="&#x2001;" horiz-adv-x="973" />
<glyph unicode="&#x2002;" horiz-adv-x="486" />
<glyph unicode="&#x2003;" horiz-adv-x="973" />
<glyph unicode="&#x2004;" horiz-adv-x="324" />
<glyph unicode="&#x2005;" horiz-adv-x="243" />
<glyph unicode="&#x2006;" horiz-adv-x="162" />
<glyph unicode="&#x2007;" horiz-adv-x="162" />
<glyph unicode="&#x2008;" horiz-adv-x="121" />
<glyph unicode="&#x2009;" horiz-adv-x="194" />
<glyph unicode="&#x200a;" horiz-adv-x="54" />
<glyph unicode="&#x2010;" horiz-adv-x="333" d="M49 313v-73h236v73h-236z" />
<glyph unicode="&#x2011;" horiz-adv-x="333" d="M49 313v-73h236v73h-236z" />
<glyph unicode="&#x2012;" horiz-adv-x="333" d="M49 313v-73h236v73h-236z" />
<glyph unicode="&#x2013;" d="M0 308v-63h556v63h-556z" />
<glyph unicode="&#x2014;" horiz-adv-x="1000" d="M0 308v-63h1000v63h-1000z" />
<glyph unicode="&#x2018;" horiz-adv-x="278" d="M193 474v100h-46l46 142h-58q-1 -4 -8.5 -26.5l-16 -48t-15.5 -46t-7 -21.5v-100h105z" />
<glyph unicode="&#x2019;" horiz-adv-x="278" d="M83 716v-100h47l-47 -142h59q1 4 8.5 26.5t15.5 48t15 46.5l7 21v100h-105z" />
<glyph unicode="&#x201a;" horiz-adv-x="278" d="M88 100v-100h47l-47 -142h59q1 4 8.5 26.5t15.5 48t15 46.5l7 21v100h-105z" />
<glyph unicode="&#x201c;" d="M423 474v100h-46l46 142h-58q-1 -4 -8.5 -26.5l-16 -48t-15.5 -46t-7 -21.5v-100h105zM233 474v100h-46l46 142h-58q-1 -4 -8.5 -26.5l-16 -48t-15.5 -46t-7 -21.5v-100h105z" />
<glyph unicode="&#x201d;" d="M318 716v-100h47l-47 -142h59q1 4 8.5 26.5t15.5 48t15 46.5l7 21v100h-105zM128 716v-100h47l-47 -142h59q1 4 8.5 26.5t15.5 48t15 46.5l7 21v100h-105z" />
<glyph unicode="&#x201e;" d="M318 100v-100h47l-47 -142h59q1 4 8.5 26.5t15.5 48t15 46.5l7 21v100h-105zM128 100v-100h47l-47 -142h59q1 4 8.5 26.5t15.5 48t15 46.5l7 21v100h-105z" />
<glyph unicode="&#x2022;" horiz-adv-x="600" d="M299 536q-38 0 -70.5 -14t-56.5 -38t-38 -57t-14 -70q0 -38 14 -70.5t38 -56.5t57 -38t71 -14q37 0 70 14t57 38t38 56.5t14 70.5t-14 70.5t-38 56.5t-57 38t-71 14z" />
<glyph unicode="&#x2026;" horiz-adv-x="1000" d="M449 100v-100h102v100h-102zM781 100v-100h102v100h-102zM117 100v-100h102v100h-102z" />
<glyph unicode="&#x202f;" horiz-adv-x="194" />
<glyph unicode="&#x2039;" horiz-adv-x="278" d="M133 273l85 216h-75l-84 -216l82 -216h75z" />
<glyph unicode="&#x203a;" horiz-adv-x="278" d="M144 273l-80 -216h74l80 216l-82 216h-74z" />
<glyph unicode="&#x205f;" horiz-adv-x="243" />
<glyph unicode="&#x2122;" horiz-adv-x="980" d="M327 659v57h-327v-57h132v-350h64v350h131zM846 716h-103l-121 -290l-113 290h-106v-407h68v346l131 -346h41l139 346v-346h64v407z" />
<glyph unicode="&#xe000;" horiz-adv-x="520" d="M0 520h520v-520h-520v520z" />
</font>
</defs>
</svg>
