<?xml version="1.0" standalone="no"?>
<!DOCTYPE svg PUBLIC "-//W3C//DTD SVG 1.1//EN" "http://www.w3.org/Graphics/SVG/1.1/DTD/svg11.dtd" >
<svg xmlns="http://www.w3.org/2000/svg">
<metadata></metadata>
<defs>
<font id="voltaireregular" horiz-adv-x="981" >
<font-face units-per-em="2048" ascent="1638" descent="-410" />
<missing-glyph horiz-adv-x="352" />
<glyph horiz-adv-x="2048" />
<glyph horiz-adv-x="2048" />
<glyph unicode="&#xd;" horiz-adv-x="2048" />
<glyph unicode=" "  horiz-adv-x="352" />
<glyph unicode="&#x09;" horiz-adv-x="352" />
<glyph unicode="&#xa0;" horiz-adv-x="352" />
<glyph unicode="!" horiz-adv-x="567" d="M145 115q0 55 39 94.5t100 39.5t100 -39.5t39 -94.5t-39 -94t-100 -39t-100 39t-39 94zM194 531v1062h186v-1062h-186z" />
<glyph unicode="&#x22;" horiz-adv-x="887" d="M182 1062v532h170v-532h-170zM433 1062v532h170v-532h-170z" />
<glyph unicode="#" horiz-adv-x="1290" d="M90 383v148h237l79 383h-316v148h347l74 355h148l-74 -355h263l74 355h148l-74 -355h209v-148h-240l-79 -383h319v-148h-350l-79 -383h-148l79 383h-263l-79 -383h-148l79 383h-206zM475 531h263l79 383h-263z" />
<glyph unicode="$" horiz-adv-x="887" d="M94 73l86 166q128 -75 220 -75q85 0 141 47.5t56 140.5q0 68 -37.5 145.5t-128.5 193.5l-129 163q-176 222 -176 410q0 118 58.5 205t163.5 121v182h148v-161q132 -5 248 -73l-80 -155q-87 52 -165 52q-83 0 -131.5 -47.5t-48.5 -130.5q0 -50 24 -105.5t87 -138.5 l187 -246q59 -78 90.5 -127t57 -122t25.5 -151q0 -150 -80 -249.5t-214 -126.5v-168h-148v161q-145 13 -254 89z" />
<glyph unicode="%" horiz-adv-x="1593" d="M172 1247q0 184 69 274.5t188 90.5t188 -90.5t69 -274.5t-69 -274.5t-188 -90.5t-188 90.5t-69 274.5zM326 1247q0 -118 28.5 -171t74.5 -53t74.5 53t28.5 171t-28.5 171t-74.5 53t-74.5 -53t-28.5 -171zM460 34l541 1578l153 -53l-542 -1578zM906 346q0 184 69 274.5 t188 90.5t188 -90.5t69 -274.5t-69 -274.5t-188 -90.5t-188 90.5t-69 274.5zM1060 346q0 -118 28.5 -171t74.5 -53t74.5 53t28.5 171t-28.5 171t-74.5 53t-74.5 -53t-28.5 -171z" />
<glyph unicode="&#x26;" horiz-adv-x="1227" d="M160 395q0 221 175 451q-124 230 -124 406q0 160 92 260t248 100q149 0 269 -102l-102 -132q-76 59 -160 59q-77 0 -121 -48t-44 -139q0 -197 238 -544l165 -241q2 40 2 64v199h-70v157h404v-157h-161l1 -199q0 -151 -39 -263l123 -179l-132 -105l-85 121 q-110 -121 -285 -121q-178 0 -286 117.5t-108 295.5zM342 407q0 -124 61 -187t158 -63q116 0 176 92l-258 368q-17 23 -47 69q-90 -132 -90 -279z" />
<glyph unicode="'" horiz-adv-x="530" d="M180 1062v532h170v-532h-170z" />
<glyph unicode="(" horiz-adv-x="815" d="M184 796q0 300 133.5 540.5t360.5 399.5v-208q-326 -290 -326 -732t326 -732v-208q-227 159 -360.5 399.5t-133.5 540.5z" />
<glyph unicode=")" horiz-adv-x="793" d="M184 64q326 290 326 732t-326 732v208q227 -159 360.5 -399.5t133.5 -540.5t-133.5 -540.5t-360.5 -399.5v208z" />
<glyph unicode="*" horiz-adv-x="997" d="M150 1173v158l260 -7l-86 246l151 49l72 -249l205 157l93 -128l-213 -146l215 -146l-93 -128l-204 155l-75 -251l-150 49l87 247z" />
<glyph unicode="+" horiz-adv-x="1061" d="M176 579v151h275v276h157v-276h275v-151h-275v-275h-157v275h-275z" />
<glyph unicode="," horiz-adv-x="475" d="M104 115q0 55 39 94.5t100 39.5q62 0 104.5 -44.5t42.5 -124.5q0 -158 -198 -363l-88 85q44 41 79 91t46 90q-56 4 -90.5 42t-34.5 90z" />
<glyph unicode="-" horiz-adv-x="727" d="M150 531v168h427v-168h-427z" />
<glyph unicode="." horiz-adv-x="578" d="M150 115q0 55 39 94.5t100 39.5t100 -39.5t39 -94.5t-39 -94t-100 -39t-100 39t-39 94z" />
<glyph unicode="/" horiz-adv-x="864" d="M94 34l541 1578l153 -53l-542 -1578z" />
<glyph unicode="0" horiz-adv-x="1104" d="M135 796q0 181 22 323t60 233.5t92 150.5t113.5 83.5t129.5 24.5t129.5 -24.5t113.5 -83.5t92 -150.5t60 -233.5t22 -323t-22 -323t-60 -233.5t-92 -150.5t-113.5 -83.5t-129.5 -24.5t-129.5 24.5t-113.5 83.5t-92 150.5t-60 233.5t-22 323zM328 796q0 -640 224 -640 t224 640t-224 640t-224 -640z" />
<glyph unicode="1" horiz-adv-x="604" d="M209 0v1430l186 201v-1631h-186z" />
<glyph unicode="2" horiz-adv-x="922" d="M59 1l397 829q129 270 129 401q0 84 -49 145.5t-141 61.5q-110 0 -217 -81l-89 146q126 110 310 110q177 0 278 -108.5t101 -283.5q0 -103 -39 -209t-146 -328l-246 -508h449v-175h-737z" />
<glyph unicode="3" horiz-adv-x="987" d="M86 61l88 153q96 -58 207 -58q125 0 202 84t77 224q0 145 -82.5 227.5t-207.5 82.5q-66 0 -139 -33q64 130 178 376.5t140 300.5h-390l-1 176h666l-304 -662q165 -57 249 -177t84 -286q0 -215 -129.5 -351.5t-337.5 -136.5q-86 0 -168 23t-132 57z" />
<glyph unicode="4" horiz-adv-x="1051" d="M100 336l314 1257h188l-275 -1081h277v368l186 201v-569h146v-176h-146v-336h-186v336h-504z" />
<glyph unicode="5" horiz-adv-x="952" d="M86 61l84 160q98 -65 203 -65q119 0 203 86.5t84 243.5q0 143 -72 226.5t-190 83.5q-116 0 -219 -76l2 8l-2 -2v867h586l3 -176h-403v-448q26 2 43 2q204 0 324.5 -135t120.5 -355q0 -120 -37.5 -216.5t-101.5 -157.5t-146.5 -93.5t-175.5 -32.5q-156 0 -306 80z" />
<glyph unicode="6" horiz-adv-x="1057" d="M135 602q0 319 129 587.5t373 442.5l92 -153q-157 -114 -260 -285t-119 -322q51 61 102 87t116 26q76 0 145 -32t124 -92.5t87.5 -158t32.5 -219.5t-33 -219t-89.5 -157.5t-129.5 -92.5t-157 -32q-188 0 -300.5 158t-112.5 462zM345 484q0 -167 59 -246t148 -79 q41 0 77.5 17.5t67.5 54t49 101.5t18 152q0 168 -61.5 247t-150.5 79t-148 -79t-59 -247z" />
<glyph unicode="7" horiz-adv-x="877" d="M86 1593h727l-459 -1593h-184l404 1418h-487z" />
<glyph unicode="8" horiz-adv-x="1100" d="M135 455q0 137 52 247t140 176q-63 62 -99.5 152t-36.5 193q0 182 106 294.5t253 112.5q146 0 252 -112t106 -294q0 -103 -36.5 -193.5t-99.5 -152.5q88 -66 140.5 -176.5t52.5 -246.5q0 -210 -118 -342t-297 -132t-297 132t-118 342zM328 469q0 -150 62 -231.5 t160 -81.5q99 0 160.5 81.5t61.5 231.5t-61.5 230t-160.5 80t-160.5 -80t-61.5 -230zM384 1205q0 -125 49.5 -187t116.5 -62t116 62t49 187t-49 187.5t-116 62.5t-116.5 -62.5t-49.5 -187.5z" />
<glyph unicode="9" horiz-adv-x="1067" d="M104 1124q0 123 33 221.5t90 160t130.5 93.5t157.5 32q189 0 302.5 -160t113.5 -468q0 -318 -127.5 -588t-378.5 -454l-94 154q159 117 263.5 290t120.5 325q-52 -62 -103 -88.5t-116 -26.5q-76 0 -145.5 32.5t-125 94t-88.5 160.5t-33 222zM296 1123q0 -89 18.5 -155.5 t50 -104t68 -55.5t76.5 -18t76 18t67.5 55.5t50 104t18.5 155.5t-18.5 155.5t-50 104t-67.5 55.5t-76 18t-76.5 -18t-68 -55.5t-50 -104t-18.5 -155.5z" />
<glyph unicode=":" horiz-adv-x="567" d="M145 115q0 55 39 94.5t100 39.5t100 -39.5t39 -94.5t-39 -94t-100 -39t-100 39t-39 94zM145 747q0 55 39 94.5t100 39.5t100 -39.5t39 -94.5t-39 -94t-100 -39t-100 39t-39 94z" />
<glyph unicode=";" horiz-adv-x="571" d="M145 -192q98 91 126 175q-56 4 -90.5 42t-34.5 90q0 55 39 94.5t100 39.5t101.5 -42.5t40.5 -119.5q0 -169 -194 -364zM145 745q0 55 39 94.5t100 39.5t100 -39.5t39 -94.5t-39 -94t-100 -39t-100 39t-39 94z" />
<glyph unicode="&#x3c;" horiz-adv-x="858" d="M104 639l497 472l106 -118l-380 -354l380 -354l-106 -118z" />
<glyph unicode="=" horiz-adv-x="1061" d="M176 456v151h707v-151h-707zM176 758v151h707v-151h-707z" />
<glyph unicode="&#x3e;" horiz-adv-x="834" d="M104 287l380 354l-380 354l106 118l497 -472l-497 -472z" />
<glyph unicode="?" horiz-adv-x="913" d="M150 1538q124 73 264 73q164 0 256.5 -87.5t92.5 -237.5q0 -60 -16 -109.5t-41.5 -84.5t-56.5 -67.5t-62.5 -68t-58 -76.5t-44 -102.5t-19.5 -136.5v-110h-186v113q0 78 16.5 145t42.5 114t57.5 88t63 74t57.5 63.5t42.5 65.5t16.5 72q0 74 -49 121.5t-132 47.5 q-77 0 -164 -52zM259 115q0 55 39 94.5t100 39.5t100 -39.5t39 -94.5t-39 -94t-100 -39t-100 39t-39 94z" />
<glyph unicode="@" horiz-adv-x="1468" d="M153 438q0 157 48 290t132.5 224t200 142.5t246.5 51.5q120 0 228.5 -42.5t190 -118t129.5 -188t48 -244.5q0 -159 -66 -291t-176 -206.5t-238 -74.5q-204 0 -321 118.5t-117 291.5q0 188 143.5 306t405.5 118v-658q89 47 138 153t49 230q0 193 -113 312t-289 119 q-198 0 -327 -149.5t-130 -383.5l-1 -438h-180zM640 397q0 -100 49.5 -164t143.5 -83v486q-193 -40 -193 -239z" />
<glyph unicode="A" d="M27 0l463 1642l463 -1642h-200l-70 265h-387l-69 -265h-200zM342 441h295l-107 411l-41 190l-39 -190z" />
<glyph unicode="B" horiz-adv-x="926" d="M170 -18v1630q144 0 260 -39.5t189 -107.5t112 -156t39 -187q0 -86 -43.5 -176.5t-121.5 -160.5q211 -123 211 -354q0 -201 -168 -325t-478 -124zM356 190q115 0 191 67t76 174q0 90 -78.5 165.5t-188.5 75.5v-482zM356 838q79 0 150 83.5t71 199.5q0 119 -70.5 201 t-150.5 82v-566z" />
<glyph unicode="C" horiz-adv-x="844" d="M90 796q0 175 25 314t68.5 231.5t104.5 154t130.5 88.5t148.5 27q102 0 197 -41l-83 -161q-37 17 -89 17q-46 0 -89 -20.5t-83.5 -69t-70.5 -119.5t-48 -179t-18 -242t18 -242t48 -179t70.5 -119.5t83.5 -69t89 -20.5q52 0 89 17l83 -161q-95 -41 -197 -41 q-79 0 -148.5 27t-130.5 88.5t-104.5 154t-68.5 231.5t-25 314z" />
<glyph unicode="D" horiz-adv-x="987" d="M170 -19v1630q334 -18 531 -233.5t197 -581.5t-197 -581.5t-531 -233.5zM356 197q54 17 102.5 47t94 80t79 115t53.5 157t20 200t-20 200t-53.5 157t-79 115t-94 80t-102.5 47v-1198z" />
<glyph unicode="E" horiz-adv-x="825" d="M170 0v1593h536v-176h-350v-612h300v-176h-300v-453h350v-176h-536z" />
<glyph unicode="F" horiz-adv-x="805" d="M170 0v1594l544 -1v-176h-358v-674h308v-176h-308v-567h-186z" />
<glyph unicode="G" horiz-adv-x="945" d="M89 826q0 182 45 333t121 248.5t174 150.5t207 53q89 0 189 -41l-84 -161q-42 17 -101 17q-67 0 -130 -39.5t-114.5 -113t-82.5 -190.5t-31 -259q0 -254 95 -415t254 -208v547h186v-766q-100 -4 -192.5 17.5t-173.5 67.5t-147.5 118.5t-114 166t-74 214.5t-26.5 260z" />
<glyph unicode="H" horiz-adv-x="1063" d="M170 0v1593h186v-884h351v884h186v-1593h-186v533h-351v-533h-186z" />
<glyph unicode="I" horiz-adv-x="526" d="M170 0v1593h186v-1593h-186z" />
<glyph unicode="J" horiz-adv-x="537" d="M4 140q94 65 135 143t41 190v1120h186v-1140q0 -335 -262 -480z" />
<glyph unicode="K" horiz-adv-x="1006" d="M170 0v1593h186v-783l384 783h200l-413 -836l448 -757h-215l-404 687v-687h-186z" />
<glyph unicode="L" horiz-adv-x="797" d="M170 0v1593h186v-1419h411v-174h-597z" />
<glyph unicode="M" horiz-adv-x="1262" d="M170 0v1654l460 -844l461 844v-1654h-186v748l5 201q-77 -150 -279 -518v-2l-1 1v1q-205 373 -280 518l6 -199v-750h-186z" />
<glyph unicode="N" horiz-adv-x="1130" d="M170 0v1654q28 -47 261 -434.5t350 -594.5l-5 191v777h185v-1627q-72 118 -192.5 318t-223.5 370t-195 316l6 -174v-796h-186z" />
<glyph unicode="O" horiz-adv-x="1049" d="M90 796q0 190 27.5 337.5t70 235.5t102 144.5t116 77t118.5 20.5t118.5 -20.5t116 -77t102 -144.5t70 -235.5t27.5 -337.5t-27.5 -337.5t-70 -235.5t-102 -144.5t-116 -77t-118.5 -20.5t-118.5 20.5t-116 77t-102 144.5t-70 235.5t-27.5 337.5zM283 796q0 -140 14.5 -251 t38 -181t55.5 -116t64.5 -64.5t68.5 -18.5t68.5 18.5t64.5 64.5t55.5 116t38 181t14.5 251t-14.5 251t-38 181t-55.5 116t-64.5 64.5t-68.5 18.5t-68.5 -18.5t-64.5 -64.5t-55.5 -116t-38 -181t-14.5 -251z" />
<glyph unicode="P" horiz-adv-x="934" d="M170 0v1613q168 7 297.5 -31t211 -115t123 -184.5t41.5 -241.5q0 -233 -122.5 -382.5t-364.5 -182.5v-476h-186zM356 665q133 12 213.5 107.5t80.5 268.5t-80.5 268.5t-213.5 107.5v-752z" />
<glyph unicode="Q" horiz-adv-x="1104" d="M90 796q0 190 27.5 337.5t70 235.5t102 144.5t116 77t118.5 20.5t118.5 -20.5t116 -77t102 -144.5t70 -235.5t27.5 -337.5q0 -404 -120 -615l131 -147l-130 -107l-110 124q-92 -70 -205 -70q-62 0 -118.5 20.5t-116 77t-102 144.5t-70 235.5t-27.5 337.5zM283 796 q0 -140 14.5 -251t38 -181t55.5 -116t64.5 -64.5t68.5 -18.5q42 0 80 27l-170 192l130 107l138 -156q63 162 63 461q0 140 -14.5 251t-38 181t-55.5 116t-64.5 64.5t-68.5 18.5t-68.5 -18.5t-64.5 -64.5t-55.5 -116t-38 -181t-14.5 -251z" />
<glyph unicode="R" horiz-adv-x="940" d="M170 0v1613q168 7 297.5 -30t211 -111t123 -178t41.5 -233q0 -310 -220 -454l277 -607h-210l-228 537q-50 -14 -106 -21v-516h-186zM356 705q134 12 214 102t80 254t-80 254t-214 102v-712z" />
<glyph unicode="S" horiz-adv-x="856" d="M80 73l86 166q128 -75 220 -75q85 0 141 47.5t56 140.5q0 68 -37.5 145.5t-128.5 193.5l-129 163q-176 222 -176 410q0 153 95.5 250t258.5 97q140 0 264 -73l-80 -155q-87 52 -165 52q-83 0 -131.5 -47.5t-48.5 -130.5q0 -50 24 -105.5t87 -138.5l187 -246 q59 -78 90.5 -127t57 -122t25.5 -151q0 -177 -108.5 -281.5t-281.5 -104.5q-172 0 -306 92z" />
<glyph unicode="T" horiz-adv-x="825" d="M70 1417v176h686v-176h-250v-1417h-186v1417h-250z" />
<glyph unicode="U" horiz-adv-x="1087" d="M168 443v1150h186v-1127q0 -160 47.5 -230.5t141.5 -70.5t141.5 70.5t47.5 230.5v1127h186v-1150q0 -462 -375 -462t-375 462z" />
<glyph unicode="V" horiz-adv-x="985" d="M31 1593h200l220 -852l42 -191q48 210 149 598.5t115 444.5h200l-463 -1642z" />
<glyph unicode="W" horiz-adv-x="1247" d="M31 1593h200l153 -797l39 -256q80 232 202 562q123 -334 201 -562q24 161 56 336t74 388.5t63 328.5h200l-343 -1642q-215 586 -251 690q-37 -107 -251 -690z" />
<glyph unicode="X" horiz-adv-x="897" d="M43 0l309 815l-288 778h200l201 -542l169 542h200l-273 -802l294 -791h-200l-210 565l-202 -565h-200z" />
<glyph unicode="Y" horiz-adv-x="907" d="M31 1594h200l224 -786l224 786h200l-332 -1058v-536h-186v543z" />
<glyph unicode="Z" horiz-adv-x="852" d="M111 0l449 1417h-414v176h662l-449 -1417h449v-176h-697z" />
<glyph unicode="[" horiz-adv-x="678" d="M184 -158v1909h343v-158h-175v-1593h175v-158h-343z" />
<glyph unicode="\" horiz-adv-x="864" d="M76 1559l153 53l541 -1578l-152 -53z" />
<glyph unicode="]" horiz-adv-x="678" d="M150 0h175v1593h-175v158h343v-1909h-343v158z" />
<glyph unicode="^" horiz-adv-x="1186" d="M125 594l468 786l468 -786l-131 -78l-337 576l-337 -576z" />
<glyph unicode="_" horiz-adv-x="1050" d="M-50 -205h1150v-148h-1150v148z" />
<glyph unicode="`" horiz-adv-x="668" d="M94 1508l99 123l379 -302l-99 -123z" />
<glyph unicode="a" horiz-adv-x="879" d="M104 332q0 162 115.5 255t336.5 104v21q0 93 -44.5 146.5t-121.5 53.5q-74 0 -167 -53l-68 160q123 62 257 62q146 0 233 -97t87 -265v-738l-131 64q-80 -64 -185 -64q-135 0 -223.5 101t-88.5 250zM285 329q0 -75 42.5 -124t109.5 -49q73 0 119 46v329 q-127 1 -199 -52.5t-72 -149.5z" />
<glyph unicode="b" horiz-adv-x="946" d="M145 -17v1610h178v-551q66 39 143 39q79 0 146.5 -32.5t121 -97.5t83.5 -172.5t30 -247.5t-30 -247.5t-83.5 -172.5t-121 -97.5t-146.5 -32.5q-121 0 -204 86zM323 199q55 -50 131 -50q34 0 64 11t57.5 38t47 69.5t31.5 109.5t12 154t-12 154t-31.5 109.5t-47 69.5 t-57.5 38t-64 11q-77 0 -131 -51v-663z" />
<glyph unicode="c" horiz-adv-x="762" d="M90 531q0 266 108 408t281 142q112 0 218 -64l-75 -155q-73 44 -143 44q-87 0 -147 -92t-60 -283t60 -283t147 -92q70 0 143 44l75 -155q-106 -64 -218 -64q-173 0 -281 142t-108 408z" />
<glyph unicode="d" horiz-adv-x="946" d="M100 531q0 140 30 247.5t83.5 172.5t121 97.5t146.5 32.5q76 0 143 -39v551h178v-1616l-121 86q-82 -82 -200 -82q-79 0 -146.5 32.5t-121 97.5t-83.5 172.5t-30 247.5zM281 531q0 -87 12 -154t31.5 -109.5t47 -69.5t57.5 -38t64 -11q75 0 131 50v663q-56 51 -131 51 q-34 0 -64 -11t-57.5 -38t-47 -69.5t-31.5 -109.5t-12 -154z" />
<glyph unicode="e" horiz-adv-x="862" d="M90 538q0 131 31 236.5t84 171t120.5 100.5t142.5 35q174 0 254.5 -172.5t30.5 -453.5l-478 1q8 -83 31.5 -144.5t57 -95.5t69.5 -50t76 -16q43 0 88.5 17t72.5 38l68 -152q-47 -30 -115.5 -51t-134.5 -21q-175 0 -286.5 149.5t-111.5 407.5zM276 623h313 q16 283 -125 283q-74 0 -125 -73.5t-63 -209.5z" />
<glyph unicode="f" horiz-adv-x="565" d="M74 894v168h81v60q0 208 99.5 346t262.5 144v-175q-91 -13 -137.5 -99t-46.5 -218v-58h178v-168h-178v-894h-178v894h-81z" />
<glyph unicode="g" horiz-adv-x="940" d="M100 552q0 134 30.5 238.5t83.5 167.5t118.5 94.5t141.5 31.5q111 0 189 -66l132 64v-919q0 -184 -91.5 -314t-293.5 -213l-87 144q129 53 195 117t87 151q-57 -28 -131 -28q-76 0 -141.5 31.5t-118.5 94.5t-83.5 167.5t-30.5 238.5zM281 552q0 -102 17.5 -175.5t48 -113 t66.5 -57.5t80 -18q69 0 124 44v639q-54 45 -124 45q-44 0 -80 -18t-66.5 -57.5t-48 -113t-17.5 -175.5z" />
<glyph unicode="h" horiz-adv-x="1008" d="M145 0v1593h178v-595q99 80 208 80q158 0 240 -100.5t82 -289.5v-688h-178v686q0 103 -41.5 157t-122.5 54q-49 0 -99 -24.5t-89 -72.5v-800h-178z" />
<glyph unicode="i" horiz-adv-x="528" d="M135 1368q0 51 36 87.5t93 36.5t93 -36.5t36 -87.5t-36 -87.5t-93 -36.5t-93 36.5t-36 87.5zM169 0v1062h178v-1062h-178z" />
<glyph unicode="j" horiz-adv-x="569" d="M39 -210q93 62 129.5 141t36.5 192v939h178v-939q0 -163 -60 -282t-197 -195zM168 1368q0 51 36 87.5t93 36.5t93 -36.5t36 -87.5t-36 -87.5t-93 -36.5t-93 36.5t-36 87.5z" />
<glyph unicode="k" horiz-adv-x="918" d="M145 0v1593h178v-1022h1l295 491h190l-315 -517l368 -545h-220l-319 482v-482h-178z" />
<glyph unicode="l" horiz-adv-x="469" d="M145 0v1593h178v-1593h-178z" />
<glyph unicode="m" horiz-adv-x="1508" d="M145 0v1081l146 -104q46 44 108.5 72.5t121.5 28.5q182 0 263 -132q44 55 116 93.5t142 38.5q158 0 240 -100.5t82 -289.5v-688h-178v686q0 103 -41.5 157t-122.5 54q-102 0 -179 -87v-810h-178v686q0 103 -41.5 157t-122.5 54q-101 0 -178 -86v-811h-178z" />
<glyph unicode="n" horiz-adv-x="997" d="M145 0v1081l150 -107q47 45 111 74.5t125 29.5q158 0 240 -100.5t82 -289.5v-688h-178v686q0 103 -41.5 157t-122.5 54q-49 0 -99 -24.5t-89 -72.5v-800h-178z" />
<glyph unicode="o" horiz-adv-x="940" d="M86 531q0 133 32 240t86 173.5t122 101.5t144 35t144 -35t122 -101.5t86 -173.5t32 -240t-32 -240t-86 -173.5t-122 -101.5t-144 -35t-144 35t-122 101.5t-86 173.5t-32 240zM272 531q0 -192 58 -283.5t140 -91.5t140 91.5t58 283.5t-58 283.5t-140 91.5t-140 -91.5 t-58 -283.5z" />
<glyph unicode="p" horiz-adv-x="946" d="M145 -354v1436l138 -68q79 67 183 67q79 0 146.5 -32.5t121 -97.5t83.5 -172.5t30 -247.5t-30 -247.5t-83.5 -172.5t-121 -97.5t-146.5 -32.5q-76 0 -143 38v-373h-178zM323 199q55 -50 131 -50q34 0 64 11t57.5 38t47 69.5t31.5 109.5t12 154t-12 154t-31.5 109.5 t-47 69.5t-57.5 38t-64 11q-77 0 -131 -51v-663z" />
<glyph unicode="q" horiz-adv-x="940" d="M100 531q0 140 30 247.5t83.5 172.5t121 97.5t146.5 32.5q105 0 185 -69l129 70v-1436h-178v369q-63 -34 -136 -34q-79 0 -146.5 32.5t-121 97.5t-83.5 172.5t-30 247.5zM281 531q0 -87 12 -154t31.5 -109.5t47 -69.5t57.5 -38t64 -11q69 0 124 44v675q-54 45 -124 45 q-34 0 -64 -11t-57.5 -38t-47 -69.5t-31.5 -109.5t-12 -154z" />
<glyph unicode="r" horiz-adv-x="631" d="M145 0v1081l151 -105q134 103 280 103v-186q-170 0 -248 -82v-811h-183z" />
<glyph unicode="s" horiz-adv-x="764" d="M98 53l69 157q87 -57 180 -57q60 0 97.5 32.5t37.5 85.5q0 35 -20.5 69t-43.5 55t-66 55l-68 54q-167 129 -167 298q0 114 85.5 196.5t216.5 82.5q116 0 223 -54l-74 -166q-69 51 -153 51q-54 0 -86 -30.5t-32 -73.5q0 -34 22.5 -67t76.5 -78l78 -64 q104 -85 147.5 -160.5t43.5 -166.5q0 -124 -92 -207t-230 -83q-129 0 -245 71z" />
<glyph unicode="t" horiz-adv-x="633" d="M98 894v168h79v354h178v-354h170v-168h-170v-474q0 -122 41.5 -182.5t142.5 -77.5v-178q-182 8 -272 116.5t-90 323.5v472h-79z" />
<glyph unicode="u" d="M145 327v735h178v-692q0 -209 163 -209q107 0 172 84v817h178v-1082l-132 94q-117 -92 -260 -92q-130 0 -214.5 91t-84.5 254z" />
<glyph unicode="v" horiz-adv-x="836" d="M35 1062h190l150 -461l46 -160q26 95 57.5 197.5t72.5 230t62 193.5h187l-380 -1141z" />
<glyph unicode="w" horiz-adv-x="1106" d="M35 1062h190l123 -462l42 -178l58 178l105 282l111 -282l62 -178q21 98 46 202.5t59 238.5t50 199h190l-312 -1123l-135 337l-71 197q-43 -126 -206 -534z" />
<glyph unicode="x" horiz-adv-x="807" d="M35 0l279 539l-259 523h190l169 -342l148 342h190l-246 -526l266 -536h-190l-176 354l-181 -354h-190z" />
<glyph unicode="y" horiz-adv-x="836" d="M35 1062h190l150 -540l49 -225q24 118 54 241.5t72.5 287.5t60.5 236h190l-260 -952q-56 -205 -108 -293t-166 -171l-87 144q80 63 118.5 120.5t46.5 134.5z" />
<glyph unicode="z" horiz-adv-x="856" d="M90 0l418 894h-345v168h614l-419 -894h388v-168h-656z" />
<glyph unicode="{" horiz-adv-x="817" d="M76 796q139 106 189.5 201t50.5 238v243q0 140 65.5 206.5t207.5 66.5h80v-158h-80q-54 0 -79.5 -28t-25.5 -87v-243q0 -135 -40 -243.5t-140 -194.5q100 -88 140 -197t40 -243v-242q0 -59 25.5 -87t79.5 -28h80v-158h-80q-142 0 -207.5 66.5t-65.5 206.5v242 q0 143 -50.5 238t-189.5 201z" />
<glyph unicode="|" horiz-adv-x="565" d="M209 -177v1948h148v-1948h-148z" />
<glyph unicode="}" horiz-adv-x="817" d="M150 0h80q54 0 79.5 28t25.5 87v242q0 134 40 242.5t140 196.5q-100 86 -140 195t-40 244v243q0 59 -25.5 87t-79.5 28h-80v158h80q142 0 207.5 -66.5t65.5 -206.5v-243q0 -143 50.5 -238t189.5 -201q-139 -106 -189.5 -201t-50.5 -238v-242q0 -140 -65.5 -206.5 t-207.5 -66.5h-80v158z" />
<glyph unicode="~" horiz-adv-x="1110" d="M139 810q44 65 123 115t153 50q43 0 95 -26.5t101.5 -53t85.5 -26.5q38 0 85.5 25t90.5 71l96 -120q-43 -64 -119 -114.5t-146 -50.5q-46 0 -100 26.5t-104.5 53t-88.5 26.5t-85.5 -25t-90.5 -71z" />
<glyph unicode="&#xa1;" horiz-adv-x="578" d="M150 1124q0 55 39 94t100 39t100 -39t39 -94t-39 -94.5t-100 -39.5t-100 39.5t-39 94.5zM199 -354v1062h186v-1062h-186z" />
<glyph unicode="&#xa2;" horiz-adv-x="770" d="M94 531q0 215 71.5 349.5t194.5 179.5v178h148v-158q99 -7 193 -63l-75 -155q-73 44 -143 44q-87 0 -147 -92t-60 -283t60 -283t147 -92q70 0 143 44l75 -155q-91 -56 -193 -63v-158h-148v178q-123 44 -194.5 179t-71.5 350z" />
<glyph unicode="&#xa3;" horiz-adv-x="1016" d="M135 0q167 364 169 676h-164v176h136q-8 28 -25.5 89t-27.5 98t-19 90.5t-9 99.5q0 164 103 273.5t271 109.5q183 0 310 -110l-78 -147q-55 42 -115.5 62t-107.5 20q-87 0 -138.5 -57t-51.5 -151q0 -67 12.5 -128t38.5 -139t34 -110h311v-176h-287q-1 -245 -93 -500h462 v-176h-731z" />
<glyph unicode="&#xa4;" horiz-adv-x="1061" d="M86 388l142 141q-57 87 -57 194t58 195l-142 142l108 107l141 -142q88 56 192 56q106 0 194 -58l144 144l107 -107l-144 -144q57 -89 57 -193t-56 -192l143 -142l-107 -107l-143 142q-88 -58 -195 -58t-194 57l-141 -142zM331 723q0 -81 58 -139t139 -58t139.5 58 t58.5 139t-58.5 139.5t-139.5 58.5t-139 -58.5t-58 -139.5z" />
<glyph unicode="&#xa5;" horiz-adv-x="918" d="M35 1594h200l224 -786l224 786h200l-245 -779h172v-158h-221l-38 -121v-5h259v-158h-259v-373h-186v373h-287v158h287v12l-36 114h-251v158h201z" />
<glyph unicode="&#xa6;" horiz-adv-x="565" d="M209 -177v709h148v-709h-148zM209 1062v709h148v-709h-148z" />
<glyph unicode="&#xa7;" horiz-adv-x="995" d="M150 -262l86 166q125 -75 218 -75q91 0 145 52.5t54 138.5q0 49 -24.5 96t-59 83.5t-101.5 96.5l-130 117q-156 141 -156 317q0 73 30.5 142.5t86.5 118.5q-117 125 -117 279q0 152 95.5 249t258.5 97q140 0 264 -73l-80 -155q-87 52 -164 52q-83 0 -132 -47.5 t-49 -121.5q0 -98 131 -213l136 -119q102 -90 153 -179.5t51 -199.5q0 -66 -29 -135t-80 -123q109 -129 109 -282q0 -169 -110 -271.5t-281 -102.5q-83 0 -164 25.5t-141 66.5zM375 731q0 -98 131 -213l104 -91q43 54 43 133q0 49 -24.5 96t-59 83.5t-101.5 96.5l-36 32 q-57 -49 -57 -137z" />
<glyph unicode="&#xa8;" horiz-adv-x="813" d="M94 1397q0 51 36 87.5t93 36.5t93 -36.5t36 -87.5t-36 -87.5t-93 -36.5t-93 36.5t-36 87.5zM460 1397q0 51 36 87.5t93 36.5t93 -36.5t36 -87.5t-36 -87.5t-93 -36.5t-93 36.5t-36 87.5z" />
<glyph unicode="&#xa9;" horiz-adv-x="1368" d="M121 796q0 201 45 359t123 256t179 149t217 51t217 -51t179 -149t123 -256t45 -359t-45 -359t-123 -256t-179 -149t-217 -51t-217 51t-179 149t-123 256t-45 359zM264 796q0 -140 23.5 -254.5t63.5 -192t94 -130t114 -76.5t126 -24t126 24t114 76.5t94 130t63.5 192 t23.5 254.5q-2 175 -37.5 309t-95.5 212.5t-132.5 117t-155.5 38.5q-66 0 -126 -24t-114 -76.5t-94 -130t-63.5 -192t-23.5 -254.5zM420 796q0 209 84.5 320.5t219.5 111.5q98 0 175 -50l-61 -124q-60 37 -114 37q-67 0 -113.5 -72t-46.5 -223t46.5 -223.5t113.5 -72.5 q52 0 114 38l61 -124q-77 -50 -175 -50q-135 0 -219.5 111.5t-84.5 320.5z" />
<glyph unicode="&#xaa;" horiz-adv-x="651" d="M117 1118q0 105 79 167.5t232 69.5q-2 59 -28 92.5t-74 33.5q-50 0 -112 -35l-55 125q83 41 174 41q105 0 168 -64t63 -175v-488l-102 51q-54 -51 -131 -51q-90 0 -152 67.5t-62 165.5zM260 1121q0 -42 25.5 -71t67.5 -29q46 0 75 29v179q-80 1 -124 -27t-44 -81z" />
<glyph unicode="&#xab;" horiz-adv-x="1237" d="M125 531l326 400l108 -92l-249 -308l249 -308l-108 -92zM557 531l326 400l108 -92l-249 -308l249 -308l-108 -92z" />
<glyph unicode="&#xac;" horiz-adv-x="1028" d="M150 531v168h728v-414h-176v246h-552z" />
<glyph unicode="&#xad;" horiz-adv-x="727" d="M150 531v168h427v-168h-427z" />
<glyph unicode="&#xae;" horiz-adv-x="1368" d="M121 796q0 201 45 359t123 256t179 149t217 51t217 -51t179 -149t123 -256t45 -359t-45 -359t-123 -256t-179 -149t-217 -51t-217 51t-179 149t-123 256t-45 359zM264 796q0 -140 23.5 -254.5t63.5 -192t94 -130t114 -76.5t126 -24t126 23.5t114 76.5t94 130.5 t63.5 192.5t23.5 256q0 140 -23.5 254.5t-63 191.5t-94 129.5t-114.5 76t-125 23.5q-66 0 -126 -24t-114.5 -76.5t-94.5 -130t-63.5 -192t-23.5 -254.5zM495 384v875q204 0 302.5 -82.5t98.5 -216.5q0 -143 -111 -228l158 -348h-147l-122 289q-25 -9 -49 -15v-274h-130z M625 786q137 41 137 169q0 67 -36 113t-101 58v-340z" />
<glyph unicode="&#xb0;" horiz-adv-x="725" d="M115 1299q0 144 68.5 229.5t178.5 85.5t178.5 -85.5t68.5 -229.5t-68.5 -229.5t-178.5 -85.5t-178.5 85.5t-68.5 229.5zM256 1299q0 -93 29 -136.5t77 -43.5t77 43.5t29 136.5t-29 136.5t-77 43.5t-77 -43.5t-29 -136.5z" />
<glyph unicode="&#xb1;" horiz-adv-x="1239" d="M264 0v151h707v-151h-707zM310 579v151h275v276h157v-276h275v-151h-275v-275h-157v275h-275z" />
<glyph unicode="&#xb2;" horiz-adv-x="782" d="M125 529l294 616q67 140 67 213q0 49 -33.5 81.5t-93.5 32.5q-64 0 -136 -58l-71 117q99 81 222 81q122 0 196 -71.5t74 -179.5q0 -54 -22 -119.5t-76 -177.5l-189 -391h300v-144h-532z" />
<glyph unicode="&#xb3;" horiz-adv-x="780" d="M125 560l57 123q63 -32 136 -32q85 0 132.5 49.5t47.5 132.5q0 87 -50.5 139.5t-131.5 52.5q-63 0 -96 -18l197 442h-231v144h450l-199 -447q108 -41 163.5 -123.5t55.5 -186.5q0 -140 -87.5 -233t-238.5 -93q-120 0 -205 50z" />
<glyph unicode="&#xb4;" horiz-adv-x="668" d="M94 1329l379 302l99 -123l-379 -302z" />
<glyph unicode="&#xb6;" horiz-adv-x="1321" d="M150 1016q0 121 45 227.5t124 183.5t193.5 121.5t247.5 44.5h410v-148h-135v-1622h-148v1622h-153v-1623h-147v628q-209 60 -323 211.5t-114 354.5zM305 1016q0 -158 79.5 -265.5t203.5 -143.5v818q-124 -37 -204 -144t-79 -265z" />
<glyph unicode="&#xb7;" horiz-adv-x="578" d="M150 527q0 55 39 94.5t100 39.5t100 -39.5t39 -94.5t-39 -94t-100 -39t-100 39t-39 94z" />
<glyph unicode="&#xb8;" horiz-adv-x="676" d="M125 -216l125 279h137l-72 -146q77 -14 129 -62t52 -124q0 -99 -90.5 -173t-241.5 -89l-36 136q92 8 146 41t54 80q0 33 -28.5 54t-79.5 21q-49 0 -95 -17z" />
<glyph unicode="&#xb9;" horiz-adv-x="397" d="M125 530v938l148 165v-1103h-148z" />
<glyph unicode="&#xba;" horiz-adv-x="666" d="M86 1249q0 174 71.5 268.5t176.5 94.5q104 0 176 -95t72 -268t-72 -269t-176 -96q-105 0 -176.5 95.5t-71.5 269.5zM227 1249q0 -116 31.5 -171.5t75.5 -55.5q45 0 76.5 55.5t31.5 171.5t-31.5 170.5t-76.5 54.5q-44 0 -75.5 -55t-31.5 -170z" />
<glyph unicode="&#xbb;" horiz-adv-x="1239" d="M158 223l249 308l-249 308l108 92l326 -400l-326 -400zM591 223l249 308l-249 308l108 92l326 -400l-326 -400z" />
<glyph unicode="&#xbc;" horiz-adv-x="1642" d="M150 531v938l148 165v-1103h-148zM205 30l743 1582l134 -63l-743 -1582zM839 250l220 812h150l-179 -668h173v222l148 165v-387h117v-144h-117v-250h-148v250h-364z" />
<glyph unicode="&#xbd;" horiz-adv-x="1640" d="M150 530v938l148 165v-1103h-148zM215 30l743 1582l134 -63l-743 -1582zM958 2l294 616q67 140 67 213q0 49 -33.5 81.5t-93.5 32.5q-64 0 -136 -58l-71 117q99 81 222 81q122 0 196 -71.5t74 -179.5q0 -54 -22 -119.5t-76 -177.5l-189 -391h300v-144h-532z" />
<glyph unicode="&#xbe;" horiz-adv-x="1942" d="M175 560l57 123q63 -32 136 -32q85 0 132.5 49.5t47.5 132.5q0 87 -50.5 139.5t-131.5 52.5q-63 0 -96 -18l197 442h-231v144h450l-199 -447q108 -41 163.5 -123.5t55.5 -186.5q0 -140 -87.5 -233t-238.5 -93q-120 0 -205 50zM529 30l743 1582l134 -63l-743 -1582z M1163 250l220 812h150l-179 -668h173v222l148 165v-387h117v-144h-117v-250h-148v250h-364z" />
<glyph unicode="&#xbf;" horiz-adv-x="913" d="M150 -29q0 60 16 109.5t41.5 84.5t56.5 67.5t62.5 68t58 76.5t44 102.5t19.5 136.5v110h186v-113q0 -78 -16.5 -145t-42.5 -114t-57.5 -88t-63 -74t-57.5 -63.5t-42.5 -65.5t-16.5 -72q0 -74 49 -121.5t132 -47.5q77 0 164 52l80 -155q-124 -73 -264 -73 q-164 0 -256.5 87.5t-92.5 237.5zM376 1142q0 55 39 94t100 39t100 -39t39 -94t-39 -94.5t-100 -39.5t-100 39.5t-39 94.5z" />
<glyph unicode="&#xc0;" d="M27 0l463 1642l463 -1642h-200l-70 265h-387l-69 -265h-200zM242 1850l67 153l443 -195l-68 -154zM342 441h295l-107 411l-41 190l-39 -190z" />
<glyph unicode="&#xc1;" d="M27 0l463 1642l463 -1642h-200l-70 265h-387l-69 -265h-200zM202 1825l443 195l67 -153l-442 -196zM342 441h295l-107 411l-41 190l-39 -190z" />
<glyph unicode="&#xc2;" d="M27 0l463 1642l463 -1642h-200l-70 265h-387l-69 -265h-200zM169 1838l316 163l316 -163l-76 -138l-240 121l-240 -121zM342 441h295l-107 411l-41 190l-39 -190z" />
<glyph unicode="&#xc3;" d="M27 0l463 1642l463 -1642h-200l-70 265h-387l-69 -265h-200zM153 1814q32 57 90 101t112 44q44 0 88 -19t82.5 -38t68.5 -19q75 0 139 76l76 -97q-32 -57 -90 -101t-112 -44q-44 0 -88 19t-82.5 38t-68.5 19q-75 0 -139 -76zM342 441h295l-107 411l-41 190l-39 -190z" />
<glyph unicode="&#xc4;" d="M27 0l463 1642l463 -1642h-200l-70 265h-387l-69 -265h-200zM165 1823q0 51 36 87.5t93 36.5t93 -36.5t36 -87.5t-36 -87.5t-93 -36.5t-93 36.5t-36 87.5zM342 441h295l-107 411l-41 190l-39 -190zM541 1823q0 51 36 87.5t93 36.5t93 -36.5t36 -87.5t-36 -87.5t-93 -36.5 t-93 36.5t-36 87.5z" />
<glyph unicode="&#xc5;" d="M27 0l397 1410q-64 25 -104.5 82.5t-40.5 134.5q0 101 67.5 166.5t160.5 65.5t160.5 -65.5t67.5 -166.5q0 -86 -50.5 -147.5t-126.5 -79.5l395 -1400h-200l-70 265h-387l-69 -265h-200zM342 441h295l-107 411l-41 190l-39 -190zM408 1627q0 -51 26.5 -78t72.5 -27 t72.5 27t26.5 78t-26.5 78t-72.5 27t-72.5 -27t-26.5 -78z" />
<glyph unicode="&#xc6;" horiz-adv-x="1278" d="M16 0l587 1593h556v-176h-350v-612h300v-176h-300v-453h350v-176h-557v265h-295v4l-91 -269h-200zM365 441h237v703z" />
<glyph unicode="&#xc7;" horiz-adv-x="838" d="M90 796q0 175 25 314t68.5 231.5t104.5 154t130.5 88.5t148.5 27q102 0 197 -41l-83 -161q-37 17 -89 17q-46 0 -89 -20.5t-83.5 -69t-70.5 -119.5t-48 -179t-18 -242t18 -242t48 -179t70.5 -119.5t83.5 -69t89 -20.5q52 0 89 17l83 -161q-91 -40 -188 -41l-31 -64 q77 -14 129 -62t52 -124q0 -99 -90.5 -173t-241.5 -89l-36 136q92 8 146 41t54 80q0 33 -28.5 54t-79.5 21q-49 0 -95 -17l95 214q-164 48 -262 243.5t-98 554.5z" />
<glyph unicode="&#xc8;" horiz-adv-x="825" d="M170 0v1593h536v-176h-350v-612h300v-176h-300v-453h350v-176h-536zM184 1867l67 153l443 -195l-68 -154z" />
<glyph unicode="&#xc9;" horiz-adv-x="825" d="M170 0v1593h536v-176h-350v-612h300v-176h-300v-453h350v-176h-536zM178 1825l443 195l67 -153l-442 -196z" />
<glyph unicode="&#xca;" horiz-adv-x="825" d="M102 1857l316 163l316 -163l-76 -138l-240 121l-240 -121zM170 0v1593h536v-176h-350v-612h300v-176h-300v-453h350v-176h-536z" />
<glyph unicode="&#xcb;" horiz-adv-x="825" d="M113 1823q0 51 36 87.5t93 36.5t93 -36.5t36 -87.5t-36 -87.5t-93 -36.5t-93 36.5t-36 87.5zM170 0v1593h536v-176h-350v-612h300v-176h-300v-453h350v-176h-536zM489 1823q0 51 36 87.5t93 36.5t93 -36.5t36 -87.5t-36 -87.5t-93 -36.5t-93 36.5t-36 87.5z" />
<glyph unicode="&#xcc;" horiz-adv-x="526" d="M31 1867l67 153l443 -195l-68 -154zM170 0v1593h186v-1593h-186z" />
<glyph unicode="&#xcd;" horiz-adv-x="526" d="M-7 1825l443 195l67 -153l-442 -196zM170 0v1593h186v-1593h-186z" />
<glyph unicode="&#xce;" horiz-adv-x="526" d="M-53 1857l316 163l316 -163l-76 -138l-240 121l-240 -121zM170 0v1593h186v-1593h-186z" />
<glyph unicode="&#xcf;" horiz-adv-x="526" d="M-54 1823q0 51 36 87.5t93 36.5t93 -36.5t36 -87.5t-36 -87.5t-93 -36.5t-93 36.5t-36 87.5zM170 0v1593h186v-1593h-186zM322 1823q0 51 36 87.5t93 36.5t93 -36.5t36 -87.5t-36 -87.5t-93 -36.5t-93 36.5t-36 87.5z" />
<glyph unicode="&#xd0;" horiz-adv-x="987" d="M60 716v168h110v727q334 -18 531 -233.5t197 -581.5t-197 -581.5t-531 -233.5v735h-110zM356 197q54 17 102.5 47t94 80t79 115t53.5 157t20 200t-20 200t-53.5 157t-79 115t-94 80t-102.5 47v-511h151v-168h-151v-519z" />
<glyph unicode="&#xd1;" horiz-adv-x="1126" d="M166 0v1654q28 -47 261 -434.5t350 -594.5l-5 191v777h185v-1627q-33 54 -260.5 431t-350.5 573l6 -174v-796h-186zM217 1814q32 57 90 101t112 44q28 0 56.5 -8t51.5 -19t44 -22t44 -19t43 -8t42 7t48.5 24.5t48.5 44.5l76 -97q-32 -57 -90 -101t-112 -44 q-35 0 -70.5 12t-60 26t-54.5 26t-54 12q-32 0 -69 -18.5t-70 -57.5z" />
<glyph unicode="&#xd2;" horiz-adv-x="1049" d="M90 796q0 190 27.5 337.5t70 235.5t102 144.5t116 77t118.5 20.5t118.5 -20.5t116 -77t102 -144.5t70 -235.5t27.5 -337.5t-27.5 -337.5t-70 -235.5t-102 -144.5t-116 -77t-118.5 -20.5t-118.5 20.5t-116 77t-102 144.5t-70 235.5t-27.5 337.5zM283 796q0 -140 14.5 -251 t38 -181t55.5 -116t64.5 -64.5t68.5 -18.5t68.5 18.5t64.5 64.5t55.5 116t38 181t14.5 251t-14.5 251t-38 181t-55.5 116t-64.5 64.5t-68.5 18.5t-68.5 -18.5t-64.5 -64.5t-55.5 -116t-38 -181t-14.5 -251zM298 1867l67 153l443 -195l-68 -154z" />
<glyph unicode="&#xd3;" horiz-adv-x="1049" d="M90 796q0 190 27.5 337.5t70 235.5t102 144.5t116 77t118.5 20.5t118.5 -20.5t116 -77t102 -144.5t70 -235.5t27.5 -337.5t-27.5 -337.5t-70 -235.5t-102 -144.5t-116 -77t-118.5 -20.5t-118.5 20.5t-116 77t-102 144.5t-70 235.5t-27.5 337.5zM251 1825l443 195l67 -153 l-442 -196zM283 796q0 -140 14.5 -251t38 -181t55.5 -116t64.5 -64.5t68.5 -18.5t68.5 18.5t64.5 64.5t55.5 116t38 181t14.5 251t-14.5 251t-38 181t-55.5 116t-64.5 64.5t-68.5 18.5t-68.5 -18.5t-64.5 -64.5t-55.5 -116t-38 -181t-14.5 -251z" />
<glyph unicode="&#xd4;" horiz-adv-x="1049" d="M90 796q0 190 27.5 337.5t70 235.5t102 144.5t116 77t118.5 20.5t118.5 -20.5t116 -77t102 -144.5t70 -235.5t27.5 -337.5t-27.5 -337.5t-70 -235.5t-102 -144.5t-116 -77t-118.5 -20.5t-118.5 20.5t-116 77t-102 144.5t-70 235.5t-27.5 337.5zM210 1857l316 163 l316 -163l-76 -138l-240 121l-240 -121zM283 796q0 -140 14.5 -251t38 -181t55.5 -116t64.5 -64.5t68.5 -18.5t68.5 18.5t64.5 64.5t55.5 116t38 181t14.5 251t-14.5 251t-38 181t-55.5 116t-64.5 64.5t-68.5 18.5t-68.5 -18.5t-64.5 -64.5t-55.5 -116t-38 -181t-14.5 -251z " />
<glyph unicode="&#xd5;" horiz-adv-x="1049" d="M90 796q0 190 27.5 337.5t70 235.5t102 144.5t116 77t118.5 20.5t118.5 -20.5t116 -77t102 -144.5t70 -235.5t27.5 -337.5t-27.5 -337.5t-70 -235.5t-102 -144.5t-116 -77t-118.5 -20.5t-118.5 20.5t-116 77t-102 144.5t-70 235.5t-27.5 337.5zM195 1814q32 57 90 101 t112 44q44 0 88 -19t82.5 -38t68.5 -19q75 0 139 76l76 -97q-32 -57 -90 -101t-112 -44q-44 0 -88 19t-82.5 38t-68.5 19q-75 0 -139 -76zM283 796q0 -140 14.5 -251t38 -181t55.5 -116t64.5 -64.5t68.5 -18.5t68.5 18.5t64.5 64.5t55.5 116t38 181t14.5 251t-14.5 251 t-38 181t-55.5 116t-64.5 64.5t-68.5 18.5t-68.5 -18.5t-64.5 -64.5t-55.5 -116t-38 -181t-14.5 -251z" />
<glyph unicode="&#xd6;" horiz-adv-x="1049" d="M90 796q0 190 27.5 337.5t70 235.5t102 144.5t116 77t118.5 20.5t118.5 -20.5t116 -77t102 -144.5t70 -235.5t27.5 -337.5t-27.5 -337.5t-70 -235.5t-102 -144.5t-116 -77t-118.5 -20.5t-118.5 20.5t-116 77t-102 144.5t-70 235.5t-27.5 337.5zM204 1823q0 51 36 87.5 t93 36.5t93 -36.5t36 -87.5t-36 -87.5t-93 -36.5t-93 36.5t-36 87.5zM283 796q0 -140 14.5 -251t38 -181t55.5 -116t64.5 -64.5t68.5 -18.5t68.5 18.5t64.5 64.5t55.5 116t38 181t14.5 251t-14.5 251t-38 181t-55.5 116t-64.5 64.5t-68.5 18.5t-68.5 -18.5t-64.5 -64.5 t-55.5 -116t-38 -181t-14.5 -251zM580 1823q0 51 36 87.5t93 36.5t93 -36.5t36 -87.5t-36 -87.5t-93 -36.5t-93 36.5t-36 87.5z" />
<glyph unicode="&#xd7;" horiz-adv-x="907" d="M150 460l195 194l-195 194l112 112l194 -194l195 194l107 -107l-195 -194l195 -194l-112 -112l-194 194l-195 -194z" />
<glyph unicode="&#xd8;" horiz-adv-x="1049" d="M90 796q0 190 27.5 337.5t70 235.5t102 144.5t116 77t118.5 20.5q90 0 166 -44l39 112l152 -48l-65 -186q142 -209 142 -649q0 -190 -27.5 -337.5t-70 -235.5t-102 -144.5t-116 -77t-118.5 -20.5q-108 0 -196 63l-45 -131l-152 48l77 223q-118 209 -118 612zM283 796 q0 -191 25 -325l317 911q-45 45 -101 45q-36 0 -68.5 -18.5t-64.5 -64.5t-55.5 -116t-38 -181t-14.5 -251zM396 240q56 -75 128 -75q36 0 68.5 18.5t64.5 64.5t55.5 116t38 181t14.5 251q0 230 -40 388z" />
<glyph unicode="&#xd9;" horiz-adv-x="1087" d="M168 443v1150h186v-1127q0 -160 47.5 -230.5t141.5 -70.5t141.5 70.5t47.5 230.5v1127h186v-1150q0 -462 -375 -462t-375 462zM274 1867l67 153l443 -195l-68 -154z" />
<glyph unicode="&#xda;" horiz-adv-x="1087" d="M168 443v1150h186v-1127q0 -160 47.5 -230.5t141.5 -70.5t141.5 70.5t47.5 230.5v1127h186v-1150q0 -462 -375 -462t-375 462zM289 1825l443 195l67 -153l-442 -196z" />
<glyph unicode="&#xdb;" horiz-adv-x="1087" d="M168 443v1150h186v-1127q0 -160 47.5 -230.5t141.5 -70.5t141.5 70.5t47.5 230.5v1127h186v-1150q0 -462 -375 -462t-375 462zM230 1813l316 163l316 -163l-76 -138l-240 121l-240 -121z" />
<glyph unicode="&#xdc;" horiz-adv-x="1087" d="M168 443v1150h186v-1127q0 -160 47.5 -230.5t141.5 -70.5t141.5 70.5t47.5 230.5v1127h186v-1150q0 -462 -375 -462t-375 462zM228 1823q0 51 36 87.5t93 36.5t93 -36.5t36 -87.5t-36 -87.5t-93 -36.5t-93 36.5t-36 87.5zM604 1823q0 51 36 87.5t93 36.5t93 -36.5 t36 -87.5t-36 -87.5t-93 -36.5t-93 36.5t-36 87.5z" />
<glyph unicode="&#xdd;" horiz-adv-x="897" d="M25 1594h200l224 -786l224 786h200l-332 -1058v-536h-186v543zM211 1825l443 195l67 -153l-442 -196z" />
<glyph unicode="&#xde;" horiz-adv-x="973" d="M166 0v1593h186v-224q241 -33 364 -182t123 -382t-122.5 -382.5t-364.5 -182.5v-240h-186zM352 429q133 12 213.5 107.5t80.5 268.5t-80.5 268.5t-213.5 107.5v-752z" />
<glyph unicode="&#xdf;" horiz-adv-x="1032" d="M58 894v168h87v77q0 224 110 348.5t280 124.5q137 0 228.5 -86t91.5 -213q0 -59 -19.5 -115.5t-47.5 -100.5t-55.5 -84.5t-47 -83t-19.5 -80.5q0 -49 32.5 -97.5t79 -93t93 -94t79 -119t32.5 -149.5q0 -141 -92.5 -227.5t-240.5 -86.5q-126 0 -242 71l75 166 q110 -63 176 -63q55 0 94.5 33.5t39.5 97.5q0 54 -33 106.5t-79.5 97t-93 91t-79.5 108t-33 128.5q0 66 32 138.5t70.5 125.5t70.5 115.5t32 109.5q0 58 -39.5 96t-99.5 43q-92 7 -153 -68.5t-61 -222.5v-1155h-181v894h-87z" />
<glyph unicode="&#xe0;" horiz-adv-x="879" d="M104 332q0 162 115.5 255t336.5 104v21q0 93 -44.5 146.5t-121.5 53.5q-74 0 -167 -53l-68 160q123 62 257 62q146 0 233 -97t87 -265v-738l-131 64q-80 -64 -185 -64q-135 0 -223.5 101t-88.5 250zM173 1508l99 123l379 -302l-99 -123zM285 329q0 -75 42.5 -124 t109.5 -49q73 0 119 46v329q-127 1 -199 -52.5t-72 -149.5z" />
<glyph unicode="&#xe1;" horiz-adv-x="879" d="M104 332q0 162 115.5 255t336.5 104v21q0 93 -44.5 146.5t-121.5 53.5q-74 0 -167 -53l-68 160q123 62 257 62q146 0 233 -97t87 -265v-738l-131 64q-80 -64 -185 -64q-135 0 -223.5 101t-88.5 250zM141 1329l379 302l99 -123l-379 -302zM285 329q0 -75 42.5 -124 t109.5 -49q73 0 119 46v329q-127 1 -199 -52.5t-72 -149.5z" />
<glyph unicode="&#xe2;" horiz-adv-x="879" d="M104 332q0 162 115.5 255t336.5 104v21q0 93 -44.5 146.5t-121.5 53.5q-74 0 -167 -53l-68 160q123 62 257 62q146 0 233 -97t87 -265v-738l-131 64q-80 -64 -185 -64q-135 0 -223.5 101t-88.5 250zM117 1374l293 238l293 -238l-92 -108l-201 161l-201 -161zM285 329 q0 -75 42.5 -124t109.5 -49q73 0 119 46v329q-127 1 -199 -52.5t-72 -149.5z" />
<glyph unicode="&#xe3;" horiz-adv-x="879" d="M95 1359q32 57 90 101t112 44q44 0 88 -19t82.5 -38t68.5 -19q75 0 139 76l76 -97q-32 -57 -90 -101t-112 -44q-44 0 -88 19t-82.5 38t-68.5 19q-75 0 -139 -76zM104 332q0 162 115.5 255t336.5 104v21q0 93 -44.5 146.5t-121.5 53.5q-74 0 -167 -53l-68 160 q123 62 257 62q146 0 233 -97t87 -265v-738l-131 64q-80 -64 -185 -64q-135 0 -223.5 101t-88.5 250zM285 329q0 -75 42.5 -124t109.5 -49q73 0 119 46v329q-127 1 -199 -52.5t-72 -149.5z" />
<glyph unicode="&#xe4;" horiz-adv-x="879" d="M99 1397q0 51 36 87.5t93 36.5t93 -36.5t36 -87.5t-36 -87.5t-93 -36.5t-93 36.5t-36 87.5zM104 332q0 162 115.5 255t336.5 104v21q0 93 -44.5 146.5t-121.5 53.5q-74 0 -167 -53l-68 160q123 62 257 62q146 0 233 -97t87 -265v-738l-131 64q-80 -64 -185 -64 q-135 0 -223.5 101t-88.5 250zM285 329q0 -75 42.5 -124t109.5 -49q73 0 119 46v329q-127 1 -199 -52.5t-72 -149.5zM465 1397q0 51 36 87.5t93 36.5t93 -36.5t36 -87.5t-36 -87.5t-93 -36.5t-93 36.5t-36 87.5z" />
<glyph unicode="&#xe5;" horiz-adv-x="879" d="M104 332q0 162 115.5 255t336.5 104v21q0 93 -44.5 146.5t-121.5 53.5q-74 0 -167 -53l-68 160q123 62 257 62q146 0 233 -97t87 -265v-738l-131 64q-80 -64 -185 -64q-135 0 -223.5 101t-88.5 250zM194 1485q0 101 67.5 166.5t160.5 65.5t160.5 -65.5t67.5 -166.5 t-67.5 -166.5t-160.5 -65.5t-160.5 65.5t-67.5 166.5zM285 329q0 -75 42.5 -124t109.5 -49q73 0 119 46v329q-127 1 -199 -52.5t-72 -149.5zM323 1485q0 -51 26.5 -78t72.5 -27t72.5 27t26.5 78t-26.5 78t-72.5 27t-72.5 -27t-26.5 -78z" />
<glyph unicode="&#xe6;" horiz-adv-x="1322" d="M104 332q0 162 115.5 255t336.5 104v21q0 93 -44.5 146.5t-121.5 53.5q-74 0 -167 -53l-68 160q123 62 257 62q172 0 260 -133q99 133 256 133q174 0 254.5 -172.5t30.5 -453.5l-478 1q14 -159 82 -232.5t159 -73.5q36 0 83.5 18t70.5 37l68 -152q-46 -30 -116 -51 t-127 -21q-163 0 -268 122q-117 -122 -271 -122q-135 0 -223.5 101t-88.5 250zM285 329q0 -80 41.5 -126.5t100.5 -46.5q86 0 129 55v320q-127 1 -199 -53t-72 -149zM736 623h313q8 160 -26.5 221.5t-106.5 61.5q-67 0 -117 -73.5t-63 -209.5z" />
<glyph unicode="&#xe7;" horiz-adv-x="762" d="M90 531q0 266 108 408t281 142q112 0 218 -64l-75 -155q-73 44 -143 44q-87 0 -147 -92t-60 -283t60 -283t147 -92q70 0 143 44l75 -155q-92 -55 -190 -62l-32 -66q77 -14 129 -62t52 -124q0 -99 -90.5 -173t-241.5 -89l-36 136q92 8 146 41t54 80q0 33 -28.5 54 t-79.5 21q-49 0 -95 -17l94 211q-133 37 -211 173.5t-78 362.5z" />
<glyph unicode="&#xe8;" horiz-adv-x="862" d="M90 538q0 131 31 236.5t84 171t120.5 100.5t142.5 35q174 0 254.5 -172.5t30.5 -453.5l-478 1q8 -83 31.5 -144.5t57 -95.5t69.5 -50t76 -16q43 0 88.5 17t72.5 38l68 -152q-47 -30 -115.5 -51t-134.5 -21q-175 0 -286.5 149.5t-111.5 407.5zM237 1508l99 123l379 -302 l-99 -123zM276 623h313q16 283 -125 283q-74 0 -125 -73.5t-63 -209.5z" />
<glyph unicode="&#xe9;" horiz-adv-x="862" d="M90 538q0 131 31 236.5t84 171t120.5 100.5t142.5 35q174 0 254.5 -172.5t30.5 -453.5l-478 1q8 -83 31.5 -144.5t57 -95.5t69.5 -50t76 -16q43 0 88.5 17t72.5 38l68 -152q-47 -30 -115.5 -51t-134.5 -21q-175 0 -286.5 149.5t-111.5 407.5zM195 1329l379 302l99 -123 l-379 -302zM276 623h313q16 283 -125 283q-74 0 -125 -73.5t-63 -209.5z" />
<glyph unicode="&#xea;" horiz-adv-x="862" d="M90 538q0 131 31 236.5t84 171t120.5 100.5t142.5 35q174 0 254.5 -172.5t30.5 -453.5l-478 1q8 -83 31.5 -144.5t57 -95.5t69.5 -50t76 -16q43 0 88.5 17t72.5 38l68 -152q-47 -30 -115.5 -51t-134.5 -21q-175 0 -286.5 149.5t-111.5 407.5zM163 1374l293 238l293 -238 l-92 -108l-201 161l-201 -161zM276 623h313q16 283 -125 283q-74 0 -125 -73.5t-63 -209.5z" />
<glyph unicode="&#xeb;" horiz-adv-x="862" d="M90 538q0 131 31 236.5t84 171t120.5 100.5t142.5 35q174 0 254.5 -172.5t30.5 -453.5l-478 1q8 -83 31.5 -144.5t57 -95.5t69.5 -50t76 -16q43 0 88.5 17t72.5 38l68 -152q-47 -30 -115.5 -51t-134.5 -21q-175 0 -286.5 149.5t-111.5 407.5zM154 1397q0 51 36 87.5 t93 36.5t93 -36.5t36 -87.5t-36 -87.5t-93 -36.5t-93 36.5t-36 87.5zM276 623h313q16 283 -125 283q-74 0 -125 -73.5t-63 -209.5zM520 1397q0 51 36 87.5t93 36.5t93 -36.5t36 -87.5t-36 -87.5t-93 -36.5t-93 36.5t-36 87.5z" />
<glyph unicode="&#xec;" horiz-adv-x="528" d="M55 1508l99 123l379 -302l-99 -123zM169 0v1062h178v-1062h-178z" />
<glyph unicode="&#xed;" horiz-adv-x="528" d="M4 1329l379 302l99 -123l-379 -302zM169 0v1062h178v-1062h-178z" />
<glyph unicode="&#xee;" horiz-adv-x="528" d="M-29 1374l293 238l293 -238l-92 -108l-201 161l-201 -161zM169 0v1062h178v-1062h-178z" />
<glyph unicode="&#xef;" horiz-adv-x="528" d="M-48 1397q0 51 36 87.5t93 36.5t93 -36.5t36 -87.5t-36 -87.5t-93 -36.5t-93 36.5t-36 87.5zM169 0v1062h178v-1062h-178zM318 1397q0 51 36 87.5t93 36.5t93 -36.5t36 -87.5t-36 -87.5t-93 -36.5t-93 36.5t-36 87.5z" />
<glyph unicode="&#xf0;" horiz-adv-x="927" d="M86 491q0 121 30 218.5t80.5 158t114 92.5t132.5 32q57 0 92.5 -13t83.5 -49q-14 135 -100 284l-160 -108l-83 119l162 109q-63 80 -139 141l83 137q107 -80 191 -187l174 118l84 -119l-176 -119q186 -314 186 -715q0 -299 -101.5 -454t-283.5 -155q-163 0 -266.5 132 t-103.5 378zM268 491q0 -175 55 -256.5t133 -81.5t133 81.5t55 256.5q0 169 -53.5 248.5t-134.5 79.5q-78 0 -133 -79.5t-55 -248.5z" />
<glyph unicode="&#xf1;" horiz-adv-x="997" d="M145 0v1081l150 -107q47 45 111 74.5t125 29.5q158 0 240 -100.5t82 -289.5v-688h-178v686q0 103 -41.5 157t-122.5 54q-49 0 -99 -24.5t-89 -72.5v-800h-178zM157 1359q32 57 90 101t112 44q44 0 88 -19t82.5 -38t68.5 -19q75 0 139 76l76 -97q-32 -57 -90 -101 t-112 -44q-44 0 -88 19t-82.5 38t-68.5 19q-75 0 -139 -76z" />
<glyph unicode="&#xf2;" horiz-adv-x="940" d="M86 531q0 133 32 240t86 173.5t122 101.5t144 35t144 -35t122 -101.5t86 -173.5t32 -240t-32 -240t-86 -173.5t-122 -101.5t-144 -35t-144 35t-122 101.5t-86 173.5t-32 240zM225 1508l99 123l379 -302l-99 -123zM272 531q0 -192 58 -283.5t140 -91.5t140 91.5t58 283.5 t-58 283.5t-140 91.5t-140 -91.5t-58 -283.5z" />
<glyph unicode="&#xf3;" horiz-adv-x="940" d="M86 531q0 133 32 240t86 173.5t122 101.5t144 35t144 -35t122 -101.5t86 -173.5t32 -240t-32 -240t-86 -173.5t-122 -101.5t-144 -35t-144 35t-122 101.5t-86 173.5t-32 240zM218 1329l379 302l99 -123l-379 -302zM272 531q0 -192 58 -283.5t140 -91.5t140 91.5t58 283.5 t-58 283.5t-140 91.5t-140 -91.5t-58 -283.5z" />
<glyph unicode="&#xf4;" horiz-adv-x="940" d="M86 531q0 133 32 240t86 173.5t122 101.5t144 35t144 -35t122 -101.5t86 -173.5t32 -240t-32 -240t-86 -173.5t-122 -101.5t-144 -35t-144 35t-122 101.5t-86 173.5t-32 240zM171 1374l293 238l293 -238l-92 -108l-201 161l-201 -161zM272 531q0 -192 58 -283.5 t140 -91.5t140 91.5t58 283.5t-58 283.5t-140 91.5t-140 -91.5t-58 -283.5z" />
<glyph unicode="&#xf5;" horiz-adv-x="940" d="M86 531q0 133 32 240t86 173.5t122 101.5t144 35t144 -35t122 -101.5t86 -173.5t32 -240t-32 -240t-86 -173.5t-122 -101.5t-144 -35t-144 35t-122 101.5t-86 173.5t-32 240zM147 1359q32 57 90 101t112 44q44 0 88 -19t82.5 -38t68.5 -19q75 0 139 76l76 -97 q-32 -57 -90 -101t-112 -44q-44 0 -88 19t-82.5 38t-68.5 19q-75 0 -139 -76zM272 531q0 -192 58 -283.5t140 -91.5t140 91.5t58 283.5t-58 283.5t-140 91.5t-140 -91.5t-58 -283.5z" />
<glyph unicode="&#xf6;" horiz-adv-x="940" d="M86 531q0 133 32 240t86 173.5t122 101.5t144 35t144 -35t122 -101.5t86 -173.5t32 -240t-32 -240t-86 -173.5t-122 -101.5t-144 -35t-144 35t-122 101.5t-86 173.5t-32 240zM152 1397q0 51 36 87.5t93 36.5t93 -36.5t36 -87.5t-36 -87.5t-93 -36.5t-93 36.5t-36 87.5z M272 531q0 -192 58 -283.5t140 -91.5t140 91.5t58 283.5t-58 283.5t-140 91.5t-140 -91.5t-58 -283.5zM518 1397q0 51 36 87.5t93 36.5t93 -36.5t36 -87.5t-36 -87.5t-93 -36.5t-93 36.5t-36 87.5z" />
<glyph unicode="&#xf7;" horiz-adv-x="567" d="M145 115q0 55 39 94.5t100 39.5t100 -39.5t39 -94.5t-39 -94t-100 -39t-100 39t-39 94zM145 747q0 55 39 94.5t100 39.5t100 -39.5t39 -94.5t-39 -94t-100 -39t-100 39t-39 94z" />
<glyph unicode="&#xf8;" horiz-adv-x="940" d="M86 531q0 133 32 240t86 173.5t122 101.5t144 35q42 0 84 -12l58 167l147 -55l-66 -190q75 -69 118 -185.5t43 -274.5q0 -133 -32 -240t-86 -173.5t-122 -101.5t-144 -35q-62 0 -120 23l-62 -180l-147 55l77 221q-132 150 -132 431zM272 531q0 -120 25 -203l199 575 q-14 3 -26 3q-82 0 -140 -91.5t-58 -283.5zM408 170q28 -14 62 -14q82 0 140 91.5t58 283.5q0 159 -45 257z" />
<glyph unicode="&#xf9;" d="M145 327v735h178v-692q0 -209 163 -209q107 0 172 84v817h178v-1082l-132 94q-117 -92 -260 -92q-130 0 -214.5 91t-84.5 254zM245 1508l99 123l379 -302l-99 -123z" />
<glyph unicode="&#xfa;" d="M145 327v735h178v-692q0 -209 163 -209q107 0 172 84v817h178v-1082l-132 94q-117 -92 -260 -92q-130 0 -214.5 91t-84.5 254zM238 1329l379 302l99 -123l-379 -302z" />
<glyph unicode="&#xfb;" d="M145 327v735h178v-692q0 -209 163 -209q107 0 172 84v817h178v-1082l-132 94q-117 -92 -260 -92q-130 0 -214.5 91t-84.5 254zM202 1374l293 238l293 -238l-92 -108l-201 161l-201 -161z" />
<glyph unicode="&#xfc;" d="M145 327v735h178v-692q0 -209 163 -209q107 0 172 84v817h178v-1082l-132 94q-117 -92 -260 -92q-130 0 -214.5 91t-84.5 254zM172 1397q0 51 36 87.5t93 36.5t93 -36.5t36 -87.5t-36 -87.5t-93 -36.5t-93 36.5t-36 87.5zM538 1397q0 51 36 87.5t93 36.5t93 -36.5 t36 -87.5t-36 -87.5t-93 -36.5t-93 36.5t-36 87.5z" />
<glyph unicode="&#xfd;" horiz-adv-x="836" d="M35 1062h190l150 -540l49 -225q24 118 54 241.5t72.5 287.5t60.5 236h190l-260 -952q-56 -205 -108 -293t-166 -171l-87 144q80 63 118.5 120.5t46.5 134.5zM175 1329l379 302l99 -123l-379 -302z" />
<glyph unicode="&#xfe;" horiz-adv-x="960" d="M139 -354v1947h178v-563q73 51 163 51q79 0 146.5 -32.5t121 -97.5t83.5 -172.5t30 -247.5t-30 -247.5t-83.5 -172.5t-121 -97.5t-146.5 -32.5q-76 0 -143 38v-373h-198zM337 199q55 -50 131 -50q34 0 64 11t57.5 38t47 69.5t31.5 109.5t12 154t-12 154t-31.5 109.5 t-47 69.5t-57.5 38t-64 11q-77 0 -131 -51v-663z" />
<glyph unicode="&#xff;" horiz-adv-x="836" d="M35 1062h190l150 -540l49 -225q24 118 54 241.5t72.5 287.5t60.5 236h190l-260 -952q-56 -205 -108 -293t-166 -171l-87 144q80 63 118.5 120.5t46.5 134.5zM93 1397q0 51 36 87.5t93 36.5t93 -36.5t36 -87.5t-36 -87.5t-93 -36.5t-93 36.5t-36 87.5zM459 1397 q0 51 36 87.5t93 36.5t93 -36.5t36 -87.5t-36 -87.5t-93 -36.5t-93 36.5t-36 87.5z" />
<glyph unicode="&#x152;" horiz-adv-x="1417" d="M90 791q0 191 27 339t69.5 237t101.5 146t117.5 78t123.5 21q57 0 110 -19h665v-176h-350v-612h300v-176h-300v-453h350v-176h-673q-50 -18 -107 -18q-43 0 -84 10t-85 35t-81.5 65t-72 103.5t-59 145.5t-38.5 197t-14 253zM283 789q0 -174 21.5 -301t57.5 -194.5 t76.5 -98t85.5 -30.5q34 0 65 16t62.5 56t55.5 101t40.5 159t20.5 222v141q-4 158 -25.5 274t-56 180t-73.5 93.5t-84 29.5q-48 0 -89.5 -33t-78 -104.5t-57.5 -202.5t-21 -308z" />
<glyph unicode="&#x153;" horiz-adv-x="1440" d="M86 531q0 133 32 240t86 173.5t122 101.5t144 35q85 0 160.5 -44t128.5 -129q51 84 126 127.5t161 43.5q174 0 254.5 -171.5t30.5 -452.5l-480 1q15 -159 83.5 -232.5t159.5 -73.5q36 0 83.5 18t70.5 37l68 -152q-46 -30 -116 -51t-127 -21q-97 0 -177.5 45.5 t-134.5 131.5q-52 -87 -128 -132t-163 -45q-76 0 -144 35t-122 101.5t-86 173.5t-32 240zM272 531q0 -192 58 -283.5t140 -91.5t140 91.5t58 283.5t-58 283.5t-140 91.5t-140 -91.5t-58 -283.5zM852 623h315q8 160 -26.5 221.5t-106.5 61.5q-67 0 -117.5 -73.5t-64.5 -209.5 z" />
<glyph unicode="&#x2c6;" horiz-adv-x="776" d="M94 1374l293 238l293 -238l-92 -108l-201 161l-201 -161z" />
<glyph unicode="&#x2dc;" horiz-adv-x="854" d="M100 1359q32 57 90 101t112 44q44 0 88 -19t82.5 -38t68.5 -19q75 0 139 76l76 -97q-32 -57 -90 -101t-112 -44q-44 0 -88 19t-82.5 38t-68.5 19q-75 0 -139 -76z" />
<glyph unicode="&#x2000;" horiz-adv-x="1010" />
<glyph unicode="&#x2001;" horiz-adv-x="2020" />
<glyph unicode="&#x2002;" horiz-adv-x="1010" />
<glyph unicode="&#x2003;" horiz-adv-x="2020" />
<glyph unicode="&#x2004;" horiz-adv-x="673" />
<glyph unicode="&#x2005;" horiz-adv-x="505" />
<glyph unicode="&#x2006;" horiz-adv-x="336" />
<glyph unicode="&#x2007;" horiz-adv-x="336" />
<glyph unicode="&#x2008;" horiz-adv-x="252" />
<glyph unicode="&#x2009;" horiz-adv-x="404" />
<glyph unicode="&#x200a;" horiz-adv-x="112" />
<glyph unicode="&#x2010;" horiz-adv-x="727" d="M150 531v168h427v-168h-427z" />
<glyph unicode="&#x2011;" horiz-adv-x="727" d="M150 531v168h427v-168h-427z" />
<glyph unicode="&#x2012;" horiz-adv-x="727" d="M150 531v168h427v-168h-427z" />
<glyph unicode="&#x2013;" horiz-adv-x="926" d="M150 531v168h625v-168h-625z" />
<glyph unicode="&#x2014;" horiz-adv-x="1286" d="M150 531v168h986v-168h-986z" />
<glyph unicode="&#x2018;" horiz-adv-x="571" d="M156 1231q0 157 198 362l88 -85q-44 -41 -79 -90.5t-46 -89.5q56 -4 90.5 -42t34.5 -90q0 -55 -39 -94.5t-100 -39.5q-62 0 -104.5 44.5t-42.5 124.5z" />
<glyph unicode="&#x2019;" horiz-adv-x="571" d="M129 1148q44 41 79 90.5t46 89.5q-56 4 -90.5 42t-34.5 90q0 55 39 94.5t100 39.5q62 0 104.5 -44.5t42.5 -124.5q0 -157 -198 -362z" />
<glyph unicode="&#x201a;" horiz-adv-x="530" d="M180 250h170v-532h-170v532z" />
<glyph unicode="&#x201c;" horiz-adv-x="1008" d="M156 1231q0 157 198 362l88 -85q-44 -41 -79 -90.5t-46 -89.5q56 -4 90.5 -42t34.5 -90q0 -55 -39 -94.5t-100 -39.5q-62 0 -104.5 44.5t-42.5 124.5zM532 1231q0 157 198 362l88 -85q-44 -41 -79 -90.5t-46 -89.5q56 -4 90.5 -42t34.5 -90q0 -55 -39 -94.5t-100 -39.5 q-62 0 -104.5 44.5t-42.5 124.5z" />
<glyph unicode="&#x201d;" horiz-adv-x="1006" d="M129 1148q44 41 79 90.5t46 89.5q-56 4 -90.5 42t-34.5 90q0 55 39 94.5t100 39.5q62 0 104.5 -44.5t42.5 -124.5q0 -157 -198 -362zM508 1148q44 41 79 90.5t46 89.5q-56 4 -90.5 42t-34.5 90q0 55 39 94.5t100 39.5q62 0 104.5 -44.5t42.5 -124.5q0 -157 -198 -362z " />
<glyph unicode="&#x201e;" horiz-adv-x="887" d="M129 115q0 55 39 94.5t100 39.5q62 0 104.5 -44.5t42.5 -124.5q0 -157 -198 -362l-88 85q44 41 79 90.5t46 89.5q-56 4 -90.5 42t-34.5 90zM508 115q0 55 39 94.5t100 39.5q62 0 104.5 -44.5t42.5 -124.5q0 -157 -198 -362l-88 85q44 41 79 90.5t46 89.5q-56 4 -90.5 42 t-34.5 90z" />
<glyph unicode="&#x2022;" horiz-adv-x="721" d="M150 595q0 83 58.5 142.5t151.5 59.5t151.5 -59.5t58.5 -142.5t-58.5 -142t-151.5 -59t-151.5 59t-58.5 142z" />
<glyph unicode="&#x202f;" horiz-adv-x="404" />
<glyph unicode="&#x2039;" horiz-adv-x="688" d="M86 531l326 400l108 -92l-249 -308l249 -308l-108 -92z" />
<glyph unicode="&#x203a;" horiz-adv-x="688" d="M86 223l249 308l-249 308l108 92l326 -400l-326 -400z" />
<glyph unicode="&#x205f;" horiz-adv-x="505" />
<glyph unicode="&#x20ac;" horiz-adv-x="1061" d="M82 531v176h133q-1 28 -1 89v39h-132v176h143q17 158 60.5 276.5t106.5 187.5t137.5 102.5t161.5 33.5q102 0 197 -41l-83 -161q-37 17 -89 17q-101 0 -183.5 -102.5t-111.5 -312.5h325v-176h-339v-39q0 -61 2 -89h337v-176h-317q34 -185 113 -275t174 -90q52 0 89 17 l83 -161q-95 -41 -197 -41q-83 0 -155 30.5t-134 94t-106.5 172t-64.5 253.5h-149z" />
<glyph unicode="&#xe000;" horiz-adv-x="1060" d="M0 0v1060h1060v-1060h-1060z" />
</font>
</defs>
</svg>
