<?xml version="1.0" standalone="no"?>
<!DOCTYPE svg PUBLIC "-//W3C//DTD SVG 1.1//EN" "http://www.w3.org/Graphics/SVG/1.1/DTD/svg11.dtd" >
<svg xmlns="http://www.w3.org/2000/svg">
<metadata></metadata>
<defs>
<font id="alegreya_sansitalic" horiz-adv-x="439" >
<font-face units-per-em="1000" ascent="800" descent="-200" />
<missing-glyph horiz-adv-x="146" />
<glyph unicode="&#xa8;I" horiz-adv-x="259" d="M63 0l28 193l52 447h75l-59 -441l-21 -199h-75zM95 786q0 20 12 32t32 12q18 0 28.5 -11t10.5 -30q0 -20 -11.5 -32t-30.5 -12q-41 0 -41 41zM220 786q0 20 11.5 32t31.5 12q19 0 29.5 -11t10.5 -30q0 -20 -11.5 -32t-30.5 -12q-41 0 -41 41z" />
<glyph unicode="&#xa8;O" horiz-adv-x="611" d="M47 255q0 184 81.5 288t231.5 104q110 0 170 -67t60 -189q0 -186 -82 -292.5t-232 -106.5q-108 0 -168.5 69.5t-60.5 193.5zM124 260q0 -205 158 -205q114 0 171.5 84t57.5 243q0 202 -160 202q-227 0 -227 -324zM254 787q0 20 11.5 32t31.5 12q18 0 29 -11.5t11 -29.5 q0 -20 -11.5 -32.5t-30.5 -12.5q-41 0 -41 42zM413 786q0 20 11.5 32t32.5 12q18 0 28.5 -11t10.5 -30q0 -20 -11.5 -32t-30.5 -12q-41 0 -41 41z" />
<glyph unicode="&#xb4;Y" horiz-adv-x="502" d="M66 640h79l7 -35l98 -291h7l182 289l19 37h82l-263 -407l-7 -46l-21 -187h-75l29 187l5 47zM222 758q106 53 191 103l8 -2l20 -44l-3 -9q-39 -19 -193 -86l-9 4z" />
<glyph unicode="&#xa8;i" horiz-adv-x="218" d="M44 -4l52 363l4 97l74 7l-50 -354l-4 -106zM50 604q0 20 12 32t32 12q18 0 28.5 -11t10.5 -30q0 -20 -11.5 -32t-30.5 -12q-41 0 -41 41zM175 604q0 20 11.5 32t31.5 12q19 0 29.5 -11t10.5 -30q0 -20 -11.5 -32t-30.5 -12q-41 0 -41 41z" />
<glyph unicode="&#xa8;o" horiz-adv-x="411" d="M36 149q0 137 60 224t162 93h8q109 -18 109 -152q0 -140 -58 -227t-161 -96q-120 15 -120 158zM105 150q0 -52 14.5 -75.5t47.5 -23.5q66 0 102 70t36 188q0 51 -14 73.5t-46 22.5q-68 0 -104 -69t-36 -186zM141 605q0 20 11.5 32t31.5 12q18 0 29 -11.5t11 -29.5 q0 -20 -11.5 -32.5t-30.5 -12.5q-41 0 -41 42zM300 604q0 20 11.5 32t32.5 12q18 0 28.5 -11t10.5 -30q0 -20 -11.5 -32t-30.5 -12q-41 0 -41 41z" />
<glyph unicode="&#xb4;y" horiz-adv-x="407" d="M-103 -115l8 6q40 -15 73 -15q90 0 168 117l-90 463l73 7q8 -56 18 -118.5t22 -138t19 -117.5h13l90 171q36 67 36 110q0 34 -24 67l3 10l69 16q23 -37 23 -80q0 -61 -49 -148l-115 -203q-70 -123 -129.5 -175t-125.5 -52q-40 0 -78 16zM127 550q95 79 162 145l9 -1 l28 -39l-2 -9q-100 -79 -168 -127l-8 1z" />
<glyph unicode="&#xfb01;" horiz-adv-x="498" d="M56 -127q53 371 74 527h-69l-5 5l6 45h75l9 68q14 92 58 139t125 47l106 -22l3 -7l-18 -59l-12 -2q-51 35 -95 35q-39 0 -66 -29.5t-34 -82.5l-12 -87h185l58 13l7 -4l-49 -350l-5 -106l-76 -7l52 363l2 41h-181q-26 -198 -57 -414l-5 -107z" />
<glyph unicode="&#xfb02;" horiz-adv-x="503" d="M56 405l7 45h74l10 75q28 186 191 186l95 -12l56 5l-83 -595l-5 -106l-75 -7l85 604l1 40q-50 15 -91 15q-43 0 -71 -29t-36 -83l-13 -93h108l6 -8l-7 -42h-114q-26 -198 -57 -414l-5 -107l-75 -6q51 370 73 527h-69z" />
<glyph horiz-adv-x="1000" />
<glyph horiz-adv-x="1000" />
<glyph unicode="&#xd;" horiz-adv-x="1000" />
<glyph unicode=" "  horiz-adv-x="146" />
<glyph unicode="&#x09;" horiz-adv-x="146" />
<glyph unicode="&#xa0;" horiz-adv-x="146" />
<glyph unicode="!" horiz-adv-x="261" d="M69 39q0 20 12 32.5t33 12.5q20 0 31 -11t11 -31q0 -21 -12 -34t-33 -13q-42 0 -42 44zM104 221l53 427l9 9l58 3l7 -10l-74 -434l-46 -5z" />
<glyph unicode="&#x22;" horiz-adv-x="279" d="M79 453l27 181l59 4l4 -6l-45 -180l-39 -6zM195 453l28 181l58 4l5 -6l-46 -180l-39 -6z" />
<glyph unicode="#" horiz-adv-x="513" d="M20 207l4 41h109l27 118h-99l-6 5l4 41h111l37 162h44l5 -7l-35 -155h110l37 162h44l5 -7l-35 -155h105l6 -5l-5 -41h-116l-27 -118h107l5 -5l-4 -41h-119l-38 -170h-44l-5 7l37 163h-111l-38 -170h-44l-5 7l37 163h-97zM184 248h110l27 118h-110z" />
<glyph unicode="$" horiz-adv-x="426" d="M28 29l12 64l10 4q46 -47 118 -53l25 182q-27 12 -43.5 21.5t-35.5 25t-28.5 36t-9.5 46.5q0 54 42 95.5t111 48.5l17 140h37l9 -8l-18 -131q51 -2 103 -23l-17 -61l-11 -3q-41 33 -80 37l-24 -178q25 -11 41.5 -21t34 -25t26.5 -35t9 -45q0 -53 -40 -95.5t-108 -52.5 l-16 -127h-38l-6 7l14 117q-77 2 -134 34zM138 365q0 -40 63 -72l21 155q-39 -6 -61.5 -30t-22.5 -53zM215 49q35 10 57 34t22 51q0 39 -58 71z" />
<glyph unicode="%" horiz-adv-x="829" d="M68 431q0 101 45.5 157t129.5 56q60 0 91.5 -35.5t31.5 -101.5q0 -102 -45 -158.5t-130 -56.5q-60 0 -91.5 36t-31.5 103zM103 -60l564 737l30 -19l4 -13l-564 -736l-30 19zM120 441q0 -99 80 -99q56 0 85 39.5t29 111.5q0 99 -82 99q-55 0 -83.5 -39.5t-28.5 -111.5z M483 134q0 100 46 157t129 57q60 0 92 -35.5t32 -102.5q0 -101 -45.5 -157.5t-129.5 -56.5q-60 0 -92 36t-32 102zM535 144q0 -98 80 -98q56 0 85 39.5t29 111.5q0 99 -82 99q-55 0 -83.5 -40t-28.5 -112z" />
<glyph unicode="&#x26;" horiz-adv-x="635" d="M57 147q0 117 148 182v4q-84 40 -84 140q0 80 57 128t156 48q76 0 157 -36l-20 -64l-12 -2q-70 43 -138 43q-62 0 -97 -30.5t-35 -87.5q0 -49 27.5 -79t74.5 -34l279 15l94 12l7 -11l-16 -54l-172 -8l-2 -5q30 -44 30 -107q0 -90 -64.5 -150t-179.5 -60 q-97 0 -153.5 42.5t-56.5 113.5zM132 158q0 -51 38.5 -81t105.5 -30q81 0 125 42.5t44 112.5q0 71 -44 107l-147 -6q-122 -54 -122 -145z" />
<glyph unicode="'" horiz-adv-x="162" d="M79 453l27 181l59 4l4 -6l-45 -180l-39 -6z" />
<glyph unicode="(" horiz-adv-x="287" d="M66 152q0 67 9.5 131.5t32 136.5t68.5 135.5t112 106.5h7l25 -25l-1 -7q-58 -40 -98.5 -101.5t-59.5 -130t-26.5 -127.5t-7.5 -119q0 -92 22.5 -152.5t78.5 -108.5l-1 -7l-31 -25h-7q-67 54 -95 121t-28 172z" />
<glyph unicode=")" horiz-adv-x="287" d="M-25 -116l1 7q58 40 98.5 101.5t59.5 130t26.5 127.5t7.5 119q0 91 -23 151.5t-78 109.5l1 7l31 25h7q67 -55 95 -121.5t28 -171.5q0 -67 -9.5 -131.5t-32 -136.5t-69 -135.5t-111.5 -106.5h-7z" />
<glyph unicode="*" horiz-adv-x="374" d="M86 593q0 37 8 58l7 2l98 -59l-5 -32l-8 -3zM110 448v7l84 83l27 -15l1 -9l-60 -92q-20 7 -52 26zM213 723q27 9 56 9l4 -6l-22 -119l-32 -4l-5 7zM242 518l23 21l8 -1l62 -91q-13 -23 -40 -41l-7 1zM265 588l3 8l100 36q19 -28 25 -52l-3 -4l-112 -17z" />
<glyph unicode="+" horiz-adv-x="477" d="M32 245l11 47h176l22 178l48 4l6 -6l-22 -176h175l6 -6l-10 -47h-178l-21 -178l-48 -4l-5 6l21 176h-176z" />
<glyph unicode="," horiz-adv-x="229" d="M22 -83q55 44 55 88q0 26 -31 46v8q24 16 52 25q41 -26 41 -66q0 -64 -92 -131l-25 24v6z" />
<glyph unicode="-" horiz-adv-x="308" d="M28 217l6 48l246 34l6 -7l-6 -48l-246 -34z" />
<glyph unicode="." horiz-adv-x="230" d="M48 39q0 20 12 32.5t33 12.5q19 0 30.5 -11t11.5 -31q0 -21 -12 -34t-32 -13t-31.5 12t-11.5 32z" />
<glyph unicode="/" horiz-adv-x="288" d="M-3 -105l260 783h51l6 -9l-260 -782h-52z" />
<glyph unicode="0" horiz-adv-x="532" d="M48 209q0 132 67 213t185 81q92 0 141 -54t49 -163q0 -133 -66 -213t-185 -80q-93 0 -142 54t-49 162zM108 218q0 -158 138 -158q88 0 135.5 56.5t47.5 157.5q0 161 -139 161q-88 0 -135 -58t-47 -159z" />
<glyph unicode="1" horiz-adv-x="343" d="M31 383l7 59l206 59l10 -8l-40 -286l-21 -207h-75l28 198l26 218l-135 -38z" />
<glyph unicode="2" horiz-adv-x="454" d="M19 2l7 47l155 156q69 69 98 106.5t29 68.5q0 25 -19 41t-52 16q-74 0 -146 -69h-9l-4 58q90 75 178 75q56 0 91.5 -29t35.5 -76q0 -40 -32.5 -86t-120.5 -139l-104 -109l2 -3h186l85 6l4 -6l-18 -63l-99 4h-225l-37 -2z" />
<glyph unicode="3" horiz-adv-x="411" d="M0 -87l3 67l8 6q46 -23 97 -23q74 0 120 35.5t46 94.5q0 42 -31 66.5t-89 26.5h-58l-4 6l9 52l43 1q47 0 92.5 36.5t45.5 88.5q0 32 -21.5 51t-58.5 19q-59 0 -133 -60h-8l-4 60q81 62 156 62q68 0 107.5 -32t39.5 -85q0 -44 -31.5 -87.5t-89.5 -70.5v-3 q108 -29 108 -126q0 -83 -70.5 -139t-176.5 -56q-52 0 -100 10z" />
<glyph unicode="4" horiz-adv-x="479" d="M9 84l6 51l294 363h71l-45 -361h95l5 -7l-11 -53l-90 2h-5l-18 -165l-6 -6l-57 -5l-4 5l23 171h-189l-64 -2zM83 137h192l34 269h-6z" />
<glyph unicode="5" horiz-adv-x="416" d="M4 -89l2 67l7 6q53 -23 103 -23q75 0 121.5 40t46.5 102q0 79 -111 102l-93 18l-6 7l32 258l14 12l53 -2h135l90 3l3 -5l-14 -60l-6 -5l-71 5h-151l-21 -160l62 -13q156 -33 156 -152q0 -88 -74 -148.5t-183 -60.5q-41 0 -95 9z" />
<glyph unicode="6" horiz-adv-x="468" d="M42 179q0 55 18 110.5t56 112t108 107.5t164 85h5l57 -35l-1 -8q-252 -81 -316 -242l5 -6q68 45 129 45q68 0 111 -43.5t43 -109.5q0 -31 -10 -63.5t-31 -65.5t-62.5 -53.5t-97.5 -20.5q-87 0 -132.5 50t-45.5 137zM111 185q0 -137 112 -137q69 0 99 41.5t30 97.5 q0 50 -25.5 77.5t-73.5 27.5q-73 0 -139 -60q-3 -24 -3 -47z" />
<glyph unicode="7" horiz-adv-x="416" d="M44 -71l296 506h-212l-75 -7l-5 8l13 64l87 -2h230l42 2l-6 -56l-249 -430l-59 -116l-60 19z" />
<glyph unicode="8" horiz-adv-x="474" d="M40 138q0 58 36.5 94t100.5 65l1 4q-40 23 -61.5 51t-21.5 76q0 73 50 118.5t130 45.5q69 0 110 -35t41 -97q0 -98 -117 -151l-1 -5q51 -25 78 -55t27 -85q0 -75 -55 -123t-144 -48q-80 0 -127 39.5t-47 105.5zM104 146q0 -46 29.5 -73t82.5 -27q59 0 96.5 32.5 t37.5 81.5q0 43 -28.5 66.5t-88.5 47.5q-29 -11 -47 -19.5t-39.5 -23.5t-32 -36.5t-10.5 -48.5zM157 435q0 -41 23.5 -63.5t70.5 -42.5q52 21 83 49.5t31 75.5q0 41 -23.5 62.5t-67.5 21.5q-52 0 -84.5 -28.5t-32.5 -74.5z" />
<glyph unicode="9" horiz-adv-x="468" d="M23 -60l1 8q252 81 316 242l-5 6q-67 -45 -129 -45q-68 0 -110.5 43.5t-42.5 109.5q0 24 5.5 49.5t19.5 53.5t36 50t58 36t81 14q87 0 132.5 -50t45.5 -137q0 -55 -18 -110.5t-56 -112t-108 -107.5t-164 -85h-5zM121 312q0 -50 25.5 -77.5t73.5 -27.5q74 0 139 60 q3 24 3 47q0 137 -112 137q-69 0 -99 -41.5t-30 -97.5z" />
<glyph unicode=":" horiz-adv-x="229" d="M47 39q0 20 12 32.5t33 12.5q42 0 42 -42q0 -21 -12 -34t-32 -13t-31.5 12t-11.5 32zM80 309q0 20 12.5 32.5t33.5 12.5q41 0 41 -42q0 -21 -12 -33.5t-32 -12.5q-43 0 -43 43z" />
<glyph unicode=";" horiz-adv-x="229" d="M20 -83q55 44 55 88q0 26 -31 46v8q24 16 52 25q42 -26 42 -66q0 -63 -92 -131l-26 24v6zM79 309q0 20 12.5 32.5t33.5 12.5q41 0 41 -42q0 -21 -12 -33.5t-32 -12.5q-43 0 -43 43z" />
<glyph unicode="&#x3c;" horiz-adv-x="498" d="M34 234l8 62l7 8l400 159l12 -44l-4 -7l-360 -143v-5l327 -134l-17 -43l-9 -6z" />
<glyph unicode="=" horiz-adv-x="478" d="M28 162l5 47h406l6 -6l-4 -47h-407zM49 327l4 47h407l6 -6l-5 -47h-407z" />
<glyph unicode="&#x3e;" horiz-adv-x="503" d="M52 130l362 134v5l-325 143l-3 7l22 44l362 -159l6 -8l-7 -62l-403 -153l-7 6z" />
<glyph unicode="?" horiz-adv-x="331" d="M78 39q0 20 12 32.5t33 12.5q19 0 30.5 -11t11.5 -31q0 -21 -12 -34t-32 -13q-43 0 -43 44zM101 215l6 114l6 10l103 58q75 41 75 104q0 93 -185 105l-5 8l20 42l9 5q112 -7 171.5 -44.5t59.5 -100.5q0 -86 -101 -146l-91 -55l-2 -4l-7 -97l-54 -6z" />
<glyph unicode="@" horiz-adv-x="823" d="M36 187q0 188 116 306.5t304 118.5q153 0 244.5 -86t91.5 -229q0 -140 -87 -217t-250 -84l30 212h-9q-80 -136 -165 -215h-14q-75 44 -75 157q0 73 25.5 139t81 115.5t130.5 60.5h5l64 -22l44 22l10 -5l-50 -351l-3 -58q101 13 156 76.5t55 167.5q0 122 -79 195t-212 72 q-161 -1 -260.5 -103t-99.5 -262q0 -163 104 -255.5t280 -92.5l2 -8l-24 -38q-188 3 -301.5 106t-113.5 278zM286 168q0 -36 5.5 -59t12 -30.5t14.5 -7.5q11 0 39 30t70 98t79 153l1 6l1 27l-62 22q-73 -1 -116.5 -69.5t-43.5 -169.5z" />
<glyph unicode="A" horiz-adv-x="548" d="M-14 0l304 640h86l124 -640h-76l-6 62l-21 115l-136 2l-123 -2l-52 -111l-25 -66h-75zM168 241l106 -1l111 1l-60 321h-7z" />
<glyph unicode="B" horiz-adv-x="512" d="M63 0l29 193l52 447h1l163 2q77 0 119.5 -34.5t42.5 -99.5q0 -127 -112 -174q113 -33 113 -133t-68.5 -152.5t-203.5 -52.5q-86 0 -135 4h-1zM145 62q37 -3 71 -3q85 0 131.5 36t46.5 102q0 88 -104 100l-118 -1l-13 -97zM181 360l105 -3q107 24 107 138q0 84 -103 84 h-78z" />
<glyph unicode="C" horiz-adv-x="500" d="M47 255q0 183 83 287t230 104q97 0 163 -49l-24 -69l-8 -2q-58 56 -140 56q-108 0 -167 -82.5t-59 -233.5q0 -101 41 -154.5t117 -53.5q87 0 167 61l9 -5l-16 -71q-86 -50 -172 -50q-107 0 -165.5 68.5t-58.5 193.5z" />
<glyph unicode="D" horiz-adv-x="620" d="M63 0l29 193l52 447h1l213 5q115 0 178 -65t63 -185q0 -187 -87 -294t-246 -107q-98 0 -202 6h-1zM145 63q92 -6 136 -6q114 0 176.5 83.5t62.5 240.5q0 201 -170 201q-67 0 -139 -4l-52 -379z" />
<glyph unicode="E" horiz-adv-x="461" d="M63 0l29 193l52 447h341l3 -7l-13 -59l-142 4l-123 -2l-28 -216l115 -2l100 3l5 -7l-14 -58l-106 2l-109 -1l-13 -98l-14 -135l122 -2l145 4l3 -7l-13 -59h-340z" />
<glyph unicode="F" horiz-adv-x="415" d="M63 0l29 193l52 447h323l5 -7l-16 -60l-137 5l-109 -2l-30 -228l103 -2l100 2l4 -7l-14 -58l-105 3l-96 -1l-12 -86l-21 -199h-76z" />
<glyph unicode="G" horiz-adv-x="575" d="M45 248q0 190 88 294t248 104q96 0 179 -46l-25 -71l-9 -2q-79 55 -158 55q-120 0 -183 -83.5t-63 -243.5q0 -101 42 -149t130 -48q51 0 126 24l13 78l9 90l71 6l-12 -86l-14 -139q-110 -38 -198 -38q-120 0 -182 66.5t-62 188.5z" />
<glyph unicode="H" horiz-adv-x="653" d="M63 0l29 193l51 447h76l-39 -283l162 -3l164 3l32 283h76l-59 -441l-21 -199h-75l28 193l11 98l-170 3l-156 -3l-13 -92l-20 -199h-76z" />
<glyph unicode="I" horiz-adv-x="259" d="M63 0l29 193l51 447h76l-60 -441l-20 -199h-76z" />
<glyph unicode="J" horiz-adv-x="297" d="M-31 -59l1 9q72 38 105 75t40 93q12 90 32 265t22 196l-119 -1l-7 7l12 55h197l-58 -428l-9 -94q-10 -75 -53.5 -124.5t-138.5 -94.5z" />
<glyph unicode="K" horiz-adv-x="520" d="M62 0l30 193l51 447h76l-60 -441l-21 -199h-76zM190 336l1 6l235 244l45 54h85l-285 -302q99 -165 224 -322l-3 -9q-35 -10 -73 -16l-7 5q-138 195 -222 340z" />
<glyph unicode="L" horiz-adv-x="396" d="M61 0l29 193l51 447h76l-59 -441l-15 -135h227l3 -8l-13 -56h-299z" />
<glyph unicode="M" horiz-adv-x="753" d="M31 0l144 640h85q14 -70 32 -149t39.5 -172t33.5 -147h7l187 377l42 91h85l-22 -640h-67l11 195l8 326h-6l-226 -447h-63l-106 447h-7q-84 -378 -113 -521h-64z" />
<glyph unicode="N" horiz-adv-x="653" d="M63 0l28 190l54 450h78l251 -520h6l64 517l71 5l-62 -455l-21 -187h-78l-251 520h-7l-39 -310l-23 -210h-71z" />
<glyph unicode="O" horiz-adv-x="611" d="M47 255q0 185 81.5 288.5t231.5 103.5q110 0 170 -67t60 -189q0 -186 -82.5 -292.5t-232.5 -106.5q-107 0 -167.5 69.5t-60.5 193.5zM124 260q0 -205 158 -205q114 0 171.5 84t57.5 243q0 202 -160 202q-227 0 -227 -324z" />
<glyph unicode="P" horiz-adv-x="498" d="M63 0l29 193l52 447h1l176 2q80 0 126 -42t46 -124q0 -110 -69 -179.5t-186 -69.5h-74q-6 -43 -14.5 -126t-10.5 -101h-76zM172 290l109 -2q60 8 97.5 57t37.5 121q0 54 -26.5 82.5t-85.5 31.5l-93 -3z" />
<glyph unicode="Q" horiz-adv-x="608" d="M47 255q0 185 81.5 288.5t231.5 103.5q110 0 170 -67t60 -189q0 -154 -57.5 -255t-165.5 -132q132 -104 306 -134l1 -11q-16 -31 -32 -48l-7 -2q-198 44 -341 183h-19q-107 0 -167.5 69.5t-60.5 193.5zM124 260q0 -205 158 -205q114 0 171.5 84t57.5 243q0 202 -160 202 q-227 0 -227 -324z" />
<glyph unicode="R" horiz-adv-x="529" d="M63 0l29 193l52 447h1l178 2q81 0 126 -40.5t45 -115.5q0 -77 -40.5 -136t-113.5 -91q57 -121 129 -241l-2 -9q-36 -14 -71 -18l-8 7q-65 125 -112 242h-111l-6 -41l-20 -199h-76zM173 304l115 -3q128 39 128 173q0 100 -112 106l-94 -3z" />
<glyph unicode="S" horiz-adv-x="451" d="M19 38l19 77l10 4q58 -64 145 -64q59 0 97 32.5t38 78.5q0 34 -25 62t-60 49t-70.5 44t-60.5 59.5t-25 84.5q0 77 60.5 129t150.5 52q72 0 141 -31l-21 -71l-14 -4q-52 44 -116 44q-57 0 -92.5 -31.5t-35.5 -74.5q0 -33 25 -60t61 -48t72 -45t61 -61t25 -84 q0 -79 -62.5 -133t-156.5 -54q-90 0 -166 45z" />
<glyph unicode="T" horiz-adv-x="467" d="M66 582l14 58h413l4 -7l-14 -58l-104 5h-63l-51 -381l-21 -199h-75l29 193l43 387h-61l-109 -5z" />
<glyph unicode="U" horiz-adv-x="597" d="M69 180q0 29 4 54q8 59 16.5 127t18.5 150.5t16 128.5h73l-53 -397q-3 -24 -3 -45q0 -138 136 -138q158 0 179 174l46 406h75l-43 -325l-9 -73q-12 -119 -77 -184t-176 -65q-95 0 -149 49t-54 138z" />
<glyph unicode="V" horiz-adv-x="534" d="M65 640h77l6 -63l94 -499h5l234 496l24 66h74l-302 -640h-87z" />
<glyph unicode="W" horiz-adv-x="849" d="M71 640h75l2 -59l89 -497h7l180 395l-32 161h78l6 -66l89 -490h7l227 492l22 64h71l-299 -640h-77l-72 378h-7l-172 -378h-79z" />
<glyph unicode="X" horiz-adv-x="561" d="M-4 0l247 328l-156 312h87l19 -49l106 -209l158 209l31 49h81l-230 -311l162 -329h-87l-19 51l-115 224l-174 -229l-30 -46h-80z" />
<glyph unicode="Y" horiz-adv-x="502" d="M66 640h79l7 -35l98 -291h8l181 289l19 37h82l-263 -407l-7 -46l-20 -187h-76l29 187l5 46z" />
<glyph unicode="Z" horiz-adv-x="503" d="M3 -3l7 56l410 525h-238l-90 -6l-4 5l15 64l366 -1l48 1l-7 -56l-409 -524h254l90 7l3 -6l-13 -64l-110 2h-268z" />
<glyph unicode="[" horiz-adv-x="288" d="M48 -120l50 379l43 378l178 10l4 -6l-5 -36l-121 -11l-82 -671l118 -11l-4 -37l-6 -5z" />
<glyph unicode="\" horiz-adv-x="291" d="M30 669l7 9h51l205 -783l-6 -8h-52z" />
<glyph unicode="]" horiz-adv-x="288" d="M-27 -124l5 36l121 12l82 671l-118 10l4 37l6 5l174 -10l-49 -378l-43 -379l-178 -10z" />
<glyph unicode="^" horiz-adv-x="423" d="M9 129l201 358l9 4h63l108 -358l-6 -8l-45 -10l-95 319h-5l-181 -317l-9 -5z" />
<glyph unicode="_" horiz-adv-x="451" d="M-59 -132l10 44h470l5 -5l-10 -45h-470z" />
<glyph unicode="`" horiz-adv-x="390" d="M141 655l28 39l8 1q70 -67 163 -145l-21 -30l-8 -1q-77 54 -169 127z" />
<glyph unicode="a" d="M33 150q0 113 61.5 205t172.5 110h5l62 -23l48 24l9 -6l-49 -351l-5 -106l-76 -7l29 205h-10q-73 -128 -157 -208h-14q-76 43 -76 157zM101 169q0 -34 5 -56.5t11 -30t13 -7.5q12 0 39 29t67 96t76 152l1 6l1 24l-62 22q-69 0 -110 -67.5t-41 -167.5z" />
<glyph unicode="b" horiz-adv-x="441" d="M50 17l82 583l2 97l76 7l-63 -447h11q69 123 157 208h14q76 -45 76 -157q0 -114 -62 -206t-173 -109h-4l-65 15zM125 70l60 -17q70 0 111.5 68t41.5 168q0 93 -30 93q-12 0 -38.5 -29t-66.5 -94.5t-76 -149.5z" />
<glyph unicode="c" horiz-adv-x="334" d="M34 158q0 87 23.5 154t77.5 109.5t132 42.5l64 -20l6 -11l-20 -59l-16 -3q-32 35 -67 35q-60 0 -95 -63t-35 -172q0 -62 14 -88.5t45 -26.5q55 0 102 91h11l24 -34q-31 -53 -64.5 -80t-78.5 -40h-12q-58 10 -84.5 45.5t-26.5 119.5z" />
<glyph unicode="d" horiz-adv-x="441" d="M32 150q0 113 62.5 205.5t173.5 109.5h5l53 -19l22 154l3 97l76 7l-83 -595l-5 -106l-76 -7l29 205h-10q-74 -127 -159 -208h-15q-76 43 -76 157zM99 169q0 -34 5.5 -56.5t12 -30t13.5 -7.5q12 0 38.5 29t67 95t77.5 150l4 32l-63 23q-71 0 -113 -68t-42 -167z" />
<glyph unicode="e" horiz-adv-x="374" d="M34 154q0 133 62 220.5t161 91.5q94 -10 94 -90q0 -117 -245 -201q0 -119 63 -119q33 0 64.5 26t54.5 68l12 -1l26 -35q-70 -101 -157 -121h-12q-123 10 -123 161zM109 231q86 28 130.5 63.5t44.5 76.5t-46 41q-50 0 -85 -49.5t-44 -131.5z" />
<glyph unicode="f" horiz-adv-x="280" d="M56 405l6 45h75l10 68q8 61 29.5 101.5t60 62.5t94.5 22l91 -14l3 -7l-20 -54l-11 -2q-39 22 -80 22q-40 0 -67 -29t-34 -83l-12 -87h108l6 -8l-7 -42h-113q-26 -198 -58 -414l-4 -107l-76 -6q51 370 73 527h-69z" />
<glyph unicode="g" horiz-adv-x="441" d="M-56 -58l3 8l141 88l1 9q-41 37 -41 119q0 112 58 196.5t163 101.5h5l62 -22l47 24l10 -6l-49 -347l-8 -75q-15 -110 -79.5 -173t-152.5 -63q-64 0 -106 36.5t-54 103.5zM24 -69q1 -27 27 -49.5t69 -22.5q57 0 96.5 41t50.5 118l26 192h-10q-71 -125 -148 -186l-102 -76 q-9 -8 -9 -17zM115 191q0 -34 5.5 -57t11.5 -31.5t11 -8.5q10 0 34.5 28t62 88.5t72.5 135.5l2 13l2 23l-61 22q-66 0 -103 -61t-37 -152z" />
<glyph unicode="h" horiz-adv-x="469" d="M46 -4l86 604l2 97l76 7l-65 -466h9q94 165 174 227h11q35 -8 56.5 -30.5t20.5 -56.5q-7 -53 -22.5 -148.5t-19.5 -121.5l-6 -105l-77 -7l55 342l1 13q0 31 -21 31q-29 0 -81.5 -73t-117.5 -208l-5 -98z" />
<glyph unicode="i" horiz-adv-x="218" d="M44 -4l52 363l4 97l74 7l-50 -354l-4 -106zM111 616q0 20 12.5 32.5t33.5 12.5q41 0 41 -43q0 -21 -12 -33.5t-32 -12.5t-31.5 12t-11.5 32z" />
<glyph unicode="j" horiz-adv-x="232" d="M-43 -160l1 9q50 33 72.5 68.5t29.5 96.5l49 344l2 42h-75l-5 5l6 45h71l75 10l3 -2l-49 -350l-9 -90q-10 -78 -42.5 -125t-103.5 -87zM120 616q0 20 12.5 32.5t33.5 12.5q41 0 41 -43q0 -21 -12 -33.5t-32 -12.5t-31.5 12t-11.5 32z" />
<glyph unicode="k" horiz-adv-x="462" d="M47 -4l85 604l3 97l76 7l-65 -460h10q57 88 98 139.5t85 79.5l15 1q82 -17 82 -98q0 -97 -145 -184q66 -108 115 -175l-4 -7l-62 -12l-7 4q-49 74 -108 186l2 13q136 84 136 157q0 34 -24 34q-33 0 -88 -71.5t-125 -215.5l-3 -92z" />
<glyph unicode="l" horiz-adv-x="224" d="M47 -4l85 604l3 97l75 7l-83 -595l-5 -106z" />
<glyph unicode="m" horiz-adv-x="717" d="M44 -4l52 363l5 97l74 7l-32 -225h9q34 58 61.5 99t55.5 73t57 55h11q35 -8 56.5 -30.5t20.5 -56.5q-3 -28 -11 -78t-10 -62h9q94 165 174 227h11q35 -8 56.5 -30.5t20.5 -56.5q-7 -53 -22.5 -148.5t-19.5 -121.5l-6 -105l-77 -7l54 342l1 13q2 31 -20 31q-29 0 -83 -75 t-120 -213l-5 -91l-77 -7l55 342l1 13q0 31 -21 31q-29 0 -81.5 -73t-117.5 -208l-5 -98z" />
<glyph unicode="n" horiz-adv-x="467" d="M44 -4l52 363l5 97l74 7l-32 -225h9q97 167 174 227h11q35 -8 56.5 -30.5t20.5 -56.5q-7 -53 -22.5 -148.5t-19.5 -121.5l-6 -105l-77 -7l55 342l1 13q0 31 -21 31q-29 0 -81.5 -73t-117.5 -208l-5 -98z" />
<glyph unicode="o" horiz-adv-x="411" d="M36 149q0 136 60 223.5t162 93.5h8q110 -18 110 -152q0 -139 -58 -226.5t-161 -96.5q-121 13 -121 158zM105 150q0 -52 14 -75.5t47 -23.5q67 0 103 70t36 188q0 51 -14 73.5t-46 22.5q-68 0 -104 -69t-36 -186z" />
<glyph unicode="p" horiz-adv-x="437" d="M20 -192l77 551l5 97l73 7l-28 -206h11q73 128 158 208h14q76 -46 76 -157q0 -114 -62.5 -206t-173.5 -109h-4l-54 12l-11 -81l-5 -109zM121 71l64 -18q70 0 111.5 68t41.5 168q0 93 -30 93q-12 0 -39 -29.5t-67 -96t-76 -151.5z" />
<glyph unicode="q" horiz-adv-x="438" d="M32 150q0 113 62 205.5t173 109.5h4l62 -23l48 24l9 -6l-75 -538l-5 -107l-76 -7l56 393h-11q-73 -128 -157 -208h-14q-76 43 -76 157zM100 169q0 -34 5 -56.5t11 -30t13 -7.5q12 0 39 29t67 96t76 152l1 6l1 24l-61 22q-70 0 -111 -67.5t-41 -167.5z" />
<glyph unicode="r" horiz-adv-x="328" d="M46 -4l52 363l5 97l73 7l-30 -220h7q74 148 172 219l25 -2l-15 -100l-7 -3l-8 1q-48 -7 -92 -65.5t-102 -202.5l-4 -87z" />
<glyph unicode="s" horiz-adv-x="317" d="M-3 26l19 71l11 5q42 -57 96 -57q34 0 56 22t22 50q0 22 -16 41.5t-38 35t-44.5 32t-38.5 42t-16 56.5q0 61 50.5 101.5t121.5 38.5q43 -8 84 -25l-21 -68l-12 -4q-39 44 -80 44q-30 0 -51.5 -21.5t-21.5 -48.5q0 -24 23.5 -47t52 -40t52 -48t23.5 -70q0 -61 -48 -102 t-124 -42q-52 7 -100 34z" />
<glyph unicode="t" horiz-adv-x="324" d="M54 405l5 45h71l12 108l71 32l8 -5l-22 -135h123l6 -8l-5 -42h-132l-46 -281l-2 -18q0 -33 29 -33q36 0 89 77l12 -1l23 -31q-66 -85 -130 -118h-12q-79 14 -78 85l1 16l43 264l4 40h-65z" />
<glyph unicode="u" horiz-adv-x="471" d="M54 82q7 53 22.5 149t19.5 122l8 105l74 6l-53 -335l-2 -21q-1 -30 21 -30q29 0 82 73t117 208l5 97l74 7l-50 -354l-4 -106l-76 -7l31 224h-7q-93 -160 -174 -224h-11q-35 8 -56.5 30t-20.5 56z" />
<glyph unicode="v" horiz-adv-x="407" d="M72 456l75 7l3 -80l25 -303h7l112 196q33 57 33 94q0 32 -24 67l2 10l70 16q23 -40 23 -80q0 -53 -44 -128l-150 -255h-82z" />
<glyph unicode="w" horiz-adv-x="682" d="M72 456l74 7l1 -61l31 -317h7l140 313l23 61h79l3 -57l31 -317h6l103 191q32 61 32 94q0 32 -24 67l3 10l69 16q23 -37 23 -80q0 -49 -43 -128l-142 -255h-78l-36 357h-8l-159 -357h-81z" />
<glyph unicode="x" d="M-1 0l175 237l-103 218l78 9l14 -40l67 -138l102 133l24 40h80l-170 -227l115 -228l-81 -10l-16 50l-70 143l-109 -144l-24 -43h-82z" />
<glyph unicode="y" horiz-adv-x="407" d="M-103 -115l8 6q40 -15 73 -15q88 0 169 118l-91 462l74 7q7 -56 17 -119t22 -137.5t19 -117.5h13l90 171q36 70 36 110q0 32 -24 67l3 10l69 16q23 -37 23 -80q0 -61 -49 -148l-115 -203q-70 -123 -129.5 -175t-125.5 -52q-40 0 -79 16z" />
<glyph unicode="z" horiz-adv-x="407" d="M-13 16l286 380l-139 -1l-69 -8l-6 6l15 67l7 5l64 -5l190 -1l25 14l23 -22l-283 -375l29 7q16 0 51 -11.5t50 -11.5q43 0 63.5 28.5t23.5 97.5l13 6l36 -20q-4 -91 -39.5 -136.5t-98.5 -45.5q-27 0 -76.5 16.5t-71.5 16.5q-33 0 -61 -29h-8z" />
<glyph unicode="{" horiz-adv-x="288" d="M39 241l4 39q50 8 72.5 35.5t22.5 80.5q0 14 -1.5 52t-1.5 54q0 153 130 153q22 0 50 -7l3 -6l-13 -42q-22 5 -36 5q-38 0 -56 -24.5t-18 -79.5q0 -17 2 -56.5t2 -54.5q0 -94 -81 -128l-1 -3q56 -26 56 -89q0 -26 -22 -96t-22 -99q0 -60 55 -60q14 0 37 5l3 -41l-5 -6 q-22 -7 -51 -7q-100 0 -100 94q0 36 21.5 109t21.5 97q0 62 -72 75z" />
<glyph unicode="|" horiz-adv-x="314" d="M68 -254q68 551 129 1046l54 5l5 -5q-62 -492 -130 -1051l-53 -3z" />
<glyph unicode="}" horiz-adv-x="288" d="M-21 -121l12 42q23 -5 37 -5q74 0 74 105q0 17 -2.5 56t-2.5 54q0 94 81 128l1 3q-55 25 -55 89q0 27 22 97t22 99q0 59 -56 59q-14 0 -37 -5l-3 41l5 6q24 7 51 7q101 0 101 -94q0 -36 -21.5 -109t-21.5 -96q0 -63 72 -76l-5 -39q-50 -8 -72 -35.5t-22 -80.5 q0 -14 1 -52t1 -54q0 -153 -130 -153q-21 0 -49 7z" />
<glyph unicode="~" horiz-adv-x="480" d="M53 234v8l80 71l11 5q21 -3 98.5 -26t94.5 -23q15 0 64 43l3 3t3 2.5t3 2.5h9l17 -26l-1 -8l-80 -73l-10 -2q-25 3 -101.5 25.5t-92.5 22.5q-5 0 -10.5 -2t-13 -8t-13 -10t-17 -14.5t-18.5 -16.5h-9z" />
<glyph unicode="&#xa1;" horiz-adv-x="261" d="M32 -187l74 434l46 5l7 -10l-53 -427l-9 -9l-58 -3zM107 421q0 21 12 34t33 13q42 0 42 -44q0 -20 -12 -32.5t-33 -12.5q-19 0 -30.5 11.5t-11.5 30.5z" />
<glyph unicode="&#xa2;" horiz-adv-x="389" d="M42 203q0 115 46.5 195t138.5 101l26 153h37l7 -8l-23 -139h14l68 -20l6 -10l-17 -48l-14 -3q-33 29 -65 32l-61 -361q48 19 86 88l11 -1l20 -28q-53 -84 -125 -109l-28 -164h-37l-5 7l24 150q-55 10 -82 45.5t-27 119.5zM101 213q0 -114 58 -123l60 361 q-56 -17 -87 -79.5t-31 -158.5z" />
<glyph unicode="&#xa3;" horiz-adv-x="417" d="M1 6l8 39q75 14 86 107l17 140h-71l-3 6l9 37h70l12 97q9 78 55.5 119.5t123.5 41.5q48 0 105 -18l-11 -57l-5 -5q-48 31 -98 31q-93 0 -107 -103l-13 -106h128l2 -5l-9 -38h-126l-17 -133q-8 -69 -53 -102v-3h167l89 6l3 -6l-13 -56l-96 2h-249z" />
<glyph unicode="&#xa4;" horiz-adv-x="436" d="M31 207l3 9l74 62q-19 26 -19 68q0 47 38 92l-60 62l1 9l36 33h8l56 -68q36 27 83 27q44 0 74 -25l71 67h9l30 -32l-2 -9l-74 -63q18 -27 18 -67q0 -51 -37 -91l60 -63v-8l-37 -35l-8 1l-56 67q-40 -28 -83 -28t-75 27l-71 -68l-8 1zM134 348q0 -38 24.5 -63t62.5 -25 q46 0 79 32t33 77q0 38 -24.5 63t-62.5 25q-45 0 -78.5 -32t-33.5 -77z" />
<glyph unicode="&#xa5;" horiz-adv-x="517" d="M25 126l7 34h182l1 18l-31 76h-139l-3 6l7 33h119l-83 204h67l7 -28l93 -223h5l160 221l16 30h66l-142 -204h128l4 -4l-8 -35h-151l-57 -81l-2 -13h197l4 -5l-7 -33h-199l-14 -122h-61l18 122h-180z" />
<glyph unicode="&#xa6;" horiz-adv-x="314" d="M68 -254l51 408l52 6l6 -8l-51 -411l-52 -3zM145 372l52 420l54 5l5 -5l-52 -420l-53 -6z" />
<glyph unicode="&#xa7;" horiz-adv-x="420" d="M7 -69l16 64l9 5q51 -51 115 -51q44 0 72.5 24t28.5 54q0 23 -20 46t-49 43t-58 42t-49 52.5t-20 64.5q0 43 30 81.5t80 62.5q-38 38 -38 84q0 58 50.5 100.5t124.5 42.5q54 0 105 -22l-17 -63l-11 -3q-49 36 -94 36q-39 0 -66 -24t-27 -52q0 -27 30.5 -56t66.5 -51.5 t66.5 -60t30.5 -79.5q0 -43 -29 -80.5t-79 -60.5q39 -41 39 -87q0 -59 -52.5 -102t-127.5 -43q-71 0 -127 33zM118 293q0 -15 6.5 -28.5t20.5 -27.5t25.5 -23t34 -25.5t32.5 -24.5q81 35 81 88q0 15 -6 29.5t-20.5 29t-25.5 23.5t-33 25.5t-32 24.5q-83 -39 -83 -91z" />
<glyph unicode="&#xa8;" horiz-adv-x="390" d="M120 605q0 20 11.5 32t31.5 12q18 0 29 -11.5t11 -29.5q0 -20 -11.5 -32.5t-30.5 -12.5q-41 0 -41 42zM279 604q0 20 11.5 32t32.5 12q18 0 28.5 -11t10.5 -30q0 -20 -11.5 -32t-30.5 -12q-41 0 -41 41z" />
<glyph unicode="&#xa9;" horiz-adv-x="691" d="M57 293q0 137 81.5 221t214.5 84t214 -84t81 -221t-81 -221t-214 -84t-214.5 84t-81.5 221zM90 293q0 -122 72.5 -197t190.5 -75t190 75t72 197t-72 197t-190 75t-190.5 -75t-72.5 -197zM207 294q0 82 41.5 126.5t119.5 44.5q47 0 93 -23l-11 -43l-5 -2q-34 23 -79 23 q-105 0 -105 -122q0 -127 104 -127q46 0 86 24l6 -2l-4 -44q-48 -23 -91 -23q-77 0 -116 43t-39 125z" />
<glyph unicode="&#xaa;" horiz-adv-x="312" d="M63 433q0 78 40 138t114 74h4l50 -7l38 10l7 -4l-32 -234l-5 -72l-60 -4l18 136h-8q-44 -87 -96 -137h-11q-33 13 -46 36t-13 64zM119 456q0 -23 3.5 -39t8 -22t9.5 -6q6 0 21.5 18t39 57.5t46.5 87.5l3 21l2 20l-43 8q-42 -1 -66 -42t-24 -103z" />
<glyph unicode="&#xab;" horiz-adv-x="395" d="M37 220l2 16l167 169l33 -20v-10l-144 -149l108 -150l-3 -9l-38 -21zM201 220l2 16l167 169l33 -20v-10l-144 -149l108 -150l-3 -9l-38 -21z" />
<glyph unicode="&#xac;" horiz-adv-x="480" d="M32 245l9 47h384l5 -7l-27 -224l-47 -4l-7 6l22 176h-335z" />
<glyph unicode="&#xad;" horiz-adv-x="308" d="M28 217l6 48l246 34l6 -7l-6 -48l-246 -34z" />
<glyph unicode="&#xae;" d="M38 522q0 81 50 130.5t132 49.5t131.5 -49.5t49.5 -130.5q0 -82 -49.5 -132t-131.5 -50t-132 50t-50 132zM65 522q0 -71 42.5 -114t112.5 -43t113 43t43 114q0 70 -42.5 112t-113.5 42q-70 0 -112.5 -42t-42.5 -112zM155 431l1 58l-1 136h71q65 0 65 -58q0 -39 -40 -58 q22 -34 52 -71v-3q-13 -5 -34 -7l-4 3q-21 31 -43 69h-34v-7l1 -62h-34zM189 529l35 -2q31 10 31 37q0 32 -39 34l-26 -1z" />
<glyph unicode="&#xaf;" horiz-adv-x="390" d="M94 588l5 44h283l6 -5l-5 -45h-283z" />
<glyph unicode="&#xb0;" horiz-adv-x="294" d="M56 510q0 56 42.5 96.5t99.5 40.5q48 0 79.5 -32t31.5 -79q0 -56 -42 -96.5t-99 -40.5q-48 0 -80 31.5t-32 79.5zM94 515q0 -33 22.5 -56t55.5 -23q39 0 69 28.5t30 66.5q0 33 -22.5 55.5t-55.5 22.5q-39 0 -69 -28t-30 -66z" />
<glyph unicode="&#xb1;" horiz-adv-x="478" d="M-5 -84l4 47h407l6 -5l-5 -47h-407zM32 245l11 47h176l22 178l48 4l6 -6l-22 -176h175l6 -6l-10 -47h-178l-21 -178l-48 -4l-6 6l22 176h-176z" />
<glyph unicode="&#xb2;" horiz-adv-x="348" d="M30 325l4 38l114 115q52 54 73 81.5t21 50.5q0 18 -13 30t-37 12q-52 0 -106 -52h-7l-5 48q67 55 132 55q43 0 72.5 -22t29.5 -57q0 -31 -23.5 -65t-82.5 -96l-82 -88l1 -2h131l65 3l2 -6l-12 -50l-80 3h-166l-27 -1z" />
<glyph unicode="&#xb3;" horiz-adv-x="307" d="M56 326l2 46l5 3q46 -8 67 -8q47 0 75.5 20t28.5 53q0 52 -72 55h-41l-4 4l7 43h30q30 0 57 21t27 50q0 19 -14 30t-37 11q-38 0 -85 -32h-7l-5 43q57 39 107 39q45 0 75.5 -22.5t30.5 -57.5q0 -28 -19.5 -54.5t-56.5 -41.5l-1 -3q69 -18 69 -82q0 -55 -48 -89.5 t-124 -34.5q-39 0 -67 7z" />
<glyph unicode="&#xb4;" horiz-adv-x="390" d="M141 550q95 79 162 145l9 -1l28 -39l-2 -9q-100 -79 -168 -127l-8 1z" />
<glyph unicode="&#xb5;" horiz-adv-x="480" d="M23 -194l77 553l4 97l71 6l-48 -350l-2 -12q1 -27 23 -27q29 0 84.5 76.5t122.5 218.5l5 88l70 6l-49 -353l-5 -106l-72 -7l32 230h-8q-100 -170 -181 -231h-11q-14 3 -24 9l-12 -82l-5 -109z" />
<glyph unicode="&#xb6;" horiz-adv-x="484" d="M65 417q0 104 67.5 163.5t183.5 59.5h185l5 -7l-12 -52h-74l-52 -400l-6 -52q-8 -66 -50.5 -115t-130.5 -90l-19 34l2 9q117 66 127 157q11 88 30.5 254t24.5 204h-59q-68 -6 -106 -48.5t-38 -111.5q0 -113 119 -147l-30 -44q-81 17 -124 64.5t-43 121.5z" />
<glyph unicode="&#xb7;" horiz-adv-x="230" d="M73 244q0 20 12.5 32.5t33.5 12.5q41 0 41 -43q0 -21 -12 -33.5t-32 -12.5t-31.5 12t-11.5 32z" />
<glyph unicode="&#xb8;" horiz-adv-x="390" d="M73 -161l8 38l5 2q26 -31 55 -31q33 0 33 27q0 15 -22 25l-47 29l24 90h45l-21 -71l33 -20q38 -20 38 -55q0 -29 -22 -47t-57 -18q-43 0 -72 31z" />
<glyph unicode="&#xb9;" horiz-adv-x="257" d="M62 616l6 49l150 40l7 -7l-31 -242l-15 -133h-63l17 126l22 185l-89 -22z" />
<glyph unicode="&#xba;" horiz-adv-x="296" d="M62 438q0 91 41 148.5t110 60.5h7q76 -12 76 -102q0 -94 -40.5 -151.5t-110.5 -61.5l-6 1q-77 8 -77 105zM119 438q0 -62 37 -62q40 0 61 43.5t21 120.5q0 62 -34 62q-41 0 -63 -44.5t-22 -119.5z" />
<glyph unicode="&#xbb;" horiz-adv-x="390" d="M-6 67l1 10l143 149l-107 150l3 9l38 21l125 -174l-2 -16l-167 -169zM159 67v10l144 149l-108 150l3 9l38 21l125 -174l-2 -16l-166 -169z" />
<glyph unicode="&#xbc;" horiz-adv-x="698" d="M10 -60l564 737l30 -19l4 -13l-564 -736l-30 19zM54 557l6 49l150 40l7 -7l-31 -242l-15 -133h-63l17 126l22 185l-89 -22zM360 107l5 40l196 230h58l-29 -226h60l4 -6l-9 -44l-60 2l-9 -98l-4 -5l-51 -3l-3 4l14 102h-119l-49 -2zM423 151h116l20 154h-5z" />
<glyph unicode="&#xbd;" horiz-adv-x="710" d="M10 -60l564 737l30 -19l4 -13l-564 -736l-30 19zM54 557l6 49l150 40l7 -7l-31 -242l-15 -133h-63l17 126l22 185l-89 -22zM374 2l4 38l114 115q52 54 73 81.5t21 50.5q0 18 -13 30t-37 12q-52 0 -106 -52h-7l-5 48q67 55 132 55q43 0 72.5 -22t29.5 -57q0 -31 -23.5 -65 t-82.5 -96l-82 -88l1 -2h131l65 3l2 -6l-12 -50l-80 3h-166l-27 -1z" />
<glyph unicode="&#xbe;" horiz-adv-x="735" d="M40 267l2 46l5 3q46 -8 67 -8q47 0 75.5 20t28.5 53q0 52 -72 55h-41l-4 4l7 43h30q30 0 57 21t27 50q0 19 -14 30t-37 11q-38 0 -85 -32h-7l-5 43q57 39 107 39q45 0 75.5 -22.5t30.5 -57.5q0 -28 -19.5 -54.5t-56.5 -41.5l-1 -3q69 -18 69 -82q0 -55 -48 -89.5 t-124 -34.5q-39 0 -67 7zM47 -60l564 737l30 -19l4 -13l-564 -736l-30 19zM397 107l5 40l196 230h58l-29 -226h60l4 -6l-9 -44l-60 2l-9 -98l-4 -5l-51 -3l-3 4l14 102h-119l-49 -2zM460 151h116l20 154h-5z" />
<glyph unicode="&#xbf;" horiz-adv-x="331" d="M-26 -53q0 86 101 146l91 55l2 4l7 97l54 6l5 -7l-6 -114l-6 -10l-103 -58q-75 -41 -75 -104q0 -93 185 -105l5 -8l-20 -42l-9 -5q-112 7 -171.5 44.5t-59.5 100.5zM170 421q0 21 12 34t32 13q43 0 43 -44q0 -20 -12 -32.5t-33 -12.5q-20 0 -31 11.5t-11 30.5z" />
<glyph unicode="&#xc0;" horiz-adv-x="548" d="M-13 0l304 640h86l124 -640h-76l-7 62l-21 115l-136 2l-123 -2l-52 -111l-24 -66h-75zM168 241l107 -1l110 1l-59 321h-7zM238 817l19 44l9 2q74 -43 191 -102l-14 -34l-9 -4q-111 47 -193 86z" />
<glyph unicode="&#xc1;" horiz-adv-x="548" d="M-13 0l304 640h86l124 -640h-76l-7 62l-21 115l-136 2l-123 -2l-52 -111l-24 -66h-75zM168 241l107 -1l110 1l-59 321h-7zM248 758q106 53 191 103l8 -2l20 -44l-3 -9q-39 -19 -193 -86l-9 4z" />
<glyph unicode="&#xc2;" horiz-adv-x="548" d="M-13 0l304 640h86l124 -640h-76l-7 62l-21 115l-136 2l-123 -2l-52 -111l-24 -66h-75zM168 241l107 -1l110 1l-59 321h-7zM221 765q56 34 125 89h22q41 -40 106 -89l-20 -33h-8q-43 29 -93 67q-64 -40 -111 -67h-9z" />
<glyph unicode="&#xc3;" horiz-adv-x="548" d="M-13 0l304 640h86l124 -640h-76l-7 62l-21 115l-136 2l-123 -2l-52 -111l-24 -66h-75zM168 241l107 -1l110 1l-59 321h-7zM190 760v7l61 67l9 3q21 -2 81.5 -19t73.5 -17q4 0 8.5 2t11 7t10.5 9t13 13.5t14 14.5h7l24 -25v-7l-61 -67l-9 -4q-20 2 -81 19.5t-74 17.5 q-4 0 -8.5 -2t-10.5 -7t-10.5 -9.5t-13 -13.5t-13.5 -14h-9z" />
<glyph unicode="&#xc4;" horiz-adv-x="548" d="M-13 0l304 640h86l124 -640h-76l-7 62l-21 115l-136 2l-123 -2l-52 -111l-24 -66h-75zM168 241l107 -1l110 1l-59 321h-7zM226 787q0 20 11.5 32t31.5 12q18 0 29 -11.5t11 -29.5q0 -20 -11.5 -32.5t-30.5 -12.5q-41 0 -41 42zM385 786q0 20 11.5 32t32.5 12 q18 0 28.5 -11t10.5 -30q0 -20 -11.5 -32t-30.5 -12q-41 0 -41 41z" />
<glyph unicode="&#xc5;" horiz-adv-x="548" d="M-13 0l304 640h86l124 -640h-76l-7 62l-21 115l-136 2l-123 -2l-52 -111l-24 -66h-75zM168 241l107 -1l110 1l-59 321h-7zM265 795q0 37 22 59.5t61 22.5t60.5 -22.5t21.5 -57.5q0 -39 -24 -61t-60 -22t-58.5 21.5t-22.5 59.5zM302 796q0 -22 12.5 -34t33.5 -12 q20 0 32.5 11.5t12.5 32.5q0 20 -12 32.5t-34 12.5q-45 0 -45 -43z" />
<glyph unicode="&#xc6;" horiz-adv-x="766" d="M-43 0l402 640h352l4 -7l-14 -59l-153 4h-92l3 -242l210 45l5 -6l-2 -55l-213 -43l3 -216h108l156 5l4 -7l-13 -59h-329l2 62l-3 199l-231 -53l-89 -142l-32 -66h-78zM201 280l185 40l-4 242h-5z" />
<glyph unicode="&#xc7;" horiz-adv-x="500" d="M47 255q0 183 83 287t230 104q96 0 164 -49l-24 -69l-9 -2q-56 56 -140 56q-107 0 -166 -82.5t-59 -233.5q0 -101 40.5 -154.5t116.5 -53.5q88 0 168 61l8 -5l-15 -71q-71 -41 -138 -48l-14 -46l33 -20q38 -20 38 -55q0 -29 -22 -47t-57 -18q-43 0 -72 31l8 38l5 2 q26 -31 55 -31q33 0 33 27q0 15 -22 25l-47 29l17 63q-103 4 -158.5 72t-55.5 190z" />
<glyph unicode="&#xc8;" horiz-adv-x="461" d="M63 0l29 193l52 447h341l3 -7l-13 -59l-142 4l-123 -2l-28 -216l115 -2l100 3l5 -7l-14 -58l-106 2l-109 -1l-13 -98l-15 -135l123 -2l145 4l3 -7l-13 -59h-340zM219 817l19 44l9 2q74 -43 191 -102l-14 -34l-9 -4q-111 47 -193 86z" />
<glyph unicode="&#xc9;" horiz-adv-x="461" d="M63 0l29 193l52 447h341l3 -7l-13 -59l-142 4l-123 -2l-28 -216l115 -2l100 3l5 -7l-14 -58l-106 2l-109 -1l-13 -98l-15 -135l123 -2l145 4l3 -7l-13 -59h-340zM229 758q106 53 191 103l8 -2l20 -44l-3 -9q-39 -19 -193 -86l-9 4z" />
<glyph unicode="&#xca;" horiz-adv-x="461" d="M63 0l29 193l52 447h341l3 -7l-13 -59l-142 4l-123 -2l-28 -216l115 -2l100 3l5 -7l-14 -58l-106 2l-109 -1l-13 -98l-15 -135l123 -2l145 4l3 -7l-13 -59h-340zM202 765q56 34 125 89h22q41 -40 106 -89l-20 -33h-8q-43 29 -93 67q-64 -40 -111 -67h-9z" />
<glyph unicode="&#xcb;" horiz-adv-x="461" d="M63 0l29 193l52 447h341l3 -7l-13 -59l-142 4l-123 -2l-28 -216l115 -2l100 3l5 -7l-14 -58l-106 2l-109 -1l-13 -98l-15 -135l123 -2l145 4l3 -7l-13 -59h-340zM207 787q0 20 11.5 32t31.5 12q18 0 29 -11.5t11 -29.5q0 -20 -11.5 -32.5t-30.5 -12.5q-41 0 -41 42z M366 786q0 20 11.5 32t32.5 12q18 0 28.5 -11t10.5 -30q0 -20 -11.5 -32t-30.5 -12q-41 0 -41 41z" />
<glyph unicode="&#xcc;" horiz-adv-x="259" d="M63 0l28 193l52 447h75l-59 -441l-21 -199h-75zM89 817l19 44l9 2q74 -43 191 -102l-14 -34l-9 -4q-111 47 -193 86z" />
<glyph unicode="&#xcd;" horiz-adv-x="259" d="M63 0l28 193l52 447h75l-59 -441l-21 -199h-75zM100 758q106 53 191 103l8 -2l20 -44l-3 -9q-39 -19 -193 -86l-9 4z" />
<glyph unicode="&#xce;" horiz-adv-x="259" d="M63 0l28 193l52 447h75l-59 -441l-21 -199h-75zM73 765q56 34 125 89h22q41 -40 106 -89l-20 -33h-8q-43 29 -93 67q-64 -40 -111 -67h-9z" />
<glyph unicode="&#xd0;" horiz-adv-x="644" d="M31 304l6 48h97l33 288h1l213 5q116 0 179 -65t63 -185q0 -187 -87 -294t-247 -107q-98 0 -202 6l29 193l12 105h-94zM169 63q90 -6 135 -6q114 0 177 83.5t63 240.5q0 201 -171 201q-64 0 -138 -4l-31 -226h155l3 -7l-5 -47h-161l-13 -99z" />
<glyph unicode="&#xd1;" horiz-adv-x="653" d="M63 0l28 190l54 450h78l251 -520h6l64 517l71 5l-62 -455l-21 -187h-78l-252 520h-6l-39 -310l-24 -210h-70zM240 760v7l61 67l9 3q21 -2 81.5 -19t73.5 -17q4 0 8.5 2t11 7t10.5 9t13 13.5t14 14.5h7l24 -25v-7l-61 -67l-9 -4q-20 2 -81 19.5t-74 17.5q-4 0 -8.5 -2 t-10.5 -7t-10.5 -9.5t-13 -13.5t-13.5 -14h-9z" />
<glyph unicode="&#xd2;" horiz-adv-x="611" d="M47 255q0 184 81.5 288t231.5 104q110 0 170 -67t60 -189q0 -186 -82 -292.5t-232 -106.5q-108 0 -168.5 69.5t-60.5 193.5zM124 260q0 -205 158 -205q114 0 171.5 84t57.5 243q0 202 -160 202q-227 0 -227 -324zM266 817l19 44l9 2q74 -43 191 -102l-14 -34l-9 -4 q-111 47 -193 86z" />
<glyph unicode="&#xd3;" horiz-adv-x="611" d="M47 255q0 184 81.5 288t231.5 104q110 0 170 -67t60 -189q0 -186 -82 -292.5t-232 -106.5q-108 0 -168.5 69.5t-60.5 193.5zM124 260q0 -205 158 -205q114 0 171.5 84t57.5 243q0 202 -160 202q-227 0 -227 -324zM276 758q106 53 191 103l8 -2l20 -44l-3 -9 q-39 -19 -193 -86l-9 4z" />
<glyph unicode="&#xd4;" horiz-adv-x="611" d="M47 255q0 184 81.5 288t231.5 104q110 0 170 -67t60 -189q0 -186 -82 -292.5t-232 -106.5q-108 0 -168.5 69.5t-60.5 193.5zM124 260q0 -205 158 -205q114 0 171.5 84t57.5 243q0 202 -160 202q-227 0 -227 -324zM249 765q56 34 125 89h22q41 -40 106 -89l-20 -33h-8 q-43 29 -93 67q-64 -40 -111 -67h-9z" />
<glyph unicode="&#xd5;" horiz-adv-x="611" d="M47 255q0 184 81.5 288t231.5 104q110 0 170 -67t60 -189q0 -186 -82 -292.5t-232 -106.5q-108 0 -168.5 69.5t-60.5 193.5zM124 260q0 -205 158 -205q114 0 171.5 84t57.5 243q0 202 -160 202q-227 0 -227 -324zM218 760v7l61 67l9 3q21 -2 81.5 -19t73.5 -17q4 0 8.5 2 t11 7t10.5 9t13 13.5t14 14.5h7l24 -25v-7l-61 -67l-9 -4q-20 2 -81 19.5t-74 17.5q-4 0 -8.5 -2t-10.5 -7t-10.5 -9.5t-13 -13.5t-13.5 -14h-9z" />
<glyph unicode="&#xd7;" horiz-adv-x="481" d="M66 133l1 7l141 126l-110 124l1 9l39 30l112 -126l140 126l33 -30l-1 -9l-139 -124l108 -125l-1 -8l-40 -31l-110 125l-142 -125z" />
<glyph unicode="&#xd8;" horiz-adv-x="612" d="M47 255q0 184 81.5 288t231.5 104q56 0 102 -19l54 94l43 -16l3 -9l-55 -96q83 -66 83 -210q0 -186 -82 -292.5t-232 -106.5q-59 0 -104 21l-65 -114l-43 16l-3 8l67 118q-81 69 -81 214zM124 260q0 -103 41 -155l263 463q-31 16 -77 16q-227 0 -227 -324zM205 72 q34 -17 77 -17q114 0 171.5 84t57.5 243q0 103 -41 153z" />
<glyph unicode="&#xd9;" horiz-adv-x="597" d="M69 180q0 29 4 54q7 46 14 101.5t12 99.5t12 104t12 101h74l-53 -397q-3 -24 -3 -45q0 -138 136 -138q159 0 178 174l47 406h75l-43 -325l-9 -73q-13 -119 -77.5 -184t-175.5 -65q-95 0 -149 49t-54 138zM259 817l19 44l9 2q74 -43 191 -102l-14 -34l-9 -4 q-111 47 -193 86z" />
<glyph unicode="&#xda;" horiz-adv-x="597" d="M69 180q0 29 4 54q7 46 14 101.5t12 99.5t12 104t12 101h74l-53 -397q-3 -24 -3 -45q0 -138 136 -138q159 0 178 174l47 406h75l-43 -325l-9 -73q-13 -119 -77.5 -184t-175.5 -65q-95 0 -149 49t-54 138zM269 758q106 53 191 103l8 -2l20 -44l-3 -9q-39 -19 -193 -86 l-9 4z" />
<glyph unicode="&#xdb;" horiz-adv-x="597" d="M69 180q0 29 4 54q7 46 14 101.5t12 99.5t12 104t12 101h74l-53 -397q-3 -24 -3 -45q0 -138 136 -138q159 0 178 174l47 406h75l-43 -325l-9 -73q-13 -119 -77.5 -184t-175.5 -65q-95 0 -149 49t-54 138zM243 765q56 34 125 89h22q41 -40 106 -89l-20 -33h-8 q-43 29 -93 67q-64 -40 -111 -67h-9z" />
<glyph unicode="&#xdc;" horiz-adv-x="597" d="M69 180q0 29 4 54q7 46 14 101.5t12 99.5t12 104t12 101h74l-53 -397q-3 -24 -3 -45q0 -138 136 -138q159 0 178 174l47 406h75l-43 -325l-9 -73q-13 -119 -77.5 -184t-175.5 -65q-95 0 -149 49t-54 138zM248 787q0 13 5 23t15 15.5t23 5.5q12 0 21.5 -5.5t14 -14.5 t4.5 -21q0 -20 -11.5 -32.5t-30.5 -12.5t-30 11t-11 31zM407 786q0 20 11.5 32t32.5 12q12 0 21 -5t13.5 -14.5t4.5 -21.5q0 -20 -11.5 -32t-30.5 -12q-20 0 -30.5 11t-10.5 30z" />
<glyph unicode="&#xde;" horiz-adv-x="502" d="M64 0l28 193l53 447h74l-15 -112l106 1q81 0 126.5 -41.5t45.5 -123.5q0 -110 -69 -179.5t-186 -69.5h-76l-12 -115h-75zM158 178l112 -2q61 8 98 56.5t37 121.5q0 54 -26.5 82t-85.5 31l-97 -2l-36 -266z" />
<glyph unicode="&#xdf;" horiz-adv-x="550" d="M56 405l7 45h74l11 78q11 85 62 130.5t134 45.5q70 0 108.5 -31.5t38.5 -89.5q0 -34 -13 -62t-32 -47.5t-38 -37t-32 -39t-13 -45.5q0 -21 15 -41t36.5 -37t42.5 -36.5t36 -46.5t15 -59q0 -59 -47.5 -99t-121.5 -41q-55 6 -103 34l16 67l10 5q44 -55 99 -55 q35 0 58.5 21.5t23.5 53.5q0 22 -15 43t-36.5 38t-43 36t-36 45.5t-14.5 58.5q0 34 13 62t31 47t36.5 36.5t31.5 40t13 49.5q0 71 -86 71q-49 0 -81.5 -25.5t-41.5 -73.5q-54 -410 -76 -560l-5 -107l-75 -6q51 370 73 527h-70z" />
<glyph unicode="&#xe0;" d="M33 150q0 113 61.5 205t172.5 110h5l62 -22l47 23l10 -6l-50 -351l-5 -106l-75 -7l29 205h-10q-71 -125 -157 -208h-14q-76 43 -76 157zM101 169q0 -34 5 -56.5t11 -30t13 -7.5q12 0 38.5 29t66.5 96t76 152l1 6l1 24l-61 22q-69 0 -110 -67.5t-41 -167.5zM157 656l28 39 l8 1q70 -67 163 -145l-21 -30l-8 -1q-77 54 -169 127z" />
<glyph unicode="&#xe1;" d="M33 150q0 113 61.5 205t172.5 110h5l62 -22l47 23l10 -6l-50 -351l-5 -106l-75 -7l29 205h-10q-71 -125 -157 -208h-14q-76 43 -76 157zM101 169q0 -34 5 -56.5t11 -30t13 -7.5q12 0 38.5 29t66.5 96t76 152l1 6l1 24l-61 22q-69 0 -110 -67.5t-41 -167.5zM168 551 q95 79 162 145l9 -1l28 -39l-2 -9q-100 -79 -168 -127l-8 1z" />
<glyph unicode="&#xe2;" d="M33 150q0 113 61.5 205t172.5 110h5l62 -22l47 23l10 -6l-50 -351l-5 -106l-75 -7l29 205h-10q-71 -125 -157 -208h-14q-76 43 -76 157zM101 169q0 -34 5 -56.5t11 -30t13 -7.5q12 0 38.5 29t66.5 96t76 152l1 6l1 24l-61 22q-69 0 -110 -67.5t-41 -167.5zM134 552 q56 51 136 134h23q47 -69 103 -134l-24 -30h-8q-47 48 -89 105q-45 -45 -115 -105h-9z" />
<glyph unicode="&#xe3;" d="M33 150q0 113 61.5 205t172.5 110h5l62 -22l47 23l10 -6l-50 -351l-5 -106l-75 -7l29 205h-10q-71 -125 -157 -208h-14q-76 43 -76 157zM101 169q0 -34 5 -56.5t11 -30t13 -7.5q12 0 38.5 29t66.5 96t76 152l1 6l1 24l-61 22q-69 0 -110 -67.5t-41 -167.5zM109 579v7 l61 67l9 3q21 -2 81.5 -19t73.5 -17q4 0 8.5 2t11 7t10.5 9t13 13.5t14 14.5h7l24 -25v-7l-61 -67l-9 -4q-20 2 -81 19.5t-74 17.5q-4 0 -8.5 -2t-10.5 -7t-10.5 -9.5t-13 -13.5t-13.5 -14h-9z" />
<glyph unicode="&#xe4;" d="M33 150q0 113 61.5 205t172.5 110h5l62 -22l47 23l10 -6l-50 -351l-5 -106l-75 -7l29 205h-10q-71 -125 -157 -208h-14q-76 43 -76 157zM101 169q0 -34 5 -56.5t11 -30t13 -7.5q12 0 38.5 29t66.5 96t76 152l1 6l1 24l-61 22q-69 0 -110 -67.5t-41 -167.5zM145 606 q0 20 11.5 32t31.5 12q18 0 29 -11.5t11 -29.5q0 -20 -11.5 -32.5t-30.5 -12.5q-41 0 -41 42zM304 605q0 20 11.5 32t32.5 12q18 0 28.5 -11t10.5 -30q0 -20 -11.5 -32t-30.5 -12q-41 0 -41 41z" />
<glyph unicode="&#xe5;" d="M33 150q0 113 61.5 205t172.5 110h5l62 -22l47 23l10 -6l-50 -351l-5 -106l-75 -7l29 205h-10q-71 -125 -157 -208h-14q-76 43 -76 157zM101 169q0 -34 5 -56.5t11 -30t13 -7.5q12 0 38.5 29t66.5 96t76 152l1 6l1 24l-61 22q-69 0 -110 -67.5t-41 -167.5zM184 614 q0 37 22 59.5t61 22.5t60.5 -22.5t21.5 -57.5q0 -39 -24 -61t-60 -22t-58.5 21.5t-22.5 59.5zM221 615q0 -22 12.5 -34t33.5 -12q20 0 32.5 11.5t12.5 32.5q0 20 -12 32.5t-34 12.5q-45 0 -45 -43z" />
<glyph unicode="&#xe6;" horiz-adv-x="609" d="M40 150q0 72 25 137.5t80.5 115.5t130.5 62h5l105 -39q49 37 114 40q95 -11 95 -90q0 -117 -249 -202v-13q4 -105 65 -105q34 0 67 26.5t54 67.5l12 -1l25 -35q-70 -101 -157 -121h-12q-67 7 -95.5 48.5t-28.5 118.5v19q-68 -114 -146 -186h-14q-76 43 -76 157zM107 170 q0 -35 5 -57.5t11.5 -30t13.5 -7.5q8 0 25.5 16.5t40 46.5t51 80.5t54.5 109.5q18 34 29 47l-76 29q-70 0 -112 -67.5t-42 -166.5zM349 230q88 28 133.5 64t45.5 77t-47 41q-51 0 -86.5 -49.5t-45.5 -132.5z" />
<glyph unicode="&#xe7;" horiz-adv-x="334" d="M34 158q0 87 23.5 154t77.5 109.5t132 42.5l64 -20l6 -11l-20 -59l-16 -3q-34 35 -68 35q-59 0 -94 -63t-35 -172q0 -62 14 -88.5t44 -26.5q54 0 103 91h11l24 -34q-51 -86 -120 -112l-15 -52l33 -20q38 -20 38 -55q0 -29 -22 -47t-57 -18q-43 0 -72 31l8 38l5 2 q26 -31 55 -31q33 0 33 27q0 15 -22 25l-47 29l17 65q-52 11 -76 46.5t-24 116.5z" />
<glyph unicode="&#xe8;" horiz-adv-x="374" d="M34 154q0 133 62 220.5t161 91.5q94 -10 94 -90q0 -118 -246 -201q0 -119 63 -119q33 0 65.5 26t54.5 68l12 -1l25 -35q-69 -101 -156 -121h-13q-122 10 -122 161zM108 230q86 28 131 64t45 77t-46 41q-50 0 -85 -49.5t-45 -132.5zM144 656l28 39l8 1q70 -67 163 -145 l-21 -30l-8 -1q-77 54 -169 127z" />
<glyph unicode="&#xe9;" horiz-adv-x="374" d="M34 154q0 133 62 220.5t161 91.5q94 -10 94 -90q0 -118 -246 -201q0 -119 63 -119q33 0 65.5 26t54.5 68l12 -1l25 -35q-69 -101 -156 -121h-13q-122 10 -122 161zM108 230q86 28 131 64t45 77t-46 41q-50 0 -85 -49.5t-45 -132.5zM155 551q95 79 162 145l9 -1l28 -39 l-2 -9q-100 -79 -168 -127l-8 1z" />
<glyph unicode="&#xea;" horiz-adv-x="374" d="M34 154q0 133 62 220.5t161 91.5q94 -10 94 -90q0 -118 -246 -201q0 -119 63 -119q33 0 65.5 26t54.5 68l12 -1l25 -35q-69 -101 -156 -121h-13q-122 10 -122 161zM108 230q86 28 131 64t45 77t-46 41q-50 0 -85 -49.5t-45 -132.5zM121 552q56 51 136 134h23 q47 -69 103 -134l-24 -30h-8q-47 48 -89 105q-45 -45 -115 -105h-9z" />
<glyph unicode="&#xeb;" horiz-adv-x="374" d="M34 154q0 133 62 220.5t161 91.5q94 -10 94 -90q0 -118 -246 -201q0 -119 63 -119q33 0 65.5 26t54.5 68l12 -1l25 -35q-69 -101 -156 -121h-13q-122 10 -122 161zM108 230q86 28 131 64t45 77t-46 41q-50 0 -85 -49.5t-45 -132.5zM132 606q0 13 5 23t15 15.5t23 5.5 q18 0 29 -11.5t11 -29.5q0 -13 -5.5 -23.5t-15 -16t-21.5 -5.5q-19 0 -30 11t-11 31zM291 605q0 20 11.5 32t32.5 12q12 0 21 -5t13.5 -14.5t4.5 -21.5q0 -20 -11.5 -32t-30.5 -12q-20 0 -30.5 11t-10.5 30z" />
<glyph unicode="&#xec;" horiz-adv-x="218" d="M44 -4l52 363l4 97l74 7l-50 -354l-4 -106zM45 655l28 39l8 1q70 -67 163 -145l-21 -30l-8 -1q-77 54 -169 127z" />
<glyph unicode="&#xed;" horiz-adv-x="218" d="M44 -4l52 363l4 97l74 7l-50 -354l-4 -106zM56 550q95 79 162 145l9 -1l28 -39l-2 -9q-100 -79 -168 -127l-8 1z" />
<glyph unicode="&#xee;" horiz-adv-x="218" d="M22 551q56 51 136 134h23q47 -69 103 -134l-24 -30h-8q-47 48 -89 105q-45 -45 -115 -105h-9zM44 -4l52 363l4 97l74 7l-50 -354l-4 -106z" />
<glyph unicode="&#xf0;" horiz-adv-x="437" d="M46 149q0 133 60 219t161 91h8q12 -2 19 -4q-24 59 -71 106l-127 -61l-6 3l-11 37l108 53q-47 37 -113 66l1 10l50 36h5q74 -34 123 -80l120 59l7 -3l12 -38l-105 -51q104 -116 102 -279q0 -138 -59 -225.5t-161 -96.5q-62 7 -92.5 45t-30.5 113zM113 150q0 -54 15.5 -78 t49.5 -24q68 0 105 70.5t38 190.5q0 31 -5 68q-17 31 -59 31q-68 0 -106 -70t-38 -188z" />
<glyph unicode="&#xf1;" horiz-adv-x="467" d="M44 -4l52 363l5 97l73 7l-31 -225h9q97 167 174 227h11q35 -8 56.5 -30.5t20.5 -56.5q-7 -53 -22.5 -148.5t-19.5 -121.5l-6 -105l-77 -7l55 342l1 13q0 31 -21 31q-29 0 -81.5 -73t-117.5 -208l-5 -98zM125 578v7l61 67l9 3q21 -2 81.5 -19t73.5 -17q4 0 8.5 2t11 7 t10.5 9t13 13.5t14 14.5h7l24 -25v-7l-61 -67l-9 -4q-20 2 -81 19.5t-74 17.5q-4 0 -8.5 -2t-10.5 -7t-10.5 -9.5t-13 -13.5t-13.5 -14h-9z" />
<glyph unicode="&#xf2;" horiz-adv-x="411" d="M36 149q0 137 60 224t162 93h8q109 -18 109 -152q0 -140 -58 -227t-161 -96q-120 15 -120 158zM105 150q0 -52 14.5 -75.5t47.5 -23.5q66 0 102 70t36 188q0 51 -14 73.5t-46 22.5q-68 0 -104 -69t-36 -186zM153 655l28 39l8 1q70 -67 163 -145l-21 -30l-8 -1 q-77 54 -169 127z" />
<glyph unicode="&#xf3;" horiz-adv-x="411" d="M36 149q0 137 60 224t162 93h8q109 -18 109 -152q0 -140 -58 -227t-161 -96q-120 15 -120 158zM105 150q0 -52 14.5 -75.5t47.5 -23.5q66 0 102 70t36 188q0 51 -14 73.5t-46 22.5q-68 0 -104 -69t-36 -186zM164 550q95 79 162 145l9 -1l28 -39l-2 -9q-100 -79 -168 -127 l-8 1z" />
<glyph unicode="&#xf4;" horiz-adv-x="411" d="M36 149q0 137 60 224t162 93h8q109 -18 109 -152q0 -140 -58 -227t-161 -96q-120 15 -120 158zM105 150q0 -52 14.5 -75.5t47.5 -23.5q66 0 102 70t36 188q0 51 -14 73.5t-46 22.5q-68 0 -104 -69t-36 -186zM130 551q56 51 136 134h23q47 -69 103 -134l-24 -30h-8 q-47 48 -89 105q-45 -45 -115 -105h-9z" />
<glyph unicode="&#xf5;" horiz-adv-x="411" d="M36 149q0 137 60 224t162 93h8q109 -18 109 -152q0 -140 -58 -227t-161 -96q-120 15 -120 158zM105 150q0 -52 14.5 -75.5t47.5 -23.5q66 0 102 70t36 188q0 51 -14 73.5t-46 22.5q-68 0 -104 -69t-36 -186zM105 578v7l61 67l9 3q21 -2 81.5 -19t73.5 -17q4 0 8.5 2t11 7 t10.5 9t13 13.5t14 14.5h7l24 -25v-7l-61 -67l-9 -4q-20 2 -81 19.5t-74 17.5q-4 0 -8.5 -2t-10.5 -7t-10.5 -9.5t-13 -13.5t-13.5 -14h-9z" />
<glyph unicode="&#xf7;" horiz-adv-x="478" d="M35 245l4 47h406l7 -6l-5 -47h-407zM180 91q0 19 11.5 31t31.5 12q39 0 39 -41q0 -20 -11.5 -31.5t-30.5 -11.5q-40 0 -40 41zM223 442q0 20 11.5 31.5t30.5 11.5t29.5 -11t10.5 -29q0 -20 -11.5 -32t-30.5 -12q-40 0 -40 41z" />
<glyph unicode="&#xf8;" horiz-adv-x="411" d="M22 -89l56 113q-42 39 -42 125q0 137 60 224t162 93h8q2 0 25 -6l44 89l38 -18l5 -8l-43 -88q40 -38 40 -121q0 -140 -58 -227t-161 -96q-19 2 -34 8l-55 -114l-42 19zM105 150q0 -34 6 -57l152 310q-10 2 -18 2q-68 0 -104 -69t-36 -186zM149 53q10 -2 18 -2 q66 0 102 70t36 188q0 32 -6 53z" />
<glyph unicode="&#xf9;" horiz-adv-x="471" d="M54 82q7 53 22.5 149t19.5 122l8 105l74 6l-52 -335l-2 -21q-1 -30 20 -30q30 0 82 71.5t117 206.5v3l5 97l74 7l-50 -354l-4 -106l-76 -7l31 224h-6q-94 -161 -175 -224h-11q-34 8 -56 30t-21 56zM173 655l28 39l8 1q70 -67 163 -145l-21 -30l-8 -1q-77 54 -169 127z " />
<glyph unicode="&#xfa;" horiz-adv-x="471" d="M54 82q7 53 22.5 149t19.5 122l8 105l74 6l-52 -335l-2 -21q-1 -30 20 -30q30 0 82 71.5t117 206.5v3l5 97l74 7l-50 -354l-4 -106l-76 -7l31 224h-6q-94 -161 -175 -224h-11q-34 8 -56 30t-21 56zM184 550q95 79 162 145l9 -1l28 -39l-2 -9q-100 -79 -168 -127l-8 1z " />
<glyph unicode="&#xfb;" horiz-adv-x="471" d="M54 82q7 53 22.5 149t19.5 122l8 105l74 6l-52 -335l-2 -21q-1 -30 20 -30q30 0 82 71.5t117 206.5v3l5 97l74 7l-50 -354l-4 -106l-76 -7l31 224h-6q-94 -161 -175 -224h-11q-34 8 -56 30t-21 56zM151 551q56 51 136 134h23q47 -69 103 -134l-24 -30h-8q-47 48 -89 105 q-45 -45 -115 -105h-9z" />
<glyph unicode="&#xfc;" horiz-adv-x="471" d="M54 82q7 53 22.5 149t19.5 122l8 105l74 6l-52 -335l-2 -21q-1 -30 20 -30q30 0 82 71.5t117 206.5v3l5 97l74 7l-50 -354l-4 -106l-76 -7l31 224h-6q-94 -161 -175 -224h-11q-34 8 -56 30t-21 56zM161 605q0 20 11.5 32t31.5 12q18 0 29 -11.5t11 -29.5 q0 -20 -11.5 -32.5t-30.5 -12.5q-41 0 -41 42zM320 604q0 20 11.5 32t32.5 12q18 0 28.5 -11t10.5 -30q0 -20 -11.5 -32t-30.5 -12q-41 0 -41 41z" />
<glyph unicode="&#xfe;" horiz-adv-x="446" d="M23 -192l110 791l4 98l74 6l-62 -448h11q74 129 158 210h15q75 -45 75 -157q0 -113 -62 -205.5t-173 -109.5h-5l-53 12l-11 -80l-5 -110zM124 71l64 -18q70 0 111 68t41 168q0 93 -30 93q-11 0 -37.5 -29t-67 -95t-76.5 -150z" />
<glyph unicode="&#xff;" horiz-adv-x="407" d="M-103 -115l8 6q40 -15 73 -15q90 0 168 117l-90 463l73 7q8 -56 18 -118.5t22 -138t19 -117.5h13l90 171q36 67 36 110q0 34 -24 67l3 10l69 16q23 -37 23 -80q0 -61 -49 -148l-115 -203q-70 -123 -129.5 -175t-125.5 -52q-40 0 -78 16zM104 605q0 20 11.5 32t31.5 12 q18 0 29 -11.5t11 -29.5q0 -20 -11.5 -32.5t-30.5 -12.5q-41 0 -41 42zM263 604q0 20 11.5 32t32.5 12q18 0 28.5 -11t10.5 -30q0 -20 -11.5 -32t-30.5 -12q-41 0 -41 41z" />
<glyph unicode="&#x152;" horiz-adv-x="813" d="M46 261q0 181 93 286t255 105q30 0 81 -6t77 -6h283l4 -7l-14 -59l-136 4h-128l-27 -218l107 -2l108 3l4 -7l-14 -58l-112 2l-104 -1q-11 -89 -27 -233l117 -2l150 4l5 -7l-14 -59h-282q-29 1 -89 -5.5t-88 -6.5q-119 0 -184 72t-65 201zM123 265q0 -214 188 -214 q57 0 91 10q26 7 30 33l51 446q4 32 -8 37q-36 13 -96 13q-125 0 -190.5 -84.5t-65.5 -240.5z" />
<glyph unicode="&#x153;" horiz-adv-x="646" d="M42 150q0 136 60.5 223t163.5 93h9q82 -13 99 -89q59 85 159 89l10 -1q85 -13 85 -89q0 -117 -248 -201q0 -119 64 -119q34 0 67 26.5t54 67.5l12 -1l25 -35q-70 -101 -157 -121h-11q-91 10 -111 92q-57 -85 -158 -94q-63 8 -93 46t-30 113zM111 150q0 -53 15 -77t48 -24 q68 0 105 70.5t37 189.5q0 52 -15 75t-47 23q-69 0 -106 -69.5t-37 -187.5zM383 230q178 58 178 141q0 41 -47 41q-51 0 -86.5 -49.5t-44.5 -132.5z" />
<glyph unicode="&#x178;" horiz-adv-x="502" d="M66 640h79l7 -35l98 -291h7l182 289l19 37h82l-263 -407l-7 -46l-21 -187h-75l29 187l5 47zM200 787q0 20 11.5 32t31.5 12q18 0 29 -11.5t11 -29.5q0 -20 -11.5 -32.5t-30.5 -12.5q-41 0 -41 42zM359 786q0 20 11.5 32t32.5 12q18 0 28.5 -11t10.5 -30q0 -20 -11.5 -32 t-30.5 -12q-41 0 -41 41z" />
<glyph unicode="&#x2c6;" horiz-adv-x="390" d="M103 551q56 51 136 134h23q47 -69 103 -134l-24 -30h-8q-47 48 -89 105q-45 -45 -115 -105h-9z" />
<glyph unicode="&#x2dc;" horiz-adv-x="390" d="M84 578v7l61 67l9 3q21 -2 81.5 -19t73.5 -17q4 0 8.5 2t11 7t10.5 9t13 13.5t14 14.5h7l24 -25v-7l-61 -67l-9 -4q-20 2 -81 19.5t-74 17.5q-4 0 -8.5 -2t-10.5 -7t-10.5 -9.5t-13 -13.5t-13.5 -14h-9z" />
<glyph unicode="&#x2000;" horiz-adv-x="438" />
<glyph unicode="&#x2001;" horiz-adv-x="877" />
<glyph unicode="&#x2002;" horiz-adv-x="438" />
<glyph unicode="&#x2003;" horiz-adv-x="877" />
<glyph unicode="&#x2004;" horiz-adv-x="292" />
<glyph unicode="&#x2005;" horiz-adv-x="219" />
<glyph unicode="&#x2006;" horiz-adv-x="146" />
<glyph unicode="&#x2007;" horiz-adv-x="146" />
<glyph unicode="&#x2008;" horiz-adv-x="109" />
<glyph unicode="&#x2009;" horiz-adv-x="175" />
<glyph unicode="&#x200a;" horiz-adv-x="48" />
<glyph unicode="&#x2010;" horiz-adv-x="308" d="M28 217l6 48l246 34l6 -7l-6 -48l-246 -34z" />
<glyph unicode="&#x2011;" horiz-adv-x="308" d="M28 217l6 48l246 34l6 -7l-6 -48l-246 -34z" />
<glyph unicode="&#x2012;" horiz-adv-x="308" d="M28 217l6 48l246 34l6 -7l-6 -48l-246 -34z" />
<glyph unicode="&#x2013;" horiz-adv-x="479" d="M-14 235l10 47h500l4 -6l-9 -47h-500z" />
<glyph unicode="&#x2014;" horiz-adv-x="932" d="M-15 235l10 47h955l5 -6l-10 -47h-955z" />
<glyph unicode="&#x2018;" horiz-adv-x="163" d="M63 511q0 61 72 132l29 -21l1 -6q-43 -44 -43 -84q0 -39 39 -54v-7q-15 -15 -44 -33q-54 20 -54 73z" />
<glyph unicode="&#x2019;" horiz-adv-x="164" d="M64 457v6q42 46 42 84q0 39 -39 54v8q14 13 45 33q53 -21 53 -74q0 -60 -72 -131z" />
<glyph unicode="&#x201a;" horiz-adv-x="229" d="M18 -83q55 44 55 88q0 26 -31 46v8q24 16 52 25q41 -26 41 -66q0 -64 -92 -131l-25 24v6z" />
<glyph unicode="&#x201c;" horiz-adv-x="282" d="M57 511q0 60 72 131l29 -20v-6q-42 -46 -42 -84q0 -39 39 -54v-8q-14 -13 -45 -33q-53 21 -53 74zM185 511q0 60 72 131l29 -20v-6q-42 -46 -42 -84q0 -39 39 -54v-8q-14 -13 -45 -33q-53 21 -53 74z" />
<glyph unicode="&#x201d;" horiz-adv-x="289" d="M60 463q43 46 43 84q0 39 -39 54v8q12 11 44 33q54 -20 54 -74q0 -60 -72 -131l-29 20zM187 457v6q42 46 42 84q0 39 -39 54v8q12 11 44 33q54 -20 54 -74q0 -60 -72 -131z" />
<glyph unicode="&#x201e;" horiz-adv-x="358" d="M18 -83q55 44 55 88q0 26 -31 46v8q24 16 52 25q41 -26 41 -66q0 -64 -92 -131l-25 24v6zM145 -83q55 44 55 88q0 26 -31 46v8q28 17 53 25q41 -27 41 -66q0 -64 -92 -131l-26 24v6z" />
<glyph unicode="&#x2022;" horiz-adv-x="254" d="M80 236q0 23 13.5 37t36.5 14q22 0 34.5 -13t12.5 -35q0 -23 -13.5 -37t-36.5 -14q-47 0 -47 48z" />
<glyph unicode="&#x2026;" horiz-adv-x="579" d="M21 39q0 20 12.5 32.5t33.5 12.5q41 0 41 -42q0 -21 -12 -34t-32 -13t-31.5 12t-11.5 32zM196 39q0 20 12 32.5t33 12.5q19 0 30.5 -11t11.5 -31q0 -21 -12.5 -34t-32.5 -13q-42 0 -42 44zM369 39q0 20 12 32.5t33 12.5q42 0 42 -42q0 -21 -12 -34t-32 -13t-31.5 12 t-11.5 32z" />
<glyph unicode="&#x202f;" horiz-adv-x="175" />
<glyph unicode="&#x2039;" horiz-adv-x="228" d="M30 220l2 16l167 169l34 -21v-9l-144 -149l107 -150l-2 -9l-39 -21z" />
<glyph unicode="&#x203a;" horiz-adv-x="232" d="M8 67v10l144 149l-108 150l3 9l38 21l125 -174l-2 -16l-167 -169z" />
<glyph unicode="&#x205f;" horiz-adv-x="219" />
<glyph unicode="&#x20ac;" horiz-adv-x="493" d="M13 166l8 40h71q4 48 8 70h-71l-3 5l8 39h76q57 181 243 181q74 0 132 -37l-18 -50l-7 -2q-48 37 -115 37q-129 0 -170 -129h188l4 -4l-9 -40h-195q-7 -32 -7 -70h193l3 -5l-8 -40h-186q17 -114 133 -114q71 0 134 41l8 -5l-11 -49q-69 -40 -140 -40q-176 0 -190 167h-76 z" />
<glyph unicode="&#x2122;" horiz-adv-x="582" d="M75 609l6 31h178l2 -4l-7 -31l-45 2h-23l-17 -128l-7 -74h-41l10 70l16 132h-23l-47 -2zM275 405l55 235h51l7 -35l32 -119h3l66 119l16 35h48l-6 -235h-37l4 71l1 99h-4l-81 -145h-34l-43 145h-2l-24 -94l-15 -76h-37z" />
<glyph unicode="&#x25fc;" horiz-adv-x="465" d="M0 0v465h465v-465h-465z" />
</font>
</defs>
</svg>
