<?xml version="1.0" standalone="no"?>
<!DOCTYPE svg PUBLIC "-//W3C//DTD SVG 1.1//EN" "http://www.w3.org/Graphics/SVG/1.1/DTD/svg11.dtd" >
<svg xmlns="http://www.w3.org/2000/svg">
<metadata></metadata>
<defs>
<font id="armataregular" horiz-adv-x="1364" >
<font-face units-per-em="2048" ascent="1638" descent="-410" />
<missing-glyph horiz-adv-x="511" />
<glyph horiz-adv-x="2048" />
<glyph horiz-adv-x="2048" />
<glyph unicode="&#xd;" horiz-adv-x="2048" />
<glyph horiz-adv-x="0" />
<glyph horiz-adv-x="0" />
<glyph horiz-adv-x="0" />
<glyph horiz-adv-x="0" />
<glyph horiz-adv-x="0" />
<glyph horiz-adv-x="0" />
<glyph horiz-adv-x="0" />
<glyph horiz-adv-x="0" />
<glyph unicode="&#x9;" horiz-adv-x="0" />
<glyph horiz-adv-x="0" />
<glyph horiz-adv-x="0" />
<glyph horiz-adv-x="0" />
<glyph horiz-adv-x="0" />
<glyph horiz-adv-x="0" />
<glyph horiz-adv-x="0" />
<glyph horiz-adv-x="0" />
<glyph horiz-adv-x="0" />
<glyph horiz-adv-x="0" />
<glyph horiz-adv-x="0" />
<glyph unicode=" "  horiz-adv-x="511" />
<glyph unicode="&#x09;" horiz-adv-x="511" />
<glyph unicode="&#xa0;" horiz-adv-x="511" />
<glyph unicode="!" horiz-adv-x="512" d="M148 113q0 77 24.5 103t92.5 26q70 0 93 -25.5t23 -103.5q0 -79 -23 -105.5t-93 -26.5t-93.5 26t-23.5 106zM164 1530h188l-24 -1118h-131z" />
<glyph unicode="&#x22;" horiz-adv-x="1026" d="M213 1805h186l-21 -612h-144zM626 1805h186l-21 -612h-144z" />
<glyph unicode="#" horiz-adv-x="1532" d="M133 391v116h252l109 429h-252v116h281l92 362h142l-92 -362h377l92 362h142l-93 -362h215v-116h-245l-109 -429h245v-116h-275l-87 -343h-139l87 343h-378l-87 -343h-141l87 343h-223zM526 507h378l109 429h-378z" />
<glyph unicode="$" horiz-adv-x="1194" d="M85 121l66 140q227 -120 444 -120q91 0 151.5 18t95 55.5t48.5 87.5t14 122v29q0 50 -3.5 81.5t-16 59t-31 43t-54.5 30.5t-79.5 24t-113.5 20q-62 10 -103 17.5t-91.5 20.5t-83.5 28t-69 37.5t-58 52t-41 68t-27.5 88.5t-8.5 112q0 208 100.5 304t297.5 109v251h150 v-251q213 -9 356 -72l-52 -152q-82 35 -179 59.5t-174 24.5h-9q-99 0 -163 -16.5t-98 -53t-46.5 -83t-12.5 -117.5v-4q0 -105 39 -157t119 -73q84 -22 213 -42q168 -27 232 -52q111 -44 151 -147q32 -80 32 -210v-24q0 -109 -29.5 -189t-85 -129.5t-127.5 -75.5t-166 -33 v-272h-150v272q-265 16 -437 119z" />
<glyph unicode="%" horiz-adv-x="1875" d="M69 1158q0 108 15.5 177.5t55.5 118.5t109.5 70t176.5 21q108 0 175 -21t103 -71t48.5 -116t12.5 -173q0 -217 -75.5 -304.5t-274.5 -87.5q-105 0 -171.5 20.5t-105.5 69.5t-54 118.5t-15 177.5zM222 1176q0 -171 37.5 -227.5t157.5 -56.5q78 0 118 24t57 84t17 178 q0 146 -37 197t-147 51q-121 0 -162 -51.5t-41 -198.5zM417 0l858 1530h162l-860 -1530h-160zM1106 367q0 108 15.5 178t55.5 119t109.5 70t176.5 21q108 0 175 -21t103 -71t48.5 -116t12.5 -174q0 -217 -76 -304t-274 -87q-104 0 -171 20.5t-106 69.5t-54 118t-15 177z M1259 385q0 -171 37.5 -227t157.5 -56q78 0 118 24t57 84t17 177q0 147 -37 198t-147 51q-121 0 -162 -52t-41 -199z" />
<glyph unicode="&#x26;" horiz-adv-x="1703" d="M231 384q0 102 14 172.5t46 119t74 78.5t109 59q-33 16 -54 29t-49.5 40t-45 59.5t-28.5 86t-12 121.5q0 194 110 296.5t348 102.5q91 0 204 -20t196 -54l-53 -146q-54 29 -154.5 56.5t-197.5 27.5q-67 0 -110.5 -6.5t-79.5 -24t-55 -50t-29 -82t-10 -123.5 q0 -137 72 -200.5t189 -63.5h322l43 264h116v-264h294q4 -36 4 -64q0 -29 -4 -65h-294v-427q0 -118 14.5 -154t75.5 -36q95 0 205 53l47 -117q-59 -35 -137 -53t-149 -18q-83 0 -132 38.5t-62 107.5q-183 -146 -433 -146q-92 0 -161.5 20t-123 65.5t-81.5 125t-28 192.5z M405 439q0 -93 10 -151.5t37 -99.5t74 -58t122 -17q126 0 228 45t161 95v480h-325q-37 0 -63.5 -1.5t-61 -8t-58 -18.5t-49 -34t-40.5 -52.5t-25 -76t-10 -103.5z" />
<glyph unicode="'" horiz-adv-x="513" d="M163 1805h186l-21 -612h-144z" />
<glyph unicode="(" horiz-adv-x="851" d="M196 754q0 184 22.5 354t56.5 293.5t80 232.5t86 176.5t82 119.5l111 -73q-72 -115 -126 -247.5t-83.5 -247t-47 -235.5t-22 -205.5t-3.5 -165.5q8 -585 298 -967l-105 -78q-41 41 -82.5 99t-91 155t-87 208t-63 264t-25.5 317z" />
<glyph unicode=")" horiz-adv-x="852" d="M197 1852l105 78q41 -41 82.5 -99t91 -155t87 -208t63 -264t25.5 -317q0 -184 -22.5 -354t-56.5 -293.5t-80 -232.5t-86 -176.5t-82 -119.5l-111 73q72 115 126 247.5t83.5 247t47 235.5t22 205.5t3.5 165.5q-8 585 -298 967z" />
<glyph unicode="*" horiz-adv-x="1195" d="M109 1259v160l393 -27l-232 325l151 84l175 -353l177 358l141 -83l-219 -333l392 27v-160l-392 23l222 -320l-142 -84l-175 350l-175 -357l-143 84l219 328z" />
<glyph unicode="+" horiz-adv-x="1533" d="M180 673v133h514v514h142v-514h515v-133h-515v-535h-142v535h-514z" />
<glyph unicode="," horiz-adv-x="512" d="M81 -376l90 614l32 2q32 2 84 2q33 0 49 -9.5t16 -36.5q0 -15 -8 -49l-131 -523h-132z" />
<glyph unicode="-" horiz-adv-x="1026" d="M177 568v145h671v-145h-671z" />
<glyph unicode="." horiz-adv-x="512" d="M139 113q0 77 24.5 103t92.5 26q70 0 93 -25.5t23 -103.5q0 -79 -23 -105.5t-93 -26.5t-93.5 26t-23.5 106z" />
<glyph unicode="/" horiz-adv-x="854" d="M10 -114l679 1940h149l-683 -1940h-145z" />
<glyph unicode="0" horiz-adv-x="1534" d="M225 764v60q0 78 1.5 135t6 120.5t13 109t22.5 94t34.5 81.5t48.5 65.5t65 53t83.5 37t105 23.5t128.5 7h62q76 0 137.5 -6.5t110.5 -24t86.5 -35.5t65.5 -53.5t47.5 -64.5t32.5 -82t20 -92.5t10.5 -110t4.5 -120.5t1 -137v-60q0 -92 -1 -148t-6 -134t-15 -125 t-28 -106.5t-44 -94.5t-64.5 -73t-89 -57.5t-118 -32.5t-150.5 -13h-62q-83 0 -151 13.5t-118 31.5t-88.5 58t-63.5 71.5t-42 95t-26 104.5t-13.5 124t-5 130.5t-0.5 145.5v10zM400 659q0 -123 8.5 -206.5t30 -149t60 -102t95 -54.5t139.5 -18h60q74 0 125.5 9.5t90.5 35 t62.5 62.5t38.5 99.5t20 138t5 185.5v165q0 93 -1 143t-5 117.5t-13 101.5t-24.5 77t-39.5 62t-58.5 39.5t-81 27t-107.5 6.5h-84q-77 0 -131 -13t-89.5 -48.5t-55.5 -73.5t-30 -114t-12.5 -141.5t-2.5 -183.5v-165z" />
<glyph unicode="1" horiz-adv-x="858" d="M106 1496l426 54v-1550h-170v1387l-242 -29z" />
<glyph unicode="2" horiz-adv-x="1196" d="M134 129q140 150 294 349.5t249 345.5q128 201 128 367q0 214 -235 214q-79 0 -181.5 -33t-167.5 -78l-66 139q67 52 191.5 85t228.5 33q217 0 315.5 -91t98.5 -250q0 -216 -203 -508q-134 -193 -440 -556h662v-146h-862z" />
<glyph unicode="3" horiz-adv-x="1195" d="M98 60l48 150q207 -85 418 -85q123 0 188 69.5t72 224.5q3 63 -4 112.5t-20 83t-36 57.5t-46 37t-58 20t-63.5 9t-69.5 2q-60 0 -204 -9l-13 130q191 48 325 146.5t133 214.5q-1 98 -58 142t-183 43q-96 -1 -185 -27.5t-144 -55.5l-52 148q159 75 397 78q197 1 299.5 -84 t104.5 -228q1 -63 -18.5 -116t-50 -90.5t-79.5 -70.5t-97 -55.5t-113 -46.5l2 -9q126 2 208 -21.5t129.5 -78.5t65 -134.5t13.5 -199.5q-3 -98 -31 -174t-73 -125t-109 -80t-133 -44t-150 -13q-111 0 -223.5 23t-189.5 57z" />
<glyph unicode="4" horiz-adv-x="1366" d="M141 382v117l611 1031h277v-1003h174v-130l-174 -15v-382h-168v382h-720zM346 527h515l-1 881z" />
<glyph unicode="5" horiz-adv-x="1196" d="M118 59l49 147q202 -82 409 -82q155 0 213.5 92.5t58.5 295.5q0 178 -59.5 253.5t-209.5 75.5q-33 0 -77 -3.5t-79 -7.5t-97.5 -11.5t-101.5 -11.5v723h757v-145h-595v-435q6 1 51.5 8.5t64.5 10t59 5.5t78 3q89 0 155.5 -20.5t109 -56.5t69 -91.5t37 -117.5t12.5 -142 v-51q0 -143 -29.5 -243t-91.5 -160.5t-150 -87.5t-212 -27q-229 0 -421 79z" />
<glyph unicode="6" horiz-adv-x="1366" d="M218 433v528q1 105 10 181.5t31 146t60.5 115.5t97.5 80.5t142.5 50t194.5 15.5q119 0 226.5 -18.5t149.5 -42.5l-50 -153q-175 71 -373 71q-71 0 -118 -9t-88.5 -36t-64.5 -76.5t-35 -130t-11 -197.5l1 -107q74 49 181.5 81.5t221.5 32.5q76 0 135 -12t100 -31.5 t70.5 -51.5t46 -65.5t26 -81t12 -89t2.5 -98.5v-94q0 -50 -3.5 -91.5t-15.5 -90.5t-32 -87.5t-55.5 -76t-83 -62t-118 -39.5t-157.5 -15q-271 0 -387 107.5t-116 345.5zM391 483q0 -66 3.5 -111t14 -88t30.5 -69.5t52 -47.5t79 -30t112 -9h57q86 0 139.5 17t83.5 58t40.5 96 t10.5 144v57q0 103 -9 161.5t-36 94.5t-69 47t-116 11h-28q-101 0 -201 -27t-163 -63v-241z" />
<glyph unicode="7" horiz-adv-x="1024" d="M78 1385v145h866v-133q-297 -594 -556 -1397h-176q216 664 553 1385h-687z" />
<glyph unicode="8" horiz-adv-x="1366" d="M203 370v69q0 128 70.5 219.5t243.5 151.5q-165 51 -229 144.5t-64 239.5v14q0 93 34.5 160.5t98.5 106.5t145.5 57t184.5 18h14q227 0 333.5 -76.5t106.5 -262.5v-16q0 -138 -66.5 -222.5t-214.5 -144.5q165 -57 236.5 -149.5t71.5 -250.5v-58q0 -96 -26.5 -167 t-69.5 -113t-109.5 -67.5t-135 -34t-158.5 -8.5q-86 0 -151.5 9t-127 34.5t-101 68t-63 113t-23.5 165.5zM370 371q0 -139 70.5 -192t210.5 -53h68q69 0 116.5 10t87 36t58.5 75.5t19 123.5v65q0 65 -17 111.5t-59 82t-97 61t-145 54.5q-186 -59 -249 -122.5t-63 -186.5v-65 zM383 1190q0 -54 10.5 -91.5t29.5 -65.5t61 -52.5t88 -43.5t129 -47q88 29 144 61t86 72t40.5 83t10.5 105q0 61 -19 100.5t-60 60t-90.5 28t-124.5 7.5q-80 0 -132 -8t-93.5 -31t-60.5 -66.5t-19 -111.5z" />
<glyph unicode="9" horiz-adv-x="1366" d="M179 994v94q0 50 3.5 91.5t15.5 90.5t32 87.5t55.5 76t83 62t118 39.5t157.5 15q271 0 387 -107.5t116 -345.5v-528q-1 -126 -14 -214t-46 -163t-90.5 -119t-148 -68.5t-217.5 -24.5q-126 0 -235.5 23.5t-159.5 50.5l49 147q185 -77 373 -77q60 0 101.5 6t80 23t62.5 48 t42 80.5t25 121t6 169.5l-1 107q-74 -49 -181.5 -81.5t-221.5 -32.5q-76 0 -135 12t-100 31.5t-70.5 51.5t-46 65.5t-26 81t-12 89t-2.5 98.5zM352 1029q0 -103 9 -161.5t36 -94.5t69 -47t116 -11h28q101 0 201 27t163 63v242q0 66 -3.5 111t-14 88t-30.5 69.5t-52 47.5 t-79 30t-112 9h-57q-86 0 -139.5 -17t-83.5 -58t-40.5 -96t-10.5 -144v-58z" />
<glyph unicode=":" horiz-adv-x="512" d="M140 109q0 74 24 99.5t90 25.5q68 0 90.5 -25t22.5 -100q0 -76 -22.5 -102t-90.5 -26t-91 25.5t-23 102.5zM140 941q0 75 24 100t90 25q68 0 90.5 -25t22.5 -100q0 -76 -23 -102t-90 -26q-68 0 -91 25.5t-23 102.5z" />
<glyph unicode=";" horiz-adv-x="512" d="M81 -376l90 614l32 2q32 2 84 2q33 0 49 -9.5t16 -36.5q0 -15 -8 -49l-131 -523h-132zM143 941q0 75 24 100t90 25q68 0 90.5 -25t22.5 -100q0 -76 -23 -102t-90 -26q-68 0 -91 25.5t-23 102.5z" />
<glyph unicode="&#x3c;" horiz-adv-x="1374" d="M160 567v138l913 489l60 -123l-815 -437l815 -417l-59 -121z" />
<glyph unicode="=" d="M189 413v131h984v-131h-984zM189 807v130h984v-130h-984z" />
<glyph unicode="&#x3e;" horiz-adv-x="1374" d="M220 219l815 437l-815 417l59 121l914 -471v-138l-913 -489z" />
<glyph unicode="?" horiz-adv-x="1024" d="M201 1389l33 170q187 -25 352.5 -80.5t225.5 -111.5q41 -37 54 -83t13 -134q0 -45 -4 -78.5t-8.5 -61.5t-22 -57t-30.5 -49.5t-50.5 -57.5t-64 -62t-86.5 -80l-110 -100l-22 -192h-123l-20 151q-7 56 31 94l254 262q58 60 72.5 100.5t14.5 106.5q0 67 -6.5 92.5 t-31.5 43.5q-35 26 -171 66.5t-300 60.5zM308 113q0 77 24.5 103t92.5 26q70 0 93 -25.5t23 -103.5q0 -79 -23 -105.5t-93 -26.5t-93.5 26t-23.5 106z" />
<glyph unicode="@" horiz-adv-x="1877" d="M219 606q0 136 13 248t39.5 199t63.5 155t88.5 116.5t110 81.5t132.5 52t152 27.5t173 8.5q78 0 137 -3.5t122 -14t108.5 -29t87.5 -49.5t68 -73.5t41 -103t15 -137.5v-443q0 -231 20 -437l-142 -13l-27 150q-89 -71 -204.5 -118.5t-242.5 -47.5q-352 0 -352 436 q0 122 26.5 205.5t77 127.5t110 62t138.5 18q226 0 437 -82v142q0 161 -94.5 217t-345.5 56q-83 0 -148 -8t-129 -29t-111.5 -56.5t-88.5 -92.5t-67 -134.5t-40.5 -185t-14.5 -242.5q0 -198 32 -337.5t104 -236t190 -142.5t288 -46q172 0 353.5 45.5t337.5 114.5l57 -134 q-148 -76 -358.5 -118t-377.5 -42q-219 0 -367 49t-240 159t-132 275.5t-40 409.5zM792 592q0 -133 51.5 -199.5t166.5 -66.5q214 0 403 145q-6 119 -6 348q-218 59 -409 59q-41 0 -72.5 -7.5t-53 -19.5t-36.5 -33.5t-23.5 -43t-13.5 -54t-6 -60t-1 -68.5z" />
<glyph unicode="A" d="M49 0l501 1530h233l535 -1530h-181l-152 449h-616l-144 -449h-176zM415 592h522q-19 57 -119 350.5t-151 452.5q-45 -161 -139.5 -452.5t-112.5 -350.5z" />
<glyph unicode="B" d="M236 0v1525q298 26 502 26q106 0 182.5 -18t124.5 -50.5t76 -85.5t38.5 -113.5t10.5 -145.5q0 -159 -62 -242t-171 -97v-3q70 -5 122 -24t92.5 -58t61.5 -105t21 -159q0 -109 -24 -189t-65 -129.5t-105 -79.5t-133 -41t-160 -11h-511zM406 142h362q72 0 120.5 12t89 44.5 t60 95t19.5 158.5q0 76 -19 128.5t-55.5 80t-80 39t-102.5 11.5h-394v-569zM406 847h225q101 0 165.5 12t112.5 44.5t69 90.5t21 148v21q0 134 -59.5 190.5t-200.5 56.5q-125 0 -333 -13v-550z" />
<glyph unicode="C" horiz-adv-x="1194" d="M183 735q0 90 2.5 158.5t10 143.5t20.5 130t34.5 111t52 95.5t73 75t97.5 56.5t125.5 33t155.5 12q100 0 212 -14.5t177 -39.5l-45 -158q-194 68 -353 68q-96 0 -161.5 -22t-109.5 -66.5t-68.5 -124.5t-34 -181.5t-9.5 -252.5v-74q0 -121 11 -207.5t37 -156.5t72 -111.5 t115 -63.5t165 -22h9q82 0 179 21t149 42l44 -138q-23 -11 -57.5 -23.5t-125.5 -29t-189 -16.5h-14q-84 0 -153.5 11t-123.5 30.5t-97 51.5t-74 69t-53.5 88t-36.5 103t-22 120t-11 133.5t-3 148.5z" />
<glyph unicode="D" horiz-adv-x="1534" d="M236 0v1521q363 29 541 29q106 0 182 -10t140 -36.5t104 -69.5t68.5 -111.5t40 -160.5t11.5 -218v-155q0 -110 -5 -194t-18 -163t-34.5 -137t-55.5 -108.5t-80.5 -83.5t-109.5 -57.5t-143 -35t-180 -10.5h-461zM406 143h318q71 0 125.5 7.5t98 26t74 43t53 66t35.5 86.5 t21 113t10.5 137t2.5 167v156q0 99 -7 165t-27.5 126t-58.5 93.5t-100 53t-152 19.5q-152 0 -393 -17v-1242z" />
<glyph unicode="E" horiz-adv-x="1195" d="M236 0v1530h867v-148h-697v-528h562v-147h-562v-560h724v-147h-894z" />
<glyph unicode="F" horiz-adv-x="1191" d="M236 0v1530h879v-148h-709v-601h615v-147h-615v-634h-170z" />
<glyph unicode="G" d="M176 709q0 110 4 194t14 168t28 145t46 118t68.5 94.5t94.5 66.5t124 42t158 13q279 0 492 -73l-40 -155q-244 84 -463 84q-54 0 -98.5 -10.5t-78.5 -28t-60 -48.5t-44 -62.5t-30.5 -81t-19.5 -93.5t-11 -109.5t-5 -119t-1 -132.5v-99q0 -85 7 -153.5t21.5 -119t32.5 -88 t46 -62.5t55.5 -41t66.5 -24t74 -11t83 -3q91 0 186.5 19t141.5 41v472h-309v138h476v-685q-50 -39 -197.5 -82t-307.5 -43q-81 0 -148 10t-120 27.5t-94 47t-71 64t-51.5 83t-35 98.5t-21 117t-10.5 132.5t-3 149.5z" />
<glyph unicode="H" horiz-adv-x="1534" d="M236 0v1530h170v-691h723v691h169v-1530h-169v694h-723v-694h-170z" />
<glyph unicode="I" horiz-adv-x="683" d="M257 0v1530h169v-1530h-169z" />
<glyph unicode="J" horiz-adv-x="853" d="M-17 51l49 131q126 -63 254 -63q106 0 149 65.5t43 219.5v1126h168v-1014q0 -78 -2.5 -131t-10.5 -114t-23 -101t-41.5 -79t-64.5 -61.5t-92.5 -36t-125.5 -13.5q-96 0 -177.5 23t-125.5 48z" />
<glyph unicode="K" d="M236 0v1530h170v-718q41 0 59.5 4t44.5 23q85 62 262.5 312t249.5 380h198q-44 -94 -278.5 -410.5t-292.5 -339.5v-9q28 -9 46 -18t64 -51t98 -112l440 -591h-217l-321 454q-140 199 -249 230q-34 10 -104 3v-687h-170z" />
<glyph unicode="L" horiz-adv-x="1026" d="M235 0v1530h170v-1383h606v-147h-776z" />
<glyph unicode="M" horiz-adv-x="2051" d="M126 0l236 1530h261l348 -1130l59 -244l57 245l336 1129h249l247 -1530h-170l-186 1156l-28 270l-61 -272l-345 -1153h-197l-360 1159l-71 266q-36 -286 -114.5 -821.5t-88.5 -604.5h-172z" />
<glyph unicode="N" horiz-adv-x="1536" d="M236 0v1530h135l704 -1112l91 -189l-22 210v1091h155v-1530h-143l-699 1109l-88 172l22 -204v-1077h-155z" />
<glyph unicode="O" horiz-adv-x="1534" d="M185 766q0 81 2 145.5t8 131t16.5 117.5t26.5 101.5t39.5 87.5t54 71t71 57t90 40t111.5 25t135 8h62q88 0 158.5 -11t124.5 -28t95 -51t70 -67t48 -89.5t30.5 -105.5t17 -127.5t7 -142.5t1.5 -164q0 -84 -2.5 -147.5t-9.5 -135t-19 -124.5t-33 -107.5t-50 -93.5 t-70.5 -74t-94 -56t-121.5 -33.5t-152 -12.5h-62q-108 0 -192.5 21t-142.5 54.5t-99 92.5t-64 118t-36 147.5t-16.5 165.5t-3.5 187zM364 658q0 -199 39 -315.5t119.5 -167.5t216.5 -51h60q114 0 183.5 23.5t114 86t61 162t16.5 262.5v108q0 88 -1.5 143.5t-6.5 124.5 t-15.5 111t-27.5 89t-44 73.5t-64.5 50.5t-88 34t-115.5 10h-84q-74 0 -129.5 -14t-94.5 -35.5t-65 -67t-41 -88t-22 -119t-9 -140.5t-2 -172v-108z" />
<glyph unicode="P" d="M236 0v1524q294 27 579 27q126 0 210 -27t129.5 -83t63.5 -127.5t18 -175.5v-118q0 -171 -38 -284t-126 -179q-107 -79 -318 -79q-172 0 -348 27v-505h-170zM406 646q179 -23 352 -23q78 0 130 13t87 39t53.5 75.5t26 111t7.5 156.5v124q0 144 -55.5 204.5t-184.5 60.5 q-279 0 -416 -11v-750z" />
<glyph unicode="Q" horiz-adv-x="1534" d="M185 766q0 81 2 145.5t8 131t16.5 117.5t26.5 101.5t39.5 87.5t54 71t71 57t90 40t111.5 25t135 8h62q88 0 158.5 -11t124.5 -28t95 -51t70 -67t48 -89.5t30.5 -105.5t17 -127.5t7 -142.5t1.5 -164q0 -74 -1.5 -131.5t-7 -121t-14.5 -113t-24 -101t-36 -90t-50.5 -75.5 t-67 -63t-86.5 -45.5t-108 -30.5q123 -148 333 -306l-127 -134q-246 207 -342 428q-4 0 -11 -0.5t-10 -0.5h-62q-108 0 -192.5 21t-142.5 54.5t-99 92.5t-64 118t-36 147.5t-16.5 165.5t-3.5 187zM364 658q0 -199 39 -315.5t119.5 -167.5t216.5 -51h60q114 0 183.5 23.5 t114 86t61 162t16.5 262.5v108q0 88 -1.5 143.5t-6.5 124.5t-15.5 111t-27.5 89t-44 73.5t-64.5 50.5t-88 34t-115.5 10h-84q-74 0 -129.5 -14t-94.5 -35.5t-65 -67t-41 -88t-22 -119t-9 -140.5t-2 -172v-108z" />
<glyph unicode="R" horiz-adv-x="1366" d="M236 0v1525q335 25 546 25h20q101 0 175 -18.5t120.5 -51t74.5 -85.5t38.5 -114t10.5 -143q0 -270 -78 -403t-261 -167q58 -70 126 -173l263 -395h-200l-230 362q-96 146 -142 193h-11q-102 2 -282 9v-564h-170zM406 699q112 -5 330 -5q77 0 131.5 17t89 48.5t54 85.5 t27 117t7.5 154q0 58 -8 103.5t-21 76t-35.5 52t-44.5 33.5t-56 18.5t-61.5 8t-69.5 1.5q-189 0 -343 -11v-699z" />
<glyph unicode="S" horiz-adv-x="1194" d="M85 101l66 140q227 -120 444 -120q91 0 151.5 18t95 55.5t48.5 87.5t14 122v39q0 50 -3.5 81.5t-16 59t-31 43t-54.5 30.5t-79.5 24t-113.5 20q-62 10 -103 17.5t-91.5 20.5t-83.5 28t-69 37.5t-58 52t-41 68t-27.5 88.5t-8.5 112v10q0 116 31.5 197.5t94.5 128.5t147 68 t198 21h13q109 0 223.5 -18t196.5 -56l-52 -153q-83 35 -182 60t-181 25h-9q-96 0 -157.5 -16.5t-94.5 -53t-45.5 -83t-12.5 -117.5v-4q0 -112 39 -165.5t119 -74.5q84 -22 213 -42q168 -27 232 -52q111 -44 151 -147q32 -80 32 -210v-13q0 -127 -35 -216.5t-102 -139.5 t-151 -72t-195 -22q-127 0 -265 28t-247 93z" />
<glyph unicode="T" horiz-adv-x="1024" d="M12 1382v148h1000v-148h-422v-1382h-170v1382h-408z" />
<glyph unicode="U" horiz-adv-x="1534" d="M214 705v825h168v-818q0 -121 5.5 -201.5t21.5 -151t42.5 -111t72 -70t106.5 -40.5t149 -11q61 0 106.5 5.5t84.5 19.5t66 35t48 55.5t34 76t21 102.5t11 129.5t3 161.5v818h168v-812q0 -84 -1 -132.5t-6 -122t-15 -117t-29 -101t-46.5 -91.5t-69 -71.5t-95 -57 t-126 -32.5t-160.5 -13q-117 0 -206 21.5t-148 51.5t-99.5 91t-61 109.5t-31 139t-12 147t-1.5 165.5z" />
<glyph unicode="V" horiz-adv-x="1366" d="M66 1530h184l386 -1165l52 -205l57 205l377 1165h182l-515 -1531h-197z" />
<glyph unicode="W" horiz-adv-x="2044" d="M34 1530h184l296 -1156l52 -244q50 210 112 446.5t136.5 512.5t117.5 441h199q19 -72 157 -601t210 -807l53 256l282 1152h180l-392 -1530h-254l-293 1094l-45 258l-47 -258l-302 -1094h-234z" />
<glyph unicode="X" horiz-adv-x="1360" d="M68 0l487 782l-487 748h194l396 -633l387 633h195l-477 -744l530 -786h-203l-429 661l-402 -661h-191z" />
<glyph unicode="Y" horiz-adv-x="1194" d="M13 1530h186l327 -657l74 -169q53 127 119 266t147.5 302t126.5 258h188l-499 -965l-1 -565h-168l-1 565z" />
<glyph unicode="Z" horiz-adv-x="1194" d="M106 0v85l765 1302h-713v143h922v-88l-762 -1301h756v-141h-968z" />
<glyph unicode="[" horiz-adv-x="851" d="M230 -272v2181h397v-114h-247v-1953l247 -1v-113h-397z" />
<glyph unicode="\" horiz-adv-x="854" d="M6 1867h145l683 -1940h-149z" />
<glyph unicode="]" horiz-adv-x="852" d="M216 -156h247v1953l-247 1v113h397v-2181h-397v114z" />
<glyph unicode="^" horiz-adv-x="1229" d="M150 816l388 753h138l403 -753l-135 -38l-339 633l-324 -633z" />
<glyph unicode="_" horiz-adv-x="854" d="M-7 -185h868v-118h-868v118z" />
<glyph unicode="`" horiz-adv-x="510" d="M9 1714l125 125l325 -353l-83 -87z" />
<glyph unicode="a" d="M175 365q0 195 82.5 285.5t279.5 90.5q209 0 433 -76v130q0 148 -77.5 209t-234.5 61q-169 0 -355 -68l-37 144q25 16 150.5 42.5t241.5 26.5q244 0 360 -96.5t116 -318.5v-373q0 -200 19 -414l-148 -12l-25 139q-76 -62 -210.5 -108.5t-258.5 -46.5q-55 0 -98 7t-90 31 t-77.5 64.5t-50.5 112.5t-20 170zM345 348q0 -121 45.5 -174t154.5 -53q110 0 227 40.5t200 104.5q-6 106 -6 274q-229 59 -432 59q-52 0 -88 -13t-56 -32t-30 -55t-12.5 -67.5t-2.5 -83.5z" />
<glyph unicode="b" d="M217 0v1702l166 16v-642q204 134 400 134q71 0 126.5 -9t96.5 -33.5t69.5 -49.5t47.5 -74.5t29.5 -90t16 -115t6.5 -131t1 -154.5v-80q0 -53 -2.5 -93t-12 -94.5t-26.5 -94t-48.5 -82t-75.5 -69t-110 -43.5t-149 -17q-190 0 -373 131l-21 -111h-141zM383 242 q211 -115 357 -115h12q41 0 73 5t57.5 12.5t44.5 23.5t33 32.5t23 44.5t14.5 53.5t8 66.5t3.5 77t1 90v144q0 152 -22 232t-72.5 112.5t-146.5 32.5h-25q-85 0 -188.5 -35t-172.5 -74v-702z" />
<glyph unicode="c" horiz-adv-x="1196" d="M186 600q0 52 1 89.5t5 87t12 86t20.5 79.5t32.5 74t46.5 63.5t64 54.5t83.5 40.5t105.5 27t129.5 8.5q107 0 211.5 -23t146.5 -48l-50 -148q-186 74 -343 74q-75 0 -127 -18.5t-85 -52.5t-51.5 -94.5t-25 -131.5t-6.5 -176q0 -69 1.5 -115t8 -100t18.5 -88t32.5 -68.5 t50.5 -53.5t73 -31t99 -12q87 0 177 16t137 32l47 16l50 -135q-5 -3 -15.5 -8t-46.5 -17.5t-76.5 -22t-106.5 -17.5t-136 -8q-142 0 -232.5 30.5t-153.5 104.5q-97 113 -97 485z" />
<glyph unicode="d" d="M189 553v6q0 93 1 138.5t5 122t14.5 114t28.5 92t47.5 80.5t70.5 54t98.5 39t130.5 11q232 0 399 -73v565l166 16v-1171q0 -325 19 -539l-149 -12l-24 137q-79 -59 -189.5 -106t-239.5 -47q-65 0 -117.5 12t-90.5 37t-66.5 55t-47 74t-30 85.5t-17 98t-7.5 103t-2 108.5z M359 532q0 -225 51 -313.5t195 -88.5h15q89 0 195 41.5t173 94.5v2q-5 92 -5 287l1 445q-182 60 -348 60q-37 0 -61 -1t-51.5 -5.5t-44 -11.5t-35.5 -21t-29 -33t-21.5 -47.5t-16.5 -64t-10 -84.5t-6.5 -106.5t-1.5 -131.5v-22z" />
<glyph unicode="e" d="M189 600v51q0 164 32 273t101 172t163 88.5t233 25.5q96 0 168 -15t121 -46.5t81 -72t49 -100t23.5 -121t6.5 -144.5q0 -100 -6 -172q-125 -6 -414 -6q-248 0 -388 22q0 -91 7 -153t27 -119t56.5 -89.5t97 -51.5t146.5 -19q221 0 413 83l49 -143q-22 -9 -62.5 -23 t-160 -37t-234.5 -23q-151 0 -250.5 31t-161.5 104q-97 116 -97 485zM359 672h639v96q0 157 -64 228t-232 71q-200 0 -271.5 -85t-71.5 -310z" />
<glyph unicode="f" horiz-adv-x="854" d="M102 1051v123l197 16q-3 8 -10.5 42.5t-17 96t-9.5 107.5q0 284 332 284q121 0 227 -26l-30 -149q-134 31 -212 31q-74 0 -113 -35t-39 -114q0 -118 37 -237h283v-139h-285v-1051h-161v1051h-199z" />
<glyph unicode="g" d="M189 553v6q0 93 1 138.5t5 122t14.5 114t28.5 92t47.5 80.5t70.5 54t98.5 39t130.5 11q196 0 404 -102l16 82h144l1 -1168q0 -128 -23.5 -218.5t-77.5 -154.5t-144 -94.5t-221 -30.5q-135 0 -248 25t-167 53l52 141q3 -1 22 -8t31.5 -11.5t38 -13t46 -14t51 -12 t58.5 -10.5t62.5 -7t67.5 -3q90 0 146.5 20t87 67t41.5 108t11 160v95q-189 -134 -404 -134q-77 0 -137 17.5t-100.5 44.5t-70 72.5t-45 90t-24.5 108.5t-11.5 116t-2.5 124zM359 532q0 -222 55.5 -312t200.5 -90h15q90 0 188.5 35.5t165.5 83.5v721q-75 37 -169 63.5 t-179 26.5q-37 0 -61 -1t-51.5 -5.5t-44 -11.5t-35.5 -21t-29 -33t-21.5 -47.5t-16.5 -64t-10 -84.5t-6.5 -106.5t-1.5 -131.5v-22z" />
<glyph unicode="h" d="M224 0v1702l162 16v-651q62 51 169.5 97t239.5 46q106 0 173 -19.5t107.5 -67t56.5 -117t16 -177.5v-829h-168v799q0 73 -7 117.5t-28 78t-59.5 47t-100.5 13.5q-98 0 -202 -31t-193 -84v-940h-166z" />
<glyph unicode="i" horiz-adv-x="683" d="M226 1598q0 71 25.5 95.5t90.5 24.5q66 0 90 -24t24 -96q0 -73 -24 -98t-90 -25q-67 0 -91.5 25t-24.5 98zM261 1190h164v-1190h-162z" />
<glyph unicode="j" horiz-adv-x="683" d="M8 -440l45 123q32 -8 52 -12.5t44.5 -7t39 0t30 10.5t23.5 23t13 38.5t5 56.5v1398h161v-1383q0 -63 -9.5 -110t-33 -88t-70 -62.5t-114.5 -21.5q-58 0 -104.5 8.5t-63.5 17.5zM223 1598q0 71 25.5 95.5t90.5 24.5q66 0 90 -24t24 -96q0 -73 -24 -98t-90 -25 q-67 0 -91.5 25t-24.5 98z" />
<glyph unicode="k" horiz-adv-x="1192" d="M220 0v1698l166 18v-1032q23 -4 50 10q71 35 226.5 209.5t233.5 286.5h198q-24 -52 -128.5 -174t-215.5 -231t-152 -125v-10q1 -1 12 -6t14.5 -7t15 -8.5t18.5 -12t20 -15.5t24.5 -22t26.5 -28t32.5 -36.5t36.5 -44.5l373 -470h-210l-254 333q-158 208 -249 234 q-16 5 -38.5 6t-33.5 0v-573h-166z" />
<glyph unicode="l" horiz-adv-x="683" d="M259 1700l165 14v-1714h-163z" />
<glyph unicode="m" horiz-adv-x="2047" d="M225 0v1190h146l16 -123q180 143 392 143q125 0 196 -35.5t103 -116.5q107 72 205.5 112t214.5 40q189 0 260 -84.5t71 -296.5v-829h-168v798q0 73 -7 117.5t-28 78t-59.5 47t-100.5 13.5q-78 0 -175 -33.5t-186 -85.5q5 -53 5 -106v-829h-168v798q0 73 -7 117.5t-28 78 t-59.5 47t-100.5 13.5q-165 0 -356 -115v-939h-166z" />
<glyph unicode="n" d="M223 0v1190h146l16 -123q65 52 172.5 97.5t239.5 45.5q104 0 171.5 -19.5t108 -67t56.5 -117t16 -177.5v-829h-168v798q0 73 -7 117.5t-28 78t-59.5 47t-100.5 13.5q-199 0 -397 -115v-939h-166z" />
<glyph unicode="o" horiz-adv-x="1363" d="M188 592q0 73 2 127t8.5 112t18 99.5t30.5 83.5t46 70.5t64.5 54t86.5 40t111.5 23t139.5 8.5q98 0 172.5 -14.5t125.5 -37t85.5 -67.5t53.5 -86.5t28.5 -115t12 -132t2.5 -157.5q0 -95 -4.5 -165t-17.5 -138.5t-36.5 -115t-60 -87t-89 -64.5t-124 -37t-164.5 -13 q-67 0 -123 6t-101 19.5t-81 31t-63 44.5t-46.5 55t-33.5 68.5t-22.5 79t-13 92t-6 102t-1.5 114.5zM357 618q0 -65 1 -106.5t4.5 -91.5t10 -81t18 -66.5t28.5 -56t41 -41t56.5 -31t73.5 -17t93 -6.5q56 0 99 6t76.5 21.5t57 34t40 52t26 67.5t15 87.5t7 104.5t1.5 127 q0 75 -2 122t-8.5 100t-19.5 83.5t-35.5 61t-56 45.5t-80.5 24.5t-110 9.5q-67 0 -117 -9.5t-86 -25t-60 -45.5t-38.5 -61.5t-22 -83.5t-10 -101t-2.5 -123z" />
<glyph unicode="p" d="M217 -455v1645h135l19 -123q70 53 193 98t251 45q65 0 117.5 -11t89 -36t64 -51t44 -71.5t26.5 -81t14 -95t5 -98.5t1 -106v-23q0 -67 -1 -112t-4 -103t-9.5 -96.5t-17 -85t-26.5 -76.5t-38.5 -62.5t-53 -52.5t-68.5 -37t-87.5 -24.5t-108.5 -7.5q-209 0 -379 91v-526 h-166zM383 208q62 -29 159.5 -53.5t197.5 -24.5q62 0 104.5 9.5t73 36.5t47.5 60.5t26.5 97t12 129.5t2.5 173v22q0 78 -3 131.5t-12 101t-24.5 76t-41 50t-61 30t-84.5 8.5h-15q-93 0 -206 -35t-176 -81v-731z" />
<glyph unicode="q" d="M189 553v6q0 93 1 138.5t5 122t14.5 114t28.5 92t47.5 80.5t70.5 54t98.5 39t130.5 11q196 0 404 -102l16 82h144l1 -1645h-166v569q-189 -134 -404 -134q-77 0 -137 17.5t-100.5 44.5t-70 72.5t-45 90t-24.5 108.5t-11.5 116t-2.5 124zM359 532q0 -222 55.5 -312 t200.5 -90h15q90 0 188.5 35.5t165.5 83.5v721q-75 37 -169 63.5t-179 26.5q-37 0 -61 -1t-51.5 -5.5t-44 -11.5t-35.5 -21t-29 -33t-21.5 -47.5t-16.5 -64t-10 -84.5t-6.5 -106.5t-1.5 -131.5v-22z" />
<glyph unicode="r" horiz-adv-x="854" d="M223 0v1190h146l16 -158q3 6 9.5 15t27.5 34t43 46t55 42t65 30q43 11 92 11q20 0 47 -4.5t44 -9.5l16 -4l-15 -159q-49 12 -119 12q-129 0 -261 -128v-917h-166z" />
<glyph unicode="s" horiz-adv-x="1194" d="M153 98l72 138q203 -115 414 -115q119 0 166 52.5t47 168.5q0 26 -2.5 46.5t-6 37t-12.5 28.5t-16.5 21t-23.5 16t-29 11t-37.5 9t-43.5 8t-53.5 8t-60.5 10q-58 10 -94 17.5t-81 21t-71.5 28.5t-54.5 39.5t-42.5 55t-23.5 73t-8 96.5v25q0 323 379 317 q123 -1 233.5 -20.5t180.5 -48.5l-47 -151q-73 31 -187 56t-195 25q-105 0 -151 -36t-47 -142q-1 -62 15 -99t39.5 -52t65.5 -27q49 -14 108 -24.5t102.5 -15.5t91.5 -14t82.5 -20.5t66.5 -34t51.5 -56t30.5 -85.5t10 -122q-1 -91 -23.5 -157.5t-58 -105.5t-91.5 -62 t-113 -30.5t-133 -7.5q-123 0 -243 33.5t-206 84.5z" />
<glyph unicode="t" horiz-adv-x="854" d="M72 1051v123l144 16l26 272h139v-272h347v-139h-347v-706q0 -63 3.5 -97t18 -65.5t44.5 -44t80 -12.5q96 0 225 61l57 -130q-164 -77 -301 -77q-172 0 -241 100q-33 50 -42 106.5t-9 155.5v709h-144z" />
<glyph unicode="u" d="M215 361v829h168v-802q0 -73 7 -117.5t28 -78t59.5 -47t100.5 -13.5q90 0 194 33.5t189 92.5v1q-4 76 -4 296v635h166v-666q0 -310 19 -516l-149 -12l-24 141q-40 -33 -93 -65t-140 -62t-169 -30q-104 0 -171.5 19.5t-108 67t-56.5 117t-16 177.5z" />
<glyph unicode="v" horiz-adv-x="1193" d="M82 1190h179l312 -971l30 -99q61 210 179.5 594t146.5 476h181l-402 -1190h-218z" />
<glyph unicode="w" horiz-adv-x="1875" d="M93 1190h178l252 -874l45 -191l33 160l260 905h164l256 -874l44 -193l32 163l248 904h180l-352 -1190h-219l-228 763l-46 234l-41 -234l-227 -763h-209z" />
<glyph unicode="x" horiz-adv-x="1193" d="M88 0l394 603l-382 587h194l296 -481l301 481h191l-388 -582l411 -608h-192l-324 495l-318 -495h-183z" />
<glyph unicode="y" horiz-adv-x="1192" d="M73 1190h185l310 -877l47 -154q58 206 176.5 583t140.5 448h174l-502 -1472q-56 -172 -254 -172q-126 0 -198 36l45 130q74 -26 154 -26q78 0 111 81q37 91 70 218z" />
<glyph unicode="z" horiz-adv-x="1024" d="M93 1052v138h824v-113l-607 -938h632v-139h-836v113l609 939h-622z" />
<glyph unicode="{" horiz-adv-x="851" d="M21 758v158q106 25 155 47t67 54t18 92v535q0 146 59 206q61 61 196 61q77 0 138 -15l-16 -116q-64 9 -109 9q-63 0 -90.5 -27.5t-27.5 -98.5v-556q0 -40 -3.5 -67.5t-18 -61.5t-41.5 -58t-77.5 -46.5t-121.5 -36.5q71 -14 121.5 -36.5t77.5 -46.5t41.5 -58t18 -61.5 t3.5 -67.5v-588q0 -71 27.5 -98.5t90.5 -27.5q45 0 109 9l16 -116q-61 -15 -138 -15q-135 0 -196 61q-59 60 -59 206v561q0 60 -18 93t-68 57.5t-154 48.5z" />
<glyph unicode="|" horiz-adv-x="854" d="M352 -178v2178h150v-2178h-150z" />
<glyph unicode="}" horiz-adv-x="852" d="M189 -254l16 116q65 -9 109 -9q64 0 91 27.5t27 98.5v588q0 40 3.5 67.5t18 61.5t41.5 58t77.5 46.5t121.5 36.5q-71 14 -121.5 36.5t-77.5 46.5t-41.5 58t-18 61.5t-3.5 67.5v556q0 71 -27 98.5t-91 27.5q-44 0 -109 -9l-16 116q61 15 138 15q135 0 196 -61 q59 -60 59 -206v-535q0 -60 18 -92t67 -54t155 -47v-158q-104 -24 -154 -48.5t-68 -57.5t-18 -93v-561q0 -146 -59 -206q-61 -61 -196 -61q-77 0 -138 15z" />
<glyph unicode="~" horiz-adv-x="1535" d="M156 528q137 265 376 265q56 0 110.5 -18t98 -44t85 -52t87.5 -44t90 -18q76 0 143 47t133 139l99 -83q-41 -81 -92 -137t-103.5 -82t-95 -36.5t-86.5 -10.5q-57 0 -111 18t-96.5 44t-84 52.5t-88 44.5t-91.5 18q-76 0 -142.5 -47t-132.5 -139z" />
<glyph unicode="&#xa1;" horiz-adv-x="512" d="M139 1078q0 79 23 105.5t93 26.5t93.5 -26t23.5 -106q0 -77 -24.5 -103t-92.5 -26q-70 0 -93 25.5t-23 103.5zM168 -339l24 1118h131l33 -1118h-188z" />
<glyph unicode="&#xa2;" horiz-adv-x="1202" d="M158 686q0 45 1 78.5t5.5 77.5t12 77t22 71.5t34 66.5t49 57t66.5 48.5t87.5 35t110.5 22.5v320h140v-315q100 -3 195.5 -25t134.5 -45l-50 -148q-186 74 -343 74q-75 0 -127 -16t-85 -45t-51.5 -80.5t-25 -112t-6.5 -149.5q0 -48 1 -80.5t4.5 -70.5t10.5 -62.5t19 -52 t29.5 -44.5t42 -33.5t57 -25t74.5 -14t94 -5.5q65 0 142 16t122 32l45 16l53 -135q-5 -3 -14 -7.5t-41 -16t-68 -20.5t-93.5 -18t-119.5 -11v-314h-140v317q-193 16 -291 132q-56 59 -76.5 154.5t-20.5 250.5z" />
<glyph unicode="&#xa3;" horiz-adv-x="1194" d="M201 0v146h133l86 548h-219v145h203q-124 163 -124 341q0 172 111.5 269.5t348.5 97.5q91 0 205.5 -20.5t197.5 -54.5l-55 -150q-53 28 -154.5 56.5t-198.5 28.5q-156 0 -217.5 -54t-61.5 -196q0 -89 39 -179.5t90 -138.5h435v-145h-435l-87 -547h645v-147h-942z" />
<glyph unicode="&#xa4;" horiz-adv-x="1533" d="M211 1250l87 88l227 -227l-2 -2q90 39 253 39q153 0 236 -34l225 226l85 -85l-214 -214q35 -47 46.5 -119t11.5 -189q0 -211 -72 -306l225 -224l-88 -87l-235 234q-86 -40 -232 -40q-148 0 -234 39l-230 -231l-87 87l221 218q-68 90 -68 304q0 111 13 185t48 122z M495 748q0 -187 55.5 -254.5t216.5 -67.5q86 0 137 14.5t81.5 54.5t40.5 98.5t10 157.5q0 86 -10.5 137.5t-41 85t-79.5 45.5t-130 12q-168 0 -224 -57t-56 -226z" />
<glyph unicode="&#xa5;" horiz-adv-x="1194" d="M65 1530h184l355 -712h2l345 712h187l-372 -712h307v-135h-945v135h312zM128 367v135h945v-135h-391v-367h-171v367h-383z" />
<glyph unicode="&#xa6;" horiz-adv-x="854" d="M352 -178v932h150v-932h-150zM352 1068v932h150v-932h-150z" />
<glyph unicode="&#xa7;" horiz-adv-x="1229" d="M153 -121l72 138q203 -115 414 -115q119 0 166 52.5t47 168.5q0 26 -2.5 46.5t-6 36.5t-12 28t-16.5 20.5t-24 15.5t-29 11t-37.5 8.5t-44 7.5t-53 8t-60.5 10l-47 8q-48 6 -97 22q-57 15 -97.5 36t-71.5 54.5t-46.5 84t-15.5 119.5v35q0 45 9.5 81.5t23.5 61t38.5 47.5 t43.5 36t51 31q-84 31 -125 92t-41 174v35q0 317 365 317h14q121 0 232 -19.5t182 -49.5l-47 -151q-73 31 -187 56t-195 25q-106 0 -152 -36t-46 -142v-8q0 -85 28.5 -117.5t91.5 -50.5q61 -17 140.5 -30t131.5 -19t108 -25t88.5 -49.5t53.5 -90.5t21 -149v-11 q0 -100 -32.5 -160t-91.5 -107q-3 -3 -9 -7q66 -29 99.5 -92t33.5 -181v-11q0 -91 -22 -157.5t-57.5 -105.5t-92 -62t-113.5 -30.5t-134 -7.5q-123 0 -243 33.5t-206 84.5zM358 666q0 -45 8 -76.5t25.5 -51t37 -30.5t49.5 -20q45 -13 90 -21t108.5 -16t77.5 -10q56 24 77 84 t21 156q0 39 -3.5 66t-17.5 46.5t-25.5 31t-43.5 21t-55 14t-75 12.5q-42 7 -65 11l-70 12q-70 -18 -104.5 -77.5t-34.5 -151.5z" />
<glyph unicode="&#xa8;" horiz-adv-x="1139" d="M232 1598q0 67 23.5 90.5t85.5 23.5q63 0 85 -23t22 -91q0 -69 -22 -93t-85 -24t-86 23.5t-23 93.5zM690 1598q0 67 23.5 90.5t85.5 23.5q63 0 86 -23t23 -91q0 -69 -23 -93t-86 -24t-86 23.5t-23 93.5z" />
<glyph unicode="&#xa9;" horiz-adv-x="1707" d="M193 835q0 85 1.5 135t7.5 120.5t18 111.5t34.5 94t56 83t82 63t112.5 49.5t149.5 27.5t190.5 11q110 0 197.5 -9.5t154 -23t116 -45t83.5 -57t56.5 -79.5t34.5 -92t18 -114t7 -126.5t1 -148.5q0 -103 -2 -157t-14.5 -136.5t-37.5 -126t-73 -98t-118.5 -80.5t-176 -45 t-244.5 -19q-134 0 -237.5 20.5t-172 50t-116.5 84.5t-72.5 102t-37.5 126t-15.5 133.5t-2.5 145.5zM319 832q0 -106 9 -181.5t32 -138.5t60 -102.5t97 -67t140.5 -39t191.5 -11.5q120 0 203 10t144.5 37t97 64t57 102t28.5 139t7 186q0 101 -3.5 170.5t-14.5 133t-27 103 t-47 73t-67.5 51t-95 30t-124 16.5t-158.5 4q-118 0 -193.5 -7.5t-139.5 -31.5t-98.5 -61t-58.5 -105.5t-32 -155.5t-8 -218zM539 854q0 59 6 104.5t27.5 95.5t58.5 82.5t103 54t157 21.5q148 0 252 -52l-50 -124q-36 19 -94.5 34.5t-114.5 15.5q-119 0 -156 -48.5 t-37 -188.5q0 -66 4.5 -103t21 -71t51 -48t92.5 -14q60 0 119 10.5t88 20.5l29 11l37 -110q-118 -55 -279 -55q-165 0 -240 83t-75 281z" />
<glyph unicode="&#xaa;" horiz-adv-x="1024" d="M114 916q0 153 66 228.5t216 75.5q146 0 309 -61v78q0 105 -55 143.5t-171 38.5q-125 0 -267 -51l-30 128q19 13 114 33.5t183 20.5q189 0 283.5 -73.5t94.5 -239.5v-278q0 -144 15 -312l-140 -8l-19 103q-58 -47 -154.5 -80.5t-189.5 -33.5q-42 0 -74 5t-68 22.5 t-59 47.5t-38.5 84.5t-15.5 128.5zM273 904q0 -86 31 -120t111 -34q74 0 152.5 29t139.5 75q-5 83 -5 200q-153 41 -296 41q-37 0 -62.5 -10t-39.5 -24.5t-21 -42t-8.5 -51t-1.5 -63.5z" />
<glyph unicode="&#xab;" horiz-adv-x="1533" d="M169 516v132l465 434l91 -86l-389 -412l391 -402l-83 -93zM778 516v132l465 434l91 -86l-389 -412l391 -402l-83 -93z" />
<glyph unicode="&#xac;" d="M168 775v122h1028v-512h-129v390h-899z" />
<glyph unicode="&#xad;" horiz-adv-x="1229" />
<glyph unicode="&#xae;" horiz-adv-x="1707" d="M193 835q0 85 1.5 135t7.5 120.5t18 111.5t34.5 94t56 83t82 63t112.5 49.5t149.5 27.5t190.5 11q110 0 197.5 -9.5t154 -23t116 -45t83.5 -57t56.5 -79.5t34.5 -92t18 -114t7 -126.5t1 -148.5q0 -103 -2 -157t-14.5 -136.5t-37.5 -126t-73 -98t-118.5 -80.5t-176 -45 t-244.5 -19q-134 0 -237.5 20.5t-172 50t-116.5 84.5t-72.5 102t-37.5 126t-15.5 133.5t-2.5 145.5zM319 832q0 -106 9 -181.5t32 -138.5t60 -102.5t97 -67t140.5 -39t191.5 -11.5q91 0 159.5 5.5t124.5 20.5t94.5 34.5t67.5 53.5t46 72.5t27.5 96t14 118.5t3.5 147 q0 99 -3.5 167.5t-15 130.5t-28 101t-47 72t-67.5 50.5t-95 29.5t-123 16t-158 4q-118 0 -193.5 -7.5t-139.5 -31.5t-98.5 -61t-58.5 -105.5t-32 -155.5t-8 -218zM559 509v681q210 15 355 15q150 0 204.5 -45t54.5 -140q0 -131 -41 -191t-147 -75q34 -36 60 -68l142 -177 h-150l-130 163q-60 72 -65 77q-89 2 -154 5v-245h-129zM688 858q60 -2 164 -2q121 0 153.5 23.5t32.5 116.5q0 33 -10 53.5t-32.5 30t-46 12t-62.5 2.5q-93 0 -199 -7v-229z" />
<glyph unicode="&#xaf;" horiz-adv-x="856" d="M128 1528v135h599v-135h-599z" />
<glyph unicode="&#xb0;" horiz-adv-x="1025" d="M219 1407q0 124 83.5 207.5t210.5 83.5q131 0 212 -82t81 -209q0 -122 -85.5 -206t-207.5 -84q-127 0 -210.5 83.5t-83.5 206.5zM346 1407q0 -72 45.5 -118.5t121.5 -46.5q73 0 119 46.5t46 118.5q0 76 -43.5 122.5t-121.5 46.5q-75 0 -121 -47.5t-46 -121.5z" />
<glyph unicode="&#xb1;" horiz-adv-x="1533" d="M180 673v133h514v513h142v-513h515v-133h-515v-408h-142v408h-514zM209 1v133h1112v-133h-1112z" />
<glyph unicode="&#xb2;" horiz-adv-x="1025" d="M139 1712q47 34 141.5 64t198.5 30q63 0 117 -10.5t103.5 -35.5t77.5 -73t28 -115t-29.5 -132.5t-91 -132.5t-132 -127t-175.5 -137l-18 -11l480 1v-133h-670l-15 113q78 54 159.5 122t156 143t121.5 149t47 127q0 36 -14 60t-41 35.5t-55.5 15.5t-67.5 4q-66 0 -137 -24 t-125 -59z" />
<glyph unicode="&#xb3;" horiz-adv-x="1025" d="M141 943l41 131q151 -67 312 -67q99 0 141.5 37t42.5 130q0 35 -11.5 60t-27 37.5t-42 19.5t-44 8t-45.5 1q-65 0 -198 -20l-16 117q135 18 215 45t109.5 58.5t29.5 74.5q0 33 -15 54.5t-44 30.5t-55.5 12t-66.5 3q-71 0 -146.5 -21.5t-113.5 -43.5l-57 109 q120 87 332 87q55 0 107 -10.5t99.5 -33t76.5 -63.5t29 -96q0 -179 -186 -226q121 0 171 -52t50 -164q0 -75 -26.5 -130t-74.5 -86.5t-107.5 -46t-131.5 -14.5q-192 0 -348 59z" />
<glyph unicode="&#xb4;" horiz-adv-x="510" d="M26 1486l323 351l130 -121l-370 -317z" />
<glyph unicode="&#xb6;" horiz-adv-x="1704" d="M255 1031q0 499 608 499h533v-1530l-170 1v1376l-200 -14v-1363h-170v510q-281 -27 -441 111t-160 410z" />
<glyph unicode="&#xb7;" horiz-adv-x="512" d="M139 613q0 77 24.5 103t92.5 26q70 0 93 -25.5t23 -103.5q0 -79 -23 -105.5t-93 -26.5t-93.5 26t-23.5 106z" />
<glyph unicode="&#xb8;" horiz-adv-x="511" d="M71 -409l25 128q45 -10 84 -10q45 0 73 22t28 66q0 90 -107 204l1 10l72 37q89 -53 131.5 -128.5t42.5 -148.5q0 -96 -56.5 -147.5t-159.5 -51.5q-83 0 -134 19z" />
<glyph unicode="&#xb9;" horiz-adv-x="683" d="M90 1737l356 56v-892h-151v743l-185 -31z" />
<glyph unicode="&#xba;" horiz-adv-x="1194" d="M211 1086q0 70 3 119t12.5 101t26.5 86t46.5 66.5t71 50.5t101 29t136.5 11t135 -11.5t98 -28.5t67 -51t42 -65t22.5 -86.5t9 -98.5t1.5 -116q0 -100 -7.5 -166t-31 -127.5t-66 -96t-112.5 -54.5t-171 -20q-58 0 -106 6.5t-85 17.5t-65.5 30t-49 40t-34.5 52.5t-22.5 62 t-13.5 74t-6.5 82.5t-1.5 93zM369 1106v-28q0 -60 0.5 -88.5t4.5 -73t12.5 -64t25 -45.5t41 -36.5t61 -18.5t85.5 -8t84 7.5t59.5 17t40 36.5t24.5 47t13 68t4.5 80t0.5 102v7v24q0 55 -0.5 80.5t-4.5 65.5t-12 57t-23.5 40.5t-39 33t-57.5 16.5t-81 7q-70 0 -116 -15 t-70.5 -34t-36 -68.5t-13.5 -86t-2 -118.5v-5z" />
<glyph unicode="&#xbb;" horiz-adv-x="1529" d="M186 993l83 93l475 -427v-132l-465 -434l-91 86l389 412zM802 993l83 93l475 -427v-132l-465 -434l-91 86l389 412z" />
<glyph unicode="&#xbc;" horiz-adv-x="1705" d="M21 1477l356 56v-892h-151v743l-185 -31zM208 0l857 1531h152l-860 -1531h-149zM831 217v102l476 586h209v-562h141v-111l-141 -13v-220h-151v218h-534zM1007 343h357v432q-35 -40 -189 -227z" />
<glyph unicode="&#xbd;" horiz-adv-x="1875" d="M96 1477l356 56v-892h-151v743l-185 -31zM272 0l857 1531h152l-860 -1531h-149zM1048 812q47 34 141.5 64t198.5 30q63 0 117 -10.5t103.5 -35.5t77.5 -73t28 -115t-29.5 -132.5t-91 -132.5t-132 -127t-175.5 -137l-18 -11l480 1v-133h-670l-15 113q78 54 159.5 122 t156 143t121.5 149t47 127q0 36 -14 60t-41 35.5t-55.5 15.5t-67.5 4q-66 0 -137 -24t-125 -59z" />
<glyph unicode="&#xbe;" horiz-adv-x="2045" d="M46 687l41 131q151 -67 312 -67q99 0 141.5 37t42.5 130q0 35 -11.5 60t-27 37.5t-42 19.5t-44 8t-45.5 1q-65 0 -198 -20l-16 117q135 18 215 45t109.5 58.5t29.5 74.5q0 27 -11 46t-27 29.5t-42 16t-48 7t-53 1.5q-71 0 -146.5 -21.5t-113.5 -43.5l-57 109 q120 87 332 87q55 0 107 -10.5t99.5 -33t76.5 -63.5t29 -96q0 -179 -186 -226q121 0 171 -52t50 -164q0 -75 -26.5 -130t-74.5 -86.5t-107.5 -46t-131.5 -14.5q-192 0 -348 59zM542 0l857 1531h152l-860 -1531h-149zM1183 217v102l476 586h209v-562h141v-111l-141 -13v-220 h-151v218h-534zM1359 343h357v432q-35 -40 -189 -227z" />
<glyph unicode="&#xbf;" horiz-adv-x="1024" d="M143 40q0 45 4 78.5t8.5 61.5t22 57t30.5 49.5t50.5 57.5t64 62t86.5 80l110 100l22 192h123l20 -151q7 -56 -31 -94l-254 -262q-58 -60 -72.5 -100.5t-14.5 -106.5q0 -67 6.5 -92.5t31.5 -43.5q35 -26 171 -66.5t300 -60.5l-33 -170q-187 25 -352.5 80.5t-225.5 111.5 q-41 37 -54 83t-13 134zM481 1077q0 79 23 105.5t93 26.5t93.5 -26t23.5 -106q0 -77 -24.5 -103t-92.5 -26q-70 0 -93 25.5t-23 103.5z" />
<glyph unicode="&#xc0;" d="M49 0l501 1530h233l535 -1530h-181l-152 449h-616l-144 -449h-176zM353 1836l84 164l421 -259l-50 -92zM415 592h522q-19 57 -119 350.5t-151 452.5q-45 -161 -139.5 -452.5t-112.5 -350.5z" />
<glyph unicode="&#xc1;" d="M49 0l501 1530h233l535 -1530h-181l-152 449h-616l-144 -449h-176zM415 592h522q-19 57 -119 350.5t-151 452.5q-45 -161 -139.5 -452.5t-112.5 -350.5zM457 1741l416 259l93 -159l-459 -192z" />
<glyph unicode="&#xc2;" d="M49 0l501 1530h233l535 -1530h-181l-152 449h-616l-144 -449h-176zM362 1744l224 247h160l233 -248l-77 -80l-237 200l-229 -201zM415 592h522q-19 57 -119 350.5t-151 452.5q-45 -161 -139.5 -452.5t-112.5 -350.5z" />
<glyph unicode="&#xc3;" d="M49 0l501 1530h233l535 -1530h-181l-152 449h-616l-144 -449h-176zM291 1765q53 98 123.5 147t142.5 49h13q44 0 91 -28.5t86 -57t65 -28.5q10 0 19 2t18.5 7.5t17.5 10t18 14.5l16.5 16.5t17.5 19.5t16.5 20t18 22.5t17.5 22.5l87 -56q-99 -230 -266 -230 q-32 0 -68.5 19t-64 41t-61.5 40.5t-62 18.5q-51 0 -174 -113zM415 592h522q-19 57 -119 350.5t-151 452.5q-45 -161 -139.5 -452.5t-112.5 -350.5z" />
<glyph unicode="&#xc4;" d="M49 0l501 1530h233l535 -1530h-181l-152 449h-616l-144 -449h-176zM323 1834q0 67 23.5 90.5t85.5 23.5q63 0 85 -23t22 -91q0 -69 -22 -93t-85 -24t-86 23.5t-23 93.5zM415 592h522q-19 57 -119 350.5t-151 452.5q-45 -161 -139.5 -452.5t-112.5 -350.5zM781 1834 q0 67 23.5 90.5t85.5 23.5q63 0 86 -23t23 -91q0 -47 -10.5 -72t-33 -35t-65.5 -10q-63 0 -86 23.5t-23 93.5z" />
<glyph unicode="&#xc5;" d="M49 0l501 1530h233l535 -1530h-181l-152 449h-616l-144 -449h-176zM415 592h522q-19 57 -119 350.5t-151 452.5q-45 -161 -139.5 -452.5t-112.5 -350.5zM424 1793q0 55 18 96t51 64.5t74 35t92 11.5t92 -11.5t74 -35t51 -64.5t18 -96q0 -102 -65 -151.5t-170 -49.5 t-170 49.5t-65 151.5zM547 1794q0 -95 110 -95t110 95q0 35 -13 57.5t-37 32.5t-60 10q-110 0 -110 -100z" />
<glyph unicode="&#xc6;" horiz-adv-x="1875" d="M47 0l798 1530h939v-148h-646v-528h511v-147h-511v-560h673v-147h-843v420h-516l-213 -420h-192zM524 563h444v874z" />
<glyph unicode="&#xc7;" horiz-adv-x="1194" d="M183 735q0 90 2.5 158.5t10 143.5t20.5 130t34.5 111t52 95.5t73 75t97.5 56.5t125.5 33t155.5 12q100 0 212 -14.5t177 -39.5l-45 -158q-194 68 -353 68q-96 0 -161.5 -22t-109.5 -66.5t-68.5 -124.5t-34 -181.5t-9.5 -252.5v-74q0 -121 11 -207.5t37 -156.5t72 -111.5 t115 -63.5t165 -22h9q82 0 179 21t149 42l44 -138q-13 -6 -33.5 -13.5t-61.5 -20t-100.5 -22t-124.5 -12.5q45 -48 67 -103.5t22 -106.5q0 -96 -56.5 -147.5t-159.5 -51.5q-83 0 -134 19l25 128q45 -10 84 -10q45 0 73 22t28 66q0 83 -90 185q-72 5 -132.5 19.5t-107.5 36 t-84.5 54.5t-64.5 70.5t-46.5 87.5t-31.5 100.5t-19.5 115.5t-10 127.5t-2.5 141.5z" />
<glyph unicode="&#xc8;" horiz-adv-x="1195" d="M236 0v1530h867v-148h-697v-528h562v-147h-562v-560h724v-147h-894zM394 1836l84 164l421 -259l-50 -92z" />
<glyph unicode="&#xc9;" horiz-adv-x="1195" d="M236 0v1530h867v-148h-697v-528h562v-147h-562v-560h724v-147h-894zM454 1741l416 259l93 -159l-459 -192z" />
<glyph unicode="&#xca;" horiz-adv-x="1195" d="M236 0v1530h867v-148h-697v-528h562v-147h-562v-560h724v-147h-894zM381 1744l224 247h160l233 -248l-77 -80l-237 200l-229 -201z" />
<glyph unicode="&#xcb;" horiz-adv-x="1195" d="M236 0v1530h867v-148h-697v-528h562v-147h-562v-560h724v-147h-894zM339 1834q0 67 23.5 90.5t85.5 23.5q63 0 85 -23t22 -91q0 -69 -22 -93t-85 -24t-86 23.5t-23 93.5zM797 1834q0 67 23.5 90.5t85.5 23.5q63 0 86 -23t23 -91q0 -69 -23 -93t-86 -24t-86 23.5t-23 93.5 z" />
<glyph unicode="&#xcc;" horiz-adv-x="683" d="M51 1836l84 164l421 -259l-50 -92zM257 0v1530h169v-1530h-169z" />
<glyph unicode="&#xcd;" horiz-adv-x="683" d="M118 1741l416 259l93 -159l-459 -192zM257 0v1530h169v-1530h-169z" />
<glyph unicode="&#xce;" horiz-adv-x="683" d="M37 1744l224 247h160l233 -248l-77 -80l-237 200l-229 -201zM257 0v1530h169v-1530h-169z" />
<glyph unicode="&#xcf;" horiz-adv-x="683" d="M3 1834q0 67 23.5 90.5t85.5 23.5q63 0 85 -23t22 -91q0 -69 -22 -93t-85 -24t-86 23.5t-23 93.5zM257 0v1530h169v-1530h-169zM461 1834q0 67 23.5 90.5t85.5 23.5q63 0 86 -23t23 -91q0 -69 -23 -93t-86 -24t-86 23.5t-23 93.5z" />
<glyph unicode="&#xd0;" horiz-adv-x="1534" d="M74 699v135h162v686q401 32 596 32q106 0 178 -10t129.5 -39t90.5 -73t55 -120t29.5 -170.5t7.5 -233.5q0 -149 -4.5 -247.5t-18.5 -203t-41.5 -169t-72.5 -125t-112 -92t-160 -50.5t-216 -19h-461v699h-162zM406 148h321q71 0 126 7.5t98 26.5t73.5 44t53 67t35.5 87.5 t21 113.5t10.5 137.5t2.5 167.5v175q0 62 -1.5 102t-6 87t-13.5 75.5t-24 59.5t-37.5 48.5t-54 33t-73.5 21.5t-96 6q-88 0 -435 -22v-551h339v-135h-339v-551z" />
<glyph unicode="&#xd1;" horiz-adv-x="1536" d="M236 0v1530h135l704 -1112l91 -189l-22 210v1091h155v-1530h-143l-699 1109l-88 172l22 -204v-1077h-155zM395 1765q53 98 123.5 147t142.5 49h13q44 0 91 -28.5t86 -57t65 -28.5q10 0 19 2t18.5 7.5t17.5 10t18 14.5l16.5 16.5t17.5 19.5t16.5 20t18 22.5t17.5 22.5 l87 -56q-99 -230 -266 -230q-32 0 -68.5 19t-64 41t-61.5 40.5t-62 18.5q-51 0 -174 -113z" />
<glyph unicode="&#xd2;" horiz-adv-x="1534" d="M185 766q0 81 2 145.5t8 131t16.5 117.5t26.5 101.5t39.5 87.5t54 71t71 57t90 40t111.5 25t135 8h62q88 0 158.5 -11t124.5 -28t95 -51t70 -67t48 -89.5t30.5 -105.5t17 -127.5t7 -142.5t1.5 -164q0 -84 -2.5 -147.5t-9.5 -135t-19 -124.5t-33 -107.5t-50 -93.5 t-70.5 -74t-94 -56t-121.5 -33.5t-152 -12.5h-62q-108 0 -192.5 21t-142.5 54.5t-99 92.5t-64 118t-36 147.5t-16.5 165.5t-3.5 187zM364 658q0 -199 39 -315.5t119.5 -167.5t216.5 -51h60q114 0 183.5 23.5t114 86t61 162t16.5 262.5v108q0 88 -1.5 143.5t-6.5 124.5 t-15.5 111t-27.5 89t-44 73.5t-64.5 50.5t-88 34t-115.5 10h-84q-74 0 -129.5 -14t-94.5 -35.5t-65 -67t-41 -88t-22 -119t-9 -140.5t-2 -172v-108zM494 1836l84 164l421 -259l-50 -92z" />
<glyph unicode="&#xd3;" horiz-adv-x="1534" d="M185 766q0 81 2 145.5t8 131t16.5 117.5t26.5 101.5t39.5 87.5t54 71t71 57t90 40t111.5 25t135 8h62q88 0 158.5 -11t124.5 -28t95 -51t70 -67t48 -89.5t30.5 -105.5t17 -127.5t7 -142.5t1.5 -164q0 -84 -2.5 -147.5t-9.5 -135t-19 -124.5t-33 -107.5t-50 -93.5 t-70.5 -74t-94 -56t-121.5 -33.5t-152 -12.5h-62q-108 0 -192.5 21t-142.5 54.5t-99 92.5t-64 118t-36 147.5t-16.5 165.5t-3.5 187zM364 658q0 -199 39 -315.5t119.5 -167.5t216.5 -51h60q114 0 183.5 23.5t114 86t61 162t16.5 262.5v108q0 88 -1.5 143.5t-6.5 124.5 t-15.5 111t-27.5 89t-44 73.5t-64.5 50.5t-88 34t-115.5 10h-84q-74 0 -129.5 -14t-94.5 -35.5t-65 -67t-41 -88t-22 -119t-9 -140.5t-2 -172v-108zM584 1741l416 259l93 -159l-459 -192z" />
<glyph unicode="&#xd4;" horiz-adv-x="1534" d="M185 766q0 81 2 145.5t8 131t16.5 117.5t26.5 101.5t39.5 87.5t54 71t71 57t90 40t111.5 25t135 8h62q88 0 158.5 -11t124.5 -28t95 -51t70 -67t48 -89.5t30.5 -105.5t17 -127.5t7 -142.5t1.5 -164q0 -84 -2.5 -147.5t-9.5 -135t-19 -124.5t-33 -107.5t-50 -93.5 t-70.5 -74t-94 -56t-121.5 -33.5t-152 -12.5h-62q-108 0 -192.5 21t-142.5 54.5t-99 92.5t-64 118t-36 147.5t-16.5 165.5t-3.5 187zM364 658q0 -199 39 -315.5t119.5 -167.5t216.5 -51h60q114 0 183.5 23.5t114 86t61 162t16.5 262.5v108q0 88 -1.5 143.5t-6.5 124.5 t-15.5 111t-27.5 89t-44 73.5t-64.5 50.5t-88 34t-115.5 10h-84q-74 0 -129.5 -14t-94.5 -35.5t-65 -67t-41 -88t-22 -119t-9 -140.5t-2 -172v-108zM466 1744l224 247h160l233 -248l-77 -80l-237 200l-229 -201z" />
<glyph unicode="&#xd5;" horiz-adv-x="1534" d="M185 766q0 81 2 145.5t8 131t16.5 117.5t26.5 101.5t39.5 87.5t54 71t71 57t90 40t111.5 25t135 8h62q88 0 158.5 -11t124.5 -28t95 -51t70 -67t48 -89.5t30.5 -105.5t17 -127.5t7 -142.5t1.5 -164q0 -84 -2.5 -147.5t-9.5 -135t-19 -124.5t-33 -107.5t-50 -93.5 t-70.5 -74t-94 -56t-121.5 -33.5t-152 -12.5h-62q-108 0 -192.5 21t-142.5 54.5t-99 92.5t-64 118t-36 147.5t-16.5 165.5t-3.5 187zM364 658q0 -199 39 -315.5t119.5 -167.5t216.5 -51h60q114 0 183.5 23.5t114 86t61 162t16.5 262.5v108q0 88 -1.5 143.5t-6.5 124.5 t-15.5 111t-27.5 89t-44 73.5t-64.5 50.5t-88 34t-115.5 10h-84q-74 0 -129.5 -14t-94.5 -35.5t-65 -67t-41 -88t-22 -119t-9 -140.5t-2 -172v-108zM396 1765q53 98 123.5 147t142.5 49h13q44 0 91 -28.5t86 -57t65 -28.5q10 0 19 2t18.5 7.5t17.5 10t18 14.5l16.5 16.5 t17.5 19.5t16.5 20t18 22.5t17.5 22.5l87 -56q-99 -230 -266 -230q-32 0 -68.5 19t-64 41t-61.5 40.5t-62 18.5q-51 0 -174 -113z" />
<glyph unicode="&#xd6;" horiz-adv-x="1534" d="M185 766q0 81 2 145.5t8 131t16.5 117.5t26.5 101.5t39.5 87.5t54 71t71 57t90 40t111.5 25t135 8h62q88 0 158.5 -11t124.5 -28t95 -51t70 -67t48 -89.5t30.5 -105.5t17 -127.5t7 -142.5t1.5 -164q0 -84 -2.5 -147.5t-9.5 -135t-19 -124.5t-33 -107.5t-50 -93.5 t-70.5 -74t-94 -56t-121.5 -33.5t-152 -12.5h-62q-108 0 -192.5 21t-142.5 54.5t-99 92.5t-64 118t-36 147.5t-16.5 165.5t-3.5 187zM364 658q0 -199 39 -315.5t119.5 -167.5t216.5 -51h60q114 0 183.5 23.5t114 86t61 162t16.5 262.5v108q0 88 -1.5 143.5t-6.5 124.5 t-15.5 111t-27.5 89t-44 73.5t-64.5 50.5t-88 34t-115.5 10h-84q-74 0 -129.5 -14t-94.5 -35.5t-65 -67t-41 -88t-22 -119t-9 -140.5t-2 -172v-108zM428 1834q0 67 23.5 90.5t85.5 23.5q63 0 85 -23t22 -91q0 -69 -22 -93t-85 -24t-86 23.5t-23 93.5zM886 1834 q0 67 23.5 90.5t85.5 23.5q63 0 86 -23t23 -91q0 -69 -23 -93t-86 -24t-86 23.5t-23 93.5z" />
<glyph unicode="&#xd7;" horiz-adv-x="1363" d="M203 1038l97 98l376 -375l376 375l94 -94l-376 -376l370 -370l-97 -96l-371 368l-369 -369l-95 93l371 371z" />
<glyph unicode="&#xd8;" horiz-adv-x="1534" d="M185 766q0 103 3.5 180t13.5 156t28.5 135.5t47 110t70 88.5t97.5 62t129 39.5t165 12.5h62q85 0 153 -9q52 153 102 305l133 -26q-55 -153 -110 -308q39 -13 71 -31.5t57.5 -43t45.5 -50.5t35 -62t25.5 -69t18 -80.5t11.5 -88.5t6.5 -99.5t3 -106.5t0.5 -117 q0 -84 -2.5 -147.5t-9.5 -135t-19 -124.5t-33 -107.5t-50 -93.5t-70.5 -74t-94 -56t-121.5 -33.5t-152 -12.5h-62q-103 0 -184 18q-55 -164 -111 -332l-130 24q63 175 124 348q-43 21 -77.5 49.5t-59.5 65t-44.5 76t-32 89.5t-20.5 97.5t-12 109.5t-5.5 116t-1.5 125z M364 658q0 -120 13.5 -209t42 -151.5t73.5 -101.5q215 612 413 1199q-43 7 -95 7h-84q-58 0 -104 -8.5t-82 -21.5t-63 -40t-46 -53t-31.5 -71.5t-20 -85t-11 -104t-4.5 -117t-1 -135.5v-108zM603 140q58 -16 136 -16h60q65 0 113.5 7.5t89 24t68.5 46t48.5 69t32.5 97 t17.5 127.5t5.5 163v108q0 74 -1 122t-4 107.5t-9.5 99.5t-17.5 83.5t-27 73.5t-39 57t-53 45q-207 -587 -420 -1214z" />
<glyph unicode="&#xd9;" horiz-adv-x="1534" d="M214 705v825h168v-818q0 -121 5.5 -201.5t21.5 -151t42.5 -111t72 -70t106.5 -40.5t149 -11q61 0 106.5 5.5t84.5 19.5t66 35t48 55.5t34 76t21 102.5t11 129.5t3 161.5v818h168v-812q0 -84 -1 -132.5t-6 -122t-15 -117t-29 -101t-46.5 -91.5t-69 -71.5t-95 -57 t-126 -32.5t-160.5 -13q-117 0 -206 21.5t-148 51.5t-99.5 91t-61 109.5t-31 139t-12 147t-1.5 165.5zM517 1836l84 164l421 -259l-50 -92z" />
<glyph unicode="&#xda;" horiz-adv-x="1534" d="M214 705v825h168v-818q0 -121 5.5 -201.5t21.5 -151t42.5 -111t72 -70t106.5 -40.5t149 -11q61 0 106.5 5.5t84.5 19.5t66 35t48 55.5t34 76t21 102.5t11 129.5t3 161.5v818h168v-812q0 -84 -1 -132.5t-6 -122t-15 -117t-29 -101t-46.5 -91.5t-69 -71.5t-95 -57 t-126 -32.5t-160.5 -13q-117 0 -206 21.5t-148 51.5t-99.5 91t-61 109.5t-31 139t-12 147t-1.5 165.5zM524 1741l416 259l93 -159l-459 -192z" />
<glyph unicode="&#xdb;" horiz-adv-x="1534" d="M214 705v825h168v-818q0 -121 5.5 -201.5t21.5 -151t42.5 -111t72 -70t106.5 -40.5t149 -11q61 0 106.5 5.5t84.5 19.5t66 35t48 55.5t34 76t21 102.5t11 129.5t3 161.5v818h168v-812q0 -84 -1 -132.5t-6 -122t-15 -117t-29 -101t-46.5 -91.5t-69 -71.5t-95 -57 t-126 -32.5t-160.5 -13q-117 0 -206 21.5t-148 51.5t-99.5 91t-61 109.5t-31 139t-12 147t-1.5 165.5zM458 1744l224 247h160l233 -248l-77 -80l-237 200l-229 -201z" />
<glyph unicode="&#xdc;" horiz-adv-x="1534" d="M214 705v825h168v-818q0 -121 5.5 -201.5t21.5 -151t42.5 -111t72 -70t106.5 -40.5t149 -11q61 0 106.5 5.5t84.5 19.5t66 35t48 55.5t34 76t21 102.5t11 129.5t3 161.5v818h168v-812q0 -84 -1 -132.5t-6 -122t-15 -117t-29 -101t-46.5 -91.5t-69 -71.5t-95 -57 t-126 -32.5t-160.5 -13q-117 0 -206 21.5t-148 51.5t-99.5 91t-61 109.5t-31 139t-12 147t-1.5 165.5zM431 1834q0 67 23.5 90.5t85.5 23.5q63 0 85 -23t22 -91q0 -69 -22 -93t-85 -24t-86 23.5t-23 93.5zM889 1834q0 67 23.5 90.5t85.5 23.5q63 0 86 -23t23 -91 q0 -69 -23 -93t-86 -24t-86 23.5t-23 93.5z" />
<glyph unicode="&#xdd;" horiz-adv-x="1194" d="M13 1530h186l327 -657l74 -169q53 127 119 266t147.5 302t126.5 258h188l-499 -965l-1 -565h-168l-1 565zM385 1741l416 259l93 -159l-459 -192z" />
<glyph unicode="&#xde;" d="M236 0v1530h170v-259q218 20 409 20q126 0 210 -27t129.5 -83t63.5 -127.5t18 -175.5q0 -219 -34 -347.5t-131 -201.5q-109 -80 -317 -80q-172 0 -348 27v-276h-170zM406 417q155 -20 341 -20q54 0 94 5t72.5 18.5t54.5 31t38 48.5t25 64t14.5 85.5t7 104t1.5 128.5 q0 143 -56.5 203.5t-186.5 60.5q-177 0 -405 -20v-709z" />
<glyph unicode="&#xdf;" horiz-adv-x="1533" d="M259 0v1120q0 92 4 157.5t15.5 133.5t32.5 113t56 86t85.5 64.5t120.5 37t161 13.5q113 0 192.5 -17.5t129 -48.5t77.5 -84.5t38 -115t10 -150.5q0 -202 -161 -324q-23 -17 -55 -38.5t-46 -31.5t-25 -25.5t-11 -33.5q0 -40 26.5 -59t94.5 -37q36 -11 101 -29 q71 -19 103.5 -29.5t80 -30.5t67.5 -40.5t43 -54.5t30.5 -79.5t7.5 -107.5v-12q0 -98 -22 -171t-57.5 -115.5t-89 -68t-106.5 -34t-121 -8.5q-217 0 -401 82l68 139q174 -80 347 -80q118 0 165.5 64.5t47.5 196.5q0 53 -5.5 80.5t-28 52t-60.5 39t-111 32.5 q-140 32 -215 68.5t-102.5 80t-27.5 111.5q0 40 14.5 75t42 63t51.5 47.5t59 43.5t49 35q20 16 33.5 30.5t22 35t13 33.5t6.5 44.5t2 47v59.5q0 81 -21 126.5t-82.5 70.5t-175.5 25q-60 0 -105.5 -9t-78.5 -25t-56 -45.5t-36.5 -62t-21 -83.5t-10 -101t-2.5 -123v-1133h-163 z" />
<glyph unicode="&#xe0;" d="M175 365q0 195 82.5 285.5t279.5 90.5q209 0 433 -76v130q0 148 -77.5 209t-234.5 61q-169 0 -355 -68l-37 144q25 16 150.5 42.5t241.5 26.5q244 0 360 -96.5t116 -318.5v-373q0 -200 19 -414l-148 -12l-25 139q-76 -62 -210.5 -108.5t-258.5 -46.5q-55 0 -98 7t-90 31 t-77.5 64.5t-50.5 112.5t-20 170zM345 348q0 -121 45.5 -174t154.5 -53q110 0 227 40.5t200 104.5q-6 106 -6 274q-229 59 -432 59q-52 0 -88 -13t-56 -32t-30 -55t-12.5 -67.5t-2.5 -83.5zM423 1714l125 125l325 -353l-83 -87z" />
<glyph unicode="&#xe1;" d="M175 365q0 195 82.5 285.5t279.5 90.5q209 0 433 -76v130q0 148 -77.5 209t-234.5 61q-169 0 -355 -68l-37 144q25 16 150.5 42.5t241.5 26.5q244 0 360 -96.5t116 -318.5v-373q0 -200 19 -414l-148 -12l-25 139q-76 -62 -210.5 -108.5t-258.5 -46.5q-55 0 -98 7t-90 31 t-77.5 64.5t-50.5 112.5t-20 170zM345 348q0 -121 45.5 -174t154.5 -53q110 0 227 40.5t200 104.5q-6 106 -6 274q-229 59 -432 59q-52 0 -88 -13t-56 -32t-30 -55t-12.5 -67.5t-2.5 -83.5zM507 1486l323 351l130 -121l-370 -317z" />
<glyph unicode="&#xe2;" d="M175 365q0 195 82.5 285.5t279.5 90.5q209 0 433 -76v130q0 148 -77.5 209t-234.5 61q-169 0 -355 -68l-37 144q25 16 150.5 42.5t241.5 26.5q244 0 360 -96.5t116 -318.5v-373q0 -200 19 -414l-148 -12l-25 139q-76 -62 -210.5 -108.5t-258.5 -46.5q-55 0 -98 7t-90 31 t-77.5 64.5t-50.5 112.5t-20 170zM324 1479l279 351h121l288 -350l-81 -80l-266 265l-259 -265zM345 348q0 -121 45.5 -174t154.5 -53q110 0 227 40.5t200 104.5q-6 106 -6 274q-229 59 -432 59q-52 0 -88 -13t-56 -32t-30 -55t-12.5 -67.5t-2.5 -83.5z" />
<glyph unicode="&#xe3;" d="M175 365q0 195 82.5 285.5t279.5 90.5q209 0 433 -76v130q0 148 -77.5 209t-234.5 61q-169 0 -355 -68l-37 144q25 16 150.5 42.5t241.5 26.5q244 0 360 -96.5t116 -318.5v-373q0 -200 19 -414l-148 -12l-25 139q-76 -62 -210.5 -108.5t-258.5 -46.5q-55 0 -98 7t-90 31 t-77.5 64.5t-50.5 112.5t-20 170zM285 1479q53 98 123.5 147t142.5 49h13q44 0 91 -28.5t86 -57t65 -28.5q10 0 19 2t18.5 7.5t17.5 10t18 14.5l16.5 16.5t17.5 19.5t16.5 20t18 22.5t17.5 22.5l87 -56q-99 -230 -266 -230q-32 0 -68.5 19t-64 41t-61.5 40.5t-62 18.5 q-51 0 -174 -113zM345 348q0 -121 45.5 -174t154.5 -53q110 0 227 40.5t200 104.5q-6 106 -6 274q-229 59 -432 59q-52 0 -88 -13t-56 -32t-30 -55t-12.5 -67.5t-2.5 -83.5z" />
<glyph unicode="&#xe4;" d="M175 365q0 195 82.5 285.5t279.5 90.5q209 0 433 -76v130q0 148 -77.5 209t-234.5 61q-169 0 -355 -68l-37 144q25 16 150.5 42.5t241.5 26.5q244 0 360 -96.5t116 -318.5v-373q0 -200 19 -414l-148 -12l-25 139q-76 -62 -210.5 -108.5t-258.5 -46.5q-55 0 -98 7t-90 31 t-77.5 64.5t-50.5 112.5t-20 170zM330 1598q0 67 23.5 90.5t85.5 23.5q63 0 85 -23t22 -91q0 -69 -22 -93t-85 -24t-86 23.5t-23 93.5zM345 348q0 -121 45.5 -174t154.5 -53q110 0 227 40.5t200 104.5q-6 106 -6 274q-229 59 -432 59q-52 0 -88 -13t-56 -32t-30 -55 t-12.5 -67.5t-2.5 -83.5zM788 1598q0 67 23.5 90.5t85.5 23.5q63 0 86 -23t23 -91q0 -69 -23 -93t-86 -24t-86 23.5t-23 93.5z" />
<glyph unicode="&#xe5;" d="M175 365q0 195 82.5 285.5t279.5 90.5q209 0 433 -76v130q0 148 -77.5 209t-234.5 61q-169 0 -355 -68l-37 144q25 16 150.5 42.5t241.5 26.5q244 0 360 -96.5t116 -318.5v-373q0 -200 19 -414l-148 -12l-25 139q-76 -62 -210.5 -108.5t-258.5 -46.5q-55 0 -98 7t-90 31 t-77.5 64.5t-50.5 112.5t-20 170zM345 348q0 -121 45.5 -174t154.5 -53q110 0 227 40.5t200 104.5q-6 106 -6 274q-229 59 -432 59q-52 0 -88 -13t-56 -32t-30 -55t-12.5 -67.5t-2.5 -83.5zM453 1574q0 111 67.5 163.5t177.5 52.5t177.5 -52.5t67.5 -163.5q0 -106 -68 -158 t-177 -52t-177 52t-68 158zM579 1575q0 -103 117 -103t117 103q0 108 -117 108t-117 -108z" />
<glyph unicode="&#xe6;" horiz-adv-x="2215" d="M228 365q0 89 17 156t56 120t109.5 80.5t170.5 27.5q196 0 446 -77l-2 123q0 148 -78.5 209t-235.5 61q-169 0 -355 -68l-37 144q25 16 150.5 42.5t241.5 26.5q314 0 411 -171v-1l1 1q52 92 155.5 131.5t264.5 39.5q114 0 195 -23.5t129 -62.5t75 -105.5t36 -136.5 t9 -171q0 -102 -6 -174q-125 -6 -409 -6q-272 0 -393 19q0 -91 7.5 -153t28.5 -118t58 -88t98 -50.5t147 -18.5q219 0 413 84l49 -143q-22 -9 -62.5 -23t-160 -37t-234.5 -23q-327 0 -431 179l-59 -39q-84 -56 -215.5 -98t-253.5 -42q-55 0 -98 7t-90 31t-77.5 64.5 t-50.5 112.5t-20 170zM398 348q0 -120 45 -168.5t155 -48.5q114 0 242.5 38.5t208.5 100.5q-22 104 -25 280q-202 55 -437 55q-52 0 -88 -13.5t-56 -33.5t-30 -57t-12.5 -68.5t-2.5 -84.5zM1179 672h639v96q0 79 -13 132t-45.5 92t-89.5 57t-143 18q-200 0 -274 -85.5 t-74 -309.5z" />
<glyph unicode="&#xe7;" horiz-adv-x="1196" d="M186 600q0 52 1 89.5t5 87t12 86t20.5 79.5t32.5 74t46.5 63.5t64 54.5t83.5 40.5t105.5 27t129.5 8.5q107 0 211.5 -23t146.5 -48l-50 -148q-186 74 -343 74q-75 0 -127 -18.5t-85 -52.5t-51.5 -94.5t-25 -131.5t-6.5 -176q0 -69 1.5 -115t8 -100t18.5 -88t32.5 -68.5 t50.5 -53.5t73 -31t99 -12q87 0 177 16t137 32l47 16l50 -135q-11 -6 -32.5 -15.5t-96.5 -28.5t-160 -26q32 -32 53 -70.5t30 -73t9 -68.5q0 -96 -56.5 -147.5t-159.5 -51.5q-83 0 -134 19l25 128q45 -10 84 -10q45 0 73 22t28 66q0 83 -89 184q-121 4 -202 35t-139 99 q-97 113 -97 485z" />
<glyph unicode="&#xe8;" d="M189 600v51q0 164 32 273t101 172t163 88.5t233 25.5q96 0 168 -15t121 -46.5t81 -72t49 -100t23.5 -121t6.5 -144.5q0 -100 -6 -172q-125 -6 -414 -6q-248 0 -388 22q0 -91 7 -153t27 -119t56.5 -89.5t97 -51.5t146.5 -19q221 0 413 83l49 -143q-22 -9 -62.5 -23 t-160 -37t-234.5 -23q-151 0 -250.5 31t-161.5 104q-97 116 -97 485zM359 672h639v96q0 157 -64 228t-232 71q-200 0 -271.5 -85t-71.5 -310zM436 1714l125 125l325 -353l-83 -87z" />
<glyph unicode="&#xe9;" d="M189 600v51q0 164 32 273t101 172t163 88.5t233 25.5q96 0 168 -15t121 -46.5t81 -72t49 -100t23.5 -121t6.5 -144.5q0 -100 -6 -172q-125 -6 -414 -6q-248 0 -388 22q0 -91 7 -153t27 -119t56.5 -89.5t97 -51.5t146.5 -19q221 0 413 83l49 -143q-22 -9 -62.5 -23 t-160 -37t-234.5 -23q-151 0 -250.5 31t-161.5 104q-97 116 -97 485zM359 672h639v96q0 157 -64 228t-232 71q-200 0 -271.5 -85t-71.5 -310zM512 1486l323 351l130 -121l-370 -317z" />
<glyph unicode="&#xea;" d="M189 600v51q0 164 32 273t101 172t163 88.5t233 25.5q96 0 168 -15t121 -46.5t81 -72t49 -100t23.5 -121t6.5 -144.5q0 -100 -6 -172q-125 -6 -414 -6q-248 0 -388 22q0 -91 7 -153t27 -119t56.5 -89.5t97 -51.5t146.5 -19q221 0 413 83l49 -143q-22 -9 -62.5 -23 t-160 -37t-234.5 -23q-151 0 -250.5 31t-161.5 104q-97 116 -97 485zM349 1479l279 351h121l288 -350l-81 -80l-266 265l-259 -265zM359 672h639v96q0 157 -64 228t-232 71q-200 0 -271.5 -85t-71.5 -310z" />
<glyph unicode="&#xeb;" d="M189 600v51q0 164 32 273t101 172t163 88.5t233 25.5q96 0 168 -15t121 -46.5t81 -72t49 -100t23.5 -121t6.5 -144.5q0 -100 -6 -172q-125 -6 -414 -6q-248 0 -388 22q0 -91 7 -153t27 -119t56.5 -89.5t97 -51.5t146.5 -19q221 0 413 83l49 -143q-22 -9 -62.5 -23 t-160 -37t-234.5 -23q-151 0 -250.5 31t-161.5 104q-97 116 -97 485zM342 1598q0 67 23.5 90.5t85.5 23.5q63 0 85 -23t22 -91q0 -69 -22 -93t-85 -24t-86 23.5t-23 93.5zM359 672h639v96q0 157 -64 228t-232 71q-200 0 -271.5 -85t-71.5 -310zM800 1598q0 67 23.5 90.5 t85.5 23.5q63 0 86 -23t23 -91q0 -69 -23 -93t-86 -24t-86 23.5t-23 93.5z" />
<glyph unicode="&#xec;" horiz-adv-x="683" d="M39 1714l125 125l325 -353l-83 -87zM261 1188h164v-1188h-162z" />
<glyph unicode="&#xed;" horiz-adv-x="683" d="M205 1486l323 351l130 -121l-370 -317zM261 1188h164v-1188h-162z" />
<glyph unicode="&#xee;" horiz-adv-x="683" d="M0 1479l279 351h121l288 -350l-81 -80l-266 265l-259 -265zM261 1188h164v-1188h-162z" />
<glyph unicode="&#xef;" horiz-adv-x="683" d="M5 1598q0 67 23.5 90.5t85.5 23.5q63 0 85 -23t22 -91q0 -69 -22 -93t-85 -24t-86 23.5t-23 93.5zM261 1188h164v-1188h-162zM463 1598q0 67 23.5 90.5t85.5 23.5q63 0 86 -23t23 -91q0 -69 -23 -93t-86 -24t-86 23.5t-23 93.5z" />
<glyph unicode="&#xf0;" horiz-adv-x="1366" d="M178 443v184q0 63 4 110.5t15 94.5t30 79.5t50 61.5t74.5 46t103.5 26.5t137 9.5q119 0 240.5 -32t204.5 -79q-3 82 -9 117q-19 104 -72 191t-149 166q-35 -35 -100.5 -98.5t-82.5 -80.5l-97 98l176 156q-105 68 -265 140l71 125q176 -83 293 -161l172 182l95 -107 l-159 -154q56 -46 100.5 -95t75 -94.5t52 -99t34 -101t19.5 -107.5t9 -110.5t2 -119.5v-338q0 -235 -143 -354t-424 -119q-88 0 -158 15.5t-117 39.5t-81.5 62.5t-53.5 76t-30 87.5t-14 90.5t-3 91.5zM349 443q0 -70 6.5 -118t23.5 -87.5t47.5 -61.5t78 -34t115.5 -12h54 q74 0 130.5 10.5t95.5 33t65 52.5t40.5 74t20 91.5t5.5 111.5v310q-49 24 -110 44t-146.5 35t-168.5 15q-51 0 -84 -3.5t-65 -15t-50 -33t-32.5 -57.5t-20 -88t-5.5 -125v-142z" />
<glyph unicode="&#xf1;" d="M223 0v1190h146l16 -123q65 52 172.5 97.5t239.5 45.5q104 0 171.5 -19.5t108 -67t56.5 -117t16 -177.5v-829h-168v798q0 73 -7 117.5t-28 78t-59.5 47t-100.5 13.5q-199 0 -397 -115v-939h-166zM311 1479q53 98 123.5 147t142.5 49h13q44 0 91 -28.5t86 -57t65 -28.5 q10 0 19 2t18.5 7.5t17.5 10t18 14.5l16.5 16.5t17.5 19.5t16.5 20t18 22.5t17.5 22.5l87 -56q-99 -230 -266 -230q-32 0 -68.5 19t-64 41t-61.5 40.5t-62 18.5q-51 0 -174 -113z" />
<glyph unicode="&#xf2;" horiz-adv-x="1363" d="M188 592q0 73 2 127t8.5 112t18 99.5t30.5 83.5t46 70.5t64.5 54t86.5 40t111.5 23t139.5 8.5q98 0 172.5 -14.5t125.5 -37t85.5 -67.5t53.5 -86.5t28.5 -115t12 -132t2.5 -157.5q0 -95 -4.5 -165t-17.5 -138.5t-36.5 -115t-60 -87t-89 -64.5t-124 -37t-164.5 -13 q-67 0 -123 6t-101 19.5t-81 31t-63 44.5t-46.5 55t-33.5 68.5t-22.5 79t-13 92t-6 102t-1.5 114.5zM357 618q0 -65 1 -106.5t4.5 -91.5t10 -81t18 -66.5t28.5 -56t41 -41t56.5 -31t73.5 -17t93 -6.5q56 0 99 6t76.5 21.5t57 34t40 52t26 67.5t15 87.5t7 104.5t1.5 127 q0 75 -2 122t-8.5 100t-19.5 83.5t-35.5 61t-56 45.5t-80.5 24.5t-110 9.5q-67 0 -117 -9.5t-86 -25t-60 -45.5t-38.5 -61.5t-22 -83.5t-10 -101t-2.5 -123zM399 1714l125 125l325 -353l-83 -87z" />
<glyph unicode="&#xf3;" horiz-adv-x="1363" d="M188 592q0 73 2 127t8.5 112t18 99.5t30.5 83.5t46 70.5t64.5 54t86.5 40t111.5 23t139.5 8.5q98 0 172.5 -14.5t125.5 -37t85.5 -67.5t53.5 -86.5t28.5 -115t12 -132t2.5 -157.5q0 -95 -4.5 -165t-17.5 -138.5t-36.5 -115t-60 -87t-89 -64.5t-124 -37t-164.5 -13 q-67 0 -123 6t-101 19.5t-81 31t-63 44.5t-46.5 55t-33.5 68.5t-22.5 79t-13 92t-6 102t-1.5 114.5zM357 618q0 -65 1 -106.5t4.5 -91.5t10 -81t18 -66.5t28.5 -56t41 -41t56.5 -31t73.5 -17t93 -6.5q56 0 99 6t76.5 21.5t57 34t40 52t26 67.5t15 87.5t7 104.5t1.5 127 q0 75 -2 122t-8.5 100t-19.5 83.5t-35.5 61t-56 45.5t-80.5 24.5t-110 9.5q-67 0 -117 -9.5t-86 -25t-60 -45.5t-38.5 -61.5t-22 -83.5t-10 -101t-2.5 -123zM543 1486l323 351l130 -121l-370 -317z" />
<glyph unicode="&#xf4;" horiz-adv-x="1363" d="M188 592q0 73 2 127t8.5 112t18 99.5t30.5 83.5t46 70.5t64.5 54t86.5 40t111.5 23t139.5 8.5q98 0 172.5 -14.5t125.5 -37t85.5 -67.5t53.5 -86.5t28.5 -115t12 -132t2.5 -157.5q0 -95 -4.5 -165t-17.5 -138.5t-36.5 -115t-60 -87t-89 -64.5t-124 -37t-164.5 -13 q-67 0 -123 6t-101 19.5t-81 31t-63 44.5t-46.5 55t-33.5 68.5t-22.5 79t-13 92t-6 102t-1.5 114.5zM350 1479l279 351h121l288 -350l-81 -80l-266 265l-259 -265zM357 618q0 -65 1 -106.5t4.5 -91.5t10 -81t18 -66.5t28.5 -56t41 -41t56.5 -31t73.5 -17t93 -6.5q56 0 99 6 t76.5 21.5t57 34t40 52t26 67.5t15 87.5t7 104.5t1.5 127q0 75 -2 122t-8.5 100t-19.5 83.5t-35.5 61t-56 45.5t-80.5 24.5t-110 9.5q-67 0 -117 -9.5t-86 -25t-60 -45.5t-38.5 -61.5t-22 -83.5t-10 -101t-2.5 -123z" />
<glyph unicode="&#xf5;" horiz-adv-x="1363" d="M188 592q0 73 2 127t8.5 112t18 99.5t30.5 83.5t46 70.5t64.5 54t86.5 40t111.5 23t139.5 8.5q98 0 172.5 -14.5t125.5 -37t85.5 -67.5t53.5 -86.5t28.5 -115t12 -132t2.5 -157.5q0 -95 -4.5 -165t-17.5 -138.5t-36.5 -115t-60 -87t-89 -64.5t-124 -37t-164.5 -13 q-67 0 -123 6t-101 19.5t-81 31t-63 44.5t-46.5 55t-33.5 68.5t-22.5 79t-13 92t-6 102t-1.5 114.5zM302 1479q53 98 123.5 147t142.5 49h13q44 0 91 -28.5t86 -57t65 -28.5q10 0 19 2t18.5 7.5t17.5 10t18 14.5l16.5 16.5t17.5 19.5t16.5 20t18 22.5t17.5 22.5l87 -56 q-99 -230 -266 -230q-32 0 -68.5 19t-64 41t-61.5 40.5t-62 18.5q-51 0 -174 -113zM357 618q0 -65 1 -106.5t4.5 -91.5t10 -81t18 -66.5t28.5 -56t41 -41t56.5 -31t73.5 -17t93 -6.5q56 0 99 6t76.5 21.5t57 34t40 52t26 67.5t15 87.5t7 104.5t1.5 127q0 75 -2 122t-8.5 100 t-19.5 83.5t-35.5 61t-56 45.5t-80.5 24.5t-110 9.5q-67 0 -117 -9.5t-86 -25t-60 -45.5t-38.5 -61.5t-22 -83.5t-10 -101t-2.5 -123z" />
<glyph unicode="&#xf6;" horiz-adv-x="1363" d="M188 592q0 73 2 127t8.5 112t18 99.5t30.5 83.5t46 70.5t64.5 54t86.5 40t111.5 23t139.5 8.5q98 0 172.5 -14.5t125.5 -37t85.5 -67.5t53.5 -86.5t28.5 -115t12 -132t2.5 -157.5q0 -95 -4.5 -165t-17.5 -138.5t-36.5 -115t-60 -87t-89 -64.5t-124 -37t-164.5 -13 q-67 0 -123 6t-101 19.5t-81 31t-63 44.5t-46.5 55t-33.5 68.5t-22.5 79t-13 92t-6 102t-1.5 114.5zM345 1598q0 67 23.5 90.5t85.5 23.5q63 0 85 -23t22 -91q0 -69 -22 -93t-85 -24t-86 23.5t-23 93.5zM357 618q0 -65 1 -106.5t4.5 -91.5t10 -81t18 -66.5t28.5 -56t41 -41 t56.5 -31t73.5 -17t93 -6.5q56 0 99 6t76.5 21.5t57 34t40 52t26 67.5t15 87.5t7 104.5t1.5 127q0 75 -2 122t-8.5 100t-19.5 83.5t-35.5 61t-56 45.5t-80.5 24.5t-110 9.5q-67 0 -117 -9.5t-86 -25t-60 -45.5t-38.5 -61.5t-22 -83.5t-10 -101t-2.5 -123zM803 1598 q0 67 23.5 90.5t85.5 23.5q63 0 86 -23t23 -91q0 -69 -23 -93t-86 -24t-86 23.5t-23 93.5z" />
<glyph unicode="&#xf7;" horiz-adv-x="1195" d="M107 574v133h981v-133h-981zM484 202q0 72 23.5 96.5t87.5 24.5q65 0 87.5 -24.5t22.5 -96.5q0 -74 -22.5 -99.5t-87.5 -25.5q-66 0 -88.5 25t-22.5 100zM484 1086q0 72 23.5 97t87.5 25q66 0 88 -24.5t22 -97.5q0 -74 -22.5 -99t-87.5 -25q-66 0 -88.5 25t-22.5 99z" />
<glyph unicode="&#xf8;" horiz-adv-x="1363" d="M188 592q0 73 2 127t8.5 112t18 99.5t30.5 83.5t46 70.5t64.5 54t86.5 40t111.5 23t139.5 8.5q70 0 128 -7l101 304l133 -26l-109 -305q32 -11 59 -26t48 -34.5t37.5 -40t29 -49t21.5 -54t14.5 -62.5t9 -67.5t5.5 -75t2.5 -80t0.5 -87.5q0 -73 -2.5 -130.5t-10 -114.5 t-20 -100t-31.5 -83.5t-46.5 -69.5t-64 -53t-84 -38.5t-106.5 -22.5t-131 -8q-77 0 -140 8l-107 -322l-130 24l116 327q-44 17 -78 41.5t-58 53.5t-41.5 69.5t-27.5 81.5t-15.5 97t-7.5 108.5t-2 123.5zM357 618q0 -67 1 -110t4.5 -93.5t11 -83.5t20 -66.5t31.5 -56.5 t46 -40l159 451l147 443q-38 5 -84 5q-67 0 -117 -9.5t-86 -25t-60 -45.5t-38.5 -61.5t-22 -83.5t-10 -101t-2.5 -123zM585 128q43 -7 98 -7q45 0 81.5 4t66 13.5t53 21.5t41.5 32.5t30.5 41.5t21.5 53.5t14.5 64t8.5 77.5t4 89t1 103t-1 100t-4.5 85t-11 75t-19.5 59.5 t-30.5 50t-43.5 35.5l-158 -441z" />
<glyph unicode="&#xf9;" d="M215 361v829h168v-802q0 -73 7 -117.5t28 -78t59.5 -47t100.5 -13.5q90 0 194 33.5t189 92.5v1q-4 76 -4 296v635h166v-666q0 -310 19 -516l-149 -12l-24 141q-40 -33 -93 -65t-140 -62t-169 -30q-104 0 -171.5 19.5t-108 67t-56.5 117t-16 177.5zM391 1714l125 125 l325 -353l-83 -87z" />
<glyph unicode="&#xfa;" d="M215 361v829h168v-802q0 -73 7 -117.5t28 -78t59.5 -47t100.5 -13.5q90 0 194 33.5t189 92.5v1q-4 76 -4 296v635h166v-666q0 -310 19 -516l-149 -12l-24 141q-40 -33 -93 -65t-140 -62t-169 -30q-104 0 -171.5 19.5t-108 67t-56.5 117t-16 177.5zM512 1486l323 351 l130 -121l-370 -317z" />
<glyph unicode="&#xfb;" d="M215 361v829h168v-802q0 -73 7 -117.5t28 -78t59.5 -47t100.5 -13.5q90 0 194 33.5t189 92.5v1q-4 76 -4 296v635h166v-666q0 -310 19 -516l-149 -12l-24 141q-40 -33 -93 -65t-140 -62t-169 -30q-104 0 -171.5 19.5t-108 67t-56.5 117t-16 177.5zM330 1479l279 351h121 l288 -350l-81 -80l-266 265l-259 -265z" />
<glyph unicode="&#xfc;" d="M215 361v829h168v-802q0 -73 7 -117.5t28 -78t59.5 -47t100.5 -13.5q90 0 194 33.5t189 92.5v1q-4 76 -4 296v635h166v-666q0 -310 19 -516l-149 -12l-24 141q-40 -33 -93 -65t-140 -62t-169 -30q-104 0 -171.5 19.5t-108 67t-56.5 117t-16 177.5zM330 1598 q0 67 23.5 90.5t85.5 23.5q63 0 85 -23t22 -91q0 -69 -22 -93t-85 -24t-86 23.5t-23 93.5zM788 1598q0 67 23.5 90.5t85.5 23.5q63 0 86 -23t23 -91q0 -69 -23 -93t-86 -24t-86 23.5t-23 93.5z" />
<glyph unicode="&#xfd;" horiz-adv-x="1192" d="M73 1190h185l310 -877l47 -154q58 206 176.5 583t140.5 448h174l-502 -1472q-56 -172 -254 -172q-126 0 -198 36l45 130q74 -26 154 -26q78 0 111 81q37 91 70 218zM424 1486l323 351l130 -121l-370 -317z" />
<glyph unicode="&#xfe;" d="M217 -455v2157l166 16v-642q204 134 400 134q71 0 126.5 -9t96.5 -33.5t69.5 -49.5t47.5 -74.5t29.5 -90t16 -115t6.5 -131t1 -154.5v-80q0 -53 -2.5 -93t-12 -94.5t-26.5 -94t-48.5 -82t-75.5 -69t-110 -43.5t-149 -17q-190 0 -373 131v-566h-162zM383 242 q211 -115 357 -115h12q41 0 73 5t57.5 12.5t44.5 23.5t33 32.5t23 44.5t14.5 53.5t8 66.5t3.5 77t1 90v144q0 152 -22 232t-72.5 112.5t-146.5 32.5h-25q-85 0 -188.5 -35t-172.5 -74v-702z" />
<glyph unicode="&#xff;" horiz-adv-x="1192" d="M73 1190h185l310 -877l47 -154q58 206 176.5 583t140.5 448h174l-502 -1472q-56 -172 -254 -172q-126 0 -198 36l45 130q74 -26 154 -26q78 0 111 81q37 91 70 218zM253 1598q0 67 23.5 90.5t85.5 23.5q63 0 85 -23t22 -91q0 -69 -22 -93t-85 -24t-86 23.5t-23 93.5z M711 1598q0 67 23.5 90.5t85.5 23.5q63 0 86 -23t23 -91q0 -69 -23 -93t-86 -24t-86 23.5t-23 93.5z" />
<glyph unicode="&#x152;" horiz-adv-x="2046" d="M184 766q0 91 3 161t10.5 142.5t21 126t34.5 106t51 89t71.5 68.5t94 51t119.5 29.5t148 10.5q171 0 357 -20h854v-148h-697v-528h562v-147h-562v-560h724v-147h-892q-146 -20 -346 -20q-108 0 -192.5 21t-142 55t-98.5 92.5t-64 117.5t-36 147.5t-16.5 165.5t-3.5 187z M363 659q0 -138 19.5 -234t53 -155t92.5 -91.5t124 -43.5t161 -11q140 0 268 26v1222q-136 29 -333 29q-79 0 -137 -13t-99.5 -33.5t-69 -64.5t-43.5 -86t-24 -118.5t-10 -143t-2 -176.5v-107z" />
<glyph unicode="&#x153;" horiz-adv-x="2215" d="M210 592q0 73 2 127t8.5 112t18 99.5t30.5 83.5t46 70.5t64.5 54t86.5 40t111.5 23t139.5 8.5q171 0 267 -52.5t135 -166.5q40 117 145.5 168t290.5 51q96 0 168 -15t121 -46.5t81 -72t49 -100t23.5 -121t6.5 -144.5q0 -105 -6 -177q-125 -6 -414 -6q-251 0 -391 22 q0 -221 77 -325t271 -104q203 0 397 82l54 -140q-22 -9 -62 -23t-155 -37t-221 -23q-197 0 -303 58t-144 179q-40 -127 -134 -182t-267 -55q-76 0 -137.5 8.5t-109.5 23t-85 40t-63 53.5t-44.5 70t-29.5 82.5t-17 98.5t-8 110.5t-2 125.5zM379 618q0 -65 1 -106.5t4.5 -91.5 t10 -81t18 -66.5t28.5 -56t41 -41t56.5 -31t73.5 -17t93 -6.5q70 0 120.5 11t86.5 37.5t58 62.5t34.5 96t17 127.5t4.5 165.5q0 88 -4 147t-16 112.5t-33 85t-56 55.5t-84 34t-118 12q-58 1 -103.5 -4t-80 -20t-59.5 -33t-41.5 -49t-27 -62t-16 -79.5t-7 -92.5t-1.5 -109z M1194 672h641v96q0 157 -64 228t-232 71q-103 0 -168 -19.5t-105.5 -68t-56 -121t-15.5 -186.5z" />
<glyph unicode="&#x178;" horiz-adv-x="1194" d="M13 1530h186l327 -657l74 -169q53 127 119 266t147.5 302t126.5 258h188l-499 -965l-1 -565h-168l-1 565zM260 1834q0 67 23.5 90.5t85.5 23.5q63 0 85 -23t22 -91q0 -69 -22 -93t-85 -24t-86 23.5t-23 93.5zM718 1834q0 46 11 70.5t33.5 34t64.5 9.5q63 0 86 -23t23 -91 q0 -47 -10.5 -72t-33 -35t-65.5 -10q-63 0 -86 23.5t-23 93.5z" />
<glyph unicode="&#x2c6;" horiz-adv-x="680" d="M0 1479l279 351h121l288 -350l-81 -80l-266 265l-259 -265z" />
<glyph unicode="&#x2dc;" horiz-adv-x="844" d="M38 1479q53 98 123.5 147t142.5 49h13q44 0 91 -28.5t86 -57t65 -28.5q10 0 19 2t18.5 7.5t17.5 10t18 14.5l16.5 16.5t17.5 19.5t16.5 20t18 22.5t17.5 22.5l87 -56q-99 -230 -266 -230q-32 0 -68.5 19t-64 41t-61.5 40.5t-62 18.5q-51 0 -174 -113z" />
<glyph unicode="&#x2000;" horiz-adv-x="1000" />
<glyph unicode="&#x2001;" horiz-adv-x="2000" />
<glyph unicode="&#x2002;" horiz-adv-x="1000" />
<glyph unicode="&#x2003;" horiz-adv-x="2000" />
<glyph unicode="&#x2004;" horiz-adv-x="666" />
<glyph unicode="&#x2005;" horiz-adv-x="500" />
<glyph unicode="&#x2006;" horiz-adv-x="333" />
<glyph unicode="&#x2007;" horiz-adv-x="333" />
<glyph unicode="&#x2008;" horiz-adv-x="250" />
<glyph unicode="&#x2009;" horiz-adv-x="400" />
<glyph unicode="&#x200a;" horiz-adv-x="111" />
<glyph unicode="&#x2010;" horiz-adv-x="1026" d="M177 568v145h671v-145h-671z" />
<glyph unicode="&#x2011;" horiz-adv-x="1026" d="M177 568v145h671v-145h-671z" />
<glyph unicode="&#x2012;" horiz-adv-x="1026" d="M177 568v145h671v-145h-671z" />
<glyph unicode="&#x2013;" horiz-adv-x="1703" d="M258 527v136h1186v-136h-1186z" />
<glyph unicode="&#x2014;" horiz-adv-x="2214" d="M254 527v136h1706v-136h-1706z" />
<glyph unicode="&#x2018;" horiz-adv-x="512" d="M113 1291q0 18 7 44l118 471h131l-71 -552l-38 -2q-29 -2 -89 -2q-30 0 -44 8.5t-14 32.5z" />
<glyph unicode="&#x2019;" horiz-adv-x="512" d="M133 1250l71 552l38 2q29 2 89 2q30 0 44 -8.5t14 -32.5q0 -18 -7 -44l-118 -471h-131z" />
<glyph unicode="&#x201a;" horiz-adv-x="512" d="M133 -320l71 552l38 2q29 2 89 2q30 0 44 -8.5t14 -32.5q0 -18 -7 -44l-118 -471h-131z" />
<glyph unicode="&#x201c;" horiz-adv-x="1026" d="M181 1291q0 18 7 44l118 471h131l-71 -552l-38 -2q-29 -2 -89 -2q-30 0 -44 8.5t-14 32.5zM588 1291q0 18 7 44l118 471h131l-71 -552l-38 -2q-29 -2 -89 -2q-30 0 -44 8.5t-14 32.5z" />
<glyph unicode="&#x201d;" horiz-adv-x="1026" d="M191 1250l71 552l38 2q29 2 89 2q30 0 44 -8.5t14 -32.5q0 -18 -7 -44l-118 -471h-131zM578 1250l71 552l38 2q29 2 89 2q30 0 44 -8.5t14 -32.5q0 -18 -7 -44l-118 -471h-131z" />
<glyph unicode="&#x201e;" horiz-adv-x="1026" d="M191 -320l71 552l38 2q29 2 89 2q30 0 44 -8.5t14 -32.5q0 -18 -7 -44l-118 -471h-131zM578 -320l71 552l38 2q29 2 89 2q30 0 44 -8.5t14 -32.5q0 -18 -7 -44l-118 -471h-131z" />
<glyph unicode="&#x2022;" horiz-adv-x="683" d="M176 673q0 108 34.5 144.5t131.5 36.5q99 0 132 -36t33 -145q0 -111 -33.5 -148.5t-131.5 -37.5q-99 0 -132.5 37t-33.5 149z" />
<glyph unicode="&#x2026;" horiz-adv-x="1536" d="M139 113q0 77 24.5 103t92.5 26q70 0 93 -25.5t23 -103.5q0 -79 -23 -105.5t-93 -26.5t-93.5 26t-23.5 106zM651 113q0 77 24.5 103t92.5 26q70 0 93 -25.5t23 -103.5q0 -79 -23 -105.5t-93 -26.5t-93.5 26t-23.5 106zM1163 113q0 77 24.5 103t92.5 26q70 0 93 -25.5 t23 -103.5q0 -79 -23 -105.5t-93 -26.5t-93.5 26t-23.5 106z" />
<glyph unicode="&#x202f;" horiz-adv-x="400" />
<glyph unicode="&#x2039;" horiz-adv-x="856" d="M141 516v132l465 434l91 -86l-389 -412l391 -402l-83 -93z" />
<glyph unicode="&#x203a;" horiz-adv-x="856" d="M156 993l83 93l475 -427v-132l-465 -434l-91 86l389 412z" />
<glyph unicode="&#x205f;" horiz-adv-x="500" />
<glyph unicode="&#x20ac;" horiz-adv-x="1194" d="M30 537v135h881v-135h-541q16 -217 102 -311t290 -94h9q77 0 173 20t140 37l47 -143q-5 -3 -14 -7.5t-42.5 -15.5t-72 -20t-102 -16t-132.5 -7h-11q-107 0 -190.5 16.5t-143.5 50.5t-102.5 80t-69.5 111t-41.5 136t-20.5 163h-159zM68 858v135h123q9 110 29 192t60 153.5 t101.5 116t154.5 70t218 25.5q100 0 205.5 -13t169.5 -36l-45 -159q-182 60 -339 60q-188 0 -269.5 -91t-100.5 -318h574v-135h-881z" />
<glyph unicode="&#x2122;" horiz-adv-x="2214" d="M75 1414v116h744v-116h-307v-767h-140v767h-297zM911 646l138 883h180l206 -637l29 -119l26 119l204 637h174l149 -883h-138l-97 593l-14 152l-34 -152l-201 -593h-143l-198 587l-44 172q-3 -27 -10 -82.5t-10 -83.5l-88 -593h-129z" />
<glyph unicode="&#xe000;" horiz-adv-x="1190" d="M0 0v1190h1190v-1190h-1190z" />
<glyph unicode="&#xfb01;" horiz-adv-x="1537" d="M102 1051v123l197 16q-3 8 -10.5 42.5t-17 96t-9.5 107.5q0 284 332 284q121 0 227 -26l-30 -149q-134 31 -212 31q-74 0 -113 -35t-39 -114q0 -118 37 -237h815v-1190h-162l-2 1051h-653v-1051h-161v1051h-199zM1080 1598q0 71 25.5 95.5t90.5 24.5q66 0 90 -24t24 -96 q0 -73 -24 -98t-90 -25q-67 0 -91.5 25t-24.5 98z" />
<glyph unicode="&#xfb02;" horiz-adv-x="1537" d="M102 1051v123l197 16q-3 8 -10.5 42.5t-17 96t-9.5 107.5q0 284 332 284q121 0 227 -26l-30 -149q-134 31 -212 31q-74 0 -113 -35t-39 -114q0 -118 37 -237h649v510l165 14v-1714h-163l-2 1051h-651v-1051h-161v1051h-199z" />
</font>
</defs>
</svg>
