<?xml version="1.0" standalone="no"?>
<!DOCTYPE svg PUBLIC "-//W3C//DTD SVG 1.1//EN" "http://www.w3.org/Graphics/SVG/1.1/DTD/svg11.dtd" >
<svg xmlns="http://www.w3.org/2000/svg">
<metadata></metadata>
<defs>
<font id="afta_sansregular" horiz-adv-x="824" >
<font-face units-per-em="1000" ascent="800" descent="-200" />
<missing-glyph horiz-adv-x="282" />
<glyph unicode="&#xfb01;" horiz-adv-x="606" d="M22 475v43h79v92q0 103 54 156.5t138 53.5q43 0 77.5 -8t49.5 -15.5t46 -24.5v33h88v-89h-102q-87 62 -152 62q-70 0 -102.5 -53t-32.5 -119v-88h389v-518h-71v475h-317v-475h-65v475h-79z" />
<glyph unicode="&#xfb02;" horiz-adv-x="602" d="M20 474v44h90v89q0 121 49 168.5t141 47.5q250 0 250 -189v-633h-71v633q0 72 -42.5 104.5t-136.5 32.5q-73 -2 -98.5 -44t-25.5 -120v-89h127v-44h-127v-474h-66v474h-90z" />
<glyph horiz-adv-x="1000" />
<glyph horiz-adv-x="1000" />
<glyph unicode="&#xd;" horiz-adv-x="1000" />
<glyph unicode=" "  horiz-adv-x="282" />
<glyph unicode="&#x09;" horiz-adv-x="282" />
<glyph unicode="&#xa0;" horiz-adv-x="282" />
<glyph unicode="!" horiz-adv-x="264" d="M95 0v86h85v-86h-85zM98 519v213h71v-213l-25 -294h-21z" />
<glyph unicode="&#x22;" horiz-adv-x="435" d="M130 493v237h46v-237h-46zM283 493v237h44v-237h-44z" />
<glyph unicode="#" horiz-adv-x="574" d="M46 223v31h121l35 204h-130v31h135l36 220h46l-38 -220h168l37 220h47l-39 -220h96v-31h-101l-34 -204h103v-31h-106q-15 -70 -38 -223h-46l37 223h-168q-36 -222 -36 -223h-46l37 223h-116zM212 254h166q8 44 20 110.5t16 93.5h-166z" />
<glyph unicode="$" horiz-adv-x="585" d="M58 40v65q94 -70 240 -77v321q-123 37 -181.5 86.5t-58.5 128.5q0 68 63 122t177 65v69h31v-69q144 -9 214 -47v-50q-98 47 -214 55v-304q41 -15 68.5 -26.5t63 -32t56 -43t35.5 -56t15 -73.5q0 -45 -21.5 -81t-57.5 -58t-76 -35.5t-83 -18.5v-100h-31v99q-162 7 -240 60 zM138 563q0 -93 160 -154v299q-75 -13 -117.5 -50t-42.5 -95zM329 27q76 21 117.5 59.5t41.5 87.5q0 102 -159 170v-317z" />
<glyph unicode="%" horiz-adv-x="1000" d="M102 525q2 99 40.5 150t120.5 51q46 0 78 -16t48.5 -46t24 -63t8.5 -76q-1 -62 -16.5 -103.5t-41.5 -59.5t-48.5 -24t-51.5 -6q-159 0 -162 193zM143 522q0 -169 120 -169q58 0 88.5 38.5t30.5 133.5q0 99 -31 138.5t-88 39.5q-59 0 -89.5 -39.5t-30.5 -141.5zM235 -19 l562 759h51l-563 -759h-50zM633 183q2 99 40.5 149.5t121.5 50.5q46 0 77.5 -16t48 -46t23.5 -62.5t8 -75.5q-1 -63 -15 -104t-39.5 -59t-48 -23.5t-53.5 -5.5q-33 0 -56.5 5.5t-50 23.5t-41 59t-15.5 104zM674 179q0 -96 31 -134.5t90 -38.5q61 0 89.5 40t28.5 137 q0 102 -27 142t-91 40q-61 0 -91 -42t-30 -144z" />
<glyph unicode="&#x26;" horiz-adv-x="759" d="M46 254q0 115 52.5 171t170.5 74q-4 16 -9 33.5t-7 26t-4 22.5t-2 33q0 114 161 114q77 -1 117.5 -27.5t40.5 -86.5q0 -15 -8 -66q105 -18 151.5 -74.5t46.5 -167.5q0 -158 -125 -250q53 -30 110 -30q83 0 156 41v-53q-54 -30 -159 -30q-86 0 -159 45q-104 -47 -252 -47 q-150 0 -215.5 68.5t-65.5 203.5zM112 258q0 -132 51 -183t166 -51q91 0 208 33q-159 152 -263 416q-47 -12 -72.5 -23.5t-48.5 -34.5t-32 -60.5t-9 -96.5zM292 598q0 -49 36.5 -133t79.5 -159q39 75 57 113t35.5 90t17.5 89q0 51 -29 68.5t-81 17.5q-58 0 -87 -17t-29 -69z M424 263q49 -75 76.5 -108t71.5 -69q117 56 117 224q0 69 -16.5 109t-44 59.5t-82.5 38.5q-41 -121 -122 -254z" />
<glyph unicode="'" horiz-adv-x="286" d="M130 493v237h45v-237h-45z" />
<glyph unicode="(" horiz-adv-x="315" d="M65 269q0 127 56.5 255t144.5 229h36q-59 -91 -111.5 -223t-52.5 -261q0 -197 157 -482h-29q-22 25 -48 62t-64.5 103t-63.5 150.5t-25 166.5z" />
<glyph unicode=")" horiz-adv-x="308" d="M22 753h36q202 -248 202 -484q0 -226 -201 -482h-31q50 97 78 158t54.5 153t26.5 171q0 70 -18 146t-47 143t-52.5 111.5t-47.5 83.5z" />
<glyph unicode="*" horiz-adv-x="329" d="M52 545q52 31 116 60q-20 9 -60.5 26.5t-55.5 24.5q1 6 9 23l102 -54v106h26v-106l102 54q8 -17 9 -23q-15 -7 -55.5 -24.5t-60.5 -26.5q17 -8 46.5 -23.5t49.5 -25.5l20 -11l-8 -25l-103 72v-130h-26v130l-103 -72z" />
<glyph unicode="+" horiz-adv-x="600" d="M59 232v42h227v235h45v-235h236v-42h-236v-231h-45v231h-227z" />
<glyph unicode="," horiz-adv-x="278" d="M92 -152q27 3 43 16t22 39t7.5 43.5t1.5 53.5h-60v84h87q8 -62 8 -99q0 -156 -109 -172v35z" />
<glyph unicode="-" horiz-adv-x="398" d="M67 253v51h280v-51h-280z" />
<glyph unicode="." horiz-adv-x="271" d="M106 -1v84h85v-84h-85z" />
<glyph unicode="/" horiz-adv-x="347" d="M6 -19l304 772h47l-304 -772h-47z" />
<glyph unicode="0" horiz-adv-x="650" d="M56 348q0 91 17 160t44 109t66 64.5t77 33t83 8.5q278 0 278 -375q0 -91 -20 -160t-48.5 -106.5t-69 -61t-73 -30t-67.5 -6.5q-36 0 -69.5 6.5t-75 30t-71.5 61t-50.5 106.5t-20.5 160zM124 341q0 -316 219 -316q96 0 154 78t58 245q0 173 -57.5 251.5t-154.5 78.5 q-105 0 -162 -77.5t-57 -259.5z" />
<glyph unicode="1" horiz-adv-x="435" d="M104 651v29q6 0 69 46h82v-726h-66v674l-43 -12l-20 -6t-16 -4.5t-6 -0.5z" />
<glyph unicode="2" horiz-adv-x="581" d="M34 0q2 75 20.5 130.5t58 97t81 69t110.5 63.5h-1q134 66 134 177q0 58 -41 98t-122 44q-98 0 -162 -78q-45 36 -50 39q28 36 85 61t126 25q112 0 170 -53.5t58 -135.5q0 -149 -179 -236q-199 -98 -205 -253h407v-48h-490z" />
<glyph unicode="3" horiz-adv-x="620" d="M43 22v53q108 -49 239 -49q62 0 108.5 19t70 48t34.5 56.5t11 52.5q0 60 -54 107.5t-147 47.5h-86v48h86q162 0 162 141q0 54 -39 93.5t-117 39.5q-104 0 -249 -74v54q134 68 249 68q99 0 165.5 -41t66.5 -125q0 -141 -130 -176q85 -21 131 -60.5t46 -122.5 q0 -91 -82.5 -155t-219.5 -64q-164 0 -245 39z" />
<glyph unicode="4" horiz-adv-x="676" d="M37 201v62q67 78 197 232t196 232h60v-483h165v-43h-165v-201h-65v201h-388zM70 244h355v430q-156 -187 -355 -430z" />
<glyph unicode="5" horiz-adv-x="620" d="M44 53v58q144 -70 257 -70q56 0 99 20t67 51.5t36 67t12 70.5q0 81 -52.5 136.5t-161.5 55.5q-65 0 -187 -42l-54 32q22 144 41 245q2 22 6 38h472q-1 -5 -3 -18.5t-4 -20.5h-406l-29 -230q86 37 164 37q133 0 209.5 -57t76.5 -176q0 -118 -79.5 -184t-206.5 -66 q-168 0 -257 53z" />
<glyph unicode="6" horiz-adv-x="602" d="M52 356q0 194 78 282.5t206 88.5q44 0 89 -11.5t70 -22.5t72 -34l-4 -58q-123 76 -227 76q-49 0 -88 -19.5t-61.5 -51t-39 -73t-21 -85t-7.5 -86t1 -77.5q10 29 36 63.5t77 65.5t108 31q133 0 199 -94q56 -79 35 -176q-22 -101 -114 -151q-62 -34 -147 -34 q-129 0 -195.5 82t-66.5 284zM133 219q0 -69 50 -129t130 -60q116 0 167.5 92t10.5 183.5t-150 91.5q-71 0 -126.5 -52t-81.5 -126z" />
<glyph unicode="7" horiz-adv-x="613" d="M56 672l16 37h504q0 -19 -2.5 -34t-8.5 -27.5t-10.5 -19.5t-15 -21t-14.5 -20q1 0 -19.5 -26t-58.5 -74t-80 -99q-57 -82 -57 -179v-209h-68v209q0 107 69 200q97 127 208 263h-463z" />
<glyph unicode="8" horiz-adv-x="613" d="M49 195q0 44 19.5 83.5t49 66.5t56 44.5t50.5 26.5q-21 9 -42 20.5t-46.5 30.5t-41 45.5t-15.5 54.5q0 76 61.5 117.5t175.5 41.5t173.5 -45t59.5 -114q0 -98 -141 -149q181 -85 181 -223q0 -102 -76 -157t-198 -55q-266 0 -266 212zM116 195q0 -83 60 -124t140 -41 q84 0 143 45t59 120q0 89 -72.5 144.5t-165.5 62.5q-77 -24 -120.5 -77.5t-43.5 -129.5zM151 576q0 -71 198 -131q8 2 26.5 11.5t43 25.5t42.5 41.5t18 52.5q0 104 -164 104q-61 0 -112.5 -26t-51.5 -78z" />
<glyph unicode="9" horiz-adv-x="602" d="M60 58l4 58q123 -76 227 -76q49 0 88 19.5t61.5 51t39 73t21 85t7.5 86t-1 77.5q-10 -29 -36 -63.5t-77 -65.5t-108 -31q-133 0 -199 94q-56 79 -35 176q22 101 114 151q62 34 147 34q129 0 195.5 -82t66.5 -284q0 -194 -78 -282.5t-206 -88.5q-44 0 -89 11.5t-70 22.5 t-72 34zM286 320q71 0 126.5 52t81.5 126q0 69 -50 129t-130 60q-110 0 -163 -87q-44 -73 -23.5 -157t95.5 -112q29 -11 63 -11z" />
<glyph unicode=":" horiz-adv-x="281" d="M106 -1v84h85v-84h-85zM106 433v84h85v-84h-85z" />
<glyph unicode=";" horiz-adv-x="287" d="M92 -152q27 3 43 16t22 39t7.5 43.5t1.5 53.5h-60v84h87q8 -62 8 -99q0 -156 -109 -172v35zM106 433v84h85v-84h-85z" />
<glyph unicode="&#x3c;" horiz-adv-x="621" d="M59 235v39q87 36 265.5 118.5t265.5 118.5v-53l-489 -205l498 -204v-51q-92 37 -270 118.5t-270 118.5z" />
<glyph unicode="=" horiz-adv-x="598" d="M59 128v41h501v-41h-501zM59 335v43h501v-43h-501z" />
<glyph unicode="&#x3e;" horiz-adv-x="618" d="M48 -2v51l498 204l-489 205v53q88 -36 266 -118.5t265 -118.5v-39q-92 -37 -270 -118.5t-270 -118.5z" />
<glyph unicode="?" horiz-adv-x="581" d="M73 650v69q78 32 195 32q111 0 178.5 -43.5t67.5 -132.5q0 -40 -18.5 -75t-39 -54.5t-55.5 -46.5q-110 -85 -125 -176h-40q2 39 12.5 71t31 57.5t34.5 39t37 32.5q52 44 67 65q26 36 26 87q0 58 -43.5 91.5t-132.5 33.5q-87 0 -195 -50zM219 -1v84h84v-84h-84z" />
<glyph unicode="@" horiz-adv-x="817" d="M49 366q0 175 108 280.5t278 105.5q162 0 266.5 -80.5t104.5 -230.5q0 -94 -46 -162.5t-147 -68.5q-48 0 -78.5 21.5t-40.5 47.5q-32 -56 -100 -56q-116 0 -116 142q0 68 30.5 114.5t89.5 46.5q24 0 57 -17.5t58 -52.5q0 3 16 62q-2 0 50 -18q-21 -155 -21 -187 q0 -61 61 -61q54 0 82.5 55.5t28.5 141.5q0 82 -44.5 141.5t-110.5 86.5t-143 27q-18 0 -32.5 -1t-48 -7.5t-60 -18t-58.5 -37t-53.5 -59.5t-36.5 -89.5t-15 -124.5q0 -70 15 -125.5t36 -90.5t55.5 -60t61.5 -37t66 -18.5t57.5 -7t46.5 -0.5h7q148 0 316 95v-85 q-152 -56 -353 -56q-193 0 -292 104t-95 280zM344 358q0 -84 69 -84q26 0 53 24t31 49l9 52q-60 73 -97 73q-65 0 -65 -114z" />
<glyph unicode="A" horiz-adv-x="651" d="M11 0l282 715h103l251 -715h-74l-90 272h-292l-111 -272h-69zM201 314h269l-127 368z" />
<glyph unicode="B" horiz-adv-x="685" d="M93 714h230q261 0 261 -175q0 -62 -40 -98.5t-105 -45.5q95 -16 154 -65t59 -135q0 -214 -290 -208q-197 3 -267 12q0 122 -1 357.5t-1 357.5zM158 33l150 -7q150 -4 207.5 41.5t57.5 135.5q0 77 -58 120.5t-153 43.5h-204v-334zM158 412h159q102 0 147 29.5t45 97.5 q0 132 -185 132h-166v-259z" />
<glyph unicode="C" horiz-adv-x="680" d="M59 354q0 177 104.5 277t262.5 100q81 0 192 -33v-61q-109 52 -192 52q-8 0 -20.5 -1t-40.5 -8t-54.5 -19t-57 -37t-53.5 -59t-40 -88.5t-19 -121.5q1 -68 16.5 -122t36.5 -87.5t53 -57.5t56 -34.5t56 -16.5t42.5 -6.5t24.5 -0.5q103 0 199 78v-69q-89 -60 -199 -60 q-171 0 -268 106.5t-99 268.5z" />
<glyph unicode="D" horiz-adv-x="682" d="M92 1v715h180q77 0 140.5 -24t104.5 -61.5t70 -86t41 -96.5t12 -93q0 -47 -10 -93t-36.5 -94t-66.5 -84.5t-105.5 -59.5t-148.5 -23h-181zM157 83q0 -28 3.5 -33.5t21.5 -5.5h91q37 0 74.5 9t76.5 32t68.5 57t48.5 89t19 124q0 66 -18.5 121t-48.5 90.5t-68.5 60 t-76.5 35.5t-75 11q-116 0 -116 -8v-582z" />
<glyph unicode="E" horiz-adv-x="568" d="M94 0v714h415v-42h-352v-287h261v-43h-261v-299h376v-43h-439z" />
<glyph unicode="F" horiz-adv-x="579" d="M94 0v714h462v-44h-398v-285h247v-50h-247v-335h-64z" />
<glyph unicode="G" horiz-adv-x="794" d="M53 359q0 170 98.5 271.5t273.5 101.5q87 0 158.5 -12.5t103.5 -24.5v-67q-7 3 -45.5 18t-59.5 21.5t-65 13.5t-92 7q-145 0 -221 -93.5t-76 -241.5q0 -67 14.5 -120t35 -86t52 -57t57 -35t59.5 -17.5t49.5 -7t36.5 -0.5h2h2q150 0 240 61v210h66v-263q-177 -58 -306 -58 q-383 -4 -383 379z" />
<glyph unicode="H" horiz-adv-x="750" d="M93 0v715h72v-334h452v334h65v-715h-65v336h-452v-336h-72z" />
<glyph unicode="I" horiz-adv-x="259" d="M103 0v715h64v-715h-64z" />
<glyph unicode="J" horiz-adv-x="272" d="M61 -167q33 33 46.5 65.5t13.5 79.5v738h62v-738q0 -50 -13 -86.5t-34 -55.5t-38.5 -27.5t-36.5 -12.5v37z" />
<glyph unicode="K" horiz-adv-x="626" d="M87 0v715h64v-408l351 408h68l-235 -279l289 -436h-78l-254 384l-141 -154v-230h-64z" />
<glyph unicode="L" horiz-adv-x="535" d="M94 0v715h66v-644q0 -20 2.5 -23t19.5 -3h349v-45h-437z" />
<glyph unicode="M" horiz-adv-x="920" d="M92 0v715h122l242 -536q8 -18 18 -22t18 2.5t13 19.5q233 523 238 536h113v-715h-64l-1 675l-273 -591h-74l-286 590q0 -104 -1.5 -330t-1.5 -344h-63z" />
<glyph unicode="N" horiz-adv-x="711" d="M91 0v714h95l397 -638v638h66v-714h-75l-419 673v-673h-64z" />
<glyph unicode="O" d="M47 356q0 182 98 277t279 98q193 -3 284 -96t91 -279q0 -170 -91.5 -273t-283.5 -103q-372 0 -377 376zM125 357q0 -70 15 -126t35 -90t53.5 -58.5t56.5 -35t60 -16.5t46.5 -6h32.5q16 0 30.5 1t48 7.5t60.5 18t60 36t55.5 58.5t38 88.5t15.5 122.5q0 69 -15.5 124 t-37.5 88.5t-56.5 58t-60 35.5t-61 17t-47.5 6.5t-31 0.5q-17 0 -32 -1t-47.5 -7.5t-58.5 -18t-57.5 -36t-52.5 -58.5t-35.5 -88t-14.5 -121z" />
<glyph unicode="P" horiz-adv-x="616" d="M95 -1v715l246 1q68 0 119 -19t79 -50t41.5 -66.5t13.5 -74.5q0 -37 -13 -71t-40.5 -65t-79 -49.5t-120.5 -18.5h-182v-302h-64zM159 347h182q49 0 86 18t55.5 45t27 51.5t8.5 43.5q0 29 -8.5 56t-27 53t-55 41.5t-86.5 15.5h-182v-324z" />
<glyph unicode="Q" horiz-adv-x="821" d="M47 353q0 182 98 277t279 98q193 -3 284 -96t91 -279q0 -162 -85 -262t-268 -114v-33q0 -66 40.5 -100.5t86.5 -39.5v-11q-56 3 -95 21.5t-55 45t-22 46.5t-6 39v32q-343 26 -348 376zM125 354q0 -70 15 -126t35 -90t53.5 -58.5t56.5 -35t60 -16.5t46.5 -6h32.5 q16 0 30.5 1t48 7.5t60.5 18t60 36t55 58.5t37.5 88.5t15.5 122.5q0 54 -9.5 99.5t-24 77.5t-37.5 57.5t-43 41.5t-48.5 27t-46.5 16t-43.5 8t-33.5 3h-22q-17 0 -32 -1t-47.5 -7.5t-58.5 -18t-57.5 -36t-52.5 -58.5t-35.5 -88t-14.5 -121z" />
<glyph unicode="R" horiz-adv-x="662" d="M92 0v715h240q117 0 177 -47t60 -124t-47.5 -121t-107.5 -51q25 -6 43 -16.5t30.5 -28.5t19.5 -31.5t17 -38.5l103 -257h-66q-108 273 -114 286q-29 62 -91 62h-201v-348h-63zM155 397h177q90 0 129.5 42t39.5 96q0 55 -41 95.5t-128 40.5h-177v-274z" />
<glyph unicode="S" horiz-adv-x="588" d="M56 38v66q43 -32 103 -54t124 -22q54 0 98.5 19t70 51.5t25.5 71.5q0 10 -1 18.5t-3 21t-8 23t-14.5 23t-22 23.5t-32 22t-44.5 21.5t-57 18.5q-123 35 -181 81.5t-58 128.5q0 74 66.5 127t182.5 53q142 0 226 -42v-51q-108 50 -227 50q-71 0 -120 -37t-49 -101 q0 -60 38 -92.5t118 -54.5q45 -14 71 -23t67.5 -29.5t64.5 -42.5t41 -58t18 -80q0 -55 -27.5 -95t-72 -59.5t-86.5 -27.5t-84 -8q-142 0 -227 58z" />
<glyph unicode="T" horiz-adv-x="616" d="M12 673v43h609v-43h-267v-673h-67v673h-275z" />
<glyph unicode="U" horiz-adv-x="717" d="M87 314v401h65v-409q0 -272 217 -272q211 0 211 272v409h63v-409q0 -35 -0.5 -53t-5.5 -57t-14.5 -62t-29.5 -54.5t-48.5 -49t-73.5 -30.5t-102 -13q-58 0 -104 13t-75 31t-50 49t-31 56t-15.5 63.5t-6 59.5t-0.5 55z" />
<glyph unicode="V" horiz-adv-x="683" d="M21 715h70l240 -669l240 669h79l-271 -715h-97z" />
<glyph unicode="W" horiz-adv-x="1060" d="M18 715h74l242 -666l172 666h82l168 -668l237 668h76l-260 -715h-97l-165 679l-167 -679h-97z" />
<glyph unicode="X" horiz-adv-x="683" d="M32 -1l285 369l-269 347h78l224 -298l226 298h78l-263 -347l278 -369h-69l-250 321l-248 -321h-70z" />
<glyph unicode="Y" horiz-adv-x="690" d="M29 715h73l250 -396l253 396h74l-289 -447v-269h-72v269z" />
<glyph unicode="Z" horiz-adv-x="655" d="M34 0v67l548 605h-548v43h607v-66l-539 -599h539v-50h-607z" />
<glyph unicode="[" horiz-adv-x="324" d="M90 -213v963h233v-45h-158v-874h158v-44h-233z" />
<glyph unicode="\" horiz-adv-x="347" d="M6 753h47l304 -772h-47z" />
<glyph unicode="]" horiz-adv-x="324" d="M15 -166h158v871h-158v45h232v-962h-232v46z" />
<glyph unicode="^" horiz-adv-x="602" d="M73 289l225 421v1h36q35 -75 116.5 -222.5t111.5 -207.5h-47l-199 393q-55 -117 -116 -234t-76 -150z" />
<glyph unicode="_" horiz-adv-x="500" d="M10 -120h501v-19h-501v19z" />
<glyph unicode="`" horiz-adv-x="222" d="M4 751h78l50 -112h-42z" />
<glyph unicode="a" horiz-adv-x="463" d="M38 148q0 68 37.5 110.5t123.5 42.5q82 0 107.5 4t46.5 23q0 71 -12 104.5t-34 43t-70 9.5q-71 0 -148 -30q-13 36 -17 44q80 34 171 34q82 0 129.5 -44t47.5 -158v-331h-47l-33 37q-43 -22 -79 -33t-92 -11q-59 0 -95 40.5t-36 114.5zM104 147q0 -55 31.5 -83t81.5 -28 q71 0 136 62l2 175q-60 -15 -142 -15q-20 0 -30.5 -0.5t-28 -6.5t-26.5 -16.5t-16.5 -33t-7.5 -54.5z" />
<glyph unicode="b" horiz-adv-x="514" d="M50 794h67v-410q14 53 68 101t124 48q176 0 176 -258q0 -150 -58.5 -218.5t-185.5 -68.5q-95 0 -189 37zM119 63q64 -34 138 -34q159 0 159 246q0 213 -109 213q-45 0 -83 -28.5t-59.5 -69.5t-33.5 -80.5t-12 -68.5v-178z" />
<glyph unicode="c" horiz-adv-x="509" d="M53 263q0 146 68.5 207.5t201.5 61.5q87 0 165 -44v-53q-2 1 -18 8t-19.5 8.5l-17.5 7.5t-19 7.5t-17 6t-19 6t-17.5 4t-19.5 3t-18 0.5q-44 0 -77 -9t-63.5 -31.5t-46.5 -68t-16 -112.5q0 -134 54.5 -184.5t148.5 -50.5q86 0 174 43q0 -20 0.5 -37.5t0.5 -20.5 q-100 -31 -175 -31q-136 0 -203 68t-67 211z" />
<glyph unicode="d" horiz-adv-x="538" d="M52 261q0 141 58.5 208.5t146.5 67.5q72 0 167 -36v292h67v-797h-63q0 2 -2 21.5t-2 50.5q-53 -80 -173 -80q-89 0 -144 65t-55 208zM119 262q0 -230 132 -230q172 0 172 190l1 226q-32 15 -82.5 29t-84.5 14q-138 0 -138 -229z" />
<glyph unicode="e" horiz-adv-x="521" d="M53 247q0 285 235 285q206 0 205 -269l-374 1q0 -49 2 -79.5t11.5 -64.5t27 -52t50 -30.5t78.5 -12.5q54 0 93 25t60 56q13 -10 23 -18t14 -11.5t7 -5.5q-74 -87 -197 -87q-127 0 -180 67t-55 196zM127 305l307 1q-1 70 -33 125q-35 55 -113 55q-81 0 -121 -52t-40 -129z " />
<glyph unicode="f" horiz-adv-x="322" d="M27 475v43h86v45q0 121 48.5 168.5t150.5 47.5q61 0 110 -31l1 -51q-57 30 -111 30q-39 0 -65.5 -8.5t-40.5 -19.5t-20.5 -35t-7.5 -41t-1 -52v-8v-45h129v-43h-129v-475h-64v475h-86z" />
<glyph unicode="g" horiz-adv-x="563" d="M50 263q0 135 53.5 202.5t177.5 67.5q72 0 112 -21.5t72 -69.5l5 76h45v-524q0 -12 -0.5 -22.5t-5 -34.5t-13 -43t-26 -42t-41.5 -38.5t-62.5 -26t-86.5 -10.5q-122 0 -200 91l40 32q19 -20 47 -40q57 -39 113 -39q169 0 169 173v65q-30 -42 -65 -60t-93 -18 q-126 0 -183.5 79.5t-57.5 202.5zM117 263q0 -77 16 -127.5t45 -72.5t54 -29t59 -7q23 0 39.5 2.5t41 15.5t40 36.5t27 70t11.5 111.5q0 46 -6 81.5t-14 59t-23 39.5t-27 24.5t-31 13t-30.5 5t-30.5 0.5h-24.5t-24.5 -2t-26.5 -5.5t-24 -11t-23.5 -18t-18.5 -27.5t-16 -39 t-9.5 -52.5t-4 -67.5z" />
<glyph unicode="h" horiz-adv-x="569" d="M79 0v795h66v-384q20 48 80.5 85t120.5 37q73 0 116.5 -56t43.5 -164v-313h-64v320q0 79 -32 121t-94 42q-68 0 -119.5 -46t-51.5 -106v-331h-66z" />
<glyph unicode="i" horiz-adv-x="229" d="M75 711v85h85v-85h-85zM92 0v518h68v-518h-68z" />
<glyph unicode="j" horiz-adv-x="231" d="M30 -214q1 19 1 45q62 56 62 143v544h68v-534q0 -56 -13.5 -96t-36.5 -60t-41.5 -29t-39.5 -13zM77 711v85h84v-85h-84z" />
<glyph unicode="k" horiz-adv-x="538" d="M86 0v794h68v-383q89 139 220 139q62 0 100 -40.5t38 -99.5q0 -107 -155 -210l152 -200h-79l-130 170l-61 -27v53q50 21 94 47.5t81.5 69.5t37.5 86q0 45 -27.5 72.5t-69.5 27.5q-65 0 -132 -63.5t-69 -138.5v-297h-68z" />
<glyph unicode="l" horiz-adv-x="229" d="M92 0v794h66v-794h-66z" />
<glyph unicode="m" horiz-adv-x="789" d="M74 0v517h59l6 -110q42 126 177 126q86 0 120 -126q24 55 71 90.5t115 35.5q64 0 93.5 -50t29.5 -160l3 -323h-64v330q0 79 -18.5 116.5t-74.5 37.5q-71 0 -108.5 -49t-37.5 -115v-320h-68v320q0 84 -20 124t-71 40q-69 0 -107.5 -57.5t-38.5 -123.5v-303h-66z" />
<glyph unicode="n" horiz-adv-x="562" d="M82 0v518h59l6 -103q19 47 80 82.5t122 35.5q74 0 117 -56t43 -164v-313h-64v320q0 79 -32 121t-94 42q-68 0 -119.5 -46t-51.5 -106v-331h-66z" />
<glyph unicode="o" horiz-adv-x="563" d="M49 261q0 136 54 204t180 68q246 0 246 -272q0 -143 -51.5 -210.5t-183.5 -67.5q-128 0 -186.5 77.5t-58.5 200.5zM118 261q0 -63 11.5 -108t28 -68.5t42.5 -36.5t46 -16t48 -3q25 0 40 1.5t40.5 14t40.5 35t27 69t12 112.5q0 46 -6.5 82.5t-15.5 60t-24.5 40t-28.5 25 t-33 13t-31.5 5t-31.5 0.5q-21 0 -31 -0.5t-31 -4.5t-32.5 -12t-27 -24t-23.5 -39.5t-14 -60.5t-6 -85z" />
<glyph unicode="p" horiz-adv-x="544" d="M78 -213v730h52l12 -120q8 38 62.5 87.5t123.5 49.5q92 0 133 -70.5t41 -203.5q0 -141 -57.5 -204.5t-186.5 -63.5q-45 0 -116 19v-224h-64zM143 71q57 -30 121 -30q54 0 90.5 18.5t53.5 52.5t23.5 68.5t6.5 79.5q0 37 -1.5 65t-8.5 61t-18 54t-32 35.5t-50 14.5 q-58 0 -102 -34t-63.5 -77.5t-19.5 -84.5v-223z" />
<glyph unicode="q" horiz-adv-x="540" d="M53 261q0 141 57.5 204.5t185.5 63.5q93 0 181 -44v-696h-65v320q-80 -121 -185 -121q-92 0 -133 70.5t-41 202.5zM116 261q0 -47 3.5 -81.5t14 -71.5t34 -57t59.5 -20q84 0 134.5 64.5t50.5 131.5v223q-73 39 -140 39q-156 0 -156 -228z" />
<glyph unicode="r" horiz-adv-x="367" d="M78 0v517h55l14 -114q24 62 55.5 95.5t89.5 33.5q46 0 80 -13l-4 -55q-52 16 -76 16q-59 0 -102 -56.5t-43 -175.5v-248h-69z" />
<glyph unicode="s" horiz-adv-x="472" d="M44 43q0 11 0.5 32t0.5 33q124 -73 204 -73q135 0 135 103q0 20 -11 36t-24.5 26.5t-43 22t-48.5 17t-59 16.5q-80 23 -111 56t-31 87q0 21 7.5 41t25.5 41t55.5 34t90.5 13q42 0 85.5 -10t57.5 -16l49 -21q0 -8 0.5 -25t0.5 -23q-123 53 -193 53q-49 0 -78.5 -18.5 t-29.5 -70.5q0 -45 25 -62.5t92 -35.5q109 -27 159.5 -64.5t50.5 -96.5q0 -71 -56 -112t-149 -41q-120 0 -205 58z" />
<glyph unicode="t" horiz-adv-x="344" d="M25 475v43h101q4 25 10.5 77l9.5 76h45v-153h134v-43h-134v-336q0 -67 10.5 -84.5t48.5 -17.5q39 0 73 16v-50q-64 -15 -98 -15q-51 0 -74.5 24t-23.5 92v371h-102z" />
<glyph unicode="u" horiz-adv-x="574" d="M78 197v321h68v-330q0 -82 24.5 -121t87.5 -39q72 0 129.5 49t57.5 127v314h65v-518h-60l-5 108q-23 -60 -76 -92.5t-127 -32.5q-73 0 -118.5 51t-45.5 163z" />
<glyph unicode="v" horiz-adv-x="548" d="M33 518h69l179 -459q1 0 98 229t94 230h67l-226 -518h-63z" />
<glyph unicode="w" horiz-adv-x="787" d="M27 518h63l126 -468q1 0 89 233.5t88 234.5h54l163 -469l110 469h64l-130 -518h-82l-152 477l-170 -477h-77z" />
<glyph unicode="x" horiz-adv-x="511" d="M25 1l201 270l-180 247h78l137 -198l141 198h77l-179 -247l198 -270h-68l-168 222l-166 -222h-71z" />
<glyph unicode="y" horiz-adv-x="535" d="M30 518h68l193 -518l168 518h68l-261 -730h-58l49 160z" />
<glyph unicode="z" horiz-adv-x="458" d="M37 0v53l333 421h-333v44h410v-44l-338 -421h330v-53h-402z" />
<glyph unicode="{" horiz-adv-x="447" d="M66 248v46q82 32 87 102v155q0 103 60 152.5t149 49.5h68v-47h-58q-150 0 -150 -109v-200q0 -37 -16 -69t-47 -38v-38q33 -6 48 -35t15 -67v-210q0 -107 150 -107h58v-46h-68q-42 0 -78 11t-66.5 34t-47.5 65.5t-17 99.5v153q0 11 -2 21t-6.5 18t-8 14.5t-11 12.5 t-11.5 9.5t-13.5 8t-12.5 5.5t-12 5z" />
<glyph unicode="|" horiz-adv-x="229" d="M100 -234v1043h47v-1043h-47z" />
<glyph unicode="}" horiz-adv-x="444" d="M37 -167h58q151 0 151 107v210q0 89 63 101v38q-33 5 -48 37.5t-15 70.5v200q0 109 -151 109h-58v47h68q90 0 150 -49.5t60 -152.5v-154q0 -73 87 -103v-47q-34 -14 -59.5 -39t-27.5 -58v-153q0 -111 -59 -160.5t-151 -49.5h-68v46z" />
<glyph unicode="~" horiz-adv-x="600" d="M106 237q67 31 103 31q47 0 102 -14t108 -14q49 0 99 22v-45q-67 -28 -99 -28q-50 0 -106.5 13.5t-105.5 13.5q-35 0 -99 -19q0 10 -1 21t-1 19z" />
<glyph unicode="&#xa1;" horiz-adv-x="264" d="M96 431v84h84v-84h-84zM106 -4l25 294h21l25 -294v-213h-71v213z" />
<glyph unicode="&#xa2;" horiz-adv-x="509" d="M53 263q0 129 62.5 197.5t172.5 68.5v75h33v-75q93 -8 167 -37l-8 -47q-88 38 -159 45v-462q104 10 176 45q0 -50 1 -59q-95 -27 -177 -30v-108h-33v110q-114 0 -174.5 74t-60.5 203zM120 264q0 -108 46.5 -172.5t121.5 -64.5v463q-64 0 -116 -63.5t-52 -161.5v-1z" />
<glyph unicode="&#xa3;" horiz-adv-x="585" d="M49 0v43q111 16 111 162v155h-49v45h49v174q0 84 56.5 127t134.5 43q69 0 112 -26v-43q-54 25 -104 25q-71 0 -96 -40t-25 -109v-151h113v-45h-113v-155q0 -66 -21 -102t-60 -59l177 -2q193 0 205 156q0 84 -52 136q5 6 14 15.5t12 12.5q63 -62 63 -164 q0 -101 -68 -151.5t-168 -46.5h-291z" />
<glyph unicode="&#xa5;" horiz-adv-x="690" d="M24 731h83l245 -403q133 213 256 403h84l-265 -406h174v-41h-206v-169h206v-40h-206v-75h-74v75h-203v40h203v169h-203v41h171z" />
<glyph unicode="&#xa7;" horiz-adv-x="556" d="M56 267q0 26 6.5 52t22.5 55t47 53.5t75 38.5q-47 28 -66.5 62t-19.5 91q0 22 7 41.5t25 40t55.5 32.5t91.5 12q101 0 193 -46v-49q-107 52 -193 52q-50 0 -80 -18t-30 -70q0 -119 172 -155q75 -16 116.5 -59t41.5 -133q0 -59 -37.5 -113.5t-117.5 -69.5 q121 -47 121 -146q0 -72 -55.5 -111.5t-149.5 -39.5q-18 0 -36 2t-32.5 4.5t-31 7.5t-27 8.5t-25 9.5t-20.5 9l-18 9l-14 7v67q114 -74 204 -74q66 0 102 21.5t36 79.5q0 50 -57.5 91.5t-131.5 41.5q-85 0 -129.5 54.5t-44.5 141.5zM124 288q0 -55 5 -83.5t24.5 -51.5 t57.5 -30.5t104 -7.5q54 0 94.5 42.5t40.5 109.5q0 30 -5 52.5t-12 38.5t-23 26.5t-30 17t-40.5 10t-47 5t-57.5 2.5q-42 0 -76.5 -40.5t-34.5 -90.5z" />
<glyph unicode="&#xa8;" horiz-adv-x="222" d="M-27 609v98h83v-98h-83zM170 609v98h84v-98h-84z" />
<glyph unicode="&#xaa;" horiz-adv-x="277" d="M34 510q0 34 19.5 55.5t62.5 21.5h14h12.5h10t9.5 0.5t7.5 1t7 1.5t6 2.5t6 3.5t5.5 4q0 54 -11 67t-49 13q-44 0 -74 -14l-10 25q40 14 89 14q42 0 65.5 -21.5t23.5 -81.5v-168h-25l-12 23q-23 -26 -66 -26q-49 0 -70 19.5t-21 59.5zM68 510q0 -28 16 -42.5t41 -14.5 q35 0 69 31v89q-19 -8 -68 -8q-15 0 -21.5 -1t-17 -5.5t-15 -16.5t-4.5 -32z" />
<glyph unicode="&#xab;" horiz-adv-x="562" d="M65 282q0 12 12 20l170 121q0 -39 -12 -45l-135 -96q86 -65 131 -93q16 -11 16 -49l-169 122q-13 7 -13 20zM315 282q0 12 12 20l170 121q0 -39 -12 -45l-135 -96q86 -65 131 -93q16 -11 16 -49l-169 122q-13 7 -13 20z" />
<glyph unicode="&#xad;" horiz-adv-x="398" d="M67 253v51h280v-51h-280z" />
<glyph unicode="&#xb0;" horiz-adv-x="400" d="M64 577q0 69 36.5 105t102.5 37q74 -1 107.5 -36.5t33.5 -105.5q0 -64 -34 -102t-107 -38q-139 0 -139 140zM104 577q0 -32 9.5 -55t20.5 -33.5t29 -16t23.5 -5.5h16.5q9 0 17.5 0.5t25.5 6.5t29 16.5t22 33t10 53.5t-10 53.5t-21.5 33t-29.5 16.5t-25.5 6.5t-17.5 0.5 q-9 0 -17 -0.5t-24.5 -6.5t-28 -16.5t-20.5 -33t-9 -53.5z" />
<glyph unicode="&#xb2;" horiz-adv-x="348" d="M39 300q10 134 158 202q87 45 87 116q0 43 -25.5 70t-84.5 27q-58 0 -97 -44q-9 3 -18 10q47 45 116 45q65 0 98 -30.5t33 -77.5q0 -84 -102 -134q-65 -32 -98.5 -70t-33.5 -103h248v-11h-281z" />
<glyph unicode="&#xb3;" horiz-adv-x="341" d="M20 313v19h1q72 -20 137 -20q75 0 109 33.5t34 72.5q0 37 -35 69.5t-96 32.5h-42v13h42q108 0 108 93q0 36 -25.5 61.5t-78.5 25.5q-58 0 -139 -37v14q74 37 139 37q57 0 94.5 -24t37.5 -77q0 -77 -82 -100q111 -21 111 -108q0 -51 -48 -87t-126 -36q-92 0 -141 18z" />
<glyph unicode="&#xb4;" horiz-adv-x="222" d="M73 614l57 128h102l-98 -128h-61z" />
<glyph unicode="&#xb7;" horiz-adv-x="290" d="M106 306v85h85v-85h-85z" />
<glyph unicode="&#xb8;" horiz-adv-x="245" d="M61 -196q24 -10 48 -10q61 0 61 55q0 61 -61 61q-17 0 -37 -5q3 3 11 19l19.5 39t20.5 39h7l-41 -80q60 5 88.5 -18t28.5 -55q0 -65 -81 -73q-41 0 -64 8v20z" />
<glyph unicode="&#xb9;" horiz-adv-x="297" d="M105 708q11 5 35 18h23v-364h-15v353l-26 -4z" />
<glyph unicode="&#xba;" horiz-adv-x="400" d="M64 577q0 69 36.5 105t102.5 37q74 -1 107.5 -36.5t33.5 -105.5q0 -64 -34 -102t-107 -38q-139 0 -139 140zM104 577q0 -32 9.5 -55t20.5 -33.5t29 -16t23.5 -5.5h16.5q9 0 17.5 0.5t25.5 6.5t29 16.5t22 33t10 53.5t-10 53.5t-21.5 33t-29.5 16.5t-25.5 6.5t-17.5 0.5 q-9 0 -17 -0.5t-24.5 -6.5t-28 -16.5t-20.5 -33t-9 -53.5z" />
<glyph unicode="&#xbb;" horiz-adv-x="555" d="M80 140q0 38 16 49q45 28 131 93l-135 96q-12 6 -12 45l170 -121q12 -8 12 -20q0 -13 -13 -20zM330 140q0 38 16 49q45 28 131 93l-135 96q-12 6 -12 45l170 -121q12 -8 12 -20q0 -13 -13 -20z" />
<glyph unicode="&#xbf;" horiz-adv-x="562" d="M80 -59q0 40 18 73.5t37 51.5t62 52q38 29 57.5 46.5t41 53t25.5 75.5h38q-5 -72 -35.5 -117.5t-77.5 -81.5q-32 -27 -47.5 -42t-30.5 -45t-15 -66q0 -58 44 -91.5t133 -33.5q83 0 191 50v-68q-96 -33 -191 -33q-114 0 -182 43.5t-68 132.5zM293 433v84h84v-84h-84z" />
<glyph unicode="&#xc0;" horiz-adv-x="640" d="M11 0l282 715h103l251 -715h-74l-90 272h-292l-111 -272h-69zM201 314h269l-127 368zM256 948h78l50 -112h-42z" />
<glyph unicode="&#xc1;" horiz-adv-x="640" d="M11 0l282 715h103l251 -715h-74l-90 272h-292l-111 -272h-69zM201 314h269l-127 368zM240 811l57 128h102l-98 -128h-61z" />
<glyph unicode="&#xc2;" horiz-adv-x="640" d="M11 0l282 715h103l251 -715h-74l-90 272h-292l-111 -272h-69zM197 822l103 129h39l103 -129h-43l-80 103l-79 -103h-43zM201 314h269l-127 368z" />
<glyph unicode="&#xc3;" horiz-adv-x="640" d="M11 0l282 715h103l251 -715h-74l-90 272h-292l-111 -272h-69zM180 902q12 20 57 20q26 0 78.5 -14t80.5 -14q40 0 63 10v-38q-29 -23 -62 -23q-30 0 -81 13t-81 13t-54 -10zM201 314h269l-127 368z" />
<glyph unicode="&#xc4;" horiz-adv-x="640" d="M11 0l282 715h103l251 -715h-74l-90 272h-292l-111 -272h-69zM179 806v98h83v-98h-83zM201 314h269l-127 368zM376 806v98h84v-98h-84z" />
<glyph unicode="&#xc5;" horiz-adv-x="640" d="M11 0l281 713q-87 21 -87 130q0 34 9 59.5t26.5 42.5t42 26t56.5 9q36 0 62 -9t42.5 -27t24 -42.5t7.5 -58.5q0 -103 -83 -128h4l251 -715h-74l-90 272h-292l-111 -272h-69zM201 314h269l-127 368zM226 843q0 -36 10 -61.5t22.5 -37.5t31 -18.5t27.5 -7t20 -0.5h2 q11 0 20.5 1t29 7.5t33.5 18.5t25 37.5t11 60.5t-11 60.5t-25 37.5t-33.5 18.5t-29 7.5t-20.5 1t-20 -1t-27.5 -7.5t-31.5 -18.5t-23.5 -37.5t-10.5 -60.5z" />
<glyph unicode="&#xc6;" horiz-adv-x="1041" d="M62 1l525 713h432v-42h-346q0 -112 0.5 -197t0.5 -90h256v-43h-256l2 -299h368v-43h-439v273h-281l-206 -272h-56zM347 315h258l2 357z" />
<glyph unicode="&#xc7;" horiz-adv-x="680" d="M59 354q0 90 29 162t79 118.5t116.5 71.5t142.5 25q81 0 192 -33v-61q-109 52 -192 52q-8 0 -20.5 -1t-40.5 -8t-54.5 -19t-57 -37t-53.5 -59t-40 -88.5t-19 -121.5q1 -68 16.5 -122t36.5 -87.5t53 -57.5t56 -34.5t56 -16.5t42.5 -6.5t24.5 -0.5q103 0 199 78v-69 q-89 -60 -199 -60q-17 0 -34 1l-28 -55q60 5 88.5 -18t28.5 -55q0 -65 -81 -73q-41 0 -64 8v20q24 -10 48 -10q61 0 61 55q0 61 -61 61q-17 0 -37 -5q3 3 8 13l14.5 29l15.5 31q-62 5 -114.5 27t-90.5 56.5t-65.5 80t-41 98.5t-14.5 111z" />
<glyph unicode="&#xc8;" horiz-adv-x="568" d="M94 0v714h415v-42h-352v-287h261v-43h-261v-299h376v-43h-439zM220 948h78l50 -112h-42z" />
<glyph unicode="&#xc9;" horiz-adv-x="568" d="M94 0v714h415v-42h-352v-287h261v-43h-261v-299h376v-43h-439zM204 811l57 128h102l-98 -128h-61z" />
<glyph unicode="&#xca;" horiz-adv-x="568" d="M94 0v714h415v-42h-352v-287h261v-43h-261v-299h376v-43h-439zM161 822l103 129h39l103 -129h-43l-80 103l-79 -103h-43z" />
<glyph unicode="&#xcb;" horiz-adv-x="568" d="M94 0v714h415v-42h-352v-287h261v-43h-261v-299h376v-43h-439zM143 806v98h83v-98h-83zM340 806v98h84v-98h-84z" />
<glyph unicode="&#xcc;" horiz-adv-x="259" d="M65 948h78l50 -112h-42zM103 0v715h64v-715h-64z" />
<glyph unicode="&#xcd;" horiz-adv-x="259" d="M53 811l57 128h102l-98 -128h-61zM103 0v715h64v-715h-64z" />
<glyph unicode="&#xce;" horiz-adv-x="259" d="M7 822l103 129h39l103 -129h-43l-80 103l-79 -103h-43zM103 0v715h64v-715h-64z" />
<glyph unicode="&#xcf;" horiz-adv-x="259" d="M-11 806v98h83v-98h-83zM103 0v715h64v-715h-64zM186 806v98h84v-98h-84z" />
<glyph unicode="&#xd1;" horiz-adv-x="711" d="M91 0v714h95l397 -638v638h66v-714h-75l-419 673v-673h-64zM260 902q12 20 57 20q26 0 78.5 -14t80.5 -14q40 0 63 10v-38q-29 -23 -62 -23q-30 0 -81 13t-81 13t-54 -10z" />
<glyph unicode="&#xd2;" d="M47 356q0 182 98 277t279 98q193 -3 284 -96t91 -279q0 -170 -91.5 -273t-283.5 -103q-372 0 -377 376zM125 357q0 -70 15 -126t35 -90t53.5 -58.5t56.5 -35t60 -16.5t46.5 -6h32.5q16 0 30.5 1t48 7.5t60.5 18t60 36t55.5 58.5t38 88.5t15.5 122.5q0 69 -15.5 124 t-37.5 88.5t-56.5 58t-60 35.5t-61 17t-47.5 6.5t-31 0.5q-17 0 -32 -1t-47.5 -7.5t-58.5 -18t-57.5 -36t-52.5 -58.5t-35.5 -88t-14.5 -121zM348 948h78l50 -112h-42z" />
<glyph unicode="&#xd3;" d="M47 356q0 182 98 277t279 98q193 -3 284 -96t91 -279q0 -170 -91.5 -273t-283.5 -103q-372 0 -377 376zM125 357q0 -70 15 -126t35 -90t53.5 -58.5t56.5 -35t60 -16.5t46.5 -6h32.5q16 0 30.5 1t48 7.5t60.5 18t60 36t55.5 58.5t38 88.5t15.5 122.5q0 69 -15.5 124 t-37.5 88.5t-56.5 58t-60 35.5t-61 17t-47.5 6.5t-31 0.5q-17 0 -32 -1t-47.5 -7.5t-58.5 -18t-57.5 -36t-52.5 -58.5t-35.5 -88t-14.5 -121zM332 811l57 128h102l-98 -128h-61z" />
<glyph unicode="&#xd4;" d="M47 356q0 182 98 277t279 98q193 -3 284 -96t91 -279q0 -170 -91.5 -273t-283.5 -103q-372 0 -377 376zM125 357q0 -70 15 -126t35 -90t53.5 -58.5t56.5 -35t60 -16.5t46.5 -6h32.5q16 0 30.5 1t48 7.5t60.5 18t60 36t55.5 58.5t38 88.5t15.5 122.5q0 69 -15.5 124 t-37.5 88.5t-56.5 58t-60 35.5t-61 17t-47.5 6.5t-31 0.5q-17 0 -32 -1t-47.5 -7.5t-58.5 -18t-57.5 -36t-52.5 -58.5t-35.5 -88t-14.5 -121zM289 822l103 129h39l103 -129h-43l-80 103l-79 -103h-43z" />
<glyph unicode="&#xd5;" d="M47 356q0 182 98 277t279 98q193 -3 284 -96t91 -279q0 -170 -91.5 -273t-283.5 -103q-372 0 -377 376zM125 357q0 -70 15 -126t35 -90t53.5 -58.5t56.5 -35t60 -16.5t46.5 -6h32.5q16 0 30.5 1t48 7.5t60.5 18t60 36t55.5 58.5t38 88.5t15.5 122.5q0 69 -15.5 124 t-37.5 88.5t-56.5 58t-60 35.5t-61 17t-47.5 6.5t-31 0.5q-17 0 -32 -1t-47.5 -7.5t-58.5 -18t-57.5 -36t-52.5 -58.5t-35.5 -88t-14.5 -121zM272 902q12 20 57 20q26 0 78.5 -14t80.5 -14q40 0 63 10v-38q-29 -23 -62 -23q-30 0 -81 13t-81 13t-54 -10z" />
<glyph unicode="&#xd6;" d="M47 356q0 182 98 277t279 98q193 -3 284 -96t91 -279q0 -170 -91.5 -273t-283.5 -103q-372 0 -377 376zM125 357q0 -70 15 -126t35 -90t53.5 -58.5t56.5 -35t60 -16.5t46.5 -6h32.5q16 0 30.5 1t48 7.5t60.5 18t60 36t55.5 58.5t38 88.5t15.5 122.5q0 69 -15.5 124 t-37.5 88.5t-56.5 58t-60 35.5t-61 17t-47.5 6.5t-31 0.5q-17 0 -32 -1t-47.5 -7.5t-58.5 -18t-57.5 -36t-52.5 -58.5t-35.5 -88t-14.5 -121zM271 806v98h83v-98h-83zM468 806v98h84v-98h-84z" />
<glyph unicode="&#xd8;" d="M47 356q0 174 104.5 274.5t272.5 100.5q73 0 134 -15q1 3 5.5 9.5t4.5 10.5h19l-10 -24q115 -44 168.5 -130.5t53.5 -225.5q0 -170 -91.5 -273t-283.5 -103q-59 0 -131 12l-4 -12h-17l7 15q-227 76 -232 361zM125 357q0 -227 170 -314q133 334 248 628q-61 16 -120 16 q-18 0 -33 -1t-47.5 -7.5t-58.5 -18t-57 -36t-52 -58.5t-35.5 -88t-14.5 -121zM312 37q44 -12 112 -12q16 0 30.5 1t48 7.5t60.5 18t60 36t55.5 58.5t38 88.5t15.5 122.5q0 215 -173 308z" />
<glyph unicode="&#xd9;" horiz-adv-x="717" d="M87 314v401h65v-409q0 -272 217 -272q211 0 211 272v409h63v-409q0 -35 -0.5 -53t-5.5 -57t-14.5 -62t-29.5 -54.5t-48.5 -49t-73.5 -30.5t-102 -13q-58 0 -104 13t-75 31t-50 49t-31 56t-15.5 63.5t-6 59.5t-0.5 55zM294 948h78l50 -112h-42z" />
<glyph unicode="&#xda;" horiz-adv-x="717" d="M87 314v401h65v-409q0 -272 217 -272q211 0 211 272v409h63v-409q0 -35 -0.5 -53t-5.5 -57t-14.5 -62t-29.5 -54.5t-48.5 -49t-73.5 -30.5t-102 -13q-58 0 -104 13t-75 31t-50 49t-31 56t-15.5 63.5t-6 59.5t-0.5 55zM279 811l57 128h102l-98 -128h-61z" />
<glyph unicode="&#xdb;" horiz-adv-x="717" d="M87 314v401h65v-409q0 -272 217 -272q211 0 211 272v409h63v-409q0 -35 -0.5 -53t-5.5 -57t-14.5 -62t-29.5 -54.5t-48.5 -49t-73.5 -30.5t-102 -13q-58 0 -104 13t-75 31t-50 49t-31 56t-15.5 63.5t-6 59.5t-0.5 55zM236 822l103 129h39l103 -129h-43l-80 103l-79 -103 h-43z" />
<glyph unicode="&#xdc;" horiz-adv-x="717" d="M87 314v401h65v-409q0 -272 217 -272q211 0 211 272v409h63v-409q0 -35 -0.5 -53t-5.5 -57t-14.5 -62t-29.5 -54.5t-48.5 -49t-73.5 -30.5t-102 -13q-58 0 -104 13t-75 31t-50 49t-31 56t-15.5 63.5t-6 59.5t-0.5 55zM218 806v98h83v-98h-83zM415 806v98h84v-98h-84z" />
<glyph unicode="&#xdd;" horiz-adv-x="690" d="M29 715h73l250 -396l253 396h74l-289 -447v-269h-72v269zM265 811l57 128h102l-98 -128h-61z" />
<glyph unicode="&#xdf;" horiz-adv-x="572" d="M77 0v450q0 38 0.5 61.5t3.5 56t8.5 52.5t15 43.5t24.5 37.5t35.5 27t49.5 18.5t65 5.5q34 0 66.5 -8t66 -27t54 -58.5t20.5 -94.5q0 -58 -35 -102.5t-115 -61.5q183 -46 183 -197q0 -54 -15.5 -94t-39 -62t-59 -35t-67 -16.5t-71.5 -3.5v47q174 17 174 166 q0 64 -33.5 105t-136.5 63v52q80 4 118.5 37t38.5 103q0 72 -42 103.5t-107 31.5q-82 0 -106.5 -43t-24.5 -159v-498h-71z" />
<glyph unicode="&#xe0;" horiz-adv-x="463" d="M38 148q0 68 37.5 110.5t123.5 42.5q82 0 107.5 4t46.5 23q0 71 -12 104.5t-34 43t-70 9.5q-71 0 -148 -30q-13 36 -17 44q80 34 171 34q82 0 129.5 -44t47.5 -158v-331h-47l-33 37q-43 -22 -79 -33t-92 -11q-59 0 -95 40.5t-36 114.5zM104 147q0 -55 31.5 -83t81.5 -28 q71 0 136 62l2 175q-60 -15 -142 -15q-20 0 -30.5 -0.5t-28 -6.5t-26.5 -16.5t-16.5 -33t-7.5 -54.5zM167 751h78l50 -112h-42z" />
<glyph unicode="&#xe1;" horiz-adv-x="463" d="M38 148q0 68 37.5 110.5t123.5 42.5q82 0 107.5 4t46.5 23q0 71 -12 104.5t-34 43t-70 9.5q-71 0 -148 -30q-13 36 -17 44q80 34 171 34q82 0 129.5 -44t47.5 -158v-331h-47l-33 37q-43 -22 -79 -33t-92 -11q-59 0 -95 40.5t-36 114.5zM104 147q0 -55 31.5 -83t81.5 -28 q71 0 136 62l2 175q-60 -15 -142 -15q-20 0 -30.5 -0.5t-28 -6.5t-26.5 -16.5t-16.5 -33t-7.5 -54.5zM152 614l57 128h102l-98 -128h-61z" />
<glyph unicode="&#xe2;" horiz-adv-x="463" d="M38 148q0 68 37.5 110.5t123.5 42.5q82 0 107.5 4t46.5 23q0 71 -12 104.5t-34 43t-70 9.5q-71 0 -148 -30q-13 36 -17 44q80 34 171 34q82 0 129.5 -44t47.5 -158v-331h-47l-33 37q-43 -22 -79 -33t-92 -11q-59 0 -95 40.5t-36 114.5zM104 147q0 -55 31.5 -83t81.5 -28 q71 0 136 62l2 175q-60 -15 -142 -15q-20 0 -30.5 -0.5t-28 -6.5t-26.5 -16.5t-16.5 -33t-7.5 -54.5zM109 625l103 129h39l103 -129h-43l-80 103l-79 -103h-43z" />
<glyph unicode="&#xe3;" horiz-adv-x="463" d="M38 148q0 68 37.5 110.5t123.5 42.5q82 0 107.5 4t46.5 23q0 71 -12 104.5t-34 43t-70 9.5q-71 0 -148 -30q-13 36 -17 44q80 34 171 34q82 0 129.5 -44t47.5 -158v-331h-47l-33 37q-43 -22 -79 -33t-92 -11q-59 0 -95 40.5t-36 114.5zM92 705q13 20 57 20q26 0 78.5 -14 t80.5 -14q40 0 63 10v-38q-29 -23 -62 -23q-30 0 -81 13t-81 13t-54 -10zM104 147q0 -55 31.5 -83t81.5 -28q71 0 136 62l2 175q-60 -15 -142 -15q-20 0 -30.5 -0.5t-28 -6.5t-26.5 -16.5t-16.5 -33t-7.5 -54.5z" />
<glyph unicode="&#xe4;" horiz-adv-x="463" d="M38 148q0 68 37.5 110.5t123.5 42.5q82 0 107.5 4t46.5 23q0 71 -12 104.5t-34 43t-70 9.5q-71 0 -148 -30q-13 36 -17 44q80 34 171 34q82 0 129.5 -44t47.5 -158v-331h-47l-33 37q-43 -22 -79 -33t-92 -11q-59 0 -95 40.5t-36 114.5zM91 609v98h83v-98h-83zM104 147 q0 -55 31.5 -83t81.5 -28q71 0 136 62l2 175q-60 -15 -142 -15q-20 0 -30.5 -0.5t-28 -6.5t-26.5 -16.5t-16.5 -33t-7.5 -54.5zM288 609v98h84v-98h-84z" />
<glyph unicode="&#xe5;" horiz-adv-x="463" d="M38 148q0 32 8 58t25.5 48t50 34.5t77.5 12.5q82 0 107.5 4t46.5 23q0 67 -9.5 100t-33.5 46q-31 -19 -80 -19q-51 0 -83 19q-24 -6 -58 -19q-13 36 -17 44q19 8 39 14q-15 31 -15 77q0 67 35 101.5t99 35.5q136 -1 136 -137q0 -49 -19 -81q73 -44 73 -178v-331h-47 l-33 37q-43 -22 -79 -33t-92 -11q-59 0 -95 40.5t-36 114.5zM104 147q0 -28 8.5 -49.5t24 -35t36 -20t44.5 -6.5q71 0 136 62l2 175q-60 -15 -142 -15h-21.5t-21 -2t-21 -6t-17.5 -12t-15 -20t-9 -30t-4 -41zM117 590q0 -43 14 -71q55 14 112 14q54 0 89 -16q17 29 17 73 q0 35 -11 60.5t-25 37.5t-33.5 18.5t-29 7.5t-20.5 1t-20 -1t-27.5 -7.5t-31.5 -18.5t-23.5 -37.5t-10.5 -60.5zM167 479q24 -14 63 -14q2 0 25.5 7.5t39.5 7.5q-20 5 -58 5q-36 0 -70 -6z" />
<glyph unicode="&#xe6;" horiz-adv-x="826" d="M30 224h368q0 37 -0.5 58.5t-4 53.5t-9.5 51t-18 41.5t-29 34.5t-43 20t-59 8q-87 0 -155 -82l-13 10q-17 15 -30 25q77 88 198 88q122 0 200 -91q82 91 194 91q206 0 206 -240h-368q0 -37 0.5 -58.5t4 -53.5t9.5 -51t18 -41.5t29 -34.5t43 -20t59 -8q93 0 153 82 q11 -7 23.5 -18.5t19.5 -16.5q-69 -88 -196 -88q-119 0 -203 90q-81 -90 -191 -90q-98 0 -152 58.5t-54 181.5zM89 183q2 -34 16 -67t48.5 -59.5t82.5 -26.5q79 0 113.5 44t39.5 109h-300zM475 333h302q-5 56 -42.5 104.5t-105.5 48.5q-79 0 -114 -44.5t-40 -108.5z" />
<glyph unicode="&#xe7;" horiz-adv-x="531" d="M56 261q0 145 68.5 206t201.5 61q95 0 165 -36v-56q-84 48 -165 48q-34 0 -61.5 -5t-55 -19.5t-45.5 -38.5t-29.5 -64t-11.5 -94q0 -70 16 -118t45.5 -72.5t63 -34.5t78.5 -10q86 0 174 43q0 -49 1 -60q-101 -29 -175 -29h-29l-20 -54q59 2 86 -19t27 -55 q0 -21 -10 -36.5t-27.5 -24t-41.5 -10.5q-41 0 -67 6v21q21 -10 48 -10q21 0 41 12t20 42q0 62 -61 62q-24 0 -35 -1q5 3 38 67q-239 43 -239 279z" />
<glyph unicode="&#xe8;" horiz-adv-x="521" d="M53 247q0 285 235 285q206 0 205 -269l-374 1q0 -49 2 -79.5t11.5 -64.5t27 -52t50 -30.5t78.5 -12.5q54 0 93 25t60 56q13 -10 23 -18t14 -11.5t7 -5.5q-74 -87 -197 -87q-127 0 -180 67t-55 196zM127 305l307 1q-1 70 -33 125q-35 55 -113 55q-81 0 -121 -52t-40 -129z M196 751h78l50 -112h-42z" />
<glyph unicode="&#xe9;" horiz-adv-x="521" d="M53 247q0 285 235 285q206 0 205 -269l-374 1q0 -49 2 -79.5t11.5 -64.5t27 -52t50 -30.5t78.5 -12.5q54 0 93 25t60 56q13 -10 23 -18t14 -11.5t7 -5.5q-74 -87 -197 -87q-127 0 -180 67t-55 196zM127 305l307 1q-1 70 -33 125q-35 55 -113 55q-81 0 -121 -52t-40 -129z M181 614l57 128h102l-98 -128h-61z" />
<glyph unicode="&#xea;" horiz-adv-x="521" d="M53 247q0 285 235 285q206 0 205 -269l-374 1q0 -49 2 -79.5t11.5 -64.5t27 -52t50 -30.5t78.5 -12.5q54 0 93 25t60 56q13 -10 23 -18t14 -11.5t7 -5.5q-74 -87 -197 -87q-127 0 -180 67t-55 196zM127 305l307 1q-1 70 -33 125q-35 55 -113 55q-81 0 -121 -52t-40 -129z M138 625l103 129h39l103 -129h-43l-80 103l-79 -103h-43z" />
<glyph unicode="&#xeb;" horiz-adv-x="521" d="M53 247q0 285 235 285q206 0 205 -269l-374 1q0 -49 2 -79.5t11.5 -64.5t27 -52t50 -30.5t78.5 -12.5q54 0 93 25t60 56q13 -10 23 -18t14 -11.5t7 -5.5q-74 -87 -197 -87q-127 0 -180 67t-55 196zM120 609v98h83v-98h-83zM127 305l307 1q-1 70 -33 125q-35 55 -113 55 q-81 0 -121 -52t-40 -129zM317 609v98h84v-98h-84z" />
<glyph unicode="&#xec;" horiz-adv-x="241" d="M56 751h78l50 -112h-42zM92 0v518h68v-518h-68z" />
<glyph unicode="&#xed;" horiz-adv-x="241" d="M44 614l57 128h102l-98 -128h-61zM92 0v518h68v-518h-68z" />
<glyph unicode="&#xee;" horiz-adv-x="241" d="M-1 625l103 129h39l103 -129h-43l-80 103l-79 -103h-43zM92 0v518h68v-518h-68z" />
<glyph unicode="&#xef;" horiz-adv-x="241" d="M-20 609v98h83v-98h-83zM92 0v518h68v-518h-68zM177 609v98h84v-98h-84z" />
<glyph unicode="&#xf1;" horiz-adv-x="562" d="M82 0v518h59l6 -103q19 47 80 82.5t122 35.5q74 0 117 -56t43 -164v-313h-64v320q0 79 -32 121t-94 42q-68 0 -119.5 -46t-51.5 -106v-331h-66zM141 705q13 20 57 20q26 0 78.5 -14t80.5 -14q40 0 63 10v-38q-29 -23 -62 -23q-30 0 -81 13t-81 13t-54 -10z" />
<glyph unicode="&#xf2;" horiz-adv-x="563" d="M49 261q0 136 54 204t180 68q246 0 246 -272q0 -143 -51.5 -210.5t-183.5 -67.5q-128 0 -186.5 77.5t-58.5 200.5zM118 261q0 -63 11.5 -108t28 -68.5t42.5 -36.5t46 -16t48 -3q25 0 40 1.5t40.5 14t40.5 35t27 69t12 112.5q0 46 -6.5 82.5t-15.5 60t-24.5 40t-28.5 25 t-33 13t-31.5 5t-31.5 0.5q-21 0 -31 -0.5t-31 -4.5t-32.5 -12t-27 -24t-23.5 -39.5t-14 -60.5t-6 -85zM217 751h78l50 -112h-42z" />
<glyph unicode="&#xf3;" horiz-adv-x="563" d="M49 261q0 136 54 204t180 68q246 0 246 -272q0 -143 -51.5 -210.5t-183.5 -67.5q-128 0 -186.5 77.5t-58.5 200.5zM118 261q0 -63 11.5 -108t28 -68.5t42.5 -36.5t46 -16t48 -3q25 0 40 1.5t40.5 14t40.5 35t27 69t12 112.5q0 46 -6.5 82.5t-15.5 60t-24.5 40t-28.5 25 t-33 13t-31.5 5t-31.5 0.5q-21 0 -31 -0.5t-31 -4.5t-32.5 -12t-27 -24t-23.5 -39.5t-14 -60.5t-6 -85zM202 614l57 128h102l-98 -128h-61z" />
<glyph unicode="&#xf4;" horiz-adv-x="563" d="M49 261q0 136 54 204t180 68q246 0 246 -272q0 -143 -51.5 -210.5t-183.5 -67.5q-128 0 -186.5 77.5t-58.5 200.5zM118 261q0 -63 11.5 -108t28 -68.5t42.5 -36.5t46 -16t48 -3q25 0 40 1.5t40.5 14t40.5 35t27 69t12 112.5q0 46 -6.5 82.5t-15.5 60t-24.5 40t-28.5 25 t-33 13t-31.5 5t-31.5 0.5q-21 0 -31 -0.5t-31 -4.5t-32.5 -12t-27 -24t-23.5 -39.5t-14 -60.5t-6 -85zM159 625l103 129h39l103 -129h-43l-80 103l-79 -103h-43z" />
<glyph unicode="&#xf5;" horiz-adv-x="563" d="M49 261q0 136 54 204t180 68q246 0 246 -272q0 -143 -51.5 -210.5t-183.5 -67.5q-128 0 -186.5 77.5t-58.5 200.5zM118 261q0 -63 11.5 -108t28 -68.5t42.5 -36.5t46 -16t48 -3q25 0 40 1.5t40.5 14t40.5 35t27 69t12 112.5q0 46 -6.5 82.5t-15.5 60t-24.5 40t-28.5 25 t-33 13t-31.5 5t-31.5 0.5q-21 0 -31 -0.5t-31 -4.5t-32.5 -12t-27 -24t-23.5 -39.5t-14 -60.5t-6 -85zM142 705q13 20 57 20q26 0 78.5 -14t80.5 -14q40 0 63 10v-38q-29 -23 -62 -23q-30 0 -81 13t-81 13t-54 -10z" />
<glyph unicode="&#xf6;" horiz-adv-x="563" d="M49 261q0 136 54 204t180 68q246 0 246 -272q0 -143 -51.5 -210.5t-183.5 -67.5q-128 0 -186.5 77.5t-58.5 200.5zM118 261q0 -63 11.5 -108t28 -68.5t42.5 -36.5t46 -16t48 -3q25 0 40 1.5t40.5 14t40.5 35t27 69t12 112.5q0 46 -6.5 82.5t-15.5 60t-24.5 40t-28.5 25 t-33 13t-31.5 5t-31.5 0.5q-21 0 -31 -0.5t-31 -4.5t-32.5 -12t-27 -24t-23.5 -39.5t-14 -60.5t-6 -85zM141 609v98h83v-98h-83zM338 609v98h84v-98h-84z" />
<glyph unicode="&#xf8;" horiz-adv-x="565" d="M49 261q0 136 55.5 204t182.5 68q104 0 156 -41l18 26h11l-22 -32q85 -64 85 -225q0 -142 -53.5 -210t-184.5 -68q-78 0 -135 29q-4 -8 -7 -12l-12 -20h-12l22 37q-53 31 -78.5 99.5t-25.5 144.5zM121 261q0 -114 60 -199l234 381q-18 22 -45.5 32.5t-39.5 11t-43 0.5 q-19 0 -27.5 -0.5t-27.5 -2.5t-29 -8t-25 -16t-23.5 -27t-17 -40t-12.5 -56.5t-4 -75.5zM187 56q40 -27 110 -27q25 0 40 1.5t40.5 14t40.5 35t27 69t12 112.5q0 127 -36 175z" />
<glyph unicode="&#xf9;" horiz-adv-x="574" d="M78 197v321h68v-330q0 -82 24.5 -121t87.5 -39q72 0 129.5 49t57.5 127v314h65v-518h-60l-5 108q-23 -60 -76 -92.5t-127 -32.5q-73 0 -118.5 51t-45.5 163zM223 751h78l50 -112h-42z" />
<glyph unicode="&#xfa;" horiz-adv-x="574" d="M78 197v321h68v-330q0 -82 24.5 -121t87.5 -39q72 0 129.5 49t57.5 127v314h65v-518h-60l-5 108q-23 -60 -76 -92.5t-127 -32.5q-73 0 -118.5 51t-45.5 163zM207 614l57 128h102l-98 -128h-61z" />
<glyph unicode="&#xfb;" horiz-adv-x="574" d="M78 197v321h68v-330q0 -82 24.5 -121t87.5 -39q72 0 129.5 49t57.5 127v314h65v-518h-60l-5 108q-23 -60 -76 -92.5t-127 -32.5q-73 0 -118.5 51t-45.5 163zM164 625l103 129h39l103 -129h-43l-80 103l-79 -103h-43z" />
<glyph unicode="&#xfc;" horiz-adv-x="574" d="M78 197v321h68v-330q0 -82 24.5 -121t87.5 -39q72 0 129.5 49t57.5 127v314h65v-518h-60l-5 108q-23 -60 -76 -92.5t-127 -32.5q-73 0 -118.5 51t-45.5 163zM146 609v98h83v-98h-83zM343 609v98h84v-98h-84z" />
<glyph unicode="&#xfd;" horiz-adv-x="535" d="M30 518h68l193 -518l168 518h68l-261 -730h-58l49 160zM188 614l57 128h102l-98 -128h-61z" />
<glyph unicode="&#xff;" horiz-adv-x="535" d="M30 518h68l193 -518l168 518h68l-261 -730h-58l49 160zM127 609v98h83v-98h-83zM324 609v98h84v-98h-84z" />
<glyph unicode="&#x178;" horiz-adv-x="690" d="M29 715h73l250 -396l253 396h74l-289 -447v-269h-72v269zM204 806v98h83v-98h-83zM401 806v98h84v-98h-84z" />
<glyph unicode="&#x2c6;" horiz-adv-x="240" d="M-1 625l103 129h39l103 -129h-43l-80 103l-79 -103h-43z" />
<glyph unicode="&#x2dc;" horiz-adv-x="222" d="M-18 705q13 20 57 20q26 0 78.5 -14t80.5 -14q40 0 63 10v-38q-29 -23 -62 -23q-30 0 -81 13t-81 13t-54 -10z" />
<glyph unicode="&#x2000;" horiz-adv-x="490" />
<glyph unicode="&#x2001;" horiz-adv-x="980" />
<glyph unicode="&#x2002;" horiz-adv-x="490" />
<glyph unicode="&#x2003;" horiz-adv-x="980" />
<glyph unicode="&#x2004;" horiz-adv-x="326" />
<glyph unicode="&#x2005;" horiz-adv-x="245" />
<glyph unicode="&#x2006;" horiz-adv-x="163" />
<glyph unicode="&#x2007;" horiz-adv-x="163" />
<glyph unicode="&#x2008;" horiz-adv-x="122" />
<glyph unicode="&#x2009;" horiz-adv-x="196" />
<glyph unicode="&#x200a;" horiz-adv-x="54" />
<glyph unicode="&#x2010;" horiz-adv-x="398" d="M67 253v51h280v-51h-280z" />
<glyph unicode="&#x2011;" horiz-adv-x="398" d="M67 253v51h280v-51h-280z" />
<glyph unicode="&#x2012;" horiz-adv-x="398" d="M67 253v51h280v-51h-280z" />
<glyph unicode="&#x2013;" horiz-adv-x="500" d="M12 253v51h499v-51h-499z" />
<glyph unicode="&#x2014;" horiz-adv-x="1000" d="M143 253v51h759v-51h-759z" />
<glyph unicode="&#x2018;" horiz-adv-x="278" d="M91 548q0 157 109 173v-39q-26 -3 -42 -15.5t-22.5 -36t-8.5 -43.5t-2 -54h62v-85h-87q-9 51 -9 100z" />
<glyph unicode="&#x2019;" horiz-adv-x="278" d="M89 449v36q18 2 31.5 8.5t21 19.5t12.5 23.5t6.5 31.5t2 32.5t0.5 36.5h-60v85h87q8 -62 8 -102q0 -148 -109 -171z" />
<glyph unicode="&#x201a;" horiz-adv-x="278" d="M92 -152q27 3 43 16t22 39t7.5 43.5t1.5 53.5h-60v84h87q8 -62 8 -99q0 -156 -109 -172v35z" />
<glyph unicode="&#x201c;" horiz-adv-x="440" d="M73 548q0 151 110 173v-38q-26 -4 -42 -16.5t-23 -36.5t-8.5 -43.5t-1.5 -53.5h62v-85h-87q-10 53 -10 100zM283 548q0 152 108 173v-38q-25 -4 -41 -16.5t-22.5 -36t-8.5 -43.5t-2 -54h60v-85h-87q-7 68 -7 100z" />
<glyph unicode="&#x201d;" horiz-adv-x="444" d="M69 449v36q21 2 36 12.5t22.5 23t11.5 35t4.5 38t0.5 43.5h-60v85h87q8 -78 8 -102q0 -149 -110 -171zM278 449v36q18 2 31.5 8.5t21 19.5t12.5 23.5t6.5 31.5t2 32.5t0.5 36.5h-62v85h88q9 -45 9 -102q0 -151 -109 -171z" />
<glyph unicode="&#x201e;" horiz-adv-x="487" d="M88 -152q26 3 42 16t22 38.5t7.5 44t1.5 53.5h-59v84h86q9 -58 9 -99q0 -156 -109 -172v35zM315 -152q18 2 31 8t20.5 19.5t12 23t6 32t2 32t0.5 36.5q-8 0 -28.5 0.5t-30.5 0.5v84h87q10 -59 10 -99q0 -85 -31.5 -125t-78.5 -47v35z" />
<glyph unicode="&#x2022;" horiz-adv-x="500" d="M78 364q0 75 53 128t128 53t128 -53t53 -128t-53 -128t-128 -53t-128 53t-53 128z" />
<glyph unicode="&#x2026;" horiz-adv-x="813" d="M93 -1v84h85v-84h-85zM387 -1v84h85v-84h-85zM681 -1v84h84v-84h-84z" />
<glyph unicode="&#x202f;" horiz-adv-x="196" />
<glyph unicode="&#x2039;" horiz-adv-x="306" d="M71 282q0 12 12 20l170 121q0 -39 -12 -45l-135 -96q86 -65 131 -93q16 -11 16 -49l-169 122q-13 7 -13 20z" />
<glyph unicode="&#x203a;" horiz-adv-x="311" d="M75 140q0 38 16 49q45 28 131 93l-135 96q-12 6 -12 45l170 -121q12 -8 12 -20q0 -13 -13 -20z" />
<glyph unicode="&#x205f;" horiz-adv-x="245" />
<glyph unicode="&#x20ac;" horiz-adv-x="615" d="M40 271l13 22h59q-6 114 1 167h-73l13 21h61q56 288 288 288q75 0 195 -35v-62q-118 53 -195 53q-31 0 -56 -7.5t-56 -30t-56 -75t-39 -131.5h251l-7 -21h-244q-4 -99 3 -167h193q-2 -15 -5 -22h-187q15 -62 41.5 -107.5t49.5 -65.5t51.5 -31.5t39 -12.5t21.5 -1 q108 0 203 77v-70q-87 -60 -203 -60q-103 0 -180.5 72t-108.5 199h-73z" />
<glyph unicode="&#xe000;" horiz-adv-x="520" d="M0 0v520h520v-520h-520z" />
</font>
</defs>
</svg>
