<?xml version="1.0" standalone="no"?>
<!DOCTYPE svg PUBLIC "-//W3C//DTD SVG 1.1//EN" "http://www.w3.org/Graphics/SVG/1.1/DTD/svg11.dtd" >
<svg xmlns="http://www.w3.org/2000/svg">
<metadata></metadata>
<defs>
<font id="vitaminregular" horiz-adv-x="499" >
<font-face units-per-em="1000" ascent="800" descent="-200" />
<missing-glyph horiz-adv-x="500" />
<glyph horiz-adv-x="1000" />
<glyph horiz-adv-x="1000" />
<glyph unicode="&#xd;" horiz-adv-x="500" />
<glyph unicode=" "  horiz-adv-x="500" />
<glyph unicode="&#x09;" horiz-adv-x="500" />
<glyph unicode="&#xa0;" horiz-adv-x="500" />
<glyph unicode="!" horiz-adv-x="378" d="M223 165q-64 0 -100 127q-29 102 -29 224q0 56 6 80l26 103q33 23 67 56q8 8 41 8q73 0 109 -15q56 -23 56 -85q0 -64 -52 -262q-56 -212 -90 -229q-14 -7 -34 -7zM378 -18q0 -48 -35 -85.5t-83 -37.5q-59 0 -76 6q-29 10 -49 51q-17 34 -17 55q0 6 7 40q13 61 41 81 q25 17 90 17q122 0 122 -127z" />
<glyph unicode="&#x22;" horiz-adv-x="482" d="M516 602q0 -78 -43 -138q-47 -67 -122 -67q-33 0 -53.5 20.5t-20.5 53.5q0 31 17 74q24 59 26 71q-69 62 -69 83q0 20 23 49t43 29q96 -19 139 -49q60 -42 60 -126zM134 445q-18 0 -33 9q-19 11 -19 27q0 14 13 38.5t13 38.5t-35 62t-35 60q0 8 28.5 39t37.5 34 q13 4 44 4q42 0 71.5 -31t29.5 -73q0 -68 -25 -129q-32 -79 -90 -79z" />
<glyph unicode="#" horiz-adv-x="727" d="M709 591q42 0 42 -43q0 -45 -27 -96q-7 -2 -60 -13q-43 -9 -54 -20q13 -31 45 -31q10 0 31 3.5t31 3.5l36 -17l1 -34q2 -52 -29 -78q-7 -6 -55 -26q-29 -12 -29 -38q0 -16 9 -46.5t9 -46.5q0 -28 -10 -51q-41 -19 -99 -19q-64 0 -80 40q-8 20 -8 95q0 7 -5 50 q-46 -5 -55 -7q-13 -3 -13 -13t3 -30.5t3 -30.5q0 -63 -21 -84.5t-83 -21.5q-52 0 -68 28q-9 16 -10.5 67.5t-10.5 71.5q-84 -7 -85 -7q-24 0 -40 16t-16 40q0 47 26 62q13 7 58.5 10t63.5 13v4q0 16 -13 44q-31 2 -94 8q-58 8 -58 57q0 77 83 77q24 0 66 -7q-11 76 -11 103 q0 84 113 84l32 -6q6 -9 18 -87q10 -65 31 -65q41 0 41 44q0 8 -1.5 24t-1.5 24q0 72 40 98q31 21 107 21q62 0 62 -34q0 -20 -25 -66.5t-25 -63.5q0 -33 32 -33q15 0 52 13.5t52 13.5zM441 367q0 8 1.5 23.5t1.5 23.5q0 18 -23 36q-4 2 -8 2q-7 0 -23 -14q-19 -17 -25 -19 q-12 -31 -12 -54q0 -27 24 -27q64 0 64 29z" />
<glyph unicode="$" horiz-adv-x="590" d="M620 95q0 -118 -224 -173q-3 -43 -5 -53q-6 -27 -21 -48l-80 22q-47 20 -47 59q0 25 11 58q-24 0 -69.5 -18t-69.5 -18q-36 0 -40 42q-14 18 -14 46l5 21l-3 2q-2 30 15 56.5t46 26.5q32 0 72 -8q55 -11 71 -15q10 36 10 40q0 -2 -48 13q-138 42 -138 167q0 53 35 105 q38 57 88 59q-1 14 -12 43t-11 45q0 30 32 49q27 17 59 17q14 0 44 -12q16 -27 13 -111q62 9 86 9q103 0 103 -90q0 -41 -7 -67l-15 -9l-116 -8q5 -44 4 -63q55 -6 109 -12q72 -13 93 -44q24 -37 24 -131zM453 117q0 14 -17 25t-32 11q-18 0 -21 -27q0 -6 1 -41q69 22 69 32 zM204 312q0 -15 29 -24q22 -7 41 -7q1 5 0 26q-1 22 -3 27q-4 14 -18 14q-15 0 -32 -11t-17 -25z" />
<glyph unicode="'" horiz-adv-x="338" d="M189 487q-48 0 -48 24q0 19 21 55.5t21 52.5q0 15 -21 24q-36 15 -43 20q-25 19 -34 58q23 68 130 68q147 0 147 -125q0 -70 -52 -123.5t-121 -53.5z" />
<glyph unicode="(" horiz-adv-x="447" d="M479 651q0 -75 -66 -132q-41 -28 -122 -86q-66 -49 -66 -117q0 -50 60 -99q51 -34 102 -69q70 -53 70 -89q0 -50 -55.5 -97t-106.5 -47q-117 0 -187 100q-62 88 -62 210q0 219 166 391q14 14 63 51q42 31 57 54l23 9q40 0 78 -20q46 -23 46 -59z" />
<glyph unicode=")" horiz-adv-x="437" d="M465 164q0 -123 -66 -209q-72 -95 -191 -95q-47 0 -100.5 48.5t-53.5 95.5q0 38 59 80l111 79q60 54 60 118q0 52 -66 100q-23 17 -122 85q-66 55 -66 118q0 39 43 67q38 25 79 25l27 -9q8 -13 59 -47q103 -69 166 -201q61 -126 61 -255z" />
<glyph unicode="*" horiz-adv-x="452" d="M365 192q-59 0 -113 22q-69 28 -69 80t32 73q6 4 77 31q21 8 25 9q6 0 30 -9l76 -28q30 -19 30 -73q0 -41 -24 -73t-64 -32z" />
<glyph unicode="+" horiz-adv-x="598" d="M227 171l-50 -2q-93 0 -93 125q0 41 15.5 60t54.5 19q11 0 33.5 -1t33.5 -1q19 0 20 2q3 12 1 29q-4 28 -4 29q0 16 -5.5 47t-5.5 47q0 42 51 66q40 19 88 19q65 0 65 -67q0 -19 -5.5 -57.5t-5.5 -57.5q0 -47 32 -47q9 0 28 3t28 3q53 0 88.5 -32.5t35.5 -85.5 q0 -33 -42 -43q-11 -2 -77 -8q-41 -3 -41 -19q0 -19 24 -66t24 -74l-3 -23q-34 -31 -91 -55q-60 -25 -103 -25q-45 6 -56 63l-8 102q-4 51 -32 50z" />
<glyph unicode="," horiz-adv-x="363" d="M180 -184q-47 0 -47 25q0 19 20.5 55t20.5 52t-20 24q-33 14 -43 21q-26 19 -34 57q24 69 129 69q148 0 148 -126q0 -70 -52.5 -123.5t-121.5 -53.5z" />
<glyph unicode="-" d="M501 288q0 -43 -25 -70t-68 -27q-13 0 -39 4.5t-39 4.5q-24 0 -70.5 -11t-70.5 -11q-75 0 -81 48q-7 7 -14 41q-7 30 -7 44q0 29 12 51q8 15 123 44q110 28 139 28q63 0 101.5 -41.5t38.5 -104.5z" />
<glyph unicode="." horiz-adv-x="344" d="M281 -165q-60 0 -113 22q-69 29 -69 80q0 53 32 74q5 3 77 31q23 9 26 9q2 0 28 -9.5t77 -27.5q30 -19 30 -73q0 -41 -23 -72q-25 -34 -65 -34z" />
<glyph unicode="0" horiz-adv-x="726" d="M741 186q0 -103 -54 -169q-58 -72 -159 -72q-147 0 -276 44q-178 61 -178 177q0 99 110.5 205t209.5 106q138 0 238 -75q109 -82 109 -216zM530 200q0 26 -15 54q-17 32 -41 32q-6 0 -15 -4.5t-12 -5.5q-8 0 -25 -3q-19 -8 -30.5 -29.5t-11.5 -43.5q0 -27 18.5 -51 t44.5 -24q87 0 87 75z" />
<glyph unicode="1" horiz-adv-x="496" d="M488 224q0 -141 -41 -197q-50 -69 -188 -69q-30 0 -30 72v13q1 11 1 18v33q0 68 -18 95q-6 9 -18 9q-10 0 -36 -10t-38 -10q-23 0 -49 18.5t-26 40.5q0 5 2 10q-13 26 -13 52q0 67 153 123q127 47 212 47q89 0 89 -117v-128z" />
<glyph unicode="2" horiz-adv-x="662" d="M239 -73q-67 0 -113.5 45.5t-46.5 111.5q0 89 50 143q31 33 116.5 78t118.5 77q-12 39 -49 39q-30 0 -86.5 -26.5t-87.5 -26.5t-52.5 25.5t-21.5 57.5q0 83 137 125q96 29 207 29q81 0 140 -48q63 -51 63 -130q0 -34 -89 -94q-97 -65 -110 -106q115 41 166 41 q49 0 80 -50q27 -43 27 -95q0 -38 -200 -119q-191 -77 -249 -77z" />
<glyph unicode="3" horiz-adv-x="591" d="M612 141q0 -88 -105 -172q-99 -80 -190 -80q-56 0 -96 17l-86 46q-93 87 -93 128t47 86.5t88 45.5q11 0 57.5 -43.5t57.5 -43.5q35 0 70.5 30t35.5 65q0 69 -28 76q-8 2 -16 2q-24 0 -71 -24t-71 -25q-45 30 -45 66q0 25 34 52q38 30 42 48l24 28q-78 0 -103 1 q-74 3 -96 21l-1 36q-1 54 43 115q24 10 64 10q63 0 152 -16q120 -22 120 -53q0 -23 -16 -54q-11 -22 -25 -52q100 -32 155 -119q52 -82 52 -191z" />
<glyph unicode="4" horiz-adv-x="648" d="M641 450q20 0 41 -20q-8 -128 -27 -162q-5 -10 -43 -23q-42 -15 -52 -24q-27 -23 -27 -70q0 -29 7.5 -86t7.5 -86q0 -99 -147 -99q-72 0 -72 184q0 21 2.5 62.5t2.5 62.5l-11 23q-135 -77 -193 -77l-59 48q-41 37 -41 58q0 86 23 185q27 114 69 171q24 17 69 17 q67 0 75 -120q1 -25 4 -76q42 -3 59 61q27 100 39 121q40 66 135 66q33 0 50 -12l6 -40q0 -23 -13 -68.5t-13 -68.5q0 -43 30 -43q13 0 39 8t39 8z" />
<glyph unicode="5" horiz-adv-x="617" d="M272 276q-29 0 -84 -15.5t-83 -15.5q-81 0 -81 110q0 120 15 176q12 43 192 89q160 41 231 41q30 0 46 -37q13 -30 11 -64l-2 -44q-23 -11 -84 -16t-86 -16q-42 -19 -42 -63l7 -25q17 3 81 24q50 16 82 16q72 0 122 -49.5t50 -120.5q0 -115 -76 -195q-77 -83 -191 -83 q-69 0 -159 39q-107 46 -107 105q0 24 39 53t65 29q9 0 34 -12t37 -12q27 0 27 30q0 20 -12.5 38t-31.5 18z" />
<glyph unicode="6" horiz-adv-x="608" d="M633 239q0 -114 -95 -192q-89 -73 -206 -73q-86 0 -171 49q-98 57 -97 136q-18 24 -18 77q0 126 86 270q97 162 213 162q30 0 62.5 -28.5t32.5 -57.5q0 -44 -44 -70q-28 -12 -83 -37q-45 -23 -45 -66q134 60 202 60q41 0 84 -35q37 -31 57 -73q22 -88 22 -122zM400 241 q0 28 -23 60t-50 32q-53 0 -79 -26q0 -5 -1 -16t-1 -16q0 -35 16 -56q9 -12 45 -36q18 -12 22 -12q23 0 47 23.5t24 46.5z" />
<glyph unicode="7" horiz-adv-x="525" d="M563 526q0 -46 -40 -106l-75 -108q-40 -61 -40 -118q0 -43 32 -125.5t32 -122.5q0 -39 -41 -65q-36 -23 -77 -23q-68 0 -140 37q-84 43 -84 104q0 67 52 152q34 52 101 156q56 89 62 154l-15 11q-47 -1 -65.5 -21t-18.5 -66v-10q1 -10 1 -16v-28q0 -27 -43 -39 q-29 -9 -64 -9q-90 0 -90 95q0 33 5 77q1 2 29 49q65 110 311 110q168 0 168 -88z" />
<glyph unicode="8" horiz-adv-x="645" d="M676 118q0 -109 -121 -178q-103 -59 -219 -59q-109 0 -190 35q-108 47 -108 141q0 109 47 182q21 33 125 141q-1 17 -14 50.5t-13 51.5q0 61 43.5 100.5t105.5 39.5q100 0 150 -21q76 -32 76 -117q0 -21 -7 -63t-7 -63q0 -28 34 -69l63 -75q35 -42 35 -96zM399 351 q17 0 28 26q9 21 9 41q0 23 -11 43q-13 25 -34 25q-25 0 -25 -59q0 -22 7 -45q9 -31 26 -31zM545 120q0 31 -33.5 72t-63.5 41q-7 0 -19 -5q-15 -5 -19 -6q-32 -34 -32 -98q0 -66 53 -66q33 0 69 16q45 20 45 46z" />
<glyph unicode="9" horiz-adv-x="618" d="M641 295q0 -161 -104.5 -260t-266.5 -99q-57 0 -119 29q-73 34 -73 85l13 44q9 4 34 28q18 17 50 17q17 0 48.5 -11t48.5 -11q23 0 38 16l2 24q-16 26 -81 37q-77 13 -104 30q-52 33 -52 117q0 237 207 237q141 0 243 -69q116 -79 116 -214zM346 295q40 0 40 36 q0 58 -42 58q-28 0 -28 -49q0 -45 30 -45z" />
<glyph unicode=":" horiz-adv-x="352" d="M262 273q-60 0 -113 22q-69 29 -69 80q0 53 32 74q5 3 78 31q21 8 25 9q2 0 28 -9.5t77 -27.5q30 -19 30 -73q0 -42 -22 -73q-25 -33 -66 -33zM357 162q0 -55 -51 -89q-45 -30 -103 -30q-94 0 -94 98q0 22 24 60.5t44 36.5q41 -5 65 -5q40 0 73 -16q42 -20 42 -55z" />
<glyph unicode=";" horiz-adv-x="324" d="M315 348q0 -44 -39 -54q-15 -4 -76 -4q-112 0 -130 45q-13 7 -13 33q0 35 32 64q27 25 65 36q11 1 31 7q19 10 17 10q50 0 83 -45q30 -40 30 -92zM174 -49q-48 0 -48 24q0 19 21 55t21 52q0 15 -21 24q-31 13 -42 21q-26 19 -35 58q25 68 130 68q147 0 147 -126 q0 -70 -52 -123t-121 -53z" />
<glyph unicode="&#x3c;" horiz-adv-x="461" d="M494 -8q0 -29 -24 -46.5t-54 -17.5q-87 0 -234 95q-155 100 -155 182q0 58 96 196q94 135 150 165q53 29 100 29q41 0 74 -21q38 -24 38 -63q0 -38 -66 -85q-42 -28 -126 -87q-71 -51 -79 -102q23 -36 99 -74q104 -52 122 -65q59 -44 59 -106z" />
<glyph unicode="=" horiz-adv-x="589" d="M86 355q0 53 30 68q167 84 292 84q50 0 81 -24q35 -26 35 -74q0 -62 -71 -62q-18 0 -55 5.5t-55 5.5q-46 0 -114.5 -39t-97.5 -39q-12 0 -27 10.5t-15 21.5q0 3 2 2q-5 22 -5 41zM301 56q-204 0 -204 111q0 7 5 21.5t3 25.5q34 30 112 30q33 0 97.5 -15.5t97.5 -15.5 q25 0 71 26.5t68 26.5q24 0 42.5 -17.5t18.5 -41.5q0 -79 -122 -121q-88 -30 -189 -30z" />
<glyph unicode="&#x3e;" horiz-adv-x="470" d="M493 210q0 -90 -150 -189q-141 -93 -237 -93q-34 0 -57 18.5t-23 51.5q0 50 73 105q36 27 135 81q73 40 73 53q0 23 -62 83q-58 56 -85 70q-7 11 -42 31q-38 22 -54 37q-27 26 -27 60t38 57q32 20 69 20q79 0 148 -63q39 -35 105 -129q96 -136 96 -193z" />
<glyph unicode="@" horiz-adv-x="614" d="M634 453q0 -175 -97 -175q-107 0 -154 65q-31 -67 -80 -67q-39 0 -64 18q-28 20 -28 58q0 61 46 113t107 58q13 1 47 -32q45 -43 60 -100h28q16 21 16 50q0 47 -29 96q-9 15 -60 82l-44 2q-70 3 -150 -101q-76 -99 -76 -174q0 -65 46 -115t111 -50q55 0 94 21 q21 11 48 37q22 21 37 21q35 0 64 -33.5t29 -68.5q0 -76 -72.5 -147.5t-148.5 -71.5q-139 0 -224 126q-75 111 -75 256q0 165 82 281q92 131 250 131q123 0 183 -81q54 -72 54 -199zM322 341q6 7 6 23q0 35 -19 54q-19 -35 -19 -53q0 -24 23 -24h9z" />
<glyph unicode="A" horiz-adv-x="669" d="M710 67q0 -47 -74 -92q-66 -40 -118 -40q-25 40 -84 114q-33 6 -41 6q-55 0 -76 -53q-32 -79 -50 -98q-52 -53 -185 -53q-29 0 -46 33q-13 27 -13 59q23 148 71 310q63 214 127 274q8 38 106 68q80 24 135 24q62 0 62 -79q0 -21 -5 -63t-5 -63q0 -51 50 -122 q32 -42 95 -127q51 -69 51 -98zM406 216q-1 10 -4 28q-20 57 -49 57l-4 -1q-9 -1 -26 -42q-31 -74 -31 -81q0 -9 7 -8q66 5 107 47z" />
<glyph unicode="B" horiz-adv-x="576" d="M447 302q0 -11 62.5 -63t62.5 -82t-27 -66q-15 -19 -46 -58v-4q-68 -80 -115 -115q-75 -57 -148 -57q-93 0 -143 84q-42 70 -42 169q0 57 8 101l21 116l-4 1q7 45 7 90q0 87 35 183q44 121 115 121q127 0 219 -16q162 -28 162 -100q0 -96 -44 -158q-20 -28 -80 -77 q-43 -35 -43 -69zM368 440q0 13 -9.5 24t-22.5 11q-7 0 -27.5 -8.5t-24.5 -13.5q-16 -16 -16 -54q0 -29 15 -56q20 0 59 51q26 34 26 46zM323 228q-23 0 -50 -24q-8 -80 -8 -70q0 -20 8 -31q5 -3 53.5 17.5t48.5 37.5q0 10 -12 35t-20 30t-20 5z" />
<glyph unicode="C" horiz-adv-x="620" d="M501 179q-103 0 -127 11q-9 4 -16 36q-7 36 -55 70q-6 4 -11 4q-23 0 -23 -112q0 -64 30 -88l53 -2q18 -1 52.5 6.5t51.5 7.5q72 0 98 -18q-2 -14 -2 -31q0 -18 4 -54t4 -54q0 -82 -82 -111q-50 -17 -153 -17t-204.5 94.5t-101.5 197.5q0 383 212 426q118 24 134 24 q92 0 174 -33q106 -43 106 -121q0 -112 -18 -158q-31 -78 -126 -78z" />
<glyph unicode="D" horiz-adv-x="671" d="M689 318q0 -142 -55 -232q-51 -82 -177 -163q-155 -99 -260 -99q-33 0 -57 26t-35 346l-10 390q36 61 87 61q127 0 281 -53q188 -65 213 -160q13 -49 13 -116zM314 332q-8 0 -23.5 -9.5t-15.5 -16.5q0 -27 30.5 -117t47.5 -114q40 12 75 31q52 28 52 54q0 46 -17 88 q-19 49 -53.5 66.5t-95.5 17.5z" />
<glyph unicode="E" horiz-adv-x="623" d="M642 329q-37 -23 -165 -28q-122 -4 -154 -39q-5 -5 -5 -15q0 -11 7 -23.5t17.5 -14t21.5 -1.5q25 0 73 11.5t73 11.5q36 0 46 -27q6 -16 6 -57q0 -49 -33 -82q-13 -13 -192 -67.5t-208 -54.5q-68 0 -68 131q0 91 28.5 271t28.5 271q0 40 -4 78q34 69 116 69 q278 0 278 -71l-6 -32q-27 -28 -83 -45q-88 -26 -92 -29q-4 -23 -4 -41l14 -28h49l3 3q76 7 161 7q57 0 78 -8q39 -15 39 -61q0 -11 2 -33.5t2 -33.5q0 -44 -29 -62z" />
<glyph unicode="F" horiz-adv-x="614" d="M640 289q0 -57 -29 -76q-15 -10 -65.5 -19t-73.5 -31q2 -18 16 -64q12 -40 12 -64q0 -53 -114 -131q-108 -74 -166 -74l-33 6q-22 46 -45 352q-21 274 -21 382q0 26 -5.5 77t-5.5 77l18 45q36 16 87 16q126 0 211 -32q120 -45 120 -146q0 -76 -19 -94q-5 -5 -48 -13 t-68 -37q-6 -7 -6 -24q0 -22 10 -55q11 -37 26 -47.5t40 -10.5q17 0 51.5 7t52.5 7q26 0 47 -17z" />
<glyph unicode="G" horiz-adv-x="677" d="M709 417q-15 -4 -44 -13q-35 -10 -35 -19q0 -35 28 -100t28 -100q0 -59 -195 -157q-183 -92 -256 -92q-45 0 -82 54q-23 34 -54 106q-28 64 -39 74q-23 180 -23 220q0 20 1 39q-4 40 -4 58q0 130 36 176q48 61 184 96q109 28 213 28q102 0 102 -198q0 -37 -57 -60 q-46 -19 -90 -19q-21 0 -34 27q-16 32 -27 40q-49 -11 -76 -63q-17 -33 -31 -98q16 -32 55 -64l65 -53q16 13 16 42q0 16 -12.5 51.5t-12.5 51.5q0 12 5 19q237 55 287 55l36 -11q16 -38 16 -90z" />
<glyph unicode="H" horiz-adv-x="629" d="M537 -85q-86 0 -113 35q-12 16 -23 88t-34 106q-3 5 -8 5q-9 0 -48 -46q0 -30 12.5 -89t12.5 -89q0 -36 -14 -57q-75 -28 -205 -28q-95 0 -95 92q0 72 34.5 211.5t34.5 211.5q0 66 18 164l30 162q50 56 134 56q62 0 81 -66q9 -32 9 -117q0 -21 6 -42q11 -3 37 -2 q34 2 41 13q9 26 27 76q15 40 61 40q56 0 79 -9q38 -15 38 -62q0 -159 -23 -362q-33 -291 -92 -291z" />
<glyph unicode="I" horiz-adv-x="467" d="M461 606q0 -149 -129 -149q-52 0 -119 15q-89 20 -99 50q-4 12 -4 32q0 23 9 68t9 68q0 29 39 48q33 15 66 15q31 0 115 -13q67 -10 72 -12q41 -13 41 -49v-73zM101 369q177 53 220 53q69 0 90 -21q15 -16 36 -94q25 -93 23 -126l-1 -18q-42 -35 -158 -76.5t-171 -41.5 q-10 0 -16 1q-28 5 -29 80l-1 90l1 87q1 4 0 35q-1 24 6 31z" />
<glyph unicode="J" horiz-adv-x="621" d="M465 563q-14 0 -42 3t-42 3q-19 0 -56 -4.5t-56 -4.5q-11 0 -23 6q-32 49 -32 108v34q6 17 6 33q0 5 -1 13v9q0 14 44 21q26 2 53 5q26 3 110 -7q88 -10 100 -21q28 -25 28 -90q0 -55 -16 -79q-20 -29 -73 -29zM661 101q0 -93 -45 -180q-54 -104 -137 -104h-103 q-66 0 -185 28q-135 32 -165 66q-7 43 -7 49q0 29 16 47q2 70 49 97q36 22 111 22l29 -6q33 -89 68 -89q24 0 52 22.5t28 46.5q0 52 -9 74l-62 216q-11 6 -22 43q-10 33 -10 50q0 19 44 28q30 6 62 6q162 0 204 -43q15 -15 49 -178q33 -158 33 -195z" />
<glyph unicode="K" horiz-adv-x="762" d="M811 243q0 -21 -9 -48q-58 -114 -105 -114q-45 0 -135 49q-103 56 -139 64q13 -68 13 -95q0 -70 -108 -123q-93 -46 -170 -46q-52 0 -73 64l-24 105q2 2 2 14q0 22 -4.5 66.5t-4.5 67.5q1 93 8 178q11 131 32 151q115 79 143 79q22 0 38 -36q8 -17 20 -72q11 -51 19 -63 q20 4 47 52q35 62 63 86q53 45 138 45q23 0 70 -12l5 -20q0 -25 -26.5 -68t-26.5 -63q0 -22 113.5 -126.5t113.5 -134.5z" />
<glyph unicode="L" horiz-adv-x="550" d="M171 642q72 60 106 60q54 0 92 -21q48 -26 48 -75q0 -55 -32.5 -161.5t-32.5 -161.5l7 -31q29 -24 50 -24q11 0 24 5q29 -11 87 -32q67 -26 67 -44q0 -103 -87 -177q-83 -70 -188 -70q-106 0 -189 59q-91 64 -89 167q1 54 3 83q6 63 20 79l-4 1l34 131q22 87 43 128 q12 24 41 84z" />
<glyph unicode="M" horiz-adv-x="962" d="M980 215q-101 -75 -152 -75q-27 0 -68.5 46t-56.5 46q-8 0 -14 -4q-39 -26 -52 -105q-7 -50 -23 -122q-25 -57 -99 -54l-49 2q-45 44 -66 151q-22 116 -51 159l-33 6q-11 -19 -18.5 -70t-15.5 -69q-16 -35 -52 -35q-78 0 -136 29q-73 36 -73 107q0 196 59 389l-4 2 q6 32 69 116q138 17 191 17q96 0 146 -74q18 -27 68 -158q1 -14 4 -14q5 8 35 66q97 187 253 187q39 0 69.5 -35t30.5 -75q0 -11 -3 -21q13 -27 17 -69q2 -35 4 -71l3 -3q17 -175 17 -269z" />
<glyph unicode="N" horiz-adv-x="903" d="M925 337q0 -39 -76.5 -258t-92.5 -226q-28 -12 -79 -12q-108 0 -179 82q-31 35 -93 156q-46 89 -89 98q1 -36 15 -109t14 -112q0 -91 -66 -91q-88 0 -156 21q-101 31 -101 97v171q3 98 22 168q3 166 53 196l36 7q145 0 332 -132q65 -46 67 -46q14 0 44 43q43 63 60 80 q43 44 88 44q43 0 122 -67.5t79 -109.5z" />
<glyph unicode="O" horiz-adv-x="777" d="M437 65q-167 0 -290 117q-127 121 -121 286q2 59 71 124q66 65 126 72q16 2 92 16q60 11 92 11q381 0 381 -238q0 -159 -95 -270q-99 -118 -256 -118zM331 444h-36q-32 -1 -35 -1q-12 -3 -29 -18l-1 -28q0 -40 63 -78q57 -36 100 -36q35 0 70 26.5t35 60.5q0 30 -70 54 q-58 20 -97 20z" />
<glyph unicode="P" horiz-adv-x="702" d="M738 441q0 -152 -81 -215q-33 -26 -151 -60q-81 -24 -81 -80q0 -15 6.5 -47t5.5 -49l-2 -43q-44 -37 -136 -37q-85 0 -137 140v0q-75 222 -108 350v0q-30 103 -30 156l9 39q65 67 148 67q11 0 37 -1q23 -1 36 0q39 -55 59 -55q32 0 95.5 14.5t95.5 14.5q114 0 169 -39 q65 -45 65 -155zM460 307q-1 5 -5 24q-10 48 -17 60q-15 24 -54 24q-40 0 -61 -14q-10 -7 -23.5 -47t-13.5 -56q0 -26 12 -54q34 1 92 19q70 22 70 44z" />
<glyph unicode="Q" horiz-adv-x="702" d="M372 609q-8 0 -28 -12q-138 -82 -138 -199q0 -47 17 -54q24 -7 47 -13q-2 20 -5 47q-6 20 -21 63q15 50 43 50q15 0 43 -14q32 -16 44 -18q29 27 29 97q0 53 -31 53zM722 350q0 -251 -127 -251q-34 0 -94.5 45t-76.5 45l-70 -43q-71 -43 -121 -43q-105 0 -160 89 q-47 75 -47 186q0 123 93 241q97 125 217 129v0q164 17 197 17q67 0 116 -30q58 -36 58 -98q0 -49 -30 -105q-9 -17 -57 -87q-31 -45 -33 -69q14 -5 30 -6q11 -1 31 0q24 2 31 2q9 0 26 -7.5t17 -14.5z" />
<glyph unicode="R" horiz-adv-x="823" d="M651 -72l-38 -4q-29 0 -127.5 61.5t-137.5 61.5l-21 -12q-1 -15 -1 -83q0 -42 -46 -67q-39 -22 -84 -22q-71 0 -97 76q-16 46 -16 135q0 134 -34 369q42 79 172 111q55 14 214 27q130 11 159 11q109 0 162 -36q65 -43 65 -147q0 -66 -100 -172q2 -13 53 -47.5t51 -64.5 q0 -34 -37 -72q-14 -15 -75 -63q-46 -37 -62 -62zM408 326q-118 0 -118 -51q0 -35 8 -73q12 -55 34 -55q36 0 87.5 54t51.5 90q0 17 -24 27q-19 8 -39 8z" />
<glyph unicode="S" horiz-adv-x="715" d="M748 364q0 -150 -173 -221q-126 -52 -302 -52q-235 0 -235 95q0 54 21 95q26 51 75 51q63 0 84 -12q9 -5 15.5 -27.5t25.5 -33.5q101 35 101 86q-116 14 -192 48q-115 51 -115 137q15 90 188 159q146 58 259 58h90q106 0 104 -74l-1 -30q-10 -9 -102 -33q-76 -20 -73 -52 q27 -32 91 -53q78 -26 96 -40q43 -32 43 -101z" />
<glyph unicode="T" horiz-adv-x="684" d="M720 518q-2 -92 -36 -121q-6 -5 -61 -24q-33 -11 -33 -60q0 -28 8 -84t8 -84v-72q0 -62 -27 -91t-89 -29q-65 0 -157 51q-102 57 -102 116q0 27 24.5 90t24.5 97q0 26 -14 42l-32 3q-24 0 -69 -13.5t-69 -13.5q-35 0 -55 41q-17 33 -17 72q0 75 84 99l142 26q43 14 41 14 q324 0 408 -32z" />
<glyph unicode="U" horiz-adv-x="703" d="M719 536q0 -106 -27 -245q-34 -175 -85 -218q-33 -28 -105 -28q-29 0 -153.5 22.5t-152.5 32.5q-84 31 -117 75.5t-33 132.5q0 71 33 172q47 143 52 168q8 6 34 39q19 25 41 25q68 0 145 -23q100 -30 100 -81q0 -30 -14 -91.5t-13 -94.5l2 -55l26 -4q85 0 85 39 q0 26 -17.5 75t-17.5 75q0 32 20.5 57.5t51.5 25.5q145 0 145 -99z" />
<glyph unicode="V" horiz-adv-x="736" d="M647 -1q0 -48 -113 -96q-97 -41 -157 -41q-42 0 -120 104q-74 99 -80 147q-149 276 -149 306q0 42 43 92t84 50t94 -93q61 -106 98 -125q46 55 64 149q17 87 48 113q54 45 214 45q34 0 79 -15q24 -32 24 -85q0 -82 -52 -196q-67 -148 -78 -189q-6 -23 -6 -53 q0 -19 3.5 -56.5t3.5 -56.5z" />
<glyph unicode="W" horiz-adv-x="876" d="M572 -24q-55 0 -79 33q-10 14 -27 73q-14 50 -40 74q-45 3 -70 -40l-44 -80q-30 -44 -76 -44q-187 0 -187 228q0 52 -15.5 156t-15.5 156q0 16 9.5 44t10.5 41q28 11 62 11q39 0 61 -72l22 -105l29 -24q30 26 41 91t37 84q51 36 201 36q60 0 92 -81q4 -9 46 -129l25 -5 q15 20 32 77q18 64 29 84q23 41 59 41q131 0 131 -64q0 -65 -47 -282q-50 -230 -77 -256q-50 -47 -209 -47z" />
<glyph unicode="X" horiz-adv-x="801" d="M655 46q-37 0 -91.5 57t-69.5 57q-30 0 -57 -51l-51 -96q-37 -52 -89 -52q-54 0 -147 68q-96 70 -96 121q0 31 40 56q25 15 76 44q40 30 40 68q0 56 -43 92q-27 16 -80 50q-42 28 -42 68t83 123.5t122 83.5q30 0 50 -60q36 -106 42 -118q35 -70 99 -90q43 35 69 112 q28 83 50 107q43 48 143 48q24 0 39 -20.5t15 -45.5q0 -24 -52.5 -99.5t-52.5 -111.5q0 -11 54 -44q72 -45 99 -66q53 -43 53 -80q0 -53 -75.5 -137t-127.5 -84z" />
<glyph unicode="Y" horiz-adv-x="681" d="M730 558q0 -35 -65 -74q-41 -23 -121 -68q-66 -38 -66 -60q0 -43 78 -138t78 -121q0 -65 -152 -120q-129 -47 -210 -47q-27 0 -101 11q-33 51 -33 124q0 48 30 140.5t30 140.5q0 39 -43 90q-27 30 -79 92q-43 55 -43 111q0 54 44 91q41 36 96 36t76 -53l22 -106 q14 -63 51 -78q18 31 38.5 101t36.5 101q29 54 62 54q64 0 166 -81q105 -84 105 -146z" />
<glyph unicode="Z" horiz-adv-x="700" d="M708 425q0 -28 -89 -81q-55 -32 -165 -97q-89 -55 -89 -88q0 -18 58 -35q48 -14 75 -14q20 0 20 15q0 6 -3.5 19t-3.5 19q0 100 83 100q46 0 59 -43q6 -26 19 -79q27 -100 27 -135q0 -85 -208 -85q-181 0 -268 10q-201 23 -201 98q0 101 77 191q43 50 142 122 q77 56 77 75q0 29 -23 63q-88 0 -100 -30q-2 -17 -8 -51.5t-29 -34.5q-59 0 -77 11q-25 15 -25 71q0 59 3 82q7 54 47 85q31 23 91 36q52 10 103 20q178 38 235 38q77 0 129 -106q44 -90 44 -176z" />
<glyph unicode="[" horiz-adv-x="396" d="M424 685q0 -33 -35 -151l-119 -26q-64 -23 -64 -89q0 -178 32 -281q17 0 50.5 4t50.5 4q37 0 61 -32.5t24 -71.5q0 -33 -122 -100q-117 -64 -158 -64q-56 0 -87 155q-21 107 -21 203q0 404 75 460q20 15 88 21q32 3 97 8q26 1 72 -9q56 -12 56 -31z" />
<glyph unicode="]" horiz-adv-x="429" d="M424 290q0 -127 -16 -233q-27 -179 -89 -179q-43 0 -159 63q-122 66 -122 101q0 40 26 73t65 33q15 0 44 -5t44 -5h6q34 104 34 280q0 76 -106 100q-26 5 -79 16q-35 118 -35 151q0 17 39 33q35 14 54 14l113 -10q83 -10 107 -26q74 -49 74 -406z" />
<glyph unicode="a" horiz-adv-x="669" d="M710 67q0 -47 -74 -92q-66 -40 -118 -40q-25 40 -84 114q-33 6 -41 6q-55 0 -76 -53q-32 -79 -50 -98q-52 -53 -185 -53q-29 0 -46 33q-13 27 -13 59q23 148 71 310q63 214 127 274q8 38 106 68q80 24 135 24q62 0 62 -79q0 -21 -5 -63t-5 -63q0 -51 50 -122 q32 -42 95 -127q51 -69 51 -98zM406 216q-1 10 -4 28q-20 57 -49 57l-4 -1q-9 -1 -26 -42q-31 -74 -31 -81q0 -9 7 -8q66 5 107 47z" />
<glyph unicode="b" horiz-adv-x="576" d="M447 302q0 -11 62.5 -63t62.5 -82t-27 -66q-15 -19 -46 -58v-4q-68 -80 -115 -115q-75 -57 -148 -57q-93 0 -143 84q-42 70 -42 169q0 57 8 101l21 116l-4 1q7 45 7 90q0 87 35 183q44 121 115 121q127 0 219 -16q162 -28 162 -100q0 -96 -44 -158q-20 -28 -80 -77 q-43 -35 -43 -69zM368 440q0 13 -9.5 24t-22.5 11q-7 0 -27.5 -8.5t-24.5 -13.5q-16 -16 -16 -54q0 -29 15 -56q20 0 59 51q26 34 26 46zM323 228q-23 0 -50 -24q-8 -80 -8 -70q0 -20 8 -31q5 -3 53.5 17.5t48.5 37.5q0 10 -12 35t-20 30t-20 5z" />
<glyph unicode="c" horiz-adv-x="620" d="M501 179q-103 0 -127 11q-9 4 -16 36q-7 36 -55 70q-6 4 -11 4q-23 0 -23 -112q0 -64 30 -88l53 -2q18 -1 52.5 6.5t51.5 7.5q72 0 98 -18q-2 -14 -2 -31q0 -18 4 -54t4 -54q0 -82 -82 -111q-50 -17 -153 -17t-204.5 94.5t-101.5 197.5q0 383 212 426q118 24 134 24 q92 0 174 -33q106 -43 106 -121q0 -112 -18 -158q-31 -78 -126 -78z" />
<glyph unicode="d" horiz-adv-x="671" d="M689 318q0 -142 -55 -232q-51 -82 -177 -163q-155 -99 -260 -99q-33 0 -57 26t-35 346l-10 390q36 61 87 61q127 0 281 -53q188 -65 213 -160q13 -49 13 -116zM314 332q-8 0 -23.5 -9.5t-15.5 -16.5q0 -27 30.5 -117t47.5 -114q40 12 75 31q52 28 52 54q0 46 -17 88 q-19 49 -53.5 66.5t-95.5 17.5z" />
<glyph unicode="e" horiz-adv-x="623" d="M642 329q-37 -23 -165 -28q-122 -4 -154 -39q-5 -5 -5 -15q0 -11 7 -23.5t17.5 -14t21.5 -1.5q25 0 73 11.5t73 11.5q36 0 46 -27q6 -16 6 -57q0 -49 -33 -82q-13 -13 -192 -67.5t-208 -54.5q-68 0 -68 131q0 91 28.5 271t28.5 271q0 40 -4 78q34 69 116 69 q278 0 278 -71l-6 -32q-27 -28 -83 -45q-88 -26 -92 -29q-4 -23 -4 -41l14 -28h49l3 3q76 7 161 7q57 0 78 -8q39 -15 39 -61q0 -11 2 -33.5t2 -33.5q0 -44 -29 -62z" />
<glyph unicode="f" horiz-adv-x="614" d="M640 289q0 -57 -29 -76q-15 -10 -65.5 -19t-73.5 -31q2 -18 16 -64q12 -40 12 -64q0 -53 -114 -131q-108 -74 -166 -74l-33 6q-22 46 -45 352q-21 274 -21 382q0 26 -5.5 77t-5.5 77l18 45q36 16 87 16q126 0 211 -32q120 -45 120 -146q0 -76 -19 -94q-5 -5 -48 -13 t-68 -37q-6 -7 -6 -24q0 -22 10 -55q11 -37 26 -47.5t40 -10.5q17 0 51.5 7t52.5 7q26 0 47 -17z" />
<glyph unicode="g" horiz-adv-x="677" d="M709 417q-15 -4 -44 -13q-35 -10 -35 -19q0 -35 28 -100t28 -100q0 -59 -195 -157q-183 -92 -256 -92q-45 0 -82 54q-23 34 -54 106q-28 64 -39 74q-23 180 -23 220q0 20 1 39q-4 40 -4 58q0 130 36 176q48 61 184 96q109 28 213 28q102 0 102 -198q0 -37 -57 -60 q-46 -19 -90 -19q-21 0 -34 27q-16 32 -27 40q-49 -11 -76 -63q-17 -33 -31 -98q16 -32 55 -64l65 -53q16 13 16 42q0 16 -12.5 51.5t-12.5 51.5q0 12 5 19q237 55 287 55l36 -11q16 -38 16 -90z" />
<glyph unicode="h" horiz-adv-x="629" d="M537 -85q-86 0 -113 35q-12 16 -23 88t-34 106q-3 5 -8 5q-9 0 -48 -46q0 -30 12.5 -89t12.5 -89q0 -36 -14 -57q-75 -28 -205 -28q-95 0 -95 92q0 72 34.5 211.5t34.5 211.5q0 66 18 164l30 162q50 56 134 56q62 0 81 -66q9 -32 9 -117q0 -21 6 -42q11 -3 37 -2 q34 2 41 13q9 26 27 76q15 40 61 40q56 0 79 -9q38 -15 38 -62q0 -159 -23 -362q-33 -291 -92 -291z" />
<glyph unicode="i" horiz-adv-x="467" d="M461 606q0 -149 -129 -149q-52 0 -119 15q-89 20 -99 50q-4 12 -4 32q0 23 9 68t9 68q0 29 39 48q33 15 66 15q31 0 115 -13q67 -10 72 -12q41 -13 41 -49v-73zM101 369q177 53 220 53q69 0 90 -21q15 -16 36 -94q25 -93 23 -126l-1 -18q-42 -35 -158 -76.5t-171 -41.5 q-10 0 -16 1q-28 5 -29 80l-1 90l1 87q1 4 0 35q-1 24 6 31z" />
<glyph unicode="j" horiz-adv-x="621" d="M465 563q-14 0 -42 3t-42 3q-19 0 -56 -4.5t-56 -4.5q-11 0 -23 6q-32 49 -32 108v34q6 17 6 33q0 5 -1 13v9q0 14 44 21q26 2 53 5q26 3 110 -7q88 -10 100 -21q28 -25 28 -90q0 -55 -16 -79q-20 -29 -73 -29zM661 101q0 -93 -45 -180q-54 -104 -137 -104h-103 q-66 0 -185 28q-135 32 -165 66q-7 43 -7 49q0 29 16 47q2 70 49 97q36 22 111 22l29 -6q33 -89 68 -89q24 0 52 22.5t28 46.5q0 52 -9 74l-62 216q-11 6 -22 43q-10 33 -10 50q0 19 44 28q30 6 62 6q162 0 204 -43q15 -15 49 -178q33 -158 33 -195z" />
<glyph unicode="k" horiz-adv-x="762" d="M811 243q0 -21 -9 -48q-58 -114 -105 -114q-45 0 -135 49q-103 56 -139 64q13 -68 13 -95q0 -70 -108 -123q-93 -46 -170 -46q-52 0 -73 64l-24 105q2 2 2 14q0 22 -4.5 66.5t-4.5 67.5q1 93 8 178q11 131 32 151q115 79 143 79q22 0 38 -36q8 -17 20 -72q11 -51 19 -63 q20 4 47 52q35 62 63 86q53 45 138 45q23 0 70 -12l5 -20q0 -25 -26.5 -68t-26.5 -63q0 -22 113.5 -126.5t113.5 -134.5z" />
<glyph unicode="l" horiz-adv-x="550" d="M171 642q72 60 106 60q54 0 92 -21q48 -26 48 -75q0 -55 -32.5 -161.5t-32.5 -161.5l7 -31q29 -24 50 -24q11 0 24 5q29 -11 87 -32q67 -26 67 -44q0 -103 -87 -177q-83 -70 -188 -70q-106 0 -189 59q-91 64 -89 167q1 54 3 83q6 63 20 79l-4 1l34 131q22 87 43 128 q12 24 41 84z" />
<glyph unicode="m" horiz-adv-x="962" d="M980 215q-101 -75 -152 -75q-27 0 -68.5 46t-56.5 46q-8 0 -14 -4q-39 -26 -52 -105q-7 -50 -23 -122q-25 -57 -99 -54l-49 2q-45 44 -66 151q-22 116 -51 159l-33 6q-11 -19 -18.5 -70t-15.5 -69q-16 -35 -52 -35q-78 0 -136 29q-73 36 -73 107q0 196 59 389l-4 2 q6 32 69 116q138 17 191 17q96 0 146 -74q18 -27 68 -158q1 -14 4 -14q5 8 35 66q97 187 253 187q39 0 69.5 -35t30.5 -75q0 -11 -3 -21q13 -27 17 -69q2 -35 4 -71l3 -3q17 -175 17 -269z" />
<glyph unicode="n" horiz-adv-x="903" d="M925 337q0 -39 -76.5 -258t-92.5 -226q-28 -12 -79 -12q-108 0 -179 82q-31 35 -93 156q-46 89 -89 98q1 -36 15 -109t14 -112q0 -91 -66 -91q-88 0 -156 21q-101 31 -101 97v171q3 98 22 168q3 166 53 196l36 7q145 0 332 -132q65 -46 67 -46q14 0 44 43q43 63 60 80 q43 44 88 44q43 0 122 -67.5t79 -109.5z" />
<glyph unicode="o" horiz-adv-x="777" d="M437 65q-167 0 -290 117q-127 121 -121 286q2 59 71 124q66 65 126 72q16 2 92 16q60 11 92 11q381 0 381 -238q0 -159 -95 -270q-99 -118 -256 -118zM331 444h-36q-32 -1 -35 -1q-12 -3 -29 -18l-1 -28q0 -40 63 -78q57 -36 100 -36q35 0 70 26.5t35 60.5q0 30 -70 54 q-58 20 -97 20z" />
<glyph unicode="p" horiz-adv-x="702" d="M738 441q0 -152 -81 -215q-33 -26 -151 -60q-81 -24 -81 -80q0 -15 6.5 -47t5.5 -49l-2 -43q-44 -37 -136 -37q-85 0 -137 140v0q-75 222 -108 350v0q-30 103 -30 156l9 39q65 67 148 67q11 0 37 -1q23 -1 36 0q39 -55 59 -55q32 0 95.5 14.5t95.5 14.5q114 0 169 -39 q65 -45 65 -155zM460 307q-1 5 -5 24q-10 48 -17 60q-15 24 -54 24q-40 0 -61 -14q-10 -7 -23.5 -47t-13.5 -56q0 -26 12 -54q34 1 92 19q70 22 70 44z" />
<glyph unicode="q" horiz-adv-x="702" d="M372 609q-8 0 -28 -12q-138 -82 -138 -199q0 -47 17 -54q24 -7 47 -13q-2 20 -5 47q-6 20 -21 63q15 50 43 50q15 0 43 -14q32 -16 44 -18q29 27 29 97q0 53 -31 53zM722 350q0 -251 -127 -251q-34 0 -94.5 45t-76.5 45l-70 -43q-71 -43 -121 -43q-105 0 -160 89 q-47 75 -47 186q0 123 93 241q97 125 217 129v0q164 17 197 17q67 0 116 -30q58 -36 58 -98q0 -49 -30 -105q-9 -17 -57 -87q-31 -45 -33 -69q14 -5 30 -6q11 -1 31 0q24 2 31 2q9 0 26 -7.5t17 -14.5z" />
<glyph unicode="r" horiz-adv-x="823" d="M651 -72l-38 -4q-29 0 -127.5 61.5t-137.5 61.5l-21 -12q-1 -15 -1 -83q0 -42 -46 -67q-39 -22 -84 -22q-71 0 -97 76q-16 46 -16 135q0 134 -34 369q42 79 172 111q55 14 214 27q130 11 159 11q109 0 162 -36q65 -43 65 -147q0 -66 -100 -172q2 -13 53 -47.5t51 -64.5 q0 -34 -37 -72q-14 -15 -75 -63q-46 -37 -62 -62zM408 326q-118 0 -118 -51q0 -35 8 -73q12 -55 34 -55q36 0 87.5 54t51.5 90q0 17 -24 27q-19 8 -39 8z" />
<glyph unicode="s" horiz-adv-x="715" d="M748 364q0 -150 -173 -221q-126 -52 -302 -52q-235 0 -235 95q0 54 21 95q26 51 75 51q63 0 84 -12q9 -5 15.5 -27.5t25.5 -33.5q101 35 101 86q-116 14 -192 48q-115 51 -115 137q15 90 188 159q146 58 259 58h90q106 0 104 -74l-1 -30q-10 -9 -102 -33q-76 -20 -73 -52 q27 -32 91 -53q78 -26 96 -40q43 -32 43 -101z" />
<glyph unicode="t" horiz-adv-x="684" d="M720 518q-2 -92 -36 -121q-6 -5 -61 -24q-33 -11 -33 -60q0 -28 8 -84t8 -84v-72q0 -62 -27 -91t-89 -29q-65 0 -157 51q-102 57 -102 116q0 27 24.5 90t24.5 97q0 26 -14 42l-32 3q-24 0 -69 -13.5t-69 -13.5q-35 0 -55 41q-17 33 -17 72q0 75 84 99l142 26q43 14 41 14 q324 0 408 -32z" />
<glyph unicode="u" horiz-adv-x="703" d="M719 536q0 -106 -27 -245q-34 -175 -85 -218q-33 -28 -105 -28q-29 0 -153.5 22.5t-152.5 32.5q-84 31 -117 75.5t-33 132.5q0 71 33 172q47 143 52 168q8 6 34 39q19 25 41 25q68 0 145 -23q100 -30 100 -81q0 -30 -14 -91.5t-13 -94.5l2 -55l26 -4q85 0 85 39 q0 26 -17.5 75t-17.5 75q0 32 20.5 57.5t51.5 25.5q145 0 145 -99z" />
<glyph unicode="v" horiz-adv-x="736" d="M647 -1q0 -48 -113 -96q-97 -41 -157 -41q-42 0 -120 104q-74 99 -80 147q-149 276 -149 306q0 42 43 92t84 50t94 -93q61 -106 98 -125q46 55 64 149q17 87 48 113q54 45 214 45q34 0 79 -15q24 -32 24 -85q0 -82 -52 -196q-67 -148 -78 -189q-6 -23 -6 -53 q0 -19 3.5 -56.5t3.5 -56.5z" />
<glyph unicode="w" horiz-adv-x="876" d="M572 -24q-55 0 -79 33q-10 14 -27 73q-14 50 -40 74q-45 3 -70 -40l-44 -80q-30 -44 -76 -44q-187 0 -187 228q0 52 -15.5 156t-15.5 156q0 16 9.5 44t10.5 41q28 11 62 11q39 0 61 -72l22 -105l29 -24q30 26 41 91t37 84q51 36 201 36q60 0 92 -81q4 -9 46 -129l25 -5 q15 20 32 77q18 64 29 84q23 41 59 41q131 0 131 -64q0 -65 -47 -282q-50 -230 -77 -256q-50 -47 -209 -47z" />
<glyph unicode="x" horiz-adv-x="801" d="M655 46q-37 0 -91.5 57t-69.5 57q-30 0 -57 -51l-51 -96q-37 -52 -89 -52q-54 0 -147 68q-96 70 -96 121q0 31 40 56q25 15 76 44q40 30 40 68q0 56 -43 92q-27 16 -80 50q-42 28 -42 68t83 123.5t122 83.5q30 0 50 -60q36 -106 42 -118q35 -70 99 -90q43 35 69 112 q28 83 50 107q43 48 143 48q24 0 39 -20.5t15 -45.5q0 -24 -52.5 -99.5t-52.5 -111.5q0 -11 54 -44q72 -45 99 -66q53 -43 53 -80q0 -53 -75.5 -137t-127.5 -84z" />
<glyph unicode="y" horiz-adv-x="681" d="M730 558q0 -35 -65 -74q-41 -23 -121 -68q-66 -38 -66 -60q0 -43 78 -138t78 -121q0 -65 -152 -120q-129 -47 -210 -47q-27 0 -101 11q-33 51 -33 124q0 48 30 140.5t30 140.5q0 39 -43 90q-27 30 -79 92q-43 55 -43 111q0 54 44 91q41 36 96 36t76 -53l22 -106 q14 -63 51 -78q18 31 38.5 101t36.5 101q29 54 62 54q64 0 166 -81q105 -84 105 -146z" />
<glyph unicode="z" horiz-adv-x="700" d="M708 425q0 -28 -89 -81q-55 -32 -165 -97q-89 -55 -89 -88q0 -18 58 -35q48 -14 75 -14q20 0 20 15q0 6 -3.5 19t-3.5 19q0 100 83 100q46 0 59 -43q6 -26 19 -79q27 -100 27 -135q0 -85 -208 -85q-181 0 -268 10q-201 23 -201 98q0 101 77 191q43 50 142 122 q77 56 77 75q0 29 -23 63q-88 0 -100 -30q-2 -17 -8 -51.5t-29 -34.5q-59 0 -77 11q-25 15 -25 71q0 59 3 82q7 54 47 85q31 23 91 36q52 10 103 20q178 38 235 38q77 0 129 -106q44 -90 44 -176z" />
<glyph unicode="&#xa3;" horiz-adv-x="1000" />
<glyph unicode="&#xad;" d="M501 288q0 -43 -25 -70t-68 -27q-13 0 -39 4.5t-39 4.5q-24 0 -70.5 -11t-70.5 -11q-75 0 -81 48q-7 7 -14 41q-7 30 -7 44q0 29 12 51q8 15 123 44q110 28 139 28q63 0 101.5 -41.5t38.5 -104.5z" />
<glyph unicode="&#x2000;" horiz-adv-x="394" />
<glyph unicode="&#x2001;" horiz-adv-x="789" />
<glyph unicode="&#x2002;" horiz-adv-x="394" />
<glyph unicode="&#x2003;" horiz-adv-x="789" />
<glyph unicode="&#x2004;" horiz-adv-x="263" />
<glyph unicode="&#x2005;" horiz-adv-x="197" />
<glyph unicode="&#x2006;" horiz-adv-x="131" />
<glyph unicode="&#x2007;" horiz-adv-x="131" />
<glyph unicode="&#x2008;" horiz-adv-x="98" />
<glyph unicode="&#x2009;" horiz-adv-x="157" />
<glyph unicode="&#x200a;" horiz-adv-x="43" />
<glyph unicode="&#x2010;" d="M501 288q0 -43 -25 -70t-68 -27q-13 0 -39 4.5t-39 4.5q-24 0 -70.5 -11t-70.5 -11q-75 0 -81 48q-7 7 -14 41q-7 30 -7 44q0 29 12 51q8 15 123 44q110 28 139 28q63 0 101.5 -41.5t38.5 -104.5z" />
<glyph unicode="&#x2011;" d="M501 288q0 -43 -25 -70t-68 -27q-13 0 -39 4.5t-39 4.5q-24 0 -70.5 -11t-70.5 -11q-75 0 -81 48q-7 7 -14 41q-7 30 -7 44q0 29 12 51q8 15 123 44q110 28 139 28q63 0 101.5 -41.5t38.5 -104.5z" />
<glyph unicode="&#x2012;" d="M501 288q0 -43 -25 -70t-68 -27q-13 0 -39 4.5t-39 4.5q-24 0 -70.5 -11t-70.5 -11q-75 0 -81 48q-7 7 -14 41q-7 30 -7 44q0 29 12 51q8 15 123 44q110 28 139 28q63 0 101.5 -41.5t38.5 -104.5z" />
<glyph unicode="&#x2013;" horiz-adv-x="585" d="M587 288q0 -43 -30 -70t-82 -27q-16 0 -47.5 4.5t-47.5 4.5q-29 0 -85 -11t-85 -11q-90 0 -98 48q-8 7 -17 41q-8 30 -8 44q0 29 14 51q10 15 149 44q133 28 168 28q76 0 122.5 -41.5t46.5 -104.5z" />
<glyph unicode="&#x2014;" horiz-adv-x="1085" d="M1087 288q0 -43 -60.5 -70t-164.5 -27q-31 0 -94 4.5t-94 4.5q-58 0 -170.5 -11t-170.5 -11q-181 0 -195 48q-17 7 -34 41q-17 30 -17 44q0 29 29 51q19 15 297 44q266 28 336 28q152 0 245 -41.5t93 -104.5z" />
<glyph unicode="&#x202f;" horiz-adv-x="157" />
<glyph unicode="&#x205f;" horiz-adv-x="197" />
<glyph unicode="&#xe000;" horiz-adv-x="735" d="M0 735h735v-735h-735v735z" />
</font>
</defs>
</svg>
