<?xml version="1.0" standalone="no"?>
<!DOCTYPE svg PUBLIC "-//W3C//DTD SVG 1.1//EN" "http://www.w3.org/Graphics/SVG/1.1/DTD/svg11.dtd" >
<svg xmlns="http://www.w3.org/2000/svg">
<metadata></metadata>
<defs>
<font id="caudexbold" horiz-adv-x="1024" >
<font-face units-per-em="2048" ascent="1638" descent="-410" />
<missing-glyph horiz-adv-x="550" />
<glyph horiz-adv-x="2048" />
<glyph horiz-adv-x="2048" />
<glyph unicode="&#xd;" horiz-adv-x="550" />
<glyph unicode=" "  horiz-adv-x="550" />
<glyph unicode="&#x09;" horiz-adv-x="550" />
<glyph unicode="&#xa0;" horiz-adv-x="550" />
<glyph unicode="!" horiz-adv-x="498" d="M319 374q0 -43 -50 -43h-21q-49 0 -49 43l-70 955v11q0 84 98 84h63q99 0 99 -85v-10zM259 250q135 0 135 -107v-82q0 -106 -135 -106t-135 106v82q0 107 135 107z" />
<glyph unicode="&#x22;" horiz-adv-x="834" d="M247 968q0 -31 -44 -31h-15q-43 0 -43 31l-52 440v5q0 50 79 50h47q79 0 79 -49v-6zM619 968q0 -31 -43 -31h-15q-43 0 -43 31l-52 440v5q0 50 79 50h47q79 0 79 -51v-4z" />
<glyph unicode="#" horiz-adv-x="1128" d="M358 18v343h-254q-39 0 -39 30v85q0 30 39 30h254v235h-254q-39 0 -39 30v85q0 30 39 30h254v343q0 37 35 37h85q35 0 35 -37v-343h137v343q0 37 36 37h84q36 0 36 -37v-343h253q40 0 40 -30v-85q0 -30 -40 -30h-253v-235h253q40 0 40 -30v-85q0 -30 -40 -30h-253v-343 q0 -38 -36 -38h-84q-36 0 -36 38v343h-137v-343q0 -38 -35 -38h-85q-35 0 -35 38zM513 741v-235h137v235h-137z" />
<glyph unicode="$" d="M467 1524h46q48 0 48 -43v-104q186 0 364 -115l-24 -208q-4 -36 -40 -36q-8 0 -12 1q-24 2 -41 39q-38 80 -109.5 135.5t-137.5 57.5v-465q31 -5 87.5 -14t110.5 -25q98 -30 151 -86q39 -43 59 -91q27 -63 27 -142q0 -209 -170 -348q-89 -73 -196 -107q-42 -13 -69 -18 v-168q0 -43 -48 -43h-46q-48 0 -48 43v154h-3q-147 0 -282 42l-93 260l2 27q6 35 45 35h5q26 -5 44 -40q52 -112 122.5 -155t159.5 -43v530q-34 6 -87 18.5t-104 37.5q-90 42 -133.5 124t-43.5 176q0 182 130 303q99 91 238 112v113q0 43 48 43zM561 573v-497 q112 16 181 125q41 67 41 163v9q-2 96 -71 146q-34 24 -79 37q-43 12 -72 17zM419 811v426q0 -1 -28 -13q-38 -18 -62 -45q-22 -22 -40 -59q-15 -33 -22 -68q-6 -28 -6 -54q0 -33 10 -63q17 -56 60 -87q32 -24 71 -33q6 -2 17 -4z" />
<glyph unicode="%" d="M763 581q-75 -1 -89.5 -68t-14.5 -117v-194q0 -51 16 -118t88 -67q48 0 76 52t28 133v194q0 80 -25.5 132.5t-78.5 52.5zM763 658q124 0 189 -75.5t65 -175.5v-217q0 -103 -74 -176t-180 -73q-133 0 -194 74t-61 175v217q0 101 66.5 176t188.5 75zM274 1301 q-75 -2 -89.5 -69t-14.5 -117v-194q0 -51 16 -118t88 -67q48 0 76 52t28 133v194q0 81 -25 133.5t-79 52.5zM274 1377q125 0 190 -75t65 -175v-218q0 -102 -74.5 -176t-180.5 -74q-132 0 -193 75t-61 175v218q0 101 66 175.5t188 74.5zM914 1420h144l-935 -1440h-144z" />
<glyph unicode="&#x26;" horiz-adv-x="1292" d="M906 303l111 -138q46 -59 147 -107q34 -15 46 -34q3 -11 3 -20q-2 -4 -2 -8q-18 -18 -39 -18h-244q-50 0 -100 79q-33 50 -46 65q-63 -78 -159 -126q-98 -48 -220 -48q-148 0 -237 89q-78 80 -78 203q0 13 1 25q6 124 76 223q65 95 206 188q-52 70 -87 153 q-31 72 -31 153q0 14 1 28q5 138 93 225q87 87 228 87q138 0 213 -71q69 -66 69 -172v-17q-7 -111 -72 -197q-67 -89 -186 -164l231 -303l93 173q6 14 8 28q1 5 1 9q0 8 -2 13q-3 10 -9.5 18t-10.5 21q-2 6 -2 11v3q0 3 3 12q12 34 45 34h258q23 0 35 -14q6 -6 6 -16v-2 q0 -5 -2 -13q-10 -19 -45 -36q-16 -7 -33 -15t-32 -18q-70 -45 -121 -121t-116 -182zM534 788q64 38 104 102q38 63 45 162v14q0 64 -23 110q-21 40 -92 40q-55 0 -86 -36q-36 -43 -40 -119q-1 -11 -1 -20q0 -135 93 -253zM712 214l-280 370q-126 -92 -134 -248 q-1 -10 -1 -20q0 -96 52 -164q54 -70 135 -70q72 0 130.5 40.5t97.5 91.5z" />
<glyph unicode="'" horiz-adv-x="426" d="M247 968q0 -31 -44 -31h-15q-43 0 -43 31l-52 440v5q0 50 79 50h47q79 0 79 -49v-6z" />
<glyph unicode="(" horiz-adv-x="682" d="M114 757q0 139 18.5 267.5t82.5 227.5q32 51 65 93.5t88 75.5q107 66 212 66q47 0 47 -50q0 -27 -6 -33q-9 -14 -65 -27t-115 -73q-65 -64 -93 -191q-28 -128 -28 -473v-143q0 -347 28 -475q28 -125 94 -190q35 -33 64 -50t76 -31q35 -12 44 -26q0 -6 1 -25v-5 q0 -21 -10 -33q-14 -14 -41 -14q-78 0 -160 40q-85 41 -159 136t-104 195q-39 131 -39 358v380z" />
<glyph unicode=")" horiz-adv-x="682" d="M627 757v-380q0 -232 -39 -359q-31 -99 -104.5 -194t-157.5 -136q-83 -40 -160 -40q-27 0 -40 13q-13 11 -13 35v4q2 30 6 33q2 4 40 18q45 13 78 32q30 18 62 49q66 65 94 190q29 133 29 475v143q0 341 -29 473q-28 126 -94 193q-59 58 -116 71.5t-64 28.5q-5 9 -5 31 q0 50 47 50q104 0 212 -66q55 -33 88 -75.5t66 -93.5q62 -99 81 -227.5t19 -267.5z" />
<glyph unicode="*" d="M285 859l169 -97v201q0 57 52 57h52q52 0 52 -57v-201l169 97q20 12 39 12q29 0 43 -24l27 -46q5 -10 5 -20q0 -26 -33 -45l-180 -104l181 -105q32 -20 32 -45q0 -10 -5 -20l-27 -46q-14 -24 -43 -24q-19 0 -39 12l-169 97v-201q0 -57 -52 -57h-52q-52 0 -52 57v201 l-168 -97q-20 -13 -40 -13q-29 0 -43 25l-26 46q-6 11 -6 21q0 25 32 44l181 105l-180 104q-33 18 -33 43q0 11 6 22l26 46q14 24 43 24q19 0 39 -12z" />
<glyph unicode="+" d="M200 704h254v259q0 57 52 57h52q52 0 52 -57v-259h254q62 0 62 -46v-53q0 -46 -62 -46h-254v-259q0 -57 -52 -57h-52q-52 0 -52 57v259h-254q-62 0 -62 46v53q0 46 62 46z" />
<glyph unicode="," horiz-adv-x="480" d="M251 250q135 0 135 -107v-82q0 -24 -10 -53t-16 -49q-43 -118 -161 -199q-45 -28 -76 -28q-27 0 -42 15q-14 14 -14 29t14 31q17 19 45 35q85 52 97 113h28q-135 0 -135 106v82q0 107 135 107z" />
<glyph unicode="-" d="M200 704h664q62 0 62 -46v-53q0 -46 -62 -46h-664q-62 0 -62 46v53q0 46 62 46z" />
<glyph unicode="." horiz-adv-x="480" d="M257 250q135 0 135 -107v-82q0 -106 -135 -106t-135 106v82q0 107 135 107z" />
<glyph unicode="/" d="M-38 -90l865 1584h194l-864 -1584h-195z" />
<glyph unicode="0" horiz-adv-x="1100" d="M549 1316q-162 -3 -192 -140.5t-30 -236.5v-498q0 -99 33 -237.5t189 -138.5q107 0 164.5 108t57.5 268v498q0 160 -54 274q-50 103 -166 103h-2zM549 1426q226 0 345 -138.5t119 -325.5v-543q0 -190 -136 -326.5t-328 -136.5q-241 0 -352.5 137t-111.5 326v543 q0 189 121.5 326.5t342.5 137.5z" />
<glyph unicode="1" horiz-adv-x="1000" d="M350 -20q-45 0 -45 40q0 37 48.5 54.5t48.5 67.5v1055h-198v66q0 43 63.5 66.5t151.5 47.5q51 13 98 26t110 32v-1293q0 -50 48.5 -67.5t48.5 -54.5q0 -40 -45 -40h-329z" />
<glyph unicode="2" horiz-adv-x="1100" d="M147 -20v100q0 88 53 154q50 63 160 181q64 62 127 131.5t120 138.5q81 96 118 195q27 68 27 126q0 53 -23 96q-47 89 -136 124q-50 19 -106 19q-43 0 -89 -11q-106 -27 -176 -128q-26 -38 -37 -103l-48 176q10 28 22 51q44 70 120 124.5t184 71.5q43 6 85 6 q137 0 261 -70q163 -92 166 -302v-4q0 -137 -73 -259t-172 -231.5t-199 -208t-137 -162.5h321q120 0 264 52v-216q-71 -44 -139 -47.5t-125 -3.5h-568z" />
<glyph unicode="3" horiz-adv-x="1100" d="M722 48q-105 -75 -275 -95q-25 -3 -50 -3q-136 0 -242 83l-6 286q99 -194 230 -228q50 -13 94 -13q73 0 133 33q93 48 126 140q19 52 19 103q0 43 -13 85q-29 93 -121 161.5t-273 71.5l-2 61q81 26 163 62.5t125 109.5q35 60 35 120q0 17 -3 35q-13 75 -62 126 q-56 58 -143 67h-18q-90 0 -152 -69q-50 -55 -71 -113l-36 182q90 100 182 136.5t179 36.5q243 -3 320 -193q22 -54 22 -108q0 -131 -136 -260q-34 -32 -41 -37q118 -58 185 -174q56 -100 56 -206q0 -21 -1 -33q-18 -216 -224 -367z" />
<glyph unicode="4" horiz-adv-x="1100" d="M621 383h-565v137l575 865h215v-825h196v-177h-196v-241q0 -48 69 -65.5t69 -56.5q0 -40 -45 -40h-411q-46 0 -46 40q0 39 69.5 56.5t69.5 65.5v241zM621 560v570l-375 -570h375z" />
<glyph unicode="5" horiz-adv-x="1100" d="M255 1175v-396q1 0 42.5 24.5t90.5 43.5q95 38 205 38q16 0 33 -1q157 -12 271 -150q107 -139 107 -309v-6q-3 -176 -148 -321q-141 -141 -355 -141h-9q-130 3 -202 23t-145 52q-56 22 -59 69q-2 23 -2 43q0 68 26 94q27 25 48 25q16 0 26 -10q40 -48 107 -104 q58 -50 164 -50h8q90 0 165 55.5t112 142.5q25 60 25 128q0 46 -11 97q-28 120 -130 177q-74 40 -136 40q-28 0 -53 -7q-88 -27 -145 -77q-34 -29 -63 -34q-18 -5 -37 -5q-9 0 -15 1q-14 0 -39 2t-25 49v652q0 42 10 53.5t60 11.5h480q55 0 121 -3.5t136 -46.5v-210 q-136 50 -257 50h-406z" />
<glyph unicode="6" horiz-adv-x="1100" d="M537 862q-107 -6 -187.5 -126.5t-80.5 -289.5t83 -282q74 -102 174 -102h11q106 5 186.5 126t80.5 290q0 168 -83 282q-74 102 -174 102h-10zM364 946q31 18 161 18q33 0 68 -4q171 -19 282 -120q165 -155 167 -378q0 -208 -146 -359q-144 -149 -344 -149h-13 q-215 6 -351 154q-131 142 -131 345v9q3 316 140 540.5t382 392.5l29 20q31 16 69 16h3q33 -1 63 -1q67 0 67 -29q0 -16 -25 -29q-160 -112 -264.5 -220t-156.5 -206z" />
<glyph unicode="7" horiz-adv-x="1100" d="M405 142q-34 -68 -58 -162l-208 1q-3 31 -3 44q0 52 21 101q26 58 51 107q124 231 287 509.5t255 432.5h-348q-122 0 -257 -50v210q69 43 135 46.5t122 3.5h480q48 0 59 -11t11 -54q-2 -72 -32 -133q-129 -261 -257.5 -522.5t-257.5 -522.5z" />
<glyph unicode="8" horiz-adv-x="1100" d="M558 715q-111 0 -190 -72.5t-79 -248.5q0 -178 69.5 -250t199.5 -72q129 0 198 69.5t69 252.5q0 182 -78.5 251.5t-188.5 69.5zM590 1428q216 -3 320 -107q99 -98 99 -251v-12q-6 -244 -196 -285q61 -16 151 -115.5t96 -265.5v-17q0 -204 -141 -306q-146 -106 -378 -108 h-8q-226 0 -360 111q-135 112 -135 319q0 162 94.5 264t166.5 120q-185 44 -185 297v4q0 175 133 266q126 86 329 86h14zM563 1325q-115 0 -166 -72.5t-51 -179.5q0 -109 43.5 -180t173.5 -71q129 0 173 71t44 180q0 107 -51 179.5t-166 72.5z" />
<glyph unicode="9" horiz-adv-x="1100" d="M561 523q107 5 187.5 125.5t80.5 289.5q-1 169 -84 282q-74 102 -172 102h-11q-108 -5 -187 -124q-81 -121 -81 -287v-4q0 -169 83 -282q72 -102 172 -102h12zM734 438q-31 -18 -161 -18q-34 0 -68 4q-172 19 -282 121q-166 154 -166 378v6q0 203 144 353 q144 149 345 149h13q215 -6 351 -154q132 -144 132 -348v-6q-4 -318 -141 -542t-381 -391q-9 -6 -15.5 -10t-14.5 -10q-31 -16 -69 -16q-14 0 -15 1h-51q-68 0 -68 29q0 16 26 29q159 111 264 219t157 206z" />
<glyph unicode=":" horiz-adv-x="512" d="M257 968q135 0 135 -107v-82q0 -107 -135 -107t-135 107v82q0 107 135 107zM257 250q135 0 135 -107v-82q0 -106 -135 -106t-135 106v82q0 107 135 107z" />
<glyph unicode=";" horiz-adv-x="512" d="M257 968q135 0 135 -107v-82q0 -107 -135 -107t-135 107v82q0 107 135 107zM257 250q135 0 135 -107v-82q0 -24 -10 -53t-17 -49q-41 -118 -160 -199q-44 -29 -76 -29q-28 0 -44 18q-12 12 -12 27t14 31q17 19 45 35q85 52 97 113h28q-135 2 -135 106v82q0 107 135 107z " />
<glyph unicode="&#x3c;" d="M169 595q-16 15 -16 34q0 23 27 49l617 603q28 26 55 26q24 0 42 -18l48 -49q14 -16 14 -34q0 -24 -25 -48l-538 -527l539 -526q24 -25 24 -49q0 -17 -14 -33l-50 -50q-16 -16 -40 -16q-27 0 -55 26z" />
<glyph unicode="=" d="M204 557h663q62 0 62 -47v-52q0 -47 -62 -47h-663q-62 0 -62 47v52q0 47 62 47zM204 852h663q62 0 62 -47v-52q0 -47 -62 -47h-663q-62 0 -62 47v52q0 47 62 47z" />
<glyph unicode="&#x3e;" d="M941 668q16 -15 16 -34q0 -23 -26 -48l-618 -603q-28 -26 -56 -26q-23 0 -39 16l-48 48q-17 17 -17 36q0 23 27 49l538 526l-538 525q-27 25 -27 49q0 17 15 34l48 49q18 18 41 18q28 0 56 -26z" />
<glyph unicode="?" horiz-adv-x="784" d="M444 441q0 -55 -11 -89q-17 -40 -54 -40q-36 0 -51 45q-12 31 -12 85v316q129 91 173 160q44 70 44 165q0 103 -41 154q-37 45 -114 45q-65 0 -94 -40q-34 -48 -44 -174q-3 -32 -29 -49q-25 -18 -67 -18q-44 0 -69 19q-22 19 -22 57q0 140 94 224t254 84q165 0 261 -81 q94 -81 94 -220q0 -174 -177 -284q-18 -11 -43 -26q-55 -35 -69 -64q-16 -28 -19 -97zM379 243q132 0 132 -104v-80q0 -103 -132 -103q-131 0 -131 103v80q0 104 131 104z" />
<glyph unicode="@" horiz-adv-x="2119" d="M1860 168q-52 -68 -121 -126t-150 -91q-94 -40 -186 -40q-69 0 -136 23q-110 38 -110 153v-26l-274 -93q-37 -13 -64 -13h-42q-156 8 -239 126q-64 90 -64 219q0 114 46 229t113 193q39 47 117 97q26 16 60 29q87 30 174.5 60t176.5 60q22 8 43 8h6q68 -3 155 -34 q10 -3 14 -5q17 -8 46 -19q7 -2 12 -2q7 0 14 4q24 17 33 26q13 16 35 16q10 0 20 -4q32 -14 32 -36v-4l-167 -722q-9 -39 -9 -68q0 -73 55 -87q14 -4 29 -4q32 0 71 16q64 24 115 72q87 79 145 231q59 155 59 343q0 335 -202 491q-207 160 -501 160q-220 0 -434 -110 q-215 -109 -349 -336q-136 -227 -136 -517q0 -225 90 -409q89 -180 261 -282q168 -100 407 -100q202 0 382 71q164 65 290 170q11 11 28 11q18 0 31 -13q14 -14 14 -31q0 -13 -7 -26q-12 -27 -29 -43q-151 -140 -343.5 -201t-410.5 -61q-412 0 -675 260q-262 258 -262 655 q0 451 327 763q329 311 807 311q384 0 636 -208q251 -210 251 -552q0 -294 -184 -534zM1165 159l139 606q-24 28 -78.5 57.5t-99.5 31.5h-3q-15 0 -31 -6q-40 -13 -79 -26.5t-78 -26.5q-21 -8 -37 -22q-73 -63 -115.5 -154t-55.5 -180q-8 -46 -8 -87q0 -81 30 -138 q43 -84 125 -109q33 -10 67 -10q11 0 23 1q19 2 49 12q22 7 75 25t77 26z" />
<glyph unicode="A" horiz-adv-x="1593" d="M856 1447q56 -132 129.5 -303t152 -352t152 -352t124.5 -288q13 -32 51 -58q21 -13 43.5 -23t38.5 -21q15 -11 20 -22q4 -7 4 -15q0 -7 -5 -16q-8 -17 -34 -17h-338q-18 0 -34 11q-17 12 -20 23q-3 5 -3 13q0 17 18 32q10 9 21 17.5t15 20.5q2 6 2 13q0 14 -7 31 l-142 328h-547q-30 -72 -65.5 -157.5t-71.5 -170.5q-8 -18 -9 -32q-1 -6 -1 -12q0 -8 2 -15q3 -10 9.5 -18t11.5 -22q1 -10 1 -14q0 -7 -3 -13q-12 -35 -46 -35h-258q-25 0 -39 21q0 2 -2 6q0 8 3 19q10 22 46 38q14 7 31 15t33 19q32 23 46 55l573 1294h98zM992 590 l-226 527q-40 -97 -103.5 -249t-115.5 -278h445z" />
<glyph unicode="B" horiz-adv-x="1240" d="M704 1424q103 0 216.5 -36.5t174.5 -144.5q48 -84 48 -202q-2 -113 -65 -202q-47 -68 -98 -91q103 -33 174 -154q52 -93 52 -222q-2 -124 -71 -222q-61 -86 -171.5 -128t-202.5 -42h-627q-46 0 -46 41q0 38 50 56t50 69v1112q0 50 -50 68t-50 57q0 41 46 41h570zM418 667 v-574h201q69 0 138 20t119 69q77 75 77 201q0 121 -81 201q-86 83 -232 83h-222zM418 794h249q107 12 173 75q69 67 69 181q0 111 -73 181q-77 74 -207 74h-211v-511z" />
<glyph unicode="C" horiz-adv-x="1400" d="M848 -57q-317 0 -561.5 202t-244.5 556q0 345 237.5 554.5t568.5 209.5q118 0 251.5 -26.5t265.5 -110.5l-25 -222q-8 -35 -45 -35h-4q-28 2 -48 41q-62 132 -152 175t-243 43q-212 0 -379 -148.5t-167 -480.5q0 -212 157 -408.5t390 -207.5q24 -1 45 -1q121 0 199 36 q88 42 150 175q19 36 47 41h7q37 0 43 -36l3 -28l-91 -255q-109 -45 -211 -59.5t-193 -14.5z" />
<glyph unicode="D" horiz-adv-x="1585" d="M1525 792q2 -34 2 -65q0 -169 -63 -305q-76 -162 -212 -267q-231 -178 -563 -182h-80q-58 0 -109 1h-117q-84 0 -127 3h-23q-39 0 -103 -6q-47 0 -47 42q0 38 50 56t50 70v1123q0 51 -50 68.5t-50 56.5q0 41 46 41q42 -1 85 -1q42 0 85 1q86 3 169 5h59q154 0 310 -8 q188 -11 340 -76q144 -64 238.5 -195t109.5 -362zM424 1297v-1181q102 -19 213 -19q43 0 84 3q147 11 260 71q134 70 212 217q72 136 72 348v33q-4 158 -55.5 264t-135.5 168q-123 92 -299 108q-61 5 -124 5q-121 0 -227 -17z" />
<glyph unicode="E" horiz-adv-x="1251" d="M461 114h402q80 0 140.5 67t93.5 107q26 31 49 31q46 0 46 -41q0 -15 -3 -25l-77 -273h-939q-43 0 -43 41q0 38 50 55.5t50 69.5v1111q0 52 -50 69.5t-50 56.5q0 41 46 41h953v-277q0 -41 -46 -41q-25 0 -59 50q-49 68 -81 101.5t-80 33.5h-402v-503h204q46 0 66 51.5 t64 51.5q45 0 45 -41v-254q0 -41 -45 -41q-43 0 -66 51t-70 51h-198v-543z" />
<glyph unicode="F" horiz-adv-x="1139" d="M174 -20q-44 0 -44 41q0 22 31 41q14 10 32.5 21.5t28.5 28.5q8 16 8 34v1111q0 52 -50 69.5t-50 56.5q0 41 46 41h953v-277q0 -41 -46 -41q-25 0 -59 50q-49 68 -81 101.5t-80 33.5h-402v-503h204q29 0 53 28q17 20 30.5 47.5t46.5 27.5q45 0 45 -41v-254q0 -41 -45 -41 q-35 0 -50 31t-34 52q-20 20 -46 20h-204v-512q0 -24 10 -40q10 -14 25.5 -24t30.5 -19q33 -20 33 -42q0 -8 -2 -16q-15 -25 -43 -25h-341z" />
<glyph unicode="G" horiz-adv-x="1563" d="M848 -57q-317 0 -561.5 202t-244.5 556q0 345 237.5 554.5t568.5 209.5q118 0 251.5 -26.5t265.5 -110.5l-25 -222q-8 -35 -45 -35h-4q-28 2 -48 41q-62 132 -152 175t-243 43q-212 0 -379 -148.5t-167 -480.5q0 -212 157 -408.5t390 -207.5q24 -1 45 -1q108 0 181 28 q85 33 142 132v184q-1 20 -21 31q-25 14 -83.5 38t-58.5 57q0 41 46 41h401q46 0 46 -41q0 -39 -50 -57t-50 -69v-408q-175 -8 -315 -43q-74 -20 -146 -27t-138 -7z" />
<glyph unicode="H" horiz-adv-x="1638" d="M460 1257v-448h795v448q0 51 -50 69t-50 57q0 41 46 41h339q46 0 46 -41q0 -39 -50.5 -57t-50.5 -69v-1111q0 -52 50.5 -69.5t50.5 -55.5q0 -41 -46 -41h-339q-46 0 -46 41q0 38 50 55.5t50 69.5v531h-795v-531q0 -52 50 -69.5t50 -55.5q0 -41 -45 -41h-339q-46 0 -46 41 q0 38 50 55.5t50 69.5v1111q0 51 -50 69t-50 57q0 41 46 41h339q45 0 45 -41q0 -39 -50 -57t-50 -69z" />
<glyph unicode="I" horiz-adv-x="690" d="M460 1257v-1110q0 -53 50 -70.5t50 -55.5q0 -41 -46 -41h-339q-45 0 -45 41q0 38 50 55.5t50 69.5v1111q0 52 -50 69.5t-50 56.5q0 41 46 41h338q46 0 46 -41q0 -39 -50 -56.5t-50 -69.5z" />
<glyph unicode="J" horiz-adv-x="682" d="M455 180q0 -199 -27.5 -298t-95.5 -171q-95 -97 -247 -138v88q46 28 77.5 62.5t49.5 91.5q11 39 11.5 112t0.5 247v1084q0 51 -50 69t-50 57q0 40 46 40h339q46 0 46 -40q0 -39 -50 -57t-50 -69v-1078z" />
<glyph unicode="K" horiz-adv-x="1487" d="M460 800l479 454q78 73 132 125q43 44 91 44q25 0 49 -12l107 -52q28 -17 28 -41q0 -9 -4 -19l-60 -169l-96 40q-34 14 -61 14q-40 0 -72 -31l-390 -381l739 -681q18 -18 46 -30.5t28 -39.5q0 -41 -45 -41h-339q-46 0 -46 41q0 15 18 31q12 11 13 15q0 5 -29 31l-588 542 v-494q0 -52 50 -69.5t50 -55.5q0 -41 -45 -41h-339q-46 0 -46 41q0 38 50 55.5t50 69.5v1111q0 51 -50 69t-50 57q0 41 46 41h339q45 0 45 -41q0 -39 -50 -57t-50 -69v-457z" />
<glyph unicode="L" horiz-adv-x="1251" d="M461 114h402q80 0 140.5 67t93.5 107q26 31 49 31q46 0 46 -41q0 -15 -3 -25l-77 -273h-936q-46 0 -46 41q0 38 50 55.5t50 69.5v1111q0 51 -50 69t-50 57q0 41 46 41h339q45 0 45 -41q0 -39 -50 -57t-50 -69z" />
<glyph unicode="M" horiz-adv-x="1908" d="M1722 1257v-1111q0 -52 50.5 -69.5t50.5 -55.5q0 -41 -46 -41h-339q-46 0 -46 41q0 38 50 55.5t50 69.5v960l-535 -1156h-73l-529 1111v-915q0 -52 50 -69.5t50 -55.5q0 -41 -46 -41h-254q-46 0 -46 41q0 38 50 55.5t50 69.5v1111q0 51 -50 69t-50 57q0 41 46 41h283 l530 -1086l513 1086h296q46 0 46 -41q0 -39 -50.5 -57t-50.5 -69z" />
<glyph unicode="N" horiz-adv-x="1644" d="M1344 271v986q0 51 -49.5 69t-49.5 57q0 41 45 41h255q46 0 46 -41q0 -39 -50 -57t-50 -69l-1 -1327l-218 53l-917 1138v-975q0 -52 50 -69.5t50 -55.5q0 -41 -46 -41h-254q-46 0 -46 41q0 38 50 55.5t50 69.5v1111q0 51 -50 69t-50 57q0 41 46 41h271z" />
<glyph unicode="O" horiz-adv-x="1610" d="M808 1338q-292 -1 -409 -186t-117 -450t147.5 -449.5t378.5 -186.5h5q225 0 372 194q148 197 148 436v6q-2 244 -125 440t-400 196zM808 1466h10q334 0 564 -205q213 -191 213 -501q0 -28 -2 -56q-21 -351 -245.5 -546t-540.5 -213q-23 -1 -47 -1q-289 0 -511 199 q-226 202 -226 526q0 18 1 37q12 347 227 551.5t557 208.5z" />
<glyph unicode="P" horiz-adv-x="1237" d="M439 146q0 -52 50 -69.5t50 -55.5q0 -41 -45 -41h-339q-46 0 -46 41q0 38 49 55.5t49 69.5l2 1111q0 51 -50 69t-50 57q0 41 46 41h590q108 0 226.5 -38.5t184.5 -151.5q50 -89 50 -212q-2 -118 -68 -213q-58 -82 -164 -122t-193 -40h-342v-501zM439 1301v-544h207 q65 0 130.5 18.5t112.5 65.5q74 71 74 191q0 115 -77 191q-81 78 -220 78h-227z" />
<glyph unicode="Q" horiz-adv-x="1610" d="M808 1338q-292 -1 -409 -186t-117 -450t147.5 -449.5t378.5 -186.5h5q225 0 372 194q148 197 148 436v6q-2 244 -125 440t-400 196zM628 -47q-221 22 -419 230q-186 194 -186 486q0 18 1 37q12 347 227 551.5t557 208.5h10q334 0 564 -205q213 -191 213 -501 q0 -28 -2 -56q-20 -336 -227 -530t-418 -216l48 -24q213 -98 308 -98q30 0 125 27v-88q-104 -60 -156 -117q-86 12 -153 31q-68 21 -185 69q-199 81 -260 81q-11 0 -31 -8q-26 -10 -144 -88v113q115 89 128 97z" />
<glyph unicode="R" horiz-adv-x="1368" d="M1283 84q19 -16 56 -19q50 -6 50 -41v-4q-6 -40 -46 -40h-267q-23 0 -86 83t-141 191t-159.5 221t-129.5 172h-121v-501q0 -52 50 -69.5t50 -55.5q0 -41 -45 -41h-339q-46 0 -46 41q0 38 50 55.5t50 69.5v1111q0 51 -50 69t-50 57q0 41 46 41h590q108 0 226.5 -38.5 t184.5 -151.5q50 -89 50 -212q-2 -118 -68 -213q-54 -76 -148.5 -116t-139.5 -42zM439 1301v-544h207q65 0 130.5 18.5t112.5 65.5q74 71 74 191q0 115 -77 191q-81 78 -220 78h-227z" />
<glyph unicode="S" horiz-adv-x="1099" d="M533 75q75 5 144 39.5t111 101.5q44 71 44 172v11q-3 104 -78 158q-34 26 -83 40q-104 28 -215.5 40.5t-215.5 62.5q-96 45 -142.5 131.5t-46.5 186.5q0 195 137 320q142 131 357 131h31q231 -10 404 -122l-25 -221q-4 -36 -44 -36h-5q-30 2 -48 41q-40 86 -116.5 145 t-162.5 63h-15q-86 0 -151 -30q-43 -22 -68 -48q-24 -26 -43 -64q-15 -31 -23 -73q-7 -31 -7 -58q0 -36 11 -67q19 -61 65 -93q34 -26 75 -36q25 -7 60 -13t74 -12q57 -9 121.5 -19t126.5 -28q107 -35 160 -92q38 -44 63 -96q28 -69 28 -151q0 -222 -181 -370 q-94 -77 -208 -114q-92 -29 -196 -33q-22 -1 -44 -1q-143 0 -287 44l-98 273q-3 8 -3 16q0 15 10 29q15 24 47 24q27 -7 44 -42q61 -133 151 -176q74 -36 190 -36q25 0 52 2z" />
<glyph unicode="T" horiz-adv-x="1255" d="M1240 1147q0 -41 -46 -41q-23 0 -60 50q-50 68 -82 101.5t-80 33.5h-226v-1145q0 -52 50 -70t50 -56q0 -40 -45 -40h-339q-46 0 -46 40q0 38 50 56t50 70v1145h-230q-48 0 -81 -33.5t-82 -101.5q-35 -50 -59 -50q-46 0 -46 41v185q0 64 27 80.5t112 16.5h944 q92 0 115.5 -15.5t23.5 -81.5v-185z" />
<glyph unicode="U" horiz-adv-x="1554" d="M209 588v670q0 51 -50 68.5t-50 56.5q0 41 46 41h339q45 0 45 -41q0 -39 -49 -55.5t-49 -67.5v-539q0 -152 10 -268.5t50 -194.5q38 -75 116.5 -113.5t221.5 -38.5q247 0 334 195q66 142 66 420v536q0 51 -50 69t-50 57q0 41 46 41h255q45 0 45 -41q0 -39 -49.5 -57 t-49.5 -69v-669q-1 -151 -28 -277t-101 -214q-135 -156 -418 -156q-175 0 -301 33.5t-203 123.5q-126 146 -126 490z" />
<glyph unicode="V" horiz-adv-x="1479" d="M416 1269l403 -1032l428 877q11 23 11 40q0 13 -6 23q-19 29 -58 76l-61 71l139 105q15 13 35 13t41 -17l83 -85q31 -32 31 -78q0 -24 -9 -52q-24 -72 -72 -169l-489 -1015q-8 -19 -19 -33q-17 -13 -35 -13h-151q-24 0 -37 17q-5 5 -13 27t-11 31l-378 1050 q-40 105 -58 146q-15 33 -51 59q-21 13 -44 22.5t-38 20.5q-16 9 -20 22q-5 7 -5 17q0 8 6 17q10 15 33 15h339q18 0 35 -12q14 -12 19 -23q2 -7 2 -11q0 -17 -17 -33q-11 -9 -21.5 -18t-15.5 -21q-2 -6 -2 -14q0 -11 6 -23z" />
<glyph unicode="W" horiz-adv-x="2048" d="M374 1269l403 -1032l215 440l-155 428q-18 50 -32.5 86t-24.5 61q-15 32 -51 58q-21 13 -44 22.5t-39 21.5q-12 7 -21 24q-2 9 -2 13q0 6 2 13q10 20 36 20h339q19 0 34 -11t20 -25q2 -6 2 -10q0 -17 -17 -33q-11 -9 -21.5 -18t-15.5 -21q-2 -6 -2 -14q0 -11 6 -23 l122 -312l77 157q10 22 10 40q0 14 -5 23q-20 29 -58 76l-62 71l140 105q15 13 35 13t41 -17l83 -85q31 -32 31 -78q0 -24 -9 -52q-24 -72 -72 -169l-135 -280l205 -524l428 877q10 22 10 40q0 14 -5 23q-19 29 -59 76l-61 71l139 105q15 13 35 13q21 0 42 -17l83 -85 q31 -32 31 -78q0 -24 -9 -52q-24 -72 -72 -169l-489 -1015q-9 -21 -21 -34q-12 -12 -34 -12h-150q-26 0 -36 16q-6 4 -14 27t-11 32l-150 418l-216 -447q-9 -21 -21 -34q-12 -12 -34 -12h-150q-26 0 -36 16q-6 4 -14 27t-11 32l-436 1197q-12 30 -51 58q-21 13 -44 22.5 t-39 21.5q-12 7 -21 24q-2 9 -2 13q0 6 2 13q10 20 36 20h339q18 0 35 -12q14 -12 19 -23q2 -7 2 -11q0 -17 -17 -33q-11 -9 -21.5 -18t-15.5 -21q-2 -6 -2 -14q0 -11 6 -23z" />
<glyph unicode="X" horiz-adv-x="1366" d="M357 80l9 -39q0 -19 -15.5 -40t-43.5 -21h-258q-34 0 -38 25v6q0 28 46 48l52 21q68 29 102 76l388 542l-357 551q-35 52 -118 83q-27 8 -43 18q-35 20 -35 44v5q4 25 35 25h339q30 0 47 -20t17 -32t-9.5 -23t-17 -19.5t-8.5 -16.5v-5q0 -18 13 -36l260 -399l244 341 q70 97 122 156.5t107 59.5q14 0 29 -4l100 -32q32 -13 32 -30q0 -18 -3 -27l-47 -191l-91 21q-51 11 -81 13h-2q-17 0 -42 -36l-283 -402l381 -587q29 -45 119 -83q26 -11 41 -20q37 -21 37 -46q0 -26 -36 -26h-339q-16 0 -34 9q-30 16 -30 36q0 19 17 39.5t18 27.5v6 q0 16 -11 34l-286 435l-301 -430q-26 -36 -26 -57z" />
<glyph unicode="Y" horiz-adv-x="1366" d="M566 669l-348 580q-20 30 -69 60q-26 13 -52 23t-44 21q-15 8 -24 20q-7 11 -7 21v5q4 25 35 25h339q19 0 35 -10q14 -10 23 -22q6 -10 6 -19q0 -13 -11 -26q-7 -9 -15 -17.5t-9 -16.5v-5q0 -17 13 -36l315 -499l237 360q27 41 31 70q1 3 1 7q0 26 -21 69l-43 86l162 71 q13 5 25 5q28 0 46 -27l61 -102q13 -23 13 -46q0 -41 -39 -81q-52 -55 -111 -140l-266 -388q-16 -24 -21 -70.5t-5 -89.5v-351q0 -52 50 -69.5t50 -55.5q0 -41 -46 -41h-339q-46 0 -46 41q0 38 50 55.5t50 69.5v427q0 54 -26 96z" />
<glyph unicode="Z" horiz-adv-x="1366" d="M27 71l948 1221l-563 -1q-48 0 -80.5 -33.5t-81.5 -101.5q-35 -50 -60 -50q-46 0 -46 41v185q0 64 27.5 80.5t111.5 16.5h924q93 0 119 -24q13 -13 13 -31q0 -21 -18 -52l-959 -1204l736 1q48 0 80.5 33t82.5 102q36 49 59 49q46 0 46 -41v-185q0 -68 -24 -82.5 t-114 -14.5h-1071q-89 0 -121 10q-31 9 -31 35q0 19 22 46z" />
<glyph unicode="[" horiz-adv-x="682" d="M483 -347q42 0 42 -47q0 -46 -37 -46h-247q-46 0 -46 40v1836q0 50 46 50h247q37 0 37 -48q0 -49 -42 -49h-120v-1736h120z" />
<glyph unicode="\" d="M1027 -90h-195l-865 1584h195z" />
<glyph unicode="]" horiz-adv-x="682" d="M237 -347h121v1736h-121q-42 0 -42 49q0 48 38 48h247q46 0 46 -50q0 -170 -0.5 -414.5t-0.5 -504.5v-504q0 -244 1 -413q0 -40 -46 -40h-247q-38 0 -38 46q0 47 42 47z" />
<glyph unicode="^" d="M463 1450h139l337 -558h-110l-297 382l-298 -382h-108z" />
<glyph unicode="_" d="M-25 -198h1071v-158h-1071v158z" />
<glyph unicode="`" d="M577 1089l-302 188q-24 15 -48 39t-24 59q0 60 53 83q22 9 45 9q29 0 57 -16q27 -17 92 -85t90 -93l120 -124q40 -42 40 -62q0 -24 -28 -27q-4 -2 -12 -2q-33 0 -83 31z" />
<glyph unicode="a" horiz-adv-x="1155" d="M772 56l-240 -88q-37 -13 -63 -13h-42q-154 8 -262 122q-109 116 -124 281q-4 42 -4 82q0 53 7 103q13 89 69 177q27 47 94 98q25 17 55 30q81 30 161.5 60t161.5 60q22 8 42 8h6q68 -3 164 -34q10 -3 12 -5q20 -8 51 -18q8 -3 15 -3q6 0 10 3q19 16 26 26q13 17 35 17 q11 0 20 -4q37 -13 37 -38v-774q0 -52 50 -69.5t50 -55.5q0 -41 -46 -41h-243q-42 0 -42 33v43zM772 762q-32 30 -94.5 60t-108.5 32h-3q-14 0 -30 -6q-36 -13 -71.5 -26.5t-71.5 -26.5q-19 -8 -30 -20q-58 -62 -78 -151q-17 -70 -17 -138q0 -21 2 -44q11 -139 75 -225 q62 -87 154 -112q34 -10 69 -10q11 0 22 1q18 2 45 11q23 8 72 26.5t65 24.5v604z" />
<glyph unicode="b" horiz-adv-x="1139" d="M368 168q31 -31 93 -61t109 -31h6q11 0 27 6q38 14 73 26.5t71 26.5q16 6 30 20q57 61 78 150q16 72 16 143q0 21 -1 40q-11 138 -73 223q-64 87 -156 114q-37 10 -73 10q-10 0 -19 -1q-19 -2 -45 -11q-23 -9 -72 -27t-64 -24v-604zM330 -7q-20 8 -51 18q-9 3 -16 3 q-5 0 -8 -3q-20 -17 -27 -25q-12 -17 -34 -17q-11 0 -20 4q-37 13 -37 38v1246q0 51 -50 69t-50 57q0 41 45 41q62 3 124.5 19.5t161.5 49.5v-619l240 89q33 12 61 14q11 0 21.5 -0.5t22.5 -0.5q154 -8 263 -124q106 -116 122 -280q4 -42 4 -83q0 -53 -7 -103 q-13 -89 -68 -176q-31 -50 -94 -98q-26 -19 -58 -31q-80 -29 -160 -59t-161 -59q-23 -8 -43 -8h-5q-67 3 -163 32q-10 4 -13 6z" />
<glyph unicode="c" horiz-adv-x="925" d="M554 976h22q172 0 326 -99l-18 -180q-5 -31 -38 -31h-4q-28 3 -41 34q-37 81 -96 116q-57 34 -141 34h-23q-98 -5 -151 -56q-49 -48 -73 -117q-25 -71 -25 -158q0 -29 3 -60q10 -144 77 -235q88 -117 192 -132q16 -3 34 -3q82 0 185 57q64 34 91 34q14 0 26 -8 q9 -9 9 -22q0 -15 -14 -45q-16 -34 -40 -55q-60 -54 -148.5 -74.5t-166.5 -20.5q-196 1 -329.5 109t-151.5 307q-4 44 -4 87q0 55 7 107q14 92 71 183q60 97 169.5 159.5t251.5 68.5z" />
<glyph unicode="d" horiz-adv-x="1231" d="M792 56l-240 -88q-37 -13 -63 -13h-42q-154 8 -262 122q-109 116 -124 281q-4 42 -4 82q0 53 7 103q13 89 69 177q27 47 94 98q25 17 55 30q81 30 161.5 60t161.5 60q22 8 42 8h6q68 -3 164 -34h2q0 1 -27 14v301q0 51 -50 69t-50 57q0 41 45 41q62 3 124.5 19.5 t161.5 49.5v-1347q0 -52 50 -69.5t50 -55.5q0 -41 -46 -41h-243q-42 0 -42 33v43zM792 763q-36 32 -97 60.5t-106 30.5h-3q-14 0 -30 -6q-36 -13 -71.5 -26.5t-71.5 -26.5q-19 -8 -30 -20q-58 -62 -78 -151q-17 -70 -17 -138q0 -21 2 -44q11 -139 75 -225q62 -87 154 -112 q34 -10 69 -10q11 0 22 1q18 2 45 11q23 8 72 26.5t65 24.5v605z" />
<glyph unicode="e" horiz-adv-x="1004" d="M50 555q29 191 155 308t332 119h4q209 0 321 -120q109 -120 109 -309q-1 -41 -4 -67t-65 -26h-612q3 -137 77.5 -237.5t184.5 -122.5q32 -7 65 -7q88 0 183 52q64 34 91 34q14 0 26 -8q10 -10 10 -23q0 -17 -15 -44q-13 -27 -21.5 -36t-15.5 -16q-117 -101 -315 -101 q-276 2 -413 176q-106 134 -106 316q0 54 9 112zM291 573h476q0 98 -53 196q-46 85 -171 85h-11q-125 -4 -181.5 -94.5t-59.5 -186.5z" />
<glyph unicode="f" horiz-adv-x="683" d="M413 1027v-58l213 4h1q40 0 40 -46q0 -15 -4 -37q-14 -64 -70 -64l-180 1v-681q0 -52 50 -69.5t50 -55.5q0 -41 -46 -41h-339q-46 0 -46 41q0 38 50 55.5t50 69.5v678q-12 0 -88 -4h-6q-43 0 -45 40v2q0 27 32 42q19 9 81 43q16 8 33 15q3 1 3 2t-10 1v62q0 129 24 211 q16 55 46 92q17 22 49 33l255 95q13 5 43 7h5q30 0 57 -17q31 -22 42 -40q8 -16 8 -40q0 -9 -1 -18q-3 -60 -34 -69h-7q-20 0 -48 20q-41 26 -79 26q-22 0 -44 -9q-71 -30 -80 -121q-4 -37 -4.5 -80.5t-0.5 -89.5z" />
<glyph unicode="g" horiz-adv-x="1103" d="M772 219v543q-32 30 -94.5 60t-108.5 32h-3q-14 0 -30 -6q-36 -13 -71.5 -26.5t-71.5 -26.5q-19 -8 -30 -20q-58 -62 -78 -151q-17 -70 -17 -138q0 -21 2 -44q11 -139 75 -225q62 -87 154 -112q34 -10 69 -10q11 0 22 1q18 2 45 11q23 8 71.5 26t64.5 24v62h1zM771 56 l-239 -88q-37 -13 -63 -13h-42q-154 8 -262 122q-109 116 -124 281q-4 42 -4 82q0 53 7 103q13 89 69 177q27 47 94 98q25 17 55 30q81 30 161.5 60t161.5 60q22 8 42 8h6q68 -3 164 -34q10 -3 12 -5q20 -8 51 -18q8 -3 15 -3q6 0 10 3q19 16 26 26q13 17 35 17q11 0 20 -4 q37 -13 37 -38v-1100q0 -173 -52 -218.5t-144 -78.5l-275 -103q-37 -13 -63 -13q-27 0 -43 1q-152 5 -263 124q-57 62 -96 163q107 42 224 85q25 -71 54 -110q63 -86 154 -112q34 -9 67 -9q13 0 24 1q19 2 45 10q11 5 30.5 12t39.5 15q37 18 52 86t15 90z" />
<glyph unicode="h" horiz-adv-x="1207" d="M387 146q0 -52 50 -69.5t50 -55.5q0 -41 -45 -41h-339q-46 0 -46 41q0 38 50 55.5t50 69.5v1111q0 51 -50 69t-50 57q0 41 45 41q62 3 124.5 19.5t160.5 49.5v-608q20 7 62 23t80 29q96 34 198 44q14 1 28 1q94 0 177 -63q129 -99 129 -413v-360q0 -52 50 -69.5t50 -55.5 q0 -41 -45 -41h-243q-42 0 -42 33v493q0 212 -85 295q-51 50 -123 50q-43 0 -95 -17q-22 -8 -55.5 -20.5t-58.5 -22.5q-23 -8 -27 -10v-635z" />
<glyph unicode="i" horiz-adv-x="593" d="M302 1420q134 0 134 -130q0 -131 -134 -131t-134 131q0 130 134 130zM417 146q0 -52 50 -69.5t50 -55.5q0 -41 -45 -41h-339q-46 0 -46 41q0 38 50 55.5t50 69.5v640q0 50 -50 68t-50 57q0 41 45 41q62 3 124.5 20t160.5 50v-876z" />
<glyph unicode="j" horiz-adv-x="487" d="M252 1420q135 0 135 -130q0 -131 -135 -131q-134 0 -134 131q0 130 134 130zM368 12q-1 -199 -28 -298t-95 -171q-98 -100 -248 -137v87q98 59 128 154q11 39 11.5 112t0.5 247v780q0 50 -50 68t-50 57q0 41 45 41q62 3 124.5 20t161.5 50v-1010z" />
<glyph unicode="k" horiz-adv-x="1163" d="M407 434v-288q0 -52 50 -69.5t50 -55.5q0 -41 -45 -41h-339q-46 0 -46 41q0 38 50 55.5t50 69.5v1111q0 51 -50 69t-50 57q0 41 45 41q62 3 124.5 19.5t160.5 49.5v-894l311 249q63 51 111 81q34 20 66 20q25 0 49 -13l75 -46q22 -15 22 -34q0 -9 -5 -17l-57 -128l-76 39 q-24 12 -45 12q-24 0 -47 -17q-145 -108 -239 -182l333 -325q105 -102 133 -115q18 -8 35 -8q7 0 15 1q10 3 21 3q37 0 51 -29q3 -10 3 -16q0 -22 -23 -32l-64 -30q-58 -26 -109 -26q-35 0 -66 13q-70 28 -127 84l-362 352q4 4 4 5q-1 0 -9 -6z" />
<glyph unicode="l" horiz-adv-x="597" d="M407 146q0 -52 50 -69.5t50 -55.5q0 -41 -45 -41h-339q-46 0 -46 41q0 38 50 55.5t50 69.5v1111q0 51 -50 69t-50 57q0 41 45 41q62 3 124.5 19.5t160.5 49.5v-1347z" />
<glyph unicode="m" horiz-adv-x="1797" d="M410 893q12 4 49.5 18t71.5 26q96 34 198 44q14 1 28 1q94 0 177 -63q29 -23 35 -30q25 9 61.5 22.5t69.5 25.5q96 33 197 44q15 1 29 1q93 0 176 -62q130 -100 130 -414v-360q0 -52 50 -69.5t50 -55.5q0 -41 -46 -41h-243q-41 0 -41 33v493q0 212 -85 295 q-51 50 -123 50q-43 0 -95 -17q-20 -7 -48.5 -17.5t-30.5 -11.5q43 -89 43 -299v-360q0 -52 50 -69.5t50 -55.5q0 -41 -45 -41h-339q-46 0 -46 41q0 38 50 55.5t50 69.5v360q0 212 -85 295q-51 50 -123 50q-43 0 -96 -17q-34 -12 -67.5 -25t-51.5 -20v-643q0 -52 50 -69.5 t50 -55.5q0 -41 -45 -41h-339q-46 0 -46 41q0 38 50 55.5t50 69.5v640q0 50 -50 68t-50 57q0 41 45 41q62 3 124.5 20t160.5 50v-129z" />
<glyph unicode="n" horiz-adv-x="1191" d="M387 885q20 7 62 23t80 29q96 34 198 44q14 1 28 1q94 0 177 -63q129 -99 129 -413v-360q0 -52 50 -69.5t50 -55.5q0 -41 -45 -41h-243q-42 0 -42 33v493q0 212 -85 295q-51 50 -123 50q-43 0 -95 -17q-22 -8 -55.5 -20.5t-58.5 -22.5q-23 -8 -27 -10v-635 q0 -52 50 -69.5t50 -55.5q0 -41 -45 -41h-339q-46 0 -46 41q0 38 50 55.5t50 69.5v640q0 50 -50 68t-50 57q0 41 45 41q62 3 124.5 20t160.5 50v-137z" />
<glyph unicode="o" horiz-adv-x="1107" d="M578 976q207 -8 348 -157t144 -354v-6q0 -207 -147 -351q-151 -147 -370 -153h-16q-204 0 -351 150q-149 151 -149 357v3q1 226 171 381q23 21 63 35t114 41q44 16 97 35q55 19 92 19h4zM555 869h-11q-103 0 -180 -103q-85 -115 -85 -285t82.5 -291.5t193.5 -126.5h13 q102 0 178 103q85 114 85 284t-83 291.5t-193 127.5z" />
<glyph unicode="p" horiz-adv-x="1197" d="M417 879l228 84q33 12 61 14q11 0 21 -0.5t22 -0.5q153 -7 264 -124q106 -116 122 -280q4 -41 4 -81q0 -55 -7 -105q-14 -89 -68 -176q-30 -48 -95 -98q-25 -18 -55 -30q-176 -66 -323 -119q-22 -8 -43 -8h-5q-63 3 -126 22v-408q0 -51 50 -69t50 -57q0 -40 -45 -40h-339 q-46 0 -46 40q0 39 50 57t50 69v1217q0 50 -50 68t-50 57q0 41 45 41q62 3 124.5 20t160.5 50v-143zM417 158q33 -28 90 -54.5t100 -27.5h6q11 0 27 6q36 13 71.5 26t71.5 27q18 6 31 20q56 61 77 151q17 69 17 138q0 22 -2 44q-11 138 -75 225q-63 86 -154 112 q-36 10 -71 10q-11 0 -20 -1q-19 -2 -45 -11q-21 -8 -63.5 -23.5t-60.5 -22.5v-619z" />
<glyph unicode="q" horiz-adv-x="1173" d="M788 55l-237 -87q-35 -13 -62 -13h-43q-155 8 -263 124q-107 114 -122 279q-4 43 -4 84q0 52 7 101q12 89 68 177q30 49 94 98q25 18 56 30q82 31 161.5 60.5t160.5 59.5q23 8 44 8h5q69 -3 165 -34l3 -1.5t22 -0.5v-10q8 -3 37 -11q8 -3 12 -3q6 0 9 3q19 16 26 26 q13 17 35 17q11 0 20 -4q37 -13 37 -38v-1351q0 -51 50 -69t50 -57q0 -40 -46 -40h-339q-46 0 -46 40q0 39 50 57t50 69v486zM788 764q-33 29 -94 58.5t-106 31.5h-3q-14 0 -28 -6q-37 -13 -73 -26.5t-72 -26.5q-17 -7 -30 -20q-58 -62 -78 -151q-17 -70 -17 -138 q0 -21 2 -44q11 -139 75 -225q61 -86 154 -112q35 -10 69 -10q12 0 22 1q19 2 46 11q21 8 68.5 25.5t64.5 24.5v607z" />
<glyph unicode="r" horiz-adv-x="831" d="M428 595v-449q0 -52 49.5 -69.5t49.5 -55.5q0 -41 -45 -41h-339q-46 0 -46 41q0 38 50 55.5t50 69.5v640q0 50 -50 68t-50 57q0 41 45 41q62 3 124.5 20t161.5 50v-130l104 39q77 29 121 44q18 5 40 5q42 0 120 -27l-25 -284h-89q-39 146 -130 146q-10 0 -19 -1 q-61 -7 -90 -68.5t-32 -150.5z" />
<glyph unicode="s" horiz-adv-x="884" d="M492 978q154 -8 302 -100l-22 -186q-5 -33 -41 -33h-4q-29 2 -45 37q-33 71 -96.5 117t-134.5 49h-3q-55 0 -108 -28q-52 -27 -64 -84q-5 -21 -5 -37q0 -52 44 -73q68 -34 159 -55q132 -29 244.5 -81.5t123.5 -220.5v-10q0 -79 -61 -158q-66 -86 -191 -129 q-77 -26 -170 -29h-28q-127 0 -255 37l-86 233l3 24q2 33 43 33h5q25 -5 41 -37q44 -94 104.5 -131.5t153.5 -40.5h12q65 0 145 31q79 31 82 112v6q0 94 -85 118q-106 30 -186 53q-103 28 -194 90q-95 64 -95 187v5q1 165 131 237q115 65 255 65q13 0 26 -1z" />
<glyph unicode="t" horiz-adv-x="682" d="M182 824q-12 0 -88 -4h-6q-43 0 -45 40v2q0 27 32 42q19 9 81 43q16 8 33 15q3 1 3 2t-10 1v151q0 57 25 80.5t102 60.5q33 16 56 16q48 0 48 -46v-258l213 4h1q40 0 40 -46q0 -15 -4 -37q-14 -64 -70 -64l-180 1v-607q0 -82 56.5 -122t115.5 -48v-69q-178 0 -290.5 31 t-112.5 238v574z" />
<glyph unicode="u" horiz-adv-x="1239" d="M1065 146q0 -52 50 -69.5t50 -55.5q0 -41 -46 -41h-243q-42 0 -42 33v33q-19 -7 -62 -23.5t-81 -29.5q-95 -32 -196 -42q-16 -1 -30 -1q-93 0 -175 61q-130 99 -130 414v361q0 50 -50 68t-50 57q0 41 45 41q62 3 124.5 20t161.5 50v-597q0 -213 85 -295q51 -50 123 -50 q43 0 97 18q19 6 53 19t57 22q6 2 17 6l11 4v637q0 50 -50 68t-50 57q0 41 45 41q62 3 124.5 20t161.5 50v-876z" />
<glyph unicode="v" horiz-adv-x="1036" d="M379 811l238 -582l206 494q8 18 8 35q0 29 -24 57l-44 53l104 81q12 13 29 13q19 0 35 -16l56 -57q22 -23 22 -56q0 -17 -7 -39q-16 -48 -48 -113l-307 -686q-6 -12 -13 -21q-13 -13 -31 -13h-84q-22 0 -32 15q-5 5 -10 19.5t-7 19.5l-327 779q-14 32 -41 50 q-18 12 -39.5 21.5t-34.5 18.5q-11 7 -20 23q-2 8 -2 13t2 13q11 18 35 18h328q15 0 32 -10q14 -11 19 -22q2 -7 2 -11q0 -16 -16 -31q-30 -27 -32 -33t-2 -14q0 -9 5 -19z" />
<glyph unicode="w" horiz-adv-x="1647" d="M990 811l238 -582l206 494q8 18 8 35q0 29 -24 57l-44 52l102 82q12 12 31 12q18 0 34 -14l57 -58q22 -23 22 -56q0 -17 -7 -39q-16 -48 -48 -113l-307 -686q-6 -12 -13 -21q-13 -13 -31 -13h-84q-22 0 -32 15q-5 5 -10 19t-8 19l-205 490l-228 -509q-6 -12 -13 -21 q-13 -13 -31 -13h-84q-22 0 -32 15q-5 5 -10 19.5t-7 19.5l-327 779q-14 32 -41 50q-18 12 -39.5 21.5t-34.5 18.5q-11 7 -20 23q-2 8 -2 13t2 13q11 18 35 18h328q15 0 32 -10q14 -11 19 -22q2 -7 2 -11q0 -16 -16 -31q-30 -27 -32 -33t-2 -14q0 -9 5 -19l238 -582l187 447 l-50 118q-14 32 -41 50q-18 12 -39.5 21.5t-34.5 19.5q-16 10 -20 24q-2 6 -2 11t2 13q11 18 35 18h328q15 0 32 -10q14 -11 19 -22q2 -7 2 -11q0 -16 -16 -31q-30 -27 -32 -33t-2 -14q0 -9 5 -19z" />
<glyph unicode="x" horiz-adv-x="1098" d="M142 108l278 340l-258 375q-13 19 -44 35q-19 10 -37.5 17t-31.5 15q-33 19 -33 34q0 25 40 25h322q29 0 47 -24q6 -9 6 -19q0 -16 -20 -27q-5 -3 -5 -11q0 -10 9 -22l151 -220l147 181q92 112 119 135q16 15 43 15q31 0 76 -23l64 -34q20 -12 20 -31q0 -9 -5 -18 l-62 -127q-62 33 -93 48q-2 1 -3 1q-10 0 -31 -26l-195 -238l278 -403q15 -23 49 -37q15 -7 30.5 -14t32.5 -15q34 -20 34 -35q0 -25 -40 -25h-322q-29 0 -47 24q-6 10 -6 18q0 15 19 28q5 3 6 11v1q0 9 -9 22l-170 247l-201 -244q-15 -21 -15 -32v-3q0 -8 3 -13q3 -8 3 -13 q0 -12 -8 -22q-16 -24 -41 -24h-208q-35 0 -35 25q0 10 8 20q18 22 61 33t74 50z" />
<glyph unicode="y" horiz-adv-x="1036" d="M143 794q-14 32 -41 50q-23 15 -54 27.5t-39 34.5q-4 9 -4 16q0 29 38 29h328q37 0 50 -31q4 -7 4 -15q0 -23 -29 -37q-14 -7 -20 -24q-2 -6 -2 -14q0 -9 5 -19l238 -582l206 494q8 18 8 35q0 29 -24 57l-44 53l104 81q12 13 29 13q19 0 35 -16l56 -57q22 -23 22 -56 q0 -17 -7 -39q-16 -48 -48 -113l-494 -1102q-31 -66 -55 -111q-31 -54 -84 -54h-4l-82 3q-41 7 -41 39l-7 133l76 2q51 2 73 46l156 324q3 0 3 2q0 4 -7 12q-6 6 -11 20.5t-7 19.5z" />
<glyph unicode="z" horiz-adv-x="1019" d="M953 869l-614 -770h388q40 2 70.5 30.5t72.5 87.5q33 44 54 44q43 0 43 -38v-158q0 -59 -21.5 -72t-100.5 -13l-685 -1q-77 1 -105 10q-29 7 -29 32q0 17 20 41l608 779h-307q-40 0 -67.5 -28.5t-68.5 -86.5q-33 -43 -54 -43q-44 0 -44 37v159q0 54 24 70t99 16h622 q114 0 114 -52q0 -20 -19 -44z" />
<glyph unicode="{" d="M156 593q-30 2 -42 21q-9 11 -9 29q0 5 1 12q6 32 49 38q142 12 191 65q29 32 39 89.5t10 113.5v212q0 73 15 153t67 130q81 80 297 80q33 0 49 -19q14 -20 14 -35q0 -36 -55 -36q-120 -2 -160 -47q-27 -28 -35 -85.5t-8 -109.5v-143q0 -78 -11 -169t-49 -146 q-63 -90 -131 -104q67 -14 131 -103q38 -56 49 -146.5t11 -169.5v-143q0 -147 43 -194q41 -44 160 -46q34 0 46 -30q3 -9 3 -17q0 -13 -10 -27q-15 -17 -47 -17q-214 0 -297 80q-52 50 -67 129.5t-15 153.5v211q0 56 -10.5 114.5t-39.5 91.5q-30 31 -83.5 45.5t-105.5 18.5z " />
<glyph unicode="|" d="M425 1510h191v-1757h-191v1757z" />
<glyph unicode="}" d="M781 593q-53 -4 -107 -18.5t-83 -45.5q-30 -33 -40 -91.5t-10 -114.5v-211q0 -74 -15.5 -153.5t-65.5 -129.5q-86 -80 -298 -80q-32 0 -45 15t-13 30q0 7 3 16q12 30 47 30q120 2 161 46q43 47 43 194v143q0 79 11 169.5t49 145.5q63 91 129 104q-68 14 -129 103 q-39 56 -49.5 147t-10.5 169v143q0 52 -9 109.5t-35 85.5q-41 45 -160 47q-55 0 -55 36q0 15 14 35q13 19 49 19q215 0 298 -80q51 -50 66 -130t15 -153v-212q0 -56 10 -113.5t39 -89.5q48 -53 192 -65q41 -6 49 -39v-11q0 -18 -10 -29q-13 -19 -40 -21z" />
<glyph unicode="~" d="M986 722q-63 -117 -120 -170q-68 -62 -144 -62q-121 0 -263 88q-68 42 -127 42q-44 0 -84 -25q-12 -8 -28 -18t-34 -26q-33 -31 -58 -69q-14 -21 -39 -21q-16 0 -32 10q-24 12 -24 35q0 14 11 32q47 72 99 153.5t169 81.5q135 0 271 -92q62 -42 121 -42q51 0 102 31 q50 29 88 99q14 24 44 24q8 0 13 -2q34 -5 40 -36q1 -5 1 -10q0 -10 -6 -23z" />
<glyph unicode="&#xa1;" horiz-adv-x="569" d="M319 519l70 -954v-9q0 -85 -99 -85h-63q-98 0 -98 83v11l70 954q0 44 49 44h21q50 0 50 -44zM259 644q-135 0 -135 107v82q0 107 135 107t135 -107v-82q0 -107 -135 -107z" />
<glyph unicode="&#xa2;" d="M647 976q152 0 305 -99l-18 -179q-5 -31 -38 -31h-4q-28 3 -41 34q-37 79 -96 116q-52 30 -108 33l1 -758q82 0 185 56q64 35 92 35q17 0 28 -11q7 -10 7 -21q0 -17 -15 -45q-18 -34 -38 -52q-56 -50 -133 -71.5t-127 -23.5v-191h-134v194q-153 14 -270 120.5t-134 290.5 q-4 44 -4 87q0 55 7 106q14 92 71 183q115 184 330 217v169h134v-159zM513 837q-35 -7 -73 -43q-50 -49 -73 -116q-25 -71 -25 -159q0 -28 3 -59q10 -143 77 -234q59 -80 91 -95v706z" />
<glyph unicode="&#xa3;" d="M97 108q0 -59 38 -59q39 0 58 38.5t30 71.5q-22 22 -49 22q-77 0 -77 -73zM64 804h149q-6 57 -6 124q0 58 6 107q13 122 59 210q113 218 366 218q77 0 149.5 -38.5t108.5 -109.5q17 -35 20 -77v-8q0 -42 -32 -74q-33 -33 -73 -33q-35 0 -69 28q-33 24 -39.5 72t-10.5 77 q-9 54 -69 63q-16 2 -30 2q-44 0 -74 -25q-56 -48 -71.5 -116.5t-15.5 -144.5q0 -74 6.5 -147.5t10.5 -127.5h238q40 0 40 -35v-70q0 -35 -40 -35h-229q1 -14 1 -49t-2 -71q-6 -83 -25 -157.5t-32 -137.5q36 -13 89 -31t108 -32q58 -14 106 -14q38 0 71 9q67 18 107 79 q11 16 15 45t54 29q45 0 45 -43q0 -36 -12 -67t-23 -60q-39 -100 -126 -162q-79 -53 -167 -53q-12 0 -24 1q-98 8 -181 64q-19 13 -74 48l-53 33q-42 -64 -113 -120q-37 -27 -82 -27q-25 0 -50 9q-70 23 -96 82q-10 23 -10 51q0 26 10 57q18 64 56 95q56 44 107 44h7 q43 -3 75 -5q4 29 4 76v30q-3 61 -5 123q-4 74 -12 154h-162q-40 0 -40 35v70q0 35 40 35z" />
<glyph unicode="&#xa4;" d="M513 712q-95 0 -163.5 -69t-68.5 -168t68.5 -167.5t163.5 -68.5q93 0 162 68.5t69 167.5t-69 168t-162 69zM513 842q126 0 207 -62l129 129q12 12 29 12q19 0 29 -13l47 -46q9 -11 9 -22q0 -12 -12 -24l-133 -132q66 -86 66 -208q0 -124 -66 -208l135 -133q10 -12 10 -23 t-9 -22l-48 -46q-12 -13 -29 -13q-18 0 -30 14l-127 127q-80 -61 -207 -61t-207 61l-128 -129q-12 -12 -29 -12t-28 11l-46 46q-12 12 -12 24t13 25l132 132q-65 85 -65 207q0 121 65 207l-133 134q-12 10 -12 23q0 12 12 24l46 46q11 11 28 11t29 -12l128 -129 q81 62 207 62z" />
<glyph unicode="&#xa5;" horiz-adv-x="1366" d="M522 741l-304 508q-20 30 -69 60q-26 13 -52 23t-44 21q-15 8 -24 20q-7 11 -7 21v5q4 25 35 25h339q19 0 35 -10q14 -10 23 -22q6 -10 6 -19q0 -13 -11 -26q-7 -9 -15 -17.5t-9 -16.5v-5q0 -17 13 -36l317 -501q41 56 109 162.5t126 199.5q26 42 31 69v9q0 26 -21 70 l-42 84l162 71q13 5 25 5q28 0 46 -27l61 -102q13 -23 13 -47q0 -40 -37 -81q-51 -56 -113 -140q-55 -74 -112 -160.5t-95 -142.5h256v-119h-330q-4 -12 -7.5 -49.5t-3.5 -52.5h341v-119h-341v-255q0 -52 50 -69.5t50 -55.5q0 -41 -46 -41h-339q-46 0 -46 41q0 38 50 55.5 t50 69.5q0 178 0.5 190.5t0.5 64.5h-303v119h303v14q-1 18 -1 39q0 44 -2 49h-300v119h232z" />
<glyph unicode="&#xa6;" d="M315 1510h182v-717h-182v717zM315 -243v716h182v-716h-182z" />
<glyph unicode="&#xa7;" d="M497 -345q69 5 132.5 36.5t102.5 93.5q40 65 40 157v11q-3 94 -71 143q-32 24 -77 37q-96 26 -198.5 37.5t-199.5 58.5q-89 42 -132 122t-43 173q0 175 105 276q-105 81 -105 251q0 180 126 297q133 122 331 122q15 0 30 -1q213 -9 375 -113l-24 -205q-4 -36 -40 -36 q-8 0 -12 1q-26 2 -41 40q-36 78 -107 132t-149 58h-14q-78 0 -139 -28q-37 -18 -62 -44q-23 -23 -38 -59q-16 -32 -22 -66q-6 -28 -6 -55q0 -33 9 -60q17 -56 60 -86q28 -22 68 -33q23 -6 55 -11t69 -11q52 -9 111.5 -18.5t117.5 -25.5q101 -34 149 -86q35 -38 59 -89 q26 -64 26 -140q0 -169 -102 -280q2 -1 17 -17q36 -41 59 -90q26 -64 26 -140q0 -203 -168 -342q-86 -69 -193 -105q-79 -27 -180 -33q-20 -1 -40 -1q-135 0 -270 42l-90 254q-3 8 -3 15q0 16 10 28q12 22 38 22h4q26 -3 45 -39q57 -121 140 -161q68 -34 174 -34q23 0 47 2z M733 312q39 63 39 156v11q-3 95 -70 144q-36 24 -78 37q-81 21 -167.5 32t-151.5 33q-6 -7 -18 -36q-16 -31 -22 -67q-6 -28 -6 -55q0 -33 9 -60q18 -57 60 -85q27 -23 68 -33q35 -9 124 -23q52 -9 111.5 -18.5t101.5 -35.5z" />
<glyph unicode="&#xa8;" horiz-adv-x="682" d="M554 1145q-59 0 -96 40q-38 35 -38 89q0 129 134 129q59 0 96 -37q39 -39 39 -92q0 -52 -39 -91q-38 -38 -96 -38zM130 1145q-58 0 -96 38q-45 45 -45 91q0 45 43 89q40 40 98 40t96 -38q38 -37 38 -91q0 -52 -39 -91q-38 -38 -95 -38z" />
<glyph unicode="&#xa9;" horiz-adv-x="1532" d="M767 1472q321 0 546.5 -224.5t225.5 -539.5q0 -316 -225.5 -540t-546.5 -224t-546.5 224t-225.5 540q0 315 225.5 539.5t546.5 224.5zM767 1352q-264 0 -452.5 -188t-188.5 -456q0 -269 188.5 -456.5t452.5 -187.5t453 187.5t189 456.5q0 268 -189 456t-453 188z M829 1148h15q150 0 287 -86l-16 -154q0 -30 -36 -30h-3q-24 0 -38 30q-32 68 -82 99q-47 28 -119 28h-19q-83 -4 -127 -47q-40 -38 -62 -99q-21 -61 -21 -136q0 -24 2 -50q9 -123 65 -200q75 -99 163 -111q14 -3 29 -3q69 0 156 47q56 32 81 32q16 0 24 -8q10 -10 10 -22 q0 -16 -14 -40q-14 -30 -33 -45q-54 -50 -131 -68q-70 -17 -136 -17h-7q-170 0 -285.5 94t-131.5 266q-4 39 -4 77q0 46 6 89q12 79 62 158q117 187 365 196z" />
<glyph unicode="&#xaa;" horiz-adv-x="686" d="M462 869l-130 -49q-25 -9 -41 -9q-18 0 -27 1q-97 3 -164 77q-65 70 -75 171q-2 23 -2 46q0 102 46 174q19 30 57 60q16 13 38 20q49 19 97 37t94 35q15 6 34 6q45 -3 102 -22q12 -4 34 -13q32 26 54 26q14 0 20 -6q20 -10 20 -27q0 -37 -3 -62t-4 -61q-1 -17 -1 -63 l1 -284q0 -22 29 -31t29 -37q0 -32 -37 -32l-136 1q-34 0 -34 27zM76 751h541q36 0 36 -31v-53q0 -32 -36 -32h-541q-37 0 -37 32v53q0 31 37 31zM362 913q12 1 24 5q42 16 76 29l-1 352q-51 47 -111 50q-7 0 -14 -3q-23 -8 -44.5 -16t-42.5 -16q-8 -3 -15 -10 q-32 -34 -44 -86q-9 -40 -9 -78q0 -15 1 -29q6 -79 43 -131q36 -49 87 -63q18 -5 36 -5q7 0 14 1z" />
<glyph unicode="&#xab;" d="M84 603q-12 10 -12 24q0 12 10 24q61 73 168.5 172.5t181.5 176.5q11 11 27 11q7 0 18 -4l43 -30q9 -12 9 -20q0 -6 -4 -13l-248 -315l247 -316q7 -6 7 -16q0 -13 -14 -22l-37 -25q-10 -7 -21 -7q-18 0 -27 13q-85 82 -174.5 170.5t-173.5 176.5zM505 603q-11 9 -11 23 q0 11 8 24q62 74 169.5 173.5t181.5 176.5q12 12 27 12t23 -8l37 -26q11 -11 11 -21q0 -9 -7 -15l-245 -313l249 -318q4 -7 4 -12q0 -15 -14 -24l-35 -24q-8 -8 -23 -8t-26 12q-85 84 -175 172t-174 176z" />
<glyph unicode="&#xac;" d="M1023 321h-167v434h-851v152h1018v-586z" />
<glyph unicode="&#xad;" horiz-adv-x="670" d="M156 389q-65 0 -65 48v83q0 49 66 49h356q66 0 66 -49v-83q0 -48 -65 -48h-358z" />
<glyph unicode="&#xae;" horiz-adv-x="1530" d="M886 671l245 -321q8 -7 27 -8q38 -7 38 -34v-2q-3 -31 -37 -31h-157q-25 0 -138.5 160.5t-170.5 232.5h-55v-287q0 -25 29.5 -35.5t29.5 -37.5q0 -33 -38 -33h-199q-37 0 -37 33q0 27 29.5 37.5t29.5 35.5v653q0 25 -29.5 35.5t-29.5 38.5q0 32 37 32l347 1 q66 0 138 -23.5t113 -93.5q29 -52 31 -128q-2 -72 -42 -129q-33 -47 -91 -71.5t-70 -24.5zM767 1472q321 0 546.5 -224.5t225.5 -539.5q0 -316 -225.5 -540t-546.5 -224t-546.5 224t-225.5 540q0 315 225.5 539.5t546.5 224.5zM638 1052v-303h111q87 0 135 46q41 39 41 107 q0 65 -43 107q-45 43 -121 43h-123zM767 1352q-264 0 -452.5 -188t-188.5 -456q0 -269 188.5 -456.5t452.5 -187.5t453 187.5t189 456.5q0 268 -189 456t-453 188z" />
<glyph unicode="&#xaf;" horiz-adv-x="680" d="M51 1367h599q36 0 36 -30v-86q0 -31 -36 -31h-599q-36 0 -36 31v86q0 30 36 30z" />
<glyph unicode="&#xb0;" horiz-adv-x="819" d="M406 1407q140 0 237 -97t97 -232t-97 -232t-237 -97q-141 0 -237.5 97t-96.5 232t96.5 232t237.5 97zM406 1285q-82 0 -141.5 -60.5t-59.5 -146.5q0 -87 59.5 -146.5t141.5 -59.5q81 0 141 59.5t60 146.5q0 86 -60 146.5t-141 60.5z" />
<glyph unicode="&#xb1;" d="M200 826h254v260q0 56 52 56h52q52 0 52 -56v-260h254q62 0 62 -46v-53q0 -46 -62 -46h-254v-259q0 -57 -52 -57h-52q-52 0 -52 57v259h-254q-62 0 -62 46v53q0 46 62 46zM200 258h664q62 0 62 -47v-52q0 -47 -62 -47h-664q-62 0 -62 47v52q0 47 62 47z" />
<glyph unicode="&#xb2;" horiz-adv-x="735" d="M83 431v71q0 61 37 107q33 42 106 121q42 41 83.5 87t79.5 91q51 60 78 128q18 44 18 81q0 34 -15 61q-31 58 -86 79q-32 12 -68 12q-39 0 -56 -7q-65 -27 -105 -74q-44 -49 -64 -92l-14 136q5 19 15 37q70 115 207 134q29 4 57 4q94 0 179 -48q112 -64 114 -206v-4 q0 -185 -166 -329q-159 -140 -214 -233h199q82 0 184 38v-156q-53 -35 -99.5 -36.5t-84.5 -1.5h-385z" />
<glyph unicode="&#xb3;" horiz-adv-x="735" d="M490 468q-75 -53 -189 -66q-18 -2 -35 -2q-94 0 -170 60l-6 229q84 -160 167 -180q32 -8 61 -8q46 0 85 20q60 32 81 90q12 33 12 67q0 29 -9 56q-19 61 -78.5 105t-185.5 46l-3 52q61 19 114 42.5t81 71.5q23 38 23 76q0 12 -2 23q-9 50 -40 83q-35 36 -89 42h-12 q-50 0 -96 -44q-23 -22 -63 -117l-24 170q111 120 251 120q167 -2 223 -134q15 -38 15 -74q0 -85 -94 -179q-16 -16 -21 -20q73 -36 119 -115q39 -69 39 -142q0 -10 -1 -21q-13 -148 -153 -251z" />
<glyph unicode="&#xb4;" horiz-adv-x="682" d="M225 1108q-50 -31 -84 -31q-8 0 -12 2q-28 3 -28 27q0 20 41 62l120 124q24 25 89.5 93t92.5 85q27 16 56 16q23 0 47 -10q52 -23 52 -83q0 -34 -24 -58.5t-50 -40.5z" />
<glyph unicode="&#xb5;" horiz-adv-x="1325" d="M865 752q0 50 -51 68t-51 57q0 41 45 41q52 2 109 16q68 15 178 55v-847q0 -51 51.5 -66.5t51.5 -54.5q0 -41 -46 -41h-288v75l-171 -67q-66 -25 -130 -25q-18 0 -35 2q-81 9 -142 43q-72 39 -84 39l3 -24l47 -554v-3q0 -39 -45 -39h-92q-45 0 -45 41v1336 q-15 15 -48.5 29t-33.5 44q0 41 45 41q55 3 110 17q35 7 67 18t103 35v-564q0 -172 76 -264q59 -73 144 -73q46 0 101 20l131 49v596z" />
<glyph unicode="&#xb6;" horiz-adv-x="1266" d="M702 1317v-1531h210v1531h-210zM504 767q-18 -6 -71 -6q-136 0 -229.5 98t-93.5 234q0 135 93.5 232.5t228.5 98.5h749q51 0 51 -45q0 -44 -61 -66t-61 -87v-1348q0 -65 61 -87t61 -66q0 -45 -51 -45h-748q-51 0 -51 45q0 44 61 66t61 87v889z" />
<glyph unicode="&#xb7;" horiz-adv-x="512" d="M255 476q-63 0 -105 42t-42 100q0 57 42 99.5t105 42.5t105 -42.5t42 -99.5q0 -58 -42 -100t-105 -42z" />
<glyph unicode="&#xb8;" horiz-adv-x="1011" d="M370 15h104q-14 -44 -14 -61q0 -25 16 -40q35 -33 74 -66q64 -54 64 -137v-9q-5 -100 -147 -111h-16q-63 0 -160 33l-30 134q95 -66 130 -66q25 0 49 16q21 14 21 34q0 30 -45 74q-34 32 -61 76q-14 21 -14 47q0 31 29 76z" />
<glyph unicode="&#xb9;" horiz-adv-x="668" d="M232 431q-38 0 -38 33q0 29 32 40.5t32 40.5v693h-131v51q0 41 148 81q33 9 65 17.5t85 24.5v-867q0 -29 32 -40.5t32 -40.5q0 -33 -38 -33h-219z" />
<glyph unicode="&#xba;" horiz-adv-x="682" d="M338 1449q137 0 232.5 -97.5t95.5 -232.5q0 -136 -95.5 -233.5t-232.5 -97.5q-138 0 -233.5 97.5t-95.5 233.5q0 135 95.5 232.5t233.5 97.5zM77 750h523q37 0 37 -32v-58q0 -33 -37 -33h-523q-37 0 -37 33v58q0 32 37 32zM325 1365q-63 0 -106 -67q-42 -66 -42 -156 q0 -10 1 -22q5 -106 58 -176.5t117 -70.5q61 0 105 67q43 65 43 156q0 10 -1 22q-6 105 -59 176t-116 71z" />
<glyph unicode="&#xbb;" d="M941 603q-85 -88 -174.5 -176t-174.5 -172q-11 -12 -26 -12t-23 8l-35 24q-14 9 -14 22q0 10 7 16l247 316l-246 313q-7 6 -7 15q0 10 11 21l40 28q10 5 20 5q13 0 25 -10q76 -78 183 -177.5t169 -172.5q10 -12 10 -24q0 -14 -12 -24zM520 603q-85 -88 -174.5 -176 t-174.5 -172q-11 -12 -26 -12t-23 8l-35 24q-14 9 -14 23q0 6 4 13l250 318l-246 313q-7 6 -7 15q0 10 11 21l37 26q8 8 23 8t27 -12q74 -77 181 -176.5t170 -173.5q8 -13 8 -24q0 -14 -11 -23z" />
<glyph unicode="&#xbc;" horiz-adv-x="1350" d="M1162 1420h170l-1187 -1440h-171zM1216 683v-401h94v-107h-94v-89q0 -20 47.5 -34.5t47.5 -41.5q0 -30 -36 -30h-260q-35 0 -35 30q0 27 48 41t48 33l1 91h-271v80l281 428h129zM1079 282v227l-147 -227h147zM417 1428v-614q0 -20 47 -34.5t47 -41.5q0 -31 -36 -31h-260 q-35 0 -35 31q0 27 47 41.5t47 33.5v480q0 8 -40 12q-65 5 -65 30q0 28 28 33z" />
<glyph unicode="&#xbd;" horiz-adv-x="1312" d="M417 1428v-614q0 -20 47 -34.5t47 -41.5q0 -31 -36 -31h-260q-35 0 -35 31q0 27 47 41.5t47 33.5v480q0 8 -40 12q-65 5 -65 30q0 28 28 33zM1129 1382h167l-1155 -1402h-168zM840 -14v54q0 47 26 79.5t79 89.5q55 55 116 128q35 41 55 90q14 36 14 65q0 61 -69 87 q-31 10 -57 10q-60 0 -103 -62q-17 -23 -45 -83l-20 110l3 21l8 18q52 87 154 101q22 3 42 3q70 0 133 -36q83 -47 84 -152v-2q0 -135 -121 -240q-113 -100 -147 -158h132q55 0 138 32v-125q-42 -28 -77 -29t-61 -1h-284z" />
<glyph unicode="&#xbe;" horiz-adv-x="1312" d="M1129 1382h167l-1155 -1402h-168zM411 719q-52 -36 -141 -49q-14 -2 -26 -2q-72 0 -132 48l-4 152q29 -87 130 -110q22 -5 42 -5q32 0 59 14q43 22 56 62q8 25 8 47q0 20 -6 39q-13 43 -55 74t-138 34v46q47 14 84.5 31t56.5 50q19 31 19 59q0 35 -32 68q-16 16 -63 28 q-4 1 -6 1q-45 0 -78 -28.5t-45 -93.5l-16 135q84 91 190 91q129 -2 168 -102q11 -28 11 -55q0 -55 -70 -135q-7 -8 -15 -13q-3 -2 -3 -3q1 0 10 7q110 -55 110 -183q0 -9 -1 -20q-10 -110 -113 -187zM1183 664v-389h92v-105h-92v-87q0 -19 46 -33t46 -40q0 -30 -35 -30 h-253q-35 0 -35 30q0 26 47 39.5t47 32.5v88h-263v78l273 416h127zM1048 275v218l-141 -218h141z" />
<glyph unicode="&#xbf;" horiz-adv-x="800" d="M436 395l3 -166q1 -65 18 -94q14 -29 69 -62q6 -6 16 -11.5t23 -13.5q172 -105 172 -273q0 -136 -92 -214q-91 -79 -252 -79q-156 0 -246 80q-92 83 -92 219q0 37 22 56q23 18 67 18q41 0 66 -17q25 -18 28 -48q10 -122 42 -168q28 -38 90 -38q74 0 110 43q39 47 39 148 q0 92 -42 160q-43 66 -167 153v306q0 53 11 85q15 41 51 41q38 0 52 -40q10 -30 12 -85zM357 604q-99 0 -99 94v63q0 94 99 94h63q99 0 99 -94v-63q0 -94 -99 -94h-63z" />
<glyph unicode="&#xc0;" horiz-adv-x="1593" d="M856 1447q56 -132 129.5 -303t152 -352t152 -352t124.5 -288q13 -32 51 -58q21 -13 43.5 -23t38.5 -21q15 -11 20 -22q4 -7 4 -15q0 -7 -5 -16q-8 -17 -34 -17h-338q-18 0 -34 11q-17 12 -20 23q-3 5 -3 13q0 17 18 32q10 9 21 17.5t15 20.5q2 6 2 13q0 14 -7 31 l-142 328h-547q-30 -72 -65.5 -157.5t-71.5 -170.5q-8 -18 -9 -32q-1 -6 -1 -12q0 -8 2 -15q3 -10 9.5 -18t11.5 -22q1 -10 1 -14q0 -7 -3 -13q-12 -35 -46 -35h-258q-25 0 -39 21q0 2 -2 6q0 8 3 19q10 22 46 38q14 7 31 15t33 19q32 23 46 55l573 1294h98zM925 1565 l-300 186q-26 16 -50 40.5t-24 59.5q0 60 54 83q22 9 45 9q29 0 56 -16q27 -17 92 -85t90 -93l120 -124q40 -42 40 -62q0 -24 -26 -27q-5 -2 -13 -2q-34 0 -84 31zM992 590l-226 527q-40 -97 -103.5 -249t-115.5 -278h445z" />
<glyph unicode="&#xc1;" horiz-adv-x="1593" d="M856 1447q56 -132 129.5 -303t152 -352t152 -352t124.5 -288q13 -32 51 -58q21 -13 43.5 -23t38.5 -21q15 -11 20 -22q4 -7 4 -15q0 -7 -5 -16q-8 -17 -34 -17h-338q-18 0 -34 11q-17 12 -20 23q-3 5 -3 13q0 17 18 32q10 9 21 17.5t15 20.5q2 6 2 13q0 14 -7 31 l-142 328h-547q-30 -72 -65.5 -157.5t-71.5 -170.5q-8 -18 -9 -32q-1 -6 -1 -12q0 -8 2 -15q3 -10 9.5 -18t11.5 -22q1 -10 1 -14q0 -7 -3 -13q-12 -35 -46 -35h-258q-25 0 -39 21q0 2 -2 6q0 8 3 19q10 22 46 38q14 7 31 15t33 19q32 23 46 55l573 1294h98zM672 1565 q-50 -31 -84 -31q-8 0 -12 2q-28 3 -28 27q0 20 41 62l120 124q24 25 89.5 93t92.5 85q27 16 56 16q23 0 46 -9q53 -23 53 -83q0 -35 -24 -59.5t-50 -40.5zM992 590l-226 527q-40 -97 -103.5 -249t-115.5 -278h445z" />
<glyph unicode="&#xc2;" horiz-adv-x="1593" d="M856 1447q56 -132 129.5 -303t152 -352t152 -352t124.5 -288q13 -32 51 -58q21 -13 43.5 -23t38.5 -21q15 -11 20 -22q4 -7 4 -15q0 -7 -5 -16q-8 -17 -34 -17h-338q-18 0 -34 11q-17 12 -20 23q-3 5 -3 13q0 17 18 32q10 9 21 17.5t15 20.5q2 6 2 13q0 14 -7 31 l-142 328h-547q-30 -72 -65.5 -157.5t-71.5 -170.5q-8 -18 -9 -32q-1 -6 -1 -12q0 -8 2 -15q3 -10 9.5 -18t11.5 -22q1 -10 1 -14q0 -7 -3 -13q-12 -35 -46 -35h-258q-25 0 -39 21q0 2 -2 6q0 8 3 19q10 22 46 38q14 7 31 15t33 19q32 23 46 55l573 1294h98zM485 1536 l255 387h146l256 -387h-109l-219 198l-220 -198h-109zM992 590l-226 527q-40 -97 -103.5 -249t-115.5 -278h445z" />
<glyph unicode="&#xc3;" horiz-adv-x="1593" d="M856 1447q56 -132 129.5 -303t152 -352t152 -352t124.5 -288q13 -32 51 -58q21 -13 43.5 -23t38.5 -21q15 -11 20 -22q4 -7 4 -15q0 -7 -5 -16q-8 -17 -34 -17h-338q-18 0 -34 11q-17 12 -20 23q-3 5 -3 13q0 17 18 32q10 9 21 17.5t15 20.5q2 6 2 13q0 14 -7 31 l-142 328h-547q-30 -72 -65.5 -157.5t-71.5 -170.5q-8 -18 -9 -32q-1 -6 -1 -12q0 -8 2 -15q3 -10 9.5 -18t11.5 -22q1 -10 1 -14q0 -7 -3 -13q-12 -35 -46 -35h-258q-25 0 -39 21q0 2 -2 6q0 8 3 19q10 22 46 38q14 7 31 15t33 19q32 23 46 55l573 1294h98zM1137 1806 q-44 -118 -84 -171q-49 -64 -109 -64q-89 0 -190 91q-46 39 -81 39q-26 0 -52 -22q-8 -8 -19 -18t-24 -26q-24 -33 -41 -70q-11 -23 -36 -23q-16 0 -30 12q-16 13 -16 33q0 13 7 30q33 72 70 154.5t127 82.5q99 0 196 -94q41 -40 77 -40q30 0 63 29q35 27 62 99q11 26 38 26 q7 0 13 -2q27 -7 32 -39v-6q0 -10 -3 -21zM992 590l-226 527q-40 -97 -103.5 -249t-115.5 -278h445z" />
<glyph unicode="&#xc4;" horiz-adv-x="1593" d="M856 1447q56 -132 129.5 -303t152 -352t152 -352t124.5 -288q13 -32 51 -58q21 -13 43.5 -23t38.5 -21q15 -11 20 -22q4 -7 4 -15q0 -7 -5 -16q-8 -17 -34 -17h-338q-18 0 -34 11q-17 12 -20 23q-3 5 -3 13q0 17 18 32q10 9 21 17.5t15 20.5q2 6 2 13q0 14 -7 31 l-142 328h-547q-30 -72 -65.5 -157.5t-71.5 -170.5q-8 -18 -9 -32q-1 -6 -1 -12q0 -8 2 -15q3 -10 9.5 -18t11.5 -22q1 -10 1 -14q0 -7 -3 -13q-12 -35 -46 -35h-258q-25 0 -39 21q0 2 -2 6q0 8 3 19q10 22 46 38q14 7 31 15t33 19q32 23 46 55l573 1294h98zM866 1708 q0 46 35.5 83t87.5 37q84 0 117 -76q10 -26 10 -50q0 -43 -37 -80q-35 -35 -77 -35q-1 -1 -14 -1q-53 0 -89 38q-33 33 -33 84zM512 1708q0 78 75 110q26 11 51 11q49 0 86 -37q38 -38 38 -82q0 -23 -9 -47q-32 -76 -117 -76q-124 0 -124 121zM992 590l-226 527 q-40 -97 -103.5 -249t-115.5 -278h445z" />
<glyph unicode="&#xc5;" horiz-adv-x="1593" d="M856 1447q56 -132 129.5 -303t152 -352t152 -352t124.5 -288q13 -32 51 -58q21 -13 43.5 -23t38.5 -21q15 -11 20 -22q4 -7 4 -15q0 -7 -5 -16q-8 -17 -34 -17h-338q-18 0 -34 11q-17 12 -20 23q-3 5 -3 13q0 17 18 32q10 9 21 17.5t15 20.5q2 6 2 13q0 14 -7 31 l-142 328h-547q-30 -72 -65.5 -157.5t-71.5 -170.5q-8 -18 -9 -32q-1 -6 -1 -12q0 -8 2 -15q3 -10 9.5 -18t11.5 -22q1 -10 1 -14q0 -7 -3 -13q-12 -35 -46 -35h-258q-25 0 -39 21q0 2 -2 6q0 8 3 19q10 22 46 38q14 7 31 15t33 19q32 23 46 55l573 1294h98zM799 1940 q92 0 156 -65.5t64 -154.5q0 -90 -64 -154.5t-156 -64.5q-93 0 -157 64.5t-64 154.5q0 89 64 154.5t157 65.5zM791 1872q-36 0 -61 -39q-25 -41 -25 -97v-16q3 -65 35 -108t68 -43q34 0 60 39q26 42 26 100v12q-4 65 -36 108.5t-67 43.5zM992 590l-226 527 q-40 -97 -103.5 -249t-115.5 -278h445z" />
<glyph unicode="&#xc6;" horiz-adv-x="1933" d="M1114 114h403q79 0 139.5 67t93.5 107q26 31 49 31q46 0 46 -41q0 -15 -3 -25l-77 -273h-939q-43 0 -43 41q0 38 50 55.5t50 69.5v323h-464q-41 -74 -89.5 -159.5t-96.5 -170.5q-8 -14 -14 -33q-3 -9 -3 -18q0 -4 1 -7q1 -11 6 -19t7 -19q2 -5 2 -10q0 -4 -2 -11l-3 -4 q0 -1 1 0v-1q-19 -37 -50 -37h-257q-28 0 -39 22v9q0 8 5 19q13 16 48 34q17 8 34.5 16t35.5 19q35 23 55 55l689 1169q-12 3 -52.5 15.5t-40.5 44.5q0 41 46 41h1080v-277q0 -41 -46 -41q-25 0 -59 50q-49 68 -81 101.5t-79 33.5h-403v-503h204q46 0 66 51.5t64 51.5 q45 0 45 -41v-254q0 -41 -45 -41q-43 0 -66 51t-70 51h-198v-543zM886 590v693q-69 -118 -199 -343.5t-200 -349.5h399z" />
<glyph unicode="&#xc7;" horiz-adv-x="1400" d="M538 -42h104q-14 -44 -14 -61q0 -25 16 -40q35 -33 74 -66q64 -54 64 -137v-9q-5 -100 -147 -111h-16q-63 0 -160 33l-30 134q95 -66 130 -66q25 0 49 16q21 14 21 34q0 30 -45 74q-34 32 -61 76q-14 21 -14 47q0 31 29 76zM848 -57q-317 0 -561.5 202t-244.5 556 q0 345 237.5 554.5t568.5 209.5q118 0 251.5 -26.5t265.5 -110.5l-25 -222q-8 -35 -45 -35h-4q-28 2 -48 41q-62 132 -152 175t-243 43q-212 0 -379 -148.5t-167 -480.5q0 -212 157 -408.5t390 -207.5q24 -1 45 -1q121 0 199 36q88 42 150 175q19 36 47 41h7q37 0 43 -36 l3 -28l-91 -255q-109 -45 -211 -59.5t-193 -14.5z" />
<glyph unicode="&#xc8;" horiz-adv-x="1251" d="M461 114h402q80 0 140.5 67t93.5 107q26 31 49 31q46 0 46 -41q0 -15 -3 -25l-77 -273h-939q-43 0 -43 41q0 38 50 55.5t50 69.5v1111q0 52 -50 69.5t-50 56.5q0 41 46 41h953v-277q0 -41 -46 -41q-25 0 -59 50q-49 68 -81 101.5t-80 33.5h-402v-503h204q46 0 66 51.5 t64 51.5q45 0 45 -41v-254q0 -41 -45 -41q-43 0 -66 51t-70 51h-198v-543zM788 1565l-300 186q-26 16 -50.5 40.5t-24.5 59.5q0 60 54 83q22 9 45 9q29 0 56 -16q27 -17 92.5 -85t90.5 -93l119 -124q41 -42 41 -63q0 -23 -28 -26q-4 -2 -12 -2q-33 0 -83 31z" />
<glyph unicode="&#xc9;" horiz-adv-x="1251" d="M461 114h402q80 0 140.5 67t93.5 107q26 31 49 31q46 0 46 -41q0 -15 -3 -25l-77 -273h-939q-43 0 -43 41q0 38 50 55.5t50 69.5v1111q0 52 -50 69.5t-50 56.5q0 41 46 41h953v-277q0 -41 -46 -41q-25 0 -59 50q-49 68 -81 101.5t-80 33.5h-402v-503h204q46 0 66 51.5 t64 51.5q45 0 45 -41v-254q0 -41 -45 -41q-43 0 -66 51t-70 51h-198v-543zM534 1565q-50 -31 -84 -31q-10 0 -13 2q-26 3 -26 26q0 21 41 63l121 126q22 23 87.5 91t92.5 85q27 16 57 16q22 0 45 -9q54 -23 54 -83q0 -35 -24.5 -59.5t-50.5 -40.5z" />
<glyph unicode="&#xca;" horiz-adv-x="1251" d="M461 114h402q80 0 140.5 67t93.5 107q26 31 49 31q46 0 46 -41q0 -15 -3 -25l-77 -273h-939q-43 0 -43 41q0 38 50 55.5t50 69.5v1111q0 52 -50 69.5t-50 56.5q0 41 46 41h953v-277q0 -41 -46 -41q-25 0 -59 50q-49 68 -81 101.5t-80 33.5h-402v-503h204q46 0 66 51.5 t64 51.5q45 0 45 -41v-254q0 -41 -45 -41q-43 0 -66 51t-70 51h-198v-543zM332 1536l256 387h146l255 -387h-109l-219 198l-219 -198h-110z" />
<glyph unicode="&#xcb;" horiz-adv-x="1251" d="M461 114h402q80 0 140.5 67t93.5 107q26 31 49 31q46 0 46 -41q0 -15 -3 -25l-77 -273h-939q-43 0 -43 41q0 38 50 55.5t50 69.5v1111q0 52 -50 69.5t-50 56.5q0 41 46 41h953v-277q0 -41 -46 -41q-25 0 -59 50q-49 68 -81 101.5t-80 33.5h-402v-503h204q46 0 66 51.5 t64 51.5q45 0 45 -41v-254q0 -41 -45 -41q-43 0 -66 51t-70 51h-198v-543zM713 1708q0 46 35.5 83t88.5 37q84 0 116 -76q10 -26 10 -50q0 -43 -35 -78q-43 -43 -91 -43t-89 41q-35 35 -35 86zM359 1708q0 78 75 110q26 11 52 11q49 0 86 -37q38 -38 38 -82q0 -23 -10 -47 q-31 -76 -117 -76q-124 0 -124 121z" />
<glyph unicode="&#xcc;" horiz-adv-x="690" d="M460 1257v-1110q0 -53 50 -70.5t50 -55.5q0 -41 -46 -41h-339q-45 0 -45 41q0 38 50 55.5t50 69.5v1111q0 52 -50 69.5t-50 56.5q0 41 46 41h338q46 0 46 -41q0 -39 -50 -56.5t-50 -69.5zM472 1565l-300 186q-26 16 -50.5 40.5t-24.5 59.5q0 60 54 83q22 9 45 9 q29 0 56 -16q27 -17 92.5 -85t90.5 -93l119 -124q41 -42 41 -63q0 -23 -28 -26q-4 -2 -12 -2q-33 0 -83 31z" />
<glyph unicode="&#xcd;" horiz-adv-x="690" d="M460 1257v-1110q0 -53 50 -70.5t50 -55.5q0 -41 -46 -41h-339q-45 0 -45 41q0 38 50 55.5t50 69.5v1111q0 52 -50 69.5t-50 56.5q0 41 46 41h338q46 0 46 -41q0 -39 -50 -56.5t-50 -69.5zM218 1565q-50 -31 -84 -31q-10 0 -13 2q-26 3 -26 27q0 20 40 62l120 124 q24 25 89.5 93t92.5 85q27 16 57 16q22 0 45 -9q54 -23 54 -83q0 -35 -24.5 -59.5t-50.5 -40.5z" />
<glyph unicode="&#xce;" horiz-adv-x="690" d="M460 1257v-1110q0 -53 50 -70.5t50 -55.5q0 -41 -46 -41h-339q-45 0 -45 41q0 38 50 55.5t50 69.5v1111q0 52 -50 69.5t-50 56.5q0 41 46 41h338q46 0 46 -41q0 -39 -50 -56.5t-50 -69.5zM17 1536l255 387h146l255 -387h-109l-219 198l-219 -198h-109z" />
<glyph unicode="&#xcf;" horiz-adv-x="690" d="M460 1257v-1110q0 -53 50 -70.5t50 -55.5q0 -41 -46 -41h-339q-45 0 -45 41q0 38 50 55.5t50 69.5v1111q0 52 -50 69.5t-50 56.5q0 41 46 41h338q46 0 46 -41q0 -39 -50 -56.5t-50 -69.5zM397 1708q0 46 35.5 83t88.5 37q84 0 116 -76q10 -26 10 -49q0 -44 -37 -81 q-41 -41 -89 -41q-47 0 -90 43q-34 33 -34 84zM43 1708q0 78 75 110q26 11 52 11q49 0 86 -37q38 -38 38 -82q0 -23 -10 -47q-31 -76 -117 -76q-124 0 -124 121z" />
<glyph unicode="&#xd0;" horiz-adv-x="1585" d="M1525 792q2 -34 2 -65q0 -169 -63 -305q-76 -162 -212 -267q-231 -178 -563 -182h-80q-58 0 -109 1h-117q-84 0 -127 3h-23q-39 0 -103 -6q-47 0 -47 42q0 38 50 56t50 70v526h-137q-46 0 -46 39v39q0 40 46 40h137v479q0 51 -50 68.5t-50 56.5q0 41 46 41q42 -1 85 -1 q42 0 85 1q86 3 169 5h59q154 0 310 -8q188 -11 340 -76q144 -64 238.5 -195t109.5 -362zM426 783h290q45 0 45 -40v-39q0 -39 -45 -39h-290l3 -550q105 -20 213 -20q195 0 339 76q134 70 212 217q72 136 72 348v33q-4 158 -55.5 264t-135.5 168q-123 92 -299 108 q-61 5 -124 5q-121 0 -227 -17z" />
<glyph unicode="&#xd1;" horiz-adv-x="1644" d="M1344 271v986q0 51 -49.5 69t-49.5 57q0 41 45 41h255q46 0 46 -41q0 -39 -50 -57t-50 -69l-1 -1327l-218 53l-917 1138v-975q0 -52 50 -69.5t50 -55.5q0 -41 -46 -41h-254q-46 0 -46 41q0 38 50 55.5t50 69.5v1111q0 51 -50 69t-50 57q0 41 46 41h271zM1188 1805 q-44 -117 -84 -170q-49 -64 -108 -64q-90 0 -191 91q-46 39 -81 39q-25 0 -51 -22q-9 -8 -20 -18t-23 -26q-23 -31 -42 -70q-11 -23 -36 -23q-16 0 -30 12q-16 13 -16 33q0 13 7 30q33 72 70 154.5t127 82.5q100 0 197 -94q41 -40 76 -40q30 0 64 29q34 28 61 99 q11 26 39 26q9 0 14 -3q26 -5 31 -38v-6q0 -12 -4 -22z" />
<glyph unicode="&#xd2;" horiz-adv-x="1610" d="M808 1338q-292 -1 -409 -186t-117 -450t147.5 -449.5t378.5 -186.5h5q225 0 372 194q148 197 148 436v6q-2 244 -125 440t-400 196zM936 1565l-300 186q-26 16 -50.5 40.5t-24.5 59.5q0 60 54 83q22 9 45 9q29 0 56 -16q27 -17 92.5 -85t90.5 -93l119 -124q41 -42 41 -63 q0 -23 -28 -26q-4 -2 -12 -2q-33 0 -83 31zM808 1466h10q334 0 564 -205q213 -191 213 -501q0 -28 -2 -56q-21 -351 -245.5 -546t-540.5 -213q-23 -1 -47 -1q-289 0 -511 199q-226 202 -226 526q0 18 1 37q12 347 227 551.5t557 208.5z" />
<glyph unicode="&#xd3;" horiz-adv-x="1610" d="M808 1338q-292 -1 -409 -186t-117 -450t147.5 -449.5t378.5 -186.5h5q225 0 372 194q148 197 148 436v6q-2 244 -125 440t-400 196zM682 1565q-50 -31 -84 -31q-10 0 -13 2q-26 3 -26 26q0 21 41 63l121 126q22 23 87.5 91t95.5 86q25 15 54 15q23 0 46 -9q53 -23 53 -83 q0 -35 -24.5 -59.5t-50.5 -40.5zM808 1466h10q334 0 564 -205q213 -191 213 -501q0 -28 -2 -56q-21 -351 -245.5 -546t-540.5 -213q-23 -1 -47 -1q-289 0 -511 199q-226 202 -226 526q0 18 1 37q12 347 227 551.5t557 208.5z" />
<glyph unicode="&#xd4;" horiz-adv-x="1610" d="M808 1338q-292 -1 -409 -186t-117 -450t147.5 -449.5t378.5 -186.5h5q225 0 372 194q148 197 148 436v6q-2 244 -125 440t-400 196zM481 1536l255 387h146l255 -387h-109l-219 198l-219 -198h-109zM808 1466h10q334 0 564 -205q213 -191 213 -501q0 -28 -2 -56 q-21 -351 -245.5 -546t-540.5 -213q-23 -1 -47 -1q-289 0 -511 199q-226 202 -226 526q0 18 1 37q12 347 227 551.5t557 208.5z" />
<glyph unicode="&#xd5;" horiz-adv-x="1610" d="M808 1338q-292 -1 -409 -186t-117 -450t147.5 -449.5t378.5 -186.5h5q225 0 372 194q148 197 148 436v6q-2 244 -125 440t-400 196zM1147 1805q-41 -113 -84 -170q-49 -64 -108 -64q-90 0 -191 91q-46 39 -81 39q-25 0 -51 -22q-9 -8 -20 -18t-23 -26q-24 -31 -40 -70 q-12 -23 -37 -23q-16 0 -30 12q-16 13 -16 33q0 13 7 30q33 71 69.5 154t126.5 83q100 0 197 -94q41 -40 76 -40q30 0 64 29q34 27 62 98q9 27 38 27q9 0 14 -3q26 -5 31 -38v-6q0 -12 -4 -22zM808 1466h10q334 0 564 -205q213 -191 213 -501q0 -28 -2 -56 q-21 -351 -245.5 -546t-540.5 -213q-23 -1 -47 -1q-289 0 -511 199q-226 202 -226 526q0 18 1 37q12 347 227 551.5t557 208.5z" />
<glyph unicode="&#xd6;" horiz-adv-x="1610" d="M808 1338q-292 -1 -409 -186t-117 -450t147.5 -449.5t378.5 -186.5h5q225 0 372 194q148 197 148 436v6q-2 244 -125 440t-400 196zM861 1708q0 46 35.5 83t88.5 37q84 0 116 -76q10 -26 10 -49q0 -44 -37 -81q-41 -41 -89 -41q-47 0 -90 43q-34 33 -34 84zM508 1708 q0 78 75 110q26 11 51 11q49 0 86 -37q38 -38 38 -82q0 -23 -10 -47q-31 -76 -117 -76q-123 0 -123 121zM808 1466h10q334 0 564 -205q213 -191 213 -501q0 -28 -2 -56q-21 -351 -245.5 -546t-540.5 -213q-23 -1 -47 -1q-289 0 -511 199q-226 202 -226 526q0 18 1 37 q12 347 227 551.5t557 208.5z" />
<glyph unicode="&#xd7;" d="M354 917l178 -179l180 180q21 21 45 21q21 0 35 -14l37 -37q15 -15 15 -31q0 -20 -22 -42l-183 -183l185 -186q20 -22 20 -40q0 -17 -14 -29l-36 -37q-16 -16 -37 -16q-24 0 -47 24l-178 177l-179 -179q-22 -22 -47 -22q-22 0 -36 16l-37 38q-13 13 -13 29q0 19 22 41 l184 184l-185 184q-21 20 -21 40q0 17 15 32l37 37q14 14 35 14q23 0 47 -22z" />
<glyph unicode="&#xd8;" horiz-adv-x="1610" d="M808 1338q-292 -1 -409 -186t-117 -450q0 -223 90 -366l843 798q-55 86 -157 145t-250 59zM1280 1011l-829 -784q138 -160 357 -161h5q225 0 372 194q148 197 148 436v6q-2 194 -53 309zM1641 1352l-183 -173q136 -174 136 -426q0 -24 -1 -49q-21 -351 -245.5 -546 t-540.5 -213q-24 -1 -49 -1q-263 0 -449 148l-140 -132q-15 -13 -32 -13q-20 0 -33 15l-35 36q-11 13 -11 25q0 14 12 26l140 133q-85 87 -138 223q-49 122 -49 267q0 16 1 34q12 347 227 551.5t557 208.5h10q345 0 549 -189l176 166q14 12 30 12q18 0 33 -13l35 -38 q13 -11 13 -26q0 -13 -13 -26z" />
<glyph unicode="&#xd9;" horiz-adv-x="1554" d="M209 588v670q0 51 -50 68.5t-50 56.5q0 41 46 41h339q45 0 45 -41q0 -39 -49 -55.5t-49 -67.5v-539q0 -152 10 -268.5t50 -194.5q38 -75 116.5 -113.5t221.5 -38.5q247 0 334 195q66 142 66 420v536q0 51 -50 69t-50 57q0 41 46 41h255q45 0 45 -41q0 -39 -49.5 -57 t-49.5 -69v-669q-1 -151 -28 -277t-101 -214q-135 -156 -418 -156q-175 0 -301 33.5t-203 123.5q-126 146 -126 490zM924 1565l-300 186q-26 16 -50.5 40.5t-24.5 59.5q0 60 54 83q22 9 45 9q29 0 56 -16q27 -17 92.5 -85t90.5 -93l120 -124q40 -42 40 -62q0 -24 -28 -27 q-4 -2 -12 -2q-33 0 -83 31z" />
<glyph unicode="&#xda;" horiz-adv-x="1554" d="M209 588v670q0 51 -50 68.5t-50 56.5q0 41 46 41h339q45 0 45 -41q0 -39 -49 -55.5t-49 -67.5v-539q0 -152 10 -268.5t50 -194.5q38 -75 116.5 -113.5t221.5 -38.5q247 0 334 195q66 142 66 420v536q0 51 -50 69t-50 57q0 41 46 41h255q45 0 45 -41q0 -39 -49.5 -57 t-49.5 -69v-669q-1 -151 -28 -277t-101 -214q-135 -156 -418 -156q-175 0 -301 33.5t-203 123.5q-126 146 -126 490zM670 1565q-50 -31 -84 -31q-10 0 -13 2q-26 3 -26 26q0 21 41 63l121 126q22 23 88 91t93 85q27 16 56 16q23 0 46 -9q53 -23 53 -83q0 -35 -24.5 -59.5 t-50.5 -40.5z" />
<glyph unicode="&#xdb;" horiz-adv-x="1554" d="M209 588v670q0 51 -50 68.5t-50 56.5q0 41 46 41h339q45 0 45 -41q0 -39 -49 -55.5t-49 -67.5v-539q0 -152 10 -268.5t50 -194.5q38 -75 116.5 -113.5t221.5 -38.5q247 0 334 195q66 142 66 420v536q0 51 -50 69t-50 57q0 41 46 41h255q45 0 45 -41q0 -39 -49.5 -57 t-49.5 -69v-669q-1 -151 -28 -277t-101 -214q-135 -156 -418 -156q-175 0 -301 33.5t-203 123.5q-126 146 -126 490zM469 1536l255 387h146l256 -387h-110l-219 198l-219 -198h-109z" />
<glyph unicode="&#xdc;" horiz-adv-x="1554" d="M209 588v670q0 51 -50 68.5t-50 56.5q0 41 46 41h339q45 0 45 -41q0 -39 -49 -55.5t-49 -67.5v-539q0 -152 10 -268.5t50 -194.5q38 -75 116.5 -113.5t221.5 -38.5q247 0 334 195q66 142 66 420v536q0 51 -50 69t-50 57q0 41 46 41h255q45 0 45 -41q0 -39 -49.5 -57 t-49.5 -69v-669q-1 -151 -28 -277t-101 -214q-135 -156 -418 -156q-175 0 -301 33.5t-203 123.5q-126 146 -126 490zM849 1708q0 46 35.5 83t88.5 37q84 0 116 -76q10 -26 10 -50q0 -43 -35 -78q-43 -43 -91 -43t-89 41q-35 35 -35 86zM496 1708q0 78 75 110q26 11 51 11 q49 0 86 -37q38 -38 38 -82q0 -23 -9 -47q-32 -76 -117 -76q-124 0 -124 121z" />
<glyph unicode="&#xdd;" horiz-adv-x="1366" d="M566 669l-348 580q-20 30 -69 60q-26 13 -52 23t-44 21q-15 8 -24 20q-7 11 -7 21v5q4 25 35 25h339q19 0 35 -10q14 -10 23 -22q6 -10 6 -19q0 -13 -11 -26q-7 -9 -15 -17.5t-9 -16.5v-5q0 -17 13 -36l315 -499l237 360q27 41 31 70q1 3 1 7q0 26 -21 69l-43 86l162 71 q13 5 25 5q28 0 46 -27l61 -102q13 -23 13 -46q0 -41 -39 -81q-52 -55 -111 -140l-266 -388q-16 -24 -21 -70.5t-5 -89.5v-351q0 -52 50 -69.5t50 -55.5q0 -41 -46 -41h-339q-46 0 -46 41q0 38 50 55.5t50 69.5v427q0 54 -26 96zM670 1565q-50 -31 -84 -31q-10 0 -13 2 q-26 3 -26 26q0 21 41 63l121 126q22 23 88 91t93 85q27 16 56 16q23 0 46 -9q53 -23 53 -83q0 -35 -24.5 -59.5t-50.5 -40.5z" />
<glyph unicode="&#xde;" horiz-adv-x="1151" d="M401 1257v-149h285q108 0 226.5 -38.5t184.5 -151.5q50 -89 50 -212q-2 -118 -68 -213q-58 -82 -164 -122t-193 -40h-321v-185q0 -52 50 -69.5t50 -55.5q0 -41 -46 -41h-339q-45 0 -45 41q0 38 50 55.5t50 69.5v1111q0 51 -50 69t-50 57q0 41 46 41h338q46 0 46 -41 q0 -39 -50 -57t-50 -69zM401 441h186q65 0 130.5 18.5t112.5 65.5q74 71 74 191q-2 116 -77 191q-81 78 -220 78h-206v-544z" />
<glyph unicode="&#xdf;" horiz-adv-x="1258" d="M502 52l-63 173l2 23q2 34 43 34h5q25 -5 41 -37q44 -94 104.5 -131.5t153.5 -40.5h12q66 0 146 31q78 31 81 112v6q0 94 -85 118q-106 30 -186 53q-103 28 -194 90q-95 64 -95 189v3q0 107 69.5 160.5t131.5 111.5q60 55 72 148q2 19 2 38q0 68 -35 118q-40 56 -127 65 q-11 1 -22 1q-68 0 -105 -49q-31 -42 -35.5 -108t-4.5 -133v-881q0 -52 50 -69q27 -10 39 -25zM513 22v-1q0 -41 -46 -41h-339q-46 0 -46 41q0 38 50 55.5t50 69.5v881q0 92 23.5 180.5t82.5 154.5q108 124 267 124q35 0 72 -6q187 -33 276 -208q34 -68 34 -132 q0 -100 -84 -190q-56 -60 -117 -102.5t-73 -99.5q-5 -21 -5 -37q0 -52 44 -73q68 -34 159 -55q132 -29 245 -81.5t123 -220.5v-12q0 -79 -61 -156q-66 -86 -191 -129q-77 -26 -170 -29h-28q-126 0 -255 37z" />
<glyph unicode="&#xe0;" horiz-adv-x="1155" d="M772 56l-240 -88q-37 -13 -63 -13h-42q-154 8 -262 122q-109 116 -124 281q-4 42 -4 82q0 53 7 103q13 89 69 177q27 47 94 98q25 17 55 30q81 30 161.5 60t161.5 60q22 8 42 8h6q68 -3 164 -34q10 -3 12 -5q20 -8 51 -18q8 -3 15 -3q6 0 10 3q19 16 26 26q13 17 35 17 q11 0 20 -4q37 -13 37 -38v-774q0 -52 50 -69.5t50 -55.5q0 -41 -46 -41h-243q-42 0 -42 33v43zM772 762q-32 30 -94.5 60t-108.5 32h-3q-14 0 -30 -6q-36 -13 -71.5 -26.5t-71.5 -26.5q-19 -8 -30 -20q-58 -62 -78 -151q-17 -70 -17 -138q0 -21 2 -44q11 -139 75 -225 q62 -87 154 -112q34 -10 69 -10q11 0 22 1q18 2 45 11q23 8 72 26.5t65 24.5v604zM589 1108l-300 186q-26 16 -50 40.5t-24 58.5q0 60 52 82q22 11 46 11q30 0 57 -16q27 -17 92 -85t90 -93l120 -124q40 -42 40 -62q0 -24 -28 -27q-4 -2 -12 -2q-33 0 -83 31z" />
<glyph unicode="&#xe1;" horiz-adv-x="1155" d="M772 56l-240 -88q-37 -13 -63 -13h-42q-154 8 -262 122q-109 116 -124 281q-4 42 -4 82q0 53 7 103q13 89 69 177q27 47 94 98q25 17 55 30q81 30 161.5 60t161.5 60q22 8 42 8h6q68 -3 164 -34q10 -3 12 -5q20 -8 51 -18q8 -3 15 -3q6 0 10 3q19 16 26 26q13 17 35 17 q11 0 20 -4q37 -13 37 -38v-774q0 -52 50 -69.5t50 -55.5q0 -41 -46 -41h-243q-42 0 -42 33v43zM772 762q-32 30 -94.5 60t-108.5 32h-3q-14 0 -30 -6q-36 -13 -71.5 -26.5t-71.5 -26.5q-19 -8 -30 -20q-58 -62 -78 -151q-17 -70 -17 -138q0 -21 2 -44q11 -139 75 -225 q62 -87 154 -112q34 -10 69 -10q11 0 22 1q18 2 45 11q23 8 72 26.5t65 24.5v604zM355 1108q-50 -31 -84 -31q-10 0 -13 2q-26 3 -26 26q0 21 41 63l120 124q24 25 89.5 93t92.5 85q27 16 56 16q23 0 47 -10q52 -23 52 -83q0 -34 -24 -58.5t-48 -39.5z" />
<glyph unicode="&#xe2;" horiz-adv-x="1155" d="M772 56l-240 -88q-37 -13 -63 -13h-42q-154 8 -262 122q-109 116 -124 281q-4 42 -4 82q0 53 7 103q13 89 69 177q27 47 94 98q25 17 55 30q81 30 161.5 60t161.5 60q22 8 42 8h6q68 -3 164 -34q10 -3 12 -5q20 -8 51 -18q8 -3 15 -3q6 0 10 3q19 16 26 26q13 17 35 17 q11 0 20 -4q37 -13 37 -38v-774q0 -52 50 -69.5t50 -55.5q0 -41 -46 -41h-243q-42 0 -42 33v43zM772 762q-32 30 -94.5 60t-108.5 32h-3q-14 0 -30 -6q-36 -13 -71.5 -26.5t-71.5 -26.5q-19 -8 -30 -20q-58 -62 -78 -151q-17 -70 -17 -138q0 -21 2 -44q11 -139 75 -225 q62 -87 154 -112q34 -10 69 -10q11 0 22 1q18 2 45 11q23 8 72 26.5t65 24.5v604zM204 1076l255 387h147l255 -387h-109l-219 199l-220 -199h-109z" />
<glyph unicode="&#xe3;" horiz-adv-x="1155" d="M772 56l-240 -88q-37 -13 -63 -13h-42q-154 8 -262 122q-109 116 -124 281q-4 42 -4 82q0 53 7 103q13 89 69 177q27 47 94 98q25 17 55 30q81 30 161.5 60t161.5 60q22 8 42 8h6q68 -3 164 -34q10 -3 12 -5q20 -8 51 -18q8 -3 15 -3q6 0 10 3q19 16 26 26q13 17 35 17 q11 0 20 -4q37 -13 37 -38v-774q0 -52 50 -69.5t50 -55.5q0 -41 -46 -41h-243q-42 0 -42 33v43zM772 762q-32 30 -94.5 60t-108.5 32h-3q-14 0 -30 -6q-36 -13 -71.5 -26.5t-71.5 -26.5q-19 -8 -30 -20q-58 -62 -78 -151q-17 -70 -17 -138q0 -21 2 -44q11 -139 75 -225 q62 -87 154 -112q34 -10 69 -10q11 0 22 1q18 2 45 11q23 8 72 26.5t65 24.5v604zM917 1353q-43 -116 -84 -170q-49 -64 -109 -64q-89 0 -190 91q-46 39 -81 39q-26 0 -52 -22q-8 -8 -19 -18t-24 -26q-18 -26 -42 -72q-10 -21 -35 -21q-16 0 -30 12q-16 13 -16 33q0 13 7 30 q33 71 69.5 154t126.5 83q101 0 198 -94q41 -40 76 -40q30 0 64 29q31 26 61 98q11 26 39 26h7q33 -7 38 -40v-6q0 -12 -4 -22z" />
<glyph unicode="&#xe4;" horiz-adv-x="1155" d="M772 56l-240 -88q-37 -13 -63 -13h-42q-154 8 -262 122q-109 116 -124 281q-4 42 -4 82q0 53 7 103q13 89 69 177q27 47 94 98q25 17 55 30q81 30 161.5 60t161.5 60q22 8 42 8h6q68 -3 164 -34q10 -3 12 -5q20 -8 51 -18q8 -3 15 -3q6 0 10 3q19 16 26 26q13 17 35 17 q11 0 20 -4q37 -13 37 -38v-774q0 -52 50 -69.5t50 -55.5q0 -41 -46 -41h-243q-42 0 -42 33v43zM772 762q-32 30 -94.5 60t-108.5 32h-3q-14 0 -30 -6q-36 -13 -71.5 -26.5t-71.5 -26.5q-19 -8 -30 -20q-58 -62 -78 -151q-17 -70 -17 -138q0 -21 2 -44q11 -139 75 -225 q62 -87 154 -112q34 -10 69 -10q11 0 22 1q18 2 45 11q23 8 72 26.5t65 24.5v604zM631 1261q0 46 35.5 83t88.5 37q86 0 116 -76q10 -26 10 -49q0 -44 -37 -81q-35 -35 -77 -35q-1 -1 -14 -1q-53 0 -89 38q-33 33 -33 84zM277 1261q0 82 76 110q26 10 50 10q49 0 87 -37 q38 -38 38 -82q0 -22 -10 -46q-31 -76 -117 -76q-124 0 -124 121z" />
<glyph unicode="&#xe5;" horiz-adv-x="1155" d="M772 56l-240 -88q-37 -13 -63 -13h-42q-154 8 -262 122q-109 116 -124 281q-4 42 -4 82q0 53 7 103q13 89 69 177q27 47 94 98q25 17 55 30q81 30 161.5 60t161.5 60q22 8 42 8h6q68 -3 164 -34q10 -3 12 -5q20 -8 51 -18q8 -3 15 -3q6 0 10 3q19 16 26 26q13 17 35 17 q11 0 20 -4q37 -13 37 -38v-774q0 -52 50 -69.5t50 -55.5q0 -41 -46 -41h-243q-42 0 -42 33v43zM772 762q-32 30 -94.5 60t-108.5 32h-3q-14 0 -30 -6q-36 -13 -71.5 -26.5t-71.5 -26.5q-19 -8 -30 -20q-58 -62 -78 -151q-17 -70 -17 -138q0 -21 2 -44q11 -139 75 -225 q62 -87 154 -112q34 -10 69 -10q11 0 22 1q18 2 45 11q23 8 72 26.5t65 24.5v604zM585 1537q92 0 156 -65.5t64 -154.5q0 -90 -64 -154.5t-156 -64.5q-93 0 -157 64.5t-64 154.5q0 89 64 154.5t157 65.5zM577 1469q-36 0 -61 -39q-25 -41 -25 -97v-15q3 -66 35 -109t68 -43 q34 0 60 39q26 42 26 101v12q-4 64 -36 107.5t-67 43.5z" />
<glyph unicode="&#xe6;" horiz-adv-x="1762" d="M957 877q114 101 313 103h4q209 0 321 -120q109 -120 109 -309q0 -41 -4 -67t-64 -26h-613q4 -137 78.5 -237.5t183.5 -122.5q32 -7 65 -7q89 0 184 52q65 34 91 34q17 0 25 -8q10 -10 10 -23q0 -17 -15 -45q-18 -34 -38 -51q-116 -101 -313 -101q-260 2 -390 149 l-372 -130q-37 -13 -63 -13h-42q-154 8 -262 122q-109 116 -124 281q-4 42 -4 82q0 53 7 103q13 89 69 177q27 47 94 98q25 17 55 30q81 30 161.5 60t161.5 60q22 8 42 8h6q68 -3 164 -34q111 -41 160 -65zM772 762q-32 30 -94.5 60t-108.5 32h-3q-14 0 -30 -6 q-36 -13 -71.5 -26.5t-71.5 -26.5q-19 -8 -30 -20q-58 -62 -78 -151q-17 -70 -17 -138q0 -21 2 -44q11 -139 75 -225q62 -87 154 -112q34 -10 69 -10q11 0 22 1q18 2 45 11q23 8 72 26.5t65 24.5v604zM1024 571h477q0 98 -53 196q-47 85 -172 85h-11q-125 -4 -181.5 -94.5 t-59.5 -186.5z" />
<glyph unicode="&#xe7;" horiz-adv-x="925" d="M399 -60h104q-14 -44 -14 -61q0 -25 16 -40q35 -33 74 -66q64 -54 64 -137v-9q-5 -100 -147 -111h-16q-63 0 -160 33l-30 134q95 -66 130 -66q25 0 49 16q21 14 21 34q0 30 -45 74q-34 32 -61 76q-14 21 -14 47q0 31 29 76zM554 976h22q172 0 326 -99l-18 -180 q-5 -31 -38 -31h-4q-28 3 -41 34q-37 81 -96 116q-57 34 -141 34h-23q-98 -5 -151 -56q-49 -48 -73 -117q-25 -71 -25 -158q0 -29 3 -60q10 -144 77 -235q88 -117 192 -132q16 -3 34 -3q82 0 185 57q64 34 91 34q14 0 26 -8q9 -9 9 -22q0 -15 -14 -45q-16 -34 -40 -55 q-60 -54 -148.5 -74.5t-166.5 -20.5q-196 1 -329.5 109t-151.5 307q-4 44 -4 87q0 55 7 107q14 92 71 183q60 97 169.5 159.5t251.5 68.5z" />
<glyph unicode="&#xe8;" horiz-adv-x="1000" d="M517 -45q-285 0 -403 186q-87 135 -87 302q0 53 9 110q31 198 152.5 310.5t328.5 112.5q440 0 440 -425q-1 -41 -4 -67t-65 -26h-608q0 -154 83 -261.5t231 -107.5q37 0 82 10t110 44q64 34 91 34q14 0 26 -8q10 -10 10 -23q0 -17 -15 -44q-13 -27 -21.5 -36t-15.5 -16 q-72 -62 -165 -78.5t-179 -16.5zM280 571h473q0 144 -57.5 211.5t-178.5 67.5q-120 0 -178.5 -83.5t-58.5 -195.5zM589 1108l-300 186q-26 16 -50 40.5t-24 58.5q0 60 52 82q22 11 46 11q30 0 57 -16q27 -17 92 -85t90 -93l120 -124q40 -42 40 -62q0 -24 -28 -27 q-4 -2 -12 -2q-33 0 -83 31z" />
<glyph unicode="&#xe9;" horiz-adv-x="1000" d="M517 -45q-285 0 -403 186q-87 135 -87 302q0 53 9 110q31 198 152.5 310.5t328.5 112.5q440 0 440 -425q-1 -41 -4 -67t-65 -26h-608q0 -154 83 -261.5t231 -107.5q37 0 82 10t110 44q64 34 91 34q14 0 26 -8q10 -10 10 -23q0 -17 -15 -44q-13 -27 -21.5 -36t-15.5 -16 q-72 -62 -165 -78.5t-179 -16.5zM280 571h473q0 144 -57.5 211.5t-178.5 67.5q-120 0 -178.5 -83.5t-58.5 -195.5zM361 1108q-50 -31 -84 -31q-10 0 -13 2q-26 3 -26 27q0 20 40 62l120 124q24 25 89.5 93t92.5 85q27 16 56 16q23 0 47 -10q52 -23 52 -83q0 -34 -24 -58.5 t-50 -40.5z" />
<glyph unicode="&#xea;" horiz-adv-x="1000" d="M517 -45q-285 0 -403 186q-87 135 -87 302q0 53 9 110q31 198 152.5 310.5t328.5 112.5q440 0 440 -425q-1 -41 -4 -67t-65 -26h-608q0 -154 83 -261.5t231 -107.5q37 0 82 10t110 44q64 34 91 34q14 0 26 -8q10 -10 10 -23q0 -17 -15 -44q-13 -27 -21.5 -36t-15.5 -16 q-72 -62 -165 -78.5t-179 -16.5zM280 571h473q0 144 -57.5 211.5t-178.5 67.5q-120 0 -178.5 -83.5t-58.5 -195.5zM159 1076l256 387h146l255 -387h-109l-219 199l-220 -199h-109z" />
<glyph unicode="&#xeb;" horiz-adv-x="1000" d="M517 -45q-285 0 -403 186q-87 135 -87 302q0 53 9 110q31 198 152.5 310.5t328.5 112.5q440 0 440 -425q-1 -41 -4 -67t-65 -26h-608q0 -154 83 -261.5t231 -107.5q37 0 82 10t110 44q64 34 91 34q14 0 26 -8q10 -10 10 -23q0 -17 -15 -44q-13 -27 -21.5 -36t-15.5 -16 q-72 -62 -165 -78.5t-179 -16.5zM280 571h473q0 144 -57.5 211.5t-178.5 67.5q-120 0 -178.5 -83.5t-58.5 -195.5zM540 1263q0 46 35.5 83t88.5 37q84 0 116 -76q10 -26 10 -49q0 -44 -37 -81q-35 -35 -77 -35q-1 -1 -14 -1q-53 0 -89 38q-33 33 -33 84zM186 1263 q0 78 75 110q27 10 51 10q49 0 87 -37q37 -37 37 -81q0 -23 -9 -47q-32 -76 -117 -76q-124 0 -124 121z" />
<glyph unicode="&#xec;" horiz-adv-x="596" d="M418 988v-842q0 -52 50 -69.5t50 -55.5q0 -41 -45 -41h-339q-46 0 -46 41q0 38 50 55.5t50 69.5v606q0 51 -50 68.5t-50 56.5q0 41 45 41q62 3 124.5 20t160.5 50zM430 1108l-300 186q-26 16 -50.5 40.5t-24.5 58.5q0 60 53 82q22 11 46 11q29 0 56 -16q27 -17 92.5 -85 t90.5 -93l119 -124q41 -42 41 -63q0 -23 -28 -26q-4 -2 -12 -2q-33 0 -83 31z" />
<glyph unicode="&#xed;" horiz-adv-x="596" d="M418 988v-842q0 -52 50 -69.5t50 -55.5q0 -41 -45 -41h-339q-46 0 -46 41q0 38 50 55.5t50 69.5v606q0 51 -50 68.5t-50 56.5q0 41 45 41q62 3 124.5 20t160.5 50zM176 1108q-50 -31 -84 -31q-10 0 -13 2q-26 3 -26 26q0 21 41 63l121 126q22 23 87.5 91t95.5 86 q25 15 54 15q23 0 47 -10q52 -23 52 -83q0 -34 -24.5 -58.5t-50.5 -40.5z" />
<glyph unicode="&#xee;" horiz-adv-x="596" d="M418 988v-842q0 -52 50 -69.5t50 -55.5q0 -41 -45 -41h-339q-46 0 -46 41q0 38 50 55.5t50 69.5v606q0 51 -50 68.5t-50 56.5q0 41 45 41q62 3 124.5 20t160.5 50zM-25 1076l255 387h146l255 -387h-109l-219 199l-219 -199h-109z" />
<glyph unicode="&#xef;" horiz-adv-x="596" d="M418 988v-842q0 -52 50 -69.5t50 -55.5q0 -41 -45 -41h-339q-46 0 -46 41q0 38 50 55.5t50 69.5v606q0 51 -50 68.5t-50 56.5q0 41 45 41q62 3 124.5 20t160.5 50zM355 1263q0 46 35.5 83t88.5 37q84 0 116 -76q10 -26 10 -49q0 -44 -37 -81q-35 -35 -77 -35l-1 -1 q-65 0 -102 38q-33 33 -33 84zM2 1263q0 78 75 110q27 10 51 10q49 0 87 -37q37 -37 37 -81q0 -23 -10 -47q-31 -76 -117 -76q-123 0 -123 121z" />
<glyph unicode="&#xf0;" horiz-adv-x="1105" d="M561 873h-11q-103 0 -179 -105q-85 -117 -85 -290v-4q0 -172 84 -298q81 -121 192 -126h12q102 0 178 105q85 116 86 291q0 173 -83 297.5t-194 129.5zM292 1051q-19 29 -28.5 44t-29.5 48q159 62 267 125q-70 63 -193 129q-31 18 -31 38q0 8 5 15q7 12 19 34 q17 30 50 30q15 0 33 -8q153 -91 242 -162q109 72 237 186q30 -32 41.5 -45t35.5 -37q-118 -115 -221 -183q156 -142 255 -341.5t102 -462.5v-6q0 -211 -147 -357q-150 -152 -369 -158h-13q-207 0 -355 153q-149 154 -149 365v3q1 231 172 389q23 21 63 35t114 43 q44 16 97 35q55 20 91 20h4q122 -5 157 -25q-14 26 -61.5 101t-92.5 123q-115 -66 -295 -131z" />
<glyph unicode="&#xf1;" horiz-adv-x="1191" d="M387 885q20 7 62 23t80 29q96 34 198 44q14 1 28 1q94 0 177 -63q129 -99 129 -413v-360q0 -52 50 -69.5t50 -55.5q0 -41 -45 -41h-243q-42 0 -42 33v493q0 212 -85 295q-51 50 -123 50q-43 0 -95 -17q-22 -8 -55.5 -20.5t-58.5 -22.5q-23 -8 -27 -10v-635 q0 -52 50 -69.5t50 -55.5q0 -41 -45 -41h-339q-46 0 -46 41q0 38 50 55.5t50 69.5v640q0 50 -50 68t-50 57q0 41 45 41q62 3 124.5 20t160.5 50v-137zM938 1352q-43 -117 -84 -171q-50 -64 -109 -64q-89 0 -190 91q-46 39 -82 39q-25 0 -51 -22q-8 -8 -19 -18t-24 -26 q-21 -28 -41 -70q-11 -23 -36 -23q-16 0 -30 12q-16 13 -16 33q0 13 7 30q33 71 69.5 154t126.5 83q100 0 197 -94q41 -40 76 -40q30 0 64 29q35 27 62 97q9 27 38 27h7q33 -7 38 -40v-6q0 -10 -3 -21z" />
<glyph unicode="&#xf2;" horiz-adv-x="1107" d="M578 976q207 -8 348 -157t144 -354v-6q0 -207 -147 -351q-151 -147 -370 -153h-16q-204 0 -351 150q-149 151 -149 357v3q1 226 171 381q23 21 63 35t114 41q44 16 97 35q55 19 92 19h4zM555 869h-11q-103 0 -180 -103q-85 -115 -85 -285t82.5 -291.5t193.5 -126.5h13 q102 0 178 103q85 114 85 284t-83 291.5t-193 127.5zM687 1108l-303 187q-24 15 -48 39.5t-24 58.5q0 60 53 82q22 11 46 11q29 0 56 -16q27 -17 92.5 -85t89.5 -93l120 -124q41 -42 41 -63q0 -23 -28 -26q-4 -2 -12 -2q-33 0 -83 31z" />
<glyph unicode="&#xf3;" horiz-adv-x="1107" d="M578 976q207 -8 348 -157t144 -354v-6q0 -207 -147 -351q-151 -147 -370 -153h-16q-204 0 -351 150q-149 151 -149 357v3q1 226 171 381q23 21 63 35t114 41q44 16 97 35q55 19 92 19h4zM555 869h-11q-103 0 -180 -103q-85 -115 -85 -285t82.5 -291.5t193.5 -126.5h13 q102 0 178 103q85 114 85 284t-83 291.5t-193 127.5zM433 1108q-50 -31 -84 -31q-10 0 -13 2q-26 3 -26 27q0 20 40 62l120 124q24 25 89.5 93t92.5 85q27 16 56 16q23 0 47 -10q52 -23 52 -83q0 -34 -24 -58.5t-50 -40.5z" />
<glyph unicode="&#xf4;" horiz-adv-x="1107" d="M578 976q207 -8 348 -157t144 -354v-6q0 -207 -147 -351q-151 -147 -370 -153h-16q-204 0 -351 150q-149 151 -149 357v3q1 226 171 381q23 21 63 35t114 41q44 16 97 35q55 19 92 19h4zM555 869h-11q-103 0 -180 -103q-85 -115 -85 -285t82.5 -291.5t193.5 -126.5h13 q102 0 178 103q85 114 85 284t-83 291.5t-193 127.5zM212 1076l255 387h147l255 -387h-109l-219 199l-220 -199h-109z" />
<glyph unicode="&#xf5;" horiz-adv-x="1107" d="M578 976q207 -8 348 -157t144 -354v-6q0 -207 -147 -351q-151 -147 -370 -153h-16q-204 0 -351 150q-149 151 -149 357v3q1 226 171 381q23 21 63 35t114 41q44 16 97 35q55 19 92 19h4zM555 869h-11q-103 0 -180 -103q-85 -115 -85 -285t82.5 -291.5t193.5 -126.5h13 q102 0 178 103q85 114 85 284t-83 291.5t-193 127.5zM898 1351q-43 -116 -84 -170q-49 -64 -108 -64q-90 0 -191 91q-46 39 -81 39q-25 0 -51 -22q-9 -8 -20 -18t-23 -26q-23 -31 -42 -70q-11 -23 -36 -23q-16 0 -30 12q-16 13 -16 33q0 13 7 30q33 72 70 154.5t127 82.5 q100 0 197 -94q41 -40 76 -40q30 0 64 29q34 28 61 98q11 26 39 26h7q33 -7 38 -40v-6q0 -12 -4 -22z" />
<glyph unicode="&#xf6;" horiz-adv-x="1107" d="M578 976q207 -8 348 -157t144 -354v-6q0 -207 -147 -351q-151 -147 -370 -153h-16q-204 0 -351 150q-149 151 -149 357v3q1 226 171 381q23 21 63 35t114 41q44 16 97 35q55 19 92 19h4zM555 869h-11q-103 0 -180 -103q-85 -115 -85 -285t82.5 -291.5t193.5 -126.5h13 q102 0 178 103q85 114 85 284t-83 291.5t-193 127.5zM612 1263q0 46 35.5 83t88.5 37q84 0 116 -76q10 -26 10 -49q0 -44 -37 -81q-35 -35 -77 -35q-1 -1 -14 -1q-53 0 -89 38q-33 33 -33 84zM258 1263q0 78 75 110q27 10 51 10q49 0 87 -37q38 -38 38 -82q0 -22 -10 -46 q-31 -76 -117 -76q-124 0 -124 121z" />
<glyph unicode="&#xf7;" d="M200 704h664q62 0 62 -46v-53q0 -46 -62 -46h-664q-62 0 -62 46v53q0 46 62 46zM532 811q-54 0 -89 38q-35 32 -35 82q0 48 34 81q35 37 90 37q54 0 89 -37q36 -34 36 -81q0 -49 -36 -83q-36 -37 -89 -37zM532 212q-53 0 -88 35q-36 36 -36 85q0 48 35 82q36 36 89 36 t89 -36q36 -35 36 -82q0 -48 -37 -85q-35 -35 -88 -35z" />
<glyph unicode="&#xf8;" horiz-adv-x="1107" d="M26 28l121 120q-110 129 -110 311v6q1 226 171 381q23 21 63 35t114 41q44 16 97 35q55 19 92 19h4q182 -6 299 -111l121 118q12 9 26 9q15 0 28 -10l37 -39q11 -9 11 -21t-12 -21l-125 -124q104 -129 107 -312v-6q0 -207 -147 -351q-151 -147 -370 -153h-14 q-183 0 -306 106l-115 -111q-11 -12 -27 -12t-26 10l-38 38q-11 11 -11 22t10 20zM305 303l446 437q-77 122 -196 129h-11q-103 0 -180 -103q-85 -115 -85 -285q0 -115 26 -178zM807 623l-445 -435q75 -119 193 -125h13q102 0 178 103q85 114 85 284q0 114 -24 173z" />
<glyph unicode="&#xf9;" horiz-adv-x="1239" d="M1065 146q0 -52 50 -69.5t50 -55.5q0 -41 -46 -41h-243q-42 0 -42 33v33q-19 -7 -62 -23.5t-81 -29.5q-95 -32 -196 -42q-16 -1 -30 -1q-93 0 -175 61q-130 99 -130 414v361q0 50 -50 68t-50 57q0 41 45 41q62 3 124.5 20t161.5 50v-597q0 -213 85 -295q51 -50 123 -50 q43 0 97 18q19 6 53 19t57 22q6 2 17 6l11 4v637q0 50 -50 68t-50 57q0 41 45 41q62 3 124.5 20t161.5 50v-876zM727 1108l-300 186q-26 16 -50 40.5t-24 58.5q0 60 52 82q22 11 46 11q30 0 57 -16q27 -17 92 -85t90 -93l120 -124q40 -42 40 -62q0 -24 -26 -27q-5 -2 -13 -2 q-34 0 -84 31z" />
<glyph unicode="&#xfa;" horiz-adv-x="1239" d="M1065 146q0 -52 50 -69.5t50 -55.5q0 -41 -46 -41h-243q-42 0 -42 33v33q-19 -7 -62 -23.5t-81 -29.5q-95 -32 -196 -42q-16 -1 -30 -1q-93 0 -175 61q-130 99 -130 414v361q0 50 -50 68t-50 57q0 41 45 41q62 3 124.5 20t161.5 50v-597q0 -213 85 -295q51 -50 123 -50 q43 0 97 18q19 6 53 19t57 22q6 2 17 6l11 4v637q0 50 -50 68t-50 57q0 41 45 41q62 3 124.5 20t161.5 50v-876zM474 1108q-50 -31 -84 -31q-8 0 -12 2q-28 3 -28 27q0 20 41 62l120 124q24 25 89.5 93t92.5 85q27 16 56 16q23 0 47 -10q52 -23 52 -83q0 -34 -24 -58.5 t-50 -40.5z" />
<glyph unicode="&#xfb;" horiz-adv-x="1239" d="M1065 146q0 -52 50 -69.5t50 -55.5q0 -41 -46 -41h-243q-42 0 -42 33v33q-19 -7 -62 -23.5t-81 -29.5q-95 -32 -196 -42q-16 -1 -30 -1q-93 0 -175 61q-130 99 -130 414v361q0 50 -50 68t-50 57q0 41 45 41q62 3 124.5 20t161.5 50v-597q0 -213 85 -295q51 -50 123 -50 q43 0 97 18q19 6 53 19t57 22q6 2 17 6l11 4v637q0 50 -50 68t-50 57q0 41 45 41q62 3 124.5 20t161.5 50v-876zM272 1076l255 387h147l255 -387h-109l-219 199l-220 -199h-109z" />
<glyph unicode="&#xfc;" horiz-adv-x="1239" d="M1065 146q0 -52 50 -69.5t50 -55.5q0 -41 -46 -41h-243q-42 0 -42 33v33q-19 -7 -62 -23.5t-81 -29.5q-95 -32 -196 -42q-16 -1 -30 -1q-93 0 -175 61q-130 99 -130 414v361q0 50 -50 68t-50 57q0 41 45 41q62 3 124.5 20t161.5 50v-597q0 -213 85 -295q51 -50 123 -50 q43 0 97 18q19 6 53 19t57 22q6 2 17 6l11 4v637q0 50 -50 68t-50 57q0 41 45 41q62 3 124.5 20t161.5 50v-876zM653 1263q0 46 35.5 83t87.5 37q84 0 117 -76q10 -26 10 -50q0 -43 -37 -80q-35 -35 -77 -35q-1 -1 -14 -1q-53 0 -89 38q-33 33 -33 84zM299 1263q0 78 75 110 q27 10 51 10q49 0 87 -37q37 -37 37 -81q0 -23 -9 -47q-32 -76 -117 -76q-124 0 -124 121z" />
<glyph unicode="&#xfd;" horiz-adv-x="1139" d="M143 794q-14 32 -41 50q-23 15 -54 27.5t-39 34.5q-4 9 -4 16q0 29 38 29h328q37 0 50 -31q4 -7 4 -15q0 -23 -29 -37q-14 -7 -20 -24q-2 -6 -2 -14q0 -9 5 -19l238 -582l206 494q8 18 8 35q0 29 -24 57l-44 53l104 81q12 13 29 13q19 0 35 -16l56 -57q22 -23 22 -56 q0 -17 -7 -39q-16 -48 -48 -113l-494 -1102q-31 -66 -55 -111q-31 -54 -84 -54h-4l-82 3q-41 7 -41 39l-7 133l76 2q51 2 73 46l156 324q3 0 3 2q0 4 -7 12q-6 6 -11 20.5t-7 19.5zM474 1108q-50 -31 -84 -31q-8 0 -12 2q-28 3 -28 27q0 20 41 62l120 124q24 25 89.5 93 t92.5 85q27 16 56 16q23 0 47 -10q52 -23 52 -83q0 -34 -24 -58.5t-50 -40.5z" />
<glyph unicode="&#xfe;" horiz-adv-x="1180" d="M418 1493v-617l231 87q35 12 61 14q11 0 21.5 -0.5t22.5 -0.5q154 -8 263 -124q107 -118 123 -280q4 -41 4 -81q0 -55 -7 -105q-14 -89 -69 -176q-31 -50 -94 -98q-26 -18 -55 -30q-82 -30 -162.5 -60t-160.5 -59q-22 -8 -43 -8h-6q-68 3 -129 31v-542q-98 33 -160.5 50 t-124.5 20q-46 0 -46 40q0 39 50.5 57t50.5 69v1577q0 51 -50.5 69t-50.5 57q0 41 46 41q62 3 124.5 19.5t160.5 49.5zM418 162q32 -30 90 -57.5t103 -28.5h6q11 0 28 6q35 13 71 26t72 27q18 7 30 20q57 61 78 150q16 72 16 143q0 21 -1 40q-11 138 -75 225 q-89 122 -221 122q-12 0 -24 -1q-21 -2 -46 -11q-22 -9 -66 -28t-61 -25v-608z" />
<glyph unicode="&#xff;" horiz-adv-x="1139" d="M143 794q-14 32 -41 50q-23 15 -54 27.5t-39 34.5q-4 9 -4 16q0 29 38 29h328q37 0 50 -31q4 -7 4 -15q0 -23 -29 -37q-14 -7 -20 -24q-2 -6 -2 -14q0 -9 5 -19l238 -582l206 494q8 18 8 35q0 29 -24 57l-44 53l104 81q12 13 29 13q19 0 35 -16l56 -57q22 -23 22 -56 q0 -17 -7 -39q-16 -48 -48 -113l-494 -1102q-31 -66 -55 -111q-31 -54 -84 -54h-4l-82 3q-41 7 -41 39l-7 133l76 2q51 2 73 46l156 324q3 0 3 2q0 4 -7 12q-6 6 -11 20.5t-7 19.5zM596 1263q0 46 35.5 83t88.5 37q84 0 116 -77q10 -26 10 -49q0 -44 -36 -80 q-42 -42 -90 -42t-91 43q-33 34 -33 85zM243 1263q0 78 75 110q27 10 51 10q49 0 87 -37q37 -37 37 -81q0 -23 -9 -47q-32 -76 -117 -76q-124 0 -124 121z" />
<glyph unicode="&#x152;" horiz-adv-x="2044" d="M1047 -20q-122 -35 -266 -36q-289 0 -513 200q-224 198 -224 524v34q10 349 228 556q219 208 566 208q173 0 292 -42h876v-277q0 -41 -46 -41q-25 0 -66.5 59t-74 92.5t-79.5 33.5h-403v-503h205q46 0 65.5 51.5t64.5 51.5t45 -41v-254q0 -41 -44.5 -41t-67.5 51t-70 51 h-198v-543h403q79 0 140 67t90.5 102.5t52.5 35.5q46 0 46 -41q0 -15 -3 -25l-77 -273h-942zM829 1338q-291 0 -408.5 -185.5t-117.5 -450.5t147 -450q148 -186 385 -186q152 0 271 95v1102q0 1 -56 38t-221 37z" />
<glyph unicode="&#x153;" horiz-adv-x="1830" d="M578 976q240 -11 364 -173q106 173 385 173q439 0 441 -425q-1 -41 -5 -67t-64 -26h-608q0 -154 83 -261.5t230 -107.5q38 0 83 10t110 44t92 34q17 0 28 -11q6 -9 6 -19q0 -17 -15 -45q-15 -32 -38 -52q-71 -62 -163.5 -78.5t-179.5 -16.5q-283 0 -390 166 q-129 -159 -384 -166h-16q-204 0 -351 150q-149 151 -149 357v3q1 226 171 381q23 21 63 35t114 41q44 16 97 35q55 19 92 19h4zM1091 571h473q0 144 -57.5 211.5t-179.5 67.5q-120 0 -178 -83.5t-58 -195.5zM555 869h-11q-103 0 -180 -103q-85 -115 -85 -285t82.5 -291.5 t193.5 -126.5h13q102 0 178 103q85 114 85 284t-83 291.5t-193 127.5z" />
<glyph unicode="&#x178;" horiz-adv-x="1366" d="M566 669l-348 580q-20 30 -69 60q-26 13 -52 23t-44 21q-15 8 -24 20q-7 11 -7 21v5q4 25 35 25h339q19 0 35 -10q14 -10 23 -22q6 -10 6 -19q0 -13 -11 -26q-7 -9 -15 -17.5t-9 -16.5v-5q0 -17 13 -36l315 -499l237 360q27 41 31 70q1 3 1 7q0 26 -21 69l-43 86l162 71 q13 5 25 5q28 0 46 -27l61 -102q13 -23 13 -46q0 -41 -39 -81q-52 -55 -111 -140l-266 -388q-16 -24 -21 -70.5t-5 -89.5v-351q0 -52 50 -69.5t50 -55.5q0 -41 -46 -41h-339q-46 0 -46 41q0 38 50 55.5t50 69.5v427q0 54 -26 96zM849 1708q0 46 35.5 83t88.5 37 q84 0 116 -76q10 -26 10 -50q0 -43 -35 -78q-43 -43 -91 -43t-89 41q-35 35 -35 86zM496 1708q0 78 75 110q26 11 51 11q49 0 86 -37q38 -38 38 -82q0 -23 -9 -47q-32 -76 -117 -76q-124 0 -124 121z" />
<glyph unicode="&#x2c6;" horiz-adv-x="680" d="M3 1076l256 387h146l255 -387h-109l-219 199l-219 -199h-110z" />
<glyph unicode="&#x2dc;" horiz-adv-x="680" d="M670 1351q-43 -116 -84 -170q-49 -64 -108 -64q-90 0 -191 91q-46 39 -81 39q-25 0 -51 -22q-9 -8 -20 -18t-23 -26q-23 -31 -42 -70q-11 -23 -36 -23q-16 0 -30 12q-16 13 -16 33q0 13 7 30q33 72 70 154.5t127 82.5q100 0 197 -94q41 -40 76 -40q30 0 64 29 q34 28 61 98q11 26 39 26h7q33 -7 38 -40v-6q0 -12 -4 -22z" />
<glyph unicode="&#x2000;" horiz-adv-x="971" />
<glyph unicode="&#x2001;" horiz-adv-x="1943" />
<glyph unicode="&#x2002;" horiz-adv-x="971" />
<glyph unicode="&#x2003;" horiz-adv-x="1943" />
<glyph unicode="&#x2004;" horiz-adv-x="647" />
<glyph unicode="&#x2005;" horiz-adv-x="485" />
<glyph unicode="&#x2006;" horiz-adv-x="323" />
<glyph unicode="&#x2007;" horiz-adv-x="323" />
<glyph unicode="&#x2008;" horiz-adv-x="242" />
<glyph unicode="&#x2009;" horiz-adv-x="388" />
<glyph unicode="&#x200a;" horiz-adv-x="107" />
<glyph unicode="&#x2010;" d="M200 704h664q62 0 62 -46v-53q0 -46 -62 -46h-664q-62 0 -62 46v53q0 46 62 46z" />
<glyph unicode="&#x2011;" d="M200 704h664q62 0 62 -46v-53q0 -46 -62 -46h-664q-62 0 -62 46v53q0 46 62 46z" />
<glyph unicode="&#x2012;" d="M200 704h664q62 0 62 -46v-53q0 -46 -62 -46h-664q-62 0 -62 46v53q0 46 62 46z" />
<glyph unicode="&#x2013;" d="M-25 416v159h1078v-159h-1078z" />
<glyph unicode="&#x2014;" horiz-adv-x="2048" d="M241 417v158h1574v-158h-1574z" />
<glyph unicode="&#x2018;" horiz-adv-x="429" d="M380 1468q54 -7 54 -49q-3 -19 -19 -33.5t-47 -30.5q-91 -48 -106 -110h-29q132 -10 132 -110v-7l-6 -85q-5 -87 -126 -103q-7 0 -20 1q-131 11 -131 108v9l5 86q1 19 16.5 59.5t18.5 45.5q52 118 179 194q43 25 63 25h16z" />
<glyph unicode="&#x2019;" horiz-adv-x="433" d="M434 1356v-7l-6 -86q-11 -54 -33 -103q-53 -119 -180 -195q-41 -25 -69 -25h-6q-29 2 -44 16q-15 15 -15 31q1 34 66 66q90 48 107 112q-103 7 -103 106v9l5 85q10 100 145 102q133 -10 133 -111z" />
<glyph unicode="&#x201a;" horiz-adv-x="463" d="M325 252q140 0 140 -110l1 -84q0 -22 -11 -56q-5 -14 -9 -25.5t-7 -23.5q-45 -124 -165 -207q-48 -30 -78 -30q-26 0 -45 17q-12 15 -12 28q0 15 12 29q18 22 48 39q87 54 100 119h28q-139 0 -139 108l-1 85q0 109 138 111z" />
<glyph unicode="&#x201c;" horiz-adv-x="837" d="M82 1049v9l5 86q1 19 17 60q51 156 195 238q35 27 70 27q28 -2 54 -21q9 -15 9 -28q0 -16 -14 -30q-16 -17 -49 -35q-92 -48 -108 -112q104 -7 104 -108v-7l-6 -85q-9 -97 -144 -102q-133 9 -133 108zM471 1049v9l5 86q1 19 14 55l20 49q53 119 178 194q35 27 71 27 q29 -2 54 -21q8 -14 8 -27q0 -16 -13 -31q-17 -17 -50 -35q-92 -48 -108 -112q104 -7 104 -107v-7l-5 -86q-9 -103 -131 -103q-9 1 -14 1q-133 0 -133 108z" />
<glyph unicode="&#x201d;" horiz-adv-x="842" d="M434 1356v-7l-6 -86q-11 -54 -33 -103q-53 -119 -179 -194q-35 -27 -70 -27q-27 0 -50 17q-15 15 -15 32v4q18 41 67 61q89 48 106 112q-103 7 -103 106v9l5 85q10 100 145 102q133 -10 133 -111zM605 965q-37 -25 -71 -25q-26 0 -50 16q-14 16 -14 32v4q18 41 67 61 q89 48 106 112q-103 5 -103 106v9l5 85q9 103 126 103q11 0 21 -1q131 -17 131 -111v-7l-6 -86q-11 -54 -33 -103q-53 -119 -179 -195z" />
<glyph unicode="&#x201e;" horiz-adv-x="842" d="M434 148v-7l-6 -85q-2 -27 -13 -51.5t-20 -51.5q-53 -119 -180 -195q-39 -26 -70 -26q-2 0 -5 1q-32 2 -47 20q-14 15 -14 29q0 15 18 29q18 21 50 35q90 47 108 112q-104 8 -104 104v9l5 86q10 100 145 102q133 -10 133 -111zM605 -242q-42 -26 -71 -26q-3 0 -5 1 q-31 2 -47 20q-13 15 -13 29q0 16 17 29q18 21 50 35q90 47 107 112q-103 7 -103 104v9l5 86q9 103 126 103q11 0 21 -1q131 -17 131 -111v-7l-6 -85q-2 -27 -13 -51.5t-20 -51.5q-53 -118 -179 -195z" />
<glyph unicode="&#x2022;" horiz-adv-x="1241" d="M628 325q-159 0 -269.5 110.5t-110.5 264.5t110.5 265t269.5 111t270 -111t111 -265t-111 -264.5t-270 -110.5z" />
<glyph unicode="&#x2026;" horiz-adv-x="2048" d="M356 238q134 0 134 -131q0 -130 -134 -130q-135 0 -135 130q0 131 135 131zM1725 238q134 0 134 -131q0 -130 -134 -130t-134 130q0 131 134 131zM1040 238q135 0 135 -131q0 -130 -135 -130q-134 0 -134 130q0 131 134 131z" />
<glyph unicode="&#x202f;" horiz-adv-x="388" />
<glyph unicode="&#x2039;" horiz-adv-x="678" d="M147 603q-11 9 -11 23q0 11 8 24q62 74 169.5 173.5t181.5 176.5q12 12 27 12t23 -8l37 -26q11 -11 11 -21q0 -9 -7 -15l-245 -313l249 -318q4 -7 4 -12q0 -15 -14 -24l-35 -24q-8 -8 -23 -8t-26 12q-85 84 -175 172t-174 176z" />
<glyph unicode="&#x203a;" horiz-adv-x="678" d="M583 603q-85 -88 -174.5 -176t-174.5 -172q-11 -12 -26 -12t-23 8l-35 24q-14 9 -14 22q0 10 7 16l247 316l-246 313q-7 6 -7 15q0 10 11 21l37 26q8 8 23 8t27 -12q74 -77 181 -176.5t169 -172.5q10 -12 10 -24q0 -14 -12 -24z" />
<glyph unicode="&#x205f;" horiz-adv-x="485" />
<glyph unicode="&#x20ac;" horiz-adv-x="1141" d="M732 -56q-213 0 -381 163.5t-199 433.5h-132v103h123v37q0 70 4 105h-127v104h143q44 234 203 384.5t366 150.5q87 0 185.5 -26t195.5 -109l-19 -213q-4 -37 -38 -37q-9 0 -12 2q-22 2 -34 41q-45 129 -108.5 169.5t-169.5 40.5q-125 0 -232 -100.5t-139 -302.5h670v-104 h-683q-4 -40 -4 -105q0 -28 1 -37h686v-103h-673q26 -159 131 -304t245 -154q16 -1 32 -1q83 0 136 34q63 40 108 169q11 35 38 43h5q37 0 41 -37l2 -26l-66 -247q-81 -46 -156 -60t-142 -14z" />
<glyph unicode="&#xe000;" horiz-adv-x="955" d="M0 955h955v-955h-955v955z" />
<glyph unicode="&#xfb01;" horiz-adv-x="1108" d="M866 1420q135 0 135 -130q0 -131 -135 -131q-134 0 -134 131q0 130 134 130zM413 968l298 5h2q40 0 40 -15q28 3 83 18t146 47v-877q0 -52 49.5 -69.5t49.5 -55.5q0 -41 -45 -41h-339q-46 0 -46 41q0 38 50 55.5t50 69.5v640q0 41 -18 52q-3 -12 -56 -12l-264 1v-681 q0 -52 50 -69.5t50 -55.5q0 -41 -46 -41h-339q-46 0 -46 41q0 38 50 55.5t50 69.5v678q-12 0 -88 -4h-6q-43 0 -45 40v2q0 27 32 42q14 7 81 43q16 8 33 15q3 1 3 2t-10 1v62q0 129 24 211q16 55 46 92q17 22 49 33l255 95q13 5 43 7h5q30 0 57 -17q31 -22 42 -40 q8 -16 8 -40q0 -9 -1 -18q-3 -60 -34 -69h-7q-20 0 -48 20q-41 26 -79 26q-22 0 -44 -9q-71 -30 -80 -121q-4 -38 -5 -80v-149z" />
<glyph unicode="&#xfb02;" horiz-adv-x="998" d="M413 827v-681q0 -52 50 -69.5t50 -55.5q0 -41 -46 -41h-339q-46 0 -46 41q0 38 50 55.5t50 69.5v678q-12 0 -88 -4h-6q-43 0 -45 40v2q0 27 32 42q14 7 81 43q16 8 33 15q3 1 3 2t-10 1v62q0 129 24 211q16 55 46 92q17 22 49 33l255 95q13 5 43 7h5q30 0 57 -17 q15 -10 18 -13q29 5 73.5 18.5t123.5 39.5v-1347q0 -52 50 -69.5t50 -55.5q0 -41 -46 -41h-338q-46 0 -46 41q0 38 50 55.5t50 69.5v680zM413 968l233 5v284q0 21 -5 29q0 1 -20 15q-41 26 -79 26q-22 0 -44 -9q-71 -30 -80 -121q-4 -38 -5 -80v-149z" />
<glyph unicode="&#xfb03;" horiz-adv-x="1573" d="M1213 1392q33 28 96 28q134 0 134 -130q0 -131 -134 -131q-130 0 -135 122q-20 0 -48 20q-41 26 -79 26q-22 0 -44 -9q-71 -30 -79 -121q-5 -37 -5.5 -80.5t-0.5 -89.5v-55l172 1h1q27 0 36 -22q5 1 11 1q62 3 125 20t161 50v-876q0 -52 50 -69.5t50 -55.5q0 -41 -46 -41 h-339q-46 0 -46 41q0 38 50 55.5t50 69.5v640q0 50 -50 68q-14 5 -24 12q-18 -40 -63 -40l-138 1v-681q0 -52 50 -69.5t50 -55.5q0 -41 -46 -41h-338q-46 0 -46 41q0 38 50 55.5t50 69.5v681h-275v-681q0 -52 50 -69.5t50 -55.5q0 -41 -46 -41h-339q-46 0 -46 41 q0 38 50 55.5t50 69.5v678q-12 0 -88 -4h-6q-43 0 -45 40v2q0 27 32 42q19 9 81 43q16 8 33 15q3 1 3 2t-10 1v62q0 129 24 211q16 55 46 92q17 22 49 33l255 95q13 5 43 7h5q30 0 57 -17q31 -22 42 -40q8 -16 8 -40q0 -9 -1 -18q-3 -60 -34 -69h-7q-20 0 -48 20 q-41 26 -79 26q-22 0 -44 -9q-71 -30 -80 -121q-4 -37 -4.5 -80.5t-0.5 -89.5v-59l275 2v57q0 129 24 211q17 59 46 92q17 22 49 33l254 95q13 5 43 7h5q30 0 57 -16q32 -22 42 -42q3 -7 5 -15z" />
<glyph unicode="&#xfb04;" horiz-adv-x="1507" d="M1130 940v317q0 23 -4 29l-21 15q-41 26 -79 26q-22 0 -44 -9q-71 -30 -79 -121q-5 -37 -5.5 -80.5t-0.5 -89.5v-55l193 1h1q34 0 39 -33zM1130 910q-1 -9 -3 -20q-14 -64 -71 -64l-159 1v-681q0 -52 50 -69.5t50 -55.5q0 -41 -46 -41h-338q-46 0 -46 41q0 38 50 55.5 t50 69.5v681h-254v-681q0 -52 50 -69.5t50 -55.5q0 -41 -46 -41h-339q-46 0 -46 41q0 38 50 55.5t50 69.5v678q-12 0 -88 -4h-6q-43 0 -45 40v2q0 27 32 42q19 9 81 43q16 8 33 15q3 1 3 2t-10 1v62q0 129 24 211q16 55 46 92q17 22 49 33l255 95q13 5 43 7h5q30 0 57 -17 q31 -22 42 -40q8 -16 8 -40q0 -9 -1 -18q-3 -60 -34 -69h-7q-20 0 -48 20q-41 26 -79 26q-22 0 -44 -9q-71 -30 -80 -121q-4 -37 -4.5 -80.5t-0.5 -89.5v-59l254 2v57q0 135 24 211q17 59 46 92q17 22 48 33l255 95q13 5 43 7h5q30 0 57 -17q17 -12 19 -13q29 5 73.5 18.5 t123.5 39.5v-1347q0 -52 50 -69.5t50 -55.5q0 -41 -46 -41h-339q-46 0 -46 41q0 38 50 55.5t50 69.5v764z" />
</font>
</defs>
</svg>
