<?xml version="1.0" standalone="no"?>
<!DOCTYPE svg PUBLIC "-//W3C//DTD SVG 1.1//EN" "http://www.w3.org/Graphics/SVG/1.1/DTD/svg11.dtd" >
<svg xmlns="http://www.w3.org/2000/svg">
<metadata></metadata>
<defs>
<font id="mathleteskinny_slant" horiz-adv-x="276" >
<font-face units-per-em="1000" ascent="800" descent="-200" />
<missing-glyph horiz-adv-x="300" />
<glyph horiz-adv-x="0" />
<glyph horiz-adv-x="0" />
<glyph horiz-adv-x="333" />
<glyph unicode="&#xd;" horiz-adv-x="333" />
<glyph unicode=" "  horiz-adv-x="300" />
<glyph unicode="&#x09;" horiz-adv-x="300" />
<glyph unicode="&#xa0;" horiz-adv-x="300" />
<glyph unicode="!" horiz-adv-x="140" d="M3 27q9 28 44 30q5 1 10 -3t4 -10q0 -5 -2 -12.5t-12 -17t-27 -9.5q-9 0 -14 6.5t-3 15.5zM34 155l43 417q2 14 16 14t12 -14l-43 -417q-2 -14 -16 -14t-12 14z" />
<glyph unicode="&#x22;" horiz-adv-x="204" d="M45 452q0 8 3 27q0 45 12 86q1 8 9 11t14 -1.5t4 -13.5q-6 -18 -8 -53l-6 -56q-2 -14 -16 -14t-12 14zM140 455q9 93 11 116q0 13 16 15q14 0 12 -15q-2 -23 -11 -116q-2 -14 -15 -14q-6 0 -10 4t-3 10z" />
<glyph unicode="#" horiz-adv-x="386" d="M-19 268q-14 0 -11 15t16 13q21 -3 56 -1q19 0 29 16q6 11 14.5 30t13.5 28q6 11 5 16.5t-7 6t-15 -0.5q-29 -3 -44 -9q-9 -2 -14 3.5t-3 13.5t10 11q29 9 73 13h3q6 1 8.5 1.5t5.5 4t6 11.5q4 8 11 24.5t10 23.5q6 13 18.5 8.5t7.5 -18.5q-1 -2 -13 -29q-4 -16 -1 -19.5 t16 -2.5h5h15t19.5 0.5t18.5 0.5q10 0 15 3t5.5 4.5t4.5 9.5q11 22 14 30q1 2 3 8.5t3.5 9t5.5 5t10 2.5q4 -1 6.5 -3t3 -5.5t0.5 -7t-1.5 -8.5t-3 -9t-3 -8.5t-2.5 -6.5q-7 -16 -5.5 -19t18.5 -3h25q15 2 15 -13q-2 -15 -16 -15q-4 0 -10 -0.5t-17 -1t-20 -0.5 q-17 0 -17 -1l-29 -62q-8 -14 -6 -18.5t20 -3.5q26 2 40 3q6 1 10 -3t4 -10q-2 -15 -15 -15q-26 -2 -62 -6q-18 -2 -24 -18q-12 -28 -39 -98q-2 -8 -10 -10.5t-14 2.5t-3 14q12 37 31 79q7 18 4 21t-20 1q-35 -5 -61 -6q-16 -1 -21 -11q-31 -62 -37 -92q-3 -14 -18 -12 q-9 1 -10.5 11t6 29t10.5 25.5t11 23.5q9 21 -14 23q-16 0 -40 2zM108 323q-5 -11 -1.5 -17.5t15.5 -5.5q6 1 15.5 2t20 2t19.5 2q10 1 15 4t5.5 4.5t4.5 8.5l25 54q5 11 4 16.5t-6 5.5h-13q-10 0 -28.5 -0.5t-26.5 -1.5h-4.5t-3.5 -0.5t-3 -1t-3 -1.5l-3 -3t-3.5 -5 l-3.5 -7q-3 -6 -11 -25t-14 -31z" />
<glyph unicode="$" horiz-adv-x="334" d="M3 396q-1 59 34 114.5t84 81.5q3 1 7.5 3t7.5 3t6.5 3t6 4t5 4.5t4 6t1.5 7.5q2 19 4 59q0 14 15 16q6 0 10 -4t3 -10q-2 -40 -4 -60q0 -4 1.5 -7.5t3 -6t5.5 -5t5.5 -3t7.5 -3t7 -2.5q47 -26 57 -103q0 -15 -12 -17q-16 -2 -16 11q-11 66 -45 83q-9 6 -13.5 2t-6.5 -20 q-2 -28 -17 -193q-1 -8 5 -14.5t11 -7.5h1q37 -12 59 -47.5t25 -79.5t-2 -93q-8 -55 -39 -89t-74 -40q-21 -3 -21 -21q-1 -9 -2 -27t-2 -27q0 -15 -14 -15q-7 -1 -11 3t-3 10q2 42 4 63q0 15 -15 22q-36 14 -58 47t-23 79q0 8 6.5 13t14 2.5t8.5 -11.5q1 -62 47 -94 q9 -8 16 -6.5t9 21.5q3 32 11 118t12 130q3 20 -5 20q-34 2 -47.5 3.5t-28 6t-25.5 14.5q-21 20 -20 56zM31 398q0 -12 3 -21t11 -15t13 -9t20.5 -4.5t22 -2t27.5 -1.5q5 0 8 20q16 169 17 186q1 9 -1 14t-5 6t-6 0l-6 -2l-2 -2q-42 -21 -71.5 -69t-30.5 -100zM133 28 q-1 -4 1.5 -6.5t6.5 -3t11 0.5q21 4 37.5 16t28.5 33.5t17 51.5q10 69 -6 123t-59 67q-1 0 -2.5 1t-2.5 1q-6 0 -8 -23q-17 -179 -24 -261z" />
<glyph unicode="%" horiz-adv-x="328" d="M-33 12q160 342 312 575q5 8 13.5 7.5t11.5 -6.5t-1 -15q-157 -246 -309 -571q-6 -13 -19 -8.5t-8 18.5zM41 518q9 24 28.5 37.5t44.5 8.5q5 -1 21 -17q10 -15 9.5 -38.5t-9.5 -38.5q-25 -46 -77 -23q-17 9 -21.5 30t4.5 41zM65 487q3 -12 8 -14q22 -11 32.5 1.5 t8.5 29.5q-1 13 -12 23.5t-24 -0.5q-18 -15 -13 -40zM114 90q23 29 40 30q19 4 24 2q6 -1 18 -13q25 -42 10 -70.5t-54 -32.5q-39 -3 -53 21t15 63zM136 74q-16 -22 -10.5 -31.5t27.5 -7.5t28.5 15.5t-9.5 40.5q-1 1 -7 1.5t-10 -0.5h-1l-4 -1z" />
<glyph unicode="&#x26;" horiz-adv-x="332" d="M-4 42q-21 41 -16 110.5t33 111.5q13 18 26 31t3 26q-3 3 -10 17q-14 38 -3.5 90t38.5 104q55 101 115 82q34 -12 49.5 -55.5t-4.5 -82.5q-5 -8 -13 -8t-11.5 6t0.5 14q8 13 5.5 35t-13.5 41q-23 39 -56 16q-23 -17 -47.5 -61.5t-34.5 -89.5q-15 -83 22 -100q6 -3 23 -5 h4q1 0 4 -0.5t4 -1.5q8 0 9.5 -8.5t-3.5 -14.5q-6 -4 -9 -5h-15q-13 0 -20 -5q-24 -15 -39 -39q-23 -35 -28 -97t12 -95q14 -27 36.5 -34t45 3t42.5 27t32 36q23 40 26 113l-1 2q0 4 -25.5 0t-34.5 -6q-14 -2 -15.5 11t10.5 17q14 4 22 5l19 2q15 3 63 3q31 -1 31 -15 q-2 -14 -16 -14h-5q-20 0 -20 -3q-1 -83 -30 -129q-40 -62 -100 -79q-72 -20 -105 45z" />
<glyph unicode="'" horiz-adv-x="78" d="M15 460q1 13 3 59q1 21 6 62q1 6 6 10t11 4q6 -1 9 -5.5t2 -10.5q-3 -13 -6 -64.5t-3 -54.5q-2 -14 -16 -14t-12 14z" />
<glyph unicode="(" horiz-adv-x="231" d="M28 252q6 65 26 132q48 167 136 201q14 6 18 -7.5t-11 -18.5q-44 -18 -76.5 -79t-45 -116.5t-18.5 -111.5q-5 -44 -6 -78.5t14 -72t51 -84.5q5 -6 1 -13.5t-11 -9t-14 4.5q-38 50 -54.5 92t-15.5 78.5t6 82.5z" />
<glyph unicode=")" horiz-adv-x="235" d="M-4 14q23 33 50 70q20 30 43 65q15 21 37 64q1 4 6 14.5t7 16.5q45 120 -24 233q-2 3 -6 9.5t-5.5 9t-4.5 7t-4.5 7t-4.5 6t-5 6.5t-5 6t-7 6q-13 13 -28 19q-8 4 -8 11.5t6.5 13t14.5 1.5q18 -6 35 -21.5t26 -29.5l22 -35q75 -124 24 -257q-10 -31 -32 -68l-19 -32 q-25 -38 -46 -68q-25 -35 -50 -68q-8 -13 -20 -5.5t-2 19.5z" />
<glyph unicode="*" horiz-adv-x="287" d="M54 517q0 3 3.5 5.5t7 4t7.5 0.5q7 -2 16 -5t18.5 -6t17.5 -5q14 -4 17 -2t5 17q5 30 14 49q5 15 20 9q14 -5 7 -17q-8 -21 -10 -35q-2 -19 1 -22t20 5q15 8 42 16q9 3 14.5 -2.5t3.5 -13.5t-11 -10q-8 -3 -22 -9t-16 -7q-40 -15 -31 -36q6 -11 22 -43q5 -8 0 -15 t-12.5 -7.5t-12.5 6.5q-14 23 -17 31q-8 17 -12.5 17t-14.5 -17l-21 -33q-5 -8 -13.5 -7.5t-11.5 6.5t1 15q25 40 33 51q9 14 8 18t-15 9q-17 7 -49 15q-13 2 -9 18z" />
<glyph unicode="+" horiz-adv-x="298" d="M-10 297q0 15 13 17q33 8 89 8q19 0 24 3.5t6 17.5q5 50 8 99q0 14 14 16q6 0 10.5 -4t3.5 -10q-5 -85 -7 -102q-1 -14 2 -17t16 -4q37 -2 65 -2q9 0 11.5 -7t-2 -14t-12.5 -7q-1 0 -23 1t-41 1q-17 0 -19.5 -2.5t-2.5 -18.5q0 -21 -2.5 -55.5t-2.5 -47.5q0 -5 -4.5 -10 t-9.5 -5q-6 -1 -10.5 3t-3.5 10q0 2 5 107q1 14 -2 17t-17 3q-50 0 -92 -8q-14 -2 -16 11z" />
<glyph unicode="," horiz-adv-x="116" d="M-21 -85q20 42 22.5 64t-15.5 39q-11 9 -1.5 20.5t20.5 3.5q20 -15 24 -37.5t-2 -44t-21 -55.5q-7 -13 -19.5 -8.5t-7.5 18.5z" />
<glyph unicode="-" horiz-adv-x="326" d="M-6 263q0 14 14 16q58 10 174 5q72 -2 76 -2q14 0 12 -14q0 -14 -15 -14q-8 0 -78 2q-113 3 -168 -5q-15 -2 -15 12z" />
<glyph unicode="." horiz-adv-x="128" d="M-15 9q-13 21 0.5 39.5t45.5 15.5q5 0 8.5 -3t4.5 -7t2 -9t1 -6q2 -5 0 -9q-6 -32 -28 -37t-34 16z" />
<glyph unicode="/" horiz-adv-x="281" d="M-52 -3q8 41 33 97l23 47q8 16 23 43q116 244 205 404q5 8 13.5 8t12 -6t-0.5 -14q-76 -135 -205 -402l-22 -44l-24 -46q-23 -53 -30 -89q-2 -15 -17 -13q-6 0 -9.5 4.5t-1.5 10.5z" />
<glyph unicode="0" d="M-27 244q0 72 6 107q32 183 124 256q43 31 72.5 21t45.5 -53q16 -42 13 -97q0 -70 -1 -85q-1 -11 -4 -39.5t-4 -41.5q-17 -150 -40 -218q-21 -60 -51.5 -86t-62.5 -27q-24 0 -46 20q-52 55 -52 243zM7 349q-7 -29 -6 -102t10 -128q12 -72 37 -97q12 -12 26 -12 q17 0 40 17q46 32 72 196q8 55 18 183q2 4 0.5 68t-11.5 89q-22 62 -74 22q-82 -64 -112 -236z" />
<glyph unicode="1" horiz-adv-x="236" d="M-40 -17q-14 0 -12 14t15 14h48q9 0 14.5 3.5t6.5 6.5l1 3q9 90 37 271q8 49 17 226q2 24 -4.5 25.5t-20.5 -16.5q-6 -6 -16 -20q-6 -8 -14.5 -6.5t-11 8t2.5 14.5q29 39 71 75q7 5 11 5q14 0 14 -15q1 -1 1 -5q-5 -43 -8 -145q-7 -104 -14 -148q-25 -153 -39 -276 q0 -2 0.5 -3t3.5 -1.5t7 0t11 0.5h59q9 0 11.5 -7t-2 -14t-12.5 -7q-16 0 -88.5 -1t-88.5 -1z" />
<glyph unicode="2" d="M-40 8v3l1 3l2 4l6 13l20 38q33 60 33 63q27 52 78 126l40 60q71 113 62 183q-5 40 -30 59.5t-56 13.5q-33 -7 -53.5 -41.5t-17.5 -89.5q0 -8 -6.5 -13t-14 -2.5t-8.5 11.5q-2 65 24.5 109t71.5 54q44 9 78 -17.5t41 -77.5q11 -81 -67 -203q-39 -58 -86 -128 q-19 -31 -29 -54l-4 -8q-4 -7 -12.5 -22.5t-18.5 -33.5l-19 -37l4 -1h5q55 0 109 3q33 0 44 1h24q9 0 11.5 -7t-2 -14t-12.5 -7h-24q-115 -5 -153 -5h-11q-4 0 -9 0.5t-9 1.5l-4 1q-8 3 -8 14z" />
<glyph unicode="3" horiz-adv-x="250" d="M-65 109q0 6 4 10.5t10 5.5q4 0 7.5 -2t5 -5t1.5 -7q-3 -54 25 -81.5t67 -18.5q44 10 73 59t29 127q-2 71 -52 95q-27 13 -35 15q-17 -2 -27 -1q-12 2 -12 14t13 20q5 3 9.5 4.5t9.5 2t7 1.5l14 3q52 22 78.5 67t12.5 92q-14 45 -37.5 57.5t-46.5 -5.5q-27 -18 -45 -55.5 t-17 -77.5q0 -13 -14 -15.5t-14 11.5q-1 48 20.5 92.5t55.5 68.5q37 26 72.5 9t53.5 -74q15 -52 -6 -101.5t-72 -77.5q-15 -8 -16 -14t5 -8l6 -2q31 -16 48.5 -47t16.5 -70q2 -88 -34 -146.5t-92 -71.5q-54 -12 -91 23.5t-33 102.5z" />
<glyph unicode="4" horiz-adv-x="275" d="M-30 313l3 4q2 6 4 9q11 16 24.5 33.5t30.5 39t26 32.5l127 162q6 11 21 11q12 0 12 -12q2 -16 0 -42.5t-3.5 -38.5t-5.5 -37t-6 -38q-9 -45 -13 -79q0 -5 -0.5 -8.5t1 -5.5t2 -3.5t3.5 -2t5 -1t5.5 -1t6.5 -0.5q15 0 12 -15t-17 -13h-7q-14 0 -17 -3.5t-6 -15.5 q-38 -231 -43 -281q-1 -6 -5.5 -10t-10.5 -4t-9.5 4t-2.5 10q2 20 8 58.5t16 102t18 120.5q3 15 -0.5 18t-16.5 3q-57 2 -120 -10q-6 -2 -10 -2l-16 -3h-3q-1 -1 -7 1q-9 7 -6 18zM28 347q-9 -13 6 -13h13q2 0 4.5 0.5t3.5 0.5q49 4 83 3q8 0 11.5 0.5t7 5t4.5 14.5 q1 5 2.5 15.5t2.5 15.5q1 8 9 56t9 55l1 11q5 44 -23 7q-92 -116 -128 -163l1 1z" />
<glyph unicode="5" horiz-adv-x="291" d="M-32 113q1 6 5.5 10t10.5 4q4 0 7 -2t4 -5t1 -7q-6 -55 15 -83t57 -25q24 2 47 15.5t42.5 37.5t28.5 55q10 33 11.5 66.5t-5 62.5t-24 49.5t-42.5 25.5q-13 1 -24 -1q-4 -1 -15 -2.5t-20 -3.5l-28 -6q-3 0 -7 -0.5t-7 -1.5h-2q-4 -1 -6.5 0.5t-5 5.5t-2.5 9q1 19 6 49 q1 4 2 9v2q0 1 0.5 4.5t1 9.5t0.5 12q0 15 2 37l5 44q7 42 13 61q11 34 32 40q32 9 168 -10q14 0 11 -15t-16 -13q-38 3 -83 10q-55 6 -75 0q-6 0 -9 -19q-13 -36 -16 -97q-2 -14 -4 -38t-2 -26l-2 -13q0 -5 -1.5 -12.5t-1.5 -10.5q1 -7 21 -4q43 11 58 9q37 -2 62.5 -25 t35.5 -58.5t9 -76t-13 -79.5q-16 -54 -57.5 -90.5t-87.5 -40.5q-51 -4 -79 33t-21 104z" />
<glyph unicode="6" horiz-adv-x="278" d="M-19 245q4 84 22 161.5t43 110.5q45 67 96 84q69 24 94 -64q3 -9 3 -37l-2 -14l-2 -19q0 -15 -14 -15q-8 0 -12 6t-2 12v5l2 13l1 11q0 21 -1 28q-20 61 -60 47q-84 -30 -118 -173q-17 -73 -22 -154q0 -11 -1 -16q0 -17 19 12q85 113 141 89q49 -19 47 -116 q1 -56 -16.5 -110t-56.5 -87t-89 -17q-82 30 -72 243zM12 142q0 -27 14.5 -65t39.5 -47q38 -14 67 16.5t41 76t13 90.5q0 77 -32 93q-15 6 -37 -8q-30 -20 -63 -63t-41 -74z" />
<glyph unicode="7" d="M-28 -3q21 58 43 102q40 88 48.5 109t43.5 113q33 89 52 125l38 80q17 34 22 53h-19q-19 0 -67.5 2t-65.5 2h-19q-7 0 -7 -28q-1 -17 4 -43q0 -14 -12 -17q-14 -3 -17 9q-8 51 -1 78q8 20 20 27q2 2 35 2q18 0 65.5 -1.5t67.5 -1.5q4 0 19 1t20 0q9 -2 14 -16 q-1 -3 -4.5 -12t-5.5 -16q-16 -34 -62 -129q-23 -48 -50 -122q-38 -101 -48 -125l-45 -100q-18 -37 -42 -98q-2 -8 -10 -10.5t-14 2.5t-3 14z" />
<glyph unicode="8" horiz-adv-x="293" d="M-39 85q3 94 59 167q12 16 38 47q13 16 0 28q-25 23 -38 44t-19 54t9 72q17 50 52 83t74 37q42 4 68 -28.5t13 -84.5q0 -1 -10 -26t-26 -58.5t-28 -48.5q-3 -4 -11.5 -15.5t-14.5 -18.5q-14 -15 1 -28l19 -15q39 -33 60.5 -71t15.5 -93q-4 -52 -43.5 -93.5t-91.5 -53.5 q-54 -13 -91 14t-36 88zM-11 87q1 -46 27.5 -65.5t67.5 -10.5q44 10 75.5 43t35.5 76q3 42 -16 83q-12 23 -53 58l-18 15q-14 12 -29 -4q-31 -37 -37 -45q-52 -70 -53 -150zM38 491q-12 -32 -8 -59t15 -44.5t32 -36.5q13 -13 28 3q29 32 45.5 65t35.5 95q4 19 3 25 q-9 55 -54 49q-28 -3 -55.5 -29.5t-41.5 -67.5z" />
<glyph unicode="9" horiz-adv-x="267" d="M22 375q-19 38 4.5 95t69.5 96q49 42 86.5 32t48.5 -67l3 -28v-2q-33 -334 -49 -483q-2 -14 -15 -14q-6 0 -10 4t-3 10l38 393l-1 -1q-1 -1 -2 -2.5t-3 -4t-4 -4.5q-14 -19 -34.5 -35t-44.5 -26t-47 -1.5t-37 38.5zM47 389q19 -38 58 -23q76 35 100 132q0 8 -2 17 q-13 97 -89 31q-40 -34 -60.5 -81t-6.5 -76z" />
<glyph unicode=":" horiz-adv-x="160" d="M9 149q-4 12 3.5 24t19.5 15q27 10 38 6q8 -2 10.5 -12t-4 -23t-22.5 -23q-39 -19 -45 13zM44 393q1 8 9 13.5t19 5.5q1 1 2 1q1 1 3 1q2 1 5 0h1h2q21 -4 29.5 -15.5t-3.5 -26.5q-8 -9 -21.5 -12.5t-24.5 1.5q-27 12 -21 32z" />
<glyph unicode=";" horiz-adv-x="201" d="M42 120q-10 13 -6 32.5t20 38.5q6 6 10 6q6 1 23 -3q34 -8 41 -32q6 -26 -4 -57q-3 -8 -7 -24q-9 -26 -21 -47q-5 -8 -13.5 -8t-12 6t0.5 14q16 28 18 40l1 11l1 1v3v1q0 2 -4 2h-3h-14q-19 0 -30 16zM63 341q-12 18 -5.5 36t25.5 30t37.5 9t22.5 -24q3 -11 -10 -28 q-2 -4 -9 -10.5t-9 -10.5q-12 -14 -26 -15.5t-26 13.5z" />
<glyph unicode="&#x3c;" horiz-adv-x="204" d="M-26 172q-2 17 22 57q18 29 51 71q11 16 28 36l28 36q22 27 34 49q5 10 15 9.5t12 -8.5q3 -3 0 -9.5t-4.5 -9.5t-6.5 -9.5t-6 -8.5q-67 -88 -78 -101q-34 -45 -49 -68q-11 -19 -14 -25q-4 -11 -3 -13q4 -31 48 -88q15 -21 37 -48q21 -28 29 -45q4 -8 -1 -14.5t-12.5 -6.5 t-12.5 7q-7 14 -16.5 27.5t-27 35.5t-20.5 25q-47 61 -53 101z" />
<glyph unicode="=" horiz-adv-x="362" d="M-9 196q42 18 148 23h149q9 0 12 -7t-2 -14t-13 -7q-144 0 -195.5 -3t-89.5 -18q-9 -4 -15 1.5t-4.5 13.5t10.5 11zM13 354q2 14 16 14q76 0 137 1h137q13 0 13 -14q-2 -14 -16 -14h-137q-61 -1 -137 -1q-13 0 -13 14z" />
<glyph unicode="&#x3e;" horiz-adv-x="295" d="M-19 12q12 14 28 30l54 54q11 11 26 26.5t25.5 26t23.5 24t23 24t21 23t20 23.5q6 9 4 11q-8 4 -31 17.5t-34 18.5l-65 45q-49 36 -72 50q-8 4 -6.5 12.5t8 12t14.5 -0.5q36 -22 74 -49l65 -46q46 -25 64 -34q8 -8 13 -8q11 -11 -5 -34q-6 -10 -23 -30q-17 -21 -73 -78 q-53 -55 -106 -106q-13 -13 -25 -28q-6 -8 -14.5 -6.5t-11 8t2.5 14.5z" />
<glyph unicode="?" horiz-adv-x="273" d="M16 433q0 1 10 67q6 40 27 68q26 37 79 38t85 -46q17 -27 21 -63t-9 -75t-44 -66l-26 -20q-33 -24 -49 -47q-33 -48 -33 -147q0 -15 -14 -15q-7 0 -10 3t-4 7.5t-1 8.5l1 3q-1 36 9 81.5t29 72.5q17 25 57 56q22 17 23 18q37 31 42 83.5t-17 82.5q-14 23 -38.5 30.5 t-46.5 1t-32 -20.5q-18 -27 -25 -81l-6 -42q-2 -15 -17 -13q-6 0 -9.5 4.5t-1.5 10.5zM39 49q1 3 4 6t7 4t8 1q1 0 4.5 -1.5t5 -2.5t3.5 -3t2 -4q6 -15 2 -30t-19 -17q-29 0 -17 47z" />
<glyph unicode="@" horiz-adv-x="386" d="M-14 225q13 155 98 270q50 68 115 88q85 23 122 -91q12 -40 15.5 -89t-2.5 -80q-8 -49 -43 -107t-64 -58q-23 0 -33 24q-1 1 0 2l-13 -16l-3 -3q-39 -46 -83 -33q-24 7 -36 40q-11 37 7.5 95.5t51.5 101.5q14 18 21 26t18 13t22 2q26 -6 37 -33.5t12 -85.5q-1 -10 -6 -34 t-6 -29q2 -25 6 -33q3 -9 8 -9q14 0 33 29q52 84 44 183q-1 27 -6.5 53.5t-16 55.5t-31 42.5t-48.5 5.5q-53 -15 -99.5 -77t-71.5 -147q-26 -80 -19 -154.5t46 -104.5q23 -19 68 -27t77 2q7 2 25.5 10.5t37 16.5t23.5 10q14 6 18 -7.5t-11 -18.5q-4 -2 -23.5 -11.5 t-38 -17.5t-26.5 -10q-36 -12 -89.5 -3t-81.5 32q-30 26 -44.5 74t-9.5 103zM86 182q5 -16 20 -22q17 -6 35.5 8t33.5 44q5 9 8 17l6 24l9 46q0 40 -1 46q-4 17 -10 29q-4 6 -10.5 7.5t-12.5 -3.5q-9 -6 -24 -24q-29 -37 -45.5 -89.5t-8.5 -82.5z" />
<glyph unicode="A" horiz-adv-x="250" d="M-43 12q12 206 69 469q12 58 34 95q19 33 42.5 37t48.5 -29q24 -42 25 -112t-15 -191q-10 -84 -13.5 -130t0 -81t17.5 -53q5 -6 1 -13.5t-11 -9t-14 4.5q-24 31 -24.5 100t16.5 183q3 31 6 46q-2 -1 -5 -1q-20 -2 -59 -6q-3 0 -9 -0.5t-8.5 -1t-8 -1t-7.5 -1t-6 -2t-6 -3 t-4.5 -4t-4 -5.5t-2.5 -7q-26 -163 -33 -282q0 -6 -4.5 -10.5t-10.5 -4.5q-6 -1 -10 3t-4 10zM32 366q-2 -11 2.5 -15.5t15.5 -3.5q64 8 88 8q3 0 6 20q12 143 -19 191q-13 20 -21 19t-20 -21q-25 -44 -52 -198z" />
<glyph unicode="B" horiz-adv-x="257" d="M-22 4q3 30 24 193q20 168 19 193q0 113 20 188q2 5 0.5 13t-0.5 13q0 11 11 14q38 10 64 -4t36 -44.5t12 -70t-8 -81.5q-9 -45 -40 -71q-1 -1 -3 -2q0 -1 1 -3q32 -17 56 -61.5t24 -86.5q-3 -84 -62 -146q-23 -26 -50 -40.5t-66 -20.5q-2 0 -5 -1t-5.5 -1.5t-5.5 -1 t-5.5 -0.5h-4.5t-4 1t-3.5 2t-2 3t-0.5 5l-2 -11v21zM10 37q-1 -10 3.5 -14.5t13.5 -3.5t15.5 2.5t13.5 4.5q65 28 94.5 99t0.5 127q-26 49 -52 64q0 1 -5 0q-4 0 -11 -0.5t-11 -0.5t-9.5 1t-8.5 4.5t-5 9.5q-1 5 1.5 11t7.5 6l1 1q1 0 2 1q57 19 67 71q13 50 5.5 105 t-38.5 65q-5 2 -10.5 2.5t-8.5 -0.5h-2v-2q-13 -33 -19 -94q0 -2 -2.5 -51t-3.5 -53q-7 -103 -26 -252q-2 -21 -6.5 -55t-6.5 -48z" />
<glyph unicode="C" horiz-adv-x="248" d="M1 424q19 93 51 143q32 48 78 61q26 6 47.5 -4.5t30.5 -37.5q19 -53 6 -96q-1 -6 -6.5 -9t-11.5 -2q-12 1 -10 17q11 37 -4 74.5t-47 29.5q-35 -9 -59 -47q-63 -98 -63 -320q0 -128 22 -176q12 -27 29.5 -31.5t33 7.5t27.5 29.5t15 32.5q2 8 10 11t14 -1.5t4 -13.5 q-7 -28 -25.5 -52t-42.5 -35q-26 -13 -52 -3t-40 42q-24 52 -24.5 179t17.5 202z" />
<glyph unicode="D" horiz-adv-x="264" d="M-11 8q-3 48 5 112q3 26 6 51.5t5 39.5t2 18q0 1 0.5 8t1.5 22t2 32q11 224 37 306v11q2 14 16 14q102 0 138 -80t11 -208q-21 -109 -75.5 -207.5t-109.5 -124.5q-3 -2 -7 -2q-3 0 -7.5 -1.5t-9.5 -1.5q-11 -4 -15 11zM17 27q1 0 2 1q46 22 95.5 114t70.5 195 q14 72 9 125t-30 86.5t-69 41.5q-8 2 -15 -2t-9 -13q-11 -37 -19 -121q-9 -86 -13 -160q-3 -61 -4 -63q1 -6 -12 -111q-6 -46 -6 -93z" />
<glyph unicode="E" horiz-adv-x="256" d="M-27 14v15q0 5 1.5 19t1.5 21q1 5 2.5 18.5t3.5 22.5q2 25 3 26l1 9.5t3 32.5t4 49q19 206 33 297q4 27 11 50q8 26 17 31q8 5 36 7h50q8 0 28 -1t35 -2t19 -1q13 0 13 -14q-4 -14 -16 -14q-3 0 -58 2t-73 1h-11q-3 -2 -6 -5.5t-5 -6.5l-1 -2q-5 -17 -8 -32.5t-6.5 -37 t-4.5 -32t-5 -43t-5 -44.5l-1 -12q-2 -21 18 -19q16 1 39 1q13 2 15 -13q-1 -6 -5.5 -10.5t-10.5 -4.5q-3 -1 -27 -1q-3 0 -6 -0.5t-6 -0.5h-5q-17 0 -19 -20q-15 -140 -15 -164q-1 -1 -3 -26q-2 -9 -3.5 -22.5t-2.5 -18.5q0 -7 -1.5 -20t-1.5 -18q1 -3 1 -9h6q2 0 7.5 -0.5 t10.5 -0.5h32q28 0 48 1h30q9 0 11.5 -7t-2 -14t-12.5 -7q-5 0 -37.5 -1t-39.5 -1q-35 0 -46 1h-9q-13 0 -19 4q-9 0 -9 17z" />
<glyph unicode="F" horiz-adv-x="273" d="M-27 18q4 46 17 223q9 129 28 225q0 1 1 5.5t2 8.5q0 12 4 27q4 42 11 71q1 3 2 8t2 7v3q0 2 4.5 8.5t9.5 6.5q1 0 3 1h8q17 0 87.5 2t87.5 2q6 0 9.5 -4t2.5 -10q0 -6 -4.5 -10t-10.5 -4q-39 0 -155 -4q-12 0 -17 -1v-4q0 -1 -0.5 -2.5l-1 -3t-1 -4.5t-1.5 -6 q-3 -15 -7.5 -49t-4.5 -36t-0.5 -4t-0.5 -3q-10 -49 -17 -105q-1 -10 4 -15t15 -3q4 0 14.5 0.5t16.5 0.5q14 0 12 -14q0 -14 -15 -14q-14 0 -21 -0.5t-15.5 -2.5t-12.5 -7t-6 -14l-22 -279q-2 -14 -15 -14q-6 0 -10 4t-3 10z" />
<glyph unicode="G" horiz-adv-x="234" d="M-22 147q-4 81 10.5 176.5t42.5 166.5q16 40 37.5 68t42.5 39t41 7.5t34 -22.5q23 -30 17 -73q-1 -6 -6 -10t-11 -3q-6 0 -9.5 4.5t-1.5 10.5q4 33 -12 53t-43 6q-33 -16 -61 -85t-42 -166q-14 -90 -10.5 -168.5t23.5 -105.5q45 -61 87 30q19 40 24 82q2 15 0 26 q-5 14 -18 14q-24 -3 -46 -3q-9 0 -12 7t2 14t13 7q18 0 33 3q28 1 40 -4.5t16 -25.5q3 -14 1 -38q-6 -49 -29.5 -97.5t-54.5 -62.5q-44 -21 -74.5 21t-33.5 129z" />
<glyph unicode="H" horiz-adv-x="236" d="M-36 4q6 59 30.5 302.5t29.5 295.5q2 14 16 14t12 -14q0 -4 -8.5 -89.5t-14.5 -142.5q-1 -14 2 -17t12 -3h4q37 0 93 4h4q13 1 16 10l2 11q5 48 14 124.5t12 105.5q2 14 15 14q6 0 10 -4t3 -10q-6 -52 -33.5 -293.5t-33.5 -298.5q-2 -14 -16 -14t-12 14q3 31 14 129 t18 164q1 13 -3 16.5t-16 2.5q-52 -4 -91 -4q-9 0 -13.5 -3t-5.5 -6.5t-2 -11.5q-7 -75 -17.5 -173t-12.5 -123q-2 -14 -16 -14t-12 14z" />
<glyph unicode="I" horiz-adv-x="228" d="M-50 6q0 4 2 7.5t5 5.5t7 2q10 0 30.5 0.5t30.5 1.5q20 0 22 10q7 87 9 105q5 38 5 45q30 233 36 364v5v4.5t-0.5 3.5t-2 3t-3.5 2.5t-5 1t-8 -0.5q-7 -1 -18 -2t-18.5 -1.5t-13.5 -1.5q-5 -1 -9.5 2.5t-5.5 9.5q0 5 4 10t10 6q42 6 118 5q26 -1 49 -1q9 0 11.5 -7 t-2 -14t-12.5 -7h-2.5t-6 0.5t-8 0.5h-11.5h-15q-11 0 -16 -2t-6 -2.5t-1 -7.5v-9q-2 -105 -36 -362q0 -4 -0.5 -9.5l-1.5 -16.5t-2 -20q-3 -25 -8 -100q0 -2 -0.5 -5.5t0 -4.5t1 -2.5t3 -1.5t5.5 -0.5t9 -0.5q20 0 29 -1q15 0 12 -15t-17 -13q-81 3 -156 0q-6 -1 -10 3 t-3 10z" />
<glyph unicode="J" horiz-adv-x="275" d="M-40 135q0 5 4.5 10t10.5 6q5 0 9.5 -4t4.5 -10q-1 -50 22 -83q21 -33 58 3q9 8 20 32q12 35 21 62q49 168 56 345q3 45 -1 78q-1 8 -2 10.5t-5.5 4.5t-14.5 2q-39 0 -53 2q-14 0 -11.5 15t15.5 13q35 -2 73 -1h75q12 2 13 -10q-3 -14 -15 -17h-25q-6 0 -10 -1t-6.5 -1.5 t-3.5 -3.5t-1 -4v-6v-6q3 -34 2 -73q-7 -175 -58 -352q-24 -85 -51 -109q-60 -57 -101 -1q-26 38 -26 99z" />
<glyph unicode="K" horiz-adv-x="267" d="M-18 9q10 187 23 318l2 22q14 141 40 247q2 8 9.5 11t13.5 -1.5t4 -13.5q-10 -45 -27 -153q-3 -18 0 -22t8.5 1t12.5 15q78 112 137 163q8 6 15 3t8 -10t-5 -13q-22 -18 -50.5 -51.5t-57 -71.5t-53.5 -77q-11 -15 7 -25q47 -21 53 -139q1 -13 1 -58q0 -8 0.5 -24.5t1 -26 t2 -23.5t3.5 -22.5t6 -17t10 -13.5l4 -2h22q6 0 9.5 -4t2.5 -10q0 -6 -4.5 -10t-10.5 -4h-4l-15 -1q-10 0 -22 6q-10 7 -16.5 17.5t-9.5 30t-4.5 28.5t-2 38t-0.5 34v11q0 43 -1 67t-10.5 55.5t-28.5 41.5q-20 10 -23 -17q-9 -82 -22 -297q1 -6 -3.5 -10.5t-10.5 -4.5 q-6 -1 -10.5 3t-3.5 10z" />
<glyph unicode="L" horiz-adv-x="215" d="M-24 -2q0 5 1 12t1 12v6q5 55 9 86q3 21 3 30l2 17q4 48 15 133q23 187 21 283q0 14 14 16q6 1 10 -2.5t4 -9.5q5 -96 -21 -288q-14 -111 -15 -132l-2 -17q-1 -11 -4 -36t-5 -45t-2 -35l-1 -13q2 -1 5 -1q1 0 15 -2h26q5 -1 66 -1q15 0 12.5 -14t-15.5 -14h-66 q-12 0 -21.5 0.5t-18.5 1.5q-15 1 -22 4t-10 12z" />
<glyph unicode="M" horiz-adv-x="364" d="M-24 7q-5 31 4 96q5 37 5 38q4 35 17.5 129.5t22 173.5t8.5 131q0 1 -1.5 4.5t-1.5 5.5q-4 19 10.5 26.5t27.5 -5.5q3 -3 3 -5q10 -10 32 -54q17 -47 39 -77q2 -3 5.5 -8.5t4 -6t3.5 -0.5t5.5 3.5l7.5 10.5q57 81 97 121q1 0 1 1l1 1q1 2 2.5 3.5t1.5 2.5q6 10 15.5 12.5 t18.5 -7.5l1 -4q0 -3 1 -6v-14q1 -26 -4 -113.5t-9 -135.5q-13 -204 -12 -309q1 -6 -3 -11t-10 -5q-6 -1 -11 2.5t-4 9.5q-3 99 12 312q4 92 9 142q1 57 3 66v14q1 7 -14 -5q-7 -5 -13 -12q-32 -39 -60 -79l-9 -13q-1 -2 -3 -5q-7 -9 -4 -14l2 -2q3 -4 5 -7q7 -12 20 -31.5 t18 -27.5q4 -8 -1 -15t-12.5 -7.5t-12.5 6.5q-11 19 -28 43q-7 11 -10 13t-6.5 -0.5t-11.5 -13.5q-37 -47 -39 -49q-6 -7 -14 -5.5t-10 8.5t4 15q1 1 47 60q9 11 9 13t-8 16q-30 42 -52 94q-1 3 -3.5 8.5t-2.5 6.5q-5 11 -8 -7q-1 -5 -3 -29q0 -13 -4 -47q-10 -90 -20 -162 q-19 -124 -24 -195q-10 -47 -5 -95q0 -15 -12 -17q-17 -2 -17 11z" />
<glyph unicode="N" horiz-adv-x="303" d="M-20 27q10 86 20 158q2 18 7 61.5t7.5 64t6.5 57.5t6 60.5t4.5 54t4 56.5t1.5 50q-1 1 1 5q0 1 0.5 2.5t0.5 3.5t1.5 4.5t4.5 5.5q6 4 9 4q6 1 10 -2.5t4 -9.5q1 -16 14 -59q0 -1 4.5 -12t8.5 -20l13 -29l76 -184q2 -5 5 -15.5t4.5 -14.5t4 -7.5t4 0t3 14t2.5 29.5 q5 76 15 139q15 101 11 154q0 15 13 17q14 2 16 -11q4 -59 -11 -162q-4 -27 -7.5 -55t-6 -58t-4 -53.5t-4 -57t-3.5 -53.5q-6 -112 -6 -153q1 -6 -3.5 -10.5t-10.5 -4.5q-6 -1 -10.5 3t-3.5 10q0 43 6 159q0 14 -5 24l-113 276l3 -6q-19 48 -24 -6q-20 -187 -31 -271 q-10 -72 -20 -158q-2 -14 -15 -14q-6 0 -10 4t-3 10z" />
<glyph unicode="O" horiz-adv-x="287" d="M-17 259q12 246 84 319q24 24 58.5 32t68 -9.5t46.5 -62.5q12 -45 8 -115l-1 -5q-14 -176 -48 -320q-15 -60 -34 -78q-31 -29 -77 -29q-52 0 -77.5 36.5t-27.5 96t0 135.5zM12 261q-3 -73 -0.5 -127t21.5 -84.5t58 -30.5q13 0 30 6t24 15q5 4 13 20q2 6 6 21t6 21 q16 60 31.5 163.5t18.5 165.5v4q6 147 -70 148q-38 0 -63 -23q-64 -66 -75 -299z" />
<glyph unicode="P" horiz-adv-x="210" d="M-24 3q-3 107 20 297q22 191 27 279q0 6 -3.5 13.5t-3.5 12.5q-1 4 1 7.5t5.5 6t7.5 2.5q49 3 88.5 -24t53 -71.5t-7.5 -101.5q-23 -45 -62 -71q-22 -16 -61 -36q-17 -8 -17 -17q-23 -191 -20 -293q0 -13 -14 -16q-13 0 -14 12zM32 371q-1 -13 6 -17t18 2q62 34 81 78 q20 49 1.5 92t-63.5 59q-10 4 -16.5 -1t-6.5 -16q-5 -89 -20 -197z" />
<glyph unicode="Q" horiz-adv-x="275" d="M-26 98q-6 339 54 451q27 53 68 64.5t74 -20.5q31 -27 40 -60.5t1 -106.5l-4 -18l-4 -43q-18 -205 -40 -273q-4 -15 5 -26l23 -29q6 -7 2.5 -14.5t-11 -9t-13.5 3.5l-9 10q-10 12 -14 11.5t-13 -16.5q-21 -34 -50.5 -47.5t-53.5 -4.5q-55 24 -55 128zM2 102q0 -46 17 -82 q20 -37 58 -17q23 14 42 52q7 14 -3 27q-22 30 -46 68q-7 12 6 20t20 -4q14 -22 22 -35q20 -34 28 6q12 62 29 228q1 12 7.5 55.5t5.5 73.5q0 43 -39 77q-54 47 -96 -32q-55 -106 -51 -437z" />
<glyph unicode="R" horiz-adv-x="282" d="M-21 13q5 60 23 191q5 38 12.5 98t11 87.5t7.5 73.5t7 98q1 15 -5 18.5t-16 -1.5q-1 0 -2 -0.5l-1 -0.5q-9 -4 -14.5 1t-4.5 13t10 12q41 17 84 14t79 -24q40 -22 56 -59.5t2 -84.5q-6 -22 -20 -42t-34 -36.5t-44 -26.5q-16 -9 -6 -25q24 -40 24 -123q0 -22 -2 -42 q-2 -47 0 -78q5 -34 13 -42q1 -1 1 -3q9 2 14 7q2 2 4 3q6 7 14 5.5t9.5 -8.5t-3.5 -15q-19 -22 -40 -21.5t-32 28.5q-11 29 -11 77q4 44 4 87q2 86 -29 118q-9 10 -30 3q-16 -6 -18 -24q-34 -257 -35 -278q-2 -14 -16 -14t-12 14zM50 365q-2 -11 4.5 -15.5t17.5 -0.5 q57 21 87 44t42 62q10 35 -3 64.5t-41.5 47.5t-64.5 21q-22 2 -22 -20q-7 -104 -20 -203z" />
<glyph unicode="S" horiz-adv-x="295" d="M-2 98q-2 14 0 31l1 15l2 14l1 13q2 14 16 14q5 0 8 -2t3.5 -7t0.5 -8.5t-1 -10.5t-1 -9v-10q0 -2 -0.5 -5t-1 -4.5t-0.5 -2.5v-21q1 -3 1 -10q4 -16 4 -19q8 -25 29 -35.5t52 -3.5q19 4 34 12t25.5 19.5t17 27t8.5 34.5q7 73 -57 128l-22 21q-4 3 -10 10q-23 19 -33 29 t-25 29q-8 10 -13.5 18.5t-9.5 18t-6 18.5t-3 21q-3 24 4 48q16 65 60.5 102.5t93.5 33.5q51 -4 74.5 -49t5.5 -114q-2 -8 -10 -11t-14 1.5t-4 13.5q15 58 -2 93t-55 37q-38 3 -73 -27t-49 -84q-12 -51 15 -88q22 -31 67 -71q2 -2 4.5 -4l2.5 -2q24 -22 46 -46 q50 -56 42 -125q-9 -65 -50 -95q-28 -21 -62.5 -27.5t-64 5t-42.5 39.5l-5 15q-5 15 -4 30z" />
<glyph unicode="T" horiz-adv-x="271" d="M16 584q-1 6 3.5 10.5t10.5 4.5q17 1 207 1q9 0 12 -7t-2 -14t-13 -7h-75q-18 0 -23 -19q-25 -197 -57 -529q-2 -14 -16 -14t-12 14q13 138 16 169q25 244 40 359q5 20 -18 20q-42 0 -60 -1q-6 -1 -10 3t-3 10z" />
<glyph unicode="U" horiz-adv-x="264" d="M13 152q-20 180 30 443q2 14 16 14q14 -2 12 -16q-49 -250 -29 -435q16 -126 51 -129q12 0 19 10q10 9 22 34q14 32 24 79q5 27 9.5 51t8.5 50.5t6.5 45t5.5 47.5t4.5 43t4 47.5t3 45.5t3 52.5t3.5 52.5q0 14 15 16q4 0 7 -2t4.5 -5t1.5 -7q-8 -170 -22 -289 q-7 -59 -26 -152q-32 -153 -98 -147q-38 1 -59 67q-11 42 -16 84z" />
<glyph unicode="V" horiz-adv-x="320" d="M30 524q0 5 -1 15q-5 27 -2 46t20 17q6 -1 9 -6t1 -11q-1 -1 -1 -17q0 -5 1.5 -18t1.5 -20q3 -43 12 -109q11 -77 21 -146q5 -32 5 -39l14 -105l3 -16.5t4 -12t7.5 1t10.5 27.5q28 83 57 191q31 121 58 199q13 37 18 55q3 14 17 12t10 -16q-1 -7 -37 -114 q-15 -50 -38 -141q-32 -112 -49 -163q-5 -15 -17.5 -57t-22 -68.5t-13.5 -28.5q-6 -4 -14 1q-4 5 -4 7l-2 2q0 4 -1 7l-4 23l-9 70q-14 105 -17 120q0 6 -5 38q-25 176 -33 256z" />
<glyph unicode="W" horiz-adv-x="451" d="M19 604q2 14 15 14q6 0 10 -4t3 -10q-5 -38 3 -105q6 -69 6 -82l2 -29l2 -30v-28q1 -36 4 -58q2 -27 3 -30l3 -27q2 -19 4 -29l5 -28l1 -7q1 -7 4 -24t6 -35l13 -21q7 30 10 45q4 16 4 18q2 9 7 24l41 157q3 15 2 26q-17 146 -15 252q-1 5 3.5 10t10.5 6q6 0 10.5 -4 t3.5 -10q0 -79 4 -122q1 -8 2 -21q2 -32 4 -33t5 8q2 7 11 37q1 5 2 8l36 127q3 13 18 11q12 -1 10 -17q-56 -193 -71 -251q-3 -16 -1 -25l19 -165q3 -30 19 -89l-5 24q8 -25 14 -24q22 68 46 165q29 110 52 190q20 73 29 100l29 89q3 13 19 11q12 -2 8 -17l-29 -90 q-8 -27 -18 -62l-21 -73.5t-15 -51.5q-53 -204 -73 -268l-5 -15l-5 -15t-4 -10q-3 -10 -6 -14v-1q-1 -1 -1 -2q0 -4 -5.5 -7.5t-10.5 -3.5q-6 0 -11 5v1l-1 2v1l-1 1q-28 100 -33 148l-6 46q-6 52 -7 54q-1 1 -3 -4q-1 -2 -14 -50l-13 -50q0 -3 -6 -30q-17 -73 -29 -100 l-0.5 -2t-1.5 -2q-7 -12 -19 -12q-7 0 -11 4v2t-1 2q-3 3 -6 19l-8 40q-17 90 -18 98q-2 14 -4 22l-4 31q-3 27 -4 34l-2 32q-4 28 -4 67l-3 54v24q-5 27 -8 92t0 87z" />
<glyph unicode="X" horiz-adv-x="257" d="M-39 12q48 92 107 237q5 13 4 26l-16 118q-2 10 -18 85.5t-18 97.5q0 16 13 17q15 2 15 -11q3 -18 18 -91.5t18 -91.5l5 -36q3 -22 5.5 -28t7 -0.5t12.5 27.5l21 52q2 4 4.5 10.5t6.5 18.5t8 23q28 82 55 120q8 13 20 5.5t2 -19.5q-23 -34 -49 -112l-20 -54l-53 -131 q-6 -12 -4 -26q22 -142 57 -235q3 -8 -2.5 -14.5t-14 -6t-11.5 8.5q-9 26 -23 84.5t-21 83.5q-8 27 -11 27t-14 -27q-35 -86 -79 -168q-4 -9 -12 -10t-12.5 5.5t-0.5 14.5z" />
<glyph unicode="Y" horiz-adv-x="309" d="M24 596q0 15 13 17q15 2 15 -11q4 -32 24 -122q24 -88 26 -93q3 -10 6.5 -14t6 -3t5 3.5l4.5 4.5l1 3l51 93q70 124 88 147q6 8 14.5 6.5t11 -8t-2.5 -14.5q-19 -24 -64 -103.5t-72 -131.5q-16 -29 -23 -47.5t-11 -38.5t-8 -56q-2 -21 -5.5 -64t-7 -86.5t-5.5 -61.5 q-2 -14 -16 -14q-6 0 -9.5 4t-2.5 10q3 24 6 91q8 126 23 195q1 5 0 12t-4 15.5t-3 9.5q-13 45 -34 123q-22 76 -27 134z" />
<glyph unicode="Z" horiz-adv-x="300" d="M-29 15v3l5 13q2 1 2 2q7 18 19 43q61 124 129 262q30 62 41 78q18 28 42.5 82.5t31.5 87.5h-2l-2 -1q-2 0 -4 -0.5t-6 -1t-8 -0.5q-1 0 -4 -0.5t-4 -0.5q-95 -14 -177 -2q-9 1 -10.5 8.5t4 14t13.5 5.5q79 -10 169 2q20 5 36 5h6q3 0 4 -1q12 0 13 -18.5t-5 -31.5 q-6 -24 -29 -76t-43 -84q-20 -36 -40 -77q-68 -134 -129 -261q-11 -22 -19 -42q0 -2 3 -2.5t7 -0.5h3q53 0 116 5q5 0 32 2t40 2q9 0 12 -7t-2 -14t-13 -7q-13 0 -38.5 -2t-32.5 -2l-48 -3q-45 -3 -69 -3q-9 0 -12 1q-16 0 -25.5 4.5t-5.5 17.5z" />
<glyph unicode="[" horiz-adv-x="240" d="M-12 6q-6 20 3 63q4 15 7.5 29l5 20l1.5 6q5 33 17 174.5t14 158.5q2 5 0 28q2 59 10 81q7 22 19 29t37 8q68 0 107 -10q11 -5 8 -18q-5 -12 -19 -10q-30 9 -98 9q-12 0 -16 -1t-6 -3.5t-5 -10.5q-7 -19 -7 -71q-2 -26 -3.5 -49.5t-5 -61t-6.5 -76.5q-9 -115 -18 -177 q-2 -10 -5.5 -26t-9 -45.5t-3.5 -36.5l4 -2q17 -6 47 -8q6 -1 76 -1q9 0 11.5 -7t-2 -14t-12.5 -7h-78q-66 6 -73 29z" />
<glyph unicode="\" horiz-adv-x="275" d="M23 589q0 8 6.5 13t14 2.5t8.5 -11.5q0 -29 16 -104q9 -46 9 -49q17 -96 32 -164.5t35.5 -133.5t46.5 -122q8 -13 -7 -20q-13 -6 -18 6q-41 86 -67.5 193t-58.5 281q-16 68 -17 109z" />
<glyph unicode="]" horiz-adv-x="209" d="M-25 -2q0 6 4.5 10.5t10.5 4.5q2 1 15 1q36 0 84 6q12 4 13 13q0 2 0.5 7.5t1.5 15t1 19.5q3 35 9 126q15 208 17 215q0 3 7 36q17 87 12 107q0 1 -1 1q-18 6 -51 6q-32 0 -77 -3q-6 -1 -10 3t-3 10q0 6 4 10.5t10 4.5q41 4 79 4q30 0 45 -4q28 -6 31 -19t3 -25t-3 -34.5 t-6 -38t-7 -35t-5 -25.5q-7 -51 -25 -339q-2 -30 -3 -42l-2 -12v-4q-6 -17 -35 -25q-30 -6 -65 -6q-9 -1 -26 -1h-14q-6 -1 -10.5 3t-3.5 10z" />
<glyph unicode="^" horiz-adv-x="256" d="M-14 329q85 116 142 229q2 3 5 10q9 21 14.5 27.5t14.5 4.5q14 -4 14 -21q3 -15 1 -44q0 -5 0.5 -12.5t0.5 -11.5q8 -93 30 -171q1 -9 -5 -14.5t-14 -4.5t-10 9q-24 94 -30 189l-1 15q-62 -114 -140 -221q-6 -8 -14.5 -6.5t-10.5 8t3 14.5z" />
<glyph unicode="_" horiz-adv-x="442" d="M-53 -9q0 6 3.5 11t9.5 6q40 10 114 7q10 0 21 -0.5t17 -1t9 -0.5q21 0 112.5 1.5t112.5 1.5q6 0 9.5 -4t2.5 -10q0 -6 -4.5 -10t-10.5 -4q-21 0 -112.5 -1.5t-112.5 -1.5q-25 0 -49 1q-74 2 -106 -6q-16 -2 -16 11z" />
<glyph unicode="`" horiz-adv-x="176" d="M48 567q-7 5 -7 12t7 12.5t15 1.5q25 -13 43 -33l20 -21l17 -17q9 -10 -1.5 -20.5t-20.5 -1.5l-17 19l-19 19q-14 15 -37 29z" />
<glyph unicode="a" horiz-adv-x="261" d="M-43 6q6 25 24 127q5 28 13.5 73t11.5 62.5t9 48.5t8.5 43t7 33t7 31l6.5 26t7.5 28t8.5 27q28 88 55 102q58 29 73 -46q6 -24 6 -70v-6v-5v-4v-3v-2v-1q8 -244 -17 -468q0 -14 -15 -14q-13 0 -13 14q17 144 18 291q0 19 -18 19q-28 3 -85 5q-20 2 -23 -18q-1 -7 -14 -78 t-25.5 -137t-17.5 -82q-1 -8 -9 -11t-14 1.5t-4 13.5zM54 367q-2 -13 2 -17t15 -4q48 -2 73 -4q7 -1 12 -0.5t8 5t3 15.5q1 26 -2 127v8q-1 19 -2 30t-3.5 27t-8 24t-13.5 7q-20 -2 -28 -27q-11 -19 -22 -59q-27 -82 -34 -132z" />
<glyph unicode="b" horiz-adv-x="299" d="M-16 8q18 170 39 427v50q0 63 8 105q0 1 1 5v4q0 15 13 17q37 7 66 -7.5t44 -45.5q32 -59 -2 -128q-18 -32 -34 -52q-12 -16 8 -17q42 -5 71 -41q21 -25 32 -63q25 -88 -28 -165t-176 -102l-29 -1q-6 0 -10 4t-3 10zM16 21l4 1q110 23 156.5 88.5t25.5 141.5 q-8 31 -26.5 53t-40.5 29q-43 15 -85 -31q-10 -11 -11 -25q-5 -66 -23 -233q-3 -26 0 -24zM48 379q-1 -22 6.5 -22.5t17.5 12.5q33 34 56 78q28 53 2 101q-18 34 -51 40h-20v-2q-8 -41 -7 -97q0 -39 -1 -52z" />
<glyph unicode="c" horiz-adv-x="279" d="M-2 70q-28 86 33 378q13 64 49.5 112.5t77.5 59.5q46 13 71 -25t17 -115q-2 -14 -16 -14t-12 14q6 70 -13 98q-14 23 -43.5 14t-59.5 -48q-30 -43 -43 -100q-59 -281 -34 -364q10 -32 29 -47t39 -12q21 2 38.5 22.5t26.5 54.5q1 8 9 11t14 -1.5t4 -13.5 q-11 -43 -36 -70.5t-56 -31.5q-31 -5 -56.5 16t-38.5 62z" />
<glyph unicode="d" horiz-adv-x="249" d="M-10 15q2 118 21 290q2 24 18 145.5t18 142.5v2q0 5 4.5 9t10.5 4h1q31 -1 51.5 -15.5t43.5 -45.5q79 -109 27 -278q-21 -70 -62 -138.5t-92 -121.5q-5 -5 -8 -5q-19 -2 -23 -2t-7.5 4.5t-2.5 8.5zM20 76q-1 -18 8.5 -19.5t18.5 11.5q58 74 92 156t36.5 163t-41.5 142 q-19 27 -39 39q-9 8 -16 5.5t-9 -20.5q-3 -27 -14 -120q-27 -214 -36 -357z" />
<glyph unicode="e" horiz-adv-x="259" d="M-10 65q1 40 7 90.5t16 118t13 88.5q5 29 7 88q2 91 10 130q9 36 24 45q9 5 32 5l127 -3q6 1 10.5 -3t4.5 -10q-2 -7 -6.5 -10.5t-8.5 -4t-13 -0.5q-5 0 -56 1t-60 1q-12 0 -15 -1h-3q-1 -1 -1 -2q-6 -15 -6 -21q-8 -37 -10 -125q-3 -61 -6 -84q-2 -14 2 -18t16 -4 q4 0 12 0.5t12.5 0.5t10 -0.5t8 -4t2.5 -8.5q-1 -4 -3 -7.5t-5 -5.5t-7 -2q-10 -1 -35 -1h-7t-5.5 -1t-5 -3t-3 -6t-2.5 -10q-24 -147 -27 -231q-1 -20 1 -39q0 -1 0.5 -3l0.5 -2q1 -1 2 5l1 4q-1 -8 2 -13t11 -6q3 -4 54 -0.5t59 3.5q6 0 9.5 -4t2.5 -10q0 -6 -4.5 -10 t-10.5 -4t-19.5 -1t-29.5 -2.5t-20 -1.5q-48 -1 -72 9q-19 8 -16 73z" />
<glyph unicode="f" d="M-11 10q0 73 17 199q31 200 32 203q1 10 4.5 51t7 81t4.5 49q0 8 5.5 15.5t15.5 7.5q36 -2 83 -2q58 0 85 -3q6 0 10 -5t3 -10q-4 -15 -18 -13q-36 2 -82 2q-39 0 -54 1q-22 2 -22 -20q-11 -140 -19 -187q-2 -13 2.5 -17t15.5 -2h6q13 1 29 1q6 1 10.5 -3t4.5 -10 q-2 -15 -16 -15q-2 0 -41 -3q-7 -1 -8.5 -1t-5.5 -2t-5.5 -6t-2.5 -11q-32 -201 -33 -298q1 -6 -3.5 -10.5t-10.5 -4.5q-6 -1 -10.5 3t-3.5 10z" />
<glyph unicode="g" horiz-adv-x="256" d="M-3 132q-8 81 0.5 184t29.5 176q25 88 65 114q61 36 98 -11q36 -41 9 -99q-4 -8 -12 -9t-12.5 5.5t0.5 15.5q18 38 -8 67q-18 19 -37 18.5t-40 -28.5t-36 -78q-20 -74 -28 -172t0 -177q8 -82 30 -104q43 -45 80 34q15 34 22 75t1 54q-5 9 -32 7h-16q-9 0 -12 7t2 14t13 7 l15 1h19q28 -3 37 -22t2 -66q-7 -50 -27.5 -93t-49.5 -58q-40 -21 -72 15t-41 123z" />
<glyph unicode="h" horiz-adv-x="286" d="M1 10q8 66 15 182q1 21 4 58t3.5 46t2.5 33t3 32t3 27.5t4 35.5t6 41q12 86 14 120q0 6 4 10.5t10 5.5q6 0 10.5 -4t3.5 -10q-4 -56 -14 -123q-2 -15 -5 -36t-4.5 -35t-2.5 -24q-1 -13 3 -16.5t15 -3.5h105q11 0 16 4t7 16q6 34 10.5 77.5t9.5 70.5q2 40 -4 64 q-1 9 5 14.5t14 4.5t10 -9q10 -47 -3 -113q-9 -72 -17 -140q-12 -76 -15 -114q-19 -147 -10 -208q0 -15 -12 -17q-17 -2 -17 11q-9 64 10 214q8 55 10 77q1 14 -3 17t-15 3h-103q-8 0 -11.5 -1t-6.5 -5.5t-3 -13.5q-7 -140 -24 -291q-2 -14 -15 -14q-6 0 -10 4t-3 10z" />
<glyph unicode="i" horiz-adv-x="114" d="M2 -1q2 13 9 133q5 92 12 135q29 187 39 331q0 14 15 16q6 0 10 -4t3 -10q-9 -131 -39 -335q-9 -72 -12 -132q-6 -105 -9 -134q-2 -14 -15 -14q-6 0 -10 4t-3 10z" />
<glyph unicode="j" horiz-adv-x="300" d="M-33 172q0 6 4 11t10 6q8 0 11.5 -4.5t3.5 -7.5v-13q0 -2 0.5 -7t0.5 -8v-29q0 -25 7 -51q1 -2 2 -5t2 -5.5t2 -5.5t2 -5q23 -43 49 -20q29 22 45 75q22 68 40 241q8 78 11 122q-3 -39 -2 1l2 102q1 19 -17 19h-53q-13 0 -13 14q2 14 16 14q114 0 176 3q6 1 10.5 -3 t4.5 -10q-2 -15 -16 -15q-9 -1 -27.5 -1.5t-28.5 -0.5q-21 -2 -20 -22q2 -89 -16.5 -247t-39.5 -223q-19 -61 -55 -91q-24 -20 -48.5 -13.5t-42.5 39.5q-15 23 -16 57q-3 23 -3 58q-1 14 -1 25z" />
<glyph unicode="k" horiz-adv-x="264" d="M-16 11q2 18 4.5 44.5t6.5 68.5t7 72q22 256 45 405q1 6 6 10t11 4q4 0 7 -2.5t4 -6t0 -7.5q-20 -150 -23 -181q-4 -36 6 -35q7 1 16 16q70 126 134 195q4 4 8.5 5t8 -1t6 -5t2 -8t-4.5 -9q-50 -54 -118 -170q-7 -13 -42 -70q-9 -13 -1 -27q25 -43 51 -137q1 -1 7 -22 q16 -58 21 -70l7 -20q1 -2 1.5 -4t1.5 -4t1.5 -3.5l1 -3t1.5 -3t1 -2.5l9 -18q3 -10 9 -17q7 -11 -6 -19.5t-20 3.5q-15 24 -27 59l-8 20q-1 4 -7 24l-8 23l-6 24q-2 7 -4 15l-2 8q-12 43 -30 92q-7 16 -14.5 17.5t-11.5 -24.5q-2 -21 -7 -72.5t-6 -73.5q-3 -20 -10 -90 q0 -14 -15 -14q-13 0 -13 14z" />
<glyph unicode="l" horiz-adv-x="226" d="M-24 69l8 74q6 44 17.5 175t12.5 139q11 91 19 143q1 6 6 10t11 4q6 -1 9 -5.5t2 -10.5q-11 -72 -26.5 -237t-22.5 -218q-7 -69 -6 -72q-2 -24 0 -38q-1 -2 1 -6q2 -7 15 -10q23 -2 42 -1h6.5t9.5 1h25.5t20 -1t15 -6t1.5 -13q-3 -13 -18 -11q-12 4 -61 1q-47 -3 -69 8 q-18 8 -18 74z" />
<glyph unicode="m" horiz-adv-x="339" d="M-21 4q3 80 22 218q17 136 22 215q0 12 3 43q3 75 5 90l1 13l2 6v3q5 10 16 11t19 -9q1 -2 2.5 -4.5t2.5 -4.5l1 -2q21 -28 54 -108q7 -16 14 -35t10 -27q8 -22 11.5 -22t14.5 23l11 27q43 106 68 145q4 8 4 9q3 13 17.5 16t17.5 -10q1 -1 1.5 -3.5t0.5 -3.5q0 -11 1 -18 q0 -34 -4 -80.5t-12 -118.5t-9 -84q-11 -104 -13 -149l-4 -70q-1 -16 -2 -45t-1 -31q0 -6 -4.5 -10.5t-10.5 -4.5q-6 -1 -10 3t-3 10q0 111 14 226q3 49 6 70q0 17 8 79q10 99 14 155q1 3 1 7v6l-6 -6q-12 -18 -20 -36q-20 -47 -27 -65l-30 -70q-1 -3 -3 -7l-3 -6t-2 -4.5 t-1 -4.5q0 -1 -2 -4q-1 -2 -1 -3l-1 -3q-15 -14 -24 -5q-1 1 -2 2.5t-2 2.5l-1 3v3t-1 4l-7 23q-8 35 -17 52q-16 40 -41 99q-7 17 -10 21q-4 7 -7 6t-4 -7l-1 -5q-4 -74 -6 -90q-2 -23 -12 -117.5l-20 -189t-12 -126.5q0 -6 -4.5 -10.5t-10.5 -4.5q-6 -1 -10 3t-3 10z" />
<glyph unicode="n" horiz-adv-x="268" d="M-27 6q-2 37 5 120q6 57 20 151q6 43 9.5 70t7.5 57.5t8 60.5q9 55 10 67q3 72 13 78q22 9 28 -19l11 -54q5 -19 24.5 -164.5t34.5 -212.5l1 -2q6 -35 15 -44q1 -2 2 0q1 1 1 3l2 26l2 18q6 49 11 136q15 197 41 304q2 8 10 11t14 -1.5t4 -13.5q-25 -101 -39 -299 q-12 -128 -13 -137l-8 -79q-3 -25 -11 -58q-10 -16 -20 -14q-4 0 -7.5 2.5t-3.5 5.5l-2.5 7.5t-2.5 8.5l-7 37l-18 79q-15 64 -27 168q-22 161 -23 168q0 3 -4 23l-9 -45q-8 -47 -14 -98t-13 -98q-2 -12 -5.5 -40.5t-4.5 -36.5t-4 -29.5t-3.5 -29.5t-2 -25.5t-2 -30 t-1.5 -29.5t-1 -37q0 -13 -14 -16q-13 0 -14 12z" />
<glyph unicode="o" horiz-adv-x="258" d="M-3 107q-8 50 -10.5 122.5t5 160t42 154.5t92.5 81q70 15 89 -66q9 -37 1 -137q-14 -229 -51 -333q-24 -63 -59 -85q-46 -28 -77 13q-20 30 -32 90zM26 115q11 -57 27 -79q15 -21 39 -8q50 30 75 190q9 54 26 251q2 52 -6 80q-13 58 -58 48q-15 -3 -32.5 -16.5 t-27.5 -29.5q-33 -54 -46 -146t-9.5 -163.5t12.5 -126.5z" />
<glyph unicode="p" horiz-adv-x="224" d="M-11 24q7 72 10 166q6 136 6 139q2 25 8 65t10.5 67t6 64t-6.5 56q-1 0 -1 1q-9 6 -2 20q5 5 10 6q46 12 86.5 -8.5t60.5 -61.5t11 -87q-8 -36 -30 -66q-14 -19 -42 -37q-18 -12 -22 -14l-25 -14q-19 -11 -20 -11q-2 -1 -6 -2.5t-5.5 -2t-3.5 -2t-2.5 -3.5t-0.5 -6 l-4 -105q-3 -94 -10 -164q-2 -14 -16 -14t-12 14zM36 358q-3 -23 -2 -24t14 6q4 3 12 6q55 30 75 55q23 28 25.5 62.5t-10.5 59.5q-10 22 -30 38.5t-45 20.5q-6 1 -10.5 -1.5t-7 -8t-1.5 -12.5q1 -13 1.5 -23.5t-0.5 -24t-1.5 -20t-3 -23.5t-3 -22t-4.5 -27.5t-5 -28.5 q-1 -7 -2.5 -18t-1.5 -15z" />
<glyph unicode="q" horiz-adv-x="312" d="M15 189q-4 92 11.5 202.5t46.5 164.5q35 62 74.5 75t68.5 -24q20 -23 34 -62.5t16 -78.5v-2q2 -80 -16 -195.5t-43 -181.5q-6 -16 4 -27l18 -27q5 -7 0.5 -14.5t-11.5 -8.5t-13 5l-3 4q-16 25 -19 14q-21 -34 -44 -41.5t-43 7t-37 45.5q-17 33 -30 77.5t-14 67.5zM43 193 q2 -22 14 -63.5t28 -69.5q38 -74 73 -13l6 9q6 11 -5 22q-13 17 -23 24q-7 5 -4.5 13t10 11t14.5 -2q10 -8 14 -12q11 -8 13.5 -6t5.5 14q0 4 1 6q20 66 34 157.5t14 161.5v1q-7 99 -45 141q-20 21 -39 17q-27 -8 -57 -60q-28 -50 -42.5 -156t-11.5 -195z" />
<glyph unicode="r" horiz-adv-x="275" d="M-10 18q0 23 3 53q6 63 14 104q4 32 8 48q30 205 33 356q0 3 -0.5 11t-0.5 12t2.5 8.5t8.5 5.5q61 13 104 0t66 -50q23 -33 15 -81.5t-46 -89.5q-45 -51 -105 -76q-3 0 -3.5 -3.5t0.5 -4.5q24 -49 62 -177q4 -13 6 -19q15 -51 29 -83q3 -8 -2.5 -15t-13.5 -7t-12 8 q-15 34 -29 86q-48 173 -69 197l-1 1l-2 2q-1 -3 -15 -83q0 -6 -7 -48q-11 -70 -17 -153q0 -15 -14 -15q-6 -1 -10.5 3t-3.5 10zM60 363q-1 -21 6 -21l15 3q50 19 87.5 60.5t44.5 80.5q6 37 -11 63q-14 24 -41.5 36.5t-63.5 9.5q-18 -1 -21 -22q-2 -93 -16 -210z" />
<glyph unicode="s" horiz-adv-x="285" d="M-14 161q0 4 2.5 7t6 5t7.5 2q6 0 9.5 -4t2.5 -10q-7 -66 17 -106t64 -43q18 -2 34 5t28.5 21.5t20.5 37.5t8 52q0 58 -32 103q-25 35 -66 75q-2 2 -5 6q-15 14 -22.5 22.5t-19.5 23.5t-17.5 27.5t-11 29t-5 35t5.5 38.5q12 55 55.5 90.5t92.5 35.5q53 -1 75.5 -43 t-0.5 -111q-2 -8 -10 -10.5t-14 2t-4 14.5q17 59 2.5 88.5t-52.5 30.5q-38 0 -72.5 -27.5t-45.5 -73.5q-11 -48 12 -86q12 -20 22.5 -32.5t36.5 -38.5q2 -3 7 -8q23 -24 35.5 -38.5t29.5 -40t24.5 -52t6.5 -56.5q1 -70 -35.5 -111.5t-89.5 -37.5q-52 5 -81.5 53.5 t-21.5 124.5z" />
<glyph unicode="t" horiz-adv-x="281" d="M13 590q0 4 2 7.5t5.5 5.5t7.5 2q36 4 111 1q91 -2 108 -1q6 1 10 -3t4 -10t-4.5 -10.5t-10.5 -4.5q-41 -2 -111 1q1 -4 0 -14q4 -32 -5 -87q-4 -27 -7 -49.5t-6.5 -52.5t-8.5 -66q-28 -192 -24 -280q0 -13 -14 -15.5t-14 11.5q-5 92 24 286q14 107 16 125q4 33 6 43 q7 60 5 90v5q0 4 -20 4q-25 1 -60 -1q-6 -1 -10.5 3t-3.5 10z" />
<glyph unicode="u" horiz-adv-x="240" d="M-18 33q-8 31 4 95q11 76 20 233q9 153 26 237q1 6 6 10t11 4q5 -1 8.5 -5.5t2.5 -10.5q-16 -75 -25 -233q-9 -166 -22 -237q-3 -19 -4.5 -31.5t-2 -28t2.5 -25t8 -18t15.5 -11.5t24.5 -1q24 4 39 20t28 47q5 12 8.5 22.5t6 23.5t3.5 20t2.5 25t2.5 25q0 21 15 146 t16 142q0 3 0.5 21t0.5 33q0 27 2 55q2 14 16 14t12 -14q-2 -27 -1 -53q0 -34 -2 -54q1 -14 -12 -125q-17 -134 -19 -163q-4 -46 -11 -84q-14 -63 -48 -101q-21 -23 -56.5 -28t-55.5 10q-18 13 -22 40z" />
<glyph unicode="v" horiz-adv-x="270" d="M18 596q0 14 11.5 17.5t17.5 -9.5q8 -59 8 -126q1 -25 1 -57q13 -190 25 -319l5 -25q3 10 38 167q44 210 96 345q6 12 18.5 9.5t8.5 -17.5q-32 -79 -54 -169l-21 -80q-5 -20 -19 -90q-8 -33 -21.5 -94t-16.5 -75q-11 -42 -17 -52q-1 -1 -3 -4.5t-5 -5.5q-6 -6 -15 -4 q-4 0 -9 5l1 1l-4 8l-1 12l-7 36q-6 50 -12.5 137t-10.5 149l-4 62l-2 57q-4 91 -8 122z" />
<glyph unicode="w" horiz-adv-x="406" d="M32 350v117q0 13 -1.5 42.5t-1.5 52.5t3 38q1 6 6 10t11 4q6 -1 9 -5.5t2 -10.5q-2 -23 -2 -39t1.5 -45.5t1.5 -42.5v-117l2 -150q0 -36 1 -65q3 -64 23 -1l10 34q46 156 58 210q4 20 16 27q5 1 9.5 0.5t8.5 -2t5 -2.5t3 -10q0 -1 0.5 -6t0.5 -8q3 -21 3 -32 q10 -114 40 -228q11 -42 16 -39q2 0 2 5q6 50 7 75q15 237 91 432q5 13 18 10t9 -18q-75 -187 -90 -422q-3 -47 -6 -78q-2 -10 -3.5 -25t-2.5 -20q-1 -3 -2 -6.5t-2 -6t-1 -4.5q-1 -1 -3 -3.5t-3 -4t-3.5 -4t-4.5 -3.5t-4.5 -1.5t-5.5 0.5t-6 3q-10 15 -18 45 q-40 131 -49 221q-5 55 -24 0q-3 -8 -5.5 -17.5t-5.5 -20.5t-6 -21.5l-7 -24.5t-7 -26l-32 -109q-2 -9 -6 -21l-5 -15q-4 -9 -5 -11q0 -2 -1 -4l-1 -3q-11 -11 -22 -5q-5 6 -7 13q0 1 -2 15q-1 5 -5 53q-5 45 -7 270z" />
<glyph unicode="x" horiz-adv-x="312" d="M-43 19q20 44 42 80q8 13 15.5 26.5t12 22t9 15.5t6.5 11l54 114q7 13 3 26l-32 113q-30 104 -42 154q-1 9 5 14.5t14 4.5t10 -9l4 -20.5t9.5 -43.5t17.5 -64.5t27 -84.5q8 -25 11.5 -25t15.5 24q72 152 127 227q8 13 20 5.5t2 -19.5q-53 -74 -149 -275q-7 -14 -3 -27 l8 -29q4 -15 16 -78q22 -117 49 -163q7 -12 -6 -20t-20 4q-26 48 -52 171l-7 29l-3 18q-5 40 -26 0q-23 -46 -72 -133q-33 -60 -39 -76q-5 -12 -17.5 -9t-9.5 17z" />
<glyph unicode="y" horiz-adv-x="290" d="M-10 17q27 66 54.5 134t43 105.5t21.5 52.5q2 5 2.5 10t0.5 8l-1 3q-5 17 -45 121.5t-47 134.5q-3 8 3 14.5t14 5.5t10 -10q14 -45 46 -126q24 -65 29 -76q5 -12 10 -14.5t8 1.5t8 14q5 11 19 41t25 56q26 62 51 95q6 8 14.5 6.5t10.5 -8t-3 -14.5q-21 -28 -46 -87 q-5 -12 -12 -26.5t-8 -16.5l-50 -111q-6 -15 -15.5 -36.5t-16 -37t-11.5 -27.5l-88 -220q-6 -12 -18.5 -9t-8.5 17z" />
<glyph unicode="z" horiz-adv-x="289" d="M-27 0q-4 13 7 30l2 2q2 4 84 182q14 30 33.5 73t26.5 57.5t18 38t16.5 34t12.5 24.5t16 29q37 71 44 93q2 2 2 5q0 4 -16 4h-67q-96 0 -116 5q-6 1 -8.5 6.5t-0.5 11.5q1 5 6.5 8t11.5 2q9 -4 110 -4q26 -1 67 -1h33q1 0 2 -1q15 -8 4 -44q-9 -22 -21 -47l-27 -49 q-3 -6 -22 -41q-156 -334 -176 -379q-10 -24 3 -23q72 -7 156 6q14 2 14 -12t-13 -16q-66 -10 -162 -7q-5 1 -13.5 1.5t-12.5 1.5t-8.5 3.5t-5.5 6.5z" />
<glyph unicode="{" horiz-adv-x="278" d="M-5 280q3 3 9 5q6 3 14 6q58 23 74 35q8 6 10 9v1q-2 4 -5 7l-13 21q-26 37 -33.5 60.5t1.5 61.5q15 47 70 77t121 30q9 0 11.5 -7t-2 -14t-12.5 -7q-71 0 -127 -41q-55 -43 -28 -106q4 -14 38 -58q8 -14 8 -20q2 -21 -19 -33q-27 -17 -4 -17q28 -4 31 -26t-19 -49 q-57 -71 -58 -73q-17 -29 -2 -66q12 -29 30.5 -39.5t61.5 -17.5q14 -2 10 -16t-17 -12q-50 7 -73 21t-39 50q-27 60 28 127l20 22q17 17 26 32q2 5 0.5 9.5t-3.5 7.5l-3 2q-20 1 -59 -5q-22 -5 -35 -5t-17 10t5 18z" />
<glyph unicode="|" horiz-adv-x="132" d="M22 18q24 225 30 421q0 8 5 60q3 49 2 69q0 8 6.5 13t14 3.5t8.5 -10.5q2 -29 -7 -133q-8 -200 -31 -423q-2 -14 -15 -14q-6 0 -10 4t-3 10z" />
<glyph unicode="}" horiz-adv-x="226" d="M-27 11q65 43 107 93t28 80q-9 12 -37 33q-5 4 -9.5 8t-8 7t-5.5 5q-13 15 -12 23q0 5 2.5 9.5t6.5 8t10 7.5t10.5 6.5t10.5 5.5t9 5q-31 1 -48.5 14t-2.5 35q0 1 4 5l10 15q9 13 30 42q63 91 62 123q-3 17 -27.5 23t-51 3t-40.5 -10q-9 -4 -14.5 1t-4.5 13t10 12 q29 14 64.5 15t62.5 -12.5t29 -38.5q1 -18 -7.5 -41.5t-23 -46.5t-37.5 -56q-33 -46 -34 -49l-4 -6q-1 -2 0 -4.5t5.5 -5t10.5 -2.5h10q50 0 65 5q16 1 23 -8q5 -13 -15 -26l-13 -5q-47 -18 -63 -27q-16 -10 -16 -11q2 -1 9 -7.5t13 -11.5l25 -21q16 -18 17 -21 q22 -43 -24.5 -101t-119.5 -110q-13 -8 -20.5 3.5t4.5 20.5z" />
<glyph unicode="~" horiz-adv-x="365" d="M-38 135q3 27 24.5 60t52 50t62.5 -4q10 -8 17 -27q6 -18 8 -20q19 -26 46 -24.5t55 21t54 53.5q11 14 22 3q9 -8 0 -19q-30 -40 -65 -64t-72.5 -23.5t-63.5 35.5q-6 6 -12 27q-3 12 -12 17.5t-22 1.5q-19 -6 -41 -34t-25 -53q0 -14 -15 -14q-13 0 -13 14z" />
<glyph unicode="&#xa1;" horiz-adv-x="91" d="M-50 -156q21 198 40 310q8 38 10 51t5 45.5t-1 51.5q0 6 3.5 11t9.5 6t10.5 -2t5.5 -9q6 -35 -4 -102q-1 -6 -10 -56q-9 -43 -15.5 -85t-10 -75.5t-15.5 -145.5q-2 -14 -16 -14t-12 14zM6 397q-6 3 -7.5 7.5t1.5 10t6.5 9.5t8.5 9t6 7q6 4 8 5q11 6 16 -3.5t0 -19.5 l-9 -16q-12 -16 -30 -9z" />
<glyph unicode="&#xa2;" horiz-adv-x="267" d="M-27 160q9 66 45 115q16 24 44.5 42t58.5 24q9 1 18 1t16.5 -0.5t13.5 2.5t9 11l14 37q6 13 18 10t10 -18l-21 -50q-5 -13 3 -27q11 -20 9 -55l-3 -22q1 -6 -3.5 -10.5t-10.5 -4.5q-6 -1 -10.5 3t-3.5 10q-1 3 2 24v15q-2 22 -15 -14l-9 -22l-36 -89q-6 -14 -44 -109 q-6 -11 -4 -17t18 -5q33 3 75 30q8 5 14.5 1t6.5 -11.5t-8 -13.5q-58 -36 -103 -36q-19 0 -24 -16q-5 -13 -23 -66q-2 -8 -10 -10.5t-14 2t-4 14.5q2 5 10.5 30t14.5 40q5 16 -9 26q-62 48 -45 159zM11 62q4 -10 14 -26q7 -10 13.5 -9.5t14.5 18.5q6 13 12.5 29.5t15 39 t14.5 36.5l57 139q7 15 6 19t-17 5q-25 1 -56 -15.5t-44 -36.5q-31 -45 -39.5 -102.5t9.5 -96.5z" />
<glyph unicode="&#xa3;" horiz-adv-x="406" d="M-33 0q1 10 13 22q8 9 17 17t15 15l22 26q62 75 56 153q0 8 -2 11q-1 11 -21 9q-64 -8 -95 -18q-14 -2 -15.5 11t10.5 17q36 11 76 16q21 3 21.5 10t-10.5 16q-6 8 -21 25q-26 29 -33 57.5t6 75.5q18 58 55 97t79 43q29 3 52.5 -15.5t34.5 -48.5t13.5 -67t-10.5 -71 q-1 -8 -9 -10.5t-14 2t-4 14.5q13 42 7.5 82.5t-26.5 64.5q-17 25 -47 21t-63 -41q-24 -27 -38.5 -70t-7.5 -67q7 -27 40 -60l30 -38q8 -12 24 -11q24 2 48.5 5t25.5 3q6 1 10.5 -2.5t4.5 -9.5t-4 -10.5t-10 -5.5q-41 -6 -59 -7q-11 0 -16 -5.5t-4 -11.5v-5q7 -71 -39 -143 q-6 -10 -3.5 -14.5t13.5 -3.5q25 0 50 -12l28 -16q18 -10 26.5 -14t22 -7.5t28.5 -3.5h18q3 1 8.5 2.5t6.5 1.5l16 4q22 6 27 4q12 -7 4 -20q-3 -4 -10 -7t-18 -5.5t-14 -3.5l-16 -3q-6 -2 -29 -2h-6q-38 4 -80 29q-3 2 -8 5q-22 12 -34 16.5t-33.5 1t-49.5 -21.5l-23 -24 q-5 -9 -13 -15q-10 -6 -17 -1t-6 14z" />
<glyph unicode="&#xa4;" horiz-adv-x="301" d="M-18 157l9 11.5t14 19.5t3 9q-19 20 -20.5 50t12.5 56q13 26 35 48l-11 -10q15 14 3 28l-19 20q-6 6 -2.5 13.5t10.5 9.5t14 -3l22 -24q11 -11 27 -3q65 25 110 -12q15 -13 24 -4q4 4 10 8.5t17 9t15 -3.5q6 -13 -5 -20l-25 -17q-13 -13 -11 -15q14 -62 -29 -118 q-2 -3 -3.5 -6.5t-2 -6t-0.5 -5v-4.5v-1q2 -3 4.5 -7.5t4.5 -6.5l12 -13q6 -6 2.5 -14t-11 -9.5t-13.5 3.5l-12 13q-2 3 -5.5 6t-5.5 9q-5 8 -24 2q-37 -12 -81 3q-4 4 -10.5 1t-9 -3.5t-8 -6t-7 -7.5t-6 -8.5t-5.5 -7.5q-6 -8 -14.5 -6.5t-10.5 8t3 14.5zM18 272 q-14 -61 61 -76q39 -8 65 10t37 54q10 30 5 59q-1 2 -2 5.5t-2 5.5q-5 12 -17 21t-20 10l-29 2q-32 -3 -61.5 -30.5t-36.5 -60.5zM24 341z" />
<glyph unicode="&#xa5;" horiz-adv-x="296" d="M-17 254q0 6 4 10.5t10 4.5q40 3 85 2q27 -1 32 18q3 19 9 39q0 4 -1.5 7.5t-3.5 5.5t-3.5 3t-5 1.5t-5 0.5h-5h-4.5q-56 2 -93 0q-7 -1 -11 3t-3 10q0 6 4.5 10.5t10.5 4.5q18 1 63 1q23 0 24.5 4.5t-8.5 19.5q-54 111 -68 182q0 15 12 18q14 3 17 -10q5 -34 31.5 -99 t54.5 -116l3 -4q2 -2 5 5q2 3 5 12l8 23q7 16 48 87t49 90q8 14 20 9q14 -6 7 -19q-8 -19 -50 -90q-31 -51 -47 -87q-1 -2 -3 -6.5t-2 -6.5q-3 -10 0.5 -12t16.5 -3h35q9 0 12 -7t-2 -14t-13 -7h-46q-13 1 -17 -3t-6 -14q-6 -18 -9 -38q-6 -19 16 -21q50 -2 59 -2t12 -7 t-2 -14t-13 -7q-6 0 -26.5 0.5t-35.5 0.5q-18 1 -23 -19q-4 -41 -16 -208q1 -6 -3.5 -10.5t-10.5 -4.5q-6 -1 -10.5 3t-3.5 10q8 137 17 212q2 20 -18 20q-57 2 -88 -1q-7 -1 -11 3t-3 10z" />
<glyph unicode="&#xa6;" horiz-adv-x="112" d="M-16 22q3 30 18 128q11 65 15 124q0 6 4.5 10.5t10.5 5.5q6 0 10 -4t3 -10q-1 -23 -16.5 -134t-16.5 -120q-2 -14 -16 -14t-12 14zM32 379q2 19 29 197q0 4 2.5 7t6 5t7.5 2q14 -2 12 -16q-21 -131 -29 -195q-2 -14 -15 -14q-6 0 -10 4t-3 10z" />
<glyph unicode="&#xa7;" horiz-adv-x="283" d="M-50 74q0 8 6.5 13t14 3.5t8.5 -10.5q2 -37 26.5 -56.5t61.5 -19.5q33 1 58.5 16t30.5 36q3 22 -5.5 39.5t-19 25.5t-29.5 18q-25 11 -32 14q-56 28 -76 57t-2 79q10 32 48 61q20 14 20 17l-3 2l-32 15q-25 12 -31.5 28t0.5 43q15 71 65 112t103 28q44 -10 63.5 -53.5 t3.5 -102.5q-1 -8 -9 -11t-14 1.5t-4 13.5q13 49 -1.5 83t-47.5 42q-34 8 -68 -14.5t-54 -71.5q-17 -39 -11 -54q4 -9 20 -18l17 -7q7 -3 17 -8q6 -3 39.5 -20.5t40.5 -22.5q49 -26 66 -52.5t-1 -64.5q-13 -27 -59 -70q-12 -12 -11.5 -15.5t9.5 -12.5q34 -39 26.5 -79 t-44.5 -61q-32 -22 -76.5 -21.5t-76.5 24.5t-37 74zM25 219q15 -18 60 -39l17 -9q14 -7 16 -6q58 48 75 80q11 24 -1.5 42t-52.5 40l-44 21q-30 -13 -49.5 -30.5t-26.5 -35.5t-5.5 -34.5t11.5 -28.5z" />
<glyph unicode="&#xa8;" horiz-adv-x="223" d="M21 560q13 19 23 26q7 5 8 5t14 -1q5 -3 7 -4.5t3.5 -4.5t1.5 -7q0 -1 -1 -4q-2 -5 -3 -8t-2.5 -8.5t-3.5 -8.5t-4.5 -7t-5.5 -6t-6.5 -3.5t-8.5 -1.5t-10 2q-23 8 -12 31zM157 553q-1 1 -3.5 6.5t-1 12.5t8.5 10l0.5 0.5t2 1t3.5 1l6 1.5t9 3q5 0 8.5 1t5 -1t3 -3 t1.5 -4.5t-0.5 -6t-1.5 -6.5t-2 -6.5t-2 -6t-2 -5.5q-1 -8 -9.5 -10.5t-15.5 1.5z" />
<glyph unicode="&#xa9;" horiz-adv-x="360" d="M-2 157q-27 135 10 265q41 146 134 166q41 9 97 -23.5t74 -70.5q11 -50 3 -130t-31 -170q-48 -180 -128 -197q-35 -9 -69.5 15.5t-58.5 67.5q-25 40 -31 77zM27 165q6 -33 27 -69t46 -56q61 -46 109 35q37 63 61.5 183.5t19.5 204.5q0 14 -9 23q-78 93 -145 72t-101 -142 q-33 -121 -8 -251zM73 369q24 75 58 103q24 18 45 15t35 -24q25 -32 22 -71q1 -6 -3.5 -10.5t-10.5 -4.5q-6 -1 -10.5 3t-3.5 10q2 29 -18 55q-17 25 -38 5q-27 -22 -46 -81t-15 -118q3 -68 37 -79q14 -4 15.5 -3t7.5 12q2 4 7 16.5t9 25t5 17.5q6 13 18 10t10 -18 q-3 -5 -6 -18q-11 -31 -18 -45q-12 -22 -24 -27t-35 2q-31 9 -45 50t-11.5 88t15.5 87z" />
<glyph unicode="&#xaa;" horiz-adv-x="278" d="M7 496q10 34 24.5 53.5t42.5 34.5q69 37 90 -12q12 -23 9 -101q-4 -75 2 -96q4 -15 11 -17.5t26 5.5q13 6 18 -7t-8 -19q-50 -22 -69 11q-2 -2 -5 -3q-51 -28 -85.5 -31t-46 15t-0.5 53q11 34 38.5 68.5t58.5 52.5q3 2 9 4.5t8 4t5.5 4t5 4.5t2.5 5.5t1 7.5q-3 15 -6 25 q-5 11 -16.5 12t-25 -5t-25 -15t-17.5 -17q-10 -14 -19 -43q-3 -13 -18 -11q-12 1 -10 17zM44 377q-22 -68 84 -13q4 2 9 5t6 5.5t0 14.5q-2 33 1 80v9q1 3 -3 4q-8 2 -20 -6q-24 -15 -46.5 -43t-30.5 -56z" />
<glyph unicode="&#xab;" horiz-adv-x="309" d="M38 334q6 2 42.5 28.5t42.5 29.5q9 4 15 0.5t5.5 -12t-8.5 -12.5q-18 -11 -36 -25l-44 -33q-3 -3 -4 -7t-1 -7l1 -2q5 -16 16 -32q14 -27 35 -53q8 -11 -3.5 -20.5t-20.5 0.5q-24 34 -37 57q-43 72 -3 88zM122 265q-5 12 -5.5 21.5t2 16t11 14.5t17 13.5t24.5 15.5 q51 32 73 50q7 6 14 2.5t8 -10.5t-6 -14q-26 -21 -76 -52q-31 -20 -35 -24q-6 -6 -1 -20q7 -17 39 -67q7 -12 -5.5 -20.5t-20.5 2.5q-32 52 -39 72z" />
<glyph unicode="&#xac;" horiz-adv-x="380" d="M-12 307q0 6 4.5 10.5t10.5 4.5q1 0 59.5 5t98.5 8l96 8h52q30 1 16 -72q-2 -4 -4.5 -21t-7.5 -26.5t-15 -8.5q-6 0 -9.5 5t-2.5 11l5 20l5 23q6 25 4 37q0 4 -25 4q-2 0 -8.5 -0.5t-10.5 -0.5q-3 0 -254 -20q-6 -1 -10 3t-4 10z" />
<glyph unicode="&#xad;" horiz-adv-x="326" d="M-6 263q0 14 14 16q58 10 174 5q72 -2 76 -2q14 0 12 -14q0 -14 -15 -14q-8 0 -78 2q-113 3 -168 -5q-15 -2 -15 12z" />
<glyph unicode="&#xae;" horiz-adv-x="365" d="M29 449q50 88 96 123.5t110 12.5q21 -8 40 -28.5t22 -34.5l5 -18q11 -30 14.5 -84.5t-6.5 -118.5q-33 -156 -76 -241q-29 -55 -61.5 -68t-69.5 8q-32 14 -49 36q-64 76 -71.5 196.5t46.5 216.5zM54 437q-49 -87 -42.5 -200t64.5 -181q17 -19 44 -31t44 -6q18 5 44 52 q43 82 74 231q23 114 -11 217q-4 6 -8 10.5t-6.5 7.5t-8 6.5t-7 4t-9.5 4.5l-10 5q-49 18 -86.5 -12t-81.5 -108zM73 205q-1 29 0 50.5t4.5 64t4.5 51.5q2 15 -3 17q-11 8 -2 20q15 19 40.5 34.5t50.5 19.5q32 6 52.5 -9t20.5 -49q1 -47 -78 -87q-2 -1 -1.5 -4.5t2.5 -7.5 l2 -4l11 -22q9 -21 15.5 -28.5t23.5 -16.5q7 -5 7 -12t-7 -12.5t-15 -1.5q-21 11 -30 21.5t-22 35.5q-10 28 -19 34h-1q-1 1 -3 1l-14 3q-7 3 -7 -4q-7 -54 -4 -88q2 -14 -13 -16.5t-15 10.5zM108 332l22 5q36 5 65 33q16 15 16.5 33.5t-12.5 26.5q-9 7 -29 4 q-25 -4 -47 -20q-5 -4 -7.5 -9t-3.5 -9v-3q0 -29 -4 -61z" />
<glyph unicode="&#xaf;" horiz-adv-x="220" d="M9 574q0 14 15 14q87 0 161 -3q14 0 11 -15t-16 -13q-70 3 -159 3q-14 0 -12 14z" />
<glyph unicode="&#xb0;" horiz-adv-x="240" d="M29 563q13 32 47.5 43t58.5 -6q43 -22 56 -68q5 -15 8 -23q12 -38 1 -68t-41 -47q-30 -21 -68.5 -11.5t-60.5 45.5q-13 22 -14 54.5t3.5 51t9.5 29.5zM46 496q-4 -37 10 -52q20 -22 45 -30t45 4q45 30 14 113q-13 30 -42 44t-51 -3q-4 -4 -12 -18q-5 -13 -5 -27 q-2 -14 -4 -31z" />
<glyph unicode="&#xb1;" horiz-adv-x="237" d="M-51 -26q-14 0 -10.5 15t15.5 13q57 -2 59 -2h13q7 0 34.5 1t53.5 3l25 1q6 1 10 -3t4 -10t-4.5 -10.5t-10.5 -4.5q-4 0 -10.5 -0.5t-16.5 -1t-18 -0.5q-107 -5 -144 -1zM-29 319q0 14 13 16q36 6 58 6q7 0 10.5 1t5.5 1t3.5 4t1.5 5t1 9q1 7 2 28.5t3 34.5q2 14 15 14 q6 0 10 -4t3 -10q-3 -22 -5 -65q-1 -12 2.5 -15.5t16.5 -3.5q6 0 18 -0.5t17 -0.5q9 -1 24 -1q9 0 11.5 -7t-2 -14t-12.5 -7l-17.5 0.5t-34.5 0.5q-12 0 -16.5 -1.5t-5 -6.5t0.5 -14q2 -26 6 -50q0 -14 -11 -17q-14 -3 -18 9q-1 7 -2.5 19t-3 22.5t-1.5 20.5q0 13 -3.5 16.5 t-16.5 2.5q-9 -1 -29 -2.5t-30 -2.5q-4 0 -7 1t-5 4t-2 7z" />
<glyph unicode="&#xb2;" horiz-adv-x="220" d="M3 523q9 21 27 40t37 27q26 11 44 -1t21 -45q4 -32 -53 -109l-36 -45q-1 -2 -4 -5t-4 -5h4q5 0 20.5 -1.5t24.5 -1.5q6 0 39 1.5t39 1.5q9 0 12 -7t-2 -14t-13 -7q-1 0 -5 -0.5t-12 -1t-16 -0.5l-44 -2q-23 0 -45 2q-28 6 -32 17q-2 3 -2.5 6t0.5 6.5t2 6t3.5 6t4 5 t4.5 5t4 4.5l36 45q50 64 47 87q-2 13 -4 18.5t-8 9t-16 -1.5q-8 -4 -17 -11.5t-17 -17.5t-12 -20q-6 -15 -20 -9t-7 17z" />
<glyph unicode="&#xb3;" horiz-adv-x="188" d="M2 539q8 22 26 40t39 26q55 18 67 -44q7 -47 -24 -74q-10 -10 -9.5 -15t5.5 -7l5 -2q27 -11 33.5 -39.5t-14.5 -53.5q-41 -46 -104 -51q-6 -1 -10.5 3t-3.5 10q0 6 4.5 10.5t10.5 4.5q22 2 45 13.5t36 27.5q28 28 -12 49q-10 6 -39 3l-10 -4q-17 -8 -27 3q-8 11 2 22 t24 11q67 38 59 81q-5 34 -31 25q-14 -5 -27 -18.5t-18 -28.5q-6 -12 -18.5 -9t-8.5 17z" />
<glyph unicode="&#xb4;" horiz-adv-x="167" d="M34 506l87 78q7 6 14 3.5t8 -9.5t-5 -14l-86 -78q-7 -6 -14 -3.5t-8.5 9.5t4.5 14z" />
<glyph unicode="&#xb5;" horiz-adv-x="312" d="M-121 -135q22 46 99.5 235.5t93.5 225.5q7 13 19.5 8.5t7.5 -18.5q-34 -71 -97 -229l-5 -16q-6 -17 8 -26q45 -22 77.5 -6t63.5 71q25 48 49 119q36 97 42 108q4 9 12 10t12.5 -5.5t0.5 -14.5q-6 -12 -39 -105q-21 -58 -41 -102l-3.5 -7l-2.5 -5l-1 -1v-2q0 -6 -0.5 -24 t-0.5 -23q-2 -18 4 -42q3 -8 -3 -14.5t-14 -5.5t-10 10q-6 18 -6 31q-2 15 -4 14.5t-10 -10.5q-61 -63 -134 -26q-16 5 -19 3t-8 -14q-49 -116 -64 -149q-7 -13 -19.5 -8.5t-7.5 18.5z" />
<glyph unicode="&#xb6;" horiz-adv-x="428" d="M10 381q-8 43 14 88t60 79q34 29 81 46q107 29 231 11q9 -1 10.5 -8.5t-4 -14t-13.5 -5.5q-36 4 -61 5q-19 1 -21 -20q-1 -32 -8 -90q-5 -22 -9 -57q-3 -12 -6 -29.5t-4 -23.5q-3 -22 -13 -112t-19.5 -168.5t-14.5 -110.5q0 -4 -2.5 -7t-6 -4.5t-7.5 -1.5q-6 0 -9.5 4.5 t-2.5 10.5q6 38 24 197.5t23 193.5l9 51t10.5 63t6.5 50q0 6 0.5 18t0.5 17q0 9 -5.5 14t-14.5 4q-2 0 -10 -1t-10.5 -1.5t-8 -2t-7.5 -3.5t-4.5 -6t-2.5 -9q0 -3 -1.5 -10t-2 -14t-0.5 -14q-2 -26 -8 -67q-24 -149 -57 -485q-2 -14 -16 -14t-12 14l33 318q1 10 -4 13.5 t-16 1.5q-38 -7 -75 14.5t-47 65.5z" />
<glyph unicode="&#xb7;" horiz-adv-x="125" d="M3 273q0 23 20 36q22 19 34 4q10 -12 11 -27.5t-8 -22.5q-2 -2 -14 -7q-19 -8 -31.5 -2t-11.5 19z" />
<glyph unicode="&#xb8;" horiz-adv-x="215" d="M-41 -65q1 3 11 13l18 18q13 14 23 24l6 5q6 7 14 5.5t9.5 -8.5t-3.5 -15q-3 -3 -7.5 -8t-8.5 -9q-7 -7 -6.5 -9t4.5 -2l5 1q56 7 75 -6q21 -12 23.5 -28.5t-9.5 -31.5t-26 -26.5t-27 -18.5l-13 -5q-2 -1 -6.5 -2t-5.5 -2q-13 -6 -17.5 7.5t10.5 18.5l12 5q2 1 9 4 q27 13 39 30q9 11 2 19t-19 9q-30 3 -82 -6l-17 -2q-14 0 -13 20z" />
<glyph unicode="&#xb9;" horiz-adv-x="203" d="M3 347q1 4 2.5 7t4 4t6.5 1.5t7.5 0.5t9 -0.5t8.5 -0.5q9 0 14 2t6 4v2q-1 30 13 100q13 60 14 82l-7 -8l-11 -14q-1 -1 -4 -5.5t-4 -5.5t-4 -3t-6 -3q-9 -2 -14 5t1 16q42 52 49 59q2 2 4 3l2 2q4 2 5 2q9 2 16 -4q4 -6 4 -16l-1 -8l-1 -5q-2 -39 -14 -100 q-14 -64 -14 -95l-1 -7q0 -4 20 -4h35q14 0 12 -14q0 -14 -15 -14q-96 0 -126 2q-6 0 -9.5 4.5t-1.5 10.5z" />
<glyph unicode="&#xba;" horiz-adv-x="263" d="M-3 438q6 41 27.5 80.5t62.5 59.5q52 27 95 5q12 -6 26 -28q17 -29 20 -66t-11 -71q-21 -57 -66 -83.5t-97 -4.5q-31 14 -46 44t-11 64zM42 493q-22 -39 -15 -80.5t42 -56.5q38 -17 71 3.5t50 66.5q17 44 7 81.5t-44 47.5q-42 5 -66.5 -8t-44.5 -54z" />
<glyph unicode="&#xbb;" horiz-adv-x="366" d="M15 194q15 16 60 57q32 29 39 40t-1 18q-15 12 -73 24q-13 2 -9 17q4 13 18 11q63 -12 84 -30q26 -19 5 -53q-12 -19 -45 -48l-58 -54q-7 -7 -14.5 -5.5t-9.5 8.5t4 15zM124 376q-8 13 6 20q3 2 6 2.5t5 0t7 -2t8 -2.5l31 -6q15 -4 33 -7q16 -4 36.5 -10t29.5 -8 q12 -7 14 -10q9 -18 -10 -51q-21 -33 -93 -106l-34 -34q-6 -7 -14 -5.5t-9.5 8.5t3.5 15q1 3 34 34q71 73 88 101q8 15 9 17v3q-18 8 -127 32q-3 1 -7 1.5t-5.5 0.5t-4 1t-3 1.5l-1.5 1.5t-2 3z" />
<glyph unicode="&#xbc;" horiz-adv-x="353" d="M-35 22l230 373q19 30 31 52q44 78 77 116q6 7 14 5.5t10 -8.5t-4 -15q-31 -34 -72 -109q-27 -48 -32 -55l-230 -371q-5 -8 -13 -8t-11.5 6t0.5 14zM37 383q0 6 4 11t10 5q4 0 16 2.5t22 4.5q-1 6 -1 19q0 23 1 39q1 22 -6 23t-16 -11q-6 -7 -14 -5.5t-9.5 8.5t3.5 15 l36 40q7 7 23 7q6 0 10 -4.5t3 -10.5q0 -20 -0.5 -38.5t-0.5 -30.5t-0.5 -21t-0.5 -14v-5v-5q-1 -2 7 -2l13 1h10q7 1 11 -3t4 -10q-1 -6 -5.5 -10.5t-10.5 -4.5q-24 -2 -94 -12q-15 -2 -15 12zM110 142q0 2 2 4q5 10 17 20q7 7 36.5 29.5t44.5 36.5q43 39 43 11 q0 -5 -1 -13q-1 -12 -3 -19q-2 -26 -5 -39q-1 -10 2 -14.5t6 -5t9 -0.5h2q5 1 10 -3t5 -9q-1 -6 -5.5 -11t-10.5 -5q-3 -1 -13 -1q-15 -2 -18 -20q-7 -42 -9 -56t-15 -14q-6 0 -10 4t-3 10q1 4 2 13.5t2.5 19.5t3.5 19q3 21 -15 21q-28 -1 -44 0q-17 0 -27 5t-6 17zM165 163 q-12 -12 4 -14l16 -1h4l11 1q12 0 15 19v5q3 22 -3.5 22t-17.5 -10l-1 -1l-10 -7q-2 -2 -5 -4t-4.5 -3.5t-4 -3.5t-4.5 -3z" />
<glyph unicode="&#xbd;" horiz-adv-x="393" d="M-36 18q18 28 49 68q11 14 18 24t12 16.5t11.5 17.5t9 15.5t13.5 24t17 30.5q32 57 39 68l35 60q27 45 42 66l39 58q38 56 97 118q6 7 14 5.5t9.5 -8.5t-3.5 -15q-53 -57 -93 -116l-39 -56q-42 -59 -76 -124l-40 -68q-6 -10 -16.5 -30t-13.5 -24.5t-9.5 -16.5 t-11.5 -18.5t-12.5 -17t-18.5 -25.5q-31 -40 -47 -66q-5 -8 -13.5 -7.5t-12 6.5t0.5 15zM74 390q-14 0 -11 15t16 13q1 0 5 -0.5t5 -0.5q10 0 10 1t1.5 33.5t1.5 45.5q0 6 -1 10.5t-3 5.5t-5 0q-8 -5 -15 -1t-6.5 11.5t8.5 13.5l20 13q4 3 10 3q8 -1 16 -5.5t5 -12.5 q1 -13 -1.5 -63t-2.5 -52l2 16q-2 -20 14 -20h14q14 0 12 -14q0 -14 -15 -14q-52 0 -80 2zM123 44q-4 7 -1.5 14t9.5 11q53 23 87 86q17 35 8 46q-5 12 -21 -3q-11 -10 -31 -42q-9 -13 -21 -5q-12 7 -4 19q12 17 21.5 28.5t17.5 19.5t15 12t15 5q20 5 34 -16 q15 -24 -3 -62.5t-48 -71.5q0 -1 -3 -3q-21 -21 -6 -21q5 0 31.5 1t31.5 1q14 0 12 -14q0 -14 -15 -14q-3 0 -63 -3q-3 0 -15.5 -0.5t-17 0t-13 1.5t-13 4t-7.5 7z" />
<glyph unicode="&#xbe;" horiz-adv-x="370" d="M-50 4q46 99 179 288q48 68 85 125q20 30 38 53q54 75 68 114q6 13 19 10q7 -2 7.5 -11.5t-6 -23.5t-14 -28t-19 -31t-18.5 -27t-15 -20q-15 -20 -35 -50l-88 -127q-129 -183 -176 -282q-3 -8 -11 -9.5t-13 4.5t-1 15zM20 388q-1 5 0 9t5 7t8 4t8 -1t6 -7q4 -9 8.5 -13.5 t9.5 -5.5t9.5 0.5t9 5t7.5 7.5t5 8q5 11 2 27q-2 11 -1 12h-2l-2 -1h-10q-11 2 -13 13t7 18q3 3 9 6q2 0 6 2q17 17 20 36q1 10 -2 14t-10 3q-8 -1 -14.5 -9t-7.5 -21q-2 -14 -15 -14q-6 0 -10 4t-3 10q2 24 16 40t33 19q20 3 32.5 -10t8.5 -36q-2 -19 -15 -37 q-8 -13 -1 -28q11 -33 -3 -58q-18 -37 -52 -38.5t-49 34.5zM101 99q-13 10 -9.5 22.5t19.5 25.5q7 6 20 17t19.5 16t16.5 13.5t16.5 13t14 9t13.5 6.5q11 5 11 -13q0 -6 -2 -31q-1 -7 -1 -27.5t1 -21.5q7 1 13 1q13 2 15 -13q-2 -8 -6 -10q-2 -3 -18 -7q-14 -3 -18 -25 q-5 -21 -7 -39q-2 -14 -15 -14q-6 0 -9.5 3.5t-3.5 10.5t1 13t2.5 15.5t2.5 13.5q2 8 -2.5 12t-15.5 3q-43 -4 -58 6zM126 123l39 -1h2h6t5 0.5t3.5 1.5t3.5 3t2 6t2 10v2q2 18 -5.5 19.5t-17.5 -8.5q-38 -31 -40 -33z" />
<glyph unicode="&#xbf;" horiz-adv-x="237" d="M-36 -29q6 121 66 144q7 3 43 8q20 2 20 11q1 2 3 19q9 63 11 151q0 14 15 16q6 0 10 -4t3 -10q0 -82 -10 -154q-4 -30 -14 -42t-37 -16q-28 -3 -37 -6q-39 -15 -45 -115q-1 -28 10.5 -53t30.5 -38q43 -29 84 23q7 8 15 6.5t10.5 -8t-2.5 -14.5q-30 -36 -65 -44t-60 12 q-25 18 -39.5 49.5t-11.5 64.5zM107 447l6 8q16 15 42 6q2 -1 8 -2.5t9 -3.5t4 -7q5 -11 -9 -19q-23 -20 -44 -19q-15 2 -20.5 12.5t4.5 24.5z" />
<glyph unicode="&#xc0;" horiz-adv-x="271" d="M-31 19q76 358 90 467q4 27 11 51t18.5 49t29.5 35t41 0q27 -9 36 -78q4 -24 7 -83q2 -71 -10 -226q-11 -152 -3 -221q0 -15 -13 -17q-16 -2 -16 11q-7 82 3 226q1 25 3 57t2 34q1 10 -4 15t-15 3q-51 -7 -71 -14q-17 -4 -17 -6q-3 -15 -8 -38t-12 -57t-12 -60l-32 -150 q-2 -15 -16 -13q-6 0 -9.5 4.5t-2.5 10.5zM71 378q-2 -11 3 -15.5t16 -2.5q25 6 58 11q24 3 26 22q0 102 -7 143q-6 33 -9 41q-5 14 -14.5 18t-16.5 -3q-9 -8 -20 -30q-9 -23 -15 -52t-12.5 -73.5t-8.5 -58.5zM119 714q-7 5 -5 13t9.5 11t14.5 -1q3 -3 29 -26l28 -25 q7 -5 4.5 -13t-9.5 -11t-15 2l-28 25q-17 15 -28 25z" />
<glyph unicode="&#xc1;" horiz-adv-x="309" d="M-26 19q4 18 26.5 119t27.5 126q3 17 7.5 44.5t7.5 48.5t8 45t10 42q8 29 13.5 45.5t20.5 42t38 48.5q16 16 31 25t31 7t27 -17q12 -15 10 -98q0 -33 -6 -170q-12 -249 1 -296q3 -9 -3 -15.5t-14 -5.5t-10 9q-10 30 -10 110t6 197q0 7 -3 7q-31 0 -86 -11 q-3 -1 -10.5 -2.5t-10.5 -2t-8 -2.5t-7.5 -4t-5.5 -6t-4 -9q-14 -100 -59 -279q-2 -15 -16 -13q-6 0 -9.5 4.5t-2.5 10.5zM73 366q-2 -11 2 -16t14 -3l18 3q51 11 89 11h-19q22 0 22 21q4 94 4 113q2 40 -1 57q-1 21 -5.5 27t-14.5 3q-11 -4 -23 -14.5t-22 -23.5 t-17.5 -25.5t-12.5 -22.5q-21 -52 -34 -130zM128 670q49 43 80 64q8 5 15 1t7 -11.5t-8 -13.5q-23 -15 -76 -60q-4 -4 -9 -4.5t-8 2t-5 6t-1 8t5 8.5z" />
<glyph unicode="&#xc2;" horiz-adv-x="314" d="M-32 16q4 29 22 110l12.5 50t9 36.5t5.5 24.5t6 30t6.5 36.5t9.5 58.5q16 89 33 140.5t46 84.5q24 27 49.5 23.5t45.5 -39.5q14 -26 17.5 -66.5t0.5 -80.5t-13 -134q-13 -103 -11 -167.5t23 -97.5q5 -8 0.5 -15.5t-12 -8t-12.5 5.5q-26 39 -28.5 105.5t11.5 178.5l1 15 q1 3 1 8q1 2 -1.5 3t-7 1.5t-11.5 -0.5q-67 -8 -96 -13q-17 -3 -20 -21q-9 -47 -11 -53l-25 -109q-16 -58 -23 -108q-2 -15 -17 -13q-6 0 -9.5 4.5t-1.5 10.5zM68 355q-2 -11 2.5 -15.5t15.5 -3.5q32 5 108 13h-18q20 0 22 20q13 141 -10 186q-10 17 -18 23t-15 3.5 t-16 -12.5q-25 -28 -40 -73.5t-31 -135.5v-5zM89 660q14 32 19.5 43.5t14.5 24t19 16.5q12 8 24 0.5t21 -21t20 -37.5q8 -13 -7 -20q-13 -6 -18 6q-16 32 -28 44l-4 -4q-3 -3 -6 -7l-4 -4q-9 -15 -24 -51q-8 -14 -19 -9q-15 6 -8 19z" />
<glyph unicode="&#xc3;" horiz-adv-x="315" d="M-40 5q18 68 48 227q27 152 55 229q20 62 39 95q15 32 35 47q31 21 50 -11q12 -19 12 -56q1 -21 -3 -52q0 -4 -0.5 -11.5t-1 -22t-0.5 -25.5q-7 -107 -7 -195q2 -185 40 -213q7 -5 5 -13.5t-9 -11.5t-15 1q-47 32 -49 234q1 12 1 38v40q1 10 -4.5 14.5t-16.5 2.5 q-25 -5 -68 -7q-19 0 -23 -19q-2 -11 -6.5 -33.5l-6.5 -32.5q-31 -174 -48 -231q-2 -8 -10 -10t-13.5 2.5t-3.5 13.5zM45 630q24 45 50.5 54.5t55.5 -6.5q21 -12 37.5 -6t37.5 41q5 8 13.5 8t12 -6t-0.5 -14q-28 -46 -55.5 -56t-57.5 6q-21 12 -35.5 6.5t-32.5 -39.5 q-5 -8 -13 -8.5t-12 6t0 14.5zM64 365q-3 -10 1 -16t14 -5q1 0 32.5 5.5t32.5 5.5q18 0 18 18q1 16 2.5 39.5t2.5 44t1 25.5q-1 3 1 25q5 50 -7 67q-4 7 -7 7q-2 0 -3 -1q-11 -8 -26 -35q-34 -70 -62 -180z" />
<glyph unicode="&#xc4;" d="M-41 7q11 48 36 224q21 139 50 227q8 22 15 39.5t18 38.5t21.5 34t24 25t27.5 11.5t31 -5.5q29 -12 33 -72q3 -16 1 -43q0 -2 -0.5 -8t-0.5 -10v-15q-3 -56 -15 -149q-10 -65 -11 -78q-19 -139 4 -212q3 -9 -3 -15t-14 -5.5t-11 8.5q-24 79 -5 225q1 6 8 60q4 21 3 21 h-115q-19 -1 -23 -20q-3 -24 -9 -58q-27 -187 -37 -227q-2 -14 -18 -12q-6 0 -9 5t-1 11zM47 357q-2 -10 2.5 -15.5t14.5 -5.5h92q18 0 23 20q8 62 8 95q-1 5 0 15v17q0 55 -7 75q-4 13 -12 17q-19 9 -39.5 -12.5t-36 -60t-27 -76t-18.5 -69.5zM136 688q-9 0 -12 7t1.5 14 t12.5 7q13 0 13 -14q-2 -14 -15 -14zM195 707q0 6 4.5 10t10.5 4q13 0 13 -14q-1 -6 -5.5 -10t-10.5 -4t-9.5 4t-2.5 10z" />
<glyph unicode="&#xc5;" horiz-adv-x="298" d="M-35 30q18 41 29 103q2 14 5.5 30t3.5 19q18 84 47 206l21 96q3 14 5 23.5t5.5 22.5t6.5 21.5t7 19.5t8 17t10 14.5t11.5 11t13 7.5t15.5 3t18 -2q13 -3 22 -11t14 -16.5t8 -27t4.5 -32t2.5 -42.5q1 -9 1 -14q1 -49 -3 -113q-10 -77 -14 -118q-14 -141 10 -217 q3 -9 -3 -15.5t-14 -5.5t-10 9q-27 83 -12 229q0 2 4 28.5t4 38.5q1 9 -4 13.5t-15 3.5h-4q-45 -5 -52 -6q-3 -1 -11.5 -2.5t-12 -2.5t-9.5 -3t-9 -4.5t-6.5 -7t-4.5 -9.5q-4 -20 -10 -45.5t-9 -39.5t-7 -35t-8 -45q-13 -72 -33 -112q-4 -9 -12 -10t-12.5 5.5t-0.5 14.5z M74 369q-3 -11 2 -16t16 -3q29 4 78 12q20 2 23 22q2 67 0.5 106.5t-4.5 56.5q-8 43 -29.5 47.5t-38.5 -36.5q-7 -13 -22 -78zM112 725q1 2 1 5q0 6 7.5 13.5l8.5 8.5q2 1 5 4l4 4q19 15 40 9.5t31 -26.5q9 -20 -2 -45t-30 -32q-18 -8 -37 2.5t-26 36.5q-1 1 -1 4 q-1 3 -1 16zM146 729q-5 -13 -1 -22t13 -13q14 -8 23 13q10 20 -7 31q-16 11 -27 -6q0 -2 -1 -3z" />
<glyph unicode="&#xc6;" horiz-adv-x="428" d="M-49 3q10 31 16 60q5 19 8.5 34t9 32t8 24.5t10 28.5t9.5 27t13 36t15 40q22 58 47 130.5t40 112.5q28 68 50 79q24 11 100 9l53 -3q9 0 19 -0.5t15.5 -1t8.5 -0.5q9 0 12 -7t-2 -14t-13 -7q-12 0 -45 1.5t-56.5 2.5t-48.5 0h-3q-2 0 -5 -19q-16 -112 -25 -226 q-2 -20 18 -20h101q13 0 13 -14q-1 -6 -5.5 -10t-10.5 -4h-101q-21 -2 -21 -21l-7 -89q-7 -85 -10 -107l-1 -17q-1 -4 -2 -7.5t-2 -8t-1.5 -8.5t-1.5 -8t-1 -6.5v-5t1 -4t2 -1.5q4 -2 17 -4q20 -3 54 -3l60 2q10 0 20 0.5t15 1t7 0.5q13 0 13 -14q-1 -6 -5.5 -10t-10.5 -4 q-2 0 -7 -0.5t-15 -1t-20 -0.5q-82 -5 -118 0q-29 5 -36 17t-2 46l1.5 8t3 16.5t1.5 11.5q0 9 2.5 33t3.5 39q2 20 -18 20h-79q-18 -1 -24 -18l-10 -32q-4 -12 -17 -60q-3 -17 -16 -62q-2 -8 -9.5 -10.5t-13.5 2.5t-4 14zM45 219q-4 -10 0.5 -16t14.5 -6h66q21 0 22 21 q20 228 31 311q1 9 -0.5 17.5t-2.5 12.5l-2 4q-21 -38 -50 -126q-27 -84 -57 -160z" />
<glyph unicode="&#xc7;" horiz-adv-x="286" d="M-10 148q-13 78 16 218q7 32 11.5 53t13.5 54.5t19.5 55.5t24 45.5t32 37.5t39.5 18q38 7 62.5 -16t24.5 -66q-4 -29 -6 -33q0 -6 -4.5 -10t-10.5 -4q-13 0 -13 14q0 3 1 7t2.5 14.5t1.5 14.5v7q-4 37 -36 43.5t-57 -24.5q-20 -22 -36.5 -61.5t-24.5 -74.5q-3 -12 -9 -40 t-8 -37q-25 -145 -14 -208q5 -32 20.5 -68.5t34.5 -56.5q21 -24 44.5 -18t48.5 48q7 13 13 38q0 9 4.5 26t4.5 19q2 8 10 10.5t14 -2t4 -14.5q-2 -5 -4.5 -20t-5.5 -22q-6 -32 -16 -47q-34 -57 -72 -65q-3 -1 -6 -1q-5 0 -16 -17q-14 -21 11 -24q22 -2 32.5 -16.5 t-0.5 -39.5q-8 -14 -29 -28q-8 -6 -43 -25q-9 -4 -15.5 0.5t-5.5 13t9 12.5q11 5 20 10t14 7.5t6 3.5q17 13 17 16q7 12 -0.5 15t-26.5 3q-3 1 -4.5 1h-3.5h-4q-24 0 -26 14q-1 4 0.5 10t4.5 7l3.5 7t6 11t5.5 9q4 5 4.5 9.5t-1.5 8.5t-4.5 6.5t-7 6.5t-6.5 6 q-49 53 -63 138z" />
<glyph unicode="&#xc8;" horiz-adv-x="234" d="M-20 37l2 15l4 39q5 41 9 64q26 187 34 335q-3 15 -3 44t5 44t21 20q21 9 68 13t81 0q15 0 12 -15t-17 -13q-24 1 -71 -2t-65 -9q-1 -1 -2 -1q-2 -6 -2.5 -12.5t-0.5 -11.5t1 -15.5t1 -18.5v-21q0 -18 -8 -126q-2 -11 3.5 -15.5t16.5 -3.5q19 4 36 9q9 3 14 -2.5t3 -13.5 t-10 -10q-23 -8 -49 -12q-19 -3 -22 -22q-7 -68 -19 -143q-10 -81 -11 -99q0 -4 2.5 -8t4.5 -6l2 -2q14 -2 38 0q4 0 15 1t25 2t29 2q5 1 9.5 -3t4.5 -9q0 -6 -4.5 -11t-10.5 -5q-84 -9 -112 -5q-33 3 -33 22q0 3 -1 5zM90 717q-8 11 3.5 20.5t20.5 -0.5q4 -7 28 -31l19 -14 l17 -15q11 -8 1 -19.5t-21 -2.5q-1 0 -3 2t-6 5l-8 6l-18 16q-24 21 -33 33z" />
<glyph unicode="&#xc9;" horiz-adv-x="267" d="M-26 36q0 17 3 47q9 90 29 231q2 16 6.5 45.5t6.5 41.5q2 10 3 18.5t2 15.5t1 9l0.5 5t0.5 10q0 6 2.5 30t2.5 32l5 47l2 16v7l5 8l9 5q1 1 4 1q2 0 8 0.5t10 0.5h8q11 -1 50 -2.5t68.5 -3t35.5 -3.5q13 -5 8 -18q-4 -12 -19 -10q-5 2 -31 3q-55 5 -110 5q-17 0 -19 -9 l-5 -47q-2 -18 -2 -32q-1 -4 -4 -31l-1 -14q-3 -17 -11 -89q-5 -23 17 -21q3 1 8 1q2 0 20.5 1.5t22.5 1.5q6 1 10 -3t4 -10t-4.5 -10.5t-10.5 -4.5q-33 -3 -43 -3q-31 0 -35 -22q-2 -13 -6.5 -47.5t-7 -55.5t-6 -49t-5.5 -49q-4 -38 -4 -46q1 -2 1 -7v-6v-1q1 -1 2 -1 q14 -3 37.5 -4t67 -0.5t47.5 0.5q9 0 12 -7t-2 -14t-13 -7q-6 0 -43.5 -1t-45.5 -1q-26 0 -52 2q-29 6 -36 15q-5 10 -3 30zM158 688q31 25 67 50q5 3 9.5 3.5t8 -2.5t4.5 -7t-0.5 -8.5t-6.5 -7.5q-36 -25 -65 -50q-12 -9 -20 1.5t3 20.5z" />
<glyph unicode="&#xca;" horiz-adv-x="260" d="M-26 27l1 5q-2 5 0 13q7 62 10 73l3 23q0 2 1.5 16.5t3.5 27.5q1 33 5 80t8 86t9 87.5t7 71.5q4 38 6 46l1 13l1 5q1 1 1 2q0 2 1 3q0 3 6.5 8t12.5 5q107 18 176 12q14 0 11 -15t-16 -13q-33 1 -87.5 -2.5t-76.5 -8.5q-1 -2 -1 -5q0 -2 -1 -7l-2 -10l-3 -33 q-2 -15 -6.5 -61t-8.5 -77v-20q3 1 7 0q34 -6 68 -3q13 2 15 -13q0 -4 -2.5 -7.5t-6 -5.5t-7.5 -2q-29 -4 -66 1q-12 -5 -13 -21q-15 -155 -15 -160l-1 -12l-10 -75q0 -4 3 -8.5t6 -6.5l3 -2q125 -5 141 -5q9 0 11.5 -7t-2 -14t-12.5 -7q-76 0 -144 4q-2 0 -8.5 1t-9 1 t-7 1.5t-6.5 3t-4 5t-2 7.5zM55 667q24 45 42.5 64.5t40 18.5t46.5 -28l18 -18l23 -26q7 -6 4 -13.5t-10.5 -9.5t-13.5 3l-25 24q-33 36 -44 39q-8 3 -18 -7q-15 -16 -38 -59q-4 -8 -12.5 -9t-13 5.5t0.5 15.5z" />
<glyph unicode="&#xcb;" d="M-14 18q-6 17 0 77q5 88 30 261q2 15 3.5 28.5t2.5 20.5t2 15t1.5 10t1 8.5t0.5 8v10.5v13.5v20v27.5q-2 56 6 71q7 13 43 19q32 4 127 4q22 -1 39 -1q15 2 15 -13q0 -4 -2.5 -7.5t-6 -5.5t-7.5 -2q-6 -2 -41 0q-95 0 -123 -4q-2 0 -6.5 -0.5t-6.5 -1.5l-8 -18v-38 q0 -67 -1 -72q0 -3 -10 -81q-1 -10 4 -15.5t15 -3.5q14 1 46 1q13 0 13 -14q-1 -6 -5.5 -10t-10.5 -4h-9h-9.5h-9.5t-9 -0.5t-8 -1.5t-7.5 -2t-6 -3t-5.5 -4t-3.5 -5.5t-1.5 -7.5q-23 -186 -24 -203q0 -8 -0.5 -23.5t-1.5 -21.5q1 -9 1 -19q2 0 7.5 -2t9.5 -3q27 -5 103 -3 q22 1 35 1q9 0 11.5 -7t-2 -14t-12.5 -7q-13 0 -35 -1q-77 -3 -108 3q-29 5 -36 20zM95 685q-14 0 -12 14t15 14t13 -14q0 -4 -2.5 -7t-6 -5t-7.5 -2zM181 686q-9 0 -11.5 7t2 14t12.5 7q13 0 13 -14q0 -4 -2.5 -7t-6 -5t-7.5 -2z" />
<glyph unicode="&#xcc;" horiz-adv-x="201" d="M-40 22q0 14 15 14h33q8 0 13 0.5t6.5 4.5t1.5 5.5v9.5q8 272 44 509q1 7 1 11.5t-4 7t-15 2.5q-3 0 -9.5 -0.5t-10.5 -0.5t-8.5 1t-6.5 4t-1 8q0 6 4.5 10.5t10.5 4.5q64 3 135 0q14 0 11 -15t-16 -13q-13 1 -39 1q-8 0 -12.5 -1t-6.5 -4.5t-2.5 -5.5t-1.5 -9 q-38 -250 -43 -512q-2 -20 18 -21h10.5h11.5h9q9 0 11.5 -7t-2 -14t-12.5 -7q-12 0 -66 1.5t-67 1.5q-14 0 -12 14zM55 720q-7 5 -5 13.5t9 11.5t14 -1q5 -4 25.5 -22t26.5 -22q11 -9 1.5 -20.5t-20.5 -3.5q-5 4 -25 21.5t-26 22.5z" />
<glyph unicode="&#xcd;" horiz-adv-x="211" d="M-13 9q1 6 6 9.5t11 2.5q22 -2 42 -3v23q-8 125 26 372l18 148v3q3 13 1.5 15t-9.5 1h-11h-2q-13 -2 -15 12q0 6 4 10.5t10 5.5q57 7 100 3q15 0 12 -15t-17 -13q-26 2 -34 1t-9 -10l-3.5 -28t-7 -57.5t-9.5 -76.5q-18 -140 -23.5 -228t-0.5 -159q1 -2 -1 -4q0 -2 8 -3.5 t19.5 -2.5t13.5 -1q14 0 11 -15t-16 -13q-7 1 -54.5 3t-59.5 4q-6 0 -9 5t-1 11zM115 690l3.5 3t11 8.5t15.5 12.5q12 9 28 25q11 10 20.5 0.5t-0.5 -20.5q-55 -48 -61 -51q-12 -9 -20 1.5t3 20.5z" />
<glyph unicode="&#xce;" horiz-adv-x="268" d="M-11 -5q-3 8 3.5 13.5t20 8.5t24.5 4.5t21 1.5v14q-1 50 13 149q15 126 36 366v10.5t-4.5 7t-13.5 2.5q-30 0 -42 -1q-6 -1 -10 3t-3 10q-1 6 3.5 10.5t10.5 4.5q10 0 50 -0.5t78 -1.5t39 -1q6 0 9.5 -4t2.5 -10q0 -6 -4.5 -10t-10.5 -4q-30 0 -54 1h-9t-6.5 -1t-4 -1.5 t-2 -3t-1 -3.5t-0.5 -5v-5q-1 -6 -12 -137q-17 -167 -24 -229q-15 -99 -12 -155l1 -3q0 -2 19 -2q3 0 11.5 -0.5t13.5 -0.5q38 -2 40 -2q9 0 12 -7t-2 -14t-13 -7q-9 0 -42 1t-42 1q-50 0 -79 -10q-13 -5 -17 10zM83 653l28 48q14 21 29 21q11 0 26 -17q7 -7 13.5 -14.5 t9.5 -11.5t5 -5q9 -10 -1.5 -20.5t-20.5 -1.5q-2 2 -14.5 16.5t-19.5 22.5q-3 -3 -6.5 -8t-5.5 -9t-7.5 -14.5t-10.5 -18.5q-8 -13 -21 -6q-11 6 -4 18z" />
<glyph unicode="&#xcf;" horiz-adv-x="271" d="M-23 -11q0 14 14 16q29 4 47 5q10 0 14.5 3t5.5 6.5t1 12.5q-4 80 12 223.5t18 173.5q0 73 5 131q0 7 0.5 11t-4 6t-14.5 2q-29 -2 -43 -5q-16 -2 -16 11q0 15 12 17q34 7 75 7h39q16 -1 34 -1q13 0 13 -14q-2 -14 -16 -14h-29q-6 0 -10.5 -0.5t-6.5 -1.5t-3 -3.5 t-1.5 -3.5t-0.5 -5v-6q-3 -24 -3 -62q0 -14 -0.5 -30t-1 -24.5t-0.5 -12.5q-4 -64 -13 -141q-8 -53 -11.5 -86.5t-4 -48.5t0.5 -53t1 -70q-3 -10 -0.5 -15t17.5 -5q27 0 69 -8q13 -2 9 -17q-3 -13 -18 -11q-73 15 -176 1q-15 -2 -15 12zM69 679q-9 0 -12 7t2 14t13 7 q12 0 12 -14q-2 -14 -15 -14zM151 697q2 14 16 14q6 0 10 -4t2 -10q0 -14 -15 -14q-13 0 -13 14z" />
<glyph unicode="&#xd0;" horiz-adv-x="342" d="M-28 310q0 16 13 17q16 3 48 7q13 1 17 5t5 15q2 18 5 44.5t5.5 55t4.5 44.5l6 59q1 6 -4.5 12.5t-6.5 8.5q-2 4 -1 8.5t4.5 8.5t6.5 5q117 34 180 -73q24 -41 33 -95t4 -107q-7 -72 -76 -163.5t-149 -148.5q-3 -2 -6 -5.5t-4.5 -6t-4.5 -5t-6 -4.5q-8 -3 -13.5 0 t-7.5 10q-1 52 5 122q15 117 15 122q0 4 2 18t2 23q1 11 -1 15.5t-6.5 4t-11.5 -0.5q-25 -3 -42 -7q-16 -2 -16 11zM54 68q0 -13 7 -16t18 5q70 57 124.5 133t60.5 135q10 89 -28 171.5t-111 82.5q-19 0 -21 -20q-4 -57 -19 -202q-2 -15 2 -18t17 -3l53 2q6 1 10 -3t4 -10 t-4.5 -10.5t-10.5 -4.5q-5 0 -13 -0.5t-20.5 -1t-22.5 -0.5q-8 0 -12.5 -1t-6.5 -3.5t-2.5 -3.5t-1 -6t-0.5 -7l-4 -41q0 -6 -2.5 -27.5t-4.5 -37.5q-5 -38 -12 -113z" />
<glyph unicode="&#xd1;" horiz-adv-x="311" d="M-25 30q1 7 3 23t6 46.5t8 56.5q11 76 17 123.5t12 101t8 89.5q3 74 -4 95q-3 8 2.5 14.5t13 6t11.5 -7.5l-3 7q2 -4 5 -8t5 -6l2 -2q16 -26 61 -117t67 -141q0 -1 1 -3l7.5 -12t7 -7t7 4.5t4.5 25.5q3 53 3 148q1 67 5 115q1 6 5.5 10t10.5 4t9.5 -4t2.5 -10 q-5 -51 -4 -112q-1 -93 -2 -124t-8 -99q-15 -137 -9 -232q0 -8 -6.5 -12.5t-14 -2.5t-8.5 11q-4 69 5 194q0 5 -1.5 10.5t-3.5 8.5l-2 3q-9 16 -81 165l-37 76q-20 36 -23 4q-7 -110 -36 -316q-15 -100 -18 -126q0 -14 -15 -14q-13 0 -13 14zM46 620q18 43 40 51.5t50 -7.5 q21 -13 40 -9.5t44 31.5q6 7 14 5.5t10 -8.5t-4 -15q-21 -25 -42.5 -34.5t-38 -8t-38.5 11.5q-19 11 -27.5 7.5t-19.5 -32.5q-6 -13 -19 -9q-11 3 -9 17z" />
<glyph unicode="&#xd2;" horiz-adv-x="293" d="M-6 287q8 112 36.5 202.5t70.5 123.5q14 12 23 14.5t31 2.5q69 0 88 -82q7 -31 5 -82q2 -86 -13.5 -201t-41.5 -184q-20 -49 -53 -83.5t-67 -17.5q-47 23 -67 107.5t-12 199.5zM23 288q-7 -108 10.5 -186t54.5 -96q17 -8 40.5 19t37.5 64q45 119 54 300l2 73l-2 43 q0 16 -5 34q-15 63 -63 63q-16 0 -21 -1.5t-15 -9.5q-33 -27 -59 -113t-34 -190zM125 727q-8 6 -7 13.5t8.5 12t14.5 0.5q8 -4 30 -21l28 -21q8 -4 6.5 -12.5t-8.5 -12t-15 0.5q-4 3 -28 19.5t-29 20.5z" />
<glyph unicode="&#xd3;" horiz-adv-x="293" d="M0 367q30 198 121 247q44 22 74.5 9.5t45.5 -53.5q3 -7 4.5 -12t3 -12t2 -10.5t1 -13t1 -13t1 -17.5t0.5 -20q-1 -92 -27 -249q-33 -175 -73 -209q-30 -26 -79 -3q-44 21 -66 81t-20.5 130.5t11.5 144.5zM28 365q-9 -70 -10.5 -136t17.5 -120t55 -72q12 -6 25.5 -7 t20.5 4q48 43 88 370q2 4 1.5 66.5t-10.5 86.5q-25 63 -83 33q-73 -42 -104 -225zM119 695q35 31 68 54q5 3 9.5 3.5t8 -2.5t5 -7t0 -8.5t-6.5 -7.5q-33 -22 -66 -52q-4 -4 -8.5 -4.5t-8 2t-5.5 6t-1 8t5 8.5z" />
<glyph unicode="&#xd4;" horiz-adv-x="325" d="M-5 291q2 11 5 41.5t7 52t10 40.5l9 32q5 16 29 65q13 26 45 59q21 20 48 31t54 10.5t48.5 -23.5t28.5 -67q9 -50 4 -94q-1 -69 -28.5 -218.5t-65.5 -188.5q-30 -32 -63.5 -35.5t-61.5 18.5q-48 37 -67 106q-17 69 -2 171zM23 289q-13 -96 3 -159q14 -62 57 -92 q43 -33 86 11q56 58 82 315q7 64 6 115.5t-19 83t-52 30.5q-35 -1 -66 -32q-30 -30 -40 -52q-3 -6 -8 -14.5t-7.5 -12.5t-5.5 -12.5t-5 -18.5l-10 -30q-11 -55 -11 -64q-1 -5 -5.5 -35t-4.5 -33zM101 665q42 66 55 75q9 7 20 7q5 0 9.5 -2t7.5 -3t8.5 -6t7 -6.5l8.5 -8.5 l9 -9l25 -24q6 -6 3.5 -14t-10 -10.5t-14.5 2.5l-25 24q-10 9 -24 23q-3 2 -7 0.5t-8 -3.5l-4 -3q-8 -9 -36 -56q-5 -8 -13.5 -7.5t-12 6.5t0.5 15z" />
<glyph unicode="&#xd5;" horiz-adv-x="346" d="M4 251q9 159 59 254q20 38 49.5 67.5t60.5 40.5q38 14 69.5 -1.5t50.5 -60.5q11 -26 12 -62v-21t-0.5 -26.5t-1 -26t-0.5 -21.5v-8q-12 -116 -27 -188q-29 -141 -79 -174q-27 -17 -78 -6q-65 15 -93 79.5t-22 153.5zM32 253q-5 -80 19 -137.5t77 -69.5q38 -9 56.5 2.5 t35.5 53.5q32 83 52 256l5 48q4 37 -2 96q-3 20 -9 35q-17 40 -43 51t-51 -4t-47 -39t-37 -52q-49 -96 -56 -240zM87 653q26 42 53 53t54 -1q26 -11 38.5 -9.5t25.5 20.5q6 8 14.5 6.5t11 -8t-2.5 -14.5q-23 -30 -46 -33t-53 11q-19 9 -35 2t-35 -39q-5 -8 -13.5 -8t-12 6 t0.5 14z" />
<glyph unicode="&#xd6;" horiz-adv-x="331" d="M-8 277q9 85 34.5 166t59.5 128q44 55 87 54t76 -49q43 -68 39 -183q0 -83 -31 -214q-42 -176 -111 -196q-37 -10 -81 20q-47 31 -64.5 104t-8.5 170zM21 277q-20 -196 62 -250q42 -23 64 -13.5t42 52.5q23 43 42 124.5t26 165.5q0 166 -33 203q-21 23 -38 32t-37 1 t-40 -37q-31 -41 -55.5 -118.5t-32.5 -159.5zM156 690q-9 0 -12 7t2 14t13 7q9 0 11.5 -7t-2 -14t-12.5 -7zM209 708q0 6 4.5 10t10.5 4q13 0 13 -14q0 -4 -2.5 -7t-6 -5t-7.5 -2q-6 0 -9.5 4t-2.5 10z" />
<glyph unicode="&#xd7;" horiz-adv-x="271" d="M27 230l61 70q12 15 2 29q-35 39 -46 48q-7 5 -4.5 13t9.5 11t15 -2q13 -11 44 -44q10 -12 12.5 -12t15.5 13l38 46q10 11 21 2.5t2 -20.5l-48 -54q-11 -14 -10 -17q45 -64 68 -87q9 -10 -1.5 -20.5t-20.5 -1.5q-30 30 -55 70q-5 8 -7 11t-5.5 3t-6.5 -3t-10 -11l-54 -62 q-6 -7 -13.5 -5.5t-9.5 8.5t3 15z" />
<glyph unicode="&#xd8;" horiz-adv-x="323" d="M2 87q-14 40 -14 109t14 145q32 179 93 245q58 64 119 12q25 -24 37 -43t20 -55l3 -25q9 -71 -12.5 -215t-52.5 -197q-52 -91 -120 -74q-58 17 -87 98zM18 220q-1 -19 0.5 -24t6.5 -1.5t18 18.5q5 6 16 17.5t17 17.5q46 46 83 92l39 48q3 3 9 10t11 12.5t10 12t8 11.5 t3 8q0 40 -2.5 54.5t-13.5 37.5q-12 26 -30.5 42t-36.5 15q-20 0 -41 -23q-56 -62 -84 -229q-7 -39 -13 -119zM23 128q9 -52 37 -84q31 -37 64 -28t60 59q43 75 66 291q1 14 -3 18.5t-10 1.5t-13 -11q-17 -18 -44 -52q-35 -44 -76 -85q-53 -53 -76 -84q-8 -12 -5 -26z" />
<glyph unicode="&#xd9;" horiz-adv-x="270" d="M12 121q-13 65 -0.5 242t35.5 232q7 15 20 10q5 -2 7.5 -7.5t-0.5 -10.5q-22 -50 -33.5 -223.5t0.5 -234.5q3 -16 17 -42t35 -45t42 0q8 8 15 29q8 23 15 60q12 57 25 167q1 12 7 83t11 131.5t7 80.5q0 14 15 14q13 0 13 -14q-2 -20 -7 -80.5t-11 -131t-7 -83.5 q-12 -106 -24 -170q-18 -83 -39 -106q-47 -44 -99 13q-34 41 -44 86zM113 695q-5 7 -1.5 14.5t10.5 9t13 -3.5q1 -1 10 -12t18.5 -22.5t12.5 -14.5q7 -6 4 -14t-10.5 -10.5t-13.5 2.5q-18 18 -23 26q-6 7 -10.5 13t-7 9z" />
<glyph unicode="&#xda;" horiz-adv-x="266" d="M0 111q-9 45 2 179t24 218q12 72 22 92q5 8 13.5 8t12 -6t-0.5 -14q-2 -3 -9 -28q-1 -6 -10 -54q-12 -84 -23 -215.5t-2 -171.5q8 -45 26 -72.5t42 -21.5t36.5 34.5t30.5 100.5q13 57 21 132q0 3 4 75q4 91 14 161q2 17 4.5 35t4 28.5t1.5 15.5q2 14 15 14q6 0 10 -4 t3 -10q-1 -16 -9 -79q-9 -64 -14 -159q-14 -208 -50 -299q-25 -63 -68.5 -74t-73.5 40q-17 31 -26 75zM117 665q26 32 85 76q8 6 15 2.5t7.5 -11t-6.5 -13.5q-59 -45 -79 -70q-6 -8 -14 -6.5t-10.5 8t2.5 14.5z" />
<glyph unicode="&#xdb;" horiz-adv-x="272" d="M21 118q-17 118 8 314q7 67 9 118q1 25 5 50q2 14 18 14q5 -1 8 -6t2 -10q-2 -14 -4 -45q-2 -40 -10 -122q-25 -192 -8 -305q8 -52 25 -82t41 -22q7 1 15 14q15 24 25 75q0 1 1.5 7l2.5 10q0 2 2 8q0 1 4 19q14 69 28 189q9 78 11 88q0 7 5 39q9 57 9 117q0 13 14 15.5 t14 -11.5q2 -29 -3 -79q-5 -46 -11 -81q-22 -187 -25 -204q-6 -35 -17 -89q-4 -17 -6 -31q-6 -26 -9.5 -38t-11 -30.5t-17.5 -29t-24 -16.5q-45 -14 -68.5 23.5t-32.5 100.5zM107 646q-6 1 -8.5 6t-1.5 12t3.5 15t6 15.5t6 12.5t3.5 6q27 32 64 -9l24 -32q5 -7 0.5 -14.5 t-11.5 -8.5t-13 5q-15 22 -23 30q-11 12 -16 14q-1 0 -3 -1q-7 -12 -14 -39q-1 -6 -6 -9.5t-11 -2.5z" />
<glyph unicode="&#xdc;" horiz-adv-x="264" d="M13 152q-20 180 30 443q2 14 16 14q14 -2 12 -16q-49 -250 -29 -435q16 -126 51 -129q12 0 19 10q10 9 22 34q14 32 24 79q5 27 9.5 51t8.5 50.5t6.5 45t5.5 47.5t4.5 43t4 47.5t3 45.5t3 52.5t3.5 52.5q0 14 15 16q4 0 7 -2t4.5 -5t1.5 -7q-8 -170 -22 -289 q-7 -59 -26 -152q-32 -153 -98 -147q-38 1 -59 67q-11 42 -16 84zM116 679q-9 0 -12 7t2 14t13 7q12 0 12 -14q-2 -14 -15 -14zM164 697q2 14 16 14q6 0 10 -4t2 -10q0 -14 -15 -14q-13 0 -13 14z" />
<glyph unicode="&#xdd;" horiz-adv-x="293" d="M4 -10q9 38 39 89l18 36q68 142 87 184q2 6 1.5 10.5t-1.5 8.5l-1 3q-29 48 -63 128q-35 84 -60 126q-5 8 0 15t12.5 7.5t12.5 -6.5q26 -43 63 -128q21 -53 40 -90q6 -11 10.5 -15t8.5 0.5t5 6.5t5 13q56 143 61 205q2 14 16 14t12 -14q-4 -44 -25 -110q-9 -29 -24 -67 l-26 -63q-6 -18 -29 -69q-26 -59 -56 -120l-22 -49q-3 -6 -18.5 -35t-24.5 -49t-13 -35q-2 -8 -10 -11t-14 1.5t-4 13.5zM172 626q-21 3 8 52q3 3 5 7q1 2 7 9.5t9 11.5l10 13q6 8 14 6.5t10.5 -8t-2.5 -14.5q-2 -3 -10.5 -13.5t-10.5 -13.5l-8 -12q-2 -3 -5 -8.5t-4 -7.5 t-2.5 -6t-3 -6.5t-3.5 -5t-5.5 -3.5t-8.5 -1z" />
<glyph unicode="&#xde;" horiz-adv-x="329" d="M18 18q0 79 19 281q15 178 12 278q0 14 14 16q6 1 10 -2.5t4 -9.5q3 -62 -2 -154q0 -21 20 -18q39 8 67 9t54.5 -5t42 -26t18.5 -54q2 -22 -1 -34t-16 -26q-28 -31 -93 -51q-5 -2 -45 -12t-49 -13q-5 -2 -10 0q-4 2 -6 -3t-3 -16q-6 -75 -8 -158q0 -15 -14 -15 q-6 -1 -10.5 3t-3.5 10zM60 240q-1 -13 -0.5 -15t6.5 0q13 4 37 10t41.5 11t37.5 11.5t34.5 15t23.5 18.5q7 8 8.5 14.5t0.5 21.5q-3 34 -23.5 49t-54.5 13.5t-80 -9.5q-20 -5 -20 -22q-2 -15 -5 -55t-6 -63z" />
<glyph unicode="&#xdf;" horiz-adv-x="364" d="M-14 -3q11 102 18 274q0 64 2 92q2 14 6 46q9 51 39.5 99t77 76.5t93.5 19.5q28 -5 48 -24.5t27 -46.5q16 -55 -12 -109q-25 -43 -59 -69q-18 -13 -1 -23q32 -18 53 -56t21 -94q1 -76 -44.5 -120t-137.5 -65q-6 -1 -11 2t-5 9q0 15 13 17q81 18 118.5 54.5t37.5 99.5 q0 47 -18.5 81.5t-52.5 51.5q-11 4 -24 1q-38 -13 -52 5q-5 6 -1 14.5t11 10.5l13 4q16 4 30 9q24 12 48.5 34.5t35.5 45.5q24 41 10 86.5t-57 53.5q-56 9 -108 -45t-65 -124l-5 -43q0 -2 -0.5 -17t-0.5 -28q-9 -212 -20 -322q-2 -14 -16 -14t-12 14z" />
<glyph unicode="&#xe0;" horiz-adv-x="290" d="M-27 8q6 37 22 150q28 219 60 330q15 49 46 93q16 21 31.5 30.5t31.5 3.5t27 -31q10 -25 12.5 -55t-1 -67.5t-13.5 -132.5q-2 -12 -2.5 -19t-2 -19t-2.5 -22q-14 -108 -10 -173t30 -82q7 -5 5 -13.5t-9 -11.5t-15 1q-34 23 -39.5 95t10.5 184l3 23q0 7 -1.5 12t-3.5 7 l-2 2q-48 0 -83 5q-21 2 -24 -18q-4 -24 -18 -135q-19 -134 -24 -159q-2 -15 -17 -13q-6 0 -9.5 4.5t-1.5 10.5zM53 349h1q32 -8 106 -9q4 0 5 22q17 161 -2 208q-5 14 -10.5 17t-11.5 -2t-17 -19q-28 -38 -42 -84q-15 -52 -27 -112q-2 -12 -2.5 -15.5t0.5 -5.5zM126 713 q-7 11 6 19.5t20 -3.5q14 -23 43 -43q8 -4 6.5 -12.5t-8 -12t-14.5 0.5q-34 21 -53 51z" />
<glyph unicode="&#xe1;" d="M-24 3q-7 41 6 108q6 37 9 44q1 7 3 28t6.5 62t9.5 83q11 106 27 176q12 49 46 86q49 51 95 7q28 -31 33 -102.5t-9 -180.5q-21 -206 -19 -248q2 -28 10 -52q3 -9 -3 -15t-14 -5.5t-11 8.5q-9 29 -10 68t2.5 82.5t14.5 153.5q0 13 -20 10q-50 -6 -94 -1q-20 2 -23 -19 q-11 -117 -24 -188q-13 -65 -7 -97q1 -8 -5 -13.5t-13.5 -4t-9.5 9.5zM43 366q-1 -9 1 -13.5t4.5 -6t9.5 -2.5q44 -3 93 1q12 1 18 4t7.5 7t2.5 11q14 171 -23 208q-25 26 -53 -4q-29 -31 -38 -71q-17 -77 -22 -134zM106 691q10 9 26 20l31 23q15 10 27 21q12 9 20 -1.5 t-3 -20.5q-7 -7 -27 -21q-34 -25 -58 -43q-13 -9 -20.5 2t4.5 20z" />
<glyph unicode="&#xe2;" horiz-adv-x="271" d="M-25 10q0 52 10 99q12 63 20 124q14 105 27 165q27 124 59 174q18 31 41 37.5t49 -17.5q23 -23 24 -89t-13 -177q-14 -143 -15 -197t12 -104q3 -8 -2.5 -14.5t-13.5 -6t-11 8.5q-11 28 -13.5 70.5t0.5 88t11 122.5q3 20 -18 20q-43 0 -77 1q-19 0 -24 -20 q-14 -102 -20 -142q-1 -5 -8.5 -45.5t-7.5 -47.5q-2 -20 -1 -44q0 -15 -13 -17q-16 -2 -16 11zM53 364q-3 -21 18 -21q72 0 87 1q7 0 9 20q19 180 -8 208q-13 12 -22.5 9t-21.5 -22q-33 -54 -62 -195zM94 697q17 26 30.5 38t29 11t33.5 -17l25 -29q7 -11 -4.5 -20.5 t-19.5 0.5q-2 2 -4 4.5l-4 5t-4 4.5q-1 1 -3 4.5t-3.5 6t-5 6t-6 4.5t-7 2t-9.5 -2q-10 -8 -23 -30q-5 -8 -13 -8t-12 6t0 14z" />
<glyph unicode="&#xe3;" horiz-adv-x="275" d="M-37 14q12 59 33 227q17 138 38 229q33 151 107 146q74 -4 67 -155q-1 -43 -11 -145q-20 -196 -5 -309q0 -15 -12 -17q-17 -2 -17 11q-13 96 -3 212q1 16 8 95q2 21 -18 21q-72 -2 -103 -15q-8 -3 -12.5 -11.5t-6 -16.5t-2.5 -23t-2 -23q-22 -170 -34 -228q0 -6 -5 -10 t-11 -3q-6 0 -9.5 4.5t-1.5 10.5zM41 364q-3 -17 2.5 -19t17.5 2q29 7 77 10q11 0 15.5 0.5t10.5 2.5t8 6.5t2 11.5q1 13 2.5 47t2 47t-0.5 33t-5 35q-11 46 -37 47.5t-49 -42.5q-18 -39 -46 -181zM52 663q39 74 96 35q14 -10 18 -11.5t9.5 3.5t13.5 23q7 13 19.5 8.5 t7.5 -18.5q-19 -40 -40.5 -45t-45.5 15q-16 14 -27 10t-26 -32q-5 -8 -13.5 -8t-12 6t0.5 14z" />
<glyph unicode="&#xe4;" horiz-adv-x="270" d="M-42 19q16 38 24 101q3 34 6 49q2 16 6.5 49.5t7.5 56t7.5 54.5t9 56t9.5 49t10 43q8 32 25 63.5t44 52.5t54 11q40 -15 40 -114t-5 -136q-1 -10 -15 -122q-18 -145 7 -196q4 -8 -1 -15t-12.5 -6.5t-11.5 7.5q-28 52 -10 211q2 18 4 28q4 44 5 47q0 13 -19 13 q-66 -1 -105 -6q-1 -5 -2 -8.5t-3 -12.5q-16 -124 -17 -127t-3 -24t-5.5 -44.5t-6.5 -38.5q-7 -30 -16 -49q-6 -15 -20 -9t-7 17zM44 366q-1 -10 0.5 -14.5t5.5 -5.5t12 0q7 1 77 3q11 0 16 0.5t9 5t5 14.5q2 17 3 29.5t1 23v18t-0.5 21t-0.5 26.5q0 81 -24 89 q-21 8 -46 -27t-36 -76q-14 -55 -22 -107zM122 679q-9 0 -12 7t2 14t13 7q12 0 12 -14q-2 -14 -15 -14zM183 685q-9 0 -11.5 7t2 14t12.5 7q13 0 13 -14q0 -4 -2.5 -7t-6 -5t-7.5 -2z" />
<glyph unicode="&#xe5;" horiz-adv-x="300" d="M-36 2q7 46 14 81q12 55 28.5 155.5t24.5 146.5q8 48 12.5 71t19.5 61.5t37 64.5q25 29 51 32.5t52 -24.5q15 -18 22 -40t5.5 -61t-6 -73.5t-15.5 -104.5q-2 -11 -7 -43.5t-6.5 -41t-4 -31.5t-3 -34t0 -28t2.5 -32q6 -49 25 -76q5 -7 0.5 -14.5t-11.5 -8.5t-13 5 q-22 32 -29.5 86.5t0.5 107.5q1 8 8 52t10 69q-1 -1 -5 -1q-29 0 -65.5 -0.5t-43.5 -0.5q-19 -1 -22 -20q-4 -22 -9 -59q-14 -86 -29 -161q-8 -33 -15 -78q0 -14 -15 -14q-13 0 -13 14zM57 369q-2 -15 1.5 -18t15.5 -2h105q6 0 7.5 2.5t2.5 18.5q14 70 13.5 123t-21.5 77 q-27 31 -59 -5q-26 -31 -40 -76.5t-25 -119.5zM138 709v2q0 3 2 11q11 48 50 54q20 2 35 -11t16 -36q2 -27 -16.5 -45.5t-42.5 -19.5q-8 0 -15.5 2t-13.5 6t-10 11t-4 15q-2 8 -1 11zM167 710q0 -18 16 -18q6 0 11.5 3t9.5 7t6 10t2 13q-1 20 -17 21.5t-23 -15.5 q-5 -16 -5 -20v-1z" />
<glyph unicode="&#xe6;" horiz-adv-x="421" d="M-17 256q4 5 9 13t6.5 10t5.5 6.5t5 6t6 6t8.5 8t12.5 10.5q34 28 78 28q36 0 53 -23q10 -13 24 -2q23 18 54.5 29t63.5 8.5t48 -24.5q11 -20 10.5 -46t-17 -52.5t-39 -48t-54 -32t-63.5 -3.5q-22 5 -25 -17q-6 -32 -8 -51t-1 -36.5t7 -26.5q8 -14 41.5 -11.5t55.5 20.5 q22 19 41 54q7 15 20 8q12 -6 5 -18q-23 -44 -52 -67t-73 -26q-45 -4 -64 22q-2 6 -12 0q-6 -3 -9 -5q-27 -15 -55 -17t-48.5 12t-23.5 41q-6 39 17 87t59 73q45 31 80 5q1 0 1 -1q9 60 0.5 90t-39.5 30q-39 0 -76 -37q-3 -3 -12.5 -17.5t-18.5 -22t-17 -3.5q-12 8 -4 20z M37 109q-21 -40 -16.5 -69t33.5 -32q40 -3 74 28q1 1 2 1q1 6 1 17q0 9 2 33q3 23 13 80q-3 1 -6.5 2.5t-6 2.5l-2.5 1h-1q-19 14 -46.5 -5t-46.5 -59zM178 193q0 -9 15 -13q42 -11 79 10t56 60q10 21 11 38t-8 27.5t-27.5 12.5t-48.5 -7q-50 -14 -66 -45q-6 -8 -6 -21 q0 -32 -5 -62z" />
<glyph unicode="&#xe7;" d="M-18 187q-9 103 19 230q8 34 34 84t56 84q27 31 53 41.5t49.5 -4t38.5 -55.5q9 -26 10.5 -39t-2.5 -39q-1 -6 -6.5 -10t-10.5 -3q-6 0 -9.5 5t-1.5 10q5 25 -7 64q-18 47 -43 47q-20 0 -49 -32.5t-53 -80.5q-35 -68 -48 -184q-14 -131 20 -213q8 -20 30 -43t43 -28h4 q12 0 17 3q4 3 12 11q16 21 41 93q3 13 19 11q12 -2 8 -17q-30 -83 -47 -103q-13 -18 -30 -24q-18 -6 -24 -16l-9 -13q-5 -16 13 -20q22 -6 32 -15q19 -14 11 -40t-42 -35q-10 -3 -45 -5q-7 -1 -11 3t-3 10q0 15 14 15q45 3 54 10q3 3 3.5 8t-0.5 9l-1 3q-10 8 -47 14l-10 2 l-1 1h-2q-7 0 -10 9q0 9 3 16.5t9 15.5t9 13q2 3 3 5.5t1 5t-0.5 5t-1.5 4t-3 3.5t-3 3.5t-4 3.5t-4 3t-4 2.5t-4 2.5q-35 30 -50 67.5t-20 101.5z" />
<glyph unicode="&#xe8;" horiz-adv-x="267" d="M-4 42l4 42q2 12 6.5 40.5t4.5 30.5q5 65 6 160q3 119 8 162q0 56 12 104q6 24 17 30t37 6q82 0 138 -9q9 -1 10.5 -8.5t-4 -14t-13.5 -5.5q-50 8 -133 8q-8 0 -13 -1q-3 0 -5.5 -3t-3.5 -5l-1 -3q-7 -23 -10 -74q-3 -24 -3 -25q-2 -17 -6 -104q0 -11 4.5 -15t14.5 -4h43 q15 0 12.5 -14t-15.5 -14h-39h-3q-7 0 -10 -0.5t-5 -2.5t-2 -6q-1 -77 -8 -162q-5 -14 -10 -72l-4 -40q-1 -6 -1 -14v-1q1 0 1 -1q2 -1 8 -1q4 -1 7 -1q22 -2 47 -2q8 0 43.5 1t41.5 1t9.5 -4t2.5 -10q0 -6 -4.5 -10t-10.5 -4q-7 0 -42 -1.5t-43 -1.5h-11.5h-12h-11.5 t-11.5 0.5t-10 1.5t-9.5 2t-7.5 3t-7.5 4.5t-5 5.5q-4 9 -2 31zM90 724q-10 9 0 20.5t21 3.5q1 -1 18 -16l19 -16q12 -10 39 -23q8 -4 8.5 -11.5t-6.5 -13t-15 -1.5q-27 11 -44 26q-7 5 -20 17q-14 11 -20 14z" />
<glyph unicode="&#xe9;" horiz-adv-x="270" d="M-18 12q-5 12 1.5 45t6.5 40q12 78 20 180q12 156 15 181q2 6 2 29q2 27 4 40q1 23 5 41q3 22 10 31q7 8 41 14q54 2 110 2q33 -1 39 0q14 0 14 -14q0 -5 -5 -10t-10 -5q-6 -1 -40 0h-55q-27 0 -53 -2q-1 0 -5 -0.5t-5 -0.5l-9 -2q-3 -6 -3 -15q-4 -16 -5 -38 q-6 -67 -7 -70q0 -1 -2.5 -35t-4.5 -56q-1 -14 3 -17.5t14 -3.5q4 0 11 0.5t11.5 0.5t9.5 -1t7.5 -4t2.5 -8q-2 -15 -15 -15q-9 -1 -27 -1q-8 0 -11.5 -1t-6.5 -5.5t-4 -13.5q-1 -12 -3 -21q-7 -107 -20 -182q0 -1 -1.5 -8t-3 -16.5t-2.5 -14.5q-1 -3 -1 -10.5v-13.5v-7 l1 -1q2 0 6 -1.5t6 -1.5q15 -3 41 -3q12 0 40 2t39 2q6 1 10 -3t4 -10q0 -16 -28 -16q-36 -4 -68 -4q-71 0 -79 23zM109 694q4 1 16 10l15 12q6 3 15 9q15 9 36 18q9 4 15 -1.5t4.5 -13.5t-9.5 -11q-17 -7 -32 -16q-39 -26 -44 -31q-13 -8 -20.5 3.5t4.5 20.5z" />
<glyph unicode="&#xea;" horiz-adv-x="264" d="M-13 30l1 15q2 23 9 70q2 18 4 26q7 49 22 204q2 18 4.5 50.5t4.5 48.5v7v29q-2 38 1 70q3 30 12 40t35 16q41 6 151 1q14 0 11.5 -15t-16.5 -13q-88 2 -92 2q-37 -2 -52 -4q-2 0 -4 -0.5t-4 -0.5q-9 -1 -11 -20l-0.5 -2t-0.5 -3q-3 -29 -1 -69q0 -41 -6 -116 q-1 -6 -1.5 -11t-0.5 -7t1 -2h77q9 0 11.5 -7t-2 -14t-12.5 -7h-58q-20 0 -22 -20q-9 -63 -17 -143l-2 -15q-1 -19 -8 -54l-4 -40v-13q4 -2 15 -4q12 -3 45 -5q34 -2 82 -2q9 0 11.5 -7t-2 -14t-12.5 -7q-94 0 -132 6q-14 3 -20.5 5t-11.5 8.5t-5 16.5zM63 672l41 49 q17 21 31 21q13 0 25 -21q16 -32 25 -43q5 -8 0.5 -15.5t-12 -8t-13.5 5.5q-14 25 -15 26q-2 5 -7 9.5t-9 6.5l-4 2l-42 -50q-6 -7 -14 -5.5t-10 8.5t4 15z" />
<glyph unicode="&#xeb;" horiz-adv-x="264" d="M-15 21q1 4 1 11.5t1 12.5q0 1 1 5t1 6l7 69q2 7 4 24t3 24t4.5 30.5t3.5 34.5q0 2 1 10.5t2 27t3 37.5q10 158 23 227q6 32 8 40q8 22 17 27q21 8 87 4t82 -11q8 -3 8.5 -11t-6 -13.5t-15.5 -3.5q-8 4 -33.5 6.5t-50.5 4t-38 0.5h-7q-15 1 -15 -5q0 -1 -1.5 -6t-3.5 -10 q0 -5 -4 -23q-4 -21 -7 -49.5t-6 -64t-5 -54.5q-1 -13 3.5 -17t15.5 -2q2 0 9 1.5t13.5 2.5t13 1t10.5 -3t4 -9q2 -14 -13 -16q-9 -1 -22.5 -3t-18.5 -3q-7 -1 -11 -2t-6.5 -6t-3.5 -14q-2 -16 -3 -31.5t-1.5 -23t-0.5 -8.5l-2 -21q-2 -18 -6 -44q-2 -16 -7 -58t-7 -59v-3 q-1 -6 2.5 -11t6.5 -8l4 -2q70 -3 130 3q14 2 16 -12q-2 -16 -15 -16q-60 -7 -136 -4q-28 2 -36 12l-2 7q-1 1 -1 4zM100 679q-9 0 -12 7t2 14t13 7q12 0 12 -14q-2 -14 -15 -14zM167 697q2 14 16 14q6 0 10 -4t2 -10q0 -14 -15 -14q-13 0 -13 14z" />
<glyph unicode="&#xec;" horiz-adv-x="259" d="M-33 13q0 6 4.5 10t10.5 4q30 0 47 1q6 0 11 1.5t7 3.5t3 4t1 3v1q4 43 20 163q20 182 23 225q1 26 5.5 56t9 51.5t4.5 23.5t1 6q1 7 -1 8t-14 1h-4q-34 0 -61 -3q-6 -1 -10 3t-3 10q0 15 14 15q36 4 97 4q34 -2 93 -2q9 0 12 -7t-1.5 -14t-12.5 -7q-28 0 -78 1l-4 -18 q-16 -67 -18 -126q-1 -14 -2 -26.5t-2 -24t-1 -14.5q-2 -13 -8.5 -67t-10.5 -95q-16 -120 -20 -163q-2 -7 0 -8.5t20 -1.5l36 2q6 1 10 -3t4 -10q-2 -15 -15 -15q-123 -6 -155 -6q-14 0 -12 14zM95 691q-7 5 -4.5 13t9.5 11t15 -2l14 -12q5 -3 5 -4t3 -2t4 -2l17 -9 q7 -5 6.5 -12.5t-8 -12.5t-15.5 -1l-16 10l-4 2l-12 9z" />
<glyph unicode="&#xed;" horiz-adv-x="212" d="M-46 8q2 12 18 13t29 -2q22 0 22 21q9 117 15 172q1 5 20.5 163t23.5 204q2 19 -19 20h-24q-14 0 -12 14q0 14 15 14h70q34 -2 66 3q15 2 15 -12q0 -6 -3.5 -10.5t-11.5 -6t-14 -2t-17.5 -1t-14.5 -0.5q-20 0 -22 -20q-4 -39 -20 -173q-28 -243 -38 -365q0 -11 4.5 -16 t14.5 -4q19 1 45 5q13 2 15 -12q0 -14 -14 -16q-76 -11 -152 -4q-6 0 -9.5 4.5t-1.5 10.5zM104 707l43 37q13 9 21 -1.5t-3 -20.5l-44 -37q-12 -9 -20 1.5t3 20.5z" />
<glyph unicode="&#xee;" horiz-adv-x="273" d="M-9 11q-14 0 -11 15t16 13h50q7 -1 12.5 2t7.5 6l2 3q1 7 3.5 30.5t8.5 69t11 91.5q17 154 19 191q0 52 6 101q0 3 1.5 12t2 13.5t-0.5 10.5t-5 8.5t-11 2.5q-41 0 -58 -1q-4 0 -7 1.5t-5 4.5t-2 7q0 6 4.5 10.5t10.5 4.5q14 1 191 1q13 0 13 -14q0 -4 -2.5 -7t-6 -5 t-7.5 -2h-62q-27 0 -27 -44q-2 -13 -4 -54t-3 -50q-2 -37 -19 -191q-5 -46 -11 -91.5t-8.5 -69t-3.5 -30.5q0 -3 -2 -7q-2 -3 4 -4.5t18 -0.5h62q6 1 10.5 -2.5t4.5 -9.5q-2 -15 -16 -15q-97 -5 -186 0zM75 675l49 49q21 20 36 14q2 -1 12 -11l9 -13q17 -22 40 -39 q7 -6 5 -14t-9 -11t-14 1q-24 19 -46 44l-9 13l-2 -1.5t-3 -2.5l-50 -49q-6 -6 -13.5 -4t-9 9t4.5 15z" />
<glyph unicode="&#xef;" horiz-adv-x="254" d="M-21 10q-9 0 -11.5 7t2 14t12.5 7h55q7 0 12.5 2t8.5 4l2 2q0 48 9 119q0 2 0.5 8.5t1 12.5t2 15.5t2.5 18.5q6 38 11.5 97.5t12 135.5t9.5 107q2 20 -18 20h-52q-14 0 -12 14q0 14 15 14q111 0 178 3q15 2 15 -13q-2 -15 -16 -15q-38 -2 -60 -2q-20 -2 -22 -20 q-7 -69 -25 -279q-20 -153 -23 -234v-5q5 -3 20 -4q12 3 28 2t16 -13q-2 -15 -15 -15q-36 -3 -158 -3zM71 671q-9 0 -12 7t2 14t13 7q9 0 11.5 -7t-2 -14t-12.5 -7zM170 679q-9 0 -12 7t2 14t13 7q12 0 12 -14q-2 -14 -15 -14z" />
<glyph unicode="&#xf0;" horiz-adv-x="305" d="M6 133q-1 -73 37 -119.5t90 -28.5q65 19 75 167q5 56 0 116q0 5 -1 8t-1.5 5t-3.5 3l-4.5 1.5t-7 1t-8.5 0.5q-85 9 -131 -34.5t-45 -119.5zM20 -5q-28 36 -38.5 87t1.5 102.5t46 84.5q63 62 172 44v23q0 1 -7 24q-17 62 -61 130q-11 18 -28 1q-14 -16 -28 -34 q-5 -8 -13 -7t-11 7.5t2 15.5q10 14 34 40q15 15 2 29q-29 28 -58 34q-13 2 -9 17q1 6 6.5 9t11.5 2q38 -8 73 -44q14 -12 28 -1q20 14 32 22q8 5 15 1t7 -11.5t-8 -13.5q-11 -7 -27 -18q-17 -12 -6 -29l2 -2q40 -62 56.5 -114t22.5 -120q11 -154 -25 -241 q-13 -30 -35.5 -51t-49 -28.5t-55.5 2.5t-52 39z" />
<glyph unicode="&#xf1;" horiz-adv-x="259" d="M-26 2q4 37 23 200.5t23 202.5l14 133q0 3 0.5 14t1 21.5t2 20t2.5 11.5l3 6q8 6 17.5 2.5t6.5 -13.5v-11l-1 -8q1 -36 4 -52l69 -372q3 -26 5 -39l7 -34q7 96 10 122q0 3 0.5 10t1.5 20.5t2 25.5l4 60q3 65 10 114q7 70 17 115q4 27 12 55q2 8 9.5 11t13.5 -1.5t4 -13.5 q-16 -73 -20 -113q-4 -23 -7.5 -45t-5.5 -46.5t-3 -42t-3 -47t-3 -45.5q-1 -28 -3.5 -59t-5.5 -63.5t-5 -54.5q0 -2 1 -3q0 -3 -1 -5q0 -5 1 -8q0 -80 -34 -73q-7 2 -10 7q0 1 -3 7q0 1 -2 13l-8 40q-12 66 -13 87q-2 27 -44 236q-7 47 -11 47t-7 -29q-4 -39 -23 -202.5 t-23 -200.5q0 -14 -15 -14q-13 0 -13 14zM35 667q29 34 53.5 37.5t50.5 -13.5q17 -10 31 -7q24 5 56 41q4 4 9 5t8.5 -1t6 -5t2 -8t-4.5 -9q-20 -22 -37 -34.5t-32.5 -16t-28 -1.5t-27.5 10q-19 14 -32 11.5t-33 -27.5q-10 -11 -20.5 -2.5t-1.5 20.5z" />
<glyph unicode="&#xf2;" horiz-adv-x="275" d="M-13 304q5 113 35 188q15 39 41.5 71t56.5 44q36 15 65 -2t44 -67q3 -8 3 -64q0 -55 -3 -108q-15 -176 -34 -246q-18 -64 -47 -97q-30 -35 -81 -14q-60 25 -73.5 91t-6.5 204zM16 150q7 -46 23 -75t43 -40q16 -7 26 -6t20 12q40 46 59 196l8 74q7 59 7 148q0 4 2 32 q0 28 -2 37q-15 51 -47 56.5t-71 -40.5q-23 -28 -35 -60q-25 -66 -32 -171.5t-1 -162.5zM125 716q-4 4 -4 8.5t2.5 8.5t6 6.5t8.5 2t8 -3.5q34 -33 53 -42q7 -5 6.5 -12.5t-7.5 -12.5t-15 -1q-27 16 -58 46z" />
<glyph unicode="&#xf3;" horiz-adv-x="301" d="M-15 282q3 86 38 183.5t87 131.5q22 14 52 14q63 0 86 -53t14 -134v-2l-1 -1q-13 -123 -45 -248.5t-77 -157.5q-32 -23 -58.5 -15.5t-44 33t-29.5 67.5q-28 102 -22 182zM13 284q-3 -88 22 -173q31 -113 88 -72q37 23 69 151.5t41 230.5l1 1v2q7 70 -11 114.5t-64 44.5 q-20 0 -36 -10q-42 -28 -74 -118t-36 -171zM136 689q7 4 41.5 26t40.5 26q8 5 15 1t7 -11.5t-8 -13.5q-7 -4 -41 -25.5t-44 -26.5q-13 -8 -18.5 4.5t7.5 19.5z" />
<glyph unicode="&#xf4;" horiz-adv-x="285" d="M-21 96q-11 81 13 238.5t61 218.5q19 31 45 45t52 9q24 -4 44.5 -22.5t31.5 -46.5q3 -8 5.5 -33t4 -47.5t1.5 -23.5v-5q5 -131 -25 -261q-35 -145 -102 -170q-47 -19 -84.5 14t-46.5 84zM8 104q4 -27 19 -49t36 -30q27 -11 52 8t41 53t27 80q28 112 26 242l-0.5 18.5 t-1 41.5t-1.5 32q-4 18 -8 26q-18 48 -55 53t-65 -40q-34 -56 -58 -208.5t-12 -226.5zM72 663q-10 10 0 20q22 25 31 34q16 18 28.5 20.5t28.5 -9.5l5 -5l6.5 -6.5t9.5 -9t11 -10.5q6 -6 3 -14t-10.5 -10.5t-14.5 2.5q-23 24 -30 30q-7 7 -20 -9q-3 -3 -9 -10.5t-9.5 -12 t-9.5 -9.5t-10 -4.5t-10 3.5z" />
<glyph unicode="&#xf5;" horiz-adv-x="319" d="M10 389q30 146 89 196q45 34 80 25.5t59 -51.5q26 -41 36 -117q7 -37 -6.5 -132.5t-38.5 -171.5q-31 -98 -73 -129q-55 -41 -110 42q-42 66 -51 135.5t15 202.5zM25 187q11 -67 46 -118q22 -35 42 -42q13 -6 28 5q36 26 68 136.5t37 213.5q1 22 -8.5 78.5t-24.5 82.5 q-39 70 -97 20q-47 -39 -75.5 -166.5t-15.5 -209.5zM58 646q10 20 21 32.5t21 17.5t21.5 4.5t22.5 -4.5t24 -12q18 -11 25 -9q12 4 27 50q2 8 10 10.5t14 -2t4 -14.5q-13 -39 -28 -56t-31 -17t-38 13q-22 16 -36 12.5t-32 -37.5q-4 -8 -12.5 -8.5t-13 5.5t0.5 15z" />
<glyph unicode="&#xf6;" horiz-adv-x="327" d="M-7 294q14 105 49 190t82 116q45 28 81.5 18t58.5 -51q26 -49 23 -102l1 -19q0 -46 -13 -128t-34 -150q-31 -97 -66 -137q-50 -60 -111 -31q-49 24 -66.5 105t-4.5 189zM22 294q-13 -100 2.5 -174t54.5 -94q40 -19 74 22q31 36 57.5 118t40.5 187q8 51 8 64v29 q2 63 -20 105q-40 66 -101 25q-39 -26 -71.5 -106t-44.5 -176zM139 690q-9 0 -12 7t2 14t13 7q9 0 11.5 -7t-2 -14t-12.5 -7zM219 708q0 6 4.5 10t10.5 4q13 0 13 -14q0 -4 -2.5 -7t-6 -5t-7.5 -2q-6 0 -9.5 4t-2.5 10z" />
<glyph unicode="&#xf7;" horiz-adv-x="350" d="M13 299q-9 0 -12 7t2 14t13 7q25 0 135.5 4t135.5 4q9 0 12 -7t-2 -14t-13 -7q-25 0 -135.5 -4t-135.5 -4zM121 432q0 6 4.5 10t10.5 4q13 0 13 -14q-1 -6 -5.5 -10t-10.5 -4t-9.5 4t-2.5 10zM123 215q-9 0 -12 7t2 14t13 7q9 0 11.5 -7t-2 -14t-12.5 -7z" />
<glyph unicode="&#xf8;" horiz-adv-x="296" d="M-5 340q15 85 40.5 148.5t64.5 98.5t84 23q62 -17 71 -90q0 -8 1 -12v-74q-2 -23 -7 -52q-2 -22 -2 -25q-1 -11 -3 -39q-9 -88 -20 -142q-27 -116 -94 -165q-40 -31 -76 -16q-50 20 -65.5 123.5t6.5 221.5zM13 214q0 -14 3.5 -17.5t8 0.5t10.5 14q33 56 67 99 q21 30 55 83q35 57 60 85q1 1 4 3.5l3 2.5l2 3.5t0.5 7t-0.5 11.5v8q-3 28 -18 46.5t-35 23t-45 -10.5t-45 -49q-32 -57 -51 -144t-19 -166zM15 126q13 -88 51 -105q21 -7 49 12q56 43 80 147q4 17 7.5 34.5t6 37t3.5 32t3.5 37.5t3.5 36l8 74v8l-5 -3q-12 -12 -22 -26 q-3 -5 -10 -16t-9 -14q-37 -60 -57 -86q-56 -72 -89 -137q-2 -2 -7.5 -10t-9 -13.5t-3.5 -7.5z" />
<glyph unicode="&#xf9;" horiz-adv-x="260" d="M6 139q1 22 2 62q8 205 15 279t29 126q7 15 20 10q14 -6 7 -18q-25 -57 -35 -222l-10 -235q-2 -52 11.5 -84.5t45.5 -31.5q20 1 29.5 23t24.5 91q29 140 52 352q11 78 13 102q-1 5 3.5 10t10.5 6q6 0 10.5 -4t3.5 -10q-3 -36 -5 -53q-8 -45 -8 -51q-23 -215 -52 -354 q-11 -53 -17 -76t-22.5 -43t-43.5 -21q-34 -2 -54.5 20t-26 52t-3.5 70zM111 695q-7 5 -7 12t7 12.5t15 1.5q31 -15 62 -31q7 -5 7 -12t-7 -12.5t-15 -1.5l-30 16q-24 12 -32 15z" />
<glyph unicode="&#xfa;" horiz-adv-x="259" d="M7 153q3 44 20 224t19 216q-1 6 3.5 10.5t10.5 5.5q6 0 10.5 -4t3.5 -10q-2 -29 -19 -211.5t-19 -228.5q-4 -72 2.5 -103.5t33.5 -37.5q38 -7 57 32q12 22 23 85q47 295 49 454q-1 5 3.5 10t10.5 6q6 0 10.5 -4t3.5 -10q0 -151 -49 -458q-11 -65 -25 -93q-32 -63 -92 -50 q-43 9 -52 46.5t-4 120.5zM112 664q31 28 66 55q8 6 15 2.5t7 -11t-7 -13.5q-27 -20 -63 -53q-7 -6 -14 -3.5t-8.5 9.5t4.5 14z" />
<glyph unicode="&#xfb;" horiz-adv-x="241" d="M4 103q-2 94 22 299q17 162 17 184q0 15 14 17q6 0 10.5 -3.5t3.5 -9.5q1 -36 -17 -189q-23 -197 -21 -294q1 -30 7 -59q6 -31 28.5 -40t39.5 13q24 29 30 76q28 216 42 485q0 14 15 16q14 0 14 -14q-15 -269 -43 -487q-8 -59 -36 -93q-42 -53 -97 -7q-24 19 -29 106z M68 673q29 37 31 39q34 37 63 12q13 -10 32 -38q5 -7 1 -14.5t-11.5 -8.5t-13.5 5q-19 25 -27 32q-13 6 -23 -5q-1 -2 -4.5 -6t-3.5 -5l-10 -13l-12 -14q-6 -8 -14 -6.5t-10.5 8t2.5 14.5z" />
<glyph unicode="&#xfc;" horiz-adv-x="250" d="M3 129q-11 92 13 234q33 187 38 231q0 14 15 14q13 0 13 -14q-5 -47 -38 -232q-22 -137 -13 -227q5 -42 20.5 -77t34.5 -36q8 0 14 9q7 8 15 31q7 24 30 162l17 98q24 134 38 269q2 14 16 14t12 -14q-9 -85 -24 -187l-13 -84q0 -3 -6 -37t-10 -61q-25 -147 -33 -166 q-9 -29 -23.5 -46t-35.5 -16q-34 1 -54 42.5t-26 92.5zM122 668q-9 0 -11.5 7t2 14t12.5 7q13 0 13 -14q-1 -6 -5.5 -10t-10.5 -4zM180 671q-9 0 -12 7t2 14t13 7q9 0 11.5 -7t-2 -14t-12.5 -7z" />
<glyph unicode="&#xfd;" horiz-adv-x="301" d="M20 595q-3 8 2.5 15t13 7t11.5 -8q9 -19 34 -82q35 -97 66 -146q15 -21 20 -16q16 35 41 122q25 81 47 125q7 16 21 8q8 -7 3 -18q-16 -33 -42 -121q-9 -29 -15.5 -50t-11.5 -34.5t-11.5 -29t-10.5 -25t-14.5 -31.5t-18.5 -40q-51 -112 -75 -181q-19 -51 -30 -95 q-2 -8 -10 -11t-14 1.5t-4 13.5q5 23 12 43l12 38q1 4 6.5 19t9.5 26l15 39q20 50 56 125l10 23q6 14 -3 27q-39 49 -86 172q-27 68 -34 84zM133 671l48 44q13 9 21 -1.5t-3 -20.5q-30 -24 -48 -42q-4 -4 -9 -4.5t-8 2t-5 6t-1 8t5 8.5z" />
<glyph unicode="&#xfe;" horiz-adv-x="342" d="M-11 -103q5 41 12 174q6 108 11 156t18 129q1 9 4 24q15 102 18 190q0 6 4 11t10 6q15 0 15 -13q0 -42 -14 -161q-5 -38 0 -39q3 0 13 12q26 30 56 41t57.5 1.5t49 -46t29.5 -95.5q21 -157 -33 -228q-26 -35 -63 -48t-71 -2t-56 43q-4 5 -9 15q-9 13 -10 8v-2 q-5 -46 -8.5 -105t-4.5 -71q0 -14 -15 -14q-13 0 -13 14zM45 247q-6 -47 -4 -80.5t14 -62.5q19 -46 50.5 -62.5t60.5 -6t52 42.5t28 76q4 28 2 64t-6.5 68t-14.5 59.5t-23 39.5q-49 40 -98 -11q-20 -23 -36.5 -55.5t-22.5 -61.5v-3q0 -1 -1 -3l-1 -2v-2z" />
<glyph unicode="&#xff;" horiz-adv-x="279" d="M-5 2l130 354q-40 81 -99 234q-3 8 2.5 14.5t13.5 6t11 -8.5q14 -36 42 -102t31 -74q13 -32 25 -1q6 18 44 94q26 54 36 91q2 8 10 11t14 -1.5t4 -13.5q-11 -42 -38 -97q-39 -81 -43 -92q-82 -215 -155 -421q-3 -13 -18 -11q-12 2 -10 17zM118 668q-9 0 -11.5 7t2 14 t12.5 7q13 0 13 -14q-2 -14 -16 -14zM180 671q-9 0 -12 7t2 14t13 7q9 0 11.5 -7t-2 -14t-12.5 -7z" />
<glyph unicode="&#x2000;" horiz-adv-x="388" />
<glyph unicode="&#x2001;" horiz-adv-x="776" />
<glyph unicode="&#x2002;" horiz-adv-x="388" />
<glyph unicode="&#x2003;" horiz-adv-x="776" />
<glyph unicode="&#x2004;" horiz-adv-x="258" />
<glyph unicode="&#x2005;" horiz-adv-x="194" />
<glyph unicode="&#x2006;" horiz-adv-x="129" />
<glyph unicode="&#x2007;" horiz-adv-x="129" />
<glyph unicode="&#x2008;" horiz-adv-x="97" />
<glyph unicode="&#x2009;" horiz-adv-x="155" />
<glyph unicode="&#x200a;" horiz-adv-x="43" />
<glyph unicode="&#x2010;" horiz-adv-x="326" d="M-6 263q0 14 14 16q58 10 174 5q72 -2 76 -2q14 0 12 -14q0 -14 -15 -14q-8 0 -78 2q-113 3 -168 -5q-15 -2 -15 12z" />
<glyph unicode="&#x2011;" horiz-adv-x="326" d="M-6 263q0 14 14 16q58 10 174 5q72 -2 76 -2q14 0 12 -14q0 -14 -15 -14q-8 0 -78 2q-113 3 -168 -5q-15 -2 -15 12z" />
<glyph unicode="&#x2012;" horiz-adv-x="326" d="M-6 263q0 14 14 16q58 10 174 5q72 -2 76 -2q14 0 12 -14q0 -14 -15 -14q-8 0 -78 2q-113 3 -168 -5q-15 -2 -15 12z" />
<glyph unicode="&#x2013;" horiz-adv-x="334" d="M-38 226q0 6 4.5 10.5t10.5 4.5q13 1 89 8q115 11 199 11q9 0 11.5 -7t-2 -14t-12.5 -7q-67 0 -197 -11q-73 -7 -89 -8q-7 -1 -11 3t-3 10z" />
<glyph unicode="&#x2014;" horiz-adv-x="693" d="M-15 244q68 18 324.5 25t317.5 -8q13 -2 9 -17q-3 -13 -18 -11q-58 14 -311 6.5t-317 -23.5q-9 -1 -13.5 4.5t-1.5 13t10 10.5z" />
<glyph unicode="&#x2018;" horiz-adv-x="131" d="M10 491q30 95 80 133q8 6 15 2.5t7 -11t-7 -13.5q-39 -30 -68 -117q-1 -5 -5 -8t-8 -3t-8 1.5t-5.5 5.5t-0.5 10z" />
<glyph unicode="&#x2019;" horiz-adv-x="112" d="M34 609q-5 6 -1.5 14t10.5 9.5t13 -3.5q46 -49 19 -152q-1 -8 -9 -11t-14 1.5t-4 13.5q22 87 -14 128z" />
<glyph unicode="&#x201a;" horiz-adv-x="136" d="M-26 47q-8 4 -8 11.5t6.5 13t14.5 1.5q44 -18 60 -63q10 -20 2 -45t-32 -39q-8 -5 -14.5 -1t-6.5 11.5t8 13.5q16 10 18.5 25.5t-4 28.5t-16.5 23q-12 12 -28 20z" />
<glyph unicode="&#x201c;" horiz-adv-x="240" d="M34 450q13 79 60 133q7 7 15 5.5t9.5 -8.5t-3.5 -15q-40 -45 -54 -117q-2 -15 -16 -13q-6 0 -9.5 4.5t-1.5 10.5zM116 460l21 44q21 41 55 77q11 10 20.5 0.5t-0.5 -20.5q-27 -25 -50 -68q-6 -11 -19 -43q-7 -13 -19.5 -8.5t-7.5 18.5z" />
<glyph unicode="&#x201d;" horiz-adv-x="220" d="M48 532q-5 6 -1 13.5t11.5 9t13.5 -4.5q16 -21 24 -51q0 -2 1 -11t1.5 -16t-2 -13.5t-8.5 -7.5t-11.5 2t-5.5 9q-2 14 -3 20t-2.5 14t-4 13t-5.5 10.5t-8 12.5zM125 563q-5 7 -0.5 14.5t11.5 8.5t13 -5q21 -28 28 -59t6 -80q0 -3 -2 -6.5t-5.5 -6t-6.5 -2.5 q-6 -1 -10.5 3t-4.5 10q-1 48 -6.5 74t-22.5 49z" />
<glyph unicode="&#x201e;" horiz-adv-x="195" d="M-14 -46q23 59 0 107q-5 8 0 15t12.5 7.5t12.5 -6.5q30 -57 3 -131q-6 -13 -19 -9q-11 3 -9 17zM72 -32q22 49 6 110q-3 8 3 14.5t14 5.5t10 -10q20 -68 -6 -130q-7 -13 -19.5 -8.5t-7.5 18.5z" />
<glyph unicode="&#x2022;" horiz-adv-x="185" d="M34 316q-2 23 15 37l26 13q19 10 38 4t23 -28q6 -32 -30 -50l9 4q-4 -2 -22 -12q-37 -19 -52 18l2 -7q-2 4 -5 10.5t-4 10.5z" />
<glyph unicode="&#x2026;" horiz-adv-x="353" d="M-34 34q6 3 10.5 5t6 3t3.5 1.5t5 0.5q2 0 4 -1t4 -2.5t3.5 -3.5t2.5 -3l1 -1q8 -14 -15 -40q-4 -6 -11 -6.5t-11 7.5q-3 3 -6.5 10t-5 16.5t8.5 13.5zM84 -1q-12 33 11 44q14 5 25 6q11 2 20.5 -4t9.5 -16q0 -6 -3 -12t-6.5 -10t-7.5 -7.5t-4 -4.5q-17 -12 -29 -10.5 t-16 14.5zM222 3q-4 8 4 16q2 1 7 6t8 7.5t8 4.5t9.5 1t7.5 -6l2 -6t1 -5v-4t1 -3v-6q-2 -14 -15 -14q-8 0 -16 -1h-9q-4 0 -8 10z" />
<glyph unicode="&#x202f;" horiz-adv-x="155" />
<glyph unicode="&#x2039;" horiz-adv-x="179" d="M-31 225q3 6 19 22q15 14 43 40q59 54 77 72q6 7 14 5.5t10 -8.5t-4 -15q-31 -31 -79 -74q-35 -33 -42 -39q-1 -1 -2 -2.5t-2 -2.5q-5 -3 0 -7q41 -24 77 -36q8 -3 8.5 -11t-6 -13.5t-15.5 -3.5q-43 16 -82 40l-11 7q-15 12 -5 26z" />
<glyph unicode="&#x203a;" horiz-adv-x="202" d="M-12 149q24 20 64 58t56 60q14 13 -9 21q-1 0 -1 0.5t-1 0.5q-56 16 -81 57q-5 7 -0.5 14.5t12 8t13.5 -6.5q17 -26 54 -41q5 -2 14 -5.5t15 -5.5t12.5 -6t9 -8.5t2.5 -11t-4 -14.5q-3 -5 -13 -19q-22 -26 -65 -68t-62 -56q-13 -9 -20.5 2t4.5 20z" />
<glyph unicode="&#x205f;" horiz-adv-x="194" />
<glyph unicode="&#x20ac;" horiz-adv-x="306" d="M-88 263q26 7 58 12q20 2 21 21q5 14 4 28.5t-18 13.5q-28 -4 -40 -6q-14 -2 -16 12q0 14 13 16q16 3 52 7q10 1 14.5 4t5.5 5.5t2 11.5q15 64 32.5 96t47.5 62q28 28 61.5 40.5t60.5 0.5q49 -23 57 -107q-1 -3 0 -20t2 -25q0 -15 -13 -17q-16 -2 -16 11q0 2 -0.5 10.5 t-0.5 15.5l-2.5 27.5t-3.5 23t-7 24.5t-12 16.5t-19 13.5q-36 17 -89 -34q-25 -24 -39.5 -50.5t-27.5 -81.5q-5 -16 -2.5 -19.5t18.5 -2.5h151q9 0 12 -7t-2 -14t-13 -7q-128 0 -156 -1q-7 0 -11 -1.5t-6.5 -4t-3 -5t-1.5 -8t-2 -8.5q0 -3 -1 -9t-1 -9q-1 -12 3 -14.5 t16 -2.5q52 3 116 2q30 -1 58 -1q14 0 12 -14q0 -14 -15 -14q-29 0 -60 1q-85 0 -116 -2q-8 -1 -11 -1.5t-6.5 -5.5t-4.5 -15q-4 -43 -2 -78q4 -53 42 -97q38 -49 76 -18q12 9 21 31l8 21q2 6 3.5 11t2.5 7l1 3q2 8 10 10.5t14 -2.5t3 -14q0 -8 -15 -44q-14 -33 -39.5 -51.5 t-57.5 -10.5q-51 16 -82 93q-13 31 -16 56t2 78q1 15 -3 18t-16 1q-31 -5 -48 -10q-9 -1 -13.5 4.5t-1.5 13t10 10.5z" />
<glyph unicode="&#x2122;" horiz-adv-x="354" d="M-1 606q0 15 14 15q5 0 13 0.5t21 1t23 0.5q46 0 60 1q6 1 10 -3t4 -10q0 -16 -27 -16h-5q-16 -1 -18 -3q-3 -122 -17 -196q-2 -15 -17 -13q-6 0 -9.5 4.5t-1.5 10.5q8 43 15 195h-51q-7 -1 -11 3t-3 10zM136 403q2 37 13 71l24 77q1 3 3.5 13.5t4 15.5t5 12t9 10t12.5 3 q10 0 16 -11l3 -11q1 -4 2.5 -9.5t2.5 -8.5t2.5 -5t3 0t4 7t5.5 14q4 9 11 20q6 6 14 6q4 0 7 -1t5 -3t3.5 -4t3 -6t2 -6t1.5 -7t1 -7q6 -19 9 -57l6 -60q3 -26 5 -38q4 -9 -4 -15.5t-16 -3.5q-4 2 -6.5 6t-3.5 9.5t-1.5 10t-1 13t-0.5 12.5l-7 60q-2 22 -3 24q0 5 -2.5 7 t-5 1t-3.5 -5q-10 -27 -15 -39q-12 -24 -21 -28q-17 -7 -22 9v15t0.5 30t0.5 22q-1 3 -3 -2t-5.5 -18t-6.5 -21l-12 -37q-8 -24 -12 -63q0 -6 -4.5 -10.5t-10.5 -4.5q-6 -1 -10 3t-3 10z" />
<glyph unicode="&#xe000;" horiz-adv-x="610" d="M0 0v610h610v-610h-610z" />
</font>
</defs>
</svg>
