<?xml version="1.0" standalone="no"?>
<!DOCTYPE svg PUBLIC "-//W3C//DTD SVG 1.1//EN" "http://www.w3.org/Graphics/SVG/1.1/DTD/svg11.dtd" >
<svg xmlns="http://www.w3.org/2000/svg">
<metadata></metadata>
<defs>
<font id="bitterbold" horiz-adv-x="601" >
<font-face units-per-em="1000" ascent="800" descent="-200" />
<missing-glyph horiz-adv-x="235" />
<glyph unicode="&#xfb01;" horiz-adv-x="755" d="M40 432v83l90 17v40q0 106 61 160.5t201 54.5q59 0 120 -9.5t92 -18.5l31 -9l-2 -141h-110l-13 60q-59 8 -108 8q-67 0 -94.5 -22.5t-27.5 -64.5v-58l375 8v-435l70 -25v-80h-290v80l70 25v327h-225v-327l70 -25v-80h-300v80l80 25v327h-90z" />
<glyph unicode="&#xfb02;" horiz-adv-x="748" d="M40 430v85l90 15v47q0 210 255 210q61 0 128 -6.5t103 -12.5l37 -6v-657l90 -25v-80h-310v80l70 25v563q-57 9 -106 9q-117 0 -117 -82v-65h130l-3 -100h-127v-325l70 -25v-80h-300v80l80 25v325h-90z" />
<glyph horiz-adv-x="1000" />
<glyph horiz-adv-x="1000" />
<glyph horiz-adv-x="333" />
<glyph unicode="&#xd;" horiz-adv-x="600" />
<glyph unicode=" "  horiz-adv-x="235" />
<glyph unicode="&#x09;" horiz-adv-x="235" />
<glyph unicode="&#xa0;" horiz-adv-x="235" />
<glyph unicode="!" horiz-adv-x="340" d="M85 78q0 41 25.5 65.5t60.5 24.5q41 0 62.5 -23.5t21.5 -66.5q0 -42 -25.5 -66.5t-61.5 -24.5q-83 0 -83 91zM91 765h156l-18 -504l-120 -5z" />
<glyph unicode="&#x22;" horiz-adv-x="441" d="M57 500v282h135l-22 -282h-113zM258 500v282h136l-23 -282h-113z" />
<glyph unicode="#" horiz-adv-x="730" d="M60 141v103h106l17 123h-98v103h111l18 130h127l-18 -130h126l17 130h127l-17 -130h94v-103h-108l-16 -123h99v-103h-113l-18 -141h-127l18 141h-125l-19 -141h-127l19 141h-93zM293 244h126l16 123h-125z" />
<glyph unicode="$" horiz-adv-x="552" d="M55 21v177h92l15 -75q34 -18 87 -18q48 0 80 18.5t32 52.5q0 21 -17 37t-44 26.5t-59.5 21t-65 26t-59.5 36t-44 56t-17 81.5q0 76 46 124t124 63v118h107v-114q38 -3 77 -12t59 -17l20 -7l-4 -164h-86l-19 74q-42 15 -80 15q-47 0 -72 -17.5t-25 -45.5q0 -29 31.5 -48.5 t76 -34t89.5 -34.5t76.5 -61t31.5 -101q0 -81 -47.5 -133.5t-127.5 -69.5v-141h-107v135q-41 2 -83.5 10t-64.5 15z" />
<glyph unicode="%" horiz-adv-x="935" d="M55 529q0 87 51 137.5t129 50.5q76 0 122.5 -46t46.5 -131q0 -86 -51 -138t-130 -52q-77 0 -122.5 44.5t-45.5 134.5zM170 533q0 -96 58 -96q61 0 61 99q0 95 -59 95q-60 0 -60 -98zM179 -8l418 720h145l-418 -720h-145zM519 165q0 87 51 137.5t129 50.5q76 0 122.5 -46 t46.5 -131q0 -86 -51 -138t-130 -52q-77 0 -122.5 44.5t-45.5 134.5zM634 169q0 -96 58 -96q61 0 61 99q0 95 -59 95q-60 0 -60 -98z" />
<glyph unicode="&#x26;" horiz-adv-x="677" d="M55 188q0 37 15.5 70.5t39 55.5t40.5 34.5t32 19.5q-52 32 -73 59q-33 43 -33 99q0 93 67.5 142t184.5 49q52 0 112 -15t85 -27l-5 -158h-94q-7 27 -16 65q-34 13 -90 13q-46 0 -70.5 -23t-24.5 -56q0 -43 33.5 -67t81.5 -24h307v-85l-70 -23v-106q0 -104 -72.5 -163.5 t-196.5 -59.5q-127 0 -190 54t-63 146zM210 209q0 -47 29 -73t79 -26q53 0 83.5 30t30.5 85v92h-75q-65 0 -106 -27t-41 -81z" />
<glyph unicode="'" horiz-adv-x="240" d="M55 500v282h135l-22 -282h-113z" />
<glyph unicode="(" horiz-adv-x="353" d="M54 280q0 138 40 251.5t126 238.5h130q-72 -110 -114 -240t-42 -248q0 -130 41.5 -269t113.5 -243h-129q-87 123 -126.5 241.5t-39.5 268.5z" />
<glyph unicode=")" horiz-adv-x="350" d="M-1 770h130q86 -125 126 -238.5t40 -251.5q0 -150 -39.5 -269t-126.5 -241h-129q72 104 113.5 243t41.5 269q0 118 -42 248t-114 240z" />
<glyph unicode="*" horiz-adv-x="417" d="M25 573l30 89l115 -45l-14 119l93 2l-9 -122l111 49l31 -90l-122 -25l82 -95l-73 -55l-65 111l-60 -111l-77 54l82 98zM149 552l45 3l10 -44l11 44l45 -5l-37 26l17 40l-36 -29l-34 30l18 -43z" />
<glyph unicode="+" horiz-adv-x="620" d="M42 211v118h202v204h133v-204h200v-118h-200v-211h-133v211h-202z" />
<glyph unicode="," horiz-adv-x="303" d="M40 -133q60 80 60 120q0 12 -14.5 39t-14.5 53q0 40 24.5 64.5t61.5 24.5q38 0 61 -24t23 -68q0 -113 -138 -261z" />
<glyph unicode="-" horiz-adv-x="395" d="M55 210v125h285v-125h-285z" />
<glyph unicode="." horiz-adv-x="300" d="M65 78q0 41 25.5 65.5t60.5 24.5q41 0 62.5 -23.5t21.5 -66.5q0 -42 -25 -66.5t-61 -24.5q-41 0 -62.5 23.5t-21.5 67.5z" />
<glyph unicode="/" horiz-adv-x="516" d="M20 0l333 705h153l-334 -705h-152z" />
<glyph unicode="0" horiz-adv-x="645" d="M60 347q0 182 64.5 276t207.5 94t200.5 -87.5t57.5 -267.5q0 -375 -268 -375q-137 0 -199.5 90.5t-62.5 269.5zM222 352q0 -130 24 -185t80 -55t78.5 55t22.5 190q0 132 -22 183.5t-79 51.5t-80.5 -53t-23.5 -187z" />
<glyph unicode="1" horiz-adv-x="538" d="M15 553l238 152h128v-590h135v-115h-430v115h140v430l-153 -98z" />
<glyph unicode="2" horiz-adv-x="607" d="M40 0v122q78 63 119 97t90.5 79.5t72.5 74t39 61t16 61.5q0 46 -32 73t-85 27q-24 0 -47 -4.5t-35 -8.5l-11 -5l-10 -85h-105l-5 185q113 40 220 40q130 0 201.5 -45.5t71.5 -151.5q0 -51 -17.5 -98t-58.5 -97.5t-86.5 -94t-120.5 -108.5h300v-122h-517z" />
<glyph unicode="3" horiz-adv-x="592" d="M25 42l42 110q90 -42 178 -42q61 0 94 26t33 76q0 46 -37 72t-105 26h-78v105h83q130 0 130 97q0 38 -29 60.5t-81 22.5q-22 0 -46.5 -3.5t-38.5 -7.5l-13 -4l-10 -80h-105l-5 175q123 42 223 42q257 0 257 -180q0 -64 -32 -108.5t-93 -60.5q63 -14 101.5 -57.5 t38.5 -100.5q0 -59 -24.5 -103t-66 -69.5t-91 -37.5t-105.5 -12q-57 0 -112 13.5t-81 26.5z" />
<glyph unicode="4" horiz-adv-x="627" d="M15 260q279 411 313 460l167 -15v-440h100v-123h-100v-142h-154v142h-311zM165 265h178v264z" />
<glyph unicode="5" horiz-adv-x="560" d="M17 42l43 110q90 -42 177 -42q50 0 82 26.5t32 73.5q0 56 -46.5 81.5t-139.5 25.5h-108l17 388h410l-3 -123h-265l-7 -150q145 0 226.5 -54.5t81.5 -152.5q0 -110 -77.5 -173.5t-186.5 -63.5q-60 0 -119 13.5t-88 26.5z" />
<glyph unicode="6" horiz-adv-x="623" d="M55 295q0 189 95.5 305.5t279.5 116.5q26 0 48.5 -2.5t31.5 -4.5l10 -3l-7 -117q-30 5 -78 5q-60 0 -105 -20.5t-66.5 -49.5t-34.5 -58t-15 -49l-2 -21q71 43 156 43q96 0 158 -54.5t62 -155.5q0 -105 -75 -174t-188 -69q-129 0 -199.5 86t-70.5 222zM208 263 q0 -78 32.5 -115.5t83.5 -37.5q48 0 77 28.5t29 76.5q0 107 -108 107q-28 0 -56.5 -9t-43.5 -17l-14 -9v-24z" />
<glyph unicode="7" horiz-adv-x="531" d="M5 487v218h510v-108l-262 -597h-165l259 580h-221l-20 -93h-101z" />
<glyph unicode="8" horiz-adv-x="618" d="M45 192q0 105 128 169q-105 59 -105 160q0 93 68 144.5t185 51.5q113 0 174 -52t61 -137q0 -99 -109 -150q126 -59 126 -172q0 -98 -76 -158.5t-199 -60.5q-121 0 -187 56.5t-66 148.5zM202 199q0 -43 27.5 -66t78.5 -23t79 24t28 68q0 38 -30 60.5t-90 45.5 q-93 -42 -93 -109zM217 521q0 -35 27.5 -56t80.5 -41q81 34 81 97q0 33 -26 53.5t-69 20.5q-44 0 -69 -20.5t-25 -53.5z" />
<glyph unicode="9" horiz-adv-x="617" d="M32 474q0 106 75 174.5t188 68.5q129 0 199.5 -85.5t70.5 -221.5q0 -123 -39 -216.5t-125 -150t-211 -56.5q-26 0 -48.5 2.5t-31.5 4.5l-10 3l7 117q30 -4 78 -4q61 0 106.5 20t67 49t34 58t13.5 49l2 20q-71 -41 -156 -41q-96 0 -158 54t-62 155zM190 489 q0 -51 27.5 -79t80.5 -28q28 0 56.5 9t43.5 18l14 9v27q0 76 -32.5 113t-83.5 37q-48 0 -77 -28.5t-29 -77.5z" />
<glyph unicode=":" horiz-adv-x="305" d="M67 78q0 41 25.5 65.5t61.5 24.5q83 0 83 -90q0 -42 -25 -66.5t-61 -24.5q-41 0 -62.5 23.5t-21.5 67.5zM67 378q0 42 25.5 66.5t61.5 24.5q83 0 83 -91q0 -41 -25.5 -65.5t-60.5 -24.5q-41 0 -62.5 23.5t-21.5 66.5z" />
<glyph unicode=";" horiz-adv-x="311" d="M42 -133q60 80 60 120q0 12 -14.5 39t-14.5 53q0 40 24.5 64.5t62.5 24.5t60.5 -24t22.5 -68q0 -112 -137 -261zM73 378q0 42 25 66.5t61 24.5q41 0 62.5 -23.5t21.5 -67.5q0 -41 -25.5 -65.5t-60.5 -24.5q-41 0 -62.5 23.5t-21.5 66.5z" />
<glyph unicode="&#x3c;" horiz-adv-x="597" d="M40 208v120l517 219v-130l-355 -150l355 -145v-132z" />
<glyph unicode="=" horiz-adv-x="600" d="M50 107v115h500v-115h-500zM50 322v115h500v-115h-500z" />
<glyph unicode="&#x3e;" horiz-adv-x="597" d="M40 -10v132l355 145l-355 150v130l517 -219v-120z" />
<glyph unicode="?" horiz-adv-x="464" d="M65 745q83 24 149 24q54 0 97 -13.5t73 -49.5t30 -92q0 -43 -18.5 -81t-45 -66t-53 -53t-45 -51.5t-18.5 -51.5l2 -58l-133 -6q-9 65 -9 98q0 32 26.5 65.5t58 57t58 55.5t26.5 63q0 66 -90 66q-19 0 -41.5 -3t-35.5 -5l-12 -3zM94 78q0 41 25.5 65.5t60.5 24.5 q41 0 62.5 -23.5t21.5 -66.5q0 -42 -25.5 -66.5t-61.5 -24.5q-83 0 -83 91z" />
<glyph unicode="@" horiz-adv-x="820" d="M47 345q0 172 101.5 272t272.5 100q167 0 263 -91t96 -260q0 -103 -52.5 -161t-134.5 -58q-85 0 -120 62l-16 -16t-41 -26t-61 -16q-53 0 -83 31t-30 84q0 119 168 119h46v34q0 47 -58 47q-20 0 -47 -4t-44 -8l-17 -5l-19 74q80 30 151 30q77 0 112 -30t35 -96v-166 q0 -35 35 -35q31 0 48.5 34.5t17.5 100.5q0 122 -65.5 190.5t-188.5 68.5q-124 0 -191.5 -70.5t-67.5 -199.5q0 -130 58.5 -199t177.5 -69q30 0 61.5 6t47.5 12l16 7l41 -82l-22 -11t-59 -18t-92 -11q-164 0 -251.5 92.5t-87.5 267.5zM347 275q0 -17 11 -27t30 -10 q34 0 68 34v47h-39q-70 0 -70 -44z" />
<glyph unicode="A" horiz-adv-x="748" d="M5 0v85l73 28l220 589l160 3l215 -592l70 -28v-85h-318v85l75 27l-24 73h-222l-25 -72l78 -28v-85h-302zM289 292h154l-75 237z" />
<glyph unicode="B" horiz-adv-x="658" d="M35 0v85l75 30v470l-75 30v85l230 5h105q101 0 160.5 -43.5t59.5 -129.5q0 -127 -120 -165q143 -41 143 -160q0 -207 -260 -207h-318zM265 120h83q52 0 79.5 22.5t27.5 64.5q0 54 -32 79.5t-100 25.5h-58v-192zM265 417h58q112 0 112 93q0 37 -23.5 56t-61.5 19h-85v-168 z" />
<glyph unicode="C" horiz-adv-x="667" d="M55 342q0 175 91 275t246 100q54 0 112 -11.5t90 -23.5l31 -12l-5 -190h-98l-23 96q-47 16 -112 16q-165 0 -165 -245q0 -230 170 -230q44 0 91.5 17.5t72.5 35.5l26 17l55 -90q-4 -4 -12 -11.5t-34.5 -26.5t-55.5 -33t-72.5 -26t-87.5 -12q-153 0 -236.5 90.5 t-83.5 263.5z" />
<glyph unicode="D" horiz-adv-x="733" d="M40 0v85l75 30v470l-75 30v85l230 5h95q152 0 235 -88t83 -255q0 -168 -90 -265t-243 -97h-310zM270 120h83q78 0 120 54.5t42 182.5q0 122 -39 175t-116 53h-90v-465z" />
<glyph unicode="E" horiz-adv-x="622" d="M45 0v85l75 30v470l-75 30v85l230 5h280v-193h-90l-25 73h-165v-165h202v-110h-202v-190h179l23 82h90v-202h-522z" />
<glyph unicode="F" horiz-adv-x="580" d="M45 0v85l75 30v470l-75 30v85l230 5h280v-190h-93l-25 70h-162v-175h207v-110h-207v-185l92 -30v-85h-322z" />
<glyph unicode="G" horiz-adv-x="750" d="M55 342q0 175 91 275t246 100q54 0 112 -11.5t90 -23.5l31 -12l-5 -180h-93l-25 86q-47 16 -113 16q-167 0 -167 -245q0 -232 170 -232q23 0 50.5 4.5t43.5 8.5l16 5v126l-75 23v82l288 5v-87l-68 -23v-204q-12 -8 -33.5 -19t-92.5 -29.5t-146 -18.5q-153 0 -236.5 90.5 t-83.5 263.5z" />
<glyph unicode="H" horiz-adv-x="792" d="M35 0v85l75 30v470l-75 30v85l310 5v-90l-80 -30v-160h262v160l-80 30v85l310 5v-90l-75 -30v-470l75 -30v-85h-310v85l80 30v190h-262v-190l80 -30v-85h-310z" />
<glyph unicode="I" horiz-adv-x="385" d="M40 0v85l75 30v470l-75 30v85l305 5v-90l-75 -30v-470l75 -30v-85h-305z" />
<glyph unicode="J" horiz-adv-x="384" d="M-30 -153l13 103h48q88 0 88 96v539l-75 30v85l305 5v-90l-75 -30v-479q0 -137 -50.5 -201.5t-177.5 -64.5z" />
<glyph unicode="K" horiz-adv-x="720" d="M35 0v85l75 30v472l-75 30v83l305 5v-88l-75 -30v-172h68l167 285l185 5v-88l-95 -28l-131 -218l186 -256l75 -30v-85h-305v85l60 30l-137 190h-73v-190l75 -30v-85h-305z" />
<glyph unicode="L" horiz-adv-x="540" d="M30 0v85l75 30v470l-75 30v85l305 5v-90l-75 -30v-465h153l22 110h95v-230h-500z" />
<glyph unicode="M" horiz-adv-x="878" d="M35 0v85l75 30v470l-75 30v85l258 5l150 -333l157 328l240 5v-90l-72 -30v-470l75 -30v-85h-298v85l78 30v376q-18 -47 -41.5 -97.5t-53 -110t-45.5 -93.5l-108 -5l-115 237l-17 52v-359l77 -30v-85h-285z" />
<glyph unicode="N" horiz-adv-x="787" d="M35 0v85l75 30v470l-75 30v85l240 5l270 -462v342l-73 30v85l285 5v-90l-75 -30v-585h-167l-268 453v-338l78 -30v-85h-290z" />
<glyph unicode="O" horiz-adv-x="755" d="M55 347q0 172 88.5 271t241.5 99q150 0 232.5 -93.5t82.5 -261.5q0 -169 -92.5 -272t-242.5 -103t-230 92t-80 268zM225 352q0 -124 35 -182t110 -58q78 0 119 57.5t41 187.5q0 122 -37 178.5t-113 56.5q-78 0 -116.5 -55.5t-38.5 -184.5z" />
<glyph unicode="P" horiz-adv-x="623" d="M35 0v85l75 30v470l-75 30v85l230 5h95q114 0 178.5 -56t64.5 -154q0 -124 -73.5 -187t-211.5 -63h-53v-130l75 -30v-85h-305zM265 362h53q63 0 96.5 29t33.5 84q0 50 -26.5 80t-76.5 30h-80v-223z" />
<glyph unicode="Q" horiz-adv-x="742" d="M55 347q0 171 91 270.5t246 99.5q153 0 235.5 -93.5t82.5 -261.5q0 -129 -55 -221t-153 -130q8 -5 44.5 -29.5t53.5 -34.5t45.5 -21t49.5 -11q14 0 37 8.5t39 17.5l16 9q10 -15 29 -44t24 -36q-12 -8 -31 -19.5t-64.5 -31t-74.5 -19.5q-50 0 -128 53l-202 136 q-139 9 -212 100t-73 258zM220 352q0 -240 157 -240q85 0 126.5 60t41.5 185q0 121 -38 178t-120 57q-85 0 -126 -57.5t-41 -182.5z" />
<glyph unicode="R" horiz-adv-x="675" d="M35 0v85l75 30v470l-75 30v85l230 5h76q125 0 192.5 -51.5t67.5 -152.5q0 -133 -113 -189q25 -29 42 -65l67 -137l68 -25v-85h-185l-84 185q-27 60 -42.5 76t-53.5 16h-35v-162l72 -30v-85h-302zM265 382h57q59 0 92 27.5t33 77.5q0 43 -27 70.5t-73 27.5h-82v-203z" />
<glyph unicode="S" horiz-adv-x="605" d="M60 505q0 101 70.5 156.5t183.5 55.5q50 0 105 -10t85 -20l30 -10l-5 -182h-92l-25 85q-45 15 -88 15q-51 0 -78.5 -20t-27.5 -51q0 -27 25 -47t62.5 -31.5t81 -29.5t81 -39t62.5 -62t25 -96q0 -109 -75.5 -170.5t-194.5 -61.5q-50 0 -106 9.5t-87 19.5l-30 9v192h102 l15 -84q40 -21 98 -21q51 0 86 21.5t35 59.5q0 27 -25 47t-62.5 31t-81.5 29.5t-81.5 40t-62.5 64t-25 100.5z" />
<glyph unicode="T" horiz-adv-x="600" d="M10 490v215h580v-215h-93l-25 95h-95v-470l95 -30v-85h-345v85l95 30v470h-95l-25 -95h-92z" />
<glyph unicode="U" horiz-adv-x="789" d="M35 615v85l307 5v-90l-78 -30v-315q0 -87 29 -123.5t102 -36.5q76 0 102.5 40.5t26.5 134.5v300l-78 30v85l308 5v-90l-75 -30v-300q0 -150 -66.5 -223.5t-222.5 -73.5q-149 0 -215 68t-66 214v315z" />
<glyph unicode="V" horiz-adv-x="724" d="M5 615v85l310 5v-90l-74 -29l92 -287l32 -123l32 118l99 291l-76 30v85l299 5v-90l-73 -30l-211 -585h-160l-202 587z" />
<glyph unicode="W" horiz-adv-x="1035" d="M5 615v85l297 5v-90l-73 -30l86 -360l140 472l135 8l134 -479l96 359l-75 30v85l285 5v-90l-72 -30l-171 -585h-142l-131 475q-24 -98 -78.5 -276.5t-60.5 -198.5h-138l-162 586z" />
<glyph unicode="X" horiz-adv-x="740" d="M10 0v85l62 25l202 244l-186 242l-58 19v85l300 5v-90l-50 -17l103 -137l98 133l-54 21v85l288 5v-90l-66 -20l-184 -233l195 -253l70 -24v-85h-310v85l46 20l-110 148l-112 -144l63 -24v-85h-297z" />
<glyph unicode="Y" horiz-adv-x="667" d="M7 615v85l283 5v-90l-51 -21l100 -215l106 214l-55 22v85l270 5v-90l-69 -27l-181 -343v-130l75 -30v-85h-305v85l75 30v129l-183 344z" />
<glyph unicode="Z" horiz-adv-x="615" d="M30 0v105l355 480h-210l-25 -90h-95v210h530v-113l-348 -472h228l22 100h95v-220h-552z" />
<glyph unicode="[" horiz-adv-x="352" d="M67 -230v1000l250 -5v-103l-119 -11v-763l119 -11v-102z" />
<glyph unicode="\" horiz-adv-x="506" d="M7 705h153l333 -705h-152z" />
<glyph unicode="]" horiz-adv-x="352" d="M32 -122l120 11v762l-120 11v103l250 5v-1000l-250 5v103z" />
<glyph unicode="^" horiz-adv-x="595" d="M50 320l192 385h110l193 -385h-129l-121 245l-120 -245h-125z" />
<glyph unicode="_" horiz-adv-x="496" d="M-2 -80h500v-100h-500v100z" />
<glyph unicode="`" horiz-adv-x="320" d="M24 745l68 104l223 -178l-49 -73z" />
<glyph unicode="a" d="M40 147q0 165 241 165h70v55q0 73 -77 73q-23 0 -45 -4t-33 -8l-10 -3l-15 -63h-90l-7 148q121 40 217 40q114 0 162 -45t48 -153v-247l75 -18v-80l-200 -7l-18 65q-9 -8 -24 -20.5t-57.5 -33.5t-80.5 -21q-73 0 -114.5 41t-41.5 116zM185 162q0 -60 59 -60 q24 0 50.5 14.5t41.5 29.5l15 14v67h-57q-58 0 -83.5 -15.5t-25.5 -49.5z" />
<glyph unicode="b" horiz-adv-x="618" d="M5 687v80l225 8v-278q69 53 143 53q100 0 152.5 -69t52.5 -196q0 -143 -74 -220t-216 -77q-49 0 -101 5.5t-79 10.5l-28 6v657zM230 116q23 -8 74 -8q119 0 119 167q0 155 -98 155q-27 0 -50.5 -11t-34.5 -23l-10 -11v-269z" />
<glyph unicode="c" horiz-adv-x="525" d="M35 262q0 134 72.5 211t202.5 77q38 0 82 -8.5t68 -17.5l25 -9l-5 -164h-90l-14 71q-29 8 -69 8q-55 0 -86 -37.5t-31 -110.5q0 -83 31.5 -127.5t93.5 -44.5q20 0 38 3.5t35 10.5t26.5 12t26 15t19.5 12l50 -88q-97 -85 -215 -85q-123 0 -191.5 72t-68.5 200z" />
<glyph unicode="d" horiz-adv-x="638" d="M40 257q0 143 68.5 218t204.5 75q31 0 75 -10v127l-80 20v80l230 8v-668l80 -20v-80l-213 -7l-9 53q-63 -63 -151 -63q-103 0 -154 70t-51 197zM195 265q0 -155 96 -155q28 0 52.5 14t34.5 28l10 15v248q-32 15 -78 15q-115 0 -115 -165z" />
<glyph unicode="e" horiz-adv-x="564" d="M35 260q0 133 71 211.5t196 78.5q110 0 168.5 -63t58.5 -172q0 -17 -1.5 -35.5t-3.5 -30.5l-1 -12h-332q4 -60 36.5 -93.5t84.5 -33.5q37 0 79 12t65 24l24 11l43 -83q-11 -9 -31 -23t-80 -37.5t-117 -23.5q-127 0 -193.5 70.5t-66.5 199.5zM193 330h181q0 45 -20 72.5 t-62 27.5q-41 0 -67 -27.5t-32 -72.5z" />
<glyph unicode="f" horiz-adv-x="462" d="M40 430v85l90 15v45q0 98 55.5 155t159.5 57q48 0 92.5 -9.5t64.5 -18.5l20 -9l-3 -147h-90l-15 70q-24 4 -57 4q-77 0 -77 -85v-62h130l-3 -100h-127v-325l100 -25v-80h-330v80l80 25v325h-90z" />
<glyph unicode="g" horiz-adv-x="610" d="M40 -110q0 38 26 68t52 41l27 11q-7 1 -17 4t-26.5 20t-16.5 42q0 31 52 113q-77 51 -77 156q0 99 66.5 152t173.5 53q67 0 118 -24l172 4v-80l-82 -14q0 -1 5 -13.5t8.5 -29.5t3.5 -36q0 -104 -65 -154.5t-175 -50.5q-12 0 -23.5 1t-19 2.5t-8.5 1.5l-4 -67h148 q96 0 148 -40t52 -115q0 -86 -70.5 -138t-209.5 -52q-126 0 -192 33t-66 112zM185 -85q0 -36 29.5 -48t95.5 -12q68 0 98 16t30 52q0 32 -23.5 44.5t-76.5 12.5h-105q-5 -2 -13 -7t-21.5 -22t-13.5 -36zM210 352q0 -100 80 -100q46 0 65.5 24t19.5 76q0 95 -80 95 q-85 0 -85 -95z" />
<glyph unicode="h" horiz-adv-x="670" d="M20 0v80l80 25v562l-80 20v80l230 8v-293q82 68 168 68q76 0 116.5 -47.5t40.5 -132.5v-265l70 -25v-80h-272v80l52 24v242q0 80 -66 80q-25 0 -52 -13t-42 -27l-15 -13v-268l53 -25v-80h-283z" />
<glyph unicode="i" horiz-adv-x="365" d="M35 0v80l80 25v325l-80 25v80l230 5v-435l70 -25v-80h-300zM97 705q0 41 25.5 65.5t60.5 24.5q84 0 84 -90q0 -42 -25.5 -66.5t-58.5 -24.5q-41 0 -63.5 23.5t-22.5 67.5z" />
<glyph unicode="j" horiz-adv-x="337" d="M-31 -238l12 98h52q44 0 63 24.5t19 74.5v471l-80 25v80l230 5v-527q0 -135 -48.5 -196.5t-171.5 -61.5zM97 705q0 40 24.5 65t61.5 25q84 0 84 -90q0 -40 -24.5 -65.5t-59.5 -25.5q-41 0 -63.5 23.5t-22.5 67.5z" />
<glyph unicode="k" horiz-adv-x="633" d="M20 0v80l80 25v562l-80 20v80l230 8v-436h66l68 102l-44 14v80l258 5v-85l-70 -13l-93 -131l112 -207l76 -24v-80h-185l-124 244h-64v-139l55 -25v-80h-285z" />
<glyph unicode="l" horiz-adv-x="346" d="M20 0v80l80 25v562l-80 20v80l231 8v-670l90 -25v-80h-321z" />
<glyph unicode="m" horiz-adv-x="993" d="M35 0v80l77 25v325l-76 25v80l209 5l7 -71q10 9 27 22.5t63 36t85 22.5q101 0 138 -86q15 15 35 31t63 35.5t83 19.5q77 0 115.5 -47t38.5 -133v-265l68 -25v-80h-271v80l53 25v238q0 42 -13.5 62t-44.5 20q-29 0 -56.5 -13t-41.5 -26l-13 -13v-268l52 -25v-80h-254v80 l52 25v238q0 43 -13 62.5t-44 19.5q-29 0 -57 -13t-41 -26l-14 -13v-268l53 -25v-80h-280z" />
<glyph unicode="n" horiz-adv-x="685" d="M35 0v80l80 25v325l-80 25v80l212 5l7 -69q11 9 29 21.5t66.5 34t88.5 21.5q72 0 112 -47.5t40 -130.5v-265l70 -25v-80h-275v80l55 25v238q0 35 -18.5 57.5t-49.5 22.5q-28 0 -54.5 -14.5t-39.5 -28.5l-13 -14v-261l55 -25v-80h-285z" />
<glyph unicode="o" horiz-adv-x="592" d="M35 265q0 134 73 209.5t197 75.5q121 0 186.5 -70.5t65.5 -199.5q0 -134 -72.5 -212t-194.5 -78q-255 0 -255 275zM190 270q0 -83 25 -121.5t80 -38.5t81 38.5t26 126.5q0 155 -102 155q-57 0 -83.5 -36.5t-26.5 -123.5z" />
<glyph unicode="p" horiz-adv-x="638" d="M20 455v80l213 5l9 -56q8 7 21.5 18t52 29.5t74.5 18.5q102 0 155 -70.5t53 -194.5q0 -141 -67 -218t-196 -77q-42 0 -85 10v-127l95 -23v-80h-323v80l78 23v557zM250 120q34 -15 78 -15q62 0 88.5 41t26.5 121q0 163 -100 163q-29 0 -52 -14t-32 -28l-9 -13v-255z" />
<glyph unicode="q" horiz-adv-x="598" d="M35 255q0 139 74 217t216 78q49 0 101 -6t80 -12l27 -6v-651l75 -25v-80h-320v80l95 25v169q-7 -6 -20.5 -15t-51 -24t-71.5 -15q-102 0 -153.5 70.5t-51.5 194.5zM190 265q0 -155 99 -155q28 0 51.5 11t33.5 23l9 11v272q-28 8 -78 8q-115 0 -115 -170z" />
<glyph unicode="r" horiz-adv-x="491" d="M35 0v80l80 25v325l-80 25v80l210 5l9 -69q8 9 22 22t50.5 35t66.5 22q24 0 47.5 -4.5t34.5 -9.5l11 -4l-8 -192h-90l-15 85q-26 0 -53 -14t-41 -28l-14 -14v-264l100 -25v-80h-330z" />
<glyph unicode="s" horiz-adv-x="487" d="M35 379q0 88 59 129.5t147 41.5q40 0 86.5 -7.5t72.5 -14.5l27 -8l-4 -150h-85l-15 60q-29 10 -69 10q-69 0 -69 -51q0 -22 27.5 -36.5t66.5 -26t78.5 -27t67 -48.5t27.5 -81q0 -85 -62.5 -132.5t-167.5 -47.5q-42 0 -88 5.5t-71 10.5l-25 6v163h90l8 -65q35 -10 84 -10 q82 0 82 49q0 22 -27.5 37.5t-67 28t-78.5 29.5t-66.5 51.5t-27.5 83.5z" />
<glyph unicode="t" horiz-adv-x="436" d="M15 415v97l93 13v138l150 27v-165h140v-110h-140v-220q0 -50 11 -70t42 -20q36 0 79 23l36 -76q-84 -62 -170 -62q-81 0 -114.5 50.5t-33.5 144.5v230h-93z" />
<glyph unicode="u" horiz-adv-x="669" d="M15 455v80l230 5v-345q0 -42 14 -61t47 -19q29 0 57 13.5t42 27.5l14 13v261l-80 25v80l230 5v-435l80 -20v-78l-211 -7l-10 70q-9 -9 -25 -22.5t-62 -35.5t-88 -22q-75 0 -116.5 47.5t-41.5 131.5v261z" />
<glyph unicode="v" horiz-adv-x="599" d="M5 455v80l262 5v-85l-56 -10l91 -295l88 292l-58 13v80l262 5v-85l-57 -13l-161 -442h-165l-158 439z" />
<glyph unicode="w" horiz-adv-x="876" d="M5 455v80l262 5v-85l-63 -12l66 -281l106 361l132 22l109 -383l59 278l-61 15v80l256 5v-85l-53 -12l-133 -443h-153l-79 255l-18 78l-25 -109l-73 -224h-152l-136 441z" />
<glyph unicode="x" horiz-adv-x="582" d="M5 0v80l75 20l110 165l-121 177l-54 13v80l259 5v-85l-30 -6l52 -88l104 174l167 5v-85l-62 -13l-115 -172l113 -170l74 -20v-80h-272v80l31 11l-53 88l-108 -179h-170z" />
<glyph unicode="y" d="M5 455v80l267 5v-85l-56 -10l89 -280l85 277l-58 13v80l269 5v-85l-62 -13l-147 -410q-22 -59 -41.5 -99.5t-51.5 -84t-77 -66t-102 -22.5l-97 8l14 107h65q28 0 51.5 12.5t40 36t24.5 38.5t18 37l-178 440z" />
<glyph unicode="z" horiz-adv-x="505" d="M40 0v92l254 338h-137l-15 -73h-90v183h420v-93l-250 -337h146l17 85h90v-195h-435z" />
<glyph unicode="{" horiz-adv-x="404" d="M30 245v100q53 0 74 27t21 77v141q0 97 45 141t137 44h67v-103q-71 0 -96 -21t-25 -81v-105q0 -69 -20.5 -110t-71.5 -60q92 -36 92 -142v-173q0 -60 25 -81t96 -21v-103h-67q-100 0 -141 49t-41 163v154q0 50 -21 77t-74 27z" />
<glyph unicode="|" horiz-adv-x="278" d="M80 -230v985h118v-985h-118z" />
<glyph unicode="}" horiz-adv-x="409" d="M40 -122q71 0 95.5 21t24.5 81v173q0 106 93 142q-93 36 -93 141v134q0 60 -24.5 81t-95.5 21v103h67q93 0 137.5 -44.5t44.5 -140.5v-141q0 -50 21 -77t74 -27v-100q-53 0 -74 -27t-21 -77v-154q0 -114 -42 -163t-141 -49h-66v103z" />
<glyph unicode="~" horiz-adv-x="626" d="M43 260q2 5 6.5 13t19.5 28t32 35.5t45 28.5t58 13q44 0 108.5 -33.5t98.5 -33.5q24 0 48 13.5t36 27.5l12 14l66 -50q-2 -5 -6.5 -13t-20 -28.5t-32.5 -36.5t-44 -29t-55 -13q-43 0 -112.5 33.5t-104.5 33.5q-24 0 -47 -13.5t-35 -27.5l-11 -13z" />
<glyph unicode="&#xa1;" horiz-adv-x="337" d="M82 466q0 42 25.5 66.5t61.5 24.5q83 0 83 -91q0 -41 -25.5 -65.5t-60.5 -24.5q-41 0 -62.5 23.5t-21.5 66.5zM92 -221l18 504l120 5l19 -509h-157z" />
<glyph unicode="&#xa2;" horiz-adv-x="510" d="M38 353q0 102 47.5 169t137.5 86v97h108v-91q32 -3 65.5 -11.5t51.5 -15.5l17 -7l-5 -152h-85l-14 69q-29 8 -64 8q-112 0 -112 -133q0 -157 119 -157q15 0 30 2.5t25.5 5.5t24 9t19.5 9.5t18.5 11t14.5 8.5l49 -78q-70 -62 -154 -75v-108h-108v110q-89 16 -137 80 t-48 163z" />
<glyph unicode="&#xa3;" horiz-adv-x="625" d="M60 0v85l50 20q29 12 38 33t9 69q0 10 -5 113h-92v93l85 14q-3 42 -3 83q0 98 52 152.5t161 54.5q57 0 110 -8.5t77 -17.5l25 -9v-162h-90l-20 74q-37 6 -85 6q-82 0 -82 -88q0 -42 2 -82h144v-110h-136q5 -58 5 -98q0 -30 -7.5 -54.5t-16 -36t-13.5 -11.5h186l23 100h93 v-220h-510z" />
<glyph unicode="&#xa4;" horiz-adv-x="624" d="M51 117l76 75q-22 47 -22 104q0 58 26 104l-79 80l74 80l80 -80q53 30 111 30q56 0 104 -25l77 76l74 -80l-74 -74q25 -47 25 -105q0 -61 -28 -111l78 -77l-75 -79l-79 78q-48 -28 -107 -28q-66 0 -111 27l-75 -75zM227 298q0 -109 87 -109q88 0 88 109q0 105 -88 105 q-87 0 -87 -105z" />
<glyph unicode="&#xa5;" horiz-adv-x="672" d="M10 615v85l282 5v-90l-51 -21l101 -209l106 208l-56 22v85l270 5v-90l-70 -27l-103 -185h95v-90h-500v90h94l-102 184zM84 163v90h500v-90h-172v-53l75 -25v-85h-305v85l75 25v53h-173z" />
<glyph unicode="&#xa6;" horiz-adv-x="297" d="M87 145h118v-410h-118v410zM87 365v400h118v-400h-118z" />
<glyph unicode="&#xa7;" horiz-adv-x="534" d="M62 349q0 97 70 148q-30 48 -30 107q0 81 56.5 132t144.5 51q39 0 78 -7.5t58 -15.5l19 -8l-4 -165h-79l-17 86q-25 6 -47 6q-37 0 -57.5 -19t-20.5 -49q0 -33 26 -62t63 -53t73.5 -51.5t62.5 -68.5t26 -92q0 -95 -70 -146q30 -47 30 -102q0 -85 -56 -136.5t-145 -51.5 q-37 0 -76 7t-59 15l-20 7l2 171h82l14 -88q21 -6 51 -6q36 0 56.5 18t20.5 49q0 32 -26 60t-63 52t-74 51t-63 68.5t-26 92.5zM188 366q0 -28 19.5 -50t68.5 -54.5t65 -45.5q18 22 18 56q0 28 -19.5 50t-69 54.5t-65.5 44.5q-17 -23 -17 -55z" />
<glyph unicode="&#xa8;" horiz-adv-x="544" d="M90 712q0 35 21.5 56.5t52.5 21.5q35 0 53.5 -20.5t18.5 -57.5q0 -36 -21.5 -57t-52.5 -21q-72 0 -72 78zM308 712q0 35 22 56.5t52 21.5q72 0 72 -78q0 -36 -21.5 -57t-52.5 -21q-72 0 -72 78z" />
<glyph unicode="&#xa9;" horiz-adv-x="823" d="M37 345q0 161 106.5 267.5t267.5 106.5q162 0 268 -102t106 -262t-111 -267t-273 -107q-161 0 -262.5 101t-101.5 263zM139 350q0 -123 73 -199t194 -76q122 0 199.5 76.5t77.5 198.5q0 121 -77.5 198t-199.5 77q-121 0 -194 -76.5t-73 -198.5zM224 342q0 97 51.5 154 t143.5 57q28 0 60 -7.5t51 -15.5l18 -7l-3 -112h-69l-11 55q-25 6 -48 6q-83 0 -83 -117q0 -120 87 -120q28 0 57 12.5t45 25.5l37 -57q-77 -64 -152 -64q-85 0 -134.5 49.5t-49.5 140.5z" />
<glyph unicode="&#xaa;" horiz-adv-x="488" d="M45 431q0 118 171 118h46v36q0 22 -13.5 34t-36.5 12q-15 0 -30.5 -2.5t-23.5 -4.5l-8 -2l-9 -43h-71l-6 109q95 29 163 29q82 0 115 -33.5t33 -109.5v-168l53 -12v-66l-139 -6l-14 50q-6 -6 -16 -15.5t-40.5 -25.5t-60.5 -16q-54 0 -83.5 30t-29.5 86zM55 135v100h373 v-100h-373zM153 439q0 -16 11 -26t29 -10q16 0 33.5 8.5t26.5 16.5l9 9v47h-39q-70 0 -70 -45z" />
<glyph unicode="&#xab;" horiz-adv-x="599" d="M55 226v77l152 177l83 -55l-109 -160l109 -160l-83 -56zM305 226v77l156 177l83 -55l-113 -160l113 -160l-83 -56z" />
<glyph unicode="&#xac;" horiz-adv-x="642" d="M60 260v115h527v-295h-127v180h-400z" />
<glyph unicode="&#xad;" horiz-adv-x="395" d="M55 210v125h285v-125h-285z" />
<glyph unicode="&#xae;" horiz-adv-x="723" d="M45 449q0 137 90.5 227t226.5 90t226 -85.5t90 -220.5q0 -136 -94.5 -226.5t-232.5 -90.5q-135 0 -220.5 85t-85.5 221zM143 455q0 -101 57.5 -162.5t156.5 -61.5q100 0 162 62t62 162t-62 161.5t-162 61.5q-99 0 -156.5 -61t-57.5 -162zM222 302v45l34 12v198l-34 14v42 l143 2q56 1 89.5 -22.5t33.5 -68.5q0 -58 -53 -84q8 -5 17 -22l31 -59l33 -12v-45h-90l-41 91q-8 18 -14 24t-15 6h-23v-64l33 -12v-45h-144zM333 476h26q21 0 36 11t15 29q0 40 -44 40h-33v-80z" />
<glyph unicode="&#xaf;" horiz-adv-x="310" d="M5 642v105h300v-105h-300z" />
<glyph unicode="&#xb0;" horiz-adv-x="426" d="M45 580q0 72 47 116.5t121 44.5t121 -42.5t47 -113.5q0 -76 -47 -121t-121 -45q-75 0 -121.5 43t-46.5 118zM145 584q0 -36 17.5 -56t50.5 -20t50.5 20t17.5 56q0 32 -18.5 50t-49.5 18t-49.5 -18t-18.5 -50z" />
<glyph unicode="&#xb1;" horiz-adv-x="622" d="M52 -36v114h518v-114h-518zM52 288v117h193v147h133v-147h192v-117h-192v-151h-133v151h-193z" />
<glyph unicode="&#xb2;" horiz-adv-x="404" d="M33 280v100q127 97 154 125q38 40 38 74q0 39 -51 39q-11 0 -21.5 -2t-16.5 -4l-5 -1l-7 -53h-85l-3 132q77 25 148 25q82 0 129.5 -29.5t47.5 -90.5q0 -57 -34 -99t-123 -111h161v-105h-332z" />
<glyph unicode="&#xb3;" horiz-adv-x="395" d="M17 310l27 84q62 -27 119 -27q31 0 49.5 14.5t18.5 32.5q0 45 -73 45h-54v75h55q68 0 68 48q0 40 -55 40l-53 -6l-5 -42h-82l-3 118q86 23 155 23q81 0 124.5 -28.5t43.5 -82.5q0 -39 -22 -64.5t-59 -35.5q38 -7 64.5 -33.5t26.5 -63.5q0 -68 -53.5 -101.5t-136.5 -33.5 q-35 0 -73.5 9.5t-60.5 18.5z" />
<glyph unicode="&#xb4;" horiz-adv-x="291" d="M0 673l223 178l68 -104l-242 -147z" />
<glyph unicode="&#xb5;" horiz-adv-x="659" d="M17 452v80l221 8v-349q0 -74 58 -74q29 0 58.5 13.5t45.5 27.5l15 14v260l-74 20v80l221 8v-435l76 -20v-78l-203 -7l-10 71q-9 -9 -24.5 -22.5t-55.5 -36t-70 -22.5q-21 0 -37 6v-231h-147v667z" />
<glyph unicode="&#xb6;" horiz-adv-x="721" d="M50 491q0 93 60.5 153.5t164.5 60.5h185l206 -8v-80l-80 -20v-767h-126v767h-105v-767h-201v83l82 22v338q-80 8 -133 69.5t-53 148.5z" />
<glyph unicode="&#xb7;" horiz-adv-x="299" d="M61 306q0 44 25 69t65 25q86 0 86 -94q0 -44 -24.5 -68.5t-64.5 -24.5q-87 0 -87 93z" />
<glyph unicode="&#xb8;" horiz-adv-x="431" d="M95 -201l31 55q40 -21 78 -21q23 0 36.5 10.5t13.5 27.5q0 43 -82 43v86h85v-43q40 -8 63 -31t23 -58q0 -45 -35 -73t-91 -28q-30 0 -60.5 8t-46.5 16z" />
<glyph unicode="&#xb9;" horiz-adv-x="393" d="M15 606l158 99h109v-336h91v-89h-314v89h96v209l-91 -55z" />
<glyph unicode="&#xba;" horiz-adv-x="504" d="M45 510q0 94 57.5 150.5t146.5 56.5t139.5 -50.5t50.5 -142.5t-56.5 -150.5t-145.5 -58.5q-90 0 -141 49.5t-51 145.5zM53 135v100h378v-100h-378zM170 514q0 -107 72 -107t72 113q0 105 -70 105q-74 0 -74 -111z" />
<glyph unicode="&#xbb;" horiz-adv-x="599" d="M55 105l113 160l-113 160l83 55l156 -177v-77l-156 -177zM309 105l109 160l-109 160l83 55l152 -177v-77l-152 -177z" />
<glyph unicode="&#xbc;" horiz-adv-x="1072" d="M45 606l158 99h109v-336h80v-89h-303v89h96v209l-91 -55zM255 0l408 705h145l-408 -705h-145zM618 161l197 269l144 -17v-243h58v-93h-58v-77h-127v77h-200zM737 170h95v127z" />
<glyph unicode="&#xbd;" horiz-adv-x="1075" d="M45 606l158 99h109v-336h80v-89h-303v89h96v209l-91 -55zM256 0l408 705h145l-408 -705h-145zM683 0v100q126 97 150 122q42 42 42 78q0 38 -52 38q-11 0 -21.5 -2t-15.5 -4l-6 -1l-6 -53h-85l-3 132q76 25 147 25q83 0 130.5 -29.5t47.5 -90.5q0 -57 -34 -99t-123 -111 h161v-105h-332z" />
<glyph unicode="&#xbe;" horiz-adv-x="1054" d="M40 301l27 84q61 -26 118 -26q26 0 47.5 12.5t21.5 34.5q0 45 -74 45h-53v74h55q67 0 67 50q0 39 -54 39q-13 0 -26.5 -2t-20.5 -4l-7 -1l-5 -41h-81l-4 117q87 23 156 23q81 0 124 -28.5t43 -81.5q0 -79 -81 -101q37 -6 64.5 -33t27.5 -64q0 -67 -53.5 -100.5 t-136.5 -33.5q-35 0 -74 9t-60 19zM238 0l408 705h145l-408 -705h-145zM601 161l196 269l144 -17v-243h58v-93h-58v-77h-127v77h-199zM717 170h97v132z" />
<glyph unicode="&#xbf;" horiz-adv-x="461" d="M50 -70q0 43 18.5 81t45 66t53 53t45 51.5t18.5 51.5l-2 58l132 6q9 -65 9 -98q0 -32 -26.5 -65.5t-57.5 -57t-57.5 -55.5t-26.5 -63q0 -66 90 -66q19 0 41 3t35 5l13 3l19 -104q-84 -24 -149 -24q-54 0 -97 13.5t-73 49.5t-30 92zM200 466q0 42 25 66.5t61 24.5 q41 0 62.5 -23.5t21.5 -67.5q0 -41 -25.5 -65.5t-60.5 -24.5q-41 0 -62.5 23.5t-21.5 66.5z" />
<glyph unicode="&#xc0;" horiz-adv-x="748" d="M5 0v85l73 28l220 589l160 3l215 -592l70 -28v-85h-318v85l75 27l-24 73h-222l-25 -72l78 -28v-85h-302zM245 847l58 109l215 -141l-46 -80zM289 292h154l-75 237z" />
<glyph unicode="&#xc1;" horiz-adv-x="748" d="M5 0v85l73 28l220 589l160 3l215 -592l70 -28v-85h-318v85l75 27l-24 73h-222l-25 -72l78 -28v-85h-302zM289 292h154l-75 237zM306 815l215 141l58 -109l-227 -112z" />
<glyph unicode="&#xc2;" horiz-adv-x="758" d="M5 0v85l73 28l220 589l160 3l215 -592l70 -28v-85h-318v85l75 27l-24 73h-222l-25 -72l78 -28v-85h-302zM180 808l153 131l89 8l162 -139l-48 -66l-151 98l-157 -98zM289 292h154l-75 237z" />
<glyph unicode="&#xc3;" horiz-adv-x="758" d="M5 0v85l73 28l220 589l160 3l215 -592l70 -28v-85h-318v85l75 27l-24 73h-222l-25 -72l78 -28v-85h-302zM180 816q2 4 5 11.5t15 26.5t25 33.5t35 26.5t45 12q36 0 90.5 -23t83.5 -23q17 0 34.5 10.5t26.5 21.5l8 10l55 -42q-2 -4 -6 -11t-17.5 -25t-28 -32t-37.5 -25 t-46 -11q-36 0 -87.5 19.5t-80.5 19.5q-19 0 -37 -9.5t-27 -19.5l-8 -9zM289 292h154l-75 237z" />
<glyph unicode="&#xc4;" horiz-adv-x="748" d="M5 0v85l73 28l220 589l160 3l215 -592l70 -28v-85h-318v85l75 27l-24 73h-222l-25 -72l78 -28v-85h-302zM226 847q0 35 21.5 56.5t52.5 21.5q35 0 53.5 -20.5t18.5 -57.5q0 -36 -21.5 -57t-52.5 -21q-72 0 -72 78zM289 292h154l-75 237zM444 847q0 35 22 56.5t52 21.5 q72 0 72 -78q0 -36 -21.5 -57t-52.5 -21q-72 0 -72 78z" />
<glyph unicode="&#xc5;" horiz-adv-x="748" d="M5 0v85l73 28l220 589h1q-49 35 -49 100q0 60 40.5 96.5t93.5 36.5t93 -34t40 -93q0 -71 -57 -109l213 -586l70 -28v-85h-318v85l75 27l-24 73h-222l-25 -72l78 -28v-85h-302zM289 292h154l-75 237zM335 805q0 -57 49 -57q21 0 34.5 15t13.5 43q0 57 -48 57 q-22 0 -35.5 -15t-13.5 -43z" />
<glyph unicode="&#xc6;" horiz-adv-x="971" d="M5 0v85l84 30l229 470l-85 30v85l191 5h485v-195h-93l-25 75h-162v-165h202v-110h-202v-190h177l23 82h92v-202h-521v85l74 30v77h-193l-39 -81l61 -26v-85h-298zM328 300h146v285h-14z" />
<glyph unicode="&#xc7;" horiz-adv-x="667" d="M55 342q0 175 91 275t246 100q54 0 112 -11.5t90 -23.5l31 -12l-5 -190h-98l-23 96q-47 16 -112 16q-165 0 -165 -245q0 -230 170 -230q44 0 91.5 17.5t72.5 35.5l26 17l55 -90q-3 -3 -9.5 -9t-27.5 -22t-43.5 -29t-57.5 -26t-71 -19v-36q85 -17 85 -90q0 -44 -36 -72 t-90 -28q-30 0 -61.5 8.5t-47.5 17.5l-16 8l32 56q42 -23 82 -23q21 0 33.5 10t12.5 27q0 43 -82 43v77q-137 9 -211 99t-74 253z" />
<glyph unicode="&#xc8;" horiz-adv-x="622" d="M45 0v85l75 30v470l-75 30v85l230 5h280v-193h-90l-25 73h-165v-165h202v-110h-202v-190h179l23 82h90v-202h-522zM159 847l58 109l215 -141l-46 -80z" />
<glyph unicode="&#xc9;" horiz-adv-x="622" d="M45 0v85l75 30v470l-75 30v85l230 5h280v-193h-90l-25 73h-165v-165h202v-110h-202v-190h179l23 82h90v-202h-522zM220 815l215 141l58 -109l-227 -112z" />
<glyph unicode="&#xca;" horiz-adv-x="622" d="M45 0v85l75 30v470l-75 30v85l230 5h280v-193h-90l-25 73h-165v-165h202v-110h-202v-190h179l23 82h90v-202h-522zM127 808l153 131l89 8l162 -139l-48 -66l-151 98l-157 -98z" />
<glyph unicode="&#xcb;" horiz-adv-x="622" d="M45 0v85l75 30v470l-75 30v85l230 5h280v-193h-90l-25 73h-165v-165h202v-110h-202v-190h179l23 82h90v-202h-522zM140 848q0 35 21.5 56.5t52.5 21.5q35 0 53.5 -20.5t18.5 -57.5q0 -36 -21.5 -57t-52.5 -21q-72 0 -72 78zM358 848q0 35 22 56.5t52 21.5q72 0 72 -78 q0 -36 -21.5 -57t-52.5 -21q-72 0 -72 78z" />
<glyph unicode="&#xcc;" horiz-adv-x="385" d="M19 847l58 109l215 -141l-46 -80zM40 0v85l75 30v470l-75 30v85l305 5v-90l-75 -30v-470l75 -30v-85h-305z" />
<glyph unicode="&#xcd;" horiz-adv-x="385" d="M40 0v85l75 30v470l-75 30v85l305 5v-90l-75 -30v-470l75 -30v-85h-305zM87 815l215 141l58 -109l-227 -112z" />
<glyph unicode="&#xce;" horiz-adv-x="385" d="M-15 808l153 131l89 8l162 -139l-48 -66l-151 98l-157 -98zM40 0v85l75 30v470l-75 30v85l305 5v-90l-75 -30v-470l75 -30v-85h-305z" />
<glyph unicode="&#xcf;" horiz-adv-x="404" d="M26 847q0 35 21.5 56.5t52.5 21.5q35 0 53.5 -20.5t18.5 -57.5q0 -36 -21.5 -57t-52.5 -21q-72 0 -72 78zM54 0v85l75 30v470l-75 30v85l305 5v-90l-75 -30v-470l75 -30v-85h-305zM234 847q0 35 22 56.5t52 21.5q72 0 72 -78q0 -36 -21.5 -57t-52.5 -21q-72 0 -72 78z " />
<glyph unicode="&#xd0;" horiz-adv-x="741" d="M40 0v85l75 30v197h-68v110h68v163l-75 30v85l230 5h99q151 0 234 -88t83 -255q0 -168 -90 -265t-242 -97h-314zM269 120h87q79 0 121 54.5t42 182.5q0 121 -39.5 174.5t-115.5 53.5h-95v-163h121v-110h-121v-192z" />
<glyph unicode="&#xd1;" horiz-adv-x="785" d="M35 0v85l75 30v470l-75 30v85l240 5l270 -462v342l-73 30v85l285 5v-90l-75 -30v-585h-167l-268 453v-338l78 -30v-85h-290zM182 816q2 4 5 11.5t15 26.5t25 33.5t35 26.5t45 12q36 0 90.5 -23t83.5 -23q17 0 34.5 10.5t26.5 21.5l8 10l55 -42q-2 -4 -6 -11t-17.5 -25 t-28 -32t-37.5 -25t-46 -11q-36 0 -87.5 19.5t-80.5 19.5q-19 0 -37 -9.5t-27 -19.5l-8 -9z" />
<glyph unicode="&#xd2;" horiz-adv-x="755" d="M55 347q0 172 88.5 271t241.5 99q150 0 232.5 -93.5t82.5 -261.5q0 -169 -92.5 -272t-242.5 -103t-230 92t-80 268zM209 847l58 109l215 -141l-46 -80zM225 352q0 -124 35 -182t110 -58q78 0 119 57.5t41 187.5q0 122 -37 178.5t-113 56.5q-78 0 -116.5 -55.5 t-38.5 -184.5z" />
<glyph unicode="&#xd3;" horiz-adv-x="755" d="M55 347q0 172 88.5 271t241.5 99q150 0 232.5 -93.5t82.5 -261.5q0 -169 -92.5 -272t-242.5 -103t-230 92t-80 268zM225 352q0 -124 35 -182t110 -58q78 0 119 57.5t41 187.5q0 122 -37 178.5t-113 56.5q-78 0 -116.5 -55.5t-38.5 -184.5zM265 815l215 141l58 -109 l-227 -112z" />
<glyph unicode="&#xd4;" horiz-adv-x="755" d="M55 347q0 172 88.5 271t241.5 99q150 0 232.5 -93.5t82.5 -261.5q0 -169 -92.5 -272t-242.5 -103t-230 92t-80 268zM179 808l153 131l89 8l162 -139l-48 -66l-151 98l-157 -98zM225 352q0 -124 35 -182t110 -58q78 0 119 57.5t41 187.5q0 122 -37 178.5t-113 56.5 q-78 0 -116.5 -55.5t-38.5 -184.5z" />
<glyph unicode="&#xd5;" horiz-adv-x="755" d="M55 347q0 172 88.5 271t241.5 99q150 0 232.5 -93.5t82.5 -261.5q0 -169 -92.5 -272t-242.5 -103t-230 92t-80 268zM164 816q2 4 5 11.5t15 26.5t25 33.5t35 26.5t45 12q36 0 90.5 -23t83.5 -23q17 0 34.5 10.5t26.5 21.5l8 10l55 -42q-2 -4 -6 -11t-17.5 -25t-28 -32 t-37.5 -25t-46 -11q-36 0 -87.5 19.5t-80.5 19.5q-19 0 -37 -9.5t-27 -19.5l-8 -9zM225 352q0 -124 35 -182t110 -58q78 0 119 57.5t41 187.5q0 122 -37 178.5t-113 56.5q-78 0 -116.5 -55.5t-38.5 -184.5z" />
<glyph unicode="&#xd6;" horiz-adv-x="755" d="M55 347q0 172 88.5 271t241.5 99q150 0 232.5 -93.5t82.5 -261.5q0 -169 -92.5 -272t-242.5 -103t-230 92t-80 268zM194 847q0 35 21.5 56.5t52.5 21.5q35 0 53.5 -20.5t18.5 -57.5q0 -36 -21.5 -57t-52.5 -21q-72 0 -72 78zM225 352q0 -124 35 -182t110 -58 q78 0 119 57.5t41 187.5q0 122 -37 178.5t-113 56.5q-78 0 -116.5 -55.5t-38.5 -184.5zM412 847q0 35 22 56.5t52 21.5q72 0 72 -78q0 -36 -21.5 -57t-52.5 -21q-72 0 -72 78z" />
<glyph unicode="&#xd7;" horiz-adv-x="613" d="M53 101l169 169l-169 169l84 85l169 -170l170 170l84 -85l-169 -169l169 -169l-84 -85l-170 170l-169 -170z" />
<glyph unicode="&#xd8;" horiz-adv-x="765" d="M60 347q0 172 89 271t241 99q78 0 139 -27l62 103l89 -51l-67 -109q92 -94 92 -271q0 -168 -92.5 -271t-242.5 -103q-76 0 -135 24l-74 -122l-89 51l78 128q-90 92 -90 278zM228 363q0 -86 21 -132q27 45 209 344q-32 17 -73 17q-77 0 -117 -54t-40 -175zM306 129 q29 -17 69 -17q163 0 163 245q0 70 -22 116z" />
<glyph unicode="&#xd9;" horiz-adv-x="789" d="M35 615v85l307 5v-90l-78 -30v-315q0 -87 29 -123.5t102 -36.5q76 0 102.5 40.5t26.5 134.5v300l-78 30v85l308 5v-90l-75 -30v-300q0 -150 -66.5 -223.5t-222.5 -73.5q-149 0 -215 68t-66 214v315zM219 847l58 109l215 -141l-46 -80z" />
<glyph unicode="&#xda;" horiz-adv-x="789" d="M35 615v85l307 5v-90l-78 -30v-315q0 -87 29 -123.5t102 -36.5q76 0 102.5 40.5t26.5 134.5v300l-78 30v85l308 5v-90l-75 -30v-300q0 -150 -66.5 -223.5t-222.5 -73.5q-149 0 -215 68t-66 214v315zM285 815l215 141l58 -109l-227 -112z" />
<glyph unicode="&#xdb;" horiz-adv-x="789" d="M35 615v85l307 5v-90l-78 -30v-315q0 -87 29 -123.5t102 -36.5q76 0 102.5 40.5t26.5 134.5v300l-78 30v85l308 5v-90l-75 -30v-300q0 -150 -66.5 -223.5t-222.5 -73.5q-149 0 -215 68t-66 214v315zM190 808l153 131l89 8l162 -139l-48 -66l-151 98l-157 -98z" />
<glyph unicode="&#xdc;" horiz-adv-x="789" d="M35 615v85l307 5v-90l-78 -30v-315q0 -87 29 -123.5t102 -36.5q76 0 102.5 40.5t26.5 134.5v300l-78 30v85l308 5v-90l-75 -30v-300q0 -150 -66.5 -223.5t-222.5 -73.5q-149 0 -215 68t-66 214v315zM213 847q0 35 21.5 56.5t52.5 21.5q35 0 53.5 -20.5t18.5 -57.5 q0 -36 -21.5 -57t-52.5 -21q-72 0 -72 78zM431 847q0 35 22 56.5t52 21.5q72 0 72 -78q0 -36 -21.5 -57t-52.5 -21q-72 0 -72 78z" />
<glyph unicode="&#xdd;" horiz-adv-x="667" d="M7 615v85l283 5v-90l-51 -21l100 -215l106 214l-55 22v85l270 5v-90l-69 -27l-181 -343v-130l75 -30v-85h-305v85l75 30v129l-183 344zM260 815l215 141l58 -109l-227 -112z" />
<glyph unicode="&#xde;" horiz-adv-x="629" d="M35 0v85l75 30v470l-75 30v85l315 5v-90l-85 -30v-30h99q114 0 177 -48t63 -137q0 -108 -75.5 -159t-209.5 -51h-54v-45l85 -30v-85h-315zM265 267h64q58 0 90 23.5t32 69.5q0 41 -28.5 63t-76.5 22h-81v-178z" />
<glyph unicode="&#xdf;" horiz-adv-x="753" d="M35 420v87l100 15v48q0 98 66.5 157.5t176.5 59.5q120 0 186 -45.5t66 -123.5q0 -40 -17.5 -72.5t-39 -50t-39 -40.5t-17.5 -45q0 -25 24 -43.5t57.5 -32.5t67.5 -31t58 -50.5t24 -80.5q0 -82 -61 -132t-158 -50q-36 0 -78.5 5.5t-67.5 10.5l-25 6v161h90l10 -67 q27 -11 66 -11q72 0 72 54q0 24 -24 41.5t-58 31.5t-67.5 32t-57.5 53t-24 84q0 39 18.5 69.5t40.5 46.5t40.5 39.5t18.5 50.5q0 38 -31 59t-72 21q-46 0 -71.5 -26.5t-25.5 -73.5v-577h-228v80l80 25v315h-100z" />
<glyph unicode="&#xe0;" d="M40 147q0 165 241 165h70v55q0 73 -77 73q-23 0 -45 -4t-33 -8l-10 -3l-15 -63h-90l-7 148q121 40 217 40q114 0 162 -45t48 -153v-247l75 -18v-80l-200 -7l-18 65q-9 -8 -24 -20.5t-57.5 -33.5t-80.5 -21q-73 0 -114.5 41t-41.5 116zM111 745l68 104l223 -178l-49 -73z M185 162q0 -60 59 -60q24 0 50.5 14.5t41.5 29.5l15 14v67h-57q-58 0 -83.5 -15.5t-25.5 -49.5z" />
<glyph unicode="&#xe1;" d="M40 147q0 165 241 165h70v55q0 73 -77 73q-23 0 -45 -4t-33 -8l-10 -3l-15 -63h-90l-7 148q121 40 217 40q114 0 162 -45t48 -153v-247l75 -18v-80l-200 -7l-18 65q-9 -8 -24 -20.5t-57.5 -33.5t-80.5 -21q-73 0 -114.5 41t-41.5 116zM145 673l223 178l68 -104l-242 -147 zM185 162q0 -60 59 -60q24 0 50.5 14.5t41.5 29.5l15 14v67h-57q-58 0 -83.5 -15.5t-25.5 -49.5z" />
<glyph unicode="&#xe2;" d="M40 147q0 165 241 165h70v55q0 73 -77 73q-23 0 -45 -4t-33 -8l-10 -3l-15 -63h-90l-7 148q121 40 217 40q114 0 162 -45t48 -153v-247l75 -18v-80l-200 -7l-18 65q-9 -8 -24 -20.5t-57.5 -33.5t-80.5 -21q-73 0 -114.5 41t-41.5 116zM67 664l164 153l89 8l175 -161 l-48 -66l-164 120l-168 -120zM185 162q0 -60 59 -60q24 0 50.5 14.5t41.5 29.5l15 14v67h-57q-58 0 -83.5 -15.5t-25.5 -49.5z" />
<glyph unicode="&#xe3;" d="M40 147q0 165 241 165h70v55q0 73 -77 73q-23 0 -45 -4t-33 -8l-10 -3l-15 -63h-90l-7 148q121 40 217 40q114 0 162 -45t48 -153v-247l75 -18v-80l-200 -7l-18 65q-9 -8 -24 -20.5t-57.5 -33.5t-80.5 -21q-73 0 -114.5 41t-41.5 116zM69 676q2 4 5 11.5t15 26.5t25 33.5 t35 26.5t45 12q36 0 86.5 -23t79.5 -23q17 0 34.5 10.5t25.5 21.5l9 10l53 -46q-2 -4 -5.5 -11.5t-15 -26.5t-25 -33t-35 -26t-44.5 -12q-36 0 -87.5 22t-80.5 22q-19 0 -37 -10.5t-27 -20.5l-9 -10zM185 162q0 -60 59 -60q24 0 50.5 14.5t41.5 29.5l15 14v67h-57 q-58 0 -83.5 -15.5t-25.5 -49.5z" />
<glyph unicode="&#xe4;" d="M40 147q0 165 241 165h70v55q0 73 -77 73q-23 0 -45 -4t-33 -8l-10 -3l-15 -63h-90l-7 148q121 40 217 40q114 0 162 -45t48 -153v-247l75 -18v-80l-200 -7l-18 65q-9 -8 -24 -20.5t-57.5 -33.5t-80.5 -21q-73 0 -114.5 41t-41.5 116zM104 698q0 35 21.5 56.5t52.5 21.5 q35 0 53.5 -20.5t18.5 -57.5q0 -36 -21.5 -57t-52.5 -21q-72 0 -72 78zM185 162q0 -60 59 -60q24 0 50.5 14.5t41.5 29.5l15 14v67h-57q-58 0 -83.5 -15.5t-25.5 -49.5zM322 698q0 35 22 56.5t52 21.5q72 0 72 -78q0 -36 -21.5 -57t-52.5 -21q-72 0 -72 78z" />
<glyph unicode="&#xe5;" d="M40 147q0 165 241 165h70v55q0 73 -77 73q-23 0 -45 -4t-33 -8l-10 -3l-15 -63h-90l-7 148q121 40 217 40q114 0 162 -45t48 -153v-247l75 -18v-80l-200 -7l-18 65q-9 -8 -24 -20.5t-57.5 -33.5t-80.5 -21q-73 0 -114.5 41t-41.5 116zM162 724q0 60 40.5 96.5t93.5 36.5 t93 -34t40 -93t-40.5 -96t-92.5 -37q-54 0 -94 34t-40 93zM185 162q0 -60 59 -60q24 0 50.5 14.5t41.5 29.5l15 14v67h-57q-58 0 -83.5 -15.5t-25.5 -49.5zM247 727q0 -57 49 -57q21 0 34.5 15t13.5 43q0 57 -48 57q-22 0 -35.5 -15t-13.5 -43z" />
<glyph unicode="&#xe6;" horiz-adv-x="866" d="M40 147q0 165 240 165h70v55q0 72 -77 72q-22 0 -44 -3.5t-33 -7.5l-11 -4l-15 -62h-90l-7 148q0 2 33 11t86.5 18.5t95.5 9.5q112 0 156 -58q67 59 166 59q108 0 167 -62t59 -172q0 -17 -1.5 -36.5t-2.5 -31.5l-2 -13h-331q4 -59 36.5 -92t84.5 -33q37 0 78.5 12 t64.5 24l23 11l44 -83q-12 -9 -33 -23t-81.5 -37.5t-115.5 -23.5q-146 0 -208 100q-85 -100 -197 -100q-71 0 -113 42t-42 115zM183 162q0 -28 15.5 -44t44.5 -16q23 0 50 15t42 30l15 15v65h-57q-58 0 -84 -15.5t-26 -49.5zM499 325h183q0 105 -82 105q-42 0 -68.5 -28 t-32.5 -77z" />
<glyph unicode="&#xe7;" horiz-adv-x="525" d="M35 262q0 134 72.5 211t202.5 77q38 0 82 -8.5t68 -17.5l25 -9l-5 -163h-90l-14 70q-29 8 -69 8q-55 0 -86 -37t-31 -111q0 -83 31.5 -127.5t93.5 -44.5q20 0 38 3.5t35 10.5t26.5 12t26 15t19.5 12l50 -88q-79 -68 -171 -81v-34q39 -8 62.5 -31.5t23.5 -58.5 q0 -43 -36 -71t-89 -28q-30 0 -61 8t-47 16l-16 8l31 55q42 -21 82 -21q22 0 34.5 10t12.5 27q0 21 -22.5 32.5t-60.5 11.5v75q-104 11 -161 81.5t-57 187.5z" />
<glyph unicode="&#xe8;" horiz-adv-x="564" d="M35 260q0 133 71 211.5t196 78.5q110 0 168.5 -63t58.5 -172q0 -17 -1.5 -35.5t-3.5 -30.5l-1 -12h-332q4 -60 36.5 -93.5t84.5 -33.5q37 0 79 12t65 24l24 11l43 -83q-11 -9 -31 -23t-80 -37.5t-117 -23.5q-127 0 -193.5 70.5t-66.5 199.5zM126 745l68 104l223 -178 l-49 -73zM193 330h181q0 45 -20 72.5t-62 27.5q-41 0 -67 -27.5t-32 -72.5z" />
<glyph unicode="&#xe9;" horiz-adv-x="564" d="M35 260q0 133 71 211.5t196 78.5q110 0 168.5 -63t58.5 -172q0 -17 -1.5 -35.5t-3.5 -30.5l-1 -12h-332q4 -60 36.5 -93.5t84.5 -33.5q37 0 79 12t65 24l24 11l43 -83q-11 -9 -31 -23t-80 -37.5t-117 -23.5q-127 0 -193.5 70.5t-66.5 199.5zM168 671l223 178l68 -104 l-242 -147zM193 330h181q0 45 -20 72.5t-62 27.5q-41 0 -67 -27.5t-32 -72.5z" />
<glyph unicode="&#xea;" horiz-adv-x="564" d="M35 260q0 133 71 211.5t196 78.5q110 0 168.5 -63t58.5 -172q0 -17 -1.5 -35.5t-3.5 -30.5l-1 -12h-332q4 -60 36.5 -93.5t84.5 -33.5q37 0 79 12t65 24l24 11l43 -83q-11 -9 -31 -23t-80 -37.5t-117 -23.5q-127 0 -193.5 70.5t-66.5 199.5zM72 664l164 153l89 8 l175 -161l-48 -66l-164 120l-168 -120zM193 330h181q0 45 -20 72.5t-62 27.5q-41 0 -67 -27.5t-32 -72.5z" />
<glyph unicode="&#xeb;" horiz-adv-x="564" d="M35 260q0 133 71 211.5t196 78.5q110 0 168.5 -63t58.5 -172q0 -17 -1.5 -35.5t-3.5 -30.5l-1 -12h-332q4 -60 36.5 -93.5t84.5 -33.5q37 0 79 12t65 24l24 11l43 -83q-11 -9 -31 -23t-80 -37.5t-117 -23.5q-127 0 -193.5 70.5t-66.5 199.5zM104 698q0 35 21.5 56.5 t52.5 21.5q35 0 53.5 -20.5t18.5 -57.5q0 -36 -21.5 -57t-52.5 -21q-72 0 -72 78zM193 330h181q0 45 -20 72.5t-62 27.5q-41 0 -67 -27.5t-32 -72.5zM322 698q0 35 22 56.5t52 21.5q72 0 72 -78q0 -36 -21.5 -57t-52.5 -21q-72 0 -72 78z" />
<glyph unicode="&#xec;" horiz-adv-x="362" d="M25 745l68 104l223 -178l-49 -73zM35 0v80l80 25v327l-80 20v80l227 8v-435l70 -25v-80h-297z" />
<glyph unicode="&#xed;" horiz-adv-x="362" d="M35 0v80l80 25v327l-80 20v80l227 8v-435l70 -25v-80h-297zM54 671l223 178l68 -104l-242 -147z" />
<glyph unicode="&#xee;" horiz-adv-x="363" d="M-28 664l156 153l89 8l166 -161l-49 -66l-154 120l-159 -120zM35 0v80l80 25v327l-80 20v80l227 8v-435l70 -25v-80h-297z" />
<glyph unicode="&#xef;" horiz-adv-x="362" d="M-1 698q0 35 21.5 56.5t52.5 21.5q35 0 53.5 -20.5t18.5 -57.5q0 -36 -21.5 -57t-52.5 -21q-72 0 -72 78zM35 0v80l80 25v327l-80 20v80l227 8v-435l70 -25v-80h-297zM207 698q0 35 22 56.5t52 21.5q72 0 72 -78q0 -36 -21.5 -57t-52.5 -21q-72 0 -72 78z" />
<glyph unicode="&#xf0;" horiz-adv-x="578" d="M35 240q0 123 70.5 194t184.5 71q40 0 78 -22q-27 72 -78 120l-117 -67l-58 79l88 50q-41 22 -85 37l46 87q78 -19 147 -61l105 61l58 -79l-81 -46q145 -143 145 -392q0 -129 -70 -206.5t-188 -77.5q-115 0 -180 64t-65 188zM190 245q0 -142 95 -142q53 0 75.5 37.5 t22.5 109.5q0 70 -20.5 105t-72.5 35q-100 0 -100 -145z" />
<glyph unicode="&#xf1;" horiz-adv-x="685" d="M35 0v80l80 25v325l-80 25v80l212 5l7 -69q11 9 29 21.5t66.5 34t88.5 21.5q72 0 112 -47.5t40 -130.5v-265l70 -25v-80h-275v80l55 25v238q0 35 -18.5 57.5t-49.5 22.5q-28 0 -54.5 -14.5t-39.5 -28.5l-13 -14v-261l55 -25v-80h-285zM133 676q2 4 5 11.5t15 26.5 t25 33.5t35 26.5t45 12q36 0 86.5 -23t79.5 -23q17 0 34.5 10.5t25.5 21.5l9 10l53 -46q-2 -4 -5.5 -11.5t-15 -26.5t-25 -33t-35 -26t-44.5 -12q-36 0 -87.5 22t-80.5 22q-19 0 -37 -10.5t-27 -20.5l-9 -10z" />
<glyph unicode="&#xf2;" horiz-adv-x="592" d="M35 265q0 134 73 209.5t197 75.5q121 0 186.5 -70.5t65.5 -199.5q0 -134 -72.5 -212t-194.5 -78q-255 0 -255 275zM141 745l68 104l223 -178l-49 -73zM190 270q0 -83 25 -121.5t80 -38.5t81 38.5t26 126.5q0 155 -102 155q-57 0 -83.5 -36.5t-26.5 -123.5z" />
<glyph unicode="&#xf3;" horiz-adv-x="592" d="M35 265q0 134 73 209.5t197 75.5q121 0 186.5 -70.5t65.5 -199.5q0 -134 -72.5 -212t-194.5 -78q-255 0 -255 275zM169 671l223 178l68 -104l-242 -147zM190 270q0 -83 25 -121.5t80 -38.5t81 38.5t26 126.5q0 155 -102 155q-57 0 -83.5 -36.5t-26.5 -123.5z" />
<glyph unicode="&#xf4;" horiz-adv-x="592" d="M35 265q0 134 73 209.5t197 75.5q121 0 186.5 -70.5t65.5 -199.5q0 -134 -72.5 -212t-194.5 -78q-255 0 -255 275zM80 664l164 153l89 8l175 -161l-48 -66l-164 120l-168 -120zM190 270q0 -83 25 -121.5t80 -38.5t81 38.5t26 126.5q0 155 -102 155q-57 0 -83.5 -36.5 t-26.5 -123.5z" />
<glyph unicode="&#xf5;" horiz-adv-x="592" d="M35 265q0 134 73 209.5t197 75.5q121 0 186.5 -70.5t65.5 -199.5q0 -134 -72.5 -212t-194.5 -78q-255 0 -255 275zM89 676q2 4 5 11.5t15 26.5t25 33.5t35 26.5t45 12q36 0 86.5 -23t79.5 -23q17 0 34.5 10.5t25.5 21.5l9 10l53 -46q-2 -4 -5.5 -11.5t-15 -26.5t-25 -33 t-35 -26t-44.5 -12q-36 0 -87.5 22t-80.5 22q-19 0 -37 -10.5t-27 -20.5l-9 -10zM190 270q0 -83 25 -121.5t80 -38.5t81 38.5t26 126.5q0 155 -102 155q-57 0 -83.5 -36.5t-26.5 -123.5z" />
<glyph unicode="&#xf6;" horiz-adv-x="592" d="M35 265q0 134 73 209.5t197 75.5q121 0 186.5 -70.5t65.5 -199.5q0 -134 -72.5 -212t-194.5 -78q-255 0 -255 275zM114 698q0 35 21.5 56.5t52.5 21.5q35 0 53.5 -20.5t18.5 -57.5q0 -36 -21.5 -57t-52.5 -21q-72 0 -72 78zM190 270q0 -83 25 -121.5t80 -38.5t81 38.5 t26 126.5q0 155 -102 155q-57 0 -83.5 -36.5t-26.5 -123.5zM332 698q0 35 22 56.5t52 21.5q72 0 72 -78q0 -36 -21.5 -57t-52.5 -21q-72 0 -72 78z" />
<glyph unicode="&#xf7;" horiz-adv-x="630" d="M52 208v115h525v-115h-525zM228 51q0 44 25 68t64 24q85 0 85 -92q0 -44 -24.5 -68.5t-63.5 -24.5q-86 0 -86 93zM228 481q0 44 25 68t64 24q85 0 85 -92q0 -44 -24.5 -68.5t-63.5 -24.5q-86 0 -86 93z" />
<glyph unicode="&#xf8;" horiz-adv-x="602" d="M40 265q0 134 73 209.5t197 75.5q51 0 99 -16l65 109l75 -42l-65 -109q78 -70 78 -212q0 -134 -72.5 -212t-194.5 -78q-51 0 -103 14l-73 -121l-75 42l72 121q-76 67 -76 219zM195 269q0 -42 11 -73l138 231q-18 8 -39 8q-58 0 -84 -38t-26 -128zM257 113q16 -8 43 -8 q56 0 81.5 40t25.5 130q0 44 -11 70z" />
<glyph unicode="&#xf9;" horiz-adv-x="669" d="M15 455v80l230 5v-345q0 -42 14 -61t47 -19q29 0 57 13.5t42 27.5l14 13v261l-80 25v80l230 5v-435l80 -20v-78l-211 -7l-10 70q-9 -9 -25 -22.5t-62 -35.5t-88 -22q-75 0 -116.5 47.5t-41.5 131.5v261zM152 745l68 104l223 -178l-49 -73z" />
<glyph unicode="&#xfa;" horiz-adv-x="669" d="M15 455v80l230 5v-345q0 -42 14 -61t47 -19q29 0 57 13.5t42 27.5l14 13v261l-80 25v80l230 5v-435l80 -20v-78l-211 -7l-10 70q-9 -9 -25 -22.5t-62 -35.5t-88 -22q-75 0 -116.5 47.5t-41.5 131.5v261zM189 671l223 178l68 -104l-242 -147z" />
<glyph unicode="&#xfb;" horiz-adv-x="669" d="M15 455v80l230 5v-345q0 -42 14 -61t47 -19q29 0 57 13.5t42 27.5l14 13v261l-80 25v80l230 5v-435l80 -20v-78l-211 -7l-10 70q-9 -9 -25 -22.5t-62 -35.5t-88 -22q-75 0 -116.5 47.5t-41.5 131.5v261zM105 664l164 153l89 8l175 -161l-48 -66l-164 120l-168 -120z" />
<glyph unicode="&#xfc;" horiz-adv-x="669" d="M15 455v80l230 5v-345q0 -42 14 -61t47 -19q29 0 57 13.5t42 27.5l14 13v261l-80 25v80l230 5v-435l80 -20v-78l-211 -7l-10 70q-9 -9 -25 -22.5t-62 -35.5t-88 -22q-75 0 -116.5 47.5t-41.5 131.5v261zM132 698q0 35 21.5 56.5t52.5 21.5q35 0 53.5 -20.5t18.5 -57.5 q0 -36 -21.5 -57t-52.5 -21q-72 0 -72 78zM350 698q0 35 22 56.5t52 21.5q72 0 72 -78q0 -36 -21.5 -57t-52.5 -21q-72 0 -72 78z" />
<glyph unicode="&#xfd;" d="M5 455v80l267 5v-85l-56 -10l89 -280l85 277l-58 13v80l269 5v-85l-62 -13l-147 -410q-22 -59 -41.5 -99.5t-51.5 -84t-77 -66t-102 -22.5l-97 8l14 107h65q28 0 51.5 12.5t40 36t24.5 38.5t18 37l-178 440zM230 671l223 178l68 -104l-242 -147z" />
<glyph unicode="&#xfe;" horiz-adv-x="630" d="M20 687v80l230 8v-283q6 6 17.5 16t48.5 26t76 16q98 0 150.5 -71t52.5 -194q0 -141 -71.5 -218t-213.5 -77q-12 0 -27 2t-24 4l-9 2v-130l105 -23v-80h-333v80l78 23v799zM250 118q25 -13 76 -13q114 0 114 170q0 155 -98 155q-27 0 -50 -12t-32 -24l-10 -11v-265z" />
<glyph unicode="&#xff;" d="M5 455v80l267 5v-85l-56 -10l89 -280l85 277l-58 13v80l269 5v-85l-62 -13l-147 -410q-22 -59 -41.5 -99.5t-51.5 -84t-77 -66t-102 -22.5l-97 8l14 107h65q28 0 51.5 12.5t40 36t24.5 38.5t18 37l-178 440zM114 698q0 35 21.5 56.5t52.5 21.5q35 0 53.5 -20.5 t18.5 -57.5q0 -36 -21.5 -57t-52.5 -21q-72 0 -72 78zM332 698q0 35 22 56.5t52 21.5q72 0 72 -78q0 -36 -21.5 -57t-52.5 -21q-72 0 -72 78z" />
<glyph unicode="&#x152;" horiz-adv-x="964" d="M55 347q0 172 89 270t241 98q30 0 90.5 -5t86.5 -5h335v-195h-93l-25 75h-162v-165h202v-110h-202v-190h177l23 80h92v-200h-360q-23 0 -87 -5t-97 -5q-151 0 -230.5 91t-79.5 266zM223 352q0 -123 36.5 -180t113.5 -57q20 0 52.5 2.5t36.5 2.5v465q-28 4 -71 4 q-86 0 -127 -52t-41 -185z" />
<glyph unicode="&#x153;" horiz-adv-x="928" d="M35 265q0 133 73 209t195 76q119 0 186 -86q67 86 184 86q108 0 166.5 -63t58.5 -172q0 -17 -1.5 -35.5t-2.5 -30.5l-2 -12h-332q4 -60 36.5 -93.5t83.5 -33.5q17 0 32.5 1.5t30.5 5t26 6.5t24.5 9t20 8.5t19 9t15.5 7.5l43 -83q-11 -9 -31 -23t-79 -37.5t-115 -23.5 q-125 0 -188 87q-72 -87 -190 -87q-253 0 -253 275zM190 270q0 -82 25.5 -121t79.5 -39q56 0 83 38.5t27 126.5q0 155 -105 155q-56 0 -83 -36.5t-27 -123.5zM562 330h180q0 45 -20 72.5t-62 27.5q-40 0 -66 -27.5t-32 -72.5z" />
<glyph unicode="&#x178;" horiz-adv-x="667" d="M7 615v85l283 5v-90l-51 -21l100 -215l106 214l-55 22v85l270 5v-90l-69 -27l-181 -343v-130l75 -30v-85h-305v85l75 30v129l-183 344zM148 848q0 35 21.5 56.5t52.5 21.5q35 0 53.5 -20.5t18.5 -57.5q0 -36 -21.5 -57t-52.5 -21q-72 0 -72 78zM366 848q0 35 22 56.5 t52 21.5q72 0 72 -78q0 -36 -21.5 -57t-52.5 -21q-72 0 -72 78z" />
<glyph unicode="&#x2c6;" horiz-adv-x="544" d="M70 701l153 131l89 8l162 -139l-48 -66l-151 98l-157 -98z" />
<glyph unicode="&#x2dc;" horiz-adv-x="568" d="M80 676q2 4 5 11.5t15 26.5t25 33.5t35 26.5t45 12q36 0 86.5 -23t79.5 -23q17 0 34.5 10.5t26.5 21.5l8 10l53 -46q-2 -4 -5.5 -11.5t-15 -26.5t-25 -33t-35 -26t-44.5 -12q-36 0 -87.5 22t-80.5 22q-19 0 -37 -10.5t-27 -20.5l-9 -10z" />
<glyph unicode="&#x2000;" horiz-adv-x="478" />
<glyph unicode="&#x2001;" horiz-adv-x="956" />
<glyph unicode="&#x2002;" horiz-adv-x="478" />
<glyph unicode="&#x2003;" horiz-adv-x="956" />
<glyph unicode="&#x2004;" horiz-adv-x="318" />
<glyph unicode="&#x2005;" horiz-adv-x="239" />
<glyph unicode="&#x2006;" horiz-adv-x="159" />
<glyph unicode="&#x2007;" horiz-adv-x="159" />
<glyph unicode="&#x2008;" horiz-adv-x="119" />
<glyph unicode="&#x2009;" horiz-adv-x="191" />
<glyph unicode="&#x200a;" horiz-adv-x="53" />
<glyph unicode="&#x2010;" horiz-adv-x="395" d="M55 210v125h285v-125h-285z" />
<glyph unicode="&#x2011;" horiz-adv-x="395" d="M55 210v125h285v-125h-285z" />
<glyph unicode="&#x2012;" horiz-adv-x="395" d="M55 210v125h285v-125h-285z" />
<glyph unicode="&#x2013;" horiz-adv-x="500" d="M0 267v118h500v-118h-500z" />
<glyph unicode="&#x2014;" horiz-adv-x="970" d="M0 267v118h970v-118h-970z" />
<glyph unicode="&#x2018;" horiz-adv-x="311" d="M60 527q0 112 138 260l63 -51q-60 -80 -60 -121q0 -11 14.5 -38t14.5 -54q0 -40 -24.5 -64.5t-61.5 -24.5q-38 0 -61 24t-23 69z" />
<glyph unicode="&#x2019;" horiz-adv-x="311" d="M50 486q60 80 60 120q0 12 -14.5 39t-14.5 53q0 40 24.5 64.5t62.5 24.5t60.5 -24t22.5 -68q0 -112 -137 -261z" />
<glyph unicode="&#x201a;" horiz-adv-x="311" d="M47 -158q60 80 60 120q0 12 -14.5 39t-14.5 53q0 40 24.5 64.5t62.5 24.5t60.5 -24t22.5 -68q0 -112 -137 -261z" />
<glyph unicode="&#x201c;" horiz-adv-x="544" d="M60 527q0 112 138 260l63 -51q-60 -80 -60 -121q0 -11 14.5 -38t14.5 -54q0 -40 -24.5 -64.5t-61.5 -24.5q-38 0 -61 24t-23 69zM293 527q0 111 137 260l64 -51q-60 -80 -60 -121q0 -11 14.5 -38t14.5 -54q0 -40 -24.5 -64.5t-62.5 -24.5t-60.5 24t-22.5 69z" />
<glyph unicode="&#x201d;" horiz-adv-x="544" d="M50 486q60 80 60 120q0 12 -14.5 39t-14.5 53q0 40 24.5 64.5t62.5 24.5t60.5 -24t22.5 -68q0 -112 -137 -261zM283 486q60 80 60 120q0 12 -14.5 39t-14.5 53q0 40 24.5 64.5t61.5 24.5q38 0 61 -24t23 -68q0 -113 -138 -261z" />
<glyph unicode="&#x201e;" horiz-adv-x="543" d="M47 -158q60 80 60 120q0 12 -14.5 39t-14.5 53q0 40 24.5 64.5t62.5 24.5t60.5 -24t22.5 -68q0 -112 -137 -261zM280 -158q60 80 60 120q0 12 -14.5 39t-14.5 53q0 40 24.5 64.5t61.5 24.5q38 0 61 -24t23 -68q0 -113 -138 -261z" />
<glyph unicode="&#x2022;" horiz-adv-x="543" d="M80 315q0 78 55.5 133.5t133.5 55.5t133.5 -55.5t55.5 -133.5t-55.5 -133.5t-133.5 -55.5t-133.5 55.5t-55.5 133.5z" />
<glyph unicode="&#x2026;" horiz-adv-x="780" d="M52 78q0 41 25.5 65.5t61.5 24.5q83 0 83 -90q0 -42 -25 -66.5t-61 -24.5q-41 0 -62.5 23.5t-21.5 67.5zM305 78q0 41 25.5 65.5t60.5 24.5q41 0 62.5 -23.5t21.5 -66.5q0 -42 -25 -66.5t-61 -24.5q-41 0 -62.5 23.5t-21.5 67.5zM557 78q0 41 25.5 65.5t61.5 24.5 q83 0 83 -90q0 -42 -25 -66.5t-61 -24.5q-41 0 -62.5 23.5t-21.5 67.5z" />
<glyph unicode="&#x202f;" horiz-adv-x="191" />
<glyph unicode="&#x2039;" horiz-adv-x="339" d="M50 226v77l156 177l83 -55l-113 -160l113 -160l-83 -56z" />
<glyph unicode="&#x203a;" horiz-adv-x="339" d="M55 105l113 160l-113 160l83 55l156 -177v-77l-156 -177z" />
<glyph unicode="&#x205f;" horiz-adv-x="239" />
<glyph unicode="&#x20ac;" horiz-adv-x="637" d="M27 221v90h430v-90h-192q30 -105 127 -105q38 0 78 14t61 28l21 15l55 -88q-4 -4 -11 -10.5t-31 -23t-50 -29.5t-65.5 -23.5t-79.5 -10.5q-69 0 -121 23t-81 61.5t-43.5 73.5t-22.5 75h-75zM27 374v90h72q9 50 28.5 92.5t52.5 80t85.5 59t119.5 21.5q47 0 97.5 -10.5 t77.5 -20.5l27 -11l-5 -165h-93l-16 70q-38 15 -93 15q-31 0 -54.5 -13.5t-35.5 -32.5t-20 -38.5t-10 -32.5l-2 -14h199v-90h-430z" />
<glyph unicode="&#x2122;" horiz-adv-x="921" d="M25 569v136h350v-136h-55l-17 70h-56v-256l50 -15v-48h-198v48l50 15v256h-56l-13 -70h-55zM407 320v48l50 15v252l-50 14v53l152 3l89 -176l90 173l146 3v-54l-49 -16v-252l49 -15v-48h-178v48l45 15v188l-79 -145l-59 -7l-79 146v-182l45 -15v-48h-172z" />
<glyph unicode="&#x25fc;" horiz-adv-x="540" d="M0 0v540h540v-540h-540z" />
</font>
</defs>
</svg>
