<?xml version="1.0" standalone="no"?>
<!DOCTYPE svg PUBLIC "-//W3C//DTD SVG 1.1//EN" "http://www.w3.org/Graphics/SVG/1.1/DTD/svg11.dtd" >
<svg xmlns="http://www.w3.org/2000/svg">
<metadata></metadata>
<defs>
<font id="overlockitalic" horiz-adv-x="574" >
<font-face units-per-em="1000" ascent="800" descent="-200" />
<missing-glyph horiz-adv-x="200" />
<glyph horiz-adv-x="1000" />
<glyph horiz-adv-x="1000" />
<glyph unicode="&#xd;" horiz-adv-x="333" />
<glyph unicode=" "  horiz-adv-x="200" />
<glyph unicode="&#x09;" horiz-adv-x="200" />
<glyph unicode="&#xa0;" horiz-adv-x="200" />
<glyph unicode="!" horiz-adv-x="251" d="M50 43q0 29 20 51.5t46 22.5q21 0 35 -15.5t14 -38.5q0 -30 -19 -51.5t-46 -21.5q-21 0 -35.5 14.5t-14.5 38.5zM93 226q0 7 20 182.5t20 241.5q0 19 -1 26q32 8 53 8q41 0 41 -38q0 -16 -8.5 -56t-21 -103.5t-20.5 -119.5q-13 -105 -13 -124q0 -25 4 -44 q-22 -10 -39 -10q-35 0 -35 37z" />
<glyph unicode="&#x22;" horiz-adv-x="344" d="M85 494q11 26 18 73t10 90.5t5 53.5q4 24 37 24q18 0 30.5 -10t12.5 -30q0 -14 -18.5 -76.5t-32.5 -98.5q-13 -35 -33 -35q-11 0 -29 9zM251 494q11 26 18 73t10 90.5t5 53.5q4 24 37 24q18 0 30.5 -10t12.5 -30q0 -14 -18.5 -76.5t-32.5 -98.5q-13 -35 -33 -35 q-11 0 -29 9z" />
<glyph unicode="#" d="M28 221q0 53 58 53q56 0 85 -1l30 116q-76 -4 -126 -18q-1 7 -1 19q0 53 58 53q54 0 83 -1q3 14 19 79.5t19 88.5q14 3 26 3q26 0 26 -23q0 -8 -7 -33.5t-19 -63.5t-16 -51h108q3 14 19 79.5t19 88.5q14 3 26 3q26 0 26 -23q0 -8 -7 -33.5t-19 -63.5t-16 -51q73 3 127 7 q-2 -31 -12.5 -49t-39.5 -18q-5 0 -18.5 1t-35.5 2t-39 2q-22 -76 -31 -114q80 3 130 7q-2 -31 -12.5 -49t-39.5 -18q-5 0 -18.5 1t-35 2t-38.5 2q-2 -8 -8 -33t-11 -46t-6 -33q-3 -20 -3 -57q-13 -8 -32 -8q-24 0 -24 23q0 22 39 156q-24 1 -79 1h-31l-8.5 -34t-11.5 -47.5 t-6 -33.5q-3 -20 -3 -57q-13 -8 -32 -8q-24 0 -24 23q0 22 39 156q-76 -4 -126 -18q-1 7 -1 19zM215 272q87 0 111 1q11 36 30 116q-25 1 -80 1h-29q-20 -68 -32 -118z" />
<glyph unicode="$" d="M69 75q0 22 13 35t38 25q10 -31 40 -53.5t68 -29.5q1 11 35 250q-24 8 -39.5 14.5t-35 19t-30.5 27.5t-19 38.5t-8 53.5q0 88 50.5 144.5t130.5 68.5q4 36 6 68q12 3 18 3q24 0 24 -20q0 -6 -6 -48q53 -1 97.5 -23t44.5 -59q0 -46 -56 -57q-10 29 -36 49.5t-59 26.5 q-31 -217 -34 -237q36 -13 52 -19.5t39.5 -19.5t33.5 -25.5t18 -33t8 -46.5q0 -101 -56 -164.5t-147 -71.5q-5 -36 -6 -67l-15 -2q-25 0 -25 21q0 8 6 48q-62 3 -106 26.5t-44 57.5zM202 481q0 -63 72 -95l32 224q-44 -5 -74 -39t-30 -90zM266 49q51 3 87 41.5t36 103.5 q0 39 -23.5 60t-66.5 36q-7 -47 -18 -130t-15 -111z" />
<glyph unicode="%" horiz-adv-x="712" d="M70 465q0 85 44 142.5t114 57.5q54 0 84 -34.5t30 -96.5q0 -85 -43.5 -143t-113.5 -58q-54 0 -84.5 35.5t-30.5 96.5zM94 1q2 14 10 24l479 667q15 -1 27 -9.5t12 -20.5q0 -8 -13 -27t-83 -115q-132 -180 -254 -349q-60 -82 -139 -200q-39 8 -39 30zM132 481 q0 -41 14.5 -69.5t44.5 -28.5q39 0 63.5 43t24.5 96q0 40 -14.5 67t-42.5 27q-40 0 -65 -41.5t-25 -93.5zM370 122q0 85 44 142.5t114 57.5q54 0 84 -34.5t30 -96.5q0 -85 -43.5 -143t-113.5 -58q-54 0 -84.5 35.5t-30.5 96.5zM432 138q0 -41 14.5 -69.5t44.5 -28.5 q39 0 63.5 43t24.5 96q0 40 -14.5 67t-42.5 27q-40 0 -65 -41.5t-25 -93.5z" />
<glyph unicode="&#x26;" horiz-adv-x="700" d="M39 179q0 59 38 112t111 84q-80 40 -80 117q0 74 59.5 128.5t146.5 54.5q57 0 97.5 -26.5t40.5 -58.5q0 -37 -46 -43q-14 34 -41 51.5t-60 17.5q-51 0 -85.5 -30t-34.5 -79q0 -34 26 -61.5t78 -27.5q12 0 19 1q2 -14 2 -18q0 -8 -2 -13.5t-3.5 -9t-8 -6.5t-8 -3.5 t-11 -2.5t-10.5 -2q-70 -16 -108 -64t-38 -106q0 -60 41 -103t113 -43q96 0 151 59.5t75 203.5q-37 11 -61 11q-19 0 -29 -12t-10 -32q0 -27 14 -43q-15 -31 -42 -31t-27 40q0 47 38 91.5t92 44.5q28 0 82 -15t73 -15q42 0 42 44q0 24 -13 43q14 30 43 30q27 0 27 -40 q0 -45 -38 -90.5t-91 -45.5q-17 0 -36 4q-36 -165 -113 -235.5t-195 -70.5q-100 0 -159 56t-59 134z" />
<glyph unicode="'" horiz-adv-x="178" d="M85 494q11 26 18 73t10 90.5t5 53.5q4 24 37 24q18 0 30.5 -10t12.5 -30q0 -14 -18.5 -76.5t-32.5 -98.5q-13 -35 -33 -35q-11 0 -29 9z" />
<glyph unicode="(" horiz-adv-x="332" d="M82 158q0 100 30.5 208t71.5 185.5t82.5 128.5t65.5 51q17 0 30 -23q-93 -95 -150.5 -251t-57.5 -311q0 -102 22.5 -187.5t60.5 -138.5q-19 -23 -36 -23q-36 0 -77.5 111t-41.5 250z" />
<glyph unicode=")" horiz-adv-x="332" d="M-30 -180q94 97 151 252t57 307q0 99 -22 187.5t-62 141.5q19 23 36 23q36 0 77.5 -113t41.5 -251q0 -104 -31.5 -213.5t-73.5 -184.5t-82.5 -123.5t-61.5 -48.5q-17 0 -30 23z" />
<glyph unicode="*" horiz-adv-x="450" d="M100 602q7 23 22 41.5t34 18.5q16 0 85 -49q5 68 6 125q17 5 33 5q41 0 41 -32q0 -15 -22 -101q40 23 109 69q22 -22 22 -48q0 -12 -6 -21.5t-21 -18t-25.5 -13t-35.5 -13.5t-36 -13q33 -41 86 -94q-29 -41 -60 -41q-6 0 -11.5 2.5t-11 8t-10 11.5t-10.5 16.5t-10 18.5 t-11.5 22t-12.5 24q-39 -45 -92 -115q-44 17 -44 48q0 23 95 102q-56 27 -114 47z" />
<glyph unicode="+" d="M69 246q0 16 9 29t27 13q8 0 60.5 -3t93.5 -4q0 128 -8 197q9 3 30 3q18 0 30 -10t12 -26q0 -17 -3.5 -78.5t-3.5 -86.5q118 0 187 8q3 -9 3 -30q0 -18 -10 -30t-26 -12q-17 0 -73.5 3.5t-81.5 3.5q0 -109 8 -197q-15 -3 -30 -3q-17 0 -29.5 9.5t-12.5 26.5q0 8 3 64.5 t4 100.5q-99 -1 -186 -8q-3 15 -3 30z" />
<glyph unicode="," horiz-adv-x="201" d="M-16 -119q0 6 4 18h4q34 0 58 28t24 61q0 40 -39 49q-5 13 -5 24q0 24 18.5 41.5t43.5 17.5q21 0 35 -16.5t14 -50.5q0 -66 -43 -131t-92 -65q-22 0 -22 24z" />
<glyph unicode="-" horiz-adv-x="224" d="M25 240q0 54 41 54q1 0 28.5 -2t49.5 -2q43 0 74 7q1 -4 1 -11q0 -22 -10.5 -40t-31.5 -18q-6 0 -29 2.5t-42 2.5q-45 0 -80 -8q-1 5 -1 15z" />
<glyph unicode="." horiz-adv-x="204" d="M30 43q0 29 20 51.5t46 22.5q21 0 35 -15.5t14 -38.5q0 -30 -19 -51.5t-46 -21.5q-21 0 -35.5 14.5t-14.5 38.5z" />
<glyph unicode="/" horiz-adv-x="243" d="M-15 -99q0 12 177 606q46 158 63 232l21 3q32 0 32 -21q0 -11 -34.5 -128.5t-66.5 -224t-35 -114.5q-23 -73 -59.5 -201t-45.5 -172q-13 -3 -24 -3q-28 0 -28 23z" />
<glyph unicode="0" d="M58 246q0 112 32.5 208.5t96 157.5t145.5 61q87 0 136 -68t49 -188q0 -111 -32.5 -207t-96.5 -158t-146 -62q-87 0 -135.5 68.5t-48.5 187.5zM133 275q0 -97 29 -161.5t87 -64.5q85 0 139 103.5t54 237.5q0 95 -29.5 159.5t-87.5 64.5q-82 0 -137 -99.5t-55 -239.5z" />
<glyph unicode="1" d="M109 15q0 42 60 42h64l18 130.5t23 166.5q22 169 30 252q-105 -11 -119 -14q0 15 1 22q4 38 42 43q103 16 121 16q34 0 34 -31q0 -9 -8 -55t-21 -125.5t-22 -150.5l-8 -62q-16 -114 -19 -195q65 0 98 4q2 -10 2 -16q0 -44 -43 -44q-6 0 -57.5 1t-92.5 1q-72 0 -101 -1 q-2 12 -2 16z" />
<glyph unicode="2" d="M29 37q0 9 3 23q42 39 108.5 95.5t103.5 90t77 78t58 86.5t18 88q0 53 -28.5 84t-71.5 31q-39 0 -81 -23.5t-73 -61.5q-31 5 -31 29q0 40 66 78t135 38q66 0 111.5 -40t45.5 -113q0 -29 -5.5 -57t-19.5 -56t-27 -50.5t-39 -51t-43.5 -47t-52.5 -49t-54 -47t-60.5 -50 t-60.5 -49.5q32 -2 83 -2q99 0 146 5t96 23q7 -18 7 -37q0 -30 -28 -40q-38 -14 -154 -14q-37 0 -101.5 1t-90.5 1q-37 0 -37 37z" />
<glyph unicode="3" d="M38 48q0 17 11.5 28t28.5 13q28 -40 106 -40q74 0 119 47.5t45 107.5q0 53 -39 87.5t-116 34.5q-27 0 -27 26q0 11 4 23q96 0 148.5 44.5t52.5 105.5q0 38 -22.5 63.5t-62.5 25.5q-35 0 -70.5 -20t-60.5 -58q-17 0 -26.5 8t-9.5 20q0 37 57.5 73t123.5 36q71 0 108.5 -38 t37.5 -94q0 -54 -31 -100t-91 -77q99 -51 99 -141q0 -93 -68.5 -163t-182.5 -70q-67 0 -100.5 17.5t-33.5 40.5z" />
<glyph unicode="4" d="M59 244q0 21 7 40q50 75 160 206.5t157 170.5q16 13 49 13q17 0 29 -3q-45 -262 -60 -395q70 6 94 17q4 -14 4 -26q0 -41 -25 -49q-22 -8 -81 -9q-14 -98 -14 -152q0 -34 4 -59q-18 -8 -40 -8q-23 0 -31.5 9t-8.5 29q0 12 25 180q-199 0 -252 7q-17 3 -17 29zM129 273 q48 -3 100 -3q57 0 107 3q20 144 44 306q-107 -107 -251 -306z" />
<glyph unicode="5" d="M50 49q0 16 12 27t29 13q26 -40 105 -40q75 0 122.5 56.5t47.5 126.5q0 60 -39 100t-110 40q-41 0 -78 -5q-6 8 -6 27q0 1 47 270q27 -2 186 -2q66 0 106 8q5 -11 5 -34q-5 -44 -79 -44q-72 0 -174 6l-35 -175q35 6 66 6q92 0 139 -46.5t47 -123.5q0 -110 -71.5 -189.5 t-184.5 -79.5q-68 0 -101.5 18t-33.5 41z" />
<glyph unicode="6" d="M82 198q0 82 25.5 165.5t70 152.5t113.5 113t149 44q35 0 35 -29q0 -17 -9 -35q-24 4 -37 4q-101 0 -169.5 -82t-93.5 -201q76 61 155 61q66 0 109.5 -42t43.5 -114q0 -92 -66 -168.5t-163 -76.5q-163 0 -163 208zM153 199q0 -150 108 -150q63 0 100.5 51.5t37.5 117.5 q0 54 -28.5 85t-75.5 31q-67 0 -137 -60q-5 -42 -5 -75z" />
<glyph unicode="7" d="M63 29q92 89 211 270.5t174 297.5q-143 -5 -266 -5q-65 0 -65 38q0 20 13 40q46 -8 105 -8q237 0 285 2q3 -14 3 -27q0 -27 -11 -48q-42 -97 -321 -530q-44 -69 -70 -69q-15 0 -32.5 12.5t-25.5 26.5z" />
<glyph unicode="8" d="M71 145q0 80 44 135.5t111 86.5q-83 50 -83 135q0 75 56.5 123t139.5 48q67 0 112.5 -34t45.5 -90q0 -119 -126 -182q50 -28 77.5 -66t27.5 -97q0 -87 -59.5 -150.5t-167.5 -63.5q-87 0 -132.5 44.5t-45.5 110.5zM143 158q0 -45 30 -77t84 -32q66 0 106 44t40 103 q0 49 -30 80t-93 61q-137 -61 -137 -179zM213 518q0 -40 26.5 -68t78.5 -52q111 52 111 144q0 32 -28.5 52t-69.5 20q-50 0 -84 -27t-34 -69z" />
<glyph unicode="9" d="M106 18q0 16 7 37q26 -4 38 -4q101 0 169.5 82t93.5 201q-76 -61 -155 -61q-66 0 -109.5 42t-43.5 114q0 92 65.5 168.5t162.5 76.5q164 0 164 -206q0 -82 -25 -165.5t-70 -153.5t-114 -114t-150 -44q-33 0 -33 27zM181 446q0 -54 28.5 -85t75.5 -31q67 0 137 60 q5 42 5 75q0 150 -108 150q-63 0 -100.5 -51.5t-37.5 -117.5z" />
<glyph unicode=":" horiz-adv-x="224" d="M30 43q0 29 20 51.5t46 22.5q21 0 35 -15.5t14 -38.5q0 -30 -19 -51.5t-46 -21.5q-21 0 -35.5 14.5t-14.5 38.5zM78 404q0 29 20 51.5t46 22.5q21 0 35 -15.5t14 -38.5q0 -30 -19 -51.5t-46 -21.5q-21 0 -35.5 14.5t-14.5 38.5z" />
<glyph unicode=";" horiz-adv-x="221" d="M-16 -119q0 6 4 18h4q34 0 58 28t24 61q0 40 -39 49q-5 13 -5 24q0 24 18.5 41.5t43.5 17.5q21 0 35 -16.5t14 -50.5q0 -66 -43 -131t-92 -65q-22 0 -22 24zM59 404q0 29 20 51.5t46 22.5q21 0 35 -15.5t14 -38.5q0 -30 -19 -51.5t-46 -21.5q-21 0 -35.5 14.5t-14.5 38.5 z" />
<glyph unicode="&#x3c;" d="M130 251l249 210q14 11 26 11q15 0 27.5 -10.5t17.5 -23.5q-19 -15 -78.5 -60.5l-110.5 -84.5t-55 -42q37 -42 189 -199q-21 -34 -53 -34q-14 0 -24 11z" />
<glyph unicode="=" d="M89 146q0 16 9 29t27 13q3 0 63 -3.5t104 -3.5q130 0 191 7q3 -9 3 -30q0 -18 -10 -30t-26 -12t-71.5 4t-84.5 4q-114 0 -202 -8q-3 15 -3 30zM89 346q0 16 9 29t27 13q3 0 63 -3.5t104 -3.5q130 0 191 7q3 -9 3 -30q0 -18 -10 -30t-26 -12t-71.5 4t-84.5 4 q-114 0 -202 -8q-3 15 -3 30z" />
<glyph unicode="&#x3e;" d="M115 52q209 167 245 199q-3 3 -42.5 42t-86 84.5t-61.5 60.5q8 13 23 23.5t30 10.5q13 0 24 -11l189 -210l-250 -222q-12 -11 -26 -11t-26.5 9.5t-18.5 24.5z" />
<glyph unicode="?" horiz-adv-x="359" d="M60 590q0 41 46.5 67.5t106.5 26.5q62 0 105.5 -31t43.5 -93q0 -71 -59 -135q-13 -14 -42 -40t-44.5 -42.5t-29 -45t-13.5 -60.5q0 -19 4 -38q-23 -10 -40 -10q-37 0 -37 49q0 34 16 66.5t35.5 54t49.5 52t45 50.5q42 55 42 105q0 31 -19 46.5t-50 15.5q-38 0 -73.5 -21 t-46.5 -54q-40 7 -40 37zM76 44q0 30 19 51.5t46 21.5q21 0 35.5 -14.5t14.5 -38.5q0 -29 -20 -51.5t-46 -22.5q-21 0 -35 15.5t-14 38.5z" />
<glyph unicode="@" horiz-adv-x="836" d="M90 132q0 78 33.5 159.5t90.5 147.5t140.5 108.5t175.5 42.5q111 0 173.5 -59.5t62.5 -154.5q0 -76 -39 -149t-93 -115.5t-99 -42.5q-28 0 -46 19.5t-22 57.5q-62 -92 -131 -92q-41 0 -65.5 28t-24.5 82q0 104 64.5 191.5t146.5 87.5q86 0 140 -46q-65 -178 -65 -241 q0 -39 29 -39q46 0 88.5 72.5t42.5 169.5q0 175 -185 175q-94 0 -176.5 -62.5t-127.5 -153t-45 -178.5q0 -83 47.5 -135.5t142.5 -52.5q52 0 97 22t66 58q38 -15 38 -43q0 -41 -63.5 -69.5t-143.5 -28.5q-125 0 -188.5 67.5t-63.5 173.5zM319 186q0 -71 42 -71q24 0 53.5 23 t53.5 66q8 29 23.5 92.5t16.5 66.5q-29 28 -62 28q-51 0 -89 -62.5t-38 -142.5z" />
<glyph unicode="A" horiz-adv-x="528" d="M-10 28q0 9 20.5 51t61.5 123t67 134q116 241 139 323q36 4 45 4q24 0 35 -11t17 -42q3 -13 15.5 -85t24.5 -131.5t25 -113.5q44 -193 71 -270q-28 -20 -49 -20q-31 0 -37 27q-14 63 -41 192q-100 -2 -120 -2q-22 0 -114 2q-11 -24 -34 -75t-39 -86.5t-24 -60.5 q-22 1 -42.5 11.5t-20.5 29.5zM178 268q72 -2 110 -2q56 0 83 2q-18 81 -58 301q-11 -24 -35.5 -81t-49.5 -112.5t-50 -107.5z" />
<glyph unicode="B" horiz-adv-x="509" d="M51 56q28 111 56 331q24 185 24 273q69 13 148 13q90 0 147 -33t57 -110q0 -57 -25.5 -103t-71.5 -65q80 -42 80 -135q0 -107 -65 -172t-156 -65q-133 0 -194 66zM131 87q14 -14 45 -25t60 -11q61 0 104.5 44t43.5 116q0 59 -37 89.5t-93 30.5q-55 0 -80 -5 q-15 -106 -43 -239zM182 383q28 -2 45 -2q174 0 174 134q0 97 -136 97q-21 0 -59 -4q-13 -132 -24 -225z" />
<glyph unicode="C" horiz-adv-x="517" d="M48 264q0 181 92 295t238 114q66 0 110 -28.5t44 -70.5q0 -25 -16.5 -40.5t-42.5 -19.5q-11 49 -44 73.5t-74 24.5q-98 0 -161 -98t-63 -227q0 -104 41.5 -170t121.5 -66q82 0 133 83q43 -18 43 -47q0 -38 -56 -67.5t-132 -29.5q-109 0 -171.5 74.5t-62.5 199.5z" />
<glyph unicode="D" horiz-adv-x="582" d="M51 53q29 133 53 306t27 302q54 12 142 12q290 0 290 -269q0 -108 -37 -200.5t-113.5 -153t-177.5 -60.5q-124 0 -184 63zM134 87q44 -36 112 -36q63 0 111 32.5t73 84t37 106t12 108.5q0 115 -55.5 172.5t-159.5 57.5q-18 0 -56 -4q-23 -276 -74 -521z" />
<glyph unicode="E" horiz-adv-x="453" d="M60 34q0 28 33.5 272t33.5 325q0 18 -1 25q98 9 193 9q129 0 144 -15q5 -6 5 -19q0 -26 -14 -51q-48 21 -164 21q-34 0 -85 -3q-2 -47 -24 -212q137 0 170 4q2 -16 2 -22q0 -41 -45 -44q-24 -1 -136 -1q-27 -211 -27 -262q28 -2 64 -2q54 0 109.5 7t73.5 16q8 -27 8 -42 q0 -29 -31.5 -36t-120.5 -7q-126 0 -152 2q-20 1 -28 9t-8 26z" />
<glyph unicode="F" horiz-adv-x="434" d="M60 39q0 7 5 42t16.5 120t22.5 175q24 183 24 255q0 18 -1 25q98 9 198 9q129 0 144 -15q5 -6 5 -19q0 -26 -14 -51q-48 21 -164 21q-39 0 -90 -3q-2 -47 -24 -212q137 0 170 4q2 -16 2 -22q0 -41 -45 -44q-24 -1 -135 -1q-28 -209 -28 -257q0 -34 4 -61q-18 -8 -48 -8 q-42 0 -42 42z" />
<glyph unicode="G" horiz-adv-x="549" d="M48 264q0 181 92 295t238 114q66 0 110 -28.5t44 -70.5q0 -25 -16.5 -40.5t-42.5 -19.5q-11 49 -44 73.5t-74 24.5q-98 0 -161 -98t-63 -227q0 -104 41.5 -170t121.5 -66q66 0 114 40q14 123 20 210q18 3 37 3q44 0 44 -31q0 -6 -5 -32t-12.5 -70.5t-12.5 -85.5 q-8 -41 -64 -68t-133 -27q-109 0 -171.5 74.5t-62.5 199.5z" />
<glyph unicode="H" horiz-adv-x="599" d="M60 39q0 7 4.5 38.5t11 78.5t10.5 75l25 200q19 150 23 232q16 3 41 3q44 0 44 -33q0 -5 -5 -33t-14.5 -87t-17.5 -122q43 -2 146 -2q98 0 141 2q24 191 28 272q16 3 41 3q44 0 44 -33q0 -5 -5 -32.5t-14 -83t-16 -113.5l-26 -201q-12 -88 -12 -137q0 -34 4 -61 q-18 -8 -48 -8q-42 0 -42 42q0 7 4.5 38.5t11 78.5t10.5 75l12 101q-46 -2 -142 -2q-103 0 -145 2l-16 -129q-12 -88 -12 -137q0 -34 4 -61q-18 -8 -48 -8q-42 0 -42 42z" />
<glyph unicode="I" horiz-adv-x="236" d="M60 39q0 7 5 43.5t18.5 136t27.5 212.5q19 150 23 232q16 3 41 3q44 0 44 -33q0 -5 -5 -32.5t-14 -83t-16 -113.5l-26 -201q-12 -88 -12 -137q0 -34 4 -61q-18 -8 -48 -8q-42 0 -42 42z" />
<glyph unicode="J" horiz-adv-x="310" d="M0 -72q0 10 1 16q77 7 102 47t39 145l41 295q19 137 25 232q18 3 42 3q43 0 43 -31q0 -10 -6 -40.5t-15.5 -80t-15.5 -93.5l-43 -310q-8 -55 -26 -98t-38.5 -67t-44 -39.5t-40 -20.5t-28.5 -5q-36 0 -36 47z" />
<glyph unicode="K" horiz-adv-x="497" d="M60 39q0 7 5 43.5t18.5 136t27.5 212.5q19 150 23 232q16 3 41 3q44 0 44 -33q0 -5 -5 -32.5t-14 -83t-16 -113.5l-4 -29q132 103 186 168.5t73 124.5q58 -8 58 -40q0 -38 -73.5 -116.5t-171.5 -161.5q24 -56 72 -145t75 -122q24 -28 52 -28q19 0 30 3q4 -15 4 -26 q0 -42 -62 -42q-47 0 -87 57q-32 46 -76 125.5t-66 131.5q-5 -5 -15 -11.5t-11 -7.5l-10 -82q-12 -88 -12 -137q0 -34 4 -61q-18 -8 -48 -8q-42 0 -42 42z" />
<glyph unicode="L" horiz-adv-x="386" d="M60 35q0 19 53 415q12 90 20 213q15 3 40 3q45 0 45 -32q0 -6 -5.5 -39.5t-14.5 -88.5t-15 -102q-37 -279 -38 -323v-19q28 -2 50 -2q54 0 109.5 7t73.5 16q8 -27 8 -42q0 -29 -31.5 -36t-120.5 -7q-112 0 -138 2q-20 1 -28 9.5t-8 25.5z" />
<glyph unicode="M" horiz-adv-x="760" d="M60 32q0 8 28 199l36 252q10 72 10 127q0 26 -3 49q30 8 59 8q41 0 60 -48q21 -55 39 -121t27.5 -112.5t24.5 -125t23 -118.5q119 284 245 477q31 48 81 48q34 0 53 -8q-24 -60 -47 -223l-33 -233q-14 -92 -14 -144q0 -20 4 -54q-18 -8 -50 -8q-41 0 -41 38q0 5 10.5 73 t29 194t33.5 236q-120 -204 -253 -536q-10 -4 -30 -4q-36 0 -42 26q-14 52 -47.5 232t-65.5 285q-8 -54 -16.5 -115t-13.5 -94t-10.5 -72t-8 -57.5t-5.5 -42t-4 -34t-2.5 -24.5t-1.5 -23v-20q0 -20 4 -54q-18 -8 -42 -8q-37 0 -37 35z" />
<glyph unicode="N" horiz-adv-x="580" d="M60 35q0 9 4.5 41t11 79t10.5 76q7 55 16 124t13.5 104t8 74.5t3.5 70.5q0 32 -4 55q19 8 47 8t48 -29q76 -115 214 -481l34 274q17 131 23 232q15 3 32 3q42 0 42 -34q0 -7 -6 -39.5t-14.5 -87t-14.5 -101.5q-6 -49 -18 -141.5t-18 -151t-9 -110.5q-15 -4 -33 -4 q-32 0 -44 27q-26 59 -95 229.5t-119 280.5q-7 -52 -19 -142t-19 -141.5t-12.5 -107.5t-5.5 -84q0 -20 4 -54q-18 -8 -38 -8q-24 0 -33 9t-9 29z" />
<glyph unicode="O" horiz-adv-x="628" d="M48 263q0 175 89.5 293t232.5 118q112 0 175.5 -72.5t63.5 -199.5q0 -172 -90 -292t-235 -120q-111 0 -173.5 73.5t-62.5 199.5zM131 288q0 -103 39.5 -170.5t122.5 -67.5q74 0 128 48.5t79 122t25 160.5q0 99 -39.5 165t-123.5 66q-106 0 -168.5 -94t-62.5 -230z" />
<glyph unicode="P" horiz-adv-x="497" d="M60 39q0 9 4.5 40.5t11.5 78t10 73.5l25 200q18 155 18 230q67 12 139 12q219 0 219 -177q0 -117 -67 -185t-153 -68q-60 0 -100 32l-9 -72q-12 -90 -12 -140q0 -33 4 -58q-18 -8 -48 -8q-42 0 -42 42zM174 329q36 -25 81 -25q73 0 111.5 53.5t38.5 136.5q0 67 -35 92.5 t-100 25.5q-35 0 -64 -4q-6 -87 -22 -204z" />
<glyph unicode="Q" horiz-adv-x="629" d="M48 263q0 175 89.5 293t232.5 118q112 0 175.5 -72.5t63.5 -199.5q0 -162 -80.5 -279.5t-213.5 -130.5q22 -54 78.5 -88.5t123.5 -34.5q106 0 147 82q43 -22 43 -54q0 -45 -46.5 -70t-116.5 -25q-103 0 -183 46t-108 144q-97 10 -151 82t-54 189zM131 288 q0 -103 39.5 -170.5t122.5 -67.5q74 0 128 48.5t79 122t25 160.5q0 99 -39.5 165t-123.5 66q-106 0 -168.5 -94t-62.5 -230z" />
<glyph unicode="R" horiz-adv-x="516" d="M60 39q0 10 4.5 41.5t11.5 77.5t10 73l25 200q18 146 18 230q67 12 140 12q44 0 80.5 -8t69 -26.5t50.5 -53t18 -82.5q0 -89 -49.5 -152t-124.5 -74q16 -51 42 -109.5t46 -83.5q21 -29 57 -29q19 0 34 3q4 -11 4 -22q0 -46 -66 -46q-62 0 -91 48q-24 40 -56 114t-49 126 q-27 6 -27 21q0 12 11 29q17 -6 36 -6q71 0 111 46.5t40 126.5q0 70 -31 93.5t-101 23.5q-40 0 -67 -4q-6 -78 -19 -179l-29 -226q-12 -90 -12 -141q0 -33 4 -57q-18 -8 -48 -8q-42 0 -42 42z" />
<glyph unicode="S" horiz-adv-x="460" d="M25 76q0 38 52 61q13 -37 54 -60.5t87 -23.5q55 0 95.5 37.5t40.5 103.5q0 39 -27.5 61.5t-67 34t-79.5 26t-67.5 49.5t-27.5 92q0 101 64 157.5t161 56.5q55 0 102.5 -22t47.5 -61q0 -46 -58 -57q-11 33 -47 54.5t-77 21.5q-50 0 -85 -33t-35 -95q0 -40 27.5 -64t67 -36 t79 -26.5t67 -46.5t27.5 -84q0 -110 -63 -171t-169 -61q-67 0 -118 25.5t-51 60.5z" />
<glyph unicode="T" horiz-adv-x="408" d="M45 613q0 25 10.5 35.5t34.5 11.5q23 1 97 1h106q141 0 173 3q2 -10 2 -20q0 -21 -10.5 -30t-34.5 -11q-28 -1 -127 -1q-22 -134 -30 -198l-26 -201q-12 -88 -12 -137q0 -34 4 -61q-18 -8 -48 -8q-42 0 -42 42q0 12 12 97t29.5 221t28.5 245q-123 0 -166 -4q-1 6 -1 15z " />
<glyph unicode="U" horiz-adv-x="596" d="M79 157q0 25 25 214.5t30 291.5q16 3 41 3q44 0 44 -33q0 -3 -4.5 -30t-13 -79.5t-15.5 -102.5q-30 -221 -30 -257q0 -42 18.5 -72t57.5 -30q55 0 120 60.5t98 151.5q40 305 44 389q16 3 41 3q44 0 44 -33q0 -5 -5 -32.5t-14 -83t-16 -113.5l-26 -201q-12 -88 -12 -137 q0 -34 4 -61q-18 -8 -48 -8q-42 0 -42 42q0 9 12 93q-43 -68 -100.5 -105t-112.5 -37q-67 0 -103.5 48t-36.5 119z" />
<glyph unicode="V" horiz-adv-x="550" d="M80 191q0 64 16.5 156t16.5 174q0 73 -27 129q36 24 63 24q51 0 51 -95q0 -51 -23 -187.5t-23 -200.5q0 -106 37 -143q68 9 133.5 94t103 197.5t37.5 207.5q0 62 -17 106q33 21 60 21q52 0 52 -80q0 -55 -16.5 -131.5t-50 -159t-77 -152.5t-104 -115.5t-124.5 -45.5 q-24 0 -46 11q-62 66 -62 190z" />
<glyph unicode="W" horiz-adv-x="877" d="M80 191q0 64 16.5 156t16.5 174q0 73 -27 129q36 24 63 24q51 0 51 -95q0 -51 -23 -187.5t-23 -200.5q0 -106 37 -143q66 9 128.5 89.5t98.5 187t36 196.5q0 59 -17 100q34 20 60 20q52 0 52 -76q0 -105 -54 -247q-4 -66 -4 -101q0 -132 38 -169q66 9 128.5 94 t98.5 197.5t36 207.5q0 62 -17 106q33 21 60 21q52 0 52 -80q0 -55 -16.5 -131.5t-49 -159t-74.5 -152.5t-101 -115.5t-121 -45.5q-23 0 -45 11q-55 57 -61 158q-106 -169 -232 -169q-23 0 -45 11q-62 66 -62 190z" />
<glyph unicode="X" horiz-adv-x="515" d="M6 37q0 18 16.5 47t50 70t56.5 67.5t66.5 73t49.5 53.5q-58 138 -85 184t-79 86q22 39 44 51q9 5 20 5q14 0 28 -10t29.5 -34t26 -42.5t27 -57t23.5 -56t23 -59.5q57 67 104 142.5t58 116.5q66 -16 66 -51q0 -50 -200 -275q28 -76 43.5 -115.5t52.5 -98t79 -88.5 q-31 -56 -64 -56q-13 0 -27 9t-27 28t-24.5 39t-24.5 50.5t-22.5 53.5t-23 57.5t-21.5 53.5q-57 -57 -120 -147t-82 -144q-63 15 -63 47z" />
<glyph unicode="Y" horiz-adv-x="461" d="M50 619q4 4 13.5 15t13 14l10.5 9t13 8t13 2q27 0 41 -34q42 -82 107 -264q51 64 110 165t66 138q74 0 74 -41q0 -25 -81 -137.5t-148 -191.5l-13 -99q-12 -88 -12 -137q0 -34 4 -61q-18 -8 -48 -8q-42 0 -42 42q0 6 3.5 31t13 93t18.5 139q-94 265 -156 317z" />
<glyph unicode="Z" horiz-adv-x="511" d="M40 61q0 23 18 58q59 105 370 456q-40 0 -126.5 12.5t-131.5 12.5q-46 0 -84 -19q-12 29 -12 38q0 48 67 48q29 0 129 -13.5t148 -13.5q45 0 68 13q23 -23 23 -58q0 -41 -20 -64l-279 -325q-57 -68 -94 -124q8 1 25 1q37 0 120.5 -12.5t118.5 -12.5q58 0 89 16 q11 -19 11 -33q0 -51 -98 -51q-26 0 -108.5 12.5t-127.5 12.5q-47 0 -79 -12q-27 35 -27 58z" />
<glyph unicode="[" horiz-adv-x="381" d="M86 -190l127 910h186q2 -10 2 -16q0 -42 -48 -42q-45 0 -81 2l-113 -798q39 2 81 2q40 0 40 -27q0 -13 -8 -31h-186z" />
<glyph unicode="\" horiz-adv-x="258" d="M35 715q0 27 36 27q12 0 21 -3q8 -86 30 -232l49 -313q45 -281 45 -288q0 -28 -33 -28q-11 0 -24 3q-8 86 -30 232q-94 587 -94 602z" />
<glyph unicode="]" horiz-adv-x="360" d="M-20 -174q0 42 48 42q42 0 79 -2l113 798q-38 -2 -81 -2q-40 0 -40 27q0 13 8 31h186l-127 -910h-185q-1 6 -1 16z" />
<glyph unicode="^" horiz-adv-x="470" d="M25 433q23 39 94.5 119t115.5 123q44 -43 115.5 -123t94.5 -119q-16 -16 -26 -16q-6 0 -17 6.5t-25.5 19t-28.5 25t-32 31t-29.5 30.5t-28.5 30t-22 23q-154 -165 -184 -165q-11 0 -27 16z" />
<glyph unicode="_" horiz-adv-x="535" d="M0 -122q0 16 9 29t27 13q3 0 63 -3.5t104 -3.5h142q127 0 187 7q3 -9 3 -30q0 -18 -10 -30t-26 -12q-15 0 -69 4t-82 4h-143q-114 0 -202 -8q-3 15 -3 30z" />
<glyph unicode="`" horiz-adv-x="201" d="M-51 655q0 27 35 46q12 -15 33 -34t39 -33t39 -30t25 -19q19 -14 19 -28q0 -16 -16 -32q-13 11 -69 44.5t-80 49.5q-25 16 -25 36z" />
<glyph unicode="a" horiz-adv-x="476" d="M28 166q0 126 64.5 217t158.5 91q102 0 179 -57q-46 -224 -46 -318q0 -41 32 -63q-14 -46 -51 -46q-47 0 -47 81q0 22 1 33q-29 -55 -71 -84.5t-87 -29.5q-59 0 -96 45.5t-37 130.5zM106 183q0 -60 19.5 -101.5t55.5 -41.5q33 0 75 41.5t70 107.5q13 90 29 190 q-51 45 -103 45q-63 0 -104.5 -67t-41.5 -174z" />
<glyph unicode="b" horiz-adv-x="474" d="M43 46q21 118 51 331.5t30 259.5q0 49 -21 54q2 15 17.5 33t34.5 18q44 0 44 -66q0 -68 -35 -287q26 40 64.5 62.5t75.5 22.5q62 0 101.5 -48.5t39.5 -135.5q0 -120 -64 -210t-170 -90q-87 0 -168 56zM118 84q48 -45 99 -45q62 0 106 62t44 170q0 61 -22.5 107t-60.5 46 q-30 0 -68 -36t-66 -94q0 -4 -32 -210z" />
<glyph unicode="c" horiz-adv-x="413" d="M39 180q0 139 74 216.5t167 77.5q44 0 83.5 -18t39.5 -53q0 -41 -48 -49q-9 33 -37 49t-55 16q-66 0 -105.5 -66t-39.5 -158q0 -78 30.5 -116.5t76.5 -38.5q65 0 105 62q31 -19 31 -42q0 -30 -42 -50t-97 -20q-88 0 -135.5 49t-47.5 141z" />
<glyph unicode="d" horiz-adv-x="477" d="M29 166q0 126 64.5 217t158.5 91q56 0 113 -48q26 179 26 213q0 47 -20 52q2 14 18 32.5t35 18.5q43 0 43 -63q0 -37 -39.5 -297t-39.5 -283q0 -41 32 -63q-14 -46 -51 -46q-50 0 -50 81q0 23 1 33q-29 -55 -71 -84.5t-87 -29.5q-59 0 -96 45.5t-37 130.5zM107 183 q0 -60 19.5 -101.5t55.5 -41.5q33 0 76 41.5t71 107.5l28 189q-55 47 -101 47q-66 0 -107.5 -67t-41.5 -175z" />
<glyph unicode="e" horiz-adv-x="421" d="M29 180q0 138 74.5 216t163.5 78q60 0 92 -29.5t32 -74.5q0 -49 -20 -85t-47.5 -54.5t-65.5 -29.5t-64 -13.5t-53 -2.5q-13 0 -33 2q4 -75 33 -111t74 -36q65 0 105 62q31 -19 31 -42q0 -30 -42 -50t-97 -20q-88 0 -135.5 49t-47.5 141zM109 228q28 0 47.5 1.5t52 9 t52.5 20t36 38.5t16 62q0 28 -16.5 47t-46.5 19q-53 0 -93.5 -55.5t-47.5 -141.5z" />
<glyph unicode="f" horiz-adv-x="316" d="M0 -84q24 7 43 55.5t31 130t18 149.5t12 158q-32 -1 -63 -5q-2 14 -2 18q0 43 58 43h13q7 112 54 180.5t141 68.5q43 0 77 -16.5t34 -50.5q0 -41 -48 -49q-17 59 -85 59q-48 0 -74 -56.5t-31 -136.5q73 0 136 5q3 -11 3 -20q0 -37 -48 -38q-23 -1 -97 -1 q-29 -345 -54 -444q-25 -97 -71 -97q-15 0 -28 12.5t-19 34.5z" />
<glyph unicode="g" horiz-adv-x="455" d="M5 -194q0 32 44 53q9 -28 34.5 -45t58.5 -17q145 0 163 283q-30 -47 -69.5 -68.5t-74.5 -21.5q-66 0 -99.5 51t-33.5 125q0 125 64.5 217t158.5 92q103 0 179 -57q-47 -196 -66 -378q-16 -157 -66 -225t-172 -68q-51 0 -86 16t-35 43zM106 183q0 -64 20.5 -103.5 t54.5 -39.5q33 0 74 40.5t71 108.5q13 90 29 190q-48 45 -103 45q-67 0 -106.5 -71t-39.5 -170z" />
<glyph unicode="h" horiz-adv-x="465" d="M46 31q0 34 41 306t41 302q0 47 -20 52q2 14 18 32.5t35 18.5q43 0 43 -63q0 -61 -40 -297q30 43 71 67.5t79 24.5q50 0 77.5 -34t27.5 -89q0 -19 -19 -123.5t-19 -128.5q0 -41 32 -63q-14 -46 -51 -46q-50 0 -50 91q0 43 18.5 144.5t18.5 121.5q0 35 -13.5 55.5 t-37.5 20.5q-39 0 -86 -45.5t-67 -104.5q-21 -161 -21 -213q0 -30 3 -55q-18 -8 -42 -8q-39 0 -39 34z" />
<glyph unicode="i" horiz-adv-x="201" d="M42 81q0 47 22.5 147.5t22.5 142.5q0 47 -20 52q2 14 18 32.5t35 18.5q43 0 43 -63q0 -37 -26 -163t-26 -149q0 -41 32 -63q-14 -46 -51 -46q-50 0 -50 91zM89 568q0 25 17 42.5t39 17.5q18 0 30.5 -14t12.5 -35q0 -24 -18 -41t-38 -17q-19 0 -31 13t-12 34z" />
<glyph unicode="j" horiz-adv-x="218" d="M-198 -194q0 32 44 53q7 -28 28.5 -45t48.5 -17q96 0 124 173q53 323 53 401q0 47 -20 52q2 14 18 32.5t35 18.5q43 0 43 -63q0 -72 -56 -420q-18 -115 -65 -179.5t-145 -64.5q-45 0 -76.5 16t-31.5 43zM102 568q0 25 17 42.5t39 17.5q18 0 30.5 -14t12.5 -35 q0 -24 -18 -41t-38 -17q-19 0 -31 13t-12 34z" />
<glyph unicode="k" horiz-adv-x="452" d="M46 31q0 12 7 63t18.5 127t16.5 114q35 251 35 304q0 47 -20 52q2 14 18 32.5t35 18.5q43 0 43 -63q0 -24 -8.5 -88t-19.5 -134.5t-13 -85.5q66 103 161 103q55 0 84.5 -28.5t29.5 -72.5q0 -61 -46 -117t-116 -61q37 -87 55 -111q21 -29 58 -29q13 0 28 3q4 -20 4 -26 q0 -42 -64 -42q-16 0 -31 6.5t-27.5 20.5t-22.5 27.5t-20.5 36.5t-17 38t-17 41t-15.5 38q-23 8 -23 21q0 12 13 27q29 -13 55 -13q47 0 77.5 36t30.5 83q0 31 -14.5 51.5t-43.5 20.5q-34 0 -82 -44.5t-69 -106.5q-21 -161 -21 -213q0 -30 3 -55q-18 -8 -42 -8q-39 0 -39 34 z" />
<glyph unicode="l" horiz-adv-x="204" d="M46 81q0 47 36 282t36 276q0 47 -20 52q2 14 18 32.5t35 18.5q43 0 43 -63q0 -37 -39.5 -297t-39.5 -283q0 -41 32 -63q-14 -46 -51 -46q-50 0 -50 91z" />
<glyph unicode="m" horiz-adv-x="705" d="M46 31q0 17 22 164.5t22 173.5q0 48 -21 54q2 14 18 32.5t35 18.5q41 0 41 -62q0 -18 -3 -36q29 47 69.5 72.5t77.5 25.5q44 0 69.5 -30t29.5 -78q27 50 70.5 79t82.5 29q47 0 73.5 -34.5t26.5 -88.5q0 -19 -18 -123.5t-18 -128.5q0 -42 30 -63q-14 -46 -51 -46 q-50 0 -50 91q0 43 18.5 144.5t18.5 121.5q0 35 -13 55.5t-35 20.5q-37 0 -82.5 -45.5t-63.5 -104.5q-21 -161 -21 -213q0 -30 3 -55q-18 -8 -42 -8q-39 0 -39 34q0 17 21 157.5t21 159.5q0 37 -14 56t-35 19q-37 0 -81.5 -45.5t-62.5 -104.5q-21 -161 -21 -213q0 -30 3 -55 q-18 -8 -42 -8q-39 0 -39 34z" />
<glyph unicode="n" horiz-adv-x="465" d="M46 31q0 14 22 163.5t22 173.5q0 46 -21 55q2 14 18 32.5t35 18.5q41 0 41 -62q0 -18 -3 -36q30 47 72.5 72.5t81.5 25.5q50 0 77.5 -34t27.5 -89q0 -19 -19 -123.5t-19 -128.5q0 -41 32 -63q-14 -46 -51 -46q-50 0 -50 91q0 43 18.5 144.5t18.5 121.5q0 35 -13.5 55.5 t-37.5 20.5q-39 0 -86 -45.5t-67 -104.5q-21 -161 -21 -213q0 -30 3 -55q-18 -8 -42 -8q-39 0 -39 34z" />
<glyph unicode="o" horiz-adv-x="475" d="M29 181q0 123 67.5 208t171.5 85q83 0 130.5 -51.5t47.5 -141.5q0 -122 -69.5 -206.5t-173.5 -84.5q-82 0 -128 51t-46 140zM107 194q0 -67 27.5 -110.5t78.5 -43.5q72 0 113 68t41 158q0 69 -27 113.5t-78 44.5q-72 0 -113.5 -69.5t-41.5 -160.5z" />
<glyph unicode="p" horiz-adv-x="475" d="M13 -175q0 59 38.5 281t38.5 264q0 49 -20 54q2 14 18 32.5t35 18.5q43 0 43 -63q0 -5 -2 -29q59 91 144 91q61 0 99.5 -43t38.5 -133q0 -133 -69.5 -220.5t-157.5 -87.5q-61 0 -111 44q-26 -149 -26 -181t27 -64q-26 -42 -54 -42q-26 0 -34 20t-8 58zM116 84 q46 -45 98 -45q63 0 108.5 65t45.5 177q0 65 -21.5 104t-58.5 39q-30 0 -69 -36t-68 -94q-4 -28 -10 -62.5t-13.5 -79t-11.5 -68.5z" />
<glyph unicode="q" horiz-adv-x="456" d="M29 166q0 126 64.5 217t158.5 91q102 0 179 -57q-20 -77 -57 -301.5t-37 -260.5q0 -41 32 -63q-14 -46 -51 -46q-50 0 -50 91q0 45 38 243q-59 -90 -144 -90q-59 0 -96 45.5t-37 130.5zM107 183q0 -60 19.5 -101.5t55.5 -41.5q33 0 75 41.5t70 107.5q13 90 29 190 q-51 45 -103 45q-63 0 -104.5 -67t-41.5 -174z" />
<glyph unicode="r" horiz-adv-x="332" d="M45 31q0 16 36 258q9 67 9 82q0 47 -20 52q2 14 18 32.5t35 18.5q41 0 41 -62q0 -20 -6 -56q16 38 60 78t84 40q41 0 41 -37q0 -31 -26 -54q-18 19 -42 19q-30 0 -60 -29t-46.5 -59.5t-26.5 -57.5q-19 -145 -19 -196q0 -30 3 -55q-18 -8 -42 -8q-39 0 -39 34z" />
<glyph unicode="s" horiz-adv-x="368" d="M5 63q0 37 47 49q6 -32 38.5 -49t76.5 -17q47 0 74 21.5t27 52.5q0 30 -22.5 48t-55 27.5t-65 20.5t-55 37.5t-22.5 68.5q0 76 52 114.5t126 38.5q42 0 79.5 -18.5t37.5 -52.5q0 -38 -47 -50q-6 29 -35.5 47t-64.5 18q-36 0 -63 -21t-27 -59q0 -29 22.5 -45.5t55 -24 t64.5 -18t54.5 -38t22.5 -73.5q0 -74 -52 -112t-133 -38q-54 0 -94.5 21t-40.5 52z" />
<glyph unicode="t" horiz-adv-x="314" d="M18 422q0 43 58 43h33q1 14 7 56.5t7 54.5q18 4 32 4q39 0 39 -31q0 -6 -3 -22t-6.5 -36t-4.5 -27q90 0 158 5q3 -11 3 -20q0 -37 -48 -38q-32 -1 -122 -1q-37 -253 -37 -290q0 -46 15.5 -61.5t49.5 -15.5q35 0 72 30q16 -16 16 -34q0 -24 -28 -36.5t-66 -12.5 q-125 0 -125 135q0 22 6 68t16 114.5t14 102.5q-18 0 -84 -6q-2 14 -2 18z" />
<glyph unicode="u" horiz-adv-x="473" d="M53 113q0 19 19 123.5t19 128.5q0 50 -21 58q4 17 19 34t34 17q25 0 32.5 -19.5t7.5 -60.5q0 -43 -20 -144.5t-20 -132.5q0 -35 13.5 -55.5t37.5 -20.5q39 0 86 45.5t67 104.5q30 199 34 273q18 5 33 5q39 0 39 -32q0 -10 -25 -160t-25 -184q0 -37 32 -57 q-5 -17 -17.5 -31.5t-32.5 -14.5q-48 0 -48 80q0 23 1 34q-25 -48 -67.5 -81t-92.5 -33t-77.5 34t-27.5 89z" />
<glyph unicode="v" horiz-adv-x="402" d="M51 132q0 45 10 110.5t10 123.5q0 51 -19 91q32 17 54 17q44 0 44 -67q0 -36 -16 -133t-16 -142q0 -64 19 -92q40 4 77.5 41t61.5 88t38.5 104.5t14.5 92.5q0 62 -15 93q26 15 49 15q39 0 39 -65q0 -47 -20.5 -116t-55 -137.5t-88.5 -117t-111 -48.5q-20 0 -36 8 q-40 43 -40 134z" />
<glyph unicode="w" horiz-adv-x="627" d="M51 132q0 45 10 110.5t10 123.5q0 51 -19 91q32 17 54 17q44 0 44 -67q0 -36 -16 -133t-16 -142q0 -63 18 -92q50 4 93.5 61.5t65.5 125.5t22 119q0 57 -15 87q26 15 49 15q39 0 39 -62q0 -56 -30 -141q0 -10 -2.5 -48t-2.5 -59q0 -67 18 -98q50 5 93.5 66t65.5 133.5 t22 126.5q0 62 -15 93q25 15 49 15q39 0 39 -65q0 -47 -20 -116t-53 -137.5t-85 -117t-108 -48.5q-19 0 -34 8q-33 36 -38 103q-76 -111 -165 -111q-19 0 -34 8q-39 43 -39 134z" />
<glyph unicode="x" horiz-adv-x="398" d="M11 31q0 50 157 200q-4 10 -11.5 30t-11.5 29.5t-11 25.5t-11.5 24t-11.5 19.5t-13 17.5t-14 12t-17 8.5t-19 2.5q-4 14 -4 24q0 21 12.5 35.5t30.5 14.5q65 0 133 -187q86 111 95 186q4 1 13 1q20 0 31.5 -10t11.5 -26q0 -47 -131 -197q7 -16 18 -44t17 -43t16.5 -35 t19.5 -30t22.5 -17.5t29.5 -7.5q4 -14 4 -24q0 -21 -12.5 -35.5t-30.5 -14.5q-21 0 -42 20t-41 58t-29.5 59.5t-24.5 57.5q-115 -126 -124 -191q-4 -1 -11 -1q-19 0 -30 10.5t-11 27.5z" />
<glyph unicode="y" horiz-adv-x="411" d="M-180 -171q0 32 44 53q8 -28 32.5 -45t55.5 -17q30 0 59 14.5t55 42.5t44.5 52.5t41.5 60.5q-6 83 -48 243t-91 202q28 39 58 39q33 0 50 -48q36 -101 83 -354q117 193 117 323q0 28 -14 64q26 15 47 15q42 0 42 -66q0 -75 -51 -191.5t-123 -223.5q-80 -119 -141 -171 t-152 -52q-45 0 -77 16t-32 43z" />
<glyph unicode="z" horiz-adv-x="391" d="M11 41q0 18 13 41q45 76 271 319q-28 0 -84 6.5t-87 6.5q-32 0 -60 -14q-8 19 -8 35q0 39 47 39q22 0 97.5 -9.5t111.5 -9.5q39 0 57 9q17 -16 17 -42q0 -27 -17 -45q-190 -202 -273 -310q6 1 17 1q26 0 81.5 -9t79.5 -9q40 0 64 12q8 -13 8 -31q0 -41 -73 -41 q-20 0 -81 9t-95 9q-40 0 -67 -9q-19 26 -19 42z" />
<glyph unicode="{" horiz-adv-x="417" d="M66 261l7 50q56 0 88.5 27t37.5 57q0 -1 6.5 46t14.5 101t9 62q8 58 43.5 84.5t122.5 26.5q23 0 36 -1q1 -3 1 -9q0 -49 -48 -49q-54 0 -70.5 -12.5t-20.5 -51.5l-29 -199q-4 -32 -30.5 -65t-52.5 -42q21 -8 37.5 -35.5t16.5 -57.5q0 -14 -15.5 -121.5t-15.5 -119.5 q0 -19 14.5 -27t55.5 -8q45 0 45 -27q0 -15 -9 -31q-13 -1 -36 -1q-76 0 -106 20t-30 63q0 20 15.5 130.5t15.5 114.5q0 29 -25.5 52t-77.5 23z" />
<glyph unicode="|" d="M249 733q16 3 30 3q46 0 46 -38q0 -4 -1.5 -53.5t-3.5 -131t-2 -162.5v-308q0 -236 8 -289q-16 -3 -30 -3q-46 0 -46 38q0 4 2 53.5t3.5 131t1.5 162.5v308q0 236 -8 289z" />
<glyph unicode="}" horiz-adv-x="417" d="M-15 -131q0 27 12 37.5t40 10.5q52 0 66 12.5t19 51.5l29 199q5 31 31.5 64t51.5 42q-21 8 -37.5 37t-16.5 58q0 4 15.5 115t15.5 125q0 19 -14.5 27t-55.5 8q-44 0 -44 27q0 15 9 31q13 1 36 1q76 0 106 -20t30 -63q0 -16 -15.5 -127t-15.5 -118q0 -29 25.5 -52.5 t77.5 -23.5l-7 -50q-56 0 -88.5 -26.5t-37.5 -56.5q0 1 -7 -46.5t-14 -99.5t-9 -63q-8 -58 -43.5 -84.5t-122.5 -26.5q-22 0 -35 1q-1 3 -1 10z" />
<glyph unicode="~" horiz-adv-x="546" d="M40 267q0 62 98 62q51 0 130.5 -20t116.5 -20q66 0 102 35q19 -25 19 -49q0 -32 -36 -47t-85 -15q-31 0 -107 20t-117 20q-66 0 -102 -35q-19 25 -19 49z" />
<glyph unicode="&#xa1;" horiz-adv-x="296" d="M60 -181q0 16 8.5 56t21 103.5t20.5 119.5q13 105 13 124q0 25 -4 44q22 10 39 10q35 0 35 -37q0 -7 -20 -182.5t-20 -241.5q0 -19 1 -26q-32 -8 -53 -8q-41 0 -41 38zM121 402q0 30 19 51.5t46 21.5q21 0 35.5 -14.5t14.5 -38.5q0 -29 -20 -51.5t-46 -22.5 q-21 0 -35 15.5t-14 38.5z" />
<glyph unicode="&#xa2;" d="M85 276q0 127 70 205.5t173 95.5q10 82 10 104q12 3 18 3q24 0 24 -20q0 -2 -1.5 -12.5t-5 -32.5t-5.5 -38h8q28 0 60.5 -7t59.5 -25t27 -43q0 -18 -13 -31.5t-36 -18.5q-40 69 -104 69h-10l-56 -399h10q64 0 123 69q37 -8 37 -39q0 -28 -33 -49t-70 -29t-67 -8h-7 q-5 -41 -7 -84l-16 -2q-26 0 -26 25q0 9 9 64q-76 12 -124 62t-48 141zM156 288q0 -64 30.5 -103t78.5 -53l55 386q-69 -18 -116.5 -78.5t-47.5 -151.5z" />
<glyph unicode="&#xa3;" d="M35 22q0 16 17.5 30.5t53.5 20.5q72 74 102 122.5t30 104.5q0 20 -4 36h-20q-36 0 -102 -4q-1 6 -1 15q4 23 38 26q12 0 39 1.5t33 1.5q-3 10 -10.5 30.5t-11.5 32.5t-7.5 29t-3.5 31q0 63 53.5 119.5t127.5 56.5q28 0 50.5 -14.5t22.5 -39.5q0 -35 -43 -53 q-18 40 -65 40q-31 0 -53.5 -21.5t-22.5 -57.5q0 -26 23 -79.5t28 -69.5q80 4 138 12q2 -14 2 -20q0 -22 -14.5 -31t-47.5 -9q-18 0 -70 2v-6q0 -74 -34.5 -129.5t-135.5 -129.5q17 -1 72.5 -12t99.5 -11q35 0 63.5 22.5t28.5 53.5h6q53 0 53 -45q0 -40 -41.5 -60t-91.5 -20 q-54 0 -119.5 14t-100.5 14q-7 0 -13 -2q-18 -26 -43 -26q-11 0 -18.5 7t-7.5 18z" />
<glyph unicode="&#xa5;" d="M60 201q0 34 29 34h138l10 71h-10q-99 0 -151 -5q-1 4 -1 12q0 32 29 32h120q-4 11 -49 118q-46 114 -100 165q29 40 59 40q19 0 37 -36q71 -142 118 -269q53 63 117 167t71 141q3 1 14 1q38 0 38 -30q0 -27 -61.5 -119t-131.5 -178q86 0 137 5v-7q0 -37 -30 -37h-143 l-10 -71h15q99 0 153 5v-8q0 -36 -29 -36h-143q-13 -102 -13 -138q0 -27 4 -53q-18 -8 -36 -8q-41 0 -41 36q0 7 2.5 26.5t8.5 59.5t11 77h-9q-98 0 -152 -5q-1 4 -1 10z" />
<glyph unicode="&#xa6;" d="M249 192q16 3 30 3q46 0 46 -38q0 -5 -3.5 -71.5t-3.5 -99.5v-40q0 -120 8 -192q-16 -3 -30 -3q-46 0 -46 38q0 5 3.5 87t3.5 115v31q0 117 -8 170zM249 734q16 3 30 3q46 0 46 -38q0 -5 -3.5 -72t-3.5 -99v-39q0 -120 8 -192q-16 -3 -30 -3q-46 0 -46 38q0 5 3.5 87 t3.5 115v30q0 117 -8 170z" />
<glyph unicode="&#xa7;" horiz-adv-x="415" d="M21 -3q0 34 48 47q12 -65 116 -65q41 0 68.5 23.5t27.5 69.5q0 33 -21.5 56.5t-52.5 39t-61.5 31.5t-52 44t-21.5 68q0 76 60 129q-13 29 -13 67q0 76 51.5 120.5t125.5 44.5q42 0 80.5 -19t38.5 -53q0 -36 -48 -49q-6 29 -36 47t-65 18q-38 0 -63.5 -22t-25.5 -64 q0 -34 21.5 -58.5t52.5 -40t61.5 -32.5t52 -45.5t21.5 -69.5q0 -77 -59 -129q13 -26 13 -59q0 -84 -54 -129t-129 -45q-55 0 -95.5 21.5t-40.5 53.5zM132 339q0 -35 29 -58t75 -46.5t68 -46.5q22 29 22 69q0 36 -29 58t-75 44t-68 47q-22 -28 -22 -67z" />
<glyph unicode="&#xa8;" horiz-adv-x="257" d="M39 568q0 25 17 42.5t39 17.5q18 0 30.5 -14t12.5 -35q0 -24 -18 -41t-38 -17q-19 0 -31 13t-12 34zM206 568q0 25 17 42.5t39 17.5q18 0 30.5 -14t12.5 -35q0 -24 -18 -41t-38 -17q-19 0 -31 13t-12 34z" />
<glyph unicode="&#xa9;" horiz-adv-x="888" d="M130 320q0 152 100 253t247 101q145 0 245 -101t100 -253q0 -150 -100.5 -252t-244.5 -102q-147 0 -247 101.5t-100 252.5zM202 320q0 -133 79.5 -215t195.5 -82q114 0 193.5 82t79.5 215q0 132 -79.5 214.5t-193.5 82.5q-116 0 -195.5 -82t-79.5 -215zM283 318 q0 113 62.5 171.5t141.5 58.5q27 0 55.5 -8t52 -27.5t23.5 -45.5q0 -34 -43 -40q-9 31 -36.5 46.5t-58.5 15.5q-48 0 -80.5 -44t-32.5 -115q0 -90 40 -131.5t95 -41.5q59 0 86 38q29 -16 29 -38q0 -24 -37 -41.5t-87 -17.5q-38 0 -73.5 11.5t-67 36t-50.5 69t-19 103.5z" />
<glyph unicode="&#xaa;" horiz-adv-x="309" d="M12 267q0 41 39 41q2 0 33.5 -3.5t55.5 -3.5q69 0 102 7q1 -4 1 -11q0 -17 -11 -29t-28 -12q-8 0 -37.5 4t-44.5 4q-61 0 -109 -8q-1 4 -1 11zM48 438q0 61 59 78q43 12 105 14q3 20 3 33q0 25 -12 35.5t-41 10.5q-40 0 -59 -36q-27 7 -27 22q0 22 31.5 35t67.5 13 q43 0 64 -14.5t21 -51.5q0 -17 -9 -78.5t-9 -85.5q0 -11 2 -29q-8 -4 -24 -4q-24 0 -24 24q-36 -28 -73 -28q-75 0 -75 62zM96 446q0 -37 39 -37q34 0 61 25l4 25q6 37 8 44q-7 -1 -20.5 -2.5t-20 -2.5t-17.5 -3t-16 -3.5t-12.5 -4.5t-11 -7t-7.5 -8.5t-5.5 -11t-1.5 -14.5z " />
<glyph unicode="&#xab;" horiz-adv-x="472" d="M60 235q117 136 191 191q17 -13 17 -23q0 -28 -129 -168q28 -43 55.5 -94t27.5 -67q0 -15 -24 -30q-63 59 -138 191zM249 235q117 136 191 191q17 -13 17 -23q0 -28 -129 -168q28 -43 55.5 -94t27.5 -67q0 -15 -24 -30q-63 59 -138 191z" />
<glyph unicode="&#xac;" d="M76 287q0 37 42 37h355l2 -222q0 -28 -9 -39.5t-35 -11.5q-18 0 -34 8q17 56 17 177v36h-231q-56 0 -100 -15q-7 17 -7 30z" />
<glyph unicode="&#xad;" horiz-adv-x="224" d="M25 240q0 54 41 54q1 0 28.5 -2t49.5 -2q43 0 74 7q1 -4 1 -11q0 -22 -10.5 -40t-31.5 -18q-6 0 -29 2.5t-42 2.5q-45 0 -80 -8q-1 5 -1 15z" />
<glyph unicode="&#xae;" horiz-adv-x="607" d="M100 440q0 100 66 166.5t163 66.5q95 0 161.5 -67t66.5 -166t-66.5 -166t-161.5 -67q-97 0 -163 67t-66 166zM159 440q0 -82 49 -132.5t121 -50.5q71 0 120 50.5t49 132.5t-49 132.5t-120 50.5q-72 0 -121 -50.5t-49 -132.5zM238 558q62 5 81 5q108 0 108 -72 q0 -54 -64 -67q20 -34 47 -64q8 -8 22 -8q2 -4 2 -11q0 -18 -24 -18q-27 0 -44 25q-3 5 -23.5 32.5t-27.5 39.5q-12 0 -22 3v-26q0 -44 8 -67q-9 -5 -30 -5q-31 0 -31 23q0 3 1 26t1 34v69q0 52 -4 81zM292 529q1 -10 1 -80q20 -4 27 -4q24 0 40.5 11t16.5 35q0 40 -62 40 q-7 0 -23 -2z" />
<glyph unicode="&#xaf;" horiz-adv-x="350" d="M97 551q0 64 34 64q3 0 40 -3t55 -3h21q62 0 110 6q0 -64 -35 -64q-3 0 -19 1.5t-40.5 3t-46.5 1.5h-21q-56 0 -98 -6z" />
<glyph unicode="&#xb0;" horiz-adv-x="356" d="M47 520q0 78 52 134.5t127 56.5q57 0 92 -37t35 -95q0 -80 -52 -136t-125 -56q-59 0 -94 37t-35 96zM112 525q0 -37 18.5 -59.5t53.5 -22.5q45 0 74 39.5t29 90.5q0 37 -18 59.5t-52 22.5q-46 0 -75.5 -39.5t-29.5 -90.5z" />
<glyph unicode="&#xb1;" d="M79 36q0 16 9 29t27 13q3 0 63 -3.5t104 -3.5q130 0 191 7q3 -9 3 -30q0 -18 -10 -30t-26 -12t-71.5 4t-84.5 4q-114 0 -202 -8q-3 15 -3 30zM79 286q0 16 9 29t27 13q7 0 54.5 -3t89.5 -4q0 88 -8 157q9 3 30 3q18 0 30 -10t12 -26q0 -17 -3.5 -58.5t-3.5 -66.5 q108 0 177 8q3 -9 3 -30q0 -18 -10 -30t-26 -12q-17 0 -68.5 3.5t-76.5 3.5q0 -59 8 -147q-15 -3 -30 -3q-17 0 -29.5 9.5t-12.5 26.5q0 6 3 38t4 77q-87 -1 -176 -8q-3 15 -3 30z" />
<glyph unicode="&#xb2;" horiz-adv-x="399" d="M45 254q0 18 3 25q114 66 182 142t68 136q0 29 -18 47t-49 18q-24 0 -53.5 -20.5t-50.5 -52.5q-28 3 -28 24q0 32 48.5 66t102.5 34q53 0 83.5 -28.5t30.5 -74.5q0 -66 -69 -147.5t-188 -147.5q27 -1 82 -1q103 0 157 24q8 -14 8 -32q0 -25 -26 -34q-32 -12 -129 -12 q-73 0 -120 2q-34 0 -34 32z" />
<glyph unicode="&#xb3;" horiz-adv-x="373" d="M45 264q0 24 32 36q32 -41 88 -41q46 0 76 27t30 74q0 74 -100 74q-20 0 -20 21q0 7 3 16q28 1 47.5 4.5t42 13t34.5 30.5t12 53q0 50 -63 50q-50 0 -97 -53q-28 6 -28 28q0 31 47 53.5t89 22.5q59 0 88.5 -24t29.5 -65q0 -96 -96 -126q75 -26 75 -100 q0 -65 -53.5 -107.5t-128.5 -42.5q-43 0 -75.5 15t-32.5 41z" />
<glyph unicode="&#xb4;" horiz-adv-x="201" d="M0 554q0 20 21 30q105 60 150 104q30 -22 30 -45q0 -22 -29 -39q-22 -12 -83 -40t-76 -39q-13 13 -13 29z" />
<glyph unicode="&#xb5;" horiz-adv-x="473" d="M9 -163q0 46 39 267t39 266q0 49 -20 54q2 14 18 32.5t35 18.5q43 0 43 -61q0 -16 -20 -142.5t-20 -154.5q0 -35 13.5 -55.5t37.5 -20.5q39 0 86 45.5t67 104.5q30 199 34 273q18 5 33 5q39 0 39 -32q0 -6 -2 -19t-7 -39t-8 -48q-33 -204 -33 -238q0 -47 20 -52 q-2 -14 -18 -32.5t-35 -18.5q-41 0 -41 62q0 18 3 36q-23 -37 -66 -67.5t-82 -30.5q-40 0 -64 36q-24 -82 -24 -146q0 -72 34 -88q-14 -46 -51 -46q-50 0 -50 91z" />
<glyph unicode="&#xb6;" horiz-adv-x="472" d="M60 362q0 93 61.5 153t146.5 60q6 0 61.5 -2t83.5 -2q56 0 87 1q2 -14 2 -18q0 -40 -63 -40h-22q-49 -232 -68 -399q-27 -234 -164 -234q-27 0 -44.5 12t-17.5 32q0 15 9 33q28 -12 53 -12q27 0 46 13t28.5 32.5t15.5 48.5t8 53t4.5 55.5t4.5 47.5q26 184 55 318 q-46 0 -55 2q-21 -83 -49 -281q-2 -17 -47 -17q-58 0 -97 39.5t-39 104.5z" />
<glyph unicode="&#xb7;" horiz-adv-x="175" d="M35 250q0 29 20 51.5t46 22.5q21 0 35 -15.5t14 -38.5q0 -30 -19 -51.5t-46 -21.5q-21 0 -35.5 14.5t-14.5 38.5z" />
<glyph unicode="&#xb8;" horiz-adv-x="350" d="M51 -209q0 14 19 31q13 -9 27 -9q25 0 43.5 12t18.5 33q0 20 -28.5 43t-28.5 40q0 30 40 91l37 -5q-1 -3 -9 -18t-12.5 -26t-4.5 -16q0 -11 22 -27q38 -23 38 -62q0 -42 -38.5 -76t-92.5 -34q-31 0 -31 23z" />
<glyph unicode="&#xb9;" horiz-adv-x="344" d="M50 236q0 36 52 36h39q25 174 27 190q12 87 18 155q-50 -5 -88 -19q-3 9 -3 17q0 35 38 44q62 14 93 14t31 -27q0 -4 -6 -34.5t-14.5 -81t-14.5 -93.5q-16 -123 -16 -160v-9q36 0 72 4q1 -4 1 -13q0 -40 -37 -40q-6 0 -43 1t-74 1q-47 0 -73 -1q-2 12 -2 16z" />
<glyph unicode="&#xba;" horiz-adv-x="343" d="M20 267q0 41 39 41q2 0 33.5 -3.5t55.5 -3.5q69 0 102 7q1 -4 1 -11q0 -17 -11 -29t-28 -12q-8 0 -37.5 4t-44.5 4q-61 0 -109 -8q-1 4 -1 11zM43 484q0 65 37.5 112t101.5 47q49 0 77 -29.5t28 -80.5q0 -64 -38.5 -110.5t-101.5 -46.5q-48 0 -76 29t-28 79zM89 495 q0 -38 16 -61t46 -23q41 0 66 31.5t25 80.5q0 38 -16.5 61.5t-47.5 23.5q-41 0 -65 -32t-24 -81z" />
<glyph unicode="&#xbb;" horiz-adv-x="473" d="M15 67q0 30 130 168q-28 41 -56 92.5t-28 68.5q0 12 24 30q59 -56 139 -191q-123 -140 -192 -191q-17 13 -17 23zM204 67q0 30 130 168q-28 41 -56 92.5t-28 68.5q0 12 24 30q59 -56 139 -191q-123 -140 -192 -191q-17 13 -17 23z" />
<glyph unicode="&#xbc;" horiz-adv-x="838" d="M50 236q0 36 52 36h39q25 174 27 190q12 87 18 155q-50 -5 -88 -19q-3 9 -3 17q0 35 38 44q62 14 93 14t31 -27q0 -4 -6 -34.5t-14.5 -81t-14.5 -93.5q-16 -123 -16 -160v-9q36 0 72 4q1 -4 1 -13q0 -40 -37 -40q-6 0 -43 1t-74 1q-47 0 -73 -1q-2 12 -2 16zM150 -78 q0 8 8 21l352 585q80 133 121 212q17 0 31 -7t14 -20q0 -12 -8 -23l-352 -585q-85 -141 -121 -212q-45 2 -45 29zM455 160q0 17 5 35q40 58 109 133t115 113q12 11 45 11q6 0 22 -2q0 -2 -6.5 -36.5t-16.5 -96t-19 -129.5q45 3 65 12q4 -14 4 -25q0 -13 -4.5 -21.5t-9.5 -13 t-17.5 -7t-20 -3t-25.5 -0.5q-6 -50 -6 -80q0 -31 4 -52q-16 -8 -31 -8q-38 0 -38 35q0 18 6 52.5t8 51.5h-37q-84 0 -138 7q-14 1 -14 24zM512 185q31 -2 140 -2q7 53 15 110t11 79q-11 -11 -38 -37.5t-40 -40.5t-38 -43.5t-50 -65.5z" />
<glyph unicode="&#xbd;" horiz-adv-x="892" d="M50 236q0 36 52 36h39q25 174 27 190q12 87 18 155q-50 -5 -88 -19q-3 9 -3 17q0 35 38 44q62 14 93 14t31 -27q0 -4 -6 -34.5t-14.5 -81t-14.5 -93.5q-16 -123 -16 -160v-9q36 0 72 4q1 -4 1 -13q0 -40 -37 -40q-6 0 -43 1t-74 1q-47 0 -73 -1q-2 12 -2 16zM150 -78 q0 8 8 21l352 585q80 133 121 212q17 0 31 -7t14 -20q0 -12 -8 -23l-352 -585q-85 -141 -121 -212q-45 2 -45 29zM488 33q0 18 3 25q114 66 182 142t68 136q0 29 -18 47t-49 18q-24 0 -53.5 -20.5t-50.5 -52.5q-28 3 -28 24q0 32 48.5 66t102.5 34q53 0 83.5 -28.5 t30.5 -74.5q0 -66 -69 -147.5t-188 -147.5q27 -1 82 -1q103 0 157 24q8 -14 8 -32q0 -25 -26 -34q-32 -12 -129 -12q-73 0 -120 2q-34 0 -34 32z" />
<glyph unicode="&#xbe;" horiz-adv-x="852" d="M45 264q0 26 32 36q30 -41 88 -41q47 0 76 28t29 75q0 72 -93 72q-17 0 -26 -1v38h5q135 0 135 98q0 53 -64 53q-48 0 -97 -53q-28 6 -28 28q0 31 47 53.5t92 22.5q117 0 117 -88q0 -96 -97 -127q74 -25 74 -96q0 -61 -48 -107.5t-132 -46.5q-45 0 -77.5 15t-32.5 41z M174 -78q0 8 8 21l352 585q80 133 121 212q17 0 31 -7t14 -20q0 -12 -8 -23l-352 -585q-85 -141 -121 -212q-45 2 -45 29zM469 160q0 17 5 35q40 58 109 133t115 113q12 11 45 11q6 0 22 -2q0 -2 -6.5 -36.5t-16.5 -96t-19 -129.5q45 3 65 12q4 -14 4 -25q0 -13 -4.5 -21.5 t-9.5 -13t-17.5 -7t-20 -3t-25.5 -0.5q-6 -50 -6 -80q0 -31 4 -52q-16 -8 -31 -8q-38 0 -38 35q0 18 6 52.5t8 51.5h-37q-84 0 -138 7q-14 1 -14 24zM526 185q31 -2 140 -2q7 53 15 110t11 79q-11 -11 -38 -37.5t-40 -40.5t-38 -43.5t-50 -65.5z" />
<glyph unicode="&#xbf;" horiz-adv-x="362" d="M0 -95q0 71 59 135q13 14 42 40t44.5 42.5t29 45t13.5 60.5q0 19 -4 38q23 10 40 10q37 0 37 -49q0 -34 -16 -66.5t-35.5 -54t-49.5 -52t-45 -50.5q-42 -55 -42 -105q0 -31 19 -46.5t50 -15.5q38 0 73.5 21t46.5 54q40 -7 40 -37q0 -41 -46.5 -67.5t-106.5 -26.5 q-62 0 -105.5 31t-43.5 93zM171 401q0 29 20 51.5t46 22.5q21 0 35 -15.5t14 -38.5q0 -30 -19 -51.5t-46 -21.5q-21 0 -35.5 14.5t-14.5 38.5z" />
<glyph unicode="&#xc0;" horiz-adv-x="528" d="M-10 28q0 9 20.5 51t61.5 123t67 134q116 241 139 323q36 4 45 4q24 0 35 -11t17 -42q3 -13 15.5 -85t24.5 -131.5t25 -113.5q44 -193 71 -270q-28 -20 -49 -20q-31 0 -37 27q-14 63 -41 192q-100 -2 -120 -2q-22 0 -114 2q-11 -24 -34 -75t-39 -86.5t-24 -60.5 q-22 1 -42.5 11.5t-20.5 29.5zM167 846q0 27 35 46q12 -15 33 -34t39 -33t39 -30t25 -19q19 -14 19 -28q0 -16 -16 -32q-13 11 -69 44.5t-80 49.5q-25 16 -25 36zM178 268q72 -2 110 -2q56 0 83 2q-18 81 -58 301q-11 -24 -35.5 -81t-49.5 -112.5t-50 -107.5z" />
<glyph unicode="&#xc1;" horiz-adv-x="528" d="M-10 28q0 9 20.5 51t61.5 123t67 134q116 241 139 323q36 4 45 4q24 0 35 -11t17 -42q3 -13 15.5 -85t24.5 -131.5t25 -113.5q44 -193 71 -270q-28 -20 -49 -20q-31 0 -37 27q-14 63 -41 192q-100 -2 -120 -2q-22 0 -114 2q-11 -24 -34 -75t-39 -86.5t-24 -60.5 q-22 1 -42.5 11.5t-20.5 29.5zM178 268q72 -2 110 -2q56 0 83 2q-18 81 -58 301q-11 -24 -35.5 -81t-49.5 -112.5t-50 -107.5zM232 745q0 20 21 30q105 60 150 104q30 -22 30 -45q0 -22 -29 -39q-22 -12 -83 -40t-76 -39q-13 13 -13 29z" />
<glyph unicode="&#xc2;" horiz-adv-x="528" d="M-10 28q0 9 20.5 51t61.5 123t67 134q116 241 139 323q36 4 45 4q24 0 35 -11t17 -42q3 -13 15.5 -85t24.5 -131.5t25 -113.5q44 -193 71 -270q-28 -20 -49 -20q-31 0 -37 27q-14 63 -41 192q-100 -2 -120 -2q-22 0 -114 2q-11 -24 -34 -75t-39 -86.5t-24 -60.5 q-22 1 -42.5 11.5t-20.5 29.5zM178 268q72 -2 110 -2q56 0 83 2q-18 81 -58 301q-11 -24 -35.5 -81t-49.5 -112.5t-50 -107.5zM187 736q68 75 152 134q106 -80 106 -127q0 -22 -27 -33q-14 24 -37 46t-39 32l-15 11q-103 -81 -118 -81q-12 0 -22 18z" />
<glyph unicode="&#xc3;" horiz-adv-x="528" d="M-10 28q0 9 20.5 51t61.5 123t67 134q116 241 139 323q36 4 45 4q24 0 35 -11t17 -42q3 -13 15.5 -85t24.5 -131.5t25 -113.5q44 -193 71 -270q-28 -20 -49 -20q-31 0 -37 27q-14 63 -41 192q-100 -2 -120 -2q-22 0 -114 2q-11 -24 -34 -75t-39 -86.5t-24 -60.5 q-22 1 -42.5 11.5t-20.5 29.5zM178 268q72 -2 110 -2q56 0 83 2q-18 81 -58 301q-11 -24 -35.5 -81t-49.5 -112.5t-50 -107.5zM178 741q0 28 36 56t73 28q18 0 53.5 -22.5t52.5 -22.5q11 0 30.5 13t34.5 29q13 -5 13 -17q0 -28 -36 -56t-72 -28q-21 0 -55 22.5t-52 22.5 q-19 0 -65 -42q-13 6 -13 17z" />
<glyph unicode="&#xc4;" horiz-adv-x="528" d="M-10 28q0 9 20.5 51t61.5 123t67 134q116 241 139 323q36 4 45 4q24 0 35 -11t17 -42q3 -13 15.5 -85t24.5 -131.5t25 -113.5q44 -193 71 -270q-28 -20 -49 -20q-31 0 -37 27q-14 63 -41 192q-100 -2 -120 -2q-22 0 -114 2q-11 -24 -34 -75t-39 -86.5t-24 -60.5 q-22 1 -42.5 11.5t-20.5 29.5zM178 268q72 -2 110 -2q56 0 83 2q-18 81 -58 301q-11 -24 -35.5 -81t-49.5 -112.5t-50 -107.5zM192 759q0 25 17 42.5t39 17.5q18 0 30.5 -14t12.5 -35q0 -24 -18 -41t-38 -17q-19 0 -31 13t-12 34zM359 759q0 25 17 42.5t39 17.5 q18 0 30.5 -14t12.5 -35q0 -24 -18 -41t-38 -17q-19 0 -31 13t-12 34z" />
<glyph unicode="&#xc5;" horiz-adv-x="528" d="M-10 28q0 9 20.5 51t61.5 123t67 134q116 241 139 323q36 4 45 4q24 0 35 -11t17 -42q3 -13 15.5 -85t24.5 -131.5t25 -113.5q44 -193 71 -270q-28 -20 -49 -20q-31 0 -37 27q-14 63 -41 192q-100 -2 -120 -2q-22 0 -114 2q-11 -24 -34 -75t-39 -86.5t-24 -60.5 q-22 1 -42.5 11.5t-20.5 29.5zM178 268q72 -2 110 -2q56 0 83 2q-18 81 -58 301q-11 -24 -35.5 -81t-49.5 -112.5t-50 -107.5zM244 786q0 44 28.5 73.5t69.5 29.5q34 0 54 -20t20 -55q0 -44 -28 -73.5t-69 -29.5q-35 0 -55 20t-20 55zM286 790q0 -21 9.5 -33.5t27.5 -12.5 q24 0 37 18.5t13 46.5q0 21 -9.5 34t-25.5 13q-25 0 -38.5 -18.5t-13.5 -47.5z" />
<glyph unicode="&#xc6;" horiz-adv-x="716" d="M-40 26q0 11 42 73q18 26 65 93t73 106q143 210 222 356q105 11 220 11q129 0 144 -15q5 -6 5 -19q0 -26 -14 -51q-48 21 -164 21q-39 0 -90 -3q-2 -47 -24 -212q137 0 170 4q2 -16 2 -22q0 -41 -45 -44q-24 -1 -136 -1q-27 -211 -27 -262q28 -2 50 -2q54 0 109.5 7 t73.5 16q8 -27 8 -42q0 -29 -31.5 -36t-120.5 -7q-112 0 -138 2q-20 1 -28 9t-8 26q0 34 19 174q-27 -1 -73 -1q-20 0 -112 2q-114 -171 -138 -219q-54 9 -54 36zM192 268q68 -2 107 -2h47q28 204 36 299q-14 -22 -79.5 -126t-110.5 -171z" />
<glyph unicode="&#xc7;" horiz-adv-x="517" d="M48 264q0 181 92 295t238 114q66 0 110 -28.5t44 -70.5q0 -25 -16.5 -40.5t-42.5 -19.5q-11 49 -44 73.5t-74 24.5q-98 0 -161 -98t-63 -227q0 -104 41.5 -170t121.5 -66q82 0 133 83q43 -18 43 -47q0 -37 -54 -66.5t-128 -30.5q-7 -16 -7 -23q0 -11 22 -27 q38 -23 38 -62q0 -42 -38.5 -76t-92.5 -34q-31 0 -31 23q0 14 19 31q13 -9 27 -9q25 0 43.5 12t18.5 33q0 20 -28.5 43t-28.5 40t16 52q-93 12 -145.5 84.5t-52.5 186.5z" />
<glyph unicode="&#xc8;" horiz-adv-x="458" d="M60 34q0 28 33.5 272t33.5 325q0 18 -1 25q98 9 198 9q129 0 144 -15q5 -6 5 -19q0 -26 -14 -51q-48 21 -164 21q-39 0 -90 -3q-2 -47 -24 -212q137 0 170 4q2 -16 2 -22q0 -41 -45 -44q-24 -1 -136 -1q-27 -211 -27 -262q28 -2 50 -2q54 0 109.5 7t73.5 16q8 -27 8 -42 q0 -29 -31.5 -36t-120.5 -7q-112 0 -138 2q-20 1 -28 9t-8 26zM163 846q0 27 35 46q12 -15 33 -34t39 -33t39 -30t25 -19q19 -14 19 -28q0 -16 -16 -32q-13 11 -69 44.5t-80 49.5q-25 16 -25 36z" />
<glyph unicode="&#xc9;" horiz-adv-x="458" d="M60 34q0 28 33.5 272t33.5 325q0 18 -1 25q98 9 198 9q129 0 144 -15q5 -6 5 -19q0 -26 -14 -51q-48 21 -164 21q-39 0 -90 -3q-2 -47 -24 -212q137 0 170 4q2 -16 2 -22q0 -41 -45 -44q-24 -1 -136 -1q-27 -211 -27 -262q28 -2 50 -2q54 0 109.5 7t73.5 16q8 -27 8 -42 q0 -29 -31.5 -36t-120.5 -7q-112 0 -138 2q-20 1 -28 9t-8 26zM248 744q0 20 21 30q105 60 150 104q30 -22 30 -45q0 -22 -29 -39q-22 -12 -83 -40t-76 -39q-13 13 -13 29z" />
<glyph unicode="&#xca;" horiz-adv-x="458" d="M60 34q0 28 33.5 272t33.5 325q0 18 -1 25q98 9 198 9q129 0 144 -15q5 -6 5 -19q0 -26 -14 -51q-48 21 -164 21q-39 0 -90 -3q-2 -47 -24 -212q137 0 170 4q2 -16 2 -22q0 -41 -45 -44q-24 -1 -136 -1q-27 -211 -27 -262q28 -2 50 -2q54 0 109.5 7t73.5 16q8 -27 8 -42 q0 -29 -31.5 -36t-120.5 -7q-112 0 -138 2q-20 1 -28 9t-8 26zM177 736q68 75 152 134q106 -80 106 -127q0 -22 -27 -33q-14 24 -37 46t-39 32l-15 11q-6 -5 -19.5 -15.5t-21 -16.5t-19 -15t-19 -14t-16 -10t-14 -7.5t-9.5 -2.5q-12 0 -22 18z" />
<glyph unicode="&#xcb;" horiz-adv-x="453" d="M60 34q0 28 33.5 272t33.5 325q0 18 -1 25q98 9 193 9q129 0 144 -15q5 -6 5 -19q0 -26 -14 -51q-48 21 -164 21q-34 0 -85 -3q-2 -47 -24 -212q137 0 170 4q2 -16 2 -22q0 -41 -45 -44q-24 -1 -136 -1q-27 -211 -27 -262q28 -2 64 -2q54 0 109.5 7t73.5 16q8 -27 8 -42 q0 -29 -31.5 -36t-120.5 -7q-126 0 -152 2q-20 1 -28 9t-8 26zM175 759q0 25 17 42.5t39 17.5q18 0 30.5 -14t12.5 -35q0 -24 -18 -41t-38 -17q-19 0 -31 13t-12 34zM342 759q0 25 17 42.5t39 17.5q18 0 30.5 -14t12.5 -35q0 -24 -18 -41t-38 -17q-19 0 -31 13t-12 34z" />
<glyph unicode="&#xcc;" horiz-adv-x="236" d="M46 846q0 27 35 46q12 -15 33 -34t39 -33t39 -30t25 -19q19 -14 19 -28q0 -16 -16 -32q-13 11 -69 44.5t-80 49.5q-25 16 -25 36zM60 39q0 7 5 43.5t18.5 136t27.5 212.5q19 150 23 232q16 3 41 3q44 0 44 -33q0 -5 -5 -32.5t-14 -83t-16 -113.5l-26 -201 q-12 -88 -12 -137q0 -34 4 -61q-18 -8 -48 -8q-42 0 -42 42z" />
<glyph unicode="&#xcd;" horiz-adv-x="236" d="M60 39q0 7 5 43.5t18.5 136t27.5 212.5q19 150 23 232q16 3 41 3q44 0 44 -33q0 -5 -5 -32.5t-14 -83t-16 -113.5l-26 -201q-12 -88 -12 -137q0 -34 4 -61q-18 -8 -48 -8q-42 0 -42 42zM111 745q0 20 21 30q105 60 150 104q30 -22 30 -45q0 -22 -29 -39q-22 -12 -83 -40 t-76 -39q-13 13 -13 29z" />
<glyph unicode="&#xce;" horiz-adv-x="236" d="M50 736q68 75 152 134q106 -80 106 -127q0 -22 -27 -33q-14 24 -37 46t-38 32l-16 11q-6 -5 -19.5 -15.5t-21 -16.5t-19 -15t-19 -14t-16 -10t-14 -7.5t-9.5 -2.5q-12 0 -22 18zM60 39q0 7 5 43.5t18.5 136t27.5 212.5q19 150 23 232q16 3 41 3q44 0 44 -33 q0 -5 -5 -32.5t-14 -83t-16 -113.5l-26 -201q-12 -88 -12 -137q0 -34 4 -61q-18 -8 -48 -8q-42 0 -42 42z" />
<glyph unicode="&#xcf;" horiz-adv-x="236" d="M54 759q0 25 17 42.5t39 17.5q18 0 30.5 -14t12.5 -35q0 -24 -18 -41t-38 -17q-19 0 -31 13t-12 34zM60 39q0 7 5 43.5t18.5 136t27.5 212.5q19 150 23 232q16 3 41 3q44 0 44 -33q0 -5 -5 -32.5t-14 -83t-16 -113.5l-26 -201q-12 -88 -12 -137q0 -34 4 -61 q-18 -8 -48 -8q-42 0 -42 42zM221 759q0 25 17 42.5t39 17.5q18 0 30.5 -14t12.5 -35q0 -24 -18 -41t-38 -17q-19 0 -31 13t-12 34z" />
<glyph unicode="&#xd0;" horiz-adv-x="605" d="M40 341q0 45 46 45h45q20 164 23 275q54 12 142 12q290 0 290 -269q0 -108 -37 -200.5t-113.5 -153t-177.5 -60.5q-124 0 -184 63q29 134 48 270q-53 0 -80 -4q-2 16 -2 22zM157 87q44 -36 112 -36q63 0 111 32.5t73 84t37 106t12 108.5q0 115 -55.5 172.5t-159.5 57.5 q-18 0 -56 -4q-9 -111 -24 -222q138 0 170 4q2 -16 2 -22q0 -41 -45 -44q-21 -1 -136 -1q-19 -127 -41 -236z" />
<glyph unicode="&#xd1;" horiz-adv-x="580" d="M60 35q0 9 4.5 41t11 79t10.5 76q7 55 16 124t13.5 104t8 74.5t3.5 70.5q0 32 -4 55q19 8 47 8t48 -29q76 -115 214 -481l34 274q17 131 23 232q15 3 32 3q42 0 42 -34q0 -7 -6 -39.5t-14.5 -87t-14.5 -101.5q-6 -49 -18 -141.5t-18 -151t-9 -110.5q-15 -4 -33 -4 q-32 0 -44 27q-26 59 -95 229.5t-119 280.5q-7 -52 -19 -142t-19 -141.5t-12.5 -107.5t-5.5 -84q0 -20 4 -54q-18 -8 -38 -8q-24 0 -33 9t-9 29zM215 741q0 28 36 56t73 28q18 0 53.5 -22.5t52.5 -22.5q11 0 30.5 13t34.5 29q13 -5 13 -17q0 -28 -36 -56t-72 -28 q-21 0 -55 22.5t-52 22.5q-19 0 -65 -42q-13 6 -13 17z" />
<glyph unicode="&#xd2;" horiz-adv-x="628" d="M48 263q0 175 89.5 293t232.5 118q112 0 175.5 -72.5t63.5 -199.5q0 -172 -90 -292t-235 -120q-111 0 -173.5 73.5t-62.5 199.5zM131 288q0 -103 39.5 -170.5t122.5 -67.5q74 0 128 48.5t79 122t25 160.5q0 99 -39.5 165t-123.5 66q-106 0 -168.5 -94t-62.5 -230z M225 846q0 27 35 46q12 -15 33 -34t39 -33t39 -30t25 -19q19 -14 19 -28q0 -16 -16 -32q-13 11 -69 44.5t-80 49.5q-25 16 -25 36z" />
<glyph unicode="&#xd3;" horiz-adv-x="628" d="M48 263q0 175 89.5 293t232.5 118q112 0 175.5 -72.5t63.5 -199.5q0 -172 -90 -292t-235 -120q-111 0 -173.5 73.5t-62.5 199.5zM131 288q0 -103 39.5 -170.5t122.5 -67.5q74 0 128 48.5t79 122t25 160.5q0 99 -39.5 165t-123.5 66q-106 0 -168.5 -94t-62.5 -230z M310 745q0 20 21 30q105 60 150 104q30 -22 30 -45q0 -22 -29 -39q-22 -12 -83 -40t-76 -39q-13 13 -13 29z" />
<glyph unicode="&#xd4;" horiz-adv-x="628" d="M48 263q0 175 89.5 293t232.5 118q112 0 175.5 -72.5t63.5 -199.5q0 -172 -90 -292t-235 -120q-111 0 -173.5 73.5t-62.5 199.5zM131 288q0 -103 39.5 -170.5t122.5 -67.5q74 0 128 48.5t79 122t25 160.5q0 99 -39.5 165t-123.5 66q-106 0 -168.5 -94t-62.5 -230z M239 736q68 75 152 134q106 -80 106 -127q0 -22 -27 -33q-14 24 -37 46t-39 32l-15 11q-103 -81 -118 -81q-12 0 -22 18z" />
<glyph unicode="&#xd5;" horiz-adv-x="628" d="M48 263q0 175 89.5 293t232.5 118q112 0 175.5 -72.5t63.5 -199.5q0 -172 -90 -292t-235 -120q-111 0 -173.5 73.5t-62.5 199.5zM131 288q0 -103 39.5 -170.5t122.5 -67.5q74 0 128 48.5t79 122t25 160.5q0 99 -39.5 165t-123.5 66q-106 0 -168.5 -94t-62.5 -230z M240 741q0 28 36 56t73 28q18 0 53.5 -22.5t52.5 -22.5q11 0 30.5 13t34.5 29q13 -5 13 -17q0 -28 -36 -56t-72 -28q-21 0 -55 22.5t-52 22.5q-19 0 -65 -42q-13 6 -13 17z" />
<glyph unicode="&#xd6;" horiz-adv-x="628" d="M48 263q0 175 89.5 293t232.5 118q112 0 175.5 -72.5t63.5 -199.5q0 -172 -90 -292t-235 -120q-111 0 -173.5 73.5t-62.5 199.5zM131 288q0 -103 39.5 -170.5t122.5 -67.5q74 0 128 48.5t79 122t25 160.5q0 99 -39.5 165t-123.5 66q-106 0 -168.5 -94t-62.5 -230z M245 759q0 25 17 42.5t39 17.5q18 0 30.5 -14t12.5 -35q0 -24 -18 -41t-38 -17q-19 0 -31 13t-12 34zM412 759q0 25 17 42.5t39 17.5q18 0 30.5 -14t12.5 -35q0 -24 -18 -41t-38 -17q-19 0 -31 13t-12 34z" />
<glyph unicode="&#xd7;" d="M81 408q24 38 50 38q13 0 24 -11q6 -6 27.5 -29.5t52.5 -56.5t52 -56q110 110 155 166q14 -8 25.5 -22t11.5 -29q0 -13 -10 -23q-13 -13 -69.5 -65t-72.5 -68q110 -110 166 -155q-22 -37 -51 -37q-13 0 -23 10q-13 13 -65 69.5t-68 72.5q-99 -97 -155 -166q-38 26 -38 51 q0 13 10 23q1 0 143 133q-125 120 -165 155z" />
<glyph unicode="&#xd8;" horiz-adv-x="632" d="M48 263q0 175 89.5 293t232.5 118q81 0 138 -40q34 54 66 110q39 -2 39 -29q0 -11 -8 -22l-60 -91q64 -72 64 -200q0 -172 -90 -292t-235 -120q-67 0 -118 28q-19 -30 -61 -102q-17 1 -28 9t-11 20q0 9 8 22l52 80q-78 72 -78 216zM131 288q0 -109 40 -172l296 454 q-40 42 -105 42q-106 0 -168.5 -94t-62.5 -230zM205 78q36 -28 88 -28q74 0 128 48.5t79 122t25 160.5q0 86 -29 145z" />
<glyph unicode="&#xd9;" horiz-adv-x="596" d="M79 157q0 25 25 214.5t30 291.5q16 3 41 3q44 0 44 -33q0 -3 -4.5 -30t-13 -79.5t-15.5 -102.5q-30 -221 -30 -257q0 -42 18.5 -72t57.5 -30q55 0 120 60.5t98 151.5q40 305 44 389q16 3 41 3q44 0 44 -33q0 -5 -5 -32.5t-14 -83t-16 -113.5l-26 -201q-12 -88 -12 -137 q0 -34 4 -61q-18 -8 -48 -8q-42 0 -42 42q0 9 12 93q-43 -68 -100.5 -105t-112.5 -37q-67 0 -103.5 48t-36.5 119zM226 846q0 27 35 46q12 -15 33 -34t39 -33t39 -30t25 -19q19 -14 19 -28q0 -16 -16 -32q-13 11 -69 44.5t-80 49.5q-25 16 -25 36z" />
<glyph unicode="&#xda;" horiz-adv-x="596" d="M79 157q0 25 25 214.5t30 291.5q16 3 41 3q44 0 44 -33q0 -3 -4.5 -30t-13 -79.5t-15.5 -102.5q-30 -221 -30 -257q0 -42 18.5 -72t57.5 -30q55 0 120 60.5t98 151.5q40 305 44 389q16 3 41 3q44 0 44 -33q0 -5 -5 -32.5t-14 -83t-16 -113.5l-26 -201q-12 -88 -12 -137 q0 -34 4 -61q-18 -8 -48 -8q-42 0 -42 42q0 9 12 93q-43 -68 -100.5 -105t-112.5 -37q-67 0 -103.5 48t-36.5 119zM311 745q0 20 21 30q105 60 150 104q30 -22 30 -45q0 -22 -29 -39q-22 -12 -83 -40t-76 -39q-13 13 -13 29z" />
<glyph unicode="&#xdb;" horiz-adv-x="596" d="M79 157q0 25 25 214.5t30 291.5q16 3 41 3q44 0 44 -33q0 -3 -4.5 -30t-13 -79.5t-15.5 -102.5q-30 -221 -30 -257q0 -42 18.5 -72t57.5 -30q55 0 120 60.5t98 151.5q40 305 44 389q16 3 41 3q44 0 44 -33q0 -5 -5 -32.5t-14 -83t-16 -113.5l-26 -201q-12 -88 -12 -137 q0 -34 4 -61q-18 -8 -48 -8q-42 0 -42 42q0 9 12 93q-43 -68 -100.5 -105t-112.5 -37q-67 0 -103.5 48t-36.5 119zM236 736q68 75 152 134q106 -80 106 -127q0 -22 -27 -33q-14 24 -37 46t-38 32l-16 11q-6 -5 -19.5 -15.5t-21 -16.5t-19 -15t-19 -14t-16 -10t-14 -7.5 t-9.5 -2.5q-12 0 -22 18z" />
<glyph unicode="&#xdc;" horiz-adv-x="596" d="M79 157q0 25 25 214.5t30 291.5q16 3 41 3q44 0 44 -33q0 -3 -4.5 -30t-13 -79.5t-15.5 -102.5q-30 -221 -30 -257q0 -42 18.5 -72t57.5 -30q55 0 120 60.5t98 151.5q40 305 44 389q16 3 41 3q44 0 44 -33q0 -5 -5 -32.5t-14 -83t-16 -113.5l-26 -201q-12 -88 -12 -137 q0 -34 4 -61q-18 -8 -48 -8q-42 0 -42 42q0 9 12 93q-43 -68 -100.5 -105t-112.5 -37q-67 0 -103.5 48t-36.5 119zM246 759q0 25 17 42.5t39 17.5q18 0 30.5 -14t12.5 -35q0 -24 -18 -41t-38 -17q-19 0 -31 13t-12 34zM413 759q0 25 17 42.5t39 17.5q18 0 30.5 -14t12.5 -35 q0 -24 -18 -41t-38 -17q-19 0 -31 13t-12 34z" />
<glyph unicode="&#xdd;" horiz-adv-x="461" d="M50 619q4 4 13.5 15t13 14l10.5 9t13 8t13 2q27 0 41 -34q42 -82 107 -264q51 64 110 165t66 138q74 0 74 -41q0 -25 -81 -137.5t-148 -191.5l-13 -99q-12 -88 -12 -137q0 -34 4 -61q-18 -8 -48 -8q-42 0 -42 42q0 6 3.5 31t13 93t18.5 139q-94 265 -156 317zM232 745 q0 20 21 30q105 60 150 104q30 -22 30 -45q0 -22 -29 -39q-22 -12 -83 -40t-76 -39q-13 13 -13 29z" />
<glyph unicode="&#xde;" horiz-adv-x="473" d="M51 39q0 8 11 90.5l24 180t16 121.5q19 150 23 232q16 3 41 3q44 0 44 -33q0 -13 -13 -78q36 2 47 2q219 0 219 -177q0 -117 -67 -185t-153 -68q-60 0 -100 32q-6 -47 -6 -93q0 -34 4 -61q-18 -8 -48 -8q-42 0 -42 42zM150 213q36 -25 81 -25q73 0 111.5 53.5t38.5 136.5 q0 67 -35 92.5t-100 25.5q-29 0 -59 -3q-6 -40 -37 -280z" />
<glyph unicode="&#xdf;" horiz-adv-x="487" d="M-27 -79q36 9 63 127t58 417q11 102 76 155t139 53q53 0 88.5 -25t35.5 -70q0 -40 -16 -70.5t-38.5 -48t-45.5 -32t-39 -30.5t-16 -35q0 -18 17.5 -36.5t42 -36.5t49.5 -38t42.5 -48.5t17.5 -61.5q0 -60 -48 -105.5t-111 -45.5q-42 0 -74 20.5t-32 51.5q0 37 52 50 q1 -32 22 -49t48 -17q30 0 50.5 22.5t20.5 55.5q0 28 -16.5 52t-39.5 41.5t-46.5 35.5t-40 42.5t-16.5 53.5q0 31 22.5 57.5t49.5 43t49.5 45t22.5 62.5q0 29 -17.5 44.5t-46.5 15.5q-45 0 -85.5 -30.5t-47.5 -93.5q-50 -454 -71 -527q-26 -94 -73 -94q-33 0 -46 49z" />
<glyph unicode="&#xe0;" horiz-adv-x="487" d="M39 166q0 126 64.5 217t158.5 91q102 0 179 -57q-46 -224 -46 -318q0 -41 32 -63q-14 -46 -51 -46q-47 0 -47 81q0 22 1 33q-29 -55 -71 -84.5t-87 -29.5q-59 0 -96 45.5t-37 130.5zM117 183q0 -60 19.5 -101.5t55.5 -41.5q33 0 75 41.5t70 107.5q13 90 29 190 q-51 45 -103 45q-63 0 -104.5 -67t-41.5 -174zM137 655q0 27 35 46q12 -15 33 -34t39 -33t39 -30t25 -19q19 -14 19 -28q0 -16 -16 -32q-13 11 -69 44.5t-80 49.5q-25 16 -25 36z" />
<glyph unicode="&#xe1;" horiz-adv-x="487" d="M39 166q0 126 64.5 217t158.5 91q102 0 179 -57q-46 -224 -46 -318q0 -41 32 -63q-14 -46 -51 -46q-47 0 -47 81q0 22 1 33q-29 -55 -71 -84.5t-87 -29.5q-59 0 -96 45.5t-37 130.5zM117 183q0 -60 19.5 -101.5t55.5 -41.5q33 0 75 41.5t70 107.5q13 90 29 190 q-51 45 -103 45q-63 0 -104.5 -67t-41.5 -174zM222 554q0 20 21 30q105 60 150 104q30 -22 30 -45q0 -22 -29 -39q-22 -12 -83 -40t-76 -39q-13 13 -13 29z" />
<glyph unicode="&#xe2;" horiz-adv-x="487" d="M39 166q0 126 64.5 217t158.5 91q102 0 179 -57q-46 -224 -46 -318q0 -41 32 -63q-14 -46 -51 -46q-47 0 -47 81q0 22 1 33q-29 -55 -71 -84.5t-87 -29.5q-59 0 -96 45.5t-37 130.5zM117 183q0 -60 19.5 -101.5t55.5 -41.5q33 0 75 41.5t70 107.5q13 90 29 190 q-51 45 -103 45q-63 0 -104.5 -67t-41.5 -174zM151 545q68 75 152 134q106 -80 106 -127q0 -22 -27 -33q-14 24 -37 46t-39 33l-15 10q-103 -81 -118 -81q-12 0 -22 18z" />
<glyph unicode="&#xe3;" horiz-adv-x="487" d="M39 166q0 126 64.5 217t158.5 91q102 0 179 -57q-46 -224 -46 -318q0 -41 32 -63q-14 -46 -51 -46q-47 0 -47 81q0 22 1 33q-29 -55 -71 -84.5t-87 -29.5q-59 0 -96 45.5t-37 130.5zM117 183q0 -60 19.5 -101.5t55.5 -41.5q33 0 75 41.5t70 107.5q13 90 29 190 q-51 45 -103 45q-63 0 -104.5 -67t-41.5 -174zM144 550q0 28 36 56t73 28q18 0 53.5 -22.5t52.5 -22.5q11 0 30.5 13t34.5 29q13 -5 13 -17q0 -28 -36 -56t-72 -28q-21 0 -55 22.5t-52 22.5q-19 0 -65 -42q-13 7 -13 17z" />
<glyph unicode="&#xe4;" horiz-adv-x="487" d="M39 166q0 126 64.5 217t158.5 91q102 0 179 -57q-46 -224 -46 -318q0 -41 32 -63q-14 -46 -51 -46q-47 0 -47 81q0 22 1 33q-29 -55 -71 -84.5t-87 -29.5q-59 0 -96 45.5t-37 130.5zM117 183q0 -60 19.5 -101.5t55.5 -41.5q33 0 75 41.5t70 107.5q13 90 29 190 q-51 45 -103 45q-63 0 -104.5 -67t-41.5 -174zM161 568q0 25 17 42.5t39 17.5q18 0 30.5 -14t12.5 -35q0 -24 -18 -41t-38 -17q-19 0 -31 13t-12 34zM328 568q0 25 17 42.5t39 17.5q18 0 30.5 -14t12.5 -35q0 -24 -18 -41t-38 -17q-19 0 -31 13t-12 34z" />
<glyph unicode="&#xe5;" horiz-adv-x="487" d="M39 166q0 126 64.5 217t158.5 91q102 0 179 -57q-46 -224 -46 -318q0 -41 32 -63q-14 -46 -51 -46q-47 0 -47 81q0 22 1 33q-29 -55 -71 -84.5t-87 -29.5q-59 0 -96 45.5t-37 130.5zM117 183q0 -60 19.5 -101.5t55.5 -41.5q33 0 75 41.5t70 107.5q13 90 29 190 q-51 45 -103 45q-63 0 -104.5 -67t-41.5 -174zM224 595q0 44 28.5 73.5t69.5 29.5q34 0 54 -20t20 -55q0 -44 -28 -73.5t-69 -29.5q-35 0 -55 20t-20 55zM266 599q0 -21 9.5 -33.5t27.5 -12.5q24 0 37 18.5t13 46.5q0 21 -9.5 34t-25.5 13q-25 0 -38.5 -18.5t-13.5 -47.5z " />
<glyph unicode="&#xe6;" horiz-adv-x="708" d="M39 166q0 126 64.5 217t158.5 91q88 0 158 -50q59 50 134 50q60 0 92 -29.5t32 -74.5q0 -49 -20 -85t-47.5 -54.5t-65.5 -29.5t-64 -13.5t-53 -2.5q-13 0 -33 2q4 -75 33 -111t74 -36q65 0 105 62q31 -19 31 -42q0 -30 -42 -50t-97 -20q-133 0 -171 114 q-61 -114 -156 -114q-59 0 -96 45.5t-37 130.5zM117 183q0 -60 19.5 -101.5t55.5 -41.5q27 0 62 29.5t63 79.5q-1 10 -1 31q0 119 60 199q-60 45 -113 45q-63 0 -104.5 -67t-41.5 -174zM396 228q28 0 47.5 1.5t52 9t52.5 20t36 38.5t16 62q0 28 -16.5 47t-46.5 19 q-53 0 -93.5 -55.5t-47.5 -141.5z" />
<glyph unicode="&#xe7;" horiz-adv-x="413" d="M39 180q0 139 74 216.5t167 77.5q44 0 83.5 -18t39.5 -53q0 -41 -48 -49q-9 33 -37 49t-55 16q-66 0 -105.5 -66t-39.5 -158q0 -78 30.5 -116.5t76.5 -38.5q65 0 105 62q31 -19 31 -42q0 -30 -42.5 -50t-99.5 -20q-7 -19 -7 -23q0 -11 22 -27q38 -23 38 -62 q0 -42 -39 -76t-92 -34q-31 0 -31 23q0 14 19 31q13 -9 27 -9q25 0 43.5 12t18.5 33q0 20 -28.5 43t-28.5 40q0 19 17 53q-68 11 -103.5 58.5t-35.5 127.5z" />
<glyph unicode="&#xe8;" horiz-adv-x="421" d="M29 180q0 138 74.5 216t163.5 78q60 0 92 -29.5t32 -74.5q0 -49 -20 -85t-47.5 -54.5t-65.5 -29.5t-64 -13.5t-53 -2.5q-13 0 -33 2q4 -75 33 -111t74 -36q65 0 105 62q31 -19 31 -42q0 -30 -42 -50t-97 -20q-88 0 -135.5 49t-47.5 141zM107 655q0 27 35 46 q12 -15 33 -34t39 -33t39 -30t25 -19q19 -14 19 -28q0 -16 -16 -32q-13 11 -69 44.5t-80 49.5q-25 16 -25 36zM109 228q28 0 47.5 1.5t52 9t52.5 20t36 38.5t16 62q0 28 -16.5 47t-46.5 19q-53 0 -93.5 -55.5t-47.5 -141.5z" />
<glyph unicode="&#xe9;" horiz-adv-x="424" d="M29 180q0 138 74.5 216t163.5 78q60 0 92 -29.5t32 -74.5q0 -49 -20 -85t-47.5 -54.5t-65.5 -29.5t-64 -13.5t-53 -2.5q-13 0 -33 2q4 -75 33 -111t74 -36q65 0 105 62q31 -19 31 -42q0 -30 -42 -50t-97 -20q-88 0 -135.5 49t-47.5 141zM109 228q28 0 47.5 1.5t52 9 t52.5 20t36 38.5t16 62q0 28 -16.5 47t-46.5 19q-53 0 -93.5 -55.5t-47.5 -141.5zM192 554q0 20 21 30q105 60 150 104q30 -22 30 -45q0 -22 -29 -39q-22 -12 -83 -40t-76 -39q-13 13 -13 29z" />
<glyph unicode="&#xea;" horiz-adv-x="421" d="M29 180q0 138 74.5 216t163.5 78q60 0 92 -29.5t32 -74.5q0 -49 -20 -85t-47.5 -54.5t-65.5 -29.5t-64 -13.5t-53 -2.5q-13 0 -33 2q4 -75 33 -111t74 -36q65 0 105 62q31 -19 31 -42q0 -30 -42 -50t-97 -20q-88 0 -135.5 49t-47.5 141zM109 228q28 0 47.5 1.5t52 9 t52.5 20t36 38.5t16 62q0 28 -16.5 47t-46.5 19q-53 0 -93.5 -55.5t-47.5 -141.5zM121 545q68 75 152 134q106 -80 106 -127q0 -22 -27 -33q-14 24 -37 46t-39 33l-15 10q-6 -5 -19.5 -15.5t-21 -16.5t-19 -15t-19 -14t-16 -10t-14 -7.5t-9.5 -2.5q-12 0 -22 18z" />
<glyph unicode="&#xeb;" horiz-adv-x="421" d="M29 180q0 138 74.5 216t163.5 78q60 0 92 -29.5t32 -74.5q0 -49 -20 -85t-47.5 -54.5t-65.5 -29.5t-64 -13.5t-53 -2.5q-13 0 -33 2q4 -75 33 -111t74 -36q65 0 105 62q31 -19 31 -42q0 -30 -42 -50t-97 -20q-88 0 -135.5 49t-47.5 141zM109 228q28 0 47.5 1.5t52 9 t52.5 20t36 38.5t16 62q0 28 -16.5 47t-46.5 19q-53 0 -93.5 -55.5t-47.5 -141.5zM125 568q0 25 17 42.5t39 17.5q18 0 30.5 -14t12.5 -35q0 -24 -18 -41t-38 -17q-19 0 -31 13t-12 34zM292 568q0 25 17 42.5t39 17.5q18 0 30.5 -14t12.5 -35q0 -24 -18 -41t-38 -17 q-19 0 -31 13t-12 34z" />
<glyph unicode="&#xec;" horiz-adv-x="200" d="M-1 655q0 27 35 46q12 -15 33 -34t39 -33t39 -30t25 -19q19 -14 19 -28q0 -16 -16 -32q-13 11 -69 44.5t-80 49.5q-25 16 -25 36zM46 81q0 47 18.5 147.5t18.5 142.5q0 47 -20 52q2 14 18 32.5t35 18.5q43 0 43 -63q0 -37 -22 -163t-22 -149q0 -41 32 -63 q-14 -46 -51 -46q-50 0 -50 91z" />
<glyph unicode="&#xed;" horiz-adv-x="200" d="M33 554q0 20 21 30q105 60 150 104q30 -22 30 -45q0 -22 -29 -39q-22 -12 -83 -40t-76 -39q-13 13 -13 29zM46 81q0 47 18.5 147.5t18.5 142.5q0 47 -20 52q2 14 18 32.5t35 18.5q43 0 43 -63q0 -37 -22 -163t-22 -149q0 -41 32 -63q-14 -46 -51 -46q-50 0 -50 91z" />
<glyph unicode="&#xee;" horiz-adv-x="200" d="M-13 545q68 75 152 134q106 -80 106 -127q0 -22 -27 -33q-14 24 -37 46t-39 33l-15 10q-103 -81 -118 -81q-12 0 -22 18zM46 81q0 47 18.5 147.5t18.5 142.5q0 47 -20 52q2 14 18 32.5t35 18.5q43 0 43 -63q0 -37 -22 -163t-22 -149q0 -41 32 -63q-14 -46 -51 -46 q-50 0 -50 91z" />
<glyph unicode="&#xef;" horiz-adv-x="201" d="M-8 568q0 25 17 42.5t39 17.5q18 0 30.5 -14t12.5 -35q0 -24 -18 -41t-38 -17q-19 0 -31 13t-12 34zM42 81q0 47 22.5 147.5t22.5 142.5q0 47 -20 52q2 14 18 32.5t35 18.5q43 0 43 -63q0 -37 -26 -163t-26 -149q0 -41 32 -63q-14 -46 -51 -46q-50 0 -50 91zM159 568 q0 25 17 42.5t39 17.5q18 0 30.5 -14t12.5 -35q0 -24 -18 -41t-38 -17q-19 0 -31 13t-12 34z" />
<glyph unicode="&#xf0;" horiz-adv-x="529" d="M36 185q0 130 70 209.5t158 79.5q83 0 130 -70q-21 116 -88 182q-28 -19 -63.5 -45t-44.5 -32q-20 16 -20 32t19 29q30 19 70 46q-50 32 -119 45q-1 4 -1 8q0 29 27 29q24 0 66.5 -14t75.5 -35q76 51 114 82q15 -17 15 -35q0 -16 -19 -29l-72 -48q103 -96 103 -267 q0 -69 -13.5 -130.5t-41 -115t-77 -85t-114.5 -31.5q-81 0 -128 52t-47 143zM104 201q0 -70 29.5 -112.5t85.5 -42.5q78 0 121 63.5t43 154.5q0 69 -30 112t-84 43q-77 0 -121 -63.5t-44 -154.5z" />
<glyph unicode="&#xf1;" horiz-adv-x="475" d="M46 31q0 14 22 163.5t22 173.5q0 46 -21 55q2 14 18 32.5t35 18.5q41 0 41 -62q0 -18 -3 -36q30 47 72.5 72.5t81.5 25.5q50 0 77.5 -34t27.5 -89q0 -19 -19 -123.5t-19 -128.5q0 -41 32 -63q-14 -46 -51 -46q-50 0 -50 91q0 43 18.5 144.5t18.5 121.5q0 35 -13.5 55.5 t-37.5 20.5q-39 0 -86 -45.5t-67 -104.5q-21 -161 -21 -213q0 -30 3 -55q-18 -8 -42 -8q-39 0 -39 34zM136 550q0 28 36 56t73 28q18 0 53.5 -22.5t52.5 -22.5q11 0 30.5 13t34.5 29q13 -5 13 -17q0 -28 -36 -56t-72 -28q-21 0 -55 22.5t-52 22.5q-19 0 -65 -42 q-13 7 -13 17z" />
<glyph unicode="&#xf2;" horiz-adv-x="475" d="M29 181q0 123 67.5 208t171.5 85q83 0 130.5 -51.5t47.5 -141.5q0 -122 -69.5 -206.5t-173.5 -84.5q-82 0 -128 51t-46 140zM107 194q0 -67 27.5 -110.5t78.5 -43.5q72 0 113 68t41 158q0 69 -27 113.5t-78 44.5q-72 0 -113.5 -69.5t-41.5 -160.5zM134 655q0 27 35 46 q12 -15 33 -34t39 -33t39 -30t25 -19q19 -14 19 -28q0 -16 -16 -32q-13 11 -69 44.5t-80 49.5q-25 16 -25 36z" />
<glyph unicode="&#xf3;" horiz-adv-x="475" d="M29 181q0 123 67.5 208t171.5 85q83 0 130.5 -51.5t47.5 -141.5q0 -122 -69.5 -206.5t-173.5 -84.5q-82 0 -128 51t-46 140zM107 194q0 -67 27.5 -110.5t78.5 -43.5q72 0 113 68t41 158q0 69 -27 113.5t-78 44.5q-72 0 -113.5 -69.5t-41.5 -160.5zM219 554q0 20 21 30 q105 60 150 104q30 -22 30 -45q0 -22 -29 -39q-22 -12 -83 -40t-76 -39q-13 13 -13 29z" />
<glyph unicode="&#xf4;" horiz-adv-x="475" d="M29 181q0 123 67.5 208t171.5 85q83 0 130.5 -51.5t47.5 -141.5q0 -122 -69.5 -206.5t-173.5 -84.5q-82 0 -128 51t-46 140zM107 194q0 -67 27.5 -110.5t78.5 -43.5q72 0 113 68t41 158q0 69 -27 113.5t-78 44.5q-72 0 -113.5 -69.5t-41.5 -160.5zM148 545q68 75 152 134 q106 -80 106 -127q0 -22 -27 -33q-14 24 -37 46t-38 33l-16 10q-103 -81 -118 -81q-12 0 -22 18z" />
<glyph unicode="&#xf5;" horiz-adv-x="475" d="M29 181q0 123 67.5 208t171.5 85q83 0 130.5 -51.5t47.5 -141.5q0 -122 -69.5 -206.5t-173.5 -84.5q-82 0 -128 51t-46 140zM107 194q0 -67 27.5 -110.5t78.5 -43.5q72 0 113 68t41 158q0 69 -27 113.5t-78 44.5q-72 0 -113.5 -69.5t-41.5 -160.5zM141 550q0 28 36 56 t73 28q18 0 53.5 -22.5t52.5 -22.5q11 0 30.5 13t34.5 29q13 -5 13 -17q0 -28 -36 -56t-72 -28q-21 0 -55 22.5t-52 22.5q-19 0 -65 -42q-13 7 -13 17z" />
<glyph unicode="&#xf6;" horiz-adv-x="475" d="M29 181q0 123 67.5 208t171.5 85q83 0 130.5 -51.5t47.5 -141.5q0 -122 -69.5 -206.5t-173.5 -84.5q-82 0 -128 51t-46 140zM107 194q0 -67 27.5 -110.5t78.5 -43.5q72 0 113 68t41 158q0 69 -27 113.5t-78 44.5q-72 0 -113.5 -69.5t-41.5 -160.5zM151 568q0 25 17 42.5 t39 17.5q18 0 30.5 -14t12.5 -35q0 -24 -18 -41t-38 -17q-19 0 -31 13t-12 34zM318 568q0 25 17 42.5t39 17.5q18 0 30.5 -14t12.5 -35q0 -24 -18 -41t-38 -17q-19 0 -31 13t-12 34z" />
<glyph unicode="&#xf7;" d="M89 246q0 16 9 29t27 13q3 0 63 -3.5t104 -3.5q130 0 191 7q3 -9 3 -30q0 -18 -10 -30t-26 -12t-71.5 4t-84.5 4q-114 0 -202 -8q-3 15 -3 30zM236 80q0 24 16 40.5t39 16.5t38.5 -16.5t15.5 -40.5q0 -25 -15.5 -41t-38.5 -16t-39 16t-16 41zM236 424q0 24 16 40.5 t39 16.5t38.5 -16.5t15.5 -40.5q0 -25 -15.5 -41t-38.5 -16t-39 16t-16 41z" />
<glyph unicode="&#xf8;" horiz-adv-x="485" d="M29 -57q0 9 8 22l46 69q-54 54 -54 147q0 123 67.5 208t171.5 85q50 0 90 -20q33 54 62 103q36 -2 36 -28q0 -11 -8 -22l-53 -83q51 -54 51 -143q0 -122 -69.5 -206.5t-173.5 -84.5q-42 0 -79 16l-59 -91q-36 2 -36 28zM107 194q0 -54 18 -92l198 297q-25 25 -61 25 q-72 0 -113.5 -69.5t-41.5 -160.5zM157 59q24 -19 56 -19q72 0 113 68t41 158q0 46 -16 90z" />
<glyph unicode="&#xf9;" horiz-adv-x="473" d="M53 113q0 19 19 123.5t19 128.5q0 50 -21 58q4 17 19 34t34 17q25 0 32.5 -19.5t7.5 -60.5q0 -43 -20 -144.5t-20 -132.5q0 -35 13.5 -55.5t37.5 -20.5q39 0 86 45.5t67 104.5q30 199 34 273q18 5 33 5q39 0 39 -32q0 -10 -25 -160t-25 -184q0 -37 32 -57 q-5 -17 -17.5 -31.5t-32.5 -14.5q-48 0 -48 80q0 23 1 34q-25 -48 -67.5 -81t-92.5 -33t-77.5 34t-27.5 89zM140 655q0 27 35 46q12 -15 33 -34t39 -33t39 -30t25 -19q19 -14 19 -28q0 -16 -16 -32q-13 11 -69 44.5t-80 49.5q-25 16 -25 36z" />
<glyph unicode="&#xfa;" horiz-adv-x="473" d="M53 113q0 19 19 123.5t19 128.5q0 50 -21 58q4 17 19 34t34 17q25 0 32.5 -19.5t7.5 -60.5q0 -43 -20 -144.5t-20 -132.5q0 -35 13.5 -55.5t37.5 -20.5q39 0 86 45.5t67 104.5q30 199 34 273q18 5 33 5q39 0 39 -32q0 -10 -25 -160t-25 -184q0 -37 32 -57 q-5 -17 -17.5 -31.5t-32.5 -14.5q-48 0 -48 80q0 23 1 34q-25 -48 -67.5 -81t-92.5 -33t-77.5 34t-27.5 89zM225 554q0 20 21 30q105 60 150 104q30 -22 30 -45q0 -22 -29 -39q-22 -12 -83 -40t-76 -39q-13 13 -13 29z" />
<glyph unicode="&#xfb;" horiz-adv-x="473" d="M53 113q0 19 19 123.5t19 128.5q0 50 -21 58q4 17 19 34t34 17q25 0 32.5 -19.5t7.5 -60.5q0 -43 -20 -144.5t-20 -132.5q0 -35 13.5 -55.5t37.5 -20.5q39 0 86 45.5t67 104.5q30 199 34 273q18 5 33 5q39 0 39 -32q0 -10 -25 -160t-25 -184q0 -37 32 -57 q-5 -17 -17.5 -31.5t-32.5 -14.5q-48 0 -48 80q0 23 1 34q-25 -48 -67.5 -81t-92.5 -33t-77.5 34t-27.5 89zM143 545q68 75 152 134q106 -80 106 -127q0 -22 -27 -33q-14 24 -37 46t-39 33l-15 10q-103 -81 -118 -81q-12 0 -22 18z" />
<glyph unicode="&#xfc;" horiz-adv-x="473" d="M53 113q0 19 19 123.5t19 128.5q0 50 -21 58q4 17 19 34t34 17q25 0 32.5 -19.5t7.5 -60.5q0 -43 -20 -144.5t-20 -132.5q0 -35 13.5 -55.5t37.5 -20.5q39 0 86 45.5t67 104.5q30 199 34 273q18 5 33 5q39 0 39 -32q0 -10 -25 -160t-25 -184q0 -37 32 -57 q-5 -17 -17.5 -31.5t-32.5 -14.5q-48 0 -48 80q0 23 1 34q-25 -48 -67.5 -81t-92.5 -33t-77.5 34t-27.5 89zM141 568q0 25 17 42.5t39 17.5q18 0 30.5 -14t12.5 -35q0 -24 -18 -41t-38 -17q-19 0 -31 13t-12 34zM308 568q0 25 17 42.5t39 17.5q18 0 30.5 -14t12.5 -35 q0 -24 -18 -41t-38 -17q-19 0 -31 13t-12 34z" />
<glyph unicode="&#xfd;" horiz-adv-x="411" d="M-180 -171q0 32 44 53q8 -28 32.5 -45t55.5 -17q30 0 59 14.5t55 42.5t44.5 52.5t41.5 60.5q-6 83 -48 243t-91 202q28 39 58 39q33 0 50 -48q36 -101 83 -354q117 193 117 323q0 28 -14 64q26 15 47 15q42 0 42 -66q0 -75 -51 -191.5t-123 -223.5q-80 -119 -141 -171 t-152 -52q-45 0 -77 16t-32 43zM180 554q0 20 21 30q105 60 150 104q30 -22 30 -45q0 -22 -29 -39q-22 -12 -83 -40t-76 -39q-13 13 -13 29z" />
<glyph unicode="&#xfe;" horiz-adv-x="471" d="M13 -163q0 25 7.5 76t23 138t21.5 126q7 42 28 161t32.5 195t11.5 106q0 47 -20 52q2 14 18 32.5t35 18.5q43 0 43 -63q0 -42 -43 -288q59 83 139 83q59 0 96 -45.5t37 -130.5q0 -134 -67 -221t-155 -87q-61 0 -111 44q-27 -155 -27 -179q0 -41 32 -63q-14 -46 -51 -46 q-50 0 -50 91zM117 84q47 -45 98 -45q63 0 106 64.5t43 177.5q0 60 -19.5 101.5t-55.5 41.5q-30 0 -69 -36t-68 -94q-4 -28 -10 -62.5t-13.5 -79t-11.5 -68.5z" />
<glyph unicode="&#xff;" horiz-adv-x="411" d="M-180 -171q0 32 44 53q8 -28 32.5 -45t55.5 -17q30 0 59 14.5t55 42.5t44.5 52.5t41.5 60.5q-6 83 -48 243t-91 202q28 39 58 39q33 0 50 -48q36 -101 83 -354q117 193 117 323q0 28 -14 64q26 15 47 15q42 0 42 -66q0 -75 -51 -191.5t-123 -223.5q-80 -119 -141 -171 t-152 -52q-45 0 -77 16t-32 43zM83 568q0 25 17 42.5t39 17.5q18 0 30.5 -14t12.5 -35q0 -24 -18 -41t-38 -17q-19 0 -31 13t-12 34zM250 568q0 25 17 42.5t39 17.5q18 0 30.5 -14t12.5 -35q0 -24 -18 -41t-38 -17q-19 0 -31 13t-12 34z" />
<glyph unicode="&#x152;" horiz-adv-x="841" d="M48 263q0 187 92.5 299t239.5 112q60 0 129 -23q74 15 198 15q128 0 144 -16q5 -6 5 -19q0 -26 -14 -51q-48 21 -164 21q-39 0 -90 -3q-2 -47 -24 -212q137 0 170 4q2 -16 2 -22q0 -41 -45 -44q-24 -1 -136 -1q-27 -211 -27 -262q28 -2 50 -2q54 0 109.5 7t73.5 16 q8 -27 8 -42q0 -27 -29.5 -35t-91.5 -8h-70q-109 0 -132 16q-80 -24 -149 -24q-112 0 -180.5 65.5t-68.5 208.5zM131 288q0 -123 45.5 -180.5t136.5 -57.5q54 0 131 20q3 24 31 229.5t33 288.5q-64 24 -126 24q-116 0 -183.5 -87t-67.5 -237z" />
<glyph unicode="&#x153;" horiz-adv-x="755" d="M29 181q0 123 67.5 208t171.5 85q119 0 156 -100q35 50 82 75t95 25q60 0 92 -29.5t32 -74.5q0 -49 -20 -85t-47.5 -54.5t-65.5 -29.5t-64 -13.5t-53 -2.5q-13 0 -33 2q4 -75 33 -111t74 -36q65 0 105 62q31 -19 31 -42q0 -30 -42 -50t-97 -20q-125 0 -163 100 q-69 -100 -180 -100q-82 0 -128 51t-46 140zM107 194q0 -67 27.5 -110.5t78.5 -43.5q72 0 113 68t41 158q0 69 -27 113.5t-78 44.5q-72 0 -113.5 -69.5t-41.5 -160.5zM443 228q28 0 47.5 1.5t52 9t52.5 20t36 38.5t16 62q0 28 -16.5 47t-46.5 19q-53 0 -93.5 -55.5 t-47.5 -141.5z" />
<glyph unicode="&#x178;" horiz-adv-x="461" d="M50 619q4 4 13.5 15t13 14l10.5 9t13 8t13 2q27 0 41 -34q42 -82 107 -264q51 64 110 165t66 138q74 0 74 -41q0 -25 -81 -137.5t-148 -191.5l-13 -99q-12 -88 -12 -137q0 -34 4 -61q-18 -8 -48 -8q-42 0 -42 42q0 6 3.5 31t13 93t18.5 139q-94 265 -156 317zM168 759 q0 25 17 42.5t39 17.5q18 0 30.5 -14t12.5 -35q0 -24 -18 -41t-38 -17q-19 0 -31 13t-12 34zM335 759q0 25 17 42.5t39 17.5q18 0 30.5 -14t12.5 -35q0 -24 -18 -41t-38 -17q-19 0 -31 13t-12 34z" />
<glyph unicode="&#x2c6;" horiz-adv-x="350" d="M73 545q68 75 152 134q106 -80 106 -127q0 -22 -27 -33q-14 24 -37 46t-39 33l-15 10q-103 -81 -118 -81q-12 0 -22 18z" />
<glyph unicode="&#x2dc;" horiz-adv-x="350" d="M78 550q0 28 36 56t73 28q18 0 53.5 -22.5t52.5 -22.5q11 0 30.5 13t34.5 29q13 -5 13 -17q0 -28 -36 -56t-72 -28q-21 0 -55 22.5t-52 22.5q-19 0 -65 -42q-13 7 -13 17z" />
<glyph unicode="&#x2000;" horiz-adv-x="446" />
<glyph unicode="&#x2001;" horiz-adv-x="892" />
<glyph unicode="&#x2002;" horiz-adv-x="446" />
<glyph unicode="&#x2003;" horiz-adv-x="892" />
<glyph unicode="&#x2004;" horiz-adv-x="297" />
<glyph unicode="&#x2005;" horiz-adv-x="223" />
<glyph unicode="&#x2006;" horiz-adv-x="148" />
<glyph unicode="&#x2007;" horiz-adv-x="148" />
<glyph unicode="&#x2008;" horiz-adv-x="111" />
<glyph unicode="&#x2009;" horiz-adv-x="178" />
<glyph unicode="&#x200a;" horiz-adv-x="49" />
<glyph unicode="&#x2010;" horiz-adv-x="224" d="M25 240q0 54 41 54q1 0 28.5 -2t49.5 -2q43 0 74 7q1 -4 1 -11q0 -22 -10.5 -40t-31.5 -18q-6 0 -29 2.5t-42 2.5q-45 0 -80 -8q-1 5 -1 15z" />
<glyph unicode="&#x2011;" horiz-adv-x="224" d="M25 240q0 54 41 54q1 0 28.5 -2t49.5 -2q43 0 74 7q1 -4 1 -11q0 -22 -10.5 -40t-31.5 -18q-6 0 -29 2.5t-42 2.5q-45 0 -80 -8q-1 5 -1 15z" />
<glyph unicode="&#x2012;" horiz-adv-x="224" d="M25 240q0 54 41 54q1 0 28.5 -2t49.5 -2q43 0 74 7q1 -4 1 -11q0 -22 -10.5 -40t-31.5 -18q-6 0 -29 2.5t-42 2.5q-45 0 -80 -8q-1 5 -1 15z" />
<glyph unicode="&#x2013;" d="M30 237q0 57 44 57q2 0 36 -2t59 -2h170q78 0 115 7q1 -4 1 -11q0 -24 -10.5 -41t-33.5 -17q-9 0 -40.5 2.5t-48.5 2.5h-168q-69 0 -123 -8q-1 5 -1 12z" />
<glyph unicode="&#x2014;" horiz-adv-x="718" d="M30 225q0 69 39 69q2 0 37.5 -2t63.5 -2h418q60 0 99 7q0 -1 0.5 -5t0.5 -5q0 -23 -10 -41t-31 -18q-8 0 -38 2.5t-55 2.5h-419q-59 0 -105 -8z" />
<glyph unicode="&#x2018;" horiz-adv-x="215" d="M80 542q0 67 41.5 131.5t91.5 64.5q22 0 22 -23q0 -11 -4 -19h-5q-32 0 -56.5 -28t-24.5 -59q0 -42 40 -51q6 -12 6 -24q0 -24 -18.5 -41.5t-43.5 -17.5q-21 0 -35 16.5t-14 50.5z" />
<glyph unicode="&#x2019;" horiz-adv-x="217" d="M70 501q0 6 4 18h4q34 0 58 28t24 61q0 40 -39 49q-5 13 -5 24q0 24 18.5 41.5t43.5 17.5q21 0 35 -16.5t14 -50.5q0 -66 -43 -131t-92 -65q-22 0 -22 24z" />
<glyph unicode="&#x201a;" horiz-adv-x="222" d="M0 -119q0 6 4 18h4q34 0 58 28t24 61q0 40 -39 49q-5 13 -5 24q0 24 18.5 41.5t43.5 17.5q21 0 35 -16.5t14 -50.5q0 -66 -43 -131t-92 -65q-22 0 -22 24z" />
<glyph unicode="&#x201c;" horiz-adv-x="412" d="M80 542q0 67 41.5 131.5t91.5 64.5q22 0 22 -23q0 -11 -4 -19h-5q-32 0 -56.5 -28t-24.5 -59q0 -42 40 -51q6 -12 6 -24q0 -24 -18.5 -41.5t-43.5 -17.5q-21 0 -35 16.5t-14 50.5zM277 542q0 67 41.5 131.5t91.5 64.5q22 0 22 -23q0 -11 -4 -19h-5q-32 0 -56.5 -28 t-24.5 -59q0 -42 40 -51q6 -12 6 -24q0 -24 -18.5 -41.5t-43.5 -17.5q-21 0 -35 16.5t-14 50.5z" />
<glyph unicode="&#x201d;" horiz-adv-x="410" d="M70 501q0 6 4 18h4q34 0 58 28t24 61q0 40 -39 49q-5 13 -5 24q0 24 18.5 41.5t43.5 17.5q21 0 35 -16.5t14 -50.5q0 -66 -43 -131t-92 -65q-22 0 -22 24zM263 501q0 6 4 18h4q34 0 58 28t24 61q0 40 -39 49q-5 13 -5 24q0 24 18.5 41.5t43.5 17.5q21 0 35 -16.5 t14 -50.5q0 -66 -43 -131t-92 -65q-22 0 -22 24z" />
<glyph unicode="&#x201e;" horiz-adv-x="415" d="M0 -119q0 6 4 18h4q34 0 58 28t24 61q0 40 -39 49q-5 13 -5 24q0 24 18.5 41.5t43.5 17.5q21 0 35 -16.5t14 -50.5q0 -66 -43 -131t-92 -65q-22 0 -22 24zM193 -119q0 6 4 18h4q34 0 58 28t24 61q0 40 -39 49q-5 13 -5 24q0 24 18.5 41.5t43.5 17.5q21 0 35 -16.5 t14 -50.5q0 -66 -43 -131t-92 -65q-22 0 -22 24z" />
<glyph unicode="&#x2022;" horiz-adv-x="281" d="M40 250q0 52 35.5 92.5t84.5 40.5q37 0 61.5 -27.5t24.5 -69.5q0 -54 -35 -92.5t-82 -38.5q-39 0 -64 26.5t-25 68.5z" />
<glyph unicode="&#x2026;" horiz-adv-x="747" d="M30 43q0 29 20 51.5t46 22.5q21 0 35 -15.5t14 -38.5q0 -30 -19 -51.5t-46 -21.5q-21 0 -35.5 14.5t-14.5 38.5zM311 43q0 29 20 51.5t46 22.5q21 0 35 -15.5t14 -38.5q0 -30 -19 -51.5t-46 -21.5q-21 0 -35.5 14.5t-14.5 38.5zM592 43q0 29 20 51.5t46 22.5 q21 0 35 -15.5t14 -38.5q0 -30 -19 -51.5t-46 -21.5q-21 0 -35.5 14.5t-14.5 38.5z" />
<glyph unicode="&#x202f;" horiz-adv-x="178" />
<glyph unicode="&#x2039;" horiz-adv-x="283" d="M60 235q117 136 191 191q17 -13 17 -23q0 -28 -129 -168q28 -43 55.5 -94t27.5 -67q0 -15 -24 -30q-63 59 -138 191z" />
<glyph unicode="&#x203a;" horiz-adv-x="284" d="M15 67q0 30 130 168q-28 41 -56 92.5t-28 68.5q0 12 24 30q59 -56 139 -191q-123 -140 -192 -191q-17 13 -17 23z" />
<glyph unicode="&#x205f;" horiz-adv-x="223" />
<glyph unicode="&#x20ac;" d="M56 258q0 34 29 34h46q2 40 7 71q-19 -1 -66 -5q-1 4 -1 10q0 34 29 34h46q33 131 119.5 201t189.5 70q119 0 119 -44q0 -32 -28 -48q-41 36 -103 36q-67 0 -133 -58t-95 -157h119q97 0 152 5l1 -8q0 -36 -29 -36h-252q-8 -35 -9 -71h122q97 0 152 5l1 -8q0 -36 -29 -36 h-246q5 -100 56.5 -152.5t114.5 -52.5q61 0 114 36q15 -12 15 -37q0 -56 -131 -56q-46 0 -86.5 14.5t-74.5 44.5t-54 82t-21 121q-23 -1 -73 -5q-1 4 -1 10z" />
<glyph unicode="&#x2122;" horiz-adv-x="861" d="M100 624q0 16 7.5 21.5t23.5 6.5h125q84 0 112 3q4 -16 4 -22q0 -29 -29 -29h-78v-192q0 -74 13 -115q-22 -6 -36 -6q-21 0 -28 9t-7 30v274q-67 0 -103 -3q-4 12 -4 23zM413 650q24 6 39 6q28 0 46 -31q51 -90 104 -240q41 124 105 240q17 31 47 31q18 0 38 -8 q-9 -38 -9 -96v-150q0 -63 12 -105q-18 -6 -35 -6q-21 0 -28 9t-7 30q0 28 0.5 92.5t0.5 134.5q-48 -107 -96 -262q-8 -3 -22 -3q-26 0 -34 19q-14 34 -35 88.5t-36.5 93t-28.5 62.5v-153q0 -63 12 -105q-18 -6 -30 -6q-21 0 -28 9t-7 30q0 7 0.5 31.5t0.5 74.5v120 q0 49 -9 94z" />
<glyph unicode="&#xe000;" horiz-adv-x="475" d="M0 0v475h475v-475h-475z" />
<glyph unicode="&#xfb01;" horiz-adv-x="481" d="M0 -84q24 7 43 55.5t31 130t18 149.5t12 158q-29 -1 -63 -5q-2 14 -2 18q0 43 58 43h13q7 112 61 180.5t162 68.5q50 0 88.5 -16.5t38.5 -50.5q0 -19 -15 -34t-48 -15q-19 59 -85 59q-45 0 -75.5 -31.5t-43 -72t-15.5 -89.5q126 0 202 3q12 7 22 7q43 0 43 -63 q0 -37 -22 -163t-22 -149q0 -41 32 -63q-14 -46 -51 -46q-50 0 -50 91q0 47 18.5 147.5t18.5 142.5q0 26 -7 40q-23 -1 -190 -1q-29 -345 -54 -444q-25 -97 -71 -97q-15 0 -28 12.5t-19 34.5z" />
<glyph unicode="&#xfb02;" horiz-adv-x="510" d="M0 -84q24 7 43 55.5t31 130t18 149.5t12 158q-29 -1 -63 -5q-2 14 -2 18q0 43 58 43h13q7 113 59 181t155 68q46 0 103 -26q16 22 38 22q15 0 25 -11t10 -30q0 -50 -43 -300t-43 -270q0 -41 32 -63q-14 -46 -51 -46q-50 0 -50 91q0 46 39 269.5t43 273.5q-48 33 -116 33 q-60 0 -93 -56.5t-40 -136.5q73 0 136 5q3 -11 3 -20q0 -37 -48 -38q-23 -1 -97 -1q-29 -345 -54 -444q-25 -97 -71 -97q-15 0 -28 12.5t-19 34.5z" />
<glyph unicode="&#xfb03;" horiz-adv-x="769" d="M0 -84q24 7 43 55.5t31 130t18 149.5t12 158q-29 -1 -63 -5q-2 14 -2 18q0 43 58 43h13q6 112 46.5 180.5t121.5 68.5q38 0 67.5 -16.5t29.5 -50.5q0 -37 -44 -48q-8 30 -28.5 44t-41.5 14q-38 0 -58.5 -56t-24.5 -137l220 1q7 112 61 180.5t162 68.5q50 0 88.5 -16.5 t38.5 -50.5q0 -19 -15 -34t-48 -15q-19 59 -85 59q-45 0 -75.5 -31.5t-43 -72t-15.5 -89.5q73 0 136 5q3 -11 3 -20q0 -37 -48 -38q-23 -1 -97 -1q-29 -345 -54 -444q-25 -97 -71 -97q-15 0 -28 12.5t-19 34.5q75 23 104 494h-220q-29 -345 -54 -444q-25 -97 -71 -97 q-15 0 -28 12.5t-19 34.5zM620 81q0 47 18.5 147.5t18.5 142.5q0 47 -20 52q2 14 18 32.5t35 18.5q43 0 43 -63q0 -37 -22 -163t-22 -149q0 -41 32 -63q-14 -46 -51 -46q-50 0 -50 91z" />
<glyph unicode="&#xfb04;" horiz-adv-x="791" d="M0 -84q24 7 43 55.5t31 130t18 149.5t12 158q-29 -1 -63 -5q-2 14 -2 18q0 43 58 43h13q6 112 46.5 180.5t121.5 68.5q38 0 67.5 -16.5t29.5 -50.5q0 -37 -44 -48q-8 30 -28.5 44t-41.5 14q-38 0 -58.5 -55.5t-24.5 -136.5h220q7 113 59 181t155 68q46 0 103 -26 q16 22 38 22q15 0 25 -11t10 -30q0 -50 -43 -300t-43 -270q0 -41 32 -63q-14 -46 -51 -46q-50 0 -50 91q0 46 39 269.5t43 273.5q-48 33 -116 33q-60 0 -93 -56.5t-40 -136.5q73 0 136 5q3 -11 3 -20q0 -37 -48 -38q-23 -1 -97 -1q-29 -345 -54 -444q-25 -97 -71 -97 q-15 0 -28 12.5t-19 34.5q75 23 104 494h-220q-29 -345 -54 -444q-25 -97 -71 -97q-15 0 -28 12.5t-19 34.5z" />
</font>
</defs>
</svg>
