<?xml version="1.0" standalone="no"?>
<!DOCTYPE svg PUBLIC "-//W3C//DTD SVG 1.1//EN" "http://www.w3.org/Graphics/SVG/1.1/DTD/svg11.dtd" >
<svg xmlns="http://www.w3.org/2000/svg">
<metadata></metadata>
<defs>
<font id="jockey_oneregular" horiz-adv-x="458" >
<font-face units-per-em="1000" ascent="800" descent="-200" />
<missing-glyph horiz-adv-x="160" />
<glyph unicode="&#xfb01;" horiz-adv-x="496" d="M9 406v105h55q0 130 113 189h104v-105h-50q-34 -21 -34 -84h256v-511h-132v406h-124v-406h-133v406h-55zM321 565v135h132v-135h-132z" />
<glyph unicode="&#xfb02;" horiz-adv-x="496" d="M9 406v105h55q0 130 113 189h103v-105h-49q-34 -21 -34 -84h124v189h132v-700h-132v406h-124v-406h-133v406h-55z" />
<glyph unicode="&#xfb03;" horiz-adv-x="753" d="M9 406v105h55q0 130 113 189h114v-105h-60q-34 -21 -34 -84h124q0 130 113 189h104v-105h-50q-34 -21 -34 -84h256v-511h-132v406h-124v-406h-133v406h-124v-406h-133v406h-55zM578 565v135h132v-135h-132z" />
<glyph unicode="&#xfb04;" horiz-adv-x="752" d="M9 406v105h55q0 130 113 189h114v-105h-60q-34 -21 -34 -84h123q0 130 113 189h103v-105h-49q-34 -21 -34 -84h124v189h132v-700h-132v406h-124v-406h-133v406h-123v-406h-133v406h-55z" />
<glyph horiz-adv-x="1000" />
<glyph horiz-adv-x="1000" />
<glyph unicode="&#xd;" horiz-adv-x="1000" />
<glyph horiz-adv-x="270" />
<glyph unicode=" "  horiz-adv-x="160" />
<glyph unicode="&#x09;" horiz-adv-x="160" />
<glyph unicode="&#xa0;" horiz-adv-x="160" />
<glyph unicode="!" horiz-adv-x="222" d="M40 700h142l-15 -320v-139h-112v139zM55 0v135h112v-135h-112z" />
<glyph unicode="&#x22;" horiz-adv-x="351" d="M52 700h111l-10 -221h-91zM188 700h111l-10 -221h-91z" />
<glyph unicode="#" horiz-adv-x="625" d="M34 124l13 74h104l26 134h-105l13 74h106l24 123h75l-24 -123h131l24 123h75l-24 -123h110l-13 -74h-111l-26 -134h112l-13 -74h-113l-23 -124h-75l23 124h-131l-23 -124h-75l23 124h-103zM226 198h131l26 134h-131z" />
<glyph unicode="$" horiz-adv-x="395" d="M33 543q0 104 87 141h35v86h106v-86h99v-120h-194l-3 -6l162 -256q49 -79 49 -134q0 -101 -67 -148h-47v-86h-106v86h-112v116h212l3 6l-185 287q-39 62 -39 114z" />
<glyph unicode="%" horiz-adv-x="776" d="M10 483q0 138 85 217h146q85 -79 85 -217q0 -118 -85 -204h-146q-85 86 -85 204zM119 489q0 -70 27 -116h44q27 49 27 116q0 66 -27 115h-44q-27 -46 -27 -115zM221 0l222 700h113l-226 -700h-109zM450 204q0 138 85 217h146q85 -79 85 -217q0 -118 -85 -204h-146 q-85 86 -85 204zM559 210q0 -70 27 -116h44q27 49 27 116q0 66 -27 115h-44q-27 -46 -27 -115z" />
<glyph unicode="&#x26;" horiz-adv-x="465" d="M30 196q0 66 33 125.5t98 99.5l-13 30q-21 41 -21 88q0 86 71 116h161v-120h-103l-2 -6l176 -418v-111h-278q-57 22 -89.5 76t-32.5 120zM155 206q0 -62 39 -95h105l-89 203q-55 -47 -55 -108z" />
<glyph unicode="'" horiz-adv-x="181" d="M35 700h111l-10 -221h-91z" />
<glyph unicode="(" horiz-adv-x="271" d="M35 334q0 272 128 466h108q-118 -203 -118 -466q0 -272 118 -484h-108q-128 199 -128 484z" />
<glyph unicode=")" horiz-adv-x="271" d="M0 -150q118 212 118 484q0 263 -118 466h108q128 -194 128 -466q0 -285 -128 -484h-108z" />
<glyph unicode="*" horiz-adv-x="376" d="M40 592l20 63l89 -26l5 103h68l4 -103l90 26l20 -63l-87 -32l56 -86l-53 -39l-64 81l-64 -81l-53 39l57 84z" />
<glyph unicode="+" horiz-adv-x="344" d="M5 290v97h118v124h96v-124h120v-97h-120v-123h-96v123h-118z" />
<glyph unicode="," horiz-adv-x="224" d="M40 0v148h144v-59q0 -75 -17 -121t-68 -117l-58 28q48 74 58 121h-59z" />
<glyph unicode="-" horiz-adv-x="256" d="M25 231v114h206v-114h-206z" />
<glyph unicode="." horiz-adv-x="224" d="M40 0v148h144v-148h-144z" />
<glyph unicode="/" horiz-adv-x="385" d="M12 0l222 700h133l-226 -700h-129z" />
<glyph unicode="0" horiz-adv-x="493" d="M25 340q0 233 126 360h191q66 -67 96 -157.5t30 -180.5q0 -236 -126 -362h-191q-67 67 -96.5 158t-29.5 182zM160 351q0 -139 43 -235h88q43 110 43 244q0 130 -44 220h-86q-44 -90 -44 -229z" />
<glyph unicode="1" horiz-adv-x="285" d="M10 580v120h220v-700h-140v580h-80z" />
<glyph unicode="2" horiz-adv-x="367" d="M20 0v100l199 473l-3 7h-175v120h216q87 -37 87 -118q0 -11 -1 -22.5t-4.5 -25t-6.5 -24.5t-9.5 -28t-10.5 -28t-13 -31.5t-13.5 -31t-15.5 -35.5t-16 -36l-90 -204h175v-116h-319z" />
<glyph unicode="3" horiz-adv-x="409" d="M15 0v116h172q12 11 27 44t15 67q0 63 -45 93h-81v109l121 140l-5 11h-200v120h241q85 -36 85 -114q0 -60 -55 -115l-60 -60v-5q137 -43 137 -187q0 -73 -38.5 -131t-85.5 -88h-228z" />
<glyph unicode="4" horiz-adv-x="479" d="M32 284q0 43 48 163l100 253h137l-161 -430h148v182h130v-452h-130v145h-185q-87 45 -87 139z" />
<glyph unicode="5" horiz-adv-x="443" d="M45 330v370h328v-120h-195v-142q30 13 74 13h76q75 -51 75 -130q0 -28 -12 -59t-22 -48.5t-35 -55.5l-103 -158h-155l203 321l-3 9h-231z" />
<glyph unicode="6" horiz-adv-x="481" d="M33 233q0 51 15.5 110t32 98t45.5 99l72 160h139l-130 -289q37 23 72 23h52q57 -29 88.5 -85.5t31.5 -115.5q0 -141 -112 -233h-192q-114 81 -114 233zM169 221q0 -28 9 -60t20 -45h87q27 47 27 108q0 58 -26 94h-93q-24 -50 -24 -97z" />
<glyph unicode="7" horiz-adv-x="372" d="M10 580v120h357v-93l-207 -607h-141l201 580h-210z" />
<glyph unicode="8" horiz-adv-x="487" d="M25 197q0 110 85 166v4q-68 58 -68 145q0 66 37.5 116.5t89.5 71.5h151q52 -21 88.5 -70t36.5 -115q0 -87 -69 -146v-4q86 -57 86 -164q0 -67 -37.5 -122.5t-87.5 -78.5h-184q-54 23 -91 76t-37 121zM164 213q0 -31 11.5 -59t25.5 -38h85q14 10 25.5 38t11.5 59 q0 56 -35 85h-89q-35 -29 -35 -85zM169 498q0 -50 35 -83h79q35 33 35 83q0 27 -11 49.5t-25 32.5h-77q-14 -10 -25 -32.5t-11 -49.5z" />
<glyph unicode="9" horiz-adv-x="468" d="M25 467q0 148 119 233h185q114 -81 114 -233q0 -115 -93 -307l-72 -160h-139l130 289q-37 -23 -72 -23h-52q-57 29 -88.5 85.5t-31.5 115.5zM164 476q0 -58 26 -94h93q24 50 24 97q0 28 -8.5 58t-19.5 43h-88q-27 -43 -27 -104z" />
<glyph unicode=":" horiz-adv-x="224" d="M40 0v148h144v-148h-144zM40 296v148h144v-148h-144z" />
<glyph unicode=";" horiz-adv-x="224" d="M40 0v148h144v-59q0 -75 -17 -121t-68 -117l-58 28q48 74 58 121h-59zM40 296v148h144v-148h-144z" />
<glyph unicode="&#x3c;" horiz-adv-x="379" d="M20 289v100l288 145l51 -103l-203 -92l203 -92l-51 -103z" />
<glyph unicode="=" horiz-adv-x="344" d="M5 170v97h334v-97h-334zM5 370v97h334v-97h-334z" />
<glyph unicode="&#x3e;" horiz-adv-x="379" d="M20 247l203 92l-203 92l51 103l288 -145v-100l-288 -145z" />
<glyph unicode="?" horiz-adv-x="309" d="M30 576v124h167q46 -19 65 -56t19 -74q0 -21 -7 -44t-14.5 -38.5t-21.5 -39.5t-20 -36q-29 -58 -29 -130v-41h-122v45q0 36 8 76.5t14.5 61.5t21.5 58.5t15 38.5q9 23 9 37q0 18 -19 18h-86zM67 0v135h122v-135h-122z" />
<glyph unicode="@" horiz-adv-x="722" d="M25 190q0 191 200 321h332q139 -104 139 -251q0 -76 -27.5 -127.5t-88.5 -112.5h-157l-13 26q-15 -17 -32.5 -21.5t-52.5 -4.5h-46q-73 67 -73 162q0 100 81 166h38q51 0 79 -23l5 23h100v-232h21q29 30 40 60t11 84q0 46 -17 78.5t-53 67.5h-251q-120 -81 -120 -216 q0 -40 9 -74t21.5 -56.5t32.5 -42t34.5 -30t34.5 -22.5h229v-105h-265q-102 53 -156.5 129t-54.5 201zM323 185q0 -35 18 -65h53v130h-50q-21 -30 -21 -65z" />
<glyph unicode="A" horiz-adv-x="490" d="M10 0l135 700h207l128 -700h-134l-21 111h-158l-21 -111h-136zM183 218h125q-14 68 -62 352h-2l-39 -233z" />
<glyph unicode="B" horiz-adv-x="501" d="M48 0v700h285q49 -18 87 -63t38 -109q0 -113 -74 -158v-4q92 -51 92 -160q0 -125 -127 -206h-301zM184 116h103q18 13 32.5 41t14.5 58q0 26 -12 49t-30 34h-108v-182zM184 411h99q44 27 44 86q0 51 -41 83h-102v-169z" />
<glyph unicode="C" horiz-adv-x="443" d="M30 345q0 108 38 201t113 154h237v-120h-176q-27 -31 -46.5 -100t-19.5 -132t19.5 -132t46.5 -100h176v-116h-254q-66 62 -100 157t-34 188z" />
<glyph unicode="D" horiz-adv-x="510" d="M48 0v700h290q142 -126 142 -349q0 -208 -133 -351h-299zM184 116h90q28 35 44.5 102t16.5 133q0 157 -59 229h-92v-464z" />
<glyph unicode="E" horiz-adv-x="440" d="M48 0v700h359v-120h-222v-167h198v-116h-198v-181h226v-116h-363z" />
<glyph unicode="F" horiz-adv-x="423" d="M48 0v700h365v-120h-228v-175h198v-116h-198v-289h-137z" />
<glyph unicode="G" horiz-adv-x="494" d="M30 340q0 107 40 204t112 156h243v-120h-186q-26 -30 -45 -94.5t-19 -136.5q0 -73 17.5 -138.5t43.5 -94.5h96v272h132v-168q0 -138 -84 -220h-212q-72 66 -105 157t-33 183z" />
<glyph unicode="H" horiz-adv-x="530" d="M48 0v700h137v-282h160v282h137v-700h-137v290h-160v-290h-137z" />
<glyph unicode="I" horiz-adv-x="233" d="M48 0v700h137v-700h-137z" />
<glyph unicode="J" horiz-adv-x="326" d="M16 0v116h103q18 23 23 53.5t5 123.5v407h137v-360q0 -67 -2.5 -104t-12.5 -84.5t-33 -83.5t-62 -68h-158z" />
<glyph unicode="K" horiz-adv-x="463" d="M48 0v700h137v-295h5l125 295h141l-146 -334l153 -366h-152l-119 306h-7v-306h-137z" />
<glyph unicode="L" horiz-adv-x="413" d="M48 0v700h137v-584h208v-116h-345z" />
<glyph unicode="M" horiz-adv-x="602" d="M33 0l45 700h125q38 -137 96 -380h4l53 219l43 161h125l45 -700h-131l-19 382h-5l-72 -282h-82l-72 282h-5l-19 -382h-131z" />
<glyph unicode="N" horiz-adv-x="501" d="M48 0v700h101l184 -402l5 2l-11 123v277h126v-700h-93l-187 387l-5 -2l6 -118v-267h-126z" />
<glyph unicode="O" horiz-adv-x="542" d="M30 340q0 111 34 207t104 153h206q70 -57 104 -153t34 -207q0 -92 -33 -183t-105 -157h-206q-72 66 -105 157t-33 183zM175 349q0 -73 17.5 -138.5t42.5 -94.5h72q25 29 42.5 94.5t17.5 138.5t-17 137.5t-42 93.5h-73q-25 -29 -42.5 -93.5t-17.5 -137.5z" />
<glyph unicode="P" horiz-adv-x="491" d="M48 0v700h271q68 -30 107.5 -92t39.5 -143q0 -84 -41 -154t-121 -99h-121v-212h-135zM183 330h89q55 45 55 132q0 37 -14.5 70t-34.5 48h-95v-250z" />
<glyph unicode="Q" horiz-adv-x="542" d="M30 340q0 111 34 207t104 153h206q70 -57 104 -153t34 -207q0 -92 -33 -183t-105 -157h-33l31 -113h-128l-31 113h-45q-72 66 -105 157t-33 183zM175 349q0 -73 17.5 -138.5t42.5 -94.5h72q25 29 42.5 94.5t17.5 138.5t-17 137.5t-42 93.5h-73q-25 -29 -42.5 -93.5 t-17.5 -137.5z" />
<glyph unicode="R" horiz-adv-x="490" d="M48 0v700h266q63 -21 107.5 -77.5t44.5 -138.5q0 -134 -106 -197l101 -287h-140l-85 255h-53v-255h-135zM183 367h86q17 4 37.5 34.5t20.5 74.5q0 38 -17.5 69t-34.5 35h-92v-213z" />
<glyph unicode="S" horiz-adv-x="388" d="M25 559q0 104 87 141h240v-120h-192l-3 -6l160 -292q49 -88 49 -134q0 -101 -67 -148h-265v116h207l3 6l-180 323q-39 70 -39 114z" />
<glyph unicode="T" d="M10 580v120h438v-120h-151v-580h-136v580h-151z" />
<glyph unicode="U" horiz-adv-x="526" d="M43 287v413h137v-463q0 -48 9.5 -72.5t31.5 -48.5h84q22 24 31.5 48.5t9.5 72.5v463h137v-413q0 -51 -2.5 -79.5t-12 -69t-33 -73.5t-61.5 -65h-222q-38 31 -61.5 64t-33 73.5t-12 70t-2.5 79.5z" />
<glyph unicode="V" horiz-adv-x="482" d="M5 700h144q65 -380 89 -534h6q25 157 89 534h144l-142 -700h-188z" />
<glyph unicode="W" horiz-adv-x="644" d="M10 700h134l28 -206l21 -232h5q40 247 68 438h113l30 -207l38 -231h5l20 232l28 206h134l-97 -700h-144l-70 413h-4l-72 -413h-140z" />
<glyph unicode="X" horiz-adv-x="462" d="M13 0l103 366l-96 334h138l71 -285h4l71 285h138l-96 -334l103 -366h-142l-74 300h-4l-74 -300h-142z" />
<glyph unicode="Y" horiz-adv-x="442" d="M0 700h136l62 -213l21 -123h4l21 123l62 213h136l-148 -467v-233h-146v233z" />
<glyph unicode="Z" horiz-adv-x="432" d="M24 0v114l236 466h-236v120h382v-117l-237 -467h238v-116h-383z" />
<glyph unicode="[" horiz-adv-x="248" d="M45 -150v950h188v-110h-66v-730h66v-110h-188z" />
<glyph unicode="\" horiz-adv-x="385" d="M10 700h133l222 -700h-129z" />
<glyph unicode="]" horiz-adv-x="248" d="M15 -40h66v730h-66v110h188v-950h-188v110z" />
<glyph unicode="^" horiz-adv-x="436" d="M40 362l115 338h118l123 -338l-121 -32l-61 181l-52 -181z" />
<glyph unicode="_" horiz-adv-x="416" d="M0 -101h416v-114h-416v114z" />
<glyph unicode="`" horiz-adv-x="500" d="M136 624l47 103l171 -100l-40 -81z" />
<glyph unicode="a" d="M29 162q0 105 87 166h94q39 0 73 -24v50q0 39 -34 52h-180v105h248q60 -36 79 -82.5t19 -126.5v-150q0 -83 4 -152h-114l-18 36q-39 -36 -110 -36h-63q-85 56 -85 162zM156 169q0 -42 22 -64h106v126h-107q-21 -26 -21 -62z" />
<glyph unicode="b" horiz-adv-x="474" d="M43 0v700h132v-225q22 20 41.5 28t58.5 8h80q42 -41 66 -106t24 -143q0 -167 -100 -262h-95q-49 0 -82 37l-18 -37h-107zM176 105h96q37 63 37 153t-38 148h-95v-301z" />
<glyph unicode="c" horiz-adv-x="390" d="M29 262q0 164 126 249h211v-105h-150q-49 -51 -49 -146q0 -42 13 -85.5t36 -69.5h150v-105h-219q-118 94 -118 262z" />
<glyph unicode="d" horiz-adv-x="473" d="M29 256q0 91 25.5 150t72.5 105h86q53 0 84 -28v217h133v-700h-101l-18 36q-22 -20 -41.5 -28t-58.5 -8h-87q-44 42 -69.5 110t-25.5 146zM164 253q0 -93 36 -148h97v301h-96q-37 -63 -37 -153z" />
<glyph unicode="e" horiz-adv-x="454" d="M29 257q0 164 124 254h162q67 -49 91 -104t24 -126q0 -41 -9 -81h-249q3 -23 17.5 -52.5t31.5 -42.5h189v-105h-254q-70 47 -98.5 116.5t-28.5 140.5zM165 294h143q2 30 -8 62.5t-26 49.5h-75q-15 -18 -24.5 -50t-9.5 -62z" />
<glyph unicode="f" horiz-adv-x="310" d="M9 406v105h55q0 130 113 189h144v-105h-90q-34 -21 -34 -84h104v-105h-104v-406h-133v406h-55z" />
<glyph unicode="g" horiz-adv-x="469" d="M29 255q0 92 26 150.5t76 105.5h74q65 0 103 -42l18 42h104v-458q0 -76 -19.5 -122t-77.5 -81h-228v104h171q25 15 25 48v59q-37 -31 -118 -31h-73q-81 97 -81 225zM164 268q0 -85 31 -137h102v275h-97q-36 -62 -36 -138z" />
<glyph unicode="h" horiz-adv-x="486" d="M43 0v700h133v-225q22 20 41.5 28t58.5 8h95q44 -56 60 -112t16 -140v-259h-133v269q0 95 -26 137h-112v-406h-133z" />
<glyph unicode="i" horiz-adv-x="218" d="M43 0v511h132v-511h-132zM43 565v135h132v-135h-132z" />
<glyph unicode="j" horiz-adv-x="217" d="M-51 -45h69q25 15 25 48v508h131v-460q0 -76 -18 -121t-75 -80h-132v105zM43 555v145h131v-145h-131z" />
<glyph unicode="k" horiz-adv-x="426" d="M43 0v700h133v-371h14l94 182h130l-118 -223l119 -288h-132l-92 224h-15v-224h-133z" />
<glyph unicode="l" horiz-adv-x="218" d="M43 0v700h132v-700h-132z" />
<glyph unicode="m" horiz-adv-x="686" d="M43 0v511h104l18 -36q22 20 41.5 28t58.5 8h71l25 -35q21 19 40.5 27t58.5 8h111q44 -56 60 -112t16 -140v-259h-133v269q0 92 -28 137h-96q22 -43 22 -117v-289h-133v269q0 95 -26 137h-77v-406h-133z" />
<glyph unicode="n" horiz-adv-x="486" d="M43 0v511h104l18 -36q22 20 41.5 28t58.5 8h106q44 -56 60 -112t16 -140v-259h-133v269q0 95 -26 137h-112v-406h-133z" />
<glyph unicode="o" horiz-adv-x="476" d="M29 254q0 81 22.5 141t71.5 116h234q52 -60 71 -116.5t19 -140.5q0 -161 -100 -254h-218q-100 93 -100 254zM164 258q0 -90 36 -153h76q36 70 36 153q0 95 -37 148h-75q-36 -51 -36 -148z" />
<glyph unicode="p" horiz-adv-x="474" d="M43 -150v661h107l15 -36q22 20 41.5 28t58.5 8h90q42 -41 66 -106t24 -143q0 -167 -100 -262h-85q-53 0 -84 28v-178h-133zM176 105h96q37 63 37 153t-38 148h-95v-301z" />
<glyph unicode="q" horiz-adv-x="473" d="M29 262q0 76 26 141.5t69 107.5h84q39 0 58.5 -8t41.5 -28l15 30h107v-655h-133v178q-31 -28 -84 -28h-84q-100 95 -100 262zM164 258q0 -91 37 -154h96v302h-95q-38 -58 -38 -148z" />
<glyph unicode="r" horiz-adv-x="318" d="M44 0v511h95l25 -54q40 54 101 54h39v-134h-127v-377h-133z" />
<glyph unicode="s" horiz-adv-x="350" d="M20 0v105h183l-107 157q-5 8 -16.5 24t-15.5 21.5t-12 18t-11 18.5t-8 15.5t-6.5 16t-3 15t-1.5 16.5q0 73 71 104h221v-105h-156l95 -141q7 -10 22.5 -32.5t21.5 -32.5t15 -27.5t12.5 -33t3.5 -32.5q0 -71 -53 -107h-255z" />
<glyph unicode="t" horiz-adv-x="312" d="M4 406v105h69v139h133v-139h82v-105h-82v-215q0 -61 21 -86h61v-105h-142q-26 24 -42 49t-22 57t-7.5 53.5t-1.5 63.5v183h-69z" />
<glyph unicode="u" horiz-adv-x="477" d="M39 252v259h133v-269q0 -91 36 -137h93v406h133v-511h-105l-18 36q-38 -36 -91 -36h-105q-44 56 -60 112t-16 140z" />
<glyph unicode="v" horiz-adv-x="473" d="M40 245v266h133v-262q0 -88 33 -144h61q33 59 33 143v263h133v-261q0 -79 -28 -145t-76 -105h-185q-48 39 -76 103t-28 142z" />
<glyph unicode="w" horiz-adv-x="684" d="M40 245v266h133v-266q0 -89 32 -140h71v406h132v-406h70q33 53 33 146v260h133v-266q0 -169 -94 -245h-83q-77 0 -127 46q-50 -46 -123 -46h-83q-94 66 -94 245z" />
<glyph unicode="x" horiz-adv-x="421" d="M4 0l99 262l-95 249h137l63 -190h4l62 190h139l-95 -249l99 -262h-137l-69 198h-4l-66 -198h-137z" />
<glyph unicode="y" horiz-adv-x="473" d="M35 -45h108q21 6 35 21t29 43l6 11h-69q-48 39 -76 105.5t-28 145.5v230h133v-231q0 -87 35 -145h59q33 57 33 145v231h133v-223q0 -75 -19.5 -132t-63.5 -129l-67 -109q-18 -31 -38 -46t-52 -22h-158v105z" />
<glyph unicode="z" horiz-adv-x="402" d="M24 0v77l196 329h-184v105h342v-77l-193 -329h191v-105h-352z" />
<glyph unicode="{" horiz-adv-x="248" d="M25 291v70h36q17 30 8 78l-23 163q-26 166 118 198h74v-70h-45q-17 -15 -22 -55.5t4 -89.5l17 -104q17 -106 -53 -151v-8q70 -45 53 -151l-17 -104q-9 -49 -4 -89.5t22 -55.5h45v-70h-74q-144 32 -118 198l23 163q9 48 -8 78h-36z" />
<glyph unicode="|" horiz-adv-x="228" d="M50 0v700h128v-700h-128z" />
<glyph unicode="}" horiz-adv-x="248" d="M10 -78h45q17 15 22 55.5t-4 89.5l-17 104q-17 106 53 151v8q-70 45 -53 151l17 104q9 49 4 89.5t-22 55.5h-45v70h74q144 -32 118 -198l-23 -163q-9 -48 8 -78h36v-70h-36q-17 -30 -8 -78l23 -163q26 -166 -118 -198h-74v70z" />
<glyph unicode="~" horiz-adv-x="412" d="M10 245v117q56 26 128 29l136 -48q72 0 128 14v-116q-53 -16 -128 -17l-136 48q-64 -5 -128 -27z" />
<glyph unicode="&#xa1;" horiz-adv-x="222" d="M40 -189l15 320v139h112v-139l15 -320h-142zM55 376v135h112v-135h-112z" />
<glyph unicode="&#xa2;" horiz-adv-x="401" d="M40 365q0 164 126 249h44v86h106v-86h61v-105h-150q-49 -51 -49 -146q0 -42 13 -85.5t36 -69.5h150v-105h-61v-103h-106v103h-52q-118 94 -118 262z" />
<glyph unicode="&#xa3;" horiz-adv-x="422" d="M27 290l17 105h47v84q0 150 116 221h178v-120h-129q-18 -18 -23 -35.5t-5 -51.5v-98h157l-17 -105h-140v-174h164v-116h-359v83l58 33v174h-64z" />
<glyph unicode="&#xa5;" d="M8 700h136l62 -213l21 -123h4l21 123l62 213h136l-116 -364h70v-114h-102v-222h-146v222h-100v114h67z" />
<glyph unicode="&#xa6;" horiz-adv-x="228" d="M50 0v316h128v-316h-128zM50 386v314h128v-314h-128z" />
<glyph unicode="&#xa7;" horiz-adv-x="408" d="M7 303q0 34 13 61t26 39.5t37 28.5h70q-48 90 -48 137q0 91 96 131h167v-120h-147l-3 -5l92 -183q4 -7 17.5 -32.5l18 -34t14 -29.5t13 -33t7 -29t3.5 -32q0 -80 -72 -130h-75q3 -5 12.5 -23t13 -25t10 -22t9.5 -24t5.5 -21t2.5 -22q0 -91 -96 -131h-167v114h147l3 5 l-86 168q-6 12 -28 53t-29.5 58t-16.5 46.5t-9 54.5zM113 321l75 -147h86l4 9l-75 147h-86z" />
<glyph unicode="&#xa8;" horiz-adv-x="500" d="M97 565v135h132v-135h-132zM270 565v135h132v-135h-132z" />
<glyph unicode="&#xa9;" horiz-adv-x="770" d="M25 350q0 113 55 206t156 144h298q101 -51 156 -144t55 -206q0 -114 -55 -206.5t-156 -143.5h-298q-101 51 -156 143.5t-55 206.5zM144 350q0 -77 33 -146.5t101 -101.5h214q68 32 101 101.5t33 146.5q0 76 -33 144.5t-101 102.5h-214q-68 -34 -101 -102.5t-33 -144.5z M218 349q0 126 102 195h168v-117h-107q-32 -26 -32 -80q0 -55 32 -82h107v-116h-168q-102 76 -102 200z" />
<glyph unicode="&#xaa;" horiz-adv-x="363" d="M10 300l66 400h210l67 -400h-124l-9 59h-78l-9 -59h-123zM154 448h55l-24 145h-8z" />
<glyph unicode="&#xab;" horiz-adv-x="497" d="M35 244l121 193l89 -49l-85 -144l95 -136l-89 -49zM242 244l121 193l89 -49l-85 -144l95 -136l-89 -49z" />
<glyph unicode="&#xac;" horiz-adv-x="344" d="M5 293v119h334v-283h-133v164h-201z" />
<glyph unicode="&#xad;" horiz-adv-x="296" d="M45 231v114h206v-114h-206z" />
<glyph unicode="&#xae;" horiz-adv-x="538" d="M25 471q0 74 34 136.5t98 92.5h224q64 -30 98 -92.5t34 -136.5t-34 -136.5t-98 -92.5h-224q-64 30 -98 92.5t-34 136.5zM106 471q0 -46 18 -89.5t52 -66.5h186q33 23 51.5 66.5t18.5 89.5t-18.5 89.5t-51.5 66.5h-186q-34 -23 -52 -66.5t-18 -89.5zM177 337v265h134 q27 -11 43 -35t16 -54q0 -48 -38 -76l37 -100h-76l-29 84h-13v-84h-74zM251 477h35q11 9 11 29q0 18 -11 27h-35v-56z" />
<glyph unicode="&#xaf;" horiz-adv-x="500" d="M124 569v100h252v-100h-252z" />
<glyph unicode="&#xb0;" horiz-adv-x="315" d="M31 644q0 91 80 130h94q80 -39 80 -130q0 -39 -21 -74t-59 -52h-94q-38 17 -59 52t-21 74zM124 645q0 -29 18 -47h32q18 18 18 47q0 32 -18 49h-32q-18 -17 -18 -49z" />
<glyph unicode="&#xb1;" horiz-adv-x="344" d="M5 0v97h334v-97h-334zM5 290v97h118v124h96v-124h120v-97h-120v-123h-96v123h-118z" />
<glyph unicode="&#xb4;" horiz-adv-x="500" d="M146 627l171 100l47 -103l-178 -78z" />
<glyph unicode="&#xb6;" horiz-adv-x="463" d="M25 416q0 189 163 284h238v-585q0 -126 -30 -225h-132q30 109 30 221v447h-45v-408h-61q-76 36 -119.5 110.5t-43.5 155.5z" />
<glyph unicode="&#xb7;" horiz-adv-x="192" d="M40 295v124h112v-124h-112z" />
<glyph unicode="&#xb8;" horiz-adv-x="500" d="M174 -179h45q9 6 9.5 23t-9.5 24h-25v72l33 75h84l-29 -75q15 -13 22 -21.5t14.5 -27.5t7.5 -43q0 -32 -18 -61t-46 -47h-88v81z" />
<glyph unicode="&#xba;" horiz-adv-x="369" d="M20 494q0 122 73 206h182q74 -85 74 -206q0 -53 -18 -106t-56 -88h-182q-73 68 -73 194zM149 500q0 -63 22 -102h26q22 39 22 102q0 68 -23 100h-24q-23 -34 -23 -100z" />
<glyph unicode="&#xbb;" horiz-adv-x="486" d="M25 108l95 136l-85 144l89 49l121 -193l-131 -185zM231 108l95 136l-85 144l89 49l121 -193l-131 -185z" />
<glyph unicode="&#xbf;" horiz-adv-x="309" d="M28 -59q0 21 7 44t14.5 38.5t21.5 39.5t20 36q29 58 29 130v41h122v-45q0 -36 -8 -76.5t-14.5 -61.5t-21.5 -58.5t-15 -38.5q-9 -23 -9 -37q0 -18 19 -18h86v-124h-167q-46 19 -65 56t-19 74zM120 376v135h122v-135h-122z" />
<glyph unicode="&#xc0;" horiz-adv-x="490" d="M10 0l135 700h207l128 -700h-134l-21 111h-158l-21 -111h-136zM131 788l39 111l183 -82l-32 -87zM183 218h125q-14 68 -62 352h-2l-39 -233z" />
<glyph unicode="&#xc1;" horiz-adv-x="490" d="M10 0l135 700h207l128 -700h-134l-21 111h-158l-21 -111h-136zM159 817l183 82l38 -111l-189 -58zM183 218h125q-14 68 -62 352h-2l-39 -233z" />
<glyph unicode="&#xc2;" horiz-adv-x="490" d="M10 0l135 700h207l128 -700h-134l-21 111h-158l-21 -111h-136zM100 769l93 109h106l91 -111l-59 -39l-86 58l-86 -57zM183 218h125q-14 68 -62 352h-2l-39 -233z" />
<glyph unicode="&#xc3;" horiz-adv-x="490" d="M10 0l135 700h207l128 -700h-134l-21 111h-158l-21 -111h-136zM114 736v105q64 27 86 27l97 -27q20 0 79 14v-107q-61 -15 -84 -14l-96 25q-21 0 -82 -23zM183 218h125q-14 68 -62 352h-2l-39 -233z" />
<glyph unicode="&#xc4;" horiz-adv-x="490" d="M10 0l135 700h207l128 -700h-134l-21 111h-158l-21 -111h-136zM93 730v135h132v-135h-132zM183 218h125q-14 68 -62 352h-2l-39 -233zM266 730v135h132v-135h-132z" />
<glyph unicode="&#xc5;" horiz-adv-x="490" d="M10 0l134 694q-22 32 -22 73q0 86 80 125h90q80 -39 80 -125q0 -38 -20 -69l128 -698h-134l-21 111h-158l-21 -111h-136zM183 218h125q-14 68 -62 352h-2l-39 -233zM208 767q0 -28 20 -48h37q21 21 21 48q0 31 -21 50h-37q-20 -20 -20 -50z" />
<glyph unicode="&#xc6;" horiz-adv-x="675" d="M5 0l181 700h456v-120h-222v-167h198v-116h-198v-181h226v-116h-363v170h-102l-40 -170h-136zM206 278h77v302h-6z" />
<glyph unicode="&#xc7;" horiz-adv-x="443" d="M30 345q0 108 38 201t113 154h237v-120h-176q-27 -31 -46.5 -100t-19.5 -132t19.5 -132t46.5 -100h176v-116h-108l-23 -60q15 -13 22 -21.5t14.5 -27.5t7.5 -43q0 -32 -18 -61t-46 -47h-88v81h45q9 6 9.5 23t-9.5 24h-25v72l26 60h-61q-66 62 -100 157t-34 188z" />
<glyph unicode="&#xc8;" horiz-adv-x="440" d="M48 0v700h359v-120h-222v-167h198v-116h-198v-181h226v-116h-363zM120 788l39 111l183 -82l-32 -87z" />
<glyph unicode="&#xc9;" horiz-adv-x="440" d="M48 0v700h359v-120h-222v-167h198v-116h-198v-181h226v-116h-363zM128 817l183 82l38 -111l-189 -58z" />
<glyph unicode="&#xca;" horiz-adv-x="440" d="M48 0v700h359v-120h-222v-167h198v-116h-198v-181h226v-116h-363zM85 769l93 109h106l91 -111l-59 -39l-86 58l-86 -57z" />
<glyph unicode="&#xcb;" horiz-adv-x="440" d="M48 0v700h359v-120h-222v-167h198v-116h-198v-181h226v-116h-363zM75 730v135h132v-135h-132zM248 730v135h132v-135h-132z" />
<glyph unicode="&#xcc;" horiz-adv-x="233" d="M-27 788l39 111l183 -82l-32 -87zM48 0v700h137v-700h-137z" />
<glyph unicode="&#xcd;" horiz-adv-x="233" d="M30 817l183 82l38 -111l-189 -58zM48 0v700h137v-700h-137z" />
<glyph unicode="&#xce;" horiz-adv-x="233" d="M-29 769l93 109h106l91 -111l-59 -39l-86 58l-86 -57zM48 0v700h137v-700h-137z" />
<glyph unicode="&#xcf;" horiz-adv-x="233" d="M-36 730v135h132v-135h-132zM48 0v700h137v-700h-137zM137 730v135h132v-135h-132z" />
<glyph unicode="&#xd0;" horiz-adv-x="522" d="M13 299v106h47v295h290q142 -126 142 -349q0 -208 -133 -351h-299v299h-47zM196 116h90q28 35 44.5 102t16.5 133q0 157 -59 229h-92v-175h87v-106h-87v-183z" />
<glyph unicode="&#xd1;" horiz-adv-x="501" d="M48 0v700h101l184 -402l5 2l-11 123v277h126v-700h-93l-187 387l-5 -2l6 -118v-267h-126zM114 736v105q64 27 86 27l97 -27q20 0 79 14v-107q-61 -15 -84 -14l-96 25q-21 0 -82 -23z" />
<glyph unicode="&#xd2;" horiz-adv-x="542" d="M30 340q0 111 34 207t104 153h206q70 -57 104 -153t34 -207q0 -92 -33 -183t-105 -157h-206q-72 66 -105 157t-33 183zM137 788l39 111l183 -82l-32 -87zM175 349q0 -73 17.5 -138.5t42.5 -94.5h72q25 29 42.5 94.5t17.5 138.5t-17 137.5t-42 93.5h-73 q-25 -29 -42.5 -93.5t-17.5 -137.5z" />
<glyph unicode="&#xd3;" horiz-adv-x="542" d="M30 340q0 111 34 207t104 153h206q70 -57 104 -153t34 -207q0 -92 -33 -183t-105 -157h-206q-72 66 -105 157t-33 183zM175 349q0 -73 17.5 -138.5t42.5 -94.5h72q25 29 42.5 94.5t17.5 138.5t-17 137.5t-42 93.5h-73q-25 -29 -42.5 -93.5t-17.5 -137.5zM175 817l183 82 l38 -111l-189 -58z" />
<glyph unicode="&#xd4;" horiz-adv-x="542" d="M30 340q0 111 34 207t104 153h206q70 -57 104 -153t34 -207q0 -92 -33 -183t-105 -157h-206q-72 66 -105 157t-33 183zM126 769l93 109h106l91 -111l-59 -39l-86 58l-86 -57zM175 349q0 -73 17.5 -138.5t42.5 -94.5h72q25 29 42.5 94.5t17.5 138.5t-17 137.5t-42 93.5 h-73q-25 -29 -42.5 -93.5t-17.5 -137.5z" />
<glyph unicode="&#xd5;" horiz-adv-x="542" d="M30 340q0 111 34 207t104 153h206q70 -57 104 -153t34 -207q0 -92 -33 -183t-105 -157h-206q-72 66 -105 157t-33 183zM140 736v105q64 27 86 27l97 -27q20 0 79 14v-107q-61 -15 -84 -14l-96 25q-21 0 -82 -23zM175 349q0 -73 17.5 -138.5t42.5 -94.5h72 q25 29 42.5 94.5t17.5 138.5t-17 137.5t-42 93.5h-73q-25 -29 -42.5 -93.5t-17.5 -137.5z" />
<glyph unicode="&#xd6;" horiz-adv-x="542" d="M30 340q0 111 34 207t104 153h206q70 -57 104 -153t34 -207q0 -92 -33 -183t-105 -157h-206q-72 66 -105 157t-33 183zM119 730v135h132v-135h-132zM175 349q0 -73 17.5 -138.5t42.5 -94.5h72q25 29 42.5 94.5t17.5 138.5t-17 137.5t-42 93.5h-73q-25 -29 -42.5 -93.5 t-17.5 -137.5zM292 730v135h132v-135h-132z" />
<glyph unicode="&#xd7;" horiz-adv-x="321" d="M5 426l68 68l87 -88l85 85l69 -69l-84 -84l86 -87l-68 -68l-86 87l-84 -84l-69 69l83 83z" />
<glyph unicode="&#xd8;" horiz-adv-x="542" d="M30 340q0 111 34 207t104 153h144l17 50h123l-32 -97q92 -118 92 -313q0 -92 -33 -183t-105 -157h-136l-16 -50h-123l30 91q-99 123 -99 299zM175 349q0 -73 17.5 -138.5t42.5 -94.5h72q25 29 42.5 94.5t17.5 138.5t-17 137.5t-42 93.5h-73q-25 -29 -42.5 -93.5 t-17.5 -137.5z" />
<glyph unicode="&#xd9;" horiz-adv-x="526" d="M43 287v413h137v-463q0 -48 9.5 -72.5t31.5 -48.5h84q22 24 31.5 48.5t9.5 72.5v463h137v-413q0 -51 -2.5 -79.5t-12 -69t-33 -73.5t-61.5 -65h-222q-38 31 -61.5 64t-33 73.5t-12 70t-2.5 79.5zM149 788l39 111l183 -82l-32 -87z" />
<glyph unicode="&#xda;" horiz-adv-x="526" d="M43 287v413h137v-463q0 -48 9.5 -72.5t31.5 -48.5h84q22 24 31.5 48.5t9.5 72.5v463h137v-413q0 -51 -2.5 -79.5t-12 -69t-33 -73.5t-61.5 -65h-222q-38 31 -61.5 64t-33 73.5t-12 70t-2.5 79.5zM177 817l183 82l38 -111l-189 -58z" />
<glyph unicode="&#xdb;" horiz-adv-x="526" d="M43 287v413h137v-463q0 -48 9.5 -72.5t31.5 -48.5h84q22 24 31.5 48.5t9.5 72.5v463h137v-413q0 -51 -2.5 -79.5t-12 -69t-33 -73.5t-61.5 -65h-222q-38 31 -61.5 64t-33 73.5t-12 70t-2.5 79.5zM118 769l93 109h106l91 -111l-59 -39l-86 58l-86 -57z" />
<glyph unicode="&#xdc;" horiz-adv-x="526" d="M43 287v413h137v-463q0 -48 9.5 -72.5t31.5 -48.5h84q22 24 31.5 48.5t9.5 72.5v463h137v-413q0 -51 -2.5 -79.5t-12 -69t-33 -73.5t-61.5 -65h-222q-38 31 -61.5 64t-33 73.5t-12 70t-2.5 79.5zM111 730v135h132v-135h-132zM284 730v135h132v-135h-132z" />
<glyph unicode="&#xdd;" horiz-adv-x="442" d="M0 700h136l62 -213l21 -123h4l21 123l62 213h136l-148 -467v-233h-146v233zM146 817l183 82l38 -111l-189 -58z" />
<glyph unicode="&#xde;" horiz-adv-x="491" d="M48 0v700h135v-90h136q68 -30 107.5 -92t39.5 -143q0 -84 -41 -154t-121 -99h-121v-122h-135zM183 239h89q55 45 55 129q0 37 -15 71t-34 49h-95v-249z" />
<glyph unicode="&#xdf;" horiz-adv-x="508" d="M33 0v413q0 101 19.5 169t85.5 118h144q36 -30 58.5 -63t31.5 -73.5t11.5 -70.5t2.5 -80v-18q122 -40 122 -198q0 -52 -30.5 -110t-85.5 -87h-177v105h118q16 11 28 36.5t12 56.5q0 72 -40 94h-79v153q0 97 -28 150h-33q-27 -54 -27 -150v-445h-133z" />
<glyph unicode="&#xe0;" d="M29 162q0 105 87 166h94q39 0 73 -24v50q0 39 -34 52h-180v105h248q60 -36 79 -82.5t19 -126.5v-150q0 -83 4 -152h-114l-18 36q-39 -36 -110 -36h-63q-85 56 -85 162zM97 624l47 103l171 -100l-40 -81zM156 169q0 -42 22 -64h106v126h-107q-21 -26 -21 -62z" />
<glyph unicode="&#xe1;" d="M29 162q0 105 87 166h94q39 0 73 -24v50q0 39 -34 52h-180v105h248q60 -36 79 -82.5t19 -126.5v-150q0 -83 4 -152h-114l-18 36q-39 -36 -110 -36h-63q-85 56 -85 162zM126 627l171 100l47 -103l-178 -78zM156 169q0 -42 22 -64h106v126h-107q-21 -26 -21 -62z" />
<glyph unicode="&#xe2;" d="M29 162q0 105 87 166h94q39 0 73 -24v50q0 39 -34 52h-180v105h248q60 -36 79 -82.5t19 -126.5v-150q0 -83 4 -152h-114l-18 36q-39 -36 -110 -36h-63q-85 56 -85 162zM81 582l80 136h118l81 -136l-64 -33l-76 77l-76 -77zM156 169q0 -42 22 -64h106v126h-107 q-21 -26 -21 -62z" />
<glyph unicode="&#xe3;" d="M29 162q0 105 87 166h94q39 0 73 -24v50q0 39 -34 52h-180v105h248q60 -36 79 -82.5t19 -126.5v-150q0 -83 4 -152h-114l-18 36q-39 -36 -110 -36h-63q-85 56 -85 162zM89 559v100q64 27 86 27l97 -27q20 0 79 14v-102q-61 -15 -84 -14l-96 25q-21 0 -82 -23zM156 169 q0 -42 22 -64h106v126h-107q-21 -26 -21 -62z" />
<glyph unicode="&#xe4;" d="M29 162q0 105 87 166h94q39 0 73 -24v50q0 39 -34 52h-180v105h248q60 -36 79 -82.5t19 -126.5v-150q0 -83 4 -152h-114l-18 36q-39 -36 -110 -36h-63q-85 56 -85 162zM68 565v135h132v-135h-132zM156 169q0 -42 22 -64h106v126h-107q-21 -26 -21 -62zM241 565v135h132 v-135h-132z" />
<glyph unicode="&#xe5;" d="M29 162q0 105 87 166h94q39 0 73 -24v50q0 39 -34 52h-180v105h248q60 -36 79 -82.5t19 -126.5v-150q0 -83 4 -152h-114l-18 36q-39 -36 -110 -36h-63q-85 56 -85 162zM95 669q0 86 80 125h90q80 -39 80 -125q0 -38 -21 -70.5t-59 -50.5h-90q-38 18 -59 50.5t-21 70.5z M156 169q0 -42 22 -64h106v126h-107q-21 -26 -21 -62zM181 669q0 -28 20 -48h37q21 21 21 48q0 31 -21 50h-37q-20 -20 -20 -50z" />
<glyph unicode="&#xe6;" horiz-adv-x="708" d="M29 162q0 105 87 166h94q39 0 73 -24v50q0 39 -34 52h-180v105h239q33 -14 54 -44q16 18 50 44h157q67 -49 91 -104t24 -126q0 -41 -9 -81h-249q3 -23 17.5 -53t31.5 -43h189v-104h-254q-20 13 -46 39q-44 -39 -107 -39h-143q-85 56 -85 162zM156 169q0 -42 22 -64h139 q-30 59 -33 126h-107q-21 -26 -21 -62zM419 294h143q0 27 -9.5 61.5t-24.5 50.5h-75q-15 -18 -24.5 -50t-9.5 -62z" />
<glyph unicode="&#xe7;" horiz-adv-x="390" d="M29 262q0 164 126 249h211v-105h-150q-49 -51 -49 -146q0 -42 13 -85.5t36 -69.5h150v-105h-74l-23 -60q15 -13 22 -21.5t14.5 -27.5t7.5 -43q0 -32 -18 -61t-46 -47h-88v81h45q9 6 9.5 23t-9.5 24h-25v72l26 60h-60q-118 94 -118 262z" />
<glyph unicode="&#xe8;" horiz-adv-x="454" d="M29 257q0 164 124 254h162q67 -49 91 -104t24 -126q0 -41 -9 -81h-249q3 -23 17.5 -52.5t31.5 -42.5h189v-105h-254q-70 47 -98.5 116.5t-28.5 140.5zM100 624l47 103l171 -100l-40 -81zM165 294h143q2 30 -8 62.5t-26 49.5h-75q-15 -18 -24.5 -50t-9.5 -62z" />
<glyph unicode="&#xe9;" horiz-adv-x="454" d="M29 257q0 164 124 254h162q67 -49 91 -104t24 -126q0 -41 -9 -81h-249q3 -23 17.5 -52.5t31.5 -42.5h189v-105h-254q-70 47 -98.5 116.5t-28.5 140.5zM149 627l171 100l47 -103l-178 -78zM165 294h143q2 30 -8 62.5t-26 49.5h-75q-15 -18 -24.5 -50t-9.5 -62z" />
<glyph unicode="&#xea;" horiz-adv-x="454" d="M29 257q0 164 124 254h162q67 -49 91 -104t24 -126q0 -41 -9 -81h-249q3 -23 17.5 -52.5t31.5 -42.5h189v-105h-254q-70 47 -98.5 116.5t-28.5 140.5zM94 582l80 136h118l81 -136l-64 -33l-76 77l-76 -77zM165 294h143q2 30 -8 62.5t-26 49.5h-75q-15 -18 -24.5 -50 t-9.5 -62z" />
<glyph unicode="&#xeb;" horiz-adv-x="454" d="M29 257q0 164 124 254h162q67 -49 91 -104t24 -126q0 -41 -9 -81h-249q3 -23 17.5 -52.5t31.5 -42.5h189v-105h-254q-70 47 -98.5 116.5t-28.5 140.5zM81 565v135h132v-135h-132zM165 294h143q2 30 -8 62.5t-26 49.5h-75q-15 -18 -24.5 -50t-9.5 -62zM254 565v135h132 v-135h-132z" />
<glyph unicode="&#xec;" horiz-adv-x="218" d="M-40 624l47 103l171 -100l-40 -81zM43 0v511h132v-511h-132z" />
<glyph unicode="&#xed;" horiz-adv-x="218" d="M8 627l171 100l47 -103l-178 -78zM43 0v511h132v-511h-132z" />
<glyph unicode="&#xee;" horiz-adv-x="218" d="M-30 582l80 136h118l81 -136l-64 -33l-76 77l-76 -77zM43 0v511h132v-511h-132z" />
<glyph unicode="&#xef;" horiz-adv-x="218" d="M-51 565v135h132v-135h-132zM43 0v511h132v-511h-132zM122 565v135h132v-135h-132z" />
<glyph unicode="&#xf0;" horiz-adv-x="472" d="M29 256q0 91 25.5 150t72.5 105h86q48 0 84 -30q-12 37 -28 74h-113v88h73q-4 6 -14.5 26t-16.5 31h126l29 -57h96v-88h-56q52 -128 52 -267q0 -107 -26 -172.5t-72 -115.5h-223q-44 42 -69.5 110t-25.5 146zM164 253q0 -93 36 -148h79q33 75 33 192q0 63 -8 109h-103 q-37 -63 -37 -153z" />
<glyph unicode="&#xf1;" horiz-adv-x="486" d="M43 0v511h104l18 -36q22 20 41.5 28t58.5 8h106q44 -56 60 -112t16 -140v-259h-133v269q0 95 -26 137h-112v-406h-133zM95 559v100q64 27 86 27l97 -27q20 0 79 14v-102q-61 -15 -84 -14l-96 25q-21 0 -82 -23z" />
<glyph unicode="&#xf2;" horiz-adv-x="476" d="M29 254q0 81 22.5 141t71.5 116h234q52 -60 71 -116.5t19 -140.5q0 -161 -100 -254h-218q-100 93 -100 254zM121 624l47 103l171 -100l-40 -81zM164 258q0 -90 36 -153h76q36 70 36 153q0 95 -37 148h-75q-36 -51 -36 -148z" />
<glyph unicode="&#xf3;" horiz-adv-x="476" d="M29 254q0 81 22.5 141t71.5 116h234q52 -60 71 -116.5t19 -140.5q0 -161 -100 -254h-218q-100 93 -100 254zM140 627l171 100l47 -103l-178 -78zM164 258q0 -90 36 -153h76q36 70 36 153q0 95 -37 148h-75q-36 -51 -36 -148z" />
<glyph unicode="&#xf4;" horiz-adv-x="476" d="M29 254q0 81 22.5 141t71.5 116h234q52 -60 71 -116.5t19 -140.5q0 -161 -100 -254h-218q-100 93 -100 254zM95 582l80 136h118l81 -136l-64 -33l-76 77l-76 -77zM164 258q0 -90 36 -153h76q36 70 36 153q0 95 -37 148h-75q-36 -51 -36 -148z" />
<glyph unicode="&#xf5;" horiz-adv-x="476" d="M29 254q0 81 22.5 141t71.5 116h234q52 -60 71 -116.5t19 -140.5q0 -161 -100 -254h-218q-100 93 -100 254zM103 559v100q64 27 86 27l97 -27q20 0 79 14v-102q-61 -15 -84 -14l-96 25q-21 0 -82 -23zM164 258q0 -90 36 -153h76q36 70 36 153q0 95 -37 148h-75 q-36 -51 -36 -148z" />
<glyph unicode="&#xf6;" horiz-adv-x="476" d="M29 254q0 81 22.5 141t71.5 116h234q52 -60 71 -116.5t19 -140.5q0 -161 -100 -254h-218q-100 93 -100 254zM82 565v135h132v-135h-132zM164 258q0 -90 36 -153h76q36 70 36 153q0 95 -37 148h-75q-36 -51 -36 -148zM255 565v135h132v-135h-132z" />
<glyph unicode="&#xf7;" horiz-adv-x="344" d="M5 289v97h334v-97h-334zM95 180q0 56 47 79h60q47 -23 47 -79q0 -19 -13 -42t-34 -33h-60q-21 10 -34 32.5t-13 42.5zM95 491q0 56 47 79h60q47 -24 47 -79q0 -19 -13 -42t-34 -33h-60q-21 10 -34 32.5t-13 42.5z" />
<glyph unicode="&#xf8;" horiz-adv-x="476" d="M29 254q0 81 22.5 141t71.5 116h144l25 72h123l-34 -101q37 -51 51.5 -102.5t14.5 -125.5q0 -161 -100 -254h-135l-25 -77h-123l36 108q-71 89 -71 223zM164 258q0 -90 36 -153h76q36 70 36 153q0 95 -37 148h-75q-36 -51 -36 -148z" />
<glyph unicode="&#xf9;" horiz-adv-x="477" d="M39 252v259h133v-269q0 -91 36 -137h93v406h133v-511h-105l-18 36q-38 -36 -91 -36h-105q-44 56 -60 112t-16 140zM101 624l47 103l171 -100l-40 -81z" />
<glyph unicode="&#xfa;" horiz-adv-x="477" d="M39 252v259h133v-269q0 -91 36 -137h93v406h133v-511h-105l-18 36q-38 -36 -91 -36h-105q-44 56 -60 112t-16 140zM162 627l171 100l47 -103l-178 -78z" />
<glyph unicode="&#xfb;" horiz-adv-x="477" d="M39 252v259h133v-269q0 -91 36 -137h93v406h133v-511h-105l-18 36q-38 -36 -91 -36h-105q-44 56 -60 112t-16 140zM95 582l80 136h118l81 -136l-64 -33l-76 77l-76 -77z" />
<glyph unicode="&#xfc;" horiz-adv-x="477" d="M39 252v259h133v-269q0 -91 36 -137h93v406h133v-511h-105l-18 36q-38 -36 -91 -36h-105q-44 56 -60 112t-16 140zM82 565v135h132v-135h-132zM255 565v135h132v-135h-132z" />
<glyph unicode="&#xfd;" horiz-adv-x="473" d="M35 -45h108q21 6 35 21t29 43l6 11h-69q-48 39 -76 105.5t-28 145.5v230h133v-231q0 -87 35 -145h59q33 57 33 145v231h133v-223q0 -75 -19.5 -132t-63.5 -129l-67 -109q-18 -31 -38 -46t-52 -22h-158v105zM165 627l171 100l47 -103l-178 -78z" />
<glyph unicode="&#xfe;" horiz-adv-x="474" d="M43 -150v850h131v-215q32 26 91 26h90q90 -88 90 -249q0 -167 -100 -262h-85q-55 0 -86 28v-178h-131zM174 105h98q37 63 37 153t-38 148h-97v-301z" />
<glyph unicode="&#xff;" horiz-adv-x="473" d="M35 -45h108q21 6 35 21t29 43l6 11h-69q-48 39 -76 105.5t-28 145.5v230h133v-231q0 -87 35 -145h59q33 57 33 145v231h133v-223q0 -75 -19.5 -132t-63.5 -129l-67 -109q-18 -31 -38 -46t-52 -22h-158v105zM80 565v135h132v-135h-132zM253 565v135h132v-135h-132z" />
<glyph unicode="&#x152;" horiz-adv-x="755" d="M30 340q0 111 34 207t104 153h554v-120h-258q33 -73 44 -167h190v-116h-188q-8 -99 -50 -181h266v-116h-558q-72 66 -105 157t-33 183zM175 349q0 -73 17.5 -138.5t42.5 -94.5h72q25 29 42.5 94.5t17.5 138.5t-17 137.5t-42 93.5h-73q-25 -29 -42.5 -93.5t-17.5 -137.5z " />
<glyph unicode="&#x153;" horiz-adv-x="727" d="M29 254q0 81 22.5 141t71.5 116h219q18 -15 44 -53q17 27 52 53h150q67 -49 91 -104t24 -126q0 -41 -9 -81h-249q3 -23 17.5 -52.5t31.5 -42.5h189v-105h-248q-28 18 -51 51q-18 -29 -41 -51h-214q-100 93 -100 254zM164 258q0 -91 36 -154h76q36 70 36 154q0 95 -37 148 h-75q-36 -51 -36 -148zM438 294h143q2 30 -8 62.5t-26 49.5h-75q-15 -18 -24.5 -50t-9.5 -62z" />
<glyph unicode="&#x178;" horiz-adv-x="442" d="M0 700h136l62 -213l21 -123h4l21 123l62 213h136l-148 -467v-233h-146v233zM70 730v135h132v-135h-132zM243 730v135h132v-135h-132z" />
<glyph unicode="&#x2c6;" horiz-adv-x="500" d="M111 582l80 136h118l81 -136l-64 -33l-76 77l-76 -77z" />
<glyph unicode="&#x2dc;" horiz-adv-x="500" d="M119 559v100q64 27 86 27l97 -27q20 0 79 14v-102q-61 -15 -84 -14l-96 25q-21 0 -82 -23z" />
<glyph unicode="&#x2000;" horiz-adv-x="449" />
<glyph unicode="&#x2001;" horiz-adv-x="899" />
<glyph unicode="&#x2002;" horiz-adv-x="449" />
<glyph unicode="&#x2003;" horiz-adv-x="899" />
<glyph unicode="&#x2004;" horiz-adv-x="299" />
<glyph unicode="&#x2005;" horiz-adv-x="224" />
<glyph unicode="&#x2006;" horiz-adv-x="149" />
<glyph unicode="&#x2007;" horiz-adv-x="149" />
<glyph unicode="&#x2008;" horiz-adv-x="112" />
<glyph unicode="&#x2009;" horiz-adv-x="179" />
<glyph unicode="&#x200a;" horiz-adv-x="49" />
<glyph unicode="&#x2010;" horiz-adv-x="256" d="M25 231v114h206v-114h-206z" />
<glyph unicode="&#x2011;" horiz-adv-x="256" d="M25 231v114h206v-114h-206z" />
<glyph unicode="&#x2012;" horiz-adv-x="256" d="M25 231v114h206v-114h-206z" />
<glyph unicode="&#x2013;" horiz-adv-x="416" d="M0 231v114h416v-114h-416z" />
<glyph unicode="&#x2014;" horiz-adv-x="793" d="M0 231v114h793v-114h-793z" />
<glyph unicode="&#x2018;" horiz-adv-x="216" d="M40 487v35q0 82 12.5 122.5t66.5 115.5l57 -32q-45 -77 -52 -106h50v-135h-134z" />
<glyph unicode="&#x2019;" horiz-adv-x="216" d="M40 510q45 77 52 106h-50v135h134v-35q0 -82 -12.5 -122.5t-66.5 -115.5z" />
<glyph unicode="&#x201a;" horiz-adv-x="216" d="M40 -106q4 6 11 18.5t9.5 17l7.5 13.5t7 12.5t5.5 10.5t5 11.5t3 10.5t3.5 12h-50v135h134v-21q0 -92 -12.5 -134t-66.5 -118z" />
<glyph unicode="&#x201c;" horiz-adv-x="398" d="M40 487v35q0 82 12.5 122.5t66.5 115.5l57 -32q-45 -77 -52 -106h50v-135h-134zM222 487v35q0 82 12.5 122.5t66.5 115.5l57 -32q-45 -77 -52 -106h50v-135h-134z" />
<glyph unicode="&#x201d;" horiz-adv-x="398" d="M40 511q45 77 52 106h-50v135h134v-35q0 -82 -12.5 -122.5t-66.5 -115.5zM222 511q45 77 52 106h-50v135h134v-35q0 -82 -12.5 -122.5t-66.5 -115.5z" />
<glyph unicode="&#x201e;" horiz-adv-x="398" d="M40 -106q4 6 11 18.5t9.5 17l7.5 13.5t7 12.5t5.5 10.5t5 11.5t3 10.5t3.5 12h-50v135h134v-35q0 -82 -12.5 -122.5t-66.5 -115.5zM222 -106q45 77 52 106h-50v135h134v-35q0 -82 -12.5 -122.5t-66.5 -115.5z" />
<glyph unicode="&#x2022;" horiz-adv-x="263" d="M40 233v204h183v-204h-183z" />
<glyph unicode="&#x2026;" horiz-adv-x="688" d="M40 0v148h144v-148h-144zM272 0v148h144v-148h-144zM504 0v148h144v-148h-144z" />
<glyph unicode="&#x202f;" horiz-adv-x="179" />
<glyph unicode="&#x2039;" horiz-adv-x="280" d="M35 244l121 193l89 -49l-85 -144l95 -136l-89 -49z" />
<glyph unicode="&#x203a;" horiz-adv-x="280" d="M25 108l95 136l-85 144l89 49l121 -193l-131 -185z" />
<glyph unicode="&#x205f;" horiz-adv-x="224" />
<glyph unicode="&#x20ac;" horiz-adv-x="498" d="M22 265l12 65h360l-12 -65h-130q15 -97 58 -149h173v-116h-258q-71 66 -107 179q-11 33 -17 86h-79zM34 372l12 65h55q5 49 18 86q40 110 123 177h241v-120h-173q-41 -52 -57 -143h162l-12 -65h-369z" />
<glyph unicode="&#x2122;" horiz-adv-x="685" d="M5 599v101h277v-101h-82v-300h-113v300h-82zM294 299l27 401h109l38 -135l13 -82h4l12 82l44 135h104l27 -401h-106l-7 193h-5l-29 -134h-84l-29 134h-4l-8 -193h-106z" />
<glyph unicode="&#xe000;" horiz-adv-x="510" d="M0 0v510h510v-510h-510z" />
</font>
</defs>
</svg>
