<?xml version="1.0" standalone="no"?>
<!DOCTYPE svg PUBLIC "-//W3C//DTD SVG 1.1//EN" "http://www.w3.org/Graphics/SVG/1.1/DTD/svg11.dtd" >
<svg xmlns="http://www.w3.org/2000/svg">
<metadata></metadata>
<defs>
<font id="raleway_dots_regular" horiz-adv-x="764" >
<font-face units-per-em="1000" ascent="800" descent="-200" />
<missing-glyph horiz-adv-x="265" />
<glyph unicode="&#xfb01;" horiz-adv-x="469" d="M122 180q-10 0 -10 10t10 10t10 -10t-10 -10zM122 144q-10 0 -10 10t10 10t10 -10t-10 -10zM122 107q-10 0 -10 10t10 10t10 -10t-10 -10zM122 71q-10 0 -10 10t10 10t10 -10t-10 -10zM122 0q-10 0 -10 10t10 10t10 -10t-10 -10zM122 494q-10 0 -10 10t10 10t10 -10 t-10 -10zM122 452q-10 0 -10 10t10 10t10 -10t-10 -10zM122 414q-10 0 -10 10t10 10t10 -10t-10 -10zM122 334q-10 0 -10 10t10 10t10 -10t-10 -10zM122 297q-10 0 -10 10t10 10t10 -10t-10 -10zM122 257q-10 0 -10 10t10 10t10 -10t-10 -10zM122 219q-10 0 -10 10t10 10 t10 -10t-10 -10zM135 609q-10 0 -10 10t10 10t10 -10t-10 -10zM124 572q-10 0 -10 10t10 10t10 -10t-10 -10zM122 534q-10 0 -10 10t10 10t10 -10t-10 -10zM122 374q-10 0 -10 10t10 10t10 -10t-10 -10zM85 434q-10 0 -10 10t10 10t10 -10t-10 -10zM156 434q-10 0 -10 10 t10 10t10 -10t-10 -10zM122 36q-10 0 -10 10t10 10t10 -10t-10 -10zM152 646q-10 0 -10 10t10 10t10 -10t-10 -10zM176 676q-10 0 -10 10t10 10t10 -10t-10 -10zM207 699q-10 0 -10 10t10 10t10 -10t-10 -10zM243 712q-10 0 -10 10t10 10t10 -10t-10 -10zM280 716 q-10 0 -10 10t10 10t10 -10t-10 -10zM316 711q-10 0 -10 10t10 10t10 -10t-10 -10zM350 701q-10 0 -10 10t10 10t10 -10t-10 -10zM49 434q-10 0 -10 10t10 10t10 -10t-10 -10zM192 434q-10 0 -10 10t10 10t10 -10t-10 -10zM228 434q-10 0 -10 10t10 10t10 -10t-10 -10z M264 434q-10 0 -10 10t10 10t10 -10t-10 -10zM300 434q-10 0 -10 10t10 10t10 -10t-10 -10zM336 434q-10 0 -10 10t10 10t10 -10t-10 -10zM372 434q-10 0 -10 10t10 10t10 -10t-10 -10zM372 398q-10 0 -10 10t10 10t10 -10t-10 -10zM372 362q-10 0 -10 10t10 10t10 -10 t-10 -10zM372 326q-10 0 -10 10t10 10t10 -10t-10 -10zM372 290q-10 0 -10 10t10 10t10 -10t-10 -10zM372 254q-10 0 -10 10t10 10t10 -10t-10 -10zM372 218q-10 0 -10 10t10 10t10 -10t-10 -10zM372 182q-10 0 -10 10t10 10t10 -10t-10 -10zM372 146q-10 0 -10 10t10 10 t10 -10t-10 -10zM372 110q-10 0 -10 10t10 10t10 -10t-10 -10zM372 74q-10 0 -10 10t10 10t10 -10t-10 -10zM372 38q-10 0 -10 10t10 10t10 -10t-10 -10zM372 2q-10 0 -10 10t10 10t10 -10t-10 -10zM380 684q-10 0 -10 10t10 10t10 -10t-10 -10z" />
<glyph unicode="&#xfb02;" horiz-adv-x="539" d="M122 180q-10 0 -10 10t10 10t10 -10t-10 -10zM122 144q-10 0 -10 10t10 10t10 -10t-10 -10zM122 107q-10 0 -10 10t10 10t10 -10t-10 -10zM122 71q-10 0 -10 10t10 10t10 -10t-10 -10zM122 0q-10 0 -10 10t10 10t10 -10t-10 -10zM122 494q-10 0 -10 10t10 10t10 -10 t-10 -10zM122 452q-10 0 -10 10t10 10t10 -10t-10 -10zM122 414q-10 0 -10 10t10 10t10 -10t-10 -10zM122 334q-10 0 -10 10t10 10t10 -10t-10 -10zM122 297q-10 0 -10 10t10 10t10 -10t-10 -10zM122 257q-10 0 -10 10t10 10t10 -10t-10 -10zM122 219q-10 0 -10 10t10 10 t10 -10t-10 -10zM132 608q-10 0 -10 10t10 10t10 -10t-10 -10zM124 572q-10 0 -10 10t10 10t10 -10t-10 -10zM122 534q-10 0 -10 10t10 10t10 -10t-10 -10zM122 374q-10 0 -10 10t10 10t10 -10t-10 -10zM85 434q-10 0 -10 10t10 10t10 -10t-10 -10zM156 434q-10 0 -10 10 t10 10t10 -10t-10 -10zM122 36q-10 0 -10 10t10 10t10 -10t-10 -10zM147 643q-10 0 -10 10t10 10t10 -10t-10 -10zM168 674q-10 0 -10 10t10 10t10 -10t-10 -10zM198 698q-10 0 -10 10t10 10t10 -10t-10 -10zM233 712q-10 0 -10 10t10 10t10 -10t-10 -10zM271 717 q-10 0 -10 10t10 10t10 -10t-10 -10zM310 710q-10 0 -10 10t10 10t10 -10t-10 -10zM346 695q-10 0 -10 10t10 10t10 -10t-10 -10zM49 434q-10 0 -10 10t10 10t10 -10t-10 -10zM192 434q-10 0 -10 10t10 10t10 -10t-10 -10zM228 434q-10 0 -10 10t10 10t10 -10t-10 -10z M264 434q-10 0 -10 10t10 10t10 -10t-10 -10zM401 434q-10 0 -10 10t10 10t10 -10t-10 -10zM401 398q-10 0 -10 10t10 10t10 -10t-10 -10zM401 362q-10 0 -10 10t10 10t10 -10t-10 -10zM401 326q-10 0 -10 10t10 10t10 -10t-10 -10zM401 290q-10 0 -10 10t10 10t10 -10 t-10 -10zM401 254q-10 0 -10 10t10 10t10 -10t-10 -10zM401 218q-10 0 -10 10t10 10t10 -10t-10 -10zM401 182q-10 0 -10 10t10 10t10 -10t-10 -10zM401 146q-10 0 -10 10t10 10t10 -10t-10 -10zM401 110q-10 0 -10 10t10 10t10 -10t-10 -10zM401 74q-10 0 -10 10t10 10 t10 -10t-10 -10zM411 38q-10 0 -10 10t10 10t10 -10t-10 -10zM436 10q-10 0 -10 10t10 10t10 -10t-10 -10zM370 674q-10 0 -10 10t10 10t10 -10t-10 -10zM472 -1q-10 0 -10 10t10 10t10 -10t-10 -10zM509 3q-10 0 -10 10t10 10t10 -10t-10 -10zM544 11q-10 0 -10 10t10 10 t10 -10t-10 -10zM401 470q-10 0 -10 10t10 10t10 -10t-10 -10zM401 506q-10 0 -10 10t10 10t10 -10t-10 -10zM401 542q-10 0 -10 10t10 10t10 -10t-10 -10zM401 578q-10 0 -10 10t10 10t10 -10t-10 -10zM401 614q-10 0 -10 10t10 10t10 -10t-10 -10zM391 649q-10 0 -10 10 t10 10t10 -10t-10 -10z" />
<glyph unicode="&#xfb03;" horiz-adv-x="683" d="M337 180q-10 0 -10 10t10 10t10 -10t-10 -10zM337 144q-10 0 -10 10t10 10t10 -10t-10 -10zM337 107q-10 0 -10 10t10 10t10 -10t-10 -10zM337 71q-10 0 -10 10t10 10t10 -10t-10 -10zM337 0q-10 0 -10 10t10 10t10 -10t-10 -10zM337 494q-10 0 -10 10t10 10t10 -10 t-10 -10zM337 452q-10 0 -10 10t10 10t10 -10t-10 -10zM337 414q-10 0 -10 10t10 10t10 -10t-10 -10zM337 334q-10 0 -10 10t10 10t10 -10t-10 -10zM337 297q-10 0 -10 10t10 10t10 -10t-10 -10zM337 257q-10 0 -10 10t10 10t10 -10t-10 -10zM337 219q-10 0 -10 10t10 10 t10 -10t-10 -10zM348 609q-10 0 -10 10t10 10t10 -10t-10 -10zM339 572q-10 0 -10 10t10 10t10 -10t-10 -10zM337 534q-10 0 -10 10t10 10t10 -10t-10 -10zM337 374q-10 0 -10 10t10 10t10 -10t-10 -10zM300 434q-10 0 -10 10t10 10t10 -10t-10 -10zM371 434q-10 0 -10 10 t10 10t10 -10t-10 -10zM337 36q-10 0 -10 10t10 10t10 -10t-10 -10zM363 646q-10 0 -10 10t10 10t10 -10t-10 -10zM387 676q-10 0 -10 10t10 10t10 -10t-10 -10zM416 699q-10 0 -10 10t10 10t10 -10t-10 -10zM451 712q-10 0 -10 10t10 10t10 -10t-10 -10zM487 717 q-10 0 -10 10t10 10t10 -10t-10 -10zM522 710q-10 0 -10 10t10 10t10 -10t-10 -10zM553 696q-10 0 -10 10t10 10t10 -10t-10 -10zM122 180q-10 0 -10 10t10 10t10 -10t-10 -10zM122 144q-10 0 -10 10t10 10t10 -10t-10 -10zM122 107q-10 0 -10 10t10 10t10 -10t-10 -10z M122 71q-10 0 -10 10t10 10t10 -10t-10 -10zM122 0q-10 0 -10 10t10 10t10 -10t-10 -10zM122 494q-10 0 -10 10t10 10t10 -10t-10 -10zM122 452q-10 0 -10 10t10 10t10 -10t-10 -10zM122 414q-10 0 -10 10t10 10t10 -10t-10 -10zM122 334q-10 0 -10 10t10 10t10 -10t-10 -10 zM122 297q-10 0 -10 10t10 10t10 -10t-10 -10zM122 257q-10 0 -10 10t10 10t10 -10t-10 -10zM122 219q-10 0 -10 10t10 10t10 -10t-10 -10zM122 374q-10 0 -10 10t10 10t10 -10t-10 -10zM88 434q-10 0 -10 10t10 10t10 -10t-10 -10zM51 434q-10 0 -10 10t10 10t10 -10 t-10 -10zM122 36q-10 0 -10 10t10 10t10 -10t-10 -10zM264 434q-10 0 -10 10t10 10t10 -10t-10 -10zM228 434q-10 0 -10 10t10 10t10 -10t-10 -10zM192 434q-10 0 -10 10t10 10t10 -10t-10 -10zM156 434q-10 0 -10 10t10 10t10 -10t-10 -10zM407 434q-10 0 -10 10t10 10 t10 -10t-10 -10zM443 434q-10 0 -10 10t10 10t10 -10t-10 -10zM479 434q-10 0 -10 10t10 10t10 -10t-10 -10zM515 434q-10 0 -10 10t10 10t10 -10t-10 -10zM148 609q-10 0 -10 10t10 10t10 -10t-10 -10zM133 572q-10 0 -10 10t10 10t10 -10t-10 -10zM124 534q-10 0 -10 10 t10 10t10 -10t-10 -10zM170 640q-10 0 -10 10t10 10t10 -10t-10 -10zM198 662q-10 0 -10 10t10 10t10 -10t-10 -10zM231 672q-10 0 -10 10t10 10t10 -10t-10 -10zM267 674q-10 0 -10 10t10 10t10 -10t-10 -10zM302 669q-10 0 -10 10t10 10t10 -10t-10 -10zM333 659 q-10 0 -10 10t10 10t10 -10t-10 -10zM551 434q-10 0 -10 10t10 10t10 -10t-10 -10zM587 434q-10 0 -10 10t10 10t10 -10t-10 -10zM587 398q-10 0 -10 10t10 10t10 -10t-10 -10zM587 362q-10 0 -10 10t10 10t10 -10t-10 -10zM587 326q-10 0 -10 10t10 10t10 -10t-10 -10z M587 290q-10 0 -10 10t10 10t10 -10t-10 -10zM587 254q-10 0 -10 10t10 10t10 -10t-10 -10zM587 218q-10 0 -10 10t10 10t10 -10t-10 -10zM587 182q-10 0 -10 10t10 10t10 -10t-10 -10zM587 146q-10 0 -10 10t10 10t10 -10t-10 -10zM587 110q-10 0 -10 10t10 10t10 -10 t-10 -10zM587 74q-10 0 -10 10t10 10t10 -10t-10 -10zM587 38q-10 0 -10 10t10 10t10 -10t-10 -10zM587 2q-10 0 -10 10t10 10t10 -10t-10 -10z" />
<glyph unicode="&#xfb04;" horiz-adv-x="757" d="M342 180q-10 0 -10 10t10 10t10 -10t-10 -10zM342 144q-10 0 -10 10t10 10t10 -10t-10 -10zM342 107q-10 0 -10 10t10 10t10 -10t-10 -10zM342 71q-10 0 -10 10t10 10t10 -10t-10 -10zM342 0q-10 0 -10 10t10 10t10 -10t-10 -10zM342 494q-10 0 -10 10t10 10t10 -10 t-10 -10zM342 452q-10 0 -10 10t10 10t10 -10t-10 -10zM342 414q-10 0 -10 10t10 10t10 -10t-10 -10zM342 334q-10 0 -10 10t10 10t10 -10t-10 -10zM342 297q-10 0 -10 10t10 10t10 -10t-10 -10zM342 257q-10 0 -10 10t10 10t10 -10t-10 -10zM342 219q-10 0 -10 10t10 10 t10 -10t-10 -10zM352 608q-10 0 -10 10t10 10t10 -10t-10 -10zM344 572q-10 0 -10 10t10 10t10 -10t-10 -10zM342 534q-10 0 -10 10t10 10t10 -10t-10 -10zM342 374q-10 0 -10 10t10 10t10 -10t-10 -10zM305 434q-10 0 -10 10t10 10t10 -10t-10 -10zM376 434q-10 0 -10 10 t10 10t10 -10t-10 -10zM342 36q-10 0 -10 10t10 10t10 -10t-10 -10zM367 643q-10 0 -10 10t10 10t10 -10t-10 -10zM388 674q-10 0 -10 10t10 10t10 -10t-10 -10zM418 698q-10 0 -10 10t10 10t10 -10t-10 -10zM453 712q-10 0 -10 10t10 10t10 -10t-10 -10zM491 717 q-10 0 -10 10t10 10t10 -10t-10 -10zM530 710q-10 0 -10 10t10 10t10 -10t-10 -10zM566 695q-10 0 -10 10t10 10t10 -10t-10 -10zM269 434q-10 0 -10 10t10 10t10 -10t-10 -10zM412 434q-10 0 -10 10t10 10t10 -10t-10 -10zM448 434q-10 0 -10 10t10 10t10 -10t-10 -10z M484 434q-10 0 -10 10t10 10t10 -10t-10 -10zM621 434q-10 0 -10 10t10 10t10 -10t-10 -10zM621 398q-10 0 -10 10t10 10t10 -10t-10 -10zM621 362q-10 0 -10 10t10 10t10 -10t-10 -10zM621 326q-10 0 -10 10t10 10t10 -10t-10 -10zM621 290q-10 0 -10 10t10 10t10 -10 t-10 -10zM621 254q-10 0 -10 10t10 10t10 -10t-10 -10zM621 218q-10 0 -10 10t10 10t10 -10t-10 -10zM621 182q-10 0 -10 10t10 10t10 -10t-10 -10zM621 146q-10 0 -10 10t10 10t10 -10t-10 -10zM621 110q-10 0 -10 10t10 10t10 -10t-10 -10zM621 74q-10 0 -10 10t10 10 t10 -10t-10 -10zM631 38q-10 0 -10 10t10 10t10 -10t-10 -10zM656 10q-10 0 -10 10t10 10t10 -10t-10 -10zM590 674q-10 0 -10 10t10 10t10 -10t-10 -10zM692 -1q-10 0 -10 10t10 10t10 -10t-10 -10zM729 3q-10 0 -10 10t10 10t10 -10t-10 -10zM764 11q-10 0 -10 10t10 10 t10 -10t-10 -10zM621 470q-10 0 -10 10t10 10t10 -10t-10 -10zM621 506q-10 0 -10 10t10 10t10 -10t-10 -10zM621 542q-10 0 -10 10t10 10t10 -10t-10 -10zM621 578q-10 0 -10 10t10 10t10 -10t-10 -10zM621 614q-10 0 -10 10t10 10t10 -10t-10 -10zM611 649q-10 0 -10 10 t10 10t10 -10t-10 -10zM122 180q-10 0 -10 10t10 10t10 -10t-10 -10zM122 144q-10 0 -10 10t10 10t10 -10t-10 -10zM122 107q-10 0 -10 10t10 10t10 -10t-10 -10zM122 71q-10 0 -10 10t10 10t10 -10t-10 -10zM122 0q-10 0 -10 10t10 10t10 -10t-10 -10zM122 494 q-10 0 -10 10t10 10t10 -10t-10 -10zM122 452q-10 0 -10 10t10 10t10 -10t-10 -10zM122 414q-10 0 -10 10t10 10t10 -10t-10 -10zM122 334q-10 0 -10 10t10 10t10 -10t-10 -10zM122 297q-10 0 -10 10t10 10t10 -10t-10 -10zM122 257q-10 0 -10 10t10 10t10 -10t-10 -10z M122 219q-10 0 -10 10t10 10t10 -10t-10 -10zM122 374q-10 0 -10 10t10 10t10 -10t-10 -10zM88 434q-10 0 -10 10t10 10t10 -10t-10 -10zM51 434q-10 0 -10 10t10 10t10 -10t-10 -10zM122 36q-10 0 -10 10t10 10t10 -10t-10 -10zM231 434q-10 0 -10 10t10 10t10 -10t-10 -10 zM193 434q-10 0 -10 10t10 10t10 -10t-10 -10zM156 434q-10 0 -10 10t10 10t10 -10t-10 -10zM148 609q-10 0 -10 10t10 10t10 -10t-10 -10zM133 572q-10 0 -10 10t10 10t10 -10t-10 -10zM124 534q-10 0 -10 10t10 10t10 -10t-10 -10zM170 640q-10 0 -10 10t10 10t10 -10 t-10 -10zM198 662q-10 0 -10 10t10 10t10 -10t-10 -10zM231 672q-10 0 -10 10t10 10t10 -10t-10 -10zM267 674q-10 0 -10 10t10 10t10 -10t-10 -10zM302 669q-10 0 -10 10t10 10t10 -10t-10 -10zM333 659q-10 0 -10 10t10 10t10 -10t-10 -10z" />
<glyph horiz-adv-x="1000" />
<glyph horiz-adv-x="1000" />
<glyph unicode="&#xd;" horiz-adv-x="0" />
<glyph unicode=" "  horiz-adv-x="265" />
<glyph unicode="&#x09;" horiz-adv-x="265" />
<glyph unicode="&#xa0;" horiz-adv-x="265" />
<glyph unicode="!" horiz-adv-x="171" d="M110 218q-10 0 -10 10t10 10t10 -10t-10 -10zM110 254q-10 0 -10 10t10 10t10 -10t-10 -10zM110 290q-10 0 -10 10t10 10t10 -10t-10 -10zM110 326q-10 0 -10 10t10 10t10 -10t-10 -10zM110 362q-10 0 -10 10t10 10t10 -10t-10 -10zM110 398q-10 0 -10 10t10 10t10 -10 t-10 -10zM110 434q-10 0 -10 10t10 10t10 -10t-10 -10zM110 470q-10 0 -10 10t10 10t10 -10t-10 -10zM110 506q-10 0 -10 10t10 10t10 -10t-10 -10zM110 542q-10 0 -10 10t10 10t10 -10t-10 -10zM110 578q-10 0 -10 10t10 10t10 -10t-10 -10zM110 614q-10 0 -10 10t10 10 t10 -10t-10 -10zM110 650q-10 0 -10 10t10 10t10 -10t-10 -10zM110 686q-10 0 -10 10t10 10t10 -10t-10 -10zM110 -1q-10 0 -10 10t10 10t10 -10t-10 -10zM110 32q-10 0 -10 10t10 10t10 -10t-10 -10zM110 65q-10 0 -10 10t10 10t10 -10t-10 -10z" />
<glyph unicode="&#x22;" horiz-adv-x="225" d="M80 620q-10 0 -10 10t10 10t10 -10t-10 -10zM80 653q-10 0 -10 10t10 10t10 -10t-10 -10zM80 686q-10 0 -10 10t10 10t10 -10t-10 -10zM144 620q-10 0 -10 10t10 10t10 -10t-10 -10zM144 653q-10 0 -10 10t10 10t10 -10t-10 -10zM144 686q-10 0 -10 10t10 10t10 -10 t-10 -10z" />
<glyph unicode="#" horiz-adv-x="663" d="M290 706q-10 0 -10 10t10 10t10 -10t-10 -10zM282 672q-10 0 -10 10t10 10t10 -10t-10 -10zM274 637q-10 0 -10 10t10 10t10 -10t-10 -10zM266 602q-10 0 -10 10t10 10t10 -10t-10 -10zM257 567q-10 0 -10 10t10 10t10 -10t-10 -10zM249 532q-10 0 -10 10t10 10t10 -10 t-10 -10zM203 497q-10 0 -10 10t10 10t10 -10t-10 -10zM231 462q-10 0 -10 10t10 10t10 -10t-10 -10zM222 426q-10 0 -10 10t10 10t10 -10t-10 -10zM214 391q-10 0 -10 10t10 10t10 -10t-10 -10zM205 356q-10 0 -10 10t10 10t10 -10t-10 -10zM197 321q-10 0 -10 10t10 10 t10 -10t-10 -10zM189 286q-10 0 -10 10t10 10t10 -10t-10 -10zM181 251q-10 0 -10 10t10 10t10 -10t-10 -10zM172 216q-10 0 -10 10t10 10t10 -10t-10 -10zM163 181q-10 0 -10 10t10 10t10 -10t-10 -10zM154 144q-10 0 -10 10t10 10t10 -10t-10 -10zM145 109q-10 0 -10 10 t10 10t10 -10t-10 -10zM136 74q-10 0 -10 10t10 10t10 -10t-10 -10zM128 39q-10 0 -10 10t10 10t10 -10t-10 -10zM120 4q-10 0 -10 10t10 10t10 -10t-10 -10zM545 706q-10 0 -10 10t10 10t10 -10t-10 -10zM537 672q-10 0 -10 10t10 10t10 -10t-10 -10zM529 637q-10 0 -10 10 t10 10t10 -10t-10 -10zM521 602q-10 0 -10 10t10 10t10 -10t-10 -10zM512 567q-10 0 -10 10t10 10t10 -10t-10 -10zM504 532q-10 0 -10 10t10 10t10 -10t-10 -10zM458 497q-10 0 -10 10t10 10t10 -10t-10 -10zM486 462q-10 0 -10 10t10 10t10 -10t-10 -10zM477 426 q-10 0 -10 10t10 10t10 -10t-10 -10zM469 391q-10 0 -10 10t10 10t10 -10t-10 -10zM460 356q-10 0 -10 10t10 10t10 -10t-10 -10zM452 321q-10 0 -10 10t10 10t10 -10t-10 -10zM444 286q-10 0 -10 10t10 10t10 -10t-10 -10zM436 251q-10 0 -10 10t10 10t10 -10t-10 -10z M427 216q-10 0 -10 10t10 10t10 -10t-10 -10zM418 181q-10 0 -10 10t10 10t10 -10t-10 -10zM409 144q-10 0 -10 10t10 10t10 -10t-10 -10zM400 109q-10 0 -10 10t10 10t10 -10t-10 -10zM391 74q-10 0 -10 10t10 10t10 -10t-10 -10zM383 39q-10 0 -10 10t10 10t10 -10 t-10 -10zM375 4q-10 0 -10 10t10 10t10 -10t-10 -10zM61 216q-10 0 -10 10t10 10t10 -10t-10 -10zM98 216q-10 0 -10 10t10 10t10 -10t-10 -10zM135 216q-10 0 -10 10t10 10t10 -10t-10 -10zM209 216q-10 0 -10 10t10 10t10 -10t-10 -10zM246 216q-10 0 -10 10t10 10t10 -10 t-10 -10zM281 216q-10 0 -10 10t10 10t10 -10t-10 -10zM318 216q-10 0 -10 10t10 10t10 -10t-10 -10zM355 216q-10 0 -10 10t10 10t10 -10t-10 -10zM390 216q-10 0 -10 10t10 10t10 -10t-10 -10zM464 216q-10 0 -10 10t10 10t10 -10t-10 -10zM501 216q-10 0 -10 10t10 10 t10 -10t-10 -10zM538 216q-10 0 -10 10t10 10t10 -10t-10 -10zM575 216q-10 0 -10 10t10 10t10 -10t-10 -10zM203 497q-10 0 -10 10t10 10t10 -10t-10 -10zM92 497q-10 0 -10 10t10 10t10 -10t-10 -10zM129 497q-10 0 -10 10t10 10t10 -10t-10 -10zM166 497q-10 0 -10 10 t10 10t10 -10t-10 -10zM240 497q-10 0 -10 10t10 10t10 -10t-10 -10zM277 497q-10 0 -10 10t10 10t10 -10t-10 -10zM312 497q-10 0 -10 10t10 10t10 -10t-10 -10zM349 497q-10 0 -10 10t10 10t10 -10t-10 -10zM386 497q-10 0 -10 10t10 10t10 -10t-10 -10zM421 497 q-10 0 -10 10t10 10t10 -10t-10 -10zM495 497q-10 0 -10 10t10 10t10 -10t-10 -10zM532 497q-10 0 -10 10t10 10t10 -10t-10 -10zM569 497q-10 0 -10 10t10 10t10 -10t-10 -10zM606 497q-10 0 -10 10t10 10t10 -10t-10 -10z" />
<glyph unicode="$" horiz-adv-x="608" d="M326 657q-10 0 -10 10t10 10t10 -10t-10 -10zM326 622q-10 0 -10 10t10 10t10 -10t-10 -10zM326 587q-10 0 -10 10t10 10t10 -10t-10 -10zM326 552q-10 0 -10 10t10 10t10 -10t-10 -10zM326 517q-10 0 -10 10t10 10t10 -10t-10 -10zM326 482q-10 0 -10 10t10 10t10 -10 t-10 -10zM326 447q-10 0 -10 10t10 10t10 -10t-10 -10zM326 411q-10 0 -10 10t10 10t10 -10t-10 -10zM326 376q-10 0 -10 10t10 10t10 -10t-10 -10zM326 313q-10 0 -10 10t10 10t10 -10t-10 -10zM326 276q-10 0 -10 10t10 10t10 -10t-10 -10zM326 241q-10 0 -10 10t10 10 t10 -10t-10 -10zM326 206q-10 0 -10 10t10 10t10 -10t-10 -10zM326 171q-10 0 -10 10t10 10t10 -10t-10 -10zM326 134q-10 0 -10 10t10 10t10 -10t-10 -10zM326 99q-10 0 -10 10t10 10t10 -10t-10 -10zM326 64q-10 0 -10 10t10 10t10 -10t-10 -10zM326 29q-10 0 -10 10 t10 10t10 -10t-10 -10zM326 724q-10 0 -10 10t10 10t10 -10t-10 -10zM326 757q-10 0 -10 10t10 10t10 -10t-10 -10zM326 -38q-10 0 -10 10t10 10t10 -10t-10 -10zM326 -71q-10 0 -10 10t10 10t10 -10t-10 -10zM326 -104q-10 0 -10 10t10 10t10 -10t-10 -10zM326 790 q-10 0 -10 10t10 10t10 -10t-10 -10zM510 636q10 0 10 -10t-10 -10t-10 10t10 10zM479 663q10 0 10 -10t-10 -10t-10 10t10 10zM442 684q10 0 10 -10t-10 -10t-10 10t10 10zM404 698q10 0 10 -10t-10 -10t-10 10t10 10zM365 708q10 0 10 -10t-10 -10t-10 10t10 10zM325 712 q10 0 10 -10t-10 -10t-10 10t10 10zM285 711q10 0 10 -10t-10 -10t-10 10t10 10zM245 706q10 0 10 -10t-10 -10t-10 10t10 10zM203 697q10 0 10 -10t-10 -10t-10 10t10 10zM164 680q10 0 10 -10t-10 -10t-10 10t10 10zM78 506q10 0 10 -10t-10 -10t-10 10t10 10zM76 549 q10 0 10 -10t-10 -10t-10 10t10 10zM85 588q10 0 10 -10t-10 -10t-10 10t10 10zM103 625q10 0 10 -10t-10 -10t-10 10t10 10zM130 656q10 0 10 -10t-10 -10t-10 10t10 10zM91 467q10 0 10 -10t-10 -10t-10 10t10 10zM117 434q10 0 10 -10t-10 -10t-10 10t10 10zM151 410 q10 0 10 -10t-10 -10t-10 10t10 10zM188 395q10 0 10 -10t-10 -10t-10 10t10 10zM229 384q10 0 10 -10t-10 -10t-10 10t10 10zM268 375q10 0 10 -10t-10 -10t-10 10t10 10zM307 366q10 0 10 -10t-10 -10t-10 10t10 10zM346 357q10 0 10 -10t-10 -10t-10 10t10 10zM388 347 q10 0 10 -10t-10 -10t-10 10t10 10zM429 334q10 0 10 -10t-10 -10t-10 10t10 10zM468 317q10 0 10 -10t-10 -10t-10 10t10 10zM502 294q10 0 10 -10t-10 -10t-10 10t10 10zM529 264q10 0 10 -10t-10 -10t-10 10t10 10zM545 227q10 0 10 -10t-10 -10t-10 10t10 10zM550 188 q10 0 10 -10t-10 -10t-10 10t10 10zM546 149q10 0 10 -10t-10 -10t-10 10t10 10zM534 112q10 0 10 -10t-10 -10t-10 10t10 10zM513 80q10 0 10 -10t-10 -10t-10 10t10 10zM484 54q10 0 10 -10t-10 -10t-10 10t10 10zM448 38q10 0 10 -10t-10 -10t-10 10t10 10zM410 23 q10 0 10 -10t-10 -10t-10 10t10 10zM367 16q10 0 10 -10t-10 -10t-10 10t10 10zM326 14q10 0 10 -10t-10 -10t-10 10t10 10zM290 14q10 0 10 -10t-10 -10t-10 10t10 10zM251 18q10 0 10 -10t-10 -10t-10 10t10 10zM213 27q10 0 10 -10t-10 -10t-10 10t10 10zM177 38 q10 0 10 -10t-10 -10t-10 10t10 10zM142 52q10 0 10 -10t-10 -10t-10 10t10 10zM109 70q10 0 10 -10t-10 -10t-10 10t10 10zM77 92q10 0 10 -10t-10 -10t-10 10t10 10zM53 119q10 0 10 -10t-10 -10t-10 10t10 10z" />
<glyph unicode="%" horiz-adv-x="689" d="M189 697q-10 0 -10 10t10 10t10 -10t-10 -10zM63 568q-10 0 -10 10t10 10t10 -10t-10 -10zM69 606q-10 0 -10 10t10 10t10 -10t-10 -10zM85 642q-10 0 -10 10t10 10t10 -10t-10 -10zM111 670q-10 0 -10 10t10 10t10 -10t-10 -10zM147 689q-10 0 -10 10t10 10t10 -10 t-10 -10zM315 568q-10 0 -10 10t10 10t10 -10t-10 -10zM309 606q-10 0 -10 10t10 10t10 -10t-10 -10zM293 642q-10 0 -10 10t10 10t10 -10t-10 -10zM267 670q-10 0 -10 10t10 10t10 -10t-10 -10zM231 689q-10 0 -10 10t10 10t10 -10t-10 -10zM189 459q10 0 10 -10t-10 -10 t-10 10t10 10zM69 550q10 0 10 -10t-10 -10t-10 10t10 10zM85 514q10 0 10 -10t-10 -10t-10 10t10 10zM111 486q10 0 10 -10t-10 -10t-10 10t10 10zM147 467q10 0 10 -10t-10 -10t-10 10t10 10zM309 550q10 0 10 -10t-10 -10t-10 10t10 10zM293 514q10 0 10 -10t-10 -10 t-10 10t10 10zM267 486q10 0 10 -10t-10 -10t-10 10t10 10zM231 467q10 0 10 -10t-10 -10t-10 10t10 10zM500 248q-10 0 -10 10t10 10t10 -10t-10 -10zM374 119q-10 0 -10 10t10 10t10 -10t-10 -10zM380 157q-10 0 -10 10t10 10t10 -10t-10 -10zM396 193q-10 0 -10 10t10 10 t10 -10t-10 -10zM422 221q-10 0 -10 10t10 10t10 -10t-10 -10zM458 240q-10 0 -10 10t10 10t10 -10t-10 -10zM626 119q-10 0 -10 10t10 10t10 -10t-10 -10zM620 157q-10 0 -10 10t10 10t10 -10t-10 -10zM604 193q-10 0 -10 10t10 10t10 -10t-10 -10zM578 221q-10 0 -10 10 t10 10t10 -10t-10 -10zM542 240q-10 0 -10 10t10 10t10 -10t-10 -10zM500 10q10 0 10 -10t-10 -10t-10 10t10 10zM380 101q10 0 10 -10t-10 -10t-10 10t10 10zM396 65q10 0 10 -10t-10 -10t-10 10t10 10zM422 37q10 0 10 -10t-10 -10t-10 10t10 10zM458 18q10 0 10 -10 t-10 -10t-10 10t10 10zM620 101q10 0 10 -10t-10 -10t-10 10t10 10zM604 65q10 0 10 -10t-10 -10t-10 10t10 10zM578 37q10 0 10 -10t-10 -10t-10 10t10 10zM542 18q10 0 10 -10t-10 -10t-10 10t10 10zM68 0q-10 0 -10 10t10 10t10 -10t-10 -10zM319 313q-10 0 -10 10t10 10 t10 -10t-10 -10zM361 365q-10 0 -10 10t10 10t10 -10t-10 -10zM340 340q-10 0 -10 10t10 10t10 -10t-10 -10zM252 229q-10 0 -10 10t10 10t10 -10t-10 -10zM296 285q-10 0 -10 10t10 10t10 -10t-10 -10zM274 257q-10 0 -10 10t10 10t10 -10t-10 -10zM206 172q-10 0 -10 10 t10 10t10 -10t-10 -10zM229 200q-10 0 -10 10t10 10t10 -10t-10 -10zM137 85q-10 0 -10 10t10 10t10 -10t-10 -10zM183 143q-10 0 -10 10t10 10t10 -10t-10 -10zM160 114q-10 0 -10 10t10 10t10 -10t-10 -10zM92 29q-10 0 -10 10t10 10t10 -10t-10 -10zM114 57q-10 0 -10 10 t10 10t10 -10t-10 -10zM609 676q-10 0 -10 10t10 10t10 -10t-10 -10zM541 592q-10 0 -10 10t10 10t10 -10t-10 -10zM586 648q-10 0 -10 10t10 10t10 -10t-10 -10zM564 620q-10 0 -10 10t10 10t10 -10t-10 -10zM496 535q-10 0 -10 10t10 10t10 -10t-10 -10zM519 563 q-10 0 -10 10t10 10t10 -10t-10 -10zM428 449q-10 0 -10 10t10 10t10 -10t-10 -10zM473 507q-10 0 -10 10t10 10t10 -10t-10 -10zM450 478q-10 0 -10 10t10 10t10 -10t-10 -10zM383 393q-10 0 -10 10t10 10t10 -10t-10 -10zM405 421q-10 0 -10 10t10 10t10 -10t-10 -10z" />
<glyph unicode="&#x26;" horiz-adv-x="649" d="M605 -2q-10 0 -10 10t10 10t10 -10t-10 -10zM578 26q-10 0 -10 10t10 10t10 -10t-10 -10zM551 55q-10 0 -10 10t10 10t10 -10t-10 -10zM523 83q-10 0 -10 10t10 10t10 -10t-10 -10zM495 113q-10 0 -10 10t10 10t10 -10t-10 -10zM467 143q-10 0 -10 10t10 10t10 -10 t-10 -10zM440 171q-10 0 -10 10t10 10t10 -10t-10 -10zM412 200q-10 0 -10 10t10 10t10 -10t-10 -10zM382 230q-10 0 -10 10t10 10t10 -10t-10 -10zM353 261q-10 0 -10 10t10 10t10 -10t-10 -10zM324 291q-10 0 -10 10t10 10t10 -10t-10 -10zM295 322q-10 0 -10 10t10 10 t10 -10t-10 -10zM265 353q-10 0 -10 10t10 10t10 -10t-10 -10zM235 383q-10 0 -10 10t10 10t10 -10t-10 -10zM207 413q-10 0 -10 10t10 10t10 -10t-10 -10zM179 444q-10 0 -10 10t10 10t10 -10t-10 -10zM154 477q-10 0 -10 10t10 10t10 -10t-10 -10zM132 514q-10 0 -10 10 t10 10t10 -10t-10 -10zM122 556q-10 0 -10 10t10 10t10 -10t-10 -10zM129 597q-10 0 -10 10t10 10t10 -10t-10 -10zM176 661q-10 0 -10 10t10 10t10 -10t-10 -10zM213 683q-10 0 -10 10t10 10t10 -10t-10 -10zM256 694q-10 0 -10 10t10 10t10 -10t-10 -10zM300 695 q-10 0 -10 10t10 10t10 -10t-10 -10zM341 682q-10 0 -10 10t10 10t10 -10t-10 -10zM376 660q-10 0 -10 10t10 10t10 -10t-10 -10zM402 629q-10 0 -10 10t10 10t10 -10t-10 -10zM414 588q-10 0 -10 10t10 10t10 -10t-10 -10zM411 547q-10 0 -10 10t10 10t10 -10t-10 -10z M394 510q-10 0 -10 10t10 10t10 -10t-10 -10zM369 479q-10 0 -10 10t10 10t10 -10t-10 -10zM337 452q-10 0 -10 10t10 10t10 -10t-10 -10zM305 426q-10 0 -10 10t10 10t10 -10t-10 -10zM271 403q-10 0 -10 10t10 10t10 -10t-10 -10zM148 633q-10 0 -10 10t10 10t10 -10 t-10 -10zM205 360q-10 0 -10 10t10 10t10 -10t-10 -10zM175 337q-10 0 -10 10t10 10t10 -10t-10 -10zM146 314q-10 0 -10 10t10 10t10 -10t-10 -10zM119 287q-10 0 -10 10t10 10t10 -10t-10 -10zM97 257q-10 0 -10 10t10 10t10 -10t-10 -10zM80 224q-10 0 -10 10t10 10 t10 -10t-10 -10zM70 184q-10 0 -10 10t10 10t10 -10t-10 -10zM70 141q-10 0 -10 10t10 10t10 -10t-10 -10zM82 100q-10 0 -10 10t10 10t10 -10t-10 -10zM104 64q-10 0 -10 10t10 10t10 -10t-10 -10zM134 35q-10 0 -10 10t10 10t10 -10t-10 -10zM168 16q-10 0 -10 10t10 10 t10 -10t-10 -10zM206 2q-10 0 -10 10t10 10t10 -10t-10 -10zM247 -6q-10 0 -10 10t10 10t10 -10t-10 -10zM289 -6q-10 0 -10 10t10 10t10 -10t-10 -10zM333 2q-10 0 -10 10t10 10t10 -10t-10 -10zM372 15q-10 0 -10 10t10 10t10 -10t-10 -10zM410 35q-10 0 -10 10t10 10 t10 -10t-10 -10zM442 60q-10 0 -10 10t10 10t10 -10t-10 -10zM469 87q-10 0 -10 10t10 10t10 -10t-10 -10zM513 147q-10 0 -10 10t10 10t10 -10t-10 -10zM529 181q-10 0 -10 10t10 10t10 -10t-10 -10zM541 218q-10 0 -10 10t10 10t10 -10t-10 -10zM550 255q-10 0 -10 10 t10 10t10 -10t-10 -10zM554 294q-10 0 -10 10t10 10t10 -10t-10 -10zM554 334q-10 0 -10 10t10 10t10 -10t-10 -10z" />
<glyph unicode="'" horiz-adv-x="143" d="M72 620q-10 0 -10 10t10 10t10 -10t-10 -10zM72 653q-10 0 -10 10t10 10t10 -10t-10 -10zM72 686q-10 0 -10 10t10 10t10 -10t-10 -10z" />
<glyph unicode="(" horiz-adv-x="247" d="M208 -21q0 -10 -10 -10t-10 10t10 10t10 -10zM187 13q0 -10 -10 -10t-10 10t10 10t10 -10zM166 48q0 -10 -10 -10t-10 10t10 10t10 -10zM147 84q0 -10 -10 -10t-10 10t10 10t10 -10zM130 120q0 -10 -10 -10t-10 10t10 10t10 -10zM115 155q0 -10 -10 -10t-10 10t10 10 t10 -10zM103 192q0 -10 -10 -10t-10 10t10 10t10 -10zM93 229q0 -10 -10 -10t-10 10t10 10t10 -10zM84 267q0 -10 -10 -10t-10 10t10 10t10 -10zM79 305q0 -10 -10 -10t-10 10t10 10t10 -10zM78 344q0 -10 -10 -10t-10 10t10 10t10 -10zM79 383q0 -10 -10 -10t-10 10t10 10 t10 -10zM85 422q0 -10 -10 -10t-10 10t10 10t10 -10zM93 461q0 -10 -10 -10t-10 10t10 10t10 -10zM104 500q0 -10 -10 -10t-10 10t10 10t10 -10zM117 537q0 -10 -10 -10t-10 10t10 10t10 -10zM132 574q0 -10 -10 -10t-10 10t10 10t10 -10zM148 611q0 -10 -10 -10t-10 10 t10 10t10 -10zM165 647q0 -10 -10 -10t-10 10t10 10t10 -10zM184 681q0 -10 -10 -10t-10 10t10 10t10 -10zM202 713q0 -10 -10 -10t-10 10t10 10t10 -10z" />
<glyph unicode=")" horiz-adv-x="247" d="M41 -21q0 10 10 10t10 -10t-10 -10t-10 10zM62 13q0 10 10 10t10 -10t-10 -10t-10 10zM83 48q0 10 10 10t10 -10t-10 -10t-10 10zM102 84q0 10 10 10t10 -10t-10 -10t-10 10zM119 120q0 10 10 10t10 -10t-10 -10t-10 10zM134 155q0 10 10 10t10 -10t-10 -10t-10 10z M146 192q0 10 10 10t10 -10t-10 -10t-10 10zM156 229q0 10 10 10t10 -10t-10 -10t-10 10zM165 267q0 10 10 10t10 -10t-10 -10t-10 10zM170 305q0 10 10 10t10 -10t-10 -10t-10 10zM171 344q0 10 10 10t10 -10t-10 -10t-10 10zM170 383q0 10 10 10t10 -10t-10 -10t-10 10z M164 422q0 10 10 10t10 -10t-10 -10t-10 10zM156 461q0 10 10 10t10 -10t-10 -10t-10 10zM145 500q0 10 10 10t10 -10t-10 -10t-10 10zM132 537q0 10 10 10t10 -10t-10 -10t-10 10zM117 574q0 10 10 10t10 -10t-10 -10t-10 10zM101 611q0 10 10 10t10 -10t-10 -10t-10 10z M84 647q0 10 10 10t10 -10t-10 -10t-10 10zM65 681q0 10 10 10t10 -10t-10 -10t-10 10zM47 713q0 10 10 10t10 -10t-10 -10t-10 10z" />
<glyph unicode="*" horiz-adv-x="312" d="M156 688q-10 0 -10 10t10 10t10 -10t-10 -10zM156 653q-10 0 -10 10t10 10t10 -10t-10 -10zM156 618q-10 0 -10 10t10 10t10 -10t-10 -10zM173 588q-10 0 -10 10t10 10t10 -10t-10 -10zM194 561q-10 0 -10 10t10 10t10 -10t-10 -10zM137 588q-10 0 -10 10t10 10t10 -10 t-10 -10zM116 561q-10 0 -10 10t10 10t10 -10t-10 -10zM189 624q-10 0 -10 10t10 10t10 -10t-10 -10zM220 635q-10 0 -10 10t10 10t10 -10t-10 -10zM123 624q-10 0 -10 10t10 10t10 -10t-10 -10zM92 635q-10 0 -10 10t10 10t10 -10t-10 -10z" />
<glyph unicode="+" horiz-adv-x="415" d="M208 345q-10 0 -10 10t10 10t10 -10t-10 -10zM244 345q-10 0 -10 10t10 10t10 -10t-10 -10zM280 345q-10 0 -10 10t10 10t10 -10t-10 -10zM316 345q-10 0 -10 10t10 10t10 -10t-10 -10zM352 345q-10 0 -10 10t10 10t10 -10t-10 -10zM172 345q-10 0 -10 10t10 10t10 -10 t-10 -10zM136 345q-10 0 -10 10t10 10t10 -10t-10 -10zM100 345q-10 0 -10 10t10 10t10 -10t-10 -10zM64 345q-10 0 -10 10t10 10t10 -10t-10 -10zM208 381q-10 0 -10 10t10 10t10 -10t-10 -10zM208 417q-10 0 -10 10t10 10t10 -10t-10 -10zM208 453q-10 0 -10 10t10 10 t10 -10t-10 -10zM208 489q-10 0 -10 10t10 10t10 -10t-10 -10zM208 201q-10 0 -10 10t10 10t10 -10t-10 -10zM208 237q-10 0 -10 10t10 10t10 -10t-10 -10zM208 273q-10 0 -10 10t10 10t10 -10t-10 -10zM208 309q-10 0 -10 10t10 10t10 -10t-10 -10z" />
<glyph unicode="," horiz-adv-x="189" d="M97 -1q-10 0 -10 10t10 10t10 -10t-10 -10zM97 32q-10 0 -10 10t10 10t10 -10t-10 -10zM97 65q-10 0 -10 10t10 10t10 -10t-10 -10zM90 -32q-10 0 -10 10t10 10t10 -10t-10 -10zM61 -42q-10 0 -10 10t10 10t10 -10t-10 -10z" />
<glyph unicode="-" horiz-adv-x="426" d="M84 262q-10 0 -10 10t10 10t10 -10t-10 -10zM121 262q-10 0 -10 10t10 10t10 -10t-10 -10zM158 262q-10 0 -10 10t10 10t10 -10t-10 -10zM195 262q-10 0 -10 10t10 10t10 -10t-10 -10zM232 262q-10 0 -10 10t10 10t10 -10t-10 -10zM269 262q-10 0 -10 10t10 10t10 -10 t-10 -10zM306 262q-10 0 -10 10t10 10t10 -10t-10 -10zM343 262q-10 0 -10 10t10 10t10 -10t-10 -10z" />
<glyph unicode="." horiz-adv-x="171" d="M85 -1q-10 0 -10 10t10 10t10 -10t-10 -10zM85 32q-10 0 -10 10t10 10t10 -10t-10 -10zM85 65q-10 0 -10 10t10 10t10 -10t-10 -10z" />
<glyph unicode="/" horiz-adv-x="559" d="M57 -2q-10 0 -10 10t10 10t10 -10t-10 -10zM463 627q-10 0 -10 10t10 10t10 -10t-10 -10zM442 594q-10 0 -10 10t10 10t10 -10t-10 -10zM377 495q-10 0 -10 10t10 10t10 -10t-10 -10zM357 462q-10 0 -10 10t10 10t10 -10t-10 -10zM421 561q-10 0 -10 10t10 10t10 -10 t-10 -10zM399 528q-10 0 -10 10t10 10t10 -10t-10 -10zM293 363q-10 0 -10 10t10 10t10 -10t-10 -10zM272 330q-10 0 -10 10t10 10t10 -10t-10 -10zM336 429q-10 0 -10 10t10 10t10 -10t-10 -10zM314 396q-10 0 -10 10t10 10t10 -10t-10 -10zM251 297q-10 0 -10 10t10 10 t10 -10t-10 -10zM230 264q-10 0 -10 10t10 10t10 -10t-10 -10zM485 660q-10 0 -10 10t10 10t10 -10t-10 -10zM187 198q-10 0 -10 10t10 10t10 -10t-10 -10zM165 165q-10 0 -10 10t10 10t10 -10t-10 -10zM100 65q-10 0 -10 10t10 10t10 -10t-10 -10zM78 31q-10 0 -10 10 t10 10t10 -10t-10 -10zM144 132q-10 0 -10 10t10 10t10 -10t-10 -10zM122 99q-10 0 -10 10t10 10t10 -10t-10 -10zM209 231q-10 0 -10 10t10 10t10 -10t-10 -10zM505 693q-10 0 -10 10t10 10t10 -10t-10 -10z" />
<glyph unicode="0" horiz-adv-x="616" d="M307 -10q-10 0 -10 10t10 10t10 -10t-10 -10zM344 -7q-10 0 -10 10t10 10t10 -10t-10 -10zM380 2q-10 0 -10 10t10 10t10 -10t-10 -10zM413 17q-10 0 -10 10t10 10t10 -10t-10 -10zM443 37q-10 0 -10 10t10 10t10 -10t-10 -10zM469 61q-10 0 -10 10t10 10t10 -10t-10 -10 zM491 89q-10 0 -10 10t10 10t10 -10t-10 -10zM509 120q-10 0 -10 10t10 10t10 -10t-10 -10zM523 154q-10 0 -10 10t10 10t10 -10t-10 -10zM534 190q-10 0 -10 10t10 10t10 -10t-10 -10zM541 227q-10 0 -10 10t10 10t10 -10t-10 -10zM544 264q-10 0 -10 10t10 10t10 -10 t-10 -10zM270 -7q-10 0 -10 10t10 10t10 -10t-10 -10zM234 2q-10 0 -10 10t10 10t10 -10t-10 -10zM201 17q-10 0 -10 10t10 10t10 -10t-10 -10zM172 37q-10 0 -10 10t10 10t10 -10t-10 -10zM147 62q-10 0 -10 10t10 10t10 -10t-10 -10zM125 90q-10 0 -10 10t10 10t10 -10 t-10 -10zM107 121q-10 0 -10 10t10 10t10 -10t-10 -10zM93 155q-10 0 -10 10t10 10t10 -10t-10 -10zM82 191q-10 0 -10 10t10 10t10 -10t-10 -10zM75 228q-10 0 -10 10t10 10t10 -10t-10 -10zM72 265q-10 0 -10 10t10 10t10 -10t-10 -10zM308 595q10 0 10 -10t-10 -10 t-10 10t10 10zM345 592q10 0 10 -10t-10 -10t-10 10t10 10zM381 583q10 0 10 -10t-10 -10t-10 10t10 10zM414 568q10 0 10 -10t-10 -10t-10 10t10 10zM444 548q10 0 10 -10t-10 -10t-10 10t10 10zM470 524q10 0 10 -10t-10 -10t-10 10t10 10zM492 496q10 0 10 -10t-10 -10 t-10 10t10 10zM510 465q10 0 10 -10t-10 -10t-10 10t10 10zM524 431q10 0 10 -10t-10 -10t-10 10t10 10zM535 395q10 0 10 -10t-10 -10t-10 10t10 10zM542 358q10 0 10 -10t-10 -10t-10 10t10 10zM545 321q10 0 10 -10t-10 -10t-10 10t10 10zM271 592q10 0 10 -10t-10 -10 t-10 10t10 10zM235 583q10 0 10 -10t-10 -10t-10 10t10 10zM202 568q10 0 10 -10t-10 -10t-10 10t10 10zM173 548q10 0 10 -10t-10 -10t-10 10t10 10zM148 523q10 0 10 -10t-10 -10t-10 10t10 10zM126 495q10 0 10 -10t-10 -10t-10 10t10 10zM108 464q10 0 10 -10t-10 -10 t-10 10t10 10zM94 430q10 0 10 -10t-10 -10t-10 10t10 10zM83 394q10 0 10 -10t-10 -10t-10 10t10 10zM76 357q10 0 10 -10t-10 -10t-10 10t10 10zM73 320q10 0 10 -10t-10 -10t-10 10t10 10z" />
<glyph unicode="1" horiz-adv-x="395" d="M228 0q-10 0 -10 10t10 10t10 -10t-10 -10zM263 0q-10 0 -10 10t10 10t10 -10t-10 -10zM158 0q-10 0 -10 10t10 10t10 -10t-10 -10zM193 0q-10 0 -10 10t10 10t10 -10t-10 -10zM368 0q-10 0 -10 10t10 10t10 -10t-10 -10zM298 0q-10 0 -10 10t10 10t10 -10t-10 -10z M333 0q-10 0 -10 10t10 10t10 -10t-10 -10zM88 0q-10 0 -10 10t10 10t10 -10t-10 -10zM123 0q-10 0 -10 10t10 10t10 -10t-10 -10zM228 36q-10 0 -10 10t10 10t10 -10t-10 -10zM228 72q-10 0 -10 10t10 10t10 -10t-10 -10zM228 108q-10 0 -10 10t10 10t10 -10t-10 -10z M228 144q-10 0 -10 10t10 10t10 -10t-10 -10zM228 180q-10 0 -10 10t10 10t10 -10t-10 -10zM228 216q-10 0 -10 10t10 10t10 -10t-10 -10zM228 252q-10 0 -10 10t10 10t10 -10t-10 -10zM228 288q-10 0 -10 10t10 10t10 -10t-10 -10zM228 324q-10 0 -10 10t10 10t10 -10 t-10 -10zM228 360q-10 0 -10 10t10 10t10 -10t-10 -10zM228 396q-10 0 -10 10t10 10t10 -10t-10 -10zM228 432q-10 0 -10 10t10 10t10 -10t-10 -10zM228 468q-10 0 -10 10t10 10t10 -10t-10 -10zM228 504q-10 0 -10 10t10 10t10 -10t-10 -10zM228 540q-10 0 -10 10t10 10 t10 -10t-10 -10zM199 519q-10 0 -10 10t10 10t10 -10t-10 -10zM171 495q-10 0 -10 10t10 10t10 -10t-10 -10zM140 475q-10 0 -10 10t10 10t10 -10t-10 -10zM107 459q-10 0 -10 10t10 10t10 -10t-10 -10zM72 447q-10 0 -10 10t10 10t10 -10t-10 -10z" />
<glyph unicode="2" horiz-adv-x="515" d="M85 471q-10 0 -10 10t10 10t10 -10t-10 -10zM110 496q-10 0 -10 10t10 10t10 -10t-10 -10zM140 519q-10 0 -10 10t10 10t10 -10t-10 -10zM174 536q-10 0 -10 10t10 10t10 -10t-10 -10zM209 548q-10 0 -10 10t10 10t10 -10t-10 -10zM245 555q-10 0 -10 10t10 10t10 -10 t-10 -10zM282 555q-10 0 -10 10t10 10t10 -10t-10 -10zM319 549q-10 0 -10 10t10 10t10 -10t-10 -10zM355 535q-10 0 -10 10t10 10t10 -10t-10 -10zM387 513q-10 0 -10 10t10 10t10 -10t-10 -10zM413 484q-10 0 -10 10t10 10t10 -10t-10 -10zM428 449q-10 0 -10 10t10 10 t10 -10t-10 -10zM433 410q-10 0 -10 10t10 10t10 -10t-10 -10zM428 372q-10 0 -10 10t10 10t10 -10t-10 -10zM412 339q-10 0 -10 10t10 10t10 -10t-10 -10zM387 313q-10 0 -10 10t10 10t10 -10t-10 -10zM356 292q-10 0 -10 10t10 10t10 -10t-10 -10zM323 275q-10 0 -10 10 t10 10t10 -10t-10 -10zM288 260q-10 0 -10 10t10 10t10 -10t-10 -10zM252 245q-10 0 -10 10t10 10t10 -10t-10 -10zM217 228q-10 0 -10 10t10 10t10 -10t-10 -10zM181 208q-10 0 -10 10t10 10t10 -10t-10 -10zM148 182q-10 0 -10 10t10 10t10 -10t-10 -10zM121 150 q-10 0 -10 10t10 10t10 -10t-10 -10zM100 115q-10 0 -10 10t10 10t10 -10t-10 -10zM85 80q-10 0 -10 10t10 10t10 -10t-10 -10zM77 44q-10 0 -10 10t10 10t10 -10t-10 -10zM72 7q-10 0 -10 10t10 10t10 -10t-10 -10zM108 7q-10 0 -10 10t10 10t10 -10t-10 -10zM143 7 q-10 0 -10 10t10 10t10 -10t-10 -10zM177 7q-10 0 -10 10t10 10t10 -10t-10 -10zM213 7q-10 0 -10 10t10 10t10 -10t-10 -10zM248 7q-10 0 -10 10t10 10t10 -10t-10 -10zM283 7q-10 0 -10 10t10 10t10 -10t-10 -10zM319 7q-10 0 -10 10t10 10t10 -10t-10 -10zM354 7 q-10 0 -10 10t10 10t10 -10t-10 -10zM388 7q-10 0 -10 10t10 10t10 -10t-10 -10zM424 7q-10 0 -10 10t10 10t10 -10t-10 -10zM459 7q-10 0 -10 10t10 10t10 -10t-10 -10z" />
<glyph unicode="3" horiz-adv-x="524" d="M75 449q-10 0 -10 10t10 10t10 -10t-10 -10zM95 479q-10 0 -10 10t10 10t10 -10t-10 -10zM121 504q-10 0 -10 10t10 10t10 -10t-10 -10zM152 524q-10 0 -10 10t10 10t10 -10t-10 -10zM186 539q-10 0 -10 10t10 10t10 -10t-10 -10zM222 547q-10 0 -10 10t10 10t10 -10 t-10 -10zM258 551q-10 0 -10 10t10 10t10 -10t-10 -10zM295 548q-10 0 -10 10t10 10t10 -10t-10 -10zM331 540q-10 0 -10 10t10 10t10 -10t-10 -10zM364 524q-10 0 -10 10t10 10t10 -10t-10 -10zM393 503q-10 0 -10 10t10 10t10 -10t-10 -10zM418 476q-10 0 -10 10t10 10 t10 -10t-10 -10zM436 444q-10 0 -10 10t10 10t10 -10t-10 -10zM446 409q-10 0 -10 10t10 10t10 -10t-10 -10zM446 371q-10 0 -10 10t10 10t10 -10t-10 -10zM441 334q-10 0 -10 10t10 10t10 -10t-10 -10zM425 301q-10 0 -10 10t10 10t10 -10t-10 -10zM402 274q-10 0 -10 10 t10 10t10 -10t-10 -10zM373 254q-10 0 -10 10t10 10t10 -10t-10 -10zM340 239q-10 0 -10 10t10 10t10 -10t-10 -10zM305 226q-10 0 -10 10t10 10t10 -10t-10 -10zM269 225q-10 0 -10 10t10 10t10 -10t-10 -10zM234 225q-10 0 -10 10t10 10t10 -10t-10 -10zM340 211 q-10 0 -10 10t10 10t10 -10t-10 -10zM377 197q-10 0 -10 10t10 10t10 -10t-10 -10zM408 175q-10 0 -10 10t10 10t10 -10t-10 -10zM434 145q-10 0 -10 10t10 10t10 -10t-10 -10zM451 109q-10 0 -10 10t10 10t10 -10t-10 -10zM461 72q-10 0 -10 10t10 10t10 -10t-10 -10z M462 34q-10 0 -10 10t10 10t10 -10t-10 -10zM456 -3q-10 0 -10 10t10 10t10 -10t-10 -10zM444 -39q-10 0 -10 10t10 10t10 -10t-10 -10zM425 -72q-10 0 -10 10t10 10t10 -10t-10 -10zM399 -99q-10 0 -10 10t10 10t10 -10t-10 -10zM367 -121q-10 0 -10 10t10 10t10 -10 t-10 -10zM332 -136q-10 0 -10 10t10 10t10 -10t-10 -10zM296 -144q-10 0 -10 10t10 10t10 -10t-10 -10zM260 -147q-10 0 -10 10t10 10t10 -10t-10 -10zM224 -145q-10 0 -10 10t10 10t10 -10t-10 -10zM188 -139q-10 0 -10 10t10 10t10 -10t-10 -10zM152 -126q-10 0 -10 10 t10 10t10 -10t-10 -10zM119 -108q-10 0 -10 10t10 10t10 -10t-10 -10zM91 -84q-10 0 -10 10t10 10t10 -10t-10 -10zM68 -56q-10 0 -10 10t10 10t10 -10t-10 -10zM52 -22q-10 0 -10 10t10 10t10 -10t-10 -10z" />
<glyph unicode="4" horiz-adv-x="531" d="M395 -107q-10 0 -10 10t10 10t10 -10t-10 -10zM395 -71q-10 0 -10 10t10 10t10 -10t-10 -10zM395 -35q-10 0 -10 10t10 10t10 -10t-10 -10zM395 1q-10 0 -10 10t10 10t10 -10t-10 -10zM395 37q-10 0 -10 10t10 10t10 -10t-10 -10zM396 73q-10 0 -10 10t10 10t10 -10 t-10 -10zM396 109q-10 0 -10 10t10 10t10 -10t-10 -10zM396 145q-10 0 -10 10t10 10t10 -10t-10 -10zM396 181q-10 0 -10 10t10 10t10 -10t-10 -10zM396 217q-10 0 -10 10t10 10t10 -10t-10 -10zM396 253q-10 0 -10 10t10 10t10 -10t-10 -10zM396 289q-10 0 -10 10t10 10 t10 -10t-10 -10zM396 325q-10 0 -10 10t10 10t10 -10t-10 -10zM396 361q-10 0 -10 10t10 10t10 -10t-10 -10zM396 397q-10 0 -10 10t10 10t10 -10t-10 -10zM396 433q-10 0 -10 10t10 10t10 -10t-10 -10zM396 468q-10 0 -10 10t10 10t10 -10t-10 -10zM396 504q-10 0 -10 10 t10 10t10 -10t-10 -10zM396 540q-10 0 -10 10t10 10t10 -10t-10 -10zM431 73q-10 0 -10 10t10 10t10 -10t-10 -10zM466 73q-10 0 -10 10t10 10t10 -10t-10 -10zM501 73q-10 0 -10 10t10 10t10 -10t-10 -10zM256 73q-10 0 -10 10t10 10t10 -10t-10 -10zM291 73q-10 0 -10 10 t10 10t10 -10t-10 -10zM326 73q-10 0 -10 10t10 10t10 -10t-10 -10zM361 73q-10 0 -10 10t10 10t10 -10t-10 -10zM116 73q-10 0 -10 10t10 10t10 -10t-10 -10zM151 73q-10 0 -10 10t10 10t10 -10t-10 -10zM186 73q-10 0 -10 10t10 10t10 -10t-10 -10zM221 73q-10 0 -10 10 t10 10t10 -10t-10 -10zM46 73q-10 0 -10 10t10 10t10 -10t-10 -10zM81 73q-10 0 -10 10t10 10t10 -10t-10 -10zM62 106q-10 0 -10 10t10 10t10 -10t-10 -10zM84 136q-10 0 -10 10t10 10t10 -10t-10 -10zM106 166q-10 0 -10 10t10 10t10 -10t-10 -10zM127 196q-10 0 -10 10 t10 10t10 -10t-10 -10zM149 225q-10 0 -10 10t10 10t10 -10t-10 -10zM169 254q-10 0 -10 10t10 10t10 -10t-10 -10zM191 283q-10 0 -10 10t10 10t10 -10t-10 -10zM213 312q-10 0 -10 10t10 10t10 -10t-10 -10zM235 342q-10 0 -10 10t10 10t10 -10t-10 -10zM257 371 q-10 0 -10 10t10 10t10 -10t-10 -10zM278 400q-10 0 -10 10t10 10t10 -10t-10 -10zM300 429q-10 0 -10 10t10 10t10 -10t-10 -10zM323 457q-10 0 -10 10t10 10t10 -10t-10 -10zM344 486q-10 0 -10 10t10 10t10 -10t-10 -10zM366 515q-10 0 -10 10t10 10t10 -10t-10 -10z" />
<glyph unicode="5" horiz-adv-x="549" d="M415 242q-10 0 -10 10t10 10t10 -10t-10 -10zM444 215q-10 0 -10 10t10 10t10 -10t-10 -10zM466 182q-10 0 -10 10t10 10t10 -10t-10 -10zM483 146q-10 0 -10 10t10 10t10 -10t-10 -10zM493 108q-10 0 -10 10t10 10t10 -10t-10 -10zM496 70q-10 0 -10 10t10 10t10 -10 t-10 -10zM492 32q-10 0 -10 10t10 10t10 -10t-10 -10zM482 -6q-10 0 -10 10t10 10t10 -10t-10 -10zM464 -41q-10 0 -10 10t10 10t10 -10t-10 -10zM443 -73q-10 0 -10 10t10 10t10 -10t-10 -10zM414 -98q-10 0 -10 10t10 10t10 -10t-10 -10zM381 -119q-10 0 -10 10t10 10 t10 -10t-10 -10zM346 -134q-10 0 -10 10t10 10t10 -10t-10 -10zM310 -142q-10 0 -10 10t10 10t10 -10t-10 -10zM274 -146q-10 0 -10 10t10 10t10 -10t-10 -10zM238 -143q-10 0 -10 10t10 10t10 -10t-10 -10zM202 -137q-10 0 -10 10t10 10t10 -10t-10 -10zM166 -124 q-10 0 -10 10t10 10t10 -10t-10 -10zM133 -106q-10 0 -10 10t10 10t10 -10t-10 -10zM105 -82q-10 0 -10 10t10 10t10 -10t-10 -10zM80 -54q-10 0 -10 10t10 10t10 -10t-10 -10zM61 -20q-10 0 -10 10t10 10t10 -10t-10 -10zM383 263q-10 0 -10 10t10 10t10 -10t-10 -10z M348 278q-10 0 -10 10t10 10t10 -10t-10 -10zM312 286q-10 0 -10 10t10 10t10 -10t-10 -10zM276 288q-10 0 -10 10t10 10t10 -10t-10 -10zM239 285q-10 0 -10 10t10 10t10 -10t-10 -10zM201 276q-10 0 -10 10t10 10t10 -10t-10 -10zM166 262q-10 0 -10 10t10 10t10 -10 t-10 -10zM135 239q-10 0 -10 10t10 10t10 -10t-10 -10zM108 212q-10 0 -10 10t10 10t10 -10t-10 -10zM77 192q-10 0 -10 10t10 10t10 -10t-10 -10zM83 232q-10 0 -10 10t10 10t10 -10t-10 -10zM91 269q-10 0 -10 10t10 10t10 -10t-10 -10zM99 307q-10 0 -10 10t10 10t10 -10 t-10 -10zM107 345q-10 0 -10 10t10 10t10 -10t-10 -10zM115 382q-10 0 -10 10t10 10t10 -10t-10 -10zM123 420q-10 0 -10 10t10 10t10 -10t-10 -10zM131 456q-10 0 -10 10t10 10t10 -10t-10 -10zM139 494q-10 0 -10 10t10 10t10 -10t-10 -10zM147 532q-10 0 -10 10t10 10 t10 -10t-10 -10zM182 532q-10 0 -10 10t10 10t10 -10t-10 -10zM217 532q-10 0 -10 10t10 10t10 -10t-10 -10zM252 532q-10 0 -10 10t10 10t10 -10t-10 -10zM288 532q-10 0 -10 10t10 10t10 -10t-10 -10zM323 532q-10 0 -10 10t10 10t10 -10t-10 -10zM358 532q-10 0 -10 10 t10 10t10 -10t-10 -10zM393 532q-10 0 -10 10t10 10t10 -10t-10 -10zM429 532q-10 0 -10 10t10 10t10 -10t-10 -10zM464 532q-10 0 -10 10t10 10t10 -10t-10 -10z" />
<glyph unicode="6" horiz-adv-x="605" d="M538 172q-10 0 -10 10t10 10t10 -10t-10 -10zM526 134q-10 0 -10 10t10 10t10 -10t-10 -10zM508 99q-10 0 -10 10t10 10t10 -10t-10 -10zM487 67q-10 0 -10 10t10 10t10 -10t-10 -10zM458 42q-10 0 -10 10t10 10t10 -10t-10 -10zM425 21q-10 0 -10 10t10 10t10 -10 t-10 -10zM390 6q-10 0 -10 10t10 10t10 -10t-10 -10zM354 -2q-10 0 -10 10t10 10t10 -10t-10 -10zM318 -6q-10 0 -10 10t10 10t10 -10t-10 -10zM282 -3q-10 0 -10 10t10 10t10 -10t-10 -10zM246 3q-10 0 -10 10t10 10t10 -10t-10 -10zM210 16q-10 0 -10 10t10 10t10 -10 t-10 -10zM177 34q-10 0 -10 10t10 10t10 -10t-10 -10zM149 58q-10 0 -10 10t10 10t10 -10t-10 -10zM124 86q-10 0 -10 10t10 10t10 -10t-10 -10zM105 120q-10 0 -10 10t10 10t10 -10t-10 -10zM545 210q-10 0 -10 10t10 10t10 -10t-10 -10zM545 250q-10 0 -10 10t10 10 t10 -10t-10 -10zM538 288q-10 0 -10 10t10 10t10 -10t-10 -10zM525 325q-10 0 -10 10t10 10t10 -10t-10 -10zM504 359q-10 0 -10 10t10 10t10 -10t-10 -10zM478 390q-10 0 -10 10t10 10t10 -10t-10 -10zM446 415q-10 0 -10 10t10 10t10 -10t-10 -10zM411 434q-10 0 -10 10 t10 10t10 -10t-10 -10zM374 447q-10 0 -10 10t10 10t10 -10t-10 -10zM336 453q-10 0 -10 10t10 10t10 -10t-10 -10zM299 453q-10 0 -10 10t10 10t10 -10t-10 -10zM263 448q-10 0 -10 10t10 10t10 -10t-10 -10zM228 437q-10 0 -10 10t10 10t10 -10t-10 -10zM196 420 q-10 0 -10 10t10 10t10 -10t-10 -10zM165 397q-10 0 -10 10t10 10t10 -10t-10 -10zM136 373q-10 0 -10 10t10 10t10 -10t-10 -10zM115 339q-10 0 -10 10t10 10t10 -10t-10 -10zM91 158q-10 0 -10 10t10 10t10 -10t-10 -10zM83 198q-10 0 -10 10t10 10t10 -10t-10 -10z M80 239q-10 0 -10 10t10 10t10 -10t-10 -10zM79 279q-10 0 -10 10t10 10t10 -10t-10 -10zM81 318q-10 0 -10 10t10 10t10 -10t-10 -10zM84 357q-10 0 -10 10t10 10t10 -10t-10 -10zM86 394q-10 0 -10 10t10 10t10 -10t-10 -10zM91 430q-10 0 -10 10t10 10t10 -10t-10 -10z M98 465q-10 0 -10 10t10 10t10 -10t-10 -10zM108 501q-10 0 -10 10t10 10t10 -10t-10 -10zM120 536q-10 0 -10 10t10 10t10 -10t-10 -10zM136 571q-10 0 -10 10t10 10t10 -10t-10 -10zM158 604q-10 0 -10 10t10 10t10 -10t-10 -10zM184 632q-10 0 -10 10t10 10t10 -10 t-10 -10zM213 654q-10 0 -10 10t10 10t10 -10t-10 -10zM245 670q-10 0 -10 10t10 10t10 -10t-10 -10zM279 681q-10 0 -10 10t10 10t10 -10t-10 -10zM315 684q-10 0 -10 10t10 10t10 -10t-10 -10zM351 682q-10 0 -10 10t10 10t10 -10t-10 -10zM386 671q-10 0 -10 10t10 10 t10 -10t-10 -10zM420 654q-10 0 -10 10t10 10t10 -10t-10 -10zM450 632q-10 0 -10 10t10 10t10 -10t-10 -10zM478 604q-10 0 -10 10t10 10t10 -10t-10 -10zM500 570q-10 0 -10 10t10 10t10 -10t-10 -10z" />
<glyph unicode="7" horiz-adv-x="537" d="M136 -124q-10 0 -10 10t10 10t10 -10t-10 -10zM152 -93q-10 0 -10 10t10 10t10 -10t-10 -10zM168 -62q-10 0 -10 10t10 10t10 -10t-10 -10zM184 -31q-10 0 -10 10t10 10t10 -10t-10 -10zM200 0q-10 0 -10 10t10 10t10 -10t-10 -10zM216 31q-10 0 -10 10t10 10t10 -10 t-10 -10zM232 62q-10 0 -10 10t10 10t10 -10t-10 -10zM248 93q-10 0 -10 10t10 10t10 -10t-10 -10zM264 124q-10 0 -10 10t10 10t10 -10t-10 -10zM280 155q-10 0 -10 10t10 10t10 -10t-10 -10zM296 186q-10 0 -10 10t10 10t10 -10t-10 -10zM312 217q-10 0 -10 10t10 10 t10 -10t-10 -10zM328 248q-10 0 -10 10t10 10t10 -10t-10 -10zM344 279q-10 0 -10 10t10 10t10 -10t-10 -10zM360 310q-10 0 -10 10t10 10t10 -10t-10 -10zM376 341q-10 0 -10 10t10 10t10 -10t-10 -10zM392 372q-10 0 -10 10t10 10t10 -10t-10 -10zM408 403q-10 0 -10 10 t10 10t10 -10t-10 -10zM424 434q-10 0 -10 10t10 10t10 -10t-10 -10zM440 465q-10 0 -10 10t10 10t10 -10t-10 -10zM456 496q-10 0 -10 10t10 10t10 -10t-10 -10zM472 527q-10 0 -10 10t10 10t10 -10t-10 -10zM382 561q-10 0 -10 10t10 10t10 -10t-10 -10zM417 561 q-10 0 -10 10t10 10t10 -10t-10 -10zM452 561q-10 0 -10 10t10 10t10 -10t-10 -10zM487 561q-10 0 -10 10t10 10t10 -10t-10 -10zM242 561q-10 0 -10 10t10 10t10 -10t-10 -10zM277 561q-10 0 -10 10t10 10t10 -10t-10 -10zM312 561q-10 0 -10 10t10 10t10 -10t-10 -10z M347 561q-10 0 -10 10t10 10t10 -10t-10 -10zM102 561q-10 0 -10 10t10 10t10 -10t-10 -10zM137 561q-10 0 -10 10t10 10t10 -10t-10 -10zM172 561q-10 0 -10 10t10 10t10 -10t-10 -10zM207 561q-10 0 -10 10t10 10t10 -10t-10 -10zM67 561q-10 0 -10 10t10 10t10 -10 t-10 -10z" />
<glyph unicode="8" horiz-adv-x="592" d="M264 689q-10 0 -10 10t10 10t10 -10t-10 -10zM296 690q-10 0 -10 10t10 10t10 -10t-10 -10zM331 688q-10 0 -10 10t10 10t10 -10t-10 -10zM230 682q-10 0 -10 10t10 10t10 -10t-10 -10zM199 672q-10 0 -10 10t10 10t10 -10t-10 -10zM364 681q-10 0 -10 10t10 10t10 -10 t-10 -10zM395 671q-10 0 -10 10t10 10t10 -10t-10 -10zM424 656q-10 0 -10 10t10 10t10 -10t-10 -10zM450 637q-10 0 -10 10t10 10t10 -10t-10 -10zM473 613q-10 0 -10 10t10 10t10 -10t-10 -10zM489 584q-10 0 -10 10t10 10t10 -10t-10 -10zM498 552q-10 0 -10 10t10 10 t10 -10t-10 -10zM500 519q-10 0 -10 10t10 10t10 -10t-10 -10zM493 485q-10 0 -10 10t10 10t10 -10t-10 -10zM478 455q-10 0 -10 10t10 10t10 -10t-10 -10zM456 430q-10 0 -10 10t10 10t10 -10t-10 -10zM430 409q-10 0 -10 10t10 10t10 -10t-10 -10zM401 394q-10 0 -10 10 t10 10t10 -10t-10 -10zM368 381q-10 0 -10 10t10 10t10 -10t-10 -10zM335 368q-10 0 -10 10t10 10t10 -10t-10 -10zM297 369q-10 0 -10 10t10 10t10 -10t-10 -10zM370 353q-10 0 -10 10t10 10t10 -10t-10 -10zM402 340q-10 0 -10 10t10 10t10 -10t-10 -10zM431 324 q-10 0 -10 10t10 10t10 -10t-10 -10zM457 304q-10 0 -10 10t10 10t10 -10t-10 -10zM479 280q-10 0 -10 10t10 10t10 -10t-10 -10zM497 251q-10 0 -10 10t10 10t10 -10t-10 -10zM509 218q-10 0 -10 10t10 10t10 -10t-10 -10zM512 183q-10 0 -10 10t10 10t10 -10t-10 -10z M508 149q-10 0 -10 10t10 10t10 -10t-10 -10zM496 116q-10 0 -10 10t10 10t10 -10t-10 -10zM478 87q-10 0 -10 10t10 10t10 -10t-10 -10zM455 62q-10 0 -10 10t10 10t10 -10t-10 -10zM426 40q-10 0 -10 10t10 10t10 -10t-10 -10zM396 25q-10 0 -10 10t10 10t10 -10t-10 -10z M363 12q-10 0 -10 10t10 10t10 -10t-10 -10zM330 4q-10 0 -10 10t10 10t10 -10t-10 -10zM298 2q-10 0 -10 10t10 10t10 -10t-10 -10zM169 656q-10 0 -10 10t10 10t10 -10t-10 -10zM143 637q-10 0 -10 10t10 10t10 -10t-10 -10zM120 613q-10 0 -10 10t10 10t10 -10t-10 -10z M104 584q-10 0 -10 10t10 10t10 -10t-10 -10zM95 552q-10 0 -10 10t10 10t10 -10t-10 -10zM93 519q-10 0 -10 10t10 10t10 -10t-10 -10zM100 485q-10 0 -10 10t10 10t10 -10t-10 -10zM115 455q-10 0 -10 10t10 10t10 -10t-10 -10zM137 430q-10 0 -10 10t10 10t10 -10 t-10 -10zM163 409q-10 0 -10 10t10 10t10 -10t-10 -10zM192 394q-10 0 -10 10t10 10t10 -10t-10 -10zM225 381q-10 0 -10 10t10 10t10 -10t-10 -10zM258 369q-10 0 -10 10t10 10t10 -10t-10 -10zM218 353q-10 0 -10 10t10 10t10 -10t-10 -10zM186 340q-10 0 -10 10t10 10 t10 -10t-10 -10zM157 324q-10 0 -10 10t10 10t10 -10t-10 -10zM131 304q-10 0 -10 10t10 10t10 -10t-10 -10zM109 280q-10 0 -10 10t10 10t10 -10t-10 -10zM91 251q-10 0 -10 10t10 10t10 -10t-10 -10zM79 218q-10 0 -10 10t10 10t10 -10t-10 -10zM76 183q-10 0 -10 10 t10 10t10 -10t-10 -10zM80 149q-10 0 -10 10t10 10t10 -10t-10 -10zM92 116q-10 0 -10 10t10 10t10 -10t-10 -10zM110 87q-10 0 -10 10t10 10t10 -10t-10 -10zM133 62q-10 0 -10 10t10 10t10 -10t-10 -10zM162 40q-10 0 -10 10t10 10t10 -10t-10 -10zM194 23q-10 0 -10 10 t10 10t10 -10t-10 -10zM229 11q-10 0 -10 10t10 10t10 -10t-10 -10zM264 4q-10 0 -10 10t10 10t10 -10t-10 -10z" />
<glyph unicode="9" horiz-adv-x="589" d="M63 389q10 0 10 -10t-10 -10t-10 10t10 10zM75 427q10 0 10 -10t-10 -10t-10 10t10 10zM93 462q10 0 10 -10t-10 -10t-10 10t10 10zM114 494q10 0 10 -10t-10 -10t-10 10t10 10zM143 519q10 0 10 -10t-10 -10t-10 10t10 10zM176 540q10 0 10 -10t-10 -10t-10 10t10 10z M211 555q10 0 10 -10t-10 -10t-10 10t10 10zM247 563q10 0 10 -10t-10 -10t-10 10t10 10zM283 567q10 0 10 -10t-10 -10t-10 10t10 10zM319 564q10 0 10 -10t-10 -10t-10 10t10 10zM355 558q10 0 10 -10t-10 -10t-10 10t10 10zM391 545q10 0 10 -10t-10 -10t-10 10t10 10z M424 527q10 0 10 -10t-10 -10t-10 10t10 10zM452 503q10 0 10 -10t-10 -10t-10 10t10 10zM477 475q10 0 10 -10t-10 -10t-10 10t10 10zM496 441q10 0 10 -10t-10 -10t-10 10t10 10zM56 351q10 0 10 -10t-10 -10t-10 10t10 10zM56 311q10 0 10 -10t-10 -10t-10 10t10 10z M63 273q10 0 10 -10t-10 -10t-10 10t10 10zM76 236q10 0 10 -10t-10 -10t-10 10t10 10zM97 202q10 0 10 -10t-10 -10t-10 10t10 10zM123 171q10 0 10 -10t-10 -10t-10 10t10 10zM155 146q10 0 10 -10t-10 -10t-10 10t10 10zM190 127q10 0 10 -10t-10 -10t-10 10t10 10z M227 114q10 0 10 -10t-10 -10t-10 10t10 10zM265 108q10 0 10 -10t-10 -10t-10 10t10 10zM302 108q10 0 10 -10t-10 -10t-10 10t10 10zM338 113q10 0 10 -10t-10 -10t-10 10t10 10zM373 124q10 0 10 -10t-10 -10t-10 10t10 10zM405 141q10 0 10 -10t-10 -10t-10 10t10 10z M436 164q10 0 10 -10t-10 -10t-10 10t10 10zM460 191q10 0 10 -10t-10 -10t-10 10t10 10zM483 227q10 0 10 -10t-10 -10t-10 10t10 10zM510 403q10 0 10 -10t-10 -10t-10 10t10 10zM518 363q10 0 10 -10t-10 -10t-10 10t10 10zM521 322q10 0 10 -10t-10 -10t-10 10t10 10z M522 282q10 0 10 -10t-10 -10t-10 10t10 10zM520 243q10 0 10 -10t-10 -10t-10 10t10 10zM517 204q10 0 10 -10t-10 -10t-10 10t10 10zM515 167q10 0 10 -10t-10 -10t-10 10t10 10zM510 131q10 0 10 -10t-10 -10t-10 10t10 10zM503 96q10 0 10 -10t-10 -10t-10 10t10 10z M493 60q10 0 10 -10t-10 -10t-10 10t10 10zM481 25q10 0 10 -10t-10 -10t-10 10t10 10zM465 -10q10 0 10 -10t-10 -10t-10 10t10 10zM443 -43q10 0 10 -10t-10 -10t-10 10t10 10zM417 -71q10 0 10 -10t-10 -10t-10 10t10 10zM388 -93q10 0 10 -10t-10 -10t-10 10t10 10z M356 -109q10 0 10 -10t-10 -10t-10 10t10 10zM322 -120q10 0 10 -10t-10 -10t-10 10t10 10zM286 -123q10 0 10 -10t-10 -10t-10 10t10 10zM250 -121q10 0 10 -10t-10 -10t-10 10t10 10zM214 -111q10 0 10 -10t-10 -10t-10 10t10 10zM180 -94q10 0 10 -10t-10 -10t-10 10 t10 10zM150 -72q10 0 10 -10t-10 -10t-10 10t10 10zM123 -43q10 0 10 -10t-10 -10t-10 10t10 10zM101 -9q10 0 10 -10t-10 -10t-10 10t10 10z" />
<glyph unicode=":" horiz-adv-x="171" d="M86 431q-10 0 -10 10t10 10t10 -10t-10 -10zM86 464q-10 0 -10 10t10 10t10 -10t-10 -10zM86 497q-10 0 -10 10t10 10t10 -10t-10 -10zM86 -1q-10 0 -10 10t10 10t10 -10t-10 -10zM86 32q-10 0 -10 10t10 10t10 -10t-10 -10zM86 65q-10 0 -10 10t10 10t10 -10t-10 -10z " />
<glyph unicode=";" horiz-adv-x="171" d="M97 -1q-10 0 -10 10t10 10t10 -10t-10 -10zM97 32q-10 0 -10 10t10 10t10 -10t-10 -10zM97 65q-10 0 -10 10t10 10t10 -10t-10 -10zM90 -32q-10 0 -10 10t10 10t10 -10t-10 -10zM61 -42q-10 0 -10 10t10 10t10 -10t-10 -10zM98 431q-10 0 -10 10t10 10t10 -10t-10 -10z M98 464q-10 0 -10 10t10 10t10 -10t-10 -10zM98 497q-10 0 -10 10t10 10t10 -10t-10 -10z" />
<glyph unicode="&#x3c;" horiz-adv-x="505" d="M63 249q-10 0 -10 10t10 10t10 -10t-10 -10zM282 389q-10 0 -10 10t10 10t10 -10t-10 -10zM248 368q-10 0 -10 10t10 10t10 -10t-10 -10zM215 349q-10 0 -10 10t10 10t10 -10t-10 -10zM184 330q-10 0 -10 10t10 10t10 -10t-10 -10zM153 311q-10 0 -10 10t10 10t10 -10 t-10 -10zM122 292q-10 0 -10 10t10 10t10 -10t-10 -10zM91 272q-10 0 -10 10t10 10t10 -10t-10 -10zM442 486q-10 0 -10 10t10 10t10 -10t-10 -10zM408 465q-10 0 -10 10t10 10t10 -10t-10 -10zM375 446q-10 0 -10 10t10 10t10 -10t-10 -10zM344 427q-10 0 -10 10t10 10 t10 -10t-10 -10zM313 408q-10 0 -10 10t10 10t10 -10t-10 -10zM282 127q10 0 10 -10t-10 -10t-10 10t10 10zM248 148q10 0 10 -10t-10 -10t-10 10t10 10zM215 167q10 0 10 -10t-10 -10t-10 10t10 10zM184 186q10 0 10 -10t-10 -10t-10 10t10 10zM153 205q10 0 10 -10 t-10 -10t-10 10t10 10zM122 224q10 0 10 -10t-10 -10t-10 10t10 10zM91 244q10 0 10 -10t-10 -10t-10 10t10 10zM442 30q10 0 10 -10t-10 -10t-10 10t10 10zM408 51q10 0 10 -10t-10 -10t-10 10t10 10zM375 70q10 0 10 -10t-10 -10t-10 10t10 10zM344 89q10 0 10 -10 t-10 -10t-10 10t10 10zM313 108q10 0 10 -10t-10 -10t-10 10t10 10z" />
<glyph unicode="=" horiz-adv-x="444" d="M93 308q-10 0 -10 10t10 10t10 -10t-10 -10zM130 308q-10 0 -10 10t10 10t10 -10t-10 -10zM167 308q-10 0 -10 10t10 10t10 -10t-10 -10zM204 308q-10 0 -10 10t10 10t10 -10t-10 -10zM241 308q-10 0 -10 10t10 10t10 -10t-10 -10zM278 308q-10 0 -10 10t10 10t10 -10 t-10 -10zM315 308q-10 0 -10 10t10 10t10 -10t-10 -10zM352 308q-10 0 -10 10t10 10t10 -10t-10 -10zM93 224q-10 0 -10 10t10 10t10 -10t-10 -10zM130 224q-10 0 -10 10t10 10t10 -10t-10 -10zM167 224q-10 0 -10 10t10 10t10 -10t-10 -10zM204 224q-10 0 -10 10t10 10 t10 -10t-10 -10zM241 224q-10 0 -10 10t10 10t10 -10t-10 -10zM278 224q-10 0 -10 10t10 10t10 -10t-10 -10zM315 224q-10 0 -10 10t10 10t10 -10t-10 -10zM352 224q-10 0 -10 10t10 10t10 -10t-10 -10z" />
<glyph unicode="&#x3e;" horiz-adv-x="505" d="M444 249q-10 0 -10 10t10 10t10 -10t-10 -10zM225 389q-10 0 -10 10t10 10t10 -10t-10 -10zM259 368q-10 0 -10 10t10 10t10 -10t-10 -10zM292 349q-10 0 -10 10t10 10t10 -10t-10 -10zM323 330q-10 0 -10 10t10 10t10 -10t-10 -10zM354 311q-10 0 -10 10t10 10t10 -10 t-10 -10zM385 292q-10 0 -10 10t10 10t10 -10t-10 -10zM416 272q-10 0 -10 10t10 10t10 -10t-10 -10zM65 486q-10 0 -10 10t10 10t10 -10t-10 -10zM99 465q-10 0 -10 10t10 10t10 -10t-10 -10zM132 446q-10 0 -10 10t10 10t10 -10t-10 -10zM163 427q-10 0 -10 10t10 10 t10 -10t-10 -10zM194 408q-10 0 -10 10t10 10t10 -10t-10 -10zM225 127q10 0 10 -10t-10 -10t-10 10t10 10zM259 148q10 0 10 -10t-10 -10t-10 10t10 10zM292 167q10 0 10 -10t-10 -10t-10 10t10 10zM323 186q10 0 10 -10t-10 -10t-10 10t10 10zM354 205q10 0 10 -10 t-10 -10t-10 10t10 10zM385 224q10 0 10 -10t-10 -10t-10 10t10 10zM416 244q10 0 10 -10t-10 -10t-10 10t10 10zM65 30q10 0 10 -10t-10 -10t-10 10t10 10zM99 51q10 0 10 -10t-10 -10t-10 10t10 10zM132 70q10 0 10 -10t-10 -10t-10 10t10 10zM163 89q10 0 10 -10t-10 -10 t-10 10t10 10zM194 108q10 0 10 -10t-10 -10t-10 10t10 10z" />
<glyph unicode="?" horiz-adv-x="473" d="M188 -1q-10 0 -10 10t10 10t10 -10t-10 -10zM188 32q-10 0 -10 10t10 10t10 -10t-10 -10zM188 65q-10 0 -10 10t10 10t10 -10t-10 -10zM188 186q-10 0 -10 10t10 10t10 -10t-10 -10zM190 219q-10 0 -10 10t10 10t10 -10t-10 -10zM196 252q-10 0 -10 10t10 10t10 -10 t-10 -10zM206 285q-10 0 -10 10t10 10t10 -10t-10 -10zM225 314q-10 0 -10 10t10 10t10 -10t-10 -10zM252 337q-10 0 -10 10t10 10t10 -10t-10 -10zM283 355q-10 0 -10 10t10 10t10 -10t-10 -10zM314 371q-10 0 -10 10t10 10t10 -10t-10 -10zM345 388q-10 0 -10 10t10 10 t10 -10t-10 -10zM374 410q-10 0 -10 10t10 10t10 -10t-10 -10zM397 438q-10 0 -10 10t10 10t10 -10t-10 -10zM412 471q-10 0 -10 10t10 10t10 -10t-10 -10zM418 505q-10 0 -10 10t10 10t10 -10t-10 -10zM417 541q-10 0 -10 10t10 10t10 -10t-10 -10zM410 577q-10 0 -10 10 t10 10t10 -10t-10 -10zM396 611q-10 0 -10 10t10 10t10 -10t-10 -10zM375 641q-10 0 -10 10t10 10t10 -10t-10 -10zM348 664q-10 0 -10 10t10 10t10 -10t-10 -10zM314 681q-10 0 -10 10t10 10t10 -10t-10 -10zM277 692q-10 0 -10 10t10 10t10 -10t-10 -10zM240 694 q-10 0 -10 10t10 10t10 -10t-10 -10zM203 690q-10 0 -10 10t10 10t10 -10t-10 -10zM167 680q-10 0 -10 10t10 10t10 -10t-10 -10zM133 664q-10 0 -10 10t10 10t10 -10t-10 -10zM103 643q-10 0 -10 10t10 10t10 -10t-10 -10zM79 619q-10 0 -10 10t10 10t10 -10t-10 -10z M60 591q-10 0 -10 10t10 10t10 -10t-10 -10z" />
<glyph unicode="@" horiz-adv-x="821" d="M290 384q-10 0 -10 10t10 10t10 -10t-10 -10zM323 403q-10 0 -10 10t10 10t10 -10t-10 -10zM359 417q-10 0 -10 10t10 10t10 -10t-10 -10zM396 425q-10 0 -10 10t10 10t10 -10t-10 -10zM433 427q-10 0 -10 10t10 10t10 -10t-10 -10zM471 422q-10 0 -10 10t10 10t10 -10 t-10 -10zM507 408q-10 0 -10 10t10 10t10 -10t-10 -10zM537 383q-10 0 -10 10t10 10t10 -10t-10 -10zM555 348q-10 0 -10 10t10 10t10 -10t-10 -10zM565 310q-10 0 -10 10t10 10t10 -10t-10 -10zM569 274q-10 0 -10 10t10 10t10 -10t-10 -10zM569 238q-10 0 -10 10t10 10 t10 -10t-10 -10zM569 202q-10 0 -10 10t10 10t10 -10t-10 -10zM569 166q-10 0 -10 10t10 10t10 -10t-10 -10zM569 130q-10 0 -10 10t10 10t10 -10t-10 -10zM569 94q-10 0 -10 10t10 10t10 -10t-10 -10zM569 58q-10 0 -10 10t10 10t10 -10t-10 -10zM580 22q-10 0 -10 10 t10 10t10 -10t-10 -10zM601 -7q-10 0 -10 10t10 10t10 -10t-10 -10zM637 -15q-10 0 -10 10t10 10t10 -10t-10 -10zM673 -6q-10 0 -10 10t10 10t10 -10t-10 -10zM703 13q-10 0 -10 10t10 10t10 -10t-10 -10zM727 43q-10 0 -10 10t10 10t10 -10t-10 -10zM743 78q-10 0 -10 10 t10 10t10 -10t-10 -10zM754 114q-10 0 -10 10t10 10t10 -10t-10 -10zM761 151q-10 0 -10 10t10 10t10 -10t-10 -10zM764 188q-10 0 -10 10t10 10t10 -10t-10 -10zM542 74q-10 0 -10 10t10 10t10 -10t-10 -10zM516 52q-10 0 -10 10t10 10t10 -10t-10 -10zM484 34 q-10 0 -10 10t10 10t10 -10t-10 -10zM449 21q-10 0 -10 10t10 10t10 -10t-10 -10zM413 14q-10 0 -10 10t10 10t10 -10t-10 -10zM377 14q-10 0 -10 10t10 10t10 -10t-10 -10zM341 21q-10 0 -10 10t10 10t10 -10t-10 -10zM308 36q-10 0 -10 10t10 10t10 -10t-10 -10zM280 60 q-10 0 -10 10t10 10t10 -10t-10 -10zM263 93q-10 0 -10 10t10 10t10 -10t-10 -10zM256 129q-10 0 -10 10t10 10t10 -10t-10 -10zM261 165q-10 0 -10 10t10 10t10 -10t-10 -10zM281 197q-10 0 -10 10t10 10t10 -10t-10 -10zM310 220q-10 0 -10 10t10 10t10 -10t-10 -10z M345 235q-10 0 -10 10t10 10t10 -10t-10 -10zM383 243q-10 0 -10 10t10 10t10 -10t-10 -10zM421 246q-10 0 -10 10t10 10t10 -10t-10 -10zM459 243q-10 0 -10 10t10 10t10 -10t-10 -10zM498 236q-10 0 -10 10t10 10t10 -10t-10 -10zM536 226q-10 0 -10 10t10 10t10 -10 t-10 -10zM764 224q-10 0 -10 10t10 10t10 -10t-10 -10zM762 260q-10 0 -10 10t10 10t10 -10t-10 -10zM756 296q-10 0 -10 10t10 10t10 -10t-10 -10zM746 332q-10 0 -10 10t10 10t10 -10t-10 -10zM733 367q-10 0 -10 10t10 10t10 -10t-10 -10zM716 402q-10 0 -10 10t10 10 t10 -10t-10 -10zM694 436q-10 0 -10 10t10 10t10 -10t-10 -10zM670 467q-10 0 -10 10t10 10t10 -10t-10 -10zM640 496q-10 0 -10 10t10 10t10 -10t-10 -10zM608 522q-10 0 -10 10t10 10t10 -10t-10 -10zM573 543q-10 0 -10 10t10 10t10 -10t-10 -10zM535 560q-10 0 -10 10 t10 10t10 -10t-10 -10zM495 572q-10 0 -10 10t10 10t10 -10t-10 -10zM458 579q-10 0 -10 10t10 10t10 -10t-10 -10zM421 582q-10 0 -10 10t10 10t10 -10t-10 -10zM383 580q-10 0 -10 10t10 10t10 -10t-10 -10zM346 574q-10 0 -10 10t10 10t10 -10t-10 -10zM310 564 q-10 0 -10 10t10 10t10 -10t-10 -10zM274 550q-10 0 -10 10t10 10t10 -10t-10 -10zM240 532q-10 0 -10 10t10 10t10 -10t-10 -10zM208 510q-10 0 -10 10t10 10t10 -10t-10 -10zM179 486q-10 0 -10 10t10 10t10 -10t-10 -10zM153 457q-10 0 -10 10t10 10t10 -10t-10 -10z M127 426q-10 0 -10 10t10 10t10 -10t-10 -10zM107 391q-10 0 -10 10t10 10t10 -10t-10 -10zM90 354q-10 0 -10 10t10 10t10 -10t-10 -10zM78 315q-10 0 -10 10t10 10t10 -10t-10 -10zM70 274q-10 0 -10 10t10 10t10 -10t-10 -10zM66 236q-10 0 -10 10t10 10t10 -10t-10 -10z M67 197q-10 0 -10 10t10 10t10 -10t-10 -10zM71 158q-10 0 -10 10t10 10t10 -10t-10 -10zM79 119q-10 0 -10 10t10 10t10 -10t-10 -10zM91 81q-10 0 -10 10t10 10t10 -10t-10 -10zM108 45q-10 0 -10 10t10 10t10 -10t-10 -10zM128 11q-10 0 -10 10t10 10t10 -10t-10 -10z M152 -20q-10 0 -10 10t10 10t10 -10t-10 -10zM178 -48q-10 0 -10 10t10 10t10 -10t-10 -10zM208 -74q-10 0 -10 10t10 10t10 -10t-10 -10zM240 -96q-10 0 -10 10t10 10t10 -10t-10 -10zM276 -115q-10 0 -10 10t10 10t10 -10t-10 -10zM315 -130q-10 0 -10 10t10 10t10 -10 t-10 -10zM355 -139q-10 0 -10 10t10 10t10 -10t-10 -10zM395 -144q-10 0 -10 10t10 10t10 -10t-10 -10zM436 -143q-10 0 -10 10t10 10t10 -10t-10 -10zM476 -138q-10 0 -10 10t10 10t10 -10t-10 -10zM515 -129q-10 0 -10 10t10 10t10 -10t-10 -10zM552 -115q-10 0 -10 10 t10 10t10 -10t-10 -10z" />
<glyph unicode="A" horiz-adv-x="682" d="M312 626q-10 0 -10 10t10 10t10 -10t-10 -10zM298 594q-10 0 -10 10t10 10t10 -10t-10 -10zM341 690q-10 0 -10 10t10 10t10 -10t-10 -10zM256 498q-10 0 -10 10t10 10t10 -10t-10 -10zM242 466q-10 0 -10 10t10 10t10 -10t-10 -10zM284 562q-10 0 -10 10t10 10t10 -10 t-10 -10zM270 530q-10 0 -10 10t10 10t10 -10t-10 -10zM201 370q-10 0 -10 10t10 10t10 -10t-10 -10zM187 338q-10 0 -10 10t10 10t10 -10t-10 -10zM228 434q-10 0 -10 10t10 10t10 -10t-10 -10zM214 402q-10 0 -10 10t10 10t10 -10t-10 -10zM173 306q-10 0 -10 10t10 10 t10 -10t-10 -10zM159 274q-10 0 -10 10t10 10t10 -10t-10 -10zM326 658q-10 0 -10 10t10 10t10 -10t-10 -10zM132 210q-10 0 -10 10t10 10t10 -10t-10 -10zM118 178q-10 0 -10 10t10 10t10 -10t-10 -10zM76 82q-10 0 -10 10t10 10t10 -10t-10 -10zM62 50q-10 0 -10 10t10 10 t10 -10t-10 -10zM104 146q-10 0 -10 10t10 10t10 -10t-10 -10zM90 114q-10 0 -10 10t10 10t10 -10t-10 -10zM48 18q-10 0 -10 10t10 10t10 -10t-10 -10zM34 -14q-10 0 -10 10t10 10t10 -10t-10 -10zM146 242q-10 0 -10 10t10 10t10 -10t-10 -10zM181 250q-10 0 -10 10t10 10 t10 -10t-10 -10zM213 250q-10 0 -10 10t10 10t10 -10t-10 -10zM245 250q-10 0 -10 10t10 10t10 -10t-10 -10zM277 250q-10 0 -10 10t10 10t10 -10t-10 -10zM309 250q-10 0 -10 10t10 10t10 -10t-10 -10zM341 250q-10 0 -10 10t10 10t10 -10t-10 -10zM373 250q-10 0 -10 10 t10 10t10 -10t-10 -10zM405 250q-10 0 -10 10t10 10t10 -10t-10 -10zM437 250q-10 0 -10 10t10 10t10 -10t-10 -10zM469 250q-10 0 -10 10t10 10t10 -10t-10 -10zM501 250q-10 0 -10 10t10 10t10 -10t-10 -10zM371 626q-10 0 -10 10t10 10t10 -10t-10 -10zM385 594 q-10 0 -10 10t10 10t10 -10t-10 -10zM427 498q-10 0 -10 10t10 10t10 -10t-10 -10zM441 466q-10 0 -10 10t10 10t10 -10t-10 -10zM399 562q-10 0 -10 10t10 10t10 -10t-10 -10zM413 530q-10 0 -10 10t10 10t10 -10t-10 -10zM482 370q-10 0 -10 10t10 10t10 -10t-10 -10z M496 338q-10 0 -10 10t10 10t10 -10t-10 -10zM455 434q-10 0 -10 10t10 10t10 -10t-10 -10zM469 402q-10 0 -10 10t10 10t10 -10t-10 -10zM510 306q-10 0 -10 10t10 10t10 -10t-10 -10zM524 274q-10 0 -10 10t10 10t10 -10t-10 -10zM357 658q-10 0 -10 10t10 10t10 -10 t-10 -10zM551 210q-10 0 -10 10t10 10t10 -10t-10 -10zM565 178q-10 0 -10 10t10 10t10 -10t-10 -10zM607 82q-10 0 -10 10t10 10t10 -10t-10 -10zM621 50q-10 0 -10 10t10 10t10 -10t-10 -10zM579 146q-10 0 -10 10t10 10t10 -10t-10 -10zM593 114q-10 0 -10 10t10 10 t10 -10t-10 -10zM635 18q-10 0 -10 10t10 10t10 -10t-10 -10zM649 -14q-10 0 -10 10t10 10t10 -10t-10 -10zM537 242q-10 0 -10 10t10 10t10 -10t-10 -10z" />
<glyph unicode="B" horiz-adv-x="662" d="M116 211q-10 0 -10 10t10 10t10 -10t-10 -10zM116 170q-10 0 -10 10t10 10t10 -10t-10 -10zM116 129q-10 0 -10 10t10 10t10 -10t-10 -10zM116 88q-10 0 -10 10t10 10t10 -10t-10 -10zM116 529q-10 0 -10 10t10 10t10 -10t-10 -10zM116 490q-10 0 -10 10t10 10t10 -10 t-10 -10zM116 447q-10 0 -10 10t10 10t10 -10t-10 -10zM116 367q-10 0 -10 10t10 10t10 -10t-10 -10zM116 330q-10 0 -10 10t10 10t10 -10t-10 -10zM116 290q-10 0 -10 10t10 10t10 -10t-10 -10zM116 250q-10 0 -10 10t10 10t10 -10t-10 -10zM116 680q-10 0 -10 10t10 10 t10 -10t-10 -10zM116 643q-10 0 -10 10t10 10t10 -10t-10 -10zM116 605q-10 0 -10 10t10 10t10 -10t-10 -10zM116 569q-10 0 -10 10t10 10t10 -10t-10 -10zM116 407q-10 0 -10 10t10 10t10 -10t-10 -10zM116 48q-10 0 -10 10t10 10t10 -10t-10 -10zM116 8q-10 0 -10 10 t10 10t10 -10t-10 -10zM149 349q-10 0 -10 10t10 10t10 -10t-10 -10zM184 349q-10 0 -10 10t10 10t10 -10t-10 -10zM219 349q-10 0 -10 10t10 10t10 -10t-10 -10zM254 349q-10 0 -10 10t10 10t10 -10t-10 -10zM289 349q-10 0 -10 10t10 10t10 -10t-10 -10zM324 349 q-10 0 -10 10t10 10t10 -10t-10 -10zM359 349q-10 0 -10 10t10 10t10 -10t-10 -10zM394 349q-10 0 -10 10t10 10t10 -10t-10 -10zM429 349q-10 0 -10 10t10 10t10 -10t-10 -10zM149 6q-10 0 -10 10t10 10t10 -10t-10 -10zM184 6q-10 0 -10 10t10 10t10 -10t-10 -10zM219 6 q-10 0 -10 10t10 10t10 -10t-10 -10zM254 6q-10 0 -10 10t10 10t10 -10t-10 -10zM289 6q-10 0 -10 10t10 10t10 -10t-10 -10zM324 6q-10 0 -10 10t10 10t10 -10t-10 -10zM359 6q-10 0 -10 10t10 10t10 -10t-10 -10zM394 6q-10 0 -10 10t10 10t10 -10t-10 -10zM429 6 q-10 0 -10 10t10 10t10 -10t-10 -10zM149 684q-10 0 -10 10t10 10t10 -10t-10 -10zM184 684q-10 0 -10 10t10 10t10 -10t-10 -10zM219 684q-10 0 -10 10t10 10t10 -10t-10 -10zM254 684q-10 0 -10 10t10 10t10 -10t-10 -10zM289 684q-10 0 -10 10t10 10t10 -10t-10 -10z M324 684q-10 0 -10 10t10 10t10 -10t-10 -10zM359 684q-10 0 -10 10t10 10t10 -10t-10 -10zM394 684q-10 0 -10 10t10 10t10 -10t-10 -10zM430 683q-10 0 -10 10t10 10t10 -10t-10 -10zM462 350q-10 0 -10 10t10 10t10 -10t-10 -10zM494 377q-10 0 -10 10t10 10t10 -10 t-10 -10zM520 400q-10 0 -10 10t10 10t10 -10t-10 -10zM541 428q-10 0 -10 10t10 10t10 -10t-10 -10zM556 461q-10 0 -10 10t10 10t10 -10t-10 -10zM563 498q-10 0 -10 10t10 10t10 -10t-10 -10zM564 535q-10 0 -10 10t10 10t10 -10t-10 -10zM558 569q-10 0 -10 10t10 10 t10 -10t-10 -10zM544 603q-10 0 -10 10t10 10t10 -10t-10 -10zM524 634q-10 0 -10 10t10 10t10 -10t-10 -10zM497 660q-10 0 -10 10t10 10t10 -10t-10 -10zM465 677q-10 0 -10 10t10 10t10 -10t-10 -10zM463 29q10 0 10 -10t-10 -10t-10 10t10 10zM492 353q10 0 10 -10 t-10 -10t-10 10t10 10zM524 338q10 0 10 -10t-10 -10t-10 10t10 10zM550 315q10 0 10 -10t-10 -10t-10 10t10 10zM571 287q10 0 10 -10t-10 -10t-10 10t10 10zM586 254q10 0 10 -10t-10 -10t-10 10t10 10zM593 217q10 0 10 -10t-10 -10t-10 10t10 10zM594 180q10 0 10 -10 t-10 -10t-10 10t10 10zM588 146q10 0 10 -10t-10 -10t-10 10t10 10zM574 112q10 0 10 -10t-10 -10t-10 10t10 10zM554 81q10 0 10 -10t-10 -10t-10 10t10 10zM527 55q10 0 10 -10t-10 -10t-10 10t10 10zM495 38q10 0 10 -10t-10 -10t-10 10t10 10z" />
<glyph unicode="C" horiz-adv-x="698" d="M646 144q-10 0 -10 10t10 10t10 -10t-10 -10zM623 109q-10 0 -10 10t10 10t10 -10t-10 -10zM596 80q-10 0 -10 10t10 10t10 -10t-10 -10zM565 52q-10 0 -10 10t10 10t10 -10t-10 -10zM530 30q-10 0 -10 10t10 10t10 -10t-10 -10zM491 13q-10 0 -10 10t10 10t10 -10 t-10 -10zM450 1q-10 0 -10 10t10 10t10 -10t-10 -10zM408 -5q-10 0 -10 10t10 10t10 -10t-10 -10zM366 -6q-10 0 -10 10t10 10t10 -10t-10 -10zM324 0q-10 0 -10 10t10 10t10 -10t-10 -10zM284 13q-10 0 -10 10t10 10t10 -10t-10 -10zM245 32q-10 0 -10 10t10 10t10 -10 t-10 -10zM61 339q-10 0 -10 10t10 10t10 -10t-10 -10zM64 297q-10 0 -10 10t10 10t10 -10t-10 -10zM73 256q-10 0 -10 10t10 10t10 -10t-10 -10zM86 214q-10 0 -10 10t10 10t10 -10t-10 -10zM104 177q-10 0 -10 10t10 10t10 -10t-10 -10zM122 143q-10 0 -10 10t10 10t10 -10 t-10 -10zM149 110q-10 0 -10 10t10 10t10 -10t-10 -10zM178 81q-10 0 -10 10t10 10t10 -10t-10 -10zM211 55q-10 0 -10 10t10 10t10 -10t-10 -10zM632 564q10 0 10 -10t-10 -10t-10 10t10 10zM610 598q10 0 10 -10t-10 -10t-10 10t10 10zM583 630q10 0 10 -10t-10 -10 t-10 10t10 10zM552 658q10 0 10 -10t-10 -10t-10 10t10 10zM515 679q10 0 10 -10t-10 -10t-10 10t10 10zM477 695q10 0 10 -10t-10 -10t-10 10t10 10zM438 707q10 0 10 -10t-10 -10t-10 10t10 10zM398 712q10 0 10 -10t-10 -10t-10 10t10 10zM357 712q10 0 10 -10t-10 -10 t-10 10t10 10zM317 706q10 0 10 -10t-10 -10t-10 10t10 10zM276 694q10 0 10 -10t-10 -10t-10 10t10 10zM238 678q10 0 10 -10t-10 -10t-10 10t10 10zM62 402q10 0 10 -10t-10 -10t-10 10t10 10zM68 443q10 0 10 -10t-10 -10t-10 10t10 10zM79 483q10 0 10 -10t-10 -10 t-10 10t10 10zM94 523q10 0 10 -10t-10 -10t-10 10t10 10zM114 559q10 0 10 -10t-10 -10t-10 10t10 10zM138 593q10 0 10 -10t-10 -10t-10 10t10 10zM168 627q10 0 10 -10t-10 -10t-10 10t10 10zM201 655q10 0 10 -10t-10 -10t-10 10t10 10z" />
<glyph unicode="D" horiz-adv-x="718" d="M116 211q-10 0 -10 10t10 10t10 -10t-10 -10zM116 170q-10 0 -10 10t10 10t10 -10t-10 -10zM116 129q-10 0 -10 10t10 10t10 -10t-10 -10zM116 88q-10 0 -10 10t10 10t10 -10t-10 -10zM116 529q-10 0 -10 10t10 10t10 -10t-10 -10zM116 490q-10 0 -10 10t10 10t10 -10 t-10 -10zM116 447q-10 0 -10 10t10 10t10 -10t-10 -10zM116 367q-10 0 -10 10t10 10t10 -10t-10 -10zM116 330q-10 0 -10 10t10 10t10 -10t-10 -10zM116 290q-10 0 -10 10t10 10t10 -10t-10 -10zM116 250q-10 0 -10 10t10 10t10 -10t-10 -10zM116 680q-10 0 -10 10t10 10 t10 -10t-10 -10zM116 643q-10 0 -10 10t10 10t10 -10t-10 -10zM116 605q-10 0 -10 10t10 10t10 -10t-10 -10zM116 569q-10 0 -10 10t10 10t10 -10t-10 -10zM116 407q-10 0 -10 10t10 10t10 -10t-10 -10zM116 48q-10 0 -10 10t10 10t10 -10t-10 -10zM116 8q-10 0 -10 10 t10 10t10 -10t-10 -10zM149 6q-10 0 -10 10t10 10t10 -10t-10 -10zM184 6q-10 0 -10 10t10 10t10 -10t-10 -10zM219 6q-10 0 -10 10t10 10t10 -10t-10 -10zM254 6q-10 0 -10 10t10 10t10 -10t-10 -10zM291 6q-10 0 -10 10t10 10t10 -10t-10 -10zM329 6q-10 0 -10 10t10 10 t10 -10t-10 -10zM367 7q-10 0 -10 10t10 10t10 -10t-10 -10zM406 12q-10 0 -10 10t10 10t10 -10t-10 -10zM448 22q-10 0 -10 10t10 10t10 -10t-10 -10zM149 683q-10 0 -10 10t10 10t10 -10t-10 -10zM184 683q-10 0 -10 10t10 10t10 -10t-10 -10zM219 683q-10 0 -10 10t10 10 t10 -10t-10 -10zM254 683q-10 0 -10 10t10 10t10 -10t-10 -10zM289 683q-10 0 -10 10t10 10t10 -10t-10 -10zM324 683q-10 0 -10 10t10 10t10 -10t-10 -10zM359 682q-10 0 -10 10t10 10t10 -10t-10 -10zM394 679q-10 0 -10 10t10 10t10 -10t-10 -10zM429 673q-10 0 -10 10 t10 10t10 -10t-10 -10zM486 38q-10 0 -10 10t10 10t10 -10t-10 -10zM463 661q-10 0 -10 10t10 10t10 -10t-10 -10zM494 646q-10 0 -10 10t10 10t10 -10t-10 -10zM525 627q-10 0 -10 10t10 10t10 -10t-10 -10zM552 603q-10 0 -10 10t10 10t10 -10t-10 -10zM576 575 q-10 0 -10 10t10 10t10 -10t-10 -10zM598 546q-10 0 -10 10t10 10t10 -10t-10 -10zM614 513q-10 0 -10 10t10 10t10 -10t-10 -10zM626 478q-10 0 -10 10t10 10t10 -10t-10 -10zM636 443q-10 0 -10 10t10 10t10 -10t-10 -10zM644 408q-10 0 -10 10t10 10t10 -10t-10 -10z M648 371q-10 0 -10 10t10 10t10 -10t-10 -10zM649 332q-10 0 -10 10t10 10t10 -10t-10 -10zM648 295q-10 0 -10 10t10 10t10 -10t-10 -10zM643 260q-10 0 -10 10t10 10t10 -10t-10 -10zM634 223q-10 0 -10 10t10 10t10 -10t-10 -10zM620 186q-10 0 -10 10t10 10t10 -10 t-10 -10zM602 152q-10 0 -10 10t10 10t10 -10t-10 -10zM581 115q-10 0 -10 10t10 10t10 -10t-10 -10zM553 84q-10 0 -10 10t10 10t10 -10t-10 -10zM521 59q-10 0 -10 10t10 10t10 -10t-10 -10z" />
<glyph unicode="E" horiz-adv-x="617" d="M116 211q-10 0 -10 10t10 10t10 -10t-10 -10zM116 170q-10 0 -10 10t10 10t10 -10t-10 -10zM116 129q-10 0 -10 10t10 10t10 -10t-10 -10zM116 88q-10 0 -10 10t10 10t10 -10t-10 -10zM116 529q-10 0 -10 10t10 10t10 -10t-10 -10zM116 490q-10 0 -10 10t10 10t10 -10 t-10 -10zM116 447q-10 0 -10 10t10 10t10 -10t-10 -10zM116 367q-10 0 -10 10t10 10t10 -10t-10 -10zM116 330q-10 0 -10 10t10 10t10 -10t-10 -10zM116 290q-10 0 -10 10t10 10t10 -10t-10 -10zM116 250q-10 0 -10 10t10 10t10 -10t-10 -10zM116 680q-10 0 -10 10t10 10 t10 -10t-10 -10zM116 643q-10 0 -10 10t10 10t10 -10t-10 -10zM116 605q-10 0 -10 10t10 10t10 -10t-10 -10zM116 569q-10 0 -10 10t10 10t10 -10t-10 -10zM116 407q-10 0 -10 10t10 10t10 -10t-10 -10zM116 48q-10 0 -10 10t10 10t10 -10t-10 -10zM116 8q-10 0 -10 10 t10 10t10 -10t-10 -10zM153 681q-10 0 -10 10t10 10t10 -10t-10 -10zM188 681q-10 0 -10 10t10 10t10 -10t-10 -10zM223 681q-10 0 -10 10t10 10t10 -10t-10 -10zM259 681q-10 0 -10 10t10 10t10 -10t-10 -10zM295 681q-10 0 -10 10t10 10t10 -10t-10 -10zM330 681 q-10 0 -10 10t10 10t10 -10t-10 -10zM365 681q-10 0 -10 10t10 10t10 -10t-10 -10zM401 681q-10 0 -10 10t10 10t10 -10t-10 -10zM436 681q-10 0 -10 10t10 10t10 -10t-10 -10zM472 681q-10 0 -10 10t10 10t10 -10t-10 -10zM508 681q-10 0 -10 10t10 10t10 -10t-10 -10z M543 681q-10 0 -10 10t10 10t10 -10t-10 -10zM149 350q-10 0 -10 10t10 10t10 -10t-10 -10zM184 350q-10 0 -10 10t10 10t10 -10t-10 -10zM219 350q-10 0 -10 10t10 10t10 -10t-10 -10zM255 350q-10 0 -10 10t10 10t10 -10t-10 -10zM291 350q-10 0 -10 10t10 10t10 -10 t-10 -10zM326 350q-10 0 -10 10t10 10t10 -10t-10 -10zM361 350q-10 0 -10 10t10 10t10 -10t-10 -10zM397 350q-10 0 -10 10t10 10t10 -10t-10 -10zM432 350q-10 0 -10 10t10 10t10 -10t-10 -10zM468 350q-10 0 -10 10t10 10t10 -10t-10 -10zM504 350q-10 0 -10 10t10 10 t10 -10t-10 -10zM151 7q-10 0 -10 10t10 10t10 -10t-10 -10zM186 7q-10 0 -10 10t10 10t10 -10t-10 -10zM221 7q-10 0 -10 10t10 10t10 -10t-10 -10zM257 7q-10 0 -10 10t10 10t10 -10t-10 -10zM293 7q-10 0 -10 10t10 10t10 -10t-10 -10zM328 7q-10 0 -10 10t10 10t10 -10 t-10 -10zM363 7q-10 0 -10 10t10 10t10 -10t-10 -10zM399 7q-10 0 -10 10t10 10t10 -10t-10 -10zM434 7q-10 0 -10 10t10 10t10 -10t-10 -10zM470 7q-10 0 -10 10t10 10t10 -10t-10 -10zM506 7q-10 0 -10 10t10 10t10 -10t-10 -10zM541 7q-10 0 -10 10t10 10t10 -10t-10 -10 z" />
<glyph unicode="F" horiz-adv-x="593" d="M116 211q-10 0 -10 10t10 10t10 -10t-10 -10zM116 170q-10 0 -10 10t10 10t10 -10t-10 -10zM116 129q-10 0 -10 10t10 10t10 -10t-10 -10zM116 88q-10 0 -10 10t10 10t10 -10t-10 -10zM116 529q-10 0 -10 10t10 10t10 -10t-10 -10zM116 490q-10 0 -10 10t10 10t10 -10 t-10 -10zM116 447q-10 0 -10 10t10 10t10 -10t-10 -10zM116 367q-10 0 -10 10t10 10t10 -10t-10 -10zM116 330q-10 0 -10 10t10 10t10 -10t-10 -10zM116 290q-10 0 -10 10t10 10t10 -10t-10 -10zM116 250q-10 0 -10 10t10 10t10 -10t-10 -10zM116 680q-10 0 -10 10t10 10 t10 -10t-10 -10zM116 643q-10 0 -10 10t10 10t10 -10t-10 -10zM116 605q-10 0 -10 10t10 10t10 -10t-10 -10zM116 569q-10 0 -10 10t10 10t10 -10t-10 -10zM116 407q-10 0 -10 10t10 10t10 -10t-10 -10zM116 48q-10 0 -10 10t10 10t10 -10t-10 -10zM116 8q-10 0 -10 10 t10 10t10 -10t-10 -10zM153 681q-10 0 -10 10t10 10t10 -10t-10 -10zM188 681q-10 0 -10 10t10 10t10 -10t-10 -10zM223 681q-10 0 -10 10t10 10t10 -10t-10 -10zM259 681q-10 0 -10 10t10 10t10 -10t-10 -10zM295 681q-10 0 -10 10t10 10t10 -10t-10 -10zM330 681 q-10 0 -10 10t10 10t10 -10t-10 -10zM365 681q-10 0 -10 10t10 10t10 -10t-10 -10zM401 681q-10 0 -10 10t10 10t10 -10t-10 -10zM436 681q-10 0 -10 10t10 10t10 -10t-10 -10zM472 681q-10 0 -10 10t10 10t10 -10t-10 -10zM508 681q-10 0 -10 10t10 10t10 -10t-10 -10z M543 681q-10 0 -10 10t10 10t10 -10t-10 -10zM149 350q-10 0 -10 10t10 10t10 -10t-10 -10zM184 350q-10 0 -10 10t10 10t10 -10t-10 -10zM219 350q-10 0 -10 10t10 10t10 -10t-10 -10zM255 350q-10 0 -10 10t10 10t10 -10t-10 -10zM291 350q-10 0 -10 10t10 10t10 -10 t-10 -10zM326 350q-10 0 -10 10t10 10t10 -10t-10 -10zM361 350q-10 0 -10 10t10 10t10 -10t-10 -10zM397 350q-10 0 -10 10t10 10t10 -10t-10 -10zM432 350q-10 0 -10 10t10 10t10 -10t-10 -10zM468 350q-10 0 -10 10t10 10t10 -10t-10 -10zM504 350q-10 0 -10 10t10 10 t10 -10t-10 -10z" />
<glyph unicode="G" horiz-adv-x="728" d="M621 109q-10 0 -10 10t10 10t10 -10t-10 -10zM596 80q-10 0 -10 10t10 10t10 -10t-10 -10zM565 52q-10 0 -10 10t10 10t10 -10t-10 -10zM530 30q-10 0 -10 10t10 10t10 -10t-10 -10zM491 13q-10 0 -10 10t10 10t10 -10t-10 -10zM450 1q-10 0 -10 10t10 10t10 -10t-10 -10 zM408 -5q-10 0 -10 10t10 10t10 -10t-10 -10zM366 -6q-10 0 -10 10t10 10t10 -10t-10 -10zM324 0q-10 0 -10 10t10 10t10 -10t-10 -10zM284 13q-10 0 -10 10t10 10t10 -10t-10 -10zM245 32q-10 0 -10 10t10 10t10 -10t-10 -10zM61 339q-10 0 -10 10t10 10t10 -10t-10 -10z M64 297q-10 0 -10 10t10 10t10 -10t-10 -10zM73 256q-10 0 -10 10t10 10t10 -10t-10 -10zM86 214q-10 0 -10 10t10 10t10 -10t-10 -10zM104 177q-10 0 -10 10t10 10t10 -10t-10 -10zM122 143q-10 0 -10 10t10 10t10 -10t-10 -10zM149 110q-10 0 -10 10t10 10t10 -10t-10 -10 zM178 81q-10 0 -10 10t10 10t10 -10t-10 -10zM211 55q-10 0 -10 10t10 10t10 -10t-10 -10zM632 564q10 0 10 -10t-10 -10t-10 10t10 10zM610 598q10 0 10 -10t-10 -10t-10 10t10 10zM583 630q10 0 10 -10t-10 -10t-10 10t10 10zM552 658q10 0 10 -10t-10 -10t-10 10t10 10z M515 679q10 0 10 -10t-10 -10t-10 10t10 10zM477 695q10 0 10 -10t-10 -10t-10 10t10 10zM438 707q10 0 10 -10t-10 -10t-10 10t10 10zM398 712q10 0 10 -10t-10 -10t-10 10t10 10zM357 712q10 0 10 -10t-10 -10t-10 10t10 10zM317 706q10 0 10 -10t-10 -10t-10 10t10 10z M276 694q10 0 10 -10t-10 -10t-10 10t10 10zM238 678q10 0 10 -10t-10 -10t-10 10t10 10zM62 402q10 0 10 -10t-10 -10t-10 10t10 10zM68 443q10 0 10 -10t-10 -10t-10 10t10 10zM79 483q10 0 10 -10t-10 -10t-10 10t10 10zM94 523q10 0 10 -10t-10 -10t-10 10t10 10z M114 559q10 0 10 -10t-10 -10t-10 10t10 10zM138 593q10 0 10 -10t-10 -10t-10 10t10 10zM168 627q10 0 10 -10t-10 -10t-10 10t10 10zM201 655q10 0 10 -10t-10 -10t-10 10t10 10zM648 194q-10 0 -10 10t10 10t10 -10t-10 -10zM648 153q-10 0 -10 10t10 10t10 -10t-10 -10z M649 115q-10 0 -10 10t10 10t10 -10t-10 -10zM648 77q-10 0 -10 10t10 10t10 -10t-10 -10zM648 313q-10 0 -10 10t10 10t10 -10t-10 -10zM648 273q-10 0 -10 10t10 10t10 -10t-10 -10zM648 233q-10 0 -10 10t10 10t10 -10t-10 -10zM648 37q-10 0 -10 10t10 10t10 -10 t-10 -10zM648 -3q-10 0 -10 10t10 10t10 -10t-10 -10zM472 314q-10 0 -10 10t10 10t10 -10t-10 -10zM507 314q-10 0 -10 10t10 10t10 -10t-10 -10zM542 314q-10 0 -10 10t10 10t10 -10t-10 -10zM577 314q-10 0 -10 10t10 10t10 -10t-10 -10zM612 314q-10 0 -10 10t10 10 t10 -10t-10 -10z" />
<glyph unicode="H" horiz-adv-x="736" d="M116 211q-10 0 -10 10t10 10t10 -10t-10 -10zM116 170q-10 0 -10 10t10 10t10 -10t-10 -10zM116 129q-10 0 -10 10t10 10t10 -10t-10 -10zM116 88q-10 0 -10 10t10 10t10 -10t-10 -10zM116 529q-10 0 -10 10t10 10t10 -10t-10 -10zM116 490q-10 0 -10 10t10 10t10 -10 t-10 -10zM116 447q-10 0 -10 10t10 10t10 -10t-10 -10zM116 367q-10 0 -10 10t10 10t10 -10t-10 -10zM116 330q-10 0 -10 10t10 10t10 -10t-10 -10zM116 290q-10 0 -10 10t10 10t10 -10t-10 -10zM116 250q-10 0 -10 10t10 10t10 -10t-10 -10zM116 680q-10 0 -10 10t10 10 t10 -10t-10 -10zM116 643q-10 0 -10 10t10 10t10 -10t-10 -10zM116 605q-10 0 -10 10t10 10t10 -10t-10 -10zM116 569q-10 0 -10 10t10 10t10 -10t-10 -10zM116 407q-10 0 -10 10t10 10t10 -10t-10 -10zM116 48q-10 0 -10 10t10 10t10 -10t-10 -10zM116 8q-10 0 -10 10 t10 10t10 -10t-10 -10zM146 353q-10 0 -10 10t10 10t10 -10t-10 -10zM183 353q-10 0 -10 10t10 10t10 -10t-10 -10zM220 353q-10 0 -10 10t10 10t10 -10t-10 -10zM257 353q-10 0 -10 10t10 10t10 -10t-10 -10zM294 353q-10 0 -10 10t10 10t10 -10t-10 -10zM331 353 q-10 0 -10 10t10 10t10 -10t-10 -10zM368 353q-10 0 -10 10t10 10t10 -10t-10 -10zM405 353q-10 0 -10 10t10 10t10 -10t-10 -10zM442 353q-10 0 -10 10t10 10t10 -10t-10 -10zM479 353q-10 0 -10 10t10 10t10 -10t-10 -10zM516 353q-10 0 -10 10t10 10t10 -10t-10 -10z M622 211q-10 0 -10 10t10 10t10 -10t-10 -10zM622 170q-10 0 -10 10t10 10t10 -10t-10 -10zM622 129q-10 0 -10 10t10 10t10 -10t-10 -10zM622 88q-10 0 -10 10t10 10t10 -10t-10 -10zM622 529q-10 0 -10 10t10 10t10 -10t-10 -10zM622 490q-10 0 -10 10t10 10t10 -10 t-10 -10zM622 447q-10 0 -10 10t10 10t10 -10t-10 -10zM622 367q-10 0 -10 10t10 10t10 -10t-10 -10zM622 330q-10 0 -10 10t10 10t10 -10t-10 -10zM622 290q-10 0 -10 10t10 10t10 -10t-10 -10zM622 250q-10 0 -10 10t10 10t10 -10t-10 -10zM622 680q-10 0 -10 10t10 10 t10 -10t-10 -10zM622 643q-10 0 -10 10t10 10t10 -10t-10 -10zM622 605q-10 0 -10 10t10 10t10 -10t-10 -10zM622 569q-10 0 -10 10t10 10t10 -10t-10 -10zM622 407q-10 0 -10 10t10 10t10 -10t-10 -10zM622 48q-10 0 -10 10t10 10t10 -10t-10 -10zM622 8q-10 0 -10 10 t10 10t10 -10t-10 -10zM555 353q-10 0 -10 10t10 10t10 -10t-10 -10zM592 353q-10 0 -10 10t10 10t10 -10t-10 -10z" />
<glyph unicode="I" horiz-adv-x="230" d="M116 706q-10 0 -10 10t10 10t10 -10t-10 -10zM116 672q-10 0 -10 10t10 10t10 -10t-10 -10zM116 637q-10 0 -10 10t10 10t10 -10t-10 -10zM116 602q-10 0 -10 10t10 10t10 -10t-10 -10zM116 567q-10 0 -10 10t10 10t10 -10t-10 -10zM116 532q-10 0 -10 10t10 10t10 -10 t-10 -10zM116 497q-10 0 -10 10t10 10t10 -10t-10 -10zM116 462q-10 0 -10 10t10 10t10 -10t-10 -10zM116 426q-10 0 -10 10t10 10t10 -10t-10 -10zM116 391q-10 0 -10 10t10 10t10 -10t-10 -10zM116 356q-10 0 -10 10t10 10t10 -10t-10 -10zM116 321q-10 0 -10 10t10 10 t10 -10t-10 -10zM116 286q-10 0 -10 10t10 10t10 -10t-10 -10zM116 251q-10 0 -10 10t10 10t10 -10t-10 -10zM116 216q-10 0 -10 10t10 10t10 -10t-10 -10zM116 181q-10 0 -10 10t10 10t10 -10t-10 -10zM116 144q-10 0 -10 10t10 10t10 -10t-10 -10zM116 109q-10 0 -10 10 t10 10t10 -10t-10 -10zM116 74q-10 0 -10 10t10 10t10 -10t-10 -10zM116 39q-10 0 -10 10t10 10t10 -10t-10 -10zM116 4q-10 0 -10 10t10 10t10 -10t-10 -10z" />
<glyph unicode="J" horiz-adv-x="482" d="M375 680q-10 0 -10 10t10 10t10 -10t-10 -10zM375 643q-10 0 -10 10t10 10t10 -10t-10 -10zM375 605q-10 0 -10 10t10 10t10 -10t-10 -10zM375 567q-10 0 -10 10t10 10t10 -10t-10 -10zM375 530q-10 0 -10 10t10 10t10 -10t-10 -10zM375 491q-10 0 -10 10t10 10t10 -10 t-10 -10zM375 447q-10 0 -10 10t10 10t10 -10t-10 -10zM375 410q-10 0 -10 10t10 10t10 -10t-10 -10zM375 369q-10 0 -10 10t10 10t10 -10t-10 -10zM375 330q-10 0 -10 10t10 10t10 -10t-10 -10zM375 291q-10 0 -10 10t10 10t10 -10t-10 -10zM374 251q-10 0 -10 10t10 10 t10 -10t-10 -10zM371 209q-10 0 -10 10t10 10t10 -10t-10 -10zM366 169q-10 0 -10 10t10 10t10 -10t-10 -10zM357 128q-10 0 -10 10t10 10t10 -10t-10 -10zM344 90q-10 0 -10 10t10 10t10 -10t-10 -10zM321 54q-10 0 -10 10t10 10t10 -10t-10 -10zM290 24q-10 0 -10 10 t10 10t10 -10t-10 -10zM251 5q-10 0 -10 10t10 10t10 -10t-10 -10zM209 -5q-10 0 -10 10t10 10t10 -10t-10 -10zM166 -6q-10 0 -10 10t10 10t10 -10t-10 -10zM121 0q-10 0 -10 10t10 10t10 -10t-10 -10zM77 12q-10 0 -10 10t10 10t10 -10t-10 -10zM39 31q-10 0 -10 10t10 10 t10 -10t-10 -10z" />
<glyph unicode="K" horiz-adv-x="628" d="M116 219q-10 0 -10 10t10 10t10 -10t-10 -10zM116 178q-10 0 -10 10t10 10t10 -10t-10 -10zM116 137q-10 0 -10 10t10 10t10 -10t-10 -10zM116 96q-10 0 -10 10t10 10t10 -10t-10 -10zM116 537q-10 0 -10 10t10 10t10 -10t-10 -10zM116 498q-10 0 -10 10t10 10t10 -10 t-10 -10zM116 455q-10 0 -10 10t10 10t10 -10t-10 -10zM116 375q-10 0 -10 10t10 10t10 -10t-10 -10zM116 338q-10 0 -10 10t10 10t10 -10t-10 -10zM116 298q-10 0 -10 10t10 10t10 -10t-10 -10zM116 258q-10 0 -10 10t10 10t10 -10t-10 -10zM116 688q-10 0 -10 10t10 10 t10 -10t-10 -10zM116 651q-10 0 -10 10t10 10t10 -10t-10 -10zM116 613q-10 0 -10 10t10 10t10 -10t-10 -10zM116 577q-10 0 -10 10t10 10t10 -10t-10 -10zM116 415q-10 0 -10 10t10 10t10 -10t-10 -10zM116 56q-10 0 -10 10t10 10t10 -10t-10 -10zM116 16q-10 0 -10 10 t10 10t10 -10t-10 -10zM515 624q-10 0 -10 10t10 10t10 -10t-10 -10zM569 679q-10 0 -10 10t10 10t10 -10t-10 -10zM541 652q-10 0 -10 10t10 10t10 -10t-10 -10zM435 542q-10 0 -10 10t10 10t10 -10t-10 -10zM489 597q-10 0 -10 10t10 10t10 -10t-10 -10zM461 570 q-10 0 -10 10t10 10t10 -10t-10 -10zM381 487q-10 0 -10 10t10 10t10 -10t-10 -10zM407 515q-10 0 -10 10t10 10t10 -10t-10 -10zM301 405q-10 0 -10 10t10 10t10 -10t-10 -10zM355 460q-10 0 -10 10t10 10t10 -10t-10 -10zM327 433q-10 0 -10 10t10 10t10 -10t-10 -10z M275 377q-10 0 -10 10t10 10t10 -10t-10 -10zM221 322q-10 0 -10 10t10 10t10 -10t-10 -10zM247 350q-10 0 -10 10t10 10t10 -10t-10 -10zM141 240q-10 0 -10 10t10 10t10 -10t-10 -10zM167 268q-10 0 -10 10t10 10t10 -10t-10 -10zM194 296q-10 0 -10 10t10 10t10 -10 t-10 -10zM329 339q-10 0 -10 10t10 10t10 -10t-10 -10zM353 310q-10 0 -10 10t10 10t10 -10t-10 -10zM425 218q-10 0 -10 10t10 10t10 -10t-10 -10zM449 188q-10 0 -10 10t10 10t10 -10t-10 -10zM376 280q-10 0 -10 10t10 10t10 -10t-10 -10zM401 248q-10 0 -10 10t10 10 t10 -10t-10 -10zM472 157q-10 0 -10 10t10 10t10 -10t-10 -10zM497 126q-10 0 -10 10t10 10t10 -10t-10 -10zM307 368q-10 0 -10 10t10 10t10 -10t-10 -10zM521 96q-10 0 -10 10t10 10t10 -10t-10 -10zM545 66q-10 0 -10 10t10 10t10 -10t-10 -10zM568 35q-10 0 -10 10 t10 10t10 -10t-10 -10zM593 4q-10 0 -10 10t10 10t10 -10t-10 -10z" />
<glyph unicode="L" horiz-adv-x="591" d="M113 706q-10 0 -10 10t10 10t10 -10t-10 -10zM113 672q-10 0 -10 10t10 10t10 -10t-10 -10zM113 637q-10 0 -10 10t10 10t10 -10t-10 -10zM113 602q-10 0 -10 10t10 10t10 -10t-10 -10zM113 567q-10 0 -10 10t10 10t10 -10t-10 -10zM113 532q-10 0 -10 10t10 10t10 -10 t-10 -10zM113 497q-10 0 -10 10t10 10t10 -10t-10 -10zM113 462q-10 0 -10 10t10 10t10 -10t-10 -10zM113 426q-10 0 -10 10t10 10t10 -10t-10 -10zM113 391q-10 0 -10 10t10 10t10 -10t-10 -10zM113 356q-10 0 -10 10t10 10t10 -10t-10 -10zM113 321q-10 0 -10 10t10 10 t10 -10t-10 -10zM113 286q-10 0 -10 10t10 10t10 -10t-10 -10zM113 251q-10 0 -10 10t10 10t10 -10t-10 -10zM113 216q-10 0 -10 10t10 10t10 -10t-10 -10zM113 181q-10 0 -10 10t10 10t10 -10t-10 -10zM113 144q-10 0 -10 10t10 10t10 -10t-10 -10zM113 109q-10 0 -10 10 t10 10t10 -10t-10 -10zM113 74q-10 0 -10 10t10 10t10 -10t-10 -10zM113 39q-10 0 -10 10t10 10t10 -10t-10 -10zM113 4q-10 0 -10 10t10 10t10 -10t-10 -10zM148 4q-10 0 -10 10t10 10t10 -10t-10 -10zM183 4q-10 0 -10 10t10 10t10 -10t-10 -10zM218 4q-10 0 -10 10t10 10 t10 -10t-10 -10zM253 4q-10 0 -10 10t10 10t10 -10t-10 -10zM288 4q-10 0 -10 10t10 10t10 -10t-10 -10zM323 4q-10 0 -10 10t10 10t10 -10t-10 -10zM358 4q-10 0 -10 10t10 10t10 -10t-10 -10zM393 4q-10 0 -10 10t10 10t10 -10t-10 -10zM428 4q-10 0 -10 10t10 10t10 -10 t-10 -10zM463 4q-10 0 -10 10t10 10t10 -10t-10 -10zM498 4q-10 0 -10 10t10 10t10 -10t-10 -10zM533 4q-10 0 -10 10t10 10t10 -10t-10 -10zM568 4q-10 0 -10 10t10 10t10 -10t-10 -10z" />
<glyph unicode="M" horiz-adv-x="885" d="M109 213q-10 0 -10 10t10 10t10 -10t-10 -10zM109 172q-10 0 -10 10t10 10t10 -10t-10 -10zM109 131q-10 0 -10 10t10 10t10 -10t-10 -10zM109 90q-10 0 -10 10t10 10t10 -10t-10 -10zM109 531q-10 0 -10 10t10 10t10 -10t-10 -10zM109 492q-10 0 -10 10t10 10t10 -10 t-10 -10zM109 449q-10 0 -10 10t10 10t10 -10t-10 -10zM109 369q-10 0 -10 10t10 10t10 -10t-10 -10zM109 332q-10 0 -10 10t10 10t10 -10t-10 -10zM109 292q-10 0 -10 10t10 10t10 -10t-10 -10zM109 252q-10 0 -10 10t10 10t10 -10t-10 -10zM109 685q-10 0 -10 10t10 10 t10 -10t-10 -10zM109 645q-10 0 -10 10t10 10t10 -10t-10 -10zM109 607q-10 0 -10 10t10 10t10 -10t-10 -10zM109 571q-10 0 -10 10t10 10t10 -10t-10 -10zM109 409q-10 0 -10 10t10 10t10 -10t-10 -10zM109 50q-10 0 -10 10t10 10t10 -10t-10 -10zM109 10q-10 0 -10 10 t10 10t10 -10t-10 -10zM156 621q-10 0 -10 10t10 10t10 -10t-10 -10zM176 588q-10 0 -10 10t10 10t10 -10t-10 -10zM197 554q-10 0 -10 10t10 10t10 -10t-10 -10zM135 655q-10 0 -10 10t10 10t10 -10t-10 -10zM238 486q-10 0 -10 10t10 10t10 -10t-10 -10zM258 453 q-10 0 -10 10t10 10t10 -10t-10 -10zM279 419q-10 0 -10 10t10 10t10 -10t-10 -10zM299 385q-10 0 -10 10t10 10t10 -10t-10 -10zM217 520q-10 0 -10 10t10 10t10 -10t-10 -10zM320 351q-10 0 -10 10t10 10t10 -10t-10 -10zM340 318q-10 0 -10 10t10 10t10 -10t-10 -10z M361 284q-10 0 -10 10t10 10t10 -10t-10 -10zM299 385q-10 0 -10 10t10 10t10 -10t-10 -10zM402 216q-10 0 -10 10t10 10t10 -10t-10 -10zM422 183q-10 0 -10 10t10 10t10 -10t-10 -10zM443 149q-10 0 -10 10t10 10t10 -10t-10 -10zM381 250q-10 0 -10 10t10 10t10 -10 t-10 -10zM777 213q-10 0 -10 10t10 10t10 -10t-10 -10zM777 172q-10 0 -10 10t10 10t10 -10t-10 -10zM777 131q-10 0 -10 10t10 10t10 -10t-10 -10zM777 90q-10 0 -10 10t10 10t10 -10t-10 -10zM777 531q-10 0 -10 10t10 10t10 -10t-10 -10zM777 492q-10 0 -10 10t10 10 t10 -10t-10 -10zM777 449q-10 0 -10 10t10 10t10 -10t-10 -10zM777 369q-10 0 -10 10t10 10t10 -10t-10 -10zM777 332q-10 0 -10 10t10 10t10 -10t-10 -10zM777 292q-10 0 -10 10t10 10t10 -10t-10 -10zM777 252q-10 0 -10 10t10 10t10 -10t-10 -10zM777 685q-10 0 -10 10 t10 10t10 -10t-10 -10zM777 645q-10 0 -10 10t10 10t10 -10t-10 -10zM777 607q-10 0 -10 10t10 10t10 -10t-10 -10zM777 571q-10 0 -10 10t10 10t10 -10t-10 -10zM777 409q-10 0 -10 10t10 10t10 -10t-10 -10zM777 50q-10 0 -10 10t10 10t10 -10t-10 -10zM777 10 q-10 0 -10 10t10 10t10 -10t-10 -10zM730 621q-10 0 -10 10t10 10t10 -10t-10 -10zM710 588q-10 0 -10 10t10 10t10 -10t-10 -10zM689 554q-10 0 -10 10t10 10t10 -10t-10 -10zM751 655q-10 0 -10 10t10 10t10 -10t-10 -10zM648 486q-10 0 -10 10t10 10t10 -10t-10 -10z M628 453q-10 0 -10 10t10 10t10 -10t-10 -10zM607 419q-10 0 -10 10t10 10t10 -10t-10 -10zM587 385q-10 0 -10 10t10 10t10 -10t-10 -10zM669 520q-10 0 -10 10t10 10t10 -10t-10 -10zM566 351q-10 0 -10 10t10 10t10 -10t-10 -10zM546 318q-10 0 -10 10t10 10t10 -10 t-10 -10zM525 284q-10 0 -10 10t10 10t10 -10t-10 -10zM587 385q-10 0 -10 10t10 10t10 -10t-10 -10zM484 216q-10 0 -10 10t10 10t10 -10t-10 -10zM464 183q-10 0 -10 10t10 10t10 -10t-10 -10zM505 250q-10 0 -10 10t10 10t10 -10t-10 -10z" />
<glyph unicode="N" horiz-adv-x="778" d="M110 208q-10 0 -10 10t10 10t10 -10t-10 -10zM110 167q-10 0 -10 10t10 10t10 -10t-10 -10zM110 126q-10 0 -10 10t10 10t10 -10t-10 -10zM110 85q-10 0 -10 10t10 10t10 -10t-10 -10zM110 526q-10 0 -10 10t10 10t10 -10t-10 -10zM110 487q-10 0 -10 10t10 10t10 -10 t-10 -10zM110 444q-10 0 -10 10t10 10t10 -10t-10 -10zM110 364q-10 0 -10 10t10 10t10 -10t-10 -10zM110 327q-10 0 -10 10t10 10t10 -10t-10 -10zM110 287q-10 0 -10 10t10 10t10 -10t-10 -10zM110 247q-10 0 -10 10t10 10t10 -10t-10 -10zM110 680q-10 0 -10 10t10 10 t10 -10t-10 -10zM110 640q-10 0 -10 10t10 10t10 -10t-10 -10zM110 602q-10 0 -10 10t10 10t10 -10t-10 -10zM110 566q-10 0 -10 10t10 10t10 -10t-10 -10zM110 404q-10 0 -10 10t10 10t10 -10t-10 -10zM110 45q-10 0 -10 10t10 10t10 -10t-10 -10zM110 5q-10 0 -10 10 t10 10t10 -10t-10 -10zM160 631q-10 0 -10 10t10 10t10 -10t-10 -10zM136 661q-10 0 -10 10t10 10t10 -10t-10 -10zM184 601q-10 0 -10 10t10 10t10 -10t-10 -10zM208 571q-10 0 -10 10t10 10t10 -10t-10 -10zM232 541q-10 0 -10 10t10 10t10 -10t-10 -10zM256 511 q-10 0 -10 10t10 10t10 -10t-10 -10zM280 481q-10 0 -10 10t10 10t10 -10t-10 -10zM304 451q-10 0 -10 10t10 10t10 -10t-10 -10zM328 421q-10 0 -10 10t10 10t10 -10t-10 -10zM352 391q-10 0 -10 10t10 10t10 -10t-10 -10zM376 361q-10 0 -10 10t10 10t10 -10t-10 -10z M400 331q-10 0 -10 10t10 10t10 -10t-10 -10zM424 301q-10 0 -10 10t10 10t10 -10t-10 -10zM448 271q-10 0 -10 10t10 10t10 -10t-10 -10zM472 241q-10 0 -10 10t10 10t10 -10t-10 -10zM496 211q-10 0 -10 10t10 10t10 -10t-10 -10zM520 181q-10 0 -10 10t10 10t10 -10 t-10 -10zM544 151q-10 0 -10 10t10 10t10 -10t-10 -10zM568 121q-10 0 -10 10t10 10t10 -10t-10 -10zM592 91q-10 0 -10 10t10 10t10 -10t-10 -10zM616 61q-10 0 -10 10t10 10t10 -10t-10 -10zM640 31q-10 0 -10 10t10 10t10 -10t-10 -10zM664 208q-10 0 -10 10t10 10 t10 -10t-10 -10zM664 167q-10 0 -10 10t10 10t10 -10t-10 -10zM664 126q-10 0 -10 10t10 10t10 -10t-10 -10zM664 85q-10 0 -10 10t10 10t10 -10t-10 -10zM664 526q-10 0 -10 10t10 10t10 -10t-10 -10zM664 487q-10 0 -10 10t10 10t10 -10t-10 -10zM664 444q-10 0 -10 10 t10 10t10 -10t-10 -10zM664 364q-10 0 -10 10t10 10t10 -10t-10 -10zM664 327q-10 0 -10 10t10 10t10 -10t-10 -10zM664 287q-10 0 -10 10t10 10t10 -10t-10 -10zM664 247q-10 0 -10 10t10 10t10 -10t-10 -10zM664 680q-10 0 -10 10t10 10t10 -10t-10 -10zM664 640 q-10 0 -10 10t10 10t10 -10t-10 -10zM664 602q-10 0 -10 10t10 10t10 -10t-10 -10zM664 566q-10 0 -10 10t10 10t10 -10t-10 -10zM664 404q-10 0 -10 10t10 10t10 -10t-10 -10zM664 45q-10 0 -10 10t10 10t10 -10t-10 -10zM664 5q-10 0 -10 10t10 10t10 -10t-10 -10z" />
<glyph unicode="O" d="M404 688q-10 0 -10 10t10 10t10 -10t-10 -10zM363 688q-10 0 -10 10t10 10t10 -10t-10 -10zM323 682q-10 0 -10 10t10 10t10 -10t-10 -10zM283 671q-10 0 -10 10t10 10t10 -10t-10 -10zM245 655q-10 0 -10 10t10 10t10 -10t-10 -10zM208 632q-10 0 -10 10t10 10t10 -10 t-10 -10zM175 604q-10 0 -10 10t10 10t10 -10t-10 -10zM146 572q-10 0 -10 10t10 10t10 -10t-10 -10zM122 538q-10 0 -10 10t10 10t10 -10t-10 -10zM102 502q-10 0 -10 10t10 10t10 -10t-10 -10zM87 462q-10 0 -10 10t10 10t10 -10t-10 -10zM76 422q-10 0 -10 10t10 10 t10 -10t-10 -10zM70 381q-10 0 -10 10t10 10t10 -10t-10 -10zM69 338q-10 0 -10 10t10 10t10 -10t-10 -10zM72 296q-10 0 -10 10t10 10t10 -10t-10 -10zM80 253q-10 0 -10 10t10 10t10 -10t-10 -10zM94 213q-10 0 -10 10t10 10t10 -10t-10 -10zM111 176q-10 0 -10 10t10 10 t10 -10t-10 -10zM131 141q-10 0 -10 10t10 10t10 -10t-10 -10zM157 109q-10 0 -10 10t10 10t10 -10t-10 -10zM186 80q-10 0 -10 10t10 10t10 -10t-10 -10zM217 55q-10 0 -10 10t10 10t10 -10t-10 -10zM251 34q-10 0 -10 10t10 10t10 -10t-10 -10zM290 16q-10 0 -10 10t10 10 t10 -10t-10 -10zM326 5q-10 0 -10 10t10 10t10 -10t-10 -10zM364 0q-10 0 -10 10t10 10t10 -10t-10 -10zM402 0q-10 0 -10 10t10 10t10 -10t-10 -10zM440 5q-10 0 -10 10t10 10t10 -10t-10 -10zM480 16q-10 0 -10 10t10 10t10 -10t-10 -10zM518 32q-10 0 -10 10t10 10 t10 -10t-10 -10zM552 53q-10 0 -10 10t10 10t10 -10t-10 -10zM583 78q-10 0 -10 10t10 10t10 -10t-10 -10zM612 107q-10 0 -10 10t10 10t10 -10t-10 -10zM638 139q-10 0 -10 10t10 10t10 -10t-10 -10zM658 174q-10 0 -10 10t10 10t10 -10t-10 -10zM675 211q-10 0 -10 10 t10 10t10 -10t-10 -10zM689 251q-10 0 -10 10t10 10t10 -10t-10 -10zM697 294q-10 0 -10 10t10 10t10 -10t-10 -10zM700 336q-10 0 -10 10t10 10t10 -10t-10 -10zM699 379q-10 0 -10 10t10 10t10 -10t-10 -10zM693 420q-10 0 -10 10t10 10t10 -10t-10 -10zM682 460 q-10 0 -10 10t10 10t10 -10t-10 -10zM667 500q-10 0 -10 10t10 10t10 -10t-10 -10zM647 536q-10 0 -10 10t10 10t10 -10t-10 -10zM623 570q-10 0 -10 10t10 10t10 -10t-10 -10zM593 604q-10 0 -10 10t10 10t10 -10t-10 -10zM560 632q-10 0 -10 10t10 10t10 -10t-10 -10z M523 655q-10 0 -10 10t10 10t10 -10t-10 -10zM485 671q-10 0 -10 10t10 10t10 -10t-10 -10zM444 683q-10 0 -10 10t10 10t10 -10t-10 -10z" />
<glyph unicode="P" horiz-adv-x="622" d="M116 211q-10 0 -10 10t10 10t10 -10t-10 -10zM116 170q-10 0 -10 10t10 10t10 -10t-10 -10zM116 129q-10 0 -10 10t10 10t10 -10t-10 -10zM116 88q-10 0 -10 10t10 10t10 -10t-10 -10zM116 529q-10 0 -10 10t10 10t10 -10t-10 -10zM116 490q-10 0 -10 10t10 10t10 -10 t-10 -10zM116 447q-10 0 -10 10t10 10t10 -10t-10 -10zM116 367q-10 0 -10 10t10 10t10 -10t-10 -10zM116 330q-10 0 -10 10t10 10t10 -10t-10 -10zM116 290q-10 0 -10 10t10 10t10 -10t-10 -10zM116 250q-10 0 -10 10t10 10t10 -10t-10 -10zM116 680q-10 0 -10 10t10 10 t10 -10t-10 -10zM116 643q-10 0 -10 10t10 10t10 -10t-10 -10zM116 605q-10 0 -10 10t10 10t10 -10t-10 -10zM116 569q-10 0 -10 10t10 10t10 -10t-10 -10zM116 407q-10 0 -10 10t10 10t10 -10t-10 -10zM116 48q-10 0 -10 10t10 10t10 -10t-10 -10zM116 8q-10 0 -10 10 t10 10t10 -10t-10 -10zM149 683q-10 0 -10 10t10 10t10 -10t-10 -10zM184 683q-10 0 -10 10t10 10t10 -10t-10 -10zM219 683q-10 0 -10 10t10 10t10 -10t-10 -10zM254 683q-10 0 -10 10t10 10t10 -10t-10 -10zM289 684q-10 0 -10 10t10 10t10 -10t-10 -10zM324 684 q-10 0 -10 10t10 10t10 -10t-10 -10zM359 684q-10 0 -10 10t10 10t10 -10t-10 -10zM394 683q-10 0 -10 10t10 10t10 -10t-10 -10zM429 679q-10 0 -10 10t10 10t10 -10t-10 -10zM149 281q-10 0 -10 10t10 10t10 -10t-10 -10zM184 281q-10 0 -10 10t10 10t10 -10t-10 -10z M219 281q-10 0 -10 10t10 10t10 -10t-10 -10zM254 281q-10 0 -10 10t10 10t10 -10t-10 -10zM289 281q-10 0 -10 10t10 10t10 -10t-10 -10zM324 281q-10 0 -10 10t10 10t10 -10t-10 -10zM360 281q-10 0 -10 10t10 10t10 -10t-10 -10zM396 281q-10 0 -10 10t10 10t10 -10 t-10 -10zM431 284q-10 0 -10 10t10 10t10 -10t-10 -10zM462 668q-10 0 -10 10t10 10t10 -10t-10 -10zM464 315q10 0 10 -10t-10 -10t-10 10t10 10zM492 670q10 0 10 -10t-10 -10t-10 10t10 10zM520 645q10 0 10 -10t-10 -10t-10 10t10 10zM542 614q10 0 10 -10t-10 -10 t-10 10t10 10zM560 579q10 0 10 -10t-10 -10t-10 10t10 10zM570 541q10 0 10 -10t-10 -10t-10 10t10 10zM575 501q10 0 10 -10t-10 -10t-10 10t10 10zM570 461q10 0 10 -10t-10 -10t-10 10t10 10zM560 423q10 0 10 -10t-10 -10t-10 10t10 10zM544 388q10 0 10 -10t-10 -10 t-10 10t10 10zM521 358q10 0 10 -10t-10 -10t-10 10t10 10zM495 334q10 0 10 -10t-10 -10t-10 10t10 10z" />
<glyph unicode="Q" d="M404 688q-10 0 -10 10t10 10t10 -10t-10 -10zM363 688q-10 0 -10 10t10 10t10 -10t-10 -10zM323 682q-10 0 -10 10t10 10t10 -10t-10 -10zM283 671q-10 0 -10 10t10 10t10 -10t-10 -10zM245 655q-10 0 -10 10t10 10t10 -10t-10 -10zM208 632q-10 0 -10 10t10 10t10 -10 t-10 -10zM175 604q-10 0 -10 10t10 10t10 -10t-10 -10zM146 572q-10 0 -10 10t10 10t10 -10t-10 -10zM122 538q-10 0 -10 10t10 10t10 -10t-10 -10zM102 502q-10 0 -10 10t10 10t10 -10t-10 -10zM87 462q-10 0 -10 10t10 10t10 -10t-10 -10zM76 422q-10 0 -10 10t10 10 t10 -10t-10 -10zM70 381q-10 0 -10 10t10 10t10 -10t-10 -10zM69 338q-10 0 -10 10t10 10t10 -10t-10 -10zM72 296q-10 0 -10 10t10 10t10 -10t-10 -10zM80 253q-10 0 -10 10t10 10t10 -10t-10 -10zM94 213q-10 0 -10 10t10 10t10 -10t-10 -10zM111 176q-10 0 -10 10t10 10 t10 -10t-10 -10zM131 141q-10 0 -10 10t10 10t10 -10t-10 -10zM157 109q-10 0 -10 10t10 10t10 -10t-10 -10zM186 80q-10 0 -10 10t10 10t10 -10t-10 -10zM217 55q-10 0 -10 10t10 10t10 -10t-10 -10zM251 34q-10 0 -10 10t10 10t10 -10t-10 -10zM290 16q-10 0 -10 10t10 10 t10 -10t-10 -10zM326 5q-10 0 -10 10t10 10t10 -10t-10 -10zM364 0q-10 0 -10 10t10 10t10 -10t-10 -10zM402 0q-10 0 -10 10t10 10t10 -10t-10 -10zM440 5q-10 0 -10 10t10 10t10 -10t-10 -10zM480 16q-10 0 -10 10t10 10t10 -10t-10 -10zM518 32q-10 0 -10 10t10 10 t10 -10t-10 -10zM552 53q-10 0 -10 10t10 10t10 -10t-10 -10zM583 78q-10 0 -10 10t10 10t10 -10t-10 -10zM612 107q-10 0 -10 10t10 10t10 -10t-10 -10zM638 139q-10 0 -10 10t10 10t10 -10t-10 -10zM658 174q-10 0 -10 10t10 10t10 -10t-10 -10zM675 211q-10 0 -10 10 t10 10t10 -10t-10 -10zM689 251q-10 0 -10 10t10 10t10 -10t-10 -10zM697 294q-10 0 -10 10t10 10t10 -10t-10 -10zM700 336q-10 0 -10 10t10 10t10 -10t-10 -10zM699 379q-10 0 -10 10t10 10t10 -10t-10 -10zM693 420q-10 0 -10 10t10 10t10 -10t-10 -10zM682 460 q-10 0 -10 10t10 10t10 -10t-10 -10zM667 500q-10 0 -10 10t10 10t10 -10t-10 -10zM647 536q-10 0 -10 10t10 10t10 -10t-10 -10zM623 570q-10 0 -10 10t10 10t10 -10t-10 -10zM593 604q-10 0 -10 10t10 10t10 -10t-10 -10zM560 632q-10 0 -10 10t10 10t10 -10t-10 -10z M523 655q-10 0 -10 10t10 10t10 -10t-10 -10zM485 671q-10 0 -10 10t10 10t10 -10t-10 -10zM444 683q-10 0 -10 10t10 10t10 -10t-10 -10zM492 192q-10 0 -10 10t10 10t10 -10t-10 -10zM606 50q-10 0 -10 10t10 10t10 -10t-10 -10zM628 23q-10 0 -10 10t10 10t10 -10 t-10 -10zM649 -3q-10 0 -10 10t10 10t10 -10t-10 -10zM515 163q-10 0 -10 10t10 10t10 -10t-10 -10zM538 134q-10 0 -10 10t10 10t10 -10t-10 -10zM561 106q-10 0 -10 10t10 10t10 -10t-10 -10z" />
<glyph unicode="R" horiz-adv-x="652" d="M116 211q-10 0 -10 10t10 10t10 -10t-10 -10zM116 170q-10 0 -10 10t10 10t10 -10t-10 -10zM116 129q-10 0 -10 10t10 10t10 -10t-10 -10zM116 88q-10 0 -10 10t10 10t10 -10t-10 -10zM116 529q-10 0 -10 10t10 10t10 -10t-10 -10zM116 490q-10 0 -10 10t10 10t10 -10 t-10 -10zM116 447q-10 0 -10 10t10 10t10 -10t-10 -10zM116 367q-10 0 -10 10t10 10t10 -10t-10 -10zM116 330q-10 0 -10 10t10 10t10 -10t-10 -10zM116 290q-10 0 -10 10t10 10t10 -10t-10 -10zM116 250q-10 0 -10 10t10 10t10 -10t-10 -10zM116 680q-10 0 -10 10t10 10 t10 -10t-10 -10zM116 643q-10 0 -10 10t10 10t10 -10t-10 -10zM116 605q-10 0 -10 10t10 10t10 -10t-10 -10zM116 569q-10 0 -10 10t10 10t10 -10t-10 -10zM116 407q-10 0 -10 10t10 10t10 -10t-10 -10zM116 48q-10 0 -10 10t10 10t10 -10t-10 -10zM116 8q-10 0 -10 10 t10 10t10 -10t-10 -10zM149 683q-10 0 -10 10t10 10t10 -10t-10 -10zM184 683q-10 0 -10 10t10 10t10 -10t-10 -10zM219 683q-10 0 -10 10t10 10t10 -10t-10 -10zM254 683q-10 0 -10 10t10 10t10 -10t-10 -10zM289 684q-10 0 -10 10t10 10t10 -10t-10 -10zM324 684 q-10 0 -10 10t10 10t10 -10t-10 -10zM359 684q-10 0 -10 10t10 10t10 -10t-10 -10zM394 683q-10 0 -10 10t10 10t10 -10t-10 -10zM429 679q-10 0 -10 10t10 10t10 -10t-10 -10zM149 281q-10 0 -10 10t10 10t10 -10t-10 -10zM184 281q-10 0 -10 10t10 10t10 -10t-10 -10z M219 281q-10 0 -10 10t10 10t10 -10t-10 -10zM254 281q-10 0 -10 10t10 10t10 -10t-10 -10zM289 281q-10 0 -10 10t10 10t10 -10t-10 -10zM324 281q-10 0 -10 10t10 10t10 -10t-10 -10zM360 281q-10 0 -10 10t10 10t10 -10t-10 -10zM396 281q-10 0 -10 10t10 10t10 -10 t-10 -10zM431 284q-10 0 -10 10t10 10t10 -10t-10 -10zM462 668q-10 0 -10 10t10 10t10 -10t-10 -10zM464 315q10 0 10 -10t-10 -10t-10 10t10 10zM492 670q10 0 10 -10t-10 -10t-10 10t10 10zM520 645q10 0 10 -10t-10 -10t-10 10t10 10zM542 614q10 0 10 -10t-10 -10 t-10 10t10 10zM560 579q10 0 10 -10t-10 -10t-10 10t10 10zM570 541q10 0 10 -10t-10 -10t-10 10t10 10zM575 501q10 0 10 -10t-10 -10t-10 10t10 10zM570 461q10 0 10 -10t-10 -10t-10 10t10 10zM560 423q10 0 10 -10t-10 -10t-10 10t10 10zM544 388q10 0 10 -10t-10 -10 t-10 10t10 10zM521 358q10 0 10 -10t-10 -10t-10 10t10 10zM495 334q10 0 10 -10t-10 -10t-10 10t10 10zM429 220q-10 0 -10 10t10 10t10 -10t-10 -10zM449 188q-10 0 -10 10t10 10t10 -10t-10 -10zM512 92q-10 0 -10 10t10 10t10 -10t-10 -10zM533 60q-10 0 -10 10t10 10 t10 -10t-10 -10zM471 156q-10 0 -10 10t10 10t10 -10t-10 -10zM491 124q-10 0 -10 10t10 10t10 -10t-10 -10zM553 28q-10 0 -10 10t10 10t10 -10t-10 -10zM575 -4q-10 0 -10 10t10 10t10 -10t-10 -10zM406 250q-10 0 -10 10t10 10t10 -10t-10 -10z" />
<glyph unicode="S" horiz-adv-x="611" d="M513 636q10 0 10 -10t-10 -10t-10 10t10 10zM482 663q10 0 10 -10t-10 -10t-10 10t10 10zM445 684q10 0 10 -10t-10 -10t-10 10t10 10zM407 698q10 0 10 -10t-10 -10t-10 10t10 10zM368 708q10 0 10 -10t-10 -10t-10 10t10 10zM328 712q10 0 10 -10t-10 -10t-10 10t10 10 zM288 711q10 0 10 -10t-10 -10t-10 10t10 10zM248 706q10 0 10 -10t-10 -10t-10 10t10 10zM206 697q10 0 10 -10t-10 -10t-10 10t10 10zM167 680q10 0 10 -10t-10 -10t-10 10t10 10zM81 506q10 0 10 -10t-10 -10t-10 10t10 10zM79 549q10 0 10 -10t-10 -10t-10 10t10 10z M88 588q10 0 10 -10t-10 -10t-10 10t10 10zM106 625q10 0 10 -10t-10 -10t-10 10t10 10zM133 656q10 0 10 -10t-10 -10t-10 10t10 10zM94 467q10 0 10 -10t-10 -10t-10 10t10 10zM120 434q10 0 10 -10t-10 -10t-10 10t10 10zM154 410q10 0 10 -10t-10 -10t-10 10t10 10z M191 395q10 0 10 -10t-10 -10t-10 10t10 10zM232 384q10 0 10 -10t-10 -10t-10 10t10 10zM273 375q10 0 10 -10t-10 -10t-10 10t10 10zM313 366q10 0 10 -10t-10 -10t-10 10t10 10zM354 357q10 0 10 -10t-10 -10t-10 10t10 10zM395 348q10 0 10 -10t-10 -10t-10 10t10 10z M434 334q10 0 10 -10t-10 -10t-10 10t10 10zM471 317q10 0 10 -10t-10 -10t-10 10t10 10zM505 294q10 0 10 -10t-10 -10t-10 10t10 10zM532 264q10 0 10 -10t-10 -10t-10 10t10 10zM548 227q10 0 10 -10t-10 -10t-10 10t10 10zM553 188q10 0 10 -10t-10 -10t-10 10t10 10z M549 149q10 0 10 -10t-10 -10t-10 10t10 10zM537 112q10 0 10 -10t-10 -10t-10 10t10 10zM516 80q10 0 10 -10t-10 -10t-10 10t10 10zM487 54q10 0 10 -10t-10 -10t-10 10t10 10zM451 38q10 0 10 -10t-10 -10t-10 10t10 10zM414 27q10 0 10 -10t-10 -10t-10 10t10 10z M377 19q10 0 10 -10t-10 -10t-10 10t10 10zM339 14q10 0 10 -10t-10 -10t-10 10t10 10zM300 16q10 0 10 -10t-10 -10t-10 10t10 10zM261 20q10 0 10 -10t-10 -10t-10 10t10 10zM223 29q10 0 10 -10t-10 -10t-10 10t10 10zM187 40q10 0 10 -10t-10 -10t-10 10t10 10zM152 54 q10 0 10 -10t-10 -10t-10 10t10 10zM119 72q10 0 10 -10t-10 -10t-10 10t10 10zM87 94q10 0 10 -10t-10 -10t-10 10t10 10zM56 121q10 0 10 -10t-10 -10t-10 10t10 10z" />
<glyph unicode="T" horiz-adv-x="611" d="M306 213q-10 0 -10 10t10 10t10 -10t-10 -10zM306 171q-10 0 -10 10t10 10t10 -10t-10 -10zM306 129q-10 0 -10 10t10 10t10 -10t-10 -10zM306 87q-10 0 -10 10t10 10t10 -10t-10 -10zM306 539q-10 0 -10 10t10 10t10 -10t-10 -10zM306 499q-10 0 -10 10t10 10t10 -10 t-10 -10zM306 455q-10 0 -10 10t10 10t10 -10t-10 -10zM306 373q-10 0 -10 10t10 10t10 -10t-10 -10zM306 335q-10 0 -10 10t10 10t10 -10t-10 -10zM306 294q-10 0 -10 10t10 10t10 -10t-10 -10zM306 253q-10 0 -10 10t10 10t10 -10t-10 -10zM306 656q-10 0 -10 10t10 10 t10 -10t-10 -10zM306 617q-10 0 -10 10t10 10t10 -10t-10 -10zM306 580q-10 0 -10 10t10 10t10 -10t-10 -10zM306 414q-10 0 -10 10t10 10t10 -10t-10 -10zM306 46q-10 0 -10 10t10 10t10 -10t-10 -10zM306 5q-10 0 -10 10t10 10t10 -10t-10 -10zM27 683q-10 0 -10 10t10 10 t10 -10t-10 -10zM64 683q-10 0 -10 10t10 10t10 -10t-10 -10zM101 683q-10 0 -10 10t10 10t10 -10t-10 -10zM138 683q-10 0 -10 10t10 10t10 -10t-10 -10zM175 683q-10 0 -10 10t10 10t10 -10t-10 -10zM212 683q-10 0 -10 10t10 10t10 -10t-10 -10zM249 683q-10 0 -10 10 t10 10t10 -10t-10 -10zM286 683q-10 0 -10 10t10 10t10 -10t-10 -10zM323 683q-10 0 -10 10t10 10t10 -10t-10 -10zM360 683q-10 0 -10 10t10 10t10 -10t-10 -10zM397 683q-10 0 -10 10t10 10t10 -10t-10 -10zM436 683q-10 0 -10 10t10 10t10 -10t-10 -10zM473 683 q-10 0 -10 10t10 10t10 -10t-10 -10zM509 683q-10 0 -10 10t10 10t10 -10t-10 -10zM546 683q-10 0 -10 10t10 10t10 -10t-10 -10zM584 683q-10 0 -10 10t10 10t10 -10t-10 -10z" />
<glyph unicode="U" horiz-adv-x="759" d="M117 220q-10 0 -10 10t10 10t10 -10t-10 -10zM128 182q-10 0 -10 10t10 10t10 -10t-10 -10zM143 144q-10 0 -10 10t10 10t10 -10t-10 -10zM162 108q-10 0 -10 10t10 10t10 -10t-10 -10zM104 538q-10 0 -10 10t10 10t10 -10t-10 -10zM104 499q-10 0 -10 10t10 10t10 -10 t-10 -10zM104 456q-10 0 -10 10t10 10t10 -10t-10 -10zM104 376q-10 0 -10 10t10 10t10 -10t-10 -10zM104 339q-10 0 -10 10t10 10t10 -10t-10 -10zM106 299q-10 0 -10 10t10 10t10 -10t-10 -10zM109 259q-10 0 -10 10t10 10t10 -10t-10 -10zM104 689q-10 0 -10 10t10 10 t10 -10t-10 -10zM104 652q-10 0 -10 10t10 10t10 -10t-10 -10zM104 614q-10 0 -10 10t10 10t10 -10t-10 -10zM104 578q-10 0 -10 10t10 10t10 -10t-10 -10zM104 416q-10 0 -10 10t10 10t10 -10t-10 -10zM185 77q-10 0 -10 10t10 10t10 -10t-10 -10zM213 50q-10 0 -10 10 t10 10t10 -10t-10 -10zM247 28q-10 0 -10 10t10 10t10 -10t-10 -10zM283 13q-10 0 -10 10t10 10t10 -10t-10 -10zM323 2q-10 0 -10 10t10 10t10 -10t-10 -10zM363 -3q-10 0 -10 10t10 10t10 -10t-10 -10zM646 220q-10 0 -10 10t10 10t10 -10t-10 -10zM635 182q-10 0 -10 10 t10 10t10 -10t-10 -10zM620 144q-10 0 -10 10t10 10t10 -10t-10 -10zM601 108q-10 0 -10 10t10 10t10 -10t-10 -10zM659 538q-10 0 -10 10t10 10t10 -10t-10 -10zM659 499q-10 0 -10 10t10 10t10 -10t-10 -10zM659 456q-10 0 -10 10t10 10t10 -10t-10 -10zM659 376 q-10 0 -10 10t10 10t10 -10t-10 -10zM659 339q-10 0 -10 10t10 10t10 -10t-10 -10zM657 299q-10 0 -10 10t10 10t10 -10t-10 -10zM654 259q-10 0 -10 10t10 10t10 -10t-10 -10zM659 689q-10 0 -10 10t10 10t10 -10t-10 -10zM659 652q-10 0 -10 10t10 10t10 -10t-10 -10z M659 614q-10 0 -10 10t10 10t10 -10t-10 -10zM659 578q-10 0 -10 10t10 10t10 -10t-10 -10zM659 416q-10 0 -10 10t10 10t10 -10t-10 -10zM578 77q-10 0 -10 10t10 10t10 -10t-10 -10zM550 50q-10 0 -10 10t10 10t10 -10t-10 -10zM516 28q-10 0 -10 10t10 10t10 -10t-10 -10 zM480 13q-10 0 -10 10t10 10t10 -10t-10 -10zM440 2q-10 0 -10 10t10 10t10 -10t-10 -10zM401 -4q-10 0 -10 10t10 10t10 -10t-10 -10z" />
<glyph unicode="V" horiz-adv-x="679" d="M339 -2q-10 0 -10 10t10 10t10 -10t-10 -10zM72 627q-10 0 -10 10t10 10t10 -10t-10 -10zM86 594q-10 0 -10 10t10 10t10 -10t-10 -10zM128 495q-10 0 -10 10t10 10t10 -10t-10 -10zM142 462q-10 0 -10 10t10 10t10 -10t-10 -10zM100 561q-10 0 -10 10t10 10t10 -10 t-10 -10zM114 528q-10 0 -10 10t10 10t10 -10t-10 -10zM183 363q-10 0 -10 10t10 10t10 -10t-10 -10zM197 330q-10 0 -10 10t10 10t10 -10t-10 -10zM156 429q-10 0 -10 10t10 10t10 -10t-10 -10zM170 396q-10 0 -10 10t10 10t10 -10t-10 -10zM211 297q-10 0 -10 10t10 10 t10 -10t-10 -10zM225 264q-10 0 -10 10t10 10t10 -10t-10 -10zM58 660q-10 0 -10 10t10 10t10 -10t-10 -10zM252 198q-10 0 -10 10t10 10t10 -10t-10 -10zM266 165q-10 0 -10 10t10 10t10 -10t-10 -10zM308 65q-10 0 -10 10t10 10t10 -10t-10 -10zM322 31q-10 0 -10 10 t10 10t10 -10t-10 -10zM280 132q-10 0 -10 10t10 10t10 -10t-10 -10zM294 99q-10 0 -10 10t10 10t10 -10t-10 -10zM238 231q-10 0 -10 10t10 10t10 -10t-10 -10zM42 693q-10 0 -10 10t10 10t10 -10t-10 -10zM608 627q-10 0 -10 10t10 10t10 -10t-10 -10zM594 594 q-10 0 -10 10t10 10t10 -10t-10 -10zM552 495q-10 0 -10 10t10 10t10 -10t-10 -10zM538 462q-10 0 -10 10t10 10t10 -10t-10 -10zM580 561q-10 0 -10 10t10 10t10 -10t-10 -10zM566 528q-10 0 -10 10t10 10t10 -10t-10 -10zM497 363q-10 0 -10 10t10 10t10 -10t-10 -10z M483 330q-10 0 -10 10t10 10t10 -10t-10 -10zM524 429q-10 0 -10 10t10 10t10 -10t-10 -10zM510 396q-10 0 -10 10t10 10t10 -10t-10 -10zM469 297q-10 0 -10 10t10 10t10 -10t-10 -10zM455 264q-10 0 -10 10t10 10t10 -10t-10 -10zM622 660q-10 0 -10 10t10 10t10 -10 t-10 -10zM428 198q-10 0 -10 10t10 10t10 -10t-10 -10zM414 165q-10 0 -10 10t10 10t10 -10t-10 -10zM372 65q-10 0 -10 10t10 10t10 -10t-10 -10zM358 31q-10 0 -10 10t10 10t10 -10t-10 -10zM400 132q-10 0 -10 10t10 10t10 -10t-10 -10zM386 99q-10 0 -10 10t10 10 t10 -10t-10 -10zM442 231q-10 0 -10 10t10 10t10 -10t-10 -10zM638 693q-10 0 -10 10t10 10t10 -10t-10 -10z" />
<glyph unicode="W" horiz-adv-x="1042" d="M340 -2q-10 0 -10 10t10 10t10 -10t-10 -10zM70 627q-10 0 -10 10t10 10t10 -10t-10 -10zM84 594q-10 0 -10 10t10 10t10 -10t-10 -10zM126 495q-10 0 -10 10t10 10t10 -10t-10 -10zM140 462q-10 0 -10 10t10 10t10 -10t-10 -10zM98 561q-10 0 -10 10t10 10t10 -10 t-10 -10zM112 528q-10 0 -10 10t10 10t10 -10t-10 -10zM181 363q-10 0 -10 10t10 10t10 -10t-10 -10zM195 330q-10 0 -10 10t10 10t10 -10t-10 -10zM154 429q-10 0 -10 10t10 10t10 -10t-10 -10zM168 396q-10 0 -10 10t10 10t10 -10t-10 -10zM209 297q-10 0 -10 10t10 10 t10 -10t-10 -10zM223 264q-10 0 -10 10t10 10t10 -10t-10 -10zM56 660q-10 0 -10 10t10 10t10 -10t-10 -10zM250 198q-10 0 -10 10t10 10t10 -10t-10 -10zM264 165q-10 0 -10 10t10 10t10 -10t-10 -10zM306 65q-10 0 -10 10t10 10t10 -10t-10 -10zM320 31q-10 0 -10 10 t10 10t10 -10t-10 -10zM278 132q-10 0 -10 10t10 10t10 -10t-10 -10zM292 99q-10 0 -10 10t10 10t10 -10t-10 -10zM236 231q-10 0 -10 10t10 10t10 -10t-10 -10zM40 693q-10 0 -10 10t10 10t10 -10t-10 -10zM620 627q-10 0 -10 10t10 10t10 -10t-10 -10zM607 594 q-10 0 -10 10t10 10t10 -10t-10 -10zM562 495q-10 0 -10 10t10 10t10 -10t-10 -10zM547 462q-10 0 -10 10t10 10t10 -10t-10 -10zM592 561q-10 0 -10 10t10 10t10 -10t-10 -10zM577 528q-10 0 -10 10t10 10t10 -10t-10 -10zM503 363q-10 0 -10 10t10 10t10 -10t-10 -10z M487 330q-10 0 -10 10t10 10t10 -10t-10 -10zM532 429q-10 0 -10 10t10 10t10 -10t-10 -10zM517 396q-10 0 -10 10t10 10t10 -10t-10 -10zM472 297q-10 0 -10 10t10 10t10 -10t-10 -10zM457 264q-10 0 -10 10t10 10t10 -10t-10 -10zM634 660q-10 0 -10 10t10 10t10 -10 t-10 -10zM428 198q-10 0 -10 10t10 10t10 -10t-10 -10zM414 165q-10 0 -10 10t10 10t10 -10t-10 -10zM371 65q-10 0 -10 10t10 10t10 -10t-10 -10zM358 31q-10 0 -10 10t10 10t10 -10t-10 -10zM400 132q-10 0 -10 10t10 10t10 -10t-10 -10zM385 99q-10 0 -10 10t10 10 t10 -10t-10 -10zM443 231q-10 0 -10 10t10 10t10 -10t-10 -10zM649 693q-10 0 -10 10t10 10t10 -10t-10 -10zM695 -2q-10 0 -10 10t10 10t10 -10t-10 -10zM965 627q-10 0 -10 10t10 10t10 -10t-10 -10zM951 594q-10 0 -10 10t10 10t10 -10t-10 -10zM909 495q-10 0 -10 10 t10 10t10 -10t-10 -10zM895 462q-10 0 -10 10t10 10t10 -10t-10 -10zM937 561q-10 0 -10 10t10 10t10 -10t-10 -10zM923 528q-10 0 -10 10t10 10t10 -10t-10 -10zM854 363q-10 0 -10 10t10 10t10 -10t-10 -10zM840 330q-10 0 -10 10t10 10t10 -10t-10 -10zM881 429 q-10 0 -10 10t10 10t10 -10t-10 -10zM867 396q-10 0 -10 10t10 10t10 -10t-10 -10zM826 297q-10 0 -10 10t10 10t10 -10t-10 -10zM812 264q-10 0 -10 10t10 10t10 -10t-10 -10zM979 660q-10 0 -10 10t10 10t10 -10t-10 -10zM785 198q-10 0 -10 10t10 10t10 -10t-10 -10z M771 165q-10 0 -10 10t10 10t10 -10t-10 -10zM729 65q-10 0 -10 10t10 10t10 -10t-10 -10zM715 31q-10 0 -10 10t10 10t10 -10t-10 -10zM757 132q-10 0 -10 10t10 10t10 -10t-10 -10zM743 99q-10 0 -10 10t10 10t10 -10t-10 -10zM799 231q-10 0 -10 10t10 10t10 -10t-10 -10 zM995 693q-10 0 -10 10t10 10t10 -10t-10 -10zM415 627q-10 0 -10 10t10 10t10 -10t-10 -10zM428 594q-10 0 -10 10t10 10t10 -10t-10 -10zM473 495q-10 0 -10 10t10 10t10 -10t-10 -10zM488 462q-10 0 -10 10t10 10t10 -10t-10 -10zM443 561q-10 0 -10 10t10 10t10 -10 t-10 -10zM458 528q-10 0 -10 10t10 10t10 -10t-10 -10zM532 363q-10 0 -10 10t10 10t10 -10t-10 -10zM548 330q-10 0 -10 10t10 10t10 -10t-10 -10zM503 429q-10 0 -10 10t10 10t10 -10t-10 -10zM563 297q-10 0 -10 10t10 10t10 -10t-10 -10zM578 264q-10 0 -10 10t10 10 t10 -10t-10 -10zM401 660q-10 0 -10 10t10 10t10 -10t-10 -10zM607 198q-10 0 -10 10t10 10t10 -10t-10 -10zM621 165q-10 0 -10 10t10 10t10 -10t-10 -10zM664 65q-10 0 -10 10t10 10t10 -10t-10 -10zM677 31q-10 0 -10 10t10 10t10 -10t-10 -10zM635 132q-10 0 -10 10 t10 10t10 -10t-10 -10zM650 99q-10 0 -10 10t10 10t10 -10t-10 -10zM592 231q-10 0 -10 10t10 10t10 -10t-10 -10zM386 693q-10 0 -10 10t10 10t10 -10t-10 -10z" />
<glyph unicode="X" horiz-adv-x="624" d="M45 0q-10 0 -10 10t10 10t10 -10t-10 -10zM291 314q-10 0 -10 10t10 10t10 -10t-10 -10zM333 366q-10 0 -10 10t10 10t10 -10t-10 -10zM311 341q-10 0 -10 10t10 10t10 -10t-10 -10zM226 229q-10 0 -10 10t10 10t10 -10t-10 -10zM269 285q-10 0 -10 10t10 10t10 -10 t-10 -10zM248 257q-10 0 -10 10t10 10t10 -10t-10 -10zM181 172q-10 0 -10 10t10 10t10 -10t-10 -10zM204 200q-10 0 -10 10t10 10t10 -10t-10 -10zM113 85q-10 0 -10 10t10 10t10 -10t-10 -10zM158 143q-10 0 -10 10t10 10t10 -10t-10 -10zM135 114q-10 0 -10 10t10 10 t10 -10t-10 -10zM68 29q-10 0 -10 10t10 10t10 -10t-10 -10zM90 57q-10 0 -10 10t10 10t10 -10t-10 -10zM579 680q-10 0 -10 10t10 10t10 -10t-10 -10zM599 707q-10 0 -10 10t10 10t10 -10t-10 -10zM514 595q-10 0 -10 10t10 10t10 -10t-10 -10zM557 651q-10 0 -10 10t10 10 t10 -10t-10 -10zM536 623q-10 0 -10 10t10 10t10 -10t-10 -10zM469 538q-10 0 -10 10t10 10t10 -10t-10 -10zM492 566q-10 0 -10 10t10 10t10 -10t-10 -10zM401 451q-10 0 -10 10t10 10t10 -10t-10 -10zM446 509q-10 0 -10 10t10 10t10 -10t-10 -10zM423 480q-10 0 -10 10 t10 10t10 -10t-10 -10zM356 395q-10 0 -10 10t10 10t10 -10t-10 -10zM378 423q-10 0 -10 10t10 10t10 -10t-10 -10zM577 0q-10 0 -10 10t10 10t10 -10t-10 -10zM331 314q-10 0 -10 10t10 10t10 -10t-10 -10zM289 366q-10 0 -10 10t10 10t10 -10t-10 -10zM396 229 q-10 0 -10 10t10 10t10 -10t-10 -10zM353 285q-10 0 -10 10t10 10t10 -10t-10 -10zM374 257q-10 0 -10 10t10 10t10 -10t-10 -10zM441 172q-10 0 -10 10t10 10t10 -10t-10 -10zM418 200q-10 0 -10 10t10 10t10 -10t-10 -10zM509 85q-10 0 -10 10t10 10t10 -10t-10 -10z M464 143q-10 0 -10 10t10 10t10 -10t-10 -10zM487 114q-10 0 -10 10t10 10t10 -10t-10 -10zM554 29q-10 0 -10 10t10 10t10 -10t-10 -10zM532 57q-10 0 -10 10t10 10t10 -10t-10 -10zM43 680q-10 0 -10 10t10 10t10 -10t-10 -10zM23 707q-10 0 -10 10t10 10t10 -10t-10 -10z M108 595q-10 0 -10 10t10 10t10 -10t-10 -10zM65 651q-10 0 -10 10t10 10t10 -10t-10 -10zM86 623q-10 0 -10 10t10 10t10 -10t-10 -10zM153 538q-10 0 -10 10t10 10t10 -10t-10 -10zM130 566q-10 0 -10 10t10 10t10 -10t-10 -10zM221 451q-10 0 -10 10t10 10t10 -10 t-10 -10zM176 509q-10 0 -10 10t10 10t10 -10t-10 -10zM199 480q-10 0 -10 10t10 10t10 -10t-10 -10zM266 395q-10 0 -10 10t10 10t10 -10t-10 -10zM244 423q-10 0 -10 10t10 10t10 -10t-10 -10z" />
<glyph unicode="Y" horiz-adv-x="629" d="M314 199q-10 0 -10 10t10 10t10 -10t-10 -10zM314 159q-10 0 -10 10t10 10t10 -10t-10 -10zM314 118q-10 0 -10 10t10 10t10 -10t-10 -10zM314 77q-10 0 -10 10t10 10t10 -10t-10 -10zM314 276q-10 0 -10 10t10 10t10 -10t-10 -10zM314 237q-10 0 -10 10t10 10t10 -10 t-10 -10zM314 37q-10 0 -10 10t10 10t10 -10t-10 -10zM314 -3q-10 0 -10 10t10 10t10 -10t-10 -10zM40 690q-10 0 -10 10t10 10t10 -10t-10 -10zM82 626q-10 0 -10 10t10 10t10 -10t-10 -10zM103 594q-10 0 -10 10t10 10t10 -10t-10 -10zM165 498q-10 0 -10 10t10 10t10 -10 t-10 -10zM186 466q-10 0 -10 10t10 10t10 -10t-10 -10zM124 562q-10 0 -10 10t10 10t10 -10t-10 -10zM144 530q-10 0 -10 10t10 10t10 -10t-10 -10zM248 370q-10 0 -10 10t10 10t10 -10t-10 -10zM270 338q-10 0 -10 10t10 10t10 -10t-10 -10zM208 434q-10 0 -10 10t10 10 t10 -10t-10 -10zM228 402q-10 0 -10 10t10 10t10 -10t-10 -10zM291 306q-10 0 -10 10t10 10t10 -10t-10 -10zM60 658q-10 0 -10 10t10 10t10 -10t-10 -10zM588 690q-10 0 -10 10t10 10t10 -10t-10 -10zM546 626q-10 0 -10 10t10 10t10 -10t-10 -10zM525 594q-10 0 -10 10 t10 10t10 -10t-10 -10zM463 498q-10 0 -10 10t10 10t10 -10t-10 -10zM442 466q-10 0 -10 10t10 10t10 -10t-10 -10zM504 562q-10 0 -10 10t10 10t10 -10t-10 -10zM484 530q-10 0 -10 10t10 10t10 -10t-10 -10zM380 370q-10 0 -10 10t10 10t10 -10t-10 -10zM358 338 q-10 0 -10 10t10 10t10 -10t-10 -10zM420 434q-10 0 -10 10t10 10t10 -10t-10 -10zM400 402q-10 0 -10 10t10 10t10 -10t-10 -10zM337 306q-10 0 -10 10t10 10t10 -10t-10 -10zM568 658q-10 0 -10 10t10 10t10 -10t-10 -10z" />
<glyph unicode="Z" horiz-adv-x="625" d="M188 681q-10 0 -10 10t10 10t10 -10t-10 -10zM223 681q-10 0 -10 10t10 10t10 -10t-10 -10zM259 681q-10 0 -10 10t10 10t10 -10t-10 -10zM295 681q-10 0 -10 10t10 10t10 -10t-10 -10zM330 681q-10 0 -10 10t10 10t10 -10t-10 -10zM365 681q-10 0 -10 10t10 10t10 -10 t-10 -10zM401 681q-10 0 -10 10t10 10t10 -10t-10 -10zM436 681q-10 0 -10 10t10 10t10 -10t-10 -10zM472 681q-10 0 -10 10t10 10t10 -10t-10 -10zM508 681q-10 0 -10 10t10 10t10 -10t-10 -10zM543 681q-10 0 -10 10t10 10t10 -10t-10 -10zM45 681q-10 0 -10 10t10 10 t10 -10t-10 -10zM80 681q-10 0 -10 10t10 10t10 -10t-10 -10zM116 681q-10 0 -10 10t10 10t10 -10t-10 -10zM152 681q-10 0 -10 10t10 10t10 -10t-10 -10zM578 681q-10 0 -10 10t10 10t10 -10t-10 -10zM188 4q-10 0 -10 10t10 10t10 -10t-10 -10zM223 4q-10 0 -10 10t10 10 t10 -10t-10 -10zM259 4q-10 0 -10 10t10 10t10 -10t-10 -10zM295 4q-10 0 -10 10t10 10t10 -10t-10 -10zM330 4q-10 0 -10 10t10 10t10 -10t-10 -10zM365 4q-10 0 -10 10t10 10t10 -10t-10 -10zM401 4q-10 0 -10 10t10 10t10 -10t-10 -10zM436 4q-10 0 -10 10t10 10t10 -10 t-10 -10zM472 4q-10 0 -10 10t10 10t10 -10t-10 -10zM508 4q-10 0 -10 10t10 10t10 -10t-10 -10zM543 4q-10 0 -10 10t10 10t10 -10t-10 -10zM45 4q-10 0 -10 10t10 10t10 -10t-10 -10zM80 4q-10 0 -10 10t10 10t10 -10t-10 -10zM116 4q-10 0 -10 10t10 10t10 -10t-10 -10z M152 4q-10 0 -10 10t10 10t10 -10t-10 -10zM578 4q-10 0 -10 10t10 10t10 -10t-10 -10zM279 304q-10 0 -10 10t10 10t10 -10t-10 -10zM325 361q-10 0 -10 10t10 10t10 -10t-10 -10zM302 333q-10 0 -10 10t10 10t10 -10t-10 -10zM208 215q-10 0 -10 10t10 10t10 -10t-10 -10z M255 274q-10 0 -10 10t10 10t10 -10t-10 -10zM232 245q-10 0 -10 10t10 10t10 -10t-10 -10zM158 155q-10 0 -10 10t10 10t10 -10t-10 -10zM183 185q-10 0 -10 10t10 10t10 -10t-10 -10zM86 65q-10 0 -10 10t10 10t10 -10t-10 -10zM134 125q-10 0 -10 10t10 10t10 -10 t-10 -10zM110 95q-10 0 -10 10t10 10t10 -10t-10 -10zM62 36q-10 0 -10 10t10 10t10 -10t-10 -10zM512 592q-10 0 -10 10t10 10t10 -10t-10 -10zM559 650q-10 0 -10 10t10 10t10 -10t-10 -10zM536 621q-10 0 -10 10t10 10t10 -10t-10 -10zM465 535q-10 0 -10 10t10 10 t10 -10t-10 -10zM488 563q-10 0 -10 10t10 10t10 -10t-10 -10zM394 446q-10 0 -10 10t10 10t10 -10t-10 -10zM441 505q-10 0 -10 10t10 10t10 -10t-10 -10zM417 475q-10 0 -10 10t10 10t10 -10t-10 -10zM348 390q-10 0 -10 10t10 10t10 -10t-10 -10zM370 418q-10 0 -10 10 t10 10t10 -10t-10 -10z" />
<glyph unicode="[" horiz-adv-x="221" d="M106 706q-10 0 -10 10t10 10t10 -10t-10 -10zM106 672q-10 0 -10 10t10 10t10 -10t-10 -10zM106 637q-10 0 -10 10t10 10t10 -10t-10 -10zM106 602q-10 0 -10 10t10 10t10 -10t-10 -10zM106 567q-10 0 -10 10t10 10t10 -10t-10 -10zM106 532q-10 0 -10 10t10 10t10 -10 t-10 -10zM106 497q-10 0 -10 10t10 10t10 -10t-10 -10zM106 462q-10 0 -10 10t10 10t10 -10t-10 -10zM106 426q-10 0 -10 10t10 10t10 -10t-10 -10zM106 391q-10 0 -10 10t10 10t10 -10t-10 -10zM106 356q-10 0 -10 10t10 10t10 -10t-10 -10zM106 321q-10 0 -10 10t10 10 t10 -10t-10 -10zM106 286q-10 0 -10 10t10 10t10 -10t-10 -10zM106 251q-10 0 -10 10t10 10t10 -10t-10 -10zM106 216q-10 0 -10 10t10 10t10 -10t-10 -10zM106 181q-10 0 -10 10t10 10t10 -10t-10 -10zM106 144q-10 0 -10 10t10 10t10 -10t-10 -10zM106 109q-10 0 -10 10 t10 10t10 -10t-10 -10zM106 74q-10 0 -10 10t10 10t10 -10t-10 -10zM106 39q-10 0 -10 10t10 10t10 -10t-10 -10zM106 4q-10 0 -10 10t10 10t10 -10t-10 -10zM139 706q-10 0 -10 10t10 10t10 -10t-10 -10zM172 706q-10 0 -10 10t10 10t10 -10t-10 -10zM106 -29q-10 0 -10 10 t10 10t10 -10t-10 -10zM139 -29q-10 0 -10 10t10 10t10 -10t-10 -10zM172 -29q-10 0 -10 10t10 10t10 -10t-10 -10z" />
<glyph unicode="\" horiz-adv-x="534" d="M478 -2q-10 0 -10 10t10 10t10 -10t-10 -10zM91 627q-10 0 -10 10t10 10t10 -10t-10 -10zM111 594q-10 0 -10 10t10 10t10 -10t-10 -10zM172 495q-10 0 -10 10t10 10t10 -10t-10 -10zM192 462q-10 0 -10 10t10 10t10 -10t-10 -10zM131 561q-10 0 -10 10t10 10t10 -10 t-10 -10zM152 528q-10 0 -10 10t10 10t10 -10t-10 -10zM253 363q-10 0 -10 10t10 10t10 -10t-10 -10zM273 330q-10 0 -10 10t10 10t10 -10t-10 -10zM212 429q-10 0 -10 10t10 10t10 -10t-10 -10zM233 396q-10 0 -10 10t10 10t10 -10t-10 -10zM294 297q-10 0 -10 10t10 10 t10 -10t-10 -10zM314 264q-10 0 -10 10t10 10t10 -10t-10 -10zM71 660q-10 0 -10 10t10 10t10 -10t-10 -10zM354 198q-10 0 -10 10t10 10t10 -10t-10 -10zM375 165q-10 0 -10 10t10 10t10 -10t-10 -10zM437 65q-10 0 -10 10t10 10t10 -10t-10 -10zM457 31q-10 0 -10 10 t10 10t10 -10t-10 -10zM395 132q-10 0 -10 10t10 10t10 -10t-10 -10zM416 99q-10 0 -10 10t10 10t10 -10t-10 -10zM334 231q-10 0 -10 10t10 10t10 -10t-10 -10zM52 693q-10 0 -10 10t10 10t10 -10t-10 -10z" />
<glyph unicode="]" horiz-adv-x="221" d="M115 706q-10 0 -10 10t10 10t10 -10t-10 -10zM115 672q-10 0 -10 10t10 10t10 -10t-10 -10zM115 637q-10 0 -10 10t10 10t10 -10t-10 -10zM115 602q-10 0 -10 10t10 10t10 -10t-10 -10zM115 567q-10 0 -10 10t10 10t10 -10t-10 -10zM115 532q-10 0 -10 10t10 10t10 -10 t-10 -10zM115 497q-10 0 -10 10t10 10t10 -10t-10 -10zM115 462q-10 0 -10 10t10 10t10 -10t-10 -10zM115 426q-10 0 -10 10t10 10t10 -10t-10 -10zM115 391q-10 0 -10 10t10 10t10 -10t-10 -10zM115 356q-10 0 -10 10t10 10t10 -10t-10 -10zM115 321q-10 0 -10 10t10 10 t10 -10t-10 -10zM115 286q-10 0 -10 10t10 10t10 -10t-10 -10zM115 251q-10 0 -10 10t10 10t10 -10t-10 -10zM115 216q-10 0 -10 10t10 10t10 -10t-10 -10zM115 181q-10 0 -10 10t10 10t10 -10t-10 -10zM115 144q-10 0 -10 10t10 10t10 -10t-10 -10zM115 109q-10 0 -10 10 t10 10t10 -10t-10 -10zM115 74q-10 0 -10 10t10 10t10 -10t-10 -10zM115 39q-10 0 -10 10t10 10t10 -10t-10 -10zM115 4q-10 0 -10 10t10 10t10 -10t-10 -10zM82 706q-10 0 -10 10t10 10t10 -10t-10 -10zM49 706q-10 0 -10 10t10 10t10 -10t-10 -10zM115 -29q-10 0 -10 10 t10 10t10 -10t-10 -10zM82 -29q-10 0 -10 10t10 10t10 -10t-10 -10zM49 -29q-10 0 -10 10t10 10t10 -10t-10 -10z" />
<glyph unicode="^" horiz-adv-x="518" d="M260 680q-10 0 -10 10t10 10t10 -10t-10 -10zM239 649q-10 0 -10 10t10 10t10 -10t-10 -10zM222 616q-10 0 -10 10t10 10t10 -10t-10 -10zM206 582q-10 0 -10 10t10 10t10 -10t-10 -10zM190 548q-10 0 -10 10t10 10t10 -10t-10 -10zM173 513q-10 0 -10 10t10 10t10 -10 t-10 -10zM156 480q-10 0 -10 10t10 10t10 -10t-10 -10zM140 446q-10 0 -10 10t10 10t10 -10t-10 -10zM124 412q-10 0 -10 10t10 10t10 -10t-10 -10zM107 377q-10 0 -10 10t10 10t10 -10t-10 -10zM91 343q-10 0 -10 10t10 10t10 -10t-10 -10zM75 309q-10 0 -10 10t10 10 t10 -10t-10 -10zM281 649q-10 0 -10 10t10 10t10 -10t-10 -10zM298 616q-10 0 -10 10t10 10t10 -10t-10 -10zM314 582q-10 0 -10 10t10 10t10 -10t-10 -10zM330 548q-10 0 -10 10t10 10t10 -10t-10 -10zM347 513q-10 0 -10 10t10 10t10 -10t-10 -10zM364 480q-10 0 -10 10 t10 10t10 -10t-10 -10zM380 446q-10 0 -10 10t10 10t10 -10t-10 -10zM396 412q-10 0 -10 10t10 10t10 -10t-10 -10zM413 377q-10 0 -10 10t10 10t10 -10t-10 -10zM429 343q-10 0 -10 10t10 10t10 -10t-10 -10zM445 309q-10 0 -10 10t10 10t10 -10t-10 -10z" />
<glyph unicode="_" horiz-adv-x="432" d="M32 -25q-10 0 -10 10t10 10t10 -10t-10 -10zM69 -25q-10 0 -10 10t10 10t10 -10t-10 -10zM106 -25q-10 0 -10 10t10 10t10 -10t-10 -10zM143 -25q-10 0 -10 10t10 10t10 -10t-10 -10zM180 -25q-10 0 -10 10t10 10t10 -10t-10 -10zM217 -25q-10 0 -10 10t10 10t10 -10 t-10 -10zM254 -25q-10 0 -10 10t10 10t10 -10t-10 -10zM291 -25q-10 0 -10 10t10 10t10 -10t-10 -10zM326 -25q-10 0 -10 10t10 10t10 -10t-10 -10zM363 -25q-10 0 -10 10t10 10t10 -10t-10 -10zM400 -25q-10 0 -10 10t10 10t10 -10t-10 -10z" />
<glyph unicode="`" horiz-adv-x="205" d="M140 640q-10 0 -10 10t10 10t10 -10t-10 -10zM119 664q-10 0 -10 10t10 10t10 -10t-10 -10zM98 689q-10 0 -10 10t10 10t10 -10t-10 -10zM77 714q-10 0 -10 10t10 10t10 -10t-10 -10z" />
<glyph unicode="a" horiz-adv-x="532" d="M200 496q-10 0 -10 10t10 10t10 -10t-10 -10zM240 503q-10 0 -10 10t10 10t10 -10t-10 -10zM281 503q-10 0 -10 10t10 10t10 -10t-10 -10zM320 495q-10 0 -10 10t10 10t10 -10t-10 -10zM127 466q-10 0 -10 10t10 10t10 -10t-10 -10zM356 478q-10 0 -10 10t10 10t10 -10 t-10 -10zM388 453q-10 0 -10 10t10 10t10 -10t-10 -10zM412 420q-10 0 -10 10t10 10t10 -10t-10 -10zM428 383q-10 0 -10 10t10 10t10 -10t-10 -10zM435 343q-10 0 -10 10t10 10t10 -10t-10 -10zM437 303q-10 0 -10 10t10 10t10 -10t-10 -10zM156 263q-10 0 -10 10t10 10 t10 -10t-10 -10zM196 274q-10 0 -10 10t10 10t10 -10t-10 -10zM361 260q-10 0 -10 10t10 10t10 -10t-10 -10zM400 245q-10 0 -10 10t10 10t10 -10t-10 -10zM436 261q-10 0 -10 10t10 10t10 -10t-10 -10zM85 220q-10 0 -10 10t10 10t10 -10t-10 -10zM436 220q-10 0 -10 10 t10 10t10 -10t-10 -10zM60 180q-10 0 -10 10t10 10t10 -10t-10 -10zM436 180q-10 0 -10 10t10 10t10 -10t-10 -10zM436 140q-10 0 -10 10t10 10t10 -10t-10 -10zM60 100q-10 0 -10 10t10 10t10 -10t-10 -10zM433 100q-10 0 -10 10t10 10t10 -10t-10 -10zM77 62q-10 0 -10 10 t10 10t10 -10t-10 -10zM401 73q-10 0 -10 10t10 10t10 -10t-10 -10zM441 60q-10 0 -10 10t10 10t10 -10t-10 -10zM104 32q-10 0 -10 10t10 10t10 -10t-10 -10zM336 24q-10 0 -10 10t10 10t10 -10t-10 -10zM369 44q-10 0 -10 10t10 10t10 -10t-10 -10zM454 25q-10 0 -10 10 t10 10t10 -10t-10 -10zM163 483q-10 0 -10 10t10 10t10 -10t-10 -10zM93 445q-10 0 -10 10t10 10t10 -10t-10 -10zM479 0q-10 0 -10 10t10 10t10 -10t-10 -10zM52 140q-10 0 -10 10t10 10t10 -10t-10 -10zM319 272q-10 0 -10 10t10 10t10 -10t-10 -10zM280 276q-10 0 -10 10 t10 10t10 -10t-10 -10zM237 277q-10 0 -10 10t10 10t10 -10t-10 -10zM118 245q-10 0 -10 10t10 10t10 -10t-10 -10zM138 9q-10 0 -10 10t10 10t10 -10t-10 -10zM175 -3q-10 0 -10 10t10 10t10 -10t-10 -10zM215 -6q-10 0 -10 10t10 10t10 -10t-10 -10zM260 -2q-10 0 -10 10 t10 10t10 -10t-10 -10zM300 8q-10 0 -10 10t10 10t10 -10t-10 -10z" />
<glyph unicode="b" horiz-adv-x="607" d="M240 486q-10 0 -10 10t10 10t10 -10t-10 -10zM280 500q-10 0 -10 10t10 10t10 -10t-10 -10zM320 504q-10 0 -10 10t10 10t10 -10t-10 -10zM360 499q-10 0 -10 10t10 10t10 -10t-10 -10zM400 486q-10 0 -10 10t10 10t10 -10t-10 -10zM205 466q-10 0 -10 10t10 10t10 -10 t-10 -10zM438 464q-10 0 -10 10t10 10t10 -10t-10 -10zM175 442q-10 0 -10 10t10 10t10 -10t-10 -10zM471 435q-10 0 -10 10t10 10t10 -10t-10 -10zM517 368q-10 0 -10 10t10 10t10 -10t-10 -10zM531 332q-10 0 -10 10t10 10t10 -10t-10 -10zM544 256q-10 0 -10 10t10 10 t10 -10t-10 -10zM542 216q-10 0 -10 10t10 10t10 -10t-10 -10zM535 180q-10 0 -10 10t10 10t10 -10t-10 -10zM522 142q-10 0 -10 10t10 10t10 -10t-10 -10zM504 107q-10 0 -10 10t10 10t10 -10t-10 -10zM149 69q-10 0 -10 10t10 10t10 -10t-10 -10zM482 76q-10 0 -10 10 t10 10t10 -10t-10 -10zM207 23q-10 0 -10 10t10 10t10 -10t-10 -10zM240 10q-10 0 -10 10t10 10t10 -10t-10 -10zM391 10q-10 0 -10 10t10 10t10 -10t-10 -10zM425 27q-10 0 -10 10t10 10t10 -10t-10 -10zM96 241q-10 0 -10 10t10 10t10 -10t-10 -10zM96 201q-10 0 -10 10 t10 10t10 -10t-10 -10zM96 161q-10 0 -10 10t10 10t10 -10t-10 -10zM96 121q-10 0 -10 10t10 10t10 -10t-10 -10zM96 81q-10 0 -10 10t10 10t10 -10t-10 -10zM96 41q-10 0 -10 10t10 10t10 -10t-10 -10zM96 1q-10 0 -10 10t10 10t10 -10t-10 -10zM96 559q-10 0 -10 10t10 10 t10 -10t-10 -10zM96 520q-10 0 -10 10t10 10t10 -10t-10 -10zM96 477q-10 0 -10 10t10 10t10 -10t-10 -10zM96 397q-10 0 -10 10t10 10t10 -10t-10 -10zM96 360q-10 0 -10 10t10 10t10 -10t-10 -10zM96 320q-10 0 -10 10t10 10t10 -10t-10 -10zM96 280q-10 0 -10 10t10 10 t10 -10t-10 -10zM96 710q-10 0 -10 10t10 10t10 -10t-10 -10zM96 673q-10 0 -10 10t10 10t10 -10t-10 -10zM96 635q-10 0 -10 10t10 10t10 -10t-10 -10zM96 599q-10 0 -10 10t10 10t10 -10t-10 -10zM96 437q-10 0 -10 10t10 10t10 -10t-10 -10zM499 402q-10 0 -10 10t10 10 t10 -10t-10 -10zM540 295q-10 0 -10 10t10 10t10 -10t-10 -10zM149 411q-10 0 -10 10t10 10t10 -10t-10 -10zM124 380q-10 0 -10 10t10 10t10 -10t-10 -10zM125 98q-10 0 -10 10t10 10t10 -10t-10 -10zM312 -6q-10 0 -10 10t10 10t10 -10t-10 -10zM274 -2q-10 0 -10 10 t10 10t10 -10t-10 -10zM178 44q-10 0 -10 10t10 10t10 -10t-10 -10zM352 -2q-10 0 -10 10t10 10t10 -10t-10 -10zM456 49q-10 0 -10 10t10 10t10 -10t-10 -10z" />
<glyph unicode="c" horiz-adv-x="543" d="M296 504q-10 0 -10 10t10 10t10 -10t-10 -10zM342 497q-10 0 -10 10t10 10t10 -10t-10 -10zM382 484q-10 0 -10 10t10 10t10 -10t-10 -10zM421 461q-10 0 -10 10t10 10t10 -10t-10 -10zM453 433q-10 0 -10 10t10 10t10 -10t-10 -10zM476 400q-10 0 -10 10t10 10t10 -10 t-10 -10zM249 497q-10 0 -10 10t10 10t10 -10t-10 -10zM209 484q-10 0 -10 10t10 10t10 -10t-10 -10zM170 461q-10 0 -10 10t10 10t10 -10t-10 -10zM138 433q-10 0 -10 10t10 10t10 -10t-10 -10zM89 364q-10 0 -10 10t10 10t10 -10t-10 -10zM74 327q-10 0 -10 10t10 10 t10 -10t-10 -10zM62 250q-10 0 -10 10t10 10t10 -10t-10 -10zM110 399q-10 0 -10 10t10 10t10 -10t-10 -10zM66 290q-10 0 -10 10t10 10t10 -10t-10 -10zM296 17q10 0 10 -10t-10 -10t-10 10t10 10zM342 24q10 0 10 -10t-10 -10t-10 10t10 10zM382 37q10 0 10 -10t-10 -10 t-10 10t10 10zM421 60q10 0 10 -10t-10 -10t-10 10t10 10zM453 88q10 0 10 -10t-10 -10t-10 10t10 10zM481 122q10 0 10 -10t-10 -10t-10 10t10 10zM249 24q10 0 10 -10t-10 -10t-10 10t10 10zM209 37q10 0 10 -10t-10 -10t-10 10t10 10zM170 60q10 0 10 -10t-10 -10t-10 10 t10 10zM138 88q10 0 10 -10t-10 -10t-10 10t10 10zM89 157q10 0 10 -10t-10 -10t-10 10t10 10zM74 194q10 0 10 -10t-10 -10t-10 10t10 10zM110 122q10 0 10 -10t-10 -10t-10 10t10 10zM66 231q10 0 10 -10t-10 -10t-10 10t10 10z" />
<glyph unicode="d" horiz-adv-x="610" d="M366 486q-10 0 -10 10t10 10t10 -10t-10 -10zM326 500q-10 0 -10 10t10 10t10 -10t-10 -10zM286 504q-10 0 -10 10t10 10t10 -10t-10 -10zM246 499q-10 0 -10 10t10 10t10 -10t-10 -10zM206 486q-10 0 -10 10t10 10t10 -10t-10 -10zM401 466q-10 0 -10 10t10 10t10 -10 t-10 -10zM168 464q-10 0 -10 10t10 10t10 -10t-10 -10zM431 442q-10 0 -10 10t10 10t10 -10t-10 -10zM135 435q-10 0 -10 10t10 10t10 -10t-10 -10zM89 368q-10 0 -10 10t10 10t10 -10t-10 -10zM75 332q-10 0 -10 10t10 10t10 -10t-10 -10zM62 256q-10 0 -10 10t10 10 t10 -10t-10 -10zM64 216q-10 0 -10 10t10 10t10 -10t-10 -10zM71 180q-10 0 -10 10t10 10t10 -10t-10 -10zM84 142q-10 0 -10 10t10 10t10 -10t-10 -10zM102 107q-10 0 -10 10t10 10t10 -10t-10 -10zM457 69q-10 0 -10 10t10 10t10 -10t-10 -10zM124 76q-10 0 -10 10t10 10 t10 -10t-10 -10zM399 23q-10 0 -10 10t10 10t10 -10t-10 -10zM366 10q-10 0 -10 10t10 10t10 -10t-10 -10zM215 10q-10 0 -10 10t10 10t10 -10t-10 -10zM181 27q-10 0 -10 10t10 10t10 -10t-10 -10zM510 241q-10 0 -10 10t10 10t10 -10t-10 -10zM510 201q-10 0 -10 10t10 10 t10 -10t-10 -10zM510 161q-10 0 -10 10t10 10t10 -10t-10 -10zM510 121q-10 0 -10 10t10 10t10 -10t-10 -10zM510 81q-10 0 -10 10t10 10t10 -10t-10 -10zM510 41q-10 0 -10 10t10 10t10 -10t-10 -10zM510 1q-10 0 -10 10t10 10t10 -10t-10 -10zM510 559q-10 0 -10 10t10 10 t10 -10t-10 -10zM510 520q-10 0 -10 10t10 10t10 -10t-10 -10zM510 477q-10 0 -10 10t10 10t10 -10t-10 -10zM510 397q-10 0 -10 10t10 10t10 -10t-10 -10zM510 360q-10 0 -10 10t10 10t10 -10t-10 -10zM510 320q-10 0 -10 10t10 10t10 -10t-10 -10zM510 280q-10 0 -10 10 t10 10t10 -10t-10 -10zM510 710q-10 0 -10 10t10 10t10 -10t-10 -10zM510 673q-10 0 -10 10t10 10t10 -10t-10 -10zM510 635q-10 0 -10 10t10 10t10 -10t-10 -10zM510 599q-10 0 -10 10t10 10t10 -10t-10 -10zM510 437q-10 0 -10 10t10 10t10 -10t-10 -10zM107 402 q-10 0 -10 10t10 10t10 -10t-10 -10zM66 295q-10 0 -10 10t10 10t10 -10t-10 -10zM457 411q-10 0 -10 10t10 10t10 -10t-10 -10zM482 380q-10 0 -10 10t10 10t10 -10t-10 -10zM481 98q-10 0 -10 10t10 10t10 -10t-10 -10zM294 -6q-10 0 -10 10t10 10t10 -10t-10 -10zM332 -2 q-10 0 -10 10t10 10t10 -10t-10 -10zM428 44q-10 0 -10 10t10 10t10 -10t-10 -10zM254 -2q-10 0 -10 10t10 10t10 -10t-10 -10zM150 49q-10 0 -10 10t10 10t10 -10t-10 -10z" />
<glyph unicode="e" horiz-adv-x="581" d="M296 504q-10 0 -10 10t10 10t10 -10t-10 -10zM342 497q-10 0 -10 10t10 10t10 -10t-10 -10zM382 484q-10 0 -10 10t10 10t10 -10t-10 -10zM421 461q-10 0 -10 10t10 10t10 -10t-10 -10zM453 433q-10 0 -10 10t10 10t10 -10t-10 -10zM502 364q-10 0 -10 10t10 10t10 -10 t-10 -10zM517 327q-10 0 -10 10t10 10t10 -10t-10 -10zM529 250q-10 0 -10 10t10 10t10 -10t-10 -10zM481 399q-10 0 -10 10t10 10t10 -10t-10 -10zM524 289q-10 0 -10 10t10 10t10 -10t-10 -10zM249 497q-10 0 -10 10t10 10t10 -10t-10 -10zM209 484q-10 0 -10 10t10 10 t10 -10t-10 -10zM170 461q-10 0 -10 10t10 10t10 -10t-10 -10zM138 433q-10 0 -10 10t10 10t10 -10t-10 -10zM89 364q-10 0 -10 10t10 10t10 -10t-10 -10zM74 327q-10 0 -10 10t10 10t10 -10t-10 -10zM62 250q-10 0 -10 10t10 10t10 -10t-10 -10zM110 399q-10 0 -10 10 t10 10t10 -10t-10 -10zM66 290q-10 0 -10 10t10 10t10 -10t-10 -10zM296 15q10 0 10 -10t-10 -10t-10 10t10 10zM343 20q10 0 10 -10t-10 -10t-10 10t10 10zM387 34q10 0 10 -10t-10 -10t-10 10t10 10zM425 55q10 0 10 -10t-10 -10t-10 10t10 10zM457 83q10 0 10 -10 t-10 -10t-10 10t10 10zM485 117q10 0 10 -10t-10 -10t-10 10t10 10zM248 22q10 0 10 -10t-10 -10t-10 10t10 10zM209 37q10 0 10 -10t-10 -10t-10 10t10 10zM170 60q10 0 10 -10t-10 -10t-10 10t10 10zM138 88q10 0 10 -10t-10 -10t-10 10t10 10zM89 157q10 0 10 -10 t-10 -10t-10 10t10 10zM74 194q10 0 10 -10t-10 -10t-10 10t10 10zM110 122q10 0 10 -10t-10 -10t-10 10t10 10zM66 231q10 0 10 -10t-10 -10t-10 10t10 10zM490 250q-10 0 -10 10t10 10t10 -10t-10 -10zM445 250q-10 0 -10 10t10 10t10 -10t-10 -10zM404 250q-10 0 -10 10 t10 10t10 -10t-10 -10zM364 250q-10 0 -10 10t10 10t10 -10t-10 -10zM322 250q-10 0 -10 10t10 10t10 -10t-10 -10zM279 250q-10 0 -10 10t10 10t10 -10t-10 -10zM233 250q-10 0 -10 10t10 10t10 -10t-10 -10zM188 250q-10 0 -10 10t10 10t10 -10t-10 -10zM144 250 q-10 0 -10 10t10 10t10 -10t-10 -10zM103 250q-10 0 -10 10t10 10t10 -10t-10 -10z" />
<glyph unicode="f" horiz-adv-x="327" d="M124 180q-10 0 -10 10t10 10t10 -10t-10 -10zM124 144q-10 0 -10 10t10 10t10 -10t-10 -10zM124 107q-10 0 -10 10t10 10t10 -10t-10 -10zM124 71q-10 0 -10 10t10 10t10 -10t-10 -10zM124 0q-10 0 -10 10t10 10t10 -10t-10 -10zM124 494q-10 0 -10 10t10 10t10 -10 t-10 -10zM124 452q-10 0 -10 10t10 10t10 -10t-10 -10zM124 414q-10 0 -10 10t10 10t10 -10t-10 -10zM124 334q-10 0 -10 10t10 10t10 -10t-10 -10zM124 297q-10 0 -10 10t10 10t10 -10t-10 -10zM124 257q-10 0 -10 10t10 10t10 -10t-10 -10zM124 219q-10 0 -10 10t10 10 t10 -10t-10 -10zM130 609q-10 0 -10 10t10 10t10 -10t-10 -10zM124 572q-10 0 -10 10t10 10t10 -10t-10 -10zM124 534q-10 0 -10 10t10 10t10 -10t-10 -10zM124 374q-10 0 -10 10t10 10t10 -10t-10 -10zM81 434q-10 0 -10 10t10 10t10 -10t-10 -10zM44 434q-10 0 -10 10 t10 10t10 -10t-10 -10zM162 434q-10 0 -10 10t10 10t10 -10t-10 -10zM200 434q-10 0 -10 10t10 10t10 -10t-10 -10zM240 434q-10 0 -10 10t10 10t10 -10t-10 -10zM124 36q-10 0 -10 10t10 10t10 -10t-10 -10zM143 646q-10 0 -10 10t10 10t10 -10t-10 -10zM163 676 q-10 0 -10 10t10 10t10 -10t-10 -10zM189 699q-10 0 -10 10t10 10t10 -10t-10 -10zM223 714q-10 0 -10 10t10 10t10 -10t-10 -10zM259 715q-10 0 -10 10t10 10t10 -10t-10 -10zM294 708q-10 0 -10 10t10 10t10 -10t-10 -10zM325 694q-10 0 -10 10t10 10t10 -10t-10 -10z" />
<glyph unicode="g" horiz-adv-x="607" d="M366 35q10 0 10 -10t-10 -10t-10 10t10 10zM326 21q10 0 10 -10t-10 -10t-10 10t10 10zM286 17q10 0 10 -10t-10 -10t-10 10t10 10zM246 22q10 0 10 -10t-10 -10t-10 10t10 10zM206 35q10 0 10 -10t-10 -10t-10 10t10 10zM401 55q10 0 10 -10t-10 -10t-10 10t10 10z M168 57q10 0 10 -10t-10 -10t-10 10t10 10zM431 79q10 0 10 -10t-10 -10t-10 10t10 10zM135 86q10 0 10 -10t-10 -10t-10 10t10 10zM89 153q10 0 10 -10t-10 -10t-10 10t10 10zM75 189q10 0 10 -10t-10 -10t-10 10t10 10zM62 265q10 0 10 -10t-10 -10t-10 10t10 10zM64 305 q10 0 10 -10t-10 -10t-10 10t10 10zM71 341q10 0 10 -10t-10 -10t-10 10t10 10zM84 379q10 0 10 -10t-10 -10t-10 10t10 10zM102 414q10 0 10 -10t-10 -10t-10 10t10 10zM457 452q10 0 10 -10t-10 -10t-10 10t10 10zM124 445q10 0 10 -10t-10 -10t-10 10t10 10zM399 498 q10 0 10 -10t-10 -10t-10 10t10 10zM366 511q10 0 10 -10t-10 -10t-10 10t10 10zM215 511q10 0 10 -10t-10 -10t-10 10t10 10zM181 494q10 0 10 -10t-10 -10t-10 10t10 10zM510 280q10 0 10 -10t-10 -10t-10 10t10 10zM510 320q10 0 10 -10t-10 -10t-10 10t10 10zM510 360 q10 0 10 -10t-10 -10t-10 10t10 10zM510 400q10 0 10 -10t-10 -10t-10 10t10 10zM510 440q10 0 10 -10t-10 -10t-10 10t10 10zM510 480q10 0 10 -10t-10 -10t-10 10t10 10zM510 520q10 0 10 -10t-10 -10t-10 10t10 10zM508 -38q10 0 10 -10t-10 -10t-10 10t10 10zM510 1 q10 0 10 -10t-10 -10t-10 10t10 10zM510 44q10 0 10 -10t-10 -10t-10 10t10 10zM510 124q10 0 10 -10t-10 -10t-10 10t10 10zM510 161q10 0 10 -10t-10 -10t-10 10t10 10zM510 201q10 0 10 -10t-10 -10t-10 10t10 10zM510 241q10 0 10 -10t-10 -10t-10 10t10 10zM434 -159 q10 0 10 -10t-10 -10t-10 10t10 10zM463 -136q10 0 10 -10t-10 -10t-10 10t10 10zM483 -107q10 0 10 -10t-10 -10t-10 10t10 10zM500 -73q10 0 10 -10t-10 -10t-10 10t10 10zM510 84q10 0 10 -10t-10 -10t-10 10t10 10zM107 119q10 0 10 -10t-10 -10t-10 10t10 10zM66 226 q10 0 10 -10t-10 -10t-10 10t10 10zM457 110q10 0 10 -10t-10 -10t-10 10t10 10zM482 141q10 0 10 -10t-10 -10t-10 10t10 10zM481 423q10 0 10 -10t-10 -10t-10 10t10 10zM294 527q10 0 10 -10t-10 -10t-10 10t10 10zM332 523q10 0 10 -10t-10 -10t-10 10t10 10zM428 477 q10 0 10 -10t-10 -10t-10 10t10 10zM254 523q10 0 10 -10t-10 -10t-10 10t10 10zM150 472q10 0 10 -10t-10 -10t-10 10t10 10zM402 -176q10 0 10 -10t-10 -10t-10 10t10 10zM367 -189q10 0 10 -10t-10 -10t-10 10t10 10zM332 -196q10 0 10 -10t-10 -10t-10 10t10 10z M294 -198q10 0 10 -10t-10 -10t-10 10t10 10zM256 -196q10 0 10 -10t-10 -10t-10 10t10 10zM219 -191q10 0 10 -10t-10 -10t-10 10t10 10zM186 -181q10 0 10 -10t-10 -10t-10 10t10 10zM155 -165q10 0 10 -10t-10 -10t-10 10t10 10zM123 -143q10 0 10 -10t-10 -10t-10 10 t10 10zM98 -118q10 0 10 -10t-10 -10t-10 10t10 10zM76 -88q10 0 10 -10t-10 -10t-10 10t10 10z" />
<glyph unicode="h" horiz-adv-x="567" d="M96 231q-10 0 -10 10t10 10t10 -10t-10 -10zM96 191q-10 0 -10 10t10 10t10 -10t-10 -10zM96 151q-10 0 -10 10t10 10t10 -10t-10 -10zM96 113q-10 0 -10 10t10 10t10 -10t-10 -10zM96 71q-10 0 -10 10t10 10t10 -10t-10 -10zM96 35q-10 0 -10 10t10 10t10 -10t-10 -10z M96 0q-10 0 -10 10t10 10t10 -10t-10 -10zM96 490q-10 0 -10 10t10 10t10 -10t-10 -10zM96 387q-10 0 -10 10t10 10t10 -10t-10 -10zM96 350q-10 0 -10 10t10 10t10 -10t-10 -10zM96 312q-10 0 -10 10t10 10t10 -10t-10 -10zM96 272q-10 0 -10 10t10 10t10 -10t-10 -10z M96 423q-10 0 -10 10t10 10t10 -10t-10 -10zM96 456q-10 0 -10 10t10 10t10 -10t-10 -10zM477 231q-10 0 -10 10t10 10t10 -10t-10 -10zM477 191q-10 0 -10 10t10 10t10 -10t-10 -10zM477 151q-10 0 -10 10t10 10t10 -10t-10 -10zM477 113q-10 0 -10 10t10 10t10 -10 t-10 -10zM477 71q-10 0 -10 10t10 10t10 -10t-10 -10zM477 35q-10 0 -10 10t10 10t10 -10t-10 -10zM477 0q-10 0 -10 10t10 10t10 -10t-10 -10zM296 499q-10 0 -10 10t10 10t10 -10t-10 -10zM341 503q-10 0 -10 10t10 10t10 -10t-10 -10zM384 494q-10 0 -10 10t10 10t10 -10 t-10 -10zM423 471q-10 0 -10 10t10 10t10 -10t-10 -10zM445 443q-10 0 -10 10t10 10t10 -10t-10 -10zM467 374q-10 0 -10 10t10 10t10 -10t-10 -10zM472 337q-10 0 -10 10t10 10t10 -10t-10 -10zM459 409q-10 0 -10 10t10 10t10 -10t-10 -10zM477 299q-10 0 -10 10t10 10 t10 -10t-10 -10zM253 484q-10 0 -10 10t10 10t10 -10t-10 -10zM477 268q-10 0 -10 10t10 10t10 -10t-10 -10zM214 466q-10 0 -10 10t10 10t10 -10t-10 -10zM180 440q-10 0 -10 10t10 10t10 -10t-10 -10zM152 408q-10 0 -10 10t10 10t10 -10t-10 -10zM127 373q-10 0 -10 10 t10 10t10 -10t-10 -10zM96 564q-10 0 -10 10t10 10t10 -10t-10 -10zM96 529q-10 0 -10 10t10 10t10 -10t-10 -10zM96 710q-10 0 -10 10t10 10t10 -10t-10 -10zM96 673q-10 0 -10 10t10 10t10 -10t-10 -10zM96 638q-10 0 -10 10t10 10t10 -10t-10 -10zM96 599q-10 0 -10 10 t10 10t10 -10t-10 -10z" />
<glyph unicode="i" horiz-adv-x="194" d="M96 231q-10 0 -10 10t10 10t10 -10t-10 -10zM96 191q-10 0 -10 10t10 10t10 -10t-10 -10zM96 151q-10 0 -10 10t10 10t10 -10t-10 -10zM96 113q-10 0 -10 10t10 10t10 -10t-10 -10zM96 71q-10 0 -10 10t10 10t10 -10t-10 -10zM96 35q-10 0 -10 10t10 10t10 -10t-10 -10z M96 0q-10 0 -10 10t10 10t10 -10t-10 -10zM96 500q-10 0 -10 10t10 10t10 -10t-10 -10zM96 387q-10 0 -10 10t10 10t10 -10t-10 -10zM96 350q-10 0 -10 10t10 10t10 -10t-10 -10zM96 312q-10 0 -10 10t10 10t10 -10t-10 -10zM96 272q-10 0 -10 10t10 10t10 -10t-10 -10z M96 423q-10 0 -10 10t10 10t10 -10t-10 -10zM96 463q-10 0 -10 10t10 10t10 -10t-10 -10zM96 710q-10 0 -10 10t10 10t10 -10t-10 -10zM96 638q-10 0 -10 10t10 10t10 -10t-10 -10zM96 673q-10 0 -10 10t10 10t10 -10t-10 -10z" />
<glyph unicode="j" horiz-adv-x="194" d="M96 226q-10 0 -10 10t10 10t10 -10t-10 -10zM96 186q-10 0 -10 10t10 10t10 -10t-10 -10zM96 146q-10 0 -10 10t10 10t10 -10t-10 -10zM96 108q-10 0 -10 10t10 10t10 -10t-10 -10zM96 66q-10 0 -10 10t10 10t10 -10t-10 -10zM96 26q-10 0 -10 10t10 10t10 -10t-10 -10z M97 -13q-10 0 -10 10t10 10t10 -10t-10 -10zM96 500q-10 0 -10 10t10 10t10 -10t-10 -10zM96 382q-10 0 -10 10t10 10t10 -10t-10 -10zM96 345q-10 0 -10 10t10 10t10 -10t-10 -10zM96 307q-10 0 -10 10t10 10t10 -10t-10 -10zM96 267q-10 0 -10 10t10 10t10 -10t-10 -10z M96 422q-10 0 -10 10t10 10t10 -10t-10 -10zM96 461q-10 0 -10 10t10 10t10 -10t-10 -10zM96 710q-10 0 -10 10t10 10t10 -10t-10 -10zM96 638q-10 0 -10 10t10 10t10 -10t-10 -10zM96 673q-10 0 -10 10t10 10t10 -10t-10 -10zM96 -49q-10 0 -10 10t10 10t10 -10t-10 -10z M89 -84q-10 0 -10 10t10 10t10 -10t-10 -10zM68 -119q-10 0 -10 10t10 10t10 -10t-10 -10zM36 -147q-10 0 -10 10t10 10t10 -10t-10 -10zM-1 -164q-10 0 -10 10t10 10t10 -10t-10 -10zM-110 -144q-10 0 -10 10t10 10t10 -10t-10 -10zM-76 -161q-10 0 -10 10t10 10t10 -10 t-10 -10zM-40 -167q-10 0 -10 10t10 10t10 -10t-10 -10z" />
<glyph unicode="k" horiz-adv-x="512" d="M96 241q-10 0 -10 10t10 10t10 -10t-10 -10zM96 201q-10 0 -10 10t10 10t10 -10t-10 -10zM96 161q-10 0 -10 10t10 10t10 -10t-10 -10zM96 121q-10 0 -10 10t10 10t10 -10t-10 -10zM96 81q-10 0 -10 10t10 10t10 -10t-10 -10zM96 41q-10 0 -10 10t10 10t10 -10t-10 -10z M96 1q-10 0 -10 10t10 10t10 -10t-10 -10zM96 559q-10 0 -10 10t10 10t10 -10t-10 -10zM96 520q-10 0 -10 10t10 10t10 -10t-10 -10zM96 477q-10 0 -10 10t10 10t10 -10t-10 -10zM96 397q-10 0 -10 10t10 10t10 -10t-10 -10zM96 360q-10 0 -10 10t10 10t10 -10t-10 -10z M96 320q-10 0 -10 10t10 10t10 -10t-10 -10zM96 280q-10 0 -10 10t10 10t10 -10t-10 -10zM96 710q-10 0 -10 10t10 10t10 -10t-10 -10zM96 673q-10 0 -10 10t10 10t10 -10t-10 -10zM96 635q-10 0 -10 10t10 10t10 -10t-10 -10zM96 599q-10 0 -10 10t10 10t10 -10t-10 -10z M96 437q-10 0 -10 10t10 10t10 -10t-10 -10zM462 501q-10 0 -10 10t10 10t10 -10t-10 -10zM432 471q-10 0 -10 10t10 10t10 -10t-10 -10zM286 334q-10 0 -10 10t10 10t10 -10t-10 -10zM294 241q-10 0 -10 10t10 10t10 -10t-10 -10zM223 275q-10 0 -10 10t10 10t10 -10 t-10 -10zM252 304q-10 0 -10 10t10 10t10 -10t-10 -10zM192 246q-10 0 -10 10t10 10t10 -10t-10 -10zM273 270q-10 0 -10 10t10 10t10 -10t-10 -10zM160 219q-10 0 -10 10t10 10t10 -10t-10 -10zM379 127q-10 0 -10 10t10 10t10 -10t-10 -10zM129 190q-10 0 -10 10t10 10 t10 -10t-10 -10zM402 94q-10 0 -10 10t10 10t10 -10t-10 -10zM424 63q-10 0 -10 10t10 10t10 -10t-10 -10zM445 35q-10 0 -10 10t10 10t10 -10t-10 -10zM470 0q-10 0 -10 10t10 10t10 -10t-10 -10zM316 212q-10 0 -10 10t10 10t10 -10t-10 -10zM338 183q-10 0 -10 10t10 10 t10 -10t-10 -10zM357 155q-10 0 -10 10t10 10t10 -10t-10 -10zM318 362q-10 0 -10 10t10 10t10 -10t-10 -10zM347 391q-10 0 -10 10t10 10t10 -10t-10 -10zM374 417q-10 0 -10 10t10 10t10 -10t-10 -10zM403 443q-10 0 -10 10t10 10t10 -10t-10 -10z" />
<glyph unicode="l" horiz-adv-x="236" d="M232 10q-10 0 -10 10t10 10t10 -10t-10 -10zM101 241q-10 0 -10 10t10 10t10 -10t-10 -10zM101 201q-10 0 -10 10t10 10t10 -10t-10 -10zM101 161q-10 0 -10 10t10 10t10 -10t-10 -10zM101 121q-10 0 -10 10t10 10t10 -10t-10 -10zM101 81q-10 0 -10 10t10 10t10 -10 t-10 -10zM107 43q-10 0 -10 10t10 10t10 -10t-10 -10zM129 14q-10 0 -10 10t10 10t10 -10t-10 -10zM101 559q-10 0 -10 10t10 10t10 -10t-10 -10zM101 520q-10 0 -10 10t10 10t10 -10t-10 -10zM101 477q-10 0 -10 10t10 10t10 -10t-10 -10zM101 397q-10 0 -10 10t10 10 t10 -10t-10 -10zM101 360q-10 0 -10 10t10 10t10 -10t-10 -10zM101 320q-10 0 -10 10t10 10t10 -10t-10 -10zM101 280q-10 0 -10 10t10 10t10 -10t-10 -10zM101 710q-10 0 -10 10t10 10t10 -10t-10 -10zM101 673q-10 0 -10 10t10 10t10 -10t-10 -10zM101 635q-10 0 -10 10 t10 10t10 -10t-10 -10zM101 599q-10 0 -10 10t10 10t10 -10t-10 -10zM101 437q-10 0 -10 10t10 10t10 -10t-10 -10zM161 -1q-10 0 -10 10t10 10t10 -10t-10 -10zM198 1q-10 0 -10 10t10 10t10 -10t-10 -10z" />
<glyph unicode="m" horiz-adv-x="909" d="M96 231q-10 0 -10 10t10 10t10 -10t-10 -10zM96 191q-10 0 -10 10t10 10t10 -10t-10 -10zM96 151q-10 0 -10 10t10 10t10 -10t-10 -10zM96 113q-10 0 -10 10t10 10t10 -10t-10 -10zM96 71q-10 0 -10 10t10 10t10 -10t-10 -10zM96 35q-10 0 -10 10t10 10t10 -10t-10 -10z M96 0q-10 0 -10 10t10 10t10 -10t-10 -10zM96 500q-10 0 -10 10t10 10t10 -10t-10 -10zM96 387q-10 0 -10 10t10 10t10 -10t-10 -10zM96 350q-10 0 -10 10t10 10t10 -10t-10 -10zM96 312q-10 0 -10 10t10 10t10 -10t-10 -10zM96 272q-10 0 -10 10t10 10t10 -10t-10 -10z M96 423q-10 0 -10 10t10 10t10 -10t-10 -10zM96 463q-10 0 -10 10t10 10t10 -10t-10 -10zM458 231q-10 0 -10 10t10 10t10 -10t-10 -10zM458 189q-10 0 -10 10t10 10t10 -10t-10 -10zM458 151q-10 0 -10 10t10 10t10 -10t-10 -10zM458 110q-10 0 -10 10t10 10t10 -10 t-10 -10zM458 73q-10 0 -10 10t10 10t10 -10t-10 -10zM458 35q-10 0 -10 10t10 10t10 -10t-10 -10zM458 0q-10 0 -10 10t10 10t10 -10t-10 -10zM283 502q-10 0 -10 10t10 10t10 -10t-10 -10zM322 503q-10 0 -10 10t10 10t10 -10t-10 -10zM362 494q-10 0 -10 10t10 10t10 -10 t-10 -10zM401 473q-10 0 -10 10t10 10t10 -10t-10 -10zM426 443q-10 0 -10 10t10 10t10 -10t-10 -10zM448 374q-10 0 -10 10t10 10t10 -10t-10 -10zM463 341q-10 0 -10 10t10 10t10 -10t-10 -10zM440 409q-10 0 -10 10t10 10t10 -10t-10 -10zM458 303q-10 0 -10 10t10 10 t10 -10t-10 -10zM243 490q-10 0 -10 10t10 10t10 -10t-10 -10zM458 268q-10 0 -10 10t10 10t10 -10t-10 -10zM207 471q-10 0 -10 10t10 10t10 -10t-10 -10zM178 448q-10 0 -10 10t10 10t10 -10t-10 -10zM148 412q-10 0 -10 10t10 10t10 -10t-10 -10zM127 373q-10 0 -10 10 t10 10t10 -10t-10 -10zM818 231q-10 0 -10 10t10 10t10 -10t-10 -10zM818 191q-10 0 -10 10t10 10t10 -10t-10 -10zM818 151q-10 0 -10 10t10 10t10 -10t-10 -10zM818 113q-10 0 -10 10t10 10t10 -10t-10 -10zM818 71q-10 0 -10 10t10 10t10 -10t-10 -10zM818 35 q-10 0 -10 10t10 10t10 -10t-10 -10zM818 0q-10 0 -10 10t10 10t10 -10t-10 -10zM643 502q-10 0 -10 10t10 10t10 -10t-10 -10zM682 503q-10 0 -10 10t10 10t10 -10t-10 -10zM722 494q-10 0 -10 10t10 10t10 -10t-10 -10zM761 473q-10 0 -10 10t10 10t10 -10t-10 -10z M786 443q-10 0 -10 10t10 10t10 -10t-10 -10zM808 374q-10 0 -10 10t10 10t10 -10t-10 -10zM813 337q-10 0 -10 10t10 10t10 -10t-10 -10zM800 409q-10 0 -10 10t10 10t10 -10t-10 -10zM818 299q-10 0 -10 10t10 10t10 -10t-10 -10zM603 490q-10 0 -10 10t10 10t10 -10 t-10 -10zM818 265q-10 0 -10 10t10 10t10 -10t-10 -10zM567 471q-10 0 -10 10t10 10t10 -10t-10 -10zM538 448q-10 0 -10 10t10 10t10 -10t-10 -10zM508 412q-10 0 -10 10t10 10t10 -10t-10 -10zM487 373q-10 0 -10 10t10 10t10 -10t-10 -10z" />
<glyph unicode="n" horiz-adv-x="568" d="M96 231q-10 0 -10 10t10 10t10 -10t-10 -10zM96 191q-10 0 -10 10t10 10t10 -10t-10 -10zM96 151q-10 0 -10 10t10 10t10 -10t-10 -10zM96 113q-10 0 -10 10t10 10t10 -10t-10 -10zM96 71q-10 0 -10 10t10 10t10 -10t-10 -10zM96 35q-10 0 -10 10t10 10t10 -10t-10 -10z M96 0q-10 0 -10 10t10 10t10 -10t-10 -10zM96 500q-10 0 -10 10t10 10t10 -10t-10 -10zM96 387q-10 0 -10 10t10 10t10 -10t-10 -10zM96 350q-10 0 -10 10t10 10t10 -10t-10 -10zM96 312q-10 0 -10 10t10 10t10 -10t-10 -10zM96 272q-10 0 -10 10t10 10t10 -10t-10 -10z M96 423q-10 0 -10 10t10 10t10 -10t-10 -10zM96 463q-10 0 -10 10t10 10t10 -10t-10 -10zM477 231q-10 0 -10 10t10 10t10 -10t-10 -10zM477 191q-10 0 -10 10t10 10t10 -10t-10 -10zM477 151q-10 0 -10 10t10 10t10 -10t-10 -10zM477 113q-10 0 -10 10t10 10t10 -10 t-10 -10zM477 71q-10 0 -10 10t10 10t10 -10t-10 -10zM477 35q-10 0 -10 10t10 10t10 -10t-10 -10zM477 0q-10 0 -10 10t10 10t10 -10t-10 -10zM296 499q-10 0 -10 10t10 10t10 -10t-10 -10zM341 503q-10 0 -10 10t10 10t10 -10t-10 -10zM384 494q-10 0 -10 10t10 10t10 -10 t-10 -10zM423 471q-10 0 -10 10t10 10t10 -10t-10 -10zM445 443q-10 0 -10 10t10 10t10 -10t-10 -10zM467 374q-10 0 -10 10t10 10t10 -10t-10 -10zM472 337q-10 0 -10 10t10 10t10 -10t-10 -10zM459 409q-10 0 -10 10t10 10t10 -10t-10 -10zM477 299q-10 0 -10 10t10 10 t10 -10t-10 -10zM253 484q-10 0 -10 10t10 10t10 -10t-10 -10zM477 268q-10 0 -10 10t10 10t10 -10t-10 -10zM214 466q-10 0 -10 10t10 10t10 -10t-10 -10zM180 440q-10 0 -10 10t10 10t10 -10t-10 -10zM152 408q-10 0 -10 10t10 10t10 -10t-10 -10zM127 373q-10 0 -10 10 t10 10t10 -10t-10 -10z" />
<glyph unicode="o" horiz-adv-x="590" d="M296 504q-10 0 -10 10t10 10t10 -10t-10 -10zM342 497q-10 0 -10 10t10 10t10 -10t-10 -10zM382 484q-10 0 -10 10t10 10t10 -10t-10 -10zM421 461q-10 0 -10 10t10 10t10 -10t-10 -10zM453 433q-10 0 -10 10t10 10t10 -10t-10 -10zM502 364q-10 0 -10 10t10 10t10 -10 t-10 -10zM517 327q-10 0 -10 10t10 10t10 -10t-10 -10zM529 250q-10 0 -10 10t10 10t10 -10t-10 -10zM481 399q-10 0 -10 10t10 10t10 -10t-10 -10zM524 289q-10 0 -10 10t10 10t10 -10t-10 -10zM249 497q-10 0 -10 10t10 10t10 -10t-10 -10zM209 484q-10 0 -10 10t10 10 t10 -10t-10 -10zM170 461q-10 0 -10 10t10 10t10 -10t-10 -10zM138 433q-10 0 -10 10t10 10t10 -10t-10 -10zM89 364q-10 0 -10 10t10 10t10 -10t-10 -10zM74 327q-10 0 -10 10t10 10t10 -10t-10 -10zM62 250q-10 0 -10 10t10 10t10 -10t-10 -10zM110 399q-10 0 -10 10 t10 10t10 -10t-10 -10zM66 290q-10 0 -10 10t10 10t10 -10t-10 -10zM296 17q10 0 10 -10t-10 -10t-10 10t10 10zM342 24q10 0 10 -10t-10 -10t-10 10t10 10zM382 37q10 0 10 -10t-10 -10t-10 10t10 10zM421 60q10 0 10 -10t-10 -10t-10 10t10 10zM453 88q10 0 10 -10 t-10 -10t-10 10t10 10zM502 157q10 0 10 -10t-10 -10t-10 10t10 10zM517 194q10 0 10 -10t-10 -10t-10 10t10 10zM481 122q10 0 10 -10t-10 -10t-10 10t10 10zM525 231q10 0 10 -10t-10 -10t-10 10t10 10zM249 24q10 0 10 -10t-10 -10t-10 10t10 10zM209 37q10 0 10 -10 t-10 -10t-10 10t10 10zM170 60q10 0 10 -10t-10 -10t-10 10t10 10zM138 88q10 0 10 -10t-10 -10t-10 10t10 10zM89 157q10 0 10 -10t-10 -10t-10 10t10 10zM74 194q10 0 10 -10t-10 -10t-10 10t10 10zM110 122q10 0 10 -10t-10 -10t-10 10t10 10zM66 231q10 0 10 -10 t-10 -10t-10 10t10 10z" />
<glyph unicode="p" horiz-adv-x="606" d="M240 486q-10 0 -10 10t10 10t10 -10t-10 -10zM280 500q-10 0 -10 10t10 10t10 -10t-10 -10zM320 504q-10 0 -10 10t10 10t10 -10t-10 -10zM360 499q-10 0 -10 10t10 10t10 -10t-10 -10zM400 486q-10 0 -10 10t10 10t10 -10t-10 -10zM205 466q-10 0 -10 10t10 10t10 -10 t-10 -10zM438 464q-10 0 -10 10t10 10t10 -10t-10 -10zM175 442q-10 0 -10 10t10 10t10 -10t-10 -10zM471 435q-10 0 -10 10t10 10t10 -10t-10 -10zM517 368q-10 0 -10 10t10 10t10 -10t-10 -10zM531 332q-10 0 -10 10t10 10t10 -10t-10 -10zM544 256q-10 0 -10 10t10 10 t10 -10t-10 -10zM542 216q-10 0 -10 10t10 10t10 -10t-10 -10zM535 180q-10 0 -10 10t10 10t10 -10t-10 -10zM522 142q-10 0 -10 10t10 10t10 -10t-10 -10zM504 107q-10 0 -10 10t10 10t10 -10t-10 -10zM149 69q-10 0 -10 10t10 10t10 -10t-10 -10zM482 76q-10 0 -10 10 t10 10t10 -10t-10 -10zM207 23q-10 0 -10 10t10 10t10 -10t-10 -10zM240 10q-10 0 -10 10t10 10t10 -10t-10 -10zM391 10q-10 0 -10 10t10 10t10 -10t-10 -10zM425 27q-10 0 -10 10t10 10t10 -10t-10 -10zM96 241q-10 0 -10 10t10 10t10 -10t-10 -10zM96 201q-10 0 -10 10 t10 10t10 -10t-10 -10zM96 161q-10 0 -10 10t10 10t10 -10t-10 -10zM96 121q-10 0 -10 10t10 10t10 -10t-10 -10zM96 81q-10 0 -10 10t10 10t10 -10t-10 -10zM96 45q-10 0 -10 10t10 10t10 -10t-10 -10zM96 8q-10 0 -10 10t10 10t10 -10t-10 -10zM96 -177q-10 0 -10 10 t10 10t10 -10t-10 -10zM96 -213q-10 0 -10 10t10 10t10 -10t-10 -10zM96 500q-10 0 -10 10t10 10t10 -10t-10 -10zM96 397q-10 0 -10 10t10 10t10 -10t-10 -10zM96 360q-10 0 -10 10t10 10t10 -10t-10 -10zM96 320q-10 0 -10 10t10 10t10 -10t-10 -10zM96 280q-10 0 -10 10 t10 10t10 -10t-10 -10zM96 -31q-10 0 -10 10t10 10t10 -10t-10 -10zM96 -70q-10 0 -10 10t10 10t10 -10t-10 -10zM96 -106q-10 0 -10 10t10 10t10 -10t-10 -10zM96 -141q-10 0 -10 10t10 10t10 -10t-10 -10zM96 432q-10 0 -10 10t10 10t10 -10t-10 -10zM499 402 q-10 0 -10 10t10 10t10 -10t-10 -10zM540 295q-10 0 -10 10t10 10t10 -10t-10 -10zM149 411q-10 0 -10 10t10 10t10 -10t-10 -10zM124 380q-10 0 -10 10t10 10t10 -10t-10 -10zM125 98q-10 0 -10 10t10 10t10 -10t-10 -10zM312 -6q-10 0 -10 10t10 10t10 -10t-10 -10z M274 -2q-10 0 -10 10t10 10t10 -10t-10 -10zM178 44q-10 0 -10 10t10 10t10 -10t-10 -10zM352 -2q-10 0 -10 10t10 10t10 -10t-10 -10zM456 49q-10 0 -10 10t10 10t10 -10t-10 -10zM96 466q-10 0 -10 10t10 10t10 -10t-10 -10z" />
<glyph unicode="q" horiz-adv-x="606" d="M366 35q10 0 10 -10t-10 -10t-10 10t10 10zM326 21q10 0 10 -10t-10 -10t-10 10t10 10zM286 17q10 0 10 -10t-10 -10t-10 10t10 10zM246 22q10 0 10 -10t-10 -10t-10 10t10 10zM206 35q10 0 10 -10t-10 -10t-10 10t10 10zM401 55q10 0 10 -10t-10 -10t-10 10t10 10z M168 57q10 0 10 -10t-10 -10t-10 10t10 10zM431 79q10 0 10 -10t-10 -10t-10 10t10 10zM135 86q10 0 10 -10t-10 -10t-10 10t10 10zM89 153q10 0 10 -10t-10 -10t-10 10t10 10zM75 189q10 0 10 -10t-10 -10t-10 10t10 10zM62 265q10 0 10 -10t-10 -10t-10 10t10 10zM64 305 q10 0 10 -10t-10 -10t-10 10t10 10zM71 341q10 0 10 -10t-10 -10t-10 10t10 10zM84 379q10 0 10 -10t-10 -10t-10 10t10 10zM102 414q10 0 10 -10t-10 -10t-10 10t10 10zM457 452q10 0 10 -10t-10 -10t-10 10t10 10zM124 445q10 0 10 -10t-10 -10t-10 10t10 10zM399 498 q10 0 10 -10t-10 -10t-10 10t10 10zM366 511q10 0 10 -10t-10 -10t-10 10t10 10zM215 511q10 0 10 -10t-10 -10t-10 10t10 10zM181 494q10 0 10 -10t-10 -10t-10 10t10 10zM510 280q10 0 10 -10t-10 -10t-10 10t10 10zM510 320q10 0 10 -10t-10 -10t-10 10t10 10zM510 360 q10 0 10 -10t-10 -10t-10 10t10 10zM510 400q10 0 10 -10t-10 -10t-10 10t10 10zM510 440q10 0 10 -10t-10 -10t-10 10t10 10zM510 480q10 0 10 -10t-10 -10t-10 10t10 10zM510 520q10 0 10 -10t-10 -10t-10 10t10 10zM510 -38q10 0 10 -10t-10 -10t-10 10t10 10zM510 1 q10 0 10 -10t-10 -10t-10 10t10 10zM510 44q10 0 10 -10t-10 -10t-10 10t10 10zM510 124q10 0 10 -10t-10 -10t-10 10t10 10zM510 161q10 0 10 -10t-10 -10t-10 10t10 10zM510 201q10 0 10 -10t-10 -10t-10 10t10 10zM510 241q10 0 10 -10t-10 -10t-10 10t10 10zM510 -189 q10 0 10 -10t-10 -10t-10 10t10 10zM510 -152q10 0 10 -10t-10 -10t-10 10t10 10zM510 -114q10 0 10 -10t-10 -10t-10 10t10 10zM510 -78q10 0 10 -10t-10 -10t-10 10t10 10zM510 84q10 0 10 -10t-10 -10t-10 10t10 10zM107 119q10 0 10 -10t-10 -10t-10 10t10 10zM66 226 q10 0 10 -10t-10 -10t-10 10t10 10zM457 110q10 0 10 -10t-10 -10t-10 10t10 10zM482 141q10 0 10 -10t-10 -10t-10 10t10 10zM481 423q10 0 10 -10t-10 -10t-10 10t10 10zM294 527q10 0 10 -10t-10 -10t-10 10t10 10zM332 523q10 0 10 -10t-10 -10t-10 10t10 10zM428 477 q10 0 10 -10t-10 -10t-10 10t10 10zM254 523q10 0 10 -10t-10 -10t-10 10t10 10zM150 472q10 0 10 -10t-10 -10t-10 10t10 10z" />
<glyph unicode="r" horiz-adv-x="333" d="M96 231q-10 0 -10 10t10 10t10 -10t-10 -10zM96 191q-10 0 -10 10t10 10t10 -10t-10 -10zM96 151q-10 0 -10 10t10 10t10 -10t-10 -10zM96 113q-10 0 -10 10t10 10t10 -10t-10 -10zM96 71q-10 0 -10 10t10 10t10 -10t-10 -10zM96 35q-10 0 -10 10t10 10t10 -10t-10 -10z M96 0q-10 0 -10 10t10 10t10 -10t-10 -10zM96 500q-10 0 -10 10t10 10t10 -10t-10 -10zM96 387q-10 0 -10 10t10 10t10 -10t-10 -10zM96 350q-10 0 -10 10t10 10t10 -10t-10 -10zM96 312q-10 0 -10 10t10 10t10 -10t-10 -10zM96 272q-10 0 -10 10t10 10t10 -10t-10 -10z M96 423q-10 0 -10 10t10 10t10 -10t-10 -10zM96 463q-10 0 -10 10t10 10t10 -10t-10 -10zM296 497q-10 0 -10 10t10 10t10 -10t-10 -10zM255 489q-10 0 -10 10t10 10t10 -10t-10 -10zM218 470q-10 0 -10 10t10 10t10 -10t-10 -10zM187 443q-10 0 -10 10t10 10t10 -10 t-10 -10zM158 409q-10 0 -10 10t10 10t10 -10t-10 -10zM140 373q-10 0 -10 10t10 10t10 -10t-10 -10zM124 336q-10 0 -10 10t10 10t10 -10t-10 -10z" />
<glyph unicode="s" horiz-adv-x="476" d="M230 505q-10 0 -10 10t10 10t10 -10t-10 -10zM272 504q-10 0 -10 10t10 10t10 -10t-10 -10zM310 497q-10 0 -10 10t10 10t10 -10t-10 -10zM344 484q-10 0 -10 10t10 10t10 -10t-10 -10zM403 444q-10 0 -10 10t10 10t10 -10t-10 -10zM188 498q-10 0 -10 10t10 10t10 -10 t-10 -10zM148 484q-10 0 -10 10t10 10t10 -10t-10 -10zM115 463q-10 0 -10 10t10 10t10 -10t-10 -10zM91 431q-10 0 -10 10t10 10t10 -10t-10 -10zM77 393q-10 0 -10 10t10 10t10 -10t-10 -10zM239 14q10 0 10 -10t-10 -10t-10 10t10 10zM282 17q10 0 10 -10t-10 -10t-10 10 t10 10zM321 28q10 0 10 -10t-10 -10t-10 10t10 10zM355 43q10 0 10 -10t-10 -10t-10 10t10 10zM386 69q10 0 10 -10t-10 -10t-10 10t10 10zM417 142q10 0 10 -10t-10 -10t-10 10t10 10zM412 184q10 0 10 -10t-10 -10t-10 10t10 10zM409 102q10 0 10 -10t-10 -10t-10 10 t10 10zM390 217q10 0 10 -10t-10 -10t-10 10t10 10zM194 17q10 0 10 -10t-10 -10t-10 10t10 10zM152 27q10 0 10 -10t-10 -10t-10 10t10 10zM115 42q10 0 10 -10t-10 -10t-10 10t10 10zM81 63q10 0 10 -10t-10 -10t-10 10t10 10zM52 88q10 0 10 -10t-10 -10t-10 10t10 10z M357 239q10 0 10 -10t-10 -10t-10 10t10 10zM322 253q10 0 10 -10t-10 -10t-10 10t10 10zM286 264q10 0 10 -10t-10 -10t-10 10t10 10zM249 273q10 0 10 -10t-10 -10t-10 10t10 10zM212 282q10 0 10 -10t-10 -10t-10 10t10 10zM176 291q10 0 10 -10t-10 -10t-10 10t10 10z M142 302q10 0 10 -10t-10 -10t-10 10t10 10zM110 317q10 0 10 -10t-10 -10t-10 10t10 10zM76 375q10 0 10 -10t-10 -10t-10 10t10 10zM86 342q10 0 10 -10t-10 -10t-10 10t10 10zM377 468q-10 0 -10 10t10 10t10 -10t-10 -10z" />
<glyph unicode="t" horiz-adv-x="306" d="M251 10q-10 0 -10 10t10 10t10 -10t-10 -10zM118 241q-10 0 -10 10t10 10t10 -10t-10 -10zM118 201q-10 0 -10 10t10 10t10 -10t-10 -10zM118 161q-10 0 -10 10t10 10t10 -10t-10 -10zM118 121q-10 0 -10 10t10 10t10 -10t-10 -10zM118 81q-10 0 -10 10t10 10t10 -10 t-10 -10zM124 43q-10 0 -10 10t10 10t10 -10t-10 -10zM146 14q-10 0 -10 10t10 10t10 -10t-10 -10zM118 557q-10 0 -10 10t10 10t10 -10t-10 -10zM118 515q-10 0 -10 10t10 10t10 -10t-10 -10zM118 477q-10 0 -10 10t10 10t10 -10t-10 -10zM118 397q-10 0 -10 10t10 10 t10 -10t-10 -10zM118 360q-10 0 -10 10t10 10t10 -10t-10 -10zM118 320q-10 0 -10 10t10 10t10 -10t-10 -10zM118 280q-10 0 -10 10t10 10t10 -10t-10 -10zM118 673q-10 0 -10 10t10 10t10 -10t-10 -10zM118 635q-10 0 -10 10t10 10t10 -10t-10 -10zM118 597q-10 0 -10 10 t10 10t10 -10t-10 -10zM118 437q-10 0 -10 10t10 10t10 -10t-10 -10zM180 1q-10 0 -10 10t10 10t10 -10t-10 -10zM216 1q-10 0 -10 10t10 10t10 -10t-10 -10zM283 24q-10 0 -10 10t10 10t10 -10t-10 -10zM75 497q-10 0 -10 10t10 10t10 -10t-10 -10zM38 497q-10 0 -10 10 t10 10t10 -10t-10 -10zM156 497q-10 0 -10 10t10 10t10 -10t-10 -10zM194 497q-10 0 -10 10t10 10t10 -10t-10 -10zM234 497q-10 0 -10 10t10 10t10 -10t-10 -10z" />
<glyph unicode="u" horiz-adv-x="580" d="M479 289q10 0 10 -10t-10 -10t-10 10t10 10zM479 329q10 0 10 -10t-10 -10t-10 10t10 10zM479 369q10 0 10 -10t-10 -10t-10 10t10 10zM479 407q10 0 10 -10t-10 -10t-10 10t10 10zM479 449q10 0 10 -10t-10 -10t-10 10t10 10zM479 485q10 0 10 -10t-10 -10t-10 10t10 10 zM479 520q10 0 10 -10t-10 -10t-10 10t10 10zM499 20q10 0 10 -10t-10 -10t-10 10t10 10zM479 133q10 0 10 -10t-10 -10t-10 10t10 10zM479 170q10 0 10 -10t-10 -10t-10 10t10 10zM479 208q10 0 10 -10t-10 -10t-10 10t10 10zM479 248q10 0 10 -10t-10 -10t-10 10t10 10z M482 93q10 0 10 -10t-10 -10t-10 10t10 10zM488 55q10 0 10 -10t-10 -10t-10 10t10 10zM92 289q10 0 10 -10t-10 -10t-10 10t10 10zM92 329q10 0 10 -10t-10 -10t-10 10t10 10zM92 369q10 0 10 -10t-10 -10t-10 10t10 10zM92 407q10 0 10 -10t-10 -10t-10 10t10 10zM92 449 q10 0 10 -10t-10 -10t-10 10t10 10zM92 485q10 0 10 -10t-10 -10t-10 10t10 10zM92 520q10 0 10 -10t-10 -10t-10 10t10 10zM273 21q10 0 10 -10t-10 -10t-10 10t10 10zM228 17q10 0 10 -10t-10 -10t-10 10t10 10zM185 26q10 0 10 -10t-10 -10t-10 10t10 10zM146 49 q10 0 10 -10t-10 -10t-10 10t10 10zM124 77q10 0 10 -10t-10 -10t-10 10t10 10zM102 146q10 0 10 -10t-10 -10t-10 10t10 10zM97 183q10 0 10 -10t-10 -10t-10 10t10 10zM110 111q10 0 10 -10t-10 -10t-10 10t10 10zM92 221q10 0 10 -10t-10 -10t-10 10t10 10zM316 36 q10 0 10 -10t-10 -10t-10 10t10 10zM92 252q10 0 10 -10t-10 -10t-10 10t10 10zM355 54q10 0 10 -10t-10 -10t-10 10t10 10zM390 78q10 0 10 -10t-10 -10t-10 10t10 10zM422 110q10 0 10 -10t-10 -10t-10 10t10 10zM447 144q10 0 10 -10t-10 -10t-10 10t10 10z" />
<glyph unicode="v" horiz-adv-x="523" d="M61 463q-10 0 -10 10t10 10t10 -10t-10 -10zM76 426q-10 0 -10 10t10 10t10 -10t-10 -10zM92 390q-10 0 -10 10t10 10t10 -10t-10 -10zM108 352q-10 0 -10 10t10 10t10 -10t-10 -10zM126 312q-10 0 -10 10t10 10t10 -10t-10 -10zM143 272q-10 0 -10 10t10 10t10 -10 t-10 -10zM158 236q-10 0 -10 10t10 10t10 -10t-10 -10zM174 198q-10 0 -10 10t10 10t10 -10t-10 -10zM192 158q-10 0 -10 10t10 10t10 -10t-10 -10zM208 117q-10 0 -10 10t10 10t10 -10t-10 -10zM224 78q-10 0 -10 10t10 10t10 -10t-10 -10zM263 0q-10 0 -10 10t10 10 t10 -10t-10 -10zM242 40q-10 0 -10 10t10 10t10 -10t-10 -10zM46 500q-10 0 -10 10t10 10t10 -10t-10 -10zM464 463q-10 0 -10 10t10 10t10 -10t-10 -10zM449 426q-10 0 -10 10t10 10t10 -10t-10 -10zM433 390q-10 0 -10 10t10 10t10 -10t-10 -10zM417 352q-10 0 -10 10 t10 10t10 -10t-10 -10zM399 312q-10 0 -10 10t10 10t10 -10t-10 -10zM382 272q-10 0 -10 10t10 10t10 -10t-10 -10zM367 236q-10 0 -10 10t10 10t10 -10t-10 -10zM351 198q-10 0 -10 10t10 10t10 -10t-10 -10zM333 158q-10 0 -10 10t10 10t10 -10t-10 -10zM317 117 q-10 0 -10 10t10 10t10 -10t-10 -10zM301 78q-10 0 -10 10t10 10t10 -10t-10 -10zM283 40q-10 0 -10 10t10 10t10 -10t-10 -10zM479 500q-10 0 -10 10t10 10t10 -10t-10 -10z" />
<glyph unicode="w" horiz-adv-x="800" d="M61 463q-10 0 -10 10t10 10t10 -10t-10 -10zM76 426q-10 0 -10 10t10 10t10 -10t-10 -10zM92 390q-10 0 -10 10t10 10t10 -10t-10 -10zM108 352q-10 0 -10 10t10 10t10 -10t-10 -10zM126 312q-10 0 -10 10t10 10t10 -10t-10 -10zM143 272q-10 0 -10 10t10 10t10 -10 t-10 -10zM158 236q-10 0 -10 10t10 10t10 -10t-10 -10zM174 198q-10 0 -10 10t10 10t10 -10t-10 -10zM192 158q-10 0 -10 10t10 10t10 -10t-10 -10zM208 117q-10 0 -10 10t10 10t10 -10t-10 -10zM224 78q-10 0 -10 10t10 10t10 -10t-10 -10zM263 0q-10 0 -10 10t10 10 t10 -10t-10 -10zM242 40q-10 0 -10 10t10 10t10 -10t-10 -10zM46 500q-10 0 -10 10t10 10t10 -10t-10 -10zM464 463q-10 0 -10 10t10 10t10 -10t-10 -10zM449 426q-10 0 -10 10t10 10t10 -10t-10 -10zM433 390q-10 0 -10 10t10 10t10 -10t-10 -10zM417 352q-10 0 -10 10 t10 10t10 -10t-10 -10zM399 312q-10 0 -10 10t10 10t10 -10t-10 -10zM382 272q-10 0 -10 10t10 10t10 -10t-10 -10zM367 236q-10 0 -10 10t10 10t10 -10t-10 -10zM351 198q-10 0 -10 10t10 10t10 -10t-10 -10zM333 158q-10 0 -10 10t10 10t10 -10t-10 -10zM317 117 q-10 0 -10 10t10 10t10 -10t-10 -10zM301 78q-10 0 -10 10t10 10t10 -10t-10 -10zM283 40q-10 0 -10 10t10 10t10 -10t-10 -10zM479 500q-10 0 -10 10t10 10t10 -10t-10 -10zM334 463q-10 0 -10 10t10 10t10 -10t-10 -10zM349 426q-10 0 -10 10t10 10t10 -10t-10 -10z M365 390q-10 0 -10 10t10 10t10 -10t-10 -10zM381 352q-10 0 -10 10t10 10t10 -10t-10 -10zM416 272q-10 0 -10 10t10 10t10 -10t-10 -10zM431 236q-10 0 -10 10t10 10t10 -10t-10 -10zM447 198q-10 0 -10 10t10 10t10 -10t-10 -10zM465 158q-10 0 -10 10t10 10t10 -10 t-10 -10zM481 117q-10 0 -10 10t10 10t10 -10t-10 -10zM497 78q-10 0 -10 10t10 10t10 -10t-10 -10zM536 0q-10 0 -10 10t10 10t10 -10t-10 -10zM515 40q-10 0 -10 10t10 10t10 -10t-10 -10zM319 500q-10 0 -10 10t10 10t10 -10t-10 -10zM737 463q-10 0 -10 10t10 10t10 -10 t-10 -10zM722 426q-10 0 -10 10t10 10t10 -10t-10 -10zM706 390q-10 0 -10 10t10 10t10 -10t-10 -10zM690 352q-10 0 -10 10t10 10t10 -10t-10 -10zM672 312q-10 0 -10 10t10 10t10 -10t-10 -10zM655 272q-10 0 -10 10t10 10t10 -10t-10 -10zM640 236q-10 0 -10 10t10 10 t10 -10t-10 -10zM624 198q-10 0 -10 10t10 10t10 -10t-10 -10zM606 158q-10 0 -10 10t10 10t10 -10t-10 -10zM590 117q-10 0 -10 10t10 10t10 -10t-10 -10zM574 78q-10 0 -10 10t10 10t10 -10t-10 -10zM556 40q-10 0 -10 10t10 10t10 -10t-10 -10zM752 500q-10 0 -10 10 t10 10t10 -10t-10 -10z" />
<glyph unicode="x" horiz-adv-x="486" d="M70 467q-10 0 -10 10t10 10t10 -10t-10 -10zM97 434q-10 0 -10 10t10 10t10 -10t-10 -10zM121 403q-10 0 -10 10t10 10t10 -10t-10 -10zM46 500q-10 0 -10 10t10 10t10 -10t-10 -10zM144 373q-10 0 -10 10t10 10t10 -10t-10 -10zM170 342q-10 0 -10 10t10 10t10 -10 t-10 -10zM196 310q-10 0 -10 10t10 10t10 -10t-10 -10zM217 280q-10 0 -10 10t10 10t10 -10t-10 -10zM241 249q-10 0 -10 10t10 10t10 -10t-10 -10zM416 467q-10 0 -10 10t10 10t10 -10t-10 -10zM389 434q-10 0 -10 10t10 10t10 -10t-10 -10zM365 403q-10 0 -10 10t10 10 t10 -10t-10 -10zM440 500q-10 0 -10 10t10 10t10 -10t-10 -10zM342 373q-10 0 -10 10t10 10t10 -10t-10 -10zM316 342q-10 0 -10 10t10 10t10 -10t-10 -10zM290 310q-10 0 -10 10t10 10t10 -10t-10 -10zM269 280q-10 0 -10 10t10 10t10 -10t-10 -10zM70 53q10 0 10 -10 t-10 -10t-10 10t10 10zM97 86q10 0 10 -10t-10 -10t-10 10t10 10zM121 117q10 0 10 -10t-10 -10t-10 10t10 10zM46 20q10 0 10 -10t-10 -10t-10 10t10 10zM144 147q10 0 10 -10t-10 -10t-10 10t10 10zM170 178q10 0 10 -10t-10 -10t-10 10t10 10zM196 210q10 0 10 -10 t-10 -10t-10 10t10 10zM217 240q10 0 10 -10t-10 -10t-10 10t10 10zM416 53q10 0 10 -10t-10 -10t-10 10t10 10zM389 86q10 0 10 -10t-10 -10t-10 10t10 10zM365 117q10 0 10 -10t-10 -10t-10 10t10 10zM440 20q10 0 10 -10t-10 -10t-10 10t10 10zM342 147q10 0 10 -10 t-10 -10t-10 10t10 10zM316 178q10 0 10 -10t-10 -10t-10 10t10 10zM290 210q10 0 10 -10t-10 -10t-10 10t10 10zM269 240q10 0 10 -10t-10 -10t-10 10t10 10z" />
<glyph unicode="y" horiz-adv-x="541" d="M71 463q-10 0 -10 10t10 10t10 -10t-10 -10zM86 426q-10 0 -10 10t10 10t10 -10t-10 -10zM102 390q-10 0 -10 10t10 10t10 -10t-10 -10zM118 352q-10 0 -10 10t10 10t10 -10t-10 -10zM136 312q-10 0 -10 10t10 10t10 -10t-10 -10zM153 272q-10 0 -10 10t10 10t10 -10 t-10 -10zM168 236q-10 0 -10 10t10 10t10 -10t-10 -10zM184 198q-10 0 -10 10t10 10t10 -10t-10 -10zM202 158q-10 0 -10 10t10 10t10 -10t-10 -10zM218 117q-10 0 -10 10t10 10t10 -10t-10 -10zM234 78q-10 0 -10 10t10 10t10 -10t-10 -10zM273 0q-10 0 -10 10t10 10 t10 -10t-10 -10zM252 40q-10 0 -10 10t10 10t10 -10t-10 -10zM56 500q-10 0 -10 10t10 10t10 -10t-10 -10zM474 463q-10 0 -10 10t10 10t10 -10t-10 -10zM459 426q-10 0 -10 10t10 10t10 -10t-10 -10zM443 390q-10 0 -10 10t10 10t10 -10t-10 -10zM427 352q-10 0 -10 10 t10 10t10 -10t-10 -10zM409 312q-10 0 -10 10t10 10t10 -10t-10 -10zM392 272q-10 0 -10 10t10 10t10 -10t-10 -10zM377 236q-10 0 -10 10t10 10t10 -10t-10 -10zM361 198q-10 0 -10 10t10 10t10 -10t-10 -10zM343 158q-10 0 -10 10t10 10t10 -10t-10 -10zM327 117 q-10 0 -10 10t10 10t10 -10t-10 -10zM311 78q-10 0 -10 10t10 10t10 -10t-10 -10zM293 40q-10 0 -10 10t10 10t10 -10t-10 -10zM489 500q-10 0 -10 10t10 10t10 -10t-10 -10zM132 -213q-10 0 -10 10t10 10t10 -10t-10 -10zM169 -203q-10 0 -10 10t10 10t10 -10t-10 -10z M196 -177q-10 0 -10 10t10 10t10 -10t-10 -10zM214 -143q-10 0 -10 10t10 10t10 -10t-10 -10zM231 -108q-10 0 -10 10t10 10t10 -10t-10 -10zM245 -74q-10 0 -10 10t10 10t10 -10t-10 -10zM261 -38q-10 0 -10 10t10 10t10 -10t-10 -10z" />
<glyph unicode="z" horiz-adv-x="484" d="M46 500q-10 0 -10 10t10 10t10 -10t-10 -10zM241 249q-10 0 -10 10t10 10t10 -10t-10 -10zM416 467q-10 0 -10 10t10 10t10 -10t-10 -10zM389 434q-10 0 -10 10t10 10t10 -10t-10 -10zM365 403q-10 0 -10 10t10 10t10 -10t-10 -10zM440 500q-10 0 -10 10t10 10t10 -10 t-10 -10zM342 373q-10 0 -10 10t10 10t10 -10t-10 -10zM316 342q-10 0 -10 10t10 10t10 -10t-10 -10zM290 310q-10 0 -10 10t10 10t10 -10t-10 -10zM269 280q-10 0 -10 10t10 10t10 -10t-10 -10zM70 53q10 0 10 -10t-10 -10t-10 10t10 10zM97 86q10 0 10 -10t-10 -10t-10 10 t10 10zM121 117q10 0 10 -10t-10 -10t-10 10t10 10zM46 20q10 0 10 -10t-10 -10t-10 10t10 10zM144 147q10 0 10 -10t-10 -10t-10 10t10 10zM170 178q10 0 10 -10t-10 -10t-10 10t10 10zM196 210q10 0 10 -10t-10 -10t-10 10t10 10zM217 240q10 0 10 -10t-10 -10t-10 10 t10 10zM440 20q10 0 10 -10t-10 -10t-10 10t10 10zM79 500q-10 0 -10 10t10 10t10 -10t-10 -10zM113 500q-10 0 -10 10t10 10t10 -10t-10 -10zM149 500q-10 0 -10 10t10 10t10 -10t-10 -10zM401 500q-10 0 -10 10t10 10t10 -10t-10 -10zM366 500q-10 0 -10 10t10 10t10 -10 t-10 -10zM330 500q-10 0 -10 10t10 10t10 -10t-10 -10zM292 500q-10 0 -10 10t10 10t10 -10t-10 -10zM255 500q-10 0 -10 10t10 10t10 -10t-10 -10zM218 500q-10 0 -10 10t10 10t10 -10t-10 -10zM183 500q-10 0 -10 10t10 10t10 -10t-10 -10zM80 0q-10 0 -10 10t10 10 t10 -10t-10 -10zM115 0q-10 0 -10 10t10 10t10 -10t-10 -10zM149 0q-10 0 -10 10t10 10t10 -10t-10 -10zM182 0q-10 0 -10 10t10 10t10 -10t-10 -10zM405 0q-10 0 -10 10t10 10t10 -10t-10 -10zM369 0q-10 0 -10 10t10 10t10 -10t-10 -10zM331 0q-10 0 -10 10t10 10t10 -10 t-10 -10zM293 0q-10 0 -10 10t10 10t10 -10t-10 -10zM256 0q-10 0 -10 10t10 10t10 -10t-10 -10zM218 0q-10 0 -10 10t10 10t10 -10t-10 -10z" />
<glyph unicode="{" horiz-adv-x="225" d="M118 706q-10 0 -10 10t10 10t10 -10t-10 -10zM109 672q-10 0 -10 10t10 10t10 -10t-10 -10zM109 637q-10 0 -10 10t10 10t10 -10t-10 -10zM109 602q-10 0 -10 10t10 10t10 -10t-10 -10zM109 567q-10 0 -10 10t10 10t10 -10t-10 -10zM109 532q-10 0 -10 10t10 10t10 -10 t-10 -10zM109 497q-10 0 -10 10t10 10t10 -10t-10 -10zM109 462q-10 0 -10 10t10 10t10 -10t-10 -10zM109 426q-10 0 -10 10t10 10t10 -10t-10 -10zM109 391q-10 0 -10 10t10 10t10 -10t-10 -10zM109 321q-10 0 -10 10t10 10t10 -10t-10 -10zM109 286q-10 0 -10 10t10 10 t10 -10t-10 -10zM109 251q-10 0 -10 10t10 10t10 -10t-10 -10zM109 216q-10 0 -10 10t10 10t10 -10t-10 -10zM109 181q-10 0 -10 10t10 10t10 -10t-10 -10zM109 144q-10 0 -10 10t10 10t10 -10t-10 -10zM109 109q-10 0 -10 10t10 10t10 -10t-10 -10zM109 74q-10 0 -10 10 t10 10t10 -10t-10 -10zM109 39q-10 0 -10 10t10 10t10 -10t-10 -10zM109 4q-10 0 -10 10t10 10t10 -10t-10 -10zM151 706q-10 0 -10 10t10 10t10 -10t-10 -10zM119 -29q-10 0 -10 10t10 10t10 -10t-10 -10zM152 -29q-10 0 -10 10t10 10t10 -10t-10 -10zM185 -29 q-10 0 -10 10t10 10t10 -10t-10 -10zM97 356q-10 0 -10 10t10 10t10 -10t-10 -10zM64 356q-10 0 -10 10t10 10t10 -10t-10 -10zM184 706q-10 0 -10 10t10 10t10 -10t-10 -10z" />
<glyph unicode="|" horiz-adv-x="208" d="M104 706q-10 0 -10 10t10 10t10 -10t-10 -10zM104 672q-10 0 -10 10t10 10t10 -10t-10 -10zM104 637q-10 0 -10 10t10 10t10 -10t-10 -10zM104 602q-10 0 -10 10t10 10t10 -10t-10 -10zM104 567q-10 0 -10 10t10 10t10 -10t-10 -10zM104 532q-10 0 -10 10t10 10t10 -10 t-10 -10zM104 497q-10 0 -10 10t10 10t10 -10t-10 -10zM104 462q-10 0 -10 10t10 10t10 -10t-10 -10zM104 426q-10 0 -10 10t10 10t10 -10t-10 -10zM104 391q-10 0 -10 10t10 10t10 -10t-10 -10zM104 356q-10 0 -10 10t10 10t10 -10t-10 -10zM104 321q-10 0 -10 10t10 10 t10 -10t-10 -10zM104 286q-10 0 -10 10t10 10t10 -10t-10 -10zM104 251q-10 0 -10 10t10 10t10 -10t-10 -10zM104 216q-10 0 -10 10t10 10t10 -10t-10 -10zM104 181q-10 0 -10 10t10 10t10 -10t-10 -10zM104 144q-10 0 -10 10t10 10t10 -10t-10 -10zM104 109q-10 0 -10 10 t10 10t10 -10t-10 -10zM104 74q-10 0 -10 10t10 10t10 -10t-10 -10zM104 39q-10 0 -10 10t10 10t10 -10t-10 -10zM104 4q-10 0 -10 10t10 10t10 -10t-10 -10zM104 739q-10 0 -10 10t10 10t10 -10t-10 -10zM104 772q-10 0 -10 10t10 10t10 -10t-10 -10zM104 -29q-10 0 -10 10 t10 10t10 -10t-10 -10zM104 -62q-10 0 -10 10t10 10t10 -10t-10 -10zM104 -95q-10 0 -10 10t10 10t10 -10t-10 -10zM104 -128q-10 0 -10 10t10 10t10 -10t-10 -10z" />
<glyph unicode="}" horiz-adv-x="225" d="M108 706q-10 0 -10 10t10 10t10 -10t-10 -10zM117 672q-10 0 -10 10t10 10t10 -10t-10 -10zM117 637q-10 0 -10 10t10 10t10 -10t-10 -10zM117 602q-10 0 -10 10t10 10t10 -10t-10 -10zM117 567q-10 0 -10 10t10 10t10 -10t-10 -10zM117 532q-10 0 -10 10t10 10t10 -10 t-10 -10zM117 497q-10 0 -10 10t10 10t10 -10t-10 -10zM117 462q-10 0 -10 10t10 10t10 -10t-10 -10zM117 426q-10 0 -10 10t10 10t10 -10t-10 -10zM117 391q-10 0 -10 10t10 10t10 -10t-10 -10zM117 321q-10 0 -10 10t10 10t10 -10t-10 -10zM117 286q-10 0 -10 10t10 10 t10 -10t-10 -10zM117 251q-10 0 -10 10t10 10t10 -10t-10 -10zM117 216q-10 0 -10 10t10 10t10 -10t-10 -10zM117 181q-10 0 -10 10t10 10t10 -10t-10 -10zM117 144q-10 0 -10 10t10 10t10 -10t-10 -10zM117 109q-10 0 -10 10t10 10t10 -10t-10 -10zM117 74q-10 0 -10 10 t10 10t10 -10t-10 -10zM117 39q-10 0 -10 10t10 10t10 -10t-10 -10zM117 4q-10 0 -10 10t10 10t10 -10t-10 -10zM75 706q-10 0 -10 10t10 10t10 -10t-10 -10zM107 -29q-10 0 -10 10t10 10t10 -10t-10 -10zM74 -29q-10 0 -10 10t10 10t10 -10t-10 -10zM41 -29q-10 0 -10 10 t10 10t10 -10t-10 -10zM129 356q-10 0 -10 10t10 10t10 -10t-10 -10zM162 356q-10 0 -10 10t10 10t10 -10t-10 -10zM42 706q-10 0 -10 10t10 10t10 -10t-10 -10z" />
<glyph unicode="~" horiz-adv-x="480" d="M86 245q-10 0 -10 10t10 10t10 -10t-10 -10zM101 275q-10 0 -10 10t10 10t10 -10t-10 -10zM125 300q-10 0 -10 10t10 10t10 -10t-10 -10zM158 312q-10 0 -10 10t10 10t10 -10t-10 -10zM193 304q-10 0 -10 10t10 10t10 -10t-10 -10zM225 287q-10 0 -10 10t10 10t10 -10 t-10 -10zM257 268q-10 0 -10 10t10 10t10 -10t-10 -10zM292 254q-10 0 -10 10t10 10t10 -10t-10 -10zM329 253q-10 0 -10 10t10 10t10 -10t-10 -10zM361 267q-10 0 -10 10t10 10t10 -10t-10 -10zM384 290q-10 0 -10 10t10 10t10 -10t-10 -10zM398 320q-10 0 -10 10t10 10 t10 -10t-10 -10z" />
<glyph unicode="&#xa1;" horiz-adv-x="221" d="M111 8q-10 0 -10 10t10 10t10 -10t-10 -10zM111 44q-10 0 -10 10t10 10t10 -10t-10 -10zM111 80q-10 0 -10 10t10 10t10 -10t-10 -10zM111 116q-10 0 -10 10t10 10t10 -10t-10 -10zM111 152q-10 0 -10 10t10 10t10 -10t-10 -10zM111 188q-10 0 -10 10t10 10t10 -10 t-10 -10zM111 224q-10 0 -10 10t10 10t10 -10t-10 -10zM111 260q-10 0 -10 10t10 10t10 -10t-10 -10zM111 296q-10 0 -10 10t10 10t10 -10t-10 -10zM111 332q-10 0 -10 10t10 10t10 -10t-10 -10zM111 368q-10 0 -10 10t10 10t10 -10t-10 -10zM111 404q-10 0 -10 10t10 10 t10 -10t-10 -10zM111 440q-10 0 -10 10t10 10t10 -10t-10 -10zM111 476q-10 0 -10 10t10 10t10 -10t-10 -10zM110 627q-10 0 -10 10t10 10t10 -10t-10 -10zM110 660q-10 0 -10 10t10 10t10 -10t-10 -10zM110 693q-10 0 -10 10t10 10t10 -10t-10 -10z" />
<glyph unicode="&#xa2;" horiz-adv-x="553" d="M299 504q-10 0 -10 10t10 10t10 -10t-10 -10zM345 497q-10 0 -10 10t10 10t10 -10t-10 -10zM385 484q-10 0 -10 10t10 10t10 -10t-10 -10zM424 461q-10 0 -10 10t10 10t10 -10t-10 -10zM456 433q-10 0 -10 10t10 10t10 -10t-10 -10zM479 400q-10 0 -10 10t10 10t10 -10 t-10 -10zM252 497q-10 0 -10 10t10 10t10 -10t-10 -10zM212 484q-10 0 -10 10t10 10t10 -10t-10 -10zM173 461q-10 0 -10 10t10 10t10 -10t-10 -10zM141 433q-10 0 -10 10t10 10t10 -10t-10 -10zM92 364q-10 0 -10 10t10 10t10 -10t-10 -10zM77 327q-10 0 -10 10t10 10 t10 -10t-10 -10zM65 250q-10 0 -10 10t10 10t10 -10t-10 -10zM113 399q-10 0 -10 10t10 10t10 -10t-10 -10zM69 290q-10 0 -10 10t10 10t10 -10t-10 -10zM299 17q10 0 10 -10t-10 -10t-10 10t10 10zM345 24q10 0 10 -10t-10 -10t-10 10t10 10zM385 37q10 0 10 -10t-10 -10 t-10 10t10 10zM424 60q10 0 10 -10t-10 -10t-10 10t10 10zM456 88q10 0 10 -10t-10 -10t-10 10t10 10zM484 122q10 0 10 -10t-10 -10t-10 10t10 10zM252 24q10 0 10 -10t-10 -10t-10 10t10 10zM212 37q10 0 10 -10t-10 -10t-10 10t10 10zM173 60q10 0 10 -10t-10 -10t-10 10 t10 10zM141 88q10 0 10 -10t-10 -10t-10 10t10 10zM92 157q10 0 10 -10t-10 -10t-10 10t10 10zM77 194q10 0 10 -10t-10 -10t-10 10t10 10zM113 122q10 0 10 -10t-10 -10t-10 10t10 10zM69 231q10 0 10 -10t-10 -10t-10 10t10 10zM299 -19q10 0 10 -10t-10 -10t-10 10t10 10 zM299 -54q10 0 10 -10t-10 -10t-10 10t10 10zM299 -89q10 0 10 -10t-10 -10t-10 10t10 10zM299 53q10 0 10 -10t-10 -10t-10 10t10 10zM299 89q10 0 10 -10t-10 -10t-10 10t10 10zM299 125q10 0 10 -10t-10 -10t-10 10t10 10zM299 161q10 0 10 -10t-10 -10t-10 10t10 10z M299 197q10 0 10 -10t-10 -10t-10 10t10 10zM299 233q10 0 10 -10t-10 -10t-10 10t10 10zM299 269q10 0 10 -10t-10 -10t-10 10t10 10zM299 305q10 0 10 -10t-10 -10t-10 10t10 10zM299 341q10 0 10 -10t-10 -10t-10 10t10 10zM299 377q10 0 10 -10t-10 -10t-10 10t10 10z M299 413q10 0 10 -10t-10 -10t-10 10t10 10zM299 449q10 0 10 -10t-10 -10t-10 10t10 10zM299 485q10 0 10 -10t-10 -10t-10 10t10 10zM299 540q-10 0 -10 10t10 10t10 -10t-10 -10zM299 576q-10 0 -10 10t10 10t10 -10t-10 -10zM299 612q-10 0 -10 10t10 10t10 -10t-10 -10 z" />
<glyph unicode="&#xa3;" horiz-adv-x="483" d="M356 343q-10 0 -10 10t10 10t10 -10t-10 -10zM321 343q-10 0 -10 10t10 10t10 -10t-10 -10zM286 343q-10 0 -10 10t10 10t10 -10t-10 -10zM251 343q-10 0 -10 10t10 10t10 -10t-10 -10zM216 343q-10 0 -10 10t10 10t10 -10t-10 -10zM181 343q-10 0 -10 10t10 10t10 -10 t-10 -10zM146 343q-10 0 -10 10t10 10t10 -10t-10 -10zM111 343q-10 0 -10 10t10 10t10 -10t-10 -10zM76 343q-10 0 -10 10t10 10t10 -10t-10 -10zM165 378q-10 0 -10 10t10 10t10 -10t-10 -10zM146 410q-10 0 -10 10t10 10t10 -10t-10 -10zM128 442q-10 0 -10 10t10 10 t10 -10t-10 -10zM111 474q-10 0 -10 10t10 10t10 -10t-10 -10zM102 508q-10 0 -10 10t10 10t10 -10t-10 -10zM98 544q-10 0 -10 10t10 10t10 -10t-10 -10zM104 579q-10 0 -10 10t10 10t10 -10t-10 -10zM119 613q-10 0 -10 10t10 10t10 -10t-10 -10zM141 643q-10 0 -10 10 t10 10t10 -10t-10 -10zM170 668q-10 0 -10 10t10 10t10 -10t-10 -10zM205 683q-10 0 -10 10t10 10t10 -10t-10 -10zM241 691q-10 0 -10 10t10 10t10 -10t-10 -10zM278 686q-10 0 -10 10t10 10t10 -10t-10 -10zM313 675q-10 0 -10 10t10 10t10 -10t-10 -10zM346 657 q-10 0 -10 10t10 10t10 -10t-10 -10zM375 632q-10 0 -10 10t10 10t10 -10t-10 -10zM397 602q-10 0 -10 10t10 10t10 -10t-10 -10zM196 309q-10 0 -10 10t10 10t10 -10t-10 -10zM204 274q-10 0 -10 10t10 10t10 -10t-10 -10zM207 238q-10 0 -10 10t10 10t10 -10t-10 -10z M204 203q-10 0 -10 10t10 10t10 -10t-10 -10zM195 167q-10 0 -10 10t10 10t10 -10t-10 -10zM179 133q-10 0 -10 10t10 10t10 -10t-10 -10zM157 100q-10 0 -10 10t10 10t10 -10t-10 -10zM133 69q-10 0 -10 10t10 10t10 -10t-10 -10zM108 40q-10 0 -10 10t10 10t10 -10 t-10 -10zM84 9q-10 0 -10 10t10 10t10 -10t-10 -10zM119 11q-10 0 -10 10t10 10t10 -10t-10 -10zM154 15q-10 0 -10 10t10 10t10 -10t-10 -10zM189 17q-10 0 -10 10t10 10t10 -10t-10 -10zM224 12q-10 0 -10 10t10 10t10 -10t-10 -10zM259 2q-10 0 -10 10t10 10t10 -10 t-10 -10zM294 -7q-10 0 -10 10t10 10t10 -10t-10 -10zM329 -12q-10 0 -10 10t10 10t10 -10t-10 -10zM364 -6q-10 0 -10 10t10 10t10 -10t-10 -10zM399 3q-10 0 -10 10t10 10t10 -10t-10 -10z" />
<glyph unicode="&#xa5;" horiz-adv-x="660" d="M329 199q-10 0 -10 10t10 10t10 -10t-10 -10zM329 159q-10 0 -10 10t10 10t10 -10t-10 -10zM329 118q-10 0 -10 10t10 10t10 -10t-10 -10zM329 77q-10 0 -10 10t10 10t10 -10t-10 -10zM329 276q-10 0 -10 10t10 10t10 -10t-10 -10zM329 237q-10 0 -10 10t10 10t10 -10 t-10 -10zM329 37q-10 0 -10 10t10 10t10 -10t-10 -10zM329 -3q-10 0 -10 10t10 10t10 -10t-10 -10zM55 690q-10 0 -10 10t10 10t10 -10t-10 -10zM97 626q-10 0 -10 10t10 10t10 -10t-10 -10zM118 594q-10 0 -10 10t10 10t10 -10t-10 -10zM180 498q-10 0 -10 10t10 10t10 -10 t-10 -10zM201 466q-10 0 -10 10t10 10t10 -10t-10 -10zM139 562q-10 0 -10 10t10 10t10 -10t-10 -10zM159 530q-10 0 -10 10t10 10t10 -10t-10 -10zM263 370q-10 0 -10 10t10 10t10 -10t-10 -10zM285 338q-10 0 -10 10t10 10t10 -10t-10 -10zM223 434q-10 0 -10 10t10 10 t10 -10t-10 -10zM243 402q-10 0 -10 10t10 10t10 -10t-10 -10zM306 306q-10 0 -10 10t10 10t10 -10t-10 -10zM75 658q-10 0 -10 10t10 10t10 -10t-10 -10zM603 690q-10 0 -10 10t10 10t10 -10t-10 -10zM561 626q-10 0 -10 10t10 10t10 -10t-10 -10zM540 594q-10 0 -10 10 t10 10t10 -10t-10 -10zM478 498q-10 0 -10 10t10 10t10 -10t-10 -10zM457 466q-10 0 -10 10t10 10t10 -10t-10 -10zM519 562q-10 0 -10 10t10 10t10 -10t-10 -10zM499 530q-10 0 -10 10t10 10t10 -10t-10 -10zM395 370q-10 0 -10 10t10 10t10 -10t-10 -10zM373 338 q-10 0 -10 10t10 10t10 -10t-10 -10zM435 434q-10 0 -10 10t10 10t10 -10t-10 -10zM415 402q-10 0 -10 10t10 10t10 -10t-10 -10zM352 306q-10 0 -10 10t10 10t10 -10t-10 -10zM583 658q-10 0 -10 10t10 10t10 -10t-10 -10zM250 338q-10 0 -10 10t10 10t10 -10t-10 -10z M215 338q-10 0 -10 10t10 10t10 -10t-10 -10zM180 338q-10 0 -10 10t10 10t10 -10t-10 -10zM408 338q-10 0 -10 10t10 10t10 -10t-10 -10zM443 338q-10 0 -10 10t10 10t10 -10t-10 -10zM479 338q-10 0 -10 10t10 10t10 -10t-10 -10zM294 237q-10 0 -10 10t10 10t10 -10 t-10 -10zM259 237q-10 0 -10 10t10 10t10 -10t-10 -10zM224 237q-10 0 -10 10t10 10t10 -10t-10 -10zM189 237q-10 0 -10 10t10 10t10 -10t-10 -10zM364 237q-10 0 -10 10t10 10t10 -10t-10 -10zM399 237q-10 0 -10 10t10 10t10 -10t-10 -10zM434 237q-10 0 -10 10t10 10 t10 -10t-10 -10zM469 237q-10 0 -10 10t10 10t10 -10t-10 -10z" />
<glyph unicode="&#xa6;" horiz-adv-x="212" d="M106 706q-10 0 -10 10t10 10t10 -10t-10 -10zM106 672q-10 0 -10 10t10 10t10 -10t-10 -10zM106 637q-10 0 -10 10t10 10t10 -10t-10 -10zM106 602q-10 0 -10 10t10 10t10 -10t-10 -10zM106 567q-10 0 -10 10t10 10t10 -10t-10 -10zM106 532q-10 0 -10 10t10 10t10 -10 t-10 -10zM106 497q-10 0 -10 10t10 10t10 -10t-10 -10zM106 462q-10 0 -10 10t10 10t10 -10t-10 -10zM106 426q-10 0 -10 10t10 10t10 -10t-10 -10zM106 391q-10 0 -10 10t10 10t10 -10t-10 -10zM106 356q-10 0 -10 10t10 10t10 -10t-10 -10zM106 251q-10 0 -10 10t10 10 t10 -10t-10 -10zM106 216q-10 0 -10 10t10 10t10 -10t-10 -10zM106 181q-10 0 -10 10t10 10t10 -10t-10 -10zM106 144q-10 0 -10 10t10 10t10 -10t-10 -10zM106 109q-10 0 -10 10t10 10t10 -10t-10 -10zM106 74q-10 0 -10 10t10 10t10 -10t-10 -10zM106 39q-10 0 -10 10 t10 10t10 -10t-10 -10zM106 4q-10 0 -10 10t10 10t10 -10t-10 -10zM106 739q-10 0 -10 10t10 10t10 -10t-10 -10zM106 772q-10 0 -10 10t10 10t10 -10t-10 -10zM106 -29q-10 0 -10 10t10 10t10 -10t-10 -10zM106 -62q-10 0 -10 10t10 10t10 -10t-10 -10zM106 -95 q-10 0 -10 10t10 10t10 -10t-10 -10zM106 -128q-10 0 -10 10t10 10t10 -10t-10 -10z" />
<glyph unicode="&#xa7;" horiz-adv-x="501" d="M390 627q-10 0 -10 10t10 10t10 -10t-10 -10zM366 652q-10 0 -10 10t10 10t10 -10t-10 -10zM335 671q-10 0 -10 10t10 10t10 -10t-10 -10zM300 684q-10 0 -10 10t10 10t10 -10t-10 -10zM262 690q-10 0 -10 10t10 10t10 -10t-10 -10zM225 689q-10 0 -10 10t10 10t10 -10 t-10 -10zM188 682q-10 0 -10 10t10 10t10 -10t-10 -10zM153 668q-10 0 -10 10t10 10t10 -10t-10 -10zM122 648q-10 0 -10 10t10 10t10 -10t-10 -10zM97 622q-10 0 -10 10t10 10t10 -10t-10 -10zM79 591q-10 0 -10 10t10 10t10 -10t-10 -10zM71 555q-10 0 -10 10t10 10 t10 -10t-10 -10zM72 517q-10 0 -10 10t10 10t10 -10t-10 -10zM83 481q-10 0 -10 10t10 10t10 -10t-10 -10zM103 449q-10 0 -10 10t10 10t10 -10t-10 -10zM134 427q-10 0 -10 10t10 10t10 -10t-10 -10zM170 414q-10 0 -10 10t10 10t10 -10t-10 -10zM210 407q-10 0 -10 10 t10 10t10 -10t-10 -10zM249 405q-10 0 -10 10t10 10t10 -10t-10 -10zM289 401q-10 0 -10 10t10 10t10 -10t-10 -10zM328 392q-10 0 -10 10t10 10t10 -10t-10 -10zM364 374q-10 0 -10 10t10 10t10 -10t-10 -10zM394 348q-10 0 -10 10t10 10t10 -10t-10 -10zM412 315 q-10 0 -10 10t10 10t10 -10t-10 -10zM419 276q-10 0 -10 10t10 10t10 -10t-10 -10zM414 236q-10 0 -10 10t10 10t10 -10t-10 -10zM399 200q-10 0 -10 10t10 10t10 -10t-10 -10zM96 5q10 0 10 -10t-10 -10t-10 10t10 10zM123 -18q10 0 10 -10t-10 -10t-10 10t10 10zM154 -38 q10 0 10 -10t-10 -10t-10 10t10 10zM190 -53q10 0 10 -10t-10 -10t-10 10t10 10zM228 -62q10 0 10 -10t-10 -10t-10 10t10 10zM266 -64q10 0 10 -10t-10 -10t-10 10t10 10zM303 -58q10 0 10 -10t-10 -10t-10 10t10 10zM338 -46q10 0 10 -10t-10 -10t-10 10t10 10zM371 -29 q10 0 10 -10t-10 -10t-10 10t10 10zM399 -5q10 0 10 -10t-10 -10t-10 10t10 10zM421 25q10 0 10 -10t-10 -10t-10 10t10 10zM433 60q10 0 10 -10t-10 -10t-10 10t10 10zM435 98q10 0 10 -10t-10 -10t-10 10t10 10zM428 135q10 0 10 -10t-10 -10t-10 10t10 10zM409 167 q10 0 10 -10t-10 -10t-10 10t10 10zM379 190q10 0 10 -10t-10 -10t-10 10t10 10zM343 203q10 0 10 -10t-10 -10t-10 10t10 10zM303 210q10 0 10 -10t-10 -10t-10 10t10 10zM264 212q10 0 10 -10t-10 -10t-10 10t10 10zM224 216q10 0 10 -10t-10 -10t-10 10t10 10zM185 225 q10 0 10 -10t-10 -10t-10 10t10 10zM149 243q10 0 10 -10t-10 -10t-10 10t10 10zM119 269q10 0 10 -10t-10 -10t-10 10t10 10zM101 302q10 0 10 -10t-10 -10t-10 10t10 10zM94 341q10 0 10 -10t-10 -10t-10 10t10 10zM99 381q10 0 10 -10t-10 -10t-10 10t10 10zM114 417 q10 0 10 -10t-10 -10t-10 10t10 10z" />
<glyph unicode="&#xa8;" horiz-adv-x="263" d="M69 646q-10 0 -10 10t10 10t10 -10t-10 -10zM69 679q-10 0 -10 10t10 10t10 -10t-10 -10zM69 712q-10 0 -10 10t10 10t10 -10t-10 -10zM195 646q-10 0 -10 10t10 10t10 -10t-10 -10zM195 679q-10 0 -10 10t10 10t10 -10t-10 -10zM195 712q-10 0 -10 10t10 10t10 -10 t-10 -10z" />
<glyph unicode="&#xa9;" horiz-adv-x="835" d="M571 480q-10 0 -10 10t10 10t10 -10t-10 -10zM549 510q-10 0 -10 10t10 10t10 -10t-10 -10zM519 537q-10 0 -10 10t10 10t10 -10t-10 -10zM480 553q-10 0 -10 10t10 10t10 -10t-10 -10zM437 562q-10 0 -10 10t10 10t10 -10t-10 -10zM392 560q-10 0 -10 10t10 10t10 -10 t-10 -10zM348 549q-10 0 -10 10t10 10t10 -10t-10 -10zM308 529q-10 0 -10 10t10 10t10 -10t-10 -10zM276 500q-10 0 -10 10t10 10t10 -10t-10 -10zM250 465q-10 0 -10 10t10 10t10 -10t-10 -10zM232 425q-10 0 -10 10t10 10t10 -10t-10 -10zM223 379q-10 0 -10 10t10 10 t10 -10t-10 -10zM220 332q-10 0 -10 10t10 10t10 -10t-10 -10zM224 284q-10 0 -10 10t10 10t10 -10t-10 -10zM244 242q-10 0 -10 10t10 10t10 -10t-10 -10zM267 203q-10 0 -10 10t10 10t10 -10t-10 -10zM301 173q-10 0 -10 10t10 10t10 -10t-10 -10zM338 151q-10 0 -10 10 t10 10t10 -10t-10 -10zM380 136q-10 0 -10 10t10 10t10 -10t-10 -10zM425 131q-10 0 -10 10t10 10t10 -10t-10 -10zM472 138q-10 0 -10 10t10 10t10 -10t-10 -10zM518 156q-10 0 -10 10t10 10t10 -10t-10 -10zM552 182q-10 0 -10 10t10 10t10 -10t-10 -10zM579 214 q-10 0 -10 10t10 10t10 -10t-10 -10zM417 693q-10 0 -10 10t10 10t10 -10t-10 -10zM67 343q-10 0 -10 10t10 10t10 -10t-10 -10zM68 379q-10 0 -10 10t10 10t10 -10t-10 -10zM74 416q-10 0 -10 10t10 10t10 -10t-10 -10zM82 452q-10 0 -10 10t10 10t10 -10t-10 -10zM95 488 q-10 0 -10 10t10 10t10 -10t-10 -10zM113 524q-10 0 -10 10t10 10t10 -10t-10 -10zM135 557q-10 0 -10 10t10 10t10 -10t-10 -10zM160 588q-10 0 -10 10t10 10t10 -10t-10 -10zM190 615q-10 0 -10 10t10 10t10 -10t-10 -10zM222 639q-10 0 -10 10t10 10t10 -10t-10 -10z M259 658q-10 0 -10 10t10 10t10 -10t-10 -10zM298 674q-10 0 -10 10t10 10t10 -10t-10 -10zM334 684q-10 0 -10 10t10 10t10 -10t-10 -10zM374 690q-10 0 -10 10t10 10t10 -10t-10 -10zM767 343q-10 0 -10 10t10 10t10 -10t-10 -10zM766 379q-10 0 -10 10t10 10t10 -10 t-10 -10zM760 416q-10 0 -10 10t10 10t10 -10t-10 -10zM752 452q-10 0 -10 10t10 10t10 -10t-10 -10zM739 488q-10 0 -10 10t10 10t10 -10t-10 -10zM721 524q-10 0 -10 10t10 10t10 -10t-10 -10zM699 557q-10 0 -10 10t10 10t10 -10t-10 -10zM674 588q-10 0 -10 10t10 10 t10 -10t-10 -10zM644 615q-10 0 -10 10t10 10t10 -10t-10 -10zM612 639q-10 0 -10 10t10 10t10 -10t-10 -10zM575 658q-10 0 -10 10t10 10t10 -10t-10 -10zM536 674q-10 0 -10 10t10 10t10 -10t-10 -10zM500 684q-10 0 -10 10t10 10t10 -10t-10 -10zM460 690q-10 0 -10 10 t10 10t10 -10t-10 -10zM417 13q10 0 10 -10t-10 -10t-10 10t10 10zM68 327q10 0 10 -10t-10 -10t-10 10t10 10zM74 290q10 0 10 -10t-10 -10t-10 10t10 10zM82 254q10 0 10 -10t-10 -10t-10 10t10 10zM95 218q10 0 10 -10t-10 -10t-10 10t10 10zM113 182q10 0 10 -10 t-10 -10t-10 10t10 10zM135 149q10 0 10 -10t-10 -10t-10 10t10 10zM160 118q10 0 10 -10t-10 -10t-10 10t10 10zM190 91q10 0 10 -10t-10 -10t-10 10t10 10zM222 67q10 0 10 -10t-10 -10t-10 10t10 10zM259 48q10 0 10 -10t-10 -10t-10 10t10 10zM298 32q10 0 10 -10 t-10 -10t-10 10t10 10zM334 22q10 0 10 -10t-10 -10t-10 10t10 10zM374 16q10 0 10 -10t-10 -10t-10 10t10 10zM766 327q10 0 10 -10t-10 -10t-10 10t10 10zM760 290q10 0 10 -10t-10 -10t-10 10t10 10zM752 254q10 0 10 -10t-10 -10t-10 10t10 10zM739 218q10 0 10 -10 t-10 -10t-10 10t10 10zM721 182q10 0 10 -10t-10 -10t-10 10t10 10zM699 149q10 0 10 -10t-10 -10t-10 10t10 10zM674 118q10 0 10 -10t-10 -10t-10 10t10 10zM644 91q10 0 10 -10t-10 -10t-10 10t10 10zM612 67q10 0 10 -10t-10 -10t-10 10t10 10zM575 48q10 0 10 -10 t-10 -10t-10 10t10 10zM536 32q10 0 10 -10t-10 -10t-10 10t10 10zM500 22q10 0 10 -10t-10 -10t-10 10t10 10zM460 16q10 0 10 -10t-10 -10t-10 10t10 10z" />
<glyph unicode="&#xaa;" horiz-adv-x="429" d="M91 646q-10 0 -10 10t10 10t10 -10t-10 -10zM124 664q-10 0 -10 10t10 10t10 -10t-10 -10zM161 678q-10 0 -10 10t10 10t10 -10t-10 -10zM202 685q-10 0 -10 10t10 10t10 -10t-10 -10zM242 680q-10 0 -10 10t10 10t10 -10t-10 -10zM279 666q-10 0 -10 10t10 10t10 -10 t-10 -10zM308 641q-10 0 -10 10t10 10t10 -10t-10 -10zM325 606q-10 0 -10 10t10 10t10 -10t-10 -10zM330 568q-10 0 -10 10t10 10t10 -10t-10 -10zM330 532q-10 0 -10 10t10 10t10 -10t-10 -10zM330 496q-10 0 -10 10t10 10t10 -10t-10 -10zM330 460q-10 0 -10 10t10 10 t10 -10t-10 -10zM330 424q-10 0 -10 10t10 10t10 -10t-10 -10zM330 388q-10 0 -10 10t10 10t10 -10t-10 -10zM340 360q-10 0 -10 10t10 10t10 -10t-10 -10zM370 353q-10 0 -10 10t10 10t10 -10t-10 -10zM300 405q-10 0 -10 10t10 10t10 -10t-10 -10zM271 383q-10 0 -10 10 t10 10t10 -10t-10 -10zM238 366q-10 0 -10 10t10 10t10 -10t-10 -10zM202 357q-10 0 -10 10t10 10t10 -10t-10 -10zM164 356q-10 0 -10 10t10 10t10 -10t-10 -10zM127 364q-10 0 -10 10t10 10t10 -10t-10 -10zM96 384q-10 0 -10 10t10 10t10 -10t-10 -10zM75 416 q-10 0 -10 10t10 10t10 -10t-10 -10zM71 454q-10 0 -10 10t10 10t10 -10t-10 -10zM84 489q-10 0 -10 10t10 10t10 -10t-10 -10zM111 515q-10 0 -10 10t10 10t10 -10t-10 -10zM146 531q-10 0 -10 10t10 10t10 -10t-10 -10zM185 538q-10 0 -10 10t10 10t10 -10t-10 -10z M225 537q-10 0 -10 10t10 10t10 -10t-10 -10zM263 533q-10 0 -10 10t10 10t10 -10t-10 -10zM299 523q-10 0 -10 10t10 10t10 -10t-10 -10z" />
<glyph unicode="&#xab;" horiz-adv-x="541" d="M63 249q-10 0 -10 10t10 10t10 -10t-10 -10zM283 106q10 0 10 -10t-10 -10t-10 10t10 10zM248 131q10 0 10 -10t-10 -10t-10 10t10 10zM215 154q10 0 10 -10t-10 -10t-10 10t10 10zM184 176q10 0 10 -10t-10 -10t-10 10t10 10zM153 198q10 0 10 -10t-10 -10t-10 10t10 10 zM122 221q10 0 10 -10t-10 -10t-10 10t10 10zM91 243q10 0 10 -10t-10 -10t-10 10t10 10zM283 412q-10 0 -10 10t10 10t10 -10t-10 -10zM248 387q-10 0 -10 10t10 10t10 -10t-10 -10zM215 364q-10 0 -10 10t10 10t10 -10t-10 -10zM184 342q-10 0 -10 10t10 10t10 -10 t-10 -10zM153 320q-10 0 -10 10t10 10t10 -10t-10 -10zM122 297q-10 0 -10 10t10 10t10 -10t-10 -10zM91 275q-10 0 -10 10t10 10t10 -10t-10 -10zM249 249q-10 0 -10 10t10 10t10 -10t-10 -10zM469 106q10 0 10 -10t-10 -10t-10 10t10 10zM434 131q10 0 10 -10t-10 -10 t-10 10t10 10zM401 154q10 0 10 -10t-10 -10t-10 10t10 10zM370 176q10 0 10 -10t-10 -10t-10 10t10 10zM339 198q10 0 10 -10t-10 -10t-10 10t10 10zM308 221q10 0 10 -10t-10 -10t-10 10t10 10zM277 243q10 0 10 -10t-10 -10t-10 10t10 10zM469 412q-10 0 -10 10t10 10 t10 -10t-10 -10zM434 387q-10 0 -10 10t10 10t10 -10t-10 -10zM401 364q-10 0 -10 10t10 10t10 -10t-10 -10zM370 342q-10 0 -10 10t10 10t10 -10t-10 -10zM339 320q-10 0 -10 10t10 10t10 -10t-10 -10zM308 297q-10 0 -10 10t10 10t10 -10t-10 -10zM277 275q-10 0 -10 10 t10 10t10 -10t-10 -10z" />
<glyph unicode="&#xac;" horiz-adv-x="576" d="M91 320q-10 0 -10 10t10 10t10 -10t-10 -10zM128 320q-10 0 -10 10t10 10t10 -10t-10 -10zM165 320q-10 0 -10 10t10 10t10 -10t-10 -10zM202 320q-10 0 -10 10t10 10t10 -10t-10 -10zM239 320q-10 0 -10 10t10 10t10 -10t-10 -10zM276 320q-10 0 -10 10t10 10t10 -10 t-10 -10zM313 320q-10 0 -10 10t10 10t10 -10t-10 -10zM350 320q-10 0 -10 10t10 10t10 -10t-10 -10zM385 320q-10 0 -10 10t10 10t10 -10t-10 -10zM422 320q-10 0 -10 10t10 10t10 -10t-10 -10zM459 320q-10 0 -10 10t10 10t10 -10t-10 -10zM496 320q-10 0 -10 10t10 10 t10 -10t-10 -10zM496 285q-10 0 -10 10t10 10t10 -10t-10 -10zM496 250q-10 0 -10 10t10 10t10 -10t-10 -10zM496 215q-10 0 -10 10t10 10t10 -10t-10 -10zM496 180q-10 0 -10 10t10 10t10 -10t-10 -10zM496 145q-10 0 -10 10t10 10t10 -10t-10 -10z" />
<glyph unicode="&#xad;" horiz-adv-x="554" d="M75 262q-10 0 -10 10t10 10t10 -10t-10 -10zM112 262q-10 0 -10 10t10 10t10 -10t-10 -10zM149 262q-10 0 -10 10t10 10t10 -10t-10 -10zM186 262q-10 0 -10 10t10 10t10 -10t-10 -10zM223 262q-10 0 -10 10t10 10t10 -10t-10 -10zM260 262q-10 0 -10 10t10 10t10 -10 t-10 -10zM297 262q-10 0 -10 10t10 10t10 -10t-10 -10zM334 262q-10 0 -10 10t10 10t10 -10t-10 -10zM369 262q-10 0 -10 10t10 10t10 -10t-10 -10zM406 262q-10 0 -10 10t10 10t10 -10t-10 -10zM443 262q-10 0 -10 10t10 10t10 -10t-10 -10zM480 262q-10 0 -10 10t10 10 t10 -10t-10 -10z" />
<glyph unicode="&#xae;" horiz-adv-x="835" d="M284 123q-10 0 -10 10t10 10t10 -10t-10 -10zM417 693q-10 0 -10 10t10 10t10 -10t-10 -10zM67 343q-10 0 -10 10t10 10t10 -10t-10 -10zM68 379q-10 0 -10 10t10 10t10 -10t-10 -10zM74 416q-10 0 -10 10t10 10t10 -10t-10 -10zM82 452q-10 0 -10 10t10 10t10 -10 t-10 -10zM95 488q-10 0 -10 10t10 10t10 -10t-10 -10zM113 524q-10 0 -10 10t10 10t10 -10t-10 -10zM135 557q-10 0 -10 10t10 10t10 -10t-10 -10zM160 588q-10 0 -10 10t10 10t10 -10t-10 -10zM190 615q-10 0 -10 10t10 10t10 -10t-10 -10zM222 639q-10 0 -10 10t10 10 t10 -10t-10 -10zM259 658q-10 0 -10 10t10 10t10 -10t-10 -10zM298 674q-10 0 -10 10t10 10t10 -10t-10 -10zM334 684q-10 0 -10 10t10 10t10 -10t-10 -10zM374 690q-10 0 -10 10t10 10t10 -10t-10 -10zM767 343q-10 0 -10 10t10 10t10 -10t-10 -10zM766 379q-10 0 -10 10 t10 10t10 -10t-10 -10zM760 416q-10 0 -10 10t10 10t10 -10t-10 -10zM752 452q-10 0 -10 10t10 10t10 -10t-10 -10zM739 488q-10 0 -10 10t10 10t10 -10t-10 -10zM721 524q-10 0 -10 10t10 10t10 -10t-10 -10zM699 557q-10 0 -10 10t10 10t10 -10t-10 -10zM674 588 q-10 0 -10 10t10 10t10 -10t-10 -10zM644 615q-10 0 -10 10t10 10t10 -10t-10 -10zM612 639q-10 0 -10 10t10 10t10 -10t-10 -10zM575 658q-10 0 -10 10t10 10t10 -10t-10 -10zM536 674q-10 0 -10 10t10 10t10 -10t-10 -10zM500 684q-10 0 -10 10t10 10t10 -10t-10 -10z M460 690q-10 0 -10 10t10 10t10 -10t-10 -10zM417 13q10 0 10 -10t-10 -10t-10 10t10 10zM68 327q10 0 10 -10t-10 -10t-10 10t10 10zM74 290q10 0 10 -10t-10 -10t-10 10t10 10zM82 254q10 0 10 -10t-10 -10t-10 10t10 10zM95 218q10 0 10 -10t-10 -10t-10 10t10 10z M113 182q10 0 10 -10t-10 -10t-10 10t10 10zM135 149q10 0 10 -10t-10 -10t-10 10t10 10zM160 118q10 0 10 -10t-10 -10t-10 10t10 10zM190 91q10 0 10 -10t-10 -10t-10 10t10 10zM222 67q10 0 10 -10t-10 -10t-10 10t10 10zM259 48q10 0 10 -10t-10 -10t-10 10t10 10z M298 32q10 0 10 -10t-10 -10t-10 10t10 10zM334 22q10 0 10 -10t-10 -10t-10 10t10 10zM374 16q10 0 10 -10t-10 -10t-10 10t10 10zM766 327q10 0 10 -10t-10 -10t-10 10t10 10zM760 290q10 0 10 -10t-10 -10t-10 10t10 10zM752 254q10 0 10 -10t-10 -10t-10 10t10 10z M739 218q10 0 10 -10t-10 -10t-10 10t10 10zM721 182q10 0 10 -10t-10 -10t-10 10t10 10zM699 149q10 0 10 -10t-10 -10t-10 10t10 10zM674 118q10 0 10 -10t-10 -10t-10 10t10 10zM644 91q10 0 10 -10t-10 -10t-10 10t10 10zM612 67q10 0 10 -10t-10 -10t-10 10t10 10z M575 48q10 0 10 -10t-10 -10t-10 10t10 10zM536 32q10 0 10 -10t-10 -10t-10 10t10 10zM500 22q10 0 10 -10t-10 -10t-10 10t10 10zM460 16q10 0 10 -10t-10 -10t-10 10t10 10zM284 159q-10 0 -10 10t10 10t10 -10t-10 -10zM284 195q-10 0 -10 10t10 10t10 -10t-10 -10z M284 231q-10 0 -10 10t10 10t10 -10t-10 -10zM284 267q-10 0 -10 10t10 10t10 -10t-10 -10zM284 303q-10 0 -10 10t10 10t10 -10t-10 -10zM284 339q-10 0 -10 10t10 10t10 -10t-10 -10zM284 375q-10 0 -10 10t10 10t10 -10t-10 -10zM284 411q-10 0 -10 10t10 10t10 -10 t-10 -10zM284 447q-10 0 -10 10t10 10t10 -10t-10 -10zM284 483q-10 0 -10 10t10 10t10 -10t-10 -10zM284 519q-10 0 -10 10t10 10t10 -10t-10 -10zM284 555q-10 0 -10 10t10 10t10 -10t-10 -10zM320 555q-10 0 -10 10t10 10t10 -10t-10 -10zM356 555q-10 0 -10 10t10 10 t10 -10t-10 -10zM392 555q-10 0 -10 10t10 10t10 -10t-10 -10zM428 555q-10 0 -10 10t10 10t10 -10t-10 -10zM464 555q-10 0 -10 10t10 10t10 -10t-10 -10zM320 303q-10 0 -10 10t10 10t10 -10t-10 -10zM356 303q-10 0 -10 10t10 10t10 -10t-10 -10zM392 303q-10 0 -10 10 t10 10t10 -10t-10 -10zM428 303q-10 0 -10 10t10 10t10 -10t-10 -10zM464 303q-10 0 -10 10t10 10t10 -10t-10 -10zM500 549q-10 0 -10 10t10 10t10 -10t-10 -10zM529 532q-10 0 -10 10t10 10t10 -10t-10 -10zM553 507q-10 0 -10 10t10 10t10 -10t-10 -10zM568 476 q-10 0 -10 10t10 10t10 -10t-10 -10zM574 441q-10 0 -10 10t10 10t10 -10t-10 -10zM574 407q-10 0 -10 10t10 10t10 -10t-10 -10zM564 375q-10 0 -10 10t10 10t10 -10t-10 -10zM548 346q-10 0 -10 10t10 10t10 -10t-10 -10zM524 323q-10 0 -10 10t10 10t10 -10t-10 -10z M497 308q-10 0 -10 10t10 10t10 -10t-10 -10zM477 270q-10 0 -10 10t10 10t10 -10t-10 -10zM495 240q-10 0 -10 10t10 10t10 -10t-10 -10zM513 210q-10 0 -10 10t10 10t10 -10t-10 -10zM532 180q-10 0 -10 10t10 10t10 -10t-10 -10zM550 150q-10 0 -10 10t10 10t10 -10 t-10 -10zM569 120q-10 0 -10 10t10 10t10 -10t-10 -10z" />
<glyph unicode="&#xaf;" horiz-adv-x="385" d="M63 684q-10 0 -10 10t10 10t10 -10t-10 -10zM100 684q-10 0 -10 10t10 10t10 -10t-10 -10zM137 684q-10 0 -10 10t10 10t10 -10t-10 -10zM174 684q-10 0 -10 10t10 10t10 -10t-10 -10zM211 684q-10 0 -10 10t10 10t10 -10t-10 -10zM248 684q-10 0 -10 10t10 10t10 -10 t-10 -10zM285 684q-10 0 -10 10t10 10t10 -10t-10 -10zM322 684q-10 0 -10 10t10 10t10 -10t-10 -10z" />
<glyph unicode="&#xb0;" horiz-adv-x="256" d="M128 701q-10 0 -10 10t10 10t10 -10t-10 -10zM188 640q-10 0 -10 10t10 10t10 -10t-10 -10zM181 670q-10 0 -10 10t10 10t10 -10t-10 -10zM159 692q-10 0 -10 10t10 10t10 -10t-10 -10zM68 640q-10 0 -10 10t10 10t10 -10t-10 -10zM75 670q-10 0 -10 10t10 10t10 -10 t-10 -10zM97 692q-10 0 -10 10t10 10t10 -10t-10 -10zM128 599q10 0 10 -10t-10 -10t-10 10t10 10zM181 630q10 0 10 -10t-10 -10t-10 10t10 10zM159 608q10 0 10 -10t-10 -10t-10 10t10 10zM75 630q10 0 10 -10t-10 -10t-10 10t10 10zM97 608q10 0 10 -10t-10 -10t-10 10 t10 10z" />
<glyph unicode="&#xb1;" horiz-adv-x="454" d="M226 347q-10 0 -10 10t10 10t10 -10t-10 -10zM262 347q-10 0 -10 10t10 10t10 -10t-10 -10zM298 347q-10 0 -10 10t10 10t10 -10t-10 -10zM334 347q-10 0 -10 10t10 10t10 -10t-10 -10zM370 347q-10 0 -10 10t10 10t10 -10t-10 -10zM190 347q-10 0 -10 10t10 10t10 -10 t-10 -10zM154 347q-10 0 -10 10t10 10t10 -10t-10 -10zM118 347q-10 0 -10 10t10 10t10 -10t-10 -10zM82 347q-10 0 -10 10t10 10t10 -10t-10 -10zM226 383q-10 0 -10 10t10 10t10 -10t-10 -10zM226 419q-10 0 -10 10t10 10t10 -10t-10 -10zM226 455q-10 0 -10 10t10 10 t10 -10t-10 -10zM226 491q-10 0 -10 10t10 10t10 -10t-10 -10zM226 203q-10 0 -10 10t10 10t10 -10t-10 -10zM226 239q-10 0 -10 10t10 10t10 -10t-10 -10zM226 275q-10 0 -10 10t10 10t10 -10t-10 -10zM226 311q-10 0 -10 10t10 10t10 -10t-10 -10zM226 84q-10 0 -10 10 t10 10t10 -10t-10 -10zM262 84q-10 0 -10 10t10 10t10 -10t-10 -10zM298 84q-10 0 -10 10t10 10t10 -10t-10 -10zM334 84q-10 0 -10 10t10 10t10 -10t-10 -10zM370 84q-10 0 -10 10t10 10t10 -10t-10 -10zM190 84q-10 0 -10 10t10 10t10 -10t-10 -10zM154 84q-10 0 -10 10 t10 10t10 -10t-10 -10zM118 84q-10 0 -10 10t10 10t10 -10t-10 -10zM82 84q-10 0 -10 10t10 10t10 -10t-10 -10z" />
<glyph unicode="&#xb2;" horiz-adv-x="376" d="M320 360q10 0 10 -10t-10 -10t-10 10t10 10zM284 360q10 0 10 -10t-10 -10t-10 10t10 10zM248 360q10 0 10 -10t-10 -10t-10 10t10 10zM212 360q10 0 10 -10t-10 -10t-10 10t10 10zM176 360q10 0 10 -10t-10 -10t-10 10t10 10zM140 360q10 0 10 -10t-10 -10t-10 10t10 10 zM104 360q10 0 10 -10t-10 -10t-10 10t10 10zM68 360q10 0 10 -10t-10 -10t-10 10t10 10zM68 396q10 0 10 -10t-10 -10t-10 10t10 10zM75 432q10 0 10 -10t-10 -10t-10 10t10 10zM95 463q10 0 10 -10t-10 -10t-10 10t10 10zM122 488q10 0 10 -10t-10 -10t-10 10t10 10z M154 507q10 0 10 -10t-10 -10t-10 10t10 10zM189 520q10 0 10 -10t-10 -10t-10 10t10 10zM225 533q10 0 10 -10t-10 -10t-10 10t10 10zM260 547q10 0 10 -10t-10 -10t-10 10t10 10zM290 568q10 0 10 -10t-10 -10t-10 10t10 10zM312 598q10 0 10 -10t-10 -10t-10 10t10 10z M317 634q10 0 10 -10t-10 -10t-10 10t10 10zM308 671q10 0 10 -10t-10 -10t-10 10t10 10zM284 701q10 0 10 -10t-10 -10t-10 10t10 10zM252 719q10 0 10 -10t-10 -10t-10 10t10 10zM214 727q10 0 10 -10t-10 -10t-10 10t10 10zM176 727q10 0 10 -10t-10 -10t-10 10t10 10z M139 718q10 0 10 -10t-10 -10t-10 10t10 10zM104 702q10 0 10 -10t-10 -10t-10 10t10 10zM75 679q10 0 10 -10t-10 -10t-10 10t10 10z" />
<glyph unicode="&#xb3;" horiz-adv-x="383" d="M314 643q10 0 10 -10t-10 -10t-10 10t10 10zM301 678q10 0 10 -10t-10 -10t-10 10t10 10zM274 704q10 0 10 -10t-10 -10t-10 10t10 10zM241 719q10 0 10 -10t-10 -10t-10 10t10 10zM203 728q10 0 10 -10t-10 -10t-10 10t10 10zM165 729q10 0 10 -10t-10 -10t-10 10t10 10 zM126 720q10 0 10 -10t-10 -10t-10 10t10 10zM91 704q10 0 10 -10t-10 -10t-10 10t10 10zM64 679q10 0 10 -10t-10 -10t-10 10t10 10zM309 606q10 0 10 -10t-10 -10t-10 10t10 10zM288 578q10 0 10 -10t-10 -10t-10 10t10 10zM256 561q10 0 10 -10t-10 -10t-10 10t10 10z M223 547q10 0 10 -10t-10 -10t-10 10t10 10zM187 547q10 0 10 -10t-10 -10t-10 10t10 10zM151 547q10 0 10 -10t-10 -10t-10 10t10 10zM256 531q10 0 10 -10t-10 -10t-10 10t10 10zM288 515q10 0 10 -10t-10 -10t-10 10t10 10zM314 490q10 0 10 -10t-10 -10t-10 10t10 10z M326 454q10 0 10 -10t-10 -10t-10 10t10 10zM318 419q10 0 10 -10t-10 -10t-10 10t10 10zM296 391q10 0 10 -10t-10 -10t-10 10t10 10zM267 372q10 0 10 -10t-10 -10t-10 10t10 10zM232 361q10 0 10 -10t-10 -10t-10 10t10 10zM196 356q10 0 10 -10t-10 -10t-10 10t10 10z M160 358q10 0 10 -10t-10 -10t-10 10t10 10zM125 366q10 0 10 -10t-10 -10t-10 10t10 10zM92 382q10 0 10 -10t-10 -10t-10 10t10 10zM65 406q10 0 10 -10t-10 -10t-10 10t10 10zM50 439q10 0 10 -10t-10 -10t-10 10t10 10z" />
<glyph unicode="&#xb4;" horiz-adv-x="205" d="M65 638q-10 0 -10 10t10 10t10 -10t-10 -10zM86 662q-10 0 -10 10t10 10t10 -10t-10 -10zM107 687q-10 0 -10 10t10 10t10 -10t-10 -10zM128 712q-10 0 -10 10t10 10t10 -10t-10 -10z" />
<glyph unicode="&#xb5;" horiz-adv-x="578" d="M489 289q10 0 10 -10t-10 -10t-10 10t10 10zM489 329q10 0 10 -10t-10 -10t-10 10t10 10zM489 369q10 0 10 -10t-10 -10t-10 10t10 10zM489 407q10 0 10 -10t-10 -10t-10 10t10 10zM489 449q10 0 10 -10t-10 -10t-10 10t10 10zM489 485q10 0 10 -10t-10 -10t-10 10t10 10 zM489 520q10 0 10 -10t-10 -10t-10 10t10 10zM509 20q10 0 10 -10t-10 -10t-10 10t10 10zM489 133q10 0 10 -10t-10 -10t-10 10t10 10zM489 170q10 0 10 -10t-10 -10t-10 10t10 10zM489 208q10 0 10 -10t-10 -10t-10 10t10 10zM489 248q10 0 10 -10t-10 -10t-10 10t10 10z M492 93q10 0 10 -10t-10 -10t-10 10t10 10zM498 55q10 0 10 -10t-10 -10t-10 10t10 10zM102 289q10 0 10 -10t-10 -10t-10 10t10 10zM102 329q10 0 10 -10t-10 -10t-10 10t10 10zM102 369q10 0 10 -10t-10 -10t-10 10t10 10zM102 407q10 0 10 -10t-10 -10t-10 10t10 10z M102 449q10 0 10 -10t-10 -10t-10 10t10 10zM102 485q10 0 10 -10t-10 -10t-10 10t10 10zM102 520q10 0 10 -10t-10 -10t-10 10t10 10zM133 92q10 0 10 -10t-10 -10t-10 10t10 10zM459 147q10 0 10 -10t-10 -10t-10 10t10 10zM102 253q10 0 10 -10t-10 -10t-10 10t10 10z M102 217q10 0 10 -10t-10 -10t-10 10t10 10zM102 181q10 0 10 -10t-10 -10t-10 10t10 10zM102 145q10 0 10 -10t-10 -10t-10 10t10 10zM102 109q10 0 10 -10t-10 -10t-10 10t10 10zM102 73q10 0 10 -10t-10 -10t-10 10t10 10zM102 37q10 0 10 -10t-10 -10t-10 10t10 10z M102 1q10 0 10 -10t-10 -10t-10 10t10 10zM102 -35q10 0 10 -10t-10 -10t-10 10t10 10zM102 -71q10 0 10 -10t-10 -10t-10 10t10 10zM102 -107q10 0 10 -10t-10 -10t-10 10t10 10zM102 -143q10 0 10 -10t-10 -10t-10 10t10 10zM102 -179q10 0 10 -10t-10 -10t-10 10t10 10z M154 61q10 0 10 -10t-10 -10t-10 10t10 10zM183 35q10 0 10 -10t-10 -10t-10 10t10 10zM220 20q10 0 10 -10t-10 -10t-10 10t10 10zM262 15q10 0 10 -10t-10 -10t-10 10t10 10zM303 19q10 0 10 -10t-10 -10t-10 10t10 10zM343 33q10 0 10 -10t-10 -10t-10 10t10 10zM381 54 q10 0 10 -10t-10 -10t-10 10t10 10zM415 80q10 0 10 -10t-10 -10t-10 10t10 10zM442 110q10 0 10 -10t-10 -10t-10 10t10 10z" />
<glyph unicode="&#xb6;" horiz-adv-x="571" d="M328 687q-10 0 -10 10t10 10t10 -10t-10 -10zM328 653q-10 0 -10 10t10 10t10 -10t-10 -10zM328 618q-10 0 -10 10t10 10t10 -10t-10 -10zM328 583q-10 0 -10 10t10 10t10 -10t-10 -10zM328 548q-10 0 -10 10t10 10t10 -10t-10 -10zM328 513q-10 0 -10 10t10 10t10 -10 t-10 -10zM328 478q-10 0 -10 10t10 10t10 -10t-10 -10zM328 443q-10 0 -10 10t10 10t10 -10t-10 -10zM328 407q-10 0 -10 10t10 10t10 -10t-10 -10zM328 372q-10 0 -10 10t10 10t10 -10t-10 -10zM328 337q-10 0 -10 10t10 10t10 -10t-10 -10zM328 302q-10 0 -10 10t10 10 t10 -10t-10 -10zM328 267q-10 0 -10 10t10 10t10 -10t-10 -10zM328 232q-10 0 -10 10t10 10t10 -10t-10 -10zM328 197q-10 0 -10 10t10 10t10 -10t-10 -10zM328 162q-10 0 -10 10t10 10t10 -10t-10 -10zM328 125q-10 0 -10 10t10 10t10 -10t-10 -10zM328 90q-10 0 -10 10 t10 10t10 -10t-10 -10zM328 55q-10 0 -10 10t10 10t10 -10t-10 -10zM328 20q-10 0 -10 10t10 10t10 -10t-10 -10zM328 -15q-10 0 -10 10t10 10t10 -10t-10 -10zM328 -50q-10 0 -10 10t10 10t10 -10t-10 -10zM328 -85q-10 0 -10 10t10 10t10 -10t-10 -10zM435 687 q-10 0 -10 10t10 10t10 -10t-10 -10zM435 653q-10 0 -10 10t10 10t10 -10t-10 -10zM435 618q-10 0 -10 10t10 10t10 -10t-10 -10zM435 583q-10 0 -10 10t10 10t10 -10t-10 -10zM435 548q-10 0 -10 10t10 10t10 -10t-10 -10zM435 513q-10 0 -10 10t10 10t10 -10t-10 -10z M435 478q-10 0 -10 10t10 10t10 -10t-10 -10zM435 443q-10 0 -10 10t10 10t10 -10t-10 -10zM435 407q-10 0 -10 10t10 10t10 -10t-10 -10zM435 372q-10 0 -10 10t10 10t10 -10t-10 -10zM435 337q-10 0 -10 10t10 10t10 -10t-10 -10zM435 302q-10 0 -10 10t10 10t10 -10 t-10 -10zM435 267q-10 0 -10 10t10 10t10 -10t-10 -10zM435 232q-10 0 -10 10t10 10t10 -10t-10 -10zM435 197q-10 0 -10 10t10 10t10 -10t-10 -10zM435 162q-10 0 -10 10t10 10t10 -10t-10 -10zM435 125q-10 0 -10 10t10 10t10 -10t-10 -10zM435 90q-10 0 -10 10t10 10 t10 -10t-10 -10zM435 55q-10 0 -10 10t10 10t10 -10t-10 -10zM435 20q-10 0 -10 10t10 10t10 -10t-10 -10zM435 -15q-10 0 -10 10t10 10t10 -10t-10 -10zM435 -50q-10 0 -10 10t10 10t10 -10t-10 -10zM435 -85q-10 0 -10 10t10 10t10 -10t-10 -10zM470 687q-10 0 -10 10 t10 10t10 -10t-10 -10zM505 687q-10 0 -10 10t10 10t10 -10t-10 -10zM400 687q-10 0 -10 10t10 10t10 -10t-10 -10zM365 687q-10 0 -10 10t10 10t10 -10t-10 -10zM292 687q-10 0 -10 10t10 10t10 -10t-10 -10zM257 682q-10 0 -10 10t10 10t10 -10t-10 -10zM222 675 q-10 0 -10 10t10 10t10 -10t-10 -10zM187 664q-10 0 -10 10t10 10t10 -10t-10 -10zM154 649q-10 0 -10 10t10 10t10 -10t-10 -10zM125 630q-10 0 -10 10t10 10t10 -10t-10 -10zM99 605q-10 0 -10 10t10 10t10 -10t-10 -10zM78 575q-10 0 -10 10t10 10t10 -10t-10 -10z M63 541q-10 0 -10 10t10 10t10 -10t-10 -10zM55 505q-10 0 -10 10t10 10t10 -10t-10 -10zM52 466q-10 0 -10 10t10 10t10 -10t-10 -10zM292 265q10 0 10 -10t-10 -10t-10 10t10 10zM257 270q10 0 10 -10t-10 -10t-10 10t10 10zM222 277q10 0 10 -10t-10 -10t-10 10t10 10z M187 288q10 0 10 -10t-10 -10t-10 10t10 10zM154 303q10 0 10 -10t-10 -10t-10 10t10 10zM125 322q10 0 10 -10t-10 -10t-10 10t10 10zM99 347q10 0 10 -10t-10 -10t-10 10t10 10zM78 377q10 0 10 -10t-10 -10t-10 10t10 10zM63 411q10 0 10 -10t-10 -10t-10 10t10 10z M55 447q10 0 10 -10t-10 -10t-10 10t10 10z" />
<glyph unicode="&#xb7;" horiz-adv-x="171" d="M85 252q-10 0 -10 10t10 10t10 -10t-10 -10zM85 285q-10 0 -10 10t10 10t10 -10t-10 -10zM85 318q-10 0 -10 10t10 10t10 -10t-10 -10z" />
</font>
</defs>
</svg>
