<?xml version="1.0" standalone="no"?>
<!DOCTYPE svg PUBLIC "-//W3C//DTD SVG 1.1//EN" "http://www.w3.org/Graphics/SVG/1.1/DTD/svg11.dtd" >
<svg xmlns="http://www.w3.org/2000/svg">
<metadata></metadata>
<defs>
<font id="ceviche_oneregular" horiz-adv-x="1038" >
<font-face units-per-em="2048" ascent="1638" descent="-410" />
<missing-glyph horiz-adv-x="266" />
<glyph horiz-adv-x="2048" />
<glyph horiz-adv-x="2048" />
<glyph unicode="&#xd;" horiz-adv-x="2048" />
<glyph unicode=" "  horiz-adv-x="266" />
<glyph unicode="&#x09;" horiz-adv-x="266" />
<glyph unicode="&#xa0;" horiz-adv-x="266" />
<glyph unicode="!" horiz-adv-x="520" d="M139 276q68 0 140 -4t111 -8l38 -4l90 -235q-4 -3 -10.5 -7.5t-28.5 -18.5t-44.5 -24.5t-58.5 -24.5t-70 -19t-78.5 -8.5t-84.5 7.5q-25 81 -26 167.5t11 132.5zM242 969l18 9t51 20.5t82 25.5t109 20t133 9q-8 -9 -22 -27.5t-52.5 -84t-71.5 -141t-67.5 -199.5 t-52.5 -259q-6 1 -16.5 5t-38 22t-49.5 43.5t-43.5 75.5t-29 112t3.5 158.5t46 210.5z" />
<glyph unicode="&#x22;" horiz-adv-x="684" d="M193 1171l286 78q8 -95 0 -170t-28.5 -130.5t-47 -96t-55 -66.5t-52 -41.5t-38.5 -21.5l-16 -6q19 114 8 215t-34 170zM573 1171l287 78q8 -95 0 -170t-28.5 -130.5t-47 -96t-55 -66.5t-52 -41.5t-39.5 -21.5l-15 -6q19 114 8 215t-35 170z" />
<glyph unicode="#" horiz-adv-x="1015" d="M82 178l31 184q94 0 196 3l27 151l-199 -18l74 176q46 0 156 4l67 362l215 -84q-33 -92 -82 -266l152 12q27 146 76 474l229 -82l-96 -371l147 16l27 -153l-215 -21l-43 -168l203 19l-23 -166q-108 0 -219 -6l-62 -240l-178 -80q29 119 68 312q-52 -3 -182 -17 q-46 -211 -76 -381l-137 135l41 230zM485 373l177 12l30 164l-168 -17q-4 -16 -12 -47.5t-15 -59t-12 -52.5z" />
<glyph unicode="$" horiz-adv-x="960" d="M109 389l147 -20q372 -40 427 42q9 14 9 29q-77 7 -126.5 13t-110 15.5t-97.5 21.5t-75.5 30t-59 41t-34 55t-13.5 72q0 186 208 288.5t581 102.5l57 -399q-22 6 -63.5 15.5t-181 27.5t-290.5 22q0 -33 29 -57.5t75 -39t101.5 -27t111.5 -29t102 -38t75 -59.5t29 -89 q0 -45 -18 -87.5t-67.5 -88t-126.5 -81.5t-204.5 -63.5t-292.5 -38.5q-5 5 -14 15t-34 44t-47.5 71t-50 94.5t-46.5 117.5zM330 -281q8 15 22 42t45 108.5t49 161.5q5 1 12.5 1t29 -3t39.5 -10t37.5 -25t29.5 -44.5t8.5 -71t-18.5 -101.5zM485 1341l275 58q-11 -15 -28 -42 t-54.5 -108.5t-56.5 -161.5q-5 -1 -13 -1.5t-29.5 1.5t-40 8.5t-37.5 24.5t-28.5 44t-7.5 72t20 105z" />
<glyph unicode="%" horiz-adv-x="1566" d="M156 551q0 86 17 159t41.5 115.5t49 73t41.5 41.5l17 12q70 1 132.5 15t89.5 27l27 14q8 -2 20.5 -6t44.5 -23t57 -44t45 -72.5t20 -104.5q0 -62 -19.5 -117.5t-50.5 -94.5t-68.5 -71.5t-75 -53t-68.5 -34.5t-50 -19l-20 -6q-54 15 -99.5 40t-72 50t-45.5 47.5t-26 36.5z M332 696q-17 -74 50 -103.5t141.5 -7.5t74.5 72q0 32 -22.5 37.5t-111.5 3.5q-78 -2 -132 -2zM524 -90l492 1182q4 -3 12 -8t35 -17.5t57 -21.5t78 -14.5t98 -2.5q-44 -78 -103 -190t-103 -194.5t-99.5 -182t-106.5 -175.5t-108.5 -150.5t-121 -131t-130.5 -94.5zM995 141 q0 86 17 159t41.5 116t49 73.5t41.5 42.5l17 11q70 1 132.5 14.5t90.5 26.5l27 14q8 -2 20.5 -6t44.5 -23t56.5 -44t44.5 -72.5t20 -104.5q0 -62 -19.5 -117.5t-50.5 -94.5t-68.5 -71.5t-75 -52.5t-68.5 -34t-51 -20l-19 -5q-54 15 -99.5 39.5t-72 49.5t-45.5 48t-26 37z M1171 287q-17 -74 50 -103.5t142 -7.5t75 72q0 32 -23 37.5t-112 3.5q-78 -2 -132 -2z" />
<glyph unicode="&#x26;" horiz-adv-x="1558" d="M143 166q0 21 3 42t8 38.5t12 34t14.5 30t16 26t16 21.5t15 17.5t12.5 13t10 8.5l4 4q-4 2 -11.5 7.5t-23 22t-28 37.5t-22 55.5t-9.5 74.5q0 89 39 161.5t105.5 121.5t157 82t190.5 48t210 15l187 -405q-14 4 -39 9.5t-98.5 15t-142.5 10t-156.5 -14t-155.5 -47.5 q0 -44 25.5 -76.5t79 -52.5t151 -13.5t227.5 42.5q-2 -8 -6.5 -20.5t-28 -44.5t-56.5 -57t-97.5 -45t-145.5 -20q-60 0 -110 6l-54 -137q85 -21 165 -24t146 10.5t124.5 36t108 57t88 69.5t73.5 76q-2 12 -2 39h-144q52 43 142 92q7 166 76 363l292 61q0 -133 -106 -313 q134 41 295 47q-63 -103 -133 -248l-211 -2q-24 -218 20 -432q-5 3 -14.5 9t-36 28t-50 49t-51.5 74t-46 100q-41 -74 -96.5 -134.5t-134.5 -114t-190 -83.5t-243 -30q-91 0 -161.5 20.5t-109 49.5t-62.5 67t-31 67t-7 56z" />
<glyph unicode="'" horiz-adv-x="303" d="M193 1171l286 78q8 -95 0 -170t-28.5 -130.5t-47 -96t-55 -66.5t-52 -41.5t-38.5 -21.5l-16 -6q19 114 8 215t-34 170z" />
<glyph unicode="(" horiz-adv-x="548" d="M131 406q0 83 15.5 158.5t42 134t60.5 110t71.5 88.5t75.5 67.5t72 50.5t60.5 33.5t41.5 19.5l16 5l59 -242q-6 -3 -15.5 -8.5t-37 -27t-52.5 -46.5t-56 -67.5t-53 -89.5t-37 -113.5t-15 -138.5q0 -68 19 -137.5t46 -120t54 -91.5t46 -62l19 -21q-6 1 -15.5 3.5t-39 12.5 t-58 22.5t-67.5 35.5t-72.5 49.5t-67.5 65t-58 82.5t-39 103t-15 124z" />
<glyph unicode=")" horiz-adv-x="550" d="M94 150q6 3 15.5 8.5t37 27t52.5 46.5t56 67.5t53 89.5t37 113.5t15 138.5q0 68 -19 137.5t-46 120t-54 91.5t-46 62l-19 21q6 -1 15.5 -3.5t39 -12.5t58 -22.5t67.5 -35.5t72.5 -49.5t67.5 -65t58 -82.5t39 -103t15 -124q0 -83 -15.5 -158.5t-42 -134t-60.5 -110 t-71.5 -88.5t-75 -67.5t-71.5 -50.5t-60.5 -33.5t-41.5 -18.5l-16 -6z" />
<glyph unicode="*" horiz-adv-x="890" d="M190 543q2 3 7 9t24 23.5t42 33t63 34.5t86 33q-33 42 -88.5 75t-94.5 45l-39 13q11 10 30 25.5t77.5 50.5t114.5 53q61 -79 108 -190q27 169 27 325q88 25 225 25q-59 -152 -108 -361q41 27 72.5 61.5t48.5 64t27.5 55t13.5 40.5l3 15q50 -30 83.5 -74t41.5 -73l9 -29 q-36 -37 -89.5 -72.5t-88.5 -52.5l-35 -17q31 -40 84 -73.5t90 -47.5l37 -14q-3 -4 -9.5 -10.5t-27 -24t-42.5 -32t-56.5 -30t-69.5 -22.5q-78 78 -125 170q-25 -147 -25 -292q-9 -5 -26.5 -11.5t-77.5 -18t-127 -11.5q61 131 110 340q-58 -36 -103.5 -91.5t-61.5 -92.5 l-17 -38q-40 44 -68 91t-37 71z" />
<glyph unicode="+" horiz-adv-x="905" d="M104 367q-19 53 40 91.5t175 65.5q15 68 35 122t32 74l13 21q9 3 24 7.5t63.5 16.5t93.5 17t114 9.5t123 -5.5l-72 -208l240 10q-9 -79 -40 -138.5t-79 -95t-103.5 -54t-121.5 -24.5l-133 -362q-6 4 -16 11t-39 32t-54.5 54.5t-57 77.5t-52.5 101q0 45 4 119 q-49 12 -96.5 26.5t-70.5 22.5z" />
<glyph unicode="," horiz-adv-x="481" d="M33 182l241 246q8 -2 21.5 -6.5t48 -25t60.5 -48t47.5 -79t21.5 -113.5q0 -65 -17.5 -124.5t-45 -103t-61 -80.5t-67.5 -61.5t-61.5 -41.5t-44.5 -25l-18 -7q32 113 31 194.5t-25.5 134.5t-53.5 84t-53 44z" />
<glyph unicode="-" horiz-adv-x="694" d="M96 465q20 5 62 12.5t195.5 20t336.5 12.5l49 -174l-522 -55q-12 49 -42.5 95t-54.5 68z" />
<glyph unicode="." horiz-adv-x="477" d="M39 182l242 246q55 -25 97 -69t62.5 -88.5t33.5 -85.5t16 -67l2 -26l-216 -115q-40 0 -79 21t-66.5 51t-49 60.5t-31.5 51.5z" />
<glyph unicode="/" horiz-adv-x="616" d="M43 47q123 279 232.5 538.5t157.5 379.5l48 120q14 -8 39.5 -20.5t104.5 -30t159 -12.5l-495 -1149q-101 94 -246 174z" />
<glyph unicode="0" horiz-adv-x="1048" d="M115 227q0 104 15 196.5t39 157.5t53 120t58 89t53 58t39 34l15 9q116 2 220 25.5t150 45.5l46 23q6 -2 17 -5.5t43 -18t60.5 -33t64 -53t60.5 -75t42.5 -101.5t17.5 -130q0 -102 -32 -193.5t-83 -155.5t-113 -117.5t-124 -86.5t-113 -56t-83 -32l-32 -10 q-89 25 -164.5 65.5t-119.5 81.5t-75 78t-43 61zM385 485q-29 -106 88 -149.5t247 -12t130 102.5q0 26 -10 39t-37 19t-73 5.5t-119 -1.5q-134 -3 -226 -3z" />
<glyph unicode="1" horiz-adv-x="516" d="M139 90q12 234 35 437.5t40 290.5l17 87q20 7 56.5 18.5t144.5 36t211 35.5q-92 -341 -143.5 -613t-57.5 -373l-6 -101q-6 2 -17.5 6t-46 19.5t-68.5 34t-80 51.5t-85 71z" />
<glyph unicode="2" horiz-adv-x="1026" d="M86 63q419 286 513 459q59 110 -30 143q-32 11 -80 11q-64 0 -126 -18t-104 -44t-75 -52t-49 -44l-16 -18q27 121 72.5 218t112.5 174t164 119t216 42q97 0 167.5 -24.5t106.5 -65.5t52 -84.5t16 -92.5q0 -60 -20.5 -115.5t-51 -97.5t-81.5 -87.5t-94 -77.5t-107 -76 q-30 -20 -45 -31q97 0 198 21.5t153 43.5l52 21q-37 -168 -37 -412q-14 4 -41.5 9.5t-118.5 21t-189.5 27t-250.5 21t-307 9.5z" />
<glyph unicode="3" horiz-adv-x="964" d="M78 233q107 -27 202 -39t165 -9t121.5 16.5t77.5 36.5t26 53q0 41 -47.5 59.5t-106 17t-109 0t-55.5 7.5l281 264q-130 0 -253 -22.5t-181 -44.5l-58 -23q11 26 27 70.5t43 158t27 199.5q16 -2 45 -5.5t121 -10t187 -9t232 1.5t267 17q-4 -9 -11 -25.5t-34.5 -67 t-60.5 -102t-90 -123.5t-122 -137q4 0 12 -0.5t29.5 -5t41.5 -11t44.5 -21.5t42 -34.5t29.5 -51t12 -70.5q0 -59 -17 -114t-61 -114t-112.5 -108t-180.5 -91.5t-256 -68.5q-48 37 -94 92.5t-78 108.5t-57 100.5t-37 76.5z" />
<glyph unicode="4" horiz-adv-x="1099" d="M80 150q48 111 80.5 240t44 233.5t16 193t2.5 137.5l-2 50l416 -58q-7 -10 -18 -29t-40 -79t-53.5 -123.5t-49 -157t-34.5 -184.5l252 -4q24 168 35.5 346t10.5 272l-1 94q23 -6 61 -18t132.5 -50.5t161.5 -78.5q-4 -56 -11 -111.5t-13.5 -95t-18.5 -94t-18.5 -79.5 t-21 -81t-18.5 -72l183 25l-60 -236l-170 13l-53 -252l-340 -68l88 293z" />
<glyph unicode="5" horiz-adv-x="964" d="M84 307q153 -30 305 -30.5t248 27t96 75.5q0 64 -133.5 67.5t-439.5 -34.5q10 41 24.5 108t39 232.5t24.5 281.5q273 -4 735 43l59 -366q-143 5 -297 0t-237 -13l-82 -8q0 -40 32 -62t83 -28t112.5 -8.5t123 -11t112.5 -27.5t83 -66t32 -120q0 -46 -12 -89.5t-53 -97.5 t-107.5 -98.5t-186.5 -86.5t-280 -67q-50 42 -97 96.5t-79 102t-57 89.5t-36 66z" />
<glyph unicode="6" horiz-adv-x="1026" d="M102 291q19 149 58.5 270.5t91.5 203.5t115 143t130 93t135 48.5t131 15t118.5 -12.5t96 -30t64.5 -41q-94 -22 -175 -65t-129 -87.5t-82.5 -86.5t-47.5 -68l-14 -27q86 29 171 33t158 -18.5t118.5 -85.5t45.5 -160q0 -124 -78.5 -230.5t-207.5 -167.5t-275 -61 q-50 0 -100.5 18.5t-91 48t-78 65t-65 71t-48 65t-31.5 47.5zM508 473q-4 -6 -14 -19.5t-15.5 -20.5t-13 -20t-9.5 -20.5t-2.5 -18.5t5 -17.5t16.5 -14t29.5 -11.5t45.5 -6.5t62 -2.5q65 0 133 8.5t103 17.5l35 8q0 27 -6 44.5t-22 28.5t-34.5 17t-53 9t-67 4.5t-88 5 t-104.5 8.5z" />
<glyph unicode="7" horiz-adv-x="868" d="M96 -53q0 1 22.5 18.5t68.5 65t104.5 118.5t143 201.5t171.5 292.5q-112 -10 -230.5 -26t-181.5 -27l-63 -10q20 108 62.5 222.5t74.5 175.5l33 60q7 -4 21 -9.5t72 -16.5t131.5 -15.5t205.5 2t287 27.5q-248 -766 -289 -991l-15 -6t-43.5 -16.5t-70 -21.5t-94.5 -21.5 t-117 -17.5t-137.5 -9t-155.5 4z" />
<glyph unicode="8" horiz-adv-x="1036" d="M123 213q20 51 50 94.5t59.5 69.5t56 44.5t43.5 26.5l16 7q-7 3 -19 8t-42.5 24.5t-53.5 42t-42 61.5t-19 83q0 159 150 265.5t436 123.5q74 -26 138 -65t102 -76t65.5 -71t38.5 -55l10 -20q0 -102 -47 -171.5t-176 -121.5q7 -3 18 -8.5t39.5 -24t50.5 -39.5t40 -53.5 t18 -66.5q0 -63 -49.5 -127.5t-131 -115t-195.5 -82.5t-235 -32q-75 31 -135.5 71t-93.5 75.5t-55.5 66t-29.5 48.5zM430 649q0 -27 6 -44.5t22 -28.5t34.5 -17t53 -9t67 -4.5t88 -5t104.5 -8.5q4 5 14.5 19t15 21t12.5 20.5t9.5 20.5t2.5 18.5t-5 17.5t-17 14t-29.5 11.5 t-45.5 6.5t-62 3q-65 0 -132.5 -8.5t-102.5 -17.5zM561 268q106 0 175 26t69 62q0 25 -42 34t-159 9q-136 0 -187 -44q-35 -30 -3 -56q39 -31 147 -31z" />
<glyph unicode="9" horiz-adv-x="1028" d="M139 610q0 110 46 199t124 145t178.5 85.5t212.5 29.5q50 0 100.5 -18.5t91 -48t78 -65t65 -71t48 -65t31.5 -47.5l10 -19q-19 -149 -58.5 -270.5t-91.5 -203.5t-115 -143t-130 -93t-135 -48.5t-131 -15t-118.5 12.5t-96 30t-64.5 41q94 22 175 65t129 87.5t83 86.5 t49 68l13 27q-86 -29 -171 -33t-158.5 18.5t-119 85.5t-45.5 160zM426 649q0 -27 6 -44.5t22 -28.5t34.5 -17t53 -9t67 -4.5t88 -5t104.5 -8.5q4 5 14.5 19t15 21t12.5 20.5t9.5 20.5t2.5 18.5t-5 17.5t-17 14t-29.5 11.5t-45.5 6.5t-62 3q-65 0 -132.5 -8.5t-102.5 -17.5z " />
<glyph unicode=":" horiz-adv-x="598" d="M156 160q25 48 59.5 91t65.5 70.5t58 48t43 29.5l17 9q47 -47 101.5 -91.5t85.5 -64.5l30 -21l-129 -270q-9 1 -24 4t-58.5 17t-83 33.5t-86.5 58t-79 86.5zM170 819l242 246q55 -25 97 -69t62.5 -88.5t33.5 -85.5t15 -67l3 -26l-215 -115q-40 0 -79.5 21t-66.5 51 t-49 60.5t-33 51.5z" />
<glyph unicode=";" horiz-adv-x="612" d="M156 182l241 246q8 -2 21.5 -6.5t48 -25t60.5 -48t47.5 -79t21.5 -113.5q0 -65 -17.5 -124.5t-45 -103t-61 -80.5t-67.5 -61.5t-61.5 -41.5t-45.5 -25l-17 -7q32 113 31 194.5t-25.5 134.5t-53.5 84t-53 44zM156 819l241 246q55 -25 97 -69t62.5 -88.5t33.5 -85.5t16 -67 l2 -26l-215 -115q-40 0 -79 21t-66.5 51t-49 60.5t-32.5 51.5z" />
<glyph unicode="&#x3c;" horiz-adv-x="948" d="M133 578q108 78 213 163.5t178 151.5t130.5 121t85.5 84l28 30q23 -55 58 -102.5t68 -76.5t63 -50.5t49 -30.5l18 -8l-532 -317q48 -60 114 -115t126 -90t113 -61.5t85 -38.5l31 -11q-7 -5 -20 -14.5t-56.5 -34.5t-89 -46t-114 -43.5t-136.5 -33.5q-95 113 -198 243.5 t-159 205.5z" />
<glyph unicode="=" horiz-adv-x="989" d="M98 244l103 248l811 2l-72 -187q-174 0 -325 -6.5t-242 -15.5t-156.5 -18.5t-92.5 -16.5zM190 627l101 209h827l-67 -191q-267 0 -482 -4.5t-297 -8.5z" />
<glyph unicode="&#x3e;" horiz-adv-x="940" d="M137 262l533 318q-48 60 -114 114.5t-126 89.5t-113 61.5t-85 38.5l-31 11q7 5 20 14.5t56 34.5t88.5 46t114 43.5t136.5 33.5q95 -113 198 -243.5t158 -204.5l56 -74q-171 -124 -330 -262t-232 -213l-73 -76q-23 55 -58 102.5t-68 76.5t-63 50.5t-48 30.5z" />
<glyph unicode="?" horiz-adv-x="927" d="M154 575q19 112 57.5 216.5t66.5 152.5l29 49q25 7 68.5 17.5t166 27.5t230.5 17q6 -3 17 -9t43 -33t62.5 -63t71.5 -103.5t74 -150.5q-5 -9 -14.5 -24t-45 -60.5t-77.5 -88t-113 -98.5t-151 -101l-227 38q89 56 152.5 108.5t91.5 88t43 62.5t15 40l1 13 q-397 -22 -558 -98zM299 276q68 0 140 -4t111 -8l38 -4l90 -235q-4 -3 -10.5 -7.5t-28.5 -18.5t-44.5 -24.5t-58.5 -24.5t-70 -19t-78.5 -8.5t-84.5 7.5q-25 81 -26 167.5t11 132.5z" />
<glyph unicode="@" horiz-adv-x="1376" d="M119 295q0 88 17.5 176t45.5 157.5t61.5 133.5t67.5 110.5t62 81t45 51.5l18 17q206 82 376 111.5t290 9.5t203 -81.5t122 -157.5t39 -222q0 -99 -34.5 -206.5t-88.5 -192.5t-126 -140t-142 -55q-121 0 -149 166q-105 -161 -240 -227q-5 2 -14 6t-35.5 21.5t-51 39.5 t-55.5 62t-55 88q0 59 15.5 126t51 137.5t86 126.5t128 92t168.5 36q53 0 96 -19q64 39 129 39l-23 -514q9 12 23 32.5t50.5 81.5t64 119t50.5 133.5t23 135.5q-7 6 -19.5 15t-57 32.5t-94 41.5t-129.5 33t-165 15q-273 0 -409.5 -144t-136.5 -403q0 -86 14 -155.5 t37.5 -117t60 -82.5t74.5 -54.5t89 -30t96.5 -12.5t103 1t101.5 8.5t100.5 11.5t91.5 8q-43 -49 -108 -92t-142 -75t-160 -45t-164 -7t-153.5 44t-127.5 102.5t-87.5 175t-32.5 255.5zM723 221q11 3 30 10.5t70 40.5t95 78q-2 108 26 268q-120 -86 -179 -203t-42 -194z" />
<glyph unicode="A" horiz-adv-x="1046" d="M47 203q6 5 17.5 18t47 69.5t72 133t88.5 219.5t101 318q50 4 129 11t253.5 33.5t266.5 57.5q-6 -209 -1 -364.5t16.5 -260.5t24.5 -169t22 -91l10 -28q-15 -12 -44.5 -33.5t-129.5 -84t-209 -118.5q3 149 0 285q-120 -21 -285 -13q-24 -68 -80 -249q-8 4 -21 11.5 t-51.5 33t-74 54t-78.5 74t-74 93.5zM479 336q43 -2 226 -2q-5 108 -14.5 210t-16.5 150l-6 49q-78 -117 -189 -407z" />
<glyph unicode="B" horiz-adv-x="1173" d="M104 145q62 90 122.5 205.5t89.5 185.5l30 70q-53 -6 -100.5 -21.5t-68.5 -27.5l-21 -12q8 78 23.5 149.5t32.5 117.5t32 80.5t25 49.5l10 16q35 11 96 27t235 43t330 27q9 -3 24.5 -10t59.5 -36t84 -66.5t88.5 -106.5t81.5 -152q-25 -56 -62 -109t-71 -88t-65 -62 t-50 -39l-18 -13l182 -119q-28 -84 -99.5 -147.5t-165 -98.5t-204.5 -52t-221 -13.5t-211 22.5l-4 2q-5 3 -14.5 7.5t-35 22t-48 36.5t-47.5 49.5t-40 62.5zM504 118q65 2 125.5 12.5t100.5 24t70 27t44 22.5l14 9q-2 3 -7 8t-25.5 17t-47 21.5t-75 17.5t-105.5 8 q-41 -93 -94 -167zM582 434q69 0 129.5 13t101 33.5t73.5 45.5t52.5 50t32.5 45.5t17 33.5l5 13q-147 6 -331 0q-8 -29 -80 -234z" />
<glyph unicode="C" horiz-adv-x="983" d="M88 168q0 145 60 320t161.5 321t210.5 203q70 0 156 -8q114 5 225 20.5t165 27.5l54 13q-82 -272 -131 -576q-20 9 -53.5 26.5t-116.5 74.5t-141 119q-159 -232 -191 -508l545 145q0 -7 -2 -19t-15.5 -47.5t-35 -70t-68 -80t-107.5 -82.5t-160 -72.5t-220 -56.5 q-10 3 -26 9.5t-62 29t-86.5 49t-86.5 70.5t-75 92z" />
<glyph unicode="D" horiz-adv-x="1107" d="M158 639q4 22 11 58.5t35 126t62 151.5q7 5 22 12.5t69 26.5t117.5 34t169.5 27t224 12q11 -7 29.5 -21t67.5 -61t90.5 -98.5t83 -131.5t59.5 -163q-1 -9 -4 -23.5t-17.5 -60t-34.5 -88.5t-58.5 -101t-86 -106.5t-120.5 -95.5t-159 -77t-204.5 -43t-253.5 -1l-94 166 q0 100 172 490q-49 -7 -94 -15.5t-66 -12.5zM541 219q85 46 152 110.5t102.5 124.5t59 113t29.5 85l7 32q-92 10 -215 10q-35 -155 -135 -475z" />
<glyph unicode="E" d="M96 199q5 15 15.5 40.5t51.5 96t93 129.5l-9 9t-21 25t-26 39t-20.5 47.5t-9.5 53.5q0 215 221 340t608 125l138 -459q-9 2 -26.5 5.5t-78 10.5t-129.5 11t-180.5 2.5t-230.5 -10.5q0 -16 3.5 -28t15.5 -28.5t35 -27t61 -22t94 -15t134 -5.5t181 5q0 -4 -2 -11 t-11.5 -27.5t-24.5 -38.5t-46 -40.5t-71 -39t-104 -27.5t-141 -11q-60 0 -110 6l-23 -108q7 -10 99 -10q117 0 245 24t197 48l70 24q-8 -63 -51.5 -128.5t-114.5 -122.5t-180.5 -93.5t-233.5 -36.5q-82 0 -158.5 26.5t-128.5 65.5t-86.5 80.5t-44.5 75.5z" />
<glyph unicode="F" horiz-adv-x="1003" d="M117 125q47 243 174 553l-127 4q14 63 36 121.5t44.5 96.5t42.5 67.5t33 42.5l12 14l813 55l-60 -526q-130 49 -391 86q-50 -136 -88 -223q130 4 242 11.5t158 12.5l47 6q-1 -5 -4.5 -14t-19.5 -35t-38.5 -50t-66.5 -54t-99.5 -52.5t-141 -39.5t-187.5 -21 q-78 -152 -156 -266q-50 26 -91 57t-64.5 57t-40 48.5t-22.5 35.5z" />
<glyph unicode="G" horiz-adv-x="1054" d="M96 209q0 145 60 320t161.5 321t210.5 203q82 0 164 -11q120 5 237.5 21t175.5 29l58 14q-82 -272 -131 -576q-8 4 -22.5 10.5t-56 30t-80 49.5t-87.5 66.5t-86 83.5q-170 -241 -204 -528l270 71q3 75 20 152q141 -39 340 -39q-26 -57 -75 -194.5t-85 -245.5l-36 -109 q-43 16 -81 68t-61 131q-147 -80 -356 -117q-10 3 -26 9.5t-62 29t-86.5 49t-86.5 70.5t-75 92z" />
<glyph unicode="H" horiz-adv-x="1058" d="M102 147q10 134 31 259.5t43.5 209.5t43.5 149t34 95l14 31q12 8 37.5 21t119.5 43t206 46q-70 -294 -117 -598q107 10 201 46q22 163 32 337.5t9 267.5v93q9 -5 26 -13.5t66 -29.5t96 -37t108.5 -29.5t110.5 -13.5q-13 -182 -41 -347t-58.5 -270.5t-59.5 -185 t-48 -114.5l-18 -35q-46 0 -97 -11t-90.5 -26t-73 -30.5t-51.5 -26.5l-18 -11q44 128 78 305q-113 -29 -203 -82q-10 -71 -17.5 -136t-9.5 -94l-3 -30q-10 3 -26.5 8t-64 24.5t-89.5 42.5t-91 61t-80 81z" />
<glyph unicode="I" horiz-adv-x="512" d="M137 90q12 234 42.5 476t55.5 368l25 125q141 -39 381 -64q-92 -341 -143.5 -613t-57.5 -373l-6 -101q-6 2 -17.5 6t-46 19.5t-68.5 34t-80 51.5t-85 71z" />
<glyph unicode="J" horiz-adv-x="552" d="M-4 -190q5 5 14 15.5t35.5 56t50 104t53 166t50 235.5t35 319t14.5 410q113 -43 212.5 -66.5t143.5 -25.5l43 -2q-8 -138 -18 -246.5t-25 -217t-34.5 -191.5t-47 -161.5t-63 -135.5t-81 -106t-102.5 -80t-126.5 -50t-153.5 -24z" />
<glyph unicode="K" horiz-adv-x="1167" d="M92 213q19 132 52 263.5t66.5 225t64 168.5t49.5 112l20 38q110 42 226.5 63.5t177.5 22.5h61q-80 -107 -159 -283t-91 -331q84 106 243.5 258.5t277.5 251.5l118 100q36 -59 56 -111.5t27.5 -95t-0.5 -83t-21.5 -70.5t-43 -62t-56 -54.5t-70.5 -51t-76.5 -47.5 t-83.5 -48t-84 -49q53 -53 109.5 -101t98.5 -79t77 -55t53 -35l18 -10q-5 -6 -14 -16t-44.5 -37t-77.5 -49t-114 -43.5t-153 -29.5q-98 92 -183.5 217t-119.5 216q-35 -108 -60.5 -220t-33.5 -170l-9 -57q-8 3 -21 9t-51.5 28t-74 48.5t-79 71.5t-75.5 95z" />
<glyph unicode="L" horiz-adv-x="753" d="M78 39q151 619 151 674q0 58 -3 111.5t-6 77.5l-3 24q7 5 21 12.5t65.5 29t113 39.5t165 36.5t219.5 27.5q-16 -32 -44 -92t-103.5 -254.5t-139.5 -398.5q58 0 109 7t82.5 17t55 20.5t33.5 17.5l9 7l-82 -420q-120 23 -281 39t-262 20z" />
<glyph unicode="M" horiz-adv-x="1269" d="M98 139q12 135 34 266.5t45 222.5t44.5 162.5t34.5 106.5l14 35q8 5 23.5 12.5t63.5 28.5t97.5 38t121 33t139.5 21q-15 -229 -14 -365t9 -192l9 -55l262 682q19 -11 53.5 -29t137 -57t198.5 -58q-8 -183 -51 -410t-82 -362l-39 -135q-12 -8 -36.5 -21t-115 -41.5 t-198.5 -44.5q45 158 72.5 303.5t32.5 211.5l5 67q-7 -16 -20.5 -42.5t-53 -100.5t-78.5 -138t-92 -134t-98 -109q-38 78 -67 209t-39 223l-10 92q-5 -9 -12.5 -26t-27.5 -78.5t-35 -133t-27.5 -190.5t-12.5 -250q-9 5 -25 13t-58.5 35t-78 55.5t-72 71t-53.5 83.5z" />
<glyph unicode="N" horiz-adv-x="1122" d="M96 139q14 125 39 253t51 221t50 168.5t40 114.5l15 38q155 57 366 84l125 -666q41 230 57.5 423.5t12.5 272.5l-4 78q219 -96 373 -131q-24 -255 -70.5 -499t-80.5 -361l-34 -117q-70 0 -156 -16.5t-137 -32.5l-51 -16l-172 618q-59 -224 -127 -622q-22 8 -57.5 22.5 t-115.5 64t-124 103.5z" />
<glyph unicode="O" d="M115 227q0 135 21.5 248.5t56 187t76 131t82.5 87.5t75.5 49.5t55.5 25.5l22 5q67 -76 203 -97l211 164q8 -3 20.5 -10t45.5 -37.5t58 -70.5t45.5 -113.5t20.5 -161.5q0 -93 -20 -177t-53.5 -147.5t-77 -119t-91.5 -94.5t-96 -71t-91.5 -51.5t-77 -32.5t-53.5 -18l-20 -6 q-89 25 -164.5 65.5t-119.5 81.5t-75 78t-43 61zM526 170q40 0 91 37t96 106t59.5 168t-18.5 224q-228 -249 -228 -535z" />
<glyph unicode="P" horiz-adv-x="1105" d="M111 106l135 547q-15 49 -27 114t-17 105l-5 41q10 7 29 17.5t82.5 38.5t134 49.5t181 39t224.5 17.5q12 -6 32.5 -18.5t76 -55t103 -90t98 -123t75.5 -155.5q-55 -196 -236.5 -308t-480.5 -122q-24 -64 -43.5 -143.5t-26.5 -127.5l-8 -47q-8 3 -23 9.5t-57 28 t-80.5 45.5t-85.5 61.5t-81 76.5zM551 385h12q61 0 114 13t89.5 33.5t67 45t48.5 49.5t30.5 45.5t17.5 33.5l4 13q-12 4 -34.5 9.5t-97 14t-153.5 7.5q-54 -129 -98 -264z" />
<glyph unicode="Q" horiz-adv-x="1089" d="M113 260q0 106 13.5 199t36 160.5t51.5 124.5t61.5 94.5t64.5 66.5t61 45t51.5 26.5t35.5 13.5l14 3q66 -74 203 -96l210 164q8 -3 21 -10t45.5 -37.5t58 -70.5t46 -113.5t20.5 -161.5q0 -92 -20 -175.5t-51.5 -146.5t-77 -119t-90 -94.5t-95.5 -71.5q146 37 344 70 l-84 -248q-43 -1 -118 -4t-279 -21.5t-377 -47.5q1 3 4 8.5t18 22.5t36.5 34.5t63.5 42.5t95 49q-78 26 -144 66t-104.5 78t-66 72.5t-37.5 55.5zM524 203q40 0 91 36.5t96 105.5t59.5 168t-18.5 224q-228 -249 -228 -534z" />
<glyph unicode="R" horiz-adv-x="1130" d="M123 160l139 475l-74 262q8 7 24 18t73.5 40t124 51.5t175.5 40.5t228 18q6 -1 17 -4.5t44 -17.5t64.5 -32.5t75 -52.5t80.5 -75t74 -102t63 -132q-14 -84 -57.5 -151.5t-105.5 -110.5t-127.5 -69t-137.5 -39q75 -47 161.5 -84.5t135.5 -51.5l49 -14q-3 -6 -10 -16 t-33 -37.5t-57 -52t-84 -52.5t-113 -45q-48 19 -92 49t-72.5 57t-61.5 70t-47 65t-40 65q-8 12 -11 18l-137 -328q-8 4 -22 11.5t-52 31.5t-71 50t-68.5 66t-54.5 79zM567 385q65 1 119.5 14.5t90 34t63 46t42.5 50t24.5 45t12.5 33.5l3 13q-9 4 -27.5 9.5t-83 13 t-137.5 3.5z" />
<glyph unicode="S" horiz-adv-x="1003" d="M78 299l133 -22q355 -47 433 34q20 21 20 49q-92 8 -156 17t-126 22.5t-101.5 32.5t-70.5 45.5t-44.5 62.5t-13.5 83q0 194 231 311t627 117l63 -437q-24 7 -69.5 17.5t-196.5 30.5t-315 24q36 -51 109 -82t148.5 -45.5t147 -33t117 -59.5t45.5 -110q0 -72 -43 -134 t-134.5 -117t-248 -96.5t-369.5 -63.5q-5 5 -14.5 14t-35.5 41t-48.5 69.5t-47.5 99.5t-40 130z" />
<glyph unicode="T" horiz-adv-x="888" d="M113 584q32 39 56.5 99t36.5 117.5t19.5 109t8.5 82.5l2 32q14 -4 40.5 -11t113 -21t177.5 -21.5t228 -5t272 21.5q-3 -5 -7.5 -14t-17 -43t-23 -73.5t-20.5 -107t-14 -141.5l-254 -8q-60 -324 -80 -666q-112 16 -205 41t-130 43l-37 17l147 557z" />
<glyph unicode="U" horiz-adv-x="1079" d="M121 23q2 11 -1 39.5t4.5 113.5t18.5 180t42 240t75 293q9 5 26 13t69.5 28.5t105.5 36.5t128 29.5t144 15.5q-8 -14 -22 -40t-51 -109t-67.5 -167.5t-61 -207.5t-42.5 -238l209 74q2 109 13.5 206.5t27 159t30.5 107.5t25 66l11 20q18 -7 50 -17.5t132 -27.5t201 -17 q-56 -154 -93 -295t-49.5 -232t-17 -160t-1.5 -100l3 -30q-5 -1 -13.5 -2t-34.5 -1.5t-51 2t-57.5 11t-59 23t-51 41.5t-38.5 63q-64 -66 -173.5 -100.5t-225.5 -34.5q-60 0 -111.5 4t-72.5 8z" />
<glyph unicode="V" horiz-adv-x="1052" d="M199 932q8 5 22.5 13t63.5 29t101.5 39t133.5 35.5t162 24.5q-8 -19 -21 -52t-41.5 -133t-44 -197.5t-11.5 -228.5t40 -243q52 89 95.5 199t68 202.5t41.5 172.5t23 126l6 46q9 -2 25 -6t60 -21t82 -38.5t80.5 -61t67.5 -86.5q-1 -9 -2.5 -24.5t-11 -63.5t-24 -96 t-44.5 -114t-68.5 -124.5t-99 -121.5t-133.5 -111.5t-175.5 -87.5t-221.5 -56q-75 123 -120.5 269.5t-57 267t-12 223.5t7.5 161z" />
<glyph unicode="W" horiz-adv-x="1372" d="M197 911q9 5 26 13.5t70 30.5t106.5 39t129 30.5t143.5 13.5q-152 -388 -113 -731q107 122 135 209q-6 64 -9 131.5t-3 102.5v36q84 50 254 103q0 -206 10 -360t20 -205l9 -52q84 178 107.5 363.5t-7.5 392.5l359 -115q33 -230 -28 -439t-196.5 -349.5t-316.5 -181.5 q-43 45 -89.5 148t-60.5 181q-48 -71 -105 -133t-104.5 -100.5t-87.5 -66.5t-63 -40l-23 -12q-61 75 -102.5 170t-60 187.5t-26.5 186.5t-3.5 173t10.5 141.5t12 97.5z" />
<glyph unicode="X" horiz-adv-x="1107" d="M88 141q27 62 60.5 114.5t61 85.5t67.5 65.5t62 47.5t62 40q-85 184 -284 254l391 346q139 -167 139 -602q49 36 88.5 112.5t61.5 160t36.5 162t19.5 129.5l5 50l342 -268q0 -95 -81 -218.5t-195 -179.5q11 -57 38 -116t58 -102.5t60.5 -78.5t49.5 -53l19 -18 q-20 -4 -56 -13t-138 -53.5t-195 -107.5q-92 214 -113 434q-32 0 -65.5 -33t-66 -94.5t-59.5 -126t-57 -150.5z" />
<glyph unicode="Y" horiz-adv-x="1017" d="M72 696q70 64 128.5 127t92 108.5t57.5 81.5t32 54l9 18q9 -10 23.5 -29t50.5 -86t61 -142t40 -194.5t3 -246.5q79 72 131.5 173t71.5 193t26.5 173.5t3.5 130.5l-3 49l342 -268q0 -43 -5.5 -84t-27.5 -99.5t-58 -107.5t-105 -99.5t-161 -85.5l-43 -372l-512 -78 q5 9 13.5 24.5t30 64.5t38 98.5t30 121t13.5 137.5q0 61 -15.5 112t-40.5 85t-55 60.5t-60 41t-55 24t-40 12.5z" />
<glyph unicode="Z" horiz-adv-x="1021" d="M100 12l478 625q-87 -1 -163 -17t-123 -38.5t-81.5 -44t-48.5 -37.5l-15 -15q4 101 23 197t43 161.5t47 116.5t39 75l16 24q3 -2 10 -6t36 -15t66 -20t103 -18.5t144 -13.5t193.5 -2.5t246.5 11.5l-444 -667q67 4 133.5 24t113 45t83.5 49.5t55 41.5l18 16 q-9 -33 -22.5 -87t-36.5 -180t-23 -202q-274 19 -472 14t-309 -21z" />
<glyph unicode="[" horiz-adv-x="589" d="M82 72q55 132 92 347.5t47 364.5l10 150q22 6 61.5 16t161 29t240.5 25l-32 -291l-183 49l-71 -608l202 -39q-36 -44 -83 -96.5t-76 -82.5l-29 -30q-20 6 -54.5 17t-124.5 54t-161 95z" />
<glyph unicode="\" horiz-adv-x="966" d="M217 1022q80 -5 155.5 10.5t111.5 33.5l36 19q163 -412 438 -1038q-64 -36 -125.5 -79.5t-90.5 -69.5l-29 -25z" />
<glyph unicode="]" horiz-adv-x="589" d="M84 -33l33 291l182 -49l72 608l-203 39q36 44 83 96.5t76 82.5l29 30q20 -6 54.5 -17t124.5 -54t161 -95q-55 -132 -92 -347.5t-47 -365.5l-10 -149q-22 -6 -61.5 -16t-161 -29t-240.5 -25z" />
<glyph unicode="^" horiz-adv-x="917" d="M174 1065l281 321q73 -25 121.5 -70t65.5 -92t23.5 -91t2.5 -71l-4 -28l-203 156q-6 -4 -16 -11.5t-42 -27t-64.5 -35t-78 -31t-86.5 -20.5z" />
<glyph unicode="_" horiz-adv-x="716" d="M-37 -223l68 200q506 0 618 48l13 8l26 -203z" />
<glyph unicode="`" horiz-adv-x="919" d="M184 1231l64 270l487 -217q-101 -46 -194.5 -68.5t-155.5 -21.5t-109.5 8.5t-69.5 17.5z" />
<glyph unicode="a" horiz-adv-x="913" d="M88 231q0 60 19.5 128.5t61.5 137.5t100 125t142.5 91t180.5 35q72 0 117 -31l53 106q45 -17 84.5 -42.5t63.5 -49t42 -45t26 -34.5l7 -13q-16 -61 -47.5 -127.5t-54.5 -102.5l-23 -36q0 -21 0.5 -57t10.5 -124t30 -151l-178 -82q-130 32 -156 168q-53 -62 -117 -104.5 t-108 -42.5q-64 0 -124.5 42.5t-95 100.5t-34.5 108zM381 182q10 0 27.5 2.5t66 28t92.5 70.5q23 161 107 354q-106 -59 -179.5 -148.5t-99.5 -169t-14 -137.5z" />
<glyph unicode="b" horiz-adv-x="929" d="M90 147l172 881q98 31 199 56t153 34l52 10q-123 -346 -205 -626q67 93 141 166t115 100l41 27q7 -3 19.5 -8t48 -24.5t66 -42.5t65 -61t55.5 -81q-11 -99 -66 -201t-141 -187.5t-206 -149t-251 -85.5zM406 143q58 0 132.5 104t114 208t11.5 104q-29 0 -106 -85.5 t-150 -180.5q-8 -35 -12 -61.5t-5 -47t3 -31t12 -10.5z" />
<glyph unicode="c" horiz-adv-x="806" d="M70 123q10 97 32.5 184t49.5 149t57 115t58.5 86.5t51 57t36.5 33.5l14 10q81 -37 164 -45t144 7t110 35.5t75 38.5l25 19q8 -155 -17.5 -250.5t-83.5 -183.5q-18 5 -48 15t-103.5 44.5t-124.5 73.5q-78 -134 -82 -336q26 0 124.5 29t183.5 57l85 29q0 -5 -0.5 -14.5 t-8 -38.5t-21.5 -56.5t-45 -64.5t-74 -68t-114 -61.5t-159 -50.5q-9 2 -25.5 5.5t-62 18.5t-85 34t-84.5 53t-72 75z" />
<glyph unicode="d" horiz-adv-x="946" d="M92 301q0 55 36 129.5t94.5 144t144 118t172.5 48.5q57 0 108 -100q16 98 34 194t28 143l10 46q101 15 206 35.5t159 33.5l55 13q-18 -83 -76 -258t-107 -308l-49 -134l13 -404q-8 0 -21 0.5t-50.5 7t-71.5 18.5t-75 39t-69 64q-62 -54 -125.5 -99t-95.5 -63l-33 -18 q-136 33 -211.5 134.5t-75.5 215.5zM371 111q11 5 31.5 16.5t81 59.5t118.5 112l31 246q-57 -18 -108.5 -75.5t-83.5 -125.5t-51 -131.5t-19 -101.5z" />
<glyph unicode="e" horiz-adv-x="827" d="M74 125q6 83 27.5 170.5t47.5 152.5t51 118.5t42 81.5l16 28q115 5 227 36t167 59l55 28q48 -27 83.5 -67.5t53 -79t27.5 -72.5t12 -55l2 -21q-29 -67 -83.5 -120t-121 -85.5t-134.5 -50.5t-136 -23q-2 -9 -4.5 -20.5t-8.5 -44.5q59 -4 125 5t118.5 25t97 32.5t68.5 29.5 l25 12q10 -45 -4 -93t-53.5 -96.5t-119 -89.5t-189.5 -63q-11 2 -30 5t-72.5 18.5t-100.5 36t-101 59t-87 84.5zM430 317q84 13 141 84q48 59 37 105q-15 52 -104 35q-15 -52 -74 -224z" />
<glyph unicode="f" horiz-adv-x="679" d="M72 502q95 69 204 139q-6 6 -15.5 16t-25.5 42.5t-16 66.5q0 81 32 143t82.5 99t122.5 60t142 31.5t150 8.5q4 -118 22 -209t34 -123l15 -31q-164 37 -385 37q0 -22 5.5 -39.5t27 -37.5t59 -32t107.5 -18.5t166 -1.5l-88 -256l-152 -2q-6 -16 -16.5 -50t-38.5 -172.5 t-51 -315.5q-8 4 -22.5 12t-54.5 33.5t-75.5 51.5t-77 63t-67.5 71l63 348q-44 16 -80.5 32.5t-51.5 25.5z" />
<glyph unicode="g" horiz-adv-x="937" d="M86 -25q7 -4 21.5 -9.5t71.5 -15t128 -9.5q73 0 136 28.5t106 77.5t71.5 108t41.5 126q-32 -50 -74 -94t-79 -71.5t-69.5 -47.5t-51.5 -28l-19 -9q-117 21 -195 103.5t-82 144.5q-2 44 14 104.5t53 125.5t87.5 120t125 91t156.5 36q114 0 190 -98l44 192q62 -8 114 -26.5 t81 -40t49 -42t27 -33.5l7 -14q-10 -77 -38 -148.5t-51 -104.5l-23 -33q-5 -333 -175.5 -526t-476.5 -193q-5 3 -13.5 9t-32.5 30t-46.5 53.5t-50 81.5t-47.5 112zM385 195q7 4 20.5 13t51.5 39t73 63.5t78.5 88t75.5 111.5l17 74q-67 -15 -122.5 -47t-92 -72.5t-61 -87.5 t-34 -93t-6.5 -89z" />
<glyph unicode="h" horiz-adv-x="913" d="M121 117q4 188 38 424t64.5 378t34.5 144q98 31 199 48t153 18l52 1q-15 -33 -39.5 -91.5t-83.5 -231.5t-99 -336q76 139 160.5 220t153.5 81q58 0 118.5 -69t118.5 -203q-7 -9 -18 -26t-39 -72t-50 -113.5t-41.5 -147t-22.5 -176.5q-5 0 -12.5 -0.5t-32 2.5t-46.5 10 t-49.5 24.5t-47.5 42.5t-34.5 67.5t-17 96.5t11 133t45.5 173q-137 -117 -262 -379q-10 -59 -17 -149q-58 13 -103.5 31.5t-69.5 35t-39.5 31.5t-19.5 24z" />
<glyph unicode="i" horiz-adv-x="479" d="M117 117q0 118 9.5 227t22.5 180.5t26 126.5t23 80l9 25q91 -16 186 -44.5t144 -49.5l49 -21q-8 -11 -21 -32t-46 -92t-58 -148t-45 -195.5t-19 -239.5q-59 27 -109.5 55.5t-80.5 50.5t-51.5 40t-29.5 28zM233 1010q32 14 63 35.5t52 42t37.5 39t24.5 29.5l8 11 q63 -10 124 -30.5t90 -36.5l30 -15q-1 -9 -3.5 -25.5t-14 -62.5t-26.5 -87t-42 -89t-60 -80q-9 4 -24 11.5t-56 33t-75.5 54.5t-72 75t-55.5 95z" />
<glyph unicode="j" horiz-adv-x="475" d="M-29 -287q45 84 84.5 222.5t64.5 276t43 263t26 203.5l8 78q91 -16 185.5 -44.5t143.5 -49.5l49 -21q-7 -12 -19.5 -34t-43.5 -94.5t-54.5 -151t-42.5 -198.5t-18 -241q-50 -46 -112.5 -85t-115.5 -61t-99 -37t-72 -21zM244 938q24 45 52.5 84t51.5 63t42.5 42t30.5 25 l11 7q44 -44 98 -83.5t86 -57.5l31 -17l-90 -251q-8 1 -22.5 3.5t-55.5 15.5t-78 31.5t-81.5 55t-75.5 82.5z" />
<glyph unicode="k" horiz-adv-x="935" d="M66 80q48 222 103.5 449t86.5 343l31 115q116 44 229.5 71.5t169.5 33.5l55 6q-138 -254 -276 -684q35 14 71 38.5t84 70t97 124t90 180.5q8 -5 21 -14.5t47.5 -38.5t63 -58t57 -69.5t38.5 -77.5q-5 -9 -14.5 -24.5t-45 -57t-77.5 -76.5t-113 -71.5t-151 -54.5 q147 -81 311 -101q-2 -8 -7.5 -21t-28.5 -49t-53 -66t-86 -60.5t-124 -44.5q-122 120 -235 290q-23 -76 -42.5 -148.5t-27.5 -106.5l-8 -35q-7 1 -19.5 4t-47.5 14.5t-66.5 26t-69 39t-63.5 53.5z" />
<glyph unicode="l" horiz-adv-x="473" d="M96 98q16 180 57.5 399.5t74.5 348.5l34 129q93 56 199.5 91.5t166.5 43.5l60 8q-80 -172 -137.5 -361t-82 -335.5t-37.5 -268.5t-13 -187v-66q-9 4 -25 10.5t-60 28.5t-83 44t-83 53.5t-71 61.5z" />
<glyph unicode="m" horiz-adv-x="1349" d="M100 45q27 179 45 350t23 253l4 81l301 70l-49 -293q75 128 182 191t201 63q6 -10 16.5 -28t31.5 -76t30 -119q68 104 150 169.5t141 65.5q58 0 118.5 -69t118.5 -203q-4 -8 -11.5 -22.5t-26.5 -66t-34.5 -109.5t-30.5 -151.5t-20 -193.5q-9 1 -23.5 3.5t-55 12 t-76.5 21.5t-76.5 32t-65.5 44q26 94 42.5 174t21.5 127.5t6 81.5t-1 47l-3 14q-85 -54 -162 -178q-23 -101 -45 -305q-12 -4 -36 -10.5t-104.5 -14.5t-168.5 -4q29 106 47 197.5t23 146.5t6 95.5t-2 56.5l-3 16q-117 -102 -202 -305q-14 -175 -17 -238z" />
<glyph unicode="n" horiz-adv-x="921" d="M121 117q6 148 20.5 301t25.5 232l11 79l357 78q-41 -110 -80 -311q73 129 153 202.5t146 73.5q58 0 118.5 -69t118.5 -203q-5 -11 -14 -30.5t-32.5 -81t-42 -125.5t-34.5 -156.5t-18 -180.5q-21 7 -55.5 19t-109.5 50t-114 75q26 94 42.5 174t21.5 127.5t6 81.5t-1 47 l-3 14q-117 -101 -231 -315q-12 -95 -21 -205q-79 19 -145 50t-92 52z" />
<glyph unicode="o" horiz-adv-x="843" d="M92 223q1 84 18.5 161.5t44 134t58.5 105t63.5 79.5t57.5 53.5t42 32.5l17 10q72 -20 174 -58l131 123q91 -40 147 -136t56 -232q0 -75 -24.5 -143t-64.5 -118t-90.5 -92t-101.5 -69.5t-98.5 -47t-81 -28t-49.5 -8.5q-55 27 -106 61.5t-84.5 63.5t-59.5 54t-37 39z M422 182q8 1 21.5 4.5t50.5 22t69 46t67 83t54 127.5l-115 96q-132 -180 -147 -379z" />
<glyph unicode="p" horiz-adv-x="892" d="M37 -240q16 157 50 344.5t61 296.5l26 109l10 217q59 36 150.5 62.5t153.5 35.5l61 9q-39 -107 -80 -283q129 169 311 225l189 -180q-21 -219 -131.5 -378.5t-276.5 -223.5q-84 29 -166 76q-12 -132 -12 -277q-143 -33 -346 -33zM408 186l112 17q30 25 56.5 68t42.5 89 t24 88t4 70.5t-20 30.5l-201 -230q-12 -66 -18 -133z" />
<glyph unicode="q" horiz-adv-x="958" d="M94 301q0 55 36 129.5t94.5 144t144 118t172.5 48.5q69 0 129 -143q9 39 18.5 75t15.5 52l5 16q78 25 164.5 27.5t134.5 -8.5l47 -10q-49 -118 -99.5 -376.5t-75.5 -457.5l-26 -199q-7 1 -20 4t-50 15t-71 27t-75 41.5t-71 58.5q0 94 15 248q-86 -65 -157.5 -102.5 t-94.5 -37.5q-60 0 -116 53.5t-88 130t-32 146.5zM365 131q14 8 39 23.5t90.5 69.5t119.5 116q17 100 43 211q-50 -8 -97 -45t-81.5 -87t-60.5 -105.5t-39.5 -103.5t-13.5 -79z" />
<glyph unicode="r" horiz-adv-x="796" d="M98 115q16 141 47.5 316.5t54.5 280.5l23 105q84 -18 152.5 -44.5t94.5 -44.5l26 -17q-41 -123 -66 -359q55 127 207 432l250 -192q-3 -4 -8.5 -13t-19 -42t-22.5 -72.5t-14.5 -105.5t-1.5 -140q-52 8 -97.5 25.5t-73.5 37.5t-49 39t-29 31l-9 13q-113 -130 -147 -197 q-4 -122 -4 -195q-73 17 -151.5 52.5t-120.5 62.5z" />
<glyph unicode="s" horiz-adv-x="806" d="M72 281q9 -2 24 -6t60 -13.5t86.5 -16t94 -11t92.5 -1.5t72 17t42 39q-208 22 -271 40q-96 28 -116 94q-6 20 -6 46q0 69 30.5 126t83.5 95t118 66t141 43.5t145 22.5t137 7l49 -350q-21 6 -59.5 15t-161.5 25t-250 20q13 -37 64.5 -60t114 -35.5t124 -28t102.5 -50 t41 -89.5q0 -118 -151.5 -208t-464.5 -123q-11 16 -29 45t-56.5 117t-55.5 174z" />
<glyph unicode="t" horiz-adv-x="651" d="M113 625q41 31 168 88q36 108 76 195t63 120l22 33l131 -266l215 20l-90 -395l-194 69q-6 -32 -15.5 -86t-22 -193.5t-7.5 -246.5q-10 3 -26.5 8.5t-63 24.5t-87 40t-86 54.5t-71.5 67.5q24 102 53 187.5t46 120.5l18 34q-14 26 -46 57.5t-58 49.5z" />
<glyph unicode="u" horiz-adv-x="937" d="M129 90q-17 181 -3.5 311.5t38.5 203.5l26 73q5 3 14 9t43 21t74 26t107.5 20.5t142.5 9.5q-7 -12 -18.5 -34t-40 -91t-49 -139.5t-34 -171t-7.5 -193.5q7 3 18.5 10.5t45 46t64 93.5t67.5 161.5t63 241.5q18 -8 49.5 -20t120 -32t166.5 -20q-58 -158 -94.5 -325 t-43.5 -255l-8 -87q-6 2 -17 7t-41 23.5t-57.5 41t-59 61t-52.5 82.5q-5 -8 -14 -22t-40 -50t-63.5 -65t-83 -57t-100.5 -36z" />
<glyph unicode="v" horiz-adv-x="862" d="M164 682q6 6 16.5 15t48.5 33.5t80.5 44t111.5 38t142 23.5q-7 -10 -18.5 -29t-35.5 -83.5t-36.5 -135t-8 -181.5t37.5 -225q47 68 84.5 147t57.5 143t33 119t17 85l4 31q7 -1 18.5 -3.5t45 -12.5t63.5 -23.5t67.5 -38t63.5 -54.5q0 -6 -1 -17.5t-7.5 -46t-17 -69 t-33 -82.5t-52.5 -91t-78.5 -89.5t-107 -83t-142 -67t-181.5 -45.5q-58 58 -98.5 127.5t-59.5 135t-28.5 131t-7 119.5t6.5 96t9 65z" />
<glyph unicode="w" horiz-adv-x="1253" d="M170 731q8 6 22 15t59.5 33t92 42.5t113.5 33.5t131 15q-48 -101 -73 -202t-27 -173t2.5 -129t13.5 -86l8 -28q121 121 139 172q-9 49 -15 101.5t-8 80.5l-1 27q12 8 33.5 20.5t89.5 42t137 47.5q-20 -175 -11.5 -288.5t28.5 -167.5l20 -54q157 307 90 605l325 -111 q-15 -320 -130.5 -511t-323.5 -253q-60 26 -107.5 108.5t-70.5 161.5q-83 -92 -168.5 -160.5t-129.5 -90.5l-44 -23q-63 47 -108 114.5t-66 139t-32 146.5t-9.5 140.5t5.5 118t9 82.5z" />
<glyph unicode="x" horiz-adv-x="921" d="M55 84q29 59 63 104t74 77t65.5 48t68.5 39q-23 45 -55 82.5t-61 59t-55 37t-41 21.5l-16 5l320 254q123 -129 123 -467q48 43 81.5 104t47 118t20 107.5t5.5 81.5l-1 31l287 -180q0 -78 -51.5 -161.5t-169.5 -155.5q10 -44 32 -86.5t46.5 -71.5t48 -51.5t38.5 -33.5 l15 -11q-4 -3 -11.5 -9t-35.5 -22.5t-61.5 -32.5t-90 -36.5t-120.5 -36.5q-3 3 -7 8.5t-16.5 31t-24 59t-25.5 95.5t-24 137q-25 9 -48 -6t-48.5 -64t-38.5 -79t-42 -106l-21 -54z" />
<glyph unicode="y" horiz-adv-x="878" d="M160 682q6 6 16.5 15t48.5 33.5t80.5 44t111.5 38t142 23.5q-7 -10 -18.5 -29t-35.5 -83.5t-36.5 -135t-7.5 -181.5t37 -225q38 59 70.5 137.5t51.5 148t32.5 130.5t18.5 97l5 36q22 -8 57.5 -22.5t113.5 -60.5t120 -93q-8 -14 -21 -39.5t-49 -107t-66.5 -165.5 t-62.5 -207t-47 -239q-87 -42 -205 -58.5t-193 -12.5l-75 4q53 33 99.5 82.5t75.5 96.5t51 90t31 69l9 26l-203 -112q-65 63 -104 158.5t-49 186t-11 172.5t6 133z" />
<glyph unicode="z" horiz-adv-x="866" d="M57 12l404 482q-69 -6 -129.5 -20.5t-97 -30t-63 -30.5t-37.5 -25l-11 -9q4 79 23 155.5t43 130t48 96t40 63.5l16 20l6 -6t24 -14.5t47.5 -19t79 -18t115 -15t160.5 -5.5t211 8l-383 -508q58 4 115 20t97.5 36.5t72 40.5t47.5 33l16 14q-76 -289 -76 -422 q-97 22 -211.5 33t-209 10t-175.5 -4.5t-127 -8.5z" />
<glyph unicode="{" horiz-adv-x="638" d="M94 412q46 22 77.5 66.5t49 99t33.5 116t38 121.5t54 111.5t91.5 90.5t142.5 54q25 -57 65 -104t67 -65l27 -19q-149 -92 -222 -194t-128 -263q28 -4 44.5 -29.5t23.5 -63t12.5 -82t15.5 -88.5t28 -80.5t55 -59.5t91 -25q-2 -2 -5.5 -6t-17.5 -14.5t-30.5 -18t-44.5 -14 t-59 -6.5q-58 0 -101.5 22t-69.5 58t-45.5 80.5t-36.5 93t-35.5 91t-49 77.5t-70.5 51z" />
<glyph unicode="|" horiz-adv-x="473" d="M150 -68q15 109 37.5 283t60 559t37.5 590q9 -4 28.5 -11.5t101.5 -24.5t189 -28q-58 -215 -102 -454t-65 -426t-34 -343.5t-15 -241.5l-3 -85q-11 5 -30.5 16.5t-80.5 58.5t-124 107z" />
<glyph unicode="}" horiz-adv-x="638" d="M92 86q149 92 222 194t128 263q-28 4 -44.5 29.5t-23.5 63t-12.5 82t-15.5 88.5t-28 80.5t-55 59.5t-91 25q5 7 16 16.5t52 26t90 16.5q67 0 115 -29.5t72.5 -75t47.5 -102t40.5 -108t51.5 -96t80 -62.5q-46 -22 -77.5 -66.5t-49 -99t-33 -116t-37.5 -121.5t-54.5 -111.5 t-91.5 -90.5t-142 -54q-25 57 -65 104t-67 66z" />
<glyph unicode="~" horiz-adv-x="1032" d="M203 782q5 -6 14 -16t44 -34.5t77 -42t112.5 -28.5t149.5 -4q7 7 19.5 18.5t51.5 41t78.5 52.5t95.5 41.5t107 18.5q56 0 93 -20.5t51 -53.5t18 -73t-3.5 -80t-16.5 -73t-17 -53l-8 -21q-4 4 -12.5 11.5t-41 26t-71 32.5t-105 24t-141.5 8q-6 -6 -17.5 -17t-47.5 -38 t-73 -48t-90 -38t-103 -17q-59 0 -102 13t-66.5 35.5t-37 51t-14 60t3.5 63.5t13 60.5t17.5 51t14.5 35.5z" />
<glyph unicode="&#xa1;" horiz-adv-x="518" d="M70 -78q8 9 22 27.5t52.5 84t71.5 141t67.5 199.5t52.5 259q6 -1 16.5 -5t38 -22t49.5 -43.5t43.5 -75.5t29 -112t-3.5 -158.5t-46 -210.5l-18 -9t-51 -20.5t-82 -25.5t-109 -20t-133 -9zM186 950q4 3 10.5 7.5t28.5 18.5t44.5 24t58.5 24t70 19t78.5 8.5t84.5 -7.5 q25 -81 26 -167.5t-11 -132.5l-11 -46q-68 0 -140 4t-111 8l-38 5z" />
<glyph unicode="&#xa2;" horiz-adv-x="868" d="M100 313q11 104 35 197.5t53 160t61 123t62.5 92t55 61t39.5 35.5l14 11v2q145 -16 268.5 -3t205.5 37l81 24q0 -165 -25.5 -271t-81.5 -194q-17 4 -46 12t-102 40.5t-128 74.5q-106 -181 -109 -344q28 0 139.5 28t209.5 56l98 28v-16.5t-7.5 -42t-22.5 -61t-50 -69 t-83.5 -71.5t-130 -61.5t-183.5 -46.5l-27.5 5.5t-66.5 19.5t-91.5 36t-90.5 56.5t-77 80.5zM326 -281q8 15 22 42t45 108.5t49 161.5q5 1 12.5 1t29 -3t39.5 -10t37.5 -25t29.5 -44.5t8.5 -71t-18.5 -101.5zM481 1341l275 58q-11 -15 -28 -42t-55 -108.5t-57 -161.5 q-5 -1 -13 -1.5t-29.5 1.5t-39.5 8.5t-37 24.5t-29 44t-7.5 72t20.5 105z" />
<glyph unicode="&#xa3;" horiz-adv-x="1044" d="M133 535q57 14 180 28q4 137 30 239.5t67.5 165t102.5 101t125 52.5t144 14q70 0 126.5 -17t90.5 -43.5t59.5 -59t36.5 -65t17.5 -59t7.5 -43.5v-17q-53 5 -97.5 5t-80.5 -3t-65.5 -12t-52.5 -19.5t-42 -28t-33.5 -35t-27 -43t-22 -50t-19.5 -57.5q164 4 270 4l8 -113 l-321 -43q-16 -61 -49 -153q81 0 162.5 13.5t139.5 32.5t104.5 37.5t69.5 31.5l23 14l-159 -437q-111 30 -296.5 36.5t-315.5 -2.5l-130 -9q10 20 26 56t48 139t45 198l-106 -14q-12 49 -28.5 88t-26.5 53z" />
<glyph unicode="&#xa4;" horiz-adv-x="1361" d="M186 856q3 6 8.5 15.5t26 37t44.5 52.5t63.5 55t83.5 51l129 -180q118 71 280 71q128 0 234 -59l135 176l215 -192q-19 -39 -61.5 -86.5t-75.5 -74.5l-33 -28q31 -51 31 -176q0 -80 -22 -152t-44 -104l-22 -33l159 -170q-2 -5 -7 -13t-24 -31.5t-42.5 -45.5t-63.5 -49 t-86 -47l-145 203q-77 -35 -178 -35q-54 0 -95.5 7.5t-55.5 14.5l-15 7l-150 -232l-219 176l158 187q-84 99 -84 258q0 131 43 229zM567 526q-34 -131 62 -200q78 -54 192 -43q113 11 172 79q39 45 39 105q0 58 -48 98t-116.5 51t-152 -11.5t-148.5 -78.5z" />
<glyph unicode="&#xa5;" horiz-adv-x="1128" d="M156 696q70 64 128.5 127t92 108.5t57.5 81.5t32 54l9 18q9 -10 23.5 -29t50.5 -86t61 -142t40 -194.5t3 -246.5q79 72 131.5 173t71.5 193t26.5 173.5t3.5 130.5l-3 49l342 -268q0 -43 -5.5 -84t-27.5 -99.5t-58 -107.5t-105 -99.5t-161 -85.5l-4 -22h234l-45 -143 q-142 0 -205 -2l-23 -205l-512 -78q66 114 103 266q-87 -7 -139.5 -16.5t-62.5 -15.5l-9 -5l-17 199h250v18q0 61 -15.5 112t-40.5 85t-55 60.5t-60 41t-55 24t-40 12.5z" />
<glyph unicode="&#xa6;" horiz-adv-x="516" d="M150 -68q40 290 77 627q4 -3 11 -9t33 -20.5t55.5 -25.5t78 -20t101.5 -9q-24 -186 -39 -367t-18 -270l-3 -88q-6 2 -17.5 6t-46 19.5t-68 34t-79.5 51.5t-85 71zM242 705q43 413 43 659q120 -39 360 -64q-64 -242 -131 -671q-4 3 -12.5 8t-35.5 18.5t-56.5 23.5 t-75.5 18t-92 8z" />
<glyph unicode="&#xa7;" horiz-adv-x="845" d="M102 102q8 -3 22.5 -7t57.5 -14.5t83 -17t92 -9t93 3t77 25t53 52.5q-111 11 -186 23t-143.5 33t-102 54t-33.5 79q0 87 106 141q-59 44 -59 127q0 152 181.5 244t492.5 92l49 -342q-19 5 -55 13.5t-155 23.5t-247 18q28 -40 85.5 -64t117 -35.5t116 -26t92 -46.5 t35.5 -86q0 -102 -151 -152q94 -53 94 -131q0 -46 -30 -87.5t-93.5 -80.5t-178 -67t-267.5 -39q-4 4 -11.5 11t-28 32t-38 54.5t-37.5 77.5t-31 101zM381 410q23 -54 121 -95q61 17 61 72q-115 10 -182 23z" />
<glyph unicode="&#xa8;" horiz-adv-x="1034" d="M121 1290q2 7 5.5 18t18.5 39t34.5 50t55 39.5t78.5 17.5q48 0 82.5 -27t50.5 -65t24.5 -76t9.5 -65l1 -27l-164 -88q-31 0 -62.5 19t-54.5 46t-41.5 54t-28.5 46zM532 1331l211 189q43 -20 75.5 -54t49 -69t26.5 -67t12 -52l3 -21q-3 -4 -8.5 -10t-24 -22t-38.5 -28 t-51 -22t-62 -10q-46 0 -83 17t-57 41.5t-32.5 49t-16.5 41.5z" />
<glyph unicode="&#xa9;" horiz-adv-x="1382" d="M119 266q0 170 48 315t128 245t185.5 170.5t219 103.5t228.5 33q261 0 400.5 -130.5t139.5 -349.5q0 -79 -23.5 -159.5t-64.5 -147t-92 -119.5t-110.5 -82.5t-116.5 -29.5q8 7 21 20.5t46 59t58 95t46 126t21 155.5q0 152 -98 244t-272 92q-272 0 -415.5 -160 t-143.5 -428q0 -182 107.5 -276t305.5 -94q107 0 212 29t171 63q-63 -110 -192 -181t-316 -71q-76 0 -143 13t-133 46.5t-112.5 85.5t-75.5 137t-29 195zM473 238q9 92 34.5 176t55.5 138t59 95t48 59l20 19q129 -12 212 -6.5t122 18.5l39 13q0 -115 -19 -183.5t-59 -138.5 q-92 90 -174 160q-33 -64 -67 -168.5t-35 -161.5q19 0 105.5 26t163.5 52l77 26q-3 -9 -9.5 -24.5t-34 -57t-62.5 -76t-98 -70t-138 -50.5q-93 76 -240 154z" />
<glyph unicode="&#xaa;" horiz-adv-x="739" d="M188 813q0 49 16 104t50 111t80.5 101t115 73.5t146.5 28.5q58 0 94 -25l45 86q57 -23 102 -60t61 -63l17 -26q-14 -49 -39.5 -103.5t-43.5 -83.5l-19 -30q-2 -154 35 -269l-146 -65q-105 25 -124 135q-44 -50 -96.5 -84.5t-88.5 -34.5q-77 0 -141 70t-64 135zM426 772 q3 0 8.5 0.5t22 4.5t33.5 11.5t41.5 24.5t46.5 41q19 140 86 287q-66 -36 -117 -87t-78.5 -102.5t-38.5 -98.5t-4 -81z" />
<glyph unicode="&#xab;" horiz-adv-x="1368" d="M139 610q137 99 264.5 210t186.5 172l59 61q18 -44 46 -82t55 -61.5t51 -40.5t39 -24l14 -7l-426 -256q38 -48 91 -92t101.5 -72t91 -49.5t68.5 -30.5l25 -10q-6 -4 -16.5 -11.5t-45.5 -27.5t-72 -37t-92 -35t-110 -27q-76 91 -158.5 196t-126.5 164zM735 610 q137 99 264.5 210t186.5 172l59 61q18 -44 46 -82t55 -61.5t51 -40.5t39 -24l14 -7l-426 -256q38 -48 91 -92t101.5 -72t91 -49.5t68.5 -30.5l25 -10q-6 -4 -16.5 -11.5t-45.5 -27.5t-72 -37t-92 -35t-110 -27q-76 91 -158.5 196t-126.5 164z" />
<glyph unicode="&#xac;" horiz-adv-x="1122" d="M139 575l64 226q376 0 626.5 1t312.5 2l62 1l-200 -903q-13 3 -35 10.5t-79.5 37.5t-101.5 68q4 7 11.5 20t29.5 64t43 112.5t49 166t52 223.5q-240 0 -448.5 -7t-296.5 -15z" />
<glyph unicode="&#xad;" horiz-adv-x="901" d="M94 293l70 248h797q-10 -53 -78 -219q-106 0 -303 -7t-342 -15z" />
<glyph unicode="&#xae;" horiz-adv-x="1384" d="M121 266q0 170 48 315t128 245t185.5 170.5t219 103.5t228.5 33q261 0 400.5 -130.5t139.5 -349.5q0 -79 -23.5 -159.5t-64.5 -147t-92 -119.5t-110.5 -82.5t-116.5 -29.5q8 7 21 20.5t46 59t58 95t46 126t21 155.5q0 152 -98 244t-272 92q-272 0 -415.5 -160 t-143.5 -428q0 -182 107.5 -276t305.5 -94q107 0 212 29t171 63q-63 -110 -192 -181t-316 -71q-76 0 -143 13t-133 46.5t-112.5 85.5t-75.5 137t-29 195zM510 657q5 5 15 13t44.5 28t72 35.5t97 28t121.5 12.5q8 -2 21.5 -6t50.5 -22t68.5 -42.5t66.5 -71.5t53 -104 q-35 -79 -98 -119.5t-158 -54.5q40 -45 93 -69.5t87 -26.5l33 -2q-2 -4 -6.5 -12t-19.5 -28.5t-32.5 -38.5t-46.5 -37t-61 -29q-19 8 -37 21.5t-34.5 32.5t-28.5 33.5t-27 39.5t-21.5 36t-20 37t-15.5 29l-39 -223q-5 2 -14.5 6.5t-35 19.5t-46.5 30.5t-43.5 39t-32.5 47.5 l62 254zM688 522l14 -106q57 -3 102.5 5t69.5 21t39.5 26.5t20.5 23.5l4 10q-76 20 -250 20z" />
<glyph unicode="&#xaf;" horiz-adv-x="845" d="M23 1260l69 231q10 -4 43 -10t216.5 -16.5t463.5 -10.5l-4 -166z" />
<glyph unicode="&#xb0;" horiz-adv-x="569" d="M184 797q0 120 73.5 202t199.5 82q119 0 181 -63.5t62 -181.5q0 -115 -78.5 -192t-195.5 -77q-57 0 -102 18t-70.5 44.5t-42 59.5t-22 59.5t-5.5 48.5zM346 850q-7 -61 21 -92t75 -31q49 0 73 23.5t24 62.5q0 36 -23 54t-63 18q-67 0 -107 -35z" />
<glyph unicode="&#xb1;" horiz-adv-x="897" d="M84 -4l49 231q292 0 486.5 12t242.5 23l49 12l-57 -217q-156 0 -348.5 -15t-307.5 -30zM166 612q-21 57 39.5 111.5t191.5 64.5l37 185q8 3 21.5 6.5t57.5 14.5t84.5 15.5t102 8t109.5 -5.5l-64 -187l216 9q-18 -154 -84 -218t-226 -61q-32 -90 -59.5 -164t-39.5 -103 l-11 -28q-13 3 -35.5 10t-77.5 37.5t-94 71.5l20 190z" />
<glyph unicode="&#xb2;" horiz-adv-x="671" d="M162 522q287 195 332 306q28 68 -45 81q-14 2 -31 2q-41 0 -80 -11.5t-66 -28t-48.5 -33t-31.5 -28.5l-10 -11q18 77 46.5 138.5t71 110t104 75t137.5 26.5q61 0 105.5 -15t68 -41t33.5 -53.5t10 -58.5q0 -23 -4 -44.5t-14.5 -42.5t-19 -36.5t-28.5 -35.5t-31 -31.5 t-37.5 -31.5t-37.5 -28.5t-41.5 -30t-40.5 -28.5q62 0 126 14t97 28l33 13q-25 -106 -25 -262q-25 6 -71.5 15.5t-196 25.5t-305.5 16z" />
<glyph unicode="&#xb3;" horiz-adv-x="651" d="M154 662q73 -18 137.5 -26.5t112 -7t82 10.5t52 25t17.5 36q0 27 -32.5 40t-71.5 12.5t-73.5 0t-37.5 5.5l176 174q-89 0 -169 -14t-115 -28l-35 -13q7 18 18 48t29 107t18 135q10 -1 28.5 -3.5t78 -6.5t121.5 -6t153.5 0.5t179.5 11.5l-217 -301q7 0 17.5 -2t38.5 -11 t49.5 -22.5t39 -41.5t17.5 -64q0 -40 -11.5 -77.5t-41.5 -77.5t-76.5 -73t-122.5 -61.5t-174 -46.5q-51 40 -98 109.5t-68 118.5z" />
<glyph unicode="&#xb4;" horiz-adv-x="919" d="M186 1233l486 268l63 -270q-16 -6 -42.5 -15.5t-101.5 -27.5t-141 -24t-142 9.5t-122 59.5z" />
<glyph unicode="&#xb5;" horiz-adv-x="948" d="M0 -248q10 18 27 50.5t55 126t61 180.5q-10 105 -7.5 193t14 157.5t24.5 118t23 74.5l10 26q5 3 14 9t43 21t74 26t107.5 20.5t142.5 9.5q-7 -12 -18.5 -34t-40 -91t-49.5 -139.5t-34.5 -171t-7.5 -193.5q7 3 18.5 10.5t45 46t64 93.5t67.5 161.5t63 241.5 q18 -8 49.5 -20t120 -32t166.5 -20q-37 -100 -65.5 -205t-42.5 -184.5t-23.5 -144.5t-11.5 -99l-2 -34q-6 2 -17 7t-41.5 23.5t-58 41t-59 61t-52.5 82.5q-5 -6 -14 -16.5t-38.5 -40t-60.5 -56.5t-78.5 -58t-94.5 -52q7 -49 18.5 -96.5t18.5 -70.5l8 -22h-418z" />
<glyph unicode="&#xb6;" horiz-adv-x="1095" d="M141 489q1 89 21 172t50.5 145.5t67 117.5t73 92.5t66.5 64.5t49 39l19 13q203 -15 355 -138l123 6l-301 -1212q-97 72 -189 174l109 379q-57 -44 -107 -71t-67 -27q-49 29 -95 64.5t-76 66t-53.5 57t-33.5 42.5zM780 -80l269 1104l176 37l-281 -1268q-8 3 -22.5 10 t-57.5 39.5t-84 77.5z" />
<glyph unicode="&#xb7;" horiz-adv-x="479" d="M115 578l241 245q55 -25 97 -69t62.5 -88.5t33.5 -85.5t15 -67l3 -26l-215 -114q-40 0 -79 21t-66.5 51.5t-49 60.5t-31.5 51z" />
<glyph unicode="&#xb8;" horiz-adv-x="1095" d="M225 -201q9 2 23.5 5.5t54.5 17t73 30t67.5 44t51 58.5t10 75t-43.5 92l182 78q-1 -7 -2.5 -18.5t-3.5 -45t-1 -63.5t9 -66.5t22.5 -62t42.5 -41.5t66 -13q0 -69 -87.5 -124.5t-217.5 -55.5q-56 0 -102 9.5t-71.5 22.5t-43 26t-23.5 23z" />
<glyph unicode="&#xb9;" horiz-adv-x="360" d="M190 547q8 158 23.5 296t26.5 197l12 58q122 43 278 61q-62 -231 -96.5 -415t-38.5 -252l-4 -68q-12 3 -32.5 11t-73.5 39.5t-95 72.5z" />
<glyph unicode="&#xba;" horiz-adv-x="659" d="M193 795q1 66 14.5 126.5t34 104.5t45.5 81.5t50 61.5t45.5 41.5t33.5 25.5l12 7q62 -17 135 -45l103 96q70 -30 113.5 -105.5t43.5 -180.5q0 -81 -36.5 -151t-88 -113t-110 -74.5t-101 -44.5t-61.5 -13q-68 35 -126.5 80.5t-82.5 73.5zM451 762q6 1 16.5 3.5t39.5 17 t53.5 36.5t51.5 65t41 99l-88 76q-105 -148 -114 -297z" />
<glyph unicode="&#xbb;" horiz-adv-x="1370" d="M154 365l426 256q-38 48 -91 92t-101.5 72t-91 49t-68.5 30l-25 10q6 4 16.5 11.5t45.5 27.5t72 37t92 35t110 27q76 -91 158 -196t127 -164l44 -60q-137 -99 -264.5 -209.5t-186.5 -171.5l-59 -61q-18 44 -46 82t-54.5 61.5t-50.5 40.5t-39 24zM750 365l426 256 q-38 48 -91 92t-101.5 72t-91 49t-68.5 30l-25 10q6 4 16.5 11.5t45.5 27.5t72 37t92 35t110 27q76 -91 158 -196t127 -164l44 -60q-137 -99 -264.5 -209.5t-186.5 -171.5l-59 -61q-18 44 -46 82t-54.5 61.5t-50.5 40.5t-39 24z" />
<glyph unicode="&#xbc;" horiz-adv-x="1558" d="M193 547q8 158 23 296t26 197l12 58q122 43 278 61q-62 -231 -96.5 -415t-38.5 -252l-4 -68q-12 3 -32 11t-73 39.5t-95 72.5zM358 47q123 279 232.5 538.5t157.5 379.5l49 120q3 -2 8.5 -5.5t26 -12.5t46.5 -13.5t69.5 -9.5t94.5 0l-495 -1148q-2 3 -5.5 8t-19 22 t-35 33.5t-54 41t-75.5 46.5zM823 -20q33 75 55 162t30 157.5t11.5 130.5t2.5 94l-2 33l280 -39q-4 -7 -11.5 -19.5t-27.5 -53.5t-36.5 -83.5t-33 -106t-22.5 -124.5l170 -4q16 114 24 234.5t7 184.5v64q137 -39 237 -98q-4 -73 -16.5 -147.5t-21 -106.5t-29.5 -106l125 14 l-41 -160l-115 10l-35 -170l-231 -47l59 199z" />
<glyph unicode="&#xbd;" horiz-adv-x="1454" d="M190 547q8 158 23.5 296t26.5 197l12 58q122 43 278 61q-62 -231 -96.5 -415t-38.5 -252l-4 -68q-12 3 -32.5 11t-73.5 39.5t-95 72.5zM356 47q123 279 232.5 538.5t157.5 379.5l49 120q3 -2 8.5 -5.5t26 -12.5t46.5 -13.5t69.5 -9.5t94.5 0l-495 -1148q-2 3 -5.5 8 t-19 22t-35 33.5t-54 41t-75.5 46.5zM844 2q287 195 332 306q28 68 -45 81l-31 2q-41 0 -80 -11.5t-66 -28t-48.5 -33t-31.5 -28.5l-10 -11q18 77 46.5 138.5t71 110t104 75t137.5 26.5q61 0 105.5 -15t68 -41t33.5 -53.5t10 -58.5q0 -23 -4 -44.5t-14.5 -42.5t-19 -36.5 t-28.5 -35.5t-31 -31.5t-37.5 -31.5t-37.5 -28.5t-41.5 -30t-40.5 -28.5q62 0 126 14t97 28l33 13q-25 -106 -25 -262q-25 6 -71.5 15.5t-196 25.5t-305.5 16z" />
<glyph unicode="&#xbe;" horiz-adv-x="1851" d="M166 662q73 -18 137.5 -26.5t112 -7t82 10.5t52 25t17.5 36q0 27 -32.5 40t-71.5 12.5t-73.5 0t-37.5 5.5l176 174q-89 0 -169 -14t-115 -28l-35 -13q7 18 18 48t29 107t18 135q10 -1 28.5 -3.5t78 -6.5t122 -6t154 0.5t179.5 11.5l-218 -301q7 0 17.5 -2t38.5 -11 t49.5 -22.5t39 -41.5t17.5 -64q0 -40 -11.5 -77.5t-41.5 -77.5t-76.5 -73t-122.5 -61.5t-174 -46.5q-51 40 -98 109.5t-68 118.5zM641 47q123 279 232.5 538.5t157.5 379.5l48 120q3 -2 8.5 -5.5t26.5 -12.5t47 -13.5t69.5 -9.5t94.5 0l-496 -1148q-5 8 -16 22t-59.5 53.5 t-112.5 75.5zM1116 -20q33 75 55 162t29.5 157.5t11 130.5t2.5 94l-2 33l281 -39q-4 -7 -11.5 -19.5t-27.5 -53.5t-36.5 -83.5t-33 -106t-22.5 -124.5l170 -4q16 114 24 234.5t8 184.5l-1 64q137 -39 237 -98q-4 -73 -16.5 -147.5t-21 -106.5t-29.5 -106l125 14l-41 -160 l-115 10l-35 -170l-231 -47l59 199z" />
<glyph unicode="&#xbf;" horiz-adv-x="925" d="M66 219q5 9 14.5 24t45 60.5t77.5 88.5t113 99t151 101l227 -39q-89 -56 -152.5 -108.5t-91.5 -87.5t-43 -62.5t-15 -40.5l-1 -12q380 21 561 98q-19 -112 -57.5 -216.5t-66.5 -153.5l-29 -48q-25 -7 -68.5 -17t-166 -27t-230.5 -17q-6 3 -17 9t-43 32.5t-62.5 62.5 t-71.5 103.5t-74 150.5zM428 891q4 3 10.5 7.5t28.5 18.5t44.5 24t58.5 24t70 19t78.5 8.5t84.5 -7.5q25 -81 26 -167.5t-11 -132.5l-11 -46q-68 0 -140 4t-111 8l-38 4z" />
<glyph unicode="&#xc0;" horiz-adv-x="1046" d="M47 203q6 5 17.5 18t47 69.5t72 133t88.5 219.5t101 318q50 4 129 11t253.5 33.5t266.5 57.5q-6 -209 -1.5 -364.5t16.5 -260.5t25 -169t22 -91l10 -28q-15 -12 -44.5 -33.5t-129.5 -84t-209 -118.5q3 149 0 285q-120 -21 -285 -13q-24 -68 -80 -249q-8 4 -21 11.5 t-51.5 33t-74 54t-78.5 74t-74 93.5zM415 1129l64 270l487 -217q-101 -46 -194.5 -68.5t-155.5 -21.5t-109.5 8.5t-69.5 17.5zM479 336q43 -2 226 -2q-5 108 -14.5 210t-16.5 150l-6 49q-78 -117 -189 -407z" />
<glyph unicode="&#xc1;" horiz-adv-x="1046" d="M47 203q6 5 17.5 18t47 69.5t72 133t88.5 219.5t101 318q50 4 129 11t253.5 33.5t266.5 57.5q-6 -209 -1.5 -364.5t16.5 -260.5t25 -169t22 -91l10 -28q-15 -12 -44.5 -33.5t-129.5 -84t-209 -118.5q3 149 0 285q-120 -21 -285 -13q-24 -68 -80 -249q-8 4 -21 11.5 t-51.5 33t-74 54t-78.5 74t-74 93.5zM377 1133l485 268l64 -271q-16 -6 -42.5 -15.5t-101.5 -27.5t-141 -23.5t-142 10t-122 59.5zM479 336q43 -2 226 -2q-5 108 -14.5 210t-16.5 150l-6 49q-78 -117 -189 -407z" />
<glyph unicode="&#xc2;" horiz-adv-x="1052" d="M53 203q6 5 17.5 18t47 69.5t72 133t88.5 219.5t101 318q50 4 129 11t253.5 33.5t266.5 57.5q-6 -209 -1.5 -364.5t16.5 -260.5t25 -169t22 -91l10 -28q-15 -12 -44.5 -33.5t-129.5 -84t-209 -118.5q3 149 0 285q-120 -21 -285 -13q-24 -68 -80 -249q-8 4 -21 11.5 t-51.5 33t-74 54t-78.5 74t-74 93.5zM272 934q0 9 1.5 24.5t10.5 61t24 86.5t47 91.5t75 86.5t112 61t154 25q63 0 110.5 -16t73 -41.5t42 -57t20 -62.5t4 -56.5t-2.5 -41.5l-3 -16q-10 7 -29.5 17t-85 26.5t-137.5 16.5q-79 0 -151 -21t-118.5 -51.5t-81 -60.5t-49.5 -51z M485 336q43 -2 226 -2q-5 108 -14.5 210t-16.5 150l-6 49q-78 -117 -189 -407z" />
<glyph unicode="&#xc3;" horiz-adv-x="1046" d="M47 203q6 5 17.5 18t47 69.5t72 133t88.5 219.5t101 318q50 4 129 11t253.5 33.5t266.5 57.5q-6 -209 -1.5 -364.5t16.5 -260.5t25 -169t22 -91l10 -28q-15 -12 -44.5 -33.5t-129.5 -84t-209 -118.5q3 149 0 285q-120 -21 -285 -13q-24 -68 -80 -249q-8 4 -21 11.5 t-51.5 33t-74 54t-78.5 74t-74 93.5zM432 1341q3 -4 10 -11.5t33 -25.5t56.5 -31t82.5 -21t111 -3q5 5 14.5 13.5t38 30.5t58 39t70.5 30.5t79 13.5q57 0 86.5 -28.5t31.5 -69t-4 -81t-17 -69.5l-11 -28q-3 3 -9.5 8.5t-30 19.5t-52 24t-77.5 18t-105 6l-13 -13t-35 -28 t-54 -35.5t-66 -28t-76 -12.5q-55 0 -91.5 15.5t-50.5 40.5t-18.5 55t2 60t14.5 55t15 41zM479 336q43 -2 226 -2q-5 108 -14.5 210t-16.5 150l-6 49q-78 -117 -189 -407z" />
<glyph unicode="&#xc4;" horiz-adv-x="1046" d="M47 203q6 5 17.5 18t47 69.5t72 133t88.5 219.5t101 318q50 4 129 11t253.5 33.5t266.5 57.5q-6 -209 -1.5 -364.5t16.5 -260.5t25 -169t22 -91l10 -28q-15 -12 -44.5 -33.5t-129.5 -84t-209 -118.5q3 149 0 285q-120 -21 -285 -13q-24 -68 -80 -249q-8 4 -21 11.5 t-51.5 33t-74 54t-78.5 74t-74 93.5zM316 1222q2 7 5.5 18t18.5 39t34.5 50t55 39.5t78.5 17.5q48 0 82.5 -27t50.5 -65t24.5 -76t9.5 -65l1 -27l-164 -88q-31 0 -62.5 19t-54.5 46t-41.5 54t-27.5 46zM479 336q43 -2 226 -2q-5 108 -14.5 210t-16.5 150l-6 49 q-78 -117 -189 -407zM727 1263l211 189q43 -20 75.5 -54t49 -69t26.5 -67t13 -52l2 -21q-3 -4 -8.5 -10t-24 -22t-38.5 -28t-51 -22t-62 -10q-46 0 -83 17t-57 41.5t-32.5 49t-16.5 41.5z" />
<glyph unicode="&#xc5;" horiz-adv-x="1046" d="M47 203q6 5 17.5 18t47 69.5t72 133t88.5 219.5t101 318q50 4 129 11t253.5 33.5t266.5 57.5q-6 -209 -1.5 -364.5t16.5 -260.5t25 -169t22 -91l10 -28q-15 -12 -44.5 -33.5t-129.5 -84t-209 -118.5q3 149 0 285q-120 -21 -285 -13q-24 -68 -80 -249q-8 4 -21 11.5 t-51.5 33t-74 54t-78.5 74t-74 93.5zM414 1210q0 92 76.5 156t201.5 64q119 0 185.5 -50t66.5 -139q0 -88 -82 -147.5t-198 -59.5q-57 0 -103 14t-72.5 34t-44 45t-24 45.5t-6.5 37.5zM479 336q43 -2 226 -2q-5 108 -14.5 210t-16.5 150l-6 49q-78 -117 -189 -407zM580 1247 q-10 -49 23 -73.5t89 -24.5t84.5 19t28.5 51q0 55 -100 55q-79 0 -125 -27z" />
<glyph unicode="&#xc6;" horiz-adv-x="1611" d="M51 203q6 5 17.5 18t47 69.5t72 133t88.5 219.5t101 318q355 0 614 26t582 117l137 -459q-9 2 -26.5 5.5t-78 10.5t-129.5 11t-180.5 2.5t-230.5 -10.5q0 -16 3.5 -28t15.5 -28.5t35 -27t61 -22t94 -15t134 -6t181 5.5q0 -2 -0.5 -6.5t-4 -18t-10 -26.5t-20 -30.5 t-31.5 -32.5t-48 -30.5t-66 -26t-88 -17.5t-113 -7q-46 0 -90 7t-65 13l-21 7q-7 -16 -4 -35t22.5 -38.5t45.5 -35t67 -25.5t86 -10q60 0 125.5 10.5t115.5 25.5t91.5 29.5t63.5 25.5l22 10q-8 -63 -51.5 -128.5t-114.5 -122.5t-180.5 -93.5t-233.5 -36.5q-100 0 -180 41 q-99 -71 -200 -123q1 26 5 132.5t3 158.5l-295 8q-16 -44 -38.5 -123.5t-31.5 -107.5q-8 4 -21 11.5t-51.5 33t-74 54t-78.5 74t-74 93.5zM483 336q43 -2 226 -2q-5 108 -14.5 210t-16.5 150l-6 49q-78 -117 -189 -407z" />
<glyph unicode="&#xc7;" horiz-adv-x="983" d="M88 168q0 145 60 320t161.5 321t210.5 203q70 0 156 -8q114 5 225 20.5t165 27.5l54 13q-9 -30 -24 -83.5t-50 -205t-57 -287.5q-4 2 -10.5 5t-28 14t-43 23.5t-52 32.5t-58.5 40.5t-60 48.5t-59 56q-159 -232 -191 -508l545 145q0 -7 -2 -19.5t-16 -49t-36.5 -71.5 t-70.5 -81t-112 -83q3 -33 11.5 -59.5t24 -49.5t41.5 -35t60 -9q0 -69 -87.5 -124.5t-217.5 -55.5q-56 0 -102 9.5t-71.5 22.5t-43 26t-23.5 23l-6 9q10 2 26.5 6t61 20t80 35t68.5 51t42 68q-105 -39 -235 -61q-10 3 -26 9.5t-62 29t-86.5 49t-86.5 70.5t-75 92z" />
<glyph unicode="&#xc8;" d="M96 199q5 15 15.5 40.5t51.5 96t93 129.5l-9 9t-21 25t-26 38.5t-20.5 47.5t-9.5 54q0 215 221 340t608 125l138 -459q-9 2 -26.5 5.5t-78 10.5t-129.5 11t-180.5 2.5t-230.5 -10.5q0 -16 3.5 -28t15.5 -28.5t35 -27t61 -22t94 -15t134 -6t181 5.5q0 -4 -2 -11 t-11.5 -27.5t-24.5 -38.5t-46 -40.5t-71 -39t-104 -27.5t-141 -11q-60 0 -110 6l-23 -108q7 -10 99 -10q117 0 245 24t197 48l70 24q-8 -63 -51.5 -128.5t-114.5 -122.5t-180.5 -93.5t-233.5 -36.5q-82 0 -158.5 26.5t-128.5 65.5t-86.5 80.5t-44.5 75.5zM334 1180l64 270 l487 -217q-101 -46 -194.5 -68.5t-155.5 -21.5t-109.5 8.5t-69.5 18.5z" />
<glyph unicode="&#xc9;" d="M96 199q5 15 15.5 40.5t51.5 96t93 129.5l-9 9t-21 25t-26 38.5t-20.5 47.5t-9.5 54q0 215 221 340t608 125l138 -459q-9 2 -26.5 5.5t-78 10.5t-129.5 11t-180.5 2.5t-230.5 -10.5q0 -16 3.5 -28t15.5 -28.5t35 -27t61 -22t94 -15t134 -6t181 5.5q0 -4 -2 -11 t-11.5 -27.5t-24.5 -38.5t-46 -40.5t-71 -39t-104 -27.5t-141 -11q-60 0 -110 6l-23 -108q7 -10 99 -10q117 0 245 24t197 48l70 24q-8 -63 -51.5 -128.5t-114.5 -122.5t-180.5 -93.5t-233.5 -36.5q-82 0 -158.5 26.5t-128.5 65.5t-86.5 80.5t-44.5 75.5zM354 1204l486 268 l63 -270q-16 -6 -42.5 -15.5t-101.5 -27.5t-141 -24t-142 9.5t-122 59.5z" />
<glyph unicode="&#xca;" d="M96 199q5 15 15.5 40.5t51.5 96t93 129.5l-9 9t-21 25t-26 38.5t-20.5 47.5t-9.5 54q0 215 221 340t608 125l138 -459q-9 2 -26.5 5.5t-78 10.5t-129.5 11t-180.5 2.5t-230.5 -10.5q0 -16 3.5 -28t15.5 -28.5t35 -27t61 -22t94 -15t134 -6t181 5.5q0 -4 -2 -11 t-11.5 -27.5t-24.5 -38.5t-46 -40.5t-71 -39t-104 -27.5t-141 -11q-60 0 -110 6l-23 -108q7 -10 99 -10q117 0 245 24t197 48l70 24q-8 -63 -51.5 -128.5t-114.5 -122.5t-180.5 -93.5t-233.5 -36.5q-82 0 -158.5 26.5t-128.5 65.5t-86.5 80.5t-44.5 75.5zM315 1030q0 7 1 20 t8.5 50t20 71t38.5 75t61 70.5t92 50t126 20.5q52 0 91 -13t60 -34t34 -46.5t16 -51t3.5 -46.5t-2.5 -34l-2 -13q-8 5 -24 13.5t-70 22t-113 13.5q-65 0 -123.5 -17.5t-96.5 -42t-66.5 -49t-40.5 -41.5z" />
<glyph unicode="&#xcb;" d="M96 199q5 15 15.5 40.5t51.5 96t93 129.5l-9 9t-21 25t-26 38.5t-20.5 47.5t-9.5 54q0 215 221 340t608 125l138 -459q-9 2 -26.5 5.5t-78 10.5t-129.5 11t-180.5 2.5t-230.5 -10.5q0 -16 3.5 -28t15.5 -28.5t35 -27t61 -22t94 -15t134 -6t181 5.5q0 -4 -2 -11 t-11.5 -27.5t-24.5 -38.5t-46 -40.5t-71 -39t-104 -27.5t-141 -11q-60 0 -110 6l-23 -108q7 -10 99 -10q117 0 245 24t197 48l70 24q-8 -63 -51.5 -128.5t-114.5 -122.5t-180.5 -93.5t-233.5 -36.5q-82 0 -158.5 26.5t-128.5 65.5t-86.5 80.5t-44.5 75.5zM215 1284 q2 7 5.5 18t19 39t35 50t55 39.5t78.5 17.5q48 0 82.5 -27t50 -65t24.5 -76t9 -65l1 -27l-163 -88q-31 0 -63 19t-55 46t-41.5 54t-28.5 46zM627 1325l211 188q43 -20 75.5 -54t49 -69t26.5 -67t13 -52l2 -20q-3 -4 -8.5 -10t-24.5 -22t-39 -28t-51 -22t-62 -10 q-46 0 -83 17t-56.5 41.5t-32.5 49t-17 41.5z" />
<glyph unicode="&#xcc;" horiz-adv-x="512" d="M137 90q12 234 42.5 476t55.5 368l25 125q141 -39 381 -64q-92 -341 -143.5 -613t-57.5 -373l-6 -101q-6 2 -17.5 6t-46 19.5t-68.5 34t-80 51.5t-85 71zM182 1149l64 270l487 -217q-101 -46 -194.5 -68.5t-155.5 -21.5t-109.5 8.5t-69.5 17.5z" />
<glyph unicode="&#xcd;" horiz-adv-x="512" d="M137 90q12 234 42.5 476t55.5 368l25 125q141 -39 381 -64q-92 -341 -143.5 -613t-57.5 -373l-6 -101q-6 2 -17.5 6t-46 19.5t-68.5 34t-80 51.5t-85 71zM141 1184l486 268l63 -270q-16 -6 -42.5 -15.5t-101.5 -27.5t-141 -24t-142 9.5t-122 59.5z" />
<glyph unicode="&#xce;" horiz-adv-x="555" d="M180 90q12 234 42.5 476t55.5 368l25 125q141 -39 381 -64q-58 -215 -100.5 -406t-62 -310t-31 -207.5t-12.5 -125.5l-1 -38q-6 2 -17.5 6t-46 19.5t-68.5 34t-80 51.5t-85 71zM182 1051q0 7 1 20t8.5 50t19.5 70.5t38.5 74.5t61 70.5t91.5 50t126 20.5q52 0 91 -13 t60 -34t34.5 -46.5t16.5 -51t3.5 -46.5t-1.5 -34l-3 -13q-8 6 -24 14t-70 22t-113 14q-65 0 -123.5 -17.5t-96.5 -42t-66.5 -49t-41.5 -42.5z" />
<glyph unicode="&#xcf;" horiz-adv-x="557" d="M49 1260q2 7 5.5 18t19 39t35 49.5t55 39t78.5 17.5q48 0 82.5 -27t50.5 -65t24.5 -76t9.5 -65l1 -27l-164 -88q-31 0 -63 19t-55 46t-41.5 54.5t-28.5 46.5zM182 90q12 234 42.5 476t55.5 368l25 125q141 -39 381 -64q-92 -341 -143.5 -613t-57.5 -373l-6 -101 q-6 2 -17.5 6t-46 19.5t-68.5 34t-80 51.5t-85 71zM461 1300l211 189q43 -20 75.5 -54t49 -69t26.5 -67t13 -52l2 -20q-3 -4 -8.5 -10t-24.5 -22t-39 -28t-51 -22t-62 -10q-46 0 -83 17t-56.5 41.5t-32.5 48.5t-17 41z" />
<glyph unicode="&#xd0;" horiz-adv-x="1110" d="M80 496q69 10 192 20l68 156q-49 -7 -94 -15.5t-66 -12.5l-20 -5q4 22 11 58.5t35 126t62 151.5q7 5 22 12.5t69 26.5t117.5 34t169.5 27t224 12q11 -7 29.5 -21t67.5 -61t90.5 -98.5t83 -131.5t59.5 -163q-1 -9 -4 -23.5t-17.5 -60t-34.5 -88.5t-58.5 -101t-86 -106.5 t-120.5 -95.5t-159 -77t-204.5 -43t-253.5 -1l-94 166q0 49 47 185l-55 -7zM543 219q85 46 152 110.5t102.5 124.5t59 113t29.5 85l7 32q-93 10 -215 10l-41 -162q55 3 117 3l-41 -107l-111 -14z" />
<glyph unicode="&#xd1;" horiz-adv-x="1122" d="M96 139q14 125 39 253t51 221t50 168.5t40 114.5l15 38q155 57 366 84l125 -666q41 230 57.5 423.5t12.5 272.5l-4 78q219 -96 373 -131q-24 -255 -70.5 -499t-80.5 -361l-34 -117q-70 0 -156 -16.5t-137 -32.5l-51 -16l-172 618q-59 -224 -127 -622q-22 8 -57.5 22.5 t-115.5 64t-124 103.5zM399 1378q3 -4 10 -11.5t33 -25.5t56.5 -31t82.5 -21t111 -3q5 5 14.5 13.5t38 30.5t58 39t70.5 30.5t79 13.5q57 0 86.5 -28.5t31.5 -69t-4 -81t-17 -68.5l-11 -29q-3 3 -9.5 8.5t-30 19t-52 24t-77.5 18t-105 5.5q-5 -5 -13 -12.5t-35 -27.5 t-54 -35.5t-66 -28t-76 -12.5q-55 0 -91.5 15.5t-50.5 40.5t-18.5 55t2 60t14.5 55t16 40z" />
<glyph unicode="&#xd2;" d="M115 227q0 135 21.5 248.5t56 187t76 131t82.5 87.5t75.5 49.5t55.5 25.5l22 5q67 -76 203 -97l211 164q8 -3 20.5 -10t45.5 -37.5t58 -70.5t45.5 -113.5t20.5 -161.5q0 -93 -20 -177t-53.5 -147.5t-77 -119t-91.5 -94.5t-96 -71t-91.5 -51.5t-77 -32.5t-53.5 -18l-20 -6 q-89 25 -164.5 65.5t-119.5 81.5t-75 78t-43 61zM360 1045l64 270l487 -217q-101 -46 -194.5 -68.5t-155.5 -21.5t-109.5 8.5t-69.5 17.5zM526 170q40 0 91 37t96 106t59.5 168t-18.5 224q-228 -249 -228 -535z" />
<glyph unicode="&#xd3;" d="M115 227q0 135 21.5 248.5t56 187t76 131t82.5 87.5t75.5 49.5t55.5 25.5l22 5q67 -76 203 -97l211 164q8 -3 20.5 -10t45.5 -37.5t58 -70.5t45.5 -113.5t20.5 -161.5q0 -93 -20 -177t-53.5 -147.5t-77 -119t-91.5 -94.5t-96 -71t-91.5 -51.5t-77 -32.5t-53.5 -18l-20 -6 q-89 25 -164.5 65.5t-119.5 81.5t-75 78t-43 61zM328 1085l485 269l64 -271q-16 -6 -42.5 -15.5t-101.5 -27.5t-141 -24t-142 9.5t-122 59.5zM526 170q40 0 91 37t96 106t59.5 168t-18.5 224q-228 -249 -228 -535z" />
<glyph unicode="&#xd4;" d="M115 227q0 135 21.5 248.5t56 187t76 131t82.5 87.5t75.5 49.5t55.5 25.5l22 5q67 -76 203 -97l211 164q8 -3 20.5 -10t45.5 -37.5t58 -70.5t45.5 -113.5t20.5 -161.5q0 -93 -20 -177t-53.5 -147.5t-77 -119t-91.5 -94.5t-96 -71t-91.5 -51.5t-77 -32.5t-53.5 -18l-20 -6 q-89 25 -164.5 65.5t-119.5 81.5t-75 78t-43 61zM346 977q0 7 1 20t8.5 50t19.5 70.5t38.5 74.5t61 70.5t91.5 50t126 20.5q52 0 91 -13t60 -34t34.5 -46.5t16.5 -50.5t3.5 -46t-1.5 -34l-3 -13q-8 5 -24 13.5t-70 22t-113 13.5q-65 0 -123.5 -17.5t-96.5 -42t-66.5 -49 t-41.5 -42.5zM526 170q40 0 91 37t96 106t59.5 168t-18.5 224q-228 -249 -228 -535z" />
<glyph unicode="&#xd5;" d="M115 227q0 135 21.5 248.5t56 187t76 131t82.5 87.5t75.5 49.5t55.5 25.5l22 5q67 -76 203 -97l211 164q8 -3 20.5 -10t45.5 -37.5t58 -70.5t45.5 -113.5t20.5 -161.5q0 -93 -20 -177t-53.5 -147.5t-77 -119t-91.5 -94.5t-96 -71t-91.5 -51.5t-77 -32.5t-53.5 -18l-20 -6 q-89 25 -164.5 65.5t-119.5 81.5t-75 78t-43 61zM361 1291q3 -5 10 -12t32.5 -25.5t56 -31t82.5 -21t111 -3.5q5 5 14.5 13.5t38.5 30.5t58 39t70.5 30.5t79.5 13.5q57 0 86.5 -28.5t31.5 -69t-4 -81t-17 -68.5l-11 -29q-3 3 -9.5 8.5t-30 19.5t-52.5 24t-78 18t-105 6 l-13 -13t-35 -28t-54 -35.5t-66 -28t-76 -12.5q-55 0 -91.5 15.5t-50.5 40.5t-18.5 55.5t2.5 60.5t15 55t16 41zM526 170q40 0 91 37t96 106t59.5 168t-18.5 224q-228 -249 -228 -535z" />
<glyph unicode="&#xd6;" d="M115 227q0 135 21.5 248.5t56 187t76 131t82.5 87.5t75.5 49.5t55.5 25.5l22 5q67 -76 203 -97l211 164q8 -3 20.5 -10t45.5 -37.5t58 -70.5t45.5 -113.5t20.5 -161.5q0 -93 -20 -177t-53.5 -147.5t-77 -119t-91.5 -94.5t-96 -71t-91.5 -51.5t-77 -32.5t-53.5 -18l-20 -6 q-89 25 -164.5 65.5t-119.5 81.5t-75 78t-43 61zM276 1178q2 7 5.5 18t19 39t35 49.5t55 39t78.5 17.5q48 0 82.5 -27t50.5 -65t24.5 -76t9.5 -65l1 -27l-164 -88q-31 0 -63 19t-55 46t-41.5 54.5t-27.5 46.5zM526 170q40 0 91 37t96 106t59.5 168t-18.5 224 q-228 -249 -228 -535zM688 1219l211 188q43 -20 75.5 -54t49 -69t26.5 -67t12 -52l3 -20q-3 -4 -8.5 -10t-24 -22t-38.5 -28t-51 -22t-62 -10q-46 0 -83 17t-57 41.5t-32.5 49t-16.5 41.5z" />
<glyph unicode="&#xd7;" horiz-adv-x="1015" d="M109 104l305 283l-275 211l250 252q29 -79 82 -161t91 -125l38 -42l217 307l219 -227l-274 -227l260 -223l-272 -263q-16 68 -39 131t-45 104t-41 73t-31 47l-12 14l-215 -319z" />
<glyph unicode="&#xd8;" d="M115 227q0 135 21.5 248.5t56 187t76 131t82.5 87.5t75.5 49.5t55.5 25.5l22 5q37 -43 90 -64q60 240 84 381q59 -18 107.5 -49.5t67.5 -53.5l19 -22l-90 -231l136 106q8 -3 20.5 -10t45.5 -37.5t58 -70.5t45.5 -113.5t20.5 -161.5q0 -93 -20 -177t-53.5 -147.5t-77 -119 t-91.5 -94.5t-96 -71t-91.5 -51.5t-77 -32.5t-53.5 -18l-20 -6l-47 14q-9 -57 -11 -110.5t0 -77.5l3 -25q-5 0 -13.5 1.5t-34 9t-50.5 19t-57.5 34.5t-59.5 53l45 184q-64 45 -111 97t-62 81zM526 170q40 0 91 37t96 106t59.5 168t-18.5 224q-228 -249 -228 -535z" />
<glyph unicode="&#xd9;" horiz-adv-x="1079" d="M121 23q2 11 -1 39.5t4.5 113.5t18.5 180t42 240t75 293q9 5 26 13t69.5 28.5t105.5 36.5t128 29.5t144 15.5q-8 -14 -22 -40t-51 -109t-67.5 -167.5t-61 -207.5t-42.5 -238l209 74q2 109 13.5 206.5t27 159t30.5 107.5t25 66l11 20q18 -7 50 -17.5t132 -27.5t201 -17 q-56 -154 -93 -295t-49.5 -232t-17 -160t-1.5 -100l3 -30q-5 -1 -13.5 -2t-34.5 -1.5t-51 2t-57.5 11t-59 23t-51 41.5t-38.5 63q-64 -66 -173.5 -100.5t-225.5 -34.5q-60 0 -111.5 4t-72.5 8zM418 1090l63 270l488 -217q-101 -46 -194.5 -68.5t-155.5 -21.5t-109.5 8.5 t-69.5 18.5z" />
<glyph unicode="&#xda;" horiz-adv-x="1079" d="M121 23q2 11 -1 39.5t4.5 113.5t18.5 180t42 240t75 293q9 5 26 13t69.5 28.5t105.5 36.5t128 29.5t144 15.5q-8 -14 -22 -40t-51 -109t-67.5 -167.5t-61 -207.5t-42.5 -238l209 74q2 109 13.5 206.5t27 159t30.5 107.5t25 66l11 20q18 -7 50 -17.5t132 -27.5t201 -17 q-56 -154 -93 -295t-49.5 -232t-17 -160t-1.5 -100l3 -30q-5 -1 -13.5 -2t-34.5 -1.5t-51 2t-57.5 11t-59 23t-51 41.5t-38.5 63q-64 -66 -173.5 -100.5t-225.5 -34.5q-60 0 -111.5 4t-72.5 8zM469 1145l486 268l63 -270q-16 -6 -42.5 -15.5t-101.5 -27.5t-141 -24t-142 9.5 t-122 59.5z" />
<glyph unicode="&#xdb;" horiz-adv-x="1077" d="M119 23q2 11 -1 39.5t4.5 113.5t18.5 180t42 240t75 293q9 5 26 13t69.5 28.5t105.5 36.5t128 29.5t144 15.5q-8 -14 -22 -40t-51 -109t-67.5 -167.5t-61 -207.5t-42.5 -238l209 74q2 109 13.5 206.5t27 159t30.5 107.5t25 66l11 20q18 -7 50 -17.5t132 -27.5t201 -17 q-56 -154 -93 -295t-49.5 -232t-17 -160t-1.5 -100l3 -30q-5 -1 -13.5 -2t-34.5 -1.5t-51 2t-57.5 11t-59 23t-51 41.5t-38.5 63q-64 -66 -173.5 -100.5t-225.5 -34.5q-60 0 -111 4t-73 8zM315 971q0 7 1 20t8.5 50t20 70.5t38.5 74.5t61 70.5t92 50t126 20.5q52 0 91 -13 t60 -34t34 -46.5t16 -50.5t3.5 -46t-2.5 -34l-2 -13q-8 5 -24 13.5t-70 22t-113 13.5q-65 0 -123.5 -17.5t-96.5 -42t-66.5 -49t-40.5 -42.5z" />
<glyph unicode="&#xdc;" horiz-adv-x="1079" d="M121 23q2 11 -1 39.5t4.5 113.5t18.5 180t42 240t75 293q9 5 26 13t69.5 28.5t105.5 36.5t128 29.5t144 15.5q-8 -14 -22 -40t-51 -109t-67.5 -167.5t-61 -207.5t-42.5 -238l209 74q2 109 13.5 206.5t27 159t30.5 107.5t25 66l11 20q18 -7 50 -17.5t132 -27.5t201 -17 q-56 -154 -93 -295t-49.5 -232t-17 -160t-1.5 -100l3 -30q-5 -1 -13.5 -2t-34.5 -1.5t-51 2t-57.5 11t-59 23t-51 41.5t-38.5 63q-64 -66 -173.5 -100.5t-225.5 -34.5q-60 0 -111.5 4t-72.5 8zM277 1229q2 7 5.5 18t18.5 39t34.5 50t55 39.5t78.5 17.5q48 0 82.5 -27 t50.5 -65t24.5 -76t9.5 -65l1 -27l-164 -88q-31 0 -62.5 19t-54.5 46t-41.5 54t-28.5 46zM688 1270l211 189q43 -20 75.5 -54t49 -69t26.5 -67t12 -53l3 -20q-3 -4 -8.5 -10t-24 -22t-38.5 -28t-51 -22t-62 -10q-46 0 -83 17t-57 41.5t-32.5 49t-16.5 41.5z" />
<glyph unicode="&#xdd;" horiz-adv-x="1017" d="M72 696q70 64 128.5 127t92 108.5t57.5 81.5t32 54l9 18q9 -10 23.5 -29t50.5 -86t61 -142t40 -194.5t3 -246.5q79 72 131.5 173t71.5 193t26.5 173.5t3.5 130.5l-3 49l342 -268q0 -43 -5.5 -84t-27.5 -99.5t-58 -107.5t-105 -99.5t-161 -85.5l-43 -372l-512 -78 q5 9 13.5 24.5t30 64.5t38 98.5t30 121t13.5 137.5q0 61 -15.5 112t-40.5 85t-55 60.5t-60 41t-55 24t-40 12.5zM391 1208l486 268l63 -270q-16 -6 -42.5 -15.5t-101.5 -27.5t-141 -24t-142 9.5t-122 59.5z" />
<glyph unicode="&#xde;" horiz-adv-x="1069" d="M82 33l121 467q-16 44 -28.5 94t-16.5 78l-4 28q42 29 118 66l72 276l463 82q-45 -88 -100 -233q90 8 143 8q10 -5 27 -14.5t64 -45t87.5 -77.5t85.5 -113t70 -151q-53 -192 -239.5 -305.5t-481.5 -126.5l-57 -267q-19 10 -51.5 29t-118.5 80t-154 125zM508 250h6 q61 0 114 13t89.5 33.5t67 45t48.5 49.5t30.5 45.5t16.5 33.5l5 13q-1 2 -2.5 6t-10.5 14.5t-21 19.5t-35.5 18.5t-52.5 14.5t-73.5 4t-97.5 -9q-65 -223 -84 -301z" />
<glyph unicode="&#xdf;" horiz-adv-x="935" d="M45 39q38 152 98.5 359.5t86.5 315t18 154.5l32 16t80.5 36t118 46t131.5 36t133 16l218 -168q-10 -73 -37 -140t-58 -111t-60.5 -77.5t-49.5 -49.5l-19 -15h13t32 -2.5t45.5 -7.5t47.5 -16.5t45 -27t32 -41.5t13 -59q0 -52 -21 -101t-55 -85t-75.5 -67.5t-82.5 -52.5 t-75 -36t-55 -22l-21 -7q-51 30 -99.5 79t-70.5 83l-23 33q290 60 323 158q10 29 -3 49q-223 -29 -246 -35q14 12 78 133q139 263 117 337q-7 24 -33 24h-70q-53 -112 -98.5 -248t-72 -250t-45.5 -212t-27 -154l-7 -56q-19 7 -49 20.5t-99 57t-110 88.5z" />
<glyph unicode="&#xe0;" horiz-adv-x="913" d="M88 231q0 60 19.5 128.5t61.5 137.5t100 125t142.5 91t180.5 35q72 0 117 -31l53 106q45 -17 84.5 -42.5t63.5 -49t42 -45t26 -34.5l7 -13q-16 -61 -47.5 -127.5t-54.5 -102.5l-23 -36q0 -21 0.5 -57t10.5 -124t30 -151l-178 -82q-130 32 -156 168q-53 -62 -117 -104.5 t-108 -42.5q-64 0 -124.5 42.5t-95 100.5t-34.5 108zM344 881l64 270l487 -217q-101 -46 -194.5 -68.5t-155.5 -21.5t-109.5 8.5t-69.5 17.5zM381 182q10 0 27.5 2.5t66 28t92.5 70.5q23 161 107 354q-106 -59 -179.5 -148.5t-99.5 -169t-14 -137.5z" />
<glyph unicode="&#xe1;" horiz-adv-x="913" d="M88 231q0 60 19.5 128.5t61.5 137.5t100 125t142.5 91t180.5 35q72 0 117 -31l53 106q45 -17 84.5 -42.5t63.5 -49t42 -45t26 -34.5l7 -13q-16 -61 -47.5 -127.5t-54.5 -102.5l-23 -36q0 -21 0.5 -57t10.5 -124t30 -151l-178 -82q-130 32 -156 168q-53 -62 -117 -104.5 t-108 -42.5q-64 0 -124.5 42.5t-95 100.5t-34.5 108zM354 918l486 268l63 -270q-16 -6 -42.5 -15.5t-101.5 -27.5t-141 -24t-142 9.5t-122 59.5zM381 182q10 0 27.5 2.5t66 28t92.5 70.5q23 161 107 354q-106 -59 -179.5 -148.5t-99.5 -169t-14 -137.5z" />
<glyph unicode="&#xe2;" horiz-adv-x="913" d="M88 231q0 60 19.5 128.5t61.5 137.5t100 125t142.5 91t180.5 35q72 0 117 -31l53 106q45 -17 84.5 -42.5t63.5 -49t42 -45t26 -34.5l7 -13q-16 -61 -47.5 -127.5t-54.5 -102.5l-23 -36q0 -21 0.5 -57t10.5 -124t30 -151l-178 -82q-130 32 -156 168q-53 -62 -117 -104.5 t-108 -42.5q-64 0 -124.5 42.5t-95 100.5t-34.5 108zM340 747q0 7 1 20t8.5 50t20 71t38.5 75t61 70.5t92 50t126 20.5q52 0 91 -13t60 -34t34 -46.5t16 -51t3.5 -46.5t-1.5 -34l-3 -13q-8 5 -24 13.5t-70 22t-113 13.5q-65 0 -123.5 -17.5t-96.5 -42t-66.5 -49t-41.5 -42.5 zM381 182q10 0 27.5 2.5t66 28t92.5 70.5q23 161 107 354q-106 -59 -179.5 -148.5t-99.5 -169t-14 -137.5z" />
<glyph unicode="&#xe3;" horiz-adv-x="913" d="M88 231q0 60 19.5 128.5t61.5 137.5t100 125t142.5 91t180.5 35q72 0 117 -31l53 106q45 -17 84.5 -42.5t63.5 -49t42 -45t26 -34.5l7 -13q-16 -61 -47.5 -127.5t-54.5 -102.5l-23 -36q0 -21 0.5 -57t10.5 -124t30 -151l-178 -82q-130 32 -156 168q-53 -62 -117 -104.5 t-108 -42.5q-64 0 -124.5 42.5t-95 100.5t-34.5 108zM275 1094q3 -5 10 -12t32.5 -25.5t56 -31t82.5 -21t111 -3.5q5 5 14.5 13.5t38.5 30.5t58 39t70.5 30.5t79.5 13.5q57 0 86.5 -28.5t31.5 -69t-4 -81t-17 -69.5l-11 -28q-3 3 -9.5 8.5t-30 19.5t-52.5 24t-78 18t-105 6 l-13 -13t-35 -28t-54 -35.5t-66 -28t-76 -12.5q-55 0 -91.5 15.5t-50.5 40.5t-18.5 55t2.5 60.5t15 55.5t16 40zM381 182q10 0 27.5 2.5t66 28t92.5 70.5q23 161 107 354q-106 -59 -179.5 -148.5t-99.5 -169t-14 -137.5z" />
<glyph unicode="&#xe4;" horiz-adv-x="913" d="M88 231q0 60 19.5 128.5t61.5 137.5t100 125t142.5 91t180.5 35q72 0 117 -31l53 106q45 -17 84.5 -42.5t63.5 -49t42 -45t26 -34.5l7 -13q-16 -61 -47.5 -127.5t-54.5 -102.5l-23 -36q0 -21 0.5 -57t10.5 -124t30 -151l-178 -82q-130 32 -156 168q-53 -62 -117 -104.5 t-108 -42.5q-64 0 -124.5 42.5t-95 100.5t-34.5 108zM219 1001q2 7 5.5 18t19 39t35 50t55 39.5t78.5 17.5q48 0 82.5 -27t50.5 -65t24.5 -76t9.5 -65l1 -27l-164 -88q-31 0 -63 19t-55 46t-41.5 54t-28.5 46zM381 182q10 0 27.5 2.5t66 28t92.5 70.5q23 161 107 354 q-106 -59 -179.5 -148.5t-99.5 -169t-14 -137.5zM631 1042l211 189q43 -20 75.5 -54t49 -69t26.5 -67t13 -52l2 -20q-3 -4 -8.5 -10t-24.5 -22t-39 -28t-51 -22t-62 -10q-46 0 -83 17t-56.5 41.5t-32.5 48.5t-17 41z" />
<glyph unicode="&#xe5;" horiz-adv-x="913" d="M88 231q0 60 19.5 128.5t61.5 137.5t100 125t142.5 91t180.5 35q72 0 117 -31l53 106q45 -17 84.5 -42.5t63.5 -49t42 -45t26 -34.5l7 -13q-16 -61 -47.5 -127.5t-54.5 -102.5l-23 -36q0 -21 0.5 -57t10.5 -124t30 -151l-178 -82q-130 32 -156 168q-53 -62 -117 -104.5 t-108 -42.5q-64 0 -124.5 42.5t-95 100.5t-34.5 108zM303 987q0 92 77 155.5t202 63.5q119 0 185.5 -49.5t66.5 -138.5q0 -88 -82.5 -147.5t-198.5 -59.5q-57 0 -103 14t-72.5 34t-44 45t-24 45.5t-6.5 37.5zM381 182q10 0 27.5 2.5t66 28t92.5 70.5q23 161 107 354 q-106 -59 -179.5 -148.5t-99.5 -169t-14 -137.5zM469 1024q-10 -49 23.5 -73.5t89.5 -24.5q112 0 112 69q0 56 -100 56q-79 0 -125 -27z" />
<glyph unicode="&#xe6;" horiz-adv-x="1300" d="M88 231q0 60 19.5 128.5t61.5 137.5t100 125t142.5 91t180.5 35q72 0 117 -31l53 106q105 -43 174 -116q65 16 126 39t90 38l28 15q48 -27 83.5 -67.5t53 -79t27.5 -72.5t12 -55l2 -21q-29 -67 -83.5 -120t-121 -85.5t-134.5 -50.5t-136 -23l-13 -65q93 -7 201.5 19 t170.5 55l63 30q10 -45 -4.5 -93t-54 -96.5t-119 -89.5t-189.5 -63q-10 1 -27.5 4.5t-66.5 17t-93.5 31.5t-97 51.5t-88.5 73.5q-53 -49 -121 -84.5t-102 -35.5q-64 0 -124.5 42.5t-95 100.5t-34.5 108zM381 182q10 0 27.5 2.5t66 28t92.5 70.5q23 161 107 354 q-106 -59 -179.5 -148.5t-99.5 -169t-14 -137.5zM883 317q84 13 141 84q47 59 36 105q-13 53 -104 35q-14 -52 -73 -224z" />
<glyph unicode="&#xe7;" horiz-adv-x="806" d="M70 123q10 97 32.5 184t49.5 149t57 115t58.5 86.5t51 57t36.5 33.5l14 10q81 -37 164 -45t144 7t110 35.5t75 38.5l25 19q8 -155 -17.5 -250.5t-83.5 -183.5q-18 5 -48 15t-103.5 44.5t-124.5 73.5q-78 -134 -82 -336q26 0 124.5 29t183.5 57l85 29q0 -6 -0.5 -17 t-10.5 -44t-27.5 -64t-57.5 -71.5t-96 -72.5q24 -141 135 -133q0 -69 -87.5 -124.5t-217.5 -55.5q-56 0 -102 9.5t-71.5 22.5t-43 26t-23.5 23l-6 9q5 1 13 3t32 9t46.5 15t51.5 22t52.5 29.5t44.5 37t32 45.5q-41 -13 -86 -23q-9 2 -25.5 5.5t-62 18.5t-85 34t-84.5 53 t-72 75z" />
<glyph unicode="&#xe8;" horiz-adv-x="827" d="M74 125q6 83 27.5 170.5t47.5 152.5t51 118.5t42 81.5l16 28q115 5 227 36t167 59l55 28q48 -27 83.5 -67.5t53 -79t27.5 -72.5t12 -55l2 -21q-29 -67 -83.5 -120t-121 -85.5t-134.5 -50.5t-136 -23q-2 -9 -4.5 -20.5t-8.5 -44.5q59 -4 125 5t118.5 25t97 32.5t68.5 29.5 l25 12q10 -45 -4 -93t-53.5 -96.5t-119 -89.5t-189.5 -63q-11 2 -30 5t-72.5 18.5t-100.5 36t-101 59t-87 84.5zM242 854l63 270l488 -217q-101 -46 -194.5 -68.5t-155.5 -21.5t-109.5 8.5t-69.5 18.5zM430 317q84 13 141 84q48 59 37 105q-15 52 -104 35q-15 -52 -74 -224z " />
<glyph unicode="&#xe9;" horiz-adv-x="827" d="M74 125q6 83 27.5 170.5t47.5 152.5t51 118.5t42 81.5l16 28q115 5 227 36t167 59l55 28q48 -27 83.5 -67.5t53 -79t27.5 -72.5t12 -55l2 -21q-29 -67 -83.5 -120t-121 -85.5t-134.5 -50.5t-136 -23q-2 -9 -4.5 -20.5t-8.5 -44.5q59 -4 125 5t118.5 25t97 32.5t68.5 29.5 l25 12q10 -45 -4 -93t-53.5 -96.5t-119 -89.5t-189.5 -63q-11 2 -30 5t-72.5 18.5t-100.5 36t-101 59t-87 84.5zM229 879l486 268l63 -270q-16 -6 -42.5 -15.5t-101.5 -27.5t-141 -24t-142 9.5t-122 59.5zM430 317q84 13 141 84q48 59 37 105q-15 52 -104 35 q-15 -52 -74 -224z" />
<glyph unicode="&#xea;" horiz-adv-x="843" d="M90 125q6 83 27.5 170.5t47.5 152.5t51 118.5t42 81.5l16 28q115 5 227 36t167 59l55 28q48 -27 83.5 -67.5t53 -79t27.5 -72.5t12 -55l2 -21q-29 -67 -83.5 -120t-121 -85.5t-134.5 -50.5t-136 -23q-6 -33 -12 -65q59 -4 125 5t118.5 25t97 32.5t69.5 29.5l24 12 q10 -45 -4.5 -93t-54 -96.5t-119 -89.5t-189.5 -63q-11 2 -30 5t-72.5 18.5t-100.5 36t-101 59t-87 84.5zM172 750q0 7 1 20t8.5 50t19.5 70.5t38.5 74.5t61 70.5t91.5 50t126 20.5q52 0 91 -13t60 -34t34.5 -46.5t16.5 -51t3.5 -46.5t-1.5 -34l-3 -13q-8 6 -24 14t-70 22 t-113 14q-65 0 -123.5 -17.5t-96.5 -42t-66.5 -49t-41.5 -41.5zM446 317q84 13 141 84q48 59 37 105q-15 52 -104 35q-15 -52 -74 -224z" />
<glyph unicode="&#xeb;" horiz-adv-x="821" d="M68 125q6 83 27.5 170.5t47.5 152.5t51 118.5t42 81.5l16 28q72 3 145 17t125 31.5t94 34.5t63 29l21 11q48 -27 83.5 -67.5t53 -79t28 -72.5t12.5 -55l2 -21q-29 -67 -84 -120t-121.5 -85.5t-134.5 -50.5t-136 -23q-6 -33 -12 -65q59 -4 125 5t118.5 25t97 32.5 t68.5 29.5l25 12q10 -45 -4 -93t-53.5 -96.5t-119 -89.5t-189.5 -63q-11 2 -30 5t-72.5 18.5t-100.5 36t-101 59t-87 84.5zM125 954l5.5 16.5t17.5 36.5t32 46t51 36.5t72 16.5q44 0 76.5 -24.5t47 -60t23 -71t8.5 -60.5l1 -24l-152 -82q-45 0 -90.5 42.5t-68.5 85.5z M424 317q84 13 141 84q48 59 37 105q-15 52 -104 35q-15 -52 -74 -224zM506 993l194 172q39 -18 69 -49t45 -63t24.5 -62t11.5 -49l2 -18q-3 -3 -8 -9t-22.5 -20.5t-36 -25.5t-46.5 -20t-57 -9q-43 0 -76.5 16t-51.5 38t-29.5 44.5t-14.5 38.5z" />
<glyph unicode="&#xec;" horiz-adv-x="481" d="M88 844l64 270l487 -217q-101 -46 -194.5 -68.5t-155.5 -21.5t-109.5 8.5t-69.5 18.5zM117 117q0 118 9.5 227t22.5 180.5t26 126.5t23 80l9 25q91 -16 186 -44.5t144 -49.5l49 -21q-8 -11 -21 -32t-46 -92t-58 -148t-45 -195.5t-19 -239.5q-59 27 -109.5 55.5 t-80.5 50.5t-51.5 40t-29.5 28z" />
<glyph unicode="&#xed;" horiz-adv-x="481" d="M117 117q0 118 9.5 227t22.5 180.5t26 126.5t23 80l9 25q91 -16 186 -44.5t144 -49.5l49 -21q-8 -11 -21 -32t-46 -92t-58 -148t-45 -195.5t-19 -239.5q-59 27 -109.5 55.5t-80.5 50.5t-51.5 40t-29.5 28zM170 881l485 268l64 -270q-16 -6 -42.5 -15.5t-101.5 -27.5 t-141 -24t-142 9.5t-122 59.5z" />
<glyph unicode="&#xee;" horiz-adv-x="524" d="M131 752q0 7 1 20t8.5 50t19.5 70.5t38.5 74.5t61 70.5t91.5 50t126 20.5q52 0 91 -13t60 -34t34.5 -46.5t16.5 -51t3.5 -46.5t-2.5 -34l-2 -13q-8 6 -24 14t-70 22t-113 14q-65 0 -123.5 -17.5t-96.5 -42t-66.5 -49t-40.5 -41.5zM168 117q0 118 9.5 227t22.5 180.5 t26 126.5t22 80l10 25q91 -16 186 -44.5t144 -49.5l49 -21q-8 -11 -21 -32t-45.5 -92t-57.5 -148t-45 -195.5t-19 -239.5q-94 43 -164 88.5t-93 69.5z" />
<glyph unicode="&#xef;" horiz-adv-x="509" d="M18 954l5.5 16.5t17.5 36.5t32.5 46t51.5 36.5t72 16.5q32 0 58 -13t42 -34.5t27.5 -47t16.5 -51t8 -47t3 -34.5v-13l-151 -82q-29 0 -58 17.5t-50.5 42.5t-39 50t-26.5 42zM147 117q0 118 9.5 227t22.5 180.5t26.5 126.5t22.5 80l10 25q91 -16 185.5 -44.5t143.5 -49.5 l49 -21q-8 -11 -21 -32t-45.5 -92t-57.5 -148t-45 -195.5t-19 -239.5q-94 43 -164 88.5t-94 69.5zM399 993l195 172q39 -18 69 -49t44.5 -63t24 -62t11.5 -49l2 -18q-3 -3 -8 -9t-22.5 -20.5t-36 -25.5t-46.5 -20t-57 -9q-43 0 -76.5 16t-51.5 38t-29.5 44.5t-15.5 38.5z " />
<glyph unicode="&#xf0;" horiz-adv-x="972" d="M74 238q0 66 28 132t74.5 120t110 91.5t131 50t142 -9t138.5 -79.5q0 12 -2 32t-23 77t-59 106l-387 -60l41 160l246 19q-4 2 -33 19.5t-40.5 24t-41 23t-50.5 26.5t-52 24.5t-63.5 27.5t-67.5 25l366 73q17 -7 46.5 -21.5t105.5 -66t135 -112.5q137 10 256 10l-41 -107 l-121 -18q4 -7 11.5 -19t26 -50.5t32.5 -77.5t25.5 -95.5t11.5 -109.5q0 -91 -31.5 -171.5t-82 -135.5t-110.5 -98.5t-122 -69t-112 -38t-83 -12.5q-39 0 -105.5 24.5t-134 64.5t-116.5 100t-49 121zM367 139q35 0 79 20.5t81.5 50.5t70 59.5t51.5 50.5l19 20q6 54 -9 93.5 t-41 39.5q-64 0 -132 -83.5t-102.5 -167t-16.5 -83.5z" />
<glyph unicode="&#xf1;" horiz-adv-x="921" d="M121 117q6 148 20.5 301t25.5 232l11 79l357 78q-41 -110 -80 -311q73 129 153 202.5t146 73.5q58 0 118.5 -69t118.5 -203q-5 -11 -14 -30.5t-32.5 -81t-42 -125.5t-34.5 -156.5t-18 -180.5q-21 7 -55.5 19t-109.5 50t-114 75q26 94 42.5 174t21.5 127.5t6 81.5t-1 47 l-3 14q-117 -101 -231 -315q-12 -95 -21 -205q-79 19 -145 50t-92 52zM271 1121q3 -5 10 -12t32.5 -25.5t56 -31t82.5 -21t111 -3.5q5 5 14.5 13.5t38.5 30.5t58 39t70.5 30.5t79.5 13.5q57 0 86.5 -28.5t31.5 -69t-4 -81t-17 -68.5l-11 -29q-3 3 -9.5 8.5t-30 19.5 t-52.5 24t-78 18t-105 6l-13 -13t-35 -28t-54 -35.5t-66 -28t-76 -12.5q-55 0 -91.5 15.5t-50.5 40.5t-18.5 55.5t2.5 60.5t15 55t16 41z" />
<glyph unicode="&#xf2;" horiz-adv-x="843" d="M92 223q1 84 18.5 161.5t44 134t58.5 105t63.5 79.5t57.5 53.5t42 32.5l17 10q72 -20 174 -58l131 123q91 -40 147 -136t56 -232q0 -75 -24.5 -143t-64.5 -118t-90.5 -92t-101.5 -69.5t-98.5 -47t-81 -28t-49.5 -8.5q-55 27 -106 61.5t-84.5 63.5t-59.5 54t-37 39z M211 915l63 271l488 -217q-101 -46 -194.5 -68.5t-155.5 -21.5t-109.5 8t-69.5 17zM422 182q8 1 21.5 4.5t50.5 22t69 46t67 83t54 127.5l-115 96q-132 -180 -147 -379z" />
<glyph unicode="&#xf3;" horiz-adv-x="843" d="M92 223q1 84 18.5 161.5t44 134t58.5 105t63.5 79.5t57.5 53.5t42 32.5l17 10q72 -20 174 -58l131 123q91 -40 147 -136t56 -232q0 -75 -24.5 -143t-64.5 -118t-90.5 -92t-101.5 -69.5t-98.5 -47t-81 -28t-49.5 -8.5q-55 27 -106 61.5t-84.5 63.5t-59.5 54t-37 39z M211 920l486 268l63 -270q-16 -6 -42.5 -15.5t-101.5 -27.5t-141 -24t-142 9.5t-122 59.5zM422 182q8 1 21.5 4.5t50.5 22t69 46t67 83t54 127.5l-115 96q-132 -180 -147 -379z" />
<glyph unicode="&#xf4;" horiz-adv-x="843" d="M92 223q1 84 18.5 161.5t44 134t58.5 105t63.5 79.5t57.5 53.5t42 32.5l17 10q72 -20 174 -58l131 123q91 -40 147 -136t56 -232q0 -75 -24.5 -143t-64.5 -118t-90.5 -92t-101.5 -69.5t-98.5 -47t-81 -28t-49.5 -8.5q-55 27 -106 61.5t-84.5 63.5t-59.5 54t-37 39z M270 786q0 7 1 20t8.5 50t20 71t38.5 75t61 70.5t92 50t126 20.5q52 0 91 -13t60 -34t34 -46.5t16 -51t3.5 -46.5t-1.5 -34l-3 -13q-8 5 -24 13.5t-70 22t-113 13.5q-65 0 -123.5 -17.5t-96.5 -42t-66.5 -49t-41.5 -41.5zM422 182q8 1 21.5 4.5t50.5 22t69 46t67 83 t54 127.5l-115 96q-132 -180 -147 -379z" />
<glyph unicode="&#xf5;" horiz-adv-x="845" d="M92 223q1 84 18.5 161.5t44 134t58.5 105t63.5 79.5t57.5 53.5t42 32.5l17 10q72 -20 174 -58l131 123q91 -40 147 -136t56 -232q0 -75 -24.5 -143t-64.5 -118t-90.5 -92t-101.5 -69.5t-98.5 -47t-81 -28t-49.5 -8.5q-55 27 -106 61.5t-84.5 63.5t-59.5 54t-37 39z M219 1104q3 -4 10 -11.5t33 -25.5t56.5 -31t82.5 -21t111 -3q5 5 14.5 13.5t38 30.5t58 39t70.5 30.5t79 13.5q57 0 86.5 -28.5t31.5 -69t-4 -81.5t-17 -70l-11 -28q-3 3 -9.5 8.5t-30 19.5t-52 24t-77.5 18t-105 6l-13 -13t-35 -28t-54 -35.5t-66 -28t-76 -12.5 q-55 0 -91.5 15.5t-50.5 40.5t-18.5 55t2 60.5t14.5 55.5t16 40zM422 182q8 1 21.5 4.5t50.5 22t69 46t67 83t54 127.5l-115 96q-132 -180 -147 -379z" />
<glyph unicode="&#xf6;" horiz-adv-x="843" d="M92 223q1 84 18.5 161.5t44 134t58.5 105t63.5 79.5t57.5 53.5t42 32.5l17 10q72 -20 174 -58l131 123q91 -40 147 -136t56 -232q0 -75 -24.5 -143t-64.5 -118t-90.5 -92t-101.5 -69.5t-98.5 -47t-81 -28t-49.5 -8.5q-55 27 -106 61.5t-84.5 63.5t-59.5 54t-37 39z M174 1036l5.5 16.5t17.5 36.5t32 46t51 36.5t72 16.5q44 0 76.5 -24.5t47 -60t23 -71t9.5 -60.5v-24l-152 -82q-45 0 -90.5 42.5t-68.5 85.5zM422 182q8 1 21.5 4.5t50.5 22t69 46t67 83t54 127.5l-115 96q-132 -180 -147 -379zM555 1075l195 172q39 -18 69 -49t44.5 -63 t24 -62t11.5 -49l2 -18q-3 -3 -8 -9t-22.5 -20.5t-36 -25.5t-46.5 -20t-57 -9q-43 0 -76.5 16t-51.5 38t-29.5 44.5t-15.5 38.5z" />
<glyph unicode="&#xf7;" horiz-adv-x="909" d="M92 326l109 204q215 -16 410 -16t283 8l87 8l-53 -170q-13 -2 -37 -5.5t-107.5 -13.5t-172.5 -14t-232 -7t-287 6zM358 135q2 5 5.5 14t17.5 31t31.5 39t49 31t68.5 14q33 -1 60.5 -16t43 -38.5t24 -51t2.5 -55t-21.5 -50.5t-48 -37t-76.5 -14q-30 0 -55 7.5t-40.5 19 t-27.5 25.5t-18 28.5t-9.5 26t-4.5 19.5zM422 725q0 56 41 101.5t125 45.5q157 0 157 -147q0 -56 -42 -96.5t-130 -40.5q-43 0 -74.5 13.5t-47 35.5t-22.5 44t-7 44z" />
<glyph unicode="&#xf8;" horiz-adv-x="843" d="M92 223q1 84 18.5 161.5t44 134t58.5 105t63.5 79.5t57.5 53.5t42 32.5l17 10l78 -25q57 232 74 338q50 -16 91 -42t57 -44l16 -18l-84 -213l73 69q91 -40 147 -136t56 -232q0 -83 -30 -157t-75 -125.5t-104.5 -94.5t-110.5 -67.5t-102 -41.5q-19 -77 -25 -150t-2 -107 l3 -34q-10 3 -28 9.5t-67 39.5t-92 80q16 83 41 187q-64 40 -118 87t-77 74zM428 233l37 -38q164 62 219 270l-115 96q-116 -157 -141 -328z" />
<glyph unicode="&#xf9;" horiz-adv-x="937" d="M129 90q-17 181 -3.5 311.5t38.5 203.5l26 73q5 3 14 9t43 21t74 26t107.5 20.5t142.5 9.5q-7 -12 -18.5 -34t-40 -91t-49 -139.5t-34 -171t-7.5 -193.5q7 3 18.5 10.5t45 46t64 93.5t67.5 161.5t63 241.5q18 -8 49.5 -20t120 -32t166.5 -20q-58 -158 -94.5 -325 t-43.5 -255l-8 -87q-6 2 -17 7t-41 23.5t-57.5 41t-59 61t-52.5 82.5q-5 -8 -14 -22t-40 -50t-63.5 -65t-83 -57t-100.5 -36zM389 864l64 271l487 -217q-101 -46 -194.5 -68.5t-155.5 -21.5t-109.5 8t-69.5 18z" />
<glyph unicode="&#xfa;" horiz-adv-x="937" d="M129 90q-17 181 -3.5 311.5t38.5 203.5l26 73q5 3 14 9t43 21t74 26t107.5 20.5t142.5 9.5q-7 -12 -18.5 -34t-40 -91t-49 -139.5t-34 -171t-7.5 -193.5q7 3 18.5 10.5t45 46t64 93.5t67.5 161.5t63 241.5q18 -8 49.5 -20t120 -32t166.5 -20q-58 -158 -94.5 -325 t-43.5 -255l-8 -87q-6 2 -17 7t-41 23.5t-57.5 41t-59 61t-52.5 82.5q-5 -8 -14 -22t-40 -50t-63.5 -65t-83 -57t-100.5 -36zM354 901l486 268l63 -270q-16 -6 -42.5 -15.5t-101.5 -27.5t-141 -24t-142 9.5t-122 59.5z" />
<glyph unicode="&#xfb;" horiz-adv-x="937" d="M129 90q-17 181 -3.5 311.5t38.5 203.5l26 73q5 3 14 9t43 21t74 26t107.5 20.5t142.5 9.5q-7 -12 -18.5 -34t-40 -91t-49 -139.5t-34 -171t-7.5 -193.5q7 3 18.5 10.5t45 46t64 93.5t67.5 161.5t63 241.5q18 -8 49.5 -20t120 -32t166.5 -20q-58 -158 -94.5 -325 t-43.5 -255l-8 -87q-6 2 -17 7t-41 23.5t-57.5 41t-59 61t-52.5 82.5q-5 -8 -14 -22t-40 -50t-63.5 -65t-83 -57t-100.5 -36zM342 786q0 7 1 20t8.5 50t20 71t38.5 75t61 70.5t92 50t126 20.5q52 0 91 -13t60 -34t34 -46.5t16 -51t3.5 -46.5t-1.5 -34l-3 -13q-8 5 -24 13.5 t-70 22t-113 13.5q-65 0 -123.5 -17.5t-96.5 -42t-66.5 -49t-41.5 -41.5z" />
<glyph unicode="&#xfc;" horiz-adv-x="937" d="M129 90q-17 181 -3.5 311.5t38.5 203.5l26 73q5 3 14 9t43 21t74 26t107.5 20.5t142.5 9.5q-7 -12 -18.5 -34t-40 -91t-49 -139.5t-34 -171t-7.5 -193.5q7 3 18.5 10.5t45 46t64 93.5t67.5 161.5t63 241.5q18 -8 49.5 -20t120 -32t166.5 -20q-58 -158 -94.5 -325 t-43.5 -255l-8 -87q-6 2 -17 7t-41 23.5t-57.5 41t-59 61t-52.5 82.5q-5 -8 -14 -22t-40 -50t-63.5 -65t-83 -57t-100.5 -36zM219 965l5.5 16.5t17.5 36.5t32 45.5t51 36t72 16.5q44 0 76.5 -24.5t47 -59.5t23 -70.5t8.5 -59.5l1 -25l-152 -82q-45 0 -90.5 42.5t-68.5 84.5z M600 1004l195 172q39 -18 69 -49t44.5 -63.5t24 -62t11.5 -48.5l2 -19q-3 -3 -8 -9t-22.5 -20.5t-36 -25.5t-46.5 -20t-57 -9q-43 0 -76.5 16t-51.5 38.5t-29.5 45t-14.5 38.5z" />
<glyph unicode="&#xfd;" horiz-adv-x="878" d="M160 682q6 6 16.5 15t48.5 33.5t80.5 44t111.5 38t142 23.5q-7 -10 -18.5 -29t-35.5 -83.5t-36.5 -135t-7.5 -181.5t37 -225q38 59 70.5 137.5t51.5 148t32.5 130.5t18.5 97l5 36q22 -8 57.5 -22.5t113.5 -60.5t120 -93q-8 -14 -21 -39.5t-49 -107t-66.5 -165.5 t-62.5 -207t-47 -239q-87 -42 -205 -58.5t-193 -12.5l-75 4q53 33 99.5 82.5t75.5 96.5t51 90t31 69l9 26l-203 -112q-65 63 -104 158.5t-49 186t-11 172.5t6 133zM319 954l486 269l63 -271q-16 -6 -42.5 -15.5t-101.5 -27.5t-141 -24t-142 9.5t-122 59.5z" />
<glyph unicode="&#xfe;" horiz-adv-x="925" d="M102 -68q11 82 27.5 215.5t44 451.5t27.5 523q141 -38 381 -63q-56 -212 -103 -449q41 53 86 98t79.5 71.5t63.5 46t44 26.5l16 8q8 -3 22 -8.5t53 -25.5t72.5 -43.5t70.5 -62t58 -81.5q-11 -97 -63.5 -196.5t-135 -183.5t-197.5 -148.5t-242 -90.5q-5 -76 -7 -143.5 t-1 -96.5l1 -30q-6 2 -17.5 6t-46 19.5t-68.5 34t-80 51.5t-85 71zM438 352q-38 -166 23 -166q48 0 117 108.5t107 217.5t11 109q-46 0 -258 -269z" />
<glyph unicode="&#xff;" horiz-adv-x="878" d="M158 1026l5.5 16.5t17.5 36.5t32 46t51 36.5t72 16.5q44 0 76.5 -24.5t47 -60t23 -71t9.5 -60.5v-24l-152 -82q-45 0 -90.5 42.5t-68.5 85.5zM160 682q6 6 16.5 15t48.5 33.5t80.5 44t111.5 38t142 23.5q-7 -10 -18.5 -29t-35.5 -83.5t-36.5 -135t-7.5 -181.5t37 -225 q38 59 70.5 137.5t51.5 148t32.5 130.5t18.5 97l5 36q22 -8 57.5 -22.5t113.5 -60.5t120 -93q-8 -14 -21 -39.5t-49 -107t-66.5 -165.5t-62.5 -207t-47 -239q-87 -42 -205 -58.5t-193 -12.5l-75 4q53 33 99.5 82.5t75.5 96.5t51 90t31 69l9 26l-203 -112q-65 63 -104 158.5 t-49 186t-11 172.5t6 133zM539 1065l194 172q39 -18 69 -49t45 -63.5t24.5 -62t11.5 -48.5l2 -19q-3 -3 -8 -9t-22.5 -20.5t-36 -25.5t-46.5 -20t-57 -9q-43 0 -76.5 16t-51.5 38.5t-29.5 45t-15.5 38.5z" />
<glyph unicode="&#x152;" horiz-adv-x="1611" d="M115 227q0 135 21.5 248.5t56 187t76 131t82.5 87.5t75.5 49.5t55.5 25.5l22 5q67 -76 203 -97l211 164q40 -20 81 -63q211 114 576 114l133 -440q-8 2 -24.5 5t-73 9.5t-120.5 9.5t-167.5 2t-214.5 -10v-20q0 -6 -1 -18t-1 -17q73 -84 485 -59q0 -4 -2 -11t-11 -26.5 t-23.5 -37.5t-44 -39.5t-68 -37t-99.5 -26.5t-135 -11q-60 0 -106 6l-23 -104q7 -8 95 -8q113 0 236 23t190 46l67 23q-6 -48 -33 -98t-76 -98.5t-113 -86.5t-151.5 -61t-183.5 -23q-160 0 -285 95q-65 -49 -139.5 -86t-115.5 -50l-42 -12q-89 25 -164.5 65.5t-119.5 81.5 t-75 78t-43 61zM526 170q40 0 91 37t96 106t59.5 168t-18.5 224q-228 -249 -228 -535z" />
<glyph unicode="&#x153;" horiz-adv-x="1380" d="M92 223q1 84 18.5 161.5t44 134t58.5 105t63.5 79.5t57.5 53.5t42 32.5l17 10q72 -20 174 -58l131 123q112 -50 164 -174q104 10 204 40.5t148 55.5l48 25q48 -27 83.5 -67.5t53 -79t27.5 -72.5t12 -55l2 -21q-29 -67 -83.5 -120t-121 -85t-134.5 -50t-136 -23l-13 -66 q59 -4 125 5t118.5 25t97 32.5t69.5 29.5l24 12q10 -45 -4 -93t-53.5 -96.5t-119 -89.5t-189.5 -63q-9 1 -25.5 4t-63 16t-88.5 29.5t-93.5 47t-87.5 67.5q-78 -51 -158 -79.5t-113 -28.5q-55 27 -106 61.5t-84.5 63.5t-59.5 54t-37 39zM422 182q8 1 21.5 4.5t50.5 22t69 46 t67 83t54 127.5l-115 96q-132 -180 -147 -379zM985 330q83 12 141 83q47 59 37 105q-15 52 -104 35q-15 -51 -74 -223z" />
<glyph unicode="&#x178;" horiz-adv-x="1017" d="M72 696q70 64 128.5 127t92 108.5t57.5 81.5t32 54l9 18q9 -10 23.5 -29t50.5 -86t61 -142t40 -194.5t3 -246.5q79 72 131.5 173t71.5 193t26.5 173.5t3.5 130.5l-3 49l342 -268q0 -43 -5.5 -84t-27.5 -99.5t-58 -107.5t-105 -99.5t-161 -85.5l-43 -372l-512 -78 q5 9 13.5 24.5t30 64.5t38 98.5t30 121t13.5 137.5q0 61 -15.5 112t-40.5 85t-55 60.5t-60 41t-55 24t-40 12.5zM146 1294q2 7 5.5 18t18.5 39t34.5 50t55 39.5t78.5 17.5q48 0 82.5 -27t50.5 -65t24.5 -76t9.5 -65l1 -27l-164 -88q-31 0 -62.5 19t-54.5 46t-41.5 54 t-27.5 46zM557 1335l211 189q43 -20 75.5 -54t49 -69t26.5 -67t13 -52l2 -21q-3 -4 -8.5 -10t-24 -22t-38.5 -28t-51 -22t-62 -10q-46 0 -83 17t-57 41.5t-32.5 49t-16.5 41.5z" />
<glyph unicode="&#x2c6;" horiz-adv-x="917" d="M102 1163q0 7 1 20t8.5 50t20 71t38.5 75t61 70.5t92 50t126 20.5q52 0 91 -13t60 -34t34 -46.5t16 -51t3.5 -46.5t-1.5 -34l-3 -13q-8 5 -24 13.5t-70 22t-113 13.5q-65 0 -123.5 -17.5t-96.5 -42t-66.5 -49t-41.5 -42.5z" />
<glyph unicode="&#x2dc;" horiz-adv-x="851" d="M111 1391q3 -5 10 -12t32.5 -25.5t56 -31t82.5 -21t111 -3.5q5 5 14.5 13.5t38.5 30.5t58 39t70.5 30.5t79.5 13.5q57 0 86.5 -28.5t31.5 -69t-4 -81t-17 -68.5l-11 -29q-3 3 -9.5 8.5t-30 19.5t-52.5 24t-78 18t-105 6l-13 -13t-35 -28t-54 -35.5t-66 -28t-76 -12.5 q-55 0 -91.5 15.5t-50.5 40.5t-18.5 55.5t2.5 60.5t15 55t16 41z" />
<glyph unicode="&#x2000;" horiz-adv-x="762" />
<glyph unicode="&#x2001;" horiz-adv-x="1524" />
<glyph unicode="&#x2002;" horiz-adv-x="762" />
<glyph unicode="&#x2003;" horiz-adv-x="1524" />
<glyph unicode="&#x2004;" horiz-adv-x="508" />
<glyph unicode="&#x2005;" horiz-adv-x="381" />
<glyph unicode="&#x2006;" horiz-adv-x="254" />
<glyph unicode="&#x2007;" horiz-adv-x="254" />
<glyph unicode="&#x2008;" horiz-adv-x="190" />
<glyph unicode="&#x2009;" horiz-adv-x="304" />
<glyph unicode="&#x200a;" horiz-adv-x="84" />
<glyph unicode="&#x2010;" horiz-adv-x="694" d="M96 465q20 5 62 12.5t195.5 20t336.5 12.5l49 -174l-522 -55q-12 49 -42.5 95t-54.5 68z" />
<glyph unicode="&#x2011;" horiz-adv-x="694" d="M96 465q20 5 62 12.5t195.5 20t336.5 12.5l49 -174l-522 -55q-12 49 -42.5 95t-54.5 68z" />
<glyph unicode="&#x2012;" horiz-adv-x="694" d="M96 465q20 5 62 12.5t195.5 20t336.5 12.5l49 -174l-522 -55q-12 49 -42.5 95t-54.5 68z" />
<glyph unicode="&#x2013;" horiz-adv-x="909" d="M90 293l49 231q292 0 499.5 12t269.5 24l61 11l-68 -252q-156 0 -358.5 -6.5t-327.5 -12.5z" />
<glyph unicode="&#x2014;" horiz-adv-x="1134" d="M90 293l49 231q292 0 556 12t381 24l118 11l-68 -252q-156 0 -415 -6.5t-440 -12.5z" />
<glyph unicode="&#x2018;" horiz-adv-x="350" d="M217 717q-8 95 0 170t28.5 130.5t47 96t55 66.5t52.5 41.5t40 21.5l15 6q-19 -114 -8 -215t34 -170l23 -69z" />
<glyph unicode="&#x2019;" horiz-adv-x="303" d="M193 1171l286 78q8 -95 0 -170t-28.5 -130.5t-47 -96t-55 -66.5t-52 -41.5t-38.5 -21.5l-16 -6q19 114 8 215t-34 170z" />
<glyph unicode="&#x201a;" horiz-adv-x="360" d="M41 164l287 78q8 -95 0 -170t-28.5 -131t-47 -96t-55 -66.5t-52.5 -42t-39 -21.5l-16 -6q19 114 8 215t-34 170z" />
<glyph unicode="&#x201c;" horiz-adv-x="731" d="M217 717q-8 95 0 170t28.5 130.5t47 96t55 66.5t52.5 41.5t40 21.5l15 6q-19 -114 -8 -215t34 -170l23 -69zM598 717q-8 95 0 170t28.5 130.5t47 96t55 66.5t52.5 41.5t39 21.5l16 6q-19 -114 -8 -215t34 -170l23 -69z" />
<glyph unicode="&#x201d;" horiz-adv-x="684" d="M193 1171l286 78q8 -95 0 -170t-28.5 -130.5t-47 -96t-55 -66.5t-52 -41.5t-38.5 -21.5l-16 -6q19 114 8 215t-34 170zM573 1171l287 78q8 -95 0 -170t-28.5 -130.5t-47 -96t-55 -66.5t-52 -41.5t-39.5 -21.5l-15 -6q19 114 8 215t-35 170z" />
<glyph unicode="&#x201e;" horiz-adv-x="739" d="M96 455l287 77q8 -95 0 -170t-28.5 -130.5t-47 -96t-55 -66.5t-52.5 -41.5t-40 -21.5l-15 -6q19 114 8 215t-34 171zM477 455l287 77q8 -95 0 -170t-28.5 -130.5t-47 -96t-55 -66.5t-52.5 -41.5t-39 -21.5l-16 -6q19 114 8 215t-34 171z" />
<glyph unicode="&#x2022;" horiz-adv-x="544" d="M158 432q1 4 2 11.5t7.5 29.5t16 41.5t27 44t40 41.5t56.5 29t74 12q2 -4 5 -10.5t17 -25t32 -36t50 -39t70 -38.5q11 -96 -47.5 -172t-149.5 -76q-55 0 -97 22t-63 54.5t-30.5 61t-9.5 50.5z" />
<glyph unicode="&#x2026;" horiz-adv-x="1558" d="M39 182l242 246q55 -25 97 -69t62.5 -88.5t33.5 -85.5t16 -67l2 -26l-216 -115q-40 0 -79 21t-66.5 51t-49 60.5t-31.5 51.5zM582 182l241 246q55 -25 97 -69t62.5 -88.5t33.5 -85.5t16 -67l2 -26l-215 -115q-40 0 -79 21t-66.5 51t-49 60.5t-32.5 51.5zM1120 182 l242 246q55 -25 97 -69t62.5 -88.5t33.5 -85.5t15 -67l3 -26l-215 -115q-40 0 -79.5 21t-66.5 51t-49 60.5t-33 51.5z" />
<glyph unicode="&#x202f;" horiz-adv-x="304" />
<glyph unicode="&#x2039;" horiz-adv-x="772" d="M139 610q137 99 264.5 210t186.5 172l59 61q18 -44 46 -82t55 -61.5t51 -40.5t39 -24l14 -7l-426 -256q38 -48 91 -92t101.5 -72t91 -49.5t68.5 -30.5l25 -10q-6 -4 -16.5 -11.5t-45.5 -27.5t-72 -37t-92 -35t-110 -27q-76 91 -158.5 196t-126.5 164z" />
<glyph unicode="&#x203a;" horiz-adv-x="774" d="M154 365l426 256q-38 48 -91 92t-101.5 72t-91 49t-68.5 30l-25 10q6 4 16.5 11.5t45.5 27.5t72 37t92 35t110 27q76 -91 158 -196t127 -164l44 -60q-137 -99 -264.5 -209.5t-186.5 -171.5l-59 -61q-18 44 -46 82t-54.5 61.5t-50.5 40.5t-39 24z" />
<glyph unicode="&#x205f;" horiz-adv-x="381" />
<glyph unicode="&#x20ac;" horiz-adv-x="1200" d="M94 262l29 121l117 4q0 22 4 72l-115 -2l18 114h113q109 533 875 533l137 -459q-539 79 -688 -74h465l-39 -92l-482 -12q-4 -36 -4 -55v-13l461 19l-37 -88l-395 -31q58 -86 233 -86q81 0 157.5 14.5t127.5 35.5t91 42.5t58 36.5l19 14q-8 -62 -51 -130t-111.5 -127 t-171 -97.5t-215.5 -38.5q-165 0 -288 87.5t-154 223.5z" />
<glyph unicode="&#x2122;" horiz-adv-x="1245" d="M248 930q26 33 42 90t18 98l3 41q7 -2 21 -5.5t59.5 -11t93 -11.5t119 -3t141.5 11q-35 -58 -43 -197l-131 -4q-34 -186 -43 -348q-58 8 -106.5 21t-67.5 23l-20 9l78 291zM727 682q10 112 33 219t41 158l18 51q12 7 33 17.5t82 29.5t117 23l2 -320l137 357 q90 -53 203 -76q-4 -95 -26.5 -213t-42.5 -189l-21 -71q-58 -38 -183 -56q24 83 38.5 158.5t17.5 109.5l2 35q-11 -22 -29 -57.5t-65.5 -109t-84.5 -105.5q-20 41 -34.5 106t-19.5 109l-5 45q-38 -98 -63 -315q-12 3 -31 10t-59.5 31.5t-59.5 52.5z" />
<glyph unicode="&#xe000;" horiz-adv-x="808" d="M0 0v809h809v-809h-809z" />
<glyph unicode="&#xfb01;" horiz-adv-x="1157" d="M72 502q95 69 204 139q-6 6 -15.5 16t-25.5 42.5t-16 66.5q0 81 32 143t82.5 99t122.5 60t142 31.5t150 8.5q4 -118 22 -209t34 -123l15 -31q-164 37 -385 37q0 -22 5.5 -39.5t27 -37.5t59 -32t107.5 -18.5t166 -1.5l-88 -256l-152 -2q-6 -16 -16.5 -50t-38.5 -172.5 t-51 -315.5q-8 4 -22.5 12t-54.5 33.5t-75.5 51.5t-77 63t-67.5 71l63 348q-44 16 -80.5 32.5t-51.5 25.5zM795 117q0 118 9.5 227t22.5 180.5t26 126.5t23 80l9 25q91 -16 186 -44.5t144 -49.5l49 -21q-8 -11 -21 -32t-46 -92t-58 -148t-45 -195.5t-19 -239.5 q-59 27 -109.5 55.5t-80.5 50.5t-51.5 40t-29.5 28zM911 1010q32 14 63 35.5t52 42t37.5 39t24.5 29.5l8 11q63 -10 123.5 -30.5t90.5 -36.5l29 -15q-1 -9 -3.5 -25.5t-14 -62.5t-26 -87t-41.5 -89t-60 -80q-9 4 -24 11.5t-56 33t-75.5 54.5t-72 75t-55.5 95z" />
<glyph unicode="&#xfb02;" horiz-adv-x="1169" d="M72 502q95 69 204 139q-6 6 -15.5 16t-25.5 42.5t-16 66.5q0 81 32 143t82.5 99t122.5 60t142 31.5t150 8.5q4 -118 22 -209t34 -123l15 -31q-164 37 -385 37q0 -22 5.5 -39.5t27 -37.5t59 -32t107.5 -18.5t166 -1.5l-88 -256l-152 -2q-6 -16 -16.5 -50t-38.5 -172.5 t-51 -315.5q-8 4 -22.5 12t-54.5 33.5t-75.5 51.5t-77 63t-67.5 71l63 348q-44 16 -80.5 32.5t-51.5 25.5zM793 98q16 180 57.5 399.5t74.5 348.5l33 129q93 56 199.5 91.5t166.5 43.5l60 8q-80 -172 -137.5 -361t-82 -335.5t-37.5 -268.5t-13 -187v-66q-9 4 -25 10.5 t-60 28.5t-82.5 44t-82.5 53.5t-71 61.5z" />
</font>
</defs>
</svg>
