<?xml version="1.0" standalone="no"?>
<!DOCTYPE svg PUBLIC "-//W3C//DTD SVG 1.1//EN" "http://www.w3.org/Graphics/SVG/1.1/DTD/svg11.dtd" >
<svg xmlns="http://www.w3.org/2000/svg">
<metadata></metadata>
<defs>
<font id="noticenotice3" horiz-adv-x="890" >
<font-face units-per-em="1000" ascent="750" descent="-250" />
<missing-glyph horiz-adv-x="500" />
<glyph horiz-adv-x="1000" />
<glyph horiz-adv-x="1000" />
<glyph unicode="&#xd;" horiz-adv-x="1000" />
<glyph unicode=" " />
<glyph unicode="!" d="M45 126v548q0 52 36.5 89t89.5 37h548q53 0 89.5 -37t36.5 -89v-548q0 -52 -36.5 -89t-89.5 -37h-548q-53 0 -89.5 37t-36.5 89zM155 204h564l-63 428h-342q-9 0 -14.5 -7t-5.5 -16q0 -23 21 -23h299l18 -126h-299q-72 0 -125 -69.5t-53 -169.5v-17zM202 250 q0 54 39.5 109t91.5 55h306l25 -164h-462z" />
<glyph unicode="&#x22;" d="M45 126v548q0 52 36.5 89t89.5 37h548q53 0 89.5 -37t36.5 -89v-548q0 -52 -36.5 -89t-89.5 -37h-548q-53 0 -89.5 37t-36.5 89zM192 590l70 -402h366l70 402h-37l-7 -46q-6 2 -16 2q-9 0 -24 -8.5t-24 -8.5t-24.5 8.5t-24.5 8.5t-24 -8.5t-24 -8.5t-24.5 8.5t-24.5 8.5 t-24 -8.5t-24 -8.5t-24.5 8.5t-24.5 8.5t-24 -8.5t-24 -8.5t-24.5 8.5t-24.5 8.5q-5 0 -13 -2l-8 46h-37zM243 511q2 1 7 1q9 0 24.5 -8.5t24.5 -8.5t24 8.5t24 8.5t24.5 -8.5t24.5 -8.5t24 8.5t24 8.5t24.5 -8.5t24.5 -8.5t24 8.5t24 8.5t24.5 -8.5t24.5 -8.5t24 8.5 t24 8.5q1 0 4.5 -0.5t4.5 -0.5l-50 -287h-304zM335 334q0 -35 50 -35q23 0 37 10t14 26q0 21 -25 32q22 10 22 27q0 14 -13 22.5t-35 8.5q-21 0 -34 -9.5t-13 -23.5q0 -22 20 -29q-23 -11 -23 -29zM365 338q0 10 9 17q12 -3 16 -6q15 -6 15 -15q0 -14 -19 -14q-21 0 -21 18z M369 392q0 12 16 12q18 0 18 -14q0 -7 -7 -16l-16 6q-11 4 -11 12zM457 306q14 -7 40 -7q23 0 38 11t15 32q0 38 -46 38q-2 0 -6.5 -0.5t-5.5 -0.5v20h55v23h-85v-68q4 0 13.5 2t14.5 2q29 0 29 -17q0 -18 -26 -18q-20 0 -33 10z" />
<glyph unicode="#" d="M45 126v548q0 52 36.5 89t89.5 37h548q53 0 89.5 -37t36.5 -89v-548q0 -52 -36.5 -89t-89.5 -37h-548q-53 0 -89.5 37t-36.5 89zM155 204h564l-63 428h-342q-9 0 -14.5 -7t-5.5 -16q0 -23 21 -23h299l18 -126h-299q-72 0 -125 -69.5t-53 -169.5v-17zM202 250 q0 54 39.5 109t91.5 55h306l25 -164h-462zM357 334q0 -15 10.5 -25.5t25.5 -10.5t25.5 10.5t10.5 25.5t-10.5 25.5t-25.5 10.5t-25.5 -10.5t-10.5 -25.5zM453 334q0 -15 10.5 -25.5t25.5 -10.5t25.5 10.5t10.5 25.5t-10.5 25.5t-25.5 10.5t-25.5 -10.5t-10.5 -25.5z" />
<glyph unicode="$" d="M45 126v548q0 52 36.5 89t89.5 37h548q53 0 89.5 -37t36.5 -89v-548q0 -52 -36.5 -89t-89.5 -37h-548q-53 0 -89.5 37t-36.5 89zM155 204h564l-63 428h-342q-9 0 -14.5 -7t-5.5 -16q0 -23 21 -23h299l18 -126h-299q-72 0 -125 -69.5t-53 -169.5v-17zM202 250 q0 54 39.5 109t91.5 55h306l25 -164h-462zM309 334q0 -15 10.5 -25.5t25.5 -10.5t25.5 10.5t10.5 25.5t-10.5 25.5t-25.5 10.5t-25.5 -10.5t-10.5 -25.5zM405 334q0 -15 10.5 -25.5t25.5 -10.5t25.5 10.5t10.5 25.5t-10.5 25.5t-25.5 10.5t-25.5 -10.5t-10.5 -25.5zM501 334 q0 -15 10.5 -25.5t25.5 -10.5t25.5 10.5t10.5 25.5t-10.5 25.5t-25.5 10.5t-25.5 -10.5t-10.5 -25.5z" />
<glyph unicode="%" d="M45 126v548q0 52 36.5 89t89.5 37h548q53 0 89.5 -37t36.5 -89v-548q0 -52 -36.5 -89t-89.5 -37h-548q-53 0 -89.5 37t-36.5 89zM155 204h66l46 46h-65q0 54 39.5 109t91.5 55h71l-46 46h-25q-72 0 -125 -69.5t-53 -169.5v-17zM200 169l25 -24l231 230l230 -230l24 25 l-230 230l230 230l-24 25l-230 -230l-231 230l-25 -24l231 -231zM294 609q0 -23 21 -23h288l46 46h-335q-9 0 -14.5 -7t-5.5 -16zM297 204h317l-46 46h-225zM433 460l22 -22l22 22h-44zM507 414h132l25 -164h-21l46 -46h30l-54 368l-43 -43l10 -69h-79z" />
<glyph unicode="&#x26;" d="M45 126v548q0 52 36.5 89t89.5 37h548q53 0 89.5 -37t36.5 -89v-548q0 -52 -36.5 -89t-89.5 -37h-548q-53 0 -89.5 37t-36.5 89zM192 400q0 -104 74 -178.5t178 -74.5q105 0 179.5 74.5t74.5 178.5t-74.5 178.5t-179.5 74.5q-104 0 -178 -74.5t-74 -178.5zM238 400 q0 86 60.5 147t145.5 61q86 0 147.5 -61.5t61.5 -146.5t-61.5 -146.5t-147.5 -61.5q-85 0 -145.5 61t-60.5 147zM366 270h52v96h32q24 0 40 2t34 9.5t27 24.5t9 44q0 33 -17 51t-39 22.5t-56 4.5h-82v-254zM418 410v70h45q45 0 45 -36q0 -34 -45 -34h-45z" />
<glyph unicode="'" d="M45 126v548q0 52 36.5 89t89.5 37h548q53 0 89.5 -37t36.5 -89v-548q0 -52 -36.5 -89t-89.5 -37h-548q-53 0 -89.5 37t-36.5 89zM70 135q0 -48 31 -79t79 -31h530q48 0 79 31t31 79v530q0 48 -31 79t-79 31h-530q-48 0 -79 -31t-31 -79v-530zM192 590h37l8 -46q8 2 13 2 q9 0 24.5 -8.5t24.5 -8.5t24 8.5t24 8.5t24.5 -8.5t24.5 -8.5t24 8.5t24 8.5t24.5 -8.5t24.5 -8.5t24 8.5t24 8.5t24.5 -8.5t24.5 -8.5t24 8.5t24 8.5q10 0 16 -2l7 46h37l-70 -402h-366zM243 511l50 -287h304l50 287q-1 0 -4.5 0.5t-4.5 0.5q-9 0 -24 -8.5t-24 -8.5 t-24.5 8.5t-24.5 8.5t-24 -8.5t-24 -8.5t-24.5 8.5t-24.5 8.5t-24 -8.5t-24 -8.5t-24.5 8.5t-24.5 8.5t-24 -8.5t-24 -8.5t-24.5 8.5t-24.5 8.5q-5 0 -7 -1zM335 334q0 18 23 29q-20 7 -20 29q0 14 13 23.5t34 9.5q22 0 35 -8.5t13 -22.5q0 -17 -22 -27q25 -11 25 -32 q0 -16 -14 -26t-37 -10q-50 0 -50 35zM365 338q0 -18 21 -18q19 0 19 14q0 9 -15 15q-4 3 -16 6q-9 -7 -9 -17zM369 392q0 -8 11 -12l16 -6q7 9 7 16q0 14 -18 14q-16 0 -16 -12zM457 306l3 27q13 -10 33 -10q26 0 26 18q0 17 -29 17q-5 0 -14.5 -2t-13.5 -2v68h85v-23h-55 v-20q1 0 5.5 0.5t6.5 0.5q46 0 46 -38q0 -21 -15 -32t-38 -11q-26 0 -40 7z" />
<glyph unicode="(" d="M45 126v548q0 52 36.5 89t89.5 37h548q53 0 89.5 -37t36.5 -89v-548q0 -52 -36.5 -89t-89.5 -37h-548q-53 0 -89.5 37t-36.5 89zM192 400q0 -104 74 -178.5t178 -74.5q105 0 179.5 74.5t74.5 178.5t-74.5 178.5t-179.5 74.5q-104 0 -178 -74.5t-74 -178.5zM238 400 q0 86 60.5 147t145.5 61q86 0 147.5 -61.5t61.5 -146.5t-61.5 -146.5t-147.5 -61.5q-85 0 -145.5 61t-60.5 147zM366 270h52v108h104v44h-104v58h120v44h-172v-254z" />
<glyph unicode=")" d="M45 126v548q0 52 36.5 89t89.5 37h548q53 0 89.5 -37t36.5 -89v-548q0 -52 -36.5 -89t-89.5 -37h-548q-53 0 -89.5 37t-36.5 89zM192 429q0 -104 74 -178.5t178 -74.5q105 0 179.5 74.5t74.5 178.5t-74.5 178.5t-179.5 74.5q-104 0 -178 -74.5t-74 -178.5zM213 109h464 v36h-464v-36zM238 429q0 86 60.5 147t145.5 61q86 0 147.5 -61.5t61.5 -146.5t-61.5 -146t-147.5 -61q-85 0 -145.5 60.5t-60.5 146.5zM366 300h52v96h32q19 0 32 1t29 5.5t25.5 12.5t16.5 23t7 37q0 48 -29 63t-83 15h-82v-253zM418 439v71h45q45 0 45 -36q0 -35 -45 -35 h-45z" />
<glyph unicode="*" d="M45 126v548q0 52 36.5 89t89.5 37h548q53 0 89.5 -37t36.5 -89v-548q0 -52 -36.5 -89t-89.5 -37h-548q-53 0 -89.5 37t-36.5 89zM192 400q0 -104 74 -178.5t178 -74.5q105 0 179.5 74.5t74.5 178.5t-74.5 178.5t-179.5 74.5q-104 0 -178 -74.5t-74 -178.5zM238 400 q0 86 60.5 147t145.5 61q86 0 147.5 -61.5t61.5 -146.5t-61.5 -146.5t-147.5 -61.5q-85 0 -145.5 61t-60.5 147zM319 292h55l21 58h99l22 -58h56l-99 253h-58zM410 393l34 93l35 -93h-69z" />
<glyph unicode="+" d="M45 126v548q0 52 36.5 89t89.5 37h548q53 0 89.5 -37t36.5 -89v-548q0 -52 -36.5 -89t-89.5 -37h-548q-53 0 -89.5 37t-36.5 89zM188 169l25 -24l231 230l230 -230l24 25l-230 230l230 230l-24 25l-230 -230l-231 230l-25 -24l231 -231zM192 400q0 -89 53 -156l33 32 q-40 56 -40 124q0 69 39 122l-32 34q-53 -67 -53 -156zM288 201q68 -54 156 -54t156 54l-32 32q-57 -41 -124 -41t-124 41zM288 599l32 -33q57 42 124 42t124 -41l32 32q-68 54 -156 54t-156 -54zM611 276l32 -33q55 68 55 157q0 88 -55 156l-32 -32q42 -57 42 -124 t-42 -124z" />
<glyph unicode="," d="M45 126v548q0 52 36.5 89t89.5 37h548q53 0 89.5 -37t36.5 -89v-548q0 -52 -36.5 -89t-89.5 -37h-548q-53 0 -89.5 37t-36.5 89zM70 135q0 -48 31 -79t79 -31h530q48 0 79 31t31 79v530q0 48 -31 79t-79 31h-530q-48 0 -79 -31t-31 -79v-530z" />
<glyph unicode="-" d="M45 126v548q0 52 36.5 89t89.5 37h548q53 0 89.5 -37t36.5 -89v-548q0 -52 -36.5 -89t-89.5 -37h-548q-53 0 -89.5 37t-36.5 89zM70 135q0 -48 31 -79t79 -31h530q48 0 79 31t31 79v530q0 48 -31 79t-79 31h-530q-48 0 -79 -31t-31 -79v-530zM192 429q0 104 74 178.5 t178 74.5q105 0 179.5 -74.5t74.5 -178.5t-74.5 -178.5t-179.5 -74.5q-104 0 -178 74.5t-74 178.5zM213 109v36h464v-36h-464zM238 429q0 -86 60.5 -146.5t145.5 -60.5q86 0 147.5 61t61.5 146t-61.5 146.5t-147.5 61.5q-85 0 -145.5 -61t-60.5 -147zM366 300v253h172v-43 h-120v-59h104v-43h-104v-108h-52z" />
<glyph unicode="." d="M45 126v548q0 52 36.5 89t89.5 37h548q53 0 89.5 -37t36.5 -89v-548q0 -52 -36.5 -89t-89.5 -37h-548q-53 0 -89.5 37t-36.5 89zM70 135q0 -48 31 -79t79 -31h530q48 0 79 31t31 79v530q0 48 -31 79t-79 31h-530q-48 0 -79 -31t-31 -79v-530z" />
<glyph unicode="/" d="M45 126v548q0 52 36.5 89t89.5 37h548q53 0 89.5 -37t36.5 -89v-548q0 -52 -36.5 -89t-89.5 -37h-548q-53 0 -89.5 37t-36.5 89zM70 135q0 -48 31 -79t79 -31h530q48 0 79 31t31 79v530q0 48 -31 79t-79 31h-530q-48 0 -79 -31t-31 -79v-530zM192 590h37l8 -46q8 2 13 2 q9 0 24.5 -8.5t24.5 -8.5t24 8.5t24 8.5t24.5 -8.5t24.5 -8.5t24 8.5t24 8.5t24.5 -8.5t24.5 -8.5t24 8.5t24 8.5t24.5 -8.5t24.5 -8.5t24 8.5t24 8.5q10 0 16 -2l7 46h37l-70 -402h-366zM243 511l50 -287h304l50 287q-1 0 -4.5 0.5t-4.5 0.5q-9 0 -24 -8.5t-24 -8.5 t-24.5 8.5t-24.5 8.5t-24 -8.5t-24 -8.5t-24.5 8.5t-24.5 8.5t-24 -8.5t-24 -8.5t-24.5 8.5t-24.5 8.5t-24 -8.5t-24 -8.5t-24.5 8.5t-24.5 8.5q-5 0 -7 -1zM332 379q0 19 13.5 31.5t34.5 12.5q50 0 50 -57q0 -69 -67 -69q-15 0 -21 2l3 24q4 -4 19 -4q31 0 34 29 q-14 -8 -28 -8q-38 0 -38 39zM363 380q0 -19 21 -19q8 0 14 2v3q1 3 1 5q0 31 -19 31q-17 0 -17 -22zM450 360q0 63 49 63q50 0 50 -63t-50 -63q-49 0 -49 63zM481 359q0 -40 18 -40q19 0 19 41t-19 41q-18 0 -18 -42z" />
<glyph unicode="0" d="M45 126v548q0 52 36.5 89t89.5 37h548q53 0 89.5 -37t36.5 -89v-548q0 -52 -36.5 -89t-89.5 -37h-548q-53 0 -89.5 37t-36.5 89zM70 135q0 -48 31 -79t79 -31h530q48 0 79 31t31 79v530q0 48 -31 79t-79 31h-530q-48 0 -79 -31t-31 -79v-530zM192 429q0 104 74 178.5 t178 74.5q105 0 179.5 -74.5t74.5 -178.5t-74.5 -178.5t-179.5 -74.5q-104 0 -178 74.5t-74 178.5zM213 109v36h464v-36h-464zM238 429q0 -86 60.5 -146.5t145.5 -60.5q86 0 147.5 61t61.5 146t-61.5 146.5t-147.5 61.5q-85 0 -145.5 -61t-60.5 -147zM366 300v253h82 q54 0 83 -15t29 -63q0 -22 -7 -37t-16.5 -23t-25.5 -12.5t-29 -5.5t-32 -1h-32v-96h-52zM418 439h45q45 0 45 35q0 36 -45 36h-45v-71z" />
<glyph unicode="1" d="M45 126v548q0 52 36.5 89t89.5 37h548q53 0 89.5 -37t36.5 -89v-548q0 -52 -36.5 -89t-89.5 -37h-548q-53 0 -89.5 37t-36.5 89zM70 135q0 -48 31 -79t79 -31h530q48 0 79 31t31 79v530q0 48 -31 79t-79 31h-530q-48 0 -79 -31t-31 -79v-530zM155 204v17q0 100 53 169.5 t125 69.5h299l-18 126h-299q-21 0 -21 23q0 9 5.5 16t14.5 7h342l63 -428h-564zM202 250h462l-25 164h-306q-52 0 -91.5 -55t-39.5 -109z" />
<glyph unicode="2" d="M45 126v548q0 52 36.5 89t89.5 37h548q53 0 89.5 -37t36.5 -89v-548q0 -52 -36.5 -89t-89.5 -37h-548q-53 0 -89.5 37t-36.5 89zM70 135q0 -48 31 -79t79 -31h530q48 0 79 31t31 79v530q0 48 -31 79t-79 31h-530q-48 0 -79 -31t-31 -79v-530zM155 204v17q0 100 53 169.5 t125 69.5h299l-18 126h-299q-21 0 -21 23q0 9 5.5 16t14.5 7h342l63 -428h-564zM202 250h462l-25 164h-306q-52 0 -91.5 -55t-39.5 -109zM405 334q0 15 10.5 25.5t25.5 10.5t25.5 -10.5t10.5 -25.5t-10.5 -25.5t-25.5 -10.5t-25.5 10.5t-10.5 25.5z" />
<glyph unicode="3" d="M45 126v548q0 52 36.5 89t89.5 37h548q53 0 89.5 -37t36.5 -89v-548q0 -52 -36.5 -89t-89.5 -37h-548q-53 0 -89.5 37t-36.5 89zM70 135q0 -48 31 -79t79 -31h530q48 0 79 31t31 79v530q0 48 -31 79t-79 31h-530q-48 0 -79 -31t-31 -79v-530zM155 204v17q0 100 53 169.5 t125 69.5h299l-18 126h-299q-21 0 -21 23q0 9 5.5 16t14.5 7h342l63 -428h-564zM202 250h462l-25 164h-306q-52 0 -91.5 -55t-39.5 -109zM357 334q0 15 10.5 25.5t25.5 10.5t25.5 -10.5t10.5 -25.5t-10.5 -25.5t-25.5 -10.5t-25.5 10.5t-10.5 25.5zM453 334q0 15 10.5 25.5 t25.5 10.5t25.5 -10.5t10.5 -25.5t-10.5 -25.5t-25.5 -10.5t-25.5 10.5t-10.5 25.5z" />
<glyph unicode="4" d="M45 126v548q0 52 36.5 89t89.5 37h548q53 0 89.5 -37t36.5 -89v-548q0 -52 -36.5 -89t-89.5 -37h-548q-53 0 -89.5 37t-36.5 89zM70 135q0 -48 31 -79t79 -31h530q48 0 79 31t31 79v530q0 48 -31 79t-79 31h-530q-48 0 -79 -31t-31 -79v-530zM155 204v17q0 100 53 169.5 t125 69.5h299l-18 126h-299q-21 0 -21 23q0 9 5.5 16t14.5 7h342l63 -428h-564zM202 250h462l-25 164h-306q-52 0 -91.5 -55t-39.5 -109zM309 334q0 15 10.5 25.5t25.5 10.5t25.5 -10.5t10.5 -25.5t-10.5 -25.5t-25.5 -10.5t-25.5 10.5t-10.5 25.5zM405 334q0 15 10.5 25.5 t25.5 10.5t25.5 -10.5t10.5 -25.5t-10.5 -25.5t-25.5 -10.5t-25.5 10.5t-10.5 25.5zM501 334q0 15 10.5 25.5t25.5 10.5t25.5 -10.5t10.5 -25.5t-10.5 -25.5t-25.5 -10.5t-25.5 10.5t-10.5 25.5z" />
<glyph unicode="5" d="M45 126v548q0 52 36.5 89t89.5 37h548q53 0 89.5 -37t36.5 -89v-548q0 -52 -36.5 -89t-89.5 -37h-548q-53 0 -89.5 37t-36.5 89zM70 135q0 -48 31 -79t79 -31h530q48 0 79 31t31 79v530q0 48 -31 79t-79 31h-530q-48 0 -79 -31t-31 -79v-530zM155 204v17q0 100 53 169.5 t125 69.5h25l46 -46h-71q-52 0 -91.5 -55t-39.5 -109h65l-46 -46h-66zM200 169l231 231l-231 231l25 24l231 -230l230 230l24 -25l-230 -230l230 -230l-24 -25l-230 230l-231 -230zM294 609q0 9 5.5 16t14.5 7h335l-46 -46h-288q-21 0 -21 23zM297 204l46 46h225l46 -46 h-317zM433 460h44l-22 -22zM507 414l46 46h79l-10 69l43 43l54 -368h-30l-46 46h21l-25 164h-132z" />
<glyph unicode="6" d="M45 126v548q0 52 36.5 89t89.5 37h548q53 0 89.5 -37t36.5 -89v-548q0 -52 -36.5 -89t-89.5 -37h-548q-53 0 -89.5 37t-36.5 89zM70 135q0 -48 31 -79t79 -31h530q48 0 79 31t31 79v530q0 48 -31 79t-79 31h-530q-48 0 -79 -31t-31 -79v-530zM192 400q0 104 74 178.5 t178 74.5q105 0 179.5 -74.5t74.5 -178.5t-74.5 -178.5t-179.5 -74.5q-104 0 -178 74.5t-74 178.5zM238 400q0 -86 60.5 -147t145.5 -61q86 0 147.5 61.5t61.5 146.5t-61.5 146.5t-147.5 61.5q-85 0 -145.5 -61t-60.5 -147z" />
<glyph unicode="7" d="M45 126v548q0 52 36.5 89t89.5 37h548q53 0 89.5 -37t36.5 -89v-548q0 -52 -36.5 -89t-89.5 -37h-548q-53 0 -89.5 37t-36.5 89zM70 135q0 -48 31 -79t79 -31h530q48 0 79 31t31 79v530q0 48 -31 79t-79 31h-530q-48 0 -79 -31t-31 -79v-530zM192 400q0 104 74 178.5 t178 74.5q105 0 179.5 -74.5t74.5 -178.5t-74.5 -178.5t-179.5 -74.5q-104 0 -178 74.5t-74 178.5zM238 400q0 -86 60.5 -146.5t145.5 -60.5q86 0 147.5 61t61.5 146t-61.5 146.5t-147.5 61.5q-85 0 -145.5 -61t-60.5 -147zM366 271v253h82q54 0 83 -15t29 -63q0 -22 -7 -37 t-16.5 -23t-25.5 -12.5t-29 -5.5t-32 -1h-32v-96h-52zM418 410h45q45 0 45 35q0 36 -45 36h-45v-71z" />
<glyph unicode="8" d="M45 126v548q0 52 36.5 89t89.5 37h548q53 0 89.5 -37t36.5 -89v-548q0 -52 -36.5 -89t-89.5 -37h-548q-53 0 -89.5 37t-36.5 89zM70 135q0 -48 31 -79t79 -31h530q48 0 79 31t31 79v530q0 48 -31 79t-79 31h-530q-48 0 -79 -31t-31 -79v-530zM192 400q0 104 74 178.5 t178 74.5q105 0 179.5 -74.5t74.5 -178.5t-74.5 -178.5t-179.5 -74.5q-104 0 -178 74.5t-74 178.5zM238 400q0 -86 60.5 -147t145.5 -61q86 0 147.5 61.5t61.5 146.5t-61.5 146.5t-147.5 61.5q-85 0 -145.5 -61t-60.5 -147zM319 292l96 253h58l99 -253h-56l-22 58h-99 l-21 -58h-55zM410 393h69l-35 93z" />
<glyph unicode="9" d="M45 126v548q0 52 36.5 89t89.5 37h548q53 0 89.5 -37t36.5 -89v-548q0 -52 -36.5 -89t-89.5 -37h-548q-53 0 -89.5 37t-36.5 89zM70 135q0 -48 31 -79t79 -31h530q48 0 79 31t31 79v530q0 48 -31 79t-79 31h-530q-48 0 -79 -31t-31 -79v-530zM192 400q0 104 74 178.5 t178 74.5q105 0 179.5 -74.5t74.5 -178.5t-74.5 -178.5t-179.5 -74.5q-104 0 -178 74.5t-74 178.5zM238 400q0 -86 60.5 -147t145.5 -61q86 0 147.5 61.5t61.5 146.5t-61.5 146.5t-147.5 61.5q-85 0 -145.5 -61t-60.5 -147zM366 270v254h172v-44h-120v-58h104v-44h-104v-108 h-52z" />
<glyph unicode=":" d="M45 126v548q0 52 36.5 89t89.5 37h548q53 0 89.5 -37t36.5 -89v-548q0 -52 -36.5 -89t-89.5 -37h-548q-53 0 -89.5 37t-36.5 89zM192 590l70 -402h366l70 402h-37l-7 -46q-6 2 -16 2q-9 0 -24 -8.5t-24 -8.5t-24.5 8.5t-24.5 8.5t-24 -8.5t-24 -8.5t-24.5 8.5t-24.5 8.5 t-24 -8.5t-24 -8.5t-24.5 8.5t-24.5 8.5t-24 -8.5t-24 -8.5t-24.5 8.5t-24.5 8.5q-5 0 -13 -2l-8 46h-37zM243 511q2 1 7 1q9 0 24.5 -8.5t24.5 -8.5t24 8.5t24 8.5t24.5 -8.5t24.5 -8.5t24 8.5t24 8.5t24.5 -8.5t24.5 -8.5t24 8.5t24 8.5t24.5 -8.5t24.5 -8.5t24 8.5 t24 8.5q1 0 4.5 -0.5t4.5 -0.5l-50 -287h-304zM345 398h60l-55 -97h34l54 96v24h-93v-23zM458 361q0 -63 49 -63q50 0 50 63t-50 63q-49 0 -49 -63zM489 360q0 42 18 42q19 0 19 -41t-19 -41q-18 0 -18 40z" />
<glyph unicode=";" d="M45 126v548q0 52 36.5 89t89.5 37h548q53 0 89.5 -37t36.5 -89v-548q0 -52 -36.5 -89t-89.5 -37h-548q-53 0 -89.5 37t-36.5 89zM70 135q0 -48 31 -79t79 -31h530q48 0 79 31t31 79v530q0 48 -31 79t-79 31h-530q-48 0 -79 -31t-31 -79v-530zM192 590h37l8 -46q8 2 13 2 q9 0 24.5 -8.5t24.5 -8.5t24 8.5t24 8.5t24.5 -8.5t24.5 -8.5t24 8.5t24 8.5t24.5 -8.5t24.5 -8.5t24 8.5t24 8.5t24.5 -8.5t24.5 -8.5t24 8.5t24 8.5q10 0 16 -2l7 46h37l-70 -402h-366zM243 511l50 -287h304l50 287q-1 0 -4.5 0.5t-4.5 0.5q-9 0 -24 -8.5t-24 -8.5 t-24.5 8.5t-24.5 8.5t-24 -8.5t-24 -8.5t-24.5 8.5t-24.5 8.5t-24 -8.5t-24 -8.5t-24.5 8.5t-24.5 8.5t-24 -8.5t-24 -8.5t-24.5 8.5t-24.5 8.5q-5 0 -7 -1zM345 398v23h93v-24l-54 -96h-34l55 97h-60zM458 361q0 63 49 63q50 0 50 -63t-50 -63q-49 0 -49 63zM489 360 q0 -40 18 -40q19 0 19 41t-19 41q-18 0 -18 -42z" />
<glyph unicode="&#x3c;" d="M45 126v548q0 52 36.5 89t89.5 37h548q53 0 89.5 -37t36.5 -89v-548q0 -52 -36.5 -89t-89.5 -37h-548q-53 0 -89.5 37t-36.5 89z" />
<glyph unicode="=" d="M45 126v548q0 52 36.5 89t89.5 37h548q53 0 89.5 -37t36.5 -89v-548q0 -52 -36.5 -89t-89.5 -37h-548q-53 0 -89.5 37t-36.5 89zM70 135q0 -48 31 -79t79 -31h530q48 0 79 31t31 79v530q0 48 -31 79t-79 31h-530q-48 0 -79 -31t-31 -79v-530zM188 169l231 231l-231 231 l25 24l231 -230l230 230l24 -25l-230 -230l230 -230l-24 -25l-230 230l-231 -230zM192 400q0 89 53 156l32 -34q-39 -53 -39 -122q0 -68 40 -124l-33 -32q-53 67 -53 156zM288 201l32 32q57 -41 124 -41t124 41l32 -32q-68 -54 -156 -54t-156 54zM288 599q68 54 156 54 t156 -54l-32 -32q-57 41 -124 41t-124 -42zM611 276q42 57 42 124t-42 124l32 32q55 -68 55 -156q0 -89 -55 -157z" />
<glyph unicode="&#x3e;" d="M45 126v548q0 52 36.5 89t89.5 37h548q53 0 89.5 -37t36.5 -89v-548q0 -52 -36.5 -89t-89.5 -37h-548q-53 0 -89.5 37t-36.5 89z" />
<glyph unicode="?" d="M45 126v548q0 52 36.5 89t89.5 37h548q53 0 89.5 -37t36.5 -89v-548q0 -52 -36.5 -89t-89.5 -37h-548q-53 0 -89.5 37t-36.5 89zM192 590l70 -402h366l70 402h-37l-7 -46q-6 2 -16 2q-9 0 -24 -8.5t-24 -8.5t-24.5 8.5t-24.5 8.5t-24 -8.5t-24 -8.5t-24.5 8.5t-24.5 8.5 t-24 -8.5t-24 -8.5t-24.5 8.5t-24.5 8.5t-24 -8.5t-24 -8.5t-24.5 8.5t-24.5 8.5q-5 0 -13 -2l-8 46h-37zM243 511q2 1 7 1q9 0 24.5 -8.5t24.5 -8.5t24 8.5t24 8.5t24.5 -8.5t24.5 -8.5t24 8.5t24 8.5t24.5 -8.5t24.5 -8.5t24 8.5t24 8.5t24.5 -8.5t24.5 -8.5t24 8.5 t24 8.5q1 0 4.5 -0.5t4.5 -0.5l-50 -287h-304zM332 379q0 -39 38 -39q14 0 28 8q-3 -29 -34 -29q-15 0 -19 4l-3 -24q6 -2 21 -2q67 0 67 69q0 57 -50 57q-21 0 -34.5 -12.5t-13.5 -31.5zM363 380q0 22 17 22q19 0 19 -31q0 -2 -1 -5v-3q-6 -2 -14 -2q-21 0 -21 19zM450 360 q0 -63 49 -63q50 0 50 63t-50 63q-49 0 -49 -63zM481 359q0 42 18 42q19 0 19 -41t-19 -41q-18 0 -18 40z" />
<glyph unicode="@" d="M45 126v548q0 52 36.5 89t89.5 37h548q53 0 89.5 -37t36.5 -89v-548q0 -52 -36.5 -89t-89.5 -37h-548q-53 0 -89.5 37t-36.5 89zM155 204h564l-63 428h-342q-9 0 -14.5 -7t-5.5 -16q0 -23 21 -23h299l18 -126h-299q-72 0 -125 -69.5t-53 -169.5v-17zM202 250 q0 54 39.5 109t91.5 55h306l25 -164h-462zM405 334q0 -15 10.5 -25.5t25.5 -10.5t25.5 10.5t10.5 25.5t-10.5 25.5t-25.5 10.5t-25.5 -10.5t-10.5 -25.5z" />
<glyph unicode="A" d="M45 126v548q0 52 36.5 89t89.5 37h548q53 0 89.5 -37t36.5 -89v-548q0 -52 -36.5 -89t-89.5 -37h-548q-53 0 -89.5 37t-36.5 89zM192 176h506l-254 506zM270 222l174 356l176 -356h-350z" />
<glyph unicode="B" d="M45 126v548q0 52 36.5 89t89.5 37h548q53 0 89.5 -37t36.5 -89v-548q0 -52 -36.5 -89t-89.5 -37h-548q-53 0 -89.5 37t-36.5 89zM192 176h506l-254 506zM270 222l174 356l176 -356h-350zM361 314q0 -58 58 -58q39 0 50 38l-30 9q-4 -21 -23 -21q-21 0 -21 32t23 32 q17 0 20 -15l30 6q-12 35 -52 35q-26 0 -40.5 -15t-14.5 -43zM487 259h30v110h-30v-110z" />
<glyph unicode="C" d="M45 126v548q0 52 36.5 89t89.5 37h548q53 0 89.5 -37t36.5 -89v-548q0 -52 -36.5 -89t-89.5 -37h-548q-53 0 -89.5 37t-36.5 89zM192 176h506l-254 506zM270 222l174 356l35 -72l-142 -284h-67zM391 222l115 230l27 -53l-89 -177h-53zM498 222l61 123l61 -123h-122z" />
<glyph unicode="D" d="M45 126v548q0 52 36.5 89t89.5 37h548q53 0 89.5 -37t36.5 -89v-548q0 -52 -36.5 -89t-89.5 -37h-548q-53 0 -89.5 37t-36.5 89zM188 167l25 -24l231 230l230 -230l24 25l-230 230l223 223l-24 25l-223 -223l-223 223l-25 -24l223 -224zM205 202l108 108l58 118l-35 35z M265 176h358l-46 46h-266zM365 522l35 -35l44 91l44 -92l36 36l-80 160zM517 428l59 -116l109 -110l-132 262z" />
<glyph unicode="E" d="M45 126v548q0 52 36.5 89t89.5 37h548q53 0 89.5 -37t36.5 -89v-548q0 -52 -36.5 -89t-89.5 -37h-548q-53 0 -89.5 37t-36.5 89zM192 147h506v506h-506v-506zM233 187v426h425v-426h-425z" />
<glyph unicode="F" d="M45 126v548q0 52 36.5 89t89.5 37h548q53 0 89.5 -37t36.5 -89v-548q0 -52 -36.5 -89t-89.5 -37h-548q-53 0 -89.5 37t-36.5 89zM170 649l249 -249l-248 -249l25 -24l248 248l248 -248l24 25l-248 248l247 248l-24 25l-247 -248l-249 248zM192 191l41 41v333l-41 42v-416 zM231 653l40 -40h343l40 40h-423zM232 147h421l-40 40h-341zM658 227l40 -39v424l-40 -40v-345z" />
<glyph unicode="G" d="M45 126v548q0 52 36.5 89t89.5 37h548q53 0 89.5 -37t36.5 -89v-548q0 -52 -36.5 -89t-89.5 -37h-548q-53 0 -89.5 37t-36.5 89zM192 147h506v506h-506v-506zM233 187v184q10 -73 63 -125t126 -59h-189zM233 429v184h189q-73 -7 -126 -59t-63 -125zM270 400q0 72 51 124 t123 52q73 0 125 -52t52 -124t-52 -124t-125 -52q-72 0 -123 52t-51 124zM466 187q76 7 130 61t62 130v-191h-192zM466 613h192v-192q-7 76 -61.5 130t-130.5 62z" />
<glyph unicode="H" d="M45 126v548q0 52 36.5 89t89.5 37h548q53 0 89.5 -37t36.5 -89v-548q0 -52 -36.5 -89t-89.5 -37h-548q-53 0 -89.5 37t-36.5 89zM170 649l249 -249l-248 -249l25 -24l248 248l248 -248l24 25l-248 248l247 248l-24 25l-247 -248l-249 248zM192 188l41 41v142 q7 -57 41 -101l28 29q-32 46 -32 101q0 54 31 100l-28 27q-32 -43 -40 -98v138l-41 41v-420zM230 147h423l-40 40h-147q61 6 106 41l-28 28q-46 -32 -100 -32q-55 0 -102 34l-28 -28q49 -37 108 -43h-151zM233 653l40 -40h149q-57 -6 -106 -43l27 -27q44 33 101 33 q56 0 102 -33l27 27q-46 35 -107 43h150l40 40h-423zM586 503q35 -46 35 -103q0 -56 -33 -102l27 -28q35 48 43 108v-150l40 -40v427l-40 -40v-154q-6 58 -45 109z" />
<glyph unicode="I" d="M45 126v548q0 52 36.5 89t89.5 37h548q53 0 89.5 -37t36.5 -89v-548q0 -52 -36.5 -89t-89.5 -37h-548q-53 0 -89.5 37t-36.5 89zM192 147h506v506h-506v-506zM233 187v184q10 -73 63 -125t126 -59h-189zM233 429v184h189q-73 -7 -126 -59t-63 -125zM270 400q0 72 51 124 t123 52q73 0 125 -52t52 -124t-52 -124t-125 -52q-72 0 -123 52t-51 124zM408 400q0 -15 10.5 -25.5t25.5 -10.5t25.5 10.5t10.5 25.5t-10.5 25.5t-25.5 10.5t-25.5 -10.5t-10.5 -25.5zM466 187q76 7 130 61t62 130v-191h-192zM466 613h192v-192q-7 76 -61.5 130t-130.5 62z " />
<glyph unicode="J" d="M45 126v548q0 52 36.5 89t89.5 37h548q53 0 89.5 -37t36.5 -89v-548q0 -52 -36.5 -89t-89.5 -37h-548q-53 0 -89.5 37t-36.5 89zM192 147h506v506h-506v-506zM233 187v184q10 -73 63 -125t126 -59h-189zM233 429v184h189q-73 -7 -126 -59t-63 -125zM270 400q0 72 51 124 t123 52q73 0 125 -52t52 -124t-52 -124t-125 -52q-72 0 -123 52t-51 124zM360 400q0 -15 10.5 -25.5t25.5 -10.5t25.5 10.5t10.5 25.5t-10.5 25.5t-25.5 10.5t-25.5 -10.5t-10.5 -25.5zM456 400q0 -15 10.5 -25.5t25.5 -10.5t25.5 10.5t10.5 25.5t-10.5 25.5t-25.5 10.5 t-25.5 -10.5t-10.5 -25.5zM466 187q76 7 130 61t62 130v-191h-192zM466 613h192v-192q-7 76 -61.5 130t-130.5 62z" />
<glyph unicode="K" d="M45 126v548q0 52 36.5 89t89.5 37h548q53 0 89.5 -37t36.5 -89v-548q0 -52 -36.5 -89t-89.5 -37h-548q-53 0 -89.5 37t-36.5 89zM192 147h506v506h-506v-506zM233 187v184q10 -73 63 -125t126 -59h-189zM233 429v184h189q-73 -7 -126 -59t-63 -125zM270 400q0 72 51 124 t123 52q73 0 125 -52t52 -124t-52 -124t-125 -52q-72 0 -123 52t-51 124zM312 400q0 -15 10.5 -25.5t25.5 -10.5t25.5 10.5t10.5 25.5t-10.5 25.5t-25.5 10.5t-25.5 -10.5t-10.5 -25.5zM408 400q0 -15 10.5 -25.5t25.5 -10.5t25.5 10.5t10.5 25.5t-10.5 25.5t-25.5 10.5 t-25.5 -10.5t-10.5 -25.5zM466 187q76 7 130 61t62 130v-191h-192zM466 613h192v-192q-7 76 -61.5 130t-130.5 62zM504 400q0 -15 10.5 -25.5t25.5 -10.5t25.5 10.5t10.5 25.5t-10.5 25.5t-25.5 10.5t-25.5 -10.5t-10.5 -25.5z" />
<glyph unicode="L" d="M45 126v548q0 52 36.5 89t89.5 37h548q53 0 89.5 -37t36.5 -89v-548q0 -52 -36.5 -89t-89.5 -37h-548q-53 0 -89.5 37t-36.5 89zM192 109h506v36h-506v-36zM192 176h506v506h-506v-506zM233 216v184q10 -73 63 -125t126 -59h-189zM233 458v184h189q-73 -7 -126 -59 t-63 -125zM270 429q0 72 51 124t123 52q73 0 125 -52t52 -124t-52 -124t-125 -52q-72 0 -123 52t-51 124zM466 216q76 7 130 61t62 130v-191h-192zM466 642h192v-192q-7 76 -61.5 130t-130.5 62z" />
<glyph unicode="M" d="M45 126v548q0 52 36.5 89t89.5 37h548q53 0 89.5 -37t36.5 -89v-548q0 -52 -36.5 -89t-89.5 -37h-548q-53 0 -89.5 37t-36.5 89zM192 83h506v36h-506v-36zM192 145h506v36h-506v-36zM192 212h506v506h-506v-506zM233 252v184q10 -73 63 -125t126 -59h-189zM233 494v184 h189q-73 -7 -126 -59t-63 -125zM270 465q0 72 51 124t123 52q73 0 125 -52t52 -124t-52 -124t-125 -52q-72 0 -123 52t-51 124zM466 252q76 7 130 61t62 130v-191h-192zM466 678h192v-192q-7 76 -61.5 130t-130.5 62z" />
<glyph unicode="N" d="M45 126v548q0 52 36.5 89t89.5 37h548q53 0 89.5 -37t36.5 -89v-548q0 -52 -36.5 -89t-89.5 -37h-548q-53 0 -89.5 37t-36.5 89zM192 147h506v506h-506v-506zM233 187v344q70 -73 211 -73q64 0 121.5 19.5t92.5 55.5v-346h-425zM233 613h425q0 -48 -68.5 -83t-145.5 -35 q-78 0 -144.5 35t-66.5 83z" />
<glyph unicode="O" d="M45 126v548q0 52 36.5 89t89.5 37h548q53 0 89.5 -37t36.5 -89v-548q0 -52 -36.5 -89t-89.5 -37h-548q-53 0 -89.5 37t-36.5 89zM192 147h506v506h-506v-506zM233 187v426h425v-426h-425zM299 382h293v36h-293v-36z" />
<glyph unicode="P" d="M45 126v548q0 52 36.5 89t89.5 37h548q53 0 89.5 -37t36.5 -89v-548q0 -52 -36.5 -89t-89.5 -37h-548q-53 0 -89.5 37t-36.5 89zM192 147h506v506h-506v-506zM233 187v121l305 305h120v-426h-425zM233 364v59l190 190h59zM233 480v133h133z" />
<glyph unicode="Q" d="M45 126v548q0 52 36.5 89t89.5 37h548q53 0 89.5 -37t36.5 -89v-548q0 -52 -36.5 -89t-89.5 -37h-548q-53 0 -89.5 37t-36.5 89zM192 147h506v506h-506v-506zM233 187v426h425v-426h-425zM342 253h36v294h-36v-294zM426 253h36v294h-36v-294zM510 253h36v294h-36v-294z " />
<glyph unicode="R" d="M45 126v548q0 52 36.5 89t89.5 37h548q53 0 89.5 -37t36.5 -89v-548q0 -52 -36.5 -89t-89.5 -37h-548q-53 0 -89.5 37t-36.5 89zM188 169l25 -24l231 230l230 -230l24 25l-230 230l230 230l-24 25l-230 -230l-231 230l-25 -24l231 -231zM192 272h37q37 0 62 17l29 29 l58 105l-65 65h-121v-216zM220 302v156h101q29 0 29 -18q0 -5 -1 -7l-56 -100q-18 -31 -64 -31h-9zM355 269h98q10 0 25.5 4.5t25.5 8.5l10 5l-21 21q-15 -9 -40 -9h-66zM399 487l27 -26h37l30 30h-72q-10 0 -22 -4zM530 357l22 -21l53 94q16 28 39 28h26v-156h-85l30 -30 h83v216h-54q-30 0 -47 -17q-3 3 -8.5 7t-10 6.5t-4.5 1.5l-26 -25q26 -2 26 -24z" />
<glyph unicode="S" d="M45 126v548q0 52 36.5 89t89.5 37h548q53 0 89.5 -37t36.5 -89v-548q0 -52 -36.5 -89t-89.5 -37h-548q-53 0 -89.5 37t-36.5 89zM192 590l70 -402h366l70 402h-37l-7 -46q-6 2 -16 2q-9 0 -24 -8.5t-24 -8.5t-24.5 8.5t-24.5 8.5t-24 -8.5t-24 -8.5t-24.5 8.5t-24.5 8.5 t-24 -8.5t-24 -8.5t-24.5 8.5t-24.5 8.5t-24 -8.5t-24 -8.5t-24.5 8.5t-24.5 8.5q-5 0 -13 -2l-8 46h-37zM243 511q2 1 7 1q9 0 24.5 -8.5t24.5 -8.5t24 8.5t24 8.5t24.5 -8.5t24.5 -8.5t24 8.5t24 8.5t24.5 -8.5t24.5 -8.5t24 8.5t24 8.5t24.5 -8.5t24.5 -8.5t24 8.5 t24 8.5q1 0 4.5 -0.5t4.5 -0.5l-50 -287h-304z" />
<glyph unicode="T" d="M45 126v548q0 52 36.5 89t89.5 37h548q53 0 89.5 -37t36.5 -89v-548q0 -52 -36.5 -89t-89.5 -37h-548q-53 0 -89.5 37t-36.5 89zM192 590l70 -402h366l70 402h-37l-7 -46q-6 2 -16 2q-9 0 -24 -8.5t-24 -8.5t-24.5 8.5t-24.5 8.5t-24 -8.5t-24 -8.5t-24.5 8.5t-24.5 8.5 t-24 -8.5t-24 -8.5t-24.5 8.5t-24.5 8.5t-24 -8.5t-24 -8.5t-24.5 8.5t-24.5 8.5q-5 0 -13 -2l-8 46h-37zM243 511q2 1 7 1q9 0 24.5 -8.5t24.5 -8.5t24 8.5t24 8.5t24.5 -8.5t24.5 -8.5t24 8.5t24 8.5t24.5 -8.5t24.5 -8.5t24 8.5t24 8.5t24.5 -8.5t24.5 -8.5t24 8.5 t24 8.5q1 0 4.5 -0.5t4.5 -0.5l-50 -287h-304zM408 374q0 -15 10.5 -25.5t25.5 -10.5t25.5 10.5t10.5 25.5t-10.5 25.5t-25.5 10.5t-25.5 -10.5t-10.5 -25.5z" />
<glyph unicode="U" d="M45 126v548q0 52 36.5 89t89.5 37h548q53 0 89.5 -37t36.5 -89v-548q0 -52 -36.5 -89t-89.5 -37h-548q-53 0 -89.5 37t-36.5 89zM192 590l70 -402h366l70 402h-37l-7 -46q-6 2 -16 2q-9 0 -24 -8.5t-24 -8.5t-24.5 8.5t-24.5 8.5t-24 -8.5t-24 -8.5t-24.5 8.5t-24.5 8.5 t-24 -8.5t-24 -8.5t-24.5 8.5t-24.5 8.5t-24 -8.5t-24 -8.5t-24.5 8.5t-24.5 8.5q-5 0 -13 -2l-8 46h-37zM243 511q2 1 7 1q9 0 24.5 -8.5t24.5 -8.5t24 8.5t24 8.5t24.5 -8.5t24.5 -8.5t24 8.5t24 8.5t24.5 -8.5t24.5 -8.5t24 8.5t24 8.5t24.5 -8.5t24.5 -8.5t24 8.5 t24 8.5q1 0 4.5 -0.5t4.5 -0.5l-50 -287h-304zM360 374q0 -15 10.5 -25.5t25.5 -10.5t25.5 10.5t10.5 25.5t-10.5 25.5t-25.5 10.5t-25.5 -10.5t-10.5 -25.5zM456 374q0 -15 10.5 -25.5t25.5 -10.5t25.5 10.5t10.5 25.5t-10.5 25.5t-25.5 10.5t-25.5 -10.5t-10.5 -25.5z" />
<glyph unicode="V" d="M45 126v548q0 52 36.5 89t89.5 37h548q53 0 89.5 -37t36.5 -89v-548q0 -52 -36.5 -89t-89.5 -37h-548q-53 0 -89.5 37t-36.5 89zM192 590l70 -402h366l70 402h-37l-7 -46q-6 2 -16 2q-9 0 -24 -8.5t-24 -8.5t-24.5 8.5t-24.5 8.5t-24 -8.5t-24 -8.5t-24.5 8.5t-24.5 8.5 t-24 -8.5t-24 -8.5t-24.5 8.5t-24.5 8.5t-24 -8.5t-24 -8.5t-24.5 8.5t-24.5 8.5q-5 0 -13 -2l-8 46h-37zM243 511q2 1 7 1q9 0 24.5 -8.5t24.5 -8.5t24 8.5t24 8.5t24.5 -8.5t24.5 -8.5t24 8.5t24 8.5t24.5 -8.5t24.5 -8.5t24 8.5t24 8.5t24.5 -8.5t24.5 -8.5t24 8.5 t24 8.5q1 0 4.5 -0.5t4.5 -0.5l-50 -287h-304zM312 374q0 -15 10.5 -25.5t25.5 -10.5t25.5 10.5t10.5 25.5t-10.5 25.5t-25.5 10.5t-25.5 -10.5t-10.5 -25.5zM408 374q0 -15 10.5 -25.5t25.5 -10.5t25.5 10.5t10.5 25.5t-10.5 25.5t-25.5 10.5t-25.5 -10.5t-10.5 -25.5z M504 374q0 -15 10.5 -25.5t25.5 -10.5t25.5 10.5t10.5 25.5t-10.5 25.5t-25.5 10.5t-25.5 -10.5t-10.5 -25.5z" />
<glyph unicode="W" d="M45 126v548q0 52 36.5 89t89.5 37h548q53 0 89.5 -37t36.5 -89v-548q0 -52 -36.5 -89t-89.5 -37h-548q-53 0 -89.5 37t-36.5 89zM192 137h506v36h-506v-36zM192 618l70 -402h366l70 402h-37l-7 -46q-6 2 -16 2q-9 0 -24 -8.5t-24 -8.5t-24.5 8.5t-24.5 8.5t-24 -8.5 t-24 -8.5t-24.5 8.5t-24.5 8.5t-24 -8.5t-24 -8.5t-24.5 8.5t-24.5 8.5t-24 -8.5t-24 -8.5t-24.5 8.5t-24.5 8.5q-5 0 -13 -2l-8 46h-37zM243 539q2 1 7 1q9 0 24.5 -8.5t24.5 -8.5t24 8.5t24 8.5t24.5 -8.5t24.5 -8.5t24 8.5t24 8.5t24.5 -8.5t24.5 -8.5t24 8.5t24 8.5 t24.5 -8.5t24.5 -8.5t24 8.5t24 8.5q1 0 4.5 -0.5t4.5 -0.5l-50 -287h-304z" />
<glyph unicode="X" d="M45 126v548q0 52 36.5 89t89.5 37h548q53 0 89.5 -37t36.5 -89v-548q0 -52 -36.5 -89t-89.5 -37h-548q-53 0 -89.5 37t-36.5 89zM192 115h506v36h-506v-36zM192 177h506v36h-506v-36zM192 658l70 -402h366l70 402h-37l-7 -46q-6 2 -16 2q-9 0 -24 -8.5t-24 -8.5 t-24.5 8.5t-24.5 8.5t-24 -8.5t-24 -8.5t-24.5 8.5t-24.5 8.5t-24 -8.5t-24 -8.5t-24.5 8.5t-24.5 8.5t-24 -8.5t-24 -8.5t-24.5 8.5t-24.5 8.5q-5 0 -13 -2l-8 46h-37zM243 579q2 1 7 1q9 0 24.5 -8.5t24.5 -8.5t24 8.5t24 8.5t24.5 -8.5t24.5 -8.5t24 8.5t24 8.5 t24.5 -8.5t24.5 -8.5t24 8.5t24 8.5t24.5 -8.5t24.5 -8.5t24 8.5t24 8.5q1 0 4.5 -0.5t4.5 -0.5l-50 -287h-304z" />
<glyph unicode="Y" d="M45 126v548q0 52 36.5 89t89.5 37h548q53 0 89.5 -37t36.5 -89v-548q0 -52 -36.5 -89t-89.5 -37h-548q-53 0 -89.5 37t-36.5 89zM192 590l70 -402h366l70 402h-37l-7 -46q-6 2 -16 2q-6 0 -32 -13q0 9 -2 17l34 46q-82 49 -146 101l-32 -42q-7 2 -19 2q-49 0 -76 -40 l-50 -73q-6 -10 -7 -14q-2 -1 -9 -1q-9 0 -24.5 8.5t-24.5 8.5q-5 0 -13 -2l-8 46h-37zM243 511q2 1 7 1q9 0 24.5 -8.5t24.5 -8.5q7 0 13 3q4 -8 13 -15l-28 -40q-9 -12 -9 -26q0 -27 25 -39q0 -19 12.5 -30.5t30.5 -11.5q5 0 8 1q14 -17 35 -17q8 0 14 3q11 -11 30 -11 q21 0 36 19l109 155q2 3 5 9q7 0 22 8.5t23 8.5q1 0 4.5 -0.5t4.5 -0.5l-50 -287h-304zM315 417q0 7 3 11l91 130q0 1 -3 1q-5 0 -10 -5l-31 -45q-7 -7 -14 -7q-6 0 -11.5 4.5t-5.5 11.5t3 11l50 73q19 28 54 28q17 0 29 -6l27 36q42 -37 103 -72l-26 -35q5 -8 5 -16 q0 -17 -13 -36l-108 -155q-7 -8 -15 -8q-16 0 -16 16q0 6 3 11l47 69q-5 0 -7 5l-58 -85q-6 -8 -13 -8q-8 0 -13.5 5t-5.5 12q0 6 4 11l59 85q-5 0 -7 4l-66 -93q-5 -8 -14 -8q-16 0 -16 16q0 5 3 11l66 94l-8 4l-55 -79q-5 -8 -13 -8q-6 0 -12 5t-6 12z" />
<glyph unicode="Z" d="M45 126v548q0 52 36.5 89t89.5 37h548q53 0 89.5 -37t36.5 -89v-548q0 -52 -36.5 -89t-89.5 -37h-548q-53 0 -89.5 37t-36.5 89zM192 590l70 -402h366l70 402h-37l-7 -46q-6 2 -16 2q-9 0 -24 -8.5t-24 -8.5t-24.5 8.5t-24.5 8.5t-24 -8.5t-24 -8.5t-24.5 8.5t-24.5 8.5 t-24 -8.5t-24 -8.5t-24.5 8.5t-24.5 8.5t-24 -8.5t-24 -8.5t-24.5 8.5t-24.5 8.5q-5 0 -13 -2l-8 46h-37zM243 511q2 1 7 1q9 0 24.5 -8.5t24.5 -8.5t24 8.5t24 8.5t24.5 -8.5t24.5 -8.5t24 8.5t24 8.5t24.5 -8.5t24.5 -8.5t24 8.5t24 8.5t24.5 -8.5t24.5 -8.5t24 8.5 t24 8.5q1 0 4.5 -0.5t4.5 -0.5l-50 -287h-304zM331 306q14 -7 43 -7q52 0 52 39q0 23 -26 28q23 7 23 29q0 30 -48 30q-25 0 -41 -8v-26q28 10 37 10q22 0 22 -12q0 -13 -18 -13h-16v-21h6q30 0 30 -15q0 -17 -27 -17q-21 0 -34 10zM450 306q14 -7 40 -7q23 0 38 11t15 32 q0 38 -46 38q-2 0 -6.5 -0.5t-5.5 -0.5v20h55v23h-85v-68q4 0 13.5 2t14.5 2q29 0 29 -17q0 -18 -26 -18q-20 0 -33 10z" />
<glyph unicode="[" d="M45 126v548q0 52 36.5 89t89.5 37h548q53 0 89.5 -37t36.5 -89v-548q0 -52 -36.5 -89t-89.5 -37h-548q-53 0 -89.5 37t-36.5 89zM70 135q0 -48 31 -79t79 -31h530q48 0 79 31t31 79v530q0 48 -31 79t-79 31h-530q-48 0 -79 -31t-31 -79v-530zM192 590h37l8 -46q8 2 13 2 q9 0 24.5 -8.5t24.5 -8.5t24 8.5t24 8.5t24.5 -8.5t24.5 -8.5t24 8.5t24 8.5t24.5 -8.5t24.5 -8.5t24 8.5t24 8.5t24.5 -8.5t24.5 -8.5t24 8.5t24 8.5q10 0 16 -2l7 46h37l-70 -402h-366zM243 511l50 -287h304l50 287q-1 0 -4.5 0.5t-4.5 0.5q-9 0 -24 -8.5t-24 -8.5 t-24.5 8.5t-24.5 8.5t-24 -8.5t-24 -8.5t-24.5 8.5t-24.5 8.5t-24 -8.5t-24 -8.5t-24.5 8.5t-24.5 8.5t-24 -8.5t-24 -8.5t-24.5 8.5t-24.5 8.5q-5 0 -7 -1zM331 328v22l55 70h32v-70h16v-22h-16v-28h-30v28h-57zM354 350h34v42zM450 360q0 63 49 63q50 0 50 -63t-50 -63 q-49 0 -49 63zM481 359q0 -40 18 -40q19 0 19 41t-19 41q-18 0 -18 -42z" />
<glyph unicode="\" d="M45 126v548q0 52 36.5 89t89.5 37h548q53 0 89.5 -37t36.5 -89v-548q0 -52 -36.5 -89t-89.5 -37h-548q-53 0 -89.5 37t-36.5 89zM70 135q0 -48 31 -79t79 -31h530q48 0 79 31t31 79v530q0 48 -31 79t-79 31h-530q-48 0 -79 -31t-31 -79v-530zM192 590h37l8 -46q8 2 13 2 q9 0 24.5 -8.5t24.5 -8.5t24 8.5t24 8.5t24.5 -8.5t24.5 -8.5t24 8.5t24 8.5t24.5 -8.5t24.5 -8.5t24 8.5t24 8.5t24.5 -8.5t24.5 -8.5t24 8.5t24 8.5q10 0 16 -2l7 46h37l-70 -402h-366zM243 511l50 -287h304l50 287q-1 0 -4.5 0.5t-4.5 0.5q-9 0 -24 -8.5t-24 -8.5 t-24.5 8.5t-24.5 8.5t-24 -8.5t-24 -8.5t-24.5 8.5t-24.5 8.5t-24 -8.5t-24 -8.5t-24.5 8.5t-24.5 8.5t-24 -8.5t-24 -8.5t-24.5 8.5t-24.5 8.5q-5 0 -7 -1zM333 353q0 70 66 70q10 0 22 -3v-23h-4q-12 4 -19 4q-29 0 -34 -30q14 9 28 9q18 0 28.5 -11t10.5 -29 q0 -20 -13.5 -31.5t-35.5 -11.5q-49 0 -49 56zM364 348q0 -30 19 -30q17 0 17 21q0 20 -22 20q-2 0 -14 -3v-8zM448 360q0 63 49 63q50 0 50 -63t-50 -63q-49 0 -49 63zM479 359q0 -40 18 -40q19 0 19 41t-19 41q-18 0 -18 -42z" />
<glyph unicode="]" d="M45 126v548q0 52 36.5 89t89.5 37h548q53 0 89.5 -37t36.5 -89v-548q0 -52 -36.5 -89t-89.5 -37h-548q-53 0 -89.5 37t-36.5 89zM70 135q0 -48 31 -79t79 -31h530q48 0 79 31t31 79v530q0 48 -31 79t-79 31h-530q-48 0 -79 -31t-31 -79v-530zM192 590h37l8 -46q8 2 13 2 q9 0 24.5 -8.5t24.5 -8.5t24 8.5t24 8.5t24.5 -8.5t24.5 -8.5t24 8.5t24 8.5t24.5 -8.5t24.5 -8.5t24 8.5t24 8.5t24.5 -8.5t24.5 -8.5t24 8.5t24 8.5q10 0 16 -2l7 46h37l-70 -402h-366zM243 511l50 -287h304l50 287q-1 0 -4.5 0.5t-4.5 0.5q-9 0 -24 -8.5t-24 -8.5 t-24.5 8.5t-24.5 8.5t-24 -8.5t-24 -8.5t-24.5 8.5t-24.5 8.5t-24 -8.5t-24 -8.5t-24.5 8.5t-24.5 8.5t-24 -8.5t-24 -8.5t-24.5 8.5t-24.5 8.5q-5 0 -7 -1zM349 306l3 27q13 -10 33 -10q26 0 26 18q0 17 -29 17q-5 0 -14.5 -2t-13.5 -2v68h85v-23h-55v-20q1 0 5.5 0.5 t6.5 0.5q46 0 46 -38q0 -21 -15 -32t-38 -11q-26 0 -40 7zM462 362q0 63 49 63q50 0 50 -63t-50 -63q-49 0 -49 63zM493 361q0 -40 18 -40q19 0 19 41t-19 41q-18 0 -18 -42z" />
<glyph unicode="^" d="M45 126v548q0 52 36.5 89t89.5 37h548q53 0 89.5 -37t36.5 -89v-548q0 -52 -36.5 -89t-89.5 -37h-548q-53 0 -89.5 37t-36.5 89zM192 400q0 -104 74 -178.5t178 -74.5q105 0 179.5 74.5t74.5 178.5t-74.5 178.5t-179.5 74.5q-104 0 -178 -74.5t-74 -178.5zM238 400 q0 86 60.5 147t145.5 61q86 0 147.5 -61.5t61.5 -146.5t-61.5 -146.5t-147.5 -61.5q-85 0 -145.5 61t-60.5 147z" />
<glyph unicode="_" d="M45 126v548q0 52 36.5 89t89.5 37h548q53 0 89.5 -37t36.5 -89v-548q0 -52 -36.5 -89t-89.5 -37h-548q-53 0 -89.5 37t-36.5 89zM192 429q0 -104 74 -178.5t178 -74.5q105 0 179.5 74.5t74.5 178.5t-74.5 178.5t-179.5 74.5q-104 0 -178 -74.5t-74 -178.5zM213 109h464 v36h-464v-36zM238 429q0 86 60.5 147t145.5 61q86 0 147.5 -61.5t61.5 -146.5t-61.5 -146t-147.5 -61q-85 0 -145.5 60.5t-60.5 146.5zM366 300h52v108h104v43h-104v59h120v43h-172v-253z" />
<glyph unicode="`" d="M45 126v548q0 52 36.5 89t89.5 37h548q53 0 89.5 -37t36.5 -89v-548q0 -52 -36.5 -89t-89.5 -37h-548q-53 0 -89.5 37t-36.5 89zM70 135q0 -48 31 -79t79 -31h530q48 0 79 31t31 79v530q0 48 -31 79t-79 31h-530q-48 0 -79 -31t-31 -79v-530z" />
<glyph unicode="a" d="M45 126v548q0 52 36.5 89t89.5 37h548q53 0 89.5 -37t36.5 -89v-548q0 -52 -36.5 -89t-89.5 -37h-548q-53 0 -89.5 37t-36.5 89zM70 135q0 -48 31 -79t79 -31h530q48 0 79 31t31 79v530q0 48 -31 79t-79 31h-530q-48 0 -79 -31t-31 -79v-530zM192 176l252 506l254 -506 h-506zM270 222h350l-176 356z" />
<glyph unicode="b" d="M45 126v548q0 52 36.5 89t89.5 37h548q53 0 89.5 -37t36.5 -89v-548q0 -52 -36.5 -89t-89.5 -37h-548q-53 0 -89.5 37t-36.5 89zM70 135q0 -48 31 -79t79 -31h530q48 0 79 31t31 79v530q0 48 -31 79t-79 31h-530q-48 0 -79 -31t-31 -79v-530zM192 176l252 506l254 -506 h-506zM270 222h350l-176 356zM361 314q0 28 14.5 43t40.5 15q40 0 52 -35l-30 -6q-3 15 -20 15q-23 0 -23 -32t21 -32q19 0 23 21l30 -9q-11 -38 -50 -38q-58 0 -58 58zM487 259v110h30v-110h-30z" />
<glyph unicode="c" d="M45 126v548q0 52 36.5 89t89.5 37h548q53 0 89.5 -37t36.5 -89v-548q0 -52 -36.5 -89t-89.5 -37h-548q-53 0 -89.5 37t-36.5 89zM70 135q0 -48 31 -79t79 -31h530q48 0 79 31t31 79v530q0 48 -31 79t-79 31h-530q-48 0 -79 -31t-31 -79v-530zM192 176l252 506l254 -506 h-506zM270 222h67l142 284l-35 72zM391 222h53l89 177l-27 53zM498 222h122l-61 123z" />
<glyph unicode="d" d="M45 126v548q0 52 36.5 89t89.5 37h548q53 0 89.5 -37t36.5 -89v-548q0 -52 -36.5 -89t-89.5 -37h-548q-53 0 -89.5 37t-36.5 89zM70 135q0 -48 31 -79t79 -31h530q48 0 79 31t31 79v530q0 48 -31 79t-79 31h-530q-48 0 -79 -31t-31 -79v-530zM188 167l231 231l-223 224 l25 24l223 -223l223 223l24 -25l-223 -223l230 -230l-24 -25l-230 230l-231 -230zM205 202l131 261l35 -35l-58 -118zM265 176l46 46h266l46 -46h-358zM365 522l79 160l80 -160l-36 -36l-44 92l-44 -91zM517 428l36 36l132 -262l-109 110z" />
<glyph unicode="e" d="M45 126v548q0 52 36.5 89t89.5 37h548q53 0 89.5 -37t36.5 -89v-548q0 -52 -36.5 -89t-89.5 -37h-548q-53 0 -89.5 37t-36.5 89zM70 135q0 -48 31 -79t79 -31h530q48 0 79 31t31 79v530q0 48 -31 79t-79 31h-530q-48 0 -79 -31t-31 -79v-530zM192 147v506h506v-506h-506z M233 187h425v426h-425v-426z" />
<glyph unicode="f" d="M45 126v548q0 52 36.5 89t89.5 37h548q53 0 89.5 -37t36.5 -89v-548q0 -52 -36.5 -89t-89.5 -37h-548q-53 0 -89.5 37t-36.5 89zM70 135q0 -48 31 -79t79 -31h530q48 0 79 31t31 79v530q0 48 -31 79t-79 31h-530q-48 0 -79 -31t-31 -79v-530zM170 649l25 24l249 -248 l247 248l24 -25l-247 -248l248 -248l-24 -25l-248 248l-248 -248l-25 24l248 249zM192 191v416l41 -42v-333zM231 653h423l-40 -40h-343zM232 147l40 40h341l40 -40h-421zM658 227v345l40 40v-424z" />
<glyph unicode="g" d="M45 126v548q0 52 36.5 89t89.5 37h548q53 0 89.5 -37t36.5 -89v-548q0 -52 -36.5 -89t-89.5 -37h-548q-53 0 -89.5 37t-36.5 89zM70 135q0 -48 31 -79t79 -31h530q48 0 79 31t31 79v530q0 48 -31 79t-79 31h-530q-48 0 -79 -31t-31 -79v-530zM192 147v506h506v-506h-506z M233 187h189q-73 7 -126 59t-63 125v-184zM233 429q10 73 63 125t126 59h-189v-184zM270 400q0 -72 51 -124t123 -52q73 0 125 52t52 124t-52 124t-125 52q-72 0 -123 -52t-51 -124zM466 187h192v191q-8 -76 -62 -130t-130 -61zM466 613q76 -8 130.5 -62t61.5 -130v192h-192 z" />
<glyph unicode="h" d="M45 126v548q0 52 36.5 89t89.5 37h548q53 0 89.5 -37t36.5 -89v-548q0 -52 -36.5 -89t-89.5 -37h-548q-53 0 -89.5 37t-36.5 89zM70 135q0 -48 31 -79t79 -31h530q48 0 79 31t31 79v530q0 48 -31 79t-79 31h-530q-48 0 -79 -31t-31 -79v-530zM170 649l25 24l249 -248 l247 248l24 -25l-247 -248l248 -248l-24 -25l-248 248l-248 -248l-25 24l248 249zM192 188v420l41 -41v-138q8 55 40 98l28 -27q-31 -46 -31 -100q0 -55 32 -101l-28 -29q-34 44 -41 101v-142zM230 147l41 40h151q-59 6 -108 43l28 28q47 -34 102 -34q54 0 100 32l28 -28 q-45 -35 -106 -41h147l40 -40h-423zM233 653h423l-40 -40h-150q61 -8 107 -43l-27 -27q-46 33 -102 33q-57 0 -101 -33l-27 27q49 37 106 43h-149zM586 503l27 27q39 -51 45 -109v154l40 40v-427l-40 40v150q-8 -60 -43 -108l-27 28q33 46 33 102q0 57 -35 103z" />
<glyph unicode="i" d="M45 126v548q0 52 36.5 89t89.5 37h548q53 0 89.5 -37t36.5 -89v-548q0 -52 -36.5 -89t-89.5 -37h-548q-53 0 -89.5 37t-36.5 89zM70 135q0 -48 31 -79t79 -31h530q48 0 79 31t31 79v530q0 48 -31 79t-79 31h-530q-48 0 -79 -31t-31 -79v-530zM192 147v506h506v-506h-506z M233 187h189q-73 7 -126 59t-63 125v-184zM233 429q10 73 63 125t126 59h-189v-184zM270 400q0 -72 51 -124t123 -52q73 0 125 52t52 124t-52 124t-125 52q-72 0 -123 -52t-51 -124zM408 400q0 15 10.5 25.5t25.5 10.5t25.5 -10.5t10.5 -25.5t-10.5 -25.5t-25.5 -10.5 t-25.5 10.5t-10.5 25.5zM466 187h192v191q-8 -76 -62 -130t-130 -61zM466 613q76 -8 130.5 -62t61.5 -130v192h-192z" />
<glyph unicode="j" d="M45 126v548q0 52 36.5 89t89.5 37h548q53 0 89.5 -37t36.5 -89v-548q0 -52 -36.5 -89t-89.5 -37h-548q-53 0 -89.5 37t-36.5 89zM70 135q0 -48 31 -79t79 -31h530q48 0 79 31t31 79v530q0 48 -31 79t-79 31h-530q-48 0 -79 -31t-31 -79v-530zM192 147v506h506v-506h-506z M233 187h189q-73 7 -126 59t-63 125v-184zM233 429q10 73 63 125t126 59h-189v-184zM270 400q0 -72 51 -124t123 -52q73 0 125 52t52 124t-52 124t-125 52q-72 0 -123 -52t-51 -124zM360 400q0 15 10.5 25.5t25.5 10.5t25.5 -10.5t10.5 -25.5t-10.5 -25.5t-25.5 -10.5 t-25.5 10.5t-10.5 25.5zM456 400q0 15 10.5 25.5t25.5 10.5t25.5 -10.5t10.5 -25.5t-10.5 -25.5t-25.5 -10.5t-25.5 10.5t-10.5 25.5zM466 187h192v191q-8 -76 -62 -130t-130 -61zM466 613q76 -8 130.5 -62t61.5 -130v192h-192z" />
<glyph unicode="k" d="M45 126v548q0 52 36.5 89t89.5 37h548q53 0 89.5 -37t36.5 -89v-548q0 -52 -36.5 -89t-89.5 -37h-548q-53 0 -89.5 37t-36.5 89zM70 135q0 -48 31 -79t79 -31h530q48 0 79 31t31 79v530q0 48 -31 79t-79 31h-530q-48 0 -79 -31t-31 -79v-530zM192 147v506h506v-506h-506z M233 187h189q-73 7 -126 59t-63 125v-184zM233 429q10 73 63 125t126 59h-189v-184zM270 400q0 -72 51 -124t123 -52q73 0 125 52t52 124t-52 124t-125 52q-72 0 -123 -52t-51 -124zM312 400q0 15 10.5 25.5t25.5 10.5t25.5 -10.5t10.5 -25.5t-10.5 -25.5t-25.5 -10.5 t-25.5 10.5t-10.5 25.5zM408 400q0 15 10.5 25.5t25.5 10.5t25.5 -10.5t10.5 -25.5t-10.5 -25.5t-25.5 -10.5t-25.5 10.5t-10.5 25.5zM466 187h192v191q-8 -76 -62 -130t-130 -61zM466 613q76 -8 130.5 -62t61.5 -130v192h-192zM504 400q0 15 10.5 25.5t25.5 10.5 t25.5 -10.5t10.5 -25.5t-10.5 -25.5t-25.5 -10.5t-25.5 10.5t-10.5 25.5z" />
<glyph unicode="l" d="M45 126v548q0 52 36.5 89t89.5 37h548q53 0 89.5 -37t36.5 -89v-548q0 -52 -36.5 -89t-89.5 -37h-548q-53 0 -89.5 37t-36.5 89zM70 135q0 -48 31 -79t79 -31h530q48 0 79 31t31 79v530q0 48 -31 79t-79 31h-530q-48 0 -79 -31t-31 -79v-530zM192 109v36h506v-36h-506z M192 176v506h506v-506h-506zM233 216h189q-73 7 -126 59t-63 125v-184zM233 458q10 73 63 125t126 59h-189v-184zM270 429q0 -72 51 -124t123 -52q73 0 125 52t52 124t-52 124t-125 52q-72 0 -123 -52t-51 -124zM466 216h192v191q-8 -76 -62 -130t-130 -61zM466 642 q76 -8 130.5 -62t61.5 -130v192h-192z" />
<glyph unicode="m" d="M45 126v548q0 52 36.5 89t89.5 37h548q53 0 89.5 -37t36.5 -89v-548q0 -52 -36.5 -89t-89.5 -37h-548q-53 0 -89.5 37t-36.5 89zM70 135q0 -48 31 -79t79 -31h530q48 0 79 31t31 79v530q0 48 -31 79t-79 31h-530q-48 0 -79 -31t-31 -79v-530zM192 83v36h506v-36h-506z M192 145v36h506v-36h-506zM192 212v506h506v-506h-506zM233 252h189q-73 7 -126 59t-63 125v-184zM233 494q10 73 63 125t126 59h-189v-184zM270 465q0 -72 51 -124t123 -52q73 0 125 52t52 124t-52 124t-125 52q-72 0 -123 -52t-51 -124zM466 252h192v191q-8 -76 -62 -130 t-130 -61zM466 678q76 -8 130.5 -62t61.5 -130v192h-192z" />
<glyph unicode="n" d="M45 126v548q0 52 36.5 89t89.5 37h548q53 0 89.5 -37t36.5 -89v-548q0 -52 -36.5 -89t-89.5 -37h-548q-53 0 -89.5 37t-36.5 89zM70 135q0 -48 31 -79t79 -31h530q48 0 79 31t31 79v530q0 48 -31 79t-79 31h-530q-48 0 -79 -31t-31 -79v-530zM192 147v506h506v-506h-506z M233 187h425v346q-35 -36 -92.5 -55.5t-121.5 -19.5q-141 0 -211 73v-344zM233 613q0 -48 66.5 -83t144.5 -35q77 0 145.5 35t68.5 83h-425z" />
<glyph unicode="o" d="M45 126v548q0 52 36.5 89t89.5 37h548q53 0 89.5 -37t36.5 -89v-548q0 -52 -36.5 -89t-89.5 -37h-548q-53 0 -89.5 37t-36.5 89zM70 135q0 -48 31 -79t79 -31h530q48 0 79 31t31 79v530q0 48 -31 79t-79 31h-530q-48 0 -79 -31t-31 -79v-530zM192 147v506h506v-506h-506z M233 187h425v426h-425v-426zM299 382v36h293v-36h-293z" />
<glyph unicode="p" d="M45 126v548q0 52 36.5 89t89.5 37h548q53 0 89.5 -37t36.5 -89v-548q0 -52 -36.5 -89t-89.5 -37h-548q-53 0 -89.5 37t-36.5 89zM70 135q0 -48 31 -79t79 -31h530q48 0 79 31t31 79v530q0 48 -31 79t-79 31h-530q-48 0 -79 -31t-31 -79v-530zM192 147v506h506v-506h-506z M233 187h425v426h-120l-305 -305v-121zM233 364l249 249h-59l-190 -190v-59zM233 480l133 133h-133v-133z" />
<glyph unicode="q" d="M45 126v548q0 52 36.5 89t89.5 37h548q53 0 89.5 -37t36.5 -89v-548q0 -52 -36.5 -89t-89.5 -37h-548q-53 0 -89.5 37t-36.5 89zM70 135q0 -48 31 -79t79 -31h530q48 0 79 31t31 79v530q0 48 -31 79t-79 31h-530q-48 0 -79 -31t-31 -79v-530zM192 147v506h506v-506h-506z M233 187h425v426h-425v-426zM342 253v294h36v-294h-36zM426 253v294h36v-294h-36zM510 253v294h36v-294h-36z" />
<glyph unicode="r" d="M45 126v548q0 52 36.5 89t89.5 37h548q53 0 89.5 -37t36.5 -89v-548q0 -52 -36.5 -89t-89.5 -37h-548q-53 0 -89.5 37t-36.5 89zM70 135q0 -48 31 -79t79 -31h530q48 0 79 31t31 79v530q0 48 -31 79t-79 31h-530q-48 0 -79 -31t-31 -79v-530zM188 169l231 231l-231 231 l25 24l231 -230l230 230l24 -25l-230 -230l230 -230l-24 -25l-230 230l-231 -230zM192 272v216h121l65 -65l-58 -105l-29 -29q-25 -17 -62 -17h-37zM220 302h9q46 0 64 31l56 100q1 2 1 7q0 18 -29 18h-101v-156zM355 269l32 30h66q25 0 40 9l21 -21q-38 -18 -61 -18h-98z M399 487q12 4 22 4h72l-30 -30h-37zM530 357l44 80q0 22 -26 24l26 25q0 1 4.5 -1.5t10 -6.5t8.5 -7q17 17 47 17h54v-216h-83l-30 30h85v156h-26q-23 0 -39 -28l-53 -94q-22 20 -22 21z" />
<glyph unicode="s" d="M45 126v548q0 52 36.5 89t89.5 37h548q53 0 89.5 -37t36.5 -89v-548q0 -52 -36.5 -89t-89.5 -37h-548q-53 0 -89.5 37t-36.5 89zM70 135q0 -48 31 -79t79 -31h530q48 0 79 31t31 79v530q0 48 -31 79t-79 31h-530q-48 0 -79 -31t-31 -79v-530zM192 590h37l8 -46q8 2 13 2 q9 0 24.5 -8.5t24.5 -8.5t24 8.5t24 8.5t24.5 -8.5t24.5 -8.5t24 8.5t24 8.5t24.5 -8.5t24.5 -8.5t24 8.5t24 8.5t24.5 -8.5t24.5 -8.5t24 8.5t24 8.5q10 0 16 -2l7 46h37l-70 -402h-366zM243 511l50 -287h304l50 287q-1 0 -4.5 0.5t-4.5 0.5q-9 0 -24 -8.5t-24 -8.5 t-24.5 8.5t-24.5 8.5t-24 -8.5t-24 -8.5t-24.5 8.5t-24.5 8.5t-24 -8.5t-24 -8.5t-24.5 8.5t-24.5 8.5t-24 -8.5t-24 -8.5t-24.5 8.5t-24.5 8.5q-5 0 -7 -1z" />
<glyph unicode="t" d="M45 126v548q0 52 36.5 89t89.5 37h548q53 0 89.5 -37t36.5 -89v-548q0 -52 -36.5 -89t-89.5 -37h-548q-53 0 -89.5 37t-36.5 89zM70 135q0 -48 31 -79t79 -31h530q48 0 79 31t31 79v530q0 48 -31 79t-79 31h-530q-48 0 -79 -31t-31 -79v-530zM192 590h37l8 -46q8 2 13 2 q9 0 24.5 -8.5t24.5 -8.5t24 8.5t24 8.5t24.5 -8.5t24.5 -8.5t24 8.5t24 8.5t24.5 -8.5t24.5 -8.5t24 8.5t24 8.5t24.5 -8.5t24.5 -8.5t24 8.5t24 8.5q10 0 16 -2l7 46h37l-70 -402h-366zM243 511l50 -287h304l50 287q-1 0 -4.5 0.5t-4.5 0.5q-9 0 -24 -8.5t-24 -8.5 t-24.5 8.5t-24.5 8.5t-24 -8.5t-24 -8.5t-24.5 8.5t-24.5 8.5t-24 -8.5t-24 -8.5t-24.5 8.5t-24.5 8.5t-24 -8.5t-24 -8.5t-24.5 8.5t-24.5 8.5q-5 0 -7 -1zM408 374q0 15 10.5 25.5t25.5 10.5t25.5 -10.5t10.5 -25.5t-10.5 -25.5t-25.5 -10.5t-25.5 10.5t-10.5 25.5z" />
<glyph unicode="u" d="M45 126v548q0 52 36.5 89t89.5 37h548q53 0 89.5 -37t36.5 -89v-548q0 -52 -36.5 -89t-89.5 -37h-548q-53 0 -89.5 37t-36.5 89zM70 135q0 -48 31 -79t79 -31h530q48 0 79 31t31 79v530q0 48 -31 79t-79 31h-530q-48 0 -79 -31t-31 -79v-530zM192 590h37l8 -46q8 2 13 2 q9 0 24.5 -8.5t24.5 -8.5t24 8.5t24 8.5t24.5 -8.5t24.5 -8.5t24 8.5t24 8.5t24.5 -8.5t24.5 -8.5t24 8.5t24 8.5t24.5 -8.5t24.5 -8.5t24 8.5t24 8.5q10 0 16 -2l7 46h37l-70 -402h-366zM243 511l50 -287h304l50 287q-1 0 -4.5 0.5t-4.5 0.5q-9 0 -24 -8.5t-24 -8.5 t-24.5 8.5t-24.5 8.5t-24 -8.5t-24 -8.5t-24.5 8.5t-24.5 8.5t-24 -8.5t-24 -8.5t-24.5 8.5t-24.5 8.5t-24 -8.5t-24 -8.5t-24.5 8.5t-24.5 8.5q-5 0 -7 -1zM360 374q0 15 10.5 25.5t25.5 10.5t25.5 -10.5t10.5 -25.5t-10.5 -25.5t-25.5 -10.5t-25.5 10.5t-10.5 25.5z M456 374q0 15 10.5 25.5t25.5 10.5t25.5 -10.5t10.5 -25.5t-10.5 -25.5t-25.5 -10.5t-25.5 10.5t-10.5 25.5z" />
<glyph unicode="v" d="M45 126v548q0 52 36.5 89t89.5 37h548q53 0 89.5 -37t36.5 -89v-548q0 -52 -36.5 -89t-89.5 -37h-548q-53 0 -89.5 37t-36.5 89zM70 135q0 -48 31 -79t79 -31h530q48 0 79 31t31 79v530q0 48 -31 79t-79 31h-530q-48 0 -79 -31t-31 -79v-530zM192 590h37l8 -46q8 2 13 2 q9 0 24.5 -8.5t24.5 -8.5t24 8.5t24 8.5t24.5 -8.5t24.5 -8.5t24 8.5t24 8.5t24.5 -8.5t24.5 -8.5t24 8.5t24 8.5t24.5 -8.5t24.5 -8.5t24 8.5t24 8.5q10 0 16 -2l7 46h37l-70 -402h-366zM243 511l50 -287h304l50 287q-1 0 -4.5 0.5t-4.5 0.5q-9 0 -24 -8.5t-24 -8.5 t-24.5 8.5t-24.5 8.5t-24 -8.5t-24 -8.5t-24.5 8.5t-24.5 8.5t-24 -8.5t-24 -8.5t-24.5 8.5t-24.5 8.5t-24 -8.5t-24 -8.5t-24.5 8.5t-24.5 8.5q-5 0 -7 -1zM312 374q0 15 10.5 25.5t25.5 10.5t25.5 -10.5t10.5 -25.5t-10.5 -25.5t-25.5 -10.5t-25.5 10.5t-10.5 25.5z M408 374q0 15 10.5 25.5t25.5 10.5t25.5 -10.5t10.5 -25.5t-10.5 -25.5t-25.5 -10.5t-25.5 10.5t-10.5 25.5zM504 374q0 15 10.5 25.5t25.5 10.5t25.5 -10.5t10.5 -25.5t-10.5 -25.5t-25.5 -10.5t-25.5 10.5t-10.5 25.5z" />
<glyph unicode="w" d="M45 126v548q0 52 36.5 89t89.5 37h548q53 0 89.5 -37t36.5 -89v-548q0 -52 -36.5 -89t-89.5 -37h-548q-53 0 -89.5 37t-36.5 89zM70 135q0 -48 31 -79t79 -31h530q48 0 79 31t31 79v530q0 48 -31 79t-79 31h-530q-48 0 -79 -31t-31 -79v-530zM192 137v36h506v-36h-506z M192 618h37l8 -46q8 2 13 2q9 0 24.5 -8.5t24.5 -8.5t24 8.5t24 8.5t24.5 -8.5t24.5 -8.5t24 8.5t24 8.5t24.5 -8.5t24.5 -8.5t24 8.5t24 8.5t24.5 -8.5t24.5 -8.5t24 8.5t24 8.5q10 0 16 -2l7 46h37l-70 -402h-366zM243 539l50 -287h304l50 287q-1 0 -4.5 0.5t-4.5 0.5 q-9 0 -24 -8.5t-24 -8.5t-24.5 8.5t-24.5 8.5t-24 -8.5t-24 -8.5t-24.5 8.5t-24.5 8.5t-24 -8.5t-24 -8.5t-24.5 8.5t-24.5 8.5t-24 -8.5t-24 -8.5t-24.5 8.5t-24.5 8.5q-5 0 -7 -1z" />
<glyph unicode="x" d="M45 126v548q0 52 36.5 89t89.5 37h548q53 0 89.5 -37t36.5 -89v-548q0 -52 -36.5 -89t-89.5 -37h-548q-53 0 -89.5 37t-36.5 89zM70 135q0 -48 31 -79t79 -31h530q48 0 79 31t31 79v530q0 48 -31 79t-79 31h-530q-48 0 -79 -31t-31 -79v-530zM192 115v36h506v-36h-506z M192 177v36h506v-36h-506zM192 658h37l8 -46q8 2 13 2q9 0 24.5 -8.5t24.5 -8.5t24 8.5t24 8.5t24.5 -8.5t24.5 -8.5t24 8.5t24 8.5t24.5 -8.5t24.5 -8.5t24 8.5t24 8.5t24.5 -8.5t24.5 -8.5t24 8.5t24 8.5q10 0 16 -2l7 46h37l-70 -402h-366zM243 579l50 -287h304l50 287 q-1 0 -4.5 0.5t-4.5 0.5q-9 0 -24 -8.5t-24 -8.5t-24.5 8.5t-24.5 8.5t-24 -8.5t-24 -8.5t-24.5 8.5t-24.5 8.5t-24 -8.5t-24 -8.5t-24.5 8.5t-24.5 8.5t-24 -8.5t-24 -8.5t-24.5 8.5t-24.5 8.5q-5 0 -7 -1z" />
<glyph unicode="y" d="M45 126v548q0 52 36.5 89t89.5 37h548q53 0 89.5 -37t36.5 -89v-548q0 -52 -36.5 -89t-89.5 -37h-548q-53 0 -89.5 37t-36.5 89zM70 135q0 -48 31 -79t79 -31h530q48 0 79 31t31 79v530q0 48 -31 79t-79 31h-530q-48 0 -79 -31t-31 -79v-530zM192 590h37l8 -46q8 2 13 2 q9 0 24.5 -8.5t24.5 -8.5q7 0 9 1q1 4 7 14l50 73q8 11 19 20t26 14.5t31 5.5q12 0 19 -2l32 42q41 -33 68 -52t78 -49l-34 -46q2 -8 2 -17q26 13 32 13q10 0 16 -2l7 46h37l-70 -402h-366zM243 511l50 -287h304l50 287q-1 0 -4.5 0.5t-4.5 0.5q-8 0 -23 -8.5t-22 -8.5 q-3 -6 -5 -9l-109 -155q-15 -19 -36 -19q-19 0 -30 11q-6 -3 -14 -3q-21 0 -35 17q-3 -1 -8 -1q-18 0 -30.5 11.5t-12.5 30.5q-25 13 -25 39q0 14 9 26l28 40q-9 7 -13 15q-6 -3 -13 -3q-9 0 -24.5 8.5t-24.5 8.5q-5 0 -7 -1zM315 417q0 -7 6 -12t12 -5q8 0 13 8l55 79l8 -4 l-66 -94q-3 -6 -3 -11q0 -16 16 -16q9 0 14 8l66 93q2 -4 7 -4l-59 -85q-4 -5 -4 -11q0 -7 5.5 -12t13.5 -5q7 0 13 8l58 85q2 -5 7 -5l-47 -69q-3 -5 -3 -11q0 -16 16 -16q8 0 15 8l108 155q13 19 13 36q0 8 -5 16l26 35q-61 35 -103 72l-27 -36q-12 6 -29 6q-35 0 -54 -28 l-50 -73q-3 -4 -3 -11t5.5 -11.5t11.5 -4.5q7 0 14 7l31 45q5 5 10 5q3 0 3 -1l-91 -130q-3 -4 -3 -11z" />
<glyph unicode="z" d="M45 126v548q0 52 36.5 89t89.5 37h548q53 0 89.5 -37t36.5 -89v-548q0 -52 -36.5 -89t-89.5 -37h-548q-53 0 -89.5 37t-36.5 89zM70 135q0 -48 31 -79t79 -31h530q48 0 79 31t31 79v530q0 48 -31 79t-79 31h-530q-48 0 -79 -31t-31 -79v-530zM192 590h37l8 -46q8 2 13 2 q9 0 24.5 -8.5t24.5 -8.5t24 8.5t24 8.5t24.5 -8.5t24.5 -8.5t24 8.5t24 8.5t24.5 -8.5t24.5 -8.5t24 8.5t24 8.5t24.5 -8.5t24.5 -8.5t24 8.5t24 8.5q10 0 16 -2l7 46h37l-70 -402h-366zM243 511l50 -287h304l50 287q-1 0 -4.5 0.5t-4.5 0.5q-9 0 -24 -8.5t-24 -8.5 t-24.5 8.5t-24.5 8.5t-24 -8.5t-24 -8.5t-24.5 8.5t-24.5 8.5t-24 -8.5t-24 -8.5t-24.5 8.5t-24.5 8.5t-24 -8.5t-24 -8.5t-24.5 8.5t-24.5 8.5q-5 0 -7 -1zM331 306l3 27q13 -10 34 -10q27 0 27 17q0 15 -30 15h-6v21h16q18 0 18 13q0 12 -22 12q-9 0 -37 -10v26q16 8 41 8 q48 0 48 -30q0 -22 -23 -29q26 -5 26 -28q0 -39 -52 -39q-29 0 -43 7zM450 306l3 27q13 -10 33 -10q26 0 26 18q0 17 -29 17q-5 0 -14.5 -2t-13.5 -2v68h85v-23h-55v-20q1 0 5.5 0.5t6.5 0.5q46 0 46 -38q0 -21 -15 -32t-38 -11q-26 0 -40 7z" />
<glyph unicode="{" d="M45 126v548q0 52 36.5 89t89.5 37h548q53 0 89.5 -37t36.5 -89v-548q0 -52 -36.5 -89t-89.5 -37h-548q-53 0 -89.5 37t-36.5 89zM192 590l70 -402h366l70 402h-37l-7 -46q-6 2 -16 2q-9 0 -24 -8.5t-24 -8.5t-24.5 8.5t-24.5 8.5t-24 -8.5t-24 -8.5t-24.5 8.5t-24.5 8.5 t-24 -8.5t-24 -8.5t-24.5 8.5t-24.5 8.5t-24 -8.5t-24 -8.5t-24.5 8.5t-24.5 8.5q-5 0 -13 -2l-8 46h-37zM243 511q2 1 7 1q9 0 24.5 -8.5t24.5 -8.5t24 8.5t24 8.5t24.5 -8.5t24.5 -8.5t24 8.5t24 8.5t24.5 -8.5t24.5 -8.5t24 8.5t24 8.5t24.5 -8.5t24.5 -8.5t24 8.5 t24 8.5q1 0 4.5 -0.5t4.5 -0.5l-50 -287h-304zM331 328h57v-28h30v28h16v22h-16v70h-32l-55 -70v-22zM354 350l34 42v-42h-34zM450 360q0 -63 49 -63q50 0 50 63t-50 63q-49 0 -49 -63zM481 359q0 42 18 42q19 0 19 -41t-19 -41q-18 0 -18 40z" />
<glyph unicode="|" d="M45 126v548q0 52 36.5 89t89.5 37h548q53 0 89.5 -37t36.5 -89v-548q0 -52 -36.5 -89t-89.5 -37h-548q-53 0 -89.5 37t-36.5 89z" />
<glyph unicode="}" d="M45 126v548q0 52 36.5 89t89.5 37h548q53 0 89.5 -37t36.5 -89v-548q0 -52 -36.5 -89t-89.5 -37h-548q-53 0 -89.5 37t-36.5 89zM192 590l70 -402h366l70 402h-37l-7 -46q-6 2 -16 2q-9 0 -24 -8.5t-24 -8.5t-24.5 8.5t-24.5 8.5t-24 -8.5t-24 -8.5t-24.5 8.5t-24.5 8.5 t-24 -8.5t-24 -8.5t-24.5 8.5t-24.5 8.5t-24 -8.5t-24 -8.5t-24.5 8.5t-24.5 8.5q-5 0 -13 -2l-8 46h-37zM243 511q2 1 7 1q9 0 24.5 -8.5t24.5 -8.5t24 8.5t24 8.5t24.5 -8.5t24.5 -8.5t24 8.5t24 8.5t24.5 -8.5t24.5 -8.5t24 8.5t24 8.5t24.5 -8.5t24.5 -8.5t24 8.5 t24 8.5q1 0 4.5 -0.5t4.5 -0.5l-50 -287h-304zM349 306q14 -7 40 -7q23 0 38 11t15 32q0 38 -46 38q-2 0 -6.5 -0.5t-5.5 -0.5v20h55v23h-85v-68q4 0 13.5 2t14.5 2q29 0 29 -17q0 -18 -26 -18q-20 0 -33 10zM462 362q0 -63 49 -63q50 0 50 63t-50 63q-49 0 -49 -63z M493 361q0 42 18 42q19 0 19 -41t-19 -41q-18 0 -18 40z" />
<glyph unicode="~" d="M45 126v548q0 52 36.5 89t89.5 37h548q53 0 89.5 -37t36.5 -89v-548q0 -52 -36.5 -89t-89.5 -37h-548q-53 0 -89.5 37t-36.5 89z" />
<glyph unicode="&#xa0;" />
<glyph unicode="&#xa6;" d="M45 126v548q0 52 36.5 89t89.5 37h548q53 0 89.5 -37t36.5 -89v-548q0 -52 -36.5 -89t-89.5 -37h-548q-53 0 -89.5 37t-36.5 89zM192 590l70 -402h366l70 402h-37l-7 -46q-6 2 -16 2q-9 0 -24 -8.5t-24 -8.5t-24.5 8.5t-24.5 8.5t-24 -8.5t-24 -8.5t-24.5 8.5t-24.5 8.5 t-24 -8.5t-24 -8.5t-24.5 8.5t-24.5 8.5t-24 -8.5t-24 -8.5t-24.5 8.5t-24.5 8.5q-5 0 -13 -2l-8 46h-37zM243 511q2 1 7 1q9 0 24.5 -8.5t24.5 -8.5t24 8.5t24 8.5t24.5 -8.5t24.5 -8.5t24 8.5t24 8.5t24.5 -8.5t24.5 -8.5t24 8.5t24 8.5t24.5 -8.5t24.5 -8.5t24 8.5 t24 8.5q1 0 4.5 -0.5t4.5 -0.5l-50 -287h-304zM333 353q0 -56 49 -56q22 0 35.5 11.5t13.5 31.5q0 18 -10.5 29t-28.5 11q-14 0 -28 -9q5 30 34 30q7 0 19 -4h4v23q-12 3 -22 3q-66 0 -66 -70zM364 348v8q12 3 14 3q22 0 22 -20q0 -21 -17 -21q-19 0 -19 30zM448 360 q0 -63 49 -63q50 0 50 63t-50 63q-49 0 -49 -63zM479 359q0 42 18 42q19 0 19 -41t-19 -41q-18 0 -18 40z" />
<glyph unicode="&#xad;" d="M45 126v548q0 52 36.5 89t89.5 37h548q53 0 89.5 -37t36.5 -89v-548q0 -52 -36.5 -89t-89.5 -37h-548q-53 0 -89.5 37t-36.5 89zM70 135q0 -48 31 -79t79 -31h530q48 0 79 31t31 79v530q0 48 -31 79t-79 31h-530q-48 0 -79 -31t-31 -79v-530zM192 429q0 104 74 178.5 t178 74.5q105 0 179.5 -74.5t74.5 -178.5t-74.5 -178.5t-179.5 -74.5q-104 0 -178 74.5t-74 178.5zM213 109v36h464v-36h-464zM238 429q0 -86 60.5 -146.5t145.5 -60.5q86 0 147.5 61t61.5 146t-61.5 146.5t-147.5 61.5q-85 0 -145.5 -61t-60.5 -147zM366 300v253h172v-43 h-120v-59h104v-43h-104v-108h-52z" />
<glyph unicode="&#x2000;" horiz-adv-x="400" />
<glyph unicode="&#x2001;" horiz-adv-x="800" />
<glyph unicode="&#x2002;" horiz-adv-x="400" />
<glyph unicode="&#x2003;" horiz-adv-x="800" />
<glyph unicode="&#x2004;" horiz-adv-x="266" />
<glyph unicode="&#x2005;" horiz-adv-x="200" />
<glyph unicode="&#x2006;" horiz-adv-x="133" />
<glyph unicode="&#x2007;" horiz-adv-x="133" />
<glyph unicode="&#x2008;" horiz-adv-x="100" />
<glyph unicode="&#x2009;" horiz-adv-x="160" />
<glyph unicode="&#x200a;" horiz-adv-x="44" />
<glyph unicode="&#x2010;" d="M45 126v548q0 52 36.5 89t89.5 37h548q53 0 89.5 -37t36.5 -89v-548q0 -52 -36.5 -89t-89.5 -37h-548q-53 0 -89.5 37t-36.5 89zM70 135q0 -48 31 -79t79 -31h530q48 0 79 31t31 79v530q0 48 -31 79t-79 31h-530q-48 0 -79 -31t-31 -79v-530zM192 429q0 104 74 178.5 t178 74.5q105 0 179.5 -74.5t74.5 -178.5t-74.5 -178.5t-179.5 -74.5q-104 0 -178 74.5t-74 178.5zM213 109v36h464v-36h-464zM238 429q0 -86 60.5 -146.5t145.5 -60.5q86 0 147.5 61t61.5 146t-61.5 146.5t-147.5 61.5q-85 0 -145.5 -61t-60.5 -147zM366 300v253h172v-43 h-120v-59h104v-43h-104v-108h-52z" />
<glyph unicode="&#x2011;" d="M45 126v548q0 52 36.5 89t89.5 37h548q53 0 89.5 -37t36.5 -89v-548q0 -52 -36.5 -89t-89.5 -37h-548q-53 0 -89.5 37t-36.5 89zM70 135q0 -48 31 -79t79 -31h530q48 0 79 31t31 79v530q0 48 -31 79t-79 31h-530q-48 0 -79 -31t-31 -79v-530zM192 429q0 104 74 178.5 t178 74.5q105 0 179.5 -74.5t74.5 -178.5t-74.5 -178.5t-179.5 -74.5q-104 0 -178 74.5t-74 178.5zM213 109v36h464v-36h-464zM238 429q0 -86 60.5 -146.5t145.5 -60.5q86 0 147.5 61t61.5 146t-61.5 146.5t-147.5 61.5q-85 0 -145.5 -61t-60.5 -147zM366 300v253h172v-43 h-120v-59h104v-43h-104v-108h-52z" />
<glyph unicode="&#x2012;" d="M45 126v548q0 52 36.5 89t89.5 37h548q53 0 89.5 -37t36.5 -89v-548q0 -52 -36.5 -89t-89.5 -37h-548q-53 0 -89.5 37t-36.5 89zM70 135q0 -48 31 -79t79 -31h530q48 0 79 31t31 79v530q0 48 -31 79t-79 31h-530q-48 0 -79 -31t-31 -79v-530zM192 429q0 104 74 178.5 t178 74.5q105 0 179.5 -74.5t74.5 -178.5t-74.5 -178.5t-179.5 -74.5q-104 0 -178 74.5t-74 178.5zM213 109v36h464v-36h-464zM238 429q0 -86 60.5 -146.5t145.5 -60.5q86 0 147.5 61t61.5 146t-61.5 146.5t-147.5 61.5q-85 0 -145.5 -61t-60.5 -147zM366 300v253h172v-43 h-120v-59h104v-43h-104v-108h-52z" />
<glyph unicode="&#x2013;" horiz-adv-x="590" d="M45 126v548q0 52 23 89t56 37h342q33 0 56 -37t23 -89v-548q0 -52 -23 -89t-56 -37h-342q-33 0 -56 37t-23 89zM61 135q0 -48 19 -79t49 -31h332q30 0 49 31t19 79v530q0 48 -19 79t-49 31h-332q-30 0 -49 -31t-19 -79v-530zM137 429q0 104 46 178.5t111 74.5 q66 0 112.5 -74.5t46.5 -178.5t-46.5 -178.5t-112.5 -74.5q-65 0 -111 74.5t-46 178.5zM150 109v36h290v-36h-290zM166 429q0 -86 37.5 -146.5t90.5 -60.5q54 0 92.5 61t38.5 146t-38.5 146.5t-92.5 61.5q-53 0 -90.5 -61t-37.5 -147zM246 300v253h107v-43h-75v-59h65v-43 h-65v-108h-32z" />
<glyph unicode="&#x2014;" horiz-adv-x="1090" d="M45 126v548q0 52 45.5 89t111.5 37h686q66 0 111.5 -37t45.5 -89v-548q0 -52 -45.5 -89t-111.5 -37h-686q-66 0 -111.5 37t-45.5 89zM76 135q0 -48 39 -79t99 -31h662q60 0 99 31t39 79v530q0 48 -39 79t-99 31h-662q-60 0 -99 -31t-39 -79v-530zM229 429 q0 104 92.5 178.5t222.5 74.5q131 0 224 -74.5t93 -178.5t-93 -178.5t-224 -74.5q-130 0 -222.5 74.5t-92.5 178.5zM255 109v36h580v-36h-580zM286 429q0 -86 76 -146.5t182 -60.5q107 0 184 61t77 146t-77 146.5t-184 61.5q-106 0 -182 -61t-76 -147zM446 300v253h215v-43 h-150v-59h130v-43h-130v-108h-65z" />
<glyph unicode="&#x202f;" horiz-adv-x="160" />
<glyph unicode="&#x205f;" horiz-adv-x="200" />
<glyph unicode="&#xe000;" horiz-adv-x="800" d="M0 0v800h800v-800h-800z" />
</font>
</defs>
</svg>
