<?xml version="1.0" standalone="no"?>
<!DOCTYPE svg PUBLIC "-//W3C//DTD SVG 1.1//EN" "http://www.w3.org/Graphics/SVG/1.1/DTD/svg11.dtd" >
<svg xmlns="http://www.w3.org/2000/svg">
<metadata></metadata>
<defs>
<font id="mikodacsregular" horiz-adv-x="490" >
<font-face units-per-em="1000" ascent="760" descent="-240" />
<missing-glyph horiz-adv-x="320" />
<glyph unicode="&#xfb01;" horiz-adv-x="560" d="M5 400v120h35v59q0 68 54 104.5t156 36.5h55v-115h-15q-50 0 -50 -45v-40h65v-120h-65v-400h-200v400h-35zM340 130v390h200v-440q0 -47 5 -80h-170q-21 0 -28 28t-7 102zM340 605v115h200v-115h-200z" />
<glyph unicode="&#xfb02;" horiz-adv-x="575" d="M5 400v120h35v70q0 68 54 104t156 36q38 0 70 -9v-119q-14 8 -30 8q-50 0 -50 -50v-40h80v-120h-80v-400h-200v400h-35zM355 130v590h200v-640q0 -47 5 -80h-170q-21 0 -28 28t-7 102z" />
<glyph unicode="&#xfb03;" horiz-adv-x="910" d="M5 400v120h35v70q0 68 54 104t156 36q62 0 111 -23l-41 -105q-14 8 -30 8q-50 0 -50 -50v-40h70v-120h-70v-400h-200v400h-35zM340 400v120h35v70q0 68 54 104t156 36q39 0 70 -9v-119q-14 8 -30 8q-50 0 -50 -50v-40h80v-120h-80v-400h-200v400h-35zM690 130v390h200 v-440q0 -47 5 -80h-170q-21 0 -28 28t-7 102zM690 605v115h200v-115h-200z" />
<glyph unicode="&#xfb04;" horiz-adv-x="910" d="M5 400v120h35v70q0 68 54 104t156 36q62 0 111 -23l-41 -105q-14 8 -30 8q-50 0 -50 -50v-40h70v-120h-70v-400h-200v400h-35zM340 400v120h35v70q0 68 54 104t156 36q39 0 70 -9v-119q-14 8 -30 8q-50 0 -50 -50v-40h80v-120h-80v-400h-200v400h-35zM690 130v590h200 v-640q0 -47 5 -80h-170q-21 0 -28 28t-7 102z" />
<glyph horiz-adv-x="1000" />
<glyph horiz-adv-x="1000" />
<glyph unicode="&#xd;" horiz-adv-x="360" />
<glyph unicode=" "  horiz-adv-x="320" />
<glyph unicode="&#x09;" horiz-adv-x="320" />
<glyph unicode="&#xa0;" horiz-adv-x="320" />
<glyph unicode="!" horiz-adv-x="220" d="M10 720h200q0 -38 -20 -203t-20 -277h-120q0 112 -20 277t-20 203zM40 5v130l5 5h130l5 -5v-130l-5 -5h-130z" />
<glyph unicode="&#x22;" horiz-adv-x="310" d="M20 520v200h120v-200h-120zM170 520v200h120v-200h-120z" />
<glyph unicode="#" horiz-adv-x="540" d="M10 190l3 120h87v100h-73l3 120h70v100h120v-100h100v100h120v-100h90l-3 -120h-87v-100h74l-3 -120h-71v-100h-120v100h-100v-100h-120v100h-90zM220 310h100v100h-100v-100z" />
<glyph unicode="$" d="M15 130v120h160v-60q0 -15 18 -27.5t42 -12.5q60 0 60 50q0 30 -28 54.5t-67.5 42.5t-79 36.5t-67.5 47t-28 64.5v125q0 56 35.5 83.5t119.5 34.5v72h140v-73q78 -6 111.5 -29t33.5 -68v-110h-160v60q0 14 -16 22t-39 8q-55 0 -55 -40q0 -30 29 -54t70 -41t82 -35t70 -46 t29 -64v-140q0 -55 -36 -82.5t-119 -34.5v-73h-140v72q-89 5 -127 28t-38 70z" />
<glyph unicode="%" horiz-adv-x="850" d="M15 470v160q0 55 38.5 77.5t131.5 22.5t131.5 -22.5t38.5 -77.5v-160q0 -55 -38.5 -77.5t-131.5 -22.5t-131.5 22.5t-38.5 77.5zM100 79l560 640l90 -79l-560 -640zM155 510q0 -40 30 -40t30 40v80q0 40 -30 40t-30 -40v-80zM495 90v160q0 55 38.5 77.5t131.5 22.5 t131.5 -22.5t38.5 -77.5v-160q0 -55 -38.5 -77.5t-131.5 -22.5t-131.5 22.5t-38.5 77.5zM635 130q0 -40 30 -40t30 40v80q0 40 -30 40t-30 -40v-80z" />
<glyph unicode="&#x26;" horiz-adv-x="590" d="M15 110v130q0 106 112 130q-72 27 -72 110v90q0 58 61 89t169 31q99 0 154.5 -28.5t55.5 -81.5v-50h-170q0 18 -11 29t-29 11q-40 0 -40 -50v-50q0 -50 30 -50h30l20 50h170v-50h75v-120h-75v-140q0 -50 50 -50q16 0 30 8v-119q-31 -9 -70 -9q-92 0 -145 29 q-39 -29 -115 -29q-126 0 -178 27t-52 93zM215 160q0 -21 12.5 -35.5t27.5 -14.5t27.5 14.5t12.5 35.5v140h-50q-14 0 -22 -18t-8 -42v-80z" />
<glyph unicode="'" horiz-adv-x="160" d="M20 520v200h120v-200h-120z" />
<glyph unicode="(" horiz-adv-x="325" d="M10 259q0 152 45 293.5t136 250.5l122 -103q-50 -59 -76.5 -179t-26.5 -261t26.5 -261t76.5 -179l-123 -103q-90 108 -135 249t-45 293z" />
<glyph unicode=")" horiz-adv-x="325" d="M12 -180q50 59 76.5 179t26.5 261t-26.5 261t-76.5 179l122 103q91 -109 136 -250.5t45 -293.5t-45 -293t-135 -249z" />
<glyph unicode="*" horiz-adv-x="380" d="M11 591l35 93l99 -41l-5 107h100l-5 -107l99 41l35 -93l-107 -34l69 -85l-80 -60l-61 91l-61 -91l-80 60l69 85z" />
<glyph unicode="+" horiz-adv-x="480" d="M20 290v140h150v150h140v-150h150v-140h-150v-150h-140v150h-150z" />
<glyph unicode="," horiz-adv-x="190" d="M25 5v130l5 5h130l5 -5v-135q0 -82 -70 -152l-42 42q52 52 52 110h-75z" />
<glyph unicode="-" horiz-adv-x="360" d="M15 220l10 120h320l-10 -120h-320z" />
<glyph unicode="." horiz-adv-x="190" d="M25 5v130l5 5h130l5 -5v-130l-5 -5h-130z" />
<glyph unicode="/" horiz-adv-x="620" d="M7 -7l486 802l120 -72l-486 -802z" />
<glyph unicode="0" d="M15 110v500q0 66 52 93t178 27t178 -27t52 -93v-500q0 -66 -52 -93t-178 -27t-178 27t-52 93zM215 160q0 -50 30 -50t30 50v400q0 50 -30 50t-30 -50v-400z" />
<glyph unicode="1" horiz-adv-x="280" d="M9 520l1 160l130 40h120v-720h-200v520h-51z" />
<glyph unicode="2" horiz-adv-x="485" d="M15 0v120q10 12 41 49.5t40.5 48.5t34.5 43t33 44t27 39.5t25 42.5t17.5 40t15.5 44t7.5 42t3.5 47q0 50 -30 50t-30 -50v-90h-180v150q0 54 54 82t156 28q126 0 178 -27t52 -93q0 -71 -15 -132t-56 -128.5t-63.5 -98t-85.5 -108.5q-4 -5 -6 -8t-5.5 -7t-6.5 -8h77l64 80 h107v-200h-455z" />
<glyph unicode="3" horiz-adv-x="470" d="M15 100v150h180v-90q0 -50 30 -50t30 50v110q0 50 -30 50h-140v120h140q30 0 30 50v70q0 50 -30 50t-30 -50v-50h-170v110q0 110 200 110q107 0 163.5 -31t56.5 -89v-110q0 -89 -84 -115q94 -27 94 -115v-160q0 -66 -52 -93t-178 -27q-102 0 -156 28t-54 82z" />
<glyph unicode="4" horiz-adv-x="520" d="M10 100v60q5 7 13 21t28.5 65.5t36.5 110.5t29 157t13 206h200q0 -146 -45.5 -280t-112.5 -220h98v48q34 40 67 121.5t53 170.5h80v-340h40v-120h-40v-100h-200v100h-260z" />
<glyph unicode="5" horiz-adv-x="470" d="M15 100v130h180v-70q0 -50 30 -50t30 50v109q0 23 -9 37t-23 14q-10 0 -25.5 -9t-21.5 -21h-161v430h430v-200h-92l-30 80h-128v-176q56 45 120 45q62 0 101 -33.5t39 -86.5v-239q0 -66 -52 -93t-178 -27q-102 0 -156 28t-54 82z" />
<glyph unicode="6" d="M15 110v500q0 66 52 93t178 27q115 0 162.5 -25t47.5 -85v-100h-160v45q0 21 -12 33t-28 12q-40 0 -40 -45v-150q56 45 120 45q62 0 101 -33.5t39 -86.5v-230q0 -66 -52 -93t-178 -27t-178 27t-52 93zM215 160q0 -50 30 -50t30 50v100q0 23 -9 37t-23 14q-12 0 -28 -11 v-140z" />
<glyph unicode="7" horiz-adv-x="475" d="M10 520v200h460v-60q-7 -11 -17.5 -32t-38 -89.5t-48.5 -141t-38.5 -181t-17.5 -216.5h-220q0 159 55 319.5t131 280.5h-70l-46 -80h-150z" />
<glyph unicode="8" d="M15 110v160q0 88 94 115q-84 26 -84 115v110q0 58 56.5 89t163.5 31t163.5 -31t56.5 -89v-110q0 -89 -84 -115q94 -27 94 -115v-160q0 -66 -52 -93t-178 -27t-178 27t-52 93zM215 160q0 -50 30 -50t30 50v110q0 50 -30 50t-30 -50v-110zM215 490q0 -50 30 -50t30 50v70 q0 50 -30 50t-30 -50v-70z" />
<glyph unicode="9" d="M15 380v230q0 66 52 93t178 27t178 -27t52 -93v-500q0 -66 -52 -93t-178 -27q-115 0 -162.5 25t-47.5 85v100h160v-45q0 -21 12 -33t28 -12q40 0 40 45v150q-56 -45 -120 -45q-62 0 -101 33.5t-39 86.5zM215 460q0 -23 9 -37t23 -14q12 0 28 11v140q0 50 -30 50t-30 -50 v-100z" />
<glyph unicode=":" horiz-adv-x="190" d="M25 5v130l5 5h130l5 -5v-130l-5 -5h-130zM25 385v130l5 5h130l5 -5v-130l-5 -5h-130z" />
<glyph unicode=";" horiz-adv-x="190" d="M25 5v130l5 5h130l5 -5v-135q0 -82 -70 -152l-42 42q52 52 52 110h-75zM25 385v130l5 5h130l5 -5v-130l-5 -5h-130z" />
<glyph unicode="&#x3c;" horiz-adv-x="470" d="M15 338v45l369 236l75 -118l-222 -142l223 -148l-78 -117z" />
<glyph unicode="=" horiz-adv-x="520" d="M20 170v140h480v-140h-480zM20 410v140h480v-140h-480z" />
<glyph unicode="&#x3e;" horiz-adv-x="470" d="M10 211l223 148l-222 142l75 118l369 -236v-45l-367 -244z" />
<glyph unicode="?" horiz-adv-x="475" d="M10 520v100q0 60 48.5 85t166.5 25q129 0 182 -25t53 -85v-110q0 -36 -20 -62.5t-48.5 -41t-57 -26.5t-49 -26.5t-20.5 -33.5v-80h-120v119q0 36 12 59t28.5 34.5t33.5 20.5t29 25t12 41v41q0 17 -8 23.5t-27 6.5t-27 -6.5t-8 -23.5v-60h-180zM135 5v130l5 5h130l5 -5 v-130l-5 -5h-130z" />
<glyph unicode="@" horiz-adv-x="905" d="M25 -30v580q0 46 33 70.5t126.5 37t273.5 12.5q178 0 270 -12.5t124.5 -36.5t32.5 -71v-390q0 -47 -14.5 -71t-60 -36.5t-135.5 -12.5h-99l-27 51q-80 -61 -179 -61q-61 0 -95.5 33t-34.5 87v220q0 55 34 87.5t96 32.5q101 0 180 -62l36 52h79v-340h10q27 0 38.5 11.5 t11.5 38.5v310q0 28 -56 39t-211 11q-157 0 -215 -11t-58 -39v-480q0 -28 48.5 -39t181.5 -11h325v-120h-325q-163 0 -247.5 12.5t-113.5 36.5t-29 71zM420 210q0 -23 9 -37t23 -14q12 0 28 11v180q-16 11 -28 11q-14 0 -23 -14t-9 -37v-100z" />
<glyph unicode="A" horiz-adv-x="510" d="M15 0v180q0 80 30 215t60 230l30 95h240q13 -40 33 -105t53.5 -210t33.5 -225v-100q0 -47 5 -80h-170q-21 0 -28 28t-7 102v10h-80v-140h-200zM215 280h80v42q0 41 -14 157.5t-26 140.5q-11 -24 -25.5 -141.5t-14.5 -156.5v-42z" />
<glyph unicode="B" horiz-adv-x="515" d="M20 0v720h250q107 0 163.5 -31t56.5 -89v-100q0 -89 -84 -115q94 -27 94 -115v-150q0 -66 -52 -93t-178 -27h-250zM220 120h50q30 0 30 50v90q0 50 -30 50h-50v-190zM220 450h50q30 0 30 50v50q0 50 -30 50h-50v-150z" />
<glyph unicode="C" d="M15 110v500q0 66 54.5 93t185.5 27q121 0 170.5 -25t49.5 -85v-160h-180v100q0 50 -40 50t-40 -50v-400q0 -50 40 -50t40 50v100h180v-160q0 -60 -49.5 -85t-170.5 -25q-131 0 -185.5 27t-54.5 93z" />
<glyph unicode="D" horiz-adv-x="515" d="M20 0v720h240q131 0 185.5 -36t54.5 -124v-400q0 -88 -54.5 -124t-185.5 -36h-240zM220 120h40q40 0 40 50v380q0 50 -40 50h-40v-480z" />
<glyph unicode="E" horiz-adv-x="410" d="M20 0v720h380v-140h-180v-150h120v-140h-120v-150h180v-140h-380z" />
<glyph unicode="F" horiz-adv-x="410" d="M20 0v720h380v-140h-180v-150h160v-140h-160v-290h-200z" />
<glyph unicode="G" horiz-adv-x="510" d="M15 110v500q0 66 54.5 93t185.5 27q240 0 240 -110v-120h-200v60q0 50 -40 50t-40 -50v-370q0 -23 9 -37t23 -14q22 0 48 28v113h-35v120h235v-320q0 -47 5 -80h-99l-43 62q-83 -72 -203 -72q-62 0 -101 33.5t-39 86.5z" />
<glyph unicode="H" horiz-adv-x="520" d="M20 0v720h200v-290h80v290h200v-640q0 -47 5 -80h-170q-21 0 -28 28t-7 102v160h-80v-290h-200z" />
<glyph unicode="I" horiz-adv-x="240" d="M20 0v720h200v-720h-200z" />
<glyph unicode="J" horiz-adv-x="310" d="M15 -1v119q14 -8 30 -8q50 0 50 50v420h-80v140h280v-590q0 -68 -54 -104t-156 -36q-39 0 -70 9z" />
<glyph unicode="K" horiz-adv-x="515" d="M20 0v720h200v-260h38q15 0 28.5 14t13.5 35v211h190v-210q0 -33 -26.5 -63t-68.5 -48q45 -18 75 -51t30 -68v-200q0 -47 5 -80h-170q-21 0 -28 28t-7 102v140q0 22 -9 36t-23 14h-48v-320h-200z" />
<glyph unicode="L" horiz-adv-x="410" d="M20 0v720h200v-580h180v-140h-380z" />
<glyph unicode="M" horiz-adv-x="800" d="M20 0v720h180q114 0 200 -97q86 97 200 97h180v-640q0 -47 5 -80h-170q-21 0 -28 28t-7 102v470q-80 0 -80 -160v-440h-200v440q0 160 -80 160v-600h-200z" />
<glyph unicode="N" horiz-adv-x="520" d="M20 0v720h20q156 0 280 -132v132h180v-640q0 -47 5 -80h-205v230q0 123 -23.5 206.5t-56.5 83.5v-520h-200z" />
<glyph unicode="O" horiz-adv-x="510" d="M15 110v500q0 66 54.5 93t185.5 27t185.5 -27t54.5 -93v-500q0 -66 -54.5 -93t-185.5 -27t-185.5 27t-54.5 93zM215 160q0 -50 40 -50t40 50v400q0 50 -40 50t-40 -50v-400z" />
<glyph unicode="P" horiz-adv-x="515" d="M20 0v720h240q131 0 185.5 -27t54.5 -93v-260q0 -66 -54.5 -93t-185.5 -27h-40v-220h-200zM220 340h40q40 0 40 50v160q0 50 -40 50h-40v-260z" />
<glyph unicode="Q" horiz-adv-x="510" d="M15 110v500q0 58 61.5 89t178.5 31t178.5 -31t61.5 -89v-500q0 -50 -46 -80t-134 -38v-12q0 -50 50 -50h55v-140h-90q-66 0 -100.5 46t-34.5 134v22q-88 8 -134 38t-46 80zM215 160q0 -50 40 -50t40 50v400q0 50 -40 50t-40 -50v-400z" />
<glyph unicode="R" horiz-adv-x="515" d="M20 0v720h230q131 0 185.5 -27t54.5 -93v-140q0 -48 -28 -75t-92 -37q53 -15 91.5 -51.5t38.5 -76.5v-140q0 -47 5 -80h-170q-21 0 -28 28t-7 102v100q0 22 -9 36t-23 14h-48v-280h-200zM220 400h40q40 0 40 50v100q0 50 -40 50h-40v-200z" />
<glyph unicode="S" horiz-adv-x="500" d="M15 90v120h160v-60q0 -40 65 -40t65 50q0 30 -29 63t-70 62.5t-82 60t-70 67t-29 72.5v125q0 66 51 93t174 27t174 -22.5t51 -77.5v-110h-160v60q0 30 -60 30t-60 -40q0 -30 30 -62.5t72.5 -61t85 -58.5t72.5 -66t30 -72v-140q0 -66 -53 -93t-182 -27q-235 0 -235 100z " />
<glyph unicode="T" horiz-adv-x="500" d="M10 580v140h480v-140h-140v-580h-200v580h-140z" />
<glyph unicode="U" horiz-adv-x="510" d="M15 110v610h200v-560q0 -50 40 -50t40 50v560h200v-610q0 -66 -54.5 -93t-185.5 -27t-185.5 27t-54.5 93z" />
<glyph unicode="V" horiz-adv-x="510" d="M15 460v260h200v-322q0 -62 13.5 -156.5t26.5 -121.5q13 27 26.5 121t13.5 157v322h200v-260q0 -80 -35 -195t-70 -190l-35 -75h-200q-6 11 -15.5 31t-33.5 78t-42.5 112t-33.5 121.5t-15 117.5z" />
<glyph unicode="W" horiz-adv-x="790" d="M15 450v270h200v-332q0 -44 9.5 -144t20.5 -124q15 30 32.5 123.5t17.5 164.5v292h200v-292q0 -70 17.5 -163.5t32.5 -124.5q12 24 21 123t9 145v332h200v-270q0 -71 -35 -183.5t-70 -189.5l-35 -77h-140q-68 87 -100 154q-14 -29 -39 -67.5t-43 -62.5l-18 -24h-140 q-6 12 -15.5 32.5t-33.5 79t-42.5 112t-33.5 117.5t-15 109z" />
<glyph unicode="X" horiz-adv-x="510" d="M15 0v160q0 100 105 210q-95 118 -95 220v130h190v-142q0 -53 40 -138q40 80 40 138v142h190v-130q0 -103 -108 -220q118 -109 118 -210q0 -127 5 -160h-170q-9 0 -15.5 12t-9.5 33.5t-4.5 41.5t-3 45.5t-2.5 36.5q-3 28 -14 71.5t-26 69.5q-40 -85 -40 -148v-162h-200z " />
<glyph unicode="Y" horiz-adv-x="510" d="M15 560v160h200v-222q0 -30 13 -79.5t27 -78.5q14 28 27 78t13 80v222h200v-160q0 -62 -35 -137t-70 -119l-35 -44v-260h-200v260q-6 7 -15.5 18.5t-33.5 46.5t-42.5 69.5t-33.5 80.5t-15 85z" />
<glyph unicode="Z" horiz-adv-x="485" d="M10 0v31l206 569h-74l-38 -100h-84v220h450v-30l-210 -570h79l38 100h93v-220h-460z" />
<glyph unicode="[" horiz-adv-x="300" d="M20 -280v1080h260v-120h-60v-840h60v-120h-260z" />
<glyph unicode="\" horiz-adv-x="620" d="M7 723l120 72l486 -802l-120 -72z" />
<glyph unicode="]" horiz-adv-x="300" d="M20 -160h60v840h-60v120h260v-1080h-260v120z" />
<glyph unicode="^" horiz-adv-x="520" d="M20 431l214 329h45l221 -327l-117 -78l-125 183l-120 -182z" />
<glyph unicode="_" horiz-adv-x="520" d="M20 -120h480v-120h-480v120z" />
<glyph unicode="`" horiz-adv-x="240" d="M10 681l77 89l143 -152l-57 -55z" />
<glyph unicode="a" d="M15 110v80q0 65 47 92.5t153 27.5q33 0 46.5 11.5t13.5 39.5q0 49 -30 49t-30 -50v-10h-190v60q0 66 49.5 93t170.5 27q127 0 178.5 -27t51.5 -93v-300q0 -73 5 -106l-109 -8l-36 49q-78 -55 -180 -55q-62 0 -101 33.5t-39 86.5zM205 166q0 -24 9.5 -35t35.5 -11 q12 0 25 9v94q-6 -4 -26 -8t-32 -14.5t-12 -34.5z" />
<glyph unicode="b" horiz-adv-x="495" d="M20 0v720h200v-235q56 45 120 45q62 0 101 -33.5t39 -86.5v-300q0 -53 -39 -86.5t-101 -33.5q-111 0 -190 62l-36 -52h-94zM220 150q16 -11 28 -11q14 0 23 14t9 37v140q0 23 -9 37t-23 14q-12 0 -28 -11v-220z" />
<glyph unicode="c" horiz-adv-x="470" d="M15 110v300q0 66 52 93t178 27q102 0 156 -28t54 -82v-120h-180v60q0 50 -30 50t-30 -50v-200q0 -50 30 -50t30 50v60h180v-120q0 -54 -54 -82t-156 -28q-126 0 -178 27t-52 93z" />
<glyph unicode="d" horiz-adv-x="495" d="M15 110v300q0 53 39 86.5t101 33.5q64 0 120 -45v235h200v-640q0 -47 5 -80h-109l-27 51q-80 -61 -189 -61q-62 0 -101 33.5t-39 86.5zM215 190q0 -23 9 -37t23 -14q12 0 28 11v220q-16 11 -28 11q-14 0 -23 -14t-9 -37v-140z" />
<glyph unicode="e" d="M15 110v300q0 66 52 93t178 27t178 -27t52 -93v-190h-260v-60q0 -50 30 -50t30 50v20h200v-70q0 -66 -52 -93t-178 -27t-178 27t-52 93zM215 320h80v40q0 50 -40 50t-40 -50v-40z" />
<glyph unicode="f" horiz-adv-x="335" d="M5 400v120h35v70q0 68 54 104t156 36q38 0 70 -9v-119q-14 8 -30 8q-50 0 -50 -50v-40h60v-120h-60v-400h-200v400h-35z" />
<glyph unicode="g" horiz-adv-x="495" d="M15 130v280q0 53 39 86.5t101 33.5q111 0 190 -62l36 52h94v-530q0 -104 -36 -147t-124 -43h-170q-58 0 -81.5 25t-23.5 85v60h140v-20q0 -30 40 -30h5q27 0 38.5 9t11.5 31v95q-56 -45 -120 -45q-62 0 -101 33.5t-39 86.5zM215 210q0 -23 9 -37t23 -14q12 0 28 11v200 q-16 11 -28 11q-14 0 -23 -14t-9 -37v-120z" />
<glyph unicode="h" horiz-adv-x="495" d="M20 0v720h200v-235q56 45 120 45q62 0 101 -33.5t39 -86.5v-330q0 -47 5 -80h-170q-21 0 -28 28t-7 102v200q0 23 -9 37t-23 14q-12 0 -28 -11v-370h-200z" />
<glyph unicode="i" horiz-adv-x="240" d="M20 130v390h200v-440q0 -47 5 -80h-170q-21 0 -28 28t-7 102zM20 605v115h200v-115h-200z" />
<glyph unicode="j" horiz-adv-x="240" d="M15 -200q5 33 5 80v640h200v-590q0 -54 -32 -92t-78 -38h-95zM20 605v115h200v-115h-200z" />
<glyph unicode="k" horiz-adv-x="495" d="M20 0v720h200v-380h18q15 0 28.5 14t13.5 35v131h190v-110q0 -33 -26.5 -63t-68.5 -48q45 -18 75 -51t30 -68v-100q0 -47 5 -80h-170q-21 0 -28 28t-7 102v60q0 22 -9 36t-23 14h-28v-240h-200z" />
<glyph unicode="l" horiz-adv-x="240" d="M20 130v590h200v-640q0 -47 5 -80h-170q-21 0 -28 28t-7 102z" />
<glyph unicode="m" horiz-adv-x="755" d="M20 0v520h94l36 -52q79 62 190 62q71 0 110 -42q64 42 150 42q62 0 101 -33.5t39 -86.5v-330q0 -47 5 -80h-170q-21 0 -28 28t-7 102v200q0 51 -32 51q-12 0 -28 -11v-370h-200v330q0 51 -32 51q-12 0 -28 -11v-370h-200z" />
<glyph unicode="n" horiz-adv-x="495" d="M20 0v520h94l36 -52q79 62 190 62q62 0 101 -33.5t39 -86.5v-330q0 -47 5 -80h-170q-21 0 -28 28t-7 102v200q0 51 -32 51q-12 0 -28 -11v-370h-200z" />
<glyph unicode="o" d="M15 110v300q0 66 52 93t178 27t178 -27t52 -93v-300q0 -66 -52 -93t-178 -27t-178 27t-52 93zM215 160q0 -50 30 -50t30 50v200q0 50 -30 50t-30 -50v-200z" />
<glyph unicode="p" horiz-adv-x="495" d="M20 -200v720h94l36 -52q79 62 190 62q62 0 101 -33.5t39 -86.5v-300q0 -53 -39 -86.5t-101 -33.5q-64 0 -120 45v-235h-200zM220 150q16 -11 28 -11q14 0 23 14t9 37v140q0 23 -9 37t-23 14q-12 0 -28 -11v-220z" />
<glyph unicode="q" horiz-adv-x="495" d="M15 110v300q0 53 39 86.5t101 33.5q111 0 190 -62l36 52h94v-720h-200v235q-56 -45 -120 -45q-62 0 -101 33.5t-39 86.5zM215 190q0 -23 9 -37t23 -14q12 0 28 11v220q-16 11 -28 11q-14 0 -23 -14t-9 -37v-140z" />
<glyph unicode="r" horiz-adv-x="375" d="M20 0v520h114l28 -103q84 108 198 108v-240l-59 12q-8 2 -14 2q-27 0 -47 -24t-20 -55v-220h-200z" />
<glyph unicode="s" d="M15 90v80h160v-20q0 -15 18 -27.5t42 -12.5q33 0 46.5 9t13.5 31q0 19 -28 30t-67.5 18t-79 16t-67.5 32t-28 59v105q0 67 47.5 93.5t172.5 26.5q121 0 170.5 -22.5t49.5 -77.5v-70h-160v20q0 14 -16 22t-39 8q-30 0 -42.5 -7t-12.5 -23q0 -23 43.5 -35t96.5 -17.5 t96.5 -29.5t43.5 -68v-120q0 -66 -52 -93t-178 -27q-230 0 -230 100z" />
<glyph unicode="t" horiz-adv-x="335" d="M5 400v120h35l112 120h88v-120h85v-120h-85v-240q0 -50 50 -50q16 0 30 8v-119q-32 -9 -70 -9q-102 0 -156 36t-54 104v270h-35z" />
<glyph unicode="u" horiz-adv-x="495" d="M15 110v410h200v-330q0 -23 9 -37t23 -14q12 0 28 11v370h200v-440q0 -47 5 -80h-99l-36 52q-79 -62 -190 -62q-62 0 -101 33.5t-39 86.5z" />
<glyph unicode="v" d="M15 300v220h200v-242q0 -34 9 -83t21 -75q13 25 21.5 74.5t8.5 83.5v242h200v-220q0 -62 -35 -137t-70 -119l-35 -44h-180q-6 7 -15.5 18.5t-33.5 46.5t-42.5 69.5t-33.5 80.5t-15 85z" />
<glyph unicode="w" horiz-adv-x="750" d="M15 300v220h200v-242q0 -34 9 -83t21 -75q13 26 21.5 78t8.5 100v202h200v-202q0 -47 8.5 -99t21.5 -79q13 25 21.5 74.5t8.5 83.5v242h200v-220q0 -62 -35 -137t-70 -119l-35 -44h-140q-42 47 -80 104l-80 -104h-140q-6 7 -15.5 18.5t-33.5 46.5t-42.5 69.5t-33.5 80.5 t-15 85z" />
<glyph unicode="x" d="M15 0v90q0 94 93 185q-83 109 -83 205v40h190v-42q0 -64 30 -128q30 60 30 128v42h190v-40q0 -97 -84 -207q94 -98 94 -193q0 -47 5 -80h-170q-7 0 -12 2.5t-8 8.5t-5.5 11.5t-4 16t-2 18t-1.5 21t-2 21.5q-5 56 -30 101q-30 -64 -30 -108v-92h-200z" />
<glyph unicode="y" d="M15 300v220h200v-242q0 -34 9 -83t21 -75q13 25 21.5 74.5t8.5 83.5v242h200v-220q0 -62 -35 -137t-70 -119l-35 -44l-5 -6q-6 -6 -12 -13t-15.5 -18t-18 -23t-18.5 -26t-18 -28.5t-14.5 -29t-10 -29t-3.5 -27.5h-200q0 130 118 221q-123 160 -123 279z" />
<glyph unicode="z" horiz-adv-x="485" d="M10 0v69l195 331h-63l-48 -80h-74v200h450v-68l-199 -332h68l48 80h83v-200h-460z" />
<glyph unicode="{" horiz-adv-x="360" d="M10 230v60h10q19 0 39.5 18t20.5 62v270q0 88 41 124t139 36h90v-120q-42 0 -56 -21.5t-14 -78.5v-210q0 -70 -80 -110q80 -40 80 -110v-210q0 -57 14 -78.5t56 -21.5v-120h-90q-98 0 -139 36t-41 124v270q0 44 -20.5 62t-39.5 18h-10z" />
<glyph unicode="|" horiz-adv-x="240" d="M20 -240v1000h200v-1000h-200z" />
<glyph unicode="}" horiz-adv-x="360" d="M10 -160q42 0 56 21.5t14 78.5v210q0 70 80 110q-80 40 -80 110v210q0 57 -14 78.5t-56 21.5v120h90q98 0 139 -36t41 -124v-270q0 -44 20.5 -62t39.5 -18h10v-60h-10q-19 0 -39.5 -18t-20.5 -62v-270q0 -88 -41 -124t-139 -36h-90v120z" />
<glyph unicode="~" horiz-adv-x="440" d="M5 280l15 47q15 47 49.5 81t84.5 34q40 0 83 -17.5t48 -17.5q17 0 26 33h124l-13 -48q-13 -49 -49.5 -82.5t-84.5 -33.5q-42 0 -85.5 18t-47.5 18q-15 0 -24 -32h-126z" />
<glyph unicode="&#xa1;" horiz-adv-x="200" d="M-10 -200q0 38 20 203t20 277h120q0 -112 20 -277t20 -203h-200zM20 385v130l5 5h130l5 -5v-130l-5 -5h-130z" />
<glyph unicode="&#xa2;" horiz-adv-x="470" d="M15 210v300q0 55 36 82.5t119 34.5v133h140v-133q145 -17 145 -107v-120h-180v60q0 50 -30 50t-30 -50v-200q0 -50 30 -50t30 50v60h180v-120q0 -90 -145 -107v-133h-140v133q-83 7 -119 34.5t-36 82.5z" />
<glyph unicode="&#xa3;" horiz-adv-x="520" d="M10 0v120q40 0 40 50v130h-40v120h40v190q0 66 52 93t178 27q115 0 162.5 -27t47.5 -93v-90h-180v40q0 50 -30 50t-30 -50v-140h140v-120h-140v-70q0 -62 -56 -110h145l64 80h107v-200h-500z" />
<glyph unicode="&#xa4;" horiz-adv-x="500" d="M11 502l91 78l71 -70q35 16 77 16q45 0 81 -19l75 76l81 -89l-72 -72q18 -37 18 -79q0 -43 -16 -77l72 -73l-90 -79l-66 66q-39 -20 -83 -20q-39 0 -79 18l-73 -72l-79 90l67 66q-19 39 -19 81q0 43 20 83zM187 343q0 -26 19 -44.5t44 -18.5q26 0 44.5 19t18.5 44 q0 26 -19 44.5t-44 18.5q-26 0 -44.5 -19t-18.5 -44z" />
<glyph unicode="&#xa5;" horiz-adv-x="510" d="M15 560v160h200v-222q0 -30 13 -79.5t27 -78.5q14 28 27 78t13 80v222h200v-160q0 -105 -94 -240h69v-80h-115v-60h115v-80h-115v-100h-200v100h-115v80h115v60h-115v80h69q-94 135 -94 240z" />
<glyph unicode="&#xa6;" horiz-adv-x="240" d="M20 160h200v-400h-200v400zM20 360v400h200v-400h-200z" />
<glyph unicode="&#xa7;" horiz-adv-x="570" d="M15 190v60q0 56 27 87.5t88 43.5q-65 34 -65 84v135q0 67 47.5 93.5t172.5 26.5q97 0 158.5 -26.5t61.5 -73.5v-110h-160v60q0 14 -16 22t-39 8q-55 0 -55 -40q0 -30 33 -53t80 -38.5t94 -32.5t80 -43.5t33 -62.5v-60q0 -56 -27 -87.5t-88 -43.5q65 -34 65 -84v-135 q0 -67 -47.5 -93.5t-172.5 -26.5q-97 0 -158.5 26.5t-61.5 73.5v110h160v-60q0 -14 16 -22t39 -8q55 0 55 40q0 30 -33 53t-80 38.5t-94 32.5t-80 43.5t-33 62.5zM195 280q0 -30 29 -51t81 -39q34 2 52 12.5t18 37.5q0 30 -29 51t-81 39q-34 -2 -52 -12.5t-18 -37.5z" />
<glyph unicode="&#xa8;" horiz-adv-x="400" d="M20 605v115h140v-115h-140zM240 605v115h140v-115h-140z" />
<glyph unicode="&#xa9;" horiz-adv-x="910" d="M15 70v580q0 66 99.5 93t340.5 27t340.5 -27t99.5 -93v-580q0 -66 -99.5 -93t-340.5 -27t-340.5 27t-99.5 93zM175 120q0 -27 63.5 -38.5t216.5 -11.5t216.5 11.5t63.5 38.5v480q0 27 -63.5 38.5t-216.5 11.5t-216.5 -11.5t-63.5 -38.5v-480zM235 250v220q0 66 52 93 t178 27q102 0 156 -28t54 -82v-80h-180v25q0 45 -30 45t-30 -45v-130q0 -45 30 -45t30 45v25h180v-80q0 -54 -54 -82t-156 -28q-126 0 -178 27t-52 93z" />
<glyph unicode="&#xaa;" horiz-adv-x="407" d="M20 434v64q0 52 38 74t122 22q54 0 54 41q0 39 -30 39t-30 -40v-8h-146v48q0 52 40 74t136 22q101 0 142.5 -21.5t41.5 -74.5v-240q0 -53 4 -85l-87 -6l-29 39q-61 -44 -144 -44q-49 0 -80.5 27t-31.5 69zM166 479q0 -37 42 -37q12 0 26 8v74q-5 -3 -24 -6.5t-31.5 -11.5 t-12.5 -27z" />
<glyph unicode="&#xab;" horiz-adv-x="455" d="M10 260l146 208l98 -70l-98 -138l98 -138l-98 -70zM201 260l146 208l98 -70l-98 -138l98 -138l-98 -70z" />
<glyph unicode="&#xac;" horiz-adv-x="520" d="M20 280v120h480v-360h-120v240h-360z" />
<glyph unicode="&#xad;" horiz-adv-x="360" d="M15 220l10 120h320l-10 -120h-320z" />
<glyph unicode="&#xae;" horiz-adv-x="910" d="M15 70v580q0 66 99.5 93t340.5 27t340.5 -27t99.5 -93v-580q0 -66 -99.5 -93t-340.5 -27t-340.5 27t-99.5 93zM175 120q0 -27 63.5 -38.5t216.5 -11.5t216.5 11.5t63.5 38.5v480q0 27 -63.5 38.5t-216.5 11.5t-216.5 -11.5t-63.5 -38.5v-480zM240 141v444h208 q224 0 224 -97v-36q0 -39 -23 -61t-74 -30q43 -12 74 -41t31 -62v-52q0 -33 4 -65h-166q-17 0 -22.5 22.5t-5.5 83.5v19q0 18 -7.5 29t-18.5 11h-34v-165h-190zM430 404h27q33 0 33 40v8q0 36 -33 36h-27v-84z" />
<glyph unicode="&#xaf;" horiz-adv-x="400" d="M40 630v80h340v-80h-340z" />
<glyph unicode="&#xb0;" horiz-adv-x="240" d="M20 660q0 40 31 70t69 30t69 -30t31 -70t-31 -70t-69 -30t-69 30t-31 70zM60 660q0 -23 19 -41.5t41 -18.5t41 18.5t19 41.5t-19 41.5t-41 18.5t-41 -18.5t-19 -41.5z" />
<glyph unicode="&#xb1;" horiz-adv-x="480" d="M20 0v140h440v-140h-440zM20 370v140h150v150h140v-150h150v-140h-150v-150h-140v150h-150z" />
<glyph unicode="&#xb2;" horiz-adv-x="387" d="M15 380v90q31 37 75.5 82t67 69t40 60.5t17.5 78.5q0 38 -31 38q-30 0 -30 -38v-67h-135v112q0 46 37.5 64.5t127.5 18.5q99 0 140 -20.5t41 -69.5q0 -55 -20 -103.5t-42 -76t-66.5 -74.5t-66.5 -74h66l48 60h88v-150h-357z" />
<glyph unicode="&#xb3;" horiz-adv-x="376" d="M15 455v93h136v-48q0 -38 30 -38t30 38v62q0 38 -22 38h-122v90h122q22 0 22 38v32q0 38 -30 38t-30 -38v-18h-128v63q0 46 36 64.5t122 18.5q95 0 133.5 -20.5t38.5 -69.5v-63q0 -66 -63 -86q71 -20 71 -87v-100q0 -49 -41 -69.5t-139 -20.5q-91 0 -128.5 18.5 t-37.5 64.5z" />
<glyph unicode="&#xb4;" horiz-adv-x="240" d="M10 618l143 152l77 -89l-163 -118z" />
<glyph unicode="&#xb5;" horiz-adv-x="495" d="M15 -235v755h200v-330q0 -23 9 -37t23 -14q12 0 28 11v370h200v-440q0 -47 5 -80h-99l-36 52q-79 -62 -190 -62q-52 0 -87 23v-36l87 -82v-130l-5 -5h-130z" />
<glyph unicode="&#xb6;" horiz-adv-x="510" d="M10 560q0 66 47 113t113 47h320v-920h-120v800h-80v-800h-120v600q-66 0 -113 47t-47 113z" />
<glyph unicode="&#xb7;" horiz-adv-x="170" d="M15 215v130l5 5h130l5 -5v-130l-5 -5h-130z" />
<glyph unicode="&#xb8;" horiz-adv-x="450" d="M114 -120l23 150h67l-18 -96q21 18 66 18q74 0 74 -48v-96q0 -26 -25 -37t-85 -11q-56 0 -79 10t-23 34v37h72v-13q0 -20 30 -20t30 20v44q0 20 -31 20q-15 0 -29 -12h-72z" />
<glyph unicode="&#xb9;" horiz-adv-x="218" d="M10 730l1 120l98 30h89v-500h-149v350h-39z" />
<glyph unicode="&#xba;" horiz-adv-x="408" d="M20 434v240q0 52 41.5 74t142.5 22t142.5 -22t41.5 -74v-240q0 -52 -41.5 -74t-142.5 -22t-142.5 22t-41.5 74zM174 474q0 -40 30 -40t30 40v160q0 40 -30 40t-30 -40v-160z" />
<glyph unicode="&#xbb;" horiz-adv-x="455" d="M10 122l98 138l-98 138l98 70l146 -208l-146 -208zM201 122l98 138l-98 138l98 70l146 -208l-146 -208z" />
<glyph unicode="&#xbc;" horiz-adv-x="872" d="M10 620l1 120l98 30h89v-500h-149v350h-39zM109 27l440 728l103 -62l-441 -728zM470 15v45q4 4 10 12t21.5 39t27.5 70.5t21.5 108.5t9.5 150h150q0 -182 -118 -335h90v26q3 4 17.5 20t20 23t18 24.5t20.5 31.5t18 35t18 45h38v-205h30v-90h-30v-75h-150l-1 75h-211z" />
<glyph unicode="&#xbd;" horiz-adv-x="882" d="M10 620l1 120l98 30h89v-500h-149v350h-39zM109 27l440 728l103 -62l-441 -728zM515 31q31 37 75.5 82t67 69t40 60.5t17.5 78.5q0 38 -31 38q-30 0 -30 -38v-67h-135v112q0 46 37.5 64.5t127.5 18.5q99 0 140 -20.5t41 -69.5q0 -55 -20 -103.5t-42 -76t-66.5 -74.5 t-66.5 -74h66l48 60h88v-150h-357v90z" />
<glyph unicode="&#xbe;" horiz-adv-x="982" d="M15 345v93h136v-48q0 -38 30 -38t30 38v62q0 38 -22 38h-122v90h122q22 0 22 38v32q0 38 -30 38t-30 -38v-18h-128v63q0 46 36 64.5t122 18.5q95 0 133.5 -20.5t38.5 -69.5v-63q0 -66 -63 -86q71 -20 71 -87v-100q0 -49 -41 -69.5t-139 -20.5q-91 0 -128.5 18.5 t-37.5 64.5zM219 27l440 728l103 -62l-441 -728zM580 15v45q4 4 10 12t21.5 39t27.5 70.5t21.5 108.5t9.5 150h150q0 -182 -118 -335h90v26q3 4 17.5 20t20 23t18 24.5t20.5 31.5t18 35t18 45h38v-205h30v-90h-30v-75h-150l-1 75h-211z" />
<glyph unicode="&#xbf;" horiz-adv-x="480" d="M15 10q0 36 20 62.5t48.5 41t57 26.5t49 26.5t20.5 33.5v80h120v-119q0 -36 -12 -59t-29 -34.5t-33.5 -20.5t-28.5 -25t-12 -41v-41q0 -17 8 -23.5t27 -6.5t27 6.5t8 23.5v60h180v-100q0 -60 -48.5 -85t-166.5 -25q-129 0 -182 25t-53 85v110zM200 385v130l5 5h130l5 -5 v-130l-5 -5h-130z" />
<glyph unicode="&#xc0;" horiz-adv-x="510" d="M15 0v180q0 80 30 215t60 230l30 95h240q13 -40 33 -105t53.5 -210t33.5 -225v-100q0 -47 5 -80h-170q-21 0 -28 28t-7 102v10h-80v-140h-200zM145 795l20 115l200 -60l-20 -75zM215 280h80v42q0 41 -14 157.5t-26 140.5q-11 -24 -25.5 -141.5t-14.5 -156.5v-42z" />
<glyph unicode="&#xc1;" horiz-adv-x="510" d="M15 0v180q0 80 30 215t60 230l30 95h240q13 -40 33 -105t53.5 -210t33.5 -225v-100q0 -47 5 -80h-170q-21 0 -28 28t-7 102v10h-80v-140h-200zM145 850l200 60l20 -115l-200 -20zM215 280h80v42q0 41 -14 157.5t-26 140.5q-11 -24 -25.5 -141.5t-14.5 -156.5v-42z" />
<glyph unicode="&#xc2;" horiz-adv-x="510" d="M15 0v180q0 80 30 215t60 230l30 95h240q13 -40 33 -105t53.5 -210t33.5 -225v-100q0 -47 5 -80h-170q-21 0 -28 28t-7 102v10h-80v-140h-200zM95 870l160 35l160 -35l-20 -100l-140 61l-140 -61zM215 280h80v42q0 41 -14 157.5t-26 140.5q-11 -24 -25.5 -141.5 t-14.5 -156.5v-42z" />
<glyph unicode="&#xc3;" horiz-adv-x="510" d="M15 0v180q0 80 30 215t60 230l30 95h240q13 -40 33 -105t53.5 -210t33.5 -225v-100q0 -47 5 -80h-170q-21 0 -28 28t-7 102v10h-80v-140h-200zM84 805q11 40 41.5 70t73.5 30q29 0 73 -23.5t57 -23.5q24 0 35 42l78 -20q-11 -42 -42.5 -71.5t-72.5 -29.5q-31 0 -75 23.5 t-56 23.5q-23 0 -34 -41zM215 280h80v42q0 41 -14 157.5t-26 140.5q-11 -24 -25.5 -141.5t-14.5 -156.5v-42z" />
<glyph unicode="&#xc4;" horiz-adv-x="510" d="M15 0v180q0 80 30 215t60 230l30 95h240q13 -40 33 -105t53.5 -210t33.5 -225v-100q0 -47 5 -80h-170q-21 0 -28 28t-7 102v10h-80v-140h-200zM75 765v115h140v-115h-140zM215 280h80v42q0 41 -14 157.5t-26 140.5q-11 -24 -25.5 -141.5t-14.5 -156.5v-42zM295 765v115 h140v-115h-140z" />
<glyph unicode="&#xc5;" horiz-adv-x="510" d="M15 0v180q0 80 30 215t60 230l30 95l33 27q-23 29 -23 68q0 47 32.5 78.5t77.5 31.5q47 0 78.5 -32.5t31.5 -77.5q0 -37 -23 -67l33 -28q13 -40 33 -105t53.5 -210t33.5 -225v-100q0 -47 5 -80h-170q-21 0 -28 28t-7 102v10h-80v-140h-200zM205 815q0 -22 15 -36t35 -14 q22 0 36 15t14 35q0 22 -15 36t-35 14q-22 0 -36 -15t-14 -35zM215 280h80v42q0 41 -14 157.5t-26 140.5q-11 -24 -25.5 -141.5t-14.5 -156.5v-42z" />
<glyph unicode="&#xc6;" horiz-adv-x="685" d="M15 0v180q0 80 30 215t60 230l30 95h540v-140h-180v-150h120v-140h-120v-150h180v-140h-380v140h-80v-140h-200zM215 280h80v300h-48q-10 -26 -21 -123.5t-11 -134.5v-42z" />
<glyph unicode="&#xc7;" d="M15 110v500q0 66 54.5 93t185.5 27q121 0 170.5 -25t49.5 -85v-160h-180v100q0 50 -40 50t-40 -50v-400q0 -50 40 -50t40 50v100h180v-160q0 -60 -49.5 -85t-170.5 -25h-3l-11 -56q21 18 66 18q74 0 74 -48v-96q0 -26 -25 -37t-85 -11q-56 0 -79 10t-23 34v37h72v-13 q0 -20 30 -20t30 20v44q0 20 -31 20q-16 0 -29 -12h-72l17 112q-92 6 -131.5 33.5t-39.5 84.5z" />
<glyph unicode="&#xc8;" horiz-adv-x="410" d="M20 0v720h380v-140h-180v-150h120v-140h-120v-150h180v-140h-380zM90 795l20 115l200 -60l-20 -75z" />
<glyph unicode="&#xc9;" horiz-adv-x="410" d="M20 0v720h380v-140h-180v-150h120v-140h-120v-150h180v-140h-380zM110 850l200 60l20 -115l-200 -20z" />
<glyph unicode="&#xca;" horiz-adv-x="410" d="M20 0v720h380v-140h-180v-150h120v-140h-120v-150h180v-140h-380zM50 870l160 35l160 -35l-20 -100l-140 61l-140 -61z" />
<glyph unicode="&#xcb;" horiz-adv-x="410" d="M20 0v720h380v-140h-180v-150h120v-140h-120v-150h180v-140h-380zM30 765v115h140v-115h-140zM250 765v115h140v-115h-140z" />
<glyph unicode="&#xcc;" horiz-adv-x="240" d="M10 775l20 115l200 -60l-20 -75zM20 0v720h200v-720h-200z" />
<glyph unicode="&#xcd;" horiz-adv-x="240" d="M10 830l200 60l20 -115l-200 -20zM20 0v720h200v-720h-200z" />
<glyph unicode="&#xce;" horiz-adv-x="240" d="M-40 870l160 35l160 -35l-20 -100l-140 61l-140 -61zM20 0v720h200v-720h-200z" />
<glyph unicode="&#xcf;" horiz-adv-x="240" d="M-60 785v115h140v-115h-140zM20 0v720h200v-720h-200zM160 785v115h140v-115h-140z" />
<glyph unicode="&#xd0;" horiz-adv-x="545" d="M10 320v80h40v320h240q117 0 178.5 -41t61.5 -119v-400q0 -78 -61.5 -119t-178.5 -41h-240v320h-40zM230 120h60q40 0 40 50v380q0 50 -40 50h-60v-200h60v-80h-60v-200z" />
<glyph unicode="&#xd1;" horiz-adv-x="520" d="M20 0v720h20q156 0 280 -132v132h180v-640q0 -47 5 -80h-205v230q0 123 -23.5 206.5t-56.5 83.5v-520h-200zM79 805q11 40 41.5 70t73.5 30q28 0 72 -23.5t58 -23.5q24 0 35 42l78 -20q-11 -42 -42.5 -71.5t-72.5 -29.5q-31 0 -75 23.5t-56 23.5q-23 0 -34 -41z" />
<glyph unicode="&#xd2;" horiz-adv-x="510" d="M15 110v500q0 66 54.5 93t185.5 27t185.5 -27t54.5 -93v-500q0 -66 -54.5 -93t-185.5 -27t-185.5 27t-54.5 93zM135 795l20 115l200 -60l-20 -75zM215 160q0 -50 40 -50t40 50v400q0 50 -40 50t-40 -50v-400z" />
<glyph unicode="&#xd3;" horiz-adv-x="510" d="M15 110v500q0 66 54.5 93t185.5 27t185.5 -27t54.5 -93v-500q0 -66 -54.5 -93t-185.5 -27t-185.5 27t-54.5 93zM155 850l200 60l20 -115l-200 -20zM215 160q0 -50 40 -50t40 50v400q0 50 -40 50t-40 -50v-400z" />
<glyph unicode="&#xd4;" horiz-adv-x="510" d="M15 110v500q0 66 54.5 93t185.5 27t185.5 -27t54.5 -93v-500q0 -66 -54.5 -93t-185.5 -27t-185.5 27t-54.5 93zM95 870l160 35l160 -35l-20 -100l-140 61l-140 -61zM215 160q0 -50 40 -50t40 50v400q0 50 -40 50t-40 -50v-400z" />
<glyph unicode="&#xd5;" horiz-adv-x="510" d="M15 110v500q0 66 54.5 93t185.5 27t185.5 -27t54.5 -93v-500q0 -66 -54.5 -93t-185.5 -27t-185.5 27t-54.5 93zM84 805q11 40 41.5 70t73.5 30q29 0 73 -23.5t57 -23.5q24 0 35 42l78 -20q-11 -42 -42.5 -71.5t-72.5 -29.5q-31 0 -75 23.5t-56 23.5q-23 0 -34 -41z M215 160q0 -50 40 -50t40 50v400q0 50 -40 50t-40 -50v-400z" />
<glyph unicode="&#xd6;" horiz-adv-x="510" d="M15 110v500q0 66 54.5 93t185.5 27t185.5 -27t54.5 -93v-500q0 -66 -54.5 -93t-185.5 -27t-185.5 27t-54.5 93zM75 785v115h140v-115h-140zM215 160q0 -50 40 -50t40 50v400q0 50 -40 50t-40 -50v-400zM295 785v115h140v-115h-140z" />
<glyph unicode="&#xd7;" horiz-adv-x="440" d="M15 254l106 106l-106 106l99 99l106 -106l106 106l99 -99l-106 -106l106 -106l-99 -99l-106 106l-106 -106z" />
<glyph unicode="&#xd8;" horiz-adv-x="510" d="M15 110v500q0 66 54.5 93t185.5 27q105 0 155 -15l28 54l36 -18l-27 -52q48 -27 48 -89v-500q0 -66 -54.5 -93t-185.5 -27q-111 0 -167 19l-30 -58l-36 18l30 58q-37 27 -37 83zM215 160q0 -50 40 -50t40 50v247l-80 -154v-93zM215 340l80 154v66q0 50 -40 50t-40 -50 v-220z" />
<glyph unicode="&#xd9;" horiz-adv-x="510" d="M15 110v610h200v-560q0 -50 40 -50t40 50v560h200v-610q0 -66 -54.5 -93t-185.5 -27t-185.5 27t-54.5 93zM135 795l20 115l200 -60l-20 -75z" />
<glyph unicode="&#xda;" horiz-adv-x="510" d="M15 110v610h200v-560q0 -50 40 -50t40 50v560h200v-610q0 -66 -54.5 -93t-185.5 -27t-185.5 27t-54.5 93zM155 850l200 60l20 -115l-200 -20z" />
<glyph unicode="&#xdb;" horiz-adv-x="510" d="M15 110v610h200v-560q0 -50 40 -50t40 50v560h200v-610q0 -66 -54.5 -93t-185.5 -27t-185.5 27t-54.5 93zM95 870l160 35l160 -35l-20 -100l-140 61l-140 -61z" />
<glyph unicode="&#xdc;" horiz-adv-x="510" d="M15 110v610h200v-560q0 -50 40 -50t40 50v560h200v-610q0 -66 -54.5 -93t-185.5 -27t-185.5 27t-54.5 93zM75 785v115h140v-115h-140zM295 785v115h140v-115h-140z" />
<glyph unicode="&#xdd;" horiz-adv-x="510" d="M15 560v160h200v-222q0 -30 13 -79.5t27 -78.5q14 28 27 78t13 80v222h200v-160q0 -62 -35 -137t-70 -119l-35 -44v-260h-200v260q-6 7 -15.5 18.5t-33.5 46.5t-42.5 69.5t-33.5 80.5t-15 85zM145 830l200 60l20 -115l-200 -20z" />
<glyph unicode="&#xde;" horiz-adv-x="515" d="M20 0v720h200v-80h40q131 0 185.5 -27t54.5 -93v-240q0 -66 -54.5 -93t-185.5 -27h-40v-160h-200zM220 280h40q40 0 40 50v140q0 50 -40 50h-40v-240z" />
<glyph unicode="&#xdf;" horiz-adv-x="580" d="M15 0v620q0 52 64.5 81t165.5 29q107 0 163.5 -31t56.5 -89v-110q0 -49 -24.5 -78t-80.5 -41v-1q109 -3 157 -34.5t48 -95.5v-140q0 -66 -38.5 -93t-131.5 -27q-150 0 -150 110v120h80v-60q0 -50 30 -50t30 50v90q0 50 -50 50q-43 0 -66.5 23t-23.5 67v50q30 0 30 50v70 q0 50 -30 50t-30 -50v-560h-200z" />
<glyph unicode="&#xe0;" d="M15 110v80q0 65 47 92.5t153 27.5q33 0 46.5 11.5t13.5 39.5q0 49 -30 49t-30 -50v-10h-190v60q0 66 49.5 93t170.5 27q127 0 178.5 -27t51.5 -93v-300q0 -73 5 -106l-109 -8l-36 49q-78 -55 -180 -55q-62 0 -101 33.5t-39 86.5zM135 615l20 115l200 -60l-20 -75z M205 166q0 -24 9.5 -35t35.5 -11q12 0 25 9v94q-6 -4 -26 -8t-32 -14.5t-12 -34.5z" />
<glyph unicode="&#xe1;" d="M15 110v80q0 65 47 92.5t153 27.5q33 0 46.5 11.5t13.5 39.5q0 49 -30 49t-30 -50v-10h-190v60q0 66 49.5 93t170.5 27q127 0 178.5 -27t51.5 -93v-300q0 -73 5 -106l-109 -8l-36 49q-78 -55 -180 -55q-62 0 -101 33.5t-39 86.5zM135 670l200 60l20 -115l-200 -20z M205 166q0 -24 9.5 -35t35.5 -11q12 0 25 9v94q-6 -4 -26 -8t-32 -14.5t-12 -34.5z" />
<glyph unicode="&#xe2;" d="M15 110v80q0 65 47 92.5t153 27.5q33 0 46.5 11.5t13.5 39.5q0 49 -30 49t-30 -50v-10h-190v60q0 66 49.5 93t170.5 27q127 0 178.5 -27t51.5 -93v-300q0 -73 5 -106l-109 -8l-36 49q-78 -55 -180 -55q-62 0 -101 33.5t-39 86.5zM85 690l160 35l160 -35l-20 -100l-140 61 l-140 -61zM205 166q0 -24 9.5 -35t35.5 -11q12 0 25 9v94q-6 -4 -26 -8t-32 -14.5t-12 -34.5z" />
<glyph unicode="&#xe3;" d="M15 110v80q0 65 47 92.5t153 27.5q33 0 46.5 11.5t13.5 39.5q0 49 -30 49t-30 -50v-10h-190v60q0 66 49.5 93t170.5 27q127 0 178.5 -27t51.5 -93v-300q0 -73 5 -106l-109 -8l-36 49q-78 -55 -180 -55q-62 0 -101 33.5t-39 86.5zM74 625q11 40 41.5 70t73.5 30 q29 0 73 -23.5t57 -23.5q24 0 35 42l78 -20q-11 -42 -42.5 -71.5t-72.5 -29.5q-31 0 -75 23.5t-56 23.5q-23 0 -34 -41zM205 166q0 -24 9.5 -35t35.5 -11q12 0 25 9v94q-6 -4 -26 -8t-32 -14.5t-12 -34.5z" />
<glyph unicode="&#xe4;" d="M15 110v80q0 65 47 92.5t153 27.5q33 0 46.5 11.5t13.5 39.5q0 49 -30 49t-30 -50v-10h-190v60q0 66 49.5 93t170.5 27q127 0 178.5 -27t51.5 -93v-300q0 -73 5 -106l-109 -8l-36 49q-78 -55 -180 -55q-62 0 -101 33.5t-39 86.5zM65 605v115h140v-115h-140zM205 166 q0 -24 9.5 -35t35.5 -11q12 0 25 9v94q-6 -4 -26 -8t-32 -14.5t-12 -34.5zM285 605v115h140v-115h-140z" />
<glyph unicode="&#xe5;" d="M15 110v80q0 65 47 92.5t153 27.5q33 0 46.5 11.5t13.5 39.5q0 49 -30 49t-30 -50v-10h-190v60q0 66 49.5 93t170.5 27q127 0 178.5 -27t51.5 -93v-300q0 -73 5 -106l-109 -8l-36 49q-78 -55 -180 -55q-62 0 -101 33.5t-39 86.5zM135 670q0 47 32.5 78.5t77.5 31.5 q47 0 78.5 -32.5t31.5 -77.5q0 -47 -32.5 -78.5t-77.5 -31.5q-47 0 -78.5 32.5t-31.5 77.5zM195 670q0 -22 15 -36t35 -14q22 0 36 15t14 35q0 22 -15 36t-35 14q-22 0 -36 -15t-14 -35zM205 166q0 -24 9.5 -35t35.5 -11q12 0 25 9v94q-6 -4 -26 -8t-32 -14.5t-12 -34.5z " />
<glyph unicode="&#xe6;" horiz-adv-x="750" d="M15 110v80q0 66 52 93t178 27q30 2 30 50v1q0 49 -30 49t-30 -50v-10h-190v60q0 67 47.5 93.5t172.5 26.5q92 0 130 -37q38 37 130 37q126 0 178 -27t52 -93v-190h-260v-60q0 -50 30 -50t30 50v20h200v-70q0 -66 -52 -93t-178 -27q-121 0 -153 69l-17 -14 q-78 -55 -180 -55q-62 0 -101 33.5t-39 86.5zM205 166q0 -24 9.5 -35t35.5 -11q12 0 25 9v94q-6 -4 -26 -8t-32 -14.5t-12 -34.5zM475 320h80v40q0 50 -40 50t-40 -50v-40z" />
<glyph unicode="&#xe7;" horiz-adv-x="470" d="M15 110v300q0 66 52 93t178 27q102 0 156 -28t54 -82v-120h-180v60q0 50 -30 50t-30 -50v-200q0 -50 30 -50t30 50v60h180v-120q0 -54 -54 -82t-156 -28h-3l-11 -56q21 18 66 18q74 0 74 -48v-96q0 -26 -25 -37t-85 -11q-56 0 -79 10t-23 34v37h72v-13q0 -20 30 -20 t30 20v44q0 20 -31 20q-16 0 -29 -12h-72l17 112q-87 7 -124 34.5t-37 83.5z" />
<glyph unicode="&#xe8;" d="M15 110v300q0 66 52 93t178 27t178 -27t52 -93v-190h-260v-60q0 -50 30 -50t30 50v20h200v-70q0 -66 -52 -93t-178 -27t-178 27t-52 93zM125 615l20 115l200 -60l-20 -75zM215 320h80v40q0 50 -40 50t-40 -50v-40z" />
<glyph unicode="&#xe9;" d="M15 110v300q0 66 52 93t178 27t178 -27t52 -93v-190h-260v-60q0 -50 30 -50t30 50v20h200v-70q0 -66 -52 -93t-178 -27t-178 27t-52 93zM145 670l200 60l20 -115l-200 -20zM215 320h80v40q0 50 -40 50t-40 -50v-40z" />
<glyph unicode="&#xea;" d="M15 110v300q0 66 52 93t178 27t178 -27t52 -93v-190h-260v-60q0 -50 30 -50t30 50v20h200v-70q0 -66 -52 -93t-178 -27t-178 27t-52 93zM85 690l160 35l160 -35l-20 -100l-140 61l-140 -61zM215 320h80v40q0 50 -40 50t-40 -50v-40z" />
<glyph unicode="&#xeb;" d="M15 110v300q0 66 52 93t178 27t178 -27t52 -93v-190h-260v-60q0 -50 30 -50t30 50v20h200v-70q0 -66 -52 -93t-178 -27t-178 27t-52 93zM65 605v115h140v-115h-140zM215 320h80v40q0 50 -40 50t-40 -50v-40zM285 605v115h140v-115h-140z" />
<glyph unicode="&#xec;" horiz-adv-x="240" d="M0 615l20 115l200 -60l-20 -75zM20 130v390h200v-440q0 -47 5 -80h-170q-21 0 -28 28t-7 102z" />
<glyph unicode="&#xed;" horiz-adv-x="240" d="M20 130v390h200v-440q0 -47 5 -80h-170q-21 0 -28 28t-7 102zM20 670l200 60l20 -115l-200 -20z" />
<glyph unicode="&#xee;" horiz-adv-x="240" d="M-40 690l160 35l160 -35l-20 -100l-140 61l-140 -61zM20 130v390h200v-440q0 -47 5 -80h-170q-21 0 -28 28t-7 102z" />
<glyph unicode="&#xef;" horiz-adv-x="240" d="M-30 605v115h120v-115h-120zM20 130v390h200v-440q0 -47 5 -80h-170q-21 0 -28 28t-7 102zM150 605v115h120v-115h-120z" />
<glyph unicode="&#xf0;" d="M15 110v260q0 58 54 89t156 31q47 0 84 -12q-10 60 -34 102l-82 -39l-26 54l70 33q-20 19 -50.5 37.5t-46 32t-15.5 32.5h110q74 0 132 -41l80 38l25 -54l-59 -28q62 -79 62 -205v-330q0 -66 -52 -93t-178 -27t-178 27t-52 93zM215 160q0 -50 30 -50t30 50v160 q0 50 -30 50t-30 -50v-160z" />
<glyph unicode="&#xf1;" horiz-adv-x="495" d="M20 0v520h94l36 -52q79 62 190 62q62 0 101 -33.5t39 -86.5v-330q0 -47 5 -80h-170q-21 0 -28 28t-7 102v200q0 51 -32 51q-12 0 -28 -11v-370h-200zM69 625q11 40 41.5 70t73.5 30q29 0 72.5 -23.5t57.5 -23.5q24 0 35 42l78 -20q-11 -42 -42.5 -71.5t-72.5 -29.5 q-31 0 -75 23.5t-56 23.5q-23 0 -34 -41z" />
<glyph unicode="&#xf2;" d="M15 110v300q0 66 52 93t178 27t178 -27t52 -93v-300q0 -66 -52 -93t-178 -27t-178 27t-52 93zM125 615l20 115l200 -60l-20 -75zM215 160q0 -50 30 -50t30 50v200q0 50 -30 50t-30 -50v-200z" />
<glyph unicode="&#xf3;" d="M15 110v300q0 66 52 93t178 27t178 -27t52 -93v-300q0 -66 -52 -93t-178 -27t-178 27t-52 93zM145 670l200 60l20 -115l-200 -20zM215 160q0 -50 30 -50t30 50v200q0 50 -30 50t-30 -50v-200z" />
<glyph unicode="&#xf4;" d="M15 110v300q0 66 52 93t178 27t178 -27t52 -93v-300q0 -66 -52 -93t-178 -27t-178 27t-52 93zM85 690l160 35l160 -35l-20 -100l-140 61l-140 -61zM215 160q0 -50 30 -50t30 50v200q0 50 -30 50t-30 -50v-200z" />
<glyph unicode="&#xf5;" d="M15 110v300q0 66 52 93t178 27t178 -27t52 -93v-300q0 -66 -52 -93t-178 -27t-178 27t-52 93zM74 625q11 40 41.5 70t73.5 30q29 0 73 -23.5t57 -23.5q24 0 35 42l78 -20q-11 -42 -42.5 -71.5t-72.5 -29.5q-31 0 -75 23.5t-56 23.5q-23 0 -34 -41zM215 160q0 -50 30 -50 t30 50v200q0 50 -30 50t-30 -50v-200z" />
<glyph unicode="&#xf6;" d="M15 110v300q0 66 52 93t178 27t178 -27t52 -93v-300q0 -66 -52 -93t-178 -27t-178 27t-52 93zM65 605v115h140v-115h-140zM215 160q0 -50 30 -50t30 50v200q0 50 -30 50t-30 -50v-200zM285 605v115h140v-115h-140z" />
<glyph unicode="&#xf7;" horiz-adv-x="480" d="M20 290v140h440v-140h-440zM170 95v130l5 5h130l5 -5v-130l-5 -5h-130zM170 495v130l5 5h130l5 -5v-130l-5 -5h-130z" />
<glyph unicode="&#xf8;" d="M15 110v300q0 66 52 93t178 27q88 0 149 -25l46 66l32 -22l-43 -63q46 -32 46 -76v-300q0 -66 -52 -93t-178 -27q-86 0 -144 23l-45 -64l-32 22l41 60q-50 31 -50 79zM195 219l100 144q-2 47 -50 47q-50 0 -50 -50v-141zM196 149q6 -39 49 -39q50 0 50 50v133z" />
<glyph unicode="&#xf9;" horiz-adv-x="495" d="M15 110v410h200v-330q0 -23 9 -37t23 -14q12 0 28 11v370h200v-440q0 -47 5 -80h-99l-36 52q-79 -62 -190 -62q-62 0 -101 33.5t-39 86.5zM125 615l20 115l200 -60l-20 -75z" />
<glyph unicode="&#xfa;" horiz-adv-x="495" d="M15 110v410h200v-330q0 -23 9 -37t23 -14q12 0 28 11v370h200v-440q0 -47 5 -80h-99l-36 52q-79 -62 -190 -62q-62 0 -101 33.5t-39 86.5zM145 670l200 60l20 -115l-200 -20z" />
<glyph unicode="&#xfb;" horiz-adv-x="495" d="M15 110v410h200v-330q0 -23 9 -37t23 -14q12 0 28 11v370h200v-440q0 -47 5 -80h-99l-36 52q-79 -62 -190 -62q-62 0 -101 33.5t-39 86.5zM85 690l160 35l160 -35l-20 -100l-140 61l-140 -61z" />
<glyph unicode="&#xfc;" horiz-adv-x="495" d="M15 110v410h200v-330q0 -23 9 -37t23 -14q12 0 28 11v370h200v-440q0 -47 5 -80h-99l-36 52q-79 -62 -190 -62q-62 0 -101 33.5t-39 86.5zM65 605v115h140v-115h-140zM285 605v115h140v-115h-140z" />
<glyph unicode="&#xfd;" d="M15 300v220h200v-242q0 -34 9 -83t21 -75q13 25 21.5 74.5t8.5 83.5v242h200v-220q0 -62 -35 -137t-70 -119l-35 -44l-5 -6q-6 -6 -12 -13t-15.5 -18t-18 -23t-18.5 -26t-18 -28.5t-14.5 -29t-10 -29t-3.5 -27.5h-200q0 130 118 221q-123 160 -123 279zM145 670l200 60 l20 -115l-200 -20z" />
<glyph unicode="&#xfe;" horiz-adv-x="495" d="M20 -200v920h200v-235q56 45 120 45q62 0 101 -33.5t39 -86.5v-300q0 -53 -39 -86.5t-101 -33.5q-64 0 -120 45v-235h-200zM220 150q16 -11 28 -11q14 0 23 14t9 37v140q0 23 -9 37t-23 14q-12 0 -28 -11v-220z" />
<glyph unicode="&#xff;" d="M15 300v220h200v-242q0 -34 9 -83t21 -75q13 25 21.5 74.5t8.5 83.5v242h200v-220q0 -62 -35 -137t-70 -119l-35 -44l-5 -6q-6 -6 -12 -13t-15.5 -18t-18 -23t-18.5 -26t-18 -28.5t-14.5 -29t-10 -29t-3.5 -27.5h-200q0 130 118 221q-123 160 -123 279zM65 605v115h140 v-115h-140zM285 605v115h140v-115h-140z" />
<glyph unicode="&#x152;" horiz-adv-x="685" d="M15 120v480q0 58 61.5 89t178.5 31h420v-140h-180v-150h120v-140h-120v-150h180v-140h-420q-117 0 -178.5 31t-61.5 89zM215 190q0 -50 40 -50h40v440h-40q-40 0 -40 -50v-340z" />
<glyph unicode="&#x153;" horiz-adv-x="750" d="M15 110v300q0 66 52 93t178 27q92 0 130 -37q38 37 130 37q126 0 178 -27t52 -93v-190h-260v-60q0 -50 30 -50t30 50v20h200v-70q0 -66 -52 -93t-178 -27q-92 0 -130 37q-38 -37 -130 -37q-126 0 -178 27t-52 93zM215 160q0 -50 30 -50t30 50v200q0 50 -30 50t-30 -50 v-200zM475 320h80v40q0 50 -40 50t-40 -50v-40z" />
<glyph unicode="&#x178;" horiz-adv-x="510" d="M15 560v160h200v-222q0 -30 13 -79.5t27 -78.5q14 28 27 78t13 80v222h200v-160q0 -62 -35 -137t-70 -119l-35 -44v-260h-200v260q-6 7 -15.5 18.5t-33.5 46.5t-42.5 69.5t-33.5 80.5t-15 85zM75 785v115h140v-115h-140zM295 785v115h140v-115h-140z" />
<glyph unicode="&#x2c6;" horiz-adv-x="340" d="M10 690l160 35l160 -35l-20 -100l-140 61l-140 -61z" />
<glyph unicode="&#x2dc;" horiz-adv-x="370" d="M6 625q11 40 41.5 70t73.5 30q29 0 73 -23.5t57 -23.5q24 0 35 42l78 -20q-11 -42 -42.5 -71.5t-72.5 -29.5q-31 0 -75 23.5t-56 23.5q-23 0 -34 -41z" />
<glyph unicode="&#x2000;" horiz-adv-x="462" />
<glyph unicode="&#x2001;" horiz-adv-x="925" />
<glyph unicode="&#x2002;" horiz-adv-x="462" />
<glyph unicode="&#x2003;" horiz-adv-x="925" />
<glyph unicode="&#x2004;" horiz-adv-x="308" />
<glyph unicode="&#x2005;" horiz-adv-x="231" />
<glyph unicode="&#x2006;" horiz-adv-x="154" />
<glyph unicode="&#x2007;" horiz-adv-x="154" />
<glyph unicode="&#x2008;" horiz-adv-x="115" />
<glyph unicode="&#x2009;" horiz-adv-x="185" />
<glyph unicode="&#x200a;" horiz-adv-x="51" />
<glyph unicode="&#x2010;" horiz-adv-x="360" d="M15 220l10 120h320l-10 -120h-320z" />
<glyph unicode="&#x2011;" horiz-adv-x="360" d="M15 220l10 120h320l-10 -120h-320z" />
<glyph unicode="&#x2012;" horiz-adv-x="360" d="M15 220l10 120h320l-10 -120h-320z" />
<glyph unicode="&#x2013;" horiz-adv-x="560" d="M20 290v140h520v-140h-520z" />
<glyph unicode="&#x2014;" horiz-adv-x="960" d="M20 290v140h920v-140h-920z" />
<glyph unicode="&#x2018;" horiz-adv-x="180" d="M25 525v135q0 82 70 152l42 -42q-42 -42 -42 -110h55l5 -5v-130l-5 -5h-120z" />
<glyph unicode="&#x2019;" horiz-adv-x="180" d="M25 645v130l5 5h120l5 -5v-135q0 -82 -70 -152l-42 42q42 42 42 110h-55z" />
<glyph unicode="&#x201a;" horiz-adv-x="180" d="M25 5v130l5 5h120l5 -5v-135q0 -82 -70 -152l-42 42q42 42 42 110h-55z" />
<glyph unicode="&#x201c;" horiz-adv-x="360" d="M25 525v135q0 82 70 152l42 -42q-42 -42 -42 -110h55l5 -5v-130l-5 -5h-120zM205 525v135q0 82 70 152l42 -42q-42 -42 -42 -110h55l5 -5v-130l-5 -5h-120z" />
<glyph unicode="&#x201d;" horiz-adv-x="360" d="M25 645v130l5 5h120l5 -5v-135q0 -82 -70 -152l-42 42q42 42 42 110h-55zM205 645v130l5 5h120l5 -5v-135q0 -82 -70 -152l-42 42q42 42 42 110h-55z" />
<glyph unicode="&#x201e;" horiz-adv-x="360" d="M25 5v130l5 5h120l5 -5v-135q0 -82 -70 -152l-42 42q42 42 42 110h-55zM205 5v130l5 5h120l5 -5v-135q0 -82 -70 -152l-42 42q42 42 42 110h-55z" />
<glyph unicode="&#x2022;" horiz-adv-x="280" d="M20 260q0 50 35.5 85t84.5 35q50 0 85 -35.5t35 -84.5q0 -50 -35.5 -85t-84.5 -35q-50 0 -85 35.5t-35 84.5z" />
<glyph unicode="&#x2026;" horiz-adv-x="550" d="M25 5v130l5 5h130l5 -5v-130l-5 -5h-130zM205 5v130l5 5h130l5 -5v-130l-5 -5h-130zM385 5v130l5 5h130l5 -5v-130l-5 -5h-130z" />
<glyph unicode="&#x202f;" horiz-adv-x="185" />
<glyph unicode="&#x2039;" horiz-adv-x="264" d="M10 260l146 208l98 -70l-98 -138l98 -138l-98 -70z" />
<glyph unicode="&#x203a;" horiz-adv-x="264" d="M10 122l98 138l-98 138l98 70l146 -208l-146 -208z" />
<glyph unicode="&#x205f;" horiz-adv-x="231" />
<glyph unicode="&#x20ac;" horiz-adv-x="520" d="M10 250l2 80h33v60h-30l2 80h28v140q0 66 54.5 93t185.5 27q121 0 170.5 -25t49.5 -85v-100h-180v40q0 50 -40 50t-40 -50v-90h162l-2 -80h-160v-60h157l-2 -80h-155v-90q0 -50 40 -50t40 50v40h180v-100q0 -60 -49.5 -85t-170.5 -25q-131 0 -185.5 27t-54.5 93v140h-35z " />
<glyph unicode="&#x2122;" horiz-adv-x="1210" d="M10 640v120h440v-120h-120v-340h-200v340h-120zM475 300v460h180q54 0 95.5 -24t84.5 -73q43 49 84.5 73t95.5 24h180v-380q0 -47 5 -80h-170q-21 0 -28 28t-7 102v210q-37 0 -48.5 -37t-11.5 -123v-180h-200v180q0 86 -11.5 123t-48.5 37v-340h-200z" />
<glyph unicode="&#xe000;" horiz-adv-x="520" d="M0 0v520h520v-520h-520z" />
</font>
</defs>
</svg>
