<?xml version="1.0" standalone="no"?>
<!DOCTYPE svg PUBLIC "-//W3C//DTD SVG 1.1//EN" "http://www.w3.org/Graphics/SVG/1.1/DTD/svg11.dtd" >
<svg xmlns="http://www.w3.org/2000/svg">
<metadata></metadata>
<defs>
<font id="mulilight_italic" horiz-adv-x="1190" >
<font-face units-per-em="2048" ascent="1638" descent="-410" />
<missing-glyph horiz-adv-x="599" />
<glyph horiz-adv-x="2048" />
<glyph horiz-adv-x="2048" />
<glyph unicode="&#xd;" horiz-adv-x="0" />
<glyph unicode=" "  horiz-adv-x="599" />
<glyph unicode="&#x09;" horiz-adv-x="599" />
<glyph unicode="&#xa0;" horiz-adv-x="599" />
<glyph unicode="!" horiz-adv-x="737" d="M299 152h178l-17 -175h-185zM453 385h-105l68 1082h148z" />
<glyph unicode="&#x22;" horiz-adv-x="720" d="M551 1026v441h138l-48 -441h-90zM253 1026v441h136l-49 -441h-87z" />
<glyph unicode="#" horiz-adv-x="1242" d="M472 917h-273l16 93h282l115 426h99l-116 -426h323l116 426h96l-114 -426h253l-17 -93h-259l-85 -322h264l-21 -91h-269l-119 -441h-99l120 441h-324l-121 -441h-96l120 441h-264l14 91h275zM895 917h-323l-89 -322h326z" />
<glyph unicode="$" horiz-adv-x="1244" d="M452 -216l381 1871h64l-379 -1871h-67h1zM210 250q45 -55 92.5 -86.5t95.5 -47.5t96.5 -20.5t96.5 -4.5q90 0 165.5 18t130.5 53.5t85.5 88t30.5 121.5t-33 117t-87.5 84t-123.5 64t-141.5 56t-141.5 60t-123.5 76.5t-87.5 105t-33 145.5q0 66 22 121.5t60 100.5t90 79 t113 56.5t127.5 34t134.5 11.5q48 0 98.5 -6.5t99.5 -21.5t93.5 -40.5t80.5 -63.5l-56 -93q-32 30 -70.5 51t-80.5 34t-87 19t-89 6q-70 0 -140.5 -15t-127.5 -47.5t-92.5 -83.5t-35.5 -123q0 -66 33 -113t87.5 -84t124 -66.5t141.5 -59t141.5 -63.5t124 -79.5t87.5 -106.5 t33 -144q0 -76 -24 -135t-66.5 -104.5t-99 -77t-121.5 -51.5t-134.5 -29t-138.5 -9q-128 0 -235.5 48.5t-174.5 144.5z" />
<glyph unicode="%" horiz-adv-x="1985" d="M1537 644q-67 0 -117 -28t-83 -74t-49.5 -105.5t-16.5 -121.5q0 -55 12.5 -103t39.5 -83.5t69 -56t101 -20.5q67 0 117 28t83 74.5t49.5 106t16.5 122.5q0 54 -13 102t-40 83t-69 55.5t-100 20.5zM1550 726q75 0 132.5 -25.5t96.5 -71t58.5 -108.5t19.5 -137 q0 -85 -27.5 -160t-77 -130.5t-119 -88t-152.5 -32.5q-75 0 -133 25.5t-97.5 71t-59.5 107.5t-20 135q0 86 27.5 161.5t77.5 131.5t119.5 88.5t154.5 32.5zM643 1463q76 0 134 -25.5t97 -71t59 -108t20 -136.5q0 -86 -27.5 -160.5t-77 -130.5t-119 -88t-152.5 -32 q-76 0 -134 26t-97 71.5t-59 107.5t-20 134q0 87 27 162.5t76.5 131t119 87.5t153.5 32zM1507 1452h105l-1030 -1457h-105zM633 1385q-68 0 -118 -28t-84 -74.5t-50.5 -105.5t-16.5 -122q0 -54 13 -102.5t41 -84.5t70.5 -57t101.5 -21q67 0 116.5 28t82 74t48.5 105.5 t16 122.5q0 54 -12.5 102t-39.5 84.5t-68.5 57.5t-99.5 21z" />
<glyph unicode="&#x26;" horiz-adv-x="1647" d="M162 370q0 92 38.5 165.5t100.5 132.5t140 106t157 87q-33 36 -66 71t-59 73.5t-42.5 82t-16.5 97.5q0 75 30 132t81 95.5t119 57.5t145 19q65 0 126.5 -15.5t109 -47.5t76.5 -81t29 -115t-29.5 -123t-79 -105.5t-114.5 -89t-135 -74.5l427 -466q51 63 92.5 138t71 156.5 t46 166t16.5 164.5q0 14 -0.5 19t-1.5 16h130q0 -94 -18.5 -193.5t-53 -196.5t-85.5 -188t-115 -168q45 -51 82.5 -88.5t75.5 -64.5t80.5 -44.5t96.5 -27.5l-103 -70q-42 6 -76.5 22t-68 41.5t-71 62.5t-85.5 85q-51 -48 -109 -90t-125.5 -72.5t-145 -48.5t-167.5 -18 q-109 0 -201.5 26.5t-159.5 77t-104.5 124.5t-37.5 169zM1131 282q1 0 -18.5 21.5t-52 56.5t-74.5 80.5t-85 92.5q-102 110 -232 251q-69 -32 -136 -70.5t-119 -87t-84 -108.5t-32 -135q0 -64 27 -119t76.5 -95.5t119 -63.5t155.5 -23q75 0 139 15.5t119.5 42.5t104 63.5 t92.5 78.5zM700 909q55 28 109.5 60t97 69t69 80.5t26.5 95.5q0 46 -19 79.5t-49.5 55t-69 31.5t-77.5 10q-48 0 -92.5 -12.5t-78 -38t-54 -63t-20.5 -86.5q0 -42 12 -78.5t33 -70.5t50 -66.5t63 -65.5z" />
<glyph unicode="'" horiz-adv-x="554" d="M318 1026v441h137l-47 -441h-90z" />
<glyph unicode="(" horiz-adv-x="628" d="M434 -268q-45 79 -83.5 170.5t-67.5 189.5t-45.5 201t-16.5 205q0 138 25 264.5t71 246t110.5 233.5t144.5 225h95q-78 -112 -138.5 -227t-102.5 -235t-64 -246t-22 -260q0 -96 12.5 -197t37 -201t60.5 -194t83 -175h-99z" />
<glyph unicode=")" horiz-adv-x="628" d="M168 -268h-96q71 101 131 212t103.5 232t68 252.5t24.5 272.5q0 91 -12.5 190t-37 198.5t-61.5 195.5t-85 182h101q46 -83 85.5 -175.5t68.5 -191.5t45.5 -202t16.5 -205q0 -140 -26 -266.5t-72.5 -245t-111 -230t-142.5 -219.5z" />
<glyph unicode="*" horiz-adv-x="1065" d="M629 1065l-194 -283l-83 54l226 250l-289 84l26 101l291 -132l-18 328h102l-33 -330l268 137l42 -91l-283 -94l188 -263l-94 -52z" />
<glyph unicode="+" horiz-adv-x="1458" d="M732 608l36 439h104l-38 -439h469l-10 -104h-466l-36 -439h-105l38 439h-467l9 104h466z" />
<glyph unicode="," horiz-adv-x="540" d="M226 176h140l-189 -441h-91z" />
<glyph unicode="-" horiz-adv-x="728" d="M140 508l10 102h543l-10 -102h-543z" />
<glyph unicode="." horiz-adv-x="540" d="M359 -11h-172l13 179h174z" />
<glyph unicode="/" horiz-adv-x="717" d="M-39 -224l780 1691h121l-785 -1691h-116z" />
<glyph unicode="0" d="M727 1469q119 0 202 -46.5t135 -132.5t75.5 -207.5t23.5 -272.5q0 -187 -37.5 -340.5t-110 -263t-179 -169.5t-243.5 -60q-116 0 -198 46t-134.5 128.5t-76.5 196t-24 248.5q0 202 37 364t108.5 275t177.5 173.5t244 60.5zM708 1359q-102 0 -179.5 -54.5t-129.5 -153 t-78 -235t-26 -300.5q0 -67 6 -132.5t20.5 -124.5t38 -109.5t59 -87t83.5 -57t111 -20.5q103 0 180 54.5t128 152t76.5 232t25.5 295.5q0 103 -14 200.5t-49.5 173t-96.5 121t-155 45.5z" />
<glyph unicode="1" d="M401 1285q75 24 148 61t143 81l132 20l-100 -1335h224l-10 -112h-579l11 117h228l92 1193q-75 -45 -151.5 -81.5t-148.5 -62.5z" />
<glyph unicode="2" d="M118 0l11 131q92 82 191.5 166t195 167.5t181.5 166.5t151 163.5t103 158.5t38 152q0 56 -21 102t-60 78.5t-94.5 50.5t-125.5 18q-63 0 -120.5 -15t-106.5 -42.5t-87.5 -67.5t-64.5 -89l-71 73q28 60 75.5 106.5t109.5 78.5t136 49t155 17q89 0 164 -24t130 -68 t85.5 -107.5t30.5 -142.5q0 -86 -31 -167t-87 -161t-134 -160.5t-173 -164t-203.5 -171.5t-225.5 -184h777l-9 -114h-920z" />
<glyph unicode="3" d="M263 1324q36 31 82 57t99 44.5t111.5 29t120.5 10.5q84 0 160.5 -22t135 -65.5t93.5 -107t35 -146.5q0 -75 -25.5 -139t-74.5 -112t-120 -78t-162 -37v-4q81 -8 148.5 -34.5t116 -69.5t75 -102.5t26.5 -132.5q0 -102 -44 -183t-118.5 -137.5t-172 -87t-205.5 -30.5 q-118 0 -216 33.5t-163 102.5l64 89q58 -57 139.5 -87t178.5 -30q82 0 155.5 22t128.5 64t87 102.5t32 136.5q0 78 -30 132.5t-85.5 89t-135 50t-178.5 15.5q-9 0 -18 -0.5t-17 -0.5q-9 -1 -17 -1l10 113q6 -1 12 -1h25q98 0 179.5 15.5t140 51.5t91 94.5t32.5 144.5 q0 62 -22 107t-61.5 74.5t-94.5 44t-122 14.5q-106 0 -195 -33t-155 -88z" />
<glyph unicode="4" horiz-adv-x="1189" d="M769 0l26 363h-726l10 106l754 967h176l-79 -972h225l-9 -101h-225l-26 -363h-126zM801 464l67 884l-119 -168l-562 -716h614z" />
<glyph unicode="5" d="M271 214q57 -66 131 -97.5t162 -31.5q96 0 172.5 31.5t129.5 85t81 125t28 152.5q0 63 -20 119t-59 97.5t-97 66t-134 24.5q-88 0 -159.5 -27.5t-113.5 -75.5q-14 0 -37 -0.5t-45 -0.5h-54l81 759h771l-10 -114h-650l-55 -516q28 23 62 40t71.5 28.5t77 17t78.5 5.5 q101 0 180 -31t134 -86.5t83.5 -132.5t28.5 -168q0 -108 -39 -200.5t-111 -160.5t-174 -107t-229 -39q-98 0 -187 32t-154 101z" />
<glyph unicode="6" d="M1065 1273q-49 42 -116.5 64t-153.5 22q-84 0 -153.5 -29t-125 -80t-97.5 -120t-70.5 -149.5t-43.5 -168t-16 -175.5q0 -2 0.5 -3t0.5 -2q0 -2 -1 -3q31 71 76.5 124t102.5 88t123.5 52.5t141.5 17.5q95 0 170.5 -29t128.5 -83.5t81 -132t28 -174.5q0 -110 -38 -204 t-107 -163t-165 -108.5t-212 -39.5t-202 44.5t-142.5 125.5t-84.5 195t-28 252q0 118 19 228.5t56.5 208t92.5 178t126.5 138.5t159 90t189.5 32q100 0 177.5 -30.5t131.5 -86.5zM693 806q-74 0 -144 -24t-124.5 -66t-88 -99.5t-33.5 -124.5q0 -80 16.5 -153.5t55 -129.5 t102.5 -90t159 -34q82 0 150 30t116 82.5t74.5 124.5t26.5 155q0 71 -18 131.5t-56 104.5t-96.5 68.5t-139.5 24.5z" />
<glyph unicode="7" horiz-adv-x="1189" d="M1183 1436l-7 -73l-706 -1363h-143l706 1322h-817l10 114h957z" />
<glyph unicode="8" d="M140 333q0 79 27 146.5t78 121.5t124 93t166 61v3q-72 15 -127.5 44.5t-94 72t-58.5 96.5t-20 116q0 90 41.5 160.5t110 120t158 75.5t185.5 26q84 0 159.5 -22t132.5 -64t90.5 -103.5t33.5 -140.5q0 -69 -25.5 -128.5t-72 -108t-111.5 -85t-145 -58.5v-3 q168 -45 251 -134t83 -226q0 -101 -43.5 -179t-117.5 -131t-172.5 -81t-208.5 -28q-90 0 -171 23.5t-141.5 68.5t-96 111.5t-35.5 152.5zM274 356q0 -66 25.5 -117t70.5 -85t106.5 -51.5t133.5 -17.5q79 0 148 21.5t120 61.5t80 97.5t29 128.5q0 69 -23.5 121t-67.5 88.5 t-106 59.5t-138 35q-83 -15 -152.5 -43t-119.5 -70.5t-78 -99.5t-28 -129zM363 1093q0 -119 78 -187t226 -92q170 23 260 99.5t90 206.5q0 62 -24.5 108t-66 76t-97 45t-117.5 15q-64 0 -126.5 -17.5t-112 -52t-80 -85t-30.5 -116.5z" />
<glyph unicode="9" d="M258 184q41 -51 110 -80t164 -29q80 0 147.5 28.5t123 78.5t98 119t72 150.5t45.5 172t18 184.5q-63 -124 -176 -190t-264 -66q-96 0 -172.5 30.5t-130 85.5t-82 130.5t-28.5 165.5q0 107 38 199t107 160t165.5 107t213.5 39q110 0 195 -39.5t142.5 -115t87 -187 t29.5 -255.5q0 -197 -43.5 -361.5t-126 -283t-202 -184.5t-271.5 -66q-106 0 -182.5 33t-121.5 95zM634 661q66 0 125.5 18t109.5 49.5t88 75.5t60 96q3 21 5 30l3 13.5t1 7.5v11q0 79 -19 150.5t-59.5 126.5t-104.5 87.5t-155 32.5q-82 0 -150 -29t-117.5 -80t-77 -120.5 t-27.5 -150.5q0 -69 18.5 -127.5t57.5 -100.5t99 -66t143 -24z" />
<glyph unicode=":" horiz-adv-x="540" d="M391 769h-172l13 179h174zM359 -11h-172l13 179h174z" />
<glyph unicode=";" horiz-adv-x="540" d="M226 176h140l-189 -441h-91zM391 769h-172l13 179h174z" />
<glyph unicode="&#x3c;" horiz-adv-x="1458" d="M441 552l803 -374l-8 -114l-959 450l11 75l1028 466l-8 -116z" />
<glyph unicode="=" horiz-adv-x="1458" d="M1285 398l-10 -106h-1034l9 106h1035zM1318 821l-9 -107h-1037l12 107h1034z" />
<glyph unicode="&#x3e;" horiz-adv-x="1458" d="M1126 552l-811 399l9 115l958 -478l-11 -71l-1028 -440l8 110z" />
<glyph unicode="?" horiz-adv-x="1032" d="M419 380v177q0 57 33 105.5t82 93t107 88t107 91.5t82 103.5t33 123.5q0 60 -21.5 102.5t-57 69.5t-81.5 39.5t-95 12.5q-47 0 -88 -6.5t-78 -16.5t-69.5 -21t-61.5 -20l8 106q67 35 137 50.5t133 15.5q85 0 158 -19t127 -58t84.5 -98t30.5 -138q0 -53 -12.5 -98.5 t-34.5 -84.5t-52.5 -71.5t-66.5 -60.5q-17 -13 -29.5 -23t-26.5 -22q-52 -45 -90 -76.5t-64.5 -57t-43.5 -48.5t-26.5 -49.5t-13 -60t-3.5 -80.5v-69h-107zM548 -11h-172l13 179h174z" />
<glyph unicode="@" horiz-adv-x="1895" d="M1316 975h2l44 139l119 9q-47 -136 -87 -254q-17 -50 -34.5 -101.5t-33 -97.5t-27.5 -83t-18 -59q-9 -30 -13.5 -54t-4.5 -50q0 -47 23 -73t82 -26q46 0 92 20t87 55.5t76 84.5t61 106.5t40.5 122t14.5 130.5q0 124 -46.5 227.5t-131 178t-203 116t-263.5 41.5 q-111 0 -212.5 -28t-189.5 -78.5t-160 -121.5t-123.5 -157t-79.5 -184.5t-28 -203.5q0 -142 48.5 -263t137.5 -209t216 -137.5t285 -49.5q159 0 301 45.5t248 131.5l47 -46q-53 -50 -121 -90t-146.5 -68.5t-165.5 -44t-177 -15.5q-173 0 -317 55.5t-247 154.5t-160 235 t-57 297q0 121 33 232t93.5 206.5t144.5 174t185.5 134t218 85.5t240.5 30q158 0 293 -48t233.5 -134.5t154.5 -205.5t56 -261q0 -85 -21 -163t-58 -145.5t-86.5 -123t-106.5 -95t-118.5 -61t-121.5 -21.5q-43 0 -78 14t-60.5 40t-39.5 63t-15 83q-58 -85 -137 -126.5 t-158 -41.5q-54 0 -104 20t-88 59.5t-61 98.5t-23 138q0 72 21 141.5t57.5 131.5t86 114.5t107.5 90.5t121 59.5t127 21.5q46 0 85 -11.5t69 -33.5t48.5 -52.5t23.5 -68.5zM681 560q0 -43 12.5 -79.5t37 -63.5t60.5 -42t82 -15q52 0 100.5 20.5t91 56t78 84t61 104.5 t39.5 118t14 124q0 38 -9.5 70.5t-31 56t-55.5 37t-83 13.5q-55 0 -105.5 -21t-94.5 -57t-80.5 -84t-62.5 -102t-40 -110.5t-14 -109.5z" />
<glyph unicode="A" horiz-adv-x="1425" d="M177 0h-139l722 1456h151l490 -1456h-141l-146 426h-734zM422 520h665l-195 648l-62 221l-94 -221z" />
<glyph unicode="B" horiz-adv-x="1352" d="M224 0l119 1456h271q61 0 130.5 -1.5t138 -10.5t131.5 -28t111 -54.5t76.5 -90t28.5 -134.5q0 -73 -28 -135.5t-76.5 -110.5t-113.5 -81t-138 -47q84 -3 152 -27t116.5 -67.5t75 -105t26.5 -139.5q0 -84 -32.5 -160.5t-96.5 -135t-158 -93.5t-218 -35h-515zM408 699 l-48 -585h319q102 0 182 18.5t135 56.5t84 96t29 138q0 79 -29.5 132t-86.5 85t-140.5 45.5t-191.5 13.5h-253zM416 812h226q83 0 164 13t144.5 46t103 90t39.5 145q0 75 -30.5 121t-84.5 71.5t-126.5 34.5t-156.5 9h-235z" />
<glyph unicode="C" horiz-adv-x="1399" d="M1302 1266q-62 51 -149.5 76.5t-198.5 25.5q-106 0 -194 -28.5t-158.5 -78.5t-123 -118t-88 -147.5t-53 -166.5t-17.5 -174q0 -115 29.5 -217.5t92 -179.5t159.5 -122t232 -45q132 0 243.5 31t186.5 93l35 -97q-91 -69 -219.5 -105t-286.5 -36q-151 0 -265.5 52 t-191 142.5t-115.5 212.5t-39 263q0 111 24.5 216t70.5 198t113 170.5t152 133.5t187 87t219 31q131 0 230 -33.5t179 -108.5z" />
<glyph unicode="D" horiz-adv-x="1546" d="M330 1456h299q128 0 242 -11t210 -39.5t172 -77t129.5 -123t81.5 -177.5t28 -241q0 -179 -60.5 -324.5t-174 -248.5t-276 -158.5t-365.5 -55.5h-405zM349 114h295q180 0 313.5 49.5t221.5 137.5t131 210t43 266q0 158 -46.5 266t-137 174.5t-224 95.5t-307.5 29h-189z " />
<glyph unicode="E" horiz-adv-x="1218" d="M1105 114l-9 -114h-870l119 1456h836l-9 -114h-710l-42 -538h671l-10 -113h-671l-48 -577h743z" />
<glyph unicode="F" horiz-adv-x="1137" d="M344 0h-126l119 1456h812l-9 -114h-686l-42 -543h650l-10 -113h-649z" />
<glyph unicode="G" horiz-adv-x="1530" d="M905 624l10 114h498l-55 -663q-116 -54 -243.5 -76t-255.5 -22q-167 0 -292.5 47t-209.5 132.5t-126.5 206.5t-42.5 268q0 116 24.5 224t71.5 203t115 173t155.5 134t192.5 87t226 31q81 0 154.5 -14t133 -42t101 -70t58.5 -98l-62 -70q-21 46 -60 79.5t-92 55.5t-117 33 t-136 11q-101 0 -187 -27.5t-156 -76.5t-123.5 -116t-90 -146t-55 -166.5t-18.5 -177.5q0 -128 34.5 -233t104.5 -179t175.5 -114.5t247.5 -40.5q97 0 186 15t168 51l38 467h-372z" />
<glyph unicode="H" horiz-adv-x="1555" d="M349 0h-129l119 1456h129l-54 -650h872l52 650h128l-119 -1456h-128l58 693h-872z" />
<glyph unicode="I" horiz-adv-x="591" d="M364 0h-129l119 1456h129z" />
<glyph unicode="J" horiz-adv-x="939" d="M177 126q55 -35 162 -35q76 0 131.5 27.5t93 78.5t58.5 123.5t29 161.5l82 974h128l-79 -963q-11 -132 -47 -229t-94.5 -161t-138.5 -95t-179 -31q-57 0 -100.5 14t-75.5 40z" />
<glyph unicode="K" horiz-adv-x="1294" d="M419 769l752 687h161l-740 -698l679 -758h-183l-669 759l-63 -759h-128l119 1456h128z" />
<glyph unicode="L" horiz-adv-x="1120" d="M1067 0h-843l119 1456h126l-107 -1342h715z" />
<glyph unicode="M" horiz-adv-x="2002" d="M342 0h-126l119 1456h202l394 -1060l92 -261l131 260l567 1061h200l-119 -1456h-126l74 940l54 450l-132 -241l-615 -1149h-95l-420 1124l-89 256l-40 -443z" />
<glyph unicode="N" horiz-adv-x="1594" d="M446 1322l-21 -266l-86 -1056h-127l119 1456h171l668 -1133l117 -221l21 340l80 1014h126l-119 -1456h-174l-671 1132z" />
<glyph unicode="O" horiz-adv-x="1663" d="M1609 801q0 -180 -54 -331.5t-154.5 -261t-243.5 -170.5t-321 -61q-153 0 -273.5 48t-204 136.5t-127 214t-43.5 280.5q0 180 54 331.5t154.5 261.5t244.5 172t324 62q152 0 271.5 -48.5t202.5 -137.5t126.5 -215t43.5 -281zM325 669q0 -123 33 -228.5t98 -183t163 -122 t227 -44.5q152 0 268 54.5t194 150.5t117.5 226.5t39.5 282.5q0 118 -31.5 221t-96 179t-161.5 120t-229 44q-149 0 -265 -58t-195.5 -155t-120.5 -223.5t-41 -263.5z" />
<glyph unicode="P" horiz-adv-x="1274" d="M350 0h-126l119 1456h322q81 0 157.5 -7t145 -24t125.5 -46t98 -72.5t64 -104.5t23 -141q0 -122 -52 -208.5t-139 -142t-200.5 -81.5t-237.5 -26h-246zM413 717h290q95 0 175 19.5t138.5 60.5t91.5 104t33 150t-32 143.5t-90 89t-139.5 45.5t-179.5 13h-240z" />
<glyph unicode="Q" horiz-adv-x="1664" d="M325 669q0 -122 32.5 -227.5t98 -183.5t163 -122.5t227.5 -44.5q152 0 268 54.5t194 150.5t117.5 226.5t39.5 282.5q0 118 -31.5 221t-96 179t-161.5 119.5t-229 43.5q-100 0 -184.5 -26.5t-153.5 -73.5t-122 -112.5t-89 -143t-54.5 -165t-18.5 -178.5zM1590 -188 q-28 -5 -68.5 -7.5t-78.5 -2.5q-111 0 -189.5 6t-134.5 17.5t-94 28t-67 36.5t-54.5 43t-56.5 49q-149 0 -269.5 48t-205.5 138.5t-131 220t-46 292.5q0 175 55 322.5t156 254t243 166t317 59.5q152 0 271.5 -49t202 -138t126 -212.5t43.5 -273.5q0 -152 -41 -291.5 t-121 -250.5t-197.5 -184.5t-269.5 -93.5q35 -26 95.5 -40t128.5 -21t134 -8.5t113 -1.5q44 0 83 2.5t65 6.5z" />
<glyph unicode="R" horiz-adv-x="1377" d="M1139 0l-120 416q-21 73 -44.5 121.5t-58 77.5t-84.5 41t-125 12h-298l-56 -668h-126l119 1456h336q57 0 123.5 -2t133.5 -12t129 -31t110 -59.5t77 -97.5t29 -144q0 -80 -27.5 -144.5t-77.5 -113.5t-119 -81.5t-153 -46.5q-2 -6 -2 -11q70 -14 112.5 -48.5t73 -94.5 t57 -149t66.5 -212l64 -209h-139zM421 783h294q76 0 152.5 13.5t138 48t100.5 93.5t39 150q0 76 -28.5 125.5t-79 78t-120 39.5t-151.5 11h-301z" />
<glyph unicode="S" horiz-adv-x="1244" d="M226 250q45 -55 92.5 -86.5t95.5 -47.5t96.5 -20.5t96.5 -4.5q90 0 165.5 18t130.5 53.5t85.5 88t30.5 121.5t-33 117t-87.5 84t-123.5 64t-141.5 56t-141.5 60t-123.5 76.5t-87.5 105t-33 145.5q0 66 22 121.5t60 100.5t90 79t113 56.5t127.5 34t134.5 11.5 q48 0 98.5 -6.5t99.5 -21.5t93.5 -40.5t80.5 -63.5l-56 -93q-32 30 -70.5 51t-80.5 34t-87 19t-89 6q-70 0 -140.5 -15t-127.5 -47.5t-92.5 -83.5t-35.5 -123q0 -66 33 -113t87.5 -84t124 -66.5t141.5 -59t141.5 -63.5t124 -79.5t87.5 -106.5t33 -144q0 -76 -24 -135 t-66.5 -104.5t-99 -77t-121.5 -51.5t-134.5 -29t-138.5 -9q-128 0 -235.5 48.5t-174.5 144.5z" />
<glyph unicode="T" horiz-adv-x="1174" d="M530 0l108 1342h-481l9 114h1088l-9 -114h-476l-112 -1342h-127z" />
<glyph unicode="U" horiz-adv-x="1532" d="M1326 1456h126l-76 -908q-11 -134 -55 -240t-120.5 -179.5t-186 -112.5t-251.5 -39q-131 0 -227.5 33.5t-160.5 97t-95.5 155.5t-31.5 209v30t2 30l78 924h125l-74 -913q-1 -8 -1 -13.5v-10.5q0 -212 99 -320t305 -108q106 0 188.5 25t141 78t92.5 137t44 202z" />
<glyph unicode="V" horiz-adv-x="1336" d="M686 100l88 201l523 1155h136l-683 -1456h-155l-446 1456h142l339 -1156l56 -200v0z" />
<glyph unicode="W" horiz-adv-x="2103" d="M1589 67l77 249l408 1140h127l-538 -1456h-174l-315 1325l-529 -1325h-182l-311 1456h142l224 -1119l50 -279l89 260l453 1138h150l270 -1123z" />
<glyph unicode="X" horiz-adv-x="1304" d="M640 741l-444 715h166l293 -504l77 -132l108 133l388 503h146l-568 -714l463 -742h-163l-315 534l-76 130l-100 -127l-416 -537h-154z" />
<glyph unicode="Y" horiz-adv-x="1266" d="M752 588l-51 -588h-127l51 582l-469 874h144l396 -765l523 765h138z" />
<glyph unicode="Z" horiz-adv-x="1222" d="M1143 0h-1067l8 70l1003 1272h-870l10 114h1043l-8 -66l-1008 -1276h898z" />
<glyph unicode="[" horiz-adv-x="628" d="M515 -268h-316l134 1735h317l-8 -88h-199l-119 -1560h199z" />
<glyph unicode="\" horiz-adv-x="706" d="M644 -122l-572 1589h118l571 -1589h-117z" />
<glyph unicode="]" horiz-adv-x="628" d="M242 1467h300l-137 -1735h-315l8 87h197l121 1560h-199z" />
<glyph unicode="^" horiz-adv-x="1457" d="M261 569l547 879h70l420 -879h-108l-350 749h-7l-466 -749h-106z" />
<glyph unicode="_" horiz-adv-x="998" d="M980 -282h-989l9 93h989z" />
<glyph unicode="`" horiz-adv-x="593" d="M165 1508h158l206 -292h-82z" />
<glyph unicode="a" horiz-adv-x="1244" d="M677 1051q72 0 128.5 -15.5t102 -44t81.5 -69.5t68 -93l20 197h123l-22 -244l-63 -782h-123l19 219q-17 -41 -55 -83.5t-93.5 -78t-124.5 -58t-147 -22.5q-118 0 -202 44.5t-137.5 116t-78.5 162t-25 182.5q0 70 15 139.5t45 133t74 117.5t103 94t132 62.5t160 22.5z M1037 525q0 81 -15.5 157.5t-55.5 136.5t-109.5 96t-177.5 36t-186.5 -43t-128.5 -111t-74 -151.5t-24 -163.5q0 -78 15.5 -151t55.5 -130t108.5 -91.5t173.5 -34.5q79 0 152 26t130 79t93 133t42 187z" />
<glyph unicode="b" horiz-adv-x="1239" d="M293 0h-121l22 261l101 1247h121l-52 -692q35 59 81.5 103t101 73.5t115.5 44t125 14.5q106 0 181.5 -37.5t123.5 -101t70.5 -148.5t22.5 -181q0 -123 -32.5 -233t-96.5 -193t-159 -131.5t-219 -48.5q-125 0 -216 54.5t-148 161.5zM738 951q-76 0 -135.5 -20t-104 -56 t-76 -85.5t-51 -107.5t-28.5 -123t-9 -132q0 -72 21 -136t62.5 -112t103.5 -76t144 -28q72 0 129.5 21t101 57.5t75 86t51 105.5t29 116t9.5 119q0 77 -19 144.5t-58.5 118t-100 79.5t-144.5 29z" />
<glyph unicode="c" horiz-adv-x="1046" d="M969 848q-38 51 -107 77t-157 26q-98 0 -176.5 -38.5t-134 -104t-85.5 -153t-30 -185.5q0 -85 20.5 -157.5t64 -125t111 -82.5t160.5 -30q185 0 310 100l23 -97q-70 -54 -160 -77.5t-196 -23.5q-117 0 -203.5 37t-144.5 101.5t-86.5 151t-28.5 185.5q0 122 37.5 231 t109 190.5t174 129.5t231.5 48q116 0 199 -33.5t127 -93.5z" />
<glyph unicode="d" horiz-adv-x="1240" d="M1077 1508h121l-101 -1261q-5 -65 -7.5 -123.5t-4.5 -123.5h-123l10 206q-77 -120 -179 -174.5t-229 -54.5q-108 0 -186 36.5t-128.5 100.5t-75 150.5t-24.5 187.5q0 118 33 226.5t97.5 191t159.5 132t219 49.5q131 0 225 -57t139 -173zM600 75q91 0 162.5 33t121 85.5 t77 118.5t31.5 132l7 89q8 99 8 102q0 62 -22.5 119t-65.5 101t-104 70t-139 26q-103 0 -178 -40.5t-123.5 -109t-72 -158t-23.5 -187.5q0 -76 17 -145t55 -121.5t99 -83.5t150 -31z" />
<glyph unicode="e" horiz-adv-x="1173" d="M314 593h687v2v-7q-3 80 -18 147t-49 115t-90 74.5t-141 26.5q-83 0 -149.5 -28.5t-115.5 -77.5t-80 -114t-44 -138zM1017 202l28 -96q-80 -68 -182.5 -98.5t-226.5 -30.5q-111 0 -197.5 35.5t-145.5 99.5t-89.5 153.5t-30.5 196.5q0 120 38 227t108.5 187.5t171 127.5 t224.5 47q106 0 183.5 -34t128 -96t75 -149.5t24.5 -194.5q0 -29 -1 -50t-3 -36h-817q-1 -9 -2 -19q-1 -8 -1.5 -19.5t-0.5 -23.5q0 -80 25 -145t71.5 -111.5t112 -72t147.5 -25.5q112 0 203.5 33t156.5 94z" />
<glyph unicode="f" horiz-adv-x="702" d="M392 0h-120l78 944h-209l7 82h207l9 134q4 87 23.5 161t63.5 122q84 90 229 90q22 0 38 -1t28.5 -3.5t24 -6t25.5 -7.5l-8 -96q-12 4 -33 7t-57 3q-60 0 -99 -15.5t-63 -46.5t-35 -76t-15 -104l-10 -161h257l-7 -82h-254z" />
<glyph unicode="g" horiz-adv-x="1241" d="M1043 1026h124l-23 -244l-51 -647q-6 -70 -18 -139.5t-37 -133.5t-65 -118.5t-101.5 -95t-147.5 -63.5t-201 -23q-97 0 -185 18.5t-160 57.5l21 116q69 -42 152 -62.5t171 -20.5q195 0 306.5 87.5t130.5 274.5l22 218q-66 -126 -174.5 -188.5t-237.5 -62.5 q-101 0 -179 33t-131.5 93t-81.5 144t-28 186q0 120 33 228t98.5 189.5t162 129.5t224.5 48q64 0 117.5 -16.5t98 -46t79.5 -71t61 -91.5zM1004 609q0 66 -21.5 128t-63.5 109.5t-102.5 76t-138.5 28.5q-96 0 -170.5 -39.5t-125 -105.5t-76.5 -152t-26 -179q0 -89 17.5 -158 t57 -116.5t102.5 -72t153 -24.5q111 0 186 43.5t121.5 114.5t66.5 161.5t20 185.5z" />
<glyph unicode="h" horiz-adv-x="1217" d="M430 1508l-53 -683q74 118 172 172t228 54q100 0 164.5 -31.5t101.5 -83.5t51 -118t14 -135l-1 -44l-51 -639h-121l43 530q3 35 5.5 68.5t2.5 38.5q3 154 -61 234t-204 80q-83 0 -147.5 -28t-110 -77t-72.5 -115.5t-33 -142.5l-49 -588h-121l121 1508h121z" />
<glyph unicode="i" horiz-adv-x="503" d="M430 1478l-11 -124h-114l13 124h112zM276 1026h121l-83 -1026h-121z" />
<glyph unicode="j" horiz-adv-x="503" d="M-107 -323q18 -2 33 -4.5t31 -2.5q61 0 104 20t72 62t45.5 106.5t23.5 153.5l76 1014h122l-63 -882q-8 -118 -24.5 -224.5t-54 -187.5t-103 -129t-170.5 -48q-23 0 -48 2.5t-51 7.5zM432 1478l-11 -124h-114l11 124h114z" />
<glyph unicode="k" horiz-adv-x="1082" d="M1050 0h-166l-525 535l-44 -535h-121l121 1508h121l-77 -939l564 457h163l-585 -481z" />
<glyph unicode="l" horiz-adv-x="503" d="M433 1508l-119 -1508h-121l121 1508h119z" />
<glyph unicode="m" horiz-adv-x="1901" d="M383 1026l-10 -197q27 57 68.5 99t92 69t107.5 40.5t116 13.5q64 0 118.5 -18t96 -50.5t67.5 -78t34 -99.5q54 126 161 186t249 60q99 0 162 -32t99 -84t49.5 -118t14 -113.5t-1.5 -64.5l-51 -639h-122l42 561q2 34 3 61t1 58q0 66 -14 116.5t-45 85t-79.5 52 t-117.5 17.5q-78 0 -139.5 -29t-105.5 -78t-69.5 -115t-31.5 -139l-49 -590h-122l55 638q1 28 1 39q0 134 -69 204t-199 70q-78 0 -139 -27.5t-104 -76.5t-68 -115t-31 -142l-49 -590h-119l63 770q3 35 13 256h123z" />
<glyph unicode="n" horiz-adv-x="1217" d="M308 0h-121l65 788q2 32 4.5 73t4.5 78q2 43 4 87h123l-10 -201q69 112 169.5 169t228.5 57q100 0 164.5 -32.5t102 -86t51.5 -120.5t14 -136q0 -3 -1 -35.5t-25 -307.5l-26 -333h-119l25 316q14 178 18 226.5t6 82t2 42.5q0 140 -65.5 212t-187.5 72q-56 0 -104.5 -14.5 t-89 -38.5t-71.5 -54.5t-53.5 -63t-35 -63.5t-14.5 -56z" />
<glyph unicode="o" horiz-adv-x="1238" d="M715 1051q119 0 208 -37.5t148 -103.5t88 -156t29 -195q0 -117 -38 -223t-110.5 -185.5t-177.5 -126.5t-239 -47q-117 0 -206 37.5t-148.5 102.5t-90 154t-30.5 191q0 121 38 228t111 187.5t178.5 127t239.5 46.5zM1058 550q0 83 -21 156t-64.5 127.5t-111.5 86 t-161 31.5q-102 0 -181 -40.5t-132.5 -107t-81.5 -153t-28 -178.5q0 -80 22 -152t67 -126.5t113 -86.5t159 -32q103 0 181.5 39.5t131.5 105.5t80 152t27 178z" />
<glyph unicode="p" horiz-adv-x="1239" d="M266 -443h-121l96 1210q5 56 13 259h123l-13 -208q35 61 80.5 105.5t99.5 72.5t115 41.5t128 13.5q103 0 178.5 -36.5t125 -100t73.5 -149t24 -183.5q0 -118 -32.5 -227t-96.5 -193t-159.5 -134.5t-221.5 -50.5q-250 0 -364 217zM335 429q0 -72 21 -136.5t63 -112.5 t103.5 -76.5t142.5 -28.5q102 0 176 41.5t121.5 110.5t70.5 159t23 187q0 75 -16.5 143t-54 120.5t-98.5 83.5t-149 31q-114 0 -191.5 -44t-124.5 -116.5t-67 -167t-20 -194.5z" />
<glyph unicode="q" horiz-adv-x="1240" d="M973 210q-74 -120 -182.5 -176.5t-238.5 -56.5q-102 0 -177.5 36t-125.5 100t-74.5 150.5t-24.5 188.5q0 79 14.5 154t44 141.5t72.5 122.5t99.5 96t127 62.5t153.5 22.5q133 0 227 -54.5t137 -157.5l18 187h123q-20 -166 -22 -201l-98 -1267h-121zM1004 610 q0 70 -21 132t-62.5 108.5t-102.5 73.5t-141 27q-101 0 -175.5 -40t-124 -107.5t-74 -158t-24.5 -190.5q0 -77 17.5 -146t56 -121t99.5 -82.5t147 -30.5q79 0 139.5 22t105.5 60t76 89.5t49.5 111t26.5 124t8 128.5z" />
<glyph unicode="r" horiz-adv-x="737" d="M310 0h-121l65 788q2 32 13 238h123l-9 -248q20 72 52 123.5t73.5 84.5t91.5 48.5t107 15.5q29 0 50.5 -1t34.5 -5l-7 -114q-9 4 -32.5 7.5t-61.5 3.5q-66 0 -122.5 -25.5t-100 -73.5t-71 -116t-34.5 -152z" />
<glyph unicode="s" horiz-adv-x="1007" d="M869 894q-41 27 -117 42t-166 15q-56 0 -103 -12t-81 -35t-53.5 -55.5t-19.5 -73.5q0 -46 14.5 -73.5t42 -45.5t67.5 -29.5t90.5 -25t110.5 -33.5t129 -55q25 -12 50.5 -29.5t46.5 -43t34.5 -60.5t13.5 -82q0 -82 -38 -142.5t-100 -100t-140.5 -59t-159.5 -19.5 q-53 0 -104 5.5t-96 18t-82 32.5t-61 49l39 94q21 -26 54 -45t74 -31.5t87 -18.5t93 -6q66 0 121.5 12.5t96 37.5t63 62.5t22.5 86.5t-23 81.5t-63.5 55.5t-96 40t-119.5 35q-67 21 -121.5 44t-93.5 54t-60 73.5t-21 103.5q0 74 34 128.5t89 90.5t125 53.5t141 17.5 q100 0 183 -18t134 -60z" />
<glyph unicode="t" horiz-adv-x="729" d="M346 944h-209l7 82h207l30 288l118 34l-29 -322h268l-7 -82h-266l-51 -641q-5 -60 -4 -104t15 -72.5t45 -42t87 -13.5q71 0 112 19l-7 -85q-23 -15 -53 -21.5t-68 -6.5q-79 0 -130.5 18t-80 54t-37 91t-2.5 130z" />
<glyph unicode="u" horiz-adv-x="1217" d="M1006 1026h120l-63 -789q-3 -32 -14 -237h-124l15 203q-64 -118 -163 -172t-233 -54q-103 0 -169 32.5t-103.5 86t-51.5 120.5t-14 136v22t1 22l53 630h121l-55 -621q-1 -17 -1.5 -28t-0.5 -25q0 -136 65 -206.5t206 -70.5q82 0 147.5 27.5t112.5 75.5t73.5 113.5 t30.5 141.5z" />
<glyph unicode="v" horiz-adv-x="1063" d="M992 1026h130l-514 -1026h-137l-348 1026h132l230 -702l67 -213l89 187z" />
<glyph unicode="w" horiz-adv-x="1695" d="M887 1026h135l193 -752l41 -193l69 190l304 755h129l-449 -1026h-129l-197 779l-37 165l-65 -168l-341 -776h-131l-284 1026h129l194 -754l43 -177l66 165z" />
<glyph unicode="x" horiz-adv-x="1043" d="M844 0l-281 449l-369 -449h-137l437 514l-340 512h157l272 -443l351 443h129l-418 -508l354 -518h-155z" />
<glyph unicode="y" horiz-adv-x="1069" d="M126 1026h131l290 -936l449 936h128l-549 -1110q-33 -67 -75 -126.5t-92 -106t-108.5 -78.5t-125.5 -44l-61 81q83 21 138.5 54t92.5 72t60.5 81t42.5 80l30 61z" />
<glyph unicode="z" horiz-adv-x="958" d="M84 67l709 855h-615l9 104h775l-7 -65l-705 -858h657l-28 -103h-801z" />
<glyph unicode="{" horiz-adv-x="627" d="M364 1172q5 70 25 124.5t58 92.5t94.5 58t133.5 20l-10 -92q-46 -2 -78.5 -8t-53.5 -25.5t-32.5 -57t-16.5 -102.5l-23 -302q-6 -73 -29 -124.5t-52.5 -85t-61 -51t-53.5 -21.5q40 -14 68.5 -39.5t47 -58.5t27 -71t8.5 -77v-15.5t-1 -15.5l-26 -343q-1 -6 -1 -11v-10 q0 -72 39 -103t119 -31l-8 -91q-53 0 -101.5 12t-86.5 38.5t-60.5 70t-22.5 106.5q0 8 0.5 16t1.5 17l25 273q2 19 3 37t1 37q0 39 -6.5 74.5t-23 64t-45 47.5t-73.5 25l9 97q46 4 79 19.5t55 43t34 67t16 93.5z" />
<glyph unicode="|" horiz-adv-x="500" d="M155 -510l166 2074h114l-167 -2074h-113z" />
<glyph unicode="}" horiz-adv-x="627" d="M193 1375l8 92q63 -4 113 -19.5t85 -44.5t53.5 -72t18.5 -101q0 -6 -0.5 -12.5t-0.5 -13.5l-26 -298q-3 -30 -3 -60q0 -38 7 -72t24 -60.5t45.5 -43.5t71.5 -21l-9 -97q-48 -4 -81.5 -22.5t-55.5 -51t-34 -77.5t-16 -102l-24 -305q-5 -57 -24 -103t-49 -79t-68 -52.5 t-81 -23.5q-23 -2 -43.5 -3.5t-37.5 -0.5l8 91q41 0 70.5 5t50 21.5t34.5 47t23 82.5q7 39 10.5 81.5t6 86.5t4.5 88t5 85q6 72 29 123.5t52 85t59.5 50.5t50.5 19q-43 16 -71 42.5t-44 59.5t-22.5 71t-6.5 78v14.5t1 15.5l24 313q1 7 1 13v12q0 72 -36 113t-122 45z" />
<glyph unicode="~" horiz-adv-x="1458" d="M553 693q37 0 79 -12.5t85.5 -31t86.5 -40t83 -40t74.5 -31t60.5 -12.5q38 0 72 15t62 40t48 57t31 66l78 -26q-17 -55 -45.5 -101.5t-67 -80t-86.5 -52t-103 -18.5q-30 0 -66.5 12.5t-76.5 31t-82 40t-84 40t-82 31t-75 12.5q-44 0 -81 -15.5t-66.5 -41t-50 -58.5 t-31.5 -68l-70 33q15 49 42.5 94.5t66 80t88 55t110.5 20.5z" />
<glyph unicode="&#xa1;" horiz-adv-x="737" d="M540 1059h-178l17 175h185zM386 826h105l-68 -1082h-148z" />
<glyph unicode="&#xa2;" horiz-adv-x="1189" d="M785 1128l64 241h81l-68 -241q43 -7 81 -23t67.5 -39t49.5 -53t29 -64l-52 -59q-20 54 -68.5 85t-124.5 45l-205 -848q39 -9 82 -9q42 0 84.5 9t80.5 28t68.5 46.5t50.5 65.5l55 -55q-20 -50 -54 -87t-79 -61t-97.5 -36t-108.5 -12q-51 0 -100 9l-67 -235h-83l73 245 q-78 16 -138 57.5t-100.5 101.5t-61.5 136t-21 161q0 119 39 226.5t112 188.5t177 129t234 48zM567 191l201 833q-90 -5 -166.5 -40t-132 -96t-86.5 -146t-31 -190q0 -66 14.5 -124t42 -105t67.5 -81t91 -51z" />
<glyph unicode="&#xa3;" horiz-adv-x="1189" d="M1109 1275q-22 16 -51.5 30.5t-62.5 25.5t-68 17t-69 6q-89 0 -150 -25.5t-99.5 -75t-58 -122.5t-25.5 -168l-12 -137h343l-10 -111h-343l-21 -206q-9 -93 -17 -156t-22 -107t-37 -75.5t-62 -60.5h749l-9 -110h-950l10 110q37 9 70 23.5t59 44t44.5 78t26.5 124.5l35 335 h-190l10 111h188q4 78 13.5 156t30 149t53.5 132t85 105.5t125 70t172 25.5q46 0 91 -8.5t84.5 -24t72.5 -36.5t56 -45z" />
<glyph unicode="&#xa4;" horiz-adv-x="1238" d="M648 1051q66 0 123 -17l123 267l41 -16l-124 -267q91 -42 135 -127t44 -196q0 -56 -12 -108.5t-35.5 -99t-58 -85t-78.5 -66.5l129 -280l-36 -16l-128 276q-42 -20 -89 -31t-101 -11q-61 0 -109 13l-115 -247l-36 16l112 245q-48 19 -84.5 51.5t-61 74.5t-37 92 t-12.5 106q0 62 14 119.5t41 107t66.5 89t90.5 65.5l-129 279l41 16l128 -278q35 14 74 21t84 7zM896 689q0 60 -15 113t-47 92t-81 62t-116 23q-74 0 -131 -29t-96 -77.5t-59 -111t-20 -129.5q0 -58 16 -110t48.5 -91.5t81.5 -62.5t115 -23q75 0 131.5 28.5t95 76.5t58 110 t19.5 129z" />
<glyph unicode="&#xa5;" horiz-adv-x="1189" d="M582 704l-416 732h151l240 -456l109 -215l131 193l332 478h136l-529 -732h390l-10 -108h-405l-16 -195h411l-9 -109h-413l-26 -292h-128l26 292h-408l28 109h390l16 195h-413l10 108h403z" />
<glyph unicode="&#xa6;" horiz-adv-x="500" d="M257 763l64 801h114l-64 -801h-114zM341 394l-73 -904h-113l72 904h114z" />
<glyph unicode="&#xa7;" horiz-adv-x="1097" d="M937 1366q-16 9 -40 16t-51.5 12.5t-57.5 8.5t-57 3q-56 0 -103.5 -9.5t-82.5 -30.5t-55 -53t-20 -77q0 -32 11.5 -57.5t38.5 -49.5t70.5 -49t107.5 -55q54 -24 103 -50t86.5 -57.5t59.5 -70t22 -87.5q0 -50 -19.5 -92t-51.5 -76.5t-74.5 -62t-88.5 -49.5q37 -18 68 -39 t53.5 -47t35.5 -58.5t13 -73.5q0 -75 -35 -133t-93 -98t-134.5 -61t-158.5 -21q-66 0 -129.5 12.5t-120.5 36.5l7 111q59 -29 122.5 -41.5t126.5 -12.5q67 0 119.5 14.5t89 40t56 59.5t19.5 73q0 37 -16.5 64t-48 49.5t-78 43.5t-105.5 45q-29 11 -28 11l8 -4 q-55 23 -100 50t-76.5 60t-48.5 72.5t-17 87.5q0 52 19 93.5t51.5 74.5t74.5 58t89 44q-36 21 -65.5 44.5t-49.5 51.5t-31 61t-11 74q0 72 31.5 126t85.5 90t126 53.5t153 17.5q62 0 110 -9t99 -26zM646 525q31 18 64.5 40t61 48.5t45 57.5t17.5 69q0 36 -16 62.5t-43 46.5 t-63.5 37.5t-77.5 35.5q-23 10 -31.5 14.5t-11.5 6.5t-4 2.5t-8 3.5q-34 -17 -66.5 -37t-58 -45t-41 -56t-15.5 -70q0 -41 18 -71t51 -54.5t78.5 -45.5t100.5 -45z" />
<glyph unicode="&#xa8;" horiz-adv-x="743" d="M425 1293h-119l13 128h117zM798 1293h-120l15 128h118z" />
<glyph unicode="&#xa9;" horiz-adv-x="1829" d="M936 51q107 0 207 26t186.5 73t157.5 113t122 146.5t79 173t28 192.5q0 136 -51 253.5t-141.5 203.5t-215 135t-272.5 49q-106 0 -205.5 -25.5t-186 -72.5t-158.5 -113t-123 -146.5t-79.5 -173.5t-28.5 -194q0 -137 50.5 -254t141.5 -202.5t215.5 -134.5t273.5 -49z M928 -32q-107 0 -205 25.5t-182 72t-152.5 112t-116.5 145.5t-74.5 172t-26.5 192q0 111 32.5 214t91 193.5t140 165t178.5 127.5t206.5 82.5t224.5 29.5q107 0 204 -25.5t181 -72.5t152 -112.5t116.5 -145.5t74.5 -172.5t26 -191.5q0 -111 -32.5 -214t-90.5 -193 t-139 -164.5t-177.5 -127.5t-206 -82.5t-224.5 -29.5zM1310 1068q-38 51 -107 77t-157 26q-98 0 -176.5 -38.5t-134 -104t-85.5 -153t-30 -185.5q0 -85 20.5 -157.5t64 -125t111 -82.5t160.5 -30q185 0 310 100l23 -97q-70 -54 -160 -77.5t-196 -23.5q-117 0 -203.5 37 t-144.5 101.5t-86.5 151t-28.5 185.5q0 122 37.5 231t109 190.5t174 129.5t231.5 48q116 0 199 -33.5t127 -93.5z" />
<glyph unicode="&#xaa;" horiz-adv-x="745" d="M270 1429q52 34 115 49t134 15q57 0 103.5 -15t78.5 -44.5t47.5 -72.5t11.5 -98l-27 -330q-2 -32 -2.5 -60.5t-0.5 -58.5h-88l8 127q-15 -29 -41.5 -55.5t-62 -46.5t-77 -31.5t-86.5 -11.5q-48 0 -88 13t-69 37t-45.5 57.5t-16.5 74.5q0 201 247 220q69 7 132.5 12.5 t127.5 9.5q1 13 1 24v21q0 46 -9 75.5t-29.5 47t-52.5 24.5t-77 7q-58 0 -111.5 -10t-98.5 -39zM412 865q63 0 109.5 26t77 63.5t46 79t16.5 73.5l2 50q-41 -9 -87 -13.5t-91.5 -9.5t-86.5 -13t-72.5 -24t-50.5 -43t-19 -70q0 -60 43 -89.5t113 -29.5z" />
<glyph unicode="&#xab;" horiz-adv-x="1156" d="M815 911h110l-288 -370l224 -364h-107l-237 364zM516 911h106l-286 -370l224 -364h-107l-237 364z" />
<glyph unicode="&#xac;" horiz-adv-x="1458" d="M1168 247l38 437h-934l10 105h1036l-45 -542h-105z" />
<glyph unicode="&#xad;" horiz-adv-x="728" d="M140 508l10 102h543l-10 -102h-543z" />
<glyph unicode="&#xae;" horiz-adv-x="1829" d="M785 689l-34 -407h-98l69 916h261q204 0 301 -60t97 -169q0 -51 -19 -98t-58 -84t-98.5 -60.5t-140.5 -26.5q34 -21 71.5 -71.5t73.5 -112.5t68.5 -125t56.5 -109h-118l-106 212q-37 73 -74 121t-80 74h-172zM793 774h153q75 0 135.5 5.5t103 24t65 53.5t22.5 94 q0 51 -17.5 83t-55 49t-96.5 23t-142 6h-146zM936 51q107 0 207 26t186.5 73t157.5 113t122 146.5t79 173t28 192.5q0 136 -51 253.5t-141.5 203.5t-215 135t-272.5 49q-106 0 -205.5 -25.5t-186 -72.5t-158.5 -113t-123 -146.5t-79.5 -173.5t-28.5 -194q0 -137 50.5 -254 t141.5 -202.5t215.5 -134.5t273.5 -49zM928 -32q-107 0 -205 25.5t-182 72t-152.5 112t-116.5 145.5t-74.5 172t-26.5 192q0 111 32.5 214t91 193.5t140 165t178.5 127.5t206.5 82.5t224.5 29.5q107 0 204 -25.5t181 -72.5t152 -112.5t116.5 -145.5t74.5 -172.5t26 -191.5 q0 -111 -32.5 -214t-90.5 -193t-139 -164.5t-177.5 -127.5t-206 -82.5t-224.5 -29.5z" />
<glyph unicode="&#xaf;" horiz-adv-x="850" d="M848 1430h-837v99h837v-99z" />
<glyph unicode="&#xb0;" horiz-adv-x="844" d="M299 1155q0 -43 14.5 -79t41 -62.5t63.5 -41t82 -14.5q48 0 91.5 18t76.5 49t52 73t19 90q0 43 -15.5 79.5t-42.5 63.5t-64.5 42t-82.5 15q-47 0 -89.5 -18.5t-75 -50.5t-51.5 -74.5t-19 -89.5zM822 1193q0 -63 -27 -119t-72 -97.5t-104.5 -66t-124.5 -24.5 q-59 0 -109.5 20t-88.5 55.5t-59.5 83.5t-21.5 104q0 63 26.5 119.5t71 99t103.5 67.5t124 25q60 0 111.5 -21t89.5 -57.5t59.5 -85t21.5 -103.5z" />
<glyph unicode="&#xb1;" horiz-adv-x="1458" d="M221 0l9 107h1035l-10 -107h-1034zM741 724l28 386h105l-28 -386h465l-10 -107h-466l-28 -385h-106l30 385h-466l28 107h448z" />
<glyph unicode="&#xb2;" d="M352 628l7 87q28 24 58 50t59 50q66 56 130.5 112.5t115 111.5t81.5 107.5t31 101.5q0 57 -41.5 92t-114.5 35q-68 0 -121.5 -33.5t-85.5 -90.5l-54 55q35 72 108 111t167 39q51 0 94.5 -14t75 -40t49.5 -63t18 -82q0 -67 -32 -129t-88 -124t-131 -126t-162 -134l-42 -34 h412l-5 -82h-529z" />
<glyph unicode="&#xb3;" d="M368 1370q43 39 107.5 63t133.5 24q49 0 93.5 -13t78.5 -38.5t54.5 -63t20.5 -85.5q0 -76 -43 -130.5t-123 -75.5q71 -20 113.5 -68t42.5 -121q0 -58 -25 -105t-67.5 -80t-99 -50.5t-118.5 -17.5q-68 0 -126 21t-97 63l47 66q35 -35 80.5 -52.5t97.5 -17.5 q43 0 82.5 11.5t68.5 33.5t46.5 53.5t17.5 72.5t-16 69.5t-46 46t-72.5 25.5t-95.5 8q-18 -1 -26 -1h-13l8 83h28q52 0 95.5 8t75 27t49 49.5t17.5 75.5q0 64 -43.5 93.5t-113.5 29.5q-58 0 -107.5 -19.5t-90.5 -51.5z" />
<glyph unicode="&#xb4;" horiz-adv-x="607" d="M661 1508h159l-308 -292h-80z" />
<glyph unicode="&#xb5;" horiz-adv-x="1182" d="M895 208q-50 -117 -128.5 -174t-191.5 -57q-187 0 -239 157l-56 -541h-133l113 1433h133l-50 -630q-1 -8 -1 -16.5v-16.5q0 -61 18 -110t51 -83t79 -52t102 -18q66 0 122.5 23.5t98.5 67.5t68.5 106t32.5 139l46 590h136l-60 -767q-6 -72 -6 -126q0 -91 16 -133h-138 q-5 13 -7.5 31t-4.5 37.5t-2.5 39t-0.5 37.5v25.5t1 19.5q0 10 1 18z" />
<glyph unicode="&#xb6;" horiz-adv-x="1214" d="M458 -154l82 968h-16q-65 0 -121.5 22.5t-98.5 63t-66 98t-24 127.5q0 100 43.5 166t117.5 105t172 55t206 16h373l-10 -90h-86l-123 -1531h-95l135 1531h-256l-134 -1531h-99z" />
<glyph unicode="&#xb7;" horiz-adv-x="444" d="M225 523q-20 0 -37 8t-30.5 22t-21 32t-7.5 39q0 22 7.5 41t21 33t30.5 22.5t37 8.5q21 0 39 -8.5t31.5 -22.5t21.5 -33t8 -41q0 -21 -8 -39.5t-21.5 -32t-31.5 -21.5t-39 -8z" />
<glyph unicode="&#xb8;" horiz-adv-x="529" d="M57 -342q33 -11 66.5 -16t66.5 -5q81 0 114.5 27.5t33.5 72.5q0 25 -10 42.5t-28.5 28t-45 15t-58.5 3.5h3.5t2.5 -1q-3 0 -7 -1q-10 -2 -30 -3l42 159h47l-27 -110q7 0 13.5 0.5t13.5 0.5q39 0 72.5 -7t58.5 -22t39 -39t14 -59q0 -39 -18 -68.5t-50.5 -49t-76 -29 t-94.5 -9.5q-42 0 -79 5t-72 14z" />
<glyph unicode="&#xb9;" d="M366 1349q46 14 87.5 35t79.5 44l84 12l-55 -732h124l-8 -80h-337l8 83h125l48 626q-40 -23 -82.5 -42.5t-81.5 -34.5z" />
<glyph unicode="&#xba;" horiz-adv-x="824" d="M541 1492q80 0 140 -24t100 -66.5t60 -101.5t20 -128q0 -77 -25.5 -145.5t-73.5 -120t-118 -81.5t-158 -30q-81 0 -141.5 24.5t-101 67.5t-60.5 102t-20 128q0 78 25.5 146.5t74 119.5t119 80t159.5 29zM256 1123q0 -54 14.5 -100t44.5 -80.5t74.5 -54t104.5 -19.5 q65 0 116 24t86.5 64.5t54 94t18.5 111.5q0 54 -15 100.5t-45 81t-75 54.5t-104 20q-65 0 -115.5 -24t-86 -64.5t-54 -94t-18.5 -113.5z" />
<glyph unicode="&#xbb;" horiz-adv-x="1156" d="M736 177h-107l287 365l-225 369h109l238 -369zM326 177h-108l288 365l-226 369h109l237 -369z" />
<glyph unicode="&#xbc;" horiz-adv-x="1986" d="M341 0zM366 1349q46 14 87.5 35t79.5 44l84 12l-55 -732h124l-8 -80h-337l8 83h125l48 626q-40 -23 -82.5 -42.5t-81.5 -34.5zM1588 1452l-1028 -1452h-98l1030 1452h96zM1475 61l15 196h-392l7 68l409 525h108l-42 -522h119l-4 -71h-121q-3 -48 -7.5 -97.5t-7.5 -98.5 h-84zM1494 328l33 437q-13 -17 -24 -33t-23 -33l-292 -371h306z" />
<glyph unicode="&#xbd;" horiz-adv-x="1858" d="M341 0zM366 1349q46 14 87.5 35t79.5 44l84 12l-55 -732h124l-8 -80h-337l8 83h125l48 626q-40 -23 -82.5 -42.5t-81.5 -34.5zM1530 1452l-1028 -1452h-98l1030 1452h96zM1084 -1l7 87q28 24 58 50t59 50q66 56 130.5 112.5t115 111.5t81.5 107.5t31 101.5q0 57 -41.5 92 t-114.5 35q-68 0 -121.5 -33.5t-85.5 -90.5l-54 55q35 72 108 111t167 39q51 0 94.5 -14t75 -40t49.5 -63t18 -82q0 -67 -32 -129t-88 -124t-131 -126t-162 -134l-42 -34h412l-5 -82h-529z" />
<glyph unicode="&#xbe;" horiz-adv-x="1921" d="M258 0zM313 1370q43 39 107.5 63t133.5 24q49 0 93.5 -13t78.5 -38.5t54.5 -63t20.5 -85.5q0 -76 -43 -130.5t-123 -75.5q71 -20 113.5 -68t42.5 -121q0 -58 -25 -105t-67.5 -80t-99 -50.5t-118.5 -17.5q-68 0 -126 21t-97 63l47 66q35 -35 80.5 -52.5t97.5 -17.5 q43 0 82.5 11.5t68.5 33.5t46.5 53.5t17.5 72.5t-16 69.5t-46 46t-72.5 25.5t-95.5 8q-18 -1 -26 -1h-13l8 83h28q52 0 95.5 8t75 27t49 49.5t17.5 75.5q0 64 -43.5 93.5t-113.5 29.5q-58 0 -107.5 -19.5t-90.5 -51.5zM1574 1452l-1028 -1452h-98l1030 1452h96zM1444 65 l15 196h-392l7 68l409 525h108l-42 -522h119l-4 -71h-121q-3 -48 -7.5 -97.5t-7.5 -98.5h-84zM1463 332l33 437q-13 -17 -24 -33t-23 -33l-292 -371h306z" />
<glyph unicode="&#xbf;" horiz-adv-x="1032" d="M221 0zM791.025 941.023v-176.989q0 -56.9971 -32.998 -105.494t-81.9951 -92.9941t-106.993 -87.9941q-57.9961 -43.498 -106.993 -91.4951t-81.9951 -103.493q-32.998 -55.4971 -32.998 -123.492q0 -59.9971 21.499 -102.494q21.498 -42.4971 56.9961 -69.4961 q35.498 -26.998 81.4951 -39.4971t94.9941 -12.499q46.9971 0 87.9941 6.49902q40.998 6.5 77.9961 16.499q36.9971 10 69.4951 20.999t61.4961 19.999l-7.99902 -105.994q-66.9961 -34.998 -136.992 -50.4971q-69.9951 -15.499 -132.991 -15.499q-84.9951 0 -157.99 18.999 q-72.9961 18.999 -126.992 57.9971q-53.9971 38.9971 -84.4951 97.9932q-30.498 58.9971 -30.498 137.992q0 52.9961 12.499 98.4941q12.499 45.4971 34.498 84.4941q21.999 38.998 52.4971 71.4961t66.4951 60.4961q16.999 12.999 29.499 22.999 q12.499 9.99902 26.498 21.998q51.9971 44.9971 89.9941 76.4961q37.998 31.498 64.4961 56.9961q26.499 25.498 43.498 48.4971q16.998 22.998 26.498 49.4971q9.49902 26.498 12.999 59.9961t3.5 80.4951v68.9961h106.993zM662.033 1332h171.99l-13 -178.989h-173.989z " />
<glyph unicode="&#xc0;" horiz-adv-x="1425" d="M38 0zM177 0h-139l722 1456h151l490 -1456h-141l-146 426h-734zM422 520h665l-195 648l-62 221l-94 -221zM538 1938h158l206 -292h-82z" />
<glyph unicode="&#xc1;" horiz-adv-x="1425" d="M38 0zM177 0h-139l722 1456h151l490 -1456h-141l-146 426h-734zM422 520h665l-195 648l-62 221l-94 -221zM873 1938h159l-308 -292h-80z" />
<glyph unicode="&#xc2;" horiz-adv-x="1425" d="M38 0zM177 0h-139l722 1456h151l490 -1456h-141l-146 426h-734zM422 520h665l-195 648l-62 221l-94 -221zM583 1644l232 296h135l185 -296h-79l-180 240l-219 -240h-74z" />
<glyph unicode="&#xc3;" horiz-adv-x="1425" d="M38 0zM177 0h-139l722 1456h151l490 -1456h-141l-146 426h-734zM422 520h665l-195 648l-62 221l-94 -221zM1071 1881h62q-7 -39 -23 -73.5t-41 -59.5t-57 -39.5t-70 -14.5q-24 0 -53 11t-62 24.5t-69 24.5t-72 11q-51 0 -83 -21.5t-40 -66.5h-58q14 82 65 132t129 50 q30 0 59 -11.5t60 -25t64 -24.5t70 -11q46 0 78 23.5t41 70.5z" />
<glyph unicode="&#xc4;" horiz-adv-x="1425" d="M38 0zM177 0h-139l722 1456h151l490 -1456h-141l-146 426h-734zM422 520h665l-195 648l-62 221l-94 -221zM736 1723h-119l13 128h117zM1109 1723h-120l15 128h118z" />
<glyph unicode="&#xc5;" horiz-adv-x="1425" d="M38 0zM177 0h-139l722 1456h151l490 -1456h-141l-146 426h-734zM422 520h665l-195 648l-62 221l-94 -221zM1014 1808q0 26 -11 49.5t-30.5 41.5t-46 29t-58.5 11q-30 0 -58.5 -12t-51 -32t-36 -46.5t-13.5 -54.5q0 -60 38.5 -97t103.5 -37q31 0 60.5 12t52 32.5 t36.5 47.5t14 56zM669 1788q0 41 17 76t45.5 60.5t66.5 40t80 14.5q38 0 70.5 -12.5t56.5 -35t37.5 -53t13.5 -66.5q0 -39 -17 -74.5t-46 -61.5t-67 -41.5t-80 -15.5q-37 0 -69.5 12.5t-56.5 35t-37.5 53.5t-13.5 68z" />
<glyph unicode="&#xc6;" horiz-adv-x="2028" d="M1047 1342l-538 -821h628v821h-90zM979 1456h1023l-9 -114h-737v-538h655l-12 -113h-636v-577h659l-9 -114h-769v407h-702l-263 -407h-146z" />
<glyph unicode="&#xc7;" horiz-adv-x="1399" d="M181 0zM1302 1266q-62 51 -149.5 76.5t-198.5 25.5q-106 0 -194 -28.5t-158.5 -78.5t-123 -118t-88 -147.5t-53 -166.5t-17.5 -174q0 -115 29.5 -217.5t92 -179.5t159.5 -122t232 -45q132 0 243.5 31t186.5 93l35 -97q-91 -69 -219.5 -105t-286.5 -36q-151 0 -265.5 52 t-191 142.5t-115.5 212.5t-39 263q0 111 24.5 216t70.5 198t113 170.5t152 133.5t187 87t219 31q131 0 230 -33.5t179 -108.5zM604 -342q33 -11 66.5 -16t66.5 -5q81 0 114.5 27.5t33.5 72.5q0 25 -10 42.5t-28.5 28t-45 15t-58.5 3.5h3.5t2.5 -1q-3 0 -7 -1q-10 -2 -30 -3 l42 159h47l-27 -110q7 0 13.5 0.5t13.5 0.5q39 0 72.5 -7t58.5 -22t39 -39t14 -59q0 -39 -18 -68.5t-50.5 -49t-76 -29t-94.5 -9.5q-42 0 -79 5t-72 14z" />
<glyph unicode="&#xc8;" horiz-adv-x="1218" d="M226 0zM1105 114l-9 -114h-870l119 1456h836l-9 -114h-710l-42 -538h671l-10 -113h-671l-48 -577h743zM434 1938h158l206 -292h-82z" />
<glyph unicode="&#xc9;" horiz-adv-x="1218" d="M226 0zM769 1938h159l-308 -292h-80zM1105 114l-9 -114h-870l119 1456h836l-9 -114h-710l-42 -538h671l-10 -113h-671l-48 -577h743z" />
<glyph unicode="&#xca;" horiz-adv-x="1218" d="M226 0zM484 1644l232 296h135l185 -296h-79l-180 240l-219 -240h-74zM1105 114l-9 -114h-870l119 1456h836l-9 -114h-710l-42 -538h671l-10 -113h-671l-48 -577h743z" />
<glyph unicode="&#xcb;" horiz-adv-x="1218" d="M226 0zM636 1723h-119l13 128h117zM1009 1723h-120l15 128h118zM1105 114l-9 -114h-870l119 1456h836l-9 -114h-710l-42 -538h671l-10 -113h-671l-48 -577h743z" />
<glyph unicode="&#xcc;" horiz-adv-x="591" d="M122 0zM364 0h-129l119 1456h129zM122 1938h158l206 -292h-82z" />
<glyph unicode="&#xcd;" horiz-adv-x="591" d="M228 0zM364 0h-129l119 1456h129zM457 1938h159l-308 -292h-80z" />
<glyph unicode="&#xce;" horiz-adv-x="591" d="M165 0zM364 0h-129l119 1456h129zM165 1644l232 296h135l185 -296h-79l-180 240l-219 -240h-74z" />
<glyph unicode="&#xcf;" horiz-adv-x="591" d="M198 0zM364 0h-129l119 1456h129zM317 1723h-119l13 128h117zM690 1723h-120l15 128h118z" />
<glyph unicode="&#xd0;" horiz-adv-x="1546" d="M67 688l10 102h198l55 666h299q128 0 242 -11t210 -39.5t172 -77t129.5 -123t81.5 -177.5t28 -241q0 -179 -60.5 -324.5t-174 -248.5t-276 -158.5t-365.5 -55.5h-405l56 688h-200zM349 114h295q180 0 313.5 49.5t221.5 137.5t131 210t43 266q0 158 -46.5 266t-137 174.5 t-224 95.5t-307.5 29h-189l-45 -552h216l-10 -102h-215z" />
<glyph unicode="&#xd1;" horiz-adv-x="1594" d="M212 0zM446 1322l-21 -266l-86 -1056h-127l119 1456h171l668 -1133l117 -221l21 340l80 1014h126l-119 -1456h-174l-671 1132zM1205 1881h62q-7 -39 -23 -73.5t-41 -59.5t-57 -39.5t-70 -14.5q-24 0 -53 11t-62 24.5t-69 24.5t-72 11q-51 0 -83 -21.5t-40 -66.5h-58 q14 82 65 132t129 50q30 0 59 -11.5t60 -25t64 -24.5t70 -11q46 0 78 23.5t41 70.5z" />
<glyph unicode="&#xd2;" horiz-adv-x="1663" d="M188 0zM1609 801q0 -180 -54 -331.5t-154.5 -261t-243.5 -170.5t-321 -61q-153 0 -273.5 48t-204 136.5t-127 214t-43.5 280.5q0 180 54 331.5t154.5 261.5t244.5 172t324 62q152 0 271.5 -48.5t202.5 -137.5t126.5 -215t43.5 -281zM325 669q0 -123 33 -228.5t98 -183 t163 -122t227 -44.5q152 0 268 54.5t194 150.5t117.5 226.5t39.5 282.5q0 118 -31.5 221t-96 179t-161.5 120t-229 44q-149 0 -265 -58t-195.5 -155t-120.5 -223.5t-41 -263.5zM657 1938h158l206 -292h-82z" />
<glyph unicode="&#xd3;" horiz-adv-x="1663" d="M188 0zM992 1938h159l-308 -292h-80zM1609 801q0 -180 -54 -331.5t-154.5 -261t-243.5 -170.5t-321 -61q-153 0 -273.5 48t-204 136.5t-127 214t-43.5 280.5q0 180 54 331.5t154.5 261.5t244.5 172t324 62q152 0 271.5 -48.5t202.5 -137.5t126.5 -215t43.5 -281zM325 669 q0 -123 33 -228.5t98 -183t163 -122t227 -44.5q152 0 268 54.5t194 150.5t117.5 226.5t39.5 282.5q0 118 -31.5 221t-96 179t-161.5 120t-229 44q-149 0 -265 -58t-195.5 -155t-120.5 -223.5t-41 -263.5z" />
<glyph unicode="&#xd4;" horiz-adv-x="1663" d="M188 0zM696 1644l232 296h135l185 -296h-79l-180 240l-219 -240h-74zM1609 801q0 -180 -54 -331.5t-154.5 -261t-243.5 -170.5t-321 -61q-153 0 -273.5 48t-204 136.5t-127 214t-43.5 280.5q0 180 54 331.5t154.5 261.5t244.5 172t324 62q152 0 271.5 -48.5t202.5 -137.5 t126.5 -215t43.5 -281zM325 669q0 -123 33 -228.5t98 -183t163 -122t227 -44.5q152 0 268 54.5t194 150.5t117.5 226.5t39.5 282.5q0 118 -31.5 221t-96 179t-161.5 120t-229 44q-149 0 -265 -58t-195.5 -155t-120.5 -223.5t-41 -263.5z" />
<glyph unicode="&#xd5;" horiz-adv-x="1663" d="M188 0zM1609 801q0 -180 -54 -331.5t-154.5 -261t-243.5 -170.5t-321 -61q-153 0 -273.5 48t-204 136.5t-127 214t-43.5 280.5q0 180 54 331.5t154.5 261.5t244.5 172t324 62q152 0 271.5 -48.5t202.5 -137.5t126.5 -215t43.5 -281zM325 669q0 -123 33 -228.5t98 -183 t163 -122t227 -44.5q152 0 268 54.5t194 150.5t117.5 226.5t39.5 282.5q0 118 -31.5 221t-96 179t-161.5 120t-229 44q-149 0 -265 -58t-195.5 -155t-120.5 -223.5t-41 -263.5zM1190 1881h62q-7 -39 -23 -73.5t-41 -59.5t-57 -39.5t-70 -14.5q-24 0 -53 11t-62 24.5 t-69 24.5t-72 11q-51 0 -83 -21.5t-40 -66.5h-58q14 82 65 132t129 50q30 0 59 -11.5t60 -25t64 -24.5t70 -11q46 0 78 23.5t41 70.5z" />
<glyph unicode="&#xd6;" horiz-adv-x="1663" d="M188 0zM811 1723h-119l13 128h117zM1184 1723h-120l15 128h118zM1609 801q0 -180 -54 -331.5t-154.5 -261t-243.5 -170.5t-321 -61q-153 0 -273.5 48t-204 136.5t-127 214t-43.5 280.5q0 180 54 331.5t154.5 261.5t244.5 172t324 62q152 0 271.5 -48.5t202.5 -137.5 t126.5 -215t43.5 -281zM325 669q0 -123 33 -228.5t98 -183t163 -122t227 -44.5q152 0 268 54.5t194 150.5t117.5 226.5t39.5 282.5q0 118 -31.5 221t-96 179t-161.5 120t-229 44q-149 0 -265 -58t-195.5 -155t-120.5 -223.5t-41 -263.5z" />
<glyph unicode="&#xd7;" horiz-adv-x="1458" d="M1118 911l74 -74l-334 -283l331 -282l-71 -72l-339 287l-339 -287l-72 72l331 282l-333 283l74 74l339 -289zM1192 275l-3 -3h1zM368 272l-2 3z" />
<glyph unicode="&#xd8;" horiz-adv-x="1663" d="M1609 801q0 -180 -54 -331.5t-154.5 -261t-243.5 -170.5t-321 -61q-110 0 -203 24l-59 -127h-116l75 163q-102 47 -175 124q-83 89 -126.5 214.5t-43.5 280.5q0 180 54 331.5t154.5 261.5t244.5 172t324 62q121 0 221 -31l52 113h121l-72 -154q87 -45 152 -114 q83 -89 126.5 -215t43.5 -281zM325 669q0 -123 33 -228.5t98 -183.5q54 -64 130 -106l548 1190q-82 28 -187 28q-149 0 -265 -58t-195.5 -155t-120.5 -223.5t-41 -263.5zM846 91q152 0 268 54.5t194 150.5t117.5 226.5t39.5 282.5q0 118 -31.5 221t-96.5 179q-44 52 -104 89 l-549 -1183q74 -20 162 -20z" />
<glyph unicode="&#xd9;" horiz-adv-x="1532" d="M248 0zM1326 1456h126l-76 -908q-11 -134 -55 -240t-120.5 -179.5t-186 -112.5t-251.5 -39q-131 0 -227.5 33.5t-160.5 97t-95.5 155.5t-31.5 209v30t2 30l78 924h125l-74 -913q-1 -8 -1 -13.5v-10.5q0 -212 99 -320t305 -108q106 0 188.5 25t141 78t92.5 137t44 202z M591 1938h158l206 -292h-82z" />
<glyph unicode="&#xda;" horiz-adv-x="1532" d="M248 0zM926 1938h159l-308 -292h-80zM1326 1456h126l-76 -908q-11 -134 -55 -240t-120.5 -179.5t-186 -112.5t-251.5 -39q-131 0 -227.5 33.5t-160.5 97t-95.5 155.5t-31.5 209v30t2 30l78 924h125l-74 -913q-1 -8 -1 -13.5v-10.5q0 -212 99 -320t305 -108 q106 0 188.5 25t141 78t92.5 137t44 202z" />
<glyph unicode="&#xdb;" horiz-adv-x="1532" d="M248 0zM618 1644l232 296h135l185 -296h-79l-180 240l-219 -240h-74zM1326 1456h126l-76 -908q-11 -134 -55 -240t-120.5 -179.5t-186 -112.5t-251.5 -39q-131 0 -227.5 33.5t-160.5 97t-95.5 155.5t-31.5 209v30t2 30l78 924h125l-74 -913q-1 -8 -1 -13.5v-10.5 q0 -212 99 -320t305 -108q106 0 188.5 25t141 78t92.5 137t44 202z" />
<glyph unicode="&#xdc;" horiz-adv-x="1532" d="M248 0zM746 1723h-119l13 128h117zM1119 1723h-120l15 128h118zM1326 1456h126l-76 -908q-11 -134 -55 -240t-120.5 -179.5t-186 -112.5t-251.5 -39q-131 0 -227.5 33.5t-160.5 97t-95.5 155.5t-31.5 209v30t2 30l78 924h125l-74 -913q-1 -8 -1 -13.5v-10.5 q0 -212 99 -320t305 -108q106 0 188.5 25t141 78t92.5 137t44 202z" />
<glyph unicode="&#xdd;" horiz-adv-x="1266" d="M156 0zM752 588l-51 -588h-127l51 582l-469 874h144l396 -765l523 765h138zM789 1938h159l-308 -292h-80z" />
<glyph unicode="&#xde;" horiz-adv-x="1274" d="M350 0h-126l119 1456h125l-16 -219h197q81 0 157.5 -7t145 -24t125.5 -46t98 -72.5t64 -104.5t23 -141q0 -122 -52 -208.5t-139 -142t-200.5 -81.5t-237.5 -26h-246zM397 498h290q95 0 175 19.5t138.5 60.5t91.5 104t33 150t-32 143.5t-90 89t-139.5 45.5t-179.5 13h-240 z" />
<glyph unicode="&#xdf;" horiz-adv-x="1257" d="M316 0h-121l85 1093q7 99 41.5 179.5t93 137.5t139.5 88.5t181 31.5q89 0 158.5 -23t117 -63t72.5 -94.5t25 -116.5q0 -50 -17.5 -95t-45 -84.5t-63 -73t-71 -60.5t-68.5 -47t-57 -32q-12 -8 -16 -13t-4 -13q0 -17 22 -24q73 -30 147.5 -67t134.5 -88t98 -118t38 -157 q0 -86 -34.5 -157t-90.5 -121.5t-128 -78t-147 -27.5q-85 0 -160.5 35t-129.5 114l48 67q46 -60 112 -89t136 -29q49 0 94.5 17t80 50t55 82t20.5 113q0 82 -35 144.5t-91 112.5t-126.5 92.5t-141.5 85.5l27 123q51 23 99.5 56.5t86 76.5t60.5 94t23 110q0 94 -64.5 147 t-175.5 53q-83 0 -141.5 -26.5t-97.5 -75t-60 -118t-28 -155.5z" />
<glyph unicode="&#xe0;" horiz-adv-x="1244" d="M148 0zM677 1051q72 0 128.5 -15.5t102 -44t81.5 -69.5t68 -93l20 197h123l-22 -244l-63 -782h-123l19 219q-17 -41 -55 -83.5t-93.5 -78t-124.5 -58t-147 -22.5q-118 0 -202 44.5t-137.5 116t-78.5 162t-25 182.5q0 70 15 139.5t45 133t74 117.5t103 94t132 62.5 t160 22.5zM1037 525q0 81 -15.5 157.5t-55.5 136.5t-109.5 96t-177.5 36t-186.5 -43t-128.5 -111t-74 -151.5t-24 -163.5q0 -78 15.5 -151t55.5 -130t108.5 -91.5t173.5 -34.5q79 0 152 26t130 79t93 133t42 187zM447 1508h158l206 -292h-82z" />
<glyph unicode="&#xe1;" horiz-adv-x="1244" d="M148 0zM677 1051q72 0 128.5 -15.5t102 -44t81.5 -69.5t68 -93l20 197h123l-22 -244l-63 -782h-123l19 219q-17 -41 -55 -83.5t-93.5 -78t-124.5 -58t-147 -22.5q-118 0 -202 44.5t-137.5 116t-78.5 162t-25 182.5q0 70 15 139.5t45 133t74 117.5t103 94t132 62.5 t160 22.5zM1037 525q0 81 -15.5 157.5t-55.5 136.5t-109.5 96t-177.5 36t-186.5 -43t-128.5 -111t-74 -151.5t-24 -163.5q0 -78 15.5 -151t55.5 -130t108.5 -91.5t173.5 -34.5q79 0 152 26t130 79t93 133t42 187zM782 1508h159l-308 -292h-80z" />
<glyph unicode="&#xe2;" horiz-adv-x="1244" d="M148 0zM677 1051q72 0 128.5 -15.5t102 -44t81.5 -69.5t68 -93l20 197h123l-22 -244l-63 -782h-123l19 219q-17 -41 -55 -83.5t-93.5 -78t-124.5 -58t-147 -22.5q-118 0 -202 44.5t-137.5 116t-78.5 162t-25 182.5q0 70 15 139.5t45 133t74 117.5t103 94t132 62.5 t160 22.5zM1037 525q0 81 -15.5 157.5t-55.5 136.5t-109.5 96t-177.5 36t-186.5 -43t-128.5 -111t-74 -151.5t-24 -163.5q0 -78 15.5 -151t55.5 -130t108.5 -91.5t173.5 -34.5q79 0 152 26t130 79t93 133t42 187zM422 1214l232 296h135l185 -296h-79l-180 240l-219 -240h-74 z" />
<glyph unicode="&#xe3;" horiz-adv-x="1244" d="M148 0zM677 1051q72 0 128.5 -15.5t102 -44t81.5 -69.5t68 -93l20 197h123l-22 -244l-63 -782h-123l19 219q-17 -41 -55 -83.5t-93.5 -78t-124.5 -58t-147 -22.5q-118 0 -202 44.5t-137.5 116t-78.5 162t-25 182.5q0 70 15 139.5t45 133t74 117.5t103 94t132 62.5 t160 22.5zM1037 525q0 81 -15.5 157.5t-55.5 136.5t-109.5 96t-177.5 36t-186.5 -43t-128.5 -111t-74 -151.5t-24 -163.5q0 -78 15.5 -151t55.5 -130t108.5 -91.5t173.5 -34.5q79 0 152 26t130 79t93 133t42 187zM980 1451h62q-7 -39 -23 -73.5t-41 -59.5t-57 -39.5 t-70 -14.5q-24 0 -53 11t-62 24.5t-69 24.5t-72 11q-51 0 -83 -21.5t-40 -66.5h-58q14 82 65 132t129 50q30 0 59 -11.5t60 -25t64 -24.5t70 -11q46 0 78 23.5t41 70.5z" />
<glyph unicode="&#xe4;" horiz-adv-x="1244" d="M148 0zM677 1051q72 0 128.5 -15.5t102 -44t81.5 -69.5t68 -93l20 197h123l-22 -244l-63 -782h-123l19 219q-17 -41 -55 -83.5t-93.5 -78t-124.5 -58t-147 -22.5q-118 0 -202 44.5t-137.5 116t-78.5 162t-25 182.5q0 70 15 139.5t45 133t74 117.5t103 94t132 62.5 t160 22.5zM1037 525q0 81 -15.5 157.5t-55.5 136.5t-109.5 96t-177.5 36t-186.5 -43t-128.5 -111t-74 -151.5t-24 -163.5q0 -78 15.5 -151t55.5 -130t108.5 -91.5t173.5 -34.5q79 0 152 26t130 79t93 133t42 187zM602 1293h-119l13 128h117zM975 1293h-120l15 128h118z" />
<glyph unicode="&#xe5;" horiz-adv-x="1244" d="M148 0zM677 1051q72 0 128.5 -15.5t102 -44t81.5 -69.5t68 -93l20 197h123l-22 -244l-63 -782h-123l19 219q-17 -41 -55 -83.5t-93.5 -78t-124.5 -58t-147 -22.5q-118 0 -202 44.5t-137.5 116t-78.5 162t-25 182.5q0 70 15 139.5t45 133t74 117.5t103 94t132 62.5 t160 22.5zM1037 525q0 81 -15.5 157.5t-55.5 136.5t-109.5 96t-177.5 36t-186.5 -43t-128.5 -111t-74 -151.5t-24 -163.5q0 -78 15.5 -151t55.5 -130t108.5 -91.5t173.5 -34.5q79 0 152 26t130 79t93 133t42 187zM891 1378q0 26 -11 49.5t-30.5 41.5t-46 29t-58.5 11 q-30 0 -58.5 -12t-51 -32t-36 -46.5t-13.5 -54.5q0 -60 38.5 -97t103.5 -37q31 0 60.5 12t52 32.5t36.5 47.5t14 56zM546 1358q0 41 17 76t45.5 60.5t66.5 40t80 14.5q38 0 70.5 -12.5t56.5 -35t37.5 -53t13.5 -66.5q0 -39 -17 -74.5t-46 -61.5t-67 -41.5t-80 -15.5 q-37 0 -69.5 12.5t-56.5 35t-37.5 53.5t-13.5 68z" />
<glyph unicode="&#xe6;" horiz-adv-x="1807" d="M289 810l-64 68q31 47 74 80.5t96 54.5t114.5 30.5t129.5 9.5q60 -2 113 -18t93.5 -47.5t65.5 -79t30 -111.5h5q34 67 80.5 115t100.5 79.5t113.5 46.5t121.5 15q103 0 179 -36.5t125 -98.5t73 -145.5t24 -177.5q0 -48 -6 -97h-780q-2 -21 -3.5 -39t-1.5 -38 q0 -73 17 -135.5t54 -108.5t95 -72t141 -26q112 0 203.5 48t151.5 131l63 -68q-72 -105 -183.5 -160t-255.5 -55q-66 0 -125 17t-107 49.5t-83 81t-54 111.5q-35 -75 -80.5 -124t-102 -79t-123.5 -43t-144 -16q-73 0 -132.5 19.5t-102 55.5t-66 88t-23.5 117q0 79 26.5 139 t77 101.5t123 64.5t164.5 29q90 9 173.5 12.5t177.5 5.5v14q0 6 0.5 14t0.5 17q0 64 -10 119.5t-36.5 96t-73 63.5t-119.5 23q-52 0 -100.5 -7.5t-91.5 -24.5t-78 -43.5t-60 -65.5zM848 498l-177 -3q-83 -2 -160.5 -10t-137 -32t-95.5 -68.5t-36 -118.5q0 -51 19.5 -87 t53 -59.5t77 -34t91.5 -10.5q99 0 167 35.5t110.5 94.5t63 135.5t24.5 157.5zM983 600h662q3 25 3 51q0 58 -18.5 112.5t-55.5 96t-92 66.5t-128 25q-81 0 -147 -28.5t-114 -77t-76 -112t-34 -133.5z" />
<glyph unicode="&#xe7;" horiz-adv-x="1046" d="M149 0zM969 848q-38 51 -107 77t-157 26q-98 0 -176.5 -38.5t-134 -104t-85.5 -153t-30 -185.5q0 -85 20.5 -157.5t64 -125t111 -82.5t160.5 -30q185 0 310 100l23 -97q-70 -54 -160 -77.5t-196 -23.5q-117 0 -203.5 37t-144.5 101.5t-86.5 151t-28.5 185.5 q0 122 37.5 231t109 190.5t174 129.5t231.5 48q116 0 199 -33.5t127 -93.5zM425 -342q33 -11 66.5 -16t66.5 -5q81 0 114.5 27.5t33.5 72.5q0 25 -10 42.5t-28.5 28t-45 15t-58.5 3.5h3.5t2.5 -1q-3 0 -7 -1q-10 -2 -30 -3l42 159h47l-27 -110q7 0 13.5 0.5t13.5 0.5 q39 0 72.5 -7t58.5 -22t39 -39t14 -59q0 -39 -18 -68.5t-50.5 -49t-76 -29t-94.5 -9.5q-42 0 -79 5t-72 14z" />
<glyph unicode="&#xe8;" horiz-adv-x="1173" d="M173 0zM314 593h687v2v-7q-3 80 -18 147t-49 115t-90 74.5t-141 26.5q-83 0 -149.5 -28.5t-115.5 -77.5t-80 -114t-44 -138zM1017 202l28 -96q-80 -68 -182.5 -98.5t-226.5 -30.5q-111 0 -197.5 35.5t-145.5 99.5t-89.5 153.5t-30.5 196.5q0 120 38 227t108.5 187.5 t171 127.5t224.5 47q106 0 183.5 -34t128 -96t75 -149.5t24.5 -194.5q0 -29 -1 -50t-3 -36h-817q-1 -9 -2 -19q-1 -8 -1.5 -19.5t-0.5 -23.5q0 -80 25 -145t71.5 -111.5t112 -72t147.5 -25.5q112 0 203.5 33t156.5 94zM412 1508h158l206 -292h-82z" />
<glyph unicode="&#xe9;" horiz-adv-x="1173" d="M173 0zM747 1508h159l-308 -292h-80zM314 593h687v2v-7q-3 80 -18 147t-49 115t-90 74.5t-141 26.5q-83 0 -149.5 -28.5t-115.5 -77.5t-80 -114t-44 -138zM1017 202l28 -96q-80 -68 -182.5 -98.5t-226.5 -30.5q-111 0 -197.5 35.5t-145.5 99.5t-89.5 153.5t-30.5 196.5 q0 120 38 227t108.5 187.5t171 127.5t224.5 47q106 0 183.5 -34t128 -96t75 -149.5t24.5 -194.5q0 -29 -1 -50t-3 -36h-817q-1 -9 -2 -19q-1 -8 -1.5 -19.5t-0.5 -23.5q0 -80 25 -145t71.5 -111.5t112 -72t147.5 -25.5q112 0 203.5 33t156.5 94z" />
<glyph unicode="&#xea;" horiz-adv-x="1173" d="M173 0zM451 1214l232 296h135l185 -296h-79l-180 240l-219 -240h-74zM314 593h687v2v-7q-3 80 -18 147t-49 115t-90 74.5t-141 26.5q-83 0 -149.5 -28.5t-115.5 -77.5t-80 -114t-44 -138zM1017 202l28 -96q-80 -68 -182.5 -98.5t-226.5 -30.5q-111 0 -197.5 35.5 t-145.5 99.5t-89.5 153.5t-30.5 196.5q0 120 38 227t108.5 187.5t171 127.5t224.5 47q106 0 183.5 -34t128 -96t75 -149.5t24.5 -194.5q0 -29 -1 -50t-3 -36h-817q-1 -9 -2 -19q-1 -8 -1.5 -19.5t-0.5 -23.5q0 -80 25 -145t71.5 -111.5t112 -72t147.5 -25.5q112 0 203.5 33 t156.5 94z" />
<glyph unicode="&#xeb;" horiz-adv-x="1173" d="M173 0zM603 1293h-119l13 128h117zM976 1293h-120l15 128h118zM314 593h687v2v-7q-3 80 -18 147t-49 115t-90 74.5t-141 26.5q-83 0 -149.5 -28.5t-115.5 -77.5t-80 -114t-44 -138zM1017 202l28 -96q-80 -68 -182.5 -98.5t-226.5 -30.5q-111 0 -197.5 35.5t-145.5 99.5 t-89.5 153.5t-30.5 196.5q0 120 38 227t108.5 187.5t171 127.5t224.5 47q106 0 183.5 -34t128 -96t75 -149.5t24.5 -194.5q0 -29 -1 -50t-3 -36h-817q-1 -9 -2 -19q-1 -8 -1.5 -19.5t-0.5 -23.5q0 -80 25 -145t71.5 -111.5t112 -72t147.5 -25.5q112 0 203.5 33t156.5 94z " />
<glyph unicode="&#xec;" horiz-adv-x="503" d="M78 0zM314 0h-121l83 1026h121zM78 1508h158l206 -292h-82z" />
<glyph unicode="&#xed;" horiz-adv-x="503" d="M184 0zM413 1508h159l-308 -292h-80zM314 0h-121l83 1026h121z" />
<glyph unicode="&#xee;" horiz-adv-x="503" d="M53 0zM53 1214l232 296h135l185 -296h-79l-180 240l-219 -240h-74zM314 0h-121l83 1026h121z" />
<glyph unicode="&#xef;" horiz-adv-x="503" d="M114 0zM233 1293h-119l13 128h117zM606 1293h-120l15 128h118zM314 0h-121l83 1026h121z" />
<glyph unicode="&#xf0;" d="M1329 1026l10 102h-213q-44 141 -131.5 246t-223.5 165l-67 -94q109 -40 180 -124t109 -193h-197l-10 -102h235q20 -95 19.5 -194.5t-18.5 -193.5q-37 124 -135.5 190t-249.5 66q-113 0 -207 -39t-162 -107t-106 -160t-38 -199q0 -88 29.5 -163.5t84.5 -130.5 t134.5 -86.5t180.5 -31.5q145 0 259.5 60t193.5 170t121 266.5t42 350.5q0 106 -18 202h178zM652 785q66 0 121.5 -18t98.5 -49.5t72 -75.5t40 -96q-1 -21 -1 -30v-13.5t-0.5 -7.5t-2.5 -11q-17 -79 -51 -151t-86.5 -126.5t-123.5 -87t-162 -32.5q-70 0 -125.5 23.5 t-94.5 64.5t-60 97t-21 122q0 77 23.5 147.5t72.5 124.5t123.5 86.5t176.5 32.5z" />
<glyph unicode="&#xf1;" horiz-adv-x="1217" d="M187 0zM308 0h-121l65 788q2 32 4.5 73t4.5 78q2 43 4 87h123l-10 -201q69 112 169.5 169t228.5 57q100 0 164.5 -32.5t102 -86t51.5 -120.5t14 -136q0 -3 -1 -35.5t-25 -307.5l-26 -333h-119l25 316q14 178 18 226.5t6 82t2 42.5q0 140 -65.5 212t-187.5 72 q-56 0 -104.5 -14.5t-89 -38.5t-71.5 -54.5t-53.5 -63t-35 -63.5t-14.5 -56zM967 1451h62q-7 -39 -23 -73.5t-41 -59.5t-57 -39.5t-70 -14.5q-24 0 -53 11t-62 24.5t-69 24.5t-72 11q-51 0 -83 -21.5t-40 -66.5h-58q14 82 65 132t129 50q30 0 59 -11.5t60 -25t64 -24.5 t70 -11q46 0 78 23.5t41 70.5z" />
<glyph unicode="&#xf2;" horiz-adv-x="1238" d="M148 0zM715 1051q119 0 208 -37.5t148 -103.5t88 -156t29 -195q0 -117 -38 -223t-110.5 -185.5t-177.5 -126.5t-239 -47q-117 0 -206 37.5t-148.5 102.5t-90 154t-30.5 191q0 121 38 228t111 187.5t178.5 127t239.5 46.5zM1058 550q0 83 -21 156t-64.5 127.5t-111.5 86 t-161 31.5q-102 0 -181 -40.5t-132.5 -107t-81.5 -153t-28 -178.5q0 -80 22 -152t67 -126.5t113 -86.5t159 -32q103 0 181.5 39.5t131.5 105.5t80 152t27 178zM444 1508h158l206 -292h-82z" />
<glyph unicode="&#xf3;" horiz-adv-x="1238" d="M148 0zM779 1508h159l-308 -292h-80zM715 1051q119 0 208 -37.5t148 -103.5t88 -156t29 -195q0 -117 -38 -223t-110.5 -185.5t-177.5 -126.5t-239 -47q-117 0 -206 37.5t-148.5 102.5t-90 154t-30.5 191q0 121 38 228t111 187.5t178.5 127t239.5 46.5zM1058 550 q0 83 -21 156t-64.5 127.5t-111.5 86t-161 31.5q-102 0 -181 -40.5t-132.5 -107t-81.5 -153t-28 -178.5q0 -80 22 -152t67 -126.5t113 -86.5t159 -32q103 0 181.5 39.5t131.5 105.5t80 152t27 178z" />
<glyph unicode="&#xf4;" horiz-adv-x="1238" d="M148 0zM419 1214l232 296h135l185 -296h-79l-180 240l-219 -240h-74zM715 1051q119 0 208 -37.5t148 -103.5t88 -156t29 -195q0 -117 -38 -223t-110.5 -185.5t-177.5 -126.5t-239 -47q-117 0 -206 37.5t-148.5 102.5t-90 154t-30.5 191q0 121 38 228t111 187.5t178.5 127 t239.5 46.5zM1058 550q0 83 -21 156t-64.5 127.5t-111.5 86t-161 31.5q-102 0 -181 -40.5t-132.5 -107t-81.5 -153t-28 -178.5q0 -80 22 -152t67 -126.5t113 -86.5t159 -32q103 0 181.5 39.5t131.5 105.5t80 152t27 178z" />
<glyph unicode="&#xf5;" horiz-adv-x="1238" d="M148 0zM715 1051q119 0 208 -37.5t148 -103.5t88 -156t29 -195q0 -117 -38 -223t-110.5 -185.5t-177.5 -126.5t-239 -47q-117 0 -206 37.5t-148.5 102.5t-90 154t-30.5 191q0 121 38 228t111 187.5t178.5 127t239.5 46.5zM1058 550q0 83 -21 156t-64.5 127.5t-111.5 86 t-161 31.5q-102 0 -181 -40.5t-132.5 -107t-81.5 -153t-28 -178.5q0 -80 22 -152t67 -126.5t113 -86.5t159 -32q103 0 181.5 39.5t131.5 105.5t80 152t27 178zM977 1451h62q-7 -39 -23 -73.5t-41 -59.5t-57 -39.5t-70 -14.5q-24 0 -53 11t-62 24.5t-69 24.5t-72 11 q-51 0 -83 -21.5t-40 -66.5h-58q14 82 65 132t129 50q30 0 59 -11.5t60 -25t64 -24.5t70 -11q46 0 78 23.5t41 70.5z" />
<glyph unicode="&#xf6;" horiz-adv-x="1238" d="M148 0zM599 1293h-119l13 128h117zM972 1293h-120l15 128h118zM715 1051q119 0 208 -37.5t148 -103.5t88 -156t29 -195q0 -117 -38 -223t-110.5 -185.5t-177.5 -126.5t-239 -47q-117 0 -206 37.5t-148.5 102.5t-90 154t-30.5 191q0 121 38 228t111 187.5t178.5 127 t239.5 46.5zM1058 550q0 83 -21 156t-64.5 127.5t-111.5 86t-161 31.5q-102 0 -181 -40.5t-132.5 -107t-81.5 -153t-28 -178.5q0 -80 22 -152t67 -126.5t113 -86.5t159 -32q103 0 181.5 39.5t131.5 105.5t80 152t27 178z" />
<glyph unicode="&#xf7;" horiz-adv-x="1458" d="M257 504l9 104h1037l-10 -104h-1036zM833 58h-172l13 179h174zM901 875h-172l13 179h174z" />
<glyph unicode="&#xf8;" horiz-adv-x="1238" d="M296 -175l93 202q-60 29 -105 73.5t-75 100.5t-45.5 122.5t-15.5 138.5q0 121 38 228t111 187.5t178.5 127t239.5 46.5q75 0 138 -15l71 153h121l-89 -191q59 -30 102.5 -75t72.5 -101.5t43 -123t14 -139.5q0 -117 -38 -223t-110.5 -185.5t-177.5 -126.5t-239 -47 q-35 0 -68.5 3.5t-65.5 10.5l-77 -166h-116zM700 951q-102 0 -181 -40.5t-132.5 -107t-81.5 -153t-28 -178.5q0 -53 9.5 -103t29.5 -94.5t49.5 -81t70.5 -63.5l372 808q-46 13 -108 13zM1058 550q0 111 -36.5 200t-114.5 143l-374 -806q48 -12 105 -12q103 0 181.5 39.5 t131.5 105.5t80 152t27 178z" />
<glyph unicode="&#xf9;" horiz-adv-x="1217" d="M206 0zM1006 1026h120l-63 -789q-3 -32 -14 -237h-124l15 203q-64 -118 -163 -172t-233 -54q-103 0 -169 32.5t-103.5 86t-51.5 120.5t-14 136v22t1 22l53 630h121l-55 -621q-1 -17 -1.5 -28t-0.5 -25q0 -136 65 -206.5t206 -70.5q82 0 147.5 27.5t112.5 75.5t73.5 113.5 t30.5 141.5zM434 1508h158l206 -292h-82z" />
<glyph unicode="&#xfa;" horiz-adv-x="1217" d="M206 0zM769 1508h159l-308 -292h-80zM1006 1026h120l-63 -789q-3 -32 -14 -237h-124l15 203q-64 -118 -163 -172t-233 -54q-103 0 -169 32.5t-103.5 86t-51.5 120.5t-14 136v22t1 22l53 630h121l-55 -621q-1 -17 -1.5 -28t-0.5 -25q0 -136 65 -206.5t206 -70.5 q82 0 147.5 27.5t112.5 75.5t73.5 113.5t30.5 141.5z" />
<glyph unicode="&#xfb;" horiz-adv-x="1217" d="M206 0zM408 1214l232 296h135l185 -296h-79l-180 240l-219 -240h-74zM1006 1026h120l-63 -789q-3 -32 -14 -237h-124l15 203q-64 -118 -163 -172t-233 -54q-103 0 -169 32.5t-103.5 86t-51.5 120.5t-14 136v22t1 22l53 630h121l-55 -621q-1 -17 -1.5 -28t-0.5 -25 q0 -136 65 -206.5t206 -70.5q82 0 147.5 27.5t112.5 75.5t73.5 113.5t30.5 141.5z" />
<glyph unicode="&#xfc;" horiz-adv-x="1217" d="M206 0zM588 1293h-119l13 128h117zM961 1293h-120l15 128h118zM1006 1026h120l-63 -789q-3 -32 -14 -237h-124l15 203q-64 -118 -163 -172t-233 -54q-103 0 -169 32.5t-103.5 86t-51.5 120.5t-14 136v22t1 22l53 630h121l-55 -621q-1 -17 -1.5 -28t-0.5 -25 q0 -136 65 -206.5t206 -70.5q82 0 147.5 27.5t112.5 75.5t73.5 113.5t30.5 141.5z" />
<glyph unicode="&#xfd;" horiz-adv-x="1069" d="M113 0zM126 1026h131l290 -936l449 936h128l-549 -1110q-33 -67 -75 -126.5t-92 -106t-108.5 -78.5t-125.5 -44l-61 81q83 21 138.5 54t92.5 72t60.5 81t42.5 80l30 61zM690 1508h159l-308 -292h-80z" />
<glyph unicode="&#xfe;" horiz-adv-x="1239" d="M266 -443h-121l121 1526l13 259h123l-38 -524q35 61 80.5 105.5t99.5 72.5t115 41.5t128 13.5q103 0 178.5 -36.5t125 -100t73.5 -149t24 -183.5q0 -118 -32.5 -227t-96.5 -193t-159.5 -134.5t-221.5 -50.5q-250 0 -364 217zM335 429q0 -72 21 -136.5t63 -112.5 t103.5 -76.5t142.5 -28.5q102 0 176 41.5t121.5 110.5t70.5 159t23 187q0 75 -16.5 143t-54 120.5t-98.5 83.5t-149 31q-114 0 -191.5 -44t-124.5 -116.5t-67 -167t-20 -194.5z" />
<glyph unicode="&#xff;" horiz-adv-x="1069" d="M113 0zM126 1026h131l290 -936l449 936h128l-549 -1110q-33 -67 -75 -126.5t-92 -106t-108.5 -78.5t-125.5 -44l-61 81q83 21 138.5 54t92.5 72t60.5 81t42.5 80l30 61zM514 1293h-119l13 128h117zM887 1293h-120l15 128h118z" />
<glyph unicode="&#x131;" horiz-adv-x="503" d="M314 0h-121l83 1026h121z" />
<glyph unicode="&#x152;" horiz-adv-x="2099" d="M179 656q0 181 54 332.5t154 261.5t241 171.5t315 61.5q102 0 191.5 -20.5t167.5 -78.5q3 11 6 23t5 23q3 12 5 25l764 1l-10 -114h-647l-42 -538h610l-10 -113h-610l-48 -577h682l-10 -114h-808l7 110q-47 -38 -117 -67q-60 -25 -149 -45.5t-210 -20.5q-140 0 -242 52 t-168.5 143t-98.5 215.5t-32 268.5zM1285 1302q-44 18 -99 33q-47 13 -111 23.5t-141 10.5q-150 0 -265 -58.5t-193.5 -156t-119 -223.5t-40.5 -261q0 -156 33.5 -268t92.5 -185t140 -107.5t176 -34.5q101 0 212 35.5t226 104.5l72 823z" />
<glyph unicode="&#x153;" horiz-adv-x="1970" d="M1933 491l-783 4q-1 -20 -2.5 -35.5t-1.5 -32.5q0 -75 18 -139.5t57 -112t99 -74t144 -26.5q56 0 108 12.5t98 35t84.5 54.5t66.5 71l53 -58q-74 -112 -186 -165t-249 -53q-70 0 -130.5 16.5t-108 50t-81 84t-49.5 117.5q0 2 -6.5 3t-5.5 3q-67 -137 -183 -205.5 t-264 -68.5q-114 0 -201.5 38t-147 104t-89.5 155.5t-30 192.5q0 120 39 227.5t112 188.5t178 128t237 47q161 0 259.5 -68.5t145.5 -203.5q62 134 169.5 203t253.5 69q100 0 175 -33.5t125 -94.5t75 -145.5t25 -187.5q0 -32 -1 -57t-3 -44zM1158 593h650q1 14 2.5 28 t1.5 28q0 66 -17.5 121.5t-53 95.5t-88.5 62.5t-124 22.5q-81 0 -147 -29.5t-113.5 -79t-76 -114t-34.5 -135.5zM1031 555q0 85 -20 158t-62 125.5t-106.5 82.5t-152.5 30q-100 0 -177.5 -40t-131 -107.5t-81 -155t-27.5 -182.5q0 -80 21.5 -151t65.5 -124.5t112 -84.5 t160 -31q101 0 176 40.5t124.5 107t74 153t24.5 179.5z" />
<glyph unicode="&#x178;" horiz-adv-x="1266" d="M156 0zM752 588l-51 -588h-127l51 582l-469 874h144l396 -765l523 765h138zM681 1723h-119l13 128h117zM1054 1723h-120l15 128h118z" />
<glyph unicode="&#x2c6;" horiz-adv-x="699" d="M237 1214l232 296h135l185 -296h-79l-180 240l-219 -240h-74z" />
<glyph unicode="&#x2da;" horiz-adv-x="605" d="M677 1378q0 26 -11 49.5t-30.5 41.5t-46 29t-58.5 11q-30 0 -58.5 -12t-51 -32t-36 -46.5t-13.5 -54.5q0 -60 38.5 -97t103.5 -37q31 0 60.5 12t52 32.5t36.5 47.5t14 56zM332 1358q0 41 17 76t45.5 60.5t66.5 40t80 14.5q38 0 70.5 -12.5t56.5 -35t37.5 -53t13.5 -66.5 q0 -39 -17 -74.5t-46 -61.5t-67 -41.5t-80 -15.5q-37 0 -69.5 12.5t-56.5 35t-37.5 53.5t-13.5 68z" />
<glyph unicode="&#x2dc;" horiz-adv-x="663" d="M801 1451h62q-7 -39 -23 -73.5t-41 -59.5t-57 -39.5t-70 -14.5q-24 0 -53 11t-62 24.5t-69 24.5t-72 11q-51 0 -83 -21.5t-40 -66.5h-58q14 82 65 132t129 50q30 0 59 -11.5t60 -25t64 -24.5t70 -11q46 0 78 23.5t41 70.5z" />
<glyph unicode="&#x2000;" horiz-adv-x="989" />
<glyph unicode="&#x2001;" horiz-adv-x="1979" />
<glyph unicode="&#x2002;" horiz-adv-x="989" />
<glyph unicode="&#x2003;" horiz-adv-x="1979" />
<glyph unicode="&#x2004;" horiz-adv-x="659" />
<glyph unicode="&#x2005;" horiz-adv-x="494" />
<glyph unicode="&#x2006;" horiz-adv-x="329" />
<glyph unicode="&#x2007;" horiz-adv-x="329" />
<glyph unicode="&#x2008;" horiz-adv-x="247" />
<glyph unicode="&#x2009;" horiz-adv-x="395" />
<glyph unicode="&#x200a;" horiz-adv-x="109" />
<glyph unicode="&#x2010;" horiz-adv-x="728" d="M140 508l10 102h543l-10 -102h-543z" />
<glyph unicode="&#x2011;" horiz-adv-x="728" d="M140 508l10 102h543l-10 -102h-543z" />
<glyph unicode="&#x2012;" horiz-adv-x="728" d="M140 508l10 102h543l-10 -102h-543z" />
<glyph unicode="&#x2013;" horiz-adv-x="1085" d="M1128 508h-1079l10 102h1078z" />
<glyph unicode="&#x2014;" horiz-adv-x="2171" d="M2232 508h-2190l10 102h2190z" />
<glyph unicode="&#x2018;" horiz-adv-x="553" d="M377 1060h-135l180 419h88z" />
<glyph unicode="&#x2019;" horiz-adv-x="553" d="M389 1479h134l-179 -419h-89z" />
<glyph unicode="&#x201a;" horiz-adv-x="553" d="M272 170h134l-179 -417h-87z" />
<glyph unicode="&#x201c;" horiz-adv-x="1024" d="M355 1060h-136l183 419h86zM646 1060h-137l180 419h89z" />
<glyph unicode="&#x201d;" horiz-adv-x="1024" d="M385 1479h135l-178 -419h-90zM659 1479h136l-180 -419h-90z" />
<glyph unicode="&#x201e;" horiz-adv-x="1024" d="M324 170h135l-182 -417h-87zM694 170h137l-180 -417h-89z" />
<glyph unicode="&#x2022;" horiz-adv-x="989" d="M886 725q0 -67 -29 -126.5t-78 -104.5t-113 -71t-134 -26q-63 0 -117.5 22.5t-95 61t-63.5 90.5t-23 111q0 67 29.5 126.5t79 104.5t113.5 71t134 26q63 0 117.5 -22.5t94 -61t62.5 -90.5t23 -111z" />
<glyph unicode="&#x2026;" horiz-adv-x="1620" d="M359 -11h-172l13 179h174zM899 -11h-172l13 179h174zM1439 -11h-172l13 179h174z" />
<glyph unicode="&#x202f;" horiz-adv-x="395" />
<glyph unicode="&#x2039;" horiz-adv-x="642" d="M473 911h109l-289 -370l223 -364h-106l-237 364z" />
<glyph unicode="&#x203a;" horiz-adv-x="642" d="M264 177h-108l288 365l-225 369h109l239 -369z" />
<glyph unicode="&#x2044;" horiz-adv-x="368" d="M814 1452l-1028 -1452h-98l1030 1452h96z" />
<glyph unicode="&#x205f;" horiz-adv-x="494" />
<glyph unicode="&#x2074;" horiz-adv-x="897" d="M434 639l15 196h-392l7 68l409 525h108l-42 -522h119l-4 -71h-121q-3 -48 -7.5 -97.5t-7.5 -98.5h-84zM453 906l33 437q-13 -17 -24 -33t-23 -33l-292 -371h306z" />
<glyph unicode="&#x20ac;" d="M166 642h108q0 24 2 66.5t10 103.5h-124l24 107h124q29 117 83.5 217t131.5 173t176 114t218 41q189 0 295 -106l-32 -133q-38 63 -111.5 94t-172.5 31q-90 0 -164 -35.5t-131.5 -94.5t-97.5 -137.5t-62 -163.5h614l-25 -107h-612q-7 -29 -11 -62t-4 -60q0 -14 1.5 -25.5 t1.5 -22.5h594l-27 -107h-564q4 -98 26.5 -180t68 -140.5t116 -91t171.5 -32.5q85 0 163.5 26t147.5 77l-12 -125q-74 -48 -157 -69t-169 -21q-122 0 -211.5 40.5t-149.5 114t-92 176t-37 225.5h-135z" />
<glyph unicode="&#x2122;" horiz-adv-x="1869" d="M1123 1467l215 -598l327 598h151l-68 -756h-84l68 688l-383 -688h-46l-248 690l-67 -690h-84l69 756h150zM810 1467l-19 -67h-251l-64 -689h-86l64 689h-265l7 67h614z" />
<glyph unicode="&#xe000;" horiz-adv-x="1025" d="M0 1025h1025v-1025h-1025v1025z" />
<glyph unicode="&#xfb01;" horiz-adv-x="1205" d="M476 1026h623l-83 -1026h-121l76 944h-499l-80 -944h-120l78 944h-209l7 82h207l9 134q4 87 23.5 161t63.5 122q84 90 229 90q22 0 38 -1t28.5 -3.5t24 -6t25.5 -7.5l-8 -96q-12 4 -33 7t-57 3q-60 0 -99 -15.5t-63 -46.5t-35 -76t-15 -104zM1132 1478l-11 -124h-114 l13 124h112z" />
<glyph unicode="&#xfb02;" horiz-adv-x="1205" d="M141 0zM392 0h-120l78 944h-209l7 82h207l9 134q4 87 23.5 161t63.5 122q84 90 229 90q22 0 38 -1t28.5 -3.5t24 -6t25.5 -7.5l-8 -96q-12 4 -33 7t-57 3q-60 0 -99 -15.5t-63 -46.5t-35 -76t-15 -104l-10 -161h257l-7 -82h-254zM1135 1508l-119 -1508h-121l121 1508h119 z" />
<glyph horiz-adv-x="1205" d="M0 0z" />
</font>
</defs>
</svg>
