<?xml version="1.0" standalone="no"?>
<!DOCTYPE svg PUBLIC "-//W3C//DTD SVG 1.1//EN" "http://www.w3.org/Graphics/SVG/1.1/DTD/svg11.dtd" >
<svg xmlns="http://www.w3.org/2000/svg">
<metadata></metadata>
<defs>
<font id="luxi_monobold" horiz-adv-x="1229" vert-adv-y="2048" >
<font-face units-per-em="2048" ascent="1638" descent="-410" />
<missing-glyph horiz-adv-x="500" />
<glyph vert-adv-y="0" />
<glyph vert-adv-y="0" />
<glyph unicode="&#xd;" vert-adv-y="0" />
<glyph unicode=" " vert-adv-y="2505" />
<glyph unicode="!" vert-adv-y="2505" d="M466 0v247h296v-247h-296zM528 419l-62 765v296h296v-296l-64 -765h-170z" />
<glyph unicode="&#x22;" vert-adv-y="2505" d="M245 1036l-50 543h296l-49 -543h-197zM788 1036l-50 543h296l-49 -543h-197z" />
<glyph unicode="#" vert-adv-y="2505" d="M142 0l110 432h-203l35 173h212l67 271h-226l36 173h233l111 431h178l-108 -431h207l107 431h179l-110 -431h210l-33 -173h-218l-69 -271h233l-36 -173h-241l-109 -432h-180l111 432h-208l-110 -432h-178zM475 605h206l68 271h-206z" />
<glyph unicode="$" vert-adv-y="2505" d="M652 180l22 4q52 9 88 61q30 43 30 106q0 115 -140 218v-389zM109 56v326h173l24 -149q86 -38 173 -55v509q-7 5 -22 16l-12 9q-96 70 -162 132q-134 128 -134 272q0 175 144 279q100 72 263 85v198h172v-198q140 -17 264 -50v-295h-172l-25 152q-31 13 -67 16v-468 q179 -120 251 -204q85 -97 85 -230q0 -162 -98 -264q-52 -54 -122.5 -84.5t-191.5 -52.5v-196h-173v196q-209 20 -370 56zM556 1302q-142 -24 -142 -156q0 -97 142 -192v348z" />
<glyph unicode="%" vert-adv-y="2505" d="M46 -37l982 1554h157l-983 -1554h-156zM908 740q141 0 232 -102t91 -262q0 -165 -90 -270q-90 -106 -233 -106q-141 0 -231 103q-90 102 -90 266q0 146 73 246q92 125 248 125zM908 568q-89 0 -89 -197q0 -198 90 -198q89 0 89 189q0 206 -90 206zM320 1480 q141 0 232 -102q91 -101 91 -262q0 -165 -90 -270q-90 -106 -232 -106q-141 0 -231 103q-90 102 -90 266q0 146 73 246q92 125 247 125zM321 1308q-89 0 -89 -197q0 -198 89 -198t89 191q0 204 -89 204z" />
<glyph unicode="&#x26;" vert-adv-y="2505" d="M871 0l-61 87q-132 -124 -327 -124q-197 0 -317 122q-121 122 -121 322q0 205 119 343q69 80 203 149q-102 202 -102 318q0 129 91 214q90 86 227 86q134 0 219 -89q85 -90 85 -225q0 -127 -94 -236q-56 -65 -166 -138q104 -226 246 -448q60 117 60 255v43h-103v172h379 v-172h-107q0 -237 -136 -435l56 -71h125v-173h-276zM713 218q-178 291 -281 527q-151 -94 -151 -266q0 -132 80 -217q81 -86 206 -86q86 0 146 42zM564 981q98 124 98 240q0 124 -86 124q-87 0 -87 -112q0 -71 64 -225q3 -9 11 -27z" />
<glyph unicode="'" vert-adv-y="2505" d="M516 962l-74 617h345l-74 -617h-197z" />
<glyph unicode="(" vert-adv-y="2505" d="M1032 -296q-230 5 -422 129q-417 268 -417 807q0 461 323 746q129 113 285 160q96 29 231 33v-173q-231 -43 -365 -205q-178 -215 -178 -563q0 -361 199 -581q132 -146 344 -180v-173z" />
<glyph unicode=")" vert-adv-y="2505" d="M197 1579q230 -5 422 -129q417 -268 417 -807q0 -461 -323 -746q-129 -113 -285 -160q-96 -29 -231 -33v173q231 43 365 205q178 215 178 562q0 362 -199 582q-132 146 -344 180v173z" />
<glyph unicode="*" vert-adv-y="2505" d="M482 595l-225 143l252 229q28 -43 81 -56zM154 1038l75 254l292 -173q-32 -40 -32 -79v-4v-4q1 -6 1 -10zM565 1150l-81 330h267l-86 -331q-30 12 -51 12q-19 0 -49 -11zM711 1115l295 179l70 -256l-337 -12q1 3 1 8v3v3q0 38 -29 75zM756 592l-118 320q48 9 83 55 l253 -224z" />
<glyph unicode="+" vert-adv-y="2505" d="M516 101v417h-417v198h417v417h198v-417h417v-198h-417v-417h-198z" />
<glyph unicode="," vert-adv-y="2505" d="M442 0v345h345v-283q0 -231 -71 -319q-70 -88 -254 -88h-20v123h14q85 0 105 65q17 51 17 157h-136z" />
<glyph unicode="-" vert-adv-y="2505" d="M148 518v198h933v-198h-933z" />
<glyph unicode="." vert-adv-y="2505" d="M442 0v345h345v-345h-345z" />
<glyph unicode="/" vert-adv-y="2505" d="M0 -296l1009 1875h220l-1010 -1875h-219z" />
<glyph unicode="0" vert-adv-y="2505" d="M614 1517q250 0 389 -203t139 -571q0 -375 -139 -577q-139 -203 -397 -203q-219 0 -353 166q-167 208 -167 613q0 368 139 571q139 204 389 204zM614 1345q-207 0 -207 -601q0 -608 212 -608q202 0 202 615q0 223 -40 407q-20 93 -74 147q-40 40 -93 40z" />
<glyph unicode="1" vert-adv-y="2505" d="M148 0v173h340v1028l-340 -100v173l636 231v-1332h346v-173h-982z" />
<glyph unicode="2" vert-adv-y="2505" d="M189 0v210q70 136 198 287l213 252q175 207 175 371q0 225 -220 225q-91 0 -185 -43l-20 -200h-156v341q205 75 388 75q218 0 339 -108q122 -107 122 -300q0 -138 -66 -234q-54 -78 -174 -193l-112 -108q-173 -168 -221 -328h569v-247h-850z" />
<glyph unicode="3" vert-adv-y="2505" d="M173 15v312h185l24 -158q100 -32 164 -32q104 0 166 67q63 66 63 177q0 142 -99 226t-268 84h-100v173h99q321 0 321 263q0 218 -197 218q-57 0 -136 -28l-25 -158h-185v296q218 62 395 62q210 0 337 -98t127 -257q0 -161 -125 -261q-77 -61 -221 -106q161 -30 262 -120 q133 -119 133 -282q0 -193 -155 -311q-154 -119 -402 -119q-134 0 -363 52z" />
<glyph unicode="4" vert-adv-y="2505" d="M72 407v191l630 901h271v-882h173v-210h-173v-234h148v-173h-691v173h272v234h-630zM702 617v568l-396 -568h396z" />
<glyph unicode="5" vert-adv-y="2505" d="M234 19v308h185l25 -155q66 -36 122 -36q92 0 150 69t58 185q0 349 -401 349q-47 0 -107 -7v748h806v-246h-633v-320q284 -4 446 -104q208 -129 208 -375q0 -206 -153 -339q-152 -133 -383 -133q-130 0 -323 56z" />
<glyph unicode="6" vert-adv-y="2505" d="M1070 1473v-313h-185l-25 158q-66 27 -124 27q-162 0 -251 -174q-67 -131 -64 -312l1 -59q58 76 116 114q87 55 198 55q180 0 295 -135q116 -135 116 -347q0 -231 -138 -378q-137 -146 -356 -146q-251 0 -399 195q-147 195 -147 531q0 372 172 600q171 228 457 228 q136 0 334 -44zM649 759q-190 0 -190 -305q0 -148 51 -233q51 -86 141 -86q177 0 177 309q0 315 -179 315z" />
<glyph unicode="7" vert-adv-y="2505" d="M194 0q1 160 82 343q79 179 300 510l253 381h-699v246h970v-197l-165 -229q-395 -550 -423 -1054h-318z" />
<glyph unicode="8" vert-adv-y="2505" d="M393 798q-119 84 -162 142q-50 67 -50 182q0 176 125 286q125 109 327 109q193 0 308 -92q116 -93 116 -242q0 -110 -84 -218q-50 -65 -146 -143q160 -94 228 -173q82 -95 82 -233q0 -192 -151 -323q-150 -130 -377 -130q-228 0 -371 111t-143 289q0 148 108 275 q65 76 190 160zM674 903q113 138 113 247q0 195 -173 195q-160 0 -160 -162q0 -105 126 -205zM520 697q-131 -141 -131 -291q0 -120 70 -195t182 -75q92 0 154 58q61 58 61 145q0 77 -53 134q-41 45 -130 111z" />
<glyph unicode="9" vert-adv-y="2505" d="M159 8v313h185l25 -158q66 -27 123 -27q162 0 251 173q68 131 65 312l-1 60q-127 -169 -315 -169q-178 0 -294 135t-116 346q0 233 137 378q137 146 356 146q253 0 399 -195q147 -195 147 -532q0 -371 -171 -599t-456 -228q-138 0 -335 45zM578 1345q-177 0 -177 -308 q0 -315 179 -315q190 0 190 304q0 149 -51 234q-52 85 -141 85z" />
<glyph unicode=":" vert-adv-y="2505" d="M442 0v345h345v-345h-345zM442 740v346h345v-346h-345z" />
<glyph unicode=";" vert-adv-y="2505" d="M442 740v346h345v-346h-345zM442 0v345h345v-283q0 -231 -71 -319q-70 -88 -254 -88h-20v123h14q85 0 105 65q17 51 17 157h-136z" />
<glyph unicode="&#x3c;" vert-adv-y="2505" d="M1130 1234v-222l-655 -389l655 -397v-226l-1031 623z" />
<glyph unicode="=" vert-adv-y="2505" d="M102 308v198h1024v-198h-1024zM102 728v197h1024v-197h-1024z" />
<glyph unicode="&#x3e;" vert-adv-y="2505" d="M99 0v222l654 389l-654 397v226l1031 -623z" />
<glyph unicode="?" vert-adv-y="2505" d="M375 0v247h296v-247h-296zM375 419v39q0 133 44 216q43 83 180 208l59 54q132 121 132 225q0 102 -82 148q-65 36 -171 36q-100 0 -211 -45l-25 -177h-173v329q272 65 447 65q251 0 391 -80q144 -81 144 -248q0 -137 -133 -240l-71 -55l-59 -49q-108 -90 -141 -158 q-35 -68 -35 -187v-81h-296z" />
<glyph unicode="@" vert-adv-y="2505" d="M957 6q-136 -43 -254 -43q-299 0 -479 210q-181 210 -181 560t181 567q182 218 477 218q225 0 327 -106q102 -105 102 -343v-600h86v-173h-259v309h-12q-78 -188 -129 -251q-62 -75 -166 -75q-117 0 -191 104q-73 103 -73 270q0 222 122 371q122 150 300 150 q51 0 143 -20q-23 104 -86 152q-69 51 -185 51q-200 0 -331 -175t-131 -442q0 -278 132 -448q131 -169 347 -169q114 0 260 63v-180zM957 887v124q-75 24 -135 24q-238 0 -238 -350q0 -230 100 -230q119 0 273 432z" />
<glyph unicode="A" vert-adv-y="2505" d="M25 0v173h62l374 1307h307l375 -1307h61v-173h-491v173h135l-67 234h-448l-67 -234h136v-173h-377zM382 580h350l-175 609h-2z" />
<glyph unicode="B" vert-adv-y="2505" d="M37 0v173h98v1135h-98v172h555q275 0 391 -75q117 -75 117 -245q0 -157 -116 -264q-70 -64 -204 -121q164 -38 258 -124q120 -109 120 -271q0 -380 -526 -380h-595zM431 173h80q180 0 252 49t72 171q0 286 -354 286h-50v-506zM431 851h45q139 0 223 75q84 74 84 197 q0 118 -79 154q-68 31 -221 31h-52v-457z" />
<glyph unicode="C" vert-adv-y="2505" d="M1182 261v-216q-202 -82 -410 -82q-330 0 -526 208q-197 208 -197 559q0 352 193 569q192 218 509 218q183 0 400 -66v-427h-173l-25 257q-88 64 -190 64q-178 0 -285 -161q-108 -160 -108 -426q0 -284 119 -442t332 -158q155 0 361 103z" />
<glyph unicode="D" vert-adv-y="2505" d="M37 0v173h99v1135h-99v172h440q341 0 522 -182t181 -527q0 -368 -192 -569q-192 -202 -546 -202h-405zM432 173h46q381 0 381 581q0 251 -79 389q-91 159 -304 164l-44 1v-1135z" />
<glyph unicode="E" vert-adv-y="2505" d="M37 0v173h148v1135h-148v172h1073v-370h-185v198h-444v-481h235v123h172v-420h-172v124h-235v-469h506v222h185v-407h-1135z" />
<glyph unicode="F" vert-adv-y="2505" d="M37 0v173h148v1135h-148v172h1123v-370h-185v198h-494v-531h284v124h173v-420h-173v124h-284v-420h198v-185h-642z" />
<glyph unicode="G" vert-adv-y="2505" d="M1169 685v-635q-200 -87 -421 -87q-314 0 -506 213q-193 212 -193 554q0 352 193 569q192 218 508 218q173 0 388 -66v-427h-173l-24 257q-88 64 -186 64q-172 0 -279 -163t-107 -425q0 -266 113 -432t293 -166q38 0 98 10v343h-185v173h481z" />
<glyph unicode="H" vert-adv-y="2505" d="M37 0v173h99v1135h-99v172h494v-172h-99v-457h365v457h-99v172h494v-172h-99v-1135h99v-173h-494v173h99v493h-365v-493h99v-173h-494z" />
<glyph unicode="I" vert-adv-y="2505" d="M123 0v173h343v1135h-343v172h982v-172h-343v-1135h343v-173h-982z" />
<glyph unicode="J" vert-adv-y="2505" d="M111 31v487h172l25 -319q97 -61 170 -61q103 0 136 72q27 60 27 193v905h-321v172h864v-172h-247v-925q0 -420 -437 -420q-126 0 -312 48z" />
<glyph unicode="K" vert-adv-y="2505" d="M37 0v173h98v1135h-98v172h493v-172h-99v-531h25l437 531h-111v172h442v-172h-115l-404 -489l483 -646h41v-173h-490v173h123l-406 543h-25v-543h99v-173h-493z" />
<glyph unicode="L" vert-adv-y="2505" d="M49 0v173h197v1135h-197v172h691v-172h-197v-1123h476v308h160v-493h-1130z" />
<glyph unicode="M" vert-adv-y="2505" d="M12 0v173h74v1135h-74v172h369l230 -961l243 961h362v-172h-68v-1135h68v-173h-438v173h136v924h-6l-229 -912h-200l-202 839h-6v-851h111v-173h-370z" />
<glyph unicode="N" vert-adv-y="2505" d="M37 0v173h99v1135h-99v172h296l588 -999v827h-148v172h444v-172h-99v-1308h-197l-588 993v-820h148v-173h-444z" />
<glyph unicode="O" vert-adv-y="2505" d="M614 1517q272 0 418 -201q147 -200 147 -576q0 -777 -572 -777q-240 0 -382 164q-176 205 -176 614q0 374 146 575q147 201 419 201zM614 1345q-257 0 -257 -601q0 -608 264 -608q250 0 250 610q0 599 -257 599z" />
<glyph unicode="P" vert-adv-y="2505" d="M37 0v173h198v1135h-198v172h634q278 0 401 -94q125 -94 125 -302q0 -240 -162 -378t-443 -138h-61v-395h296v-173h-790zM531 740h37q314 0 314 303q0 149 -63 207t-226 58h-62v-568z" />
<glyph unicode="Q" vert-adv-y="2505" d="M855 9q195 -79 369 -90q-71 -160 -184 -285q-207 87 -374 328h-17q-600 0 -600 775q0 378 146 579t419 201t419 -201t146 -580q0 -323 -100 -500q-74 -131 -224 -227zM614 1345q-257 0 -257 -601q0 -608 264 -608q250 0 250 610q0 599 -257 599z" />
<glyph unicode="R" vert-adv-y="2505" d="M37 0v173h99v1135h-99v172h542q182 0 259 -20q79 -21 141 -84q92 -95 92 -253q0 -160 -107 -282q-63 -73 -184 -145l362 -523h75v-173h-312l-432 617h-41v-444h173v-173h-568zM432 790h49q122 0 193 81q72 82 72 223t-66 180q-56 34 -191 34h-57v-518z" />
<glyph unicode="S" vert-adv-y="2505" d="M112 56v384h172l25 -211q165 -93 285 -93q125 0 183 64q45 49 45 130q0 113 -143 199q-19 11 -37 22l-18 10l-12 8l-136 84q-195 121 -266 214q-71 92 -71 229q0 196 131 309t356 113q174 0 411 -73v-376h-173l-24 217q-112 59 -212 59q-84 0 -135 -52q-51 -53 -51 -134 q0 -77 59 -130q50 -44 158 -110l144 -88q201 -123 257 -195q58 -74 58 -206q0 -220 -151 -343q-152 -124 -409 -124q-167 0 -446 93z" />
<glyph unicode="T" vert-adv-y="2505" d="M244 0v173h223v1135h-235v-222h-185v394h1135v-394h-185v222h-234v-1135h222v-173h-741z" />
<glyph unicode="U" vert-adv-y="2505" d="M21 1308v172h494v-172h-99v-742q0 -245 57 -337q59 -92 208 -92t193 99q38 84 38 272v800h-98v172h394v-172h-98v-765q0 -207 -30 -306q-30 -100 -114 -171q-122 -103 -335 -103q-288 0 -424 171q-46 58 -65 133q-22 88 -22 228v813h-99z" />
<glyph unicode="V" vert-adv-y="2505" d="M446 0l-376 1308h-58v172h486v-172h-128l291 -1007l312 1007h-126v172h370v-172h-76l-403 -1308h-292z" />
<glyph unicode="W" vert-adv-y="2505" d="M212 0l-140 1308h-60v172h388v-172h-91l84 -787h7l119 750h228l136 -759h6l89 796h-57v172h296v-172h-62l-146 -1308h-244l-160 867v0l-145 -867h-248z" />
<glyph unicode="X" vert-adv-y="2505" d="M12 0v173h82l375 563l-322 572h-111v172h556v-172h-116l183 -323l196 323h-96v172h420v-172h-105l-320 -490l364 -645h98v-173h-543v173h114l-223 396l-252 -396h95v-173h-395z" />
<glyph unicode="Y" vert-adv-y="2505" d="M239 0v173h247v477l-379 658h-93v172h543v-172h-95l242 -423l220 423h-103v172h395v-172h-86l-348 -658v-477h246v-173h-789z" />
<glyph unicode="Z" vert-adv-y="2505" d="M111 0v185l668 1123h-446v-222h-185v394h958v-185l-664 -1110h491v247h185v-432h-1007z" />
<glyph unicode="[" vert-adv-y="2505" d="M345 -296v1875h691v-173h-420v-1529h420v-173h-691z" />
<glyph unicode="\" vert-adv-y="2505" d="M1229 -296h-219l-1010 1875h220z" />
<glyph unicode="]" vert-adv-y="2505" d="M884 1579v-1875h-691v173h419v1529h-419v173h691z" />
<glyph unicode="^" vert-adv-y="2505" d="M146 543l469 937l469 -937h-220l-250 518l-249 -518h-219z" />
<glyph unicode="_" vert-adv-y="2505" d="M0 -197v197h1229v-197h-1229z" />
<glyph unicode="`" vert-adv-y="2505" d="M689 1283l-321 321h285l209 -321h-173z" />
<glyph unicode="a" vert-adv-y="2505" d="M160 773v253q255 84 475 84q231 0 332 -68t101 -229v-640h111v-173h-367l-40 105q-155 -130 -344 -130q-154 0 -248 86q-94 85 -94 225q0 185 153 283q153 97 443 97h90v113q0 92 -41 126q-41 35 -148 35q-127 0 -230 -52l-20 -115h-173zM772 292v226h-45 q-153 0 -246 -59t-93 -156q0 -133 141 -133q128 0 243 122z" />
<glyph unicode="b" vert-adv-y="2505" d="M135 0v1406h-98v173h395v-654q148 185 341 185q180 0 287 -143t107 -388q0 -288 -138 -446t-392 -158q-92 0 -205 25h-297zM432 203l27 -7q82 -21 151 -21q261 0 261 371q0 337 -198 337q-125 0 -241 -171v-509z" />
<glyph unicode="c" vert-adv-y="2505" d="M1180 266v-214q-236 -77 -447 -77q-315 0 -493 150q-178 151 -178 415q0 263 184 416q183 154 502 154q208 0 419 -54v-365h-172l-25 203q-111 47 -233 47q-361 0 -361 -370q0 -205 113 -306q104 -93 295 -93q148 0 396 94z" />
<glyph unicode="d" vert-adv-y="2505" d="M798 0v160q-149 -185 -341 -185q-181 0 -288 143t-107 389q0 288 139 446t391 158q91 0 206 -25v320h-124v173h420v-1406h99v-173h-395zM798 883l-28 7q-82 21 -151 21q-260 0 -260 -371q0 -337 197 -337q126 0 242 171v509z" />
<glyph unicode="e" vert-adv-y="2505" d="M1168 254v-203q-242 -76 -470 -76q-300 0 -468 150q-168 149 -168 410q0 258 161 417q160 159 419 159q246 0 381 -150q135 -149 135 -422v-58h-787q15 -89 38 -135q89 -177 346 -177q166 0 413 85zM377 654h481q-2 119 -51 189q-63 91 -178 91q-127 0 -197 -98 q-48 -68 -55 -182z" />
<glyph unicode="f" vert-adv-y="2505" d="M120 0v173h271v703h-271v185h271v92q0 451 495 451q163 0 342 -77v-256h-172l-25 121q-76 38 -148 38q-196 0 -196 -266v-103h414v-185h-414v-703h316v-173h-883z" />
<glyph unicode="g" vert-adv-y="2505" d="M300 24q-104 74 -104 145q0 99 166 219q-92 52 -138 112q-68 88 -68 213q0 177 116 288q115 110 301 110q70 0 168 -25l470 24l-62 -211l-194 31q72 -112 72 -227q0 -168 -119 -275q-118 -107 -305 -107q-40 0 -88 9q-72 -52 -72 -95q0 -50 167 -50h150q360 0 360 -246 q0 -163 -150 -261q-149 -98 -406 -98q-209 0 -340 61t-131 162q0 128 207 221zM486 0q-84 -72 -84 -131q0 -116 205 -116q101 0 166 41q64 41 64 103q0 64 -55 85q-45 18 -146 18h-150zM594 938q-154 0 -154 -224q0 -221 154 -221t154 221q0 224 -154 224z" />
<glyph unicode="h" vert-adv-y="2505" d="M37 0v173h105v1233h-105v173h395v-654q70 83 139 124q102 61 229 61q157 0 225 -84q68 -83 68 -281v-572h105v-173h-518v173h129v472q0 141 -28 189q-28 49 -105 49q-115 0 -250 -172v-538h129v-173h-518z" />
<glyph unicode="i" vert-adv-y="2505" d="M140 0v173h370v740h-370v173h666v-913h370v-173h-1036zM510 1283v296h296v-296h-296z" />
<glyph unicode="j" vert-adv-y="2505" d="M79 -356v405h173l24 -232q108 -68 199 -68q126 0 159 100q25 77 25 239v825h-432v173h728v-981q0 -273 -121 -399t-377 -126q-149 0 -378 64zM659 1283v296h296v-296h-296z" />
<glyph unicode="k" vert-adv-y="2505" d="M37 0v173h98v1233h-98v173h394v-962h50l284 296h-124v173h516v-173h-148l-263 -277l347 -463h99v-173h-471v173l-240 320h-50v-320h99v-173h-493z" />
<glyph unicode="l" vert-adv-y="2505" d="M140 0v173h370v1233h-370v173h666v-1406h370v-173h-1036z" />
<glyph unicode="m" vert-adv-y="2505" d="M25 0v173h80v740h-80v173h302v-185q120 209 246 209q123 0 153 -209q107 209 239 209q98 0 131 -85q28 -71 28 -225v-627h87v-173h-309v636l-2 115q-2 142 -41 142q-53 0 -133 -216v-677h-222v636l-2 115q-2 141 -41 141q-54 0 -134 -215v-677h-302z" />
<glyph unicode="n" vert-adv-y="2505" d="M37 0v173h105v740h-105v173h389v-161q89 100 159 140q81 45 216 45q158 0 225 -85q67 -84 67 -280v-572h105v-173h-518v173h129v472q0 141 -28 189q-28 49 -105 49q-115 0 -250 -172v-538h129v-173h-518z" />
<glyph unicode="o" vert-adv-y="2505" d="M615 1110q243 0 398 -158t155 -409q0 -253 -155 -410q-156 -158 -405 -158q-216 0 -362 130q-184 164 -184 438q0 251 154 409q155 158 399 158zM615 938q-112 0 -178 -107q-67 -108 -67 -287q0 -180 66 -288q67 -108 180 -108q243 0 243 394q0 183 -67 289 q-66 107 -177 107z" />
<glyph unicode="p" vert-adv-y="2505" d="M37 913v173h395v-161q148 185 341 185q180 0 287 -143t107 -388q0 -288 -138 -446t-392 -158q-92 0 -205 25v-222h123v-173h-518v173h98v1135h-98zM432 203l27 -7q82 -21 151 -21q261 0 261 371q0 337 -198 337q-125 0 -241 -171v-509z" />
<glyph unicode="q" vert-adv-y="2505" d="M1094 1086v-1308h123v-173h-518v173h99v382q-149 -185 -341 -185q-181 0 -288 143t-107 389q0 288 139 446t391 158q91 0 206 -25h296zM798 883l-28 7q-82 21 -151 21q-260 0 -260 -371q0 -337 197 -337q126 0 242 171v509z" />
<glyph unicode="r" vert-adv-y="2505" d="M56 0v173h247v740h-247v173h543v-161q65 82 128 124q91 61 201 61q120 0 246 -54v-353h-172l-25 152q-55 30 -109 30q-120 0 -269 -185v-527h321v-173h-864z" />
<glyph unicode="s" vert-adv-y="2505" d="M187 52v318h173l25 -149q146 -73 259 -73q163 0 163 117q0 58 -36 90q-36 31 -137 60l-144 41q-323 92 -323 322q0 180 145 264q117 68 328 68q200 0 390 -59v-311h-172l-25 156q-101 42 -209 42q-174 0 -174 -125q0 -56 42 -79q37 -21 134 -51l168 -52q166 -51 230 -118 q66 -68 66 -186q0 -166 -119 -259q-118 -93 -333 -93q-196 0 -451 77z" />
<glyph unicode="t" vert-adv-y="2505" d="M74 888v173h271v271h297v-271h431v-173h-431v-475q0 -132 32 -180q31 -49 117 -49q109 0 295 86v-202q-213 -93 -376 -93q-192 0 -279 101q-86 100 -86 329v483h-271z" />
<glyph unicode="u" vert-adv-y="2505" d="M31 913v173h389v-646q0 -139 28 -189q28 -49 105 -49q116 0 250 172v539h-129v173h413v-913h105v-173h-389v160q-90 -100 -159 -140q-81 -45 -216 -45q-158 0 -225 85t-67 281v572h-105z" />
<glyph unicode="v" vert-adv-y="2505" d="M448 0l-334 913h-102v173h556v-173h-143l238 -653l265 653h-131v173h420v-173h-104l-369 -913h-296z" />
<glyph unicode="w" vert-adv-y="2505" d="M220 0l-134 913h-74v173h395v-173h-82l75 -510h4l117 473h247l115 -503h4l80 540h-79v173h329v-173h-75l-136 -913h-246l-138 602h-4l-151 -602h-247z" />
<glyph unicode="x" vert-adv-y="2505" d="M25 0v173h125l305 361l-284 379h-98v173h514v-173h-79l153 -203l173 203h-73v173h409v-173h-94l-305 -349l297 -391h136v-173h-588v173h111l-160 211l-175 -211h99v-173h-466z" />
<glyph unicode="y" vert-adv-y="2505" d="M503 33l-390 880h-101v173h584v-173h-148l230 -517l238 517h-147v173h447v-173h-102l-527 -1135h201v-173h-683v173h197z" />
<glyph unicode="z" vert-adv-y="2505" d="M148 0v197l557 716h-384v-197h-173v370h907v-173l-564 -728h417v197h173v-382h-933z" />
<glyph unicode="{" vert-adv-y="2505" d="M146 728h83q245 0 245 149q0 41 -15 106l-36 156q-18 78 -18 146q0 158 120 226t398 68h124v-173h-87q-258 0 -258 -115q0 -32 12 -88l23 -107q18 -83 18 -159q0 -120 -86 -203q-53 -50 -151 -94q106 -39 160 -93q77 -78 77 -201q0 -76 -18 -159l-23 -107 q-12 -56 -12 -90q0 -113 258 -113h87v-173h-124q-278 0 -398 68t-120 227q0 67 18 145l36 156q15 65 15 108q0 147 -245 147h-83v173z" />
<glyph unicode="|" vert-adv-y="2505" d="M516 -296v1875h197v-1875h-197z" />
<glyph unicode="}" vert-adv-y="2505" d="M1084 555h-83q-245 0 -245 -149q0 -41 15 -106l36 -156q19 -82 19 -148q0 -156 -121 -224q-120 -68 -398 -68h-124v173h88q258 0 258 114q0 28 -13 89l-23 108q-18 85 -18 157q0 121 86 204q52 50 151 94q-107 39 -160 93q-77 78 -77 202q0 74 18 158l23 107q13 61 13 90 q0 113 -258 113h-88v173h124q279 0 399 -68t120 -226q0 -64 -19 -146l-36 -156q-15 -65 -15 -108q0 -147 245 -147h83v-173z" />
<glyph unicode="~" vert-adv-y="2505" d="M278 432h-173v26q0 174 76 273q77 100 206 100q107 0 239 -97l72 -53q96 -71 144 -71q106 0 110 204h172l1 -26q3 -74 -19 -155q-30 -105 -101 -163q-68 -55 -163 -55q-109 0 -239 97l-71 53q-95 71 -144 71q-106 0 -110 -204z" />
<glyph vert-adv-y="2505" d="M25 493l62 149h71q-5 70 -5 100q0 42 6 122h-134l62 148h101q47 141 93 213q186 293 585 293q144 0 314 -41v-204q-199 72 -310 72q-170 0 -282 -117q-77 -80 -110 -216h603l-61 -148h-564q-7 -94 -8 -167l1 -55h479l-62 -149h-393q38 -141 127 -224q117 -109 278 -109 q120 0 302 85v-216q-188 -66 -353 -66q-494 0 -644 530h-158z" />
<glyph unicode="&#xa0;" vert-adv-y="2505" />
<glyph unicode="&#xa1;" vert-adv-y="2505" d="M762 1086v-247h-296v247h296zM700 666l62 -765v-296h-296v296l64 765h170z" />
<glyph unicode="&#xa2;" vert-adv-y="2505" d="M636 1138q-83 -31 -126 -94q-63 -95 -63 -272q0 -183 72 -284q40 -56 117 -94v744zM636 -37v212q-151 20 -228 56q-281 130 -281 519q0 270 143 415q86 88 212 125q51 15 154 30v197h173v-191q138 -10 296 -39v-337h-173l-24 150q-50 24 -99 34v-768q162 10 296 57v-215 q-127 -26 -296 -36v-209h-173z" />
<glyph unicode="&#xa3;" vert-adv-y="2505" d="M119 0v247q98 0 148 72q62 88 62 303v81h-173v173h173v118q0 523 436 523q147 0 329 -58v-299h-173l-25 163q-67 22 -113 22q-158 0 -158 -191v-278h247v-173h-247v-39q0 -290 -238 -417h719v-247h-987z" />
<glyph unicode="&#xa4;" vert-adv-y="2505" d="M227 1006l-197 197l122 122l197 -197q125 82 265 82q141 0 266 -82l197 197l122 -122l-197 -197q82 -135 82 -266q0 -140 -82 -265l197 -197l-122 -122l-197 197q-131 -83 -265 -83q-127 0 -266 83l-197 -197l-122 122l197 197l-8 13q-74 121 -74 252q0 140 82 266z M615 1013q-112 0 -192 -80q-81 -79 -81 -190q0 -103 64 -178q83 -97 209 -97q112 0 192 80t80 192q0 113 -80 193t-192 80z" />
<glyph unicode="&#xa5;" vert-adv-y="2505" d="M259 0v173h223v166h-297v136h297v203h-297v136h202l-343 494h-25v172h503v-172h-124l304 -454l277 454h-123v172h354v-172h-25l-319 -494h208v-136h-296v-203h296v-136h-296v-166h222v-173h-741z" />
<glyph unicode="&#xa6;" vert-adv-y="2505" d="M516 -296v740h197v-740h-197zM516 839v740h197v-740h-197z" />
<glyph unicode="&#xa7;" vert-adv-y="2505" d="M153 -256v318h173l25 -153q143 -57 252 -57q94 0 147 31q58 33 58 97q0 91 -203 183l-161 73q-299 136 -299 347q0 141 163 316q-175 99 -175 262q0 162 135 259t363 97q159 0 386 -45v-300h-173l-24 142q-110 31 -202 31q-93 0 -144 -29q-55 -31 -55 -93q0 -83 189 -168 l134 -60q174 -78 247 -164q74 -87 74 -212q0 -148 -135 -308q76 -55 113 -106q56 -78 56 -173q0 -163 -137 -258q-136 -95 -371 -95q-169 0 -436 65zM783 383q65 102 65 165q0 100 -194 189l-183 84l-24 10q-73 -100 -73 -165q0 -62 52 -106q45 -38 142 -81l190 -85z" />
<glyph unicode="&#xa8;" vert-adv-y="2505" d="M281 1283v222h222v-222h-222zM725 1283v222h222v-222h-222z" />
<glyph unicode="&#xa9;" vert-adv-y="2505" d="M615 1517q249 0 401 -213t152 -562q0 -356 -152 -567q-152 -212 -410 -212q-218 0 -361 173q-183 221 -183 604q0 352 152 564q152 213 401 213zM615 1394q-188 0 -302 -180q-115 -180 -115 -474q0 -291 114 -472q115 -182 299 -182q169 0 280 143q141 183 141 513 q0 293 -116 472q-116 180 -301 180zM872 344l-20 -8q-115 -46 -201 -46q-160 0 -262 123q-103 123 -103 320q0 199 100 322q99 123 264 123q93 0 202 -27l16 -4v-197h-85v93q-64 24 -126 24q-198 0 -198 -325q0 -329 223 -329q93 0 190 51v-120z" />
<glyph unicode="&#xaa;" vert-adv-y="2505" d="M746 823q-178 -107 -308 -107q-127 0 -205 61q-79 61 -79 165q0 269 463 269h129v32q0 126 -208 126q-63 0 -168 -22v-80h-173v189q181 62 376 62q235 0 321 -59q86 -58 86 -222v-373h136v-148h-335zM746 972v92h-118q-228 0 -228 -101q0 -73 101 -73q105 0 245 82z" />
<glyph unicode="&#xab;" vert-adv-y="2505" d="M1155 242l-143 -143l-445 444l445 444l143 -143l-238 -301zM662 242l-144 -143l-444 444l444 444l144 -143l-239 -301z" />
<glyph unicode="&#xac;" vert-adv-y="2505" d="M86 518v198h1031v-519h-197v321h-834z" />
<glyph unicode="&#xad;" vert-adv-y="2505" d="M148 518v198h933v-198h-933z" />
<glyph unicode="&#xae;" vert-adv-y="2505" d="M615 1517q249 0 401 -213t152 -562q0 -356 -152 -567q-152 -212 -410 -212q-218 0 -361 173q-183 221 -183 604q0 352 152 564q152 213 401 213zM615 1394q-188 0 -302 -180q-115 -180 -115 -474q0 -291 114 -472q115 -182 299 -182q169 0 280 143q141 183 141 513 q0 293 -116 472q-116 180 -301 180zM364 317v99h25v649h-25v98h272q217 0 217 -205q0 -139 -125 -222l160 -320h26v-99h-143l-183 367h-51v-268h37v-99h-210zM537 758h7q154 0 154 173q0 134 -124 134h-37v-307z" />
<glyph unicode="&#xaf;" vert-adv-y="2505" d="M0 1678h1229v-198h-1229v198z" />
<glyph unicode="&#xb0;" vert-adv-y="2505" d="M614 1604q122 0 209 -87t87 -209q0 -124 -87 -210t-211 -86q-108 0 -189 71q-105 91 -105 225q0 122 87 209t209 87zM614 1456q-61 0 -104 -44q-44 -43 -44 -104q0 -60 44 -104q43 -44 101 -44q57 0 98 35q53 45 53 113q0 61 -44 104q-43 44 -104 44z" />
<glyph unicode="&#xb1;" vert-adv-y="2505" d="M121 0v197h987v-197h-987zM516 296v358h-395v197h395v358h197v-358h395v-197h-395v-358h-197z" />
<glyph unicode="&#xb2;" vert-adv-y="2505" d="M235 728v173q80 124 327 229l31 13l56 23q92 38 92 102q0 101 -184 101q-86 0 -159 -26l-12 -85h-148v202q164 58 338 58q399 0 399 -243q0 -134 -153 -197l-99 -41l-34 -13q-137 -55 -189 -123h494v-173h-759z" />
<glyph unicode="&#xb3;" vert-adv-y="2505" d="M246 751v174h148l12 -47q79 -14 161 -14q185 0 185 82q0 71 -93 91q-70 15 -215 15h-96v148h99q305 0 305 93q0 77 -164 77q-76 0 -185 -26l-12 -64h-148v180q179 58 382 58q362 0 362 -203q0 -80 -74 -132q-44 -32 -131 -58q86 -24 129 -55q76 -54 76 -142 q0 -212 -393 -212q-173 0 -348 35z" />
<glyph unicode="&#xb4;" vert-adv-y="2505" d="M368 1283l208 321h285l-320 -321h-173z" />
<glyph unicode="&#xb5;" vert-adv-y="2505" d="M37 913v173h389v-646q0 -140 28 -189t105 -49q116 0 250 172v539h-104v173h388v-913h105v-173h-389v160q-143 -172 -261 -172q-66 0 -122 36v-419h-284v1308h-105z" />
<glyph unicode="&#xb6;" vert-adv-y="2505" d="M489 -296v1036q-129 30 -196 66q-205 112 -205 350q0 337 357 337q38 0 97 -5l70 -6q20 -2 55 -2h340v-1776h-173v1629h-172v-1629h-173z" />
<glyph unicode="&#xb7;" vert-adv-y="2505" d="M454 469v320h321v-320h-321z" />
<glyph unicode="&#xb8;" vert-adv-y="2505" d="M541 0h136l-76 -113q232 -29 232 -156q0 -69 -72 -116t-177 -47q-81 0 -188 30v91q71 -15 120 -15q119 0 119 61q0 83 -195 83h-20z" />
<glyph unicode="&#xb9;" vert-adv-y="2505" d="M321 728v148h231v443l-231 -48v148l465 98v-641h232v-148h-697z" />
<glyph unicode="&#xba;" vert-adv-y="2505" d="M614 1517q209 0 333 -109q124 -110 124 -295q0 -184 -125 -290q-124 -107 -338 -107q-184 0 -302 89q-148 110 -148 308q0 186 123 295q124 109 333 109zM614 1369q-92 0 -151 -70q-58 -71 -58 -182t58 -182q57 -71 150 -71q84 0 140 56q71 71 71 197q0 112 -58 182 q-59 70 -152 70z" />
<glyph unicode="&#xbb;" vert-adv-y="2505" d="M74 242l238 301l-238 301l143 143l445 -444l-445 -444zM567 242l239 301l-239 301l144 143l444 -444l-444 -444z" />
<glyph unicode="&#xbc;" vert-adv-y="2505" d="M77 -37l898 1554h142l-898 -1554h-142zM904 0v179h-338v136l338 475h185v-475h99v-136h-99v-179h-185zM703 315h201v282zM176 728v592l-148 -37v148l345 86v-789h-197z" />
<glyph unicode="&#xbd;" vert-adv-y="2505" d="M704 0v173q55 121 173 211l25 19q98 75 98 145q0 106 -95 106q-32 0 -71 -25l-9 -86h-119v189q137 58 225 58q121 0 193 -67q73 -66 73 -178q0 -128 -145 -214l-14 -8q-21 -13 -30 -19l-28 -20q-76 -55 -103 -124h320v-160h-493zM167 728v592l-148 -37v148l345 86v-789 h-197zM38 -37l897 1554h142l-897 -1554h-142z" />
<glyph unicode="&#xbe;" vert-adv-y="2505" d="M32 751v162h115v-43q53 -19 92 -19q102 0 102 96q0 111 -170 111h-42v136h45q167 0 167 104q0 84 -89 84q-44 0 -105 -27v-44h-117v152q135 55 244 55q252 0 252 -196q0 -133 -163 -197q163 -58 163 -198q0 -94 -74 -152q-74 -59 -193 -59q-86 0 -227 35zM92 -37 l897 1554h142l-897 -1554h-142zM906 0v179h-338v136l338 475h185v-475h99v-136h-99v-179h-185zM705 315h201v282z" />
<glyph unicode="&#xbf;" vert-adv-y="2505" d="M846 1086v-247h-296v247h296zM846 666v-38q0 -134 -43 -216q-45 -84 -180 -208l-59 -54q-133 -122 -133 -225q0 -102 82 -148q65 -36 172 -36q100 0 211 45l24 177h173v-329q-270 -66 -446 -66q-251 0 -392 80q-144 82 -144 249q0 136 133 239l71 55l59 50 q107 90 142 158q34 68 34 187v80h296z" />
<glyph unicode="&#xc0;" vert-adv-y="2505" d="M25 0v173h62l374 1307h307l375 -1307h61v-173h-491v173h135l-67 234h-448l-67 -234h136v-173h-377zM382 580h350l-175 609h-2zM615 1604l-321 321h285l209 -321h-173z" />
<glyph unicode="&#xc1;" vert-adv-y="2505" d="M25 0v173h62l374 1307h307l375 -1307h61v-173h-491v173h135l-67 234h-448l-67 -234h136v-173h-377zM382 580h350l-175 609h-2zM442 1604l208 321h285l-320 -321h-173z" />
<glyph unicode="&#xc2;" vert-adv-y="2505" d="M25 0v173h62l374 1307h307l375 -1307h61v-173h-491v173h135l-67 234h-448l-67 -234h136v-173h-377zM382 580h350l-175 609h-2zM264 1604l208 321h285l209 -321h-160l-190 190h-2l-190 -190h-160z" />
<glyph unicode="&#xc3;" vert-adv-y="2505" d="M25 0v173h62l374 1307h307l375 -1307h61v-173h-491v173h135l-67 234h-448l-67 -234h136v-173h-377zM382 580h350l-175 609h-2zM411 1604h-148q3 141 35 213q50 108 165 108q65 0 128 -43l38 -26l12 -8q12 -8 18 -13q56 -46 94 -46q63 0 65 136h148q-3 -141 -35 -213 q-50 -108 -165 -108q-62 0 -127 43l-39 26l-27 19q-67 48 -96 48q-64 0 -66 -136z" />
<glyph unicode="&#xc4;" vert-adv-y="2505" d="M25 0v173h62l374 1307h307l375 -1307h61v-173h-491v173h135l-67 234h-448l-67 -234h136v-173h-377zM382 580h350l-175 609h-2zM282 1604v222h222v-222h-222zM726 1604v222h222v-222h-222z" />
<glyph unicode="&#xc5;" vert-adv-y="2505" d="M25 0v173h62l374 1307h307l375 -1307h61v-173h-491v173h135l-67 234h-448l-67 -234h136v-173h-377zM382 580h350l-175 609h-2zM614 1950q98 0 166 -68q69 -69 69 -166q0 -98 -69 -167q-68 -68 -168 -68q-86 0 -149 56q-83 72 -83 178q0 98 69 167q68 68 165 68zM614 1839 q-51 0 -87 -36t-36 -87t36 -87q36 -37 86 -37q47 0 81 29q44 38 44 95q0 51 -36 87t-88 36z" />
<glyph unicode="&#xc6;" vert-adv-y="2505" d="M12 0v173h62l392 1307h700v-320h-185v148h-148v-481h222v-173h-222v-469h173v160h185v-345h-629v407h-225l-67 -234h87v-173h-345zM562 580v609h-3l-173 -609h176z" />
<glyph unicode="&#xc7;" vert-adv-y="2505" d="M1182 261v-216q-204 -82 -410 -82q-330 0 -526 208q-197 209 -197 559q0 352 193 569q192 218 509 218q184 0 400 -66v-427h-173l-25 257q-88 64 -190 64q-178 0 -285 -161q-108 -160 -108 -426q0 -284 119 -442t332 -158q155 0 361 103zM658 0h136l-76 -113 q232 -29 232 -156q0 -69 -72 -116t-177 -47q-81 0 -188 30v91q71 -15 120 -15q119 0 119 61q0 83 -195 83h-20z" />
<glyph unicode="&#xc8;" vert-adv-y="2505" d="M37 0v173h148v1135h-148v172h1073v-370h-185v198h-444v-481h235v123h172v-420h-172v124h-235v-469h506v222h185v-407h-1135zM580 1604l-321 321h285l209 -321h-173z" />
<glyph unicode="&#xc9;" vert-adv-y="2505" d="M37 0v173h148v1135h-148v172h1073v-370h-185v198h-444v-481h235v123h172v-420h-172v124h-235v-469h506v222h185v-407h-1135zM506 1604l208 321h285l-320 -321h-173z" />
<glyph unicode="&#xca;" vert-adv-y="2505" d="M37 0v173h148v1135h-148v172h1073v-370h-185v198h-444v-481h235v123h172v-420h-172v124h-235v-469h506v222h185v-407h-1135zM296 1604l208 321h285l209 -321h-160l-190 190h-2l-190 -190h-160z" />
<glyph unicode="&#xcb;" vert-adv-y="2505" d="M37 0v173h148v1135h-148v172h1073v-370h-185v198h-444v-481h235v123h172v-420h-172v124h-235v-469h506v222h185v-407h-1135zM259 1604v222h222v-222h-222zM703 1604v222h222v-222h-222z" />
<glyph unicode="&#xcc;" vert-adv-y="2505" d="M123 0v173h343v1135h-343v172h982v-172h-343v-1135h343v-173h-982zM614 1604l-321 321h285l209 -321h-173z" />
<glyph unicode="&#xcd;" vert-adv-y="2505" d="M123 0v173h343v1135h-343v172h982v-172h-343v-1135h343v-173h-982zM441 1604l208 321h285l-320 -321h-173z" />
<glyph unicode="&#xce;" vert-adv-y="2505" d="M123 0v173h343v1135h-343v172h982v-172h-343v-1135h343v-173h-982zM263 1604l208 321h285l209 -321h-160l-190 190h-2l-190 -190h-160z" />
<glyph unicode="&#xcf;" vert-adv-y="2505" d="M123 0v173h343v1135h-343v172h982v-172h-343v-1135h343v-173h-982zM281 1604v222h222v-222h-222zM725 1604v222h222v-222h-222z" />
<glyph unicode="&#xd0;" vert-adv-y="2505" d="M37 0v173h99v496h-136v173h136v466h-99v172h440q341 0 522 -182t181 -527q0 -368 -192 -569q-192 -202 -546 -202h-405zM432 173h46q381 0 381 581q0 251 -79 389q-91 159 -304 164l-44 1v-466h198v-173h-198v-496z" />
<glyph unicode="&#xd1;" vert-adv-y="2505" d="M37 0v173h99v1135h-99v172h296l588 -999v827h-148v172h444v-172h-99v-1308h-197l-588 993v-820h148v-173h-444zM407 1604h-148q3 141 35 213q50 108 165 108q65 0 128 -43l38 -26q25 -17 30 -21q56 -46 93 -46q64 0 66 136h148q-3 -141 -35 -213q-50 -108 -165 -108 q-62 0 -127 43l-39 26l-11 8l-9 6q-4 3 -9 7q-63 46 -94 46q-64 0 -66 -136z" />
<glyph unicode="&#xd2;" vert-adv-y="2505" d="M614 1517q272 0 418 -201q147 -200 147 -576q0 -777 -572 -777q-240 0 -382 164q-176 205 -176 614q0 374 146 575q147 201 419 201zM614 1345q-257 0 -257 -601q0 -608 264 -608q250 0 250 610q0 599 -257 599zM614 1604l-321 321h285l209 -321h-173z" />
<glyph unicode="&#xd3;" vert-adv-y="2505" d="M614 1517q272 0 418 -201q147 -200 147 -576q0 -777 -572 -777q-240 0 -382 164q-176 205 -176 614q0 374 146 575q147 201 419 201zM614 1345q-257 0 -257 -601q0 -608 264 -608q250 0 250 610q0 599 -257 599zM442 1604l208 321h285l-320 -321h-173z" />
<glyph unicode="&#xd4;" vert-adv-y="2505" d="M614 1517q272 0 418 -201q147 -200 147 -576q0 -777 -572 -777q-240 0 -382 164q-176 205 -176 614q0 374 146 575q147 201 419 201zM614 1345q-257 0 -257 -601q0 -608 264 -608q250 0 250 610q0 599 -257 599zM263 1604l208 321h285l209 -321h-160l-190 190h-2 l-190 -190h-160z" />
<glyph unicode="&#xd5;" vert-adv-y="2505" d="M614 1517q272 0 418 -201q147 -200 147 -576q0 -777 -572 -777q-240 0 -382 164q-176 205 -176 614q0 374 146 575q147 201 419 201zM614 1345q-257 0 -257 -601q0 -608 264 -608q250 0 250 610q0 599 -257 599zM411 1604h-148q3 141 35 213q50 108 165 108q65 0 128 -43 l38 -26l12 -8q14 -10 19 -14q16 -14 47 -30q29 -15 46 -15q63 0 65 136h148q-3 -141 -35 -213q-50 -108 -165 -108q-63 0 -127 43l-39 26q-3 2 -11 8q-5 4 -9 6q-4 3 -9 7q-61 46 -95 46q-63 0 -65 -136z" />
<glyph unicode="&#xd6;" vert-adv-y="2505" d="M614 1517q272 0 418 -201q147 -200 147 -576q0 -777 -572 -777q-240 0 -382 164q-176 205 -176 614q0 374 146 575q147 201 419 201zM614 1345q-257 0 -257 -601q0 -608 264 -608q250 0 250 610q0 599 -257 599zM281 1604v222h222v-222h-222zM725 1604v222h222v-222h-222 z" />
<glyph unicode="&#xd7;" vert-adv-y="2505" d="M265 1098l349 -349l349 349l140 -140l-349 -349l349 -348l-140 -140l-349 349l-349 -349l-139 140l349 348l-349 349z" />
<glyph unicode="&#xd8;" vert-adv-y="2505" d="M809 1196q-75 149 -194 149q-258 0 -258 -597q0 -188 11 -259l1 -7zM420 284q75 -148 194 -148q257 0 257 601q0 172 -11 254l-1 7zM49 -37l135 219q-135 215 -135 560q0 373 146 574t417 201q187 0 330 -105l65 105h172l-134 -218q60 -97 89 -199q45 -155 45 -361 q0 -373 -146 -574q-146 -202 -417 -202q-186 0 -330 105l-64 -105h-173z" />
<glyph unicode="&#xd9;" vert-adv-y="2505" d="M21 1308v172h494v-172h-99v-742q0 -245 57 -337q59 -92 208 -92t193 99q38 84 38 272v800h-98v172h394v-172h-98v-765q0 -207 -30 -306q-30 -100 -114 -171q-122 -103 -335 -103q-288 0 -424 171q-46 58 -65 133q-22 88 -22 228v813h-99zM666 1604l-321 321h285l209 -321 h-173z" />
<glyph unicode="&#xda;" vert-adv-y="2505" d="M21 1308v172h494v-172h-99v-742q0 -245 57 -337q59 -92 208 -92t193 99q38 84 38 272v800h-98v172h394v-172h-98v-765q0 -207 -30 -306q-30 -100 -114 -171q-122 -103 -335 -103q-288 0 -424 171q-46 58 -65 133q-22 88 -22 228v813h-99zM493 1604l208 321h285l-320 -321 h-173z" />
<glyph unicode="&#xdb;" vert-adv-y="2505" d="M21 1308v172h494v-172h-99v-742q0 -245 57 -337q59 -92 208 -92t193 99q38 84 38 272v800h-98v172h394v-172h-98v-765q0 -207 -30 -306q-30 -100 -114 -171q-122 -103 -335 -103q-288 0 -424 171q-46 58 -65 133q-22 88 -22 228v813h-99zM313 1604l208 321h285l209 -321 h-160l-190 190h-2l-190 -190h-160z" />
<glyph unicode="&#xdc;" vert-adv-y="2505" d="M21 1308v172h494v-172h-99v-742q0 -245 57 -337q59 -92 208 -92t193 99q38 84 38 272v800h-98v172h394v-172h-98v-765q0 -207 -30 -306q-30 -100 -114 -171q-122 -103 -335 -103q-288 0 -424 171q-46 58 -65 133q-22 88 -22 228v813h-99zM331 1604v222h222v-222h-222z M775 1604v222h222v-222h-222z" />
<glyph unicode="&#xdd;" vert-adv-y="2505" d="M239 0v173h247v477l-379 658h-93v172h543v-172h-95l242 -423l220 423h-103v172h395v-172h-86l-348 -658v-477h246v-173h-789zM507 1604l208 321h285l-320 -321h-173z" />
<glyph unicode="&#xde;" vert-adv-y="2505" d="M37 0v173h198v1135h-198v172h691v-172h-197v-99h140q277 0 401 -94q125 -94 125 -302q0 -241 -162 -379t-443 -138h-61v-123h197v-173h-691zM531 469h37q314 0 314 303q0 148 -63 206t-226 58h-62v-567z" />
<glyph unicode="&#xdf;" vert-adv-y="2505" d="M44 0v173h87v894q0 278 116 407q117 130 367 130q361 0 361 -285q0 -119 -90 -229l-40 -49q-63 -77 -63 -119q0 -31 47 -77l44 -43l120 -107q218 -194 218 -378q0 -153 -103 -247q-103 -95 -279 -95q-94 0 -194 25v284h158l23 -130q23 -7 38 -7q96 0 96 126q0 75 -71 140 l-37 34l-149 137q-153 140 -153 251q0 73 73 200l40 70q62 109 62 189q0 136 -130 136q-93 0 -132 -72q-38 -73 -38 -247v-938h111v-173h-482z" />
<glyph unicode="&#xe0;" vert-adv-y="2505" d="M86 0zM160 773v253q255 84 475 84q231 0 332 -68t101 -229v-640h111v-173h-367l-40 105q-155 -130 -344 -130q-154 0 -248 86q-94 85 -94 225q0 185 153 283q153 97 443 97h90v113q0 92 -41 126q-41 35 -148 35q-127 0 -230 -52l-20 -115h-173zM772 292v226h-45 q-153 0 -246 -59t-93 -156q0 -133 141 -133q128 0 243 122zM632 1283l-321 321h285l209 -321h-173z" />
<glyph unicode="&#xe1;" vert-adv-y="2505" d="M86 0zM160 773v253q255 84 475 84q231 0 332 -68t101 -229v-640h111v-173h-367l-40 105q-155 -130 -344 -130q-154 0 -248 86q-94 85 -94 225q0 185 153 283q153 97 443 97h90v113q0 92 -41 126q-41 35 -148 35q-127 0 -230 -52l-20 -115h-173zM772 292v226h-45 q-153 0 -246 -59t-93 -156q0 -133 141 -133q128 0 243 122zM459 1283l208 321h285l-320 -321h-173z" />
<glyph unicode="&#xe2;" vert-adv-y="2505" d="M86 0zM160 773v253q255 84 475 84q231 0 332 -68t101 -229v-640h111v-173h-367l-40 105q-155 -130 -344 -130q-154 0 -248 86q-94 85 -94 225q0 185 153 283q153 97 443 97h90v113q0 92 -41 126q-41 35 -148 35q-127 0 -230 -52l-20 -115h-173zM772 292v226h-45 q-153 0 -246 -59t-93 -156q0 -133 141 -133q128 0 243 122zM281 1283l208 321h285l209 -321h-160l-190 190h-2l-190 -190h-160z" />
<glyph unicode="&#xe3;" vert-adv-y="2505" d="M86 0zM160 773v253q255 84 475 84q231 0 332 -68t101 -229v-640h111v-173h-367l-40 105q-155 -130 -344 -130q-154 0 -248 86q-94 85 -94 225q0 185 153 283q153 97 443 97h90v113q0 92 -41 126q-41 35 -148 35q-127 0 -230 -52l-20 -115h-173zM772 292v226h-45 q-153 0 -246 -59t-93 -156q0 -133 141 -133q128 0 243 122zM402 1283h-148q3 141 35 213q50 108 165 108q65 0 128 -43l38 -26l12 -8q12 -8 18 -13q56 -46 93 -46q64 0 66 136h148q-3 -141 -35 -213q-50 -108 -165 -108q-62 0 -127 43l-39 26l-11 8l-9 6q-4 3 -9 7 q-63 46 -94 46q-64 0 -66 -136z" />
<glyph unicode="&#xe4;" vert-adv-y="2505" d="M86 0zM160 773v253q255 84 475 84q231 0 332 -68t101 -229v-640h111v-173h-367l-40 105q-155 -130 -344 -130q-154 0 -248 86q-94 85 -94 225q0 185 153 283q153 97 443 97h90v113q0 92 -41 126q-41 35 -148 35q-127 0 -230 -52l-20 -115h-173zM772 292v226h-45 q-153 0 -246 -59t-93 -156q0 -133 141 -133q128 0 243 122zM291 1283v222h222v-222h-222zM735 1283v222h222v-222h-222z" />
<glyph unicode="&#xe5;" vert-adv-y="2505" d="M160 773v253q255 84 475 84q231 0 332 -68t101 -229v-640h111v-173h-367l-40 105q-155 -130 -344 -130q-154 0 -248 86q-94 85 -94 225q0 185 153 283q153 97 443 97h90v113q0 92 -41 126q-41 35 -148 35q-127 0 -230 -52l-20 -115h-173zM772 292v226h-45 q-153 0 -246 -59t-93 -156q0 -133 141 -133q128 0 243 122zM632 1752q98 0 166 -69q69 -68 69 -165q0 -99 -69 -167q-68 -68 -168 -68q-85 0 -149 56q-83 71 -83 178q0 98 69 166q69 69 165 69zM632 1641q-51 0 -87 -36t-36 -87t36 -87q36 -37 86 -37q47 0 81 29 q44 38 44 95q0 51 -36 87t-88 36z" />
<glyph unicode="&#xe6;" vert-adv-y="2505" d="M557 151q-84 -176 -231 -176q-118 0 -197 96q-80 96 -80 243q0 328 342 328h87v131q0 161 -92 161q-39 0 -95 -36l-20 -96h-144v234q169 74 303 74q128 0 218 -114q93 114 214 114q317 0 317 -554v-87h-456q3 -129 41 -195q51 -91 175 -91q110 0 240 55v-202 q-184 -61 -303 -61q-124 0 -215 65q-53 38 -104 111zM478 291v178h-29q-153 0 -153 -144q0 -110 81 -110q54 0 101 76zM725 642h208l-1 25q-7 167 -23 211q-22 61 -64 61q-98 0 -120 -297z" />
<glyph unicode="&#xe7;" vert-adv-y="2505" d="M62 0zM1180 266v-214q-236 -77 -447 -77q-315 0 -493 150q-178 151 -178 415q0 263 184 416q183 154 502 154q208 0 419 -54v-365h-172l-25 203q-111 47 -233 47q-361 0 -361 -370q0 -205 113 -306q104 -93 295 -93q148 0 396 94zM614 0h136l-76 -113q232 -29 232 -156 q0 -69 -72 -116t-177 -47q-81 0 -188 30v91q71 -15 120 -15q119 0 119 61q0 83 -195 83h-20z" />
<glyph unicode="&#xe8;" vert-adv-y="2505" d="M62 0zM1168 254v-203q-242 -76 -470 -76q-300 0 -468 150q-168 149 -168 410q0 258 161 417q160 159 419 159q246 0 381 -150q135 -149 135 -422v-58h-787q15 -89 38 -135q89 -177 346 -177q166 0 413 85zM377 654h481q-2 119 -51 189q-63 91 -178 91q-127 0 -197 -98 q-48 -68 -55 -182zM664 1283l-321 321h285l209 -321h-173z" />
<glyph unicode="&#xe9;" vert-adv-y="2505" d="M62 0zM1168 254v-203q-242 -76 -470 -76q-300 0 -468 150q-168 149 -168 410q0 258 161 417q160 159 419 159q246 0 381 -150q135 -149 135 -422v-58h-787q15 -89 38 -135q89 -177 346 -177q166 0 413 85zM377 654h481q-2 119 -51 189q-63 91 -178 91q-127 0 -197 -98 q-48 -68 -55 -182zM491 1283l208 321h285l-320 -321h-173z" />
<glyph unicode="&#xea;" vert-adv-y="2505" d="M62 0zM1168 254v-203q-242 -76 -470 -76q-300 0 -468 150q-168 149 -168 410q0 258 161 417q160 159 419 159q246 0 381 -150q135 -149 135 -422v-58h-787q15 -89 38 -135q89 -177 346 -177q166 0 413 85zM377 654h481q-2 119 -51 189q-63 91 -178 91q-127 0 -197 -98 q-48 -68 -55 -182zM313 1283l208 321h285l209 -321h-160l-190 190h-2l-190 -190h-160z" />
<glyph unicode="&#xeb;" vert-adv-y="2505" d="M62 0zM1168 254v-203q-242 -76 -470 -76q-300 0 -468 150q-168 149 -168 410q0 258 161 417q160 159 419 159q246 0 381 -150q135 -149 135 -422v-58h-787q15 -89 38 -135q89 -177 346 -177q166 0 413 85zM377 654h481q-2 119 -51 189q-63 91 -178 91q-127 0 -197 -98 q-48 -68 -55 -182zM330 1283v222h222v-222h-222zM774 1283v222h222v-222h-222z" />
<glyph unicode="&#xec;" vert-adv-y="2505" d="M140 0zM140 0v173h370v740h-370v173h666v-913h370v-173h-1036zM633 1283l-321 321h285l209 -321h-173z" />
<glyph unicode="&#xed;" vert-adv-y="2505" d="M140 0zM140 0v173h370v740h-370v173h666v-913h370v-173h-1036zM510 1283l208 321h285l-320 -321h-173z" />
<glyph unicode="&#xee;" vert-adv-y="2505" d="M140 0zM140 0v173h370v740h-370v173h666v-913h370v-173h-1036zM307 1283l208 321h285l209 -321h-160l-190 190h-2l-190 -190h-160z" />
<glyph unicode="&#xef;" vert-adv-y="2505" d="M140 0v173h370v740h-370v173h666v-913h370v-173h-1036zM325 1283v222h222v-222h-222zM769 1283v222h222v-222h-222z" />
<glyph unicode="&#xf0;" vert-adv-y="2505" d="M269 1065l-106 131l186 158q-130 38 -248 39l-32 1v185q244 0 455 -75l215 188l109 -133l-158 -138q204 -119 322 -303q154 -239 154 -524q0 -277 -152 -448t-400 -171q-243 0 -394 153t-151 398q0 237 146 392q145 155 364 155q60 0 141 -18q-66 129 -207 214zM625 889 q-114 0 -184 -99q-70 -100 -70 -266q0 -164 69 -264t184 -100q240 0 240 383q0 346 -239 346z" />
<glyph unicode="&#xf1;" vert-adv-y="2505" d="M37 0zM37 0v173h105v740h-105v173h389v-161q89 100 159 140q81 45 216 45q158 0 225 -85q67 -84 67 -280v-572h105v-173h-518v173h129v472q0 141 -28 189q-28 49 -105 49q-115 0 -250 -172v-538h129v-173h-518zM376 1283h-148q3 141 35 213q50 108 165 108q65 0 128 -43 l38 -26l12 -8q12 -8 18 -13q56 -46 93 -46q64 0 66 136h148q-3 -141 -35 -213q-50 -108 -165 -108q-62 0 -127 43l-39 26l-11 8l-9 6q-4 3 -9 7q-63 46 -94 46q-64 0 -66 -136z" />
<glyph unicode="&#xf2;" vert-adv-y="2505" d="M62 0zM615 1110q243 0 398 -158t155 -409q0 -253 -155 -410q-156 -158 -405 -158q-216 0 -362 130q-184 164 -184 438q0 251 154 409q155 158 399 158zM615 938q-112 0 -178 -107q-67 -108 -67 -287q0 -180 66 -288q67 -108 180 -108q243 0 243 394q0 183 -67 289 q-66 107 -177 107zM615 1283l-321 321h285l209 -321h-173z" />
<glyph unicode="&#xf3;" vert-adv-y="2505" d="M62 0zM615 1110q243 0 398 -158t155 -409q0 -253 -155 -410q-156 -158 -405 -158q-216 0 -362 130q-184 164 -184 438q0 251 154 409q155 158 399 158zM615 938q-112 0 -178 -107q-67 -108 -67 -287q0 -180 66 -288q67 -108 180 -108q243 0 243 394q0 183 -67 289 q-66 107 -177 107zM442 1283l208 321h285l-320 -321h-173z" />
<glyph unicode="&#xf4;" vert-adv-y="2505" d="M62 0zM615 1110q243 0 398 -158t155 -409q0 -253 -155 -410q-156 -158 -405 -158q-216 0 -362 130q-184 164 -184 438q0 251 154 409q155 158 399 158zM615 938q-112 0 -178 -107q-67 -108 -67 -287q0 -180 66 -288q67 -108 180 -108q243 0 243 394q0 183 -67 289 q-66 107 -177 107zM264 1283l208 321h285l209 -321h-160l-190 190h-2l-190 -190h-160z" />
<glyph unicode="&#xf5;" vert-adv-y="2505" d="M62 0zM615 1110q243 0 398 -158t155 -409q0 -253 -155 -410q-156 -158 -405 -158q-216 0 -362 130q-184 164 -184 438q0 251 154 409q155 158 399 158zM615 938q-112 0 -178 -107q-67 -108 -67 -287q0 -180 66 -288q67 -108 180 -108q243 0 243 394q0 183 -67 289 q-66 107 -177 107zM411 1283h-148q3 141 35 213q50 108 165 108q65 0 128 -43l38 -26l12 -8q12 -8 18 -13q56 -46 93 -46q64 0 66 136h148q-3 -141 -35 -213q-50 -108 -165 -108q-62 0 -127 43l-39 26l-11 8l-9 6q-4 3 -9 7q-63 46 -94 46q-64 0 -66 -136z" />
<glyph unicode="&#xf6;" vert-adv-y="2505" d="M62 0zM615 1110q243 0 398 -158t155 -409q0 -253 -155 -410q-156 -158 -405 -158q-216 0 -362 130q-184 164 -184 438q0 251 154 409q155 158 399 158zM615 938q-112 0 -178 -107q-67 -108 -67 -287q0 -180 66 -288q67 -108 180 -108q243 0 243 394q0 183 -67 289 q-66 107 -177 107zM282 1283v222h222v-222h-222zM726 1283v222h222v-222h-222z" />
<glyph unicode="&#xf7;" vert-adv-y="2505" d="M466 0v296h296v-296h-296zM102 518v198h1024v-198h-1024zM466 938v296h296v-296h-296z" />
<glyph unicode="&#xf8;" vert-adv-y="2505" d="M202 147q-140 172 -140 397q0 250 154 408t397 158q162 0 304 -81l76 94h175l-145 -179q145 -170 145 -402q0 -251 -155 -409q-154 -158 -397 -158q-160 0 -310 86l-70 -86h-174zM448 236q70 -88 168 -88q111 0 177 108t66 282q0 87 -21 179zM775 854q-77 84 -161 84 q-111 0 -177 -107q-67 -107 -67 -285q0 -77 19 -167z" />
<glyph unicode="&#xf9;" vert-adv-y="2505" d="M31 0zM31 913v173h389v-646q0 -139 28 -189q28 -49 105 -49q116 0 250 172v539h-129v173h413v-913h105v-173h-389v160q-90 -100 -159 -140q-81 -45 -216 -45q-158 0 -225 85t-67 281v572h-105zM612 1283l-321 321h285l209 -321h-173z" />
<glyph unicode="&#xfa;" vert-adv-y="2505" d="M31 0zM31 913v173h389v-646q0 -139 28 -189q28 -49 105 -49q116 0 250 172v539h-129v173h413v-913h105v-173h-389v160q-90 -100 -159 -140q-81 -45 -216 -45q-158 0 -225 85t-67 281v572h-105zM439 1283l208 321h285l-320 -321h-173z" />
<glyph unicode="&#xfb;" vert-adv-y="2505" d="M31 0zM31 913v173h389v-646q0 -139 28 -189q28 -49 105 -49q116 0 250 172v539h-129v173h413v-913h105v-173h-389v160q-90 -100 -159 -140q-81 -45 -216 -45q-158 0 -225 85t-67 281v572h-105zM260 1283l208 321h285l209 -321h-160l-190 190h-2l-190 -190h-160z" />
<glyph unicode="&#xfc;" vert-adv-y="2505" d="M31 0zM31 913v173h389v-646q0 -139 28 -189q28 -49 105 -49q116 0 250 172v539h-129v173h413v-913h105v-173h-389v160q-90 -100 -159 -140q-81 -45 -216 -45q-158 0 -225 85t-67 281v572h-105zM278 1283v222h222v-222h-222zM722 1283v222h222v-222h-222z" />
<glyph unicode="&#xfd;" vert-adv-y="2505" d="M12 0zM503 33l-390 880h-101v173h584v-173h-148l230 -517l238 517h-147v173h447v-173h-102l-527 -1135h201v-173h-683v173h197zM505 1283l208 321h285l-320 -321h-173z" />
<glyph unicode="&#xfe;" vert-adv-y="2505" d="M37 1406v173h395v-654q148 185 341 185q180 0 287 -143t107 -388q0 -288 -138 -446t-392 -158q-92 0 -205 25v-222h123v-173h-518v173h98v1628h-98zM432 203l27 -7q82 -21 151 -21q261 0 261 371q0 337 -198 337q-125 0 -241 -171v-509z" />
<glyph unicode="&#xff;" vert-adv-y="2505" d="M12 0zM503 33l-390 880h-101v173h584v-173h-148l230 -517l238 517h-147v173h447v-173h-102l-527 -1135h201v-173h-683v173h197zM345 1283v222h222v-222h-222zM789 1283v222h222v-222h-222z" />
<glyph unicode="&#x131;" vert-adv-y="2505" d="M140 0v173h370v740h-370v173h666v-913h370v-173h-1036z" />
<glyph unicode="&#x152;" vert-adv-y="2505" d="M572 0v34q-84 -71 -174 -71q-211 0 -305 256q-69 189 -69 512q0 786 377 786q98 0 171 -70v33h589v-345h-144v173h-210v-481h113v123h144v-420h-144v124h-113v-469h246v173h144v-358h-625zM572 490v524q0 188 -28 259q-29 72 -104 72q-105 0 -130 -159q-20 -135 -20 -451 q0 -363 29 -482q28 -117 119 -117t115 106q19 82 19 248z" />
<glyph unicode="&#x153;" vert-adv-y="2505" d="M644 85q-92 -110 -235 -110q-178 0 -277 149q-99 150 -99 419q0 268 99 418q99 149 273 149q138 0 258 -125q85 125 216 125q301 0 301 -576v-65h-416q12 -111 43 -170q57 -107 182 -107q89 0 191 59v-207q-122 -69 -253 -69q-159 0 -283 110zM514 428v229q0 281 -99 281 q-116 0 -116 -401q0 -389 116 -389q99 0 99 280zM764 642h175q-2 191 -29 254q-20 45 -51 45q-95 0 -95 -272v-27z" />
<glyph unicode="&#x178;" vert-adv-y="2505" d="M239 0v173h247v477l-379 658h-93v172h543v-172h-95l242 -423l220 423h-103v172h395v-172h-86l-348 -658v-477h246v-173h-789zM346 1604v222h222v-222h-222zM790 1604v222h222v-222h-222z" />
<glyph unicode="&#x2c6;" vert-adv-y="2505" d="M264 1283l208 321h285l209 -321h-160l-190 190h-2l-190 -190h-160z" />
<glyph unicode="&#x2dc;" vert-adv-y="2505" d="M411 1283h-148q3 141 35 213q50 108 165 108q65 0 128 -43l38 -26l12 -8q12 -8 18 -13q56 -46 93 -46q64 0 66 136h148q-3 -141 -35 -213q-50 -108 -165 -108q-62 0 -127 43l-39 26l-11 8l-9 6q-4 3 -9 7q-63 46 -94 46q-64 0 -66 -136z" />
<glyph unicode="&#x2000;" horiz-adv-x="975" vert-adv-y="0" />
<glyph unicode="&#x2001;" horiz-adv-x="1950" vert-adv-y="0" />
<glyph unicode="&#x2002;" horiz-adv-x="975" vert-adv-y="0" />
<glyph unicode="&#x2003;" horiz-adv-x="1950" vert-adv-y="0" />
<glyph unicode="&#x2004;" horiz-adv-x="650" vert-adv-y="0" />
<glyph unicode="&#x2005;" horiz-adv-x="487" vert-adv-y="0" />
<glyph unicode="&#x2006;" horiz-adv-x="325" vert-adv-y="0" />
<glyph unicode="&#x2007;" horiz-adv-x="325" vert-adv-y="0" />
<glyph unicode="&#x2008;" horiz-adv-x="243" vert-adv-y="0" />
<glyph unicode="&#x2009;" horiz-adv-x="390" vert-adv-y="0" />
<glyph unicode="&#x200a;" horiz-adv-x="108" vert-adv-y="0" />
<glyph unicode="&#x2010;" vert-adv-y="2505" d="M148 518v198h933v-198h-933z" />
<glyph unicode="&#x2011;" vert-adv-y="2505" d="M148 518v198h933v-198h-933z" />
<glyph unicode="&#x2012;" vert-adv-y="2505" d="M148 518v198h933v-198h-933z" />
<glyph unicode="&#x2013;" vert-adv-y="2505" d="M121 531v148h987v-148h-987z" />
<glyph unicode="&#x2014;" vert-adv-y="2505" d="M0 531v148h1229v-148h-1229z" />
<glyph unicode="&#x2018;" vert-adv-y="2505" d="M787 1283v-345h-345v266q0 204 74 290q74 85 251 85h20v-123h-14q-78 0 -99 -52q-18 -39 -22 -121h135z" />
<glyph unicode="&#x2019;" vert-adv-y="2505" d="M442 1234v345h345v-266q0 -235 -97 -313q-75 -63 -228 -63l-20 1v123h14q77 0 99 52q18 39 23 121h-136z" />
<glyph unicode="&#x201a;" horiz-adv-x="1338" vert-adv-y="2505" d="M513 0v345h345v-266q0 -204 -74 -290q-74 -85 -251 -85h-20v123h14q77 0 100 53q17 39 22 120h-136z" />
<glyph unicode="&#x201c;" vert-adv-y="2505" d="M491 1283v-296h-296v269q1 322 275 323h21v-111l-19 1q-104 0 -105 -147l1 -39h123zM1034 1283v-296h-296v269q1 322 275 323h21v-111l-19 1q-106 0 -106 -147l2 -39h123z" />
<glyph unicode="&#x201d;" vert-adv-y="2505" d="M195 1283v296h296v-269q-1 -322 -275 -323h-21v111h19q104 1 105 146l-1 39h-123zM738 1283v296h296v-269q-1 -322 -275 -323h-21v111h19q104 1 105 146l-1 39h-123z" />
<glyph unicode="&#x201e;" horiz-adv-x="1338" vert-adv-y="2505" d="M312 0v296h296v-269q-1 -322 -275 -323h-21v111l19 -1q104 0 105 147l-1 39h-123zM855 0v296h296v-269q-1 -322 -275 -323h-21v111l19 -1q104 0 105 147l-1 39h-123z" />
<glyph unicode="&#x2022;" vert-adv-y="2505" d="M616 1123q114 0 196 -82q81 -81 81 -198q0 -115 -82 -195q-83 -81 -200 -81q-100 0 -176 66q-98 87 -98 212q0 115 82 196q82 82 197 82z" />
<glyph unicode="&#x2026;" vert-adv-y="2505" d="M81 0v247h247v-247h-247zM491 0v247h246v-247h-246zM900 0v247h247v-247h-247z" />
<glyph unicode="&#x202f;" horiz-adv-x="390" vert-adv-y="0" />
<glyph unicode="&#x2039;" vert-adv-y="2505" d="M939 841l-296 -297l294 -294l-111 -137l-555 430l559 432z" />
<glyph unicode="&#x203a;" vert-adv-y="2505" d="M289 247l296 297l-294 294l112 137l554 -430l-558 -432z" />
<glyph unicode="&#x205f;" horiz-adv-x="487" vert-adv-y="0" />
<glyph unicode="&#x20ac;" vert-adv-y="2505" d="M25 493l62 149h71q-5 70 -5 100q0 42 6 122h-134l62 148h101q47 141 93 213q186 293 585 293q144 0 314 -41v-204q-199 72 -310 72q-170 0 -282 -117q-77 -80 -110 -216h603l-61 -148h-564q-7 -94 -8 -167l1 -55h479l-62 -149h-393q38 -141 127 -224q117 -109 278 -109 q120 0 302 85v-216q-188 -66 -353 -66q-494 0 -644 530h-158z" />
<glyph unicode="&#x2122;" vert-adv-y="2505" d="M135 740v99h74v543h-74v-99h-86v197h456v-197h-86v99h-74v-543h74v-99h-284zM542 740v99h54v543h-54v98h242l85 -418l81 418h243v-98h-56v-543h56v-99h-186v616l-106 -566h-93l-114 559v-609h-152z" />
<glyph unicode="&#xe000;" horiz-adv-x="1085" vert-adv-y="2170" d="M0 1085h1085v-1085h-1085v1085z" />
<glyph unicode="&#xfb01;" vert-adv-y="2505" d="M37 0v173h105v715h-105v173h105v131q0 193 109 302q110 110 301 110q100 0 196 -36v-285h-173l-24 136q-15 10 -30 10q-95 0 -95 -201v-167h667v-888h105v-173h-493v173h105v715h-384v-715h105v-173h-494zM847 1283v296h246v-296h-246z" />
<glyph unicode="&#xfb02;" vert-adv-y="2505" d="M37 0v173h105v715h-105v173h105v119q0 424 401 424l277 -25h273v-1406h105v-173h-493v173h105v1174q-152 80 -231 80q-153 0 -153 -212v-154h271v-173h-271v-715h105v-173h-494z" />
<glyph vert-adv-y="2505" d="M0 0z" />
</font>
</defs>
</svg>
