<?xml version="1.0" standalone="no"?>
<!DOCTYPE svg PUBLIC "-//W3C//DTD SVG 1.1//EN" "http://www.w3.org/Graphics/SVG/1.1/DTD/svg11.dtd" >
<svg xmlns="http://www.w3.org/2000/svg">
<metadata></metadata>
<defs>
<font id="teutonic_no1demibold" horiz-adv-x="541" >
<font-face units-per-em="1000" ascent="800" descent="-200" />
<missing-glyph horiz-adv-x="361" />
<glyph horiz-adv-x="1000" />
<glyph horiz-adv-x="1000" />
<glyph unicode="&#xd;" horiz-adv-x="1000" />
<glyph unicode=" "  horiz-adv-x="361" />
<glyph unicode="&#x09;" horiz-adv-x="361" />
<glyph unicode="&#xa0;" horiz-adv-x="361" />
<glyph unicode="!" horiz-adv-x="330" d="M11 47q0 -15 5.5 -24t14.5 -14t20 -7t23 -2h27q33 17 33 52q0 26 -15.5 38t-41.5 12t-46 -14t-20 -41zM24 167q1 -4 6.5 -14.5t11.5 -10.5h2q4 2 4 4q15 21 26.5 33.5t23.5 21.5t26 18.5t34 24.5v6q0 3 -5 8.5t-11.5 13t-12.5 16t-8 17.5q0 10 -0.5 36.5t-1 56t-1 56 t-0.5 37.5v68v61q0 28 0.5 54.5t8 47t25 33t51.5 12.5q5 0 15.5 -0.5t20.5 -3t17.5 -7t7.5 -13.5v-5q-13 0 -27.5 -2.5t-26.5 -8.5t-20 -16.5t-8 -26.5q0 -67 63 -67q27 0 49.5 14.5t22.5 45.5q0 51 -33 80.5t-84 29.5q-38 0 -67.5 -13.5t-50.5 -36.5t-34 -54t-19 -66 q0 -14 -0.5 -42.5t-1.5 -64.5t-2 -76t-2 -76t-2 -64.5t-1 -41.5v-2v-3q0 -1 2 -7.5t2 -7.5q0 -4 0.5 -13t0.5 -20q0 -10 -0.5 -19.5t-0.5 -12.5z" />
<glyph unicode="&#x22;" horiz-adv-x="313" d="M12 551v-3l4 -3h2q7 0 19 10t25 22.5t23.5 25.5t15.5 19q1 1 6 6.5t10.5 11.5t10 11.5t5.5 7.5q5 7 7 15.5t2 17.5q0 26 -18 45t-35 35h-3q-6 0 -17 -9.5t-22.5 -22.5t-19.5 -27t-8 -23q0 -8 6 -15.5t12.5 -16.5t12.5 -20.5t6 -25.5q0 -9 -7 -17t-15 -15.5t-15 -14.5 t-7 -14zM169 554l1 -1q0 -1 1.5 -2t2.5 -3h2q7 0 19.5 10t25 23.5t23 26t15.5 18.5q1 1 6 6.5t10.5 11.5t10.5 11.5t6 6.5q5 8 6.5 17t1.5 18q0 13 -5 24t-13 20.5t-17.5 18t-17.5 15.5q-1 0 -1.5 0.5l-0.5 0.5q-7 0 -18 -9t-22 -22t-19 -27t-8 -23q0 -8 6 -16t12.5 -17 t12.5 -20t6 -25q0 -10 -7 -18t-16 -15.5t-16 -14.5t-7 -15z" />
<glyph unicode="'" horiz-adv-x="155" d="M12 553v-2l4 -4h2q7 0 19 10t24.5 22.5t23.5 25.5t16 19q1 1 6 6.5t10.5 11.5t10 11t5.5 7q5 8 7 17t2 18q0 12 -5.5 23t-13.5 21t-17 18.5t-17 15.5h-3q-6 0 -17 -9t-22.5 -22t-19.5 -26.5t-8 -23.5q0 -8 6 -15.5t12.5 -16.5t12.5 -20t6 -26q0 -9 -7 -17t-15 -15 t-15 -14t-7 -15z" />
<glyph unicode="," horiz-adv-x="155" d="M12 -112v-2l4 -4h2q7 0 19 10t24.5 23t23.5 25.5t16 18.5q1 1 6 6.5t10.5 11.5t10 11.5t5.5 6.5q5 8 7 17t2 18q0 13 -5.5 24t-13.5 20.5t-17 18t-17 15.5h-3q-6 0 -17 -9t-22.5 -21.5t-19.5 -26.5t-8 -23q0 -8 6 -16t12.5 -17t12.5 -20t6 -25q0 -10 -7 -18t-15 -15 t-15 -14t-7 -15z" />
<glyph unicode="-" d="M296 346q22 -7 45.5 -10t47 -4.5t47 -2.5t46.5 -4h3q4 0 7 6t4.5 13.5l3 15t3.5 10.5q5 8 14 11.5t11 13.5h-5q-67 0 -134 -11t-135 -11h-23q-14 0 -16 1q-7 1 -24 3t-36.5 4.5t-36.5 4.5t-24 4q-5 2 -19 6.5t-19 5.5h-2q-5 0 -6.5 -3.5t-2 -8.5t-0.5 -10q0 -4 -1 -6 q-1 -7 -6.5 -11.5t-11.5 -8.5t-10.5 -9t-4.5 -13q18 0 34.5 7t36.5 7h214z" />
<glyph unicode="." horiz-adv-x="146" d="M11 46q0 -14 5.5 -23t14.5 -14t20 -7t23 -2h27q32 18 32 52q0 26 -15 37.5t-41 11.5t-46 -13.5t-20 -41.5z" />
<glyph unicode="0" horiz-adv-x="505" d="M12 295q0 -47 18 -98.5t49.5 -94.5t75.5 -70.5t97 -27.5t94.5 28t75.5 65q3 8 7.5 12.5t9.5 11.5q21 34 37 74t16 79v2q-1 1 -2.5 4t-2.5 4q2 40 -3 70.5t-17 57t-31 52t-46 56.5q-17 10 -31.5 20t-29.5 18.5t-32 13.5t-37 5q-48 0 -85 -19.5t-73 -49.5l-2.5 -5t-2.5 -4 t-5 -6.5t-9 -11.5t-9.5 -11.5t-5.5 -6.5q-23 -38 -39.5 -80.5t-16.5 -87.5zM125 328q0 43 0.5 84.5t12.5 73.5t39.5 51.5t81.5 19.5q28 0 48.5 -11t34 -29.5t21 -42t10.5 -48.5q3 -41 6 -85t3 -88v-21q-1 -6 -2 -22t-2 -33.5t-2.5 -33.5t-2.5 -22q0 -2 -1.5 -7.5t-1.5 -7.5 q-3 -22 -14.5 -37.5t-27.5 -25.5t-35.5 -15t-39.5 -5q-35 0 -58.5 17t-37.5 43.5t-21 60.5t-9.5 67.5t-2 64.5t0.5 52z" />
<glyph unicode="1" horiz-adv-x="403" d="M29 11l44 -4h15q14 0 31 -0.5t34 -0.5h26h38t47.5 0.5t42.5 0.5h22t11 0.5t17 1t17 1.5t11 1q4 2 5 5.5t1 7.5h-115q-17 0 -22 11t-7 25q3 122 -1 243.5t-2 243.5q-2 1 -3 2.5t-2 1.5h-1h-3h-5q-4 0 -9.5 -0.5t-10.5 -2t-7 -4.5q0 -2 -2 -6t-4 -9t-4 -9t-2 -5 q-6 -12 -11 -19.5t-10 -13.5t-11.5 -12.5t-16.5 -15.5q-26 -24 -56 -35t-62 -22q-13 -4 -13 -14q20 0 40.5 4.5t37.5 9.5q19 5 27 11t22 6q8 0 12 -3t4 -14v-375h-125v-11z" />
<glyph unicode="2" horiz-adv-x="473" d="M108 94q15 0 31.5 -9t33 -21t32 -24.5t27.5 -19.5q4 -2 10.5 -5.5t13 -6.5t11.5 -5.5l5 -2.5h82q4 0 15 5.5l13 6.5q24 13 39 33t24 43.5t12.5 49t3.5 50.5q-8 0 -9.5 -16.5t-6 -36.5t-16 -36.5t-39.5 -16.5q-26 0 -51 12t-51 20q-29 9 -57.5 13t-58.5 4q-27 0 -46.5 -6 t-43.5 -16h-5q-3 0 -5 0.5t-4 4.5q25 37 63 57.5t80.5 34.5t85.5 25t77 29t55.5 47t21.5 79v24q-9 17 -15 34t-17 31q-43 49 -93.5 65.5t-113.5 16.5q-26 0 -46.5 -2.5t-38.5 -9t-35 -17.5t-36 -28q-18 -17 -31 -38t-13 -47q0 -18 4.5 -36t13.5 -32.5t23.5 -24t34.5 -9.5 q30 0 50 17t20 49q0 21 -13.5 40.5t-36.5 19.5q-14 0 -28 -4t-27 -4q-9 0 -9 11q0 20 15.5 38t37 31.5t45 21.5t40.5 8q34 0 62.5 -11t49 -30.5t32 -47t11.5 -61.5q0 -40 -21 -72t-52 -55q-10 -8 -18 -11.5t-16 -6.5t-17 -5.5t-19 -8.5q-32 -18 -63 -40.5t-56.5 -50t-41 -61 t-15.5 -72.5h11q3 16 8.5 31.5t14.5 27.5t22.5 19.5t33.5 7.5z" />
<glyph unicode="3" horiz-adv-x="476" d="M12 134q0 -43 24 -70.5t59.5 -43t76.5 -21.5t74 -6h42q1 1 4 2t4 1q2 1 8.5 3t14 4t14 4t8.5 3q25 7 47 22t38.5 34.5t26.5 44t10 51.5q0 28 -13 49.5t-33.5 37.5t-45 27.5t-46.5 21.5q-1 0 -2 1.5t-3 1.5v3q0 4 18 11t39 20t39 33.5t18 52.5q0 27 -12.5 50t-32 41 t-44.5 31t-49 19q-18 5 -41 4.5t-40 -0.5q-29 0 -62 -8t-61 -24.5t-46 -42t-18 -60.5q0 -27 19.5 -48t46.5 -21q32 0 52.5 13.5t20.5 46.5q0 23 -13.5 43t-39.5 20q-10 0 -19 -2.5t-18 -2.5t-9 6q0 16 18 28t42 20t47 12t34 4q69 0 94.5 -36t25.5 -104q0 -12 -3 -29 t-10.5 -32t-19 -25.5t-28.5 -10.5h-130q-10 0 -21 -6t-11 -18q0 -25 26 -25q19 0 34.5 9t32.5 13q27 3 54 3q7 0 18.5 -1.5t23.5 -5t22 -9t15 -13.5q4 -5 10.5 -16l6.5 -11v-106q0 -2 -3 -15.5t-5 -21.5q-7 -24 -16.5 -39.5t-23 -23.5t-31 -11t-41.5 -3q-42 0 -81 8t-71 37 q-1 1 -8.5 8t-7.5 12q0 2 1.5 4t2.5 2h44q1 0 7 5.5t10 8.5q15 15 22 25t7 31q0 32 -19.5 45t-49.5 13q-32 0 -53 -23t-21 -55z" />
<glyph unicode="4" horiz-adv-x="526" d="M269 46q0 -4 -0.5 -11t-8.5 -7h-114q-9 0 -15 -7t-6 -15q95 0 189.5 1t189.5 4q6 -1 8.5 6t2.5 11h-23q-7 0 -23 0.5t-34 1t-34.5 1t-22.5 0.5q-8 5 -10 16t-2 17v102l1 3t3 5q1 1 2 3.5l1 2.5h126l13 6v37h-130q-6 0 -9.5 4.5t-6 10.5t-3.5 12t-2 9q0 9 0.5 31.5 t0.5 47.5q0 26 -0.5 48.5t-0.5 31.5q0 19 -0.5 49t-1 58.5t-1 49t-0.5 21.5l-4 17h-34q-1 -4 -7 -15t-8 -14q-3 -4 -11.5 -14t-17.5 -22t-17 -22.5t-12 -14.5l-3 -8q-36 -44 -67.5 -89.5t-67.5 -89.5q-5 -6 -21 -27.5t-33 -45.5t-30 -44.5t-13 -24.5q0 -2 0.5 -5t3.5 -3h244 l4 -5l0.5 -12.5t1.5 -30t1.5 -36t0.5 -30.5q0 -1 0.5 -6.5t0.5 -7.5zM60 229l1 1l133 184q8 22 24.5 40.5t33.5 32.5q5 -2 6 -10t2 -10q5 -43 5 -84v-84v-19t-0.5 -23t-0.5 -20v-10l-4 -4l-13.5 -0.5t-32.5 -1.5t-39 -1.5t-33 -1.5h-30q-2 0 -10.5 -0.5t-17.5 0.5t-16.5 3 t-7.5 8z" />
<glyph unicode="5" horiz-adv-x="452" d="M12 126q0 -32 16.5 -56t42 -40.5t55.5 -25t58 -8.5q50 0 96 14.5t81.5 42t56.5 69t21 95.5q0 45 -21 78t-54 54t-73.5 31.5t-79.5 10.5q-20 0 -39.5 -2.5t-37.5 -10.5q-15 -6 -31 -19t-32 -13h-6q0 4 -1 16t-1.5 24.5t-1 24t-0.5 16.5v7q0 5 0.5 8t6.5 6q5 1 19 2t19 1 q7 0 23.5 0.5t34.5 0.5q19 0 35.5 -0.5t23.5 -0.5q23 2 47.5 17.5t45 38t33.5 48.5t13 50q-7 0 -17 -8l-22.5 -18t-26.5 -18t-28 -8h-122q-19 5 -42.5 8.5t-43.5 3.5h-7q-5 0 -5 -3v-252q-5 -13 -6.5 -21t-1.5 -19q0 -5 1 -11.5t9 -6.5h3q1 1 4 2.5t4 2.5q2 60 40.5 88.5 t95.5 28.5q14 0 26.5 -3.5t23.5 -8.5q21 -8 34 -18.5t21 -24.5t12.5 -31t10.5 -36q0 -1 1.5 -3.5t2.5 -3.5v-106q0 -20 -10 -42.5t-26 -41t-37 -30.5t-42 -12q-28 0 -50 2t-40.5 8t-35.5 18t-35 32l3 5q19 -4 36 -1t30 12t21 23.5t8 32.5q0 26 -15 42.5t-41 16.5 q-35 0 -59 -20.5t-24 -57.5z" />
<glyph unicode="6" horiz-adv-x="476" d="M12 271q0 -13 3 -27.5t5 -27.5q10 -48 29 -88t47.5 -69.5t67.5 -46t89 -16.5q41 0 79 14.5t67 40.5t46.5 62t17.5 79q0 38 -17.5 67.5t-45.5 49.5t-63 30.5t-69 10.5q-35 0 -71 -12.5t-59 -41.5l-8 9v13q0 33 -0.5 72.5t4.5 72.5q3 24 15.5 42t30 29.5t39 17t43.5 5.5 q9 0 25.5 -3t33 -8.5t28.5 -14.5t12 -21v-2q0 -2 -1.5 -3l-1.5 -1q-2 0 -9 2t-8 2l-3.5 0.5t-5.5 0.5q-12 0 -25.5 -4t-25 -11.5t-18.5 -19t-7 -25.5q0 -11 5.5 -22.5t14 -20.5t19.5 -14.5t22 -5.5q46 0 65.5 20.5t19.5 65.5q0 28 -12.5 47.5t-32.5 31.5t-45 17.5t-49 5.5 q-58 0 -104.5 -27t-79 -70.5t-50 -97.5t-17.5 -108zM130 181q0 33 3 60.5t15 47t35.5 30.5t63.5 11q32 0 52 -15.5t31 -39.5t15 -52.5t4 -53.5q0 -32 -1.5 -60t-11 -50t-29.5 -34.5t-57 -12.5q-41 0 -64.5 13.5t-36 37t-16 54t-3.5 64.5z" />
<glyph unicode="7" horiz-adv-x="403" d="M97 96q0 -15 2 -33.5t8.5 -34t18 -26t30.5 -10.5q33 0 50 23t17 55q0 20 -2.5 39.5t-2.5 40.5q0 32 7.5 58t20.5 49.5t29 46t33 46.5q35 51 59 109t24 121q-10 0 -13 -12t-8.5 -26t-17 -26t-38.5 -12q-15 0 -28.5 11t-30 24t-37 24t-48.5 11q-19 0 -38 -8.5t-36 -21.5 t-32.5 -28t-27.5 -28l-1 -1q-1 0 -2 0.5l-1 0.5l-8 8v69h-8l-2 -12.5t-2 -19.5v-46v-30q0 -13 0.5 -26t1 -26.5t2.5 -30.5h2q5 0 6.5 18t7.5 39t21.5 39t48.5 18q23 0 44.5 -15t39.5 -25q13 -8 28.5 -8.5t29.5 -0.5q32 0 57.5 11.5t51.5 33.5q5 -2 5 -8v-4q-2 -4 -8.5 -17.5 t-8.5 -18.5q-15 -29 -36 -50t-44 -39.5t-47 -36.5t-44 -41q-28 -41 -50.5 -82t-22.5 -91z" />
<glyph unicode="8" horiz-adv-x="493" d="M61 49q12 -5 21 -13t20 -16q12 -8 28.5 -15t34.5 -11.5t35.5 -7t32.5 -2.5q48 0 93 11t79 35t54.5 62t20.5 92q0 28 -10 48.5t-27 37t-38.5 29t-43.5 23.5l-7 8q2 5 7 5.5t9 2.5q13 8 26 19t23.5 24t17 28.5t6.5 32.5q0 38 -18.5 65.5t-47.5 45t-63.5 26t-66.5 8.5 q-2 0 -4.5 -0.5l-2.5 -0.5q-2 0 -7.5 -1.5t-11.5 -3t-11.5 -2.5t-6.5 -1q-36 -6 -67.5 -18t-54.5 -32t-36 -49t-13 -70q0 -28 14 -50.5t31 -39t31 -27.5t14 -15q0 -1 -17 -10.5t-38 -27t-38 -42.5t-17 -55q0 -29 14.5 -52t34.5 -41zM68 142q0 42 19.5 68.5t54.5 46.5 q5 2 11 5t11 3q10 0 20.5 -4t21.5 -8.5t21.5 -7t20.5 -0.5q21 -6 50.5 -15t56 -23t45.5 -34t19 -48q0 -35 -18 -58t-45.5 -37t-60 -19.5t-60.5 -5.5q-29 0 -59 9t-54 26.5t-39 43t-15 58.5zM97 448v20q0 30 17.5 49t43 30t55 15t52.5 4q27 0 50 -10.5t39.5 -29t26 -42.5 t9.5 -51q0 -12 -6 -28.5t-16 -31.5t-23 -25.5t-27 -10.5q-2 0 -5 0.5t-5 0.5q-24 6 -51 11.5t-53.5 14t-50 22t-39.5 34.5q-1 1 -4 7.5t-4 8.5q-2 2 -5 6t-4 6z" />
<glyph unicode="9" horiz-adv-x="473" d="M72 108q0 -29 14 -51t36 -36t48.5 -21t52.5 -7q36 0 67 12.5t57.5 34t46.5 49.5t33 59q11 25 22 55t11 59t-0.5 57t-8.5 55q-9 34 -26.5 70t-43 66t-58 49t-71.5 19q-47 0 -90.5 -12t-76.5 -37t-53 -63t-20 -90q0 -40 18 -70t46.5 -50t64.5 -30t71 -10q37 0 66.5 17 t58.5 36l0.5 0.5t2.5 0.5l1 -1q1 0 2 -1.5t3 -2.5v-50q0 -36 -0.5 -69.5t-9.5 -60.5t-31 -46t-65 -26q-1 0 -8 -0.5t-12 -0.5q-26 0 -45.5 7.5t-40.5 22.5q-2 1 -10 9.5t-6 10.5l3 4q11 -4 18.5 -4.5t18.5 -0.5q58 0 58 58q0 36 -23 50.5t-57 14.5h-6q-26 -14 -42 -30 t-16 -46zM128 418q0 3 0.5 11.5t0.5 17.5t0.5 17.5t0.5 11.5q1 27 13 43t29.5 24.5t39 11.5t42.5 3q31 0 49.5 -17t28 -42.5t12 -54t2.5 -50.5q0 -29 -1.5 -52.5t-9.5 -41.5t-24.5 -31.5t-46.5 -23.5q-11 -4 -23.5 -6.5t-23.5 -2.5h-2q-31 11 -48.5 29.5t-26 42.5t-10.5 52 t-2 58z" />
<glyph unicode=":" horiz-adv-x="146" d="M11 46q0 -14 5.5 -23t14.5 -14t20 -7t23 -2h27q32 18 32 52q0 26 -15 37.5t-41 11.5t-46 -13.5t-20 -41.5zM11 396q0 -28 20 -37t43 -9h27q32 18 32 52q0 26 -15 37.5t-41 11.5t-46 -13.5t-20 -41.5z" />
<glyph unicode=";" horiz-adv-x="160" d="M12 -115v-3l4 -3h2q7 0 19 10t25 22.5t23.5 25.5t15.5 19q1 1 6 6.5t10.5 11.5t10 11.5t5.5 7.5q10 16 10 35q0 25 -18.5 44t-35.5 34l-1 1q-7 0 -18.5 -9.5t-23 -22.5t-19.5 -27t-8 -23q0 -8 6 -15.5t12.5 -16.5t12.5 -20t6 -26q0 -10 -7 -18t-15 -15t-15 -14t-7 -15z M24 401q0 -29 19.5 -38.5t44.5 -9.5q2 0 12 0.5t14 0.5q32 18 32 52q0 26 -15.5 38t-41.5 12t-45.5 -14t-19.5 -41z" />
<glyph unicode="?" horiz-adv-x="436" d="M145 47q0 -15 5.5 -24t14.5 -14t20.5 -7t23.5 -2h26q33 16 33 52q0 26 -15.5 38t-41.5 12q-25 0 -45.5 -14t-20.5 -41zM137 224q0 -33 19 -43.5t47 -10.5h29q21 11 32.5 24.5t11.5 39.5v14q0 11 -5 16q-34 16 -68 16q-5 3 -8.5 9.5t-3.5 12.5q0 8 6 13t9 10q27 33 64 62 t71 60.5t57.5 68.5t23.5 88q0 40 -9.5 64t-25.5 41.5t-36.5 34t-42.5 40.5q-2 0 -6 0.5t-6 0.5q-9 0 -20.5 -6.5t-23.5 -15.5t-24 -17.5t-22 -11.5q-1 0 -5.5 -1.5t-10 -2.5t-10.5 -2.5t-6 -1.5q-4 -2 -13.5 -6t-20 -8.5t-19.5 -8.5t-12 -5q-22 -11 -41 -25.5t-39 -26.5 q-2 -2 -9 -5t-8 -4l-0.5 -3.5t-0.5 -5.5q0 -11 7 -20t16 -17t18.5 -16t15.5 -15q3 -1 13 -1h13q14 0 35 8t40.5 21t33.5 30t14 35q-10 0 -16.5 -2t-12.5 -4l-12 -4t-15 -2q-14 0 -21 9t-7 23q0 10 7.5 15.5t18 7.5t21.5 2h19q25 0 47 -10t38.5 -27t26 -40t9.5 -49 q0 -40 -13.5 -71t-34 -58t-44 -51t-44 -49.5t-34 -54.5t-13.5 -64z" />
<glyph unicode="A" horiz-adv-x="871" d="M12 14q0 -18 3 -36.5t14 -33.5q14 -22 40 -39.5t56.5 -29.5t61 -18.5t54.5 -6.5q27 0 54 7.5t52.5 21t47.5 31t39 37.5q13 14 26 32t13 38h-10q-1 -14 -9.5 -26.5t-19.5 -22.5q-33 -35 -64 -55t-77 -34q-3 0 -9.5 -0.5t-13.5 -1t-13.5 -1t-9.5 -0.5q-27 0 -65.5 7 t-74.5 23t-61.5 42t-25.5 64q0 20 11 36t27.5 27t36.5 17t37 6q29 0 54.5 -8t48 -21t43.5 -29.5t42 -34.5q2 -1 5 -1q1 0 5.5 5.5t9.5 12.5t9 13t5 6l126 126v131q0 12 8 19t19 11t23.5 5t20.5 1q14 0 29.5 -1.5t25.5 -14.5q0 -10 1 -35t2 -52.5t2.5 -52.5t1.5 -35 q3 -44 25.5 -73t56.5 -53q9 -7 19.5 -14t21.5 -7t15 9t9 15q1 1 4.5 5.5t8 10t9 10.5t6.5 7l10.5 10.5t10.5 9.5q5 6 13.5 16t16.5 19t13.5 16l5.5 7v8h-5q-2 -2 -6.5 -7t-9.5 -10.5t-9.5 -10t-6.5 -5.5q-5 -4 -10 -4h-12q-14 0 -26.5 10t-21.5 24.5t-14 30.5t-5 29l-8 354 q-2 1 -3 3.5t-2 3.5q0 2 -2.5 10t-5 17t-5 16.5t-3.5 9.5q-13 33 -38 55.5t-56 36.5t-65 20t-66 6q-36 0 -71.5 -4t-71 -8.5t-70.5 -8.5t-71 -4q-18 0 -36.5 1t-35 6.5t-29.5 16t-20 29.5h-6q0 -41 16 -69t42.5 -45t60.5 -24.5t70 -7.5q34 0 67.5 4t66.5 4v-8 q-2 -1 -13.5 -7.5t-28.5 -16.5t-28 -16q-11 -7 -24 -20t-24 -29t-18 -32t-7 -29v-89l5 -9v-122q0 -15 -8 -33.5t-21 -27.5q-43 -12 -81.5 -26.5t-73.5 -46.5q-19 -18 -37.5 -40t-18.5 -52zM256 178q0 6 17 16.5t38 26.5t38 37t17 47v219q0 17 7 33.5t19 29t28 20t34 7.5h1 l8 -8q0 -4 1 -12.5t1.5 -18.5t1 -18.5t0.5 -11.5q2 -68 3.5 -135t1.5 -135v-91q-2 -2 -6.5 -8.5t-5.5 -8.5q-3 -3 -11.5 -11t-17.5 -16t-17 -15.5t-12 -10.5h-1q-5 0 -15.5 9t-15.5 11q-21 13 -35 19.5t-39 13.5q-2 1 -8.5 0.5t-13.5 0.5t-12.5 3t-5.5 7zM480 407q0 8 -1 28 t-1.5 43t-1.5 43.5t-1 28.5v21q0 4 -0.5 11.5t0.5 15t2.5 13t6.5 7.5q2 0 9 0.5t9 0.5q37 0 58 -21.5t38 -52.5l1 -5t2 -7q1 -3 3 -9.5l2 -6.5v-110q0 -7 -12.5 -11t-16.5 -5t-16 -1h-16q-7 0 -16.5 -0.5t-19 0.5t-17.5 5t-12 12z" />
<glyph unicode="B" horiz-adv-x="1038" d="M89 -32q0 -41 20.5 -71t52.5 -50.5t70 -30.5t74 -10q55 0 107.5 17.5t90.5 58.5q8 8 21 21.5t13 28.5h-5q-27 -30 -52.5 -49t-53.5 -30.5t-60 -15.5t-71 -4q-30 0 -64.5 7t-64.5 22.5t-50 40.5t-20 61q0 32 13.5 57t36 42t51 26t58.5 9q37 0 66 -5t53.5 -16t47.5 -30 t49 -46l0.5 -0.5t1.5 -0.5q8 0 15 7t13 16t11.5 18t10.5 13q24 18 46 35.5t48 32.5h2h2q3 -1 4.5 -5t2.5 -8.5t1 -8.5v-5q6 -29 22 -49.5t37.5 -33t48 -18.5t53.5 -6q40 0 82 16.5t75.5 45t55 67t21.5 81.5q0 35 -11 69t-31.5 62t-50.5 48t-67 26q-6 1 -15 1t-12 8l3 3 q1 1 8 4t9 5q21 12 41 25t36.5 29.5t26.5 37.5t10 48q0 17 -2 34.5t-11 32.5q-6 11 -19 23t-26 24.5t-22.5 24.5t-9.5 23q0 9 3.5 13.5t7.5 8.5l7.5 7.5t3.5 10.5q-17 0 -30.5 -6t-27.5 -11q-42 -16 -82 -30t-78 -40q-6 -5 -17.5 -15.5t-24.5 -21.5t-25 -19.5t-18 -8.5 q-2 0 -4 0.5t-4 4.5q-1 2 -5.5 9.5t-10 16.5t-10.5 17t-7 10q-37 48 -91.5 65t-112.5 17q-55 0 -109.5 -11t-108.5 -27q-9 -8 -24 -8h-25q-26 0 -41.5 8.5t-31.5 28.5h-5q0 -19 11.5 -40t29 -38.5t39 -29t41.5 -11.5q51 0 102.5 8.5t103.5 8.5q49 0 83 -19t55 -50t30.5 -72 t9.5 -84v-56q-22 -71 -65.5 -102.5t-119.5 -31.5q-16 0 -38.5 4.5t-43 14t-35 24t-14.5 35.5h64q10 0 18.5 6t14.5 14.5t9.5 18.5t3.5 19q0 26 -22 45t-48 19q-7 0 -19.5 -2.5t-24.5 -8t-20.5 -13.5t-8.5 -18v-64q0 -20 16 -39t39.5 -34t48.5 -24t43 -9q46 0 78 5t58 18 t51 35t56 56q2 2 6 7t7.5 10t7 9.5t3.5 5.5q17 34 25 71t8 75q0 20 -4.5 37.5t-4.5 37.5q0 7 14 23t32 32.5t36 29t26 12.5q1 0 1.5 -0.5l0.5 -0.5q2 0 5 -3q0 -7 0.5 -23.5t1 -35.5t1 -35.5t1.5 -23.5v-14v-15q0 -5 -0.5 -18.5t-1.5 -28t-1.5 -28t-0.5 -18.5q-4 -6 -13 -8 t-20 -3.5l-22 -3t-18 -6.5q-1 -1 -1 -6v-6q0 -13 5.5 -16.5t19.5 -3.5q10 0 20 4t21 4q5 0 8.5 -3.5t3.5 -8.5v-183l-1.5 -2t-2.5 -2q-21 -6 -34.5 -9t-31.5 -15q-5 -4 -17 -13t-25.5 -18.5t-25.5 -18t-17 -11.5q-1 0 -4 -0.5t-5 -0.5q-14 0 -25.5 11t-22.5 17 q-37 23 -74.5 32.5t-79.5 9.5q-4 0 -16.5 -0.5t-16.5 -0.5q-23 -9 -48.5 -14t-48.5 -13q-27 -11 -52.5 -29t-44.5 -42t-30.5 -51.5t-11.5 -57.5zM650 76v2q0 1 2 2.5l2 1.5l2 1l3 -1q15 -7 29 -9.5t32 -2.5q27 0 44 17t17 44q0 15 -7 25.5t-15.5 18.5t-15.5 15t-7 14v187 q0 6 5.5 8.5t12.5 3t14 0.5h11q49 0 75.5 -22t38 -56t13 -74.5t1.5 -77.5q0 -35 -4.5 -67t-18 -56.5t-38.5 -39t-65 -14.5q-14 0 -36.5 6t-43.5 16.5t-36 25.5t-15 32zM736 432q-1 7 -1.5 25.5t-1 39t-1 39t-0.5 26.5v16v16q0 5 0.5 19t1 29.5t1 29.5t1.5 20l3 4q3 1 10 4.5 t14 6.5t13.5 5.5t8.5 3.5q6 2 16 5.5t19.5 7t17 6t8.5 2.5h8q0 -9 -6 -18.5t-13 -20.5t-13 -24.5t-6 -30.5q0 -31 11 -50.5t24.5 -34.5t24.5 -29.5t11 -36.5q0 -20 -11.5 -34t-28.5 -22.5t-36 -12t-35 -3.5q-9 0 -21.5 1.5t-18.5 10.5z" />
<glyph unicode="C" horiz-adv-x="728" d="M77 62q0 -48 16 -87.5t44.5 -69.5t67 -50t83.5 -30h47q37 0 72 4.5t68 24.5q4 3 13 10t19.5 15.5t19.5 16t13 10.5q5 4 14 12.5t18 18t15.5 20.5t6.5 20q-8 0 -8.5 -2t-4.5 -9q-8 -14 -15.5 -20t-21.5 -19t-35 -27t-34 -22q-23 -15 -49 -18t-52 -3q-48 0 -98.5 10 t-92 33.5t-68 62t-26.5 96.5q0 4 0.5 12t3 15.5t6 13.5t9.5 6h1q23 -12 43.5 -28.5t41.5 -29.5q49 -27 109.5 -38t115.5 -11q51 0 92 12.5t75.5 36t64 57.5t56.5 77q2 6 5.5 12t3.5 12h-9q-3 -3 -11.5 -11t-17.5 -17l-17 -17t-12 -11q-6 -8 -18 -14t-21 -6q-2 0 -5.5 0.5 t-3.5 2.5v204q0 5 3.5 8.5t7.5 7t7.5 7.5t3.5 10q0 13 -18 24v28q0 38 4 76t4 77v24t-8 21q-1 2 -5 2h-5q-19 0 -19 -20q0 -51 6.5 -101.5t6.5 -102.5q0 -10 -8.5 -15.5t-8.5 -15.5q0 -8 4 -12.5t13 -10.5v-88q0 -27 0.5 -66t-5.5 -69q-3 -7 -19.5 -11t-37.5 -6t-40 -2.5 t-26 -0.5q-28 0 -63 6t-69.5 17.5t-65 29t-48.5 40.5v3q0 7 9.5 8t14.5 1q38 0 63.5 -14.5t50.5 -41.5h6q20 0 47 20t51.5 47t41.5 56t17 47v74l-2 3t-3 5t-4.5 7t-7 11t-7.5 11t-5 7q-6 5 -19.5 18t-29 28t-29.5 28.5t-19 19.5q-17 17 -31.5 37.5t-14.5 46.5q0 14 4 30 t12.5 29.5t21.5 22.5t30 9h7q13 -15 25 -26t25.5 -18t29 -10.5t35.5 -3.5q23 0 48.5 11.5t46.5 30t35 42.5t14 48v3q0 1 -2 2l-2 1h-2q-4 0 -8.5 -11t-13.5 -23.5t-23.5 -23.5t-36.5 -11q-14 0 -26.5 7t-22.5 18t-17.5 24t-12.5 25h-3l-9.5 -7.5t-14.5 -12.5l-8.5 -8.5 l-4 -4t-4 -3t-9.5 -5.5q-35 -21 -71.5 -37.5t-66.5 -39t-49 -54t-19 -82.5q0 -36 13.5 -63t33 -48.5t43 -39t43 -35t33 -36t13.5 -42.5q0 -5 -2 -17.5t-6 -25.5t-10 -23t-13 -10h-2q-20 14 -39 30t-45 16q-23 0 -42.5 -4.5t-39.5 -12.5q-5 -2 -17 -7t-18 -5h-3 q-23 20 -37.5 47.5t-23 58t-12 62t-3.5 59.5q0 37 7.5 75t23.5 72t41.5 61.5t61.5 43.5q4 1 11.5 3.5t15 5.5t13.5 7t8 9q1 0 1 2v3q-32 0 -62 -12t-57.5 -30.5t-52 -41t-44.5 -44.5q-7 -18 -19.5 -37t-24.5 -39t-20.5 -40.5t-8.5 -41.5v-130q0 -22 7 -46.5t18.5 -48.5 t25 -45.5t26.5 -37.5q0 -2 0.5 -5.5t0.5 -5.5q0 -14 -6.5 -27.5t-6.5 -29.5z" />
<glyph unicode="D" horiz-adv-x="818" d="M12 -10q0 -46 25 -80.5t63 -58t82.5 -35.5t83.5 -12q70 0 126 25.5t108 72.5q7 6 21 19t19 26q1 0 1 4h-8q-16 -17 -37 -37t-45 -37t-50 -28.5t-52 -11.5h-126q-30 0 -65 12t-66 33t-51.5 49.5t-20.5 61.5t13.5 57t36 40t50 24t56.5 8q65 0 121 -22t105 -64q3 -2 7.5 -9 t9.5 -14t10 -12.5t8 -5.5h2q22 23 46.5 45t54.5 33l10.5 3.5t9.5 3.5l18 9t23.5 12t21 10.5t11.5 6.5q78 44 124.5 119t46.5 167v2q-1 1 -2 4t-3 4q3 52 -8 102t-36 93.5t-62.5 78.5t-87.5 56q-18 7 -42 11.5t-49.5 7.5t-49.5 4t-40 1h-18q-5 0 -22 -2t-37.5 -4t-38 -4 t-21.5 -2q-8 -1 -17.5 0t-18.5 1t-17.5 -1.5t-14.5 -7.5q-5 -1 -16 -2t-23 -2.5t-23.5 -3t-15.5 -1.5h-22q-29 0 -51.5 12t-36.5 37h-9q0 -42 17.5 -69.5t45.5 -43.5t63.5 -22.5t70.5 -6.5h3q2 1 6.5 2t5.5 2q10 0 35 0.5t53 1.5t52.5 1.5t34.5 0.5h28q70 0 118.5 -20.5 t78.5 -58t43 -90.5t13 -118q0 -72 -20.5 -134.5t-72.5 -111.5q-13 -11 -30 -21.5t-35 -10.5h-5q-27 29 -52 49.5t-52.5 34t-59.5 20t-74 6.5q-37 0 -79 -9.5t-80.5 -28t-69.5 -47t-45 -66.5q-3 -9 -3.5 -28t-0.5 -30zM293 226q0 -8 7 -8q27 0 52.5 16.5t46 41.5t32.5 54.5 t12 54.5q0 26 -7 45t-18.5 34.5t-27 30.5t-32.5 33q-2 2 -5.5 6.5t-3.5 5.5v49q0 5 3.5 8.5l7.5 7.5t7.5 8t3.5 10q-19 0 -37.5 -16.5t-33 -40t-23.5 -48.5t-9 -43q0 -34 14.5 -56t32.5 -40t32.5 -34.5t14.5 -38.5q0 -21 -11 -35t-23.5 -23t-23.5 -14t-11 -8z" />
<glyph unicode="E" horiz-adv-x="752" d="M73 73q0 -59 24.5 -104t64.5 -75.5t91.5 -46.5t104.5 -16q38 0 72.5 11.5t64 31.5t54.5 47.5t44 59.5q5 9 11 20.5t6 21.5q-12 0 -12 -5q0 -4 -5 -13l-7 -10.5l-11 -16.5t-11 -17.5t-8 -12.5q-14 -20 -31 -32t-36 -20t-39 -14.5t-40 -14.5h-55q-48 0 -96 11t-86.5 35 t-63 63t-24.5 95q0 4 0.5 11.5t2 14.5t4.5 12.5t9 5.5h5q26 -30 60.5 -52t73 -36.5t79 -21.5t79.5 -7q46 0 90.5 10t84 30.5t72.5 50.5t57 71q14 23 26 48t12 52q-7 0 -10 -3.5t-4.5 -8.5t-2.5 -10t-4 -9q-1 -1 -5 -5.5t-9.5 -10.5t-10.5 -12t-8 -9q-6 -7 -15 -16 t-19.5 -17.5t-22 -14t-21.5 -5.5q-6 0 -7 5q0 5 -0.5 19t-1.5 29.5t-1.5 29.5t-1.5 19v25v23q0 4 0.5 14t1.5 21t2 21t1 14q2 5 9.5 9t17.5 8.5t20 10.5t18 16q1 1 2.5 4t1.5 5v52q0 13 -11 24t-23.5 19.5t-23.5 14.5t-11 11l-8 102h-3h-2l-4 -4v-98q0 -5 -9 -8.5 t-20.5 -7.5t-22.5 -8t-16 -9q-11 -9 -19 -17.5t-15 -22.5h-12q-15 16 -35.5 32.5t-40 35t-33 39.5t-13.5 46q0 21 9 37t25 29q4 4 13 11.5t15.5 12t7.5 5.5h12q25 -28 47.5 -43t60.5 -15q15 0 25.5 0.5t24.5 8.5q9 5 24.5 18t30.5 29.5t25.5 34t10.5 29.5q-9 0 -15 -7 t-11.5 -16t-11.5 -16t-16 -7h-53q-5 0 -13.5 8t-18 18t-17.5 20l-12 15h-3q-6 0 -12 -4t-11.5 -9t-10 -9.5t-7.5 -6.5q-30 -21 -66 -40t-66.5 -42.5t-51 -54t-20.5 -74.5q0 -38 16 -68.5t40 -57t52 -50t51 -47.5q8 -11 12 -24.5t4 -26.5q0 -8 -2.5 -19.5t-7.5 -22t-12.5 -18 t-18.5 -7.5h-3q-2 1 -8.5 6.5t-7.5 5.5q-3 1 -8.5 4.5t-12 6.5t-12.5 5.5t-8 3.5q-14 7 -29.5 8t-29.5 1q-12 0 -21 -0.5t-22 -3.5q-10 -2 -20.5 -9.5t-21.5 -7.5h-7q-18 13 -31 40t-21 58.5t-12 62t-4 51.5q0 92 36 162t122 110v10q-18 0 -40.5 -10t-45 -23.5t-42 -28.5 t-30.5 -25q-18 -16 -36.5 -41.5t-34 -54.5t-25.5 -59.5t-10 -55.5v-5q0 -10 1 -27.5t1.5 -34t1 -29.5t0.5 -14q3 -48 24 -88t45 -78v-11q0 -15 -6 -29t-6 -31zM203 200v4q0 5 5 9t11.5 6.5t13.5 3.5t12 1q32 0 58 -19t46 -42h12l5 2.5t11.5 6l13 7t11.5 5.5q21 12 42 28.5 t38 36.5t27.5 43.5t10.5 49.5q0 11 -0.5 25.5t-3.5 23.5q-1 1 -4 7l-6.5 13l-6.5 13t-3 8q-2 0 -2 4v6q0 10 5.5 20.5t14.5 18.5t20 13.5t22 5.5l4.5 0.5t10 0t10.5 -2.5t7 -6l1 -1q0 -5 -7 -9t-15.5 -10t-15.5 -15t-7 -24q0 -27 10 -41.5t30 -32.5v-232q0 -3 -4 -5.5 t-9.5 -4.5l-11 -4t-7.5 -3q-6 -1 -16.5 -2.5t-20.5 -3.5t-18.5 -3.5t-9.5 -2.5h-43q-32 0 -65.5 6.5t-65.5 19.5t-60.5 32t-49.5 44z" />
<glyph unicode="F" horiz-adv-x="826" d="M16 -29q0 -50 28 -84.5t70 -56t90 -31.5t88 -10q34 0 69 10.5t67 29.5t59 44t45 54q3 4 7 12t7.5 15.5t6.5 13.5t3 8v8q-5 0 -8 -4q-21 -35 -41 -59.5t-52 -54.5q-23 -14 -49.5 -24t-52.5 -17h-57q-27 0 -55 1t-55 5t-52.5 13t-48.5 26q-24 17 -40.5 41.5t-16.5 54.5 q0 37 16.5 61t43 38t58.5 19.5t63 5.5q56 0 108.5 -24t88.5 -66h8q30 32 68 60.5t72 59.5t57 68.5t23 87.5q0 26 -8.5 47t-8.5 45q0 16 4.5 32t13.5 29.5t22.5 22t31.5 8.5h7t6 -5q-20 -18 -28.5 -31t-8.5 -38q0 -23 16.5 -42t40.5 -24q3 -36 4 -59t1 -52q0 -32 -2.5 -62.5 t-2.5 -62.5q0 -6 -0.5 -19.5t0.5 -27t5 -23.5t13 -10q13 0 14 12t1 20q0 48 -5 99.5t-7 96.5l-4 8v77l1.5 1.5t2.5 1.5q13 8 25.5 15t22 16t15.5 21t6 30q0 15 -6.5 27.5t-16.5 23t-22.5 19t-23.5 15.5q-1 0 -2.5 2l-1.5 2q-2 22 -4 43t-1 42q-1 4 -4 5t-5 1v-86l-2.5 -3.5 t-3.5 -5.5q-3 -3 -5 -3q-15 -3 -33 -6t-32 -15l-4.5 -4.5t-7 -7.5t-7.5 -7.5t-5 -5.5q-5 -5 -9 -15.5t-8 -21.5t-7.5 -19.5t-5.5 -8.5q-3 0 -7.5 3t-9 6.5t-8.5 7t-6 4.5l-38 22t-34 25t-24.5 31.5t-9.5 42.5q0 9 3 20.5t8.5 21.5t14 17t19.5 7q31 0 59.5 -8.5t60.5 -8.5 q22 0 40.5 1t38.5 11q13 7 28 20.5t28 30.5t21 35t8 34q0 18 -9.5 32.5t-28.5 14.5q-15 0 -15 -16q0 -9 6 -12.5t13 -6.5t13 -7.5t6 -14.5q0 -14 -7.5 -24t-19 -16t-24.5 -9t-24 -3q-20 0 -41 8t-41.5 18.5t-39.5 22t-35 19.5q-41 21 -83.5 37t-86.5 24h-58 q-41 0 -92.5 -9.5t-98 -31.5t-78 -58t-31.5 -88q0 -31 11 -59.5t31 -50.5t47.5 -35t60.5 -13q56 0 99 27t71 75q4 6 10.5 19t6.5 19v2q0 4 -5 4l-1 1l-2 -1q-10 -17 -15 -30t-18 -30q-24 -32 -61 -45t-75 -13q-29 0 -56 8.5t-47.5 24.5t-32.5 40t-12 55q0 36 18 61.5t46 42 t62 24.5t65 8q30 0 63 -12t66 -29.5t64.5 -36t58.5 -31.5q4 -1 4.5 -4.5t0.5 -6.5q0 -8 -6.5 -14t-15 -12t-17.5 -11.5t-15 -12.5q-20 -23 -35 -50.5t-15 -59.5q0 -34 13.5 -58.5t34 -44t44.5 -35.5t44.5 -32.5t34 -36t13.5 -45.5q0 -10 -3.5 -24t-10.5 -27.5t-17.5 -23 t-23.5 -9.5h-1q-26 24 -53.5 42.5t-60.5 30.5q-5 0 -16 1t-23 2.5t-23 2.5t-15 1h-3q-42 0 -91.5 -13t-93 -39t-72.5 -64t-29 -87z" />
<glyph unicode="G" horiz-adv-x="842" d="M68 10q0 -36 16 -71t42.5 -63.5t60 -48t69.5 -23.5q28 -2 47.5 -2.5t45.5 -0.5h33q6 3 8 3.5t4.5 0t5.5 -1t10 0.5q3 1 9.5 3t13.5 4t13.5 4t8.5 3q10 3 34.5 18.5t49.5 35.5t44 41.5t19 38.5q-7 0 -12 -4t-9.5 -9.5t-8.5 -11t-7 -9.5l-9 -9t-13 -12.5t-12.5 -12 l-6.5 -6.5q-17 -15 -39 -25t-46 -16.5t-48 -9t-45 -2.5q-32 0 -60 4.5t-59 12.5q-8 2 -11 3.5t-13 -0.5q-53 28 -85.5 67.5t-32.5 99.5q0 32 7.5 60.5t33.5 49.5h1q8 0 17 -6t19 -14.5t19 -16.5t17 -12q45 -25 86.5 -41t92.5 -28q21 2 42 -1t43 -3q47 0 105 16t111.5 46 t93.5 73t51 97q5 19 5 37v38q0 42 -13 76.5t-37 59.5t-58.5 39t-76.5 14q-41 0 -68.5 -14t-59.5 -39h-8q-1 0 -13.5 12t-29 29t-34.5 34.5t-29 29.5q-17 17 -29 38.5t-12 45.5q0 23 11 42.5t28.5 33t39 21t42.5 7.5q6 0 10.5 -4.5t8.5 -10.5t7.5 -12.5t7.5 -10.5 q7 -7 18.5 -12t23 -11t20 -13.5t8.5 -18.5q0 -14 -8 -23t-18 -16t-18 -13t-8 -15q20 0 42.5 13.5t41.5 34t31.5 43.5t12.5 42q0 21 -12 33t-27 20.5t-27 16.5t-12 21q0 10 6.5 14t14.5 7t14.5 6t6.5 12q-32 0 -52.5 -2.5t-34.5 -11.5t-24.5 -25.5t-22.5 -43.5l-5 -5 q-44 -3 -82.5 -17.5t-67 -39.5t-45 -61t-16.5 -81q0 -36 13.5 -63t33 -49t43 -41.5t43 -41.5t33 -48t13.5 -61q0 -14 -5 -30.5t-14.5 -30.5t-23 -23.5t-30.5 -9.5l-4 1q-31 22 -56.5 33t-63.5 11q-21 0 -39.5 -6.5t-36.5 -6.5q-9 0 -15 7t-9.5 17t-6 20.5t-5.5 16.5 q-1 7 -3.5 25t-5 38.5t-5 38t-2.5 24.5v40q0 49 9 96.5t29.5 88.5t54 73.5t82.5 52.5v9q-20 0 -37.5 -8t-33 -19t-31.5 -22.5t-33 -17.5l-69 -61q-22 -35 -38.5 -59.5t-28 -48.5t-17 -51.5t-5.5 -69.5q0 -35 4.5 -70t24.5 -66q5 -9 16.5 -24.5l23 -31t20.5 -29t9 -17.5 q0 -6 -4 -14.5t-9.5 -17t-11 -16t-8.5 -13.5q-7 -14 -8 -32.5t-1 -34.5zM182 158q2 9 14 10.5t19 1.5q25 0 45 -11.5t34 -25t23 -25t14 -11.5h6q33 27 70.5 47.5t70 45t53.5 58t21 86.5q0 15 -4 28t-8.5 24.5t-8 21t-3.5 18.5v5q17 19 33.5 30t42.5 11q32 0 53.5 -14.5 t34 -38t18 -52t5.5 -55.5v-61t-8 -60q-11 -41 -35 -73t-56.5 -55t-71 -35t-78.5 -12q-45 0 -81.5 6t-68.5 20t-61.5 36.5t-60.5 55.5q-2 2 -7.5 10.5t-4.5 13.5z" />
<glyph unicode="H" horiz-adv-x="919" d="M12 13q0 -35 13.5 -66.5t36 -57t53 -43.5t64.5 -24h47q72 0 120.5 25t87.5 89q3 5 8 14t9.5 19t8 20t3.5 16q0 8 -6 8h-2q-16 -41 -35 -70.5t-44.5 -49t-58.5 -29t-77 -9.5q-35 0 -72 6.5t-68.5 22.5t-51.5 44t-20 70q0 43 30 70t74 27q61 0 100 -45q2 -3 5.5 -10 l7.5 -15t8 -14t9 -6l3 4.5t6 10.5l5.5 11t3.5 6q16 19 38.5 36l45 34t42.5 35.5t32 41.5q14 28 21.5 49.5t7.5 50.5q0 16 -4.5 30t-4.5 29q0 11 12 25.5t28 28t32.5 22.5t25.5 9q7 0 8 -4q0 -4 1 -12.5t1.5 -18.5t1.5 -18.5t1 -12.5v-7q0 -10 -8.5 -16.5t-8.5 -19.5 q0 -7 2.5 -12.5t6 -10.5t6 -11t2.5 -13q0 -14 -1.5 -26.5t-3.5 -29.5q-9 -13 -19 -19.5t-18.5 -14t-13.5 -20t-5 -36.5q0 -32 15.5 -55t39.5 -37.5t53.5 -21.5t56.5 -7q31 0 67.5 15t69.5 39t58 54.5t33 61.5q4 16 4.5 37t0.5 35q0 35 -10 66.5t-36 57.5q-12 12 -30 22 t-34.5 22t-28.5 27t-12 38q0 11 4 20t4 20q0 2 -0.5 5.5t-5.5 3.5h-2q-15 -24 -27.5 -38t-27 -21.5t-34 -9.5t-48.5 -2q-5 0 -16.5 1t-12.5 1l-5 8q1 4 1 15v24v23t-1 15q0 6 -2.5 15.5t-10.5 9.5q-11 0 -11 -11q0 -22 2 -43t2 -43q0 -14 -8 -22.5t-19 -14.5t-24 -11.5 t-22 -12.5q-3 -2 -10 -8.5t-14.5 -13.5t-14.5 -13.5t-9 -9.5q-12 4 -19.5 12.5t-17.5 15.5q-21 16 -41 29.5t-35 29.5t-24.5 36.5t-9.5 49.5q0 19 12.5 42t31 43t39.5 33.5t39 13.5q1 0 2 -0.5t2 -0.5q10 -8 22.5 -20t26.5 -23t29 -18.5t30 -7.5q52 0 86 24.5t62 64.5 q12 17 18.5 28t6.5 31q-9 0 -16.5 -10.5t-16.5 -23t-21 -23t-30 -10.5q-23 0 -44 12t-37 27t-25 27l-9 12h-5q-13 -14 -31.5 -32.5t-36.5 -28.5q-37 -20 -78.5 -41t-77 -48t-58.5 -63.5t-23 -86.5q0 -39 14 -66.5t35 -49.5t45 -40t45 -36.5t35 -40t14 -50.5q0 -8 -3 -19 t-8 -21t-12.5 -16.5t-17.5 -6.5h-4q-20 26 -51.5 39.5t-63.5 13.5q-53 0 -104.5 -24t-81.5 -70q-3 -5 -7 -12.5t-7.5 -16t-6.5 -17.5t-3 -15zM527 107q0 4 1 8t6 4q9 0 17 -4.5t16 -10t16.5 -10t18.5 -4.5q30 0 47 16t17 45q0 24 -11.5 36t-26 18t-28 9t-16.5 10 q0 5 -1.5 19t-1.5 19v1q0 12 3 19t7 12t7 10.5t3 14.5t-3 16t-7 14.5t-7 16.5t-3 20q0 27 3 38t11 14.5t23.5 3t39.5 2.5q2 0 12 2t12 2q3 0 13 0.5t13 0.5q0 -17 -5 -33t-5 -33q0 -18 6.5 -38.5t17.5 -34.5q4 -6 14.5 -19t22.5 -28t22.5 -28.5t14.5 -18.5q16 -26 16 -53 q0 -30 -13.5 -56t-35 -44.5t-48.5 -29.5t-55 -11q-17 0 -40 5t-43.5 15.5t-35 26.5t-14.5 38z" />
<glyph unicode="I" horiz-adv-x="623" d="M134 -150q4 -1 16.5 -2.5t26 -3.5t26 -4t17.5 -2h19q20 0 41 2t40 10q19 7 45.5 23t50.5 37t40.5 44.5t16.5 45.5h-6q-44 -69 -99 -99.5t-136 -30.5q-56 0 -103 12t-85 53q-7 9 -13.5 22t-6.5 25q0 27 13 46t32.5 31t43.5 17.5t47 5.5q29 0 55.5 -7.5t52.5 -21.5 q7 -3 17.5 -12.5t21.5 -19.5t20 -17.5t14 -7.5t8 4q12 15 24 26t24.5 20t27 17.5t30.5 18.5q33 20 61 43t49 50.5t33 60.5t12 74q0 35 -13 66t-28 62t-28 64.5t-13 72.5q0 21 9 36.5t20 27.5t20 22t9 21q-11 0 -16 -4t-13 -11q-25 -21 -48.5 -42t-42 -45.5t-29.5 -53 t-11 -62.5q0 -18 0.5 -37.5t7.5 -36.5q10 -23 22 -46.5t22.5 -47.5t18 -49.5t7.5 -50.5q0 -34 -16.5 -58t-41.5 -44h-9q-8 0 -21 7t-27.5 17t-28.5 19t-23 14q-14 5 -30 5q-15 0 -27 7q-12 8 -14 17.5t-2 23.5v44v45q1 6 5 10t8.5 8t7.5 8.5t3 11.5q0 8 -3.5 14t-8 11.5 t-8 11.5t-4.5 15q0 3 -1 12.5t-1.5 20t-1.5 19.5t-1 13q-2 4 -7 4v-82q0 -12 -8.5 -18t-8.5 -18q0 -11 4.5 -17t12.5 -12v-133l-5 -5q-36 -4 -77.5 -15.5t-76.5 -32.5t-58 -53t-23 -76q0 -27 10.5 -48.5t27.5 -39t39 -30.5t45 -22zM65 601q0 -32 13.5 -56t36 -40.5t51 -24.5 t57.5 -8q23 0 47 3.5t43 20.5q8 7 18 16t19 19.5t15 22t6 23.5h-10q-23 -38 -50 -57.5t-73 -19.5q-26 0 -54.5 4.5t-52 16t-39 31.5t-15.5 52q0 18 8.5 34.5t22 29.5t31 20.5t34.5 7.5q33 0 61 -14t55 -31.5t54.5 -31.5t60.5 -14q20 0 36 5t30 14t28 20t30 23q4 3 10.5 6.5 t13.5 8t12 9.5t5 10q0 4 -3 5.5t-6 1.5q-8 0 -17.5 -6t-19.5 -12.5t-21 -12.5t-21 -6q-19 0 -35.5 10.5t-32.5 25t-32.5 28.5t-34.5 21q-29 11 -59.5 11.5t-59.5 0.5q-23 0 -46.5 -8.5t-42.5 -19.5q-16 -17 -29.5 -31.5t-23 -30.5t-15 -34.5t-5.5 -42.5z" />
<glyph unicode="J" horiz-adv-x="619" d="M244 172q-30 -3 -61 -10.5t-59 -20.5t-52.5 -31.5t-42.5 -43.5q-3 -4 -10 -14.5t-7 -14.5v-68q0 -24 17 -44.5t41 -36.5t50.5 -27t46.5 -15h47q28 0 54 1.5t52 10.5q18 6 44.5 23t50.5 39t41.5 45t17.5 41q-6 0 -16 -10t-20.5 -22.5t-20.5 -25t-15 -16.5q-2 -2 -8.5 -6.5 t-13.5 -10t-13 -10t-9 -6.5q-31 -20 -69.5 -22.5t-73.5 -2.5q-26 0 -59.5 5t-62.5 18t-49 35t-20 56q0 27 10 46t26.5 30.5t39 16.5t48.5 5q59 0 105 -23.5t84 -66.5h4q14 21 30 36t34 27t37.5 23t41.5 25q55 35 88.5 86.5t33.5 118.5q0 27 -7 51.5t-17.5 47.5t-22.5 46 t-23 48q-1 3 -2.5 12t-3.5 18.5t-3.5 18.5t-2.5 12v6q0 31 17.5 57.5t39.5 46.5v10q-9 0 -17 -5t-15 -12t-13.5 -14.5t-11.5 -11.5q-22 -21 -40.5 -39t-32 -37.5t-21.5 -43.5t-8 -56q0 -36 12 -69t27 -65.5t27 -65.5t12 -69q0 -32 -13 -51.5t-36 -39.5q-6 -7 -8.5 -8 t-9.5 -1q-8 0 -18.5 6.5t-22.5 14.5t-24 16.5t-22 12.5q-4 1 -14.5 4.5t-22.5 7t-22.5 7t-14.5 5.5q-7 1 -8.5 6.5t-0.5 11.5t1 12t-4 10v86q0 6 3.5 10t8 8t8.5 8.5t4 11.5q0 9 -3.5 15t-7.5 11t-8 11t-5 15q0 3 -1 13t-1.5 21t-1 20.5t-0.5 13.5h-9v-89q-5 -5 -10 -11 t-5 -14q0 -9 4.5 -18t10.5 -14q-1 -35 2 -62.5t3 -59.5q0 -5 -0.5 -9.5t-7.5 -6.5zM60 607q0 -24 9.5 -45t25.5 -38t36.5 -29.5t43.5 -18.5h36q19 0 46.5 7t52.5 20.5t42.5 33t17.5 44.5v1q0 1 -2 2.5t-2 2.5h-2h-3q-5 -3 -8.5 -14l-3.5 -11q-8 -15 -20.5 -26t-28 -18 t-32.5 -10t-32 -3q-25 0 -53.5 3.5t-53 14t-40.5 31t-16 53.5q0 24 10.5 41.5t27.5 29.5t38 17.5t42 5.5q31 0 55 -14t47 -31t47.5 -31t57.5 -14q22 0 46 8.5t46.5 22t42 30t32.5 32.5v3v1q-1 1 -2 2.5t-3 2.5h-1q-7 0 -15.5 -6t-18 -12.5t-21 -12.5t-24.5 -6 q-10 0 -16.5 1.5t-17.5 6.5q-23 20 -44 36.5t-44 28.5t-49 18.5t-57 6.5q-36 0 -70.5 -12t-61.5 -33.5t-43.5 -52.5t-16.5 -69z" />
<glyph unicode="K" horiz-adv-x="953" d="M12 -4q0 -41 22 -70.5t55.5 -48t72.5 -27t73 -8.5q62 0 115.5 32.5t88.5 81.5q10 14 20.5 28.5t12.5 32.5h-9q-20 -43 -53.5 -80t-80.5 -51q-1 0 -6 -1t-11.5 -2.5t-13 -3.5t-10.5 -5h-44q-28 0 -66 4t-72 17t-58 36.5t-24 61.5q0 48 31 76.5t78 28.5q48 0 82 -18.5 t69 -47.5q6 -5 8.5 -6.5t8.5 -1.5h4q8 23 24 38.5t32 31.5q24 22 45.5 42.5t38 42.5t26 48t9.5 61q0 18 -2.5 31.5t-7.5 25.5t-13 23.5t-18 26.5v12l4 4.5t10 10.5l12 12l10 10q5 4 14 11t19.5 13.5t20.5 11.5t18 5q3 0 6.5 -5.5t3.5 -7.5v-69q4 -7 4.5 -13t0.5 -13 q0 -4 0.5 -11.5t0 -15t-2.5 -13.5t-7 -7q-6 0 -14.5 0.5t-16 -1t-13 -6t-5.5 -13.5q0 -13 7.5 -16.5t17 -4.5t18 -1.5t10.5 -6.5v-59q0 -42 -2 -82t-2 -82q0 -4 0.5 -11t2.5 -13.5t5.5 -11.5t9.5 -5h3q4 0 7 3v10t0.5 15t0.5 15v10v12t-0.5 15.5t-0.5 13.5v7q0 11 -0.5 28 t-1 33.5t-1.5 28t-1 12.5l-3 8v53l1 1.5t2 1.5q11 8 25.5 11t27.5 3q22 0 34 -15t19 -38.5t10.5 -52.5t8.5 -57t13 -52.5t25 -38.5q1 -1 6 -4.5t11 -8t11 -8.5t8 -6q8 -7 17.5 -12t20.5 -5q5 0 6 1.5t6 6.5q1 1 5.5 7.5t10 13.5t10 13t6.5 7l10.5 10.5l18 18t17.5 18 t10 10.5q6 6 16 16.5t10 11.5v9h-14q-12 -16 -19 -20.5t-26 -4.5q-16 0 -27.5 9.5t-19.5 23t-14 29t-11 28.5q-7 14 -14.5 24.5t-18.5 24.5q-8 9 -21.5 17t-27 14.5t-25 12.5t-14.5 12q2 5 6.5 6t8.5 3q20 10 38.5 21t32.5 25.5t22.5 33t8.5 43.5q0 22 -10.5 37.5 t-22.5 29.5t-22.5 29t-10.5 36q0 13 7.5 21t7.5 20h-14q-12 -14 -31.5 -30.5t-41.5 -31.5t-45 -25t-42 -10h-3q-1 0 -2 1.5l-1 1.5l-9 90h-2h-3q-3 -3 -3 -4v-89q0 -14 -12 -19t-21 -10q-3 -2 -9 -5.5t-12.5 -7.5t-12 -7t-6.5 -4q-6 -4 -14.5 -13t-17.5 -18t-18 -16t-15 -7 q-1 0 -2.5 0.5t-2.5 0.5q-37 35 -63 73.5t-26 91.5q0 16 14 36t33.5 38t40.5 30t35 12q5 0 12 -5t13.5 -11.5t13 -12.5t9.5 -8q37 -24 85 -24q25 0 45.5 11t36.5 28.5t28 39t21 42.5v2v3q-2 2 -3 6.5t-2 5.5h-1h-3q-1 0 -2 -2l-1 -2q-2 -2 -6.5 -12.5t-5.5 -12.5 q-3 -5 -10.5 -10t-16.5 -9t-18 -7t-14 -3q-21 0 -38.5 10.5t-31 22.5t-23 22.5t-13.5 10.5q-7 0 -11 -4t-7 -9t-6 -10.5t-7 -8.5t-10.5 -7.5l-13 -9t-11.5 -8.5t-6 -4q-29 -17 -60 -32.5t-59 -34t-51.5 -42.5t-36.5 -58q-8 -20 -14.5 -40.5t-6.5 -43.5q0 -30 11 -53.5 t27.5 -44t37 -39.5t38.5 -39q17 -19 28 -34t25 -35q5 -9 8.5 -14.5t3.5 -18.5q0 -6 -1.5 -16t-4.5 -20t-9 -17.5t-15 -7.5q-7 0 -16.5 4.5t-19.5 10t-19.5 11t-15.5 7.5q-8 2 -18.5 3t-22.5 1h-22h-16h-47q-32 -7 -61 -22t-52 -36.5t-36.5 -50t-13.5 -62.5zM574 337 q-2 17 -3 30t-1.5 25.5t-0.5 24.5v28v43q5 7 16 14.5t23.5 13.5t25 10t21.5 4q0 -11 -2.5 -20.5t-2.5 -21.5q0 -23 8.5 -38t18 -27t18 -24t8.5 -28q0 -12 -6 -21.5t-15.5 -17t-21 -11.5t-22.5 -4q-7 0 -16.5 0.5t-19 2.5t-17 6t-11.5 11z" />
<glyph unicode="L" horiz-adv-x="814" d="M12 0q0 -35 18 -65t46 -52t62 -34t67 -12q38 0 73 6.5t64.5 22t53 41t38.5 64.5v1v3q0 1 -1.5 2l-1.5 1q0 2 -2 2h-1h-1t-1 -2q-21 -37 -52.5 -67t-77.5 -33q-2 0 -13 -0.5t-25.5 -1.5l-29 -2t-22.5 -1h-8q-26 0 -56.5 8t-56.5 24t-43.5 40t-17.5 55q0 34 16 56.5 t40.5 36t54.5 19.5t58 6q47 0 91.5 -18.5t89 -41t90 -41t94.5 -18.5q73 0 126.5 32t90.5 94q8 13 17.5 25.5t9.5 28.5q-9 0 -20.5 -13.5t-27 -30t-35 -30t-43.5 -13.5q-3 0 -10.5 2t-7.5 7v194q0 13 10 22.5t10 23.5q0 9 -3 15t-7 13t-7 15.5t-3 22.5q0 36 4 70.5t4 70.5 q0 5 0.5 13.5t-1 16t-5.5 13t-12 5.5t-11 -1.5t-3 -8.5q0 -52 4 -103.5t4 -103.5q0 -7 -2.5 -11t-6 -8t-6 -8t-2.5 -11q0 -12 6 -18.5t15 -14.5v-211l-9 -8q0 -1 -11 0.5t-16 2.5q-54 13 -101.5 38t-98.5 44q-29 11 -63 14t-65 3q-41 0 -88 -12t-87.5 -35.5t-67.5 -59.5 t-27 -84zM504 206q-5 -11 -12 -19.5t-7 -20.5h6q1 0 6.5 5t12.5 12t14 14.5t12 12.5q17 19 31.5 47.5t16.5 54.5q0 1 1 13t1 17q0 4 -1 15.5t-1 15.5q-8 31 -33.5 57.5t-53.5 52.5t-49.5 54t-21.5 62q0 9 5 23t13 27.5t18.5 23t21.5 9.5q3 0 11.5 -11.5t22.5 -25.5t33 -25.5 t44 -11.5t51.5 13.5t48 35t35.5 48t14 51.5q-6 0 -13 -9.5t-17 -21.5t-23 -21.5t-31 -9.5q-17 0 -30 7t-23 17.5t-18.5 23.5t-16.5 25q0 1 -1.5 2l-1.5 1q0 2 -2 2h-1h-1t-1 -2q-3 -1 -7.5 -6.5t-9.5 -11.5t-9.5 -11.5t-5.5 -6.5q-23 -20 -50 -32t-51 -29q-44 -28 -71.5 -74 t-27.5 -99q0 -33 12.5 -57t32 -43.5t41.5 -36.5t41.5 -35.5t32 -40.5t12.5 -52v-29z" />
<glyph unicode="M" horiz-adv-x="1246" d="M113 -29q0 -41 22 -71.5t55.5 -51.5t72.5 -31.5t74 -10.5q20 0 43 1t46 4.5t44 11.5t38 23q24 22 43.5 41.5t37.5 44.5q9 11 21.5 29t12.5 34q-7 0 -12 -5t-8.5 -12t-7 -14.5t-6.5 -11.5q-20 -27 -40 -48.5t-49 -41.5q-16 -11 -35 -17t-39 -8.5t-40 -3t-38 -0.5 q-31 0 -70 7t-74 23t-59 43t-24 66q0 45 30 72t69 38q3 0 11.5 0.5t17.5 0.5h17h12q36 0 64.5 -4.5t53 -14.5t48 -27t48.5 -41h8q2 3 7 11t10.5 16.5t11 15.5t7.5 10q1 1 5 5.5t9 10.5t10.5 12t8.5 9q5 6 15 13t19.5 15.5t17 18t7.5 18.5h-6q-2 -2 -7 -6.5t-10.5 -9.5 t-11 -9.5t-7.5 -6.5q-2 -1 -6.5 -4t-5.5 -5h-3q-7 0 -14 4t-14 9.5l-14 11t-13 8.5q-39 17 -77.5 27t-80.5 10q-40 0 -83 -17t-79 -46t-59.5 -66.5t-23.5 -79.5zM947 236q8 -17 9.5 -36t7.5 -37q18 -58 53 -98.5t93 -63.5l0.5 -0.5t1.5 -0.5l2 1q1 0 4 5t4 7q6 10 24.5 35 t38 51t34.5 46.5t15 22.5h-10q-13 -15 -24.5 -28.5t-31.5 -13.5q-29 0 -49 18t-32.5 43.5t-18.5 54.5t-7 52v18v30v31v18q0 2 -2 10.5t-2 10.5v12v12q0 8 1.5 23t3 31t2.5 28.5t2 15.5q1 10 6.5 28.5t13.5 27.5q4 7 15 13.5t21.5 13t19 13t8.5 13.5h-11q-1 0 -8.5 -3.5 t-17.5 -8t-19.5 -9.5t-15.5 -8q-26 -14 -50.5 -36t-43.5 -49t-30 -58t-11 -62v-1q0 -10 1 -34t1.5 -51.5t1 -52t0.5 -34.5zM601 288q0 -40 17.5 -73.5t43 -63.5t52.5 -58.5t47 -58.5q1 -2 6 -13t6 -13l1 -1.5t2 -1.5h3q2 0 9.5 9.5t16.5 21.5t17.5 23.5t11.5 14.5q3 4 13 16 t21.5 26.5t22.5 27.5t16 19q5 5 7.5 9.5t2.5 12.5q-6 0 -14.5 -7.5t-17.5 -18t-17.5 -21t-14.5 -16.5h-1q-5 0 -9.5 5.5t-8.5 12.5t-7.5 14t-5.5 9t-6.5 8t-10.5 13t-11 14t-8 10q-23 28 -51 52t-51 54q-8 11 -12.5 22.5t-4.5 24.5q0 10 4 19.5t9 17.5t9 16.5t4 17.5h-9 q-1 0 -12 -11t-17 -18q-9 -9 -18 -23.5t-17 -30t-13 -32t-5 -29.5zM166 379q0 -30 11 -57t30 -48t45.5 -33.5t57.5 -12.5q130 0 201 71t71 201q0 56 -16 103.5t-47.5 81.5t-77 53t-103.5 19q-50 0 -99 -7.5t-97 -21.5q-11 -9 -28 -8.5t-31 0.5h-22q-17 8 -30.5 23t-14.5 35 h-5q0 -46 14 -76t38.5 -47.5t59 -24.5t76.5 -7q36 0 71.5 4t70.5 4q43 0 70 -19.5t42.5 -50t21 -67t5.5 -70.5q0 -85 -40.5 -134.5t-127.5 -49.5q-13 0 -31.5 7t-36 18t-29.5 25.5t-12 28.5q0 4 0.5 7.5t5.5 3.5q8 0 16 -2t16 -2q27 0 48 15t21 44q0 26 -11.5 41.5 t-30.5 29.5h-24q-38 0 -58 -20t-20 -57zM752 277v-9q9 0 26 14.5t33.5 34t29 40t12.5 31.5v76q0 29 -21.5 54t-47.5 48.5t-47.5 48t-21.5 52.5q0 27 14 46.5t32 40.5v7h-13q-1 -1 -9.5 -11t-20.5 -24t-18 -22q-14 -17 -27 -42.5t-19 -42.5q0 -1 -1 -13.5t-3 -18.5v-3 q0 -24 5.5 -43.5t15.5 -37t23.5 -34t29.5 -33.5q8 -10 18.5 -20t20 -21t16 -23.5t6.5 -27.5q0 -20 -9.5 -37t-23.5 -30zM841 701q29 0 50 -13.5t44 -27.5q26 -15 48.5 -20t52.5 -5q47 0 80 17t64 52q11 13 20.5 30.5t9.5 34.5q-11 0 -17 -10.5t-14 -22.5t-20.5 -22.5 t-34.5 -10.5q-24 0 -40 11.5t-35 22.5q-25 13 -40 18.5t-37 13.5h-90q-12 0 -34 -13.5t-43.5 -32t-37.5 -37.5t-16 -31q9 0 16.5 7t17 16t22.5 16t34 7z" />
<glyph unicode="N" horiz-adv-x="1038" d="M145 -13q0 -27 11 -49.5t29 -41t40.5 -32t46.5 -22.5q8 -3 23.5 -7.5t17.5 -4.5h106q24 0 51 11.5t52 29.5t46 39.5t33 41.5q5 6 13 18.5t8 13.5v10l-4 -1q-10 -10 -17.5 -19.5t-15 -19.5t-16.5 -19.5t-21 -19.5q-1 -1 -5 -4.5t-9 -7l-10 -7t-8 -5.5q-16 -11 -35 -17 t-39 -9t-40 -3.5t-38 -0.5t-38.5 0.5t-41 3.5t-39.5 10t-34 19q-20 18 -36.5 39t-16.5 50q0 36 13.5 58.5t35 35t49.5 17t58 4.5q61 0 107.5 -23.5t78.5 -74.5h4q4 0 4.5 0.5t3.5 4.5q36 41 71.5 71t78.5 67q4 2 10 8.5t7 6.5q3 8 3.5 24t0.5 27q0 70 -2.5 140t-2.5 142v35 t0.5 53t0.5 53v35q2 5 7.5 7t10.5 2q16 0 31 -11t28 -18q24 -14 51.5 -25.5t56.5 -11.5q24 0 52.5 12t53 31.5t41 44.5t16.5 51h-7l-4.5 -8t-7.5 -13q-11 -20 -22.5 -30t-35.5 -10q-20 0 -33.5 8t-30.5 16q-33 17 -67.5 33t-72.5 16t-69.5 -18.5t-58.5 -42.5 q-4 -3 -10 -11.5t-13 -17t-14 -15t-12 -6.5q-6 0 -12 6.5t-12 15.5t-12 17.5t-12 13.5q-39 30 -83.5 44t-93.5 14q-21 0 -45.5 -4.5t-49 -11t-48.5 -13.5t-43 -12q-11 -9 -32 -10.5t-35 -1.5q-31 0 -46 15t-29 38l-1.5 1.5t-2.5 1.5v-14q0 -25 10 -49.5t27 -43.5t40 -31 t50 -12q54 0 107.5 10.5t106.5 10.5q42 0 70.5 -19t45.5 -48t24 -65.5t7 -70.5q0 -40 -12 -74.5t-35 -59.5t-55.5 -39.5t-73.5 -14.5q-28 0 -53.5 13t-42.5 36q-3 4 -6.5 9.5t-1.5 7.5l3 3q18 0 38 3t36 10.5t26.5 21.5t10.5 38q0 6 -5.5 16t-13 19.5t-16.5 16t-15 6.5h-52 l-3.5 -2t-5.5 -3q-26 -14 -33.5 -30t-7.5 -45t12.5 -53t32.5 -41.5t46.5 -27.5t54.5 -10q66 0 116.5 20.5t84.5 57.5t51.5 89t17.5 115q0 29 -6.5 53t-14.5 51v2q0 11 8 21.5t20 18t25 12t23 4.5h9l4 -26q-1 -113 2 -225t3 -226v-27q-2 -8 -9.5 -15t-11.5 -11 q-5 -5 -14 -11.5t-17 -13t-14.5 -11l-6.5 -4.5h-12q-47 38 -93.5 56t-106.5 18h-9t-13.5 -0.5t-13.5 -0.5h-9q-16 -9 -34 -15t-35 -13q-24 -11 -47 -27.5t-40.5 -37.5t-28.5 -46t-11 -53zM756 232q1 -3 2.5 -14t1.5 -14q1 -2 0.5 -10.5t-0.5 -9.5q5 -29 12.5 -51t18.5 -40 t27.5 -34t39.5 -34q9 -7 19 -12t22 -5h7q24 35 56.5 70.5t62.5 64.5v11q-8 0 -14 -5.5t-13 -12.5t-15 -12.5t-19 -5.5q-27 0 -46.5 18t-27.5 43q-2 5 -4.5 14.5t-5 18.5t-4.5 16t-2 8v276q0 18 9 33.5t22.5 28.5t29.5 23t29 17v9h-12q-2 0 -8 -3l-14 -7l-16 -8t-12 -7 q-2 -2 -13 -9.5t-24.5 -17l-27 -19t-20.5 -14.5q-10 -8 -20.5 -20.5t-19.5 -27.5t-15 -30.5t-6 -28.5v-199z" />
<glyph unicode="O" horiz-adv-x="781" d="M162 30q0 -50 17 -88t47 -64.5t71 -40t88 -13.5q40 0 79 16t71.5 43t56.5 62t33 73v2v3q0 1 -1.5 2l-1.5 1h-3q-2 0 -8 -10t-12.5 -23t-14 -25.5t-12.5 -17.5q-20 -21 -37.5 -34.5t-36 -22.5t-39 -16.5t-45.5 -16.5h-38q-36 0 -71 7.5t-63.5 24.5t-46 45.5t-17.5 69.5 q0 6 -0.5 13.5t0.5 14.5t4.5 12t11.5 5q21 0 41.5 -12t40.5 -17q32 -9 64.5 -15t66.5 -6q46 0 97.5 15.5t98 43t82.5 66t51 83.5q7 23 13 43t10.5 39.5t6.5 40t2 45.5q0 139 -66.5 229t-202.5 123q-40 9 -79 12.5t-79 11.5q-11 1 -26 6.5t-15 19.5q0 12 9.5 18t9.5 18 q-14 0 -31.5 -5t-32.5 -15t-25 -23.5t-10 -30.5q0 -49 30.5 -73.5t74.5 -32.5q5 -1 24.5 -4.5t42 -7.5t42 -7.5t24.5 -4.5q2 0 8 -2t13.5 -4t14.5 -3.5t10 -2.5q49 -15 84.5 -51t53.5 -83q10 -29 17 -58t7 -59q0 -64 -15 -123.5t-47.5 -105.5t-83.5 -74t-122 -28 q-23 0 -48 3.5t-49.5 12t-45.5 21.5t-35 33q-2 1 -2 2v1q0 7 5.5 12t13.5 9t16.5 6t14.5 2q27 0 52 -10.5t41 -33.5h9q15 0 34 13.5t37 32.5t32 39.5t18 35.5q1 2 2.5 10t4 18.5t4 21t2.5 16.5v7q0 51 -25 94l-11.5 11.5l-17.5 17.5l-17 17l-11 11q-9 8 -19.5 16.5t-20 18 t-15.5 21t-6 25.5q0 27 17 47.5t36 37.5v2q0 6 -8 6q-7 0 -18 -6.5t-15 -8.5q-36 -32 -62.5 -72.5t-26.5 -91.5q0 -29 12 -53t29.5 -45.5t38 -40.5t38 -36.5t29.5 -34t12 -33.5q0 -7 -2.5 -17t-7.5 -19t-12 -15.5t-15 -6.5q-4 0 -10.5 4t-13 9.5t-12.5 10t-9 5.5 q-14 6 -31 9.5t-32 3.5q-14 0 -26 -4t-22.5 -10t-21 -13.5t-22.5 -13.5l-1 -1q-5 0 -10 6.5t-9.5 14.5t-7.5 15.5t-4 9.5q-2 4 -5 11.5l-6 15t-5.5 14t-3.5 8.5q-1 3 -3 9.5t-4 14t-3.5 13t-1.5 7.5q-1 6 -3 23.5t-4 37.5t-3.5 38.5t-1.5 26.5v33q0 25 2 49t10 48 q1 4 4 10.5t6 14t5 15t1 13.5q3 4 12.5 16t11.5 16q2 2 10.5 8.5t18 14t17 13.5t7.5 7v2q0 1 -3 2t-5 2h-1q-6 0 -14.5 -3t-17.5 -7t-16.5 -8.5t-10.5 -6.5q-28 -16 -54 -39t-46.5 -50.5t-35 -58.5t-19.5 -63v-44q0 -49 7 -85t22.5 -66t40.5 -57.5t60 -59.5q1 -2 5.5 -6 t9 -8.5l8.5 -8.5t5 -6v-3q0 -9 -4 -17t-4 -17z" />
<glyph unicode="P" horiz-adv-x="968" d="M186 5q0 -52 25.5 -89t65.5 -61t88 -35t93 -11q37 0 72 10.5t66.5 29t59 43t51.5 52.5q10 11 23.5 23t13.5 29h-5q-1 0 -11.5 -11t-17.5 -17q-26 -29 -53 -53t-64 -41q-19 -8 -40 -12t-41 -12h-11q-7 0 -15.5 -0.5t-16.5 -0.5h-11h-14q-8 0 -16 0.5t-15 0.5h-7 q-5 0 -17 2t-25.5 4t-26 3.5t-17.5 2.5q-22 7 -43.5 19t-39 28t-28.5 36.5t-11 46.5q0 10 0.5 22.5t4.5 22.5q9 22 29.5 38t45.5 26.5t51.5 15.5t47.5 5q40 0 75.5 -10.5t71.5 -26.5q12 -5 28.5 -19t32 -28.5t27 -26t13.5 -11.5h5l14.5 14.5l22 22t21.5 22t15 14.5 q8 8 26.5 21t37 26.5t33 25.5t14.5 20q-10 0 -22 -6.5t-23.5 -15t-22.5 -17.5t-19 -13h-2h-1q-2 0 -3 2t-2 2q0 5 -0.5 18.5t-1.5 28.5t-1.5 28t-0.5 18v15q0 8 3.5 14t7.5 12t7.5 12t3.5 14q0 11 -2.5 18.5t-15.5 13.5v60l5 4q3 0 13 -0.5t21 -0.5t20.5 0.5t13.5 0.5 q28 3 57.5 22t52.5 46t38 58t15 59q0 39 -18.5 69t-47.5 55q-15 13 -28 22.5t-13 32.5q0 13 5.5 19.5t11.5 11.5t11.5 10t5.5 15q-17 0 -33 -7.5t-33 -13.5q-64 -27 -119 -65t-108 -86h-5q-2 0 -11 11.5t-20 26.5t-22 29t-15 18q-15 13 -34.5 23.5t-40.5 17t-42.5 10 t-40.5 3.5q-48 0 -94.5 -7t-93.5 -15q-20 -2 -35 -7t-38 -5h-32q-23 3 -33 22t-12 39h-2h-2l-4 -3v-21q0 -29 9.5 -54.5t27.5 -45t42.5 -31t54.5 -11.5q48 0 92.5 5t90.5 3q4 4 8.5 4.5t9.5 0.5q16 0 35 -5.5t32 -16.5q49 -41 67.5 -89t18.5 -111q0 -85 -45.5 -127 t-130.5 -42q-14 0 -29.5 5.5t-29.5 15t-23 22t-9 26.5h67q9 0 17.5 6t15 14.5t10 18.5t3.5 18q0 34 -19.5 51.5t-52.5 17.5q-41 0 -60.5 -22.5t-19.5 -62.5q0 -26 12 -48.5t31.5 -40t44 -27.5t49.5 -10q67 0 117 20t83.5 56.5t50 88.5t16.5 117v50q-9 15 -9 29v9 q13 14 31.5 31.5t33.5 29.5q4 3 11 7.5t13.5 9t11.5 7.5l5 3h3v-117q5 -3 5 -9q0 -16 -10.5 -25.5t-22.5 -19t-22.5 -22t-10.5 -33.5q0 -17 10.5 -31.5t22.5 -26t22.5 -18l10.5 -6.5v-68q-4 -3 -11.5 -12.5t-8.5 -13.5l-0.5 -4t-0.5 -6q0 -8 1 -12t3.5 -6t5.5 -4.5t6 -7.5 q8 -20 9 -36.5t1 -37.5v-7t-0.5 -11t-0.5 -11v-7q-1 -2 -3 -9t-7 -7h-2q-40 30 -75.5 48.5t-83.5 32.5h-49q-44 0 -89 -9t-85.5 -28.5t-73.5 -50.5t-52 -74q0 -4 -0.5 -16t-0.5 -16zM719 402q7 11 17 15.5t19 10t15 15t6 31.5q0 19 -9.5 31.5t-21 20t-21 12.5t-9.5 10v152 q0 3 11.5 10t26 14.5t27.5 13.5t17 6h7q-10 -21 -19.5 -44.5t-9.5 -46.5q0 -34 13.5 -57t30 -42.5t30 -39.5t13.5 -47q0 -21 -9.5 -35.5t-24.5 -23.5t-33 -13.5t-35 -4.5q-11 0 -23 0.5t-18 11.5z" />
<glyph unicode="Q" horiz-adv-x="818" d="M182 2q0 -43 18.5 -76t48.5 -55.5t68.5 -34.5t78.5 -12q55 0 98 25t75 68q5 8 12.5 19.5t7.5 19.5v2l-3 4h-3h-2q-25 -52 -74 -77t-104 -25q-26 0 -54 3t-54 11.5t-48.5 23.5t-35.5 40q-4 6 -10.5 18.5t-6.5 13.5v61q0 5 3.5 11t10.5 6q12 0 25 -9t27 -13q35 -10 69 -17 t72 -7h33q20 9 45 14t45 10l4 2q7 0 17.5 -4.5t22.5 -10.5t25.5 -10.5t28.5 -4.5q52 0 94.5 24t68.5 70q2 4 5.5 10.5t6.5 13t5.5 11.5l2.5 5v13q-7 0 -13.5 -11t-16.5 -23.5t-23.5 -23.5t-33.5 -11q-6 0 -18 2t-24 5.5t-21 7.5t-9 9q0 1 3 5.5l5 7.5q1 1 6 5.5t10.5 10 t10 10.5t5.5 6q3 3 10 11.5t14.5 19t15 20t10.5 14.5q27 39 38 87.5t11 96.5q0 91 -25 156t-72.5 109t-114.5 69.5t-151 38.5q-5 1 -20.5 3.5t-33.5 5.5t-35 6t-25 5q-10 2 -23 10.5t-13 19.5q0 10 7 16t7 17q-12 0 -19 -5.5t-15 -12.5q-23 -20 -34.5 -37.5t-11.5 -49.5 q0 -25 13.5 -41t35.5 -27t49 -17t54 -9t51.5 -5t41.5 -5q31 -5 62.5 -17t60.5 -28q31 -18 53 -47t35.5 -63t19.5 -71t6 -71q0 -29 -2 -61t-9 -63t-21 -59t-38 -48q-22 14 -52.5 31.5t-53.5 28.5q-12 6 -26 8.5t-26 8.5h-106q-18 0 -38 -11.5t-38 -25.5t-31.5 -25.5 t-18.5 -11.5q-6 0 -8 4q-2 3 -6.5 9.5t-9 14t-8.5 14t-5 8.5q-37 63 -47.5 135.5t-10.5 143.5q0 43 15 88.5t43 78.5q4 5 12 10.5t15 11t12.5 12t5.5 13.5q-15 0 -34 -9.5t-32 -17.5q-81 -52 -119.5 -123t-38.5 -165q0 -50 16 -95t45 -83q4 -5 15 -16t23 -23.5t23 -23.5 t16 -15q2 -2 8 -5t12.5 -7.5t11.5 -10t5 -11.5q0 -14 -2.5 -26t-2.5 -26zM240 96l-1 4q0 6 6 11.5t14 10.5t16 9t13 6q4 0 15.5 0.5t15.5 0.5q5 0 17 -0.5t13 -0.5q2 0 9.5 -3t15.5 -6t16 -6.5t12 -5.5q2 -1 9.5 -5.5t16.5 -10t18 -11.5t14 -10q1 -1 8.5 -6t15 -11t14 -12 t6.5 -9q0 -6 -11 -10t-25 -7t-28 -4.5t-21 -1.5q-23 0 -48 5.5t-49 15.5t-45.5 24.5t-36.5 32.5zM410 230q-9 -9 -9 -24q18 0 33.5 16.5t27.5 38.5t19 45t7 36q0 17 -3.5 39.5t-17.5 36.5l-101 100v58q0 9 6.5 16.5t14 14t14 12t6.5 10.5q0 2 -1 5t-5 3q-9 0 -20.5 -9 t-19.5 -11q-17 -16 -32 -32t-27 -33.5t-19 -37.5t-7 -44q0 -26 10 -46.5t25 -37.5t33 -32t33 -30.5t25 -32.5t10 -39q0 -2 -1 -10.5t-1 -11.5z" />
<glyph unicode="R" horiz-adv-x="1111" d="M150 -7q-2 -32 18 -61.5t50.5 -52t65 -36t62.5 -13.5h121q29 0 57.5 14t55 35t48.5 45t38 44q1 2 2.5 6t2.5 6v4h-9q-15 -20 -35 -41.5t-44 -39.5t-50 -29.5t-53 -11.5h-143q-22 0 -52 10.5t-57.5 27.5t-46.5 40t-19 48q0 32 16.5 52.5t41 32.5t53 16.5t52.5 4.5 q130 0 215 -94h5q5 0 4 1.5t4 6.5q17 20 32.5 33.5t36.5 28.5q5 3 19 12.5t29.5 19.5t29.5 19.5t20 12.5q3 5 5 13t2 11v184q0 3 2 14t3 15l1 1.5t3 1.5q15 5 24.5 7t21.5 2q20 0 26.5 -14t8.5 -31q1 -8 3.5 -28.5t4.5 -44.5t4.5 -46t3.5 -32q2 -20 3.5 -38.5t9.5 -38.5 q7 -20 18 -34.5t25 -26.5t30 -22.5t33 -21.5q5 -4 7 -4.5t7 -0.5q6 0 7 1t6 7q1 2 7 9.5t12 15.5t11.5 15.5t6.5 9.5l11 11t19.5 19t20 19t11.5 12q5 5 12.5 14t7.5 10v8h-8q-12 -13 -26 -27.5t-32 -14.5q-22 0 -35.5 13t-22.5 34t-14.5 46.5t-10.5 51t-11.5 48t-18.5 36.5 q-17 20 -42 33.5t-48 23.5v2q0 4 9 9.5t21.5 11t24.5 11t18 10.5q17 14 27.5 31.5t25.5 29.5q9 20 11 29.5t2 26.5q0 18 -5 39.5t-16 34.5l-53 66l-0.5 6t-0.5 10q0 13 5 22t11 16.5t11 14t5 15.5q-12 0 -32 -7t-41.5 -16.5t-41 -20t-30.5 -16.5q-5 -3 -14.5 -8t-18.5 -10.5 t-15.5 -9.5t-7.5 -4q-35 -24 -63.5 -55t-59.5 -59q-10 7 -16 19t-11 25.5t-10.5 26.5t-15.5 22q-23 22 -45 39.5t-46 29.5t-52 18.5t-61 6.5h-31q-6 0 -22 -2.5t-33 -5t-33 -5.5t-22 -4q-28 -8 -53.5 -14t-54.5 -6q-23 0 -36.5 8t-22.5 17t-14.5 17t-11.5 8q0 -35 12 -64.5 t33 -50.5t50.5 -33t64.5 -12h5q1 0 6 2t6 2q3 1 11.5 2t17.5 2.5t17 2.5t11 1q16 2 28 3t23.5 1.5t23.5 0.5h27h20t20 -1q34 -13 55.5 -35t33.5 -49.5t16.5 -59.5t4.5 -65v-55q-5 -42 -28.5 -78t-65.5 -52q-5 -2 -16.5 -4.5t-19.5 -7.5q-3 0 -11.5 -0.5t-11.5 -0.5 q-17 0 -39 5.5t-41.5 16.5t-33.5 27t-14 38q0 2 1 5t5 3q11 0 21.5 -4t21.5 -4q28 0 44.5 17t16.5 44q0 28 -19 48t-46 20q-42 0 -60 -25t-18 -65q0 -31 14.5 -56.5t37.5 -43.5t51.5 -28t57.5 -10q49 0 94.5 18.5t81.5 50.5t59 75t28 93q0 6 1 21t1.5 31.5t1 31.5t0.5 21 q3 5 6.5 10t5.5 11l61 61q5 4 12.5 10.5t7.5 4.5l4 -3l0.5 -5.5t1.5 -12.5t1.5 -15t1.5 -12q0 -3 -1.5 -16.5t4.5 -20.5l-3 -138q0 -2 -3 -6t-6 -6h-41q-6 -1 -13 -4.5t-7 -10.5q0 -8 5.5 -21.5t14.5 -13.5h53v-210q0 -1 -9.5 -10t-14.5 -14q-2 -2 -10 -7.5t-17.5 -11.5 t-17.5 -10.5t-10 -4.5q-6 0 -17 7.5t-23.5 16.5t-24 18t-18.5 12q-32 13 -67.5 18.5t-69.5 5.5q-38 0 -83.5 -12.5t-85 -35.5t-67 -57t-30.5 -77zM724 416v248q0 7 20 20t45.5 26t50.5 22.5t35 9.5q0 -6 -4 -13t-9 -14t-10 -12t-6 -7q-17 -24 -27 -47.5t-10 -53.5 q0 -18 9.5 -31.5t21 -26t21 -25.5t9.5 -30q0 -12 -6 -25t-16 -23.5t-22.5 -17t-25.5 -6.5h-61z" />
<glyph unicode="S" horiz-adv-x="769" d="M146 -184q42 -11 80 -17.5t80 -6.5h31q5 4 13.5 6.5t18.5 4t19 3t14 3.5q54 14 96 50t74 80q3 4 8 11.5t9.5 14.5t8 12.5l3.5 5.5v10q-3 0 -16 -15.5t-30.5 -35t-35 -38.5t-27.5 -26q-38 -26 -83.5 -42t-91.5 -16q-23 0 -53.5 2.5t-63 9.5t-64 18t-56.5 28.5t-40.5 41 t-15.5 55.5q0 34 15.5 55.5t39.5 33.5t52.5 16.5t55.5 4.5q24 0 50.5 -6.5t51 -17.5t46.5 -27t38 -34h5q21 33 60.5 55t84.5 40l90 36t77 43q4 6 6.5 9t4.5 5.5t5.5 5.5t8.5 9q22 27 31.5 59t9.5 67q0 46 -16.5 79t-44.5 54.5t-65 31.5t-78 10h-36q-29 -12 -59 -22t-59 -19 h-2h-2l-2 1.5t-2 2.5q0 18 0.5 40t0 45.5t-1.5 46.5t-4 43l-1 2t-2 2h-3h-1q-1 -2 -4 -5l-4 -4v-24q0 -38 1.5 -77.5t1.5 -78.5q0 -9 -10.5 -18.5t-25 -16.5t-29.5 -11.5t-24 -4.5q-35 0 -56.5 19t-33.5 47t-16 60t-4 58q0 35 16 59t40.5 40t54 25.5t56.5 16.5h5h3 q16 -17 30 -30t30 -21.5t34.5 -13t42.5 -4.5q19 0 45.5 12.5t50 31.5t40 41t16.5 41q-8 0 -16 -10.5t-19.5 -22.5t-27 -22.5t-36.5 -10.5q-29 0 -46.5 11.5t-28.5 26t-17.5 26t-12.5 11.5q-5 0 -11 -4.5t-12.5 -10.5t-13 -11.5t-12.5 -7.5q-5 -2 -14.5 -6t-19.5 -8l-17.5 -7 t-8.5 -3q-45 -14 -93 -26t-88 -33t-66 -57t-26 -96q0 -42 16 -69t42.5 -43.5t60 -23t68.5 -6.5h37q1 0 7 2t13 4t14 3.5t10 2.5q13 5 22.5 15t23.5 10q5 0 7.5 -4t3.5 -9.5t1 -11.5v-8q0 -27 -4.5 -43t-24.5 -34q-3 -2 -8 -4t-10.5 -3.5t-9.5 -4t-4 -6.5v-2q4 -8 14 -5.5 t15 1.5q13 -2 20 -14t9.5 -27t2.5 -30v-23v-32l-2.5 -2.5t-2.5 -1.5h-1h-2q-1 0 -4.5 1t-7.5 2.5t-7.5 3t-4.5 1.5q-33 9 -70 9q-32 0 -63 -6t-58 -23q-27 -16 -52.5 -32t-46 -35.5t-32.5 -45t-12 -59.5q0 -28 12 -52.5t31.5 -44.5t43 -35.5t47.5 -25.5zM394 146 q0 4 -0.5 16.5t-1.5 26t-1.5 26t-0.5 17.5v10q0 27 16.5 37t39.5 13v8q-20 5 -31 8.5t-21 20.5q0 4 -0.5 15.5t-1.5 24.5t-1.5 24.5t-0.5 16.5v15q0 11 8.5 19t21 13.5t25.5 8.5t22 4q1 1 7.5 1.5t14.5 1.5t17 1.5t14 0.5h2q14 0 25.5 -5.5t21.5 -14.5q38 -35 51.5 -75.5 t13.5 -91.5v-19t-1 -15.5t-2.5 -15.5t-5.5 -18q-6 -18 -23 -40.5t-39.5 -43t-47 -34t-43.5 -13.5h-9q-3 3 -12.5 10.5t-20 16t-19.5 16t-13 10.5z" />
<glyph unicode="T" horiz-adv-x="854" d="M186 19q0 -51 23.5 -88.5t61 -62t83.5 -36.5t91 -12q39 0 78 12t73 34.5t60 54t39 69.5v6q-6 0 -12 -6.5t-11.5 -15.5t-10 -17t-7.5 -11q-23 -29 -59 -50t-71 -32q-9 -2 -25 -4t-27 -8h-44q-39 0 -79.5 9.5t-74 30t-55 52.5t-21.5 76v16t2 24.5t5.5 22t11.5 9.5 q6 0 15 -5.5t19.5 -12t20.5 -13t16 -9.5q53 -23 102.5 -36.5t107.5 -13.5q36 0 64.5 3t53.5 11t50.5 21.5t55.5 34.5q12 8 32 27.5t39.5 42.5t33.5 45t14 36q-9 0 -24 -16t-33 -35.5t-38.5 -35.5t-41.5 -16q-2 0 -5 0.5t-4 4.5q0 7 -1 25.5t-1.5 39t-1.5 39t-1 25.5v29v29 q14 8 16 16t2 20q0 10 -1.5 18t-11.5 14v200q0 3 -4.5 3.5t-6.5 0.5q-10 0 -11.5 -7.5t-2.5 -17.5q2 -40 5 -85.5t3 -87.5q0 -11 -8.5 -20t-8.5 -20q0 -8 5.5 -15t11.5 -12q0 -5 1 -18t2 -28t1.5 -28t0.5 -18q0 -6 -0.5 -22t-1.5 -33.5t-2 -33.5t-1 -22q-3 -7 -13 -7 q-9 0 -15 -5h-122q-29 6 -57 10t-54.5 11t-50.5 21t-46 40v1q0 6 6.5 9t14.5 4.5t16 2t10 0.5q24 0 43 -11t32.5 -24.5t21.5 -24.5t9 -11q5 0 12 5.5t11 7.5q23 17 43.5 36.5t36.5 41.5t25 48t9 57q0 44 -20 71.5t-44 49t-44 41.5t-20 50q0 12 5 25.5t13 25t19.5 19 t24.5 7.5q20 0 38 -4.5t38 -4.5q29 0 58 2t58 14q18 8 37 22.5t34 32.5t25 39.5t10 43.5h-6q-15 -33 -41 -59t-67 -26q-34 0 -67 11t-64.5 27t-62 34.5t-59.5 32.5q-18 2 -28 8t-28 13q-26 9 -54 14.5t-54 5.5q-43 0 -95 -8.5t-97.5 -30t-76 -57.5t-30.5 -91q0 -20 9 -37 t23 -29.5t32.5 -20t36.5 -7.5q12 0 31 4t36 12t29.5 20t12.5 27q-13 0 -24 -12t-24 -17q-17 -8 -27 -8h-26q-38 0 -65.5 18t-27.5 60q0 12 1 21.5t7 21.5q32 34 65.5 53.5t80.5 19.5q29 0 65 -5t61 -19l188 -97q1 -1 8.5 -5.5t7.5 -9.5l-1 -2l-7.5 -7.5t-7.5 -8.5 q-15 -17 -31 -34.5t-29 -36.5t-21.5 -40.5t-8.5 -45.5q0 -28 9.5 -48.5t24 -38t31.5 -32.5t31.5 -30.5t24 -33.5t9.5 -41q0 -10 -2.5 -23.5t-16.5 -13.5q-9 0 -16.5 8.5t-16.5 11.5q-20 5 -40 11t-40 6q-27 0 -52 -11t-50 -11q-9 0 -12 3.5t-10 13.5q-33 44 -43 90t-10 100 q0 69 32 125.5t94 91.5v9q-20 0 -35.5 -13.5t-29.5 -24.5q-43 -32 -73.5 -59t-50.5 -57t-29.5 -68.5t-9.5 -93.5v-11t0.5 -17t0.5 -17v-11q8 -42 29.5 -81.5t47.5 -71.5v-5v-4q0 -1 -2 -5t-4 -8.5l-4 -9t-2 -5.5q-4 -13 -4.5 -28t-0.5 -29z" />
<glyph unicode="U" horiz-adv-x="1038" d="M158 -24q0 -42 23.5 -70t59 -45t75.5 -24t73 -7q80 0 137.5 39.5t103.5 102.5q4 6 7 9.5t3 11.5h-10q-45 -67 -104 -99t-137 -32q-27 0 -64.5 3.5t-72 15.5t-58.5 34.5t-24 60.5q0 33 19.5 52.5t48 29.5t60 13t55.5 3q46 0 83.5 -21t67.5 -53h4q51 55 112 100t119 92h3h2 l2.5 -2.5t1.5 -2.5q8 -16 11.5 -38t8.5 -39q8 -23 29 -43t41 -35q10 -7 14.5 -11.5t15.5 -4.5q5 0 18.5 9.5t31 24t36.5 32t34.5 33t26 26.5t10.5 14h-5q-3 -2 -9.5 -7t-14.5 -10t-14.5 -9.5t-9.5 -6.5q-2 -1 -11 -3.5t-14 -4.5h-3q-16 0 -28 11t-20.5 26.5t-14 32 t-7.5 27.5q-1 3 -2 11t-2.5 16.5t-3 16t-1.5 10.5v121v123q0 4 1 19.5t2 33.5t1.5 33t0.5 19q1 31 5 54t14 42t26 36t40 35v10q-23 0 -50.5 -15t-54 -37t-47.5 -46t-30 -43q-14 -25 -17.5 -57t-3.5 -60v-305q0 -8 -7.5 -17.5t-17.5 -17.5t-20.5 -13t-17.5 -5h-3l-3 29v569 h-12v-618l-2 -2t-3 -2q-15 -14 -25.5 -21.5t-30.5 -19.5q-2 0 -3.5 -0.5t-2.5 -0.5q-2 0 -4 0.5l-2 0.5q-20 6 -39.5 20t-37.5 21q-2 0 -10.5 2t-19.5 4.5l-22 5t-18 4.5q-2 1 -11.5 2t-12.5 3h-5q-42 0 -88.5 -12t-85.5 -36t-64.5 -61t-25.5 -87zM158 352q0 -31 15 -57 t38.5 -44.5t53 -29t58.5 -10.5q18 0 41.5 1.5t47.5 6t45 13.5t35 25q5 6 14.5 16.5t18.5 21t16 18.5t7 9q15 17 25.5 40.5t18 49t11 51t3.5 47.5q0 61 -20 109t-55.5 81.5t-85 51t-108.5 17.5h-12q-9 -1 -33.5 -3t-51.5 -5t-51.5 -5.5t-33.5 -3.5q-8 -5 -16.5 -4.5 t-16.5 0.5q-23 0 -43 3.5t-38 17.5q-4 3 -7 9t-6.5 12t-7 11t-9.5 5q0 -22 8.5 -49.5t24 -52t37.5 -41t49 -16.5h219q42 0 72.5 -20.5t50.5 -52.5t30 -70t10 -72q0 -26 -5 -53t-15.5 -52t-26.5 -46.5t-38 -35.5t-50.5 -15.5t-51.5 -1.5h-32q-11 3 -27 8.5t-31 14t-25.5 20.5 t-10.5 27l1.5 1t2.5 2h2q10 0 19 -2.5t20 -2.5q24 0 47 12t29 38q2 2 2 12v13q0 37 -19.5 53t-55.5 16q-38 0 -63.5 -23.5t-25.5 -64.5z" />
<glyph unicode="V" horiz-adv-x="997" d="M133 -6q0 -45 24.5 -79t61.5 -56.5t80.5 -34t80.5 -11.5q46 0 82 7t67 21.5t59 37.5t58 56q14 14 27 30t13 36q-1 0 -17 -17t-37.5 -39t-45 -43t-38.5 -28q-41 -21 -85 -25t-89 -4q-31 0 -63.5 5t-62 17t-53.5 32.5t-37 51.5q-7 16 -9.5 22t-2.5 19q0 16 6.5 29.5 t16.5 24.5t22 20.5t24 18.5q2 1 6.5 6t6.5 6q21 11 46.5 12t48.5 1q31 0 68 -5t71.5 -17.5t63 -34t43.5 -53.5h3q34 31 76.5 50.5t84.5 38t81 41t68 61.5q21 28 33.5 56.5t12.5 63.5q0 30 -5.5 55.5t-14.5 50.5t-21 50t-25 53q-9 6 -10.5 21t-1.5 24q0 14 10.5 25.5t22.5 22 t22.5 20t10.5 19.5q-20 0 -40.5 -13.5t-39.5 -32t-34.5 -39t-25.5 -34.5q-2 -19 -9 -38t-7 -38q0 -29 8.5 -55t18.5 -51t18.5 -50.5t8.5 -54.5q0 -26 -7 -50.5t-21.5 -45.5t-35 -35.5t-47.5 -20.5q-2 1 -5 5t-3 7v61q-3 4 -3.5 5.5t-0.5 5.5q0 45 2.5 90t1.5 90 q11 11 15.5 20.5t4.5 23.5v8q-1 2 -3.5 6.5t-6 9t-6.5 8.5t-4 5v256q0 5 5 5h7q10 0 15 -4.5t14 -9.5q16 -8 29.5 -14t26.5 -10t26.5 -6t31.5 -2h32q15 4 33 16t33 28.5t25.5 35t10.5 34.5h-13q-5 -13 -18.5 -28.5t-28.5 -15.5q-22 0 -40.5 8.5t-37 19t-37 19.5t-40.5 9 q-36 0 -62.5 -7.5t-47.5 -22t-39 -36t-39 -48.5q-3 -4 -9 -4h-3q-29 35 -69.5 60t-85.5 34h-48h-48q-25 0 -46 -4q-46 -9 -92 -21t-94 -12q-17 0 -29 6t-20.5 13.5t-14.5 13.5t-11 6q0 -14 4.5 -31t8.5 -29q23 -20 36 -34t27 -23.5t33.5 -14t55.5 -4.5q39 0 76 8t76 8 q45 0 77 -16.5t52.5 -44t29.5 -64t9 -76.5q0 -24 -1.5 -46t-7 -42.5t-17 -39t-31.5 -33.5q-26 -21 -47 -29t-52 -8q-18 0 -37 4.5t-36 13t-31 21.5t-21 30q0 2 1.5 8t1.5 8q15 0 29.5 -2t28.5 -2q30 0 44 17t14 47v23q-8 19 -25.5 30t-38.5 11q-36 0 -62 -24t-26 -62 q0 -35 15.5 -61t40.5 -43.5t56 -26t62 -8.5q55 0 102 25.5t80.5 66t52.5 92t19 103.5q0 16 -3.5 32t-7 31.5l-7 31t-3.5 31.5q0 11 7.5 23.5t19 23.5t24 18t22.5 7q6 0 10.5 -1t6.5 -9q0 -10 0.5 -35t1 -53.5t1.5 -54t1 -35.5v-14v-10q0 -4 -0.5 -12.5t-1.5 -18.5 t-1.5 -18.5t-0.5 -12.5q-21 -14 -21 -40q0 -9 4 -14.5t8.5 -10t8.5 -10t4 -13.5v-243q-2 0 -6.5 -1t-5.5 0q-8 3 -17.5 9.5t-20 15t-21 16t-19.5 12.5q-16 7 -36 13t-42 10t-43 6.5t-39 2.5q-33 0 -69 -3.5t-68 -16.5q-24 -10 -52.5 -27t-53 -39.5t-41 -49.5t-16.5 -57z" />
<glyph unicode="W" horiz-adv-x="1111" d="M101 -25q0 -34 15.5 -61t39.5 -47.5t53.5 -34.5t58.5 -23q3 -1 9 -2t7 -1h123q16 0 37.5 9.5t44.5 25t46 35.5t41 41t29 41t11 36q-6 0 -9 -3t-6 -7q0 -1 -2.5 -5.5t-5 -10t-5 -10.5t-2.5 -6q-20 -32 -54 -62t-69 -44q-24 -10 -48.5 -11.5t-49.5 -1.5q-34 0 -77.5 4.5 t-82.5 19.5t-65.5 43t-26.5 75q0 33 20 53t49 31t61 15t56 4q42 0 80.5 -19.5t68.5 -45.5q1 -2 7.5 -9.5t11.5 -7.5q2 0 6.5 2t6.5 3q31 32 66.5 67t71.5 63v2v1q-1 2 -2.5 3t-2.5 2h-1h-2l-10.5 -10.5t-14 -12.5t-15.5 -10t-16 -4q-7 0 -8.5 1.5t-9.5 6.5q-1 1 -5.5 5 t-10 8t-10.5 7.5t-6 3.5q-32 21 -71 29.5t-77 8.5q-37 0 -81.5 -15.5t-83 -42.5t-64.5 -63t-26 -76zM650 143q8 -6 26.5 -20t39 -30t39 -30.5t25.5 -20.5q3 -2 9 -8l12.5 -12.5t12 -12.5t7.5 -8q1 0 2 -0.5t3 -0.5q3 0 3.5 0.5t3.5 4.5q23 27 47 47.5t51 42.5 q25 19 51.5 43.5t48.5 53t36 60t14 65.5q0 32 -6.5 63.5t-22.5 59.5q-7 13 -15.5 26t-16 26.5t-12.5 28t-5 30.5q0 29 14 46.5t35 37.5v8h-12l-4.5 -3.5t-10 -8t-11.5 -9.5t-10 -8q-1 -1 -4 -5.5t-4 -6.5q-32 -36 -52.5 -74.5t-20.5 -89.5q0 -31 9.5 -57.5t21 -51.5 t21 -50.5t9.5 -54.5q0 -34 -10.5 -60.5t-38.5 -49.5q-9 -8 -14.5 -12t-15.5 -4q-9 0 -19 7t-20.5 17t-22 19t-22.5 14q-6 4 -21 15.5t-32 23.5t-32 23t-21 16q-24 19 -32.5 35t-8.5 45v21q2 5 9.5 17t11.5 16v6q-15 0 -28.5 -18.5t-23 -43t-15.5 -49t-6 -35.5q0 -26 7 -45 t21 -39zM167 359q0 -21 9.5 -42t25 -39.5t35 -32t39.5 -17.5q10 -2 17.5 -3t13.5 -1h15h20q54 0 100 21t82 65q27 39 46 82.5t19 93.5q0 32 -7 61t-13 59v10q0 10 10.5 23t25 24t30 18.5t25.5 7.5q21 0 38.5 -6t34 -14.5t33 -18t34.5 -15.5q29 -9 60 -16.5t60 -7.5 q48 0 90.5 24t67.5 65q2 4 5.5 10.5t6.5 13t5.5 11.5l2.5 5v10q-7 0 -14.5 -11t-19.5 -24.5t-29.5 -24.5t-44.5 -11q-16 0 -31 5.5t-29.5 14t-28.5 17.5t-27 16q-24 14 -50.5 19.5t-53.5 5.5q-35 0 -64 -9.5t-55 -25t-49 -37t-45 -45.5q0 -2 -3 -2q-4 0 -8.5 5t-9 11 t-8.5 12.5t-7 9.5q-40 35 -90.5 52t-102.5 17h-3q-9 -1 -22.5 -2t-26 -2.5t-22 -2.5t-10.5 -1q-8 -2 -29 -6t-44.5 -8.5t-44.5 -8.5t-29 -6h-18q-20 0 -37.5 10.5t-21.5 33.5h-12q0 -33 13 -59.5t35.5 -46t51 -30t60.5 -10.5q39 0 76 6.5t75 6.5h39q32 -9 56.5 -28t41 -45 t24.5 -57t8 -62q0 -39 -7.5 -73.5t-25.5 -61t-47 -41.5t-72 -15q-35 0 -62.5 10.5t-50.5 39.5q-2 2 -5 8.5l-3 6.5l5 6h52l3.5 2.5t5.5 4.5q19 18 30 30t11 38q0 31 -24 44.5t-51 13.5q-34 0 -57 -24t-23 -57zM788 290q0 -10 -3.5 -18l-7 -16l-7 -16t-3.5 -17q7 0 13 7t8 11 q27 31 48.5 67t21.5 81q0 43 -18 68.5t-39 44.5t-39 37.5t-18 46.5q0 14 6.5 25t6.5 24h-13l-4.5 -4t-10.5 -10l-12 -12l-10 -10q-14 -17 -23.5 -38t-9.5 -43q0 -30 5 -55t21 -51q8 -15 23 -29t29.5 -28.5t25 -30t10.5 -34.5z" />
<glyph unicode="X" horiz-adv-x="928" d="M48 -65q13 -23 33.5 -41.5t45 -32t51.5 -21t52 -7.5q37 0 71.5 6t66 19.5t59 35.5t48.5 53q10 14 19.5 31.5t9.5 35.5q-5 0 -10.5 -8t-11 -18.5t-10.5 -21t-9 -15.5q-26 -28 -51.5 -45.5t-53.5 -27t-60 -13t-71 -3.5q-30 0 -62 8t-58 24.5t-42.5 41.5t-16.5 60 q0 27 12.5 44t31.5 27t41.5 14t42.5 4q35 0 57.5 -4t40.5 -13.5t35 -25t40 -38.5h3h1l8 8q30 37 56.5 66t61.5 64q9 10 15.5 24t16.5 21q11 -7 17.5 -23t11.5 -26q19 -32 38 -52t52 -37q23 -13 55 -28t58 -21h5q6 0 6.5 2t5.5 10q20 35 39 60.5t46 61.5q8 11 19 28.5 t11 31.5h-10q-16 -32 -39 -50t-59 -18q-20 0 -31.5 5t-28.5 15q-30 17 -48.5 40.5t-28.5 51.5t-13.5 59.5t-3.5 64.5q0 2 -0.5 8.5t4.5 7.5q74 -1 108.5 30.5t34.5 107.5q0 10 -0.5 17.5t-3.5 18.5q-1 1 -5 1q-5 0 -6.5 -5.5t-2 -12.5t0 -12.5t0.5 -6.5q-4 -14 -16.5 -21 t-27.5 -9.5t-30.5 -2t-25.5 0.5h-14t-12 8q0 4 -2 18t-2 18v6q0 7 3 30.5t8.5 49t14.5 45.5t21 20l0.5 -0.5t1.5 -0.5q18 -14 36.5 -27.5t43.5 -13.5q23 0 43.5 14.5t35.5 36t24 47t9 46.5q-10 0 -14 -7.5t-10 -16t-16.5 -16t-32.5 -7.5q-13 0 -23 8t-17.5 17.5t-13 17.5 t-8.5 8h-2t-2 -1q-23 -40 -52 -76t-53 -74q-4 -4 -5 -4q-7 4 -11 10.5t-7.5 14l-7 15t-7.5 13.5q-27 36 -63 54.5t-78 30.5h-53q-38 0 -75.5 -5.5t-74.5 -11.5t-74 -11.5t-75 -5.5q-2 0 -13 1t-13 1q-4 3 -9 9.5t-10.5 13t-11 12t-11.5 5.5q0 -28 11 -53.5t30 -44.5t44 -30 t53 -11q45 0 88 6.5t88 6.5h33q3 0 12.5 -1.5t19.5 -2.5t19.5 -2.5t12.5 -1.5q22 -5 35 -21.5t20 -37.5t9 -43.5t2 -40.5q0 -2 -0.5 -8.5l-0.5 -6.5l-3 -5q-28 3 -53.5 -4.5t-45.5 -23.5t-32 -39.5t-12 -51.5q0 -14 1 -25t4 -27h3q4 22 15 36.5t27 23t35.5 12t39.5 3.5h11 t10 -1l5 -4l1 -12.5t3 -19.5v-3v-2q-1 -8 -1.5 -21t-1 -25.5t-1 -21.5l-0.5 -9q-2 -12 -6.5 -35.5t-12.5 -47.5t-19.5 -42t-26.5 -18h-5t-3 1q-2 0 -11 7.5t-10 8.5q-28 17 -60 27t-64 10q-34 0 -75.5 -13.5t-77.5 -38t-60.5 -58t-24.5 -73.5q0 -13 4 -28.5t8 -28.5z" />
<glyph unicode="Y" horiz-adv-x="980" d="M400 -85q32 0 57 -5t51 -24q5 -4 14.5 -16.5t19.5 -26t17.5 -24t9.5 -10.5q7 0 16.5 5.5t19 12.5t19 13.5t18.5 9.5l154 44q11 11 25.5 14.5t26.5 9.5q45 25 74.5 57t44.5 83v32q0 19 -1.5 38t-15.5 35q-11 14 -22 24.5t-19.5 21t-14 23.5t-5.5 32v386q0 13 3 32t9 33 q4 8 14.5 17.5t21.5 18.5t19.5 18t8.5 16q-26 0 -59.5 -17.5t-63 -44.5t-50 -58.5t-20.5 -58.5v-410q0 -13 -5.5 -26t-14.5 -24.5t-20 -21t-22 -14.5q-2 2 -4.5 6t-2.5 6v45l-5 8v528l-3 69l-3 1l-2 -1q-4 0 -4 -4l3 -398v-28l1 -232q0 -3 -2.5 -3.5t-4.5 -0.5h-5 q-11 6 -24.5 14.5t-23.5 17.5q-7 3 -23 10t-34 14.5t-34.5 14.5t-22.5 10q-6 2 -15 6t-17.5 8.5t-14.5 10t-6 11.5v5q86 36 122.5 106.5t36.5 159.5q0 75 -21.5 126.5t-60.5 83.5t-94 46t-123 14h-41q-21 0 -38 -8l-171 -20h-2q-12 0 -19.5 7.5t-13.5 17t-12 17t-16 7.5 q0 -23 8 -48t23 -46t36.5 -35t48.5 -14h126l8 4q0 1 8 1h12h55t55 -9q36 -14 60 -37t37.5 -52t19 -63t5.5 -68v-15v-18t-0.5 -16t-0.5 -8q0 -13 -3.5 -32.5t-11.5 -37.5t-21 -31t-32 -13q-7 0 -10.5 5t-5 11.5t-1.5 13.5v12q0 31 17 57q3 4 8.5 8t11 8.5t9.5 9.5t4 11 q-17 0 -32 -10.5t-27 -26t-20 -33.5t-12 -32q-1 -8 -4 -25t-8 -28q-2 0 -9 -0.5t-9 -0.5q-12 0 -30.5 6t-36 16t-29.5 23.5t-12 28.5q0 1 2 2.5t3 1.5q24 -2 43.5 -1t33.5 8.5t21.5 22.5t7.5 42q0 29 -19.5 45.5t-48.5 16.5q-15 0 -30 -6.5t-27 -17t-19.5 -25t-7.5 -30.5 q0 -34 15 -61t39.5 -46t55.5 -30.5t62 -14.5q3 -2 9 -16t15 -31.5t20 -32.5t24 -18l114 -78l33 -32h8q32 36 69.5 61.5t72.5 56.5q4 3 11 9.5t12 10.5t6 5h8q6 -9 19 -24.5t25.5 -31t22.5 -28.5t10 -18v-65q0 -15 -19 -31t-44 -29t-50 -21.5t-37 -8.5h-12q-23 25 -42.5 42 t-41 27.5t-47.5 15.5t-60 5h-41q-49 -8 -99 -29.5t-88 -52.5q-8 -6 -20.5 -17t-24 -22t-20 -19.5t-8.5 -9.5v-8h8q21 19 42 36.5t44 31t48.5 21.5t54.5 8z" />
<glyph unicode="Z" horiz-adv-x="692" d="M12 7q0 -48 24 -82t61 -55.5t81 -31.5t85 -10q89 0 151.5 43t109.5 116q10 15 10 29h-6q-1 -1 -7 -10l-15 -22.5t-14 -20.5q-28 -42 -66 -61t-85 -29q-4 -1 -17 -1.5t-19 -7.5h-39q-35 0 -77.5 4.5t-79 19t-61 42.5t-24.5 75v23q9 17 24.5 30t35 21.5t40 13t38.5 4.5 q41 0 81 -9.5t77 -23.5q10 -3 22.5 -13.5t24.5 -21t21.5 -19t11.5 -8.5q6 0 9.5 10t4.5 12l20 20q18 15 33.5 25.5t32 18.5t34.5 16t40 17q53 23 79 70t26 103q0 59 -31.5 100t-87.5 64q-1 1 -8 2.5t-15 4t-14.5 5.5t-6.5 6v3q0 1 2 2l2 1q26 16 46 28.5t40 37.5 q13 17 18.5 39t5.5 42q0 28 -11 54t-29.5 47t-44 35.5t-53.5 18.5q-22 3 -45.5 3.5t-45.5 0.5q-36 0 -71.5 -6t-71 -12.5t-70.5 -12.5t-70 -6q-20 0 -33.5 9.5t-23 21t-15 21t-8.5 9.5q-6 0 -6 -8q0 -26 12.5 -46.5t32 -37t42 -28t43.5 -18.5q3 -1 9.5 -2.5t7.5 -1.5h109 q23 8 47 8h49h50q41 -5 61.5 -26.5t20.5 -63.5q0 -29 -10.5 -52t-28.5 -38.5t-42.5 -23.5t-52.5 -8q-3 0 -9.5 0.5l-6.5 0.5l-5 3v147q0 6 -2 7.5t-7 1.5t-8.5 -1.5t-6.5 -7.5v-16q0 -23 2.5 -46t2.5 -46q0 -4 -0.5 -19t-0.5 -20q-1 -3 -5 -3h-6q-4 0 -13.5 0.5t-19.5 2 t-17.5 5t-7.5 10.5q0 3 6 7.5t13 12t13 18t6 23.5t-6.5 23.5t-17 17.5t-23 10.5t-24.5 3.5q-21 0 -33 -11t-24 -26v-22q0 -32 17.5 -50.5t38 -28.5t38 -14.5t17.5 -8.5q0 -5 -5 -6.5t-7 -3.5q-3 -2 -9 -5.5t-12 -7.5l-10.5 -7t-5.5 -4q-20 -15 -43 -37t-31 -45v-4h12 q12 13 30 30t38.5 32t42 25.5t41.5 10.5q1 0 6.5 0.5t5.5 -4.5v-85q-13 -7 -17.5 -13.5t-4.5 -17.5t4.5 -17.5t17.5 -12.5v-74l-5 -3q-45 1 -89.5 -2.5t-89.5 -18.5q-24 -8 -50.5 -24t-48.5 -38t-36.5 -48t-14.5 -53zM358 214q0 11 0.5 29t2.5 25q1 2 10 10t11 10l0.5 3 t0.5 5q0 15 -4.5 18t-12.5 15q-10 14 -9 34t1 37v14l12 12q1 0 10 0.5t14 0.5q24 0 47 -4t42.5 -14t34.5 -26.5t22 -41.5q1 -5 3.5 -12.5t4.5 -15.5l3.5 -14t1.5 -7v-106q0 -10 -7 -24.5t-17 -28t-22 -23t-22 -9.5q-4 0 -11 5t-13.5 11t-12.5 12t-9 8q-12 9 -26 15.5 t-26.5 15t-20.5 19t-8 27.5z" />
<glyph unicode="a" horiz-adv-x="570" d="M353 150q1 0 5 -4q3 -8 3.5 -13.5t0 -11t-1 -11.5t0.5 -16q2 -25 18.5 -42.5t34.5 -31.5q6 -5 18.5 -12.5t13.5 -7.5h9l8.5 8.5l20 20l24 24l20.5 20.5q3 3 8 8.5t9.5 10.5t8 9t3.5 5v9q-7 0 -13 -4t-11.5 -9t-12 -9t-15.5 -4q-17 0 -31 12t-19 29q-2 39 -3.5 70t-1.5 66 q0 5 0.5 13.5l0.5 8.5q0 7 0.5 19t1.5 23t1.5 19t0.5 9l61 61v1q0 7 -8 7t-14.5 -2.5t-14.5 -2.5q-20 0 -39 8t-36.5 20t-33.5 26.5t-29 27.5l-3.5 3.5t-5.5 4.5h-3q-4 0 -5.5 -1t-6.5 -3q-26 -17 -46.5 -29.5t-47.5 -23.5q-3 -1 -14 -5t-24 -9t-24.5 -9.5t-14.5 -5.5 q-20 -10 -43 -30t-43.5 -45t-34 -52.5t-13.5 -52.5q0 -5 0.5 -8t3.5 -6q-2 -48 6 -92t43 -79q9 -10 21.5 -15.5t22.5 -13.5q8 -5 18 -15t21 -10q1 0 3.5 0.5l2.5 0.5q4 3 13.5 11t20.5 16t21 15.5l14 10.5q9 6 28 21t39.5 30t38.5 26.5t24 11.5zM94 245q0 27 2.5 52.5 t10 48.5t22.5 42.5t41 33.5q1 1 8 3t15 5t16.5 5.5t13.5 3.5h6q37 0 70.5 -19.5t58.5 -46.5q0 -7 0.5 -26t1 -40.5t1 -40.5t0.5 -26v-29v-29q-2 -9 -9 -14t-15 -10q-12 -8 -27 -19.5t-31.5 -22.5t-34 -19t-35.5 -8q-30 0 -51.5 15t-35.5 38t-21 50.5t-7 52.5z" />
<glyph unicode="b" horiz-adv-x="505" d="M12 97q30 0 56.5 -6t51.5 -15.5t49.5 -22t50.5 -25.5q7 -5 20.5 -13.5t21.5 -8.5q3 0 7.5 1.5t2.5 8.5q33 37 71.5 67.5t71.5 64t55 74t22 97.5q0 40 -18 71t-48 56q-17 14 -31.5 21t-28.5 24q-1 0 -6.5 10t-7.5 10h-3q-23 -18 -40.5 -33t-44.5 -28q-2 -1 -10 -4t-10 -4 q-3 -2 -11 -7.5t-16.5 -12t-15.5 -12.5t-10 -9h-4q-9 0 -11 9.5t-2 15.5v211q0 43 28 72.5t70 29.5q6 0 18.5 -1.5t25 -5.5t21.5 -10t9 -16v-4q-25 -3 -47.5 -15t-22.5 -40q0 -26 19 -40.5t45 -14.5q29 0 42 20.5t13 46.5q0 23 -11.5 40t-29.5 28.5t-39.5 17.5t-40.5 6 q-35 0 -67 -12t-57 -33t-41.5 -50t-19.5 -63q0 -3 -1.5 -13t-2.5 -12v-378q0 -24 -11.5 -40t-25.5 -25.5t-25.5 -14t-11.5 -7.5q0 -1 0.5 -3.5zM179 162v80q0 2 -0.5 11t-1.5 19.5t-2 20t-1 11.5v2v2q0 3 1 12t1.5 18.5t1.5 18t1 11.5q18 20 39.5 39t50.5 19q35 0 61.5 -16 t44 -42t26.5 -58t9 -63q4 -4 4 -7v-7q0 -44 -22.5 -77.5t-54.5 -58.5q-7 -6 -8.5 -7.5t-9.5 -1.5t-28 8.5t-43 20.5t-43 24.5t-26 20.5z" />
<glyph unicode="c" horiz-adv-x="362" d="M12 258q0 -58 11 -99t35.5 -70.5t63 -49t93.5 -35.5h3q6 0 9 3q18 31 42.5 51.5t50.5 42.5q3 3 8 7.5t9.5 9l8 8t3.5 4.5v8h-5q-16 -12 -29.5 -20t-27 -12.5t-29 -6.5t-36.5 -2t-39 10t-32.5 25.5t-25 34t-16.5 36.5q-4 11 -4 26q0 16 -8 27v27q0 17 0.5 38t3.5 35 q2 10 9 24t17 27t21 22t22 9h4q22 -14 39 -23t45 -9q16 0 31 10.5t26.5 26t18.5 33.5t7 32q-5 0 -9.5 -4t-8.5 -10t-7.5 -11.5t-7.5 -8.5h-18q-16 0 -26 6t-16.5 12.5t-10.5 12.5t-8 6h-2q0 -1 -1.5 -2t-2.5 -3q-19 -23 -38 -35t-43 -29q-21 -15 -44 -35t-42 -43t-31.5 -50 t-12.5 -56z" />
<glyph unicode="d" horiz-adv-x="468" d="M12 228q0 -67 30 -116t91 -76q6 -3 15.5 -7.5t20.5 -9.5t21.5 -8.5t18.5 -3.5h2q1 0 4 2l3 2q2 1 7.5 6.5t12 11.5t11.5 11.5t7 7.5q20 18 48.5 30t51.5 26q26 15 45 37t31 47.5t17.5 54t5.5 56.5q0 60 -26 103t-65.5 75.5t-85.5 57.5t-85.5 48.5t-65.5 48.5t-26 58 q0 27 16.5 43.5t43.5 16.5q22 0 32.5 -10t24.5 -27h9q9 0 11 2.5t2 11.5q0 16 -13.5 29.5t-29.5 13.5q-59 0 -94 -32t-35 -94q0 -25 10.5 -47t26.5 -40.5t34.5 -34t34.5 -27t26.5 -18.5t10.5 -9v-2q-2 -4 -5 -4q-14 -8 -28 -14.5t-28 -14.5q-3 -2 -14 -7.5l-15 -7.5 q-26 -17 -49.5 -38.5t-39.5 -47.5q-14 -25 -17 -50.5t-3 -53.5zM85 277q0 33 5.5 56t17.5 40.5t31.5 32t46.5 31.5q10 6 24 13.5t25 7.5q5 0 6 -1t6 -3q63 -35 99 -85.5t36 -124.5q0 -33 -6 -61.5t-21 -49t-39 -32.5t-60 -12q-43 0 -75 14.5t-53.5 40t-32 60t-10.5 73.5z " />
<glyph unicode="e" horiz-adv-x="366" d="M12 263q0 -67 10.5 -107t33.5 -66t60 -44.5t90 -41.5h4q32 33 65.5 64.5t68.5 61.5q5 5 7 8.5t2 10.5q-9 0 -16 -4.5t-14 -10.5t-13.5 -12t-14.5 -9q-16 -8 -29 -8.5t-30 -0.5q-22 0 -44.5 8.5t-41 23.5t-30 35.5t-11.5 45.5q0 9 12.5 13.5t29.5 7t34 4.5t25 5 q23 9 45 23t39 32.5t27.5 41t10.5 48.5v24q-14 39 -44 60t-65 38q-1 1 -5 1q-5 0 -9.5 -5.5t-9 -12.5t-9 -13.5t-8.5 -9.5q-30 -20 -60.5 -40t-54.5 -45t-39.5 -55.5t-15.5 -70.5zM166 433q36 0 60.5 -23.5t24.5 -59.5q0 -25 -13 -45t-32.5 -34t-43.5 -21.5t-46 -7.5h-3 q-4 3 -10 9t-6 8v101q0 30 20 51.5t49 21.5z" />
<glyph unicode="f" horiz-adv-x="386" d="M97 77v-268q0 -2 3 -6.5t7 -4.5q0 31 -0.5 65t4 66.5t17 62t38.5 52.5q5 4 16.5 10l23 12t20.5 11t9 6v1q-21 7 -29.5 18t-11.5 24.5t-3.5 29.5t-4.5 34v276l8 9h82l1 7t3 12v2v2q-2 4 -3 9l-1 5h-82l-1.5 2t-1.5 4q-1 2 -3 5t-2 4v137q0 5 5.5 10.5t8.5 5.5h3 q11 -14 27.5 -27t37.5 -13q16 0 35 7.5t34.5 20.5t26 30t10.5 35h-6q-2 -4 -11 -13.5t-13 -10.5q0 -1 -6 -1h-8q-16 0 -25.5 7t-16 16t-11 16t-8.5 7h-1q-20 -25 -41.5 -38.5t-41.5 -23.5t-37.5 -19t-30.5 -24.5t-19 -40.5t-4 -66q-7 -5 -9.5 -13.5t-4.5 -16.5h-60 q-3 0 -5.5 -8.5t-2.5 -11.5q0 -12 8.5 -16.5t20.5 -5.5t24.5 -0.5t19.5 -0.5q4 0 4 -3q1 -4 3 -15.5t2 -13.5v-174q2 -4 2.5 -6t0.5 -7v-8q0 -6 -0.5 -28.5t-1 -48t-1 -48t-0.5 -28.5v-3v-2q0 -4 3 -7z" />
<glyph unicode="g" horiz-adv-x="538" d="M44 -82q0 -31 13.5 -54t35 -39.5t48.5 -27.5t53 -17h59q49 0 97.5 11.5t87 37t62.5 65.5t24 96q0 25 -8 50t-20 45q-6 9 -12.5 16t-12.5 14t-10.5 15.5t-5.5 19.5q-2 27 -2.5 49.5t-1.5 44.5t-1 43v47q0 8 0.5 23t0.5 16l4 12l56 61v17q-6 0 -11.5 -2.5t-12 -6t-14.5 -6 t-19 -2.5q-45 0 -87 17.5t-71 52.5q-1 0 -4 0.5t-4 0.5q-4 0 -17.5 -7.5t-28.5 -17t-27.5 -19.5t-15.5 -15q-47 -21 -82.5 -42.5t-58.5 -50t-34.5 -67t-11.5 -92.5q0 -72 41 -121t109 -69h5q7 0 13.5 10t10.5 15l36 36q29 23 58 42.5t56 42.5q2 3 7 5.5l5 2.5l5 -3 q-3 -39 4.5 -78t39.5 -65q1 0 2.5 -2l1.5 -2q10 -14 16.5 -26.5t10 -25.5t5 -28t1.5 -34q0 -12 -8.5 -26t-16.5 -23q-19 -21 -38 -33t-40 -18t-44.5 -8t-51.5 -2h-9h-14q-7 0 -13.5 0.5t-9.5 0.5q-24 5 -51 15.5t-42 32.5q1 4 13.5 5.5t27.5 6.5t27.5 15t12.5 30 q0 29 -17.5 47.5t-46.5 18.5q-11 0 -24 -2.5t-24 -8t-18.5 -15t-7.5 -24.5zM97 292q0 22 9 48t25.5 49t39 38.5t49.5 15.5h3q3 -1 15.5 -7.5t17.5 -9.5q9 -5 24 -13.5t29 -17t25 -15t12 -7.5l7 -7l0.5 -11.5t1.5 -27.5t1.5 -32.5t1.5 -26.5v-36v-24l-5 -14l-4 -4.5t-10 -10 t-12 -11.5l-10 -10q-26 -23 -54.5 -37.5t-63.5 -14.5q-33 0 -53 20t-31 49t-14.5 61t-3.5 56z" />
<glyph unicode="h" horiz-adv-x="521" d="M280 -179q9 -20 25 -36.5t41 -16.5q10 0 12.5 6t2.5 15q0 14 -10 18l-22.5 9t-22.5 15.5t-10 36.5q0 34 14.5 62.5t35.5 54t45 49t43 46.5q32 39 53 90.5t21 101.5q0 33 -10 61t-27.5 52t-39.5 44.5t-46 40.5q-2 2 -5.5 6.5t-7 9.5t-6.5 9t-5 4t-9.5 -7t-16 -16l-17 -18 t-13.5 -12q-28 -17 -59 -30t-60 -27h-1h-3q-3 3 -3 5q-5 37 -5 76v76v91q6 44 29.5 73t73.5 29q28 0 47 -10t37 -31q1 -2 2.5 -4.5t1.5 -3.5t-1.5 -3t-2.5 -2q-12 1 -28 1t-30.5 -4.5t-24.5 -14t-10 -26.5q0 -30 18.5 -45.5t45.5 -15.5q10 0 21 3.5t21 10t16.5 16t6.5 20.5 q0 60 -37.5 90.5t-94.5 30.5q-58 0 -98 -37q-27 -23 -43.5 -45.5t-26.5 -47t-13.5 -53.5t-3.5 -65q0 -20 2.5 -38.5t2.5 -37.5v-1q0 -1 -1.5 -6t-3.5 -6q0 -1 -1.5 -4t-1.5 -4q0 -2 1 -5t2 -4q1 -7 1.5 -24.5t1.5 -38t1.5 -38.5t0.5 -25v-44q0 -31 -0.5 -52t-7 -36 t-21.5 -25t-44 -20v-5q0 -6 4 -9q37 -3 68 -10.5t66 -21.5l15 -7.5t23.5 -12t22.5 -11.5t13 -5t12.5 9t22 23t26.5 31t25.5 33t19 28.5t7.5 17.5h-8q-6 -6 -12.5 -15t-14 -16.5t-16 -13t-17.5 -5.5q-8 0 -21.5 4.5t-28 11t-26 13.5t-14.5 13v125q0 2 -0.5 8t-1.5 13t-2 12.5 t-1 7.5v5v3q1 8 2.5 22t2.5 14q4 11 15.5 20.5t25.5 16t28.5 10t25.5 3.5q34 0 61.5 -17.5t47 -45t29.5 -60.5t10 -63q0 -57 -20 -105t-49 -95l-27 -40.5t-24 -40t-17.5 -42.5t-6.5 -49q0 -3 1 -13.5t1 -13.5z" />
<glyph unicode="i" horiz-adv-x="313" d="M113 113q4 -15 12.5 -34t20.5 -35.5t27.5 -28t32.5 -11.5q6 0 6.5 1.5t5.5 6.5q4 4 14.5 15.5t22.5 24.5t22.5 24t14.5 16q3 7 5.5 12t2.5 11q-6 0 -10.5 -3.5t-8 -8t-8 -8t-11.5 -3.5q-21 0 -34 15t-18 35q-1 29 -1.5 54.5t-1 50l-1 49t-0.5 51.5v42l4 7l61 61v10 q-13 0 -20 -5.5t-21 -5.5q-17 0 -31.5 9.5t-26.5 21.5t-21 21.5t-15 9.5h-3q-2 -2 -7 -6t-10.5 -8.5t-11 -8.5t-7.5 -5q-2 -2 -9 -6.5t-15.5 -10t-15.5 -10.5t-9 -6q-3 -3 -9.5 -7.5t-12.5 -10t-11 -12t-5 -12.5q16 0 28.5 9t28.5 9q13 0 26.5 -10.5t15.5 -21.5 q-1 -71 0.5 -145t3.5 -143zM109 686q0 -25 16.5 -40t42.5 -15q20 0 37.5 17.5t17.5 37.5q0 15 -9.5 30.5t-22.5 20.5h-23q-28 0 -43.5 -11t-15.5 -40z" />
<glyph unicode="j" horiz-adv-x="342" d="M60 -136q0 -23 10 -40t26.5 -28.5t36.5 -17t41 -5.5q24 0 51.5 14t50.5 35t38 46.5t15 49.5v5q0 4 -1 16t-1.5 25t-1.5 24.5t-1 16.5q-12 31 -25.5 50t-39.5 42q-8 8 -19 14.5t-13 18.5q-2 56 -3 100t-1 94v34q0 6 1.5 18.5t2.5 13.5l69 68v4q0 10 -8 10q-1 0 -2.5 -1 t-2.5 -1q-7 -3 -10.5 -6.5t-7 -6.5t-8 -5t-12.5 -2q-17 0 -32.5 7t-29.5 17.5t-26.5 22.5t-23.5 23l-7 -5q-2 0 -13 -10t-25.5 -23.5t-28.5 -27.5l-23 -23q-3 -3 -7 -8.5t-7.5 -11t-6.5 -9.5t-3 -5v-8q9 0 15 5t12 11.5t14 11.5t20 5q18 0 33 -12l7 -7l8 -8l7 -7l3 -3v-101 l1 -12l1 -166q0 -29 9.5 -44t23 -24.5t29 -18t28.5 -23.5q14 -17 21.5 -36t19.5 -37v-29q0 -45 -27.5 -75t-74.5 -30q-10 0 -21 2t-20 6.5t-15 11.5t-6 18q17 0 32 0.5t26 5.5t17.5 16t6.5 32q0 26 -17.5 38.5t-40.5 12.5q-30 0 -47 -20.5t-17 -47.5zM96 684 q0 -14 5.5 -23.5t14.5 -14.5t20.5 -7t23.5 -2h26q34 17 34 52q0 26 -16 38t-42 12t-46 -14t-20 -41z" />
<glyph unicode="k" horiz-adv-x="533" d="M12 84q21 -3 40 -10t37 -18q9 -5 18 -13t18.5 -16t18.5 -14t18 -6q6 0 10 6t7 11l92 104v14h-3l-23.5 -23.5t-27.5 -10.5q-5 0 -13 1t-15.5 4t-13 7.5t-5.5 12.5v106l1.5 1.5t2.5 1.5q26 14 53 26t56 12t40.5 -19.5t14 -46t1 -54t2.5 -44.5q5 -25 19.5 -48t36.5 -37 q8 -5 21 -12.5t24 -7.5h4q2 3 6.5 10t10 15t10 14.5t6.5 9.5q11 15 26 32.5t15 38.5q-8 0 -13 -5t-9 -10.5t-9.5 -10.5t-14.5 -5q-15 0 -24.5 9.5t-15.5 23.5q-1 33 -3.5 60t-12 47.5t-29.5 33.5t-57 18l-1 3q0 2 15.5 11t34 25.5t34 40t15.5 55.5q0 20 -11.5 38t-28.5 32 t-37.5 22t-38.5 8q-12 0 -19 -13t-15 -20q-24 -21 -49.5 -38.5t-48.5 -39.5h-12q-5 29 -4.5 57t0.5 57q0 34 -0.5 69t7.5 63.5t30 46t67 17.5q5 0 15 -1.5t19.5 -4.5t17 -8.5t7.5 -13.5v-1q-9 -2 -21.5 -5t-23 -8t-18 -14t-7.5 -22q0 -31 19 -46t48 -15q25 0 42.5 15.5 t17.5 40.5q0 24 -11.5 42.5t-30 31t-41 19t-44.5 6.5q-32 0 -65 -13t-60 -36t-44 -53.5t-17 -64.5v-198q-4 -3 -12 -11t-8 -16q0 -11 5 -14.5t10 -11.5q4 -5 4 -12q0 -6 -0.5 -12t0 -11t5.5 -9l-4 -126q0 -14 -10 -24.5t-21 -18.5t-20.5 -14t-9.5 -11v-2zM166 317v31 q1 8 2 21.5t2 14.5q6 13 18.5 24t27.5 19.5t31 13.5t30 5q30 0 53 -18.5t23 -50.5q0 -31 -16.5 -49t-41 -27t-52.5 -11.5t-51 -2.5h-18l-8 8v22z" />
<glyph unicode="l" horiz-adv-x="383" d="M16 89q37 -5 71 -14t67 -27q3 -2 12.5 -7.5t21 -12t20.5 -11.5t10 -5q3 0 20 18t36.5 41t35.5 44.5t16 28.5q-9 0 -15.5 -5t-13 -11t-14 -11t-17.5 -5q-2 0 -8 0.5t-6 1.5l-70 36q-5 3 -6 10t-2 10q2 93 -1 184t-3 185v57q1 27 2 51.5t8.5 43t25 29.5t50.5 11 q18 0 35.5 -4.5t28.5 -20.5l-3 -4q-13 -1 -26.5 -3t-25 -7.5t-19 -15.5t-7.5 -26q0 -58 59 -58q12 0 24.5 3.5t23 10t17.5 17t7 24.5q0 24 -10 42t-26 31t-37.5 19.5t-43.5 6.5q-30 0 -61 -12.5t-56 -33.5t-40.5 -50t-15.5 -62v-418q0 -19 -10.5 -31.5t-23.5 -21t-23.5 -14 t-10.5 -8.5v-1q0 -2 2 -3t2 -2z" />
<glyph unicode="m" horiz-adv-x="973" d="M53 96v-1q0 -1 1.5 -2.5t1.5 -2.5q28 -8 44.5 -13t28 -13.5t21.5 -24t25 -43.5l1.5 -1.5t2.5 -1.5h2q4 0 7.5 6t6.5 14.5t6.5 16.5t6.5 12q1 2 5.5 6.5l9 9l8 8l4.5 4.5q4 3 16.5 7.5t25.5 9t23 8.5t10 6q0 5 -12 8t-27 8.5t-29 15t-19 27.5q0 8 -0.5 28t-1 43t-1 43 t-0.5 28v28v29q0 1 1 4t2 4q11 13 24.5 26t29 23.5t32.5 17t35 6.5q42 0 61.5 -21t26.5 -52t5.5 -66.5t-1.5 -65.5v-12v-20q0 -10 -0.5 -19t-1.5 -12q-3 -17 -10.5 -27t-18 -17.5t-23 -13t-24.5 -12.5v-1v-3l3 -3q18 -4 31.5 -8t25 -10t22.5 -15.5t23 -24.5q3 -3 5 -9.5 t5 -13.5t6.5 -12.5t8.5 -5.5q1 0 9.5 16.5t24 36t39 35t53.5 14.5l4 4v2v3q0 1 -2 2l-2 1q-9 3 -23 7t-26.5 11t-22 16.5t-9.5 23.5v194q0 2 7.5 11l12.5 15q17 18 40 33.5t49 15.5q6 0 24 -4.5t37 -11.5t34 -15t15 -15l9 -264q7 -11 15.5 -29.5t19.5 -36.5t24.5 -31 t31.5 -13h6l10.5 10.5t16 15.5t16 16t10.5 11q1 1 3 4.5t4.5 7.5l5 8t2.5 5q15 17 24.5 24t9.5 27q-8 0 -12 -5t-8.5 -10.5t-11.5 -10.5t-20 -5q-12 0 -21.5 7t-16.5 17.5t-11.5 22.5t-5.5 22q0 7 -0.5 24.5t-1 37t-1 36.5t-0.5 24v44v45q1 2 4 6.5t4 6.5q3 4 11.5 14.5 t18.5 22t19 22t12 14.5v17q-4 0 -8.5 -5.5t-10.5 -11.5t-14.5 -11.5t-21.5 -5.5h-6q-4 1 -13.5 4t-19.5 6t-19 6t-13 5q-7 3 -15 9.5t-16.5 13.5t-17.5 12.5t-18 5.5h-6q-8 -6 -28 -19.5t-42 -29.5t-41.5 -29.5t-27.5 -19.5q-2 -2 -8 -6.5t-12.5 -9.5t-12 -10t-7.5 -7h-2 q-3 0 -14.5 20.5t-29.5 45t-41.5 45t-49.5 20.5q-9 0 -11.5 -0.5t-10.5 -8.5q-38 -33 -75 -62t-79 -60h-2h-3q0 1 -1.5 2t-1.5 3q-6 21 -12 35.5t-14 25.5t-20 22t-28 26q-7 6 -11.5 9.5t-14.5 3.5h-6l-98 -102q-3 -3 -4 -7.5t-1 -9.5h5q3 5 15.5 14t16.5 11h16 q28 0 41.5 -21t18 -50t3.5 -59.5t-1 -49.5q0 -29 -0.5 -50t-4.5 -50q-3 -13 -14 -21.5t-23 -13.5t-21.5 -9t-9.5 -8z" />
<glyph unicode="n" horiz-adv-x="684" d="M32 104v-2q2 -4 7 -5.5t11 -2t10.5 0l4.5 0.5q26 -3 45.5 -19t33 -34.5t21.5 -33.5t11 -15h3q1 0 2 1.5l1 1.5q1 1 2.5 7t3.5 12t4 11.5t2 7.5q7 16 20.5 28t30 19.5t34.5 11.5t34 5v12q-50 7 -71.5 34.5t-21.5 77.5q0 33 1 69.5t2 67.5q23 28 57 48.5t72 20.5 q13 0 28 -4.5t29.5 -12t26.5 -17.5t19 -20q0 -9 0.5 -33.5t1.5 -51.5t1.5 -51.5t1.5 -33.5q0 -24 0.5 -49.5t5.5 -49.5t17.5 -44.5t36.5 -35.5q9 -5 17.5 -11t19.5 -6t16.5 9t10.5 17q2 1 6 5.5t8.5 10t8.5 10t6 6.5q1 1 5 4.5t8 7.5l7.5 7.5l4.5 4.5q4 4 9.5 10t10.5 12 t9 10.5l4 4.5v12h-9q-11 -13 -25 -22.5t-32 -9.5q-17 0 -27 12t-16 28t-8 33t-2 28v78v76q-2 13 2.5 22t12.5 16.5t17 13.5t17 13l33 33v13h-9q-1 -2 -5 -5t-8.5 -6t-8.5 -6t-5 -4q-2 -1 -5 -2t-4 -2h-2q-21 0 -41 6.5t-38.5 17t-35.5 23.5t-33 26q-1 0 -2 0.5t-3 0.5 q-1 0 -2 -0.5l-1 -0.5q-2 -1 -8.5 -6t-8.5 -6q-4 -3 -11.5 -8l-15 -10t-14 -9.5t-7.5 -5.5q-2 -1 -7.5 -4t-11.5 -6t-11.5 -6t-6.5 -4l-15 -9t-21 -13t-20.5 -13.5t-12.5 -8.5t-12.5 -10t-12.5 -11h-6h-5t-4 4q-2 33 -15.5 62.5t-42.5 47.5q-8 5 -15.5 11t-16.5 6 q-2 0 -3 -0.5l-1 -0.5l-97 -97q-3 -2 -10 -12t-7 -15v-2l4 -4h2q4 0 10 5t13.5 11.5t15.5 11.5t16 5q19 0 32 -14t21 -31q0 -10 0.5 -35.5t1.5 -54t1.5 -54t0.5 -35.5v-9q0 -20 -9.5 -34t-24 -24t-31.5 -16t-33 -10v-3z" />
<glyph unicode="o" horiz-adv-x="464" d="M11 230q0 -60 26.5 -110.5t80.5 -79.5q7 -4 20 -10t25 -12t21 -10t10 -4h5q2 2 8.5 8t13.5 12t13.5 12t9.5 8q20 17 45 25.5t48 22.5q60 40 87 89t27 123q0 41 -12 71.5t-33.5 54.5t-50.5 43t-62 38q-6 3 -8 5t-3.5 3t-3.5 1h-7q-3 0 -9.5 -5t-13.5 -12t-12.5 -13 t-8.5 -8q-2 -1 -7 -4t-11.5 -7t-12.5 -7.5t-9 -5.5l-9 -4.5t-15.5 -7.5t-15.5 -7.5l-9 -4.5q-27 -15 -50 -37t-40 -49t-27 -57t-10 -61zM94 276q0 30 5.5 58t18.5 50.5t35 36t55 13.5q46 0 76.5 -19.5t48.5 -50.5t25.5 -70t7.5 -77v-43q-15 -49 -40 -67t-76 -18 q-37 0 -66 17t-49 43.5t-30.5 60t-10.5 66.5z" />
<glyph unicode="p" horiz-adv-x="566" d="M134 78q6 -38 7 -76t0 -76t-1.5 -76.5t2.5 -76.5q1 0 1.5 -0.5l0.5 -0.5q1 0 1.5 0.5l0.5 0.5q4 7 7 18.5t5.5 24.5t4.5 24.5t4 17.5q5 18 23.5 26.5t32.5 14.5q2 1 5.5 2.5l3.5 1.5v143q0 3 3 3.5t5 0.5l4 -1q4 -1 13.5 -5t20.5 -8.5t21 -8.5t14 -5q11 -6 12.5 -8 t10.5 -2q3 0 7 4t7.5 9t6.5 10t4 7q5 5 16 15.5t13 12.5q8 6 20 13.5t24.5 16.5t24.5 18t21 18q33 33 53 78.5t20 93.5q0 40 -9 67.5t-25.5 48.5t-40 39.5t-51.5 41.5q-5 4 -7 10.5t-10 6.5h-2q-1 0 -1 -1q-15 -16 -35 -32t-42 -31t-43.5 -29.5t-38.5 -28.5q-5 -4 -4 -4.5 t-4 -0.5q-6 0 -10.5 5.5t-7.5 12t-4.5 13.5t-2.5 10q-11 29 -32.5 50.5t-48.5 34.5q-1 0 -3.5 0.5l-2.5 0.5q-5 0 -6.5 -0.5t-3.5 -4.5q-22 -29 -47.5 -49t-54.5 -44q-5 -8 -5 -15q9 0 16 3.5t14 8t14 8t16 3.5q10 0 21 -5.5t20 -14.5t15.5 -20t6.5 -21q0 -9 0.5 -31.5 t1.5 -48t1.5 -48t0.5 -31.5v-22v-22q-11 -14 -29.5 -27t-37 -27.5t-32 -31.5t-13.5 -38q8 0 14 4t11 10t10.5 11.5t11.5 8.5q11 5 25 6.5t26 1.5h2zM235 160q0 3 -0.5 11.5t-1 18t-1 18.5t-0.5 13v7v8q0 7 0.5 24.5t1 37t1 37t0.5 24.5q1 1 2.5 4t2.5 4q20 23 42.5 40 t54.5 17q31 0 56 -13t42.5 -34.5t27 -49t9.5 -56.5q0 -51 -11.5 -88.5t-46.5 -75.5q-10 -13 -26 -13q-2 0 -5.5 0.5t-4.5 0.5l-13 6.5t-19.5 9.5t-19.5 9.5l-13 6.5q-6 2 -17 5t-23 7t-23 9.5t-15 11.5z" />
<glyph unicode="q" horiz-adv-x="526" d="M358 -215q0 -1 1 -4t2 -4h3h2q0 1 2 3.5t2 4.5t1.5 9t2.5 15t2.5 15t1.5 9q8 29 25 45.5t43 27.5v334q1 9 1.5 30t1.5 45t1.5 45.5t0.5 29.5q14 21 33.5 38t27.5 40v5q-8 0 -14 -3.5t-12 -7.5t-12 -7.5t-14 -3.5q-47 0 -88 23t-76 50h-12q-1 -1 -7.5 -6t-16.5 -13 t-16 -13q-22 -18 -47 -28.5t-51 -24.5t-50 -34.5t-43 -45.5t-30 -54.5t-11 -60.5q0 -42 7.5 -72t23.5 -54t40.5 -43t58.5 -38q9 -5 18 -15t19 -10h3q35 32 69 54t69 48q2 1 10.5 8.5t10.5 8.5h5q2 0 4 -0.5t4 -4.5q0 -5 0.5 -16t1.5 -24t1.5 -24.5t0.5 -15.5v-261zM97 272 q0 27 5 56.5t17.5 54t34.5 40.5t55 16q13 0 21 -0.5t22 -2.5q4 -2 14.5 -7.5t22 -11.5t22 -11.5t14.5 -7.5q13 -6 21 -15.5t8 -24.5v-195q0 -1 -7.5 -8.5t-12.5 -11.5q-24 -18 -48 -27.5t-53 -9.5q-33 0 -58.5 15t-42.5 39t-26 53.5t-9 58.5z" />
<glyph unicode="r" horiz-adv-x="480" d="M61 96q42 -3 76.5 -17t68.5 -39l7 -7l11 -11t11.5 -10.5t9.5 -4.5h2l12 12q1 1 4.5 5.5t7.5 9.5t7.5 9t4.5 5q6 5 19.5 18.5t29.5 28.5t30 28t20 19v12h-9q-17 -17 -31.5 -29t-37.5 -12q-8 0 -17 2.5t-18 7t-16 11.5t-9 15q-2 37 -3.5 62t-1.5 57v19q0 5 0.5 17t1.5 25.5 t1.5 25.5t1.5 17q1 2 5 7.5t8.5 11t8.5 11t5 7.5q5 5 9 11t12 6q5 0 13 -6t18.5 -12.5t22.5 -12.5t25 -6q21 0 38.5 10.5t30 27.5t20 37t7.5 40q-7 0 -11.5 -5t-8.5 -10.5t-9.5 -10.5t-13.5 -5q-15 0 -24.5 7t-15.5 15.5t-10 15.5t-9 7h-4q-26 -30 -56.5 -55t-57.5 -54 l-3 -1q-5 0 -15.5 18t-25.5 39.5t-34.5 39.5t-41.5 18q-6 0 -19.5 -12.5t-29.5 -29t-31 -33t-23 -23.5q-6 -5 -9 -7t-3 -9q0 -8 6 -8q3 0 10.5 5t17.5 11t21 11t21 5h6q33 -15 42 -41t10 -61v-78v-79q-5 -21 -19 -32.5t-29 -19t-26.5 -11.5t-11.5 -10q0 -4 1 -5z" />
<glyph unicode="s" horiz-adv-x="505" d="M143 68q15 0 35 -0.5t33 -11.5l57 -49h4q17 18 36 37t41 33t47.5 26.5t46.5 29t35 38t14 53.5q0 24 -7 47t-20.5 40t-33.5 27.5t-47 10.5q-28 0 -51.5 -12t-45.5 -27t-44.5 -27t-48.5 -12q-38 0 -51 21t-13 56q0 13 5 31t14.5 33.5t22.5 26.5t30 11q3 0 8.5 -4t10.5 -9.5 t9 -10t5 -5.5q11 -8 27.5 -11.5t30.5 -3.5q10 0 22.5 1t21.5 7t26 19.5t33.5 29t28.5 31t12 26.5h-11q-2 -3 -7.5 -9t-12 -12.5t-12.5 -12t-8 -7.5q-2 -1 -4.5 -3t-3.5 -2h-49q-7 0 -14.5 8t-14.5 17t-13.5 17t-10.5 8l-4 -1q-18 -20 -43 -34.5t-51.5 -27.5t-52.5 -26 t-46.5 -30.5t-33.5 -41t-13 -56.5q0 -42 27.5 -65.5t70.5 -23.5q18 0 31 5.5t30 11.5q5 3 17.5 11t26.5 17t27 17.5t19 11.5q7 5 11.5 7.5t8 4t7.5 1.5h11q20 0 35 -9.5t24.5 -25t14.5 -34t5 -36.5q0 -12 -2.5 -30t-9.5 -35.5t-18 -30t-28 -12.5q-1 0 -7 4.5t-13 10.5 t-14 11t-10 7q-18 11 -39.5 15.5t-41.5 4.5q-27 0 -52.5 -9t-49 -23.5t-44 -33t-37.5 -36.5q-5 -5 -12.5 -14t-7.5 -10v-8h12q14 16 26.5 27t26.5 17.5t30 9.5t36 3z" />
<glyph unicode="t" horiz-adv-x="334" d="M20 80q46 -1 79 -15t71 -36q4 -3 16.5 -9.5t16.5 -7.5h3h4l102 109q10 12 10 29h-6l-36 -37q-3 -2 -10.5 -3t-12.5 -1q-17 0 -37 11.5t-29 24.5q-5 57 -5 113v113v83l5 6h80q8 0 8.5 8t0.5 11q0 1 -0.5 11t-4.5 10h-72q-1 0 -5.5 2t-6.5 4q-1 0 -2.5 2t-2.5 2 q0 5 -0.5 17.5t-1.5 27t-1.5 27.5t-0.5 18v12q0 33 6.5 58.5t34.5 47.5q6 4 14 5.5t16 3.5t13.5 6t5.5 13q-24 0 -55 -11.5t-58 -30.5t-46 -44.5t-19 -52.5v-107h-78q-2 0 -3 -4t-1 -6q0 -6 1 -15t3 -9l69 -9l4 -3q1 -2 2 -15.5t3 -20.5v-171q0 -2 1 -10t2 -10v-3 q0 -24 -1 -50t-16 -48q-5 -7 -15.5 -11.5t-21 -8.5t-19 -8t-8.5 -9q0 -6 4 -9z" />
<glyph unicode="u" horiz-adv-x="676" d="M29 101q49 -5 98 -23t88 -49q2 -2 8.5 -9t8.5 -8l1 -0.5t2 -0.5t2.5 0.5t2.5 0.5q46 26 90 54.5t89 59.5q2 1 9.5 6t9.5 6q6 -4 9.5 -12t6 -17.5t4.5 -18t5 -13.5q6 -9 15.5 -20.5t21 -21t24 -16.5t24.5 -7q11 0 13.5 5.5t10.5 14.5q5 6 18 19t27 28t27 28.5t18 18.5v8 h-8q-12 -11 -24 -19.5t-29 -8.5q-16 0 -27.5 8t-19 20.5t-11 27.5t-3.5 29v170q0 17 8.5 28.5t21 18.5t27.5 10t28 4q1 0 2.5 2t2.5 2v2v3q-2 1 -4.5 4t-3.5 3q-12 4 -23 6t-20.5 4t-19 6t-19.5 13q-5 4 -12.5 17t-15 26.5t-13 24t-6.5 10.5h-1l-1 -1l-2 -1.5t-2 -2.5 q-1 -2 -4 -12t-4 -12q-1 -3 -3.5 -8l-5 -10t-5 -9t-2.5 -5q-6 -10 -24 -19.5t-37 -17t-34 -13t-15 -6.5v-2q1 0 2 -2t3 -2q11 -1 26 -2.5t28 -6.5t22 -14.5t9 -25.5q0 -7 0.5 -24.5t1 -38t1 -38.5t0.5 -25v-12v-18q0 -7 -0.5 -15t-1 -17.5t-1.5 -22.5q-4 -6 -18.5 -17 t-32.5 -21.5t-35.5 -18.5t-27.5 -8h-4q-5 1 -14 4t-11 5l-85 51v265q-7 9 -9 22t-7 23q-3 2 -9 8t-13.5 12.5t-13.5 12.5t-9 8q-7 5 -16 10.5t-18 5.5q-4 0 -21.5 -15.5t-37 -36.5t-35 -41.5t-15.5 -30.5q8 0 14 3.5t11.5 7.5t11.5 7.5t14 3.5q16 0 26.5 -7.5t17 -19.5 t9.5 -26.5t3 -27.5v-147q0 -26 -14 -40t-31 -22t-31 -13.5t-14 -12.5q0 -4 1 -5z" />
<glyph unicode="v" horiz-adv-x="558" d="M32 108q0 -4 3.5 -6.5t8 -3.5t8.5 -1h4h38q19 -1 47.5 -9.5t57.5 -21t54.5 -27t39.5 -27.5h24l6.5 6.5t9.5 10t9.5 9.5t6.5 6q1 1 7.5 5.5t13 9.5t12.5 9t8 5q26 20 53.5 48t48.5 49q31 33 42 71.5t11 83.5q0 28 -6 58.5t-27 50.5l-90 90h-8q-21 -18 -44 -33t-46.5 -29 t-47 -28.5t-44.5 -31.5h-5q-3 0 -11.5 20.5t-22 45t-32 45t-41.5 20.5q-2 0 -2 -1l-106 -98v-4q0 -4 0.5 -8t5.5 -4q6 0 11.5 4t11.5 8.5t12.5 8.5t13.5 4q13 0 23 -7t17 -18t10.5 -24t3.5 -24v-183q0 -18 -14 -32t-30.5 -23.5t-30.5 -15t-14 -8.5zM220 167v73q0 1 -2.5 7.5 t-2.5 8.5v7v9q0 5 0.5 18.5t1.5 28.5t1.5 28.5t1.5 18.5q23 24 51 46t64 22t61 -18.5t41 -46t23 -60.5t7 -62q0 -51 -28 -87.5t-69 -62.5h-6q-3 0 -25.5 10.5t-49 23t-48 23.5t-21.5 13z" />
<glyph unicode="w" horiz-adv-x="851" d="M36 113q18 -5 33 -9.5t27.5 -11t23.5 -16t22 -23.5q3 -3 5.5 -11.5t5 -16.5t5.5 -14.5t6 -6.5h3l4 8t3 8q1 2 2.5 6.5t2.5 5.5q8 19 27 34t39 26.5t35.5 18.5t15.5 10q0 6 -12 8.5t-26 7t-26 14t-12 28.5v194q0 1 5.5 7t9.5 10q13 10 25.5 20.5t26 19.5t28 15t31.5 6 q30 0 47 -15t25.5 -37.5t10.5 -49t2 -48.5q0 -26 -1 -53.5t-3 -53.5q-2 -19 -14.5 -32t-26.5 -21t-25.5 -12.5t-11.5 -7.5t18 -8t41.5 -11t46.5 -12t32 -10q28 -12 55 -30.5t56 -29.5l1 -1q1 0 1.5 0.5l0.5 0.5q2 0 4.5 1.5t4.5 2.5l7.5 7.5t14 13t14 12.5t8.5 8q3 2 13 9 t21.5 15t22 15l13.5 9q21 18 41 40t36.5 47.5t26.5 53t10 56.5q0 55 -14 99.5t-56 81.5q-14 14 -28 21.5t-28 23.5h-9l-5.5 -4t-12.5 -10t-14.5 -12.5t-11.5 -10.5q-29 -24 -60 -46t-63 -43q-1 0 -2.5 -0.5t-3.5 -0.5t-5 0.5t-5 4.5q-13 46 -37.5 78t-75.5 44h-3h-2 q-1 -1 -4 -2t-4 -2q-40 -32 -80.5 -65.5t-85.5 -60.5h-2h-3q-3 3 -3 4q-5 17 -8 30.5t-8 25.5t-13 22.5t-21 22.5q-5 5 -16.5 15t-21.5 10h-6q-31 -24 -54 -48t-56 -50q0 -1 -2 -3.5t-2 -3.5v-3v-2l4 -4h2q13 0 25 10.5t28 10.5q15 0 25 -7.5t15.5 -18.5t7.5 -25t2 -27v-166 q0 -18 -8 -30.5t-20.5 -21t-27.5 -13.5t-29 -8v-13zM524 174q2 45 -1 84.5t-3 83.5q0 8 0.5 19t3.5 17q6 10 20.5 21.5t32.5 21.5t36.5 16t32.5 6q20 0 35 -11.5t31 -25.5q26 -24 37.5 -60.5t11.5 -71.5q0 -52 -18.5 -93.5t-59.5 -74.5q-1 0 -5 -1t-6 -1q-7 0 -29.5 9 t-47.5 21t-46 23.5t-25 16.5z" />
<glyph unicode="x" d="M223 170q1 -1 2.5 -2t1.5 -2q1 -2 5 -9.5t9 -16.5t9 -17t6 -10q10 -18 29 -34.5t41.5 -28.5t46.5 -19t46 -7q5 0 5.5 1.5t5.5 6.5q3 4 9 10.5l12 13t10.5 11.5t5.5 6q7 8 17 21t20 25.5t17 21.5l7 9v20h-5q-9 -14 -21.5 -26.5t-26.5 -22.5h-29q-26 0 -49.5 8.5t-41.5 24 t-28.5 37.5t-10.5 50q0 2 0.5 7.5t0.5 7.5q2 1 10 2t10 1h33q16 2 26.5 12t17 24t9.5 30t3 30q0 4 -0.5 7t-5.5 3h-2q-3 -3 -5 -10t-4 -15t-5 -14t-7 -6h-73q-4 0 -5.5 4t-2 9t-0.5 9v6q0 9 3.5 27.5t10.5 37t17 32t23 13.5h3q12 -15 28 -26t36 -11q16 0 31.5 11t27.5 27.5 t19.5 35.5t7.5 34q-8 0 -13 -5.5t-10 -12t-10.5 -12t-14.5 -5.5q-10 0 -18 7t-15 16t-12.5 16t-11.5 7t-21.5 -18.5t-32.5 -41t-32 -41t-20 -18.5l-16.5 19.5t-40.5 42.5t-51.5 42.5t-49.5 19.5q-2 0 -4 -0.5t-4 -0.5q-20 -26 -44 -48.5t-46 -45.5q-3 -3 -7.5 -8t-9 -10.5 t-7.5 -9.5l-3 -4v-16h3q2 2 8.5 8t13.5 12.5t13.5 12t9.5 7.5q6 5 12.5 4.5t13.5 -0.5q28 0 48 -10t33 -26.5t19 -39t6 -47.5h-51q-27 -23 -42.5 -50t-15.5 -64q8 0 12 6.5t7.5 15.5t7 17t11.5 11q9 5 23 5h24h26q5 -4 7 -5.5t2 -6.5q0 -6 -3 -25.5t-8.5 -40.5t-14 -37 t-18.5 -16q-15 0 -29.5 11t-32.5 11q-14 0 -32 -13.5t-33.5 -32.5t-26 -40t-10.5 -35v-2q0 -1 2 -2t2 -2h2q4 0 8.5 6.5t10.5 14.5t14.5 14.5t22.5 6.5q11 0 19 -6.5t14 -14.5t10.5 -14.5t9.5 -6.5q4 0 17 20.5t28 46t29.5 48t21.5 27.5z" />
<glyph unicode="y" horiz-adv-x="570" d="M300 -122q0 -17 4 -33t13 -28.5t22.5 -20t32.5 -7.5q2 0 7.5 0.5t5.5 2.5v38q0 1 -10 4.5t-22.5 12t-22.5 23.5t-10 38t7 41.5t19 38.5q34 36 71.5 70.5t68.5 72.5t51 82t20 100q0 48 -13.5 87t-44.5 75q-2 4 -9 11.5t-15 9.5l-65 52h-8q-3 -3 -10.5 -9t-15.5 -13 t-16 -13.5t-11 -8.5q-8 -6 -25 -20.5t-36 -29t-35 -25.5t-21 -11q-1 0 -8.5 20t-21 43.5t-32.5 43.5t-42 20q-15 0 -29.5 -11t-16.5 -26l-13 -13t-18.5 -19.5t-18.5 -20t-12 -12.5q-5 -5 -7 -9.5t-2 -12.5q9 0 16 4.5t13.5 10.5t13.5 10.5t17 4.5q22 0 34 -14t17.5 -33.5 t6.5 -40t1 -34.5v-65v-65q-5 -21 -20.5 -31.5t-32 -16t-29 -8t-12.5 -7.5q0 -6 5.5 -8.5t12 -4t12.5 -1.5h7q39 -8 61 -33t36 -60q2 0 3 -0.5l1 -0.5q3 0 10 11t16.5 25t20 27t19.5 18q4 2 17.5 6t27.5 8.5t25.5 10t11.5 10.5q0 1 -1 1.5l-1 0.5q-8 8 -20 7.5t-25 0 t-24.5 7.5t-18.5 30q-5 34 -5 63v65v67q22 25 50.5 45t62.5 20t58 -17.5t39.5 -44.5t22.5 -59t7 -60q0 -45 -15 -86t-38 -78q0 -2 -2 -5t-2 -4q-21 -27 -41 -51.5t-35.5 -50t-24.5 -54t-9 -63.5z" />
<glyph unicode="z" horiz-adv-x="359" d="M12 -5q0 -49 18.5 -94t63.5 -70q6 -5 18.5 -11t13.5 -6h77q6 0 14.5 4t17 9t15.5 10.5t10 8.5q44 38 65 81t21 101q0 31 -7.5 56t-20.5 47t-30 42.5t-36 42.5v2q0 7 14 12t31 11t31 14t14 19q-16 0 -31 -6.5t-29 -14.5t-28.5 -14.5t-30.5 -6.5q-4 0 -14 2.5t-20.5 6.5 t-18.5 9t-8 9v1q26 12 50 27t42 34.5t28.5 43.5t10.5 55q0 33 -15 54t-38 34.5t-50 22.5t-52 19h-4q-3 0 -12 -10t-22 -24.5t-27 -32t-26 -33t-20 -26.5t-8 -12h10q18 21 35.5 35t45.5 14q19 0 37.5 -7.5t32.5 -20.5t22.5 -30.5t8.5 -37.5q0 -37 -14.5 -56t-37 -28 t-48 -10.5t-48 -4t-37 -9t-14.5 -24.5v-9t4 -8h16q24 0 46.5 10.5t42.5 18.5h3q3 0 12 -4.5t18.5 -11t17 -13t7.5 -10.5v-2q-4 -5 -11 -9.5t-14.5 -8t-14 -6.5t-9.5 -5q-8 -5 -18 -12.5t-20.5 -17t-20 -19t-15.5 -16.5q-20 -24 -32 -53.5t-12 -61.5zM53 -12q0 68 34.5 116.5 t94.5 79.5q2 0 4 0.5l2 0.5q13 0 22.5 -14.5t16.5 -37t12 -49.5t8 -51.5t4 -43.5t1 -25q0 -20 -4 -44t-14 -45t-26 -35t-41 -14q-33 0 -54.5 15.5t-35 39.5t-19 52.5t-5.5 54.5z" />
<glyph unicode="&#xad;" d="M296 346q22 -7 45.5 -10t47 -4.5t47 -2.5t46.5 -4h3q4 0 7 6t4.5 13.5l3 15t3.5 10.5q5 8 14 11.5t11 13.5h-5q-67 0 -134 -11t-135 -11h-23q-14 0 -16 1q-7 1 -24 3t-36.5 4.5t-36.5 4.5t-24 4q-5 2 -19 6.5t-19 5.5h-2q-5 0 -6.5 -3.5t-2 -8.5t-0.5 -10q0 -4 -1 -6 q-1 -7 -6.5 -11.5t-11.5 -8.5t-10.5 -9t-4.5 -13q18 0 34.5 7t36.5 7h214z" />
<glyph unicode="&#xdf;" horiz-adv-x="468" d="M12 479q0 -189 3 -376.5t3 -376.5q1 0 6 1.5t5 3.5v184q0 21 12.5 41t31.5 36.5t39.5 29t37.5 18.5v4q0 4 -5 9t-11 11.5t-12 13.5t-8 14q0 8 -1 27t-2 40.5t-1.5 40.5t-0.5 27v99v100q6 7 25 14t41 11.5t43 7.5t32 3q52 0 75.5 -28.5t23.5 -77.5v-32q-6 -15 -16.5 -28.5 t-24 -25t-28 -20.5t-28.5 -15q-11 0 -30 0.5t-37.5 -3t-32.5 -12.5t-14 -26q0 -3 0.5 -5.5t3.5 -6.5q2 0 9 -0.5t9 -0.5q23 0 43.5 9t43.5 16h6q5 0 7 -0.5t8 -2.5q48 -31 66.5 -83.5t18.5 -107.5v-23q0 -11 -0.5 -21.5t-1.5 -22.5t-2 -27q-5 -6 -5.5 -13t-2.5 -15 q-5 -15 -12.5 -32t-19 -32t-26 -24.5t-33.5 -9.5q-24 0 -40.5 11.5t-28 25.5t-17.5 25.5t-8 11.5q-1 0 -5 -2.5t-8.5 -6t-8.5 -7t-4 -5.5v-3q23 -31 51 -48.5t66 -17.5q43 0 81 21.5t66 55.5t44.5 75.5t16.5 81.5q0 56 -24 101t-66 83q-5 1 -16.5 4t-23.5 7.5t-21 9t-9 9.5 q0 1 23.5 12t52 32.5t52 53.5t23.5 76q0 22 -14.5 44t-36.5 40t-47 29.5t-46 11.5q-23 0 -47 -9.5t-48 -21t-47.5 -21t-45.5 -9.5h-5q0 7 -0.5 26.5t-1 40.5t-1 40t-0.5 27v14q0 6 2.5 20t11.5 14h1q18 -20 35 -32t44 -12h23q27 18 46.5 48.5t19.5 63.5q-8 0 -11.5 -5.5 t-6.5 -12t-8 -12t-15 -5.5q-12 0 -20 6.5t-14 14t-11 14t-11 6.5h-1q-20 -19 -42.5 -33.5t-44.5 -28t-43.5 -28.5t-40.5 -36q-2 -9 -4.5 -20t-3.5 -20v-73z" />
<glyph unicode="&#x2c6;" horiz-adv-x="623" d="M12 254q0 -58 11.5 -99t36 -70t63 -49t92.5 -36h5q4 0 7 4q20 33 42.5 51.5t50.5 41.5q3 3 8 7.5t9.5 9t8 8.5l3.5 4v8h-3q-17 -12 -30.5 -20t-27.5 -12.5t-29.5 -6t-36.5 -1.5t-39 10t-32.5 25t-25 33.5t-16.5 36.5q-4 12 -4 27q0 16 -8 26v29q0 27 2.5 51t14.5 50 q3 7 11.5 16t17.5 18t16.5 15.5t7.5 8.5v3q-3 3 -5 3l-1 2q-1 0 -2 -1l-1 -1q-2 -1 -8 -3.5t-8 -3.5q-21 -16 -44 -35.5t-42 -43t-31.5 -50t-12.5 -56.5zM394 272q28 0 39 -19t13.5 -45.5t1.5 -54t3 -44.5q5 -25 20 -48t37 -37q8 -5 20.5 -12.5t23.5 -7.5h5q2 3 6.5 10 t9.5 15t9.5 14.5t6.5 9.5q8 13 14.5 18.5t6.5 19.5v11q-6 -8 -12 -9t-14 -1q-16 0 -25 10t-15 24q-1 32 -3.5 59t-12 47.5t-29.5 33.5t-56 18l-1 4q0 3 15.5 12t33.5 25t33.5 39.5t15.5 55.5q0 20 -11 38t-28.5 32t-38 22.5t-38.5 8.5q-12 0 -19 -13t-15 -21 q-23 -20 -48.5 -38t-48.5 -39h-13q-4 29 -4 56v57q0 34 -1 69t7.5 63.5t30.5 46.5t67 18q6 0 15.5 -1.5t19.5 -4.5t17 -8.5t7 -13.5v-1l-1 -1q-9 -2 -21 -4.5t-22.5 -7.5t-17.5 -14t-7 -22q0 -32 19 -46.5t48 -14.5q24 0 41.5 15.5t17.5 40.5q0 24 -11.5 42.5t-29.5 31 t-40.5 19t-44.5 6.5q-32 0 -65.5 -13t-60.5 -36t-44.5 -53.5t-17.5 -64.5v-288l5 -9v-105q4 -2 10 -6t12 -8.5t11.5 -7.5t8.5 -3h3q1 1 5.5 6.5t6.5 6.5q3 2 16 8t18 7v62l2 1.5t4 1.5q26 14 53 25.5t57 11.5zM276 310v31q0 7 2 21t2 16q6 12 18.5 23t27.5 19.5t31 13.5 t29 5q31 0 54 -18t23 -51q0 -31 -16.5 -49t-41 -27t-52.5 -11.5t-51 -2.5h-11q-7 0 -7 1l-8 7v22z" />
<glyph unicode="&#x2000;" horiz-adv-x="425" />
<glyph unicode="&#x2001;" horiz-adv-x="850" />
<glyph unicode="&#x2002;" horiz-adv-x="425" />
<glyph unicode="&#x2003;" horiz-adv-x="850" />
<glyph unicode="&#x2004;" horiz-adv-x="283" />
<glyph unicode="&#x2005;" horiz-adv-x="212" />
<glyph unicode="&#x2006;" horiz-adv-x="141" />
<glyph unicode="&#x2007;" horiz-adv-x="141" />
<glyph unicode="&#x2008;" horiz-adv-x="106" />
<glyph unicode="&#x2009;" horiz-adv-x="170" />
<glyph unicode="&#x200a;" horiz-adv-x="47" />
<glyph unicode="&#x2010;" d="M296 346q22 -7 45.5 -10t47 -4.5t47 -2.5t46.5 -4h3q4 0 7 6t4.5 13.5l3 15t3.5 10.5q5 8 14 11.5t11 13.5h-5q-67 0 -134 -11t-135 -11h-23q-14 0 -16 1q-7 1 -24 3t-36.5 4.5t-36.5 4.5t-24 4q-5 2 -19 6.5t-19 5.5h-2q-5 0 -6.5 -3.5t-2 -8.5t-0.5 -10q0 -4 -1 -6 q-1 -7 -6.5 -11.5t-11.5 -8.5t-10.5 -9t-4.5 -13q18 0 34.5 7t36.5 7h214z" />
<glyph unicode="&#x2011;" d="M296 346q22 -7 45.5 -10t47 -4.5t47 -2.5t46.5 -4h3q4 0 7 6t4.5 13.5l3 15t3.5 10.5q5 8 14 11.5t11 13.5h-5q-67 0 -134 -11t-135 -11h-23q-14 0 -16 1q-7 1 -24 3t-36.5 4.5t-36.5 4.5t-24 4q-5 2 -19 6.5t-19 5.5h-2q-5 0 -6.5 -3.5t-2 -8.5t-0.5 -10q0 -4 -1 -6 q-1 -7 -6.5 -11.5t-11.5 -8.5t-10.5 -9t-4.5 -13q18 0 34.5 7t36.5 7h214z" />
<glyph unicode="&#x2012;" d="M296 346q22 -7 45.5 -10t47 -4.5t47 -2.5t46.5 -4h3q4 0 7 6t4.5 13.5l3 15t3.5 10.5q5 8 14 11.5t11 13.5h-5q-67 0 -134 -11t-135 -11h-23q-14 0 -16 1q-7 1 -24 3t-36.5 4.5t-36.5 4.5t-24 4q-5 2 -19 6.5t-19 5.5h-2q-5 0 -6.5 -3.5t-2 -8.5t-0.5 -10q0 -4 -1 -6 q-1 -7 -6.5 -11.5t-11.5 -8.5t-10.5 -9t-4.5 -13q18 0 34.5 7t36.5 7h214z" />
<glyph unicode="&#x2013;" horiz-adv-x="524" d="M287 346q21 -7 43.5 -10t45.5 -4.5t45.5 -2.5t45.5 -4h2q4 0 7 6t4.5 13.5l3 15t3.5 10.5q5 8 13.5 11.5t10.5 13.5h-5q-65 0 -129.5 -11t-130.5 -11h-22t-16 1q-6 1 -22.5 3t-35.5 4.5t-35.5 4.5t-23.5 4q-5 2 -18.5 6.5t-17.5 5.5h-2q-5 0 -6.5 -3.5t-2 -8.5t-0.5 -10 q0 -4 -1 -6q-1 -7 -6.5 -11.5t-11 -8.5t-10 -9t-4.5 -13q17 0 33 7t36 7h207z" />
<glyph unicode="&#x2014;" horiz-adv-x="1024" d="M562 346q43 -7 88.5 -10t91 -4.5t91 -2.5t89.5 -4h6q8 0 13.5 6t8.5 13.5l6 15t7 10.5q9 8 26.5 11.5t21.5 13.5h-10q-129 0 -258.5 -11t-261.5 -11h-44q-28 0 -31 1q-14 1 -47 3t-70.5 4.5t-70.5 4.5t-46 4q-10 2 -37 6.5t-37 5.5h-4q-9 0 -12 -3.5t-4 -8.5t-1 -10 q0 -4 -2 -6q-2 -7 -12.5 -11.5t-22.5 -8.5t-20.5 -9t-8.5 -13q35 0 67 7t70 7h414z" />
<glyph unicode="&#x2018;" horiz-adv-x="155" d="M18 692q0 -25 12 -38t29 -32q4 -6 15 -19t23.5 -25.5t24.5 -22.5t20 -10h1q1 0 2 1.5t3 1.5v3q0 7 -7 14t-16 14.5t-16 15.5t-7 17q0 14 6 25.5t12.5 20.5t12.5 16.5t6 15.5q0 9 -8 23t-19 26.5t-22 21.5t-18 9h-1q-17 -14 -35 -33t-18 -45z" />
<glyph unicode="&#x2019;" horiz-adv-x="155" d="M12 553v-2l4 -4h2q7 0 19 10t24.5 22.5t23.5 25.5t16 19q1 1 6 6.5t10.5 11.5t10 11t5.5 7q5 8 7 17t2 18q0 12 -5.5 23t-13.5 21t-17 18.5t-17 15.5h-3q-6 0 -17 -9t-22.5 -22t-19.5 -26.5t-8 -23.5q0 -8 6 -15.5t12.5 -16.5t12.5 -20t6 -26q0 -9 -7 -17t-15 -15 t-15 -14t-7 -15z" />
<glyph unicode="&#x201c;" horiz-adv-x="313" d="M169 689q0 -13 3.5 -22t9.5 -17t13 -15.5t15 -16.5q5 -6 16 -19t23.5 -25.5t25 -22.5t19.5 -10h1q1 0 2.5 2t2.5 2v2q0 8 -7 15t-16 14t-16 15t-7 17q0 15 6 26t13 20t13 16.5t6 15.5q0 10 -8 24t-19 27t-22.5 22t-18.5 9h-1q-17 -15 -35.5 -34.5t-18.5 -44.5zM12 694 q0 -13 3.5 -22.5t9 -17t13 -15t15.5 -16.5q4 -6 15 -19t23.5 -26t24.5 -23t20 -10h2q0 1 2 2t2 3v1q0 8 -7 15t-15.5 14t-15.5 15t-7 18q0 15 6 26t12.5 20t12.5 16.5t6 15.5q0 9 -8 23t-19 27t-22.5 22.5t-17.5 9.5q-1 0 -1.5 -0.5l-0.5 -0.5q-17 -15 -35 -34t-18 -44z" />
<glyph unicode="&#x201d;" horiz-adv-x="313" d="M12 551v-3l4 -3h2q7 0 19 10t25 22.5t23.5 25.5t15.5 19q1 1 6 6.5t10.5 11.5t10 11.5t5.5 7.5q5 7 7 15.5t2 17.5q0 26 -18 45t-35 35h-3q-6 0 -17 -9.5t-22.5 -22.5t-19.5 -27t-8 -23q0 -8 6 -15.5t12.5 -16.5t12.5 -20.5t6 -25.5q0 -9 -7 -17t-15 -15.5t-15 -14.5 t-7 -14zM169 554l1 -1q0 -1 1.5 -2t2.5 -3h2q7 0 19.5 10t25 23.5t23 26t15.5 18.5q1 1 6 6.5t10.5 11.5t10.5 11.5t6 6.5q5 8 6.5 17t1.5 18q0 13 -5 24t-13 20.5t-17.5 18t-17.5 15.5q-1 0 -1.5 0.5l-0.5 0.5q-7 0 -18 -9t-22 -22t-19 -27t-8 -23q0 -8 6 -16t12.5 -17 t12.5 -20t6 -25q0 -10 -7 -18t-16 -15.5t-16 -14.5t-7 -15z" />
<glyph unicode="&#x202f;" horiz-adv-x="170" />
<glyph unicode="&#x205f;" horiz-adv-x="212" />
<glyph unicode="&#xe000;" horiz-adv-x="545" d="M0 545h545v-545h-545v545z" />
</font>
</defs>
</svg>
