<?xml version="1.0" standalone="no"?>
<!DOCTYPE svg PUBLIC "-//W3C//DTD SVG 1.1//EN" "http://www.w3.org/Graphics/SVG/1.1/DTD/svg11.dtd" >
<svg xmlns="http://www.w3.org/2000/svg">
<metadata></metadata>
<defs>
<font id="combinumerals_ltdregular" horiz-adv-x="820" >
<font-face units-per-em="1000" ascent="771" descent="-229" />
<missing-glyph horiz-adv-x="205" />
<glyph unicode="&#x31;&#x28;" d="M35 361q0 155 110 265t265 110t265 -110t110 -265t-110 -265t-265 -110t-265 110t-110 265zM81 361q0 -137 96.5 -233t232.5 -96t232.5 96t96.5 233t-96.5 233t-232.5 96t-232.5 -96t-96.5 -233zM189 482l91 92h51v-425h-70v346l-47 -58zM393 440q0 64 30 102.5t79 38.5 q111 0 111 -203q0 -113 -36 -174.5t-101 -61.5q-36 0 -67 13l7 59q27 -16 52 -16q29 0 47.5 25.5t25 55.5t6.5 62q-7 -17 -21.5 -28t-30.5 -11q-48 0 -75 36.5t-27 101.5zM464 441q0 -83 38 -83q40 0 40 91q0 31 -10 54t-30 23q-16 0 -27 -24t-11 -61z" />
<glyph unicode="&#x31;&#x29;" d="M35 361q0 155 110 265t265 110t265 -110t110 -265t-110 -265t-265 -110t-265 110t-110 265zM81 361q0 -137 96.5 -233t232.5 -96t232.5 96t96.5 233t-96.5 233t-232.5 96t-232.5 -96t-96.5 -233zM186 482l91 92h51v-425h-70v346l-47 -58zM392 362q0 105 28.5 162t84.5 57 t84.5 -58t28.5 -163t-28.5 -161.5t-84.5 -56.5t-84.5 57.5t-28.5 162.5zM463 360q0 -163 42 -163t42 165q0 164 -42 164t-42 -166z" />
<glyph unicode="&#x31;&#x40;" d="M35 361q0 155 110 265t265 110t265 -110t110 -265t-110 -265t-265 -110t-265 110t-110 265zM81 361q0 -137 96.5 -233t232.5 -96t232.5 96t96.5 233t-96.5 233t-232.5 96t-232.5 -96t-96.5 -233zM184 482l91 92h51v-425h-70v346l-47 -58zM396 149v65q10 15 51.5 69t62 95 t20.5 83q0 28 -12 46t-31 18q-23 0 -45.5 -11t-31.5 -20l-5 59q35 28 93 28q48 0 76 -33t28 -89q0 -43 -14 -81t-31 -61t-41.5 -56t-37.5 -57h132v-55h-214z" />
<glyph unicode="&#x31;&#x23;" d="M35 361q0 155 110 265t265 110t265 -110t110 -265t-110 -265t-265 -110t-265 110t-110 265zM81 361q0 -137 96.5 -233t232.5 -96t232.5 96t96.5 233t-96.5 233t-232.5 96t-232.5 -96t-96.5 -233zM191 482l91 92h51v-425h-70v346l-47 -58zM393 158l2 60q28 -20 65 -20 q32 0 51 18.5t19 49.5q0 75 -68 75h-26v56h21q32 0 52 16.5t20 49.5q0 28 -15 45t-41 17q-36 0 -66 -23l-3 58q29 21 77 21q55 0 87 -30.5t32 -82.5q0 -37 -19 -63.5t-50 -35.5q71 -19 71 -106q0 -57 -35.5 -89t-98.5 -32q-43 0 -75 16z" />
<glyph unicode="&#x31;&#x24;" d="M35 361q0 155 110 265t265 110t265 -110t110 -265t-110 -265t-265 -110t-265 110t-110 265zM81 361q0 -137 96.5 -233t232.5 -96t232.5 96t96.5 233t-96.5 233t-232.5 96t-232.5 -96t-96.5 -233zM181 482l91 92h51v-425h-70v346l-47 -58zM373 242v58l111 274h91v-277h44 v-55h-44v-93h-67v93h-135zM441 297h67v187z" />
<glyph unicode="&#x31;&#x25;" d="M35 361q0 155 110 265t265 110t265 -110t110 -265t-110 -265t-265 -110t-265 110t-110 265zM81 361q0 -137 96.5 -233t232.5 -96t232.5 96t96.5 233t-96.5 233t-232.5 96t-232.5 -96t-96.5 -233zM182 482l91 92h51v-425h-70v346l-47 -58zM391 160l4 65q36 -20 73 -20 q34 0 53.5 23t19.5 60q0 34 -20 56.5t-58 22.5q-31 0 -65 -14v221h196v-60h-134v-97q17 5 44 5q46 0 77 -35t31 -96q0 -70 -35.5 -109t-96.5 -39q-40 0 -89 17z" />
<glyph unicode="&#x31;^" d="M35 361q0 155 110 265t265 110t265 -110t110 -265t-110 -265t-265 -110t-265 110t-110 265zM81 361q0 -137 96.5 -233t232.5 -96t232.5 96t96.5 233t-96.5 233t-232.5 96t-232.5 -96t-96.5 -233zM176 482l91 92h51v-425h-70v346l-47 -58zM387 345q0 113 35.5 174.5 t101.5 61.5q32 0 68 -14l-8 -59q-29 17 -52 17q-75 0 -80 -144q19 39 53 39q48 0 75 -36.5t27 -101.5q0 -64 -30 -102t-80 -38q-110 0 -110 203zM458 264q0 -24 10.5 -45.5t28.5 -21.5q17 0 28 24t11 60q0 38 -10.5 60.5t-28.5 22.5q-39 0 -39 -100z" />
<glyph unicode="&#x31;&#x26;" d="M35 361q0 155 110 265t265 110t265 -110t110 -265t-110 -265t-265 -110t-265 110t-110 265zM81 361q0 -137 96.5 -233t232.5 -96t232.5 96t96.5 233t-96.5 233t-232.5 96t-232.5 -96t-96.5 -233zM191 482l91 92h51v-425h-70v346l-47 -58zM395 518v56h211v-57l-113 -368 h-77l121 369h-142z" />
<glyph unicode="&#x31;&#x2a;" d="M35 361q0 155 110 265t265 110t265 -110t110 -265t-110 -265t-265 -110t-265 110t-110 265zM81 361q0 -137 96.5 -233t232.5 -96t232.5 96t96.5 233t-96.5 233t-232.5 96t-232.5 -96t-96.5 -233zM174 482l91 92h51v-425h-70v346l-47 -58zM380 258q0 78 68 112 q-68 37 -68 104q0 49 31.5 78t84.5 29q49 0 80.5 -28t31.5 -73q0 -33 -19 -62t-49 -43q70 -36 70 -115q0 -54 -32 -86t-84 -32q-50 0 -82 32t-32 84zM448 470q0 -41 52 -73q13 9 25 29.5t12 45.5q0 24 -12 39t-32 15q-19 0 -32 -16.5t-13 -39.5zM451 261q0 -27 13 -45.5 t32 -18.5t30.5 17.5t11.5 45.5q0 51 -49 82q-38 -32 -38 -81z" />
<glyph unicode="&#x31;&#x21;" d="M35 361q0 155 110 265t265 110t265 -110t110 -265t-110 -265t-265 -110t-265 110t-110 265zM81 361q0 -137 96.5 -233t232.5 -96t232.5 96t96.5 233t-96.5 233t-232.5 96t-232.5 -96t-96.5 -233zM206 482l91 92h51v-425h-70v346l-47 -58zM413 482l91 92h51v-425h-70v346 l-47 -58z" />
<glyph horiz-adv-x="1000" />
<glyph horiz-adv-x="1000" />
<glyph unicode="&#xd;" horiz-adv-x="1000" />
<glyph unicode=" "  horiz-adv-x="205" />
<glyph unicode="&#x09;" horiz-adv-x="205" />
<glyph unicode="&#xa0;" horiz-adv-x="205" />
<glyph unicode="!" horiz-adv-x="410" d="M-2 -14v46q139 0 235 96t96 233t-96 233t-235 96v46q158 0 267.5 -109.5t109.5 -265.5t-109.5 -265.5t-267.5 -109.5zM38 482l91 92h51v-425h-70v346l-47 -58z" />
<glyph unicode="#" horiz-adv-x="410" d="M-2 -14v46q139 0 235 96t96 233t-96 233t-235 96v46q158 0 267.5 -109.5t109.5 -265.5t-109.5 -265.5t-267.5 -109.5zM13 158l2 60q28 -20 65 -20q32 0 51 18.5t19 49.5q0 75 -68 75h-26v56h21q32 0 52 16.5t20 49.5q0 28 -15 45t-41 17q-36 0 -66 -23l-3 58q29 21 77 21 q55 0 87 -30.5t32 -82.5q0 -37 -19 -63.5t-50 -35.5q71 -19 71 -106q0 -57 -35.5 -89t-98.5 -32q-43 0 -75 16z" />
<glyph unicode="$" horiz-adv-x="410" d="M-2 -14v46q139 0 235 96t96 233t-96 233t-235 96v46q158 0 267.5 -109.5t109.5 -265.5t-109.5 -265.5t-267.5 -109.5zM3 242v58l111 274h91v-277h44v-55h-44v-93h-67v93h-135zM71 297h67v187z" />
<glyph unicode="%" horiz-adv-x="410" d="M-2 -14v46q139 0 235 96t96 233t-96 233t-235 96v46q158 0 267.5 -109.5t109.5 -265.5t-109.5 -265.5t-267.5 -109.5zM12 160l4 65q36 -20 73 -20q34 0 53.5 23t19.5 60q0 34 -20 56.5t-58 22.5q-31 0 -65 -14v221h196v-60h-134v-97q17 5 44 5q46 0 77 -35t31 -96 q0 -70 -35.5 -109t-96.5 -39q-40 0 -89 17z" />
<glyph unicode="&#x26;" horiz-adv-x="410" d="M-2 -14v46q139 0 235 96t96 233t-96 233t-235 96v46q158 0 267.5 -109.5t109.5 -265.5t-109.5 -265.5t-267.5 -109.5zM16 518v56h211v-57l-113 -368h-77l121 369h-142z" />
<glyph unicode="(" horiz-adv-x="410" d="M-2 -14v46q139 0 235 96t96 233t-96 233t-235 96v46q158 0 267.5 -109.5t109.5 -265.5t-109.5 -265.5t-267.5 -109.5zM15 440q0 64 30 102.5t79 38.5q111 0 111 -203q0 -113 -36 -174.5t-101 -61.5q-36 0 -67 13l7 59q27 -16 52 -16q29 0 47.5 25.5t25 55.5t6.5 62 q-7 -17 -21.5 -28t-30.5 -11q-48 0 -75 36.5t-27 101.5zM86 441q0 -83 38 -83q40 0 40 91q0 31 -10 54t-30 23q-16 0 -27 -24t-11 -61z" />
<glyph unicode=")" horiz-adv-x="410" d="M-2 -14v46q139 0 235 96t96 233t-96 233t-235 96v46q158 0 267.5 -109.5t109.5 -265.5t-109.5 -265.5t-267.5 -109.5zM13 362q0 105 28.5 162t84.5 57t84.5 -58t28.5 -163t-28.5 -161.5t-84.5 -56.5t-84.5 57.5t-28.5 162.5zM84 360q0 -163 42 -163t42 165q0 164 -42 164 t-42 -166z" />
<glyph unicode="*" horiz-adv-x="410" d="M-2 -14v46q139 0 235 96t96 233t-96 233t-235 96v46q158 0 267.5 -109.5t109.5 -265.5t-109.5 -265.5t-267.5 -109.5zM10 258q0 78 68 112q-68 37 -68 104q0 49 31.5 78t84.5 29q49 0 80.5 -28t31.5 -73q0 -33 -19 -62t-49 -43q70 -36 70 -115q0 -54 -32 -86t-84 -32 q-50 0 -82 32t-32 84zM78 470q0 -41 52 -73q13 9 25 29.5t12 45.5q0 24 -12 39t-32 15q-19 0 -32 -16.5t-13 -39.5zM81 261q0 -27 13 -45.5t32 -18.5t30.5 17.5t11.5 45.5q0 51 -49 82q-38 -32 -38 -81z" />
<glyph unicode="0" horiz-adv-x="410" d="M35 361q0 156 109.5 265.5t267.5 109.5v-46q-139 0 -235 -96t-96 -233t96 -233t235 -96v-46q-158 0 -267.5 109.5t-109.5 265.5zM171 362q0 105 28.5 162t84.5 57t84.5 -58t28.5 -163t-28.5 -161.5t-84.5 -56.5t-84.5 57.5t-28.5 162.5zM242 360q0 -163 42 -163t42 165 q0 164 -42 164t-42 -166z" />
<glyph unicode="1" horiz-adv-x="410" d="M35 361q0 156 109.5 265.5t267.5 109.5v-46q-139 0 -235 -96t-96 -233t96 -233t235 -96v-46q-158 0 -267.5 109.5t-109.5 265.5zM196 482l91 92h51v-425h-70v346l-47 -58z" />
<glyph unicode="2" horiz-adv-x="410" d="M35 361q0 156 109.5 265.5t267.5 109.5v-46q-139 0 -235 -96t-96 -233t96 -233t235 -96v-46q-158 0 -267.5 109.5t-109.5 265.5zM175 149v65q10 15 51.5 69t62 95t20.5 83q0 28 -12 46t-31 18q-23 0 -45.5 -11t-31.5 -20l-5 59q35 28 93 28q48 0 76 -33t28 -89 q0 -43 -14 -81t-31 -61t-41.5 -56t-37.5 -57h132v-55h-214z" />
<glyph unicode="3" horiz-adv-x="410" d="M35 361q0 156 109.5 265.5t267.5 109.5v-46q-139 0 -235 -96t-96 -233t96 -233t235 -96v-46q-158 0 -267.5 109.5t-109.5 265.5zM171 158l2 60q28 -20 65 -20q32 0 51 18.5t19 49.5q0 75 -68 75h-26v56h21q32 0 52 16.5t20 49.5q0 28 -15 45t-41 17q-36 0 -66 -23l-3 58 q29 21 77 21q55 0 87 -30.5t32 -82.5q0 -37 -19 -63.5t-50 -35.5q71 -19 71 -106q0 -57 -35.5 -89t-98.5 -32q-43 0 -75 16z" />
<glyph unicode="4" horiz-adv-x="410" d="M35 361q0 156 109.5 265.5t267.5 109.5v-46q-139 0 -235 -96t-96 -233t96 -233t235 -96v-46q-158 0 -267.5 109.5t-109.5 265.5zM161 242v58l111 274h91v-277h44v-55h-44v-93h-67v93h-135zM229 297h67v187z" />
<glyph unicode="5" horiz-adv-x="410" d="M35 361q0 156 109.5 265.5t267.5 109.5v-46q-139 0 -235 -96t-96 -233t96 -233t235 -96v-46q-158 0 -267.5 109.5t-109.5 265.5zM170 160l4 65q36 -20 73 -20q34 0 53.5 23t19.5 60q0 34 -20 56.5t-58 22.5q-31 0 -65 -14v221h196v-60h-134v-97q17 5 44 5q46 0 77 -35 t31 -96q0 -70 -35.5 -109t-96.5 -39q-40 0 -89 17z" />
<glyph unicode="6" horiz-adv-x="410" d="M35 361q0 156 109.5 265.5t267.5 109.5v-46q-139 0 -235 -96t-96 -233t96 -233t235 -96v-46q-158 0 -267.5 109.5t-109.5 265.5zM174 345q0 113 35.5 174.5t101.5 61.5q32 0 68 -14l-8 -59q-29 17 -52 17q-75 0 -80 -144q19 39 53 39q48 0 75 -36.5t27 -101.5 q0 -64 -30 -102t-80 -38q-110 0 -110 203zM245 264q0 -24 10.5 -45.5t28.5 -21.5q17 0 28 24t11 60q0 38 -10.5 60.5t-28.5 22.5q-39 0 -39 -100z" />
<glyph unicode="7" horiz-adv-x="410" d="M35 361q0 156 109.5 265.5t267.5 109.5v-46q-139 0 -235 -96t-96 -233t96 -233t235 -96v-46q-158 0 -267.5 109.5t-109.5 265.5zM174 518v56h211v-57l-113 -368h-77l121 369h-142z" />
<glyph unicode="8" horiz-adv-x="410" d="M35 361q0 156 109.5 265.5t267.5 109.5v-46q-139 0 -235 -96t-96 -233t96 -233t235 -96v-46q-158 0 -267.5 109.5t-109.5 265.5zM168 258q0 78 68 112q-68 37 -68 104q0 49 31.5 78t84.5 29q49 0 80.5 -28t31.5 -73q0 -33 -19 -62t-49 -43q70 -36 70 -115q0 -54 -32 -86 t-84 -32q-50 0 -82 32t-32 84zM236 470q0 -41 52 -73q13 9 25 29.5t12 45.5q0 24 -12 39t-32 15q-19 0 -32 -16.5t-13 -39.5zM239 261q0 -27 13 -45.5t32 -18.5t30.5 17.5t11.5 45.5q0 51 -49 82q-38 -32 -38 -81z" />
<glyph unicode="9" horiz-adv-x="410" d="M35 361q0 156 109.5 265.5t267.5 109.5v-46q-139 0 -235 -96t-96 -233t96 -233t235 -96v-46q-158 0 -267.5 109.5t-109.5 265.5zM173 440q0 64 30 102.5t79 38.5q111 0 111 -203q0 -113 -36 -174.5t-101 -61.5q-36 0 -67 13l7 59q27 -16 52 -16q29 0 47.5 25.5t25 55.5 t6.5 62q-7 -17 -21.5 -28t-30.5 -11q-48 0 -75 36.5t-27 101.5zM244 441q0 -83 38 -83q40 0 40 91q0 31 -10 54t-30 23q-16 0 -27 -24t-11 -61z" />
<glyph unicode="@" horiz-adv-x="410" d="M-2 -14v46q139 0 235 96t96 233t-96 233t-235 96v46q158 0 267.5 -109.5t109.5 -265.5t-109.5 -265.5t-267.5 -109.5zM17 149v65q10 15 51.5 69t62 95t20.5 83q0 28 -12 46t-31 18q-23 0 -45.5 -11t-31.5 -20l-5 59q35 28 93 28q48 0 76 -33t28 -89q0 -43 -14 -81 t-31 -61t-41.5 -56t-37.5 -57h132v-55h-214z" />
<glyph unicode="\" d="M0 361q0 169 120 289.5t290 120.5t290 -120.5t120 -289.5t-120 -289.5t-290 -120.5t-290 120.5t-120 289.5zM20 361q0 -161 114.5 -275.5t275.5 -114.5t275.5 114.5t114.5 275.5t-114.5 275.5t-275.5 114.5t-275.5 -114.5t-114.5 -275.5z" />
<glyph unicode="^" horiz-adv-x="410" d="M-2 -14v46q139 0 235 96t96 233t-96 233t-235 96v46q158 0 267.5 -109.5t109.5 -265.5t-109.5 -265.5t-267.5 -109.5zM16 345q0 113 35.5 174.5t101.5 61.5q32 0 68 -14l-8 -59q-29 17 -52 17q-75 0 -80 -144q19 39 53 39q48 0 75 -36.5t27 -101.5q0 -64 -30 -102 t-80 -38q-110 0 -110 203zM87 264q0 -24 10.5 -45.5t28.5 -21.5q17 0 28 24t11 60q0 38 -10.5 60.5t-28.5 22.5q-39 0 -39 -100z" />
<glyph unicode="e" d="M35 361q0 155 110 265t265 110t265 -110t110 -265t-110 -265t-265 -110t-265 110t-110 265zM81 361q0 -137 96.5 -233t232.5 -96t232.5 96t96.5 233t-96.5 233t-232.5 96t-232.5 -96t-96.5 -233zM312 158l2 60q28 -20 65 -20q32 0 51 18.5t19 49.5q0 75 -68 75h-26v56h21 q32 0 52 16.5t20 49.5q0 28 -15 45t-41 17q-36 0 -66 -23l-3 58q29 21 77 21q55 0 87 -30.5t32 -82.5q0 -37 -19 -63.5t-50 -35.5q71 -19 71 -106q0 -57 -35.5 -89t-98.5 -32q-43 0 -75 16z" />
<glyph unicode="i" d="M35 361q0 155 110 265t265 110t265 -110t110 -265t-110 -265t-265 -110t-265 110t-110 265zM81 361q0 -137 96.5 -233t232.5 -96t232.5 96t96.5 233t-96.5 233t-232.5 96t-232.5 -96t-96.5 -233zM295 258q0 78 68 112q-68 37 -68 104q0 49 31.5 78t84.5 29q49 0 80.5 -28 t31.5 -73q0 -33 -19 -62t-49 -43q70 -36 70 -115q0 -54 -32 -86t-84 -32q-50 0 -82 32t-32 84zM363 470q0 -41 52 -73q13 9 25 29.5t12 45.5q0 24 -12 39t-32 15q-19 0 -32 -16.5t-13 -39.5zM366 261q0 -27 13 -45.5t32 -18.5t30.5 17.5t11.5 45.5q0 51 -49 82 q-38 -32 -38 -81z" />
<glyph unicode="o" d="M35 361q0 155 110 265t265 110t265 -110t110 -265t-110 -265t-265 -110t-265 110t-110 265zM81 361q0 -137 96.5 -233t232.5 -96t232.5 96t96.5 233t-96.5 233t-232.5 96t-232.5 -96t-96.5 -233zM304 440q0 64 30 102.5t79 38.5q111 0 111 -203q0 -113 -36 -174.5 t-101 -61.5q-36 0 -67 13l7 59q27 -16 52 -16q29 0 47.5 25.5t25 55.5t6.5 62q-7 -17 -21.5 -28t-30.5 -11q-48 0 -75 36.5t-27 101.5zM375 441q0 -83 38 -83q40 0 40 91q0 31 -10 54t-30 23q-16 0 -27 -24t-11 -61z" />
<glyph unicode="p" d="M35 361q0 155 110 265t265 110t265 -110t110 -265t-110 -265t-265 -110t-265 110t-110 265zM81 361q0 -137 96.5 -233t232.5 -96t232.5 96t96.5 233t-96.5 233t-232.5 96t-232.5 -96t-96.5 -233zM297 362q0 105 28.5 162t84.5 57t84.5 -58t28.5 -163t-28.5 -161.5 t-84.5 -56.5t-84.5 57.5t-28.5 162.5zM368 360q0 -163 42 -163t42 165q0 164 -42 164t-42 -166z" />
<glyph unicode="q" d="M35 361q0 155 110 265t265 110t265 -110t110 -265t-110 -265t-265 -110t-265 110t-110 265zM81 361q0 -137 96.5 -233t232.5 -96t232.5 96t96.5 233t-96.5 233t-232.5 96t-232.5 -96t-96.5 -233zM318 482l91 92h51v-425h-70v346l-47 -58z" />
<glyph unicode="r" d="M35 361q0 155 110 265t265 110t265 -110t110 -265t-110 -265t-265 -110t-265 110t-110 265zM81 361q0 -137 96.5 -233t232.5 -96t232.5 96t96.5 233t-96.5 233t-232.5 96t-232.5 -96t-96.5 -233zM279 242v58l111 274h91v-277h44v-55h-44v-93h-67v93h-135zM347 297h67v187 z" />
<glyph unicode="t" d="M35 361q0 155 110 265t265 110t265 -110t110 -265t-110 -265t-265 -110t-265 110t-110 265zM81 361q0 -137 96.5 -233t232.5 -96t232.5 96t96.5 233t-96.5 233t-232.5 96t-232.5 -96t-96.5 -233zM312 160l4 65q36 -20 73 -20q34 0 53.5 23t19.5 60q0 34 -20 56.5 t-58 22.5q-31 0 -65 -14v221h196v-60h-134v-97q17 5 44 5q46 0 77 -35t31 -96q0 -70 -35.5 -109t-96.5 -39q-40 0 -89 17z" />
<glyph unicode="u" d="M35 361q0 155 110 265t265 110t265 -110t110 -265t-110 -265t-265 -110t-265 110t-110 265zM81 361q0 -137 96.5 -233t232.5 -96t232.5 96t96.5 233t-96.5 233t-232.5 96t-232.5 -96t-96.5 -233zM306 518v56h211v-57l-113 -368h-77l121 369h-142z" />
<glyph unicode="w" d="M35 361q0 155 110 265t265 110t265 -110t110 -265t-110 -265t-265 -110t-265 110t-110 265zM81 361q0 -137 96.5 -233t232.5 -96t232.5 96t96.5 233t-96.5 233t-232.5 96t-232.5 -96t-96.5 -233zM304 149v65q10 15 51.5 69t62 95t20.5 83q0 28 -12 46t-31 18 q-23 0 -45.5 -11t-31.5 -20l-5 59q35 28 93 28q48 0 76 -33t28 -89q0 -43 -14 -81t-31 -61t-41.5 -56t-37.5 -57h132v-55h-214z" />
<glyph unicode="y" d="M35 361q0 155 110 265t265 110t265 -110t110 -265t-110 -265t-265 -110t-265 110t-110 265zM81 361q0 -137 96.5 -233t232.5 -96t232.5 96t96.5 233t-96.5 233t-232.5 96t-232.5 -96t-96.5 -233zM292 345q0 113 35.5 174.5t101.5 61.5q32 0 68 -14l-8 -59q-29 17 -52 17 q-75 0 -80 -144q19 39 53 39q48 0 75 -36.5t27 -101.5q0 -64 -30 -102t-80 -38q-110 0 -110 203zM363 264q0 -24 10.5 -45.5t28.5 -21.5q17 0 28 24t11 60q0 38 -10.5 60.5t-28.5 22.5q-39 0 -39 -100z" />
<glyph unicode="&#x2000;" horiz-adv-x="385" />
<glyph unicode="&#x2001;" horiz-adv-x="771" />
<glyph unicode="&#x2002;" horiz-adv-x="385" />
<glyph unicode="&#x2003;" horiz-adv-x="771" />
<glyph unicode="&#x2004;" horiz-adv-x="257" />
<glyph unicode="&#x2005;" horiz-adv-x="192" />
<glyph unicode="&#x2006;" horiz-adv-x="128" />
<glyph unicode="&#x2007;" horiz-adv-x="128" />
<glyph unicode="&#x2008;" horiz-adv-x="96" />
<glyph unicode="&#x2009;" horiz-adv-x="154" />
<glyph unicode="&#x200a;" horiz-adv-x="42" />
<glyph unicode="&#x2022;" horiz-adv-x="333" d="M103 361q0 25 19 44t44 19t44 -19t19 -44t-19 -44t-44 -19t-44 19t-19 44z" />
<glyph unicode="&#x202f;" horiz-adv-x="154" />
<glyph unicode="&#x205f;" horiz-adv-x="192" />
<glyph unicode="&#xe000;" horiz-adv-x="500" />
</font>
</defs>
</svg>
