<?xml version="1.0" standalone="no"?>
<!DOCTYPE svg PUBLIC "-//W3C//DTD SVG 1.1//EN" "http://www.w3.org/Graphics/SVG/1.1/DTD/svg11.dtd" >
<svg xmlns="http://www.w3.org/2000/svg">
<metadata></metadata>
<defs>
<font id="titilliumregular_upright" horiz-adv-x="560" >
<font-face units-per-em="1000" ascent="750" descent="-250" />
<missing-glyph horiz-adv-x="220" />
<glyph horiz-adv-x="1000" />
<glyph horiz-adv-x="1000" />
<glyph unicode="&#xd;" horiz-adv-x="1000" />
<glyph unicode=" "  horiz-adv-x="220" />
<glyph unicode="&#x09;" horiz-adv-x="220" />
<glyph unicode="&#xa0;" horiz-adv-x="220" />
<glyph unicode="!" horiz-adv-x="231" d="M78 0v111h76v-111h-76zM78 700h76l-4 -470h-70z" />
<glyph unicode="&#x22;" horiz-adv-x="346" d="M62 694h71l-2 -228h-66zM212 694h71l-2 -228h-66z" />
<glyph unicode="#" d="M24 180v64h111v178h-111v64h111v180h68v-180h154v180h68v-180h111v-64h-111v-178h111v-64h-111v-180h-68v180h-154v-180h-68v180h-111zM203 244h154v178h-154v-178z" />
<glyph unicode="$" d="M82 486q0 183 202 183q15 0 23 -1l18 113h54l-19 -117l101 -15l-4 -58q-54 6 -107 10l-36 -232q88 -23 126 -60t38 -117q0 -203 -198 -203q-17 0 -26 1l-17 -109h-54l17 113l-109 14l4 60q59 -7 115 -11l41 254q-88 23 -128.5 61t-40.5 114zM157 494q0 -50 23.5 -73 t81.5 -39l35 222h-9q-67 0 -99 -26t-32 -84zM264 54h16q124 0 124 131q0 49 -24 74t-77 40z" />
<glyph unicode="%" d="M29 564q0 138 110 138t110 -139q0 -70 -29 -105.5t-81 -35.5t-81 35.5t-29 106.5zM89 564q0 -91 50 -91t50 90q0 45 -11.5 66t-38.5 21t-38.5 -20.5t-11.5 -65.5zM159 6l185 703l54 -15l-185 -703zM311 142q0 138 109 138q110 0 110 -139q0 -70 -29 -105.5t-81 -35.5 t-80.5 35.5t-28.5 106.5zM371 142q0 -91 49 -91q28 0 39 22t11 68t-11 66.5t-39 20.5q-26 0 -37.5 -20.5t-11.5 -65.5z" />
<glyph unicode="&#x26;" horiz-adv-x="636" d="M33 204q0 140 147 196q-30 38 -40.5 70.5t-10.5 77.5q0 154 161 154q165 0 165 -153q0 -61 -30 -107t-114 -83l141 -146q21 53 27 130h69q-2 -41 -14.5 -93.5t-30.5 -87.5q111 -111 117 -119q-47 -51 -49 -51l-108 110q-38 -59 -88 -85.5t-122 -26.5q-108 0 -164 55 t-56 159zM111 201q0 -65 36.5 -105t107.5 -40q104 0 159 91l-192 204q-63 -24 -87 -61.5t-24 -88.5zM207 544q0 -48 12.5 -74.5t51.5 -66.5q58 25 82 56.5t24 85.5q0 93 -87 93q-41 0 -62 -26t-21 -68z" />
<glyph unicode="'" horiz-adv-x="196" d="M62 694h71l-2 -228h-66z" />
<glyph unicode="(" horiz-adv-x="248" d="M47 301q0 92 24.5 204t48.5 177l24 66h71q-10 -29 -25 -77.5t-40.5 -167.5t-25.5 -202t22.5 -189t45.5 -171l23 -65h-71q-4 9 -10.5 25t-23 64.5t-29.5 96.5t-23.5 114.5t-10.5 124.5z" />
<glyph unicode=")" horiz-adv-x="248" d="M33 -118q10 29 25 77.5t40.5 167.5t25.5 202t-22.5 189t-45.5 171l-23 65h71q4 -9 10.5 -25t23 -64.5t29.5 -96.5t23.5 -114.5t10.5 -124.5q0 -92 -24.5 -204t-48.5 -177l-24 -66h-71z" />
<glyph unicode="*" horiz-adv-x="406" d="M47 458l108 79l-106 77l30 42l107 -78l41 126l49 -16l-41 -127h131v-50h-132l41 -125l-49 -15l-41 126l-108 -79z" />
<glyph unicode="+" d="M55 217v68h189v195h70v-195h191v-68h-191v-197h-70v197h-189z" />
<glyph unicode="," horiz-adv-x="208" d="M34 -130l38 241h80l-58 -241h-60z" />
<glyph unicode="-" horiz-adv-x="376" d="M63 233v69h251v-69h-251z" />
<glyph unicode="." horiz-adv-x="201" d="M63 0v111h76v-111h-76z" />
<glyph unicode="/" horiz-adv-x="390" d="M29 15l264 692l69 -25l-264 -692z" />
<glyph unicode="0" d="M46 320q0 101 16 171t47.5 108.5t72.5 55t97 16.5q57 0 98.5 -16.5t73 -55t47 -108t15.5 -170.5q0 -161 -53.5 -246t-179.5 -85t-180 85t-54 245zM124 319q0 -58 6 -100.5t22 -81.5t48 -59.5t80 -20.5q47 0 78.5 19t47.5 56.5t22.5 81.5t6.5 106q0 158 -37 221t-118 63 t-118.5 -62.5t-37.5 -222.5z" />
<glyph unicode="1" d="M110 521l208 140h70v-661h-77v571l-165 -110z" />
<glyph unicode="2" d="M69 0v63l197 205q74 77 102.5 121t28.5 97q0 63 -35 90.5t-103 27.5q-30 0 -75 -5.5t-75 -10.5l-30 -6l-6 61q110 28 197 28q205 0 205 -177q0 -71 -32.5 -123.5t-104.5 -123.5l-180 -180h334v-67h-423z" />
<glyph unicode="3" d="M64 16l9 59q97 -18 198 -18q141 0 141 129q0 118 -133 123h-130v62l129 4q42 1 80 33.5t38 82.5q0 61 -31 87t-102 26q-38 0 -84 -4.5t-73 -9.5l-27 -4l-5 58q106 27 192 27q109 0 158.5 -42t49.5 -130q0 -103 -97 -148q58 -21 85.5 -54.5t27.5 -107.5q0 -199 -211 -199 q-44 0 -97.5 6.5t-85.5 13.5z" />
<glyph unicode="4" d="M47 124v58l197 479h82l-202 -471h234v216h76v-216h79v-66h-79v-126h-76v126h-311z" />
<glyph unicode="5" d="M66 21l9 60q107 -23 200 -23q66 0 106.5 41t40.5 116q0 132 -138 132q-34 0 -73 -10.5t-61 -20.5l-21 -10l-53 11l20 344h377v-68h-314l-18 -220q82 41 153 41q206 0 206 -196q0 -112 -59.5 -169.5t-162.5 -57.5q-40 0 -93 7.5t-86 15.5z" />
<glyph unicode="6" d="M54 307q0 364 254 364q33 0 77.5 -5t72.5 -10l28 -5l-8 -63q-92 16 -170 16q-82 0 -125.5 -57t-50.5 -177q95 42 164 42q104 0 161 -49.5t57 -151.5q0 -109 -57.5 -165t-164.5 -56q-118 0 -178 81.5t-60 235.5zM132 292q0 -109 41 -172t119 -63q70 0 107 39t37 115 q0 134 -146 134q-32 0 -71 -9.5t-63 -19.5l-23 -9q-1 -4 -1 -15z" />
<glyph unicode="7" d="M82 594v67h399v-109l-250 -565l-71 23l244 548v36h-322z" />
<glyph unicode="8" d="M35 172q0 68 29.5 106t85.5 67q-54 27 -79 61.5t-25 93.5q0 84 62 127.5t170 43.5q109 0 172.5 -43.5t63.5 -128.5q0 -61 -25.5 -94t-85.5 -60q59 -23 90 -60.5t31 -101.5q0 -102 -67 -148t-179 -46q-110 0 -176.5 43.5t-66.5 139.5zM113 181q0 -65 44.5 -95t120.5 -30 q168 0 168 131q0 53 -30.5 78.5t-89.5 42.5h-101q-55 -15 -83.5 -44.5t-28.5 -82.5zM124 491q0 -44 25 -72t76 -46h101q110 36 110 117q0 114 -157 114q-155 0 -155 -113z" />
<glyph unicode="9" d="M45 455q0 100 63 158t162 58q116 0 175 -87.5t59 -255.5q0 -182 -66 -260t-189 -78q-33 0 -77.5 5t-73.5 11l-28 5l8 67q93 -17 171 -17q175 0 176 224q-102 -36 -168 -36q-99 0 -155.5 52t-56.5 154zM125 455q0 -68 36 -102.5t102 -34.5q29 0 69.5 8t67.5 16l26 8 q-1 118 -39.5 184t-116.5 66q-65 0 -105 -39t-40 -106z" />
<glyph unicode=":" horiz-adv-x="201" d="M63 0v111h76v-111h-76zM63 327v111h76v-111h-76z" />
<glyph unicode=";" horiz-adv-x="230" d="M44 -130l38 241h80l-58 -241h-60zM84 327v111h76v-111h-76z" />
<glyph unicode="&#x3c;" d="M61 218v66l417 203v-78l-339 -157l339 -160v-79z" />
<glyph unicode="=" d="M64 124v69h432v-69h-432zM64 309v69h432v-69h-432z" />
<glyph unicode="&#x3e;" d="M82 13v79l339 160l-339 157v78l417 -203v-66z" />
<glyph unicode="?" horiz-adv-x="409" d="M30 675q96 27 156 27q98 0 143 -38t45 -130q0 -46 -21.5 -83.5t-83.5 -106.5q-59 -65 -59 -108v-40h-72q-5 29 -5 51q0 38 17 66t66 84q48 55 63.5 80.5t15.5 56.5q0 58 -26.5 79t-88.5 21q-24 0 -59.5 -5t-58.5 -10l-23 -5zM132 1v116h78v-116h-78z" />
<glyph unicode="@" horiz-adv-x="921" d="M45 261q0 243 103 348.5t327 105.5q226 0 317 -106.5t91 -343.5q0 -270 -176 -270q-57 0 -85.5 21.5t-40.5 76.5q-17 -30 -60.5 -64t-95.5 -34q-86 0 -124 62t-38 183q0 131 43.5 198t156.5 67q25 0 70.5 -4.5t78.5 -8.5l32 -4v-357q0 -38 14.5 -55t48.5 -17 q49 0 77.5 45t28.5 161q0 106 -15 175t-53 118.5t-103.5 71t-166.5 21.5q-190 0 -274.5 -90t-84.5 -300q0 -208 80 -304t275 -96l135 10l2 -65q-92 -9 -137 -9q-229 0 -327.5 112.5t-98.5 351.5zM340 247q0 -94 21 -141t77 -47q34 0 66.5 26t48.5 53l16 26v267l-21 3 q-21 2 -46 4.5t-36 2.5q-40 0 -66 -14.5t-38.5 -43t-17 -60t-4.5 -76.5z" />
<glyph unicode="A" horiz-adv-x="553" d="M22 0l179 692h151l178 -692h-76l-48 176h-259l-48 -176h-77zM162 244h228l-99 380h-29z" />
<glyph unicode="B" horiz-adv-x="570" d="M77 0v692h229q197 0 197 -173q0 -120 -88 -160q58 -21 83 -59.5t25 -102.5q0 -102 -52.5 -149.5t-158.5 -47.5h-235zM153 67h158q68 0 100 32.5t32 101.5q0 62 -33.5 90.5t-101.5 28.5h-155v-253zM153 386h154q59 0 88 34t29 92q0 113 -118 113h-153v-239z" />
<glyph unicode="C" horiz-adv-x="501" d="M53 345q0 180 52 268.5t183 88.5q37 0 81 -5t69 -11l26 -5l-5 -64q-94 17 -161 17q-97 0 -131.5 -71t-34.5 -218q0 -56 4 -97t14.5 -78.5t29 -61t48.5 -37t71 -13.5q27 0 67 4t66 8l27 5l4 -64q-96 -21 -175 -21q-70 0 -117 23.5t-72.5 72.5t-35.5 110t-10 149z" />
<glyph unicode="D" horiz-adv-x="599" d="M77 0v692h229q134 0 187 -78t53 -255q0 -187 -52.5 -273t-187.5 -86h-229zM153 68h153q93 0 126.5 71.5t33.5 219.5q0 143 -33 204t-127 61h-153v-556z" />
<glyph unicode="E" horiz-adv-x="507" d="M77 0v692h387v-68h-311v-238h255v-68h-255v-250h311v-68h-387z" />
<glyph unicode="F" horiz-adv-x="487" d="M77 0v692h388v-68h-312v-273h256v-67h-256v-284h-76z" />
<glyph unicode="G" horiz-adv-x="574" d="M52 347q0 86 11.5 147.5t39 110.5t78.5 73t125 24q47 0 99 -6.5t81 -13.5l28 -6l-4 -61q-116 19 -199 19q-46 0 -79.5 -14.5t-52.5 -38.5t-30 -63t-14.5 -77.5t-3.5 -93.5q0 -63 8 -111.5t27 -90.5t55.5 -64.5t88.5 -22.5q22 0 54 3t52 7l21 3v224h-105v66h182v-349 q-137 -22 -212 -22q-250 0 -250 357z" />
<glyph unicode="H" horiz-adv-x="620" d="M77 0v692h76v-309h313v309h77v-692h-77v316h-313v-316h-76z" />
<glyph unicode="I" horiz-adv-x="230" d="M77 0v692h76v-692h-76z" />
<glyph unicode="J" horiz-adv-x="268" d="M17 -2q68 0 84.5 23.5t16.5 98.5v572h76l1 -578q0 -57 -5.5 -88.5t-24.5 -55t-53.5 -32t-94.5 -8.5v68z" />
<glyph unicode="K" horiz-adv-x="525" d="M77 0v692h76v-320l94 4l167 316h86l-187 -342l198 -350h-86l-177 308l-95 -3v-305h-76z" />
<glyph unicode="L" horiz-adv-x="438" d="M77 0v692h76v-624h273v-68h-349z" />
<glyph unicode="M" horiz-adv-x="776" d="M77 0v692h135l176 -594l177 594h134v-692h-73v624h-14l-177 -599h-95l-176 599h-15v-624h-72z" />
<glyph unicode="N" horiz-adv-x="629" d="M77 0v692h134l249 -613h18v613h74v-692h-132l-250 616h-17v-616h-76z" />
<glyph unicode="O" horiz-adv-x="612" d="M53 352q0 95 10 155.5t37 107t77.5 67t128.5 20.5q148 0 200.5 -79.5t52.5 -270.5q0 -136 -23.5 -215t-84.5 -115q-52 -32 -145 -32q-147 0 -200 84.5t-53 277.5zM133 352q0 -66 3.5 -109t13.5 -81t29.5 -59t50.5 -33t76 -12q57 0 90 17q50 25 66.5 88.5t16.5 188.5 q0 162 -32 222t-141 60q-56 0 -88 -14q-52 -22 -68.5 -82.5t-16.5 -185.5z" />
<glyph unicode="P" horiz-adv-x="548" d="M77 0v692h219q111 0 165.5 -53t54.5 -171q0 -240 -220 -240h-143v-228h-76zM153 297h139q73 0 108.5 40t35.5 133q0 85 -35 119.5t-109 34.5h-139v-327z" />
<glyph unicode="Q" horiz-adv-x="612" d="M53 352q0 95 10 155.5t37 107t77.5 67t128.5 20.5q148 0 200.5 -79.5t52.5 -270.5q0 -135 -22.5 -213t-81.5 -115l78 -128l-66 -39l-79 141q-38 -8 -82 -8q-147 0 -200 84.5t-53 277.5zM133 352q0 -66 3.5 -109t13.5 -81t29.5 -59t50.5 -33t76 -12q57 0 90 17 q50 25 66.5 88.5t16.5 188.5q0 162 -32 222t-141 60q-56 0 -88 -14q-52 -22 -68.5 -82.5t-16.5 -185.5z" />
<glyph unicode="R" horiz-adv-x="566" d="M77 0v692h228q208 0 208 -210q0 -161 -115 -202l132 -280h-83l-124 265h-170v-265h-76zM153 332h152q66 0 97.5 37t31.5 113q0 73 -31.5 108t-97.5 35h-152v-293z" />
<glyph unicode="S" horiz-adv-x="500" d="M43 510q0 192 212 192q35 0 81.5 -5t75.5 -11l28 -5l-4 -61q-110 14 -177 14q-70 0 -103.5 -27.5t-33.5 -88.5q0 -59 31.5 -82t118.5 -45q101 -25 143.5 -63.5t42.5 -125.5q0 -212 -208 -212q-35 0 -84.5 4.5t-81.5 9.5l-32 5l5 63q127 -14 193 -14q130 0 130 137 q0 59 -31.5 85t-108.5 43q-104 24 -150.5 64t-46.5 123z" />
<glyph unicode="T" horiz-adv-x="471" d="M12 624v68h447v-68h-183v-624h-77v624h-187z" />
<glyph unicode="U" horiz-adv-x="597" d="M73 211v481h76v-486q0 -79 36 -113.5t113 -34.5q78 0 113.5 34.5t35.5 113.5v486h77v-481q0 -114 -55 -167.5t-171 -53.5q-115 0 -170 53.5t-55 167.5z" />
<glyph unicode="V" horiz-adv-x="543" d="M22 692h77l151 -624h44l149 624h77l-168 -692h-161z" />
<glyph unicode="W" horiz-adv-x="831" d="M30 692h74l119 -621h26l124 611h83l127 -611h26l116 621h75l-134 -692h-136l-116 583l-113 -583h-135z" />
<glyph unicode="X" horiz-adv-x="518" d="M16 0l198 344l-196 348h84l157 -289l157 289h83l-192 -347l195 -345h-84l-158 289l-161 -289h-83z" />
<glyph unicode="Y" horiz-adv-x="498" d="M10 692h83l156 -319l155 319h82l-200 -402v-290h-73v290z" />
<glyph unicode="Z" horiz-adv-x="495" d="M40 -1v96l329 504v25h-329v68h415v-96l-330 -505v-24h330v-68h-415z" />
<glyph unicode="[" horiz-adv-x="308" d="M72 -122v869h198v-65h-126v-739h126v-65h-198z" />
<glyph unicode="\" horiz-adv-x="451" d="M29 693l77 8l315 -717l-76 -8z" />
<glyph unicode="]" horiz-adv-x="308" d="M38 -57h126v739h-126v65h198v-869h-198v65z" />
<glyph unicode="^" d="M53 319l185 341h68l191 -341h-80l-144 267l-140 -267h-80z" />
<glyph unicode="_" horiz-adv-x="627" d="M90 -79h448v-73h-448v73z" />
<glyph unicode="`" horiz-adv-x="518" d="M121 685l23 62l206 -94l-20 -54z" />
<glyph unicode="a" horiz-adv-x="493" d="M47 240q0 50 5 89t18.5 74t36 58t57.5 36t83 13q25 0 70 -4t77 -8l33 -5v-370l6 -122l-75 -3q-5 46 -5 86q-2 -4 -6.5 -10t-18.5 -22.5t-30 -29t-40.5 -22.5t-50.5 -10q-87 0 -123.5 61.5t-36.5 188.5zM123 240q0 -91 21.5 -138t77.5 -47q34 0 66.5 26t47.5 52l16 26v277 q-69 9 -96 9q-77 0 -105 -49t-28 -156z" />
<glyph unicode="b" horiz-adv-x="494" d="M66 1v717h75v-278q7 8 20.5 19.5t51 31t71.5 19.5q90 0 126.5 -63t36.5 -187q0 -141 -49 -205.5t-161 -64.5q-27 0 -69.5 3t-71.5 5zM141 62q75 -7 99 -7q75 0 103 48.5t28 156.5q0 89 -22 137t-78 48q-19 0 -39.5 -7.5t-36 -17.5t-28.5 -20.5t-19 -17.5l-7 -8v-312z" />
<glyph unicode="c" horiz-adv-x="399" d="M46 257q0 132 46.5 192.5t148.5 60.5q23 0 53 -4t49 -8l19 -3l-3 -60q-67 9 -103 9q-75 0 -104 -44.5t-29 -142.5q0 -105 26 -153.5t107 -48.5l103 8l3 -59q-71 -14 -122 -14q-112 0 -153 64.5t-41 202.5z" />
<glyph unicode="d" horiz-adv-x="493" d="M47 243q0 134 45.5 200.5t148.5 66.5q23 0 50.5 -3t44.5 -7l16 -3v221h75v-718h-73l-1 73q-2 -3 -6.5 -9t-19 -20t-30.5 -25t-41 -20t-51 -9q-85 0 -121.5 64.5t-36.5 188.5zM123 243q0 -90 21.5 -139t80.5 -49q20 0 41 10t35.5 23.5t26.5 27.5t18 24l6 10v284 q-57 11 -104 11q-70 0 -97.5 -50t-27.5 -152z" />
<glyph unicode="e" horiz-adv-x="453" d="M45 242q0 267 203 267q167 0 167 -134q0 -87 -56.5 -119.5t-185.5 -32.5h-52v-15q0 -153 117 -153q32 0 70.5 4.5t61.5 9.5l23 5l4 -55q-72 -28 -163 -28q-99 0 -144 59.5t-45 191.5zM122 281h50q94 0 131.5 19t37.5 74q0 73 -93 73q-124 0 -126 -166z" />
<glyph unicode="f" horiz-adv-x="310" d="M29 435v65h57v43q0 100 30 142.5t97 42.5q14 0 36 -2.5t37 -5.5l15 -2l-1 -62q-45 7 -74 7q-37 0 -51 -28t-14 -93v-42h131v-65h-131v-435l-7 -222h-68v657h-57z" />
<glyph unicode="g" horiz-adv-x="470" d="M40 -100q0 42 26.5 80t65.5 63q-25 21 -25 60q0 15 8 35t16 32l8 13q-92 34 -92 155q0 82 44.5 127t126.5 45q19 0 41 -3t35 -7l12 -3l143 2v-62h-88q34 -32 34 -99q0 -82 -46 -125.5t-132 -43.5l-24 2q-17 -37 -17 -59q0 -19 16.5 -28.5t71.5 -9.5q93 0 138 -28t45 -109 q0 -77 -59 -124.5t-153 -47.5q-96 0 -145.5 29t-49.5 106zM111 -88q0 -47 31 -65t96 -18q63 0 100 28.5t37 79.5q0 44 -27.5 58t-87.5 14q-49 0 -81 7q-26 -14 -47 -43.5t-21 -60.5zM118 338q0 -104 99 -104q107 0 107 104q0 109 -106 109q-100 0 -100 -109z" />
<glyph unicode="h" horiz-adv-x="501" d="M66 0v718h75v-292q2 3 7 9t20 20.5t31 25.5t39.5 20t47.5 9q153 0 153 -198v-312h-74v290q0 81 -22 118t-72 37q-19 0 -39 -9.5t-35.5 -22.5t-28.5 -26.5t-20 -22.5l-7 -10v-354h-75z" />
<glyph unicode="i" horiz-adv-x="207" d="M65 605v89h77v-89h-77zM66 0v500h75v-500h-75z" />
<glyph unicode="j" horiz-adv-x="207" d="M-46 -177q79 48 95.5 75.5t16.5 101.5v500h75v-500q0 -54 -3.5 -82t-21.5 -55.5t-46.5 -47t-86.5 -50.5zM66 605v90h76v-90h-76z" />
<glyph unicode="k" horiz-adv-x="453" d="M66 0v718h75v-424l64 3l142 203h84l-163 -230l166 -270h-84l-144 233l-65 -4v-229h-75z" />
<glyph unicode="l" horiz-adv-x="215" d="M70 0v718h75v-718h-75z" />
<glyph unicode="m" horiz-adv-x="778" d="M66 0v500h74l1 -75q3 3 7.5 9t20 20.5t31 26t39 20.5t45.5 9q29 0 53 -9t37.5 -21.5t22.5 -25t13 -21.5l3 -9q8 10 21 24t52.5 38t76.5 24q153 0 153 -210v-300h-74v290q0 82 -21.5 118.5t-72.5 36.5q-29 0 -58.5 -19.5t-44.5 -39.5l-15 -20q4 -34 4 -72v-294h-75v284 q0 85 -21.5 123t-68.5 38q-28 0 -60 -23.5t-50 -46.5l-18 -23v-352h-75z" />
<glyph unicode="n" horiz-adv-x="501" d="M66 0v500h74l1 -75q2 3 7 9t20 20.5t31 26t39.5 20.5t47.5 9q153 0 153 -199v-311h-74v290q0 81 -22 118t-72 37q-30 0 -62.5 -23.5t-50.5 -46.5l-17 -23v-352h-75z" />
<glyph unicode="o" horiz-adv-x="486" d="M47 255q0 128 43 191.5t153 63.5t153 -63.5t43 -191.5q0 -52 -4 -89t-16 -72t-33 -56.5t-57 -34.5t-86 -13t-86 13t-57 34.5t-33 56.5t-16 72t-4 89zM119 255q0 -42 2 -68.5t9 -54t20 -43t36.5 -25t56.5 -9.5t56.5 9.5t36.5 25t20 43t9 54t2 68.5q0 100 -26.5 145 t-97.5 45t-97.5 -45t-26.5 -145z" />
<glyph unicode="p" horiz-adv-x="492" d="M66 -222v722h74l1 -74q6 9 17.5 23t48 37.5t73.5 23.5q92 0 129 -64t37 -190q0 -133 -45.5 -199.5t-151.5 -66.5q-22 0 -49 3t-43 7l-16 3v-225h-75zM141 65q56 -10 101 -10q72 0 100 49t28 152q0 90 -21 139.5t-78 49.5q-32 0 -64.5 -23.5t-48.5 -47.5l-17 -24v-285z " />
<glyph unicode="q" horiz-adv-x="492" d="M47 243q0 138 47 202.5t156 64.5q24 0 68 -4t76 -8l32 -5v-709h-74v287q-2 -3 -6 -8.5t-18 -19.5t-29.5 -24.5t-40 -19.5t-49.5 -9q-47 0 -79.5 19t-50 54.5t-25 79t-7.5 100.5zM123 243q0 -95 21.5 -141.5t80.5 -46.5q30 0 62 23.5t49 46.5l16 23v287q-65 10 -94 10 q-74 0 -104.5 -45t-30.5 -157z" />
<glyph unicode="r" horiz-adv-x="314" d="M66 0v500h75v-76q8 7 22 18.5t55 35t79 32.5v-79q-32 -8 -71 -25.5t-62 -31.5l-23 -14v-360h-75z" />
<glyph unicode="s" horiz-adv-x="427" d="M43 363q0 76 47 111.5t116 35.5q37 0 78.5 -4t64.5 -8l23 -5l-3 -60q-94 12 -160 12q-39 0 -65 -18.5t-26 -57.5q0 -38 23 -54t82 -27q38 -8 57 -13t44 -16t36 -24t19.5 -35.5t8.5 -52.5q0 -87 -46 -122t-135 -35q-30 0 -71 5t-66 10l-26 5l5 61q104 -16 152 -16 q59 0 85.5 19t26.5 66q0 17 -5.5 29.5t-13 20t-24.5 13.5t-29.5 9t-38.5 8q-83 17 -121 46t-38 97z" />
<glyph unicode="t" horiz-adv-x="324" d="M25 435v65h65v148h74v-148h141v-65h-141v-290q0 -90 65 -90l79 6l4 -59q-58 -12 -92 -12q-72 0 -101 37.5t-29 113.5v294h-65z" />
<glyph unicode="u" horiz-adv-x="502" d="M62 193v307h75v-290q0 -82 21.5 -118.5t72.5 -36.5q30 0 62.5 23.5t50.5 46.5l17 23v352h74v-500h-73l-1 75q-2 -3 -7 -9t-20 -20.5t-31 -26t-39.5 -20.5t-47.5 -9q-81 0 -117.5 50t-36.5 153z" />
<glyph unicode="v" horiz-adv-x="447" d="M22 500h76l110 -436h31l110 436h76l-133 -500h-137z" />
<glyph unicode="w" horiz-adv-x="728" d="M29 500h75l93 -435h20l107 425h80l106 -425h21l92 435h75l-107 -500h-132l-95 389l-95 -389h-132z" />
<glyph unicode="x" horiz-adv-x="417" d="M21 0l146 248l-146 252h78l111 -197l110 197h76l-146 -251l146 -249h-77l-111 194l-111 -194h-76z" />
<glyph unicode="y" horiz-adv-x="448" d="M24 500h74l110 -436h31l112 436h74l-192 -722h-72l63 222h-69z" />
<glyph unicode="z" horiz-adv-x="421" d="M38 0v64l261 371h-261v65h345v-63l-261 -372h261v-65h-345z" />
<glyph unicode="{" horiz-adv-x="332" d="M24 279v63q36 8 65 33t29 70q0 19 -3.5 66.5t-3.5 64.5q0 92 43 133.5t139 43.5l1 -68q-63 -1 -85.5 -25t-22.5 -80q0 -7 3.5 -64t3.5 -66q0 -61 -20 -90.5t-69 -47.5q89 -33 89 -135q0 -15 -3.5 -69t-3.5 -72q0 -93 108 -95l-1 -68q-182 4 -182 164q0 17 3.5 68.5 t3.5 66.5q0 26 -8 45t-23 30.5t-27.5 17.5t-29.5 12q-4 1 -6 2z" />
<glyph unicode="|" horiz-adv-x="217" d="M71 -222v940h75v-940h-75z" />
<glyph unicode="}" horiz-adv-x="332" d="M38 -60q63 1 85.5 25t22.5 80q0 7 -3.5 64t-3.5 66q0 61 20 90.5t69 47.5q-89 33 -89 135q0 15 3.5 69t3.5 72q0 93 -108 95l1 68q182 -4 182 -164q0 -17 -3.5 -68.5t-3.5 -66.5q0 -26 8 -45t23 -30.5t27.5 -17.5t29.5 -12q4 -1 6 -2v-63q-36 -8 -65 -33t-29 -70 q0 -19 3.5 -66.5t3.5 -64.5q0 -92 -43 -133.5t-139 -43.5z" />
<glyph unicode="~" d="M66 272q63 53 117 53q29 0 103.5 -30.5t95.5 -30.5q16 0 41.5 11.5t42.5 22.5l18 12l10 -61q-7 -6 -18 -15t-40.5 -24t-53.5 -15q-30 0 -105.5 31t-94.5 31q-18 0 -44.5 -11.5t-43.5 -23.5l-17 -12z" />
<glyph unicode="&#xa1;" horiz-adv-x="214" d="M68 -200l4 470h70l2 -470h-76zM68 389v111h76v-111h-76z" />
<glyph unicode="&#xa2;" d="M109 248q0 204 169 215v119h62v-121l95 -10l-3 -67q-86 8 -122 8q-69 0 -97 -33t-28 -111q0 -74 26.5 -107.5t104.5 -33.5l117 7l3 -64q-56 -8 -95 -11v-119h-63v117q-169 4 -169 211z" />
<glyph unicode="&#xa3;" d="M78 0v65h93v291h-75v65h75v51q0 52 5 85.5t19.5 63.5t43.5 44t75 14q18 0 52 -4.5t59 -8.5l25 -4l-2 -60q-85 10 -126 10q-21 0 -35.5 -8t-22 -18.5t-11.5 -32.5t-4.5 -38.5t-0.5 -47.5v-46h189v-65h-189v-291h143l74 16l11 -63l-76 -18h-322z" />
<glyph unicode="&#xa4;" d="M58 83l70 70q-29 45 -29 99t29 99l-70 70l53 53l70 -71q45 29 99 29t99 -29l70 71l53 -53l-71 -70q29 -45 29 -99t-29 -99l71 -70l-53 -53l-70 70q-45 -29 -99 -29t-99 29l-70 -70zM202 174q32 -32 78 -32t78 32t32 78t-32 78t-78 32t-78 -32t-32 -78t32 -78z" />
<glyph unicode="&#xa5;" d="M27 661h85l169 -288l166 288h86l-165 -284h121v-68h-160l-10 -15v-67h170v-68h-170v-159h-76v159h-172v68h172v67l-9 15h-163v68h122z" />
<glyph unicode="&#xa6;" horiz-adv-x="221" d="M73 156h75v-378h-75v378zM73 344v374h75v-374h-75z" />
<glyph unicode="&#xa7;" horiz-adv-x="465" d="M46 255q0 60 53 124q-23 21 -32.5 44.5t-9.5 66.5q0 75 46 117.5t138 42.5q28 0 66.5 -4t62.5 -8l25 -5l-3 -66q-103 14 -148 14q-116 0 -116 -86q0 -47 27 -65.5t108 -35.5q78 -16 115 -46t37 -99q0 -35 -14 -73t-26 -57q33 -28 33 -99q0 -168 -179 -168q-27 0 -68.5 4 t-69.5 8l-28 4l7 66q103 -14 155 -14q115 0 115 96q0 18 -6.5 31t-15 21.5t-28.5 15.5t-37 11t-49 11q-84 16 -121 47.5t-37 101.5zM117 266q0 -42 24 -60.5t82 -29.5q69 -13 96 -28q5 7 14.5 35.5t9.5 56.5q0 44 -24 60.5t-74 26.5q-91 23 -97 26q-31 -52 -31 -87z" />
<glyph unicode="&#xa8;" horiz-adv-x="680" d="M95 620v93h62v-93h-62zM278 620v93h60v-93h-60z" />
<glyph unicode="&#xa9;" horiz-adv-x="632" d="M52 434q0 116 75.5 194.5t188.5 78.5q114 0 188.5 -79.5t74.5 -193.5q0 -116 -74 -194.5t-190 -78.5q-112 0 -187.5 79t-75.5 194zM96 434q0 -96 62.5 -162.5t156.5 -66.5t157 66.5t63 162.5t-63 163t-157 67q-93 0 -156 -67t-63 -163zM202 435q0 81 26.5 118.5 t92.5 37.5q19 0 38 -2.5t29 -4.5l9 -3l-3 -53q-39 6 -71 6q-37 0 -48.5 -22.5t-11.5 -76.5q0 -53 13 -77.5t47 -24.5l71 7l3 -52q-37 -12 -78 -12q-65 0 -91 37.5t-26 121.5z" />
<glyph unicode="&#xaa;" horiz-adv-x="377" d="M50 449q0 80 96 86l88 6v22q0 40 -49 40l-115 -7l-2 48q69 15 120 15q56 0 83 -22t27 -77v-137q9 -11 30 -17l-2 -49q-38 0 -54 6t-30 20q-54 -26 -107 -26q-40 0 -62.5 25t-22.5 67zM116 450q0 -39 36 -39q16 0 36.5 4.5t33.5 8.5l12 4v67l-77 -5q-22 -2 -31.5 -11 t-9.5 -29z" />
<glyph unicode="&#xab;" horiz-adv-x="499" d="M142 229v38l178 142v-10l12 10v-68l-118 -92l118 -101v-69l-12 10v-10z" />
<glyph unicode="&#xac;" d="M65 274v68h428v-225h-70v157h-358z" />
<glyph unicode="&#xad;" horiz-adv-x="376" d="M63 233v69h251v-69h-251z" />
<glyph unicode="&#xae;" horiz-adv-x="632" d="M52 434q0 116 75 194.5t188 78.5q115 0 189.5 -79t74.5 -194q0 -116 -74 -194.5t-190 -78.5q-112 0 -187.5 79t-75.5 194zM96 434q0 -95 63 -162t156 -67q94 0 157 66.5t63 162.5t-63 163t-157 67q-93 0 -156 -67.5t-63 -162.5zM206 282v303h110q57 0 85.5 -22t28.5 -73 q0 -37 -11.5 -58.5t-39.5 -34.5l56 -115h-62l-49 107h-60v-107h-58zM263 436h60q26 0 38 12t12 39q0 51 -62 51h-48v-102z" />
<glyph unicode="&#xaf;" horiz-adv-x="439" d="M78 639v59h274v-59h-274z" />
<glyph unicode="&#xb0;" d="M138 561q0 63 39.5 102t102.5 39t102.5 -39t39.5 -102t-39.5 -102t-102.5 -39t-102.5 39t-39.5 102zM189 561q0 -42 25 -67.5t66 -25.5t67 25.5t26 67.5q0 41 -26 67t-67 26t-66 -26t-25 -67z" />
<glyph unicode="&#xb1;" d="M55 38v68h450v-68h-450zM55 293v68h189v126h70v-126h191v-68h-191v-127h-70v127h-189z" />
<glyph unicode="&#xb2;" horiz-adv-x="280" d="M31 478v56l88 86q50 48 50 83q0 36 -49 36q-13 0 -34 -2.5t-36 -4.5l-14 -3l-3 59q60 12 103 12q52 0 76 -22t24 -69q0 -57 -62 -113l-60 -60h126v-58h-209z" />
<glyph unicode="&#xb3;" horiz-adv-x="280" d="M30 478l4 56q57 -7 100 -7q50 0 50 41q0 42 -47 42h-65v54h65q14 0 26 13t12 31q0 33 -45 33l-92 -7l-4 56q59 10 102 10q106 0 106 -84q0 -46 -40 -75q25 -8 36.5 -24t11.5 -52q0 -97 -107 -97q-22 0 -50 2.5t-45 5.5z" />
<glyph unicode="&#xb4;" horiz-adv-x="546" d="M118 652l206 96l23 -66l-208 -86z" />
<glyph unicode="&#xb5;" d="M93 -222v722h75v-290q0 -82 21.5 -118.5t72.5 -36.5q30 0 62.5 23.5t49.5 46.5l18 23v352h74v-500h-73l-1 75q-2 -3 -7 -9t-20 -20.5t-31 -26t-39.5 -20.5t-47.5 -9q-47 0 -79 17v-229h-75z" />
<glyph unicode="&#xb6;" horiz-adv-x="554" d="M32 501q0 89 43.5 144t131.5 55h310v-64h-68v-636h-63v636h-110v-636h-64v332q-79 0 -129.5 49.5t-50.5 119.5z" />
<glyph unicode="&#xb7;" horiz-adv-x="202" d="M63 245v117h77v-117h-77z" />
<glyph unicode="&#xb8;" horiz-adv-x="791" d="M361 -204l3 51q37 -3 62 -3q42 0 42 36q0 32 -42 32h-40v93h39v-50h8q98 0 98 -79q0 -44 -24 -65.5t-65 -21.5q-18 0 -38.5 1.5t-31.5 3.5z" />
<glyph unicode="&#xb9;" horiz-adv-x="280" d="M33 720l101 70h60v-312h-64v242l-68 -47z" />
<glyph unicode="&#xba;" horiz-adv-x="361" d="M49 509q0 150 131 150q90 0 117 -63q15 -35 15 -87q0 -154 -132 -154q-109 0 -127 105q-4 20 -4 49zM113 509q0 -8 3 -38q5 -31 20 -43.5t44 -12.5q38 0 53 20.5t15 73.5q0 16 -2 36q-5 30 -20.5 42t-45.5 12q-37 0 -52 -20t-15 -70z" />
<glyph unicode="&#xbb;" horiz-adv-x="507" d="M174 84v68l118 92l-118 101v69l5 -4v4l178 -150v-38l-178 -142v4z" />
<glyph unicode="&#xbc;" horiz-adv-x="566" d="M18 720l101 70h60v-312h-64v242l-68 -47zM89 15l264 692l69 -25l-264 -692zM307 48v55l69 209h70l-73 -205h75l5 88h58v-88h27v-59h-27v-48h-63v48h-141z" />
<glyph unicode="&#xbd;" horiz-adv-x="589" d="M18 720l101 70h60v-312h-64v242l-68 -47zM89 15l264 692l69 -25l-264 -692zM343 0v56l88 86q50 48 50 83q0 36 -49 36q-13 0 -34 -2.5t-36 -4.5l-14 -3l-3 59q60 12 103 12q52 0 76 -22t24 -69q0 -57 -62 -113l-60 -60h126v-58h-209z" />
<glyph unicode="&#xbe;" horiz-adv-x="589" d="M37 478l4 56q57 -7 100 -7q50 0 50 41q0 42 -47 42h-65v54h65q14 0 26 13t12 31q0 33 -45 33l-92 -7l-4 56q59 10 102 10q106 0 106 -84q0 -46 -40 -75q25 -8 36.5 -24t11.5 -52q0 -97 -107 -97q-22 0 -50 2.5t-46 5.5zM114 15l264 692l69 -25l-264 -692zM332 48v55 l69 209h70l-73 -205h75l5 88h58v-88h27v-59h-27v-48h-63v48h-141z" />
<glyph unicode="&#xbf;" horiz-adv-x="404" d="M32 -33q0 46 21.5 83.5t83.5 106.5q59 65 59 108v40h72q5 -29 5 -51q0 -38 -17 -66t-66 -84q-48 -55 -63.5 -80.5t-15.5 -56.5q0 -58 26.5 -79t88.5 -21q24 0 59.5 5t58.5 10l23 5l9 -61q-96 -27 -156 -27q-98 0 -143 38t-45 130zM196 384v116h78v-116h-78z" />
<glyph unicode="&#xc0;" horiz-adv-x="553" d="M22 0l179 692h151l178 -692h-76l-48 176h-259l-48 -176h-77zM132 866l24 65l206 -94l-22 -57zM162 244h228l-99 380h-29z" />
<glyph unicode="&#xc1;" horiz-adv-x="553" d="M22 0l179 692h151l178 -692h-76l-48 176h-259l-48 -176h-77zM162 244h228l-99 380h-29zM191 840l206 96l24 -65l-208 -86z" />
<glyph unicode="&#xc2;" horiz-adv-x="553" d="M22 0l179 692h151l178 -692h-76l-48 176h-259l-48 -176h-77zM122 793l131 138h41l132 -138h-73l-79 81l-79 -81h-73zM162 244h228l-99 380h-29z" />
<glyph unicode="&#xc3;" horiz-adv-x="553" d="M22 0l179 692h151l178 -692h-76l-48 176h-259l-48 -176h-77zM114 864q54 61 92 61q27 0 83.5 -27.5t68.5 -27.5q9 0 26.5 11t31.5 23l13 11l16 -51q-53 -60 -87 -60q-23 0 -81 28t-73 28q-10 0 -29 -12t-33 -24l-14 -12zM162 244h228l-99 380h-29z" />
<glyph unicode="&#xc4;" horiz-adv-x="553" d="M22 0l179 692h151l178 -692h-76l-48 176h-259l-48 -176h-77zM153 814v93h61v-93h-61zM162 244h228l-99 380h-29zM341 814v93h60v-93h-60z" />
<glyph unicode="&#xc5;" horiz-adv-x="553" d="M22 0l173 671q-22 25 -22 69q0 50 28 75t77 25q47 0 75.5 -25.5t28.5 -74.5q0 -44 -25 -71l173 -669h-76l-48 176h-259l-48 -176h-77zM162 244h228l-99 380h-29zM223 740q0 -46 50 -48h5q53 0 53 48t-53 48q-55 0 -55 -48z" />
<glyph unicode="&#xc6;" horiz-adv-x="775" d="M22 0l180 696h531v-72h-316v-238h259v-69h-259v-245h316v-72h-388v177h-203l-47 -177h-73zM158 248h187v376h-89z" />
<glyph unicode="&#xc7;" horiz-adv-x="501" d="M53 345q0 180 52 268.5t183 88.5q37 0 81 -5t69 -11l26 -5l-5 -64q-94 17 -161 17q-97 0 -131.5 -71t-34.5 -218q0 -56 4 -97t14.5 -78.5t29 -61t48.5 -37t71 -13.5q27 0 67 4t66 8l27 5l4 -64q-93 -20 -171 -21v-35h8q98 0 98 -79q0 -44 -24 -65.5t-65 -21.5 q-18 0 -38.5 1.5t-31.5 3.5l-11 2l3 51q37 -3 62 -3q42 0 42 36q0 32 -42 32h-40v80q-59 6 -99 32t-62 74t-30.5 106.5t-8.5 140.5z" />
<glyph unicode="&#xc8;" horiz-adv-x="507" d="M77 0v692h387v-68h-311v-238h255v-68h-255v-250h311v-68h-387zM133 866l24 65l206 -94l-22 -57z" />
<glyph unicode="&#xc9;" horiz-adv-x="507" d="M77 0v692h387v-68h-311v-238h255v-68h-255v-250h311v-68h-387zM170 840l206 96l24 -65l-208 -86z" />
<glyph unicode="&#xca;" horiz-adv-x="507" d="M77 0v692h387v-68h-311v-238h255v-68h-255v-250h311v-68h-387zM118 794l131 138h41l132 -138h-73l-79 81l-79 -81h-73z" />
<glyph unicode="&#xcb;" horiz-adv-x="507" d="M77 0v692h387v-68h-311v-238h255v-68h-255v-250h311v-68h-387zM154 814v93h61v-93h-61zM342 814v93h60v-93h-60z" />
<glyph unicode="&#xcc;" horiz-adv-x="230" d="M-51 866l24 65l206 -94l-22 -57zM77 0v692h76v-692h-76z" />
<glyph unicode="&#xcd;" horiz-adv-x="230" d="M45 840l206 96l24 -65l-208 -86zM77 0v692h76v-692h-76z" />
<glyph unicode="&#xce;" horiz-adv-x="230" d="M-38 791l131 138h41l132 -138h-73l-79 81l-79 -81h-73zM77 0v692h76v-692h-76z" />
<glyph unicode="&#xcf;" horiz-adv-x="230" d="M-9 819v93h61v-93h-61zM77 0v692h76v-692h-76zM179 819v93h60v-93h-60z" />
<glyph unicode="&#xd0;" horiz-adv-x="604" d="M16 309v77h65v306h229q134 0 187 -78t53 -255q0 -187 -52.5 -273t-187.5 -86h-229v309h-65zM157 68h153q93 0 126.5 71.5t33.5 219.5q0 143 -33 204t-127 61h-153v-238h144v-77h-144v-241z" />
<glyph unicode="&#xd1;" horiz-adv-x="629" d="M77 0v692h134l249 -613h18v613h74v-692h-132l-250 616h-17v-616h-76zM151 862q54 61 92 61q27 0 84 -27.5t68 -27.5q9 0 26.5 11t30.5 23l14 11l16 -51q-53 -60 -87 -60q-23 0 -81 28t-73 28q-10 0 -29 -12t-33 -24l-14 -12z" />
<glyph unicode="&#xd2;" horiz-adv-x="612" d="M53 352q0 95 10 155.5t37 107t77.5 67t128.5 20.5q148 0 200.5 -79.5t52.5 -270.5q0 -136 -23.5 -215t-84.5 -115q-52 -32 -145 -32q-147 0 -200 84.5t-53 277.5zM133 352q0 -66 3.5 -109t13.5 -81t29.5 -59t50.5 -33t76 -12q57 0 90 17q50 25 66.5 88.5t16.5 188.5 q0 162 -32 222t-141 60q-56 0 -88 -14q-52 -22 -68.5 -82.5t-16.5 -185.5zM172 866l24 65l206 -94l-22 -57z" />
<glyph unicode="&#xd3;" horiz-adv-x="612" d="M53 352q0 95 10 155.5t37 107t77.5 67t128.5 20.5q148 0 200.5 -79.5t52.5 -270.5q0 -136 -23.5 -215t-84.5 -115q-52 -32 -145 -32q-147 0 -200 84.5t-53 277.5zM133 352q0 -66 3.5 -109t13.5 -81t29.5 -59t50.5 -33t76 -12q57 0 90 17q50 25 66.5 88.5t16.5 188.5 q0 162 -32 222t-141 60q-56 0 -88 -14q-52 -22 -68.5 -82.5t-16.5 -185.5zM213 840l206 96l24 -65l-208 -86z" />
<glyph unicode="&#xd4;" horiz-adv-x="612" d="M53 352q0 95 10 155.5t37 107t77.5 67t128.5 20.5q148 0 200.5 -79.5t52.5 -270.5q0 -136 -23.5 -215t-84.5 -115q-52 -32 -145 -32q-147 0 -200 84.5t-53 277.5zM133 352q0 -66 3.5 -109t13.5 -81t29.5 -59t50.5 -33t76 -12q57 0 90 17q50 25 66.5 88.5t16.5 188.5 q0 162 -32 222t-141 60q-56 0 -88 -14q-52 -22 -68.5 -82.5t-16.5 -185.5zM154 793l131 138h41l132 -138h-73l-79 81l-79 -81h-73z" />
<glyph unicode="&#xd5;" horiz-adv-x="612" d="M53 352q0 95 10 155.5t37 107t77.5 67t128.5 20.5q148 0 200.5 -79.5t52.5 -270.5q0 -136 -23.5 -215t-84.5 -115q-52 -32 -145 -32q-147 0 -200 84.5t-53 277.5zM133 352q0 -66 3.5 -109t13.5 -81t29.5 -59t50.5 -33t76 -12q57 0 90 17q50 25 66.5 88.5t16.5 188.5 q0 162 -32 222t-141 60q-56 0 -88 -14q-52 -22 -68.5 -82.5t-16.5 -185.5zM145 862q54 61 92 61q27 0 84 -27.5t68 -27.5q9 0 26.5 11t30.5 23l14 11l16 -51q-53 -60 -87 -60q-23 0 -81 28t-73 28q-10 0 -29 -12t-33 -24l-14 -12z" />
<glyph unicode="&#xd6;" horiz-adv-x="612" d="M53 352q0 95 10 155.5t37 107t77.5 67t128.5 20.5q148 0 200.5 -79.5t52.5 -270.5q0 -136 -23.5 -215t-84.5 -115q-52 -32 -145 -32q-147 0 -200 84.5t-53 277.5zM133 352q0 -66 3.5 -109t13.5 -81t29.5 -59t50.5 -33t76 -12q57 0 90 17q50 25 66.5 88.5t16.5 188.5 q0 162 -32 222t-141 60q-56 0 -88 -14q-52 -22 -68.5 -82.5t-16.5 -185.5zM178 816v93h69v-93h-69zM367 816v93h68v-93h-68z" />
<glyph unicode="&#xd7;" d="M71 90l162 161l-162 160l49 48l160 -162l161 163l48 -48l-163 -161l163 -161l-48 -48l-161 162l-161 -162z" />
<glyph unicode="&#xd8;" horiz-adv-x="612" d="M53 352q0 95 10 155.5t37 107t77.5 67t128.5 20.5q72 0 123 -20l51 115l51 -20l-55 -122q46 -38 64.5 -111t18.5 -192q0 -136 -23.5 -215t-84.5 -115q-52 -32 -145 -32q-70 0 -116 18l-54 -122l-49 23l55 126q-50 39 -69.5 115.5t-19.5 201.5zM133 352q0 -96 8.5 -153.5 t33.5 -90.5q105 240 225 509q-37 17 -94 17q-56 0 -88 -14q-52 -22 -68.5 -82.5t-16.5 -185.5zM219 73q33 -15 87 -15q57 0 90 17q34 17 53 55t24.5 88t5.5 134q0 58 -3 98t-11 73.5t-22 55.5q-109 -248 -224 -506z" />
<glyph unicode="&#xd9;" horiz-adv-x="597" d="M73 211v481h76v-486q0 -79 36 -113.5t113 -34.5q78 0 113.5 34.5t35.5 113.5v486h77v-481q0 -114 -55 -167.5t-171 -53.5q-115 0 -170 53.5t-55 167.5zM168 866l24 65l206 -94l-22 -57z" />
<glyph unicode="&#xda;" horiz-adv-x="597" d="M73 211v481h76v-486q0 -79 36 -113.5t113 -34.5q78 0 113.5 34.5t35.5 113.5v486h77v-481q0 -114 -55 -167.5t-171 -53.5q-115 0 -170 53.5t-55 167.5zM196 840l206 96l24 -65l-208 -86z" />
<glyph unicode="&#xdb;" horiz-adv-x="597" d="M73 211v481h76v-486q0 -79 36 -113.5t113 -34.5q78 0 113.5 34.5t35.5 113.5v486h77v-481q0 -114 -55 -167.5t-171 -53.5q-115 0 -170 53.5t-55 167.5zM74 872l131 138h41l132 -138h-73l-79 81l-79 -81h-73z" />
<glyph unicode="&#xdc;" horiz-adv-x="597" d="M73 211v481h76v-486q0 -79 36 -113.5t113 -34.5q78 0 113.5 34.5t35.5 113.5v486h77v-481q0 -114 -55 -167.5t-171 -53.5q-115 0 -170 53.5t-55 167.5zM170 816v93h69v-93h-69zM360 816v93h67v-93h-67z" />
<glyph unicode="&#xdd;" horiz-adv-x="498" d="M10 692h83l156 -319l155 319h82l-200 -402v-290h-73v290zM164 840l206 96l24 -65l-208 -86z" />
<glyph unicode="&#xde;" horiz-adv-x="554" d="M77 0v696h75v-111h154q98 0 155.5 -57t57.5 -173q0 -111 -54 -173t-159 -62h-154v-120h-75zM152 188h153q68 0 101 45.5t33 121.5q0 70 -32.5 115.5t-101.5 45.5h-153v-328z" />
<glyph unicode="&#xdf;" horiz-adv-x="533" d="M66 0v537q0 109 43.5 150t141.5 41q100 0 141.5 -33.5t41.5 -109.5q0 -53 -16.5 -80t-59.5 -49q-33 -18 -45 -30t-12 -30q0 -20 15 -34t61 -38q72 -38 98 -68t26 -90q0 -94 -41.5 -135t-131.5 -41q-22 0 -53 3t-51 6l-19 3l3 58q80 -5 106 -5q64 0 89.5 25.5t25.5 81.5 q0 38 -18.5 57.5t-80.5 52.5q-54 28 -77.5 53t-23.5 66q0 40 15 61.5t60 44.5q33 18 45.5 36t12.5 49q0 47 -24 64t-87 17q-60 0 -87 -25.5t-27 -99.5v-538h-71z" />
<glyph unicode="&#xe0;" horiz-adv-x="493" d="M47 240q0 50 5 89t18.5 74t36 58t57.5 36t83 13q25 0 70 -4t77 -8l33 -5v-370l6 -122l-75 -3q-5 46 -5 86q-2 -4 -6.5 -10t-18.5 -22.5t-30 -29t-40.5 -22.5t-50.5 -10q-87 0 -123.5 61.5t-36.5 188.5zM123 240q0 -91 21.5 -138t77.5 -47q34 0 66.5 26t47.5 52l16 26v277 q-69 9 -96 9q-77 0 -105 -49t-28 -156zM139 685l23 62l206 -94l-20 -54z" />
<glyph unicode="&#xe1;" horiz-adv-x="493" d="M47 240q0 50 5 89t18.5 74t36 58t57.5 36t83 13q25 0 70 -4t77 -8l33 -5v-370l6 -122l-75 -3q-5 46 -5 86q-2 -4 -6.5 -10t-18.5 -22.5t-30 -29t-40.5 -22.5t-50.5 -10q-87 0 -123.5 61.5t-36.5 188.5zM123 240q0 -91 21.5 -138t77.5 -47q34 0 66.5 26t47.5 52l16 26v277 q-69 9 -96 9q-77 0 -105 -49t-28 -156zM180 652l206 96l23 -66l-208 -86z" />
<glyph unicode="&#xe2;" horiz-adv-x="493" d="M47 240q0 50 5 89t18.5 74t36 58t57.5 36t83 13q25 0 70 -4t77 -8l33 -5v-370l6 -122l-75 -3q-5 46 -5 86q-2 -4 -6.5 -10t-18.5 -22.5t-30 -29t-40.5 -22.5t-50.5 -10q-87 0 -123.5 61.5t-36.5 188.5zM109 587l121 151h54l122 -151h-80l-68 85l-70 -85h-79zM123 240 q0 -91 21.5 -138t77.5 -47q34 0 66.5 26t47.5 52l16 26v277q-69 9 -96 9q-77 0 -105 -49t-28 -156z" />
<glyph unicode="&#xe3;" horiz-adv-x="493" d="M47 240q0 50 5 89t18.5 74t36 58t57.5 36t83 13q25 0 70 -4t77 -8l33 -5v-370l6 -122l-75 -3q-5 46 -5 86q-2 -4 -6.5 -10t-18.5 -22.5t-30 -29t-40.5 -22.5t-50.5 -10q-87 0 -123.5 61.5t-36.5 188.5zM117 673q49 55 87 55q23 0 75 -24t63 -24q9 0 25.5 10t28.5 20l11 9 l15 -53q-46 -52 -81 -52q-23 0 -74 24t-65 24q-11 0 -28.5 -10.5t-29.5 -21.5l-13 -10zM123 240q0 -91 21.5 -138t77.5 -47q34 0 66.5 26t47.5 52l16 26v277q-69 9 -96 9q-77 0 -105 -49t-28 -156z" />
<glyph unicode="&#xe4;" horiz-adv-x="493" d="M47 240q0 50 5 89t18.5 74t36 58t57.5 36t83 13q25 0 70 -4t77 -8l33 -5v-370l6 -122l-75 -3q-5 46 -5 86q-2 -4 -6.5 -10t-18.5 -22.5t-30 -29t-40.5 -22.5t-50.5 -10q-87 0 -123.5 61.5t-36.5 188.5zM122 620v93h69v-93h-69zM123 240q0 -91 21.5 -138t77.5 -47 q34 0 66.5 26t47.5 52l16 26v277q-69 9 -96 9q-77 0 -105 -49t-28 -156zM312 620v93h67v-93h-67z" />
<glyph unicode="&#xe5;" horiz-adv-x="493" d="M47 240q0 50 5 89t18.5 74t36 58t57.5 36t83 13q25 0 70 -4t77 -8l33 -5v-370l6 -122l-75 -3q-5 46 -5 86q-2 -4 -6.5 -10t-18.5 -22.5t-30 -29t-40.5 -22.5t-50.5 -10q-87 0 -123.5 61.5t-36.5 188.5zM123 240q0 -91 21.5 -138t77.5 -47q34 0 66.5 26t47.5 52l16 26v277 q-69 9 -96 9q-77 0 -105 -49t-28 -156zM176 662q0 43 25.5 70.5t66.5 27.5q40 0 64.5 -27.5t24.5 -70.5q0 -45 -24.5 -71.5t-64.5 -26.5q-43 0 -67.5 26.5t-24.5 71.5zM221 662q0 -20 13.5 -34.5t33.5 -14.5q19 0 31.5 14.5t12.5 34.5t-12.5 33.5t-31.5 13.5 q-20 0 -33.5 -13.5t-13.5 -33.5z" />
<glyph unicode="&#xe6;" horiz-adv-x="750" d="M38 143q0 65 27 98t83 45q59 13 176 21q0 22 -0.5 31t-2 28.5t-6.5 28.5t-13 21t-22.5 16.5t-33.5 4.5q-31 0 -76 -2.5t-74 -5.5l-30 -3l-3 69q111 15 183 15q100 0 129 -75q47 75 147 75q140 0 174 -131q11 -44 11 -112v-50h-310q0 -76 27.5 -116.5t93.5 -40.5 q30 0 72.5 2t69.5 4l28 3l2 -63q-97 -16 -176 -16q-95 0 -141 55q-117 -55 -204 -55q-64 0 -97.5 43.5t-33.5 109.5zM110 146q0 -36 16.5 -62.5t51.5 -26.5q67 0 168 35q-23 52 -23 155q-57 -4 -135 -15q-40 -6 -59 -26t-19 -60zM397 280h239q0 80 -25.5 121t-90.5 41 q-123 0 -123 -162z" />
<glyph unicode="&#xe7;" horiz-adv-x="399" d="M46 257q0 132 46.5 192.5t148.5 60.5q23 0 53 -4t49 -8l19 -3l-3 -60q-67 9 -103 9q-75 0 -104 -44.5t-29 -142.5q0 -105 26 -153.5t107 -48.5l103 8l3 -59q-71 -14 -122 -14h-8v-35h8q98 0 98 -79q0 -44 -24 -65.5t-65 -21.5q-18 0 -38.5 1.5t-31.5 3.5l-11 2l3 51 q37 -3 62 -3q42 0 42 36q0 32 -42 32h-40v82q-84 13 -115.5 76.5t-31.5 186.5z" />
<glyph unicode="&#xe8;" horiz-adv-x="453" d="M45 242q0 267 203 267q167 0 167 -134q0 -87 -56.5 -119.5t-185.5 -32.5h-52v-15q0 -153 117 -153q32 0 70.5 4.5t61.5 9.5l23 5l4 -55q-72 -28 -163 -28q-99 0 -144 59.5t-45 191.5zM108 685l23 62l206 -94l-20 -54zM122 281h50q94 0 131.5 19t37.5 74q0 73 -93 73 q-124 0 -126 -166z" />
<glyph unicode="&#xe9;" horiz-adv-x="453" d="M45 242q0 267 203 267q167 0 167 -134q0 -87 -56.5 -119.5t-185.5 -32.5h-52v-15q0 -153 117 -153q32 0 70.5 4.5t61.5 9.5l23 5l4 -55q-72 -28 -163 -28q-99 0 -144 59.5t-45 191.5zM122 281h50q94 0 131.5 19t37.5 74q0 73 -93 73q-124 0 -126 -166zM137 652l206 96 l23 -66l-208 -86z" />
<glyph unicode="&#xea;" horiz-adv-x="453" d="M45 242q0 267 203 267q167 0 167 -134q0 -87 -56.5 -119.5t-185.5 -32.5h-52v-15q0 -153 117 -153q32 0 70.5 4.5t61.5 9.5l23 5l4 -55q-72 -28 -163 -28q-99 0 -144 59.5t-45 191.5zM94 587l120 151h54l122 -151h-79l-69 85l-69 -85h-79zM122 281h50q94 0 131.5 19 t37.5 74q0 73 -93 73q-124 0 -126 -166z" />
<glyph unicode="&#xeb;" horiz-adv-x="453" d="M45 242q0 267 203 267q167 0 167 -134q0 -87 -56.5 -119.5t-185.5 -32.5h-52v-15q0 -153 117 -153q32 0 70.5 4.5t61.5 9.5l23 5l4 -55q-72 -28 -163 -28q-99 0 -144 59.5t-45 191.5zM119 620v93h69v-93h-69zM122 281h50q94 0 131.5 19t37.5 74q0 73 -93 73 q-124 0 -126 -166zM309 620v93h67v-93h-67z" />
<glyph unicode="&#xec;" horiz-adv-x="207" d="M-64 685l23 62l206 -94l-20 -54zM66 0v500h75v-500h-75z" />
<glyph unicode="&#xed;" horiz-adv-x="207" d="M50 652l206 96l23 -66l-208 -86zM66 0v500h75v-500h-75z" />
<glyph unicode="&#xee;" horiz-adv-x="207" d="M-44 587l120 151h55l121 -151h-79l-69 85l-69 -85h-79zM66 0v500h75v-500h-75z" />
<glyph unicode="&#xef;" horiz-adv-x="207" d="M-24 620v93h68v-93h-68zM66 0v500h75v-500h-75zM165 620v93h67v-93h-67z" />
<glyph unicode="&#xf0;" horiz-adv-x="515" d="M40 209q0 106 51 164t146 58q30 0 69 -8.5t63 -17.5l24 -9q-7 69 -39.5 116.5t-102.5 83.5l-101 -77l-34 46l75 57q-50 18 -102 32l15 67q87 -17 155 -47l89 67l35 -45l-68 -52q152 -95 152 -286q0 -198 -50.5 -282.5t-166.5 -84.5q-103 0 -156.5 57t-53.5 161zM116 208 q0 -65 34 -104t100 -39q77 0 109.5 57.5t33.5 201.5q-6 3 -26 10.5t-58.5 16.5t-67.5 9q-60 0 -92.5 -40t-32.5 -112z" />
<glyph unicode="&#xf1;" horiz-adv-x="501" d="M66 0v500h74l1 -75q2 3 7 9t20 20.5t31 26t39.5 20.5t47.5 9q153 0 153 -199v-311h-74v290q0 81 -22 118t-72 37q-30 0 -62.5 -23.5t-50.5 -46.5l-17 -23v-352h-75zM110 673q49 55 87 55q23 0 75 -24t63 -24q9 0 25.5 10t27.5 20l12 9l15 -53q-46 -52 -81 -52 q-22 0 -74 24t-65 24q-11 0 -28.5 -10.5t-30.5 -21.5l-12 -10z" />
<glyph unicode="&#xf2;" horiz-adv-x="486" d="M47 255q0 128 43 191.5t153 63.5t153 -63.5t43 -191.5q0 -52 -4 -89t-16 -72t-33 -56.5t-57 -34.5t-86 -13t-86 13t-57 34.5t-33 56.5t-16 72t-4 89zM108 685l23 62l206 -94l-20 -54zM119 255q0 -42 2 -68.5t9 -54t20 -43t36.5 -25t56.5 -9.5t56.5 9.5t36.5 25t20 43 t9 54t2 68.5q0 100 -26.5 145t-97.5 45t-97.5 -45t-26.5 -145z" />
<glyph unicode="&#xf3;" horiz-adv-x="486" d="M47 255q0 128 43 191.5t153 63.5t153 -63.5t43 -191.5q0 -52 -4 -89t-16 -72t-33 -56.5t-57 -34.5t-86 -13t-86 13t-57 34.5t-33 56.5t-16 72t-4 89zM119 255q0 -42 2 -68.5t9 -54t20 -43t36.5 -25t56.5 -9.5t56.5 9.5t36.5 25t20 43t9 54t2 68.5q0 100 -26.5 145 t-97.5 45t-97.5 -45t-26.5 -145zM150 652l206 96l23 -66l-208 -86z" />
<glyph unicode="&#xf4;" horiz-adv-x="486" d="M47 255q0 128 43 191.5t153 63.5t153 -63.5t43 -191.5q0 -52 -4 -89t-16 -72t-33 -56.5t-57 -34.5t-86 -13t-86 13t-57 34.5t-33 56.5t-16 72t-4 89zM95 587l120 151h55l121 -151h-79l-69 85l-69 -85h-79zM119 255q0 -42 2 -68.5t9 -54t20 -43t36.5 -25t56.5 -9.5 t56.5 9.5t36.5 25t20 43t9 54t2 68.5q0 100 -26.5 145t-97.5 45t-97.5 -45t-26.5 -145z" />
<glyph unicode="&#xf5;" horiz-adv-x="486" d="M47 255q0 128 43 191.5t153 63.5t153 -63.5t43 -191.5q0 -52 -4 -89t-16 -72t-33 -56.5t-57 -34.5t-86 -13t-86 13t-57 34.5t-33 56.5t-16 72t-4 89zM91 673q49 55 87 55q23 0 75 -24t63 -24q9 0 25.5 10t28.5 20l11 9l15 -53q-46 -52 -81 -52q-23 0 -74 24t-65 24 q-11 0 -28.5 -10.5t-29.5 -21.5l-13 -10zM119 255q0 -42 2 -68.5t9 -54t20 -43t36.5 -25t56.5 -9.5t56.5 9.5t36.5 25t20 43t9 54t2 68.5q0 100 -26.5 145t-97.5 45t-97.5 -45t-26.5 -145z" />
<glyph unicode="&#xf6;" horiz-adv-x="486" d="M47 255q0 128 43 191.5t153 63.5t153 -63.5t43 -191.5q0 -52 -4 -89t-16 -72t-33 -56.5t-57 -34.5t-86 -13t-86 13t-57 34.5t-33 56.5t-16 72t-4 89zM119 255q0 -42 2 -68.5t9 -54t20 -43t36.5 -25t56.5 -9.5t56.5 9.5t36.5 25t20 43t9 54t2 68.5q0 100 -26.5 145 t-97.5 45t-97.5 -45t-26.5 -145zM119 620v93h62v-93h-62zM302 620v93h60v-93h-60z" />
<glyph unicode="&#xf7;" d="M120 281v73h57v48h206v-48h56v-73h-319zM242 30v101h75v-101h-75z" />
<glyph unicode="&#xf8;" horiz-adv-x="486" d="M47 256q0 128 43 191.5t153 63.5q37 0 69 -8l39 102l49 -19l-42 -104q81 -52 81 -226q0 -52 -4 -89t-16 -72t-33 -56.5t-57 -34.5t-86 -13q-41 0 -73 9l-41 -111l-48 18l44 112q-46 29 -62 86t-16 151zM119 256q0 -129 33 -168q67 167 136 352q-20 6 -45 6 q-71 0 -97.5 -45t-26.5 -145zM194 62q21 -6 49 -6q33 0 56.5 9.5t36.5 25t20 43t9 54t2 68.5q0 117 -36 158q-70 -172 -137 -352z" />
<glyph unicode="&#xf9;" horiz-adv-x="502" d="M62 193v307h75v-290q0 -82 21.5 -118.5t72.5 -36.5q30 0 62.5 23.5t50.5 46.5l17 23v352h74v-500h-73l-1 75q-2 -3 -7 -9t-20 -20.5t-31 -26t-39.5 -20.5t-47.5 -9q-81 0 -117.5 50t-36.5 153zM104 685l23 62l206 -94l-20 -54z" />
<glyph unicode="&#xfa;" horiz-adv-x="502" d="M62 193v307h75v-290q0 -82 21.5 -118.5t72.5 -36.5q30 0 62.5 23.5t50.5 46.5l17 23v352h74v-500h-73l-1 75q-2 -3 -7 -9t-20 -20.5t-31 -26t-39.5 -20.5t-47.5 -9q-81 0 -117.5 50t-36.5 153zM159 652l206 96l23 -66l-208 -86z" />
<glyph unicode="&#xfb;" horiz-adv-x="502" d="M62 193v307h75v-290q0 -82 21.5 -118.5t72.5 -36.5q30 0 62.5 23.5t50.5 46.5l17 23v352h74v-500h-73l-1 75q-2 -3 -7 -9t-20 -20.5t-31 -26t-39.5 -20.5t-47.5 -9q-81 0 -117.5 50t-36.5 153zM103 587l120 151h54l122 -151h-79l-69 85l-69 -85h-79z" />
<glyph unicode="&#xfc;" horiz-adv-x="502" d="M62 193v307h75v-290q0 -82 21.5 -118.5t72.5 -36.5q30 0 62.5 23.5t50.5 46.5l17 23v352h74v-500h-73l-1 75q-2 -3 -7 -9t-20 -20.5t-31 -26t-39.5 -20.5t-47.5 -9q-81 0 -117.5 50t-36.5 153zM122 620v93h69v-93h-69zM312 620v93h67v-93h-67z" />
<glyph unicode="&#xfd;" horiz-adv-x="448" d="M24 500h74l110 -436h31l112 436h74l-192 -722h-72l63 222h-69zM142 652l206 96l23 -66l-208 -86z" />
<glyph unicode="&#xfe;" horiz-adv-x="493" d="M66 -220v936h74v-279q2 2 15 13t24 19.5t27.5 19t34 16t34.5 5.5q172 0 172 -259q0 -136 -49 -198.5t-160 -62.5l-98 7v-217h-74zM140 68q68 -10 98 -10q73 0 102.5 47.5t29.5 145.5q0 51 -8.5 90.5t-33.5 69.5t-65 30q-27 0 -57.5 -19.5t-47.5 -39.5l-18 -20v-294z" />
<glyph unicode="&#xff;" horiz-adv-x="448" d="M24 500h74l110 -436h31l112 436h74l-192 -722h-72l63 222h-69zM96 620v93h69v-93h-69zM285 620v93h68v-93h-68z" />
<glyph unicode="&#x152;" horiz-adv-x="859" d="M52 345q0 184 57.5 272.5t189.5 88.5q53 0 133 -10h385v-75h-313v-233h257v-73h-257v-240h313v-76h-383q-99 -9 -135 -9q-93 0 -147 40t-78 121q-22 76 -22 194zM126 346q0 -94 15 -156q16 -64 55 -94.5t110 -30.5q25 0 126 8v549q-74 9 -127 9q-99 0 -139 -68t-40 -217z " />
<glyph unicode="&#x153;" horiz-adv-x="800" d="M47 257q0 130 45.5 191.5t154.5 61.5q118 0 164 -94q46 94 157 94q136 0 173 -118q16 -51 16 -116v-59h-312q0 -76 27.5 -116.5t94.5 -40.5q30 0 73 2t70 4l28 3l2 -63q-98 -16 -178 -16q-106 0 -153 84q-42 -84 -162 -84q-140 0 -179 104q-21 61 -21 163zM118 257 q0 -42 2 -68.5t9.5 -54t21 -42t37.5 -24t59 -9.5q34 0 58 11t37.5 27t20.5 43.5t9 52.5t2 62q0 69 -15 113q-26 73 -112 73q-73 0 -101 -41.5t-28 -142.5zM445 280h241q0 81 -24.5 120t-91.5 39q-125 0 -125 -159z" />
<glyph unicode="&#x178;" horiz-adv-x="498" d="M10 692h83l156 -319l155 319h82l-200 -402v-290h-73v290zM125 809v93h61v-93h-61zM313 809v93h60v-93h-60z" />
<glyph unicode="&#x2c6;" horiz-adv-x="791" d="M245 587l120 151h41l122 -151h-73l-68 85l-70 -85h-72z" />
<glyph unicode="&#x2dc;" horiz-adv-x="427" d="M61 673q49 55 87 55q23 0 75 -24t63 -24q9 0 25.5 10t28.5 20l11 9l15 -53q-46 -52 -81 -52q-23 0 -74 24t-65 24q-11 0 -28.5 -10.5t-29.5 -21.5l-13 -10z" />
<glyph unicode="&#x2000;" horiz-adv-x="505" />
<glyph unicode="&#x2001;" horiz-adv-x="1010" />
<glyph unicode="&#x2002;" horiz-adv-x="505" />
<glyph unicode="&#x2003;" horiz-adv-x="1010" />
<glyph unicode="&#x2004;" horiz-adv-x="336" />
<glyph unicode="&#x2005;" horiz-adv-x="252" />
<glyph unicode="&#x2006;" horiz-adv-x="168" />
<glyph unicode="&#x2007;" horiz-adv-x="168" />
<glyph unicode="&#x2008;" horiz-adv-x="126" />
<glyph unicode="&#x2009;" horiz-adv-x="202" />
<glyph unicode="&#x200a;" horiz-adv-x="56" />
<glyph unicode="&#x2010;" horiz-adv-x="376" d="M63 233v69h251v-69h-251z" />
<glyph unicode="&#x2011;" horiz-adv-x="376" d="M63 233v69h251v-69h-251z" />
<glyph unicode="&#x2012;" horiz-adv-x="376" d="M63 233v69h251v-69h-251z" />
<glyph unicode="&#x2013;" horiz-adv-x="626" d="M63 235v66h500v-66h-500z" />
<glyph unicode="&#x2014;" horiz-adv-x="1126" d="M63 235v66h1000v-66h-1000z" />
<glyph unicode="&#x2018;" horiz-adv-x="200" d="M45 468l54 223h54l-36 -223h-72z" />
<glyph unicode="&#x2019;" horiz-adv-x="199" d="M50 469l36 223h72l-54 -223h-54z" />
<glyph unicode="&#x201a;" horiz-adv-x="194" d="M58 -45l11 44h11l-7 -44h-15z" />
<glyph unicode="&#x201c;" horiz-adv-x="359" d="M46 469l54 223h54l-36 -223h-72zM204 469l54 223h54l-36 -223h-72z" />
<glyph unicode="&#x201d;" horiz-adv-x="357" d="M50 469l36 223h72l-54 -223h-54zM208 469l36 223h72l-54 -223h-54z" />
<glyph unicode="&#x201e;" horiz-adv-x="330" d="M82 -159l54 223h68l-36 -223h-86z" />
<glyph unicode="&#x2022;" horiz-adv-x="460" d="M105 106v286h250v-286h-250z" />
<glyph unicode="&#x2026;" horiz-adv-x="673" d="M63 0v111h76v-111h-76zM299 0v111h76v-111h-76zM535 0v111h76v-111h-76z" />
<glyph unicode="&#x202f;" horiz-adv-x="202" />
<glyph unicode="&#x2039;" horiz-adv-x="278" d="M38 229v38l178 142v-68l-118 -92l118 -101v-69z" />
<glyph unicode="&#x203a;" horiz-adv-x="278" d="M62 215v14l118 18l-118 20v14l178 -30v-7z" />
<glyph unicode="&#x205f;" horiz-adv-x="252" />
<glyph unicode="&#x20ac;" d="M55 209v62h45q-1 19 -1 59q0 31 1 46h-45v61h49q13 117 63.5 175.5t155.5 58.5q35 0 77 -5t66 -10l25 -5l-4 -62q-90 17 -154 17q-73 0 -108.5 -42.5t-45.5 -126.5h265v-61h-269q-1 -15 -1 -46q0 -41 1 -59h269v-62h-263q11 -76 47 -115t106 -39q25 0 63.5 4.5t64.5 8.5 l25 4l3 -61q-91 -21 -167 -21q-104 0 -154.5 54.5t-63.5 164.5h-50z" />
<glyph unicode="&#x2122;" horiz-adv-x="662" d="M84 580v50h200v-50h-67v-248h-55v248h-78zM315 331v299h71l67 -208l70 208h71v-299h-52v224l-67 -209h-43l-65 209v-224h-52z" />
<glyph unicode="&#xe000;" horiz-adv-x="500" d="M0 0v500h500v-500h-500z" />
</font>
</defs>
</svg>
