<?xml version="1.0" standalone="no"?>
<!DOCTYPE svg PUBLIC "-//W3C//DTD SVG 1.1//EN" "http://www.w3.org/Graphics/SVG/1.1/DTD/svg11.dtd" >
<svg xmlns="http://www.w3.org/2000/svg">
<metadata></metadata>
<defs>
<font id="technique_brknormal" horiz-adv-x="819" >
<font-face units-per-em="1000" ascent="870" descent="-130" />
<missing-glyph horiz-adv-x="700" />
<glyph unicode="&#xd;" horiz-adv-x="1000" />
<glyph unicode=" "  horiz-adv-x="700" />
<glyph unicode="&#x09;" horiz-adv-x="700" />
<glyph unicode="&#xa0;" horiz-adv-x="700" />
<glyph unicode="!" horiz-adv-x="297" d="M257 631q0 22 -8.5 42t-23.5 35t-35 23.5t-42 8.5q-23 0 -42.5 -8.5t-34 -23.5t-23 -35t-8.5 -42v-261q0 -45 32 -77t76 -32q22 0 42 8.5t35 23.5t23.5 34.5t8.5 42.5v261zM257 109q0 22 -8.5 42t-23.5 35t-35 23.5t-42 8.5q-23 0 -42.5 -8.5t-34 -23.5t-23 -35t-8.5 -42 q0 -45 32 -77t76 -32q22 0 42 8.5t35 23.5t23.5 34.5t8.5 42.5z" />
<glyph unicode="&#x22;" horiz-adv-x="558" d="M257 631q0 22 -8.5 42t-23.5 35t-35 23.5t-42 8.5q-23 0 -42.5 -8.5t-34 -23.5t-23 -35t-8.5 -42v-131q0 -23 8.5 -42.5t23 -34t34 -23t42.5 -8.5q45 0 77 32t32 76v131zM518 631q0 22 -8.5 42t-23.5 35t-35 23.5t-42 8.5q-23 0 -42.5 -8.5t-34 -23.5t-23 -35t-8.5 -42 v-131q0 -23 8.5 -42.5t23 -34t34 -23t42.5 -8.5q45 0 77 32t32 76v131z" />
<glyph unicode="#" d="M779 240q0 23 -8.5 42.5t-23.5 34t-35 23t-42 8.5h-22v44h22q45 0 77 32t32 76q0 22 -8.5 42t-23.5 35t-35 23.5t-42 8.5h-22v22q0 45 -32 77t-76 32q-23 0 -42.5 -8.5t-34.5 -23.5t-23.5 -35t-8.5 -42v-22h-43v22q0 22 -8.5 42t-23.5 35t-35 23.5t-42 8.5 q-23 0 -42.5 -8.5t-34.5 -23.5t-23.5 -35t-8.5 -42v-22h-22q-23 0 -42.5 -8.5t-34 -23.5t-23 -35t-8.5 -42q0 -23 8.5 -42.5t23 -34t34 -23t42.5 -8.5h22v-44h-22q-23 0 -42.5 -8.5t-34 -23t-23 -34.5t-8.5 -42q0 -45 32 -77t76 -32h22v-22q0 -23 8.5 -42.5t23.5 -34.5 t34.5 -23.5t42.5 -8.5q22 0 42 8.5t35 23.5t23.5 34.5t8.5 42.5v22h43v-22q0 -23 8.5 -42.5t23.5 -34.5t34.5 -23.5t42.5 -8.5t42.5 8.5t34 23.5t23 34.5t8.5 42.5v22h22q22 0 42 8.5t35 23.5t23.5 34.5t8.5 42.5zM431 348h-43v44h43v-44z" />
<glyph unicode="$" d="M779 370q0 22 -8.5 42t-23.5 35t-35 23.5t-42 8.5q-23 0 -42.5 -8.5t-34 -23.5t-23 -35t-8.5 -42q0 -65 -45 -108q-46 -44 -108 -44h-261q-23 0 -42.5 -8.5t-34 -23.5t-23 -35t-8.5 -42q0 -45 32 -77t76 -32h155q-2 -10 -2 -21q0 -45 32 -77t76 -32q22 0 42 8.5t35 23.5 t23.5 34.5t8.5 42.5q0 18 -7 36q117 33 192 131q76 98 76 224zM40 370q0 -45 32 -77t76 -32q23 0 43 8.5t34.5 23t23 34.5t8.5 43q0 63 44 107q45 45 108 45h261q22 0 42 8.5t35 23.5t23.5 34.5t8.5 42.5q0 22 -8.5 42t-23.5 35t-35 23.5t-42 8.5h-154l2 21q0 22 -8.5 42 t-23.5 35t-35 23.5t-42 8.5q-23 0 -42.5 -8.5t-34 -23.5t-23 -35t-8.5 -42q0 -20 6 -36q-118 -34 -193 -132q-74 -98 -74 -223zM409 479q-23 0 -42.5 -8.5t-34 -23.5t-23 -35t-8.5 -42q0 -45 32 -77t76 -32q22 0 42 8.5t35 23.5t23.5 34.5t8.5 42.5q0 22 -8.5 42t-23.5 35 t-35 23.5t-42 8.5z" />
<glyph unicode="%" d="M747 554q32 32 32 77q0 22 -8.5 42t-23 34.5t-34.5 23t-43 8.5q-46 0 -77 -31l-521 -522q-32 -32 -32 -77q0 -23 8.5 -42.5t23.5 -34.5t34.5 -23.5t42.5 -8.5q44 0 76 32zM40 631q0 -45 32 -77t76 -32q23 0 43 8.5t34.5 23t23 34.5t8.5 43q0 22 -8.5 42t-23.5 35 t-35 23.5t-42 8.5q-23 0 -42.5 -8.5t-34 -23.5t-23 -35t-8.5 -42zM779 109q0 22 -8.5 42t-23.5 35t-35 23.5t-42 8.5q-23 0 -42.5 -8.5t-34 -23.5t-23 -35t-8.5 -42q0 -45 32 -77t76 -32q22 0 42 8.5t35 23.5t23.5 34.5t8.5 42.5z" />
<glyph unicode="&#x26;" d="M779 370q0 22 -8.5 42t-23.5 35t-35 23.5t-42 8.5q-23 0 -42.5 -8.5t-34 -23.5t-23 -35t-8.5 -42q0 -65 -45 -108q-46 -44 -108 -44h-106q43 43 106 43q22 0 42 8.5t35 23.5t23.5 34.5t8.5 42.5q0 22 -8.5 42t-23.5 35t-35 23.5t-42 8.5q-64 0 -125 -23q21 31 54.5 48.5 t70.5 17.5h261q22 0 42 8.5t35 23.5t23.5 34.5t8.5 42.5q0 22 -8.5 42t-23.5 35t-35 23.5t-42 8.5h-154l2 21q0 22 -8.5 42t-23.5 35t-35 23.5t-42 8.5q-23 0 -42.5 -8.5t-34 -23.5t-23 -35t-8.5 -42q0 -20 6 -36q-118 -34 -193 -132q-74 -98 -74 -223q0 -56 44 -87 q-22 -42 -33 -84t-11 -90q0 -45 32 -77t76 -32h155q-2 -10 -2 -21q0 -45 32 -77t76 -32q22 0 42 8.5t35 23.5t23.5 34.5t8.5 42.5q0 18 -7 36q117 33 192 131q76 98 76 224z" />
<glyph unicode="'" horiz-adv-x="297" d="M257 631q0 22 -8.5 42t-23.5 35t-35 23.5t-42 8.5q-23 0 -42.5 -8.5t-34 -23.5t-23 -35t-8.5 -42v-131q0 -23 8.5 -42.5t23 -34t34 -23t42.5 -8.5q45 0 77 32t32 76v131z" />
<glyph unicode="(" horiz-adv-x="558" d="M518 109q0 22 -8.5 42t-23.5 35t-35 23.5t-42 8.5q-62 0 -108 44q-44 46 -44 108q0 63 44 107q45 45 108 45q22 0 42 8.5t35 23.5t23.5 34.5t8.5 42.5q0 22 -8.5 42t-23.5 35t-35 23.5t-42 8.5q-152 0 -261 -109q-108 -108 -108 -261q0 -154 108 -262t261 -108 q22 0 42 8.5t35 23.5t23.5 34.5t8.5 42.5z" />
<glyph unicode=")" horiz-adv-x="558" d="M518 370q0 153 -109 261q-108 109 -261 109q-23 0 -42.5 -8.5t-34 -23.5t-23 -35t-8.5 -42q0 -45 32 -77t76 -32q63 0 108 -45t45 -107q0 -65 -45 -108q-46 -44 -108 -44q-23 0 -42.5 -8.5t-34 -23.5t-23 -35t-8.5 -42q0 -45 32 -77t76 -32q153 0 261 108 q109 109 109 262z" />
<glyph unicode="*" horiz-adv-x="670" d="M555 393q34 10 54.5 39t20.5 64q0 19 -5 34q-11 34 -39 54.5t-63 20.5q-17 0 -35 -6l-45 -14v46q0 22 -8.5 42t-23.5 35t-35 23.5t-42 8.5q-23 0 -42.5 -8.5t-34 -23.5t-23 -35t-8.5 -42v-47l-44 14q-17 6 -34 6q-36 0 -64 -20.5t-39 -55.5q-5 -15 -5 -33q0 -36 20 -64.5 t55 -39.5l43 -14l-27 -36q-20 -28 -20 -63q0 -57 44 -89q28 -20 63 -20q27 0 50 11t39 33l27 38l27 -38q33 -44 88 -44q22 0 38 6.5t26 13.5q45 34 45 88q0 35 -21 64l-27 37z" />
<glyph unicode="+" horiz-adv-x="558" d="M518 370q0 22 -8.5 42t-23.5 35t-35 23.5t-42 8.5h-21v21q0 22 -8.5 42t-23.5 35t-35 23.5t-42 8.5q-23 0 -42.5 -8.5t-34.5 -23.5t-23.5 -35t-8.5 -42v-21h-22q-23 0 -42.5 -8.5t-34 -23.5t-23 -35t-8.5 -42q0 -45 32 -77t76 -32h22v-21q0 -23 8.5 -42.5t23.5 -34.5 t34.5 -23.5t42.5 -8.5q22 0 42 8.5t35 23.5t23.5 34.5t8.5 42.5v21h21q22 0 42 8.5t35 23.5t23.5 34.5t8.5 42.5z" />
<glyph unicode="," horiz-adv-x="297" d="M257 109q0 22 -8.5 42t-23.5 35t-35 23.5t-42 8.5q-23 0 -42.5 -8.5t-34 -23.5t-23 -35t-8.5 -42v-130q0 -45 32 -77t76 -32q22 0 42 8.5t35 23.5t23.5 34.5t8.5 42.5v130z" />
<glyph unicode="-" horiz-adv-x="558" d="M518 370q0 22 -8.5 42t-23.5 35t-35 23.5t-42 8.5h-261q-23 0 -42.5 -8.5t-34 -23.5t-23 -35t-8.5 -42q0 -45 32 -77t76 -32h261q22 0 42 8.5t35 23.5t23.5 34.5t8.5 42.5z" />
<glyph unicode="." horiz-adv-x="297" d="M257 109q0 22 -8.5 42t-23.5 35t-35 23.5t-42 8.5q-23 0 -42.5 -8.5t-34 -23.5t-23 -35t-8.5 -42q0 -45 32 -77t76 -32q22 0 42 8.5t35 23.5t23.5 34.5t8.5 42.5z" />
<glyph unicode="/" d="M747 554q32 32 32 77q0 22 -8.5 42t-23 34.5t-34.5 23t-43 8.5q-46 0 -77 -31l-521 -522q-32 -32 -32 -77q0 -23 8.5 -42.5t23.5 -34.5t34.5 -23.5t42.5 -8.5q44 0 76 32z" />
<glyph unicode="0" d="M779 370q0 153 -109 261q-108 109 -261 109q-152 0 -261 -109q-108 -108 -108 -261q0 -154 108 -262t261 -108t261 108q109 109 109 262zM562 370q0 -65 -45 -108q-46 -44 -108 -44t-108 44q-44 46 -44 108q0 63 44 107q45 45 108 45t108 -45t45 -107zM518 370 q0 22 -8.5 42t-23.5 35t-35 23.5t-42 8.5q-23 0 -42.5 -8.5t-34 -23.5t-23 -35t-8.5 -42q0 -45 32 -77t76 -32q22 0 42 8.5t35 23.5t23.5 34.5t8.5 42.5z" />
<glyph unicode="1" horiz-adv-x="297" d="M257 631q0 22 -8.5 42t-23.5 35t-35 23.5t-42 8.5q-23 0 -42.5 -8.5t-34 -23.5t-23 -35t-8.5 -42v-522q0 -45 32 -77t76 -32q22 0 42 8.5t35 23.5t23.5 34.5t8.5 42.5v522z" />
<glyph unicode="2" d="M257 109q0 63 44 107q45 45 108 45h261q22 0 42 8.5t35 23.5t23.5 34.5t8.5 42.5q0 153 -109 261q-108 109 -261 109h-261q-23 0 -42.5 -8.5t-34 -23.5t-23 -35t-8.5 -42q0 -45 32 -77t76 -32h261q33 0 59 -11t48 -32h-107q-152 0 -261 -109q-108 -108 -108 -261 q0 -45 32 -77t76 -32q23 0 43 8.5t34.5 23t23 34.5t8.5 43zM779 109q0 22 -8.5 42t-23.5 35t-35 23.5t-42 8.5h-261q-23 0 -42.5 -8.5t-34 -23.5t-23 -35t-8.5 -42q0 -45 32 -77t76 -32h261q22 0 42 8.5t35 23.5t23.5 34.5t8.5 42.5z" />
<glyph unicode="3" d="M779 370q0 153 -109 261q-108 109 -261 109h-261q-23 0 -42.5 -8.5t-34 -23.5t-23 -35t-8.5 -42q0 -45 32 -77t76 -32h261q63 0 108 -45t45 -107q0 -65 -45 -108q-46 -44 -108 -44h-261q-23 0 -42.5 -8.5t-34 -23.5t-23 -35t-8.5 -42q0 -45 32 -77t76 -32h261 q153 0 261 108q109 109 109 262zM40 370q0 -45 32 -77t76 -32h261q22 0 42 8.5t35 23.5t23.5 34.5t8.5 42.5q0 22 -8.5 42t-23.5 35t-35 23.5t-42 8.5h-261q-23 0 -42.5 -8.5t-34 -23.5t-23 -35t-8.5 -42z" />
<glyph unicode="4" d="M779 631q0 22 -8.5 42t-23.5 35t-35 23.5t-42 8.5q-23 0 -42.5 -8.5t-34 -23.5t-23 -35t-8.5 -42v-152h-305v152q0 22 -8.5 42t-23.5 35t-35 23.5t-42 8.5q-23 0 -42.5 -8.5t-34 -23.5t-23 -35t-8.5 -42v-261q0 -45 32 -77t76 -32h414v-152q0 -45 32 -77t76 -32 q22 0 42 8.5t35 23.5t23.5 34.5t8.5 42.5v522z" />
<glyph unicode="5" d="M779 109q0 153 -109 261q-108 109 -261 109h-152v43h413q22 0 42 8.5t35 23.5t23.5 34.5t8.5 42.5q0 22 -8.5 42t-23.5 35t-35 23.5t-42 8.5h-522q-23 0 -42.5 -8.5t-34 -23.5t-23 -35t-8.5 -42v-261q0 -45 32 -77t76 -32h261q63 0 108 -45t45 -107q0 -45 32 -77t76 -32 q22 0 42 8.5t35 23.5t23.5 34.5t8.5 42.5zM518 109q0 22 -8.5 42t-23.5 35t-35 23.5t-42 8.5h-261q-23 0 -42.5 -8.5t-34 -23.5t-23 -35t-8.5 -42q0 -45 32 -77t76 -32h261q22 0 42 8.5t35 23.5t23.5 34.5t8.5 42.5z" />
<glyph unicode="6" d="M779 370q0 22 -8.5 42t-23.5 35t-35 23.5t-42 8.5h-367q43 43 106 43h261q22 0 42 8.5t35 23.5t23.5 34.5t8.5 42.5q0 22 -8.5 42t-23.5 35t-35 23.5t-42 8.5h-261q-152 0 -261 -109q-108 -108 -108 -261q0 -154 108 -262t261 -108t261 108q109 109 109 262zM409 218 q-63 0 -106 43h213q-44 -43 -107 -43z" />
<glyph unicode="7" d="M779 631q0 22 -8.5 42t-23.5 35t-35 23.5t-42 8.5h-522q-23 0 -42.5 -8.5t-34 -23.5t-23 -35t-8.5 -42q0 -45 32 -77t76 -32h414v-413q0 -45 32 -77t76 -32q22 0 42 8.5t35 23.5t23.5 34.5t8.5 42.5v522z" />
<glyph unicode="8" d="M671 370q51 51 79.5 118.5t28.5 142.5q0 22 -8.5 42t-23.5 35t-35 23.5t-42 8.5h-522q-23 0 -42.5 -8.5t-34 -23.5t-23 -35t-8.5 -42q0 -75 28.5 -142.5t79.5 -118.5q-51 -51 -79.5 -118.5t-28.5 -142.5q0 -45 32 -77t76 -32h522q22 0 42 8.5t35 23.5t23.5 34.5t8.5 42.5 q0 75 -28.5 142.5t-79.5 118.5zM516 522q-44 -43 -107 -43t-106 43h213zM303 218q43 43 106 43q33 0 59 -11t48 -32h-213z" />
<glyph unicode="9" d="M779 370q0 153 -109 261q-108 109 -261 109h-261q-23 0 -42.5 -8.5t-34 -23.5t-23 -35t-8.5 -42q0 -154 108 -262t261 -108q22 0 42 8.5t35 23.5t23.5 34.5t8.5 42.5q0 22 -8.5 42t-23.5 35t-35 23.5t-42 8.5q-63 0 -106 43h106q63 0 108 -45t45 -107v-261q0 -45 32 -77 t76 -32q22 0 42 8.5t35 23.5t23.5 34.5t8.5 42.5v261z" />
<glyph unicode=":" horiz-adv-x="297" d="M40 631q0 -45 32 -77t76 -32q22 0 42 8.5t35 23.5t23.5 34.5t8.5 42.5q0 22 -8.5 42t-23.5 35t-35 23.5t-42 8.5q-23 0 -42.5 -8.5t-34 -23.5t-23 -35t-8.5 -42zM257 109q0 22 -8.5 42t-23.5 35t-35 23.5t-42 8.5q-23 0 -42.5 -8.5t-34 -23.5t-23 -35t-8.5 -42 q0 -45 32 -77t76 -32q22 0 42 8.5t35 23.5t23.5 34.5t8.5 42.5z" />
<glyph unicode=";" horiz-adv-x="297" d="M40 631q0 -45 32 -77t76 -32q22 0 42 8.5t35 23.5t23.5 34.5t8.5 42.5q0 22 -8.5 42t-23.5 35t-35 23.5t-42 8.5q-23 0 -42.5 -8.5t-34 -23.5t-23 -35t-8.5 -42zM257 109q0 22 -8.5 42t-23.5 35t-35 23.5t-42 8.5q-23 0 -42.5 -8.5t-34 -23.5t-23 -35t-8.5 -42v-130 q0 -45 32 -77t76 -32q22 0 42 8.5t35 23.5t23.5 34.5t8.5 42.5v130z" />
<glyph unicode="&#x3c;" horiz-adv-x="427" d="M355 316l-53 54l53 54q32 32 32 76q0 23 -8.5 43t-23.5 34.5t-35 23t-42 8.5q-42 0 -77 -32l-130 -130q-31 -31 -31 -77t31 -77l130 -130q17 -17 36 -24.5t41 -7.5q45 0 77 32t32 76q0 45 -32 77z" />
<glyph unicode="=" horiz-adv-x="558" d="M40 500q0 -23 8.5 -42.5t23 -34t34 -23t42.5 -8.5h261q45 0 77 32t32 76q0 22 -8.5 42t-23.5 35t-35 23.5t-42 8.5h-261q-23 0 -42.5 -8.5t-34 -23.5t-23 -35t-8.5 -42zM518 240q0 23 -8.5 42.5t-23.5 34t-35 23t-42 8.5h-261q-23 0 -42.5 -8.5t-34 -23t-23 -34.5 t-8.5 -42q0 -45 32 -77t76 -32h261q22 0 42 8.5t35 23.5t23.5 34.5t8.5 42.5z" />
<glyph unicode="&#x3e;" horiz-adv-x="427" d="M355 293q32 32 32 77t-32 77l-130 130q-32 32 -77 32q-23 0 -42.5 -8.5t-34 -23t-23 -34.5t-8.5 -43q0 -45 31 -76l54 -54l-54 -54q-31 -31 -31 -77q0 -23 8.5 -42.5t23 -34t34 -23t42.5 -8.5q45 0 77 32z" />
<glyph unicode="?" d="M779 631q0 22 -8.5 42t-23.5 35t-35 23.5t-42 8.5h-261q-152 0 -261 -109q-108 -108 -108 -261q0 -45 32 -77t76 -32q23 0 43 8.5t34.5 23t23 34.5t8.5 43q0 63 44 107q45 45 108 45h107q-44 -43 -107 -43q-23 0 -42.5 -8.5t-34 -23.5t-23 -35t-8.5 -42q0 -45 32 -77 t76 -32q153 0 261 108q109 109 109 262zM518 109q0 22 -8.5 42t-23.5 35t-35 23.5t-42 8.5q-23 0 -42.5 -8.5t-34 -23.5t-23 -35t-8.5 -42q0 -45 32 -77t76 -32q22 0 42 8.5t35 23.5t23.5 34.5t8.5 42.5z" />
<glyph unicode="@" d="M779 370q0 153 -109 261q-108 109 -261 109q-152 0 -261 -109q-108 -108 -108 -261v-261q0 -45 32 -77t76 -32q23 0 43 8.5t34.5 23t23 34.5t8.5 43v261q0 63 44 107q45 45 108 45q33 0 59 -11t48 -32h-107q-23 0 -42.5 -8.5t-34 -23.5t-23 -35t-8.5 -42v-261 q0 -45 32 -77t76 -32q153 0 261 108q109 109 109 262z" />
<glyph unicode="A" d="M779 370q0 153 -109 261q-108 109 -261 109q-152 0 -261 -109q-108 -108 -108 -261v-261q0 -45 32 -77t76 -32q23 0 43 8.5t34.5 23t23 34.5t8.5 43v261q0 63 44 107q45 45 108 45t108 -45t45 -107v-261q0 -45 32 -77t76 -32q22 0 42 8.5t35 23.5t23.5 34.5t8.5 42.5v261 zM518 370q0 22 -8.5 42t-23.5 35t-35 23.5t-42 8.5q-23 0 -42.5 -8.5t-34 -23.5t-23 -35t-8.5 -42q0 -45 32 -77t76 -32q22 0 42 8.5t35 23.5t23.5 34.5t8.5 42.5z" />
<glyph unicode="B" d="M779 370q0 56 -44 87q22 42 33 84t11 90q0 22 -8.5 42t-23.5 35t-35 23.5t-42 8.5h-261q-152 0 -261 -109q-108 -108 -108 -261v-261q0 -45 32 -77t76 -32q23 0 43 8.5t34.5 23t23 34.5t8.5 43v261q0 63 44 107q45 45 108 45h107q-44 -43 -107 -43q-23 0 -42.5 -8.5 t-34 -23.5t-23 -35t-8.5 -42q0 -45 32 -77t76 -32q64 0 125 23q-21 -31 -54 -48.5t-71 -17.5q-23 0 -42.5 -8.5t-34 -23.5t-23 -35t-8.5 -42q0 -45 32 -77t76 -32q153 0 261 108q109 109 109 262z" />
<glyph unicode="C" d="M779 109q0 22 -8.5 42t-23.5 35t-35 23.5t-42 8.5h-261q-62 0 -108 44q-44 46 -44 108q0 63 44 107q45 45 108 45h261q22 0 42 8.5t35 23.5t23.5 34.5t8.5 42.5q0 22 -8.5 42t-23.5 35t-35 23.5t-42 8.5h-261q-152 0 -261 -109q-108 -108 -108 -261q0 -154 108 -262 t261 -108h261q22 0 42 8.5t35 23.5t23.5 34.5t8.5 42.5z" />
<glyph unicode="D" d="M779 370q0 153 -109 261q-108 109 -261 109h-261q-23 0 -42.5 -8.5t-34 -23.5t-23 -35t-8.5 -42q0 -45 32 -77t76 -32h261q63 0 108 -45t45 -107q0 -65 -45 -108q-46 -44 -108 -44h-152v152q0 22 -8.5 42t-23.5 35t-35 23.5t-42 8.5q-23 0 -42.5 -8.5t-34 -23.5t-23 -35 t-8.5 -42v-261q0 -45 32 -77t76 -32h261q153 0 261 108q109 109 109 262z" />
<glyph unicode="E" d="M779 109q0 22 -8.5 42t-23.5 35t-35 23.5t-42 8.5h-261q-62 0 -108 44q-44 46 -44 108q0 63 44 107q45 45 108 45h261q22 0 42 8.5t35 23.5t23.5 34.5t8.5 42.5q0 22 -8.5 42t-23.5 35t-35 23.5t-42 8.5h-261q-152 0 -261 -109q-108 -108 -108 -261q0 -154 108 -262 t261 -108h261q22 0 42 8.5t35 23.5t23.5 34.5t8.5 42.5zM779 370q0 22 -8.5 42t-23.5 35t-35 23.5t-42 8.5h-261q-23 0 -42.5 -8.5t-34 -23.5t-23 -35t-8.5 -42q0 -45 32 -77t76 -32h261q22 0 42 8.5t35 23.5t23.5 34.5t8.5 42.5z" />
<glyph unicode="F" d="M257 370q0 63 44 107q45 45 108 45h261q22 0 42 8.5t35 23.5t23.5 34.5t8.5 42.5q0 22 -8.5 42t-23.5 35t-35 23.5t-42 8.5h-261q-152 0 -261 -109q-108 -108 -108 -261v-261q0 -45 32 -77t76 -32q23 0 43 8.5t34.5 23t23 34.5t8.5 43v261zM779 370q0 22 -8.5 42 t-23.5 35t-35 23.5t-42 8.5h-261q-23 0 -42.5 -8.5t-34 -23.5t-23 -35t-8.5 -42q0 -45 32 -77t76 -32h261q22 0 42 8.5t35 23.5t23.5 34.5t8.5 42.5z" />
<glyph unicode="G" d="M779 370q0 22 -8.5 42t-23.5 35t-35 23.5t-42 8.5h-261q-23 0 -42.5 -8.5t-34 -23.5t-23 -35t-8.5 -42q0 -45 32 -77t76 -32h153v-43h-153q-62 0 -108 44q-44 46 -44 108q0 63 44 107q45 45 108 45h261q22 0 42 8.5t35 23.5t23.5 34.5t8.5 42.5q0 22 -8.5 42t-23.5 35 t-35 23.5t-42 8.5h-261q-152 0 -261 -109q-108 -108 -108 -261q0 -154 108 -262t261 -108h261q22 0 42 8.5t35 23.5t23.5 34.5t8.5 42.5v261z" />
<glyph unicode="H" d="M257 631q0 22 -8.5 42t-23.5 35t-35 23.5t-42 8.5q-23 0 -42.5 -8.5t-34 -23.5t-23 -35t-8.5 -42v-522q0 -45 32 -77t76 -32q23 0 43 8.5t34.5 23t23 34.5t8.5 43v522zM779 631q0 22 -8.5 42t-23.5 35t-35 23.5t-42 8.5q-23 0 -42.5 -8.5t-34 -23.5t-23 -35t-8.5 -42 v-522q0 -45 32 -77t76 -32q22 0 42 8.5t35 23.5t23.5 34.5t8.5 42.5v522zM518 370q0 22 -8.5 42t-23.5 35t-35 23.5t-42 8.5q-23 0 -42.5 -8.5t-34 -23.5t-23 -35t-8.5 -42q0 -45 32 -77t76 -32q22 0 42 8.5t35 23.5t23.5 34.5t8.5 42.5z" />
<glyph unicode="I" d="M779 109q0 22 -8.5 42t-23.5 35t-35 23.5t-42 8.5h-522q-23 0 -42.5 -8.5t-34 -23.5t-23 -35t-8.5 -42q0 -45 32 -77t76 -32h522q22 0 42 8.5t35 23.5t23.5 34.5t8.5 42.5zM409 479q-23 0 -42.5 -8.5t-34 -23.5t-23 -35t-8.5 -42q0 -45 32 -77t76 -32q22 0 42 8.5 t35 23.5t23.5 34.5t8.5 42.5q0 22 -8.5 42t-23.5 35t-35 23.5t-42 8.5zM40 631q0 -45 32 -77t76 -32h522q22 0 42 8.5t35 23.5t23.5 34.5t8.5 42.5q0 22 -8.5 42t-23.5 35t-35 23.5t-42 8.5h-522q-23 0 -42.5 -8.5t-34 -23.5t-23 -35t-8.5 -42z" />
<glyph unicode="J" d="M779 631q0 22 -8.5 42t-23.5 35t-35 23.5t-42 8.5q-23 0 -42.5 -8.5t-34 -23.5t-23 -35t-8.5 -42v-261q0 -65 -45 -108q-46 -44 -108 -44t-108 44q-44 46 -44 108q0 22 -8.5 42t-23.5 35t-35 23.5t-42 8.5q-23 0 -42.5 -8.5t-34 -23.5t-23 -35t-8.5 -42q0 -154 108 -262 t261 -108t261 108q109 109 109 262v261z" />
<glyph unicode="K" d="M257 631q0 22 -8.5 42t-23.5 35t-35 23.5t-42 8.5q-23 0 -42.5 -8.5t-34 -23.5t-23 -35t-8.5 -42v-522q0 -45 32 -77t76 -32q23 0 43 8.5t34.5 23t23 34.5t8.5 43v522zM779 109q0 117 -66 210q-63 93 -170 134q21 33 54 51t73 18q22 0 42 8.5t35 23.5t23.5 34.5t8.5 42.5 q0 22 -8.5 42t-23.5 35t-35 23.5t-42 8.5q-153 0 -261 -109q-108 -110 -108 -261q0 -45 32 -77t76 -32q63 0 108 -45t45 -107q0 -45 32 -77t76 -32q22 0 42 8.5t35 23.5t23.5 34.5t8.5 42.5z" />
<glyph unicode="L" d="M779 109q0 22 -8.5 42t-23.5 35t-35 23.5t-42 8.5h-413v413q0 22 -8.5 42t-23.5 35t-35 23.5t-42 8.5q-23 0 -42.5 -8.5t-34 -23.5t-23 -35t-8.5 -42v-522q0 -45 32 -77t76 -32h522q22 0 42 8.5t35 23.5t23.5 34.5t8.5 42.5z" />
<glyph unicode="M" d="M779 370q0 153 -109 261q-108 109 -261 109q-152 0 -261 -109q-108 -108 -108 -261v-261q0 -45 32 -77t76 -32q23 0 43 8.5t34.5 23t23 34.5t8.5 43v261q0 63 44 107q45 45 108 45t108 -45t45 -107v-261q0 -45 32 -77t76 -32q22 0 42 8.5t35 23.5t23.5 34.5t8.5 42.5v261 zM518 370q0 22 -8.5 42t-23.5 35t-35 23.5t-42 8.5q-23 0 -42.5 -8.5t-34 -23.5t-23 -35t-8.5 -42v-261q0 -45 32 -77t76 -32q22 0 42 8.5t35 23.5t23.5 34.5t8.5 42.5v261z" />
<glyph unicode="N" d="M779 109q0 22 -8.5 42t-23.5 35t-35 23.5t-42 8.5q-62 0 -108 44q-44 46 -44 108q0 153 -109 261q-108 109 -261 109q-23 0 -42.5 -8.5t-34 -23.5t-23 -35t-8.5 -42q0 -45 32 -77t76 -32q63 0 108 -45t45 -107q0 -154 108 -262t261 -108q22 0 42 8.5t35 23.5t23.5 34.5 t8.5 42.5zM257 370q0 22 -8.5 42t-23.5 35t-35 23.5t-42 8.5q-23 0 -42.5 -8.5t-34 -23.5t-23 -35t-8.5 -42v-261q0 -45 32 -77t76 -32q23 0 43 8.5t34.5 23t23 34.5t8.5 43v261zM779 631q0 22 -8.5 42t-23.5 35t-35 23.5t-42 8.5q-23 0 -42.5 -8.5t-34 -23.5t-23 -35 t-8.5 -42v-261q0 -45 32 -77t76 -32q22 0 42 8.5t35 23.5t23.5 34.5t8.5 42.5v261z" />
<glyph unicode="O" d="M779 370q0 153 -109 261q-108 109 -261 109q-152 0 -261 -109q-108 -108 -108 -261q0 -154 108 -262t261 -108t261 108q109 109 109 262zM562 370q0 -65 -45 -108q-46 -44 -108 -44t-108 44q-44 46 -44 108q0 63 44 107q45 45 108 45t108 -45t45 -107z" />
<glyph unicode="P" d="M779 631q0 22 -8.5 42t-23.5 35t-35 23.5t-42 8.5h-261q-152 0 -261 -109q-108 -108 -108 -261v-261q0 -45 32 -77t76 -32q23 0 43 8.5t34.5 23t23 34.5t8.5 43v261q0 63 44 107q45 45 108 45h107q-44 -43 -107 -43q-23 0 -42.5 -8.5t-34 -23.5t-23 -35t-8.5 -42 q0 -45 32 -77t76 -32q153 0 261 108q109 109 109 262z" />
<glyph unicode="Q" d="M779 109q0 56 -44 87q22 42 33 84t11 90q0 153 -109 261q-108 109 -261 109q-152 0 -261 -109q-108 -108 -108 -261q0 -154 108 -262t261 -108q94 0 174 44q33 -44 87 -44q22 0 42 8.5t35 23.5t23.5 34.5t8.5 42.5zM562 370q0 -65 -45 -108q-46 -44 -108 -44t-108 44 q-44 46 -44 108q0 63 44 107q45 45 108 45t108 -45t45 -107z" />
<glyph unicode="R" d="M671 370q51 51 79.5 118.5t28.5 142.5q0 22 -8.5 42t-23.5 35t-35 23.5t-42 8.5h-261q-152 0 -261 -109q-108 -108 -108 -261v-261q0 -45 32 -77t76 -32q23 0 43 8.5t34.5 23t23 34.5t8.5 43v261q0 63 44 107q45 45 108 45h107q-44 -43 -107 -43q-23 0 -42.5 -8.5 t-34 -23.5t-23 -35t-8.5 -42q0 -45 32 -77t76 -32q63 0 108 -45t45 -107q0 -45 32 -77t76 -32q22 0 42 8.5t35 23.5t23.5 34.5t8.5 42.5q0 75 -28.5 142.5t-79.5 118.5z" />
<glyph unicode="S" d="M779 109q0 153 -109 261q-108 109 -261 109q-62 0 -108 44q-44 46 -44 108q0 22 -8.5 42t-23.5 35t-35 23.5t-42 8.5q-23 0 -42.5 -8.5t-34 -23.5t-23 -35t-8.5 -42q0 -154 108 -262t261 -108q63 0 108 -45t45 -107q0 -45 32 -77t76 -32q22 0 42 8.5t35 23.5t23.5 34.5 t8.5 42.5zM301 631q0 -45 32 -77t76 -32h261q22 0 42 8.5t35 23.5t23.5 34.5t8.5 42.5q0 22 -8.5 42t-23.5 35t-35 23.5t-42 8.5h-261q-23 0 -42.5 -8.5t-34 -23.5t-23 -35t-8.5 -42zM518 109q0 22 -8.5 42t-23.5 35t-35 23.5t-42 8.5h-261q-23 0 -42.5 -8.5t-34 -23.5 t-23 -35t-8.5 -42q0 -45 32 -77t76 -32h261q22 0 42 8.5t35 23.5t23.5 34.5t8.5 42.5z" />
<glyph unicode="T" d="M779 631q0 22 -8.5 42t-23.5 35t-35 23.5t-42 8.5h-522q-23 0 -42.5 -8.5t-34 -23.5t-23 -35t-8.5 -42q0 -45 32 -77t76 -32h153v-413q0 -45 32 -77t76 -32q22 0 42 8.5t35 23.5t23.5 34.5t8.5 42.5v413h152q22 0 42 8.5t35 23.5t23.5 34.5t8.5 42.5z" />
<glyph unicode="U" d="M779 631q0 22 -8.5 42t-23.5 35t-35 23.5t-42 8.5q-23 0 -42.5 -8.5t-34 -23.5t-23 -35t-8.5 -42v-261q0 -65 -45 -108q-46 -44 -108 -44t-108 44q-44 46 -44 108v261q0 22 -8.5 42t-23.5 35t-35 23.5t-42 8.5q-23 0 -42.5 -8.5t-34 -23.5t-23 -35t-8.5 -42v-261 q0 -154 108 -262t261 -108t261 108q109 109 109 262v261z" />
<glyph unicode="V" d="M779 631q0 22 -8.5 42t-23.5 35t-35 23.5t-42 8.5q-23 0 -42.5 -8.5t-34 -23.5t-23 -35t-8.5 -42v-413h-153q-62 0 -108 44q-44 46 -44 108v261q0 22 -8.5 42t-23.5 35t-35 23.5t-42 8.5q-23 0 -42.5 -8.5t-34 -23.5t-23 -35t-8.5 -42v-261q0 -154 108 -262t261 -108h261 q22 0 42 8.5t35 23.5t23.5 34.5t8.5 42.5v522z" />
<glyph unicode="W" d="M779 631q0 22 -8.5 42t-23.5 35t-35 23.5t-42 8.5q-23 0 -42.5 -8.5t-34 -23.5t-23 -35t-8.5 -42v-261q0 -65 -45 -108q-46 -44 -108 -44t-108 44q-44 46 -44 108v261q0 22 -8.5 42t-23.5 35t-35 23.5t-42 8.5q-23 0 -42.5 -8.5t-34 -23.5t-23 -35t-8.5 -42v-261 q0 -154 108 -262t261 -108t261 108q109 109 109 262v261zM301 370q0 -45 32 -77t76 -32q22 0 42 8.5t35 23.5t23.5 34.5t8.5 42.5v261q0 22 -8.5 42t-23.5 35t-35 23.5t-42 8.5q-23 0 -42.5 -8.5t-34 -23.5t-23 -35t-8.5 -42v-261z" />
<glyph unicode="X" d="M671 370q51 51 79.5 118.5t28.5 142.5q0 22 -8.5 42t-23.5 35t-35 23.5t-42 8.5q-23 0 -42.5 -8.5t-34 -23.5t-23 -35t-8.5 -42q0 -65 -45 -108q-46 -44 -108 -44t-108 44q-44 46 -44 108q0 22 -8.5 42t-23.5 35t-35 23.5t-42 8.5q-23 0 -42.5 -8.5t-34 -23.5t-23 -35 t-8.5 -42q0 -75 28.5 -142.5t79.5 -118.5q-51 -51 -79.5 -118.5t-28.5 -142.5q0 -45 32 -77t76 -32q23 0 43 8.5t34.5 23t23 34.5t8.5 43q0 63 44 107q45 45 108 45t108 -45t45 -107q0 -45 32 -77t76 -32q22 0 42 8.5t35 23.5t23.5 34.5t8.5 42.5q0 75 -28.5 142.5 t-79.5 118.5z" />
<glyph unicode="Y" d="M518 278q112 34 187 133q74 98 74 220q0 22 -8.5 42t-23.5 35t-35 23.5t-42 8.5q-23 0 -42.5 -8.5t-34 -23.5t-23 -35t-8.5 -42q0 -65 -45 -108q-46 -44 -108 -44t-108 44q-44 46 -44 108q0 22 -8.5 42t-23.5 35t-35 23.5t-42 8.5q-23 0 -42.5 -8.5t-34 -23.5t-23 -35 t-8.5 -42q0 -124 73 -221q74 -98 188 -132v-169q0 -45 32 -77t76 -32q22 0 42 8.5t35 23.5t23.5 34.5t8.5 42.5v169z" />
<glyph unicode="Z" d="M779 109q0 22 -8.5 42t-23.5 35t-35 23.5t-42 8.5h-259l336 336q32 32 32 77q0 19 -8 41q-13 32 -40 50t-61 18h-522q-23 0 -42.5 -8.5t-34 -23.5t-23 -35t-8.5 -42q0 -45 32 -77t76 -32h260l-336 -336q-32 -32 -32 -77q0 -23 8 -41q13 -32 40 -50t60 -18h522 q22 0 42 8.5t35 23.5t23.5 34.5t8.5 42.5z" />
<glyph unicode="[" horiz-adv-x="558" d="M518 109q0 22 -8.5 42t-23.5 35t-35 23.5t-42 8.5h-152v304h152q22 0 42 8.5t35 23.5t23.5 34.5t8.5 42.5q0 22 -8.5 42t-23.5 35t-35 23.5t-42 8.5h-261q-23 0 -42.5 -8.5t-34 -23.5t-23 -35t-8.5 -42v-522q0 -45 32 -77t76 -32h261q22 0 42 8.5t35 23.5t23.5 34.5 t8.5 42.5z" />
<glyph unicode="\" d="M747 32q32 32 32 77t-32 77l-522 522q-31 31 -76 31q-23 0 -43 -9t-34.5 -24t-23 -34.5t-8.5 -40.5q0 -45 32 -77l521 -522q35 -32 77 -32q45 0 77 32z" />
<glyph unicode="]" horiz-adv-x="558" d="M518 631q0 22 -8.5 42t-23.5 35t-35 23.5t-42 8.5h-261q-23 0 -42.5 -8.5t-34 -23.5t-23 -35t-8.5 -42q0 -45 32 -77t76 -32h153v-304h-153q-23 0 -42.5 -8.5t-34 -23.5t-23 -35t-8.5 -42q0 -45 32 -77t76 -32h261q22 0 42 8.5t35 23.5t23.5 34.5t8.5 42.5v522z" />
<glyph unicode="^" horiz-adv-x="558" d="M486 424q32 32 32 76q0 45 -32 77l-130 131q-31 31 -77 31t-77 -31l-130 -131q-32 -32 -32 -77t31 -76q32 -32 78 -32q21 0 41 8t35 24l54 53l53 -53q17 -17 36 -24.5t41 -7.5q45 0 77 32z" />
<glyph unicode="_" horiz-adv-x="558" d="M518 -21q0 23 -8.5 42.5t-23.5 34t-35 23t-42 8.5h-261q-23 0 -42.5 -8.5t-34 -23t-23 -34.5t-8.5 -42q0 -45 32 -77t76 -32h261q22 0 42 8.5t35 23.5t23.5 34.5t8.5 42.5z" />
<glyph unicode="`" horiz-adv-x="297" d="M257 631q0 22 -8.5 42t-23.5 35t-35 23.5t-42 8.5q-23 0 -42.5 -8.5t-34 -23.5t-23 -35t-8.5 -42v-131q0 -23 8.5 -42.5t23 -34t34 -23t42.5 -8.5q45 0 77 32t32 76v131z" />
<glyph unicode="a" d="M779 370q0 153 -109 261q-108 109 -261 109q-152 0 -261 -109q-108 -108 -108 -261q0 -154 108 -262t261 -108q22 0 42 8.5t35 23.5t23.5 34.5t8.5 42.5q0 22 -8.5 42t-23.5 35t-35 23.5t-42 8.5q-62 0 -108 44q-44 46 -44 108q0 63 44 107q45 45 108 45t108 -45t45 -107 v-261q0 -45 32 -77t76 -32q22 0 42 8.5t35 23.5t23.5 34.5t8.5 42.5v261z" />
<glyph unicode="b" d="M779 370q0 153 -109 261q-108 109 -261 109q-23 0 -42.5 -8.5t-34 -23.5t-23 -35t-8.5 -42q0 -45 32 -77t76 -32q63 0 108 -45t45 -107q0 -65 -45 -108q-46 -44 -108 -44t-108 44q-44 46 -44 108v391q0 22 -8.5 42t-23.5 35t-35 23.5t-42 8.5q-23 0 -42.5 -8.5t-34 -23.5 t-23 -35t-8.5 -42v-391q0 -154 108 -262t261 -108t261 108q109 109 109 262z" />
<glyph unicode="c" horiz-adv-x="784" d="M729 185q15 25 15 55q0 22 -8.5 41.5t-23.5 34.5t-34.5 24t-41.5 9q-64 0 -95 -55q-21 -36 -55 -56t-76 -20q-63 0 -108 45t-45 107q0 64 45 108q46 44 108 44q88 0 131 -76q15 -26 40.5 -40.5t54.5 -14.5q28 0 54 15q54 31 54 93q0 30 -15 56q-25 43 -59.5 77.5 t-75.5 58.5t-87.5 36.5t-96.5 12.5q-153 0 -262 -109q-108 -108 -108 -261t108 -262q109 -108 262 -108q98 0 184 50q85 49 135 135z" />
<glyph unicode="d" d="M779 761q0 22 -8.5 42t-23.5 35t-35 23.5t-42 8.5q-23 0 -42.5 -8.5t-34 -23.5t-23 -35t-8.5 -42v-391q0 -65 -45 -108q-46 -44 -108 -44t-108 44q-44 46 -44 108q0 63 44 107q45 45 108 45q22 0 42 8.5t35 23.5t23.5 34.5t8.5 42.5q0 22 -8.5 42t-23.5 35t-35 23.5 t-42 8.5q-152 0 -261 -109q-108 -108 -108 -261q0 -154 108 -262t261 -108t261 108q109 109 109 262v391z" />
<glyph unicode="e" d="M779 109q0 22 -8.5 42t-23.5 35t-35 23.5t-42 8.5h-261q-62 0 -108 44q-44 46 -44 108q0 63 44 107q45 45 108 45h261q22 0 42 8.5t35 23.5t23.5 34.5t8.5 42.5q0 22 -8.5 42t-23.5 35t-35 23.5t-42 8.5h-261q-152 0 -261 -109q-108 -108 -108 -261q0 -154 108 -262 t261 -108h261q22 0 42 8.5t35 23.5t23.5 34.5t8.5 42.5zM409 479q-23 0 -42.5 -8.5t-34 -23.5t-23 -35t-8.5 -42q0 -45 32 -77t76 -32q22 0 42 8.5t35 23.5t23.5 34.5t8.5 42.5q0 22 -8.5 42t-23.5 35t-35 23.5t-42 8.5z" />
<glyph unicode="f" d="M779 631q0 22 -8.5 42t-23.5 35t-35 23.5t-42 8.5h-261q-152 0 -261 -109q-108 -108 -108 -261v-261q0 -45 32 -77t76 -32q23 0 43 8.5t34.5 23t23 34.5t8.5 43v261q0 63 44 107q45 45 108 45h261q22 0 42 8.5t35 23.5t23.5 34.5t8.5 42.5zM518 370q0 22 -8.5 42 t-23.5 35t-35 23.5t-42 8.5q-23 0 -42.5 -8.5t-34 -23.5t-23 -35t-8.5 -42q0 -45 32 -77t76 -32q22 0 42 8.5t35 23.5t23.5 34.5t8.5 42.5z" />
<glyph unicode="g" d="M779 370q0 153 -109 261q-108 109 -261 109h-261q-23 0 -42.5 -8.5t-34 -23.5t-23 -35t-8.5 -42q0 -154 108 -262t261 -108q22 0 42 8.5t35 23.5t23.5 34.5t8.5 42.5q0 22 -8.5 42t-23.5 35t-35 23.5t-42 8.5q-63 0 -106 43h106q63 0 108 -45t45 -107q0 -65 -45 -108 q-46 -44 -108 -44h-261q-23 0 -42.5 -8.5t-34 -23.5t-23 -35t-8.5 -42q0 -45 32 -77t76 -32h261q153 0 261 108q109 109 109 262z" />
<glyph unicode="h" d="M779 631q0 22 -8.5 42t-23.5 35t-35 23.5t-42 8.5q-23 0 -42.5 -8.5t-34 -23.5t-23 -35t-8.5 -42v-152h-305v152q0 22 -8.5 42t-23.5 35t-35 23.5t-42 8.5q-23 0 -42.5 -8.5t-34 -23.5t-23 -35t-8.5 -42v-522q0 -45 32 -77t76 -32q23 0 43 8.5t34.5 23t23 34.5t8.5 43 v152h305v-152q0 -45 32 -77t76 -32q22 0 42 8.5t35 23.5t23.5 34.5t8.5 42.5v522z" />
<glyph unicode="i" d="M779 109q0 22 -8.5 42t-23.5 35t-35 23.5t-42 8.5h-152v304h152q22 0 42 8.5t35 23.5t23.5 34.5t8.5 42.5q0 22 -8.5 42t-23.5 35t-35 23.5t-42 8.5h-522q-23 0 -42.5 -8.5t-34 -23.5t-23 -35t-8.5 -42q0 -45 32 -77t76 -32h153v-304h-153q-23 0 -42.5 -8.5t-34 -23.5 t-23 -35t-8.5 -42q0 -45 32 -77t76 -32h522q22 0 42 8.5t35 23.5t23.5 34.5t8.5 42.5z" />
<glyph unicode="j" d="M779 370q0 22 -8.5 42t-23.5 35t-35 23.5t-42 8.5q-23 0 -42.5 -8.5t-34 -23.5t-23 -35t-8.5 -42q0 -65 -45 -108q-46 -44 -108 -44t-108 44q-44 46 -44 108q0 22 -8.5 42t-23.5 35t-35 23.5t-42 8.5q-23 0 -42.5 -8.5t-34 -23.5t-23 -35t-8.5 -42q0 -154 108 -262 t261 -108t261 108q109 109 109 262zM562 631q0 -45 32 -77t76 -32q22 0 42 8.5t35 23.5t23.5 34.5t8.5 42.5q0 22 -8.5 42t-23.5 35t-35 23.5t-42 8.5q-23 0 -42.5 -8.5t-34 -23.5t-23 -35t-8.5 -42z" />
<glyph unicode="k" d="M779 109q0 22 -8.5 42t-23.5 35t-35 23.5t-42 8.5q-40 0 -73 18.5t-54 50.5q106 40 171 134q65 95 65 210q0 22 -8.5 42t-23.5 35t-35 23.5t-42 8.5q-23 0 -42.5 -8.5t-34 -23.5t-23 -35t-8.5 -42q0 -65 -45 -108q-46 -44 -108 -44q-23 0 -42.5 -8.5t-34 -23.5t-23 -35 t-8.5 -42q0 -154 108 -262t261 -108q22 0 42 8.5t35 23.5t23.5 34.5t8.5 42.5zM257 631q0 22 -8.5 42t-23.5 35t-35 23.5t-42 8.5q-23 0 -42.5 -8.5t-34 -23.5t-23 -35t-8.5 -42v-522q0 -45 32 -77t76 -32q23 0 43 8.5t34.5 23t23 34.5t8.5 43v522z" />
<glyph unicode="l" d="M779 109q0 22 -8.5 42t-23.5 35t-35 23.5t-42 8.5h-261q-62 0 -108 44q-44 46 -44 108v261q0 22 -8.5 42t-23.5 35t-35 23.5t-42 8.5q-23 0 -42.5 -8.5t-34 -23.5t-23 -35t-8.5 -42v-261q0 -154 108 -262t261 -108h261q22 0 42 8.5t35 23.5t23.5 34.5t8.5 42.5z" />
<glyph unicode="m" d="M779 370q0 153 -109 261q-108 109 -261 109q-152 0 -261 -109q-108 -108 -108 -261v-261q0 -45 32 -77t76 -32q23 0 43 8.5t34.5 23t23 34.5t8.5 43v261q0 63 44 107q45 45 108 45t108 -45t45 -107v-261q0 -45 32 -77t76 -32q22 0 42 8.5t35 23.5t23.5 34.5t8.5 42.5v261 zM518 370q0 22 -8.5 42t-23.5 35t-35 23.5t-42 8.5q-23 0 -42.5 -8.5t-34 -23.5t-23 -35t-8.5 -42v-261q0 -45 32 -77t76 -32q22 0 42 8.5t35 23.5t23.5 34.5t8.5 42.5v261z" />
<glyph unicode="n" d="M779 370q0 153 -109 261q-108 109 -261 109q-152 0 -261 -109q-108 -108 -108 -261v-261q0 -45 32 -77t76 -32q23 0 43 8.5t34.5 23t23 34.5t8.5 43v261q0 63 44 107q45 45 108 45t108 -45t45 -107v-261q0 -45 32 -77t76 -32q22 0 42 8.5t35 23.5t23.5 34.5t8.5 42.5v261 z" />
<glyph unicode="o" d="M779 370q0 153 -109 261q-108 109 -261 109q-152 0 -261 -109q-108 -108 -108 -261q0 -154 108 -262t261 -108t261 108q109 109 109 262zM562 370q0 -65 -45 -108q-46 -44 -108 -44t-108 44q-44 46 -44 108q0 63 44 107q45 45 108 45t108 -45t45 -107z" />
<glyph unicode="p" d="M779 370q0 153 -109 261q-108 109 -261 109q-152 0 -261 -109q-108 -108 -108 -261v-391q0 -45 32 -77t76 -32q23 0 43 8.5t34.5 23t23 34.5t8.5 43v391q0 63 44 107q45 45 108 45t108 -45t45 -107q0 -65 -45 -108q-46 -44 -108 -44q-23 0 -42.5 -8.5t-34 -23.5t-23 -35 t-8.5 -42q0 -45 32 -77t76 -32q153 0 261 108q109 109 109 262z" />
<glyph unicode="q" d="M779 370q0 153 -109 261q-108 109 -261 109q-152 0 -261 -109q-108 -108 -108 -261q0 -154 108 -262t261 -108q22 0 42 8.5t35 23.5t23.5 34.5t8.5 42.5q0 22 -8.5 42t-23.5 35t-35 23.5t-42 8.5q-62 0 -108 44q-44 46 -44 108q0 63 44 107q45 45 108 45t108 -45t45 -107 v-391q0 -45 32 -77t76 -32q22 0 42 8.5t35 23.5t23.5 34.5t8.5 42.5v391z" />
<glyph unicode="r" d="M779 631q0 22 -8.5 42t-23.5 35t-35 23.5t-42 8.5h-261q-152 0 -261 -109q-108 -108 -108 -261v-261q0 -45 32 -77t76 -32q23 0 43 8.5t34.5 23t23 34.5t8.5 43v261q0 63 44 107q45 45 108 45h261q22 0 42 8.5t35 23.5t23.5 34.5t8.5 42.5z" />
<glyph unicode="s" d="M779 370q0 22 -8.5 42t-23.5 35t-35 23.5t-42 8.5q-23 0 -42.5 -8.5t-34 -23.5t-23 -35t-8.5 -42q0 -65 -45 -108q-46 -44 -108 -44h-261q-23 0 -42.5 -8.5t-34 -23.5t-23 -35t-8.5 -42q0 -45 32 -77t76 -32h261q153 0 261 108q109 109 109 262zM40 370q0 -45 32 -77 t76 -32q23 0 43 8.5t34.5 23t23 34.5t8.5 43q0 63 44 107q45 45 108 45h261q22 0 42 8.5t35 23.5t23.5 34.5t8.5 42.5q0 22 -8.5 42t-23.5 35t-35 23.5t-42 8.5h-261q-152 0 -261 -109q-108 -108 -108 -261zM409 479q-23 0 -42.5 -8.5t-34 -23.5t-23 -35t-8.5 -42 q0 -45 32 -77t76 -32q22 0 42 8.5t35 23.5t23.5 34.5t8.5 42.5q0 22 -8.5 42t-23.5 35t-35 23.5t-42 8.5z" />
<glyph unicode="t" horiz-adv-x="558" d="M518 109q0 22 -8.5 42t-23.5 35t-35 23.5t-42 8.5q-62 0 -108 44q-44 46 -44 108v391q0 22 -8.5 42t-23.5 35t-35 23.5t-42 8.5q-23 0 -42.5 -8.5t-34 -23.5t-23 -35t-8.5 -42v-391q0 -154 108 -262t261 -108q22 0 42 8.5t35 23.5t23.5 34.5t8.5 42.5zM301 631 q0 -45 32 -77t76 -32q22 0 42 8.5t35 23.5t23.5 34.5t8.5 42.5q0 22 -8.5 42t-23.5 35t-35 23.5t-42 8.5q-23 0 -42.5 -8.5t-34 -23.5t-23 -35t-8.5 -42z" />
<glyph unicode="u" d="M779 631q0 22 -8.5 42t-23.5 35t-35 23.5t-42 8.5q-23 0 -42.5 -8.5t-34 -23.5t-23 -35t-8.5 -42v-261q0 -65 -45 -108q-46 -44 -108 -44t-108 44q-44 46 -44 108v261q0 22 -8.5 42t-23.5 35t-35 23.5t-42 8.5q-23 0 -42.5 -8.5t-34 -23.5t-23 -35t-8.5 -42v-261 q0 -154 108 -262t261 -108t261 108q109 109 109 262v261z" />
<glyph unicode="v" d="M779 631q0 22 -8.5 42t-23.5 35t-35 23.5t-42 8.5q-23 0 -42.5 -8.5t-34 -23.5t-23 -35t-8.5 -42v-261q0 -65 -45 -108q-46 -44 -108 -44h-152v413q0 22 -8.5 42t-23.5 35t-35 23.5t-42 8.5q-23 0 -42.5 -8.5t-34 -23.5t-23 -35t-8.5 -42v-522q0 -45 32 -77t76 -32h261 q153 0 261 108q109 109 109 262v261z" />
<glyph unicode="w" d="M779 631q0 22 -8.5 42t-23.5 35t-35 23.5t-42 8.5q-23 0 -42.5 -8.5t-34 -23.5t-23 -35t-8.5 -42v-261q0 -65 -45 -108q-46 -44 -108 -44t-108 44q-44 46 -44 108v261q0 22 -8.5 42t-23.5 35t-35 23.5t-42 8.5q-23 0 -42.5 -8.5t-34 -23.5t-23 -35t-8.5 -42v-261 q0 -154 108 -262t261 -108t261 108q109 109 109 262v261zM301 370q0 -45 32 -77t76 -32q22 0 42 8.5t35 23.5t23.5 34.5t8.5 42.5v261q0 22 -8.5 42t-23.5 35t-35 23.5t-42 8.5q-23 0 -42.5 -8.5t-34 -23.5t-23 -35t-8.5 -42v-261z" />
<glyph unicode="x" d="M779 109q0 22 -8.5 42t-23.5 35t-35 23.5t-42 8.5q-62 0 -108 44q-44 46 -44 108q0 63 44 107q45 45 108 45q22 0 42 8.5t35 23.5t23.5 34.5t8.5 42.5q0 22 -8.5 42t-23.5 35t-35 23.5t-42 8.5q-76 0 -142.5 -28.5t-118.5 -79.5q-54 52 -120 80t-141 28q-23 0 -42.5 -8.5 t-34 -23.5t-23 -35t-8.5 -42q0 -45 32 -77t76 -32q63 0 108 -45t45 -107q0 -65 -45 -108q-46 -44 -108 -44q-23 0 -42.5 -8.5t-34 -23.5t-23 -35t-8.5 -42q0 -45 32 -77t76 -32q76 0 142.5 28.5t118.5 79.5q54 -52 120 -80t141 -28q22 0 42 8.5t35 23.5t23.5 34.5t8.5 42.5z " />
<glyph unicode="y" d="M779 631q0 22 -8.5 42t-23.5 35t-35 23.5t-42 8.5q-23 0 -42.5 -8.5t-34 -23.5t-23 -35t-8.5 -42v-261q0 -65 -45 -108q-46 -44 -108 -44h-261q-23 0 -42.5 -8.5t-34 -23.5t-23 -35t-8.5 -42q0 -45 32 -77t76 -32h261q153 0 261 108q109 109 109 262v261zM40 631 q0 -154 108 -262t261 -108q22 0 42 8.5t35 23.5t23.5 34.5t8.5 42.5q0 22 -8.5 42t-23.5 35t-35 23.5t-42 8.5q-62 0 -108 44q-44 46 -44 108q0 22 -8.5 42t-23.5 35t-35 23.5t-42 8.5q-23 0 -42.5 -8.5t-34 -23.5t-23 -35t-8.5 -42z" />
<glyph unicode="z" d="M257 109q0 63 44 107q45 45 108 45q153 0 261 108q109 109 109 262q0 22 -8.5 42t-23.5 35t-35 23.5t-42 8.5q-23 0 -42.5 -8.5t-34 -23.5t-23 -35t-8.5 -42q0 -65 -45 -108q-46 -44 -108 -44q-152 0 -261 -109q-108 -108 -108 -261q0 -45 32 -77t76 -32q23 0 43 8.5 t34.5 23t23 34.5t8.5 43zM40 631q0 -45 32 -77t76 -32h261q22 0 42 8.5t35 23.5t23.5 34.5t8.5 42.5q0 22 -8.5 42t-23.5 35t-35 23.5t-42 8.5h-261q-23 0 -42.5 -8.5t-34 -23.5t-23 -35t-8.5 -42zM779 109q0 22 -8.5 42t-23.5 35t-35 23.5t-42 8.5h-261q-23 0 -42.5 -8.5 t-34 -23.5t-23 -35t-8.5 -42q0 -45 32 -77t76 -32h261q22 0 42 8.5t35 23.5t23.5 34.5t8.5 42.5z" />
<glyph unicode="{" horiz-adv-x="689" d="M649 109q0 22 -8.5 42t-23.5 35t-35 23.5t-42 8.5q-62 0 -108 44q-44 46 -44 108q0 63 44 107q45 45 108 45q22 0 42 8.5t35 23.5t23.5 34.5t8.5 42.5q0 22 -8.5 42t-23.5 35t-35 23.5t-42 8.5q-126 0 -223 -75q-98 -75 -132 -193q-22 7 -36 7q-23 0 -42.5 -8.5 t-34.5 -23.5t-23.5 -35t-8.5 -42q0 -23 8.5 -42.5t23.5 -34.5t34.5 -23.5t42.5 -8.5q18 0 36 7q34 -118 132 -193q97 -75 223 -75q22 0 42 8.5t35 23.5t23.5 34.5t8.5 42.5z" />
<glyph unicode="|" horiz-adv-x="297" d="M257 761q0 22 -8.5 42t-23.5 35t-35 23.5t-42 8.5q-23 0 -42.5 -8.5t-34 -23.5t-23 -35t-8.5 -42v-782q0 -45 32 -77t76 -32q22 0 42 8.5t35 23.5t23.5 34.5t8.5 42.5v782z" />
<glyph unicode="}" horiz-adv-x="689" d="M649 370q0 22 -8.5 42t-23.5 35t-35 23.5t-42 8.5q-18 0 -36 -7q-34 118 -132 193t-223 75q-23 0 -42.5 -8.5t-34.5 -23.5t-23.5 -35t-8.5 -42q0 -23 8.5 -42.5t23.5 -34.5t34.5 -23.5t42.5 -8.5q63 0 107 -45q45 -44 45 -107t-45 -108q-44 -44 -107 -44 q-23 0 -42.5 -8.5t-34.5 -23.5t-23.5 -35t-8.5 -42q0 -23 8.5 -42.5t23.5 -34.5t34.5 -23.5t42.5 -8.5q125 0 223 75t132 193q22 -7 36 -7q22 0 42 8.5t35 23.5t23.5 34.5t8.5 42.5z" />
<glyph unicode="~" d="M779 500q0 22 -8.5 42t-23.5 35t-35 23.5t-42 8.5q-23 0 -42.5 -8.5t-34 -23.5t-23 -35t-8.5 -42q0 -62 -44 -106v106q0 22 -8.5 42t-23.5 35t-35 23.5t-42 8.5q-153 0 -261 -108t-108 -261q0 -45 32 -77t76 -32q23 0 43 8.5t34.5 23t23 34.5t8.5 43q0 30 11.5 57.5 t32.5 48.5v-106q0 -45 32 -77t76 -32q154 0 262 108t108 261z" />
<glyph unicode="&#xad;" horiz-adv-x="558" d="M518 370q0 22 -8.5 42t-23.5 35t-35 23.5t-42 8.5h-261q-23 0 -42.5 -8.5t-34 -23.5t-23 -35t-8.5 -42q0 -45 32 -77t76 -32h261q22 0 42 8.5t35 23.5t23.5 34.5t8.5 42.5z" />
<glyph unicode="&#xc0;" d="M779 370q0 153 -109 261q-108 109 -261 109q-152 0 -261 -109q-108 -108 -108 -261v-261q0 -45 32 -77t76 -32q23 0 43 8.5t34.5 23t23 34.5t8.5 43v261q0 63 44 107q45 45 108 45t108 -45t45 -107v-261q0 -45 32 -77t76 -32q22 0 42 8.5t35 23.5t23.5 34.5t8.5 42.5v261 zM518 240q0 23 -8.5 42.5t-23.5 34t-35 23t-42 8.5q-23 0 -42.5 -8.5t-34 -23t-23 -34.5t-8.5 -42q0 -45 32 -77t76 -32q22 0 42 8.5t35 23.5t23.5 34.5t8.5 42.5z" />
<glyph unicode="&#xc1;" d="M779 370q0 153 -109 261q-108 109 -261 109h-261q-23 0 -42.5 -8.5t-34 -23.5t-23 -35t-8.5 -42q0 -45 32 -77t76 -32h261q63 0 108 -45t45 -107q0 -65 -45 -108q-46 -44 -108 -44h-106q43 43 106 43q22 0 42 8.5t35 23.5t23.5 34.5t8.5 42.5q0 22 -8.5 42t-23.5 35 t-35 23.5t-42 8.5q-152 0 -261 -109q-108 -108 -108 -261q0 -45 32 -77t76 -32h261q153 0 261 108q109 109 109 262z" />
<glyph unicode="&#xc2;" d="M779 370q0 153 -109 261q-108 109 -261 109h-261q-23 0 -42.5 -8.5t-34 -23.5t-23 -35t-8.5 -42q0 -45 32 -77t76 -32h261q63 0 108 -45t45 -107q0 -65 -45 -108q-46 -44 -108 -44q-63 0 -106 43h106q22 0 42 8.5t35 23.5t23.5 34.5t8.5 42.5q0 22 -8.5 42t-23.5 35 t-35 23.5t-42 8.5h-261q-23 0 -42.5 -8.5t-34 -23.5t-23 -35t-8.5 -42q0 -154 108 -262t261 -108t261 108q109 109 109 262z" />
<glyph unicode="&#xc3;" d="M779 109q0 22 -8.5 42t-23.5 35t-35 23.5t-42 8.5h-261q-62 0 -108 44q-44 46 -44 108q0 63 44 107q45 45 108 45t108 -45t45 -107q0 -45 32 -77t76 -32q22 0 42 8.5t35 23.5t23.5 34.5t8.5 42.5q0 153 -109 261q-108 109 -261 109q-152 0 -261 -109q-108 -108 -108 -261 q0 -154 108 -262t261 -108h261q22 0 42 8.5t35 23.5t23.5 34.5t8.5 42.5z" />
<glyph unicode="&#xc4;" d="M671 370q51 51 79.5 118.5t28.5 142.5q0 22 -8.5 42t-23.5 35t-35 23.5t-42 8.5h-261q-152 0 -261 -109q-108 -108 -108 -261v-261q0 -45 32 -77t76 -32q23 0 43 8.5t34.5 23t23 34.5t8.5 43v261q0 63 44 107q45 45 108 45h107q-44 -43 -107 -43q-23 0 -42.5 -8.5 t-34 -23.5t-23 -35t-8.5 -42q0 -45 32 -77t76 -32q33 0 59 -11t48 -32h-107q-23 0 -42.5 -8.5t-34 -23.5t-23 -35t-8.5 -42q0 -45 32 -77t76 -32h261q22 0 42 8.5t35 23.5t23.5 34.5t8.5 42.5q0 75 -28.5 142.5t-79.5 118.5z" />
<glyph unicode="&#xc5;" d="M735 283q20 15 32 38t12 49q0 153 -109 261q-108 109 -261 109q-152 0 -261 -109q-108 -108 -108 -261v-261q0 -45 32 -77t76 -32q23 0 43 8.5t34.5 23t23 34.5t8.5 43v261q0 63 44 107q45 45 108 45q39 0 71.5 -17.5t53.5 -48.5q-61 23 -125 23q-23 0 -42.5 -8.5 t-34 -23.5t-23 -35t-8.5 -42q0 -45 32 -77t76 -32q33 0 59 -11t48 -32h-107q-23 0 -42.5 -8.5t-34 -23.5t-23 -35t-8.5 -42q0 -45 32 -77t76 -32h261q22 0 42 8.5t35 23.5t23.5 34.5t8.5 42.5q0 91 -44 174z" />
<glyph unicode="&#xc6;" horiz-adv-x="1341" d="M518 370q0 22 -8.5 42t-23.5 35t-35 23.5t-42 8.5q-23 0 -42.5 -8.5t-34 -23.5t-23 -35t-8.5 -42q0 -45 32 -77t76 -32q22 0 42 8.5t35 23.5t23.5 34.5t8.5 42.5zM1301 109q0 22 -8.5 42t-23.5 35t-35 23.5t-42 8.5h-261q-62 0 -108 44q-44 46 -44 108q0 63 44 107 q45 45 108 45h261q22 0 42 8.5t35 23.5t23.5 34.5t8.5 42.5q0 22 -8.5 42t-23.5 35t-35 23.5t-42 8.5h-261q-76 0 -142.5 -28.5t-118.5 -79.5q-54 52 -120 80t-141 28q-152 0 -261 -109q-108 -108 -108 -261v-261q0 -23 8.5 -42.5t23.5 -34.5t34.5 -23.5t42.5 -8.5t42.5 8.5 t34 23.5t23 34.5t8.5 42.5v261q0 63 44 107q45 45 108 45t108 -45t45 -107q0 -154 108 -262t261 -108h261q22 0 42 8.5t35 23.5t23.5 34.5t8.5 42.5zM1301 370q0 22 -8.5 42t-23.5 35t-35 23.5t-42 8.5h-261q-23 0 -42.5 -8.5t-34.5 -23.5t-23.5 -35t-8.5 -42 q0 -23 8.5 -42.5t23.5 -34.5t34.5 -23.5t42.5 -8.5h261q22 0 42 8.5t35 23.5t23.5 34.5t8.5 42.5z" />
<glyph unicode="&#xc7;" d="M779 370q0 153 -109 261q-108 109 -261 109h-261q-23 0 -42.5 -8.5t-34 -23.5t-23 -35t-8.5 -42v-522q0 -45 32 -77t76 -32q23 0 43 8.5t34.5 23t23 34.5t8.5 43v413h152q63 0 108 -45t45 -107q0 -65 -45 -108q-46 -44 -108 -44q-23 0 -42.5 -8.5t-34 -23.5t-23 -35 t-8.5 -42q0 -45 32 -77t76 -32q153 0 261 108q109 109 109 262z" />
<glyph unicode="&#xc8;" d="M779 370q0 153 -109 261q-108 109 -261 109h-261q-23 0 -42.5 -8.5t-34 -23.5t-23 -35t-8.5 -42v-261q0 -45 32 -77t76 -32q23 0 43 8.5t34.5 23t23 34.5t8.5 43v152h152q63 0 108 -45t45 -107q0 -65 -45 -108q-46 -44 -108 -44h-261q-23 0 -42.5 -8.5t-34 -23.5t-23 -35 t-8.5 -42q0 -45 32 -77t76 -32h261q153 0 261 108q109 109 109 262z" />
<glyph unicode="&#xc9;" horiz-adv-x="784" d="M729 185q15 25 15 55q0 22 -8.5 41.5t-23.5 34.5t-34.5 24t-41.5 9q-64 0 -95 -55q-21 -36 -55 -56t-76 -20q-63 0 -108 45t-45 107q0 64 45 108q46 44 108 44q88 0 131 -76q15 -26 40.5 -40.5t54.5 -14.5q28 0 54 15q54 31 54 93q0 30 -15 56q-25 43 -59.5 77.5 t-75.5 58.5t-87.5 36.5t-96.5 12.5q-153 0 -262 -109q-108 -108 -108 -261t108 -262q109 -108 262 -108q98 0 184 50q85 49 135 135zM518 370q0 45 -32 77t-76 32q-23 0 -42.5 -8.5t-34.5 -23.5t-23.5 -35t-8.5 -42q0 -23 8.5 -42.5t23.5 -34.5t34.5 -23.5t42.5 -8.5 t42.5 8.5t34 23.5t23 34.5t8.5 42.5z" />
<glyph unicode="&#xca;" d="M779 109q0 22 -8.5 42t-23.5 35t-35 23.5t-42 8.5h-261q-62 0 -108 44q-44 46 -44 108q0 63 44 107q45 45 108 45q33 0 59 -11t48 -32h-107q-23 0 -42.5 -8.5t-34 -23.5t-23 -35t-8.5 -42q0 -45 32 -77t76 -32h261q22 0 42 8.5t35 23.5t23.5 34.5t8.5 42.5 q0 153 -109 261q-108 109 -261 109q-152 0 -261 -109q-108 -108 -108 -261q0 -154 108 -262t261 -108h261q22 0 42 8.5t35 23.5t23.5 34.5t8.5 42.5z" />
<glyph unicode="&#xcb;" d="M779 109q0 22 -8.5 42t-23.5 35t-35 23.5t-42 8.5h-261q-62 0 -108 44q-44 46 -44 108q0 63 44 107q45 45 108 45h107q-44 -43 -107 -43q-23 0 -42.5 -8.5t-34 -23.5t-23 -35t-8.5 -42q0 -45 32 -77t76 -32q153 0 261 108q109 109 109 262q0 22 -8.5 42t-23.5 35 t-35 23.5t-42 8.5h-261q-152 0 -261 -109q-108 -108 -108 -261q0 -154 108 -262t261 -108h261q22 0 42 8.5t35 23.5t23.5 34.5t8.5 42.5z" />
<glyph unicode="&#xcc;" d="M779 370q0 153 -109 261q-108 109 -261 109q-152 0 -261 -109q-108 -108 -108 -261v-261q0 -45 32 -77t76 -32q23 0 43 8.5t34.5 23t23 34.5t8.5 43v261q0 63 44 107q45 45 108 45t108 -45t45 -107q0 -45 32 -77t76 -32q22 0 42 8.5t35 23.5t23.5 34.5t8.5 42.5zM518 370 q0 22 -8.5 42t-23.5 35t-35 23.5t-42 8.5q-23 0 -42.5 -8.5t-34 -23.5t-23 -35t-8.5 -42q0 -45 32 -77t76 -32q22 0 42 8.5t35 23.5t23.5 34.5t8.5 42.5z" />
<glyph unicode="&#xcd;" d="M779 370q0 22 -8.5 42t-23.5 35t-35 23.5t-42 8.5h-261q-23 0 -42.5 -8.5t-34 -23.5t-23 -35t-8.5 -42q0 -45 32 -77t76 -32h107q-44 -43 -107 -43q-62 0 -108 44q-44 46 -44 108q0 63 44 107q45 45 108 45h261q22 0 42 8.5t35 23.5t23.5 34.5t8.5 42.5q0 22 -8.5 42 t-23.5 35t-35 23.5t-42 8.5h-261q-152 0 -261 -109q-108 -108 -108 -261q0 -154 108 -262t261 -108t261 108q109 109 109 262z" />
<glyph unicode="&#xce;" d="M779 109q0 153 -109 261q-108 109 -261 109q-23 0 -42.5 -8.5t-34 -23.5t-23 -35t-8.5 -42q0 -45 32 -77t76 -32q33 0 59 -11t48 -32h-107q-62 0 -108 44q-44 46 -44 108q0 63 44 107q45 45 108 45h261q22 0 42 8.5t35 23.5t23.5 34.5t8.5 42.5q0 22 -8.5 42t-23.5 35 t-35 23.5t-42 8.5h-261q-152 0 -261 -109q-108 -108 -108 -261q0 -154 108 -262t261 -108h261q22 0 42 8.5t35 23.5t23.5 34.5t8.5 42.5z" />
<glyph unicode="&#xcf;" d="M779 370q0 153 -109 261q-108 109 -261 109q-152 0 -261 -109q-108 -108 -108 -261q0 -45 32 -77t76 -32h261q22 0 42 8.5t35 23.5t23.5 34.5t8.5 42.5q0 22 -8.5 42t-23.5 35t-35 23.5t-42 8.5h-106q43 43 106 43t108 -45t45 -107q0 -65 -45 -108q-46 -44 -108 -44h-261 q-23 0 -42.5 -8.5t-34 -23.5t-23 -35t-8.5 -42q0 -45 32 -77t76 -32h261q153 0 261 108q109 109 109 262z" />
<glyph unicode="&#xd0;" horiz-adv-x="297" d="M257 370q0 22 -8.5 42t-23.5 35t-35 23.5t-42 8.5q-23 0 -42.5 -8.5t-34 -23.5t-23 -35t-8.5 -42v-261q0 -45 32 -77t76 -32q22 0 42 8.5t35 23.5t23.5 34.5t8.5 42.5v261zM40 631q0 -45 32 -77t76 -32q22 0 42 8.5t35 23.5t23.5 34.5t8.5 42.5q0 22 -8.5 42t-23.5 35 t-35 23.5t-42 8.5q-23 0 -42.5 -8.5t-34 -23.5t-23 -35t-8.5 -42z" />
<glyph unicode="&#xd1;" horiz-adv-x="297" d="M257 370q0 22 -8.5 42t-23.5 35t-35 23.5t-42 8.5q-23 0 -42.5 -8.5t-34 -23.5t-23 -35t-8.5 -42v-391q0 -45 32 -77t76 -32q22 0 42 8.5t35 23.5t23.5 34.5t8.5 42.5v391zM40 631q0 -45 32 -77t76 -32q22 0 42 8.5t35 23.5t23.5 34.5t8.5 42.5q0 22 -8.5 42t-23.5 35 t-35 23.5t-42 8.5q-23 0 -42.5 -8.5t-34 -23.5t-23 -35t-8.5 -42z" />
<glyph unicode="&#xd2;" horiz-adv-x="558" d="M518 370q0 22 -8.5 42t-23.5 35t-35 23.5t-42 8.5q-23 0 -42.5 -8.5t-34 -23.5t-23 -35t-8.5 -42q0 -65 -45 -108q-46 -44 -108 -44q-23 0 -42.5 -8.5t-34 -23.5t-23 -35t-8.5 -42q0 -45 32 -77t76 -32q153 0 261 108q109 109 109 262zM301 631q0 -45 32 -77t76 -32 q22 0 42 8.5t35 23.5t23.5 34.5t8.5 42.5q0 22 -8.5 42t-23.5 35t-35 23.5t-42 8.5q-23 0 -42.5 -8.5t-34 -23.5t-23 -35t-8.5 -42z" />
<glyph unicode="&#xd3;" d="M257 631q0 22 -8.5 42t-23.5 35t-35 23.5t-42 8.5q-23 0 -42.5 -8.5t-34 -23.5t-23 -35t-8.5 -42v-522q0 -45 32 -77t76 -32q23 0 43 8.5t34.5 23t23 34.5t8.5 43v522zM747 186l-184 184l184 184q32 32 32 77q0 22 -8.5 42t-23 34.5t-34.5 23t-43 8.5q-46 0 -77 -31 l-261 -261q-31 -31 -31 -77t31 -77l261 -261q35 -32 77 -32q22 0 42 8.5t35 23t23.5 34.5t8.5 43q0 45 -32 77z" />
<glyph unicode="&#xd4;" d="M257 631q0 22 -8.5 42t-23.5 35t-35 23.5t-42 8.5q-23 0 -42.5 -8.5t-34 -23.5t-23 -35t-8.5 -42v-522q0 -45 32 -77t76 -32q23 0 43 8.5t34.5 23t23 34.5t8.5 43v522zM779 109q0 22 -8.5 42t-23.5 35t-35 23.5t-42 8.5q-62 0 -108 44q-44 46 -44 108q0 63 44 107 q45 45 108 45q22 0 42 8.5t35 23.5t23.5 34.5t8.5 42.5q0 22 -8.5 42t-23.5 35t-35 23.5t-42 8.5q-153 0 -261 -109q-108 -110 -108 -261q0 -154 108 -262t261 -108q22 0 42 8.5t35 23.5t23.5 34.5t8.5 42.5z" />
<glyph unicode="&#xd5;" d="M257 631q0 22 -8.5 42t-23.5 35t-35 23.5t-42 8.5q-23 0 -42.5 -8.5t-34 -23.5t-23 -35t-8.5 -42v-522q0 -45 32 -77t76 -32q23 0 43 8.5t34.5 23t23 34.5t8.5 43v522zM671 370q51 51 79.5 118.5t28.5 142.5q0 22 -8.5 42t-23.5 35t-35 23.5t-42 8.5q-23 0 -42.5 -8.5 t-34 -23.5t-23 -35t-8.5 -42q0 -65 -45 -108q-46 -44 -108 -44q-23 0 -42.5 -8.5t-34 -23.5t-23 -35t-8.5 -42q0 -45 32 -77t76 -32q63 0 108 -45t45 -107q0 -45 32 -77t76 -32q22 0 42 8.5t35 23.5t23.5 34.5t8.5 42.5q0 75 -28.5 142.5t-79.5 118.5z" />
<glyph unicode="&#xd6;" d="M779 631q0 22 -8.5 42t-23.5 35t-35 23.5t-42 8.5q-23 0 -42.5 -8.5t-34 -23.5t-23 -35t-8.5 -42v-259l-337 336q-31 31 -76 31q-24 0 -42 -8q-31 -13 -49 -40t-18 -60v-522q0 -45 32 -77t76 -32q23 0 43 8.5t34.5 23t23 34.5t8.5 43v259l336 -336q31 -31 77 -31 q21 0 42 8q31 13 49 40t18 60v522z" />
<glyph unicode="&#xd7;" d="M511 15q117 33 192 131q76 98 76 224q0 153 -109 261q-108 109 -261 109q-152 0 -261 -109q-108 -108 -108 -261q0 -125 75 -224q77 -98 192 -131q-6 -17 -6 -36q0 -45 32 -77t76 -32q22 0 42 8.5t35 23.5t23.5 34.5t8.5 42.5q0 18 -7 36zM562 370q0 -65 -45 -108 q-46 -44 -108 -44t-108 44q-44 46 -44 108q0 63 44 107q45 45 108 45t108 -45t45 -107z" />
<glyph unicode="&#xd8;" d="M779 109q0 22 -8.5 42t-23.5 35t-35 23.5t-42 8.5q-40 0 -73 18.5t-54 50.5q106 40 171 134q65 95 65 210q0 22 -8.5 42t-23.5 35t-35 23.5t-42 8.5h-261q-152 0 -261 -109q-108 -108 -108 -261v-261q0 -45 32 -77t76 -32q23 0 43 8.5t34.5 23t23 34.5t8.5 43v261 q0 63 44 107q45 45 108 45h107q-44 -43 -107 -43q-23 0 -42.5 -8.5t-34 -23.5t-23 -35t-8.5 -42q0 -154 108 -262t261 -108q22 0 42 8.5t35 23.5t23.5 34.5t8.5 42.5z" />
<glyph unicode="&#xd9;" d="M735 283q20 15 32 38t12 49q0 153 -109 261q-108 109 -261 109q-152 0 -261 -109q-108 -108 -108 -261v-261q0 -45 32 -77t76 -32q23 0 43 8.5t34.5 23t23 34.5t8.5 43v261q0 63 44 107q45 45 108 45q39 0 71.5 -17.5t53.5 -48.5q-61 23 -125 23q-23 0 -42.5 -8.5 t-34 -23.5t-23 -35t-8.5 -42q0 -45 32 -77t76 -32q63 0 108 -45t45 -107q0 -45 32 -77t76 -32q22 0 42 8.5t35 23.5t23.5 34.5t8.5 42.5q0 91 -44 174z" />
<glyph unicode="&#xda;" d="M779 370q0 153 -109 261q-108 109 -261 109q-152 0 -261 -109q-108 -108 -108 -261v-261q0 -45 32 -77t76 -32q23 0 43 8.5t34.5 23t23 34.5t8.5 43v261q0 63 44 107q45 45 108 45t108 -45t45 -107q0 -45 32 -77t76 -32q22 0 42 8.5t35 23.5t23.5 34.5t8.5 42.5z" />
<glyph unicode="&#xdb;" d="M779 370q0 22 -8.5 42t-23.5 35t-35 23.5t-42 8.5h-367q43 43 106 43h261q22 0 42 8.5t35 23.5t23.5 34.5t8.5 42.5q0 22 -8.5 42t-23.5 35t-35 23.5t-42 8.5h-261q-152 0 -261 -109q-108 -108 -108 -261q0 -45 32 -77t76 -32h368q-44 -43 -107 -43h-261 q-23 0 -42.5 -8.5t-34 -23.5t-23 -35t-8.5 -42q0 -45 32 -77t76 -32h261q153 0 261 108q109 109 109 262z" />
<glyph unicode="&#xdc;" horiz-adv-x="558" d="M518 109q0 22 -8.5 42t-23.5 35t-35 23.5t-42 8.5q-62 0 -108 44q-44 46 -44 108v261q0 22 -8.5 42t-23.5 35t-35 23.5t-42 8.5q-23 0 -42.5 -8.5t-34 -23.5t-23 -35t-8.5 -42v-261q0 -154 108 -262t261 -108q22 0 42 8.5t35 23.5t23.5 34.5t8.5 42.5zM301 500 q0 -23 8.5 -42.5t23 -34t34 -23t42.5 -8.5q45 0 77 32t32 76q0 22 -8.5 42t-23.5 35t-35 23.5t-42 8.5q-23 0 -42.5 -8.5t-34 -23.5t-23 -35t-8.5 -42z" />
<glyph unicode="&#xdd;" d="M779 370q0 22 -8.5 42t-23.5 35t-35 23.5t-42 8.5q-23 0 -42.5 -8.5t-34 -23.5t-23 -35t-8.5 -42q0 -65 -45 -108q-46 -44 -108 -44t-108 44q-44 46 -44 108v391q0 22 -8.5 42t-23.5 35t-35 23.5t-42 8.5q-23 0 -42.5 -8.5t-34 -23.5t-23 -35t-8.5 -42v-391 q0 -154 108 -262t261 -108t261 108q109 109 109 262zM301 631q0 -45 32 -77t76 -32q22 0 42 8.5t35 23.5t23.5 34.5t8.5 42.5q0 22 -8.5 42t-23.5 35t-35 23.5t-42 8.5q-23 0 -42.5 -8.5t-34 -23.5t-23 -35t-8.5 -42z" />
<glyph unicode="&#xde;" d="M779 370q0 22 -8.5 42t-23.5 35t-35 23.5t-42 8.5q-23 0 -42.5 -8.5t-34 -23.5t-23 -35t-8.5 -42q0 -65 -45 -108q-46 -44 -108 -44t-108 44q-44 46 -44 108v261q0 22 -8.5 42t-23.5 35t-35 23.5t-42 8.5q-23 0 -42.5 -8.5t-34 -23.5t-23 -35t-8.5 -42v-261 q0 -154 108 -262t261 -108t261 108q109 109 109 262zM301 500q0 -23 8.5 -42.5t23 -34t34 -23t42.5 -8.5q45 0 77 32t32 76q0 22 -8.5 42t-23.5 35t-35 23.5t-42 8.5q-23 0 -42.5 -8.5t-34 -23.5t-23 -35t-8.5 -42z" />
<glyph unicode="&#xdf;" horiz-adv-x="821" d="M769 582q12 24 12 49q0 67 -60 97q-24 12 -48 12q-31 0 -57.5 -16t-40.5 -45l-164 -327l-163 327q-14 28 -40.5 44.5t-56.5 16.5q-18 1 -38 -7t-36 -23t-26.5 -35.5t-9.5 -43.5q0 -25 12 -49l261 -521q31 -61 97 -61q67 0 98 61z" />
<glyph unicode="&#xe0;" d="M747 186l-184 184l184 184q32 32 32 77q0 22 -8.5 42t-23 34.5t-34.5 23t-43 8.5q-46 0 -77 -31l-184 -184l-184 184q-31 31 -76 31q-23 0 -43 -9t-34.5 -24t-23 -34.5t-8.5 -40.5q0 -45 32 -77l184 -184l-184 -184q-32 -32 -32 -77q0 -23 8.5 -42.5t23.5 -34.5 t34.5 -23.5t42.5 -8.5q44 0 76 32l184 184l184 -184q35 -32 77 -32q22 0 42 8.5t35 23t23.5 34.5t8.5 43q0 45 -32 77z" />
<glyph unicode="&#xe1;" d="M779 109q0 153 -109 261q-108 109 -261 109q-62 0 -108 44q-44 46 -44 108q0 22 -8.5 42t-23.5 35t-35 23.5t-42 8.5q-23 0 -42.5 -8.5t-34 -23.5t-23 -35t-8.5 -42q0 -154 108 -262t261 -108q63 0 108 -45t45 -107q0 -45 32 -77t76 -32q22 0 42 8.5t35 23.5t23.5 34.5 t8.5 42.5zM562 631q0 -45 32 -77t76 -32q22 0 42 8.5t35 23.5t23.5 34.5t8.5 42.5q0 22 -8.5 42t-23.5 35t-35 23.5t-42 8.5q-23 0 -42.5 -8.5t-34 -23.5t-23 -35t-8.5 -42zM257 109q0 22 -8.5 42t-23.5 35t-35 23.5t-42 8.5q-23 0 -42.5 -8.5t-34 -23.5t-23 -35t-8.5 -42 q0 -45 32 -77t76 -32q23 0 43 8.5t34.5 23t23 34.5t8.5 43z" />
<glyph unicode="&#xe2;" d="M409 261q153 0 261 108q109 109 109 262q0 22 -8.5 42t-23.5 35t-35 23.5t-42 8.5q-23 0 -42.5 -8.5t-34 -23.5t-23 -35t-8.5 -42q0 -65 -45 -108q-46 -44 -108 -44q-152 0 -261 -109q-108 -108 -108 -261q0 -45 32 -77t76 -32q23 0 43 8.5t34.5 23t23 34.5t8.5 43 q0 63 44 107q45 45 108 45zM40 631q0 -45 32 -77t76 -32q23 0 43 8.5t34.5 23t23 34.5t8.5 43q0 22 -8.5 42t-23.5 35t-35 23.5t-42 8.5q-23 0 -42.5 -8.5t-34 -23.5t-23 -35t-8.5 -42zM779 109q0 22 -8.5 42t-23.5 35t-35 23.5t-42 8.5q-23 0 -42.5 -8.5t-34 -23.5t-23 -35 t-8.5 -42q0 -45 32 -77t76 -32q22 0 42 8.5t35 23.5t23.5 34.5t8.5 42.5z" />
<glyph unicode="&#xe3;" d="M779 631q0 22 -8.5 42t-23.5 35t-35 23.5t-42 8.5q-23 0 -42.5 -8.5t-34 -23.5t-23 -35t-8.5 -42q0 -65 -45 -108q-46 -44 -108 -44t-108 44q-44 46 -44 108q0 22 -8.5 42t-23.5 35t-35 23.5t-42 8.5q-23 0 -42.5 -8.5t-34 -23.5t-23 -35t-8.5 -42q0 -154 108 -262 t261 -108t261 108q109 109 109 262zM518 109q0 22 -8.5 42t-23.5 35t-35 23.5t-42 8.5q-23 0 -42.5 -8.5t-34 -23.5t-23 -35t-8.5 -42q0 -45 32 -77t76 -32q22 0 42 8.5t35 23.5t23.5 34.5t8.5 42.5z" />
<glyph unicode="&#xe4;" d="M518 370q0 22 -8.5 42t-23.5 35t-35 23.5t-42 8.5q-23 0 -42.5 -8.5t-34 -23.5t-23 -35t-8.5 -42q0 -45 32 -77t76 -32q22 0 42 8.5t35 23.5t23.5 34.5t8.5 42.5zM40 631q0 -45 32 -77t76 -32h261q63 0 108 -45t45 -107q0 -45 32 -77t76 -32q22 0 42 8.5t35 23.5 t23.5 34.5t8.5 42.5q0 153 -109 261q-108 109 -261 109h-261q-23 0 -42.5 -8.5t-34 -23.5t-23 -35t-8.5 -42zM779 109q0 22 -8.5 42t-23.5 35t-35 23.5t-42 8.5h-261q-62 0 -108 44q-44 46 -44 108q0 22 -8.5 42t-23.5 35t-35 23.5t-42 8.5q-23 0 -42.5 -8.5t-34 -23.5 t-23 -35t-8.5 -42q0 -154 108 -262t261 -108h261q22 0 42 8.5t35 23.5t23.5 34.5t8.5 42.5z" />
<glyph unicode="&#xe5;" d="M779 109q0 22 -8.5 42t-23.5 35t-35 23.5t-42 8.5h-261q-63 0 -106 43h367q22 0 42 8.5t35 23.5t23.5 34.5t8.5 42.5q0 153 -109 261q-108 109 -261 109h-261q-23 0 -42.5 -8.5t-34 -23.5t-23 -35t-8.5 -42q0 -45 32 -77t76 -32h261q33 0 59 -11t48 -32h-368 q-23 0 -42.5 -8.5t-34 -23.5t-23 -35t-8.5 -42q0 -154 108 -262t261 -108h261q22 0 42 8.5t35 23.5t23.5 34.5t8.5 42.5z" />
<glyph unicode="&#xe6;" horiz-adv-x="1341" d="M1301 109q0 22 -8.5 42t-23.5 35t-35 23.5t-42 8.5h-261q-62 0 -108 44q-44 46 -44 108q0 63 44 107q45 45 108 45h261q22 0 42 8.5t35 23.5t23.5 34.5t8.5 42.5q0 22 -8.5 42t-23.5 35t-35 23.5t-42 8.5h-261q-76 0 -142.5 -28.5t-118.5 -79.5q-54 52 -120 80t-141 28 q-152 0 -261 -109q-108 -108 -108 -261q0 -154 108 -262t261 -108q22 0 42 8.5t35 23.5t23.5 34.5t8.5 42.5q0 22 -8.5 42t-23.5 35t-35 23.5t-42 8.5q-62 0 -107 45t-45 107q0 63 44 107q45 45 108 45t108 -45t45 -107q0 -154 108 -262t261 -108h261q22 0 42 8.5t35 23.5 t23.5 34.5t8.5 42.5zM1301 370q0 22 -8.5 42t-23.5 35t-35 23.5t-42 8.5h-261q-23 0 -42.5 -8.5t-34.5 -23.5t-23.5 -35t-8.5 -42q0 -23 8.5 -42.5t23.5 -34.5t34.5 -23.5t42.5 -8.5h261q22 0 42 8.5t35 23.5t23.5 34.5t8.5 42.5z" />
<glyph unicode="&#xe7;" d="M779 370q0 153 -109 261q-108 109 -261 109h-261q-23 0 -42.5 -8.5t-34 -23.5t-23 -35t-8.5 -42q0 -45 32 -77t76 -32h261q63 0 108 -45t45 -107q0 -65 -45 -108q-46 -44 -108 -44h-261q-23 0 -42.5 -8.5t-34 -23.5t-23 -35t-8.5 -42q0 -45 32 -77t76 -32h261 q153 0 261 108q109 109 109 262zM409 261q22 0 42 8.5t35 23.5t23.5 34.5t8.5 42.5q0 22 -8.5 42t-23.5 35t-35 23.5t-42 8.5q-23 0 -42.5 -8.5t-34 -23.5t-23 -35t-8.5 -42q0 -45 32 -77t76 -32z" />
<glyph unicode="&#xe8;" d="M779 370q0 56 -44 87q22 42 33 84t11 90q0 22 -8.5 42t-23.5 35t-35 23.5t-42 8.5h-522q-23 0 -42.5 -8.5t-34 -23.5t-23 -35t-8.5 -42q0 -45 32 -77t76 -32h368q-44 -43 -107 -43q-23 0 -42.5 -8.5t-34 -23.5t-23 -35t-8.5 -42q0 -45 32 -77t76 -32q64 0 125 23 q-21 -31 -54 -48.5t-71 -17.5h-261q-23 0 -42.5 -8.5t-34 -23.5t-23 -35t-8.5 -42q0 -45 32 -77t76 -32h261q153 0 261 108q109 109 109 262z" />
<glyph unicode="&#xe9;" d="M518 370q0 22 -8.5 42t-23.5 35t-35 23.5t-42 8.5q-62 0 -108 44q-44 46 -44 108q0 22 -8.5 42t-23.5 35t-35 23.5t-42 8.5q-23 0 -42.5 -8.5t-34 -23.5t-23 -35t-8.5 -42q0 -154 108 -262t261 -108q22 0 42 8.5t35 23.5t23.5 34.5t8.5 42.5zM779 631q0 22 -8.5 42 t-23.5 35t-35 23.5t-42 8.5q-23 0 -42.5 -8.5t-34 -23.5t-23 -35t-8.5 -42v-522q0 -45 32 -77t76 -32q22 0 42 8.5t35 23.5t23.5 34.5t8.5 42.5v522z" />
<glyph unicode="&#xea;" d="M518 370q0 22 -8.5 42t-23.5 35t-35 23.5t-42 8.5h-152v152q0 22 -8.5 42t-23.5 35t-35 23.5t-42 8.5q-23 0 -42.5 -8.5t-34 -23.5t-23 -35t-8.5 -42v-261q0 -45 32 -77t76 -32h261q22 0 42 8.5t35 23.5t23.5 34.5t8.5 42.5zM779 631q0 22 -8.5 42t-23.5 35t-35 23.5 t-42 8.5q-23 0 -42.5 -8.5t-34 -23.5t-23 -35t-8.5 -42v-522q0 -45 32 -77t76 -32q22 0 42 8.5t35 23.5t23.5 34.5t8.5 42.5v522z" />
<glyph unicode="&#xeb;" d="M779 370q0 22 -8.5 42t-23.5 35t-35 23.5t-42 8.5h-261q-62 0 -108 44q-44 46 -44 108q0 22 -8.5 42t-23.5 35t-35 23.5t-42 8.5q-23 0 -42.5 -8.5t-34 -23.5t-23 -35t-8.5 -42q0 -154 108 -262t261 -108h107q-44 -43 -107 -43h-261q-23 0 -42.5 -8.5t-34 -23.5t-23 -35 t-8.5 -42q0 -45 32 -77t76 -32h261q153 0 261 108q109 109 109 262zM301 631q0 -45 32 -77t76 -32h261q22 0 42 8.5t35 23.5t23.5 34.5t8.5 42.5q0 22 -8.5 42t-23.5 35t-35 23.5t-42 8.5h-261q-23 0 -42.5 -8.5t-34 -23.5t-23 -35t-8.5 -42z" />
<glyph unicode="&#xec;" d="M779 109q0 153 -109 261q-108 109 -261 109h-106q43 43 106 43h261q22 0 42 8.5t35 23.5t23.5 34.5t8.5 42.5q0 22 -8.5 42t-23.5 35t-35 23.5t-42 8.5h-261q-152 0 -261 -109q-108 -108 -108 -261q0 -154 108 -262t261 -108h261q22 0 42 8.5t35 23.5t23.5 34.5t8.5 42.5 zM409 218q-63 0 -106 43h106q33 0 59 -11t48 -32h-107z" />
<glyph unicode="&#xed;" d="M779 370q0 153 -109 261q-108 109 -261 109h-261q-23 0 -42.5 -8.5t-34 -23.5t-23 -35t-8.5 -42q0 -45 32 -77t76 -32h261q63 0 108 -45t45 -107v-261q0 -45 32 -77t76 -32q22 0 42 8.5t35 23.5t23.5 34.5t8.5 42.5v261z" />
<glyph unicode="&#xee;" d="M779 370q0 153 -109 261q-108 109 -261 109q-152 0 -261 -109q-108 -108 -108 -261q0 -45 32 -77t76 -32q23 0 43 8.5t34.5 23t23 34.5t8.5 43q0 63 44 107q45 45 108 45q33 0 59 -11t48 -32h-107q-23 0 -42.5 -8.5t-34 -23.5t-23 -35t-8.5 -42q0 -45 32 -77t76 -32h261 q22 0 42 8.5t35 23.5t23.5 34.5t8.5 42.5zM518 109q0 22 -8.5 42t-23.5 35t-35 23.5t-42 8.5q-23 0 -42.5 -8.5t-34 -23.5t-23 -35t-8.5 -42q0 -45 32 -77t76 -32q22 0 42 8.5t35 23.5t23.5 34.5t8.5 42.5z" />
<glyph unicode="&#xef;" d="M779 109q0 22 -8.5 42t-23.5 35t-35 23.5t-42 8.5q-62 0 -108 44q-44 46 -44 108q0 63 44 107q45 45 108 45q22 0 42 8.5t35 23.5t23.5 34.5t8.5 42.5q0 22 -8.5 42t-23.5 35t-35 23.5t-42 8.5q-76 0 -142.5 -28.5t-118.5 -79.5q-54 52 -120 80t-141 28q-23 0 -42.5 -8.5 t-34 -23.5t-23 -35t-8.5 -42q0 -45 32 -77t76 -32q63 0 108 -45t45 -107q0 -65 -45 -108q-46 -44 -108 -44q-23 0 -42.5 -8.5t-34 -23.5t-23 -35t-8.5 -42q0 -45 32 -77t76 -32q76 0 142.5 28.5t118.5 79.5q54 -52 120 -80t141 -28q22 0 42 8.5t35 23.5t23.5 34.5t8.5 42.5z M40 370q0 -45 32 -77t76 -32q23 0 43 8.5t34.5 23t23 34.5t8.5 43q0 22 -8.5 42t-23.5 35t-35 23.5t-42 8.5q-23 0 -42.5 -8.5t-34 -23.5t-23 -35t-8.5 -42zM779 370q0 22 -8.5 42t-23.5 35t-35 23.5t-42 8.5q-23 0 -42.5 -8.5t-34 -23.5t-23 -35t-8.5 -42q0 -45 32 -77 t76 -32q22 0 42 8.5t35 23.5t23.5 34.5t8.5 42.5z" />
<glyph unicode="&#xf0;" horiz-adv-x="297" d="M257 370q0 22 -8.5 42t-23.5 35t-35 23.5t-42 8.5q-23 0 -42.5 -8.5t-34 -23.5t-23 -35t-8.5 -42q0 -45 32 -77t76 -32q22 0 42 8.5t35 23.5t23.5 34.5t8.5 42.5z" />
<glyph unicode="&#x2000;" horiz-adv-x="435" />
<glyph unicode="&#x2001;" horiz-adv-x="870" />
<glyph unicode="&#x2002;" horiz-adv-x="435" />
<glyph unicode="&#x2003;" horiz-adv-x="870" />
<glyph unicode="&#x2004;" horiz-adv-x="290" />
<glyph unicode="&#x2005;" horiz-adv-x="217" />
<glyph unicode="&#x2006;" horiz-adv-x="145" />
<glyph unicode="&#x2007;" horiz-adv-x="145" />
<glyph unicode="&#x2008;" horiz-adv-x="108" />
<glyph unicode="&#x2009;" horiz-adv-x="174" />
<glyph unicode="&#x200a;" horiz-adv-x="48" />
<glyph unicode="&#x2010;" horiz-adv-x="558" d="M518 370q0 22 -8.5 42t-23.5 35t-35 23.5t-42 8.5h-261q-23 0 -42.5 -8.5t-34 -23.5t-23 -35t-8.5 -42q0 -45 32 -77t76 -32h261q22 0 42 8.5t35 23.5t23.5 34.5t8.5 42.5z" />
<glyph unicode="&#x2011;" horiz-adv-x="558" d="M518 370q0 22 -8.5 42t-23.5 35t-35 23.5t-42 8.5h-261q-23 0 -42.5 -8.5t-34 -23.5t-23 -35t-8.5 -42q0 -45 32 -77t76 -32h261q22 0 42 8.5t35 23.5t23.5 34.5t8.5 42.5z" />
<glyph unicode="&#x2012;" horiz-adv-x="558" d="M518 370q0 22 -8.5 42t-23.5 35t-35 23.5t-42 8.5h-261q-23 0 -42.5 -8.5t-34 -23.5t-23 -35t-8.5 -42q0 -45 32 -77t76 -32h261q22 0 42 8.5t35 23.5t23.5 34.5t8.5 42.5z" />
<glyph unicode="&#x2013;" horiz-adv-x="580" d="M540 370q0 22 -9 42t-24.5 35t-36.5 23.5t-44 8.5h-273q-24 0 -44.5 -8.5t-35.5 -23.5t-24 -35t-9 -42q0 -45 33.5 -77t79.5 -32h273q23 0 44 8.5t36.5 23.5t24.5 34.5t9 42.5z" />
<glyph unicode="&#x2014;" horiz-adv-x="1080" d="M1040 370q0 22 -18 42t-49 35t-73 23.5t-88 8.5h-546q-48 0 -89 -8.5t-71 -23.5t-48 -35t-18 -42q0 -45 67 -77t159 -32h546q46 0 88 8.5t73 23.5t49 34.5t18 42.5z" />
<glyph unicode="&#x202f;" horiz-adv-x="174" />
<glyph unicode="&#x205f;" horiz-adv-x="217" />
<glyph unicode="&#xe000;" horiz-adv-x="740" d="M0 740h740v-740h-740v740z" />
</font>
</defs>
</svg>
