<?xml version="1.0" standalone="no"?>
<!DOCTYPE svg PUBLIC "-//W3C//DTD SVG 1.1//EN" "http://www.w3.org/Graphics/SVG/1.1/DTD/svg11.dtd" >
<svg xmlns="http://www.w3.org/2000/svg">
<metadata></metadata>
<defs>
<font id="sf_wonder_comic_blotchregular" horiz-adv-x="947" >
<font-face units-per-em="2048" ascent="1638" descent="-410" />
<missing-glyph horiz-adv-x="602" />
<glyph horiz-adv-x="2048" />
<glyph horiz-adv-x="2048" />
<glyph unicode="&#xd;" horiz-adv-x="1024" />
<glyph unicode=" "  horiz-adv-x="602" />
<glyph unicode="&#x09;" horiz-adv-x="602" />
<glyph unicode="&#xa0;" horiz-adv-x="602" />
<glyph unicode="!" horiz-adv-x="802" d="M620 1208q-7 -15 -45 -140q-15 -83 -25 -230q-48 -51 -144 -314q26 -29 -7 -111q-25 -51 -68 -53q-36 7 -62.5 27.5t-26.5 59.5q-6 82 48 213q-3 142 36 280q-9 110 22 205q36 116 92 191q36 28 69 24q100 -13 111 -152zM406 137q-2 -2 -10 -41q-2 -9 -5 -26 q-21 -58 -84 -72q-54 9 -90 40.5t-29 87.5q3 38 36.5 74t80.5 36q40 1 65.5 -32t35.5 -67z" />
<glyph unicode="&#x22;" horiz-adv-x="753" d="M568 1289q-1 -23 -9.5 -92t-3.5 -110q12 -68 -87 -54q-64 -21 -53 47l-4 82q11 215 94 210q70 14 63 -83zM319 1290q-3 -97 -25 -217q8 -68 -50 -63q-55 5 -72 101l12 51q4 94 24 169q16 41 48 38q61 -9 63 -79z" />
<glyph unicode="#" horiz-adv-x="1062" d="M949 1111q-2 -31 -51 -48q-21 -8 -132 -22q-18 -37 -22 -126q48 5 79 7q124 0 126 -82q-4 -41 -63 -65q-14 2 -144 -10q19 -115 6 -110q-11 -61 -70 -61q-60 -3 -57 41q2 29 8 67.5t-3 48.5q-100 -24 -184 -24q-20 -154 -80 -150q-57 3 -57 61q2 -7 18 58 q-151 -24 -134 -10q-35 0 -56.5 23t-24.5 62q5 57 58 74q23 5 182 19q-24 61 -7 146q-215 28 -187 -5q-52 4 -55 55q5 27 44 43q31 13 174 15q18 32 18 61q1 33 -2 45q5 75 5 88q10 62 55 55q39 3 58 -44q1 -19 3 -79l-2 -97q57 5 162 24q-1 1 -3 19v25q-20 145 68 149 q57 -11 69 -62q-4 -8 -9 -85q5 -14 7 -39q130 1 147 10q51 2 56 -77zM630 898l-2 116q-63 10 -181 19q10 -47 14 -142q49 14 169 7z" />
<glyph unicode="$" horiz-adv-x="1075" d="M1022 992q-7 -21 -39 -49t-72 -30q-35 0 -152 121q-88 69 -121 87q-20 -179 -34 -450q109 -65 179 -132q74 -126 72 -216q-10 -132 -96 -243q-124 -66 -238 -61q-21 -65 -41 -183q-12 -53 -41 -44q-28 -2 -45 15t-22 41q2 36 14 84q13 77 13 83q-99 28 -182 89 q-74 50 -89 155q5 40 27 62t58 20q34 2 60.5 -32t38.5 -75q29 -53 111 -70q-22 215 34 353q-204 113 -259 164q-99 85 -108 258q18 155 151 296t278 146q8 37 25 143q33 53 69 58q24 -3 47 -21t18 -56q1 -24 -26 -143q131 -15 264 -120q93 -105 106 -250zM493 1118 q-164 -29 -141 -225q-17 -87 83 -169q51 199 58 394zM684 307q9 80 -136 166q2 -92 -4 -304q52 17 99 51q41 48 41 87z" />
<glyph unicode="%" horiz-adv-x="1637" d="M1217 1297q-14 -148 -299 -630q-268 -512 -353 -633q-51 -12 -63 -19q-21 0 -38 15.5t-15 42.5q0 9 19 35q235 295 401 815q59 77 191 258q-2 121 8 137q21 71 72 64q79 -13 77 -85zM809 1067q15 -139 -69.5 -234.5t-256.5 -120.5q-126 22 -237 105q-140 94 -142 253 q4 229 237 278q81 -3 113 11q126 -6 232 -79q123 -104 123 -213zM1447 323q28 -122 -70 -221q-111 -128 -205 -124q-143 12 -208 77q-121 102 -111 208q2 99 82 222q98 82 219 143q12 5 25 5q17 0 55 -15q278 -53 213 -295zM631 1046q7 103 -95 113q-77 39 -164 44 q-119 -27 -94 -128q-13 -71 70 -124q67 -43 149 -48q51 8 85 42.5t49 100.5zM1294 309q-14 89 -106 171q-202 -105 -179 -204q12 -58 54.5 -86t91.5 -35q48 4 91.5 54t47.5 100z" />
<glyph unicode="&#x26;" horiz-adv-x="1229" d="M1089 1026q-9 -40 -39 -98q-40 -68 -86 -61q-82 10 -97 39q-9 24 -11.5 79.5t-12.5 82.5q-44 65 -191 87q-91 -23 -162 -32q-138 -41 -123 -101q-10 -71 118 -150q61 -66 158 -142q48 -49 48 -81q4 -50 -56 -82q-116 -67 -132 -70q-54 -48 -59 -135q-4 -79 66 -140.5 t159 -81.5q65 -12 156 28t112 66q44 2 49 -60q-1 -12 -13 -29q-45 -58 -151.5 -113.5t-155.5 -41.5q-183 12 -266.5 111.5t-126.5 291.5q10 162 147 261q-318 211 -282 363q12 186 167 285q134 48 315 57q175 6 305 -24q58 -58 118.5 -119.5t45.5 -189.5z" />
<glyph unicode="'" horiz-adv-x="456" d="M278 1283q-10 -99 -19 -206q-6 -65 -47 -65q-77 12 -77 80l12 62q-4 106 19 172q17 39 51 46q61 -7 61 -89z" />
<glyph unicode="(" horiz-adv-x="631" d="M517 1265q-2 -38 -32 -91q-26 -48 -43 -87q-193 -181 -201 -654q73 -146 90 -300q29 -80 118 -299q-24 -3 -24 -17q0 -25 -22 -48t-43 -25q-55 -2 -92 133q-205 357 -157 727q24 167 89 456q117 322 227 295q27 -2 63 -24t27 -66z" />
<glyph unicode=")" horiz-adv-x="667" d="M575 522q-27 -172 -80 -397q-87 -279 -181 -378q-56 -13 -73 -22q-28 -3 -52.5 18t-22.5 56q0 22 39 71q19 22 44 55q111 176 171 430q-60 304 -108 594q-17 -22 -99 154q-42 104 -42 160q3 43 38 69.5t66 24.5q34 3 71 -29q94 -91 151 -347q71 -222 78 -459z" />
<glyph unicode="*" horiz-adv-x="893" d="M809 642q-2 -21 -23 -41.5t-47 -23.5q-19 0 -51 25q-55 41 -147 128l-12 -102q7 -133 -65 -140q-63 10 -82 70q-3 26 -24 186q-30 -60 -158 -153q-14 -14 -33 -14q-29 2 -51 19t-20 56q1 36 122 130q53 53 135 123q-73 42 -228 128q-31 39 -29 71q-2 26 19.5 43t46.5 22 q38 2 190 -101q17 24 6 111q9 77 2 115q-7 70 79 68q51 10 82 -73q-2 -24 -7 -205q141 78 175 71q28 -1 50 -21.5t17 -48.5q-2 -39 -198 -189q256 -195 251 -254z" />
<glyph unicode="+" horiz-adv-x="749" d="M717 585q-5 -58 -130 -63q-72 -7 -140 -1q-24 -52 -39 -190q10 -63 -51 -61q-65 5 -60 66l17 214q-82 -29 -198 0q-73 6 -58 63q-10 70 60 78q25 -3 83 -7q67 -17 91 -5l24 205q-24 14 -2.5 28.5t53.5 21.5q43 -4 55 -50q17 -56 17 -195q66 -11 218 -54q55 14 60 -50z " />
<glyph unicode="," horiz-adv-x="471" d="M367 68q0 -17 -17 -48q-14 -22 -22.5 -48.5t-42.5 -68.5q-32 -82 -75 -80q-41 3 -66 29.5t-23 60.5q-3 7 38 116q7 41 13.5 72.5t35.5 45.5q28 25 68 29q35 0 60.5 -29t30.5 -79z" />
<glyph unicode="-" d="M787 577q-5 -63 -115 -68l-119 -12q-186 10 -355 49q-56 -20 -48 41q-3 60 63 82q29 5 118 17l92 -19q215 26 304 -20q65 -26 60 -70z" />
<glyph unicode="." horiz-adv-x="454" d="M307 101q-2 -33 -30 -64.5t-62 -33.5q-68 2 -97 120q15 12 41.5 32.5t53.5 25.5q38 2 69.5 -22t24.5 -58z" />
<glyph unicode="/" horiz-adv-x="536" d="M490 1289q-7 -79 -74 -369l-93 -434q20 -141 -137 -418q41 -135 50 -194q-16 -72 -31 -113q-17 -56 -57 -49q-83 -9 -87 93q-20 229 128 518q26 506 89 641q-15 96 5 181q19 106 45 176q34 58 82 53q30 -4 57.5 -26t22.5 -59z" />
<glyph unicode="0" horiz-adv-x="1277" d="M1140 741q-32 -267 -184 -509q-186 -266 -362 -244q-161 24 -248 58q-182 128 -203 468q11 242 106 431q89 280 207 337q92 90 164 70q49 5 88 8q162 14 243 -111q128 -143 174 -336q12 -53 15 -172zM927 748q17 291 -195 336q-27 46 -126 59q-138 -85 -212 -254 q-46 -153 -56 -339q19 -178 49 -253q50 -130 181 -120q69 -3 125 35q124 73 169 245q31 111 65 291z" />
<glyph unicode="1" horiz-adv-x="826" d="M657 1089q-26 -183 -96 -696q11 -99 23 -246q-28 -29 -34 -104q-2 -69 -60 -67q-75 4 -55 167q-12 151 -7 372.5t-5 397.5q5 46 14 118q-111 -74 -150 -65q-53 3 -88 35.5t-30 70.5q2 44 38 90q46 53 136 115q133 93 179 90q87 -2 109 -75q19 -56 26 -203z" />
<glyph unicode="2" horiz-adv-x="1205" d="M1070 916q-17 -121 -94 -266q-60 -118 -157 -232q-169 -73 -275 -220q62 9 98 9q213 3 285 -79q15 -17 12 -43q0 -27 -28.5 -48.5t-50.5 -26.5q-17 4 -32 10q-144 24 -130 7q-49 -7 -145 2t-150 -10q-121 -4 -140 82q2 32 19 58q37 75 204 264q159 166 221 224 q138 116 116 268q1 100 -65.5 157.5t-148.5 45.5q-138 12 -186 -65q-30 -32 -56 -98t-26 -78q-47 -51 -90 -56q-132 22 -126 176q5 99 97 220q107 80 237 128q62 24 142 10q177 -3 324 -122.5t145 -316.5z" />
<glyph unicode="3" horiz-adv-x="1111" d="M968 923q-23 -162 -173 -326q89 -94 118 -225q-43 -123 -171.5 -253.5t-226.5 -128.5q-73 12 -138 41q-66 22 -107 71q-31 23 -31 50q-3 34 29 54.5t55 30.5q41 4 94.5 -12.5t109.5 -33.5q74 -12 133 52t60 126q-1 64 -141 46q-16 18 -55 9.5t-70 -6.5q-51 2 -85 43.5 t-36 82.5q7 58 82 98q157 65 218 112q108 60 96 210q17 91 -36 151.5t-145 43.5q-74 0 -171 -50q-25 -46 -116 -121q-24 -60 -63 -68q-41 0 -75 25.5t-33 69.5q-1 14 6 31q37 135 187 229t328 135q142 -24 266 -139q75 -162 91 -348z" />
<glyph unicode="4" horiz-adv-x="1169" d="M1085 664q0 -14 -26 -30t-224 -69q29 -172 -23 -236q-30 -186 -39 -280q-31 -46 -72 -42q-70 -2 -68 106q-10 47 -3 180.5t10 179.5l12 48q-142 -36 -246 -52q-177 -20 -264 -39q-40 -7 -67 33t-27 80q-5 5 -2 22q58 189 60 312q-5 149 0 161q19 104 94 95 q111 -24 92 -206q-9 -185 -10 -268q165 -4 348 48q22 116 12 221q-31 284 65 384q12 60 71 55q96 19 98 -145q10 2 -28 -208q19 -115 26 -265q10 -5 58 -12q136 -3 153 -73z" />
<glyph unicode="5" horiz-adv-x="1217" d="M1094 565q-5 -208 -216.5 -379.5t-345.5 -185.5q-112 14 -234 95.5t-127 117.5q-11 36 -9 55q0 37 31 58.5t65 33.5q32 0 61 -39q65 -74 77 -91q53 -46 138 -39q91 2 207.5 114.5t144.5 232.5q1 128 -137 153q-46 -15 -213 -27q-188 12 -265 44q-102 62 -105 244 q6 144 64 241q87 107 215 152q26 14 65 14q38 -4 104.5 -2t92.5 -7q22 0 67 6t78 9q47 0 98.5 -29.5t29.5 -84.5q1 -36 -31 -68q-63 -57 -242 -46q-23 -23 -88.5 -17t-101.5 3q-37 2 -54.5 -10t-27.5 -51q-34 -64 -31 -122q0 -34 26 -32q24 0 66.5 4t71.5 -1q203 2 340 -70 q179 -109 186 -276z" />
<glyph unicode="6" horiz-adv-x="1138" d="M1041 440q-5 -174 -179 -302.5t-289 -142.5q-160 15 -322 154t-130 208q-3 65 -2 123q16 392 393 672q109 239 154 220q41 4 70.5 -28.5t29.5 -80.5q-1 -26 -23.5 -55t-107.5 -88q-101 -115 -166 -268q38 25 81 24q206 -19 336 -139q148 -114 155 -297zM877 481 q5 96 -112 169q-93 55 -195 43q-109 -14 -198 -92q-20 -63 -26 -106q-6 -304 251 -239q110 -9 190 75.5t90 149.5z" />
<glyph unicode="7" horiz-adv-x="1133" d="M1101 1220q-2 -46 -148 -236t-202 -397q-147 -208 -282 -350q7 -100 -46 -189q-27 -48 -66 -45q-40 -5 -69.5 32t-36.5 71q-4 63 167 357q155 172 394 638l-186 34q-244 7 -215 -7q-126 0 -181 44q-70 35 -66 89q-5 94 165 99q125 -15 545 -51q37 38 114 27 q111 -34 113 -116z" />
<glyph unicode="8" horiz-adv-x="1241" d="M1085 1065q-5 -193 -182 -324q181 -118 177 -282q-36 -126 -117.5 -281.5t-206.5 -155.5q-67 -25 -169 -15q-181 -34 -316 95q-169 96 -179 297q34 207 266 299q-95 96 -87 217q-25 65 17 95q40 132 192.5 289.5t296.5 99.5q143 -35 225.5 -125.5t82.5 -208.5zM855 1062 q-2 39 -28.5 67t-70.5 33q-68 2 -164 -80q-71 -60 -128 -116q-3 -7 -3 -29q-2 -60 49 -79q40 -25 94 -27q43 -3 91 19q49 27 118 99t42 113zM891 428q-9 171 -178 157q-73 11 -124 -1q-82 -26 -154 -70q-100 -70 -78 -137q-4 -17 0 -27q37 -155 252 -147q121 -15 198 56 q87 65 84 169z" />
<glyph unicode="9" horiz-adv-x="1188" d="M1063 889q-5 -160 -104 -334q-5 -79 -121 -302q-48 -46 -87 -163q2 -1 -15 -35q-28 -41 -69 -50q-65 10 -71 62q3 8 148 382q-77 -58 -153 -51q-176 17 -355.5 156t-117.5 306q22 198 161 398.5t346 142.5q215 -53 320 -189q110 -120 118 -323zM828 845q1 106 -50 194 q-51 98 -153 86q-96 -11 -171 -88.5t-92 -193.5q-9 -73 56 -159.5t166 -41.5q47 -7 116 22q95 36 116 41q12 85 12 140z" />
<glyph unicode=":" horiz-adv-x="481" d="M314 577q-2 -45 -43 -73t-75 -30q-37 4 -72 36.5t-22 50.5q-1 43 34.5 74t76.5 36q43 -7 73.5 -27.5t27.5 -66.5zM302 106q0 -36 -24 -66.5t-63 -39.5q-82 3 -68 111q-19 24 4 47t61 23q35 7 65 -13t25 -62z" />
<glyph unicode=";" horiz-adv-x="471" d="M358 572q0 -38 -29.5 -62t-60.5 -25q-82 3 -104 112q15 11 36.5 34t55.5 24q39 2 73.5 -27t28.5 -56zM350 77q-4 -24 -19 -53q-14 -26 -24 -54t-34 -78q-22 -59 -94 -61q-29 -3 -53.5 20t-24.5 70q-2 -1 51 110q-4 36 5.5 67.5t28.5 48.5q32 27 68 27q43 0 68.5 -35 t27.5 -62z" />
<glyph unicode="&#x3c;" horiz-adv-x="918" d="M719 773q0 -27 -45 -51q-60 -51 -182 -84q-231 -34 -210 -83q112 -57 242 -110q174 -75 171 -162q-2 -22 -30 -46t-57 -24q-36 -1 -238 101q-240 142 -277.5 184.5t-54.5 68.5q1 32 42 56q63 63 169 104q92 3 173 34q221 89 220 91q30 0 52.5 -23t24.5 -56z" />
<glyph unicode="=" horiz-adv-x="1046" d="M860 746q0 -77 -140 -74q-126 -10 -336 23q-63 0 -145 -17q-72 23 -67 85q2 85 123 63l229 34q160 -8 251 -20q85 -26 85 -94zM891 403q-10 -34 -60 -48q-128 -24 -334 -38l-185 -6q-111 35 -112 111q5 51 80 63q113 22 329 -11l103 28q165 13 179 -99z" />
<glyph unicode="&#x3e;" horiz-adv-x="898" d="M857 568q0 -34 -44.5 -69t-233.5 -175q-238 -97 -297 -100q-26 -12 -52.5 12.5t-22.5 58.5q1 70 184 132q111 90 213 140q-3 0 -184 85q-118 17 -198 75q-36 26 -43 53q2 31 26.5 51.5t52.5 30.5q13 -5 116 -50q49 -20 106 -42q87 -40 175 -63q111 -29 166 -72 q36 -36 36 -67z" />
<glyph unicode="?" horiz-adv-x="993" d="M940 847q-5 -142 -122 -245.5t-214 -111.5q-49 8 -121 32q-73 2 -87 17v-12q0 -13 4 -43t3 -37q-2 -31 -31 -50.5t-53 -27.5q-73 -7 -78 169q22 189 158 184q58 -12 119 -19.5t86 5.5q50 2 80 33q21 37 21 90q-4 85 -94 173t-193 112q-31 -2 -82 -75t-106 -65 q-105 4 -114 103q-15 128 102 181q108 100 221 100q167 0 311 -168t190 -345zM485 116q-4 -41 -28 -67.5t-82 -31.5q-42 -2 -66 27t-22 81q0 34 28 56t64 32q36 -1 71.5 -26t34.5 -71z" />
<glyph unicode="@" horiz-adv-x="1678" d="M1492 643q-4 -375 -241 -443q-24 -23 -73 -21q-113 17 -174.5 54t-75.5 153q-78 -72 -175 -62q-108 -24 -180 98q-71 76 -81 211q25 181 189 278q96 116 235 132q77 -7 147 -91q28 -25 28 -44q0 -26 -19 -47t-48 -20q-19 2 -52 16.5t-61 26.5q-85 3 -154 -84t-78 -191 q2 -41 21 -78q22 -53 59 -46q52 -7 125 85q60 67 72 116q10 38 29.5 82t50.5 43q78 5 58 -67q0 -84 -32 -179l3 -15q-12 -186 87 -222q73 13 90 105q47 82 40 169q54 332 -195 458q-78 78 -174 68q-206 19 -382 -177q-152 -190 -120 -415q-17 -106 52 -196q30 -36 145 -142 q56 -31 56 -85q3 -31 -24 -62t-53 -24q-15 0 -31 5q-163 58 -265 202.5t-93 325.5q-17 217 70 430t283 263q140 99 372 106q176 23 330 -147q165 -104 182 -275q57 -97 57 -294z" />
<glyph unicode="A" horiz-adv-x="1096" d="M1041 92q0 -29 -26.5 -48.5t-50.5 -19.5q-41 2 -83 63q-14 38 -57 149q-82 -9 -181 1q-73 -19 -196 9q-174 1 -201 0q-12 -62 -46 -195q-36 -36 -70 -34q-31 -2 -52.5 15t-19.5 45q0 10 2 20q70 243 141 603q101 496 174 587q43 65 98 72q54 0 94.5 -37t94.5 -163 q22 -62 45 -152q51 -184 220 -681q56 56 49 5q53 -183 65 -239zM729 447q-60 188 -266 557q-4 -120 -98 -272q-30 -143 -58 -290q253 41 311 17q54 -12 111 -12z" />
<glyph unicode="B" horiz-adv-x="1140" d="M1104 1075q0 -251 -396 -367q144 -48 199.5 -110t29.5 -149q0 -244 -217 -341q-165 -113 -374 -96q-75 -24 -95 32q-67 -3 -91 118q12 9 24 125q-8 136 10 423.5t-86 368.5q-60 15 -52 95q2 154 246 215q147 -22 336 -25q287 10 395 -140q68 -58 71 -149zM886 1050 q1 56 -91 71q-58 17 -138 26q-107 -14 -333 -38q38 -30 38 -54q0 -40 -8 -115t-1 -119l5 -43q142 57 328 116q171 99 200 156zM753 435q10 120 -383 188l-59 -427q174 -29 283 53q138 77 159 186z" />
<glyph unicode="C" horiz-adv-x="1140" d="M1089 1015q-7 -83 -48 -151q-26 -94 -102 -86q-55 7 -87.5 30t-28.5 79q1 26 15 76.5t12 65.5q2 109 -133 108q-196 24 -280 -164q-101 -198 -118 -364q17 -140 65 -273q119 -157 285 -162q36 14 108.5 58t98.5 17q30 0 54 -26.5t22 -60.5q2 -65 -126 -109 q-97 -39 -179 -55q-212 -37 -384 203q-176 161 -210 446q29 218 229 505q186 247 419 225q163 -13 292 -95q86 -96 96 -267z" />
<glyph unicode="D" horiz-adv-x="1266" d="M1213 809q-15 -317 -372 -533q-170 -184 -537 -261q-34 -18 -39 -24q-33 -1 -54.5 23.5t-22.5 60.5q1 53 68 79q-43 250 -79 525q28 278 9 437q-61 17 -90 48t-45 68q-7 132 217 123q343 87 601 -46q370 -227 344 -500zM983 765q-3 184 -220 240q-145 92 -365 125 q24 -171 17 -335q8 -111 5 -303q-27 -245 -33 -299q318 44 492 310q109 146 104 262z" />
<glyph unicode="E" horiz-adv-x="945" d="M899 1258q-6 -84 -116 -103q-39 -13 -133 -8q-135 14 -162 -19q-32 -3 -128 -27q10 -58 12 -135q0 -75 -29 -198q84 29 227 26q140 -21 183 -33q82 -19 59 -83q9 -43 -15 -78t-63 -25q-26 -2 -70 -2.5t-80 2.5q-104 2 -261 -37q-16 -96 -43 -316q331 19 490 -9 q78 2 75 -59q-4 -53 -63 -70q-33 -28 -239 -29q-132 -9 -347 -45q-8 -13 -15 -13q-109 6 -77 204q-44 120 -42.5 382t64.5 351q5 41 -6.5 126t-3.5 106q0 53 25.5 87t92.5 36q155 78 575 110q80 -37 90 -141z" />
<glyph unicode="F" horiz-adv-x="957" d="M952 1219q-3 -120 -273 -113q-70 -7 -360 29q-44 -109 -46 -399q108 56 300 56q76 8 106 -14q53 -15 46 -83q-6 -70 -92 -103q-104 -42 -339 -32q18 -224 -19 -253q-22 -172 -39 -244q-26 -37 -69 -39q-68 -10 -73 56q-2 62 1.5 158.5t13.5 181.5q-10 358 -19 590 q-25 127 -22 159q0 12 1 25.5t3 25.5q0 5 -2 14.5t-2 14.5q-1 53 29.5 83t90.5 32q54 1 199 3t163 -20q27 -2 72 -0.5t73 1.5q237 29 257 -129z" />
<glyph unicode="G" horiz-adv-x="1195" d="M1140 973q-3 -253 -169 -241q-77 -7 -77 137q-7 13 -7 52.5t7 75.5q0 63 -18 95q-23 31 -84 41q-273 7 -524 -317q-10 -232 0 -391q-9 -130 130 -188q59 -68 215 -77q104 -3 194 41q-3 29 -1 69q-4 30 0 61q-81 -15 -110 -3q-34 0 -55 25.5t-23 56.5q8 80 234 88 q150 -13 198 -6q66 -36 70 -77q-4 -45 -31 -70.5t-70 -23.5q-5 -91 -15 -150q1 -21 0.5 -56t7.5 -59q0 -39 -24 -65.5t-65 -29.5q-78 -9 -87 68q-160 -44 -264 -24q-234 -3 -336 121q-190 111 -195 338q20 273 201 604q215 320 512 316q209 -31 289 -128q89 -106 97 -283z " />
<glyph unicode="H" horiz-adv-x="1161" d="M1099 1251q0 -14 -8 -39q-31 -304 -47 -413q-22 -92 -20 -348t27 -294q12 -166 -73 -155q-55 -12 -67 73q-6 7 -27 130q17 49 7 201q-265 -29 -399 -17q-142 -3 -219 4q17 -314 -17 -347q-17 -44 -51 -53q-48 -2 -67 58q-20 48 -20 236q-2 155 -15.5 436t-37.5 385 q15 105 22 181q22 73 85 85q58 -7 101 -33.5t39 -80.5q-1 -74 -32 -227.5t2 -221.5q-7 -14 30 -200q24 -26 98 -24q66 -7 228 29q125 9 210 -19q-24 212 -49 337q30 267 65 341q56 89 109 82q48 3 87 -31t39 -75z" />
<glyph unicode="I" horiz-adv-x="693" d="M650 1275q-1 -96 -211 -97q18 -29 19 -90.5t-11 -95.5l-10 -246q10 -46 9 -204t-6 -225q-1 -58 9 -140q138 -5 138 -81q14 -82 -89 -96l-305 5q-38 4 -59 28.5t-15 48.5q4 72 175 118q-14 283 -9 752q-67 161 -70 219q-27 -5 -46 -2q-135 3 -128 94q-5 56 92 61t241 38 l109 -9q142 19 167 -78z" />
<glyph unicode="J" horiz-adv-x="997" d="M942 705q2 -398 -234 -565q-121 -166 -373 -142q-154 12 -221 24q-104 70 -99 178q0 76 75 179q69 165 122 155q32 2 57 -22t25 -61q-2 -31 -51.5 -92.5t-82.5 -126.5q2 -73 139 -78q237 58 334 162q92 75 84 310q-4 229 -55 396q-22 156 -22 209q0 52 33.5 90.5 t85.5 37.5q38 8 69 -30q37 -32 59 -158q9 1 29 -135q9 -283 26 -331z" />
<glyph unicode="K" horiz-adv-x="1060" d="M1009 1260q0 -21 -23 -52q-22 -49 -163 -148q-221 -89 -388 -377q212 -185 313 -272q213 -223 206 -341q-3 -21 -35.5 -41t-63.5 -20q-56 0 -147 114q-82 104 -140 208q-30 9 -269 237q0 -12 -24 -3q-5 -311 -14 -405q4 -177 -85 -163q-58 -9 -68 52q-4 16 0 103 q-6 140 6 400t-42 542q-11 232 116 275q123 -19 131 -103q-2 -92 -24 -245q-25 -195 -8 -248q119 154 471 471q-12 38 5 45q43 40 89 64q22 4 44 4q43 2 71 -28t42 -69z" />
<glyph unicode="L" horiz-adv-x="894" d="M891 143q-2 -47 -72 -71q-34 -16 -196 -14q-282 32 -408 -78q-5 20 -7 20q-36 2 -62.5 21.5t-27.5 65.5q-10 101 -36 328.5t44 268.5q7 86 -3 283t-5 313q-22 38 9.5 63.5t84.5 23.5q140 32 143 -183q31 -401 -41 -1049q60 53 338 22q138 39 174 53q67 -2 65 -67z" />
<glyph unicode="M" horiz-adv-x="1365" d="M1302 1161q-10 -21 -37 -161q17 -106 10 -285q-17 -32 -48 -251q-7 -97 2 -181q-2 -29 5.5 -105.5t-0.5 -92.5q-7 -70 -84 -63q-58 -5 -66 70q-12 33 1 155q-32 91 -43 271t18 277q-70 -128 -196 -447q-28 -135 -93 -264q4 0 4 -12q-2 -53 -55 -50q-104 2 -404 686 q-12 -90 -46 -234q-45 -213 -58 -317q18 -14 21 -41t1 -44q-2 -72 -79 -75q-44 1 -66 44q-9 22 -17 90q-5 105 22 263q36 232 29 278q8 74 10 217q-10 60 -12.5 201.5t-12.5 182.5q6 45 36 71t78 30q37 -5 80 -29q85 -58 152 -280q102 -275 230 -742q43 138 125 406 q19 77 84 341q52 92 75 142q32 82 74 118.5t78 34.5q158 12 182 -204z" />
<glyph unicode="N" horiz-adv-x="1143" d="M1072 729q0 -26 -21 -171q31 -258 -8 -341q-99 -179 -229 -244q-142 20 -253 187q-64 101 -145 272q-47 121 -136 287q-46 -275 3 -349q12 -266 -46 -315q-17 -46 -61 -50q-26 0 -47 18t-21 56q0 -11 3 6q19 81 17 227q-5 121 -33 392t-30 465q8 200 126 183 q121 -14 181 -133q2 -14 26 -222q80 -236 218 -436q143 -310 213 -394q57 72 82 289q-32 240 -10 592q-89 97 -82 138q5 58 34 108q31 54 89 42q121 11 55 -344q70 -29 70.5 -118t4.5 -145z" />
<glyph unicode="O" horiz-adv-x="1200" d="M1130 790q0 -314 -150 -519q-103 -281 -389 -252q-103 1 -173 -4q-184 62 -274.5 207t-97.5 360q12 229 184 544q157 258 408 285q238 -25 376 -206q94 -116 138 -287q-29 -63 -22 -128zM956 611q17 142 -31 323q-60 162 -160 186q-35 17 -52 18q-25 0 -73.5 -14.5 t-72.5 -9.5q-9 0 -19 4q-123 -109 -201.5 -254t-105.5 -320q-11 -73 35 -167q52 -80 151.5 -134t195.5 -74q152 -5 280 154q58 129 53 288z" />
<glyph unicode="P" horiz-adv-x="1181" d="M1166 993q-5 -169 -152 -300q-60 -108 -316 -205q-145 -36 -352 -189l-23 -219q-52 -44 -105 -37q-39 -7 -39 46q-10 94 -23 308t54 253q19 181 -21 456h-27q-109 82 -94 133q5 56 210 140q138 3 272 -32q238 -7 387 -55q215 -125 229 -299zM961 988q-4 104 -167 150 q-120 9 -248 -6q-73 23 -133 13q0 -22 3 -65q12 -181 -18 -548q225 76 251 69q153 75 220 194q116 120 92 193z" />
<glyph unicode="Q" horiz-adv-x="1289" d="M1241 621q-10 -181 -92 -310q-43 -168 -186 -229q-7 -53 5 -191q-96 -92 -151 -91q-32 4 -47.5 48t-32.5 176q-61 -19 -119 -14q-224 14 -365 191q-166 222 -135 497q-89 249 106 432q206 211 445 278q265 -5 451 -319q119 -213 121 -468zM1056 575q-5 144 -112 331 q-132 229 -277 226q-94 -16 -186 -130q-153 -123 -172 -362q-33 -203 77.5 -354t267.5 -79q15 -12 37 -9q-29 78 -19 138q-10 127 115 132q87 -2 109 -195q152 102 160 302z" />
<glyph unicode="R" horiz-adv-x="1196" d="M1159 894q-9 -269 -432 -423q56 -29 108 -188q1 -104 54 -206q-48 -92 -92 -91q-36 4 -80 91q-31 90 -68 155q-33 56 -81 166q-131 -65 -271 -65q0 -91 -44 -237q-41 -55 -87 -55q-43 10 -40 82q12 131 22.5 411t-8.5 475q0 32 -2 121q-83 37 -80 112q-3 111 200 81 q32 41 138 13q278 -13 478 -112q290 -63 285 -330zM935 876q-8 37 -37 80q-9 24 -50 51q-112 107 -522 147q38 -152 -41 -683q229 67 387 152q255 63 263 253z" />
<glyph unicode="S" horiz-adv-x="973" d="M927 1116q-5 -145 -127 -140q-88 -7 -105 150l-12 -3l3 -3q-15 8 -36 8q-89 5 -206 -85q-147 -39 -159 -127q-5 -69 154 -170q143 -128 259 -215q171 -101 119 -236q12 -138 -104 -230q-119 -39 -252 -46q-174 -33 -331 80q13 154 65 150q10 5 30 -7q121 -65 217 -76 q58 -2 119 29q72 22 69 78q7 34 -135 150q-203 154 -297 203q-162 140 -131 290q-26 197 232 349q114 117 321 114q131 -15 220.5 -70t86.5 -193z" />
<glyph unicode="T" horiz-adv-x="1041" d="M1017 1248q-5 -145 -415 -120q47 -106 35 -244q-43 -107 -45 -271q-15 -174 -24 -564q-66 -25 -111 -35q-32 8 -37 46q-14 124 7.5 347t16.5 282q-9 52 0.5 153.5t-24.5 132.5q0 78 15 143q-112 27 -338 27q-63 45 -73 104q-2 34 39 43q41 15 138 32q185 26 311 17 q278 -25 338 29q155 -22 167 -122z" />
<glyph unicode="U" horiz-adv-x="1132" d="M1075 891q2 -340 -126 -563q-77 -350 -369 -316q-211 22 -322 94q-116 143 -152 312q-36 140 -29 287q-9 95 -15 219t10 180q7 84 3 166q80 77 149 83q20 -5 35 -47q26 -65 28 -176q-4 -96 10.5 -283.5t-22.5 -259.5q-2 -212 44 -309q70 -116 261 -102q176 1 229 106 q56 80 55 274q-16 251 -53.5 430.5t15.5 196.5q3 75 26 123q30 59 90 56q94 3 108 -82q20 -41 3 -143q-10 -248 22 -246z" />
<glyph unicode="V" horiz-adv-x="1137" d="M1111 1283q2 -126 -614 -1235l140 -33q-40 14 -64 17q-17 -15 -37 -15q-19 0 -34.5 33.5t-61.5 173.5q-36 116 -199 459q-17 99 -86 307q-34 44 -76 119q-28 87 -50 154l10 5q0 39 35 74t76 27q34 -9 70 -40q53 -42 128 -360l224 -730q42 201 107 413q55 241 86 321 q35 135 46 191q22 116 69.5 160.5t105.5 73.5q47 -2 83.5 -32.5t41.5 -82.5z" />
<glyph unicode="W" horiz-adv-x="1644" d="M1596 1287q0 -43 -63 -152q-40 -140 -123 -432q-186 -309 -171 -681q-39 5 -135 4q-31 5 -42.5 38t-22.5 112q-27 94 -20 99q-21 128 -72 280q-102 244 -118 309q-102 -195 -134 -422q-38 -253 -115 -370q-56 -41 -100 -50q-31 0 -62 101q-20 54 -34 124 q-89 306 -237 748q-104 169 -96 247q-3 60 21.5 84t65.5 36q55 -9 103.5 -51.5t113.5 -283.5q17 -189 111 -756q107 171 116 412q77 196 48 394q32 85 58 118q31 87 70 134t95 28q50 7 75 -46q36 -31 57 -147q25 -84 19 -174q18 -104 76 -314q43 -191 69 -299 q29 352 163 678q2 129 21 177q37 96 84 121.5t73 40.5q43 -5 75 -34t31 -73z" />
<glyph unicode="X" horiz-adv-x="1070" d="M1014 1239q0 -140 -149 -341q-51 -166 -181 -299q53 -143 248 -568q-7 -9 -38 -7q-12 0 -25 17q-4 5 -111 142q-77 109 -195 297q-94 -137 -201 -229q-96 -104 -210 -207l14 -8q-113 -9 -117 53q2 32 454 490q-363 462 -380 665q-2 48 29.5 88t79.5 47q75 0 130 -154 q46 -104 77 -187q24 -91 87 -241q189 188 247 411q0 33 9 72q12 48 41 73q27 33 73 35q49 1 82 -45q34 -41 36 -104z" />
<glyph unicode="Y" horiz-adv-x="1106" d="M1087 1258q-7 -50 -61 -94q-33 -39 -77 -68q-68 -40 -108 -135q-104 -149 -187 -461q-111 -316 -183 -486l-22 22q-114 2 -109 48q3 3 10 20q90 213 181 473q-186 112 -336 314q-65 116 -98 188q-59 116 -56 175q-7 46 22 76t68 27q36 3 72 -26q34 -29 108 -184 q78 -140 262 -359q36 190 110 364q152 162 300 217q102 -4 104 -111z" />
<glyph unicode="Z" horiz-adv-x="1050" d="M1010 1234q-5 -17 -27 -55q-20 -56 -181 -310q-206 -193 -490 -794q89 89 222 91q113 10 176 -4q138 19 128 -63q-2 -50 -61 -70q-41 -20 -221 -19q-58 4 -198.5 7t-156.5 -14q-32 -1 -54 32t-24 57q0 34 268 456q182 396 287 553q-186 29 -565 63q-55 84 -58 142 q6 54 109 63q97 -9 271 -4.5t340 -17.5q244 35 235 -113z" />
<glyph unicode="[" horiz-adv-x="749" d="M635 1239q0 -118 -193 -111q-7 -2 -29 0q-14 -58 -22 -229q-39 -460 -7 -723l2 -227q29 -14 65 -9q136 7 133 -77q17 -75 -40 -104q-39 -8 -99 -6q-99 -7 -115 -13l-16 -6q-44 8 -71.5 48.5t-20.5 67.5q-10 25 -10 73q-2 24 -2 82q2 58 5 84q-7 251 24 744 q-58 140 -63 211q-12 70 -2 105q0 47 9 93q-2 7 -2 19q3 50 34 81.5t89 31.5q20 -4 61 -5q58 -9 80 -12q89 3 127 -22q63 -19 63 -96z" />
<glyph unicode="\" horiz-adv-x="594" d="M532 -210q0 -63 -73 -61q-34 -2 -61 51q-28 39 -73 188.5t-110 558.5q3 53 -147 782q-32 -27 -34 -15q-2 29 18 51t56 17q40 -3 66 -50q22 -34 33 -208q90 -322 186 -577q40 -136 90 -322q75 -263 55 -422z" />
<glyph unicode="]" horiz-adv-x="758" d="M587 1140q0 -43 -14 -111q6 -87 0 -107l-78 -275q39 -225 26 -708q29 -58 18 -87q4 -11 4 -18q-2 -39 -35.5 -64.5t-60.5 -37.5q-3 -2 -22 2q-72 13 -178 20q-95 10 -87 84q0 116 156 124q34 -30 70 -32v232q-7 161 -16 461q-29 425 -18 505q-60 -12 -79 -5 q-58 -2 -102 20q-58 41 -50 89q5 67 53 103q27 17 72 17q44 3 82 5q20 2 63 10q42 5 72 2q47 5 79.5 -25t37.5 -91q0 -16 -3.5 -56t10.5 -57z" />
<glyph unicode="^" horiz-adv-x="997" d="M876 563q0 -32 -26 -52.5t-48 -20.5q-41 2 -77 61q-1 10 -41 106q-22 85 -85 265q-19 17 -78 136q-77 -124 -239 -328q15 -99 -40 -216q-35 -24 -66 -22q-38 -2 -63.5 18.5t-20.5 49.5q0 15 14 44q75 109 181 347q24 114 51 196q48 130 95 182q36 35 70 31 q62 -10 105.5 -38t88.5 -202.5t85 -267.5q82 -258 94 -289z" />
<glyph unicode="_" horiz-adv-x="997" d="M845 2l-613 -33l-15 168l674 -36z" />
<glyph unicode="`" horiz-adv-x="474" d="M362 1526q0 -31 -27.5 -53t-51.5 -22q-32 1 -61 41q-15 17 -82 148.5t-53 154.5q0 35 27.5 55.5t57.5 30.5q43 -2 70 -51q40 -58 86 -164q36 -103 34 -140z" />
<glyph unicode="a" horiz-adv-x="1051" d="M1024 92q0 -29 -26.5 -48.5t-50.5 -19.5q-41 2 -83 63q-14 38 -57 149q-82 -9 -181 1q-73 -19 -196 9q-174 1 -201 0q-12 -62 -46 -195q-36 -36 -70 -34q-31 -2 -52.5 15t-19.5 45q0 10 2 20q70 243 141 603q101 496 174 587q43 65 98 72q54 0 94.5 -37t94.5 -163 q22 -62 44 -152q52 -184 221 -681q56 56 49 5q53 -183 65 -239zM712 447q-60 188 -267 557q-3 -120 -97 -272q-31 -143 -58 -290q253 41 311 17q54 -12 111 -12z" />
<glyph unicode="b" horiz-adv-x="1140" d="M1104 1075q0 -251 -396 -367q144 -48 199.5 -110t29.5 -149q0 -244 -217 -341q-165 -113 -374 -96q-75 -24 -95 32q-67 -3 -91 118q12 9 24 125q-8 136 10 423.5t-86 368.5q-60 15 -52 95q2 154 246 215q147 -22 336 -25q287 10 395 -140q68 -58 71 -149zM886 1050 q1 56 -91 71q-58 17 -138 26q-107 -14 -333 -38q38 -30 38 -54q0 -40 -8 -115t-1 -119l5 -43q142 57 328 116q171 99 200 156zM753 435q10 120 -383 188l-59 -427q174 -29 283 53q138 77 159 186z" />
<glyph unicode="c" horiz-adv-x="1142" d="M1089 1015q-7 -83 -48 -151q-26 -94 -102 -86q-55 7 -87.5 30t-28.5 79q1 26 15 76.5t12 65.5q2 109 -133 108q-196 24 -280 -164q-101 -198 -118 -364q17 -140 65 -273q119 -157 285 -162q36 14 108.5 58t98.5 17q30 0 54 -26.5t22 -60.5q2 -65 -126 -109 q-97 -39 -179 -55q-212 -37 -384 203q-176 161 -210 446q29 218 229 505q186 247 419 225q163 -13 292 -95q86 -96 96 -267z" />
<glyph unicode="d" horiz-adv-x="1268" d="M1213 809q-15 -317 -372 -533q-170 -184 -537 -261q-34 -18 -39 -24q-33 -1 -54.5 23.5t-22.5 60.5q1 53 68 79q-43 250 -79 525q28 278 9 437q-61 17 -90 48t-45 68q-7 132 217 123q343 87 601 -46q370 -227 344 -500zM983 765q-3 184 -220 240q-145 92 -365 125 q24 -171 17 -335q8 -111 5 -303q-27 -245 -33 -299q318 44 492 310q109 146 104 262z" />
<glyph unicode="e" d="M899 1258q-6 -84 -116 -103q-39 -13 -133 -8q-135 14 -162 -19q-32 -3 -128 -27q10 -58 12 -135q0 -75 -29 -198q84 29 227 26q140 -21 183 -33q82 -19 59 -83q9 -43 -15 -78t-63 -25q-26 -2 -70 -2.5t-80 2.5q-104 2 -261 -37q-16 -96 -43 -316q331 19 490 -9 q78 2 75 -59q-4 -53 -63 -70q-33 -28 -239 -29q-132 -9 -347 -45q-8 -13 -15 -13q-109 6 -77 204q-44 120 -42.5 382t64.5 351q5 41 -6.5 126t-3.5 106q0 53 25.5 87t92.5 36q155 78 575 110q80 -37 90 -141z" />
<glyph unicode="f" horiz-adv-x="959" d="M954 1219q-3 -120 -273 -113q-70 -7 -360 29q-45 -109 -46 -399q107 56 300 56q75 8 106 -14q53 -15 46 -83q-7 -70 -92 -103q-104 -42 -340 -32q19 -224 -19 -253q-22 -172 -39 -244q-25 -37 -68 -39q-68 -10 -73 56q-2 62 1.5 158.5t13.5 181.5q-10 358 -19 590 q-25 127 -22 159q0 12 1 25.5t2 25.5q0 5 -1.5 14.5t-1.5 14.5q-2 53 29 83t90 32q55 1 200 3t162 -20q28 -2 73 -0.5t72 1.5q238 29 258 -129z" />
<glyph unicode="g" horiz-adv-x="1195" d="M1140 973q-3 -253 -169 -241q-77 -7 -77 137q-7 13 -7 52.5t7 75.5q0 63 -18 95q-23 31 -84 41q-273 7 -524 -317q-10 -232 0 -391q-9 -130 130 -188q59 -68 215 -77q104 -3 194 41q-3 29 -1 69q-4 30 0 61q-81 -15 -110 -3q-34 0 -55 25.5t-23 56.5q8 80 234 88 q150 -13 198 -6q66 -36 70 -77q-4 -45 -31 -70.5t-70 -23.5q-5 -91 -15 -150q1 -21 0.5 -56t7.5 -59q0 -39 -24 -65.5t-65 -29.5q-78 -9 -87 68q-160 -44 -264 -24q-234 -3 -336 121q-190 111 -195 338q20 273 201 604q215 320 512 316q209 -31 289 -128q89 -106 97 -283z " />
<glyph unicode="h" horiz-adv-x="1162" d="M1099 1251q0 -14 -8 -39q-31 -304 -47 -413q-22 -92 -20 -348t27 -294q12 -166 -73 -155q-55 -12 -67 73q-6 7 -27 130q17 49 7 201q-265 -29 -399 -17q-142 -3 -219 4q17 -314 -17 -347q-17 -44 -51 -53q-48 -2 -67 58q-20 48 -20 236q-2 155 -15.5 436t-37.5 385 q15 105 22 181q22 73 85 85q58 -7 101 -33.5t39 -80.5q-1 -74 -32 -227.5t2 -221.5q-7 -12 30 -200q24 -26 98 -24q66 -7 228 29q125 9 210 -19q-24 212 -49 337q30 267 65 341q56 89 109 82q48 3 87 -31t39 -75z" />
<glyph unicode="i" horiz-adv-x="379" d="M323 889q0 -118 -38 -305q15 -231 2 -308q-11 -44 -11 -114q-1 -58 -11 -94q-23 -68 -81 -80q-68 14 -76 82q-4 85 17.5 248t17.5 208q2 310 -13 508q-104 202 -65 217q5 118 99 145q106 -2 150 -167q5 -65 5 -214q0 -110 4 -126z" />
<glyph unicode="j" horiz-adv-x="998" d="M942 705q2 -398 -234 -565q-121 -166 -373 -142q-154 12 -221 24q-104 70 -99 178q0 76 75 179q69 165 122 155q32 2 57 -22t25 -61q-2 -31 -51.5 -92.5t-82.5 -126.5q2 -73 139 -78q237 58 334 162q92 75 84 310q-4 229 -55 396q-22 156 -22 209q0 52 33.5 90.5 t85.5 37.5q38 8 69 -30q37 -32 59 -158q9 1 29 -135q9 -283 26 -331z" />
<glyph unicode="k" horiz-adv-x="1062" d="M1010 1260q0 -21 -22 -52q-22 -49 -164 -148q-220 -89 -387 -377q212 -185 312 -272q214 -223 207 -341q-4 -21 -36.5 -41t-62.5 -20q-57 0 -147 114q-82 104 -140 208q-31 9 -270 237q0 -12 -24 -3q-5 -311 -13 -405q3 -177 -86 -163q-58 -9 -68 52q-3 16 0 103 q-5 140 7 400t-43 542q-10 232 116 275q123 -19 132 -103q-2 -92 -24 -245q-26 -195 -9 -248q120 154 471 471q-11 38 6 45q42 40 88 64q23 4 45 4q42 2 70.5 -28t41.5 -69z" />
<glyph unicode="l" horiz-adv-x="896" d="M893 143q-2 -47 -72 -71q-34 -16 -196 -14q-282 32 -408 -78q-5 20 -7 20q-36 2 -62.5 21.5t-28.5 65.5q-10 101 -35.5 328.5t44.5 268.5q7 86 -3.5 283t-5.5 313q-22 38 9.5 63.5t84.5 23.5q140 32 144 -183q30 -401 -41 -1049q59 53 338 22q138 39 174 53q66 -2 65 -67 z" />
<glyph unicode="m" horiz-adv-x="1369" d="M1304 1161q-10 -21 -38 -161q17 -106 11 -285q-17 -32 -48 -251q-7 -97 2 -181q-2 -29 5.5 -105.5t-0.5 -92.5q-7 -70 -84 -63q-58 -5 -67 70q-12 33 2 155q-32 91 -43 271t18 277q-70 -128 -197 -447q-27 -135 -92 -264q4 0 4 -12q-2 -53 -55 -50q-104 2 -405 686 q-12 -90 -46 -234q-44 -213 -58 -317q19 -14 21.5 -41t1.5 -44q-2 -72 -79 -75q-44 1 -67 44q-8 22 -17 90q-5 105 23 263q35 232 29 278q8 74 10 217q-10 60 -13 201.5t-13 182.5q7 45 37 71t78 30q37 -5 80 -29q85 -58 152 -280q102 -275 230 -742q43 138 125 406 q18 77 83 341q53 92 75 142q33 82 74.5 118.5t77.5 34.5q159 12 183 -204z" />
<glyph unicode="n" horiz-adv-x="1145" d="M1073 729q0 -26 -20 -171q31 -258 -9 -341q-99 -179 -228 -244q-142 20 -253 187q-65 101 -145 272q-48 121 -136 287q-46 -275 3 -349q12 -266 -46 -315q-17 -46 -62 -50q-25 0 -46.5 18t-21.5 56q0 -11 4 6q18 81 17 227q-5 121 -33.5 392t-29.5 465q8 200 126 183 q121 -14 181 -133q1 -14 25 -222q81 -236 219 -436q143 -310 213 -394q56 72 82 289q-32 240 -10 592q-89 97 -82 138q5 58 34 108q31 54 89 42q121 11 54 -344q70 -29 71 -118t4 -145z" />
<glyph unicode="o" horiz-adv-x="1201" d="M1132 790q0 -314 -151 -519q-102 -281 -389 -252q-102 1 -172 -4q-184 62 -274.5 207t-97.5 360q12 229 184 544q157 258 408 285q237 -25 375 -206q94 -116 139 -287q-29 -63 -22 -128zM957 611q18 142 -30 323q-60 162 -161 186q-34 17 -51 18q-26 0 -74.5 -14.5 t-72.5 -9.5q-8 0 -18 4q-123 -109 -201.5 -254t-106.5 -320q-10 -73 36 -167q51 -80 151 -134t196 -74q152 -5 280 154q58 129 52 288z" />
<glyph unicode="p" horiz-adv-x="1181" d="M1166 993q-5 -169 -152 -300q-60 -108 -316 -205q-145 -36 -352 -189l-23 -219q-52 -44 -105 -37q-39 -7 -39 46q-10 94 -23 308t54 253q19 181 -21 456h-27q-109 82 -94 133q5 56 210 140q138 3 272 -32q238 -7 387 -55q215 -125 229 -299zM961 988q-4 104 -167 150 q-120 9 -248 -6q-73 23 -133 13q0 -22 3 -65q12 -181 -18 -548q223 76 251 69q153 75 220 194q116 120 92 193z" />
<glyph unicode="q" horiz-adv-x="1289" d="M1241 621q-10 -181 -92 -310q-43 -168 -186 -229q-7 -53 5 -191q-96 -92 -151 -91q-32 4 -47.5 48t-32.5 176q-61 -19 -119 -14q-224 14 -365 191q-166 222 -135 497q-89 249 106 432q206 211 445 278q265 -5 451 -319q119 -213 121 -468zM1056 575q-5 144 -112 331 q-132 229 -277 226q-94 -16 -186 -130q-153 -123 -172 -362q-33 -203 77.5 -354t267.5 -79q15 -12 37 -9q-29 78 -19 138q-10 127 115 132q87 -2 109 -195q152 102 160 302z" />
<glyph unicode="r" horiz-adv-x="1196" d="M1159 894q-9 -269 -432 -423q56 -29 108 -188q1 -104 54 -206q-48 -92 -92 -91q-36 4 -80 91q-31 90 -68 155q-33 56 -81 166q-131 -65 -271 -65q0 -91 -44 -237q-41 -55 -87 -55q-43 10 -40 82q12 131 22.5 411t-8.5 475q0 32 -2 121q-83 37 -80 112q-3 111 200 81 q32 41 138 13q278 -13 478 -112q290 -63 285 -330zM935 876q-8 37 -37 80q-9 24 -50 51q-112 107 -522 147q38 -152 -41 -683q229 67 387 152q255 63 263 253z" />
<glyph unicode="s" horiz-adv-x="973" d="M928 1116q-5 -145 -126 -140q-89 -7 -106 150q-27 6 -44 2q-96 -2 -213 -68q-144 -60 -142 -162q-2 -60 123 -159q119 -82 285 -188q157 -158 140 -264q13 -118 -164 -202q-99 -94 -220 -99q-188 52 -330 156q28 104 70 109q6 3 26 -9q116 -76 215 -65q60 -1 118 16 q85 17 80 77q-3 37 -184 146q-186 94 -244 215q-149 159 -166 285q-8 183 237 337q145 123 401 131q60 -12 137 -76t107 -192z" />
<glyph unicode="t" horiz-adv-x="1041" d="M1017 1248q-5 -145 -415 -120q47 -106 35 -244q-43 -107 -45 -271q-15 -174 -24 -564q-66 -25 -111 -35q-32 8 -37 46q-14 124 7.5 347t16.5 282q-9 52 0.5 153.5t-24.5 132.5q0 78 15 143q-112 27 -338 27q-63 45 -73 104q-2 34 39 43q41 15 138 32q185 26 311 17 q278 -25 338 29q155 -22 167 -122z" />
<glyph unicode="u" horiz-adv-x="1135" d="M1077 891q2 -340 -126 -563q-77 -350 -369 -316q-212 22 -323 94q-116 143 -151 312q-36 140 -29 287q-9 95 -15 219t9 180q7 84 4 166q80 77 148 83q21 -5 36 -47q26 -65 27 -176q-3 -96 11.5 -283.5t-23.5 -259.5q-1 -212 45 -309q70 -116 261 -102q176 1 229 106 q56 80 54 274q-15 250 -52.5 430.5t15.5 196.5q3 75 25 123q31 59 91 56q94 3 107 -82q21 -41 4 -143q-11 -248 22 -246z" />
<glyph unicode="v" horiz-adv-x="1137" d="M1111 1283q2 -126 -614 -1235l140 -33q-40 14 -64 17q-17 -15 -37 -15q-19 0 -34.5 33.5t-61.5 173.5q-36 116 -199 459q-17 99 -86 307q-34 44 -76 119q-28 87 -50 154l10 5q0 39 35 74t76 27q34 -9 70 -40q53 -42 128 -360l224 -730q42 201 107 413q55 241 86 321 q35 135 46 191q22 116 69.5 160.5t105.5 73.5q47 -2 83.5 -32.5t41.5 -82.5z" />
<glyph unicode="w" horiz-adv-x="1647" d="M1597 1287q0 -43 -63 -152q-39 -140 -123 -432q-186 -309 -170 -681q-40 5 -135 4q-31 5 -43 38t-22 112q-27 94 -20 99q-21 128 -72 280q-102 244 -118 309q-102 -195 -135 -422q-37 -253 -114 -370q-56 -41 -101 -50q-30 0 -61 101q-21 54 -34 124q-89 306 -238 748 q-104 169 -95 247q-4 60 21 84t66 36q55 -9 103.5 -51.5t113.5 -283.5q17 -186 111 -757q107 172 116 413q76 196 47 394q33 85 58 118q31 87 70.5 134t95.5 28q50 7 75 -46q36 -31 56 -147q26 -84 19 -174q19 -104 77 -314q43 -191 68 -299q29 352 164 678q2 129 21 177 q37 96 84 121.5t73 40.5q42 -5 74.5 -34t30.5 -73z" />
<glyph unicode="x" horiz-adv-x="1072" d="M1015 1239q0 -140 -148 -341q-51 -166 -181 -299q53 -143 248 -568q-7 -9 -38 -7q-12 0 -26 17q-3 5 -111 142q-76 109 -194 297q-94 -137 -201 -229q-96 -104 -210 -207l13 -8q-112 -9 -116 53q2 32 454 490q-363 462 -380 665q-2 48 29.5 88t79.5 47q75 0 130 -154 q46 -104 76 -187q24 -91 87 -241q190 188 248 411q0 33 8 72q12 48 41 73q28 33 74 35q49 1 82 -45q34 -41 35 -104z" />
<glyph unicode="y" horiz-adv-x="1106" d="M1087 1258q-7 -50 -61 -94q-33 -39 -77 -68q-68 -40 -108 -135q-104 -149 -187 -461q-111 -316 -183 -486l-22 22q-114 2 -109 48q3 3 10 20q90 213 181 473q-186 112 -336 314q-65 116 -98 188q-59 116 -56 175q-7 46 22 76t68 27q36 3 72 -26q34 -29 108 -184 q78 -140 262 -359q36 190 110 364q152 162 300 217q102 -4 104 -111z" />
<glyph unicode="z" horiz-adv-x="1050" d="M1010 1234q-5 -17 -27 -55q-20 -56 -181 -310q-206 -193 -490 -794q89 89 222 91q113 10 176 -4q138 19 128 -63q-2 -50 -61 -70q-41 -20 -221 -19q-58 4 -198.5 7t-156.5 -14q-32 -1 -54 32t-24 57q0 34 268 456q182 396 287 553q-186 29 -565 63q-55 84 -58 142 q6 54 109 63q97 -9 271 -4.5t340 -17.5q244 35 235 -113z" />
<glyph unicode="{" horiz-adv-x="748" d="M643 1261q0 -39 -34 -75.5t-83 -53.5q-63 -12 -89 -29q-38 -47 -39 -146q5 -35 14.5 -110.5t7.5 -127.5q2 -115 -65 -193q63 -60 84 -205q1 -74 -22 -192.5t-21 -171.5q-14 -49 7 -63q7 -5 56 -10q79 -15 84 -97q-5 -75 -84 -72q-119 -19 -183 47.5t-64 201.5 q3 55 24.5 154t28.5 164q-2 75 -23.5 93t-96.5 45q-85 12 -78 107q-4 50 37 65q39 10 84 22q39 24 51 94q-15 48 -38.5 148.5t0.5 138.5q9 171 74 263q104 92 239 112q46 -6 89.5 -28.5t39.5 -80.5z" />
<glyph unicode="|" horiz-adv-x="659" d="M463 478q-30 -108 -59 -319.5t26 -332.5q0 -128 -102 -118q-65 -29 -65 108q3 34 5 104q3 53 2 95q-58 654 -74 982q43 -24 40 85q-21 92 -16 150q-32 145 70 135q147 -7 147 -217z" />
<glyph unicode="}" horiz-adv-x="891" d="M713 521q0 -79 -97 -105q-55 -23 -75 -37q-31 -19 -29 -97q0 -48 30 -163.5t23 -164.5q5 -133 -60.5 -181t-197.5 -58q-75 7 -65 75q5 56 78.5 74t80.5 83q-19 63 -47 180t-8 184q2 170 84 228q-46 57 -53 181q-3 60 8 142.5t19 159.5q-1 33 -8 69q-9 22 -12 27t-24 14 q-65 3 -133 29q-58 8 -53 97q-3 54 44 83q40 23 110 26q114 5 215.5 -77t40.5 -218q13 -72 -11.5 -198t-12.5 -181q-2 -60 39 -92q38 -2 72 -14q44 -14 42 -66z" />
<glyph unicode="~" horiz-adv-x="1312" d="M1120 1000q-2 -97 -79 -161t-145 -69q-94 7 -313 131.5t-177 33.5q-39 4 -84.5 -69.5t-91.5 -66.5q-29 -5 -51 19.5t-27 50.5q2 17 10 37q41 70 104 135q89 73 140 68q63 -3 210 -76q99 -18 215 -52q36 -32 51 -29q38 0 56 68.5t77 88.5q43 7 75.5 -27t29.5 -82z" />
<glyph unicode="&#xa1;" horiz-adv-x="560" d="M481 1075q0 -41 -41 -76t-70 -35q-41 2 -79 38.5t-25 57.5q2 5 10 44q2 9 6 26q20 65 82 63q46 3 83.5 -30t33.5 -88zM432 753q0 -81 -9 -226q-66 -128 -78 -259q-4 -111 -26 -191q-25 -133 -77 -210q-39 -31 -76 -27q-110 -17 -110 124q0 46 38 174q12 65 63 195 q5 87 70 287q10 81 43 145q32 76 76 73q35 0 57 -25t29 -60z" />
<glyph unicode="&#xa2;" horiz-adv-x="942" d="M841 889q0 -165 -117 -159q-53 -3 -77 38q-17 17 -28 67.5t-20 96.5l5 -2h-3l-4 4q-34 -161 -167 -507q63 -23 123 -29q55 -5 142 22q10 3 15 3q26 0 45.5 -24t17.5 -46q2 -46 -101 -90q-90 -22 -163 -17q-48 -4 -101 12q-33 -96 -75 -99q-51 -7 -48 34q-3 24 24 90 q-118 65 -162 156q-46 131 -46 250q-17 171 97 306t340 172q-11 52 44 169q0 36 36 36q29 -2 48.5 -17t19.5 -44q0 -26 -32 -156q68 -29 129.5 -92t57.5 -174zM461 934q-65 -41 -133.5 -114.5t-61.5 -160.5q5 -121 89 -190q39 161 106 465z" />
<glyph unicode="&#xa3;" horiz-adv-x="1150" d="M1050 1005q-2 -48 -43 -83.5t-75 -37.5q-62 5 -113 104q-58 132 -184 157q-12 2 -38 -5q-53 -27 -76 -58q-23 -32 -35 -90q4 -99 17 -372q50 25 163 35q59 -3 107 -20q55 -21 55 -60q1 -78 -103 -99q-25 5 -54 7.5t-46 4.5q-23 0 -151 2l4 -68q-2 -91 20 -287 q86 13 383 -31q75 50 85 -36q5 -29 -46 -44q-79 -26 -353 -31q-118 9 -193 29q-43 17 -69 84q-8 53 -34 363q-87 12 -102 0q-65 -6 -63 69q-9 58 63 83q15 2 121 16q-46 237 -31 298q6 178 76 313q87 138 269 140q178 -21 287 -111.5t150 -249.5q9 -12 9 -22z" />
<glyph unicode="&#xa4;" horiz-adv-x="1157" d="M1050 915q0 -34 -72 -104q-38 -65 -79 -91q7 -41 9 -111q-2 -99 -58 -186q75 -99 70 -133q2 -29 -25.5 -54.5t-56.5 -25.5q-55 -2 -114 102q-69 -12 -135 -5q-89 -2 -137 14q-13 -43 -71 -80q-64 -62 -101 -77q-38 0 -63.5 28t-28.5 62q1 36 43 104.5t78 85.5 q-27 44 -24 94q2 107 77 186q-166 210 -130 254q2 49 36 80t70 26q39 -2 77 -48q29 -53 104 -145q32 29 102 31q82 -7 159 -38q116 149 176 121q36 7 58 -24.5t36 -65.5zM727 614q-7 62 -53 89l-5 -3q-26 0 -74.5 -17t-75.5 -14q-74 -56 -70 -113q7 -78 131 -73 q137 -5 147 131z" />
<glyph unicode="&#xa5;" horiz-adv-x="1299" d="M1190 565q-2 -53 -72 -68q-36 -14 -97 -11q-57 6 -127 -13q-97 8 -109 12q-22 -65 -39 -166q65 17 123 14q71 7 136 -17q79 -26 74 -87q6 -63 -86 -63l-302 -2q17 -111 12 -111q-14 -55 -75 -67q-56 -1 -73 41q-14 22 -12 82q-2 39 3 65l-157 -19q-77 2 -124 24 q-74 2 -82 75q8 53 82 82q25 2 114 5q34 -3 102.5 -2t81.5 -4q5 20 12 69l-53 88q-22 -7 -119 0q-98 -4 -138 -16q-64 5 -70 63q8 58 68 72q42 9 193 10q-345 640 -285 668q-4 34 19 58.5t57 22.5q36 -3 58.5 -42t54.5 -111q46 -125 51 -114q69 -154 186 -548l52 70 q42 109 162 385q36 115 128 343q49 29 78 29q38 -1 65 -28.5t29 -64.5q2 -6 -2 -18q-32 -134 -68 -209q-60 -171 -138 -453q-17 12 85.5 35t136.5 -9q75 -12 65 -70z" />
<glyph unicode="&#xa6;" horiz-adv-x="594" d="M377 754q-8 -109 -102 -105q-57 -4 -67 83q-15 29 -24 126q-8 185 4 333q1 185 97 162q41 16 51 -44q16 -84 39 -297zM387 292q-8 -193 7 -382q-39 -60 -46 -149q-3 -77 -65 -58q-76 -2 -68 96l-3 271q-7 198 8 276q19 79 77 84q80 2 90 -138z" />
<glyph unicode="&#xa8;" horiz-adv-x="911" d="M727 1567q0 -14 -29 -55q-26 -65 -72 -58q-42 2 -67 17.5t-23 59.5q0 43 36 86.5t75 32.5q34 5 54.5 -19.5t25.5 -63.5zM336 1553q19 -53 -3 -79.5t-63 -22.5q-74 5 -103 107q9 89 104 86q86 20 65 -91z" />
<glyph unicode="&#xa9;" horiz-adv-x="1853" d="M1700 734q-14 -70 -36 -142q-31 -304 -256 -437q-273 -109 -544 -208q-285 39 -477 183q-239 187 -230 409q-10 326 188 548q194 241 527 285q5 -25 31 -24q-2 0 46.5 12t112.5 5q285 -15 455.5 -133.5t182.5 -497.5zM1531 674q15 154 -121 292q-135 160 -333 126 q-29 36 -91.5 28.5t-91.5 -12.5q-20 0 -41 10q-191 -80 -343 -234q-193 -116 -167 -346q26 -169 239 -267q155 -102 382 -114q278 15 393 135q203 138 174 382zM1237 831q5 -65 -25 -124q-38 -55 -101 -53q-44 -12 -75.5 29t-37.5 83q7 33 11 62q-17 1 -53 -4 q-57 -17 -92 -94q-29 -51 -29 -121q0 -59 44 -124q37 -58 94 -62q20 2 54.5 14t49.5 20q31 -3 57.5 -26t22.5 -59q2 -48 -92 -82q-60 -31 -111 -37q-143 6 -235 124q-111 126 -120 287q14 152 97 266q156 143 306 161q102 -31 197 -100t38 -160z" />
<glyph unicode="&#xab;" horiz-adv-x="1229" d="M1048 106q0 -31 -24 -54t-44 -23q-55 3 -208.5 145t-90.5 123q2 32 24 59.5t133 116t121 73.5q31 2 48 -21t20 -52q2 -24 -17 -46q-53 -43 -141 -116q5 -41 62 -88t88 -74.5t29 -42.5zM601 94q1 -29 -19.5 -53t-52.5 -22q-58 1 -206.5 79t-136.5 187q-3 32 29 58 q17 15 186 62t149 122q49 -5 44 -49q7 -22 -15 -45q-41 -37 -118 -78q-60 -39 -108 -72q62 -41 154 -80q78 -65 94 -109z" />
<glyph unicode="&#xad;" horiz-adv-x="913" d="M759 582q0 -79 -121 -75l-92 -7q-227 17 -372 44q-56 -23 -56 48q3 58 68 80q27 0 113 11l90 -4q196 33 319 -25q55 -29 51 -72z" />
<glyph unicode="&#xae;" horiz-adv-x="1939" d="M1799 744q-12 -109 -65 -222q-55 -276 -290 -380q-272 -84 -533 -174q-302 34 -501 170q-267 185 -256 410q-11 338 227 584q244 285 576 256l53 -19q67 10 123 15q227 17 419 -175t247 -465zM1628 638q0 290 -135.5 426.5t-347.5 65.5q-54 7 -115.5 1t-94.5 -8 q-22 3 -41 9q-208 -64 -363 -216q-166 -184 -178 -339q-17 -246 202 -316q227 -126 501 -70q238 7 374 111q173 116 198 336zM1365 770q-25 -147 -179 -239q-36 -43 -25 -99q10 -14 29 -58q15 -41 15 -63q0 -29 -31 -52t-49 -20q-48 0 -84 90q-99 113 -92 115 q-38 -11 -70 -11q-15 -97 -9 -112q-13 -67 -78 -63q-56 0 -72 66q-7 50 -15 135q5 24 7.5 74.5t-0.5 74.5q3 35 -17 128q3 78 15 116q-39 42 -38 80q-5 133 157 157q113 -16 210 -62q318 -63 326 -257zM1128 736q-2 52 -150 64q-36 -29 -60 -175q208 70 210 111z" />
<glyph unicode="&#xaf;" horiz-adv-x="997" d="M845 1231l-613 -33l-15 167l674 -36z" />
<glyph unicode="&#xb0;" horiz-adv-x="882" d="M732 1087q-3 -119 -92 -185t-179 -74q-126 10 -243 106q-78 39 -76 174q10 117 105 199q89 50 209 74q102 -5 168.5 -72t107.5 -222zM575 1092q5 55 -39 89t-104 38q-150 5 -135 -98q7 -56 59 -83.5t108 -44.5q46 -12 78.5 16.5t32.5 82.5z" />
<glyph unicode="&#xb1;" horiz-adv-x="826" d="M751 594q0 -77 -138 -73q-57 -6 -140 3q-16 -55 -24 -205q-4 -46 -56 -46q-67 5 -65 58l3 208q-70 -10 -196 22q-46 -1 -43 57q-5 66 63 73q21 -5 77 -8q70 -11 92 -5l7 223q-5 -3 18 13t50 20q41 -6 57 -50q17 -58 22 -205q65 -10 217 -44q58 17 56 -41zM698 85 q-5 -37 -49 -59q-69 -14 -219 -2l-225 -5q-75 -10 -65 70q-10 59 63 77q12 0 87 6l87 -6q48 0 125.5 14.5t127.5 -11.5q70 7 68 -84z" />
<glyph unicode="&#xb4;" horiz-adv-x="437" d="M358 1797q0 -34 -83 -155q-39 -125 -70 -156.5t-77 -26.5q-27 -12 -52 10.5t-21 54.5q0 31 84.5 143.5t102 161t36.5 42.5q29 3 55.5 -17.5t24.5 -56.5z" />
<glyph unicode="&#xb6;" horiz-adv-x="1698" d="M1591 1270q-6 -113 -212 -106h-56q-74 10 -82 0q-10 -97 -4 -637q-15 -346 -34 -645q-19 -48 -56 -184q-17 -44 -48 -51q-65 -5 -70 61q10 82 -13.5 241.5t30.5 210.5q9 116 5.5 426t-12.5 324q-3 12 -5 111q-3 85 -3 129q-350 -51 -545 -95q-221 -101 -228 -304 q12 -138 141 -215q55 -48 210 -111q22 77 28 162q-2 48 -2 101q-14 312 159 324q63 -3 87 -121q-26 -55 -40 -132q-10 -104 -6 -133q-14 -73 -11 -240q0 -81 -34 -287.5t50 -277.5q-7 -161 -77 -161q-62 -6 -77 29q-7 19 -10 77q-4 89 -56 533q-233 61 -347 138 q-191 124 -184 314q10 126 59 254q64 84 178 166q302 172 1041 227q191 1 224 -128z" />
<glyph unicode="&#xb7;" horiz-adv-x="502" d="M341 577q-1 -45 -42 -73t-75 -30q-38 4 -73 36.5t-21 50.5q-2 43 34 74t77 36q42 -7 73 -27.5t27 -66.5z" />
<glyph unicode="&#xbb;" horiz-adv-x="1169" d="M1067 276q-2 -51 -165 -156t-178 -113q-28 3 -55 26t-19 40q-1 41 111 104q74 52 149 77q-62 51 -130 84q-79 53 -104 80q-24 21 -26 43q7 56 43 54q19 -1 177.5 -95t167.5 -91q30 -22 29 -53zM568 292q2 -65 -118.5 -172.5t-178.5 -116.5q-27 12 -47.5 36t-16.5 53 q-2 22 20 39q26 33 83 67t84 87q-51 29 -143 135q-29 17 -29 37q-2 29 23.5 53t46.5 22q25 0 114 -69q104 -82 131.5 -114.5t30.5 -56.5z" />
<glyph unicode="&#xbf;" horiz-adv-x="1058" d="M777 1075q0 -39 -32 -65.5t-59 -26.5q-41 2 -81 37.5t-26 54.5q0 43 32 73t72 35q44 -7 70.5 -32t23.5 -76zM935 102q-7 -93 -90 -179q-89 -89 -210 -82q-164 17 -382.5 188.5t-138.5 313.5q19 133 122.5 279t236.5 103q39 -29 99 -47q80 -19 95 -23v12q0 14 -3.5 41.5 t-3.5 39.5q2 27 27.5 51.5t54.5 26.5q72 2 77 -203q17 -130 -177 -118q-40 -19 -101 -17t-80 2q-51 3 -70 -32t-39 -89q-6 -98 85.5 -194t207.5 -85q33 -8 82.5 46.5t110.5 75.5q89 -7 97 -110z" />
<glyph unicode="&#xc0;" horiz-adv-x="1053" d="M531 1526q0 -31 -27.5 -53t-51.5 -22q-32 1 -61 41q-16 17 -82.5 148.5t-52.5 154.5q0 35 27.5 55.5t57.5 30.5q43 -2 70 -51q40 -58 86 -164q35 -103 34 -140zM1036 97q-12 -32 -36 -53.5t-49 -21.5q-45 10 -70 62q-21 44 -64 146q-88 0 -192 -17q-74 14 -197 28 q-150 5 -192 -2q-12 -73 -55 -183q-34 -51 -72 -41q-22 0 -42.5 20t-23.5 42q1 10 3 20q67 272 111 652q220 499 198 562q41 51 104 46q55 5 92.5 -24t85.5 -164q27 -65 42 -154q109 -174 249 -583q47 -51 33 -104q54 -180 75 -231zM719 447q-99 195 -289 560 q-14 -123 -41 -299q-54 -128 -94 -266q237 -15 314 -2q46 14 110 7z" />
<glyph unicode="&#xc1;" horiz-adv-x="1082" d="M678 1797q0 -34 -84 -155q-39 -125 -70 -156.5t-77 -26.5q-27 -12 -52 10.5t-21 54.5q0 31 84.5 143.5t102.5 161t36 42.5q29 3 55.5 -17.5t25.5 -56.5zM1024 90q-2 -25 -21.5 -44t-60.5 -22q-44 0 -70 48q-19 71 -56 184q-86 -31 -193 -32q-77 5 -201 -9 q-156 15 -195 27q-12 -61 -58 -193q-22 -39 -60 -35q-27 -2 -52.5 18.5t-17.5 42.5q0 12 2 22q24 272 99 627q196 505 215 588q53 50 96 48q51 0 92 -33t94 -132q18 -86 52 -186q84 -181 154 -616q121 -11 114 -64q101 -174 67 -239zM710 449q-96 188 -244 522 q-56 -87 -109 -244q-33 -138 -57 -288q224 17 299 12q55 -6 111 -2z" />
<glyph unicode="&#xc2;" horiz-adv-x="1055" d="M672 1514q0 -26 -25.5 -44t-45.5 -19q-48 1 -188 254q7 -114 -65 -203q-19 -27 -46 -26q-58 -10 -60 58q-3 29 51.5 165.5t133.5 116.5q25 15 44 17q32 2 49.5 -27t78.5 -151q79 -126 73 -141zM1027 99q2 -31 -19.5 -55t-56.5 -22q-43 2 -77 45q-17 61 -60 175 q-84 -8 -188 -22q-70 -3 -187 10q-171 -17 -209 12q-13 -73 -51 -172q-31 -51 -66 -53q-28 -2 -46.5 17t-22.5 43q0 10 2 20q7 278 116 625q152 548 198 596q43 32 101 41q46 -4 91 -29.5t85 -141.5q42 -80 51 -169q78 -188 247 -620q31 -20 24 -70q55 -179 68 -230z M724 445q-94 185 -272 526q-27 -109 -63 -283q-58 -103 -107 -270q257 33 317 27q58 9 125 0z" />
<glyph unicode="&#xc3;" horiz-adv-x="1058" d="M749 1565q-1 -49 -65 -84q-39 -34 -93 -29q-55 9 -128.5 24.5t-93.5 37.5q-28 2 -54.5 -30t-56.5 -40q-28 5 -51 24.5t-19 47.5q1 58 68.5 102t110.5 60q46 1 100 -27t115 -38q19 0 49.5 18.5t46.5 5.5q30 -2 51.5 -23.5t19.5 -48.5zM1029 94q0 -33 -22 -53.5t-55 -16.5 q-42 2 -73 46q-14 51 -53 164q-97 -19 -213 -2q-60 -12 -173 10q-157 14 -204 0q-19 -63 -48 -175q-38 -50 -69 -50q-30 0 -54 19t-17 41q0 10 1 20q40 231 140 644q16 440 185 580q30 38 99 41q42 -5 79 -34t86 -149q26 -71 53 -155q77 -189 277 -635q3 -12 -2 -61 q63 -215 63 -234zM727 440q-106 195 -290 480q-7 -44 -77 -225q-22 -113 -82 -241q239 15 336 0q48 0 113 -14z" />
<glyph unicode="&#xc4;" horiz-adv-x="1063" d="M734 1567q0 -14 -29 -55q-26 -65 -72 -58q-42 2 -67 17.5t-23 59.5q0 43 35.5 86.5t75.5 32.5q34 5 54.5 -19.5t25.5 -63.5zM343 1553q19 -53 -3.5 -79.5t-63.5 -22.5q-73 5 -102 107q9 89 104 86q86 20 65 -91zM1026 96q1 -33 -22 -55t-55 -17q-46 -5 -73 49 q-23 60 -59 169q-90 -22 -184 -30q-80 15 -210 1q-177 29 -191 26q-12 -56 -55 -167q-32 -55 -68 -57q-24 0 -46 19t-19 45q-1 8 0 18q29 256 151 681q63 483 169 514q37 67 87 63q63 5 101.5 -26.5t102.5 -137.5q2 -90 31 -167q91 -212 215 -577q62 -68 58 -116 q80 -205 67 -235zM717 451q-92 170 -251 484q-33 -77 -97 -211q-50 -173 -70 -280q206 -19 302 8q51 2 116 -1z" />
<glyph unicode="&#xc5;" horiz-adv-x="1072" d="M771 1705q-3 -120 -91.5 -185.5t-179.5 -73.5q-126 10 -242 105q-79 40 -77 174q10 118 106 200q88 50 208 74q102 -6 168.5 -72.5t107.5 -221.5zM1036 96q2 -33 -21 -53.5t-54 -18.5q-53 2 -79 51q-17 53 -53 190q-92 -21 -184 -40q-84 -1 -206 9q-161 -21 -197 8 q-17 -63 -56 -177q-27 -55 -63 -55q-27 4 -49.5 19t-24.5 48q4 10 6 20q53 289 107 651q96 447 224 563q22 49 92 51q39 -2 76 -32t86 -149q39 -72 58 -154q89 -233 247 -597q19 -55 28 -99q60 -188 63 -235zM620 1712q-12 56 -57.5 91t-98.5 28q-129 9 -129 -87 q6 -54 61.5 -100.5t101.5 -40.5q48 0 81.5 25.5t40.5 83.5zM732 440q-106 195 -290 480q-7 -44 -77 -225q-22 -113 -82 -241q239 15 337 0q47 0 112 -14z" />
<glyph unicode="&#xc6;" horiz-adv-x="1736" d="M1674 1253q-7 -86 -111 -101q-65 -9 -146 -5q-144 14 -292 -72q17 -32 20 -102q2 -91 -10 -234q90 48 189 44q127 19 207 -18q75 -33 70 -96q2 -36 -31.5 -66.5t-59.5 -35.5q-23 0 -72 15t-78 -3q-56 -4 -251 -31q-24 -106 -51 -381q333 33 487 67q78 -5 78 -92 q2 -46 -53 -63q-46 -24 -271 -33q-7 -10 -144 -24q-121 -17 -199 -24q-92 -3 -91 99q-8 17 -8 58q-7 19 -40 84q-81 -15 -186 -2q-80 -5 -198 -20q-148 22 -194 20q-9 -58 -62 -174q-17 -48 -66 -51q-68 5 -65 60q0 7 3 20q48 273 204 587q12 128 80 338q32 70 61 142 q19 111 57 141q46 53 95 48q63 5 96 -25q51 -41 155 -292l92 -365q29 174 14 317q-7 120 -5 162q-4 16 -4 17q0 58 34.5 88t90.5 32q140 82 532 160q118 -54 123 -189zM758 440q-72 159 -280 531q29 -80 -77 -473q160 -61 234 -58h123z" />
<glyph unicode="&#xc8;" horiz-adv-x="910" d="M558 1526q0 -31 -27.5 -53t-50.5 -22q-33 1 -62 41q-15 17 -81.5 148.5t-53.5 154.5q0 35 27.5 55.5t58.5 30.5q42 -2 70 -51q39 -58 85 -164q36 -103 34 -140zM894 1268q-29 -85 -124 -114q-45 -14 -142 8q-106 -7 -150 -32q-36 -5 -135 -27q7 -74 10 -132 q-1 -82 -12 -205q82 7 220 -10q127 21 173 0q63 -19 72 -92q3 -27 -22 -57t-67 -35q-24 -2 -69.5 4t-79.5 1q-88 8 -281 3q-7 -124 -28 -373q340 64 489 44q78 -27 80 -92q-7 -53 -51 -74q-41 -20 -227 -22q-169 -27 -371 -51q-8 -17 -13 -15q-117 6 -120 203 q21 105 38 359.5t27 368.5q5 41 3.5 108.5t-17.5 129.5q0 46 36 85t80 29q159 84 459 106q193 -14 222 -118z" />
<glyph unicode="&#xc9;" horiz-adv-x="903" d="M689 1797q0 -34 -83 -155q-39 -125 -70 -156.5t-77 -26.5q-27 -12 -52 10.5t-21 54.5q0 31 84.5 143.5t102.5 161t36 42.5q29 3 55.5 -17.5t24.5 -56.5zM879 1251q-9 -73 -97 -89q-75 -15 -174 -22q-98 -8 -144 0q-31 -10 -121 -43q2 -63 0 -124q-2 -101 -15 -219 q83 33 216 33q123 -16 188 -38q67 -15 62 -85q0 -29 -26 -68.5t-58 -23.5q-29 -2 -80 3t-72 2q-95 3 -263 -2q7 -118 -71 -341q308 19 515 -5q80 7 77 -65q1 -62 -51 -80q-46 -23 -255 -17q-131 -26 -295 -50q-56 -20 -60 -20q-106 -4 -119 203q3 119 17.5 382t59.5 346 q-9 45 -18.5 121t-4.5 115q4 46 32 88t81 28q166 79 473 43q186 41 203 -72z" />
<glyph unicode="&#xca;" horiz-adv-x="899" d="M669 1514q0 -26 -25.5 -44t-46.5 -19q-47 1 -187 254q6 -114 -65 -203q-19 -27 -46 -26q-58 -10 -60 58q-3 29 51.5 165.5t132.5 116.5q26 15 45 17q32 2 49 -27t79 -151q78 -126 73 -141zM876 1277q0 -86 -93 -127q-61 -12 -160 -8q-111 -21 -155 -10q-33 -6 -127 -26 q7 -73 12 -145q0 -80 -25 -219q78 41 213 19q142 33 193 7q66 -27 63 -94q7 -39 -21 -70t-59 -32q-31 0 -86.5 6t-67.5 -1q-100 10 -266 5q-10 -150 -32 -364q252 -1 494 31q62 -17 74 -87q-12 -54 -67 -77q-36 -24 -276 -25q-115 -17 -316 -46q-7 -17 -14 -17 q-109 0 -107 167q10 130 14.5 396t38.5 360q5 53 -10.5 122t-1.5 124q-4 53 28 92t93 29q157 82 531 78q121 2 130 -88z" />
<glyph unicode="&#xcb;" horiz-adv-x="916" d="M741 1567q0 -14 -29 -55q-26 -65 -72 -58q-43 2 -67.5 17.5t-22.5 59.5q0 43 35.5 86.5t74.5 32.5q35 5 55.5 -19.5t25.5 -63.5zM350 1553q19 -53 -3.5 -79.5t-63.5 -22.5q-73 5 -102 107q8 89 104 86q85 20 65 -91zM884 1278q7 -106 -101 -129q-54 -6 -155 -23 q-107 7 -154 4q-27 -4 -128 -38q14 -65 14 -119q-5 -103 -37 -210q100 7 237 31q129 3 179 -28q65 -29 78 -88q-8 -43 -27 -71t-73 -34q-21 -3 -72 0.5t-72 3.5q-110 10 -261 -29q-17 -96 -87 -348q372 65 533 36q83 0 68 -79q2 -46 -49 -78q-41 -12 -284 -19 q-106 -17 -283 -70q-36 7 -41 7q-106 -12 -92 160q-24 157 -14 364.5t60 413.5q-9 34 -17.5 114.5t-4.5 117.5q0 52 39 87.5t80 30.5q173 80 497 92q152 16 167 -99z" />
<glyph unicode="&#xcc;" horiz-adv-x="676" d="M413 1526q0 -31 -27.5 -53t-50.5 -22q-33 1 -62 41q-15 17 -81.5 148.5t-53.5 154.5q0 35 27.5 55.5t58.5 30.5q42 -2 70 -51q39 -58 85 -164q36 -103 34 -140zM660 1285q-30 -97 -223 -116q15 -24 14.5 -74.5t-2.5 -101.5l20 -225q-20 -73 -31 -225t-8 -241 q0 -36 5 -130q164 -3 161 -99q3 -78 -108 -70l-319 -49q-21 55 -38 74.5t-13 55.5q0 82 158 88q-35 261 -1 842q-72 118 -60 160q-34 -3 -51 -5q-135 -3 -128 99q-5 65 84.5 73.5t239.5 34.5l99 -11q191 23 201 -80z" />
<glyph unicode="&#xcd;" horiz-adv-x="683" d="M567 1797q0 -34 -84 -155q-39 -125 -70 -156.5t-77 -26.5q-27 -12 -52 10.5t-21 54.5q0 31 84.5 143.5t102.5 161t36 42.5q29 3 55.5 -17.5t25.5 -56.5zM652 1268q-7 -84 -176 -75q-29 -46 -35 -111t4 -97l4 -164q-2 -102 6.5 -274.5t-23.5 -239.5q-2 -41 1 -152 q158 -1 158 -70q3 -75 -110 -87l-278 -53q-55 62 -72.5 82.5t-19.5 54.5q2 66 184 95q-22 292 -112 835q17 108 29 160q-31 -3 -50 -3q-150 14 -143 97q10 60 104 93.5t227 28.5l131 -33q164 21 171 -87z" />
<glyph unicode="&#xce;" horiz-adv-x="678" d="M531 1514q0 -26 -25.5 -44t-46.5 -19q-48 1 -188 254q7 -114 -64 -203q-19 -27 -47 -26q-58 -10 -59 58q-4 29 51 165.5t133 116.5q26 15 44 17q33 2 50 -27t78 -151q79 -126 74 -141zM654 1295q0 -95 -174 -129q-21 -21 -23.5 -85t-4.5 -98l2 -218q-3 -62 -3 -211.5 t-11 -248.5q2 -46 12 -139q142 -26 137 -84q8 -85 -94 -67l-295 26q-45 -32 -63 -10t-12 51q-4 80 198 99q-94 287 -173 843q58 97 67 152q-26 -5 -46 -7q-130 3 -145 87q17 75 102 98t266 32l89 -16q157 7 171 -75z" />
<glyph unicode="&#xcf;" horiz-adv-x="698" d="M635 1567q0 -14 -29 -55q-26 -65 -72 -58q-42 2 -67 17.5t-23 59.5q0 43 35.5 86.5t75.5 32.5q34 5 54.5 -19.5t25.5 -63.5zM244 1553q19 -53 -3.5 -79.5t-63.5 -22.5q-73 5 -102 107q9 89 104 86q86 20 65 -91zM660 1292q9 -116 -186 -130q-6 -15 -11.5 -90t-1.5 -86 l-4 -198q9 -83 1.5 -255.5t-6.5 -230.5q-1 -37 -1 -150q134 12 155 -84q7 -56 -104 -49l-328 3q-8 -13 -23.5 10.5t-20.5 49.5q15 84 150 97q-38 280 -68 797q17 166 13 196q-25 -5 -46 -3q-157 -7 -128 101q-5 58 102.5 88.5t215.5 13.5l121 5q169 -10 170 -85z" />
<glyph unicode="&#xd1;" horiz-adv-x="1128" d="M835 1565q-2 -49 -65 -84q-40 -34 -94 -29q-55 9 -128.5 24.5t-93.5 37.5q-27 2 -53.5 -30t-57.5 -40q-27 5 -50 24.5t-20 47.5q2 58 69.5 102t109.5 60q46 1 100 -27t115 -38q19 0 50 18.5t46 5.5q31 -2 52 -23.5t20 -48.5zM1073 730q0 -27 -5 -184q-8 -222 -24 -331 q-59 -244 -208 -251q-148 24 -286 166q-76 126 -156 297q-25 128 -87 302q-39 -323 -22 -359q12 -228 -51 -312q-14 -49 -57 -51q-27 0 -48 19.5t-18 46.5q-2 -5 2 12q17 89 -7 222q29 164 -10.5 452.5t-3.5 416.5q-39 189 92 193q120 -10 171 -132q20 -32 65 -228 q83 -219 174 -461q138 -340 242 -398q63 75 40 302q-2 193 -24 562q-40 109 -26 169q-9 65 26 107q39 51 92 53q129 0 111 -317q8 -60 13 -143.5t5 -152.5z" />
<glyph unicode="&#xd2;" horiz-adv-x="1167" d="M732 1526q0 -31 -27 -53t-51 -22q-33 1 -62 41q-15 17 -81.5 148.5t-53.5 154.5q0 35 27.5 55.5t58.5 30.5q42 -2 70 -51q39 -58 85 -164q36 -103 34 -140zM1135 795q-62 -283 -149 -532q-122 -277 -402 -196q-81 -53 -156 -43q-182 44 -286 197.5t-110 317.5 q6 290 176 569q217 274 468 233q208 -15 324 -128q99 -148 94 -310q32 -56 41 -108zM976 623q-3 155 -66 282q-65 160 -149 227q-32 6 -49 6q-26 0 -80.5 -8.5t-66.5 -15.5q-9 0 -19 4q-136 -96 -218 -235t-118 -315q37 -87 66 -174q62 -95 142 -160t200 -63q167 -9 254 157 q79 128 104 295z" />
<glyph unicode="&#xd3;" horiz-adv-x="1166" d="M879 1797q0 -34 -84 -155q-39 -125 -69.5 -156.5t-76.5 -26.5q-28 -12 -52.5 10.5t-21.5 54.5q0 31 84.5 143.5t102.5 161t37 42.5q29 3 55.5 -17.5t24.5 -56.5zM1121 788q-1 -300 -95 -496q-246 -266 -483 -295q-55 1 -135 46q-174 70 -259.5 193.5t-119.5 319.5 q-7 292 160 499q210 285 473 322q200 0 316 -172q128 -150 142 -312q-7 -46 1 -105zM925 616q22 121 -14 294q-58 174 -181 222q-15 6 -32 6q-26 0 -66 -7.5t-84 -14.5q-5 -2 -16 2q-128 -62 -226 -202.5t-79 -362.5q2 -79 20 -167q64 -86 157.5 -148t226.5 -64 q132 -7 222 150q99 120 72 292z" />
<glyph unicode="&#xd4;" horiz-adv-x="1178" d="M865 1514q0 -26 -25.5 -44t-45.5 -19q-48 1 -188 254q7 -114 -65 -203q-19 -27 -46 -26q-58 -10 -60 58q-3 29 51.5 165.5t133.5 116.5q25 15 44 17q32 2 49 -27t79 -151q78 -126 73 -141zM1125 802q10 -261 -96 -549q-171 -273 -457 -253q-77 -9 -156 22 q-184 67 -277 219t-108 307q29 244 194 536q173 234 412 288q221 -37 363 -138q108 -126 108 -323q12 -58 17 -109zM980 621q-24 150 -45 290q-107 173 -203 224q-7 3 -24 3q-25 0 -74 -17.5t-71 -6.5q-10 0 -20 4q-137 -72 -190 -212.5t-126 -328.5q7 -99 46 -190 q38 -88 128.5 -147t214.5 -66q176 -15 260 142q81 126 104 305z" />
<glyph unicode="&#xd5;" horiz-adv-x="1249" d="M969 1565q-1 -49 -64 -84q-40 -34 -94 -29q-55 9 -128.5 24.5t-93.5 37.5q-28 2 -54 -30t-57 -40q-27 5 -50.5 24.5t-19.5 47.5q2 58 69 102t110 60q46 1 100 -27t115 -38q19 0 49.5 18.5t46.5 5.5q30 -2 51.5 -23.5t19.5 -48.5zM1176 790q-7 -353 -125 -539 q-158 -236 -418 -237q-83 -19 -159 -4q-175 63 -288 184.5t-135 378.5q22 231 231 548q196 284 433 261q183 -17 345 -148q83 -133 140 -318q-31 -58 -24 -126zM992 626q17 133 -21 292q-77 171 -172 195q-21 25 -40 25q-25 0 -73.5 -10t-72.5 -12q-9 -2 -19 2 q-135 -82 -231.5 -219.5t-86.5 -314.5q9 -104 57 -195q32 -97 126 -163.5t215 -73.5q171 -14 242 169q84 102 76 305z" />
<glyph unicode="&#xd6;" horiz-adv-x="1205" d="M915 1567q0 -14 -29 -55q-26 -65 -72 -58q-43 2 -67.5 17.5t-22.5 59.5q0 43 35.5 86.5t75.5 32.5q34 5 54.5 -19.5t25.5 -63.5zM524 1553q19 -53 -3.5 -79.5t-63.5 -22.5q-73 5 -102 107q9 89 104 86q85 20 65 -91zM1133 802q31 -331 -118 -551q-163 -251 -443 -297 q-72 46 -152 77q-173 59 -278.5 183t-85.5 312q-3 310 152 525q149 323 463 267q208 64 331 -76q94 -143 106 -343q25 -44 25 -97zM959 623q31 154 -61 290q-60 166 -147 212q-19 13 -38 13q-25 0 -73 -10t-73 -14q-9 0 -19 4q-109 -67 -219.5 -222t-94.5 -314 q10 -116 41 -184q39 -103 132 -159t226 -77q150 5 244 149q89 119 82 312z" />
<glyph unicode="&#xd7;" horiz-adv-x="891" d="M736 338q0 -29 -26 -50.5t-48 -21.5q-32 2 -131 103q-33 24 -80 87q-47 -60 -98 -111q-70 -103 -112 -84q-36 0 -65 30t-21 54q0 22 26.5 52.5t96.5 90.5q41 56 77 79q-46 42 -94 109q-70 70 -73 85q-2 27 19.5 48.5t46.5 21.5q43 2 103 -63q46 -53 88 -113q47 45 86 106 q56 62 92 75q32 -3 56 -21t21 -50q0 -29 -174 -210q83 -45 129 -96q99 -68 81 -121z" />
<glyph unicode="&#xd8;" horiz-adv-x="1212" d="M1169 790q-14 -314 -164 -517q-102 -283 -389 -254q-73 -5 -119 -12q-9 -38 -29 -125q-16 -46 -58 -56q-81 14 -89 84q3 35 37 165q-128 48 -215 200q-56 147 -107 307q8 263 218 500q193 367 466 336q57 -56 113 -71q5 30 21 79t81 61q29 3 59 -15t28 -52 q0 -21 -36 -162q161 -188 183 -468zM966 616q19 191 -65 410q-113 -258 -382 -816q78 -44 138 -43q150 7 282 164q34 128 27 285zM744 1142q4 -4 -5 -4q-26 0 -74.5 -17.5t-70.5 -6.5q-10 0 -21 4q-136 -72 -189 -212.5t-126 -328.5q1 -196 148 -326q43 193 142 466 q148 346 196 425z" />
<glyph unicode="&#xd9;" horiz-adv-x="1091" d="M614 1526q0 -31 -27 -53t-51 -22q-33 1 -62 41q-15 17 -81.5 148.5t-52.5 154.5q0 35 27 55.5t58 30.5q43 -2 70 -51q39 -58 85 -164q36 -103 34 -140zM1058 894q-61 -305 -119 -575q-99 -341 -383 -259q-167 -38 -286 61q-135 118 -188 301q-41 107 -38 295q0 77 12 203 t0 172q9 74 -5 179q80 60 137 77q41 -3 58 -41q20 -56 12 -196q0 -92 16 -253.5t-23 -260.5q41 -199 39 -297q65 -119 270 -133q181 22 227 144q49 63 54 262q-54 265 -39 444t5 167q10 76 24 118q31 65 96 58q77 9 100 -78q17 -43 28 -159q-4 -249 3 -229z" />
<glyph unicode="&#xda;" horiz-adv-x="1099" d="M751 1797q0 -34 -84 -155q-39 -125 -69.5 -156.5t-76.5 -26.5q-28 -12 -52.5 10.5t-21.5 54.5q0 31 84.5 143.5t102.5 161t37 42.5q29 3 55.5 -17.5t24.5 -56.5zM1048 893q8 -333 -63 -545q-234 -324 -464 -358q-140 -4 -275 186q-120 102 -154 237q-51 128 -53 317 q-5 53 2.5 171t6.5 198q5 87 -12 167q102 57 152 79q30 0 41 -39q25 -70 36 -193q-6 -87 -22 -252t-2 -267q29 -203 49 -297q96 -113 242 -109q171 -4 248 104q53 104 37 297q12 232 0.5 407t-18.5 188q3 76 25 120q43 63 92 58q77 5 108 -89q12 -36 9 -141q-2 -243 15 -239 z" />
<glyph unicode="&#xdb;" horiz-adv-x="1109" d="M758 1514q0 -26 -25.5 -44t-46.5 -19q-48 1 -188 254q7 -114 -65 -203q-18 -27 -46 -26q-58 -10 -59 58q-4 29 50.5 165.5t133.5 116.5q26 15 44 17q33 2 50 -27t78 -151q79 -126 74 -141zM1058 893q9 -273 -70 -586q-150 -338 -438 -314q-168 -25 -299 123 q-123 142 -162 314q-45 108 -24 265q-16 95 -14 199t-2 205q7 70 4 184q90 76 143 69q33 -4 53 -46q14 -57 38 -190q-31 -90 -51.5 -250.5t18.5 -273.5q12 -188 46 -290q72 -147 270 -125q133 -13 230 134q38 75 72 274q-55 272 -72 432.5t9 166.5q-3 76 22 120 q33 61 103 55q73 3 100 -82q16 -46 24 -168q-15 -227 0 -216z" />
<glyph unicode="&#xdc;" horiz-adv-x="1162" d="M823 1567q0 -14 -29 -55q-26 -65 -72 -58q-43 2 -67.5 17.5t-23.5 59.5q0 43 36 86.5t75 32.5q35 5 55 -19.5t26 -63.5zM432 1553q19 -53 -3.5 -79.5t-63.5 -22.5q-73 5 -102 107q8 89 104 86q85 20 65 -91zM1087 899q33 -355 -92 -592q-145 -314 -425 -360 q-164 39 -299 191q-107 121 -163 265q-23 119 -28 319q-10 61 -23 189t27 178q6 99 -7 196q80 68 141 63q40 0 52 -42q32 -55 3 -188q9 -92 2 -269t12 -250q-16 -195 42 -319q69 -104 231 -118q205 27 259 137q62 92 33 271q-12 297 -14 441t-3 175q-4 72 23 120 q38 53 96 58q80 -2 108 -98q13 -35 8 -136q-19 -306 17 -231z" />
<glyph unicode="&#xdd;" horiz-adv-x="1094" d="M763 1797q0 -34 -84 -155q-39 -125 -69.5 -156.5t-77.5 -26.5q-27 -12 -51.5 10.5t-21.5 54.5q0 31 84.5 143.5t102.5 161t37 42.5q29 3 55.5 -17.5t24.5 -56.5zM1080 1251q-8 -43 -51 -82q-60 -37 -99 -75q-49 -53 -94 -106q-95 -141 -169 -498q-141 -353 -220 -456 l-10 2q-106 -9 -108 44q2 7 9 24q109 169 154 437q-132 106 -337 362q-47 89 -68 167q-61 114 -72 193q4 39 38 70t66 27q40 2 69 -27q34 -29 104 -172q78 -110 235 -326q79 153 173 320q90 190 271 215q97 -10 109 -119z" />
<glyph unicode="&#xde;" horiz-adv-x="1347" d="M1295 734q2 -237 -338 -394q-174 -145 -457 -161q-31 -82 -20 -114q-11 -56 -60 -56q-56 5 -55 63q4 172 -60 454q-59 336 -10 433q-73 -14 -111 5q-44 28 -61 94q5 62 61 84q29 22 113 37q39 188 113 197q49 5 80.5 -42t33.5 -88q0 -33 -3 -72q593 -70 756 -327 q25 -26 18 -113zM1114 727q-3 68 -39 104q-94 133 -433 159q-63 -36 -147 -39q10 -115 -12 -326l19 -52q-29 -146 -19 -240q263 48 459 195.5t172 198.5z" />
<glyph unicode="&#xdf;" horiz-adv-x="1328" d="M1265 411q-5 -186 -130 -293.5t-253 -120.5q-92 12 -214 67t-149 57q-48 48 -45 94q0 44 32.5 67t70.5 37q31 0 118 -24.5t182 -53.5q80 -9 118 38t46 129q-27 95 -81.5 150t-135.5 53q-29 10 -81 4t-81 -23q-42 -1 -71.5 33t-32.5 73q2 60 125.5 188t137.5 206 q-4 67 -73 60q-130 9 -239 -111q-98 -63 -125 -230q-29 -135 -29 -379q-14 -86 -20 -214.5t20 -188.5q-19 -283 -26 -374q-34 -44 -63 -46q-56 0 -54 60q0 -7 1 5q21 131 0 241q23 116 4 319t7 295q-50 418 109 620q181 191 396 216q135 -6 200.5 -85.5t87.5 -200.5 q-8 -108 -114 -250q155 -41 268.5 -180.5t93.5 -237.5z" />
<glyph unicode="&#xe0;" horiz-adv-x="1053" d="M531 1526q0 -31 -27.5 -53t-51.5 -22q-32 1 -61 41q-16 17 -82.5 148.5t-52.5 154.5q0 35 27.5 55.5t57.5 30.5q43 -2 70 -51q40 -58 86 -164q35 -103 34 -140zM1036 97q-12 -32 -36 -53.5t-49 -21.5q-45 10 -70 62q-21 44 -64 146q-88 0 -192 -17q-74 14 -197 28 q-150 5 -192 -2q-12 -73 -55 -183q-34 -51 -72 -41q-22 0 -42.5 20t-23.5 42q1 10 3 20q67 272 111 652q220 499 198 562q41 51 104 46q55 5 92.5 -24t85.5 -164q27 -65 42 -154q109 -174 249 -583q47 -51 33 -104q54 -180 75 -231zM719 447q-99 195 -289 560 q-14 -123 -41 -299q-54 -128 -94 -266q237 -15 314 -2q46 14 110 7z" />
<glyph unicode="&#xe1;" horiz-adv-x="1082" d="M678 1797q0 -34 -84 -155q-39 -125 -70 -156.5t-77 -26.5q-27 -12 -52 10.5t-21 54.5q0 31 84.5 143.5t102.5 161t36 42.5q29 3 55.5 -17.5t25.5 -56.5zM1024 90q-2 -25 -21.5 -44t-60.5 -22q-44 0 -70 48q-19 71 -56 184q-86 -31 -193 -32q-77 5 -201 -9 q-156 15 -195 27q-12 -61 -58 -193q-22 -39 -60 -35q-27 -2 -52.5 18.5t-17.5 42.5q0 12 2 22q24 272 99 627q196 505 215 588q53 50 96 48q51 0 92 -33t94 -132q18 -86 52 -186q84 -181 154 -616q121 -11 114 -64q101 -174 67 -239zM710 449q-96 188 -244 522 q-56 -87 -109 -244q-33 -138 -57 -288q224 17 299 12q55 -6 111 -2z" />
<glyph unicode="&#xe2;" horiz-adv-x="1055" d="M672 1514q0 -26 -25.5 -44t-45.5 -19q-48 1 -188 254q7 -114 -65 -203q-19 -27 -46 -26q-58 -10 -60 58q-3 29 51.5 165.5t133.5 116.5q25 15 44 17q32 2 49.5 -27t78.5 -151q79 -126 73 -141zM1027 99q2 -31 -19.5 -55t-56.5 -22q-43 2 -77 45q-17 61 -60 175 q-84 -8 -188 -22q-70 -3 -187 10q-171 -17 -209 12q-13 -73 -51 -172q-31 -51 -66 -53q-28 -2 -46.5 17t-22.5 43q0 10 2 20q7 278 116 625q152 548 198 596q43 32 101 41q46 -4 91 -29.5t85 -141.5q42 -80 51 -169q78 -188 247 -620q31 -20 24 -70q55 -179 68 -230z M724 445q-94 185 -272 526q-27 -109 -63 -283q-58 -103 -107 -270q257 33 317 27q58 9 125 0z" />
<glyph unicode="&#xe3;" horiz-adv-x="1058" d="M749 1565q-1 -49 -65 -84q-39 -34 -93 -29q-55 9 -128.5 24.5t-93.5 37.5q-28 2 -54.5 -30t-56.5 -40q-28 5 -51 24.5t-19 47.5q1 58 68.5 102t110.5 60q46 1 100 -27t115 -38q19 0 49.5 18.5t46.5 5.5q30 -2 51.5 -23.5t19.5 -48.5zM1029 94q0 -33 -22 -53.5t-55 -16.5 q-42 2 -73 46q-14 51 -53 164q-97 -19 -213 -2q-60 -12 -173 10q-157 14 -204 0q-19 -63 -48 -175q-38 -50 -69 -50q-30 0 -54 19t-17 41q0 10 1 20q40 231 140 644q16 440 185 580q30 38 99 41q42 -5 79 -34t86 -149q26 -71 53 -155q77 -189 277 -635q3 -12 -2 -61 q63 -215 63 -234zM727 440q-106 195 -290 480q-7 -44 -77 -225q-22 -113 -82 -241q239 15 336 0q48 0 113 -14z" />
<glyph unicode="&#xe4;" horiz-adv-x="1063" d="M734 1567q0 -14 -29 -55q-26 -65 -72 -58q-42 2 -67 17.5t-23 59.5q0 43 35.5 86.5t75.5 32.5q34 5 54.5 -19.5t25.5 -63.5zM343 1553q19 -53 -3.5 -79.5t-63.5 -22.5q-73 5 -102 107q9 89 104 86q86 20 65 -91zM1026 96q1 -33 -22 -55t-55 -17q-46 -5 -73 49 q-23 60 -59 169q-90 -22 -184 -30q-80 15 -210 1q-177 29 -191 26q-12 -56 -55 -167q-32 -55 -68 -57q-24 0 -46 19t-19 45q-1 8 0 18q29 256 151 681q63 483 169 514q37 67 87 63q63 5 101.5 -26.5t102.5 -137.5q2 -90 31 -167q91 -212 215 -577q62 -68 58 -116 q80 -205 67 -235zM717 451q-92 170 -251 484q-33 -77 -97 -211q-50 -173 -70 -280q206 -19 302 8q51 2 116 -1z" />
<glyph unicode="&#xe5;" horiz-adv-x="1072" d="M771 1705q-3 -120 -91.5 -185.5t-179.5 -73.5q-126 10 -242 105q-79 40 -77 174q10 118 106 200q88 50 208 74q102 -6 168.5 -72.5t107.5 -221.5zM1036 96q2 -33 -21 -53.5t-54 -18.5q-53 2 -79 51q-17 53 -53 190q-92 -21 -184 -40q-84 -1 -206 9q-161 -21 -197 8 q-17 -63 -56 -177q-27 -55 -63 -55q-27 4 -49.5 19t-24.5 48q4 10 6 20q53 289 107 651q96 447 224 563q22 49 92 51q39 -2 76 -32t86 -149q39 -72 58 -154q89 -233 247 -597q19 -55 28 -99q60 -188 63 -235zM620 1712q-12 56 -57.5 91t-98.5 28q-129 9 -129 -87 q6 -54 61.5 -100.5t101.5 -40.5q48 0 81.5 25.5t40.5 83.5zM732 440q-106 195 -290 480q-7 -44 -77 -225q-22 -113 -82 -241q239 15 337 0q47 0 112 -14z" />
<glyph unicode="&#xe6;" horiz-adv-x="1736" d="M1674 1253q-7 -86 -111 -101q-65 -9 -146 -5q-144 14 -292 -72q17 -32 20 -102q2 -91 -10 -234q90 48 189 44q127 19 207 -18q75 -33 70 -96q2 -36 -31.5 -66.5t-59.5 -35.5q-23 0 -72 15t-78 -3q-56 -4 -251 -31q-24 -106 -51 -381q333 33 487 67q78 -5 78 -92 q2 -46 -53 -63q-46 -24 -271 -33q-7 -10 -144 -24q-121 -17 -199 -24q-92 -3 -91 99q-8 17 -8 58q-7 19 -40 84q-81 -15 -186 -2q-80 -5 -198 -20q-148 22 -194 20q-9 -58 -62 -174q-17 -48 -66 -51q-68 5 -65 60q0 7 3 20q48 273 204 587q12 128 80 338q32 70 61 142 q19 111 57 141q46 53 95 48q63 5 96 -25q49 -41 155 -292l92 -365q29 174 14 317q-7 120 -5 162q-4 16 -4 17q0 58 34.5 88t90.5 32q140 82 532 160q118 -54 123 -189zM758 440q-72 159 -280 531q29 -80 -77 -473q160 -61 234 -58h123z" />
<glyph unicode="&#xe8;" horiz-adv-x="910" d="M558 1526q0 -31 -27.5 -53t-50.5 -22q-33 1 -62 41q-15 17 -81.5 148.5t-53.5 154.5q0 35 27.5 55.5t58.5 30.5q42 -2 70 -51q39 -58 85 -164q36 -103 34 -140zM894 1268q-29 -85 -124 -114q-45 -14 -142 8q-106 -7 -150 -32q-36 -5 -135 -27q7 -74 10 -132 q-1 -82 -12 -205q82 7 220 -10q127 21 173 0q63 -19 72 -92q3 -27 -22 -57t-67 -35q-24 -2 -69.5 4t-79.5 1q-88 8 -281 3q-7 -124 -28 -373q340 64 489 44q78 -27 80 -92q-7 -53 -51 -74q-41 -20 -227 -22q-169 -27 -371 -51q-8 -17 -13 -15q-117 6 -120 203 q21 105 38 359.5t27 368.5q5 41 3.5 108.5t-17.5 129.5q0 46 36 85t80 29q159 84 459 106q193 -14 222 -118z" />
<glyph unicode="&#xe9;" horiz-adv-x="903" d="M689 1797q0 -34 -83 -155q-39 -125 -70 -156.5t-77 -26.5q-27 -12 -52 10.5t-21 54.5q0 31 84.5 143.5t102.5 161t36 42.5q29 3 55.5 -17.5t24.5 -56.5zM879 1251q-9 -73 -97 -89q-75 -15 -174 -22q-98 -8 -144 0q-31 -10 -121 -43q2 -63 0 -124q-2 -101 -15 -219 q83 33 216 33q123 -16 188 -38q67 -15 62 -85q0 -29 -26 -68.5t-58 -23.5q-29 -2 -80 3t-72 2q-95 3 -263 -2q7 -118 -71 -341q308 19 515 -5q80 7 77 -65q1 -62 -51 -80q-46 -23 -255 -17q-131 -26 -295 -50q-56 -20 -60 -20q-106 -4 -119 203q3 119 17.5 382t59.5 346 q-9 45 -18.5 121t-4.5 115q4 46 32 88t81 28q166 79 473 43q186 41 203 -72z" />
<glyph unicode="&#xea;" horiz-adv-x="899" d="M669 1514q0 -26 -25.5 -44t-46.5 -19q-47 1 -187 254q6 -114 -65 -203q-19 -27 -46 -26q-58 -10 -60 58q-3 29 51.5 165.5t132.5 116.5q26 15 45 17q32 2 49 -27t79 -151q78 -126 73 -141zM876 1277q0 -86 -93 -127q-61 -12 -160 -8q-111 -21 -155 -10q-33 -6 -127 -26 q7 -73 12 -145q0 -80 -25 -219q78 41 213 19q142 33 193 7q66 -27 63 -94q7 -39 -21 -70t-59 -32q-31 0 -86.5 6t-67.5 -1q-100 10 -266 5q-10 -150 -32 -364q252 -1 494 31q62 -17 74 -87q-12 -54 -67 -77q-36 -24 -276 -25q-115 -17 -316 -46q-7 -17 -14 -17 q-109 0 -107 167q10 130 14.5 396t38.5 360q5 53 -10.5 122t-1.5 124q-4 53 28 92t93 29q157 82 531 78q121 2 130 -88z" />
<glyph unicode="&#xeb;" horiz-adv-x="916" d="M741 1567q0 -14 -29 -55q-26 -65 -72 -58q-43 2 -67.5 17.5t-22.5 59.5q0 43 35.5 86.5t74.5 32.5q35 5 55.5 -19.5t25.5 -63.5zM350 1553q19 -53 -3.5 -79.5t-63.5 -22.5q-73 5 -102 107q8 89 104 86q85 20 65 -91zM884 1278q7 -106 -101 -129q-54 -6 -155 -23 q-107 7 -154 4q-27 -4 -128 -38q14 -65 14 -119q-5 -103 -37 -210q100 7 237 31q129 3 179 -28q65 -29 78 -88q-8 -43 -27 -71t-73 -34q-21 -3 -72 0.5t-72 3.5q-110 10 -261 -29q-17 -96 -87 -348q372 65 533 36q83 0 68 -79q2 -46 -49 -78q-41 -12 -284 -19 q-106 -17 -283 -70q-36 7 -41 7q-106 -12 -92 160q-24 157 -14 364.5t60 413.5q-9 34 -17.5 114.5t-4.5 117.5q0 52 39 87.5t80 30.5q173 80 497 92q152 16 167 -99z" />
<glyph unicode="&#xec;" horiz-adv-x="447" d="M307 1526q0 -31 -27 -53t-51 -22q-33 1 -62 41q-15 17 -81.5 148.5t-53.5 154.5q0 35 27.5 55.5t58.5 30.5q42 -2 70 -51q39 -58 85 -164q36 -103 34 -140zM394 891q-22 -108 -36 -314q4 -227 -6 -289v-121q-4 -66 -19 -99q-26 -83 -86 -73q-68 2 -64 75 q-2 68 23.5 194.5t-1.5 259.5q-10 266 -63 498q-14 164 -7 232q3 135 92 128q99 -6 155 -138q0 -72 31 -215q-38 -101 -19 -138z" />
<glyph unicode="&#xed;" horiz-adv-x="381" d="M348 1797q0 -34 -83 -155q-40 -125 -70.5 -156.5t-76.5 -26.5q-28 -12 -52.5 10.5t-21.5 54.5q0 31 84.5 143.5t102.5 161t37 42.5q29 3 55.5 -17.5t24.5 -56.5zM295 887q0 -110 9 -288q-91 -220 -58 -326q7 -55 5 -94q2 -63 -14 -114q-24 -74 -83 -70q-72 -10 -69 68 q-3 82 15.5 241.5t5.5 217.5q29 256 -22 485q-55 179 -50 244q-2 108 104 135q103 0 127 -142q18 -75 42 -220q-19 -101 -12 -137z" />
<glyph unicode="&#xee;" horiz-adv-x="553" d="M490 1514q0 -26 -25.5 -44t-46.5 -19q-48 1 -188 254q7 -114 -64 -203q-19 -27 -47 -26q-58 -10 -59 58q-4 29 51 165.5t133 116.5q26 15 44 17q33 2 50 -27t78 -151q79 -126 74 -141zM418 894q2 -99 4 -326q-36 -222 -43 -293q-4 -58 -5 -106q-2 -63 -12 -101 q-24 -80 -80 -82q-72 7 -77 72q-9 87 2 213.5t25 266.5q15 339 -44 488q-43 191 -24 223q-5 135 111 137q73 -2 104 -138q31 -81 44 -214q-10 -106 -5 -140z" />
<glyph unicode="&#xef;" horiz-adv-x="596" d="M572 1567q0 -14 -29 -55q-26 -65 -72 -58q-43 2 -67.5 17.5t-22.5 59.5q0 43 35.5 86.5t75.5 32.5q34 5 54.5 -19.5t25.5 -63.5zM181 1553q19 -53 -3.5 -79.5t-63.5 -22.5q-73 5 -102 107q8 89 104 86q85 20 65 -91zM445 891q12 -123 -13 -324q-26 -209 -29 -304 q0 -43 -2 -91q2 -64 -12 -107q-20 -84 -82 -70q-75 -9 -82 73q9 67 31 234t5 234q-22 317 -46 479q-5 216 -26 236q19 138 86 133q100 0 141 -148q26 -62 19 -202q9 -128 10 -143z" />
<glyph unicode="&#xf1;" horiz-adv-x="1128" d="M835 1565q-2 -49 -65 -84q-40 -34 -94 -29q-55 9 -128.5 24.5t-93.5 37.5q-27 2 -53.5 -30t-57.5 -40q-27 5 -50 24.5t-20 47.5q2 58 69.5 102t109.5 60q46 1 100 -27t115 -38q19 0 50 18.5t46 5.5q31 -2 52 -23.5t20 -48.5zM1073 730q0 -27 -5 -184q-8 -222 -24 -331 q-59 -244 -208 -251q-148 24 -286 166q-76 126 -156 297q-25 128 -87 302q-39 -323 -22 -359q12 -228 -51 -312q-14 -49 -57 -51q-27 0 -48 19.5t-18 46.5q-2 -5 2 12q17 89 -7 222q29 164 -10.5 452.5t-3.5 416.5q-39 189 92 193q120 -10 171 -132q20 -32 65 -228 q83 -219 174 -461q138 -340 242 -398q63 75 40 302q-2 193 -24 562q-40 109 -26 169q-9 65 26 107q39 51 92 53q129 0 111 -317q8 -60 13 -143.5t5 -152.5z" />
<glyph unicode="&#xf2;" horiz-adv-x="1167" d="M732 1526q0 -31 -27 -53t-51 -22q-33 1 -62 41q-15 17 -81.5 148.5t-53.5 154.5q0 35 27.5 55.5t58.5 30.5q42 -2 70 -51q39 -58 85 -164q36 -103 34 -140zM1135 795q-62 -283 -149 -532q-122 -277 -402 -196q-81 -53 -156 -43q-182 44 -286 197.5t-110 317.5 q6 290 176 569q217 274 468 233q208 -15 324 -128q99 -148 94 -310q32 -56 41 -108zM976 623q-3 155 -66 282q-65 160 -149 227q-32 6 -49 6q-26 0 -80.5 -8.5t-66.5 -15.5q-9 0 -19 4q-136 -96 -218 -235t-118 -315q37 -87 66 -174q62 -95 142 -160t200 -63q167 -9 254 157 q79 128 104 295z" />
<glyph unicode="&#xf3;" horiz-adv-x="1166" d="M879 1797q0 -34 -84 -155q-39 -125 -69.5 -156.5t-76.5 -26.5q-28 -12 -52.5 10.5t-21.5 54.5q0 31 84.5 143.5t102.5 161t37 42.5q29 3 55.5 -17.5t24.5 -56.5zM1121 788q-1 -300 -95 -496q-246 -266 -483 -295q-55 1 -135 46q-174 70 -259.5 193.5t-119.5 319.5 q-7 292 160 499q210 285 473 322q200 0 316 -172q128 -150 142 -312q-7 -46 1 -105zM925 616q22 121 -14 294q-58 174 -181 222q-15 6 -32 6q-26 0 -66 -7.5t-84 -14.5q-5 -2 -16 2q-128 -62 -226 -202.5t-79 -362.5q2 -79 20 -167q64 -86 157.5 -148t226.5 -64 q132 -7 222 150q99 120 72 292z" />
<glyph unicode="&#xf4;" horiz-adv-x="1178" d="M865 1514q0 -26 -25.5 -44t-45.5 -19q-48 1 -188 254q7 -114 -65 -203q-19 -27 -46 -26q-58 -10 -60 58q-3 29 51.5 165.5t133.5 116.5q25 15 44 17q32 2 49 -27t79 -151q78 -126 73 -141zM1125 802q10 -261 -96 -549q-171 -273 -457 -253q-77 -9 -156 22 q-184 67 -277 219t-108 307q29 244 194 536q173 234 412 288q221 -37 363 -138q108 -126 108 -323q12 -58 17 -109zM980 621q-24 150 -45 290q-107 173 -203 224q-7 3 -24 3q-25 0 -74 -17.5t-71 -6.5q-10 0 -20 4q-137 -72 -190 -212.5t-126 -328.5q7 -99 46 -190 q38 -88 128.5 -147t214.5 -66q176 -15 260 142q81 126 104 305z" />
<glyph unicode="&#xf5;" horiz-adv-x="1249" d="M969 1565q-1 -49 -64 -84q-40 -34 -94 -29q-55 9 -128.5 24.5t-93.5 37.5q-28 2 -54 -30t-57 -40q-27 5 -50.5 24.5t-19.5 47.5q2 58 69 102t110 60q46 1 100 -27t115 -38q19 0 49.5 18.5t46.5 5.5q30 -2 51.5 -23.5t19.5 -48.5zM1176 790q-7 -353 -125 -539 q-158 -236 -418 -237q-83 -19 -159 -4q-175 63 -288 184.5t-135 378.5q22 231 231 548q196 284 433 261q183 -17 345 -148q83 -133 140 -318q-31 -58 -24 -126zM992 626q17 133 -21 292q-77 171 -172 195q-21 25 -40 25q-25 0 -73.5 -10t-72.5 -12q-9 -2 -19 2 q-135 -82 -231.5 -219.5t-86.5 -314.5q9 -104 57 -195q32 -97 126 -163.5t215 -73.5q171 -14 242 169q84 102 76 305z" />
<glyph unicode="&#xf6;" horiz-adv-x="1205" d="M915 1567q0 -14 -29 -55q-26 -65 -72 -58q-43 2 -67.5 17.5t-22.5 59.5q0 43 35.5 86.5t75.5 32.5q34 5 54.5 -19.5t25.5 -63.5zM524 1553q19 -53 -3.5 -79.5t-63.5 -22.5q-73 5 -102 107q9 89 104 86q85 20 65 -91zM1133 802q31 -331 -118 -551q-163 -251 -443 -297 q-72 46 -152 77q-173 59 -278.5 183t-85.5 312q-3 310 152 525q149 323 463 267q208 64 331 -76q94 -143 106 -343q25 -44 25 -97zM959 623q31 154 -61 290q-60 166 -147 212q-19 13 -38 13q-25 0 -73 -10t-73 -14q-9 0 -19 4q-109 -67 -219.5 -222t-94.5 -314 q10 -116 41 -184q39 -103 132 -159t226 -77q150 5 244 149q89 119 82 312z" />
<glyph unicode="&#xf7;" horiz-adv-x="882" d="M515 887q-1 -102 -92 -99q-63 -3 -65 106q-10 33 14 46.5t58 22.5q34 1 60.5 -18.5t24.5 -57.5zM763 575q2 -65 -123 -66l-126 17q-198 -2 -306 -14q-82 19 -77 87q-22 82 120 73l171 -5q203 52 288 -3q55 -41 53 -89zM507 290q0 -29 -25 -55.5t-52 -16.5q-82 4 -78 74 q-2 60 87 51q22 15 43 -8.5t25 -44.5z" />
<glyph unicode="&#xf8;" horiz-adv-x="1212" d="M1169 790q-14 -314 -164 -517q-102 -283 -389 -254q-73 -5 -119 -12q-9 -38 -29 -125q-16 -46 -58 -56q-81 14 -89 84q3 35 37 165q-128 48 -215 200q-56 147 -107 307q8 263 218 500q193 367 466 336q57 -56 113 -71q5 30 21 79t81 61q29 3 59 -15t28 -52 q0 -21 -36 -162q161 -188 183 -468zM966 616q19 191 -65 410q-113 -258 -382 -816q78 -44 138 -43q150 7 282 164q34 128 27 285zM744 1142q4 -4 -5 -4q-26 0 -74.5 -17.5t-70.5 -6.5q-10 0 -21 4q-136 -72 -189 -212.5t-126 -328.5q1 -196 148 -326q43 193 142 466 q148 346 196 425z" />
<glyph unicode="&#xf9;" horiz-adv-x="1091" d="M614 1526q0 -31 -27 -53t-51 -22q-33 1 -62 41q-15 17 -81.5 148.5t-52.5 154.5q0 35 27 55.5t58 30.5q43 -2 70 -51q39 -58 85 -164q36 -103 34 -140zM1058 894q-61 -305 -119 -575q-99 -341 -383 -259q-167 -38 -286 61q-135 118 -188 301q-41 107 -38 295q0 77 12 203 t0 172q9 74 -5 179q80 60 137 77q41 -3 58 -41q20 -56 12 -196q0 -92 16 -253.5t-23 -260.5q41 -199 39 -297q65 -119 270 -133q181 22 227 144q49 63 54 262q-54 265 -39 444t5 167q10 76 24 118q31 65 96 58q77 9 100 -78q17 -43 28 -159q-4 -249 3 -229z" />
<glyph unicode="&#xfa;" horiz-adv-x="1099" d="M751 1797q0 -34 -84 -155q-39 -125 -69.5 -156.5t-76.5 -26.5q-28 -12 -52.5 10.5t-21.5 54.5q0 31 84.5 143.5t102.5 161t37 42.5q29 3 55.5 -17.5t24.5 -56.5zM1048 893q8 -333 -63 -545q-234 -324 -464 -358q-140 -4 -275 186q-120 102 -154 237q-51 128 -53 317 q-5 53 2.5 171t6.5 198q5 87 -12 167q102 57 152 79q30 0 41 -39q25 -70 36 -193q-6 -87 -22 -252t-2 -267q29 -203 49 -297q96 -113 242 -109q171 -4 248 104q53 104 37 297q12 232 0.5 407t-18.5 188q3 76 25 120q43 63 92 58q77 5 108 -89q12 -36 9 -141q-2 -243 15 -239 z" />
<glyph unicode="&#xfb;" horiz-adv-x="1109" d="M758 1514q0 -26 -25.5 -44t-46.5 -19q-48 1 -188 254q7 -114 -65 -203q-18 -27 -46 -26q-58 -10 -59 58q-4 29 50.5 165.5t133.5 116.5q26 15 44 17q33 2 50 -27t78 -151q79 -126 74 -141zM1058 893q9 -273 -70 -586q-150 -338 -438 -314q-168 -25 -299 123 q-123 142 -162 314q-45 108 -24 265q-16 95 -14 199t-2 205q7 70 4 184q90 76 143 69q33 -4 53 -46q14 -57 38 -190q-31 -90 -51.5 -250.5t18.5 -273.5q12 -188 46 -290q72 -147 270 -125q133 -13 230 134q38 75 72 274q-55 272 -72 432.5t9 166.5q-3 76 22 120 q33 61 103 55q73 3 100 -82q16 -46 24 -168q-15 -227 0 -216z" />
<glyph unicode="&#xfc;" horiz-adv-x="1162" d="M823 1567q0 -14 -29 -55q-26 -65 -72 -58q-43 2 -67.5 17.5t-23.5 59.5q0 43 36 86.5t75 32.5q35 5 55 -19.5t26 -63.5zM432 1553q19 -53 -3.5 -79.5t-63.5 -22.5q-73 5 -102 107q8 89 104 86q85 20 65 -91zM1087 899q33 -355 -92 -592q-145 -314 -425 -360 q-164 39 -299 191q-107 121 -163 265q-23 119 -28 319q-10 61 -23 189t27 178q6 99 -7 196q80 68 141 63q40 0 52 -42q32 -55 3 -188q9 -92 2 -269t12 -250q-16 -195 42 -319q69 -104 231 -118q205 27 259 137q62 92 33 271q-12 297 -14 441t-3 175q-4 72 23 120 q38 53 96 58q80 -2 108 -98q13 -35 8 -136q-19 -306 17 -231z" />
<glyph unicode="&#xfd;" horiz-adv-x="1094" d="M763 1797q0 -34 -84 -155q-39 -125 -69.5 -156.5t-77.5 -26.5q-27 -12 -51.5 10.5t-21.5 54.5q0 31 84.5 143.5t102.5 161t37 42.5q29 3 55.5 -17.5t24.5 -56.5zM1080 1251q-8 -43 -51 -82q-60 -37 -99 -75q-49 -53 -94 -106q-95 -141 -169 -498q-141 -353 -220 -456 l-10 2q-106 -9 -108 44q2 7 9 24q109 169 154 437q-132 106 -337 362q-47 89 -68 167q-61 114 -72 193q4 39 38 70t66 27q40 2 69 -27q34 -29 104 -172q78 -110 235 -326q79 153 173 320q90 190 271 215q97 -10 109 -119z" />
<glyph unicode="&#xfe;" horiz-adv-x="1347" d="M1295 734q2 -237 -338 -394q-174 -145 -457 -161q-31 -82 -20 -114q-11 -56 -60 -56q-56 5 -55 63q4 172 -60 454q-59 336 -10 433q-73 -14 -111 5q-44 28 -61 94q5 62 61 84q29 22 113 37q39 188 113 197q49 5 80.5 -42t33.5 -88q0 -33 -3 -72q593 -70 756 -327 q25 -26 18 -113zM1114 727q-3 68 -39 104q-94 133 -433 159q-63 -36 -147 -39q10 -115 -12 -326l19 -52q-29 -146 -19 -240q263 48 459 195.5t172 198.5z" />
<glyph unicode="&#xff;" horiz-adv-x="1106" d="M831 1567q0 -14 -29 -55q-25 -65 -72 -58q-42 2 -67 17.5t-23 59.5q0 43 36 86.5t75 32.5q34 5 54.5 -19.5t25.5 -63.5zM440 1553q19 -53 -3 -79.5t-63 -22.5q-74 5 -103 107q9 89 104 86q86 20 65 -91zM1089 1275q2 -72 -50 -116q-44 -31 -90 -74q-53 -42 -99 -107 q-91 -154 -200 -500q-85 -389 -172 -447l-24 3q-123 4 -108 39q2 14 9 31q72 229 121 446q-77 134 -271 363q-55 116 -109 157q-74 113 -60 188q2 48 28 79.5t73 17.5q35 7 66 -27q41 -24 111 -159q92 -119 225 -363q65 218 176 341q120 229 258 220q109 -3 116 -92z" />
<glyph unicode="&#x152;" horiz-adv-x="2108" d="M1949 1254q-7 -83 -114 -102q-40 -14 -133 -9q-135 14 -164 -20q-33 -2 -127 -26q9 -51 11 -131q0 -73 -31 -205q90 34 222 29q145 -20 189 -32q84 -19 62 -84q8 -43 -15 -78t-64 -24q-25 -2 -68.5 -1t-79.5 4q-74 0 -267 -46q-29 -203 -37 -319q343 27 493 0 q34 10 52 -11.5t15 -51.5q-5 -41 -53 -74q-33 -8 -234 -8q-56 -22 -201 -51q-96 -16 -174 -14q-89 3 -132 200q-145 -191 -362 -212q-75 12 -155 38q-381 83 -372 546q-55 254 184 549q181 251 509 268q130 -25 254 -179q21 29 51.5 57t73.5 16q150 89 536 58 q122 23 131 -87zM1130 604q3 111 -22 232q-67 168 -133 222q-28 51 -56 57t-86 11q-16 0 -47.5 -8.5t-41.5 -13.5q-15 0 -29 4q-140 -69 -240 -196t-62 -327q-19 -129 36 -204q41 -87 145 -166.5t223 -60.5q130 8 253 194q65 118 60 256z" />
<glyph unicode="&#x153;" horiz-adv-x="2108" d="M1949 1254q-7 -83 -114 -102q-40 -14 -133 -9q-135 14 -164 -20q-33 -2 -127 -26q9 -51 11 -131q0 -73 -31 -205q90 34 222 29q145 -20 189 -32q84 -19 62 -84q8 -43 -15 -78t-64 -24q-25 -2 -68.5 -1t-79.5 4q-74 0 -267 -46q-29 -203 -37 -319q343 27 493 0 q34 10 52 -11.5t15 -51.5q-5 -41 -53 -74q-33 -8 -234 -8q-56 -22 -201 -51q-96 -16 -174 -14q-89 3 -132 200q-145 -191 -362 -212q-75 12 -155 38q-381 83 -372 546q-55 254 184 549q181 251 509 268q130 -25 254 -179q21 29 51.5 57t73.5 16q150 89 536 58 q122 23 131 -87zM1130 604q3 111 -22 232q-67 168 -133 222q-28 51 -56 57t-86 11q-16 0 -47.5 -8.5t-41.5 -13.5q-15 0 -29 4q-140 -69 -240 -196t-62 -327q-19 -129 36 -204q41 -87 145 -166.5t223 -60.5q130 8 253 194q65 118 60 256z" />
<glyph unicode="&#x178;" horiz-adv-x="1178" d="M874 1567q0 -14 -29 -55q-26 -65 -72 -58q-43 2 -67.5 17.5t-22.5 59.5q0 43 35.5 86.5t75.5 32.5q34 5 54.5 -19.5t25.5 -63.5zM483 1553q19 -53 -3.5 -79.5t-63.5 -22.5q-73 5 -102 107q9 89 104 86q85 20 65 -91zM1132 1275q1 -72 -50 -116q-44 -31 -90 -74 q-53 -42 -99 -107q-91 -154 -200 -500q-85 -389 -172 -447l-24 3q-123 4 -108 39q2 14 9 31q71 229 121 446q-77 134 -272 363q-54 116 -109 157q-73 113 -59 188q1 48 27.5 79.5t72.5 17.5q36 7 67 -27q41 -24 111 -159q92 -119 225 -363q65 218 176 341q119 229 257 220 q110 -3 117 -92z" />
<glyph unicode="&#x2c6;" horiz-adv-x="799" d="M611 1514q0 -26 -25.5 -44t-46.5 -19q-47 1 -187 254q6 -114 -65 -203q-19 -27 -46 -26q-58 -10 -60 58q-4 29 51 165.5t133 116.5q26 15 45 17q32 2 49 -27t79 -151q78 -126 73 -141z" />
<glyph unicode="&#x2dc;" horiz-adv-x="865" d="M730 1565q-1 -49 -64 -84q-40 -34 -94 -29q-55 9 -128.5 24.5t-93.5 37.5q-27 2 -53.5 -30t-57.5 -40q-27 5 -50 24.5t-20 47.5q2 58 69 102t110 60q46 1 100 -27t115 -38q19 0 49.5 18.5t46.5 5.5q30 -2 51.5 -23.5t19.5 -48.5z" />
<glyph unicode="&#x2000;" horiz-adv-x="999" />
<glyph unicode="&#x2001;" horiz-adv-x="1999" />
<glyph unicode="&#x2002;" horiz-adv-x="999" />
<glyph unicode="&#x2003;" horiz-adv-x="1999" />
<glyph unicode="&#x2004;" horiz-adv-x="666" />
<glyph unicode="&#x2005;" horiz-adv-x="499" />
<glyph unicode="&#x2006;" horiz-adv-x="333" />
<glyph unicode="&#x2007;" horiz-adv-x="333" />
<glyph unicode="&#x2008;" horiz-adv-x="249" />
<glyph unicode="&#x2009;" horiz-adv-x="399" />
<glyph unicode="&#x200a;" horiz-adv-x="111" />
<glyph unicode="&#x2010;" d="M787 577q-5 -63 -115 -68l-119 -12q-186 10 -355 49q-56 -20 -48 41q-3 60 63 82q29 5 118 17l92 -19q215 26 304 -20q65 -26 60 -70z" />
<glyph unicode="&#x2011;" d="M787 577q-5 -63 -115 -68l-119 -12q-186 10 -355 49q-56 -20 -48 41q-3 60 63 82q29 5 118 17l92 -19q215 26 304 -20q65 -26 60 -70z" />
<glyph unicode="&#x2012;" d="M787 577q-5 -63 -115 -68l-119 -12q-186 10 -355 49q-56 -20 -48 41q-3 60 63 82q29 5 118 17l92 -19q215 26 304 -20q65 -26 60 -70z" />
<glyph unicode="&#x2013;" horiz-adv-x="722" d="M601 599q0 -78 -121 -75q-23 -2 -87 -2t-110 2q-145 -29 -138 68q2 77 79 84q73 -14 237 3q25 -10 80 -7q60 -15 60 -73z" />
<glyph unicode="&#x2014;" horiz-adv-x="1184" d="M1036 582q0 -79 -121 -75q-72 -5 -248.5 7.5t-304.5 14.5q-94 -36 -144 -10q-73 13 -73 78q3 67 138 89q157 -2 434 27q107 -47 164 -54q64 -2 109 -9q39 -19 46 -68z" />
<glyph unicode="&#x2018;" horiz-adv-x="437" d="M323 1068q0 -27 -25 -44t-45 -19q-29 2 -58 39q-11 16 -66.5 121.5t-44.5 126.5q0 31 25.5 48t52.5 27q29 0 50 -32q24 -33 78 -144q34 -97 33 -123z" />
<glyph unicode="&#x2019;" horiz-adv-x="454" d="M374 1295q0 -34 -72 -123q-31 -81 -73 -119q-38 -24 -65 -38q-27 2 -47.5 24.5t-20.5 52.5q0 12 12 31l114 213q39 23 80 23q29 -4 51 -20t21 -44z" />
<glyph unicode="&#x201a;" horiz-adv-x="449" d="M372 77q0 -34 -72 -123q-30 -82 -73 -120q-38 -23 -65 -37q-27 2 -47.5 24t-20.5 53q0 12 12 30l114 214q39 22 80 22q29 -3 51.5 -19.5t20.5 -43.5z" />
<glyph unicode="&#x201c;" horiz-adv-x="780" d="M621 1106q0 -31 -26.5 -53t-50.5 -22q-44 3 -80.5 69t-76.5 136q-10 42 -8 58q0 34 28 51t59 27q36 0 59 -30.5t67 -110.5q38 -89 29 -125zM377 1070q2 -26 -25.5 -43.5t-47.5 -21.5q-29 -1 -50 39q-15 16 -53.5 116.5t-63.5 129.5q0 31 22 50t54 25q31 0 58 -34 q17 -32 70 -153q41 -89 36 -108z" />
<glyph unicode="&#x201d;" horiz-adv-x="836" d="M696 1295q0 -34 -71 -123q-31 -80 -72 -117q-39 -26 -65 -40q-29 2 -49.5 23.5t-20.5 53.5q0 14 12 31l116 213q39 23 79 23q29 -4 51 -20t20 -44zM427 1292q-2 -22 -70 -123q-43 -96 -74 -114q-29 -34 -61 -43q-33 0 -57.5 20.5t-26.5 47.5q2 26 70 139q70 100 95 122.5 t45 27.5q33 0 53.5 -28.5t25.5 -48.5z" />
<glyph unicode="&#x201e;" horiz-adv-x="835" d="M700 75q0 -34 -72 -123q-31 -80 -72 -118q-39 -25 -64 -39q-29 2 -49.5 23.5t-20.5 53.5q0 14 11 31l117 213q39 22 78 22q29 -3 51 -19.5t21 -43.5zM430 72q-2 -23 -70 -123q-43 -96 -73 -115q-29 -34 -62 -42q-32 0 -57 20.5t-26 47.5q1 26 70 138q70 101 94.5 123 t45.5 27q32 0 52.5 -28t25.5 -48z" />
<glyph unicode="&#x2022;" horiz-adv-x="674" d="M531 611q-2 -92 -78 -158.5t-139 -71.5q-78 6 -143 74.5t-41 109.5q-2 102 77.5 181.5t171.5 91.5q43 -10 102 -89q43 -83 50 -138z" />
<glyph unicode="&#x2026;" horiz-adv-x="1405" d="M1208 102q0 -37 -30.5 -68t-57.5 -31q-77 4 -101 120q17 10 39 34t58 26q36 1 66 -26t26 -55zM817 102q-3 -44 -47.5 -64.5t-73.5 -35.5q-36 -4 -62 23.5t-26 63.5q-9 41 24.5 70.5t82.5 29.5q41 7 71.5 -15t30.5 -72zM370 102q-1 -37 -27 -68t-65 -34q-82 -2 -85 104 q5 31 28 51.5t57 21.5q36 4 61.5 -22.5t30.5 -52.5z" />
<glyph unicode="&#x202f;" horiz-adv-x="399" />
<glyph unicode="&#x2039;" horiz-adv-x="623" d="M449 104q0 -29 -24 -52t-44 -23q-55 3 -208.5 145t-90.5 123q2 32 24 59.5t133 116t121 73.5q31 2 49 -21t21 -52q2 -24 -17 -46q-53 -43 -142 -116q5 -41 62.5 -87.5t94.5 -75.5q19 -17 21 -44z" />
<glyph unicode="&#x203a;" horiz-adv-x="594" d="M538 290q0 -60 -137.5 -165.5t-159.5 -109.5q-26 2 -51.5 30t-15.5 45q0 24 21 47q25 30 91.5 63.5t83.5 84.5q-61 43 -179 150q2 2 0 22q0 29 25 55t43 20q26 0 137 -90q96 -46 119.5 -79.5t22.5 -72.5z" />
<glyph unicode="&#x205f;" horiz-adv-x="499" />
<glyph unicode="&#x20ac;" horiz-adv-x="1340" d="M1188 1094q-4 -172 -149 -166q-39 -1 -59 41q-16 19 -22 69.5t-9 87.5q-9 2 -14 2q-94 -14 -213 -95q-120 -99 -184 -190q85 -17 158 -26q72 -1 135 -8q65 -22 74 -104q6 -80 -81 -60q-56 -8 -156 -15t-175 0q-7 -26 -8 -63q1 -62 24 -110q151 16 201 6q72 -9 68 -57 q-3 -63 -82 -73q-12 -7 -99 -9q116 -140 215 -153q41 -5 95 27t64 27q33 2 50.5 -17.5t22.5 -52.5q4 -24 -18 -51q-98 -84 -229 -113q-125 18 -278 103q-70 99 -152 213q-99 -5 -229 -10q-82 3 -75 53q-2 32 32.5 50t206.5 49q-7 78 -12 182q-114 -10 -152.5 -13.5 t-33.5 78.5q-10 94 75 99q33 21 144 11q73 211 209 380q197 183 425 171q91 -4 167 -75.5t64 -187.5z" />
<glyph unicode="&#x2122;" horiz-adv-x="2048" d="M1843 1179q2 -126 -48 -338q14 -310 -6 -327q-4 -24 -5.5 -85.5t6.5 -68.5q2 -75 -71 -70q-64 -12 -81 80q-6 11 -29 142q17 84 28 254q-60 -78 -115 -254q-56 -61 -99 -154q14 -64 -41 -51q-15 -8 -35 7q-70 46 -154 236q-14 30 -109 256q-63 -193 -45 -449 q-10 -91 -80 -96q-80 10 -90 111q-9 109 8 251t34 305q2 94 -22 236q-70 -55 -217 -46q-20 -68 -13 -162q-60 -150 -36 -173q-7 -61 -12 -293q-15 -72 -27 -173q-19 -52 -77 -56q-53 7 -58 68l87 506q-91 -14 -101 124q5 87 7 157l-5 -5q-41 2 -113.5 -5t-122.5 -2 q-37 2 -60 27.5t-22 69.5q-5 69 59 83.5t184 46.5q77 -2 172 14q169 29 219 17q111 2 150 -43q39 51 97 51q109 19 208 -211q17 -128 87 -290q50 -166 70 -275q125 285 89 401q125 355 161 353q42 11 75 9q13 3 39 -2q70 -8 82 -55q32 -42 32 -121z" />
<glyph unicode="&#xe000;" horiz-adv-x="1390" d="M0 1390h1390v-1390h-1390v1390z" />
</font>
</defs>
</svg>
