<?xml version="1.0" standalone="no"?>
<!DOCTYPE svg PUBLIC "-//W3C//DTD SVG 1.1//EN" "http://www.w3.org/Graphics/SVG/1.1/DTD/svg11.dtd" >
<svg xmlns="http://www.w3.org/2000/svg">
<metadata></metadata>
<defs>
<font id="aurulent_sansitalic" horiz-adv-x="550" >
<font-face units-per-em="1000" ascent="800" descent="-200" />
<missing-glyph horiz-adv-x="250" />
<glyph horiz-adv-x="1000" />
<glyph horiz-adv-x="1000" />
<glyph unicode="&#xd;" horiz-adv-x="1000" />
<glyph unicode=" "  horiz-adv-x="250" />
<glyph unicode="&#x09;" horiz-adv-x="250" />
<glyph unicode="&#xa0;" horiz-adv-x="250" />
<glyph unicode="!" horiz-adv-x="255" d="M80 0l18 95h94l-18 -95h-94zM127 195l63 370l31 158h94q-12 -63 -27 -136t-27 -127.5t-30 -135t-28 -129.5h-76z" />
<glyph unicode="&#x22;" horiz-adv-x="350" d="M157 530l9 120l24 120h95l-24 -120l-37 -120h-67zM332 530l9 120l24 120h95l-24 -120l-37 -120h-67z" />
<glyph unicode="#" horiz-adv-x="630" d="M15 228l9 50h147l32 167h-147l9 50h148l43 228h67l-44 -228h123l43 228h67l-44 -228h147l-9 -50h-147l-32 -167h147l-9 -50h-148l-43 -228h-67l44 228h-123l-43 -228h-67l44 228h-147zM238 278h122l32 167h-122z" />
<glyph unicode="$" horiz-adv-x="532" d="M52 62l15 77q97 -65 192 -68l51 263l-30 11q-54 20 -96 63t-42 103q0 23 7 46t20.5 45.5t34.5 42t47.5 35.5t60.5 26.5t73 14.5l14 73h53l-14 -71q82 -4 158 -37l-17 -88q-37 16 -53 23t-46.5 16.5t-55.5 12.5l-45 -233q77 -32 117 -73.5t40 -100.5q0 -38 -15 -76 t-43 -72t-74.5 -59t-104.5 -33l-15 -74h-53l14 71q-107 3 -193 62zM241 537q0 -62 89 -101l41 215q-31 -4 -59 -16t-49.5 -38t-21.5 -60zM313 75q61 13 92 51.5t31 83.5q0 60 -77 101z" />
<glyph unicode="%" horiz-adv-x="765" d="M75 -18l663 759h93l-663 -759h-93zM142 504q0 84 56 151.5t128 67.5q53 0 83.5 -38.5t30.5 -96.5q0 -84 -55.5 -151.5t-127.5 -67.5q-53 0 -84 38.5t-31 96.5zM217 499q0 -73 51 -73q23 0 42 17t30.5 42.5t18 54t6.5 53.5q0 73 -51 73q-30 0 -53 -29t-33.5 -66t-10.5 -72 zM466 135q0 84 55.5 151.5t128.5 67.5q53 0 83.5 -38.5t30.5 -96.5q0 -84 -55.5 -151.5t-127.5 -67.5q-53 0 -84 38.5t-31 96.5zM542 130q0 -73 50 -73q30 0 53.5 29t33.5 66t10 72q0 73 -50 73q-31 0 -54 -29t-33 -66t-10 -72z" />
<glyph unicode="&#x26;" horiz-adv-x="630" d="M75 157q0 48 19 94.5t49.5 80.5t67 58.5t71.5 33.5q-22 48 -22 101q0 90 61 153t139 63q38 0 68 -16.5t47 -46t17 -67.5q0 -68 -53 -134.5t-127 -95.5l93 -199q48 77 68 180h79q-28 -146 -115 -250l52 -112h-93l-24 48q-86 -66 -188 -66q-90 0 -149.5 46t-59.5 129z M171 166q0 -30 10.5 -52t29 -35t41.5 -19.5t50 -6.5q78 0 141 55l-123 248q-75 -26 -112 -77.5t-37 -112.5zM357 535q0 -46 19 -85q37 17 64.5 41.5t41.5 53.5t14 60q0 29 -13.5 47t-37.5 18q-25 0 -45.5 -19.5t-31.5 -50.5t-11 -65z" />
<glyph unicode="'" horiz-adv-x="175" d="M149 506l15 132l26 132h94l-26 -132l-37 -132h-72z" />
<glyph unicode="(" horiz-adv-x="250" d="M92 210q0 115 47 226.5t178 322.5h81q-39 -61 -62.5 -102t-56 -106t-51 -119t-32 -123.5t-13.5 -136.5q0 -122 42 -301h-81q-17 74 -25.5 115t-17.5 106.5t-9 117.5z" />
<glyph unicode=")" horiz-adv-x="250" d="M-25 -129q23 37 38.5 62.5t37.5 64t36.5 69t32 70t29 76t21.5 77t15 83t5 85.5q0 122 -42 301h81q17 -74 25.5 -115t17.5 -106.5t9 -117.5q0 -115 -47 -226.5t-178 -322.5h-81z" />
<glyph unicode="*" horiz-adv-x="488" d="M95 282l19 10q22 12 49 23.5t59 24.5t50 21q-12 7 -60 30.5t-71 39.5l-15 10l44 58l15 -10q14 -9 30 -21.5t28.5 -23t28.5 -24t28 -22.5q2 12 3.5 26.5t2.5 27t2.5 27t3 26.5t3.5 26t4 27l4 20h66l-4 -20q-4 -23 -11.5 -50.5t-16.5 -58t-15 -51.5q14 8 67.5 41.5 t83.5 49.5l19 10l22 -58l-19 -10q-18 -9 -39.5 -19t-39 -17t-41 -16.5t-39.5 -16.5q12 -7 60 -30.5t72 -39.5l15 -10l-44 -58l-16 10q-24 16 -64.5 49.5t-50.5 41.5q-3 -21 -5.5 -51.5t-5.5 -58t-8 -50.5l-4 -20h-66l4 20q5 23 12.5 50.5t16.5 58t14 51.5 q-13 -8 -66.5 -41.5t-84.5 -49.5l-18 -10z" />
<glyph unicode="+" horiz-adv-x="575" d="M40 259v72h208v199h78v-199h208v-72h-208v-199h-78v199h-208z" />
<glyph unicode="," horiz-adv-x="255" d="M16 -142l70 174l12 63h94l-12 -63l-105 -174h-59z" />
<glyph unicode="-" horiz-adv-x="300" d="M90 259l14 72h220l-14 -72h-220z" />
<glyph unicode="." horiz-adv-x="255" d="M80 0l18 95h94l-18 -95h-94z" />
<glyph unicode="/" horiz-adv-x="278" d="M-26 -129l372 888h81l-372 -888h-81z" />
<glyph unicode="0" d="M90 220q0 64 16 143q14 74 36.5 134.5t50 101t56.5 70t60 45t58 22.5t52 7q33 0 62.5 -11t57.5 -36.5t45 -74.5t17 -116q0 -64 -15 -142q-18 -89 -47.5 -158t-62 -110t-70.5 -67.5t-70.5 -36t-63.5 -9.5q-33 0 -62.5 11t-57.5 36t-45 74.5t-17 116.5zM191 210 q0 -70 26 -113.5t68 -43.5q50 0 97 56q29 35 49.5 82t29 80.5t20.5 91.5q19 101 19 151q0 71 -26 114.5t-68 43.5q-50 0 -97 -56q-29 -35 -49.5 -82t-29 -80.5t-19.5 -90.5q-20 -102 -20 -153z" />
<glyph unicode="1" d="M106 0l14 71h153l111 572l-165 -60l14 71l187 75h76l-128 -658h140l-14 -71h-388z" />
<glyph unicode="2" d="M40 0l15 78q26 49 68 95t84.5 78.5t88.5 68.5t83 66.5t65 70.5t36 82q2 13 2 25q0 47 -31.5 77.5t-79.5 30.5q-90 0 -192 -51l15 79q86 43 190 43q84 0 139 -47t55 -121q0 -35 -15 -71t-35 -63.5t-57 -61.5t-65 -55.5t-74 -55.5q-134 -100 -184 -197h336l-14 -71h-430z " />
<glyph unicode="3" d="M82 12l16 82q91 -41 172 -41q40 0 73 18.5t52.5 46.5t30 58.5t10.5 58.5q0 21 -8 39.5t-21.5 30t-29.5 20.5t-34 14t-33.5 7t-29.5 2h-49l13 71h49q31 0 63.5 10t62 29t48.5 52.5t19 74.5q0 24 -8 42.5t-30 31.5t-57 13q-73 0 -169 -36l15 81q72 26 167 26 q57 0 97.5 -18.5t60 -52t19.5 -78.5q0 -44 -16 -80t-43.5 -60t-56.5 -39.5t-62 -26.5q39 -7 66 -23t39.5 -38t17.5 -42t5 -42q0 -34 -11 -70t-34 -70t-55 -61t-77.5 -43.5t-96.5 -16.5q-106 0 -175 30z" />
<glyph unicode="4" d="M52 218l14 71l418 436h95l-85 -436h67l-14 -71h-67l-42 -218h-95l42 218h-333zM161 289h238l61 312z" />
<glyph unicode="5" d="M78 -2l15 80q58 -25 104 -25q206 0 239 166q4 21 4 39q0 33 -14 57t-34.5 37.5t-52 21.5t-59.5 10.5t-64 2.5q-18 0 -45 -1l66 339h374l-14 -71h-295l-38 -197q53 -1 96 -10t72 -23t49.5 -31.5t32 -39t16.5 -42.5t5 -44q0 -36 -9.5 -72.5t-35 -75.5t-63.5 -68.5t-101 -49 t-142 -19.5q-69 0 -106 16z" />
<glyph unicode="6" d="M92 206q0 63 19 157q35 184 127 280q47 49 109.5 74.5t127.5 25.5q78 0 127 -30l-16 -80q-62 39 -124 39q-26 0 -51.5 -6.5t-56 -25t-56 -48.5t-49 -82t-38.5 -119q76 73 173 73q81 0 128.5 -46.5t47.5 -129.5q0 -34 -7.5 -71.5t-28 -80.5t-51.5 -76t-83.5 -55.5 t-118.5 -22.5q-24 0 -46 5t-47 20t-43.5 39t-30.5 65t-12 95zM180 191q0 -60 27 -99t78 -39q140 0 174 172q5 28 5 53q0 62 -29 91.5t-63 29.5q-30 0 -61.5 -11.5t-61.5 -35t-49.5 -65.5t-19.5 -96z" />
<glyph unicode="7" d="M133 0q66 177 220 398q68 97 205 242h-394l17 85h470l-17 -85q-94 -98 -214 -271q-117 -167 -191 -369h-96z" />
<glyph unicode="8" d="M73 151q0 74 55 141.5t147 100.5q-98 58 -98 149q0 83 73 142t169 59q75 0 125.5 -39t50.5 -101q0 -58 -43 -108.5t-120 -78.5q27 -16 48.5 -35.5t37 -43t24 -51.5t8.5 -58q0 -70 -42.5 -128t-106 -88t-129.5 -30q-86 0 -142.5 47.5t-56.5 121.5zM168 157q0 -51 32 -84.5 t83 -33.5q68 0 119.5 55.5t51.5 120.5q0 53 -37 92.5t-95 62.5q-67 -24 -110.5 -88t-43.5 -125zM264 556q0 -41 33.5 -68.5t87.5 -48.5q43 16 73 46.5t41 57.5t11 51q0 40 -29 66t-73 26q-54 0 -99 -39.5t-45 -90.5z" />
<glyph unicode="9" d="M89 12l16 80q62 -39 124 -39q22 0 43 4.5t45.5 15.5t47.5 32.5t44.5 51t39.5 75t31 102.5q-76 -73 -173 -73q-54 0 -93.5 20.5t-61 60.5t-21.5 95q0 28 5.5 58.5t17.5 66t34.5 67t53 57.5t76.5 41.5t101 15.5q24 0 46.5 -5t47.5 -20t43.5 -39t30.5 -65t12 -95 q0 -62 -18 -156q-36 -185 -128 -281q-47 -49 -109.5 -74.5t-127.5 -25.5q-78 0 -127 30zM227 447q0 -62 29 -91.5t63 -29.5q30 0 61 11.5t61.5 35t50 65.5t19.5 96q0 60 -27 99t-78 39q-140 0 -174 -172q-5 -28 -5 -53z" />
<glyph unicode=":" horiz-adv-x="255" d="M80 0l18 95h94l-18 -95h-94zM165 435l18 95h94l-18 -95h-94z" />
<glyph unicode=";" horiz-adv-x="255" d="M16 -142l70 174l12 63h94l-12 -63l-105 -174h-59zM165 435l18 95h94l-18 -95h-94z" />
<glyph unicode="&#x3c;" horiz-adv-x="547" d="M40 280v30l468 225v-81l-324 -159l324 -159v-81z" />
<glyph unicode="=" horiz-adv-x="575" d="M40 188v71h494v-71h-494zM40 331v71h494v-71h-494z" />
<glyph unicode="&#x3e;" horiz-adv-x="547" d="M40 55v81l324 159l-324 159v81l468 -225v-30z" />
<glyph unicode="?" d="M178 617l15 78q98 46 204 46q96 0 161 -39.5t65 -106.5q0 -39 -19 -71.5t-50.5 -56t-64.5 -44t-67.5 -45t-53.5 -48.5q-25 -32 -36 -88l-9 -47h-95l9 47q12 62 47 106q19 25 52.5 48t64.5 40.5t60 37t47 46t18 58.5q0 45 -40.5 68.5t-102.5 23.5q-94 0 -205 -53zM190 0 l18 95h95l-18 -95h-95z" />
<glyph unicode="@" horiz-adv-x="735" d="M91 159q0 63 15 139q21 110 62 191.5t97.5 130.5t123 73t143.5 24q43 0 79 -7.5t68 -25.5t50.5 -52t18.5 -81q0 -39 -16 -121l-71 -365h-79l10 52q-64 -52 -128 -52q-26 0 -47.5 8.5t-39.5 25.5t-28 46.5t-10 68.5q0 33 8 73q11 59 35.5 105t52 71t61 41t60 21t51.5 5 q34 0 60 -11q1 8 1 16q0 123 -150 123q-126 0 -212 -90t-121 -271q-14 -73 -14 -132q0 -114 52 -171t150 -57q38 0 90 11l-12 -62q-35 -9 -81 -9q-132 0 -205.5 69t-73.5 213zM429 240q0 -53 22.5 -78.5t58.5 -25.5q50 0 93 40l58 300q-18 7 -39 7q-54 0 -103 -35 q-45 -31 -67.5 -90.5t-22.5 -117.5z" />
<glyph unicode="A" horiz-adv-x="658" d="M10 0l406 725h100l132 -725h-100l-37 202h-305l-113 -202h-83zM248 277h250l-62 336z" />
<glyph unicode="B" horiz-adv-x="615" d="M80 0l141 725h175q41 0 63.5 -1t55.5 -5t57 -14.5t43 -27.5q43 -40 43 -102q0 -64 -50.5 -118.5t-145.5 -75.5q77 -18 114 -62t37 -101q0 -14 -3 -30.5t-11.5 -41.5t-29 -50.5t-50.5 -45.5q-27 -18 -57.5 -29t-68.5 -15t-63 -5t-70 -1h-180zM195 75h107h5h30t32.5 2.5 t36 6.5t34 12t32 20t23.5 30.5t16 41.5q2 13 2 26q0 49 -33 84q-20 21 -52 32t-55 12.5t-66 1.5h-60zM261 419h67q38 0 58.5 1t51.5 10t56 26q36 24 49 54t13 52q0 36 -24 60q-14 13 -37 19.5t-40 7.5t-49 1h-100z" />
<glyph unicode="C" horiz-adv-x="630" d="M95 257q0 49 10 105q35 178 145 279.5t266 101.5q104 0 210 -43l-16 -85q-128 53 -208 53q-227 0 -287 -306q-13 -68 -13 -117q0 -43 11 -77t28 -54.5t40.5 -33.5t46.5 -18t49 -5q37 0 82 13t75.5 26.5t81.5 38.5l-18 -93q-118 -60 -234 -60q-127 0 -198 72.5t-71 202.5z " />
<glyph unicode="D" horiz-adv-x="687" d="M80 0l141 725h167q37 0 56 -0.5t51.5 -3.5t53.5 -9.5t46.5 -18t45.5 -30t36 -44.5q50 -74 50 -175q0 -98 -43 -186.5t-112 -151.5q-34 -31 -72 -52t-68.5 -31.5t-73.5 -15.5t-68 -6t-73 -1h-137zM195 75h72q40 0 62 1.5t57 8.5t65 25t60 47q54 55 84.5 130.5t30.5 151.5 t-28 130q-13 23 -30.5 39.5t-33 24.5t-40.5 12t-40 4.5t-45 0.5h-103z" />
<glyph unicode="E" horiz-adv-x="598" d="M80 0l141 725h478l-15 -75h-378l-43 -224h305l-15 -75h-305l-53 -276h390l-15 -75h-490z" />
<glyph unicode="F" horiz-adv-x="582" d="M80 0l141 725h462l-15 -75h-362l-43 -224h292l-15 -75h-292l-68 -351h-100z" />
<glyph unicode="G" horiz-adv-x="657" d="M95 262q0 48 10.5 100t31.5 107t57 103.5t82 87t112 61t143 22.5q108 0 223 -44l-16 -83q-138 52 -221 52q-242 0 -302 -306q-12 -64 -12 -111q0 -55 17 -95t46 -60.5t61 -29.5t68 -9q58 0 138 22l37 191h-93l15 75h193l-61 -316q-149 -47 -244 -47q-89 0 -153 33t-98 96 t-34 151z" />
<glyph unicode="H" horiz-adv-x="710" d="M80 0l141 725h100l-63 -325h350l63 325h100l-141 -725h-100l63 325h-350l-63 -325h-100z" />
<glyph unicode="I" horiz-adv-x="260" d="M80 0l141 725h100l-141 -725h-100z" />
<glyph unicode="J" horiz-adv-x="456" d="M11 6l16 83q88 -32 132 -32q62 0 103 39q14 14 24.5 31t18 40t11 38.5t9.5 44.5l92 475h100l-88 -454q-6 -27 -8.5 -41t-10 -42t-14.5 -44t-19.5 -40.5t-26 -39.5t-33.5 -32.5t-43.5 -27t-54.5 -16t-67 -6.5q-73 0 -141 24z" />
<glyph unicode="K" horiz-adv-x="615" d="M80 0l141 725h100l-63 -324l354 324h106l-371 -340l146 -227q49 -77 138 -101l-34 -75q-117 34 -179 131l-136 212l-47 -43l-55 -282h-100z" />
<glyph unicode="L" horiz-adv-x="548" d="M80 0l141 725h100l-126 -650h358l-15 -75h-458z" />
<glyph unicode="M" horiz-adv-x="831" d="M80 0l141 725h143l89 -554l295 554h145l-141 -725h-100l119 613l-299 -562h-100l-90 561l-119 -612h-83z" />
<glyph unicode="N" horiz-adv-x="710" d="M80 0l141 725h100l252 -591l115 591h83l-141 -725h-100l-252 591l-115 -591h-83z" />
<glyph unicode="O" horiz-adv-x="767" d="M95 263q0 61 15.5 125.5t50 128.5t83.5 114t123 81t161 31q134 0 210 -74.5t76 -206.5q0 -61 -15.5 -126t-50 -128.5t-83.5 -113.5t-123 -81t-162 -31q-134 0 -209.5 74.5t-75.5 206.5zM203 253q0 -56 17 -96.5t46 -61t61 -29.5t68 -9q100 0 175 60q49 41 81.5 112.5 t43.5 131t11 111.5q0 56 -17 96.5t-46 61t-61 29.5t-68 9q-100 0 -175 -60q-49 -41 -81.5 -112t-43.5 -131t-11 -112z" />
<glyph unicode="P" horiz-adv-x="632" d="M80 0l141 725h194q47 0 72.5 -1t63 -5.5t64.5 -16.5t47 -31q45 -41 45 -110q0 -57 -29.5 -114.5t-81.5 -96.5q-29 -22 -60.5 -35t-70 -18.5t-63.5 -6.5t-71 -1h-95l-56 -289h-100zM251 364h121q37 0 57.5 1.5t51.5 11t55 28.5q34 27 51.5 66.5t17.5 74.5q0 22 -6.5 39 t-15.5 28t-26.5 18.5t-29.5 11t-35 5.5t-33 2h-33h-120z" />
<glyph unicode="Q" horiz-adv-x="767" d="M95 263q0 61 15.5 125.5t50 128.5t83.5 114t123 81t161 31q134 0 210 -74.5t76 -206.5q0 -85 -27.5 -168.5t-83 -155t-129.5 -110.5q41 -108 138 -108l-14 -75q-77 0 -130 46.5t-68 107.5q-58 -17 -120 -17q-134 0 -209.5 74.5t-75.5 206.5zM203 253q0 -56 17 -96.5 t46 -61t61 -29.5t68 -9q45 0 87 13q-33 90 -111 111l33 73q40 -12 73 -38t51.5 -54.5t25.5 -56.5q44 30 76 82t47.5 108t22 99.5t6.5 77.5q0 56 -17 96.5t-46 61t-61 29.5t-68 9q-100 0 -175 -60q-49 -41 -81.5 -112t-43.5 -131t-11 -112z" />
<glyph unicode="R" horiz-adv-x="629" d="M80 0l141 725h169q37 0 56.5 -0.5t51.5 -3t51.5 -8t42 -16.5t38.5 -27q42 -42 42 -110q0 -20 -3 -41t-11.5 -44.5t-20.5 -45.5t-31.5 -43t-43 -38.5t-56.5 -30.5t-71 -20l100 -168q35 -61 103 -81l-36 -75q-95 31 -143 112l-120 204h-58h-45l-56 -289h-100zM251 364h71 q41 0 64 1.5t56.5 10.5t57.5 27q35 26 53 64.5t18 77.5q0 22 -6.5 39.5t-14.5 28.5t-24.5 18.5t-28 11t-33.5 5.5t-31.5 2h-31.5h-95z" />
<glyph unicode="S" horiz-adv-x="602" d="M48 42l18 93q125 -78 240 -78q42 0 77.5 10t61 28.5t39.5 44.5t14 57q0 28 -16 50.5t-45.5 39.5t-77.5 33l-42 15q-50 18 -83.5 35t-55 35.5t-31 39t-9.5 45.5q0 16 4 36q9 43 30 78.5t51 61t67.5 43t78.5 26t83 8.5q98 0 196 -43l-16 -85q-60 26 -106 39.5t-96 13.5 q-54 0 -96 -16.5t-65 -47t-23 -70.5q0 -35 30.5 -54t114.5 -49l43 -14q171 -60 171 -178q0 -19 -4 -40q-20 -103 -111 -160t-211 -57q-135 0 -231 60z" />
<glyph unicode="T" horiz-adv-x="587" d="M136 650l15 75h568l-15 -75h-234l-126 -650h-100l126 650h-234z" />
<glyph unicode="U" horiz-adv-x="710" d="M118 158q0 38 16 119l87 448h100l-91 -466q-11 -56 -11 -82q0 -28 9.5 -49.5t24 -34.5t34 -21.5t39 -11.5t40.5 -3q81 0 138 43q25 20 41.5 49t22 50t12.5 60l91 466h100l-87 -448q-6 -29 -9 -44t-10 -40.5t-14.5 -42t-19 -37t-27.5 -37t-36 -31.5q-85 -63 -216 -63 q-36 0 -67 4.5t-62.5 17t-54 31.5t-36.5 51t-14 72z" />
<glyph unicode="V" horiz-adv-x="648" d="M151 725h100l107 -611l338 611h83l-401 -725h-100z" />
<glyph unicode="W" horiz-adv-x="936" d="M151 725h100l34 -613l278 613h100l56 -612l265 612h83l-314 -725h-124l-52 573l-260 -573h-126z" />
<glyph unicode="X" horiz-adv-x="648" d="M1 0l340 361l-192 364h114l150 -286l269 286h100l-332 -354l195 -371h-114l-154 293l-275 -293h-101z" />
<glyph unicode="Y" horiz-adv-x="638" d="M151 725h100l150 -365l285 365h83l-340 -435l-56 -290h-100l56 290z" />
<glyph unicode="Z" horiz-adv-x="613" d="M40 0l18 93l540 557h-416l15 75h518l-18 -93l-540 -557h432l-15 -75h-534z" />
<glyph unicode="[" horiz-adv-x="268" d="M15 -129l173 888h218l-14 -72h-123l-145 -744h123l-14 -72h-218z" />
<glyph unicode="\" horiz-adv-x="278" d="M147 759h81l26 -888h-81z" />
<glyph unicode="]" horiz-adv-x="268" d="M-15 -129l14 72h123l145 744h-123l14 72h218l-173 -888h-218z" />
<glyph unicode="^" horiz-adv-x="515" d="M13 362l200 361h88l200 -361h-89l-155 281l-155 -281h-89z" />
<glyph unicode="_" horiz-adv-x="500" d="M-14 -71l14 71h500l-14 -71h-500z" />
<glyph unicode="`" horiz-adv-x="222" d="M39 723v47l95 1v-48l36 -130l-59 -1z" />
<glyph unicode="a" horiz-adv-x="522" d="M65 101q0 17 3.5 35t13.5 41t31.5 45t52.5 39q51 28 112 37.5t144 10.5l8 40q7 37 7 55q0 32 -20.5 49.5t-72.5 17.5q-83 0 -183 -39l14 73q93 37 195 37q93 0 128.5 -30.5t35.5 -85.5q0 -29 -12 -93l-65 -333h-95l14 70q-99 -82 -190 -82q-57 0 -89 30.5t-32 82.5z M162 121q0 -29 19 -45.5t52 -16.5q70 0 155 77l23 116q-1 -1 -14 0t-35.5 -1.5t-48.5 -5.5t-53 -13t-48.5 -23.5t-35.5 -36t-14 -51.5z" />
<glyph unicode="b" horiz-adv-x="542" d="M78 17l147 753h95l-61 -315q81 87 179 87q27 0 49 -7t42.5 -23t32 -47.5t11.5 -75.5q0 -39 -9 -86t-24.5 -89t-43.5 -84.5t-64 -73t-89.5 -49.5t-117.5 -19q-89 0 -147 29zM183 66q30 -7 59 -7q169 0 214 231q10 47 10 82q0 99 -75 99q-43 0 -83 -27.5t-65 -70.5z" />
<glyph unicode="c" horiz-adv-x="499" d="M85 187q0 39 8.5 82.5t31 93t57 88.5t92.5 65t131 26t154 -22l-15 -75q-102 26 -151 26q-84 0 -134.5 -53.5t-69.5 -152.5q-8 -39 -8 -71q0 -135 129 -135q51 0 166 32l-15 -77q-93 -26 -164 -26q-101 0 -156.5 51t-55.5 148z" />
<glyph unicode="d" horiz-adv-x="542" d="M76 163q0 40 9 86q14 68 41 120.5t60 84.5t74.5 52.5t80 28t79.5 7.5q29 0 57 -4l45 232h95l-150 -770h-95l13 65q-73 -77 -161 -77q-63 0 -105.5 43t-42.5 132zM183 178q0 -60 24 -89.5t63 -29.5t74 26t57 66l61 313q-28 7 -56 7q-172 0 -214 -215q-9 -43 -9 -78z" />
<glyph unicode="e" horiz-adv-x="521" d="M85 184q0 37 8 79q9 46 25.5 85.5t36.5 67.5t45 50.5t50.5 36.5t53 23t52 12.5t48.5 3.5q73 0 120 -33.5t47 -88.5q0 -51 -41.5 -97t-115.5 -70t-209 -24h-22q-3 -19 -3 -36q0 -134 142 -134q71 0 175 29l-15 -76q-82 -24 -169 -24q-64 0 -109.5 15.5t-71 43.5 t-36.5 61.5t-11 75.5zM197 301h22q118 0 167 16q43 15 66 39.5t23 53.5q0 27 -23 44t-60 17q-15 0 -30.5 -2.5t-34.5 -9t-37 -19t-35.5 -30.5t-32.5 -46t-25 -63z" />
<glyph unicode="f" horiz-adv-x="340" d="M-102 -190l14 71q46 -15 75 -15q53 0 74.5 36t40.5 136l82 421h-71l14 71h71q14 66 30 110t41 77.5t61 49t86 15.5q44 0 83 -15l-14 -71q-44 15 -69 15q-54 0 -78.5 -40.5t-44.5 -140.5h95l-14 -71h-95l-69 -358l-1 -1q-8 -44 -13 -66t-15.5 -60.5t-21 -59t-28 -47 t-38.5 -39.5t-51 -23t-67 -10q-39 0 -77 15z" />
<glyph unicode="g" horiz-adv-x="515" d="M9 -171l16 83q116 -34 237 -34q131 0 131 56q0 10 -5 17t-9.5 11t-16 8t-17 5t-19.5 4l-91 18q-21 4 -35.5 8t-33.5 11.5t-30 17t-19.5 25t-8.5 34.5q0 28 16 54t40 44q-62 42 -62 124q0 37 16 75.5t45.5 73t80.5 56.5t113 22q66 0 109 -24q67 60 137 60l-14 -72 q-47 0 -85 -18q35 -41 35 -100q0 -39 -16.5 -78.5t-47.5 -73.5t-81 -55.5t-111 -21.5q-37 0 -68 9q-25 -21 -25 -45q0 -21 21 -31t66 -19l90 -18q19 -4 32.5 -7.5t32 -11t30 -17.5t20 -25.5t8.5 -35.5q0 -44 -25.5 -75t-69.5 -47t-92 -23t-104 -7q-108 0 -190 23zM205 308 q0 -24 8.5 -40.5t29 -26.5t54.5 -10q64 0 93.5 31.5t40.5 88.5q5 24 5 42q0 78 -92 78q-35 0 -60.5 -10.5t-39.5 -29.5t-21.5 -37.5t-12.5 -42.5q-5 -25 -5 -43z" />
<glyph unicode="h" horiz-adv-x="565" d="M75 0l150 770h95l-63 -324q100 96 206 96q59 0 82.5 -28.5t23.5 -77.5q0 -33 -14 -107l-64 -329h-95l67 347q9 46 9 67q0 28 -13 42.5t-45 14.5q-91 0 -174 -109l-70 -362h-95z" />
<glyph unicode="i" horiz-adv-x="245" d="M75 0l103 530h95l-103 -530h-95zM197 630l19 95h95l-19 -95h-95z" />
<glyph unicode="j" horiz-adv-x="245" d="M-112 -189l15 74q45 -19 72 -19q18 0 32 5t24 16.5t16.5 22t12.5 31t8.5 33.5t7.5 38l101 518h95l-95 -490q-6 -28 -9 -42.5t-9 -39.5t-11.5 -38.5t-14.5 -33.5t-18.5 -31t-24 -24.5t-31 -20t-38 -11t-46.5 -4.5q-44 0 -87 16zM196 630l19 95h95l-19 -95h-95z" />
<glyph unicode="k" horiz-adv-x="492" d="M75 0l150 770h95l-90 -461l226 221h99l-245 -239l81 -139q39 -70 118 -93l-32 -71q-106 31 -159 123l-70 120l-41 -40l-37 -191h-95z" />
<glyph unicode="l" horiz-adv-x="245" d="M75 0l150 770h95l-150 -770h-95z" />
<glyph unicode="m" horiz-adv-x="830" d="M75 0l103 530h95l-12 -64q81 76 171 76q99 0 108 -90q86 90 184 90q109 0 109 -110q0 -33 -14 -104l-64 -328h-95l67 346q9 44 9 65q0 60 -58 60q-78 0 -142 -94q-3 -16 -9 -49l-64 -328h-94l67 346q9 43 9 63q0 62 -59 62q-78 0 -143 -94l-73 -377h-95z" />
<glyph unicode="n" horiz-adv-x="565" d="M75 0l103 530h95l-16 -84q100 96 206 96q59 0 82.5 -28.5t23.5 -77.5q0 -33 -14 -107l-64 -329h-95l67 347q9 46 9 67q0 28 -13 42.5t-45 14.5q-91 0 -174 -109l-70 -362h-95z" />
<glyph unicode="o" horiz-adv-x="559" d="M81 191q0 92 37.5 172t108 129.5t157.5 49.5q61 0 105.5 -24.5t67.5 -70.5t23 -108q0 -92 -37.5 -172t-108 -129.5t-157.5 -49.5q-92 0 -144 54.5t-52 148.5zM183 180q0 -35 10 -59.5t27 -37.5t34 -18.5t36 -5.5q57 0 99 38q28 24 47.5 65t27.5 82.5t11 66.5t3 39 q0 35 -10 59.5t-27 37.5t-34 18.5t-36 5.5q-56 0 -99 -38q-28 -24 -47.5 -65t-27.5 -82.5t-11 -66.5t-3 -39z" />
<glyph unicode="p" horiz-adv-x="542" d="M37 -193l141 723h95l-14 -75q81 87 179 87q27 0 49 -7t42.5 -23t32 -47.5t11.5 -75.5q0 -39 -9 -86t-24.5 -89t-43.5 -84.5t-64 -73t-89.5 -49.5t-117.5 -19q-30 0 -57 3l-36 -184h-95zM183 66q30 -7 59 -7q169 0 214 231q10 47 10 82q0 99 -75 99q-43 0 -83 -27.5 t-65 -70.5z" />
<glyph unicode="q" horiz-adv-x="542" d="M76 163q0 40 9 86q9 43 22.5 80t31.5 65t38.5 51t44.5 38.5t48 27.5t50.5 18.5t50.5 9.5t49 3q87 0 147 -29l-138 -706h-95l51 258q-73 -77 -161 -77q-63 0 -105.5 43t-42.5 132zM183 178q0 -60 24 -89.5t63 -29.5t74 26t57 66l61 313q-28 7 -56 7q-172 0 -214 -215 q-9 -43 -9 -78z" />
<glyph unicode="r" horiz-adv-x="410" d="M75 0l103 530h95l-20 -101q40 52 92 82.5t111 30.5q28 0 47 -4l-18 -88q-31 7 -54 7q-60 0 -114 -36t-83 -93l-64 -328h-95z" />
<glyph unicode="s" horiz-adv-x="485" d="M63 19l15 77q77 -37 166 -37q68 0 100.5 29.5t32.5 64.5q0 11 -4.5 20.5t-10.5 16t-17.5 12.5t-19.5 9t-20 8l-72 25q-29 10 -51.5 26.5t-36 41t-13.5 53.5q0 71 70 124t170 53q64 0 138 -22l-15 -76q-91 27 -139 27q-54 0 -89.5 -21t-35.5 -55q0 -15 12.5 -28t25 -18.5 t34.5 -13.5l72 -25q103 -36 103 -121q0 -36 -17 -71t-48 -64.5t-81 -47.5t-111 -18q-96 0 -158 31z" />
<glyph unicode="t" horiz-adv-x="334" d="M113 459l14 71h71l23 120h95l-23 -120h132l-14 -71h-132l-55 -286q-9 -44 -9 -64q0 -24 11.5 -37t38.5 -13q26 0 70 8l-14 -71q-51 -8 -90 -8q-64 0 -89 23t-25 69q0 33 15 111l52 268h-71z" />
<glyph unicode="u" horiz-adv-x="565" d="M101 98q0 33 13 105l64 327h95l-67 -345q-9 -46 -9 -66q0 -60 59 -60q90 0 173 108l70 363h95l-103 -530h-95l16 84q-99 -96 -203 -96q-108 0 -108 110z" />
<glyph unicode="v" horiz-adv-x="495" d="M113 530h95l74 -432l156 246q23 37 23 81q0 46 -24 93l69 24q34 -64 34 -116q0 -44 -23 -82l-218 -344h-95z" />
<glyph unicode="w" horiz-adv-x="659" d="M113 530h85l33 -439l142 253q21 38 21 82q0 42 -20 93l80 22q22 -54 22 -103q0 -51 -24 -94l-33 -59l56 -216l147 275q19 36 19 78q0 44 -21 97l80 22q23 -55 23 -105q0 -49 -22 -92l-184 -344h-109l-48 182l-102 -182h-105z" />
<glyph unicode="x" horiz-adv-x="495" d="M3 0l238 268l-87 122q-37 53 -37 125v15h95v-10q0 -50 28 -90l75 -105l182 205h93l-234 -262l91 -126q38 -53 38 -126q0 -8 -1 -16h-95v10q0 52 -29 92l-77 108l-187 -210h-93z" />
<glyph unicode="y" horiz-adv-x="495" d="M34 -183l15 75q50 -14 91 -14q38 0 68 9t47 20.5t30 30.5t17.5 30t9.5 28q2 4 2 6l5 15q-33 -22 -68 -22q-28 0 -50 12.5t-34 34t-20 42t-11 47t-3.5 38t-0.5 23.5v3l-19 335h95l21 -355l1.5 -27t2 -23t3 -21.5t4 -17.5t6 -15t8 -10t10.5 -7t13 -2q40 0 71 51l144 427h95 l-174 -519q0 -2 -2 -6q-7 -23 -12 -36t-17.5 -36.5t-25 -38t-35 -33t-49.5 -29t-66 -18t-86 -7.5q-50 0 -86 10z" />
<glyph unicode="z" horiz-adv-x="499" d="M42 0l16 80l385 379h-300l14 71h404l-16 -80l-386 -380q31 -2 93.5 -18t95.5 -16q57 0 114 33l29 -67q-66 -38 -144 -38q-42 0 -113.5 18t-108.5 18h-83z" />
<glyph unicode="{" horiz-adv-x="287" d="M64 279l14 72q25 0 48.5 14t38.5 38l39 198q3 18 11 36t19 33.5t24.5 29t29.5 24.5t33.5 19t36.5 12t38 4h30l-14 -72h-30q-35 0 -64 -25t-36 -61l-40 -204q-2 -12 -13 -27.5t-25.5 -30t-29.5 -24.5q7 -6 13.5 -15t12 -19t8.5 -20.5t3 -19.5q0 -4 -1 -8l-39 -204 q-2 -9 -2 -17q0 -30 19 -49.5t49 -19.5h30l-14 -72h-30q-39 0 -69.5 17t-47 46t-16.5 65q0 15 3 30l38 198q-6 24 -24 38t-43 14z" />
<glyph unicode="|" horiz-adv-x="238" d="M55 -129l173 888h78l-173 -888h-78z" />
<glyph unicode="}" horiz-adv-x="287" d="M-15 -129l14 72h30q35 0 64 25t36 61l39 204q3 12 13.5 27.5t25 30t29.5 24.5q-14 13 -25.5 34.5t-11.5 39.5q0 4 1 8l40 204q2 9 2 17q0 10 -2.5 19t-6.5 16.5t-10 13.5t-13.5 10.5t-16.5 7t-19 2.5h-30l14 72h30q58 0 95.5 -36.5t37.5 -91.5q0 -15 -3 -30l-39 -198 q6 -24 24 -38t43 -14l-14 -72q-25 0 -48.5 -14t-38.5 -38l-38 -198q-13 -65 -69 -111.5t-123 -46.5h-30z" />
<glyph unicode="~" horiz-adv-x="575" d="M40 224q0 66 40.5 113t98.5 47q32 0 63.5 -16.5t52.5 -37t46.5 -37t47.5 -16.5q50 0 50 89h95q0 -66 -40.5 -113t-98.5 -47q-32 0 -63.5 16.5t-52.5 37t-46.5 37t-47.5 16.5q-50 0 -50 -89h-95z" />
<glyph unicode="&#xa8;" horiz-adv-x="710" d="M335 630l19 95h95l-19 -95h-95zM524 630l19 95h95l-19 -95h-95z" />
<glyph unicode="&#xad;" horiz-adv-x="300" d="M90 259l14 72h220l-14 -72h-220z" />
<glyph unicode="&#xaf;" horiz-adv-x="710" d="M335 630l14 71h284l-14 -71h-284z" />
<glyph unicode="&#xb4;" horiz-adv-x="270" d="M176 601l107 160h95l-145 -160h-57z" />
<glyph unicode="&#xc0;" horiz-adv-x="658" d="M10 0l406 725h100l132 -725h-100l-37 202h-305l-113 -202h-83zM248 277h250l-62 336zM388 956h95l45 -160h-57z" />
<glyph unicode="&#xc1;" horiz-adv-x="658" d="M10 0l406 725h100l132 -725h-100l-37 202h-305l-113 -202h-83zM248 277h250l-62 336zM414 796l107 160h95l-145 -160h-57z" />
<glyph unicode="&#xc2;" horiz-adv-x="658" d="M10 0l406 725h100l132 -725h-100l-37 202h-305l-113 -202h-83zM248 277h250l-62 336zM314 796l137 142h94l83 -142h-76l-64 90l-98 -90h-76z" />
<glyph unicode="&#xc4;" horiz-adv-x="658" d="M10 0l406 725h100l132 -725h-100l-37 202h-305l-113 -202h-83zM248 277h250l-62 336zM334 825l19 95h95l-19 -95h-95zM523 825l19 95h95l-19 -95h-95z" />
<glyph unicode="&#xc5;" horiz-adv-x="658" d="M10 0l406 725h100l132 -725h-100l-37 202h-305l-113 -202h-83zM248 277h250l-62 336zM374 876q0 49 42 85.5t94 36.5q41 0 68.5 -24t27.5 -61q0 -23 -11 -45t-29.5 -39.5t-43.5 -28t-52 -10.5q-41 0 -68.5 24t-27.5 62zM432 884q0 -20 13 -33t34 -13q26 0 47.5 20.5 t21.5 46.5q0 10 -3.5 18.5t-10 14.5t-15 9.5t-18.5 3.5q-26 0 -47.5 -20.5t-21.5 -46.5z" />
<glyph unicode="&#xc8;" horiz-adv-x="598" d="M80 0l141 725h478l-15 -75h-378l-43 -224h305l-15 -75h-305l-53 -276h390l-15 -75h-490zM391 956h95l45 -160h-57z" />
<glyph unicode="&#xc9;" horiz-adv-x="598" d="M80 0l141 725h478l-15 -75h-378l-43 -224h305l-15 -75h-305l-53 -276h390l-15 -75h-490zM417 796l107 160h95l-145 -160h-57z" />
<glyph unicode="&#xca;" horiz-adv-x="598" d="M80 0l141 725h478l-15 -75h-378l-43 -224h305l-15 -75h-305l-53 -276h390l-15 -75h-490zM317 796l137 142h94l83 -142h-76l-64 90l-98 -90h-76z" />
<glyph unicode="&#xcb;" horiz-adv-x="598" d="M80 0l141 725h478l-15 -75h-378l-43 -224h305l-15 -75h-305l-53 -276h390l-15 -75h-490zM337 825l19 95h95l-19 -95h-95zM526 825l19 95h95l-19 -95h-95z" />
<glyph unicode="&#xcc;" horiz-adv-x="260" d="M80 0l141 725h100l-141 -725h-100zM202 956h95l45 -160h-57z" />
<glyph unicode="&#xcd;" horiz-adv-x="260" d="M80 0l141 725h100l-141 -725h-100zM228 796l107 160h95l-145 -160h-57z" />
<glyph unicode="&#xce;" horiz-adv-x="260" d="M80 0l141 725h100l-141 -725h-100zM128 796l137 142h94l83 -142h-76l-64 90l-98 -90h-76z" />
<glyph unicode="&#xcf;" horiz-adv-x="260" d="M80 0l141 725h100l-141 -725h-100zM148 825l19 95h95l-19 -95h-95zM337 825l19 95h95l-19 -95h-95z" />
<glyph unicode="&#xd0;" horiz-adv-x="687" d="M71 325l15 75h72l63 325h167q37 0 56 -0.5t51.5 -3.5t53.5 -9.5t46.5 -18t45.5 -30t36 -44.5q50 -74 50 -175q0 -98 -43 -186.5t-112 -151.5q-34 -31 -72 -52t-68.5 -31.5t-73.5 -15.5t-68 -6t-73 -1h-137l63 325h-72zM195 75h72q40 0 62 1.5t57 8.5t65 25t60 47 q54 55 84.5 130.5t30.5 151.5t-28 130q-13 23 -30.5 39.5t-33 24.5t-40.5 12t-40 4.5t-45 0.5h-103l-48 -250h166l-15 -75h-166z" />
<glyph unicode="&#xd2;" horiz-adv-x="767" d="M95 263q0 61 15.5 125.5t50 128.5t83.5 114t123 81t161 31q134 0 210 -74.5t76 -206.5q0 -61 -15.5 -126t-50 -128.5t-83.5 -113.5t-123 -81t-161 -31q-89 0 -153.5 33.5t-98.5 96.5t-34 151zM203 253q0 -56 17 -96.5t46 -61t61 -29.5t68 -9q100 0 175 60 q49 41 81.5 112.5t43.5 131t11 111.5q0 56 -17 96.5t-46 61t-61 29.5t-68 9q-100 0 -175 -60q-49 -41 -81.5 -112t-43.5 -131t-11 -112zM456 956h95l45 -160h-57z" />
<glyph unicode="&#xd3;" horiz-adv-x="767" d="M95 263q0 61 15.5 125.5t50 128.5t83.5 114t123 81t161 31q134 0 210 -74.5t76 -206.5q0 -61 -15.5 -126t-50 -128.5t-83.5 -113.5t-123 -81t-161 -31q-89 0 -153.5 33.5t-98.5 96.5t-34 151zM203 253q0 -56 17 -96.5t46 -61t61 -29.5t68 -9q100 0 175 60 q49 41 81.5 112.5t43.5 131t11 111.5q0 56 -17 96.5t-46 61t-61 29.5t-68 9q-100 0 -175 -60q-49 -41 -81.5 -112t-43.5 -131t-11 -112zM482 796l107 160h95l-145 -160h-57z" />
<glyph unicode="&#xd4;" horiz-adv-x="767" d="M95 263q0 61 15.5 125.5t50 128.5t83.5 114t123 81t161 31q134 0 210 -74.5t76 -206.5q0 -61 -15.5 -126t-50 -128.5t-83.5 -113.5t-123 -81t-161 -31q-89 0 -153.5 33.5t-98.5 96.5t-34 151zM203 253q0 -56 17 -96.5t46 -61t61 -29.5t68 -9q100 0 175 60 q49 41 81.5 112.5t43.5 131t11 111.5q0 56 -17 96.5t-46 61t-61 29.5t-68 9q-100 0 -175 -60q-49 -41 -81.5 -112t-43.5 -131t-11 -112zM382 796l137 142h94l83 -142h-76l-64 90l-98 -90h-76z" />
<glyph unicode="&#xd6;" horiz-adv-x="767" d="M95 263q0 61 15.5 125.5t50 128.5t83.5 114t123 81t161 31q134 0 210 -74.5t76 -206.5q0 -61 -15.5 -126t-50 -128.5t-83.5 -113.5t-123 -81t-161 -31q-89 0 -153.5 33.5t-98.5 96.5t-34 151zM203 253q0 -56 17 -96.5t46 -61t61 -29.5t68 -9q100 0 175 60 q49 41 81.5 112.5t43.5 131t11 111.5q0 56 -17 96.5t-46 61t-61 29.5t-68 9q-100 0 -175 -60q-49 -41 -81.5 -112t-43.5 -131t-11 -112zM402 825l19 95h95l-19 -95h-95zM591 825l19 95h95l-19 -95h-95z" />
<glyph unicode="&#xd9;" horiz-adv-x="710" d="M118 158q0 38 16 119l87 448h100l-91 -466q-11 -56 -11 -82q0 -28 9.5 -49.5t24 -34.5t34 -21.5t39 -11.5t40.5 -3q81 0 138 43q25 20 41.5 49t22 50t12.5 60l91 466h100l-87 -448q-6 -29 -9 -44t-10 -40.5t-14.5 -42t-19 -37t-27.5 -37t-36 -31.5q-85 -63 -216 -63 q-36 0 -67 4.5t-62.5 17t-54 31.5t-36.5 51t-14 72zM427 956h95l45 -160h-57z" />
<glyph unicode="&#xda;" horiz-adv-x="710" d="M118 158q0 38 16 119l87 448h100l-91 -466q-11 -56 -11 -82q0 -28 9.5 -49.5t24 -34.5t34 -21.5t39 -11.5t40.5 -3q81 0 138 43q25 20 41.5 49t22 50t12.5 60l91 466h100l-87 -448q-6 -29 -9 -44t-10 -40.5t-14.5 -42t-19 -37t-27.5 -37t-36 -31.5q-85 -63 -216 -63 q-36 0 -67 4.5t-62.5 17t-54 31.5t-36.5 51t-14 72zM453 796l107 160h95l-145 -160h-57z" />
<glyph unicode="&#xdb;" horiz-adv-x="710" d="M118 158q0 38 16 119l87 448h100l-91 -466q-11 -56 -11 -82q0 -28 9.5 -49.5t24 -34.5t34 -21.5t39 -11.5t40.5 -3q81 0 138 43q25 20 41.5 49t22 50t12.5 60l91 466h100l-87 -448q-6 -29 -9 -44t-10 -40.5t-14.5 -42t-19 -37t-27.5 -37t-36 -31.5q-85 -63 -216 -63 q-36 0 -67 4.5t-62.5 17t-54 31.5t-36.5 51t-14 72zM353 796l137 142h94l83 -142h-76l-64 90l-98 -90h-76z" />
<glyph unicode="&#xdc;" horiz-adv-x="710" d="M118 158q0 38 16 119l87 448h100l-91 -466q-11 -56 -11 -82q0 -28 9.5 -49.5t24 -34.5t34 -21.5t39 -11.5t40.5 -3q81 0 138 43q25 20 41.5 49t22 50t12.5 60l91 466h100l-87 -448q-6 -29 -9 -44t-10 -40.5t-14.5 -42t-19 -37t-27.5 -37t-36 -31.5q-85 -63 -216 -63 q-36 0 -67 4.5t-62.5 17t-54 31.5t-36.5 51t-14 72zM373 825l19 95h95l-19 -95h-95zM562 825l19 95h95l-19 -95h-95z" />
<glyph unicode="&#xdd;" horiz-adv-x="638" d="M151 725h100l150 -365l285 365h83l-340 -435l-56 -290h-100l56 290zM417 796l107 160h95l-145 -160h-57z" />
<glyph unicode="&#xde;" horiz-adv-x="632" d="M80 0l141 725h100l-27 -138h94q48 0 73 -1t62.5 -5.5t64.5 -16.5t48 -31q44 -42 44 -110q0 -57 -29.5 -114.5t-81.5 -96.5q-29 -22 -60.5 -35t-70 -18.5t-63.5 -6.5t-71 -1h-95l-29 -151h-100zM224 226h161q49 0 88 18t61 46.5t33.5 59t11.5 58.5q0 46 -33 75t-105 29 h-161z" />
<glyph unicode="&#xdf;" horiz-adv-x="617" d="M75 0l107 550q7 34 11.5 52.5t15 46.5t27 48.5t40.5 36.5q67 48 164 48q79 0 130.5 -35.5t51.5 -93.5q0 -37 -20 -72t-48.5 -61.5t-57 -49.5t-48.5 -46.5t-20 -43.5q0 -31 59 -63l32 -17q44 -23 67.5 -48t23.5 -66q0 -22 -7 -45t-20 -45t-33.5 -41.5t-45.5 -34.5 t-58 -23.5t-70 -8.5q-85 0 -136 29l16 81q69 -39 141 -39q52 0 81 26.5t29 55.5q0 13 -6 24t-19.5 21t-22 15.5t-26.5 14.5l-34 17q-33 17 -52 48t-19 67q0 30 11 56.5t28.5 47.5t38.5 40t42 37t38 35t28 36.5t11 40.5q0 31 -26 50.5t-68 19.5q-54 0 -95 -30 q-18 -14 -30 -34.5t-16 -35.5t-10 -43l-110 -568h-95z" />
<glyph unicode="&#xe0;" horiz-adv-x="522" d="M65 101q0 17 3.5 35t13.5 41t31.5 45t52.5 39q51 28 112 37.5t144 10.5l8 40q7 37 7 55q0 32 -20.5 49.5t-72.5 17.5q-83 0 -183 -39l14 73q93 37 195 37q93 0 128.5 -30.5t35.5 -85.5q0 -29 -12 -93l-65 -333h-95l14 70q-99 -82 -190 -82q-57 0 -89 30.5t-32 82.5z M162 121q0 -29 19 -45.5t52 -16.5q70 0 155 77l23 116q-1 -1 -14 0t-35.5 -1.5t-48.5 -5.5t-53 -13t-48.5 -23.5t-35.5 -36t-14 -51.5zM294 761h95l45 -160h-57z" />
<glyph unicode="&#xe1;" horiz-adv-x="522" d="M65 101q0 17 3.5 35t13.5 41t31.5 45t52.5 39q51 28 112 37.5t144 10.5l8 40q7 37 7 55q0 32 -20.5 49.5t-72.5 17.5q-83 0 -183 -39l14 73q93 37 195 37q93 0 128.5 -30.5t35.5 -85.5q0 -29 -12 -93l-65 -333h-95l14 70q-99 -82 -190 -82q-57 0 -89 30.5t-32 82.5z M162 121q0 -29 19 -45.5t52 -16.5q70 0 155 77l23 116q-1 -1 -14 0t-35.5 -1.5t-48.5 -5.5t-53 -13t-48.5 -23.5t-35.5 -36t-14 -51.5zM320 601l107 160h95l-145 -160h-57z" />
<glyph unicode="&#xe2;" horiz-adv-x="522" d="M65 101q0 17 3.5 35t13.5 41t31.5 45t52.5 39q51 28 112 37.5t144 10.5l8 40q7 37 7 55q0 32 -20.5 49.5t-72.5 17.5q-83 0 -183 -39l14 73q93 37 195 37q93 0 128.5 -30.5t35.5 -85.5q0 -29 -12 -93l-65 -333h-95l14 70q-99 -82 -190 -82q-57 0 -89 30.5t-32 82.5z M162 121q0 -29 19 -45.5t52 -16.5q70 0 155 77l23 116q-1 -1 -14 0t-35.5 -1.5t-48.5 -5.5t-53 -13t-48.5 -23.5t-35.5 -36t-14 -51.5zM220 601l137 142h94l83 -142h-76l-64 90l-98 -90h-76z" />
<glyph unicode="&#xe4;" horiz-adv-x="522" d="M65 101q0 17 3.5 35t13.5 41t31.5 45t52.5 39q51 28 112 37.5t144 10.5l8 40q7 37 7 55q0 32 -20.5 49.5t-72.5 17.5q-83 0 -183 -39l14 73q93 37 195 37q93 0 128.5 -30.5t35.5 -85.5q0 -29 -12 -93l-65 -333h-95l14 70q-99 -82 -190 -82q-57 0 -89 30.5t-32 82.5z M162 121q0 -29 19 -45.5t52 -16.5q70 0 155 77l23 116q-1 -1 -14 0t-35.5 -1.5t-48.5 -5.5t-53 -13t-48.5 -23.5t-35.5 -36t-14 -51.5zM240 630l19 95h95l-19 -95h-95zM429 630l19 95h95l-19 -95h-95z" />
<glyph unicode="&#xe5;" horiz-adv-x="522" d="M65 101q0 17 3.5 35t13.5 41t31.5 45t52.5 39q51 28 112 37.5t144 10.5l8 40q7 37 7 55q0 32 -20.5 49.5t-72.5 17.5q-83 0 -183 -39l14 73q93 37 195 37q93 0 128.5 -30.5t35.5 -85.5q0 -29 -12 -93l-65 -333h-95l14 70q-99 -82 -190 -82q-57 0 -89 30.5t-32 82.5z M162 121q0 -29 19 -45.5t52 -16.5q70 0 155 77l23 116q-1 -1 -14 0t-35.5 -1.5t-48.5 -5.5t-53 -13t-48.5 -23.5t-35.5 -36t-14 -51.5zM280 681q0 49 42 85.5t94 36.5q41 0 68.5 -24t27.5 -61q0 -31 -18.5 -59t-50 -46t-67.5 -18q-41 0 -68.5 24t-27.5 62zM338 689 q0 -20 13.5 -33t33.5 -13q26 0 47.5 20.5t21.5 46.5q0 20 -13.5 33t-33.5 13q-26 0 -47.5 -20.5t-21.5 -46.5z" />
<glyph unicode="&#xe8;" horiz-adv-x="521" d="M85 184q0 37 8 79q9 46 25.5 85.5t36.5 67.5t45 50.5t50.5 36.5t53 23t52 12.5t48.5 3.5q73 0 120 -33.5t47 -88.5q0 -51 -41.5 -97t-115.5 -70t-209 -24h-22q-3 -19 -3 -36q0 -134 142 -134q71 0 175 29l-15 -76q-82 -24 -169 -24q-64 0 -109.5 15.5t-71 43.5 t-36.5 61.5t-11 75.5zM197 301h22q118 0 167 16q43 15 66 39.5t23 53.5q0 27 -23 44t-60 17q-15 0 -30.5 -2.5t-34.5 -9t-37 -19t-35.5 -30.5t-32.5 -46t-25 -63zM319 761h95l45 -160h-57z" />
<glyph unicode="&#xe9;" horiz-adv-x="521" d="M85 184q0 37 8 79q9 46 25.5 85.5t36.5 67.5t45 50.5t50.5 36.5t53 23t52 12.5t48.5 3.5q73 0 120 -33.5t47 -88.5q0 -51 -41.5 -97t-115.5 -70t-209 -24h-22q-3 -19 -3 -36q0 -134 142 -134q71 0 175 29l-15 -76q-82 -24 -169 -24q-64 0 -109.5 15.5t-71 43.5 t-36.5 61.5t-11 75.5zM197 301h22q118 0 167 16q43 15 66 39.5t23 53.5q0 27 -23 44t-60 17q-15 0 -30.5 -2.5t-34.5 -9t-37 -19t-35.5 -30.5t-32.5 -46t-25 -63zM345 601l107 160h95l-145 -160h-57z" />
<glyph unicode="&#xea;" horiz-adv-x="521" d="M85 184q0 37 8 79q9 46 25.5 85.5t36.5 67.5t45 50.5t50.5 36.5t53 23t52 12.5t48.5 3.5q73 0 120 -33.5t47 -88.5q0 -51 -41.5 -97t-115.5 -70t-209 -24h-22q-3 -19 -3 -36q0 -134 142 -134q71 0 175 29l-15 -76q-82 -24 -169 -24q-64 0 -109.5 15.5t-71 43.5 t-36.5 61.5t-11 75.5zM197 301h22q118 0 167 16q43 15 66 39.5t23 53.5q0 27 -23 44t-60 17q-15 0 -30.5 -2.5t-34.5 -9t-37 -19t-35.5 -30.5t-32.5 -46t-25 -63zM245 601l137 142h94l83 -142h-76l-64 90l-98 -90h-76z" />
<glyph unicode="&#xeb;" horiz-adv-x="521" d="M85 184q0 37 8 79q9 46 25.5 85.5t36.5 67.5t45 50.5t50.5 36.5t53 23t52 12.5t48.5 3.5q73 0 120 -33.5t47 -88.5q0 -51 -41.5 -97t-115.5 -70t-209 -24h-22q-3 -19 -3 -36q0 -134 142 -134q71 0 175 29l-15 -76q-82 -24 -169 -24q-64 0 -109.5 15.5t-71 43.5 t-36.5 61.5t-11 75.5zM197 301h22q118 0 167 16q43 15 66 39.5t23 53.5q0 27 -23 44t-60 17q-15 0 -30.5 -2.5t-34.5 -9t-37 -19t-35.5 -30.5t-32.5 -46t-25 -63zM265 630l19 95h95l-19 -95h-95zM454 630l19 95h95l-19 -95h-95z" />
<glyph unicode="&#xec;" horiz-adv-x="245" d="M75 0l103 530h95l-103 -530h-95zM157 761h95l45 -160h-57z" />
<glyph unicode="&#xed;" horiz-adv-x="245" d="M75 0l103 530h95l-103 -530h-95zM182 601l107 160h95l-145 -160h-57z" />
<glyph unicode="&#xee;" horiz-adv-x="245" d="M75 0l103 530h95l-103 -530h-95zM82 601l137 142h94l83 -142h-76l-64 90l-98 -90h-76z" />
<glyph unicode="&#xef;" horiz-adv-x="245" d="M75 0l103 530h95l-103 -530h-95zM102 630l19 95h95l-19 -95h-95zM291 630l19 95h95l-19 -95h-95z" />
<glyph unicode="&#xf0;" horiz-adv-x="559" d="M84 179q0 38 9 83q12 62 35.5 110.5t52 78.5t63 49.5t67 27t65.5 7.5q46 0 76 -16q-23 56 -61 101l-136 -46l-7 42l111 38q-46 42 -106 68l74 39q67 -29 119 -78l138 47l8 -42l-114 -39q99 -117 99 -284q0 -46 -8 -94.5t-30 -100t-54.5 -91.5t-86.5 -65.5t-121 -25.5 q-39 0 -71.5 9.5t-61 31t-44.5 60t-16 90.5zM181 192q0 -67 30 -100t79 -33q44 0 79 22.5t55.5 56t34 75.5t18.5 76.5t5 63.5q0 125 -104 125q-33 0 -60.5 -11.5t-47.5 -30.5t-35.5 -44.5t-25.5 -52t-16.5 -54.5t-9 -50.5t-2.5 -42.5z" />
<glyph unicode="&#xf2;" horiz-adv-x="559" d="M81 191q0 92 37.5 172t108 129.5t157.5 49.5q61 0 105.5 -24.5t67.5 -70.5t23 -108q0 -92 -37.5 -172t-108 -129.5t-157.5 -49.5q-92 0 -144 54.5t-52 148.5zM183 180q0 -35 10 -59.5t27 -37.5t34 -18.5t36 -5.5q57 0 99 38q28 24 47.5 65t27.5 82.5t11 66.5t3 39 q0 28 -7 49.5t-17.5 35t-25.5 22t-29 11.5t-28 3q-56 0 -99 -38q-28 -24 -47.5 -65t-27.5 -82.5t-11 -66.5t-3 -39zM313 761h95l45 -160h-57z" />
<glyph unicode="&#xf3;" horiz-adv-x="559" d="M81 191q0 92 37.5 172t108 129.5t157.5 49.5q61 0 105.5 -24.5t67.5 -70.5t23 -108q0 -92 -37.5 -172t-108 -129.5t-157.5 -49.5q-92 0 -144 54.5t-52 148.5zM183 180q0 -35 10 -59.5t27 -37.5t34 -18.5t36 -5.5q57 0 99 38q28 24 47.5 65t27.5 82.5t11 66.5t3 39 q0 28 -7 49.5t-17.5 35t-25.5 22t-29 11.5t-28 3q-56 0 -99 -38q-28 -24 -47.5 -65t-27.5 -82.5t-11 -66.5t-3 -39zM339 601l107 160h95l-145 -160h-57z" />
<glyph unicode="&#xf4;" horiz-adv-x="559" d="M81 191q0 92 37.5 172t108 129.5t157.5 49.5q61 0 105.5 -24.5t67.5 -70.5t23 -108q0 -92 -37.5 -172t-108 -129.5t-157.5 -49.5q-92 0 -144 54.5t-52 148.5zM183 180q0 -35 10 -59.5t27 -37.5t34 -18.5t36 -5.5q57 0 99 38q28 24 47.5 65t27.5 82.5t11 66.5t3 39 q0 28 -7 49.5t-17.5 35t-25.5 22t-29 11.5t-28 3q-56 0 -99 -38q-28 -24 -47.5 -65t-27.5 -82.5t-11 -66.5t-3 -39zM239 601l137 142h94l83 -142h-76l-64 90l-98 -90h-76z" />
<glyph unicode="&#xf6;" horiz-adv-x="559" d="M81 191q0 92 37.5 172t108 129.5t157.5 49.5q61 0 105.5 -24.5t67.5 -70.5t23 -108q0 -92 -37.5 -172t-108 -129.5t-157.5 -49.5q-92 0 -144 54.5t-52 148.5zM183 180q0 -35 10 -59.5t27 -37.5t34 -18.5t36 -5.5q57 0 99 38q28 24 47.5 65t27.5 82.5t11 66.5t3 39 q0 35 -10 59.5t-27 37.5t-34 18.5t-36 5.5q-56 0 -99 -38q-28 -24 -47.5 -65t-27.5 -82.5t-11 -66.5t-3 -39zM259 630l19 95h95l-19 -95h-95zM448 630l19 95h95l-19 -95h-95z" />
<glyph unicode="&#xf9;" horiz-adv-x="565" d="M101 98q0 33 13 105l64 327h95l-67 -345q-9 -46 -9 -66q0 -60 59 -60q90 0 173 108l70 363h95l-103 -530h-95l16 84q-99 -96 -203 -96q-108 0 -108 110zM317 761h95l45 -160h-57z" />
<glyph unicode="&#xfa;" horiz-adv-x="565" d="M101 98q0 33 13 105l64 327h95l-67 -345q-9 -46 -9 -66q0 -60 59 -60q90 0 173 108l70 363h95l-103 -530h-95l16 84q-99 -96 -203 -96q-108 0 -108 110zM343 601l107 160h95l-145 -160h-57z" />
<glyph unicode="&#xfb;" horiz-adv-x="565" d="M101 98q0 33 13 105l64 327h95l-67 -345q-9 -46 -9 -66q0 -60 59 -60q90 0 173 108l70 363h95l-103 -530h-95l16 84q-99 -96 -203 -96q-108 0 -108 110zM243 601l137 142h94l83 -142h-76l-64 90l-98 -90h-76z" />
<glyph unicode="&#xfc;" horiz-adv-x="565" d="M101 98q0 33 13 105l64 327h95l-67 -345q-9 -46 -9 -66q0 -60 59 -60q90 0 173 108l70 363h95l-103 -530h-95l16 84q-99 -96 -203 -96q-108 0 -108 110zM263 630l19 95h95l-19 -95h-95zM452 630l19 95h95l-19 -95h-95z" />
<glyph unicode="&#xfd;" horiz-adv-x="495" d="M34 -183l15 75q50 -14 91 -14q38 0 68 9t47 20.5t30 30.5t17.5 30t9.5 28q2 4 2 6l5 15q-33 -22 -68 -22q-28 0 -50 12.5t-34 34t-20 42t-11 47t-3.5 38t-0.5 23.5v3l-19 335h95l21 -355q1 -14 1.5 -21.5t1.5 -19.5t2 -18t2.5 -15.5t3.5 -14.5t4.5 -11.5t5.5 -10t7 -6.5 t9 -4.5t11 -1.5q40 0 71 51l144 427h95l-174 -519q0 -2 -2 -6q-7 -23 -12 -36t-17.5 -36.5t-25 -38t-35 -33t-49.5 -29t-66 -18t-86 -7.5q-50 0 -86 10zM307 601l107 160h95l-145 -160h-57z" />
<glyph unicode="&#xfe;" horiz-adv-x="542" d="M37 -193l188 963h95l-61 -315q81 87 179 87q27 0 49 -7t42.5 -23t32 -47.5t11.5 -75.5q0 -39 -9 -86q-6 -29 -14 -55.5t-20 -55t-27.5 -53.5t-35.5 -48t-45 -41.5t-54.5 -32.5t-66 -21.5t-76.5 -7.5q-30 0 -57 3l-36 -184h-95zM183 66q30 -7 59 -7q169 0 214 231 q10 47 10 82q0 99 -75 99q-43 0 -83 -27.5t-65 -70.5z" />
<glyph unicode="&#xff;" horiz-adv-x="495" d="M34 -183l15 75q50 -14 91 -14q38 0 68 9t47 20.5t30 30.5t17.5 30t9.5 28q2 4 2 6l5 15q-33 -22 -68 -22q-28 0 -50 12.5t-34 34t-20 42t-11 47t-3.5 38t-0.5 23.5v3l-19 335h95l21 -355l1.5 -27t2 -23t3 -21.5t4 -17.5t6 -15t8 -10t10.5 -7t13 -2q40 0 71 51l144 427h95 l-174 -519q0 -2 -2 -6q-7 -23 -12 -36t-17.5 -36.5t-25 -38t-35 -33t-49.5 -29t-66 -18t-86 -7.5q-50 0 -86 10zM227 630l19 95h95l-19 -95h-95zM416 630l19 95h95l-19 -95h-95z" />
<glyph unicode="&#x178;" horiz-adv-x="638" d="M151 725h100l150 -365l285 365h83l-340 -435l-56 -290h-100l56 290zM337 825l19 95h95l-19 -95h-95zM526 825l19 95h95l-19 -95h-95z" />
<glyph unicode="&#x2c6;" horiz-adv-x="710" d="M315 601l137 142h94l83 -142h-76l-64 90l-98 -90h-76z" />
<glyph unicode="&#x2000;" horiz-adv-x="499" />
<glyph unicode="&#x2001;" horiz-adv-x="998" />
<glyph unicode="&#x2002;" horiz-adv-x="499" />
<glyph unicode="&#x2003;" horiz-adv-x="998" />
<glyph unicode="&#x2004;" horiz-adv-x="332" />
<glyph unicode="&#x2005;" horiz-adv-x="249" />
<glyph unicode="&#x2006;" horiz-adv-x="166" />
<glyph unicode="&#x2007;" horiz-adv-x="166" />
<glyph unicode="&#x2008;" horiz-adv-x="124" />
<glyph unicode="&#x2009;" horiz-adv-x="199" />
<glyph unicode="&#x200a;" horiz-adv-x="55" />
<glyph unicode="&#x2010;" horiz-adv-x="300" d="M90 259l14 72h220l-14 -72h-220z" />
<glyph unicode="&#x2011;" horiz-adv-x="300" d="M90 259l14 72h220l-14 -72h-220z" />
<glyph unicode="&#x2012;" horiz-adv-x="300" d="M90 259l14 72h220l-14 -72h-220z" />
<glyph unicode="&#x2013;" horiz-adv-x="566" d="M90 259l30 72h470l-30 -72h-470z" />
<glyph unicode="&#x2014;" horiz-adv-x="1066" d="M90 259l60 72h940l-60 -72h-940z" />
<glyph unicode="&#x2018;" horiz-adv-x="215" d="M124 533l12 63l105 174h59l-70 -174l-12 -63h-94z" />
<glyph unicode="&#x2019;" horiz-adv-x="215" d="M168 533l69 174l13 63h94l-13 -63l-104 -174h-59z" />
<glyph unicode="&#x201c;" horiz-adv-x="390" d="M144 533l12 63l105 174h60l-70 -174l-12 -63h-95zM319 533l12 63l105 174h60l-70 -174l-12 -63h-95z" />
<glyph unicode="&#x201d;" horiz-adv-x="390" d="M148 533l69 174l13 63h95l-13 -63l-104 -174h-60zM323 533l69 174l13 63h95l-13 -63l-104 -174h-60z" />
<glyph unicode="&#x202f;" horiz-adv-x="199" />
<glyph unicode="&#x205f;" horiz-adv-x="249" />
<glyph unicode="&#xe000;" horiz-adv-x="530" d="M0 0v530h530v-530h-530z" />
</font>
</defs>
</svg>
