<?xml version="1.0" standalone="no"?>
<!DOCTYPE svg PUBLIC "-//W3C//DTD SVG 1.1//EN" "http://www.w3.org/Graphics/SVG/1.1/DTD/svg11.dtd" >
<svg xmlns="http://www.w3.org/2000/svg">
<metadata></metadata>
<defs>
<font id="kelly_slabregular" horiz-adv-x="542" >
<font-face units-per-em="1000" ascent="800" descent="-200" />
<missing-glyph horiz-adv-x="350" />
<glyph horiz-adv-x="0" />
<glyph horiz-adv-x="333" />
<glyph horiz-adv-x="0" />
<glyph horiz-adv-x="0" />
<glyph unicode="&#xd;" horiz-adv-x="500" />
<glyph unicode=" "  horiz-adv-x="350" />
<glyph unicode="&#x09;" horiz-adv-x="350" />
<glyph unicode="&#xa0;" horiz-adv-x="350" />
<glyph unicode="!" horiz-adv-x="301" d="M100 47q0 20 15.5 36t35.5 16q21 0 35.5 -15.5t14.5 -36.5q0 -22 -14.5 -36.5t-36.5 -14.5q-20 0 -35 15t-15 36zM109 193v534h82v-534h-82z" />
<glyph unicode="&#x22;" horiz-adv-x="326" d="M40 510v240h82v-240h-82zM204 510v240h82v-240h-82z" />
<glyph unicode="#" horiz-adv-x="767" d="M20 248l20 73h169l26 102h-168l20 77h168l64 250h78l-64 -250h131l64 250h80l-63 -250h202l-20 -77h-202l-27 -102h201l-18 -73h-203l-63 -248h-81l64 248h-130l-65 -248h-79l67 248h-171zM286 321h131l27 102h-129z" />
<glyph unicode="$" horiz-adv-x="582" d="M80 0v185h72v-117h104v297l-96 59q-40 22 -60 44t-20 56v126q0 59 26 79.5t85 20.5h65v150h70v-150h167v-185h-72v117h-95v-264l82 -51q10 -7 29.5 -19.5t27.5 -19t18.5 -17t14.5 -22.5t4 -28v-170q0 -45 -30 -68t-73 -23h-73v-150h-70v150h-176zM160 522l96 -60v220h-96 v-160zM326 68h96v195l-96 59v-254z" />
<glyph unicode="%" horiz-adv-x="825" d="M60 427v215q0 69 24 92.5t90 23.5h36q78 0 100 -25t22 -103v-191q0 -77 -19.5 -101.5t-92.5 -24.5h-40q-72 0 -96 21.5t-24 92.5zM132 377h130v315h-130v-315zM198 -151l333 1021h77l-332 -1021h-78zM491 115v216q0 65 25 88.5t90 23.5h34q79 0 102 -25t23 -103v-192 q0 -75 -20 -99t-95 -24h-38q-72 0 -96.5 22t-24.5 93zM564 66h130v315h-130v-315z" />
<glyph unicode="&#x26;" horiz-adv-x="726" d="M60 140v134l194 166l-92 110v81q0 72 19 98.5t90 26.5h65q85 0 106 -26.5t21 -114.5v-92l-108 -87l85 -102l119 98l48 -54l-120 -99l199 -239l-55 -46l-144 167v-37q0 -70 -22 -97.5t-94 -27.5h-191q-36 0 -58 5t-35 12t-18.5 27.5t-7 38.5t-1.5 58zM127 138 q0 -46 10.5 -58.5t53.5 -12.5h169q41 0 49.5 10.5t8.5 51.5v114l-120 147l-171 -152v-100zM231 571l80 -81l85 69v58q0 47 -9 59t-51 12h-43q-42 0 -52 -11t-10 -51v-55z" />
<glyph unicode="'" horiz-adv-x="202" d="M60 511v239h82v-239h-82z" />
<glyph unicode="(" horiz-adv-x="273" d="M80 122v508q0 240 183 240v-51q-56 0 -84.5 -50.5t-28.5 -140.5v-501q0 -102 28 -166t85 -64v-48q-183 0 -183 273z" />
<glyph unicode=")" horiz-adv-x="273" d="M10 -100q56 0 84.5 50.5t28.5 140.5v501q0 102 -28 166t-85 64v48q183 0 183 -273v-508q0 -240 -183 -240v51z" />
<glyph unicode="*" horiz-adv-x="407" d="M40 538l101 54l-99 60l27 51l105 -60v118h58v-118l106 58l29 -50l-105 -59l103 -59l-29 -50l-104 55v-119h-58v120l-105 -57z" />
<glyph unicode="+" horiz-adv-x="604" d="M80 354v66h187v189h70v-189h187v-66h-187v-187h-70v187h-187z" />
<glyph unicode="," horiz-adv-x="231" d="M20 -150l77 248h74l-78 -248h-73z" />
<glyph unicode="-" horiz-adv-x="451" d="M80 354v66h291v-66h-291z" />
<glyph unicode="." horiz-adv-x="221" d="M60 47q0 20 15.5 36t35.5 16q21 0 35.5 -15.5t14.5 -36.5q0 -22 -14.5 -36.5t-36.5 -14.5q-20 0 -35 15t-15 36z" />
<glyph unicode="/" horiz-adv-x="419" d="M5 -150l332 1020h77l-331 -1020h-78z" />
<glyph unicode="0" horiz-adv-x="522" d="M60 121v496q0 68 23.5 100.5t87.5 32.5h175q116 0 116 -133v-481q0 -73 -24.5 -104.5t-86.5 -31.5h-172q-65 0 -92 31t-27 90zM140 68h242v614h-242v-614z" />
<glyph unicode="1" horiz-adv-x="350" d="M30 681v69h86q49 0 70.5 -21.5t21.5 -64.5v-596h62v-68h-212v68h68v613h-96z" />
<glyph unicode="2" horiz-adv-x="525" d="M50 0v181q0 83 54 116l288 179v206h-263v-122h-78v190h291q74 0 103 -25t29 -91v-117q0 -69 -49 -99l-297 -188v-162h263v92h84v-160h-425z" />
<glyph unicode="3" horiz-adv-x="514" d="M50 137v53h73v-128h259v311h-259v65l248 244h-248v-70h-73v138h414v-68l-245 -244h129q66 0 90.5 -26t24.5 -91v-187q0 -74 -25.5 -104t-112.5 -30h-152q-41 0 -67 10t-37.5 31.5t-15 42t-3.5 53.5z" />
<glyph unicode="4" horiz-adv-x="519" d="M10 193l316 557h81v-489h72v-68h-72v-125h72v-68h-262v68h110v125h-317zM133 261h194v340z" />
<glyph unicode="5" horiz-adv-x="518" d="M50 120v70h78v-122h259v321h-326v361h377v-68h-299v-225h235q57 0 75.5 -23t18.5 -74v-239q0 -57 -24 -89t-95 -32h-186q-67 0 -90 30.5t-23 89.5z" />
<glyph unicode="6" horiz-adv-x="525" d="M50 124v507q0 53 29.5 86t90.5 33h184q101 0 101 -117v-22h-68v76h-255v-244h218q69 0 97 -29t28 -84v-203q0 -66 -33.5 -96.5t-107.5 -30.5h-147q-76 0 -106.5 29t-30.5 95zM132 68h261v306h-261v-306z" />
<glyph unicode="7" horiz-adv-x="455" d="M30 0l342 682h-270v-149h-72v217h415v-102l-324 -648h-91z" />
<glyph unicode="8" horiz-adv-x="525" d="M50 134v167q0 48 27.5 77t54.5 31q-23 2 -42.5 29.5t-19.5 63.5v129q0 119 115 119h157q58 0 85.5 -33t27.5 -86v-129q0 -38 -18 -64.5t-42 -28.5q28 -2 54 -30.5t26 -74.5v-170q0 -134 -141 -134h-147q-75 0 -106 33t-31 101zM132 68h261v300h-261v-300zM147 443h231 v244h-231v-244z" />
<glyph unicode="9" horiz-adv-x="525" d="M50 117v22h82v-74h261v275h-218q-69 0 -97 29t-28 84v170q0 66 33.5 96.5t107.5 30.5h147q76 0 106.5 -29t30.5 -95v-507q0 -53 -29.5 -86t-90.5 -33h-190q-58 0 -86.5 32.5t-28.5 84.5zM132 409h261v273h-261v-273z" />
<glyph unicode=":" horiz-adv-x="221" d="M60 47q0 20 15.5 36t35.5 16q21 0 35.5 -15.5t14.5 -36.5q0 -22 -14.5 -36.5t-36.5 -14.5q-20 0 -35 15t-15 36zM60 406q0 21 15.5 36.5t35.5 15.5q21 0 35.5 -15.5t14.5 -36.5q0 -22 -14.5 -37t-36.5 -15q-20 0 -35 15t-15 37z" />
<glyph unicode=";" horiz-adv-x="242" d="M20 -150l77 248h74l-78 -248h-73zM79 406q0 21 15.5 36.5t35.5 15.5q21 0 36.5 -15.5t15.5 -36.5q0 -22 -15.5 -37t-37.5 -15q-20 0 -35 15t-15 37z" />
<glyph unicode="&#x3c;" horiz-adv-x="541" d="M60 341v76l451 217v-69l-378 -186l378 -187v-69z" />
<glyph unicode="=" horiz-adv-x="564" d="M80 274v64h404v-64h-404zM80 427v65h404v-65h-404z" />
<glyph unicode="&#x3e;" horiz-adv-x="541" d="M30 123v69l378 187q-53 26 -181.5 89.5t-196.5 96.5v69q89 -42 252.5 -121t198.5 -96v-76z" />
<glyph unicode="?" horiz-adv-x="481" d="M20 568v182h269q58 0 85 -23.5t27 -83.5v-193q0 -102 -94 -102h-129v-154h-80v135q0 46 23 67t72 21h122v265h-222v-114h-73zM87 47q0 21 15 36.5t36 15.5t36 -15.5t15 -36.5q0 -22 -15 -36.5t-37 -14.5q-21 0 -35.5 15t-14.5 36z" />
<glyph unicode="A" horiz-adv-x="641" d="M25 0v68h63l174 682h118l171 -682h65v-68h-195v68h54l-50 199h-210l-50 -199h55v-68h-195zM231 330h178l-89 352z" />
<glyph unicode="B" horiz-adv-x="557" d="M60 0v68h63v615h-62v67h209q102 0 102 -89v-185q21 16 53 16q30 0 51 -22.5t21 -63.5v-318q0 -41 -19 -64.5t-70 -23.5h-348zM205 69h212v355l-212 -133v-222zM205 371l86 54v258h-86v-312z" />
<glyph unicode="C" horiz-adv-x="525" d="M60 107v535q0 45 23 76.5t75 31.5h317v-185h-68v117h-265v-614h265v117h68v-185h-307q-108 0 -108 107z" />
<glyph unicode="D" horiz-adv-x="604" d="M60 0v68h63v614h-63v68h353q72 0 101.5 -31.5t29.5 -99.5v-488q0 -68 -32 -99.5t-99 -31.5h-353zM205 68h257v614h-257v-614z" />
<glyph unicode="E" horiz-adv-x="584" d="M65 0v68h63v614h-63v68h469v-185h-68v117h-256v-260h141v71h68v-210h-68v71h-141v-286h256v117h68v-185h-469z" />
<glyph unicode="F" horiz-adv-x="584" d="M65 0v68h63v614h-63v68h469v-185h-68v117h-256v-260h141v71h68v-210h-68v71h-141v-286h65v-68h-210z" />
<glyph unicode="G" d="M60 124v511q0 115 107 115h315v-185h-80v117h-260v-614h260v234l-139 -87v73l219 137v-425h-297q-71 0 -98 26.5t-27 97.5z" />
<glyph unicode="H" horiz-adv-x="698" d="M65 0v68h63v614h-63v68h206v-68h-61v-261h278v261h-61v68h206v-68h-63v-614h63v-68h-206v68h61v286h-278v-286h61v-68h-206z" />
<glyph unicode="I" horiz-adv-x="370" d="M80 0v68h63v614h-63v68h210v-68h-65v-614h65v-68h-210z" />
<glyph unicode="J" horiz-adv-x="406" d="M20 0v68h174v614h-64v68h211v-68h-65v-565q0 -48 -25 -82.5t-82 -34.5h-149z" />
<glyph unicode="K" horiz-adv-x="605" d="M65 0v68h63v614h-63v68h210v-68h-69v-279l255 347h108v-68h-67l-208 -292l217 -322h64v-68h-114l-251 373v-305h65v-68h-210z" />
<glyph unicode="L" horiz-adv-x="528" d="M65 0v68h63v614h-63v68h210v-68h-65v-614h210v117h68v-185h-423z" />
<glyph unicode="M" horiz-adv-x="860" d="M65 0v68h63v614h-63v68h154l212 -437l210 437h154v-68h-63v-614h63v-68h-210v68h65v515l-189 -389h-63l-188 392v-518h65v-68h-210z" />
<glyph unicode="N" horiz-adv-x="719" d="M65 0v68h63v614h-63v68h154l290 -596v528h-65v68h210v-68h-63v-682h-98l-283 584v-516h65v-68h-210z" />
<glyph unicode="O" d="M60 121v496q0 68 23.5 100.5t87.5 32.5h195q116 0 116 -133v-481q0 -73 -24.5 -104.5t-86.5 -31.5h-192q-65 0 -92 31t-27 90zM140 68h262v614h-262v-614z" />
<glyph unicode="P" horiz-adv-x="594" d="M65 0v68h63v613h-63v69h357q66 0 89 -25t23 -99v-73q0 -16 -2 -28.5t-3.5 -21.5t-8.5 -18t-9.5 -14t-15 -14t-16.5 -11.5t-22.5 -14t-25.5 -15.5l-221 -138v-210h65v-68h-210zM210 358l251 155v168h-251v-323z" />
<glyph unicode="Q" d="M60 121v496q0 68 23.5 100.5t87.5 32.5h195q116 0 116 -133v-481q0 -73 -24.5 -104.5t-86.5 -31.5h-60v-60h-80v60h-52q-65 0 -92 31t-27 90zM140 68h91v50h80v-50h91v614h-262v-614z" />
<glyph unicode="R" horiz-adv-x="646" d="M65 0v68h63v614h-63v68h357q66 0 89 -25.5t23 -99.5v-62q0 -19 -2 -33.5t-4.5 -26t-11 -22.5t-14 -17.5t-22 -17.5t-26 -17t-35 -21.5t-41.5 -25.5l197 -314h56v-68h-198v68h54l-171 275l-106 -65v-210h65v-68h-210zM210 358l251 155v169h-251v-324z" />
<glyph unicode="S" d="M60 0v185h72v-117h270v195l-262 161q-40 22 -60 44t-20 56v126q0 59 26 79.5t85 20.5h302v-185h-72v117h-261v-160l248 -155q10 -7 29.5 -19.5t27.5 -19t18.5 -17t14.5 -22.5t4 -28v-170q0 -45 -30 -68t-73 -23h-319z" />
<glyph unicode="T" horiz-adv-x="529" d="M25 564v186h479v-186h-73v118h-126v-614h65v-68h-210v68h63v614h-126v-118h-72z" />
<glyph unicode="U" horiz-adv-x="682" d="M60 682v68h210v-68h-65v-614h272v614h-65v68h210v-68h-63v-578q0 -104 -90 -104h-257q-89 0 -89 99v583h-63z" />
<glyph unicode="V" horiz-adv-x="640" d="M25 682v68h183v-68h-52l165 -614l164 614h-63v68h193v-68h-54l-183 -682h-115l-182 682h-56z" />
<glyph unicode="W" horiz-adv-x="836" d="M25 682v68h165v-68h-40l95 -614l105 682h136l105 -682l95 614h-40v68h165v-68h-48l-107 -682h-130l-108 681l-108 -681h-130l-107 682h-48z" />
<glyph unicode="X" horiz-adv-x="590" d="M25 0v68h57l171 326l-151 288h-60v68h110l143 -276l145 276h108v-68h-59l-152 -288l173 -326h55v-68h-104l-165 312l-165 -312h-106z" />
<glyph unicode="Y" horiz-adv-x="556" d="M25 682v68h162v-68h-36l127 -244l130 244h-36v68h159v-68h-38l-175 -313v-301h65v-68h-210v68h63v301l-166 313h-45z" />
<glyph unicode="Z" horiz-adv-x="521" d="M30 0v72l377 610h-279v-112h-71v180h434v-72l-375 -610h295v114h70v-182h-451z" />
<glyph unicode="[" horiz-adv-x="259" d="M80 -84v888q0 35 17.5 50.5t54.5 15.5h102v-49h-104v-920h104v-50h-102q-37 0 -54.5 15t-17.5 50z" />
<glyph unicode="\" horiz-adv-x="419" d="M5 870h78l331 -1020h-77z" />
<glyph unicode="]" horiz-adv-x="259" d="M5 -100h104v920h-104v50h102q37 0 54.5 -15t17.5 -50v-888q0 -35 -17.5 -50.5t-54.5 -15.5h-102v49z" />
<glyph unicode="^" horiz-adv-x="596" d="M80 375l192 375h62l182 -375h-69l-146 304l-151 -304h-70z" />
<glyph unicode="_" d="M5 -72h532v-40h-532v40z" />
<glyph unicode="`" horiz-adv-x="182" d="M1 682h71l107 -123h-73z" />
<glyph unicode="a" horiz-adv-x="493" d="M20 88v37q0 36 11.5 52t56.5 44l220 137v74h-196v-58h-64v126h250q49 0 70.5 -21.5t21.5 -64.5v-346h63v-68h-348q-51 0 -68 19t-17 69zM100 68h208v210l-208 -130v-80z" />
<glyph unicode="b" horiz-adv-x="527" d="M40 0v68h63v614h-63v68h145v-361l170 107q22 14 50 14q32 0 52 -23t20 -63v-336q0 -88 -86 -88h-351zM185 68h212v374l-212 -133v-241z" />
<glyph unicode="c" horiz-adv-x="426" d="M50 88v324q0 89 95 89h241v-127h-68v58h-188v-364h188v58h68v-126h-249q-87 0 -87 88z" />
<glyph unicode="d" horiz-adv-x="527" d="M50 56v350q0 46 19 70t71 24h202v182h-66v68h148v-681h63v-69h-145v115l-173 -109q-31 -16 -55 -16q-30 0 -47 19t-17 47zM130 63l212 132v237h-212v-369z" />
<glyph unicode="e" horiz-adv-x="465" d="M50 73v329q0 99 103 99h169q50 0 71.5 -20t21.5 -69v-93l-285 -180v-71h206v58h79v-53q0 -32 -20 -52.5t-60 -20.5h-205q-40 0 -60 20.5t-20 52.5zM130 220l205 129v83h-205v-212z" />
<glyph unicode="f" horiz-adv-x="332" d="M40 0v68h80v360h-80v72h80v146q0 55 21.5 79.5t67.5 24.5h83v-68h-94v-182h81v-72h-81v-360h81v-68h-239z" />
<glyph unicode="g" horiz-adv-x="523" d="M50 61v351q0 49 17.5 68.5t67.5 19.5h348v-68h-63v-565q0 -43 -21.5 -64.5t-70.5 -21.5h-242v136h68v-67h184v261l-171 -108q-22 -13 -45 -13q-30 0 -51 20.5t-21 50.5zM128 60l210 132v240h-210v-372z" />
<glyph unicode="h" horiz-adv-x="568" d="M40 0v68h63v614h-63v68h144v-356l166 104q19 12 42 12q30 0 51 -21t21 -58v-363h64v-68h-193v68h48v370l-199 -125v-245h49v-68h-193z" />
<glyph unicode="i" horiz-adv-x="300" d="M50 0v68h63v364h-63v68h145v-432h65v-68h-210zM103 633q0 20 15 35.5t35 15.5q21 0 36 -15t15 -36q0 -23 -15 -37.5t-37 -14.5q-20 0 -34.5 15t-14.5 37z" />
<glyph unicode="j" horiz-adv-x="264" d="M-10 -131h132v563h-63v68h145v-614q0 -43 -21.5 -64.5t-70.5 -21.5h-122v69zM103 633q0 20 15 35.5t35 15.5q21 0 36 -15t15 -36q0 -23 -15 -37.5t-37 -14.5q-20 0 -34.5 15t-14.5 37z" />
<glyph unicode="k" horiz-adv-x="507" d="M40 0v68h64v614h-64v68h140v-474l228 224h78v-68h-55l-163 -167l167 -197h52v-68h-86l-217 252v-184h60v-68h-204z" />
<glyph unicode="l" horiz-adv-x="310" d="M50 0v68h63v614h-63v68h145v-682h65v-68h-210z" />
<glyph unicode="m" horiz-adv-x="817" d="M40 0v68h63v365h-63v67h144v-95l151 95q16 10 36 10q78 0 78 -77v-27l150 94q16 10 36 10q78 0 78 -77v-365h64v-68h-193v68h48v372l-183 -114v-258h49v-68h-179v68h48l1 4v369l-184 -115v-258h49v-68h-193z" />
<glyph unicode="n" horiz-adv-x="568" d="M40 0v68h63v365h-63v67h144v-104l166 104q16 10 36 10q78 0 78 -77v-365h64v-68h-193v68h48v372l-199 -125v-247h49v-68h-193z" />
<glyph unicode="o" horiz-adv-x="451" d="M40 89v322q0 44 20 66.5t73 22.5h185q52 0 72.5 -23t20.5 -66v-322q0 -89 -93 -89h-185q-93 0 -93 89zM121 68h209v364h-209v-364z" />
<glyph unicode="p" horiz-adv-x="527" d="M40 431v69h145v-114l173 109q24 15 50 15q29 0 49 -17.5t20 -47.5v-351q0 -46 -19 -70t-71 -24h-202v-182h66v-68h-210v68h62v613h-63zM185 68h212v371l-212 -133v-238z" />
<glyph unicode="q" horiz-adv-x="537" d="M50 76v336q0 88 86 88h351v-68h-63v-614h63v-68h-208v68h63v293l-170 -107q-22 -14 -50 -14q-32 0 -52 23t-20 63zM130 58l212 134v240h-212v-374z" />
<glyph unicode="r" horiz-adv-x="461" d="M40 0v68h63v365h-63v68h144v-88l123 77q16 10 36 10q78 0 78 -77v-89h-81v97l-156 -99v-264h49v-68h-193z" />
<glyph unicode="s" horiz-adv-x="439" d="M50 354v57q0 42 20.5 65.5t73.5 23.5h233v-150h-68v82h-180v-84l170 -106q7 -5 21.5 -13.5t20.5 -12t16 -10.5t14 -12t9.5 -12t7 -15t1.5 -17v-62q0 -88 -86 -88h-242v151h68v-83h180v83l-164 103q-13 8 -35 21t-28.5 18t-16.5 15t-12.5 20t-2.5 26z" />
<glyph unicode="t" horiz-adv-x="317" d="M40 428v72h74v182h78v-182h81v-72h-81v-360h95v-68h-84q-46 0 -67.5 24.5t-21.5 79.5v324h-74z" />
<glyph unicode="u" horiz-adv-x="568" d="M40 433v68h145v-433l199 125v240h-49v68h130v-433h63v-68h-144v112l-166 -104q-16 -10 -36 -10q-78 0 -78 77v358h-64z" />
<glyph unicode="v" horiz-adv-x="513" d="M20 432v68h184v-68h-49l100 -364l102 364h-49v68h185v-68h-60l-121 -432h-111l-122 432h-59z" />
<glyph unicode="w" horiz-adv-x="732" d="M20 432v68h159v-68h-44l81 -363l93 431h110l96 -433l82 365h-45v68h160v-68h-48l-95 -432h-107l-95 433l-97 -433h-112q0 2 -47 217.5t-48 214.5h-43z" />
<glyph unicode="x" horiz-adv-x="508" d="M30 0v68h56l126 191l-115 173h-59v68h96l122 -180l114 180h98v-68h-56l-115 -173l125 -191h56v-68h-94l-128 199l-127 -199h-99z" />
<glyph unicode="y" horiz-adv-x="515" d="M40 432v68h145v-431l199 125v238h-49v68h130v-633q0 -43 -21.5 -64.5t-70.5 -21.5h-231v136h68v-67h173v263l-176 -109q-23 -14 -46 -14q-25 0 -41 16.5t-16 48.5v377h-64z" />
<glyph unicode="z" horiz-adv-x="452" d="M40 0v69l277 363h-203v-71h-69v139h359v-71l-275 -361h213v69h70v-137h-372z" />
<glyph unicode="{" horiz-adv-x="329" d="M50 341v40q93 39 93 142v143q0 45 2.5 73t12.5 56.5t29 43.5t51.5 24.5t80.5 9.5v-41q-30 0 -50.5 -10t-31.5 -25t-17 -42t-7.5 -50t-1.5 -61v-121q0 -120 -103 -162q103 -42 103 -162v-121q0 -38 1.5 -61t7.5 -50t17 -42t31.5 -25t50.5 -10v-41q-48 0 -80.5 9.5 t-51.5 24.5t-29 43.5t-12.5 56.5t-2.5 73v143q0 103 -93 142z" />
<glyph unicode="|" horiz-adv-x="270" d="M100 -151v1022h70v-1022h-70z" />
<glyph unicode="}" horiz-adv-x="329" d="M10 -110q30 0 50.5 10t31.5 25t17 42t7.5 50t1.5 61v121q0 120 103 162q-103 42 -103 162v121q0 38 -1.5 61t-7.5 50t-17 42t-31.5 25t-50.5 10v41q48 0 80.5 -9.5t51.5 -24.5t29 -43.5t12.5 -56.5t2.5 -73v-143q0 -103 93 -142v-40q-93 -39 -93 -142v-143 q0 -45 -2.5 -73t-12.5 -56.5t-29 -43.5t-51.5 -24.5t-80.5 -9.5v41z" />
<glyph unicode="~" horiz-adv-x="595" d="M40 287q71 98 142 98q47 0 128.5 -39.5t100.5 -39.5q51 0 105 65l39 -36q-76 -92 -143 -92q-30 0 -115 38.5t-113 38.5q-30 0 -49 -14t-50 -53z" />
<glyph unicode="&#xa1;" horiz-adv-x="301" d="M100 676q0 21 15 36t35 15q22 0 36.5 -14.5t14.5 -36.5q0 -21 -14.5 -36.5t-35.5 -15.5q-20 0 -35.5 16t-15.5 36zM109 -4v534h82v-534h-82z" />
<glyph unicode="&#xa2;" horiz-adv-x="452" d="M50 88v324q0 89 95 89h65v85h59v-85h134v-127h-68v58h-66v-364h66v58h68v-126h-134v-117h-59v117h-73q-87 0 -87 88zM130 68h80v364h-80v-364z" />
<glyph unicode="&#xa3;" horiz-adv-x="531" d="M33 0v68h87v360h-87v72h87v146q0 55 21.5 79.5t67.5 24.5h122v-68h-133v-182h120v-72h-120v-360h213v117h68v-185h-446z" />
<glyph unicode="&#xa4;" horiz-adv-x="484" d="M27 125l49 49q-48 55 -46 131q0 82 46 132l-14.5 14.5l-19 19l-15.5 15.5l37 37l48 -49q60 47 133 47q72 0 134 -47l48 49l37 -36l-50 -50q46 -50 46 -132q0 -79 -46 -131l50 -50l-37 -36l-48 50q-54 -48 -135 -48q-79 0 -132 47l-48 -49zM98 305q0 -63 43 -108t104 -45 q63 0 105.5 45t42.5 108q0 62 -43 107t-105 45q-61 0 -104 -44.5t-43 -107.5z" />
<glyph unicode="&#xa5;" horiz-adv-x="556" d="M25 682v68h162v-68h-36l127 -244l130 244h-36v68h159v-68h-38l-138 -247h125v-66h-162v-88h162v-64h-162v-149h65v-68h-210v68h63v149h-160v64h161v89h-161v65h125l-131 247h-45z" />
<glyph unicode="&#xa6;" horiz-adv-x="259" d="M100 -150v362h69v-362h-69zM100 389v361h69v-361h-69z" />
<glyph unicode="&#xa7;" horiz-adv-x="562" d="M60 302v120q0 31 1.5 48t8 35t21 26t38.5 9q-35 1 -45.5 20t-10.5 55v89q0 43 7 67t28 34.5t40 12.5t64 2h139q47 0 73.5 -4.5t40.5 -19t17.5 -33.5t3.5 -56v-66h-73v109h-261v-176h216q85 0 109.5 -21.5t24.5 -102.5v-117q0 -31 -2 -48.5t-8 -35t-20.5 -25.5t-38.5 -9 q26 -1 39 -19t15 -36t2 -52v-62q0 -43 -7 -67t-28 -34.5t-40 -12.5t-64 -2h-139q-47 0 -73.5 4.5t-40.5 19t-17.5 33.5t-3.5 56v66h73v-109h261v178h-216q-85 0 -109.5 21.5t-24.5 102.5zM141 252h282v248h-282v-248z" />
<glyph unicode="&#xa8;" horiz-adv-x="235" d="M1 602q0 17 13 30.5t30 13.5q18 0 30.5 -13t12.5 -31q0 -19 -12.5 -31.5t-31.5 -12.5q-17 0 -29.5 13t-12.5 31zM149 602q0 17 13 30.5t30 13.5q18 0 30.5 -13t12.5 -31q0 -19 -12.5 -31.5t-31.5 -12.5q-17 0 -29.5 13t-12.5 31z" />
<glyph unicode="&#xa9;" horiz-adv-x="886" d="M55 373q0 159 113.5 272.5t273.5 113.5q158 0 271 -113.5t113 -272.5q0 -160 -113 -272t-272 -112q-160 0 -273 112t-113 272zM121 373q0 -131 93.5 -224.5t226.5 -93.5q131 0 224 93t93 224t-93 225t-224 94q-133 0 -226.5 -93.5t-93.5 -224.5zM264 217v306q0 84 90 84 h228v-120h-65v55h-177v-344h177v55h65v-119h-236q-82 0 -82 83z" />
<glyph unicode="&#xaa;" horiz-adv-x="338" d="M22 483v23q0 23 10 36.5t37 30.5l139 86v35h-119v-47h-53v103h172q65 0 65 -61v-213h55v-56h-245q-36 0 -48.5 14t-12.5 49zM86 476h122v118l-122 -75v-43z" />
<glyph unicode="&#xab;" horiz-adv-x="443" d="M30 270l154 212l57 -40l-127 -172l127 -156l-55 -41zM222 270l154 212l57 -40l-127 -172l127 -156l-55 -41z" />
<glyph unicode="&#xac;" horiz-adv-x="649" d="M43 354v67h523v-338h-73v271h-450z" />
<glyph unicode="&#xad;" horiz-adv-x="376" d="M52 238v63h273v-63h-273z" />
<glyph unicode="&#xae;" horiz-adv-x="899" d="M55 373q0 159 113.5 272.5t273.5 113.5q158 0 271 -113.5t113 -272.5q0 -160 -113 -272t-272 -112q-160 0 -273 112t-113 272zM121 373q0 -131 93.5 -224.5t226.5 -93.5q131 0 224 93t93 224t-93 225t-224 94q-133 0 -226.5 -93.5t-93.5 -224.5zM258 149v60h56v326h-56 v64h278q37 0 61 -17.5t24 -52.5v-53q0 -24 -10 -42t-20.5 -26.5t-30.5 -20.5l-43 -27l40 -151h70v-60h-50q-38 0 -59 19t-33 61l-25 93l-75 -46v-67h50v-60h-177zM385 342l169 108v85h-169v-193z" />
<glyph unicode="&#xaf;" horiz-adv-x="255" d="M0 575v63h255v-63h-255z" />
<glyph unicode="&#xb0;" horiz-adv-x="376" d="M37 648q0 64 45 108.5t110 44.5q62 0 107 -45t45 -109t-45 -108.5t-108 -44.5q-64 0 -109 45.5t-45 108.5zM90 649q0 -41 29.5 -71t71.5 -30q41 0 70.5 29.5t29.5 70.5q0 42 -29.5 71.5t-69.5 29.5q-43 0 -72.5 -29.5t-29.5 -70.5z" />
<glyph unicode="&#xb1;" horiz-adv-x="604" d="M80 121v66h444v-66h-444zM80 420v66h187v170h70v-170h187v-66h-187v-167h-70v167h-187z" />
<glyph unicode="&#xb2;" horiz-adv-x="291" d="M44 420v80q0 38 28 56l133 73v78h-110v-52h-50v95h144q39 0 54 -12t15 -44v-51q0 -32 -27 -47q-9 -5 -59 -34.5t-78 -44.5v-55h111v39h53v-81h-214z" />
<glyph unicode="&#xb3;" horiz-adv-x="296" d="M44 485v30h49v-56h111v116h-125v38l109 94h-95v-30h-49v73h214v-39l-107 -94h44q35 0 48.5 -13t13.5 -44v-76q0 -35 -13.5 -49.5t-59.5 -14.5h-74q-29 0 -44.5 9.5t-18.5 21.5t-3 34z" />
<glyph unicode="&#xb4;" horiz-adv-x="182" d="M1 559l107 123h71l-105 -123h-73z" />
<glyph unicode="&#xb6;" d="M26 591q0 160 207 160h241v-852h-68v801h-116v-801h-69l1 535q-89 0 -142.5 43.5t-53.5 113.5z" />
<glyph unicode="&#xb7;" horiz-adv-x="221" d="M60 264q0 20 15.5 36t35.5 16q21 0 35.5 -15.5t14.5 -36.5q0 -22 -14.5 -36.5t-36.5 -14.5q-20 0 -35 15t-15 36z" />
<glyph unicode="&#xb8;" horiz-adv-x="170" d="M0 2h59v-44h37q74 0 74 -70v-37q0 -68 -68 -68h-102v53h108v67h-108v99z" />
<glyph unicode="&#xb9;" horiz-adv-x="170" d="M4 703v47h66q45 0 45 -41v-243h43v-46h-142v46h46v237h-58z" />
<glyph unicode="&#xba;" horiz-adv-x="308" d="M23 535v103q0 67 20.5 89.5t83.5 22.5h46q78 0 96.5 -23.5t18.5 -104.5v-79q0 -29 -0.5 -43t-4 -31t-9.5 -24t-18 -14t-29.5 -9t-43.5 -2h-50q-70 0 -90 21t-20 94zM73 465h165v240h-165v-240z" />
<glyph unicode="&#xbb;" horiz-adv-x="443" d="M10 113l127 172l-127 156l55 41l156 -197l-154 -212zM202 113l127 172l-127 156l55 41l156 -197l-154 -212z" />
<glyph unicode="&#xbf;" horiz-adv-x="481" d="M20 103v193q0 102 94 102h129v154h80v-135q0 -46 -23 -67t-72 -21h-122v-265h222v114h73v-182h-269q-58 0 -85 23.5t-27 83.5zM232 699q0 22 15 36.5t37 14.5q20 0 35 -15t15 -36t-15 -36.5t-36 -15.5t-36 15.5t-15 36.5z" />
<glyph unicode="&#xc0;" horiz-adv-x="641" d="M25 0v68h63l174 682h118l171 -682h65v-68h-195v68h54l-50 199h-210l-50 -199h55v-68h-195zM231 330h178l-89 352zM231 932h71l107 -123h-73z" />
<glyph unicode="&#xc1;" horiz-adv-x="641" d="M25 0v68h63l174 682h118l171 -682h65v-68h-195v68h54l-50 199h-210l-50 -199h55v-68h-195zM231 330h178l-89 352zM231 809l107 123h71l-105 -123h-73z" />
<glyph unicode="&#xc2;" horiz-adv-x="641" d="M25 0v68h63l174 682h118l171 -682h65v-68h-195v68h54l-50 199h-210l-50 -199h55v-68h-195zM177 809l112 123h67l107 -123h-73l-69 80l-70 -80h-74zM231 330h178l-89 352z" />
<glyph unicode="&#xc3;" horiz-adv-x="641" d="M25 0v68h63l174 682h118l171 -682h65v-68h-195v68h54l-50 199h-210l-50 -199h55v-68h-195zM155 846q9 23 36.5 49.5t56.5 26.5t78 -27.5t59 -27.5q18 0 35.5 14.5t26.5 34.5l38 -28q-9 -24 -38.5 -50.5t-61.5 -26.5q-25 0 -70 27t-66 27q-17 0 -28 -10.5t-25 -38.5z M231 330h178l-89 352z" />
<glyph unicode="&#xc4;" horiz-adv-x="641" d="M25 0v68h63l174 682h118l171 -682h65v-68h-195v68h54l-50 199h-210l-50 -199h55v-68h-195zM203 852q0 17 13 30.5t30 13.5q18 0 30.5 -13t12.5 -31q0 -19 -12.5 -31.5t-31.5 -12.5q-17 0 -29.5 13t-12.5 31zM231 330h178l-89 352zM351 852q0 17 13 30.5t30 13.5 q18 0 30.5 -13t12.5 -31q0 -19 -12.5 -31.5t-31.5 -12.5q-17 0 -29.5 13t-12.5 31z" />
<glyph unicode="&#xc5;" horiz-adv-x="641" d="M25 0v68h63l174 682h118l171 -682h65v-68h-195v68h54l-50 199h-210l-50 -199h55v-68h-195zM231 330h178l-89 352zM231 873q0 37 26.5 63t63.5 26q36 0 62 -26t26 -63t-26 -63t-63 -26t-63 26.5t-26 62.5zM280 874q0 -17 12 -29t28 -12q17 0 29 12t12 28q0 17 -12 29 t-28 12q-17 0 -29 -11.5t-12 -28.5z" />
<glyph unicode="&#xc6;" horiz-adv-x="856" d="M44 0v68h58l218 614h-79v68h538v-185h-68v117h-179v-262h168v-67h-168v-284l179 -1v117h68v-185h-392v70h63v283h-172l-100 -285h60v-68h-194zM302 420h148v262h-55z" />
<glyph unicode="&#xc7;" horiz-adv-x="525" d="M60 107v535q0 45 23 76.5t75 31.5h317v-185h-68v117h-265v-614h265v117h68v-185h-239v-42h37q74 0 74 -70v-37q0 -68 -68 -68h-102v53h108v67h-108v97h-9q-108 0 -108 107z" />
<glyph unicode="&#xc8;" horiz-adv-x="584" d="M65 0v68h63v614h-63v68h469v-185h-68v117h-256v-260h141v71h68v-210h-68v71h-141v-286h256v117h68v-185h-469zM203 932h71l107 -123h-73z" />
<glyph unicode="&#xc9;" horiz-adv-x="584" d="M65 0v68h63v614h-63v68h469v-185h-68v117h-256v-260h141v71h68v-210h-68v71h-141v-286h256v117h68v-185h-469zM203 809l107 123h71l-105 -123h-73z" />
<glyph unicode="&#xca;" horiz-adv-x="584" d="M65 0v68h63v614h-63v68h469v-185h-68v117h-256v-260h141v71h68v-210h-68v71h-141v-286h256v117h68v-185h-469zM149 809l112 123h67l107 -123h-73l-69 80l-70 -80h-74z" />
<glyph unicode="&#xcb;" horiz-adv-x="584" d="M65 0v68h63v614h-63v68h469v-185h-68v117h-256v-260h141v71h68v-210h-68v71h-141v-286h256v117h68v-185h-469zM175 852q0 17 13 30.5t30 13.5q18 0 30.5 -13t12.5 -31q0 -19 -12.5 -31.5t-31.5 -12.5q-17 0 -29.5 13t-12.5 31zM323 852q0 17 13 30.5t30 13.5 q18 0 30.5 -13t12.5 -31q0 -19 -12.5 -31.5t-31.5 -12.5q-17 0 -29.5 13t-12.5 31z" />
<glyph unicode="&#xcc;" horiz-adv-x="370" d="M80 0v68h63v614h-63v68h210v-68h-65v-614h65v-68h-210zM96 932h71l107 -123h-73z" />
<glyph unicode="&#xcd;" horiz-adv-x="370" d="M80 0v68h63v614h-63v68h210v-68h-65v-614h65v-68h-210zM96 809l107 123h71l-105 -123h-73z" />
<glyph unicode="&#xce;" horiz-adv-x="370" d="M42 809l112 123h67l107 -123h-73l-69 80l-70 -80h-74zM80 0v68h63v614h-63v68h210v-68h-65v-614h65v-68h-210z" />
<glyph unicode="&#xcf;" horiz-adv-x="370" d="M68 852q0 17 13 30.5t30 13.5q18 0 30.5 -13t12.5 -31q0 -19 -12.5 -31.5t-31.5 -12.5q-17 0 -29.5 13t-12.5 31zM80 0v68h63v614h-63v68h210v-68h-65v-614h65v-68h-210zM216 852q0 17 13 30.5t30 13.5q18 0 30.5 -13t12.5 -31q0 -19 -12.5 -31.5t-31.5 -12.5 q-17 0 -29.5 13t-12.5 31z" />
<glyph unicode="&#xd0;" horiz-adv-x="604" d="M56 355v66h67v261h-63v68h353q72 0 101.5 -31.5t29.5 -99.5v-488q0 -68 -32 -99.5t-99 -31.5h-353v68h63v287h-67zM205 68h257v614h-257v-261h142v-66h-142v-287z" />
<glyph unicode="&#xd1;" horiz-adv-x="719" d="M65 0v68h63v614h-63v68h154l290 -596v528h-65v68h210v-68h-63v-682h-98l-283 584v-516h65v-68h-210zM194 846q9 23 36.5 49.5t56.5 26.5t78 -27.5t59 -27.5q18 0 35.5 14.5t26.5 34.5l38 -28q-9 -24 -38.5 -50.5t-61.5 -26.5q-25 0 -70 27t-66 27q-17 0 -28 -10.5 t-25 -38.5z" />
<glyph unicode="&#xd2;" d="M60 121v496q0 68 23.5 100.5t87.5 32.5h195q116 0 116 -133v-481q0 -73 -24.5 -104.5t-86.5 -31.5h-192q-65 0 -92 31t-27 90zM140 68h262v614h-262v-614zM182 932h71l107 -123h-73z" />
<glyph unicode="&#xd3;" d="M60 121v496q0 68 23.5 100.5t87.5 32.5h195q116 0 116 -133v-481q0 -73 -24.5 -104.5t-86.5 -31.5h-192q-65 0 -92 31t-27 90zM140 68h262v614h-262v-614zM182 809l107 123h71l-105 -123h-73z" />
<glyph unicode="&#xd4;" d="M60 121v496q0 68 23.5 100.5t87.5 32.5h195q116 0 116 -133v-481q0 -73 -24.5 -104.5t-86.5 -31.5h-192q-65 0 -92 31t-27 90zM128 809l112 123h67l107 -123h-73l-69 80l-70 -80h-74zM140 68h262v614h-262v-614z" />
<glyph unicode="&#xd5;" d="M60 121v496q0 68 23.5 100.5t87.5 32.5h195q116 0 116 -133v-481q0 -73 -24.5 -104.5t-86.5 -31.5h-192q-65 0 -92 31t-27 90zM106 846q9 23 36.5 49.5t56.5 26.5t78 -27.5t59 -27.5q18 0 35.5 14.5t26.5 34.5l38 -28q-9 -24 -38.5 -50.5t-61.5 -26.5q-25 0 -70 27 t-66 27q-17 0 -28 -10.5t-25 -38.5zM140 68h262v614h-262v-614z" />
<glyph unicode="&#xd6;" d="M60 121v496q0 68 23.5 100.5t87.5 32.5h195q116 0 116 -133v-481q0 -73 -24.5 -104.5t-86.5 -31.5h-192q-65 0 -92 31t-27 90zM140 68h262v614h-262v-614zM154 852q0 17 13 30.5t30 13.5q18 0 30.5 -13t12.5 -31q0 -19 -12.5 -31.5t-31.5 -12.5q-17 0 -29.5 13t-12.5 31z M302 852q0 17 13 30.5t30 13.5q18 0 30.5 -13t12.5 -31q0 -19 -12.5 -31.5t-31.5 -12.5q-17 0 -29.5 13t-12.5 31z" />
<glyph unicode="&#xd7;" horiz-adv-x="373" d="M5 256l133 133l-132 132l46 47l133 -132l133 134l50 -50l-134 -134l132 -132l-46 -46l-133 132l-133 -133z" />
<glyph unicode="&#xd8;" d="M60 121v496q0 68 23.5 100.5t87.5 32.5h172l19 67h67l-21 -73q74 -20 74 -127v-481q0 -73 -24.5 -104.5t-86.5 -31.5h-174l-21 -76h-68l23 81q-71 20 -71 116zM140 68h9l174 614h-183v-614zM217 68h185v614h-11z" />
<glyph unicode="&#xd9;" horiz-adv-x="682" d="M60 682v68h210v-68h-65v-614h272v614h-65v68h210v-68h-63v-578q0 -104 -90 -104h-257q-89 0 -89 99v583h-63zM252 932h71l107 -123h-73z" />
<glyph unicode="&#xda;" horiz-adv-x="682" d="M60 682v68h210v-68h-65v-614h272v614h-65v68h210v-68h-63v-578q0 -104 -90 -104h-257q-89 0 -89 99v583h-63zM252 809l107 123h71l-105 -123h-73z" />
<glyph unicode="&#xdb;" horiz-adv-x="682" d="M60 682v68h210v-68h-65v-614h272v614h-65v68h210v-68h-63v-578q0 -104 -90 -104h-257q-89 0 -89 99v583h-63zM198 809l112 123h67l107 -123h-73l-69 80l-70 -80h-74z" />
<glyph unicode="&#xdc;" horiz-adv-x="682" d="M60 682v68h210v-68h-65v-614h272v614h-65v68h210v-68h-63v-578q0 -104 -90 -104h-257q-89 0 -89 99v583h-63zM224 852q0 17 13 30.5t30 13.5q18 0 30.5 -13t12.5 -31q0 -19 -12.5 -31.5t-31.5 -12.5q-17 0 -29.5 13t-12.5 31zM372 852q0 17 13 30.5t30 13.5 q18 0 30.5 -13t12.5 -31q0 -19 -12.5 -31.5t-31.5 -12.5q-17 0 -29.5 13t-12.5 31z" />
<glyph unicode="&#xdd;" horiz-adv-x="556" d="M25 682v68h162v-68h-36l127 -244l130 244h-36v68h159v-68h-38l-175 -313v-301h65v-68h-210v68h63v301l-166 313h-45zM189 809l107 123h71l-105 -123h-73z" />
<glyph unicode="&#xde;" horiz-adv-x="594" d="M65 0v68h63v613h-63v69h210v-69h-64v-62h211q66 0 89 -25t23 -99v-73q0 -16 -2 -28.5t-3.5 -21.5t-8.5 -18t-9.5 -14t-15 -14t-16.5 -11.5t-22.5 -14t-25.5 -15.5l-221 -138v-79h65v-68h-210zM210 227l251 155v168h-251v-323z" />
<glyph unicode="&#xdf;" horiz-adv-x="549" d="M50 0v68h80v578q0 55 21.5 79.5t67.5 24.5h137q58 0 85.5 -33t27.5 -86v-129q0 -37 -17.5 -64t-40.5 -29q28 -4 53 -32t25 -73v-170q0 -134 -141 -134h-72v68h131v300h-131v75h116v239h-184v-682h-158z" />
<glyph unicode="&#xe0;" horiz-adv-x="493" d="M20 88v37q0 36 11.5 52t56.5 44l220 137v74h-196v-58h-64v126h250q49 0 70.5 -21.5t21.5 -64.5v-346h63v-68h-348q-51 0 -68 19t-17 69zM100 68h208v210l-208 -130v-80zM157 682h71l107 -123h-73z" />
<glyph unicode="&#xe1;" horiz-adv-x="493" d="M20 88v37q0 36 11.5 52t56.5 44l220 137v74h-196v-58h-64v126h250q49 0 70.5 -21.5t21.5 -64.5v-346h63v-68h-348q-51 0 -68 19t-17 69zM100 68h208v210l-208 -130v-80zM157 559l107 123h71l-105 -123h-73z" />
<glyph unicode="&#xe2;" horiz-adv-x="493" d="M20 88v37q0 36 11.5 52t56.5 44l220 137v74h-196v-58h-64v126h250q49 0 70.5 -21.5t21.5 -64.5v-346h63v-68h-348q-51 0 -68 19t-17 69zM64 559l112 123h67l107 -123h-73l-69 80l-70 -80h-74zM100 68h208v210l-208 -130v-80z" />
<glyph unicode="&#xe3;" horiz-adv-x="493" d="M20 88v37q0 36 11.5 52t56.5 44l220 137v74h-196v-58h-64v126h250q49 0 70.5 -21.5t21.5 -64.5v-346h63v-68h-348q-51 0 -68 19t-17 69zM45 596q9 23 36.5 49.5t56.5 26.5t78 -27.5t59 -27.5q18 0 35.5 14.5t26.5 34.5l38 -28q-9 -24 -38.5 -50.5t-61.5 -26.5 q-25 0 -70 27t-66 27q-17 0 -28 -10.5t-25 -38.5zM100 68h208v210l-208 -130v-80z" />
<glyph unicode="&#xe4;" horiz-adv-x="493" d="M20 88v37q0 36 11.5 52t56.5 44l220 137v74h-196v-58h-64v126h250q49 0 70.5 -21.5t21.5 -64.5v-346h63v-68h-348q-51 0 -68 19t-17 69zM86 602q0 17 13 30.5t30 13.5q18 0 30.5 -13t12.5 -31q0 -19 -12.5 -31.5t-31.5 -12.5q-17 0 -29.5 13t-12.5 31zM100 68h208v210 l-208 -130v-80zM234 602q0 17 13 30.5t30 13.5q18 0 30.5 -13t12.5 -31q0 -19 -12.5 -31.5t-31.5 -12.5q-17 0 -29.5 13t-12.5 31z" />
<glyph unicode="&#xe5;" horiz-adv-x="493" d="M20 88v37q0 36 11.5 52t56.5 44l220 137v74h-196v-58h-64v126h250q49 0 70.5 -21.5t21.5 -64.5v-346h63v-68h-348q-51 0 -68 19t-17 69zM100 68h208v210l-208 -130v-80zM117 623q0 37 26.5 63t63.5 26q36 0 62 -26t26 -63t-26 -63t-63 -26t-63 26.5t-26 62.5zM166 624 q0 -17 12 -29t28 -12q17 0 29 12t12 28q0 17 -12 29t-28 12q-17 0 -29 -11.5t-12 -28.5z" />
<glyph unicode="&#xe6;" horiz-adv-x="710" d="M50 88v35q0 37 11.5 54t56.5 44l200 118v93h-176v-58h-64v126h489q50 0 71.5 -19.5t21.5 -68.5v-93l-264 -164v-87h185v58h79v-53q0 -32 -20 -52.5t-60 -20.5h-445q-51 0 -68 19t-17 69zM130 68h188v191l-188 -111v-80zM396 236l184 113v83h-184v-196z" />
<glyph unicode="&#xe7;" horiz-adv-x="426" d="M50 88v324q0 89 95 89h241v-127h-68v58h-188v-364h188v58h68v-126h-199v-42h37q74 0 74 -70v-37q0 -68 -68 -68h-102v53h108v67h-108v97q-78 4 -78 88z" />
<glyph unicode="&#xe8;" horiz-adv-x="465" d="M50 73v329q0 99 103 99h169q50 0 71.5 -20t21.5 -69v-93l-285 -180v-71h206v58h79v-53q0 -32 -20 -52.5t-60 -20.5h-205q-40 0 -60 20.5t-20 52.5zM130 220l205 129v83h-205v-212zM143 682h71l107 -123h-73z" />
<glyph unicode="&#xe9;" horiz-adv-x="465" d="M50 73v329q0 99 103 99h169q50 0 71.5 -20t21.5 -69v-93l-285 -180v-71h206v58h79v-53q0 -32 -20 -52.5t-60 -20.5h-205q-40 0 -60 20.5t-20 52.5zM130 220l205 129v83h-205v-212zM143 559l107 123h71l-105 -123h-73z" />
<glyph unicode="&#xea;" horiz-adv-x="465" d="M50 73v329q0 99 103 99h169q50 0 71.5 -20t21.5 -69v-93l-285 -180v-71h206v58h79v-53q0 -32 -20 -52.5t-60 -20.5h-205q-40 0 -60 20.5t-20 52.5zM89 559l112 123h67l107 -123h-73l-69 80l-70 -80h-74zM130 220l205 129v83h-205v-212z" />
<glyph unicode="&#xeb;" horiz-adv-x="465" d="M50 73v329q0 99 103 99h169q50 0 71.5 -20t21.5 -69v-93l-285 -180v-71h206v58h79v-53q0 -32 -20 -52.5t-60 -20.5h-205q-40 0 -60 20.5t-20 52.5zM115 602q0 17 13 30.5t30 13.5q18 0 30.5 -13t12.5 -31q0 -19 -12.5 -31.5t-31.5 -12.5q-17 0 -29.5 13t-12.5 31z M130 220l205 129v83h-205v-212zM263 602q0 17 13 30.5t30 13.5q18 0 30.5 -13t12.5 -31q0 -19 -12.5 -31.5t-31.5 -12.5q-17 0 -29.5 13t-12.5 31z" />
<glyph unicode="&#xec;" horiz-adv-x="300" d="M50 0v68h63v364h-63v68h145v-432h65v-68h-210zM61 682h71l107 -123h-73z" />
<glyph unicode="&#xed;" horiz-adv-x="300" d="M50 0v68h63v364h-63v68h145v-432h65v-68h-210zM61 559l107 123h71l-105 -123h-73z" />
<glyph unicode="&#xee;" horiz-adv-x="308" d="M-1 559l112 123h67l107 -123h-73l-69 80l-70 -80h-74zM58 0v68h63v364h-63v68h145v-432h65v-68h-210z" />
<glyph unicode="&#xef;" horiz-adv-x="300" d="M33 602q0 17 13 30.5t30 13.5q18 0 30.5 -13t12.5 -31q0 -19 -12.5 -31.5t-31.5 -12.5q-17 0 -29.5 13t-12.5 31zM50 0v68h63v364h-63v68h145v-432h65v-68h-210zM181 602q0 17 13 30.5t30 13.5q18 0 30.5 -13t12.5 -31q0 -19 -12.5 -31.5t-31.5 -12.5q-17 0 -29.5 13 t-12.5 31z" />
<glyph unicode="&#xf0;" horiz-adv-x="460" d="M33 495l114 94l-110 45v68l169 -64l107 88h87l-135 -110l65 -24q49 -18 67.5 -45.5t18.5 -67.5v-391q0 -43 -20 -65t-71 -22h-184q-54 0 -72.5 21.5t-18.5 65.5v109q0 39 21 66t70 55l202 129v25q0 43 -41 56l-98 38l-88 -71h-83zM124 67h219v299l-219 -137v-162z" />
<glyph unicode="&#xf1;" horiz-adv-x="568" d="M40 0v68h63v365h-63v67h144v-104l166 104q16 10 36 10q78 0 78 -77v-365h64v-68h-193v68h48v372l-199 -125v-247h49v-68h-193zM119 596q9 23 36.5 49.5t56.5 26.5t78 -27.5t59 -27.5q18 0 35.5 14.5t26.5 34.5l38 -28q-9 -24 -38.5 -50.5t-61.5 -26.5q-25 0 -70 27 t-66 27q-17 0 -28 -10.5t-25 -38.5z" />
<glyph unicode="&#xf2;" horiz-adv-x="451" d="M40 89v322q0 44 20 66.5t73 22.5h185q52 0 72.5 -23t20.5 -66v-322q0 -89 -93 -89h-185q-93 0 -93 89zM121 68h209v364h-209v-364zM136 682h71l107 -123h-73z" />
<glyph unicode="&#xf3;" horiz-adv-x="451" d="M40 89v322q0 44 20 66.5t73 22.5h185q52 0 72.5 -23t20.5 -66v-322q0 -89 -93 -89h-185q-93 0 -93 89zM121 68h209v364h-209v-364zM136 559l107 123h71l-105 -123h-73z" />
<glyph unicode="&#xf4;" horiz-adv-x="451" d="M40 89v322q0 44 20 66.5t73 22.5h185q52 0 72.5 -23t20.5 -66v-322q0 -89 -93 -89h-185q-93 0 -93 89zM82 559l112 123h67l107 -123h-73l-69 80l-70 -80h-74zM121 68h209v364h-209v-364z" />
<glyph unicode="&#xf5;" horiz-adv-x="451" d="M40 89v322q0 44 20 66.5t73 22.5h185q52 0 72.5 -23t20.5 -66v-322q0 -89 -93 -89h-185q-93 0 -93 89zM60 596q9 23 36.5 49.5t56.5 26.5t78 -27.5t59 -27.5q18 0 35.5 14.5t26.5 34.5l38 -28q-9 -24 -38.5 -50.5t-61.5 -26.5q-25 0 -70 27t-66 27q-17 0 -28 -10.5 t-25 -38.5zM121 68h209v364h-209v-364z" />
<glyph unicode="&#xf6;" horiz-adv-x="451" d="M40 89v322q0 44 20 66.5t73 22.5h185q52 0 72.5 -23t20.5 -66v-322q0 -89 -93 -89h-185q-93 0 -93 89zM108 602q0 17 13 30.5t30 13.5q18 0 30.5 -13t12.5 -31q0 -19 -12.5 -31.5t-31.5 -12.5q-17 0 -29.5 13t-12.5 31zM121 68h209v364h-209v-364zM256 602q0 17 13 30.5 t30 13.5q18 0 30.5 -13t12.5 -31q0 -19 -12.5 -31.5t-31.5 -12.5q-17 0 -29.5 13t-12.5 31z" />
<glyph unicode="&#xf7;" horiz-adv-x="362" d="M15 354v66h329v-66h-329zM128 256q0 20 15.5 36t35.5 16q21 0 35.5 -15.5t14.5 -36.5q0 -22 -14.5 -36.5t-36.5 -14.5q-20 0 -35 15t-15 36zM128 522q0 21 15.5 36.5t35.5 15.5q21 0 35.5 -15.5t14.5 -36.5q0 -22 -14.5 -37t-36.5 -15q-20 0 -35 15t-15 37z" />
<glyph unicode="&#xf8;" horiz-adv-x="451" d="M40 89v322q0 44 20 66.5t73 22.5h136l19 63h71l-19 -64q71 -9 71 -88v-322q0 -89 -93 -89h-128l-25 -85h-71l25 85q-79 7 -79 89zM121 68h18l109 364h-127v-364zM211 68h119v364h-10z" />
<glyph unicode="&#xf9;" horiz-adv-x="568" d="M40 433v68h145v-433l199 125v240h-49v68h130v-433h63v-68h-144v112l-166 -104q-16 -10 -36 -10q-78 0 -78 77v358h-64zM195 682h71l107 -123h-73z" />
<glyph unicode="&#xfa;" horiz-adv-x="568" d="M40 433v68h145v-433l199 125v240h-49v68h130v-433h63v-68h-144v112l-166 -104q-16 -10 -36 -10q-78 0 -78 77v358h-64zM195 559l107 123h71l-105 -123h-73z" />
<glyph unicode="&#xfb;" horiz-adv-x="568" d="M40 433v68h145v-433l199 125v240h-49v68h130v-433h63v-68h-144v112l-166 -104q-16 -10 -36 -10q-78 0 -78 77v358h-64zM141 559l112 123h67l107 -123h-73l-69 80l-70 -80h-74z" />
<glyph unicode="&#xfc;" horiz-adv-x="568" d="M40 433v68h145v-433l199 125v240h-49v68h130v-433h63v-68h-144v112l-166 -104q-16 -10 -36 -10q-78 0 -78 77v358h-64zM167 602q0 17 13 30.5t30 13.5q18 0 30.5 -13t12.5 -31q0 -19 -12.5 -31.5t-31.5 -12.5q-17 0 -29.5 13t-12.5 31zM315 602q0 17 13 30.5t30 13.5 q18 0 30.5 -13t12.5 -31q0 -19 -12.5 -31.5t-31.5 -12.5q-17 0 -29.5 13t-12.5 31z" />
<glyph unicode="&#xfd;" horiz-adv-x="515" d="M40 432v68h145v-431l199 125v238h-49v68h130v-633q0 -43 -21.5 -64.5t-70.5 -21.5h-231v136h68v-67h173v263l-176 -109q-23 -14 -46 -14q-25 0 -41 16.5t-16 48.5v377h-64zM168 559l107 123h71l-105 -123h-73z" />
<glyph unicode="&#xfe;" horiz-adv-x="527" d="M40 681v69h145v-364l173 109q24 15 50 15q29 0 49 -17.5t20 -47.5v-351q0 -46 -19 -70t-71 -24h-202v-182h66v-68h-210v68h62v863h-63zM185 68h212v371l-212 -133v-238z" />
<glyph unicode="&#xff;" horiz-adv-x="515" d="M40 432v68h145v-431l199 125v238h-49v68h130v-633q0 -43 -21.5 -64.5t-70.5 -21.5h-231v136h68v-67h173v263l-176 -109q-23 -14 -46 -14q-25 0 -41 16.5t-16 48.5v377h-64zM140 602q0 17 13 30.5t30 13.5q18 0 30.5 -13t12.5 -31q0 -19 -12.5 -31.5t-31.5 -12.5 q-17 0 -29.5 13t-12.5 31zM288 602q0 17 13 30.5t30 13.5q18 0 30.5 -13t12.5 -31q0 -19 -12.5 -31.5t-31.5 -12.5q-17 0 -29.5 13t-12.5 31z" />
<glyph unicode="&#x152;" horiz-adv-x="819" d="M60 121v496q0 68 23.5 100.5t87.5 32.5h588v-185h-68v117h-233v-266l172 109v-81l-172 -107v-269h233v117h68v-185h-580q-65 0 -92 31t-27 90zM140 68h236v217l-63 -40v81l63 40v316h-236v-614z" />
<glyph unicode="&#x153;" horiz-adv-x="744" d="M60 89v322q0 44 20 66.5t73 22.5h438q50 0 71.5 -19.5t21.5 -68.5v-93l-274 -180v-71h195v58h79v-53q0 -32 -20 -52.5t-60 -20.5h-451q-93 0 -93 89zM141 68h189v364h-189v-364zM410 432l1 -212l193 129v83h-194z" />
<glyph unicode="&#x178;" horiz-adv-x="556" d="M25 682v68h162v-68h-36l127 -244l130 244h-36v68h159v-68h-38l-175 -313v-301h65v-68h-210v68h63v301l-166 313h-45zM161 852q0 17 13 30.5t30 13.5q18 0 30.5 -13t12.5 -31q0 -19 -12.5 -31.5t-31.5 -12.5q-17 0 -29.5 13t-12.5 31zM309 852q0 17 13 30.5t30 13.5 q18 0 30.5 -13t12.5 -31q0 -19 -12.5 -31.5t-31.5 -12.5q-17 0 -29.5 13t-12.5 31z" />
<glyph unicode="&#x2c6;" horiz-adv-x="292" d="M3 559l112 123h67l107 -123h-73l-69 80l-70 -80h-74z" />
<glyph unicode="&#x2dc;" horiz-adv-x="335" d="M3 596q9 23 36.5 49.5t56.5 26.5t78 -27.5t59 -27.5q18 0 35.5 14.5t26.5 34.5l38 -28q-9 -24 -38.5 -50.5t-61.5 -26.5q-25 0 -70 27t-66 27q-17 0 -28 -10.5t-25 -38.5z" />
<glyph unicode="&#x2000;" horiz-adv-x="481" />
<glyph unicode="&#x2001;" horiz-adv-x="962" />
<glyph unicode="&#x2002;" horiz-adv-x="481" />
<glyph unicode="&#x2003;" horiz-adv-x="962" />
<glyph unicode="&#x2004;" horiz-adv-x="320" />
<glyph unicode="&#x2005;" horiz-adv-x="240" />
<glyph unicode="&#x2006;" horiz-adv-x="160" />
<glyph unicode="&#x2007;" horiz-adv-x="160" />
<glyph unicode="&#x2008;" horiz-adv-x="120" />
<glyph unicode="&#x2009;" horiz-adv-x="192" />
<glyph unicode="&#x200a;" horiz-adv-x="53" />
<glyph unicode="&#x2010;" horiz-adv-x="451" d="M80 354v66h291v-66h-291z" />
<glyph unicode="&#x2011;" horiz-adv-x="451" d="M80 354v66h291v-66h-291z" />
<glyph unicode="&#x2012;" horiz-adv-x="451" d="M80 354v66h291v-66h-291z" />
<glyph unicode="&#x2013;" horiz-adv-x="604" d="M80 354v66h444v-66h-444z" />
<glyph unicode="&#x2014;" horiz-adv-x="732" d="M80 354v66h581v-66h-581z" />
<glyph unicode="&#x2018;" horiz-adv-x="177" d="M2 510l75 240h74l-76 -240h-73z" />
<glyph unicode="&#x2019;" horiz-adv-x="177" d="M2 510l75 240h74l-76 -240h-73z" />
<glyph unicode="&#x201a;" horiz-adv-x="189" d="M10 -149l75 240h74l-76 -240h-73z" />
<glyph unicode="&#x201c;" horiz-adv-x="343" d="M2 510l75 240h74l-76 -240h-73zM179 510l75 240h74l-76 -240h-73z" />
<glyph unicode="&#x201d;" horiz-adv-x="343" d="M2 510l75 240h74l-76 -240h-73zM179 510l75 240h74l-76 -240h-73z" />
<glyph unicode="&#x201e;" horiz-adv-x="366" d="M10 -150l75 240h74l-76 -240h-73zM187 -150l75 240h74l-76 -240h-73z" />
<glyph unicode="&#x2022;" horiz-adv-x="414" d="M87 382q0 53 37.5 90t91.5 38q52 0 89 -37.5t37 -90.5q-1 -54 -37.5 -92t-88.5 -38q-53 0 -90.5 38t-38.5 92z" />
<glyph unicode="&#x2026;" horiz-adv-x="609" d="M40 47q0 20 15.5 36t35.5 16q21 0 35.5 -15.5t14.5 -36.5q0 -22 -14.5 -36.5t-36.5 -14.5q-20 0 -35 15t-15 36zM254 47q0 20 15.5 36t35.5 16q21 0 35.5 -15.5t14.5 -36.5q0 -22 -14.5 -36.5t-36.5 -14.5q-20 0 -35 15t-15 36zM468 47q0 20 15.5 36t35.5 16 q21 0 35.5 -15.5t14.5 -36.5q0 -22 -14.5 -36.5t-36.5 -14.5q-20 0 -35 15t-15 36z" />
<glyph unicode="&#x202f;" horiz-adv-x="192" />
<glyph unicode="&#x2039;" horiz-adv-x="251" d="M30 270l154 212l57 -40l-127 -172l127 -156l-55 -41z" />
<glyph unicode="&#x203a;" horiz-adv-x="251" d="M10 113l127 172l-127 156l55 41l156 -197l-154 -212z" />
<glyph unicode="&#x205f;" horiz-adv-x="240" />
<glyph unicode="&#x20ac;" horiz-adv-x="565" d="M40 260v67h60v107h-60v67h60v141q0 45 23 76.5t75 31.5h317v-135h-68v67h-265v-181h248v-67h-248v-107h248v-67h-248v-192h265v64h68v-132h-307q-108 0 -108 107v153h-60z" />
<glyph unicode="&#x2122;" horiz-adv-x="758" d="M20 633v117h268v-117h-54v61h-49v-220h51v-54h-164v54h51v220h-47v-61h-56zM322 420v54h43v222h-43v54h125l83 -164l83 164h125v-54h-42v-222h42v-54h-146v54h44v202l-87 -176h-40l-86 174v-200h45v-54h-146z" />
<glyph unicode="&#xe000;" horiz-adv-x="500" d="M0 0v500h500v-500h-500z" />
</font>
</defs>
</svg>
