<?xml version="1.0" standalone="no"?>
<!DOCTYPE svg PUBLIC "-//W3C//DTD SVG 1.1//EN" "http://www.w3.org/Graphics/SVG/1.1/DTD/svg11.dtd" >
<svg xmlns="http://www.w3.org/2000/svg">
<metadata></metadata>
<defs>
<font id="jrhandregular" horiz-adv-x="445" >
<font-face units-per-em="1000" ascent="800" descent="-200" />
<missing-glyph horiz-adv-x="262" />
<glyph horiz-adv-x="1000" />
<glyph horiz-adv-x="1000" />
<glyph unicode="&#xd;" horiz-adv-x="262" />
<glyph unicode=" "  horiz-adv-x="262" />
<glyph unicode="&#x09;" horiz-adv-x="262" />
<glyph unicode="&#xa0;" horiz-adv-x="262" />
<glyph unicode="!" horiz-adv-x="358" d="M384 590q0 -15 -90 -130l-111 -142l-46 -78q-28 -46 -60 -66h-19q-8 7 -8 23q0 47 130 247.5t163 200.5q10 0 25.5 -22t15.5 -33zM73 13q0 -40 -36 -40q-26 0 -41 22t-15 49q0 5 3.5 15.5t3.5 15.5q4 0 12 3.5t13 3.5q12 0 36 -28t24 -41z" />
<glyph unicode="&#x22;" horiz-adv-x="182" d="M195 581q0 -132 -9 -155l1 -4q-4 -1 -10 -3q-26 0 -46 58q-17 49 -17 83q0 21 8 56q10 44 24 44q24 0 49 -42v-37zM77 585q0 -27 -21 -166h-20q-41 30 -41 97q0 46 23 127q59 -23 59 -58z" />
<glyph unicode="#" horiz-adv-x="773" d="M745 215q-19 -19 -120 -25q-115 -6 -135 -14q-10 -4 -49 -101q-37 -93 -61 -93q-14 0 -26 24q-11 21 -11 37q0 9 46 130q-91 0 -137 -54q-42 -63 -84 -125q-45 21 -45 56q0 28 30 72q-7 2 -14 2q-10 0 -30.5 -4.5t-30.5 -4.5q-15 0 -30 21t-15 37t43 29q33 10 57 10l5 -2 q0 -3 -2 -3t-3 -2q0 -2 1 -2l5 -2q25 0 71 30t47 53l-9 3q-17 0 -93 -46q-32 33 -32 60q0 35 50 58q29 13 97 27q56 11 63 18t43 74q33 63 38 63q29 0 38 -31q3 -20 10 -59q7 -32 36 -32q21 0 36 7q7 3 73 102q61 92 89 92q11 0 24 -19.5t13 -31.5q0 -20 -92 -142v-15 q30 -8 92 -23q2 -12 5 -38l-115 -6q-54 -8 -85 -71q32 -6 200 -34q0 -14 7 -25zM469 312v21q-56 0 -72 -15q-21 -29 -43 -58q50 0 79 -7q12 34 36 59z" />
<glyph unicode="$" horiz-adv-x="462" d="M495 659q0 -7 -42 -73q-47 -74 -50 -81q70 -35 70 -99q0 -16 -6 -30q-77 68 -92 68q-6 0 -57.5 -59.5t-51.5 -68.5q0 3 28.5 -38.5t28.5 -73.5l-6 -9q-3 -22 -46 -58.5t-65 -35.5l-38 1q-30 1 -46 -19q-15 -25 -29 -50l-46 -80q-8 2 -22 14q-17 13 -21 16q7 23 51 147 q-80 75 -80 111q0 11 13 32q45 -10 93 -92q18 13 58.5 72.5t40.5 76.5q0 -31 -28.5 36t-28.5 87q0 80 111 80q14 0 40.5 -1.5t40.5 -1.5q6 0 70 88.5t75 88.5q13 0 24 -17t11 -31zM272 461q-54 0 -86 -31q8 -13 18 -28t20 -21q15 27 48 80zM272 221q0 11 -32 46l-36 -52 q-21 -30 -31 -56q20 7 59.5 21.5t39.5 40.5z" />
<glyph unicode="%" horiz-adv-x="665" d="M599 171q0 -70 -69 -127q-65 -55 -137 -55q-80 0 -80 77q0 38 58.5 140t91.5 116q16 7 31 7q47 0 79 -58q26 -48 26 -100zM542 180q0 17 -8 41q-9 29 -22 29q-10 0 -61 -84l-63 -102h42q32 0 72 42t40 74zM587 564q0 -23 -18 -48q-4 -5 -35 -40l3 -8q-25 -42 -122 -155 q-43 -50 -114.5 -160t-113.5 -159q-15 3 -24.5 18t-9.5 31q0 25 69 138q60 98 91 140v2l-8 1q-91 -50 -149 -51l-39 -47h-19q-41 26 -41 75q0 79 82 165.5t161 86.5q91 0 97 -143q99 105 190 154zM347 434v26q-13 13 -25 13q-9 0 -22.5 -14.5t-20.5 -14.5q-4 0 -11.5 3 t-11.5 3q-39 0 -108 -91h42q24 0 82.5 28.5t74.5 46.5z" />
<glyph unicode="&#x26;" horiz-adv-x="618" d="M576 526q0 -55 -71 -94q-38 -19 -115 -58q5 -46 15 -137q10 -74 51 -128q15 12 23 31q9 27 14 34l-9 9q-5 -11 -14 -11q-11 0 -22.5 18t-11.5 30q0 38 31 38q33 0 58 -33.5t25 -67.5q0 -85 -123 -151q-106 -57 -200 -57q-75 0 -136 57t-61 131q0 121 179 224l128 72 l-7 105q0 62 28.5 88t91.5 25l82 -47q44 -34 44 -78zM521 553q-60 30 -80 30q-17 0 -36.5 -16t-19.5 -33v-71h20q44 23 68 37q43 25 48 53zM407 76q-32 77 -70 272q-69 -27 -147 -96q-91 -81 -91 -141q0 -43 29 -68.5t73 -25.5q47 0 105 20q13 4 101 39z" />
<glyph unicode="'" horiz-adv-x="79" d="M84 569q0 -130 -8 -154l1 -3q-4 -2 -10 -4q-26 0 -46 58q-16 47 -16 82q0 20 8 55q10 44 23 44q24 0 48 -42v-36z" />
<glyph unicode="(" horiz-adv-x="395" d="M315 -3q-101 0 -179.5 76.5t-78.5 177.5q0 65 35.5 159t79.5 142q34 37 53 37h71q5 -19 5 -30q0 -24 -33 -47l-51 -36q-28 -27 -60 -119q-31 -88 -31 -132q0 -58 40 -101q18 -19 82 -62q52 -35 67 -65z" />
<glyph unicode=")" horiz-adv-x="392" d="M336 219q0 -39 -57 -111q-91 -114 -211 -137l-12 37q101 66 136 96q81 70 81 135q0 64 -48 135q-11 16 -88 109q-47 57 -47 87q0 23 23 23q30 0 92 -58q56 -53 77 -87q22 -37 38 -110.5t16 -118.5z" />
<glyph unicode="*" horiz-adv-x="399" d="M428 495q0 -26 -68 -36q-30 -3 -89 -9l-10 -9q24 -29 74 -85v-27q-29 0 -57 22q-16 14 -49 41q-11 -10 -33 -77q-18 -55 -53 -55q-23 0 -34 24q-7 22 -14 43q17 2 22 2q11 0 19 40q10 46 11 49l-10 3q-21 0 -58.5 -17.5t-58.5 -17.5q-11 0 -26 13.5t-15 24.5q0 29 59 56 q43 15 85 31q-14 27 -29 54q-11 26 -11 61q6 7 20 7q26 0 48 -41q11 -21 32 -62q8 24 22 65q17 50 33 50q23 0 37.5 -16.5t14.5 -40.5q0 -25 -18 -43q30 -3 90 -11q66 -9 66 -39z" />
<glyph unicode="+" horiz-adv-x="452" d="M415 256q0 -21 -91 -43q-57 -14 -115 -27q2 -8 22 -76q13 -45 13 -77q0 -37 -20 -37q-26 0 -48 81l-28 106q-34 -2 -98 7q-29 11 -29 51q0 15 8 26q38 2 113 8q0 25 -5.5 73.5t-5.5 73.5q0 43 11 76q55 -22 55 -111q0 -12 -1 -34.5t-1 -34.5q0 -18 2 -31h66q11 0 32 6 t32 6q28 0 53 -9q35 -13 35 -34z" />
<glyph unicode="," horiz-adv-x="353" d="M292 101q0 -78 -41 -138q-46 -69 -120 -69q-22 0 -31.5 16t-20.5 33q1 0 65 37q37 21 60 44l3 23q19 25 22 78q1 42 1 84q62 -7 62 -108z" />
<glyph unicode="-" d="M398 232q-26 -8 -73 -15q-79 -11 -157 -36q-60 -19 -77 -19q-19 0 -29 23q-8 18 -8 40q0 8 1 14q27 19 118 38q82 17 127 17q90 0 98 -62z" />
<glyph unicode="." horiz-adv-x="227" d="M172 49q0 -19 -14.5 -31t-34.5 -12q-22 0 -35.5 14.5t-13.5 36.5q0 18 10 40q12 27 27 27q20 0 40.5 -27t20.5 -48z" />
<glyph unicode="/" horiz-adv-x="416" d="M446 563q0 -33 -18 -54q-4 -6 -42 -39q-21 -18 -48 -67.5t-49 -67.5q-63 -51 -103 -111q-17 -25 -58 -104q-35 -67 -73 -112q-15 -18 -32 -18q-14 0 -27.5 23t-13.5 38t14 32q12 13 25 26q39 41 109 161q57 98 130 152q32 24 84.5 86t86.5 86q15 -9 15 -31z" />
<glyph unicode="0" horiz-adv-x="595" d="M567 449q0 -102 -47 -211q-51 -118 -128 -170q-16 -7 -56 -29q-6 -3 -8 -13l-69 -34q-35 -14 -76 -14q-77 0 -122.5 46.5t-45.5 123.5q0 36 31 121q19 51 97 148q87 107 125 107q5 0 11 -5t12 -6q89 92 158 92q60 0 91 -50q27 -43 27 -106zM521 449q0 81 -46 81 q-69 0 -145 -68l-122 -116l-17 23q-40 -41 -75 -117q-37 -79 -37 -133q0 -83 89 -83q6 0 17 2.5t17 2.5q34 0 90 27q48 23 82 50q67 53 108 150q39 91 39 181z" />
<glyph unicode="1" horiz-adv-x="263" d="M282 550q0 -17 -116 -276q-113 -251 -139 -300q-38 36 -38 78q0 41 105 278q99 223 138 286q50 -23 50 -66z" />
<glyph unicode="2" horiz-adv-x="545" d="M525 227q-11 -13 -36 -36q-22 -16 -107 -19q-92 -3 -117 -14q-19 -30 -57 -88q-56 -83 -112 -83q-40 0 -66 61q-21 50 -21 96q0 52 46 74q29 14 91 21q59 6 68 14q22 18 22 135q0 41 -16 69q-20 35 -58 35q-35 0 -48 -17q-3 -3 -14 -30q-7 -16 -24 -16q-15 0 -29 36 q-12 31 -12 50q0 23 50 45q42 18 71 18q59 0 104 -64q40 -58 40 -120q0 -100 -14 -143q80 -6 239 -24zM155 141q0 21 -35 21q-13 0 -28 -21t-15 -35q0 -30 35 -30q13 0 28 25.5t15 39.5z" />
<glyph unicode="3" horiz-adv-x="372" d="M368 488q0 -102 -98 -168q40 -65 40 -109q0 -76 -70.5 -149t-146.5 -73q-30 0 -53.5 19t-23.5 48q0 49 60 49q7 0 21 -11.5t22 -11.5q29 0 84 51.5t55 80.5q0 27 -37 47q-31 17 -61 17q-13 0 -42 -3.5t-44 -2.5l-23 1q-6 27 -6 74q94 33 124 47q65 29 113 72 q-4 13 -21 28q-16 0 -48 2t-48 2h-24q-12 -11 -28 -11q-21 0 -36 16t-15 37q0 53 46 53q260 0 260 -105z" />
<glyph unicode="4" horiz-adv-x="385" d="M412 581q0 -14 -83 -134l-102 -148q17 -4 36 -4q20 0 39 5q-23 -31 -71 -90q-11 3 -21 3q-42 0 -76 -51l-54 -102q-32 -61 -66 -77q-7 19 -7 26q0 62 64 186v15q-88 27 -88 107q0 83 78 174h20q12 -18 36 -67q-20 -12 -43 -38q-26 -30 -26 -48t31 -31q25 -11 47 -12 q29 41 127 176q86 118 140 153q19 -31 19 -43z" />
<glyph unicode="5" horiz-adv-x="460" d="M493 530q0 -17 -13 -27q-59 -8 -177 -26q-139 -24 -139 -65q0 -36 49 -149t49 -166q0 -43 -51 -75q-45 -29 -91 -29t-93 29q-54 32 -54 75q0 38 16 50q11 8 52 14q12 -43 21 -53q15 -16 54 -16q24 0 44 8q28 10 28 29q0 22 -57 127q-7 14 -27.5 98t-20.5 101q0 24 7 44 q5 14 59 51.5t70 37.5q7 0 21 -11.5t22 -11.5q26 0 78 11.5t78 11.5q75 0 75 -58z" />
<glyph unicode="6" horiz-adv-x="423" d="M415 548q-1 -23 -19 -36q-19 -8 -57 -26q-38 -24 -132 -134q-97 -114 -97 -148v-6q45 27 64 36q35 16 71 16q43 0 73 -43q28 -39 28 -84q0 -53 -89 -99q-77 -40 -137 -40q-57 0 -93 46q-34 43 -34 101q0 61 92 194q72 103 140 174q94 98 144 98q27 0 46 -49zM276 145 q-19 7 -26 7q-36 0 -77 -22.5t-64 -52.5h42q20 0 68.5 26t56.5 42z" />
<glyph unicode="7" horiz-adv-x="349" d="M374 515q0 -96 -212 -465q-35 -61 -61 -61q-35 0 -35 61q0 32 71 122q92 116 96 123q20 35 36 106q18 81 30 108h-44q-36 0 -103.5 -25t-103.5 -25q-19 0 -29 30q-8 24 -6 45l1 12q122 50 284 50q42 0 59 -19t17 -62z" />
<glyph unicode="8" horiz-adv-x="451" d="M483 507q0 -6 -17 -40q-53 -105 -215 -220q1 -18 12.5 -55t11.5 -57q0 -67 -59 -110q-53 -40 -122 -40q-51 0 -83 23q-37 26 -37 75q0 43 74 117q71 71 117 83q-4 18 -24 74q-17 47 -17 75q0 113 67 113q47 0 95 -71l-5 -46l-4 3l-21 -5q-19 27 -45 27q-15 0 -19 -5 t-4 -21q0 -21 6 -46q4 -17 11 -45v-1l9 -4q43 0 127 81t84 124q0 21 -36 35.5t-36 24.5q0 2 7 37q22 7 28 7q26 0 55.5 -37.5t29.5 -63.5q0 -6 5 -16t5 -16zM223 149q0 9 -11 33q-10 21 -15 34q-9 -17 -79 -70q-63 -48 -63 -66q0 -17 23 -17q39 0 88 24q57 28 57 62z" />
<glyph unicode="9" horiz-adv-x="394" d="M411 475q0 -15 -10 -32q-16 -27 -17 -30q-8 -26 -30 -92q-20 -55 -86 -178q-76 -142 -104 -142q-38 0 -38 45q0 49 64 139q72 102 82 145q-20 -3 -71 -14q-46 -10 -72 -10q-131 0 -131 119q0 85 99 144q86 51 178 51q47 0 91.5 -49t44.5 -96zM347 477q-8 21 -43 37 q-30 13 -56 13q-25 0 -39 -2q-28 -4 -88 -44q-64 -42 -64 -65q0 -17 69 -17q61 0 119 18q71 21 102 60z" />
<glyph unicode=":" horiz-adv-x="225" d="M171 328q0 -28 -28 -28q-14 0 -33 18t-19 32v42q21 7 20 7q24 0 42 -23t18 -48zM172 43q0 -36 -23 -36q-18 0 -44 21t-26 39v42q0 7 15 7q22 0 50 -26t28 -47z" />
<glyph unicode=";" horiz-adv-x="219" d="M203 354q0 -41 -31 -41q-21 0 -35.5 18.5t-14.5 40.5q0 11 12 24t23 13q8 0 27 -23t19 -32zM174 99q0 -49 -23 -122q-29 -91 -63 -91h-20q-15 0 -15 29q0 7 14 32q17 31 19 35q13 34 23 92l2 55q2 34 20 50q15 -12 29 -37t14 -43z" />
<glyph unicode="&#x3c;" horiz-adv-x="444" d="M374 390q0 -32 -96 -103q-110 -81 -124 -102q85 -16 97 -19q57 -15 89 -39q-19 -32 -38 -32q-60 0 -118 10q-77 13 -108 38q-37 30 -37 54v47q87 10 239 145q53 47 56 47q10 0 25 -18t15 -28z" />
<glyph unicode="=" horiz-adv-x="492" d="M463 264q-222 -30 -379 -30q-43 0 -43 48q0 26 14 47q19 1 126 5q78 3 126 3q21 0 132 -19l24 -17v-37zM463 119l-14 -26q-193 -47 -337 -47q-13 0 -36 12v61q25 10 104 22.5t110 12.5q88 0 126 -13q14 -10 47 -22z" />
<glyph unicode="&#x3e;" horiz-adv-x="384" d="M328 202q0 -16 -12 -32q-57 -13 -177 -100q-46 14 -46 37q0 38 132 116q-13 13 -92 62q-58 36 -80 75l7 43q62 -34 150 -95q118 -82 118 -106z" />
<glyph unicode="?" horiz-adv-x="336" d="M333 498q0 -58 -44 -99q-29 -27 -99 -60q-76 -36 -100 -53q18 -18 36 -35q10 -12 10 -53q0 -7 -14 -7q-100 0 -100 113q0 7 1 34q27 20 99.5 48.5t101.5 48.5q51 35 51 77q0 29 -55 29q-83 0 -196 -98q-32 1 -32 85v6q41 34 106 65q72 34 117 34q52 0 86 -43 q32 -39 32 -92zM217 57q0 -21 -16.5 -36.5t-37.5 -15.5q-44 0 -44 63q0 10 3.5 28.5t3.5 28.5q4 0 13.5 3.5t14.5 3.5q17 0 40 -28.5t23 -46.5z" />
<glyph unicode="@" horiz-adv-x="768" d="M749 346q0 -67 -117 -127q-103 -53 -179 -53q-27 0 -74 68q-15 -12 -46 -34q-25 -17 -54 -17q-35 0 -56 29q-18 25 -18 62q0 54 74 121.5t129 67.5q36 0 58 -40q19 -33 19 -72t-6 -49q-14 -18 -29 -37v-14q34 -1 54 5q8 2 49 22l90 43q47 32 47 82q0 73 -65 113 q-54 33 -132 33q-148 0 -272 -90q-136 -99 -136 -242q0 -103 120 -152q87 -36 208 -36q20 0 35 11t17 11q20 0 45.5 -24t25.5 -44q0 -35 -73 -35q-186 0 -302 61q-150 78 -150 248q0 165 158 269q139 91 313 91q137 0 194 -66q42 -49 55 -78q17 -38 17 -93v-17q1 -11 1 -17z M404 365h-20q-77 -46 -90 -84q76 20 110 84z" />
<glyph unicode="A" horiz-adv-x="607" d="M528 240q0 -6 -9 -20l-13 -20q-12 -31 -9 -132l2 -63q-14 -3 -26 -3q-41 0 -41 48q0 17 6 51t6 51q0 29 -21 29q-24 0 -119 -26.5t-106 -37.5q-6 -6 -49 -76q-35 -57 -56 -57q-12 0 -24.5 16.5t-12.5 28.5q0 10 33 59l42 63q115 183 279 505q93 -37 93 -235q0 -22 -2 -65 t-2 -65q0 -8 14.5 -25.5t14.5 -25.5zM442 267v177q0 16 -6 45.5t-7 41.5q-24 -49 -87 -151q-60 -96 -83 -153q61 11 183 40z" />
<glyph unicode="B" horiz-adv-x="680" d="M626 246q0 -40 -39 -87q-142 -170 -376 -170q-57 0 -98 14q-61 21 -61 66q0 6 61.5 97.5t61.5 109.5q0 8 -4 24t-4 24t1 16q40 14 64 54q6 9 36 79q-30 -3 -74 -45q-21 -21 -65 -64q-14 9 -14 26q0 29 40 79q30 37 64 66q73 61 140 85q64 22 162 22q16 0 49 -52t33 -72 q0 -69 -136 -149q80 -27 102 -39q57 -32 57 -84zM523 538q-18 0 -52.5 2.5t-52.5 2.5q-50 0 -104 -34q22 -32 22 -56q0 -16 -7 -38l-12 -37q52 16 122 64q85 58 84 96zM549 239q0 61 -87 61q-129 0 -102 1q-67 -2 -95 -20q-12 -24 -63 -97q-48 -69 -53 -86q97 -41 128 -41 q70 0 166 56q106 62 106 126z" />
<glyph unicode="C" horiz-adv-x="589" d="M552 109q0 -56 -123 -90q-91 -25 -171 -25q-95 0 -166 70t-71 165q0 100 72 193q60 78 158 139q21 15 65 44q37 24 73 24q31 0 65.5 -34t34.5 -64q0 -34 -20.5 -61t-53.5 -27q-27 0 -51 21q4 16 23 39q23 28 28 36l-5 4q-99 0 -207.5 -123.5t-108.5 -224.5 q0 -44 39 -84.5t83 -41.5l46 -1q135 -3 183 30q18 12 26 44q6 24 24 24q13 0 35 -22t22 -35z" />
<glyph unicode="D" horiz-adv-x="657" d="M622 333q0 -80 -90 -170q-70 -70 -161 -119q-102 -55 -172 -55h-54q-23 0 -44 45q-19 39 -19 66q0 40 54 151q26 52 77 155q-20 6 -20 26q0 34 71 116q-7 4 -15 4q-41 0 -107.5 -25.5t-73.5 -25.5q-19 0 -31 28q-10 22 -11 45q69 33 128 44q45 8 135 8q110 0 219 -91 q114 -95 114 -202zM571 359q0 52 -74 112q-69 57 -124 63l-118 -225q-68 -132 -99 -234q55 -6 77 -6q75 0 206.5 109t131.5 181z" />
<glyph unicode="E" horiz-adv-x="684" d="M733 596q0 -12 -11 -22t-23 -10q-5 0 -7 3t-7 3q-10 0 -33 -9q-26 -10 -35 -12q-41 -9 -170 -30q-103 -16 -167 -37q-36 -11 -64 -72q-34 -71 -54 -87q9 -3 18 -3q14 0 39.5 8.5t39.5 8.5q128 0 191 52q43 -35 43 -49q0 -32 -94 -59q-24 -7 -185 -41q-111 -24 -133 -41 q-13 -10 -28 -52q-20 -53 -23 -59q74 -15 78 -15q34 0 102.5 8.5t102.5 8.5q5 0 59 28l16 -25q-1 -6 2 -36q-67 -65 -259 -65q-175 0 -175 107q0 39 30 116q0 5 -3 16t-3 17q0 4 1 7q3 15 51 31q26 16 99 140q-10 36 -10 55q0 20 22 37q19 12 39 24q26 22 38 62h26 q26 -28 42 -28q14 0 89 18q49 13 149 37q81 19 150 19q14 0 35.5 -20t21.5 -34z" />
<glyph unicode="F" horiz-adv-x="630" d="M675 557q-35 -37 -96 -37q-7 0 -20 6t-20 6q-25 0 -133.5 -36t-135.5 -52q-15 -9 -39 -62l-33 -73q11 -6 29 -6q17 0 49.5 7t49.5 7q4 0 11.5 5.5t11.5 5.5q116 0 195 39l-2 -11q0 -5 4 -15t4 -15q0 -8 -8 -35q-52 -27 -136 -43q-105 -21 -203 -35q-36 -5 -58 -17 q-3 -2 -58 -100q-53 -94 -72 -94q-17 0 -30 16.5t-13 34.5q0 8 25 59q10 21 31 64q-9 -1 -17 -1q-51 0 -51 51q0 23 24 34q11 5 47 9q28 3 31 8q6 9 9 40q2 27 4 43q8 48 47 87q7 7 78 63q8 8 24 26t22 18q4 0 9 -5.5t11 -5.5q5 0 13 5.5t13 5.5q49 0 142 35t142 35 q41 0 63.5 -14.5t35.5 -52.5z" />
<glyph unicode="G" horiz-adv-x="821" d="M802 280q0 -41 -81 -41q-13 0 -37.5 2t-37.5 2q-11 0 -50 -73q-36 -67 -43 -90q-2 -30 -15 -84q-11 -25 -32 -25q-24 0 -30 33q-3 18 -7 52q-16 -12 -33 -21t-95 -20q-71 -10 -102 -10q-17 0 -49.5 5.5t-49.5 5.5q-57 0 -97 59q-37 53 -37 112q0 85 122 205 q91 89 197 155q125 77 198 77q18 0 32 -12.5t14 -30.5q0 -23 -19 -41q-8 3 -17 3q-62 0 -192 -87q-103 -70 -171 -136q-95 -92 -95 -145q0 -56 62 -82q46 -20 111 -20q6 0 15.5 5.5t15.5 5.5q5 0 10 -5.5t10 -5.5q7 0 20 8.5t20 8.5l6 -2l-1 -1l6 -3q3 0 39 15q23 5 68 20 q24 13 46 40q26 30 26 53q0 38 -64 38q-19 0 -57.5 -3.5t-57.5 -3.5q-82 0 -82 54q0 21 14 41l125 8q32 0 95.5 -8t95.5 -8q22 0 66 2.5t66 2.5q72 0 72 -55z" />
<glyph unicode="H" horiz-adv-x="498" d="M511 564q0 -27 -40 -110t-40 -111q0 -9 11.5 -28.5t11.5 -28.5t-23 -32q-28 -28 -31 -32q-9 -15 -17 -76q-8 -67 -18 -93q-17 -46 -51 -46q-17 0 -35.5 18.5t-18.5 35.5q0 15 14 15q25 0 36 60l12 80l-8 5q-16 -1 -56 -22q-6 -3 -53 -10q-36 -5 -60 -43q-7 -12 -33 -71 q-24 -55 -38 -98q-13 -10 -27 -10q-20 0 -33 21q-12 18 -12 39q0 7 23.5 50.5t27 56.5t8.5 90q13 7 37 29q13 16 28 54q12 30 23 59q42 99 158 261q12 -5 33.5 -20t21.5 -23q0 -21 -72 -142q-81 -136 -88 -155q9 -5 22 -5q40 0 120 40q24 86 53 161q49 127 80 127 q13 0 23.5 -16t10.5 -30z" />
<glyph unicode="I" horiz-adv-x="653" d="M700 601q0 -45 -218 -76q0 -7 1 -19.5t1 -19.5q0 -28 -80 -175.5t-81 -188.5l9 -9q22 7 89 7q6 0 102 -14q0 -37 -78 -58q-56 -15 -108 -15q-4 0 -11.5 3t-11.5 3q-10 0 -40 -16t-40 -16q-13 0 -40 1.5t-40 1.5q-26 0 -75.5 -14.5t-75.5 -14.5q-18 0 -46 42v25 q7 13 20 13q31 0 120 15q93 16 113 27q16 9 23 29l12 36q37 88 158 330l-5 4q-26 0 -91.5 -33t-96.5 -33q-42 0 -42 57q0 16 49.5 43.5t68.5 27.5q4 0 7 -2.5t7 -2.5t38.5 15.5t55.5 15.5q8 0 17 -2l16 14q39 5 96 15q7 1 67 22q49 17 61 17t30.5 -21.5t18.5 -33.5z" />
<glyph unicode="J" horiz-adv-x="721" d="M773 581q0 -24 -80 -43q-21 -5 -103 -21q-2 -41 -35 -122q-41 -100 -47 -126q-32 -134 -63 -190q-56 -103 -155 -103q-5 0 -13.5 2.5t-12.5 2.5l-5 -2l2 -6l-5 -3q-47 0 -140 40q-87 37 -130 70q-34 26 -34 73q0 13 5 22q14 6 19 6q17 0 70 -20.5t68 -32.5 q-1 -14 -10 -29q49 -32 64 -39q33 -16 74 -16q151 0 190 238q8 49 31 105l42 102l-9 4q-17 -1 -50 -15t-50 -14q-29 0 -40 24q-2 8 -11 49q40 22 190.5 60.5t197.5 38.5q11 0 25.5 -21.5t14.5 -33.5z" />
<glyph unicode="K" horiz-adv-x="648" d="M676 633q0 -29 -68 -69q-34 -20 -94 -53q-89 -61 -229 -116q103 -48 183 -146q88 -109 88 -213q0 -23 -9 -48q-11 -33 -29 -33q-31 0 -31 53q0 12 3.5 37t3.5 37q0 69 -86 151.5t-155 79.5l-21 -1q-52 -82 -107 -168q-88 -137 -107 -137q-16 0 -32.5 24.5t-16.5 41.5 q0 9 68 114l82 127q-6 4 -11 4q-11 0 -31 -9t-30 -9q-15 0 -35 22.5t-20 37.5t46 31l94 32q58 24 80 57q45 67 47 106q18 12 28 36q49 -8 49 -53q0 -11 -3 -34t-3 -34q3 1 169 97q141 81 148 81q10 0 19.5 -17.5t9.5 -28.5z" />
<glyph unicode="L" horiz-adv-x="505" d="M486 63q0 -9 -18 -24q-23 -6 -89 -6q-136 0 -236 -21q-7 -2 -34 -12q-22 -9 -33 -9q-21 0 -36.5 20.5t-15.5 42.5q0 27 54 112q63 99 71 118q25 59 58 173.5t61 170.5q11 23 19 23q11 0 30 -27.5t19 -39.5q0 -10 -14 -40q-20 -44 -85 -239q-39 -118 -86 -189q19 -2 43 -2 q20 0 60 2t60 2q172 0 172 -55z" />
<glyph unicode="M" horiz-adv-x="752" d="M705 541q0 -33 -13 -84q-17 -68 -20 -83q-19 -111 -32 -259q-1 -27 -6 -81q-7 -59 -36 -59q-17 0 -30 20t-13 38q0 54 20.5 159t20.5 159v10q-10 -2 -48 -57q-47 -69 -79 -100q-54 -53 -103 -53q-55 0 -75 84q-3 12 -15 128l-102 -209q-83 -170 -99 -170q-19 0 -33.5 23 t-14.5 43q0 29 53 129q83 157 100 194q54 118 54 186q0 35 19 51q30 -23 41 -23q5 0 14 9t15 9q27 0 45 -35q15 -30 15 -60q0 -31 -14.5 -91.5t-14.5 -91.5l-1 -70l10 -3q13 0 66 44q49 41 64 58q35 39 87.5 126.5t83.5 124.5q19 0 31 -24q10 -20 10 -42z" />
<glyph unicode="N" horiz-adv-x="618" d="M662 722q-79 -133 -170 -358q-96 -237 -121 -375q-11 -13 -29 -13q-40 0 -98 179q-36 110 -62 225q-29 -90 -79 -209q-71 -169 -97 -169q-19 0 -42 23q-1 70 52 186q78 171 82 184q11 36 34 108q29 87 48 87q42 0 61 -109q6 -48 20 -144q16 -107 63 -202q116 317 272 614 h60z" />
<glyph unicode="O" horiz-adv-x="665" d="M624 359q0 -112 -91 -206q-77 -80 -194 -125q-15 -6 -91 -40q-2 -2 -2 -7q0 -7 3 -19h-16q-11 -1 -15 -1q-25 0 -79 44q-51 41 -65 67q-36 67 -36 124q0 37 16 97q12 12 25 38q16 32 21 40q96 144 263 216q5 2 21 16q13 11 23 11q3 0 6.5 -2.5t7.5 -2.5q9 0 24 8.5 t24 8.5q7 0 9 -12q6 7 4 17q27 -8 81 -25q20 -22 35 -40q26 -31 26 -40v-167zM567 457q0 29 -12 58q-15 36 -40 36q-47 0 -187 -76q-56 -31 -101 -90q-20 -26 -74 -115q-24 -39 -24 -51q0 -143 55 -143q34 0 157 40l5 -1q3 2 2 3q28 11 85 53.5t74 66.5q60 84 60 219z" />
<glyph unicode="P" horiz-adv-x="514" d="M550 489q0 -108 -107 -188q-81 -59 -207 -93q-32 -4 -91 -21q-4 -1 -57.5 -104.5t-65.5 -103.5q-16 0 -33.5 24t-17.5 41q0 11 39.5 78.5t39.5 78.5q0 7 -11 28.5t-11 30.5q0 30 16 30q4 0 13 -2t13 -2q31 0 79 89q64 119 104 164q79 89 186 89q48 0 81 -47 q30 -42 30 -92zM493 525q-36 21 -70 21q-87 0 -167 -147l-52 -100l14 -7q127 52 172 82q93 63 103 151z" />
<glyph unicode="Q" horiz-adv-x="780" d="M715 272q0 -161 -153 -258v-7q0 -19 12 -54t12 -54q0 -15 -8 -29h-15q-16 0 -41 52q-11 23 -34 68q-124 -34 -162 -34q-100 0 -182 65q-88 70 -88 168q0 70 31 128q10 18 75 109q28 39 106 102q89 72 119 72q13 0 37 -11.5t37 -11.5q4 0 11.5 3t11.5 3l7 -2l-1 -1l6 -3 q4 0 11.5 3t11.5 3q7 0 7 -2v-1q0 -3 7 -3q5 0 14.5 3.5t14.5 3.5q24 0 56 -21q29 -19 45 -41q18 -26 36 -121q16 -86 16 -129zM662 348q0 68 -26 112q-31 54 -94 54q-47 0 -59 -8q-5 -6 -11.5 -13.5t-12.5 -7.5q-4 0 -10.5 3t-10.5 3q-68 0 -164.5 -97.5t-96.5 -166.5 q0 -54 48 -102l91 -75v-12q28 0 77 7q62 9 76 10q-4 26 -30 101q-23 67 -23 96q0 15 18 15q35 0 68 -79q25 -58 33 -111q61 32 96 118q31 74 31 153zM205 73q-24 21 -67 67v-21q36 -38 67 -46z" />
<glyph unicode="R" horiz-adv-x="578" d="M552 496q0 -51 -59 -90q-40 -26 -118 -52q-88 -30 -120 -47q44 -52 131 -158q92 -114 92 -163q0 -32 -23 -32t-52 50q-15 25 -25 38q-3 3 -77 78q-22 22 -57 70.5t-54 69.5q-43 -85 -84 -187l-30 -75q-13 -16 -27 -16q-17 0 -29 27q-10 22 -10 42q0 25 83 207 q78 171 105 215q-8 9 -34 15v24q0 31 45 63t78 32q7 0 20 -3t20 -3q9 0 24 9t24 9q7 0 20.5 -9t19.5 -9q4 0 10.5 3t9.5 3q43 0 80 -34t37 -77zM472 514q-45 11 -89 11q-38 0 -104 -11q1 -7 1 -16q0 -57 -30 -96q56 0 126 32q78 35 96 80z" />
<glyph unicode="S" horiz-adv-x="584" d="M523 115v-5q-9 -1 -10 -9l6 -18q-11 -47 -87 -71q-54 -17 -120 -17q-75 0 -139 24q-84 32 -84 95q0 9 5.5 24t6.5 21q18 7 25 7q28 0 65 -24q41 -26 36 -52q13 -14 47 -16h53q37 0 59 11q18 9 46 38q-25 59 -153 119q-63 28 -187 85q-14 7 -31.5 50t-17.5 62q0 66 94 115 q83 43 165 43q12 0 23 -2h-4l5 -1q8 0 22 6.5t21 6.5q34 0 71 -27.5t37 -60.5q0 -10 -5.5 -28t-6.5 -26q-11 -3 -20 -3q-13 0 -21.5 29.5t-37.5 29.5q-60 0 -130 -21q-75 -22 -117 -56q19 -17 69 -46q12 -7 87 -44q43 -21 89 -58q85 -68 102 -89q10 -13 23.5 -45t13.5 -47z " />
<glyph unicode="T" horiz-adv-x="489" d="M524 534q0 -28 -20 -28q-18 0 -52.5 2.5t-52.5 2.5q-10 0 -87 -7q-30 -92 -73 -200q-15 -36 -55 -144q-33 -92 -59 -143q-10 -20 -16 -20q-20 0 -33 22q-10 19 -10 41q0 29 161 431l-9 2q-20 0 -84 -16q-67 -16 -80 -25q-5 -3 -21 -20.5t-23 -17.5q-12 0 -26 11.5 t-14 23.5q0 56 43 81q16 9 96 31q94 26 131 26q4 0 15.5 6.5t14.5 7.5q27 8 90 8h79q25 0 55 -25.5t30 -49.5z" />
<glyph unicode="U" horiz-adv-x="549" d="M548 529q-2 -5 -8 -29q-13 -61 -40 -184q-69 -305 -210 -305q-16 0 -48.5 -2.5t-48.5 -2.5q-69 0 -122 62t-53 132q0 67 47 191q43 114 86 180q47 -54 47 -74q0 -22 -47.5 -133t-47.5 -164q0 -55 35 -84t91 -29q53 0 96 23q53 28 97 184q38 134 38 217q0 15 -4.5 43.5 t-4.5 43.5q0 53 34 53q24 0 45 -51q18 -43 18 -71z" />
<glyph unicode="V" horiz-adv-x="430" d="M461 596q0 -14 -295 -559q-29 -53 -50 -53q-41 0 -92 248q-46 222 -46 309q0 6 7 25h19q47 0 66 -140l14 -140q9 -79 30 -136q40 72 145 258q23 38 80 138q9 22 28 67q22 49 42 49q16 0 34 -24.5t18 -41.5z" />
<glyph unicode="W" horiz-adv-x="783" d="M709 314q0 -84 -25 -143q-20 -47 -102.5 -97t-134.5 -50q-58 0 -105 30q-51 32 -64 85q-10 -2 -73.5 -73t-87.5 -71q-38 0 -56 49q-13 34 -13 81q0 72 30 213q28 131 56 211q11 31 31 31q17 0 38.5 -19t21.5 -36q0 -65 -48.5 -195.5t-48.5 -196.5q68 34 132 129 q17 26 94 164q22 -8 56 -29v-19q0 -37 -30 -104t-30 -104q0 -11 2 -22q28 -28 71 -28q8 0 23.5 1t23.5 1q14 0 69.5 35.5t66.5 49.5q25 32 25 100q0 49 -11 119q-14 90 -38 99q-2 1 -24 7q-19 28 -19 44q0 13 10 31.5t22 19.5l5 -3l-4 -5l5 -3l4 3l-3 5l5 3q50 0 91 -133 q35 -112 35 -180z" />
<glyph unicode="X" horiz-adv-x="614" d="M543 -2l-24 -51q-18 -1 -32 7q-40 46 -69 77q-22 23 -80.5 72t-81.5 71q-142 -160 -166 -160q-37 0 -37 46q0 33 59 100q45 50 89 86q-46 66 -79 155q-37 98 -37 169q0 56 26 86q28 -15 49 -106q11 -53 36 -158q21 -83 54 -86q51 32 240 252q44 -11 44 -63 q0 -37 -109 -146.5t-109 -117.5q0 -9 113.5 -110t113.5 -123z" />
<glyph unicode="Y" horiz-adv-x="551" d="M590 622q0 -7 -51 -88l-62 -100q-62 -123 -188 -411q-24 -54 -43 -54q-44 0 -44 41q0 39 32 101q35 67 40 99q-2 1 -4 1q-4 0 -10 -3q-127 0 -206 65q-86 70 -86 194q0 45 13 133l12 19h19q33 -29 33 -70q0 -14 -4 -42t-4 -42q0 -95 95 -136q44 -19 177 -39l113 212 q94 160 145 160q10 0 16.5 -14.5t6.5 -25.5z" />
<glyph unicode="Z" horiz-adv-x="604" d="M554 72l-1 -33l-9 7q-34 3 -70 3q-71 0 -129 -10q-27 -5 -89 -22q-57 -16 -90 -16q-25 0 -42.5 17.5t-17.5 42.5q0 45 74 143q36 45 108 136q26 34 64 112q44 91 58 116l-9 4q-58 0 -170 -49.5t-142 -49.5q-19 0 -32.5 19t-13.5 39q0 18 12 37l189 61q125 40 187 40 q32 0 53 -36q18 -30 18 -65q0 -39 -106 -222q-98 -169 -141 -220q169 13 224 13q77 0 75 -67z" />
<glyph unicode="[" horiz-adv-x="329" d="M306 590q0 -29 -59 -29q-11 0 -33.5 1.5t-33.5 1.5q-38 0 -106 -18q17 -168 40 -504q15 0 44 3.5t44 3.5q13 0 26.5 -18t13.5 -32q0 -23 -67 -36q-46 -9 -92 -11q-38 32 -38 108q0 13 1.5 40t1.5 40q0 167 -10 262q-2 23 -19 108q-13 67 -13 109q129 29 225 29 q27 0 51 -16t24 -42z" />
<glyph unicode="\" horiz-adv-x="467" d="M453 13q-58 2 -165 101q-79 73 -160 179q-106 137 -106 204q0 24 14 38q20 -9 46 -47q46 -67 141 -201q58 -80 118 -129q23 -18 46 -37q25 -22 40 -42q17 -23 26 -66z" />
<glyph unicode="]" horiz-adv-x="361" d="M350 532q0 -51 -25 -172.5t-25 -190.5q0 -37 5 -110.5t5 -110.5q0 -36 -54 -45q-18 -3 -82 -3q-123 0 -123 49q0 23 87 32q36 3 109 8l1 16q2 24 -5.5 70.5t-7.5 67.5q0 158 13 232q2 11 20 76q13 47 13 77q-15 9 -54 9q-26 0 -76.5 -5.5t-76.5 -5.5q-33 0 -40 74l19 16 q30 2 63 4t60 2q174 0 174 -90z" />
<glyph unicode="^" horiz-adv-x="498" d="M402 177q0 -35 -21 -35q-25 0 -50 86q-12 40 -14 85q1 -12 1 85q0 11 -1 54l-9 10q-8 -22 -58 -90q-26 -36 -77 -108q-64 -90 -72 -90q-11 0 -21.5 20t-10.5 32q0 36 115 183q8 11 151 184q14 -5 44 -12q0 -13 5.5 -38.5t5.5 -38.5q0 -29 -8 -86t-8 -86q0 -62 9 -93 l12 -30q7 -18 7 -32z" />
<glyph unicode="_" horiz-adv-x="613" d="M593 -31q0 -22 -36 -33q-25 -8 -54 -8q-39 0 -116.5 -5t-116.5 -5q-96 0 -151 -10q-7 -1 -30 -9q-19 -6 -31 -6q-35 0 -35 52q0 24 14 33q22 14 199 20l226 7q13 1 41 8.5t43 7.5q13 0 30 -19.5t17 -32.5z" />
<glyph unicode="`" horiz-adv-x="212" d="M227 700q0 -15 -30 -15q-27 0 -79.5 47.5t-52.5 73.5q0 7 -38 49t-39 48l2 4q18 0 69.5 -13t59.5 -22q2 -15 55 -85.5t53 -86.5z" />
<glyph unicode="a" horiz-adv-x="549" d="M524 65q-1 -32 -63 -51q-46 -14 -90 -14q-53 0 -77 46q-8 16 -16 17q-25 -16 -83 -38q-61 -24 -85 -24q-31 0 -51 26q-18 23 -18 55q0 95 92.5 195.5t186.5 100.5q34 0 65 -43q29 -39 29 -75q0 -9 -69 -163q16 -9 49 -9q16 0 47.5 10t47.5 10q17 0 35 -43zM355 278 q-32 19 -58 19q-40 0 -110 -84q-66 -79 -78 -124q18 -4 35 -4q84 0 157 110q18 27 54 83z" />
<glyph unicode="b" horiz-adv-x="461" d="M409 208q0 -85 -69 -146t-155 -61q-24 0 -40.5 15.5t-16.5 39.5q0 5 1 11q-14 -35 -23 -55q-19 -43 -31 -43q-10 0 -22 9.5t-12 19.5q0 48 88 300t120 302q38 -20 38 -43q0 -12 -38 -126q-35 -105 -48 -137v-15q23 1 67 22.5t69 21.5q31 0 53 -44q19 -37 19 -71zM351 187 q0 18 -8 35q-10 21 -26 21q-34 0 -91 -49q-50 -43 -70 -79q10 -2 26.5 -20t28.5 -18q37 0 88.5 37.5t51.5 72.5z" />
<glyph unicode="c" horiz-adv-x="359" d="M340 302q0 -12 -2 -24q-15 -9 -43 -29q-8 8 -8 19q0 10 6 34l-5 4q-40 0 -106 -67.5t-66 -107.5q0 -58 204 -57l1 -7q5 -36 -41 -57q-35 -16 -76 -16q-65 0 -105.5 39t-40.5 104t28 114q16 28 72 92q1 0 57 29q37 19 58 19q67 0 67 -89z" />
<glyph unicode="d" horiz-adv-x="664" d="M575 52q0 -19 -31 -33q-26 -12 -48 -12q-90 0 -127 136q-42 -47 -100 -97q-79 -67 -113 -67q-40 0 -66 36q-24 33 -24 74q0 69 66 160q70 97 136 97q51 0 75 -75q-10 -10 -20 -10q-5 0 -15 4t-15 4q-38 0 -100.5 -69.5t-62.5 -108.5v-25h21q82 40 122 78t86 118 q10 17 37 61l60 134q40 88 75 120q32 -10 32 -49q0 -15 -63.5 -147.5t-63.5 -196.5q0 -96 26 -96q42 0 106 5q7 -21 7 -41z" />
<glyph unicode="e" horiz-adv-x="479" d="M417 293q0 -66 -51 -106q-34 -26 -114 -52q-90 -29 -116 -44q29 -21 100 -21q17 0 49 11.5t49 11.5q10 0 23.5 -21.5t13.5 -32.5q0 -28 -53 -43q-39 -11 -76 -11q-79 0 -130 38q-57 42 -57 119q0 101 109 180q100 73 205 73q23 0 37 -41q11 -32 11 -61zM360 308h-25 q-42 0 -109 -53q-61 -49 -84 -92q62 27 125 53q69 37 93 92z" />
<glyph unicode="f" horiz-adv-x="489" d="M523 588q0 -77 -12 -97q-14 -24 -83 -49q-9 10 -20 13q1 1 37 35q23 21 23 43q0 66 -11 66q-87 0 -211 -215q-5 -9 -12 -12.5t-11 -9.5v-20q24 2 97 14q62 10 98 10q13 0 30 -22t17 -36l-1 -4q-5 -20 -50 -26q-20 -2 -61 -6q-85 -10 -164 -43q-3 -15 -11 -45 q-1 -8 -1 -92q0 -117 -34 -117q-18 0 -27 13q-30 93 -30 125l25 -12q10 10 10 61v28q0 6 -1 16v11q-29 -5 -107 -47q-43 -1 -43 46q0 40 40 59q20 9 77 21q37 7 47.5 16t20.5 42q5 17 12 37q30 94 106 187q87 107 173 107q33 0 56 -33q21 -29 21 -64z" />
<glyph unicode="g" horiz-adv-x="384" d="M361 319q0 -6 -3 -18.5t-3 -18.5q-15 -3 -27 -3t-23.5 10t-20.5 10q-17 0 -55.5 -18t-50.5 -31q100 -87 137 -157q42 -80 42 -204q0 -22 -15 -52q-21 -43 -23 -50q-78 -54 -121 -54q-157 0 -157 140q0 38 46 73q43 33 83 33q6 0 25 -7v-20q-16 -22 -90 -81l-7 -26 q49 -38 80 -38q50 0 88 39t38 90q0 42 -18 88.5t-46 74.5q-14 14 -58 43q-40 27 -51 43q-15 22 -15 65q0 66 62 103q52 31 123 31q15 0 37.5 -25t22.5 -40z" />
<glyph unicode="h" horiz-adv-x="546" d="M485 191q0 -37 -18 -109q-21 -86 -43 -86q-24 0 -24 43q0 29 14 86t14 86q0 24 -17 43.5t-41 19.5q-73 0 -151 -95q-33 -41 -104 -160l-8 -6q-32 3 -36 5q-17 5 -17 26q0 53 46 122q68 102 73 112l68 174q56 141 74 141q10 0 19 -18.5t9 -30.5q0 -33 -71 -208q16 1 52 10 q33 9 52 9q55 0 85 -58q24 -46 24 -106z" />
<glyph unicode="i" horiz-adv-x="199" d="M191 489q0 -43 -30 -43q-18 0 -42 21l-1 6q0 17 12.5 49.5t25.5 35.5q35 -23 35 -69zM116 293q0 -53 -26.5 -153t-53.5 -142h-20q-12 21 -12 57q0 65 29 153q17 49 52 149q31 -5 31 -64z" />
<glyph unicode="j" horiz-adv-x="322" d="M345 464q0 -37 -37 -37q-28 0 -44.5 23t-16.5 51q0 40 28 40q25 0 47.5 -25.5t22.5 -51.5zM235 244q0 -31 -80 -242.5t-98 -226.5q-21 -18 -35 -18q-12 0 -23.5 13t-11.5 25q0 54 94 256q18 39 35 94l29 96q2 16 8.5 49t26.5 33q21 0 39 -30q16 -26 16 -49z" />
<glyph unicode="k" horiz-adv-x="469" d="M502 349q0 -36 -114 -100q-16 -9 -152 -77q32 -22 96 -67q55 -42 55 -97q0 -15 -20 -26l-36 15l-1 33q-108 72 -194 88q-48 -67 -122 -153q-12 11 -25 33t-13 36q0 4 40 53t40 66q0 13 -16 50q6 1 33 3q18 1 31 11q37 27 104 187q81 192 97 218q44 -41 44 -66 q0 -16 -49.5 -140t-63.5 -146v-5l4 -8q13 7 118 75q98 63 104 63q9 0 24.5 -18t15.5 -28z" />
<glyph unicode="l" horiz-adv-x="247" d="M264 523q0 -32 -103 -272q-99 -231 -131 -283q-39 5 -39 52q0 21 103 270q90 217 127 297q43 -35 43 -64z" />
<glyph unicode="m" horiz-adv-x="671" d="M574 233q0 -51 -12 -125q-14 -89 -35 -116q-44 31 -44 70q0 28 9.5 83.5t9.5 83.5q0 10 -2 31l-5 7q-22 -2 -91 -119q-26 -44 -86 -149q-12 1 -28 32q-15 28 -15 43q0 25 13.5 106t21.5 101l-9 3q-26 0 -129 -196q-9 -18 -28.5 -55t-42.5 -37q-10 0 -21 7q-1 9 -7 29 t-6 32q0 16 57 156t72 162q27 -14 42 -40q74 38 83 38q23 0 68 -79q21 13 63 40q49 30 60 30q62 0 62 -138z" />
<glyph unicode="n" horiz-adv-x="524" d="M437 242q0 -40 -23 -126q-26 -97 -50 -107q-29 40 -29 88q0 28 16.5 81t16.5 81q0 21 -23 21q-81 0 -221 -281q-8 -5 -16 -5q-19 0 -32 31q-12 25 -12 47q0 13 25 89q23 71 33 93q-6 10 -6 23l1 10q29 26 37 34q21 20 32 39q14 -5 47 -40q81 46 118 46q28 0 58 -49 q28 -44 28 -75z" />
<glyph unicode="o" horiz-adv-x="439" d="M381 242q0 -78 -84.5 -158.5t-162.5 -80.5q-79 0 -79 235q0 24 34 67t57 45q27 12 57 24q41 17 53 17q51 0 90 -50q35 -46 35 -99zM323 252q0 48 -46 48q-28 0 -68 -21q-3 -6 -16.5 -15.5t-17.5 -14.5q-18 -26 -49 -158q71 0 131 44q66 49 66 117z" />
<glyph unicode="p" horiz-adv-x="607" d="M569 158q0 -146 -227 -146q-22 0 -68 23q-14 -24 -160 -316q-28 14 -28 40q0 4 2 8l-29 11l92 167q64 119 64 179q0 10 -2 19q12 -5 17 -5q6 0 16 46l12 57q35 144 144 144q70 0 121 -81q46 -73 46 -146zM517 187q0 42 -37.5 73.5t-79.5 31.5q-48 0 -77 -43q9 -30 9 -51 q0 -17 -13.5 -46t-13.5 -47q63 -7 60 -7q38 0 91 26q61 30 61 63z" />
<glyph unicode="q" horiz-adv-x="447" d="M420 -211q0 -61 -44 -102q-7 -2 -38 -33q-37 -37 -61 -55q-40 -29 -73 -29q-76 0 -100 16t-49 85q-6 16 -9 26q0 44 27 88q18 29 59 74q46 51 62 72q37 52 80 120q-12 -1 -40.5 -7t-43.5 -6q-106 0 -106 126q0 55 88 126q84 70 141 70q22 0 57 -26t35 -46v-54 q-15 -7 -20 -7t-26.5 26.5t-42.5 26.5q-37 0 -94 -48q-51 -44 -70 -83v-21q9 -12 27 -12q33 0 95 35q55 31 85 59q10 -4 28 -28.5t18 -34.5q0 -32 -27 -61q-34 -37 -40 -52q-10 -27 -34 -52q-4 -4 -46 -43v-14q9 3 18 3q39 0 91.5 -50t52.5 -89zM348 -220q0 49 -27 66 q-16 10 -54 13q-33 2 -40 15q-7 -28 -38 -58q-45 -44 -53 -55q-27 -36 -27 -79q0 -18 18 -30.5t37 -12.5q66 0 121 37q63 41 63 104z" />
<glyph unicode="r" horiz-adv-x="348" d="M373 344q0 -26 -31 -26q-6 0 -17.5 1.5t-17.5 1.5q-100 0 -179 -106q-73 -98 -75 -200q-14 -15 -27 -15q-6 0 -40 18q0 54 10 151q11 109 14 151q11 3 19 3q11 0 35 -31q68 56 97 74q58 36 114 36q23 0 58 -18q40 -20 40 -40z" />
<glyph unicode="s" horiz-adv-x="388" d="M352 96q0 -56 -63 -94q-55 -33 -115 -33q-37 0 -97 42v73q18 0 52.5 -14t52.5 -14q26 0 71 15q53 17 53 36q0 16 -62 55q-22 14 -78 21.5t-77 18.5q-36 19 -36 64q0 55 62 94q55 34 113 34q84 0 84 -71q0 -14 -10.5 -28.5t-24.5 -14.5q-4 0 -17.5 14.5t-25.5 14.5 q-42 0 -89 -32q25 -23 84.5 -50t83.5 -47q39 -33 39 -84z" />
<glyph unicode="t" horiz-adv-x="459" d="M426 658v-7q0 -26 -22 -59q-17 -25 -35 -54q-28 -76 -82 -202q-1 -14 20 -14q7 0 22 3t22 3q59 0 63 -75q-14 -4 -88 -15q-59 -9 -81 -22q-17 -10 -30 -54q-20 -66 -20 -80q0 -12 11.5 -34.5t11.5 -34.5q0 -9 -16 -20.5t-25 -11.5q-40 0 -40 118q0 64 11 86q-9 5 -20 5 q-13 0 -39 -7.5t-39 -7.5q-20 0 -40 9v56q71 39 135 51q24 2 30 3q18 3 26 11q24 24 63 127q54 146 67 173q40 87 75 87q20 0 20 -34z" />
<glyph unicode="u" horiz-adv-x="412" d="M380 324q-1 -11 -14 -38q-9 -18 -19 -40q-27 -78 -80 -146q-68 -87 -131 -87q-42 0 -77 29.5t-35 71.5q0 196 14 243q3 9 18 20t18 16h26q14 -16 15 -42q-1 19 -1 -45q0 -26 2 -77t2 -77q0 -27 -4 -42q5 -4 14 -4h27q37 0 106 121q13 22 81 160q20 -12 38 -63z" />
<glyph unicode="v" horiz-adv-x="343" d="M338 375q0 -30 -54 -108q-28 -40 -63 -130.5t-62 -130.5q-13 -19 -26 -19q-41 0 -78 146q-31 121 -31 186q0 37 20 54q32 -27 44 -76q4 -16 12 -92q6 -56 24 -86q115 211 195 305v-8q0 -8 5 -15q6 10 14 11v-37z" />
<glyph unicode="w" horiz-adv-x="657" d="M591 375q0 -159 -14 -224q-13 -60 -72 -107t-120 -47h-34q-83 0 -111 122q-9 -9 -72 -73q-48 -49 -80 -49q-29 0 -29 56t34 162q18 54 54 163h20q31 -30 31 -81q0 -32 -13 -81q-17 -64 -20 -79q33 28 72 84q51 73 65 89q33 -25 33 -70q0 -26 -11 -65q-15 -53 -17 -65 q29 -26 75 -26q78 0 119 83q33 66 33 152q0 13 -7.5 37.5t-7.5 35.5q0 27 28 55q26 -24 31 -31q13 -18 13 -41z" />
<glyph unicode="x" horiz-adv-x="420" d="M406 388q0 -9 -97 -117l-117 -129q41 -32 121 -97v-21h-48q-8 0 -28.5 16.5t-29.5 17.5l-5 -3l4 -5l-5 -3q-8 1 -27 17.5t-28 16.5l-41.5 -46t-62.5 -46q-16 0 -25.5 16t-9.5 33q0 25 87 99q-58 91 -58 221q0 44 18 44q27 0 41 -87q16 -102 37 -124q209 254 234 254 q15 0 27.5 -20.5t12.5 -36.5z" />
<glyph unicode="y" horiz-adv-x="406" d="M386 336q0 -10 -52 -98.5t-52 -98.5q0 -5 11.5 -9t11.5 -11q0 -8 -14 -20q-7 -5 -20 -16q-32 -29 -55 -97q-13 -37 -30 -119q-16 -78 -30 -118q-11 -30 -38 -30q-28 0 -28 69q0 28 21 119q21 88 33 119q-68 26 -91.5 63.5t-23.5 111.5q0 44 11 92q16 69 44 69 q10 0 23.5 -25.5t13.5 -37.5q0 -22 -14 -64t-14 -64q0 -61 86 -61q54 99 83 149q69 120 89 120q15 0 25 -13.5t10 -29.5z" />
<glyph unicode="z" horiz-adv-x="485" d="M423 331q0 -21 -120 -117q-75 -60 -150 -119q13 -2 28 -2q22 0 66.5 6t66.5 6h74l-7 -27l-6 5q-11 -1 -37 -22q-30 -25 -39 -29.5t-99.5 -24.5t-104.5 -20q-24 0 -37.5 18t-13.5 43q0 36 56 82q36 27 106 81q58 45 61 72q-89 -43 -120 -43q-57 0 -57 88q17 22 137 43 q104 18 153 18q12 0 27.5 -22.5t15.5 -35.5z" />
<glyph unicode="{" horiz-adv-x="320" d="M326 544q0 5 -7 -22q-11 -4 -19 -4q-4 0 -16.5 13t-38.5 13q-33 0 -81 -27q-53 -30 -53 -60q0 -17 39 -36q62 -31 73 -39q39 -28 39 -65q0 -16 -28 -36q-21 -12 -42 -25q2 -7 15.5 -31.5t13.5 -34.5q0 -26 -69.5 -76.5t-69.5 -72.5q0 -25 55 -39q38 -10 76 -10 q22 0 57 35q34 -17 34 -60q0 -45 -131 -45q-56 0 -105.5 46t-49.5 102q0 33 48 74l74 60q-15 0 -45 11q-8 5 -36 65q52 23 122 58q-122 59 -122 145q0 56 67 99q60 38 119 38q23 0 52 -27t29 -49z" />
<glyph unicode="|" horiz-adv-x="201" d="M164 -113q0 -8 -2 -21q-4 -16 -4 -21q-12 -7 -17 -7q-27 0 -38 60q-38 202 -38 463v304q10 14 23 14q19 0 34.5 -20.5t15.5 -40.5q0 -75 -3 -224t-3 -224q0 -66 5 -110q2 -21 16 -86q11 -52 11 -87z" />
<glyph unicode="}" horiz-adv-x="354" d="M314 10q0 -49 -52 -82q-46 -30 -97 -30q-40 0 -49 12q-21 27 -25 29v38q4 1 65 1q27 0 59 18q36 20 36 45q0 12 -42 51q-53 49 -78 85q-43 62 -46 134q32 23 95 71q57 46 66 93q-12 6 -44 16t-43 10q-14 0 -38.5 -11.5t-38.5 -11.5q-10 0 -21 29q-9 23 -11 39 q32 30 87 30q61 0 113 -33q59 -38 59 -96q0 -29 -40.5 -80.5t-69.5 -64.5q36 -20 40 -23q24 -17 24 -36q0 -15 -31 -30l-44 -20q27 -27 80 -83q46 -49 46 -100z" />
<glyph unicode="~" horiz-adv-x="572" d="M595 294q0 -35 -75 -75q-68 -36 -108 -36h-48q-13 0 -70.5 28.5t-69.5 28.5q-54 0 -110 -55q-19 -19 -22 -19q-12 0 -26 18t-14 30q0 28 71 68q67 38 98 38q7 0 64.5 -31.5t100.5 -31.5q52 0 101 25t77 67q31 -43 31 -55z" />
<glyph unicode="&#xa1;" horiz-adv-x="358" d="M384 538q0 -5 -3.5 -15.5t-3.5 -15.5q-4 0 -12 -3.5t-13 -3.5q-12 0 -36 28t-24 41q0 40 36 40q26 0 41 -22t15 -49zM315 385q0 -48 -130.5 -248t-163.5 -200q-10 0 -25 22t-15 33q0 15 90 130l111 142l46 78q28 46 60 66h19q8 -7 8 -23z" />
<glyph unicode="&#xa2;" horiz-adv-x="588" d="M558 109q0 -56 -124 -90q-91 -25 -171 -25q-67 0 -127 40q-9 -18 -28.5 -51.5t-41.5 -33.5q-13 0 -26.5 23t-13.5 38q0 18 20 41q27 31 30 37q-50 64 -50 141q0 99 72 193q61 79 158 139l66 45q37 24 75 22l84 143q15 -9 15 -32q0 -90 -33 -148q31 -32 32 -60l-65 10 l-263 -454q23 -15 48 -18q8 -1 52 -1q139 0 184 30q18 12 25 43q6 25 24 25q13 0 35.5 -22t22.5 -35zM332 520q-80 -42 -153 -138q-80 -105 -80 -187q0 -23 13 -47z" />
<glyph unicode="&#xa6;" horiz-adv-x="909" d="M913 591q0 -12 -24 -101t-31 -106q-14 -33 -34 -33q-39 0 -39 68q0 54 23 128q34 110 37 125q68 -30 68 -81zM853 194q0 -39 -48 -39q-18 0 -36.5 31t-18.5 50q0 6 6 20t7 20h36q19 0 36.5 -30.5t17.5 -51.5zM740 313q0 -47 -52 -83q-47 -34 -96 -34q-67 0 -90 63 q-10 -9 -39 -80q-27 -65 -36 -65h-17q-11 0 -24.5 25.5t-13.5 38.5q0 28 40.5 118.5t40.5 132.5q0 14 -6 22q-37 -20 -56 -34q-6 -19 -37 -182q-24 -125 -53 -163q-44 -57 -156 -57q-57 0 -101 18q-61 25 -61 72q0 17 14 24q8 -1 17 -1t26.5 1.5t26.5 1.5q13 0 39 -11.5 t39 -11.5q55 0 83 28q25 25 37 81l20 92l-4 32q-67 -70 -75 -70q-19 0 -35 28q-14 24 -14 45q0 23 67 70q76 53 87 69q2 1 91 47q71 37 81 37q7 0 20 -11.5t20 -11.5q19 0 54 14.5t54 14.5q25 0 60.5 -26t35.5 -49q0 -42 -117 -182h9q48 0 69 30h43q9 -16 9 -33zM604 461v18 h-29q-45 -22 -45 -69q0 -11 9 -21q18 12 65 72z" />
<glyph unicode="&#xa8;" horiz-adv-x="332" d="M356 791q0 -18 -21.5 -44t-39.5 -26h-41q-7 0 -7 15q0 22 25.5 50t46.5 28q37 0 37 -23zM120 782q0 -15 -18 -33.5t-33 -18.5h-42q0 3 -3 9.5t-3 10.5q0 24 22.5 42t47.5 18q29 0 29 -28z" />
<glyph unicode="&#xa9;" horiz-adv-x="708" d="M652 309q0 -136 -113 -235q-108 -95 -246 -95q-107 0 -177.5 79t-70.5 187q0 131 103.5 233t234.5 102q99 0 184 -86t85 -185zM594 335q0 69 -68 121q-63 49 -134 49q-108 0 -196 -86.5t-88 -193.5q0 -29 41 -51t41 -29q-22 -20 -53 -29q42 -70 138 -70q116 0 216 85 q103 89 103 204zM403 339q-11 -10 -39 -19t-39 -17q-20 -16 -26 -48l10 -1q7 0 21 4t21 4q34 0 34 -39q0 -24 -16.5 -38.5t-40.5 -14.5q-41 0 -67 34t-26 76q0 47 34.5 86.5t80.5 39.5q55 0 53 -67z" />
<glyph unicode="&#xad;" d="M398 232q-26 -8 -73 -15q-79 -11 -157 -36q-60 -19 -77 -19q-19 0 -29 23q-8 18 -8 40q0 8 1 14q27 19 118 38q82 17 127 17q90 0 98 -62z" />
<glyph unicode="&#xae;" horiz-adv-x="892" d="M837 277q0 -21 -19.5 -92t-29.5 -85q-35 -46 -160 -89q-115 -39 -185 -39q-189 0 -304 65q-34 19 -67.5 81t-33.5 102q0 64 28.5 139t71.5 122q18 19 62 45l69 39q89 54 109 62q49 19 124 19q35 0 83 -8q55 -9 78 -24q14 -9 45 -50l4 3l-3 6l4 3q20 -2 64 -83 q39 -72 46 -103q14 -64 14 -113zM797 300q0 110 -67 191q-72 85 -180 85q-113 0 -221 -66q-116 -69 -151 -171l-7 -6q-1 -20 11 -36l-9 -9q-17 14 -34 64q-43 -66 -43 -138q0 -90 122 -135q88 -32 199 -32q23 0 68 3t68 3q10 0 37 14.5t37 14.5q5 0 7 -3t8 -3q7 0 39 32 q10 10 36.5 24.5t38 28.5t26.5 65t15 74zM538 378q0 -50 -45 -83q-27 -19 -81 -56q7 -8 59 -23q44 -12 44 -31q0 -12 -24.5 -23t-38.5 -11q-31 0 -67 18q-40 19 -51 45l-27 -42q-21 -33 -30 -33q-16 0 -28 22q-10 18 -10 36q0 10 73 134q-15 19 -15 38q0 39 54 64 q45 21 89 21q41 0 67 -17q31 -20 31 -59zM481 379h-32q-33 0 -43 -8q-6 -5 -7.5 -24t-9.5 -35q20 9 48 32q35 29 44 35z" />
<glyph unicode="&#xb4;" horiz-adv-x="211" d="M207 854q0 -27 19 -56q0 -5 -51 -42q-14 -1 -85.5 -54.5t-87.5 -53.5q-14 0 -14 30q0 28 47 80t74 52q8 0 39 23.5t36 23.5z" />
<glyph unicode="&#xb8;" horiz-adv-x="213" d="M159 -123q0 -42 -42 -65q-34 -18 -79 -18v30q56 1 78 46q0 76 -81 76v81h51v-59q73 -26 73 -91z" />
<glyph unicode="&#xbf;" horiz-adv-x="390" d="M229 488q0 -10 -3.5 -28.5t-3.5 -28.5q-4 0 -13.5 -3.5t-14.5 -3.5q-17 0 -40 29t-23 47q0 21 16.5 36t37.5 15q44 0 44 -63zM356 29v-7q-41 -34 -106 -65q-72 -34 -117 -34q-52 0 -86 43q-32 39 -32 92q0 57 45 99q30 28 98 60q76 36 100 53q-18 18 -36 35 q-10 12 -10 53q0 7 14 7q100 0 100 -112q0 -8 -1 -35q-26 -19 -99 -48t-102 -49q-51 -34 -51 -77q0 -29 55 -29q83 0 196 98q32 -1 32 -84z" />
<glyph unicode="&#xc0;" horiz-adv-x="622" d="M81 0zM553 240q0 -6 -9 -20l-13 -20q-12 -31 -9 -132l2 -63q-14 -3 -26 -3q-41 0 -41 48q0 17 6 51t6 51q0 29 -21 29q-24 0 -119 -26.5t-106 -37.5q-6 -6 -49 -76q-35 -57 -56 -57q-12 0 -24.5 16.5t-12.5 28.5q0 10 33 59l42 63q115 183 279 505q93 -37 93 -235 q0 -22 -2 -65t-2 -65q0 -8 14.5 -25.5t14.5 -25.5zM467 267v177q0 16 -6 45.5t-7 41.5q-24 -49 -87 -151q-60 -96 -83 -153q61 11 183 40zM403 700q0 -15 -30 -15q-27 0 -79.5 47.5t-52.5 73.5q0 7 -38 49t-39 48l2 4q18 0 69.5 -13t59.5 -22q2 -15 55 -85.5t53 -86.5z" />
<glyph unicode="&#xc1;" horiz-adv-x="622" d="M81 0zM553 240q0 -6 -9 -20l-13 -20q-12 -31 -9 -132l2 -63q-14 -3 -26 -3q-41 0 -41 48q0 17 6 51t6 51q0 29 -21 29q-24 0 -119 -26.5t-106 -37.5q-6 -6 -49 -76q-35 -57 -56 -57q-12 0 -24.5 16.5t-12.5 28.5q0 10 33 59l42 63q115 183 279 505q93 -37 93 -235 q0 -22 -2 -65t-2 -65q0 -8 14.5 -25.5t14.5 -25.5zM467 267v177q0 16 -6 45.5t-7 41.5q-24 -49 -87 -151q-60 -96 -83 -153q61 11 183 40zM451 854q0 -27 19 -56q0 -5 -51 -42q-14 -1 -85.5 -54.5t-87.5 -53.5q-14 0 -14 30q0 28 47 80t74 52q8 0 39 23.5t36 23.5z" />
<glyph unicode="&#xc2;" horiz-adv-x="622" d="M81 0zM553 240q0 -6 -9 -20l-13 -20q-12 -31 -9 -132l2 -63q-14 -3 -26 -3q-41 0 -41 48q0 17 6 51t6 51q0 29 -21 29q-24 0 -119 -26.5t-106 -37.5q-6 -6 -49 -76q-35 -57 -56 -57q-12 0 -24.5 16.5t-12.5 28.5q0 10 33 59l42 63q115 183 279 505q93 -37 93 -235 q0 -22 -2 -65t-2 -65q0 -8 14.5 -25.5t14.5 -25.5zM467 267v177q0 16 -6 45.5t-7 41.5q-24 -49 -87 -151q-60 -96 -83 -153q61 11 183 40zM355 676q0 -18 -11 -18q-29 0 -34 135l-1 29l-4 5q-6 -13 -31 -47q-39 -52 -79 -105q-6 0 -11.5 10t-5.5 17q0 23 141 195q8 -3 23 -6 q0 -7 3 -21t3 -21q0 -15 -4 -45t-4 -45t7.5 -43.5t7.5 -39.5z" />
<glyph unicode="&#xc3;" horiz-adv-x="585" d="M44 0zM516 240q0 -6 -9 -20l-13 -20q-12 -31 -9 -132l2 -63q-14 -3 -26 -3q-41 0 -41 48q0 17 6 51t6 51q0 29 -21 29q-24 0 -119 -26.5t-106 -37.5q-6 -6 -49 -76q-35 -57 -56 -57q-12 0 -24.5 16.5t-12.5 28.5q0 10 33 59l42 63q115 183 279 505q93 -37 93 -235 q0 -22 -2 -65t-2 -65q0 -8 14.5 -25.5t14.5 -25.5zM430 267v177q0 16 -6 45.5t-7 41.5q-24 -49 -87 -151q-60 -96 -83 -153q61 11 183 40zM477 814q0 -26 -50 -52q-45 -24 -74 -24h-33q-9 0 -47.5 19.5t-47.5 19.5q-22 0 -58.5 -25.5t-31.5 -25.5q-8 0 -17.5 12.5t-9.5 20.5 q0 19 48 46q45 26 67 26q4 0 43 -21.5t69 -21.5q80 0 121 62q21 -28 21 -36z" />
<glyph unicode="&#xc4;" horiz-adv-x="622" d="M81 0zM553 240q0 -6 -9 -20l-13 -20q-12 -31 -9 -132l2 -63q-14 -3 -26 -3q-41 0 -41 48q0 17 6 51t6 51q0 29 -21 29q-24 0 -119 -26.5t-106 -37.5q-6 -6 -49 -76q-35 -57 -56 -57q-12 0 -24.5 16.5t-12.5 28.5q0 10 33 59l42 63q115 183 279 505q93 -37 93 -235 q0 -22 -2 -65t-2 -65q0 -8 14.5 -25.5t14.5 -25.5zM467 267v177q0 16 -6 45.5t-7 41.5q-24 -49 -87 -151q-60 -96 -83 -153q61 11 183 40zM463 791q0 -18 -21.5 -44t-39.5 -26h-41q-7 0 -7 15q0 22 25.5 50t46.5 28q37 0 37 -23zM227 782q0 -15 -18 -33.5t-33 -18.5h-42 q0 3 -3 9.5t-3 10.5q0 24 22.5 42t47.5 18q29 0 29 -28z" />
<glyph unicode="&#xc5;" horiz-adv-x="622" d="M81 0zM553 240q0 -6 -9 -20l-13 -20q-12 -31 -9 -132l2 -63q-14 -3 -26 -3q-41 0 -41 48q0 17 6 51t6 51q0 29 -21 29q-24 0 -119 -26.5t-106 -37.5q-6 -6 -49 -76q-35 -57 -56 -57q-12 0 -24.5 16.5t-12.5 28.5q0 10 33 59l42 63q115 183 279 505q93 -37 93 -235 q0 -22 -2 -65t-2 -65q0 -8 14.5 -25.5t14.5 -25.5zM467 267v177q0 16 -6 45.5t-7 41.5q-24 -49 -87 -151q-60 -96 -83 -153q61 11 183 40zM426 646q0 -75 -81 -75q-86 0 -86 67q0 79 86 79q34 0 57.5 -19t23.5 -52zM392 642q0 15 -4 32q-6 4 -12 11l-63 1q-23 -9 -23 -49 q0 -26 24 -38h55q7 5 19 13q4 14 4 30z" />
<glyph unicode="&#xc6;" horiz-adv-x="1001" d="M0 0zM382 240q0 -6 -9 -20l-13 -20q-12 -31 -9 -132l2 -63q-14 -3 -26 -3q-41 0 -41 48q0 17 6 51t6 51q0 29 -21 29q-24 0 -119 -26.5t-106 -37.5q-6 -6 -49 -76q-35 -57 -56 -57q-12 0 -24.5 16.5t-12.5 28.5q0 10 33 59l42 63q115 183 279 505q93 -37 93 -235 q0 -22 -2 -65t-2 -65q0 -8 14.5 -25.5t14.5 -25.5zM296 267v177q0 16 -6 45.5t-7 41.5q-24 -49 -87 -151q-60 -96 -83 -153q61 11 183 40zM1072 596q0 -12 -11 -22t-23 -10q-5 0 -7 3t-7 3q-10 0 -33 -9q-26 -10 -35 -12q-41 -9 -170 -30q-103 -16 -167 -37q-36 -11 -64 -72 q-34 -71 -54 -87q9 -3 18 -3q14 0 39.5 8.5t39.5 8.5q128 0 191 52q43 -35 43 -49q0 -32 -94 -59q-24 -7 -185 -41q-111 -24 -133 -41q-13 -10 -28 -52q-20 -53 -23 -59q74 -15 78 -15q34 0 102.5 8.5t102.5 8.5q5 0 59 28l16 -25q-1 -6 2 -36q-67 -65 -259 -65 q-175 0 -175 107q0 39 30 116q0 5 -3 16t-3 17q0 4 1 7q3 15 51 31q26 16 99 140q-10 36 -10 55q0 20 22 37q19 12 39 24q26 22 38 62h26q26 -28 42 -28q14 0 89 18q49 13 149 37q81 19 150 19q14 0 35.5 -20t21.5 -34z" />
<glyph unicode="&#xc7;" horiz-adv-x="575" d="M11 0zM542 109q0 -56 -123 -90q-91 -25 -171 -25q-95 0 -166 70t-71 165q0 100 72 193q60 78 158 139q21 15 65 44q37 24 73 24q31 0 65.5 -34t34.5 -64q0 -34 -20.5 -61t-53.5 -27q-27 0 -51 21q4 16 23 39q23 28 28 36l-5 4q-99 0 -207.5 -123.5t-108.5 -224.5 q0 -44 39 -84.5t83 -41.5l46 -1q135 -3 183 30q18 12 26 44q6 24 24 24q13 0 35 -22t22 -35zM335 -123q0 -42 -42 -65q-34 -18 -79 -18v30q56 1 78 46q0 76 -81 76v81h51v-59q73 -26 73 -91z" />
<glyph unicode="&#xc8;" horiz-adv-x="643" d="M0 0zM688 596q0 -12 -11 -22t-23 -10q-5 0 -7 3t-7 3q-10 0 -33 -9q-26 -10 -35 -12q-41 -9 -170 -30q-103 -16 -167 -37q-36 -11 -64 -72q-34 -71 -54 -87q9 -3 18 -3q14 0 39.5 8.5t39.5 8.5q128 0 191 52q43 -35 43 -49q0 -32 -94 -59q-24 -7 -185 -41 q-111 -24 -133 -41q-13 -10 -28 -52q-20 -53 -23 -59q74 -15 78 -15q34 0 102.5 8.5t102.5 8.5q5 0 59 28l16 -25q-1 -6 2 -36q-67 -65 -259 -65q-175 0 -175 107q0 39 30 116q0 5 -3 16t-3 17q0 4 1 7q3 15 51 31q26 16 99 140q-10 36 -10 55q0 20 22 37q19 12 39 24 q26 22 38 62h26q26 -28 42 -28q14 0 89 18q49 13 149 37q81 19 150 19q14 0 35.5 -20t21.5 -34zM335 700q0 -15 -30 -15q-27 0 -79.5 47.5t-52.5 73.5q0 7 -38 49t-39 48l2 4q18 0 69.5 -13t59.5 -22q2 -15 55 -85.5t53 -86.5z" />
<glyph unicode="&#xc9;" horiz-adv-x="643" d="M0 0zM688 596q0 -12 -11 -22t-23 -10q-5 0 -7 3t-7 3q-10 0 -33 -9q-26 -10 -35 -12q-41 -9 -170 -30q-103 -16 -167 -37q-36 -11 -64 -72q-34 -71 -54 -87q9 -3 18 -3q14 0 39.5 8.5t39.5 8.5q128 0 191 52q43 -35 43 -49q0 -32 -94 -59q-24 -7 -185 -41 q-111 -24 -133 -41q-13 -10 -28 -52q-20 -53 -23 -59q74 -15 78 -15q34 0 102.5 8.5t102.5 8.5q5 0 59 28l16 -25q-1 -6 2 -36q-67 -65 -259 -65q-175 0 -175 107q0 39 30 116q0 5 -3 16t-3 17q0 4 1 7q3 15 51 31q26 16 99 140q-10 36 -10 55q0 20 22 37q19 12 39 24 q26 22 38 62h26q26 -28 42 -28q14 0 89 18q49 13 149 37q81 19 150 19q14 0 35.5 -20t21.5 -34zM383 854q0 -27 19 -56q0 -5 -51 -42q-14 -1 -85.5 -54.5t-87.5 -53.5q-14 0 -14 30q0 28 47 80t74 52q8 0 39 23.5t36 23.5z" />
<glyph unicode="&#xca;" horiz-adv-x="643" d="M0 0zM688 596q0 -12 -11 -22t-23 -10q-5 0 -7 3t-7 3q-10 0 -33 -9q-26 -10 -35 -12q-41 -9 -170 -30q-103 -16 -167 -37q-36 -11 -64 -72q-34 -71 -54 -87q9 -3 18 -3q14 0 39.5 8.5t39.5 8.5q128 0 191 52q43 -35 43 -49q0 -32 -94 -59q-24 -7 -185 -41 q-111 -24 -133 -41q-13 -10 -28 -52q-20 -53 -23 -59q74 -15 78 -15q34 0 102.5 8.5t102.5 8.5q5 0 59 28l16 -25q-1 -6 2 -36q-67 -65 -259 -65q-175 0 -175 107q0 39 30 116q0 5 -3 16t-3 17q0 4 1 7q3 15 51 31q26 16 99 140q-10 36 -10 55q0 20 22 37q19 12 39 24 q26 22 38 62h26q26 -28 42 -28q14 0 89 18q49 13 149 37q81 19 150 19q14 0 35.5 -20t21.5 -34zM287 676q0 -18 -11 -18q-29 0 -34 135l-1 29l-4 5q-6 -13 -31 -47q-39 -52 -79 -105q-6 0 -11.5 10t-5.5 17q0 23 141 195q8 -3 23 -6q0 -7 3 -21t3 -21q0 -15 -4 -45t-4 -45 t7.5 -43.5t7.5 -39.5z" />
<glyph unicode="&#xcb;" horiz-adv-x="643" d="M0 0zM688 596q0 -12 -11 -22t-23 -10q-5 0 -7 3t-7 3q-10 0 -33 -9q-26 -10 -35 -12q-41 -9 -170 -30q-103 -16 -167 -37q-36 -11 -64 -72q-34 -71 -54 -87q9 -3 18 -3q14 0 39.5 8.5t39.5 8.5q128 0 191 52q43 -35 43 -49q0 -32 -94 -59q-24 -7 -185 -41 q-111 -24 -133 -41q-13 -10 -28 -52q-20 -53 -23 -59q74 -15 78 -15q34 0 102.5 8.5t102.5 8.5q5 0 59 28l16 -25q-1 -6 2 -36q-67 -65 -259 -65q-175 0 -175 107q0 39 30 116q0 5 -3 16t-3 17q0 4 1 7q3 15 51 31q26 16 99 140q-10 36 -10 55q0 20 22 37q19 12 39 24 q26 22 38 62h26q26 -28 42 -28q14 0 89 18q49 13 149 37q81 19 150 19q14 0 35.5 -20t21.5 -34zM395 791q0 -18 -21.5 -44t-39.5 -26h-41q-7 0 -7 15q0 22 25.5 50t46.5 28q37 0 37 -23zM159 782q0 -15 -18 -33.5t-33 -18.5h-42q0 3 -3 9.5t-3 10.5q0 24 22.5 42t47.5 18 q29 0 29 -28z" />
<glyph unicode="&#xcc;" horiz-adv-x="569" d="M0 0zM610 601q0 -45 -218 -76q0 -7 1 -19.5t1 -19.5q0 -28 -80 -175.5t-81 -188.5l9 -9q22 7 89 7q6 0 102 -14q0 -37 -78 -58q-56 -15 -108 -15q-4 0 -11.5 3t-11.5 3q-10 0 -40 -16t-40 -16q-13 0 -40 1.5t-40 1.5q-26 0 -75.5 -14.5t-75.5 -14.5q-18 0 -46 42v25 q7 13 20 13q31 0 120 15q93 16 113 27q16 9 23 29l12 36q37 88 158 330l-5 4q-26 0 -91.5 -33t-96.5 -33q-42 0 -42 57q0 16 49.5 43.5t68.5 27.5q4 0 7 -2.5t7 -2.5t38.5 15.5t55.5 15.5q8 0 17 -2l16 14q39 5 96 15q7 1 67 22q49 17 61 17t30.5 -21.5t18.5 -33.5zM372 700 q0 -15 -30 -15q-27 0 -79.5 47.5t-52.5 73.5q0 7 -38 49t-39 48l2 4q18 0 69.5 -13t59.5 -22q2 -15 55 -85.5t53 -86.5z" />
<glyph unicode="&#xcd;" horiz-adv-x="561" d="M0 0zM601 601q0 -45 -218 -76q0 -7 1 -19.5t1 -19.5q0 -28 -80 -175.5t-81 -188.5l9 -9q22 7 89 7q6 0 102 -14q0 -37 -78 -58q-56 -15 -108 -15q-4 0 -11.5 3t-11.5 3q-10 0 -40 -16t-40 -16q-13 0 -40 1.5t-40 1.5q-26 0 -75.5 -14.5t-75.5 -14.5q-18 0 -46 42v25 q7 13 20 13q31 0 120 15q93 16 113 27q16 9 23 29l12 36q37 88 158 330l-5 4q-26 0 -91.5 -33t-96.5 -33q-42 0 -42 57q0 16 49.5 43.5t68.5 27.5q4 0 7 -2.5t7 -2.5t38.5 15.5t55.5 15.5q8 0 17 -2l16 14q39 5 96 15q7 1 67 22q49 17 61 17t30.5 -21.5t18.5 -33.5zM421 854 q0 -27 19 -56q0 -5 -51 -42q-14 -1 -85.5 -54.5t-87.5 -53.5q-14 0 -14 30q0 28 47 80t74 52q8 0 39 23.5t36 23.5z" />
<glyph unicode="&#xce;" horiz-adv-x="577" d="M0 0zM619 601q0 -45 -218 -76q0 -7 1 -19.5t1 -19.5q0 -28 -80 -175.5t-81 -188.5l9 -9q22 7 89 7q6 0 102 -14q0 -37 -78 -58q-56 -15 -108 -15q-4 0 -11.5 3t-11.5 3q-10 0 -40 -16t-40 -16q-13 0 -40 1.5t-40 1.5q-26 0 -75.5 -14.5t-75.5 -14.5q-18 0 -46 42v25 q7 13 20 13q31 0 120 15q93 16 113 27q16 9 23 29l12 36q37 88 158 330l-5 4q-26 0 -91.5 -33t-96.5 -33q-42 0 -42 57q0 16 49.5 43.5t68.5 27.5q4 0 7 -2.5t7 -2.5t38.5 15.5t55.5 15.5q8 0 17 -2l16 14q39 5 96 15q7 1 67 22q49 17 61 17t30.5 -21.5t18.5 -33.5zM373 676 q0 -18 -11 -18q-29 0 -34 135l-1 29l-4 5q-6 -13 -31 -47q-39 -52 -79 -105q-6 0 -11.5 10t-5.5 17q0 23 141 195q8 -3 23 -6q0 -7 3 -21t3 -21q0 -15 -4 -45t-4 -45t7.5 -43.5t7.5 -39.5z" />
<glyph unicode="&#xcf;" horiz-adv-x="579" d="M0 0zM621 601q0 -45 -218 -76q0 -7 1 -19.5t1 -19.5q0 -28 -80 -175.5t-81 -188.5l9 -9q22 7 89 7q6 0 102 -14q0 -37 -78 -58q-56 -15 -108 -15q-4 0 -11.5 3t-11.5 3q-10 0 -40 -16t-40 -16q-13 0 -40 1.5t-40 1.5q-26 0 -75.5 -14.5t-75.5 -14.5q-18 0 -46 42v25 q7 13 20 13q31 0 120 15q93 16 113 27q16 9 23 29l12 36q37 88 158 330l-5 4q-26 0 -91.5 -33t-96.5 -33q-42 0 -42 57q0 16 49.5 43.5t68.5 27.5q4 0 7 -2.5t7 -2.5t38.5 15.5t55.5 15.5q8 0 17 -2l16 14q39 5 96 15q7 1 67 22q49 17 61 17t30.5 -21.5t18.5 -33.5zM453 791 q0 -18 -21.5 -44t-39.5 -26h-41q-7 0 -7 15q0 22 25.5 50t46.5 28q37 0 37 -23zM217 782q0 -15 -18 -33.5t-33 -18.5h-42q0 3 -3 9.5t-3 10.5q0 24 22.5 42t47.5 18q29 0 29 -28z" />
<glyph unicode="&#xd1;" horiz-adv-x="607" d="M0 0zM650 722q-79 -133 -170 -358q-96 -237 -121 -375q-11 -13 -29 -13q-40 0 -98 179q-36 110 -62 225q-29 -90 -79 -209q-71 -169 -97 -169q-19 0 -42 23q-1 70 52 186q78 171 82 184q11 36 34 108q29 87 48 87q42 0 61 -109q6 -48 20 -144q16 -107 63 -202 q116 317 272 614h60zM476 814q0 -26 -50 -52q-45 -24 -74 -24h-33q-9 0 -47.5 19.5t-47.5 19.5q-22 0 -58.5 -25.5t-31.5 -25.5q-8 0 -17.5 12.5t-9.5 20.5q0 19 48 46q45 26 67 26q4 0 43 -21.5t69 -21.5q80 0 121 62q21 -28 21 -36z" />
<glyph unicode="&#xd2;" horiz-adv-x="639" d="M11 0zM597 359q0 -112 -91 -206q-77 -80 -194 -125q-15 -6 -91 -40q-2 -2 -2 -7q0 -7 3 -19h-16q-11 -1 -15 -1q-25 0 -79 44q-51 41 -65 67q-36 67 -36 124q0 37 16 97q12 12 25 38q16 32 21 40q96 144 263 216q5 2 21 16q13 11 23 11q3 0 6.5 -2.5t7.5 -2.5q9 0 24 8.5 t24 8.5q7 0 9 -12q6 7 4 17q27 -8 81 -25q20 -22 35 -40q26 -31 26 -40v-167zM540 457q0 29 -12 58q-15 36 -40 36q-47 0 -187 -76q-56 -31 -101 -90q-20 -26 -74 -115q-24 -39 -24 -51q0 -143 55 -143q34 0 157 40l5 -1q3 2 2 3q28 11 85 53.5t74 66.5q60 84 60 219z M349 700q0 -15 -30 -15q-27 0 -79.5 47.5t-52.5 73.5q0 7 -38 49t-39 48l2 4q18 0 69.5 -13t59.5 -22q2 -15 55 -85.5t53 -86.5z" />
<glyph unicode="&#xd3;" horiz-adv-x="639" d="M11 0zM597 359q0 -112 -91 -206q-77 -80 -194 -125q-15 -6 -91 -40q-2 -2 -2 -7q0 -7 3 -19h-16q-11 -1 -15 -1q-25 0 -79 44q-51 41 -65 67q-36 67 -36 124q0 37 16 97q12 12 25 38q16 32 21 40q96 144 263 216q5 2 21 16q13 11 23 11q3 0 6.5 -2.5t7.5 -2.5q9 0 24 8.5 t24 8.5q7 0 9 -12q6 7 4 17q27 -8 81 -25q20 -22 35 -40q26 -31 26 -40v-167zM540 457q0 29 -12 58q-15 36 -40 36q-47 0 -187 -76q-56 -31 -101 -90q-20 -26 -74 -115q-24 -39 -24 -51q0 -143 55 -143q34 0 157 40l5 -1q3 2 2 3q28 11 85 53.5t74 66.5q60 84 60 219z M397 854q0 -27 19 -56q0 -5 -51 -42q-14 -1 -85.5 -54.5t-87.5 -53.5q-14 0 -14 30q0 28 47 80t74 52q8 0 39 23.5t36 23.5z" />
<glyph unicode="&#xd4;" horiz-adv-x="639" d="M11 0zM597 359q0 -112 -91 -206q-77 -80 -194 -125q-15 -6 -91 -40q-2 -2 -2 -7q0 -7 3 -19h-16q-11 -1 -15 -1q-25 0 -79 44q-51 41 -65 67q-36 67 -36 124q0 37 16 97q12 12 25 38q16 32 21 40q96 144 263 216q5 2 21 16q13 11 23 11q3 0 6.5 -2.5t7.5 -2.5q9 0 24 8.5 t24 8.5q7 0 9 -12q6 7 4 17q27 -8 81 -25q20 -22 35 -40q26 -31 26 -40v-167zM540 457q0 29 -12 58q-15 36 -40 36q-47 0 -187 -76q-56 -31 -101 -90q-20 -26 -74 -115q-24 -39 -24 -51q0 -143 55 -143q34 0 157 40l5 -1q3 2 2 3q28 11 85 53.5t74 66.5q60 84 60 219z M301 676q0 -18 -11 -18q-29 0 -34 135l-1 29l-4 5q-6 -13 -31 -47q-39 -52 -79 -105q-6 0 -11.5 10t-5.5 17q0 23 141 195q8 -3 23 -6q0 -7 3 -21t3 -21q0 -15 -4 -45t-4 -45t7.5 -43.5t7.5 -39.5z" />
<glyph unicode="&#xd5;" horiz-adv-x="639" d="M11 0zM597 359q0 -112 -91 -206q-77 -80 -194 -125q-15 -6 -91 -40q-2 -2 -2 -7q0 -7 3 -19h-16q-11 -1 -15 -1q-25 0 -79 44q-51 41 -65 67q-36 67 -36 124q0 37 16 97q12 12 25 38q16 32 21 40q96 144 263 216q5 2 21 16q13 11 23 11q3 0 6.5 -2.5t7.5 -2.5q9 0 24 8.5 t24 8.5q7 0 9 -12q6 7 4 17q27 -8 81 -25q20 -22 35 -40q26 -31 26 -40v-167zM540 457q0 29 -12 58q-15 36 -40 36q-47 0 -187 -76q-56 -31 -101 -90q-20 -26 -74 -115q-24 -39 -24 -51q0 -143 55 -143q34 0 157 40l5 -1q3 2 2 3q28 11 85 53.5t74 66.5q60 84 60 219z M460 814q0 -26 -50 -52q-45 -24 -74 -24h-33q-9 0 -47.5 19.5t-47.5 19.5q-22 0 -58.5 -25.5t-31.5 -25.5q-8 0 -17.5 12.5t-9.5 20.5q0 19 48 46q45 26 67 26q4 0 43 -21.5t69 -21.5q80 0 121 62q21 -28 21 -36z" />
<glyph unicode="&#xd6;" horiz-adv-x="638" d="M10 0zM596 359q0 -112 -91 -206q-77 -80 -194 -125q-15 -6 -91 -40q-2 -2 -2 -7q0 -7 3 -19h-16q-11 -1 -15 -1q-25 0 -79 44q-51 41 -65 67q-36 67 -36 124q0 37 16 97q12 12 25 38q16 32 21 40q96 144 263 216q5 2 21 16q13 11 23 11q3 0 6.5 -2.5t7.5 -2.5q9 0 24 8.5 t24 8.5q7 0 9 -12q6 7 4 17q27 -8 81 -25q20 -22 35 -40q26 -31 26 -40v-167zM539 457q0 29 -12 58q-15 36 -40 36q-47 0 -187 -76q-56 -31 -101 -90q-20 -26 -74 -115q-24 -39 -24 -51q0 -143 55 -143q34 0 157 40l5 -1q3 2 2 3q28 11 85 53.5t74 66.5q60 84 60 219z M408 791q0 -18 -21.5 -44t-39.5 -26h-41q-7 0 -7 15q0 22 25.5 50t46.5 28q37 0 37 -23zM172 782q0 -15 -18 -33.5t-33 -18.5h-42q0 3 -3 9.5t-3 10.5q0 24 22.5 42t47.5 18q29 0 29 -28z" />
<glyph unicode="&#xd9;" horiz-adv-x="570" d="M24 6zM554 529q-2 -5 -8 -29q-13 -61 -40 -184q-69 -305 -210 -305q-16 0 -48.5 -2.5t-48.5 -2.5q-69 0 -122 62t-53 132q0 67 47 191q43 114 86 180q47 -54 47 -74q0 -22 -47.5 -133t-47.5 -164q0 -55 35 -84t91 -29q53 0 96 23q53 28 97 184q38 134 38 217 q0 15 -4.5 43.5t-4.5 43.5q0 53 34 53q24 0 45 -51q18 -43 18 -71zM384 700q0 -15 -30 -15q-27 0 -79.5 47.5t-52.5 73.5q0 7 -38 49t-39 48l2 4q18 0 69.5 -13t59.5 -22q2 -15 55 -85.5t53 -86.5z" />
<glyph unicode="&#xda;" horiz-adv-x="571" d="M24 6zM554 529q-2 -5 -8 -29q-13 -61 -40 -184q-69 -305 -210 -305q-16 0 -48.5 -2.5t-48.5 -2.5q-69 0 -122 62t-53 132q0 67 47 191q43 114 86 180q47 -54 47 -74q0 -22 -47.5 -133t-47.5 -164q0 -55 35 -84t91 -29q53 0 96 23q53 28 97 184q38 134 38 217 q0 15 -4.5 43.5t-4.5 43.5q0 53 34 53q24 0 45 -51q18 -43 18 -71zM432 854q0 -27 19 -56q0 -5 -51 -42q-14 -1 -85.5 -54.5t-87.5 -53.5q-14 0 -14 30q0 28 47 80t74 52q8 0 39 23.5t36 23.5z" />
<glyph unicode="&#xdb;" horiz-adv-x="572" d="M25 6zM555 529q-2 -5 -8 -29q-13 -61 -40 -184q-69 -305 -210 -305q-16 0 -48.5 -2.5t-48.5 -2.5q-69 0 -122 62t-53 132q0 67 47 191q43 114 86 180q47 -54 47 -74q0 -22 -47.5 -133t-47.5 -164q0 -55 35 -84t91 -29q53 0 96 23q53 28 97 184q38 134 38 217 q0 15 -4.5 43.5t-4.5 43.5q0 53 34 53q24 0 45 -51q18 -43 18 -71zM337 676q0 -18 -11 -18q-29 0 -34 135l-1 29l-4 5q-6 -13 -31 -47q-39 -52 -79 -105q-6 0 -11.5 10t-5.5 17q0 23 141 195q8 -3 23 -6q0 -7 3 -21t3 -21q0 -15 -4 -45t-4 -45t7.5 -43.5t7.5 -39.5z" />
<glyph unicode="&#xdc;" horiz-adv-x="534" d="M24 6zM554 529q-2 -5 -8 -29q-13 -61 -40 -184q-69 -305 -210 -305q-16 0 -48.5 -2.5t-48.5 -2.5q-69 0 -122 62t-53 132q0 67 47 191q43 114 86 180q47 -54 47 -74q0 -22 -47.5 -133t-47.5 -164q0 -55 35 -84t91 -29q53 0 96 23q53 28 97 184q38 134 38 217 q0 15 -4.5 43.5t-4.5 43.5q0 53 34 53q24 0 45 -51q18 -43 18 -71zM444 791q0 -18 -21.5 -44t-39.5 -26h-41q-7 0 -7 15q0 22 25.5 50t46.5 28q37 0 37 -23zM208 782q0 -15 -18 -33.5t-33 -18.5h-42q0 3 -3 9.5t-3 10.5q0 24 22.5 42t47.5 18q29 0 29 -28z" />
<glyph unicode="&#xdd;" horiz-adv-x="559" d="M0 0zM598 622q0 -7 -51 -88l-62 -100q-62 -123 -188 -411q-24 -54 -43 -54q-44 0 -44 41q0 39 32 101q35 67 40 99q-2 1 -4 1q-4 0 -10 -3q-127 0 -206 65q-86 70 -86 194q0 45 13 133l12 19h19q33 -29 33 -70q0 -14 -4 -42t-4 -42q0 -95 95 -136q44 -19 177 -39l113 212 q94 160 145 160q10 0 16.5 -14.5t6.5 -25.5zM433 854q0 -27 19 -56q0 -5 -51 -42q-14 -1 -85.5 -54.5t-87.5 -53.5q-14 0 -14 30q0 28 47 80t74 52q8 0 39 23.5t36 23.5z" />
<glyph unicode="&#xe0;" horiz-adv-x="546" d="M38 0zM521 65q-1 -32 -63 -51q-46 -14 -90 -14q-53 0 -77 46q-8 16 -16 17q-25 -16 -83 -38q-61 -24 -85 -24q-31 0 -51 26q-18 23 -18 55q0 95 92.5 195.5t186.5 100.5q34 0 65 -43q29 -39 29 -75q0 -9 -69 -163q16 -9 49 -9q16 0 47.5 10t47.5 10q17 0 35 -43zM352 278 q-32 19 -58 19q-40 0 -110 -84q-66 -79 -78 -124q18 -4 35 -4q84 0 157 110q18 27 54 83zM369 456q0 -15 -30 -15q-27 0 -79.5 47.5t-52.5 73.5q0 7 -38 49t-39 48l2 4q18 0 69.5 -13t59.5 -22q2 -15 55 -85.5t53 -86.5z" />
<glyph unicode="&#xe1;" horiz-adv-x="547" d="M33 0zM516 65q-1 -32 -63 -51q-46 -14 -90 -14q-53 0 -77 46q-8 16 -16 17q-25 -16 -83 -38q-61 -24 -85 -24q-31 0 -51 26q-18 23 -18 55q0 95 92.5 195.5t186.5 100.5q34 0 65 -43q29 -39 29 -75q0 -9 -69 -163q16 -9 49 -9q16 0 47.5 10t47.5 10q17 0 35 -43zM347 278 q-32 19 -58 19q-40 0 -110 -84q-66 -79 -78 -124q18 -4 35 -4q84 0 157 110q18 27 54 83zM412 610q0 -27 19 -56q0 -5 -51 -42q-14 -1 -85.5 -54.5t-87.5 -53.5q-14 0 -14 30q0 28 47 80t74 52q8 0 39 23.5t36 23.5z" />
<glyph unicode="&#xe2;" horiz-adv-x="552" d="M42 0zM525 65q-1 -32 -63 -51q-46 -14 -90 -14q-53 0 -77 46q-8 16 -16 17q-25 -16 -83 -38q-61 -24 -85 -24q-31 0 -51 26q-18 23 -18 55q0 95 92.5 195.5t186.5 100.5q34 0 65 -43q29 -39 29 -75q0 -9 -69 -163q16 -9 49 -9q16 0 47.5 10t47.5 10q17 0 35 -43zM356 278 q-32 19 -58 19q-40 0 -110 -84q-66 -79 -78 -124q18 -4 35 -4q84 0 157 110q18 27 54 83zM325 432q0 -18 -11 -18q-29 0 -34 135l-1 29l-4 5q-6 -13 -31 -47q-39 -52 -79 -105q-6 0 -11.5 10t-5.5 17q0 23 141 195q8 -3 23 -6q0 -7 3 -21t3 -21q0 -15 -4 -45t-4 -45 t7.5 -43.5t7.5 -39.5z" />
<glyph unicode="&#xe3;" horiz-adv-x="539" d="M30 0zM513 65q-1 -32 -63 -51q-46 -14 -90 -14q-53 0 -77 46q-8 16 -16 17q-25 -16 -83 -38q-61 -24 -85 -24q-31 0 -51 26q-18 23 -18 55q0 95 92.5 195.5t186.5 100.5q34 0 65 -43q29 -39 29 -75q0 -9 -69 -163q16 -9 49 -9q16 0 47.5 10t47.5 10q17 0 35 -43zM344 278 q-32 19 -58 19q-40 0 -110 -84q-66 -79 -78 -124q18 -4 35 -4q84 0 157 110q18 27 54 83zM472 570q0 -26 -50 -52q-45 -24 -74 -24h-33q-9 0 -47.5 19.5t-47.5 19.5q-22 0 -58.5 -25.5t-31.5 -25.5q-8 0 -17.5 12.5t-9.5 20.5q0 19 48 46q45 26 67 26q4 0 43 -21.5t69 -21.5 q80 0 121 62q21 -28 21 -36z" />
<glyph unicode="&#xe4;" horiz-adv-x="527" d="M40 0zM523 65q-1 -32 -63 -51q-46 -14 -90 -14q-53 0 -77 46q-8 16 -16 17q-25 -16 -83 -38q-61 -24 -85 -24q-31 0 -51 26q-18 23 -18 55q0 95 92.5 195.5t186.5 100.5q34 0 65 -43q29 -39 29 -75q0 -9 -69 -163q16 -9 49 -9q16 0 47.5 10t47.5 10q17 0 35 -43zM354 278 q-32 19 -58 19q-40 0 -110 -84q-66 -79 -78 -124q18 -4 35 -4q84 0 157 110q18 27 54 83zM431 547q0 -18 -21.5 -44t-39.5 -26h-41q-7 0 -7 15q0 22 25.5 50t46.5 28q37 0 37 -23zM195 538q0 -15 -18 -33.5t-33 -18.5h-42q0 3 -3 9.5t-3 10.5q0 24 22.5 42t47.5 18 q29 0 29 -28z" />
<glyph unicode="&#xe5;" horiz-adv-x="552" d="M44 0zM527 65q-1 -32 -63 -51q-46 -14 -90 -14q-53 0 -77 46q-8 16 -16 17q-25 -16 -83 -38q-61 -24 -85 -24q-31 0 -51 26q-18 23 -18 55q0 95 92.5 195.5t186.5 100.5q34 0 65 -43q29 -39 29 -75q0 -9 -69 -163q16 -9 49 -9q16 0 47.5 10t47.5 10q17 0 35 -43zM358 278 q-32 19 -58 19q-40 0 -110 -84q-66 -79 -78 -124q18 -4 35 -4q84 0 157 110q18 27 54 83zM398 402q0 -75 -81 -75q-86 0 -86 67q0 79 86 79q34 0 57.5 -19t23.5 -52zM364 398q0 15 -4 32q-6 4 -12 11l-63 1q-23 -9 -23 -49q0 -26 24 -38h55q7 5 19 13q4 14 4 30z" />
<glyph unicode="&#xe6;" horiz-adv-x="896" d="M87 0zM570 65q-1 -32 -63 -51q-46 -14 -90 -14q-53 0 -77 46q-8 16 -16 17q-25 -16 -83 -38q-61 -24 -85 -24q-31 0 -51 26q-18 23 -18 55q0 95 92.5 195.5t186.5 100.5q34 0 65 -43q29 -39 29 -75q0 -9 -69 -163q16 -9 49 -9q16 0 47.5 10t47.5 10q17 0 35 -43zM401 278 q-32 19 -58 19q-40 0 -110 -84q-66 -79 -78 -124q18 -4 35 -4q84 0 157 110q18 27 54 83zM836 293q0 -66 -51 -106q-34 -26 -114 -52q-90 -29 -116 -44q29 -21 100 -21q17 0 49 11.5t49 11.5q10 0 23.5 -21.5t13.5 -32.5q0 -28 -53 -43q-39 -11 -76 -11q-79 0 -130 38 q-57 42 -57 119q0 101 109 180q100 73 205 73q23 0 37 -41q11 -32 11 -61zM779 308h-25q-42 0 -109 -53q-61 -49 -84 -92q62 27 125 53q69 37 93 92z" />
<glyph unicode="&#xe7;" horiz-adv-x="434" d="M72 0zM354 302q0 -12 -2 -24q-15 -9 -43 -29q-8 8 -8 19q0 10 6 34l-5 4q-40 0 -106 -67.5t-66 -107.5q0 -58 204 -57l1 -7q5 -36 -41 -57q-35 -16 -76 -16q-65 0 -105.5 39t-40.5 104t28 114q16 28 72 92q1 0 57 29q37 19 58 19q67 0 67 -89zM355 -123q0 -42 -42 -65 q-34 -18 -79 -18v30q56 1 78 46q0 76 -81 76v81h51v-59q73 -26 73 -91z" />
<glyph unicode="&#xe8;" horiz-adv-x="513" d="M91 0zM453 293q0 -66 -51 -106q-34 -26 -114 -52q-90 -29 -116 -44q29 -21 100 -21q17 0 49 11.5t49 11.5q10 0 23.5 -21.5t13.5 -32.5q0 -28 -53 -43q-39 -11 -76 -11q-79 0 -130 38q-57 42 -57 119q0 101 109 180q100 73 205 73q23 0 37 -41q11 -32 11 -61zM396 308 h-25q-42 0 -109 -53q-61 -49 -84 -92q62 27 125 53q69 37 93 92zM413 456q0 -15 -30 -15q-27 0 -79.5 47.5t-52.5 73.5q0 7 -38 49t-39 48l2 4q18 0 69.5 -13t59.5 -22q2 -15 55 -85.5t53 -86.5z" />
<glyph unicode="&#xe9;" horiz-adv-x="489" d="M69 0zM431 293q0 -66 -51 -106q-34 -26 -114 -52q-90 -29 -116 -44q29 -21 100 -21q17 0 49 11.5t49 11.5q10 0 23.5 -21.5t13.5 -32.5q0 -28 -53 -43q-39 -11 -76 -11q-79 0 -130 38q-57 42 -57 119q0 101 109 180q100 73 205 73q23 0 37 -41q11 -32 11 -61zM374 308 h-25q-42 0 -109 -53q-61 -49 -84 -92q62 27 125 53q69 37 93 92zM439 610q0 -27 19 -56q0 -5 -51 -42q-14 -1 -85.5 -54.5t-87.5 -53.5q-14 0 -14 30q0 28 47 80t74 52q8 0 39 23.5t36 23.5z" />
<glyph unicode="&#xea;" horiz-adv-x="493" d="M73 0zM435 293q0 -66 -51 -106q-34 -26 -114 -52q-90 -29 -116 -44q29 -21 100 -21q17 0 49 11.5t49 11.5q10 0 23.5 -21.5t13.5 -32.5q0 -28 -53 -43q-39 -11 -76 -11q-79 0 -130 38q-57 42 -57 119q0 101 109 180q100 73 205 73q23 0 37 -41q11 -32 11 -61zM378 308 h-25q-42 0 -109 -53q-61 -49 -84 -92q62 27 125 53q69 37 93 92zM347 432q0 -18 -11 -18q-29 0 -34 135l-1 29l-4 5q-6 -13 -31 -47q-39 -52 -79 -105q-6 0 -11.5 10t-5.5 17q0 23 141 195q8 -3 23 -6q0 -7 3 -21t3 -21q0 -15 -4 -45t-4 -45t7.5 -43.5t7.5 -39.5z" />
<glyph unicode="&#xeb;" horiz-adv-x="459" d="M42 0zM404 293q0 -66 -51 -106q-34 -26 -114 -52q-90 -29 -116 -44q29 -21 100 -21q17 0 49 11.5t49 11.5q10 0 23.5 -21.5t13.5 -32.5q0 -28 -53 -43q-39 -11 -76 -11q-79 0 -130 38q-57 42 -57 119q0 101 109 180q100 73 205 73q23 0 37 -41q11 -32 11 -61zM347 308 h-25q-42 0 -109 -53q-61 -49 -84 -92q62 27 125 53q69 37 93 92zM424 547q0 -18 -21.5 -44t-39.5 -26h-41q-7 0 -7 15q0 22 25.5 50t46.5 28q37 0 37 -23zM188 538q0 -15 -18 -33.5t-33 -18.5h-42q0 3 -3 9.5t-3 10.5q0 24 22.5 42t47.5 18q29 0 29 -28z" />
<glyph unicode="&#xec;" horiz-adv-x="376" d="M55 0zM317 293q0 -53 -26 -153t-53 -142h-20q-13 21 -13 57q0 67 29 153q18 49 53 149q30 -5 30 -64zM294 456q0 -15 -30 -15q-27 0 -79.5 47.5t-52.5 73.5q0 7 -38 49t-39 48l2 4q18 0 69.5 -13t59.5 -22q2 -15 55 -85.5t53 -86.5z" />
<glyph unicode="&#xed;" horiz-adv-x="288" d="M20 0zM214 293q0 -53 -26 -153t-53 -142h-20q-13 21 -13 57q0 67 29 153q18 49 53 149q30 -5 30 -64zM239 610q0 -27 19 -56q0 -5 -51 -42q-14 -1 -85.5 -54.5t-87.5 -53.5q-14 0 -14 30q0 28 47 80t74 52q8 0 39 23.5t36 23.5z" />
<glyph unicode="&#xee;" horiz-adv-x="252" d="M0 0zM204 293q0 -53 -26 -153t-53 -142h-20q-13 21 -13 57q0 67 29 153q18 49 53 149q30 -5 30 -64zM133 432q0 -18 -11 -18q-29 0 -34 135l-1 29l-4 5q-6 -13 -31 -47q-39 -52 -79 -105q-6 0 -11.5 10t-5.5 17q0 23 141 195q8 -3 23 -6q0 -7 3 -21t3 -21q0 -15 -4 -45 t-4 -45t7.5 -43.5t7.5 -39.5z" />
<glyph unicode="&#xef;" horiz-adv-x="328" d="M0 0zM258 293q0 -53 -26 -153t-53 -142h-20q-13 21 -13 57q0 67 29 153q18 49 53 149q30 -5 30 -64zM295 547q0 -18 -21.5 -44t-39.5 -26h-41q-7 0 -7 15q0 22 25.5 50t46.5 28q37 0 37 -23zM59 538q0 -15 -18 -33.5t-33 -18.5h-42q0 3 -3 9.5t-3 10.5q0 24 22.5 42 t47.5 18q29 0 29 -28z" />
<glyph unicode="&#xf1;" horiz-adv-x="460" d="M22 0zM395 242q0 -40 -23 -126q-26 -97 -50 -107q-29 40 -29 88q0 28 16.5 81t16.5 81q0 21 -23 21q-81 0 -221 -281q-8 -5 -16 -5q-19 0 -32 31q-12 25 -12 47q0 13 25 89q23 71 33 93q-6 10 -6 23l1 10q29 26 37 34q21 20 32 39q14 -5 47 -40q81 46 118 46q28 0 58 -49 q28 -44 28 -75zM457 570q0 -26 -50 -52q-45 -24 -74 -24h-33q-9 0 -47.5 19.5t-47.5 19.5q-22 0 -58.5 -25.5t-31.5 -25.5q-8 0 -17.5 12.5t-9.5 20.5q0 19 48 46q45 26 67 26q4 0 43 -21.5t69 -21.5q80 0 121 62q21 -28 21 -36z" />
<glyph unicode="&#xf2;" horiz-adv-x="482" d="M107 3zM433 242q0 -78 -84.5 -158.5t-162.5 -80.5q-79 0 -79 235q0 24 34 67t57 45q27 12 57 24q41 17 53 17q51 0 90 -50q35 -46 35 -99zM375 252q0 48 -46 48q-28 0 -68 -21q-3 -6 -16.5 -15.5t-17.5 -14.5q-18 -26 -49 -158q71 0 131 44q66 49 66 117zM430 456 q0 -15 -30 -15q-27 0 -79.5 47.5t-52.5 73.5q0 7 -38 49t-39 48l2 4q18 0 69.5 -13t59.5 -22q2 -15 55 -85.5t53 -86.5z" />
<glyph unicode="&#xf3;" horiz-adv-x="458" d="M59 3zM385 242q0 -78 -84.5 -158.5t-162.5 -80.5q-79 0 -79 235q0 24 34 67t57 45q27 12 57 24q41 17 53 17q51 0 90 -50q35 -46 35 -99zM327 252q0 48 -46 48q-28 0 -68 -21q-3 -6 -16.5 -15.5t-17.5 -14.5q-18 -26 -49 -158q71 0 131 44q66 49 66 117zM430 610 q0 -27 19 -56q0 -5 -51 -42q-14 -1 -85.5 -54.5t-87.5 -53.5q-14 0 -14 30q0 28 47 80t74 52q8 0 39 23.5t36 23.5z" />
<glyph unicode="&#xf4;" horiz-adv-x="451" d="M64 3zM390 242q0 -78 -84.5 -158.5t-162.5 -80.5q-79 0 -79 235q0 24 34 67t57 45q27 12 57 24q41 17 53 17q51 0 90 -50q35 -46 35 -99zM332 252q0 48 -46 48q-28 0 -68 -21q-3 -6 -16.5 -15.5t-17.5 -14.5q-18 -26 -49 -158q71 0 131 44q66 49 66 117zM339 432 q0 -18 -11 -18q-29 0 -34 135l-1 29l-4 5q-6 -13 -31 -47q-39 -52 -79 -105q-6 0 -11.5 10t-5.5 17q0 23 141 195q8 -3 23 -6q0 -7 3 -21t3 -21q0 -15 -4 -45t-4 -45t7.5 -43.5t7.5 -39.5z" />
<glyph unicode="&#xf5;" horiz-adv-x="415" d="M10 3zM336 242q0 -78 -84.5 -158.5t-162.5 -80.5q-79 0 -79 235q0 24 34 67t57 45q27 12 57 24q41 17 53 17q51 0 90 -50q35 -46 35 -99zM278 252q0 48 -46 48q-28 0 -68 -21q-3 -6 -16.5 -15.5t-17.5 -14.5q-18 -26 -49 -158q71 0 131 44q66 49 66 117zM444 570 q0 -26 -50 -52q-45 -24 -74 -24h-33q-9 0 -47.5 19.5t-47.5 19.5q-22 0 -58.5 -25.5t-31.5 -25.5q-8 0 -17.5 12.5t-9.5 20.5q0 19 48 46q45 26 67 26q4 0 43 -21.5t69 -21.5q80 0 121 62q21 -28 21 -36z" />
<glyph unicode="&#xf6;" horiz-adv-x="422" d="M30 3zM356 242q0 -78 -84.5 -158.5t-162.5 -80.5q-79 0 -79 235q0 24 34 67t57 45q27 12 57 24q41 17 53 17q51 0 90 -50q35 -46 35 -99zM298 252q0 48 -46 48q-28 0 -68 -21q-3 -6 -16.5 -15.5t-17.5 -14.5q-18 -26 -49 -158q71 0 131 44q66 49 66 117zM413 547 q0 -18 -21.5 -44t-39.5 -26h-41q-7 0 -7 15q0 22 25.5 50t46.5 28q37 0 37 -23zM177 538q0 -15 -18 -33.5t-33 -18.5h-42q0 3 -3 9.5t-3 10.5q0 24 22.5 42t47.5 18q29 0 29 -28z" />
<glyph unicode="&#xf9;" horiz-adv-x="464" d="M85 13zM441 324q-1 -11 -14 -38q-9 -18 -19 -40q-27 -78 -80 -146q-68 -87 -131 -87q-42 0 -77 29.5t-35 71.5q0 196 14 243q3 9 18 20t18 16h26q14 -16 15 -42q-1 19 -1 -45q0 -26 2 -77t2 -77q0 -27 -4 -42q5 -4 14 -4h27q37 0 106 121q13 22 81 160q20 -12 38 -63z M428 456q0 -15 -30 -15q-27 0 -79.5 47.5t-52.5 73.5q0 7 -38 49t-39 48l2 4q18 0 69.5 -13t59.5 -22q2 -15 55 -85.5t53 -86.5z" />
<glyph unicode="&#xfa;" d="M45 13zM401 324q-1 -11 -14 -38q-9 -18 -19 -40q-27 -78 -80 -146q-68 -87 -131 -87q-42 0 -77 29.5t-35 71.5q0 196 14 243q3 9 18 20t18 16h26q14 -16 15 -42q-1 19 -1 -45q0 -26 2 -77t2 -77q0 -27 -4 -42q5 -4 14 -4h27q37 0 106 121q13 22 81 160q20 -12 38 -63z M436 610q0 -27 19 -56q0 -5 -51 -42q-14 -1 -85.5 -54.5t-87.5 -53.5q-14 0 -14 30q0 28 47 80t74 52q8 0 39 23.5t36 23.5z" />
<glyph unicode="&#xfb;" horiz-adv-x="449" d="M51 13zM407 324q-1 -11 -14 -38q-9 -18 -19 -40q-27 -78 -80 -146q-68 -87 -131 -87q-42 0 -77 29.5t-35 71.5q0 196 14 243q3 9 18 20t18 16h26q14 -16 15 -42q-1 19 -1 -45q0 -26 2 -77t2 -77q0 -27 -4 -42q5 -4 14 -4h27q37 0 106 121q13 22 81 160q20 -12 38 -63z M346 432q0 -18 -11 -18q-29 0 -34 135l-1 29l-4 5q-6 -13 -31 -47q-39 -52 -79 -105q-6 0 -11.5 10t-5.5 17q0 23 141 195q8 -3 23 -6q0 -7 3 -21t3 -21q0 -15 -4 -45t-4 -45t7.5 -43.5t7.5 -39.5z" />
<glyph unicode="&#xfc;" horiz-adv-x="427" d="M29 13zM385 324q-1 -11 -14 -38q-9 -18 -19 -40q-27 -78 -80 -146q-68 -87 -131 -87q-42 0 -77 29.5t-35 71.5q0 196 14 243q3 9 18 20t18 16h26q14 -16 15 -42q-1 19 -1 -45q0 -26 2 -77t2 -77q0 -27 -4 -42q5 -4 14 -4h27q37 0 106 121q13 22 81 160q20 -12 38 -63z M432 547q0 -18 -21.5 -44t-39.5 -26h-41q-7 0 -7 15q0 22 25.5 50t46.5 28q37 0 37 -23zM196 538q0 -15 -18 -33.5t-33 -18.5h-42q0 3 -3 9.5t-3 10.5q0 24 22.5 42t47.5 18q29 0 29 -28z" />
<glyph unicode="&#xfd;" horiz-adv-x="430" d="M25 0zM382 336q0 -10 -52 -98.5t-52 -98.5q0 -5 11.5 -9t11.5 -11q0 -8 -14 -20q-7 -5 -20 -16q-32 -29 -55 -97q-13 -37 -30 -119q-16 -78 -30 -118q-11 -30 -38 -30q-28 0 -28 69q0 28 21 119q21 88 33 119q-68 26 -91.5 63.5t-23.5 111.5q0 44 11 92q16 69 44 69 q10 0 23.5 -25.5t13.5 -37.5q0 -22 -14 -64t-14 -64q0 -61 86 -61q54 99 83 149q69 120 89 120q15 0 25 -13.5t10 -29.5zM442 610q0 -27 19 -56q0 -5 -51 -42q-14 -1 -85.5 -54.5t-87.5 -53.5q-14 0 -14 30q0 28 47 80t74 52q8 0 39 23.5t36 23.5z" />
<glyph unicode="&#xff;" horiz-adv-x="414" d="M15 0zM372 336q0 -10 -52 -98.5t-52 -98.5q0 -5 11.5 -9t11.5 -11q0 -8 -14 -20q-7 -5 -20 -16q-32 -29 -55 -97q-13 -37 -30 -119q-16 -78 -30 -118q-11 -30 -38 -30q-28 0 -28 69q0 28 21 119q21 88 33 119q-68 26 -91.5 63.5t-23.5 111.5q0 44 11 92q16 69 44 69 q10 0 23.5 -25.5t13.5 -37.5q0 -22 -14 -64t-14 -64q0 -61 86 -61q54 99 83 149q69 120 89 120q15 0 25 -13.5t10 -29.5zM444 547q0 -18 -21.5 -44t-39.5 -26h-41q-7 0 -7 15q0 22 25.5 50t46.5 28q37 0 37 -23zM208 538q0 -15 -18 -33.5t-33 -18.5h-42q0 3 -3 9.5t-3 10.5 q0 24 22.5 42t47.5 18q29 0 29 -28z" />
<glyph unicode="&#x131;" horiz-adv-x="239" d="M172 293q0 -53 -26 -153t-53 -142h-20q-13 21 -13 57q0 67 29 153q18 49 53 149q30 -5 30 -64z" />
<glyph unicode="&#x152;" horiz-adv-x="996" d="M0 0zM473 359q0 -112 -91 -206q-77 -80 -194 -125q-15 -6 -91 -40q-2 -2 -2 -7q0 -7 3 -19h-16q-11 -1 -15 -1q-25 0 -79 44q-51 41 -65 67q-36 67 -36 124q0 37 16 97q12 12 25 38q16 32 21 40q96 144 263 216q5 2 21 16q13 11 23 11q3 0 6.5 -2.5t7.5 -2.5q9 0 24 8.5 t24 8.5q7 0 9 -12q6 7 4 17q27 -8 81 -25q20 -22 35 -40q26 -31 26 -40v-167zM416 457q0 29 -12 58q-15 36 -40 36q-47 0 -187 -76q-56 -31 -101 -90q-20 -26 -74 -115q-24 -39 -24 -51q0 -143 55 -143q34 0 157 40l5 -1q3 2 2 3q28 11 85 53.5t74 66.5q60 84 60 219z M1066 596q0 -12 -11 -22t-23 -10q-5 0 -7 3t-7 3q-10 0 -33 -9q-26 -10 -35 -12q-41 -9 -170 -30q-103 -16 -167 -37q-36 -11 -64 -72q-34 -71 -54 -87q9 -3 18 -3q14 0 39.5 8.5t39.5 8.5q128 0 191 52q43 -35 43 -49q0 -32 -94 -59q-24 -7 -185 -41q-111 -24 -133 -41 q-13 -10 -28 -52q-20 -53 -23 -59q74 -15 78 -15q34 0 102.5 8.5t102.5 8.5q5 0 59 28l16 -25q-1 -6 2 -36q-67 -65 -259 -65q-175 0 -175 107q0 39 30 116q0 5 -3 16t-3 17q0 4 1 7q3 15 51 31q26 16 99 140q-10 36 -10 55q0 20 22 37q19 12 39 24q26 22 38 62h26 q26 -28 42 -28q14 0 89 18q49 13 149 37q81 19 150 19q14 0 35.5 -20t21.5 -34z" />
<glyph unicode="&#x153;" horiz-adv-x="869" d="M108 0zM434 242q0 -78 -84.5 -158.5t-162.5 -80.5q-79 0 -79 235q0 24 34 67t57 45q27 12 57 24q41 17 53 17q51 0 90 -50q35 -46 35 -99zM376 252q0 48 -46 48q-28 0 -68 -21q-3 -6 -16.5 -15.5t-17.5 -14.5q-18 -26 -49 -158q71 0 131 44q66 49 66 117zM809 293 q0 -66 -51 -106q-34 -26 -114 -52q-90 -29 -116 -44q29 -21 100 -21q17 0 49 11.5t49 11.5q10 0 23.5 -21.5t13.5 -32.5q0 -28 -53 -43q-39 -11 -76 -11q-79 0 -130 38q-57 42 -57 119q0 101 109 180q100 73 205 73q23 0 37 -41q11 -32 11 -61zM752 308h-25q-42 0 -109 -53 q-61 -49 -84 -92q62 27 125 53q69 37 93 92z" />
<glyph unicode="&#x2c6;" horiz-adv-x="218" d="M234 676q0 -18 -11 -18q-29 0 -34 135l-1 29l-4 5q-6 -13 -31 -47q-39 -52 -79 -105q-6 0 -11.5 10t-5.5 17q0 23 141 195q8 -3 23 -6q0 -7 3 -21t3 -21q0 -15 -4 -45t-4 -45t7.5 -43.5t7.5 -39.5z" />
<glyph unicode="&#x2da;" horiz-adv-x="173" d="M185 646q0 -75 -81 -75q-86 0 -86 67q0 79 86 79q34 0 57.5 -19t23.5 -52zM151 642q0 15 -4 32q-6 4 -12 11l-63 1q-23 -9 -23 -49q0 -26 24 -38h55q7 5 19 13q4 14 4 30z" />
<glyph unicode="&#x2dc;" horiz-adv-x="387" d="M414 814q0 -26 -50 -52q-45 -24 -74 -24h-33q-9 0 -47.5 19.5t-47.5 19.5q-22 0 -58.5 -25.5t-31.5 -25.5q-8 0 -17.5 12.5t-9.5 20.5q0 19 48 46q45 26 67 26q4 0 43 -21.5t69 -21.5q80 0 121 62q21 -28 21 -36z" />
<glyph unicode="&#x2000;" horiz-adv-x="453" />
<glyph unicode="&#x2001;" horiz-adv-x="907" />
<glyph unicode="&#x2002;" horiz-adv-x="453" />
<glyph unicode="&#x2003;" horiz-adv-x="907" />
<glyph unicode="&#x2004;" horiz-adv-x="302" />
<glyph unicode="&#x2005;" horiz-adv-x="226" />
<glyph unicode="&#x2006;" horiz-adv-x="151" />
<glyph unicode="&#x2007;" horiz-adv-x="151" />
<glyph unicode="&#x2008;" horiz-adv-x="113" />
<glyph unicode="&#x2009;" horiz-adv-x="181" />
<glyph unicode="&#x200a;" horiz-adv-x="50" />
<glyph unicode="&#x2010;" d="M398 232q-26 -8 -73 -15q-79 -11 -157 -36q-60 -19 -77 -19q-19 0 -29 23q-8 18 -8 40q0 8 1 14q27 19 118 38q82 17 127 17q90 0 98 -62z" />
<glyph unicode="&#x2011;" d="M398 232q-26 -8 -73 -15q-79 -11 -157 -36q-60 -19 -77 -19q-19 0 -29 23q-8 18 -8 40q0 8 1 14q27 19 118 38q82 17 127 17q90 0 98 -62z" />
<glyph unicode="&#x2012;" d="M398 232q-26 -8 -73 -15q-79 -11 -157 -36q-60 -19 -77 -19q-19 0 -29 23q-8 18 -8 40q0 8 1 14q27 19 118 38q82 17 127 17q90 0 98 -62z" />
<glyph unicode="&#x2013;" horiz-adv-x="601" d="M554 232q-38 -8 -106 -15q-115 -11 -228 -36q-88 -19 -112 -19q-28 0 -42 23q-12 18 -12 40q0 8 1 14q40 19 172 38q119 17 185 17q130 0 142 -62z" />
<glyph unicode="&#x2014;" horiz-adv-x="699" d="M657 232q-46 -16 -139 -28q-73 -8 -147 -16q-226 -26 -291 -26q-18 0 -28 24q-8 18 -8 39q0 8 1 14q25 17 245 37q194 18 270 18q90 0 97 -62z" />
<glyph unicode="&#x2018;" horiz-adv-x="79" d="M84 569q0 -130 -8 -154l1 -3q-4 -2 -10 -4q-26 0 -46 58q-16 47 -16 82q0 20 8 55q10 44 23 44q24 0 48 -42v-36z" />
<glyph unicode="&#x2019;" horiz-adv-x="79" d="M84 569q0 -130 -8 -154l1 -3q-4 -2 -10 -4q-26 0 -46 58q-16 47 -16 82q0 20 8 55q10 44 23 44q24 0 48 -42v-36z" />
<glyph unicode="&#x201a;" horiz-adv-x="177" d="M122 59q0 -130 -8 -154l1 -3q-4 -2 -10 -4q-26 0 -46 58q-16 47 -16 82q0 20 8 55q10 44 23 44q24 0 48 -42v-36z" />
<glyph unicode="&#x201c;" horiz-adv-x="182" d="M195 581q0 -132 -9 -155l1 -4q-4 -1 -10 -3q-26 0 -46 58q-17 49 -17 83q0 21 8 56q10 44 24 44q24 0 49 -42v-37zM77 585q0 -27 -21 -166h-20q-41 30 -41 97q0 46 23 127q59 -23 59 -58z" />
<glyph unicode="&#x201d;" horiz-adv-x="182" d="M195 581q0 -132 -9 -155l1 -4q-4 -1 -10 -3q-26 0 -46 58q-17 49 -17 83q0 21 8 56q10 44 24 44q24 0 49 -42v-37zM77 585q0 -27 -21 -166h-20q-41 30 -41 97q0 46 23 127q59 -23 59 -58z" />
<glyph unicode="&#x201e;" horiz-adv-x="291" d="M236 61q0 -132 -8 -155l1 -4q-4 -1 -10 -3q-26 0 -46 58q-17 49 -17 83q0 21 8 56q10 44 24 44q24 0 48 -42v-37zM119 65q0 -27 -22 -166h-20q-40 30 -40 97q0 46 23 127q59 -23 59 -58z" />
<glyph unicode="&#x2026;" horiz-adv-x="542" d="M496 50q0 -40 -36 -40q-29 0 -46 31q-10 18 -10 41q0 5 3.5 15t3.5 15q28 7 25 7q13 0 36.5 -28t23.5 -41zM277 53q0 -21 -17 -36.5t-38 -15.5q-43 0 -43 64q0 10 3 28.5t3 28.5q4 0 13.5 3t14.5 3q18 0 41 -28.5t23 -46.5zM56 49q0 -19 -14.5 -31t-34.5 -12 q-50 0 -50 51q0 17 11 40q12 27 27 27q20 0 40.5 -27t20.5 -48z" />
<glyph unicode="&#x202f;" horiz-adv-x="181" />
<glyph unicode="&#x205f;" horiz-adv-x="226" />
<glyph unicode="&#x2122;" horiz-adv-x="739" d="M738 266q0 -10 -7 -21t-16 -11q-44 0 -86 86q-18 41 -55 122q-12 -23 -38 -69t-52 -46q-21 0 -55 35l-51 52l1 -8q1 -125 -39 -125q-39 0 -39 63q0 17 5 51t5 51v106q-24 1 -50 1h-55q0 -31 3.5 -94t3.5 -94q0 -50 -7 -90h-33q-23 30 -32 159q-8 112 -36 112 q-7 0 -19.5 -1t-19.5 -1q-44 0 -44 57q0 17 40 32q32 12 55 12q10 0 29 -6t29 -6t30.5 6t30.5 6q11 0 61 -21q46 -18 64 -28q38 -21 57 -75q23 -65 41 -85h10q7 11 52 79q32 48 45 83h26q38 -37 45 -93q9 -72 22 -99q2 -5 44 -73q35 -57 35 -67z" />
<glyph unicode="&#xe000;" d="M0 445h445v-445h-445v445z" />
<glyph horiz-adv-x="262" d="M0 0z" />
</font>
</defs>
</svg>
