<?xml version="1.0" standalone="no"?>
<!DOCTYPE svg PUBLIC "-//W3C//DTD SVG 1.1//EN" "http://www.w3.org/Graphics/SVG/1.1/DTD/svg11.dtd" >
<svg xmlns="http://www.w3.org/2000/svg">
<metadata></metadata>
<defs>
<font id="danielblack" horiz-adv-x="1020" >
<font-face units-per-em="1000" ascent="630" descent="-370" />
<missing-glyph horiz-adv-x="294" />
<glyph horiz-adv-x="1000" />
<glyph horiz-adv-x="1000" />
<glyph horiz-adv-x="333" />
<glyph unicode="&#x9;" horiz-adv-x="294" />
<glyph unicode="&#xd;" horiz-adv-x="294" />
<glyph unicode=" "  horiz-adv-x="294" />
<glyph unicode="&#x09;" horiz-adv-x="294" />
<glyph unicode="&#xa0;" horiz-adv-x="294" />
<glyph unicode="!" horiz-adv-x="246" d="M63 44q14 25 14 40q0 6 -2 8q24 26 42 26q1 0 4.5 -1t11 -3t15.5 -4q4 -7 8 -15q33 -18 30 -62l-3 -50q-16 -9 -16 -18q0 -5 3 -9q-4 0 -8 -6q-6 2 -14 6q-1 1 -2.5 6t-3.5 8q-2 -1 -2 -11q-2 -2 -5 -2q-6 0 -14 4q0 9 -2 12q-1 0 -9 -2.5t-9 -2.5q-3 9 -20 21 q0 29 -1 30q-7 2 -15 7q0 10 -2 18zM71 331v96l52 357l28 93q6 1 22 19q13 16 24 16q9 0 25 -11q19 -15 19 -32q6 -6 12 -10q-2 -10 1 -21l4 -17l-88 -462q0 -1 5 -6v-14q0 -3 -9 -20q0 -32 -16 -38q0 -4 3 -7l-12 -11q1 7 -5 13q-10 0 -15 -5q0 2 -5 12q-6 0 -9 -7 q-5 14 -11 22l-10 -2l-6 6q3 10 3 29q-2 2 -7 12q-3 -8 -5 -12z" />
<glyph unicode="&#x22;" horiz-adv-x="324" d="M38 670l3 88l12 58q14 12 18 25l26 6q6 0 16 -7q5 -5 19.5 -21.5t24.5 -27.5q16 -28 16 -50v-61q-1 0 -1 -6q-4 -28 -4 -69v-50l-15 -36l-11 2q-6 -4 -10 -7q-6 2 -10 5l-10 -5q-5 3 -41 12q-17 27 -31 99q-2 10 -2 45zM211 668l3 88l13 58q13 13 17 25l26 6q6 0 16 -7 q5 -5 19.5 -21.5t24.5 -27.5q17 -29 17 -50v-61q-1 0 -1 -6q-4 -28 -4 -69v-50l-16 -36l-10 2q-10 -6 -11 -7q-6 2 -10 5l-6 -3q-1 -1 -2 -1.5t-2 -0.5q-3 3 -41 12q-13 20 -24 62.5t-9 81.5z" />
<glyph unicode="#" horiz-adv-x="1034" d="M9 162q15 20 27 37q0 3 -2 5q6 8 21 25q32 9 40 9l78 -3q9 -9 15 -12q25 -5 41 -5h36l47 109v12h-7q-2 5 -4 3q-8 -4 -29 -4q-14 0 -21 3q-26 -8 -46 -8q-21 0 -40 23q-3 9 -10 23q-6 12 -6 29q0 18 10 31q18 24 26 35q12 13 35 21q47 9 83 13l72 5q5 3 14 20 q59 146 131 285q6 12 31 28h7q18 0 33 -32q11 -25 11 -42q0 -12 -4 -25q-2 -19 -6.5 -35.5t-11.5 -34.5t-13 -30t-17 -34.5t-17 -35.5q-2 -25 -16 -52q1 -2 9 -7h177q11 5 14 14q29 84 64 146q38 66 128 195q7 5 35 26q13 10 28 10q37 0 39 -41q12 -23 12 -36l-5 -27 q-2 -10 -10 -21q-22 -30 -62 -90q-29 -46 -64 -128q-16 -23 -24 -51q10 -10 23 -11l28 -2q11 -4 41 -12l45 -27q0 -5 -7 -11q15 -20 15 -35q0 -9 -18 -34h-13q-2 -1 -10 -17l-82 -13l-47 5q-4 0 -14 -2t-12 -2q-2 2 -3 4l-27 -84v-9q6 -7 19 -7q7 0 11 2l103 -25 q0 -43 8 -54q-12 -7 -26 -22q-30 -11 -45 -16q0 -3 13 -7l-113 -30q0 -4 3 -4q-2 0 -13 -6l-1 -6.5l-2 -13t-0.5 -12.5t3.5 -7l-43 -62l-10 3q-14 -10 -23 -10q-1 0 -6 1t-6 1q-4 -4 -13 -10h-8q-2 3 -5.5 7.5t-8 10t-8.5 10.5q-5 21 -8 44q3 4 3 13q0 8 -1 13l-7 5 l-167 -23h-35q-35 0 -45 -12q-6 -6 -9 -35q-3 -30 -14 -55q-30 -33 -40 -33h-10q-2 2 -12 10l-10 -17h-9q-13 16 -25 25q-8 41 -4 60l4 16v22q-14 9 -22 9h-62q-11 0 -48.5 12.5t-42.5 18.5q-9 9 -18 23q0 5 5 10q-5 10 -12 15q-6 24 -8 33zM412 229h56l31 6l120 8l36 122 q2 1 -5.5 1h-30.5l-161 -16z" />
<glyph unicode="$" horiz-adv-x="683" d="M-21 46v56l5 5q0 1 8 31q3 0 8 5h10q13 0 27 -2q3 1 3 4q10 0 32 -5q0 -2 -3 -6l4 -3h22q1 0 4.5 2.5t4.5 2.5l69 -8h64l77 284q-100 77 -180 145l8 8q0 2 1 27.5t1 27.5q7 9 23 39l36 10h32l103 17l90 8q7 7 18 19q3 7 8 16.5t12 24.5t13 27q19 67 59 113q4 1 12.5 4 t13.5 4q22 -14 37 -39q6 -17 19 -56q0 -25 -12 -53q-8 -16 -21 -51l67 -29q33 -30 33 -87q0 -19 -18 -38q-27 0 -40 -5l-61 15q-24 -4 -29 -4q-2 0 -4.5 0.5t-3.5 0.5q-5 -2 -21 -19q-27 -59 -30 -67q1 -3 3 -10q56 -47 99 -106q44 -59 48 -94q12 -39 12 -48l-2 -43 q-15 -82 -66 -119q-16 -12 -21 -16q-41 -23 -102 -37q-36 -14 -63 -14q-1 0 -5 1t-5 1q-44 0 -54 -27l-16 -74q-2 -7 -4.5 -19.5t-7 -35.5t-8.5 -41q-9 -23 -25 -58q-12 -9 -20 -17l-5 5l-11 -3l-3 13q-4 2 -22 7q-6 11 -15 26q0 15 -5 48l20 156q-3 4 -3 11q-7 4 -15 4 q-1 0 -5.5 -1t-5.5 -1q-36 0 -136 23q-10 5 -17 8q-11 12 -41 37zM377 153q0 -7 6 -5q94 20 144 58v14q-5 10 -41 60q-19 25 -48 41q-5 -5 -10 -5l-51 -154v-9z" />
<glyph unicode="%" horiz-adv-x="1062" d="M-2 631l43 169q0 7 -3 10q8 11 31 35q3 1 43 14q17 11 30 19q6 1 30 10q4 1 23.5 5.5t32.5 6.5q51 9 65 9q19 0 46.5 -6t51.5 -16t30 -19q0 -1 -2 -5l94 -57l90 10h40h2q2 0 6 0.5t8 0.5t8.5 0.5t6.5 1t3 0.5q48 0 84 -21q9 -14 17 -20q2 -3 21 -45q-1 -12 8 -45 q-9 -56 -45 -82q-3 -5 -10 -24q-6 -7 -18 -21.5t-18 -21.5q-4 -4 -17 -6q-1 0 0 -3v-11l-80 -82l3 -10q-2 -1 -28 -13l5 -4q-3 -4 -3 -6l-10 2l-25 -25q0 -2 -2 -4l7 -6h-13q-13 -13 -12 -32q-3 -7 -24 -23q-1 -4 -20 -24q-20 -18 -18 -23q-18 -6 -31 -6q-4 -4 -4 -14 l-20 -12q3 -1 10 -8q-12 2 -13 2l-15 -20l2 -16q15 6 49 20q30 11 35 36q31 38 43 59q21 11 35 28q11 6 53 27q55 16 75.5 22t15.5 6l128 15q6 -1 27 -4q73 -9 103 -35q21 -16 64 -62q4 -12 13 -30q8 -46 8 -53q0 -18 -8 -55q-1 -4 -19 -23q-1 -11 -15 -25q-20 -18 -23 -23 h-11l-39 -48q-16 -1 -44 -18l-42 -26q-16 0 -50 -12q-20 -11 -24 -11q-1 0 -3 1t-3 1q-20 0 -30 -12q-8 8 -17 7l-60 -5q-2 0 -25.5 6.5t-25.5 6.5l-34 15q-59 15 -101 115q-2 3 -11 10v36l-5 6l-126 -89q4 -2 8 -2q-16 -4 -21 -4q-16 -18 -50 -49q-87 -48 -108 -48l-48 5 q-12 0 -20 -5q-2 1 -5 3l-7.5 5t-8.5 5v63q0 -3 3 3l9 20q14 34 48 71l61 61q124 98 250 229q133 136 209 245q3 6 3 12q-2 1 -8 4.5t-10 6.5q-2 -1 -5.5 -4t-4.5 -3q-14 10 -26 10q-2 0 -21 -5t-22 -5q-2 0 -14 5l-27 -7q0 -3 -1 -7t-3 -10.5t-3 -10.5l-90 -103 q-7 -3 -18 -2q-11 -14 -24 -18l-21 -8q-5 -3 -33 -27q-6 1 -35 -15q-2 1 -5 3q-4 -11 -28 -16q-2 0 -2 1q0 3 3 6l-4 3q-10 -5 -57 -5q-1 0 -16 1.5t-25 1.5q-43 0 -98 29q-54 29 -60 55v8q5 0 7 2q-12 24 -15 46zM114 660q2 -7 7 -15l-3 -3q1 -1 1 -10q38 -41 88 -41h16 q47 0 102 27q64 32 94 80l-21 -7q-5 5 -9 5q-17 0 -46 -10q-15 3 -21 5q-3 -4 -10 -10q-12 7 -15 6q-4 -2 -7 -2t-7 4l-20 -8q-37 0 -63 -2q-15 5 -19 4q3 -3 3 -5t-2 -4q-28 0 -34 -1q-8 2 -11 2q-14 0 -23 -15zM204 793q17 -10 32 -10q5 0 7 1q8 -2 26 0l16 2h35l54 9 q-29 13 -46 20q-25 0 -43 1zM468 173v11q-2 -9 0 -11zM589 174q1 -1 3 -4t4 -5t4.5 -5t4.5 -6q30 -25 50 -40l54 -11h38q11 4 64 18q8 5 53 30q8 4 13 14q14 4 32 21.5t18 30.5l-30 29q5 2 9 7q4 -3 20 -10l6 4q-2 1 -23 15t-30 23q-22 6 -38 6q-22 0 -46 -6q0 -1 -2 -5 q-9 1 -78 -14q-18 -8 -88 -44q-6 -7 -38 -35v-13z" />
<glyph unicode="&#x26;" horiz-adv-x="741" d="M33 120l7 38l3 15q73 98 128 144q35 29 59 58q-57 124 -57 184q0 25 4 36q13 36 17 46q16 21 67 76q30 30 80 63q1 1 4 4.5t6 6.5q29 13 60 26q6 6 10 9q44 16 56 20t65 11q43 -7 85 -48q0 -1 2 -6t3 -6.5t3 -6.5t3.5 -7.5t4 -6t4.5 -6t5 -4t6 -2.5q3 -9 3 -35 q0 -25 -10 -54q-1 -9 2 -22l-37 -78q-12 -22 -24 -55q-10 -16 -33 -48q-29 -57 -89 -100q-7 -8 -39 -47q15 -32 51 -56h7q9 8 52 45.5t76 65.5q9 4 48 16q7 -10 13 -20q4 2 10 2v-10l15 -17q2 -10 -7 -20q3 -5 12 -5l-22 -64l-60 -90q1 -5 11.5 -30.5t10.5 -34.5 q0 -6 -3 -11.5t-7 -10t-5 -6.5l-32 -8l-24 2l-10 -10l-45 18l-79 -42q-1 -1 -13 -15l-60 -30q-3 -1 -9.5 -3.5t-20 -7t-26.5 -9.5q-30 -6 -103 -16l-111 21q-1 9 -13 19q-18 15 -21 18q-31 54 -29 86q-4 7 -4 18zM213 121h11q5 0 38 12q18 7 55 19q18 10 71 47v9 q-8 3 -27 20q-16 14 -25 13q-25 -14 -64 -52l-56 -56zM308 514q0 -14 18 -57l11 2q87 83 153 196q6 31 21 51q-47 1 -152 -96q-4 -5 -16.5 -21t-21.5 -28z" />
<glyph unicode="'" horiz-adv-x="165" d="M42 718l2 89l13 58q13 12 18 24l25 6q7 0 16 -6q12 -14 45 -49q16 -28 16 -51v-61l-1 -5q-4 -28 -4 -68v-52l-16 -36l-10 2q-6 -4 -10 -6q-6 2 -10 4q-6 -2 -10 -4q-3 3 -41 12q-15 24 -22 50l-10 48q-1 14 -1 45z" />
<glyph unicode="(" horiz-adv-x="508" d="M15 208q0 115 74 293q11 21 56 92q3 13 3 15q14 11 25 31q14 25 21 34q48 60 103 124q9 14 56 58q16 5 33 23q43 26 62 26q10 0 42 -16q1 -8 14 -29l6 -35q0 -64 -73 -94q-2 -3 -13 -14h-10q0 -1 -1.5 -2.5l-3 -3t-2.5 -3.5q-1 -1 -41 -27q0 1 -27 -23q-9 -15 -16 -28h-3 l-107 -149q2 -7 -1 -16q-4 -16 -32 -47q-9 -43 -29 -103q-15 -45 -15 -83q0 -122 180 -201q45 -20 115 -50q0 -1 -5 -6l27 -19q0 -7 11 -23q-8 -8 -8 -10q0 -5 3 -8l-8 -5q1 -2 1 -6q0 -5 -6 -19.5t-5 -17.5q-9 -3 -31 -17q-17 -2 -22 -4l-54 13h-29q-15 0 -78 31.5 t-81 43.5q2 -1 2 11q-8 9 -13 9q-1 -1 0 -4q0 -2 -1 -4q-3 4 -11 9q2 4 3 7q-27 7 -51 48q-3 6 -17 30t-24 42q-3 7 -3 17q0 4 2 16q-18 47 -18 94zM146 -67z" />
<glyph unicode=")" horiz-adv-x="538" d="M-22 -115q0 28 44 93q1 1 1 10q47 45 138 105q87 58 105 71q62 51 66 99q12 34 12 66q0 1 -2 23t-2 23q-1 1 -1 5q0 8 2 13l-15 80q-2 5 -4.5 13l-5 16t-6 20t-7.5 23q-20 36 -28 58q-7 14 -16 23q-2 9 -31 47q-30 40 -30 47q-18 15 -28 25q-18 16 -20 28q-17 17 -17 20 v18l5 8l-1.5 8t-1.5 9q43 80 76 80q16 0 30 -11q12 -10 19 -14v-8l5.5 -5t10.5 -9t9 -10t3 -9q4 -6 10 -6q0 3 1 -1l2 -12q7 -8 16.5 -19t12.5 -14.5t9 -11t8 -11t7 -11.5t9 -15.5t11 -19.5q20 -23 48 -93q34 -80 54 -205l5 -86l-1 -9q0 -141 -93 -267q-85 -86 -159 -121 q-9 -8 -35 -34l-161 -91q-13 6 -36 13q-3 12 -10 15z" />
<glyph unicode="*" horiz-adv-x="416" d="M43 775q0 -3 14 31q3 29 19 41h16l88 -41h6l35 95q25 13 31 13q24 0 34 -41q6 -9 14 -26l104 65h8q12 0 28 -26q-1 -6 -1 -25q4 -7 7 -7v-29l-110 -97q61 -44 100 -95v-58q0 -15 -15 -28q-1 -11 0 -18l-14 -3l-132 65q-4 -3 -9 -16q-1 -12 -8 -50q-7 -34 -31 -34 q-27 0 -41 54q1 6 1 25q0 3 -5 11l-95 -112q-4 0 -16 2q-6 12 -15 15q-11 27 -11 40q0 3 14.5 38t14.5 36q6 10 12 30q11 15 24 38v9q-4 5 -9 5q-5 10 -5 15q-53 55 -53 78z" />
<glyph unicode="+" horiz-adv-x="605" d="M9 377q9 68 51 68l145 2q13 31 17 97q4 64 23 93q13 13 33 13q12 0 16 -2l45 -26q16 -22 28.5 -55t10.5 -65q0 -4 -1.5 -18.5t-2.5 -24.5l5 -4h64l91 -23l51 -73q-2 -3 -5.5 -11.5t-5.5 -14.5l-35 -13h-28l-35 -8l-6 1.5t-7 1.5t-10 -4t-10 -4q-2 0 -4 2q-1 0 -3 1 q-5 0 -37 -19q-24 0 -45 -10q-3 -3 -12 -18q-11 -90 -14 -132q-3 -52 1 -68q-6 -11 -5 -18q-2 -1 -5 -4t-5 -4h-11q-3 0 -68 28q-1 1 -13 17q-8 0 -9 3q-3 -3 -10 -15l-31 25v84l12 94q-2 9 -6 24h-20q-7 -7 -19 -7q-6 0 -16 5l-5 -5h-10q-3 0 -10 7q-7 -7 -11 -7h-20l-8 23 q-2 1 -8 3.5t-9 3.5z" />
<glyph unicode="," horiz-adv-x="388" d="M41 -125q11 33 79 129q59 85 61 134q11 21 40 21q15 0 32 -11q3 -4 13 -14t14 -15q24 -48 24 -70q0 -11 -7 -32q-12 -54 -34 -85q-55 -55 -74 -73q-45 -43 -76 -51q-8 -8 -13 -9q0 2 -5 7h-16v13q-2 1 -13 8l3 7q-8 9 -20 20q-2 10 -8 21z" />
<glyph unicode="-" horiz-adv-x="729" d="M33 280q0 18 8 39q2 2 10.5 9.5t14.5 13.5l85 1l181 -10l92 6q4 0 26 8l6 -3q1 -1 2 -1.5t2 -0.5l103 12q32 -19 58 -29q15 -20 30 -54q1 -3 6.5 -11t8.5 -14v-9q-3 -1 -17 -22q-19 -13 -54 -16l-175 -13h-130q-81 0 -105 -12q-1 0 -7 2.5t-7 2.5h-4q-2 -1 -2 -3t3 -4 q-4 -3 -14 -3q-1 2 -4 5t-4 5h-52q-8 7 -36 28q-3 14 -14 25q-11 30 -11 48zM218 173l6 3q-2 -4 -6 -3z" />
<glyph unicode="." horiz-adv-x="272" d="M47 91q-1 5 8 16l-1 10l-1 10q11 11 19 18q2 1 10 3.5t14 4.5q50 -21 85 -52l16 -57q1 -11 -14 -26q-20 -8 -52 -17q2 -2 8 -2q0 -11 -1 -11q-2 3 -12 15l-6 -9q-6 5 -16 13q-14 4 -30 14q-6 23 -27 70z" />
<glyph unicode="/" horiz-adv-x="697" d="M4 -231q5 30 8 47q4 8 13 23q10 41 47 116q4 1 15 29q3 5 29 45q0 5 6 20q33 55 116 198q1 2 1.5 5t0.5 5q14 18 50 81q16 27 142 238q12 35 70 136q0 4 5 22q20 37 44 93q2 4 4 16q13 22 57 79h21q11 0 16 -6q48 -48 48 -81q0 -1 -2.5 -20t-2.5 -20l-10 -17l8 -5 q-6 -15 -6 -21q-6 -8 -19 -22q0 -4 4 -4q-5 -2 -5 -10q0 -4 1 -5q0 -4 -7 3q-6 -9 -21 -34q0 -2 1 -3l6 2q-1 -1 -1.5 -3.5t-1.5 -5t-2.5 -6.5t-2.5 -7h-10q-15 -17 -12 -35q-2 -1 -10 -7q5 -3 5 -7q-2 0 -14 -6q-9 -17 -26 -37q0 -3 5 -10l-27 -26q0 -1 0.5 -3t0.5 -3 q0 -12 -14 -28q-16 -19 -15 -39q-6 -5 -20 -22q3 -6 3 -8l-23 -25l5 -20q-6 -9 -32 -37v-12q2 -9 -8 -17l-15 -16q2 -8 2 -10t-2 -6q-24 -17 -23 -44q-26 -37 -25 -46q-23 -14 -23 -29q0 -2 2 -8q-27 -11 -24 -38q-9 -7 -10 -17q1 -1 1 -7q-7 -5 -17.5 -26.5t-20.5 -26.5 v-10l-100 -188q-2 -10 3 -19q-10 -36 -23 -69q-1 -3 -40 -32l5.5 -2.5t10.5 -4.5q-8 -3 -42 -34h-13q-2 0 -6 3t-5 3q-3 -3 -3 -11l-10 3q-5 -8 -11 -8q-10 0 -10 21q0 1 0.5 3t0.5 3q-18 3 -35 14q0 1 5 11t5 12q-1 11 -17 33z" />
<glyph unicode="0" d="M17 434q-2 17 4 39q10 84 49 187q0 1 22 36q47 97 141 162q3 4 22 16q15 5 25 5q14 11 43 15q9 6 13 8q10 0 26 7q87 15 98 15h66l55 -12h40q1 0 4 2.5t4 2.5l10.5 -1.5t21.5 -2.5t12 -1q1 -3 6 -9l13 2q8 -4 15 -10q1 0 6.5 1.5t7.5 1.5l47 -15l-2 -2q-1 -2 -2 -3 q6 -8 18 -8q10 0 15 1l31 -19q-2 1 -5.5 3t-5.5 1.5t-5 -4.5l72 -52q2 0 3 1l-48 44q54 -29 90 -74q12 -16 47 -81q2 -5 4 -21q11 -17 11 -38q4 -7 4 -27q8 -10 8 -18v-56q0 -3 -4 -12q1 -40 -18 -120q-10 -26 -37 -87q-2 -12 -22 -45q-34 -74 -142 -182l-4 -8 q-8 -3 -19 -10q0 -5 4 -10h-7l-26 -22h-8q-112 -84 -261 -99q-3 0 -11 -5q-11 0 -19 -1l-12 -1q-36 -1 -145 36q-63 42 -114 92v11q-10 11 -29 40q-101 123 -110 286zM119 465q0 -10 8 -39q0 -2 -0.5 -7.5t-0.5 -9.5q48 -154 145 -246q37 -35 121 -73q73 -13 84 -13 q70 0 163 45q124 61 198 169q76 107 76 226q0 40 -18 97q-11 35 -43 70q-31 34 -60 46q-12 12 -47 28q-27 10 -45 18q-26 5 -61 15l-120 3q-21 0 -82 -13q-1 -2 -11 -6h-12q0 2 -2 6q-1 0 -7 1.5t-7 1.5l-75 -33l-90 -80q1 -1 1.5 -3t0.5 -3l-35 -14q-4 4 -16 7 q-10 -21 -15 -25q-14 -22 -28 -54q-4 -18 -16 -66q-1 -2 -2 -2v-35q0 -1 -2 -5.5t-2 -5.5zM911 776q0 -4 6 -7q-2 4 -6 7z" />
<glyph unicode="1" horiz-adv-x="642" d="M239 34q3 4 3 7l6 -5l6 6q-3 7 -14 12v71q1 9 8 17v35l4 2q1 6 11 24q2 25 2 42q3 25 4 33q7 0 7 12q1 23 3 28q-4 4 -5 7q10 23 15 45v10q0 13 6 28l4 62q12 33 12 41q0 13 -5 31l13 271q-1 2 -1 8q0 11 4 23q5 5 10 5q3 7 11 18l5 -5l4 7h10q1 0 4.5 -1.5t9.5 -4 t12 -5.5q4 -2 11 -14q18 -5 32 -43q11 -32 11 -56l-11 -205q0 -8 -2.5 -30.5t-3.5 -36.5q0 -4 4 -8l-25 -232l-40 -229l-6 -8q-10 0 -15 5l-5 -5h-15l-10 -15q-7 1 -13.5 2.5t-9.5 2.5h-3l-40 47q-2 -2 -3 -2q-2 0 -5 3z" />
<glyph unicode="2" d="M60 56v38q24 30 39 44q120 110 212 200q3 3 10 8.5t11 8.5q27 25 78 89q72 110 91 150q37 73 37 143q0 37 -16 47t-63 11l-82 -30q-1 1 -11 3l-129 -70q0 -8 -4 -13l-10 2l-72 -42h-36q-2 4 -26 36l-4 15l-4 16l1 8q0 7 1 15t1 9q28 18 56 42q48 31 107 63q83 45 129 61 q40 13 108 13q59 0 117 -34q70 -42 73 -99l9 -27v2v-37q0 -19 -7 -47q-7 -84 -75 -206q-7 -12 -86 -132q-36 -30 -63 -75q-8 -8 -30 -35q-34 -29 -74 -72l7 -4l365 50l95 -2q6 -1 17 -3t28 -5t31 -5q47 -9 66 -31q0 -9 -3 -10q3 -3 6 -10v-43q-6 -3 -49 -25q-30 -6 -36 -6 h-39q-2 0 -6 -2.5t-5 -2.5h-96l-144 -23q-10 -1 -23 3l-217 -48l-181 -20q-42 0 -55 15q-20 6 -34 38q-15 13 -15 29zM376 765h1h-1z" />
<glyph unicode="3" d="M66 780q10 10 21 13q6 1 10.5 2t7 1.5l2.5 0.5q4 9 12 15q30 17 62 30q38 25 151 61q61 13 97 13q11 0 57 -6q82 -12 149 -53q3 -4 15.5 -17t20 -22t14.5 -22t6 -24q6 -11 6 -24q0 -58 -32 -107q-17 -17 -59 -53q-33 -28 -57 -66q13 -13 55 -30q53 -20 80 -32 q86 -53 96 -59q41 -27 106 -104q67 -80 67 -126q0 -14 -12 -35q-6 -10 -11.5 -19.5t-8.5 -14.5t-4 -6l-100 -51q-1 1 -5 1q-2 0 -10 -2q-6 -3 -85 -20q-9 -7 -22 -9q-128 -22 -142 -22h-33l-77 -10l-117 -3l-154 2q-17 7 -24 7q0 7 -10 16h-7q-7 7 -23 27q-2 9 -8 18 q1 1 7 21q0 3 -5 8q1 4 2.5 12.5t2.5 12.5q22 20 31 20l231 -3l163 10q4 0 13 2.5t14 3.5q117 10 216 69q0 3 3 6q-13 33 -49 60q-4 3 -11.5 9t-14 11t-16 12.5t-18.5 14.5l-88 46q-10 4 -39.5 14.5t-48.5 17.5q-25 4 -90 17q-1 0 -3 1l-1 1q-1 -1 -2.5 -1.5t-2.5 -0.5 l-29 9q-4 1 -12 -5l-6 6l-90 12l-39 59v8q0 8 10 17l-5 5q2 8 2 12t-2 14l40 27q2 -2 7 -2q28 0 97 22q4 1 66 28q13 6 47 35.5t41 41.5q26 26 26 36v11q-17 17 -27 22q-50 10 -85 10q-16 0 -65 -7q-60 -20 -71 -24q-37 -13 -55 -27q-14 -6 -38 -20l-31 -17h-39l-27 30 q3 6 3 14q-9 10 -19 14q-3 9 -7 16q-12 0 -14 -2q0 7 2 9q0 2 -8 12zM100 51v-1v1z" />
<glyph unicode="4" d="M65 353q5 7 8 51q92 177 115 222v3q1 3 1 6l140 277q10 1 25 6q13 -9 25 -12q0 -8 38 -49q0 -2 1 -16l2 -14q0 -49 -82 -221l-79 -162q-3 -2 -9 -12v-10h46l208 13l142 18q8 27 36 125q2 8 54 152q12 37 56 119q18 23 48 45h9q-7 0 4 -3q7 -2 24 -6q2 -5 8 -26 q4 -13 25 -19l1 -6q1 -7 3 -14l1 -7q-2 -10 -6 -29q-4 -6 -19 -26q-8 -13 -13.5 -27t-13 -41.5t-11.5 -39.5q-29 -88 -55 -191l7 -6h51q69 0 99 -78q-1 -1 -4 -3.5t-5 -4.5l8 -8l-22 -27q-14 -14 -27 -17l-133 2l-7 -7q-4 -15 -14 -47t-15 -47q-11 -36 -17 -108l2 -116 q-12 -5 -12 -14q0 -4 1 -6q-6 -3 -22.5 -10t-24.5 -10q-9 8 -20 8q-8 0 -13 -3q-4 2 -37 35q1 0 4 9q-1 2 -11 2l-14 30v126l29 147l-4 4h-21q-14 -4 -17 -4l-109 -13q-5 3 -21 3l-93 -14q-8 5 -16 5l-22 -5h-49q-3 0 -8 -5q-5 5 -14 5q-17 -10 -25 -10q-23 4 -27 3l-15 7 l-10 -3q-1 6 -15 11q-16 5 -23 14q-3 12 -18.5 29t-27.5 20zM191 283l11 -4l4 4h-15zM592 -8z" />
<glyph unicode="5" d="M125 8q1 4 5 12q3 14 13 24v12q44 37 58 46q40 27 65 29q10 3 40 15q134 28 194 42q102 24 193 86q43 30 43 49q0 6 -17 44q-11 6 -30 21q-9 -1 -20 2q-3 10 -14 21l-33 8q-2 6 -12 12q-17 6 -18 8q-58 19 -93 21q-19 6 -18 8q-2 0 -4 -1q-4 3 -7 9q-25 1 -54 11h-5 q-5 0 -5 -2l-148 34q-3 0 -3 -5q-2 2 -4 5q-3 -5 -6 -5q-6 3 -17 8q-14 3 -55 23q-3 6 -25 40v11q-11 11 -19 16q0 1 -1 15t-1 15q0 22 4 30q8 22 37 69q1 9 7 17q18 41 46 97q26 52 91 68l167 -19h51l36 -5h125l102 12q21 0 44.5 -11.5t23.5 -25.5q0 -4 -2 -12q6 -5 23 -29 v-9q0 -15 -36 -51l-254 -14q-19 -1 -61 9q-1 0 -6 -5h-24l-7 2.5t-8 2.5q-20 -3 -21 -3l-95 6q-20 -24 -38 -48q-15 -25 -32 -66q14 -12 26 -15q244 -44 371 -105q31 -16 64 -41t64 -57t50.5 -72t19.5 -78q0 -52 -63 -118q-8 -9 -53 -38.5t-75 -38.5q-28 -15 -54 -27 q-22 -8 -58 -16q-24 -9 -45 -15q-83 -15 -221 -42q-11 -6 -34.5 -12t-32.5 -11l-68 -9q-1 0 -5 1t-8 3l-5 1l-1 4q-2 4 -4 7l-10 -2q-6 10 -19 15q0 4 4 8q-2 4 -8 10z" />
<glyph unicode="6" d="M67 315q0 47 12 95q1 1 1 3q0 1 -2 7q0 1 1.5 4t3.5 9l4 12q9 52 41 85q4 29 37 71q22 25 62 66q3 14 29 29q1 5 8 17q18 21 77 72t79 60q0 -4 4 -4q2 3 22 27q32 19 55 30q21 7 36 13q7 4 24 4q19 0 41 -13q3 -13 17 -27q0 -3 -1 -4l9 -9q-3 -6 -3 -16q-6 -4 -13 -16 q-3 -1 -11.5 -4.5t-12.5 -5.5l5 -5q-3 -1 -17 -14q-2 2 -8 2l-80 -58v-11q-1 0 -3 -1l-4 -2t-5.5 -2.5t-6.5 -2.5q-15 -12 -26 -23q-23 -3 -25 -30l-167 -170q0 -9 -16 -37q-4 -11 -36 -64q-7 -26 -7 -35q-2 -8 -9 -26q0 -6 7 -9q-4 0 -4 -8h2q1 2 3 0q1 3 0 11l19 16 q10 23 15 35l44 35q9 -2 24 16q3 -1 8 -1q13 0 20 10q0 4 -9 9q12 6 18 3q2 2 2 4l131 36q-2 -8 -2 -9q0 -2 2 -4q1 1 12 2q23 17 27 17l172 7q15 1 80 -13q13 -2 70 -23q23 -15 52 -33q19 -27 31 -27l31 -56q0 -3 -1 -7v-5l-1 -3q8 -11 9 -34q2 -25 3 -28q0 -12 6 -46 q3 -26 -32 -42h-4q-24 -31 -24 -40h-7q-1 -2 -16 -17q0 2 -4 6q-4 -2 -8 -7l4 -4h11q1 -4 0 -6l-9 -9l-6 -3q-15 -19 -64 -46l-72 -40h-6q-2 1 -5 1q-22 -7 -50 -14l-10 -9l-3 1q-2 -1 -2 -5l-92 -22l-3 1l-52 -10l-36 4l-10 -4l-89 9q-7 5 -5 5h-16q-8 0 -95 35 q-7 13 -39 19q-25 25 -49 39q1 10 -19 25v3q0 14 -25 20l7 7q-3 11 -15 17q-41 92 -41 165zM195 207q0 -19 42 -49q43 -31 66 -31q54 -27 125 -24l55 3q31 4 90 21q78 13 162 66q2 1 10.5 5.5t15.5 8.5q14 14 25 23q20 6 38 37q17 28 17 44q-7 28 -7 29q-14 10 -29 25 q-35 20 -79 21l-7 7h-19q-1 4 -26 13q-8 -3 -10 -7l-41 3h-59l-69 -13q-2 -6 -4 -9q-6 -1 -24 -1q0 -2 -2 -4q-1 2 -5 2l-28 -9q-4 0 -7 3q-2 -5 -8 -7q-3 4 -9 4q2 0 7 -5l-51 -26q1 -1 1 -4q0 -2 -1 -2q-17 -11 -41 -22q0 -3 -7 -8q-3 3 -3 8l-49 -33q-2 0 -4 2 q-3 -4 -3 -13l-20 -17q1 -5 -3 -11.5t-9 -12.5t-5 -7q-1 1 -4 5.5t-6 4.5q-4 0 -15 -8v-12zM215 229q4 -2 8 -2q0 2 -2 6q-3 0 -6 -4zM371 347q0 -1 1 -1q6 8 4 8q-5 -3 -5 -7zM592 815h1h-1z" />
<glyph unicode="7" horiz-adv-x="889" d="M102 796v33q0 30 11 44l24 17h146l212 24h36q1 0 10 2l9 1l112 6l70 -12q55 -52 55 -71q-2 -9 -6 -33q-4 -30 1 -40q-23 -46 -51 -88q-12 -18 -25 -26q-17 -25 -35 -57q-1 -1 -5.5 -4t-6.5 -5q2 -4 2 -6q-2 -1 -12 -11q-8 -28 -44 -69q-10 -36 -46 -67q-2 -5 -4 -21 q-3 -9 -18 -24l-17 -37q4 -7 4 -10v-1q-1 -1 -1 -2q-14 -15 -14 -31q0 -7 2 -10l-4 2q-1 0 -3 -2v-14q-5 -2 -14 -14q-11 -7 -23 -26q-3 -6 -7 -11.5t-6 -8.5t-2 -4q1 -3 1 -9q0 -13 -15 -22q1 -8 -12 -42t-13 -36q3 -3 3 -5q-4 2 -5 2l-2 -1v-20q-8 -8 -14 -19q1 -3 1 -22 l-5 -5l-10 3l-4 -5v-8q6 2 10 2v-13q-14 -18 -33 -46q-3 0 -12 -2q3 4 3 10q0 4 -2 7q0 -1 -0.5 -3t-0.5 -4q-24 -10 -40 -10h-14q-10 10 -16 10h-17q-1 2 -11 16q-1 1 -11 1q2 6 3.5 12t2.5 8.5t1 3.5l-5 19l-5 20q0 6 15 52q10 11 29 56q15 37 38.5 91.5t41.5 97.5 q9 12 27.5 45.5t23.5 47.5q47 94 66 124q38 57 112 171v8q-20 5 -36 3q-31 -3 -50 -1q-6 7 -13 7q-3 0 -9 -2q0 -1 7.5 -5t7.5 -5l-82 -9h-36q-7 1 -7 3q-14 -8 -16 -8q-1 0 -5.5 1t-5.5 1q-7 -2 -29 -6l-5 7q-5 0 -13 -7h-26q-1 1 -11 -4h-1h-43q-5 0 -9 -4q-15 0 -20 3 q2 2 6 5.5t5 4.5l-4 4h-20q-4 0 -4 5q-14 10 -26 10q-5 0 -7 -1zM443 757q3 1 3 4q0 2 -3 5v-9z" />
<glyph unicode="8" d="M-9 222q0 45 18 93q15 25 27 44q30 58 97 97q40 22 110 48l-2 8q-43 25 -68 77q-12 60 -12 63q0 31 27 85q30 57 61 73l55 18q12 0 22 -7q1 0 20 -1l18 -1l9 -3q2 2 5.5 5t8.5 7t9 7l106 34l105 14l51 -7q1 0 3 1l4 2t5 2l6 2q8 -7 40 -8q28 -3 36 -17q3 0 3 5 q7 -2 19 -10q59 -8 130 -104q8 -27 8 -38q-6 -48 -6 -56q-3 -6 -13 -19q0 -4 -22 -50q-8 -1 -17.5 -7.5t-22.5 -19t-17 -15.5q19 -19 37 -21q45 -25 62 -38q3 -3 8 -17q1 -1 8 -4.5l13 -6.5q82 -82 86 -128l-5 -28v-33l-5 -15t-5 -16q-2 -9 -15 -22q0 -1 -1.5 -4t-4.5 -8.5 t-5 -10.5q-24 -30 -118 -95q-24 -12 -77 -28q-4 -2 -12 -8l-238 -60q-1 0 -3.5 0.5t-4.5 0.5q-6 0 -30.5 -4.5t-25.5 -4.5l-112 -7q-1 0 -4.5 2.5t-4.5 2.5h-42l-123 26q-30 12 -65 27q-20 12 -44 29q-8 6 -48 37q-44 67 -44 112zM104 258q5 -12 16 -23q21 -18 22 -20 q9 -4 79 -40q28 -8 42 -15l97 -17l86 -2q43 0 192 27q27 8 61 15q11 2 24 10q3 1 8 1.5t9.5 1t11 1.5t12.5 2l78 33q15 7 43 19q29 16 29 37q0 26 -46 65q-46 41 -83 50q-6 4 -51 14q-53 12 -71 11l-189 -5l-169 -28q-6 -1 -15 -3q-31 -15 -93 -36q-1 -1 -17 -12 q-26 -9 -49.5 -34.5t-26.5 -51.5zM305 661q21 -28 85 -46q54 -13 93 -13q13 0 32.5 1.5t20.5 1.5q25 0 145 31q24 11 45 14l71 29q3 8 3 15q-17 20 -36 30q-31 24 -110 30l-58 5l-63 -12l-4 5q-49 -11 -116 -31q-65 -19 -108 -60z" />
<glyph unicode="9" d="M231 692q-3 25 22 67q12 20 27.5 34.5t28.5 22.5t35.5 21.5t38.5 25.5l96 38q3 -10 42 0l34 -5q10 5 12 5q3 0 36 -12q48 3 101 -47q53 -47 61 -101q24 -21 24 -132q0 -190 -149 -381q-6 -5 -15 -12q-33 -44 -89 -93q-57 -53 -130 -116l-2 -10q-9 -3 -22 -16 q-20 -5 -39 -17h-8l-4 5q-1 0 -2.5 -1t-4 -2t-3.5 -2l-23 23l-13 -2q0 9 -2 11l6 5v8q-1 1 -9 7v13q0 3 12 48q73 96 202 196q22 22 64 70q35 38 46 71l1 2q-2 2 -4 2h-8l-14 -7q-8 0 -29 -3l-21 -3q-3 0 -79 18q-5 2 -13.5 7t-16.5 9.5t-20 11t-24 12.5l-63 52 q-31 26 -42 42.5t-23 56.5q-1 8 -13 16zM351 673q0 -6 32 -33q4 -4 12 -10.5t18.5 -14.5t19.5 -16q15 -6 91 -38l6 4q15 -9 33 -9q6 0 15 1h16q14 0 27 -4q17 -17 29 -27q0 1 1 3t2.5 6.5t3.5 8.5l4 49l-5 42q-9 74 -61 94q-2 1 -15 5.5t-24 9.5q-12 0 -23 1h-6h-5t-3.5 0.5 t-2.5 0.5h-1l-48 -5q-12 0 -77 -25q-5 -3 -18 -13t-21 -15v-15z" />
<glyph unicode=":" horiz-adv-x="222" d="M28 90v2q1 2 1.5 5t0.5 6v9l1 5q20 20 26 20h25q32 -27 61 -63v-41q-30 -36 -57 -36q-11 0 -20 6v7q-15 6 -21 8q-4 7 -9 7zM41 329q0 25 11.5 47t29.5 22q16 0 30 -12q4 -4 8 -7.5t6.5 -5.5t5 -4.5l3.5 -3.5t2 -1q2 -2 13 -25.5t11 -26.5v-18l-24 -26q-17 -14 -30 -15 q-39 17 -40 17q-26 42 -26 59z" />
<glyph unicode=";" horiz-adv-x="304" d="M-26 -86q0 18 26 47q8 9 42.5 46.5t61.5 67.5q2 4 20 32q1 2 4 9t5 10.5t5 10t6 10.5t7 8t8 6.5t9 2.5l8 4q21 -10 56 -36q2 -8 14 -22q14 -42 14 -52t-14 -46q-14 -32 -23 -41q-33 -37 -117 -109q-1 -1 -9 -7.5t-15 -12.5t-15 -12.5t-14.5 -10.5t-9.5 -4h-18 q-2 1 -7.5 4.5t-10.5 5.5q-13 6 -27 41q0 12 -6 30v18zM112 433q0 14 11 40q14 18 21 18h22q18 -14 50 -35q21 -42 21 -65q0 -8 -5 -20q-7 1 -15 -9q-12 -15 -16 -16h-10q-13 0 -58 30q-21 26 -21 57z" />
<glyph unicode="&#x3c;" horiz-adv-x="702" d="M31 323q3 13 14 44q29 27 234 229q53 42 146 137l118 121l28 14q22 -3 53 -26q30 -25 34 -42l4 -6q3 -6 6 -10v-56l-81 -78q-2 -2 -2 -3t2 -3q-19 -15 -39 -41q-65 -41 -107 -105q-7 -5 -17 -11q-18 -14 -40 -47q-16 -12 -53 -33q-2 -2 -2 -4t3 -5q-23 -10 -23 -30 q-13 -8 -23 -8q-6 -10 -10 -27q-16 -12 -32 -20q1 -4 0 -11l-8 -4q-1 -1 -2 -9q21 -23 61 -47q22 -13 66 -40h10q44 -31 88 -46q28 -18 40 -20q14 -9 122 -76q51 -31 63 -37q7 -6 57 -59l11 -33v-36l-26 -36q-5 0 -13 2q-4 1 -12 -7q-5 0 -20 5q-3 0 -10 -7h-10q2 0 -9 9 q-12 10 -39 29q-2 7 -7 12q-77 71 -139 92q-5 7 -5 11q-5 4 -22 4l-115 63q-1 0 -4 -3q-26 8 -37.5 15.5t-23.5 25.5q-17 3 -35 12q-33 26 -45 31q-18 12 -40 18q-21 18 -41 27q-1 2 2 15q-5 5 -12 4q-3 5 -19 23q-22 34 -39 83z" />
<glyph unicode="=" horiz-adv-x="722" d="M53 433q0 27 18 56q17 10 34 13l63 -13l185 -9l149 19q33 -3 61 -11q12 -13 32 -29q7 -12 18 -33q1 -23 8 -33l-15 -21q-30 -17 -51 -20q-66 -10 -102 -11l-168 -7q-8 -7 -13 -12q-17 10 -26 17l-73 -10q-5 0 -62 8q-18 6 -21 23q-10 8 -17 25q-20 31 -20 48zM55 238 q0 17 8 38q8 8 26 23l84 1l181 -10l92 6q4 0 26 8q1 0 4.5 -2t6.5 -3l102 12q27 -16 58 -28q6 -8 22 -37.5t24 -42.5v-9q-5 -3 -18 -22q-12 -8 -54 -16l-175 -12h-130q-82 0 -105 -13q-1 0 -7 3t-7 3h-4q-2 -2 -2 -3q0 -2 3 -4q-4 -4 -14 -4q0 1 -7 10h-53q-16 14 -35 28 q-3 15 -15 25q-11 30 -11 49zM241 130l6 4q-4 -5 -6 -4z" />
<glyph unicode="&#x3e;" horiz-adv-x="587" d="M43 790q0 17 20 46q21 26 36 28l51 -25q11 -13 43 -42q1 -2 21 -22q15 -15 20 -40q30 -49 108 -142q3 -8 6 -12q113 -113 152 -150q3 -2 11.5 -5.5t13.5 -5.5l13 -30q9 -5 22 -21t13 -25q-6 -22 -6 -32q0 -9 6 -12l-65 -87q-18 -12 -49 -42q-3 -3 -3 -7l-144 -131 q-8 -3 -10 -3l-97 -117q-3 -3 -20 -3q-5 -4 -21 -15q-6 2 -13 8h-9l-12 -4l-12 -4q-16 0 -30 8q-2 2 -6 7.5t-9.5 12t-11.5 13.5q-5 18 -16 32v38q0 2 4 8q6 32 48 75q97 94 202 191q24 21 43 40q4 4 34 44l-153 162q-6 6 -3 11q-10 7 -22 14q-1 23 -30 38q0 2 2 6 q-6 5 -12 16q-10 5 -29 21q-9 22 -20 25q-12 12 -45 71q-21 36 -21 62z" />
<glyph unicode="?" horiz-adv-x="727" d="M34 724l8 13q3 9 3 16q0 8 -3 17l17 42q30 18 55 32q11 4 28.5 10t41.5 15t45 16q82 27 139 30l125 8q11 1 30 -0.5t41 -5t39 -9.5l1 -2q31 1 75 -42q41 -39 50 -70q0 -1 2.5 -26.5l2.5 -25.5q0 -76 -75 -190q-2 1 -5 1q-5 0 -7 -2q2 -4 2 -8l-63 -56q-7 -1 -32 -9 q-17 -29 -60 -44q-24 -16 -66 -51q-11 -6 -35 -12q-38 -20 -118 -72q-9 3 -14 3q-4 0 -8 -2q1 -1 -2 -4q4 -1 10 -6q-2 1 -5 2q-2 0 -4 0.5l-2 0.5q-4 -6 -19 -13q-2 -2 -2 -3l0.5 -1t0.5 -2q3 2 6 2q-12 -16 -62 -79q-12 -38 -24 -38q-1 0 -5 6.5t-5 6.5q-4 -12 -16 -12 q0 1 -1 3t-1.5 4.5t-1.5 4.5l-5 -5q-7 12 -16 23h-13q1 7 -10 12l-2 46l10 79q8 9 16 27q27 62 165 148q3 2 12 3q97 60 138 86q1 1 12 5q11 8 45.5 29.5t54.5 34.5q6 10 35 32q31 25 35 34v10l-35 27q-13 4 -59 11q-1 1 -11 1q-11 0 -19 -4q-3 1 -37 1q-23 -7 -39 -7l-19 6 q-21 -7 -38 -12q-77 -8 -107 -28q-14 -4 -38 -8q-10 -8 -75 -51q-5 6 -11 8h-19q-5 -7 -14 -4q-1 4 -12 4q-5 12 -5 16q-2 2 -15 7q0 7 -10 21zM105 1q0 4 4 11q2 12 3 37q1 2 10 17q-1 1 -1 3q0 11 17.5 25t28.5 13q16 -1 45 -24q15 0 30 -31q6 -27 6 -48l-1.5 -7.5 t-3.5 -16.5t-3.5 -17t-1.5 -9q-2 -1 -5 -2l-4.5 -1.5l-1.5 -0.5q-1 -2 -15 -28q-2 0 -6 3l-3 -5v-4.5v-2.5q-3 5 -14 17q-10 -2 -15 -2t-17 2q-1 -4 -6 -10q-5 7 -5 8q0 2 2 2q1 -1 5 2v1h-11q-1 -1 -6 2t-11 6.5t-7 3.5l-5 8l1 7t1 8q-7 7 -10 7v26zM203 -87l1 -1 q-1 0 -1 1z" />
<glyph unicode="@" horiz-adv-x="962" d="M27 309l7 78q0 -8 3 4l10 44q5 17 17 51q11 32 25 39q10 36 61 87q42 40 85 65q70 29 113 45q34 12 92.5 20.5t94.5 8.5q38 0 119 -16q7 -2 65 -18q97 -43 137 -114q36 -30 42 -76l20 -88l-15 -88q0 -1 -11.5 -25.5t-19.5 -41.5q-10 -13 -32 -38q-16 -10 -67 -43v-6 q6 -3 12 -8v-12q2 -2 10 -2v-29q-3 -3 -10 -15l8 -15q-14 -20 -14 -28q0 -3 1 -4q-32 -26 -35 -26q-4 0 -6 2q-4 -4 -4 -9l-24 -12q-17 -9 -21 -21l-87 -23l-2 3l-109 -20l2 -5q-5 -1 -15 0l6 5h-46q-1 0 -9 -3t-8.5 -3t-5 1t-9 1.5t-8.5 1.5l-4 1l-24 -2q-37 0 -153 33 q-63 39 -81 50q0 10 -17 22q-8 6 -16 11.5t-11.5 8t-4.5 3.5q-30 40 -56 118q0 15 -3 51zM167 269q0 -47 21 -68q17 -17 86 -51l95 -15h84q22 0 118 16q36 10 109 33q-30 4 -99 59l-108 -33h-34q-6 0 -11 -5l-20 10q-2 -2 -7 -2q-30 0 -89 74q-2 6 -17 38l-11 57q0 23 18 79 q38 31 59 39q106 43 143 43q13 0 57 -13q12 -9 20 -14q16 -3 22 -5l47 -79q-5 -6 -5 -19q0 -21 14 -46t30 -29q4 3 15 6q40 7 72 41.5t32 77.5l-5 49q-7 8 -61 72q-13 10 -48 23q-41 16 -65 16l-33 -5q-24 -3 -48 3q-2 -3 -5 -5q-45 -5 -76 -11t-62 -15.5t-70 -26.5 l-106 -86q1 -3 -8 -23l-9 -19l-10 -10l-28 -91q-7 -45 -7 -65zM432 366q3 -2 11 -8h8q23 0 53 11t41 22q0 2 -3 7q-1 0 -9.5 1t-9.5 1l-88 -28q0 -2 -3 -6zM476 -27h2h-2zM478 -27v-1l1 1h-1z" />
<glyph unicode="A" horiz-adv-x="812" d="M22 189v37h3l-2 2v1q0 1 2 12q27 24 39 47q23 23 29 48q3 7 12 23.5t14 25.5q11 29 31 57q2 6 29 73l12 20q4 13 4 18q33 68 66 142q4 10 31 54q3 5 22 44q22 62 51 125q13 6 23 11q13 -5 43 -11q34 -24 45 -36l12 -24q40 -51 108 -230q1 -1 8 -1q0 -7 5.5 -24.5 t5.5 -21.5q0 -5 -1 -8q1 -1 3.5 -3t4.5 -4q25 -68 73 -267l5 -10q22 -109 61 -176q0 -10 28 -65l-14 -11q0 -2 0.5 -6t0.5 -6q0 -10 -18 -79v38q-4 -3 -9 -4q-6 -14 -13 -25h-60l-50 65q-10 58 -42 95q5 13 5 15q-5 7 -14 26q-21 27 -44 45q-20 19 -39 30l-16 8t-13 7t-9 5 l-6 3q-25 2 -48 13q-8 3 -14 3l-3 9q-2 -3 -7 -10q-27 4 -58 15q-1 0 -29 -20q-5 11 -9 15l-2 -1l-4 -4q-2 1 -3.5 1.5t-3 1.5t-2.5 1q10 -10 14 -16q-36 -4 -49 -13l13 -6q-16 -16 -33 -24q0 13 3 21h-19l-5 5q-2 0 -6 -0.5t-5 -0.5l-38 -75l-1 -1q0 -2 2 -7 q-18 -35 -21 -41q-12 0 -24 2l-4 -7h-18q-4 9 -8.5 13t-11.5 7t-12 7q0 6 1 8q-5 8 -7 20l-5 7q-5 7 -9 12zM261 420q5 1 20 1q4 -1 7.5 -1.5t6 -1t4.5 -1.5q12 2 20 7l33 1q4 0 26.5 -6.5t26.5 -6.5h1q6 3 9 3l117 -46q-1 3 -5.5 20.5t-9 37t-8 35.5t-3.5 18l-38 120 q-22 69 -53 117q-12 -12 -28 -50q6 -8 -3 -26l-6 9l-12 -18l-3 10l-63 -138q1 -1 1 -8q-29 -32 -40 -76z" />
<glyph unicode="B" horiz-adv-x="839" d="M35 644v33q5 2 5 15q0 4 -2 24q30 19 107 82q11 54 41 54q14 0 32 -15h22l130 45q6 -2 19.5 1.5t27.5 8t16 4.5q82 11 109 11q22 0 36 -1q10 -5 20 -9q35 -9 65 -45q29 -38 29 -70q0 -31 -8 -57q0 -15 -3 -40q-27 -74 -129 -164l1 -2q1 -1 1.5 -2t0.5 -3q67 -19 134 -64 q78 -52 90 -107q9 -9 24 -58l-20 -49l-5 5q-4 -30 -29.5 -58t-54.5 -41q-21 -14 -38 -31q-10 0 -19 -5h-13q-9 -8 -9 -20q-2 1 -13 -8q-2 3 -12 3l-221 -95q-3 0 -10 5l-77 -23q-19 8 -41 8q-2 0 -12 -5q0 4 4 8l-4 2v10q-9 4 -34 15v36q-4 6 -10 12q13 18 13 45 q-9 17 -27 45q-3 9 -20 48l-13 63v32l-10 68l-3 55l10 135l-7 43q-7 -4 -15 -4q-7 0 -14 5v15q-14 -10 -14 -17q-12 7 -30 27l-14 6q3 8 6 22l-3 4q-2 -2 -9 -2zM261 317q10 -79 38 -135q-5 -5 -11 -9v-15q4 -2 7 -5q33 6 91 29l95 40q22 5 128 67q9 13 13 21q-20 16 -69 34 q-19 14 -80 20q-17 10 -25 10l-186 -14l2 -3q0 -13 -3 -40zM265 600l3 -49q188 84 267 171v24h-25q-1 0 -12.5 -1t-12.5 -1l-69 -10q-7 -7 -9 -7q0 1 -2 1q-1 1 -5 1q-5 0 -25 -12q-13 0 -23 -1q-23 -12 -53 -26q-9 -7 -23 -17q0 -9 -6 -17q-6 -27 -5 -56z" />
<glyph unicode="C" horiz-adv-x="901" d="M19 298q0 191 226 396q21 6 35 19q23 20 33 17q6 8 20 26q45 25 80 44q7 -2 13 -2l42 30l136 37h43q1 -2 4 -9.5t5 -13.5q12 -13 17 -16q-10 -4 -10 -14q0 -34 1 -35q1 1 1 2l18 -18q-1 0 -13 -5q1 -2 3 -10l-15 -12q1 0 3 -1t4.5 -2t6 -2t6.5 -2q-17 -10 -28 -10 q-4 0 -6 1l-7 -7q-1 0 -40 -7q-6 -4 -23.5 -12t-40.5 -17.5t-36 -15.5q-30 -18 -103 -57q-40 -37 -82 -64q-36 -38 -89 -103q-20 -10 -20 -23q0 -6 4 -11q-6 -7 -30 -31q1 -1 3 -9l-15 -55v-36q0 -2 4.5 -7t10 -10t11.5 -8.5t8 -3.5q1 -1 6.5 -6t10.5 -8q1 0 78 -22 q27 -5 60 -6l86 -3l96 6l130 15q7 0 13 -3l38 13q1 -3 7 -3l57 15h21l5 -7h35q3 -3 3 -11q2 -2 8 -2q-1 -2 -3 -8q2 -1 3.5 -2.5l2.5 -2.5t2 -1q-8 -4 -18 -14l-1 -2q0 -2 4 -2h14q-2 -3 -7 -19l10 -5q-9 -1 -32 -23q-1 -3 -1 -7t1 -6h-3q-6 1 -11 2q-3 0 -6 -9 q-23 -5 -46 -20l-47 -13q-6 0 -8 2l-7 -5q5 -7 15 -13q-2 -1 -10 -1q-11 0 -32 3q8 0 8 6h-9q-5 -5 -5 -10q-5 5 -15 5v-9l-12 -7q19 0 25 -3q-5 0 -5 -5h-77q-3 0 -3 -3l-68 -12q14 0 44 -8q0 1 1.5 5t3.5 7h9l-2 -3l11 -2l8 5q0 -3 5 -8h26q-11 -2 -32 -9l-10 5l-4 -5 q-4 2 -13 2l-9 -6q12 -3 28 -3q-2 0 -18.5 -1.5t-18.5 -1.5q-3 0 4 5h-18l5 -4q0 -8 -9 -8h-100l-8 7h-5l2 -5q-38 0 -79 -5q-7 6 -7 8l1 1q-7 3 -16 3q-1 0 -9 -1t-9 -1q-21 0 -25 10h-7q-2 -1 -8 -3l-68 24q1 2 5 2q3 0 6 -3h7q5 0 12 4q-12 6 -17 6q-2 0 -5 -3 q-1 2 -32 15q-2 -2 -2 -7h-9q-2 7 -9 8l-13 5q-1 7 -3 7q2 0 2 3q-3 3 -9 3q2 0 6 2l-6 4l-5 -5q-3 3 -8 3q-5 10 -8 18l-28 13q0 2 3 5q-5 2 -13 17q-8 2 -24 33q-7 60 -9 75zM618 67q4 0 12 9h-9q0 3 -3 -9zM857 187h1h-1zM858 205z" />
<glyph unicode="D" horiz-adv-x="919" d="M-95 728v11q9 23 9 25t-0.5 4.5t-0.5 3.5q1 5 12 14q216 117 336 126l8 2q7 0 15 2l8 2h40q9 0 31 5q19 -8 38 -8q25 3 26 3q41 0 81 -12q58 -8 77 -21q127 -35 198 -134q66 -93 66 -193q0 -104 -124 -252q-5 -4 -21 -18q-1 -3 -2.5 -11t-2.5 -11l-131 -108 q-51 -32 -124 -75q0 3 -3 5l-103 -57q-16 -30 -60 -30q-8 0 -12 1q-20 -11 -38 -11l-10 -9l-18 1q-8 1 -19 -8q4 -2 5 -2q-1 -1 -5 -2.5t-6 -3.5l4 8l-6 4q-9 -5 -14 -5q-12 0 -17 8q-14 -2 -20 -2l4 4q-4 7 -8 7q-2 -1 -8 -2q2 4 2 5l-11 8q-5 0 -19 6q0 7 -3 10l5 6 q2 10 -7 19v34q0 5 11 36q-3 14 -13 21q-6 11 -22 38q-8 61 -8 65v297l5 145l-4 3q-14 -3 -71 -49q-3 8 -9 14h-10q-4 0 -4 -4q-11 13 -20 14q-2 17 -19 26q0 1 0.5 3t1.5 7l2 10l-9 9q-1 4 2 12zM172 165q4 0 8 -6l98 29q4 3 153 77q40 9 152 108q127 113 127 178 q0 1 -4 27l-5 25q-15 36 -37 58q-15 21 -44 45q-2 0 -5 -1q-1 -1 -2 -1q-8 0 -14 11q1 0 1 1l-1 2q-1 2 -2 2q-4 -2 -7 -2l-109 41l-116 5l-70 -3q-9 -1 -84 -18q-5 -2 -37 -44l9 -516l-11 -10v-8z" />
<glyph unicode="E" horiz-adv-x="862" d="M32 160q35 105 53 174q-1 3 -1 6q11 18 12 36l-7 32v39q6 7 18 35q9 20 23 17l24 75v13l-4 5h-15q-49 53 -58 103l17 65q29 20 29 21q1 0 7 -1l5 -2q26 0 80 17q5 6 41 36q26 -14 35 -14q2 0 17 3q14 1 23 0l196 42q10 0 11 -3q2 4 2 6l36 6q13 -2 35 -6q14 7 20 14 q4 0 16 -3l60 12q3 -2 24 -6q5 7 15 11q6 0 6 -8q-5 -3 -17 -7q2 -2 13 -2l3 1t11 3t15 4l1 -1q0 -1 -3 -3l8 -9v1v-11q1 -1 5 -2t6 -2q5 5 15 5q26 -6 43 -6q2 -3 2 -7q-25 -13 -24 -31q-20 -14 -32 -22l4 -4q6 0 7 3q3 -6 3 -8q-2 0 -13 -6l-5 8q-5 -8 -15 -8 q-13 0 -21 -2q2 -2 7 -2q-51 -20 -52 -22q-2 1 -4 3q0 -1 -1.5 -3t-4 -5t-4.5 -6h-25q-24 -28 -55 -24q-50 -6 -50 -21q-6 0 -11 6q-35 -11 -33 -12q-9 0 -11 3q-2 -2 -10 -14l-6 6q-1 -1 -7 -1q-8 0 -14 1q-3 -4 -3 -10q0 -2 1 -4h-3h-8q-7 -6 -7 -11l-16 2q-1 0 -14 -4 t-14 -4q-2 1 -7 3q-4 -4 -4 -11l-66 -29q-7 -24 -24 -63q0 -2 1 -5.5t1.5 -8t1.5 -8.5l255 20h74q0 -11 -1 -14h31q-1 -2 2 -10q-5 -6 -7 -7q9 -3 27 -12q-9 -12 -23 -16l-4 -8v-2q1 -1 1.5 -3.5t0.5 -4.5v-12q-3 -4 -15 -9q1 -2 3 -8l-104 -35q-14 0 -18 3q-8 -7 -37 -11 q-1 -2 -3.5 -4t-5.5 -6t-6 -7q-4 1 -11 1q-5 0 -7 -1l-2 1q-2 0 -2 -6q-1 0 -31 -5q-21 -4 -31 4l-76 -31q-8 0 -19.5 -4t-24.5 -10.5t-16 -7.5q-3 -4 -14 -25q-9 -29 -18 -63v-19l325 25l22 -5h47q11 -2 27.5 -4.5t39 -6t34.5 -5.5q4 -1 19 -6t26 -8q4 -4 44 -42v-29 l-10 -11l7 -8q-19 -8 -20 -10h2l-3.5 -10.5t-3.5 -11.5q-2 -1 -11 -1q-12 0 -20 1q-2 -4 -2 -8q-13 -4 -19 -12q0 3 -9 8q-4 -1 -20 1t-19 2q-12 0 -20 -7l7 -6q-13 0 -19 2q0 1 4 7q-2 1 -13 1q0 -2 3 -8l-135 -3q-25 0 -31 -11l-6 5h-22l-101 -17q-9 0 -11 3l-10 -8h-17 q-3 -3 -3 -10q0 4 -3 7h-9q-5 -5 -5 -8q-14 -3 -48 -4q-4 -3 -23 -10l-77 -10h-56l-6 18q-33 23 -45 52.5t-12 84.5zM467 661h1h-1zM468 661q5 -2 3 -4q-1 3 -3 4zM475 674q3 -2 2 -6q-2 2 -2 6zM713 755h1h-1z" />
<glyph unicode="F" horiz-adv-x="865" d="M16 135q5 61 5 64l8 100q23 128 33 218l29 133v17q-2 2 -12 2q-6 11 -5 16q-18 51 -18 57q0 15 28 64l153 28l266 24l116 5l87 -4q4 -4 24 -10l8 5q1 -1 18 -4l59 -22q35 -12 52 -35q0 -1 4 -13t4 -13q1 -1 -1 -9l-2 -9l-10 -10q-2 -13 8 -19q-24 -9 -28 -9q-6 0 -11 5 l-5 -5q-3 1 -11 5q-4 0 -14 -5q-3 3 -15 3v-3q1 -3 1 -5h-13q-10 0 -18 8q-10 -5 -15 -5l-91 -3q0 6 -2 8q-22 0 -22 -13q-10 0 -18 8l-12 -8q-17 5 -26 5q-8 0 -23 -5q0 9 -4 10q-9 -4 -9 -8q0 -1 3 -3l-6 -2t-7 -2q0 6 -4 10q-6 0 -13 -6q1 -3 7 -3q-14 -2 -20 -2t-18 2 q4 -2 6 -2q-3 -2 -22 -6q-21 -2 -65 0q-2 2 -4 2q-10 -10 -20 -10q-23 0 -98 -13q-13 -9 -16 -19q-7 -26 -21 -92v-14q4 -7 12 -10l87 3l210 35l58 5l15 -4l16 -4q17 0 20 1q0 -4 2 -6h38q8 -8 33 -15q0 -5 7 -26q-1 -1 -17 -15l2 -9q9 1 13 -3l-2 -3l-4 -4q-3 3 -15 3 q-2 -2 -2 -3q6 -6 8 -6q-5 -4 -26 -12q-21 -7 -26 -14q-2 4 -5 7q-6 -2 -16 -11q-12 -1 -52 -15q8 -5 15 -5q-23 -3 -41 -16l-8 1q-9 1 -10 1q-13 0 -25 -12h-16l-4 5q-34 -17 -39 -16v4h-6q-5 -8 -17 -15q-7 0 -53 -9q-16 -9 -27 -9q-5 0 -10 1q-3 0 -7 1h-4l-99 -12l-11 5 h-12q-7 -10 -17 -67q0 -38 3 -39q0 -3 -8 -11l-2 -125q-1 -1 -1 -55q-3 -3 -5 -13q-16 -16 -29 -27q5 0 12 -16l-5 -1q-6 -1 -10 -2.5t-4 -3.5q0 -3 -5 -3q-1 0 -2.5 3t-2.5 7t-2 7l-1 3q-5 0 -7 2q-6 -15 -11 -30q-3 0 -19 10l-7 -7h-7q-13 0 -21 22q-2 0 -10 -2 q-5 11 -15 10q-8 18 -8 31l-10 10zM577 438q0 -2 3 -7q9 5 9 9q-2 0 -6 -0.5t-6 -1.5zM654 570v-1v1zM717 482z" />
<glyph unicode="G" horiz-adv-x="1155" d="M31 298q0 203 150 364q71 76 156.5 125t195.5 83q10 3 35.5 11.5t39 12.5t35 8t39.5 4q12 0 32 -6.5t38.5 -17t30.5 -26t7 -29.5q16 -23 17 -37l-9 -19l4 -6q-1 -9 -9 -24t-9 -23q-7 -10 -17 -10q-3 0 -8 5q-10 -8 -14 -13q-31 8 -88 8q-4 0 -26 -8.5t-27 -11.5l-10 9 q-11 -5 -12 -13q-8 -1 -15.5 -3.5t-17 -7t-13.5 -6.5l-140 -61q-4 -1 -11 -15q-23 -7 -58 -45l-6 6q-4 -6 -10 -18q-12 -8 -26 -27.5t-20 -34.5l-13 -4q-5 -14 -18.5 -44t-20.5 -47.5t-13.5 -44t-6.5 -49.5q0 -28 9 -49.5t26 -36t37 -24.5t45 -15t47 -7t47 -2q31 0 88.5 13 t85.5 14q13 5 53 20.5t68.5 27.5t64.5 28.5t62.5 34t40.5 34.5q-15 6 -22 21q-3 0 -8.5 -1t-10 -1.5t-8.5 -0.5q-7 0 -34 9q-14 -2 -40 -6q-4 2 -10 5.5t-7 4.5q-5 -6 -12.5 -7.5t-22 -0.5t-15.5 1l-1 -3q-5 3 -26 3l-5 -9q-9 0 -25 3t-25 3q-7 0 -19.5 -2t-16.5 -2 q-9 -11 -16 -11q-13 0 -19 3q-4 -1 -19 -5t-21 -4q-24 0 -35 10v13q-7 5 -14 15l-14 6l1 8l-4 13l4 10l-12 12q4 14 4 43q10 17 10 22q0 6 -6 12q8 5 13 16l24 9l2 -2q23 1 157 5.5t205 4.5q85 0 183 -65q2 -2 14 -10t14 -10q12 -14 31.5 -43.5t23.5 -34.5q1 -4 1 -12 q0 -16 -1 -24q-10 -12 -11 -20l-9 -4l-3 -8l-4 2l-12 -14l9 -2q-16 -30 -60 -57q-4 10 -6 14q-3 -3 -8 -10t-7 -10l3 -9l-37 -36l3 -1l-92 -52q-6 2 -9 2q-10 0 -33 -20q12 -2 26 0l-3 -3l-12 2q-10 -4 -57.5 -25t-75.5 -32.5t-72 -27.5t-80.5 -23.5t-67.5 -8.5l-2 -7 q-17 -5 -33 -12q-11 2 -41 8l-11 -9l-5 9l-9 -10h-22q-6 6 -19.5 9t-18.5 6l-139 66l-4 -2l-3 4q-9 5 -17 11.5t-16.5 16t-12.5 15t-13.5 19t-12.5 16.5q-57 80 -57 182z" />
<glyph unicode="H" horiz-adv-x="922" d="M14 252v2v-2zM14 254l5 45v65q0 4 19 106q33 181 70 273q0 23 46 75q1 0 4.5 1t9 3t12.5 4q18 -8 43 -28q6 -20 16 -45q1 0 2.5 -1t4 -2t3.5 -2l7 -43q2 -2 2 -3q0 -7 -14 -27q5 -5 5 -15l-43 -188q8 -8 28 -6l229 10l53 7h50l79 15q8 8 11 22q6 32 14.5 62t19.5 61 t25.5 57t31 48.5t38 38t44.5 22.5l45 -30q4 -2 4 -8t-2 -13l-1 -8q5 -5 11 -17q3 -6 9 -5v-23q0 -1 -17 -35q-11 -20 -25 -51q-1 -3 -1 -8q0 -4 2 -14q-9 -19 -12 -35q-4 -12 -20 -116q-14 -93 -24 -132q0 -2 0.5 -11t0.5 -16q-9 -23 -9 -40v-23q-1 -2 -4 -5t-4 -5 q3 -7 3 -17q0 -1 -0.5 -3.5t-0.5 -4.5l-4 -7v-35l-15 -111q-1 -2 -3 -9t-5 -12t-8 -5l-15 -37q-1 3 -8 10q-14 -18 -35 -18l-12 5q-7 -7 -11 -12l-10 10l-10 -3q-6 12 -28 31q-16 34 -23 126l25 197v42l-4 5h-9l-12 -2q-12 -3 -13 -3q-2 0 -7 -6q-1 0 -4 3h-6l2 -4l-48 -11 l-5 1q-6 2 -7 2l-36 -8h-14q-10 -10 -19 -10q-5 0 -23 5q-6 -3 -6 -11h-75q-5 -2 -5 -7h-35q2 -7 -8 -17q-1 1 -1 3t2 8q-2 1 -4.5 3.5t-4.5 3.5q-12 0 -16 -2q1 -2 1 -5q1 -4 3 -5q-4 1 -18 -8q-10 2 -24 2v-7q-8 3 -11 5q-8 -8 -19 -8q-12 -30 -12 -66v-35l-5 -28 q-6 -8 -14 -6q-4 -4 -4 -10q-5 -1 -19 -4q0 -1 -1.5 -2.5l-3 -3t-2.5 -3.5q-2 3 -9 3q-8 -8 -16 -15q-8 2 -12 2q-5 0 -13 -2q-6 6 -9 10q-12 2 -22 15q-19 22 -20 23q-3 13 -6.5 31.5t-4.5 23.5q-5 25 -7 29zM234 306q11 0 17 7q-17 -6 -17 -7zM268 304z" />
<glyph unicode="I" horiz-adv-x="325" d="M41 117l35 586q1 6 3 20.5t4 28t4 24.5q1 1 22 51q15 36 36 40q3 -1 18 -7q9 -10 17 -18.5t12 -12.5l3 -4q17 -19 24 -42l5 -73l-18 -290l3 -71q-5 -8 -5 -16v-41l-8 -67v-40l-2 -143q0 -4 7 -11q-3 0 -11 -8h-7q-3 1 -8 3q-20 -14 -17 -25q-21 -8 -37 -8q-10 0 -18 5 q-6 4 -22.5 16.5t-26.5 19.5z" />
<glyph unicode="J" horiz-adv-x="771" d="M5 150l5 6v17q13 8 16 23q4 18 5 18q23 19 28 17h10q5 -1 15 -12q7 1 15 -0.5t16 -5t15 -7l16 -8l13 -6.5q88 -28 144 -28q11 0 28 1l28 1q23 2 47 12q28 4 56.5 32t28.5 56q3 3 6 12q1 7 7.5 45t6.5 45v33l10 92v66l-5 37v48q0 1 -0.5 3l-1.5 6l-2 8q2 14 -6 38l-5 95 q2 10 3 23q-3 62 58 93h28q8 -18 38 -50q0 -5 6 -20q9 -9 21 -78q9 -53 9 -65v-45l10 -98l-11 -196l-32 -208q-12 -16 -20 -38q-4 -4 -13.5 -14.5t-14.5 -15.5q-35 -29 -65 -46q-2 -5 -18 -14q-10 -7 -71 -19q-67 -13 -87 -12l-133 10l-88 31l-8 8q-16 4 -71 37 q-13 12 -24 17q-2 20 -13 56z" />
<glyph unicode="K" horiz-adv-x="880" d="M27 115l2 105l34 476q1 9 6.5 42.5t8.5 57.5q4 8 10 27q40 47 55 47l12 -1t13 -1q4 -9 23 -21q11 -21 34 -83l-17 -413q2 0 8 4q10 18 33 51q7 8 46 52t70 75q25 24 87 84q4 6 17 22t26.5 33t28.5 35q36 31 75 75q25 30 49 54q3 3 55 45q42 35 60 35q21 0 37 -31 q15 -27 15 -39q0 -2 -2 -4q4 -6 12 -21q-4 -11 -4 -20q-35 -38 -47 -52q0 -3 2 -4l-262 -288q-20 2 -52 -60q-4 -5 -14 -7q-7 -5 -13 -18q-14 -11 -20 -24l18 -15q7 -3 46 -12.5t78 -19.5t46 -13q126 -17 209 -72q5 -5 21 -35q-3 -8 -2 -20q-2 1 -4 1q-5 0 -9 -3 q4 -13 13 -29q-1 0 -29.5 -12t-32.5 -12q-4 1 -10 3q-3 -8 -28 -8l-135 12q-4 2 -41 10q-63 11 -163 36q-45 14 -93 37q-12 6 -52 30q-2 0 -43 43l-9 -5v-255q-5 0 -16 -8q-7 5 -11 5q-8 -11 -8 -15l1 -2l-28 -13h1q-6 -4 -10 -13l-14 4q-3 1 -6 6q-32 12 -52 33 q-15 22 -20 58q-2 17 -5 51z" />
<glyph unicode="L" horiz-adv-x="928" d="M13 83l32 257v30l23 185v32q5 38 4 43q6 95 27 218l42 48l23 8q13 0 23 -9q19 -15 21 -16q1 -7 9 -16q8 -26 8 -32q8 -9 18 -15l-15 -184v-45l-38 -409l24 -2q12 3 45 5l487 71l109 -1q23 -3 63 -19q-1 -1 -4 -7q5 -5 12 -4q0 -1 5 -19q-5 -4 -12 -15l7 -7v-17 q-7 0 -10 -7q-31 -17 -45 -25q-31 -6 -56 -13q-36 -10 -38 -10h-32l-206 -37q-2 2 -8 2l-203 -44l2 -4q9 1 18 -4h-46l-16 -8q0 5 -4 3l-2 -3l-165 -30q-33 6 -34 7q-19 4 -25 16h-18v3q-21 13 -21 40q-4 9 -4 34zM918 232h1q0 1 -1 0z" />
<glyph unicode="M" horiz-adv-x="1086" d="M-28 12q0 25 17 40q17 26 36 68q12 18 20 42q11 18 39 63q35 69 42 83q70 130 71 132q29 55 44 95q53 117 67 198q9 16 32 42q4 4 21 4q7 7 17 7q21 0 41.5 -24t23.5 -47q1 -8 12 -12l-2 -323l7 -57q2 0 4 -2q50 54 127 172q76 118 123 190q24 35 118 160q7 12 12 26 l10 3q15 15 35 30q24 -4 46 -9q17 -17 30 -32q1 -1 11 -26l10 -25v-38q1 -4 2 -26l5 -83q0 -1 4 -23q-1 -3 -1 -10q0 -9 1 -15q-2 -24 -2 -51q-3 0 -4 -6v-30l10 -10l-30 -291v-85l-10 -69q-36 -23 -44 -20q-4 -6 -12 -14q-11 -1 -20 -11q-7 6 -7 8q-29 17 -35 17t-9 -3 q-28 41 -28 80v107l25 273v100q0 8 -7 24q-2 -7 -12 -28q-6 -3 -26 -19q-13 -18 -29 -47q-24 -28 -40 -63q-18 -23 -22 -45q-3 -5 -12 -10q1 -1 -1.5 -10.5t-2.5 -11.5q-5 -3 -7 -3l-2 1q-7 -17 -13 -39q-33 -44 -74 -116q-24 -26 -36 -49q-14 -8 -14 -16q0 -4 5 -11 q-31 -28 -34 -66q-26 -41 -40 -41q-1 0 -7 1.5t-7 1.5q-7 -7 -28 -23q-14 3 -33 3q-4 3 -13 9q-14 9 -28 9q-3 3 -11 13t-14 17q-14 52 -23 178l-7 89l-101 -199l-60 -135q0 -2 3 -5l-26 -64q-6 1 -23 -1q-18 -14 -43 -21l-61 25q-10 34 -10 54z" />
<glyph unicode="N" horiz-adv-x="1056" d="M-2 218v28q0 4 8 21.5t16.5 35t8.5 21.5q46 74 87 224q58 211 66 232q6 16 43 53q3 0 18.5 1.5t19.5 1.5q16 0 46 -18q29 -20 35 -33q69 -63 125 -177q18 -37 50.5 -108t48.5 -104q56 -118 112 -174q33 45 93 250q52 176 72 278q0 25 4 61q0 3 5 19.5t5 22.5q3 3 5.5 7 l5 8t4.5 7l10 4l6.5 6.5l6 6t5 3.5t8.5 3q2 6 5 10q9 -4 38 -30l9 10q5 -10 12 -18h9q1 -8 -4 -18l4 -6q-3 -9 11 -26l-11 -68l-3 6l-5 -6l1 -5q0 -12 -10 -22q7 -9 7 -14l-5 2q-4 -3 -7 -7q0 -3 -2 -13.5t-3 -18.5q4 -2 8 -10q-10 -8 -18 -22l7 -5v-10q-9 -1 -12 -10l5 -3 q-4 -12 -12 -30q0 -34 -10 -39l2 -4l-12 -15l5 -31l-10 -7l-1 -10l3 -5l-12 -11l4 -6q-7 -14 -13 -21l8 -9v-9l-4 -3l-8 -4v-12l13 -2l-9 -8q-5 -12 0 -32q-1 -14 -14 -31q0 -10 -5.5 -18t-5.5 -17q-2 -4 -3 -7.5t-1 -6.5v-4.5t1.5 -5t2.5 -5.5q-12 -20 -19 -33l2 -4l6 5v-4 q0 -9 -5 -21l-10 1l-3 -31l-10 -7q3 -11 4 -14q-8 -27 -14 -43l4 -13l-6 -12q2 -6 2 -13v-2q-1 -2 -1.5 -5.5t-1.5 -7.5t-2 -11l-2 -14l-10 -3l-12 -24q-7 -15 -19 -18q-4 2 -24 5l-2 -4q-10 -6 -21 -6l3 -7q-4 -1 -21 -1q-22 0 -53 25q-113 88 -202 269q-2 5 -16 20 q-3 11 -9.5 23t-19.5 32t-14 22q-18 29 -33 86q-6 20 -39 76q-36 57 -52 73q-17 -27 -28 -84q-3 -15 -8.5 -45t-8.5 -45q-1 -7 -4.5 -16t-8.5 -18t-10 -17.5t-10 -18t-8 -15.5v-3q0 -7 -20 -57q4 -16 4 -20q0 -7 -4 -16t-9 -16.5t-14 -18.5t-14.5 -17t-15 -16t-11.5 -12h-3 q-9 0 -19 -8q-6 2 -11 8h-25l-3 10l-20 7q-4 12 -18 36z" />
<glyph unicode="O" horiz-adv-x="1157" d="M25 377q0 21 24 104q0 4 12 43q20 65 67.5 117.5t110.5 80.5l64 29q50 50 68 55q95 77 278 89q7 -3 11 -10l8 2q-1 1 -2 8h11q3 -5 3 -7q-6 0 -10 -4q24 -8 37 -8q10 0 16 3q-16 4 -38 10q17 6 24 6q1 0 25 -6t48 -11.5t25 -5.5q0 -2 11 -7q0 -4 -4 -8q3 1 16 1l87 -45 q5 0 15 2q1 0 1 -1l-5 -5q33 -24 42 -24q3 -7 10 -20q10 -1 15 8l68 -134q0 -9 -2 -15q2 -11 15 -23l-2 -1t-3 -2q3 -20 10 -44l-15 -107l-45 -132l-93 -105q1 -5 1 -9q-1 1 -3 1h-6l-55 -52v-13q-1 1 -2 3q-1 3 -2 4h-11l-88 -77q-20 -4 -42 -18h-12v-2q-45 -20 -48 -20 q-2 0 -6 2l-72 -35h-8q-20 0 -15 3l-98 -13h-50l-88 13q-51 17 -92 30q-57 34 -80 51q-90 64 -112 175q-9 42 -11 50v53zM177 349q0 -11 8 -49q20 -37 50 -77q1 -1 4 -3.5t6 -4.5t7 -5.5t8 -6.5q3 -2 49 -25q49 -24 61 -24q4 0 6 3q8 -10 30 -10l80 -3q22 0 48 9 q96 18 194 76q119 69 179 164q4 9 9 22.5t9.5 25.5t10 26t10.5 24l2 60q0 33 -23 78q-22 45 -43 47q-4 4 -62 36q-17 4 -53 17q-86 19 -123 19l-65 -9l-2 4l-70 -23q-3 6 -3 8q0 1 1 1l-11 -5q-8 -14 -16 -18t-32 -9q-20 -10 -88 -78l-40 -100q-3 -2 -5 -22q-5 -5 -12 -7 q-4 3 -10 10q-3 -5 -13 -20q-2 1 -4 3.5t-6 5.5t-7 6l-5 -8q-2 5 -1 14q-3 7 -12 17.5t-17 8.5q-15 -15 -16 -19q2 -4 2 -6q-8 -8 -12 -22l-4 -2l-4 -1q2 -4 2 -8q0 -12 -9 -30q-2 -11 0 -13q-8 -27 -8 -30v-47zM929 201q2 -1 1 -4z" />
<glyph unicode="P" horiz-adv-x="959" d="M-11 652q1 9 1 22q0 9 -1 10q1 25 39 56q13 11 52 39q13 4 52 24q1 1 3 5l-1 1q12 5 20 5q4 0 6 -1l70 30q4 -2 6 -2q4 0 48 22q-3 -2 -3 -5h15q3 0 3 5q20 0 20 2l32 8q8 0 9 -2l8 7l12 -2q11 5 30 17h11l5 -5q12 7 22 8l79 15q19 0 26 -1l5 5h21q0 -3 5 -10q0 2 9 7 q10 6 27 6h52q100 0 196 -54q53 -51 53 -134q0 -3 -0.5 -9t-0.5 -9l5 -5v-41q-10 -3 -10 -9q0 -4 3 -8v-5q-20 -64 -59 -106h-10q-3 -6 -7 -10v-15l-60 -37l8 -1h2q-13 -29 -31 -30q1 1 1 8l-4 4l-69 -48l5 -6q-1 -1 -20 -4l-50 -25q-2 -2 -5.5 -5t-7.5 -7t-8 -7q0 2 -3 5 h-6q-2 -2 -2 -10q-34 -12 -74 -32q-21 -7 -87 -32q-9 -6 -15 -11q-14 0 -33 -4q-11 -6 -13 -6l-2 1h-3l-2 2q-33 -21 -40 -21q-2 0 -9 3l-95 -35q0 4 -4 7h-16q4 -4 4 -9q0 -3 -4 -49l10 -94v-48q-5 -2 -13 -7q5 -5 5 -16q-20 0 -33 -12q-20 -3 -48 -18q-38 20 -59 75 t-17 118l7 126l5 14q4 15 4 17q1 6 7 52q3 9 5 35q12 23 10 53l67 219q-13 -5 -33 -22q0 -1 1 -6.5t3 -14t4 -18.5q0 -1 -10.5 -6.5t-13.5 -5.5q-4 -3 -4 -14q-18 -9 -21 -8l-5 -8l-15 3q1 -1 1 -13q-2 1 -16 13l-5 -5q-39 28 -46 79zM222 353h8q-1 0 -1 1q0 7 82 50 q55 30 188 79l52 26q80 26 182 122q42 56 42 82q0 39 -44 54q-2 1 -16.5 2t-26.5 3.5t-14 7.5l-63 5q-40 4 -63 -7l-5 5q-8 -3 -23 -3q0 -1 -2 -5q-15 5 -18 5q-19 0 -140 -23q-7 -1 -68 -20q-24 -7 -28 -26q8 -3 8 -13v-12l7 -7v-17l-25 -123q-4 -9 -4 -18q0 -3 1 -5 q-8 -8 -7 -12zM638 778q4 0 8 -0.5t5 -0.5q-4 0 -13 1zM663 385l5 7v-1l-2 -2q-1 -2 -3 -4zM760 445h1h-1zM765 464l1 -1q3 0 5 4q-1 0 -6 -3zM792 475q0 2 1 3q0 -2 -1 -3z" />
<glyph unicode="Q" horiz-adv-x="1151" d="M15 381q0 42 3.5 64t13.5 56q2 7 7 15q17 57 60 117q42 58 102 92q12 11 42 25q3 7 48 24q41 15 44 15t7 -2q4 2 17.5 6t24 8t17.5 10q147 51 215 54q12 5 17 5q5 -2 19 -6l12 8q5 -2 18 -5q5 5 10 5l84 -2q14 0 39 -7q10 -9 20 -9h13l1 -1.5l2 -3t2 -2.5q25 -10 46 -18 q2 4 2 5q10 -4 13 -7q-2 0 -8 -6q6 -4 24 -20q9 -9 18 -9q5 0 7 2l2 -9l2 -9q13 -9 31 -26q18 -32 50 -79q27 -65 24 -88q10 -23 10 -68q0 -117 -40 -163q-1 -1 -8 -20q-9 -4 -37 -35q-8 -24 -34 -47q-41 -39 -42 -41q-37 -17 -47 -37l40 -67v-41q-3 -2 -28 -23 q-16 0 -29 -1q-1 0 -3 1q-16 9 -21 0l-73 55h-7l-165 -80q-11 2 -12 2l-109 -30h-40q-1 0 -11 -1l-9 -1q-3 0 -3 -4q0 3 -3 6h-11l-6 -2q-5 -3 -10 -5q-12 10 -56 15q-1 0 -2.5 -0.5t-3.5 -0.5l-8 -2q-35 13 -146 71l-55 48q1 2 1 7q0 6 -3 15q-2 1 -8 5t-10 7l-45 125z M125 338q0 -34 20 -80q23 -51 51 -65q5 -2 15 -11q4 -2 60 -17q52 -14 70 -14l66 3q27 3 52 5q26 9 106 28q22 6 71 35q-30 64 -30 75l6 23q0 11 -4 25q19 22 31 29q17 -10 40 -21q15 -13 67 -67h11l63 50h8q13 16 13 18l40 20q0 6 -3 9q15 8 30 19q-1 9 27 31q1 1 32 57 q3 14 9 43v33l-28 75q-8 10 -20 22q0 1 1.5 8.5l1.5 7.5q-8 3 -11 8l-5 -5q-13 15 -41 33q-33 21 -47 21q-8 -1 -20 6q-1 0 -4 -0.5t-5 -0.5q-3 0 -17.5 3t-16.5 3l-52 -3q-10 0 -13 -5q-5 5 -7 5l-123 -20q-38 -6 -146 -48q-1 -3 -7 -9q-8 0 -15 -1q-25 -19 -30 -17 q0 -5 -5 -10q-1 0 -1 2q-1 1 -4 1t-20 -12q-21 -15 -26 -16q-5 -8 -25 -42q-22 -38 -22 -57v-52l-10 -12q-8 -28 -5 -38q-8 -8 -11 -7q-4 9 -15 28q-11 0 -15 4l-13 48q-2 0 -4 2q0 1 1 4t1 4q-5 1 -21 8q-16 -16 -26 -42q-15 -40 -17 -44q0 -20 -8 -38v-42z" />
<glyph unicode="R" horiz-adv-x="922" d="M27 60l3 144l21 395q-2 15 -22 35q0 8 3 9q0 1 -2 7l-3 7q0 12 31 74q130 107 218 115q2 2 10.5 7t18 9.5t18.5 9.5t11 6q7 2 32.5 10.5l43.5 14.5q9 1 20 2t25.5 3t23.5 3l48 6q16 0 75 -11q1 0 21 -11q21 -14 41 -42q26 -19 53 -65l13 -63q-11 -46 -11 -49 q-8 -20 -19 -33q-2 -5 -7.5 -19.5t-9.5 -24.5q-16 -23 -40 -49q-15 -28 -44 -57q-46 -46 -54 -56q-28 -20 -47 -36q-14 -22 -45 -37q-11 -10 -43 -28q-29 -16 -65 -47q0 -7 2 -7h1l2.5 -2.5t4 -3.5t5.5 -5q93 -27 205 -51q180 -37 223 -48q12 0 22 -12l64 -22q51 -33 51 -43 l14 -12q0 -2 -12 -16q8 -4 12 -7v-11l-5 -6q0 -1 1 -4t1.5 -5t0.5 -3l-22 -17q-41 -9 -46 -9q-2 1 -29 2t-34 0q-12 -4 -21 -4l-328 56l-144 49l-122 57q-9 -6 -9 -16v-52l16 -71q-4 -12 -4 -24v-8l-36 -54q-2 0 -15 5l-6 -7q-10 5 -43 10q-8 6 -33 21q-19 12 -19 21 q-6 24 -15 70zM175 356q119 87 183 140q96 80 151 148q58 70 58 79v15q-15 9 -39 9q-54 -6 -65 -6q-51 -14 -99 -26q-46 -20 -129 -47q-47 -23 -47 -51q0 -9 3 -20q0 -12 -6 -35z" />
<glyph unicode="S" horiz-adv-x="840" d="M28 88q6 6 7 33q1 24 19 35q20 4 66 17q1 0 16.5 2.5t30.5 4.5q1 1 3 2t4 2.5t4.5 3t5.5 3t6 3.5l24 -2q8 8 18 11q60 18 165 53q99 33 120 47q20 8 67 45q-1 3 -17 16q-16 10 -175 87q-22 7 -128 53q-74 32 -100 53q-47 17 -100 79q0 6 4 10q-16 41 -17 39q0 39 10 61 q20 38 83 58q30 9 108 33q124 18 114 18q7 0 9 -2q24 12 50 12h65q1 0 5 -1t6 -1h37q6 0 48 -16q15 -12 51 -36v-17l12 -20q4 -12 3 -24l-3 -20l-16 -15h-55q-7 0 -25 6q-36 4 -51 4q-33 0 -162 -23q-21 -3 -64 -26q0 -5 7 -11q8 -3 120 -50q2 -1 6 -2.5t13 -4t16 -4.5 q30 -12 90 -39q52 -12 91 -42q20 -6 43 -22t41 -37t22 -40q11 -8 20 -42.5t9 -60.5q0 -13 -18 -58q-4 -8 -28 -43q-15 -15 -34 -38q-6 -1 -29 -15t-41 -26l-21 -14q-23 -8 -85 -37l-83 -26q-7 0 -12 3q-16 -8 -17 -8t-3 1.5t-3 1.5q-12 0 -41 -15q0 -3 1 -4t3 -1l-169 -38 l-100 10q-6 6 -28 23q0 6 5 11l-13 12q0 8 3 10q-2 3 -13 18zM343 42h1h-1z" />
<glyph unicode="T" horiz-adv-x="1003" d="M-73 662v14l21 45q31 18 33 19q168 30 268 41l563 63h163q0 -5 14 -24q15 -18 15 -21v-3l-1 -1q1 0 4 -2t5 -3q-4 -10 -4 -30q0 -5 -1 -6q3 -6 3 -12l-5 -2q-5 -1 -6 -1q-3 -14 -23 -39l4 -8q-3 -3 -15 -10l-69 6q-66 -4 -108.5 4t-107.5 -3q-7 -7 -7 -10q-7 3 -9 8 q-10 -2 -12 -2q-4 0 -10 2q-7 -4 -7 -10h-30q-2 -4 -2 -5l-70 -15q-3 -9 -7 -24.5t-9.5 -41t-9 -45t-10.5 -57t-11 -57.5q3 -10 1 -25q-39 -232 -42 -348q-3 -4 -13 -4q-4 -12 -4 -22q-17 -10 -25 -19q-7 2 -47 9q-7 17 -9 19h-3q-3 1 -6 1q-10 15 -23 41l3 130 q5 30 20.5 137.5t25.5 171.5q14 54 24 98v19q0 1 -1.5 2.5l-3 3t-2.5 3.5l-24 -7q-2 0 -5 2.5t-5 2.5q-5 0 -23.5 -6.5t-20.5 -6.5l-9 2q-8 1 -9 1l-65 -13q-2 1 -6 2h-4l-2 1l-87 -20l-87 -9l-48 1q-15 11 -36 20q-3 3 -3 11q-4 4 -10 7q0 11 -10 25zM402 13q0 1 1 1z M1005 758q0 -1 1 -2z" />
<glyph unicode="U" horiz-adv-x="1064" d="M19 401v62q0 29 28 168q27 81 37 106q30 61 84 91q10 -2 20 -7q1 -2 23 -16l26 -67q-6 -13 -16 -45q-42 -51 -56 -98q-5 -16 -16 -87l3 -115q24 -167 96 -190l31 -11q1 0 18 -2.5t22 -2.5l5 1q4 1 14.5 3t21.5 4q102 20 220 102q104 71 204 192q31 40 83 130l2 6 l7.5 22.5l10.5 31.5q4 16 4 36q0 16 -3 31q-1 1 -1 3q0 4 3 10q-5 12 -5 17q0 37 49 89l15 -2q4 5 14 10q10 -20 16 -26h16l19 -35q6 -30 6 -35v-51q0 12 -12 -45q-4 -19 -9 -45q-91 -239 -193 -328q0 -8 -7 -16q-17 -15 -146 -134q-73 -54 -167 -107q-8 -5 -16 -14 q-13 -5 -21 -18q-12 -2 -63 -19q-62 -5 -85 -10l-4 -1q-25 2 -91 31v3q-80 53 -126 127l-26 64q-17 41 -15 59zM297 -11q-1 0 2 0h-2z" />
<glyph unicode="V" horiz-adv-x="845" d="M25 683l20 86q16 5 25 18h8q9 0 41 -38q26 -42 44 -105l35 -126l114 -324q21 23 42.5 55t59.5 96t57 94q2 3 8 13t19 30.5t26 41.5q1 3 2 8l2 5q2 3 7.5 12t9.5 15q47 76 147 278q38 50 47 62q5 0 11 11q2 -1 5 -1q6 0 14 4q0 -5 3 -16q10 -7 26 -7l-1 -26l2 -1 q2 -1 4.5 -2.5t5.5 -3.5q2 -14 0 -43q-8 -22 -13 -53q-3 -6 -12 -23t-13 -25q-25 -31 -32 -62q-2 -2 -36 -50q-36 -69 -64 -108l-82 -171l-76 -122q0 -1 -1.5 -7.5t-2.5 -10.5q-3 -5 -95 -168q-5 -10 -14 -17l2 -8q-8 -8 -16 -8q-7 -15 -12 -22l-18 -2q-17 -1 -18 -1l-3 2 l-40 13q-60 73 -96 179q-1 5 -8 26t-20 61t-26 83l-4 22q-1 4 -6 10q0 4 -23 81q-19 63 -55 245z" />
<glyph unicode="W" horiz-adv-x="1453" d="M20 795l3 27l3 26l17 49l34 18q11 -7 47 -49q15 -30 28 -53q46 -114 85 -268l83 -321l7 -7q101 100 161 222q95 194 139 304l17 32q13 13 33 40l31 9q5 -4 19.5 -16.5t23.5 -20.5l42 -95q24 -55 24 -86q4 -13 47 -197q11 -41 38 -125q2 -5 14 -22q4 0 10 9q6 8 46.5 65.5 t88 126t79.5 114.5q41 44 98 127q12 14 70 126q12 16 22 37q21 21 26 25q3 9 14 25q27 0 27 -1q-1 -6 9 -13q14 -25 21 -57v-37q-3 -6 -8 -17.5t-6 -13.5q-2 -12 -16 -40q-14 -29 -16 -37q-11 -17 -26 -41l-49 -77q-5 -9 -51 -61q-6 -8 -6 -14q-6 -2 -17 -15q-9 -22 -41 -65 q-39 -51 -46 -63q-1 -4 2 -7q-1 -1 -3.5 -3t-8 -6.5t-10.5 -8.5q-2 -4 -12 -22q-11 -28 -51 -78q-31 -57 -48 -98q-3 -4 -8 -4l-45 -83q0 -3 6 -7q-13 -12 -24 -9l-7 -20h-13q-3 -4 -10 -10l-48 23l-5 -5q-61 71 -107 231q-21 70 -27 129l-45 170q-1 0 -3 3l-117 -213 q0 -4 2 -6q-5 -14 -22 -31q-19 -38 -51 -110q-36 -50 -50 -80q-62 -59 -62 -107q0 -7 3 -11l-51 -41h-13q-10 0 -41 20q-2 0 -4 -1h-1l-2 -1q-2 5 -22 18q-2 2 -5 14q-27 50 -44 115l-32 116q-7 84 -85 364q-2 5 -7.5 25t-13.5 46t-16 53q-2 2 -12 28q-12 27 -12 37z" />
<glyph unicode="X" horiz-adv-x="884" d="M19 680l1 2l4 4q-3 6 -5 35l44 86l36 12q2 -1 20 -3q43 -22 134 -102q11 -10 56.5 -51t79.5 -71q96 67 247 163q23 14 30 23q64 29 81 29q58 0 64 -19l-8 -6v-9q6 -6 13 -9q0 -10 -8 -21l13 -10l-8 -41q-9 -8 -12 -22q-7 -4 -20 -10q0 -6 2 -12q-5 -8 -13 -6q-2 -2 -2 -7 l-90 -33q-9 -9 -10 -13l-105 -62q-3 -1 -3 -10l-60 -45q31 -49 70 -92l92 -104q16 -45 16 -56q0 -2 -1.5 -8t-4 -16.5t-5.5 -21.5q-43 -58 -66 -58q-5 0 -14 4q-21 -5 -55 32q-7 7 -61 65q-2 6 -9 20q-36 44 -88 102h-10q-6 0 -37 -42l-56 -75q-15 -34 -40 -75 q-2 -3 -31 -93q-18 -57 -51 -73h-31q-7 18 -20 15q0 18 -15 25l-8 51v35q0 1 2.5 11t5.5 21.5t5 20.5l3 10q8 26 30 70q26 47 139 221v6zM99 819h1h-1z" />
<glyph unicode="Y" horiz-adv-x="778" d="M17 801l4 50q14 8 24 25h19l39 -39q10 -13 20 -39q14 -22 26 -59l22 -67q13 -28 51 -112q25 -63 44 -86h8q29 33 77 73q25 39 46 56q3 4 5.5 8t5 7.5t4.5 7.5t6 10.5t8 12.5q25 32 69 80v6l62 62q0 6 3 13q26 31 99 106q3 0 7.5 1t11 2t12.5 2q5 -3 5 -12q1 -1 4.5 -3.5 t5.5 -3.5q5 -24 23 -24q2 -10 13 -48q0 -1 3 -9l-4 -4q2 -4 2 -5l-1 -1q-5 -15 -9 -28l-125 -225q-5 2 -11 -5q0 -1 2 -5q0 -10 -5 -19q-17 -33 -66 -111q-5 -11 -71 -134q-46 -83 -56 -126q-38 -85 -38 -172q0 -24 2 -36q-10 -15 -21 -41q-7 1 -13 -11q-12 -2 -23 -7 q-16 7 -46 17q-9 14 -16 15q-5 14 -16 34q0 14 -5 30q1 1 1 10q0 13 -1 24q7 63 22 145q6 9 14 16q9 8 9 17q0 3 3 16t0 20q8 19 20 40q-9 12 -21 12q-4 0 -10 -2l-9 9l-6 -4q-9 1 -30 14q-6 10 -59 90q-72 155 -130 330q-12 57 -10 77z" />
<glyph unicode="Z" horiz-adv-x="1175" d="M22 31v36q3 4 6.5 19.5t3.5 22.5q36 44 121 123l125 117q18 16 76 70.5t96 89.5q11 10 25 24t35.5 35t41.5 40q20 14 45 43l85 92l-4 3l-106 -5q-9 0 -20 5l-38 -9l-218 -16q-16 -1 -26 6q-13 1 -25 9l-24 30q0 4 1 15.5t1 19t-1 16.5l16 46q6 11 25 22q24 7 62 10 l283 22h116q50 -5 119 -18q11 -11 32 -29l21 -55v-57q-3 -4 -85 -108q-10 -13 -99 -109q-3 -1 -5.5 -3t-5.5 -4.5t-5.5 -5l-7 -7l-7.5 -7.5t-9 -9.5t-11 -11.5q-42 -44 -62 -56q-17 -18 -77 -78q-4 0 -8 -3q-65 -80 -129 -126q-3 -4 -22 -30q-10 -7 -29 -27l4 -3h6l151 9 l471 -6l58 6l35 -5q1 1 15 7l59 -7l27 -14q5 -14 23 -45l-1 -2v-3q0 -3 2 -11q0 -2 -2 -8t-2.5 -10t2.5 -9l-10 -10v-6q1 0 9 -4q0 -1 -7 -13t-7 -13q-9 -2 -22 -9l1 -4v-7q-1 0 -4.5 -1.5t-6.5 -2.5t-5.5 -2.5t-2.5 -2.5l-292 11q-5 -5 -9 -5h-103q-1 0 -6 1t-6 1l-14 -1 l-14 -1q-14 0 -58 -2l-4 4l-233 -8l-176 -16q-4 -3 -9 -9l-83 -14l-35 11h-23q-8 8 -16 14l1 4q0 1 0.5 3.5t0.5 4.5q-26 26 -26 36z" />
<glyph unicode="[" horiz-adv-x="381" d="M5 -189q6 11 15 44q-1 4 -1 22q0 1 1 4.5t2.5 10t3.5 12.5l-2 137l4 146l18 440q23 170 56 229q11 7 32 23l211 37q8 -1 33 -10q0 -7 15 -29q11 -15 11 -34v-8l4 -6v-14q-8 -8 -9 -10q-10 -32 -64 -40q-8 -3 -30.5 -8t-44 -10t-29.5 -10q-9 -45 -13 -63l-12 -266v-212 l-5 -60v-104l7 -120h119q21 -5 31.5 -8t20.5 -10t13.5 -18.5t3.5 -29.5q0 -24 -22 -43q-6 -6 -51 -34q-12 -5 -93 -27q-93 -24 -116 -24q-22 0 -51 21q-33 25 -47 32q0 1 2 5z" />
<glyph unicode="\" horiz-adv-x="615" d="M-59 801v64q0 10 12 29.5t19 21.5q1 0 5.5 0.5t10 1t10 1l4.5 0.5q18 0 35 -12l31 -23q2 -14 40 -70l163 -371l-2 -6q7 -16 19 -39q8 -23 24 -63l55 -110q6 -8 19 -22q0 -1 1.5 -11.5t1.5 -11.5l94 -171q46 -86 100 -154q17 -28 40 -50q3 -6 12.5 -22t15.5 -26 q2 -22 8 -38q-3 -15 -5 -21q-39 -18 -49 -18q-1 0 -9 8l-6 -5t-6 -12q-9 -5 -33 -31h-10q-18 8 -26 8l-58 66v12q-36 52 -101 173q-9 17 -20.5 36.5t-17.5 29.5t-12.5 25.5t-12.5 33.5q-15 21 -21.5 35.5t-18.5 47.5q-5 9 -47 83q0 2 3 5q-5 9 -26 61q-13 31 -32 48 q0 6 5 11q-8 17 -13 29q-19 16 -19 30q0 8 1 13q-18 40 -33 63q0 5 -9 37q-7 7 -15 25q-2 7 3 15q-3 6 -14 18q0 11 -24 52q-25 44 -25 50q-6 4 -33 68q-5 12 -24 45q0 1 -5 20.5t-5 20.5z" />
<glyph unicode="]" horiz-adv-x="520" d="M-70 841q0 1 6 21l7 21q11 17 56 37l172 -23q1 0 3 2q6 2 16 2q6 0 13 -1h13q13 0 18 4q13 -6 29 -5l85 7l52 -7l25 -24h14q34 -53 34 -81q0 -6 -2 -12l12 -71l-7 -150l-70 -670q0 -2 5 -9l-5 -106q0 -10 -39 -50q-26 -13 -38 -13l-226 -8q-45 -1 -102 23q-67 30 -63 77 q3 13 18 25q16 5 40 12q85 13 107 13l103 12l22 174v36q10 105 35 299.5t28 215.5v132l-10 7h-72l-60 8h-32l-43 2q-27 2 -88 13q-56 41 -56 87z" />
<glyph unicode="^" horiz-adv-x="532" d="M39 644l181 261q10 6 29 6q60 0 135 -57q13 -10 52.5 -40.5t66.5 -50.5q16 -3 50 -32q4 -5 4 -14q0 -8 -4 -16l15 -7l2 -2q0 -3 -19 -15v-21l-20 6h-4q-4 -7 -16 -12q-12 2 -24 2q-3 0 -34 18q-46 25 -66 37q-12 7 -91 72h-7l-98 -135q-1 1 -5 3q-4 -4 -6 -11q6 -3 6 -5 q-8 1 -26 -12l-17 -5q0 -11 2 -11h-9q-4 -4 -4 -5h-9q-8 -7 -20 -9q-22 7 -64 55z" />
<glyph unicode="_" horiz-adv-x="1026" d="M33 -96q0 17 8 38q3 3 25 23l85 2l332 -7l363 15q4 0 26 8l10 -5l103 12q32 -19 58 -29q7 -9 22.5 -38.5t22.5 -40.5v-9q-3 -1 -17 -22q-16 -13 -54 -16l-175 -13l-552 -12q-84 -2 -105 -12q-1 0 -7.5 2.5l-6.5 2.5h-5q-1 -1 -1 -3q0 -1 3 -4q-4 -3 -14 -3q-1 2 -4 5 t-4 5h-52q-8 7 -36 28q-3 12 -14 25q-11 30 -11 48zM218 -203q3 0 6 3q-1 -4 -4 -4q-1 1 -2 1z" />
<glyph unicode="`" horiz-adv-x="426" d="M13 842l2 9q-2 4 -2 7q-1 7 5 21q14 21 40 20t45 -18q6 -1 18 -6l125 -85q70 -48 138 -63q5 -9 17 -16q17 -26 16 -31l13 -8q0 -4 -7 -10q0 -5 4 -9q-1 -1 -4 -3.5t-5 -4.5l2 -15q-32 -7 -32 -12q2 0 2 -4l-11 -1q-28 8 -65 18l-206 120q-29 17 -71 52q-1 2 -11 5 q-13 29 -13 34z" />
<glyph unicode="a" horiz-adv-x="676" d="M23 135q0 17 39 106q34 37 50 38q9 9 72 51q7 3 101 43q75 18 69 18q1 0 27 -2t29 -1q29 -13 29 -29v-4q6 -5 13.5 -19t10.5 -22q3 1 9 1q23 0 42 -18q86 -134 105 -195q-3 -3 -9.5 -11t-13 -16.5t-13.5 -16.5l-17 3q0 -1 -3 -5.5l-5 -7.5q-5 2 -20 12q-12 -3 -56 32 q-10 19 -44 67l-129 -97q0 -1 1.5 -2.5t2.5 -3.5l1 -2q-6 -11 -43 -27l-107 -34q-75 0 -120 59q-21 57 -21 83zM169 152l28 -3q101 25 159 84q1 1 23 18h-26q-19 0 -116 -41q-31 -19 -66 -52z" />
<glyph unicode="b" horiz-adv-x="750" d="M25 367q0 17 14 42q15 23 31 33l3 250q1 2 3 22q0 33 4 81q3 45 24 78q6 6 12 11q20 9 24 9q1 0 10 -3l10 -2q5 -11 24 -38q8 -18 15 -48q0 -7 2 -33t2 -30l10 -238q2 -4 6 -5q2 1 4.5 1.5t5.5 0.5t6.5 0.5t9 0.5t9.5 1l102 9l99 -2q12 0 40 -3q44 -8 70 -15q2 -1 20 -11 q18 -4 39.5 -17t40.5 -30.5t33.5 -38t20.5 -38.5q18 -57 20 -52q-2 -10 -34 -75q-16 -9 -20 -27q-57 -52 -142 -95q-104 -46 -143 -63q-27 -5 -55 -14l-38 -11l-3 1h-7q-5 1 -11 1q-15 15 -29 15h-6q-5 10 -12 18q-1 -1 -8 -14.5t-9 -15.5q-10 -4 -22 -3l-10 -10h-8 q-3 0 -28 13q-6 -3 -15 -3q-25 21 -25 36q-12 15 -15 43q-8 14 -15 57q-6 31 -6 21v52q-5 33 -4 38q-1 4 -1 14q0 12 2 18q-5 9 -32 20q-18 22 -18 49zM215 321q0 -1 2.5 -7.5t2.5 -7.5v-53l19 -131q2 2 5 2q1 4 6 10q42 24 128 56t107 49q18 3 91 64v8q-14 16 -33 28 q-52 21 -123 24q-11 4 -14 4l-99 -5q-28 -2 -92 -25v-16zM739 302v1v-1z" />
<glyph unicode="c" horiz-adv-x="623" d="M30 136q0 24 15 67q14 43 26 53q78 81 250 158q4 1 17 7.5t23 10.5q4 0 53 16q38 12 63 12q1 0 12.5 -1t12.5 -1q5 0 13 2l23 -66q-6 -13 -22 -31l2 -7q-1 -1 -140 -64q-6 -4 -21 -19q-58 -20 -89 -33q-44 -18 -65 -61q2 -2 2 -5q28 -19 82 -19l226 25l60 -15l5 -11 q2 -15 0 -38q-8 -15 -32 -28q-36 -19 -40 -23q0 -10 -12 -16q-30 -16 -97 -28q-26 -16 -50 -16q-7 0 -13 2q-6 -5 -16.5 -7.5t-27 -4.5t-22.5 -3l-57 8l-7 -2q-7 -1 -8 -1l-35 10l-11 -2q-8 0 -35 10q-21 9 -32 13q-53 59 -53 108z" />
<glyph unicode="d" horiz-adv-x="772" d="M25 120q0 24 16 78q9 13 25 30q113 80 316 120q7 2 102 17q11 1 17 8l14 415q4 12 9 40t9 42q34 52 74 54q57 -27 52 -109q1 -2 1.5 -6.5t0.5 -7.5q2 -1 7 -12l-4 -481l-16 -63h-28q-14 -18 -34 -18q-4 0 -20.5 4t-20.5 4q-20 -3 -79 -7t-92 -13q-50 -13 -99 -34t-49 -38 q0 -15 92 -16t166 11q29 4 69.5 15t66.5 19l27 9q16 -3 28 -3q9 0 13 1l8 -9l-7 -12q8 -6 22 -10q0 -5 -14 -12q-15 -9 -15 -23q0 -7 4 -15q-3 -3 -32.5 -20.5t-31.5 -20.5q-7 -3 -37.5 -16.5t-52.5 -23.5l-18 -2q-18 -2 -19 -2l-48 -10q-27 0 -51 -2l-20 -3l-48 3 q-4 0 -8 -4q-12 -1 -38 -3l-28 -1q-25 -1 -123 24q-22 6 -58 25q-21 17 -29 37q-19 16 -19 41z" />
<glyph unicode="e" horiz-adv-x="624" d="M32 198q0 48 41 116q46 75 101 97q2 1 16 1q25 21 83 35q51 13 89 13q32 0 76 -24q-1 -1 -1 -12q3 -1 11 -2.5t11 -2.5q0 -2 6 -10q0 -16 14 -47v-21q0 -4 -6 -10q3 -5 3 -11q0 -10 -9 -24q0 -2 -0.5 -5t-1 -7t-0.5 -8q-6 -9 -33.5 -33t-53.5 -41q-24 -16 -62 -33.5 t-64 -26.5l-26 -10q10 -5 53.5 -12.5t77.5 -7.5q25 0 70 10.5t77 21.5l33 10l7 -12q7 -11 13.5 -19.5t12.5 -13.5q-10 -15 -17 -29q-7 0 -10 3q-7 -2 -17 -9q18 -8 28 -14q-6 -2 -27 -21q-29 -9 -62 -16q-13 -7 -18 -22l-124 -16q-135 9 -214 61q-57 58 -72 135q-5 13 -5 17 zM184 250q6 0 11 -5q9 4 23.5 8.5t24.5 8t23 9.5t24 14q25 18 58 54q-1 0 -7 13q-16 -7 -41.5 -14.5t-42.5 -17.5q-51 -33 -73 -70z" />
<glyph unicode="f" horiz-adv-x="663" d="M34 210q0 28 45 85q32 13 44 6q12 6 28 6q7 0 11 -1l4 4v32q0 2 -5 21.5t-5 21.5v65q0 58 13 139q15 97 38 150q60 133 143 147q9 3 93 22q22 2 63 -13q1 0 6 1.5t6 1.5l25 -8q5 5 9 5q24 0 149 -58q67 -49 109 -101q-2 -3 2.5 -25l4.5 -22v-11q0 -1 -5.5 -7t-9.5 -13 t-2 -12q-4 -4 -24 -9q-18 -4 -25 -7h-8q-24 24 -30 23q-1 14 -27 34.5t-43 20.5q-22 17 -86.5 38.5t-99.5 21.5l-54 -11q-17 -9 -36 -29q-3 -4 -20 -35q-29 -116 -29 -248q0 -5 0.5 -12t0.5 -9l7 -89q8 -6 14 -6l183 7q15 -3 21 -5q4 -6 10 -12q12 2 30 -19q-1 -2 -7 -8v-7 q5 -5 10 -5q-4 -4 -4 -10q0 -4 1 -6q-14 -9 -20 -20q-19 -5 -50 -27q-61 -16 -101 -25q-4 -1 -14 -10q11 -16 34 -57q13 -63 14 -58v-8l-33 -20v-8h-28q-5 -5 -5 -13q-22 5 -26 5l-10 -2q-25 27 -75 66q-16 24 -48 69h-14q-2 0 -19.5 -5t-19.5 -5h-45q-33 0 -45 12 q-45 2 -45 52zM518 898h1h-1z" />
<glyph unicode="g" horiz-adv-x="627" d="M-183 -276l34 51q3 2 48 33q5 -4 5 -11t-5 -13q2 -1 6 -1q3 2 3 9q10 4 26 8l-1 -17l-9 -7q1 -1 8 -19q12 3 15 3q-6 -13 -18 -31v-10q2 -1 4 -5q0 -23 2 -42q4 -8 10 -17q34 -26 46 -30.5t62 -7.5l44 -2l34 7l2 -0.5t3 -0.5q3 -1 6 -1q9 0 58 7q20 10 51 21q41 14 85 37 q16 10 32 26q79 49 79 182l-31 192l-4 4h-10l-135 -43q-8 2 -35 4q-53 -5 -125 41q-77 48 -77 97l5 20q-2 8 -2 13q0 34 35 80q32 42 56 46q12 6 23 11t24.5 9.5t23 7t27 5.5t26 4.5t32 5t32.5 4.5l65 3q5 -1 12 -3t13.5 -3.5t16.5 -4.5t19 -5q34 -10 60 -30v-12 q23 -11 29 -43q2 -3 6 -9.5t6 -9.5q-6 0 -8 -2v-9t0.5 -6.5l0.5 -2.5q-5 2 -9 2l-4 -4q6 -16 24 -49q1 -4 0 -8q14 -115 23 -180l13 -102l-3 -97q-12 -102 -62 -173q-4 -5 -39 -44q-7 -3 -35 -26q-28 -17 -50 -22q-3 -2 -45 -26l-50 -20l-159 -26l-77 -3l-2 1q-2 0 -6 1 l-8 2q-28 3 -68 16q-36 9 -49 16q-18 13 -53 38q-8 13 -26 27q-30 69 -30 74v70zM-92 -195q7 0 7 2q0 -2 -3 -2.5t-4 0.5zM173 213q0 -1 3 -6q52 -13 75 -13q38 0 89 18q61 21 71 49l-49 4l-96 -8l-19 -9l-58 -20q-1 -1 -6.5 -6t-9.5 -9zM532 257z" />
<glyph unicode="h" horiz-adv-x="739" d="M35 197v99q0 9 2 11q1 0 1 -1l10 201q2 22 4 32q-2 12 -2 16q0 12 5 19q-2 5 -2 25q0 28 20 223q6 14 26 26h10q19 0 49 -33q14 -15 24 -30q15 -69 13 -88l-12 -138v-37l-5 -45v-148l4 -4q8 5 30 20t34 23q13 10 68 54q22 8 52 24q68 37 130 37l16 -5l15 -5 q58 -7 125 -118q25 -59 25 -106q0 -3 -0.5 -8t-0.5 -7l-15 -198q8 -32 8 -65v-1t-0.5 -2.5t-1 -4t-0.5 -4.5q0 -5 -1 -9v-5q-13 -1 -18 -15l-23 -8q-13 8 -40 24q-40 47 -38 65q-18 25 -14 90l10 160q3 62 -48 62q-5 0 -18 -5q-112 -8 -280 -198q-14 -13 -65 -36 q-1 -1 -11 -9l-7 7q-7 0 -15 -2q0 1 -1 4t-2.5 6.5t-2.5 7.5q-8 -2 -22 -8q-4 5 -15 14q-21 75 -21 93z" />
<glyph unicode="i" horiz-adv-x="260" d="M58 162l3 88l12 58q13 11 18 25l26 6q6 0 16 -7q5 -5 19.5 -21.5t24.5 -27.5q16 -28 16 -50v-61l-1 -1l-1 -5q0 -5 -2 -25q-1 -14 -1 -44v-50l-15 -36l-11 2q-6 -4 -10 -7l-10 5l-10 -5q-5 3 -41 12q-13 20 -24 62.5t-9 81.5zM106 556l5 55q4 1 16 13h31q14 -9 33 -35 q12 -5 18 -20q7 -20 12 -29q-4 -6 -8 -10q5 -13 5 -23q-4 -7 -26 -18q-2 2 -10 2t-10 -2q-21 10 -48 15q-19 44 -18 52z" />
<glyph unicode="j" horiz-adv-x="385" d="M-76 -265l4 28q1 -1 4.5 -3.5t6.5 -4.5q8 8 10 8q5 -8 5 -9q10 -8 57 -49l74 -34q47 -21 69 -21q13 0 21 4q26 61 34 133q10 85 11 125l2 136l-18 179v90q3 0 13 31q8 8 28 23q13 -5 26 -5q9 -21 40 -68q23 -34 27 -63q0 -10 1.5 -32t2.5 -33l2 -39l13 -113l-7 -268 q0 -13 -19 -114q-11 -69 -44 -138q-25 -25 -54 -25q-8 0 -78 15q-26 11 -45 14q-45 27 -93 57q-6 14 -29 33q-11 22 -27 46q-11 24 -37 97zM181 489v72q2 3 11 10h7l19 -5q19 -5 20 -5q3 -15 23 -20q3 -16 15 -31v-30q0 -12 -27 -26h-16q-15 0 -42 15q0 1 1.5 5.5t1.5 5.5 q-6 6 -13 9z" />
<glyph unicode="k" horiz-adv-x="713" d="M30 91v50l70 578q0 2 4.5 26t4.5 26q2 16 -1 25q11 66 13 73q10 39 30 51q21 0 48 -28.5t35 -50.5l9 -45l-15 -195l-10 -62v-28l-13 -125l4 -6q116 58 272 142q37 11 78 35q9 4 15 3l75 43q12 -2 24 -12l22 -22q3 -6 3 -20q5 -6 13 -9l7 -46q-9 -15 -18 -36l-392 -205 q2 -1 5.5 -2.5t7.5 -3.5l8 -4q63 -10 60 -11q2 0 5 3q15 -4 50 -13.5t82 -22.5t74 -20q1 -1 7.5 -5.5t22.5 -16.5t31 -23q0 -6 -5 -11q11 -12 15 -25l-8 -7l3 -2v-14q-10 -7 -31 -28l-82 -10l-199 28q-100 14 -173 57h-7q-8 -8 -8 -28l1 -33q0 -5 -1.5 -11.5t-3 -17 l-2.5 -17.5q-15 -21 -44 -21q-6 0 -7 3q-2 -4 -2 -5h-11q-9 10 -28 25h-6q-1 -2 -4 -5t-4 -5q-19 25 -19 27v32z" />
<glyph unicode="l" horiz-adv-x="258" d="M31 91l41 353q19 155 40 368q6 23 15 56q9 34 25 50l21 -2q13 -13 26 -18q3 -6 24 -33q16 -45 16 -58v-53l-88 -774q-18 0 -35 -8q-6 0 -11 5q-12 -2 -18 -2l-3 3q-3 2 -9.5 7t-12.5 10q-5 0 -12 -8q-4 13 -10 23q-9 66 -9 81z" />
<glyph unicode="m" horiz-adv-x="999" d="M33 143q3 59 43 216l18 34q0 3 -1 4l34 18q15 0 36 -32t27 -40q2 -1 16 8q49 45 83 70q53 40 90 47q9 1 15 11q24 9 32 9q34 0 85 -111q3 -5 4 -8l13 -74q4 4 33 25q11 8 27 25q41 47 100 85q69 43 115 43q31 0 68 -43q36 -43 39 -83q9 -44 19 -83l2 -68q0 -3 -1 -15 t-3 -35.5t-4 -47.5q-15 -46 -14 -47q-6 -6 -11 -4l-10 -17q-12 1 -51 13q-8 12 -25 27q-8 21 -8 44v131l-22 66q-3 -2 -5 2q-6 -3 -29 -10q-57 -11 -122 -82q-4 -8 -90 -128q-4 -9 -38 -71q-1 1 -26 -7q-2 2 -10 2q-6 -5 -18 -12q-12 25 -27 32h-7q-1 0 -5 -2.5t-6 -2.5 q3 0 -13 16l-2 78l14 159q0 9 -5 36q-1 -1 -4 2q-20 -8 -34 -14q-9 -10 -32 -29q-58 -40 -104 -112q-41 -44 -67 -103q-11 -9 -3 -17q5 -7 1 -7q-5 -1 -59 -1q-23 33 -48 33q1 6 -6 28q0 2 -1.5 11.5t0 15t6.5 8.5z" />
<glyph unicode="n" horiz-adv-x="603" d="M26 105v1l8 63q3 23 8 49q1 9 3 20t5 26.5t5 25.5q4 32 29 99l26 12q15 -3 21 -5q0 -10 9 -18l15 -15q4 -15 13 -30q7 -30 10 -44q85 50 114 91q7 2 28 20q27 16 83 46q26 8 38 8q8 0 45 -25q32 -50 54 -151l-3 -81l-15 -161l-20 -57q-5 -1 -18 -11h-8q-3 0 -11 8h-6 l-9 -3q-13 11 -35 29q-2 5 -4 12t-5.5 17.5t-6.5 18.5l-1 52l9 141v37q0 1 -1.5 2.5l-3 3t-2.5 3.5q-46 -21 -66 -33l-100 -106q-62 -66 -93 -124q-14 -8 -31 -8q-4 0 -19 6l-5 -8q-2 0 -17 3v13l-14 9l-5 -3l-10 -4q-6 14 -11 33q0 13 -2 25q0 4 -0.5 8t-0.5 5z" />
<glyph unicode="o" horiz-adv-x="684" d="M36 200l5 46v72q0 1 5 19l10 36l6 18q11 26 75 68q7 2 35 9q7 5 16 9q2 -2 6 -2q9 3 28 9q29 9 49 9h94q16 0 36 -7q33 2 136 -64v-10q14 -13 44 -31q10 -10 42 -80q6 -35 6 -65q0 -38 -22 -63q0 -1 -1 -4l-2.5 -7.5t-2.5 -8.5q-10 -13 -53 -63q-90 -58 -102 -65 q-112 -38 -169 -38h-33q-5 0 -12 4q-8 -1 -80 19q-32 20 -76 58l-24 42q-16 57 -16 90zM156 203q1 -3 3 -10q13 -15 48 -30.5t61 -15.5q60 11 68 11l79 31q59 24 78 42q24 21 24 37v13q-40 64 -73 64q-1 0 -4 -1q-2 -2 -3 -2h-6q-10 16 -52 15l-54 -2l-120 -23l-6 -8v-18 q0 -3 5 -15l-10 -10l5 -12q-7 -6 -15 -10q0 -1 -14 -24q-14 -25 -14 -32z" />
<glyph unicode="p" horiz-adv-x="797" d="M-59 282v44l9 13q-3 21 23 41q3 2 17.5 12.5t21.5 15.5q3 8 10 15q10 -3 13 -3l165 78l103 30q18 -7 40 -7l4.5 1.5t8.5 2.5t5 1h51q1 0 6 5q20 -3 48 -10q54 0 88 -18l2.5 0.5t4.5 0.5q6 2 7 2q56 0 123 -76q23 -29 38 -53q31 -77 31 -114l-5 -15.5t-5 -16.5 q0 -29 -30.5 -63t-57.5 -45q-25 -7 -28 -17l-105 -53l-101 -33l-3 3l-172 -43q-5 3 -8 3q-6 0 -10 -3l-47 20l-14 -99v-30l-15 -150l3 -103l-8 -86q-8 -4 -21 -18q-7 -1 -11 8q0 -1 -9 -10q-8 -1 -18 9q-39 17 -50 67q-9 72 -9 76v109l15 196q3 41 54 315q15 37 38 39l20 -3 q19 -12 29 -33q2 -5 5 -10.5t4.5 -9l3 -7t2.5 -5.5t1 -3l1 -22l-10 -102q0 -9 4 -21q62 28 142 57q85 14 183 63q6 3 15 4q19 14 30 17l54 51q-9 22 -38 39q-48 27 -51 30l-10 -3l-18 10q-10 -2 -11 -2l-58 14l-118 -2q-3 0 -21 -3t-19 -3q-85 -10 -140 -40q-13 -1 -53 -23 q-49 -25 -49 -48q0 -10 10 -24q-3 -4 -8 -4q-5 -5 -4 -12q-1 0 -5.5 1t-5.5 1q-2 -5 -5 -15q-3 0 -13 5q-2 0 -7 -5h-14q-4 6 -11 13l-6 -5q-13 18 -23 23q-2 21 -8 36z" />
<glyph unicode="q" horiz-adv-x="633" d="M26 85q0 42 28 99t70 98q28 28 43.5 42t47 35t64.5 33q38 14 121 23q18 2 33 3q27 0 55 -6q12 -9 20 -9q7 -10 11 -23q15 -9 25 -23q1 -4 -3 -13l8 -12v-8q-1 -1 -4 -11q-2 -5 -6 -8t-10.5 -6t-9.5 -5q3 -2 12 -11h-73q-49 0 -70 -20q-105 -14 -167 -74q-24 -23 -18 -28 q2 -1 7 1q-7 -5 -9 -11q5 -8 21 -8q3 1 16 3t27.5 2t16.5 -5l261 70q8 -7 14.5 -14t12 -17t9 -17t7 -20.5t5.5 -20.5t6 -24.5t6 -25.5q6 -51 10 -64l1 -1v-58l6 -71l-3 -184q-8 -42 -9 -88q-11 -43 -24 -88q-31 -9 -29 -11q-12 0 -43 16l-20 71v363l-10 89l-5 7h-14 l-131 -40l-2 2q-3 -1 -4 -4l-145 -26q-3 -1 -9 -1q-27 0 -78 24q-68 32 -68 75z" />
<glyph unicode="r" horiz-adv-x="696" d="M27 103v42l1 2v4l2 6v45q0 23 14 68q18 61 40 61h15l17 -15h7q14 0 90 49q18 8 72.5 31.5t90.5 39.5q2 -1 50 20q8 0 46 8q6 1 12 2.5l10 2.5t7 1.5t5 1.5h1h49q52 0 121 -69q2 -2 4 -12q12 -13 12 -25v-14q-1 0 -13 -5q0 -3 -2 -7l10 -10q-6 -6 -24 -9q-19 -4 -22 -7 l-91 20q-21 -3 -64 -9q-44 -16 -88 -27q-81 -33 -140 -60q-83 -38 -104 -116v-2.5t0.5 -5t1 -8t1.5 -11t2 -12.5v-16q-1 -1 -3 -5.5t-2.5 -5.5t-1.5 -4.5t-0.5 -5.5t2 -4.5t4.5 -4.5l-50 -31h-9q-8 5 -27 20l-13 -2q-1 1 -7 9.5t-10 15.5q-2 5 -6 14l-4 9q-6 30 -6 31z" />
<glyph unicode="s" horiz-adv-x="541" d="M35 115q36 14 44 14h37l50 7h33l82 10l7 6q-6 6 -12 11q-4 2 -12.5 5.5t-20.5 8.5l-24 10q-73 31 -114 66.5t-51 73.5q-3 13 -9 20v53q0 4 9 21q5 53 198 53q24 -4 83 -11q62 -24 76 -32q41 -24 57 -60q0 -2 -7 -14t-7 -14l2 -6l-26 -18h-8q6 0 -5 3q-12 5 -55 16 q-66 8 -75 8l-69 -9q2 -2 2 -6q2 -2 8 -6l9 -6q239 -95 239 -210q0 -20 -11 -47q-8 -14 -69 -38q-67 -26 -99 -26h-3t-5.5 0.5l-7 1t-10 1.5t-12.5 2q-24 3 -37 -2l-48 10h-42q-7 0 -42 11l-35 14q-3 11 -15 23q0 5 3 8l-5 5q2 7 2 20t-5 23z" />
<glyph unicode="t" horiz-adv-x="871" d="M25 319q0 14 11.5 32t22.5 17l178 12l117 27q17 125 37 263q22 69 41 118q18 21 40 35q14 -7 56 -35l10 -55l-42 -264v-38h69q1 -2 7 4h15q1 0 8.5 -1t8.5 -1q32 7 33 7q3 0 15 -5q17 5 73 5q22 -4 70 -11q15 -9 48 -22q0 -9 -4 -13q3 -13 14 -24q8 1 13 -4h-17 q-4 -10 -4 -12q0 -1 1 -2v-1q-10 -6 -15 -6q-25 -27 -31 -27h-42l-44 -10q-8 2 -15 2l-62 -12q-1 0 -7 1t-8 1t-39 -5q-57 -8 -59 -9q-16 -2 -48 -20q-23 -138 -23 -147v-38q0 -2 -7.5 -36t-7.5 -37q-9 -4 -56 -26l-18 12q-16 11 -20 11q-21 32 -25 70q0 3 -6 65l10 79v29 l-4 5h-10l-115 -23q-6 -2 -12 3l-91 -18q-8 5 -29 16q-10 4 -19 23l-12 24z" />
<glyph unicode="u" horiz-adv-x="568" d="M41 228q0 19 10 58q30 23 41 23q60 -30 62 -89q2 -26 31 -63q36 -16 36 -18h16q2 0 7 2t15.5 5t19.5 6q41 27 68 49q38 33 42 67q4 8 8 23q2 6 9.5 30.5t13.5 42.5q16 51 32 70q1 0 7.5 -1t7.5 -1h16q2 -5 12 -14q5 -9 30 -49q1 -6 0 -28t4 -25q-14 -70 -24 -106 q-8 -31 -41 -90q-33 -46 -53 -66q-36 -38 -71 -44q-14 -4 -42 -18q-50 -8 -55 -8q-111 0 -194 171q-8 48 -8 73z" />
<glyph unicode="v" horiz-adv-x="724" d="M13 228q0 18 13 35.5t29 17.5q15 0 53 -35q16 -11 34 -32q55 -103 133 -151q78 103 173 222q82 133 169 219q12 -8 31 -11q3 -2 31 -32q10 -9 10 -30q0 -27 -24 -66q-16 -26 -44 -69q-23 -26 -45 -70q-7 -10 -17 -15q-41 -67 -132 -193q-13 -24 -45 -72q-2 -7 -11 -34 q-3 -1 -17 -6q0 -7 4 -7l-6 -2q-6 -2 -12.5 -4.5t-12.5 -4.5l-6 -2h-32q-29 0 -45 21q-23 11 -132 127q-27 41 -45 62q-30 50 -45 76q-9 50 -9 56z" />
<glyph unicode="w" horiz-adv-x="877" d="M33 331v39q0 16 36 45h10q11 0 39 -27q12 -3 20 -17q9 -19 12 -20q15 -55 55 -152q17 5 42 43q7 3 18 14q11 20 47 64q33 43 42 64q7 10 7 18q7 2 21 12q11 0 20 3q11 -1 36 -14q72 -50 141 -207q6 -8 24 -27q14 8 23 22q5 7 41 56t66 90q11 13 72 78q5 -3 6 -3 q-4 -8 -4 -13l4 -2l20 18q0 -2 18 -22q-2 -4 -2 -9q2 -2 10 -2q0 -1 1 -10t1 -10q0 -22 -31 -107q-8 -9 -30 -63q-23 -44 -72 -113q-56 -78 -90 -105h-31q-48 0 -97 91q-26 39 -65 120q-8 17 -26 44q3 0 -6 3q-11 -16 -54.5 -80.5t-76.5 -112.5q-51 -33 -93 -37 q-15 10 -30 23q-12 18 -31 37q-26 51 -42 90q-51 121 -51 179z" />
<glyph unicode="x" horiz-adv-x="636" d="M32 67q5 38 31 78q3 3 54 69l-54 35q-10 30 -21 48v40q0 6 6.5 16.5t15.5 19.5t14 10h10q20 0 90 -41l71 -41q0 1 117 61q119 61 142 61q17 0 24 -5q20 -15 33 -21q15 -16 23 -32q-8 -34 -8 -36l-10 -10v-13q-12 -8 -48 -16q-24 -15 -68 -35q-37 -24 -77 -51 q34 -31 45.5 -42.5t27 -32t29.5 -49.5q0 -2 2 -7.5t6.5 -18t7.5 -22.5q-3 -21 -25 -41q2 -11 -3 -16q-1 0 -5 -0.5t-7 -0.5q-5 -1 -10 -1q-3 0 -18.5 7.5t-18.5 7.5l-38 38t-29 28.5t-14 13.5q-44 41 -74 57q-36 -13 -73 -57t-49 -80q-19 -18 -48 -33q-18 5 -29 20 q-10 14 -19 23z" />
<glyph unicode="y" horiz-adv-x="557" d="M38 291q0 22 11 53q9 10 28 28h7q8 0 46 -36q10 -15 16 -42q0 -3 14 -62q12 -54 28 -54q41 0 105 54t101 101q9 2 20 10q9 -3 26 -3l25 -30q6 -2 10 -4q21 -26 21 -64q0 -59 -56 -245q-6 -23 -81 -227q2 -2 7 -2h-7l-46 -109l-50 -160q-4 -3 -28 -28q-1 0 -15 -4t-15 -4 q-3 1 -11 3q-5 5 -47 51q-10 36 -15 74l15 71l47 138l92 219q-2 6 -4 10q-51 -16 -75 -16q-79 0 -129 104q-40 83 -40 174z" />
<glyph unicode="z" horiz-adv-x="648" d="M24 125q8 30 58 60q69 39 73 41q24 13 97 74l-2 4l-100 -8l-45 13q-24 18 -24 63q0 18 11 46q12 5 18 14q13 5 35 7l95 5q4 -1 14 -2.5t13 -2.5l87 5q38 3 90 -16q8 -8 8 -15q1 -1 3.5 -2.5t6 -4t6.5 -4.5q2 -4 5.5 -9t9 -13t9.5 -15v-8q0 -2 -3 -17q-1 -35 -40 -66 q-44 -28 -65 -41q-39 -33 -117 -102q8 -5 22 -5l9 1t10 1l40 -7q6 3 12 7h8q5 0 10 -5q18 8 43 8l65 2q14 1 43 -6l1 -1q2 -2 4.5 -4t4.5 -4h12l18 3q3 -5 10 -33l10 2q-2 -5 3 -14q-4 -1 -15 -10q0 -1 2 -10q-5 -3 -17 -7q12 -7 13 -8q-9 0 -17 5q-24 -9 -31 -10 q1 -10 -3 -15l-133 -18q-7 -7 -7 -10l-154 -7h-82l-101 32q-5 12 -18 36z" />
<glyph unicode="{" horiz-adv-x="458" d="M-7 253v28q0 20 17.5 40.5t35.5 24.5q9 4 28 8q40 9 68 46q25 32 25 64q0 8 -1 12l-43 236q3 12 3 36q9 45 11 62q11 38 49 63q14 4 53.5 15t62.5 17l38 4q8 0 15 0.5t10.5 1t4.5 0.5q22 -4 70 -11q14 -9 26 -12q7 -14 13 -30q7 -7 12 -13v-28l-15 -31q-8 -3 -21 -12 q-15 -5 -29 -5l-125 5q-27 0 -45 -37q1 -11 1 -25q0 -9 -1 -10q5 -27 19 -87.5t21 -94.5q4 -16 7.5 -28t5.5 -16.5t3 -11.5t1 -18q0 -49 -18 -103q-6 -11 -29 -42q5 -5 20.5 -21.5t25.5 -27.5q11 -24 11 -60q0 -74 -21 -111l-50 -87q-49 -84 -49 -143q0 -33 15 -40 q44 -16 80 -16l2 1q2 0 6.5 0.5t8.5 0.5q6 0 12 0.5t7 0.5q7 0 37 -6q0 -4 30 -17q13 -29 14 -31q0 -8 3 -25q-18 -24 -15 -43q-24 -7 -48 -23q-48 -13 -68 -13q-34 0 -154 35q-4 9 -9 14q-43 21 -80 70q-16 31 -16 74q0 25 13 102q0 1 1 2t2.5 3.5t2.5 4.5q6 34 40 105 q5 10 24 35.5t34 53.5l2.5 10t4 15.5t4.5 16.5q-9 18 -61 21l-38 -5q-10 4 -11 13q-6 2 -17 2h-8q-5 8 -9 24q-2 1 -4.5 3.5t-7 6.5t-7.5 7z" />
<glyph unicode="|" horiz-adv-x="223" d="M30 -60l10 596q1 27 3.5 116.5t3.5 150.5l10 57q6 35 21 52l21 -1q15 -13 27 -15q4 -6 27 -31q19 -45 21 -56l5 -53l-16 -859l-13 -68q-16 1 -36 -8q-6 0 -10 6q-2 -1 -7 -2q-2 0 -6 -0.5t-5 -0.5q-1 3 -25 20q-4 1 -12 -8q-1 3 -11 25q-8 70 -8 79z" />
<glyph unicode="}" horiz-adv-x="460" d="M22 -267q0 31 15 45q17 17 76 44q56 24 84 58q6 24 6 45q0 23 -7 45q0 16 -2 25q-46 157 -46 184q0 1 6.5 32l6.5 31q8 17 30 55q-1 14 -23 43q-19 27 -18 44q-5 8 -5 11q0 36 30 108l12 30t3.5 11t-1 2.5t0.5 5.5q12 25 28 83q4 8 4 14q0 1 -0.5 3t-0.5 3q11 38 11 61 q0 14 -11.5 30t-24.5 16q-1 0 -3 -0.5t-3 -0.5l-65 -12q-63 -6 -81 48q-3 8 -6 15.5t-4.5 11.5t-1.5 5q0 23 20 47t41 27l105 15q68 3 151 -77q46 -60 48 -154l-22 -131l-54 -148l97 -73q0 -7 -3 -63q-3 -9 -7 -16q-14 -7 -20 -17l-24 -8q-16 -6 -22 -20q-21 -19 -21 -44 q0 -9 5 -26t12 -36.5t8 -23.5q6 -15 11 -36q7 -25 17 -87q0 -20 2 -38l2 -26q0 -68 -28 -112q-25 -39 -103 -80q-77 -41 -123 -41q-15 0 -35 14q-22 17 -47 25q-4 2 -12 1z" />
<glyph unicode="~" horiz-adv-x="765" d="M34 680q1 1 4.5 9t9 19.5t12.5 24.5q6 5 24 21l95 84q70 37 134 37q22 0 85 -21q19 -9 55 -33q58 -45 60 -46q12 0 33 15q36 17 156 109q4 3 24 14q16 2 24 4l32 -12v-4q4 -6 13 -6q1 -1 1 -2t-2 -7q7 -7 12 -11v-30q0 4 -11 -10q-1 -2 -3 -5q-24 -27 -67 -69 q-29 -21 -46 -40q-80 -61 -126 -62l-16 -6h2q-9 0 -32.5 7.5t-24.5 7.5q-34 9 -88 59q-49 46 -73 46q-6 0 -38 -16q-32 -17 -45 -17l-121 -102q-4 1 -9 2h-3q-8 -2 -22 -8q-11 4 -23 8q-26 37 -26 40z" />
<glyph unicode="&#xa1;" horiz-adv-x="267" d="M41 -114l4 123q15 157 45 407q-1 10 -1 45q4 22 14 56q21 15 20 25q21 10 33 10l27 -2q53 -32 53 -115l-8 -43q-16 -91 -21 -144q-3 -38 -9.5 -147.5t-11.5 -177.5l2 -108q-7 -6 -12 -32q-32 -21 -61 -21q-17 0 -38 18q-9 14 -24 32q-12 14 -12 27v47zM123 807q0 -3 1 1 q0 2 2 14q1 2 1 3q-1 4 -1 10q0 15 17 32q-2 12 32 27q19 -7 38 -12q7 -5 16 -15.5t16 -24.5t7 -25v-5q4 -9 4 -20q0 -21 -15 -36.5t-35 -15.5q-31 0 -42 5q-11 16 -29 33q-12 10 -12 29z" />
<glyph unicode="&#xa2;" horiz-adv-x="569" d="M13 304q0 14 3 19q-1 4 6 13q21 72 99 130q66 49 141 71q12 7 36 24l8.5 23.5t8.5 28.5q0 4 -1 5q8 10 9 18q5 20 24 83q7 6 7 17q2 5 45 68q5 1 16 6q7 -3 23 -3q1 -1 4.5 -3.5t7.5 -5.5l8 -6l17 -34q1 -20 6 -59l-30 -96v-12q3 -1 9 -7q21 -2 66 -5q7 -9 35 -35v-46 q0 -3 -4 -8q1 -10 -11.5 -32t-20.5 -26q-6 2 -10 2q-11 0 -11 -3l2 -2q12 0 30 -9l-68 2q-5 0 -23 -5.5t-20 -5.5l-12 3q-5 -3 -9 -8t-6 -10t-5.5 -12.5t-5.5 -11.5q-8 -26 -38 -129v-25l6 -6q7 -1 68 -17q43 -12 88 -12l8 -28l-5 -6q5 -25 5 -29q7 -7 7 -11q-6 -2 -18 -9 q-1 -1 -7 -8.5l-10 -12.5l-68 -15q-23 -2 -63 0q-3 0 -13 -5q-4 4 -7 10q-2 -2 -16 -10q4 -4 10 -4q-1 -1 -7.5 -3t-10.5 -4q-6 -6 -15 -34q-7 -21 -13 -32t-12 -26q-3 -3 -8 -3q-3 -3 -16 -27q-6 8 -38 38q-8 66 -14 105q-2 3 -8 9q-13 2 -23 7q-2 1 -10 2t-13 2 q-18 15 -37 23q-2 2 -42 37q-1 3 -15 20q-9 21 -24 42q-5 8 -5 28q-9 17 -2 28l-5 5zM166 282l52 -38l20 74l-3 21q-45 -19 -69 -48v-9z" />
<glyph unicode="&#xa3;" horiz-adv-x="748" d="M38 94q5 37 8 48q2 33 31 87q43 57 99 66q31 9 41 9h27l11 101l-5 38l-79 6l6 6q-4 3 -15 3q-7 19 -20 33q-9 24 -9 39q0 34 64 34h55l1 2l1 2q3 18 3 38q0 9 -2 31q6 21 6 41q7 34 21 93q6 13 13 38q21 28 35 44q33 22 53 30q27 6 67 16q4 2 0 2h7q5 -1 20 -1 q50 -10 101 -38q62 -34 81 -79l7 -37q0 -7 -10 -38l-4 2q-13 -18 -23 -29q-5 0 -11 7l-9 -1l-29 43v12q-17 25 -76 44q-3 -2 -12 -3q-39 -1 -45 -14q-38 -20 -47 -70q0 -2 -1.5 -10.5t-5 -28.5t-6.5 -40l2 -44l6 -6l140 13q42 -4 48 -4q14 -1 43 -15q2 -8 13 -15q1 -2 3 -7 t3 -8q6 -4 11 -7l-9 -7q0 -3 3 -6q-1 -1 -1 -8q-7 -6 -26 -12l-1 -1v-1q0 -1 2 -7q-21 -3 -63 -18q-117 -17 -133 -17h-4q-5 -5 -11 -9q5 -5 8 -5q-14 -2 -30 -7l-6 -155q-3 -9 -3 -20q0 -2 0.5 -6t0.5 -6q10 -12 71 -51q71 -47 90 -47l12 1q0 -2 5 -2h26q4 0 31 6 q13 0 53 23q40 22 45 22q7 0 19 3q8 -6 11 -16l5 -1q11 -17 20 -20q-1 -4 -6 -15q1 -1 6 -1q0 -2 9 -16q-3 -2 -11 -10q0 -5 5 -7l-34 -34q1 -1 13 -6q-27 -20 -67 -39q-81 -18 -87 -18q-4 0 -10 -1h-11q-50 0 -109 33q-5 3 -18.5 11.5t-39 24.5t-50.5 32q-2 -4 -7 -14.5 t-7 -15.5q-20 -68 -72 -116q-50 -31 -92 -28l-67 5q2 11 -10 11l-8 -2q-18 11 -52 65q-1 4 -1 10v5zM165 89q3 0 6 -3t3 -6q3 4 12 9l32 70v18h-5q-22 0 -44 -54q7 -5 7 -6q-3 -1 -11 -2v-26z" />
<glyph unicode="&#xa5;" horiz-adv-x="774" d="M41 784q0 8 12.5 33t18.5 29q10 5 48 11q15 -15 29 -19q4 -4 19.5 -20.5t27.5 -28.5v-10q91 -172 121 -228q25 -38 77 -125q1 -2 11 -7l300 390l48 15q13 -2 27 -13q15 -12 19 -12q3 -11 3 -17q0 -8 -3 -9v-8q1 -14 3 -14l17 -18q0 -2 -1.5 -5.5t-3 -8.5t-2.5 -9 q-40 -40 -144 -162q-61 -72 -98 -146q-23 -22 -56 -77q-2 -25 -28 -56q18 -9 122 -21q99 -10 151 -40q0 -1 1.5 -8t3.5 -13q-8 -6 -8 -17q0 -8 3 -17q-25 -21 -41 -22l-73 -6h-110q-1 2 -7 -4l-78 3q-4 0 -11 -7q-21 -135 -81 -303q-16 -14 -35 -21q-6 0 -11 5l-7 -2.5 t-9 -2.5q-25 0 -48 26t-20 51l56 249l-5 5h-84q-18 6 -50 5q-6 1 -32 23l-6 21.5l-6 21.5q0 33 18 45q4 2 11 5t13 5.5t14.5 6.5t16.5 8q3 0 8.5 1t10.5 1.5t12.5 1t14.5 1.5l33 4q7 0 12 -5q14 5 20 10l8 -5h14l4 4v7q-27 34 -56 85q-37 64 -81 147q-4 6 -16.5 33t-23.5 47 q-24 49 -88 151q0 1 -2.5 18t-2.5 18z" />
<glyph unicode="&#xa6;" horiz-adv-x="224" d="M76 466q0 5 4 11l-2 20l3 1q0 3 5 15q0 9 -1 26q0 20 3 21q0 21 1 23q-2 2 -3 4q6 18 7 28l-1 1v4q-2 8 3 18q0 20 -1 37q2 12 5 19q0 10 -5 25l-7 162q0 1 -0.5 3.5t-0.5 4.5q0 1 0.5 4.5t0.5 6.5q3 3 6 3l6 12l3 -3q1 5 8 5l16 -5q3 -1 8 -8q28 -6 30 -57l5 -123v-23 q-1 -10 -1 -18q1 -1 3 -4l-2 -140l-12 -139l-3 -5q-7 -1 -10 2l-2 -3l-10 -1l-5 -10l-15 2l-27 26q-1 -1 -2 -1q-2 0 -3 1l2 4l3 -2l4 4q-1 5 -9 6zM81 -117q2 8 4 11l-2 20q2 2 8 16v1v2.5t-0.5 3.5t-0.5 5v6.5v7.5v20q2 0 3 1q-1 18 1 23q-2 2 -3 4q6 18 7 28l-1 1v5 q-1 6 2 17v37q0 6 5 19q0 8 -5 25l-7 162q-1 2 -1 8q0 14 7 14l6 12l3 -3l2 5h6l16 -5q3 -1 8 -8q27 -6 30 -57l5 -123v-23q-1 -10 -1 -18q2 -2 3 -4l-3 -140l-12 -139l-3 -5q-6 -1 -9 2l-3 -3l-9 -1l-5 -10q-3 0 -6.5 0.5t-5 1t-2.5 0.5h-2l-26 26l-2 -1q-2 0 -3 1l2 4 l3 -2l4 4q-2 5 -9 6z" />
<glyph unicode="&#xa7;" horiz-adv-x="569" d="M22 707q0 28 23 82q30 28 85 67l73 32q9 2 22 6t32.5 9.5t35.5 9.5q57 9 79 9q33 0 50 -14q12 -14 38 -29l10 -32l-5 -22q-5 -7 -16 -10q-9 -2 -38 -6.5t-47 -7.5q-10 -9 -50 -15q-32 -15 -48 -18q-80 -35 -111 -73v-30q0 -16 49 -53q14 -5 65 -33q14 -3 100 -31 q70 -50 86 -64q52 -47 52 -83q0 -1 -0.5 -5t-0.5 -6q29 -62 30 -100q4 -14 4 -20l-4 -16q0 -10 -7 -35l-26 -52v-17l42 -88v-43q0 -5 -14 -53q-16 -49 -17 -50l-17 -25.5t-22 -32.5q-7 -8 -62 -67q-7 -10 -74 -51q-52 -33 -52 -69l-17.5 -10.5t-20.5 -12.5q-15 1 -29 -2 q2 -2 6 -2q-2 0 -18 -6l-15 -5q-15 0 -24 11q-21 25 -24 27q0 4 -15 34t-15 31q0 50 44 82q81 63 104 94q96 87 114 160q-2 13 -27 38q-4 3 -32 25q-34 19 -55 32q-19 12 -125 87q-13 16 -38 41q-3 3 -6 9q-22 22 -34 45q-9 23 -28 88q1 21 13 73q7 18 29 60q-52 76 -52 137 zM175 437q0 -56 113 -109q9 -12 21.5 -21.5t19.5 -12.5t30 -10.5t30 -10.5q18 24 18 51l-11 41q-64 66 -117 67q-84 36 -83 39h-8q-1 -1 -7 -16.5t-6 -17.5z" />
<glyph unicode="&#xa8;" horiz-adv-x="356" d="M29 770q1 2 5.5 9t9.5 15l10 16q-2 0 -7 -4q-6 6 -6 8l16 -3l-1 9h18q10 7 26 8q18 -11 56 -29q3 -3 3 -15q1 -1 5.5 -4.5t7.5 -6.5l-2 -22q-4 -5 -12 -18q-44 -14 -82 -14l-40 27q-7 7 -7 24zM240 760l1 21q5 10 10 19q44 17 81 20l42 -24q8 -8 8 -24q-3 -7 -21 -41 q2 0 6 4q6 -6 6 -8l-16 2l2 -9q-9 0 -17 -1q-9 -7 -26 -9q-15 10 -58 24q-4 3 -4 15q-6 3 -14 11z" />
<glyph unicode="&#xa9;" horiz-adv-x="797" d="M14 441q2 10 6.5 36t7 37t7.5 29.5t11.5 31.5t15.5 25q39 49 53 67q19 13 47 36q48 51 143 73q3 2 20 15q26 -6 38 -6q25 31 110 31q27 0 46 -9q32 -14 38 -15q7 -6 51 -39q31 -24 37 -43l31 -31q73 -127 72 -220l7 -22v-64q0 -13 -9 -48l-12 -47q-37 -57 -55 -96 q2 0 -2 -2t-18 -8q-37 -40 -87 -72q-74 -35 -199 -35q-85 0 -183 62q-119 76 -157 219q-9 12 -12 46q-3 40 -7 49zM159 399q0 -20 1 -23q9 -17 9 -23l61 -61q8 0 12 -3q65 -49 125 -49h46l74 18q1 1 11 9q4 -2 5 -2q27 0 67 46q34 37 46 67q6 27 6 43q0 18 -7 46 q0 41 -19.5 82t-41.5 63q-26 17 -50 17q-6 0 -16 -2q-10 0 -29 3l-42 -7l-44 7q-16 -7 -17 -7q-5 0 -13 2l-109 -69q8 -3 12 -3l75 39q76 22 92 26q8 -6 24 -5q23 2 24 1q14 -7 31 -16q5 -22 23 -37q0 -8 5 -38l-5 -34q-5 -6 -14 -8q-4 0 -13 -2t-25.5 -5t-31.5 -5 q-41 -16 -66 -22q-2 -2 -9.5 -8t-13.5 -10q2 -1 3 -6q31 -11 66 -20q5 -1 15.5 -2.5t15.5 -2.5q21 -7 37 -25q6 -19 6 -27q9 -9 15 -20v-7q-3 -1 -18 -21q-3 -8 -4 -10q-1 -1 -5 -3t-7.5 -4.5t-7.5 -4.5h-76l-81 16q-16 11 -61 47q-12 25 -40 75q-6 21 -6 32l12 74 q-47 -50 -47 -121z" />
<glyph unicode="&#xaa;" horiz-adv-x="440" d="M59 694q0 24 13 49q19 38 20 42q40 53 90 67q1 0 37.5 4.5t38.5 4.5q27 0 83 -14l2 -1q2 -2 4.5 -5t6.5 -7l10 -10l12 -12q0 -6 3 -12l-10 -40q23 -44 54 -88q4 -14 20 -33q29 -63 29 -82q0 -1 -4 -13t-4 -13q-3 0 -11 -8h-20q7 0 -4 1q-7 1 -22 2q-26 26 -45 35 q-20 25 -39 44l-55 -35h-2l-2 1q-11 0 -23 -18h-68q-2 0 -71 33q-43 53 -43 108zM184 674l6 -6q10 3 21 3q20 17 45 53q-5 15 -13 22q-20 -4 -40.5 -27.5t-18.5 -44.5z" />
<glyph unicode="&#xab;" horiz-adv-x="783" d="M22 293q0 14 17.5 35t30.5 22q7 8 35 26q24 15 33 31q6 -1 12 3q42 36 63 53q14 11 80 73q38 35 71 44q22 -13 57 -48q31 -62 31 -70q0 -10 -10 -19q1 -1 3 -10q-6 -3 -18 -14l-17 -14l2 -8l235 158q17 -4 34 -11l9 -9t14 -16t7 -13q34 -28 34 -80q0 -17 -53 -58 q-6 -4 -15.5 -10t-25.5 -16t-29 -18q-23 -14 -62 -48q39 -37 147 -143q-3 -17 25 -37q5 -15 13 -31q-3 -5 -3 -15q0 -2 0.5 -6t0.5 -7q-7 -7 -16 -25l-3 -2q-2 -1 -7 -4.5t-10 -6.5q-29 8 -53 8l-8 -2q-2 0 -5 -1h-3q-22 0 -110 80q-13 11 -80 73q-21 26 -63 73 q-15 35 -21 58q1 4 1 15q0 13 -5 40q0 2 1.5 4.5t3 6.5t2.5 7l-4 4l-131 -110q-2 -3 -3 -9l233 -173l-2 -10q35 -37 35 -67q0 -32 -21 -43l-8 -12q-18 7 -42 6q-44 -2 -46 0q-16 11 -189 134q-109 78 -157 139q-10 39 -10 73z" />
<glyph unicode="&#xac;" horiz-adv-x="1100" d="M60 445q3 15 6 23q15 51 67 54l71 -10h28l335 -19l309 -4q39 13 40 13q44 0 75 -22q15 -19 50 -47v-1.5t-0.5 -4t-0.5 -5.5q-1 -6 -1 -11q10 -16 10 -36l-8 -85v-219q-4 7 -15 15q-10 -11 -20 -29q-7 -9 -15 -9q-3 0 -6 3l-4 -4v-18q-1 1 -20 7q0 -1 -11 -5q-14 7 -35 7 q-6 0 -10 -2q-16 7 -22 12.5t-7 20.5q-11 5 -17 15.5t-7 18t-3 34.5l2 91l10 94l-3 4l-4 8q-15 0 -23 2l-20 -5l-149 8l-7 -3q-7 -2 -8 -2q-2 0 -5.5 2.5t-4.5 2.5h-15q-3 -4 -13 -4q-1 1 -4 1q-4 0 -7 -2q-10 2 -14 5q-17 -5 -22 -5l-93 12l-234 5q-10 0 -38 3t-33 3 q-35 8 -51 17l-43 41q-1 4 -10 30z" />
<glyph unicode="&#xad;" horiz-adv-x="729" d="M33 280q0 18 8 39q2 2 10.5 9.5t14.5 13.5l85 1l181 -10l92 6q4 0 26 8l6 -3q1 -1 2 -1.5t2 -0.5l103 12q32 -19 58 -29q15 -20 30 -54q1 -3 6.5 -11t8.5 -14v-9q-3 -1 -17 -22q-19 -13 -54 -16l-175 -13h-130q-81 0 -105 -12q-1 0 -7 2.5t-7 2.5h-4q-2 -1 -2 -3t3 -4 q-4 -3 -14 -3q-1 2 -4 5t-4 5h-52q-8 7 -36 28q-3 14 -14 25q-11 30 -11 48zM218 173l6 3q-2 -4 -6 -3z" />
<glyph unicode="&#xae;" horiz-adv-x="823" d="M12 517q0 2 5 34q1 4 6 35.5t10 57.5q13 26 48 88q8 8 65 72q15 8 30 25q23 16 88 58q27 9 67 24q33 5 55 7q7 4 34 9l90 -12q5 -10 15 -20q79 -21 162 -107q78 -79 111 -167q0 -18 1 -33q5 -10 5 -14v-66l-16 -108q-7 -20 -29 -53q-6 -16 -31 -50q-8 -10 -15 -19 t-10 -14l-3 -4q-85 -80 -140 -92q-8 -2 -17 -11q-30 -7 -95 -18l-54 7h-34q-9 0 -86 22q-194 83 -236 195q-26 121 -26 154zM153 493q0 -29 10 -60q15 -17 67 -54l28 270q0 1 -2 15l-1 15q-102 -89 -102 -186zM313 724q12 -4 19 -4l73 40q-6 0 -16 2zM361 325l46 -8 q12 0 20 5q17 -5 21 -5q6 0 44 8q6 4 10 7q2 -2 9 -2q6 0 42 21q-1 0 -31 7q-23 0 -51 16q-36 18 -54 24q-23 28 -38 39zM413 762h12l8 8h-17zM531 510l38 -29q24 -26 34 -55q-10 -12 -2 -42l1 -2q70 82 67 103q9 26 12 61l-10 61q-67 102 -124 112l-6 -3v-6q0 -18 11 -30 q9 -48 9 -61q0 -9 -5 -12q2 -4 2 -8q0 -7 -21 -70l-6 -11v-8z" />
<glyph unicode="&#xaf;" horiz-adv-x="647" d="M25 848q0 17 8 38q4 4 26 23l84 1l181 -10l92 6q1 0 4.5 1t9.5 3l12 4l10 -5l103 12q38 -20 58 -28q7 -9 22.5 -39t22.5 -41v-9q-4 -2 -17 -22q-12 -8 -54 -16l-175 -12h-130q-82 0 -105 -13q-1 0 -7 3t-7 3h-4q-2 -1 -2 -2q0 -3 3 -5q-6 -4 -14 -4q0 1 -7 10h-53 q-9 9 -36 28q-1 14 -14 25q-11 31 -11 49zM211 740l5 5q-1 -5 -5 -5z" />
<glyph unicode="&#xb0;" horiz-adv-x="336" d="M32 739q0 16 10 28.5t28 12.5q9 27 40 66q25 9 31 9h56q4 -6 37 -19l38 -20q16 -18 37 -39l30 -54q21 -37 21 -54l-5 -46q-4 -8 -20 -25q-4 -2 -10 -5.5t-15 -8.5t-16 -9q-2 0 -19.5 -3t-18.5 -3q-25 0 -45 -2q-1 0 -3 -1q-5 0 -8 8q-36 0 -38 -2q-2 2 -2 3l-70 35 q-12 14 -34 43q-24 60 -24 86zM164 705q0 -16 48 -16q10 0 31 8t24 13q0 8 -2 14q-19 13 -53 13q-31 0 -33 -2q1 -1 2 -1q-17 -26 -17 -29z" />
<glyph unicode="&#xb1;" horiz-adv-x="651" d="M36 51l20 52q1 0 25 18l71 5q1 2 8 5l272 20h60l99 10l7 -12l4 2q3 -1 27 -10l30 -61q-2 -1 -5 -4t-5 -4l1 -6l1 -6q6 -2 13 -8h-11q-11 -18 -22 -33q5 -10 5 -11v-22l-53 -15h-94q-5 0 -9 5q-30 -13 -43 -13q-6 0 -27 6q-6 1 -25 -8h-38l-98 -12q-1 -1 -21 -4 q-2 0 -2 -1q0 -2 1 -3q1 1 3 1q3 0 6 -3q-20 0 -23 -1q-4 3 -12 3q-12 0 -16 -7l-20 2q-5 -2 -8 -8l-5 6q-7 -1 -25 -8q-20 9 -51 13v8q-17 10 -38 37q-1 16 8 24v9zM83 387v9q10 7 11 19t-8 20v10q7 7 10 33q13 31 66 31h45l85 13q3 3 5.5 7.5t4 8t3 10.5t2 10.5t2 13.5 t2.5 13q8 58 8 59q8 16 33 35h10q3 0 51 -60q0 -1 3 -13t3 -13v-47q13 -9 24 -9h55l55 -10q6 -5 30 -15q17 -8 17 -19q0 -1 -0.5 -3t-0.5 -4q11 -33 20 -45l-5 -8q6 -3 10 -7q0 -6 -11 -4q-2 -1 -2 -7q-11 -4 -25 -12q0 -2 2 -4l10 3q11 -8 11 -10h-9q-1 0 -8 2.5t-8 2.5 t-16.5 -4t-16.5 -4v-9l-24 -8h-54l-60 -13q1 -3 1 -9q-5 -6 -16 -6q-12 -24 -12 -84v-50q-19 -14 -26 -14q-5 0 -8 3q-5 -6 -15 -15q-1 7 -15 25q-16 2 -30 2q-11 17 -18 18q-10 17 -10 46v52q-2 0 -17 7l-55 -10q-1 0 -3 -0.5t-4 -0.5q-17 0 -32 18q-4 -2 -24 -7q0 2 4 6z M213 -62l1 -1z" />
<glyph unicode="&#xb2;" horiz-adv-x="451" d="M41 464v18q10 13 19 21q13 12 101 96q1 2 9.5 12l25.5 30t36 43q61 95 61 141q0 27 -37 28l-71 -21q-1 1 -5 1l-62 -33q0 -2 -2 -6l-5 1l-34 -21h-18q-1 4 -12 18l-1.5 7t-1.5 8v7q1 4 1 8q12 7 26 20q22 13 52 30q79 43 144 43q27 0 56 -17q34 -19 36 -47l4 -12v-18 l-3 -23q-6 -61 -101 -196q-10 -9 -25 -28.5t-19 -24.5q-21 -19 -36 -35l3 -2l176 24l45 -1q19 -3 41 -7q22 -6 27 -14q0 -3 -1 -5q2 -2 3 -4v-21l-24 -12q-1 0 -9 -2l-8 -1h-19q-1 0 -2.5 -1t-2.5 -1h-45l-70 -11q-7 0 -11 1l-104 -23l-87 -9q-32 0 -43 25q-7 6 -7 14z" />
<glyph unicode="&#xb3;" horiz-adv-x="479" d="M20 842l21 9q3 7 7 8q22 12 32 16q18 12 79 32q31 7 52 7q6 0 30 -4q44 -6 78 -27q32 -32 29 -45q4 -4 4 -12q0 -29 -17 -57q-22 -17 -61 -62q13 -13 34 -20q33 -11 37 -13q10 -6 50 -31q24 -16 56 -55q36 -44 36 -66q-2 -3 -19 -40l-53 -26q-17 -4 -52 -12q-3 -2 -12 -4 q-72 -12 -75 -12h-17l-41 -5l-62 -2l-80 1l-12 5l-6 7h-4q-2 3 -12 15q-2 6 -4 10q1 2 3 10q0 3 -2 5q0 3 1 7v4l1 2q10 10 17 10l122 -1l85 5q9 3 15 3q62 6 113 37q0 2 1 2q-7 18 -57 56l-46 25q-2 1 -18 7t-28 10q-18 3 -31 6q-13 2 -17 3l-2 1q-1 0 -2 -1l-16 5 q-1 0 -6 -3l-3 3l-48 6l-20 32v4q0 3 5 8l-2 3q1 2 1 7q0 4 -1 7l20 14q1 -1 5 -1q26 0 85 26q32 15 47 41q13 13 13 19v6q-10 10 -15 11q-27 6 -44 6q-18 0 -38 -5.5t-33.5 -11.5t-34.5 -17.5t-31 -15.5h-20l-14 15q1 2 1 8q-6 5 -10 7q0 4 -4 9q-6 0 -7 -2q0 4 1 5z" />
<glyph unicode="&#xb4;" horiz-adv-x="437" d="M24 633l1 3q1 2 2 4.5t1 5.5l1 2q12 8 17 19q10 7 53 36.5t78 53.5q98 70 201 128q4 3 4 7l23 11q7 -3 19 -8v-13q7 -2 17 -9q6 -14 14 -14q1 1 5 2q0 -6 8 -12q-4 -6 -12 -14q0 -3 3 -4q-9 -9 -24 -27q-13 -9 -122 -79q-98 -65 -174 -128q-19 -9 -43 -17l-2 3q-1 3 -3 5 h-27l-14 12l-24 -2q3 6 8 11q-10 10 -10 24z" />
<glyph unicode="&#xb5;" horiz-adv-x="1269" d="M2 171v32q31 58 36 65q13 13 48 13l115 -3l4 5l-8 129l3 89l15 109q22 172 160 289q56 25 95 25q11 -1 59 -3q29 -10 48 -10l63 -21q21 -11 95 -55l44 -43q15 -22 45 -73q4 6 26 32q32 50 82 83q43 29 77 29h10q6 3 16 3l105 -12q8 -4 43 -24q15 -8 34 -32q10 -14 33 -52 q21 -48 21 -66v-58l-7 -61q0 -3 -12 -23q-2 -22 -4 -32q-12 -13 -12 -38q-48 -58 -66 -78q-38 -40 -75 -58q-11 -13 -46 -28q-37 -17 -54 -29q-16 -16 -40 -30q-30 -7 -69 -26q5 -8 14 -8h230l71 -10q1 -7 21 -19q2 -2 7.5 -11t9.5 -16q-14 -9 -14 -24q0 -9 1 -13 q-23 -14 -40 -39q-44 -11 -131 -26q-3 2 -23 2q-51 -4 -127 -13q-13 -9 -14 -21q5 -17 5 -29q0 -47 -41 -64q0 -12 -3 -15h-8q-11 11 -14 11q-5 -7 -5 -11l-3 1q-2 1 -7.5 3t-10.5 4q-22 33 -30 33l-35 75q-6 0 -15 -3q1 4 -4 4h-6l-82 -11h-31q-3 7 -20 14l-26 49 q4 20 11 35l9 17v9q0 5 -11 5l-8 -1q-8 -1 -17 -2.5t-17 -2.5l-8 -1h-37q-28 0 -67 -18v-13l28 -104q1 -47 -33 -57q-4 -7 -14 -16q-2 4 -10 7l-9 -12q-5 0 -22 8q-59 70 -101 174l-11 11l-120 -6q-3 0 -67 8q-20 6 -30 26q1 2 1 6zM332 417l18 -133l206 1l33 7h7l5 -7 q12 9 21 9q1 0 5.5 -2t5.5 -2l75 17q26 213 75 328q-5 15 -5 19l-58 62l-13 -2l-111 52q-4 -6 -22 -3q-24 6 -32 3l-48 10h-24q0 -3 3 -5l-5 -5q-27 0 -42 -7q-91 -80 -86 -256zM851 334q5 -10 8 -13h19q0 7 1 8q5 -8 14 -8q34 13 35 13q0 4 2 8l13 -3q0 2 2 4q1 0 4 -0.5 t6 -0.5q-6 0 -6 2t1 2h13l7 8q5 -6 10 -6q6 3 23 12t25 13q33 6 50 17q38 14 82 58q50 53 59 104q3 10 7 15v20q0 24 -21 67q-6 5 -14 14h-13q-5 13 -43 32l-13 -9q-49 13 -79 13q-42 0 -54 -9q-68 -50 -107 -198q-11 -25 -19 -83q-3 -21 -5.5 -39t-4.5 -29t-2 -12z" />
<glyph unicode="&#xb6;" horiz-adv-x="679" d="M24 497q0 1 4 9q4 92 45 133q33 64 93 116q23 20 101 84l51 25q26 12 29 28l33 20l41 -10l70 13h42l40 5q21 3 44 -16v-8q5 -4 18 -12l22 -108l-8 -223l-9 -88v-37l-18 -178v-42l-8 -276q-13 -27 -15 -31q-7 -4 -12 -17l-11 2q-4 -1 -9 -12h-14l-7 4q-13 -5 -20 -13 q-4 5 -15 11l-8 -5q-1 1 -4.5 2t-6.5 2l-12 4q1 3 -1 18q-14 34 -14 31v175l22 237v45l11 120l7 116v77q0 27 -3 42q-8 10 -19 10q-25 0 -28 -12q-7 -25 -10 -69q-2 -41 -6 -68l-10 -200q0 2 4 -6q1 -4 3 -9q3 -9 3 -24q0 -41 -14 -55q0 -8 -3 -25l-13 -260l-7 -67v-41 q0 -2 -7 -11.5t-14.5 -18t-9.5 -8.5q-3 0 -5 2q-7 -12 -15 -22l-6 5q-7 -3 -17 -3q-1 2 -8 13q-27 -7 -30 -28v6q-24 18 -24 25v2q1 2 1 3q-7 5 -10 5q-6 27 -5 34l25 352q-1 1 -11 1q-1 0 -3 0.5t-5.5 1.5t-7.5 2q-2 -1 -21 -1q-3 0 -34.5 8t-32.5 9q-31 4 -71 37 q-38 33 -51 67q-16 65 -16 102z" />
<glyph unicode="&#xb7;" horiz-adv-x="216" d="M30 327q-2 6 8 14q0 1 -2 9l-1 8q5 4 16 15q8 2 20 6q41 -16 71 -43l13 -47q1 -10 -11 -22q-15 -7 -44 -15q1 -1 7 -1v-10q-1 1 -2.5 3t-4 5t-4.5 5l-4 -8q-2 2 -14 12q-11 2 -25 11q-4 19 -23 58z" />
<glyph unicode="&#xb8;" horiz-adv-x="389" d="M44 -315l4 13q-1 7 -1 30q11 51 75 67q33 14 92 54q0 7 -6 7q-3 0 -7 1t-7 1v7q-18 1 -48 18q-5 15 -12 22q0 7 -7 20q-3 11 -3 36q0 57 45 156q18 8 19 8h20q68 -50 68 -96q0 -5 -2 -15q7 -12 28 -26q63 -42 101 -112q10 -50 12 -56t2 -1q0 -16 -18 -49q-11 -20 -25 -36 t-25.5 -26.5t-32 -21.5t-33 -17t-41 -18.5t-44.5 -19.5q-9 -2 -10 -9h-119l2 4z" />
<glyph unicode="&#xb9;" horiz-adv-x="182" d="M32 401q1 1 1 2q1 1 1 2l4 -3l3 4q-1 4 -8 7v42q2 8 5 11v20l2 2l7 14q2 24 1 25q2 12 8 44q0 1 -3 4q7 12 10 27v6q0 11 3 17q2 42 3 38l6 18q1 2 1 7q0 8 -3 18l7 162q-1 5 2 19q7 5 13 13l3 -3l2 5h7q0 -1 15 -7q4 -2 7 -8q28 -8 25 -59l-6 -124q0 -3 -1 -10.5 t-1.5 -14.5t-1.5 -15q0 -1 3 -4l-15 -140l-25 -137l-3 -5q-6 0 -9 3l-3 -3h-9l-6 -9q-15 3 -16 3l-23 28h-1l-1 -1z" />
<glyph unicode="&#xba;" horiz-adv-x="371" d="M44 703q0 63 43 100q19 88 119 88q67 0 98 -29q46 -13 61 -59q26 -41 23 -68q2 -5 7 -10q-1 -2 -1 -7q0 -8 3 -21q-2 -5 -18 -50q-1 -4 -30 -43q1 -2 1 -5q-2 -1 -31 -15q-80 -10 -75 -11l-81 5q-7 3 -28.5 11.5t-36.5 14.5q-51 35 -50 88q-4 4 -4 11zM170 709q4 0 8 -6 q5 5 11 5h44q13 0 51 21q0 3 3 7q-25 18 -54 18q-1 0 -18.5 -2t-18.5 -2l-3 3l-23 -33v-11zM244 573h1h-1z" />
<glyph unicode="&#xbb;" horiz-adv-x="760" d="M31 421v55q0 17 19 36.5t36 19.5q25 0 69 -31q16 -14 33 -24q35 -19 38 -22q20 -10 37 -16q19 -13 67 -31q51 -19 64 -24l43 -58l21 -67q4 7 29 28q21 16 22 31q-13 9 -51 32.5t-60 37.5q-62 40 -82 72q-22 25 -22 39v52q0 20 46 59l79 -28l142 -98q4 -3 98 -56l44 -47 q5 -11 23 -47q-1 -14 2 -49q-29 -43 -101 -124q-46 -52 -140 -182q-16 -22 -26 -54q-4 -6 -23 -33q-3 -2 -13 -9.5l-18 -13.5q0 5 -5 10h-26q-1 0 -5.5 -2.5t-6.5 -2.5q-5 0 -24 10h-15q-1 2 -8 28q-3 3 -13 7l-2.5 9t-2.5 10v47q0 1 -0.5 2l-0.5 1q-1 1 -1 3q0 1 2.5 16.5 l2.5 15.5q39 68 76 118q11 15 12 31q-99 -65 -160 -173q-2 -2 -24 -22q-4 -1 -21 9h-7q-35 -23 -72 14q1 2 1 7q0 14 -18 20l-2.5 8.5t-2.5 10.5v59q0 27 120 170q-38 23 -144 92q-28 59 -29 54z" />
<glyph unicode="&#xbc;" horiz-adv-x="883" d="M32 401q1 1 1 2q1 1 1 2l4 -3l3 4q-1 4 -8 7v42q2 8 5 11v20l2 2l7 14q2 24 1 25q2 12 8 44q0 1 -3 4q7 12 10 27v6q0 11 3 17q2 42 3 38l6 18q1 2 1 7q0 8 -3 18l7 162q-1 5 2 19q7 5 13 13l3 -3l2 5h7q0 -1 15 -7q4 -2 7 -8q28 -8 25 -59l-6 -124q0 -3 -1 -10.5 t-1.5 -14.5t-1.5 -15q0 -1 3 -4l-15 -140l-25 -137l-3 -5q-6 0 -9 3l-3 -3h-9l-6 -9q-15 3 -16 3l-23 28h-1l-1 -1zM61 205q1 1 10 11q0 7 -5 22l12 27l11 11q15 23 45 59q2 0 13 15q13 13 24 22l1 1.5t2.5 4.5t3.5 5q3 3 98 96l2 6q15 11 42 38q36 39 143 142q6 10 61 68 q0 1 7 12q10 10 40 47q0 1 2 4t3 5q10 12 46 37l11 -3q8 -2 9 -6q16 -28 16 -41.5t-10 -35.5l-8 -8l3 -4l-6 -12q-3 -3 -15 -10q0 -3 2 -3q-5 -2 -5 -8q-1 0 -3 3l-3 -3t-6.5 -5.5t-8.5 -7.5v-2h4q-4 -4 -8 -12l-6 2q-12 -7 -12 -18l-4 -2l-3 -1q2 -4 2 -5q-1 0 -4.5 -0.5 t-5.5 -0.5q-5 -6 -20 -17q0 -5 2 -7l-45 -36q0 -2 -2.5 -6t-6.5 -8.5l-8 -9t-7 -8.5t-3 -6q-1 -1 -3.5 -2.5t-5.5 -3.5l-6 -4v-5l-17 -11v-12q-11 -9 -25 -17l-0.5 -2.5t-0.5 -4.5q-7 -4 -18 -15q0 -8 -3 -10q-17 -6 -20 -22q-9 -4 -22 -22q-19 -6 -18 -19q-17 -2 -20 -18 q-6 -3 -9 -13q-6 -2 -15 -13t-15 -11q-1 -3 -1 -6l-88 -93q-1 -4 -1 -12q-7 -13 -24 -36q-5 -5 -28 -13l8 -6q-6 0 -29 -13l-8 2q-4 4 -5 4q-2 0 -4 -5l-5 3q-8 -8 -12 0q-2 6 3 14q-10 4 -18 14zM395 276q3 4 4 26q7 13 61 117v5l75 145q11 4 13 4q6 -4 12 -6q0 -4 21 -27 v-8q1 -4 1 -7q0 -31 -42 -115q-4 -8 -21 -41.5t-26 -51.5v-6h24l109 7l75 10q15 60 31 103.5t54 132.5q8 10 25 24h5q-3 0 1 -2q5 -1 14 -3q-1 -9 17 -24l3 -14l-3 -15q-10 -16 -24 -54t-24.5 -75.5t-18.5 -69.5l3 -3h27q35 0 52 -41q-1 0 -5 -4q4 -3 4 -5q-5 -9 -25 -23 l-70 1q-27 -27 -30 -76q-1 -26 -1 -82l1 -62q-7 -1 -6 -9q-2 -1 -6 -2.5t-9.5 -4t-9.5 -4.5q-4 4 -10 4t-7 -1q-2 1 -19 18l2 5h-6l-8 16v66l19 127l-2 2h-11q-6 -3 -9 -3l-58 -6q-2 1 -11 1l-49 -7q-6 2 -8 2l-12 -2h-26q-1 0 -4 -3q-1 3 -7 3q-8 -5 -13 -5l-16 1h1l-7 4 l-6 -1q-7 2 -20 12q-5 21 -24 27zM462 238l5 -2l2 2h-7zM863 287z" />
<glyph unicode="&#xbd;" horiz-adv-x="851" d="M32 401q1 1 1 2q1 1 1 2l4 -3l3 4q-1 4 -8 7v42q2 8 5 11v20l2 2l7 14q2 24 1 25q2 12 8 44q0 1 -3 4q7 12 10 27v6q0 11 3 17q2 42 3 38l6 18q1 2 1 7q0 8 -3 18l7 162q-1 5 2 19q7 5 13 13l3 -3l2 5h7q0 -1 15 -7q4 -2 7 -8q28 -8 25 -59l-6 -124q0 -3 -1 -10.5 t-1.5 -14.5t-1.5 -15q0 -1 3 -4l-15 -140l-25 -137l-3 -5q-6 0 -9 3l-3 -3h-9l-6 -9q-15 3 -16 3l-23 28h-1l-1 -1zM61 205q1 1 10 11q0 7 -5 22l12 27l11 11q15 23 45 59q2 0 13 15q13 13 24 22l1 1.5t2.5 4.5t3.5 5q3 3 98 96l2 6q15 11 42 38q36 39 143 142q6 10 61 68 q0 1 7 12q10 10 40 47q0 1 2 4t3 5q10 12 46 37l11 -3q8 -2 9 -6q16 -28 16 -41.5t-10 -35.5l-8 -8l3 -4l-6 -12q-3 -3 -15 -10q0 -3 2 -3q-5 -2 -5 -8q-1 0 -3 3l-3 -3t-6.5 -5.5t-8.5 -7.5v-2h4q-4 -4 -8 -12l-6 2q-12 -7 -12 -18l-4 -2l-3 -1q2 -4 2 -5q-1 0 -4.5 -0.5 t-5.5 -0.5q-5 -6 -20 -17q0 -5 2 -7l-45 -36q0 -2 -2.5 -6t-6.5 -8.5l-8 -9t-7 -8.5t-3 -6q-1 -1 -3.5 -2.5t-5.5 -3.5l-6 -4v-5l-17 -11v-12q-11 -9 -25 -17l-0.5 -2.5t-0.5 -4.5q-7 -4 -18 -15q0 -8 -3 -10q-17 -6 -20 -22q-9 -4 -22 -22q-19 -6 -18 -19q-17 -2 -20 -18 q-6 -3 -9 -13q-6 -2 -15 -13t-15 -11q-1 -3 -1 -6l-88 -93q-1 -4 -1 -12q-7 -13 -24 -36q-5 -5 -28 -13l8 -6q-6 0 -29 -13l-8 2q-4 4 -5 4q-2 0 -4 -5l-5 3q-8 -8 -12 0q-2 6 3 14q-10 4 -18 14zM395 40v18q12 15 18 21q49 45 102 96q4 3 70 85q62 95 62 140q0 28 -38 28 l-71 -20q-2 0 -4 1l-62 -33q0 -3 -2 -7l-5 1l-35 -20q-10 -1 -17 0q-1 3 -12 17l-2 7.5l-2 7.5q0 4 1 7v9q16 9 27 20q23 15 52 30q80 43 144 43q26 0 56 -18q33 -19 35 -47l5 -13v1v-18q0 7 -1 -1l-3 -22q-6 -56 -100 -196q-17 -13 -30 -36q-1 -1 -15 -17q-21 -19 -35 -34 l3 -2l175 24l46 -1l36 -6q22 -3 32 -15q0 -3 -1 -5q1 -1 3 -5v-20l-24 -12q-5 -1 -17 -3h-19l-5 -3h-46l-69 -10q-5 -1 -11 1l-105 -23l-86 -10q-32 0 -43 26q-7 6 -7 14z" />
<glyph unicode="&#xbe;" horiz-adv-x="1014" d="M20 842l21 9q3 7 7 8q22 12 32 16q18 12 79 32q31 7 52 7q6 0 30 -4q44 -6 78 -27q32 -32 29 -45q4 -4 4 -12q0 -29 -17 -57q-22 -17 -61 -62q13 -13 34 -20q33 -11 37 -13q10 -6 50 -31q24 -16 56 -55q36 -44 36 -66q-2 -3 -19 -40l-53 -26q-17 -4 -52 -12q-3 -2 -12 -4 q-72 -12 -75 -12h-17l-41 -5l-62 -2l-80 1l-12 5l-6 7h-4q-2 3 -12 15q-2 6 -4 10q1 2 3 10q0 3 -2 5q0 3 1 7v4l1 2q10 10 17 10l122 -1l85 5q9 3 15 3q62 6 113 37q0 2 1 2q-7 18 -57 56l-46 25q-2 1 -18 7t-28 10q-18 3 -31 6q-13 2 -17 3l-2 1q-1 0 -2 -1l-16 5 q-1 0 -6 -3l-3 3l-48 6l-20 32v4q0 3 5 8l-2 3q1 2 1 7q0 4 -1 7l20 14q1 -1 5 -1q26 0 85 26q32 15 47 41q13 13 13 19v6q-10 10 -15 11q-27 6 -44 6q-18 0 -38 -5.5t-33.5 -11.5t-34.5 -17.5t-31 -15.5h-20l-14 15q1 2 1 8q-6 5 -10 7q0 4 -4 9q-6 0 -7 -2q0 4 1 5z M199 123q15 8 4 33q5 10 12 27l11 11q5 8 46 59q4 4 10 11t12.5 13.5t13.5 12.5l7 11q20 18 98 96l3 6q25 20 41 38l143 143q14 20 61 67q6 9 13 18t17 20.5t17 20.5q1 1 5 9q7 8 46 37l12 -3q5 -1 8 -6q21 -37 15 -54l-1 -3q-1 -3 -3.5 -8.5t-4.5 -11.5q-3 -1 -8 -8l3 -4 q-1 -1 -6 -11q-6 -6 -15 -10q0 -2 2 -4q-5 0 -5 -8q-2 0 -3 3l-17 -18h4q-4 -4 -8 -11l-6 1q-11 -7 -13 -18l-6 -3q1 -2 1 -5q-2 -1 -10 -1q-6 -8 -20 -17q0 -3 2 -7l-44 -36q-2 -8 -13 -19q-12 -11 -14 -19q-7 -3 -16 -10q1 -1 1 -5l-17 -11q-1 -1 0 -12q-11 -9 -25 -17 q-1 -1 -1 -3q-1 -3 -1 -4l-18 -15q0 -8 -3 -9q-17 -6 -20 -23q-9 -4 -22 -22q-18 -6 -17 -19q-18 -2 -20 -17q-7 -4 -10 -14q-3 -1 -14.5 -12.5t-15.5 -11.5q-2 -5 -1 -6l-87 -93q-2 -4 -2 -12q-8 -15 -24 -36q-1 -1 -28 -12q4 -4 9 -7q-7 0 -30 -13l-7 2q-3 3 -6 4 q-1 0 -3 -5l-6 3q-5 -3 -7 -3q-12 3 -1 17q-10 4 -18 14zM533 194q3 8 4 26l60 117q1 1 1 5l74 145q11 3 13 4q6 -5 13 -6q0 -2 20 -27q0 -4 1 -8v-7q0 -25 -42 -115q-38 -84 -43 -87q-1 0 -4 -6v-5h24l110 7l74 9q15 60 30.5 101.5t55.5 134.5q10 13 25 24h5q-2 0 0 -1 q1 0 5 -1q5 -2 9 -3q-2 -9 18 -24l2 -14q0 -9 -3 -15q-31 -51 -67 -199l4 -3h27q35 0 52 -41q-2 -1 -5 -4l1.5 -2t2.5 -3q-6 -9 -26 -23l-70 2q-29 -29 -30 -76q-1 -32 -1 -83l1 -61q-9 -3 -6 -10q-1 0 -24 -11q-5 4 -11 4t-7 -1l-2 1.5t-4 3.5l-5.5 5.5l-7.5 7.5l2 5 q-1 1 -6 1l-7 15v67l18 126l-2 2h-11l-9 -3l-57 -6q-1 1 -11 1l-49 -7q-3 2 -9 2l-11 -2h-26q-3 0 -4 -3q-3 3 -8 3q-8 -5 -13 -5l-15 1h1l-8 4l-5 -1q-5 2 -20 12q-6 21 -24 27zM599 157l6 -2l1 2h-7z" />
<glyph unicode="&#xbf;" horiz-adv-x="627" d="M41 -42q5 14 33 81q2 1 63 57l9.5 6t28 18t40.5 26q113 54 116 55q64 28 116 34l7 7l15 170v48l10 132q5 10 16 41q12 26 43 26l9.5 -2.5t11.5 -2.5q21 -32 39 -66q3 -31 6 -46l-15 -151v-42l-10 -239l-8 -3h-34q-3 0 -20 -7q-16 -8 -24 -8l-6 1.5t-8 1.5q-15 0 -36 -12 q-140 -46 -239 -133q-2 -4 -2 -11q0 -21 41 -22l76 -2l38 4q35 4 56 4q113 22 151 34q5 0 19 -2l10 12q4 -2 16 -5l40 4q-4 -6 -7 -10q4 -4 4 -9q0 -2 -2 -6q13 -9 15 -8q-4 -8 -12 -20q0 -4 5 -4q-4 -10 -20 -21v-23q-52 -47 -99 -54q-23 -22 -80 -29q-4 -6 -4 -7l-14 2 q-13 -8 -20 -8q-1 0 -9 1.5t-11 0.5l-14 -4q-6 0 -11 5q-2 -2 -9 -6t-11 -7h-37q-20 0 -41 4q-1 1 -17 9q-1 -1 -1 -5q-41 -6 -46 -6q6 0 6 7q-62 27 -78 36q-42 23 -58 51q-4 6 -11 10q-8 15 -18 40q-8 50 -8 53zM482 833q0 10 9 25t22.5 26t24.5 11q17 0 29 -11 q20 -14 29 -20q5 -11 16 -24l7 -53q0 -11 -8 -29q-27 -20 -47 -20q-5 0 -9 4l-4 -4h-8q-3 0 -6.5 1t-6.5 4t-4.5 5l-4.5 6t-4 5q-6 0 -14 6t-13.5 13.5t-5.5 13.5q0 29 -2 41zM659 -67z" />
<glyph unicode="&#xc0;" horiz-adv-x="602" d="M22 189v37h3l-2 2v1q0 1 2 12q27 24 39 47q23 23 29 48q3 7 12 23.5t14 25.5q11 29 31 57q2 6 29 73l12 20q4 13 4 18q33 68 66 142q4 10 31 54q3 5 22 44q22 62 51 125q13 6 23 11q13 -5 43 -11q34 -24 45 -36l12 -24q40 -51 108 -230q1 -1 8 -1q0 -7 5.5 -24.5 t5.5 -21.5q0 -5 -1 -8q1 -1 3.5 -3t4.5 -4q25 -68 73 -267l5 -10q22 -109 61 -176q0 -10 28 -65l-14 -11q0 -2 0.5 -6t0.5 -6q0 -10 -18 -79v38q-4 -3 -9 -4q-6 -14 -13 -25h-60l-50 65q-10 58 -42 95q5 13 5 15q-5 7 -14 26q-21 27 -44 45q-20 19 -39 30l-16 8t-13 7t-9 5 l-6 3q-25 2 -48 13q-8 3 -14 3l-3 9q-2 -3 -7 -10q-27 4 -58 15q-1 0 -29 -20q-5 11 -9 15l-2 -1.5t-4 -3.5q-2 1 -3.5 1.5t-3 1.5t-2.5 1q10 -10 14 -16q-36 -4 -49 -13l13 -6q-16 -16 -33 -24q0 13 3 21h-19l-5 5q-2 0 -6 -0.5t-5 -0.5l-38 -75l-1 -1q0 -2 2 -7 q-18 -35 -21 -41q-12 0 -24 2l-4 -7h-18q-4 9 -8.5 13t-11.5 7t-12 7q0 6 1 8q-5 8 -7 20l-5 7q-5 7 -9 12zM154 1157l2 9q-2 4 -2 7q-1 7 5 21q14 21 40 20t45 -18q6 -1 18 -6l125 -85q70 -48 138 -63q5 -9 17 -16q17 -26 16 -31l13 -8q0 -4 -7 -10q0 -5 4 -9 q-1 -1 -2.5 -2t-3 -2.5l-3.5 -3.5l2 -15q-32 -7 -32 -12q2 0 2 -4l-11 -1q-28 8 -65 18l-206 120q-29 17 -71 52q-1 2 -11 5q-13 29 -13 34zM261 420q5 1 20 1q4 -1 7.5 -1.5t6 -1t4.5 -1.5q12 2 20 7l33 1q4 0 26.5 -6.5t26.5 -6.5h1q6 3 9 3l117 -46q-1 3 -5.5 20.5t-9 37 t-8 35.5t-3.5 18l-38 120q-22 69 -53 117q-12 -12 -28 -50q6 -8 -3 -26l-6 9l-12 -18l-3 10l-63 -138q1 -1 1 -8q-29 -32 -40 -76z" />
<glyph unicode="&#xc1;" horiz-adv-x="600" d="M22 189v37h3l-2 2v1q0 1 2 12q27 24 39 47q23 23 29 48q3 7 12 23.5t14 25.5q11 29 31 57q2 6 29 73l12 20q4 13 4 18q33 68 66 142q4 10 31 54q3 5 22 44q22 62 51 125q13 6 23 11q13 -5 43 -11q34 -24 45 -36l12 -24q40 -51 108 -230q1 -1 8 -1q0 -7 5.5 -24.5 t5.5 -21.5q0 -5 -1 -8q1 -1 3.5 -3t4.5 -4q25 -68 73 -267l5 -10q22 -109 61 -176q0 -10 28 -65l-14 -11q0 -2 0.5 -6t0.5 -6q0 -10 -18 -79v38q-4 -3 -9 -4q-6 -14 -13 -25h-60l-50 65q-10 58 -42 95q5 13 5 15q-5 7 -14 26q-21 27 -44 45q-20 19 -39 30l-16 8t-13 7t-9 5 l-6 3q-25 2 -48 13q-8 3 -14 3l-3 9q-2 -3 -7 -10q-27 4 -58 15q-1 0 -29 -20q-5 11 -9 15l-2 -1.5t-4 -3.5q-2 1 -3.5 1.5t-3 1.5t-2.5 1q10 -10 14 -16q-36 -4 -49 -13l13 -6q-16 -16 -33 -24q0 13 3 21h-19l-5 5q-2 0 -6 -0.5t-5 -0.5l-38 -75l-1 -1q0 -2 2 -7 q-18 -35 -21 -41q-12 0 -24 2l-4 -7h-18q-4 9 -8.5 13t-11.5 7t-12 7q0 6 1 8q-5 8 -7 20l-5 7q-5 7 -9 12zM155 994l1 2.5l2 5t1.5 5l0.5 2.5q12 8 17 19q10 7 29 20t47 32t55 38q98 70 201 128q4 3 4 7l23 11q7 -4 19 -8v-13q7 -2 17 -9q6 -14 14 -14q1 1 5 2q0 -6 8 -12 q-4 -6 -12 -14q0 -2 3 -4q-9 -9 -24 -27q-13 -9 -122 -79q-98 -65 -174 -128q-19 -9 -43 -17l-1.5 3t-3.5 5h-27l-14 12l-24 -2q3 6 8 11q-10 10 -10 24zM261 420q5 1 20 1l10 -2t8 -2q12 2 20 7l33 1q4 0 26.5 -6.5t26.5 -6.5h1q6 3 9 3l117 -46q-2 7 -14 57t-12 54 l-38 120q-22 69 -53 117q-12 -12 -28 -50q6 -8 -3 -26l-6 9l-12 -18l-3 10l-63 -138q1 -1 1 -8q-29 -32 -40 -76z" />
<glyph unicode="&#xc2;" horiz-adv-x="604" d="M22 189v37h3l-2 2v1q0 1 2 12q27 24 39 47q23 23 29 48q3 7 12 23.5t14 25.5q11 29 31 57q2 6 29 73l12 20q4 13 4 18q33 68 66 142q4 10 31 54q3 5 22 44q22 62 51 125q13 6 23 11q12 -5 41 -11q-19 16 -46 37q-6 -2 -12 -2l-39 -36l2 -6q-2 -1 -8 -5l2 -8q2 0 -1 -1 q-2 0 -6 -1l-90 -109l-19 3q-12 -3 -17 -6q0 1 -1 2.5l-2 3t-2 3.5l-8 -1q2 2 2 6q-3 3 -14 5l-20 43q0 11 14 34q11 0 19 6q3 2 27 29q6 7 34.5 38.5t51.5 57.5q14 12 50 53q11 12 31 16q1 0 7 -1.5t11 -2.5q11 -8 29 -14q30 -25 83 -79q62 -63 80 -80q10 -18 21 -40 q-15 -19 -22 -36q-1 0 -3 -1t-5.5 -2.5t-6.5 -3.5q-1 -1 -22 -1q-2 0 -6 3q-2 -1 -6 -2.5t-6 -2.5q-8 8 -21.5 23.5t-16.5 18.5q-5 6 -11 12q5 -11 6 -13q40 -51 108 -230q1 -1 8 -1q0 -7 5.5 -24.5t5.5 -21.5q0 -5 -1 -8q1 -1 3.5 -3t4.5 -4q25 -68 73 -267l5 -10 q22 -109 61 -176q0 -10 28 -65l-14 -11q0 -2 0.5 -6t0.5 -6q0 -10 -18 -79v38q-4 -3 -9 -4q-6 -14 -13 -25h-60l-50 65q-10 58 -42 95q5 13 5 15q-5 7 -14 26q-21 27 -44 45q-20 19 -39 30l-16 8t-13 7t-9 5l-6 3q-25 2 -48 13q-8 3 -14 3l-3 9q-2 -3 -7 -10q-27 4 -58 15 q-1 0 -29 -20q-5 11 -9 15l-2 -1.5t-4 -3.5q-2 1 -3.5 1.5t-3 1.5t-2.5 1q10 -10 14 -16q-36 -4 -49 -13l13 -6q-16 -16 -33 -24q0 13 3 21h-19l-5 5q-2 0 -6 -0.5t-5 -0.5l-38 -75l-1 -1q0 -2 2 -7q-18 -35 -21 -41q-12 0 -24 2l-4 -7h-18q-4 9 -8.5 13t-11.5 7t-12 7 q0 6 1 8q-5 8 -7 20l-5 7q-5 7 -9 12zM261 420q5 1 20 1q4 -1 7.5 -1.5t6 -1t4.5 -1.5q12 2 20 7l33 1q4 0 26.5 -6.5t26.5 -6.5h1q6 3 9 3l117 -46q-1 3 -5.5 20.5t-9 37t-8 35.5t-3.5 18l-38 120q-22 69 -53 117q-12 -12 -28 -50q6 -8 -3 -26l-6 9l-12 -18l-3 10l-63 -138 q1 -1 1 -8q-29 -32 -40 -76z" />
<glyph unicode="&#xc3;" horiz-adv-x="605" d="M22 189v37h3l-2 2v1q0 1 2 12q27 24 39 47q23 23 29 48q3 7 12 23.5t14 25.5q11 29 31 57q2 6 29 73l12 20q4 13 4 18q33 68 66 142q4 10 31 54q3 5 22 44q22 62 51 125q13 6 23 11q13 -5 43 -11q34 -24 45 -36l12 -24q40 -51 108 -230q1 -1 8 -1q0 -7 5.5 -24.5 t5.5 -21.5q0 -5 -1 -8q1 -1 3.5 -3t4.5 -4q25 -68 73 -267l5 -10q22 -109 61 -176q0 -10 28 -65l-14 -11q0 -2 0.5 -6t0.5 -6q0 -10 -18 -79v38q-4 -3 -9 -4q-6 -14 -13 -25h-60l-50 65q-10 58 -42 95q5 13 5 15q-5 7 -14 26q-21 27 -44 45q-20 19 -39 30l-16 8t-13 7t-9 5 l-6 3q-25 2 -48 13q-8 3 -14 3l-3 9q-2 -3 -7 -10q-27 4 -58 15q-1 0 -29 -20q-5 11 -9 15l-2 -1.5t-4 -3.5q-2 1 -3.5 1.5t-3 1.5t-2.5 1q10 -10 14 -16q-36 -4 -49 -13l13 -6q-16 -16 -33 -24q0 13 3 21h-19l-5 5q-2 0 -6 -0.5t-5 -0.5l-38 -75l-1 -1q0 -2 2 -7 q-18 -35 -21 -41q-12 0 -24 2l-4 -7h-18q-4 9 -8.5 13t-11.5 7t-12 7q0 6 1 8q-5 8 -7 20l-5 7q-5 7 -9 12zM144 1102q1 1 4.5 9t9 19.5t12.5 24.5q6 5 24 21l95 84q70 37 134 37q22 0 85 -21q19 -9 55 -33q58 -45 60 -46q12 0 33 15q36 17 156 109q4 3 24 14q16 2 24 4 l32 -12v-4q4 -6 13 -6q1 -1 1 -2t-2 -7q7 -7 12 -11v-30q0 4 -11 -10q-1 -2 -3 -5q-24 -27 -67 -69q-29 -21 -46 -40q-80 -61 -126 -62l-16 -6h2q-9 0 -32.5 7.5t-24.5 7.5q-34 9 -88 59q-49 46 -73 46q-6 0 -38 -16q-32 -17 -45 -17l-121 -102q-2 0 -4.5 0.5t-4 1t-2.5 0.5 h-1q-8 -2 -22 -8q-11 4 -23 8q-26 37 -26 40zM261 420q5 1 20 1q3 -1 6 -1.5t4.5 -1t3.5 -0.5t4 -1q12 2 20 7l33 1q4 0 26.5 -6.5t26.5 -6.5h1q6 3 9 3l117 -46q-1 3 -5.5 20.5t-9 37t-8 35.5t-3.5 18l-38 120q-22 69 -53 117q-12 -12 -28 -50q6 -8 -3 -26l-6 9l-12 -18 l-3 10l-63 -138q1 -1 1 -8q-29 -32 -40 -76z" />
<glyph unicode="&#xc4;" horiz-adv-x="606" d="M22 189v37h3l-2 2v1q0 1 2 12q27 24 39 47q23 23 29 48q3 7 12 23.5t14 25.5q11 29 31 57q2 6 29 73q1 1 3 5t4.5 7.5t4.5 7.5q4 13 4 18q33 68 66 142q4 10 31 54q3 5 22 44q22 62 51 125q13 6 23 11q13 -5 43 -11q34 -24 45 -36l12 -24l11 -6q8 -8 8 -22 q36 -62 89 -202q1 -1 8 -1q0 -7 5.5 -24.5t5.5 -21.5q0 -5 -1 -8q1 -1 3.5 -3t4.5 -4q25 -68 73 -267l5 -10q22 -109 61 -176q0 -10 28 -65l-14 -11q0 -2 0.5 -6t0.5 -6q0 -10 -18 -79v38q-4 -3 -9 -4q-6 -14 -13 -25h-60l-50 65q-10 58 -42 95q5 13 5 15q-5 7 -14 26 q-21 27 -44 45q-20 19 -39 30l-16 8t-13 7t-9 5l-6 3q-25 2 -48 13q-8 3 -14 3l-3 9q-2 -3 -7 -10q-27 4 -58 15q-1 0 -29 -20q-5 11 -9 15l-2 -1.5t-4 -3.5q-2 1 -3.5 1.5t-3 1.5t-2.5 1q10 -10 14 -16q-36 -4 -49 -13l13 -6q-16 -16 -33 -24q0 13 3 21h-19l-5 5 q-2 0 -6 -0.5t-5 -0.5l-38 -75l-1 -1q0 -2 2 -7q-18 -35 -21 -41q-12 0 -24 2l-4 -7h-18q-4 9 -8.5 13t-11.5 7t-12 7q0 6 1 8q-5 8 -7 20l-5 7q-5 7 -9 12zM154 826l25 40q-2 0 -7 -4q-6 6 -6 8l16 -3l-1 9h18q10 7 26 8q18 -11 56 -29q3 -3 3 -15q1 -1 5.5 -4.5t7.5 -6.5 l-2 -22q-5 -4 -12 -18q-44 -14 -82 -14l-40 27q-7 7 -7 24zM261 420q5 1 20 1q4 -1 7.5 -1.5t6 -1t4.5 -1.5q12 2 20 7l33 1q4 0 26.5 -6.5t26.5 -6.5h1q6 3 9 3l117 -46q-2 7 -14 57t-12 54l-38 120q-22 69 -53 117q-12 -12 -28 -50q6 -8 -3 -26l-6 9l-12 -18l-3 10 l-63 -138q1 -1 1 -8q-29 -32 -40 -76z" />
<glyph unicode="&#xc5;" horiz-adv-x="601" d="M22 189v37h3l-2 2v1q0 1 2 12q27 24 39 47q23 23 29 48q3 7 12 23.5t14 25.5q11 29 31 57q2 6 29 73q1 1 3 5t4.5 7.5t4.5 7.5q4 13 4 18q33 68 66 142q4 10 31 54q3 5 22 44q19 52 42 105q-16 -1 -15 -2l-2 2l-70 35q-2 3 -14 17.5t-21 25.5q-23 61 -23 87 q0 16 10.5 28.5t27.5 12.5q9 27 40 66q23 8 31 8h56q1 -4 37 -18q10 -8 38 -20l37 -40q51 -87 51 -107l-5 -47q-5 -7 -21 -25q-2 -1 -40 -22q-7 -1 -13 -2q10 -8 16 -15l12 -24q40 -51 108 -230q1 -1 8 -1q0 -7 5.5 -24.5t5.5 -21.5q0 -5 -1 -8q1 -1 3.5 -3t4.5 -4 q25 -68 73 -267l5 -10q22 -109 61 -176q0 -10 28 -65l-14 -11q0 -2 0.5 -6t0.5 -6q0 -10 -18 -79v38q-4 -3 -9 -4q-6 -14 -13 -25h-60l-50 65q-10 58 -42 95q5 13 5 15q-5 7 -14 26q-21 27 -44 45q-20 19 -39 30l-16 8t-13 7t-9 5l-6 3q-25 2 -48 13q-8 3 -14 3l-3 9 q-2 -3 -7 -10q-27 4 -58 15q-1 0 -29 -20q-5 11 -9 15l-2 -1.5t-4 -3.5q-2 1 -3.5 1.5t-3 1.5t-2.5 1q10 -10 14 -16q-36 -4 -49 -13l13 -6q-16 -16 -33 -24q0 13 3 21h-19l-5 5q-2 0 -6 -0.5t-5 -0.5l-38 -75l-1 -1q0 -2 2 -7q-18 -35 -21 -41q-12 0 -24 2l-4 -7h-18 q-4 9 -8.5 13t-11.5 7t-12 7q0 6 1 8q-5 8 -7 20l-5 7q-5 7 -9 12zM261 420q5 1 20 1q4 -1 7.5 -1.5t6 -1t4.5 -1.5q12 2 20 7l33 1q4 0 26.5 -6.5t26.5 -6.5h1q6 3 9 3l117 -46q-2 7 -14 57t-12 54l-38 120q-22 69 -53 117q-12 -12 -28 -50q6 -8 -3 -26l-6 9l-12 -18l-3 10 l-63 -138q1 -1 1 -8q-29 -32 -40 -76zM343 1029q0 -16 48 -16q10 0 31.5 7.5t23.5 13.5q0 5 -2 13q-20 14 -53 14q-32 0 -34 -2q1 -1 2 -1q-3 -4 -8 -12q-8 -13 -8 -17z" />
<glyph unicode="&#xc6;" horiz-adv-x="1266" d="M7 93l3 4q0 1 -2 3q8 6 15 24q2 6 4.5 12.5t3.5 10t2 6.5t2 4q6 12 13.5 26t10.5 19.5t10.5 17t21.5 31.5q21 30 21 42q0 3 -3 7q0 1 -1 3.5t-1 3.5l9 32q26 18 48 51q12 11 16 14.5t9.5 12t7.5 18.5l99 128l8 4q6 9 24 30q-2 6 0 14q4 5 16.5 19t20.5 23.5t15.5 23 t9.5 24.5q18 21 58 96q2 3 31 49q9 40 22 51q14 13 39 12l92 -6l104 8q33 2 38 -9l56 11h134l34 -4h65l86 -14q6 -12 19 -21v-12l11 -7q-1 -23 11 -26v-30q0 -1 -1 -3.5t-1.5 -5t-1.5 -4.5l-1 -2q-6 -8 -13 -15q-8 5 -12 5q-13 0 -27 -9q-25 9 -37 9q-1 0 -3.5 -1t-3.5 -1 q-2 0 -10 4l-8 5h-40q-6 0 -9 5q-12 -3 -20 -3l-138 3q-5 0 -20 -3q-1 0 -28 -5q-2 3 -12 11q-17 0 -27 2l-40 -8h-87q-5 0 -21 -11v-23l3 -16l3 -16v-38l18 -164q0 -13 8 -26l66 7l38 -6l133 7l101 -1l83 -15q5 0 20 5l99 -22q2 -1 8 -7q5 0 41 -25q0 -10 9 -28v-12 q-27 -17 -26 -29q-8 -7 -19 -7q-1 0 -5.5 1t-5.5 1q-11 -11 -35 -11l-163 9q-2 0 -4 1t-4.5 2t-4.5 1l-140 2l-156 -14l-2 0.5t-4 0.5q-3 1 -6 1q-6 -9 -7 -18l1 -3q3 -14 5.5 -27.5t5 -37.5t4.5 -40q5 -26 24 -79l6 -6l146 -8q6 -1 17 4q11 -4 20 -4l54 6h32l142 4 q26 0 91 -11q40 -19 70 -50q-1 -9 4 -38q2 -2 3 -4l2 -2v-25q-9 -12 -37 -19l-41 -9l-31 4h-31l-341 -10q-39 3 -135 17q-42 15 -60 17q-18 17 -23 36q0 6 -13 85q2 3 -6 24l-10 89l-21 92h-14l-81 -17l-124 -17l-41 6q-6 -2 -22 -21q-3 -4 -6 -15l-35 -49q-28 -39 -80 -140 q-4 -19 -5 -27q-1 -3 -6.5 -13t-8.5 -18q-11 -11 -12 -16q-20 -3 -39 -13h-8l-4 8q-20 0 -35 5q0 13 -14 36q-2 4 -2 13q0 7 1 11q-6 4 -8 4q0 8 -4 19zM107 308v-1v1zM394 475q3 -7 2 -14q14 0 25 -1l119 16l1 5v9l-22 159l-2.5 -3t-4.5 -5h-7q0 -8 -12 -15q-4 -9 -15 -24 v-6l-9 -6l-37 -57q3 -2 3 -6l-15 -10z" />
<glyph unicode="&#xc7;" horiz-adv-x="838" d="M19 298q0 191 226 396q21 6 35 19q23 20 33 17q6 8 20 26q45 25 80 44q7 -2 13 -2l42 30l136 37h43q1 -2 2.5 -5.5t3 -8.5t3.5 -9q12 -13 17 -16q-10 -4 -10 -14q0 -34 1 -35q1 1 1 2l18 -18q-1 0 -13 -5q1 -2 3 -10l-15 -12q1 0 3 -1t4.5 -2t6 -2t6.5 -2 q-17 -10 -28 -10q-4 0 -6 1l-7 -7q-1 0 -40 -7q-6 -4 -23.5 -12t-40.5 -17.5t-36 -15.5q-30 -18 -103 -57q-40 -37 -82 -64q-36 -38 -89 -103q-20 -10 -20 -23q0 -6 4 -11q-6 -7 -30 -31q1 -1 3 -9l-15 -55v-36q0 -2 4.5 -7t10 -10t11.5 -8.5t8 -3.5q1 -1 6.5 -6t10.5 -8 q1 0 78 -22q27 -5 60 -6l86 -3l96 6l130 15q7 0 13 -3l38 13q1 -3 7 -3l57 15h21l5 -7h35q3 -3 3 -11q2 -2 8 -2q-1 -2 -3 -8q2 -1 4 -3q3 -3 4 -3q-8 -4 -18 -14l-1 -2q0 -2 4 -2h14q-2 -3 -7 -19l10 -5q-9 -1 -32 -23q-1 -3 -1 -7t1 -6h-3q-6 1 -11 2q-3 0 -6 -9 q-23 -5 -46 -20l-47 -13q-6 0 -8 2l-7 -5q5 -7 15 -13q-2 -1 -10 -1q-11 0 -32 3q8 0 8 6h-9q-5 -5 -5 -10q-5 5 -15 5v-9l-12 -7q19 0 25 -3q-5 0 -5 -5h-77q-3 0 -3 -3l-68 -12q14 0 44 -8l1.5 4t3.5 8h9l-2 -3l11 -2l8 5q0 -3 5 -8h26q-11 -2 -32 -9q-1 0 -2.5 1t-3.5 2 l-4 2l-4 -5q-4 2 -13 2l-9 -6q12 -3 28 -3q-2 0 -18.5 -1.5t-18.5 -1.5q-3 0 4 5h-18l5 -4q0 -8 -9 -8h-32q7 -15 7 -30q0 -5 -2 -15q7 -12 28 -26q35 -24 57.5 -49t43.5 -63q10 -50 12 -56t2 -1q0 -16 -18 -49q-11 -20 -25 -36t-25.5 -26.5t-32 -21.5t-33 -17t-41 -18.5 t-44.5 -19.5q-9 -2 -10 -9h-119l2 4l-27 59l4 13q-1 7 -1 30q11 51 75 67q33 14 92 54q0 7 -6 7q-3 0 -7.5 0.5t-6.5 1.5v7q-18 1 -48 18q-5 15 -12 22q0 7 -7 20q-3 10 -3 36q0 39 21 98q-17 -1 -34 -3q-7 6 -7 8l1 1q-7 3 -16 3q-1 0 -9 -1t-9 -1q-21 0 -25 10h-7 q-2 -1 -8 -3l-68 24q1 2 5 2q3 0 6 -3h7q5 0 12 4q-12 6 -17 6q-2 0 -5 -3q-1 2 -32 15q-2 -2 -2 -7h-9q-2 7 -9 8l-13 5q-1 7 -3 7q2 0 2 3q-3 3 -9 3q2 0 6 2l-6 4l-5 -5q-3 3 -8 3q-5 10 -8 18l-28 13q0 2 3 5q-5 2 -13 17q-8 2 -24 33q-7 60 -9 75zM618 67q4 0 12 9h-9 q0 3 -3 -9zM857 187h1h-1zM858 205z" />
<glyph unicode="&#xc8;" horiz-adv-x="680" d="M32 160q35 105 53 174q-1 3 -1 6q11 18 12 36l-7 32v39q6 7 18 35q9 20 23 17l24 75v13l-4 5h-15q-49 53 -58 103l17 65q29 20 29 21q1 0 6.5 -1.5l5.5 -1.5q26 0 80 17q5 6 41 36q26 -14 35 -14q2 0 17 3q14 1 23 0l196 42q10 0 11 -3q2 4 2 6l36 6q13 -2 35 -6 q14 7 20 14q4 0 16 -3l60 12q3 -2 24 -6q5 7 15 11q6 0 6 -8q-5 -3 -17 -7q2 -2 13 -2l3 1t11 3t15 4l1 -1q0 -1 -3 -3l8 -9v1v-11q1 -1 5 -2t6 -2q5 5 15 5q26 -6 43 -6q2 -3 2 -7q-25 -13 -24 -31q-20 -14 -32 -22l4 -4q6 0 7 3q3 -6 3 -8q-2 0 -13 -6l-5 8q-5 -8 -15 -8 q-13 0 -21 -2q2 -2 7 -2q-51 -20 -52 -22q-2 1 -4 3q0 -1 -1.5 -3t-4 -5t-4.5 -6h-25q-24 -28 -55 -24q-50 -6 -50 -21q-6 0 -11 6q-35 -11 -33 -12q-9 0 -11 3q-2 -2 -10 -14l-6 6q-1 -1 -7 -1q-8 0 -14 1q-3 -4 -3 -10q0 -2 1 -4h-3h-8q-7 -6 -7 -11l-16 2q-1 0 -14 -4 t-14 -4q-2 1 -7 3q-4 -4 -4 -11l-66 -29q-7 -24 -24 -63q0 -2 1 -5.5t1.5 -8t1.5 -8.5l255 20h74q0 -11 -1 -14h31q-1 -2 2 -10q-5 -6 -7 -7q9 -3 27 -12q-9 -12 -23 -16l-4 -8v-2q1 -1 1.5 -3.5t0.5 -4.5v-12q-3 -4 -15 -9q1 -2 3 -8l-104 -35q-14 0 -18 3q-8 -7 -37 -11 q-1 -2 -3.5 -4t-5.5 -6t-6 -7q-4 1 -11 1q-5 0 -7 -1l-2 1q-2 0 -2 -6q-1 0 -31 -5q-21 -4 -31 4l-76 -31q-8 0 -19.5 -4t-24.5 -10.5t-16 -7.5q-3 -4 -14 -25q-9 -29 -18 -63v-19l325 25l22 -5h47q11 -2 27.5 -4.5t39 -6t34.5 -5.5q4 -1 19 -6t26 -8q4 -4 44 -42v-29 l-10 -11l7 -8q-19 -8 -20 -10h2l-3.5 -10.5t-3.5 -11.5q-2 -1 -11 -1q-12 0 -20 1q-2 -4 -2 -8q-13 -4 -19 -12q0 3 -9 8q-4 -1 -20 1t-19 2q-12 0 -20 -7l7 -6q-13 0 -19 2q0 1 4 7q-2 1 -13 1q0 -2 3 -8l-135 -3q-25 0 -31 -11l-6 5h-22l-101 -17q-9 0 -11 3l-10 -8h-17 q-3 -3 -3 -10q0 4 -3 7h-9q-5 -5 -5 -8q-14 -3 -48 -4q-4 -3 -23 -10l-77 -10h-56l-6 18q-33 23 -45 52.5t-12 84.5zM173 1209l2 9q-2 4 -2 7q-1 7 5 21q14 21 40 20t45 -18l18 -6l125 -85q71 -48 138 -63q5 -9 17 -16q17 -26 16 -31l13 -8q0 -4 -7 -10q0 -5 4 -9 q-1 -1 -2.5 -2t-3 -2.5l-3.5 -3.5l2 -15q-32 -7 -32 -12q2 0 2 -4l-11 -1q-28 8 -65 18l-206 120q-29 17 -71 52q-1 2 -11 5q-13 29 -13 34zM467 661h1h-1zM468 661q5 -2 3 -4q-1 3 -3 4zM475 674q3 -2 2 -6q-2 2 -2 6zM713 755h1h-1z" />
<glyph unicode="&#xc9;" horiz-adv-x="682" d="M32 160q35 105 53 174q-1 3 -1 6q11 18 12 36l-7 32v39q6 7 18 35q9 20 23 17l24 75v13l-4 5h-15q-49 53 -58 103l17 65q29 20 29 21q1 0 6.5 -1.5l5.5 -1.5q26 0 80 17q5 6 41 36q26 -14 35 -14q2 0 17 3q14 1 23 0l196 42q10 0 11 -3q2 4 2 6l36 6q13 -2 35 -6 q14 7 20 14q4 0 16 -3l60 12q3 -2 24 -6q5 7 15 11q6 0 6 -8q-5 -3 -17 -7q2 -2 13 -2l3 1t11 3t15 4l1 -1q0 -1 -3 -3l8 -9v1v-11q1 -1 5 -2t6 -2q5 5 15 5q26 -6 43 -6q2 -3 2 -7q-25 -13 -24 -31q-20 -14 -32 -22l4 -4q6 0 7 3q3 -6 3 -8q-2 0 -13 -6l-5 8q-5 -8 -15 -8 q-13 0 -21 -2q2 -2 7 -2q-51 -20 -52 -22q-2 1 -4 3q0 -1 -1.5 -3t-4 -5t-4.5 -6h-25q-24 -28 -55 -24q-50 -6 -50 -21q-6 0 -11 6q-35 -11 -33 -12q-9 0 -11 3q-2 -2 -10 -14l-6 6q-1 -1 -7 -1q-8 0 -14 1q-3 -4 -3 -10q0 -2 1 -4h-3h-8q-7 -6 -7 -11l-16 2q-1 0 -14 -4 t-14 -4q-2 1 -7 3q-4 -4 -4 -11l-66 -29q-7 -24 -24 -63q0 -2 1 -5.5t1.5 -8t1.5 -8.5l255 20h74q0 -11 -1 -14h31q-1 -2 2 -10q-5 -6 -7 -7q9 -3 27 -12q-9 -12 -23 -16l-4 -8v-2q1 -1 1.5 -3.5t0.5 -4.5v-12q-3 -4 -15 -9q1 -2 3 -8l-104 -35q-14 0 -18 3q-8 -7 -37 -11 q-1 -2 -3.5 -4t-5.5 -6t-6 -7q-4 1 -11 1q-5 0 -7 -1l-2 1q-2 0 -2 -6q-1 0 -31 -5q-21 -4 -31 4l-76 -31q-8 0 -19.5 -4t-24.5 -10.5t-16 -7.5q-3 -4 -14 -25q-9 -29 -18 -63v-19l325 25l22 -5h47q11 -2 27.5 -4.5t39 -6t34.5 -5.5q4 -1 19 -6t26 -8q4 -4 44 -42v-29 l-10 -11l7 -8q-19 -8 -20 -10h2l-3.5 -10.5t-3.5 -11.5q-2 -1 -11 -1q-12 0 -20 1q-2 -4 -2 -8q-13 -4 -19 -12q0 3 -9 8q-4 -1 -20 1t-19 2q-12 0 -20 -7l7 -6q-13 0 -19 2q0 1 4 7q-2 1 -13 1q0 -2 3 -8l-135 -3q-25 0 -31 -11l-6 5h-22l-101 -17q-9 0 -11 3l-10 -8h-17 q-3 -3 -3 -10q0 4 -3 7h-9q-5 -5 -5 -8q-14 -3 -48 -4q-4 -3 -23 -10l-77 -10h-56l-6 18q-33 23 -45 52.5t-12 84.5zM171 918l1 2.5l2 5t1.5 5l0.5 2.5q12 8 17 19q10 7 53 36.5t78 53.5q98 70 201 128q4 3 4 7l23 11q7 -4 19 -8v-13q7 -2 17 -9q6 -14 14 -14q1 1 5 2 q0 -6 8 -12q-4 -6 -12 -14q0 -2 3 -4q-9 -9 -24 -27q-13 -9 -122 -79q-98 -65 -174 -128q-19 -9 -43 -17l-1.5 3t-3.5 5h-27l-14 12l-24 -2q3 6 8 11q-10 10 -10 24zM467 661h1h-1zM468 661q5 -2 3 -4q-1 3 -3 4zM475 674q3 -2 2 -6q-2 2 -2 6zM713 755h1h-1z" />
<glyph unicode="&#xca;" horiz-adv-x="683" d="M32 160q35 105 53 174q-1 3 -1 6q11 18 12 36l-7 32v39q6 7 18 35q9 20 23 17l24 75v13l-4 5h-15q-49 53 -58 103l17 65q29 20 29 21q1 0 6.5 -1.5l5.5 -1.5q26 0 80 17q5 6 41 36q26 -14 35 -14q2 0 17 3q14 1 23 0l196 42q10 0 11 -3q2 4 2 6l36 6q13 -2 35 -6 q14 7 20 14q4 0 16 -3l60 12q3 -2 24 -6q5 7 15 11q6 0 6 -8q-5 -3 -17 -7q2 -2 13 -2l3 1t11 3t15 4l1 -1q0 -1 -3 -3l8 -9v1v-11q1 -1 5 -2t6 -2q5 5 15 5q26 -6 43 -6q2 -3 2 -7q-25 -13 -24 -31q-20 -14 -32 -22l4 -4q6 0 7 3q3 -6 3 -8q-2 0 -13 -6l-5 8q-5 -8 -15 -8 q-13 0 -21 -2q2 -2 7 -2q-51 -20 -52 -22q-2 1 -4 3q0 -1 -1.5 -3t-4 -5t-4.5 -6h-25q-24 -28 -55 -24q-50 -6 -50 -21q-6 0 -11 6q-35 -11 -33 -12q-9 0 -11 3q-2 -2 -10 -14l-6 6q-1 -1 -7 -1q-8 0 -14 1q-3 -4 -3 -10q0 -2 1 -4h-3h-8q-7 -6 -7 -11l-16 2q-1 0 -14 -4 t-14 -4q-2 1 -7 3q-4 -4 -4 -11l-66 -29q-7 -24 -24 -63q0 -2 1 -5.5t1.5 -8t1.5 -8.5l255 20h74q0 -11 -1 -14h31q-1 -2 2 -10q-5 -6 -7 -7q9 -3 27 -12q-9 -12 -23 -16l-4 -8v-2q1 -1 1.5 -3.5t0.5 -4.5v-12q-3 -4 -15 -9q1 -2 3 -8l-104 -35q-14 0 -18 3q-8 -7 -37 -11 q-1 -2 -3.5 -4t-5.5 -6t-6 -7q-4 1 -11 1q-5 0 -7 -1l-2 1q-2 0 -2 -6q-1 0 -31 -5q-21 -4 -31 4l-76 -31q-8 0 -19.5 -4t-24.5 -10.5t-16 -7.5q-3 -4 -14 -25q-9 -29 -18 -63v-19l325 25l22 -5h47q11 -2 27.5 -4.5t39 -6t34.5 -5.5q4 -1 19 -6t26 -8q4 -4 44 -42v-29 l-10 -11l7 -8q-19 -8 -20 -10h2l-3.5 -10.5t-3.5 -11.5q-2 -1 -11 -1q-12 0 -20 1q-2 -4 -2 -8q-13 -4 -19 -12q0 3 -9 8q-4 -1 -20 1t-19 2q-12 0 -20 -7l7 -6q-13 0 -19 2q0 1 4 7q-2 1 -13 1q0 -2 3 -8l-135 -3q-25 0 -31 -11l-6 5h-22l-101 -17q-9 0 -11 3l-10 -8h-17 q-3 -3 -3 -10q0 4 -3 7h-9q-5 -5 -5 -8q-14 -3 -48 -4q-4 -3 -23 -10l-77 -10h-56l-6 18q-33 23 -45 52.5t-12 84.5zM207 904q0 11 14 34q11 0 19 6q3 2 27 29q6 7 19 21.5t31 34.5l36 40q14 12 50 53q12 12 31 16q2 0 8 -1.5l10 -2.5q11 -8 29 -14q30 -25 83 -79 q62 -63 80 -80q10 -18 21 -40q-15 -19 -22 -36q-1 0 -3 -1l-5 -2.5l-7 -3.5q-1 -1 -22 -1q-1 0 -6 3q-1 0 -3 -1t-4.5 -2t-4.5 -2q-8 8 -21.5 23.5t-16.5 18.5q-29 33 -110 96q-6 -2 -12 -2l-39 -36l2 -6q-2 -1 -8 -5l2 -8q2 0 -1 -1q-2 0 -6 -1l-90 -109l-19 3 q-12 -3 -17 -6q0 1 -2 3l-3 6l-8 -1q2 2 2 6q-3 3 -14 5zM467 661h1h-1zM468 661q5 -2 3 -4q-1 3 -3 4zM475 674q3 -2 2 -6q-2 2 -2 6zM713 755h1h-1z" />
<glyph unicode="&#xcb;" horiz-adv-x="682" d="M32 160q35 105 53 174q-1 3 -1 6q11 18 12 36l-7 32v39q6 7 18 35q9 20 23 17l24 75v13l-4 5h-15q-49 53 -58 103l17 65q29 20 29 21q1 0 6.5 -1.5l5.5 -1.5q22 0 63 12l-4 3q-7 7 -7 24q1 2 5.5 9t9.5 15l10 16q-2 0 -7 -4q-6 6 -6 8l16 -3l-1 9h18q10 7 26 8 q18 -11 56 -29q3 -3 3 -15q1 -1 5.5 -4.5t7.5 -6.5h1l72 15l6 12q44 17 81 20l16 -9l21 4q10 0 11 -3q2 4 2 6l36 6q13 -2 35 -6q14 7 20 14q4 0 16 -3l60 12q3 -2 24 -6q5 7 15 11q6 0 6 -8q-5 -3 -17 -7q2 -2 13 -2l3 1t11 3t15 4l1 -1q0 -1 -3 -3l8 -9v1v-11q1 -1 5 -2 t6 -2q5 5 15 5q26 -6 43 -6q2 -3 2 -7q-25 -13 -24 -31q-20 -14 -32 -22l4 -4q6 0 7 3q3 -6 3 -8q-2 0 -13 -6l-5 8q-5 -8 -15 -8q-13 0 -21 -2q2 -2 7 -2q-51 -20 -52 -22q-2 1 -4 3q0 -1 -1.5 -3t-4 -5t-4.5 -6h-25q-24 -28 -55 -24q-50 -6 -50 -21q-6 0 -11 6 q-35 -11 -33 -12q-9 0 -11 3q-2 -2 -10 -14l-6 6q-1 -1 -7 -1q-8 0 -14 1q-3 -4 -3 -10q0 -2 1 -4h-3h-8q-7 -6 -7 -11l-16 2q-1 0 -14 -4t-14 -4q-2 1 -7 3q-4 -4 -4 -11l-66 -29q-7 -24 -24 -63q0 -2 1 -5.5t1.5 -8t1.5 -8.5l255 20h74q0 -11 -1 -14h31q-1 -2 2 -10 q-5 -6 -7 -7q9 -3 27 -12q-9 -12 -23 -16l-4 -8v-2q1 -1 1.5 -3.5t0.5 -4.5v-12q-3 -4 -15 -9q1 -2 3 -8l-104 -35q-14 0 -18 3q-8 -7 -37 -11q-1 -2 -3.5 -4t-5.5 -6t-6 -7q-4 1 -11 1q-5 0 -7 -1l-2 1q-2 0 -2 -6q-1 0 -31 -5q-21 -4 -31 4l-76 -31q-8 0 -19.5 -4 t-24.5 -10.5t-16 -7.5q-3 -4 -14 -25q-9 -29 -18 -63v-19l325 25l22 -5h47q11 -2 27.5 -4.5t39 -6t34.5 -5.5q4 -1 19 -6t26 -8q4 -4 44 -42v-29l-10 -11l7 -8q-19 -8 -20 -10h2l-3.5 -10.5t-3.5 -11.5q-2 -1 -11 -1q-12 0 -20 1q-2 -4 -2 -8q-13 -4 -19 -12q0 3 -9 8 q-4 -1 -20 1t-19 2q-12 0 -20 -7l7 -6q-13 0 -19 2q0 1 4 7q-2 1 -13 1q0 -2 3 -8l-135 -3q-25 0 -31 -11l-6 5h-22l-101 -17q-9 0 -11 3l-10 -8h-17q-3 -3 -3 -10q0 4 -3 7h-9q-5 -5 -5 -8q-14 -3 -48 -4q-4 -3 -23 -10l-77 -10h-56l-6 18q-33 23 -45 52.5t-12 84.5z M467 661h1h-1zM468 661q5 -2 3 -4q-1 3 -3 4zM475 674q3 -2 2 -6q-2 2 -2 6zM713 755h1h-1z" />
<glyph unicode="&#xcc;" horiz-adv-x="331" d="M15 1004l2 9q-2 4 -2 7q-1 7 5 21q14 21 40 20t45 -18l18 -6l125 -85q70 -48 138 -63q5 -9 17 -16q17 -26 16 -31l13 -8q0 -4 -7 -10q0 -5 4 -9q-1 -1 -4 -3.5t-5 -4.5l2 -15q-32 -7 -32 -12q2 0 2 -4l-11 -1q-28 8 -65 18l-95 55q6 -6 11 -11.5t7.5 -8.5l2.5 -3 q16 -20 24 -42l5 -73l-18 -290l3 -71q-5 -8 -5 -16v-41l-8 -67v-40l-2 -143q0 -4 7 -11q-3 0 -11 -8h-7q-3 1 -8 3q-20 -14 -17 -25q-21 -8 -37 -8q-10 0 -18 5q-6 4 -22.5 16.5t-26.5 19.5l-13 83l35 586q1 6 3 20.5t4 28t4 24.5q1 1 22 51q15 34 34 39l-80 47 q-29 17 -71 52q-1 2 -11 5q-13 29 -13 34z" />
<glyph unicode="&#xcd;" horiz-adv-x="402" d="M20 930l1 2q1 3 2 5.5t1 4.5l1 3q12 8 17 19q10 7 53 36.5t78 53.5q98 70 201 128q4 3 4 7l23 11q7 -4 19 -8v-13q7 -2 17 -9q6 -14 14 -14q1 1 5 2q0 -6 8 -12q-4 -6 -12 -14q0 -2 3 -4q-9 -9 -24 -27q-13 -9 -122 -79q-98 -65 -174 -128q-19 -9 -43 -17l-2 3q-1 3 -3 5 h-27l-14 12l-24 -2q3 6 8 11q-10 10 -10 24zM154 117l35 586q1 6 3 20.5t4 28t4 24.5q1 1 22 51q15 36 36 40q3 -1 18 -7q9 -10 17 -18.5t11 -12.5l4 -4q16 -19 24 -42l5 -73l-18 -290l3 -71q-5 -8 -5 -16v-41l-8 -67v-40l-2 -143q0 -4 7 -11q-3 0 -11 -8h-7q-3 1 -8 3 q-20 -14 -17 -25q-21 -8 -37 -8q-10 0 -18 5q-6 4 -22.5 16.5t-26.5 19.5z" />
<glyph unicode="&#xce;" horiz-adv-x="444" d="M18 683q0 11 14 34q11 0 19 6q3 2 27 29q6 7 19 21.5t31 34.5l36 40q14 12 50 53q11 12 31 16q1 0 7 -1.5t11 -2.5q11 -8 29 -14q30 -25 83 -79q62 -63 80 -80q10 -18 21 -40q-15 -19 -22 -36l-5 -2.5t-10 -4.5q-1 -1 -22 -1q-2 0 -6 3q-2 -1 -6 -2.5t-6 -2.5 q-8 8 -21.5 23.5t-16.5 18.5l-2 2l-17 -278l3 -71q-5 -8 -5 -16v-41l-8 -67v-40l-2 -143q0 -4 7 -11q-3 0 -11 -8h-7q-3 1 -8 3q-20 -14 -17 -25q-21 -8 -37 -8q-10 0 -18 5q-6 4 -22.5 16.5t-26.5 19.5l-13 83l35 586q0 1 4 29.5t7 42.5l-23 -21l2 -6q-2 -1 -8 -5l2 -8 q2 0 -1 -1q-2 0 -6 -1l-90 -109l-19 3q-12 -3 -17 -6q0 1 -2 4t-3 5l-8 -1q2 2 2 6q-3 3 -14 5z" />
<glyph unicode="&#xcf;" horiz-adv-x="337" d="M9 794q1 2 5.5 9t9.5 15l10 16q-2 0 -7 -4q-6 6 -6 8l16 -3l-1 9h18q10 7 26 8q18 -11 56 -29q3 -3 3 -15q1 -1 4.5 -4t5.5 -5q11 25 12 28q15 36 36 40q3 -1 18 -7q16 -17 29 -31q36 13 68 15l42 -24q8 -8 8 -24q-3 -7 -21 -41q2 0 6 4q6 -6 6 -8l-16 2l2 -9 q-9 0 -17 -1q-9 -7 -26 -9q-8 5 -22 11l2 -35l-18 -290l3 -71q-5 -8 -5 -16v-41l-8 -67v-40l-2 -143q0 -4 7 -11q-3 0 -11 -8h-7q-3 1 -8 3q-20 -14 -17 -25q-21 -8 -37 -8q-10 0 -18 5q-6 4 -22.5 16.5t-26.5 19.5l-13 83l35 586q1 6 3.5 24.5t4.5 28.5q-43 -13 -80 -13 l-40 27q-7 7 -7 24z" />
<glyph unicode="&#xd0;" horiz-adv-x="1238" d="M22 438l2.5 11.5t2.5 13.5q11 18 22 22.5t45 8.5q34 3 45 7l9 88v31l12 135q0 13 -7 24q-23 2 -32 5t-20 14q-5 20 -5 25q-15 17 -15 24q0 4 3 10q7 34 22 43q83 12 111 12l79 9h27l76 3l140 -5l142 -25l9 2q31 -7 39 -7q57 -15 142 -39q11 -4 27 -11t40.5 -17t42.5 -18 l45 -15q88 -42 149 -102q73 -72 73 -139q0 -28 -27.5 -72t-49.5 -62l-1 -2l-2.5 -5t-3.5 -6q-34 -13 -46 -36q-20 -12 -56 -45q-7 -2 -26 -11q-1 -1 -3 -4.5t-4.5 -7.5t-7 -11t-8.5 -14l-55 -29q-2 2 -4 2l-176 -124q-19 -6 -58 -42q-17 -9 -26 -16q-17 -10 -23.5 -14 t-15.5 -10t-12 -9.5t-4 -7.5q-22 0 -63 -38q-12 -4 -54 -25q-3 -6 -5 -11l-18 -8q-6 -3 -7 -9q-7 -2 -17 -15q-8 -4 -17 -4l-22 -30h-7l-34 -29h-7l-146 -117q-5 2 -22 2l-24 -7h-9q-1 1 -3 3.5t-4.5 5l-5.5 5.5q-2 0 -19 5q-10 19 -11 29q-6 -1 -16 2q-1 7 4 13 q-3 7 -11 15q0 5 5 10q0 3 -0.5 6t-0.5 5t-0.5 3.5t-0.5 2.5v1q2 1 20 22q50 37 126 87q26 26 75 52q39 36 74 54q20 20 74 54q5 5 9 10q57 42 165 105q35 28 119 88q11 1 48 27q246 164 258 246q-20 31 -61 57q-61 39 -78 54q-2 0 -6 -2q-7 0 -16 8l-36 9q-41 26 -99 31 q-37 20 -38 20l-8 -1l-9 -1l-103 18l-14 -3q-10 12 -41 12l-93 9q-9 0 -27 -5q-4 -1 -12 7h-8q-8 0 -28 -9h-37q-3 0 -13 4l-69 -13l-4 -4l-13 -247l4 -6h24l65 9h100l70 -18q11 -23 30 -32v-17l-7 -16q-12 -2 -23 -11q2 -3 7 -3q-5 -11 -8 -13.5t-15 -5.5q-13 -3 -13 -12 l-46 -3l-153 -29h-9q-21 0 -28 -11l-9 -75q2 -5 6 -21l9 -228l-13 -11q2 -6 -9 -18q1 -7 -7 -20l-12 -15l-9 3q-2 -3 -14 -10l-3 3h-22q-3 7 -11 20q-4 -4 -4 -7l-37 41l1 15v-1l-4 13q-4 13 -4 15v33l-4 261q-2 -1 -24 -1l-22 5q-11 3 -19 5q-1 1 -6 4t-8 5q-4 8 -25 43 q-5 12 -5 21z" />
<glyph unicode="&#xd1;" horiz-adv-x="783" d="M-2 218v28q0 4 8 21.5t16.5 35t8.5 21.5q46 74 87 224q58 211 66 232q6 16 43 53q3 0 18.5 1.5t19.5 1.5q16 0 46 -18q29 -20 35 -33q69 -63 125 -177q18 -37 50.5 -108t48.5 -104q56 -118 112 -174q33 45 93 250q52 176 72 278q0 25 4 61q0 3 5 19.5t5 22.5q3 3 5.5 7 l5 8t4.5 7l10 4l6.5 6.5l6 6t5 3.5t8.5 3q2 6 5 10q9 -4 38 -30l9 10q5 -10 12 -18h9q1 -8 -4 -18l4 -6q-3 -9 11 -26l-11 -68l-3 6l-5 -6l1 -5q0 -12 -10 -22q7 -9 7 -14l-5 2q-4 -3 -7 -7q0 -3 -2 -13.5t-3 -18.5q4 -2 8 -10q-10 -8 -18 -22l7 -5v-10q-9 -1 -12 -10l5 -3 q-4 -12 -12 -30q0 -34 -10 -39l2 -4l-12 -15l5 -31l-10 -7l-1 -10l3 -5l-12 -11l4 -6q-7 -14 -13 -21l8 -9v-9l-4 -2.5t-8 -4.5v-12l13 -2l-9 -8q-5 -12 0 -32q-1 -14 -14 -31q0 -10 -5.5 -18t-5.5 -17q-2 -4 -3 -7.5t-1 -6.5v-4.5t1.5 -5t2.5 -5.5q-12 -20 -19 -33l2 -4 l6 5v-4q0 -9 -5 -21l-10 1l-3 -31l-10 -7q3 -11 4 -14q-8 -27 -14 -43l4 -13l-6 -12q2 -6 2 -13l-0.5 -2t-1 -5.5t-1.5 -7.5t-2 -11l-2 -14l-10 -3l-12 -24q-7 -15 -19 -18q-4 2 -24 5l-2 -4q-10 -6 -21 -6l3 -7q-4 -1 -21 -1q-22 0 -53 25q-113 88 -202 269q-2 5 -16 20 q-3 11 -9.5 23t-19.5 32t-14 22q-18 29 -33 86q-6 20 -39 76q-36 57 -52 73q-17 -27 -28 -84q-3 -15 -8.5 -45t-8.5 -45q-1 -7 -4.5 -16t-8.5 -18t-10 -17.5t-10 -18t-8 -15.5v-3q0 -7 -20 -57q4 -16 4 -20q0 -7 -4 -16t-9 -16.5t-14 -18.5t-14.5 -17t-15 -16t-11.5 -12h-3 q-9 0 -19 -8q-6 2 -11 8h-25l-3 10l-20 7q-4 12 -18 36zM225 898l3.5 7t5 11t7.5 15.5t10 19.5q6 5 24 21l95 84q70 37 134 37q22 0 85 -21q19 -9 55 -33q58 -45 60 -46q12 0 33 15q36 17 156 109q4 3 24 14q16 2 24 4l32 -12v-4q4 -6 13 -6q1 -1 1 -2t-2 -7q7 -7 12 -11 v-30q0 4 -11 -10q-1 -2 -3 -5q-24 -27 -67 -69q-29 -21 -46 -40q-80 -61 -126 -62l-16 -6h2q-9 0 -32.5 7.5t-24.5 7.5q-34 9 -88 59q-49 46 -73 46q-6 0 -38 -16q-32 -17 -45 -17l-121 -102q-3 0 -6 0.5t-4.5 1l-1.5 0.5q-8 -2 -22 -8q-11 4 -23 8q-26 37 -26 40z" />
<glyph unicode="&#xd2;" horiz-adv-x="893" d="M25 377q0 21 24 104q0 4 12 43q20 65 67.5 117.5t110.5 80.5l64 29q50 50 68 55q95 77 278 89q7 -3 11 -10l8 2q-1 1 -2 8h11q3 -5 3 -7q-6 0 -10 -4q24 -8 37 -8q10 0 16 3q-16 4 -38 10q17 6 24 6q1 0 25 -6t48 -11.5t25 -5.5q0 -2 11 -7q0 -4 -4 -8q3 1 16 1l87 -45 q5 0 15 2q1 0 1 -1l-5 -5q33 -24 42 -24q3 -7 10 -20q10 -1 15 8l68 -134q0 -9 -2 -15q2 -11 15 -23l-2 -1t-3 -2q3 -20 10 -44l-15 -107l-45 -132l-93 -105q1 -5 1 -9q-1 1 -3 1h-6l-55 -52v-13q-1 1 -2 3q-1 3 -2 4h-11l-88 -77q-20 -4 -42 -18h-12v-2q-45 -20 -48 -20 q-2 0 -6 2l-72 -35h-8q-20 0 -15 3l-98 -13h-50l-88 13q-51 17 -92 30q-57 34 -80 51q-90 64 -112 175q-9 42 -11 50v53zM177 349q0 -11 8 -49q20 -37 50 -77q1 -1 4 -3.5t6 -4.5t7 -5.5t8 -6.5q3 -2 49 -25q49 -24 61 -24q4 0 6 3q8 -10 30 -10l80 -3q22 0 48 9 q96 18 194 76q119 69 179 164q4 9 9 22.5t9.5 25.5t10 26t10.5 24l2 60q0 33 -23 78q-22 45 -43 47q-4 4 -62 36q-17 4 -53 17q-86 19 -123 19l-65 -9l-2 4l-70 -23q-3 6 -3 8q0 1 1 1l-11 -5q-8 -14 -16 -18t-32 -9q-20 -10 -88 -78l-40 -100q-3 -2 -5 -22q-5 -5 -12 -7 q-4 3 -10 10q-3 -5 -13 -20q-2 1 -4 3.5t-6 5.5t-7 6l-5 -8q-2 5 -1 14q-3 7 -12 17.5t-17 8.5q-15 -15 -16 -19q2 -4 2 -6q-8 -8 -12 -22l-4 -1.5l-4 -1.5q2 -4 2 -8q0 -12 -9 -30q-2 -11 0 -13q-8 -27 -8 -30v-47zM359 1199l2 9q-2 4 -2 7q-1 7 5 21q14 21 40 20t45 -18 q6 -1 18 -6l125 -85q70 -48 138 -63q5 -9 17 -16q17 -26 16 -31l13 -8q0 -4 -7 -10q0 -5 4 -9q-1 -1 -4 -3.5t-5 -4.5l2 -15q-32 -7 -32 -12q2 0 2 -4l-11 -1q-28 8 -65 18l-206 120q-29 17 -71 52q-1 2 -11 5q-13 29 -13 34zM929 201q2 -1 1 -4z" />
<glyph unicode="&#xd3;" horiz-adv-x="892" d="M25 377q0 21 24 104q0 4 12 43q20 65 67.5 117.5t110.5 80.5l64 29q50 50 68 55q95 77 278 89q7 -3 11 -10l8 2q-1 1 -2 8h11q3 -5 3 -7q-6 0 -10 -4q24 -8 37 -8q10 0 16 3q-16 4 -38 10q17 6 24 6q1 0 25 -6t48 -11.5t25 -5.5q0 -2 11 -7q0 -4 -4 -8q3 1 16 1l87 -45 q5 0 15 2q1 0 1 -1l-5 -5q33 -24 42 -24q3 -7 10 -20q10 -1 15 8l68 -134q0 -9 -2 -15q2 -11 15 -23l-2 -1t-3 -2q3 -20 10 -44l-15 -107l-45 -132l-93 -105q1 -5 1 -9q-1 1 -3 1h-6l-55 -52v-13q-1 1 -2 3q-1 3 -2 4h-11l-88 -77q-20 -4 -42 -18h-12v-2q-45 -20 -48 -20 q-2 0 -6 2l-72 -35h-8q-20 0 -15 3l-98 -13h-50l-88 13q-51 17 -92 30q-57 34 -80 51q-90 64 -112 175q-9 42 -11 50v53zM177 349q0 -11 8 -49q20 -37 50 -77q1 -1 4 -3.5t6 -4.5t7 -5.5t8 -6.5q3 -2 49 -25q49 -24 61 -24q4 0 6 3q8 -10 30 -10l80 -3q22 0 48 9 q96 18 194 76q119 69 179 164q4 9 9 22.5t9.5 25.5t10 26t10.5 24l2 60q0 33 -23 78q-22 45 -43 47q-4 4 -62 36q-17 4 -53 17q-86 19 -123 19l-65 -9l-2 4l-70 -23q-3 6 -3 8q0 1 1 1l-11 -5q-8 -14 -16 -18t-32 -9q-20 -10 -88 -78l-40 -100q-3 -2 -5 -22q-5 -5 -12 -7 q-4 3 -10 10q-3 -5 -13 -20q-2 1 -4 3.5t-6 5.5t-7 6l-5 -8q-2 5 -1 14q-3 7 -12 17.5t-17 8.5q-15 -15 -16 -19q2 -4 2 -6q-8 -8 -12 -22l-4 -1.5l-4 -1.5q2 -4 2 -8q0 -12 -9 -30q-2 -11 0 -13q-8 -27 -8 -30v-47zM201 935l1 2q4 12 4 13q12 8 17 19q10 7 53 36.5t78 53.5 q98 70 201 128q4 3 4 7l23 11q7 -3 19 -8v-13q7 -2 17 -9q6 -14 14 -14q1 1 5 2q0 -6 8 -12q-4 -6 -12 -14q0 -3 3 -4q-9 -9 -24 -27q-13 -9 -122 -79q-98 -65 -174 -128q-19 -9 -43 -17l-1 1.5l-2 3t-2 3.5h-27l-14 12l-24 -2q3 6 8 11q-10 10 -10 24zM929 201q2 -1 1 -4z " />
<glyph unicode="&#xd4;" horiz-adv-x="893" d="M25 377q0 21 24 104q0 4 12 43q20 65 67.5 117.5t110.5 80.5l64 29q50 50 68 55q95 77 278 89q7 -3 11 -10l8 2q-1 1 -2 8h11q3 -5 3 -7q-6 0 -10 -4q24 -8 37 -8q10 0 16 3q-16 4 -38 10q17 6 24 6q1 0 25 -6t48 -11.5t25 -5.5q0 -2 11 -7q0 -4 -4 -8q3 1 16 1l87 -45 q5 0 15 2q1 0 1 -1l-5 -5q33 -24 42 -24q3 -7 10 -20q10 -1 15 8l68 -134q0 -9 -2 -15q2 -11 15 -23l-2 -1t-3 -2q3 -20 10 -44l-15 -107l-45 -132l-93 -105q1 -5 1 -9q-1 1 -3 1h-6l-55 -52v-13q-1 1 -2 3q-1 3 -2 4h-11l-88 -77q-20 -4 -42 -18h-12v-2q-45 -20 -48 -20 q-2 0 -6 2l-72 -35h-8q-20 0 -15 3l-98 -13h-50l-88 13q-51 17 -92 30q-57 34 -80 51q-90 64 -112 175q-9 42 -11 50v53zM177 349q0 -11 8 -49q20 -37 50 -77q1 -1 4 -3.5t6 -4.5t7 -5.5t8 -6.5q3 -2 49 -25q49 -24 61 -24q4 0 6 3q8 -10 30 -10l80 -3q22 0 48 9 q96 18 194 76q119 69 179 164q4 9 9 22.5t9.5 25.5t10 26t10.5 24l2 60q0 33 -23 78q-22 45 -43 47q-4 4 -62 36q-17 4 -53 17q-86 19 -123 19l-65 -9l-2 4l-70 -23q-3 6 -3 8q0 1 1 1l-11 -5q-8 -14 -16 -18t-32 -9q-20 -10 -88 -78l-40 -100q-3 -2 -5 -22q-5 -5 -12 -7 q-4 3 -10 10q-3 -5 -13 -20q-2 1 -4 3.5t-6 5.5t-7 6l-5 -8q-2 5 -1 14q-3 7 -12 17.5t-17 8.5q-15 -15 -16 -19q2 -4 2 -6q-8 -8 -12 -22l-4 -1.5l-4 -1.5q2 -4 2 -8q0 -12 -9 -30q-2 -11 0 -13q-8 -27 -8 -30v-47zM287 975q0 11 14 34q11 0 19 6q3 2 27 29q6 7 19 21.5 t31 34.5l36 40q14 12 50 53q11 12 31 16q2 0 4.5 -1t6.5 -1.5t7 -1.5q11 -8 29 -14q30 -25 83 -79q62 -63 80 -80q10 -18 21 -40q-15 -19 -22 -36l-5 -2.5t-10 -4.5q-1 -1 -22 -1q-2 0 -6 3q-1 0 -3 -1t-4.5 -2t-4.5 -2q-8 8 -21.5 23.5t-16.5 18.5q-29 33 -110 96 q-6 -2 -12 -2l-39 -36l2 -6q-2 -1 -8 -5l2 -8q2 0 -1 -1l-6 -1l-90 -109l-19 3q-12 -3 -17 -6q0 1 -2 4t-3 5l-8 -1q2 2 2 6q-3 3 -14 5zM929 201q2 -1 1 -4z" />
<glyph unicode="&#xd5;" horiz-adv-x="892" d="M25 377q0 21 24 104q0 4 12 43q20 65 67.5 117.5t110.5 80.5l64 29q50 50 68 55q95 77 278 89q7 -3 11 -10l8 2q-1 1 -2 8h11q3 -5 3 -7q-6 0 -10 -4q24 -8 37 -8q10 0 16 3q-16 4 -38 10q17 6 24 6q1 0 25 -6t48 -11.5t25 -5.5q0 -2 11 -7q0 -4 -4 -8q3 1 16 1l87 -45 q5 0 15 2q1 0 1 -1l-5 -5q33 -24 42 -24q3 -7 10 -20q10 -1 15 8l68 -134q0 -9 -2 -15q2 -11 15 -23l-2 -1t-3 -2q3 -20 10 -44l-15 -107l-45 -132l-93 -105q1 -5 1 -9q-1 1 -3 1h-6l-55 -52v-13q-1 1 -2 3q-1 3 -2 4h-11l-88 -77q-20 -4 -42 -18h-12v-2q-45 -20 -48 -20 q-2 0 -6 2l-72 -35h-8q-20 0 -15 3l-98 -13h-50l-88 13q-51 17 -92 30q-57 34 -80 51q-90 64 -112 175q-9 42 -11 50v53zM177 349q0 -11 8 -49q20 -37 50 -77q1 -1 4 -3.5t6 -4.5t7 -5.5t8 -6.5q3 -2 49 -25q49 -24 61 -24q4 0 6 3q8 -10 30 -10l80 -3q22 0 48 9 q96 18 194 76q119 69 179 164q4 9 9 22.5t9.5 25.5t10 26t10.5 24l2 60q0 33 -23 78q-22 45 -43 47q-4 4 -62 36q-17 4 -53 17q-86 19 -123 19l-65 -9l-2 4l-70 -23q-3 6 -3 8q0 1 1 1l-11 -5q-8 -14 -16 -18t-32 -9q-20 -10 -88 -78l-40 -100q-3 -2 -5 -22q-5 -5 -12 -7 q-4 3 -10 10q-3 -5 -13 -20q-2 1 -4 3.5t-6 5.5t-7 6l-5 -8q-2 5 -1 14q-3 7 -12 17.5t-17 8.5q-15 -15 -16 -19q2 -4 2 -6q-8 -8 -12 -22l-4 -1.5l-4 -1.5q2 -4 2 -8q0 -12 -9 -30q-2 -11 0 -13q-8 -27 -8 -30v-47zM244 993q1 1 4.5 9t9 19.5t12.5 24.5q6 5 24 21l95 84 q70 37 134 37q22 0 85 -21q19 -9 55 -33q58 -45 60 -46q12 0 33 15q36 17 156 109q4 3 24 14q16 2 24 4l32 -12v-4q4 -6 13 -6q1 -1 1 -2t-2 -7q7 -7 12 -11v-30q0 4 -11 -10q-1 -2 -3 -5q-24 -27 -67 -69q-29 -21 -46 -40q-80 -61 -126 -62l-16 -6h2q-7 0 -19 3.5 t-23.5 7.5t-14.5 4q-34 9 -88 59q-49 46 -73 46q-6 0 -38 -16q-32 -17 -45 -17l-121 -102q-3 0 -6 0.5t-4.5 1l-1.5 0.5q-8 -2 -22 -8q-11 4 -23 8q-26 37 -26 40zM929 201q2 -1 1 -4z" />
<glyph unicode="&#xd6;" horiz-adv-x="893" d="M25 377q0 21 24 104q0 4 12 43q20 65 67.5 117.5t110.5 80.5l64 29q22 22 37 35l-17 11q-7 7 -7 24q1 2 5.5 9t9.5 15l10 16q-2 0 -7 -4q-6 6 -6 8l16 -3l-1 9h18q10 7 26 8q18 -11 56 -29q84 37 206 45q7 -3 11 -10l8 2q-1 1 -2 8h11q3 -5 3 -7q-6 0 -10 -4q24 -8 37 -8 q10 0 16 3q-16 4 -38 10q17 6 24 6q1 0 25 -6t48 -11.5t25 -5.5q0 -2 11 -7q0 -4 -4 -8q3 1 16 1l87 -45q5 0 15 2q1 0 1 -1l-5 -5q33 -24 42 -24q3 -7 10 -20q10 -1 15 8l68 -134q0 -9 -2 -15q2 -11 15 -23l-2 -1t-3 -2q3 -20 10 -44l-15 -107l-45 -132l-93 -105q1 -5 1 -9 q-1 1 -3 1h-6l-55 -52v-13q-1 1 -2 3q-1 3 -2 4h-11l-88 -77q-20 -4 -42 -18h-12v-2q-45 -20 -48 -20q-2 0 -6 2l-72 -35h-8q-20 0 -15 3l-98 -13h-50l-88 13q-51 17 -92 30q-57 34 -80 51q-90 64 -112 175q-9 42 -11 50v53zM177 349q0 -11 8 -49q20 -37 50 -77q1 -1 4 -3.5 t6 -4.5t7 -5.5t8 -6.5q3 -2 49 -25q49 -24 61 -24q4 0 6 3q8 -10 30 -10l80 -3q22 0 48 9q96 18 194 76q119 69 179 164q4 9 9 22.5t9.5 25.5t10 26t10.5 24l2 60q0 33 -23 78q-22 45 -43 47q-4 4 -62 36q-17 4 -53 17q-86 19 -123 19l-65 -9l-2 4l-70 -23q-3 6 -3 8 q0 1 1 1l-11 -5q-8 -14 -16 -18t-32 -9q-20 -10 -88 -78l-40 -100q-3 -2 -5 -22q-5 -5 -12 -7q-4 3 -10 10q-3 -5 -13 -20q-2 1 -4 3.5t-6 5.5t-7 6l-5 -8q-2 5 -1 14q-3 7 -12 17.5t-17 8.5q-15 -15 -16 -19q2 -4 2 -6q-8 -8 -12 -22l-4 -1.5l-4 -1.5q2 -4 2 -8 q0 -12 -9 -30q-2 -11 0 -13q-8 -27 -8 -30v-47zM929 201q2 -1 1 -4z" />
<glyph unicode="&#xd7;" horiz-adv-x="625" d="M32 102q5 38 31 78q3 3 54 69l-54 35q-11 30 -21 48v40q0 10 14 27t22 19h10q20 0 90 -41l71 -41q0 1 117 61q119 61 142 61q17 0 24 -5q20 -15 33 -21q15 -16 23 -32q-8 -34 -8 -36l-10 -10v-13q-16 -9 -48 -16q-10 -6 -68 -35q-37 -24 -77 -51q4 -4 12 -11 q26 -24 38 -36t25.5 -31t26.5 -46q0 -2 2 -7.5t6.5 -18t7.5 -22.5q-3 -21 -25 -41q2 -11 -3 -16q-1 0 -11 -1t-11 -1q-3 0 -18.5 7.5t-18.5 7.5q-72 72 -81 80q-44 41 -74 57q-34 -11 -73 -57q-37 -44 -49 -80q-19 -18 -48 -33q-18 5 -29 20q-15 21 -19 23z" />
<glyph unicode="&#xd8;" horiz-adv-x="1208" d="M-104 -99l205 220v19q0 3 -5 29.5t-5 29.5v79l4 20q0 42 10 93q12 68 17 88q44 105 80 168q47 63 125 109q8 4 32 20q12 28 74 55q19 6 94 34l-3 8q2 -1 30 5q0 -8 -6 -8q-2 1 -5 3q-2 -2 -2 -3l2 -2q31 0 31 9q0 1 -2 5q8 -2 13 -2q9 0 19 3v-1q0 -1 21 -9q6 2 20 2 q8 6 17 15q1 0 12 1.5l11 1.5q23 0 78 -15l58 -16q23 -6 61 -30l62 -39h9q3 3 12 9l125 65q23 12 73 30q26 8 62 8q1 0 19 5q11 2 19 -4q12 -10 29 -39v-5q0 -9 3 -26q-22 -9 -30 -19l7 -9l-95 -50l-135 -87q33 -51 42 -70q22 -42 25 -77q0 -1 1.5 -9.5l1.5 -8.5v-37l10 -64 q-1 -88 -29 -125q-20 -75 -49 -113q-63 -85 -170 -157q-74 -49 -188 -103q-12 0 -35 -6q-88 -24 -116 -24q-21 0 -35 -3q-20 5 -33 5h-37l-95 23l-15 -3q-2 -1 -7 -1h-1l-1 -1h-1h-1h-2q-5 5 -11 5v8q-10 3 -37 12q-33 28 -57 47l-207 -195h-16l-7 5q-2 -2 -2 -5h-16l-6 6 q6 4 10 8l-12 9q-4 0 -6 -3q-3 -1 -13 7q-14 -7 -16 -7l2 13q-7 7 -7 11q1 31 -10 39v44zM216 245q3 0 6 -3l236 208l365 273q4 0 4 2t-3 5l-110 30q-10 0 -37 -8q-5 -12 -17 -17l-2.5 -5t-4 -7.5t-3.5 -7.5h-39q11 0 -69 -24q-46 -9 -77 -28q-46 -17 -101 -62 q-70 -59 -89 -109q-12 -21 -23 -48q-8 -17 -33 -153zM299 86q24 -21 136 -39l63 -3q21 -2 60 9q112 12 271 118q27 16 32 19q71 63 99 102q47 67 47 139q0 11 -8 78q-7 31 -29 58q-7 29 -29 41l-70 -45q-4 2 -6 2q-4 -6 -13 -17q-52 -35 -132 -98q-6 -2 -10 -4 q-44 -36 -198 -155q-33 -34 -47 -42q-19 -21 -63 -57zM604 883h1h-1z" />
<glyph unicode="&#xd9;" horiz-adv-x="824" d="M19 401v62q0 29 28 168q27 81 37 106q30 61 84 91q10 -2 20 -7q1 -2 23 -16l26 -67q-6 -13 -16 -45q-42 -51 -56 -98q-5 -16 -16 -87l3 -115q24 -167 96 -190l31 -11q1 0 18 -2.5t22 -2.5l5 1q4 1 14.5 3t21.5 4q102 20 220 102q104 71 204 192q31 40 83 130l2 6 l7.5 22.5l10.5 31.5q4 16 4 36q0 16 -3 31q-1 1 -1 3q0 4 3 10q-5 12 -5 17q0 37 49 89l15 -2q4 5 14 10q10 -20 16 -26h16l19 -35q6 -30 6 -35v-51q0 12 -12 -45q-4 -19 -9 -45q-91 -239 -193 -328q0 -8 -7 -16q-17 -15 -146 -134q-73 -54 -167 -107q-8 -5 -16 -14 q-13 -5 -21 -18q-12 -2 -63 -19q-62 -5 -85 -10l-4 -1q-25 2 -91 31v3q-80 53 -126 127l-26 64q-17 41 -15 59zM237 859l2 9q-2 4 -2 7q-1 7 5 21q14 21 40 20t45 -18l18 -6l125 -85q70 -48 138 -63q5 -9 17 -16q17 -26 16 -31l13 -8q0 -4 -7 -10q0 -5 4 -9q-1 -1 -4 -3.5 t-5 -4.5l2 -15q-32 -7 -32 -12q2 0 2 -4l-11 -1q-28 8 -65 18l-206 120q-29 17 -71 52q-1 2 -11 5q-13 29 -13 34zM297 -11q-1 0 2 0h-2z" />
<glyph unicode="&#xda;" horiz-adv-x="788" d="M19 401v62q0 29 28 168q27 81 37 106q30 61 84 91q10 -2 20 -7q1 -2 23 -16l26 -67q-6 -13 -16 -45q-42 -51 -56 -98q-5 -16 -16 -87l3 -115q24 -167 96 -190l31 -11q1 0 18 -2.5t22 -2.5l5 1q4 1 14.5 3t21.5 4q102 20 220 102q104 71 204 192q31 40 83 130l2 6 l7.5 22.5l10.5 31.5q4 16 4 36q0 16 -3 31q-1 1 -1 3q0 4 3 10q-5 12 -5 17q0 37 49 89l15 -2q4 5 14 10q10 -20 16 -26h16l19 -35q6 -30 6 -35v-51q0 12 -12 -45q-4 -19 -9 -45q-91 -239 -193 -328q0 -8 -7 -16q-17 -15 -146 -134q-73 -54 -167 -107q-8 -5 -16 -14 q-13 -5 -21 -18q-12 -2 -63 -19q-62 -5 -85 -10l-4 -1q-25 2 -91 31v3q-80 53 -126 127l-26 64q-17 41 -15 59zM211 932l1 2q1 3 2 5.5t2 4.5v3q12 8 17 19q10 7 53 36.5t78 53.5q98 70 201 128q4 3 4 7l23 11q7 -3 19 -8v-13q7 -2 17 -9q6 -14 14 -14q1 1 5 2q0 -6 8 -12 q-4 -6 -12 -14q0 -2 3 -4q-9 -9 -24 -27q-13 -9 -122 -79q-98 -65 -174 -128q-19 -9 -43 -17l-1 3q-2 3 -4 5h-27l-14 12l-24 -2q3 6 8 11q-10 10 -10 24zM297 -11q-1 0 2 0h-2z" />
<glyph unicode="&#xdb;" horiz-adv-x="827" d="M19 401v62q0 29 28 168q27 81 37 106q30 61 84 91q10 -2 20 -7q1 -2 23 -16l26 -67q-6 -13 -16 -45q-42 -51 -56 -98q-5 -16 -16 -87l3 -115q24 -167 96 -190l31 -11q1 0 18 -2.5t22 -2.5l5 1q4 1 14.5 3t21.5 4q102 20 220 102q104 71 204 192q31 40 83 130l2 6 l7.5 22.5l10.5 31.5q4 16 4 36q0 16 -3 31q-1 1 -1 3q0 4 3 10q-5 12 -5 17q0 37 49 89l15 -2q4 5 14 10q10 -20 16 -26h16l19 -35q6 -30 6 -35v-51q0 12 -12 -45q-4 -19 -9 -45q-91 -239 -193 -328q0 -8 -7 -16q-17 -15 -146 -134q-73 -54 -167 -107q-8 -5 -16 -14 q-13 -5 -21 -18q-12 -2 -63 -19q-62 -5 -85 -10l-4 -1q-25 2 -91 31v3q-80 53 -126 127l-26 64q-17 41 -15 59zM229 683q0 11 14 34q11 0 19 6q3 2 27 29q6 7 34.5 38.5t51.5 57.5q14 12 50 53q12 11 31 16q2 0 8 -1.5l10 -2.5q11 -8 29 -14q30 -25 83 -79q62 -63 80 -80 q10 -18 21 -40q-15 -19 -22 -36l-5 -2q-5 -3 -10 -5q-1 -1 -22 -1q-2 0 -6 3q-2 -1 -6 -2.5t-6 -2.5q-8 8 -21.5 23.5t-16.5 18.5q-29 33 -110 96q-6 -2 -12 -2l-39 -36l2 -6q-2 -1 -8 -5l2 -8q2 0 -1 -1q-2 0 -6 -1l-90 -109l-19 3q-12 -3 -17 -6q0 1 -2 4t-3 5l-8 -1 q2 2 2 6q-3 3 -14 5zM297 -11q-1 0 2 0h-2z" />
<glyph unicode="&#xdc;" horiz-adv-x="829" d="M19 401v62q0 29 28 168q27 81 37 106q30 61 84 91q10 -2 20 -7q1 -2 23 -16l26 -67q-6 -13 -16 -45q-42 -51 -56 -98q-5 -16 -16 -87l3 -115q24 -167 96 -190l31 -11q1 0 18 -2.5t22 -2.5l5 1q4 1 14.5 3t21.5 4q102 20 220 102q104 71 204 192q31 40 83 130l2 6 l7.5 22.5l10.5 31.5q4 16 4 36q0 16 -3 31q-1 1 -1 3q0 4 3 10q-5 12 -5 17q0 37 49 89l15 -2q4 5 14 10q10 -20 16 -26h16l19 -35q6 -30 6 -35v-51q0 12 -12 -45q-4 -19 -9 -45q-91 -239 -193 -328q0 -8 -7 -16q-17 -15 -146 -134q-73 -54 -167 -107q-8 -5 -16 -14 q-13 -5 -21 -18q-12 -2 -63 -19q-62 -5 -85 -10l-4 -1q-25 2 -91 31v3q-80 53 -126 127l-26 64q-17 41 -15 59zM277 790q1 2 5.5 9t9.5 15l10 16q-2 0 -7 -4q-6 6 -6 8l16 -3l-1 9h18q10 7 26 8q18 -11 56 -29q3 -3 3 -15q1 -1 5.5 -4.5t7.5 -6.5l-2 -22q-4 -5 -12 -18 q-44 -14 -82 -14l-40 27q-7 7 -7 24zM297 -11q-1 0 2 0h-2zM488 780l1 21q5 10 10 19q44 17 81 20l42 -24q8 -8 8 -24q-3 -7 -21 -41q2 0 6 4q6 -6 6 -8l-16 2l2 -9q-9 0 -17 -1q-9 -7 -26 -9q-15 10 -58 24q-4 3 -4 15q-6 3 -14 11z" />
<glyph unicode="&#xdd;" horiz-adv-x="599" d="M17 801l4 50q14 8 24 25h19l39 -39q10 -13 20 -39q14 -22 26 -59l22 -67q13 -28 51 -112q25 -63 44 -86h8q29 33 77 73q25 39 46 56q3 4 5.5 8t5 7.5t4.5 7.5t6 10.5t8 12.5q25 32 69 80v6l62 62q0 6 3 13q26 31 99 106q3 0 7.5 1t11 2t12.5 2q5 -3 5 -12q1 -1 4.5 -3.5 t5.5 -3.5q5 -24 23 -24q2 -10 13 -48q0 -1 3 -9l-4 -4q2 -4 2 -5l-1 -1q-5 -15 -9 -28l-125 -225q-5 2 -11 -5q0 -1 2 -5q0 -10 -5 -19q-17 -33 -66 -111q-5 -11 -71 -134q-46 -83 -56 -126q-38 -85 -38 -172q0 -24 2 -36q-10 -15 -21 -41q-7 1 -13 -11q-12 -2 -23 -7 q-16 7 -46 17q-9 14 -16 15q-5 14 -16 34q0 14 -5 30q1 1 1 10q0 13 -1 24q7 63 22 145q6 9 14 16q9 8 9 17q0 3 3 16t0 20q8 19 20 40q-9 12 -21 12q-4 0 -10 -2l-9 9l-6 -4q-9 1 -30 14q-6 10 -59 90q-72 155 -130 330q-12 57 -10 77zM133 1066l1 2.5l2 5t1.5 5l0.5 2.5 q12 8 17 19q10 7 53 36.5t78 53.5q98 70 201 128q4 3 4 7l23 11q7 -4 19 -8v-13q7 -2 17 -9q6 -14 14 -14q1 1 5 2q0 -6 8 -12q-4 -6 -12 -14q0 -2 3 -4q-9 -9 -24 -27q-13 -9 -122 -79q-98 -65 -174 -128q-19 -9 -43 -17l-1 1.5l-2 3t-2 3.5h-27l-14 12l-24 -2q3 6 8 11 q-10 10 -10 24z" />
<glyph unicode="&#xde;" horiz-adv-x="756" d="M28 89q0 4 10 16l-3 103q0 19 13 59l-5 15v58q12 46 12 47q-1 2 -1 5t3 8q-1 2 -1 8q0 9 4 20q-1 13 -10 62q5 10 5 15l3 266l12 73q10 42 46 51q33 -9 42 -25q25 -15 27 -51l5 -138q13 -7 19 -7l74 5q6 1 17 1q73 0 207 -44q79 -26 170 -111q84 -76 82 -155q7 -10 7 -24 q0 -15 -12 -39q-5 -44 -79 -87q-2 -1 -13 -15q0 -1 -29 -16q-29 -18 -48 -38q-10 -2 -33 -19q-10 -1 -20.5 -6t-24 -14t-20.5 -13q-10 -6 -106 -53q-67 -33 -109 -34q-21 -4 -57 -18q0 -5 -2 -7q4 -4 7 -10q-1 -7 -1 -18q0 -17 4 -25q-5 -18 -5 -32q0 -2 4.5 -17t4.5 -16 q-4 -23 -4 -34v-48l12 -123q-8 -34 -8 -41q-3 -5 -10 -13q-4 2 -6 2q-1 0 -18.5 -8.5t-18.5 -8.5q-10 -13 -18 -15q-4 8 -8 18q0 2 -12 7q-5 0 -12 -7q-14 10 -41 25q-1 5 -13 31q6 11 5 16l-7 33q-2 2 -7 2q-5 7 -17 28q-7 5 -16 13v343zM203 493l13 -342h8l98 43l2.5 -0.5 t4.5 -0.5l6 -2q24 0 148 71q41 23 87 64q33 28 33 43q0 28 -50 78q-49 49 -86 55q-60 30 -120 27q-6 7 -30 7q-36 0 -37 -2h1q-2 -1 -5 -4t-5 -4q-9 0 -14 5q-9 -4 -28 -15q-1 0 -16 3q-3 -5 -10 -26z" />
<glyph unicode="&#xdf;" horiz-adv-x="800" d="M34 665q-3 38 22 94q23 48 58 73q128 56 206 69q23 8 58 10l122 7q16 0 63 -8q1 -1 26 -11q136 -99 149 -187q1 -7 3.5 -19t2.5 -18l1 -1v-60q0 -26 -26 -61q-1 -4 -9 -7l5 -5q-6 -4 -14 -21q-1 3 -5 3q-12 -11 -12 -16q1 -1 4 -1q2 0 4 1q-1 -2 -5 -8.5t-6 -10.5 q-15 -12 -15 -19q0 -2 1 -3q-20 -18 -45 -38q-16 -24 -43 -69v-12q9 -8 77 -64q60 -49 71 -59q38 -34 54 -60q14 -21 30 -74t16 -83q0 -44 -14 -86t-37.5 -74t-51.5 -51q-5 -5 -23 -28q-119 -94 -186 -184q0 2 -5 7q-10 -10 -34 -25q-16 -14 -35 -40q-15 7 -16 10 q-1 -1 -10 -7l-5 7l-9 -12q-5 2 -13 18q-5 6 -29 22v21l4 13q1 5 3 17q-1 5 -1 20q3 18 13 33q10 41 70 99q21 21 89 85q36 33 99 107q8 16 8 35q0 47 -27 77q-7 8 -65.5 55t-81.5 62q-17 16 -58 60q0 1 -6 13.5t-11.5 26.5t-5.5 21q0 24 17 67q7 17 29 71q30 50 78 103 q7 7 20 22.5t20 22.5q21 24 21 44q0 45 -40 67l-2 13q-5 7 -12 8q-59 8 -68 8q-19 0 -26 -10q-3 1 -27 5l-41 -10q-4 3 -8 3q6 -1 -79 -21l-2 -1.5t-5 -4.5l-6 -6q-4 2 -12 -1q-39 -17 -56.5 -41t-15.5 -69l17 -608q6 -24 4 -48q-6 -12 -6 -58q0 -1 8 -31q9 -28 9 -31v-26 l-1.5 -1t-4 -3t-5.5 -4.5l-6 -5t-5.5 -5t-4.5 -5t-3 -4.5q0 3 -5 3h-6q-11 -11 -19 -30q-5 1 -16 17q2 -5 -4 -5h-6q1 2 -2 16q-2 4 -8.5 14t-10.5 16l-40 398l-5 183zM176 -253v2v-2z" />
<glyph unicode="&#xe0;" horiz-adv-x="642" d="M23 135q0 17 39 106q34 37 50 38q9 9 72 51q7 3 101 43q75 18 69 18q1 0 27 -2t29 -1q29 -13 29 -29v-4q6 -5 13.5 -19t10.5 -22q3 1 9 1q23 0 42 -18q86 -134 105 -195q-3 -3 -9.5 -11t-13 -16.5t-13.5 -16.5l-17 3q0 -1 -3 -5.5l-5 -7.5q-5 2 -20 12q-12 -3 -56 32 q-10 19 -44 67l-129 -97q0 -1 1.5 -2.5t2.5 -3.5l1 -2q-6 -11 -43 -27l-107 -34q-75 0 -120 59q-21 57 -21 83zM105 659l2 9q-2 4 -2 7q-1 7 5 21q14 21 40 20t45 -18l18 -6l125 -85q70 -48 138 -63q5 -9 17 -16q17 -26 16 -31l13 -8q0 -4 -7 -10q0 -5 4 -9q-1 -1 -4 -3.5 t-5 -4.5l2 -15q-32 -7 -32 -12q2 0 2 -4l-11 -1q-28 8 -65 18l-206 120q-29 17 -71 52q-1 2 -11 5q-13 29 -13 34zM169 152l28 -3q101 25 159 84q1 1 23 18h-26q-19 0 -116 -41q-31 -19 -66 -52z" />
<glyph unicode="&#xe1;" horiz-adv-x="608" d="M23 135q0 17 39 106q34 37 50 38q9 9 72 51q7 3 101 43q75 18 69 18q1 0 27 -2t29 -1q29 -13 29 -29v-4q6 -5 13.5 -19t10.5 -22q3 1 9 1q23 0 42 -18q86 -134 105 -195q-3 -3 -9.5 -11t-13 -16.5t-13.5 -16.5l-17 3q0 -1 -3 -5.5l-5 -7.5q-5 2 -20 12q-12 -3 -56 32 q-10 19 -44 67l-129 -97q0 -1 1.5 -2.5t2.5 -3.5l1 -2q-6 -11 -43 -27l-107 -34q-75 0 -120 59q-21 57 -21 83zM75 433l1 3q1 2 2 4.5t2 5.5v2q12 8 17 19q10 7 53 36.5t78 53.5q98 70 201 128q4 3 4 7l23 11q7 -3 19 -8v-13q7 -2 17 -9q6 -14 14 -14q1 1 5 2q0 -6 8 -12 q-4 -6 -12 -14q0 -3 3 -4q-9 -9 -24 -27q-13 -9 -122 -79q-98 -65 -174 -128q-19 -9 -43 -17l-1 3q-2 3 -4 5h-27l-14 12l-24 -2q3 6 8 11q-10 10 -10 24zM169 152l28 -3q101 25 159 84q1 1 23 18h-26q-19 0 -116 -41q-31 -19 -66 -52z" />
<glyph unicode="&#xe2;" horiz-adv-x="650" d="M23 135q0 17 39 106q34 37 50 38q9 9 72 51q7 3 101 43q75 18 69 18q1 0 27 -2t29 -1q29 -13 29 -29v-4q6 -5 13.5 -19t10.5 -22q3 1 9 1q23 0 42 -18q86 -134 105 -195q-3 -3 -9.5 -11t-13 -16.5t-13.5 -16.5l-17 3q0 -1 -3 -5.5l-5 -7.5q-5 2 -20 12q-12 -3 -56 32 q-10 19 -44 67l-129 -97q0 -1 1.5 -2.5t2.5 -3.5l1 -2q-6 -11 -43 -27l-107 -34q-75 0 -120 59q-21 57 -21 83zM86 452q0 11 14 34q11 0 19 6q3 2 27 29q6 7 34.5 38.5t51.5 57.5q14 12 50 53q12 12 31 16q1 0 7 -1.5t11 -2.5q11 -8 29 -14q30 -25 83 -79q62 -63 80 -80 q10 -18 21 -40q-15 -19 -22 -36l-5 -3l-10 -4q-1 -1 -22 -1q-1 0 -6 3q-2 -1 -6 -2.5t-6 -2.5q-8 8 -21.5 23.5t-16.5 18.5q-29 33 -110 96q-6 -2 -12 -2l-39 -36l2 -6q-2 -1 -8 -5l2 -8q2 0 -1 -1q-2 0 -6 -1l-90 -109l-19 3q-12 -3 -17 -6q0 1 -2 4t-3 5l-8 -1q2 2 2 6 q-3 3 -14 5zM169 152l28 -3q101 25 159 84q1 1 23 18h-26q-19 0 -116 -41q-31 -19 -66 -52z" />
<glyph unicode="&#xe3;" horiz-adv-x="626" d="M18 612q1 1 4.5 9t9 19.5t12.5 24.5q6 5 24 21l95 84q70 37 134 37q22 0 85 -21q19 -9 55 -33q58 -45 60 -46q12 0 33 15q36 17 156 109q4 3 24 14q16 2 24 4l32 -12v-4q4 -6 13 -6q1 -1 1 -2t-2 -7q7 -7 12 -11v-30q0 4 -11 -10q-1 -2 -3 -5q-24 -27 -67 -69 q-29 -21 -46 -40q-80 -61 -126 -62l-16 -6h2q-9 0 -32.5 7.5t-24.5 7.5q-34 9 -88 59q-49 46 -73 46q-6 0 -38 -16q-32 -17 -45 -17l-121 -102q-4 1 -9 2h-3q-8 -2 -22 -8q-11 4 -23 8q-26 37 -26 40zM23 135q0 17 39 106q34 37 50 38q9 9 72 51q7 3 101 43q75 18 69 18 q1 0 27 -2t29 -1q29 -13 29 -29v-4q6 -5 13.5 -19t10.5 -22q3 1 9 1q23 0 42 -18q86 -134 105 -195q-3 -3 -9.5 -11t-13 -16.5t-13.5 -16.5l-17 3q0 -1 -3 -5.5l-5 -7.5q-5 2 -20 12q-12 -3 -56 32q-10 19 -44 67l-129 -97q0 -1 1.5 -2.5t2.5 -3.5l1 -2q-6 -11 -43 -27 l-107 -34q-75 0 -120 59q-21 57 -21 83zM169 152l28 -3q101 25 159 84q1 1 23 18h-26q-19 0 -116 -41q-31 -19 -66 -52z" />
<glyph unicode="&#xe4;" horiz-adv-x="619" d="M23 135q0 17 39 106q34 37 50 38q9 9 72 51q7 3 101 43q75 18 69 18q1 0 27 -2t29 -1q29 -13 29 -29v-4q6 -5 13.5 -19t10.5 -22q3 1 9 1q23 0 42 -18q86 -134 105 -195q-3 -3 -9.5 -11t-13 -16.5t-13.5 -16.5l-17 3q0 -1 -3 -5.5l-5 -7.5q-5 2 -20 12q-12 -3 -56 32 q-10 19 -44 67l-129 -97q0 -1 1.5 -2.5t2.5 -3.5l1 -2q-6 -11 -43 -27l-107 -34q-75 0 -120 59q-21 57 -21 83zM127 492q1 2 5.5 9t9.5 15l10 16q-2 0 -7 -4q-6 6 -6 8l16 -3l-1 9h18q10 7 26 8q18 -11 56 -29q3 -3 3 -15q1 -1 5.5 -4.5t7.5 -6.5l-2 -22q-4 -5 -12 -18 q-44 -14 -82 -14l-40 27q-7 7 -7 24zM169 152l28 -3q101 25 159 84q1 1 23 18h-26q-19 0 -116 -41q-31 -19 -66 -52zM338 482l1 21q5 10 10 19q44 17 81 20l42 -24q8 -8 8 -24q-3 -7 -21 -41q2 0 6 4q6 -6 6 -8l-16 2l2 -9q-9 0 -17 -1q-9 -7 -26 -9q-15 10 -58 24 q-4 3 -4 15q-6 3 -14 11z" />
<glyph unicode="&#xe5;" horiz-adv-x="605" d="M23 135q0 17 39 106q34 37 50 38q9 9 72 51q7 3 101 43q75 18 69 18q1 0 27 -2t29 -1q29 -13 29 -29v-4q6 -5 13.5 -19t10.5 -22q3 1 9 1q23 0 42 -18q86 -134 105 -195q-3 -3 -9.5 -11t-13 -16.5t-13.5 -16.5l-17 3q0 -1 -3 -5.5l-5 -7.5q-5 2 -20 12q-12 -3 -56 32 q-10 19 -44 67l-129 -97q0 -1 1.5 -2.5t2.5 -3.5l1 -2q-6 -11 -43 -27l-107 -34q-75 0 -120 59q-21 57 -21 83zM86 562q0 16 10.5 28.5t27.5 12.5q9 27 40 66q23 8 31 8h56q1 -4 37 -18q10 -8 38 -20l37 -40q51 -87 51 -107l-5 -47q-5 -7 -21 -25q-2 -1 -40 -22l-38 -6 q-32 0 -45 -3q-6 -1 -11 8q-40 0 -38 -2l-2 2l-70 35q-2 3 -14 17.5t-21 25.5q-23 61 -23 87zM169 152l28 -3q101 25 159 84q1 1 23 18h-26q-19 0 -116 -41q-31 -19 -66 -52zM218 528q0 -16 48 -16q10 0 31.5 7.5t23.5 13.5q0 5 -2 13q-20 14 -53 14q-32 0 -34 -2q1 -1 2 -1 q-3 -4 -8 -12q-8 -13 -8 -17z" />
<glyph unicode="&#xe6;" horiz-adv-x="918" d="M6 457q0 12 11 43q70 61 214 61q27 0 69 -23q21 -10 60 -33q1 1 3 5q24 50 87 67l11.5 2t12.5 2q2 0 11 -3l18 8l60 2q45 0 116 -21q4 -1 10.5 -5t12.5 -8.5t13.5 -10.5t14 -11.5t14 -12t12.5 -11.5t11 -10.5t8 -7.5q-1 -8 8 -16q12 -12 12 -26q0 -3 -2 -19q6 -13 6 -15 l-1.5 2t-3.5 4q-2 -2 -2 -5q0 -5 3 -9l-18 -13q0 -3 3 -6q-30 -105 -214 -138q-9 -1 -12 -8q3 -1 3 -4q42 -23 52 -23q4 -2 50 -21q27 -4 65 -6q12 -7 46 -12q1 0 4 -1q37 -4 46.5 -7t28.5 -13q3 -1 4.5 -2t4 -2.5t4.5 -2.5q0 -6 7 -14t7 -11q0 -4 -1 -5q17 -11 17 -18v-18 q-7 -10 -7 -20q-3 -3 -11 -3q-5 -12 -5 -20l-16 2q-6 0 -9 -7l-44 -6q-7 0 -24 5q-7 0 -7 -7h-24q-40 8 -47 8q-24 5 -70 12q-69 24 -85 28q-26 14 -48 29q-22 2 -47 8l-105 -100q-8 0 -16 -4l7 -6q-2 0 -6 0.5t-6 0.5q-32 0 -38 -21q-23 1 -39 -5q-8 5 -13 5h-47 q-11 0 -23 20l-15 -3q-4 5 -6 6.5t-2 0.5q-30 16 -60.5 50t-30.5 64q-7 11 -7 28q0 34 8 68q14 21 29.5 37t26.5 26t34.5 21t34 15.5t45 16.5t48.5 17q15 0 28 1q4 2 27 14q-13 20 -46 38t-62 18q-32 0 -82 -18l-48 -17q-27 5 -37 5q-3 4 -15 10q-26 51 -26 59zM187 140h13 q6 0 86 31q7 8 31 32q0 3 -3 7h-9l-108 -48q-1 -1 -10 -22zM491 402q0 -6 1 -9l24 -3l69 14q40 8 60 29q-28 15 -56 15q-98 0 -98 -46z" />
<glyph unicode="&#xe7;" horiz-adv-x="612" d="M30 136q0 24 15 67q14 43 26 53q78 81 250 158q4 1 17 7.5t23 10.5q4 0 53 16q38 12 63 12q1 0 12.5 -1t12.5 -1q5 0 13 2l23 -66q-6 -13 -22 -31l2 -7q-1 -1 -140 -64q-6 -4 -21 -19q-58 -20 -89 -33q-44 -18 -65 -61q2 -2 2 -5q28 -19 82 -19l226 25l60 -15l5 -11 q2 -15 0 -38q-8 -15 -32 -28q-36 -19 -40 -23q0 -10 -12 -16q-30 -16 -97 -28q-12 -7 -24 -11q16 -24 16 -46q0 -5 -2 -15q7 -12 28 -26q35 -24 57.5 -49t43.5 -63q10 -50 12 -56t2 -1q0 -16 -18 -49q-10 -17 -20.5 -31t-23.5 -25t-24 -19t-28.5 -17t-30 -14.5t-36 -15.5 t-38.5 -17q-9 -2 -10 -9h-119l2 4l-27 59l4 13q-1 7 -1 30q11 51 75 67q33 14 92 54q0 7 -6 7q-3 1 -7 1.5t-7 0.5v7q-18 2 -48 18q-5 15 -12 22q0 7 -7 20q-3 11 -3 36q0 39 21 97l-47 7l-7 -2q-7 -1 -8 -1l-35 10l-11 -2q-8 0 -35 10q-21 9 -32 13q-53 59 -53 108z" />
<glyph unicode="&#xe8;" horiz-adv-x="607" d="M32 198q0 48 41 116q46 75 101 97q2 1 16 1q25 21 83 35q51 13 89 13q32 0 76 -24q-1 -1 -1 -12q3 -1 11 -2.5t11 -2.5q0 -2 6 -10q0 -16 14 -47v-21q0 -4 -6 -10q3 -5 3 -11q0 -10 -9 -24q0 -2 -0.5 -5t-1 -7t-0.5 -8q-6 -9 -33.5 -33t-53.5 -41q-24 -16 -62 -33.5 t-64 -26.5l-26 -10q10 -5 53.5 -12.5t77.5 -7.5q25 0 70 10.5t77 21.5l33 10l7 -12q7 -11 13.5 -19.5t12.5 -13.5q-10 -15 -17 -29q-7 0 -10 3q-7 -2 -17 -9q18 -8 28 -14q-6 -2 -27 -21q-29 -9 -62 -16q-13 -7 -18 -22l-124 -16q-135 9 -214 61q-57 58 -72 135q-5 13 -5 17 zM88 719l2 9q-2 4 -2 7q-1 7 5 21q14 21 40 20t45 -18l18 -6l125 -85q71 -48 138 -63q5 -9 17 -16q17 -26 16 -31l13 -8q0 -4 -7 -10q0 -5 4 -9q-1 -1 -4 -3.5t-5 -4.5l2 -15q-32 -7 -32 -12q2 0 2 -4l-11 -1q-28 8 -65 18l-206 120q-29 17 -71 52q-1 2 -11 5q-13 29 -13 34 zM184 250q6 0 11 -5q9 4 23.5 8.5t24.5 8t23 9.5t24 14q25 18 58 54q-1 0 -7 13q-16 -7 -41.5 -14.5t-42.5 -17.5q-51 -33 -73 -70z" />
<glyph unicode="&#xe9;" horiz-adv-x="607" d="M32 198q0 48 41 116q46 75 101 97q2 1 16 1q25 21 83 35q51 13 89 13q32 0 76 -24q-1 -1 -1 -12q3 -1 11 -2.5t11 -2.5q0 -2 6 -10q0 -16 14 -47v-21q0 -4 -6 -10q3 -5 3 -11q0 -10 -9 -24q0 -2 -0.5 -5t-1 -7t-0.5 -8q-6 -9 -33.5 -33t-53.5 -41q-24 -16 -62 -33.5 t-64 -26.5l-26 -10q10 -5 53.5 -12.5t77.5 -7.5q25 0 70 10.5t77 21.5l33 10l7 -12q7 -11 13.5 -19.5t12.5 -13.5q-10 -15 -17 -29q-7 0 -10 3q-7 -2 -17 -9q18 -8 28 -14q-6 -2 -27 -21q-29 -9 -62 -16q-13 -7 -18 -22l-124 -16q-135 9 -214 61q-57 58 -72 135q-5 13 -5 17 zM45 493l1 3q1 2 2 4.5t2 5.5v2q12 8 17 19q10 7 53 36.5t78 53.5q98 70 201 128q4 3 4 7l23 11q7 -3 19 -8v-13q7 -2 17 -9q6 -14 14 -14q1 1 5 2q0 -6 8 -12q-4 -6 -12 -14q0 -3 3 -4q-9 -9 -24 -27q-13 -9 -122 -79q-98 -65 -174 -128q-19 -9 -43 -17l-1 3q-2 3 -4 5h-27 l-14 12l-24 -2q3 6 8 11q-10 10 -10 24zM184 250q6 0 11 -5q9 4 23.5 8.5t24.5 8t23 9.5t24 14q25 18 58 54q-1 0 -7 13q-16 -7 -41.5 -14.5t-42.5 -17.5q-51 -33 -73 -70z" />
<glyph unicode="&#xea;" horiz-adv-x="571" d="M32 198q0 48 41 116q46 75 101 97q2 1 16 1q25 21 83 35q51 13 89 13q32 0 76 -24q-1 -1 -1 -12q3 -1 11 -2.5t11 -2.5q0 -2 6 -10q0 -16 14 -47v-21q0 -4 -6 -10q3 -5 3 -11q0 -10 -9 -24q0 -2 -0.5 -5t-1 -7t-0.5 -8q-6 -9 -33.5 -33t-53.5 -41q-24 -16 -62 -33.5 t-64 -26.5l-26 -10q10 -5 53.5 -12.5t77.5 -7.5q25 0 70 10.5t77 21.5l33 10l7 -12q7 -11 13.5 -19.5t12.5 -13.5q-10 -15 -17 -29q-7 0 -10 3q-7 -2 -17 -9q18 -8 28 -14q-6 -2 -27 -21q-29 -9 -62 -16q-13 -7 -18 -22l-124 -16q-135 9 -214 61q-57 58 -72 135q-5 13 -5 17 zM83 519q0 11 14 34q11 0 19 6q3 2 27 29q6 7 34.5 38.5t51.5 57.5q14 12 50 53q11 12 31 16q1 0 7 -1.5t11 -2.5q11 -8 29 -14q30 -25 83 -79q62 -63 80 -80q10 -18 21 -40q-15 -19 -22 -36l-5 -2q-5 -3 -10 -5q-1 -1 -22 -1q-2 0 -6 3q-2 -1 -6 -2.5t-6 -2.5 q-8 8 -21.5 23.5t-16.5 18.5q-29 33 -110 96q-6 -2 -12 -2l-39 -36l2 -6q-2 -1 -8 -5l2 -8q2 0 -1 -1q-2 0 -6 -1l-90 -109l-19 3q-12 -3 -17 -6q0 1 -2 4t-3 5l-8 -1q2 2 2 6q-3 3 -14 5zM184 250q6 0 11 -5q9 4 23.5 8.5t24.5 8t23 9.5t24 14q25 18 58 54q-1 0 -7 13 q-16 -7 -41.5 -14.5t-42.5 -17.5q-51 -33 -73 -70z" />
<glyph unicode="&#xeb;" horiz-adv-x="607" d="M32 198q0 48 41 116q46 75 101 97q2 1 16 1q25 21 83 35q51 13 89 13q32 0 76 -24q-1 -1 -1 -12q3 -1 11 -2.5t11 -2.5q0 -2 6 -10q0 -16 14 -47v-21q0 -4 -6 -10q3 -5 3 -11q0 -10 -9 -24q0 -2 -0.5 -5t-1 -7t-0.5 -8q-6 -9 -33.5 -33t-53.5 -41q-24 -16 -62 -33.5 t-64 -26.5l-26 -10q10 -5 53.5 -12.5t77.5 -7.5q25 0 70 10.5t77 21.5l33 10l7 -12q7 -11 13.5 -19.5t12.5 -13.5q-10 -15 -17 -29q-7 0 -10 3q-7 -2 -17 -9q18 -8 28 -14q-6 -2 -27 -21q-29 -9 -62 -16q-13 -7 -18 -22l-124 -16q-135 9 -214 61q-57 58 -72 135q-5 13 -5 17 zM125 565q1 2 5.5 9t9.5 15l10 16q-2 0 -7 -4q-6 6 -6 8l16 -3l-1 9h18q10 7 26 8q18 -11 56 -29q3 -3 3 -15q1 -1 5.5 -4.5t7.5 -6.5l-2 -22q-4 -4 -12 -18q-44 -14 -82 -14l-40 27q-7 7 -7 24zM184 250q6 0 11 -5q9 4 23.5 8.5t24.5 8t23 9.5t24 14q25 18 58 54 q-1 0 -7 13q-16 -7 -41.5 -14.5t-42.5 -17.5q-51 -33 -73 -70zM336 555l1 21q5 10 10 19q44 17 81 20l42 -24q8 -8 8 -24q-3 -7 -21 -41q2 0 6 4q6 -6 6 -8l-16 2l2 -9q-9 0 -17 -1q-9 -7 -26 -9q-15 10 -58 24q-4 3 -4 15q-6 3 -14 11z" />
<glyph unicode="&#xec;" horiz-adv-x="455" d="M13 581l2 9q-2 4 -2 7q-1 7 5 21q14 21 40 20t45 -18l18 -6l125 -85q70 -48 138 -63q5 -9 17 -16q17 -26 16 -31l13 -8q0 -4 -7 -10q0 -5 4 -9q-1 -1 -4 -3.5t-5 -4.5l2 -15q-32 -7 -32 -12q2 0 2 -4l-11 -1q-28 8 -65 18l-206 120q-29 17 -71 52q-1 2 -11 5 q-13 29 -13 34zM126 162l3 88l12 58q13 11 18 25l26 6q6 0 16 -7q5 -5 19.5 -21.5t24.5 -27.5q16 -28 16 -50v-61l-1 -1l-1 -5q0 -5 -2 -25q-1 -14 -1 -44v-50l-15 -36l-11 2q-6 -4 -10 -7l-10 5l-10 -5q-5 3 -41 12q-13 20 -24 62.5t-9 81.5z" />
<glyph unicode="&#xed;" horiz-adv-x="437" d="M24 361l1 3q1 2 2 4.5t1 5.5l1 2q12 8 17 19q10 7 53 36.5t78 53.5q98 70 201 128q4 3 4 7l23 11q7 -3 19 -8v-13q7 -2 17 -9q6 -14 14 -14q1 1 5 2q0 -6 8 -12q-4 -6 -12 -14q0 -3 3 -4q-9 -9 -24 -27q-13 -9 -122 -79q-98 -65 -174 -128q-19 -9 -43 -17l-2 3q-1 3 -3 5 h-27l-14 12l-24 -2q3 6 8 11q-10 10 -10 24zM194 162l3 88l12 58q13 11 18 25l26 6q6 0 16 -7q5 -5 19.5 -21.5t24.5 -27.5q16 -28 16 -50v-61l-1 -1l-1 -5q0 -5 -2 -25q-1 -14 -1 -44v-50l-15 -36l-11 2q-6 -4 -10 -7l-10 5l-10 -5q-5 3 -41 12q-13 20 -24 62.5t-9 81.5z " />
<glyph unicode="&#xee;" horiz-adv-x="514" d="M18 343q0 11 14 34q11 0 19 6q3 2 27 29q6 7 34.5 38.5t51.5 57.5q14 12 50 53q12 11 31 16q1 0 7 -1.5t11 -2.5q11 -8 29 -14q30 -25 83 -79q62 -63 80 -80q10 -18 21 -40q-15 -19 -22 -36l-5 -2q-5 -3 -10 -5q-1 -1 -22 -1q-1 0 -6 3q-2 -1 -6 -2.5t-6 -2.5 q-8 8 -21.5 23.5t-16.5 18.5q-29 33 -110 96q-6 -2 -12 -2l-39 -36l2 -6q-2 -1 -8 -5l2 -8q2 0 -1 -1q-2 0 -6 -1l-90 -109l-19 3q-12 -3 -17 -6q0 1 -2 4t-3 5l-8 -1q2 2 2 6q-3 3 -14 5zM173 162l3 88l12 58q13 11 18 25l26 6q6 0 16 -7q5 -5 19.5 -21.5t24.5 -27.5 q16 -28 16 -50v-61l-1 -1l-1 -5q0 -5 -2 -25q-1 -14 -1 -44v-50l-15 -36l-11 2q-6 -4 -10 -7l-10 5l-10 -5q-5 3 -41 12q-13 20 -24 62.5t-9 81.5z" />
<glyph unicode="&#xef;" horiz-adv-x="402" d="M16 423q1 2 5.5 9t9.5 15l10 16q-2 0 -7 -4q-6 6 -6 8l16 -3l-1 9h18q10 7 26 8q18 -11 56 -29q3 -3 3 -15q1 -1 5.5 -4.5t7.5 -6.5l-2 -22q-5 -4 -12 -18q-44 -14 -82 -14l-40 27q-7 7 -7 24zM115 155l3 88l12 58q13 11 18 25l26 6q6 0 16 -7q5 -5 19.5 -21.5 t24.5 -27.5q16 -28 16 -50v-61l-1 -1l-1 -5q0 -5 -2 -25q-1 -14 -1 -44v-50l-15 -36l-11 2q-6 -4 -10 -7q-1 0 -2.5 1t-4 2t-3.5 2l-10 -5q-5 3 -41 12q-13 20 -24 62.5t-9 81.5zM227 413l1 21q5 10 10 19q44 17 81 20l42 -24q8 -8 8 -24q-3 -7 -21 -41q2 0 6 4q6 -6 6 -8 l-16 2l2 -9q-9 0 -17 -1q-9 -7 -26 -9q-15 10 -58 24q-4 3 -4 15q-6 3 -14 11z" />
<glyph unicode="&#xf0;" horiz-adv-x="586" d="M57 138q10 15 16 68q69 169 226 273q3 0 7 9l-44 91h-6q-8 0 -38 -39q-3 0 -9.5 -1.5t-11 -1.5t-7.5 3l-36 -31q-6 -1 -9 6q-5 -1 -9 -6q-8 3 -12 5v11q-4 6 -11 4q-2 5 -9 19q0 12 -8 49q0 26 28 53l56 54l-65 112q1 1 5 7l-6 47q0 17 10 32q3 2 11 7.5t14 9.5h11 l17 -11q16 -6 32 -19.5t23.5 -23t25.5 -35.5t23 -33h6l166 122q0 -7 -1 -8l4 -4h36q4 -6 19 -14q-2 -8 -2 -13l4 -6l9 2q0 -4 -4 -8q0 -3 4 -7q-6 -16 -5 -23q-6 -7 -24 -34q-4 -2 -32 -20l6 -6q-8 0 -9 1q-8 -8 -35 -30q0 -3 2 -7l-54 -75q4 -12 30 -57l86 -156 q14 -24 43 -94q18 -42 18 -84v-71q0 -1 -3 -15q-6 -79 -48 -125q-3 -1 -33 -27q-17 -14 -36 -17q-31 -27 -46 -36q-27 -18 -51 -19l-64 -18l1 1v1q0 2 -4 2h-10q-1 -1 -1 -5q2 -4 11 -2l1 -5l1 -5q-13 -7 -17 -8q-1 5 -9 16q-6 0 -31 5q-1 0 -4 -2t-5 -3q-19 11 -33 11 q-15 0 -24 -12q-14 -17 -19 -7q-9 18 -57 153q-1 4 -4.5 21t-5.5 29zM114 869v1v-1zM210 124q0 -8 7 -19l28 -6q60 0 133 70q17 23 17 50v36q0 48 -22 101q-2 0 -5 3q-5 -5 -35 -20q-29 -14 -50 -36l-28 -43q-15 -23 -15 -38q-30 -75 -30 -98z" />
<glyph unicode="&#xf1;" horiz-adv-x="584" d="M26 105v1l8 63q3 23 8 49q1 9 3 20t5 26.5t5 25.5q4 32 29 99l26 12q15 -3 21 -5q0 -10 9 -18l15 -15q4 -15 13 -30q7 -30 10 -44q85 50 114 91q7 2 28 20q27 16 83 46q26 8 38 8q8 0 45 -25q32 -50 54 -151l-3 -81l-15 -161l-20 -57q-5 -1 -18 -11h-8q-3 0 -11 8h-6 l-9 -3q-13 11 -35 29q-2 5 -4 12t-5.5 17.5t-6.5 18.5l-1 52l9 141v37q0 1 -1.5 2.5l-3 3t-2.5 3.5q-46 -21 -66 -33l-100 -106q-62 -66 -93 -124q-14 -8 -31 -8q-4 0 -19 6l-5 -8q-2 0 -17 3v13l-14 9l-5 -3l-10 -4q-6 14 -11 33q0 13 -2 25q0 4 -0.5 8t-0.5 5zM48 741 q1 1 4.5 9t9 19.5t12.5 24.5q6 4 24 21l95 84q70 37 134 37q22 0 85 -21q19 -9 55 -33q58 -45 60 -46q12 0 33 15q36 17 156 109q4 3 24 14q16 2 24 4l32 -12v-4q4 -6 13 -6q1 -1 1 -2t-2 -7q7 -7 12 -11v-30q0 4 -11 -10q-1 -2 -3 -5q-24 -27 -67 -69q-29 -21 -46 -40 q-80 -61 -126 -62l-16 -6h2q-9 0 -32.5 7.5t-24.5 7.5q-34 9 -88 59q-49 46 -73 46q-6 0 -38 -16q-32 -17 -45 -17l-121 -102q-4 1 -9 2h-3q-8 -2 -22 -8q-11 4 -23 8q-26 37 -26 40z" />
<glyph unicode="&#xf2;" horiz-adv-x="656" d="M36 200l5 46v72q0 1 5 19l10 36l6 18q11 26 75 68q7 2 35 9q7 5 16 9q2 -2 6 -2q9 3 28 9q29 9 49 9h94q16 0 36 -7q33 2 136 -64v-10q14 -13 44 -31q10 -10 42 -80q6 -35 6 -65q0 -38 -22 -63q0 -1 -1 -4l-2.5 -7.5t-2.5 -8.5q-10 -13 -53 -63q-90 -58 -102 -65 q-112 -38 -169 -38h-33q-5 0 -12 4q-8 -1 -80 19q-32 20 -76 58l-24 42q-16 57 -16 90zM119 753l2 9q-2 4 -2 7q-1 7 5 21q14 21 40 20t45 -18l18 -6l125 -85q70 -48 138 -63q5 -9 17 -16q17 -26 16 -31l13 -8q0 -4 -7 -10q0 -5 4 -9q-1 -1 -4 -3.5t-5 -4.5l2 -15 q-32 -7 -32 -12q2 0 2 -4l-11 -1q-28 8 -65 18l-206 120q-29 17 -71 52q-1 2 -11 5q-13 29 -13 34zM156 203q1 -3 3 -10q13 -15 48 -30.5t61 -15.5q60 11 68 11l79 31q59 24 78 42q24 21 24 37v13q-40 64 -73 64q-1 0 -4 -1q-2 -2 -3 -2h-6q-10 16 -52 15l-54 -2l-120 -23 l-6 -8v-18q0 -3 5 -15l-10 -10l5 -12q-7 -6 -15 -10q0 -1 -14 -24q-14 -25 -14 -32z" />
<glyph unicode="&#xf3;" horiz-adv-x="655" d="M36 200l5 46v72q0 1 5 19l10 36l6 18q11 26 75 68q7 2 35 9q7 5 16 9q2 -2 6 -2q9 3 28 9q29 9 49 9h94q16 0 36 -7q33 2 136 -64v-10q14 -13 44 -31q10 -10 42 -80q6 -35 6 -65q0 -38 -22 -63q0 -1 -1 -4l-2.5 -7.5t-2.5 -8.5q-10 -13 -53 -63q-90 -58 -102 -65 q-112 -38 -169 -38h-33q-5 0 -12 4q-8 -1 -80 19q-32 20 -76 58l-24 42q-16 57 -16 90zM58 568l1 2q1 3 2 5.5t1 4.5l1 3q12 8 17 19q10 7 53 36.5t78 53.5q98 70 201 128q4 3 4 7l23 11q7 -4 19 -8v-13q7 -2 17 -9q6 -14 14 -14q1 1 5 2q0 -6 8 -12q-4 -6 -12 -14 q0 -2 3 -4q-9 -9 -24 -27q-13 -9 -122 -79q-98 -65 -174 -128q-19 -9 -43 -17l-2 3q-1 3 -3 5h-27l-14 12l-24 -2q3 6 8 11q-10 10 -10 24zM156 203q1 -3 3 -10q13 -15 48 -30.5t61 -15.5q60 11 68 11l79 31q59 24 78 42q24 21 24 37v13q-40 64 -73 64q-1 0 -4 -1 q-2 -2 -3 -2h-6q-10 16 -52 15l-54 -2l-120 -23l-6 -8v-18q0 -3 5 -15l-10 -10l5 -12q-7 -6 -15 -10q0 -1 -14 -24q-14 -25 -14 -32z" />
<glyph unicode="&#xf4;" horiz-adv-x="661" d="M36 200l5 46v72q0 1 5 19l10 36l6 18q11 26 75 68q7 2 35 9q7 5 16 9q2 -2 6 -2q9 3 28 9q29 9 49 9h94q16 0 36 -7q33 2 136 -64v-10q14 -13 44 -31q10 -10 42 -80q6 -35 6 -65q0 -38 -22 -63q0 -1 -1 -4l-2.5 -7.5t-2.5 -8.5q-10 -13 -53 -63q-90 -58 -102 -65 q-112 -38 -169 -38h-33q-5 0 -12 4q-8 -1 -80 19q-32 20 -76 58l-24 42q-16 57 -16 90zM100 567q0 11 14 34q11 0 19 6q3 2 27 29q6 7 34.5 38.5t51.5 57.5q14 12 50 53q12 11 31 16q2 0 8 -1.5l10 -2.5q11 -8 29 -14q30 -25 83 -79q62 -63 80 -80q10 -18 21 -40 q-15 -19 -22 -36l-5 -2q-5 -3 -10 -5q-1 -1 -22 -1q-1 0 -6 3q-2 -1 -6 -2.5t-6 -2.5q-8 8 -21.5 23.5t-16.5 18.5q-29 33 -110 96q-6 -2 -12 -2l-39 -36l2 -6q-2 -1 -8 -5l2 -8q2 0 -1 -1q-2 0 -6 -1l-90 -109l-19 3q-12 -3 -17 -6q0 1 -2 4t-3 5l-8 -1q2 2 2 6q-3 3 -14 5 zM156 203q1 -3 3 -10q13 -15 48 -30.5t61 -15.5q60 11 68 11l79 31q59 24 78 42q24 21 24 37v13q-40 64 -73 64q-1 0 -4 -1q-2 -2 -3 -2h-6q-10 16 -52 15l-54 -2l-120 -23l-6 -8v-18q0 -3 5 -15l-10 -10l5 -12q-7 -6 -15 -10q0 -1 -14 -24q-14 -25 -14 -32z" />
<glyph unicode="&#xf5;" horiz-adv-x="666" d="M35 707q1 1 4.5 9t9 19.5t12.5 24.5q6 4 24 21l95 84q70 37 134 37q22 0 85 -21q19 -9 55 -33q58 -45 60 -46q12 0 33 15q36 17 156 109q4 3 24 14q16 2 24 4l32 -12v-4q5 -6 13 -6q1 -1 1 -2t-2 -7q7 -7 12 -11v-30q0 4 -11 -10q-1 -2 -3 -5q-24 -27 -67 -69 q-29 -21 -46 -40q-80 -61 -126 -62l-16 -6h2q-9 0 -32.5 7.5t-24.5 7.5q-34 9 -88 59q-49 46 -73 46q-6 0 -38 -16q-32 -17 -45 -17l-121 -102q-4 1 -9 2h-3q-8 -2 -22 -8q-11 4 -23 8q-26 37 -26 40zM36 200l5 46v72q0 1 5 19l10 36l6 18q11 26 75 68q7 2 35 9q7 5 16 9 q2 -2 6 -2q9 3 28 9q29 9 49 9h94q16 0 36 -7q33 2 136 -64v-10q14 -13 44 -31q10 -10 42 -80q6 -35 6 -65q0 -38 -22 -63q0 -1 -1 -4l-2.5 -7.5t-2.5 -8.5q-10 -13 -53 -63q-90 -58 -102 -65q-112 -38 -169 -38h-33q-5 0 -12 4q-8 -1 -80 19q-32 20 -76 58l-24 42 q-16 57 -16 90zM156 203q1 -3 3 -10q13 -15 48 -30.5t61 -15.5q60 11 68 11l79 31q59 24 78 42q24 21 24 37v13q-40 64 -73 64q-1 0 -4 -1q-2 -2 -3 -2h-6q-10 16 -52 15l-54 -2l-120 -23l-6 -8v-18q0 -3 5 -15l-10 -10l5 -12q-7 -6 -15 -10q0 -1 -14 -24q-14 -25 -14 -32z " />
<glyph unicode="&#xf6;" horiz-adv-x="661" d="M36 200l5 46v72q0 1 5 19l10 36l6 18q11 26 75 68q7 2 35 9q7 5 16 9q2 -2 6 -2q9 3 28 9q29 9 49 9h94q16 0 36 -7q33 2 136 -64v-10q14 -13 44 -31q10 -10 42 -80q6 -35 6 -65q0 -38 -22 -63q0 -1 -1 -4l-2.5 -7.5t-2.5 -8.5q-10 -13 -53 -63q-90 -58 -102 -65 q-112 -38 -169 -38h-33q-5 0 -12 4q-8 -1 -80 19q-32 20 -76 58l-24 42q-16 57 -16 90zM131 603q1 2 5.5 9t9.5 15l10 16q-2 0 -7 -4q-6 6 -6 8l16 -3l-1 9h18q10 7 26 8q18 -11 56 -29q3 -3 3 -15q1 -1 5.5 -4.5t7.5 -6.5l-2 -22q-4 -4 -12 -18q-44 -14 -82 -14l-40 27 q-7 7 -7 24zM156 203q1 -3 3 -10q13 -15 48 -30.5t61 -15.5q60 11 68 11l79 31q59 24 78 42q24 21 24 37v13q-40 64 -73 64q-1 0 -4 -1q-2 -2 -3 -2h-6q-10 16 -52 15l-54 -2l-120 -23l-6 -8v-18q0 -3 5 -15l-10 -10l5 -12q-7 -6 -15 -10q0 -1 -14 -24q-14 -25 -14 -32z M342 593l1 21q5 10 10 19q44 17 81 20l42 -24q8 -8 8 -24q-3 -7 -21 -41q2 0 6 4q6 -6 6 -8l-16 2l2 -9q-9 0 -17 -1q-9 -7 -26 -9q-15 10 -58 24q-4 3 -4 15q-6 3 -14 11z" />
<glyph unicode="&#xf7;" horiz-adv-x="995" d="M14 245q4 4 19 22q1 4 -7 12v13q0 5 16.5 24.5t21.5 23.5q16 0 44 6l24 -5q17 0 35 2l349 28q11 1 42 5l157 2l23 5h27l179 30q1 0 4 -2.5t6 -4.5h14q-4 0 16 -11l16 -39v-57q-2 -1 -9.5 -5t-12.5 -7q1 -2 1 -11q-39 -5 -58 -11q-16 -14 -25 -14l-153 -3l-438 -40 q-1 0 -11.5 1t-11.5 1l-25 -1.5t-27 -1.5q-26 -6 -26 -7l-12 3q-14 0 -41 -10v-12q-11 -2 -17 10q-12 -12 -15 -12h-66l-2 -2l7 -7h13q-9 -5 -19 -5q-6 0 -9 1q4 12 13 19q-3 6 -12 6q2 10 2 23l-8 5l-14 10q-13 9 -10 16zM26 185q7 -3 6 -7q0 1 -6 7zM204 200h1h-1zM435 41 v31q6 4 19 22q0 3 -5 10q6 11 29 43q2 7 6 11.5t10 7t10.5 4t14 4t14.5 4.5q37 -12 56 -51l13 -59q-3 -20 -54 -68q-1 0 -8 -1l-7 -1q-5 -9 -12 -13q-32 0 -46 -2q-4 5 -10 22l-10 -2q-1 1 -20 38zM469 489v17q6 0 10 4q-2 0 -10 8q4 0 6 -2q2 5 8.5 17.5t13 25.5l13.5 27 l7.5 5t12.5 8t13 9q15 -1 45 -14q24 -21 24 -50q0 -5 -2 -19q4 -14 4 -15v-16q-8 -8 -9 -10q0 -13 -12.5 -28.5t-24.5 -15.5q-16 -12 -16 -14h-40q-5 5 -17 30l-2 -0.5t-5 -1t-6 -0.5z" />
<glyph unicode="&#xf8;" horiz-adv-x="901" d="M-6 -155q0 33 10 48l-3 11q0 11 10 27q11 36 36 90q57 101 57 109l-39 62q-39 62 -39 119q0 18 21 105q58 115 121 173q16 8 29 24q17 14 121 73q4 0 54 26q46 23 104 23q45 0 148 -38h9q34 24 82 69l18 9q1 6 39 33q39 27 52 27h50l56 -61q0 -1 4 -13l4 -12 q0 -8 -17 -27q-19 -17 -21 -24q-56 -23 -115 -80q22 -49 62 -66l28 -147l-15 -105l-55 -98q-14 -35 -68 -80q-34 -29 -81 -65q-1 0 -5 2l-142 -75q-5 -1 -13 7q-3 -1 -13 -4.5t-16 -6.5q2 -2 9 -2q-4 0 -7 -3q2 0 23 -5l-40 -1l-34 -8l-162 56q-14 -17 -29 -37 q-4 -14 -25 -33q-2 -3 -15 -42q0 -6 -8 -6l-48 -117l-8 -8l-10 10q-2 -2 -8.5 -9.5t-11.5 -13.5q-8 16 -11 18h-16q-4 -4 -13 -10q-4 4 -26 17l-20 53q-4 -7 -10 -7q-3 6 -3 13zM222 292l240 262h-14q-3 1 -10 -4q-18 -8 -55 -13l-36 -25q-1 -1 -5 -3q-14 -20 -20 -27 q-9 -4 -24 -18q-25 -41 -51 -89q-27 -50 -25 -83zM349 155q26 -11 43 -11q20 0 44 12q27 3 145 69l60 60q18 18 49 75q14 26 22 73q0 6 -4 15v7q0 17 -12.5 31t-28.5 14q-10 0 -27 -11v-6q2 -3 -4 -6q-23 -28 -64 -55q0 -3 -2 -6.5t-5.5 -7.5t-6.5 -7t-7.5 -7t-5.5 -5h-10 q-5 -19 -28 -43l-60 -60v-10q-6 -7 -17 -12q-5 -13 -20 -18q-2 -8 -6.5 -16t-8.5 -13t-12 -14t-12 -14q-8 -14 -22 -34z" />
<glyph unicode="&#xf9;" horiz-adv-x="567" d="M41 228q0 19 10 58q30 23 41 23q60 -30 62 -89q2 -26 31 -63q36 -16 36 -18h16q2 0 7 2t15.5 5t19.5 6q41 27 68 49q38 33 42 67q4 8 8 23q2 6 9.5 30.5t13.5 42.5q16 51 32 70q1 0 7.5 -1t7.5 -1h16q2 -5 12 -14q5 -9 30 -49q1 -6 0 -28t4 -25q-14 -70 -24 -106 q-8 -31 -41 -90q-33 -46 -53 -66q-36 -38 -71 -44q-14 -4 -42 -18q-50 -8 -55 -8q-111 0 -194 171q-8 48 -8 73zM75 705l2 9q-2 4 -2 7q-1 7 5 21q14 21 40 20t45 -18q6 -1 18 -6l125 -85q70 -48 138 -63q5 -9 17 -16q17 -26 16 -31l13 -8q0 -4 -7 -10q0 -5 4 -9 q-1 -1 -4 -3.5t-5 -4.5l2 -15q-32 -7 -32 -12q2 0 2 -4l-11 -1q-28 8 -65 18l-206 120q-29 17 -71 52q-1 2 -11 5q-13 29 -13 34z" />
<glyph unicode="&#xfa;" horiz-adv-x="575" d="M38 417l1 3q1 2 2 4.5t1 5.5l1 2q12 8 17 19q10 7 53 36.5t78 53.5q98 70 201 128q4 3 4 7l23 11q7 -4 19 -8v-13q7 -2 17 -9q6 -14 14 -14q1 1 5 2q0 -6 8 -12q-4 -6 -12 -14q0 -3 3 -4q-9 -9 -24 -27q-13 -9 -122 -79q-98 -65 -174 -128q-19 -9 -43 -17l-2 3q-1 3 -3 5 h-27l-14 12l-24 -2q3 6 8 11q-10 10 -10 24zM41 228q0 19 10 58q30 23 41 23q60 -30 62 -89q2 -26 31 -63q36 -16 36 -18h16q2 0 7 2t15.5 5t19.5 6q41 27 68 49q38 33 42 67q4 8 8 23q2 6 9.5 30.5t13.5 42.5q16 51 32 70q1 0 7.5 -1t7.5 -1h16q2 -5 12 -14q5 -9 30 -49 q1 -6 0 -28t4 -25q-14 -70 -24 -106q-8 -31 -41 -90q-33 -46 -53 -66q-36 -38 -71 -44q-14 -4 -42 -18q-50 -8 -55 -8q-111 0 -194 171q-8 48 -8 73z" />
<glyph unicode="&#xfb;" horiz-adv-x="562" d="M41 228q0 19 10 58q30 23 41 23q60 -30 62 -89q2 -26 31 -63q36 -16 36 -18h16q2 0 7 2t15.5 5t19.5 6q41 27 68 49q38 33 42 67q4 8 8 23q2 6 9.5 30.5t13.5 42.5q16 51 32 70q1 0 7.5 -1t7.5 -1h16q2 -5 12 -14q5 -9 30 -49q1 -6 0 -28t4 -25q-14 -70 -24 -106 q-8 -31 -41 -90q-33 -46 -53 -66q-36 -38 -71 -44q-14 -4 -42 -18q-50 -8 -55 -8q-111 0 -194 171q-8 48 -8 73zM42 508q0 11 14 34q11 0 19 6q3 2 27 29q6 7 34.5 38.5t51.5 57.5q14 12 50 53q11 12 31 16q2 0 4.5 -1t6.5 -1.5t7 -1.5q11 -8 29 -14q30 -25 83 -79 q62 -63 80 -80q10 -18 21 -40q-15 -19 -22 -36l-5 -2.5t-10 -4.5q-1 -1 -22 -1q-2 0 -6 3q-2 -1 -6 -2.5t-6 -2.5q-6 6 -12.5 13.5t-14 15.5t-11.5 13q-29 33 -110 96q-6 -2 -12 -2l-39 -36l2 -6q-2 -1 -8 -5l2 -8q2 0 -1 -1q-2 0 -6 -1l-90 -109l-19 3q-12 -3 -17 -6 q0 1 -2 4t-3 5l-8 -1q2 2 2 6q-3 3 -14 5z" />
<glyph unicode="&#xfc;" horiz-adv-x="564" d="M41 228q0 19 10 58q30 23 41 23q60 -30 62 -89q2 -26 31 -63q36 -16 36 -18h16q2 0 7 2t15.5 5t19.5 6q41 27 68 49q38 33 42 67q4 8 8 23q2 6 9.5 30.5t13.5 42.5q16 51 32 70q1 0 7.5 -1t7.5 -1h16q2 -5 12 -14q5 -9 30 -49q1 -6 0 -28t4 -25q-14 -70 -24 -106 q-8 -31 -41 -90q-33 -46 -53 -66q-36 -38 -71 -44q-14 -4 -42 -18q-50 -8 -55 -8q-111 0 -194 171q-8 48 -8 73zM70 506l25 40q-2 0 -7 -4q-6 6 -6 8l16 -3l-1 9h18q10 7 26 8q18 -11 56 -29q3 -3 3 -15q1 -1 5.5 -4.5t7.5 -6.5l-2 -22q-5 -4 -12 -18q-44 -14 -82 -14 l-40 27q-7 7 -7 24zM281 496l1 21q5 10 10 19q44 17 81 20l42 -24q8 -8 8 -24q-3 -7 -21 -41q2 0 6 4q6 -6 6 -8l-16 2l2 -9q-9 0 -17 -1q-9 -7 -26 -9q-15 10 -58 24q-4 3 -4 15q-6 3 -14 11z" />
<glyph unicode="&#xfd;" horiz-adv-x="528" d="M38 291q0 22 11 53q9 10 28 28h7q8 0 46 -36q10 -15 16 -42q0 -3 14 -62q12 -54 28 -54q41 0 105 54t101 101q9 2 20 10q9 -3 26 -3l25 -30q6 -2 10 -4q21 -26 21 -64q0 -59 -56 -245q-6 -23 -81 -227q2 -2 7 -2h-7l-46 -109l-50 -160q-4 -3 -28 -28q-1 0 -15 -4t-15 -4 q-3 1 -11 3q-5 5 -47 51q-10 36 -15 74l15 71l47 138l92 219q-2 6 -4 10q-51 -16 -75 -16q-79 0 -129 104q-40 83 -40 174zM40 479l1 2.5l2 5t1.5 5l0.5 2.5q12 8 17 19q10 7 53 36.5t78 53.5q98 70 201 128q4 3 4 7l23 11q7 -3 19 -8v-13q7 -2 17 -9q6 -14 14 -14q1 1 5 2 q0 -6 8 -12q-4 -6 -12 -14q0 -3 3 -4q-9 -9 -24 -27q-13 -9 -122 -79q-98 -65 -174 -128q-19 -9 -43 -17l-1 1.5l-2 3t-2 3.5h-27l-14 12l-24 -2q3 6 8 11q-10 10 -10 24z" />
<glyph unicode="&#xfe;" horiz-adv-x="659" d="M59 71q0 5 8 13l-2 82q0 18 10 48q0 1 -4 11v46q0 1 5 19t5 19q-1 1 -1 4t2 7q-1 2 -1 6q0 8 4 16q-1 12 -8 50q4 7 4 12l-6 270q9 53 12 61q11 32 35 38q6 -1 37 -23q16 -10 18 -38l12 -168q7 -5 15 -5l59 4q65 3 179 -35q63 -21 136 -88q67 -61 66 -124q5 -10 5 -19 q0 -12 -9 -32q-3 -34 -63 -69q-5 -5 -11 -13q-16 -6 -61 -42q-6 0 -27 -16q-8 -1 -15.5 -4t-21.5 -12t-15 -10q-4 -2 -14.5 -7.5t-31 -15.5t-39.5 -20q-51 -25 -87 -27q-14 -3 -45 -14q0 -4 -2 -6q2 -2 6 -8q-1 -6 -1 -15q0 -11 3 -19q-4 -12 -4 -26l3 -9q2 -10 4 -17 q-3 -21 -3 -28v-38l10 -98q-1 3 -8 -31q-1 -5 -7 -12q-1 1 -5 1q-1 0 -14 -6.5t-15 -6.5q-8 -10 -15 -12l-6 14l-10 6q-3 0 -9 -6q-2 1 -33 20q-2 8 -10 25q4 7 4 13l-6 26q-2 2 -6 2q-12 20 -13 22q-1 1 -5.5 4.5t-7.5 6.5v274zM199 394l10 -273h7l78 33q1 0 5.5 -1t5.5 -1 q21 0 118 57q33 20 70 51q26 23 26 35q0 23 -40 62q-40 40 -69 44q-47 24 -96 22q-4 6 -24 6t-25.5 -1t-11.5 -7q-7 0 -11 4q-5 -3 -23 -12q-3 0 -12 2q-4 -6 -8 -21zM225 -269z" />
<glyph unicode="&#xff;" horiz-adv-x="531" d="M38 291q0 22 11 53q9 10 28 28h7q8 0 46 -36q10 -15 16 -42q0 -3 14 -62q12 -54 28 -54q41 0 105 54t101 101q9 2 20 10q9 -3 26 -3l25 -30q6 -2 10 -4q21 -26 21 -64q0 -59 -56 -245q-6 -23 -81 -227q2 -2 7 -2h-7l-46 -109l-50 -160q-4 -3 -28 -28q-1 0 -15 -4t-15 -4 q-3 1 -11 3q-5 5 -47 51q-10 36 -15 74l15 71l47 138l92 219q-2 6 -4 10q-51 -16 -75 -16q-79 0 -129 104q-40 83 -40 174zM103 510q1 2 5.5 9t9.5 15l10 16q-2 0 -7 -4q-6 6 -6 8l16 -3l-1 9h18q10 7 26 8q18 -11 56 -29q3 -3 3 -15l2.5 -2.5t3 -2.5t3.5 -2.5t4 -3.5 l-2 -22q-5 -5 -12 -18q-44 -14 -82 -14l-40 27q-7 7 -7 24zM314 500l1 21q5 10 10 19q44 17 81 20l42 -24q8 -8 8 -24q-3 -7 -21 -41q2 0 6 4q6 -6 6 -8l-16 2l2 -9q-9 0 -17 -1q-9 -7 -26 -9q-15 10 -58 24q-4 3 -4 15q-6 3 -14 11z" />
<glyph unicode="&#x152;" horiz-adv-x="1712" d="M12 354l8 97q0 -8 4 7l5 22q6 18 12 35q49 147 232 269q32 27 109 69l114 63q27 -9 86 -7l335 11l386 -11l227 -2q1 0 3 0.5t4.5 1t4.5 0.5l65 -11q4 -2 38 -20q9 -11 23 -29q2 -2 2 -13l13 -10q-2 -17 -8 -36l3 -4l2 -3l-33 -21q-2 0 -4 0.5t-3 0.5t-3 -0.5l-2 -0.5 q0 -1 -1 -3.5t-2 -5.5l-2 -6q-9 0 -26 -5q-15 7 -37 7l-65 9h-37q-21 0 -45 8q-7 -3 -21 -3q-18 0 -39 8q-8 -5 -18 -5l-46 -5l-86 13l-228 5q-20 0 -26 -12q-2 -1 -11 -1l-2 -8q1 0 38.5 -36t64.5 -62q65 -63 65 -100v-105l4 -4l262 27l107 7q4 0 11.5 0.5t10.5 0.5 q103 0 165 -62q3 -18 3 -32q0 -45 -42 -45h-55l-85 -10h-28l-282 -44l-2 4l-125 -11q-12 -16 -27 -37q-2 -2 -1 -7l-2 1q-2 0 -4 -2q1 -4 0 -10l-63 -74q2 0 8 -1.5l10 -2.5l117 17q8 -5 17 -5l261 30h30l130 10l60 -6l3 2l70 -3l30 -6q10 -10 36 -22l28 -62q-1 -3 -17 -45 q-1 -3 -23 -12q-27 -9 -34 -9l-181 -12q0 6 2 8q-1 2 -14 2q-1 -1 -1 -3t2 -4q-1 0 -5 1t-10.5 2.5t-13.5 3.5q-27 -7 -31 -9q-7 2 -23 4q-4 -7 -36 -13q-5 5 -14 5q-11 -7 -23 -7q-3 0 -11 2l-51 -10q-14 3 -38 0q-7 -1 -13.5 -2t-11 -1.5t-8 -1t-5 -0.5h-2.5q-11 0 -14 5 l-66 -17q-3 -1 -3 -10h-55q-3 0 -8 -4q-16 -2 -35 -2q-1 0 -6.5 -4t-6.5 -4h-101q2 2 2 4q0 1 -1 2v1l-26 2q-1 12 -17 18q-6 4 -12.5 15.5t-13 25.5t-9.5 19q-20 -14 -32 -22q-21 -4 -52 -25q-35 -4 -73 -30q-11 0 -39 -5q4 -2 10 -2l-104 -8l-156 7q-1 1 -18 13q0 2 3 5 q-1 1 -14 6l-81 24q-179 93 -232 243q0 1 -2.5 7t-6.5 18t-9 25q0 13 -6 40zM162 348q0 -123 112 -180h9q6 -9 71 -29q68 -19 95 -19h39q13 0 61 9q2 0 38 4q3 1 21 8t45.5 17.5t58.5 22.5q44 25 93 55q23 27 25 29q12 7 22 16q23 25 63 75q19 30 52 106q19 42 19 74v2 t-0.5 4.5t-1 6t-1 6.5t-0.5 5.5v2.5q-6 5 -18 20q-7 0 -12 5q0 5 -5 10q-8 0 -13 4q0 5 -7 15q-9 6 -40 30q-94 47 -123 58q-1 0 -4.5 1t-9.5 3t-12.5 4.5t-17 6t-21.5 6.5q-6 0 -10 -2q-5 3 -13 10q-9 0 -12 -3q-3 4 -33 12t-43 8h-60q-37 0 -66 -19q-6 -4 -23 -14.5 t-22 -14t-18.5 -12t-18.5 -12.5t-16.5 -12t-17.5 -13.5t-16 -13.5t-18.5 -16t-18.5 -17q-1 -1 -51 -49q-13 -21 -32 -43q-49 -79 -49 -167zM638 -26h5h-5zM1432 31l1 -1zM1542 909z" />
<glyph unicode="&#x153;" horiz-adv-x="1092" d="M19 235q0 6 4 23q2 45 44 102q46 62 98 93q116 69 241 66l65 -2q9 -1 17.5 -3t19.5 -7.5t16.5 -8.5t19.5 -12t18 -11q11 -10 37 -39q26 26 69 62q74 39 141 39q29 0 98 -19q12 -8 50 -25q30 -22 57 -52q8 -9 23.5 -46t15.5 -51q0 -4 -1.5 -20t-2.5 -26.5t1 -18.5 q-1 -1 -9.5 -7t-15.5 -10q-44 -14 -130 -27q-87 -15 -101 -18q-33 -2 -89 -13q0 3 -3 -6q19 -25 90 -40q23 -14 62 -12l101 4l67 -7q13 -23 28 -38q-2 -8 -16 -36q-12 -24 -9 -32l-96 -41h-90q-52 0 -123 25q-70 25 -98 46q-29 21 -52 37q-3 0 -12 -6q-19 -25 -93 -62 q-79 -39 -108 -38l-80 3q-5 -2 -14 -8l-10 2.5t-15.5 4t-16.5 4.5q-27 7 -37 19q-4 1 -9 4t-14.5 7.5t-16.5 7.5q-12 12 -27 20q-2 2 -9 8t-19 17t-25 22q-14 24 -38 81q-3 38 -3 45zM169 236q0 -55 79 -92q51 -13 69 -13q27 0 85 31q71 39 104 80q19 39 19 62q0 69 -61 94 l-38 3q-3 5 -11 5q-15 0 -39 -10q-17 5 -20 5t-66 -26q-6 -4 -24 -15t-28 -17q-69 -54 -69 -107zM730 353q0 -7 4 -7q3 0 27.5 1.5t26.5 1.5l36 10l3 -3l78 14q-3 5 -33 25q-30 6 -32 6q-37 0 -52 -12q-26 0 -58 -36z" />
<glyph unicode="&#x178;" horiz-adv-x="595" d="M17 801l4 50q14 8 24 25h19l39 -39q10 -13 20 -39q14 -22 26 -59l22 -67q13 -28 51 -112q25 -63 44 -86h8q29 33 77 73q25 39 46 56q3 4 5.5 8t5 7.5t4.5 7.5t6 10.5t8 12.5q25 32 69 80v6l62 62q0 6 3 13q26 31 99 106q3 0 7.5 1t11 2t12.5 2q5 -3 5 -12q1 -1 4.5 -3.5 t5.5 -3.5q5 -24 23 -24q2 -10 13 -48q0 -1 3 -9l-4 -4q2 -4 2 -5l-1 -1q-5 -15 -9 -28l-125 -225q-5 2 -11 -5q0 -1 2 -5q0 -10 -5 -19q-17 -33 -66 -111q-5 -11 -71 -134q-46 -83 -56 -126q-38 -85 -38 -172q0 -24 2 -36q-10 -15 -21 -41q-7 1 -13 -11q-12 -2 -23 -7 q-16 7 -46 17q-9 14 -16 15q-5 14 -16 34q0 14 -5 30q1 1 1 10q0 13 -1 24q7 63 22 145q6 9 14 16q9 8 9 17q0 3 3 16t0 20q8 19 20 40q-9 12 -21 12q-4 0 -10 -2l-9 9l-6 -4q-9 1 -30 14q-6 10 -59 90q-72 155 -130 330q-12 57 -10 77zM135 818q1 2 5.5 9t9.5 15l10 16 q-2 0 -7 -4q-6 6 -6 8l16 -3l-1 9h18q10 7 26 8q18 -11 56 -29q3 -3 3 -15q1 -1 5.5 -4.5t7.5 -6.5l-2 -22q-4 -4 -12 -18q-44 -14 -82 -14l-40 27q-7 7 -7 24zM346 808l1 21q5 10 10 19q44 17 81 20l42 -24q8 -8 8 -24q-3 -7 -21 -41q2 0 6 4q6 -6 6 -8l-16 2l2 -9 q-9 0 -17 -1q-9 -7 -26 -9q-15 10 -58 24q-4 3 -4 15q-6 3 -14 11z" />
<glyph unicode="&#x2c6;" horiz-adv-x="475" d="M18 683q0 11 14 34q11 0 19 6q3 2 27 29q6 7 34.5 38.5t51.5 57.5q14 12 50 53q12 11 31 16q1 0 7 -1.5t11 -2.5q11 -8 29 -14q30 -25 83 -79q62 -63 80 -80q10 -18 21 -40q-15 -19 -22 -36l-5 -2q-5 -3 -10 -5q-1 -1 -22 -1q-1 0 -6 3q-2 -1 -6 -2.5t-6 -2.5 q-8 8 -21.5 23.5t-16.5 18.5q-29 33 -110 96q-6 -2 -12 -2l-39 -36l2 -6q-2 -1 -8 -5l2 -8q2 0 -1 -1q-2 0 -6 -1l-90 -109l-19 3q-12 -3 -17 -6q0 1 -2 4t-3 5l-8 -1q2 2 2 6q-3 3 -14 5z" />
<glyph unicode="&#x2dc;" horiz-adv-x="767" d="M34 672q1 1 4.5 9t9 19.5t12.5 24.5q6 5 24 21l95 84q70 37 134 37q22 0 85 -21q19 -9 55 -33q58 -45 60 -46q12 0 33 15q36 17 156 109q4 3 24 14q8 1 24 5q10 -6 32 -12v-5q4 -6 13 -6q1 -1 1 -2t-2 -7q7 -7 12 -11v-29q0 4 -9 -9q-3 -3 -5 -7q-24 -27 -67 -69 q-26 -17 -46 -40q-79 -59 -126 -61l-16 -7h2q-9 0 -32.5 7.5t-24.5 7.5q-34 9 -88 59q-49 46 -73 46q-6 0 -38 -16q-32 -17 -45 -17l-121 -101q-5 0 -11 1h-1q-8 -2 -22 -8q-11 4 -23 8q-26 37 -26 40z" />
<glyph unicode="&#x2000;" horiz-adv-x="669" />
<glyph unicode="&#x2001;" horiz-adv-x="1339" />
<glyph unicode="&#x2002;" horiz-adv-x="669" />
<glyph unicode="&#x2003;" horiz-adv-x="1339" />
<glyph unicode="&#x2004;" horiz-adv-x="446" />
<glyph unicode="&#x2005;" horiz-adv-x="334" />
<glyph unicode="&#x2006;" horiz-adv-x="223" />
<glyph unicode="&#x2007;" horiz-adv-x="223" />
<glyph unicode="&#x2008;" horiz-adv-x="167" />
<glyph unicode="&#x2009;" horiz-adv-x="267" />
<glyph unicode="&#x200a;" horiz-adv-x="74" />
<glyph unicode="&#x2010;" horiz-adv-x="729" d="M33 280q0 18 8 39q2 2 10.5 9.5t14.5 13.5l85 1l181 -10l92 6q4 0 26 8l6 -3q1 -1 2 -1.5t2 -0.5l103 12q32 -19 58 -29q15 -20 30 -54q1 -3 6.5 -11t8.5 -14v-9q-3 -1 -17 -22q-19 -13 -54 -16l-175 -13h-130q-81 0 -105 -12q-1 0 -7 2.5t-7 2.5h-4q-2 -1 -2 -3t3 -4 q-4 -3 -14 -3q-1 2 -4 5t-4 5h-52q-8 7 -36 28q-3 14 -14 25q-11 30 -11 48zM218 173l6 3q-2 -4 -6 -3z" />
<glyph unicode="&#x2011;" horiz-adv-x="729" d="M33 280q0 18 8 39q2 2 10.5 9.5t14.5 13.5l85 1l181 -10l92 6q4 0 26 8l6 -3q1 -1 2 -1.5t2 -0.5l103 12q32 -19 58 -29q15 -20 30 -54q1 -3 6.5 -11t8.5 -14v-9q-3 -1 -17 -22q-19 -13 -54 -16l-175 -13h-130q-81 0 -105 -12q-1 0 -7 2.5t-7 2.5h-4q-2 -1 -2 -3t3 -4 q-4 -3 -14 -3q-1 2 -4 5t-4 5h-52q-8 7 -36 28q-3 14 -14 25q-11 30 -11 48zM218 173l6 3q-2 -4 -6 -3z" />
<glyph unicode="&#x2012;" horiz-adv-x="729" d="M33 280q0 18 8 39q2 2 10.5 9.5t14.5 13.5l85 1l181 -10l92 6q4 0 26 8l6 -3q1 -1 2 -1.5t2 -0.5l103 12q32 -19 58 -29q15 -20 30 -54q1 -3 6.5 -11t8.5 -14v-9q-3 -1 -17 -22q-19 -13 -54 -16l-175 -13h-130q-81 0 -105 -12q-1 0 -7 2.5t-7 2.5h-4q-2 -1 -2 -3t3 -4 q-4 -3 -14 -3q-1 2 -4 5t-4 5h-52q-8 7 -36 28q-3 14 -14 25q-11 30 -11 48zM218 173l6 3q-2 -4 -6 -3z" />
<glyph unicode="&#x2013;" horiz-adv-x="798" d="M53 222q0 17 8 38q8 8 26 23l84 2l181 -10l158 10q4 0 26 8l10 -5l103 12q27 -16 58 -28q7 -9 22.5 -39t22.5 -41v-9q-6 -6 -17 -22q-12 -8 -54 -16l-175 -12l-196 -5q-88 -3 -105 -12q-1 0 -7 2.5t-7 2.5h-4q-2 -2 -2 -3q0 -2 3 -4q-4 -3 -14 -3q0 1 -2.5 4t-4.5 6h-53 q-8 7 -36 28q-3 12 -14 25q-11 26 -11 48zM239 115q2 0 5 3q-2 -4 -3 -4z" />
<glyph unicode="&#x2014;" horiz-adv-x="1207" d="M51 223q0 17 8 38q8 8 26 23l84 1l181 -10l578 21q7 0 27 7q6 -2 10 -5l103 13q32 -19 58 -29q7 -9 22.5 -39t22.5 -41v-8q-5 -5 -18 -22q-17 -13 -53 -16l-175 -13l-617 -14q-86 -1 -105 -12q-1 0 -7 2.5t-7 2.5h-4q-2 -2 -2 -3q0 -3 3 -4q-4 -3 -14 -3q-3 2 -7 10h-53 q-8 7 -36 28q-1 12 -14 25q-11 30 -11 48zM237 116q2 0 5 3q-2 -4 -3 -4t-1 0.5t-1 0.5z" />
<glyph unicode="&#x2018;" horiz-adv-x="222" d="M28 786v42q3 7 8 26q33 21 40 21q6 0 36 -10q7 -2 25 -16q15 -23 40 -68q11 -29 55 -158q0 -10 -1 -17q7 -19 7 -20v-9q-3 -3 -8 -13q-25 -7 -32 -20q-10 0 -19 3q-1 6 -18 27q-23 8 -23 16q-18 16 -39 37q-48 77 -59 131q-12 20 -12 28z" />
<glyph unicode="&#x2019;" horiz-adv-x="240" d="M22 707q0 32 45 107q42 71 41 72q30 41 60 41q57 0 77 -66l12 -23v-30q-10 -20 -16 -46q-28 -40 -105 -145q-24 -12 -43 -21l-43 33q-28 56 -28 78z" />
<glyph unicode="&#x201a;" horiz-adv-x="368" d="M41 -125q11 33 79 129q59 85 61 134q11 21 40 21q15 0 32 -11q3 -4 13 -14t14 -15q24 -48 24 -70q0 -11 -7 -32q-12 -54 -34 -85q-55 -55 -74 -73q-45 -43 -76 -51q-8 -8 -13 -9q0 2 -5 7h-16v13q-2 1 -13 8l3 7q-8 9 -20 20q-2 10 -8 21z" />
<glyph unicode="&#x201c;" horiz-adv-x="358" d="M7 847q6 7 14 28q12 12 17 21q1 0 10.5 1t10.5 1l28 -5q4 -5 17 -19.5t22 -24.5l18 -34q1 -41 22 -135q10 -11 21 -28q1 -1 1 -9q0 -14 -12 -20q-7 -2 -8 -4l2 -13q-20 -10 -32 -10q-13 0 -32 11q-18 5 -30 12q-35 33 -45 89q-7 35 -20 104q0 3 -1.5 15zM160 832 q0 7 28 59q15 5 26 5q20 0 51 -34q32 -34 28 -50l15 -80q12 -31 12 -38q0 -9 -17 -23v-20l-6 -8h-21q-14 10 -23 10q-2 0 -6 -2q-6 4 -33 25q-8 9 -15 25q-4 4 -16 25q-23 98 -23 106z" />
<glyph unicode="&#x201d;" horiz-adv-x="481" d="M21 633q0 46 21 92q22 38 73 118q46 73 70 73q21 0 35 -17q8 -10 23 -26q4 -16 10 -30q0 -1 -2 -11.5t-2 -11.5v-17l4 -4l69 87h33q7 0 30.5 -30.5t28.5 -40.5q-4 -32 -11 -58q-15 -29 -54 -78q-10 -20 -25 -45q2 -2 -6 -20q-14 0 -30 -33q-6 -3 -13 -3q-11 0 -31 13 l-20 13q-16 36 -9 120l4 4v6q-3 0 -3 -5l-105 -168l-26 -8q-1 0 -15 3l-13 2q-2 2 -5 4.5t-7.5 6.5t-7.5 7q-16 48 -16 57z" />
<glyph unicode="&#x201e;" horiz-adv-x="607" d="M41 -125q11 33 79 129q59 85 61 134q11 21 40 21q15 0 32 -11q3 -4 13 -14t14 -15q24 -48 24 -70q0 -11 -7 -32q-12 -54 -34 -85q-55 -55 -74 -73q-45 -43 -76 -51q-8 -8 -13 -9q0 2 -5 7h-16v13q-2 1 -13 8l3 7q-8 9 -20 20q-2 10 -8 21zM285 -134q11 33 78 129 q61 86 62 134q11 21 40 21q14 0 31 -11q3 -3 12.5 -13t15.5 -16q24 -48 24 -70q0 -17 -7 -32q-12 -54 -35 -85q-47 -47 -74 -73q-45 -44 -75 -51q-8 -8 -13 -9q0 1 -6 7h-15v14q-5 2 -13 7l2 7q-10 12 -19 20q-1 5 -8 21z" />
<glyph unicode="&#x2022;" horiz-adv-x="453" d="M38 323q10 38 14 55q35 66 94 81l42 30q14 10 38 10q12 0 39 -9q79 -47 86 -85q8 -8 10 -17q21 -28 29 -46q0 -11 6 -32q-2 -5 -9 -46q-12 -27 -48 -48q-16 -9 -59 -32l-18 -6l-18 -5h-52q-12 0 -73 21q-17 14 -71 67zM193 325l3 -6h29l33 20q0 2 -1 4.5t-2 3.5 q-5 4 -13 4z" />
<glyph unicode="&#x2026;" horiz-adv-x="833" d="M39 76q-1 4 7 13q0 1 -1 9l-1 8q9 9 16 15q8 2 20 6q42 -17 71 -43l13 -47q1 -10 -11 -22q-30 -10 -44 -14q2 -2 7 -2q0 -9 -1 -9l-10 12l-5 -7q-1 1 -13 11q-12 2 -25 12q-4 16 -23 58zM344 75q0 6 8 14q0 1 -1 5t-1 8l-1 4q5 4 16 15q5 1 20 6q43 -17 72 -43l12 -47 q3 -8 -10 -22l-45 -15q1 -1 7 -1v-10q-3 5 -10 13l-5 -8q-2 2 -7 6t-7 6q-10 1 -24 11q-7 22 -24 58zM657 72q0 5 8 13q0 1 -1 9t-1 9q4 3 15 14l21 6q39 -16 71 -43l13 -46q1 -10 -11 -23q-24 -8 -45 -14q1 -2 8 -2q0 -9 -1 -9q-1 1 -2 2.5t-3.5 4.5t-4.5 5l-5 -7 q-1 1 -13 11q-13 2 -25 12q-4 19 -24 58z" />
<glyph unicode="&#x202f;" horiz-adv-x="267" />
<glyph unicode="&#x2039;" horiz-adv-x="438" d="M24 199q0 1 3 16t3 16q3 4 22 30t36 47q48 61 158 206q12 7 34 35l35 8q20 -10 37 -18l23 -83q-7 -17 -20 -37.5t-31.5 -46.5t-31 -42t-35.5 -45.5t-27 -34.5v-12q0 -7 34 -27t45 -23q47 -21 120 -67q5 -15 16 -33l-5 -6q0 -4 3.5 -19.5t3.5 -18.5q0 -1 -1 -9.5t-1 -9.5 q-4 -4 -13 -3q-8 -12 -20 -20v-7l-28 -22q-9 1 -22 1q-8 0 -10 -1l-36 16q-2 -3 -8 -3q-10 0 -186 94q-38 26 -57 40q-38 29 -38 54q0 2 0.5 5t0.5 4q-4 9 -4 16z" />
<glyph unicode="&#x203a;" horiz-adv-x="441" d="M25 484q0 20 43 64q28 14 43 14l12 -2q4 -2 16 -4q32 -25 118 -100q12 -11 14 -17q36 -36 99 -83q6 -10 30 -58q-6 -8 -15 -55l-1 -3q-52 -97 -103 -186q-10 -16 -13 -32q-7 -4 -43 -24q-2 -2 -26 -22q-46 4 -61 33h-10l-26 21v75l91 153v9l-89 85q-54 52 -71 78 q-8 24 -8 54z" />
<glyph unicode="&#x205f;" horiz-adv-x="334" />
<glyph unicode="&#x20ac;" horiz-adv-x="1084" d="M22 439l10 53q52 36 70 36q1 0 19 -7q4 -1 20 -1l151 3q46 1 61 39q13 8 25 30q8 8 13.5 13t15.5 15t22.5 21t26.5 23q125 107 258 127q50 25 163 25q8 0 60 -16q1 -1 9.5 -7t15.5 -10q20 -35 21 -49q-4 -8 -7 -30q5 -10 5 -17q-9 -9 -41 -9l-66 2q-18 0 -97 -13 q-63 -23 -87 -31l-122 -93q0 -4 4 -8h253q6 0 27 -7q86 -6 158 -29q3 -5 38 -33l-7 -5q4 -11 12 -15l-7.5 -5t-11 -7t-11.5 -8q0 -5 -5 -10q3 -3 3 -7q20 -12 34 -15q-12 0 -18 -1q-12 2 -15 10q-3 1 -11 1q-14 0 -36 -6q-10 5 -15 5q-2 0 -6.5 -1.5t-8.5 -1.5t-8 3h-10 q-1 0 -5 -4t-5 -4h-77q-15 0 -26 8l-27 -8q-10 5 -16 5l-37 -7q-25 5 -27 5l-135 -10l-7 -5l4 -5q2 2 2 4l19 -3q-36 -11 -48 -11q-1 0 -5 1.5t-8 3.5q-14 -10 -28 -10h-42q-13 -4 -29 -13q-17 -41 -17 -66q0 -51 77 -101q1 0 9 -2.5t27.5 -8.5t40.5 -12q30 -2 68 -7l44 -6 l230 3l28 5h43l40 2q46 2 65 -7q35 -16 51 -49q-8 -25 0 -33l-15 -10q2 -3 2 -15q-32 -20 -60 -18v-8l-204 -13h-102l-9 -2l-9 -2q-23 5 -25 5l-22 -5l-68 7l-12 -2.5t-13 -2.5q-30 0 -32 2q0 1 2 1q-3 1 -8 10l-21 -5q-12 0 -26 10q-2 -3 -8 -3q-12 0 -75 24q-9 1 -11 1.5 t-8.5 2t-9 3t-6 4.5t-6.5 7l-42 21q-39 30 -74 82q-37 56 -37 89v50l5 35q-2 2 -2 5q-11 4 -55 4l-3 -1h-6.5h-9.5t-9.5 -0.5t-6.5 -1.5h-3q-12 0 -28 8q-3 -3 -12 -3q-13 0 -27 12q-47 20 -58 80zM524 375l8 8h31q-6 2 -37 2q-1 -2 -2 -10z" />
<glyph unicode="&#x2122;" horiz-adv-x="872" d="M16 822q0 25 26 49q11 5 28 12q76 16 118 19l187 10q29 12 42 12q28 0 62 -36.5t43 -66.5l77 -127q3 3 29.5 28.5t49.5 48.5q9 12 31 43q7 18 21 47q10 13 26 13q11 0 48 -12q23 -23 31 -55t10 -89l3 -86q3 -88 -36 -148l-39 -8q-15 13 -38 26q-15 40 -15 64v36 q-1 4 -6 10l-70 -98q-3 0 -18 -3q-5 -4 -37 -16v3q-24 11 -47 26q0 1 -42 68q-14 42 -41 62q-13 -25 -19 -80t-24 -80q-15 -5 -35 -13q-13 8 -18 8t-7 -3l-2.5 2t-6.5 6l-8 8q-10 10 -19 10q-5 12 -5 25q0 5 1 9v10q0 17 -7 27q5 5 5 8v37l18 88v27h-7q-1 3 -4 3q-1 0 -2 -1 q-1 0 -20 -1.5t-21 -1.5q-11 -11 -11 -49l-8 -70l-25 -96l-13 -10v-13l-10 2q-10 -5 -18 -5q-19 0 -19 2q0 1 1 1q-5 10 -23 28q-3 15 -15 83v97q-21 12 -34 12h-34v6q-14 6 -32 15q-1 1 2 6q-2 5 -9 14l-4 14q-3 14 -6.5 27.5t-3.5 15.5z" />
<glyph unicode="&#xe000;" horiz-adv-x="425" d="M0 0v425h425v-425h-425z" />
<glyph unicode="&#xfb01;" horiz-adv-x="851" d="M3 300l4 13q-1 2 -1 7q0 12 12 30.5t21 24.5q2 -2 6 -2l27.5 4t28.5 4l15 9l4 117q0 13 9 58q11 53 30 129q12 27 37 86q3 1 22 28l86 61q25 12 63 24.5t55 11.5l68 -2q24 0 57 -16l46 -22q16 -16 40 -35l18 -70q0 -2 -6.5 -16.5t-6.5 -16.5q0 -5 3 -10l-6 -6l-17 2 l-5 -6q-14 0 -29 32q-2 0 -14 4q-15 34 -70 38l-37 2q-4 0 -83 -19q-6 -2 -15 -12q-28 3 -44 -29q0 -3 8 -3l5 8q7 0 11 2v-10h-10q-16 -11 -35 -46q-25 -29 -43.5 -96t-18.5 -125q0 -17 5 -47q7 -4 20 -3l384 21l116 -4q51 -45 51 -155q0 -207 -57 -244q-4 -2 -7 -2 q-7 0 -16 3q-3 -2 -27 -20q-11 -2 -15 -4q-11 0 -18 3l-21 45l7 54l-1 177q-29 11 -47 11l-131 -5l-15 -3q-15 -4 -21 -4q-7 -1 -27 -13h-9q-10 10 -19 10q-1 0 -11 -2.5t-11 -2.5q-9 0 -23 1q-6 0 -11.5 0.5t-8.5 0.5h-3q-7 0 -31 -11l2 -6l-15 -33l48 -130v-34q0 -2 5 -7 q-5 -13 -5 -27q-2 -1 -28 -17q0 2 -1 -1q0 -2 -1 -6l12 -9q-3 -5 -3 -6q0 -2 1 -2q-10 0 -12 1q-1 -1 -1 -9h-17q0 4 -6 13q-5 -3 -5 -12q-41 31 -80 106q-8 18 -55 138q1 1 1 11q-6 8 -15 13q-1 0 -5.5 -1t-5.5 -1q-6 -8 -18 -15q-1 0 -4 1.5t-4 1.5h-18q-4 8 -14 10l-16 2 q-28 25 -28 60zM674 572v9q0 1 4.5 6.5t4.5 11.5q0 8 -2 13q15 25 26 47q9 4 25 22q7 -2 20 -2q14 0 21 2q14 -11 30 -43q16 -35 16 -49q0 -15 -3 -23q-20 -18 -20 -23q0 2 -6 2q-2 0 -6 -4t-7 -9.5t-4 -9.5q-10 7 -11 9q-8 -10 -19 -21l-9 6q0 9 1 10h-30q-13 3 -16 8 t-3 22z" />
<glyph unicode="&#xfb02;" horiz-adv-x="824" d="M-7 400q0 11 13 36t20 29q20 9 36 9q3 0 18 -2.5t19 -2.5q19 -1 36 2l6 -3q3 -1 4 -2q14 2 21 12v65l25 143q3 5 8 27q14 49 75 126q57 43 196 75l60 -2q45 -2 85 -38q29 13 38 13q12 0 35.5 -19.5t29.5 -31.5q26 -61 32 -132q1 -13 11 -139l-2 -6l5 -39v-40l7 -120 l1 -223q0 -51 -1 -112q-9 -36 -9 -28l-33 -26h-16q-11 1 -31 15q-1 1 -14 -5q-4 6 -18 15q-5 10 -5 16q0 4 2 8q-1 0 -5 4.5t-7 8.5q-13 38 -13 47l17 195v127l-5 25v43l-20 254q-2 11 -25 45q-16 5 -37 5q-88 0 -145 -41.5t-67 -115.5q-12 -23 -12 -44l-12 -95q12 -7 21 -7 l146 -2q26 -9 45 -14q30 -20 31 -47q2 -1 4 -3.5t6 -5.5t7 -6q-4 -14 -18 -47q-60 -28 -68 -28h-70q-7 0 -32.5 -3.5t-27.5 -3.5q-5 0 -12 -1h-8l-5 -1q-9 -7 -9 -11v-36l4 -3q3 -49 19 -114q12 -47 19 -47q3 0 3 5v-48q0 -11 -17 -39q-23 -10 -45 -10q-21 0 -26 4 q-7 0 -20 -9h-8q-4 4 -4 13q-14 10 -23 29q-10 19 -12 21l-40 225q-4 6 -7 9q-10 -5 -15 -5h-43q-1 0 -25 3t-25 3q-19 8 -39 30q-24 27 -22 46q-7 11 -7 25z" />
</font>
</defs>
</svg>
