<?xml version="1.0" standalone="no"?>
<!DOCTYPE svg PUBLIC "-//W3C//DTD SVG 1.1//EN" "http://www.w3.org/Graphics/SVG/1.1/DTD/svg11.dtd" >
<svg xmlns="http://www.w3.org/2000/svg">
<metadata></metadata>
<defs>
<font id="panefresco_999wtitalic" horiz-adv-x="530" >
<font-face units-per-em="1000" ascent="750" descent="-250" />
<missing-glyph horiz-adv-x="265" />
<glyph horiz-adv-x="1000" />
<glyph horiz-adv-x="1000" />
<glyph unicode="&#xd;" horiz-adv-x="265" />
<glyph unicode=" "  horiz-adv-x="265" />
<glyph unicode="&#x09;" horiz-adv-x="265" />
<glyph unicode="&#xa0;" horiz-adv-x="265" />
<glyph unicode="!" d="M237 166h144l-37 -166h-144zM358 700h148l-106 -440h-138z" />
<glyph unicode="&#x22;" horiz-adv-x="355" d="M313 440l56 250h129l-63 -250h-122zM135 440l56 250h129l-63 -250h-122z" />
<glyph unicode="#" d="M470 165l-37 -165h-116l37 165h-104l-37 -165h-116l37 165h-96l25 112h96l25 106h-96l26 112h96l38 165h116l-38 -165h104l38 165h116l-38 -165h96l-26 -112h-96l-25 -106h96l-25 -112h-96zM404 383h-104l-25 -106h104z" />
<glyph unicode="$" d="M599 538q-42 6 -80 10t-84 5l-38 -164q27 -14 54 -29.5t49.5 -35t36.5 -44t14 -56.5q0 -102 -62.5 -164t-181.5 -70l-25 -110l-51 7l23 102q-50 2 -101 7.5t-84 13.5l33 115q17 -3 39.5 -5.5t46.5 -5t48.5 -4t45.5 -1.5l41 180q-27 14 -55 30t-51 36t-38 45t-15 58 q0 39 15.5 76t46.5 66.5t77 49t107 23.5l27 117h52l-27 -117q35 -2 74.5 -8t91.5 -15zM299 470q0 -17 14.5 -30t37.5 -27l31 138q-23 -4 -39 -12.5t-26 -20t-14 -24t-4 -24.5zM412 204q0 17 -12 31.5t-31 27.5l-34 -149q29 9 53 32t24 58z" />
<glyph unicode="%" d="M268 621q-14 0 -21.5 -15t-15.5 -50t-7.5 -50.5t14.5 -15.5t21.5 15.5t15.5 50.5t7.5 50t-14.5 15zM509 720l79 -30l-411 -714l-79 30zM133 556q17 73 56 109t97 36t81 -36t6 -109t-56.5 -109.5t-97.5 -36.5t-80.5 36.5t-5.5 109.5zM320 146q17 73 56.5 109t97.5 36 t80.5 -36t5.5 -109t-55.5 -109.5t-96.5 -36.5t-81.5 36.5t-6.5 109.5zM418 146q-8 -35 -7.5 -50.5t14.5 -15.5t21.5 15.5t15.5 50.5t7.5 50t-14.5 15t-21.5 -15t-15.5 -50z" />
<glyph unicode="&#x26;" horiz-adv-x="700" d="M475 710q46 0 83 -10.5t60.5 -32t32.5 -53.5t-1 -75q-8 -34 -22.5 -61t-37.5 -51t-54.5 -47t-72.5 -49l61 -83q4 8 13 24t18 34.5t17.5 35.5t11.5 26l129 -3q-9 -23 -22.5 -50.5t-28.5 -55t-29 -52t-24 -41.5l79 -94l-95 -87l-74 79q-33 -21 -61.5 -35.5t-57.5 -23.5 t-61 -13t-72 -4q-115 0 -164 56t-24 164q7 33 25 62.5t43 54t55 43.5t62 32q-10 20 -16.5 36.5t-9 33.5t-1 36t7.5 44q9 39 30 69t51.5 50t68.5 30.5t80 10.5zM293 110q39 0 72 8.5t73 26.5l-116 165q-18 -6 -36.5 -17t-34 -24.5t-26.5 -29t-14 -31.5q-11 -45 9.5 -71.5 t72.5 -26.5zM376 530q-8 -32 -5.5 -55.5t20.5 -46.5l12 -16q46 29 72.5 53t34.5 59q8 32 -6.5 48.5t-46.5 16.5q-30 0 -52 -14.5t-29 -44.5z" />
<glyph unicode="'" horiz-adv-x="100" d="M139 690h128l-63 -250h-121z" />
<glyph unicode="(" horiz-adv-x="260" d="M420 750q-44 -76 -83 -154q-17 -33 -34 -70t-32.5 -75.5t-28.5 -76.5t-21 -73t-12.5 -72t-6.5 -73.5t-1.5 -71.5t2.5 -66q4 -73 15 -143h-146q-13 66 -17 138q-5 61 -2 137t20 151q9 37 22 76.5t28.5 78t33 75t34.5 69.5q39 77 83 150h146z" />
<glyph unicode=")" horiz-adv-x="260" d="M-30 -120q43 76 81 154q16 33 33 70t32 75t28 76t21 74q16 70 19 145t0 138q-4 73 -14 143h145q13 -67 17 -138q4 -62 1 -137.5t-20 -150.5q-9 -38 -22 -77t-28.5 -78t-33 -75.5t-33.5 -69.5q-39 -77 -83 -149h-143z" />
<glyph unicode="*" d="M435 479l12 -110l-98 -28l-12 112l-112 -74l-40 73l114 72l-79 69l74 78l76 -65l66 110l84 -32l-63 -108h115l-22 -97h-115z" />
<glyph unicode="+" d="M113 342h163l39 168h136l-39 -168h165l-30 -132h-165l-39 -168h-136l39 168h-163z" />
<glyph unicode="," horiz-adv-x="170" d="M-33 -123q21 29 42.5 57.5t38 59t25 66t3.5 77.5h144q6 -39 -1 -73.5t-24.5 -66.5t-42.5 -61.5t-53 -58.5h-132z" />
<glyph unicode="-" horiz-adv-x="440" d="M145 333h300l-29 -126h-300z" />
<glyph unicode="." horiz-adv-x="248" d="M82 166h144l-37 -166h-144z" />
<glyph unicode="/" d="M504 720l118 -44l-445 -700l-118 44z" />
<glyph unicode="0" d="M419 672q58 0 100.5 -17.5t66 -58t25.5 -107t-20 -163.5q-23 -98 -55.5 -163t-74.5 -104t-92 -55t-108 -16t-100.5 16t-66.5 55t-27 104t20 163q22 97 55.5 163.5t75.5 107t92.5 58t108.5 17.5zM390 545q-28 0 -50.5 -11.5t-41 -37.5t-34 -67.5t-29.5 -102.5 t-17.5 -101.5t3.5 -65t24.5 -34.5t45.5 -10t50 10t40 34.5t33 65t29 101.5t18 102.5t-2.5 67.5t-23.5 37.5t-45 11.5z" />
<glyph unicode="1" d="M395 660h128l-151 -660h-138l114 501l-158 -93l-39 108z" />
<glyph unicode="2" d="M49 0l27 123l173 138q79 65 123.5 112t55.5 95q9 38 -11 57.5t-74 19.5q-26 0 -54.5 -3t-52.5 -7q-28 -4 -55 -10l20 121q33 7 68 13q30 5 66.5 9t71.5 4q106 0 146.5 -51.5t19.5 -144.5q-9 -38 -22 -68t-34.5 -58t-53.5 -58t-79 -68l-124 -95h242l-28 -129h-425z" />
<glyph unicode="3" d="M207 646q34 7 68 13q29 5 63.5 9t64.5 4q123 0 163.5 -47.5t19.5 -139.5q-13 -54 -40 -83.5t-69 -53.5q18 -11 31.5 -24t21 -31t8 -42t-7.5 -57q-24 -105 -88.5 -155.5t-178.5 -50.5q-37 0 -74.5 3t-67.5 8q-36 5 -69 12l40 117l66 -6q28 -2 59 -3.5t56 -1.5q97 0 116 79 q8 37 -12 55t-62 18h-128l27 120h128q17 0 33 7.5t29.5 19.5t23 26t12.5 26q9 39 -14 57t-63 18q-29 0 -59.5 -2.5t-55.5 -4.5q-29 -3 -56 -6l15 116v0z" />
<glyph unicode="4" d="M323 107h-276l26 110l269 443h150l-259 -425h120l39 172h138l-39 -172h61l-30 -128h-61l-27 -117h-138z" />
<glyph unicode="5" d="M621 661l-30 -129h-269l-46 -131q17 5 35 9q15 3 31.5 6t28.5 3q50 0 87 -11.5t59 -36.5t27.5 -63.5t-6.5 -92.5q-13 -58 -38.5 -100.5t-61 -70.5t-79.5 -42t-94 -14q-39 0 -78.5 5t-71.5 11q-38 7 -72 17l43 118q35 -7 70 -12q30 -5 65.5 -8.5t67.5 -3.5q37 0 65.5 22 t39.5 70q20 87 -67 87q-23 0 -41.5 -2.5t-32.5 -5.5q-16 -4 -29 -7l-101 23l105 359h393z" />
<glyph unicode="6" d="M599 529q-28 3 -59 7q-26 3 -58 5.5t-61 2.5q-65 0 -105 -39t-58 -115l12 4.5t31 10.5t41.5 11t43.5 5q52 0 90.5 -12t61 -38t28.5 -66t-7 -96q-26 -112 -101 -166.5t-187 -54.5q-125 0 -166.5 87t-3.5 252q22 98 57.5 164.5t80.5 106.5t98.5 57t113.5 17q28 0 60.5 -3.5 t61.5 -7.5q33 -5 66 -11zM346 301q-20 0 -40 -3t-37 -6q-19 -4 -37 -9q-8 -33 -9 -63.5t6 -54t24 -38t47 -14.5q45 0 75.5 24t41.5 72q11 47 -8.5 69.5t-62.5 22.5z" />
<glyph unicode="7" d="M205 661h412l-36 -157l-354 -522l-123 36l331 486l6 27h-266z" />
<glyph unicode="8" d="M423 673q49 0 89.5 -13t66.5 -37t36.5 -58.5t0.5 -77.5q-7 -30 -14.5 -50t-19 -36t-29 -30t-42.5 -31q34 -26 46 -63t-1 -92q-12 -52 -39.5 -89.5t-66.5 -62t-87 -36t-100 -11.5t-94 11t-69.5 35t-37.5 61.5t2 89.5q7 30 19 53.5t28 42.5t34.5 33.5t37.5 27.5 q-17 17 -27 34t-14 35.5t-2.5 40t7.5 47.5q10 43 35.5 75.5t62 55t82.5 34t96 11.5zM292 111q48 0 79 21.5t42 67.5q5 24 -2.5 44t-34.5 31h-88q-34 -12 -50.5 -31.5t-21.5 -43.5q-20 -89 76 -89zM395 548q-42 0 -69.5 -20t-36.5 -58q-5 -24 0.5 -42.5t25.5 -35.5h88 q28 17 42.5 35.5t19.5 42.5q9 38 -9.5 58t-60.5 20z" />
<glyph unicode="9" d="M82 129q28 -4 59 -8q26 -3 57.5 -5t61.5 -2q65 0 105.5 41t57.5 110l-13 -4t-32.5 -9t-41.5 -9t-40 -4q-50 0 -87.5 14.5t-60.5 42t-29.5 68.5t5.5 95t39.5 94.5t65.5 66.5t84 39t97 13q121 0 165 -87t5 -258q-23 -98 -58 -163.5t-80 -104.5t-98 -55t-113 -16 q-28 0 -60.5 3t-61.5 8q-33 4 -66 11zM336 361q20 0 40 2t37 5l36 8q9 37 9.5 68.5t-7.5 54.5t-25 35.5t-44 12.5q-42 0 -74 -25t-43 -71t9 -68t62 -22z" />
<glyph unicode=":" horiz-adv-x="230" d="M139 455h144l-39 -166h-144zM72 166h144l-37 -166h-144z" />
<glyph unicode=";" horiz-adv-x="241" d="M101 157h144l-144 -270h-123zM160 455h144l-39 -166h-144z" />
<glyph unicode="&#x3c;" d="M280 289l189 -113l-32 -140l-305 181l32 140l389 182l-32 -140z" />
<glyph unicode="=" d="M151 438h427l-30 -130h-427zM101 225h427l-30 -130h-427z" />
<glyph unicode="&#x3e;" d="M184 399l32 140l305 -182l-32 -140l-389 -181l32 140l241 113z" />
<glyph unicode="?" horiz-adv-x="386" d="M519 516q-8 -35 -26.5 -64.5t-42 -54.5t-48.5 -45.5t-46.5 -38.5t-37 -34t-18.5 -31l-9 -38h-136q0 12 1 23l2 20t3 18q8 36 39.5 68t66.5 59.5t64.5 52t34.5 47.5q4 18 5.5 32t-4.5 23.5t-21.5 14t-44.5 4.5q-20 0 -46 -2.5t-50 -5.5q-28 -4 -57 -8l13 120q36 10 70 19 q29 7 61.5 13t56.5 6q55 0 93.5 -10.5t59.5 -33.5t25.5 -61t-8.5 -93zM135 156h144l-35 -156h-144z" />
<glyph unicode="@" horiz-adv-x="985" d="M1010 288q-19 -82 -45 -139t-58.5 -92t-72 -51t-86.5 -16q-45 0 -74 10.5t-46 32.5q-16 -7 -36 -14.5t-41.5 -13.5t-43 -10t-40.5 -4q-92 0 -124 65.5t-5 185.5q14 61 33.5 110t49 84t71 54t99.5 19q11 0 25.5 -3.5t28.5 -7.5q16 -5 34 -11l3 13h134l-46 -200 q-14 -61 -20 -96.5t-4.5 -54t10 -24t22.5 -5.5q15 0 27.5 6.5t24 25t22.5 51.5t23 85l4 18q19 80 14 136t-34.5 90.5t-84 50t-133.5 15.5q-164 0 -266.5 -86t-140.5 -251q-21 -91 -18.5 -155t32 -105t87.5 -60t149 -19q15 0 39.5 1t48.5 3q27 2 58 5l-25 -130q-30 -3 -58 -5 q-24 -2 -49.5 -3.5t-43.5 -1.5q-111 0 -191 27.5t-125.5 85t-56 146.5t17.5 211q27 119 79 207t125.5 146t166.5 86.5t201 28.5q214 0 302 -109.5t41 -314.5zM509 123q23 0 48.5 4.5t47.5 10.5q2 23 6 48t11 54l30 132q-12 2 -23 5q-10 2 -20 3.5t-17 1.5q-27 0 -45 -6 t-31 -22t-22.5 -43t-19.5 -69q-15 -67 -6 -93t41 -26z" />
<glyph unicode="A" horiz-adv-x="605" d="M278 561q65 129 205 129h103l-6 -690h-132l-5 119h-224l-52 -119h-142zM456 570q-14 -1 -28.5 -9t-26.5 -33l-125 -282h171z" />
<glyph unicode="B" horiz-adv-x="605" d="M478 690q43 0 81 -10.5t63.5 -33t36.5 -56.5t0 -81q-8 -34 -17.5 -57.5t-23 -41.5t-31 -31t-40.5 -26q42 -20 54.5 -58t-2.5 -106q-12 -51 -37 -87t-60 -58.5t-78 -33t-90 -10.5h-259l158 690h245zM276 287l-38 -164h116q35 0 65 20t40 63q5 21 1.5 36t-13 25t-24 15 t-31.5 5h-116zM340 567l-37 -162h113q33 0 60 22t37 63q9 39 -10 58t-51 19h-112z" />
<glyph unicode="C" horiz-adv-x="529" d="M493 8q-37 -6 -73 -10q-31 -4 -64.5 -7t-59.5 -3q-75 0 -119 23t-62.5 68.5t-14.5 113.5t25 158q22 97 52 164.5t70.5 108.5t93 59.5t120.5 18.5q28 0 60.5 -3.5t61.5 -8.5q33 -5 66 -12l-32 -120q-35 3 -67 6q-27 2 -55 4t-45 2q-36 0 -63.5 -9.5t-49 -35t-39 -69 t-33.5 -111.5q-15 -64 -18.5 -107t6 -69.5t33 -37.5t64.5 -11q15 0 43 1.5t56 3.5q33 3 70 6z" />
<glyph unicode="D" horiz-adv-x="626" d="M75 0l158 690h222q85 0 135.5 -21t73 -63t20.5 -105.5t-22 -148.5q-20 -88 -47 -154t-68 -110t-101.5 -66t-148.5 -22h-222zM520 358q12 52 16 91t-5 64t-34.5 37.5t-71.5 12.5h-86l-100 -436h86q46 0 78 16t53.5 46t36.5 73t27 96z" />
<glyph unicode="E" horiz-adv-x="553" d="M503 0h-207q-47 0 -86 16t-64.5 43.5t-35.5 65.5t1 83q9 38 19.5 63.5t25 42.5t34.5 27.5t48 18.5q-12 12 -22.5 25t-16.5 31t-6 42t9 58q12 47 37 80t59 54t74.5 30.5t83.5 9.5h204l-27 -127h-202q-32 0 -59.5 -17t-38.5 -56q-10 -41 6 -66t49 -25h147l-29 -119h-150 q-17 0 -34.5 -4t-32.5 -12.5t-27 -22.5t-17 -35q-11 -43 9 -61.5t59 -18.5h218z" />
<glyph unicode="F" horiz-adv-x="538" d="M233 690h428l-30 -128h-292l-48 -207h232l-28 -124h-232l-52 -231h-136z" />
<glyph unicode="G" horiz-adv-x="595" d="M412 376h218l-44 -189q-11 -37 -23 -69.5t-28.5 -58t-37.5 -42.5t-49 -21q-35 -5 -70.5 -6.5t-63.5 -1.5q-77 0 -124 24.5t-68 72t-19 115.5t22 155q21 93 51.5 159t72.5 107.5t97.5 61t127.5 19.5q35 0 75 -3.5t74 -8.5q40 -5 77 -12l-31 -119q-35 3 -71 6 q-31 2 -66.5 4.5t-65.5 2.5q-41 0 -71.5 -10t-54 -35.5t-41.5 -69t-33 -110.5q-15 -65 -18.5 -109t6.5 -71t35 -38.5t68 -11.5q42 0 61 12.5t29 44.5l20 83h-82z" />
<glyph unicode="H" horiz-adv-x="663" d="M517 288h-241l-65 -288h-136l158 690h136l-64 -275h241l64 275h136l-158 -690h-136z" />
<glyph unicode="I" horiz-adv-x="278" d="M228 690h138l-158 -690h-138z" />
<glyph unicode="J" horiz-adv-x="314" d="M267 115q-12 -53 -30 -88.5t-46.5 -56.5t-70.5 -30t-102 -9l28 121q39 2 58.5 16.5t27.5 48.5l132 573h135z" />
<glyph unicode="K" horiz-adv-x="591" d="M680 690q-5 -70 -19.5 -125t-36.5 -98t-52 -75t-67 -55l71 -337h-147l-54 284q-26 -8 -52 -12l-52 -7l-60 -265h-136l158 690h136l-67 -294l35 5q58 14 96 39t62 61t35.5 83.5t17.5 105.5h132z" />
<glyph unicode="L" horiz-adv-x="485" d="M75 0l158 690h136l-130 -561h239l-28 -129h-375z" />
<glyph unicode="M" horiz-adv-x="848" d="M200 548q19 65 59 103t107 39h82l12 -507l191 392q28 59 67.5 86.5t89.5 28.5h123l-158 -690h-136l120 526q-8 0 -17 -9t-17 -29l-178 -364q-22 -45 -46 -69t-50 -25h-88l-15 496q-8 -1 -13 -10.5t-10 -24.5l-112 -491h-136z" />
<glyph unicode="N" horiz-adv-x="701" d="M233 690h100q26 0 48.5 -6t40.5 -21t29.5 -40.5t15.5 -65.5l39 -387q1 -13 3 -19.5t10 -9.5l127 549h138l-158 -690h-111q-56 2 -83 32.5t-34 84.5l-47 408q-1 15 -3 21t-9 5l-126 -551h-138z" />
<glyph unicode="O" horiz-adv-x="644" d="M347 115q38 0 67 13t51 40t38.5 69.5t30.5 102.5q28 119 11.5 177t-92.5 58q-38 0 -67 -14.5t-51.5 -43.5t-39.5 -73t-31 -104t-17 -102.5t6.5 -69.5t32.5 -40t61 -13zM318 -12q-77 0 -124 23.5t-69.5 69.5t-21.5 113t21 154t50 153t73 111t101 67.5t135 22.5 q76 0 123 -24.5t69 -72t20.5 -115.5t-21.5 -155t-49.5 -152t-72 -108.5t-100.5 -65t-134 -21.5z" />
<glyph unicode="P" horiz-adv-x="592" d="M257 197l-44 -197h-138l158 690h240q113 0 163 -63t22 -184t-107 -183.5t-192 -62.5h-102zM387 323q52 0 85.5 34.5t46.5 91.5q13 56 -5.5 85.5t-70.5 29.5h-101l-56 -241h101z" />
<glyph unicode="Q" horiz-adv-x="644" d="M516 -240q-34 9 -57 32t-39.5 54.5t-28.5 69t-23 75.5q-11 -1 -25 -2t-25 -1q-77 0 -124 25t-69 72t-20.5 115.5t21.5 155.5t49.5 152t72.5 108t100.5 64.5t134.5 21.5q76 0 123.5 -25.5t69.5 -73.5t20.5 -117t-21.5 -156q-26 -112 -70.5 -185.5t-110.5 -115.5 q7 -24 13.5 -48.5t15.5 -45t20.5 -35t28.5 -18.5zM347 115q38 0 67 13t51 40t38.5 69.5t30.5 102.5q28 119 11.5 177t-92.5 58q-38 0 -67 -14.5t-51.5 -43.5t-39.5 -73t-31 -104q-28 -119 -9.5 -172t92.5 -53z" />
<glyph unicode="R" horiz-adv-x="612" d="M364 227h-102l-51 -227h-136l158 690h242q57 0 100.5 -13.5t69.5 -42t33.5 -73t-6.5 -105.5q-9 -38 -23 -67.5t-33 -53t-41.5 -41t-49.5 -32.5l46 -262h-145l-35 228zM530 459q12 50 -10.5 77t-64.5 27h-116l-49 -213h118q45 0 78 31t44 78z" />
<glyph unicode="S" d="M615 561q-48 7 -92.5 11t-102.5 4q-33 0 -55.5 -8t-36 -20.5t-19.5 -28t-6 -29.5q0 -20 19.5 -35.5t48.5 -31t63 -32.5t63 -39t48.5 -50.5t19.5 -67.5q0 -113 -73.5 -179t-213.5 -66q-28 0 -58 1.5t-58.5 4.5t-54 7t-44.5 9l35 120q20 -3 46.5 -6.5t55 -5.5t56 -3.5 t49.5 -1.5q19 0 39.5 7t37.5 19.5t28 31t11 41.5t-19 41t-48 34.5t-62.5 33.5t-62.5 39t-48 50t-19 67q0 43 18 83.5t54 72t89.5 50.5t124.5 19q43 0 88.5 -7t109.5 -18z" />
<glyph unicode="T" horiz-adv-x="480" d="M166 690h464l-31 -133h-162l-127 -557h-136l127 557h-166z" />
<glyph unicode="U" horiz-adv-x="646" d="M259 230q-14 -61 8 -84.5t83 -23.5t94 24t47 84l106 460h137l-106 -460q-15 -64 -40 -109t-62 -74t-88.5 -42.5t-118.5 -13.5q-68 0 -112.5 13.5t-68.5 42.5t-27.5 74t11.5 109l106 460h137l-106 -460v0z" />
<glyph unicode="V" horiz-adv-x="613" d="M746 690l-268 -580q-32 -58 -79 -83t-108 -27h-108v690h140l-13 -566q35 0 56 48l230 518h150z" />
<glyph unicode="W" horiz-adv-x="941" d="M328 690l-32 -569q11 -3 25 27l179 429q22 54 51 78.5t65 24.5h84l-24 -559q15 -3 28 34l217 535h149l-252 -585q-22 -51 -60 -78t-98 -27h-102l25 497l-157 -388q-14 -33 -31 -54.5t-37 -33.5t-42 -16.5t-45 -4.5h-103l19 690h141z" />
<glyph unicode="X" horiz-adv-x="581" d="M385 441l175 249h158l-264 -348l106 -342h-147l-62 243l-173 -243h-158l263 342l-105 348h147z" />
<glyph unicode="Y" horiz-adv-x="571" d="M355 0h-136l67 295l-113 395h142l60 -250l175 250h164l-292 -395z" />
<glyph unicode="Z" horiz-adv-x="570" d="M223 690h439q6 -46 -19 -96.5t-71 -104.5l-269 -312q-27 -29 -32 -48h262l-28 -129h-438q-2 59 24 109t67 95l272 315q13 13 20 23t8 19h-265z" />
<glyph unicode="[" horiz-adv-x="300" d="M422 617h-115l-140 -608h115l-31 -132h-251l199 872h253z" />
<glyph unicode="\" horiz-adv-x="528" d="M342 0l-147 702h140l146 -702h-139z" />
<glyph unicode="]" horiz-adv-x="300" d="M193 749h253l-202 -872h-250l29 132h115l140 608h-115z" />
<glyph unicode="^" d="M387 528l-162 -215h-140l261 347h140l101 -347h-140z" />
<glyph unicode="_" d="M482 -85l-28 -122h-474l26 122h476z" />
<glyph unicode="`" horiz-adv-x="545" d="M546 683l-66 -113l-243 78l73 127z" />
<glyph unicode="a" horiz-adv-x="528" d="M483 143q-3 -19 8.5 -29.5t31.5 -14.5l-32 -109q-51 2 -83 14.5t-46 32.5q-11 -7 -28 -15.5t-37 -15.5t-41 -12t-39 -5q-56 0 -85.5 26.5t-40 67.5t-5 90t19.5 94q75 242 269 242q29 0 53 -3t40 -8l99 14zM252 113q29 0 62 14.5t53 38.5l48 225q-9 2 -24 2.5t-24 0.5 q-51 0 -86 -41.5t-58 -116.5q-6 -18 -9.5 -39.5t-1.5 -40t11 -31t29 -12.5z" />
<glyph unicode="b" horiz-adv-x="546" d="M312 465q31 19 64 31.5t62 12.5q56 0 85.5 -26.5t40 -67.5t5 -90t-19.5 -94q-75 -242 -269 -242q-14 0 -48 2t-70 4q-42 3 -91 6l161 699h134zM403 387q-13 0 -29.5 -4t-33 -11.5t-32 -17t-26.5 -19.5l-51 -227q30 -6 57 -6q51 0 86 42.5t58 117.5q6 18 9.5 40t1.5 41 t-11.5 31.5t-28.5 12.5z" />
<glyph unicode="c" horiz-adv-x="436" d="M407 63q-18 -17 -40.5 -30.5t-47.5 -23.5t-51 -15t-51 -5q-56 0 -85.5 26.5t-40 67.5t-5 90t19.5 94q75 242 269 242q16 0 34.5 -1.5t36.5 -4.5t34 -7.5t27 -10.5l-31 -113q-7 4 -20 8t-28 7t-31.5 5t-29.5 2q-51 0 -86 -41.5t-58 -116.5q-6 -18 -9.5 -40t-1.5 -41 t11 -31.5t29 -12.5q29 0 64 15.5t55 39.5z" />
<glyph unicode="d" horiz-adv-x="546" d="M474 0h-134l8 35q-32 -20 -66.5 -33t-64.5 -13q-56 0 -85.5 26.5t-40 67.5t-5 90t19.5 94q75 242 269 242q18 0 38 -4t40 -9l47 204h134zM252 111q14 0 31.5 4.5t35 12.5t33.5 18.5t26 22.5l50 216q-16 5 -31.5 8t-29.5 3q-51 0 -86 -42.5t-58 -117.5q-6 -18 -9.5 -40 t-1.5 -41t11 -31.5t29 -12.5z" />
<glyph unicode="e" horiz-adv-x="507" d="M447 48q-12 -8 -33 -18t-47 -19t-56 -15t-60 -6q-88 0 -125.5 43t-37.5 119q0 51 14 105q16 64 45 111t65.5 78.5t76.5 47t79 15.5q77 0 120 -35.5t43 -92.5q0 -16 -3.5 -35t-11 -37.5t-20.5 -36t-31 -31.5q-27 -21 -61.5 -34.5t-69.5 -22t-67.5 -12.5t-56.5 -5 q-3 -12 -1.5 -23.5t7.5 -21t18 -15.5t30 -6q19 0 44.5 5.5t51 14.5t48.5 20t39 22v-115zM363 396q-17 0 -35.5 -8t-36.5 -24t-33.5 -40t-26.5 -55q28 3 60 8t59 15t45 27t18 44q0 15 -12.5 24t-37.5 9z" />
<glyph unicode="f" horiz-adv-x="343" d="M158 383h-49l27 116h49l5 23q23 101 68.5 144.5t120.5 43.5q12 0 30 -2.5t35 -4.5q19 -3 41 -6l-27 -110q-12 1 -23 2t-23 2t-24 1q-29 0 -42.5 -19t-21.5 -52l-5 -22h116l-27 -116h-116l-87 -378q-12 -52 -27.5 -88.5t-41 -64t-65.5 -51t-101 -49.5l-33 111q39 19 62 33 t37 28.5t21 33.5t14 48z" />
<glyph unicode="g" horiz-adv-x="538" d="M354 394q-24 0 -42.5 -11t-32.5 -30.5t-25.5 -46t-22.5 -58.5q-21 -62 -14.5 -99.5t50.5 -37.5q11 0 28.5 7t34.5 15q19 10 40 22l55 233q-13 1 -26 3q-11 1 -23.5 2t-21.5 1zM210 -245q-29 0 -56.5 2.5t-48.5 5.5q-25 4 -47 9l31 113q21 -2 41 -4q17 -2 36 -2.5t33 -0.5 q59 0 98 42t45 114q-6 -5 -19 -12.5t-28.5 -15t-31 -13t-27.5 -5.5q-105 0 -136 69.5t6 200.5q16 57 39 104t55 80t74 51t96 18q22 0 58 -2t71 -4q40 -3 86 -6l-112 -494q-29 -125 -93.5 -187.5t-169.5 -62.5z" />
<glyph unicode="h" horiz-adv-x="561" d="M72 0l160 700h134l-53 -229q28 17 60.5 28.5t67.5 11.5q49 0 77.5 -17.5t41 -50t10.5 -78.5t-15 -103l-59 -262h-134l59 263q6 24 9 47t0 41t-13 28.5t-31 10.5q-25 0 -53.5 -14t-48.5 -29l-78 -347h-134z" />
<glyph unicode="i" horiz-adv-x="268" d="M181 499h134l-114 -499h-134zM225 691h134l-31 -135h-134z" />
<glyph unicode="j" horiz-adv-x="271" d="M184 499h134l-114 -494q-12 -52 -27.5 -88.5t-41 -64t-65.5 -51t-101 -49.5l-33 111q39 19 62 33t37 28.5t21 33.5t14 48zM228 690h134l-31 -135h-134z" />
<glyph unicode="k" horiz-adv-x="518" d="M72 0l160 700h134l-90 -392l19 4q25 7 50.5 25t47.5 43t39.5 56t28.5 63h140q-23 -66 -64.5 -128t-109.5 -112l76 -259h-141l-60 193l-56 -14l-40 -179h-134z" />
<glyph unicode="l" horiz-adv-x="268" d="M227 700h134l-160 -700h-134z" />
<glyph unicode="m" horiz-adv-x="847" d="M72 0l114 499h133l-10 -49q9 9 24.5 19.5t34 19.5t38.5 15.5t38 6.5q35 0 66.5 -17.5t41.5 -46.5q15 9 38 20.5t49 21t52 16t46 6.5q82 0 107 -64.5t-3 -185.5l-59 -261h-134l58 256q6 28 11 52.5t4.5 42.5t-9.5 28t-31 10q-30 0 -54.5 -13.5t-54.5 -31.5q-2 -14 -6 -28 q-3 -12 -6.5 -27.5t-6.5 -29.5l-58 -259h-134l58 257q7 30 9.5 54.5t-1.5 41.5t-16 26.5t-33 9.5q-25 0 -49 -18t-46 -39l-77 -332h-134z" />
<glyph unicode="n" horiz-adv-x="561" d="M72 0l114 499h134l-11 -51q9 9 26 20t37 20.5t40.5 16t38.5 6.5q43 0 70 -17.5t39 -50.5t10 -79t-15 -103l-59 -261h-134l59 261q6 25 10 48t3 41t-9.5 28.5t-29.5 10.5q-25 0 -55.5 -15t-58.5 -41l-75 -333h-134z" />
<glyph unicode="o" d="M381 511q65 0 103.5 -21.5t56 -57.5t17 -84.5t-12.5 -102.5t-33.5 -101t-55.5 -81.5t-82 -54.5t-113 -20t-103.5 22t-56 58.5t-17 85.5t12.5 103t33.5 100.5t55.5 80.5t82 53.5t113 19.5zM288 104q28 0 47.5 11.5t34 31t24 46t16.5 57.5t10 57.5t-2.5 46t-20 30.5 t-42.5 11t-48 -11t-34 -30.5t-24 -46t-17 -57.5t-9.5 -57.5t2.5 -46t20 -31t43 -11.5z" />
<glyph unicode="p" horiz-adv-x="546" d="M186 499h134l-8 -35q31 19 64.5 32t63.5 13q56 0 86 -27t40.5 -68t5.5 -90.5t-19 -94.5q-75 -240 -271 -240q-18 0 -38 3.5t-39 8.5l-49 -211h-134zM405 387q-14 0 -30.5 -4.5t-34 -12t-33 -17.5t-26.5 -21l-51 -220q15 -5 30.5 -7.5t29.5 -2.5q51 0 86 42.5t58 117.5 q6 18 9.5 40t1.5 41t-11.5 31.5t-28.5 12.5z" />
<glyph unicode="q" horiz-adv-x="544" d="M289 -210l53 242q-31 -18 -63.5 -30.5t-61.5 -12.5q-56 0 -85.5 26.5t-40 67.5t-5 90t19.5 94q75 241 269 244q15 -1 49.5 -2.5t70.5 -3.5q42 -3 91 -6l-163 -709h-134zM252 111q13 0 29 4t32.5 11t32 16.5t26.5 20.5l52 223q-15 5 -29.5 7.5t-27.5 2.5q-51 0 -86 -42.5 t-58 -117.5q-6 -18 -9.5 -40t-1.5 -41t11 -31.5t29 -12.5z" />
<glyph unicode="r" horiz-adv-x="360" d="M181 499h134l-16 -60q11 9 24.5 19.5t31.5 20t41.5 18t54.5 14.5l-33 -144q-36 -6 -58.5 -11.5t-37.5 -11t-26.5 -12.5t-25.5 -16l-69 -316h-134z" />
<glyph unicode="s" horiz-adv-x="497" d="M514 377q-33 5 -66 9q-28 3 -58 6t-50 3q-30 0 -49 -11t-23 -25q-3 -11 1 -18.5t14 -12.5t25 -10t35 -11q30 -10 57.5 -24t47 -34t28 -46.5t0.5 -60.5t-24 -61.5t-43.5 -47.5t-68 -31t-97.5 -11q-23 0 -54 2.5t-60 6.5q-33 4 -69 10l31 112q37 -5 70 -9q29 -3 59 -5.5 t50 -2.5q32 0 50 11.5t22 27.5q5 20 -18 33.5t-62 26.5q-23 7 -48.5 19t-45 31t-29.5 47t-1 68q6 30 23 56t45 44.5t68 29.5t93 11q20 0 45 -2.5t49 -6.5t45.5 -8.5t34.5 -8.5z" />
<glyph unicode="t" horiz-adv-x="350" d="M294 381l-45 -196q-17 -76 25 -76h23t23 1q12 0 25 1l-19 -108q-19 -4 -37 -8q-16 -3 -33 -5t-30 -2q-84 0 -109.5 44.5t-2.5 145.5l46 203h-54l27 117h54l33 141h134l-33 -141h118l-27 -117h-118z" />
<glyph unicode="u" horiz-adv-x="561" d="M603 499l-114 -499h-134l8 48q-10 -8 -27.5 -18.5t-38 -19.5t-42 -15.5t-38.5 -6.5q-78 0 -103 60.5t4 189.5l61 261h134l-61 -261q-15 -68 -14 -100t34 -32q15 0 32.5 6.5t34 16t30 20l22.5 17.5l78 333h134z" />
<glyph unicode="v" horiz-adv-x="484" d="M260 499l-8 -391q11 -2 18.5 8t13.5 26l159 357h142l-187 -397q-28 -60 -71 -82t-94 -20h-100l-6 499h133z" />
<glyph unicode="w" horiz-adv-x="750" d="M253 499l-27 -378q11 -1 20 5.5t18 26.5l111 252q16 37 37.5 61t54.5 24h85l-10 -369q13 1 22.5 8t14.5 24l136 346h137l-161 -386q-21 -51 -61 -81.5t-110 -31.5h-90l13 306l-78 -189q-50 -114 -166 -117h-94l21 499h127z" />
<glyph unicode="x" horiz-adv-x="467" d="M266 499l39 -155l112 155h149l-195 -250l81 -249h-137l-42 154l-109 -154h-149l192 249l-78 250h137z" />
<glyph unicode="y" horiz-adv-x="485" d="M253 499l6 -322q-2 -37 13 -47l176 369h138l-237 -494q-25 -52 -49.5 -88.5t-58 -64t-80 -51t-113.5 -49.5l-8 116q43 19 69.5 31.5t44 26t29.5 31t25 44.5q-73 28 -74 131l-7 367h126z" />
<glyph unicode="z" horiz-adv-x="477" d="M172 500h361q1 -97 -81 -173l-209 -208h202l-26 -119h-361q-1 40 18.5 84t67.5 96l201 201h-201z" />
<glyph unicode="{" horiz-adv-x="339" d="M301 172q-2 -11 -6.5 -26t-9.5 -31l-10 -32t-8 -28q-3 -15 -3 -25t6 -16.5t19 -10t36 -5.5l-30 -132q-111 4 -154 43t-23 129q3 15 8 32t10.5 33.5t10 31.5t6.5 24q4 17 3.5 31.5t-8 26.5t-23.5 22t-43 18l26 112q30 7 50.5 15.5t33 19.5t19.5 24.5t11 30.5q3 10 5.5 26 t5.5 34t6 35.5t6 31.5q11 48 31.5 81t52 53t74 29.5t98.5 11.5l-30 -132q-23 -2 -38 -5t-24 -8.5t-13.5 -15t-8.5 -24.5q-3 -12 -5.5 -29.5t-5.5 -36t-5.5 -35t-5.5 -27.5q-7 -30 -17.5 -51.5t-25.5 -36.5t-36.5 -26t-51.5 -20q51 -18 66 -50t1 -92z" />
<glyph unicode="|" d="M363 750h138l-231 -1000h-138z" />
<glyph unicode="}" horiz-adv-x="339" d="M179 451q2 11 6.5 26t9.5 31l10 32t8 28q3 15 3 25t-6 16.5t-19.5 10t-35.5 5.5l30 132q111 -4 154 -43t23 -129q-3 -15 -8.5 -32t-10.5 -33.5t-9.5 -31.5t-6.5 -24q-4 -17 -3.5 -31.5t8 -26.5t23.5 -22t43 -18l-26 -112q-30 -7 -50.5 -15.5t-33.5 -19.5t-20 -24.5 t-11 -30.5q-2 -11 -4.5 -26.5t-5.5 -33.5t-6 -35.5t-6 -31.5q-11 -48 -31.5 -81t-51.5 -53t-73.5 -29.5t-97.5 -11.5l28 132q23 2 37.5 5t23.5 8.5t14 15t8 24.5q3 12 6 29.5t6 36t5.5 35t5.5 27.5q7 30 17 51.5t25.5 36.5t37 26t51.5 20q-51 18 -66 50t-1 92z" />
<glyph unicode="~" d="M531 263q-19 -16 -39 -27q-18 -10 -40.5 -18t-48.5 -8q-20 0 -43.5 7t-46.5 15t-44 15t-35 7q-18 0 -39 -6t-38 -14q-21 -9 -41 -20l19 126q19 15 42 26q20 10 44.5 18.5t52.5 8.5q19 0 41 -7t44 -15t43 -15t39 -7q14 0 33.5 5.5t36.5 13.5q20 9 41 20z" />
<glyph unicode="&#xa1;" d="M419 333h-144l39 166h144zM298 -201h-148l107 440h138z" />
<glyph unicode="&#xa2;" horiz-adv-x="437" d="M199 29q-84 6 -120.5 58.5t-10.5 162.5q26 109 86.5 161t146.5 59l23 101h112l-24 -106q15 -2 28 -3.5t24 -3.5q12 -2 23 -3l-31 -115q-23 0 -44 1q-18 1 -38 1.5t-34 0.5q-32 0 -54.5 -4t-38.5 -14.5t-26 -28.5t-17 -46q-6 -28 -4.5 -46.5t13 -29t32.5 -14.5t53 -4 q14 0 34 0.5t38 1.5q21 1 44 2l-22 -115q-11 -2 -24 -4q-11 -2 -25.5 -3.5t-30.5 -3.5l-25 -109h-112z" />
<glyph unicode="&#xa3;" d="M589 541q-27 2 -52 4q-21 2 -41.5 3t-28.5 1q-34 0 -51.5 -15.5t-26.5 -54.5l-8 -33h183l-28 -122h-184l-34 -147q-4 -24 -10 -35.5t-12 -17.5h125q21 2 39.5 6t33.5 10l-7 -122q-21 -11 -42.5 -13.5t-42.5 -3.5h-83.5t-90.5 -0.5t-90.5 -0.5h-83.5l27 124h54 q17 1 30.5 13t22.5 43l33 144h-81l28 122h81l9 35q12 55 32.5 93t46.5 61.5t57.5 34t65.5 10.5q22 0 49.5 -4t53.5 -9q29 -5 60 -12z" />
<glyph unicode="&#xa4;" d="M366 75q-45 -20 -90 -20t-80 20l-90 -73l-71 92l90 73q-11 40 -0.5 84.5t39.5 85.5l-56 73l113 92l57 -73q44 19 88.5 19t81.5 -19l89 73l71 -92l-90 -73q10 -41 -0.5 -85.5t-38.5 -84.5l56 -73l-113 -92zM256 199q17 -22 48.5 -22t57.5 22q27 22 34.5 53t-9.5 53t-48 22 t-58 -22t-34.5 -53t9.5 -53z" />
<glyph unicode="&#xa5;" horiz-adv-x="540" d="M137 393h97l-87 267h152l67 -241l178 241h153l-210 -267h94l-26 -112h-148l-4 -8l-8 -32h151l-26 -112h-151l-28 -129h-138l28 129h-155l26 112h155l8 32l-2 8h-152z" />
<glyph unicode="&#xa6;" d="M506 751l-95 -409h-138l95 409h138zM372 172l-97 -422h-138l97 422h138z" />
<glyph unicode="&#xa7;" d="M572 506q-32 4 -61 8q-25 3 -51.5 5.5t-44.5 2.5q-30 0 -49.5 -3.5t-31.5 -11t-19 -20t-11 -30.5q-5 -23 23.5 -35t97.5 -30q41 -11 67.5 -22t40.5 -27.5t16 -40.5t-7 -61q-8 -34 -31 -71.5t-51 -67.5q7 -8 12 -17t7 -21t1 -29t-7 -42q-11 -49 -32 -83.5t-52.5 -56.5 t-74.5 -32.5t-100 -10.5q-26 0 -58 3t-59 8q-33 5 -64 12l38 108q30 -4 59 -8q25 -3 52 -5t48 -2q51 0 78 13t35 44q3 15 -1.5 24.5t-19 17t-40 14.5t-64.5 18q-39 10 -66 22t-42 29.5t-18 42.5t6 62q4 18 14 37.5t23.5 38t28.5 34t29 24.5q-19 16 -24.5 39.5t5.5 68.5 q22 95 87.5 139t171.5 44q26 0 56 -3.5t56 -8.5q30 -5 58 -12zM335 285q-16 5 -33.5 8.5t-31.5 8.5q-8 -9 -18 -28.5t-14 -35.5q-3 -15 -3 -24.5t5.5 -16t16 -11t27.5 -9.5q26 -8 46.5 -15t36.5 -13q10 10 20 32.5t15 40.5q3 12 1.5 21t-9 16.5t-22 13.5t-37.5 12z" />
<glyph unicode="&#xa8;" horiz-adv-x="541" d="M236 738h128l-31 -132h-128zM452 738h128l-31 -132h-128z" />
<glyph unicode="&#xa9;" d="M108 433q13 56 43.5 105t73.5 85t94.5 57t106.5 21q57 0 99.5 -21.5t68 -58.5t32.5 -85t-5 -102q-13 -56 -42.5 -104.5t-72 -84.5t-95 -56.5t-110.5 -20.5q-54 0 -95.5 20.5t-67.5 56.5t-34 84.5t4 103.5zM166 434q-10 -43 -4 -81t26 -66t52.5 -44.5t75.5 -16.5 q44 0 84.5 16.5t73.5 44.5t57 66t34 81t3.5 81.5t-26.5 67t-53 45t-76 16.5t-83.5 -16.5t-73.5 -45t-56.5 -67t-33.5 -81.5zM408 287q-10 -2 -21 -4t-25 -3t-31 -1q-69 0 -89.5 37.5t-0.5 121.5q17 75 54.5 112.5t106.5 37.5q17 0 31 -1t24 -2q11 -2 20 -3l-22 -91 q-9 1 -20 3q-10 1 -23.5 2t-30.5 1q-23 0 -34.5 -18t-16.5 -41q-6 -26 -2.5 -46.5t24.5 -20.5q17 0 30 0.5t24 1.5t22 3z" />
<glyph unicode="&#xaa;" d="M485 462q-2 -11 -0.5 -19t15.5 -11l-22 -73q-9 0 -20.5 1t-22 3t-20 5.5t-13.5 9.5q-16 -6 -34 -10q-15 -4 -32.5 -6.5t-33.5 -2.5q-50 0 -70 26t-8 78q11 44 42.5 69t85.5 27l71 3l1 5q1 2 1.5 6.5t-1 9t-5.5 8t-13 3.5q-13 0 -35.5 -1t-44.5 -2q-26 -1 -54 -2l15 72 q33 3 62 6l50 4t39 2q43 0 62.5 -29.5t8.5 -77.5zM345 495q-28 -1 -35 -32q-4 -18 1.5 -24.5t19.5 -6.5q8 0 19 1t21 3q11 2 24 4l13 57z" />
<glyph unicode="&#xab;" horiz-adv-x="608" d="M234 238l89 -86l-31 -129l-184 171l22 96l261 164l-31 -141zM494 238l89 -86l-31 -129l-184 171l22 96l261 164l-31 -141z" />
<glyph unicode="&#xac;" d="M562 368l-63 -274h-130l33 144h-301l30 130h431z" />
<glyph unicode="&#xad;" horiz-adv-x="440" d="M145 333h300l-29 -126h-300z" />
<glyph unicode="&#xae;" d="M94 434q13 57 43 108t73.5 89t99 60.5t119.5 22.5q63 0 109 -22t73.5 -60t35 -89t-5.5 -109q-13 -57 -44.5 -108t-76.5 -89.5t-101 -61t-119 -22.5q-64 0 -109 22.5t-71 60.5t-33 89.5t7 108.5zM150 434q-11 -46 -3.5 -87t29 -72t57 -49t80.5 -18t88.5 18t79.5 49 t62.5 72t37.5 87q11 48 3.5 89t-30 71.5t-57.5 48t-80 17.5q-46 0 -89.5 -17.5t-79.5 -48t-61.5 -71.5t-36.5 -89zM352 383h-36l-25 -107h-83l73 315h119q58 0 85 -22t14 -78q-9 -38 -23 -59.5t-42 -37.5l22 -118h-90zM329 446h38q40 0 50 40q9 41 -35 41h-34z" />
<glyph unicode="&#xaf;" horiz-adv-x="486" d="M242 738h327l-27 -116h-327z" />
<glyph unicode="&#xb0;" d="M223 564q7 33 24.5 61t41.5 47.5t54.5 30.5t63.5 11q67 0 99 -41.5t17 -108.5q-8 -33 -25.5 -60.5t-41.5 -47t-54.5 -30.5t-63.5 -11q-67 0 -99 41t-16 108zM298 564q-8 -34 7.5 -55t49.5 -21t60.5 21t34.5 55t-9 55.5t-51 21.5t-59 -21.5t-33 -55.5z" />
<glyph unicode="&#xb1;" d="M126 418h166l23 98h136l-23 -98h166l-30 -132h-166l-22 -93h-136l22 93h-166zM533 153l-31 -132h-468l31 132h468z" />
<glyph unicode="&#xb2;" horiz-adv-x="265" d="M123 478l21 90l86 59q30 20 43.5 33t15.5 24q2 9 -6 12t-27 3q-8 0 -21 -1l-26 -2q-15 -2 -31 -3l19 99q22 2 43 4q18 2 39 3.5t38 1.5q63 0 82 -23t6 -77q-8 -34 -26 -56t-53 -44l-44 -28h94l-22 -95h-231z" />
<glyph unicode="&#xb3;" horiz-adv-x="265" d="M205 792l40 4q17 2 36 3.5t34 1.5q121 0 101 -89q-12 -53 -45 -70q15 -8 20.5 -24.5t-2.5 -48.5q-12 -52 -49.5 -77t-92.5 -25q-19 0 -39.5 1t-38.5 3q-21 2 -41 4l28 93q17 -2 34 -3q14 -2 29.5 -2.5t28.5 -0.5q29 0 33 16q2 9 -3.5 11.5t-19.5 2.5h-66l20 85h64 q20 0 23 14q2 9 -5 12t-19 3q-14 0 -28.5 -1t-27.5 -2q-15 -1 -29 -2l15 91v0z" />
<glyph unicode="&#xb4;" horiz-adv-x="588" d="M524 776l14 -127l-279 -78l-14 113z" />
<glyph unicode="&#xb6;" d="M498 597h-48l-136 -597h-113l69 306h-7q-42 0 -73 14.5t-49.5 40.5t-23.5 62t5 79t31.5 79.5t52 62.5t68.5 41t80 15h333l-24 -103h-52l-136 -597h-113z" />
<glyph unicode="&#xb7;" horiz-adv-x="248" d="M130 373h144l-39 -166h-144z" />
<glyph unicode="&#xb8;" horiz-adv-x="833" d="M537 -127q-12 -51 -48 -77.5t-87 -26.5q-33 0 -61 5q-15 3 -29 6l22 78q8 -1 17 -1h30q39 0 44 26q3 13 -4.5 17.5t-27.5 4.5h-24l22 96h53l-9 -38q30 0 52.5 -4t35.5 -13.5t16.5 -27t-2.5 -45.5z" />
<glyph unicode="&#xb9;" horiz-adv-x="265" d="M303 790h96l-72 -312h-106l45 195l-55 -32l-31 74z" />
<glyph unicode="&#xba;" d="M413 672q32 0 56.5 -8t39 -26t18 -47.5t-6.5 -72.5q-20 -86 -67.5 -122.5t-112.5 -36.5q-32 0 -56 9t-37.5 28t-16 49t7.5 73q19 85 64.5 119.5t110.5 34.5zM359 439q29 0 45.5 16t27.5 63q10 42 -0.5 58t-37.5 16t-42.5 -16t-25.5 -58q-11 -47 -2.5 -63t35.5 -16z" />
<glyph unicode="&#xbb;" horiz-adv-x="608" d="M395 338l31 126l185 -164l-22 -96l-263 -171l32 144l129 86zM135 338l31 126l185 -164l-22 -96l-263 -171l32 144l129 86z" />
<glyph unicode="&#xbf;" horiz-adv-x="386" d="M0 -17q12 53 45.5 93t70.5 71.5t67 56t35 47.5l9 38h136q0 -12 -1 -23q-2 -21 -5 -38q-6 -24 -22 -46t-37.5 -42.5t-46 -39t-45 -35.5t-36 -33t-18.5 -31q-5 -18 -6 -32t5.5 -23.5t22 -14t44.5 -4.5q19 0 45 2.5t50 5.5q28 4 57 8l-12 -120q-37 -11 -71 -19 q-29 -8 -61.5 -13.5t-56.5 -5.5q-55 0 -93 10.5t-59 33.5t-25 61t8 93zM384 343h-144l36 156h144z" />
<glyph unicode="&#xc0;" horiz-adv-x="605" d="M636 863l-66 -113l-243 78l73 127zM278 561q65 129 205 129h103l-6 -690h-132l-5 119h-224l-52 -119h-142zM456 570q-14 -1 -28.5 -9t-26.5 -33l-125 -282h171z" />
<glyph unicode="&#xc1;" horiz-adv-x="605" d="M616 966l14 -127l-279 -78l-14 113zM278 561q65 129 205 129h103l-6 -690h-132l-5 119h-224l-52 -119h-142zM456 570q-14 -1 -28.5 -9t-26.5 -33l-125 -282h171z" />
<glyph unicode="&#xc2;" horiz-adv-x="605" d="M451 934h123l97 -149h-150l-31 43l-51 -43h-153zM278 561q65 129 205 129h103l-6 -690h-132l-5 119h-224l-52 -119h-142zM456 570q-14 -1 -28.5 -9t-26.5 -33l-125 -282h171z" />
<glyph unicode="&#xc3;" horiz-adv-x="605" d="M685 838q-20 -18 -41 -32q-18 -12 -39.5 -21.5t-41.5 -9.5t-42 7t-44 15t-41 15t-31 7q-11 0 -26.5 -6t-29.5 -14q-17 -9 -34 -20l-5 101q20 18 41 32q18 12 39 22t41 10q23 0 46.5 -6.5t45 -15t38.5 -15t28 -6.5q10 0 25 5.5t30 13.5q17 9 36 20zM278 561 q65 129 205 129h103l-6 -690h-132l-5 119h-224l-52 -119h-142zM456 570q-14 -1 -28.5 -9t-26.5 -33l-125 -282h171z" />
<glyph unicode="&#xc4;" horiz-adv-x="605" d="M343 926h128l-30 -132h-128zM565 926h128l-30 -132h-128zM278 561q65 129 205 129h103l-6 -690h-132l-5 119h-224l-52 -119h-142zM456 570q-14 -1 -28.5 -9t-26.5 -33l-125 -282h171z" />
<glyph unicode="&#xc5;" horiz-adv-x="605" d="M620 721q-5 -19 -13.5 -34.5t-19.5 -29.5l-7 -657h-133l-5 119h-222l-52 -119h-143l297 659q-5 14 -6 29t4 33q7 30 24.5 53.5t41.5 39.5t53 24.5t60 8.5q30 0 55.5 -8.5t42.5 -24.5t23.5 -39.5t-0.5 -53.5zM277 246h169l9 324h-34zM423 721q-6 -25 22 -31h36q30 6 36 31 q4 15 -6.5 24t-32.5 9t-36.5 -9t-18.5 -24z" />
<glyph unicode="&#xc6;" horiz-adv-x="810" d="M358 119h-153l-52 -119h-138l276 612q19 42 51 59t73 19h503l-30 -128h-293l-37 -162h233l-28 -121h-233l-35 -151h293l-28 -128h-428zM262 246h125l73 317h-57z" />
<glyph unicode="&#xc7;" horiz-adv-x="537" d="M410 -127q-12 -51 -48 -77.5t-87 -26.5q-33 0 -61 5q-15 3 -29 6l22 78q8 -1 17 -1h30q39 0 44 26q3 13 -4.5 17.5t-27.5 4.5h-24l19 85q-63 5 -100 29t-52 68.5t-10.5 108.5t24.5 149q22 97 52.5 165t71 111t93.5 62t121 19q28 0 60.5 -3.5t61.5 -8.5q33 -5 66 -12 l-32 -120q-35 3 -67 6q-27 2 -55 4t-45 2q-36 0 -63.5 -9.5t-49 -35t-39 -69t-33.5 -111.5q-15 -64 -18.5 -107t6 -69.5t33 -37.5t64.5 -11q15 0 43 1.5t56 3.5q33 3 70 6l-26 -123q-31 -4 -63 -8l-58.5 -6.5t-57.5 -4.5l-6 -26q30 0 52.5 -4t35.5 -13.5t16.5 -27 t-2.5 -45.5z" />
<glyph unicode="&#xc8;" horiz-adv-x="553" d="M668 863l-66 -113l-243 78l73 127zM503 0h-207q-47 0 -86 16t-64.5 43.5t-35.5 65.5t1 83q9 38 19.5 63.5t25 42.5t34.5 27.5t48 18.5q-12 12 -22.5 25t-16.5 31t-6 42t9 58q12 47 37 80t59 54t74.5 30.5t83.5 9.5h204l-27 -127h-202q-32 0 -59.5 -17t-38.5 -56 q-10 -41 6 -66t49 -25h147l-29 -119h-150q-17 0 -34.5 -4t-32.5 -12.5t-27 -22.5t-17 -35q-11 -43 9 -61.5t59 -18.5h218z" />
<glyph unicode="&#xc9;" horiz-adv-x="553" d="M631 966l14 -127l-279 -78l-14 113zM503 0h-207q-47 0 -86 16t-64.5 43.5t-35.5 65.5t1 83q9 38 19.5 63.5t25 42.5t34.5 27.5t48 18.5q-12 12 -22.5 25t-16.5 31t-6 42t9 58q12 47 37 80t59 54t74.5 30.5t83.5 9.5h204l-27 -127h-202q-32 0 -59.5 -17t-38.5 -56 q-10 -41 6 -66t49 -25h147l-29 -119h-150q-17 0 -34.5 -4t-32.5 -12.5t-27 -22.5t-17 -35q-11 -43 9 -61.5t59 -18.5h218z" />
<glyph unicode="&#xca;" horiz-adv-x="553" d="M449 937h123l96 -149h-150l-31 43l-51 -43h-153zM503 0h-207q-47 0 -86 16t-64.5 43.5t-35.5 65.5t1 83q9 38 19.5 63.5t25 42.5t34.5 27.5t48 18.5q-12 12 -22.5 25t-16.5 31t-6 42t9 58q12 47 37 80t59 54t74.5 30.5t83.5 9.5h204l-27 -127h-202q-32 0 -59.5 -17 t-38.5 -56q-10 -41 6 -66t49 -25h147l-29 -119h-150q-17 0 -34.5 -4t-32.5 -12.5t-27 -22.5t-17 -35q-11 -43 9 -61.5t59 -18.5h218z" />
<glyph unicode="&#xcb;" horiz-adv-x="553" d="M339 926h128l-30 -132h-128zM561 926h128l-30 -132h-128zM503 0h-207q-47 0 -86 16t-64.5 43.5t-35.5 65.5t1 83q9 38 19.5 63.5t25 42.5t34.5 27.5t48 18.5q-12 12 -22.5 25t-16.5 31t-6 42t9 58q12 47 37 80t59 54t74.5 30.5t83.5 9.5h204l-27 -127h-202 q-32 0 -59.5 -17t-38.5 -56q-10 -41 6 -66t49 -25h147l-29 -119h-150q-17 0 -34.5 -4t-32.5 -12.5t-27 -22.5t-17 -35q-11 -43 9 -61.5t59 -18.5h218z" />
<glyph unicode="&#xcc;" horiz-adv-x="278" d="M228 690h138l-158 -690h-138zM447 863l-66 -113l-242 78l73 127z" />
<glyph unicode="&#xcd;" horiz-adv-x="278" d="M228 690h138l-158 -690h-138zM497 966l14 -127l-279 -78l-14 113z" />
<glyph unicode="&#xce;" horiz-adv-x="278" d="M228 690h138l-158 -690h-138zM290 937h123l96 -149h-150l-31 43l-51 -43h-152z" />
<glyph unicode="&#xcf;" horiz-adv-x="278" d="M228 690h138l-158 -690h-138zM179 938h127l-30 -132h-127zM400 938h128l-30 -132h-128z" />
<glyph unicode="&#xd0;" horiz-adv-x="626" d="M109 409h59l65 281h222q85 0 135.5 -20t73 -60.5t20.5 -103.5t-22 -148q-20 -88 -47 -155t-68 -112t-101.5 -68t-148.5 -23h-222l62 277h-59zM520 358q12 52 16 91t-5 64t-34.5 37.5t-71.5 12.5h-86l-35 -154h125l-31 -132h-125l-34 -150h86q46 0 78 16t53.5 46t36.5 73 t27 96z" />
<glyph unicode="&#xd1;" horiz-adv-x="701" d="M737 837q-20 -18 -41 -32q-18 -12 -39.5 -21.5t-41.5 -9.5t-42.5 7t-44 15t-41 15t-31.5 7q-11 0 -26 -6t-29 -14q-17 -9 -34 -20l-6 101q20 18 41 32q18 12 39.5 22t41.5 10q23 0 46.5 -6.5t44.5 -15t38 -15t28 -6.5q10 0 25 5.5t30 13.5q17 9 36 20zM233 690h100 q26 0 48.5 -6t40.5 -21t29.5 -40.5t15.5 -65.5l39 -387q1 -13 3 -19.5t10 -9.5l127 549h138l-158 -690h-111q-56 2 -83 32.5t-34 84.5l-47 408q-1 15 -3 21t-9 5l-126 -551h-138z" />
<glyph unicode="&#xd2;" horiz-adv-x="644" d="M347 115q38 0 67 13t51 40t38.5 69.5t30.5 102.5q28 119 11.5 177t-92.5 58q-38 0 -67 -14.5t-51.5 -43.5t-39.5 -73t-31 -104t-17 -102.5t6.5 -69.5t32.5 -40t61 -13zM318 -12q-77 0 -124.5 22.5t-70 66.5t-22 110t20.5 153t50.5 154.5t74 113.5t101.5 70t135 24 q76 0 123.5 -24t69.5 -70t21 -113.5t-21 -154.5t-50 -153t-73 -110t-101 -66.5t-134 -22.5zM666 863l-66 -113l-243 78l73 127z" />
<glyph unicode="&#xd3;" horiz-adv-x="644" d="M347 115q38 0 67 13t51 40t38.5 69.5t30.5 102.5q28 119 11.5 177t-92.5 58q-38 0 -67 -14.5t-51.5 -43.5t-39.5 -73t-31 -104t-17 -102.5t6.5 -69.5t32.5 -40t61 -13zM318 -12q-77 0 -124.5 22.5t-70 66.5t-22 110t20.5 153t50.5 154.5t74 113.5t101.5 70t135 24 q76 0 123.5 -24t69.5 -70t21 -113.5t-21 -154.5t-50 -153t-73 -110t-101 -66.5t-134 -22.5zM636 966l14 -127l-279 -78l-14 113z" />
<glyph unicode="&#xd4;" horiz-adv-x="644" d="M347 115q38 0 67 13t51 40t38.5 69.5t30.5 102.5q28 119 11.5 177t-92.5 58q-38 0 -67 -14.5t-51.5 -43.5t-39.5 -73t-31 -104t-17 -102.5t6.5 -69.5t32.5 -40t61 -13zM318 -12q-77 0 -124.5 22.5t-70 66.5t-22 110t20.5 153t50.5 154.5t74 113.5t101.5 70t135 24 q76 0 123.5 -24t69.5 -70t21 -113.5t-21 -154.5t-50 -153t-73 -110t-101 -66.5t-134 -22.5zM481 934h123l97 -149h-150l-31 43l-51 -43h-153z" />
<glyph unicode="&#xd5;" horiz-adv-x="644" d="M347 115q38 0 67 13t51 40t38.5 69.5t30.5 102.5q28 119 11.5 177t-92.5 58q-38 0 -67 -14.5t-51.5 -43.5t-39.5 -73t-31 -104t-17 -102.5t6.5 -69.5t32.5 -40t61 -13zM318 -12q-77 0 -124.5 22.5t-70 66.5t-22 110t20.5 153t50.5 154.5t74 113.5t101.5 70t135 24 q76 0 123.5 -24t69.5 -70t21 -113.5t-21 -154.5t-50 -153t-73 -110t-101 -66.5t-134 -22.5zM706 837q-20 -18 -41 -32q-18 -12 -39.5 -21.5t-41.5 -9.5t-42.5 7t-44 15t-41 15t-31.5 7q-11 0 -26 -6t-29 -14q-17 -9 -34 -20l-6 101q20 18 41 32q18 12 39.5 22t41.5 10 q23 0 46.5 -6.5t44.5 -15t38 -15t28 -6.5q10 0 25 5.5t30 13.5q17 9 36 20z" />
<glyph unicode="&#xd6;" horiz-adv-x="644" d="M347 115q38 0 67 13t51 40t38.5 69.5t30.5 102.5q28 119 11.5 177t-92.5 58q-38 0 -67 -14.5t-51.5 -43.5t-39.5 -73t-31 -104t-17 -102.5t6.5 -69.5t32.5 -40t61 -13zM318 -12q-77 0 -124.5 22.5t-70 66.5t-22 110t20.5 153t50.5 154.5t74 113.5t101.5 70t135 24 q76 0 123.5 -24t69.5 -70t21 -113.5t-21 -154.5t-50 -153t-73 -110t-101 -66.5t-134 -22.5zM359 926h128l-30 -132h-128zM581 926h128l-30 -132h-128z" />
<glyph unicode="&#xd7;" d="M342 364l168 136l71 -93l-167 -137l102 -133l-114 -93l-103 133l-168 -137l-72 94l169 137l-102 133l114 93z" />
<glyph unicode="&#xd8;" horiz-adv-x="656" d="M318 -12q-62 0 -105 15l-87 -125l-69 40l88 127q-39 43 -43 116.5t20 178.5q20 87 50.5 154.5t74 113.5t101.5 70t135 24q63 0 107 -18l86 122l75 -31l-95 -137q37 -45 40.5 -120t-20.5 -178q-20 -87 -50 -153t-73 -110t-101 -66.5t-134 -22.5zM264 340q-23 -98 -16 -148 l259 372q-11 5 -24 8t-30 3q-38 0 -67 -14.5t-51.5 -43.5t-39.5 -73t-31 -104zM347 115q38 0 67 13t51 40t38.5 69.5t30.5 102.5q21 93 17 147l-254 -365q20 -7 50 -7z" />
<glyph unicode="&#xd9;" horiz-adv-x="646" d="M259 230q-14 -61 8 -84.5t83 -23.5t94 24t47 84l106 460h137l-106 -460q-15 -64 -40 -109t-62 -74t-88.5 -42.5t-118.5 -13.5q-68 0 -112.5 13.5t-68.5 42.5t-27.5 74t11.5 109l106 460h137zM659 863l-66 -113l-243 78l73 127z" />
<glyph unicode="&#xda;" horiz-adv-x="646" d="M259 230q-14 -61 8 -84.5t83 -23.5t94 24t47 84l106 460h137l-106 -460q-15 -64 -40 -109t-62 -74t-88.5 -42.5t-118.5 -13.5q-68 0 -112.5 13.5t-68.5 42.5t-27.5 74t11.5 109l106 460h137zM639 966l14 -127l-279 -78l-14 113z" />
<glyph unicode="&#xdb;" horiz-adv-x="646" d="M259 230q-14 -61 8 -84.5t83 -23.5t94 24t47 84l106 460h137l-106 -460q-15 -64 -40 -109t-62 -74t-88.5 -42.5t-118.5 -13.5q-68 0 -112.5 13.5t-68.5 42.5t-27.5 74t11.5 109l106 460h137zM475 934h123l97 -149h-150l-31 43l-51 -43h-153z" />
<glyph unicode="&#xdc;" horiz-adv-x="646" d="M259 230q-14 -61 8 -84.5t83 -23.5t94 24t47 84l106 460h137l-106 -460q-15 -64 -40 -109t-62 -74t-88.5 -42.5t-118.5 -13.5q-68 0 -112.5 13.5t-68.5 42.5t-27.5 74t11.5 109l106 460h137zM361 938h128l-30 -132h-128zM583 938h128l-30 -132h-128z" />
<glyph unicode="&#xdd;" horiz-adv-x="571" d="M355 0h-136l67 295l-113 395h142l60 -250l175 250h164l-292 -395zM669 967l14 -127l-279 -78l-14 113z" />
<glyph unicode="&#xde;" horiz-adv-x="592" d="M366 233q52 0 84.5 29.5t45.5 85.5q12 52 -6.5 82t-70.5 30h-101l-53 -227h101zM235 100l-22 -100h-138l158 690h138l-23 -98h102q121 0 167 -62.5t19 -181.5q-29 -122 -103.5 -185t-195.5 -63h-102z" />
<glyph unicode="&#xdf;" horiz-adv-x="628" d="M67 0l119 522q24 103 91 145.5t183 42.5q120 0 167.5 -34.5t27.5 -120.5q-7 -29 -16.5 -48t-23.5 -32.5t-34.5 -24t-49.5 -22.5q-20 -9 -33 -16t-21 -13t-12 -12.5t-5 -13.5q-2 -6 -0.5 -11.5t10 -11.5t25 -15t45.5 -22q30 -14 48.5 -27.5t27.5 -30.5t9.5 -39t-6.5 -52 q-12 -51 -31 -84.5t-48 -53t-70.5 -27.5t-98.5 -8q-11 0 -33.5 3t-44.5 7q-26 4 -55 11l29 107q29 -1 55 -2q22 -1 41.5 -1.5t26.5 -0.5q24 0 40 1.5t26 6t15 12t8 19.5q4 17 -7.5 32t-58.5 33q-34 13 -55 26.5t-32 30.5t-12 39.5t6 52.5q11 49 36 74t69 44q26 11 42.5 19 t26.5 14.5t14 12t6 13.5q6 26 -15.5 35t-66.5 9q-43 0 -73.5 -15.5t-39.5 -54.5l-118 -519h-134z" />
<glyph unicode="&#xe0;" horiz-adv-x="528" d="M564 683l-66 -113l-243 78l73 127zM473 143q-3 -19 8.5 -29.5t31.5 -14.5l-32 -109q-51 2 -80 12.5t-43 30.5q-25 -16 -57 -29.5t-68 -13.5q-76 0 -107.5 39.5t-31.5 109.5q0 26 4 56t11 60q28 118 93.5 186t172.5 68q29 0 48 -3t35 -8l99 14zM240 104q14 0 30.5 4.5 t32 12t29 16t21.5 16.5l52 238q-18 3 -38 3q-56 0 -89 -41t-51 -116q-7 -30 -11.5 -54.5t-4.5 -41.5q0 -37 29 -37z" />
<glyph unicode="&#xe1;" horiz-adv-x="528" d="M592 776l14 -127l-279 -78l-14 113zM473 143q-3 -19 8.5 -29.5t31.5 -14.5l-32 -109q-51 2 -80 12.5t-43 30.5q-25 -16 -57 -29.5t-68 -13.5q-76 0 -107.5 39.5t-31.5 109.5q0 26 4 56t11 60q28 118 93.5 186t172.5 68q29 0 48 -3t35 -8l99 14zM240 104q14 0 30.5 4.5 t32 12t29 16t21.5 16.5l52 238q-18 3 -38 3q-56 0 -89 -41t-51 -116q-7 -30 -11.5 -54.5t-4.5 -41.5q0 -37 29 -37z" />
<glyph unicode="&#xe2;" horiz-adv-x="528" d="M371 752h108l92 -172h-143l-28 61l-57 -61h-143zM473 143q-3 -19 8.5 -29.5t31.5 -14.5l-32 -109q-51 2 -80 12.5t-43 30.5q-25 -16 -57 -29.5t-68 -13.5q-76 0 -107.5 39.5t-31.5 109.5q0 26 4 56t11 60q28 118 93.5 186t172.5 68q29 0 48 -3t35 -8l99 14zM240 104 q14 0 30.5 4.5t32 12t29 16t21.5 16.5l52 238q-18 3 -38 3q-56 0 -89 -41t-51 -116q-7 -30 -11.5 -54.5t-4.5 -41.5q0 -37 29 -37z" />
<glyph unicode="&#xe3;" horiz-adv-x="528" d="M584 648q-20 -18 -40 -32q-18 -12 -39.5 -21.5t-41.5 -9.5t-39.5 7t-37.5 15t-34 15t-28 7q-11 0 -26.5 -6t-29.5 -14q-17 -9 -34 -20l-5 100q20 18 41 32q18 12 39 22t41 10q23 0 43.5 -6.5t37.5 -15t31 -15t25 -6.5q10 0 25 5.5t30 13.5q17 9 36 20zM473 143 q-3 -19 8.5 -29.5t31.5 -14.5l-32 -109q-51 2 -80 12.5t-43 30.5q-25 -16 -57 -29.5t-68 -13.5q-76 0 -107.5 39.5t-31.5 109.5q0 26 4 56t11 60q28 118 93.5 186t172.5 68q29 0 48 -3t35 -8l99 14zM240 104q14 0 30.5 4.5t32 12t29 16t21.5 16.5l52 238q-18 3 -38 3 q-56 0 -89 -41t-51 -116q-7 -30 -11.5 -54.5t-4.5 -41.5q0 -37 29 -37z" />
<glyph unicode="&#xe4;" horiz-adv-x="528" d="M284 738h128l-31 -132h-128zM500 738h128l-31 -132h-128zM473 143q-3 -19 8.5 -29.5t31.5 -14.5l-32 -109q-51 2 -80 12.5t-43 30.5q-25 -16 -57 -29.5t-68 -13.5q-76 0 -107.5 39.5t-31.5 109.5q0 26 4 56t11 60q28 118 93.5 186t172.5 68q29 0 48 -3t35 -8l99 14z M240 104q14 0 30.5 4.5t32 12t29 16t21.5 16.5l52 238q-18 3 -38 3q-56 0 -89 -41t-51 -116q-7 -30 -11.5 -54.5t-4.5 -41.5q0 -37 29 -37z" />
<glyph unicode="&#xe5;" horiz-adv-x="528" d="M297 658q6 24 19.5 45.5t33 37.5t43 25t48.5 9q24 0 43.5 -9t31.5 -25t16.5 -37.5t-1.5 -45.5q-6 -25 -20 -46.5t-33.5 -37t-43 -24.5t-47.5 -9q-51 0 -76 33t-14 84zM384 658q-3 -14 3.5 -22.5t20.5 -8.5q13 0 23.5 8.5t13.5 22.5q3 13 -3.5 21.5t-19.5 8.5 q-14 0 -24.5 -8.5t-13.5 -21.5zM473 143q-3 -19 8.5 -29.5t31.5 -14.5l-32 -109q-51 2 -80 12.5t-43 30.5q-25 -16 -57 -29.5t-68 -13.5q-76 0 -107.5 39.5t-31.5 109.5q0 26 4 56t11 60q28 118 93.5 186t172.5 68q29 0 48 -3t35 -8l99 14zM240 104q14 0 30.5 4.5t32 12 t29 16t21.5 16.5l52 238q-18 3 -38 3q-56 0 -89 -41t-51 -116q-7 -30 -11.5 -54.5t-4.5 -41.5q0 -37 29 -37z" />
<glyph unicode="&#xe6;" horiz-adv-x="805" d="M586 100q27 0 54.5 6t52 15.5t45.5 21t35 21.5l-21 -103q-7 -8 -25 -20.5t-44.5 -24t-60.5 -20t-72 -8.5q-51 0 -89.5 11.5t-58.5 36.5l-26 -11q-28 -12 -66.5 -24.5t-93.5 -12.5q-57 0 -91 32t-34 88q0 52 17.5 88.5t46 60t65.5 35t75 14.5l110 7l6 28q1 5 1 13 q0 16 -8.5 25.5t-26.5 9.5q-28 0 -62 -2.5t-64 -4.5q-35 -4 -71 -7l22 114q39 6 76 11q32 4 67 7.5t63 3.5q42 0 73.5 -9t48.5 -31q15 10 34 17.5t40.5 12.5t43.5 7.5t42 2.5q30 0 53.5 -11.5t40 -30t25.5 -43t9 -50.5q0 -29 -11 -57.5t-34 -52.5t-59 -41t-86 -23l-116 -8 q-4 -15 -4 -31q0 -29 18 -46t60 -17zM264 100q15 0 32 2t31 5q17 4 32 8l23 99l-87 -4q-26 -2 -45.5 -21t-19.5 -51q0 -18 10 -28t24 -10zM595 299q21 3 37.5 10.5t28 18t17.5 22.5t6 22q0 11 -8 19t-25 8q-28 0 -47.5 -7.5t-33 -21.5t-22 -33.5t-14.5 -42.5z" />
<glyph unicode="&#xe7;" horiz-adv-x="436" d="M407 63q-27 -26 -64 -43.5t-76 -25.5l-5 -31q61 -1 86.5 -24.5t15.5 -65.5q-12 -51 -48 -77.5t-87 -26.5q-33 0 -61 5q-15 3 -29 6l22 78q8 -1 17 -1h30q39 0 44 26q3 13 -4.5 17.5t-27.5 4.5h-24l19 84q-55 1 -84 27.5t-39.5 67t-5 89.5t19.5 94q75 242 269 242 q16 0 34.5 -1.5t36.5 -4.5t34 -7.5t27 -10.5l-31 -113q-7 4 -20 8t-28 7t-31.5 5t-29.5 2q-51 0 -86 -41.5t-58 -116.5q-6 -18 -9.5 -40t-1.5 -41t11 -31.5t29 -12.5q29 0 64 15.5t55 39.5z" />
<glyph unicode="&#xe8;" horiz-adv-x="507" d="M529 683l-66 -113l-243 78l73 127zM447 48q-12 -8 -33 -18t-47 -19t-56 -15t-60 -6q-88 0 -125.5 43t-37.5 119q0 51 14 105q16 64 45 111t65.5 78.5t76.5 47t79 15.5q77 0 120 -35.5t43 -92.5q0 -16 -3.5 -35t-11 -37.5t-20.5 -36t-31 -31.5q-27 -21 -61.5 -34.5 t-69.5 -22t-67.5 -12.5t-56.5 -5q-3 -12 -1.5 -23.5t7.5 -21t18 -15.5t30 -6q19 0 44.5 5.5t51 14.5t48.5 20t39 22v-115zM359 396q-33 0 -69.5 -32t-58.5 -95q28 3 60 8t59 15t45 27t18 44q0 15 -12 24t-42 9z" />
<glyph unicode="&#xe9;" horiz-adv-x="507" d="M549 776l14 -127l-279 -78l-14 113zM447 48q-12 -8 -33 -18t-47 -19t-56 -15t-60 -6q-88 0 -125.5 43t-37.5 119q0 51 14 105q16 64 45 111t65.5 78.5t76.5 47t79 15.5q77 0 120 -35.5t43 -92.5q0 -16 -3.5 -35t-11 -37.5t-20.5 -36t-31 -31.5q-27 -21 -61.5 -34.5 t-69.5 -22t-67.5 -12.5t-56.5 -5q-3 -12 -1.5 -23.5t7.5 -21t18 -15.5t30 -6q19 0 44.5 5.5t51 14.5t48.5 20t39 22v-115zM359 396q-33 0 -69.5 -32t-58.5 -95q28 3 60 8t59 15t45 27t18 44q0 15 -12 24t-42 9z" />
<glyph unicode="&#xea;" horiz-adv-x="507" d="M373 762h108l92 -172h-128l-30 68l-60 -68h-153zM447 48q-12 -8 -33 -18t-47 -19t-56 -15t-60 -6q-88 0 -125.5 43t-37.5 119q0 51 14 105q16 64 45 111t65.5 78.5t76.5 47t79 15.5q77 0 120 -35.5t43 -92.5q0 -16 -3.5 -35t-11 -37.5t-20.5 -36t-31 -31.5 q-27 -21 -61.5 -34.5t-69.5 -22t-67.5 -12.5t-56.5 -5q-3 -12 -1.5 -23.5t7.5 -21t18 -15.5t30 -6q19 0 44.5 5.5t51 14.5t48.5 20t39 22v-115zM359 396q-33 0 -69.5 -32t-58.5 -95q28 3 60 8t59 15t45 27t18 44q0 15 -12 24t-42 9z" />
<glyph unicode="&#xeb;" horiz-adv-x="507" d="M291 738h128l-31 -132h-128zM507 738h128l-31 -132h-128zM447 48q-12 -8 -33 -18t-47 -19t-56 -15t-60 -6q-88 0 -125.5 43t-37.5 119q0 51 14 105q16 64 45 111t65.5 78.5t76.5 47t79 15.5q77 0 120 -35.5t43 -92.5q0 -16 -3.5 -35t-11 -37.5t-20.5 -36t-31 -31.5 q-27 -21 -61.5 -34.5t-69.5 -22t-67.5 -12.5t-56.5 -5q-3 -12 -1.5 -23.5t7.5 -21t18 -15.5t30 -6q19 0 44.5 5.5t51 14.5t48.5 20t39 22v-115zM359 396q-33 0 -69.5 -32t-58.5 -95q28 3 60 8t59 15t45 27t18 44q0 15 -12 24t-42 9z" />
<glyph unicode="&#xec;" horiz-adv-x="268" d="M181 499h134l-114 -499h-134zM391 683l-66 -113l-242 78l73 127z" />
<glyph unicode="&#xed;" horiz-adv-x="261" d="M431 776l14 -127l-279 -78l-13 113zM181 499h134l-114 -499h-134z" />
<glyph unicode="&#xee;" horiz-adv-x="268" d="M181 499h134l-114 -499h-134zM246 752h108l92 -172h-143l-28 61l-57 -61h-142z" />
<glyph unicode="&#xef;" horiz-adv-x="268" d="M153 738h127l-31 -132h-127zM368 738h128l-31 -132h-128zM181 499h134l-114 -499h-134z" />
<glyph unicode="&#xf0;" d="M222 543l48 32l-70 12l44 113q50 -4 93 -10.5t80 -17.5l113 75l36 -76l-56 -38q63 -39 84.5 -108t-3.5 -178q-21 -90 -51 -157t-71 -111.5t-94.5 -66t-121.5 -21.5q-115 0 -160.5 61t-17.5 182q11 47 35.5 85t59 64.5t78 40.5t92.5 14q26 0 48 -3.5t39 -8.5q19 -5 35 -11 q7 50 -10 81t-72 52l-122 -81zM321 321q-20 0 -36.5 -7.5t-30 -19.5t-22.5 -28t-13 -32q-13 -53 0 -86t63 -33q54 0 92.5 44t60.5 139q-13 6 -30 11q-15 5 -36 8.5t-48 3.5z" />
<glyph unicode="&#xf1;" horiz-adv-x="574" d="M82 0l114 499h134l-5 -22q22 9 45 17q20 6 41.5 11.5t39.5 5.5q49 0 77.5 -17.5t41 -50.5t10.5 -79t-15 -103l-59 -261h-134l59 261q6 25 8.5 48t-0.5 41t-13 28.5t-31 10.5q-13 0 -29 -3t-31 -6q-18 -4 -35 -9l-84 -371h-134zM618 648q-20 -18 -40 -32 q-18 -12 -39.5 -21.5t-41.5 -9.5t-39.5 7t-37.5 15t-34 15t-28 7q-11 0 -26.5 -6t-29.5 -14q-17 -9 -34 -20l-5 100q20 18 41 32q18 12 39 22t41 10q23 0 43.5 -6.5t37.5 -15t31 -15t25 -6.5q10 0 25 5.5t30 13.5q17 9 36 20z" />
<glyph unicode="&#xf2;" d="M381 511q65 0 103.5 -20.5t56.5 -56t17.5 -83t-12.5 -101.5t-34 -101.5t-56 -83.5t-82 -56.5t-113 -20.5t-103.5 20.5t-56.5 56.5t-17.5 83.5t12.5 101.5t34 101.5t56 83t82 56t113 20.5zM288 104q28 0 47.5 11.5t34 31t24 46t16.5 57.5t10 57.5t-2.5 46t-20 30.5 t-42.5 11t-48 -11t-34 -30.5t-24 -46t-17 -57.5t-9.5 -57.5t2.5 -46t20 -31t43 -11.5zM513 683l-66 -113l-243 78l73 127z" />
<glyph unicode="&#xf3;" d="M381 511q65 0 103.5 -20.5t56.5 -56t17.5 -83t-12.5 -101.5t-34 -101.5t-56 -83.5t-82 -56.5t-113 -20.5t-103.5 20.5t-56.5 56.5t-17.5 83.5t12.5 101.5t34 101.5t56 83t82 56t113 20.5zM288 104q28 0 47.5 11.5t34 31t24 46t16.5 57.5t10 57.5t-2.5 46t-20 30.5 t-42.5 11t-48 -11t-34 -30.5t-24 -46t-17 -57.5t-9.5 -57.5t2.5 -46t20 -31t43 -11.5zM531 776l14 -127l-279 -78l-14 113z" />
<glyph unicode="&#xf4;" d="M381 511q65 0 103.5 -20.5t56.5 -56t17.5 -83t-12.5 -101.5t-34 -101.5t-56 -83.5t-82 -56.5t-113 -20.5t-103.5 20.5t-56.5 56.5t-17.5 83.5t12.5 101.5t34 101.5t56 83t82 56t113 20.5zM288 104q28 0 47.5 11.5t34 31t24 46t16.5 57.5t10 57.5t-2.5 46t-20 30.5 t-42.5 11t-48 -11t-34 -30.5t-24 -46t-17 -57.5t-9.5 -57.5t2.5 -46t20 -31t43 -11.5zM357 752h108l92 -172h-143l-28 61l-57 -61h-143z" />
<glyph unicode="&#xf5;" d="M381 511q65 0 103.5 -20.5t56.5 -56t17.5 -83t-12.5 -101.5t-34 -101.5t-56 -83.5t-82 -56.5t-113 -20.5t-103.5 20.5t-56.5 56.5t-17.5 83.5t12.5 101.5t34 101.5t56 83t82 56t113 20.5zM288 104q28 0 47.5 11.5t34 31t24 46t16.5 57.5t10 57.5t-2.5 46t-20 30.5 t-42.5 11t-48 -11t-34 -30.5t-24 -46t-17 -57.5t-9.5 -57.5t2.5 -46t20 -31t43 -11.5zM561 648q-20 -18 -40 -32q-18 -12 -39.5 -21.5t-41.5 -9.5t-39.5 7t-37.5 15t-34 15t-28 7q-11 0 -26.5 -6t-29.5 -14q-17 -9 -34 -20l-5 100q20 18 41 32q18 12 39 22t41 10 q23 0 43.5 -6.5t37.5 -15t31 -15t25 -6.5q10 0 25 5.5t30 13.5q17 9 36 20z" />
<glyph unicode="&#xf6;" d="M381 511q65 0 103.5 -20.5t56.5 -56t17.5 -83t-12.5 -101.5t-34 -101.5t-56 -83.5t-82 -56.5t-113 -20.5t-103.5 20.5t-56.5 56.5t-17.5 83.5t12.5 101.5t34 101.5t56 83t82 56t113 20.5zM288 104q28 0 47.5 11.5t34 31t24 46t16.5 57.5t10 57.5t-2.5 46t-20 30.5 t-42.5 11t-48 -11t-34 -30.5t-24 -46t-17 -57.5t-9.5 -57.5t2.5 -46t20 -31t43 -11.5zM263 738h128l-31 -132h-128zM479 738h128l-31 -132h-128z" />
<glyph unicode="&#xf7;" d="M317 525h132l-31 -132h-132zM118 343h446l-31 -134h-446zM232 159h132l-30 -132h-132z" />
<glyph unicode="&#xf8;" d="M61 -78l68 106q-39 35 -44 93t11 129q12 54 34 101.5t56 83t82 56t113 20.5q15 0 29 -1.5t26 -3.5l64 101l74 -30l-66 -102q43 -34 49 -93.5t-11 -131.5q-12 -54 -34 -101.5t-56 -83.5t-82 -56.5t-113 -20.5q-36 0 -63 6l-63 -102zM288 104q28 0 47.5 11.5t34 31t24 46 t16.5 57.5q6 26 9 48.5t1 41.5l-150 -235q5 -1 9 -1h9zM232 250q-6 -26 -9 -48t-1 -41l145 233q-2 1 -5.5 1h-6.5q-28 0 -48 -11t-34 -30.5t-24 -46t-17 -57.5z" />
<glyph unicode="&#xf9;" horiz-adv-x="561" d="M603 499l-114 -499h-134l3 21q-23 -10 -46 -17q-20 -6 -41.5 -11t-38.5 -5q-47 0 -76.5 15t-42.5 46t-11.5 78t16.5 111l61 261h134l-61 -261q-15 -68 -9.5 -100t44.5 -32q12 0 28.5 3t31.5 7q18 4 36 10l86 373h134zM527 683l-66 -113l-243 78l73 127z" />
<glyph unicode="&#xfa;" horiz-adv-x="561" d="M603 499l-114 -499h-134l3 21q-23 -10 -46 -17q-20 -6 -41.5 -11t-38.5 -5q-47 0 -76.5 15t-42.5 46t-11.5 78t16.5 111l61 261h134l-61 -261q-15 -68 -9.5 -100t44.5 -32q12 0 28.5 3t31.5 7q18 4 36 10l86 373h134zM545 776l14 -127l-279 -78l-14 113z" />
<glyph unicode="&#xfb;" horiz-adv-x="561" d="M603 499l-114 -499h-134l3 21q-23 -10 -46 -17q-20 -6 -41.5 -11t-38.5 -5q-47 0 -76.5 15t-42.5 46t-11.5 78t16.5 111l61 261h134l-61 -261q-15 -68 -9.5 -100t44.5 -32q12 0 28.5 3t31.5 7q18 4 36 10l86 373h134zM371 752h108l92 -172h-143l-28 61l-57 -61h-143z" />
<glyph unicode="&#xfc;" horiz-adv-x="561" d="M603 499l-114 -499h-134l3 21q-23 -10 -46 -17q-20 -6 -41.5 -11t-38.5 -5q-47 0 -76.5 15t-42.5 46t-11.5 78t16.5 111l61 261h134l-61 -261q-15 -68 -9.5 -100t44.5 -32q12 0 28.5 3t31.5 7q18 4 36 10l86 373h134zM277 738h128l-31 -132h-128zM493 738h128l-31 -132 h-128z" />
<glyph unicode="&#xfd;" horiz-adv-x="485" d="M253 499l6 -322q-2 -37 13 -47l176 369h138l-237 -494q-25 -52 -49.5 -88.5t-58 -64t-80 -51t-113.5 -49.5l-8 116q43 19 69.5 31.5t44 26t29.5 31t25 44.5q-73 28 -74 131l-7 367h126zM593 776l14 -127l-279 -78l-14 113z" />
<glyph unicode="&#xfe;" horiz-adv-x="546" d="M302 104q52 0 80 39.5t45 111.5q14 60 4 98t-54 38q-13 0 -27 -1t-27 -3l-30 -4l-63 -273q8 -2 19 -3q18 -3 53 -3zM422 511q100 0 136 -60t5 -196q-18 -78 -43.5 -129t-61 -82t-80.5 -43.5t-101 -12.5h-27t-24 1l-24 2l-46 -201h-134l210 910h134l-49 -212q18 6 36 11 q16 5 34 8.5t35 3.5z" />
<glyph unicode="&#xff;" horiz-adv-x="485" d="M253 499l6 -322q-2 -37 13 -47l176 369h138l-237 -494q-25 -52 -49.5 -88.5t-58 -64t-80 -51t-113.5 -49.5l-8 116q43 19 69.5 31.5t44 26t29.5 31t25 44.5q-73 28 -74 131l-7 367h126zM237 738h128l-31 -132h-128zM453 738h128l-31 -132h-128z" />
<glyph unicode="&#x152;" horiz-adv-x="885" d="M409 0q-31 -5 -63 -8.5t-60 -3.5q-71 0 -115.5 23.5t-65 69t-19 112t21.5 152.5q43 187 128.5 272t214.5 85q28 0 57.5 -3.5t56.5 -8.5h428l-30 -128h-292l-37 -162h232l-28 -121h-232l-35 -151h292l-28 -128h-426zM336 117q17 0 44.5 2t53.5 4l102 444q-26 2 -52.5 4 t-45.5 2q-35 0 -63 -11.5t-50.5 -38.5t-41 -70.5t-33.5 -107.5q-14 -60 -17.5 -103.5t6 -71t33 -40.5t64.5 -13z" />
<glyph unicode="&#x153;" horiz-adv-x="817" d="M288 104q28 0 47.5 11.5t34 31t24 46t16.5 57.5t10 57.5t-2.5 46t-20 30.5t-42.5 11t-48 -11t-34 -30.5t-24 -46t-17 -57.5t-9.5 -57.5t2.5 -46t20 -31t43 -11.5zM671 396q-33 0 -69.5 -32t-58.5 -95q28 3 60 8t59 15t45 27t18 44q0 15 -12 24t-42 9zM759 48 q-12 -8 -33 -18t-47 -19t-56 -15t-60 -6q-48 0 -82 15t-48 44q-35 -32 -76.5 -46.5t-95.5 -14.5q-65 0 -103.5 22t-56 58.5t-17 85.5t12.5 103t33.5 100.5t55.5 80.5t82 53.5t113 19.5q57 0 91 -20t54 -48q28 33 72 49.5t82 16.5q77 0 120 -35.5t43 -92.5q0 -16 -3.5 -35 t-11 -37.5t-20.5 -36t-31 -31.5q-27 -21 -61.5 -34.5t-69.5 -22t-67.5 -12.5t-56.5 -5q-3 -12 -1.5 -23.5t7.5 -21t18 -15.5t30 -6q19 0 44.5 5.5t51 14.5t48.5 20t39 22v-115z" />
<glyph unicode="&#x178;" horiz-adv-x="571" d="M355 0h-136l67 295l-113 395h153l60 -250l175 250h153l-292 -395zM332 926h128l-30 -132h-128zM554 926h128l-30 -132h-128z" />
<glyph unicode="&#x2c6;" horiz-adv-x="833" d="M526 752h108l92 -172h-132l-28 61l-57 -61h-154z" />
<glyph unicode="&#x2dc;" horiz-adv-x="469" d="M551 648q-20 -18 -40 -32q-18 -12 -39.5 -21.5t-41.5 -9.5t-39.5 7t-37.5 15t-34 15t-28 7q-11 0 -26.5 -6t-29.5 -14q-17 -9 -34 -20l-5 100q20 18 41 32q18 12 39 22t41 10q23 0 43.5 -6.5t37.5 -15t31 -15t25 -6.5q10 0 25 5.5t30 13.5q17 9 36 20z" />
<glyph unicode="&#x2000;" horiz-adv-x="483" />
<glyph unicode="&#x2001;" horiz-adv-x="967" />
<glyph unicode="&#x2002;" horiz-adv-x="483" />
<glyph unicode="&#x2003;" horiz-adv-x="967" />
<glyph unicode="&#x2004;" horiz-adv-x="322" />
<glyph unicode="&#x2005;" horiz-adv-x="241" />
<glyph unicode="&#x2006;" horiz-adv-x="161" />
<glyph unicode="&#x2007;" horiz-adv-x="161" />
<glyph unicode="&#x2008;" horiz-adv-x="120" />
<glyph unicode="&#x2009;" horiz-adv-x="193" />
<glyph unicode="&#x200a;" horiz-adv-x="53" />
<glyph unicode="&#x2010;" horiz-adv-x="440" d="M145 333h300l-29 -126h-300z" />
<glyph unicode="&#x2011;" horiz-adv-x="440" d="M145 333h300l-29 -126h-300z" />
<glyph unicode="&#x2012;" horiz-adv-x="440" d="M145 333h300l-29 -126h-300z" />
<glyph unicode="&#x2013;" horiz-adv-x="500" d="M576 335l-28 -122h-499l28 122h499z" />
<glyph unicode="&#x2014;" horiz-adv-x="1000" d="M1076 335l-28 -122h-999l28 122h999z" />
<glyph unicode="&#x2018;" horiz-adv-x="224" d="M395 749q-27 -29 -49 -58t-37 -59t-21 -62t0 -68h-136q-3 33 4.5 64.5t23 62.5t38 61t48.5 59h129z" />
<glyph unicode="&#x2019;" horiz-adv-x="224" d="M124 503q27 29 49 58t37 59t21 62t0 68h136q3 -33 -4.5 -65t-23.5 -62.5t-38 -60.5t-48 -59h-129z" />
<glyph unicode="&#x201a;" horiz-adv-x="224" d="M103 160h136l-114 -247h-127z" />
<glyph unicode="&#x201c;" horiz-adv-x="470" d="M628 750q-27 -29 -49 -58t-37 -59t-21 -62t0 -68h-136q-3 33 4.5 64.5t23 62.5t38 61t48.5 59h129zM429 750q-27 -29 -49 -58t-37 -59t-21 -62t0 -68h-136q-3 33 4.5 64.5t23 62.5t38 61t48.5 59h129z" />
<glyph unicode="&#x201d;" horiz-adv-x="465" d="M136 503q27 29 49 58t37 59t21 62t0 68h136q3 -33 -4.5 -65t-23.5 -62.5t-38 -60.5t-48 -59h-129zM335 503q27 29 49 58t37 59t21 62t0 68h136q3 -33 -4.5 -65t-23.5 -62.5t-38 -60.5t-48 -59h-129z" />
<glyph unicode="&#x201e;" horiz-adv-x="465" d="M124 160h136l-114 -247h-129zM324 160h136l-114 -247h-129z" />
<glyph unicode="&#x2022;" d="M231 380h240l-64 -280h-240z" />
<glyph unicode="&#x2026;" horiz-adv-x="744" d="M91 166h144l-37 -166h-144zM346 166h144l-37 -166h-144zM601 166h144l-37 -166h-144z" />
<glyph unicode="&#x202f;" horiz-adv-x="193" />
<glyph unicode="&#x2039;" horiz-adv-x="608" d="M228 240l89 -86l-25 -131l-184 171l22 96l261 164l-37 -139z" />
<glyph unicode="&#x203a;" horiz-adv-x="608" d="M135 341l31 123l185 -164l-22 -96l-263 -171l32 147l129 86z" />
<glyph unicode="&#x205f;" horiz-adv-x="241" />
<glyph unicode="&#x20ac;" horiz-adv-x="593" d="M232 459q22 63 49.5 104t62.5 65.5t79.5 34t101.5 9.5q32 0 63 -3t56 -7q29 -4 55 -9l-34 -113q-28 2 -54 4q-23 2 -49 3t-46 1q-30 0 -52.5 -4t-38.5 -14t-28 -27.5t-21 -44.5h209l-24 -103h-218q-1 -5 -3 -10q-3 -9 -5 -17q-2 -5 -2.5 -11t-1.5 -11l-2 -12h218 l-24 -104h-208q-8 -46 16.5 -62t87.5 -16q19 0 45 0.5t50 2.5q28 1 57 3l-22 -113q-29 -5 -61 -9q-27 -3 -59.5 -5.5t-61.5 -2.5q-59 0 -98.5 14.5t-62.5 41.5t-31.5 64t-4.5 82h-60l24 104h53l2 12q1 5 1.5 11t2.5 11q2 8 5 17q2 5 3 10h-53l24 104h60z" />
<glyph unicode="&#x2122;" d="M154 639h200l-16 -69h-49l-55 -238h-77l55 238h-74zM381 639h92l10 -174l93 174h92l-71 -308h-72l44 191l-85 -172h-51l-7 172l-44 -191h-72z" />
<glyph unicode="&#xe000;" horiz-adv-x="500" d="M0 500h500v-500h-500v500z" />
</font>
</defs>
</svg>
