<?xml version="1.0" standalone="no"?>
<!DOCTYPE svg PUBLIC "-//W3C//DTD SVG 1.1//EN" "http://www.w3.org/Graphics/SVG/1.1/DTD/svg11.dtd" >
<svg xmlns="http://www.w3.org/2000/svg">
<metadata></metadata>
<defs>
<font id="kontrapunktbold" horiz-adv-x="680" >
<font-face units-per-em="1000" ascent="800" descent="-200" />
<missing-glyph horiz-adv-x="223" />
<glyph horiz-adv-x="1000" />
<glyph horiz-adv-x="1000" />
<glyph unicode="&#xd;" horiz-adv-x="1000" />
<glyph unicode=" "  horiz-adv-x="223" />
<glyph unicode="&#x09;" horiz-adv-x="223" />
<glyph unicode="&#xa0;" horiz-adv-x="223" />
<glyph unicode="!" horiz-adv-x="288" d="M87 666h116l-11 -490h-96zM92 0v113h111v-113h-111z" />
<glyph unicode="&#x22;" horiz-adv-x="286" d="M33 665h67l-9 -266h-49zM187 665h66l-9 -266h-48z" />
<glyph unicode="#" d="M67 202l11 73h113l19 117h-113l12 73h113l33 200h80l-33 -200h119l33 200h80l-33 -200h112l-12 -73h-112l-19 -117h113l-12 -73h-113l-34 -202h-79l34 202h-120l-34 -202h-77l32 202h-113zM271 275h118l20 117h-119z" />
<glyph unicode="$" d="M74 475q0 106 53 149.5t172 47.5v100h83v-100q47 -2 93.5 -8t70.5 -11l23 -5l-14 -87q-115 23 -201 23h-9q-31 0 -47.5 -0.5t-42.5 -5.5t-39.5 -14.5t-24.5 -28.5t-11 -47q0 -32 10.5 -51.5t33 -28t46.5 -11t62 -4.5h8q120 -6 159 -18q85 -25 102 -115q5 -26 5 -59 q0 -118 -54.5 -161t-169.5 -46v-104h-83v104q-52 2 -105 8.5t-80 11.5l-26 6l13 88q126 -25 230 -25q31 0 48 0.5t43.5 6t40 15.5t24.5 30.5t11 49.5q0 15 -2 27t-4 21t-8.5 16t-10 12t-15 8.5t-16.5 5.5t-21.5 4t-22.5 2.5t-27 1.5t-29 2q-123 8 -161 20q-82 24 -101 106 q-6 28 -6 64z" />
<glyph unicode="%" horiz-adv-x="920" d="M43 494q0 105 33.5 140.5t136.5 35.5q56 0 89 -8.5t51 -31t23.5 -53t5.5 -83.5q0 -103 -31.5 -139t-136.5 -36t-138 36t-33 139zM128 495q0 -70 13.5 -86.5t72.5 -16.5t71.5 16t12.5 87t-12.5 87t-72.5 16q-58 0 -71.5 -16t-13.5 -87zM163 0l501 665h100l-504 -665h-97z M538 171q0 105 33.5 140.5t136.5 35.5q56 0 89 -8.5t51 -31t23.5 -53t5.5 -83.5q0 -103 -32 -139t-137 -36t-137.5 36t-32.5 139zM622 171q0 -69 13.5 -85.5t72.5 -16.5t72 16t13 86q0 71 -12.5 87.5t-72.5 16.5q-58 0 -72 -16.5t-14 -87.5z" />
<glyph unicode="&#x26;" horiz-adv-x="698" d="M72 191q0 20 2 38.5t4 26.5l3 9l103 59q13 8 13 19q0 12 -13 19l-93 51q-6 27 -6 74q0 103 57.5 144.5t166.5 41.5q49 0 98 -5.5t73 -11.5l25 -6l-15 -82q-87 18 -165 18q-75 0 -104 -19.5t-29 -79.5q0 -62 29.5 -86t100.5 -24h145v98h97v-98h94v-82h-94v-284 q-130 -18 -219 -18q-51 0 -87 3.5t-73.5 15t-60.5 32.5t-37.5 58t-14.5 89zM181 187q0 -30 7 -50t18 -31.5t34 -17t44 -6.5t59 -1q37 0 124 7v207h-153q-77 0 -105 -21t-28 -87z" />
<glyph unicode="'" horiz-adv-x="133" d="M33 665h67l-9 -266h-49z" />
<glyph unicode="(" horiz-adv-x="293" d="M65 9v374q0 88 1 107q6 97 43.5 138t120.5 41q10 0 30 -2v-86q-54 0 -72 -12.5t-19 -64.5q-3 -83 -3 -156v-230q0 -76 3 -156q2 -48 18 -62.5t73 -15.5v-86h-30q-98 0 -131.5 54.5t-33.5 156.5z" />
<glyph unicode=")" horiz-adv-x="293" d="M33 -116q31 1 43.5 2.5t26 9t17.5 23t5 43.5q3 84 3 156v230q0 78 -3 156q-2 48 -18.5 62t-73.5 15v86q20 2 30 2q61 0 96.5 -21t52.5 -69q16 -43 16 -121v-374q0 -88 -1 -107q-5 -97 -42.5 -138t-121.5 -41h-30v86z" />
<glyph unicode="*" horiz-adv-x="440" d="M33 514l25 68l125 -43v126h73v-126l126 43l25 -69l-128 -44l76 -105l-58 -42l-77 108l-82 -108l-59 42l80 105z" />
<glyph unicode="+" d="M106 290v85h188v187h91v-187h189v-85h-189v-188h-91v188h-188z" />
<glyph unicode="," horiz-adv-x="216" d="M42 0v114h127v-114l-53 -135h-71l52 135h-55z" />
<glyph unicode="-" horiz-adv-x="288" d="M33 210v65h222v-65h-222z" />
<glyph unicode="." horiz-adv-x="213" d="M49 0v114h115v-114h-115z" />
<glyph unicode="/" horiz-adv-x="474" d="M-33 -199l382 864h92l-382 -864h-92z" />
<glyph unicode="0" d="M56 332q0 110 10 172t42.5 102.5t85.5 53.5t146 13q65 0 110 -6.5t77 -24.5t50.5 -41.5t29.5 -65.5t14 -87t3 -116q0 -73 -3 -118t-13.5 -87t-29 -64.5t-50.5 -40t-77 -23.5t-110 -6q-66 0 -110.5 6t-77.5 23.5t-51 40t-29 64.5t-14 87.5t-3 117.5zM162 332 q0 -62 1.5 -96.5t8.5 -67t17 -47t31.5 -26t48.5 -14.5t71 -3t72 3t49.5 16t31.5 27t16.5 48t7.5 66.5t1 93.5q0 60 -1.5 95t-8.5 67.5t-17.5 47.5t-32 27t-48.5 15t-70 3q-41 0 -67 -3t-47.5 -14t-32.5 -26.5t-19 -46.5t-10 -68.5t-2 -96.5z" />
<glyph unicode="1" d="M138 577v89h267v-577h137v-89h-385v89h145v488h-164z" />
<glyph unicode="2" d="M80 0v124q0 51 8.5 84.5t32.5 56.5t49.5 36t75.5 32l146 55q55 21 73.5 40t18.5 59q0 58 -27.5 78.5t-119.5 20.5q-52 0 -111 -7t-92 -14l-34 -7l-16 85q121 30 258 30q130 0 189 -38.5t59 -139.5q0 -77 -29 -116t-101 -68q-31 -12 -95 -34.5t-95 -35.5q-53 -22 -71 -43 t-18 -74v-35h419v-89h-520z" />
<glyph unicode="3" d="M83 577v89h472v-114l-183 -151q-7 -6 -7 -14q0 -14 18 -14h21q90 0 141.5 -42.5t51.5 -131.5q0 -65 -23 -108t-66.5 -63.5t-88 -27.5t-105.5 -7q-51 0 -107 6t-87 12l-30 6l12 84q115 -20 214 -20q93 0 134 23t41 89q0 60 -32.5 79.5t-103.5 20.5l-70 1l-42 96l183 154 q11 9 11 17q0 16 -24 16h-330z" />
<glyph unicode="4" d="M61 144v155l299 367h126l-303 -364q-18 -22 -18 -38q0 -31 38 -31h246v223h103v-223h115v-89h-115v-144h-103v144h-388z" />
<glyph unicode="5" d="M84 348v318h474v-89h-382v-170q0 -19 17 -19q8 0 17 6l68 48q35 6 81 6q121 0 179 -49t58 -178q0 -130 -65 -179t-201 -49q-56 0 -116 6.5t-92 12.5l-33 6l13 84q123 -22 221 -22t132.5 29t34.5 111q0 87 -36.5 113.5t-128.5 26.5q-41 0 -86.5 -9t-70.5 -19l-24 -9z" />
<glyph unicode="6" d="M67 332v17q0 56 1 90t12 84.5t32 78.5q30 41 87.5 55.5t154.5 14.5q52 0 108.5 -6.5t87.5 -13.5l30 -6l-14 -83q-113 24 -211 24q-123 0 -151 -39q-5 -6 -9 -13.5t-6.5 -17.5t-4.5 -17.5t-3.5 -20t-2 -19.5t-1 -20.5t-0.5 -18.5v-19.5v-16.5q0 -26 23 -26q10 0 27 11 l68 47q42 8 96 8q124 0 173 -45.5t49 -170.5q0 -68 -15.5 -111.5t-51.5 -66.5t-80.5 -31t-114.5 -8q-75 0 -120 7t-82 28.5t-55 62t-24 106.5q-3 29 -3 136zM173 241q0 -42 2.5 -64.5t11 -44.5t27 -31.5t48.5 -15.5t77 -6q44 0 67 1.5t46 8t32.5 21t15.5 38t6 61.5 q0 32 -3 53t-12 36t-18.5 22.5t-32 11.5t-42 5t-56.5 1q-88 0 -169 -24v-73z" />
<glyph unicode="7" d="M71 576v90h535l3 -84q2 -74 -23 -126.5t-101 -116.5q-6 -5 -27 -22t-25 -20.5t-19.5 -17.5t-18 -18.5t-13 -17t-12 -20.5t-7 -21.5t-6.5 -27t-2.5 -30.5t-1.5 -38v-106h-102v115q0 50 9.5 91t19.5 64.5t36.5 52t37.5 37.5t46 36q4 4 19 15.5t20 15.5t16.5 14.5t16.5 17 t12.5 17.5t11 20t6 21.5t2.5 25.5v33h-433z" />
<glyph unicode="8" d="M68 167q0 20 5 45t9 40l5 16l106 55q10 4 10 14t-15 16q-31 13 -45 20.5t-32.5 24.5t-26 43t-7.5 65q0 42 13.5 72.5t35.5 48.5t57.5 28.5t71.5 14t85 3.5q51 0 85.5 -2.5t71 -11.5t57.5 -25.5t35 -46t14 -71.5q0 -20 -4 -42t-8 -34l-4 -13l-107 -55q-10 -6 -10 -14 q0 -10 15 -16q29 -12 47.5 -23t39 -30t30.5 -48t10 -68q0 -100 -63 -140t-210 -40q-53 0 -89.5 3t-73.5 13.5t-59 29t-35.5 51t-13.5 77.5zM174 188q0 -67 32 -87.5t134 -20.5q74 0 115 13q30 9 40.5 28t10.5 50q0 40 -17.5 63.5t-56.5 43.5q-54 25 -156 45q-46 -17 -74 -53 t-28 -82zM181 506q0 -49 46.5 -80.5t169.5 -53.5q44 15 72.5 51.5t28.5 82.5q0 43 -33 61.5t-125 18.5q-93 0 -126 -18.5t-33 -61.5z" />
<glyph unicode="9" d="M67 455q0 68 15.5 111.5t51.5 66.5t80.5 31t114.5 8q75 0 120 -7t82 -28.5t55 -62t24 -106.5q3 -29 3 -137v-24v-28t-0.5 -27.5t-1.5 -30.5t-2.5 -28.5t-3.5 -30.5t-5.5 -27t-8 -28t-10.5 -23t-13 -22q-30 -41 -87.5 -55.5t-154.5 -14.5q-52 0 -108.5 6.5t-87.5 13.5 l-30 6l14 83q113 -24 211 -24q123 0 151 39q5 6 9 13.5t6.5 17.5t4.5 17.5t3.5 20t2 19.5t1 20.5t0.5 18.5v19.5v16.5q0 26 -23 26q-10 0 -27 -11l-68 -47q-42 -8 -96 -8q-124 0 -173 45.5t-49 170.5zM174 455q0 -32 3 -53t12 -36t18.5 -22.5t32 -11.5t42 -5t56.5 -1 q88 0 169 24v73q0 42 -2.5 64.5t-11 44.5t-27 31.5t-48.5 15.5t-77 6q-44 0 -67 -1.5t-46 -8t-32.5 -21t-15.5 -38t-6 -61.5z" />
<glyph unicode=":" horiz-adv-x="213" d="M49 0v114h115v-114h-115zM49 342v114h115v-114h-115z" />
<glyph unicode=";" horiz-adv-x="216" d="M42 0v114h127v-114l-53 -135h-71l52 135h-55zM49 342v114h115v-114h-115z" />
<glyph unicode="&#x3c;" d="M105 296v73l469 200v-92l-352 -145l352 -145v-92z" />
<glyph unicode="=" d="M106 217v81h467v-81h-467zM106 366v81h467v-81h-467z" />
<glyph unicode="&#x3e;" d="M105 95v92l352 145l-352 145v92l469 -200v-74z" />
<glyph unicode="?" horiz-adv-x="556" d="M49 646q100 27 219 27q57 0 94 -6.5t70 -25t48.5 -56.5t15.5 -97q0 -32 -1 -49t-4.5 -40t-11.5 -36t-22 -28.5t-36.5 -26.5t-53.5 -21q-59 -19 -70.5 -28.5t-11.5 -40.5v-35h-104v35q0 66 27 93t110 56q56 20 67 38t11 83q0 62 -29 80.5t-99 18.5q-106 0 -204 -22zM170 0 v118h123v-118h-123z" />
<glyph unicode="@" horiz-adv-x="805" d="M58 333q0 75 6.5 127t24 91t42.5 62t68 37t93.5 18.5t125.5 4.5q84 0 137.5 -8t95 -28.5t63 -60t31.5 -97.5t10 -146q0 -35 -5 -67.5t-17.5 -65.5t-39 -53t-64.5 -20q-29 0 -47.5 8t-23.5 17.5t-11.5 17.5t-14.5 8t-20 -12l-31 -32q-35 -7 -70 -7q-59 0 -94 11t-52.5 39 t-22.5 61t-5 91q0 46 3 74.5t13.5 55.5t29.5 41t51 22.5t79 8.5q39 0 76 -3.5t55 -6.5l18 -3v-256v-9v-10t0.5 -9.5t1 -10t2 -8.5t3.5 -8.5t5 -6.5t7 -5.5t9.5 -3t12.5 -1.5q54 0 54 143q0 99 -9.5 146t-39.5 74q-7 7 -16 12.5t-20 9.5t-19.5 7t-23 5t-21.5 3t-24 1.5 t-21.5 0.5h-23.5h-20h-21h-25t-24 -0.5t-27 -1.5t-25 -3t-26.5 -5t-22.5 -7t-22 -9.5t-17 -12.5q-30 -28 -41.5 -76.5t-11.5 -143.5t11.5 -143.5t41.5 -76.5q43 -39 187 -39q56 0 105.5 3t70.5 5l22 3l7 -78q-86 -14 -182 -14q-91 0 -147.5 7.5t-101.5 27.5t-67.5 59.5 t-33.5 97.5t-11 148zM338 330v-7q0 -33 0.5 -48t4 -34t11.5 -25.5t22.5 -12t36.5 -5.5q16 0 27.5 5t16.5 10.5t8 19t3 20v23.5v183q-23 4 -49 4q-53 0 -67 -28.5t-14 -104.5z" />
<glyph unicode="A" horiz-adv-x="773" d="M0 0v68l46 10q17 4 25 23l199 464q8 20 -11 23l-53 9v69h268l225 -565q6 -13 11.5 -17t20.5 -7l42 -9v-68h-229v68l36 8q16 4 16 12q0 5 -4 16l-34 88h-347l-36 -90q-4 -9 -4 -14q0 -10 17 -13l35 -7v-68h-223zM244 274h282l-116 294q-4 9 -6 13t-6.5 7t-11.5 3 q-10 0 -14.5 -5t-9.5 -18z" />
<glyph unicode="B" horiz-adv-x="740" d="M64 0v68l52 10q14 4 14 18v474q0 14 -14 18l-52 10v68h417q99 0 144.5 -44.5t45.5 -141.5q0 -19 -2 -37t-4 -27l-2 -9l-96 -53q-9 -4 -9 -12t9 -12l105 -58q13 -31 13 -81q0 -98 -46 -144.5t-146 -46.5h-429zM234 88h217q68 0 97 20.5t29 82.5t-29 82.5t-97 20.5h-217 v-206zM234 379h209q65 0 93 20t28 80t-26.5 79.5t-91.5 19.5h-212v-199z" />
<glyph unicode="C" horiz-adv-x="670" d="M60 333q0 106 15.5 172t55 104t96 51.5t148.5 13.5q57 0 118 -7t94 -15l33 -7l-14 -89q-115 24 -219 24q-52 0 -86 -4t-59.5 -16t-39.5 -27.5t-22.5 -46.5t-10.5 -64.5t-2 -88.5q0 -53 2.5 -86t10.5 -64t22 -47.5t38.5 -29.5t59 -17.5t84.5 -4.5q46 0 101.5 6t88.5 12 l32 5l14 -85q-117 -29 -245 -29q-92 0 -148.5 13.5t-96 51.5t-55 103.5t-15.5 171.5z" />
<glyph unicode="D" horiz-adv-x="789" d="M64 0v68l52 10q14 4 14 18v474q0 14 -14 18l-52 10v68h378q78 0 132.5 -17t84.5 -43t46 -72.5t20 -89t4 -110.5q0 -56 -3 -93t-12 -79t-28 -68.5t-50 -49.5t-79.5 -33.5t-114.5 -10.5h-378zM234 88h206q33 0 59.5 4t45 14t32 20t22 29.5t13.5 34t7 42.5t2.5 47t0.5 54 q0 40 -0.5 61.5t-4 52t-10.5 46.5t-20 35t-32.5 28t-48 15.5t-66.5 6.5h-206v-490z" />
<glyph unicode="E" horiz-adv-x="650" d="M64 0v68l52 10q14 4 14 18v474q0 14 -14 18l-52 10v68h537v-89h-367v-192h355v-87h-355v-209h367v-89h-537z" />
<glyph unicode="F" horiz-adv-x="603" d="M64 0v68l52 10q14 4 14 18v474q0 14 -14 18l-52 10v68h516v-89h-346v-197h334v-89h-334v-195q0 -14 14 -18l51 -10v-68h-235z" />
<glyph unicode="G" horiz-adv-x="715" d="M60 332q0 108 15.5 174t55.5 103t95.5 50t148.5 13q57 0 120.5 -8t98.5 -16l36 -9l-13 -89q-141 27 -250 27q-63 0 -96.5 -6.5t-59.5 -32t-35 -73.5t-9 -133q0 -88 7 -135.5t31.5 -74t57 -33t97.5 -6.5q105 0 184 19v260h105v-362h-82l-7 42q-10 20 -23 22q-9 0 -27 -12 l-83 -54q-46 -5 -74 -5q-90 0 -142.5 13t-88.5 51t-49 102.5t-13 172.5z" />
<glyph unicode="H" horiz-adv-x="846" d="M64 0v68l52 10q14 4 14 18v474q0 14 -14 18l-52 10v68h235v-68l-51 -10q-14 -4 -14 -18v-189h379v189q0 14 -14 18l-52 10v68h235v-68l-51 -10q-14 -4 -14 -18v-474q0 -14 14 -18l51 -10v-68h-235v68l52 10q14 4 14 18v203h-379v-203q0 -14 14 -18l51 -10v-68h-235z" />
<glyph unicode="I" horiz-adv-x="363" d="M64 0v68l52 10q14 4 14 18v474q0 14 -14 18l-52 10v68h235v-68l-51 -10q-14 -4 -14 -18v-474q0 -14 14 -18l51 -10v-68h-235z" />
<glyph unicode="J" horiz-adv-x="469" d="M18 6l9 80q58 -10 116 -10q62 0 79 21t17 86v387q0 15 -13 18l-52 10v68h235v-68l-52 -10q-14 -4 -14 -18v-412q0 -99 -44.5 -133t-136.5 -34q-32 0 -68 3.5t-56 7.5z" />
<glyph unicode="K" horiz-adv-x="724" d="M64 0v68l52 10q14 4 14 18v474q0 14 -14 18l-52 10v68h235v-68l-51 -10q-14 -4 -14 -18v-168q0 -37 32 -37q20 0 44 24l180 178q6 6 6 13q0 12 -16 14l-28 4v68h236v-68l-51 -14q-23 -6 -36 -19l-232 -227l251 -235q16 -16 23 -19.5t25 -7.5l36 -7v-69h-247v68l29 5 q19 4 19 16q0 8 -8 14l-187 175q-28 24 -44 24q-32 0 -32 -37v-169q0 -14 14 -18l51 -10v-68h-235z" />
<glyph unicode="L" horiz-adv-x="584" d="M64 0v68l52 10q14 4 14 18v474q0 14 -14 18l-52 10v68h235v-68l-51 -10q-14 -4 -14 -18v-480h332v-90h-502z" />
<glyph unicode="M" horiz-adv-x="979" d="M64 0v68l52 10q14 4 14 18v474q0 14 -14 18l-52 10v68h272l141 -343q5 -7 10 -7q7 0 9 7l139 343h280v-68l-52 -10q-14 -4 -14 -18v-474q0 -14 14 -18l52 -10v-68h-236v68l52 10q14 4 14 18v466q0 27 -21 27q-11 0 -15.5 -5t-10.5 -18l-147 -342h-131l-151 346 q-9 19 -23 19q-13 0 -17 -6.5t-4 -20.5v-466q0 -14 14 -18l51 -10v-68h-226z" />
<glyph unicode="N" horiz-adv-x="874" d="M64 0v68l52 10q14 4 14 18v474q0 14 -14 18l-52 10v68h274l266 -562q9 -19 23 -19q21 0 21 28v457q0 14 -14 18l-52 10v68h228v-68l-52 -10q-14 -4 -14 -18v-570h-206l-268 570q-8 19 -23 19q-13 0 -17 -6.5t-4 -20.5v-466q0 -14 14 -18l51 -10v-68h-227z" />
<glyph unicode="O" horiz-adv-x="709" d="M60 332q0 76 4 125t16.5 90t31.5 63t54 37.5t79 20.5t110 5q59 0 100.5 -5t74 -15t53.5 -30t34.5 -43.5t20 -63t9 -80.5t2.5 -104q0 -74 -3 -119.5t-14 -87.5t-30 -64t-52.5 -39t-79.5 -23t-114 -6t-114.5 6t-80.5 23.5t-53 40t-30 64t-14.5 87.5t-3.5 118zM167 332 q0 -60 1.5 -94.5t9 -66.5t18.5 -46.5t33.5 -26t51.5 -14.5t75 -3q35 0 59.5 1.5t45 8t33 13t22.5 23t14.5 31t7.5 45t3.5 56.5t0.5 73q0 64 -1 92.5t-6.5 65t-16.5 49t-32.5 27t-52 17.5t-78.5 3q-46 0 -73 -2.5t-50.5 -13t-34.5 -25t-18.5 -46t-9.5 -68.5t-2 -99z" />
<glyph unicode="P" horiz-adv-x="724" d="M64 0v68l52 10q14 4 14 18v474q0 14 -14 18l-52 10v68h416q194 0 194 -205v-29.5t-2 -32t-5 -35t-10 -33.5t-16 -33t-24 -27.5t-33.5 -23t-44.5 -14t-57 -5.5h-55l-76 2l-68 47q-17 11 -27 11q-15 0 -19 -7t-4 -20v-165q0 -14 15 -18l51 -10v-68h-235zM234 325 q53 -11 182 -11q45 0 68.5 3t45 16.5t29.5 41t8 75.5q0 76 -31 102t-100 26h-202v-253z" />
<glyph unicode="Q" horiz-adv-x="746" d="M60 339q0 76 4 124.5t16.5 88.5t31.5 61.5t54 36t78.5 19t110.5 4.5q69 0 114.5 -5.5t79.5 -22t53 -38t30 -63t14 -86.5t3 -119q0 -32 -2 -65.5t-4 -51.5l-2 -18l-77 -74q-14 -14 -14 -24q0 -5 1.5 -9t4.5 -6.5t6 -4t8.5 -2.5t8 -1t9 -0.5t7.5 -0.5l136 -7v-75h-375 q-68 0 -114.5 6t-80.5 23.5t-53 40t-30 64t-14.5 87.5t-3.5 118zM166 338q0 -63 1.5 -98t9 -67.5t18 -46t34 -24.5t51.5 -13.5t76 -2.5q49 0 77 2t51.5 14t33.5 24.5t16.5 47t7.5 66.5t1 98q0 68 -0.5 96t-6.5 64.5t-16 47t-33 23.5t-52.5 14.5t-79.5 1.5q-37 0 -57.5 -0.5 t-44 -4.5t-34 -9.5t-23 -19.5t-16.5 -29.5t-8.5 -44t-5 -60t-0.5 -79.5z" />
<glyph unicode="R" horiz-adv-x="755" d="M64 0v68l52 10q14 4 14 18v474q0 14 -14 18l-52 10v68h404q115 0 160.5 -41.5t45.5 -145.5q0 -85 -42 -131q-35 -39 -103 -46q-9 -1 -13.5 -2.5t-8.5 -5.5t-4 -12q0 -7 9 -20l108 -159q12 -18 46 -26l39 -9v-68h-147l-125 188v103h-199v-195q0 -14 14 -18l51 -10v-68 h-235zM234 378h199q87 0 114 24q19 19 19 76t-19 76q-26 24 -114 24h-199v-200z" />
<glyph unicode="S" horiz-adv-x="650" d="M60 475q0 113 61 155.5t199 42.5q55 0 114 -6.5t90 -12.5l31 -6l-14 -87q-117 23 -204 23h-9q-31 0 -47.5 -0.5t-42.5 -5.5t-39.5 -14.5t-24.5 -28.5t-11 -47q0 -27 8.5 -45.5t16 -28t32.5 -15t36 -6.5t48 -2q12 -1 19 -1q120 -6 156 -15q84 -23 104 -104q8 -30 8 -70 q0 -66 -17.5 -108.5t-54.5 -63.5t-80 -28.5t-108 -7.5q-62 0 -126 6.5t-97 13.5l-34 7l12 88q129 -25 233 -25q31 0 48 0.5t43.5 6t40 15.5t24.5 30.5t11 49.5q0 17 -1.5 30.5t-6.5 23.5t-8 17t-13.5 12t-16 8t-22 5t-24 2.5t-31 1.5t-33.5 2q-123 8 -159 18 q-83 23 -103 101q-8 29 -8 69z" />
<glyph unicode="T" horiz-adv-x="612" d="M5 576v90h602v-90h-249v-480q0 -14 14 -18l52 -10v-68h-236v68l52 10q14 4 14 18v480h-249z" />
<glyph unicode="U" horiz-adv-x="833" d="M68 598v68h235v-68l-51 -10q-14 -4 -14 -18v-324q0 -105 29 -135t132 -30q51 0 101.5 5.5t75.5 11.5l25 6v466q0 14 -14 18l-52 10v68h235v-68l-51 -10q-14 -4 -14 -18v-474q0 -14 14 -18l51 -10v-68h-157l-7 42q-10 20 -23 22q-9 0 -27 -12l-83 -54q-55 -5 -83 -5 q-154 0 -205 50t-51 190v337q0 14 -14 18z" />
<glyph unicode="V" horiz-adv-x="767" d="M21 597v69h236v-69l-41 -8q-16 -4 -11 -21l149 -454q6 -18 12 -25t20 -7t20 7t12 25l145 454q5 17 -11 21l-41 8v69h235v-69l-47 -11q-12 -3 -17 -8t-10 -17l-198 -561h-182l-196 561q-5 12 -10 17t-17 8z" />
<glyph unicode="W" horiz-adv-x="1197" d="M26 597v69h238v-68l-43 -9q-15 -3 -10 -24l110 -451q4 -17 11 -24.5t21 -7.5t21 7.5t11 24.5l114 552h196l123 -552q6 -32 31 -32q15 0 21.5 7.5t10.5 24.5l106 451q3 21 -12 24l-43 9v68h239v-69l-47 -11q-13 -3 -18 -7.5t-9 -16.5l-149 -562h-203l-129 578 q-4 18 -19 18q-14 0 -18 -17l-126 -579h-204l-148 562q-3 12 -8 16.5t-18 7.5z" />
<glyph unicode="X" horiz-adv-x="747" d="M25 0v68l57 14q15 3 24 17l168 253l-151 216q-10 13 -24 16l-58 13v69h245v-69l-45 -11q-13 -3 -5 -16l102 -150q8 -13 11.5 -17t10 -7.5t17.5 -3.5q15 0 21.5 5t17.5 23l102 149q7 13 -5 16l-46 12v69h241v-69l-57 -12q-14 -3 -24 -16l-154 -218l169 -253q8 -12 23 -17 l57 -13v-68h-247v68l44 10q12 3 12 11q0 5 -4 12l-114 178q-8 12 -11 16t-10 7.5t-18 3.5t-18 -3.5t-10 -7.5t-11 -16l-114 -178q-4 -7 -4 -12q0 -8 12 -11l41 -10v-68h-245z" />
<glyph unicode="Y" d="M24 598v68h228v-68l-48 -10q-15 -4 -15 -18v-165q0 -77 28.5 -98.5t121.5 -21.5q36 0 72 4.5t55 8.5l18 4v268q0 14 -14 18l-48 10v68h229v-68l-50 -10q-14 -4 -14 -18v-369q0 -57 -8 -91t-34 -63t-80 -41.5t-142 -12.5q-52 0 -102.5 5t-74.5 10l-25 6l12 80 q84 -18 186 -18q50 0 81 5.5t49 13t26.5 27.5t10 36.5t1.5 52.5v26q0 29 -24 29q-11 0 -26 -11l-70 -49q-30 -5 -67 -5q-124 0 -168 43.5t-44 152.5v173q0 14 -14 18z" />
<glyph unicode="Z" horiz-adv-x="657" d="M55 578v88h509v-190l-383 -316q-19 -16 -19 -33q0 -35 48 -35h382v-92h-532v184l383 323q1 1 3.5 3t4 3t3.5 3l3.5 3.5t3 3.5t2.5 3.5t2 4t1.5 4.5t1 4.5t0.5 5.5q0 20 -11 26.5t-33 6.5h-369z" />
<glyph unicode="[" horiz-adv-x="286" d="M65 -199v864h188v-81h-91v-703h91v-80h-188z" />
<glyph unicode="\" horiz-adv-x="474" d="M33 665h92l382 -864h-92z" />
<glyph unicode="]" horiz-adv-x="286" d="M33 -119h92v703h-92v81h188v-864h-188v80z" />
<glyph unicode="^" horiz-adv-x="511" d="M33 366l177 300h90l178 -300h-78l-146 248l-144 -248h-77z" />
<glyph unicode="_" horiz-adv-x="498" d="M0 -67h498v-63h-498v63z" />
<glyph unicode="`" horiz-adv-x="261" d="M33 603l50 60l145 -97l-34 -48z" />
<glyph unicode="a" horiz-adv-x="598" d="M46 143q0 83 35 114.5t130 32.5l195 2v20q0 51 -31.5 66t-100.5 15q-42 0 -88.5 -5.5t-71.5 -11.5l-26 -5l-14 75q90 25 215 25q113 0 164.5 -28.5t51.5 -117.5v-236q0 -10 2.5 -13.5t11.5 -4.5l43 -9v-62h-137l-4 31q-3 19 -20 19q-10 0 -26 -10l-62 -43q-43 -4 -76 -4 q-111 0 -151 31t-40 119zM147 143q0 -48 20.5 -60t79.5 -12q32 0 72 4.5t63 8.5l24 5v132l-153 -3h-20h-18.5t-15.5 -1t-14 -2t-11 -3.5t-10 -6.5t-7 -9.5t-5.5 -13t-3 -17.5t-1.5 -22z" />
<glyph unicode="b" horiz-adv-x="579" d="M28 604v62h155v-228q0 -22 19 -22q8 0 20 8l59 41q28 6 53 6q115 0 155 -52.5t40 -184.5q0 -71 -9.5 -114t-36 -73t-72.5 -42t-121 -12q-112 0 -205 28v556q0 10 -2.5 13.5t-11.5 4.5zM185 84q53 -12 121 -12q76 0 99 30.5t23 131.5q0 96 -23 127.5t-96 31.5 q-27 0 -58 -4.5t-49 -8.5l-17 -4v-292z" />
<glyph unicode="c" horiz-adv-x="507" d="M50 232q0 141 50 190t179 49q40 0 84.5 -4.5t68.5 -9.5l25 -5l-12 -75q-68 13 -141 13q-99 0 -126 -28.5t-27 -129.5t27 -130.5t126 -29.5q32 0 67.5 3.5t54.5 6.5l19 4l12 -73q-67 -20 -178 -20q-129 0 -179 49t-50 190z" />
<glyph unicode="d" horiz-adv-x="583" d="M50 232q0 115 39 177t146 62q91 0 160 -16v122q0 10 -2.5 13.5t-11.5 4.5l-44 9v62h157v-577q0 -10 2.5 -13.5t11.5 -4.5l44 -9v-62h-136l-5 33q-3 19 -20 19q-10 0 -26 -10l-64 -44q-29 -5 -74 -5q-55 0 -91.5 16.5t-54.5 51t-24.5 74t-6.5 97.5zM151 232 q0 -97 23 -128.5t97 -31.5q26 0 57 4t49 8l18 5v294q-110 10 -124 10q-74 0 -97 -32t-23 -129z" />
<glyph unicode="e" horiz-adv-x="563" d="M50 232q0 97 25 153q23 49 73.5 67.5t137.5 18.5q132 0 179.5 -41.5t47.5 -162.5q0 -17 -3 -66q-3 0 -65 -4t-107 -4q-32 0 -58 1.5t-36 3.5l-11 1l-43 30q-11 8 -20 8q-19 0 -19 -22v-21q0 -58 27 -89q31 -33 130 -33q59 0 165 19l13 -72q-81 -26 -188 -26 q-65 0 -106.5 9t-76 33.5t-50 73t-15.5 123.5zM152 274q27 -4 60.5 -5.5t53.5 -0.5h19q73 -2 126 3q0 81 -23 102.5t-97 21.5q-40 0 -64 -4t-39 -9.5t-22 -22.5t-9.5 -33t-4.5 -52z" />
<glyph unicode="f" horiz-adv-x="349" d="M15 390v75h88v61q0 47 8.5 78t36.5 51q29 21 104 21q25 0 53 -3t43 -6l16 -3l-10 -71q-43 8 -83 8q-44 0 -56.5 -13t-12.5 -57v-66h147v-75h-147v-301q0 -10 2.5 -13.5t11.5 -4.5l45 -9v-62h-215v62l44 9q8 2 11 5t3 13v301h-89z" />
<glyph unicode="g" horiz-adv-x="571" d="M57 303q0 51 8.5 81.5t32.5 51.5t66 28.5t111 6.5l282 -2v-62l-113 -5q-17 0 -17 -15q0 -6 9 -15l56 -57q2 -17 2 -24q0 -93 -47 -124t-177 -31q-33 0 -60.5 3t-38.5 7l-11 3q-5 -20 -5 -39q0 -26 13 -33t67 -7h131q99 0 134 -26t35 -107q0 -55 -19.5 -82.5t-75.5 -40.5 t-168 -13q-48 0 -98 4.5t-76 8.5l-26 4l8 78l6 -1q7 -1 18.5 -2t26 -3t32.5 -3.5t36 -2.5t37 -2t35 -1q88 0 124 8q24 5 33.5 14.5t9.5 32.5q0 28 -9.5 37.5t-35.5 12.5q-14 1 -45 1h-145h-8q-30 0 -47 1.5t-40.5 8.5t-35 25t-11.5 47q0 3 0.5 9.5t0.5 8.5l52 54q7 7 7 14 t-10 15q-31 19 -42.5 45t-11.5 88zM159 302q0 -66 22 -81.5t94 -15.5t95 16.5t23 82.5q0 53 -9 95q-65 2 -109 2q-72 0 -94 -17t-22 -82z" />
<glyph unicode="h" horiz-adv-x="626" d="M39 0v62l44 9q8 2 11 5t3 13v488q0 10 -3 13t-11 5l-44 9v62h157v-228q0 -22 18 -22q9 0 21 8l58 41q29 6 53 6q109 0 146.5 -36t37.5 -142v-204q0 -10 2.5 -13.5t11.5 -4.5l43 -9v-62h-214v62l44 9q8 2 11 5t3 13v196q0 69 -20.5 88t-91.5 19q-54 0 -123 -12v-291 q0 -10 2.5 -13.5t11.5 -4.5l43 -9v-62h-214z" />
<glyph unicode="i" horiz-adv-x="307" d="M49 0v62l44 9q8 2 11 5t3 13v287q0 10 -3 13t-11 5l-44 9v62h157v-376q0 -10 2.5 -13.5t11.5 -4.5l43 -9v-62h-214zM85 550v116h121v-116h-121z" />
<glyph unicode="j" horiz-adv-x="267" d="M-39 -189l8 73q34 -4 57 -4q39 0 50.5 10.5t11.5 45.5v440q0 10 -2.5 13.5t-11.5 4.5l-44 9v62h157v-560q0 -102 -129 -102q-22 0 -46.5 2t-37.5 4zM66 550v116h121v-116h-121z" />
<glyph unicode="k" horiz-adv-x="566" d="M39 0v62l44 9q8 2 11 5t3 13v488q0 10 -3 13t-11 5l-44 9v62h157v-373q0 -27 25 -27q16 0 34 18l176 181h104v-62l-47 -9q-15 -3 -21 -9l-136 -138l145 -161q9 -10 22 -13l48 -11v-62h-127l-164 202q-14 19 -34 19q-25 0 -25 -27v-105q0 -10 2.5 -13.5t11.5 -4.5l43 -9 v-62h-214z" />
<glyph unicode="l" horiz-adv-x="297" d="M39 0v62l44 9q8 2 11 5t3 13v488q0 10 -3 13t-11 5l-44 9v62h157v-577q0 -10 2.5 -13.5t11.5 -4.5l43 -9v-62h-214z" />
<glyph unicode="m" horiz-adv-x="948" d="M49 0v62l44 9q8 2 11 5t3 13v287q0 10 -3 13t-11 5l-44 9v62h134l4 -33q3 -19 20 -19q10 0 26 10l63 44q44 4 66 4q48 0 76.5 -9t60.5 -38q13 -10 19 -9.5t18 9.5l64 44q35 3 67 3q109 0 147 -36.5t38 -141.5v-204q0 -10 2.5 -13.5t11.5 -4.5l43 -9v-62h-214v62l44 9 q8 2 11 5t3 13v195q0 69 -20.5 88t-91.5 19q-75 0 -123 -10q12 -27 12 -61v-231q0 -10 2.5 -13.5t11.5 -4.5l43 -9v-62h-214v62l44 9q8 2 11 5t3 13v196q0 69 -20.5 88t-90.5 19q-56 0 -114 -11v-292q0 -10 2.5 -13.5t11.5 -4.5l43 -9v-62h-214z" />
<glyph unicode="n" horiz-adv-x="636" d="M49 0v62l44 9q8 2 11 5t3 13v287q0 10 -3 13t-11 5l-44 9v62h134l4 -33q3 -19 20 -19q10 0 26 10l63 44q41 4 59 4q109 0 147 -36.5t38 -141.5v-204q0 -10 2.5 -13.5t11.5 -4.5l43 -9v-62h-214v62l44 9q8 2 11 5t3 13v196q0 69 -20.5 88t-91.5 19q-54 0 -123 -12v-291 q0 -10 2.5 -13.5t11.5 -4.5l43 -9v-62h-214z" />
<glyph unicode="o" horiz-adv-x="558" d="M50 232q0 78 8 121t34 71.5t68.5 37.5t118.5 9q51 0 85 -4t61 -14.5t42 -26.5t25 -44.5t13 -63t3 -86.5t-3 -86.5t-13 -63t-25 -44.5t-42 -26.5t-61 -14.5t-85 -4q-76 0 -118.5 9t-68.5 37.5t-34 71.5t-8 121zM151 232q0 -110 20.5 -136.5t107.5 -26.5q47 0 70 4 t37.5 23.5t17.5 47.5t3 88t-3 88t-17.5 47.5t-37.5 23.5t-70 4q-87 0 -107.5 -26.5t-20.5 -136.5z" />
<glyph unicode="p" horiz-adv-x="591" d="M39 -137l44 9q8 2 11 5t3 13v486q0 10 -3 13t-11 5l-44 9v62h134l4 -33q3 -19 20 -19q10 0 26 10l63 45q35 3 60 3q115 0 155 -52.5t40 -184.5q0 -134 -44 -187.5t-172 -53.5q-29 0 -61.5 4.5t-49.5 8.5l-18 5v-121q0 -10 2.5 -13.5t11.5 -4.5l43 -9v-62h-214v62zM196 82 q53 -10 121 -10q76 0 99.5 30t23.5 131q0 97 -23 128t-97 31q-27 0 -58 -3t-48 -7l-18 -3v-297z" />
<glyph unicode="q" horiz-adv-x="579" d="M50 232q0 124 42 181.5t161 57.5q45 0 105.5 -6.5t97.5 -12.5l38 -6v-556q0 -10 2.5 -13.5t11.5 -4.5l44 -9v-62h-157v228q0 22 -19 22q-8 0 -20 -8l-59 -41q-44 -9 -68 -9q-47 0 -80.5 12.5t-52.5 32.5t-29.5 53t-13.5 64.5t-3 76.5zM151 230q0 -97 23 -128t97 -31 q26 0 57 3.5t49 6.5l18 3v298q-54 10 -122 10q-76 0 -99 -30.5t-23 -131.5z" />
<glyph unicode="r" horiz-adv-x="431" d="M49 0v62l44 9q8 2 11 5t3 13v287q0 10 -3 13t-11 5l-44 9v62h128l6 -41q3 -19 20 -19q10 0 26 10l72 51q29 5 72 5l58 -4l-7 -91q-45 4 -78 4q-37 0 -72 -2t-52 -4l-17 -3v-282q0 -10 3 -13t12 -5l43 -9v-62h-214z" />
<glyph unicode="s" horiz-adv-x="545" d="M56 328q0 84 50 113.5t165 29.5q45 0 93 -5.5t74 -10.5l25 -5l-11 -76q-91 17 -179 17q-72 0 -96.5 -11t-24.5 -49q0 -12 3 -21t10.5 -14t15 -8.5t22.5 -5t25.5 -1.5t31.5 -0.5t34 -1.5q45 -1 68.5 -3.5t52.5 -10t42.5 -21.5t23.5 -39.5t10 -63.5q0 -83 -53.5 -115.5 t-157.5 -32.5q-56 0 -111.5 5t-82.5 10l-27 5l12 81q106 -21 198 -21q66 0 95 14.5t29 47.5q0 13 -2 21.5t-8.5 14.5t-12.5 9t-19 4.5t-23.5 2l-31.5 1.5t-36 2q-98 5 -125 13q-69 20 -77 97q-2 13 -2 28z" />
<glyph unicode="t" horiz-adv-x="379" d="M6 390v75h93v124h99v-124h138v-75h-138v-255q0 -41 11 -53.5t52 -12.5l66 8l9 -67q-47 -14 -100 -14q-86 0 -111.5 33.5t-25.5 120.5v240h-93z" />
<glyph unicode="u" horiz-adv-x="628" d="M44 403v62h157v-286q0 -69 20 -88t91 -19q45 0 117 12v292q0 10 -3 13t-11 5l-44 9v62h157v-376q0 -10 2.5 -13.5t11.5 -4.5l43 -9v-62h-135l-5 33q-3 19 -20 19q-10 0 -26 -10l-62 -44q-33 -4 -51 -4q-109 0 -146.5 36t-37.5 142v204q0 10 -3 13t-11 5z" />
<glyph unicode="v" horiz-adv-x="562" d="M10 403v62h191v-62l-27 -6q-17 -3 -11 -20l88 -275q6 -19 12 -27t18 -8q9 0 15 5t8 10.5t7 19.5l85 275q5 17 -10 21l-28 5v62h194v-62l-31 -6q-17 -3 -22 -18l-130 -379h-178l-127 379q-5 14 -21 17z" />
<glyph unicode="w" horiz-adv-x="882" d="M13 403v62h197v-62l-30 -7q-15 -2 -11 -20l59 -274q8 -35 29 -35q13 0 19.5 8.5t10.5 26.5l73 354h175l67 -354q6 -35 31 -35q22 0 28 35l55 275q4 18 -10 20l-32 6v62h195v-62l-31 -6q-11 -2 -15.5 -5.5t-6.5 -12.5l-95 -379h-189l-78 390q-2 7 -8 7q-5 0 -7 -7 l-85 -390h-188l-99 379q-4 14 -21 17z" />
<glyph unicode="x" horiz-adv-x="589" d="M25 0v62l48 11q10 3 21 18l99 150l-92 136q-11 15 -21 17l-45 9v62h199v-62l-23 -5q-22 -5 -10 -23l63 -95q14 -21 28 -21q13 0 26 19l64 94q5 7 5 13q0 12 -15 14l-22 4v62h200v-62l-44 -8q-10 -2 -13.5 -5.5t-10.5 -13.5l-90 -134l106 -154q10 -15 28 -18l38 -8v-62 h-205v62l21 4q16 5 16 14q0 6 -5 14l-72 107q-11 16 -27 16q-15 0 -26 -16l-71 -109q-5 -8 -5 -13q0 -10 13 -12l24 -5v-62h-202z" />
<glyph unicode="y" horiz-adv-x="594" d="M30 403v62h214v-62l-44 -9q-8 -2 -11 -5t-3 -13v-199q0 -69 20.5 -87t91.5 -18q28 0 100 12v292q0 10 -3 13t-11 5l-44 9v62h214v-62l-43 -9q-9 -1 -11.5 -4.5t-2.5 -13.5v-350q0 -137 -45.5 -181t-177.5 -44q-35 0 -75 4.5t-63 8.5l-23 4l10 74q74 -15 148 -15 q83 0 107 23t24 102v22q0 22 -19 22q-7 0 -21 -8l-58 -41q-27 -4 -52 -4q-91 0 -127.5 40t-36.5 141v202q0 10 -3 13t-11 5z" />
<glyph unicode="z" horiz-adv-x="491" d="M40 389v76h393v-148l-283 -207q-12 -9 -12 -18q0 -17 25 -17l288 3v-78h-403v144l285 214q9 8 9 16q0 17 -24 17z" />
<glyph unicode="{" horiz-adv-x="303" d="M38 196v73q32 9 43 25t11 54v159q0 75 21 111q27 47 102 47h55v-79q-53 0 -70.5 -14.5t-17.5 -66.5v-160q0 -80 -46 -113q46 -32 46 -111v-162q0 -50 18 -67q13 -13 50 -13h20v-78h-55q-74 0 -102 46q-21 36 -21 111v160q0 36 -11 52t-43 26z" />
<glyph unicode="|" horiz-adv-x="196" d="M64 -166v831h68v-831h-68z" />
<glyph unicode="}" horiz-adv-x="303" d="M33 -121q53 0 70.5 14.5t17.5 66.5v161q0 79 46 112q-46 33 -46 112v161q0 52 -17 67q-15 13 -51 13h-20v79h55q33 0 61 -12.5t41 -34.5q21 -36 21 -111v-159q0 -37 11 -53t43 -26v-73q-32 -10 -43 -25.5t-11 -52.5v-160q0 -76 -21 -111q-12 -22 -40.5 -34t-61.5 -12h-55 v78z" />
<glyph unicode="~" horiz-adv-x="545" d="M33 609q31 62 61.5 87.5t74.5 25.5q37 0 111 -35q70 -33 99 -33q28 0 48 15t43 55l42 -25q-27 -54 -56 -78q-39 -32 -83 -32q-36 0 -123 40q-61 28 -86 28q-27 0 -47.5 -17t-42.5 -58z" />
<glyph unicode="&#xa1;" horiz-adv-x="288" d="M87 -1l9 490h96l11 -490h-116zM92 552v113h111v-113h-111z" />
<glyph unicode="&#xa2;" d="M135 232q0 132 44 182.5t153 55.5v92h71v-92q33 -2 68.5 -6.5t54.5 -7.5l19 -4l-12 -73q-71 13 -144 13q-99 0 -126.5 -29t-27.5 -131q0 -101 27.5 -130.5t126.5 -29.5q32 0 68 3.5t56 6.5l20 4l12 -73q-54 -15 -142 -19v-92h-71v91q-109 5 -153 56t-44 183z" />
<glyph unicode="&#xa3;" d="M60 261v87h85v136q0 33 1.5 51.5t12 43.5t31.5 44q56 50 183 50q51 0 107.5 -6.5t87.5 -12.5l31 -6l-12 -83q-105 21 -186 21h-7q-33 0 -51 -1.5t-43 -8t-37 -23.5t-13 -44v-161h208v-87h-208v-83q0 -62 -25 -93l395 4v-89h-535v79q38 11 49 32.5t11 92.5v57h-85z" />
<glyph unicode="&#xa4;" d="M24 222v85h72v56h-72v85h78q16 135 84.5 180.5t224.5 45.5q57 0 118 -7t94 -15l33 -7l-15 -88q-118 24 -222 24q-112 0 -156 -28.5t-55 -104.5h250v-85h-255v-56h255v-85h-250q10 -79 54 -107.5t157 -28.5q46 0 101.5 6t87.5 12l33 5l15 -87q-117 -29 -245 -29 q-157 0 -225.5 46t-84.5 183h-77z" />
<glyph unicode="&#xa5;" d="M69 604v62h209v-62l-37 -6q-18 -3 -12 -20l80 -202q6 -14 8.5 -19t8.5 -10.5t15 -5.5q13 0 19 8t13 27l80 202q8 17 -11 20l-37 6v62h206v-62l-36 -7q-15 -3 -22 -18l-52 -117h93v-81h-137l-27 -63h124v-81h-170v-148q0 -10 2.5 -13.5t11.5 -4.5l43 -9v-62h-206v62l44 9 q9 1 11.5 4.5t2.5 13.5v148h-166v81h121l-27 63h-134v81h90l-51 119q-8 15 -24 18z" />
<glyph unicode="&#xa6;" horiz-adv-x="196" d="M64 153h68v-319h-68v319zM64 334v331h68v-331h-68z" />
<glyph unicode="&#xa7;" d="M113 264q0 28 11 49.5t31.5 34.5t33.5 18.5t34 11.5l-38 19q-39 19 -50.5 45t-11.5 77q0 41 11 70t28.5 45t46.5 25t56 11.5t66 2.5q42 0 93 -5.5t80 -11.5l30 -6l-11 -74q-112 20 -193 20q-27 0 -41.5 -1.5t-31 -8.5t-23.5 -23t-7 -42q0 -46 13 -60q16 -16 92 -44 l160 -56q26 -9 42.5 -23.5t23 -36t8 -37.5t1.5 -44t-11 -49.5t-31.5 -34.5t-33.5 -18.5t-34 -11.5l38 -19q39 -19 50.5 -44.5t11.5 -75.5q0 -49 -15.5 -82t-46.5 -49t-64.5 -21.5t-81.5 -5.5t-99 5.5t-78 10.5l-27 5l10 78q97 -20 194 -20q22 0 33.5 0.5t27.5 4.5t23.5 11.5 t13.5 22t6 36.5q0 46 -13 60q-16 16 -92 44l-160 57q-35 12 -52.5 36.5t-20 45t-2.5 58.5zM217 270q0 -32 6.5 -46t30.5 -23l145 -53q37 0 50 13.5t13 50.5q0 34 -5.5 46.5t-30.5 21.5l-145 53q-37 0 -50.5 -13t-13.5 -50z" />
<glyph unicode="&#xa8;" horiz-adv-x="337" d="M33 534v87h101v-87h-101zM203 534v87h101v-87h-101z" />
<glyph unicode="&#xa9;" horiz-adv-x="797" d="M40 334q0 76 5 126t20.5 91t38.5 63t65.5 37t95.5 19.5t133 4.5t133 -4.5t95.5 -19.5t66 -37t39 -63t20.5 -91t5 -126t-5 -126t-20.5 -91t-39 -63t-66 -37t-95.5 -19.5t-133 -4.5t-133 4.5t-95.5 19.5t-65.5 37t-38.5 63t-20.5 91t-5 126zM101 334q0 -72 3 -114.5 t16 -77.5t29 -50.5t55 -26.5t79.5 -13t114.5 -2q75 0 115.5 2t79 13t54.5 26.5t29.5 50.5t16 77.5t2.5 114.5t-2.5 114.5t-16 77.5t-29.5 50.5t-54.5 26.5t-79 13t-115.5 2q-56 0 -89.5 -1t-68.5 -6t-53 -12t-36.5 -23t-26 -34.5t-14 -50.5t-8 -67.5t-1.5 -89.5zM222 336 q0 121 39.5 161t144.5 40q36 0 74 -4.5t58 -9.5l20 -5l-9 -65q-69 14 -132 14q-38 0 -56 -3t-34 -16t-21 -39t-5 -73t5 -73t21 -39t34 -16t56 -3q28 0 61 3.5t52 7.5l19 3l9 -65q-72 -19 -152 -19q-105 0 -144.5 40t-39.5 161z" />
<glyph unicode="&#xaa;" horiz-adv-x="360" d="M33 312v40h295v-40h-295zM40 483q0 47 20 64t76 18l111 2v30q0 26 -17 33t-54 7q-56 0 -112 -13l-6 35q84 14 118 14q57 0 87.5 -14.5t30.5 -63.5v-146q0 -9 8 -10l22 -5v-31h-76l-2 14q-2 9 -9 9q-5 0 -12 -5l-27 -18q-24 -4 -48 -4q-62 0 -86 17.5t-24 66.5zM89 481 q0 -32 14 -40t56 -8q19 0 35.5 2t33 6t19.5 4v88l-87 -1q-6 0 -23.5 -0.5t-21.5 -2t-13 -6t-11 -15t-2 -27.5z" />
<glyph unicode="&#xab;" horiz-adv-x="430" d="M33 256l124 258l70 -41l-102 -217l114 -217l-68 -45zM191 256l123 258l71 -41l-103 -217l115 -217l-69 -45z" />
<glyph unicode="&#xac;" horiz-adv-x="498" d="M33 202v64h432v-266h-68v202h-364z" />
<glyph unicode="&#xad;" horiz-adv-x="288" d="M33 210v65h222v-65h-222z" />
<glyph unicode="&#xae;" horiz-adv-x="797" d="M40 334q0 76 5 126t20.5 91t38.5 63t65.5 37t95.5 19.5t133 4.5t133 -4.5t95.5 -19.5t66 -37t39 -63t20.5 -91t5 -126t-5 -126t-20.5 -91t-39 -63t-66 -37t-95.5 -19.5t-133 -4.5t-133 4.5t-95.5 19.5t-65.5 37t-38.5 63t-20.5 91t-5 126zM101 334q0 -72 3 -114.5 t16 -77.5t29 -50.5t55 -26.5t79.5 -13t114.5 -2q75 0 115.5 2t79 13t54.5 26.5t29.5 50.5t16 77.5t2.5 114.5t-2.5 114.5t-16 77.5t-29.5 50.5t-54.5 26.5t-79 13t-115.5 2q-56 0 -89.5 -1t-68.5 -6t-53 -12t-36.5 -23t-26 -34.5t-14 -50.5t-8 -67.5t-1.5 -89.5zM210 139v51 l35 7q5 0 5 7v263q0 6 -5 8l-35 7v51h231q75 0 105 -25t30 -86q0 -51 -21 -74q-20 -22 -63 -29q-15 -2 -15 -12q0 -4 5 -12l60 -86q7 -10 22 -13l28 -6v-51h-100l-79 121v51h-86v-107q0 -7 5 -7l35 -7v-51h-157zM327 371h105q36 0 50.5 9t14.5 41t-14.5 41.5t-50.5 9.5h-105 v-101z" />
<glyph unicode="&#xaf;" horiz-adv-x="327" d="M33 551v55h261v-55h-261z" />
<glyph unicode="&#xb0;" horiz-adv-x="368" d="M33 532q0 62 44.5 106.5t106.5 44.5t106.5 -44.5t44.5 -106.5t-44.5 -106.5t-106.5 -44.5t-106.5 44.5t-44.5 106.5zM91 532q0 -39 27 -66t66 -27t66.5 27t27.5 66t-27.5 66.5t-66.5 27.5t-66 -27.5t-27 -66.5z" />
<glyph unicode="&#xb1;" d="M105 0v86h469v-86h-469zM105 321v87h189v189h91v-189h188v-87h-188v-190h-91v190h-189z" />
<glyph unicode="&#xb2;" horiz-adv-x="469" d="M74 653q86 20 163 20q38 0 63 -3.5t50.5 -15t38 -36.5t12.5 -63q0 -27 -8 -46.5t-26.5 -33.5t-33.5 -21t-45 -19q-10 -4 -25.5 -10t-23.5 -9t-19.5 -7.5t-17 -8t-13.5 -8t-11.5 -8.5t-7 -9t-5 -11t-1.5 -13v-21h242v-70h-324v83q0 54 25 82t75 49l93 38q21 8 32 18t11 29 q0 28 -18.5 35.5t-56.5 7.5q-36 0 -75.5 -4t-61.5 -8l-21 -5z" />
<glyph unicode="&#xb3;" horiz-adv-x="469" d="M75 598v68h295v-78l-111 -90q-5 -3 -5 -9q2 -9 13 -9h19q60 0 91 -23.5t31 -81.5q0 -40 -15.5 -66.5t-44.5 -38.5t-57.5 -16t-67.5 -4q-32 0 -67.5 3.5t-55.5 6.5l-20 4l8 66q63 -12 130 -12q57 0 82.5 12t25.5 47q0 29 -19 40t-65 12h-53l-26 63l106 87q6 5 6 10 q0 10 -15 10z" />
<glyph unicode="&#xb4;" horiz-adv-x="261" d="M33 566l147 97l49 -60l-159 -85z" />
<glyph unicode="&#xb6;" horiz-adv-x="589" d="M35 452q0 173 105 205q27 8 118 8h267v-864h-90v778h-50v-778h-91v445h-24q-27 0 -73 2q-91 4 -126.5 57t-35.5 147z" />
<glyph unicode="&#xb7;" horiz-adv-x="272" d="M78 286v93h116v-93h-116z" />
<glyph unicode="&#xb8;" horiz-adv-x="228" d="M0 -171l18 49q43 -14 64 -14q59 0 59 30q0 20 -34 20q-25 0 -50 -10l-18 33l34 63h80l-35 -38q7 1 26 1q34 0 55 -20t21 -49q0 -83 -115 -83q-58 0 -105 18z" />
<glyph unicode="&#xb9;" horiz-adv-x="461" d="M117 596v70h170v-341h72v-70h-231v70h77v271h-88z" />
<glyph unicode="&#xba;" horiz-adv-x="360" d="M33 312v40h295v-40h-295zM47 536q0 84 27 110.5t107 26.5q82 0 107.5 -27.5t25.5 -109.5t-26 -109.5t-107 -27.5t-107.5 27.5t-26.5 109.5zM94 536q0 -68 14.5 -86t72.5 -18t72 18t14 86q0 69 -13.5 87t-72.5 18q-56 0 -71.5 -18t-15.5 -87z" />
<glyph unicode="&#xbb;" horiz-adv-x="429" d="M33 39l114 217l-103 217l72 41l123 -258l-138 -262zM191 39l112 217l-103 217l73 41l124 -258l-140 -262z" />
<glyph unicode="&#xbc;" horiz-adv-x="1009" d="M86 596v70h170v-341h72v-70h-231v70h77v271h-88zM213 0l431 666h73l-432 -666h-72zM536 84v117l171 211h94l-180 -219q-11 -13 -11 -22q0 -18 23 -18h144v124h80v-124h68v-69h-68v-84h-80v84h-241z" />
<glyph unicode="&#xbd;" horiz-adv-x="1022" d="M86 596v70h170v-341h72v-70h-231v70h77v271h-88zM213 0l431 666h73l-432 -666h-72zM583 393q86 20 163 20q38 0 63 -3.5t50.5 -15t38 -36.5t12.5 -63q0 -22 -6.5 -40t-14.5 -28.5t-26 -21.5t-29.5 -15.5t-36.5 -14.5q-10 -4 -25.5 -10t-23.5 -9t-19.5 -7.5t-17 -8 t-13.5 -8t-11.5 -8.5t-7 -9t-5 -11t-1.5 -13v-21h242v-70h-324v82q0 55 25 83t75 48l93 38q22 9 32.5 19t10.5 28q0 20 -11.5 30t-25 12t-38.5 2q-36 0 -75.5 -4t-60.5 -8l-22 -5z" />
<glyph unicode="&#xbe;" horiz-adv-x="1027" d="M75 598v68h295v-78l-111 -90q-5 -3 -5 -9q2 -9 13 -9h19q60 0 91 -23t31 -81q0 -40 -15.5 -66.5t-44.5 -38.5t-57.5 -16.5t-67.5 -4.5q-32 0 -67.5 3.5t-55.5 6.5l-20 4l8 66q63 -12 130 -12q57 0 82.5 12t25.5 47q0 29 -19 40t-65 12h-53l-26 63l106 87q6 5 6 10 q0 10 -15 10zM267 0l431 666h73l-432 -666h-72zM591 84v117l170 211h94l-180 -219q-11 -13 -11 -22q0 -18 23 -18h144v124h80v-124h68v-69h-68v-84h-80v84h-240z" />
<glyph unicode="&#xbf;" horiz-adv-x="556" d="M60 185q0 32 1 49t4.5 40t11.5 36t22 28.5t36.5 26.5t53.5 21q59 19 70.5 28.5t11.5 40.5v35h104v-35q0 -66 -27 -93t-110 -56q-56 -20 -67 -38t-11 -83q0 -62 29 -80.5t99 -18.5q106 0 204 22l15 -81q-100 -27 -219 -27q-57 0 -94 6.5t-70 25t-48.5 56.5t-15.5 97z M263 555v118h123v-118h-123z" />
<glyph unicode="&#xc0;" horiz-adv-x="773" d="M0 0v68l46 10q17 4 25 23l199 464q8 20 -11 23l-53 9v69h268l225 -565q6 -13 11.5 -17t20.5 -7l42 -9v-68h-229v68l36 8q16 4 16 12q0 5 -4 16l-34 88h-347l-36 -90q-4 -9 -4 -14q0 -10 17 -13l35 -7v-68h-223zM244 274h282l-116 294q-4 9 -6 13t-6.5 7t-11.5 3 q-10 0 -14.5 -5t-9.5 -18zM267 797l50 60l145 -97l-34 -48z" />
<glyph unicode="&#xc1;" horiz-adv-x="773" d="M0 0v68l46 10q17 4 25 23l199 464q8 20 -11 23l-53 9v69h268l225 -565q6 -13 11.5 -17t20.5 -7l42 -9v-68h-229v68l36 8q16 4 16 12q0 5 -4 16l-34 88h-347l-36 -90q-4 -9 -4 -14q0 -10 17 -13l35 -7v-68h-223zM244 274h282l-116 294q-4 9 -6 13t-6.5 7t-11.5 3 q-10 0 -14.5 -5t-9.5 -18zM291 760l147 97l49 -60l-159 -85z" />
<glyph unicode="&#xc2;" horiz-adv-x="773" d="M0 0v68l46 10q17 4 25 23l199 464q8 20 -11 23l-53 9v69h268l225 -565q6 -13 11.5 -17t20.5 -7l42 -9v-68h-229v68l36 8q16 4 16 12q0 5 -4 16l-34 88h-347l-36 -90q-4 -9 -4 -14q0 -10 17 -13l35 -7v-68h-223zM240 757l141 98l140 -98l-41 -46l-99 63l-98 -63zM244 274 h282l-116 294q-4 9 -6 13t-6.5 7t-11.5 3q-10 0 -14.5 -5t-9.5 -18z" />
<glyph unicode="&#xc3;" horiz-adv-x="773" d="M0 0v68l46 10q17 4 25 23l199 464q8 20 -11 23l-53 9v69h268l225 -565q6 -13 11.5 -17t20.5 -7l42 -9v-68h-229v68l36 8q16 4 16 12q0 5 -4 16l-34 88h-347l-36 -90q-4 -9 -4 -14q0 -10 17 -13l35 -7v-68h-223zM240 763q24 33 44.5 46t48.5 13q21 0 61 -14.5t49 -14.5 q10 0 30 33l60 -31q-43 -60 -92 -60q-21 0 -59 14t-51 14q-4 0 -6.5 -1t-8.5 -8t-16 -22zM244 274h282l-116 294q-4 9 -6 13t-6.5 7t-11.5 3q-10 0 -14.5 -5t-9.5 -18z" />
<glyph unicode="&#xc4;" horiz-adv-x="773" d="M0 0v68l46 10q17 4 25 23l199 464q8 20 -11 23l-53 9v69h268l225 -565q6 -13 11.5 -17t20.5 -7l42 -9v-68h-229v68l36 8q16 4 16 12q0 5 -4 16l-34 88h-347l-36 -90q-4 -9 -4 -14q0 -10 17 -13l35 -7v-68h-223zM244 274h282l-116 294q-4 9 -6 13t-6.5 7t-11.5 3 q-10 0 -14.5 -5t-9.5 -18zM248 742v87h101v-87h-101zM418 742v87h101v-87h-101z" />
<glyph unicode="&#xc5;" horiz-adv-x="773" d="M0 0v68l46 10q17 4 25 23l199 464q8 20 -11 23l-53 9v69h268l225 -565q6 -13 11.5 -17t20.5 -7l42 -9v-68h-229v68l36 8q16 4 16 12q0 5 -4 16l-34 88h-347l-36 -90q-4 -9 -4 -14q0 -10 17 -13l35 -7v-68h-223zM244 274h282l-116 294q-4 9 -6 13t-6.5 7t-11.5 3 q-10 0 -14.5 -5t-9.5 -18zM246 809q0 64 30.5 87t103.5 23t104 -23t31 -87t-30.5 -87t-104.5 -23q-73 0 -103.5 23t-30.5 87zM320 809q0 -34 11 -46t49 -12t49 12t11 46q0 33 -11 45t-49 12t-49 -11.5t-11 -45.5z" />
<glyph unicode="&#xc6;" horiz-adv-x="896" d="M0 0v68l52 12q16 3 25 23l232 462q5 8 2 15t-13 8l-53 9v69h602v-89h-266v-198h254v-87h-254v-203h266v-89h-435v68l51 10q14 4 14 18v197q-42 0 -64.5 -1t-53.5 -4.5t-49 -12.5t-40 -24t-39 -39t-33 -58l-24 -52q-4 -9 -4 -14q0 -10 17 -13l35 -7v-68h-222zM280 332 q75 45 197 45v180q0 39 -39 39q-26 0 -42 -34z" />
<glyph unicode="&#xc7;" horiz-adv-x="670" d="M60 333q0 106 15.5 172t55 104t96 51.5t148.5 13.5q57 0 118 -7t94 -15l33 -7l-14 -89q-115 24 -219 24q-52 0 -86 -4t-59.5 -16t-39.5 -27.5t-22.5 -46.5t-10.5 -64.5t-2 -88.5q0 -53 2.5 -86t10.5 -64t22 -47.5t38.5 -29.5t59 -17.5t84.5 -4.5q46 0 101.5 6t88.5 12 l32 5l14 -85q-99 -25 -215 -28l-25 -32q7 1 26 1q34 0 55 -20t21 -49q0 -83 -114 -83q-58 0 -106 18l18 49q45 -14 64 -14q60 0 60 30q0 20 -35 20q-24 0 -50 -10l-18 33l29 57q-104 4 -160 34t-83 101.5t-27 203.5z" />
<glyph unicode="&#xc8;" horiz-adv-x="650" d="M64 0v68l52 10q14 4 14 18v474q0 14 -14 18l-52 10v68h537v-89h-367v-192h355v-87h-355v-209h367v-89h-537zM247 797l50 60l145 -97l-34 -48z" />
<glyph unicode="&#xc9;" horiz-adv-x="650" d="M64 0v68l52 10q14 4 14 18v474q0 14 -14 18l-52 10v68h537v-89h-367v-192h355v-87h-355v-209h367v-89h-537zM271 760l147 97l49 -60l-159 -85z" />
<glyph unicode="&#xca;" horiz-adv-x="650" d="M64 0v68l52 10q14 4 14 18v474q0 14 -14 18l-52 10v68h537v-89h-367v-192h355v-87h-355v-209h367v-89h-537zM220 757l141 98l140 -98l-41 -46l-99 63l-98 -63z" />
<glyph unicode="&#xcb;" horiz-adv-x="650" d="M64 0v68l52 10q14 4 14 18v474q0 14 -14 18l-52 10v68h537v-89h-367v-192h355v-87h-355v-209h367v-89h-537zM220 742v87h101v-87h-101zM390 742v87h101v-87h-101z" />
<glyph unicode="&#xcc;" horiz-adv-x="363" d="M57 797l50 60l145 -97l-34 -48zM64 0v68l52 10q14 4 14 18v474q0 14 -14 18l-52 10v68h235v-68l-51 -10q-14 -4 -14 -18v-474q0 -14 14 -18l51 -10v-68h-235z" />
<glyph unicode="&#xcd;" horiz-adv-x="363" d="M64 0v68l52 10q14 4 14 18v474q0 14 -14 18l-52 10v68h235v-68l-51 -10q-14 -4 -14 -18v-474q0 -14 14 -18l51 -10v-68h-235zM81 760l147 97l49 -60l-159 -85z" />
<glyph unicode="&#xce;" horiz-adv-x="363" d="M34 757l141 98l140 -98l-41 -46l-99 63l-98 -63zM63 0v68l52 10q14 4 14 18v474q0 14 -14 18l-52 10v68h235v-68l-51 -10q-14 -4 -14 -18v-474q0 -14 14 -18l51 -10v-68h-235z" />
<glyph unicode="&#xcf;" horiz-adv-x="363" d="M39 742v87h101v-87h-101zM64 0v68l52 10q14 4 14 18v474q0 14 -14 18l-52 10v68h235v-68l-51 -10q-14 -4 -14 -18v-474q0 -14 14 -18l51 -10v-68h-235zM209 742v87h101v-87h-101z" />
<glyph unicode="&#xd0;" horiz-adv-x="805" d="M55 299v80h91v191q0 14 -14 18l-52 10v68h378q78 0 132.5 -17t84.5 -43t46 -72.5t20 -89t4 -110.5q0 -48 -1.5 -80t-8 -70.5t-18.5 -63t-33 -49.5t-51.5 -39t-74 -23t-100.5 -9h-378v68l52 10q14 4 14 18v203h-91zM250 88h206q38 0 67 6.5t48.5 15.5t32.5 28.5t19.5 35 t10 46.5t4 51.5t0.5 61.5v44t-1.5 39t-4 36.5t-6.5 31t-11 28.5t-16.5 22.5t-23 19t-31 13t-39.5 9t-49 2.5h-206v-199h225v-80h-225v-211z" />
<glyph unicode="&#xd1;" horiz-adv-x="874" d="M64 0v68l52 10q14 4 14 18v474q0 14 -14 18l-52 10v68h274l266 -562q9 -19 23 -19q21 0 21 28v457q0 14 -14 18l-52 10v68h228v-68l-52 -10q-14 -4 -14 -18v-570h-206l-268 570q-8 19 -23 19q-13 0 -17 -6.5t-4 -20.5v-466q0 -14 14 -18l51 -10v-68h-227zM280 763 q24 33 44.5 46t48.5 13q21 0 60.5 -14.5t49.5 -14.5t30 33l60 -31q-43 -60 -92 -60q-21 0 -59 14t-51 14q-4 0 -6.5 -1t-8.5 -8t-16 -22z" />
<glyph unicode="&#xd2;" horiz-adv-x="709" d="M60 332q0 76 4 125t16.5 90t31.5 63t54 37.5t79 20.5t110 5q59 0 100.5 -5t74 -15t53.5 -30t34.5 -43.5t20 -63t9 -80.5t2.5 -104q0 -74 -3 -119.5t-14 -87.5t-30 -64t-52.5 -39t-79.5 -23t-114 -6t-114.5 6t-80.5 23.5t-53 40t-30 64t-14.5 87.5t-3.5 118zM167 332 q0 -60 1.5 -94.5t9 -66.5t18.5 -46.5t33.5 -26t51.5 -14.5t75 -3q35 0 59.5 1.5t45 8t33 13t22.5 23t14.5 31t7.5 45t3.5 56.5t0.5 73q0 64 -1 92.5t-6.5 65t-16.5 49t-32.5 27t-52 17.5t-78.5 3q-46 0 -73 -2.5t-50.5 -13t-34.5 -25t-18.5 -46t-9.5 -68.5t-2 -99zM247 797 l50 60l145 -97l-34 -48z" />
<glyph unicode="&#xd3;" horiz-adv-x="709" d="M60 332q0 76 4 125t16.5 90t31.5 63t54 37.5t79 20.5t110 5q59 0 100.5 -5t74 -15t53.5 -30t34.5 -43.5t20 -63t9 -80.5t2.5 -104q0 -74 -3 -119.5t-14 -87.5t-30 -64t-52.5 -39t-79.5 -23t-114 -6t-114.5 6t-80.5 23.5t-53 40t-30 64t-14.5 87.5t-3.5 118zM167 332 q0 -60 1.5 -94.5t9 -66.5t18.5 -46.5t33.5 -26t51.5 -14.5t75 -3q35 0 59.5 1.5t45 8t33 13t22.5 23t14.5 31t7.5 45t3.5 56.5t0.5 73q0 64 -1 92.5t-6.5 65t-16.5 49t-32.5 27t-52 17.5t-78.5 3q-46 0 -73 -2.5t-50.5 -13t-34.5 -25t-18.5 -46t-9.5 -68.5t-2 -99zM271 760 l147 97l49 -60l-159 -85z" />
<glyph unicode="&#xd4;" horiz-adv-x="709" d="M60 332q0 76 4 125t16.5 90t31.5 63t54 37.5t79 20.5t110 5q59 0 100.5 -5t74 -15t53.5 -30t34.5 -43.5t20 -63t9 -80.5t2.5 -104q0 -74 -3 -119.5t-14 -87.5t-30 -64t-52.5 -39t-79.5 -23t-114 -6t-114.5 6t-80.5 23.5t-53 40t-30 64t-14.5 87.5t-3.5 118zM167 332 q0 -60 1.5 -94.5t9 -66.5t18.5 -46.5t33.5 -26t51.5 -14.5t75 -3q35 0 59.5 1.5t45 8t33 13t22.5 23t14.5 31t7.5 45t3.5 56.5t0.5 73q0 64 -1 92.5t-6.5 65t-16.5 49t-32.5 27t-52 17.5t-78.5 3q-46 0 -73 -2.5t-50.5 -13t-34.5 -25t-18.5 -46t-9.5 -68.5t-2 -99zM210 757 l141 98l140 -98l-41 -46l-99 63l-98 -63z" />
<glyph unicode="&#xd5;" horiz-adv-x="709" d="M60 332q0 76 4 125t16.5 90t31.5 63t54 37.5t79 20.5t110 5q59 0 100.5 -5t74 -15t53.5 -30t34.5 -43.5t20 -63t9 -80.5t2.5 -104q0 -74 -3 -119.5t-14 -87.5t-30 -64t-52.5 -39t-79.5 -23t-114 -6t-114.5 6t-80.5 23.5t-53 40t-30 64t-14.5 87.5t-3.5 118zM167 332 q0 -60 1.5 -94.5t9 -66.5t18.5 -46.5t33.5 -26t51.5 -14.5t75 -3q35 0 59.5 1.5t45 8t33 13t22.5 23t14.5 31t7.5 45t3.5 56.5t0.5 73q0 64 -1 92.5t-6.5 65t-16.5 49t-32.5 27t-52 17.5t-78.5 3q-46 0 -73 -2.5t-50.5 -13t-34.5 -25t-18.5 -46t-9.5 -68.5t-2 -99zM202 763 q24 33 44.5 46t48.5 13q21 0 61 -14.5t49 -14.5q10 0 30 33l60 -31q-43 -60 -92 -60q-21 0 -59 14t-51 14q-4 0 -6.5 -1t-8.5 -8t-16 -22z" />
<glyph unicode="&#xd6;" horiz-adv-x="709" d="M60 332q0 76 4 125t16.5 90t31.5 63t54 37.5t79 20.5t110 5q59 0 100.5 -5t74 -15t53.5 -30t34.5 -43.5t20 -63t9 -80.5t2.5 -104q0 -74 -3 -119.5t-14 -87.5t-30 -64t-52.5 -39t-79.5 -23t-114 -6t-114.5 6t-80.5 23.5t-53 40t-30 64t-14.5 87.5t-3.5 118zM167 332 q0 -60 1.5 -94.5t9 -66.5t18.5 -46.5t33.5 -26t51.5 -14.5t75 -3q35 0 59.5 1.5t45 8t33 13t22.5 23t14.5 31t7.5 45t3.5 56.5t0.5 73q0 64 -1 92.5t-6.5 65t-16.5 49t-32.5 27t-52 17.5t-78.5 3q-46 0 -73 -2.5t-50.5 -13t-34.5 -25t-18.5 -46t-9.5 -68.5t-2 -99zM210 742 v87h101v-87h-101zM380 742v87h101v-87h-101z" />
<glyph unicode="&#xd7;" d="M119 177l158 155l-158 155l64 61l157 -154l158 154l63 -60l-158 -156l158 -155l-62 -61l-159 155l-157 -155z" />
<glyph unicode="&#xd8;" horiz-adv-x="709" d="M60 332q0 76 4 125t16.5 90t31.5 63t54 37.5t79 20.5t110 5q59 0 100.5 -5t74 -15t53.5 -30t34.5 -43.5t20 -63t9 -80.5t2.5 -104q0 -74 -3 -119.5t-14 -87.5t-30 -64t-52.5 -39t-79.5 -23t-114 -6t-114.5 6t-80.5 23.5t-53 40t-30 64t-14.5 87.5t-3.5 118zM167 332 q0 -85 3 -116l344 326q-17 25 -54 34.5t-105 9.5q-46 0 -73 -2.5t-50.5 -13t-34.5 -25t-18.5 -46t-9.5 -68.5t-2 -99zM194 127q18 -27 54 -36.5t108 -9.5q35 0 59.5 1.5t45 8t33 13t22.5 23t14.5 31t7.5 45t3.5 56.5t0.5 73q0 89 -3 121z" />
<glyph unicode="&#xd9;" horiz-adv-x="833" d="M68 598v68h235v-68l-51 -10q-14 -4 -14 -18v-324q0 -105 29 -135t132 -30q51 0 101.5 5.5t75.5 11.5l25 6v466q0 14 -14 18l-52 10v68h235v-68l-51 -10q-14 -4 -14 -18v-474q0 -14 14 -18l51 -10v-68h-157l-7 42q-10 20 -23 22q-9 0 -27 -12l-83 -54q-55 -5 -83 -5 q-154 0 -205 50t-51 190v337q0 14 -14 18zM307 797l50 60l145 -97l-34 -48z" />
<glyph unicode="&#xda;" horiz-adv-x="833" d="M68 598v68h235v-68l-51 -10q-14 -4 -14 -18v-324q0 -105 29 -135t132 -30q51 0 101.5 5.5t75.5 11.5l25 6v466q0 14 -14 18l-52 10v68h235v-68l-51 -10q-14 -4 -14 -18v-474q0 -14 14 -18l51 -10v-68h-157l-7 42q-10 20 -23 22q-9 0 -27 -12l-83 -54q-55 -5 -83 -5 q-154 0 -205 50t-51 190v337q0 14 -14 18zM351 760l147 97l49 -60l-159 -85z" />
<glyph unicode="&#xdb;" horiz-adv-x="833" d="M68 598v68h235v-68l-51 -10q-14 -4 -14 -18v-324q0 -105 29 -135t132 -30q51 0 101.5 5.5t75.5 11.5l25 6v466q0 14 -14 18l-52 10v68h235v-68l-51 -10q-14 -4 -14 -18v-474q0 -14 14 -18l51 -10v-68h-157l-7 42q-10 20 -23 22q-9 0 -27 -12l-83 -54q-55 -5 -83 -5 q-154 0 -205 50t-51 190v337q0 14 -14 18zM282 757l141 98l140 -98l-41 -46l-99 63l-98 -63z" />
<glyph unicode="&#xdc;" horiz-adv-x="833" d="M68 598v68h235v-68l-51 -10q-14 -4 -14 -18v-324q0 -105 29 -135t132 -30q51 0 101.5 5.5t75.5 11.5l25 6v466q0 14 -14 18l-52 10v68h235v-68l-51 -10q-14 -4 -14 -18v-474q0 -14 14 -18l51 -10v-68h-157l-7 42q-10 20 -23 22q-9 0 -27 -12l-83 -54q-55 -5 -83 -5 q-154 0 -205 50t-51 190v337q0 14 -14 18zM290 742v87h101v-87h-101zM460 742v87h101v-87h-101z" />
<glyph unicode="&#xdd;" d="M24 598v68h228v-68l-48 -10q-15 -4 -15 -18v-165q0 -77 28.5 -98.5t121.5 -21.5q36 0 72 4.5t55 8.5l18 4v268q0 14 -14 18l-48 10v68h229v-68l-50 -10q-14 -4 -14 -18v-369q0 -57 -8 -91t-34 -63t-80 -41.5t-142 -12.5q-52 0 -102.5 5t-74.5 10l-25 6l12 80 q84 -18 186 -18q50 0 81 5.5t49 13t26.5 27.5t10 36.5t1.5 52.5v26q0 29 -24 29q-11 0 -26 -11l-70 -49q-30 -5 -67 -5q-124 0 -168 43.5t-44 152.5v173q0 14 -14 18zM251 760l147 97l49 -60l-159 -85z" />
<glyph unicode="&#xde;" horiz-adv-x="724" d="M64 0v68l52 10q14 4 14 18v474q0 14 -14 18l-52 10v68h235v-68l-51 -10q-15 -4 -15 -18v-20h247q194 0 194 -203v-29.5t-2 -32t-5 -35t-10 -33.5t-16 -33t-24 -27.5t-33.5 -23t-44.5 -14t-57 -5.5h-55l-76 2l-68 47q-17 11 -27 11q-15 0 -19 -7t-4 -20v-51q0 -14 15 -18 l51 -10v-68h-235zM234 211q53 -11 182 -11q45 0 68.5 3t45 16.5t29.5 41t8 75.5q0 76 -31 102t-100 26h-202v-253z" />
<glyph unicode="&#xdf;" horiz-adv-x="566" d="M32 0v62l44 9q8 2 11 5t3 13v424q0 95 41.5 127.5t152.5 32.5q106 0 151 -28.5t45 -106.5q0 -103 -96 -130q-1 0 -4 -1t-4 -1.5t-3.5 -1.5t-3.5 -2l-2.5 -2.5t-2 -4t-0.5 -4.5q0 -11 19 -16q2 -1 3 -1q37 -10 50 -15q45 -17 62.5 -50.5t17.5 -104.5q-1 -119 -40.5 -161.5 t-149.5 -42.5h-75v66l29 2q43 2 65.5 7t40 20t23 41t5.5 72q0 45 -5.5 71t-23 40.5t-40 19.5t-65.5 7l-29 2v67l44 5q44 6 64 27t20 68q0 52 -20.5 66.5t-74.5 14.5q-59 0 -78.5 -14.5t-19.5 -66.5v-515h-154z" />
<glyph unicode="&#xe0;" horiz-adv-x="598" d="M46 143q0 83 35 114.5t130 32.5l195 2v20q0 51 -31.5 66t-100.5 15q-42 0 -88.5 -5.5t-71.5 -11.5l-26 -5l-14 75q90 25 215 25q113 0 164.5 -28.5t51.5 -117.5v-236q0 -10 2.5 -13.5t11.5 -4.5l43 -9v-62h-137l-4 31q-3 19 -20 19q-10 0 -26 -10l-62 -43q-43 -4 -76 -4 q-111 0 -151 31t-40 119zM147 143q0 -48 20.5 -60t79.5 -12q32 0 72 4.5t63 8.5l24 5v132l-153 -3h-20h-18.5t-15.5 -1t-14 -2t-11 -3.5t-10 -6.5t-7 -9.5t-5.5 -13t-3 -17.5t-1.5 -22zM193 603l50 60l145 -97l-34 -48z" />
<glyph unicode="&#xe1;" horiz-adv-x="598" d="M46 143q0 83 35 114.5t130 32.5l195 2v20q0 51 -31.5 66t-100.5 15q-42 0 -88.5 -5.5t-71.5 -11.5l-26 -5l-14 75q90 25 215 25q113 0 164.5 -28.5t51.5 -117.5v-236q0 -10 2.5 -13.5t11.5 -4.5l43 -9v-62h-137l-4 31q-3 19 -20 19q-10 0 -26 -10l-62 -43q-43 -4 -76 -4 q-111 0 -151 31t-40 119zM147 143q0 -48 20.5 -60t79.5 -12q32 0 72 4.5t63 8.5l24 5v132l-153 -3h-20h-18.5t-15.5 -1t-14 -2t-11 -3.5t-10 -6.5t-7 -9.5t-5.5 -13t-3 -17.5t-1.5 -22zM213 566l147 97l49 -60l-159 -85z" />
<glyph unicode="&#xe2;" horiz-adv-x="598" d="M46 143q0 83 35 114.5t130 32.5l195 2v20q0 51 -31.5 66t-100.5 15q-42 0 -88.5 -5.5t-71.5 -11.5l-26 -5l-14 75q90 25 215 25q113 0 164.5 -28.5t51.5 -117.5v-236q0 -10 2.5 -13.5t11.5 -4.5l43 -9v-62h-137l-4 31q-3 19 -20 19q-10 0 -26 -10l-62 -43q-43 -4 -76 -4 q-111 0 -151 31t-40 119zM147 143q0 -48 20.5 -60t79.5 -12q32 0 72 4.5t63 8.5l24 5v132l-153 -3h-20h-18.5t-15.5 -1t-14 -2t-11 -3.5t-10 -6.5t-7 -9.5t-5.5 -13t-3 -17.5t-1.5 -22zM153 564l141 98l140 -98l-41 -46l-99 63l-98 -63z" />
<glyph unicode="&#xe3;" horiz-adv-x="598" d="M46 143q0 83 35 114.5t130 32.5l195 2v20q0 51 -31.5 66t-100.5 15q-42 0 -88.5 -5.5t-71.5 -11.5l-26 -5l-14 75q90 25 215 25q113 0 164.5 -28.5t51.5 -117.5v-236q0 -10 2.5 -13.5t11.5 -4.5l43 -9v-62h-137l-4 31q-3 19 -20 19q-10 0 -26 -10l-62 -43q-43 -4 -76 -4 q-111 0 -151 31t-40 119zM146 563q24 33 44.5 46t48.5 13q21 0 61 -14.5t49 -14.5q10 0 30 33l60 -31q-43 -60 -92 -60q-21 0 -59 14t-51 14q-4 0 -6.5 -1t-8.5 -8t-16 -22zM147 143q0 -48 20.5 -60t79.5 -12q32 0 72 4.5t63 8.5l24 5v132l-153 -3h-20h-18.5t-15.5 -1 t-14 -2t-11 -3.5t-10 -6.5t-7 -9.5t-5.5 -13t-3 -17.5t-1.5 -22z" />
<glyph unicode="&#xe4;" horiz-adv-x="598" d="M46 143q0 83 35 114.5t130 32.5l195 2v20q0 51 -31.5 66t-100.5 15q-42 0 -88.5 -5.5t-71.5 -11.5l-26 -5l-14 75q90 25 215 25q113 0 164.5 -28.5t51.5 -117.5v-236q0 -10 2.5 -13.5t11.5 -4.5l43 -9v-62h-137l-4 31q-3 19 -20 19q-10 0 -26 -10l-62 -43q-43 -4 -76 -4 q-111 0 -151 31t-40 119zM147 143q0 -48 20.5 -60t79.5 -12q32 0 72 4.5t63 8.5l24 5v132l-153 -3h-20h-18.5t-15.5 -1t-14 -2t-11 -3.5t-10 -6.5t-7 -9.5t-5.5 -13t-3 -17.5t-1.5 -22zM153 534v87h101v-87h-101zM323 534v87h101v-87h-101z" />
<glyph unicode="&#xe5;" horiz-adv-x="598" d="M46 143q0 83 35 114.5t130 32.5l195 2v20q0 51 -31.5 66t-100.5 15q-42 0 -88.5 -5.5t-71.5 -11.5l-26 -5l-14 75q90 25 215 25q113 0 164.5 -28.5t51.5 -117.5v-236q0 -10 2.5 -13.5t11.5 -4.5l43 -9v-62h-137l-4 31q-3 19 -20 19q-10 0 -26 -10l-62 -43q-43 -4 -76 -4 q-111 0 -151 31t-40 119zM147 143q0 -48 20.5 -60t79.5 -12q32 0 72 4.5t63 8.5l24 5v132l-153 -3h-20h-18.5t-15.5 -1t-14 -2t-11 -3.5t-10 -6.5t-7 -9.5t-5.5 -13t-3 -17.5t-1.5 -22zM176 596q0 53 26 72.5t87 19.5t87 -19.5t26 -72.5q0 -54 -26 -73.5t-87 -19.5t-87 19.5 t-26 73.5zM238 596q0 -28 9.5 -38t41.5 -10t41.5 10t9.5 38t-9.5 38t-41.5 10t-41.5 -10t-9.5 -38z" />
<glyph unicode="&#xe6;" horiz-adv-x="909" d="M46 141q0 77 36 105t129 30l189 3v21q0 27 -7.5 45.5t-17.5 27.5t-31 14t-35.5 5.5t-44.5 0.5q-42 0 -86 -6t-67 -12l-23 -6l-14 77q80 25 205 25q77 0 116.5 -16t57.5 -53q23 34 60 51.5t119 17.5q132 0 179.5 -41.5t47.5 -162.5q0 -17 -3 -66q-3 0 -65 -4t-107 -4 q-32 0 -58.5 1.5t-37.5 3.5l-10 1l-43 30q-11 8 -20 8q-20 0 -20 -33q0 -79 35.5 -105.5t123.5 -26.5q59 0 165 19l13 -72q-81 -26 -188 -26q-123 0 -174 46q-21 16 -30 16t-30 -16l-45 -34q-47 -12 -124 -12q-43 0 -68.5 2t-52.5 10t-41.5 23.5t-23.5 43.5t-9 69zM147 141 q0 -47 20 -58t80 -11q107 0 179 14q-25 55 -26 123l-147 -3h-22t-21.5 -0.5t-17 -1.5t-16.5 -3.5t-11.5 -7.5t-10 -11.5t-5 -17t-2.5 -23.5zM498 275q28 -4 61 -5.5t53 -1.5h19q73 -2 126 3q0 81 -23 102.5t-97 21.5q-80 0 -109.5 -18.5t-29.5 -85.5v-16z" />
<glyph unicode="&#xe7;" horiz-adv-x="507" d="M50 232q0 141 50 190t179 49q40 0 84.5 -4.5t68.5 -9.5l25 -5l-12 -75q-68 13 -141 13q-99 0 -126 -28.5t-27 -129.5t27 -130.5t126 -29.5q32 0 67.5 3.5t54.5 6.5l19 4l12 -73q-51 -16 -140 -19l-30 -32q7 1 26 1q34 0 55 -20t21 -49q0 -83 -115 -83q-58 0 -105 18 l18 49q45 -14 64 -14q59 0 59 30q0 20 -34 20q-24 0 -50 -10l-18 33l31 57q-105 6 -147 57.5t-42 180.5z" />
<glyph unicode="&#xe8;" horiz-adv-x="563" d="M50 232q0 97 25 153q23 49 73.5 67.5t137.5 18.5q132 0 179.5 -41.5t47.5 -162.5q0 -17 -3 -66q-3 0 -65 -4t-107 -4q-32 0 -58 1.5t-36 3.5l-11 1l-43 30q-11 8 -20 8q-19 0 -19 -22v-21q0 -58 27 -89q31 -33 130 -33q59 0 165 19l13 -72q-81 -26 -188 -26 q-65 0 -106.5 9t-76 33.5t-50 73t-15.5 123.5zM152 274q27 -4 60.5 -5.5t53.5 -0.5h19q73 -2 126 3q0 81 -23 102.5t-97 21.5q-40 0 -64 -4t-39 -9.5t-22 -22.5t-9.5 -33t-4.5 -52zM183 603l50 60l145 -97l-34 -48z" />
<glyph unicode="&#xe9;" horiz-adv-x="563" d="M50 232q0 97 25 153q23 49 73.5 67.5t137.5 18.5q132 0 179.5 -41.5t47.5 -162.5q0 -17 -3 -66q-3 0 -65 -4t-107 -4q-32 0 -58 1.5t-36 3.5l-11 1l-43 30q-11 8 -20 8q-19 0 -19 -22v-21q0 -58 27 -89q31 -33 130 -33q59 0 165 19l13 -72q-81 -26 -188 -26 q-65 0 -106.5 9t-76 33.5t-50 73t-15.5 123.5zM152 274q27 -4 60.5 -5.5t53.5 -0.5h19q73 -2 126 3q0 81 -23 102.5t-97 21.5q-40 0 -64 -4t-39 -9.5t-22 -22.5t-9.5 -33t-4.5 -52zM203 566l147 97l49 -60l-159 -85z" />
<glyph unicode="&#xea;" horiz-adv-x="563" d="M50 232q0 97 25 153q23 49 73.5 67.5t137.5 18.5q132 0 179.5 -41.5t47.5 -162.5q0 -17 -3 -66q-3 0 -65 -4t-107 -4q-32 0 -58 1.5t-36 3.5l-11 1l-43 30q-11 8 -20 8q-19 0 -19 -22v-21q0 -58 27 -89q31 -33 130 -33q59 0 165 19l13 -72q-81 -26 -188 -26 q-65 0 -106.5 9t-76 33.5t-50 73t-15.5 123.5zM152 274q27 -4 60.5 -5.5t53.5 -0.5h19q73 -2 126 3q0 81 -23 102.5t-97 21.5q-40 0 -64 -4t-39 -9.5t-22 -22.5t-9.5 -33t-4.5 -52zM153 564l141 98l140 -98l-41 -46l-99 63l-98 -63z" />
<glyph unicode="&#xeb;" horiz-adv-x="563" d="M50 232q0 97 25 153q23 49 73.5 67.5t137.5 18.5q132 0 179.5 -41.5t47.5 -162.5q0 -17 -3 -66q-3 0 -65 -4t-107 -4q-32 0 -58 1.5t-36 3.5l-11 1l-43 30q-11 8 -20 8q-19 0 -19 -22v-21q0 -58 27 -89q31 -33 130 -33q59 0 165 19l13 -72q-81 -26 -188 -26 q-65 0 -106.5 9t-76 33.5t-50 73t-15.5 123.5zM152 274q27 -4 60.5 -5.5t53.5 -0.5h19q73 -2 126 3q0 81 -23 102.5t-97 21.5q-40 0 -64 -4t-39 -9.5t-22 -22.5t-9.5 -33t-4.5 -52zM153 534v87h101v-87h-101zM323 534v87h101v-87h-101z" />
<glyph unicode="&#xec;" horiz-adv-x="307" d="M34 603l50 60l145 -97l-34 -48zM48 0v62l43 9q9 1 11.5 4.5t2.5 13.5v287q0 10 -2.5 13.5t-11.5 4.5l-43 9v62h156v-376q0 -10 2.5 -13.5t11.5 -4.5l44 -9v-62h-214z" />
<glyph unicode="&#xed;" horiz-adv-x="307" d="M42 566l147 97l49 -60l-159 -85zM49 0v62l43 9q9 1 11.5 4.5t2.5 13.5v287q0 10 -2.5 13.5t-11.5 4.5l-43 9v62h156v-376q0 -10 2.5 -13.5t11.5 -4.5l44 -9v-62h-214z" />
<glyph unicode="&#xee;" horiz-adv-x="307" d="M0 564l141 98l140 -98l-41 -46l-99 63l-98 -63zM47 0v62l43 9q9 1 11.5 4.5t2.5 13.5v287q0 10 -2.5 13.5t-11.5 4.5l-43 9v62h156v-376q0 -10 2.5 -13.5t11.5 -4.5l44 -9v-62h-214z" />
<glyph unicode="&#xef;" horiz-adv-x="307" d="M8 534v87h101v-87h-101zM47 0v62l43 9q9 1 11.5 4.5t2.5 13.5v287q0 10 -2.5 13.5t-11.5 4.5l-43 9v62h156v-376q0 -10 2.5 -13.5t11.5 -4.5l44 -9v-62h-214zM178 534v87h101v-87h-101z" />
<glyph unicode="&#xf0;" horiz-adv-x="558" d="M50 232q0 51 3 85.5t12.5 62.5t24.5 44.5t40.5 27.5t58.5 15t81 4l51 -5l-69 81l-83 -36l-28 66l63 27l-53 62h110l24 -28l79 34l28 -66l-58 -25l134 -157q40 -46 40 -192q0 -52 -3 -86.5t-13 -63t-25 -44.5t-42 -26.5t-61 -14.5t-85 -4q-76 0 -118.5 9t-68.5 37.5 t-34 71.5t-8 121zM151 232q0 -110 20.5 -136.5t107.5 -26.5q47 0 70 4t37.5 23.5t17.5 47.5t3 88t-3 88t-17.5 47.5t-37.5 23.5t-70 4q-87 0 -107.5 -26.5t-20.5 -136.5z" />
<glyph unicode="&#xf1;" horiz-adv-x="636" d="M49 0v62l44 9q8 2 11 5t3 13v287q0 10 -3 13t-11 5l-44 9v62h134l4 -33q3 -19 20 -19q10 0 26 10l63 44q41 4 59 4q109 0 147 -36.5t38 -141.5v-204q0 -10 2.5 -13.5t11.5 -4.5l43 -9v-62h-214v62l44 9q8 2 11 5t3 13v196q0 69 -20.5 88t-91.5 19q-54 0 -123 -12v-291 q0 -10 2.5 -13.5t11.5 -4.5l43 -9v-62h-214zM173 563q24 33 44.5 46t48.5 13q22 0 61 -14.5t49 -14.5t30 33l60 -31q-43 -60 -92 -60q-21 0 -59 14t-51 14q-4 0 -6.5 -1t-8.5 -8t-16 -22z" />
<glyph unicode="&#xf2;" horiz-adv-x="558" d="M50 232q0 78 8 121t34 71.5t68.5 37.5t118.5 9q51 0 85 -4t61 -14.5t42 -26.5t25 -44.5t13 -63t3 -86.5t-3 -86.5t-13 -63t-25 -44.5t-42 -26.5t-61 -14.5t-85 -4q-76 0 -118.5 9t-68.5 37.5t-34 71.5t-8 121zM151 232q0 -110 20.5 -136.5t107.5 -26.5q47 0 70 4 t37.5 23.5t17.5 47.5t3 88t-3 88t-17.5 47.5t-37.5 23.5t-70 4q-87 0 -107.5 -26.5t-20.5 -136.5zM173 603l50 60l145 -97l-34 -48z" />
<glyph unicode="&#xf3;" horiz-adv-x="558" d="M50 232q0 78 8 121t34 71.5t68.5 37.5t118.5 9q51 0 85 -4t61 -14.5t42 -26.5t25 -44.5t13 -63t3 -86.5t-3 -86.5t-13 -63t-25 -44.5t-42 -26.5t-61 -14.5t-85 -4q-76 0 -118.5 9t-68.5 37.5t-34 71.5t-8 121zM151 232q0 -110 20.5 -136.5t107.5 -26.5q47 0 70 4 t37.5 23.5t17.5 47.5t3 88t-3 88t-17.5 47.5t-37.5 23.5t-70 4q-87 0 -107.5 -26.5t-20.5 -136.5zM183 566l147 97l49 -60l-159 -85z" />
<glyph unicode="&#xf4;" horiz-adv-x="558" d="M50 232q0 78 8 121t34 71.5t68.5 37.5t118.5 9q51 0 85 -4t61 -14.5t42 -26.5t25 -44.5t13 -63t3 -86.5t-3 -86.5t-13 -63t-25 -44.5t-42 -26.5t-61 -14.5t-85 -4q-76 0 -118.5 9t-68.5 37.5t-34 71.5t-8 121zM141 564l141 98l140 -98l-41 -46l-99 63l-98 -63zM151 232 q0 -110 20.5 -136.5t107.5 -26.5q47 0 70 4t37.5 23.5t17.5 47.5t3 88t-3 88t-17.5 47.5t-37.5 23.5t-70 4q-87 0 -107.5 -26.5t-20.5 -136.5z" />
<glyph unicode="&#xf5;" horiz-adv-x="558" d="M50 232q0 78 8 121t34 71.5t68.5 37.5t118.5 9q51 0 85 -4t61 -14.5t42 -26.5t25 -44.5t13 -63t3 -86.5t-3 -86.5t-13 -63t-25 -44.5t-42 -26.5t-61 -14.5t-85 -4q-76 0 -118.5 9t-68.5 37.5t-34 71.5t-8 121zM133 563q24 33 44.5 46t48.5 13q22 0 61 -14.5t49 -14.5 t30 33l60 -31q-43 -60 -92 -60q-21 0 -59 14t-51 14q-4 0 -6.5 -1t-8.5 -8t-16 -22zM151 232q0 -110 20.5 -136.5t107.5 -26.5q47 0 70 4t37.5 23.5t17.5 47.5t3 88t-3 88t-17.5 47.5t-37.5 23.5t-70 4q-87 0 -107.5 -26.5t-20.5 -136.5z" />
<glyph unicode="&#xf6;" horiz-adv-x="558" d="M50 232q0 78 8 121t34 71.5t68.5 37.5t118.5 9q51 0 85 -4t61 -14.5t42 -26.5t25 -44.5t13 -63t3 -86.5t-3 -86.5t-13 -63t-25 -44.5t-42 -26.5t-61 -14.5t-85 -4q-76 0 -118.5 9t-68.5 37.5t-34 71.5t-8 121zM143 534v87h101v-87h-101zM151 232q0 -110 20.5 -136.5 t107.5 -26.5q47 0 70 4t37.5 23.5t17.5 47.5t3 88t-3 88t-17.5 47.5t-37.5 23.5t-70 4q-87 0 -107.5 -26.5t-20.5 -136.5zM313 534v87h101v-87h-101z" />
<glyph unicode="&#xf7;" d="M106 290v85h467v-85h-467zM282 90v114h115v-114h-115zM282 461v114h115v-114h-115z" />
<glyph unicode="&#xf8;" horiz-adv-x="558" d="M50 232q0 78 8 121t34 71.5t68.5 37.5t118.5 9q51 0 85 -4t61 -14.5t42 -26.5t25 -44.5t13 -63t3 -86.5t-3 -86.5t-13 -63t-25 -44.5t-42 -26.5t-61 -14.5t-85 -4q-76 0 -118.5 9t-68.5 37.5t-34 71.5t-8 121zM151 232q0 -48 3 -78l228 220q-23 21 -103 21 q-87 0 -107.5 -26.5t-20.5 -136.5zM181 86q23 -17 98 -17q47 0 70 4t37.5 23.5t17.5 47.5t3 88q0 52 -2 72z" />
<glyph unicode="&#xf9;" horiz-adv-x="628" d="M44 403v62h157v-286q0 -69 20 -88t91 -19q45 0 117 12v292q0 10 -3 13t-11 5l-44 9v62h157v-376q0 -10 2.5 -13.5t11.5 -4.5l43 -9v-62h-135l-5 33q-3 19 -20 19q-10 0 -26 -10l-62 -44q-33 -4 -51 -4q-109 0 -146.5 36t-37.5 142v204q0 10 -3 13t-11 5zM193 603l50 60 l145 -97l-34 -48z" />
<glyph unicode="&#xfa;" horiz-adv-x="628" d="M44 403v62h157v-286q0 -69 20 -88t91 -19q45 0 117 12v292q0 10 -3 13t-11 5l-44 9v62h157v-376q0 -10 2.5 -13.5t11.5 -4.5l43 -9v-62h-135l-5 33q-3 19 -20 19q-10 0 -26 -10l-62 -44q-33 -4 -51 -4q-109 0 -146.5 36t-37.5 142v204q0 10 -3 13t-11 5zM213 566l147 97 l49 -60l-159 -85z" />
<glyph unicode="&#xfb;" horiz-adv-x="628" d="M44 403v62h157v-286q0 -69 20 -88t91 -19q45 0 117 12v292q0 10 -3 13t-11 5l-44 9v62h157v-376q0 -10 2.5 -13.5t11.5 -4.5l43 -9v-62h-135l-5 33q-3 19 -20 19q-10 0 -26 -10l-62 -44q-33 -4 -51 -4q-109 0 -146.5 36t-37.5 142v204q0 10 -3 13t-11 5zM163 564l141 98 l140 -98l-41 -46l-99 63l-98 -63z" />
<glyph unicode="&#xfc;" horiz-adv-x="628" d="M44 403v62h157v-286q0 -69 20 -88t91 -19q45 0 117 12v292q0 10 -3 13t-11 5l-44 9v62h157v-376q0 -10 2.5 -13.5t11.5 -4.5l43 -9v-62h-135l-5 33q-3 19 -20 19q-10 0 -26 -10l-62 -44q-33 -4 -51 -4q-109 0 -146.5 36t-37.5 142v204q0 10 -3 13t-11 5zM163 534v87h101 v-87h-101zM333 534v87h101v-87h-101z" />
<glyph unicode="&#xfd;" horiz-adv-x="594" d="M30 403v62h214v-62l-44 -9q-8 -2 -11 -5t-3 -13v-199q0 -69 20.5 -87t91.5 -18q28 0 100 12v292q0 10 -3 13t-11 5l-44 9v62h214v-62l-43 -9q-9 -1 -11.5 -4.5t-2.5 -13.5v-350q0 -137 -45.5 -181t-177.5 -44q-35 0 -75 4.5t-63 8.5l-23 4l10 74q74 -15 148 -15 q83 0 107 23t24 102v22q0 22 -19 22q-7 0 -21 -8l-58 -41q-27 -4 -52 -4q-91 0 -127.5 40t-36.5 141v202q0 10 -3 13t-11 5zM213 566l147 97l49 -60l-159 -85z" />
<glyph unicode="&#xfe;" horiz-adv-x="592" d="M39 -137l44 9q8 2 11 5t3 13v687q0 10 -3 13t-11 5l-44 9v62h156v-227q0 -23 19 -23q6 0 20 8l60 41q28 6 53 6q115 0 155 -52.5t40 -184.5q0 -134 -44 -187.5t-172 -53.5q-29 0 -61.5 4.5t-50.5 8.5l-18 5v-121q0 -10 2.5 -13.5t11.5 -4.5l43 -9v-62h-214v62zM197 82 q53 -10 121 -10q76 0 99.5 30.5t23.5 131.5q0 96 -23 127.5t-97 31.5q-27 0 -58 -4.5t-49 -8.5l-17 -4v-294z" />
<glyph unicode="&#xff;" horiz-adv-x="594" d="M30 403v62h214v-62l-44 -9q-8 -2 -11 -5t-3 -13v-199q0 -69 20.5 -87t91.5 -18q28 0 100 12v292q0 10 -3 13t-11 5l-44 9v62h214v-62l-43 -9q-9 -1 -11.5 -4.5t-2.5 -13.5v-350q0 -137 -45.5 -181t-177.5 -44q-35 0 -75 4.5t-63 8.5l-23 4l10 74q74 -15 148 -15 q83 0 107 23t24 102v22q0 22 -19 22q-7 0 -21 -8l-58 -41q-27 -4 -52 -4q-91 0 -127.5 40t-36.5 141v202q0 10 -3 13t-11 5zM166 534v87h101v-87h-101zM336 534v87h101v-87h-101z" />
<glyph unicode="&#x152;" horiz-adv-x="1043" d="M60 332q0 75 4 125t17 90.5t33 63t55 37.5t79.5 20t110.5 5q55 0 96.5 -12.5t56 -23t31.5 -27.5v56h451v-89h-347v-192h335v-87h-335v-209h347v-89h-451v58q-18 -18 -32 -28.5t-55.5 -23.5t-96.5 -13q-80 0 -129 8.5t-85 28t-53 60.5t-24.5 96.5t-7.5 145.5zM167 332 q0 -61 1.5 -95t8.5 -66.5t17.5 -47t33 -26t51.5 -14.5t75 -3t74.5 3t51.5 14.5t34 26t18.5 46.5t9 67t1.5 95q0 62 -2 98.5t-9.5 68t-18.5 46.5t-34.5 25.5t-50.5 13t-73 2.5t-73 -2.5t-50.5 -13t-34.5 -25.5t-18.5 -46.5t-9.5 -68t-2 -98.5z" />
<glyph unicode="&#x153;" horiz-adv-x="916" d="M50 232q0 78 8 121t34 71.5t68.5 37.5t118.5 9q81 0 115.5 -12.5t64.5 -40.5q33 28 69 40.5t110 12.5q133 0 180.5 -41.5t47.5 -162.5q0 -17 -3 -66q-132 -8 -172 -8q-32 0 -58 1.5t-37 3.5l-10 1l-43 30q-11 8 -20 8q-19 0 -19 -22v-21q0 -58 27 -89q31 -34 130 -34 q54 0 164 20l14 -73q-81 -25 -188 -25q-76 0 -115.5 13t-74.5 42q-29 -29 -65 -42t-117 -13q-76 0 -118.5 9t-68.5 37.5t-34 71.5t-8 121zM151 232q0 -110 20.5 -136.5t107.5 -26.5q47 0 70 4t37.5 23.5t17.5 47.5t3 88t-3 88t-17.5 47.5t-37.5 23.5t-70 4 q-87 0 -107.5 -26.5t-20.5 -136.5zM505 274q27 -4 60.5 -5.5t52.5 -0.5h20q73 -2 126 3q0 81 -23 102.5t-98 21.5q-50 0 -75.5 -4t-39.5 -20.5t-17 -34.5t-6 -62z" />
<glyph unicode="&#x178;" d="M24 598v68h228v-68l-48 -10q-15 -4 -15 -18v-165q0 -77 28.5 -98.5t121.5 -21.5q36 0 72 4.5t55 8.5l18 4v268q0 14 -14 18l-48 10v68h229v-68l-50 -10q-14 -4 -14 -18v-369q0 -57 -8 -91t-34 -63t-80 -41.5t-142 -12.5q-52 0 -102.5 5t-74.5 10l-25 6l12 80 q84 -18 186 -18q50 0 81 5.5t49 13t26.5 27.5t10 36.5t1.5 52.5v26q0 29 -24 29q-11 0 -26 -11l-70 -49q-30 -5 -67 -5q-124 0 -168 43.5t-44 152.5v173q0 14 -14 18zM210 742v87h101v-87h-101zM380 742v87h101v-87h-101z" />
<glyph unicode="&#x2c6;" horiz-adv-x="347" d="M33 564l141 98l140 -98l-41 -46l-99 63l-98 -63z" />
<glyph unicode="&#x2dc;" horiz-adv-x="359" d="M33 563q24 33 44.5 46t48.5 13q22 0 61 -14.5t49 -14.5t30 33l60 -31q-43 -60 -92 -60q-21 0 -59 14t-51 14q-4 0 -6.5 -1t-8.5 -8t-16 -22z" />
<glyph unicode="&#x2000;" horiz-adv-x="459" />
<glyph unicode="&#x2001;" horiz-adv-x="919" />
<glyph unicode="&#x2002;" horiz-adv-x="459" />
<glyph unicode="&#x2003;" horiz-adv-x="919" />
<glyph unicode="&#x2004;" horiz-adv-x="306" />
<glyph unicode="&#x2005;" horiz-adv-x="229" />
<glyph unicode="&#x2006;" horiz-adv-x="153" />
<glyph unicode="&#x2007;" horiz-adv-x="153" />
<glyph unicode="&#x2008;" horiz-adv-x="114" />
<glyph unicode="&#x2009;" horiz-adv-x="183" />
<glyph unicode="&#x200a;" horiz-adv-x="51" />
<glyph unicode="&#x2010;" horiz-adv-x="288" d="M33 210v65h222v-65h-222z" />
<glyph unicode="&#x2011;" horiz-adv-x="288" d="M33 210v65h222v-65h-222z" />
<glyph unicode="&#x2012;" horiz-adv-x="288" d="M33 210v65h222v-65h-222z" />
<glyph unicode="&#x2013;" horiz-adv-x="467" d="M33 210v65h401v-65h-401z" />
<glyph unicode="&#x2014;" horiz-adv-x="755" d="M33 210l7 65h683v-65h-690z" />
<glyph unicode="&#x2018;" horiz-adv-x="181" d="M33 518v114l48 109h71l-47 -109h43v-114h-115z" />
<glyph unicode="&#x2019;" horiz-adv-x="181" d="M29 442l47 109h-43v114h115v-114l-48 -109h-71z" />
<glyph unicode="&#x201a;" horiz-adv-x="181" d="M29 -109l47 109h-43v114h115v-114l-48 -109h-71z" />
<glyph unicode="&#x201c;" horiz-adv-x="349" d="M33 518v114l48 109h71l-47 -109h43v-114h-115zM201 518v114l48 109h71l-47 -109h43v-114h-115z" />
<glyph unicode="&#x201d;" horiz-adv-x="349" d="M29 442l47 109h-43v114h115v-114l-48 -109h-71zM197 442l47 109h-43v114h115v-114l-48 -109h-71z" />
<glyph unicode="&#x201e;" horiz-adv-x="349" d="M29 -109l47 109h-43v114h115v-114l-48 -109h-71zM197 -109l47 109h-43v114h115v-114l-48 -109h-71z" />
<glyph unicode="&#x2022;" horiz-adv-x="342" d="M33 338q0 57 40.5 97.5t97.5 40.5t97.5 -40.5t40.5 -97.5t-40.5 -97.5t-97.5 -40.5t-97.5 40.5t-40.5 97.5z" />
<glyph unicode="&#x2026;" horiz-adv-x="595" d="M49 0v114h115v-114h-115zM240 0v114h115v-114h-115zM431 0v114h115v-114h-115z" />
<glyph unicode="&#x202f;" horiz-adv-x="183" />
<glyph unicode="&#x2039;" horiz-adv-x="272" d="M33 256l124 258l70 -41l-102 -217l114 -217l-68 -45z" />
<glyph unicode="&#x203a;" horiz-adv-x="272" d="M33 39l114 217l-103 217l72 41l123 -258l-138 -262z" />
<glyph unicode="&#x205f;" horiz-adv-x="229" />
<glyph unicode="&#x20ac;" d="M24 222v85h72v56h-72v85h78q16 135 84.5 180.5t224.5 45.5q57 0 118 -7t94 -15l33 -7l-15 -88q-118 24 -222 24q-112 0 -156 -28.5t-55 -104.5h250v-85h-255v-56h255v-85h-250q10 -79 54 -107.5t157 -28.5q46 0 101.5 6t87.5 12l33 5l15 -87q-117 -29 -245 -29 q-157 0 -225.5 46t-84.5 183h-77z" />
<glyph unicode="&#x2122;" horiz-adv-x="919" d="M33 606v60h333v-60h-132v-319h-69v319h-132zM422 287v379h142l85 -168q2 -4 6 -4q3 0 5 4l85 168h141v-379h-69v317q0 16 -11 16q-9 0 -15 -11l-100 -192h-74l-100 191q-5 11 -13 11q-13 0 -13 -15v-317h-69z" />
<glyph unicode="&#xe000;" horiz-adv-x="465" d="M0 0v465h465v-465h-465z" />
<glyph unicode="&#xfb01;" horiz-adv-x="572" d="M15 390v75h88v61q0 91 35 120.5t127 29.5q31 0 66 -4t54 -8l19 -4l-9 -70q-58 11 -112 11q-25 0 -37 -1.5t-24 -8t-16 -21t-4 -39.5v-66h279v-376q0 -10 2.5 -13.5t11.5 -4.5l43 -9v-62h-214v62l44 9q8 2 11 5t3 13v301h-180v-301q0 -10 2.5 -13.5t11.5 -4.5l44 -9v-62 h-215v62l44 9q9 1 11.5 4.5t2.5 13.5v301h-88z" />
<glyph unicode="&#xfb02;" horiz-adv-x="572" d="M15 390v75h88v61q0 47 8.5 78t36.5 51q31 21 126 21q29 0 81 -4.5t89 -9.5l37 -4v-569q0 -10 2.5 -13.5t11.5 -4.5l43 -9v-62h-214v62l44 9q9 1 11.5 4.5t2.5 13.5v301h-180v-301q0 -10 2.5 -13.5t11.5 -4.5l44 -9v-62h-215v62l44 9q9 1 11.5 4.5t2.5 13.5v301h-88z M202 465h180v130q-54 6 -94 6q-26 0 -34.5 -0.5t-22.5 -3.5t-18 -10.5t-7.5 -20.5t-3.5 -35v-66z" />
</font>
</defs>
</svg>
