<?xml version="1.0" standalone="no"?>
<!DOCTYPE svg PUBLIC "-//W3C//DTD SVG 1.1//EN" "http://www.w3.org/Graphics/SVG/1.1/DTD/svg11.dtd" >
<svg xmlns="http://www.w3.org/2000/svg">
<metadata></metadata>
<defs>
<font id="luxi_sansoblique" horiz-adv-x="1139" vert-adv-y="2048" >
<font-face units-per-em="2048" ascent="1638" descent="-410" />
<missing-glyph horiz-adv-x="569" />
<glyph horiz-adv-x="2048" vert-adv-y="0" />
<glyph horiz-adv-x="2048" vert-adv-y="0" />
<glyph unicode="&#xd;" horiz-adv-x="2048" vert-adv-y="0" />
<glyph unicode=" " horiz-adv-x="569" vert-adv-y="2465" />
<glyph unicode="!" horiz-adv-x="569" vert-adv-y="2465" d="M186 0l39 197h198l-40 -197h-197zM290 395l133 789l59 296h197l-59 -296l-182 -789h-148z" />
<glyph unicode="&#x22;" horiz-adv-x="727" vert-adv-y="2465" d="M334 1086l74 493h197l-123 -493h-148zM679 1086l74 493h198l-124 -493h-148z" />
<glyph unicode="#" vert-adv-y="2465" d="M125 0l200 444h-211l49 124h218l155 345h-235l49 123h242l200 444h127l-200 -444h264l200 444h127l-200 -444h212l-50 -123h-218l-155 -345h236l-50 -124h-242l-199 -444h-128l200 444h-264l-199 -444h-128zM508 568h264l155 345h-264z" />
<glyph unicode="$" vert-adv-y="2465" d="M472 -123l25 123q-176 0 -378 83l34 170q204 -105 374 -105l106 531q-149 105 -206 176q-63 80 -63 200q0 192 162 323q107 86 267 102l25 124h98l-24 -124q143 0 307 -67l-32 -161q-176 83 -302 93l-106 -527l11 -8q36 -25 60 -41q101 -67 150 -130q52 -64 52 -156 q0 -193 -164 -345q-111 -102 -272 -138l-25 -123h-99zM628 160q222 81 222 262q0 92 -130 199zM674 883l91 456q-225 -73 -225 -247q0 -105 134 -209z" />
<glyph unicode="%" horiz-adv-x="1821" vert-adv-y="2465" d="M243 -37l1477 1554h154l-1477 -1554h-154zM730 1480q250 0 250 -268q0 -198 -116 -335t-289 -137q-252 0 -252 267q0 200 116 336q116 137 291 137zM706 1382q-91 0 -159 -112q-69 -113 -69 -259q0 -172 119 -172q91 0 159 112q69 113 69 258q0 173 -119 173zM1543 740 q251 0 251 -268q0 -199 -116 -335q-116 -137 -288 -137q-253 0 -253 267q0 200 116 336q116 137 290 137zM1520 642q-91 0 -159 -112q-69 -112 -69 -259q0 -172 119 -172q91 0 159 112q69 113 69 258q0 173 -119 173z" />
<glyph unicode="&#x26;" horiz-adv-x="1366" vert-adv-y="2465" d="M1032 0l-55 87q-226 -124 -406 -124q-191 0 -310 106q-119 105 -119 281q0 212 162 378q110 114 289 176q-41 116 -41 199q0 176 119 295t302 119q266 0 266 -235q0 -173 -147 -302q-87 -76 -257 -148q106 -305 233 -504q129 132 190 459h196q-86 -360 -315 -566 q65 -111 161 -221h-268zM914 202q-153 223 -274 588q-131 -58 -197 -132q-95 -106 -95 -257q0 -129 81 -209q81 -81 203 -81q111 0 282 91zM785 956q120 48 180 105q86 83 86 197q0 111 -112 111q-84 0 -136 -64q-53 -64 -53 -164q0 -73 35 -185z" />
<glyph unicode="'" horiz-adv-x="391" vert-adv-y="2465" d="M329 1036l59 543h247l-158 -543h-148z" />
<glyph unicode="(" horiz-adv-x="682" vert-adv-y="2465" d="M568 -160l-27 -136q-82 69 -126 124q-178 226 -178 579q0 397 247 761q168 246 432 411l-27 -136q-208 -193 -322 -439q-146 -318 -146 -685q0 -174 56 -313q31 -79 91 -166z" />
<glyph unicode=")" horiz-adv-x="682" vert-adv-y="2465" d="M371 1443l27 136q82 -69 125 -124q178 -226 178 -579q0 -397 -247 -761q-167 -246 -431 -411l27 136q208 192 321 439q146 317 146 685q0 175 -55 313q-32 80 -91 166z" />
<glyph unicode="*" horiz-adv-x="797" vert-adv-y="2465" d="M970 1289l17 -141l-291 -66q6 16 6 32q0 31 -16 50zM849 838l-137 -87l-103 267q51 6 80 51zM386 751l-103 87l253 231q10 -45 59 -51zM269 1148l74 141l234 -125q-43 -32 -43 -82zM621 1480h148l-93 -308q-18 11 -41 11q-22 0 -45 -11z" />
<glyph unicode="+" horiz-adv-x="1196" vert-adv-y="2465" d="M544 99l84 419h-420l30 148h419l84 420h148l-83 -420h419l-30 -148h-419l-84 -419h-148z" />
<glyph unicode="," horiz-adv-x="569" vert-adv-y="2465" d="M97 -321l15 74q100 28 141 227l4 20h-96l49 247h247l-43 -214q-67 -326 -317 -354z" />
<glyph unicode="-" horiz-adv-x="682" vert-adv-y="2465" d="M192 518l30 148h506l-30 -148h-506z" />
<glyph unicode="." horiz-adv-x="569" vert-adv-y="2465" d="M161 0l49 247h247l-49 -247h-247z" />
<glyph unicode="/" horiz-adv-x="569" vert-adv-y="2465" d="M-118 -296l888 1776h155l-889 -1776h-154z" />
<glyph unicode="0" vert-adv-y="2465" d="M878 1517q362 0 362 -492q0 -218 -71 -447q-70 -229 -181 -376q-181 -239 -429 -239q-153 0 -243 104q-113 129 -113 397q0 422 200 737q200 316 475 316zM849 1369q-175 0 -309 -293q-134 -294 -134 -657q0 -153 42 -227q47 -81 144 -81q110 0 203 112q106 128 174 383 q67 250 67 465q0 298 -187 298z" />
<glyph unicode="1" vert-adv-y="2465" d="M230 0l30 148h296l233 1168l-310 -74l30 152l518 123l-274 -1369h297l-30 -148h-790z" />
<glyph unicode="2" vert-adv-y="2465" d="M102 0l34 173q100 160 296 329l130 110l118 100q279 237 279 465q0 193 -195 193q-138 0 -375 -120l35 174q222 93 396 93q165 0 258 -83t93 -235q0 -157 -84 -283q-88 -132 -305 -296l-82 -62q-245 -188 -325 -385h593l-35 -173h-831z" />
<glyph unicode="3" vert-adv-y="2465" d="M156 11l37 184l6 -3l9 -4l25 -10q102 -40 139 -50q61 -17 112 -17q153 0 256 103q104 104 104 258q0 247 -331 247h-78l26 133l69 1q189 3 305 99q121 98 121 247q0 170 -202 170q-121 0 -323 -83l34 172q193 59 333 59q362 0 362 -276q0 -181 -141 -305 q-86 -74 -249 -134q93 -25 141 -53q147 -86 147 -259q0 -219 -170 -373q-171 -154 -413 -154q-115 0 -319 48z" />
<glyph unicode="4" vert-adv-y="2465" d="M688 0l84 419h-657l29 149l840 912h185l-180 -900h198l-32 -161h-198l-84 -419h-185zM340 580h477l131 658z" />
<glyph unicode="5" vert-adv-y="2465" d="M161 -6l36 176q140 -59 265 -59q167 0 277 114q111 113 111 277q0 265 -397 265q-55 0 -113 -7l144 720h748l-34 -172h-576l-78 -390q165 -4 259 -34q258 -82 258 -361q0 -246 -182 -403t-466 -157q-111 0 -252 31z" />
<glyph unicode="6" vert-adv-y="2465" d="M456 778q172 172 371 172q148 0 231 -85t83 -244q0 -272 -167 -465q-168 -193 -407 -193q-179 0 -275 121t-96 346q0 218 79 454q78 235 202 387q202 247 497 247q127 0 268 -56l-35 -172q-164 80 -266 80q-213 0 -348 -218q-54 -88 -91 -200q-18 -58 -46 -174zM749 808 q-153 0 -254 -121t-101 -302q0 -128 59 -201q58 -73 159 -73q147 0 238 136t91 350q0 211 -192 211z" />
<glyph unicode="7" vert-adv-y="2465" d="M222 0q64 172 143 298q78 127 258 347l534 650h-762l37 185h950l-37 -185q-736 -838 -896 -1295h-227z" />
<glyph unicode="8" vert-adv-y="2465" d="M557 806q-157 133 -157 272q0 180 154 309q154 130 372 130q161 0 257 -70q95 -70 95 -190q0 -147 -131 -281q-79 -81 -229 -170q117 -66 175 -132q84 -95 84 -217q0 -202 -173 -348t-422 -146q-193 0 -304 87q-110 86 -110 240q0 185 141 334q86 91 248 182zM821 868 q123 75 183 142q88 98 88 203q0 71 -60 113q-59 43 -155 43q-124 0 -206 -66q-82 -65 -82 -160q0 -102 147 -215q21 -17 55 -40zM648 726q-141 -96 -203 -175q-74 -95 -74 -219q0 -103 67 -162t182 -59q145 0 244 84q100 84 100 200q0 119 -192 248z" />
<glyph unicode="9" vert-adv-y="2465" d="M952 702q-172 -172 -371 -172q-147 0 -231 85q-83 85 -83 245q0 271 167 465q167 193 407 193q179 0 274 -121q96 -121 96 -346q0 -221 -78 -455q-78 -233 -203 -386q-204 -248 -496 -248q-127 0 -268 56l34 172q166 -79 266 -79q213 0 348 218q54 88 91 199 q19 58 47 174zM797 1369q-148 0 -239 -136t-91 -349q0 -212 192 -212q153 0 254 121t101 303q0 128 -59 200q-58 73 -158 73z" />
<glyph unicode=":" horiz-adv-x="569" vert-adv-y="2465" d="M186 0l39 197h198l-40 -197h-197zM364 888l39 198h198l-40 -198h-197z" />
<glyph unicode=";" horiz-adv-x="569" vert-adv-y="2465" d="M122 -321l15 74q75 39 115 224l5 23h-71l39 197h198l-33 -166q-62 -302 -268 -352zM364 888l39 198h198l-40 -198h-197z" />
<glyph unicode="&#x3c;" horiz-adv-x="1196" vert-adv-y="2465" d="M1111 99l-888 493l1086 494l-33 -166l-720 -327v-2l588 -327z" />
<glyph unicode="=" horiz-adv-x="1196" vert-adv-y="2465" d="M171 333l30 148h987l-30 -148h-987zM245 703l30 148h987l-30 -148h-987z" />
<glyph unicode="&#x3e;" horiz-adv-x="1196" vert-adv-y="2465" d="M322 1086l888 -494l-1086 -493l34 165l719 327v2l-588 327z" />
<glyph unicode="?" vert-adv-y="2465" d="M375 0l39 197h197l-39 -197h-197zM454 395l10 54q48 246 238 373l103 69q237 159 237 326q0 152 -239 152q-168 0 -407 -74l33 167q228 55 416 55q410 0 410 -275q0 -229 -259 -371l-91 -50q-112 -62 -159 -128q-48 -64 -73 -188l-22 -110h-197z" />
<glyph unicode="@" horiz-adv-x="2079" vert-adv-y="2465" d="M1274 44q-202 -81 -374 -81q-246 0 -388 134q-143 134 -143 365q0 305 278 628q173 200 402 313q232 115 461 115q238 0 388 -142q149 -141 149 -365q0 -273 -201 -494t-448 -221q-145 0 -145 95q0 43 43 125l66 126h-13q-257 -346 -460 -346q-150 0 -150 167 q0 202 209 454q217 261 459 261q22 0 62 -2q10 -1 22 -2q39 -2 67 -2h137l-254 -636q-21 -53 -21 -83q0 -46 68 -46q159 0 301 186q142 187 142 394q0 184 -128 301q-128 118 -330 118q-200 0 -404 -104q-201 -102 -355 -285q-230 -275 -230 -532q0 -190 122 -300 q123 -111 332 -111q157 0 320 72zM1412 833l77 195q-87 33 -153 33q-157 0 -283 -172q-151 -206 -151 -383q0 -87 58 -87q132 0 452 414z" />
<glyph unicode="A" horiz-adv-x="1366" vert-adv-y="2465" d="M19 0l858 1480h208l257 -1480h-226l-72 410h-594l-236 -410h-195zM541 566h476l-110 634z" />
<glyph unicode="B" horiz-adv-x="1366" vert-adv-y="2465" d="M165 0l296 1480h474q268 0 371 -57t103 -207q0 -194 -149 -316q-90 -73 -262 -129q142 -45 213 -104q102 -86 102 -219q0 -144 -93 -268q-80 -106 -189 -143q-108 -37 -340 -37h-526zM406 157h156q322 0 418 60q112 70 112 222q0 258 -407 258h-171zM541 830h179 q223 0 344 88t121 246q0 109 -106 138q-80 21 -246 21h-194z" />
<glyph unicode="C" horiz-adv-x="1479" vert-adv-y="2465" d="M1381 76q-251 -113 -523 -113q-602 0 -602 571q0 402 245 691q248 292 690 292q202 0 464 -65l-40 -197q-289 105 -468 105q-284 0 -454 -201q-208 -247 -208 -594q0 -438 436 -438q221 0 496 129z" />
<glyph unicode="D" horiz-adv-x="1479" vert-adv-y="2465" d="M165 0l296 1480h474q320 0 472 -125q153 -126 153 -396q0 -363 -228 -646q-253 -313 -690 -313h-477zM406 157h252q186 0 299 54q113 53 205 182q167 235 167 524q0 228 -119 317q-118 89 -415 89h-156z" />
<glyph unicode="E" horiz-adv-x="1366" vert-adv-y="2465" d="M191 0l296 1480h1073l-31 -157h-864l-95 -475h765l-32 -155h-764l-107 -536h907l-31 -157h-1117z" />
<glyph unicode="F" horiz-adv-x="1251" vert-adv-y="2465" d="M191 0l296 1480h1005l-31 -157h-796l-99 -496h696l-31 -155h-696l-134 -672h-210z" />
<glyph unicode="G" horiz-adv-x="1593" vert-adv-y="2465" d="M1556 688l-130 -648q-291 -77 -552 -77q-359 0 -517 174q-126 138 -126 395q0 391 231 673q256 312 731 312q247 0 513 -67l-39 -194q-300 104 -510 104q-314 0 -493 -205q-205 -236 -205 -600q0 -213 127 -324q126 -111 353 -111q114 0 301 37l75 377h-246l31 154h456z " />
<glyph unicode="H" horiz-adv-x="1479" vert-adv-y="2465" d="M165 0l296 1480h210l-125 -624h729l125 624h209l-296 -1480h-209l139 699h-728l-140 -699h-210z" />
<glyph unicode="I" horiz-adv-x="569" vert-adv-y="2465" d="M180 0l296 1480h210l-296 -1480h-210z" />
<glyph unicode="J" horiz-adv-x="1024" vert-adv-y="2465" d="M3 -232l37 181q156 -77 304 -77q154 0 221 63q65 61 102 245l260 1300h210l-259 -1293q-97 -483 -576 -483q-163 0 -299 64z" />
<glyph unicode="K" horiz-adv-x="1366" vert-adv-y="2465" d="M191 0l296 1480h197l-145 -728l760 728h211l-737 -706l544 -774h-266l-513 750l-150 -750h-197z" />
<glyph unicode="L" vert-adv-y="2465" d="M165 0l296 1480h210l-264 -1323h725l-31 -157h-936z" />
<glyph unicode="M" horiz-adv-x="1706" vert-adv-y="2465" d="M165 0l296 1480h291l178 -1145l647 1145h260l-296 -1480h-196l240 1203l-624 -1104h-203l-171 1108l-241 -1207h-181z" />
<glyph unicode="N" horiz-adv-x="1479" vert-adv-y="2465" d="M165 0l296 1480h205l534 -1143l229 1143h180l-296 -1480h-206l-533 1143l-229 -1143h-180z" />
<glyph unicode="O" horiz-adv-x="1593" vert-adv-y="2465" d="M1115 1517q268 0 417 -151q150 -150 150 -427q0 -411 -256 -693q-256 -283 -634 -283q-236 0 -380 123q-180 154 -180 455q0 408 256 692t627 284zM1079 1360q-266 0 -444 -238q-179 -238 -179 -581q0 -203 98 -312t273 -109q242 0 412 190q219 243 219 628 q0 209 -99 315q-99 107 -280 107z" />
<glyph unicode="P" horiz-adv-x="1366" vert-adv-y="2465" d="M167 0l296 1480h580q294 0 399 -59q106 -60 106 -229q0 -270 -205 -437q-204 -167 -540 -167h-309l-117 -588h-210zM526 747h300q225 0 358 106q134 107 134 284q0 130 -110 162q-84 24 -262 24h-305z" />
<glyph unicode="Q" horiz-adv-x="1593" vert-adv-y="2465" d="M1625 -129l-166 -167q-327 115 -531 269q-104 -11 -156 -11q-245 0 -392 156q-148 155 -148 425q0 403 255 689q255 285 624 285q269 0 421 -151q151 -151 151 -425q0 -346 -194 -616q-133 -185 -357 -295q225 -111 493 -159zM1079 1360q-265 0 -443 -238 q-179 -238 -179 -581q0 -205 98 -313t275 -108q269 0 449 238q179 237 179 588q0 181 -82 285q-100 129 -297 129z" />
<glyph unicode="R" horiz-adv-x="1479" vert-adv-y="2465" d="M165 0l296 1480h618q204 0 297 -69t93 -219q0 -181 -141 -334q-96 -103 -249 -165l355 -693h-258l-295 626h-381l-125 -626h-210zM531 783h236q165 0 250 32q85 31 149 114q81 106 81 216q0 98 -70 138q-69 40 -237 40h-301z" />
<glyph unicode="S" horiz-adv-x="1366" vert-adv-y="2465" d="M131 52l42 208q269 -140 558 -140q376 0 376 298q0 82 -72 132q-60 41 -190 87l-188 66q-315 111 -315 330q0 177 129 316q157 168 506 168q229 0 466 -63l-39 -193q-240 99 -474 99q-167 0 -260 -54q-51 -30 -82 -80q-34 -56 -34 -121q0 -61 38 -101q58 -63 202 -113 l192 -67q186 -65 266 -144q80 -78 80 -204q0 -221 -179 -367q-178 -146 -465 -146q-250 0 -557 89z" />
<glyph unicode="T" horiz-adv-x="1251" vert-adv-y="2465" d="M521 0l265 1323h-501l32 157h1210l-31 -157h-501l-264 -1323h-210z" />
<glyph unicode="U" horiz-adv-x="1479" vert-adv-y="2465" d="M464 1480h210l-187 -934q-25 -125 -25 -193q0 -233 327 -233q203 0 303 94q99 93 146 325l189 941h183l-187 -938q-39 -198 -99 -300q-60 -103 -180 -177q-164 -102 -402 -102q-489 0 -489 371q0 89 25 214z" />
<glyph unicode="V" horiz-adv-x="1366" vert-adv-y="2465" d="M607 0l-275 1480h216l229 -1215l695 1215h179l-846 -1480h-198z" />
<glyph unicode="W" horiz-adv-x="1933" vert-adv-y="2465" d="M406 0l-85 1480h202l69 -1169l581 1169h202l102 -1158l556 1158h171l-712 -1480h-208l-101 1141l-569 -1141h-208z" />
<glyph unicode="X" horiz-adv-x="1366" vert-adv-y="2465" d="M28 0l692 735l-372 745h248l287 -575l541 575h199l-671 -710l386 -770h-248l-300 598l-564 -598h-198z" />
<glyph unicode="Y" horiz-adv-x="1366" vert-adv-y="2465" d="M561 0l123 617l-358 863h240l284 -685l588 685h195l-738 -858l-124 -622h-210z" />
<glyph unicode="Z" horiz-adv-x="1251" vert-adv-y="2465" d="M101 0l34 169l1025 1154h-746l32 157h998l-31 -157l-1026 -1154h795l-34 -169h-1047z" />
<glyph unicode="[" horiz-adv-x="569" vert-adv-y="2465" d="M90 -296l375 1875h395l-30 -148h-222l-316 -1579h222l-29 -148h-395z" />
<glyph unicode="\" horiz-adv-x="569" vert-adv-y="2465" d="M569 -296h-154l-178 1776h155z" />
<glyph unicode="]" horiz-adv-x="569" vert-adv-y="2465" d="M736 1579l-375 -1875h-395l29 148h222l316 1579h-222l30 148h395z" />
<glyph unicode="^" horiz-adv-x="960" vert-adv-y="2465" d="M710 1149l-390 -557h-166l622 888l266 -888h-165z" />
<glyph unicode="_" vert-adv-y="2465" d="M-30 -148l30 148h1139l-30 -148h-1139z" />
<glyph unicode="`" horiz-adv-x="682" vert-adv-y="2465" d="M832 1283h-148l-257 321h228z" />
<glyph unicode="a" vert-adv-y="2465" d="M804 138q-217 -163 -392 -163q-120 0 -193 64q-73 63 -73 173q0 200 181 315t503 115h46l27 131q8 39 8 73q0 116 -175 116q-165 0 -371 -96l33 163q221 81 404 81q312 0 312 -214q0 -53 -14 -123l-99 -492q-12 -60 -12 -87q0 -82 82 -82q15 0 39 4l-8 -109 q-79 -32 -153 -32q-72 0 -109 40q-33 37 -36 123zM797 245l56 281l-65 2q-167 5 -289 -58q-140 -72 -140 -201q0 -133 150 -133q127 0 288 109z" />
<glyph unicode="b" vert-adv-y="2465" d="M492 703l-111 -554q133 -26 198 -26q167 0 278 171q111 172 111 421q0 223 -144 223q-128 0 -332 -235zM528 882q76 102 147 153q105 75 225 75q284 0 284 -369q0 -307 -181 -541q-175 -225 -470 -225q-88 0 -182 25l-199 -12l318 1591h197z" />
<glyph unicode="c" horiz-adv-x="1024" vert-adv-y="2465" d="M942 33q-192 -58 -353 -58q-186 0 -293 113q-107 112 -107 309q0 305 186 509t474 204q125 0 290 -36l-33 -164q-153 49 -250 49q-193 0 -318 -155q-126 -156 -126 -388q0 -282 268 -282q122 0 296 69z" />
<glyph unicode="d" vert-adv-y="2465" d="M870 382l111 555q-134 25 -197 25q-167 0 -278 -171t-111 -422q0 -221 143 -221q129 0 332 234zM834 203q-75 -101 -147 -153q-104 -75 -225 -75q-284 0 -284 370q0 307 181 541q174 224 470 224q90 0 182 -24l99 493h197l-316 -1579h-197z" />
<glyph unicode="e" vert-adv-y="2465" d="M964 660q13 82 13 121q0 182 -198 182q-152 0 -243 -110q-55 -67 -94 -193h522zM1066 191l-32 -156q-214 -60 -384 -60q-218 0 -336 115q-117 114 -117 327q0 289 179 491q178 202 438 202q354 0 354 -350q0 -94 -33 -248h-726q-8 -68 -8 -99q0 -288 319 -288 q153 0 346 66z" />
<glyph unicode="f" horiz-adv-x="569" vert-adv-y="2465" d="M175 0l188 938h-144l30 148h143l27 130q81 388 383 388q67 0 144 -26l-32 -157q-69 35 -118 35q-133 0 -176 -219l-30 -151h195l-29 -148h-196l-187 -938h-198z" />
<glyph unicode="g" vert-adv-y="2465" d="M880 432l101 505q-139 25 -197 25q-167 0 -273 -153q-106 -152 -106 -389q0 -223 143 -223q129 0 332 235zM845 253q-76 -102 -147 -153q-105 -75 -226 -75q-284 0 -284 371q0 277 163 490q172 224 475 224q94 0 185 -24h197l-157 -790q-71 -357 -162 -489 q-158 -226 -510 -226q-180 0 -351 58l34 171q198 -81 346 -81q330 0 402 353z" />
<glyph unicode="h" vert-adv-y="2465" d="M154 0l316 1579h197l-139 -697q209 228 416 228q222 0 222 -204q0 -61 -13 -126l-156 -780h-198l143 716q17 85 17 124q0 101 -103 101q-161 0 -364 -238l-141 -703h-197z" />
<glyph unicode="i" horiz-adv-x="455" vert-adv-y="2465" d="M129 0l217 1086h198l-218 -1086h-197zM386 1283l39 197h197l-39 -197h-197z" />
<glyph unicode="j" horiz-adv-x="455" vert-adv-y="2465" d="M-232 -387l32 156q72 -40 141 -40q98 0 136 76q30 60 57 195l218 1086h197l-217 -1086q-84 -419 -406 -419q-85 0 -158 32zM391 1283l40 197h197l-40 -197h-197z" />
<glyph unicode="k" horiz-adv-x="1024" vert-adv-y="2465" d="M154 0l316 1579h197l-204 -1020l469 527h189l-450 -513l335 -573h-240l-303 557l-112 -557h-197z" />
<glyph unicode="l" horiz-adv-x="455" vert-adv-y="2465" d="M129 0l316 1579h197l-316 -1579h-197z" />
<glyph unicode="m" horiz-adv-x="1706" vert-adv-y="2465" d="M154 0l217 1086h198l-41 -204q113 131 178 176q75 52 182 52q110 0 172 -60q55 -53 74 -168q113 130 179 176q73 52 183 52q237 0 237 -215q0 -50 -11 -105l-158 -790h-197l151 759q9 45 9 78q0 109 -116 109q-128 0 -308 -218l-145 -728h-198l152 759q9 45 9 78 q0 109 -116 109q-128 0 -308 -218l-146 -728h-197z" />
<glyph unicode="n" vert-adv-y="2465" d="M154 0l217 1086h198l-41 -204q209 228 416 228q222 0 222 -204q0 -61 -13 -126l-156 -780h-198l143 716q17 85 17 124q0 101 -103 101q-161 0 -364 -238l-141 -703h-197z" />
<glyph unicode="o" vert-adv-y="2465" d="M794 1110q186 0 289 -104q102 -104 102 -304q0 -308 -178 -517q-178 -210 -445 -210q-159 0 -257 87q-121 107 -121 321q0 302 176 515q176 212 434 212zM772 962q-162 0 -269 -172q-108 -172 -108 -417q0 -119 55 -185q55 -65 148 -65q142 0 244 136q132 177 132 453 q0 250 -202 250z" />
<glyph unicode="p" vert-adv-y="2465" d="M272 -395h-197l296 1481h198l-41 -204q76 102 147 153q105 75 225 75q284 0 284 -369q0 -307 -181 -541q-175 -225 -470 -225q-88 0 -182 25zM492 703l-111 -554q133 -26 198 -26q167 0 278 171q111 172 111 421q0 223 -144 223q-128 0 -332 -235z" />
<glyph unicode="q" vert-adv-y="2465" d="M1011 1086h197l-296 -1481h-197l119 598q-75 -101 -147 -153q-104 -75 -225 -75q-284 0 -284 370q0 307 181 541q174 224 470 224q90 0 182 -24zM870 382l111 555q-134 25 -197 25q-167 0 -278 -171t-111 -422q0 -221 143 -221q129 0 332 234z" />
<glyph unicode="r" horiz-adv-x="682" vert-adv-y="2465" d="M154 0l217 1086h197l-40 -204q141 228 306 228q19 0 55 -5l-37 -184q-49 17 -79 17q-111 0 -279 -222l-143 -716h-197z" />
<glyph unicode="s" horiz-adv-x="1024" vert-adv-y="2465" d="M124 38l36 181q179 -96 346 -96q114 0 180 38q85 49 85 149q0 59 -51 96q-30 21 -80 39l-164 58q-199 70 -199 246q0 166 129 263q129 98 353 98q118 0 282 -32l-33 -165q-142 49 -292 49q-237 0 -237 -159q0 -79 116 -120l146 -51q234 -82 234 -272q0 -166 -142 -275 q-142 -110 -363 -110q-159 0 -346 63z" />
<glyph unicode="t" horiz-adv-x="569" vert-adv-y="2465" d="M529 -6q-63 -19 -117 -19q-214 0 -214 192q0 57 15 133l127 638h-123l30 148h123l40 197l201 19l-44 -216h210l-29 -148h-210l-121 -602q-18 -90 -18 -129q0 -84 90 -84q38 0 68 11z" />
<glyph unicode="u" vert-adv-y="2465" d="M788 0l41 203q-209 -228 -417 -228q-222 0 -222 207q0 54 14 124l156 780h197l-143 -716q-17 -85 -17 -124q0 -101 103 -101q162 0 364 237l141 704h197l-217 -1086h-197z" />
<glyph unicode="v" horiz-adv-x="1024" vert-adv-y="2465" d="M404 0l-168 1086h200l131 -845l487 845h175l-628 -1086h-197z" />
<glyph unicode="w" horiz-adv-x="1479" vert-adv-y="2465" d="M273 0l-45 1086h193l33 -818l413 818h197l56 -821l392 821h170l-522 -1086h-198l-62 841l-428 -841h-199z" />
<glyph unicode="x" horiz-adv-x="1024" vert-adv-y="2465" d="M28 0l468 574l-239 512h228l191 -407l325 407h183l-442 -547l251 -539h-227l-207 436l-349 -436h-182z" />
<glyph unicode="y" horiz-adv-x="1024" vert-adv-y="2465" d="M403 0l-168 1086h200l129 -833l490 833h174l-870 -1481h-205z" />
<glyph unicode="z" horiz-adv-x="1024" vert-adv-y="2465" d="M74 0l30 148l778 790h-590l30 148h833l-30 -148l-778 -790h633l-30 -148h-876z" />
<glyph unicode="{" horiz-adv-x="684" vert-adv-y="2465" d="M168 716h61q195 1 197 301l-2 87q2 475 459 475l-29 -148h-53q-187 -1 -189 -219l-3 -102q-5 -142 -37 -223q-58 -147 -192 -245q95 -103 95 -221q0 -106 -53 -248l-38 -102q-34 -91 -34 -121q0 -98 135 -98h53l-30 -148q-143 4 -217 45q-109 62 -109 206q0 90 57 224 l37 87q49 115 49 190q0 112 -125 112h-62z" />
<glyph unicode="|" horiz-adv-x="532" vert-adv-y="2465" d="M133 -296l375 1875h148l-375 -1875h-148z" />
<glyph unicode="}" horiz-adv-x="684" vert-adv-y="2465" d="M773 568h-62q-195 -1 -196 -302l2 -87q-1 -475 -460 -475l30 148h53q187 1 189 219l3 102q5 142 37 223q58 147 192 246q-95 101 -95 220q0 106 53 248l38 102q34 91 34 122q0 97 -135 97h-53l29 148q145 -4 219 -46q108 -62 108 -205q0 -84 -58 -224l-36 -87 q-50 -121 -50 -191q0 -110 126 -110h62z" />
<glyph unicode="~" horiz-adv-x="1196" vert-adv-y="2465" d="M341 444h-148q25 107 56 162q92 166 275 166q98 0 185 -69l97 -77l57 -46q25 -20 70 -20q112 0 158 180h148q-26 -107 -56 -162q-92 -166 -274 -166q-100 0 -186 69l-96 77l-58 46q-25 20 -69 20q-112 0 -159 -180z" />
<glyph vert-adv-y="2465" d="M484 537q3 -131 27 -206q65 -204 287 -204q127 0 322 72l-35 -172q-208 -64 -346 -64q-277 0 -386 189q-76 131 -71 319l2 66h-177l76 123h111q15 93 43 197h-166l76 124h132q66 150 121 227q218 307 585 307q127 0 288 -44l-36 -182q-154 71 -279 71q-182 0 -318 -137 q-83 -83 -161 -242h568l-76 -124h-537q-27 -101 -43 -197h459l-76 -123h-390z" />
<glyph unicode="&#xa0;" horiz-adv-x="569" vert-adv-y="2465" />
<glyph unicode="&#xa1;" horiz-adv-x="682" vert-adv-y="2465" d="M657 1086l-40 -198h-197l39 198h198zM553 691l-133 -790l-60 -296h-197l59 296l183 790h148z" />
<glyph unicode="&#xa2;" vert-adv-y="2465" d="M634 0l35 173q-154 18 -243 109q-116 119 -116 326q0 311 215 515q144 137 369 172l37 185h98l-37 -185q133 -6 275 -46l-33 -166q-165 60 -270 70l-168 -840q136 0 297 67l-30 -149q-160 -58 -295 -58l-35 -173h-99zM863 1144q-131 -18 -220 -144q-121 -171 -121 -409 q0 -130 65 -199q39 -40 112 -68z" />
<glyph unicode="&#xa3;" vert-adv-y="2465" d="M121 0l35 173q223 68 273 316l45 227h-179l30 148h178l44 215q90 438 480 438q103 0 222 -30l-34 -167q-120 49 -226 49q-187 0 -233 -230l-55 -275h216l-30 -148h-216l-25 -127q-36 -181 -101 -268q-54 -76 -155 -148h611l-35 -173h-845z" />
<glyph unicode="&#xa4;" vert-adv-y="2465" d="M455 449l-188 -156l-69 87l187 156q-30 71 -30 136q0 133 111 272l-124 156l104 88l125 -156q110 63 217 63t191 -63l188 156l70 -88l-188 -156q30 -71 30 -135q0 -134 -111 -273l124 -156l-104 -87l-125 156q-111 -64 -217 -64q-105 0 -191 64zM762 972q-111 0 -196 -85 q-86 -85 -86 -194q0 -81 54 -133q53 -52 136 -52q101 0 180 68q104 89 104 212q0 81 -54 132q-53 52 -138 52z" />
<glyph unicode="&#xa5;" vert-adv-y="2465" d="M452 0l69 345h-296l24 124h296l30 148h-296l25 123h296l-280 740h228l211 -558h2l434 558h178l-576 -740h296l-24 -123h-297l-29 -148h296l-25 -124h-296l-69 -345h-197z" />
<glyph unicode="&#xa6;" horiz-adv-x="532" vert-adv-y="2465" d="M133 -296l148 740h148l-148 -740h-148zM360 839l148 740h148l-148 -740h-148z" />
<glyph unicode="&#xa7;" vert-adv-y="2465" d="M77 -260l36 180q230 -105 391 -105q140 0 234 59t94 150q0 63 -50 99q-40 30 -142 78l-161 76q-229 108 -229 281q0 170 212 354q-98 78 -98 188q0 173 160 295q159 122 390 122q145 0 334 -47l-32 -160q-195 59 -333 59q-143 0 -237 -61t-94 -153q0 -86 143 -149 l124 -55q170 -75 234 -139q66 -66 66 -162q0 -168 -217 -373q115 -81 115 -213q0 -173 -161 -285q-160 -113 -400 -113q-153 0 -379 74zM816 341q117 127 117 228t-181 184l-203 93q-114 -117 -114 -216q0 -112 187 -199z" />
<glyph unicode="&#xa8;" horiz-adv-x="682" vert-adv-y="2465" d="M314 1283l34 173h173l-35 -173h-172zM708 1283l35 173h173l-35 -173h-173z" />
<glyph unicode="&#xa9;" horiz-adv-x="1509" vert-adv-y="2465" d="M1062 1480q262 0 433 -169t171 -426q0 -344 -277 -614q-277 -271 -633 -271q-233 0 -394 137q-205 175 -205 460q0 344 277 613q277 270 628 270zM1036 1375q-358 0 -601 -311q-169 -216 -169 -439q0 -228 142 -373q142 -146 373 -146q326 0 555 250q221 240 221 497 q0 232 -143 377t-378 145zM1106 364q-146 -47 -258 -47q-149 0 -239 89q-90 88 -90 237q0 214 147 364q146 150 359 150q93 0 210 -24l24 -5l-23 -118q-121 53 -216 53q-151 0 -254 -119q-104 -120 -104 -288q0 -233 237 -233q108 0 231 59z" />
<glyph unicode="&#xaa;" horiz-adv-x="758" vert-adv-y="2465" d="M671 915q-121 -93 -225 -93q-159 0 -159 147q0 121 107 195q107 73 284 73h49l14 70q4 20 4 40q0 70 -101 70q-99 0 -225 -59l23 111q136 49 249 49q206 0 206 -141q0 -31 -7 -66l-60 -298q-6 -30 -6 -46q0 -47 44 -45h5q9 1 21 2l-11 -83q-57 -19 -101 -19 q-97 0 -106 93h-5zM679 996l30 154h-38q-102 0 -166 -39t-64 -103q0 -76 80 -76q66 0 158 64z" />
<glyph unicode="&#xab;" vert-adv-y="2465" d="M1185 913l-370 -370l222 -370l-114 -74l-306 444l484 444zM790 913l-370 -370l222 -370l-113 -74l-306 444l483 444z" />
<glyph unicode="&#xac;" horiz-adv-x="1196" vert-adv-y="2465" d="M234 740l30 148h987l-119 -592h-148l89 444h-839z" />
<glyph unicode="&#xad;" horiz-adv-x="682" vert-adv-y="2465" d="M192 518l30 148h506l-30 -148h-506z" />
<glyph unicode="&#xae;" horiz-adv-x="1509" vert-adv-y="2465" d="M1062 1480q262 0 433 -169t171 -426q0 -344 -277 -614q-277 -271 -633 -271q-233 0 -394 137q-205 175 -205 460q0 344 277 613q277 270 628 270zM1036 1375q-358 0 -601 -311q-169 -216 -169 -439q0 -228 142 -373q142 -146 373 -146q326 0 555 250q221 240 221 497 q0 232 -143 377t-378 145zM587 337l160 800h252q208 0 208 -151q0 -164 -192 -277l166 -372h-148l-150 334h-101l-66 -334h-129zM794 770h36q247 0 247 187q0 98 -155 98h-72z" />
<glyph unicode="&#xaf;" vert-adv-y="2465" d="M390 1456l30 148h941l-30 -148h-941z" />
<glyph unicode="&#xb0;" horiz-adv-x="819" vert-adv-y="2465" d="M720 1518q105 0 173 -68q69 -68 69 -172q0 -137 -112 -245t-252 -108q-94 0 -159 55q-81 70 -81 184q0 138 111 246q110 108 251 108zM698 1394q-84 0 -150 -63q-65 -63 -65 -145q0 -137 139 -137q75 0 135 51q79 67 79 157q0 137 -138 137z" />
<glyph unicode="&#xb1;" horiz-adv-x="1196" vert-adv-y="2465" d="M583 296l74 370h-420l30 148h419l74 370h149l-75 -370h420l-30 -148h-419l-74 -370h-148zM104 0l30 148h987l-30 -148h-987z" />
<glyph unicode="&#xb2;" horiz-adv-x="682" vert-adv-y="2465" d="M192 592l25 122q90 117 226 219l82 62q211 159 211 296q0 110 -134 110q-95 0 -239 -69l23 117q143 54 264 54q245 0 245 -192q0 -165 -247 -344l-61 -44q-155 -110 -198 -209h389l-24 -122h-562z" />
<glyph unicode="&#xb3;" horiz-adv-x="682" vert-adv-y="2465" d="M357 1353l22 112q121 38 234 38q244 0 244 -171q0 -178 -240 -261q104 -28 145 -83q32 -44 32 -110q0 -132 -108 -220t-276 -88q-100 0 -216 29l24 122q124 -51 199 -51q92 0 156 58q64 57 64 141q0 146 -227 146h-51l19 93h44q131 0 205 52q75 52 75 140q0 103 -132 103 q-92 0 -213 -50z" />
<glyph unicode="&#xb4;" horiz-adv-x="682" vert-adv-y="2465" d="M363 1283l304 321h229l-385 -321h-148z" />
<glyph unicode="&#xb5;" vert-adv-y="2465" d="M359 1086h197l-143 -716q-17 -85 -17 -124q0 -101 103 -101q162 0 364 237l141 704h197l-217 -1086h-197l41 203q-202 -222 -365 -222q-61 0 -119 44l-84 -420h-197z" />
<glyph unicode="&#xb6;" horiz-adv-x="1100" vert-adv-y="2465" d="M452 -296l208 1036q-110 11 -167 34q-180 75 -180 288q0 167 99 287q62 75 147 103t249 28h394l-355 -1776h-123l330 1653h-148l-330 -1653h-124z" />
<glyph unicode="&#xb7;" horiz-adv-x="569" vert-adv-y="2465" d="M260 491l50 247h246l-49 -247h-247z" />
<glyph unicode="&#xb8;" horiz-adv-x="682" vert-adv-y="2465" d="M284 0h97l-82 -109q165 -12 165 -135q0 -74 -72 -131q-73 -57 -167 -57q-68 0 -139 21l16 81q48 -15 102 -15q119 0 119 85q0 82 -169 85z" />
<glyph unicode="&#xb9;" horiz-adv-x="682" vert-adv-y="2465" d="M440 592l152 759l-208 -49l23 114l363 87l-182 -911h-148z" />
<glyph unicode="&#xba;" horiz-adv-x="748" vert-adv-y="2465" d="M684 1517q237 0 237 -255q0 -186 -110 -313t-275 -127q-233 0 -233 255q0 186 110 313q109 127 271 127zM662 1416q-86 0 -145 -104q-59 -103 -59 -247q0 -141 103 -141q76 0 132 82q73 107 73 269q0 141 -104 141z" />
<glyph unicode="&#xbb;" vert-adv-y="2465" d="M170 173l370 370l-222 370l113 74l306 -444l-484 -444zM564 173l370 370l-222 370l114 74l306 -444l-484 -444z" />
<glyph unicode="&#xbc;" horiz-adv-x="1708" vert-adv-y="2465" d="M433 592l152 759l-208 -49l23 114l363 87l-182 -911h-148zM1326 0l48 242h-407l23 113l510 533h139l-106 -529h124l-23 -117h-124l-48 -242h-136zM1120 359h278l73 364zM184 -37l1399 1554h135l-1398 -1554h-136z" />
<glyph unicode="&#xbd;" horiz-adv-x="1708" vert-adv-y="2465" d="M1020 0l24 122q88 114 226 219l83 62q210 157 210 295q0 111 -134 111q-92 0 -239 -69l24 117q143 53 263 53q246 0 246 -192q0 -170 -247 -344l-61 -43q-155 -109 -198 -209h389l-25 -122h-561zM134 -37l1399 1554h135l-1398 -1554h-136zM433 592l151 759l-207 -49 l23 114l363 87l-182 -911h-148z" />
<glyph unicode="&#xbe;" horiz-adv-x="1708" vert-adv-y="2465" d="M394 1353l22 112q122 38 234 38q244 0 244 -171q0 -178 -240 -261q104 -28 145 -83q32 -44 32 -110q0 -132 -108 -220t-275 -88q-101 0 -217 29l24 122q124 -51 199 -51q93 0 156 58q64 57 64 141q0 146 -227 146h-51l19 93h44q131 0 205 52q75 52 75 140q0 103 -132 103 q-92 0 -213 -50zM1338 0l48 242h-407l23 113l510 533h139l-106 -529h124l-24 -117h-123l-49 -242h-135zM1132 359h278l72 364zM276 -37l1399 1554h135l-1398 -1554h-136z" />
<glyph unicode="&#xbf;" horiz-adv-x="1251" vert-adv-y="2465" d="M1045 1086l-39 -198h-197l39 198h197zM967 691l-11 -55q-49 -244 -238 -372l-103 -69q-237 -159 -237 -325q0 -154 240 -154q168 0 406 75l-33 -167q-230 -56 -417 -56q-409 0 -409 276q0 229 259 371l91 50q111 61 159 127q49 65 73 188l22 111h198z" />
<glyph unicode="&#xc0;" horiz-adv-x="1366" vert-adv-y="2465" d="M19 0l858 1480h208l257 -1480h-226l-72 410h-594l-236 -410h-195zM541 566h476l-110 634zM1154 1604h-148l-257 321h229z" />
<glyph unicode="&#xc1;" horiz-adv-x="1366" vert-adv-y="2465" d="M19 0l858 1480h208l257 -1480h-226l-72 410h-594l-236 -410h-195zM541 566h476l-110 634zM858 1604l304 321h229l-385 -321h-148z" />
<glyph unicode="&#xc2;" horiz-adv-x="1366" vert-adv-y="2465" d="M19 0l858 1480h208l257 -1480h-226l-72 410h-594l-236 -410h-195zM541 566h476l-110 634zM656 1604l305 321h218l177 -321h-149l-160 201h-2l-241 -201h-148z" />
<glyph unicode="&#xc3;" horiz-adv-x="1366" vert-adv-y="2465" d="M19 0l858 1480h208l257 -1480h-226l-72 410h-594l-236 -410h-195zM541 566h476l-110 634zM673 1604q25 93 60 143q64 91 173 91q71 0 126 -38l53 -37q50 -35 80 -35q65 0 97 110h124q-25 -92 -60 -142q-63 -92 -174 -92q-73 0 -126 38l-52 37q-49 35 -81 35 q-64 0 -97 -110h-123z" />
<glyph unicode="&#xc4;" horiz-adv-x="1366" vert-adv-y="2465" d="M19 0l858 1480h208l257 -1480h-226l-72 410h-594l-236 -410h-195zM541 566h476l-110 634zM722 1604l34 173h173l-34 -173h-173zM1117 1604l34 173h173l-34 -173h-173z" />
<glyph unicode="&#xc5;" horiz-adv-x="1366" vert-adv-y="2465" d="M19 0l858 1480h208l257 -1480h-226l-72 410h-594l-236 -410h-195zM541 566h476l-110 634zM1073 1935q81 0 133 -52q52 -51 52 -131q0 -106 -85 -188q-85 -83 -193 -83q-73 0 -123 42q-62 52 -62 140q0 107 84 189q85 83 194 83zM1056 1848q-67 0 -120 -51t-53 -118 q0 -112 113 -112q62 0 110 42q64 54 64 129q0 110 -114 110z" />
<glyph unicode="&#xc6;" horiz-adv-x="2048" vert-adv-y="2465" d="M711 569h418l132 658zM19 0l1236 1480h988l-32 -157h-722l-95 -475h623l-31 -155h-623l-107 -536h766l-32 -157h-975l83 414h-517l-345 -414h-217z" />
<glyph unicode="&#xc7;" horiz-adv-x="1479" vert-adv-y="2465" d="M1381 76q-253 -113 -523 -113q-602 0 -602 571q0 402 245 691q248 292 690 292q202 0 464 -65l-40 -197q-289 105 -468 105q-312 0 -489 -243q-176 -242 -176 -552q0 -438 439 -438q221 0 496 129zM781 0h96l-82 -109q165 -12 165 -134q0 -75 -72 -132t-165 -57 q-68 0 -141 21l17 81q44 -15 100 -15q121 0 121 87q0 80 -170 83z" />
<glyph unicode="&#xc8;" horiz-adv-x="1366" vert-adv-y="2465" d="M191 0l296 1480h1073l-31 -157h-864l-95 -475h765l-32 -155h-764l-107 -536h907l-31 -157h-1117zM1215 1604h-148l-257 321h229z" />
<glyph unicode="&#xc9;" horiz-adv-x="1366" vert-adv-y="2465" d="M191 0l296 1480h1073l-31 -157h-864l-95 -475h765l-32 -155h-764l-107 -536h907l-31 -157h-1117zM919 1604l305 321h228l-385 -321h-148z" />
<glyph unicode="&#xca;" horiz-adv-x="1366" vert-adv-y="2465" d="M191 0l296 1480h1073l-31 -157h-864l-95 -475h765l-32 -155h-764l-107 -536h907l-31 -157h-1117zM719 1604l305 321h219l176 -321h-148l-160 201h-3l-241 -201h-148z" />
<glyph unicode="&#xcb;" horiz-adv-x="1366" vert-adv-y="2465" d="M191 0l296 1480h1073l-31 -157h-864l-95 -475h765l-32 -155h-764l-107 -536h907l-31 -157h-1117zM771 1604l34 173h173l-34 -173h-173zM1166 1604l34 173h173l-35 -173h-172z" />
<glyph unicode="&#xcc;" horiz-adv-x="569" vert-adv-y="2465" d="M180 0l296 1480h210l-296 -1480h-210zM754 1604h-148l-257 321h228z" />
<glyph unicode="&#xcd;" horiz-adv-x="569" vert-adv-y="2465" d="M180 0l296 1480h210l-296 -1480h-210zM457 1604l305 321h229l-385 -321h-149z" />
<glyph unicode="&#xce;" horiz-adv-x="569" vert-adv-y="2465" d="M180 0l296 1480h210l-296 -1480h-210zM256 1604l305 321h218l177 -321h-149l-160 201h-2l-241 -201h-148z" />
<glyph unicode="&#xcf;" horiz-adv-x="569" vert-adv-y="2465" d="M180 0l296 1480h210l-296 -1480h-210zM322 1604l34 173h173l-34 -173h-173zM717 1604l34 173h173l-35 -173h-172z" />
<glyph unicode="&#xd0;" horiz-adv-x="1479" vert-adv-y="2465" d="M166 0l136 679h-161l32 157h160l129 644h474q320 0 472 -125q153 -126 153 -396q0 -363 -228 -646q-252 -313 -690 -313h-477zM407 157h252q186 0 299 54q113 53 205 182q167 235 167 524q0 228 -119 317q-118 89 -415 89h-156l-97 -487h333l-31 -157h-333z" />
<glyph unicode="&#xd1;" horiz-adv-x="1479" vert-adv-y="2465" d="M165 0l296 1480h205l534 -1143l229 1143h180l-296 -1480h-206l-533 1143l-229 -1143h-180zM752 1604q26 93 61 143q64 91 172 91q74 0 127 -38l52 -37q49 -35 81 -35q64 0 97 110h123q-26 -94 -61 -144q-63 -90 -172 -90q-72 0 -126 38l-53 37q-50 35 -81 35 q-63 0 -96 -110h-124z" />
<glyph unicode="&#xd2;" horiz-adv-x="1593" vert-adv-y="2465" d="M1115 1517q268 0 417 -151q150 -150 150 -427q0 -411 -256 -693q-256 -283 -634 -283q-236 0 -380 124q-180 154 -180 455q0 407 256 691t627 284zM1079 1360q-267 0 -446 -238t-179 -578q0 -204 98 -314t275 -110q243 0 414 189q219 243 219 628q0 208 -99 316 q-99 107 -282 107zM1278 1604h-148l-257 321h228z" />
<glyph unicode="&#xd3;" horiz-adv-x="1593" vert-adv-y="2465" d="M982 1604l304 321h229l-385 -321h-148zM1115 1517q268 0 417 -151q150 -150 150 -427q0 -411 -256 -693q-256 -283 -634 -283q-236 0 -380 124q-180 154 -180 455q0 407 256 691t627 284zM1079 1360q-267 0 -446 -238t-179 -578q0 -204 98 -314t275 -110q243 0 414 189 q219 243 219 628q0 208 -99 316q-99 107 -282 107z" />
<glyph unicode="&#xd4;" horiz-adv-x="1593" vert-adv-y="2465" d="M1115 1517q268 0 417 -151q150 -150 150 -427q0 -411 -256 -693q-256 -283 -634 -283q-236 0 -380 124q-180 154 -180 455q0 407 256 691t627 284zM1079 1360q-267 0 -446 -238t-179 -578q0 -204 98 -314t275 -110q243 0 414 189q219 243 219 628q0 208 -99 316 q-99 107 -282 107zM780 1604l305 321h218l177 -321h-149l-160 201h-2l-241 -201h-148z" />
<glyph unicode="&#xd5;" horiz-adv-x="1593" vert-adv-y="2465" d="M1115 1517q268 0 417 -151q150 -150 150 -427q0 -411 -256 -693q-256 -283 -634 -283q-236 0 -380 124q-180 154 -180 455q0 407 256 691t627 284zM1079 1360q-267 0 -446 -238t-179 -578q0 -204 98 -314t275 -110q243 0 414 189q219 243 219 628q0 208 -99 316 q-99 107 -282 107zM797 1604q25 93 60 143q64 91 173 91q72 0 126 -38l53 -37q50 -35 80 -35q65 0 97 110h124q-26 -94 -62 -144q-63 -90 -172 -90q-73 0 -126 38l-52 37q-49 35 -81 35q-64 0 -97 -110h-123z" />
<glyph unicode="&#xd6;" horiz-adv-x="1593" vert-adv-y="2465" d="M1115 1517q268 0 417 -151q150 -150 150 -427q0 -411 -256 -693q-256 -283 -634 -283q-236 0 -380 124q-180 154 -180 455q0 407 256 691t627 284zM1079 1360q-267 0 -446 -238t-179 -578q0 -204 98 -314t275 -110q243 0 414 189q219 243 219 628q0 208 -99 316 q-99 107 -282 107zM846 1604l35 173h172l-34 -173h-173zM1241 1604l34 173h173l-34 -173h-173z" />
<glyph unicode="&#xd7;" horiz-adv-x="1196" vert-adv-y="2465" d="M162 217l451 375l-301 375l126 105l300 -375l450 375l84 -105l-450 -375l300 -375l-126 -105l-300 375l-450 -375z" />
<glyph unicode="&#xd8;" horiz-adv-x="1593" vert-adv-y="2465" d="M96 -37l218 221q-95 153 -95 358q0 407 255 691t626 284q240 0 399 -133l132 133h173l-225 -227q90 -151 90 -353q0 -406 -255 -690t-627 -284q-232 0 -392 128l-127 -128h-172zM537 235q106 -115 281 -115q269 0 448 237q179 238 179 586q0 104 -27 184zM1357 1240 q-110 120 -287 120q-269 0 -447 -237q-179 -236 -179 -585q0 -108 29 -193z" />
<glyph unicode="&#xd9;" horiz-adv-x="1479" vert-adv-y="2465" d="M464 1480h210l-187 -934q-25 -125 -25 -193q0 -233 327 -233q203 0 303 94q99 93 146 325l189 941h183l-187 -938q-39 -198 -99 -300q-60 -103 -180 -177q-164 -102 -402 -102q-489 0 -489 371q0 89 25 214zM1223 1604h-148l-257 321h229z" />
<glyph unicode="&#xda;" horiz-adv-x="1479" vert-adv-y="2465" d="M464 1480h210l-187 -934q-25 -125 -25 -193q0 -233 327 -233q203 0 303 94q99 93 146 325l189 941h183l-187 -938q-39 -198 -99 -300q-60 -103 -180 -177q-164 -102 -402 -102q-489 0 -489 371q0 89 25 214zM927 1604l304 321h229l-385 -321h-148z" />
<glyph unicode="&#xdb;" horiz-adv-x="1479" vert-adv-y="2465" d="M464 1480h210l-187 -934q-25 -125 -25 -193q0 -233 327 -233q203 0 303 94q99 93 146 325l189 941h183l-187 -938q-39 -198 -99 -300q-60 -103 -180 -177q-164 -102 -402 -102q-489 0 -489 371q0 89 25 214zM725 1604l305 321h218l177 -321h-148l-161 201h-2l-241 -201 h-148z" />
<glyph unicode="&#xdc;" horiz-adv-x="1479" vert-adv-y="2465" d="M464 1480h210l-187 -934q-25 -125 -25 -193q0 -233 327 -233q203 0 303 94q99 93 146 325l189 941h183l-187 -938q-39 -198 -99 -300q-60 -103 -180 -177q-164 -102 -402 -102q-489 0 -489 371q0 89 25 214zM791 1604l35 173h172l-34 -173h-173zM1186 1604l35 173h172 l-34 -173h-173z" />
<glyph unicode="&#xdd;" horiz-adv-x="1366" vert-adv-y="2465" d="M561 0l123 617l-358 863h240l284 -685l588 685h195l-738 -858l-124 -622h-210zM864 1604l304 321h229l-385 -321h-148z" />
<glyph unicode="&#xde;" horiz-adv-x="1366" vert-adv-y="2465" d="M167 0l296 1480h210l-56 -279h370q294 0 399 -59q106 -60 106 -230q0 -270 -205 -437q-204 -167 -540 -167h-310l-62 -308h-208zM469 467h301q225 0 358 106q134 107 134 284q0 130 -110 162q-84 24 -262 24h-306z" />
<glyph unicode="&#xdf;" horiz-adv-x="1251" vert-adv-y="2465" d="M129 0l230 1151q51 255 162 354t346 99q335 0 335 -216q0 -156 -189 -325q-139 -124 -139 -195q0 -46 84 -119l157 -137q119 -104 119 -242q0 -176 -122 -285q-121 -110 -330 -110q-163 0 -289 55l34 172q172 -79 288 -79q124 0 181 63q44 48 44 127q0 78 -82 152 l-182 164q-91 82 -91 166q0 114 167 289q145 152 145 259q0 113 -170 113q-117 0 -173 -49q-56 -50 -81 -173l-247 -1234h-197z" />
<glyph unicode="&#xe0;" vert-adv-y="2465" d="M146 0zM804 138q-217 -163 -392 -163q-120 0 -193 64q-73 63 -73 173q0 200 181 315t503 115h46l27 131q8 39 8 73q0 116 -175 116q-165 0 -371 -96l33 163q221 81 404 81q312 0 312 -214q0 -53 -14 -123l-99 -492q-12 -60 -12 -87q0 -82 82 -82q15 0 39 4l-8 -109 q-79 -32 -153 -32q-72 0 -109 40q-33 37 -36 123zM797 245l56 281l-65 2q-167 5 -289 -58q-140 -72 -140 -201q0 -133 150 -133q127 0 288 109zM986 1283h-148l-257 321h228z" />
<glyph unicode="&#xe1;" vert-adv-y="2465" d="M146 0zM804 138q-217 -163 -392 -163q-120 0 -193 64q-73 63 -73 173q0 200 181 315t503 115h46l27 131q8 39 8 73q0 116 -175 116q-165 0 -371 -96l33 163q221 81 404 81q312 0 312 -214q0 -53 -14 -123l-99 -492q-12 -60 -12 -87q0 -82 82 -82q15 0 39 4l-8 -109 q-79 -32 -153 -32q-72 0 -109 40q-33 37 -36 123zM797 245l56 281l-65 2q-167 5 -289 -58q-140 -72 -140 -201q0 -133 150 -133q127 0 288 109zM690 1283l304 321h229l-385 -321h-148z" />
<glyph unicode="&#xe2;" vert-adv-y="2465" d="M146 0zM804 138q-217 -163 -392 -163q-120 0 -193 64q-73 63 -73 173q0 200 181 315t503 115h46l27 131q8 39 8 73q0 116 -175 116q-165 0 -371 -96l33 163q221 81 404 81q312 0 312 -214q0 -53 -14 -123l-99 -492q-12 -60 -12 -87q0 -82 82 -82q15 0 39 4l-8 -109 q-79 -32 -153 -32q-72 0 -109 40q-33 37 -36 123zM797 245l56 281l-65 2q-167 5 -289 -58q-140 -72 -140 -201q0 -133 150 -133q127 0 288 109zM488 1283l304 321h219l176 -321h-148l-160 202h-2l-241 -202h-148z" />
<glyph unicode="&#xe3;" vert-adv-y="2465" d="M146 0zM804 138q-217 -163 -392 -163q-120 0 -193 64q-73 63 -73 173q0 200 181 315t503 115h46l27 131q8 39 8 73q0 116 -175 116q-165 0 -371 -96l33 163q221 81 404 81q312 0 312 -214q0 -53 -14 -123l-99 -492q-12 -60 -12 -87q0 -82 82 -82q15 0 39 4l-8 -109 q-79 -32 -153 -32q-72 0 -109 40q-33 37 -36 123zM797 245l56 281l-65 2q-167 5 -289 -58q-140 -72 -140 -201q0 -133 150 -133q127 0 288 109zM474 1283q25 93 60 143q64 91 173 91q71 0 126 -38l53 -37q50 -35 80 -35q64 0 97 110h124q-25 -92 -60 -142q-63 -92 -174 -92 q-71 0 -126 39l-52 37q-48 34 -81 34q-65 0 -97 -110h-123z" />
<glyph unicode="&#xe4;" vert-adv-y="2465" d="M804 138q-217 -163 -393 -163q-120 0 -192 64q-73 63 -73 172q0 201 181 316t503 115h46l26 131q8 41 8 73q0 116 -175 116q-164 0 -370 -96l32 163q223 81 405 81q312 0 312 -215q0 -47 -15 -122l-98 -492q-12 -60 -12 -87q0 -82 82 -82q14 0 39 4l-8 -109 q-79 -32 -153 -32q-72 0 -109 40q-33 37 -36 123zM797 245l56 281l-66 2q-168 5 -292 -57q-142 -71 -142 -200q0 -135 155 -135q127 0 289 109zM535 1283l35 173h173l-35 -173h-173zM930 1283l35 173h172l-34 -173h-173z" />
<glyph unicode="&#xe5;" vert-adv-y="2465" d="M804 138q-217 -163 -393 -163q-120 0 -192 64q-73 63 -73 172q0 201 181 316t503 115h46l26 131q8 41 8 73q0 116 -175 116q-164 0 -370 -96l32 163q223 81 405 81q312 0 312 -215q0 -47 -15 -122l-98 -492q-12 -60 -12 -87q0 -82 82 -82q14 0 39 4l-8 -109 q-79 -32 -153 -32q-72 0 -109 40q-33 37 -36 123zM797 245l56 281l-66 2q-168 5 -292 -57q-142 -71 -142 -200q0 -135 155 -135q127 0 289 109zM929 1737q81 0 133 -51q53 -52 53 -131q0 -107 -85 -189q-84 -83 -193 -83q-73 0 -122 42q-63 53 -63 140q0 106 85 189t192 83z M913 1650q-68 0 -121 -51q-52 -51 -52 -118q0 -112 113 -112q61 0 110 42q64 54 64 129q0 110 -114 110z" />
<glyph unicode="&#xe6;" horiz-adv-x="1821" vert-adv-y="2465" d="M819 245l56 281l-73 2q-180 5 -307 -57q-142 -70 -142 -201q0 -134 167 -134q137 0 299 109zM1116 983q176 127 370 127q354 0 354 -345q0 -91 -34 -253h-739q-8 -60 -8 -91q0 -140 87 -218t246 -78q152 0 345 66l-31 -156q-216 -60 -389 -60q-192 0 -304 87 q-64 49 -111 143q-139 -123 -232 -172q-110 -58 -244 -58q-131 0 -205 62q-75 63 -75 175q0 204 184 317q183 113 522 113h47l26 131q8 40 8 72q0 117 -189 117q-174 0 -379 -96l33 163q222 81 412 81q223 0 306 -127zM1106 660h532q12 67 12 108q0 194 -203 194 q-155 0 -247 -109q-55 -67 -94 -193z" />
<glyph unicode="&#xe7;" horiz-adv-x="1024" vert-adv-y="2465" d="M189 0zM942 33q-192 -58 -353 -58q-186 0 -293 113q-107 112 -107 309q0 305 186 509t474 204q125 0 290 -36l-33 -164q-153 49 -250 49q-193 0 -318 -155q-126 -156 -126 -388q0 -282 268 -282q122 0 296 69zM554 0h97l-82 -109q165 -12 165 -135q0 -74 -72 -131 q-73 -57 -167 -57q-68 0 -139 21l16 81q48 -15 102 -15q119 0 119 85q0 82 -169 85z" />
<glyph unicode="&#xe8;" vert-adv-y="2465" d="M190 0zM957 660q13 82 13 121q0 182 -198 182q-152 0 -243 -110q-55 -67 -94 -193h522zM1059 191l-32 -156q-214 -60 -384 -60q-218 0 -336 115q-117 114 -117 327q0 289 179 491q178 202 438 202q354 0 354 -350q0 -94 -33 -248h-726q-8 -68 -8 -99q0 -288 319 -288 q153 0 346 66zM983 1283h-148l-257 321h228z" />
<glyph unicode="&#xe9;" vert-adv-y="2465" d="M190 0zM957 660q13 82 13 121q0 182 -198 182q-152 0 -243 -110q-55 -67 -94 -193h522zM1059 191l-32 -156q-214 -60 -384 -60q-218 0 -336 115q-117 114 -117 327q0 289 179 491q178 202 438 202q354 0 354 -350q0 -94 -33 -248h-726q-8 -68 -8 -99q0 -288 319 -288 q153 0 346 66zM686 1283l304 321h229l-385 -321h-148z" />
<glyph unicode="&#xea;" vert-adv-y="2465" d="M190 0zM957 660q13 82 13 121q0 182 -198 182q-152 0 -243 -110q-55 -67 -94 -193h522zM1059 191l-32 -156q-214 -60 -384 -60q-218 0 -336 115q-117 114 -117 327q0 289 179 491q178 202 438 202q354 0 354 -350q0 -94 -33 -248h-726q-8 -68 -8 -99q0 -288 319 -288 q153 0 346 66zM496 1283l304 321h219l176 -321h-148l-160 202h-2l-241 -202h-148z" />
<glyph unicode="&#xeb;" vert-adv-y="2465" d="M1029 35q-216 -60 -385 -60q-218 0 -336 116q-118 115 -118 328q0 286 180 489q179 202 439 202q353 0 353 -350q0 -93 -33 -248h-732q-8 -60 -8 -91q0 -139 86 -217q86 -79 242 -79q150 0 343 66zM436 660h525q12 68 12 109q0 194 -199 194q-153 0 -243 -110 q-56 -67 -95 -193zM563 1283l35 173h172l-34 -173h-173zM958 1283l34 173h173l-35 -173h-172z" />
<glyph unicode="&#xec;" horiz-adv-x="455" vert-adv-y="2465" d="M129 0zM129 0l217 1086h198l-218 -1086h-197zM633 1283h-148l-257 321h228z" />
<glyph unicode="&#xed;" horiz-adv-x="455" vert-adv-y="2465" d="M129 0zM129 0l217 1086h198l-218 -1086h-197zM336 1283l304 321h229l-385 -321h-148z" />
<glyph unicode="&#xee;" horiz-adv-x="455" vert-adv-y="2465" d="M129 0zM129 0l217 1086h198l-218 -1086h-197zM134 1283l304 321h219l176 -321h-148l-160 202h-2l-241 -202h-148z" />
<glyph unicode="&#xef;" horiz-adv-x="455" vert-adv-y="2465" d="M129 0l217 1086h198l-218 -1086h-197zM201 1283l34 173h173l-35 -173h-172zM595 1283l35 173h173l-35 -173h-173z" />
<glyph unicode="&#xf0;" vert-adv-y="2465" d="M421 1434l30 149q200 0 347 -76l187 169l62 -88l-159 -143q135 -121 203 -247q101 -186 101 -431q0 -342 -172 -567q-171 -225 -437 -225q-191 0 -294 106q-104 105 -104 305q0 266 157 471q95 123 201 176q104 53 252 53q54 0 118 -14q-49 144 -169 244l-181 -164 l-62 87l156 141q-92 54 -236 54zM764 938q-157 0 -264 -164q-107 -165 -107 -395q0 -256 205 -256q161 0 268 162t107 396q0 257 -209 257z" />
<glyph unicode="&#xf1;" vert-adv-y="2465" d="M154 0zM154 0l217 1086h198l-41 -204q209 228 416 228q222 0 222 -204q0 -61 -13 -126l-156 -780h-198l143 716q17 85 17 124q0 101 -103 101q-161 0 -364 -238l-141 -703h-197zM485 1283q25 93 60 143q64 91 173 91q71 0 126 -38l53 -37q50 -35 80 -35q64 0 97 110h124 q-25 -92 -60 -142q-63 -92 -174 -92q-71 0 -126 39l-52 37q-48 34 -81 34q-65 0 -97 -110h-123z" />
<glyph unicode="&#xf2;" vert-adv-y="2465" d="M184 0zM794 1110q186 0 289 -104q102 -104 102 -304q0 -308 -178 -517q-178 -210 -445 -210q-159 0 -257 87q-121 107 -121 321q0 302 176 515q176 212 434 212zM772 962q-162 0 -269 -172q-108 -172 -108 -417q0 -119 55 -185q55 -65 148 -65q142 0 244 136 q132 177 132 453q0 250 -202 250zM981 1283h-148l-257 321h228z" />
<glyph unicode="&#xf3;" vert-adv-y="2465" d="M184 0zM794 1110q186 0 289 -104q102 -104 102 -304q0 -308 -178 -517q-178 -210 -445 -210q-159 0 -257 87q-121 107 -121 321q0 302 176 515q176 212 434 212zM772 962q-162 0 -269 -172q-108 -172 -108 -417q0 -119 55 -185q55 -65 148 -65q142 0 244 136 q132 177 132 453q0 250 -202 250zM685 1283l304 321h229l-385 -321h-148z" />
<glyph unicode="&#xf4;" vert-adv-y="2465" d="M184 0zM794 1110q186 0 289 -104q102 -104 102 -304q0 -308 -178 -517q-178 -210 -445 -210q-159 0 -257 87q-121 107 -121 321q0 302 176 515q176 212 434 212zM772 962q-162 0 -269 -172q-108 -172 -108 -417q0 -119 55 -185q55 -65 148 -65q142 0 244 136 q132 177 132 453q0 250 -202 250zM483 1283l304 321h219l176 -321h-148l-160 202h-2l-241 -202h-148z" />
<glyph unicode="&#xf5;" vert-adv-y="2465" d="M184 0zM794 1110q186 0 289 -104q102 -104 102 -304q0 -308 -178 -517q-178 -210 -445 -210q-159 0 -257 87q-121 107 -121 321q0 302 176 515q176 212 434 212zM772 962q-162 0 -269 -172q-108 -172 -108 -417q0 -119 55 -185q55 -65 148 -65q142 0 244 136 q132 177 132 453q0 250 -202 250zM500 1283q25 93 60 143q64 91 173 91q71 0 126 -38l53 -37q50 -35 80 -35q64 0 97 110h124q-25 -92 -60 -142q-63 -92 -174 -92q-71 0 -126 39l-52 37q-48 34 -81 34q-65 0 -97 -110h-123z" />
<glyph unicode="&#xf6;" vert-adv-y="2465" d="M794 1110q186 0 289 -104q102 -104 102 -304q0 -308 -178 -517q-177 -210 -445 -210q-159 0 -257 87q-121 107 -121 321q0 302 176 515q177 212 434 212zM772 962q-163 0 -271 -171q-109 -171 -109 -415q0 -253 204 -253q145 0 248 136q133 176 133 449q0 254 -205 254z M549 1283l35 173h172l-34 -173h-173zM944 1283l34 173h173l-35 -173h-172z" />
<glyph unicode="&#xf7;" horiz-adv-x="1196" vert-adv-y="2465" d="M208 518l29 148h987l-29 -148h-987zM662 938l49 246h247l-50 -246h-246zM474 0l49 247h247l-49 -247h-247z" />
<glyph unicode="&#xf8;" horiz-adv-x="1251" vert-adv-y="2465" d="M360 59l-78 -84h-144l154 167q-58 109 -58 245q0 301 177 512q178 211 441 211q159 0 258 -83l77 83h144l-154 -167q58 -106 58 -241q0 -299 -176 -513t-434 -214q-166 0 -265 84zM491 201l1 -2q20 -35 65 -57q39 -19 92 -19q160 0 268 172q107 172 107 427v4q0 4 -1 16 q0 15 -1 33zM979 885l-2 2q-44 44 -70 56q-42 19 -92 19q-158 0 -264 -174q-106 -173 -106 -432q0 -24 3 -46z" />
<glyph unicode="&#xf9;" vert-adv-y="2465" d="M190 0zM788 0l41 203q-209 -228 -417 -228q-222 0 -222 207q0 54 14 124l156 780h197l-143 -716q-17 -85 -17 -124q0 -101 103 -101q162 0 364 237l141 704h197l-217 -1086h-197zM981 1283h-148l-257 321h228z" />
<glyph unicode="&#xfa;" vert-adv-y="2465" d="M190 0zM788 0l41 203q-209 -228 -417 -228q-222 0 -222 207q0 54 14 124l156 780h197l-143 -716q-17 -85 -17 -124q0 -101 103 -101q162 0 364 237l141 704h197l-217 -1086h-197zM672 1283l304 321h229l-385 -321h-148z" />
<glyph unicode="&#xfb;" vert-adv-y="2465" d="M190 0zM788 0l41 203q-209 -228 -417 -228q-222 0 -222 207q0 54 14 124l156 780h197l-143 -716q-17 -85 -17 -124q0 -101 103 -101q162 0 364 237l141 704h197l-217 -1086h-197zM471 1283l304 321h219l176 -321h-148l-160 202h-2l-241 -202h-148z" />
<glyph unicode="&#xfc;" vert-adv-y="2465" d="M190 0zM788 0l41 203q-209 -228 -417 -228q-222 0 -222 207q0 54 14 124l156 780h197l-143 -716q-17 -85 -17 -124q0 -101 103 -101q162 0 364 237l141 704h197l-217 -1086h-197zM537 1283l34 173h173l-35 -173h-172zM931 1283l35 173h173l-35 -173h-173z" />
<glyph unicode="&#xfd;" horiz-adv-x="1024" vert-adv-y="2465" d="M153 0zM403 0l-168 1086h200l129 -833l490 833h174l-870 -1481h-205zM622 1283l304 321h229l-385 -321h-148z" />
<glyph unicode="&#xfe;" vert-adv-y="2465" d="M272 -395h-197l395 1974h197l-139 -697q76 102 147 153q105 75 225 75q284 0 284 -369q0 -307 -181 -541q-175 -225 -470 -225q-88 0 -182 25zM492 703l-111 -554q133 -26 198 -26q167 0 278 171q111 172 111 421q0 223 -144 223q-128 0 -332 -235z" />
<glyph unicode="&#xff;" horiz-adv-x="1024" vert-adv-y="2465" d="M153 0zM403 0l-168 1086h200l129 -833l490 833h174l-870 -1481h-205zM500 1283l34 173h173l-35 -173h-172zM894 1283l35 173h173l-35 -173h-173z" />
<glyph unicode="&#x131;" horiz-adv-x="455" vert-adv-y="2465" d="M129 0l217 1086h198l-218 -1086h-197z" />
<glyph unicode="&#x152;" horiz-adv-x="2048" vert-adv-y="2465" d="M1140 0l12 58q-183 -95 -373 -95q-257 0 -402 151t-145 428q0 407 253 691q252 284 614 284q182 0 326 -94l11 57h818l-31 -157h-608l-95 -475h508l-31 -155h-508l-108 -536h652l-31 -157h-862zM1254 569l68 342q24 121 24 201q0 248 -271 248q-266 0 -443 -237 q-178 -237 -178 -582q0 -421 362 -421q349 0 438 449z" />
<glyph unicode="&#x153;" horiz-adv-x="1933" vert-adv-y="2465" d="M1176 910q83 89 164 135q119 65 263 65q347 0 347 -345q0 -88 -32 -253h-712q-9 -76 -9 -110q0 -279 326 -279q155 0 332 71l-32 -157q-204 -62 -380 -62q-180 0 -275 58q-72 44 -135 141q-79 -89 -160 -133q-119 -66 -269 -66q-199 0 -310 110t-111 314q0 299 189 505 q188 206 464 206q155 0 247 -75q53 -43 93 -125zM813 962q-186 0 -304 -162q-118 -163 -118 -411q0 -266 250 -266q224 0 317 234q33 83 55 194q20 103 20 187q0 224 -220 224zM1239 648h497q16 92 16 134q0 180 -181 180q-146 0 -237 -114q-54 -69 -95 -200z" />
<glyph unicode="&#x178;" horiz-adv-x="1366" vert-adv-y="2465" d="M561 0l123 617l-358 863h240l284 -685l588 685h195l-738 -858l-124 -622h-210zM743 1604l35 173h172l-34 -173h-173zM1138 1604l34 173h173l-34 -173h-173z" />
<glyph unicode="&#x2c6;" horiz-adv-x="682" vert-adv-y="2465" d="M248 1283l304 321h219l176 -321h-148l-160 202h-2l-241 -202h-148z" />
<glyph unicode="&#x2dc;" horiz-adv-x="682" vert-adv-y="2465" d="M265 1283q25 93 60 143q64 91 173 91q71 0 126 -38l53 -37q50 -35 80 -35q64 0 97 110h124q-25 -92 -60 -142q-63 -92 -174 -92q-71 0 -126 39l-52 37q-48 34 -81 34q-65 0 -97 -110h-123z" />
<glyph unicode="&#x2000;" horiz-adv-x="967" vert-adv-y="0" />
<glyph unicode="&#x2001;" horiz-adv-x="1935" vert-adv-y="0" />
<glyph unicode="&#x2002;" horiz-adv-x="967" vert-adv-y="0" />
<glyph unicode="&#x2003;" horiz-adv-x="1935" vert-adv-y="0" />
<glyph unicode="&#x2004;" horiz-adv-x="645" vert-adv-y="0" />
<glyph unicode="&#x2005;" horiz-adv-x="483" vert-adv-y="0" />
<glyph unicode="&#x2006;" horiz-adv-x="322" vert-adv-y="0" />
<glyph unicode="&#x2007;" horiz-adv-x="322" vert-adv-y="0" />
<glyph unicode="&#x2008;" horiz-adv-x="241" vert-adv-y="0" />
<glyph unicode="&#x2009;" horiz-adv-x="387" vert-adv-y="0" />
<glyph unicode="&#x200a;" horiz-adv-x="107" vert-adv-y="0" />
<glyph unicode="&#x2010;" horiz-adv-x="682" vert-adv-y="2465" d="M192 518l30 148h506l-30 -148h-506z" />
<glyph unicode="&#x2011;" horiz-adv-x="682" vert-adv-y="2465" d="M192 518l30 148h506l-30 -148h-506z" />
<glyph unicode="&#x2012;" horiz-adv-x="682" vert-adv-y="2465" d="M192 518l30 148h506l-30 -148h-506z" />
<glyph unicode="&#x2013;" vert-adv-y="2465" d="M209 543l24 123h938l-25 -123h-937z" />
<glyph unicode="&#x2014;" horiz-adv-x="2048" vert-adv-y="2465" d="M207 543l19 99h1851l-20 -99h-1850z" />
<glyph unicode="&#x2018;" horiz-adv-x="455" vert-adv-y="2465" d="M655 1579l-15 -74q-101 -27 -141 -226l-4 -21h95l-49 -246h-247l43 214q67 324 318 353z" />
<glyph unicode="&#x2019;" horiz-adv-x="455" vert-adv-y="2465" d="M319 1012l15 74q101 28 141 226l4 20h-96l50 247h247l-43 -214q-68 -328 -318 -353z" />
<glyph unicode="&#x201a;" horiz-adv-x="455" vert-adv-y="2465" d="M45 -296l15 74q100 27 136 202l4 20h-96l49 247h247l-43 -214q-62 -303 -312 -329z" />
<glyph unicode="&#x201c;" horiz-adv-x="682" vert-adv-y="2465" d="M916 1579l-15 -74q-76 -38 -115 -224l-5 -23h71l-40 -197h-197l33 166q62 302 268 352zM570 1579l-15 -74q-78 -36 -115 -224l-4 -23h70l-39 -197h-198l33 166q62 302 268 352z" />
<glyph unicode="&#x201d;" horiz-adv-x="682" vert-adv-y="2465" d="M294 1061l15 74q75 39 115 224l5 23h-71l40 197h197l-33 -166q-62 -302 -268 -352zM640 1061l14 74q79 36 116 224l4 23h-70l39 197h198l-34 -166q-62 -301 -267 -352z" />
<glyph unicode="&#x201e;" horiz-adv-x="682" vert-adv-y="2465" d="M5 -321l15 74q75 39 115 224l5 23h-71l39 197h198l-33 -166q-62 -302 -268 -352zM350 -321l15 74q76 40 115 224l5 23h-71l40 197h197l-33 -166q-61 -301 -268 -352z" />
<glyph unicode="&#x2022;" horiz-adv-x="717" vert-adv-y="2465" d="M587 1110q98 0 162 -64q64 -63 64 -160q0 -129 -104 -230q-105 -101 -236 -101q-88 0 -149 52q-77 65 -77 173q0 128 104 229q105 101 236 101z" />
<glyph unicode="&#x2026;" horiz-adv-x="2048" vert-adv-y="2465" d="M247 0l39 197h198l-40 -197h-197zM926 0l39 197h197l-39 -197h-197zM1604 0l40 197h197l-39 -197h-198z" />
<glyph unicode="&#x202f;" horiz-adv-x="387" vert-adv-y="0" />
<glyph unicode="&#x2039;" horiz-adv-x="682" vert-adv-y="2465" d="M750 913l-370 -370l222 -370l-113 -74l-306 444l483 444z" />
<glyph unicode="&#x203a;" horiz-adv-x="682" vert-adv-y="2465" d="M149 173l370 370l-222 370l113 74l306 -444l-484 -444z" />
<glyph unicode="&#x205f;" horiz-adv-x="483" vert-adv-y="0" />
<glyph unicode="&#x20ac;" vert-adv-y="2465" d="M484 537q3 -131 27 -206q65 -204 287 -204q127 0 322 72l-35 -172q-208 -64 -346 -64q-277 0 -386 189q-76 131 -71 319l2 66h-177l76 123h111q15 93 43 197h-166l76 124h132q66 150 121 227q218 307 585 307q127 0 288 -44l-36 -182q-154 71 -279 71q-182 0 -318 -137 q-83 -83 -161 -242h568l-76 -124h-537q-27 -101 -43 -197h459l-76 -123h-390z" />
<glyph unicode="&#x2122;" horiz-adv-x="2048" vert-adv-y="2465" d="M617 740l123 617h-247l25 123h666l-24 -123h-247l-123 -617h-173zM1160 740l148 740h233l71 -427l235 427h213l-148 -740h-173l108 537l-259 -475h-118l-76 432l-99 -494h-135z" />
<glyph unicode="&#xe000;" horiz-adv-x="1085" vert-adv-y="2170" d="M0 1085h1085v-1085h-1085v1085z" />
<glyph unicode="&#xfb01;" horiz-adv-x="1024" vert-adv-y="2465" d="M175 0l188 938h-144l30 148h143l27 130q81 388 383 388q67 0 144 -26l-32 -157q-69 35 -118 35q-133 0 -176 -219l-30 -151h523l-217 -1086h-197l187 938h-326l-187 -938h-198zM955 1283l40 197h197l-39 -197h-198z" />
<glyph unicode="&#xfb02;" horiz-adv-x="1024" vert-adv-y="2465" d="M175 0l187 938h-143l29 148h144l26 130q78 388 381 388l215 -25h197l-315 -1579h-198l286 1431l-40 8q-84 17 -141 17q-79 0 -119 -47q-38 -45 -64 -172l-31 -151h178l-29 -148h-178l-188 -938h-197z" />
<glyph horiz-adv-x="569" vert-adv-y="2465" d="M0 0z" />
</font>
</defs>
</svg>
