<?xml version="1.0" standalone="no"?>
<!DOCTYPE svg PUBLIC "-//W3C//DTD SVG 1.1//EN" "http://www.w3.org/Graphics/SVG/1.1/DTD/svg11.dtd" >
<svg xmlns="http://www.w3.org/2000/svg">
<metadata></metadata>
<defs>
<font id="indubitablyregular" horiz-adv-x="500" >
<font-face units-per-em="1000" ascent="800" descent="-200" />
<missing-glyph horiz-adv-x="200" />
<glyph horiz-adv-x="1000" />
<glyph horiz-adv-x="1000" />
<glyph unicode="&#xd;" horiz-adv-x="1000" />
<glyph unicode=" "  horiz-adv-x="200" />
<glyph unicode="&#x09;" horiz-adv-x="200" />
<glyph unicode="&#xa0;" horiz-adv-x="200" />
<glyph unicode="!" horiz-adv-x="206" d="M193 83q0 -39 -28 -66t-67 -27t-66.5 27t-27.5 66t27.5 67t66.5 28t67 -28t28 -67v0zM189 567q0 -6 -0.5 -12t-0.5 -11q-5 -52 -26.5 -110.5t-46.5 -151.5q-3 -14 -7 -28t-7 -29h-8q-3 15 -7 29t-7 28q-25 93 -46.5 151.5t-26.5 110.5q0 5 -0.5 11t-0.5 12q0 50 27 84.5 t65 34.5t65 -34.5t27 -84.5v0z" />
<glyph unicode="&#x22;" horiz-adv-x="412" d="M202 659q2 -6 3 -11.5t2 -11.5q0 -6 0.5 -11.5t0.5 -11.5v-8t-1 -8q-5 -61 -49 -113t-126 -62q1 5 1.5 9.5t1.5 8.5q45 29 67 58t29 57q-4 -1 -8 -1.5t-9 -0.5q-36 0 -62.5 27t-26.5 65q0 39 26.5 66t62.5 27t58.5 -23t29.5 -56v0zM392 659q2 -6 3 -11.5t2 -11.5 q0 -6 0.5 -11.5t0.5 -11.5v-8t-1 -8q-5 -61 -49 -113t-126 -62q1 5 1.5 9.5t1.5 8.5q45 29 67 58t29 57q-4 -1 -8 -1.5t-9 -0.5q-36 0 -62.5 27t-26.5 65q0 39 26.5 66t62.5 27t58.5 -23t29.5 -56v0z" />
<glyph unicode="#" horiz-adv-x="423" d="M163 265l-70 -265h-70l70 265h-17h-38h-37.5h-16.5l24 67h23.5h77.5l14 56h-108l26 67h15.5h34.5h33.5h15.5l54 213h70l-54 -213h53l54 213h70l-53 -213h103l-16 -67h-104l-15 -56h113l-15 -67h-113l-71 -265h-70l70 265h-53v0zM194 388l-15 -56h38h15l14 56h-52v0z" />
<glyph unicode="$" horiz-adv-x="686" d="M666 222q3 -91 -69.5 -156t-201.5 -65h-3t-3 1h-3.5h-3.5v-122h-109v136q-5 1 -9.5 2t-9.5 2q-33 9 -65 21t-61 28l-106 -64v309q30 -65 79 -104.5t102 -61.5q72 -28 133.5 -33t76.5 -5h0.5h0.5q35 0 63 15.5t26 34.5q0 2 -0.5 3.5t-0.5 2.5q-3 11 -16 21t-32 13 q-14 2 -27.5 3.5t-27.5 2.5q-54 7 -108.5 14t-109.5 19q-78 17 -129.5 69t-51.5 143q0 90 66 151.5t176 61.5h16h15v86h109v-101q30 -7 55.5 -17t45.5 -23l106 51v-253q-26 30 -55 52.5t-58 38.5q-82 46 -154 53.5t-95 7.5h-3h-2q-33 0 -56.5 -13.5t-23.5 -33.5 q0 -13 11 -23t28 -17l40 -6t88 -13q44 -7 82 -12.5t44 -6.5q107 -15 168 -69t63 -143v0z" />
<glyph unicode="%" />
<glyph unicode="&#x26;" horiz-adv-x="919" d="M898 145q0 -69 -45 -117.5t-108 -48.5q-15 0 -30.5 1.5t-31.5 4.5q-28 6 -55 17t-48 28q-41 -26 -104.5 -40t-154.5 -14q-139 0 -230.5 62t-91.5 169q0 81 72.5 143t182.5 81q-2 5 -3.5 10.5t-2.5 10.5q-7 24 -10 47.5t-3 40.5q0 65 54.5 111.5t127.5 46.5 q77 0 124.5 -46.5t47.5 -111.5q0 -47 -29 -85.5t-76 -57.5q12 -21 36 -48t55 -56q11 -10 22.5 -20.5t23.5 -20.5l31 81l-79 119h325l-126 -117q-11 -39 -26 -76.5t-31 -75.5q23 -14 42.5 -23t31.5 -8q21 0 37 25t16 60q0 12 -2 23t-6 21q29 -19 46.5 -53t17.5 -83v0z M466 118q-49 57 -93 112.5t-79 107.5q-22 -11 -34.5 -32t-12.5 -49q0 -8 1.5 -16.5t3.5 -17.5q15 -52 53.5 -88.5t88.5 -36.5q23 0 41 5t31 15v0zM479 544q0 21 -13 36.5t-33 15.5q-19 0 -32 -15.5t-13 -36.5q0 -12 3.5 -22.5t10.5 -21.5q5 -9 12 -17.5t14 -18.5 q25 17 38 37.5t13 42.5v0z" />
<glyph unicode="'" horiz-adv-x="228" d="M202 659q2 -6 3 -11.5t2 -11.5q0 -6 0.5 -11.5t0.5 -11.5v-8t-1 -8q-5 -61 -49 -113t-126 -62q1 5 1.5 9.5t1.5 8.5q45 29 67 58t29 57q-4 -1 -8 -1.5t-9 -0.5q-36 0 -62.5 27t-26.5 65q0 39 26.5 66t62.5 27t58.5 -23t29.5 -56v0z" />
<glyph unicode="(" horiz-adv-x="444" d="M436 -137q-184 21 -309 138.5t-125 277.5q0 159 125 277.5t309 137.5v-16q-101 -52 -165 -159.5t-64 -239.5q0 -133 64 -239.5t165 -158.5v-18v0z" />
<glyph unicode=")" horiz-adv-x="460" d="M2 -137v17q101 53 165 159.5t64 239.5q0 132 -64 239.5t-165 159.5v16q184 -19 309 -137.5t125 -277.5q0 -160 -125 -277.5t-309 -137.5v-1z" />
<glyph unicode="*" horiz-adv-x="396" d="M378 551l-89 -88l21 -124l-112 58l-111 -58l20 124l-89 88l124 19l56 112l56 -112l124 -19v0z" />
<glyph unicode="+" />
<glyph unicode="," horiz-adv-x="228" d="M211 99q3 -13 4.5 -25.5t1.5 -26.5v-5.5v-4.5q-3 -71 -53 -133t-146 -74q1 5 1.5 10.5t1.5 10.5q51 33 76 65.5t33 64.5q-4 -1 -9 -1.5t-10 -0.5q-41 0 -71 30.5t-30 73.5q0 44 30 75t71 31t67 -26t33 -64v0z" />
<glyph unicode="-" horiz-adv-x="326" d="M312 153h-297v159h297v-159v0z" />
<glyph unicode="." horiz-adv-x="206" d="M193 83q0 -39 -28 -66t-67 -27t-66.5 27t-27.5 66t27.5 67t66.5 28t67 -28t28 -67v0z" />
<glyph unicode="/" horiz-adv-x="423" d="M426 698l-373 -801h-79l372 801h80v0z" />
<glyph unicode="0" horiz-adv-x="804" d="M785 331q0 -148 -119 -253t-271 -105q-154 0 -272.5 105t-118.5 253t118.5 253.5t272.5 105.5t272 -105.5t118 -253.5v0zM530 330q0 95 -37.5 162.5t-97.5 67.5t-98 -67.5t-38 -162.5q0 -94 33 -163t103 -67q69 2 102 69t33 161v0z" />
<glyph unicode="1" horiz-adv-x="610" d="M593 0h-594l196 156v369l-196 142h419v-516l175 -151v0z" />
<glyph unicode="2" horiz-adv-x="735" d="M719 486q0 -50 -39.5 -92.5t-105.5 -71.5l-277 -134q-20 -10 -40.5 -22t-39.5 -24q-4 -3 -8.5 -6t-9.5 -6h364l144 188v-318h-709q2 13 24.5 51t58.5 81q23 28 50 55t55 47q5 4 10.5 7.5t10.5 6.5l188 124q28 22 45.5 50.5t17.5 58.5q0 44 -26.5 72.5t-97.5 28.5 q-51 0 -87.5 -31t-36.5 -75q0 -12 0.5 -26t3.5 -28q3 -17 10 -33t21 -29q-2 -7 -21.5 -12.5t-46.5 -5.5q-11 0 -23.5 1t-24.5 4q-45 9 -82 41t-37 98q0 84 104 144t250 60q147 0 251 -60t104 -144v0z" />
<glyph unicode="3" horiz-adv-x="734" d="M708 180q0 -83 -95.5 -142.5t-258.5 -59.5q-146 0 -250 51t-104 134q0 51 45.5 83t111.5 32q13 0 26.5 -1.5t27.5 -4.5q-7 -8 -11.5 -21t-5.5 -27q-1 -7 -1.5 -14.5t-0.5 -13.5q0 -41 31.5 -70t103.5 -29q62 0 98.5 24.5t36.5 69.5q0 64 -40 81t-144 18v99h4h4 q93 1 128 13t35 81q0 43 -34.5 68.5t-86.5 25.5q-67 0 -95.5 -27.5t-30.5 -66.5q-1 -18 3.5 -34t14.5 -29q-13 -3 -26 -4t-25 -1q-61 0 -103.5 28t-42.5 71q0 79 97 127.5t233 48.5q152 0 240.5 -63.5t88.5 -142.5q0 -52 -43 -89.5t-114 -58.5q82 -20 132.5 -60t50.5 -96v0z " />
<glyph unicode="4" horiz-adv-x="813" d="M807 0h-599l201 154v32h-409v130l423 349h208v-367h163l-55 -112h-108v-34l176 -152v0zM409 298v213l-244 -213h244v0z" />
<glyph unicode="5" horiz-adv-x="740" d="M718 225q0 -103 -111.5 -176.5t-244.5 -75.5h-3.5h-2.5q-136 0 -245.5 51t-107.5 156q2 54 43.5 78.5t92.5 24.5q4 0 8 -0.5t9 -0.5q12 -1 24.5 -3.5t23.5 -5.5q-7 -13 -11 -27.5t-4 -30.5q0 -53 35.5 -84t107.5 -31q57 0 97 38.5t40 92.5q0 69 -40 99.5t-97 30.5 q-43 0 -76 -14t-64 -36q-3 -2 -6.5 -4.5t-6.5 -4.5l-123 72l40 293h576l-68 -137h-401l-24 -110q41 27 94.5 42.5t117.5 15.5q143 0 235 -74.5t92 -178.5v0z" />
<glyph unicode="6" horiz-adv-x="784" d="M767 204q0 -84 -68 -135t-150 -73q-41 -12 -80 -17.5t-70 -5.5q-163 0 -279.5 97.5t-116.5 245.5t119.5 261t287.5 113q76 -1 140 -20.5t113 -52.5q17 -12 30.5 -33.5t15.5 -45.5q1 -3 1 -5.5v-4.5q-1 -28 -24 -50t-82 -22q-22 0 -50.5 4t-63.5 13q-1 0 -2.5 0.5 t-2.5 0.5q-2 0 -3 0.5t-3 0.5q6 10 8.5 19.5t2.5 17.5q0 32 -30 51t-67 19q-74 0 -106 -57.5t-35 -125.5v-7.5v-6.5q0 -9 0.5 -18t1.5 -18q37 35 90.5 56t117.5 21q120 0 212.5 -64t92.5 -158v0zM518 204q0 48 -38 82t-91 34q-54 0 -92 -34t-38 -82q0 -47 38 -81t92 -34 q53 0 91 34t38 81v0z" />
<glyph unicode="7" horiz-adv-x="643" d="M627 611q-70 -89 -115.5 -182t-63.5 -187q-6 -31 -9 -62.5t-3 -62.5q0 -29 2.5 -58.5t8.5 -58.5h-259q14 151 83 280t184 250h-282l-173 -193v331h627v-57v0z" />
<glyph unicode="8" horiz-adv-x="779" d="M762 208q0 -92 -73.5 -143.5t-161.5 -71.5q-42 -11 -82.5 -15.5t-72.5 -4.5q-148 0 -258.5 50.5t-110.5 121.5q0 48 31.5 78t79.5 46q-48 29 -77.5 77t-29.5 106q0 114 87.5 166.5t193.5 65.5q23 3 46 4.5t45 1.5q135 0 231 -49.5t96 -118.5q0 -44 -28 -72t-76 -51 q71 -25 115.5 -76.5t44.5 -114.5v0zM543 148q0 24 -28.5 39t-72.5 19q-19 2 -41.5 3.5t-47.5 2.5q-7 0 -13.5 0.5t-13.5 1.5q-42 3 -80.5 7.5t-63.5 13.5q-5 -9 -8 -18t-5 -19q-4 -49 39.5 -84.5t136.5 -35.5q74 -1 115.5 9t62.5 26h-1q10 8 15.5 16.5t5.5 18.5v0zM531 501 q0 38 -39.5 53.5t-86.5 19.5q-24 3 -47 3h-41h-6.5h-6.5q-51 1 -80 -20.5t-32 -47.5v-2.5v-2.5q0 -19 18.5 -36t57.5 -22q24 -3 47 -4.5t46 -3.5q8 0 15.5 -0.5t15.5 -1.5q29 -2 58.5 -4.5t59.5 -7.5q6 8 10 18t7 21q2 10 3 20t1 18v0z" />
<glyph unicode="9" horiz-adv-x="784" d="M764 346q0 -148 -119.5 -260.5t-287.5 -112.5q-76 1 -140 19.5t-114 52.5q-16 11 -28.5 31.5t-16.5 43.5q0 3 -0.5 6.5t-0.5 6.5q0 29 23.5 51t82.5 22q23 0 51.5 -4t62.5 -13q2 -1 5 -1.5t6 -0.5q-6 -10 -8.5 -19.5t-2.5 -17.5q0 -32 30 -51t67 -19q75 0 106.5 58.5 t33.5 128.5v4v4v9.5t-1 9.5q0 5 -0.5 9.5t-0.5 9.5q-37 -35 -89.5 -56t-117.5 -21q-120 0 -212.5 64t-92.5 158q0 84 68 134.5t149 74.5q41 12 80 17.5t70 5.5q164 0 280.5 -97.5t116.5 -246.5v0zM508 458q0 47 -38 81t-92 34q-53 0 -91 -34t-38 -81q0 -48 38 -82t91 -34 q54 0 92 34t38 82v0z" />
<glyph unicode=":" horiz-adv-x="206" d="M193 83q0 -39 -28 -66t-67 -27t-66.5 27t-27.5 66t27.5 67t66.5 28t67 -28t28 -67v0zM193 323q0 -39 -28 -66.5t-67 -27.5t-66.5 27.5t-27.5 66.5t27.5 67t66.5 28t67 -28t28 -67v0z" />
<glyph unicode=";" horiz-adv-x="206" d="M211 99q3 -13 4.5 -25.5t1.5 -26.5v-5.5v-4.5q-3 -71 -53 -133t-146 -74q1 5 1.5 10.5t1.5 10.5q51 33 76 65.5t33 64.5q-4 -1 -9 -1.5t-10 -0.5q-41 0 -71 30.5t-30 73.5q0 44 30 75t71 31t67 -26t33 -64v0zM193 323q0 -39 -28 -66.5t-67 -27.5t-66.5 27.5t-27.5 66.5 t27.5 67t66.5 28t67 -28t28 -67v0z" />
<glyph unicode="&#x3c;" />
<glyph unicode="=" />
<glyph unicode="&#x3e;" />
<glyph unicode="?" horiz-adv-x="497" d="M330 83q0 -39 -28 -66t-67 -27t-67 27t-28 66t28 67t67 28t67 -28t28 -67v0zM478 485q0 -53 -33 -93.5t-89 -56.5q-55 -16 -69.5 -39.5t-15.5 -61.5h-31v4.5t-1 4.5q-2 47 5.5 92t27.5 78q8 14 14.5 30t8.5 33q1 3 1 5.5v5.5q0 43 -16 69t-57 26q-33 0 -51.5 -28 t-19.5 -67q0 -27 6.5 -49t17.5 -36q-7 -2 -15 -4t-16 -3q-8 -2 -15.5 -2.5t-15.5 -0.5q-46 1 -80.5 26.5t-34.5 81.5q0 86 67.5 135.5t166.5 49.5t172 -61t73 -139v0z" />
<glyph unicode="@" horiz-adv-x="716" d="M696 383q0 -3 0.5 -6t0.5 -5v-6v-6q0 -82 -57.5 -143.5t-141.5 -61.5h-138l10 37q-27 -24 -58.5 -38t-63.5 -14q-55 0 -88 39.5t-33 98.5q0 12 1.5 24t4.5 25q17 75 72.5 128.5t119.5 59.5h5.5h5.5q36 0 63 -17.5t42 -47.5l10 39l130 11l-83 -272l34 -36q45 26 72.5 71.5 t27.5 97.5q0 110 -77 186.5t-193 76.5q-123 0 -210 -87t-87 -210t87 -210.5t210 -87.5q65 0 121 26t96 69l49 -41q-49 -54 -118 -85t-148 -31q-148 0 -254 105.5t-106 254.5t106 254.5t254 105.5q126 0 226.5 -78t107.5 -226v0zM404 327q3 11 4.5 21.5t0.5 20.5q0 29 -11 48 t-31 19q-4 0 -8.5 -1t-9.5 -3q-22 -9 -42.5 -38t-29.5 -67q-2 -11 -3.5 -21.5t-1.5 -20.5q0 -29 11.5 -48t30.5 -19q4 0 8.5 1t9.5 3q22 9 42.5 38.5t29.5 66.5v0z" />
<glyph unicode="A" horiz-adv-x="981" d="M981 0h-553l146 133l-22 48h-258l-18 -43l130 -138h-406l127 156l188 394h1l-109 116h528l-109 -116l180 -380l175 -170v0zM503 289l-83 183l-79 -183h162v0z" />
<glyph unicode="B" horiz-adv-x="944" d="M925 167q0 -71 -62 -119t-149 -48h-134h-216h-249h-113l160 147v372l-160 147h677q87 0 149 -50t62 -117q0 -74 -69.5 -115t-156.5 -41h9q10 0 20.5 -0.5t21.5 -2.5q79 -11 144.5 -57.5t65.5 -115.5v0zM667 200q0 32 -17.5 55t-41.5 23h-218v-147h218q24 0 41.5 19 t17.5 50v0zM657 477q0 31 -17 52t-42 21h-208v-146h208q25 0 42 21.5t17 51.5v0z" />
<glyph unicode="C" horiz-adv-x="839" d="M794 358q-46 102 -134.5 154.5t-201.5 52.5q-73 0 -130.5 -61t-57.5 -168q0 -94 53 -161.5t150 -67.5q26 0 59.5 1t68.5 9q64 12 118.5 55t62.5 144q20 -16 29 -39t9 -52q0 -17 -3.5 -34.5t-10.5 -35.5q-15 -40 -48 -78t-83 -64q-45 -23 -105 -34.5t-131 -11.5 q-175 0 -306.5 105.5t-131.5 255.5q0 129 109.5 227t240.5 126q21 4 42 6.5t42 2.5q78 0 148 -23t125 -63l86 72v-318v0z" />
<glyph unicode="D" horiz-adv-x="979" d="M962 333q0 -137 -103 -235t-249 -98h-606l160 147v372l-160 147h611q153 0 250 -98t97 -235v0zM697 341q0 86 -46 147.5t-111 61.5h-148v-419h183q65 0 93.5 61.5t28.5 148.5v0z" />
<glyph unicode="E" horiz-adv-x="908" d="M890 0h-888l160 147v372l-160 147h873v-289l-157 173h-327v-146h181l117 83v-299l-117 83h-181v-140h317l182 186v-317v0z" />
<glyph unicode="F" horiz-adv-x="889" d="M873 377l-157 173h-328v-146h182l117 83v-299l-117 83h-182v-112l173 -159h-561l160 147v372l-160 147h873v-289v0z" />
<glyph unicode="G" horiz-adv-x="982" d="M973 339l-164 -161v-212l-99 76q-54 -36 -125.5 -55.5t-158.5 -19.5q-177 0 -300.5 100.5t-123.5 250.5q0 149 132.5 260.5t301.5 111.5q82 0 155 -24.5t129 -66.5l77 67v-292q-51 71 -114.5 114t-129.5 62q-28 8 -55.5 12t-54.5 4q-74 0 -126 -69.5t-52 -167.5t42 -168 t128 -70q59 0 97.5 13.5t61.5 35.5v39l-180 160h559v0z" />
<glyph unicode="H" horiz-adv-x="1057" d="M1048 0h-523l128 147v117h-257v-117l129 -147h-524l160 147v372l-160 147h524l-129 -147v-90h257v90l-128 147h523l-160 -147v-372l160 -147v0z" />
<glyph unicode="I" horiz-adv-x="540" d="M537 0h-541l160 147v372l-160 147h541l-160 -147v-372l160 -147v0z" />
<glyph unicode="J" horiz-adv-x="726" d="M719 666l-159 -149v-334q0 -89 -85 -152.5t-204 -63.5q-138 0 -203 63.5t-65 152.5q0 31 4.5 59.5t16.5 52.5l158 33v-144q0 -32 21.5 -55t51.5 -23t51.5 23t21.5 55v330l-161 152h552v0z" />
<glyph unicode="K" horiz-adv-x="1044" d="M1037 0h-505l133 146l-97 158l-175 -123v-34l129 -147h-523l160 147v372l-160 147h523l-129 -147v-181l260 197l-111 131h488l-300 -237l154 -273l153 -156v0z" />
<glyph unicode="L" horiz-adv-x="880" d="M862 0h-863l160 147v372l-160 147h541l-160 -147v-388h282l200 227v-358v0z" />
<glyph unicode="M" horiz-adv-x="1133" d="M1129 0h-533l149 153v440l-172 -593h-117l-167 561v-408l153 -153h-440l161 153v359l-163 154h72.5h156.5h157.5h71.5l88 -302l87 302h496l-159 -154v-359l159 -153v0z" />
<glyph unicode="N" horiz-adv-x="971" d="M961 666l-163 -154v-512h-233l-284 382v-229l167 -153h-456l163 153v359l-159 154h394l280 -360v206l-167 154h458v0z" />
<glyph unicode="O" horiz-adv-x="863" d="M847 318q0 -150 -124 -250.5t-300 -100.5q-175 0 -299.5 100.5t-124.5 250.5q0 149 124.5 260.5t299.5 111.5q176 0 300 -111.5t124 -260.5v0zM582 329q0 98 -44.5 170.5t-113.5 72.5q-70 0 -114.5 -72.5t-44.5 -170.5q0 -106 46.5 -169.5t112.5 -63.5q65 0 111.5 63 t46.5 170v0z" />
<glyph unicode="P" horiz-adv-x="943" d="M919 434q0 -91 -73 -151.5t-176 -60.5h-270v-68l158 -153h-554l165 151v358l-165 157h636h6.5h7.5q99 -6 182 -75t83 -158v0zM672 441q0 39 -18.5 67t-44.5 28l-209 -1v-189h199q35 0 54 28t19 67v0z" />
<glyph unicode="Q" horiz-adv-x="883" d="M855 318q0 -121 -84 -212t-214 -123q15 -43 64.5 -68t115.5 -20v-79h-314v151q-172 3 -294.5 103t-122.5 248q0 150 125 261t300 111q176 0 300 -111t124 -261v0zM448 134q0 34 -14 57t-34 23t-34.5 -23t-14.5 -57v-2t1 -2v-3v-2q17 -13 37.5 -21t42.5 -8h2.5t2.5 1h2.5 h2.5q3 8 4.5 17.5t1.5 19.5v0zM590 329q0 99 -44.5 171.5t-113.5 72.5q-70 0 -114.5 -72.5t-44.5 -171.5q0 -44 9 -81.5t25 -66.5q7 50 34 82.5t65 32.5q3 0 6 -0.5t6 -0.5q38 -7 70.5 -51t38.5 -104q29 30 46 78.5t17 110.5v0z" />
<glyph unicode="R" horiz-adv-x="1000" d="M987 1h-318l-66 199q-8 22 -27.5 38.5t-41.5 19.5h-4h-4h-136v-102l165 -155h-551l157 149v363l-160 154h667h4h5q85 -3 156.5 -56.5t71.5 -123.5q0 -72 -57 -120.5t-137 -48.5h-13q70 -22 118.5 -81.5t57.5 -138.5l113 -97v0zM661 462q0 31 -16.5 52.5t-39.5 21.5h-215 v-148h215q23 0 39.5 21.5t16.5 52.5v0z" />
<glyph unicode="S" horiz-adv-x="757" d="M738 211q4 -101 -76.5 -172t-223.5 -71q-35 0 -75.5 5t-81.5 16q-36 9 -71.5 22t-67.5 31l-118 -72v342q33 -72 87.5 -115t113.5 -67q79 -32 148 -37.5t85 -5.5h0.5h0.5q37 0 67.5 16.5t31.5 35.5v1.5v1.5q0 2 -0.5 3.5t-0.5 2.5q-4 13 -18.5 24t-35.5 14 q-18 2 -35.5 4.5t-35.5 4.5q-20 2 -40 4.5t-40 5.5q-38 5 -75.5 11t-75.5 14q-86 18 -143 76t-57 158t73 168.5t195 68.5q86 0 153 -16t114 -45l117 56v-281q-29 33 -61 58.5t-65 43.5q-91 51 -171 59t-105 8h-3h-2q-36 0 -62 -15.5t-26 -36.5q0 -14 12 -25.5t31 -19.5 l44 -6.5t97 -14.5l91 -13l49 -7q118 -17 185.5 -77t70.5 -158v0z" />
<glyph unicode="T" horiz-adv-x="805" d="M784 345l-169 206h-111v-397l167 -153h-558l167 153v397h-111l-170 -206l16 322h753l16 -322v0z" />
<glyph unicode="U" horiz-adv-x="1013" d="M1004 667l-165 -157v-331q0 -100 -89.5 -155.5t-248.5 -55.5q-141 0 -240.5 70.5t-99.5 170.5v304l-162 154q0 1 84 1h186h67t63 -1h100h40l-146 -150v-304q0 -49 46 -82t113 -33t114.5 31.5t47.5 83.5v303l-147 151h32.5h81.5q24 1 50.5 1h54.5h150t68 -1v0z" />
<glyph unicode="V" horiz-adv-x="993" d="M984 667l-125 -116l-190 -445l108 -105h-495l99 105l-220 407l-160 154h554l-151 -144l174 -296l131 296l-140 144h415v0z" />
<glyph unicode="W" horiz-adv-x="1297" d="M1295 667l-149 -154l-154 -389l104 -123h-436l102 131l-111 279l-101 -287l88 -123h-437l95 123l-170 412l-123 131h69.5h147.5h150h68l-97 -131l116 -258l95 258l-95 131h450l-106 -111l118 -251l100 251l-86 111h362v0z" />
<glyph unicode="X" horiz-adv-x="977" d="M982 1h-512l95 100l-111 118l-118 -118l116 -100h-442l133 105l207 212l-206 218l-153 131q-1 1 78 1h174h62h58q57 -1 94.5 -1h37.5l-87 -111l93 -90l105 105l-95 96h434l-149 -116l-186 -192l227 -235l145 -123v0z" />
<glyph unicode="Y" horiz-adv-x="943" d="M944 667l-146 -131l-209 -297v-85l168 -153h-553l162 153v89l-219 308l-148 116h525l-107 -116l121 -166l118 171l-114 111h402v0z" />
<glyph unicode="Z" horiz-adv-x="787" d="M782 667l-404 -535h238l151 238v-369h-768l408 550h-205l-146 -195v311h726v0z" />
<glyph unicode="[" horiz-adv-x="381" d="M364 -130h-347v828h347v-41h-177v-744h177v-43v0z" />
<glyph unicode="\" />
<glyph unicode="]" horiz-adv-x="381" d="M16 -130v43h177v744h-177v41h347v-828h-347v0z" />
<glyph unicode="^" />
<glyph unicode="_" horiz-adv-x="702" d="M717 -77h-717v76h717v-76v0z" />
<glyph unicode="`" horiz-adv-x="294" d="M256 674h-97l-150 212h197l50 -212v0z" />
<glyph unicode="a" horiz-adv-x="642" d="M637 86q0 -49 -36 -79.5t-101 -30.5q-62 0 -96.5 28.5t-38.5 72.5q-1 -1 -1.5 -2.5t-1.5 -3.5q-17 -36 -63.5 -65.5t-128.5 -29.5q-74 0 -120.5 28t-46.5 88q0 68 42 106t116 54l191 41v47q0 24 -24 36t-55 12h-1.5h-1.5q-31 -1 -57.5 -15t-26.5 -40q0 -4 0.5 -8.5 t0.5 -9.5q1 -6 3.5 -12t5.5 -11q-5 -1 -10 -2.5t-11 -2.5q-10 -3 -22 -5.5t-23 -4.5t-21 -3t-20 -1q-31 0 -52.5 14.5t-21.5 53.5v8.5t1 8.5q7 58 77.5 89.5t153.5 38.5q14 2 28 2.5t27 0.5q107 -1 172 -35.5t65 -93.5v-223q0 -35 8.5 -50t18.5 -15q15 0 21 17.5t6 38.5v1.5 v1.5q0 14 -2 26t-5 18q26 -7 38 -26t13 -63v0zM354 170v44l-87 -19q-35 -7 -57 -22t-22 -45q0 -27 18.5 -40.5t41.5 -13.5q6 0 12 1t12 3q7 2 14.5 5t14.5 7q20 11 36.5 30t16.5 50v0z" />
<glyph unicode="b" horiz-adv-x="704" d="M684 223q0 -108 -77.5 -179t-178.5 -71q-67 0 -119.5 34.5t-82.5 91.5l-88 -114h-17v584l-122 121h311v-303q20 46 53 74t91 28q101 0 165.5 -79.5t64.5 -186.5v0zM492 227q0 75 -26.5 114t-64.5 39q-37 0 -64 -45t-27 -108t25 -107.5t66 -44.5q38 0 64.5 39t26.5 113v0z " />
<glyph unicode="c" horiz-adv-x="583" d="M549 349q0 -36 -26 -58.5t-64 -22.5q-14 0 -27 3t-24 10q2 9 3 17.5t1 15.5q0 43 -26.5 63.5t-68.5 20.5q-46 0 -79.5 -36t-32.5 -124q1 -92 34 -122t76 -36q8 -1 16.5 -1.5t18.5 -0.5q13 0 26.5 1.5t27.5 4.5q25 5 48.5 16.5t41.5 32.5q19 22 24 48t5 54q15 -16 23 -36 t10 -40v-6v-6q-1 -26 -9.5 -50t-22.5 -40q-11 -13 -24 -24.5t-30 -20.5q-35 -19 -77 -29t-96 -10q-124 0 -210.5 76t-82.5 184q3 108 98.5 182t219.5 74q15 0 30.5 -1.5t31.5 -4.5q62 -11 113.5 -45t51.5 -89v0z" />
<glyph unicode="d" horiz-adv-x="718" d="M720 0h-334v80q-19 -49 -59 -78t-90 -29h-5.5h-5.5q-83 4 -152 69t-69 191q0 104 69 177t152 79h5.5h5.5q51 0 89 -31t60 -78v190l-146 120h333v-570l147 -120v0zM378 231q0 72 -25 114t-64 42q-46 0 -69.5 -45.5t-23.5 -110.5q0 -84 26.5 -119t65.5 -37q35 -1 62.5 41.5 t27.5 114.5v0z" />
<glyph unicode="e" horiz-adv-x="578" d="M558 205h-353q0 -68 36 -99t131 -31q12 0 24.5 1t25.5 3t25.5 5t24.5 7q29 9 51 28t34 41q3 -9 4.5 -18t1.5 -18q0 -43 -32 -79t-82 -52q-35 -11 -71.5 -15.5t-80.5 -4.5q-132 0 -211.5 71.5t-79.5 183.5q0 116 84.5 188.5t196.5 72.5q120 0 193.5 -85t77.5 -199v0z M399 287q1 56 -29 83t-67 27t-67.5 -27.5t-29.5 -82.5h193v0z" />
<glyph unicode="f" horiz-adv-x="551" d="M535 584q0 -31 -24.5 -52.5t-68.5 -20.5q-12 0 -25 1.5t-27 5.5h-1q3 8 5 16t2 18q0 25 -11 42t-26 17t-26 -17t-11 -42v-74h135l-25 -96h-110v-259l147 -123h-475l146 123v259h-120l25 96h94v66q0 65 62 110.5t147 45.5q92 0 135.5 -31.5t50.5 -69.5q0 -4 0.5 -7.5 t0.5 -7.5v0z" />
<glyph unicode="g" horiz-adv-x="602" d="M591 -35q0 -106 -73 -143t-161 -43q-31 -2 -61.5 -2t-58.5 1h-7.5h-7.5q-99 3 -172.5 35t-73.5 79q0 26 24 49t66 38q-28 13 -45 47.5t-15 79.5q2 47 25 83.5t54 46.5q-27 20 -42.5 44t-15.5 50q0 62 73.5 105t176.5 43q54 0 101 -12.5t81 -33.5q-1 5 -1 10.5v12.5 q1 28 19.5 47.5t44.5 19.5t44.5 -19.5t18.5 -47.5q0 -19 -10 -33t-30 -14h-2.5h-2.5q-2 0 -3 0.5t-3 0.5v5v6q0 18 -5.5 30t-13.5 12q-7 0 -13 -12t-6 -30q0 -5 0.5 -10t1.5 -10q14 -16 22 -33t8 -37q0 -61 -73.5 -105t-177.5 -44q-31 0 -61 7t-56 15q-2 1 -4 1.5t-4 1.5 q-1 1 -2.5 1t-3.5 1q-3 0 -5.5 0.5t-6.5 0.5q-19 0 -33 -11.5t-17 -24.5v-1.5v-1.5q-1 -15 11 -25.5t31 -9.5q28 1 56.5 2.5t57.5 2.5q35 2 70.5 4t70.5 4h2.5h3.5q76 2 140 -49.5t64 -132.5v-1zM478 -90q0 17 -24 30.5t-59 13.5l-259 -1q-12 -7 -19 -15.5t-7 -18.5 q0 -29 58.5 -46t140.5 -15h1.5h1.5q10 0 32.5 1t47.5 5q32 4 59 15t27 32v-1zM346 329q0 31 -20 52.5t-49 21.5q-28 0 -49 -21.5t-21 -52.5q0 -30 21 -51.5t49 -21.5q29 0 49 21.5t20 51.5v0z" />
<glyph unicode="h" horiz-adv-x="818" d="M808 0h-386l76 101v186q0 30 -21.5 51.5t-52.5 21.5q-40 0 -61.5 -34t-34.5 -74q0 -1 -0.5 -1.5t-0.5 -1.5v-149l79 -100h-409l142 120v446l-137 124h325v-331q26 54 64 92t114 38t127.5 -40t51.5 -100v-226l124 -123v0z" />
<glyph unicode="i" horiz-adv-x="449" d="M443 0h-430l123 120v224l-138 134h325v-358l120 -120v0zM320 602q0 -40 -28.5 -69t-69.5 -29q-40 0 -69 29t-29 69q0 41 29 69.5t69 28.5q41 0 69.5 -28.5t28.5 -69.5v0z" />
<glyph unicode="j" horiz-adv-x="363" d="M334 -49q0 -72 -56.5 -123.5t-136.5 -51.5q-8 0 -17 0.5t-17 0.5q-60 5 -109 32t-49 91q0 4 0.5 9t2.5 9q7 24 30.5 43.5t61.5 19.5q10 -1 20 -2.5t21 -4.5v-63q0 -12 9 -21t22 -9q14 0 23 9t9 22v440l-145 126h331v-527v0zM334 602q0 -40 -28.5 -69t-69.5 -29 q-40 0 -69 29t-29 69q0 41 29 69.5t69 28.5q41 0 69.5 -28.5t28.5 -69.5v0z" />
<glyph unicode="k" horiz-adv-x="847" d="M839 0h-421l77 97l-67 101l-108 -86v-2l84 -110h-394l122 120v451l-132 119h320v-449l138 118l-104 119h452l-223 -181l142 -189l114 -108v0z" />
<glyph unicode="l" horiz-adv-x="447" d="M441 0h-435l123 120v451l-133 119h320v-570l125 -120v0z" />
<glyph unicode="m" horiz-adv-x="1182" d="M1169 0h-401l77 101v186q0 38 -22 55.5t-53 17.5q-35 0 -56 -28t-35 -64v-170l78 -98h-340l77 101v186q0 38 -22 55.5t-52 17.5q-38 0 -59.5 -31t-35.5 -69v-160l80 -100h-389l122 120v224l-138 134h325v-112q26 51 64 87t112 36q62 0 108.5 -38t62.5 -93 q26 54 64.5 92.5t114.5 38.5t127.5 -48t51.5 -107v-211l139 -123v0z" />
<glyph unicode="n" horiz-adv-x="820" d="M808 0h-385l76 101v186q0 30 -21.5 51.5t-52.5 21.5q-40 0 -62 -34t-35 -74q0 -1 -0.5 -1.5t-0.5 -1.5v-149l79 -100h-389l123 120v224l-138 134h325v-119q26 54 64.5 92t114.5 38t127.5 -40t51.5 -100v-226l123 -123v0z" />
<glyph unicode="o" horiz-adv-x="636" d="M619 233q0 -108 -91 -184t-219 -76q-127 0 -218 76t-91 184t91 184.5t218 76.5q128 0 219 -76.5t91 -184.5v0zM417 234q0 68 -30 116t-79 48t-79.5 -48t-30.5 -116q0 -67 28.5 -115.5t81.5 -48.5t81 48.5t28 115.5v0z" />
<glyph unicode="p" horiz-adv-x="734" d="M716 230q0 -104 -69 -176.5t-152 -78.5h-5.5h-5.5q-51 0 -89 30.5t-61 77.5v-176l147 -119q-115 1 -230.5 1h-231.5l128 118v441l-146 130h333v-96q20 49 60 78.5t90 29.5h5.5h5.5q83 -4 152 -69t69 -191v0zM524 232q0 83 -26.5 118.5t-64.5 36.5q-34 1 -62 -41t-28 -114 t25 -114.5t63 -42.5q47 0 70 46t23 111v0z" />
<glyph unicode="q" horiz-adv-x="594" d="M693 -212h-457l139 121v169q-20 -46 -52.5 -73t-90.5 -27q-101 0 -165.5 78.5t-64.5 185.5q0 108 77 179.5t178 71.5q67 0 119.5 -35t82.5 -92l88 114h17v-571l129 -121v0zM375 238q0 63 -25 107.5t-66 44.5q-37 0 -64 -39t-27 -113t27 -113.5t64 -39.5q38 0 64.5 45 t26.5 108v0z" />
<glyph unicode="r" horiz-adv-x="634" d="M612 354q0 -59 -31.5 -93.5t-84.5 -34.5q-15 0 -31.5 3.5t-33.5 9.5q6 10 10.5 24.5t6.5 29.5q0 5 0.5 10t0.5 10q0 20 -7 36t-25 22q-3 1 -6 1.5t-6 0.5t-6 -0.5t-6 -1.5q-17 -4 -32.5 -20t-26.5 -40q-6 -12 -10.5 -28t-8.5 -33q-3 -14 -4.5 -28t-1.5 -25v-77l149 -120 h-456l121 120v226l-123 132h303v-150l4 10l4 10q3 7 6 13t5 12q9 18 16.5 32t12.5 20q20 24 50.5 38.5t66.5 14.5q60 0 102 -36.5t42 -87.5v0z" />
<glyph unicode="s" horiz-adv-x="600" d="M573 146q2 -72 -59 -122.5t-169 -50.5q-26 0 -57 3.5t-62 11.5q-28 7 -55 16t-51 22l-94 -51v243q56 -76 144 -117.5t191 -45.5q28 -1 44.5 8t19.5 20v2v2q-1 12 -14 19.5t-29 9.5q-4 1 -8 1.5t-8 0.5q-52 2 -83.5 5t-59.5 9q-15 3 -29.5 6.5t-32.5 8.5q-64 19 -106 58 t-42 121q0 71 55.5 119.5t147.5 48.5q65 0 116 -12t87 -32l89 40v-199q-19 20 -39.5 36t-40.5 27q-65 37 -123.5 42t-83.5 4q-4 -1 -6.5 -1h-4.5q-5 0 -10 -0.5t-10 -2.5q-15 -3 -27 -9.5t-13 -18.5q0 -2 0.5 -4.5t1.5 -5.5q3 -5 9 -10t16 -6q9 -1 19 -1.5t20 -1.5t20.5 -2 t20.5 -1q38 -4 68.5 -7t37.5 -5q89 -12 148.5 -60t61.5 -118v0z" />
<glyph unicode="t" horiz-adv-x="458" d="M438 120q0 -61 -49.5 -104t-119.5 -43q-69 0 -118.5 43t-49.5 104v261h-101v43q94 30 165.5 98t105.5 159h16v-203h130l-45 -97h-85v-246q0 -17 11.5 -29.5t27.5 -12.5q33 0 44 27t11 65q0 12 -1.5 23.5t-3.5 21.5q29 -2 42.5 -26t17.5 -53q1 -8 1.5 -16t0.5 -15v0z" />
<glyph unicode="u" horiz-adv-x="811" d="M806 0h-325v103q-25 -53 -63 -90.5t-115 -37.5q-76 0 -127.5 39.5t-51.5 99.5v241l-124 123h310l-1 -302q0 -30 22 -51.5t53 -21.5q41 0 62.5 34.5t34.5 76.5v141l-134 123h322v-344l137 -134v0z" />
<glyph unicode="v" horiz-adv-x="805" d="M803 478l-125 -122l-136 -258l85 -98h-434l90 99l-155 256l-128 123h437l-93 -112l107 -190l91 190l-90 112h351v0z" />
<glyph unicode="w" horiz-adv-x="1125" d="M1125 478l-116 -113l-121 -291l68 -74h-369l62 79l-84 181l-75 -181l65 -79h-391l82 97l-120 259l-126 122h387l-71 -113l94 -191l71 203l-81 101h401l-84 -113l95 -198l77 198l-77 113h313v0z" />
<glyph unicode="x" horiz-adv-x="818" d="M818 0h-425l71 67l-80 70l-77 -60l73 -77h-370l151 107l139 107l-194 186l-107 78h435l-64 -88l64 -67l73 67l-64 88h339l-87 -71l-175 -157l185 -170l113 -80v0z" />
<glyph unicode="y" horiz-adv-x="799" d="M794 478l-121 -120l-153 -411q-31 -80 -79 -125.5t-140 -45.5q-73 0 -124.5 33t-51.5 80q0 44 38.5 75t93.5 31q7 0 14.5 -0.5t15.5 -2.5q4 0 7.5 -1t7.5 -2q-1 -1 -1.5 -3t-0.5 -3q-3 -9 -5.5 -21.5t-3.5 -25.5v-5.5v-4.5q1 -18 6.5 -33t19.5 -19q2 -1 4.5 -1h3.5 q20 0 34 21t21 47q3 8 5 16t3 15l-240 386l-150 120h444l-79 -106l112 -191l71 184l-87 113h335v0z" />
<glyph unicode="z" horiz-adv-x="597" d="M592 478l-276 -382h149l111 154v-250h-579l284 390h-129l-114 -156v244h554v0z" />
<glyph unicode="{" horiz-adv-x="420" d="M414 -123h-218q-37 1 -63 32.5t-26 72.5v200q0 38 -26.5 61t-64.5 23h-15v43h15q38 0 64.5 23t26.5 61v201q0 41 26 72.5t63 31.5h218v-41h-101q-14 0 -25 -11t-11 -25v-217q0 -49 -32.5 -80.5t-79.5 -36.5q47 -4 79.5 -36t32.5 -81v-216q0 -14 11 -24.5t25 -10.5l101 -1 v-41v0z" />
<glyph unicode="|" />
<glyph unicode="}" horiz-adv-x="397" d="M2 -123v41h101q14 1 25 11.5t11 25.5v215q0 49 32.5 81t79.5 36q-47 5 -79.5 36.5t-32.5 80.5v217q0 14 -11 25t-25 11h-101v41h218q37 0 63 -31.5t26 -72.5v-201q0 -38 27 -61t64 -23h15v-43h-15q-37 0 -64 -23t-27 -61v-201q0 -40 -26 -71.5t-63 -31.5l-218 -1v0z" />
<glyph unicode="~" />
<glyph unicode="&#xa1;" horiz-adv-x="206" d="M7 -133q0 7 0.5 13t0.5 11q5 52 26.5 110t46.5 151q3 14 7 28t7 29h8q3 -15 7 -29t7 -28q25 -93 46.5 -151t26.5 -110q0 -5 0.5 -11t0.5 -12q0 -50 -27 -84.5t-65 -34.5t-65 34.5t-27 84.5v-1zM3 351q0 39 28 66.5t67 27.5t66.5 -27.5t27.5 -66.5t-27.5 -67t-66.5 -28 t-67 28t-28 67v0z" />
<glyph unicode="&#xa2;" horiz-adv-x="585" d="M547 444q0 -35 -26 -58t-64 -23q-14 0 -27 3.5t-24 10.5q2 9 3 17.5t1 15.5q0 42 -26.5 62.5t-68.5 20.5q-46 0 -79.5 -35.5t-32.5 -124.5q1 -91 34 -121.5t76 -35.5q8 -1 16.5 -1.5t18.5 -0.5q13 0 26.5 1.5t27.5 4.5q25 5 48.5 16.5t41.5 32.5q19 22 24 48t5 54 q13 -15 20.5 -31.5t10.5 -33.5q1 -6 1.5 -11.5t0.5 -11.5q-1 -26 -9.5 -50t-22.5 -40q-11 -13 -24 -24.5t-30 -20.5q-25 -14 -53.5 -23t-62.5 -14v-121h-67v118q-121 4 -203 79.5t-80 181.5q3 100 86.5 171.5t196.5 82.5v135h67v-135q7 -1 13.5 -1.5t13.5 -2.5 q63 -11 115.5 -45t52.5 -90v0z" />
<glyph unicode="&#xa3;" horiz-adv-x="703" d="M674 114q0 -54 -68 -96.5t-164 -42.5q-66 0 -106 12t-68 26q-12 6 -23 12t-21 11q-14 7 -28.5 11t-31.5 4q-34 0 -65 -14t-53 -30q-13 -8 -22.5 -17t-15.5 -15v152q45 -1 76 26.5t31 69.5q0 6 -1 12.5t-3 13.5h-104v98h50q-28 26 -42.5 58t-14.5 67q0 101 91 158t220 57 q159 0 235.5 -44.5t76.5 -99.5q0 -47 -37 -71.5t-81 -32.5q-14 -3 -27.5 -4t-26.5 -1q-9 0 -17 0.5t-15 1.5q2 4 4.5 8t4.5 8q6 10 9.5 22t3.5 31q0 35 -32 57t-76 22q-60 0 -84 -26t-24 -63q0 -11 2 -22.5t5 -23.5q9 -29 25 -56t34 -46h129v-98h-82v-2v-1v-2v-2 q0 -40 -22.5 -72.5t-59.5 -40.5q14 -12 34 -21t40 -16q15 -4 29.5 -7t27.5 -5q2 0 3.5 -0.5t3.5 -0.5h3.5h3.5q38 0 65.5 25t28.5 62q1 17 -4 33t-15 30q84 -1 141 -28.5t57 -86.5v0z" />
<glyph unicode="&#xa4;" horiz-adv-x="901" d="M864 13l-87 72q-55 -40 -125 -62.5t-147 -22.5q-22 0 -45 2.5t-47 8.5q-107 24 -202.5 96t-127.5 171h-87l47 63h28v4v4q-1 2 -1 4v4v4t1 4v4v4h-75l47 63h40q32 99 127.5 171t202.5 96q24 6 47 8.5t45 2.5q77 0 147 -23t125 -63l87 72v-318q-47 102 -135.5 154.5 t-201.5 52.5q-58 0 -108 -40t-70 -113h346l-47 -63h-308q0 -2 -0.5 -4t-0.5 -4v-4v-4v-8t1 -8h295l-47 -63h-239q20 -73 70 -113.5t108 -40.5q113 0 201.5 53t135.5 154v-318v0z" />
<glyph unicode="&#xa5;" horiz-adv-x="970" d="M948 666l-146 -131l-44 -63h67v-98h-136l-60 -85h173v-98h-209v-38l168 -153h-553l162 153v38h-183v98h150l-61 85h-109v98h39l-55 78l-148 116h525l-107 -116l121 -166l118 171l-114 111h402v0z" />
<glyph unicode="&#xa6;" />
<glyph unicode="&#xa7;" />
<glyph unicode="&#xa8;" horiz-adv-x="294" d="M136 778q0 -21 -15 -36t-36 -15q-22 0 -37 15t-15 36t15 36t37 15q21 0 36 -15t15 -36v0zM259 778q0 -21 -15 -36t-36 -15q-22 0 -37 15t-15 36t15 36t37 15q21 0 36 -15t15 -36v0z" />
<glyph unicode="&#xa9;" horiz-adv-x="763" d="M729 342q0 -149 -106 -255t-256 -106q-149 0 -255.5 106t-106.5 255t106.5 255.5t255.5 106.5t255.5 -106.5t106.5 -255.5v0zM689 342q0 132 -94 227t-228 95q-133 0 -227.5 -94.5t-94.5 -227.5t94.5 -227.5t227.5 -94.5q134 0 228 94.5t94 227.5v0zM580 359 q-25 56 -74.5 85.5t-112.5 29.5q-40 0 -72 -34t-32 -93q0 -53 29.5 -90.5t83.5 -37.5q14 0 32.5 0.5t38.5 4.5q35 7 65.5 31t34.5 80q11 -8 16.5 -21.5t5.5 -29.5q0 -10 -2.5 -20.5t-6.5 -20.5q-9 -22 -27 -42t-45 -34q-25 -13 -58 -19.5t-73 -6.5q-97 0 -170 59t-73 142 q0 72 61 126.5t134 69.5q11 2 23 3.5t23 1.5q44 0 82.5 -12.5t69.5 -34.5l47 40v-177v0z" />
<glyph unicode="&#xaa;" horiz-adv-x="414" d="M394 423q0 -31 -22.5 -50t-62.5 -19q-39 0 -60.5 17.5t-23.5 45.5q0 -1 -0.5 -1.5t-0.5 -1.5q-11 -22 -39.5 -41t-80.5 -19q-46 0 -75 17.5t-29 54.5q0 42 26 66t72 34l119 25v30q0 15 -15 22.5t-34 7.5q-20 -1 -37 -9t-17 -25v-3.5v-3.5l2 -10t4 -9q-3 -1 -6.5 -2 t-7.5 -2q-6 -1 -13.5 -2.5t-14.5 -3.5q-6 -1 -12.5 -1.5t-12.5 -0.5q-19 0 -32.5 9t-13.5 34v2t1 3v2.5v2.5q4 36 47.5 55t95.5 24q9 1 17.5 1.5t17.5 0.5q67 0 107 -21.5t40 -58.5v-138q0 -22 5 -31.5t12 -9.5q9 0 13 10.5t4 23.5v1.5v1.5q0 8 -1.5 15.5t-3.5 11.5 q17 -4 24.5 -16t7.5 -39v0zM218 475v27l-54 -11q-22 -5 -35.5 -14t-13.5 -28q0 -17 11.5 -25.5t24.5 -8.5q5 0 8.5 1t7.5 2t8.5 3t8.5 4q13 6 23.5 18t10.5 32v0z" />
<glyph unicode="&#xab;" horiz-adv-x="574" d="M356 177h-170l-183 184l183 184h170l-184 -184l184 -184v0zM566 177h-170l-183 184l183 184h170l-184 -184l184 -184v0z" />
<glyph unicode="&#xac;" />
<glyph unicode="&#xad;" />
<glyph unicode="&#xae;" horiz-adv-x="401" d="M366 517q0 -76 -53.5 -129.5t-128.5 -53.5q-76 0 -129.5 53.5t-53.5 129.5q0 75 53.5 128.5t129.5 53.5q75 0 128.5 -53.5t53.5 -128.5v0zM336 517q0 62 -44.5 107t-107.5 45t-108 -44.5t-45 -107.5t45 -108t108 -45q62 0 107 45t45 108v0zM288 436h-65l-13 49 q-1 6 -6 10t-10 4h-28v-25l34 -38h-112l32 37v90l-33 38h136q18 0 33 -13.5t15 -31.5t-11 -30t-28 -12h-3q14 -5 24.5 -19.5t11.5 -34.5l23 -24v0zM222 550q0 8 -3.5 13t-8.5 5h-44v-36h44q5 0 8.5 5.5t3.5 12.5v0z" />
<glyph unicode="&#xaf;" horiz-adv-x="200" />
<glyph unicode="&#xb0;" />
<glyph unicode="&#xb1;" />
<glyph unicode="&#xb2;" horiz-adv-x="385" d="M365 610q0 -24 -20 -46t-53 -36l-138 -67q-9 -4 -18 -9t-18 -11q-3 -2 -6.5 -4.5t-6.5 -4.5h182l72 94v-159h-355q1 7 12.5 26t29.5 40q12 15 26 29t29 24q2 1 4 2.5t4 2.5l94 62q14 12 22.5 26.5t8.5 29.5q0 22 -13.5 35.5t-48.5 13.5q-25 0 -43.5 -15.5t-18.5 -37.5 q0 -6 0.5 -13.5t2.5 -15.5q1 -8 5 -15.5t10 -13.5q-1 -4 -10.5 -6.5t-22.5 -2.5q-6 0 -12.5 1t-13.5 2q-22 5 -40.5 21t-18.5 48q0 42 52 72t125 30q74 0 126 -30t52 -72v0z" />
<glyph unicode="&#xb3;" horiz-adv-x="380" d="M360 449q0 -40 -47.5 -70.5t-129.5 -30.5q-73 0 -125 25.5t-52 68.5q0 26 22.5 41t55.5 15q7 0 14 -0.5t14 -2.5q-5 -4 -7 -12t-3 -16v-5.5v-4.5q0 -19 16 -33.5t52 -14.5q31 0 49 12.5t18 34.5q0 31 -19.5 40t-72.5 8v51q49 -1 67.5 5.5t18.5 41.5q0 20 -17.5 33.5 t-43.5 13.5q-34 0 -47.5 -13.5t-15.5 -33.5q-1 -9 1.5 -17t7.5 -16q-3 -1 -6.5 -1.5t-6.5 -0.5q-3 -1 -6.5 -1h-6.5q-30 0 -51 14.5t-21 35.5q0 41 48.5 64.5t116.5 23.5q76 0 120 -31t44 -72q0 -25 -21.5 -44t-56.5 -30q41 -9 66 -29t25 -49v0z" />
<glyph unicode="&#xb4;" horiz-adv-x="294" d="M307 886l-150 -212h-97l50 212h197v0z" />
<glyph unicode="&#xb5;" />
<glyph unicode="&#xb6;" />
<glyph unicode="&#xb7;" horiz-adv-x="200" />
<glyph unicode="&#xb8;" horiz-adv-x="446" d="M343 -103q0 -41 -40.5 -71t-93.5 -30q-28 0 -52.5 8t-39.5 25q-12 15 -17 27.5t-5 22.5q0 17 12 27t26 9q6 0 12 -1.5t11 -5.5l-2 -10l-2 -10q-1 -24 9.5 -41t33.5 -17q19 0 33 17t17 41q1 4 1 8.5v9.5q0 33 -16.5 47t-38.5 13q-4 0 -8 -0.5t-7 -1.5q-8 -1 -15.5 -4 t-14.5 -7q15 22 31.5 32.5t33.5 13.5q6 1 11.5 1h11.5q53 0 81 -29.5t28 -72.5v-1z" />
<glyph unicode="&#xb9;" horiz-adv-x="311" d="M301 372h-298l99 78v186l-99 71h210v-258l88 -77v0z" />
<glyph unicode="&#xba;" horiz-adv-x="423" d="M389 514q0 -67 -56.5 -115t-135.5 -48t-136 48t-57 115t57 114.5t136 47.5t135.5 -47.5t56.5 -114.5v0zM264 514q0 42 -19 72t-49 30q-31 0 -49.5 -30t-18.5 -72t17.5 -72t50.5 -30q32 0 50 30t18 72v0z" />
<glyph unicode="&#xbb;" horiz-adv-x="563" d="M2 177l184 184l-184 184h170l183 -184l-183 -184h-170v0zM202 177l184 184l-184 184h170l183 -184l-183 -184h-170v0z" />
<glyph unicode="&#xbc;" horiz-adv-x="710" d="M705 698l-675 -801h-80l675 801h80v0zM710 -2h-299l100 77v16h-204v65l211 175h104v-184h82l-28 -56h-54v-17l88 -76v0zM511 147v107l-122 -107h122v0zM301 373h-298l99 78v186l-99 71h210v-258l88 -77v0z" />
<glyph unicode="&#xbd;" horiz-adv-x="754" d="M705 698l-675 -801h-80l675 801h80v0zM737 240q0 -24 -20 -46t-53 -36l-138 -67q-9 -4 -18 -9t-18 -11q-3 -2 -6.5 -4.5t-6.5 -4.5h182l72 94v-159h-355q1 7 12.5 26t29.5 40q12 15 26 29t29 24q2 1 4 2.5t4 2.5l94 62q14 12 22.5 26.5t8.5 29.5q0 22 -13.5 35.5 t-48.5 13.5q-25 0 -43.5 -15.5t-18.5 -37.5q0 -6 0.5 -13.5t2.5 -15.5q1 -8 5 -15.5t10 -13.5q-1 -4 -10.5 -6.5t-22.5 -2.5q-6 0 -12.5 1t-13.5 2q-22 5 -40.5 21t-18.5 48q0 42 52 72t125 30q74 0 126 -30t52 -72v0zM298 351h-298l99 78v186l-99 71h210v-258l88 -77v0z " />
<glyph unicode="&#xbe;" horiz-adv-x="710" d="M705 698l-675 -801h-80l675 801h80v0zM710 -2h-299l100 77v16h-204v65l211 175h104v-184h82l-28 -56h-54v-17l88 -76v0zM511 147v107l-122 -107h122v0zM351 467q0 -40 -47.5 -70.5t-129.5 -30.5q-73 0 -124.5 25.5t-51.5 68.5q0 26 22 41t55 15q7 0 14 -0.5t14 -2.5 q-5 -4 -7 -12t-3 -16v-5.5v-4.5q0 -19 16 -33.5t52 -14.5q31 0 49 12.5t18 34.5q0 31 -19.5 40t-72.5 8v51q49 -1 67.5 5.5t18.5 41.5q0 20 -17.5 33.5t-43.5 13.5q-34 0 -47.5 -13.5t-15.5 -33.5q-1 -9 1.5 -17t7.5 -16q-3 -1 -6.5 -1.5t-6.5 -0.5q-3 -1 -6.5 -1h-6.5 q-30 0 -51 14.5t-21 35.5q0 41 48.5 64.5t116.5 23.5q76 0 120 -31t44 -72q0 -25 -21.5 -44t-56.5 -30q41 -9 66 -29t25 -49v0z" />
<glyph unicode="&#xbf;" horiz-adv-x="497" d="M-2 -51q1 53 34 93.5t88 56.5t69.5 40t15.5 61h31v-4.5t1 -4.5q2 -47 -5.5 -92t-27.5 -78q-8 -13 -14.5 -29t-8.5 -33q-1 -3 -1 -5.5v-5.5q0 -43 16.5 -69t56.5 -26q33 0 51.5 28t19.5 67q0 27 -6.5 48.5t-17.5 35.5q8 2 15.5 4t15.5 3q8 2 16 2.5t15 0.5q47 -1 81.5 -26 t34.5 -81q0 -86 -68 -135.5t-167 -49.5t-171.5 61t-72.5 139zM146 351q0 39 28 66.5t67 27.5t67 -27.5t28 -66.5t-28 -67t-67 -28t-67 28t-28 67v0z" />
<glyph unicode="&#xc0;" horiz-adv-x="981" d="M981 0h-553l146 133l-22 48h-258l-18 -43l130 -138h-406l127 156l188 394h1l-109 116h528l-109 -116l180 -380l175 -170v0zM503 289l-83 183l-79 -183h162v0zM536 682h-97l-150 212h197l50 -212v0z" />
<glyph unicode="&#xc1;" horiz-adv-x="981" d="M981 0h-553l146 133l-22 48h-258l-18 -43l130 -138h-406l127 156l188 394h1l-109 116h528l-109 -116l180 -380l175 -170v0zM503 289l-83 183l-79 -183h162v0zM689 894l-150 -212h-97l50 212h197v0z" />
<glyph unicode="&#xc2;" horiz-adv-x="981" d="M981 0h-553l146 133l-22 48h-258l-18 -43l130 -138h-406l127 156l188 394h1l-109 116h528l-109 -116l180 -380l175 -170v0zM503 289l-83 183l-79 -183h162v0zM664 677h-188l-34 135l-33 -135h-119l107 210h154l113 -210v0z" />
<glyph unicode="&#xc3;" horiz-adv-x="981" d="M981 0h-553l146 133l-22 48h-258l-18 -43l130 -138h-406l127 156l188 394h1l-109 116h528l-109 -116l180 -380l175 -170v0zM503 289l-83 183l-79 -183h162v0zM690 911q-1 -17 -3.5 -36.5t-6.5 -38.5q-11 -53 -38 -98t-85 -52h-2h-2h-2h-2q-18 0 -35 6.5t-34 14.5 q-3 1 -6.5 3t-6.5 3q-7 3 -17 8.5t-21 11.5q-8 4 -16.5 8t-17.5 8q-10 3 -19.5 5.5t-18.5 2.5q-10 0 -19.5 -4t-16.5 -13q-4 -5 -5.5 -11.5t-2.5 -12.5q0 -1 -0.5 -2t-0.5 -2q0 -3 -0.5 -5.5t-1.5 -4.5h-26q0 13 5 36t13 48q5 16 11 31t14 28q14 24 37.5 42t54.5 22h2h2h1h2 q5 0 10.5 -1t10.5 -3q7 -2 14 -5l14 -6q3 -2 6.5 -3.5t7.5 -3.5q9 -4 19 -10l20 -12q15 -9 30.5 -17t31.5 -10q3 -1 6 -1h6q4 0 8.5 0.5t8.5 2.5q4 1 8.5 3t8.5 5q11 8 16.5 21t10.5 28q1 3 2 6.5t2 7.5h23v0z" />
<glyph unicode="&#xc4;" horiz-adv-x="981" d="M981 0h-553l146 133l-22 48h-258l-18 -43l130 -138h-406l127 156l188 394h1l-109 116h528l-109 -116l180 -380l175 -170v0zM503 289l-83 183l-79 -183h162v0zM456 732q0 -21 -15 -36t-36 -15q-22 0 -37 15t-15 36t15 36t37 15q21 0 36 -15t15 -36v0zM579 732 q0 -21 -15 -36t-36 -15q-22 0 -37 15t-15 36t15 36t37 15q21 0 36 -15t15 -36v0z" />
<glyph unicode="&#xc5;" horiz-adv-x="981" d="M981 0h-553l146 133l-22 48h-258l-18 -43l130 -138h-406l127 156l188 394h1l-109 116h528l-109 -116l180 -380l175 -170v0zM503 289l-83 183l-79 -183h162v0zM533 754q0 -31 -21.5 -52.5t-52.5 -21.5q-30 0 -51.5 21.5t-21.5 52.5q0 30 21.5 51.5t51.5 21.5 q31 0 52.5 -21.5t21.5 -51.5v0zM483 754q0 10 -7 16.5t-17 6.5t-16.5 -6.5t-6.5 -16.5t6.5 -17t16.5 -7t17 7t7 17v0z" />
<glyph unicode="&#xc6;" horiz-adv-x="1379" d="M1346 0h-848l160 147v38h-267l-46 -57l135 -128h-482l162 131l332 410l-114 125h953v-289l-157 173h-288v-146h142l117 83v-299l-117 83h-142v-140h278l182 186v-317v0zM658 281v234l-189 -234h189v0z" />
<glyph unicode="&#xc7;" horiz-adv-x="839" d="M565 -121q0 -41 -40.5 -71t-93.5 -30q-28 0 -52.5 8t-39.5 25q-12 15 -17 27.5t-5 22.5q0 17 12 27t26 9q6 0 12 -1.5t11 -5.5l-2 -10l-2 -10q-1 -24 9.5 -41t33.5 -17q19 0 33 17t17 41q1 4 1 8.5v9.5q0 33 -16.5 47t-38.5 13q-4 0 -8 -0.5t-7 -1.5q-8 -1 -15.5 -4 t-14.5 -7q15 22 31.5 32.5t33.5 13.5q6 1 11.5 1.5t11.5 0.5q53 0 81 -30t28 -73v-1zM794 358q-46 102 -134.5 154.5t-201.5 52.5q-73 0 -130.5 -61t-57.5 -168q0 -94 53 -161.5t150 -67.5q26 0 59.5 1t68.5 9q64 12 118.5 55t62.5 144q20 -16 29 -39t9 -52 q0 -17 -3.5 -34.5t-10.5 -35.5q-15 -40 -48 -78t-83 -64q-45 -23 -105 -34.5t-131 -11.5q-175 0 -306.5 105.5t-131.5 255.5q0 129 109.5 227t240.5 126q21 4 42 6.5t42 2.5q78 0 148 -23t125 -63l86 72v-318v0z" />
<glyph unicode="&#xc8;" horiz-adv-x="908" d="M890 0h-888l160 147v372l-160 147h873v-289l-157 173h-327v-146h181l117 83v-299l-117 83h-181v-140h317l182 186v-317v0zM524 684h-97l-150 212h197l50 -212v0z" />
<glyph unicode="&#xc9;" horiz-adv-x="908" d="M890 0h-888l160 147v372l-160 147h873v-289l-157 173h-327v-146h181l117 83v-299l-117 83h-181v-140h317l182 186v-317v0zM697 896l-150 -212h-97l50 212h197v0z" />
<glyph unicode="&#xca;" horiz-adv-x="908" d="M890 0h-888l160 147v372l-160 147h873v-289l-157 173h-327v-146h181l117 83v-299l-117 83h-181v-140h317l182 186v-317v0zM676 679h-188l-34 135l-33 -135h-119l107 210h154l113 -210v0z" />
<glyph unicode="&#xcb;" horiz-adv-x="908" d="M890 0h-888l160 147v372l-160 147h873v-289l-157 173h-327v-146h181l117 83v-299l-117 83h-181v-140h317l182 186v-317v0zM474 732q0 -21 -15 -36t-36 -15q-22 0 -37 15t-15 36t15 36t37 15q21 0 36 -15t15 -36v0zM597 732q0 -21 -15 -36t-36 -15q-22 0 -37 15t-15 36 t15 36t37 15q21 0 36 -15t15 -36v0z" />
<glyph unicode="&#xcc;" horiz-adv-x="540" d="M537 0h-541l160 147v372l-160 147h541l-160 -147v-372l160 -147v0zM318 682h-97l-150 212h197l50 -212v0z" />
<glyph unicode="&#xcd;" horiz-adv-x="540" d="M537 0h-541l160 147v372l-160 147h541l-160 -147v-372l160 -147v0zM487 898l-150 -212h-97l50 212h197v0z" />
<glyph unicode="&#xce;" horiz-adv-x="540" d="M537 0h-541l160 147v372l-160 147h541l-160 -147v-372l160 -147v0zM468 681h-188l-34 135l-33 -135h-119l107 210h154l113 -210v0z" />
<glyph unicode="&#xcf;" horiz-adv-x="540" d="M537 0h-541l160 147v372l-160 147h541l-160 -147v-372l160 -147v0zM256 736q0 -21 -15 -36t-36 -15q-22 0 -37 15t-15 36t15 36t37 15q21 0 36 -15t15 -36v0zM379 736q0 -21 -15 -36t-36 -15q-22 0 -37 15t-15 36t15 36t37 15q21 0 36 -15t15 -36v0z" />
<glyph unicode="&#xd0;" horiz-adv-x="976" d="M955 333q0 -137 -103 -235t-249 -98h-606l160 147v372l-160 147h611q153 0 250 -98t97 -235v0zM690 341q0 86 -46 147.5t-111 61.5h-148v-419h183q65 0 93.5 61.5t28.5 148.5v0zM526 262h-496v107h496v-107v0z" />
<glyph unicode="&#xd1;" horiz-adv-x="971" d="M961 666l-163 -154v-512h-233l-284 382v-229l167 -153h-456l163 153v359l-159 154h394l280 -360v206l-167 154h458v0zM696 909q-1 -17 -3.5 -36.5t-6.5 -38.5q-11 -53 -38 -98t-85 -52h-2h-2h-2h-2q-18 0 -35 6.5t-34 14.5q-3 1 -6.5 3t-6.5 3q-7 3 -17 8.5t-21 11.5 q-8 4 -16.5 8t-17.5 8q-10 3 -19.5 5.5t-18.5 2.5q-10 0 -19.5 -4t-16.5 -13q-4 -5 -5.5 -11.5t-2.5 -12.5q0 -1 -0.5 -2t-0.5 -2q0 -3 -0.5 -5.5t-1.5 -4.5h-26q0 13 5 36t13 48q5 16 11 31t14 28q14 24 37.5 42t54.5 22h2h2h1h2q5 0 10.5 -1t10.5 -3q7 -2 14 -5l14 -6 q3 -2 6.5 -3.5t7.5 -3.5q9 -4 19 -10l20 -12q15 -9 30.5 -17t31.5 -10q3 -1 6 -1h6q4 0 8.5 0.5t8.5 2.5q4 1 8.5 3t8.5 5q11 8 16.5 21t10.5 28q1 3 2 6.5t2 7.5h23v0z" />
<glyph unicode="&#xd2;" horiz-adv-x="200" />
<glyph unicode="&#xd3;" horiz-adv-x="863" d="M847 318q0 -150 -124 -250.5t-300 -100.5q-175 0 -299.5 100.5t-124.5 250.5q0 149 124.5 260.5t299.5 111.5q176 0 300 -111.5t124 -260.5v0zM582 329q0 98 -44.5 170.5t-113.5 72.5q-70 0 -114.5 -72.5t-44.5 -170.5q0 -106 46.5 -169.5t112.5 -63.5q65 0 111.5 63 t46.5 170v0zM639 920l-150 -212h-97l50 212h197v0z" />
<glyph unicode="&#xd4;" horiz-adv-x="863" d="M847 318q0 -150 -124 -250.5t-300 -100.5q-175 0 -299.5 100.5t-124.5 250.5q0 149 124.5 260.5t299.5 111.5q176 0 300 -111.5t124 -260.5v0zM582 329q0 98 -44.5 170.5t-113.5 72.5q-70 0 -114.5 -72.5t-44.5 -170.5q0 -106 46.5 -169.5t112.5 -63.5q65 0 111.5 63 t46.5 170v0zM612 709h-188l-34 135l-33 -135h-119l107 210h154l113 -210v0z" />
<glyph unicode="&#xd5;" horiz-adv-x="863" d="M847 318q0 -150 -124 -250.5t-300 -100.5q-175 0 -299.5 100.5t-124.5 250.5q0 149 124.5 260.5t299.5 111.5q176 0 300 -111.5t124 -260.5v0zM582 329q0 98 -44.5 170.5t-113.5 72.5q-70 0 -114.5 -72.5t-44.5 -170.5q0 -106 46.5 -169.5t112.5 -63.5q65 0 111.5 63 t46.5 170v0zM652 929q-1 -17 -3.5 -36.5t-6.5 -38.5q-11 -53 -38 -98t-85 -52h-2h-2h-2h-2q-18 0 -35 6.5t-34 14.5q-3 1 -6.5 3t-6.5 3q-7 3 -17 8.5t-21 11.5q-8 4 -16.5 8t-17.5 8q-10 3 -19.5 5.5t-18.5 2.5q-10 0 -19.5 -4t-16.5 -13q-4 -5 -5.5 -11.5t-2.5 -12.5 q0 -1 -0.5 -2t-0.5 -2q0 -3 -0.5 -5.5t-1.5 -4.5h-26q0 13 5 36t13 48q5 16 11 31t14 28q14 24 37.5 42t54.5 22h2h2h1h2q5 0 10.5 -1t10.5 -3q7 -2 14 -5l14 -6q3 -2 6.5 -3.5t7.5 -3.5q9 -4 19 -10l20 -12q15 -9 30.5 -17t31.5 -10q3 -1 6 -1h6q4 0 8.5 0.5t8.5 2.5 q4 1 8.5 3t8.5 5q11 8 16.5 21t10.5 28q1 3 2 6.5t2 7.5h23v0z" />
<glyph unicode="&#xd6;" horiz-adv-x="863" d="M847 318q0 -150 -124 -250.5t-300 -100.5q-175 0 -299.5 100.5t-124.5 250.5q0 149 124.5 260.5t299.5 111.5q176 0 300 -111.5t124 -260.5v0zM582 329q0 98 -44.5 170.5t-113.5 72.5q-70 0 -114.5 -72.5t-44.5 -170.5q0 -106 46.5 -169.5t112.5 -63.5q65 0 111.5 63 t46.5 170v0zM416 756q0 -21 -15 -36t-36 -15q-22 0 -37 15t-15 36t15 36t37 15q21 0 36 -15t15 -36v0zM539 756q0 -21 -15 -36t-36 -15q-22 0 -37 15t-15 36t15 36t37 15q21 0 36 -15t15 -36v0z" />
<glyph unicode="&#xd7;" />
<glyph unicode="&#xd8;" horiz-adv-x="876" d="M851 314q0 -150 -124 -250.5t-300 -100.5q-76 0 -143.5 19.5t-122.5 55.5l-65 -55l-57 67l53 45q-42 45 -66 100.5t-24 118.5q0 149 125 260.5t300 111.5q74 0 140.5 -21.5t120.5 -59.5l70 60l57 -67l-60 -51q45 -49 70.5 -108.5t25.5 -124.5v0zM586 325v9.5v8.5 q-1 14 -2.5 27.5t-4.5 25.5l-270 -231q22 -35 52.5 -54t66.5 -19q65 0 111.5 63t46.5 170v0zM548 485q-22 38 -52.5 60.5t-67.5 22.5q-70 0 -114.5 -72.5t-44.5 -170.5q0 -19 1.5 -37t5.5 -35l272 232v0z" />
<glyph unicode="&#xd9;" horiz-adv-x="1013" d="M1004 667l-165 -157v-331q0 -100 -89.5 -155.5t-248.5 -55.5q-141 0 -240.5 70.5t-99.5 170.5v304l-162 154q0 1 84 1h186h67t63 -1h100h40l-146 -150v-304q0 -49 46 -82t113 -33t114.5 31.5t47.5 83.5v303l-147 151h32.5h81.5q24 1 50.5 1h54.5h150t68 -1v0zM608 686 h-97l-150 212h197l50 -212v0z" />
<glyph unicode="&#xda;" horiz-adv-x="1013" d="M1004 667l-165 -157v-331q0 -100 -89.5 -155.5t-248.5 -55.5q-141 0 -240.5 70.5t-99.5 170.5v304l-162 154q0 1 84 1h186h67t63 -1h100h40l-146 -150v-304q0 -49 46 -82t113 -33t114.5 31.5t47.5 83.5v303l-147 151h32.5h81.5q24 1 50.5 1h54.5h150t68 -1v0zM745 898 l-150 -212h-97l50 212h197v0z" />
<glyph unicode="&#xdb;" horiz-adv-x="1013" d="M1004 667l-165 -157v-331q0 -100 -89.5 -155.5t-248.5 -55.5q-141 0 -240.5 70.5t-99.5 170.5v304l-162 154q0 1 84 1h186h67t63 -1h100h40l-146 -150v-304q0 -49 46 -82t113 -33t114.5 31.5t47.5 83.5v303l-147 151h32.5h81.5q24 1 50.5 1h54.5h150t68 -1v0zM716 683 h-188l-34 135l-33 -135h-119l107 210h154l113 -210v0z" />
<glyph unicode="&#xdc;" horiz-adv-x="1013" d="M1004 667l-165 -157v-331q0 -100 -89.5 -155.5t-248.5 -55.5q-141 0 -240.5 70.5t-99.5 170.5v304l-162 154q0 1 84 1h186h67t63 -1h100h40l-146 -150v-304q0 -49 46 -82t113 -33t114.5 31.5t47.5 83.5v303l-147 151h32.5h81.5q24 1 50.5 1h54.5h150t68 -1v0zM506 738 q0 -21 -15 -36t-36 -15q-22 0 -37 15t-15 36t15 36t37 15q21 0 36 -15t15 -36v0zM629 738q0 -21 -15 -36t-36 -15q-22 0 -37 15t-15 36t15 36t37 15q21 0 36 -15t15 -36v0z" />
<glyph unicode="&#xdd;" horiz-adv-x="200" />
<glyph unicode="&#xde;" horiz-adv-x="805" d="M785 350v-4t1 -4v-4v-4q-1 -78 -63.5 -132t-154.5 -54h-178l156 -148h-540l160 155v354l-162 159h545l-122 -117h106q98 0 171.5 -59t80.5 -142v0zM562 350q0 35 -17 61t-41 25h-120v-173h115q32 0 47.5 25.5t15.5 61.5v0z" />
<glyph unicode="&#xdf;" horiz-adv-x="723" d="M700 181q0 -86 -64 -144.5t-156 -58.5q-39 0 -71.5 5.5t-55.5 23.5q-6 5 -10.5 9.5t-8.5 9.5q-12 14 -17 28t-5 27q0 15 5.5 28t15.5 23q12 13 29 21t34 11q6 0 11.5 0.5t11.5 0.5h4.5h4.5q5 -1 9.5 -1.5t8.5 -1.5q-2 -8 -3.5 -16.5t-2.5 -18.5q-1 -32 9 -55.5t26 -23.5 q21 0 29.5 22t11.5 49q2 15 2 30v25v3.5v2.5q0 69 -32.5 115t-85.5 46h-67v51q63 0 91.5 27.5t32.5 91.5q3 46 -21.5 79t-63.5 33q-47 0 -66 -31t-19 -81v-511h-287l111 111v404q0 89 77 137t186 48t186 -43t77 -117q0 -61 -48.5 -97t-124.5 -53h10.5h5.5q92 0 156 -61.5 t64 -147.5v0z" />
<glyph unicode="&#xe0;" horiz-adv-x="642" d="M637 86q0 -49 -36 -79.5t-101 -30.5q-62 0 -96.5 28.5t-38.5 72.5q-1 -1 -1.5 -2.5t-1.5 -3.5q-17 -36 -63.5 -65.5t-128.5 -29.5q-74 0 -120.5 28t-46.5 88q0 68 42 106t116 54l191 41v47q0 24 -24 36t-55 12h-1.5h-1.5q-31 -1 -57.5 -15t-26.5 -40q0 -4 0.5 -8.5 t0.5 -9.5q1 -6 3.5 -12t5.5 -11q-5 -1 -10 -2.5t-11 -2.5q-10 -3 -22 -5.5t-23 -4.5t-21 -3t-20 -1q-31 0 -52.5 14.5t-21.5 53.5v8.5t1 8.5q7 58 77.5 89.5t153.5 38.5q14 2 28 2.5t27 0.5q107 -1 172 -35.5t65 -93.5v-223q0 -35 8.5 -50t18.5 -15q15 0 21 17.5t6 38.5v1.5 v1.5q0 14 -2 26t-5 18q26 -7 38 -26t13 -63v0zM354 170v44l-87 -19q-35 -7 -57 -22t-22 -45q0 -27 18.5 -40.5t41.5 -13.5q6 0 12 1t12 3q7 2 14.5 5t14.5 7q20 11 36.5 30t16.5 50v0zM346 508h-97l-150 212h197l50 -212v0z" />
<glyph unicode="&#xe1;" horiz-adv-x="642" d="M637 86q0 -49 -36 -79.5t-101 -30.5q-62 0 -96.5 28.5t-38.5 72.5q-1 -1 -1.5 -2.5t-1.5 -3.5q-17 -36 -63.5 -65.5t-128.5 -29.5q-74 0 -120.5 28t-46.5 88q0 68 42 106t116 54l191 41v47q0 24 -24 36t-55 12h-1.5h-1.5q-31 -1 -57.5 -15t-26.5 -40q0 -4 0.5 -8.5 t0.5 -9.5q1 -6 3.5 -12t5.5 -11q-5 -1 -10 -2.5t-11 -2.5q-10 -3 -22 -5.5t-23 -4.5t-21 -3t-20 -1q-31 0 -52.5 14.5t-21.5 53.5v8.5t1 8.5q7 58 77.5 89.5t153.5 38.5q14 2 28 2.5t27 0.5q107 -1 172 -35.5t65 -93.5v-223q0 -35 8.5 -50t18.5 -15q15 0 21 17.5t6 38.5v1.5 v1.5q0 14 -2 26t-5 18q26 -7 38 -26t13 -63v0zM354 170v44l-87 -19q-35 -7 -57 -22t-22 -45q0 -27 18.5 -40.5t41.5 -13.5q6 0 12 1t12 3q7 2 14.5 5t14.5 7q20 11 36.5 30t16.5 50v0zM501 720l-150 -212h-97l50 212h197v0z" />
<glyph unicode="&#xe2;" horiz-adv-x="642" d="M637 86q0 -49 -36 -79.5t-101 -30.5q-62 0 -96.5 28.5t-38.5 72.5q-1 -1 -1.5 -2.5t-1.5 -3.5q-17 -36 -63.5 -65.5t-128.5 -29.5q-74 0 -120.5 28t-46.5 88q0 68 42 106t116 54l191 41v47q0 24 -24 36t-55 12h-1.5h-1.5q-31 -1 -57.5 -15t-26.5 -40q0 -4 0.5 -8.5 t0.5 -9.5q1 -6 3.5 -12t5.5 -11q-5 -1 -10 -2.5t-11 -2.5q-10 -3 -22 -5.5t-23 -4.5t-21 -3t-20 -1q-31 0 -52.5 14.5t-21.5 53.5v8.5t1 8.5q7 58 77.5 89.5t153.5 38.5q14 2 28 2.5t27 0.5q107 -1 172 -35.5t65 -93.5v-223q0 -35 8.5 -50t18.5 -15q15 0 21 17.5t6 38.5v1.5 v1.5q0 14 -2 26t-5 18q26 -7 38 -26t13 -63v0zM354 170v44l-87 -19q-35 -7 -57 -22t-22 -45q0 -27 18.5 -40.5t41.5 -13.5q6 0 12 1t12 3q7 2 14.5 5t14.5 7q20 11 36.5 30t16.5 50v0zM510 505h-188l-34 135l-33 -135h-119l107 210h154l113 -210v0z" />
<glyph unicode="&#xe3;" horiz-adv-x="642" d="M637 86q0 -49 -36 -79.5t-101 -30.5q-62 0 -96.5 28.5t-38.5 72.5q-1 -1 -1.5 -2.5t-1.5 -3.5q-17 -36 -63.5 -65.5t-128.5 -29.5q-74 0 -120.5 28t-46.5 88q0 68 42 106t116 54l191 41v47q0 24 -24 36t-55 12h-1.5h-1.5q-31 -1 -57.5 -15t-26.5 -40q0 -4 0.5 -8.5 t0.5 -9.5q1 -6 3.5 -12t5.5 -11q-5 -1 -10 -2.5t-11 -2.5q-10 -3 -22 -5.5t-23 -4.5t-21 -3t-20 -1q-31 0 -52.5 14.5t-21.5 53.5v8.5t1 8.5q7 58 77.5 89.5t153.5 38.5q14 2 28 2.5t27 0.5q107 -1 172 -35.5t65 -93.5v-223q0 -35 8.5 -50t18.5 -15q15 0 21 17.5t6 38.5v1.5 v1.5q0 14 -2 26t-5 18q26 -7 38 -26t13 -63v0zM354 170v44l-87 -19q-35 -7 -57 -22t-22 -45q0 -27 18.5 -40.5t41.5 -13.5q6 0 12 1t12 3q7 2 14.5 5t14.5 7q20 11 36.5 30t16.5 50v0zM530 735q-1 -17 -3.5 -36.5t-6.5 -38.5q-11 -53 -38 -98t-85 -52h-2h-2h-2h-2 q-18 0 -35 6.5t-34 14.5q-3 1 -6.5 3t-6.5 3q-7 3 -17 8.5t-21 11.5q-8 4 -16.5 8t-17.5 8q-10 3 -19.5 5.5t-18.5 2.5q-10 0 -19.5 -4t-16.5 -13q-4 -5 -5.5 -11.5t-2.5 -12.5q0 -1 -0.5 -2t-0.5 -2q0 -3 -0.5 -5.5t-1.5 -4.5h-26q0 13 5 36t13 48q5 16 11 31t14 28 q14 24 37.5 42t54.5 22h2h2h1h2q5 0 10.5 -1t10.5 -3q7 -2 14 -5l14 -6q3 -2 6.5 -3.5t7.5 -3.5q9 -4 19 -10l20 -12q15 -9 30.5 -17t31.5 -10q3 -1 6 -1h6q4 0 8.5 0.5t8.5 2.5q4 1 8.5 3t8.5 5q11 8 16.5 21t10.5 28q1 3 2 6.5t2 7.5h23v0z" />
<glyph unicode="&#xe4;" horiz-adv-x="642" d="M637 86q0 -49 -36 -79.5t-101 -30.5q-62 0 -96.5 28.5t-38.5 72.5q-1 -1 -1.5 -2.5t-1.5 -3.5q-17 -36 -63.5 -65.5t-128.5 -29.5q-74 0 -120.5 28t-46.5 88q0 68 42 106t116 54l191 41v47q0 24 -24 36t-55 12h-1.5h-1.5q-31 -1 -57.5 -15t-26.5 -40q0 -4 0.5 -8.5 t0.5 -9.5q1 -6 3.5 -12t5.5 -11q-5 -1 -10 -2.5t-11 -2.5q-10 -3 -22 -5.5t-23 -4.5t-21 -3t-20 -1q-31 0 -52.5 14.5t-21.5 53.5v8.5t1 8.5q7 58 77.5 89.5t153.5 38.5q14 2 28 2.5t27 0.5q107 -1 172 -35.5t65 -93.5v-223q0 -35 8.5 -50t18.5 -15q15 0 21 17.5t6 38.5v1.5 v1.5q0 14 -2 26t-5 18q26 -7 38 -26t13 -63v0zM354 170v44l-87 -19q-35 -7 -57 -22t-22 -45q0 -27 18.5 -40.5t41.5 -13.5q6 0 12 1t12 3q7 2 14.5 5t14.5 7q20 11 36.5 30t16.5 50v0zM280 558q0 -21 -15 -36t-36 -15q-22 0 -37 15t-15 36t15 36t37 15q21 0 36 -15t15 -36v0 zM403 558q0 -21 -15 -36t-36 -15q-22 0 -37 15t-15 36t15 36t37 15q21 0 36 -15t15 -36v0z" />
<glyph unicode="&#xe5;" horiz-adv-x="642" d="M637 86q0 -49 -36 -79.5t-101 -30.5q-62 0 -96.5 28.5t-38.5 72.5q-1 -1 -1.5 -2.5t-1.5 -3.5q-17 -36 -63.5 -65.5t-128.5 -29.5q-74 0 -120.5 28t-46.5 88q0 68 42 106t116 54l191 41v47q0 24 -24 36t-55 12h-1.5h-1.5q-31 -1 -57.5 -15t-26.5 -40q0 -4 0.5 -8.5 t0.5 -9.5q1 -6 3.5 -12t5.5 -11q-5 -1 -10 -2.5t-11 -2.5q-10 -3 -22 -5.5t-23 -4.5t-21 -3t-20 -1q-31 0 -52.5 14.5t-21.5 53.5v8.5t1 8.5q7 58 77.5 89.5t153.5 38.5q14 2 28 2.5t27 0.5q107 -1 172 -35.5t65 -93.5v-223q0 -35 8.5 -50t18.5 -15q15 0 21 17.5t6 38.5v1.5 v1.5q0 14 -2 26t-5 18q26 -7 38 -26t13 -63v0zM354 170v44l-87 -19q-35 -7 -57 -22t-22 -45q0 -27 18.5 -40.5t41.5 -13.5q6 0 12 1t12 3q7 2 14.5 5t14.5 7q20 11 36.5 30t16.5 50v0zM374 577q0 -31 -21.5 -52.5t-52.5 -21.5q-30 0 -51.5 21.5t-21.5 52.5q0 30 21.5 51.5 t51.5 21.5q31 0 52.5 -21.5t21.5 -51.5v0zM324 577q0 10 -7 16.5t-17 6.5t-16.5 -6.5t-6.5 -16.5t6.5 -17t16.5 -7t17 7t7 17v0z" />
<glyph unicode="&#xe6;" horiz-adv-x="928" d="M907 203h-352q0 -68 36 -99t130 -31q11 0 22 0.5t22 2.5q14 2 28.5 5t28.5 7q29 10 50.5 29t33.5 41q2 -4 3 -9t2 -9q0 -5 0.5 -9.5t0.5 -9.5q0 -43 -31.5 -79t-81.5 -52q-3 -1 -6.5 -2t-6.5 -2q-33 -9 -66.5 -12t-72.5 -3q-86 0 -150.5 31t-101.5 85q-4 -5 -8 -11 t-9 -12q-3 -4 -5.5 -7.5t-6.5 -6.5q-26 -30 -73.5 -54.5t-123.5 -24.5q-75 0 -121 27.5t-46 87.5q0 68 42 106.5t116 54.5l191 40v47q0 24 -24.5 36t-54.5 12h-1.5h-1.5q-31 -1 -57.5 -14.5t-26.5 -39.5q0 -5 0.5 -10.5t1.5 -10.5t3 -10.5t5 -10.5q-5 -1 -10 -2.5t-11 -2.5 q-11 -3 -24 -6t-26 -5q-9 -1 -18.5 -2t-18.5 -1q-31 0 -52 14t-21 53v9.5t1 8.5q7 58 77.5 89.5t153.5 38.5q14 2 28 2.5t27 0.5q57 0 103.5 -10t77.5 -29q34 20 73.5 31t81.5 11q119 0 193 -85t77 -198v0zM353 164v44l-87 -18q-35 -8 -57 -22.5t-22 -45.5q0 -28 19 -41 t42 -12h6t6 1q2 0 5 0.5t6 1.5q7 2 14.5 5t14.5 7q20 11 36.5 30t16.5 50v0zM748 284q1 56 -29 83t-66 27q-37 0 -67.5 -27.5t-29.5 -82.5h192v0z" />
<glyph unicode="&#xe7;" horiz-adv-x="583" d="M409 -115q0 -41 -40.5 -71t-93.5 -30q-28 0 -52.5 8t-39.5 25q-12 15 -17 27.5t-5 22.5q0 17 12 27t26 9q6 0 12 -1.5t11 -5.5l-2 -10l-2 -10q-1 -24 9.5 -41t33.5 -17q19 0 33 17t17 41q1 4 1 8.5v9.5q0 33 -16.5 47t-38.5 13q-4 0 -8 -0.5t-7 -1.5q-8 -1 -15.5 -4 t-14.5 -7q15 22 31.5 32.5t33.5 13.5q6 1 11.5 1.5t11.5 0.5q53 0 81 -30t28 -73v-1zM549 349q0 -36 -26 -58.5t-64 -22.5q-14 0 -27 3t-24 10q2 9 3 17.5t1 15.5q0 43 -26.5 63.5t-68.5 20.5q-46 0 -79.5 -36t-32.5 -124q1 -92 34 -122t76 -36q8 -1 16.5 -1.5t18.5 -0.5 q13 0 26.5 1.5t27.5 4.5q25 5 48.5 16.5t41.5 32.5q19 22 24 48t5 54q15 -16 23 -36t10 -40v-6v-6q-1 -26 -9.5 -50t-22.5 -40q-11 -13 -24 -24.5t-30 -20.5q-35 -19 -77 -29t-96 -10q-124 0 -210.5 76t-82.5 184q3 108 98.5 182t219.5 74q15 0 30.5 -1.5t31.5 -4.5 q62 -11 113.5 -45t51.5 -89v0z" />
<glyph unicode="&#xe8;" horiz-adv-x="578" d="M558 205h-353q0 -68 36 -99t131 -31q12 0 24.5 1t25.5 3t25.5 5t24.5 7q29 9 51 28t34 41q3 -9 4.5 -18t1.5 -18q0 -43 -32 -79t-82 -52q-35 -11 -71.5 -15.5t-80.5 -4.5q-132 0 -211.5 71.5t-79.5 183.5q0 116 84.5 188.5t196.5 72.5q120 0 193.5 -85t77.5 -199v0z M399 287q1 56 -29 83t-67 27t-67.5 -27.5t-29.5 -82.5h193v0zM338 510h-97l-150 212h197l50 -212v0z" />
<glyph unicode="&#xe9;" horiz-adv-x="578" d="M558 205h-353q0 -68 36 -99t131 -31q12 0 24.5 1t25.5 3t25.5 5t24.5 7q29 9 51 28t34 41q3 -9 4.5 -18t1.5 -18q0 -43 -32 -79t-82 -52q-35 -11 -71.5 -15.5t-80.5 -4.5q-132 0 -211.5 71.5t-79.5 183.5q0 116 84.5 188.5t196.5 72.5q120 0 193.5 -85t77.5 -199v0z M399 287q1 56 -29 83t-67 27t-67.5 -27.5t-29.5 -82.5h193v0zM497 720l-150 -212h-97l50 212h197v0z" />
<glyph unicode="&#xea;" horiz-adv-x="578" d="M558 205h-353q0 -68 36 -99t131 -31q12 0 24.5 1t25.5 3t25.5 5t24.5 7q29 9 51 28t34 41q3 -9 4.5 -18t1.5 -18q0 -43 -32 -79t-82 -52q-35 -11 -71.5 -15.5t-80.5 -4.5q-132 0 -211.5 71.5t-79.5 183.5q0 116 84.5 188.5t196.5 72.5q120 0 193.5 -85t77.5 -199v0z M399 287q1 56 -29 83t-67 27t-67.5 -27.5t-29.5 -82.5h193v0zM496 505h-188l-34 135l-33 -135h-119l107 210h154l113 -210v0z" />
<glyph unicode="&#xeb;" horiz-adv-x="578" d="M558 205h-353q0 -68 36 -99t131 -31q12 0 24.5 1t25.5 3t25.5 5t24.5 7q29 9 51 28t34 41q3 -9 4.5 -18t1.5 -18q0 -43 -32 -79t-82 -52q-35 -11 -71.5 -15.5t-80.5 -4.5q-132 0 -211.5 71.5t-79.5 183.5q0 116 84.5 188.5t196.5 72.5q120 0 193.5 -85t77.5 -199v0z M399 287q1 56 -29 83t-67 27t-67.5 -27.5t-29.5 -82.5h193v0zM274 558q0 -21 -15 -36t-36 -15q-22 0 -37 15t-15 36t15 36t37 15q21 0 36 -15t15 -36v0zM397 558q0 -21 -15 -36t-36 -15q-22 0 -37 15t-15 36t15 36t37 15q21 0 36 -15t15 -36v0z" />
<glyph unicode="&#xec;" horiz-adv-x="449" d="M443 0h-430l123 120v224l-138 134h325v-358l120 -120v0zM244 504h-97l-150 212h197l50 -212v0z" />
<glyph unicode="&#xed;" horiz-adv-x="449" d="M443 0h-430l123 120v224l-138 134h325v-358l120 -120v0zM409 710l-150 -212h-97l50 212h197v0z" />
<glyph unicode="&#xee;" horiz-adv-x="449" d="M443 0h-430l123 120v224l-138 134h325v-358l120 -120v0zM366 497h-188l-34 135l-33 -135h-119l107 210h154l113 -210v0z" />
<glyph unicode="&#xef;" horiz-adv-x="449" d="M443 0h-430l123 120v224l-138 134h325v-358l120 -120v0zM170 550q0 -21 -15 -36t-36 -15q-22 0 -37 15t-15 36t15 36t37 15q21 0 36 -15t15 -36v0zM293 550q0 -21 -15 -36t-36 -15q-22 0 -37 15t-15 36t15 36t37 15q21 0 36 -15t15 -36v0z" />
<glyph unicode="&#xf0;" horiz-adv-x="643" d="M623 237q0 -117 -89.5 -186.5t-197.5 -76.5q-6 -1 -12 -1h-12q-129 0 -220.5 76t-91.5 184q0 102 83 177t203 83q-19 15 -40 29t-44 27l-123 -71l-32 55l87 49q-25 11 -51 20.5t-54 16.5l33 61q47 -6 91.5 -15t85.5 -22l144 83l32 -55l-98 -56q139 -57 222.5 -152.5 t83.5 -225.5v0zM421 235q0 68 -31.5 115t-78.5 47q-48 0 -79 -47t-31 -115q0 -67 31 -114.5t79 -47.5q47 0 78.5 47.5t31.5 114.5v0z" />
<glyph unicode="&#xf1;" horiz-adv-x="820" d="M808 0h-385l76 101v186q0 30 -21.5 51.5t-52.5 21.5q-40 0 -62 -34t-35 -74q0 -1 -0.5 -1.5t-0.5 -1.5v-149l79 -100h-389l123 120v224l-138 134h325v-119q26 54 64.5 92t114.5 38t127.5 -40t51.5 -100v-226l123 -123v0zM606 739q-1 -17 -3.5 -36.5t-6.5 -38.5 q-11 -53 -38 -98t-85 -52h-2h-2h-2h-2q-18 0 -35 6.5t-34 14.5q-3 1 -6.5 3t-6.5 3q-7 3 -17 8.5t-21 11.5q-8 4 -16.5 8t-17.5 8q-10 3 -19.5 5.5t-18.5 2.5q-10 0 -19.5 -4t-16.5 -13q-4 -5 -5.5 -11.5t-2.5 -12.5q0 -1 -0.5 -2t-0.5 -2q0 -3 -0.5 -5.5t-1.5 -4.5h-26 q0 13 5 36t13 48q5 16 11 31t14 28q14 24 37.5 42t54.5 22h2h2h1h2q5 0 10.5 -1t10.5 -3q7 -2 14 -5l14 -6q3 -2 6.5 -3.5t7.5 -3.5q9 -4 19 -10l20 -12q15 -9 30.5 -17t31.5 -10q3 -1 6 -1h6q4 0 8.5 0.5t8.5 2.5q4 1 8.5 3t8.5 5q11 8 16.5 21t10.5 28q1 3 2 6.5t2 7.5h23 v0z" />
<glyph unicode="&#xf2;" horiz-adv-x="636" d="M619 233q0 -108 -91 -184t-219 -76q-127 0 -218 76t-91 184t91 184.5t218 76.5q128 0 219 -76.5t91 -184.5v0zM417 234q0 68 -30 116t-79 48t-79.5 -48t-30.5 -116q0 -67 28.5 -115.5t81.5 -48.5t81 48.5t28 115.5v0zM360 516h-97l-150 212h197l50 -212v0z" />
<glyph unicode="&#xf3;" horiz-adv-x="636" d="M619 233q0 -108 -91 -184t-219 -76q-127 0 -218 76t-91 184t91 184.5t218 76.5q128 0 219 -76.5t91 -184.5v0zM417 234q0 68 -30 116t-79 48t-79.5 -48t-30.5 -116q0 -67 28.5 -115.5t81.5 -48.5t81 48.5t28 115.5v0zM511 726l-150 -212h-97l50 212h197v0z" />
<glyph unicode="&#xf4;" horiz-adv-x="636" d="M619 233q0 -108 -91 -184t-219 -76q-127 0 -218 76t-91 184t91 184.5t218 76.5q128 0 219 -76.5t91 -184.5v0zM417 234q0 68 -30 116t-79 48t-79.5 -48t-30.5 -116q0 -67 28.5 -115.5t81.5 -48.5t81 48.5t28 115.5v0zM500 515h-188l-34 135l-33 -135h-119l107 210h154 l113 -210v0z" />
<glyph unicode="&#xf5;" horiz-adv-x="636" d="M619 233q0 -108 -91 -184t-219 -76q-127 0 -218 76t-91 184t91 184.5t218 76.5q128 0 219 -76.5t91 -184.5v0zM417 234q0 68 -30 116t-79 48t-79.5 -48t-30.5 -116q0 -67 28.5 -115.5t81.5 -48.5t81 48.5t28 115.5v0zM538 737q-1 -17 -3.5 -36.5t-6.5 -38.5 q-11 -53 -38 -98t-85 -52h-2h-2h-2h-2q-18 0 -35 6.5t-34 14.5q-3 1 -6.5 3t-6.5 3q-7 3 -17 8.5t-21 11.5q-8 4 -16.5 8t-17.5 8q-10 3 -19.5 5.5t-18.5 2.5q-10 0 -19.5 -4t-16.5 -13q-4 -5 -5.5 -11.5t-2.5 -12.5q0 -1 -0.5 -2t-0.5 -2q0 -3 -0.5 -5.5t-1.5 -4.5h-26 q0 13 5 36t13 48q5 16 11 31t14 28q14 24 37.5 42t54.5 22h2h2h1h2q5 0 10.5 -1t10.5 -3q7 -2 14 -5l14 -6q3 -2 6.5 -3.5t7.5 -3.5q9 -4 19 -10l20 -12q15 -9 30.5 -17t31.5 -10q3 -1 6 -1h6q4 0 8.5 0.5t8.5 2.5q4 1 8.5 3t8.5 5q11 8 16.5 21t10.5 28q1 3 2 6.5t2 7.5h23 v0z" />
<glyph unicode="&#xf6;" horiz-adv-x="636" d="M619 233q0 -108 -91 -184t-219 -76q-127 0 -218 76t-91 184t91 184.5t218 76.5q128 0 219 -76.5t91 -184.5v0zM417 234q0 68 -30 116t-79 48t-79.5 -48t-30.5 -116q0 -67 28.5 -115.5t81.5 -48.5t81 48.5t28 115.5v0zM290 564q0 -21 -15 -36t-36 -15q-22 0 -37 15t-15 36 t15 36t37 15q21 0 36 -15t15 -36v0zM413 564q0 -21 -15 -36t-36 -15q-22 0 -37 15t-15 36t15 36t37 15q21 0 36 -15t15 -36v0z" />
<glyph unicode="&#xf7;" />
<glyph unicode="&#xf8;" horiz-adv-x="640" d="M621 230q0 -107 -91 -183t-219 -76q-52 0 -100 14t-86 38l-39 -33l-48 58l28 24q-30 33 -47 73.5t-17 84.5q0 108 91 184.5t218 76.5q53 0 100.5 -14t86.5 -39l38 33l49 -58l-29 -24q31 -33 48 -73.5t17 -85.5v0zM419 231q0 11 -0.5 20.5t-2.5 18.5l-185 -157 q14 -21 34 -33t45 -12q53 0 81 48t28 115v0zM389 346q-14 23 -34 36t-45 13q-49 0 -79.5 -48t-30.5 -116v-10.5t1 -10.5q0 -6 0.5 -11.5t1.5 -10.5l186 158v0z" />
<glyph unicode="&#xf9;" horiz-adv-x="811" d="M806 0h-325v103q-25 -53 -63 -90.5t-115 -37.5q-76 0 -127.5 39.5t-51.5 99.5v241l-124 123h310l-1 -302q0 -30 22 -51.5t53 -21.5q41 0 62.5 34.5t34.5 76.5v141l-134 123h322v-344l137 -134v0zM394 498h-97l-150 212h197l50 -212v0z" />
<glyph unicode="&#xfa;" horiz-adv-x="811" d="M806 0h-325v103q-25 -53 -63 -90.5t-115 -37.5q-76 0 -127.5 39.5t-51.5 99.5v241l-124 123h310l-1 -302q0 -30 22 -51.5t53 -21.5q41 0 62.5 34.5t34.5 76.5v141l-134 123h322v-344l137 -134v0zM545 710l-150 -212h-97l50 212h197v0z" />
<glyph unicode="&#xfb;" horiz-adv-x="811" d="M806 0h-325v103q-25 -53 -63 -90.5t-115 -37.5q-76 0 -127.5 39.5t-51.5 99.5v241l-124 123h310l-1 -302q0 -30 22 -51.5t53 -21.5q41 0 62.5 34.5t34.5 76.5v141l-134 123h322v-344l137 -134v0zM538 497h-188l-34 135l-33 -135h-119l107 210h154l113 -210v0z" />
<glyph unicode="&#xfc;" horiz-adv-x="811" d="M806 0h-325v103q-25 -53 -63 -90.5t-115 -37.5q-76 0 -127.5 39.5t-51.5 99.5v241l-124 123h310l-1 -302q0 -30 22 -51.5t53 -21.5q41 0 62.5 34.5t34.5 76.5v141l-134 123h322v-344l137 -134v0zM320 546q0 -21 -15 -36t-36 -15q-22 0 -37 15t-15 36t15 36t37 15 q21 0 36 -15t15 -36v0zM443 546q0 -21 -15 -36t-36 -15q-22 0 -37 15t-15 36t15 36t37 15q21 0 36 -15t15 -36v0z" />
<glyph unicode="&#xfd;" horiz-adv-x="200" />
<glyph unicode="&#xfe;" horiz-adv-x="738" d="M716 230q0 -104 -69 -176t-152 -78h-5.5h-5.5q-51 0 -89 30t-61 78v-176l147 -119q-115 1 -230.5 1h-231.5l128 118v628l-146 130h333v-283q20 49 60 78.5t90 29.5h5.5h5.5q83 -4 152 -69.5t69 -191.5v0zM524 232q0 84 -26.5 119.5t-64.5 36.5q-34 1 -62 -41t-28 -115 q0 -72 25 -114t63 -42q47 0 70 46t23 110v0z" />
<glyph unicode="&#xff;" horiz-adv-x="799" d="M794 478l-121 -120l-153 -411q-31 -80 -79 -125.5t-140 -45.5q-73 0 -124.5 33t-51.5 80q0 44 38.5 75t93.5 31q7 0 14.5 -0.5t15.5 -2.5q4 0 7.5 -1t7.5 -2q-1 -1 -1.5 -3t-0.5 -3q-3 -9 -5.5 -21.5t-3.5 -25.5v-5.5v-4.5q1 -18 6.5 -33t19.5 -19q2 -1 4.5 -1h3.5 q20 0 34 21t21 47q3 8 5 16t3 15l-240 386l-150 120h444l-79 -106l112 -191l71 184l-87 113h335v0zM414 550q0 -21 -15 -36t-36 -15q-22 0 -37 15t-15 36t15 36t37 15q21 0 36 -15t15 -36v0zM537 550q0 -21 -15 -36t-36 -15q-22 0 -37 15t-15 36t15 36t37 15q21 0 36 -15 t15 -36v0z" />
<glyph unicode="&#x152;" horiz-adv-x="1296" d="M1266 0h-650q-43 -16 -91 -26t-99 -10q-175 0 -300 101t-125 250q0 150 125 261t300 111q36 0 71 -5t68 -16h686v-289l-157 173h-272v-146h126l117 83v-299l-117 83h-126v-140h262l182 186v-317v0zM585 326q0 98 -44.5 170.5t-114.5 72.5q-69 0 -113.5 -72.5 t-44.5 -170.5q0 -106 46.5 -169.5t111.5 -63.5q66 0 112.5 63.5t46.5 169.5v0z" />
<glyph unicode="&#x153;" horiz-adv-x="1002" d="M976 158q3 -9 4.5 -18t1.5 -18q0 -43 -32 -79.5t-82 -52.5q-3 -1 -6.5 -2t-6.5 -2q-33 -9 -66.5 -12t-72.5 -3q-62 0 -113.5 16t-89.5 47q-41 -30 -93 -46.5t-111 -16.5q-127 0 -218 76t-91 183q0 108 91 184.5t218 76.5q61 0 115 -18.5t95 -50.5q38 31 86.5 47.5 t100.5 16.5q119 0 193 -85t77 -198h-352q0 -68 36 -99t131 -31q12 0 24.5 1t25.5 3t25.5 4.5t24.5 6.5q29 10 50.5 29t34.5 41v0zM417 231q0 68 -30 116t-79 48t-79.5 -48t-30.5 -116q0 -67 28.5 -115t81.5 -48t81 48t28 115v0zM817 284q1 56 -29 83t-66 27 q-37 0 -67.5 -27.5t-29.5 -82.5h192v0z" />
<glyph unicode="&#x178;" horiz-adv-x="943" d="M944 667l-146 -131l-209 -297v-85l168 -153h-553l162 153v89l-219 308l-148 116h525l-107 -116l121 -166l118 171l-114 111h402v0zM508 733q0 -21 -15 -36t-36 -15q-22 0 -37 15t-15 36t15 36t37 15q21 0 36 -15t15 -36v0zM631 733q0 -21 -15 -36t-36 -15q-22 0 -37 15 t-15 36t15 36t37 15q21 0 36 -15t15 -36v0z" />
<glyph unicode="&#x2c6;" horiz-adv-x="446" d="M426 849q-1 -17 -3.5 -36.5t-6.5 -38.5q-11 -53 -38 -98t-85 -52h-2h-2h-2h-2q-18 0 -35 6.5t-34 14.5q-3 1 -6.5 3t-6.5 3q-7 3 -17 8.5t-21 11.5q-8 4 -16.5 8t-17.5 8q-10 3 -19.5 5.5t-18.5 2.5q-10 0 -19.5 -4t-16.5 -13q-4 -5 -5.5 -11.5t-2.5 -12.5q0 -1 -0.5 -2 t-0.5 -2q0 -3 -0.5 -5.5t-1.5 -4.5h-26q0 13 5 36t13 48q5 16 11 31t14 28q14 24 37.5 42t54.5 22h2h2h1h2q5 0 10.5 -1t10.5 -3q7 -2 14 -5l14 -6q3 -2 6.5 -3.5t7.5 -3.5q9 -4 19 -10l20 -12q15 -9 30.5 -17t31.5 -10q3 -1 6 -1h6q4 0 8.5 0.5t8.5 2.5q4 1 8.5 3t8.5 5 q11 8 16.5 21t10.5 28q1 3 2 6.5t2 7.5h23v0z" />
<glyph unicode="&#x2dc;" horiz-adv-x="446" d="M410 667h-188l-34 135l-33 -135h-119l107 210h154l113 -210v0z" />
<glyph unicode="&#x2000;" horiz-adv-x="464" />
<glyph unicode="&#x2001;" horiz-adv-x="929" />
<glyph unicode="&#x2002;" horiz-adv-x="464" />
<glyph unicode="&#x2003;" horiz-adv-x="929" />
<glyph unicode="&#x2004;" horiz-adv-x="309" />
<glyph unicode="&#x2005;" horiz-adv-x="232" />
<glyph unicode="&#x2006;" horiz-adv-x="154" />
<glyph unicode="&#x2007;" horiz-adv-x="154" />
<glyph unicode="&#x2008;" horiz-adv-x="116" />
<glyph unicode="&#x2009;" horiz-adv-x="185" />
<glyph unicode="&#x200a;" horiz-adv-x="51" />
<glyph unicode="&#x2010;" horiz-adv-x="326" d="M312 153h-297v159h297v-159v0z" />
<glyph unicode="&#x2011;" horiz-adv-x="326" d="M312 153h-297v159h297v-159v0z" />
<glyph unicode="&#x2012;" horiz-adv-x="326" d="M312 153h-297v159h297v-159v0z" />
<glyph unicode="&#x2013;" horiz-adv-x="544" d="M521 153h-496v159h496v-159v0z" />
<glyph unicode="&#x2014;" horiz-adv-x="599" d="M601 153h-594v159h594v-159v0z" />
<glyph unicode="&#x2018;" horiz-adv-x="228" d="M30 501q-1 6 -2.5 11.5t-1.5 11.5q-1 6 -1.5 11.5t-0.5 11.5v8t1 8q5 61 49 113t126 62q-1 -4 -1.5 -8.5t-1.5 -9.5q-45 -29 -66.5 -57.5t-29.5 -57.5q4 1 8.5 1.5t8.5 0.5q36 0 62.5 -27t26.5 -65q0 -39 -26.5 -66t-62.5 -27t-58.5 23t-29.5 56v0z" />
<glyph unicode="&#x2019;" horiz-adv-x="228" d="M202 659q2 -6 3 -11.5t2 -11.5q0 -6 0.5 -11.5t0.5 -11.5v-8t-1 -8q-5 -61 -49 -113t-126 -62q1 5 1.5 9.5t1.5 8.5q45 29 67 58t29 57q-4 -1 -8 -1.5t-9 -0.5q-36 0 -62.5 27t-26.5 65q0 39 26.5 66t62.5 27t58.5 -23t29.5 -56v0z" />
<glyph unicode="&#x201a;" horiz-adv-x="228" d="M202 109q2 -6 3 -11.5t2 -11.5q0 -6 0.5 -11.5t0.5 -11.5v-8t-1 -8q-5 -60 -49 -112t-126 -62q1 4 1.5 8.5t1.5 9.5q45 29 67 57.5t29 56.5q-4 -1 -8 -1.5t-9 -0.5q-36 0 -62.5 27t-26.5 65q0 39 26.5 66t62.5 27t58.5 -23t29.5 -56v0z" />
<glyph unicode="&#x201c;" horiz-adv-x="412" d="M30 501q-1 6 -2.5 11.5t-1.5 11.5q-1 6 -1.5 11.5t-0.5 11.5v8t1 8q5 61 49 113t126 62q-1 -4 -1.5 -8.5t-1.5 -9.5q-45 -29 -66.5 -57.5t-29.5 -57.5q4 1 8.5 1.5t8.5 0.5q36 0 62.5 -27t26.5 -65q0 -39 -26.5 -66t-62.5 -27t-58.5 23t-29.5 56v0zM220 501 q-1 6 -2.5 11.5t-1.5 11.5q-1 6 -1.5 11.5t-0.5 11.5v8t1 8q5 61 49 113t126 62q-1 -4 -1.5 -8.5t-1.5 -9.5q-45 -29 -66.5 -57.5t-29.5 -57.5q4 1 8.5 1.5t8.5 0.5q36 0 62.5 -27t26.5 -65q0 -39 -26.5 -66t-62.5 -27t-58.5 23t-29.5 56v0z" />
<glyph unicode="&#x201d;" horiz-adv-x="412" d="M202 659q2 -6 3 -11.5t2 -11.5q0 -6 0.5 -11.5t0.5 -11.5v-8t-1 -8q-5 -61 -49 -113t-126 -62q1 5 1.5 9.5t1.5 8.5q45 29 67 58t29 57q-4 -1 -8 -1.5t-9 -0.5q-36 0 -62.5 27t-26.5 65q0 39 26.5 66t62.5 27t58.5 -23t29.5 -56v0zM392 659q2 -6 3 -11.5t2 -11.5 q0 -6 0.5 -11.5t0.5 -11.5v-8t-1 -8q-5 -61 -49 -113t-126 -62q1 5 1.5 9.5t1.5 8.5q45 29 67 58t29 57q-4 -1 -8 -1.5t-9 -0.5q-36 0 -62.5 27t-26.5 65q0 39 26.5 66t62.5 27t58.5 -23t29.5 -56v0z" />
<glyph unicode="&#x201e;" horiz-adv-x="412" d="M202 99q2 -6 3 -11.5t2 -11.5q0 -6 0.5 -11.5t0.5 -11.5v-8t-1 -8q-5 -60 -49 -112t-126 -62q1 4 1.5 8.5t1.5 9.5q45 29 67 57.5t29 57.5q-4 -1 -8 -1.5t-9 -0.5q-36 0 -62.5 26.5t-26.5 64.5q0 39 26.5 66t62.5 27t58.5 -23t29.5 -56v0zM392 99q2 -6 3 -11.5t2 -11.5 q0 -6 0.5 -11.5t0.5 -11.5v-8t-1 -8q-5 -60 -49 -112t-126 -62q1 4 1.5 8.5t1.5 9.5q45 29 67 57.5t29 57.5q-4 -1 -8 -1.5t-9 -0.5q-36 0 -62.5 26.5t-26.5 64.5q0 39 26.5 66t62.5 27t58.5 -23t29.5 -56v0z" />
<glyph unicode="&#x2022;" horiz-adv-x="412" d="M396 336q0 -78 -56 -133t-134 -55t-133 55t-55 133t55 134t133 56t134 -56t56 -134v0z" />
<glyph unicode="&#x2026;" horiz-adv-x="652" d="M229 83q0 -39 -28 -66t-67 -27t-66.5 27t-27.5 66t27.5 67t66.5 28t67 -28t28 -67v0zM429 83q0 -39 -28 -66t-67 -27t-66.5 27t-27.5 66t27.5 67t66.5 28t67 -28t28 -67v0zM629 83q0 -39 -28 -66t-67 -27t-66.5 27t-27.5 66t27.5 67t66.5 28t67 -28t28 -67v0z" />
<glyph unicode="&#x202f;" horiz-adv-x="185" />
<glyph unicode="&#x2039;" horiz-adv-x="360" d="M356 177h-170l-183 184l183 184h170l-184 -184l184 -184v0z" />
<glyph unicode="&#x203a;" horiz-adv-x="360" d="M2 177l184 184l-184 184h170l183 -184l-183 -184h-170v0z" />
<glyph unicode="&#x205f;" horiz-adv-x="232" />
<glyph unicode="&#x2122;" horiz-adv-x="778" d="M288 536l-62 84h-41v-161l61 -62h-204l61 62v161h-40l-63 -84l6 131h276l6 -131v0zM707 397h-195l55 62v178l-63 -240h-43l-61 227v-165l56 -62h-162l59 62v145l-59 63h26h57h58h26l33 -123l32 123h181l-58 -63v-145l58 -62v0z" />
<glyph unicode="&#xe000;" horiz-adv-x="480" d="M0 480h480v-480h-480v480z" />
</font>
</defs>
</svg>
