<?xml version="1.0" standalone="no"?>
<!DOCTYPE svg PUBLIC "-//W3C//DTD SVG 1.1//EN" "http://www.w3.org/Graphics/SVG/1.1/DTD/svg11.dtd" >
<svg xmlns="http://www.w3.org/2000/svg">
<metadata></metadata>
<defs>
<font id="yellow_magicianregular" horiz-adv-x="1024" >
<font-face units-per-em="2048" ascent="1638" descent="-410" />
<missing-glyph horiz-adv-x="512" />
<glyph horiz-adv-x="2048" />
<glyph horiz-adv-x="2048" />
<glyph unicode="&#xd;" horiz-adv-x="512" />
<glyph unicode=" "  horiz-adv-x="512" />
<glyph unicode="&#x09;" horiz-adv-x="512" />
<glyph unicode="&#xa0;" horiz-adv-x="512" />
<glyph unicode="!" horiz-adv-x="682" d="M360 359h-38l-88 810q-6 53 -6 79q0 63 33.5 101t80.5 38t79.5 -38t32.5 -113q0 -24 -4 -67zM340 193q46 0 78.5 -32.5t32.5 -77.5q0 -46 -32.5 -78.5t-78.5 -32.5t-78.5 32.5t-32.5 78.5q0 45 32.5 77.5t78.5 32.5z" />
<glyph unicode="&#x22;" horiz-adv-x="836" d="M576 803l-54 292l-22 121q-2 25 -2 50q0 63 28 92t74 29q43 0 71.5 -29t28.5 -78q0 -85 -19 -184l-57 -293h-48zM210 803l-55 296q-22 122 -22 166q0 64 26.5 93t71.5 29q44 0 73 -29.5t29 -78.5q0 -39 -26 -181l-54 -295h-43z" />
<glyph unicode="#" d="M115 -28l93 455h-171v82h187l69 343h-256v80h275l91 455h83l-91 -455h337l97 455h83l-95 -455h170v-80h-185l-70 -343h255v-82h-272l-93 -455h-81l91 455h-339l-95 -455h-83zM308 509h339l72 343h-341z" />
<glyph unicode="$" d="M108 334h44q11 -137 86 -210t224 -87v584q-225 139 -300 246q-53 76 -53 185q0 123 91.5 215t261.5 111v92h64v-92q82 -5 138 -19q29 -7 192 -69v-299h-39q-13 159 -82.5 232.5t-208.5 87.5v-508q252 -176 323.5 -259.5t71.5 -207.5q0 -138 -104.5 -243t-290.5 -121v-128 h-64v128q-94 4 -175 21.5t-179 57.5v283zM462 845v465q-100 -12 -148.5 -63.5t-48.5 -129.5q0 -73 44 -136.5t153 -135.5zM526 37q75 13 115 37q56 35 88.5 91.5t32.5 120.5q0 66 -39.5 125t-196.5 167v-541z" />
<glyph unicode="%" horiz-adv-x="1706" d="M1392 1387l-988 -1443h-89l988 1443h89zM364 1387q135 0 209.5 -112t74.5 -257q0 -174 -84 -269t-202 -95q-79 0 -145 43.5t-105.5 129.5t-39.5 191t40 193.5t109.5 132t142.5 43.5zM361 1331q-51 0 -90.5 -60t-39.5 -252q0 -139 22 -212q17 -55 53 -85q21 -18 52 -18 q48 0 82 52q50 77 50 257q0 190 -49 267q-32 51 -80 51zM1346 673q71 0 141.5 -45t109 -131t38.5 -189q0 -177 -85 -270.5t-201 -93.5q-73 0 -141.5 45t-108 128.5t-39.5 190.5q0 105 39.5 192t108 130t138.5 43zM1347 620q-48 0 -83 -54q-45 -70 -45 -265q0 -179 46 -250 q34 -51 82 -51q46 0 82 55q48 73 48 251q0 188 -48 263q-33 51 -82 51z" />
<glyph unicode="&#x26;" horiz-adv-x="1593" d="M1045 873h420v-37q-87 -7 -128.5 -38.5t-129.5 -190.5t-198 -297q89 -104 159 -145.5t141 -41.5q69 0 117 37.5t68 110.5l37 -27q-37 -141 -119 -208t-191 -67q-82 0 -166.5 44.5t-184.5 150.5q-124 -110 -223.5 -152.5t-212.5 -42.5q-165 0 -262 88t-97 210 q0 121 87 241.5t327 249.5q-47 104 -64 170.5t-17 127.5q0 171 126 261q98 70 223 70q119 0 194 -70.5t75 -173.5q0 -106 -72.5 -186t-256.5 -175q127 -226 265 -414q176 210 176 354q0 46 -30 82q-22 27 -63 32v37zM663 847q124 59 185.5 134t61.5 167q0 72 -44.5 119 t-110.5 47q-87 0 -131.5 -60.5t-44.5 -118.5q0 -49 17 -109.5t67 -178.5zM818 222q-132 180 -183 263t-112 206q-120 -69 -180.5 -152t-60.5 -180q0 -107 69 -188t186 -81q63 0 121.5 25t159.5 107z" />
<glyph unicode="'" horiz-adv-x="369" d="M158 803l-54 296q-23 123 -23 166q0 64 26 93t71 29t74.5 -29.5t29.5 -77.5q0 -37 -26 -182l-54 -295h-44z" />
<glyph unicode="(" horiz-adv-x="682" d="M636 -401v-37q-151 76 -252 178q-144 145 -222 342t-78 409q0 310 153 565.5t399 365.5v-42q-123 -68 -202 -186t-118 -299t-39 -378q0 -214 33 -389q26 -138 63 -221.5t99.5 -160.5t163.5 -147z" />
<glyph unicode=")" horiz-adv-x="682" d="M46 1380v42q152 -75 253 -177q143 -146 221 -342.5t78 -409.5q0 -310 -152.5 -565.5t-399.5 -365.5v37q123 69 202.5 186.5t118 299t38.5 378.5q0 213 -33 389q-25 138 -62.5 221t-99.5 160t-164 147z" />
<glyph unicode="*" d="M494 1044q-4 69 -28 137q-34 98 -34 135q0 52 24.5 79t60.5 27q31 0 54 -27t23 -77q0 -45 -26.5 -125.5t-32.5 -148.5q55 35 99 85q68 79 101 98t67 19q33 0 55.5 -22.5t22.5 -53.5q0 -37 -33 -66t-165 -58q-77 -17 -128 -39q52 -27 127 -41q121 -22 158.5 -55t37.5 -72 q0 -30 -22.5 -52t-52.5 -22t-66.5 21t-98.5 94q-41 49 -102 92q2 -57 23 -124q36 -118 36 -161q0 -40 -24 -67.5t-51 -27.5q-37 0 -67 29q-21 21 -21 67q0 48 23 115.5t29 93t11 75.5q-59 -39 -103 -87q-73 -82 -110 -104q-26 -16 -54 -16q-34 0 -58 23t-24 51 q0 25 20.5 52.5t61.5 45.5q27 12 123 32q62 13 121 38q-54 27 -129 42q-123 26 -152 47q-45 33 -45 80q0 27 22.5 49.5t52.5 22.5q33 0 70 -21t92 -84.5t112 -98.5z" />
<glyph unicode="+" horiz-adv-x="1155" d="M535 141v499h-498v82h498v497h80v-497h500v-82h-500v-499h-80z" />
<glyph unicode="," horiz-adv-x="512" d="M110 -341v44q103 34 159.5 105.5t56.5 151.5q0 19 -9 32q-7 9 -14 9q-11 0 -48 -20q-18 -9 -38 -9q-49 0 -78 29t-29 80q0 49 37.5 84t91.5 35q66 0 117.5 -57.5t51.5 -152.5q0 -103 -71.5 -191.5t-226.5 -139.5z" />
<glyph unicode="-" horiz-adv-x="682" d="M83 535h517v-151h-517v151z" />
<glyph unicode="." horiz-adv-x="512" d="M256 194q47 0 79 -32.5t32 -78.5t-32.5 -78.5t-78.5 -32.5t-78.5 32.5t-32.5 78.5q0 47 32.5 79t78.5 32z" />
<glyph unicode="/" horiz-adv-x="569" d="M574 1422l-491 -1450h-80l491 1450h80z" />
<glyph unicode="0" d="M74 670q0 232 70 399.5t186 249.5q90 65 186 65q156 0 280 -159q155 -197 155 -534q0 -236 -68 -401t-173.5 -239.5t-203.5 -74.5q-194 0 -323 229q-109 193 -109 465zM270 645q0 -280 69 -457q57 -149 170 -149q54 0 112 48.5t88 162.5q46 172 46 485q0 232 -48 387 q-36 115 -93 163q-41 33 -99 33q-68 0 -121 -61q-72 -83 -98 -261t-26 -351z" />
<glyph unicode="1" d="M240 1223l330 161h33v-1145q0 -114 9.5 -142t39.5 -43t122 -17v-37h-510v37q96 2 124 16.5t39 39t11 146.5v732q0 148 -10 190q-7 32 -25.5 47t-44.5 15q-37 0 -103 -31z" />
<glyph unicode="2" d="M939 261l-95 -261h-800v37q353 322 497 526t144 373q0 129 -79 212t-189 83q-100 0 -179.5 -58.5t-117.5 -171.5h-37q25 185 128.5 284t258.5 99q165 0 275.5 -106t110.5 -250q0 -103 -48 -206q-74 -162 -240 -343q-249 -272 -311 -328h354q108 0 151.5 8t78.5 32.5 t61 69.5h37z" />
<glyph unicode="3" d="M104 1098q58 137 146.5 211.5t220.5 74.5q163 0 250 -106q66 -79 66 -169q0 -148 -186 -306q125 -49 189 -140t64 -214q0 -176 -112 -305q-146 -168 -423 -168q-137 0 -186.5 34t-49.5 73q0 29 23.5 51t56.5 22q25 0 51 -8q17 -5 77 -36.5t83 -37.5q37 -11 79 -11 q102 0 177.5 79t75.5 187q0 79 -35 154q-26 56 -57 85q-43 40 -118 72.5t-153 32.5h-32v30q79 10 158.5 57t115.5 113t36 145q0 103 -64.5 166.5t-160.5 63.5q-155 0 -259 -166z" />
<glyph unicode="4" d="M953 500v-142h-182v-358h-165v358h-574v128l629 898h110v-884h182zM606 500v673l-476 -673h476z" />
<glyph unicode="5" d="M889 1356l-78 -170h-408l-89 -182q265 -39 420 -197q133 -136 133 -320q0 -107 -43.5 -198t-109.5 -155t-147 -103q-115 -55 -236 -55q-122 0 -177.5 41.5t-55.5 91.5q0 28 23 49.5t58 21.5q26 0 45.5 -8t66.5 -41q75 -52 152 -52q117 0 205.5 88.5t88.5 215.5 q0 123 -79 229.5t-218 164.5q-109 45 -297 52l260 527h486z" />
<glyph unicode="6" d="M918 1384v-37q-132 -13 -215.5 -52.5t-165 -120.5t-135 -180.5t-89.5 -236.5q144 99 289 99q139 0 241 -112t102 -288q0 -170 -103 -310q-124 -170 -328 -170q-139 0 -236 92q-190 179 -190 464q0 182 73 346t208.5 291t259.5 171t231 44h58zM296 684q-18 -135 -18 -218 q0 -96 35.5 -208.5t105.5 -178.5q51 -47 124 -47q87 0 155.5 82t68.5 234q0 171 -68 296t-193 125q-38 0 -81.5 -16t-128.5 -69z" />
<glyph unicode="7" d="M206 1356h727v-38l-452 -1346h-112l405 1221h-373q-113 0 -161 -27q-84 -46 -135 -142l-29 11z" />
<glyph unicode="8" d="M393 683q-161 132 -207.5 212t-46.5 166q0 132 102 227.5t271 95.5q164 0 264 -89t100 -203q0 -76 -54 -155t-225 -186q176 -136 233 -214q76 -102 76 -215q0 -143 -109 -244.5t-286 -101.5q-193 0 -301 121q-86 97 -86 212q0 90 60.5 178.5t208.5 195.5zM550 790 q120 108 152 170.5t32 141.5q0 105 -59 164.5t-161 59.5t-166 -59t-64 -138q0 -52 26.5 -104t75.5 -99zM440 645q-83 -70 -123 -152.5t-40 -178.5q0 -129 70.5 -206.5t179.5 -77.5q108 0 173 61t65 148q0 72 -38 129q-71 106 -287 277z" />
<glyph unicode="9" d="M108 -28v37q130 2 242 60.5t216.5 204.5t145.5 321q-157 -101 -284 -101q-143 0 -245 110.5t-102 293.5q0 178 102 317q123 169 321 169q167 0 286 -138q146 -171 146 -422q0 -226 -111 -421.5t-309 -324.5q-161 -106 -351 -106h-57zM728 669q18 130 18 208 q0 97 -33 209.5t-93.5 172.5t-137.5 60q-89 0 -156 -80t-67 -238q0 -211 89 -330q65 -86 160 -86q46 0 109 22t111 62z" />
<glyph unicode=":" horiz-adv-x="569" d="M289 944q46 0 78.5 -32.5t32.5 -78.5t-32.5 -78.5t-78.5 -32.5t-78.5 32.5t-32.5 78.5t32.5 78.5t78.5 32.5zM287 195q47 0 79.5 -33t32.5 -79t-33 -78.5t-79 -32.5t-78.5 32.5t-32.5 78.5t32.5 79t78.5 33z" />
<glyph unicode=";" horiz-adv-x="569" d="M282 945q46 0 78.5 -32t32.5 -78t-32.5 -78.5t-78.5 -32.5t-78.5 32.5t-32.5 78.5t32.5 78t78.5 32zM142 -341v44q103 34 159.5 105.5t56.5 151.5q0 19 -9 32q-7 9 -14 9q-11 0 -48 -20q-18 -9 -38 -9q-49 0 -78 29t-29 80q0 49 37.5 84t91.5 35q66 0 117.5 -57.5 t51.5 -152.5q0 -103 -71.5 -191.5t-226.5 -139.5z" />
<glyph unicode="&#x3c;" horiz-adv-x="1155" d="M39 706l1076 466v-87l-926 -402l926 -406v-90l-1076 470v49z" />
<glyph unicode="=" horiz-adv-x="1155" d="M37 883h1079v-82h-1079v82zM37 557h1079v-82h-1079v82z" />
<glyph unicode="&#x3e;" horiz-adv-x="1155" d="M1113 653l-1076 -466v86l927 402l-927 406v91l1076 -470v-49z" />
<glyph unicode="?" horiz-adv-x="909" d="M454 320h-41q7 126 31.5 208.5t101.5 229.5q60 113 78 173.5t18 122.5q0 127 -67.5 202t-165.5 75q-87 0 -137 -41t-50 -89q0 -37 30 -91t30 -82q0 -36 -23 -60.5t-56 -24.5q-42 0 -76.5 41.5t-34.5 115.5q0 113 97 200t263 87q206 0 303 -120q72 -88 72 -195 q0 -73 -32.5 -150t-123.5 -181q-145 -164 -177.5 -232.5t-39.5 -188.5zM440 196q47 0 79.5 -32.5t32.5 -79.5q0 -46 -33 -78.5t-79 -32.5t-78.5 32.5t-32.5 78.5q0 47 32.5 79.5t78.5 32.5z" />
<glyph unicode="@" horiz-adv-x="1886" d="M1408 958l-117 -399q-65 -224 -79 -284t-14 -96q0 -32 21.5 -54t53.5 -22q73 0 175.5 73t175.5 237t73 342q0 171 -82.5 316t-233 222.5t-332.5 77.5q-231 0 -429 -122.5t-313.5 -352.5t-115.5 -478q0 -230 101.5 -418t285.5 -284.5t396 -96.5q263 0 475.5 141t328.5 412 h58q-90 -274 -327 -444t-540 -170q-238 0 -442 112.5t-317 319t-113 454.5q0 264 124 492.5t347.5 357t474.5 128.5q207 0 373.5 -85.5t253.5 -250t87 -349.5q0 -183 -81.5 -362.5t-207.5 -261.5t-263 -82q-76 0 -114.5 36t-38.5 101q0 56 18 147q-148 -179 -237 -232 t-157 -53q-71 0 -126 63.5t-55 169.5q0 145 94.5 325t250.5 293q115 83 206 83q67 0 111.5 -34.5t60.5 -103.5l33 110zM1057 917q-75 0 -152 -79q-113 -116 -193 -313q-59 -144 -59 -232q0 -63 35.5 -102.5t79.5 -39.5q58 0 122 44t134 135.5t102 183.5q56 159 56 259 q0 66 -36.5 105t-88.5 39z" />
<glyph unicode="A" horiz-adv-x="1479" d="M1452 -1q-14 0 -34 -1.5t-44 -1.5q-39 0 -86 8t-95 35t-93.5 78t-81.5 138l-339 812l-192 -438q22 19 60.5 27.5t83.5 8.5q53 0 104.5 -11t82.5 -30q-61 -2 -115 -18t-100.5 -41t-86 -57.5t-71 -67t-55 -69t-38.5 -64.5l-131 -308h-93l587 1380h38l466 -1124 q25 -58 47 -98t47.5 -65.5t58 -38.5t80.5 -17v-37z" />
<glyph unicode="B" horiz-adv-x="1366" d="M942 689q83 -17 140.5 -47.5t93.5 -72.5t52.5 -93t16.5 -109q0 -50 -16 -99t-46.5 -92t-73.5 -78t-97 -56q-111 -43 -340 -43h-439v1114q0 128 -27 163q-22 22 -50 32t-67 10h-51v37h583q98 0 173.5 -8.5t133.5 -27t101.5 -47.5t76.5 -70q38 -47 58 -98t20 -113 q0 -97 -58.5 -177t-183.5 -125zM424 98q57 -15 112.5 -22t111.5 -7q86 0 154 21t115.5 59t73 90t25.5 115q0 38 -10 76.5t-31 76.5q-21 32 -48.5 55t-58.5 43q-30 16 -71 29t-87 22.5t-92 14.5t-85 5h-20.5t-17.5 -1q31 22 75 33.5t90.5 19t90 15t74.5 21.5q40 13 69 39.5 t48 59t28.5 69t9.5 70.5q0 60 -24.5 110.5t-74.5 89.5q-49 45 -118.5 64t-161.5 19q-49 0 -93.5 -3.5t-83.5 -14.5v-1169z" />
<glyph unicode="C" horiz-adv-x="1366" d="M1230 926q-62 202 -173 294t-274 92q-92 0 -177 -35t-151 -113t-105.5 -204t-39.5 -308q0 -89 14.5 -168t43.5 -146t74 -119.5t106 -86.5q56 -39 121 -57t142 -18q69 0 126 13t109.5 45.5t103.5 86t108 134.5l33 -18q-50 -94 -109 -160t-128 -108t-148 -61.5t-169 -19.5 q-334 0 -516 251q-67 91 -100.5 200.5t-33.5 236.5q0 103 24 197t67.5 175t105 147t136.5 113t162.5 72.5t182.5 25.5q28 0 69 -6t87 -17t94 -27t89.5 -36t74 -43t47.5 -49t21.5 -62.5t8.5 -76t1.5 -77.5t0.5 -67h-28z" />
<glyph unicode="D" horiz-adv-x="1479" d="M231 1112q0 66 -7 105.5t-21 56.5q-35 42 -111 42h-51v37h543q152 0 264.5 -17t196 -53t142.5 -92.5t104 -134.5q49 -81 73 -174t24 -198q0 -150 -47.5 -275.5t-142 -216t-235 -141t-327.5 -50.5h-405v1111zM422 98q124 -27 209 -27q114 0 211.5 42.5t169.5 121 t112.5 190.5t40.5 250q0 137 -40 248.5t-111.5 190.5t-170.5 122t-217 43q-45 0 -96.5 -7.5t-107.5 -24.5v-1149z" />
<glyph unicode="E" horiz-adv-x="1251" d="M427 1280v-533h537v-74h-537v-446q0 -45 1.5 -70t6 -38.5t11.5 -19.5t18 -12q7 -3 26.5 -6t47.5 -3h227q58 0 96 2.5t66 11t50 24t48 41.5q32 32 63 77t62 108h42l-116 -338h-840v1114q0 66 -4.5 104.5t-18.5 52.5q-35 43 -120 43h-47v36h1030v-296h-23 q-15 72 -30.5 115.5t-43 67t-71.5 31.5t-115 8h-366z" />
<glyph unicode="F" horiz-adv-x="1139" d="M419 1280v-531h452v-85h-452v-665h-191v1114q0 46 -1 74.5t-5.5 47.5t-15.5 31.5t-30 26.5q-20 11 -44 17.5t-48 6.5h-47v37h997v-297h-19q-19 69 -42 112.5t-57 68t-82 33.5t-117 9h-298z" />
<glyph unicode="G" horiz-adv-x="1479" d="M1451 703q-52 0 -82.5 -13.5t-46 -39t-19.5 -62.5t-4 -84v-415q-112 -60 -229.5 -90t-247.5 -30q-177 0 -313.5 50.5t-233.5 152.5q-99 100 -149.5 221t-50.5 264q0 97 27 190.5t79 187.5q105 179 259 264q38 22 76 38.5t81 27.5t94.5 16t117.5 5q44 0 95 -8.5 t102.5 -28.5t100 -53t88 -80.5t66 -111.5t33.5 -147h-37q-56 181 -168 268t-280 87q-125 0 -218.5 -45t-160.5 -136q-124 -184 -124 -434q0 -143 37.5 -259t109.5 -210q73 -94 165.5 -142.5t203.5 -48.5q77 0 146.5 20t135.5 55v388q-2 40 9 82.5t47.5 77.5t105.5 57.5 t185 22.5v-37z" />
<glyph unicode="H" horiz-adv-x="1479" d="M424 723h623v631h187l-5 -1115q0 -55 2.5 -86t9 -48.5t17 -27.5t26.5 -22q20 -14 46 -18.5t50 -4.5h46v-36h-284q-38 0 -57.5 21.5t-27.5 53t-9 68t-1 67.5v444h-623v-650h-187v1111q0 49 -2.5 80.5t-8.5 51t-16.5 30t-27.5 17.5q-20 14 -43.5 18.5t-47.5 4.5h-46v41h284 q32 0 51 -16t29 -41.5t13 -56.5t3 -61q0 -19 -0.5 -36.5t-0.5 -31.5v-388z" />
<glyph unicode="I" horiz-adv-x="682" d="M434 1354v-1116q0 -45 1.5 -75.5t6.5 -50.5t16 -32t31 -19q20 -14 43 -18.5t47 -4.5h46v-37h-159q-55 0 -94.5 9t-65 31t-38 58.5t-12.5 92.5v14q-2 83 -3 155.5t-1.5 138t-1 126t-0.5 119.5q0 66 0.5 132.5t0.5 140t0.5 156t0.5 180.5h182z" />
<glyph unicode="J" horiz-adv-x="797" d="M198 -241q53 0 88.5 24.5t58 64t34 88.5t16.5 98.5t5 94.5v75l-6 1154h202v-1154q0 -117 -14 -207t-56.5 -151t-120.5 -92.5t-207 -31.5v37z" />
<glyph unicode="K" horiz-adv-x="1479" d="M611 753l494 -499q39 -40 80.5 -77t88 -66.5t99 -48.5t112.5 -22v-38q-11 -3 -25.5 -10t-34 -13.5t-44 -12t-54.5 -5.5q-36 0 -81 11t-99.5 39t-119.5 77t-141 125l-462 462v-673h-192v1111q0 48 -2.5 79.5t-8 51t-15.5 30.5t-25 18q-23 14 -46.5 18.5t-43.5 4.5h-51v41 h205q64 0 100 -7.5t53.5 -33t21.5 -73.5t4 -129v-411l132 124l311 306q40 39 73 79t70 72.5t82 52.5t109 20h106v-41q-32 0 -62 -5.5t-64 -22t-74.5 -46t-93.5 -77.5q-10 -11 -58 -62t-138 -144z" />
<glyph unicode="L" horiz-adv-x="1251" d="M1147 1h-911v1112q0 66 -6.5 104.5t-20.5 55.5q-21 20 -48.5 30.5t-65.5 10.5h-51v41h261q31 0 52 -14t34 -36.5t20 -51t10 -58t3 -57.5v-48v-851q0 -36 3 -61.5t10 -42t17.5 -25.5t24.5 -13q11 -7 48 -8t103 -1h517v-87z" />
<glyph unicode="M" horiz-adv-x="1821" d="M1774 -231q-125 0 -200 30t-115.5 89.5t-53.5 147t-13 201.5v901l-522 -1137h-32l-522 1137v-1137h-87v1355h191l491 -1059l481 1059h191v-1119q0 -30 0.5 -73t5 -91t15 -95.5t32 -86t55 -62t83.5 -23.5v-37z" />
<glyph unicode="N" horiz-adv-x="1479" d="M-16 1348h187q48 0 85.5 -5t69 -19t60.5 -38t60 -61l717 -887v1015h87v-1376h-37l-882 1088v-1065h-87v1060q0 125 -68 188t-192 63v37z" />
<glyph unicode="O" horiz-adv-x="1479" d="M751 1393q263 0 460 -206q96 -102 144 -227t48 -278q0 -155 -48.5 -285t-149.5 -233q-191 -207 -471 -207q-139 0 -255.5 51t-213.5 151q-192 199 -192 523t220 532q97 89 210 134t248 45zM734 764q19 0 35 -7t27.5 -19.5t18 -29.5t6.5 -36q0 -35 -24.5 -60.5 t-62.5 -25.5q-17 0 -33 7t-28 19t-19 27.5t-7 32.5q0 19 7 36t19 29.5t28 19.5t33 7zM734 1320q-104 0 -184.5 -45.5t-135.5 -128.5t-83.5 -201t-28.5 -263q0 -146 29 -266t84.5 -206t136 -133t182.5 -47q93 0 173 35.5t139.5 111t93.5 194t34 283.5q0 157 -29 281 t-85 209.5t-138 130.5t-188 45z" />
<glyph unicode="P" horiz-adv-x="1139" d="M420 2h-192v1116q0 65 -6.5 106t-16.5 54q-20 24 -50.5 35t-68.5 11h-50v36h493q92 0 162.5 -9t124.5 -28.5t95.5 -50.5t74.5 -76q38 -45 56 -97t18 -113q0 -84 -28.5 -153.5t-82.5 -119t-131 -76.5t-174 -27q-49 0 -103.5 6t-120.5 22v-636zM420 693q54 -6 92 -12t73 -6 q47 0 92 22t80 60.5t56.5 91t21.5 114.5q0 66 -19.5 123.5t-57 100t-91 67t-120.5 24.5q-23 0 -54 -3.5t-73 -14.5v-567z" />
<glyph unicode="Q" horiz-adv-x="1479" d="M902 -21q49 -88 103 -153.5t113.5 -110t126 -67.5t142.5 -26v-33q-104 3 -216 34t-221.5 82.5t-211.5 121.5t-185 152q-85 34 -150 72t-114.5 82.5t-86 95.5t-63.5 113q-35 75 -53 157t-18 182q0 312 197 509q99 103 218.5 155t257.5 52q136 0 251 -52t211 -155 q100 -99 147 -228t47 -285q0 -124 -36 -236.5t-101.5 -204.5t-156.5 -159t-201 -98zM718 766q40 0 65 -27.5t25 -67.5q0 -18 -6.5 -34t-18.5 -28t-28.5 -19t-36.5 -7q-18 0 -34.5 7t-28.5 19t-19.5 28t-7.5 34q0 20 7.5 37.5t19.5 30t28.5 20t34.5 7.5zM731 1316 q-104 0 -184 -43t-135.5 -124.5t-84 -199.5t-28.5 -268q0 -141 27 -260t81 -205.5t135 -135.5t189 -49q106 0 188 44t137.5 125t84.5 196t29 257q0 151 -28.5 273.5t-84.5 209t-138 133.5t-188 47z" />
<glyph unicode="R" horiz-adv-x="1366" d="M1377 -1h-273q-29 0 -47 2.5t-33 11.5t-30 27.5t-38 50.5l-390 545q-24 -1 -41 -2.5t-32.5 -2t-31.5 0.5t-38 4v-637h-187v1118q0 66 -6.5 104.5t-20.5 55.5q-42 42 -115 42h-51v41h486q111 0 189.5 -9t127.5 -23q49 -17 93 -46t77 -70t52.5 -92.5t19.5 -113.5 q0 -64 -20.5 -119.5t-61.5 -99.5t-103 -76t-145 -48l280 -389q45 -71 83 -114t77 -68.5t82 -37.5t97 -19v-36zM423 700q100 -12 182.5 7t141 60.5t90.5 100t32 125.5q0 61 -20 113.5t-57.5 91.5t-91.5 61.5t-121 22.5q-27 0 -67.5 -5.5t-88.5 -12.5v-564z" />
<glyph unicode="S" horiz-adv-x="1139" d="M133 429h38q37 -195 137 -291t269 -96q54 0 102.5 15t85.5 43.5t59 69.5t22 92q0 57 -29 104t-87 91q-134 79 -243.5 146.5t-190.5 121.5q-173 116 -173 302q0 73 30 138.5t83.5 114t126 77t157.5 28.5q54 0 111 -13.5t118 -39.5q36 -16 70 -33t60 -40t41.5 -53t15.5 -71 v-224h-40q-14 104 -49.5 178.5t-86.5 122t-113 69.5t-127 22q-44 0 -87 -15t-76.5 -42.5t-54 -66.5t-20.5 -86q0 -29 11 -58.5t36 -61.5q24 -32 96.5 -78.5t194.5 -112.5q75 -43 128.5 -73t93.5 -58t71 -59t61 -77q26 -40 37 -83.5t11 -93.5q0 -82 -33.5 -151t-91 -119.5 t-135.5 -78.5t-166 -28q-50 0 -109 12.5t-134 35.5q-34 12 -72.5 27t-71.5 35.5t-54.5 48t-21.5 65.5v244z" />
<glyph unicode="T" horiz-adv-x="1251" d="M1155 1044q-4 50 -14.5 84.5t-26 58t-33.5 38t-37 25.5q-50 27 -133 27h-188v-1276h-192v1276h-160q-53 0 -88 -4t-60 -14t-41.5 -27t-31.5 -43q-18 -27 -30.5 -61.5t-15.5 -83.5h-37q1 16 1.5 31.5t0.5 29.5q0 35 -1.5 65t-1.5 56q0 34 5.5 59.5t24 42t53.5 24.5t93 8 h797q52 0 83.5 -8.5t48.5 -24.5t23 -40t6 -55q0 -32 -3 -70.5t-3 -84.5v-16.5t1 -16.5h-40z" />
<glyph unicode="U" horiz-adv-x="1479" d="M1258 1356v-797q0 -102 -10 -179.5t-28 -133.5q-20 -57 -59.5 -105.5t-99.5 -87.5q-60 -42 -140 -61t-183 -19q-219 0 -337 75q-57 39 -98 91t-63 116q-17 46 -24.5 129t-7.5 203v529q0 128 -37 165q-14 20 -41.5 28.5t-66.5 8.5h-51v38h332q26 0 38.5 -10t16.5 -36.5 t3 -73t-1 -120.5v-590q0 -38 3 -83.5t10 -93.5q8 -54 21 -93t32 -67q17 -28 44.5 -52t62.5 -41q35 -18 80 -28.5t97 -10.5q68 0 124.5 14.5t110.5 42.5q54 32 89 68t57 82q17 46 26.5 122t9.5 182v788h90z" />
<glyph unicode="V" horiz-adv-x="1479" d="M36 1339h148q17 0 33 0.5t31 0.5q24 0 45 -3t39.5 -14t34 -32t28.5 -57q34 -87 58.5 -147.5t44 -106.5t35.5 -82.5t33.5 -74.5t38 -83t48 -108t65 -150t88.5 -208q41 95 70 162.5t50 116t35.5 82.5t26 62t22.5 53.5t24.5 57.5t31.5 75t44 105t62 148t86 203h97 l-586 -1369h-37l-465 1116q-24 58 -46.5 99t-48.5 67.5t-58.5 38.5t-77.5 12v36z" />
<glyph unicode="W" horiz-adv-x="1933" d="M1789 1356l-471 -1376h-40l-303 859l-298 -859h-36q-106 299 -180 508t-123.5 347.5t-78 218t-43.5 119.5l-19.5 52t-6.5 15q-24 40 -57.5 56t-87.5 16v41h204q19 -1 34.5 -2.5t29 -8.5t27 -22.5t29 -46.5t34 -79.5t43.5 -120.5l264 -750l220 637l-67 203 q-17 42 -35.5 68.5t-35.5 42.5t-31.5 23t-24.5 10q-11 3 -26.5 4t-32.5 1v41h207q18 -1 33.5 -0.5t30 -4t28 -17t29 -40.5t33.5 -74t41 -117l271 -777l352 1033h87z" />
<glyph unicode="X" horiz-adv-x="1479" d="M833 750l289 -435q57 -89 97 -142.5t74 -82.5t69.5 -39.5t83.5 -14.5v-36h-201q-62 0 -103.5 17.5t-74 49.5t-62 77.5t-67.5 101.5l-228 349l-458 -595h-105l517 668q-83 124 -145 214.5t-107 154.5t-76 105t-52.5 66t-36.5 38t-27 21q-38 24 -81.5 37t-91.5 13v36h283 q45 0 81 -21.5t65.5 -53.5t54 -71t47.5 -73l205 -311l416 535h101z" />
<glyph unicode="Y" horiz-adv-x="1479" d="M1311 1356l-485 -778v-576h-188v558q-103 158 -175.5 269t-121.5 186.5t-78.5 120t-46 68.5t-23.5 33t-12 13q-28 32 -70.5 50.5t-80.5 18.5v37h134t75 0.5t35 0.5h14q26 0 42.5 -7t37 -32.5t51.5 -76t87 -137.5l279 -439l434 691h92z" />
<glyph unicode="Z" horiz-adv-x="1251" d="M1171 1354l-878 -1271h823v-82h-1079v37l855 1234h-425q-57 0 -95.5 -6.5t-65 -18.5t-42.5 -29t-26 -38q-14 -23 -24.5 -64t-20.5 -100h-37q6 81 7 137.5t6 94t18.5 59t44 32t82.5 13t134 2.5h723z" />
<glyph unicode="[" horiz-adv-x="682" d="M608 -406h-440v1793h440v-79h-290v-1636h290v-78z" />
<glyph unicode="\" horiz-adv-x="569" d="M83 1422l490 -1450h-80l-490 1450h80z" />
<glyph unicode="]" horiz-adv-x="682" d="M75 1387h440v-1794h-440v79h290v1636h-290v79z" />
<glyph unicode="^" horiz-adv-x="961" d="M498 1384l425 -717h-92l-350 586l-350 -586h-94l431 717h30z" />
<glyph unicode="_" d="M1042 -442h-1059v84h1059v-84z" />
<glyph unicode="`" horiz-adv-x="682" d="M118 1390h223l106 -345h-35z" />
<glyph unicode="a" horiz-adv-x="909" d="M304 825q7 0 7 -4q0 -5 -7.5 -12.5t-19.5 -14.5t-27 -12.5t-29 -5.5q-20 0 -37 15.5t-17 49.5q0 21 11.5 38t31 29t44 18.5t50.5 6.5q27 0 54 -8t48 -24.5t34 -42t13 -61.5t-13.5 -65.5t-33 -53t-43 -42t-42.5 -33.5q-19 -14 -35 -24t-30 -19.5t-26.5 -20t-24.5 -25.5 q18 40 50.5 67t63.5 52.5t54 56.5t23 79q0 26 -8.5 50.5t-23 43.5t-34 30.5t-41.5 11.5q-20 0 -35 -6t-24.5 -15t-14 -18t-4.5 -15q0 -17 14 -28.5t34 -11.5q9 0 19 3t19 11zM582 862q14 0 25 -11.5t11 -27.5q0 -17 -11 -29.5t-25 -12.5t-25.5 12.5t-11.5 29.5 q0 16 11.5 27.5t25.5 11.5zM582 747q14 0 25 -12.5t11 -29.5q0 -16 -11 -27.5t-25 -11.5t-25.5 11.5t-11.5 27.5q0 17 11.5 29.5t25.5 12.5zM773 420q15 0 24.5 -11.5t9.5 -27.5q0 -17 -9.5 -29.5t-24.5 -12.5q-17 0 -28 12.5t-11 29.5q0 16 11 27.5t28 11.5zM404 247 q-1 -1 -1 -2q0 -4 7 -4q3 0 5 1q45 23 63 42t18 34q0 18 -20 28t-49 10q-21 0 -43 -6t-40 -19t-29.5 -33.5t-11.5 -49.5q0 -30 10 -51.5t27 -35.5t39.5 -20.5t48.5 -6.5q43 0 90 16.5t86.5 46.5t65 71.5t25.5 91.5q0 14 -3 31q-9 49 -29 84t-47.5 57t-62 32t-71.5 10 q-64 0 -132 -27t-123.5 -73t-91 -107.5t-35.5 -129.5q0 -47 19 -93.5t52.5 -83.5t78.5 -59.5t98 -22.5q17 0 35 2.5t37 8.5q-52 3 -99.5 25.5t-84 59.5t-58 84.5t-21.5 100.5q0 48 20.5 97.5t67.5 96.5q48 48 94.5 68t89.5 20q44 0 82 -18.5t65.5 -48t43 -66.5t15.5 -73 q0 -46 -18.5 -76.5t-44.5 -48.5t-55.5 -25.5t-50.5 -7.5q-52 0 -73.5 16.5t-21.5 42.5q0 14 4.5 29t12 27.5t16.5 20.5t18 8q8 0 8 -11q0 -7 -3 -16t-7 -18t-8.5 -17t-7.5 -12z" />
<glyph unicode="b" d="M600 106q-21 -33 -50.5 -57.5t-65 -40.5t-75.5 -23.5t-81 -7.5q-59 0 -116 15.5t-102 44.5t-72.5 71t-27.5 96q0 51 18 91t47.5 67.5t68.5 42t81 14.5t83 -11.5t73 -31.5t52 -47.5t20 -59.5q0 -27 -10.5 -47.5t-26 -34t-33.5 -20t-33 -6.5q-23 0 -44.5 8t-38 20.5 t-27 27.5t-10.5 28q0 14 14.5 23.5t49.5 9.5h12.5t19 -1t17 -3.5t7.5 -8.5q0 -2 -10 -6.5t-22 -11t-22 -14t-10 -14.5q0 -5 5.5 -7t13.5 -2q13 0 27.5 6t27.5 15.5t21.5 22.5t8.5 28q0 10 -10.5 28t-30 35t-47 29.5t-61.5 12.5q-32 0 -61 -12.5t-52 -36t-36.5 -56.5 t-13.5 -73q0 -37 12.5 -73.5t39.5 -66t68.5 -47.5t99.5 -18q75 0 131 24.5t93 64t55 88.5t18 97q0 41 -12.5 75t-37.5 57q-30 28 -57 60.5t-47 68t-31.5 71.5t-11.5 72q0 63 31.5 110.5t80.5 79.5t109 48t118 16q54 0 104 -13t88.5 -39.5t61.5 -66.5t23 -94q0 -56 -19 -96 t-51 -66t-74 -38.5t-87 -12.5q-38 0 -73 8.5t-62.5 25t-44 40t-16.5 53.5t10 51t26 33.5t34 18.5t35 6q21 0 41 -6t36 -16t25.5 -22t9.5 -24q0 -17 -24 -30t-83 -15q-8 0 -8 9q0 2 8 8l18 13.5t18 16.5t8 17q0 6 -9 9q-11 0 -25 -6.5t-26.5 -17.5t-21.5 -25t-9 -29 q0 -9 9.5 -24t28 -29t45 -24.5t59.5 -10.5q25 0 52.5 10t51 30t39 51.5t15.5 73.5q0 37 -13 74t-39 67t-64.5 49t-90.5 19q-72 0 -124 -23t-85 -59.5t-49 -82t-16 -90.5q0 -66 25.5 -128.5t68.5 -101.5q47 -44 66.5 -88t19.5 -88q0 -40 -13.5 -77.5t-35.5 -69.5zM269 586 q14 -6 21 -18t7 -26q0 -23 -14 -38.5t-31 -15.5q-18 0 -31.5 13t-13.5 35q0 23 15.5 37t35.5 14q7 0 11 -1zM780 454q14 -5 21 -17t7 -26q0 -23 -15 -38.5t-31 -15.5q-20 0 -32.5 13t-12.5 32q0 23 14 38.5t36 15.5q5 0 13 -2z" />
<glyph unicode="c" horiz-adv-x="909" d="M546 109q-20 -33 -49.5 -56.5t-64.5 -39t-74.5 -23t-79.5 -7.5q-59 0 -115 15t-100.5 44t-71.5 70.5t-27 94.5q0 51 17.5 90t47 66t68 41t79.5 14q42 0 82.5 -11.5t72.5 -31.5t51.5 -47.5t19.5 -58.5q0 -27 -10.5 -46.5t-25.5 -33t-32.5 -20t-32.5 -6.5q-23 0 -44 8 t-38 20.5t-27 27.5t-10 28q0 14 14 23.5t48 9.5h12t18.5 -1.5t17 -4t7.5 -8.5q0 -2 -9.5 -6.5t-21.5 -10.5t-21.5 -13t-9.5 -14q0 -5 5 -7.5t13 -2.5q12 0 27 5.5t27.5 15.5t21 23t8.5 27q0 10 -10.5 27.5t-29.5 34.5t-46 29t-61 12q-30 0 -59 -12t-51.5 -34.5t-36.5 -55 t-14 -73.5q0 -37 12.5 -73t39 -65t68 -47t98.5 -18q74 0 129 25t91 64t54 87.5t18 95.5q0 40 -12.5 73t-36.5 56q-30 28 -56.5 60.5t-46.5 67t-31.5 70t-11.5 70.5q0 62 31 109t79.5 78.5t108 47.5t116.5 16q53 0 102.5 -13t87.5 -39t61 -65.5t23 -92.5q0 -55 -19 -95 t-51 -65.5t-73 -38t-86 -12.5q-37 0 -72 8.5t-62 25t-43 39.5t-16 53t10 50.5t25 33.5t33 18.5t34 5.5q21 0 40.5 -6t35.5 -16t25.5 -22t9.5 -24q0 -17 -23.5 -29.5t-81.5 -14.5q-7 0 -7 9q0 2 8 8t18 14t18 16.5t8 16.5q0 3 -3 6t-9 3q-11 0 -24.5 -7t-25.5 -18t-20.5 -25 t-8.5 -28q0 -9 9.5 -24t27.5 -29t44 -24t59 -10q25 0 52.5 9.5t50.5 29.5t38 50.5t15 72.5q0 37 -13 74t-38.5 66.5t-63.5 48t-89 18.5q-71 0 -122 -22.5t-84 -58.5t-49 -81t-16 -90q0 -32 6.5 -64t19 -61.5t29.5 -55t38 -44.5q47 -42 66 -86.5t19 -87.5q0 -40 -13.5 -77 t-34.5 -69zM220 582q14 -6 20.5 -17.5t6.5 -25.5q0 -22 -13 -37t-31 -15q-17 0 -31 12t-14 34q0 20 14.5 35.5t34.5 15.5q5 0 13 -2zM724 453q13 -6 20 -17.5t7 -24.5q0 -24 -14.5 -38.5t-30.5 -14.5q-20 0 -32 11.5t-12 31.5q0 22 13.5 38t35.5 16q5 0 13 -2zM247 -130 q6 -17 24 -25t43 -8q35 0 79.5 17t82.5 51q33 29 71 46t73 17q31 0 54.5 -15t35.5 -48q-11 11 -29 19.5t-43 8.5q-24 0 -54.5 -12t-67.5 -41q-43 -35 -95.5 -55.5t-97.5 -20.5q-32 0 -55 12.5t-31 40.5z" />
<glyph unicode="d" d="M601 99q20 33 33.5 70.5t13.5 77.5q0 44 -19.5 88.5t-67.5 88.5q-21 19 -38 45t-29.5 55.5t-19 62t-6.5 65.5q0 44 15.5 89.5t48.5 82t85 60t125 23.5q51 0 90 -18.5t64.5 -48.5t38.5 -67.5t13 -74.5q0 -42 -15 -73t-38 -51.5t-50.5 -30.5t-52.5 -10q-33 0 -59.5 10.5 t-45 25t-28 30t-9.5 24.5q0 15 8.5 29t21 25t27 17.5t25.5 6.5q8 -3 8 -9q0 -8 -8.5 -16.5t-18 -17t-18 -14.5t-8.5 -9q0 -8 9 -8q58 2 82 14.5t24 29.5q0 12 -10 24t-25.5 22t-35.5 16t-41 6q-16 0 -34 -6t-33.5 -18.5t-25.5 -33t-10 -50.5t16.5 -53.5t44 -40t62.5 -25 t73 -8.5q45 0 86.5 12t73.5 37.5t51 65.5t19 95q0 54 -23.5 94.5t-62 67t-89 40t-104.5 13.5q-57 0 -116.5 -16t-109 -47.5t-81 -79t-31.5 -109.5q0 -36 11.5 -72.5t32 -71.5t47.5 -68t57 -62q25 -23 37.5 -57t12.5 -74q0 -48 -18 -96.5t-55 -88t-93.5 -64t-132.5 -24.5 q-57 0 -98 18t-67.5 47t-39 65.5t-12.5 73.5q0 42 14 75t36.5 56t52 35t61.5 12q34 0 61.5 -12t47 -28.5t30 -34t10.5 -29.5q0 -15 -8.5 -27.5t-21.5 -22.5t-28 -15.5t-28 -5.5q-8 0 -13.5 2t-5.5 6q0 6 10 13.5t22 14.5t22 11.5t10 6.5q0 6 -7 9t-16 4t-17.5 1h-12.5 q-36 0 -51 -10t-15 -25q0 -13 10.5 -28t27 -27.5t38 -20.5t43.5 -8q15 0 33 6.5t33.5 20t26 34t10.5 47.5q0 32 -19.5 59t-52 47t-73 31.5t-82.5 11.5t-81 -14t-69.5 -41t-48.5 -66.5t-18 -91.5q0 -54 27.5 -96t72.5 -71t102.5 -44.5t117.5 -15.5q41 0 81 7.5t75.5 23.5 t65 39.5t50.5 56.5zM269 578q14 -5 21 -16.5t7 -24.5q0 -25 -15 -40t-33 -15q-17 0 -29 12t-12 34t14 37t34 15q5 0 13 -2zM779 447q14 -5 21.5 -17t7.5 -26q0 -25 -16.5 -38.5t-32.5 -13.5q-22 0 -32.5 13.5t-10.5 31.5q0 21 14 36.5t36 15.5q5 0 13 -2zM482 940 q15 24 31 39.5t36 27t45.5 20.5t60.5 21q40 13 70 25.5t49.5 27.5t29 34t9.5 46t-8 49q22 -15 37 -43t15 -57q0 -14 -5 -28.5t-13.5 -27.5t-19 -23.5t-21.5 -15.5q-16 -7 -47 -11.5t-66 -9t-67 -10.5t-49 -15q-19 -8 -36 -23t-37 -32z" />
<glyph unicode="e" horiz-adv-x="897" d="M749 475q57 -20 80 -56t23 -77q0 -30 -10.5 -59.5t-28.5 -52.5t-40.5 -37.5t-46.5 -14.5q-10 0 -23.5 5t-25.5 13.5t-20.5 20t-8.5 24.5q0 15 9.5 30t22.5 26t26 18t20 7q5 0 5 -5q0 -2 -1 -4q-18 -9 -26 -23.5t-8 -28.5q0 -17 10.5 -30.5t29.5 -13.5q11 0 24 6.5 t24.5 18t19 27t7.5 34.5q0 25 -12 49t-32.5 43.5t-48 31.5t-59.5 12q-29 0 -73 -23.5t-101 -61.5q-7 -88 -14 -180t-12.5 -184t-9 -181t-3.5 -171q0 -113 8.5 -206t30.5 -154q-19 35 -37.5 84.5t-33 112.5t-23.5 138.5t-9 162.5q0 49 3.5 110t9 129t11.5 142l12 148 q-36 -21 -73.5 -37t-89.5 -16q-49 0 -83.5 13t-56 34t-31.5 46.5t-10 50.5q0 30 11 60t29 53.5t41 38t47 14.5q10 0 23 -5t24 -13t19 -19.5t8 -24.5q0 -15 -9.5 -29.5t-22 -26t-26 -18t-20.5 -6.5t-7 5q0 2 1 4q19 9 27.5 24t8.5 30q0 17 -10 29.5t-28 12.5 q-11 0 -24.5 -6.5t-24.5 -18t-18.5 -27t-7.5 -34.5q0 -25 12 -50t32.5 -44.5t48 -31.5t58.5 -12q29 0 69.5 22t85.5 58q8 94 13 177t5 146q0 60 -6 94t-20 34q-11 0 -27 -21t-36 -69q-2 -5 -15.5 -10.5t-24.5 -5.5q-12 0 -12 8q0 3 3 8q17 37 35 76t38.5 70t43 51t48.5 20 q14 0 23.5 -7t15 -24t8 -46t2.5 -72q0 -72 -6.5 -169.5t-15.5 -211.5q36 30 75 45t90 15q22 0 44.5 -3t46.5 -11zM628 742q20 0 33 -18.5t13 -38.5t-13 -38t-33 -18q-23 0 -35.5 18t-12.5 38t12.5 38.5t35.5 18.5zM628 889q20 0 33 -15t13 -38t-13 -38t-33 -15 q-23 0 -35.5 15t-12.5 38t12.5 38t35.5 15z" />
<glyph unicode="f" horiz-adv-x="682" d="M650 922q19 0 32 -15.5t13 -36.5q0 -22 -13 -37t-32 -15q-23 0 -36 15t-13 37q0 21 13 36.5t36 15.5zM767 517q55 -19 78 -54t23 -75q0 -29 -10.5 -57.5t-27.5 -51t-39 -36t-45 -13.5q-10 0 -23.5 5t-25.5 13.5t-20 20t-8 23.5q0 15 9.5 29t22 25t25.5 17.5t20 6.5 q6 0 6 -5q0 -1 -0.5 -2t-0.5 -2q-19 -9 -27 -23.5t-8 -28.5q0 -17 10 -29.5t28 -12.5q11 0 23.5 6t23.5 17t18.5 26.5t7.5 33.5q0 24 -11.5 48t-31 43t-46 30.5t-56.5 11.5q-28 0 -71 -22t-100 -59q-6 -81 -12 -165t-11.5 -168t-9 -166t-3.5 -160q30 7 62.5 12t61.5 5 q41 0 69 -13.5t29 -48.5q-12 11 -21.5 18.5t-35.5 7.5q-20 0 -53.5 -5.5t-90.5 -18.5q-5 -2 -11 -2.5t-16 -5.5q5 -107 12.5 -194t29.5 -145q-27 51 -54 135t-38 197q-26 -3 -49 -3q-29 0 -56 4.5t-47.5 14t-33.5 25.5t-15 40h20q5 -27 28 -37t54 -10q22 0 45.5 4t46.5 9 q-2 23 -3 45.5t-1 46.5q0 48 3.5 108.5t9 128.5t12 142.5t12.5 149.5q-35 -20 -72 -36t-88 -16q-47 0 -80.5 13t-54.5 33t-30.5 45.5t-9.5 49.5q0 30 10.5 59t27.5 52t39.5 37t45.5 14q10 0 22.5 -5t24 -13t19 -19.5t7.5 -24.5q0 -15 -9 -29t-21 -24.5t-25 -17t-20 -6.5 t-7 6v3q20 9 28.5 23.5t8.5 28.5q0 17 -10 29t-28 12q-11 0 -23.5 -6t-23.5 -17t-18.5 -26.5t-7.5 -33.5q0 -25 12 -49.5t32.5 -44t47.5 -31.5t58 -12q25 0 65.5 23t83.5 56q7 90 12 169.5t5 140.5q0 59 -6 94.5t-20 35.5q-11 0 -26 -20.5t-35 -67.5q-2 -5 -15 -10.5 t-24 -5.5q-12 0 -12 8q0 5 2 8q17 36 35 73.5t38 68t42 50t48 19.5q13 0 22 -6.5t14 -22.5t7.5 -43t2.5 -68q0 -71 -6.5 -167t-15.5 -208q36 29 73 43.5t88 14.5q44 0 89 -15zM650 778q19 0 32 -18t13 -38q0 -18 -13 -35.5t-32 -17.5q-23 0 -36 17.5t-13 35.5q0 20 13 38 t36 18z" />
<glyph unicode="g" d="M833 396q-26 8 -52 12t-50 4q-57 0 -100.5 -16.5t-83.5 -51.5q10 128 17 238.5t7 191.5q0 48 -2.5 80t-8.5 50.5t-16.5 26.5t-25.5 8q-29 0 -55 -22t-49 -57.5t-43.5 -78.5t-39.5 -85q-3 -6 -3 -10q0 -9 14 -9q12 0 27 6.5t17 12.5q23 53 41 77t29 24q16 0 23 -39t7 -105 q0 -70 -6 -163.5t-14 -199.5q-51 -39 -96 -64.5t-75 -25.5q-36 0 -67.5 13.5t-55 35.5t-37 50t-13.5 56q0 22 8.5 39.5t21.5 30.5t28 20t27 7q20 0 31 -14t11 -33q0 -17 -9.5 -33.5t-30.5 -27.5q-1 -2 -1 -4q0 -7 8 -7t22.5 7.5t29 20.5t25 29.5t10.5 33.5q0 15 -9 27.5 t-21.5 22t-27 14.5t-26.5 5q-27 0 -52.5 -16.5t-46 -42.5t-32.5 -59.5t-12 -67.5q0 -28 11 -57t35 -52t62.5 -38t93.5 -15q57 0 101.5 18t82.5 43q-6 -84 -13 -166.5t-13 -159.5t-10.5 -145.5t-4.5 -123.5q0 -98 10.5 -182t27 -154.5t37.5 -126t42 -95.5q-25 69 -34.5 172 t-9.5 230q0 92 4 192t10.5 203.5t14 207.5t15.5 203q63 42 113.5 68t81.5 26q36 0 67 -13.5t54 -35t36 -48.5t13 -54q0 -21 -9 -39t-21.5 -31t-27.5 -20t-27 -7q-20 0 -32 14.5t-12 34.5q0 17 9 32.5t29 26.5q1 2 1 5q0 5 -5 5q-8 0 -22.5 -8t-29 -20.5t-25.5 -29t-11 -33.5 q0 -14 9.5 -27t23 -22.5t29 -15t26.5 -5.5q27 0 52.5 16t45 42t31.5 58.5t12 66.5q0 46 -26.5 86.5t-89.5 62.5zM698 861q23 0 37.5 -17t14.5 -43t-14.5 -42t-37.5 -16q-26 0 -40.5 16t-14.5 42t14.5 43t40.5 17zM698 696q23 0 37.5 -21t14.5 -43t-14.5 -42.5t-37.5 -20.5 q-26 0 -40.5 20.5t-14.5 42.5t14.5 43t40.5 21zM326 856q11 35 22.5 60t28 46.5t40.5 42.5t61 49q37 31 63 53.5t42 42t23.5 39t7.5 43.5q0 31 -13 55.5t-30 41.5q26 -6 47 -20t35.5 -32.5t22.5 -40t8 -41.5q0 -53 -36.5 -91t-118.5 -74q-48 -25 -77 -44t-48 -38 t-30.5 -40.5t-24.5 -51.5h-23z" />
<glyph unicode="h" d="M701 569q-6 39 -8.5 73t-2.5 63q0 72 14.5 116.5t37 69.5t50.5 33.5t55 8.5q30 0 55 -5.5t37 -6.5q-38 -8 -61.5 -28t-36.5 -45.5t-17.5 -54.5t-4.5 -56q0 -4 3 -29t7.5 -73.5t9 -122.5t7.5 -175l5 5l-5 -5q0 -54 -0.5 -113.5t-3 -122t-7.5 -125.5t-15 -125 q-12 -90 -51.5 -156t-95 -109.5t-121.5 -64.5t-132 -21q-42 0 -82 8t-75.5 24.5t-65 40.5t-49.5 56q-34 54 -48 100t-14 84t12.5 68t33 51t46.5 33t53 15q-16 -42 -23 -79t-7 -70q0 -71 28.5 -123t72 -86t96.5 -50t101 -16q43 0 77.5 12t52.5 35q47 61 76.5 199t29.5 340 q0 60 -3 128q-65 -29 -135 -43.5t-137 -14.5q-65 0 -122.5 13t-101 38t-69 61.5t-25.5 83.5q0 53 37 120q51 91 73.5 152t22.5 100q0 33 -14 54.5t-38 37t-56.5 27.5t-69.5 27q30 8 59 12t57 4q40 0 74 -9.5t59 -30.5t39.5 -54t14.5 -79q0 -47 -15.5 -106t-50.5 -135 q-17 -35 -24 -64.5t-7 -53.5q0 -39 17.5 -65.5t47 -42.5t68.5 -22.5t83 -6.5q54 0 109.5 8.5t103.5 19.5q-4 62 -11.5 128t-19.5 140zM526 616q27 0 47 -20.5t20 -52.5q0 -31 -20 -54t-47 -23q-28 0 -48 23t-20 54q0 32 20 52.5t48 20.5z" />
<glyph unicode="i" horiz-adv-x="1031" d="M524 614q27 0 47 -20.5t20 -52.5q0 -31 -20 -54.5t-47 -23.5q-28 0 -48 23.5t-20 54.5q0 32 20 52.5t48 20.5zM700 567q-6 40 -8.5 74t-2.5 63q0 72 14.5 116.5t37 69.5t50.5 33.5t55 8.5q30 0 55.5 -5.5t37.5 -6.5q-38 -8 -61.5 -27.5t-37 -45t-18 -54t-4.5 -55.5 q0 -5 3 -29.5t7.5 -73t9.5 -123t8 -178.5l5 5l-5 -5q0 -55 -0.5 -114.5t-3 -122t-7.5 -126t-15 -125.5q-12 -91 -51.5 -157.5t-95 -110t-122.5 -64.5t-133 -21q-42 0 -82.5 8.5t-76 25t-65 40.5t-49.5 56q-34 54 -48.5 100.5t-14.5 84.5q0 39 12.5 69t33 51t47 33t53.5 15 q-16 -42 -23 -79.5t-7 -70.5q0 -72 28.5 -124t72.5 -86t96.5 -50.5t101.5 -16.5q43 0 78 12.5t53 35.5q48 61 77 199t29 341q0 61 -3 129q-66 -29 -135.5 -43.5t-137.5 -14.5q-65 0 -123 13t-102 38t-69.5 61.5t-25.5 84.5q0 54 38 121q51 92 73.5 153t22.5 100 q0 33 -14 54.5t-38 37t-56.5 27.5t-70.5 27q30 8 59.5 12t56.5 4q40 0 75 -10t60 -31t39.5 -54t14.5 -79t-15.5 -106t-50.5 -135q-17 -35 -24 -65t-7 -54q0 -39 17.5 -65.5t47.5 -42.5t69.5 -22.5t83.5 -6.5q54 0 109 8t103 19q-4 63 -11.5 129.5t-19.5 140.5zM176 -600 q2 -33 20 -55.5t47 -36t66 -19.5t78 -6q48 0 95 6.5t89 16.5q79 18 126.5 25.5t75.5 7.5q19 0 31 -3t20.5 -8t15.5 -12t16 -15q-4 53 -32.5 73t-73.5 20q-38 0 -77.5 -9.5t-85.5 -20.5t-100 -20.5t-122 -9.5q-30 0 -57 3.5t-48.5 11t-35.5 20t-17 31.5h-31z" />
<glyph unicode="j" horiz-adv-x="1014" d="M524 612q27 0 47.5 -20t20.5 -52t-20.5 -55t-47.5 -23q-28 0 -47.5 23t-19.5 55t19.5 52t47.5 20zM700 565q-12 79 -12 138q0 72 14.5 116.5t37.5 69.5t51.5 33.5t55.5 8.5q30 0 55 -5.5t37 -6.5q-39 -8 -62.5 -28t-36.5 -46t-17.5 -55t-4.5 -56v-17.5t1 -16.5 q2 -15 6 -48.5t8 -81t7.5 -108t5.5 -130.5l5 6l-5 -6q0 -54 -0.5 -113.5t-3 -122t-8 -126t-15.5 -125.5q-12 -91 -51.5 -157.5t-95 -110t-122.5 -64.5t-133 -21q-42 0 -82.5 8t-76 24.5t-64.5 40.5t-49 56q-34 54 -48.5 100.5t-14.5 84.5q0 39 12.5 69t33 51.5t47 33.5 t53.5 15q-16 -42 -23 -79.5t-7 -71.5q0 -71 28.5 -123t72 -86t96.5 -50.5t101 -16.5q43 0 77.5 12t53.5 36q48 61 78 201t30 346q0 59 -3 122q-66 -29 -136 -43.5t-138 -14.5q-65 0 -123 13t-101.5 37.5t-69 61t-25.5 84.5q0 55 38 122q51 91 73 152.5t22 100.5 q0 33 -14 54.5t-38 37t-56.5 27.5t-70.5 27q30 8 59.5 12t56.5 4q40 0 75 -10t60 -31t39.5 -54t14.5 -79t-15.5 -106t-50.5 -135q-17 -35 -24 -65t-7 -54q0 -39 17.5 -65.5t47.5 -42.5t69 -22.5t83 -6.5q54 0 110 8t104 19q-5 63 -12.5 129t-19.5 140zM529 835q8 32 20 57 t32 48q16 19 43.5 45.5t70.5 58.5q37 28 64 51.5t44.5 45t25.5 44.5t8 50q0 32 -12.5 56.5t-30.5 42.5q27 -8 49 -22.5t37 -33.5t23.5 -40t8.5 -42q0 -37 -10.5 -61.5t-31 -44t-51.5 -37.5t-72 -41q-48 -20 -80.5 -38t-54 -39t-36 -46.5t-26.5 -58.5z" />
<glyph unicode="k" d="M231 804q87 73 183.5 110t190.5 37t177.5 -37t147.5 -115q48 -58 71 -122.5t23 -133.5q0 -58 -15.5 -117t-45 -115.5t-72.5 -109t-97 -97.5q-89 -75 -186.5 -113.5t-192.5 -38.5q-90 0 -171.5 36t-144.5 112q-50 58 -73 125t-23 138q0 59 15.5 118.5t44.5 116t71.5 109 t96.5 97.5zM127 522q-5 -25 -7.5 -50t-2.5 -49q0 -81 26.5 -154.5t76.5 -129t122 -88t163 -32.5q85 0 159.5 36t129.5 99t86.5 149t31.5 187q0 80 -25 152.5t-73 127t-118 87t-160 32.5q-77 0 -145 -27.5t-122 -76t-91 -116t-51 -147.5zM447 555q0 25 20.5 43t49.5 18 q25 0 45.5 -18t20.5 -43t-20.5 -43t-45.5 -18q-29 0 -49.5 18t-20.5 43zM569 377q0 25 18.5 43t46.5 18q29 0 50 -18t21 -43q0 -29 -21 -45t-50 -16q-28 0 -46.5 16t-18.5 45zM324 377q0 25 21 43t50 18q25 0 45.5 -18t20.5 -43q0 -29 -20.5 -45t-45.5 -16q-29 0 -50 16 t-21 45z" />
<glyph unicode="l" d="M345 -216q14 -37 45.5 -52t73.5 -15q29 0 61.5 6t65.5 16t64.5 23t58.5 26q45 24 78 40t56.5 25.5t39.5 13.5t27 4q17 0 28 -6t26 -14q-11 32 -34.5 45t-55.5 13q-28 0 -60.5 -8.5t-67 -21.5t-68.5 -29t-64 -32q-20 -10 -43 -21t-46.5 -20.5t-46.5 -15.5t-44 -6 q-23 0 -40 9t-26 30zM231 804q87 73 183.5 110t190.5 37t177.5 -37t147.5 -115q48 -58 71 -122.5t23 -133.5q0 -58 -15.5 -117t-45 -115.5t-72.5 -109t-97 -97.5q-89 -75 -186.5 -113.5t-192.5 -38.5q-90 0 -171.5 36t-144.5 112q-50 58 -73 125t-23 138q0 59 15.5 118.5 t44.5 116t71.5 109t96.5 97.5zM127 522q-5 -25 -7.5 -50t-2.5 -49q0 -81 26.5 -154.5t76.5 -129t122 -88t163 -32.5q85 0 159.5 36t129.5 99t86.5 149t31.5 187q0 80 -25 152.5t-73 127t-118 87t-160 32.5q-77 0 -145 -27.5t-122 -76t-91 -116t-51 -147.5zM447 555 q0 25 20.5 43t49.5 18q25 0 45.5 -18t20.5 -43t-20.5 -43t-45.5 -18q-29 0 -49.5 18t-20.5 43zM569 377q0 25 18.5 43t46.5 18q29 0 50 -18t21 -43q0 -29 -21 -45t-50 -16q-28 0 -46.5 16t-18.5 45zM324 377q0 25 21 43t50 18q25 0 45.5 -18t20.5 -43q0 -29 -20.5 -45 t-45.5 -16q-29 0 -50 16t-21 45z" />
<glyph unicode="m" horiz-adv-x="1031" d="M259 1060q24 12 42.5 20t36.5 13t37.5 7t43.5 2q17 0 39 -2t45 -4t44 -4t37 -2q30 0 60 4.5t54 19t39.5 41t15.5 71.5q20 -34 20 -68q0 -72 -39 -107t-100 -35q-46 0 -114 25q-48 17 -80 25t-58 8q-25 0 -52.5 -7t-56.5 -22zM231 804q87 73 183.5 110t190.5 37t177.5 -37 t147.5 -115q48 -58 71 -122.5t23 -133.5q0 -58 -15.5 -117t-45 -115.5t-72.5 -109t-97 -97.5q-89 -75 -186.5 -113.5t-192.5 -38.5q-90 0 -171.5 36t-144.5 112q-50 58 -73 125t-23 138q0 59 15.5 118.5t44.5 116t71.5 109t96.5 97.5zM127 522q-5 -25 -7.5 -50t-2.5 -49 q0 -81 26.5 -154.5t76.5 -129t122 -88t163 -32.5q85 0 159.5 36t129.5 99t86.5 149t31.5 187q0 80 -25 152.5t-73 127t-118 87t-160 32.5q-77 0 -145 -27.5t-122 -76t-91 -116t-51 -147.5zM447 555q0 25 20.5 43t49.5 18q25 0 45.5 -18t20.5 -43t-20.5 -43t-45.5 -18 q-29 0 -49.5 18t-20.5 43zM569 377q0 25 18.5 43t46.5 18q29 0 50 -18t21 -43q0 -29 -21 -45t-50 -16q-28 0 -46.5 16t-18.5 45zM324 377q0 25 21 43t50 18q25 0 45.5 -18t20.5 -43q0 -29 -20.5 -45t-45.5 -16q-29 0 -50 16t-21 45z" />
<glyph unicode="n" d="M369 546q-22 -42 -31.5 -80.5t-9.5 -57.5q1 -5 1 -8v-5q0 -8 -3 -8q-4 0 -8.5 4t-9.5 4q-2 0 -7 -4t-11.5 -8.5t-13.5 -8.5t-13 -4q-8 0 -8.5 6.5t-0.5 12.5q0 32 15.5 73.5t41.5 83.5q-83 1 -140.5 15.5t-93.5 38.5t-52 55t-16 66q0 39 18 79t48.5 74.5t70 60t83.5 35.5 q-29 -9 -58.5 -36t-53.5 -62t-39.5 -72.5t-15.5 -68.5q0 -36 31 -60.5t74.5 -40t91.5 -23.5t81 -11q24 32 53 62t60.5 52.5t64 36t64.5 13.5q25 0 42.5 -10.5t29 -23.5t16.5 -25.5t5 -16.5q0 -15 -11 -27t-25 -12q-5 0 -12.5 2t-7.5 10q0 6 2.5 15t2.5 18q0 10 -5.5 16.5 t-22.5 6.5q-23 0 -51 -10t-56 -27t-53.5 -38.5t-41.5 -45.5q52 -3 105 -5.5t107 -8.5t107 -19t105 -38q43 -21 79.5 -52.5t63 -68t41.5 -76.5t15 -78q0 -62 -31.5 -117t-80.5 -96.5t-108.5 -65.5t-115.5 -24q-37 0 -73 12.5t-64.5 40.5t-46 72t-17.5 106q0 45 16.5 76.5 t42 52t57 30t61.5 9.5q42 0 73 -17t31 -48q0 -23 -19.5 -51t-66.5 -61q-2 0 -5.5 2.5t-3.5 7.5l4 5t8.5 14.5t8.5 23.5t4 31q0 30 -12.5 43.5t-30.5 13.5q-14 0 -29.5 -10t-28 -27.5t-21 -41.5t-8.5 -51q0 -43 16 -75t41.5 -53t56 -31.5t59.5 -10.5q37 0 73 12.5t64.5 36.5 t46 59t17.5 79q0 55 -29.5 117.5t-94 114.5t-167 86.5t-248.5 34.5h-27zM248 974q-5 -1 -9.5 -1.5t-9.5 -2.5q5 2 9.5 2.5t9.5 1.5z" />
<glyph unicode="o" d="M376 543q-22 -40 -32 -78.5t-10 -57.5q1 -5 1 -8.5v-6.5q0 -7 -3 -7t-8 4.5t-10 4.5q-1 0 -6 -4t-11 -8.5t-13 -8.5t-13 -4q-8 0 -9 7t-1 14q0 32 15.5 72t41.5 81q-83 1 -140 15.5t-92 38.5t-51 55t-16 65q0 41 19.5 83t52.5 77t75.5 59.5t88.5 31.5q-30 -2 -62.5 -28 t-59.5 -62.5t-44.5 -77.5t-17.5 -74q0 -24 14.5 -42.5t37.5 -32.5t53 -24t60.5 -16.5t59.5 -10.5t51 -6q24 32 52.5 61t59.5 51.5t63 36t62 13.5q27 0 45 -10t29 -23t15.5 -25t4.5 -16q0 -16 -11 -28.5t-25 -12.5q-5 0 -12.5 2.5t-7.5 10.5q0 6 2 15t2 17q0 9 -5 16t-21 7 q-21 0 -48.5 -9.5t-55.5 -26t-53.5 -38t-42.5 -45.5q51 -3 104 -5.5t105.5 -8.5t105.5 -19.5t104 -38.5q42 -20 78.5 -50.5t62.5 -66.5t41 -75t15 -76q0 -62 -31 -117t-79 -96.5t-107 -65.5t-115 -24q-36 0 -72 12.5t-64 40t-45.5 70.5t-17.5 104q0 45 16 76.5t41.5 52 t57 30t61.5 9.5q42 0 72 -17t30 -48q0 -22 -19.5 -50t-65.5 -61q-2 0 -5.5 3.5t-3.5 8.5l3.5 5t8 15t8.5 23t4 29q0 30 -13 43t-30 13q-14 0 -29 -10t-27.5 -27t-21 -41t-8.5 -51q0 -42 16 -73.5t41 -52.5t56 -31t60 -10q37 0 72.5 12.5t63.5 36.5t45 58.5t17 78.5 q0 55 -29 116t-92.5 112.5t-164.5 85t-244 33.5h-29zM582 -133q5 -31 30 -42.5t60 -11.5q39 0 77 7.5t76 16t76 16t78 7.5q25 0 46.5 -3.5t38 -12.5t26.5 -23.5t12 -36.5q-8 7 -14 13t-13 10.5t-16.5 7t-24.5 2.5q-22 0 -59.5 -6.5t-100.5 -22.5q-31 -8 -67.5 -12.5 t-72.5 -4.5q-33 0 -64 4.5t-55.5 16t-40 30t-17.5 45.5h25z" />
<glyph unicode="p" d="M372 541q-22 -40 -32.5 -79t-10.5 -58q1 -5 1.5 -9t0.5 -6q0 -6 -3 -6q-4 0 -9 4t-9 4q-1 0 -6 -4t-11.5 -8.5t-13.5 -8.5t-13 -4q-8 0 -9 7t-1 14q0 32 16 73t40 81q-83 1 -140 15.5t-92.5 38.5t-51.5 55.5t-16 65.5q0 46 19.5 87.5t55.5 77t86 64t110 48.5 q40 13 71 25.5t52.5 29t33 38.5t11.5 54q0 27 -13 50q58 -49 58 -108q0 -57 -42.5 -86.5t-136.5 -35.5q-42 -3 -71.5 -9t-49.5 -16q-26 -12 -49.5 -37.5t-41 -55.5t-28 -61t-10.5 -55q0 -36 30.5 -60.5t74 -39.5t90.5 -23t81 -11q24 32 52.5 61.5t59.5 52t63 36t62 13.5 q27 0 45.5 -10t30 -22.5t16 -25t4.5 -16.5q0 -16 -11 -28.5t-25 -12.5q-5 0 -12.5 2.5t-7.5 10.5q0 6 2.5 15.5t2.5 17.5q0 10 -5.5 16.5t-20.5 6.5q-20 0 -47.5 -9.5t-56 -26t-55 -38.5t-44.5 -47q52 -3 105.5 -5t106.5 -8.5t106 -19.5t105 -38q43 -21 79 -52t62.5 -67.5 t41.5 -76t15 -77.5q0 -62 -31 -117t-79.5 -96.5t-108 -65.5t-115.5 -24q-36 0 -72 12.5t-64.5 40t-46.5 71t-18 105.5q0 45 16.5 77t42 52.5t57 30t61.5 9.5q42 0 72.5 -17t30.5 -48q0 -23 -19.5 -51t-66.5 -62q-2 0 -5.5 3.5t-3.5 8.5q0 -1 4 4.5t8.5 15.5t8.5 24t4 30 q0 31 -13.5 43.5t-30.5 12.5q-14 0 -29 -10t-28 -27.5t-21 -41.5t-8 -51q0 -43 16 -74.5t41.5 -52.5t56 -31.5t59.5 -10.5q37 0 72.5 13t64 37t46 58.5t17.5 78.5q0 55 -29 116.5t-93 113.5t-165 86t-245 34h-31v0z" />
<glyph unicode="q" d="M560 706q111 -98 157 -188.5t46 -169.5q0 -52 -15.5 -97t-42 -82.5t-60 -66.5t-70 -49t-73 -30.5t-67.5 -10.5q-41 0 -78 13t-65 35.5t-44.5 53.5t-16.5 67q0 53 26 93.5t62 68.5t75.5 42t66.5 14t43.5 -9t16.5 -24v-5q3 -5 3 -10q0 -12 -14 -26.5t-33.5 -27.5t-40 -21.5 t-32.5 -8.5q-4 0 -6 1q-2 0 -5 -4t-3 -8q0 -5 11 -7.5t25 -4t27 -2t17 -0.5q64 0 92.5 24t28.5 57q0 24 -13.5 50t-37.5 47t-56.5 34.5t-70.5 13.5q-41 0 -85.5 -18t-91.5 -62q-57 -54 -82.5 -103.5t-25.5 -94.5q0 -50 27 -91.5t72.5 -71t104 -46t121.5 -16.5q56 0 111.5 14 t105.5 45q40 25 73 62t56.5 81.5t36 93.5t12.5 97q0 22 -3 43q-10 67 -40 120.5t-70 101t-83.5 93.5t-80 98t-60.5 114.5t-24 143.5q0 21 2 43.5t6 46.5q-13 -19 -27.5 -41.5t-26.5 -47.5t-19.5 -53.5t-7.5 -59.5q0 -27 7.5 -56.5t24.5 -61t45 -66t69 -70.5zM495 1448 q0 -44 -3.5 -80t-14 -73.5t-29.5 -82t-50 -105.5q-24 -47 -40 -83t-26.5 -65.5t-15 -55t-4.5 -52.5q0 -23 4.5 -45.5t13.5 -41.5t22.5 -34t32.5 -24q-16 -4 -33 -4q-30 0 -53 14.5t-38.5 37t-23 51t-7.5 57.5q0 25 5.5 50.5t18 55t34 64.5t54.5 79q39 53 63.5 95t38.5 76 q11 35 20 74t12 88z" />
<glyph unicode="r" horiz-adv-x="682" d="M462 1838q9 -42 20.5 -69.5t11.5 -53.5q12 -24 14 -40t2 -40q0 -6 -0.5 -16.5t-2 -22.5t-4.5 -23t-9 -17l-15 -143v-15q-5 -5 -5 -10q0 -6 6 -9.5t14 -3.5t16 6q0 -12 -10 -17.5t-22 -5.5q-11 0 -21 5.5t-10 17.5q0 -5 -0.5 -12.5t0 -14t4 -11.5t12.5 -5q6 0 11 3t5 9 q0 -8 -9 -15.5t-16 -7.5t-7 7v-32q24 0 37.5 -12t25.5 -36q24 48 48 86t47 73q10 20 26.5 36t35.5 16q12 0 20.5 -7.5t13.5 -17t7.5 -19.5t2.5 -16q0 -20 -6 -31t-15 -16t-19 -6.5t-18 -1.5t-15.5 5t-7.5 13q0 6 7 13l16 17q1 -2 3 -5q4 -6 4 -8q0 -4 -7 -4q0 -4 2 -8 q3 -7 14 -7q5 5 7.5 14t2.5 20q0 12 -4 21.5t-13 9.5q-11 0 -22 -12.5t-19 -20.5l-79 -159q-3 -11 -0.5 -19t8 -15.5t12 -14.5t12.5 -14l-32 -32l47 -127q4 -11 5 -21.5t2 -20.5q0 -24 -7 -46t-15 -39l-17 -80q6 -12 14.5 -21.5t16 -18t12.5 -18t5 -21.5q0 -17 -16 -30.5 t-39 -13.5q-9 0 -19 2.5t-21 10.5q6 -18 12 -31t13.5 -23.5t17 -20l21.5 -21.5q36 -30 60 -50.5t39 -42.5t21.5 -51.5t6.5 -77.5q-36 0 -72 -19.5t-72 -43.5q0 26 -2 51q-2 21 -5 42.5t-8 33.5q0 -18 -0.5 -42.5t-2 -47t-4.5 -38t-9 -15.5l-16 -47q13 -20 21.5 -44.5 t8.5 -44.5q0 -17 -7 -27.5t-23 -10.5q-11 -6 -21 -10.5t-18 -4.5q-11 0 -17.5 10t-6.5 36v96q-12 -12 -29 -19t-36.5 -13t-39.5 -13t-38 -19q7 27 7 52q0 29 -7.5 55t-15.5 52q3 -17 3 -35q0 -27 -6 -55t-14.5 -56t-17 -55.5t-13.5 -52.5q0 -36 -2 -69.5t-13 -57.5h-80 q-11 0 -15 9.5t-17 22.5q-23 23 -35 57t-12 70q7 0 11 3l8 6t10 6t16 3q13 0 22.5 -11t9.5 -26q0 -16 -13 -29q-9 0 -16 9.5t-7 21.5q0 9 6 17q4 0 4 -1q0 -3 -7.5 -11t-7.5 -22t11 -30h32q-2 -2 -4 -5q-3 -5 -3 -12q0 -8 7 -15l16 111l-16 -15q0 89 5.5 164.5t14.5 142 t20 127.5t23 120l-222 -380l-15 16q72 131 133 247.5t121 211.5v17q-6 18 -7.5 24.5t-4.5 18.5t-10.5 36.5t-25.5 78.5q-8 17 -15.5 29t-7.5 26q0 11 7 24l79 207q6 12 10 18.5t7 11t6 8t9 9.5q12 0 24 8t24 8q18 0 18 19q0 11 -5.5 24.5t-12.5 20.5h-16l-16 -16v-16 q0 -12 -2 -16t-14 -16q-20 0 -36 7.5t-16 23.5q0 7 3.5 13.5t1.5 19.5q1 -2 6 -1t11 1t10.5 -3t4.5 -13q-8 -7 -15 -7q-8 0 -8 4q3 1 5 4q4 6 1 15q-11 -12 -13 -16t-2 -16q16 -7 22.5 2t9.5 22.5t5 26.5t10 13l16 31h-16l16 16h-16v16h-15v15q5 0 10.5 2.5t10.5 5.5 q5 4 10 9q12 11 14 15t2 17l16 47q18 24 33 42.5t28 36.5t25 36.5t24 42.5q0 13 2 26.5t15 37.5q0 12 2 16t13 15v13zM367 747q0 -6 9.5 -9t21.5 -5q14 -2 32 -2v32q-8 0 -15.5 3.5t-15.5 3.5q-9 -1 -16 -4q-6 -2 -11 -7t-5 -12zM462 890q12 -18 18.5 -50t9.5 -63 q4 -37 4 -77l63 205q13 24 15 46t2 34l-17 95q0 -16 3.5 -35.5t3.5 -39.5q0 -36 -11 -60.5t-11 -39.5q-6 -18 -9.5 -28t-6.5 -19l-6.5 -19.5l-9.5 -28.5q-6 24 -14 39.5t-16 24.5q-9 11 -18 16zM383 795q8 0 11 1t6.5 3t9.5 5t20 6v17q8 0 11.5 -0.5t4.5 -3.5t1 -9.5v-18.5 h32q-6 6 -10 14t-7 15.5t-6 12.5t-9 5h-17l-10 -8q-11 -7 -21 -7q-1 0 -4 -0.5t-6.5 -3.5t-5.5 -9.5t0 -18.5zM367 827l-32 -64l32 -16q0 12 2 21.5t14 9.5q9 0 19 -0.5t17.5 -3.5t11 -9.5t-0.5 -17.5q19 0 28.5 4t14 9t5.5 10t1 8q-6 6 -14.5 7t-16 1t-13 1.5t-5.5 7.5 l17 15v17q-9 -8 -12 -12.5t-20 -4.5q0 -8 -5 -15t-13 -7h-6t-5 3.5t-3 11.5t0 24h-16zM304 810q-38 58 -67 113.5t-29 108.5l17 95l-32 -78q-12 -24 -12 -48t12 -48l15 -31q24 -60 46 -109.5t34 -97.5l95 175z" />
<glyph unicode="s" horiz-adv-x="708" d="M462 1838q9 -42 20.5 -69.5t11.5 -53.5q12 -24 14 -40t2 -40q0 -6 -0.5 -16.5t-2 -22.5t-4.5 -23t-9 -17l-15 -143v-15q-5 -5 -5 -10q0 -6 6 -9.5t14 -3.5t16 6q0 -12 -10 -17.5t-22 -5.5q-11 0 -21 5.5t-10 17.5q0 -5 -0.5 -12.5t0 -14t4 -11.5t12.5 -5q6 0 11 3t5 9 q0 -8 -9 -15.5t-16 -7.5t-7 7v-32q24 0 37.5 -12t25.5 -36q24 48 48 86t47 73q10 20 26.5 36t35.5 16q12 0 20.5 -7.5t13.5 -17t7.5 -19.5t2.5 -16q0 -20 -6 -31t-15 -16t-19 -6.5t-18 -1.5t-15.5 5t-7.5 13q0 6 7 13l16 17q1 -2 3 -5q4 -6 4 -8q0 -4 -7 -4q0 -4 2 -8 q3 -7 14 -7q5 5 7.5 14t2.5 20q0 12 -4 21.5t-13 9.5q-11 0 -22 -12.5t-19 -20.5l-79 -159q-3 -11 -0.5 -19t8 -15.5t12 -14.5t12.5 -14l-32 -32l47 -127q4 -11 5 -21.5t2 -20.5q0 -24 -7 -46t-15 -39l-17 -80q6 -12 14.5 -21.5t16 -18t12.5 -18t5 -21.5q0 -17 -16 -30.5 t-39 -13.5q-9 0 -19 2.5t-21 10.5q6 -18 12 -31t13.5 -23.5t17 -20l21.5 -21.5q36 -30 60 -50.5t39 -42.5t21.5 -51.5t6.5 -77.5q-36 0 -72 -19.5t-72 -43.5q0 26 -2 51q-2 21 -5 42.5t-8 33.5q0 -18 -0.5 -42.5t-2 -47t-4.5 -38t-9 -15.5l-16 -47q13 -20 21.5 -44.5 t8.5 -44.5q0 -17 -7 -27.5t-23 -10.5q-11 -6 -21 -10.5t-18 -4.5q-11 0 -17.5 10t-6.5 36v96q-12 -12 -29 -19t-36.5 -13t-39.5 -13t-38 -19q7 27 7 52q0 29 -7.5 55t-15.5 52q3 -17 3 -35q0 -27 -6 -55t-14.5 -56t-17 -55.5t-13.5 -52.5q0 -36 -2 -69.5t-13 -57.5h-80 q-11 0 -15 9.5t-17 22.5q-23 23 -35 57t-12 70q7 0 11 3l8 6t10 6t16 3q13 0 22.5 -11t9.5 -26q0 -16 -13 -29q-9 0 -16 9.5t-7 21.5q0 9 6 17q4 0 4 -1q0 -3 -7.5 -11t-7.5 -22t11 -30h32q-2 -2 -4 -5q-3 -5 -3 -12q0 -8 7 -15l16 111l-16 -15q0 89 5.5 164.5t14.5 142 t20 127.5t23 120l-222 -380l-15 16q72 131 133 247.5t121 211.5v17q-6 18 -7.5 24.5t-4.5 18.5t-10.5 36.5t-25.5 78.5q-8 17 -15.5 29t-7.5 26q0 11 7 24l79 207q6 12 10 18.5t7 11t6 8t9 9.5q12 0 24 8t24 8q18 0 18 19q0 11 -5.5 24.5t-12.5 20.5h-16l-16 -16v-16 q0 -12 -2 -16t-14 -16q-20 0 -36 7.5t-16 23.5q0 7 3.5 13.5t1.5 19.5q1 -2 6 -1t11 1t10.5 -3t4.5 -13q-8 -7 -15 -7q-8 0 -8 4q3 1 5 4q4 6 1 15q-11 -12 -13 -16t-2 -16q16 -7 22.5 2t9.5 22.5t5 26.5t10 13l16 31h-16l16 16h-16v16h-15v15q5 0 10.5 2.5t10.5 5.5 q5 4 10 9q12 11 14 15t2 17l16 47q18 24 33 42.5t28 36.5t25 36.5t24 42.5q0 13 2 26.5t15 37.5q0 12 2 16t13 15v13zM367 747q0 -6 9.5 -9t21.5 -5q14 -2 32 -2v32q-8 0 -15.5 3.5t-15.5 3.5q-9 -1 -16 -4q-6 -2 -11 -7t-5 -12zM462 890q12 -18 18.5 -50t9.5 -63 q4 -37 4 -77l63 205q13 24 15 46t2 34l-17 95q0 -16 3.5 -35.5t3.5 -39.5q0 -36 -11 -60.5t-11 -39.5q-6 -18 -9.5 -28t-6.5 -19l-6.5 -19.5l-9.5 -28.5q-6 24 -14 39.5t-16 24.5q-9 11 -18 16zM383 795q8 0 11 1t6.5 3t9.5 5t20 6v17q8 0 11.5 -0.5t4.5 -3.5t1 -9.5v-18.5 h32q-6 6 -10 14t-7 15.5t-6 12.5t-9 5h-17l-10 -8q-11 -7 -21 -7q-1 0 -4 -0.5t-6.5 -3.5t-5.5 -9.5t0 -18.5zM367 827l-32 -64l32 -16q0 12 2 21.5t14 9.5q9 0 19 -0.5t17.5 -3.5t11 -9.5t-0.5 -17.5q19 0 28.5 4t14 9t5.5 10t1 8q-6 6 -14.5 7t-16 1t-13 1.5t-5.5 7.5 l17 15v17q-9 -8 -12 -12.5t-20 -4.5q0 -8 -5 -15t-13 -7h-6t-5 3.5t-3 11.5t0 24h-16zM304 810q-38 58 -67 113.5t-29 108.5l17 95l-32 -78q-12 -24 -12 -48t12 -48l15 -31q24 -60 46 -109.5t34 -97.5l95 175z" />
<glyph unicode="t" horiz-adv-x="718" d="M462 1838q9 -42 20.5 -69.5t11.5 -53.5q12 -24 14 -40t2 -40q0 -6 -0.5 -16.5t-2 -22.5t-4.5 -23t-9 -17l-15 -143v-15q-5 -5 -5 -10q0 -6 6 -9.5t14 -3.5t16 6q0 -12 -10 -17.5t-22 -5.5q-11 0 -21 5.5t-10 17.5q0 -5 -0.5 -12.5t0 -14t4 -11.5t12.5 -5q6 0 11 3t5 9 q0 -8 -9 -15.5t-16 -7.5t-7 7v-32q24 0 37.5 -12t25.5 -36q24 48 48 86t47 73q10 20 26.5 36t35.5 16q12 0 20.5 -7.5t13.5 -17t7.5 -19.5t2.5 -16q0 -20 -6 -31t-15 -16t-19 -6.5t-18 -1.5t-15.5 5t-7.5 13q0 6 7 13l16 17q1 -2 3 -5q4 -6 4 -8q0 -4 -7 -4q0 -4 2 -8 q3 -7 14 -7q5 5 7.5 14t2.5 20q0 12 -4 21.5t-13 9.5q-11 0 -22 -12.5t-19 -20.5l-79 -159q-3 -11 -0.5 -19t8 -15.5t12 -14.5t12.5 -14l-32 -32l47 -127q4 -11 5 -21.5t2 -20.5q0 -24 -7 -46t-15 -39l-17 -80q6 -12 14.5 -21.5t16 -18t12.5 -18t5 -21.5q0 -17 -16 -30.5 t-39 -13.5q-9 0 -19 2.5t-21 10.5q6 -18 12 -31t13.5 -23.5t17 -20l21.5 -21.5q36 -30 60 -50.5t39 -42.5t21.5 -51.5t6.5 -77.5q-36 0 -72 -19.5t-72 -43.5q0 26 -2 51q-2 21 -5 42.5t-8 33.5q0 -18 -0.5 -42.5t-2 -47t-4.5 -38t-9 -15.5l-16 -47q13 -20 21.5 -44.5 t8.5 -44.5q0 -17 -7 -27.5t-23 -10.5q-11 -6 -21 -10.5t-18 -4.5q-11 0 -17.5 10t-6.5 36v96q-12 -12 -29 -19t-36.5 -13t-39.5 -13t-38 -19q7 27 7 52q0 29 -7.5 55t-15.5 52q3 -17 3 -35q0 -27 -6 -55t-14.5 -56t-17 -55.5t-13.5 -52.5q0 -36 -2 -69.5t-13 -57.5h-80 q-11 0 -15 9.5t-17 22.5q-23 23 -35 57t-12 70q7 0 11 3l8 6t10 6t16 3q13 0 22.5 -11t9.5 -26q0 -16 -13 -29q-9 0 -16 9.5t-7 21.5q0 9 6 17q4 0 4 -1q0 -3 -7.5 -11t-7.5 -22t11 -30h32q-2 -2 -4 -5q-3 -5 -3 -12q0 -8 7 -15l16 111l-16 -15q0 89 5.5 164.5t14.5 142 t20 127.5t23 120l-222 -380l-15 16q72 131 133 247.5t121 211.5v17q-6 18 -7.5 24.5t-4.5 18.5t-10.5 36.5t-25.5 78.5q-8 17 -15.5 29t-7.5 26q0 11 7 24l79 207q6 12 10 18.5t7 11t6 8t9 9.5q12 0 24 8t24 8q18 0 18 19q0 11 -5.5 24.5t-12.5 20.5h-16l-16 -16v-16 q0 -12 -2 -16t-14 -16q-20 0 -36 7.5t-16 23.5q0 7 3.5 13.5t1.5 19.5q1 -2 6 -1t11 1t10.5 -3t4.5 -13q-8 -7 -15 -7q-8 0 -8 4q3 1 5 4q4 6 1 15q-11 -12 -13 -16t-2 -16q16 -7 22.5 2t9.5 22.5t5 26.5t10 13l16 31h-16l16 16h-16v16h-15v15q5 0 10.5 2.5t10.5 5.5 q5 4 10 9q12 11 14 15t2 17l16 47q18 24 33 42.5t28 36.5t25 36.5t24 42.5q0 13 2 26.5t15 37.5q0 12 2 16t13 15v13zM367 747q0 -6 9.5 -9t21.5 -5q14 -2 32 -2v32q-8 0 -15.5 3.5t-15.5 3.5q-9 -1 -16 -4q-6 -2 -11 -7t-5 -12zM462 890q12 -18 18.5 -50t9.5 -63 q4 -37 4 -77l63 205q13 24 15 46t2 34l-17 95q0 -16 3.5 -35.5t3.5 -39.5q0 -36 -11 -60.5t-11 -39.5q-6 -18 -9.5 -28t-6.5 -19l-6.5 -19.5l-9.5 -28.5q-6 24 -14 39.5t-16 24.5q-9 11 -18 16zM383 795q8 0 11 1t6.5 3t9.5 5t20 6v17q8 0 11.5 -0.5t4.5 -3.5t1 -9.5v-18.5 h32q-6 6 -10 14t-7 15.5t-6 12.5t-9 5h-17l-10 -8q-11 -7 -21 -7q-1 0 -4 -0.5t-6.5 -3.5t-5.5 -9.5t0 -18.5zM367 827l-32 -64l32 -16q0 12 2 21.5t14 9.5q9 0 19 -0.5t17.5 -3.5t11 -9.5t-0.5 -17.5q19 0 28.5 4t14 9t5.5 10t1 8q-6 6 -14.5 7t-16 1t-13 1.5t-5.5 7.5 l17 15v17q-9 -8 -12 -12.5t-20 -4.5q0 -8 -5 -15t-13 -7h-6t-5 3.5t-3 11.5t0 24h-16zM304 810q-38 58 -67 113.5t-29 108.5l17 95l-32 -78q-12 -24 -12 -48t12 -48l15 -31q24 -60 46 -109.5t34 -97.5l95 175z" />
<glyph unicode="u" horiz-adv-x="698" d="M462 1838q9 -42 20.5 -69.5t11.5 -53.5q12 -24 14 -40t2 -40q0 -6 -0.5 -16.5t-2 -22.5t-4.5 -23t-9 -17l-15 -143v-15q-5 -5 -5 -10q0 -6 6 -9.5t14 -3.5t16 6q0 -12 -10 -17.5t-22 -5.5q-11 0 -21 5.5t-10 17.5q0 -5 -0.5 -12.5t0 -14t4 -11.5t12.5 -5q6 0 11 3t5 9 q0 -8 -9 -15.5t-16 -7.5t-7 7v-32q24 0 37.5 -12t25.5 -36q24 48 48 86t47 73q10 20 26.5 36t35.5 16q12 0 20.5 -7.5t13.5 -17t7.5 -19.5t2.5 -16q0 -20 -6 -31t-15 -16t-19 -6.5t-18 -1.5t-15.5 5t-7.5 13q0 6 7 13l16 17q1 -2 3 -5q4 -6 4 -8q0 -4 -7 -4q0 -4 2 -8 q3 -7 14 -7q5 5 7.5 14t2.5 20q0 12 -4 21.5t-13 9.5q-11 0 -22 -12.5t-19 -20.5l-79 -159q-3 -11 -0.5 -19t8 -15.5t12 -14.5t12.5 -14l-32 -32l47 -127q4 -11 5 -21.5t2 -20.5q0 -24 -7 -46t-15 -39l-17 -80q6 -12 14.5 -21.5t16 -18t12.5 -18t5 -21.5q0 -17 -16 -30.5 t-39 -13.5q-9 0 -19 2.5t-21 10.5q6 -18 12 -31t13.5 -23.5t17 -20l21.5 -21.5q36 -30 60 -50.5t39 -42.5t21.5 -51.5t6.5 -77.5q-36 0 -72 -19.5t-72 -43.5q0 26 -2 51q-2 21 -5 42.5t-8 33.5q0 -18 -0.5 -42.5t-2 -47t-4.5 -38t-9 -15.5l-16 -47q13 -20 21.5 -44.5 t8.5 -44.5q0 -17 -7 -27.5t-23 -10.5q-11 -6 -21 -10.5t-18 -4.5q-11 0 -17.5 10t-6.5 36v96q-12 -12 -29 -19t-36.5 -13t-39.5 -13t-38 -19q7 27 7 52q0 29 -7.5 55t-15.5 52q3 -17 3 -35q0 -27 -6 -55t-14.5 -56t-17 -55.5t-13.5 -52.5q0 -36 -2 -69.5t-13 -57.5h-80 q-11 0 -15 9.5t-17 22.5q-23 23 -35 57t-12 70q7 0 11 3l8 6t10 6t16 3q13 0 22.5 -11t9.5 -26q0 -16 -13 -29q-9 0 -16 9.5t-7 21.5q0 9 6 17q4 0 4 -1q0 -3 -7.5 -11t-7.5 -22t11 -30h32q-2 -2 -4 -5q-3 -5 -3 -12q0 -8 7 -15l16 111l-16 -15q0 89 5.5 164.5t14.5 142 t20 127.5t23 120l-222 -380l-15 16q72 131 133 247.5t121 211.5v17q-6 18 -7.5 24.5t-4.5 18.5t-10.5 36.5t-25.5 78.5q-8 17 -15.5 29t-7.5 26q0 11 7 24l79 207q6 12 10 18.5t7 11t6 8t9 9.5q12 0 24 8t24 8q18 0 18 19q0 11 -5.5 24.5t-12.5 20.5h-16l-16 -16v-16 q0 -12 -2 -16t-14 -16q-20 0 -36 7.5t-16 23.5q0 7 3.5 13.5t1.5 19.5q1 -2 6 -1t11 1t10.5 -3t4.5 -13q-8 -7 -15 -7q-8 0 -8 4q3 1 5 4q4 6 1 15q-11 -12 -13 -16t-2 -16q16 -7 22.5 2t9.5 22.5t5 26.5t10 13l16 31h-16l16 16h-16v16h-15v15q5 0 10.5 2.5t10.5 5.5 q5 4 10 9q12 11 14 15t2 17l16 47q18 24 33 42.5t28 36.5t25 36.5t24 42.5q0 13 2 26.5t15 37.5q0 12 2 16t13 15v13zM367 747q0 -6 9.5 -9t21.5 -5q14 -2 32 -2v32q-8 0 -15.5 3.5t-15.5 3.5q-9 -1 -16 -4q-6 -2 -11 -7t-5 -12zM462 890q12 -18 18.5 -50t9.5 -63 q4 -37 4 -77l63 205q13 24 15 46t2 34l-17 95q0 -16 3.5 -35.5t3.5 -39.5q0 -36 -11 -60.5t-11 -39.5q-6 -18 -9.5 -28t-6.5 -19l-6.5 -19.5l-9.5 -28.5q-6 24 -14 39.5t-16 24.5q-9 11 -18 16zM383 795q8 0 11 1t6.5 3t9.5 5t20 6v17q8 0 11.5 -0.5t4.5 -3.5t1 -9.5v-18.5 h32q-6 6 -10 14t-7 15.5t-6 12.5t-9 5h-17l-10 -8q-11 -7 -21 -7q-1 0 -4 -0.5t-6.5 -3.5t-5.5 -9.5t0 -18.5zM367 827l-32 -64l32 -16q0 12 2 21.5t14 9.5q9 0 19 -0.5t17.5 -3.5t11 -9.5t-0.5 -17.5q19 0 28.5 4t14 9t5.5 10t1 8q-6 6 -14.5 7t-16 1t-13 1.5t-5.5 7.5 l17 15v17q-9 -8 -12 -12.5t-20 -4.5q0 -8 -5 -15t-13 -7h-6t-5 3.5t-3 11.5t0 24h-16zM304 810q-38 58 -67 113.5t-29 108.5l17 95l-32 -78q-12 -24 -12 -48t12 -48l15 -31q24 -60 46 -109.5t34 -97.5l95 175z" />
<glyph unicode="v" horiz-adv-x="715" d="M462 1838q9 -42 20.5 -69.5t11.5 -53.5q12 -24 14 -40t2 -40q0 -6 -0.5 -16.5t-2 -22.5t-4.5 -23t-9 -17l-15 -143v-15q-5 -5 -5 -10q0 -6 6 -9.5t14 -3.5t16 6q0 -12 -10 -17.5t-22 -5.5q-11 0 -21 5.5t-10 17.5q0 -5 -0.5 -12.5t0 -14t4 -11.5t12.5 -5q6 0 11 3t5 9 q0 -8 -9 -15.5t-16 -7.5t-7 7v-32q24 0 37.5 -12t25.5 -36q24 48 48 86t47 73q10 20 26.5 36t35.5 16q12 0 20.5 -7.5t13.5 -17t7.5 -19.5t2.5 -16q0 -20 -6 -31t-15 -16t-19 -6.5t-18 -1.5t-15.5 5t-7.5 13q0 6 7 13l16 17q1 -2 3 -5q4 -6 4 -8q0 -4 -7 -4q0 -4 2 -8 q3 -7 14 -7q5 5 7.5 14t2.5 20q0 12 -4 21.5t-13 9.5q-11 0 -22 -12.5t-19 -20.5l-79 -159q-3 -11 -0.5 -19t8 -15.5t12 -14.5t12.5 -14l-32 -32l47 -127q4 -11 5 -21.5t2 -20.5q0 -24 -7 -46t-15 -39l-17 -80q6 -12 14.5 -21.5t16 -18t12.5 -18t5 -21.5q0 -17 -16 -30.5 t-39 -13.5q-9 0 -19 2.5t-21 10.5q6 -18 12 -31t13.5 -23.5t17 -20l21.5 -21.5q36 -30 60 -50.5t39 -42.5t21.5 -51.5t6.5 -77.5q-36 0 -72 -19.5t-72 -43.5q0 26 -2 51q-2 21 -5 42.5t-8 33.5q0 -18 -0.5 -42.5t-2 -47t-4.5 -38t-9 -15.5l-16 -47q13 -20 21.5 -44.5 t8.5 -44.5q0 -17 -7 -27.5t-23 -10.5q-11 -6 -21 -10.5t-18 -4.5q-11 0 -17.5 10t-6.5 36v96q-12 -12 -29 -19t-36.5 -13t-39.5 -13t-38 -19q7 27 7 52q0 29 -7.5 55t-15.5 52q3 -17 3 -35q0 -27 -6 -55t-14.5 -56t-17 -55.5t-13.5 -52.5q0 -36 -2 -69.5t-13 -57.5h-80 q-11 0 -15 9.5t-17 22.5q-23 23 -35 57t-12 70q7 0 11 3l8 6t10 6t16 3q13 0 22.5 -11t9.5 -26q0 -16 -13 -29q-9 0 -16 9.5t-7 21.5q0 9 6 17q4 0 4 -1q0 -3 -7.5 -11t-7.5 -22t11 -30h32q-2 -2 -4 -5q-3 -5 -3 -12q0 -8 7 -15l16 111l-16 -15q0 89 5.5 164.5t14.5 142 t20 127.5t23 120l-222 -380l-15 16q72 131 133 247.5t121 211.5v17q-6 18 -7.5 24.5t-4.5 18.5t-10.5 36.5t-25.5 78.5q-8 17 -15.5 29t-7.5 26q0 11 7 24l79 207q6 12 10 18.5t7 11t6 8t9 9.5q12 0 24 8t24 8q18 0 18 19q0 11 -5.5 24.5t-12.5 20.5h-16l-16 -16v-16 q0 -12 -2 -16t-14 -16q-20 0 -36 7.5t-16 23.5q0 7 3.5 13.5t1.5 19.5q1 -2 6 -1t11 1t10.5 -3t4.5 -13q-8 -7 -15 -7q-8 0 -8 4q3 1 5 4q4 6 1 15q-11 -12 -13 -16t-2 -16q16 -7 22.5 2t9.5 22.5t5 26.5t10 13l16 31h-16l16 16h-16v16h-15v15q5 0 10.5 2.5t10.5 5.5 q5 4 10 9q12 11 14 15t2 17l16 47q18 24 33 42.5t28 36.5t25 36.5t24 42.5q0 13 2 26.5t15 37.5q0 12 2 16t13 15v13zM367 747q0 -6 9.5 -9t21.5 -5q14 -2 32 -2v32q-8 0 -15.5 3.5t-15.5 3.5q-9 -1 -16 -4q-6 -2 -11 -7t-5 -12zM462 890q12 -18 18.5 -50t9.5 -63 q4 -37 4 -77l63 205q13 24 15 46t2 34l-17 95q0 -16 3.5 -35.5t3.5 -39.5q0 -36 -11 -60.5t-11 -39.5q-6 -18 -9.5 -28t-6.5 -19l-6.5 -19.5l-9.5 -28.5q-6 24 -14 39.5t-16 24.5q-9 11 -18 16zM383 795q8 0 11 1t6.5 3t9.5 5t20 6v17q8 0 11.5 -0.5t4.5 -3.5t1 -9.5v-18.5 h32q-6 6 -10 14t-7 15.5t-6 12.5t-9 5h-17l-10 -8q-11 -7 -21 -7q-1 0 -4 -0.5t-6.5 -3.5t-5.5 -9.5t0 -18.5zM367 827l-32 -64l32 -16q0 12 2 21.5t14 9.5q9 0 19 -0.5t17.5 -3.5t11 -9.5t-0.5 -17.5q19 0 28.5 4t14 9t5.5 10t1 8q-6 6 -14.5 7t-16 1t-13 1.5t-5.5 7.5 l17 15v17q-9 -8 -12 -12.5t-20 -4.5q0 -8 -5 -15t-13 -7h-6t-5 3.5t-3 11.5t0 24h-16zM304 810q-38 58 -67 113.5t-29 108.5l17 95l-32 -78q-12 -24 -12 -48t12 -48l15 -31q24 -60 46 -109.5t34 -97.5l95 175z" />
<glyph unicode="w" horiz-adv-x="705" d="M462 1838q9 -42 20.5 -69.5t11.5 -53.5q12 -24 14 -40t2 -40q0 -6 -0.5 -16.5t-2 -22.5t-4.5 -23t-9 -17l-15 -143v-15q-5 -5 -5 -10q0 -6 6 -9.5t14 -3.5t16 6q0 -12 -10 -17.5t-22 -5.5q-11 0 -21 5.5t-10 17.5q0 -5 -0.5 -12.5t0 -14t4 -11.5t12.5 -5q6 0 11 3t5 9 q0 -8 -9 -15.5t-16 -7.5t-7 7v-32q24 0 37.5 -12t25.5 -36q24 48 48 86t47 73q10 20 26.5 36t35.5 16q12 0 20.5 -7.5t13.5 -17t7.5 -19.5t2.5 -16q0 -20 -6 -31t-15 -16t-19 -6.5t-18 -1.5t-15.5 5t-7.5 13q0 6 7 13l16 17q1 -2 3 -5q4 -6 4 -8q0 -4 -7 -4q0 -4 2 -8 q3 -7 14 -7q5 5 7.5 14t2.5 20q0 12 -4 21.5t-13 9.5q-11 0 -22 -12.5t-19 -20.5l-79 -159q-3 -11 -0.5 -19t8 -15.5t12 -14.5t12.5 -14l-32 -32l47 -127q4 -11 5 -21.5t2 -20.5q0 -24 -7 -46t-15 -39l-17 -80q6 -12 14.5 -21.5t16 -18t12.5 -18t5 -21.5q0 -17 -16 -30.5 t-39 -13.5q-9 0 -19 2.5t-21 10.5q6 -18 12 -31t13.5 -23.5t17 -20l21.5 -21.5q36 -30 60 -50.5t39 -42.5t21.5 -51.5t6.5 -77.5q-36 0 -72 -19.5t-72 -43.5q0 26 -2 51q-2 21 -5 42.5t-8 33.5q0 -18 -0.5 -42.5t-2 -47t-4.5 -38t-9 -15.5l-16 -47q13 -20 21.5 -44.5 t8.5 -44.5q0 -17 -7 -27.5t-23 -10.5q-11 -6 -21 -10.5t-18 -4.5q-11 0 -17.5 10t-6.5 36v96q-12 -12 -29 -19t-36.5 -13t-39.5 -13t-38 -19q7 27 7 52q0 29 -7.5 55t-15.5 52q3 -17 3 -35q0 -27 -6 -55t-14.5 -56t-17 -55.5t-13.5 -52.5q0 -36 -2 -69.5t-13 -57.5h-80 q-11 0 -15 9.5t-17 22.5q-23 23 -35 57t-12 70q7 0 11 3l8 6t10 6t16 3q13 0 22.5 -11t9.5 -26q0 -16 -13 -29q-9 0 -16 9.5t-7 21.5q0 9 6 17q4 0 4 -1q0 -3 -7.5 -11t-7.5 -22t11 -30h32q-2 -2 -4 -5q-3 -5 -3 -12q0 -8 7 -15l16 111l-16 -15q0 89 5.5 164.5t14.5 142 t20 127.5t23 120l-222 -380l-15 16q72 131 133 247.5t121 211.5v17q-6 18 -7.5 24.5t-4.5 18.5t-10.5 36.5t-25.5 78.5q-8 17 -15.5 29t-7.5 26q0 11 7 24l79 207q6 12 10 18.5t7 11t6 8t9 9.5q12 0 24 8t24 8q18 0 18 19q0 11 -5.5 24.5t-12.5 20.5h-16l-16 -16v-16 q0 -12 -2 -16t-14 -16q-20 0 -36 7.5t-16 23.5q0 7 3.5 13.5t1.5 19.5q1 -2 6 -1t11 1t10.5 -3t4.5 -13q-8 -7 -15 -7q-8 0 -8 4q3 1 5 4q4 6 1 15q-11 -12 -13 -16t-2 -16q16 -7 22.5 2t9.5 22.5t5 26.5t10 13l16 31h-16l16 16h-16v16h-15v15q5 0 10.5 2.5t10.5 5.5 q5 4 10 9q12 11 14 15t2 17l16 47q18 24 33 42.5t28 36.5t25 36.5t24 42.5q0 13 2 26.5t15 37.5q0 12 2 16t13 15v13zM367 747q0 -6 9.5 -9t21.5 -5q14 -2 32 -2v32q-8 0 -15.5 3.5t-15.5 3.5q-9 -1 -16 -4q-6 -2 -11 -7t-5 -12zM462 890q12 -18 18.5 -50t9.5 -63 q4 -37 4 -77l63 205q13 24 15 46t2 34l-17 95q0 -16 3.5 -35.5t3.5 -39.5q0 -36 -11 -60.5t-11 -39.5q-6 -18 -9.5 -28t-6.5 -19l-6.5 -19.5l-9.5 -28.5q-6 24 -14 39.5t-16 24.5q-9 11 -18 16zM383 795q8 0 11 1t6.5 3t9.5 5t20 6v17q8 0 11.5 -0.5t4.5 -3.5t1 -9.5v-18.5 h32q-6 6 -10 14t-7 15.5t-6 12.5t-9 5h-17l-10 -8q-11 -7 -21 -7q-1 0 -4 -0.5t-6.5 -3.5t-5.5 -9.5t0 -18.5zM367 827l-32 -64l32 -16q0 12 2 21.5t14 9.5q9 0 19 -0.5t17.5 -3.5t11 -9.5t-0.5 -17.5q19 0 28.5 4t14 9t5.5 10t1 8q-6 6 -14.5 7t-16 1t-13 1.5t-5.5 7.5 l17 15v17q-9 -8 -12 -12.5t-20 -4.5q0 -8 -5 -15t-13 -7h-6t-5 3.5t-3 11.5t0 24h-16zM304 810q-38 58 -67 113.5t-29 108.5l17 95l-32 -78q-12 -24 -12 -48t12 -48l15 -31q24 -60 46 -109.5t34 -97.5l95 175z" />
<glyph unicode="x" horiz-adv-x="705" d="M462 1838q9 -42 20.5 -69.5t11.5 -53.5q12 -24 14 -40t2 -40q0 -6 -0.5 -16.5t-2 -22.5t-4.5 -23t-9 -17l-15 -143v-15q-5 -5 -5 -10q0 -6 6 -9.5t14 -3.5t16 6q0 -12 -10 -17.5t-22 -5.5q-11 0 -21 5.5t-10 17.5q0 -5 -0.5 -12.5t0 -14t4 -11.5t12.5 -5q6 0 11 3t5 9 q0 -8 -9 -15.5t-16 -7.5t-7 7v-32q24 0 37.5 -12t25.5 -36q24 48 48 86t47 73q10 20 26.5 36t35.5 16q12 0 20.5 -7.5t13.5 -17t7.5 -19.5t2.5 -16q0 -20 -6 -31t-15 -16t-19 -6.5t-18 -1.5t-15.5 5t-7.5 13q0 6 7 13l16 17q1 -2 3 -5q4 -6 4 -8q0 -4 -7 -4q0 -4 2 -8 q3 -7 14 -7q5 5 7.5 14t2.5 20q0 12 -4 21.5t-13 9.5q-11 0 -22 -12.5t-19 -20.5l-79 -159q-3 -11 -0.5 -19t8 -15.5t12 -14.5t12.5 -14l-32 -32l47 -127q4 -11 5 -21.5t2 -20.5q0 -24 -7 -46t-15 -39l-17 -80q6 -12 14.5 -21.5t16 -18t12.5 -18t5 -21.5q0 -17 -16 -30.5 t-39 -13.5q-9 0 -19 2.5t-21 10.5q6 -18 12 -31t13.5 -23.5t17 -20l21.5 -21.5q36 -30 60 -50.5t39 -42.5t21.5 -51.5t6.5 -77.5q-36 0 -72 -19.5t-72 -43.5q0 26 -2 51q-2 21 -5 42.5t-8 33.5q0 -18 -0.5 -42.5t-2 -47t-4.5 -38t-9 -15.5l-16 -47q13 -20 21.5 -44.5 t8.5 -44.5q0 -17 -7 -27.5t-23 -10.5q-11 -6 -21 -10.5t-18 -4.5q-11 0 -17.5 10t-6.5 36v96q-12 -12 -29 -19t-36.5 -13t-39.5 -13t-38 -19q7 27 7 52q0 29 -7.5 55t-15.5 52q3 -17 3 -35q0 -27 -6 -55t-14.5 -56t-17 -55.5t-13.5 -52.5q0 -36 -2 -69.5t-13 -57.5h-80 q-11 0 -15 9.5t-17 22.5q-23 23 -35 57t-12 70q7 0 11 3l8 6t10 6t16 3q13 0 22.5 -11t9.5 -26q0 -16 -13 -29q-9 0 -16 9.5t-7 21.5q0 9 6 17q4 0 4 -1q0 -3 -7.5 -11t-7.5 -22t11 -30h32q-2 -2 -4 -5q-3 -5 -3 -12q0 -8 7 -15l16 111l-16 -15q0 89 5.5 164.5t14.5 142 t20 127.5t23 120l-222 -380l-15 16q72 131 133 247.5t121 211.5v17q-6 18 -7.5 24.5t-4.5 18.5t-10.5 36.5t-25.5 78.5q-8 17 -15.5 29t-7.5 26q0 11 7 24l79 207q6 12 10 18.5t7 11t6 8t9 9.5q12 0 24 8t24 8q18 0 18 19q0 11 -5.5 24.5t-12.5 20.5h-16l-16 -16v-16 q0 -12 -2 -16t-14 -16q-20 0 -36 7.5t-16 23.5q0 7 3.5 13.5t1.5 19.5q1 -2 6 -1t11 1t10.5 -3t4.5 -13q-8 -7 -15 -7q-8 0 -8 4q3 1 5 4q4 6 1 15q-11 -12 -13 -16t-2 -16q16 -7 22.5 2t9.5 22.5t5 26.5t10 13l16 31h-16l16 16h-16v16h-15v15q5 0 10.5 2.5t10.5 5.5 q5 4 10 9q12 11 14 15t2 17l16 47q18 24 33 42.5t28 36.5t25 36.5t24 42.5q0 13 2 26.5t15 37.5q0 12 2 16t13 15v13zM367 747q0 -6 9.5 -9t21.5 -5q14 -2 32 -2v32q-8 0 -15.5 3.5t-15.5 3.5q-9 -1 -16 -4q-6 -2 -11 -7t-5 -12zM462 890q12 -18 18.5 -50t9.5 -63 q4 -37 4 -77l63 205q13 24 15 46t2 34l-17 95q0 -16 3.5 -35.5t3.5 -39.5q0 -36 -11 -60.5t-11 -39.5q-6 -18 -9.5 -28t-6.5 -19l-6.5 -19.5l-9.5 -28.5q-6 24 -14 39.5t-16 24.5q-9 11 -18 16zM383 795q8 0 11 1t6.5 3t9.5 5t20 6v17q8 0 11.5 -0.5t4.5 -3.5t1 -9.5v-18.5 h32q-6 6 -10 14t-7 15.5t-6 12.5t-9 5h-17l-10 -8q-11 -7 -21 -7q-1 0 -4 -0.5t-6.5 -3.5t-5.5 -9.5t0 -18.5zM367 827l-32 -64l32 -16q0 12 2 21.5t14 9.5q9 0 19 -0.5t17.5 -3.5t11 -9.5t-0.5 -17.5q19 0 28.5 4t14 9t5.5 10t1 8q-6 6 -14.5 7t-16 1t-13 1.5t-5.5 7.5 l17 15v17q-9 -8 -12 -12.5t-20 -4.5q0 -8 -5 -15t-13 -7h-6t-5 3.5t-3 11.5t0 24h-16zM304 810q-38 58 -67 113.5t-29 108.5l17 95l-32 -78q-12 -24 -12 -48t12 -48l15 -31q24 -60 46 -109.5t34 -97.5l95 175z" />
<glyph unicode="y" horiz-adv-x="708" d="M462 1838q9 -42 20.5 -69.5t11.5 -53.5q12 -24 14 -40t2 -40q0 -6 -0.5 -16.5t-2 -22.5t-4.5 -23t-9 -17l-15 -143v-15q-5 -5 -5 -10q0 -6 6 -9.5t14 -3.5t16 6q0 -12 -10 -17.5t-22 -5.5q-11 0 -21 5.5t-10 17.5q0 -5 -0.5 -12.5t0 -14t4 -11.5t12.5 -5q6 0 11 3t5 9 q0 -8 -9 -15.5t-16 -7.5t-7 7v-32q24 0 37.5 -12t25.5 -36q24 48 48 86t47 73q10 20 26.5 36t35.5 16q12 0 20.5 -7.5t13.5 -17t7.5 -19.5t2.5 -16q0 -20 -6 -31t-15 -16t-19 -6.5t-18 -1.5t-15.5 5t-7.5 13q0 6 7 13l16 17q1 -2 3 -5q4 -6 4 -8q0 -4 -7 -4q0 -4 2 -8 q3 -7 14 -7q5 5 7.5 14t2.5 20q0 12 -4 21.5t-13 9.5q-11 0 -22 -12.5t-19 -20.5l-79 -159q-3 -11 -0.5 -19t8 -15.5t12 -14.5t12.5 -14l-32 -32l47 -127q4 -11 5 -21.5t2 -20.5q0 -24 -7 -46t-15 -39l-17 -80q6 -12 14.5 -21.5t16 -18t12.5 -18t5 -21.5q0 -17 -16 -30.5 t-39 -13.5q-9 0 -19 2.5t-21 10.5q6 -18 12 -31t13.5 -23.5t17 -20l21.5 -21.5q36 -30 60 -50.5t39 -42.5t21.5 -51.5t6.5 -77.5q-36 0 -72 -19.5t-72 -43.5q0 26 -2 51q-2 21 -5 42.5t-8 33.5q0 -18 -0.5 -42.5t-2 -47t-4.5 -38t-9 -15.5l-16 -47q13 -20 21.5 -44.5 t8.5 -44.5q0 -17 -7 -27.5t-23 -10.5q-11 -6 -21 -10.5t-18 -4.5q-11 0 -17.5 10t-6.5 36v96q-12 -12 -29 -19t-36.5 -13t-39.5 -13t-38 -19q7 27 7 52q0 29 -7.5 55t-15.5 52q3 -17 3 -35q0 -27 -6 -55t-14.5 -56t-17 -55.5t-13.5 -52.5q0 -36 -2 -69.5t-13 -57.5h-80 q-11 0 -15 9.5t-17 22.5q-23 23 -35 57t-12 70q7 0 11 3l8 6t10 6t16 3q13 0 22.5 -11t9.5 -26q0 -16 -13 -29q-9 0 -16 9.5t-7 21.5q0 9 6 17q4 0 4 -1q0 -3 -7.5 -11t-7.5 -22t11 -30h32q-2 -2 -4 -5q-3 -5 -3 -12q0 -8 7 -15l16 111l-16 -15q0 89 5.5 164.5t14.5 142 t20 127.5t23 120l-222 -380l-15 16q72 131 133 247.5t121 211.5v17q-6 18 -7.5 24.5t-4.5 18.5t-10.5 36.5t-25.5 78.5q-8 17 -15.5 29t-7.5 26q0 11 7 24l79 207q6 12 10 18.5t7 11t6 8t9 9.5q12 0 24 8t24 8q18 0 18 19q0 11 -5.5 24.5t-12.5 20.5h-16l-16 -16v-16 q0 -12 -2 -16t-14 -16q-20 0 -36 7.5t-16 23.5q0 7 3.5 13.5t1.5 19.5q1 -2 6 -1t11 1t10.5 -3t4.5 -13q-8 -7 -15 -7q-8 0 -8 4q3 1 5 4q4 6 1 15q-11 -12 -13 -16t-2 -16q16 -7 22.5 2t9.5 22.5t5 26.5t10 13l16 31h-16l16 16h-16v16h-15v15q5 0 10.5 2.5t10.5 5.5 q5 4 10 9q12 11 14 15t2 17l16 47q18 24 33 42.5t28 36.5t25 36.5t24 42.5q0 13 2 26.5t15 37.5q0 12 2 16t13 15v13zM367 747q0 -6 9.5 -9t21.5 -5q14 -2 32 -2v32q-8 0 -15.5 3.5t-15.5 3.5q-9 -1 -16 -4q-6 -2 -11 -7t-5 -12zM462 890q12 -18 18.5 -50t9.5 -63 q4 -37 4 -77l63 205q13 24 15 46t2 34l-17 95q0 -16 3.5 -35.5t3.5 -39.5q0 -36 -11 -60.5t-11 -39.5q-6 -18 -9.5 -28t-6.5 -19l-6.5 -19.5l-9.5 -28.5q-6 24 -14 39.5t-16 24.5q-9 11 -18 16zM383 795q8 0 11 1t6.5 3t9.5 5t20 6v17q8 0 11.5 -0.5t4.5 -3.5t1 -9.5v-18.5 h32q-6 6 -10 14t-7 15.5t-6 12.5t-9 5h-17l-10 -8q-11 -7 -21 -7q-1 0 -4 -0.5t-6.5 -3.5t-5.5 -9.5t0 -18.5zM367 827l-32 -64l32 -16q0 12 2 21.5t14 9.5q9 0 19 -0.5t17.5 -3.5t11 -9.5t-0.5 -17.5q19 0 28.5 4t14 9t5.5 10t1 8q-6 6 -14.5 7t-16 1t-13 1.5t-5.5 7.5 l17 15v17q-9 -8 -12 -12.5t-20 -4.5q0 -8 -5 -15t-13 -7h-6t-5 3.5t-3 11.5t0 24h-16zM304 810q-38 58 -67 113.5t-29 108.5l17 95l-32 -78q-12 -24 -12 -48t12 -48l15 -31q24 -60 46 -109.5t34 -97.5l95 175z" />
<glyph unicode="z" horiz-adv-x="712" d="M462 1838q9 -42 20.5 -69.5t11.5 -53.5q12 -24 14 -40t2 -40q0 -6 -0.5 -16.5t-2 -22.5t-4.5 -23t-9 -17l-15 -143v-15q-5 -5 -5 -10q0 -6 6 -9.5t14 -3.5t16 6q0 -12 -10 -17.5t-22 -5.5q-11 0 -21 5.5t-10 17.5q0 -5 -0.5 -12.5t0 -14t4 -11.5t12.5 -5q6 0 11 3t5 9 q0 -8 -9 -15.5t-16 -7.5t-7 7v-32q24 0 37.5 -12t25.5 -36q24 48 48 86t47 73q10 20 26.5 36t35.5 16q12 0 20.5 -7.5t13.5 -17t7.5 -19.5t2.5 -16q0 -20 -6 -31t-15 -16t-19 -6.5t-18 -1.5t-15.5 5t-7.5 13q0 6 7 13l16 17q1 -2 3 -5q4 -6 4 -8q0 -4 -7 -4q0 -4 2 -8 q3 -7 14 -7q5 5 7.5 14t2.5 20q0 12 -4 21.5t-13 9.5q-11 0 -22 -12.5t-19 -20.5l-79 -159q-3 -11 -0.5 -19t8 -15.5t12 -14.5t12.5 -14l-32 -32l47 -127q4 -11 5 -21.5t2 -20.5q0 -24 -7 -46t-15 -39l-17 -80q6 -12 14.5 -21.5t16 -18t12.5 -18t5 -21.5q0 -17 -16 -30.5 t-39 -13.5q-9 0 -19 2.5t-21 10.5q6 -18 12 -31t13.5 -23.5t17 -20l21.5 -21.5q36 -30 60 -50.5t39 -42.5t21.5 -51.5t6.5 -77.5q-36 0 -72 -19.5t-72 -43.5q0 26 -2 51q-2 21 -5 42.5t-8 33.5q0 -18 -0.5 -42.5t-2 -47t-4.5 -38t-9 -15.5l-16 -47q13 -20 21.5 -44.5 t8.5 -44.5q0 -17 -7 -27.5t-23 -10.5q-11 -6 -21 -10.5t-18 -4.5q-11 0 -17.5 10t-6.5 36v96q-12 -12 -29 -19t-36.5 -13t-39.5 -13t-38 -19q7 27 7 52q0 29 -7.5 55t-15.5 52q3 -17 3 -35q0 -27 -6 -55t-14.5 -56t-17 -55.5t-13.5 -52.5q0 -36 -2 -69.5t-13 -57.5h-80 q-11 0 -15 9.5t-17 22.5q-23 23 -35 57t-12 70q7 0 11 3l8 6t10 6t16 3q13 0 22.5 -11t9.5 -26q0 -16 -13 -29q-9 0 -16 9.5t-7 21.5q0 9 6 17q4 0 4 -1q0 -3 -7.5 -11t-7.5 -22t11 -30h32q-2 -2 -4 -5q-3 -5 -3 -12q0 -8 7 -15l16 111l-16 -15q0 89 5.5 164.5t14.5 142 t20 127.5t23 120l-222 -380l-15 16q72 131 133 247.5t121 211.5v17q-6 18 -7.5 24.5t-4.5 18.5t-10.5 36.5t-25.5 78.5q-8 17 -15.5 29t-7.5 26q0 11 7 24l79 207q6 12 10 18.5t7 11t6 8t9 9.5q12 0 24 8t24 8q18 0 18 19q0 11 -5.5 24.5t-12.5 20.5h-16l-16 -16v-16 q0 -12 -2 -16t-14 -16q-20 0 -36 7.5t-16 23.5q0 7 3.5 13.5t1.5 19.5q1 -2 6 -1t11 1t10.5 -3t4.5 -13q-8 -7 -15 -7q-8 0 -8 4q3 1 5 4q4 6 1 15q-11 -12 -13 -16t-2 -16q16 -7 22.5 2t9.5 22.5t5 26.5t10 13l16 31h-16l16 16h-16v16h-15v15q5 0 10.5 2.5t10.5 5.5 q5 4 10 9q12 11 14 15t2 17l16 47q18 24 33 42.5t28 36.5t25 36.5t24 42.5q0 13 2 26.5t15 37.5q0 12 2 16t13 15v13zM367 747q0 -6 9.5 -9t21.5 -5q14 -2 32 -2v32q-8 0 -15.5 3.5t-15.5 3.5q-9 -1 -16 -4q-6 -2 -11 -7t-5 -12zM462 890q12 -18 18.5 -50t9.5 -63 q4 -37 4 -77l63 205q13 24 15 46t2 34l-17 95q0 -16 3.5 -35.5t3.5 -39.5q0 -36 -11 -60.5t-11 -39.5q-6 -18 -9.5 -28t-6.5 -19l-6.5 -19.5l-9.5 -28.5q-6 24 -14 39.5t-16 24.5q-9 11 -18 16zM383 795q8 0 11 1t6.5 3t9.5 5t20 6v17q8 0 11.5 -0.5t4.5 -3.5t1 -9.5v-18.5 h32q-6 6 -10 14t-7 15.5t-6 12.5t-9 5h-17l-10 -8q-11 -7 -21 -7q-1 0 -4 -0.5t-6.5 -3.5t-5.5 -9.5t0 -18.5zM367 827l-32 -64l32 -16q0 12 2 21.5t14 9.5q9 0 19 -0.5t17.5 -3.5t11 -9.5t-0.5 -17.5q19 0 28.5 4t14 9t5.5 10t1 8q-6 6 -14.5 7t-16 1t-13 1.5t-5.5 7.5 l17 15v17q-9 -8 -12 -12.5t-20 -4.5q0 -8 -5 -15t-13 -7h-6t-5 3.5t-3 11.5t0 24h-16zM304 810q-38 58 -67 113.5t-29 108.5l17 95l-32 -78q-12 -24 -12 -48t12 -48l15 -31q24 -60 46 -109.5t34 -97.5l95 175z" />
<glyph unicode="{" horiz-adv-x="983" d="M841 -407v-35q-167 23 -271.5 135.5t-104.5 249.5q0 72 23 167.5t23 148.5q0 72 -60.5 134.5t-167.5 76.5v41q107 14 167.5 76t60.5 135q0 53 -23 148t-23 168q0 136 104.5 249t271.5 135v-35q-117 -28 -171.5 -91.5t-54.5 -139.5q0 -59 22.5 -155.5t22.5 -164.5 q0 -101 -74 -196t-221 -147q144 -53 219.5 -150t75.5 -198q0 -68 -22.5 -164.5t-22.5 -155.5q0 -76 54.5 -139.5t171.5 -92.5z" />
<glyph unicode="|" horiz-adv-x="410" d="M244 1422v-1864h-83v1864h83z" />
<glyph unicode="}" horiz-adv-x="983" d="M177 1387v35q167 -22 271.5 -134.5t104.5 -250.5q0 -72 -23 -167t-23 -148q0 -72 60.5 -134.5t167.5 -76.5v-41q-107 -14 -167.5 -76.5t-60.5 -134.5q0 -53 23 -148.5t23 -167.5q0 -136 -104.5 -249t-271.5 -136v35q117 29 171.5 92t54.5 140q0 59 -23 155.5t-23 163.5 q0 102 74.5 197t221.5 147q-144 53 -220 150t-76 198q0 68 23 164.5t23 155.5q0 76 -54.5 139.5t-171.5 91.5z" />
<glyph unicode="~" horiz-adv-x="1108" d="M1066 675h45q-4 -130 -74 -203.5t-171 -73.5q-46 0 -99 15.5t-274 105.5q-154 64 -219 64q-70 0 -118 -43t-68 -140h-44q6 135 74 206.5t160 71.5q44 0 90 -14q104 -30 273.5 -102.5t238.5 -72.5q75 0 126 48t60 138z" />
<glyph unicode="&#xa1;" horiz-adv-x="682" d="M342 974q47 0 79 -32.5t32 -78.5t-32.5 -78t-78.5 -32t-78 32t-32 78t32 78.5t78 32.5zM322 587h38l89 -810q5 -53 5 -79q0 -63 -33.5 -101.5t-79.5 -38.5q-47 0 -80 38t-33 114q0 24 5 67z" />
<glyph unicode="&#xa2;" d="M900 349q-47 -188 -163 -292q-90 -81 -221 -81q-81 0 -162 35l-142 -390h-70l155 427q-81 76 -117 154q-51 110 -51 250q0 254 157 390q120 105 273 105q20 0 61 -4l140 383h72l-145 -402q101 -45 138 -87q48 -54 48 -115q0 -39 -24 -62t-70 -23q-55 0 -86 38 q-18 22 -26 82q-4 31 -17 65l-228 -631q56 -38 94 -51q28 -10 69 -10q61 0 117 25.5t85 60t83 146.5zM370 250l223 615q-28 12 -60 12q-102 0 -162 -74q-82 -100 -82 -268q0 -75 17.5 -138t63.5 -147z" />
<glyph unicode="&#xa3;" d="M723 659h-258q1 -46 1 -68q0 -94 -13.5 -174t-48.5 -184q196 -63 224 -69q52 -12 102 -12q83 0 135 38.5t76 121.5l36 -9q-21 -161 -103.5 -244t-183.5 -83q-68 0 -123 24.5t-203 135.5q-40 -80 -86.5 -120t-99.5 -40q-50 0 -83.5 34.5t-33.5 94.5q0 67 46 111.5 t118 44.5q17 0 38 -2t47 -6q2 26 2.5 45t0.5 32q0 88 -21 329h-194v95h194q-13 149 -13 199q0 122 49 223t135.5 154.5t185.5 53.5q126 0 189.5 -68t63.5 -136q0 -32 -24.5 -57t-53.5 -25q-38 0 -63 38q-11 18 -15 77.5t-34 87.5q-31 28 -87 28q-79 0 -130.5 -62t-51.5 -218 q0 -73 12 -187q7 -75 10 -108h258v-95zM298 172q-22 14 -43 21t-42 7q-45 0 -70 -24.5t-25 -63.5q0 -36 19.5 -57t45.5 -21q33 0 64.5 31t50.5 107z" />
<glyph unicode="&#xa4;" d="M794 1019l143 142l58 -57l-144 -141q103 -132 103 -281q0 -154 -103 -284l144 -145l-58 -55l-143 143q-134 -103 -270 -103q-88 0 -171.5 30.5t-123.5 72.5l-146 -143l-56 55l144 145q-102 117 -102 282q0 157 102 283l-144 141l56 57l146 -142q52 45 132 73.5t153 28.5 q69 0 145.5 -26t134.5 -76zM512 1040q-151 0 -256.5 -106.5t-105.5 -256.5q0 -147 106 -253t255 -106t256 107t107 254q0 91 -49 179t-135 135t-178 47z" />
<glyph unicode="&#xa5;" d="M597 425h426v-73h-426v-108q0 -112 11 -143q9 -22 34 -38q37 -22 85 -22h41v-41h-515v41h32q70 0 104 26q24 19 33 57q4 19 4 120v108h-424v73h424v144l-15 36h-409v73h377l-213 496q-37 87 -72.5 115t-91.5 29v38h442v-38q-72 -5 -96.5 -23t-24.5 -39q0 -16 18 -59 l214 -519l213 504q21 50 21 75q0 21 -21 41q-14 13 -64 17q-9 0 -27 3v38h346v-38q-60 0 -87 -23q-43 -35 -86 -132l-214 -485h387v-73h-419l-7 -16v-164z" />
<glyph unicode="&#xa6;" horiz-adv-x="410" d="M244 1422v-742h-83v742h83zM244 300v-742h-83v742h83z" />
<glyph unicode="&#xa7;" d="M377 843q-67 74 -95.5 135t-28.5 124q0 117 82 199.5t202 82.5q110 0 181.5 -67t71.5 -153q0 -39 -26 -69q-19 -21 -53 -21t-56 23t-22 54q0 15 8 53q5 23 5 43q0 41 -29 68t-80 27q-73 0 -123.5 -51t-50.5 -124q0 -64 27 -106q45 -70 151 -147q201 -145 275 -260 q52 -82 52 -172q0 -91 -53 -182t-168 -160q70 -77 96.5 -133t26.5 -121q0 -122 -82 -204t-202 -82q-108 0 -179.5 68.5t-71.5 156.5q0 37 23.5 62.5t54.5 25.5t53 -23.5t22 -63.5q0 -27 -8 -59.5t-8 -49.5q0 -29 25 -48q39 -30 95 -30q67 0 121.5 52t54.5 113q0 62 -31 111 q-48 75 -174 170q-188 140 -256 247q-51 81 -51 172q0 92 54 181.5t167 157.5zM409 812q-151 -91 -151 -222q0 -70 37 -129q52 -81 197 -191q70 -53 122 -101q153 93 153 220q0 65 -44 135.5t-181 177.5q-82 63 -133 110z" />
<glyph unicode="&#xa8;" horiz-adv-x="682" d="M518 1337q45 0 76.5 -32t31.5 -77t-31.5 -76.5t-76.5 -31.5t-77 31.5t-32 76.5t32 77t77 32zM165 1337q46 0 77.5 -32t31.5 -77t-32 -76.5t-76 -31.5q-45 0 -77 31.5t-32 76.5t31.5 77t76.5 32z" />
<glyph unicode="&#xa9;" horiz-adv-x="1556" d="M778 1387q179 0 349 -91.5t265.5 -262t95.5 -355.5q0 -184 -94 -353t-263 -262.5t-353 -93.5t-352.5 93.5t-262.5 262.5t-94 353q0 185 95.5 355.5t265.5 262t348 91.5zM778 1326q-163 0 -318 -84t-242 -239.5t-87 -324.5q0 -168 85.5 -322t239.5 -240t322 -86t322.5 86 t240 240t85.5 322q0 169 -87 324.5t-242 239.5t-319 84zM1129 1134l20 -280h-39q-36 119 -114.5 177.5t-188.5 58.5q-82 0 -146 -34t-105 -91q-30 -43 -50 -114t-20 -150q0 -212 91 -312.5t240 -100.5q195 0 312 162l37 -19q-139 -203 -383 -203q-200 0 -331.5 129.5 t-131.5 314.5q0 192 140 327.5t358 135.5q46 0 76.5 -6t108.5 -32q25 -8 37 -8q16 0 27 8.5t22 36.5h40z" />
<glyph unicode="&#xaa;" horiz-adv-x="565" d="M340 1180q0 109 -26.5 142.5t-79.5 33.5q-48 0 -71 -21.5t-23 -67.5q0 -45 -16.5 -65.5t-41.5 -20.5q-23 0 -39.5 17t-16.5 43q0 55 56.5 99t177.5 44q92 0 141.5 -31t63 -64t13.5 -109v-218q0 -53 2 -61q3 -13 11 -20q7 -6 13 -6q14 0 58 30v-48q-73 -53 -98 -63.5 t-51 -10.5q-25 0 -44.5 20.5t-28.5 74.5q-63 -45 -117 -68t-98 -23q-53 0 -92 38t-39 86q0 44 22 77q30 46 107 93q52 31 217 99zM340 1142q-120 -40 -163.5 -88t-43.5 -96q0 -34 25.5 -60t63.5 -26q22 0 51.5 11t66.5 33v226z" />
<glyph unicode="&#xab;" d="M508 -8h-57l-387 472l387 470h57l-244 -470zM960 -8h-58l-394 472l394 470h58l-243 -470z" />
<glyph unicode="&#xac;" horiz-adv-x="1155" d="M36 878h1080v-406h-79v325h-1001v81z" />
<glyph unicode="&#xad;" horiz-adv-x="682" d="M83 535h517v-151h-517v151z" />
<glyph unicode="&#xae;" horiz-adv-x="1556" d="M778 1387q179 0 349 -91.5t265.5 -262t95.5 -355.5q0 -184 -94 -353t-263 -262.5t-353 -93.5t-352.5 93.5t-262.5 262.5t-94 353q0 185 95.5 355.5t265.5 262t348 91.5zM778 1326q-163 0 -318 -84t-242 -239.5t-87 -324.5q0 -168 85.5 -322t239.5 -240t322 -86t322.5 86 t240 240t85.5 322q0 169 -87 324.5t-242 239.5t-319 84zM386 1114h386q145 0 221 -65.5t76 -158.5q0 -76 -51.5 -133.5t-170.5 -88.5l209 -298q38 -53 68 -73q19 -12 53 -15v-33h-184l-294 405h-76v-309q6 -33 28.5 -48t89.5 -15v-33h-367v33q48 0 68 11.5t29 33.5 q7 16 7 93v523q0 74 -3 87q-7 23 -25.5 35.5t-63.5 12.5v36zM623 697q118 0 172.5 23t83.5 64.5t29 94.5q0 81 -56.5 136t-144.5 55q-38 0 -84 -16v-357z" />
<glyph unicode="&#xaf;" d="M1042 1462h-1059v84h1059v-84z" />
<glyph unicode="&#xb0;" horiz-adv-x="819" d="M405 1386q129 0 218.5 -90t89.5 -218q0 -127 -90 -217t-218 -90q-127 0 -217 90t-90 217q0 128 89.5 218t217.5 90zM405 1302q-93 0 -158 -65t-65 -158q0 -92 65 -157.5t158 -65.5q92 0 157.5 65.5t65.5 157.5q0 93 -65 158t-158 65z" />
<glyph unicode="&#xb1;" horiz-adv-x="1124" d="M23 141v81h498v418h-498v82h498v497h80v-497h500v-82h-500v-418h501v-81h-1079z" />
<glyph unicode="&#xb2;" horiz-adv-x="614" d="M575 816l-61 -152h-494v29q247 192 328 313q50 74 50 143q0 61 -41.5 102.5t-104.5 41.5q-57 0 -100 -29.5t-65 -88.5h-45q14 98 77.5 153.5t164.5 55.5q106 0 172.5 -58t66.5 -130q0 -66 -48 -141q-75 -117 -295 -295h186q87 0 115.5 12t48.5 44h45z" />
<glyph unicode="&#xb3;" horiz-adv-x="614" d="M55 1229q36 74 81 108q64 47 149 47q92 0 145 -46t53 -101q0 -68 -105 -155q72 -26 108.5 -74.5t36.5 -107.5q0 -103 -85.5 -177t-246.5 -74q-84 0 -121 24q-26 17 -26 39q0 17 16.5 31t42.5 14q28 0 81 -24t91 -24q56 0 96 39.5t40 92.5q0 45 -26.5 86t-68.5 57 q-60 23 -107 23h-30v28q77 0 129.5 47t52.5 108q0 49 -33 80t-88 31q-85 0 -147 -88z" />
<glyph unicode="&#xb4;" horiz-adv-x="682" d="M565 1390l-295 -345h-34l105 345h224z" />
<glyph unicode="&#xb5;" horiz-adv-x="1180" d="M196 916h164v-533q0 -145 18 -198q13 -40 48 -65t76 -25q118 0 236 134v687h165v-654q0 -100 8 -131q7 -24 24 -37.5t36 -13.5q26 0 44 22q26 31 37 102h42q-9 -121 -63 -176.5t-135 -55.5q-78 0 -120 58q-30 43 -38 132q-87 -102 -162 -146t-152 -44q-53 0 -92 21 q-28 16 -63 64q-1 -31 -1 -46q0 -79 34 -239q13 -61 13 -104q0 -48 -28 -79t-66 -31q-37 0 -62 29t-25 80q0 46 29 165q20 80 22 104q12 103 12 179q0 5 -1 75v726z" />
<glyph unicode="&#xb6;" horiz-adv-x="928" d="M798 1301v-1743h-72v1743h-187v-1743h-73v1043q-191 8 -285.5 50.5t-144.5 131t-50 198.5t43 180q58 96 154.5 145.5t252.5 49.5h495v-55h-133z" />
<glyph unicode="&#xb7;" horiz-adv-x="512" d="M256 789q47 0 79 -32.5t32 -78.5t-32.5 -78.5t-78.5 -32.5t-78.5 32.5t-32.5 78.5t32.5 78.5t78.5 32.5z" />
<glyph unicode="&#xb8;" horiz-adv-x="682" d="M361 16h60l-50 -79q63 -16 94 -54t31 -92q0 -72 -60 -126.5t-155 -54.5q-37 0 -94 7v43q28 -4 48 -4q51 0 86 33.5t35 76.5q0 30 -23 52t-57 22q-10 0 -26 -2z" />
<glyph unicode="&#xb9;" horiz-adv-x="614" d="M136 1297l205 87h35v-592q0 -60 6 -74q5 -9 16 -14q16 -8 79 -8v-32h-325v32q64 0 80 7q12 5 17 16t5 73v374q0 71 -5 94q-3 16 -10.5 22.5t-19.5 6.5q-20 0 -67 -20z" />
<glyph unicode="&#xba;" horiz-adv-x="635" d="M324 1384q124 0 205.5 -84.5t81.5 -208.5t-89 -214t-211 -90q-118 0 -200 81.5t-82 206.5q0 138 82.5 223.5t212.5 85.5zM296 1341q-52 0 -89 -45t-37 -143q0 -159 69 -258q39 -57 102 -57q57 0 94.5 44.5t37.5 140.5q0 157 -71 256q-44 62 -106 62z" />
<glyph unicode="&#xbb;" d="M516 934h57l387 -472l-387 -470h-57l244 470zM64 934h58l394 -472l-394 -470h-58l243 470z" />
<glyph unicode="&#xbc;" horiz-adv-x="1536" d="M134 1297l205 87h35v-592q0 -60 6 -74q5 -9 16 -14q16 -8 79 -8v-32h-325v32q64 0 80 7q12 5 17 16t5 73v374q0 71 -5 94q-3 16 -10.5 22.5t-19.5 6.5q-20 0 -67 -20zM1292 1384l-934 -1438h-90l935 1438h89zM1501 224v-81h-108v-183h-117v183h-343v73l376 465h84v-457 h108zM1276 224v316l-260 -316h260z" />
<glyph unicode="&#xbd;" horiz-adv-x="1536" d="M134 1297l205 87h35v-592q0 -60 6 -74q5 -9 16 -14q16 -8 79 -8v-32h-325v32q64 0 80 7q12 5 17 16t5 73v374q0 71 -5 94q-3 16 -10.5 22.5t-19.5 6.5q-20 0 -67 -20zM1268 1384l-935 -1438h-89l935 1438h89zM1494 113l-61 -153h-494v30q247 192 328 313q50 74 50 143 q0 61 -41.5 102.5t-104.5 41.5q-57 0 -100 -29.5t-65 -88.5h-45q14 97 77.5 153t164.5 56q106 0 172.5 -58.5t66.5 -129.5q0 -66 -48 -142q-75 -116 -295 -294h187q86 0 114.5 11.5t48.5 44.5h45z" />
<glyph unicode="&#xbe;" horiz-adv-x="1536" d="M1277 1384l-931 -1438h-90l935 1438h86zM53 1229q36 74 81 108q64 47 149 47q92 0 145 -46t53 -101q0 -68 -105 -155q72 -26 108.5 -74.5t36.5 -107.5q0 -103 -85.5 -177t-246.5 -74q-84 0 -121 24q-26 17 -26 39q0 17 16.5 31t42.5 14q28 0 81 -24t91 -24q56 0 96 39.5 t40 92.5q0 72 -56.5 120t-175.5 46v28q77 0 129.5 47t52.5 108q0 49 -33 80t-88 31q-85 0 -147 -88zM1501 224v-81h-108v-183h-116v183h-344v73l376 465h84v-457h108zM1277 224v316l-260 -316h260z" />
<glyph unicode="&#xbf;" horiz-adv-x="909" d="M452 975q46 0 78.5 -32.5t32.5 -78.5t-32.5 -78.5t-78.5 -32.5t-78.5 32.5t-32.5 78.5t32.5 78.5t78.5 32.5zM441 626h39q-5 -124 -24.5 -196.5t-102 -246.5t-82.5 -289q0 -132 66 -204t170 -72q87 0 137 41t50 90q0 31 -31 84.5t-31 85.5q0 34 24 57.5t57 23.5 q41 0 76 -41.5t35 -110.5q0 -115 -97.5 -202.5t-266.5 -87.5q-170 0 -270.5 93.5t-100.5 223.5q0 83 29 152q43 98 150 221.5t137 191.5t36 186z" />
<glyph unicode="&#xc0;" horiz-adv-x="1479" d="M128 0zM1452 -1q-14 0 -34 -1.5t-44 -1.5q-39 0 -86 8t-95 35t-93.5 78t-81.5 138l-339 812l-192 -438q22 19 60.5 27.5t83.5 8.5q53 0 104.5 -11t82.5 -30q-61 -2 -115 -18t-100.5 -41t-86 -57.5t-71 -67t-55 -69t-38.5 -64.5l-131 -308h-93l587 1380h38l466 -1124 q25 -58 47 -98t47.5 -65.5t58 -38.5t80.5 -17v-37zM513 1797h223l106 -345h-35z" />
<glyph unicode="&#xc1;" horiz-adv-x="1479" d="M128 0zM1452 -1q-14 0 -34 -1.5t-44 -1.5q-39 0 -86 8t-95 35t-93.5 78t-81.5 138l-339 812l-192 -438q22 19 60.5 27.5t83.5 8.5q53 0 104.5 -11t82.5 -30q-61 -2 -115 -18t-100.5 -41t-86 -57.5t-71 -67t-55 -69t-38.5 -64.5l-131 -308h-93l587 1380h38l466 -1124 q25 -58 47 -98t47.5 -65.5t58 -38.5t80.5 -17v-37zM959 1797l-295 -345h-34l105 345h224z" />
<glyph unicode="&#xc2;" horiz-adv-x="1479" d="M128 0zM1452 -1q-14 0 -34 -1.5t-44 -1.5q-39 0 -86 8t-95 35t-93.5 78t-81.5 138l-339 812l-192 -438q22 19 60.5 27.5t83.5 8.5q53 0 104.5 -11t82.5 -30q-61 -2 -115 -18t-100.5 -41t-86 -57.5t-71 -67t-55 -69t-38.5 -64.5l-131 -308h-93l587 1380h38l466 -1124 q25 -58 47 -98t47.5 -65.5t58 -38.5t80.5 -17v-37zM643 1793h184l190 -331h-31l-273 213l-229 -213h-30z" />
<glyph unicode="&#xc3;" horiz-adv-x="1479" d="M128 0zM1452 -1q-14 0 -34 -1.5t-44 -1.5q-39 0 -86 8t-95 35t-93.5 78t-81.5 138l-339 812l-192 -438q22 19 60.5 27.5t83.5 8.5q53 0 104.5 -11t82.5 -30q-61 -2 -115 -18t-100.5 -41t-86 -57.5t-71 -67t-55 -69t-38.5 -64.5l-131 -308h-93l587 1380h38l466 -1124 q25 -58 47 -98t47.5 -65.5t58 -38.5t80.5 -17v-37zM449 1465h-32q4 137 57 198t131 61q41 0 75 -13q45 -17 127.5 -71.5t122.5 -54.5q32 0 56.5 27t38.5 112h31q1 -93 -24.5 -147.5t-72 -85t-93.5 -30.5q-79 0 -196 80q-63 43 -85 52t-43 9q-41 0 -65 -36q-11 -17 -28 -101z " />
<glyph unicode="&#xc4;" horiz-adv-x="1479" d="M128 0zM1452 -1q-14 0 -34 -1.5t-44 -1.5q-39 0 -86 8t-95 35t-93.5 78t-81.5 138l-339 812l-192 -438q22 19 60.5 27.5t83.5 8.5q53 0 104.5 -11t82.5 -30q-61 -2 -115 -18t-100.5 -41t-86 -57.5t-71 -67t-55 -69t-38.5 -64.5l-131 -308h-93l587 1380h38l466 -1124 q25 -58 47 -98t47.5 -65.5t58 -38.5t80.5 -17v-37zM911 1708q45 0 76.5 -32t31.5 -77t-31.5 -76.5t-76.5 -31.5t-77 31.5t-32 76.5t32 77t77 32zM558 1708q46 0 77.5 -32t31.5 -77t-32 -76.5t-76 -31.5q-45 0 -77 31.5t-32 76.5t31.5 77t76.5 32z" />
<glyph unicode="&#xc5;" horiz-adv-x="1479" d="M731 1701q80 0 136 -56t56 -135q0 -80 -56 -136t-136 -56q-79 0 -135 56t-56 136q0 79 55.5 135t135.5 56zM731 1632q-51 0 -86.5 -35.5t-35.5 -86.5q0 -50 35.5 -86t86.5 -36t86.5 36t35.5 86q0 51 -35.5 86.5t-86.5 35.5zM1452 -1q-14 0 -34 -1.5t-44 -1.5q-39 0 -86 8 t-95 35t-93.5 78t-81.5 138l-339 812l-192 -438q22 19 60.5 27.5t83.5 8.5q53 0 104.5 -11t82.5 -30q-61 -2 -115 -18t-100.5 -41t-86 -57.5t-71 -67t-55 -69t-38.5 -64.5l-131 -308h-93l587 1380h38l466 -1124q25 -58 47 -98t47.5 -65.5t58 -38.5t80.5 -17v-37z" />
<glyph unicode="&#xc6;" horiz-adv-x="1821" d="M1027 1282v-536h257q115 0 162 43t55 154h36v-471h-36q-12 100 -32.5 134.5t-68.5 55.5q-23 11 -116 11h-257v-449q0 -91 7 -108.5t29 -29.5t79 -12h182q109 0 168 18t114 70q73 68 120 179h38l-108 -341h-1018v37h51q83 0 122 49q24 32 24 153v286h-396l-124 -233 q-70 -132 -70 -173q0 -28 30.5 -51.5t126.5 -30.5v-37h-426v37q44 1 75.5 19t68.5 65t94 153l412 771q77 143 77 193q0 32 -27 50q-34 25 -146 31v37h1111l15 -298h-34q-13 103 -50 157q-27 39 -78 57q-29 10 -136 10h-331zM835 1282l-357 -684h357v684z" />
<glyph unicode="&#xc7;" horiz-adv-x="1366" d="M87 0zM1230 926q-62 202 -173 294t-274 92q-92 0 -177 -35t-151 -113t-105.5 -204t-39.5 -308q0 -89 14.5 -168t43.5 -146t74 -119.5t106 -86.5q56 -39 121 -57t142 -18q69 0 126 13t109.5 45.5t103.5 86t108 134.5l33 -18q-50 -94 -109 -160t-128 -108t-148 -61.5 t-169 -19.5q-334 0 -516 251q-67 91 -100.5 200.5t-33.5 236.5q0 103 24 197t67.5 175t105 147t136.5 113t162.5 72.5t182.5 25.5q28 0 69 -6t87 -17t94 -27t89.5 -36t74 -43t47.5 -49t21.5 -62.5t8.5 -76t1.5 -77.5t0.5 -67h-28zM698 16h60l-50 -79q63 -16 94 -54t31 -92 q0 -72 -60 -126.5t-155 -54.5q-37 0 -94 7v43q28 -4 48 -4q51 0 86 33.5t35 76.5q0 30 -23 52t-57 22q-10 0 -26 -2z" />
<glyph unicode="&#xc8;" horiz-adv-x="1251" d="M46 4zM427 1280v-533h537v-74h-537v-446q0 -45 1.5 -70t6 -38.5t11.5 -19.5t18 -12q7 -3 26.5 -6t47.5 -3h227q58 0 96 2.5t66 11t50 24t48 41.5q32 32 63 77t62 108h42l-116 -338h-840v1114q0 66 -4.5 104.5t-18.5 52.5q-35 43 -120 43h-47v36h1030v-296h-23 q-15 72 -30.5 115.5t-43 67t-71.5 31.5t-115 8h-366zM406 1797h223l106 -345h-35z" />
<glyph unicode="&#xc9;" horiz-adv-x="1251" d="M46 4zM427 1280v-533h537v-74h-537v-446q0 -45 1.5 -70t6 -38.5t11.5 -19.5t18 -12q7 -3 26.5 -6t47.5 -3h227q58 0 96 2.5t66 11t50 24t48 41.5q32 32 63 77t62 108h42l-116 -338h-840v1114q0 66 -4.5 104.5t-18.5 52.5q-35 43 -120 43h-47v36h1030v-296h-23 q-15 72 -30.5 115.5t-43 67t-71.5 31.5t-115 8h-366zM853 1797l-295 -345h-34l105 345h224z" />
<glyph unicode="&#xca;" horiz-adv-x="1251" d="M46 4zM427 1280v-533h537v-74h-537v-446q0 -45 1.5 -70t6 -38.5t11.5 -19.5t18 -12q7 -3 26.5 -6t47.5 -3h227q58 0 96 2.5t66 11t50 24t48 41.5q32 32 63 77t62 108h42l-116 -338h-840v1114q0 66 -4.5 104.5t-18.5 52.5q-35 43 -120 43h-47v36h1030v-296h-23 q-15 72 -30.5 115.5t-43 67t-71.5 31.5t-115 8h-366zM537 1793h184l190 -331h-31l-273 213l-229 -213h-30z" />
<glyph unicode="&#xcb;" horiz-adv-x="1251" d="M46 4zM427 1280v-533h537v-74h-537v-446q0 -45 1.5 -70t6 -38.5t11.5 -19.5t18 -12q7 -3 26.5 -6t47.5 -3h227q58 0 96 2.5t66 11t50 24t48 41.5q32 32 63 77t62 108h42l-116 -338h-840v1114q0 66 -4.5 104.5t-18.5 52.5q-35 43 -120 43h-47v36h1030v-296h-23 q-15 72 -30.5 115.5t-43 67t-71.5 31.5t-115 8h-366zM805 1708q45 0 76.5 -32t31.5 -77t-31.5 -76.5t-76.5 -31.5t-77 31.5t-32 76.5t32 77t77 32zM452 1708q46 0 77.5 -32t31.5 -77t-32 -76.5t-76 -31.5q-45 0 -77 31.5t-32 76.5t31.5 77t76.5 32z" />
<glyph unicode="&#xcc;" horiz-adv-x="682" d="M119 1zM434 1354v-1116q0 -45 1.5 -75.5t6.5 -50.5t16 -32t31 -19q20 -14 43 -18.5t47 -4.5h46v-37h-159q-55 0 -94.5 9t-65 31t-38 58.5t-12.5 92.5v14q-2 83 -3 155.5t-1.5 138t-1 126t-0.5 119.5q0 66 0.5 132.5t0.5 140t0.5 156t0.5 180.5h182zM119 1797h223 l106 -345h-35z" />
<glyph unicode="&#xcd;" horiz-adv-x="682" d="M236 1zM434 1354v-1116q0 -45 1.5 -75.5t6.5 -50.5t16 -32t31 -19q20 -14 43 -18.5t47 -4.5h46v-37h-159q-55 0 -94.5 9t-65 31t-38 58.5t-12.5 92.5v14q-2 83 -3 155.5t-1.5 138t-1 126t-0.5 119.5q0 66 0.5 132.5t0.5 140t0.5 156t0.5 180.5h182zM565 1797l-295 -345 h-34l105 345h224z" />
<glyph unicode="&#xce;" horiz-adv-x="682" d="M60 1zM434 1354v-1116q0 -45 1.5 -75.5t6.5 -50.5t16 -32t31 -19q20 -14 43 -18.5t47 -4.5h46v-37h-159q-55 0 -94.5 9t-65 31t-38 58.5t-12.5 92.5v14q-2 83 -3 155.5t-1.5 138t-1 126t-0.5 119.5q0 66 0.5 132.5t0.5 140t0.5 156t0.5 180.5h182zM249 1793h184l190 -331 h-31l-273 213l-229 -213h-30z" />
<glyph unicode="&#xcf;" horiz-adv-x="682" d="M57 1zM434 1354v-1116q0 -45 1.5 -75.5t6.5 -50.5t16 -32t31 -19q20 -14 43 -18.5t47 -4.5h46v-37h-159q-55 0 -94.5 9t-65 31t-38 58.5t-12.5 92.5v14q-2 83 -3 155.5t-1.5 138t-1 126t-0.5 119.5q0 66 0.5 132.5t0.5 140t0.5 156t0.5 180.5h182zM518 1708 q45 0 76.5 -32t31.5 -77t-31.5 -76.5t-76.5 -31.5t-77 31.5t-32 76.5t32 77t77 32zM165 1708q46 0 77.5 -32t31.5 -77t-32 -76.5t-76 -31.5q-45 0 -77 31.5t-32 76.5t31.5 77t76.5 32z" />
<glyph unicode="&#xd0;" horiz-adv-x="1479" d="M35 0v37h51q86 0 123 56q21 32 21 147v438h-195v74h195v364q0 127 -28 159q-39 44 -116 44h-51v37h552q315 0 466 -71.5t249 -229t98 -368.5q0 -287 -183.5 -487t-576.5 -200h-605zM423 100q127 -28 213 -28q231 0 384 163t153 442q0 281 -153 443t-392 162 q-90 0 -205 -29v-501h393v-74h-393v-578z" />
<glyph unicode="&#xd1;" horiz-adv-x="1479" d="M0 0zM-16 1348h187q48 0 85.5 -5t69 -19t60.5 -38t60 -61l717 -887v1015h87v-1376h-37l-882 1088v-1065h-87v1060q0 125 -68 188t-192 63v37zM448 1465h-32q4 137 57 198t131 61q41 0 75 -13q45 -17 127.5 -71.5t122.5 -54.5q32 0 56.5 27t38.5 112h31 q1 -93 -24.5 -147.5t-72 -85t-93.5 -30.5q-79 0 -196 80q-63 43 -85 52t-43 9q-41 0 -65 -36q-11 -17 -28 -101z" />
<glyph unicode="&#xd2;" horiz-adv-x="1479" d="M73 0zM751 1393q263 0 460 -206q96 -102 144 -227t48 -278q0 -155 -48.5 -285t-149.5 -233q-191 -207 -471 -207q-139 0 -255.5 51t-213.5 151q-192 199 -192 523t220 532q97 89 210 134t248 45zM734 764q19 0 35 -7t27.5 -19.5t18 -29.5t6.5 -36q0 -35 -24.5 -60.5 t-62.5 -25.5q-17 0 -33 7t-28 19t-19 27.5t-7 32.5q0 19 7 36t19 29.5t28 19.5t33 7zM734 1320q-104 0 -184.5 -45.5t-135.5 -128.5t-83.5 -201t-28.5 -263q0 -146 29 -266t84.5 -206t136 -133t182.5 -47q93 0 173 35.5t139.5 111t93.5 194t34 283.5q0 157 -29 281 t-85 209.5t-138 130.5t-188 45zM511 1797h223l106 -345h-35z" />
<glyph unicode="&#xd3;" horiz-adv-x="1479" d="M73 0zM751 1393q263 0 460 -206q96 -102 144 -227t48 -278q0 -155 -48.5 -285t-149.5 -233q-191 -207 -471 -207q-139 0 -255.5 51t-213.5 151q-192 199 -192 523t220 532q97 89 210 134t248 45zM734 764q19 0 35 -7t27.5 -19.5t18 -29.5t6.5 -36q0 -35 -24.5 -60.5 t-62.5 -25.5q-17 0 -33 7t-28 19t-19 27.5t-7 32.5q0 19 7 36t19 29.5t28 19.5t33 7zM734 1320q-104 0 -184.5 -45.5t-135.5 -128.5t-83.5 -201t-28.5 -263q0 -146 29 -266t84.5 -206t136 -133t182.5 -47q93 0 173 35.5t139.5 111t93.5 194t34 283.5q0 157 -29 281 t-85 209.5t-138 130.5t-188 45zM957 1797l-295 -345h-34l105 345h224z" />
<glyph unicode="&#xd4;" horiz-adv-x="1479" d="M73 0zM751 1393q263 0 460 -206q96 -102 144 -227t48 -278q0 -155 -48.5 -285t-149.5 -233q-191 -207 -471 -207q-139 0 -255.5 51t-213.5 151q-192 199 -192 523t220 532q97 89 210 134t248 45zM734 764q19 0 35 -7t27.5 -19.5t18 -29.5t6.5 -36q0 -35 -24.5 -60.5 t-62.5 -25.5q-17 0 -33 7t-28 19t-19 27.5t-7 32.5q0 19 7 36t19 29.5t28 19.5t33 7zM734 1320q-104 0 -184.5 -45.5t-135.5 -128.5t-83.5 -201t-28.5 -263q0 -146 29 -266t84.5 -206t136 -133t182.5 -47q93 0 173 35.5t139.5 111t93.5 194t34 283.5q0 157 -29 281 t-85 209.5t-138 130.5t-188 45zM641 1793h184l190 -331h-31l-273 213l-229 -213h-30z" />
<glyph unicode="&#xd5;" horiz-adv-x="1479" d="M73 0zM751 1393q263 0 460 -206q96 -102 144 -227t48 -278q0 -155 -48.5 -285t-149.5 -233q-191 -207 -471 -207q-139 0 -255.5 51t-213.5 151q-192 199 -192 523t220 532q97 89 210 134t248 45zM734 764q19 0 35 -7t27.5 -19.5t18 -29.5t6.5 -36q0 -35 -24.5 -60.5 t-62.5 -25.5q-17 0 -33 7t-28 19t-19 27.5t-7 32.5q0 19 7 36t19 29.5t28 19.5t33 7zM734 1320q-104 0 -184.5 -45.5t-135.5 -128.5t-83.5 -201t-28.5 -263q0 -146 29 -266t84.5 -206t136 -133t182.5 -47q93 0 173 35.5t139.5 111t93.5 194t34 283.5q0 157 -29 281 t-85 209.5t-138 130.5t-188 45zM446 1465h-32q4 137 57 198t131 61q41 0 75 -13q45 -17 127.5 -71.5t122.5 -54.5q32 0 56.5 27t38.5 112h31q1 -93 -24.5 -147.5t-72 -85t-93.5 -30.5q-79 0 -196 80q-63 43 -85 52t-43 9q-41 0 -65 -36q-11 -17 -28 -101z" />
<glyph unicode="&#xd6;" horiz-adv-x="1479" d="M73 0zM751 1393q263 0 460 -206q96 -102 144 -227t48 -278q0 -155 -48.5 -285t-149.5 -233q-191 -207 -471 -207q-139 0 -255.5 51t-213.5 151q-192 199 -192 523t220 532q97 89 210 134t248 45zM734 764q19 0 35 -7t27.5 -19.5t18 -29.5t6.5 -36q0 -35 -24.5 -60.5 t-62.5 -25.5q-17 0 -33 7t-28 19t-19 27.5t-7 32.5q0 19 7 36t19 29.5t28 19.5t33 7zM734 1320q-104 0 -184.5 -45.5t-135.5 -128.5t-83.5 -201t-28.5 -263q0 -146 29 -266t84.5 -206t136 -133t182.5 -47q93 0 173 35.5t139.5 111t93.5 194t34 283.5q0 157 -29 281 t-85 209.5t-138 130.5t-188 45zM909 1708q45 0 76.5 -32t31.5 -77t-31.5 -76.5t-76.5 -31.5t-77 31.5t-32 76.5t32 77t77 32zM556 1708q46 0 77.5 -32t31.5 -77t-32 -76.5t-76 -31.5q-45 0 -77 31.5t-32 76.5t31.5 77t76.5 32z" />
<glyph unicode="&#xd7;" horiz-adv-x="1155" d="M165 328l353 353l-352 352l58 58l352 -352l352 352l56 -57l-352 -352l354 -354l-57 -58l-354 354l-353 -353z" />
<glyph unicode="&#xd8;" horiz-adv-x="1479" d="M1147 1238l131 162l58 -44l-133 -167q104 -113 151 -229t47 -273q0 -343 -244 -555q-188 -163 -413 -163q-103 0 -216.5 37.5t-197.5 105.5l-129 -159l-59 47l132 164q-201 207 -201 528q0 294 196 494.5t472 200.5q227 0 406 -149zM1063 1135q-116 181 -327 181 q-93 0 -147 -22q-75 -30 -134 -96q-79 -88 -116 -215t-37 -286q0 -231 73 -408zM1101 1063l-685 -846q54 -82 116 -120q89 -56 198 -56q105 0 172 31.5t125.5 97.5t100.5 186t42 300q0 123 -18 228q-14 77 -51 179z" />
<glyph unicode="&#xd9;" horiz-adv-x="1479" d="M12 0zM1258 1356v-797q0 -102 -10 -179.5t-28 -133.5q-20 -57 -59.5 -105.5t-99.5 -87.5q-60 -42 -140 -61t-183 -19q-219 0 -337 75q-57 39 -98 91t-63 116q-17 46 -24.5 129t-7.5 203v529q0 128 -37 165q-14 20 -41.5 28.5t-66.5 8.5h-51v38h332q26 0 38.5 -10 t16.5 -36.5t3 -73t-1 -120.5v-590q0 -38 3 -83.5t10 -93.5q8 -54 21 -93t32 -67q17 -28 44.5 -52t62.5 -41q35 -18 80 -28.5t97 -10.5q68 0 124.5 14.5t110.5 42.5q54 32 89 68t57 82q17 46 26.5 122t9.5 182v788h90zM562 1797h223l106 -345h-35z" />
<glyph unicode="&#xda;" horiz-adv-x="1479" d="M12 0zM1258 1356v-797q0 -102 -10 -179.5t-28 -133.5q-20 -57 -59.5 -105.5t-99.5 -87.5q-60 -42 -140 -61t-183 -19q-219 0 -337 75q-57 39 -98 91t-63 116q-17 46 -24.5 129t-7.5 203v529q0 128 -37 165q-14 20 -41.5 28.5t-66.5 8.5h-51v38h332q26 0 38.5 -10 t16.5 -36.5t3 -73t-1 -120.5v-590q0 -38 3 -83.5t10 -93.5q8 -54 21 -93t32 -67q17 -28 44.5 -52t62.5 -41q35 -18 80 -28.5t97 -10.5q68 0 124.5 14.5t110.5 42.5q54 32 89 68t57 82q17 46 26.5 122t9.5 182v788h90zM960 1797l-295 -345h-34l105 345h224z" />
<glyph unicode="&#xdb;" horiz-adv-x="1479" d="M12 0zM1258 1356v-797q0 -102 -10 -179.5t-28 -133.5q-20 -57 -59.5 -105.5t-99.5 -87.5q-60 -42 -140 -61t-183 -19q-219 0 -337 75q-57 39 -98 91t-63 116q-17 46 -24.5 129t-7.5 203v529q0 128 -37 165q-14 20 -41.5 28.5t-66.5 8.5h-51v38h332q26 0 38.5 -10 t16.5 -36.5t3 -73t-1 -120.5v-590q0 -38 3 -83.5t10 -93.5q8 -54 21 -93t32 -67q17 -28 44.5 -52t62.5 -41q35 -18 80 -28.5t97 -10.5q68 0 124.5 14.5t110.5 42.5q54 32 89 68t57 82q17 46 26.5 122t9.5 182v788h90zM691 1793h184l190 -331h-31l-273 213l-229 -213h-30z " />
<glyph unicode="&#xdc;" horiz-adv-x="1479" d="M12 0zM1258 1356v-797q0 -102 -10 -179.5t-28 -133.5q-20 -57 -59.5 -105.5t-99.5 -87.5q-60 -42 -140 -61t-183 -19q-219 0 -337 75q-57 39 -98 91t-63 116q-17 46 -24.5 129t-7.5 203v529q0 128 -37 165q-14 20 -41.5 28.5t-66.5 8.5h-51v38h332q26 0 38.5 -10 t16.5 -36.5t3 -73t-1 -120.5v-590q0 -38 3 -83.5t10 -93.5q8 -54 21 -93t32 -67q17 -28 44.5 -52t62.5 -41q35 -18 80 -28.5t97 -10.5q68 0 124.5 14.5t110.5 42.5q54 32 89 68t57 82q17 46 26.5 122t9.5 182v788h90zM960 1708q45 0 76.5 -32t31.5 -77t-31.5 -76.5 t-76.5 -31.5t-77 31.5t-32 76.5t32 77t77 32zM607 1708q46 0 77.5 -32t31.5 -77t-32 -76.5t-76 -31.5q-45 0 -77 31.5t-32 76.5t31.5 77t76.5 32z" />
<glyph unicode="&#xdd;" horiz-adv-x="1479" d="M30 2zM1311 1356l-485 -778v-576h-188v558q-103 158 -175.5 269t-121.5 186.5t-78.5 120t-46 68.5t-23.5 33t-12 13q-28 32 -70.5 50.5t-80.5 18.5v37h134t75 0.5t35 0.5h14q26 0 42.5 -7t37 -32.5t51.5 -76t87 -137.5l279 -439l434 691h92zM996 1797l-295 -345h-34 l105 345h224z" />
<glyph unicode="&#xde;" horiz-adv-x="1139" d="M256 0v1280h1024v-1280h-1024zM288 32h960v1216h-960v-1216z" />
<glyph unicode="&#xdf;" d="M256 0v1280h1024v-1280h-1024zM288 32h960v1216h-960v-1216z" />
<glyph unicode="&#xe0;" horiz-adv-x="909" d="M256 0v1280h1024v-1280h-1024zM288 32h960v1216h-960v-1216z" />
<glyph unicode="&#xe1;" horiz-adv-x="909" d="M256 0v1280h1024v-1280h-1024zM288 32h960v1216h-960v-1216z" />
<glyph unicode="&#xe2;" horiz-adv-x="909" d="M256 0v1280h1024v-1280h-1024zM288 32h960v1216h-960v-1216z" />
<glyph unicode="&#xe3;" horiz-adv-x="909" d="M256 0v1280h1024v-1280h-1024zM288 32h960v1216h-960v-1216z" />
<glyph unicode="&#xe4;" horiz-adv-x="909" d="M256 0v1280h1024v-1280h-1024zM288 32h960v1216h-960v-1216z" />
<glyph unicode="&#xe5;" horiz-adv-x="909" d="M256 0v1280h1024v-1280h-1024zM288 32h960v1216h-960v-1216z" />
<glyph unicode="&#xe6;" horiz-adv-x="1818" d="M256 0v1280h1024v-1280h-1024zM288 32h960v1216h-960v-1216z" />
<glyph unicode="&#xe7;" horiz-adv-x="909" d="M256 0v1280h1024v-1280h-1024zM288 32h960v1216h-960v-1216z" />
<glyph unicode="&#xe8;" horiz-adv-x="909" d="M256 0v1280h1024v-1280h-1024zM288 32h960v1216h-960v-1216z" />
<glyph unicode="&#xe9;" horiz-adv-x="909" d="M256 0v1280h1024v-1280h-1024zM288 32h960v1216h-960v-1216z" />
<glyph unicode="&#xea;" horiz-adv-x="909" d="M256 0v1280h1024v-1280h-1024zM288 32h960v1216h-960v-1216z" />
<glyph unicode="&#xeb;" horiz-adv-x="909" d="M256 0v1280h1024v-1280h-1024zM288 32h960v1216h-960v-1216z" />
<glyph unicode="&#xec;" horiz-adv-x="569" d="M256 0v1280h1024v-1280h-1024zM288 32h960v1216h-960v-1216z" />
<glyph unicode="&#xed;" horiz-adv-x="569" d="M256 0v1280h1024v-1280h-1024zM288 32h960v1216h-960v-1216z" />
<glyph unicode="&#xee;" horiz-adv-x="569" d="M256 0v1280h1024v-1280h-1024zM288 32h960v1216h-960v-1216z" />
<glyph unicode="&#xef;" horiz-adv-x="569" d="M256 0v1280h1024v-1280h-1024zM288 32h960v1216h-960v-1216z" />
<glyph unicode="&#xf0;" d="M256 0v1280h1024v-1280h-1024zM288 32h960v1216h-960v-1216z" />
<glyph unicode="&#xf1;" d="M256 0v1280h1024v-1280h-1024zM288 32h960v1216h-960v-1216z" />
<glyph unicode="&#xf2;" d="M256 0v1280h1024v-1280h-1024zM288 32h960v1216h-960v-1216z" />
<glyph unicode="&#xf3;" d="M256 0v1280h1024v-1280h-1024zM288 32h960v1216h-960v-1216z" />
<glyph unicode="&#xf4;" d="M256 0v1280h1024v-1280h-1024zM288 32h960v1216h-960v-1216z" />
<glyph unicode="&#xf5;" d="M256 0v1280h1024v-1280h-1024zM288 32h960v1216h-960v-1216z" />
<glyph unicode="&#xf6;" d="M256 0v1280h1024v-1280h-1024zM288 32h960v1216h-960v-1216z" />
<glyph unicode="&#xf7;" horiz-adv-x="569" d="M824 430h-1078v82h1078v-82zM289 944q46 0 78.5 -32.5t32.5 -78.5t-32.5 -78.5t-78.5 -32.5t-78.5 32.5t-32.5 78.5t32.5 78.5t78.5 32.5zM287 195q47 0 79.5 -33t32.5 -79t-33 -78.5t-79 -32.5t-78.5 32.5t-32.5 78.5t32.5 79t78.5 33z" />
<glyph unicode="&#xf8;" d="M256 0v1280h1024v-1280h-1024zM288 32h960v1216h-960v-1216z" />
<glyph unicode="&#xf9;" d="M256 0v1280h1024v-1280h-1024zM288 32h960v1216h-960v-1216z" />
<glyph unicode="&#xfa;" d="M256 0v1280h1024v-1280h-1024zM288 32h960v1216h-960v-1216z" />
<glyph unicode="&#xfb;" d="M256 0v1280h1024v-1280h-1024zM288 32h960v1216h-960v-1216z" />
<glyph unicode="&#xfc;" d="M256 0v1280h1024v-1280h-1024zM288 32h960v1216h-960v-1216z" />
<glyph unicode="&#xfd;" d="M256 0v1280h1024v-1280h-1024zM288 32h960v1216h-960v-1216z" />
<glyph unicode="&#xfe;" horiz-adv-x="410" d="M256 0v1280h1024v-1280h-1024zM288 32h960v1216h-960v-1216z" />
<glyph unicode="&#xff;" d="M256 0v1280h1024v-1280h-1024zM288 32h960v1216h-960v-1216z" />
<glyph unicode="&#x152;" horiz-adv-x="1821" d="M1104 1282v-535h183q115 0 163 47.5t47 148.5h39v-472h-39q-9 123 -51 162.5t-159 39.5h-183v-448q0 -80 10 -104t33 -37q15 -8 77 -8h104q120 0 167.5 13t98.5 59q75 68 129 192h40l-108 -340h-485q-141 0 -171 -1q-12 0 -167 -9q-108 -6 -145 -6q-169 0 -308.5 85.5 t-221.5 250t-82 356.5q0 258 141 455q169 237 493 237q23 0 194 -7q140 -5 267 -5h473l12 -298h-32q-24 118 -43 149q-25 40 -77 62q-33 13 -143 13h-256zM912 1042q0 130 -18.5 171.5t-53.5 61.5q-50 29 -127 29q-124 0 -218.5 -73t-142 -223.5t-47.5 -339.5 q0 -155 42 -301t135.5 -229t226.5 -83q76 0 122 25.5t63.5 71.5t17.5 188v702z" />
<glyph unicode="&#x153;" horiz-adv-x="1479" d="M863 573q-2 -25 -2 -38q0 -94 33.5 -196t99.5 -152t145 -50q80 0 141.5 51t97.5 167l33 -17q-36 -193 -125.5 -279.5t-214.5 -86.5q-97 0 -165.5 47t-103.5 114q-62 -80 -141.5 -120.5t-176.5 -40.5q-176 0 -296.5 128.5t-120.5 342.5q0 229 123.5 364.5t299.5 135.5 q107 0 186 -44t126 -114q59 85 124 122t159 37q147 0 239 -99t87 -272h-548zM453 888q-36 0 -85.5 -26.5t-76.5 -90.5q-37 -83 -37 -232q0 -258 102 -406q62 -90 153 -90q89 0 147.5 74t58.5 261q0 233 -67.5 371.5t-194.5 138.5zM863 638h351q1 70 -24 134q-18 48 -61 76.5 t-90 28.5q-67 0 -118.5 -60t-57.5 -179z" />
<glyph unicode="&#x178;" horiz-adv-x="1479" d="M30 2zM1311 1356l-485 -778v-576h-188v558q-103 158 -175.5 269t-121.5 186.5t-78.5 120t-46 68.5t-23.5 33t-12 13q-28 32 -70.5 50.5t-80.5 18.5v37h134t75 0.5t35 0.5h14q26 0 42.5 -7t37 -32.5t51.5 -76t87 -137.5l279 -439l434 691h92zM936 1708q45 0 76.5 -32 t31.5 -77t-31.5 -76.5t-76.5 -31.5t-77 31.5t-32 76.5t32 77t77 32zM583 1708q46 0 77.5 -32t31.5 -77t-32 -76.5t-76 -31.5q-45 0 -77 31.5t-32 76.5t31.5 77t76.5 32z" />
<glyph unicode="&#x2c6;" horiz-adv-x="682" d="M249 1385h184l190 -331h-31l-273 213l-229 -213h-30z" />
<glyph unicode="&#x2dc;" horiz-adv-x="682" d="M54 1097h-32q4 137 57 198t131 61q41 0 75 -13q45 -17 127.5 -71.5t122.5 -54.5q32 0 56.5 27t38.5 112h31q1 -93 -24.5 -147.5t-72 -85t-93.5 -30.5q-79 0 -196 80q-63 43 -85 52t-43 9q-41 0 -65 -36q-11 -17 -28 -101z" />
<glyph unicode="&#x2000;" horiz-adv-x="920" />
<glyph unicode="&#x2001;" horiz-adv-x="1840" />
<glyph unicode="&#x2002;" horiz-adv-x="920" />
<glyph unicode="&#x2003;" horiz-adv-x="1840" />
<glyph unicode="&#x2004;" horiz-adv-x="613" />
<glyph unicode="&#x2005;" horiz-adv-x="460" />
<glyph unicode="&#x2006;" horiz-adv-x="306" />
<glyph unicode="&#x2007;" horiz-adv-x="306" />
<glyph unicode="&#x2008;" horiz-adv-x="230" />
<glyph unicode="&#x2009;" horiz-adv-x="368" />
<glyph unicode="&#x200a;" horiz-adv-x="102" />
<glyph unicode="&#x2010;" horiz-adv-x="682" d="M83 535h517v-151h-517v151z" />
<glyph unicode="&#x2011;" horiz-adv-x="682" d="M83 535h517v-151h-517v151z" />
<glyph unicode="&#x2012;" horiz-adv-x="682" d="M83 535h517v-151h-517v151z" />
<glyph unicode="&#x2013;" d="M1041 453h-1059v73h1059v-73z" />
<glyph unicode="&#x2014;" horiz-adv-x="2048" d="M2066 453h-2085v74h2085v-74z" />
<glyph unicode="&#x2018;" horiz-adv-x="682" d="M444 1387v-43q-102 -62 -139 -115q-27 -39 -27 -92q0 -32 12 -47q11 -15 26 -15q10 0 28 7q27 9 44 9q40 0 71 -30t31 -75q0 -51 -31 -79q-43 -38 -100 -38q-68 0 -121 57t-53 141q0 118 88 215q59 64 171 105z" />
<glyph unicode="&#x2019;" horiz-adv-x="682" d="M238 869v47q103 61 140 114q26 38 26 91q0 31 -11 46q-12 15 -26 15q-11 0 -29 -7q-26 -9 -43 -9q-40 0 -71 30t-31 75q0 50 31 78q42 38 100 38q67 0 120.5 -56.5t53.5 -140.5q0 -118 -89 -215q-59 -64 -171 -106z" />
<glyph unicode="&#x201a;" horiz-adv-x="682" d="M203 0zM203 -341v44q103 34 159.5 105.5t56.5 151.5q0 19 -9 32q-7 9 -14 9q-11 0 -48 -20q-18 -9 -38 -9q-49 0 -78 29t-29 80q0 49 37.5 84t91.5 35q66 0 117.5 -57.5t51.5 -152.5q0 -103 -71.5 -191.5t-226.5 -139.5z" />
<glyph unicode="&#x201c;" horiz-adv-x="909" d="M326 1387v-41q-88 -46 -126 -96t-38 -109q0 -35 10 -48q9 -14 22 -14t35 7.5t40 7.5q41 0 71.5 -30.5t30.5 -74.5q0 -48 -37 -82.5t-92 -34.5q-67 0 -121 58t-54 143q0 100 66.5 186.5t192.5 127.5zM803 1384v-38q-101 -58 -133 -104t-32 -108q0 -28 11 -42t23 -14 q11 0 33 8t44 8q41 0 71.5 -29.5t30.5 -72.5q0 -49 -38.5 -85t-94.5 -36q-66 0 -119 57t-53 142q0 105 67 191.5t190 122.5z" />
<glyph unicode="&#x201d;" horiz-adv-x="909" d="M67 871zM115 871v42q101 57 132.5 103.5t31.5 107.5q0 28 -10 42q-11 14 -24 14q-10 0 -32 -8t-44 -8q-42 0 -72 30t-30 73q0 48 38.5 84t93.5 36q66 0 119.5 -57t53.5 -144q0 -105 -67.5 -192t-189.5 -123zM592 871v42q87 45 125.5 95.5t38.5 109.5q0 35 -10 49 q-10 13 -22 13q-13 0 -35 -8q-23 -8 -40 -8q-41 0 -71.5 31t-30.5 74q0 48 37 83t91 35q68 0 122 -58.5t54 -143.5q0 -100 -66.5 -186.5t-192.5 -127.5z" />
<glyph unicode="&#x201e;" horiz-adv-x="909" d="M115 -316v42q101 57 132.5 103.5t31.5 107.5q0 28 -10 42q-11 14 -24 14q-10 0 -32 -8t-44 -8q-42 0 -72 30t-30 73q0 48 38.5 84t93.5 36q66 0 119.5 -57t53.5 -144q0 -105 -67.5 -192t-189.5 -123zM592 -316v42q87 45 125.5 95.5t38.5 109.5q0 35 -10 49q-10 13 -22 13 q-13 0 -35 -8q-23 -8 -40 -8q-41 0 -71.5 31t-30.5 74q0 48 37 83t91 35q68 0 122 -58.5t54 -143.5q0 -100 -66.5 -186.5t-192.5 -127.5z" />
<glyph unicode="&#x2022;" horiz-adv-x="717" d="M363 928q104 0 177.5 -73.5t73.5 -177.5t-73.5 -177.5t-177.5 -73.5t-177.5 73.5t-73.5 177.5t73 177.5t178 73.5z" />
<glyph unicode="&#x2026;" horiz-adv-x="2048" d="M341 194q47 0 79 -32.5t32 -78.5t-32.5 -78.5t-78.5 -32.5t-78.5 32.5t-32.5 78.5q0 47 32.5 79t78.5 32zM1024 194q46 0 78.5 -32.5t32.5 -78.5t-32.5 -78.5t-78.5 -32.5t-78.5 32.5t-32.5 78.5q0 47 32.5 79t78.5 32zM1707 194q46 0 78.5 -32.5t32.5 -78.5t-32.5 -78.5 t-78.5 -32.5t-78.5 32.5t-32.5 78.5q0 47 32 79t79 32z" />
<glyph unicode="&#x202f;" horiz-adv-x="368" />
<glyph unicode="&#x2039;" horiz-adv-x="682" d="M563 -8h-57l-387 472l387 470h57l-244 -470z" />
<glyph unicode="&#x203a;" horiz-adv-x="682" d="M115 934h58l394 -472l-394 -470h-58l243 470z" />
<glyph unicode="&#x205f;" horiz-adv-x="460" />
<glyph unicode="&#x20ac;" d="M847 737h-574q-3 -42 -3 -83h552l-23 -78h-527q8 -211 84 -352q89 -164 240 -164q134 0 224 69q54 41 137 156l31 -20q-86 -136 -156 -194q-115 -95 -276 -95q-230 0 -356 191q-103 156 -122 409h-101l23 78h74v16q0 30 2 67h-99l23 78h84q34 237 162 391 q147 178 376 178q171 0 340 -88v-299h-39q-26 321 -301 321q-158 0 -250 -167q-71 -130 -93 -336h591z" />
<glyph unicode="&#x2122;" horiz-adv-x="2007" d="M51 1356h728l22 -201h-34q-10 72 -52.5 106.5t-141.5 34.5h-75v-579q0 -84 20 -106.5t86 -25.5v-36h-374v36q65 6 82.5 27.5t17.5 103.5v580h-76q-95 0 -135 -31.5t-55 -109.5h-34zM1156 1356l273 -572l265 572h279v-37q-56 -1 -74.5 -11t-27.5 -32t-9 -92v-468 q0 -85 19 -106t92 -25v-36h-398v36q59 1 79.5 12t30 32t9.5 86v492l-307 -658h-32l-308 649v-482q0 -68 8.5 -88.5t27 -31.5t57.5 -11h36v-36h-306v36q56 0 75.5 10t28.5 31t9 90v466q0 76 -8.5 96t-28.5 30.5t-76 10.5v37h286z" />
<glyph unicode="&#xe000;" horiz-adv-x="1840" d="M0 1840h1840v-1840h-1840v1840z" />
<glyph horiz-adv-x="0" d="M0 0z" />
</font>
</defs>
</svg>
