<?xml version="1.0" standalone="no"?>
<!DOCTYPE svg PUBLIC "-//W3C//DTD SVG 1.1//EN" "http://www.w3.org/Graphics/SVG/1.1/DTD/svg11.dtd" >
<svg xmlns="http://www.w3.org/2000/svg">
<metadata></metadata>
<defs>
<font id="candalregular" horiz-adv-x="1504" >
<font-face units-per-em="2048" ascent="1638" descent="-410" />
<missing-glyph horiz-adv-x="448" />
<glyph horiz-adv-x="2048" />
<glyph horiz-adv-x="2048" />
<glyph unicode="&#xd;" horiz-adv-x="532" />
<glyph unicode=" "  horiz-adv-x="448" />
<glyph unicode="&#x09;" horiz-adv-x="448" />
<glyph unicode="&#xa0;" horiz-adv-x="448" />
<glyph unicode="!" horiz-adv-x="807" d="M192 1414h448l-64 -902h-320zM416 -32q-65 0 -113.5 17t-80 44t-47 61t-15.5 69q0 36 16.5 70.5t48.5 62t80 44t111 16.5t111 -16.5t80.5 -43.5t49 -61.5t16.5 -70.5q0 -35 -15.5 -69.5t-47.5 -61.5t-80 -44t-114 -17z" />
<glyph unicode="&#x22;" horiz-adv-x="991" d="M128 1536h320l-60 -560h-200zM544 1536h320l-60 -560h-200z" />
<glyph unicode="#" horiz-adv-x="1024" d="M147 691q-42 59 -62.5 128t-20.5 141q0 66 18 130t53 120l-103 109l160 154l107 -113q45 23 98.5 35.5t114.5 12.5q54 0 101 -10t89 -28l98 103l160 -154l-85 -89q42 -59 63.5 -128.5t21.5 -141.5q0 -78 -25 -152.5t-73 -135.5l98 -102l-160 -154l-119 125 q-76 -29 -169 -29q-55 0 -102.5 10t-89.5 28l-128 -134l-160 154zM320 960q0 -47 10 -88t33 -71t59.5 -47.5t89.5 -17.5t90 17.5t59.5 47.5t32.5 71t10 88t-10 88t-32.5 71t-59.5 47.5t-90 17.5t-89.5 -17.5t-59.5 -47.5t-33 -71t-10 -88z" />
<glyph unicode="$" horiz-adv-x="1300" d="M536 42q-101 9 -205 34.5t-198 66.5v332q47 -24 101.5 -45.5t111.5 -37t115 -24.5t113 -9q81 0 139.5 14t58.5 68q0 24 -19.5 49t-56.5 46t-85 44t-125 53q-43 20 -88 43t-88 51.5t-81 63t-67 77.5t-45.5 95t-16.5 116q0 66 24 126t74.5 108.5t128.5 82.5t186 48v156h238 v-150q48 -3 100 -11t104 -21.5t100.5 -33.5t89.5 -49l-32 -277q-39 17 -84 34t-92.5 30.5t-111.5 24.5q-46 8 -109 11q-24 1 -43 1q-45 0 -64 -7q-62 -18 -62 -66q0 -24 21.5 -43t61.5 -40.5t76 -38t84 -34.5q39 -18 84.5 -41t91 -53.5t88 -69.5t75 -88.5t52 -110 t19.5 -134.5q0 -64 -25 -127t-77 -116t-132.5 -91.5t-191.5 -53.5v-145h-238v142z" />
<glyph unicode="%" horiz-adv-x="2900" d="M607 299q-95 0 -169 23t-130.5 63.5t-96 96t-64 120.5t-36 136.5t-11.5 144.5q0 71 11 141.5t36 134t64 118t95.5 94t131 62t169.5 22.5q142 0 239 -49t156.5 -129.5t85.5 -183.5t26 -210q0 -73 -11.5 -144.5t-36 -136.5t-64 -120.5t-96 -96t-131 -63.5t-168.5 -23z M607 536q41 0 72 29.5t51.5 78t31 110.5t10.5 127q0 64 -10.5 126t-31 110.5t-51.5 78t-72 29.5t-72 -29.5t-52 -78t-31.5 -110.5t-10.5 -126q0 -65 10.5 -127t31 -110.5t51.5 -78t73 -29.5zM2293 -28q-95 0 -169 23t-130.5 63.5t-96 96t-64 120.5t-36 136.5t-11.5 144.5 q0 72 11 142t36 133.5t64 118t95.5 94t131 62t169.5 22.5q142 0 239 -49t156.5 -129.5t85.5 -183.5t26 -210q0 -73 -11.5 -144.5t-36 -136.5t-64 -120.5t-96 -96t-131 -63.5t-168.5 -23zM2293 209q41 0 72 29.5t51.5 78t31 110.5t10.5 127q0 64 -10.5 126t-31 110.5 t-51.5 78t-72 29.5t-72 -29.5t-52 -78t-31.5 -110.5t-10.5 -126q0 -65 10.5 -127t31 -110.5t51.5 -78t73 -29.5zM1919 1426l-524 -1426h-417l499 1426h442z" />
<glyph unicode="&#x26;" horiz-adv-x="1728" d="M1344 456q0 -36 5.5 -69t22.5 -58t49 -40t85 -15q34 0 75 7t93 24l24 -282q-63 -23 -144.5 -39t-172.5 -16q-38 0 -80 4.5t-83 16.5q-47 13 -72 43q-35 40 -59 90q-86 -82 -113 -102q-43 -28 -105 -35q-47 -5 -99 -11t-98 -6q-143 0 -246 33t-169 89.5t-97.5 132 t-31.5 161.5q0 57 23.5 117.5t68.5 111t110.5 84.5t149.5 39q-77 13 -126.5 45t-78 75.5t-39.5 95t-11 104.5q0 79 30 138t80 102t115.5 71t136.5 44.5t142.5 23t134.5 6.5q45 0 104.5 -5t121 -13.5t120 -20.5t102.5 -26l-64 -288l-132 16q-28 3 -54 6q-28 3 -54 5 t-47.5 3.5t-36.5 1.5h-36q-54 0 -102 -2q-63 -1 -109.5 -15t-73.5 -47t-27 -91t15.5 -87t43.5 -51t67 -35.5t86 -13.5h150v160h406v-482zM952 288q-4 11 -7 48q-3 24 -5 85.5t-2 142.5q-108 0 -181.5 -8.5t-112.5 -24.5t-53.5 -50t-14.5 -65q0 -27 9.5 -55.5t32 -52 t59 -38.5t91.5 -15q36 0 81.5 7.5t102.5 25.5z" />
<glyph unicode="'" horiz-adv-x="600" d="M140 1562h320l-60 -598h-200z" />
<glyph unicode="(" horiz-adv-x="896" d="M96 711q0 101 19 196t56 180t92 155.5t126 121.5t158 79.5t189 28.5v-256q-45 0 -86 -43.5t-71.5 -115t-48.5 -162t-18 -184.5q0 -92 18 -180t48.5 -156t71.5 -109.5t86 -41.5v-256q-102 0 -189 27.5t-158 77t-126 118t-92 151t-56 176.5t-19 193z" />
<glyph unicode=")" horiz-adv-x="896" d="M800 711q0 -99 -19 -193t-56 -176.5t-92 -151t-126 -118t-158 -77t-189 -27.5v256q45 0 86 41.5t71.5 109.5t48.5 156t18 180q0 94 -18 184.5t-48.5 162t-71.5 115t-86 43.5v256q102 0 189 -28.5t158 -79.5t126 -121.5t92 -155.5t56 -180.5t19 -195.5z" />
<glyph unicode="*" horiz-adv-x="1151" d="M426 473l-193 92l152 301h-311v220h311l-152 318l193 92l128 -297l128 297l193 -92l-152 -301h311v-220h-311l152 -318l-193 -92l-128 297z" />
<glyph unicode="+" horiz-adv-x="896" d="M269 544h-224v288h224v256h320v-256h224v-288h-224v-256h-320v256z" />
<glyph unicode="," horiz-adv-x="832" d="M427 4q-66 -36 -115 -36q-39 0 -72.5 17t-58.5 45.5t-39 66.5t-14 79q0 42 16.5 85t50 77.5t84 56t118.5 21.5q136 0 205.5 -82t69.5 -236q0 -126 -37 -207.5t-96.5 -128t-133.5 -64.5t-149 -18h-96v192q98 0 121 4q65 8 88 18q35 16 46.5 46t11.5 64z" />
<glyph unicode="-" horiz-adv-x="992" d="M896 832v-320h-800v320h800z" />
<glyph unicode="." horiz-adv-x="800" d="M393 -31q-67 0 -116.5 19t-82.5 50.5t-49.5 72t-16.5 82.5q0 40 17 80t51 72t83.5 52t114.5 20q67 0 119 -20t87.5 -52t53.5 -71.5t18 -79.5q0 -43 -17.5 -83.5t-52 -72t-87 -50.5t-122.5 -19z" />
<glyph unicode="/" horiz-adv-x="992" d="M928 1440l-416 -1440h-448l384 1440h480z" />
<glyph unicode="0" horiz-adv-x="1600" d="M800 1440q126 0 225 -29t173.5 -79.5t126.5 -120.5t84.5 -151.5t47.5 -172t15 -182.5q0 -93 -15 -184t-48 -172.5t-85 -151.5t-127 -120.5t-173.5 -79.5t-223.5 -29t-223.5 29t-173.5 79.5t-127 120.5t-85 151.5t-48 172.5t-15 184q0 92 15 182.5t47.5 172t84.5 151.5 t126.5 120.5t173.5 79.5t225 29zM800 1120q-55 0 -96.5 -34.5t-69.5 -92.5t-42.5 -133t-14.5 -156t14 -156t42 -132.5t69.5 -92.5t97.5 -35q55 0 97 35t70 92.5t42 132.5t14 156t-14.5 156t-42.5 133t-69.5 92.5t-96.5 34.5z" />
<glyph unicode="1" horiz-adv-x="864" d="M724 0h-427v1021l-224 -41v274q48 15 103 37q47 19 106.5 51t125.5 72h316v-1414z" />
<glyph unicode="2" horiz-adv-x="1280" d="M655 349h451v-349h-946l-52 352q114 82 218.5 169t172 170.5t121.5 158.5t54 133q0 75 -60 106t-129 31q-40 0 -82.5 -6t-81.5 -15t-72.5 -20.5t-56.5 -22.5l-64 320q112 38 222 51.5t205 13.5q145 0 251.5 -34.5t176.5 -93t103.5 -136.5t33.5 -164q0 -64 -22 -131.5 t-60.5 -134t-90 -130.5t-78 -91t-91 -75t-127.5 -83z" />
<glyph unicode="3" horiz-adv-x="1216" d="M256 864h196q48 0 83.5 11.5t58.5 31t34.5 44.5t11.5 53q0 39 -17 65.5t-46 43t-67 24t-80 7.5q-40 0 -83.5 -5t-87 -14.5t-85.5 -22.5t-78 -29v284q47 22 95 37.5t98.5 25.5t105 15t116.5 5q116 0 204 -16.5t152 -45.5t106.5 -68t68 -85t36 -96t10.5 -101q0 -48 -11 -87 t-29.5 -69t-42 -53t-47.5 -39q-57 -39 -130 -56q82 -14 146 -53q27 -17 53.5 -40.5t47 -56t33 -74.5t12.5 -96q0 -80 -26 -158t-93 -140t-183.5 -100t-296.5 -38q-123 0 -226.5 19.5t-198.5 64.5v293q35 -18 77 -33t86.5 -25.5t88 -16.5t82.5 -6q42 0 80 9.5t67 30t46 53.5 t17 81q0 34 -11.5 64.5t-34.5 54t-58.5 37.5t-83.5 14h-196v256z" />
<glyph unicode="4" horiz-adv-x="1408" d="M1120 608h170v-320h-170v-288h-416v288h-608v320l352 806h672v-806zM635 1120l-195 -512h264v512h-69z" />
<glyph unicode="5" horiz-adv-x="1408" d="M160 642l96 772h928l-32 -292h-576l-64 -290q22 24 61 42t83.5 30t89.5 18t80 6q88 0 170 -29.5t137.5 -77t101 -130.5t45.5 -190q0 -95 -33.5 -187.5t-90 -174.5t-165.5 -126.5t-274 -44.5q-149 0 -253.5 34t-173.5 94t-107.5 131.5t-54.5 167.5h416q6 -55 21 -76 t38 -37.5t52.5 -21t62.5 -4.5q37 0 64.5 20t45.5 52t27 73.5t9 83.5q0 30 -11 58t-34.5 49.5t-59.5 34.5t-87 13q-53 0 -105 -17.5t-87 -46.5z" />
<glyph unicode="6" d="M1216 1056q-18 6 -52 16.5t-82.5 21t-111 18.5t-138.5 8q-51 0 -97.5 -14t-81.5 -50t-56 -98t-21 -158q37 17 77.5 29t82.5 20t82.5 11.5t77.5 3.5q90 0 171 -28.5t142.5 -83.5t98 -136.5t36.5 -187.5q0 -56 -9.5 -112t-33.5 -107t-63.5 -95t-99 -76.5t-141.5 -51 t-190 -18.5q-136 0 -236.5 26t-172.5 73.5t-118 113.5t-72.5 145.5t-37 170.5t-10.5 188q0 104 10 200t36 180t72.5 153.5t119.5 119t175.5 76.5t242.5 27q123 0 235.5 -16.5t196.5 -48.5zM576 608q0 -120 14.5 -190t44 -106t75.5 -46t109 -10q42 0 74.5 15t54 39.5t33 56 t11.5 64.5t-11 65t-34.5 57t-60 40t-87.5 15h-223z" />
<glyph unicode="7" horiz-adv-x="1088" d="M1024 1122l-352 -1125h-480l352 1125h-448v292h896z" />
<glyph unicode="8" horiz-adv-x="1536" d="M1344 1091q0 -87 -58.5 -164.5t-172.5 -124.5q61 -23 120 -54.5t105 -74t74 -98.5t28 -129q0 -58 -12.5 -116t-42.5 -111.5t-80 -99t-125.5 -79.5t-179 -53t-239.5 -19q-164 0 -288 34.5t-208 90t-126.5 125t-42.5 140.5q0 51 20 99t59.5 90t99.5 75.5t141 56.5 q-48 29 -89 65.5t-71 82.5t-47 102.5t-17 125.5q0 77 37.5 146.5t110.5 122.5t180.5 84.5t248.5 31.5q139 0 246.5 -30.5t180.5 -80t110.5 -112t37.5 -126.5zM711 559q-26 8 -55 17t-60 20q-39 -28 -61.5 -61.5t-22.5 -79.5q0 -49 14.5 -81.5t45 -51.5t77.5 -26.5t113 -7.5 q60 0 103.5 7t71.5 23.5t41.5 45t13.5 71.5q0 23 -21.5 38.5t-59.5 28.5t-89 26t-111 31zM769 1162q-75 0 -118 -31.5t-43 -73.5q0 -35 19 -63.5t53.5 -52.5t81 -43t102.5 -34q26 27 45 67.5t19 85.5q0 27 -11 51.5t-31 43t-50 34.5t-67 16z" />
<glyph unicode="9" horiz-adv-x="1408" d="M256 352q18 -6 48 -17t74.5 -21.5t103 -18t132.5 -7.5q53 0 99 17t79.5 57.5t52.5 108t19 169.5q-74 -29 -154 -46.5t-154 -17.5q-92 0 -175.5 28t-146.5 82t-100.5 133.5t-37.5 183.5q0 53 10 106.5t34.5 102t65 90.5t101.5 73t144.5 48.5t193.5 17.5q133 0 232 -25 t170 -71t116 -110t71 -141t36 -165.5t10 -182.5q0 -107 -9.5 -206t-35 -185.5t-71 -157.5t-117 -122t-173 -79t-238.5 -28q-243 0 -412 64zM864 832q0 120 -15 190t-43.5 106t-70 46t-95.5 10q-42 0 -72 -16t-49.5 -42.5t-29 -59.5t-9.5 -66t10 -63.5t32.5 -54t59 -37 t90.5 -13.5h192z" />
<glyph unicode=":" horiz-adv-x="768" d="M384 0q-65 0 -113.5 21t-80 55t-47 76.5t-15.5 86.5q0 45 16.5 88.5t48.5 77t80 46.5t111 13t111 -13t80 -46.5t48.5 -77t16.5 -88.5q0 -44 -16 -86.5t-47.5 -76.5t-80 -55t-112.5 -21zM384 654q-65 0 -113.5 14t-80 48t-47 76.5t-15.5 86.5q0 45 16.5 88.5t48.5 77 t80 54.5t111 21t111 -21t80 -54.5t48.5 -77t16.5 -88.5q0 -44 -16 -86.5t-47.5 -76.5t-80 -48t-112.5 -14z" />
<glyph unicode=";" horiz-adv-x="768" d="M384 647q-65 0 -113.5 21t-80 51.5t-47 73t-15.5 86.5q0 45 16.5 88.5t48.5 77t80 54.5t111 21t111 -21t80 -54.5t48.5 -77t16.5 -88.5q0 -44 -16 -86.5t-47.5 -73t-80 -51.5t-112.5 -21zM416 0q-52 -32 -104 -32q-39 0 -72.5 17t-58.5 45.5t-39 66.5t-14 79 q0 42 16.5 85t50 74t84 52.5t118.5 21.5q136 0 205.5 -78.5t69.5 -232.5q0 -126 -37 -207.5t-96.5 -128t-133.5 -64.5t-149 -18h-96v192q72 0 121 7.5t79 23t43 39.5t13 58z" />
<glyph unicode="&#x3c;" horiz-adv-x="896" d="M96 1024l704 256v-320l-512 -128l512 -128v-320l-704 256v384z" />
<glyph unicode="=" horiz-adv-x="1088" d="M896 519v-256h-704v256h704zM896 928v-256h-704v256h704z" />
<glyph unicode="&#x3e;" horiz-adv-x="896" d="M783 640l-694 -256v320l512 128l-512 128v320l694 -256v-384z" />
<glyph unicode="?" horiz-adv-x="1376" d="M352 800q111 10 190 25t132.5 34t84.5 41.5t47.5 47.5t21 52.5t4.5 55.5q0 36 -13 65.5t-34.5 50.5t-50.5 32.5t-62 11.5q-30 0 -58 -10t-50.5 -30t-36.5 -50t-15 -70h-352q0 96 35 178t103.5 142t170 94t235.5 34q144 0 247 -34t169 -94t97 -142t31 -178q0 -78 -32 -153 t-95.5 -136.5t-159.5 -104t-225 -54.5v-160h-352zM576 -32q-65 0 -113.5 16.5t-80 43.5t-47 61.5t-15.5 70.5t16.5 70.5t48.5 61.5t80 43.5t111 16.5t111 -16.5t80 -43.5t48.5 -61t16.5 -70q0 -37 -15.5 -71.5t-47 -61.5t-79.5 -43.5t-114 -16.5z" />
<glyph unicode="@" horiz-adv-x="2400" d="M1834 256q86 0 86 342q0 140 -12 202q-26 131 -126 231t-287 137q-182 35 -236 34q-145 -3 -183 -9q-148 -20 -235 -64q-60 -30 -144 -110q-108 -104 -161 -277q-24 -78 -24 -200q0 -127 48 -242q50 -120 156 -201q213 -163 692 -163l32 -160q-85 -32 -292 -32t-352.5 32 t-259.5 89q-221 111 -330.5 299t-109.5 396.5t73 379.5q81 190 219 297q175 134 356 205q160 62 503 62q447 0 727 -178q206 -131 288 -372q42 -124 42 -258.5t-21 -225t-57 -161.5q-68 -134 -185 -205.5t-249 -71.5q-200 0 -304 134q-34 44 -63 103q-51 -98 -189 -131 q-42 -10 -84 -10q-229 0 -354.5 132.5t-125.5 315.5q0 179 113.5 313.5t306.5 134.5t284 -160l32 110h212l86 -125v-465q0 -66 26.5 -94.5t50.5 -31t51 -2.5zM1376 736q-79 62 -144 62t-101.5 -19t-60.5 -51q-46 -62 -46 -152q0 -80 57 -136q58 -56 141 -56t154 32v320z" />
<glyph unicode="A" d="M1439 0h-534l-66 301h-351l-63 -301h-361l360 1414h626zM668 1194l-137 -659h286l-118 659h-31z" />
<glyph unicode="B" d="M160 1414h476q62 0 136.5 -7t149.5 -20t145 -36.5t124.5 -62.5t87 -96t32.5 -136q0 -47 -11 -93.5t-39.5 -85.5t-78 -68t-126.5 -41q84 -5 149.5 -38.5t110.5 -83.5t68.5 -110.5t23.5 -119.5q0 -79 -32 -153.5t-107.5 -133t-199.5 -94t-308 -35.5h-601v1414zM608 256h181 q86 0 128.5 44.5t42.5 115.5q0 42 -14.5 72t-53.5 49.5t-107.5 29t-176.5 9.5v-320zM748 832q47 0 86 13.5t67 35.5t43.5 51t15.5 60q0 48 -19 79t-61 49t-109 25t-163 7v-320h140z" />
<glyph unicode="C" horiz-adv-x="1344" d="M863 -32q-156 0 -295 50.5t-244 146t-166.5 232t-61.5 307.5q0 180 55.5 317.5t156.5 231t242.5 141t313.5 47.5q45 0 104.5 -5t121 -13.5t120 -20.5t102.5 -26l-64 -320q-40 16 -92 28t-105.5 20t-103 12t-83.5 4q-90 0 -151.5 -30.5t-99 -86t-53.5 -132t-16 -167.5 q0 -97 24 -174t69 -131t110.5 -82.5t148.5 -28.5q75 0 168 24t184 72l62 -320q-112 -54 -225 -75t-222 -21z" />
<glyph unicode="D" d="M160 0v1414h492q175 0 315.5 -44.5t238 -129.5t150 -215t52.5 -306q0 -201 -59.5 -338.5t-162.5 -222t-241.5 -121.5t-296.5 -37h-488zM608 320h30q78 0 143 14.5t111 57.5t71.5 121.5t25.5 205.5q0 116 -23 193.5t-66.5 123.5t-107.5 65t-145 19h-39v-800z" />
<glyph unicode="E" horiz-adv-x="1248" d="M160 1414h992v-262h-544v-279h480v-256h-480v-329h544v-288h-992v1414z" />
<glyph unicode="F" horiz-adv-x="1152" d="M160 1414h928v-262h-480v-352h416v-288h-416v-512h-448v1414z" />
<glyph unicode="G" d="M864 -32q-165 0 -305.5 54.5t-243.5 153t-164 236.5t-61 305q0 163 66 296.5t180 228t273 146.5t351 52q103 0 218.5 -15t229.5 -49l-64 -320q-103 37 -188 50.5t-164 13.5q-105 0 -188.5 -29t-144 -82t-91 -128t-30.5 -166q0 -100 20 -179.5t66 -134.5t112.5 -84 t159.5 -29h128v293l-224 -30v249h608v-676q-74 -44 -143 -74t-136 -48t-132.5 -26t-132.5 -8z" />
<glyph unicode="H" horiz-adv-x="1632" d="M160 1414h448v-550h416v550h448v-1414h-448v576h-416v-576h-448v1414z" />
<glyph unicode="I" horiz-adv-x="768" d="M141 1414h448v-1414h-448v1414z" />
<glyph unicode="J" horiz-adv-x="992" d="M352 -32q-91 0 -175.5 13t-144.5 51v288q67 -21 124.5 -26.5t99.5 -5.5q52 0 78.5 24.5t37.5 61t11.5 80t0.5 82.5v878h448v-985q0 -120 -42 -207t-109.5 -143.5t-154 -83.5t-174.5 -27z" />
<glyph unicode="K" horiz-adv-x="1508" d="M608 608v-608h-448v1414h448v-550h32l288 550h512l-416 -678l416 -736h-512l-288 608h-32z" />
<glyph unicode="L" horiz-adv-x="1152" d="M160 1414h448v-1126h480v-288h-928v1414z" />
<glyph unicode="M" horiz-adv-x="1877" d="M160 1414h416l352 -550l352 550h426v-1414h-458v768l-330 -559h-97l-341 559v-768h-320v1414z" />
<glyph unicode="N" horiz-adv-x="1536" d="M84 1414h433l539 -710l-1 710h341l1 -1414h-444l-530 752v-752h-339v1414z" />
<glyph unicode="O" horiz-adv-x="1549" d="M763 256q125 0 190.5 118.5t65.5 344.5q0 104 -17 189.5t-49.5 147t-80.5 95t-109 33.5q-62 0 -109.5 -33.5t-80 -95t-49.5 -147t-17 -189.5q0 -226 65.5 -344.5t190.5 -118.5zM763 -32q-131 0 -234.5 29.5t-181.5 82t-133 124t-89.5 155t-50 176t-15.5 186.5 q0 91 19 179.5t57 168.5t96 148.5t136.5 118t177 77.5t218.5 28t218.5 -28t177 -77.5t136.5 -118t96 -148.5t57 -168.5t19 -179.5q0 -94 -15.5 -186.5t-50 -176t-89.5 -155t-133 -124t-181.5 -82t-234.5 -29.5z" />
<glyph unicode="P" horiz-adv-x="1440" d="M160 1414h546q135 0 237 -20.5t176.5 -52t124 -76t79 -97.5t41.5 -114t12 -126q0 -82 -28.5 -162.5t-98 -144t-187 -102.5t-294.5 -39q-18 0 -45 0.5t-53 2.5q-30 2 -62 4v-487h-448v1414zM608 704h128q72 0 121 17.5t79 47.5t43 71t13 88q0 66 -19 109t-53.5 68.5 t-81.5 36t-102 10.5h-128v-448z" />
<glyph unicode="Q" horiz-adv-x="1600" d="M1298 -416q-143 0 -245.5 17.5t-175 61t-120 117.5t-80.5 188q-107 13 -192.5 49t-152 90.5t-113.5 123.5t-77.5 148.5t-45 165.5t-14.5 174q0 91 18.5 180t56 169t95 148t136 118t177.5 78t221 28q134 0 238 -28t182.5 -78t132.5 -118t87.5 -148t48.5 -169t15 -180 q0 -115 -24 -227.5t-79 -209.5t-145.5 -173.5t-222.5 -119.5q11 -29 41 -45.5t72 -25.5t93.5 -11.5t104.5 -2.5zM786 256q125 0 190.5 118.5t65.5 344.5q0 104 -17 189.5t-49.5 147t-80.5 95t-109 33.5q-62 0 -109.5 -33.5t-80 -95t-49.5 -147t-17 -189.5 q0 -226 65.5 -344.5t190.5 -118.5z" />
<glyph unicode="R" d="M160 1414h556q174 0 303.5 -41t216 -104t129.5 -143.5t43 -165.5q0 -65 -13 -128.5t-46 -119.5t-90.5 -102t-146.5 -74q7 -23 24 -58.5t39 -78t48 -88.5t52 -90q61 -105 133 -221h-512q-33 74 -64 155q-13 34 -27 73.5t-26.5 81t-23.5 85t-19 85.5h-128v-480h-448v1414z M684 704q76 0 128.5 20t85.5 52t47.5 72t14.5 80q0 70 -22 114t-60 68.5t-88 33t-107 8.5h-75v-448h76z" />
<glyph unicode="S" horiz-adv-x="1408" d="M680 -32q-129 0 -260 21t-260 75v320q107 -53 225.5 -74.5t241.5 -21.5q81 0 111 25.5t30 70.5q0 25 -9.5 44t-32.5 37t-60.5 36.5t-93.5 41.5q-43 18 -93 40t-99 51.5t-94.5 68t-80.5 88t-56 111.5t-21 140q0 79 30.5 151.5t99 127t178 87t268.5 32.5q54 0 122.5 -5.5 t138 -17t135.5 -29.5t116 -44l-32 -288q-19 8 -68 24t-113 32t-135 28t-132 12q-32 0 -60.5 -4.5t-51 -14t-35.5 -25t-13 -37.5q0 -23 19.5 -43.5t53.5 -39.5t79 -38.5t96 -41.5q45 -19 94 -44.5t96 -57.5t89.5 -72t74.5 -88t51 -105.5t19 -124.5q0 -85 -30 -165.5 t-97 -143.5t-175.5 -101t-265.5 -38z" />
<glyph unicode="T" horiz-adv-x="1248" d="M416 0v1088h-320v326h1095v-326h-327v-1088h-448z" />
<glyph unicode="U" d="M768 -32q-149 0 -267.5 44t-201.5 132t-127 220.5t-44 309.5v740h480v-742q0 -99 10 -176t34 -130.5t64 -81.5t100 -28q66 0 106.5 28t63 81.5t30.5 130.5t8 176v742h342v-740q0 -356 -143.5 -531t-454.5 -175z" />
<glyph unicode="V" horiz-adv-x="1440" d="M64 1414h544l206 -1055l242 1055h352l-383 -1414h-609z" />
<glyph unicode="W" horiz-adv-x="1984" d="M1024 800l-145 -800h-591l-256 1414h506l141 -1134l175 1134h426l172 -1136l148 1136h352l-224 -1414h-544z" />
<glyph unicode="X" d="M1088 704l352 -704h-544l-180 533l-242 -533h-410l352 704l-352 710h544l216 -501l232 501h384z" />
<glyph unicode="Y" horiz-adv-x="1366" d="M493 0v486l-448 928h544l162 -489l158 489h416l-405 -915v-499h-427z" />
<glyph unicode="Z" horiz-adv-x="1088" d="M992 1414v-326l-416 -768h403v-320h-883v317l483 771h-469v326h882z" />
<glyph unicode="[" horiz-adv-x="905" d="M92 1616h721v-325h-260v-966h260v-325h-721v1616z" />
<glyph unicode="\" horiz-adv-x="900" d="M451 1426l402 -1426h-451l-402 1426h451z" />
<glyph unicode="]" horiz-adv-x="905" d="M813 0h-721v325h259v966h-259v325h721v-1616z" />
<glyph unicode="^" horiz-adv-x="1200" d="M100 512l300 688h400l300 -688h-344l-156 488l-151 -488h-349z" />
<glyph unicode="_" horiz-adv-x="1000" d="M1000 0v-300h-1000v300h1000z" />
<glyph unicode="`" horiz-adv-x="608" d="M288 1219l-256 634h448l96 -634h-288z" />
<glyph unicode="a" horiz-adv-x="1387" d="M420 -32q-63 0 -121.5 18t-103.5 55t-72 92.5t-27 130.5q0 80 25.5 138.5t68 100t98.5 67t117 40t123 19.5t118 5q32 0 59.5 -1.5t48 -3t33 -2.5t13.5 -1v46q0 48 -15 79t-41 49t-61 25t-75 7q-77 0 -146.5 -10t-122.5 -22q-62 -14 -115 -32l-64 288q79 18 169 32 q77 12 175.5 23t206.5 11q101 0 192.5 -24.5t161 -78.5t110.5 -143t41 -221v-655h-416v179q-22 -49 -63 -88t-92.5 -66.5t-109.5 -42t-115 -14.5zM589 206q28 0 57 10t57 25.5t53 34t44 34.5v157h-33q-48 0 -98.5 -10t-92.5 -30t-69 -49t-27 -67q0 -30 10 -50t25.5 -32.5 t35 -17.5t38.5 -5z" />
<glyph unicode="b" horiz-adv-x="1546" d="M956 -32q-57 0 -113 14.5t-106 41.5t-91.5 66t-69.5 88v-178h-416v1536h416v-605q25 43 67.5 78t95 60t112 39t119.5 14q58 0 116 -14t110 -42t96.5 -72t77.5 -107t51.5 -145.5t18.5 -186.5q0 -153 -39.5 -264t-106.5 -182.5t-154.5 -106t-183.5 -34.5zM768 266 q32 0 71 8t73 37.5t57 87t23 156.5q0 71 -10.5 120t-28 81t-40 49.5t-47 26t-49 10t-45.5 1.5q-38 0 -73.5 -15.5t-62.5 -49t-43.5 -87.5t-16.5 -132q0 -81 16 -137t42.5 -90.5t61 -50t72.5 -15.5z" />
<glyph unicode="c" horiz-adv-x="1182" d="M700 -32q-125 0 -235 36.5t-192.5 109.5t-130.5 183.5t-48 259.5q0 112 40 214t116 179.5t186.5 124.5t251.5 47q97 0 199 -16t199 -50l-32 -288q-54 34 -123 47.5t-135 13.5q-56 0 -102.5 -18t-80.5 -52.5t-52.5 -85.5t-18.5 -118q0 -135 66.5 -205.5t178.5 -70.5 q72 0 136 19.5t131 53.5l64 -288q-44 -23 -95 -40.5t-105 -30t-109.5 -19t-108.5 -6.5z" />
<glyph unicode="d" horiz-adv-x="1588" d="M582 -32q-60 0 -119 15t-112 46t-98 79t-78 113t-51.5 148.5t-18.5 185.5q0 156 41 264t107.5 175t150 97.5t168.5 30.5q63 0 123 -15t112.5 -41t94 -62.5t67.5 -82.5v615h448v-1536h-448v209q-27 -56 -68.5 -100.5t-92.5 -75.5t-108.5 -48t-117.5 -17zM772 266 q39 0 75 15t63 47.5t43 85t16 127.5v18q0 78 -16 132t-43 87.5t-63 49t-76 15.5q-18 0 -41.5 -1.5t-48 -10t-47.5 -26t-41 -49.5t-29 -81t-11 -120q0 -66 11 -113t29 -79t41.5 -51.5t48 -29.5t47.5 -13t42 -3z" />
<glyph unicode="e" horiz-adv-x="1309" d="M1151 332v-289q-93 -31 -206 -53t-234 -22q-123 0 -235 34.5t-196.5 107t-134.5 183.5t-50 264q0 96 26.5 175t72.5 141.5t107.5 109t131.5 77t145 46.5t147 16q110 0 195 -29t143.5 -73.5t89 -100.5t30.5 -112q0 -97 -40 -164t-103.5 -99t-140 -52t-154.5 -20 q-48 0 -106 4.5t-100 10.5q0 -37 27 -123q15 -48 50 -70q44 -27 70 -32q78 -13 103 -13q68 0 137.5 10.5t224.5 72.5zM539 631q23 1 57.5 3t73.5 7t77.5 14t69.5 23t50.5 35t19.5 51q0 58 -39 95t-104 37q-32 0 -67 -10.5t-64.5 -39.5t-50 -80.5t-23.5 -134.5z" />
<glyph unicode="f" horiz-adv-x="1022" d="M640 0h-416v832h-171l-1 247h170l2 40q5 139 38 213q39 86 104 138.5t149 75t176 22.5q88 0 163 -19t138 -45l-32 -257q-29 7 -52.5 13t-44 10.5t-38.5 7t-36 2.5q-37 0 -65 -9t-46.5 -29t-27.5 -54q-6 -21 -10 -83l-2 -26h320q-14 -66 -22 -124.5t-8 -122.5h-288v-832z " />
<glyph unicode="g" horiz-adv-x="1539" d="M952 219q-127 -146 -278 -155q-34 -1 -65 -1q-108 0 -183 22q-97 29 -172 80t-120.5 150.5t-45.5 239.5q0 156 41 264t107.5 175t150 97.5t168.5 30.5q62 0 119.5 -18t112 -46.5t108.5 -76.5t81 -113q0 30 -2 62.5t-3.5 57t-5 49t-11.5 51.5h414v-906q0 -174 -45.5 -299 t-123.5 -206t-181.5 -135.5t-219.5 -54.5q-118 0 -229.5 13t-211.5 35l30 297q58 -11 113 -20q47 -8 96 -14t83 -6q86 0 139.5 27t83 97.5t40 134t10.5 135.5v33zM770 300q51 0 86 24t56.5 61.5t30.5 83.5t9 90q0 78 -14.5 132t-39.5 87.5t-58.5 49t-70.5 15.5 q-17 0 -38.5 -1.5t-44 -10t-43.5 -26t-38 -49.5t-27 -81t-10 -120q0 -89 22 -140t53.5 -76.5t66 -32t60.5 -6.5z" />
<glyph unicode="h" horiz-adv-x="1473" d="M160 1536h448v-605q29 44 73 79t96.5 59.5t111.5 38.5t118 14q75 0 142 -24.5t117.5 -77.5t80 -137.5t29.5 -205.5v-677h-448v570q0 75 -12.5 127t-32.5 84.5t-45.5 47t-51.5 14.5q-30 0 -59.5 -13.5t-53.5 -36.5t-41.5 -54t-23.5 -66v-673h-448v1536z" />
<glyph unicode="i" horiz-adv-x="736" d="M171 1079h416v-1079h-416v1079zM381 1301q-57 0 -107 12t-86.5 33t-58 51t-21.5 66q0 40 21 70.5t58 50.5t87 30t108 10t108.5 -10t87.5 -30t58 -50.5t21 -70.5q0 -36 -21.5 -66t-58.5 -51t-87.5 -33t-108.5 -12z" />
<glyph unicode="j" horiz-adv-x="848" d="M288 -416q-79 0 -152 4.5t-136 27.5v287q24 -9 41.5 -15t32 -9.5t27 -5t27.5 -1.5q42 0 67.5 16.5t39 43.5t17.5 62t4 73v1012h448v-1035q0 -132 -33.5 -220.5t-90.5 -141.5t-132.5 -75.5t-159.5 -22.5zM478 1318q-57 0 -107 12t-86.5 33t-58 51t-21.5 66q0 40 21 70.5 t58 50.5t87 30t108 10t108.5 -10t87.5 -30t58 -50.5t21 -70.5q0 -36 -21.5 -66t-58.5 -51t-87.5 -33t-108.5 -12z" />
<glyph unicode="k" horiz-adv-x="1351" d="M626 626l302 453h443l-341 -498l361 -581h-500l-269 495h-14v-495h-448v1536h448v-910h18z" />
<glyph unicode="l" horiz-adv-x="832" d="M192 1536h448v-1536h-448v1536z" />
<glyph unicode="m" horiz-adv-x="2304" d="M168 1079h445q-17 -57 -23.5 -102t-6.5 -101q26 49 70.5 92.5t99 76t115 55t118.5 22.5q49 0 97 -16t90.5 -43t78.5 -69.5t62 -103.5q30 52 76 95t103 73.5t120.5 47t128.5 16.5q84 0 162 -24.5t138 -78.5t76 -139q15 -84 15 -207l2 -673h-407l-2 564q0 74 -13 125 t-35 84t-51.5 48t-61.5 15q-30 0 -64 -15t-62 -42t-47 -65q-18 -38 -18 -83l2 -631h-416l-2 564q0 76 -16 127q-15 52 -38.5 85t-52 47.5t-53.5 14.5q-33 0 -67.5 -13.5t-62 -36.5t-45 -54t-17.5 -66l2 -668h-438z" />
<glyph unicode="n" horiz-adv-x="1568" d="M169 1079h447q-18 -56 -24 -99t-6 -99q34 55 85 99.5t112.5 75.5t131 48.5t139.5 17.5q78 0 148 -24.5t123 -77t84 -137t31 -205.5v-678h-448v570q0 75 -13.5 127t-35.5 84.5t-50 47t-57 14.5q-38 0 -75 -13.5t-70.5 -36.5t-56 -54t-30.5 -66v-673h-435v1079z" />
<glyph unicode="o" horiz-adv-x="1472" d="M705 -32q-122 0 -216.5 23t-165.5 63.5t-120.5 96.5t-80 121.5t-44 138t-13.5 146.5q0 71 13.5 141t44 132.5t79.5 115.5t120 91.5t166 61.5t217 23t217 -23t166 -61.5t120 -91.5t79.5 -115.5t44 -132.5t13.5 -141q0 -74 -13.5 -146.5t-44 -138t-80 -121.5t-120.5 -96.5 t-165.5 -63.5t-216.5 -23zM705 268q54 0 90.5 24.5t59 65t32.5 92t10 105.5q0 51 -10 100t-32.5 88t-59 62.5t-90.5 23.5t-90.5 -23.5t-59 -62.5t-32.5 -88t-10 -100q0 -54 9.5 -105.5t32 -92t59.5 -65t91 -24.5z" />
<glyph unicode="p" horiz-adv-x="1548" d="M160 1088h456q-17 -53 -23.5 -104.5t-6.5 -102.5q29 54 73.5 98t98.5 75.5t113 49.5t117 18q88 0 169.5 -33t144.5 -101t100.5 -175.5t37.5 -257.5q0 -108 -19 -193.5t-52.5 -151t-78.5 -111.5t-97.5 -75t-110 -42.5t-114.5 -13.5q-59 0 -114.5 13t-103 36t-84.5 54 t-58 67v-570h-448v1520zM794 266q17 0 38.5 1.5t43.5 10t43 26t37 50t26 81.5t10 120q0 99 -20.5 156.5t-50.5 86.5t-63.5 37t-59.5 8q-38 0 -72.5 -15t-60.5 -49.5t-41.5 -90.5t-15.5 -138q0 -78 15 -132t40.5 -87.5t59 -49t71.5 -15.5z" />
<glyph unicode="q" horiz-adv-x="1559" d="M940 -432v570q-21 -38 -58 -69.5t-85 -54t-104 -34.5t-114 -12q-86 0 -170 30t-150.5 98.5t-108 181t-41.5 277.5q0 150 37.5 257.5t100.5 175.5t145 101t170 33q58 0 113.5 -13.5t105 -37.5t90.5 -59t69 -81v157h448v-1520h-448zM755 266q38 0 71.5 15.5t59 49t40 87.5 t14.5 132v19q0 75 -15.5 127t-41.5 84.5t-60.5 47.5t-71.5 15q-30 0 -69.5 -8t-74.5 -37t-59 -86.5t-24 -156.5q0 -71 11.5 -120t30 -81.5t43 -50t50 -26t50.5 -10t46 -1.5z" />
<glyph unicode="r" horiz-adv-x="1088" d="M169 1079h411q-4 -51 -4 -122.5v-137.5q2 1 76 113q42 64 76 98q39 42 90 64q66 28 109 28q30 0 63 -10t67 -24l-65 -448q-23 16 -48.5 28t-51 20t-49.5 12t-43 4q-46 0 -80 -12.5t-57 -32.5t-36.5 -44t-18.5 -47v-568h-439v1079z" />
<glyph unicode="s" horiz-adv-x="1170" d="M605 -32q-109 0 -214.5 18.5t-198.5 60.5v293q40 -17 88.5 -31t99 -24t100.5 -15t94 -5q67 0 98.5 11t31.5 45q0 20 -23.5 36.5t-61.5 32.5t-87 33.5t-100 40.5t-100 53.5t-87 72t-61.5 96t-23.5 125.5q0 61 28.5 117t83 99t134.5 69t183 26q87 0 158 -10t124 -22 t88 -24.5t50 -19.5l-29 -257q-31 16 -67.5 30t-74 24.5t-73 16.5t-65.5 6q-69 0 -96.5 -15t-27.5 -51q0 -20 14 -35t38 -28t56.5 -25t70.5 -26q47 -18 100 -47t97.5 -74t74 -109.5t29.5 -153.5q0 -65 -27 -125t-83 -106.5t-141 -74.5t-200 -28z" />
<glyph unicode="t" horiz-adv-x="1075" d="M677 -32q-92 0 -174 23t-144 77t-98.5 143t-36.5 221v400h-215v64l471 512h160v-329h320q-13 -68 -22.5 -124t-9.5 -123h-288v-376q0 -36 5.5 -69t22.5 -58t49 -40t85 -15q34 0 75 7t93 24l24 -282q-63 -23 -145 -39t-172 -16z" />
<glyph unicode="u" horiz-adv-x="1547" d="M1376 0h-455q11 34 20.5 87.5t9.5 141.5q-32 -58 -81 -106t-108.5 -82.5t-126 -53.5t-133.5 -19q-74 0 -141.5 26t-119.5 82t-82.5 144t-30.5 212v647h448v-539q0 -75 11.5 -127t31.5 -84.5t46 -47t55 -14.5q34 0 68.5 13.5t63 36.5t49 54t27.5 66v642h448v-1079z" />
<glyph unicode="v" horiz-adv-x="1376" d="M64 1079h485l187 -808l209 808h367l-345 -1079h-547z" />
<glyph unicode="w" horiz-adv-x="2016" d="M64 1079h460l161 -818l161 818h470l180 -818l114 818h342l-224 -1079h-556l-139 698l-126 -698h-584z" />
<glyph unicode="x" horiz-adv-x="1408" d="M1013 562l360 -562h-490l-209 359l-188 -359h-363l307 556l-360 523h490l219 -329l181 329h363z" />
<glyph unicode="y" horiz-adv-x="1472" d="M896 1079h416v-928q0 -169 -48.5 -288.5t-130.5 -195.5t-190 -111.5t-228 -35.5q-54 0 -109.5 2.5t-109.5 8.5t-105 15t-96 22l30 312q57 -11 111 -20q23 -4 47.5 -7.5t48 -6.5t45 -4.5t39.5 -1.5q93 0 148.5 24t85 66t38 99.5t8.5 125.5v33q-20 -38 -53.5 -67t-75 -48.5 t-87 -30t-88.5 -10.5q-80 0 -152 24.5t-127.5 77t-88 134.5t-32.5 196v615h384v-595q0 -72 18.5 -113.5t47 -62.5t62 -27t63.5 -6q26 0 49.5 15.5t41 39t28 52t10.5 54.5v643z" />
<glyph unicode="z" horiz-adv-x="1152" d="M634 271h387q-12 -62 -18.5 -129t-6.5 -142h-868v271l380 561h-380l25 247h843v-253z" />
<glyph unicode="{" horiz-adv-x="900" d="M250 1055q0 117 36 222.5t106 185t172.5 126.5t235.5 47v-227q-38 0 -58 -23t-29.5 -60t-11 -84.5t-1.5 -96.5q0 -56 -18 -116.5t-55 -113.5t-93.5 -94t-133.5 -59q77 -19 133.5 -63t93.5 -101.5t55 -122.5t18 -125q0 -44 2 -86t11 -75t29 -53t58 -20v-227 q-133 0 -235.5 47t-172.5 126.5t-106 185t-36 222.5q0 37 -12 63t-32.5 41.5t-47.5 22.5t-58 7v317q31 0 58 7t47.5 22.5t32.5 41t12 63.5z" />
<glyph unicode="|" horiz-adv-x="800" d="M200 1600h400v-1700h-400v1700z" />
<glyph unicode="}" horiz-adv-x="900" d="M650 1055q0 -38 12 -63.5t32.5 -41t47.5 -22.5t58 -7v-317q-31 0 -58 -7t-47.5 -22.5t-32.5 -41.5t-12 -63q0 -117 -36 -222.5t-106 -185t-172.5 -126.5t-235.5 -47v227q37 0 57.5 20t30 53t11 75t1.5 86q0 60 18 125t55 122.5t93.5 101.5t133.5 63q-77 18 -133.5 59 t-93.5 94t-55 113.5t-18 116.5q0 49 -1.5 96.5t-11 84.5t-30 60t-57.5 23v227q133 0 235.5 -47t172.5 -126.5t106 -185t36 -222.5z" />
<glyph unicode="~" horiz-adv-x="1400" d="M885 836q-39 0 -76.5 14t-75 35.5t-74 46t-72.5 46t-71.5 35.5t-70.5 14q-57 0 -100 -32.5t-60 -101.5l-230 83q36 99 85 171t108 119.5t125.5 70.5t135.5 23q38 0 76 -14t75.5 -35.5t74 -46t72.5 -46t71 -35.5t70 -14q56 0 97 24.5t58 78.5l231 -83q-35 -91 -84 -157.5 t-107 -110t-123.5 -64.5t-134.5 -21z" />
<glyph unicode="&#xa1;" horiz-adv-x="807" d="M192 18l64 896h320l64 -896h-448zM416 1458q66 0 114 -17t80 -44q34 -29 48 -61q15 -35 15 -70q0 -33 -17 -70q-17 -36 -48 -62q-31 -25 -81 -43q-48 -17 -111 -17q-60 0 -111 17q-46 15 -80 44q-33 28 -49 62t-16 70q0 35 16 69q15 34 46.5 61t80 44t113.5 17z" />
<glyph unicode="&#xa2;" horiz-adv-x="1200" d="M565 156q-99 16 -184.5 60.5t-147.5 115.5t-97.5 169.5t-35.5 224.5q0 100 31 193.5t90.5 169t146 128.5t197.5 71v138h217v-136q75 -8 159.5 -26t158.5 -47v-291q-33 16 -72 28.5t-80 20t-83 11.5t-81 4q-53 0 -96.5 -17t-75 -51t-49 -83.5t-17.5 -114.5q0 -131 62 -200 t167 -69q89 0 168 16t157 49v-286q-72 -33 -154.5 -53.5t-163.5 -29.5v-151h-217v156z" />
<glyph unicode="&#xa3;" horiz-adv-x="1312" d="M211 832q12 104 32 187q28 114 72 189t108 119.5t149.5 62.5t195.5 18q127 0 207.5 -25.5t127 -74.5t64 -120.5t17.5 -163.5h-256q0 33 -4 62t-17.5 50.5t-38.5 34.5t-68 13q-60 0 -92.5 -39t-47.5 -129q-12 -73 -17 -184h253v-256h-256v-160q0 -32 -1.5 -67.5 t-3.5 -65.5q20 -3 44 -8t47.5 -9t43 -7t30.5 -3q36 0 55.5 11.5t28.5 29.5t10.5 41t1.5 46h320q0 -120 -33.5 -200t-88 -128t-123.5 -68t-139 -20q-96 0 -162 11t-110.5 29t-70.5 41t-41 47q-69 -57 -175 -76.5t-241 -19.5v257q31 0 59.5 5.5t51 20t36 39t13.5 62.5 q0 102 2 192h-162v256h179z" />
<glyph unicode="&#xa4;" horiz-adv-x="1463" d="M588 298q-104 0 -183 35t-132 92t-80 130t-27 150t26.5 150t79.5 130t132 91.5t184 34.5q104 0 183 -34.5t132 -91.5t79.5 -130t26.5 -150t-27 -150t-80 -130t-131.5 -92t-182.5 -35zM587 474q53 0 94 20t68.5 52t41.5 73.5t14 85.5q0 43 -14 84.5t-41.5 74t-68 52 t-94.5 19.5t-95.5 -19.5t-69 -52t-41.5 -74t-14 -84.5q0 -44 14 -85.5t42 -73.5t69 -52t95 -20z" />
<glyph unicode="&#xa5;" horiz-adv-x="1400" d="M853 1408h470l-303 -544h280v-256h-400v-160h400v-256h-400v-192h-400v192h-400v256h400v160h-400v256h280l-303 544h470l153 -381z" />
<glyph unicode="&#xa6;" horiz-adv-x="768" d="M192 1600h384v-736h-384v736zM192 640h384v-736h-384v736z" />
<glyph unicode="&#xa7;" horiz-adv-x="1100" d="M92 1166q0 60 32.5 116t96.5 100t158.5 70.5t217.5 26.5q66 0 138.5 -12.5t154.5 -40.5v-249q-17 8 -44.5 15.5t-63 13.5t-75.5 9.5t-80 3.5q-34 0 -66 -3.5t-57 -12t-40 -22.5t-15 -35q0 -18 23 -32.5t60.5 -28t85 -28t97.5 -33t97.5 -42.5t85 -57t60.5 -77t23 -101 q0 -52 -23 -104t-71 -97q54 -39 89 -98t35 -147q0 -64 -29.5 -123.5t-91 -105.5t-155.5 -73.5t-224 -27.5q-72 0 -158 10t-180 30v259q102 -24 180.5 -34.5t137.5 -10.5q78 0 115 20.5t37 53.5q0 25 -40 43.5t-100.5 37.5t-130.5 42.5t-130.5 60t-100.5 89t-40 129.5 q0 56 24.5 112t75.5 104q-48 40 -78.5 100t-30.5 149zM686 701q0 18 -22 34.5t-59.5 33.5t-86.5 34.5t-103 37.5q-8 -15 -15 -38t-7 -50q0 -17 22.5 -32t60 -30.5t87 -31.5t103.5 -34q11 17 15.5 37.5t4.5 38.5z" />
<glyph unicode="&#xa8;" horiz-adv-x="1200" d="M308 1197q-51 0 -90 17.5t-65.5 46t-39.5 64.5t-13 74t13 74t39 64.5t65 45.5t91 17t91 -17t65 -45.5t39.5 -64.5t13.5 -74t-13.5 -74t-39.5 -64.5t-65 -46t-91 -17.5zM891 1197q-51 0 -90 17.5t-65.5 46t-39.5 64.5t-13 74t13 74t39 64.5t65 45.5t91 17t91 -17t65 -45.5 t39.5 -64.5t13.5 -74t-13.5 -74t-39.5 -64.5t-65 -46t-91 -17.5z" />
<glyph unicode="&#xa9;" horiz-adv-x="1800" d="M299 700q0 -78 8.5 -153.5t32 -143.5t65.5 -125.5t109 -100t161.5 -66t224.5 -23.5t224.5 23.5t161.5 66t109 100t65.5 125.5t32 143.5t8.5 153.5t-8.5 153.5t-32 143.5t-65.5 125.5t-109 100t-162 66t-224 23.5t-224 -23.5t-162 -66t-109 -100t-65.5 -125.5t-32 -143.5 t-8.5 -153.5zM0 700q0 103 16.5 206t56 196t105.5 173.5t166 139.5t237.5 92.5t318.5 33.5t318.5 -33.5t237.5 -92.5t166 -139.5t105.5 -173.5t56 -196t16.5 -206t-16.5 -206t-56 -196t-105.5 -173.5t-166 -139.5t-237.5 -92.5t-318.5 -33.5t-318.5 33.5t-237.5 92.5 t-166 139.5t-105.5 173.5t-56 195.5t-16.5 206.5zM919 238q-92 0 -172.5 30t-140.5 89t-95 148t-35 208q0 88 29 169.5t84.5 143.5t136 99t183.5 37q76 0 152 -15.5t152 -50.5l-16 -232q-42 26 -97 38.5t-106 12.5q-44 0 -81 -14t-63.5 -41t-41.5 -66.5t-15 -91.5 q0 -106 52.5 -161t141.5 -55q111 0 214 52l26 -228q-69 -35 -147 -53.5t-161 -18.5z" />
<glyph unicode="&#xaa;" horiz-adv-x="960" d="M318 330q-43 0 -83 12t-71 38t-49.5 64t-18.5 89q0 55 17.5 95t46.5 68.5t67.5 46t80.5 27.5t84 13.5t81 3.5q22 0 41 -1t33 -2t22.5 -1.5t9.5 -0.5v31q0 32 -10 53.5t-28.5 34t-42 17.5t-51.5 5q-53 0 -100.5 -7.5t-84.5 -14.5q-42 -10 -78 -23l-44 198q54 12 116 22 q52 9 120 15.5t141 6.5q70 0 132.5 -16t110.5 -53.5t76 -98t28 -151.5v-449h-285v122q-15 -33 -43.5 -59.5t-63.5 -45.5t-75 -29t-79 -10zM434 493q20 0 39.5 7t39 17.5t36.5 23t30 23.5v109h-23q-33 0 -67.5 -7.5t-63 -21t-47 -33.5t-18.5 -46q0 -20 6.5 -34t17 -22.5 t24 -12t26.5 -3.5z" />
<glyph unicode="&#xab;" horiz-adv-x="1120" d="M544 200l-448 400v300l448 400v-400l-176 -150l176 -150v-400zM1056 200l-448 400v300l448 400v-400l-176 -150l176 -150v-400z" />
<glyph unicode="&#xac;" horiz-adv-x="992" d="M896 832v-303h-576v-241h-224v544h800z" />
<glyph unicode="&#xad;" horiz-adv-x="992" d="M896 832v-320h-800v320h800z" />
<glyph unicode="&#xae;" horiz-adv-x="1800" d="M581 1160h310q101 0 177.5 -21t128 -57t77.5 -83.5t26 -99.5q0 -35 -8.5 -69.5t-30 -65.5t-58.5 -56t-94 -40q7 -33 18.5 -67t26.5 -68t31.5 -66t32.5 -61q38 -68 82 -133h-289q-24 44 -48 100q-20 48 -42 116t-39 153h-37v-374h-264v892zM866 779q48 0 80.5 8.5t53 22.5 t29 32t8.5 36q0 40 -13.5 62.5t-37 33.5t-54.5 13.5t-67 2.5h-20v-211h21zM299 700q0 -78 8.5 -153.5t32 -143.5t65.5 -125.5t109 -100t161.5 -66t224.5 -23.5t224.5 23.5t161.5 66t109 100t65.5 125.5t32 143.5t8.5 153.5t-8.5 153.5t-32 143.5t-65.5 125.5t-109 100 t-162 66t-224 23.5t-224 -23.5t-162 -66t-109 -100t-65.5 -125.5t-32 -143.5t-8.5 -153.5zM0 700q0 103 16.5 206t56 196t105.5 173.5t166 139.5t237.5 92.5t318.5 33.5t318.5 -33.5t237.5 -92.5t166 -139.5t105.5 -173.5t56 -196t16.5 -206t-16.5 -206t-56 -196 t-105.5 -173.5t-166 -139.5t-237.5 -92.5t-318.5 -33.5t-318.5 33.5t-237.5 92.5t-166 139.5t-105.5 173.5t-56 195.5t-16.5 206.5z" />
<glyph unicode="&#xaf;" horiz-adv-x="1000" d="M900 1545v-245h-800v245h800z" />
<glyph unicode="&#xb0;" horiz-adv-x="800" d="M401 823q-77 0 -135 26t-97 69t-59 97t-20 111q0 56 19.5 110t58.5 96t97 68t136 26t136.5 -26t97.5 -68t59 -96t20 -110q0 -57 -20 -111t-59 -97t-97.5 -69t-136.5 -26zM400 983q32 0 57 12t42 32.5t26 46t9 52.5t-8.5 52t-25.5 44.5t-42 31.5t-58 12t-58 -12 t-42.5 -31.5t-26 -44.5t-8.5 -52t9 -52.5t26 -46t42.5 -32.5t57.5 -12z" />
<glyph unicode="&#xb1;" horiz-adv-x="900" d="M300 604h-200v256h200v248h300v-248h200v-256h-200v-244h-300v244zM800 249v-249h-700v249h700z" />
<glyph unicode="&#xb2;" horiz-adv-x="1000" d="M541 600h359v-250h-739l-51 270q96 49 175 103.5t135 106.5t86.5 99t30.5 82q0 44 -8.5 72t-23.5 43.5t-35 21.5t-43 6q-33 0 -69.5 -4.5t-71.5 -11.5t-65 -15.5t-50 -16.5l-53 259q99 42 196 63t183 21q103 0 179 -33t126 -88.5t74 -130t24 -156.5q0 -55 -25.5 -116.5 t-72.5 -119t-113 -107t-148 -81.5v-17z" />
<glyph unicode="&#xb3;" horiz-adv-x="1000" d="M257 952h170q22 0 38.5 9t28 24t17.5 35t6 42q0 34 -11.5 57t-31 37t-45.5 20t-54 6q-33 0 -69 -5t-72 -14.5t-70 -22.5t-64 -29v254q81 43 166 63.5t190 20.5q135 0 221.5 -31.5t136 -83t68.5 -116.5t19 -132q0 -34 -9 -61t-24 -48.5t-34 -37.5t-39 -27 q-47 -27 -106 -38q71 -11 126 -41q24 -13 46.5 -31t40 -42.5t28.5 -56t11 -71.5q0 -61 -20 -120.5t-73 -106.5t-145.5 -76t-236.5 -29q-105 0 -195 19.5t-171 64.5v253q28 -18 63 -33t71.5 -25.5t72.5 -16.5t68 -6q28 0 54 6t45.5 20t31 37t11.5 57q0 21 -6 39.5t-17.5 32.5 t-28 22.5t-38.5 8.5h-170v173z" />
<glyph unicode="&#xb4;" horiz-adv-x="600" d="M128 1219l96 634h448l-256 -634h-288z" />
<glyph unicode="&#xb5;" horiz-adv-x="1547" d="M128 1088h448v-548q0 -75 11.5 -127t31.5 -84.5t46 -47t55 -14.5q34 0 68.5 13.5t63 36.5t49 54t27.5 66v651h448v-1088h-455q11 34 20.5 87.5t9.5 141.5q-29 -48 -56 -89.5t-69 -72.5t-108 -49t-174 -18v-352h-416v1440z" />
<glyph unicode="&#xb6;" horiz-adv-x="1400" d="M1300 0h-300v1100h-200v-1100h-300v700q-123 0 -204 31.5t-128 82.5t-66 114.5t-19 126.5q0 76 22.5 144t80.5 118t159 79.5t259 29.5h696v-1426z" />
<glyph unicode="&#xb7;" horiz-adv-x="815" d="M407 502q-69 0 -121 19t-86 50.5t-51 72t-17 82.5q0 44 18 86.5t52.5 76t86 54t119.5 20.5q67 0 119 -20.5t86.5 -54t52.5 -76t18 -85.5t-17 -83.5t-51.5 -72t-86.5 -50.5t-122 -19z" />
<glyph unicode="&#xb8;" horiz-adv-x="900" d="M200 0h200v-100q86 0 152 -29t110.5 -76.5t67.5 -108t23 -124.5q0 -65 -24.5 -128t-75.5 -112.5t-128.5 -79.5t-182.5 -30q-33 0 -68.5 3.5t-73.5 10.5v296q51 -9 91 -9q39 0 68.5 11t49 28.5t29.5 40t10 46.5q0 23 -9.5 45t-28 39.5t-47 28t-66.5 10.5q-45 0 -97 -18 v256z" />
<glyph unicode="&#xb9;" horiz-adv-x="701" d="M600 347h-348v753l-200 -41v213q42 15 92 37q43 19 99.5 48t122.5 69h234v-1079z" />
<glyph unicode="&#xba;" horiz-adv-x="960" d="M480 928q-72 0 -100 -46t-28 -131q0 -90 28 -132.5t100 -42.5t100 42.5t28 132.5q0 85 -28 131t-100 46zM480 1120q108 0 181.5 -32t118.5 -83.5t64.5 -117.5t19.5 -135q0 -70 -19.5 -137t-64.5 -118.5t-118.5 -83t-181.5 -29.5q-108 -2 -181.5 29.5t-118.5 83 t-64.5 118.5t-19.5 137q0 69 19.5 135t64.5 117.5t118.5 83.5t181.5 32z" />
<glyph unicode="&#xbb;" horiz-adv-x="1120" d="M608 600l176 150l-176 150v400l448 -400v-300l-448 -400v400zM96 600l176 150l-176 150v400l448 -400v-300l-448 -400v400z" />
<glyph unicode="&#xbc;" horiz-adv-x="2383" d="M600 347h-348v753l-200 -41v213q42 15 92 37q43 19 99.5 48t122.5 69h234v-1079zM1599 1426l-543 -1426h-456l517 1426h482zM2301 391h175v-239h-175v-204h-442v204h-502v239l348 666h596v-666zM1895 838l-241 -447h265v447h-24z" />
<glyph unicode="&#xbd;" horiz-adv-x="2400" d="M600 347h-348v753l-200 -41v213q42 15 92 37q43 19 99.5 48t122.5 69h234v-1079zM1542 1426l-524 -1426h-418l500 1426h442zM1941 250h359v-250h-739l-51 270q96 49 175 103.5t135 106.5t86.5 99t30.5 82q0 44 -8.5 72t-23.5 43.5t-35 21.5t-43 6q-33 0 -69.5 -4.5 t-71.5 -11.5t-65 -15.5t-50 -16.5l-53 259q99 42 196 63t183 21q103 0 179 -33t126 -88.5t74 -130t24 -156.5q0 -55 -25.5 -116.5t-72.5 -119t-113 -107t-148 -81.5v-17z" />
<glyph unicode="&#xbe;" horiz-adv-x="2600" d="M2141 250h359v-250h-739l-51 270q96 49 175 103.5t135 106.5t86.5 99t30.5 82q0 44 -8.5 72t-23.5 43.5t-35 21.5t-43 6q-33 0 -69.5 -4.5t-71.5 -11.5t-65 -15.5t-50 -16.5l-53 259q99 42 196 63t183 21q103 0 179 -33t126 -88.5t74 -130t24 -156.5q0 -55 -25.5 -116.5 t-72.5 -119t-113 -107t-148 -81.5v-17zM257 952h170q22 0 38.5 9t28 24t17.5 35t6 42q0 34 -11.5 57t-31 37t-45.5 20t-54 6q-33 0 -69 -5t-72 -14.5t-70 -22.5t-64 -29v254q81 43 166 63.5t190 20.5q135 0 221.5 -31.5t136 -83t68.5 -116.5t19 -132q0 -34 -9 -61t-24 -48.5 t-34 -37.5t-39 -27q-47 -27 -106 -38q71 -11 126 -41q24 -13 46.5 -31t40 -42.5t28.5 -56t11 -71.5q0 -61 -20 -120.5t-73 -106.5t-145.5 -76t-236.5 -29q-105 0 -195 19.5t-171 64.5v253q28 -18 63 -33t71.5 -25.5t72.5 -16.5t68 -6q28 0 54 6t45.5 20t31 37t11.5 57 q0 21 -6 39.5t-17.5 32.5t-28 22.5t-38.5 8.5h-170v173zM1800 1426l-524 -1426h-417l499 1426h442z" />
<glyph unicode="&#xbf;" horiz-adv-x="1376" d="M1024 672q-111 -10 -190 -25t-132.5 -34t-84.5 -41.5t-47.5 -47.5t-21 -52.5t-4.5 -55.5q0 -36 13 -65.5t34.5 -50.5t50.5 -32.5t62 -11.5q30 0 58 10t50.5 30t36.5 50t15 70h352q0 -96 -35 -178t-103.5 -142t-170 -94t-235.5 -34q-144 0 -247 34t-169 94t-97 142 t-31 178q0 78 32 153t95.5 136.5t159.5 104t225 54.5v160h352zM800 1504q65 0 113.5 -16.5t80 -43.5t47 -61.5t15.5 -70.5t-16.5 -70.5t-48.5 -61.5t-80 -43.5t-111 -16.5t-111 16.5t-80 43.5t-48.5 61t-16.5 70q0 37 15.5 71.5t47 61.5t79.5 43.5t114 16.5z" />
<glyph unicode="&#xc0;" d="M64 0zM1439 0h-534l-66 301h-351l-63 -301h-361l360 1414h626zM668 1194l-137 -659h286l-118 659h-31zM736 1539l-256 634h448l96 -634h-288z" />
<glyph unicode="&#xc1;" d="M64 0zM1439 0h-534l-66 301h-351l-63 -301h-361l360 1414h626zM668 1194l-137 -659h286l-118 659h-31zM480 1539l96 634h448l-256 -634h-288z" />
<glyph unicode="&#xc2;" d="M64 0zM1439 0h-534l-66 301h-351l-63 -301h-361l360 1414h626zM668 1194l-137 -659h286l-118 659h-31zM902 1568q-20 47 -58.5 152.5t-91.5 199.5q-54 -94 -92 -199.5t-58 -152.5h-300l200 544h500l200 -544h-300z" />
<glyph unicode="&#xc3;" d="M64 0zM1439 0h-534l-66 301h-351l-63 -301h-361l360 1414h626zM668 1194l-137 -659h286l-118 659h-31zM935 1565q-49 0 -99.5 22t-101 48.5t-99 48.5t-93.5 22q-33 0 -55 -32t-28 -104l-235 50q17 93 48.5 163t72.5 117.5t89 71.5t99 24q53 0 108 -22t109.5 -48.5 t107 -48.5t101.5 -22q34 0 57 32t29 104l235 -50q-20 -93 -55 -163t-81 -117.5t-99.5 -71.5t-109.5 -24z" />
<glyph unicode="&#xc4;" d="M64 0zM1439 0h-534l-66 301h-351l-63 -301h-361l360 1414h626zM668 1194l-137 -659h286l-118 659h-31zM460 1517q-51 0 -90 17.5t-65.5 46t-39.5 64.5t-13 74t13 74t39 64.5t65 45.5t91 17t91 -17t65 -45.5t39.5 -64.5t13.5 -74t-13.5 -74t-39.5 -64.5t-65 -46t-91 -17.5 zM1043 1517q-51 0 -90 17.5t-65.5 46t-39.5 64.5t-13 74t13 74t39 64.5t65 45.5t91 17t91 -17t65 -45.5t39.5 -64.5t13.5 -74t-13.5 -74t-39.5 -64.5t-65 -46t-91 -17.5z" />
<glyph unicode="&#xc5;" d="M64 0zM1439 0h-534l-66 301h-351l-63 -301h-361l360 1414h626zM668 1194l-137 -659h286l-118 659h-31zM656 1728q0 -41 25.5 -68.5t70.5 -27.5t70.5 27.5t25.5 68.5t-25.5 68.5t-70.5 27.5t-70.5 -27.5t-25.5 -68.5zM528 1728q0 38 14.5 72.5t43 61t70.5 42.5t96 16 t96 -16t70.5 -42.5t43 -61t14.5 -72.5t-14.5 -72.5t-43 -61t-70.5 -42.5t-96 -16t-96 16t-70.5 42.5t-43 61t-14.5 72.5z" />
<glyph unicode="&#xc6;" horiz-adv-x="1824" d="M1760 0h-928v288h-352l-128 -288h-352l622 1408h1106v-288h-480v-256h448v-288h-448v-288h512v-288zM800 1120l-224 -576h256v576h-32z" />
<glyph unicode="&#xc7;" horiz-adv-x="1344" d="M96 0zM863 -32q-156 0 -295 50.5t-244 146t-166.5 232t-61.5 307.5q0 180 55.5 317.5t156.5 231t242.5 141t313.5 47.5q45 0 104.5 -5t121 -13.5t120 -20.5t102.5 -26l-64 -320q-40 16 -92 28t-105.5 20t-103 12t-83.5 4q-90 0 -151.5 -30.5t-99 -86t-53.5 -132 t-16 -167.5q0 -97 24 -174t69 -131t110.5 -82.5t148.5 -28.5q75 0 168 24t184 72l62 -320q-112 -54 -225 -75t-222 -21zM696 0h200v-100q86 0 152 -29t110.5 -76.5t67.5 -108t23 -124.5q0 -65 -24.5 -128t-75.5 -112.5t-128.5 -79.5t-182.5 -30q-33 0 -68.5 3.5t-73.5 10.5 v296q51 -9 91 -9q39 0 68.5 11t49 28.5t29.5 40t10 46.5q0 23 -9.5 45t-28 39.5t-47 28t-66.5 10.5q-45 0 -97 -18v256z" />
<glyph unicode="&#xc8;" horiz-adv-x="1248" d="M160 0zM160 1414h992v-262h-544v-279h480v-256h-480v-329h544v-288h-992v1414zM608 1539l-256 634h448l96 -634h-288z" />
<glyph unicode="&#xc9;" horiz-adv-x="1248" d="M160 0zM160 1414h992v-262h-544v-279h480v-256h-480v-329h544v-288h-992v1414zM352 1539l96 634h448l-256 -634h-288z" />
<glyph unicode="&#xca;" horiz-adv-x="1248" d="M160 0zM160 1414h992v-262h-544v-279h480v-256h-480v-329h544v-288h-992v1414zM774 1568q-20 47 -58.5 152.5t-91.5 199.5q-54 -94 -92 -199.5t-58 -152.5h-300l200 544h500l200 -544h-300z" />
<glyph unicode="&#xcb;" horiz-adv-x="1248" d="M124 0zM160 1414h992v-262h-544v-279h480v-256h-480v-329h544v-288h-992v1414zM332 1517q-51 0 -90 17.5t-65.5 46t-39.5 64.5t-13 74t13 74t39 64.5t65 45.5t91 17t91 -17t65 -45.5t39.5 -64.5t13.5 -74t-13.5 -74t-39.5 -64.5t-65 -46t-91 -17.5zM915 1517 q-51 0 -90 17.5t-65.5 46t-39.5 64.5t-13 74t13 74t39 64.5t65 45.5t91 17t91 -17t65 -45.5t39.5 -64.5t13.5 -74t-13.5 -74t-39.5 -64.5t-65 -46t-91 -17.5z" />
<glyph unicode="&#xcc;" horiz-adv-x="768" d="M112 0zM141 1414h448v-1414h-448v1414zM368 1539l-256 634h448l96 -634h-288z" />
<glyph unicode="&#xcd;" horiz-adv-x="768" d="M113 0zM141 1414h448v-1414h-448v1414zM113 1539l96 634h448l-256 -634h-288z" />
<glyph unicode="&#xce;" horiz-adv-x="768" d="M0 0zM141 1414h448v-1414h-448v1414zM535 1568q-20 47 -58.5 152.5t-91.5 199.5q-54 -94 -92 -199.5t-58 -152.5h-300l200 544h500l200 -544h-300z" />
<glyph unicode="&#xcf;" horiz-adv-x="768" d="M0 0zM141 1414h448v-1414h-448v1414zM93 1517q-51 0 -90 17.5t-65.5 46t-39.5 64.5t-13 74t13 74t39 64.5t65 45.5t91 17t91 -17t65 -45.5t39.5 -64.5t13.5 -74t-13.5 -74t-39.5 -64.5t-65 -46t-91 -17.5zM676 1517q-51 0 -90 17.5t-65.5 46t-39.5 64.5t-13 74t13 74 t39 64.5t65 45.5t91 17t91 -17t65 -45.5t39.5 -64.5t13.5 -74t-13.5 -74t-39.5 -64.5t-65 -46t-91 -17.5z" />
<glyph unicode="&#xd0;" horiz-adv-x="1500" d="M151 0v579h-151v268h151v579h469q177 0 322 -44.5t248 -133.5t159 -223t56 -313q0 -134 -29 -239t-81 -184t-124.5 -134t-160.5 -89.5t-188 -50t-206 -15.5h-465zM800 847v-268h-249v-259h13h24.5t24.5 -0.5t13 -0.5q88 1 157.5 16.5t117.5 60t73.5 126t25.5 214.5 q0 111 -24 183.5t-70.5 115.5t-114.5 60t-156 17q-2 -1 -14 -1h-26h-44v-264h249z" />
<glyph unicode="&#xd1;" horiz-adv-x="1536" d="M84 0zM84 1414h433l539 -710l-1 710h341l1 -1414h-444l-530 752v-752h-339v1414zM951 1565q-49 0 -99.5 22t-101 48.5t-99 48.5t-93.5 22q-33 0 -55 -32t-28 -104l-235 50q17 93 48.5 163t72.5 117.5t89 71.5t99 24q53 0 108 -22t109.5 -48.5t107 -48.5t101.5 -22 q34 0 57 32t29 104l235 -50q-20 -93 -55 -163t-81 -117.5t-99.5 -71.5t-109.5 -24z" />
<glyph unicode="&#xd2;" horiz-adv-x="1549" d="M59 0zM763 256q125 0 190.5 118.5t65.5 344.5q0 104 -17 189.5t-49.5 147t-80.5 95t-109 33.5q-62 0 -109.5 -33.5t-80 -95t-49.5 -147t-17 -189.5q0 -226 65.5 -344.5t190.5 -118.5zM763 -32q-131 0 -234.5 29.5t-181.5 82t-133 124t-89.5 155t-50 176t-15.5 186.5 q0 91 19 179.5t57 168.5t96 148.5t136.5 118t177 77.5t218.5 28t218.5 -28t177 -77.5t136.5 -118t96 -148.5t57 -168.5t19 -179.5q0 -94 -15.5 -186.5t-50 -176t-89.5 -155t-133 -124t-181.5 -82t-234.5 -29.5zM784 1539l-256 634h448l96 -634h-288z" />
<glyph unicode="&#xd3;" horiz-adv-x="1549" d="M59 0zM763 256q125 0 190.5 118.5t65.5 344.5q0 104 -17 189.5t-49.5 147t-80.5 95t-109 33.5q-62 0 -109.5 -33.5t-80 -95t-49.5 -147t-17 -189.5q0 -226 65.5 -344.5t190.5 -118.5zM763 -32q-131 0 -234.5 29.5t-181.5 82t-133 124t-89.5 155t-50 176t-15.5 186.5 q0 91 19 179.5t57 168.5t96 148.5t136.5 118t177 77.5t218.5 28t218.5 -28t177 -77.5t136.5 -118t96 -148.5t57 -168.5t19 -179.5q0 -94 -15.5 -186.5t-50 -176t-89.5 -155t-133 -124t-181.5 -82t-234.5 -29.5zM528 1539l96 634h448l-256 -634h-288z" />
<glyph unicode="&#xd4;" horiz-adv-x="1549" d="M59 0zM763 256q125 0 190.5 118.5t65.5 344.5q0 104 -17 189.5t-49.5 147t-80.5 95t-109 33.5q-62 0 -109.5 -33.5t-80 -95t-49.5 -147t-17 -189.5q0 -226 65.5 -344.5t190.5 -118.5zM763 -32q-131 0 -234.5 29.5t-181.5 82t-133 124t-89.5 155t-50 176t-15.5 186.5 q0 91 19 179.5t57 168.5t96 148.5t136.5 118t177 77.5t218.5 28t218.5 -28t177 -77.5t136.5 -118t96 -148.5t57 -168.5t19 -179.5q0 -94 -15.5 -186.5t-50 -176t-89.5 -155t-133 -124t-181.5 -82t-234.5 -29.5zM950 1568q-20 47 -58.5 152.5t-91.5 199.5q-54 -94 -92 -199.5 t-58 -152.5h-300l200 544h500l200 -544h-300z" />
<glyph unicode="&#xd5;" horiz-adv-x="1549" d="M59 0zM763 256q125 0 190.5 118.5t65.5 344.5q0 104 -17 189.5t-49.5 147t-80.5 95t-109 33.5q-62 0 -109.5 -33.5t-80 -95t-49.5 -147t-17 -189.5q0 -226 65.5 -344.5t190.5 -118.5zM763 -32q-131 0 -234.5 29.5t-181.5 82t-133 124t-89.5 155t-50 176t-15.5 186.5 q0 91 19 179.5t57 168.5t96 148.5t136.5 118t177 77.5t218.5 28t218.5 -28t177 -77.5t136.5 -118t96 -148.5t57 -168.5t19 -179.5q0 -94 -15.5 -186.5t-50 -176t-89.5 -155t-133 -124t-181.5 -82t-234.5 -29.5zM983 1565q-49 0 -99.5 22t-101 48.5t-99 48.5t-93.5 22 q-33 0 -55 -32t-28 -104l-235 50q17 93 48.5 163t72.5 117.5t89 71.5t99 24q53 0 108 -22t109.5 -48.5t107 -48.5t101.5 -22q34 0 57 32t29 104l235 -50q-20 -93 -55 -163t-81 -117.5t-99.5 -71.5t-109.5 -24z" />
<glyph unicode="&#xd6;" horiz-adv-x="1549" d="M59 0zM763 256q125 0 190.5 118.5t65.5 344.5q0 104 -17 189.5t-49.5 147t-80.5 95t-109 33.5q-62 0 -109.5 -33.5t-80 -95t-49.5 -147t-17 -189.5q0 -226 65.5 -344.5t190.5 -118.5zM763 -32q-131 0 -234.5 29.5t-181.5 82t-133 124t-89.5 155t-50 176t-15.5 186.5 q0 91 19 179.5t57 168.5t96 148.5t136.5 118t177 77.5t218.5 28t218.5 -28t177 -77.5t136.5 -118t96 -148.5t57 -168.5t19 -179.5q0 -94 -15.5 -186.5t-50 -176t-89.5 -155t-133 -124t-181.5 -82t-234.5 -29.5zM508 1517q-51 0 -90 17.5t-65.5 46t-39.5 64.5t-13 74t13 74 t39 64.5t65 45.5t91 17t91 -17t65 -45.5t39.5 -64.5t13.5 -74t-13.5 -74t-39.5 -64.5t-65 -46t-91 -17.5zM1091 1517q-51 0 -90 17.5t-65.5 46t-39.5 64.5t-13 74t13 74t39 64.5t65 45.5t91 17t91 -17t65 -45.5t39.5 -64.5t13.5 -74t-13.5 -74t-39.5 -64.5t-65 -46 t-91 -17.5z" />
<glyph unicode="&#xd7;" horiz-adv-x="928" d="M676 684l195 -194l-213 -213l-194 194l-194 -194l-213 213l194 194l-194 195l213 213l194 -195l194 195l213 -213z" />
<glyph unicode="&#xd8;" horiz-adv-x="1600" d="M800 1464q73 0 137.5 -11.5t122.5 -31.5l95 179l200 -100l-101 -190q64 -54 112 -121.5t79.5 -144t47.5 -160t16 -167.5q0 -94 -16 -186.5t-51 -176.5t-90.5 -155.5t-134.5 -124t-182.5 -82t-234.5 -29.5q-134 0 -242 32l-103 -195l-200 100l102 193q-72 53 -122.5 123.5 t-82.5 151.5t-46.5 170t-14.5 179q0 93 19.5 185t58 175t97.5 154t137.5 122.5t177.5 81t219 29.5zM800 1161q-67 0 -117 -38t-83.5 -100.5t-50 -142.5t-16.5 -165q0 -60 8 -117.5t25 -109.5l340 642q-23 14 -49.5 22.5t-56.5 8.5zM800 268q67 0 117 38.5t83.5 101t50 143 t16.5 164.5q0 103 -24 195l-330 -622q40 -20 87 -20z" />
<glyph unicode="&#xd9;" d="M128 0zM768 -32q-149 0 -267.5 44t-201.5 132t-127 220.5t-44 309.5v740h480v-742q0 -99 10 -176t34 -130.5t64 -81.5t100 -28q66 0 106.5 28t63 81.5t30.5 130.5t8 176v742h342v-740q0 -356 -143.5 -531t-454.5 -175zM736 1539l-256 634h448l96 -634h-288z" />
<glyph unicode="&#xda;" d="M128 0zM768 -32q-149 0 -267.5 44t-201.5 132t-127 220.5t-44 309.5v740h480v-742q0 -99 10 -176t34 -130.5t64 -81.5t100 -28q66 0 106.5 28t63 81.5t30.5 130.5t8 176v742h342v-740q0 -356 -143.5 -531t-454.5 -175zM480 1539l96 634h448l-256 -634h-288z" />
<glyph unicode="&#xdb;" d="M128 0zM768 -32q-149 0 -267.5 44t-201.5 132t-127 220.5t-44 309.5v740h480v-742q0 -99 10 -176t34 -130.5t64 -81.5t100 -28q66 0 106.5 28t63 81.5t30.5 130.5t8 176v742h342v-740q0 -356 -143.5 -531t-454.5 -175zM902 1568q-20 47 -58.5 152.5t-91.5 199.5 q-54 -94 -92 -199.5t-58 -152.5h-300l200 544h500l200 -544h-300z" />
<glyph unicode="&#xdc;" d="M128 0zM768 -32q-149 0 -267.5 44t-201.5 132t-127 220.5t-44 309.5v740h480v-742q0 -99 10 -176t34 -130.5t64 -81.5t100 -28q66 0 106.5 28t63 81.5t30.5 130.5t8 176v742h342v-740q0 -356 -143.5 -531t-454.5 -175zM460 1517q-51 0 -90 17.5t-65.5 46t-39.5 64.5 t-13 74t13 74t39 64.5t65 45.5t91 17t91 -17t65 -45.5t39.5 -64.5t13.5 -74t-13.5 -74t-39.5 -64.5t-65 -46t-91 -17.5zM1043 1517q-51 0 -90 17.5t-65.5 46t-39.5 64.5t-13 74t13 74t39 64.5t65 45.5t91 17t91 -17t65 -45.5t39.5 -64.5t13.5 -74t-13.5 -74t-39.5 -64.5 t-65 -46t-91 -17.5z" />
<glyph unicode="&#xdd;" horiz-adv-x="1366" d="M45 0zM493 0v486l-448 928h544l162 -489l158 489h416l-405 -915v-499h-427zM432 1539l96 634h448l-256 -634h-288z" />
<glyph unicode="&#xde;" horiz-adv-x="1440" d="M160 1408h448v-128h98q135 0 237 -17.5t176.5 -49t124 -76t79 -97.5t41.5 -114t12 -126q0 -82 -28.5 -162.5t-98 -144t-187 -102.5t-294.5 -39h-160v-352h-448v1408zM608 576h128q72 0 121 17.5t79 47.5t43 71t13 88q0 66 -19 109t-53.5 68.5t-81.5 36t-102 10.5h-128 v-448z" />
<glyph unicode="&#xdf;" horiz-adv-x="1551" d="M648 0h-448l-1 993q0 90 27 157q26 67 71.5 115t106 79.5t128 49.5t142.5 25t141 7q151 0 259.5 -30.5t178 -80t102 -112.5t32.5 -129q0 -48 -16.5 -94.5t-47.5 -87.5t-76 -74.5t-103 -55.5q93 -10 165 -43t121.5 -81.5t75 -108.5t25.5 -124q0 -82 -44 -163t-136.5 -146 t-235 -105.5t-338.5 -40.5v250q82 0 143 16.5t102 44t61.5 62.5t20.5 71q0 35 -19.5 69t-58.5 60.5t-97.5 42.5t-135.5 16v246q62 0 107 14.5t74 38t42.5 53.5t13.5 61q0 78 -41 124t-122 46q-103 0 -160.5 -46t-57.5 -124z" />
<glyph unicode="&#xe0;" horiz-adv-x="1387" d="M96 0zM420 -32q-63 0 -121.5 18t-103.5 55t-72 92.5t-27 130.5q0 80 25.5 138.5t68 100t98.5 67t117 40t123 19.5t118 5q32 0 59.5 -1.5t48 -3t33 -2.5t13.5 -1v46q0 48 -15 79t-41 49t-61 25t-75 7q-77 0 -146.5 -10t-122.5 -22q-62 -14 -115 -32l-64 288q79 18 169 32 q77 12 175.5 23t206.5 11q101 0 192.5 -24.5t161 -78.5t110.5 -143t41 -221v-655h-416v179q-22 -49 -63 -88t-92.5 -66.5t-109.5 -42t-115 -14.5zM589 206q28 0 57 10t57 25.5t53 34t44 34.5v157h-33q-48 0 -98.5 -10t-92.5 -30t-69 -49t-27 -67q0 -30 10 -50t25.5 -32.5 t35 -17.5t38.5 -5zM677 1219l-256 634h448l96 -634h-288z" />
<glyph unicode="&#xe1;" horiz-adv-x="1387" d="M96 0zM420 -32q-63 0 -121.5 18t-103.5 55t-72 92.5t-27 130.5q0 80 25.5 138.5t68 100t98.5 67t117 40t123 19.5t118 5q32 0 59.5 -1.5t48 -3t33 -2.5t13.5 -1v46q0 48 -15 79t-41 49t-61 25t-75 7q-77 0 -146.5 -10t-122.5 -22q-62 -14 -115 -32l-64 288q79 18 169 32 q77 12 175.5 23t206.5 11q101 0 192.5 -24.5t161 -78.5t110.5 -143t41 -221v-655h-416v179q-22 -49 -63 -88t-92.5 -66.5t-109.5 -42t-115 -14.5zM589 206q28 0 57 10t57 25.5t53 34t44 34.5v157h-33q-48 0 -98.5 -10t-92.5 -30t-69 -49t-27 -67q0 -30 10 -50t25.5 -32.5 t35 -17.5t38.5 -5zM421 1219l96 634h448l-256 -634h-288z" />
<glyph unicode="&#xe2;" horiz-adv-x="1387" d="M96 0zM420 -32q-63 0 -121.5 18t-103.5 55t-72 92.5t-27 130.5q0 80 25.5 138.5t68 100t98.5 67t117 40t123 19.5t118 5q32 0 59.5 -1.5t48 -3t33 -2.5t13.5 -1v46q0 48 -15 79t-41 49t-61 25t-75 7q-77 0 -146.5 -10t-122.5 -22q-62 -14 -115 -32l-64 288q79 18 169 32 q77 12 175.5 23t206.5 11q101 0 192.5 -24.5t161 -78.5t110.5 -143t41 -221v-655h-416v179q-22 -49 -63 -88t-92.5 -66.5t-109.5 -42t-115 -14.5zM589 206q28 0 57 10t57 25.5t53 34t44 34.5v157h-33q-48 0 -98.5 -10t-92.5 -30t-69 -49t-27 -67q0 -30 10 -50t25.5 -32.5 t35 -17.5t38.5 -5zM843 1248q-20 47 -58.5 152.5t-91.5 199.5q-54 -94 -92 -199.5t-58 -152.5h-300l200 544h500l200 -544h-300z" />
<glyph unicode="&#xe3;" horiz-adv-x="1387" d="M96 0zM420 -32q-63 0 -121.5 18t-103.5 55t-72 92.5t-27 130.5q0 80 25.5 138.5t68 100t98.5 67t117 40t123 19.5t118 5q32 0 59.5 -1.5t48 -3t33 -2.5t13.5 -1v46q0 48 -15 79t-41 49t-61 25t-75 7q-77 0 -146.5 -10t-122.5 -22q-62 -14 -115 -32l-64 288q79 18 169 32 q77 12 175.5 23t206.5 11q101 0 192.5 -24.5t161 -78.5t110.5 -143t41 -221v-655h-416v179q-22 -49 -63 -88t-92.5 -66.5t-109.5 -42t-115 -14.5zM589 206q28 0 57 10t57 25.5t53 34t44 34.5v157h-33q-48 0 -98.5 -10t-92.5 -30t-69 -49t-27 -67q0 -30 10 -50t25.5 -32.5 t35 -17.5t38.5 -5zM876 1245q-49 0 -99.5 22t-101 48.5t-99 48.5t-93.5 22q-33 0 -55 -32t-28 -104l-235 50q17 93 48.5 163t72.5 117.5t89 71.5t99 24q53 0 108 -22t109.5 -48.5t107 -48.5t101.5 -22q34 0 57 32t29 104l235 -50q-20 -93 -55 -163t-81 -117.5t-99.5 -71.5 t-109.5 -24z" />
<glyph unicode="&#xe4;" horiz-adv-x="1387" d="M96 0zM420 -32q-63 0 -121.5 18t-103.5 55t-72 92.5t-27 130.5q0 80 25.5 138.5t68 100t98.5 67t117 40t123 19.5t118 5q32 0 59.5 -1.5t48 -3t33 -2.5t13.5 -1v46q0 48 -15 79t-41 49t-61 25t-75 7q-77 0 -146.5 -10t-122.5 -22q-62 -14 -115 -32l-64 288q79 18 169 32 q77 12 175.5 23t206.5 11q101 0 192.5 -24.5t161 -78.5t110.5 -143t41 -221v-655h-416v179q-22 -49 -63 -88t-92.5 -66.5t-109.5 -42t-115 -14.5zM589 206q28 0 57 10t57 25.5t53 34t44 34.5v157h-33q-48 0 -98.5 -10t-92.5 -30t-69 -49t-27 -67q0 -30 10 -50t25.5 -32.5 t35 -17.5t38.5 -5zM401 1197q-51 0 -90 17.5t-65.5 46t-39.5 64.5t-13 74t13 74t39 64.5t65 45.5t91 17t91 -17t65 -45.5t39.5 -64.5t13.5 -74t-13.5 -74t-39.5 -64.5t-65 -46t-91 -17.5zM984 1197q-51 0 -90 17.5t-65.5 46t-39.5 64.5t-13 74t13 74t39 64.5t65 45.5t91 17 t91 -17t65 -45.5t39.5 -64.5t13.5 -74t-13.5 -74t-39.5 -64.5t-65 -46t-91 -17.5z" />
<glyph unicode="&#xe5;" horiz-adv-x="1387" d="M96 0zM420 -32q-63 0 -121.5 18t-103.5 55t-72 92.5t-27 130.5q0 80 25.5 138.5t68 100t98.5 67t117 40t123 19.5t118 5q32 0 59.5 -1.5t48 -3t33 -2.5t13.5 -1v46q0 48 -15 79t-41 49t-61 25t-75 7q-77 0 -146.5 -10t-122.5 -22q-62 -14 -115 -32l-64 288q79 18 169 32 q77 12 175.5 23t206.5 11q101 0 192.5 -24.5t161 -78.5t110.5 -143t41 -221v-655h-416v179q-22 -49 -63 -88t-92.5 -66.5t-109.5 -42t-115 -14.5zM589 206q28 0 57 10t57 25.5t53 34t44 34.5v157h-33q-48 0 -98.5 -10t-92.5 -30t-69 -49t-27 -67q0 -30 10 -50t25.5 -32.5 t35 -17.5t38.5 -5zM597 1408q0 -41 25.5 -68.5t70.5 -27.5t70.5 27.5t25.5 68.5t-25.5 68.5t-70.5 27.5t-70.5 -27.5t-25.5 -68.5zM469 1408q0 38 14.5 72.5t43 61t70.5 42.5t96 16t96 -16t70.5 -42.5t43 -61t14.5 -72.5t-14.5 -72.5t-43 -61t-70.5 -42.5t-96 -16t-96 16 t-70.5 42.5t-43 61t-14.5 72.5z" />
<glyph unicode="&#xe6;" horiz-adv-x="2088" d="M1462 -41q-112 0 -214 29.5t-183 92.5q-47 -30 -103.5 -53.5t-117.5 -39.5t-125.5 -24.5t-127.5 -8.5q-81 0 -157.5 17.5t-136 54.5t-95 93t-35.5 134q0 82 24.5 142.5t65.5 102.5t95 68.5t112.5 41t118.5 20t114 5.5q34 0 63 -1.5t50.5 -3t34 -2.5t13.5 -1v22 q0 45 -15.5 76t-41.5 50t-62 27.5t-76 8.5q-65 0 -139.5 -12.5t-142.5 -30.5t-122 -38t-78 -35v308q41 27 104.5 52.5t138 45.5t154.5 32.5t154 12.5q106 0 202 -24.5t171 -79.5q80 51 171 76.5t180 25.5q112 0 199.5 -30t147.5 -78t91.5 -108t31.5 -120 q0 -105 -43.5 -177.5t-113.5 -117.5t-156.5 -65t-172.5 -20q-44 0 -84 3.5t-78 8.5q1 -44 19.5 -75.5t51 -51.5t76.5 -29.5t96 -9.5q39 0 84 5t90 14.5t87 23t75 31.5l50 -294q-101 -45 -212.5 -69.5t-232.5 -24.5zM1276 611q25 1 60.5 4t73.5 9t75 16.5t66.5 27t48 40 t18.5 56.5q0 29 -9.5 53.5t-27 42t-42 27.5t-54.5 10t-62.5 -8t-62 -30.5t-52.5 -61.5t-34 -100q1 -11 1.5 -21t0.5 -21v-44zM620 206q55 0 108 9.5t94 21.5t67 22t28 11q-5 12 -10.5 25t-12.5 32t-15.5 45.5t-20.5 64.5h-21q-59 0 -119 -7.5t-108 -22.5t-78.5 -37.5 t-30.5 -52.5t10 -51t26.5 -34.5t38 -19.5t44.5 -6z" />
<glyph unicode="&#xe7;" horiz-adv-x="1182" d="M94 0zM700 -32q-125 0 -235 36.5t-192.5 109.5t-130.5 183.5t-48 259.5q0 112 40 214t116 179.5t186.5 124.5t251.5 47q97 0 199 -16t199 -50l-32 -288q-54 34 -123 47.5t-135 13.5q-56 0 -102.5 -18t-80.5 -52.5t-52.5 -85.5t-18.5 -118q0 -135 66.5 -205.5t178.5 -70.5 q72 0 136 19.5t131 53.5l64 -288q-44 -23 -95 -40.5t-105 -30t-109.5 -19t-108.5 -6.5zM600 0h200v-100q86 0 152 -29t110.5 -76.5t67.5 -108t23 -124.5q0 -65 -24.5 -128t-75.5 -112.5t-128.5 -79.5t-182.5 -30q-33 0 -68.5 3.5t-73.5 10.5v296q51 -9 91 -9q39 0 68.5 11 t49 28.5t29.5 40t10 46.5q0 23 -9.5 45t-28 39.5t-47 28t-66.5 10.5q-45 0 -97 -18v256z" />
<glyph unicode="&#xe8;" horiz-adv-x="1309" d="M95 0zM1151 332v-289q-93 -31 -206 -53t-234 -22q-123 0 -235 34.5t-196.5 107t-134.5 183.5t-50 264q0 96 26.5 175t72.5 141.5t107.5 109t131.5 77t145 46.5t147 16q110 0 195 -29t143.5 -73.5t89 -100.5t30.5 -112q0 -97 -40 -164t-103.5 -99t-140 -52t-154.5 -20 q-48 0 -106 4.5t-100 10.5q0 -37 27 -123q15 -48 50 -70q44 -27 70 -32q78 -13 103 -13q68 0 137.5 10.5t224.5 72.5zM539 631q23 1 57.5 3t73.5 7t77.5 14t69.5 23t50.5 35t19.5 51q0 58 -39 95t-104 37q-32 0 -67 -10.5t-64.5 -39.5t-50 -80.5t-23.5 -134.5zM629 1219 l-256 634h448l96 -634h-288z" />
<glyph unicode="&#xe9;" horiz-adv-x="1309" d="M95 0zM1151 332v-289q-93 -31 -206 -53t-234 -22q-123 0 -235 34.5t-196.5 107t-134.5 183.5t-50 264q0 96 26.5 175t72.5 141.5t107.5 109t131.5 77t145 46.5t147 16q110 0 195 -29t143.5 -73.5t89 -100.5t30.5 -112q0 -97 -40 -164t-103.5 -99t-140 -52t-154.5 -20 q-48 0 -106 4.5t-100 10.5q0 -37 27 -123q15 -48 50 -70q44 -27 70 -32q78 -13 103 -13q68 0 137.5 10.5t224.5 72.5zM539 631q23 1 57.5 3t73.5 7t77.5 14t69.5 23t50.5 35t19.5 51q0 58 -39 95t-104 37q-32 0 -67 -10.5t-64.5 -39.5t-50 -80.5t-23.5 -134.5zM373 1219 l96 634h448l-256 -634h-288z" />
<glyph unicode="&#xea;" horiz-adv-x="1309" d="M95 0zM1151 332v-289q-93 -31 -206 -53t-234 -22q-123 0 -235 34.5t-196.5 107t-134.5 183.5t-50 264q0 96 26.5 175t72.5 141.5t107.5 109t131.5 77t145 46.5t147 16q110 0 195 -29t143.5 -73.5t89 -100.5t30.5 -112q0 -97 -40 -164t-103.5 -99t-140 -52t-154.5 -20 q-48 0 -106 4.5t-100 10.5q0 -37 27 -123q15 -48 50 -70q44 -27 70 -32q78 -13 103 -13q68 0 137.5 10.5t224.5 72.5zM539 631q23 1 57.5 3t73.5 7t77.5 14t69.5 23t50.5 35t19.5 51q0 58 -39 95t-104 37q-32 0 -67 -10.5t-64.5 -39.5t-50 -80.5t-23.5 -134.5zM795 1248 q-20 47 -58.5 152.5t-91.5 199.5q-54 -94 -92 -199.5t-58 -152.5h-300l200 544h500l200 -544h-300z" />
<glyph unicode="&#xeb;" horiz-adv-x="1309" d="M95 0zM1151 332v-289q-93 -31 -206 -53t-234 -22q-123 0 -235 34.5t-196.5 107t-134.5 183.5t-50 264q0 96 26.5 175t72.5 141.5t107.5 109t131.5 77t145 46.5t147 16q110 0 195 -29t143.5 -73.5t89 -100.5t30.5 -112q0 -97 -40 -164t-103.5 -99t-140 -52t-154.5 -20 q-48 0 -106 4.5t-100 10.5q0 -37 27 -123q15 -48 50 -70q44 -27 70 -32q78 -13 103 -13q68 0 137.5 10.5t224.5 72.5zM539 631q23 1 57.5 3t73.5 7t77.5 14t69.5 23t50.5 35t19.5 51q0 58 -39 95t-104 37q-32 0 -67 -10.5t-64.5 -39.5t-50 -80.5t-23.5 -134.5zM353 1197 q-51 0 -90 17.5t-65.5 46t-39.5 64.5t-13 74t13 74t39 64.5t65 45.5t91 17t91 -17t65 -45.5t39.5 -64.5t13.5 -74t-13.5 -74t-39.5 -64.5t-65 -46t-91 -17.5zM936 1197q-51 0 -90 17.5t-65.5 46t-39.5 64.5t-13 74t13 74t39 64.5t65 45.5t91 17t91 -17t65 -45.5t39.5 -64.5 t13.5 -74t-13.5 -74t-39.5 -64.5t-65 -46t-91 -17.5z" />
<glyph unicode="&#xec;" horiz-adv-x="736" d="M96 0zM160 1088h416v-1088h-416v1088zM352 1219l-256 634h448l96 -634h-288z" />
<glyph unicode="&#xed;" horiz-adv-x="736" d="M97 0zM160 1088h416v-1088h-416v1088zM97 1219l96 634h448l-256 -634h-288z" />
<glyph unicode="&#xee;" horiz-adv-x="736" d="M0 0zM160 1088h416v-1088h-416v1088zM519 1248q-20 47 -58.5 152.5t-91.5 199.5q-54 -94 -92 -199.5t-58 -152.5h-300l200 544h500l200 -544h-300z" />
<glyph unicode="&#xef;" horiz-adv-x="736" d="M0 0zM160 1088h416v-1088h-416v1088zM77 1197q-51 0 -90 17.5t-65.5 46t-39.5 64.5t-13 74t13 74t39 64.5t65 45.5t91 17t91 -17t65 -45.5t39.5 -64.5t13.5 -74t-13.5 -74t-39.5 -64.5t-65 -46t-91 -17.5zM660 1197q-51 0 -90 17.5t-65.5 46t-39.5 64.5t-13 74t13 74 t39 64.5t65 45.5t91 17t91 -17t65 -45.5t39.5 -64.5t13.5 -74t-13.5 -74t-39.5 -64.5t-65 -46t-91 -17.5z" />
<glyph unicode="&#xf0;" horiz-adv-x="1408" d="M777 1105l-65 28q-91 11 -98 11q-74 0 -132.5 -13t-102.5 -23.5t-74.5 -21t-48.5 -16.5l-32 307q168 64 412 64q88 0 160.5 -11.5t132 -33.5t106.5 -53.5t83 -71.5l249 102l82 -178l-238 -97q32 -92 50.5 -205t18.5 -230q0 -94 -10 -182.5t-36 -165.5t-71 -141t-116 -110 t-170 -71t-232 -25q-110 0 -193.5 17.5t-144.5 48.5t-101.5 73t-65 90.5t-34.5 101.5t-10 107q0 103 37.5 167.5t100.5 118.5t146.5 82t175.5 28q75 0 154 -17.5t154 -46.5q0 43 -9 107.5t-16 95.5l-158 -86l-90 136zM672 577q-54 0 -90.5 -13.5t-59 -37t-32.5 -54 t-10 -63.5t9.5 -66t29 -59.5t49.5 -42.5t72 -16q54 0 95.5 10t70 46t43.5 106t15 190h-192z" />
<glyph unicode="&#xf1;" horiz-adv-x="1568" d="M169 0zM169 1079h447q-18 -56 -24 -99t-6 -99q34 55 85 99.5t112.5 75.5t131 48.5t139.5 17.5q78 0 148 -24.5t123 -77t84 -137t31 -205.5v-678h-448v570q0 75 -13.5 127t-35.5 84.5t-50 47t-57 14.5q-38 0 -75 -13.5t-70.5 -36.5t-56 -54t-30.5 -66v-673h-435v1079z M967 1245q-49 0 -99.5 22t-101 48.5t-99 48.5t-93.5 22q-33 0 -55 -32t-28 -104l-235 50q17 93 48.5 163t72.5 117.5t89 71.5t99 24q53 0 108 -22t109.5 -48.5t107 -48.5t101.5 -22q34 0 57 32t29 104l235 -50q-20 -93 -55 -163t-81 -117.5t-99.5 -71.5t-109.5 -24z" />
<glyph unicode="&#xf2;" horiz-adv-x="1472" d="M65 0zM705 -32q-122 0 -216.5 23t-165.5 63.5t-120.5 96.5t-80 121.5t-44 138t-13.5 146.5q0 71 13.5 141t44 132.5t79.5 115.5t120 91.5t166 61.5t217 23t217 -23t166 -61.5t120 -91.5t79.5 -115.5t44 -132.5t13.5 -141q0 -74 -13.5 -146.5t-44 -138t-80 -121.5 t-120.5 -96.5t-165.5 -63.5t-216.5 -23zM705 268q54 0 90.5 24.5t59 65t32.5 92t10 105.5q0 51 -10 100t-32.5 88t-59 62.5t-90.5 23.5t-90.5 -23.5t-59 -62.5t-32.5 -88t-10 -100q0 -54 9.5 -105.5t32 -92t59.5 -65t91 -24.5zM720 1219l-256 634h448l96 -634h-288z" />
<glyph unicode="&#xf3;" horiz-adv-x="1472" d="M65 0zM705 -32q-122 0 -216.5 23t-165.5 63.5t-120.5 96.5t-80 121.5t-44 138t-13.5 146.5q0 71 13.5 141t44 132.5t79.5 115.5t120 91.5t166 61.5t217 23t217 -23t166 -61.5t120 -91.5t79.5 -115.5t44 -132.5t13.5 -141q0 -74 -13.5 -146.5t-44 -138t-80 -121.5 t-120.5 -96.5t-165.5 -63.5t-216.5 -23zM705 268q54 0 90.5 24.5t59 65t32.5 92t10 105.5q0 51 -10 100t-32.5 88t-59 62.5t-90.5 23.5t-90.5 -23.5t-59 -62.5t-32.5 -88t-10 -100q0 -54 9.5 -105.5t32 -92t59.5 -65t91 -24.5zM464 1219l96 634h448l-256 -634h-288z" />
<glyph unicode="&#xf4;" horiz-adv-x="1472" d="M65 0zM705 -32q-122 0 -216.5 23t-165.5 63.5t-120.5 96.5t-80 121.5t-44 138t-13.5 146.5q0 71 13.5 141t44 132.5t79.5 115.5t120 91.5t166 61.5t217 23t217 -23t166 -61.5t120 -91.5t79.5 -115.5t44 -132.5t13.5 -141q0 -74 -13.5 -146.5t-44 -138t-80 -121.5 t-120.5 -96.5t-165.5 -63.5t-216.5 -23zM705 268q54 0 90.5 24.5t59 65t32.5 92t10 105.5q0 51 -10 100t-32.5 88t-59 62.5t-90.5 23.5t-90.5 -23.5t-59 -62.5t-32.5 -88t-10 -100q0 -54 9.5 -105.5t32 -92t59.5 -65t91 -24.5zM886 1248q-20 47 -58.5 152.5t-91.5 199.5 q-54 -94 -92 -199.5t-58 -152.5h-300l200 544h500l200 -544h-300z" />
<glyph unicode="&#xf5;" horiz-adv-x="1472" d="M65 0zM705 -32q-122 0 -216.5 23t-165.5 63.5t-120.5 96.5t-80 121.5t-44 138t-13.5 146.5q0 71 13.5 141t44 132.5t79.5 115.5t120 91.5t166 61.5t217 23t217 -23t166 -61.5t120 -91.5t79.5 -115.5t44 -132.5t13.5 -141q0 -74 -13.5 -146.5t-44 -138t-80 -121.5 t-120.5 -96.5t-165.5 -63.5t-216.5 -23zM705 268q54 0 90.5 24.5t59 65t32.5 92t10 105.5q0 51 -10 100t-32.5 88t-59 62.5t-90.5 23.5t-90.5 -23.5t-59 -62.5t-32.5 -88t-10 -100q0 -54 9.5 -105.5t32 -92t59.5 -65t91 -24.5zM919 1245q-49 0 -99.5 22t-101 48.5t-99 48.5 t-93.5 22q-33 0 -55 -32t-28 -104l-235 50q17 93 48.5 163t72.5 117.5t89 71.5t99 24q53 0 108 -22t109.5 -48.5t107 -48.5t101.5 -22q34 0 57 32t29 104l235 -50q-20 -93 -55 -163t-81 -117.5t-99.5 -71.5t-109.5 -24z" />
<glyph unicode="&#xf6;" horiz-adv-x="1472" d="M65 0zM705 -32q-122 0 -216.5 23t-165.5 63.5t-120.5 96.5t-80 121.5t-44 138t-13.5 146.5q0 71 13.5 141t44 132.5t79.5 115.5t120 91.5t166 61.5t217 23t217 -23t166 -61.5t120 -91.5t79.5 -115.5t44 -132.5t13.5 -141q0 -74 -13.5 -146.5t-44 -138t-80 -121.5 t-120.5 -96.5t-165.5 -63.5t-216.5 -23zM705 268q54 0 90.5 24.5t59 65t32.5 92t10 105.5q0 51 -10 100t-32.5 88t-59 62.5t-90.5 23.5t-90.5 -23.5t-59 -62.5t-32.5 -88t-10 -100q0 -54 9.5 -105.5t32 -92t59.5 -65t91 -24.5zM444 1197q-51 0 -90 17.5t-65.5 46t-39.5 64.5 t-13 74t13 74t39 64.5t65 45.5t91 17t91 -17t65 -45.5t39.5 -64.5t13.5 -74t-13.5 -74t-39.5 -64.5t-65 -46t-91 -17.5zM1027 1197q-51 0 -90 17.5t-65.5 46t-39.5 64.5t-13 74t13 74t39 64.5t65 45.5t91 17t91 -17t65 -45.5t39.5 -64.5t13.5 -74t-13.5 -74t-39.5 -64.5 t-65 -46t-91 -17.5z" />
<glyph unicode="&#xf7;" horiz-adv-x="896" d="M448 8q-44 0 -76 14t-53 36.5t-31 51.5t-10 58q0 30 11 58.5t32 51t53 36.5t74 14t74 -14t53.5 -36.5t32.5 -51t11 -58.5q0 -29 -10.5 -58t-32 -51.5t-53.5 -36.5t-75 -14zM448 800q-44 0 -76 14t-53 37t-31 51.5t-10 57.5q0 30 11 58.5t32 51t53 36.5t74 14t74 -14 t53.5 -36.5t32.5 -51t11 -58.5q0 -29 -10.5 -57.5t-32 -51.5t-53.5 -37t-75 -14zM832 704v-224h-768v224h768z" />
<glyph unicode="&#xf8;" horiz-adv-x="1500" d="M750 1147q55 0 103.5 -5t93.5 -14l98 190l162 -86l-87 -165q75 -40 127.5 -96.5t84.5 -123t46.5 -140.5t14.5 -150q0 -74 -14 -146.5t-44.5 -137.5t-80 -120t-121 -95.5t-166.5 -63t-217 -22.5q-56 0 -105 5t-94 14l-108 -206l-149 73l96 187q-78 39 -132 95t-87.5 123 t-48.5 142t-15 152q0 74 13.5 146.5t44.5 138t80.5 121.5t120.5 97t166.5 64t217.5 23zM750 849q-64 0 -109.5 -25.5t-74.5 -67t-42.5 -94t-13.5 -107.5q0 -51 11 -99t36 -87l244 475q-12 2 -24.5 3.5t-26.5 1.5zM750 268q64 0 110 24.5t74.5 65t42 92t13.5 105.5 q0 49 -10.5 96t-33.5 86l-246 -465q12 -2 24 -3t26 -1z" />
<glyph unicode="&#xf9;" horiz-adv-x="1547" d="M128 0zM1376 0h-455q11 34 20.5 87.5t9.5 141.5q-32 -58 -81 -106t-108.5 -82.5t-126 -53.5t-133.5 -19q-74 0 -141.5 26t-119.5 82t-82.5 144t-30.5 212v647h448v-539q0 -75 11.5 -127t31.5 -84.5t46 -47t55 -14.5q34 0 68.5 13.5t63 36.5t49 54t27.5 66v642h448v-1079z M757 1219l-256 634h448l96 -634h-288z" />
<glyph unicode="&#xfa;" horiz-adv-x="1547" d="M128 0zM1376 0h-455q11 34 20.5 87.5t9.5 141.5q-32 -58 -81 -106t-108.5 -82.5t-126 -53.5t-133.5 -19q-74 0 -141.5 26t-119.5 82t-82.5 144t-30.5 212v647h448v-539q0 -75 11.5 -127t31.5 -84.5t46 -47t55 -14.5q34 0 68.5 13.5t63 36.5t49 54t27.5 66v642h448v-1079z M501 1219l96 634h448l-256 -634h-288z" />
<glyph unicode="&#xfb;" horiz-adv-x="1547" d="M128 0zM1376 0h-455q11 34 20.5 87.5t9.5 141.5q-32 -58 -81 -106t-108.5 -82.5t-126 -53.5t-133.5 -19q-74 0 -141.5 26t-119.5 82t-82.5 144t-30.5 212v647h448v-539q0 -75 11.5 -127t31.5 -84.5t46 -47t55 -14.5q34 0 68.5 13.5t63 36.5t49 54t27.5 66v642h448v-1079z M923 1248q-20 47 -58.5 152.5t-91.5 199.5q-54 -94 -92 -199.5t-58 -152.5h-300l200 544h500l200 -544h-300z" />
<glyph unicode="&#xfc;" horiz-adv-x="1547" d="M128 0zM1376 0h-455q11 34 20.5 87.5t9.5 141.5q-32 -58 -81 -106t-108.5 -82.5t-126 -53.5t-133.5 -19q-74 0 -141.5 26t-119.5 82t-82.5 144t-30.5 212v647h448v-539q0 -75 11.5 -127t31.5 -84.5t46 -47t55 -14.5q34 0 68.5 13.5t63 36.5t49 54t27.5 66v642h448v-1079z M481 1197q-51 0 -90 17.5t-65.5 46t-39.5 64.5t-13 74t13 74t39 64.5t65 45.5t91 17t91 -17t65 -45.5t39.5 -64.5t13.5 -74t-13.5 -74t-39.5 -64.5t-65 -46t-91 -17.5zM1064 1197q-51 0 -90 17.5t-65.5 46t-39.5 64.5t-13 74t13 74t39 64.5t65 45.5t91 17t91 -17t65 -45.5 t39.5 -64.5t13.5 -74t-13.5 -74t-39.5 -64.5t-65 -46t-91 -17.5z" />
<glyph unicode="&#xfd;" horiz-adv-x="1472" d="M192 0zM896 1079h416v-928q0 -169 -48.5 -288.5t-130.5 -195.5t-190 -111.5t-228 -35.5q-54 0 -109.5 2.5t-109.5 8.5t-105 15t-96 22l30 312q57 -11 111 -20q23 -4 47.5 -7.5t48 -6.5t45 -4.5t39.5 -1.5q93 0 148.5 24t85 66t38 99.5t8.5 125.5v33q-20 -38 -53.5 -67 t-75 -48.5t-87 -30t-88.5 -10.5q-80 0 -152 24.5t-127.5 77t-88 134.5t-32.5 196v615h384v-595q0 -72 18.5 -113.5t47 -62.5t62 -27t63.5 -6q26 0 49.5 15.5t41 39t28 52t10.5 54.5v643zM464 1219l96 634h448l-256 -634h-288z" />
<glyph unicode="&#xfe;" horiz-adv-x="1536" d="M160 1408h448v-448q21 38 56.5 73t81.5 61.5t100.5 42t113.5 15.5q60 0 121.5 -14.5t118 -45.5t106.5 -79t86.5 -115.5t58 -155.5t21.5 -198t-21.5 -195.5t-58 -149.5t-86.5 -108t-106.5 -71.5t-118 -39.5t-121.5 -12q-59 0 -113.5 10.5t-100.5 31t-81.5 50.5t-56.5 68 v-480h-448v1760zM608 541q0 -74 16 -128t42.5 -89t61 -51.5t72.5 -16.5q18 0 42 1.5t49 10t49 26t42.5 49.5t30 81t11.5 120t-11.5 120t-30 81t-42.5 49.5t-49 26t-49 10t-42 1.5q-38 0 -72.5 -13.5t-61 -45t-42.5 -83.5t-16 -130v-19z" />
<glyph unicode="&#xff;" horiz-adv-x="1472" d="M192 0zM896 1079h416v-928q0 -169 -48.5 -288.5t-130.5 -195.5t-190 -111.5t-228 -35.5q-54 0 -109.5 2.5t-109.5 8.5t-105 15t-96 22l30 312q57 -11 111 -20q23 -4 47.5 -7.5t48 -6.5t45 -4.5t39.5 -1.5q93 0 148.5 24t85 66t38 99.5t8.5 125.5v33q-20 -38 -53.5 -67 t-75 -48.5t-87 -30t-88.5 -10.5q-80 0 -152 24.5t-127.5 77t-88 134.5t-32.5 196v615h384v-595q0 -72 18.5 -113.5t47 -62.5t62 -27t63.5 -6q26 0 49.5 15.5t41 39t28 52t10.5 54.5v643zM444 1197q-51 0 -90 17.5t-65.5 46t-39.5 64.5t-13 74t13 74t39 64.5t65 45.5t91 17 t91 -17t65 -45.5t39.5 -64.5t13.5 -74t-13.5 -74t-39.5 -64.5t-65 -46t-91 -17.5zM1027 1197q-51 0 -90 17.5t-65.5 46t-39.5 64.5t-13 74t13 74t39 64.5t65 45.5t91 17t91 -17t65 -45.5t39.5 -64.5t13.5 -74t-13.5 -74t-39.5 -64.5t-65 -46t-91 -17.5z" />
<glyph unicode="&#x131;" horiz-adv-x="736" d="M160 1088h416v-1088h-416v1088z" />
<glyph unicode="&#x152;" horiz-adv-x="1999" d="M1002 0q-72 -20 -136.5 -29t-125.5 -9q-104 0 -192 29.5t-159 82t-125 123.5t-90.5 155t-55 177t-18.5 188t21 187t60.5 175t97 154t130 122.5t159.5 80.5t187 29q60 0 122 -9.5t130 -29.5h848v-317h-455v-257h400v-266h-400v-266h500v-320h-898zM543 715 q0 -90 20.5 -171.5t59.5 -144t96 -99t131 -36.5q69 0 150 28v845q-81 28 -150 28q-74 0 -131 -36.5t-96 -98t-59.5 -143t-20.5 -172.5z" />
<glyph unicode="&#x153;" horiz-adv-x="2100" d="M762 -28q-124 0 -220.5 23t-169.5 63.5t-123.5 96.5t-82 121t-45.5 136.5t-14 144.5q0 74 14 146.5t45 138t81.5 121.5t123 97t169.5 64t222 23q138 0 234.5 -41t161.5 -109q92 74 204 110t222 36q112 0 199.5 -30t147.5 -78t91.5 -108t31.5 -120q0 -105 -43.5 -177.5 t-113.5 -117.5t-156.5 -65t-172.5 -20q-44 0 -90 3.5t-84 8.5q1 -44 21.5 -75.5t55 -51.5t80.5 -29.5t98 -9.5q39 0 84 5t90 14.5t87 23t75 31.5l50 -294q-101 -45 -212.5 -69.5t-232.5 -24.5q-128 0 -242.5 34t-202.5 107q-66 -59 -159 -93.5t-224 -34.5zM758 268 q52 0 88.5 24.5t59.5 65t33.5 92t10.5 105.5q0 55 -11 107.5t-34 94t-59.5 67t-87.5 25.5q-54 0 -93.5 -25.5t-65 -67t-37.5 -94t-12 -107.5q0 -54 12 -105.5t37 -92t64.5 -65t94.5 -24.5zM1394 611q24 1 59 3.5t74.5 8t78.5 16t70 27t50.5 40.5t19.5 58q0 29 -9.5 53.5 t-27 42t-42 27.5t-54.5 10q-35 0 -72.5 -11t-69 -42.5t-53 -87.5t-24.5 -145z" />
<glyph unicode="&#x178;" horiz-adv-x="1366" d="M45 0zM493 0v486l-448 928h544l162 -489l158 489h416l-405 -915v-499h-427zM412 1517q-51 0 -90 17.5t-65.5 46t-39.5 64.5t-13 74t13 74t39 64.5t65 45.5t91 17t91 -17t65 -45.5t39.5 -64.5t13.5 -74t-13.5 -74t-39.5 -64.5t-65 -46t-91 -17.5zM995 1517q-51 0 -90 17.5 t-65.5 46t-39.5 64.5t-13 74t13 74t39 64.5t65 45.5t91 17t91 -17t65 -45.5t39.5 -64.5t13.5 -74t-13.5 -74t-39.5 -64.5t-65 -46t-91 -17.5z" />
<glyph unicode="&#x2c6;" horiz-adv-x="1100" d="M700 1248q-20 47 -58.5 152.5t-91.5 199.5q-54 -94 -92 -199.5t-58 -152.5h-300l200 544h500l200 -544h-300z" />
<glyph unicode="&#x2da;" horiz-adv-x="600" d="M192 1408q0 -41 25.5 -68.5t70.5 -27.5t70.5 27.5t25.5 68.5t-25.5 68.5t-70.5 27.5t-70.5 -27.5t-25.5 -68.5zM64 1408q0 38 14.5 72.5t43 61t70.5 42.5t96 16t96 -16t70.5 -42.5t43 -61t14.5 -72.5t-14.5 -72.5t-43 -61t-70.5 -42.5t-96 -16t-96 16t-70.5 42.5t-43 61 t-14.5 72.5z" />
<glyph unicode="&#x2dc;" horiz-adv-x="1436" d="M851 1245q-49 0 -99.5 22t-101 48.5t-99 48.5t-93.5 22q-33 0 -55 -32t-28 -104l-235 50q17 93 48.5 163t72.5 117.5t89 71.5t99 24q53 0 108 -22t109.5 -48.5t107 -48.5t101.5 -22q34 0 57 32t29 104l235 -50q-20 -93 -55 -163t-81 -117.5t-99.5 -71.5t-109.5 -24z" />
<glyph unicode="&#x2000;" horiz-adv-x="1086" />
<glyph unicode="&#x2001;" horiz-adv-x="2173" />
<glyph unicode="&#x2002;" horiz-adv-x="1086" />
<glyph unicode="&#x2003;" horiz-adv-x="2173" />
<glyph unicode="&#x2004;" horiz-adv-x="724" />
<glyph unicode="&#x2005;" horiz-adv-x="543" />
<glyph unicode="&#x2006;" horiz-adv-x="362" />
<glyph unicode="&#x2007;" horiz-adv-x="362" />
<glyph unicode="&#x2008;" horiz-adv-x="271" />
<glyph unicode="&#x2009;" horiz-adv-x="434" />
<glyph unicode="&#x200a;" horiz-adv-x="120" />
<glyph unicode="&#x2010;" horiz-adv-x="992" d="M896 832v-320h-800v320h800z" />
<glyph unicode="&#x2011;" horiz-adv-x="992" d="M896 832v-320h-800v320h800z" />
<glyph unicode="&#x2012;" horiz-adv-x="992" d="M896 832v-320h-800v320h800z" />
<glyph unicode="&#x2013;" horiz-adv-x="1000" d="M896 832v-320h-800v320h800z" />
<glyph unicode="&#x2014;" horiz-adv-x="992" d="M992 832v-320h-992v320h992z" />
<glyph unicode="&#x2018;" horiz-adv-x="704" d="M352 1024q0 -34 13 -58t43 -39.5t79 -23t121 -7.5v-192h-96q-75 0 -149 18t-133.5 64.5t-96.5 128t-37 207.5q0 154 69.5 236t205.5 82q68 0 118.5 -21.5t84 -56t50 -77.5t16.5 -85q0 -41 -14 -79t-39 -66.5t-58.5 -45.5t-72.5 -17q-52 0 -104 32z" />
<glyph unicode="&#x2019;" horiz-adv-x="704" d="M384 1120q0 34 -13 58t-43 39.5t-79 23t-121 7.5v192h96q75 0 149 -18t133.5 -64.5t96.5 -128t37 -207.5q0 -154 -69.5 -236t-205.5 -82q-68 0 -118.5 21.5t-84 56t-50 77.5t-16.5 85q0 41 14 79t39 66.5t58.5 45.5t72.5 17q52 0 104 -32z" />
<glyph unicode="&#x201a;" horiz-adv-x="600" d="M140 98h320l-60 -626h-200z" />
<glyph unicode="&#x201c;" horiz-adv-x="1312" d="M960 1024q0 -34 13 -58t43 -39.5t79 -23t121 -7.5v-192h-96q-75 0 -149 18t-133.5 64.5t-96.5 128t-37 207.5q0 154 69.5 236t205.5 82q68 0 118.5 -21.5t84 -56t50 -77.5t16.5 -85q0 -41 -14 -79t-39 -66.5t-58.5 -45.5t-72.5 -17q-52 0 -104 32zM352 1024q0 -34 13 -58 t43 -39.5t79 -23t121 -7.5v-192h-96q-75 0 -149 18t-133.5 64.5t-96.5 128t-37 207.5q0 154 69.5 236t205.5 82q68 0 118.5 -21.5t84 -56t50 -77.5t16.5 -85q0 -41 -14 -79t-39 -66.5t-58.5 -45.5t-72.5 -17q-52 0 -104 32z" />
<glyph unicode="&#x201d;" horiz-adv-x="1312" d="M992 1120q0 34 -13 58t-43 39.5t-79 23t-121 7.5v192h96q75 0 149 -18t133.5 -64.5t96.5 -128t37 -207.5q0 -154 -69.5 -236t-205.5 -82q-68 0 -118.5 21.5t-84 56t-50 77.5t-16.5 85q0 41 14 79t39 66.5t58.5 45.5t72.5 17q52 0 104 -32zM352 1120q0 34 -13 58t-43 39.5 t-79 23t-121 7.5v192h96q75 0 149 -18t133.5 -64.5t96.5 -128t37 -207.5q0 -154 -69.5 -236t-205.5 -82q-68 0 -118.5 21.5t-84 56t-50 77.5t-16.5 85q0 41 14 79t39 66.5t58.5 45.5t72.5 17q52 0 104 -32z" />
<glyph unicode="&#x201e;" horiz-adv-x="1000" d="M556 100h320l-60 -626h-200zM140 100h320l-60 -626h-200z" />
<glyph unicode="&#x2022;" horiz-adv-x="800" d="M400 300q-74 0 -129 25.5t-92 67t-55 94.5t-18 109q0 57 18.5 111t55.5 97t92 69t128 26t127.5 -26t91.5 -68.5t55.5 -97t18.5 -110.5t-18 -109.5t-55 -95t-92 -67t-128 -25.5z" />
<glyph unicode="&#x2026;" horiz-adv-x="2150" d="M1729 -27q-69 0 -121 19t-86 50.5t-51 72t-17 82.5q0 44 18 86.5t52.5 76t86 54t119.5 20.5q67 0 119 -20.5t86.5 -54t52.5 -76t18 -85.5t-17 -83.5t-51.5 -72t-86.5 -50.5t-122 -19zM407 -27q-69 0 -121 19t-86 50.5t-51 72t-17 82.5q0 44 18 86.5t52.5 76t86 54 t119.5 20.5q67 0 119 -20.5t86.5 -54t52.5 -76t18 -85.5t-17 -83.5t-51.5 -72t-86.5 -50.5t-122 -19zM1075 -27q-69 0 -121 19t-86 50.5t-51 72t-17 82.5q0 44 18 86.5t52.5 76t86 54t119.5 20.5q67 0 119 -20.5t86.5 -54t52.5 -76t18 -85.5t-17 -83.5t-51.5 -72 t-86.5 -50.5t-122 -19z" />
<glyph unicode="&#x202f;" horiz-adv-x="434" />
<glyph unicode="&#x2039;" horiz-adv-x="800" d="M700 200l-600 400v300l600 400v-400l-328 -150l328 -150v-400z" />
<glyph unicode="&#x203a;" horiz-adv-x="800" d="M100 600l328 150l-328 150v400l600 -400v-300l-600 -400v400z" />
<glyph unicode="&#x205f;" horiz-adv-x="543" />
<glyph unicode="&#x20ac;" horiz-adv-x="1452" d="M201 913q17 117 60.5 222t119.5 184.5t187 126.5t263 47q134 0 233.5 -43.5t168.5 -118t109.5 -174t57.5 -212.5h-392q-10 53 -26.5 97.5t-38.5 77t-50 50.5t-62 18t-62.5 -21.5t-50.5 -58.5t-38 -87.5t-25 -107.5h234v-175h-245v-95h245v-175h-217q12 -42 27.5 -77.5 t35.5 -61t44 -40t52 -14.5q67 0 111 60.5t65 164.5h393q-32 -115 -74 -212t-107.5 -167t-159 -109.5t-228.5 -39.5q-138 0 -242 38t-178.5 105t-121.5 157.5t-71 195.5h-166v175h148v95h-148v175h149z" />
<glyph unicode="&#x2122;" horiz-adv-x="2000" d="M300 600v620h-200v206h700v-206h-200v-620h-300zM900 1426h285l222 -372l235 372h258v-826h-300v386l-206 -352h-64l-230 352v-386h-200v826z" />
<glyph unicode="&#xe000;" horiz-adv-x="1080" d="M0 1080h1080v-1080h-1080v1080z" />
<glyph unicode="&#xfb01;" horiz-adv-x="1752" d="M656 0h-424v832h-153v256h153v31q0 127 38.5 212.5t103.5 138t149 75t176 22.5q88 0 167 -17.5t142 -43.5l-21 -259q-59 14 -106 23.5t-84 9.5t-63.5 -9t-44 -29t-25.5 -54t-8 -83v-17h944v-1088h-400v832h-544v-832zM1405 1243q-57 0 -107 9.5t-86.5 29t-58 49 t-21.5 70.5q0 51 21 85.5t58 55.5t87 30t108 9t108.5 -9t87.5 -30t58 -55.5t21 -85.5q0 -41 -21.5 -70.5t-58.5 -49t-87.5 -29t-108.5 -9.5z" />
<glyph unicode="&#xfb02;" horiz-adv-x="1748" d="M1600 1566v-1566h-400v1280h-403q-37 0 -63.5 -9t-44 -29t-25.5 -54t-8 -83v-17h323q-14 -66 -19.5 -129t-5.5 -127h-298v-832h-424v832h-153v256h153v31q0 127 38.5 212.5t103.5 138t149 74.5t176 22h901z" />
<glyph unicode="&#xfb03;" horiz-adv-x="2402" />
<glyph unicode="&#xfb04;" horiz-adv-x="2400" />
<glyph horiz-adv-x="2163" d="M0 0z" />
</font>
</defs>
</svg>
