<?xml version="1.0" standalone="no"?>
<!DOCTYPE svg PUBLIC "-//W3C//DTD SVG 1.1//EN" "http://www.w3.org/Graphics/SVG/1.1/DTD/svg11.dtd" >
<svg xmlns="http://www.w3.org/2000/svg">
<metadata></metadata>
<defs>
<font id="bpdotsunicasediamondbold" horiz-adv-x="600" >
<font-face units-per-em="1000" ascent="800" descent="-200" />
<missing-glyph horiz-adv-x="500" />
<glyph horiz-adv-x="1000" />
<glyph horiz-adv-x="1000" />
<glyph unicode="&#xd;" horiz-adv-x="1000" />
<glyph unicode=" " />
<glyph unicode="!" d="M170 49l60 61l61 -61l-61 -60zM170 237l46 47l-46 47l46 47l-46 47l60 61l61 -61l-48 -47l48 -47l-48 -47l48 -47l-61 -60z" />
<glyph unicode="&#x22;" d="M77 331l60 61l62 -61l-62 -60zM171 425l46 47l-46 47l60 61l62 -61l-48 -47l48 -47l-62 -60zM265 331l61 61l61 -61l-61 -60zM359 425l47 47l-47 47l61 61l61 -61l-48 -47l48 -47l-61 -60z" />
<glyph unicode="#" d="M-18 143l60 61l47 -48l33 34l-46 47l46 47l-33 33l-47 -46l-60 60l60 61l47 -48l33 34l-46 47l60 61l61 -61l-48 -47l34 -34l47 48l47 -48l33 34l-46 47l60 61l61 -61l-48 -47l34 -34l47 48l61 -61l-61 -60l-47 46l-34 -33l48 -47l-48 -47l34 -34l47 48l61 -61l-61 -60 l-47 46l-34 -33l48 -47l-61 -60l-60 60l46 47l-33 33l-47 -46l-47 46l-34 -33l48 -47l-61 -60l-60 60l46 47l-33 33l-47 -46zM149 190l34 -34l47 48l47 -48l33 34l-46 47l46 47l-33 33l-47 -46l-47 46l-34 -33l48 -47z" />
<glyph unicode="$" d="M-18 49l60 61l47 -48l47 48l47 -48l33 34l-46 47l46 47l-33 33l-47 -46l-60 60l60 61l47 -48l33 34l-46 47l46 47l-33 33l-47 -46l-60 60l60 61l47 -48l33 34l-46 47l60 61l61 -61l-48 -47l34 -34l47 48l47 -48l47 48l61 -61l-61 -60l-47 46l-47 -46l-47 46l-34 -33 l48 -47l-48 -47l34 -34l47 48l61 -61l-61 -60l-47 46l-34 -33l48 -47l-48 -47l34 -34l47 48l61 -61l-61 -60l-47 46l-34 -33l48 -47l-61 -60l-60 60l46 47l-33 33l-47 -46l-47 46l-47 -46zM-18 331l60 61l61 -61l-61 -60zM358 143l60 61l61 -61l-61 -60z" />
<glyph unicode="%" d="M-20 49l60 61l61 -61l-61 -60zM-20 331l46 47l-46 47l60 61l47 -48l47 48l62 -61l-48 -47l34 -33l46 47l62 -61l-62 -60l-46 46l-34 -33l48 -47l-48 -47l34 -33l46 47l48 -47l47 47l61 -61l-48 -47l48 -47l-61 -60l-47 46l-48 -46l-60 60l46 47l-32 33l-48 -46l-60 60 l46 47l-46 47l46 47l-33 33l-47 -46zM53 378l34 -34l33 34l-33 33zM242 96l34 -33l33 33l-33 33zM262 425l61 61l61 -61l-61 -60z" />
<glyph unicode="&#x26;" d="M-18 143l60 61l61 -61l-61 -60zM-18 331l60 61l61 -61l-61 -60zM76 49l60 61l47 -48l47 48l61 -61l-61 -60l-47 46l-47 -46zM76 237l60 61l47 -48l47 48l47 -48l47 48l47 -48l47 48l61 -61l-61 -60l-47 46l-34 -33l48 -47l-61 -60l-60 60l46 47l-33 33l-47 -46l-47 46 l-47 -46zM76 425l60 61l47 -48l47 48l61 -61l-61 -60l-47 46l-47 -46z" />
<glyph unicode="'" d="M171 331l60 61l62 -61l-62 -60zM265 425l47 47l-47 47l61 61l61 -61l-48 -47l48 -47l-61 -60z" />
<glyph unicode="(" d="M171 49l46 47l-46 47l46 47l-46 47l46 47l-46 47l46 47l-46 47l60 61l62 -61l-48 -47l48 -47l-48 -47l48 -47l-48 -47l48 -47l-48 -47l48 -47l-62 -60zM265 -45l61 61l61 -61l-61 -60zM265 519l61 61l61 -61l-61 -60z" />
<glyph unicode=")" d="M171 -45l60 61l62 -61l-62 -60zM171 519l60 61l62 -61l-62 -60zM265 49l47 47l-47 47l47 47l-47 47l47 47l-47 47l47 47l-47 47l61 61l61 -61l-48 -47l48 -47l-48 -47l48 -47l-48 -47l48 -47l-48 -47l48 -47l-61 -60z" />
<glyph unicode="*" d="M-21 331l60 61l61 -61l-61 -60zM-21 519l60 61l61 -61l-61 -60zM73 425l60 61l61 -61l-61 -60zM167 331l60 61l61 -61l-61 -60zM167 519l60 61l61 -61l-61 -60z" />
<glyph unicode="+" d="M-18 237l60 61l47 -48l47 48l47 -48l33 34l-46 47l46 47l-46 47l60 61l61 -61l-48 -47l48 -47l-48 -47l34 -34l47 48l47 -48l47 48l61 -61l-61 -60l-47 46l-47 -46l-47 46l-34 -33l48 -47l-48 -47l48 -47l-61 -60l-60 60l46 47l-46 47l46 47l-33 33l-47 -46l-47 46 l-47 -46z" />
<glyph unicode="," d="M74 -45l60 61l62 -61l-62 -60zM168 49l46 47l-46 47l60 61l62 -61l-48 -47l48 -47l-62 -60z" />
<glyph unicode="-" d="M76 237l60 61l47 -48l47 48l47 -48l47 48l61 -61l-61 -60l-47 46l-47 -46l-47 46l-47 -46z" />
<glyph unicode="." d="M170 49l46 47l-46 47l60 61l61 -61l-48 -47l48 -47l-61 -60z" />
<glyph unicode="/" d="M77 -45l46 47l-46 47l60 61l62 -61l-48 -47l48 -47l-62 -60zM171 143l60 61l62 -61l-62 -60zM265 237l47 47l-47 47l61 61l61 -61l-48 -47l48 -47l-61 -60zM359 425l47 47l-47 47l61 61l61 -61l-48 -47l48 -47l-61 -60z" />
<glyph unicode="0" d="M-18 143l46 47l-46 47l46 47l-46 47l60 61l61 -61l-48 -47l48 -47l-48 -47l34 -34l47 48l61 -61l-48 -47l34 -34l47 48l47 -48l47 48l61 -61l-61 -60l-47 46l-47 -46l-47 46l-47 -46l-60 60l46 47l-33 33l-47 -46zM76 425l60 61l47 -48l47 48l47 -48l47 48l61 -61 l-48 -47l34 -34l47 48l61 -61l-48 -47l48 -47l-48 -47l48 -47l-61 -60l-60 60l46 47l-46 47l46 47l-33 33l-47 -46l-60 60l46 47l-33 33l-47 -46l-47 46l-47 -46zM170 237l60 61l61 -61l-61 -60z" />
<glyph unicode="1" d="M-18 49l60 61l47 -48l47 48l47 -48l33 34l-46 47l46 47l-46 47l46 47l-46 47l46 47l-33 33l-47 -46l-47 46l-47 -46l-60 60l60 61l47 -48l47 48l47 -48l47 48l61 -61l-48 -47l48 -47l-48 -47l48 -47l-48 -47l48 -47l-48 -47l34 -34l47 48l47 -48l47 48l61 -61l-61 -60 l-47 46l-47 -46l-47 46l-47 -46l-47 46l-47 -46l-47 46l-47 -46z" />
<glyph unicode="2" d="M-18 49l60 61l47 -48l33 34l-46 47l60 61l61 -61l-48 -47l34 -34l47 48l47 -48l47 48l47 -48l47 48l61 -61l-61 -60l-47 46l-47 -46l-47 46l-47 -46l-47 46l-47 -46l-47 46l-47 -46zM-18 331l60 61l61 -61l-61 -60zM76 425l60 61l47 -48l47 48l47 -48l47 48l61 -61 l-61 -60l-47 46l-47 -46l-47 46l-47 -46zM170 237l60 61l47 -48l47 48l61 -61l-61 -60l-47 46l-47 -46zM358 331l60 61l61 -61l-61 -60z" />
<glyph unicode="3" d="M-18 49l60 61l47 -48l47 48l47 -48l47 48l47 -48l47 48l61 -61l-61 -60l-47 46l-47 -46l-47 46l-47 -46l-47 46l-47 -46zM-18 425l60 61l47 -48l47 48l47 -48l47 48l47 -48l47 48l61 -61l-61 -60l-47 46l-47 -46l-47 46l-47 -46l-47 46l-47 -46zM76 237l60 61l47 -48 l47 48l47 -48l47 48l61 -61l-61 -60l-47 46l-47 -46l-47 46l-47 -46zM358 143l60 61l61 -61l-61 -60zM358 331l60 61l61 -61l-61 -60z" />
<glyph unicode="4" d="M-18 143l60 61l47 -48l33 34l-46 47l60 61l61 -61l-48 -47l34 -34l47 48l47 -48l33 34l-46 47l46 47l-33 33l-47 -46l-60 60l60 61l47 -48l33 34l-46 47l60 61l61 -61l-48 -47l48 -47l-48 -47l48 -47l-48 -47l34 -34l47 48l61 -61l-61 -60l-47 46l-34 -33l48 -47l-61 -60 l-60 60l46 47l-33 33l-47 -46l-47 46l-47 -46l-47 46l-47 -46z" />
<glyph unicode="5" d="M-18 49l60 61l47 -48l47 48l47 -48l47 48l47 -48l47 48l61 -61l-61 -60l-47 46l-47 -46l-47 46l-47 -46l-47 46l-47 -46zM-18 237l46 47l-46 47l46 47l-46 47l60 61l47 -48l47 48l47 -48l47 48l47 -48l47 48l47 -48l47 48l61 -61l-61 -60l-47 46l-47 -46l-47 46l-47 -46 l-47 46l-47 -46l-47 46l-34 -33l48 -47l-48 -47l34 -34l47 48l47 -48l47 48l47 -48l47 48l61 -61l-61 -60l-47 46l-47 -46l-47 46l-47 -46l-47 46l-47 -46zM358 143l60 61l61 -61l-61 -60z" />
<glyph unicode="6" d="M-18 143l46 47l-46 47l46 47l-46 47l60 61l61 -61l-48 -47l34 -34l47 48l47 -48l47 48l47 -48l47 48l61 -61l-61 -60l-47 46l-47 -46l-47 46l-47 -46l-47 46l-34 -33l48 -47l-61 -60zM76 49l60 61l47 -48l47 48l47 -48l47 48l61 -61l-61 -60l-47 46l-47 -46l-47 46 l-47 -46zM76 425l60 61l47 -48l47 48l47 -48l47 48l61 -61l-61 -60l-47 46l-47 -46l-47 46l-47 -46zM358 143l60 61l61 -61l-61 -60z" />
<glyph unicode="7" d="M-18 425l60 61l47 -48l47 48l47 -48l47 48l47 -48l47 48l47 -48l47 48l61 -61l-48 -47l48 -47l-61 -60l-60 60l46 47l-33 33l-47 -46l-47 46l-47 -46l-47 46l-47 -46l-47 46l-47 -46zM76 49l60 61l61 -61l-61 -60zM170 143l60 61l61 -61l-61 -60zM264 237l60 61l61 -61 l-61 -60z" />
<glyph unicode="8" d="M-18 143l60 61l61 -61l-61 -60zM-18 331l60 61l61 -61l-61 -60zM76 49l60 61l47 -48l47 48l47 -48l47 48l61 -61l-61 -60l-47 46l-47 -46l-47 46l-47 -46zM76 237l60 61l47 -48l47 48l47 -48l47 48l61 -61l-61 -60l-47 46l-47 -46l-47 46l-47 -46zM76 425l60 61l47 -48 l47 48l47 -48l47 48l61 -61l-61 -60l-47 46l-47 -46l-47 46l-47 -46zM358 143l60 61l61 -61l-61 -60zM358 331l60 61l61 -61l-61 -60z" />
<glyph unicode="9" d="M-18 331l60 61l61 -61l-61 -60zM76 49l60 61l47 -48l47 48l47 -48l47 48l61 -61l-61 -60l-47 46l-47 -46l-47 46l-47 -46zM76 237l60 61l47 -48l47 48l47 -48l47 48l47 -48l33 34l-46 47l60 61l61 -61l-48 -47l48 -47l-48 -47l48 -47l-61 -60l-60 60l46 47l-33 33 l-47 -46l-47 46l-47 -46l-47 46l-47 -46zM76 425l60 61l47 -48l47 48l47 -48l47 48l61 -61l-61 -60l-47 46l-47 -46l-47 46l-47 -46z" />
<glyph unicode=":" d="M170 49l46 47l-46 47l60 61l61 -61l-48 -47l48 -47l-61 -60zM170 331l46 47l-46 47l60 61l61 -61l-48 -47l48 -47l-61 -60z" />
<glyph unicode=";" d="M74 -45l60 61l62 -61l-62 -60zM168 49l46 47l-46 47l60 61l62 -61l-48 -47l48 -47l-62 -60zM168 331l46 47l-46 47l60 61l62 -61l-48 -47l48 -47l-62 -60z" />
<glyph unicode="&#x3c;" d="M76 237l60 61l61 -61l-61 -60zM170 143l60 61l61 -61l-61 -60zM170 331l60 61l61 -61l-61 -60zM264 49l60 61l61 -61l-61 -60zM264 425l60 61l61 -61l-61 -60z" />
<glyph unicode="=" d="M-18 143l60 61l47 -48l47 48l47 -48l47 48l47 -48l47 48l47 -48l47 48l61 -61l-61 -60l-47 46l-47 -46l-47 46l-47 -46l-47 46l-47 -46l-47 46l-47 -46zM-18 331l60 61l47 -48l47 48l47 -48l47 48l47 -48l47 48l47 -48l47 48l61 -61l-61 -60l-47 46l-47 -46l-47 46 l-47 -46l-47 46l-47 -46l-47 46l-47 -46z" />
<glyph unicode="&#x3e;" d="M173 49l60 61l61 -61l-61 -60zM173 425l60 61l61 -61l-61 -60zM267 143l60 61l61 -61l-61 -60zM267 331l60 61l61 -61l-61 -60zM361 237l60 61l61 -61l-61 -60z" />
<glyph unicode="?" d="M-18 331l60 61l61 -61l-61 -60zM76 425l60 61l47 -48l47 48l47 -48l47 48l61 -61l-61 -60l-47 46l-47 -46l-47 46l-47 -46zM170 49l60 61l61 -61l-61 -60zM170 237l60 61l47 -48l47 48l61 -61l-61 -60l-47 46l-47 -46zM358 331l60 61l61 -61l-61 -60z" />
<glyph unicode="@" d="M-18 49l46 47l-46 47l46 47l-46 47l46 47l-46 47l46 47l-46 47l60 61l61 -61l-48 -47l48 -47l-48 -47l34 -34l47 48l61 -61l-48 -47l34 -34l47 48l47 -48l33 34l-46 47l46 47l-33 33l-47 -46l-60 60l60 61l47 -48l47 48l47 -48l33 34l-46 47l60 61l61 -61l-48 -47l48 -47 l-48 -47l48 -47l-48 -47l48 -47l-61 -60l-47 46l-47 -46l-47 46l-47 -46l-47 46l-47 -46l-47 46l-34 -33l48 -47l-61 -60zM55 190l34 -34l33 34l-33 33zM76 -45l60 61l47 -47l47 47l47 -47l47 47l47 -47l47 47l61 -61l-61 -60l-47 47l-47 -47l-47 47l-47 -47l-47 47l-47 -47 zM76 519l60 61l47 -48l47 48l47 -48l47 48l61 -61l-61 -60l-47 46l-47 -46l-47 46l-47 -46zM337 190l34 -34l33 34l-33 33zM337 284l34 -34l33 34l-33 33z" />
<glyph unicode="A" d="M-21 50l47 48l-47 48l47 48l-47 48l47 48l-47 48l61 62l63 -62l-49 -48l34 -34l48 48l49 -48l47 48l48 -49l48 49l48 -49l34 35l-47 48l61 62l62 -62l-48 -48l48 -48l-48 -48l48 -48l-48 -48l48 -48l-62 -62l-61 62l47 48l-47 48l47 48l-34 34l-48 -48l-48 48l-48 -48 l-47 48l-49 -48l-48 48l-34 -34l49 -48l-49 -48l49 -48l-63 -62zM75 433l61 63l49 -49l47 49l48 -49l48 49l62 -63l-62 -61l-48 47l-48 -47l-47 47l-49 -47z" />
<glyph unicode="B" d="M-21 50l47 48l-47 48l47 48l-47 48l47 48l-47 48l47 48l-47 47l61 63l49 -49l47 49l49 -49l47 49l48 -49l48 49l62 -63l-62 -61l-48 47l-48 -47l-47 47l-49 -47l-47 47l-35 -33l49 -48l-49 -48l34 -34l48 48l49 -48l47 48l48 -49l48 49l62 -62l-62 -62l-48 48l-48 -48 l-47 48l-49 -48l-48 48l-34 -34l49 -48l-49 -48l34 -34l48 48l49 -48l47 48l48 -49l48 49l62 -62l-62 -62l-48 48l-48 -48l-47 48l-49 -48l-47 48l-49 -48zM363 146l61 62l62 -62l-62 -62zM363 338l61 62l62 -62l-62 -62z" />
<glyph unicode="C" d="M-21 146l47 48l-47 48l47 48l-47 48l61 62l63 -62l-49 -48l49 -48l-49 -48l49 -48l-63 -62zM75 50l61 62l49 -48l47 48l48 -49l48 49l48 -49l48 49l62 -62l-62 -62l-48 48l-48 -48l-48 48l-48 -48l-47 48l-49 -48zM75 433l61 63l49 -49l47 49l48 -49l48 49l48 -49l48 49 l62 -63l-62 -61l-48 47l-48 -47l-48 47l-48 -47l-47 47l-49 -47z" />
<glyph unicode="D" d="M-21 50l47 48l-47 48l47 48l-47 48l47 48l-47 48l47 48l-47 47l61 63l49 -49l47 49l49 -49l47 49l48 -49l48 49l62 -63l-62 -61l-48 47l-48 -47l-47 47l-49 -47l-47 47l-35 -33l49 -48l-49 -48l49 -48l-49 -48l49 -48l-49 -48l34 -34l48 48l49 -48l47 48l48 -49l48 49 l62 -62l-62 -62l-48 48l-48 -48l-47 48l-49 -48l-47 48l-49 -48zM363 146l47 48l-47 48l47 48l-47 48l61 62l62 -62l-48 -48l48 -48l-48 -48l48 -48l-62 -62z" />
<glyph unicode="E" d="M-21 50l47 48l-47 48l47 48l-47 48l47 48l-47 48l47 48l-47 47l61 63l49 -49l47 49l49 -49l47 49l48 -49l48 49l48 -49l48 49l62 -63l-62 -61l-48 47l-48 -47l-48 47l-48 -47l-47 47l-49 -47l-47 47l-35 -33l49 -48l-49 -48l34 -34l48 48l49 -48l47 48l48 -49l48 49 l62 -62l-62 -62l-48 48l-48 -48l-47 48l-49 -48l-48 48l-34 -34l49 -48l-49 -48l34 -34l48 48l49 -48l47 48l48 -49l48 49l48 -49l48 49l62 -62l-62 -62l-48 48l-48 -48l-48 48l-48 -48l-47 48l-49 -48l-47 48l-49 -48z" />
<glyph unicode="F" d="M-21 50l47 48l-47 48l47 48l-47 48l47 48l-47 48l47 48l-47 47l61 63l49 -49l47 49l49 -49l47 49l48 -49l48 49l48 -49l48 49l62 -63l-62 -61l-48 47l-48 -47l-48 47l-48 -47l-47 47l-49 -47l-47 47l-35 -33l49 -48l-49 -48l34 -34l48 48l49 -48l47 48l48 -49l48 49 l62 -62l-62 -62l-48 48l-48 -48l-47 48l-49 -48l-48 48l-34 -34l49 -48l-49 -48l49 -48l-63 -62z" />
<glyph unicode="G" d="M-21 146l47 48l-47 48l47 48l-47 48l61 62l63 -62l-49 -48l49 -48l-49 -48l49 -48l-63 -62zM75 50l61 62l49 -48l47 48l48 -49l48 49l48 -49l34 35l-47 48l47 48l-34 34l-48 -48l-61 62l61 62l48 -49l48 49l62 -62l-48 -48l48 -48l-48 -48l48 -48l-62 -62l-48 48l-48 -48 l-48 48l-48 -48l-47 48l-49 -48zM75 433l61 63l49 -49l47 49l48 -49l48 49l48 -49l48 49l62 -63l-62 -61l-48 47l-48 -47l-48 47l-48 -47l-47 47l-49 -47z" />
<glyph unicode="H" d="M-21 50l47 48l-47 48l47 48l-47 48l47 48l-47 48l47 48l-47 47l61 63l63 -63l-49 -47l49 -48l-49 -48l34 -34l48 48l49 -48l47 48l48 -49l48 49l48 -49l34 35l-47 48l47 48l-47 47l61 63l62 -63l-48 -47l48 -48l-48 -48l48 -48l-48 -48l48 -48l-48 -48l48 -48l-62 -62 l-61 62l47 48l-47 48l47 48l-34 34l-48 -48l-48 48l-48 -48l-47 48l-49 -48l-48 48l-34 -34l49 -48l-49 -48l49 -48l-63 -62z" />
<glyph unicode="I" d="M-21 50l61 62l49 -48l47 48l49 -48l33 34l-47 48l47 48l-47 48l47 48l-47 48l47 48l-33 33l-49 -47l-47 47l-49 -47l-61 61l61 63l49 -49l47 49l49 -49l47 49l48 -49l48 49l48 -49l48 49l62 -63l-62 -61l-48 47l-48 -47l-48 47l-34 -33l48 -48l-48 -48l48 -48l-48 -48 l48 -48l-48 -48l34 -35l48 49l48 -49l48 49l62 -62l-62 -62l-48 48l-48 -48l-48 48l-48 -48l-47 48l-49 -48l-47 48l-49 -48z" />
<glyph unicode="J" d="M-22 146l61 62l63 -62l-63 -62zM-22 433l61 63l49 -49l47 49l49 -49l47 49l48 -49l48 49l62 -63l-48 -47l48 -48l-48 -48l48 -48l-48 -48l48 -48l-62 -62l-61 62l47 48l-47 48l47 48l-47 48l47 48l-34 33l-48 -47l-47 47l-49 -47l-47 47l-49 -47zM74 50l61 62l49 -48 l47 48l62 -62l-62 -62l-47 48l-49 -48z" />
<glyph unicode="K" d="M-21 50l47 48l-47 48l47 48l-47 48l47 48l-47 48l47 48l-47 47l61 63l63 -63l-49 -47l49 -48l-49 -48l34 -34l48 48l49 -48l47 48l48 -49l48 49l62 -62l-62 -62l-48 48l-48 -48l-47 48l-49 -48l-48 48l-34 -34l49 -48l-49 -48l49 -48l-63 -62zM363 50l47 48l-47 48l61 62 l62 -62l-48 -48l48 -48l-62 -62zM363 338l47 48l-47 47l61 63l62 -63l-48 -47l48 -48l-62 -62z" />
<glyph unicode="L" d="M-21 50l47 48l-47 48l47 48l-47 48l47 48l-47 48l47 48l-47 47l61 63l63 -63l-49 -47l49 -48l-49 -48l49 -48l-49 -48l49 -48l-49 -48l34 -34l48 48l49 -48l47 48l48 -49l48 49l48 -49l48 49l62 -62l-62 -62l-48 48l-48 -48l-48 48l-48 -48l-47 48l-49 -48l-47 48 l-49 -48z" />
<glyph unicode="M" d="M-21 50l47 48l-47 48l47 48l-47 48l47 48l-47 48l47 48l-47 47l61 63l63 -63l-49 -47l35 -34l47 48l63 -62l-63 -62l-48 48l-34 -34l49 -48l-49 -48l49 -48l-49 -48l49 -48l-63 -62zM171 146l47 48l-47 48l61 62l62 -62l-48 -48l48 -48l-62 -62zM267 338l61 62l48 -49 l34 35l-47 47l61 63l62 -63l-48 -47l48 -48l-48 -48l48 -48l-48 -48l48 -48l-48 -48l48 -48l-62 -62l-61 62l47 48l-47 48l47 48l-47 48l47 48l-34 34l-48 -48z" />
<glyph unicode="N" d="M-21 50l47 48l-47 48l47 48l-47 48l47 48l-47 48l47 48l-47 47l61 63l63 -63l-49 -47l35 -34l47 48l63 -62l-63 -62l-48 48l-34 -34l49 -48l-49 -48l49 -48l-49 -48l49 -48l-63 -62zM171 242l61 62l62 -62l-62 -62zM267 146l61 62l48 -49l34 35l-47 48l47 48l-47 48 l47 48l-47 47l61 63l62 -63l-48 -47l48 -48l-48 -48l48 -48l-48 -48l48 -48l-48 -48l48 -48l-62 -62l-61 62l47 48l-34 34l-48 -48z" />
<glyph unicode="O" d="M-21 146l47 48l-47 48l47 48l-47 48l61 62l63 -62l-49 -48l49 -48l-49 -48l49 -48l-63 -62zM75 50l61 62l49 -48l47 48l48 -49l48 49l62 -62l-62 -62l-48 48l-48 -48l-47 48l-49 -48zM75 433l61 63l49 -49l47 49l48 -49l48 49l62 -63l-62 -61l-48 47l-48 -47l-47 47 l-49 -47zM363 146l47 48l-47 48l47 48l-47 48l61 62l62 -62l-48 -48l48 -48l-48 -48l48 -48l-62 -62z" />
<glyph unicode="P" d="M-21 50l47 48l-47 48l47 48l-47 48l47 48l-47 48l47 48l-47 47l61 63l49 -49l47 49l49 -49l47 49l48 -49l48 49l62 -63l-62 -61l-48 47l-48 -47l-47 47l-49 -47l-47 47l-35 -33l49 -48l-49 -48l34 -34l48 48l49 -48l47 48l48 -49l48 49l62 -62l-62 -62l-48 48l-48 -48 l-47 48l-49 -48l-48 48l-34 -34l49 -48l-49 -48l49 -48l-63 -62zM363 338l61 62l62 -62l-62 -62z" />
<glyph unicode="Q" d="M-21 146l47 48l-47 48l47 48l-47 48l61 62l63 -62l-49 -48l49 -48l-49 -48l49 -48l-63 -62zM75 50l61 62l49 -48l33 34l-47 48l61 62l62 -62l-48 -48l34 -35l48 49l62 -62l-62 -62l-48 48l-34 -34l48 -48l-62 -61l-61 61l47 48l-33 34l-49 -48zM75 433l61 63l49 -49 l47 49l48 -49l48 49l62 -63l-62 -61l-48 47l-48 -47l-47 47l-49 -47zM267 -142l61 62l62 -62l-62 -61zM363 146l47 48l-47 48l47 48l-47 48l61 62l62 -62l-48 -48l48 -48l-48 -48l48 -48l-62 -62z" />
<glyph unicode="R" d="M-21 50l47 48l-47 48l47 48l-47 48l47 48l-47 48l47 48l-47 47l61 63l49 -49l47 49l49 -49l47 49l48 -49l48 49l62 -63l-62 -61l-48 47l-48 -47l-47 47l-49 -47l-47 47l-35 -33l49 -48l-49 -48l34 -34l48 48l49 -48l47 48l48 -49l48 49l62 -62l-48 -48l48 -48l-62 -62 l-61 62l47 48l-34 34l-48 -48l-47 48l-49 -48l-48 48l-34 -34l49 -48l-49 -48l49 -48l-63 -62zM363 50l61 62l62 -62l-62 -62zM363 338l61 62l62 -62l-62 -62z" />
<glyph unicode="S" d="M-21 50l61 62l49 -48l47 48l49 -48l47 48l48 -49l48 49l62 -62l-62 -62l-48 48l-48 -48l-47 48l-49 -48l-47 48l-49 -48zM-21 338l61 62l63 -62l-63 -62zM75 242l61 62l49 -48l47 48l48 -49l48 49l62 -62l-62 -62l-48 48l-48 -48l-47 48l-49 -48zM75 433l61 63l49 -49 l47 49l48 -49l48 49l48 -49l48 49l62 -63l-62 -61l-48 47l-48 -47l-48 47l-48 -47l-47 47l-49 -47zM363 146l61 62l62 -62l-62 -62z" />
<glyph unicode="T" d="M-21 433l61 63l49 -49l47 49l49 -49l47 49l48 -49l48 49l48 -49l48 49l62 -63l-62 -61l-48 47l-48 -47l-48 47l-34 -33l48 -48l-48 -48l48 -48l-48 -48l48 -48l-48 -48l48 -48l-62 -62l-61 62l47 48l-47 48l47 48l-47 48l47 48l-47 48l47 48l-33 33l-49 -47l-47 47 l-49 -47z" />
<glyph unicode="U" d="M-21 146l47 48l-47 48l47 48l-47 48l47 48l-47 47l61 63l63 -63l-49 -47l49 -48l-49 -48l49 -48l-49 -48l49 -48l-63 -62zM75 50l61 62l49 -48l47 48l48 -49l48 49l62 -62l-62 -62l-48 48l-48 -48l-47 48l-49 -48zM363 146l47 48l-47 48l47 48l-47 48l47 48l-47 47l61 63 l62 -63l-48 -47l48 -48l-48 -48l48 -48l-48 -48l48 -48l-62 -62z" />
<glyph unicode="V" d="M-21 242l47 48l-47 48l47 48l-47 47l61 63l63 -63l-49 -47l49 -48l-49 -48l49 -48l-63 -62zM75 146l61 62l63 -62l-63 -62zM171 50l61 62l62 -62l-62 -62zM267 146l61 62l62 -62l-62 -62zM363 242l47 48l-47 48l47 48l-47 47l61 63l62 -63l-48 -47l48 -48l-48 -48l48 -48 l-62 -62z" />
<glyph unicode="W" d="M-21 146l47 48l-47 48l47 48l-47 48l47 48l-47 47l61 63l63 -63l-49 -47l49 -48l-49 -48l49 -48l-49 -48l49 -48l-63 -62zM75 50l61 62l63 -62l-63 -62zM171 146l47 48l-47 48l47 48l-47 48l61 62l62 -62l-48 -48l48 -48l-48 -48l48 -48l-62 -62zM267 50l61 62l62 -62 l-62 -62zM363 146l47 48l-47 48l47 48l-47 48l47 48l-47 47l61 63l62 -63l-48 -47l48 -48l-48 -48l48 -48l-48 -48l48 -48l-62 -62z" />
<glyph unicode="X" d="M-21 50l47 48l-47 48l61 62l63 -62l-49 -48l49 -48l-63 -62zM-21 338l47 48l-47 47l61 63l63 -63l-49 -47l49 -48l-63 -62zM75 242l61 62l49 -48l47 48l48 -49l48 49l62 -62l-62 -62l-48 48l-48 -48l-47 48l-49 -48zM363 50l47 48l-47 48l61 62l62 -62l-48 -48l48 -48 l-62 -62zM363 338l47 48l-47 47l61 63l62 -63l-48 -47l48 -48l-62 -62z" />
<glyph unicode="Y" d="M-21 338l47 48l-47 47l61 63l63 -63l-49 -47l49 -48l-63 -62zM75 242l61 62l63 -62l-63 -62zM171 50l47 48l-47 48l61 62l62 -62l-48 -48l48 -48l-62 -62zM267 242l61 62l62 -62l-62 -62zM363 338l47 48l-47 47l61 63l62 -63l-48 -47l48 -48l-62 -62z" />
<glyph unicode="Z" d="M-21 50l61 62l49 -48l33 34l-47 48l61 62l63 -62l-49 -48l34 -34l48 48l48 -49l48 49l48 -49l48 49l62 -62l-62 -62l-48 48l-48 -48l-48 48l-48 -48l-47 48l-49 -48l-47 48l-49 -48zM-21 433l61 63l49 -49l47 49l49 -49l47 49l48 -49l48 49l48 -49l48 49l62 -63l-62 -61 l-48 47l-34 -33l48 -48l-62 -62l-61 62l47 48l-34 33l-48 -47l-47 47l-49 -47l-47 47l-49 -47zM171 242l61 62l62 -62l-62 -62z" />
<glyph unicode="[" d="M171 -45l46 47l-46 47l46 47l-46 47l46 47l-46 47l46 47l-46 47l46 47l-46 47l46 47l-46 47l60 61l48 -47l47 47l61 -61l-61 -60l-47 46l-34 -33l48 -47l-48 -47l48 -47l-48 -47l48 -47l-48 -47l48 -47l-48 -47l48 -47l-48 -47l34 -33l47 47l61 -61l-61 -60l-47 47 l-48 -47z" />
<glyph unicode="\" d="M77 425l46 47l-46 47l60 61l62 -61l-48 -47l48 -47l-62 -60zM171 237l46 47l-46 47l60 61l62 -61l-48 -47l48 -47l-62 -60zM265 143l61 61l61 -61l-61 -60zM359 -45l47 47l-47 47l61 61l61 -61l-48 -47l48 -47l-61 -60z" />
<glyph unicode="]" d="M171 -45l60 61l48 -47l33 33l-47 47l47 47l-47 47l47 47l-47 47l47 47l-47 47l47 47l-47 47l47 47l-33 33l-48 -46l-60 60l60 61l48 -47l47 47l61 -61l-48 -47l48 -47l-48 -47l48 -47l-48 -47l48 -47l-48 -47l48 -47l-48 -47l48 -47l-48 -47l48 -47l-61 -60l-47 47 l-48 -47z" />
<glyph unicode="^" d="M76 613l60 61l61 -61l-61 -60zM170 707l60 61l61 -61l-61 -60zM264 613l60 61l61 -61l-61 -60z" />
<glyph unicode="_" d="M-18 49l60 61l47 -48l47 48l47 -48l47 48l47 -48l47 48l47 -48l47 48l61 -61l-61 -60l-47 46l-47 -46l-47 46l-47 -46l-47 46l-47 -46l-47 46l-47 -46z" />
<glyph unicode="`" d="M-21 707l60 61l61 -61l-61 -60zM73 613l60 61l47 -48l47 48l61 -61l-61 -60l-47 46l-47 -46z" />
<glyph unicode="a" d="M-18 143l60 61l61 -61l-61 -60zM76 49l60 61l47 -48l47 48l47 -48l47 48l47 -48l33 34l-46 47l46 47l-33 33l-47 -46l-47 46l-47 -46l-47 46l-47 -46l-60 60l60 61l47 -48l47 48l47 -48l47 48l47 -48l33 34l-46 47l60 61l61 -61l-48 -47l48 -47l-48 -47l48 -47l-48 -47 l48 -47l-61 -60l-47 46l-47 -46l-47 46l-47 -46l-47 46l-47 -46zM76 425l60 61l47 -48l47 48l47 -48l47 48l61 -61l-61 -60l-47 46l-47 -46l-47 46l-47 -46z" />
<glyph unicode="b" d="M-18 49l46 47l-46 47l46 47l-46 47l46 47l-46 47l46 47l-46 47l60 61l47 -48l47 48l47 -48l47 48l47 -48l47 48l61 -61l-61 -60l-47 46l-47 -46l-47 46l-47 -46l-47 46l-34 -33l48 -47l-48 -47l34 -34l47 48l47 -48l47 48l47 -48l47 48l61 -61l-61 -60l-47 46l-47 -46 l-47 46l-47 -46l-47 46l-34 -33l48 -47l-48 -47l34 -34l47 48l47 -48l47 48l47 -48l47 48l61 -61l-61 -60l-47 46l-47 -46l-47 46l-47 -46l-47 46l-47 -46zM358 143l60 61l61 -61l-61 -60zM358 331l60 61l61 -61l-61 -60z" />
<glyph unicode="c" d="M-18 143l46 47l-46 47l46 47l-46 47l60 61l61 -61l-48 -47l48 -47l-48 -47l48 -47l-61 -60zM76 49l60 61l47 -48l47 48l47 -48l47 48l61 -61l-61 -60l-47 46l-47 -46l-47 46l-47 -46zM76 425l60 61l47 -48l47 48l47 -48l47 48l61 -61l-61 -60l-47 46l-47 -46l-47 46 l-47 -46zM358 143l60 61l61 -61l-61 -60zM358 331l60 61l61 -61l-61 -60z" />
<glyph unicode="d" d="M-18 49l46 47l-46 47l46 47l-46 47l46 47l-46 47l46 47l-46 47l60 61l47 -48l47 48l47 -48l47 48l47 -48l47 48l61 -61l-61 -60l-47 46l-47 -46l-47 46l-47 -46l-47 46l-34 -33l48 -47l-48 -47l48 -47l-48 -47l48 -47l-48 -47l34 -34l47 48l47 -48l47 48l47 -48l47 48 l61 -61l-61 -60l-47 46l-47 -46l-47 46l-47 -46l-47 46l-47 -46zM358 143l46 47l-46 47l46 47l-46 47l60 61l61 -61l-48 -47l48 -47l-48 -47l48 -47l-61 -60z" />
<glyph unicode="e" d="M-18 143l46 47l-46 47l46 47l-46 47l60 61l61 -61l-48 -47l34 -34l47 48l47 -48l47 48l47 -48l47 48l47 -48l33 34l-46 47l60 61l61 -61l-48 -47l48 -47l-61 -60l-47 46l-47 -46l-47 46l-47 -46l-47 46l-47 -46l-47 46l-34 -33l48 -47l-61 -60zM76 49l60 61l47 -48l47 48 l47 -48l47 48l47 -48l47 48l61 -61l-61 -60l-47 46l-47 -46l-47 46l-47 -46l-47 46l-47 -46zM76 425l60 61l47 -48l47 48l47 -48l47 48l61 -61l-61 -60l-47 46l-47 -46l-47 46l-47 -46z" />
<glyph unicode="f" d="M-18 49l46 47l-46 47l46 47l-46 47l46 47l-46 47l46 47l-46 47l60 61l47 -48l47 48l47 -48l47 48l47 -48l47 48l47 -48l47 48l61 -61l-61 -60l-47 46l-47 -46l-47 46l-47 -46l-47 46l-47 -46l-47 46l-34 -33l48 -47l-48 -47l34 -34l47 48l47 -48l47 48l47 -48l47 48 l61 -61l-61 -60l-47 46l-47 -46l-47 46l-47 -46l-47 46l-34 -33l48 -47l-48 -47l48 -47l-61 -60z" />
<glyph unicode="g" d="M-18 143l46 47l-46 47l46 47l-46 47l60 61l61 -61l-48 -47l48 -47l-48 -47l48 -47l-61 -60zM76 49l60 61l47 -48l47 48l47 -48l47 48l47 -48l33 34l-46 47l46 47l-33 33l-47 -46l-60 60l60 61l47 -48l47 48l61 -61l-48 -47l48 -47l-48 -47l48 -47l-61 -60l-47 46l-47 -46 l-47 46l-47 -46l-47 46l-47 -46zM76 425l60 61l47 -48l47 48l47 -48l47 48l47 -48l47 48l61 -61l-61 -60l-47 46l-47 -46l-47 46l-47 -46l-47 46l-47 -46z" />
<glyph unicode="h" d="M-18 49l46 47l-46 47l46 47l-46 47l46 47l-46 47l46 47l-46 47l60 61l61 -61l-48 -47l48 -47l-48 -47l34 -34l47 48l47 -48l47 48l47 -48l47 48l47 -48l33 34l-46 47l46 47l-46 47l60 61l61 -61l-48 -47l48 -47l-48 -47l48 -47l-48 -47l48 -47l-48 -47l48 -47l-61 -60 l-60 60l46 47l-46 47l46 47l-33 33l-47 -46l-47 46l-47 -46l-47 46l-47 -46l-47 46l-34 -33l48 -47l-48 -47l48 -47l-61 -60z" />
<glyph unicode="i" d="M-18 49l60 61l47 -48l47 48l47 -48l33 34l-46 47l46 47l-46 47l46 47l-46 47l46 47l-33 33l-47 -46l-47 46l-47 -46l-60 60l60 61l47 -48l47 48l47 -48l47 48l61 -61l-48 -47l48 -47l-48 -47l48 -47l-48 -47l48 -47l-48 -47l34 -34l47 48l47 -48l47 48l61 -61l-61 -60 l-47 46l-47 -46l-47 46l-47 -46l-47 46l-47 -46l-47 46l-47 -46zM170 613l60 61l61 -61l-61 -60z" />
<glyph unicode="j" d="M77 143l60 61l62 -61l-62 -60zM77 425l60 61l48 -47l46 47l48 -47l47 47l47 -47l47 47l61 -61l-48 -47l48 -47l-48 -47l48 -47l-48 -47l48 -47l-61 -60l-61 60l47 47l-47 47l47 47l-47 47l47 47l-33 33l-47 -46l-47 46l-48 -46l-46 46l-48 -46zM171 49l60 61l48 -47 l47 47l61 -61l-61 -60l-47 46l-48 -46z" />
<glyph unicode="k" d="M-18 49l46 47l-46 47l46 47l-46 47l46 47l-46 47l46 47l-46 47l60 61l61 -61l-48 -47l48 -47l-48 -47l34 -34l47 48l47 -48l47 48l47 -48l47 48l61 -61l-61 -60l-47 46l-47 -46l-47 46l-47 -46l-47 46l-34 -33l48 -47l-48 -47l48 -47l-61 -60zM358 49l46 47l-46 47l60 61 l61 -61l-48 -47l48 -47l-61 -60zM358 331l46 47l-46 47l60 61l61 -61l-48 -47l48 -47l-61 -60z" />
<glyph unicode="l" d="M-18 49l46 47l-46 47l46 47l-46 47l46 47l-46 47l46 47l-46 47l60 61l61 -61l-48 -47l48 -47l-48 -47l48 -47l-48 -47l48 -47l-48 -47l34 -34l47 48l47 -48l47 48l47 -48l47 48l47 -48l47 48l61 -61l-61 -60l-47 46l-47 -46l-47 46l-47 -46l-47 46l-47 -46l-47 46 l-47 -46z" />
<glyph unicode="m" d="M-18 49l46 47l-46 47l46 47l-46 47l46 47l-46 47l46 47l-46 47l60 61l61 -61l-48 -47l34 -34l47 48l47 -48l33 34l-46 47l60 61l61 -61l-48 -47l34 -34l47 48l47 -48l33 34l-46 47l60 61l61 -61l-48 -47l48 -47l-48 -47l48 -47l-48 -47l48 -47l-48 -47l48 -47l-61 -60 l-60 60l46 47l-46 47l46 47l-46 47l46 47l-33 33l-47 -46l-47 46l-34 -33l48 -47l-48 -47l48 -47l-48 -47l48 -47l-61 -60l-60 60l46 47l-46 47l46 47l-46 47l46 47l-33 33l-47 -46l-47 46l-34 -33l48 -47l-48 -47l48 -47l-48 -47l48 -47l-61 -60z" />
<glyph unicode="n" d="M-18 49l46 47l-46 47l46 47l-46 47l46 47l-46 47l46 47l-46 47l60 61l61 -61l-48 -47l34 -34l47 48l61 -61l-61 -60l-47 46l-34 -33l48 -47l-48 -47l48 -47l-48 -47l48 -47l-61 -60zM170 425l60 61l47 -48l47 48l61 -61l-61 -60l-47 46l-47 -46zM358 49l46 47l-46 47 l46 47l-46 47l46 47l-46 47l60 61l61 -61l-48 -47l48 -47l-48 -47l48 -47l-48 -47l48 -47l-61 -60z" />
<glyph unicode="o" d="M-18 143l46 47l-46 47l46 47l-46 47l60 61l61 -61l-48 -47l48 -47l-48 -47l48 -47l-61 -60zM76 49l60 61l47 -48l47 48l47 -48l47 48l61 -61l-61 -60l-47 46l-47 -46l-47 46l-47 -46zM76 425l60 61l47 -48l47 48l47 -48l47 48l61 -61l-61 -60l-47 46l-47 -46l-47 46 l-47 -46zM358 143l46 47l-46 47l46 47l-46 47l60 61l61 -61l-48 -47l48 -47l-48 -47l48 -47l-61 -60z" />
<glyph unicode="p" d="M-18 49l46 47l-46 47l46 47l-46 47l46 47l-46 47l46 47l-46 47l60 61l47 -48l47 48l47 -48l47 48l47 -48l47 48l61 -61l-61 -60l-47 46l-47 -46l-47 46l-47 -46l-47 46l-34 -33l48 -47l-48 -47l34 -34l47 48l47 -48l47 48l47 -48l47 48l61 -61l-61 -60l-47 46l-47 -46 l-47 46l-47 -46l-47 46l-34 -33l48 -47l-48 -47l48 -47l-61 -60zM358 331l60 61l61 -61l-61 -60z" />
<glyph unicode="q" d="M-18 143l46 47l-46 47l46 47l-46 47l60 61l61 -61l-48 -47l48 -47l-48 -47l48 -47l-61 -60zM76 49l60 61l47 -48l33 34l-46 47l60 61l61 -61l-48 -47l34 -34l47 48l61 -61l-61 -60l-47 46l-34 -33l48 -47l-61 -60l-60 60l46 47l-33 33l-47 -46zM76 425l60 61l47 -48 l47 48l47 -48l47 48l61 -61l-61 -60l-47 46l-47 -46l-47 46l-47 -46zM264 -139l60 61l61 -61l-61 -60zM358 143l46 47l-46 47l46 47l-46 47l60 61l61 -61l-48 -47l48 -47l-48 -47l48 -47l-61 -60z" />
<glyph unicode="r" d="M-18 49l60 61l47 -48l33 34l-46 47l46 47l-46 47l46 47l-46 47l46 47l-33 33l-47 -46l-60 60l60 61l47 -48l47 48l61 -61l-48 -47l34 -34l47 48l61 -61l-61 -60l-47 46l-34 -33l48 -47l-48 -47l48 -47l-48 -47l34 -34l47 48l47 -48l47 48l61 -61l-61 -60l-47 46l-47 -46 l-47 46l-47 -46l-47 46l-47 -46zM264 425l60 61l47 -48l47 48l61 -61l-61 -60l-47 46l-47 -46z" />
<glyph unicode="s" d="M-18 49l60 61l47 -48l47 48l47 -48l47 48l47 -48l47 48l61 -61l-61 -60l-47 46l-47 -46l-47 46l-47 -46l-47 46l-47 -46zM-18 331l60 61l61 -61l-61 -60zM76 237l60 61l47 -48l47 48l47 -48l47 48l61 -61l-61 -60l-47 46l-47 -46l-47 46l-47 -46zM76 425l60 61l47 -48 l47 48l47 -48l47 48l47 -48l47 48l61 -61l-61 -60l-47 46l-47 -46l-47 46l-47 -46l-47 46l-47 -46zM358 143l60 61l61 -61l-61 -60z" />
<glyph unicode="t" d="M-18 425l60 61l47 -48l47 48l47 -48l47 48l47 -48l47 48l47 -48l47 48l61 -61l-61 -60l-47 46l-47 -46l-47 46l-34 -33l48 -47l-48 -47l48 -47l-48 -47l48 -47l-48 -47l48 -47l-61 -60l-60 60l46 47l-46 47l46 47l-46 47l46 47l-46 47l46 47l-33 33l-47 -46l-47 46 l-47 -46z" />
<glyph unicode="u" d="M-18 143l46 47l-46 47l46 47l-46 47l46 47l-46 47l60 61l61 -61l-48 -47l48 -47l-48 -47l48 -47l-48 -47l48 -47l-61 -60zM76 49l60 61l47 -48l47 48l61 -61l-61 -60l-47 46l-47 -46zM264 143l60 61l47 -48l33 34l-46 47l46 47l-46 47l46 47l-46 47l60 61l61 -61l-48 -47 l48 -47l-48 -47l48 -47l-48 -47l48 -47l-48 -47l48 -47l-61 -60l-60 60l46 47l-33 33l-47 -46z" />
<glyph unicode="v" d="M-18 331l46 47l-46 47l60 61l61 -61l-48 -47l48 -47l-61 -60zM76 143l46 47l-46 47l60 61l61 -61l-48 -47l48 -47l-61 -60zM170 49l60 61l61 -61l-61 -60zM264 143l46 47l-46 47l60 61l61 -61l-48 -47l48 -47l-61 -60zM358 331l46 47l-46 47l60 61l61 -61l-48 -47l48 -47 l-61 -60z" />
<glyph unicode="w" d="M-18 237l46 47l-46 47l46 47l-46 47l60 61l61 -61l-48 -47l48 -47l-48 -47l48 -47l-61 -60zM76 49l46 47l-46 47l60 61l61 -61l-48 -47l48 -47l-61 -60zM170 237l46 47l-46 47l60 61l61 -61l-48 -47l48 -47l-61 -60zM264 49l46 47l-46 47l60 61l61 -61l-48 -47l48 -47 l-61 -60zM358 237l46 47l-46 47l46 47l-46 47l60 61l61 -61l-48 -47l48 -47l-48 -47l48 -47l-61 -60z" />
<glyph unicode="x" d="M-18 49l46 47l-46 47l60 61l61 -61l-48 -47l48 -47l-61 -60zM-18 331l46 47l-46 47l60 61l61 -61l-48 -47l48 -47l-61 -60zM76 237l60 61l47 -48l47 48l47 -48l47 48l61 -61l-61 -60l-47 46l-47 -46l-47 46l-47 -46zM358 49l46 47l-46 47l60 61l61 -61l-48 -47l48 -47 l-61 -60zM358 331l46 47l-46 47l60 61l61 -61l-48 -47l48 -47l-61 -60z" />
<glyph unicode="y" d="M-18 331l46 47l-46 47l60 61l61 -61l-48 -47l48 -47l-61 -60zM76 237l60 61l61 -61l-61 -60zM170 49l46 47l-46 47l60 61l61 -61l-48 -47l48 -47l-61 -60zM264 237l60 61l61 -61l-61 -60zM358 331l46 47l-46 47l60 61l61 -61l-48 -47l48 -47l-61 -60z" />
<glyph unicode="z" d="M-18 49l60 61l47 -48l33 34l-46 47l60 61l61 -61l-48 -47l34 -34l47 48l47 -48l47 48l47 -48l47 48l61 -61l-61 -60l-47 46l-47 -46l-47 46l-47 -46l-47 46l-47 -46l-47 46l-47 -46zM-18 425l60 61l47 -48l47 48l47 -48l47 48l47 -48l47 48l47 -48l47 48l61 -61l-61 -60 l-47 46l-34 -33l48 -47l-61 -60l-60 60l46 47l-33 33l-47 -46l-47 46l-47 -46l-47 46l-47 -46zM170 237l60 61l61 -61l-61 -60z" />
<glyph unicode="{" d="M76 237l60 61l61 -61l-61 -60zM170 49l46 47l-46 47l60 61l61 -61l-48 -47l48 -47l-61 -60zM170 331l46 47l-46 47l60 61l61 -61l-48 -47l48 -47l-61 -60zM264 -45l60 61l61 -61l-61 -60zM264 519l60 61l61 -61l-61 -60z" />
<glyph unicode="|" d="M170 -45l46 47l-46 47l46 47l-46 47l46 47l-46 47l46 47l-46 47l46 47l-46 47l46 47l-46 47l60 61l61 -61l-48 -47l48 -47l-48 -47l48 -47l-48 -47l48 -47l-48 -47l48 -47l-48 -47l48 -47l-48 -47l48 -47l-61 -60z" />
<glyph unicode="}" d="M76 -45l60 61l61 -61l-61 -60zM76 519l60 61l61 -61l-61 -60zM170 49l46 47l-46 47l60 61l61 -61l-48 -47l48 -47l-61 -60zM170 331l46 47l-46 47l60 61l61 -61l-48 -47l48 -47l-61 -60zM264 237l60 61l61 -61l-61 -60z" />
<glyph unicode="~" d="M-18 331l60 61l61 -61l-61 -60zM76 425l60 61l61 -61l-61 -60zM170 331l60 61l61 -61l-61 -60zM264 237l60 61l61 -61l-61 -60zM358 331l60 61l61 -61l-61 -60z" />
<glyph unicode="&#xa0;" />
<glyph unicode="&#xa1;" d="M207 45l46 47l-46 47l46 47l-46 47l60 60l61 -60l-48 -47l48 -47l-48 -47l48 -47l-61 -61zM207 421l60 60l61 -60l-61 -61z" />
<glyph unicode="&#xa2;" d="M-18 143l46 47l-46 47l46 47l-46 47l60 61l61 -61l-48 -47l48 -47l-48 -47l48 -47l-61 -60zM76 49l60 61l47 -48l33 34l-46 47l46 47l-46 47l46 47l-46 47l46 47l-33 33l-47 -46l-60 60l60 61l47 -48l33 34l-46 47l60 61l61 -61l-48 -47l34 -34l47 48l61 -61l-61 -60 l-47 46l-34 -33l48 -47l-48 -47l48 -47l-48 -47l48 -47l-48 -47l34 -34l47 48l61 -61l-61 -60l-47 46l-34 -33l48 -47l-61 -60l-60 60l46 47l-33 33l-47 -46zM358 143l60 61l61 -61l-61 -60zM358 331l60 61l61 -61l-61 -60z" />
<glyph unicode="&#xa3;" d="M-18 49l60 61l47 -48l33 34l-46 47l46 47l-33 33l-47 -46l-60 60l60 61l47 -48l33 34l-46 47l60 61l61 -61l-48 -47l34 -34l47 48l47 -48l47 48l61 -61l-61 -60l-47 46l-47 -46l-47 46l-34 -33l48 -47l-48 -47l34 -34l47 48l47 -48l47 48l47 -48l47 48l61 -61l-61 -60 l-47 46l-47 -46l-47 46l-47 -46l-47 46l-47 -46l-47 46l-47 -46zM170 425l60 61l47 -48l47 48l61 -61l-61 -60l-47 46l-47 -46z" />
<glyph unicode="&#xa4;" d="M-18 49l60 61l61 -61l-61 -60zM-18 425l60 61l61 -61l-61 -60zM76 143l46 47l-46 47l46 47l-46 47l60 61l47 -48l47 48l47 -48l47 48l61 -61l-48 -47l48 -47l-48 -47l48 -47l-61 -60l-47 46l-47 -46l-47 46l-47 -46zM149 190l34 -34l47 48l47 -48l33 34l-46 47l46 47 l-33 33l-47 -46l-47 46l-34 -33l48 -47zM358 49l60 61l61 -61l-61 -60zM358 425l60 61l61 -61l-61 -60z" />
<glyph unicode="&#xa5;" d="M-18 143l60 61l47 -48l47 48l47 -48l33 34l-46 47l60 61l61 -61l-48 -47l34 -34l47 48l47 -48l47 48l61 -61l-61 -60l-47 46l-47 -46l-47 46l-34 -33l48 -47l-61 -60l-60 60l46 47l-33 33l-47 -46l-47 46l-47 -46zM-18 425l60 61l61 -61l-61 -60zM76 331l60 61l61 -61 l-61 -60zM264 331l60 61l61 -61l-61 -60zM358 425l60 61l61 -61l-61 -60z" />
<glyph unicode="&#xa6;" d="M170 49l46 47l-46 47l60 61l61 -61l-48 -47l48 -47l-61 -60zM170 331l46 47l-46 47l60 61l61 -61l-48 -47l48 -47l-61 -60z" />
<glyph unicode="&#xa7;" d="M77 49l60 61l48 -47l46 47l48 -47l47 47l61 -61l-61 -60l-47 46l-48 -46l-46 46l-48 -46zM77 331l60 61l62 -61l-62 -60zM77 519l60 61l62 -61l-62 -60zM171 237l60 61l48 -47l47 47l61 -61l-61 -60l-47 46l-48 -46zM171 425l60 61l48 -47l47 47l61 -61l-61 -60l-47 46 l-48 -46zM171 613l60 61l48 -47l47 47l47 -47l47 47l61 -61l-61 -60l-47 46l-47 -46l-47 46l-48 -46zM359 143l61 61l61 -61l-61 -60zM359 331l61 61l61 -61l-61 -60z" />
<glyph unicode="&#xa8;" d="M-18 613l46 47l-46 47l60 61l61 -61l-48 -47l48 -47l-61 -60zM358 613l46 47l-46 47l60 61l61 -61l-48 -47l48 -47l-61 -60z" />
<glyph unicode="&#xa9;" d="M-18 143l46 47l-46 47l46 47l-46 47l60 61l61 -61l-48 -47l34 -34l47 48l61 -61l-61 -60l-47 46l-34 -33l48 -47l-61 -60zM76 49l60 61l47 -48l33 34l-46 47l60 61l61 -61l-48 -47l34 -34l47 48l61 -61l-61 -60l-47 46l-47 -46l-47 46l-47 -46zM76 425l60 61l47 -48 l47 48l47 -48l47 48l61 -61l-61 -60l-47 46l-34 -33l48 -47l-61 -60l-60 60l46 47l-33 33l-47 -46zM358 143l46 47l-46 47l46 47l-46 47l60 61l61 -61l-48 -47l48 -47l-48 -47l48 -47l-61 -60z" />
<glyph unicode="&#xaa;" d="M-21 331l60 61l47 -48l47 48l47 -48l33 34l-46 47l60 61l61 -61l-48 -47l48 -47l-48 -47l48 -47l-61 -60l-47 46l-47 -46l-60 60l46 47l-33 33l-47 -46zM73 519l60 61l61 -61l-61 -60zM146 284l34 -34l33 34l-33 33z" />
<glyph unicode="&#xab;" d="M-18 237l60 61l61 -61l-61 -60zM76 143l60 61l61 -61l-61 -60zM76 331l60 61l61 -61l-61 -60zM170 49l60 61l61 -61l-61 -60zM170 237l60 61l61 -61l-61 -60zM170 425l60 61l61 -61l-61 -60zM264 143l60 61l61 -61l-61 -60zM264 331l60 61l61 -61l-61 -60zM358 49l60 61 l61 -61l-61 -60zM358 425l60 61l61 -61l-61 -60z" />
<glyph unicode="&#xac;" d="M-18 237l60 61l47 -48l47 48l47 -48l47 48l47 -48l47 48l47 -48l47 48l61 -61l-48 -47l48 -47l-48 -47l48 -47l-61 -60l-60 60l46 47l-46 47l46 47l-33 33l-47 -46l-47 46l-47 -46l-47 46l-47 -46l-47 46l-47 -46z" />
<glyph unicode="&#xad;" d="M76 237l60 61l47 -48l47 48l47 -48l47 48l61 -61l-61 -60l-47 46l-47 -46l-47 46l-47 -46z" />
<glyph unicode="&#xae;" d="M-18 237l46 47l-46 47l46 47l-46 47l60 61l61 -61l-48 -47l48 -47l-48 -47l48 -47l-61 -60zM76 143l60 61l47 -48l47 48l47 -48l33 34l-46 47l60 61l47 -48l33 34l-46 47l46 47l-33 33l-47 -46l-47 46l-34 -33l48 -47l-61 -60l-60 60l46 47l-46 47l46 47l-33 33l-47 -46 l-60 60l60 61l47 -48l47 48l47 -48l47 48l61 -61l-48 -47l34 -34l47 48l61 -61l-48 -47l48 -47l-48 -47l48 -47l-61 -60l-47 46l-34 -33l48 -47l-61 -60l-47 46l-47 -46l-47 46l-47 -46zM243 472l34 -34l33 34l-33 33z" />
<glyph unicode="&#xaf;" d="M76 613l60 61l47 -48l47 48l47 -48l47 48l61 -61l-61 -60l-47 46l-47 -46l-47 46l-47 -46z" />
<glyph unicode="&#xb0;" d="M-21 425l60 61l61 -61l-61 -60zM73 331l60 61l61 -61l-61 -60zM73 519l60 61l61 -61l-61 -60zM167 425l60 61l61 -61l-61 -60z" />
<glyph unicode="&#xb1;" d="M-18 49l60 61l47 -48l47 48l47 -48l47 48l47 -48l47 48l47 -48l47 48l61 -61l-61 -60l-47 46l-47 -46l-47 46l-47 -46l-47 46l-47 -46l-47 46l-47 -46zM-18 331l60 61l47 -48l47 48l47 -48l33 34l-46 47l60 61l61 -61l-48 -47l34 -34l47 48l47 -48l47 48l61 -61l-61 -60 l-47 46l-47 -46l-47 46l-34 -33l48 -47l-61 -60l-60 60l46 47l-33 33l-47 -46l-47 46l-47 -46z" />
<glyph unicode="&#xb2;" d="M-23 237l46 47l-46 47l60 61l62 -61l-48 -47l34 -33l46 47l62 -61l-62 -60l-46 46l-48 -46zM-23 519l60 61l62 -61l-62 -60zM71 425l60 61l62 -61l-62 -60z" />
<glyph unicode="&#xb3;" d="M-23 237l60 61l48 -47l32 33l-46 47l46 47l-46 47l60 61l62 -61l-48 -47l48 -47l-48 -47l48 -47l-62 -60l-46 46l-48 -46zM-23 519l60 61l62 -61l-62 -60z" />
<glyph unicode="&#xb4;" d="M76 613l60 61l47 -48l47 48l61 -61l-61 -60l-47 46l-47 -46zM264 707l60 61l61 -61l-61 -60z" />
<glyph unicode="&#xb5;" d="M-18 49l46 47l-46 47l46 47l-46 47l46 47l-46 47l46 47l-46 47l60 61l61 -61l-48 -47l34 -34l47 48l61 -61l-61 -60l-47 46l-34 -33l48 -47l-48 -47l48 -47l-48 -47l48 -47l-61 -60zM170 143l46 47l-46 47l60 61l61 -61l-48 -47l48 -47l-61 -60zM264 331l60 61l47 -48 l33 34l-46 47l60 61l61 -61l-48 -47l48 -47l-48 -47l48 -47l-48 -47l48 -47l-48 -47l48 -47l-61 -60l-60 60l46 47l-46 47l46 47l-46 47l46 47l-33 33l-47 -46z" />
<glyph unicode="&#xb6;" d="M-18 331l60 61l47 -48l33 34l-46 47l60 61l47 -48l47 48l61 -61l-48 -47l48 -47l-48 -47l48 -47l-48 -47l48 -47l-48 -47l48 -47l-61 -60l-60 60l46 47l-46 47l46 47l-33 33l-47 -46l-60 60l46 47l-33 33l-47 -46zM149 284l34 -34l33 34l-33 33zM149 378l34 -34l33 34 l-33 33zM358 49l46 47l-46 47l46 47l-46 47l46 47l-46 47l46 47l-46 47l60 61l61 -61l-48 -47l48 -47l-48 -47l48 -47l-48 -47l48 -47l-48 -47l48 -47l-61 -60z" />
<glyph unicode="&#xb7;" d="M73 237l46 47l-46 47l60 61l61 -61l-48 -47l48 -47l-61 -60z" />
<glyph unicode="&#xb8;" d="M74 -139l60 61l62 -61l-62 -60zM168 -45l60 61l62 -61l-62 -60z" />
<glyph unicode="&#xb9;" d="M-21 237l60 61l47 -48l33 34l-46 47l46 47l-46 47l46 47l-33 33l-47 -46l-60 60l60 61l47 -48l47 48l61 -61l-48 -47l48 -47l-48 -47l48 -47l-48 -47l34 -34l47 48l61 -61l-61 -60l-47 46l-47 -46l-47 46l-47 -46z" />
<glyph unicode="&#xba;" d="M-21 425l60 61l61 -61l-61 -60zM73 331l60 61l61 -61l-61 -60zM73 519l60 61l61 -61l-61 -60zM167 425l60 61l61 -61l-61 -60z" />
<glyph unicode="&#xbb;" d="M-18 49l60 61l61 -61l-61 -60zM-18 425l60 61l61 -61l-61 -60zM76 143l60 61l61 -61l-61 -60zM76 331l60 61l61 -61l-61 -60zM170 49l60 61l61 -61l-61 -60zM170 237l60 61l61 -61l-61 -60zM170 425l60 61l61 -61l-61 -60zM264 143l60 61l61 -61l-61 -60zM264 331l60 61 l61 -61l-61 -60zM358 237l60 61l61 -61l-61 -60z" />
<glyph unicode="&#xbc;" d="M-17 425l60 61l47 -48l47 48l62 -61l-48 -47l48 -47l-48 -47l34 -33l46 47l62 -61l-48 -47l48 -47l-62 -60l-60 60l46 47l-32 33l-48 -46l-60 60l46 47l-46 47l46 47l-33 33l-47 -46zM77 49l60 61l62 -61l-62 -60zM265 331l47 47l-47 47l61 61l61 -61l-48 -47l48 -47 l-61 -60zM359 237l61 61l47 -47l33 33l-47 47l61 61l61 -61l-48 -47l48 -47l-48 -47l48 -47l-48 -47l48 -47l-61 -60l-61 60l47 47l-47 47l47 47l-33 33l-47 -46z" />
<glyph unicode="&#xbd;" d="M-17 425l60 61l47 -48l47 48l62 -61l-48 -47l48 -47l-48 -47l34 -33l46 47l62 -61l-48 -47l48 -47l-62 -60l-60 60l46 47l-32 33l-48 -46l-60 60l46 47l-46 47l46 47l-33 33l-47 -46zM77 49l60 61l62 -61l-62 -60zM265 331l47 47l-47 47l61 61l61 -61l-48 -47l34 -33 l47 47l61 -61l-61 -60l-47 46l-47 -46zM359 49l47 47l-47 47l61 61l61 -61l-48 -47l34 -33l47 47l61 -61l-61 -60l-47 46l-47 -46zM453 237l61 61l61 -61l-61 -60z" />
<glyph unicode="&#xbe;" d="M-17 143l60 61l61 -61l-61 -60zM-17 425l60 61l61 -61l-61 -60zM77 49l60 61l62 -61l-62 -60zM77 237l46 47l-46 47l60 61l62 -61l-48 -47l34 -33l46 47l62 -61l-48 -47l48 -47l-62 -60l-60 60l46 47l-32 33l-48 -46zM265 331l47 47l-47 47l61 61l61 -61l-48 -47l48 -47 l-61 -60zM359 237l61 61l47 -47l33 33l-47 47l61 61l61 -61l-48 -47l48 -47l-48 -47l48 -47l-48 -47l48 -47l-61 -60l-61 60l47 47l-47 47l47 47l-33 33l-47 -46z" />
<glyph unicode="&#xbf;" d="M33 139l61 60l60 -60l-60 -61zM127 45l61 60l47 -46l47 46l47 -46l47 46l60 -60l-60 -61l-47 48l-47 -48l-47 48l-47 -48zM127 233l61 60l47 -46l47 46l60 -60l-60 -61l-47 48l-47 -48zM221 421l61 60l60 -60l-60 -61zM409 139l61 60l60 -60l-60 -61z" />
<glyph unicode="&#xc0;" d="M16 45l47 48l-47 48l47 48l-47 48l47 48l-47 48l61 62l63 -62l-49 -48l34 -34l48 48l49 -48l47 48l48 -49l48 49l48 -49l34 35l-47 48l61 62l62 -62l-48 -48l48 -48l-48 -48l48 -48l-48 -48l48 -48l-62 -62l-61 62l47 48l-47 48l47 48l-34 34l-48 -48l-48 48l-48 -48 l-47 48l-49 -48l-48 48l-34 -34l49 -48l-49 -48l49 -48l-63 -62zM112 428l61 63l49 -49l47 49l48 -49l48 49l62 -63l-62 -61l-48 47l-48 -47l-47 47l-49 -47zM116 702l60 61l61 -61l-61 -60zM210 608l60 61l47 -48l47 48l61 -61l-61 -60l-47 46l-47 -46z" />
<glyph unicode="&#xc1;" d="M16 45l47 48l-47 48l47 48l-47 48l47 48l-47 48l61 62l63 -62l-49 -48l34 -34l48 48l49 -48l47 48l48 -49l48 49l48 -49l34 35l-47 48l61 62l62 -62l-48 -48l48 -48l-48 -48l48 -48l-48 -48l48 -48l-62 -62l-61 62l47 48l-47 48l47 48l-34 34l-48 -48l-48 48l-48 -48 l-47 48l-49 -48l-48 48l-34 -34l49 -48l-49 -48l49 -48l-63 -62zM112 428l61 63l49 -49l47 49l48 -49l48 49l62 -63l-62 -61l-48 47l-48 -47l-47 47l-49 -47zM113 608l60 61l47 -48l47 48l61 -61l-61 -60l-47 46l-47 -46zM301 702l60 61l61 -61l-61 -60z" />
<glyph unicode="&#xc2;" d="M16 45l47 48l-47 48l47 48l-47 48l47 48l-47 48l61 62l63 -62l-49 -48l34 -34l48 48l49 -48l47 48l48 -49l48 49l48 -49l34 35l-47 48l61 62l62 -62l-48 -48l48 -48l-48 -48l48 -48l-48 -48l48 -48l-62 -62l-61 62l47 48l-47 48l47 48l-34 34l-48 -48l-48 48l-48 -48 l-47 48l-49 -48l-48 48l-34 -34l49 -48l-49 -48l49 -48l-63 -62zM112 428l61 63l49 -49l47 49l48 -49l48 49l62 -63l-62 -61l-48 47l-48 -47l-47 47l-49 -47zM113 608l60 61l61 -61l-61 -60zM207 702l60 61l61 -61l-61 -60zM301 608l60 61l61 -61l-61 -60z" />
<glyph unicode="&#xc3;" d="M16 45l47 48l-47 48l47 48l-47 48l47 48l-47 48l61 62l63 -62l-49 -48l34 -34l48 48l49 -48l47 48l48 -49l48 49l48 -49l34 35l-47 48l61 62l62 -62l-48 -48l48 -48l-48 -48l48 -48l-48 -48l48 -48l-62 -62l-61 62l47 48l-47 48l47 48l-34 34l-48 -48l-48 48l-48 -48 l-47 48l-49 -48l-48 48l-34 -34l49 -48l-49 -48l49 -48l-63 -62zM19 608l60 61l61 -61l-61 -60zM112 428l61 63l49 -49l47 49l48 -49l48 49l62 -63l-62 -61l-48 47l-48 -47l-47 47l-49 -47zM113 702l60 61l61 -61l-61 -60zM207 608l60 61l47 -48l47 48l61 -61l-61 -60 l-47 46l-47 -46zM395 702l60 61l61 -61l-61 -60z" />
<glyph unicode="&#xc4;" d="M16 45l47 48l-47 48l47 48l-47 48l47 48l-47 48l61 62l63 -62l-49 -48l34 -34l48 48l49 -48l47 48l48 -49l48 49l48 -49l34 35l-47 48l61 62l62 -62l-48 -48l48 -48l-48 -48l48 -48l-48 -48l48 -48l-62 -62l-61 62l47 48l-47 48l47 48l-34 34l-48 -48l-48 48l-48 -48 l-47 48l-49 -48l-48 48l-34 -34l49 -48l-49 -48l49 -48l-63 -62zM19 608l46 47l-46 47l60 61l61 -61l-48 -47l48 -47l-61 -60zM112 428l61 63l49 -49l47 49l48 -49l48 49l62 -63l-62 -61l-48 47l-48 -47l-47 47l-49 -47zM395 608l46 47l-46 47l60 61l61 -61l-48 -47l48 -47 l-61 -60z" />
<glyph unicode="&#xc5;" d="M16 45l47 48l-47 48l47 48l-47 48l47 48l-47 48l61 62l63 -62l-49 -48l34 -34l48 48l49 -48l47 48l48 -49l48 49l48 -49l34 35l-47 48l61 62l62 -62l-48 -48l48 -48l-48 -48l48 -48l-48 -48l48 -48l-62 -62l-61 62l47 48l-47 48l47 48l-34 34l-48 -48l-48 48l-48 -48 l-47 48l-49 -48l-48 48l-34 -34l49 -48l-49 -48l49 -48l-63 -62zM112 428l61 63l49 -49l47 49l48 -49l48 49l62 -63l-62 -61l-48 47l-48 -47l-47 47l-49 -47zM113 702l60 61l61 -61l-61 -60zM207 608l60 61l61 -61l-61 -60zM207 796l60 62l61 -62l-61 -60zM301 702l60 61 l61 -61l-61 -60z" />
<glyph unicode="&#xc6;" d="M-21 50l47 48l-47 48l47 48l-47 48l47 48l-47 48l61 62l63 -62l-49 -48l49 -48l-49 -48l34 -34l48 48l49 -48l33 34l-47 48l47 48l-47 48l47 48l-33 33l-49 -47l-61 61l61 63l49 -49l47 49l48 -49l48 49l48 -49l48 49l62 -63l-62 -61l-48 47l-48 -47l-48 47l-34 -33 l48 -48l-48 -48l34 -35l48 49l62 -62l-62 -62l-48 48l-34 -34l48 -48l-48 -48l34 -35l48 49l48 -49l48 49l62 -62l-62 -62l-48 48l-48 -48l-48 48l-48 -48l-61 62l47 48l-33 34l-49 -48l-48 48l-34 -34l49 -48l-63 -62z" />
<glyph unicode="&#xc7;" d="M16 141l47 48l-47 48l47 48l-47 48l61 62l63 -62l-49 -48l49 -48l-49 -48l49 -48l-63 -62zM111 -144l60 61l62 -61l-62 -60zM112 45l61 62l49 -48l47 48l48 -49l48 49l48 -49l48 49l62 -62l-62 -62l-48 48l-48 -48l-48 48l-36 -36l46 -45l-62 -60l-60 60l48 49l-31 32 l-49 -48zM112 428l61 63l49 -49l47 49l48 -49l48 49l48 -49l48 49l62 -63l-62 -61l-48 47l-48 -47l-48 47l-48 -47l-47 47l-49 -47z" />
<glyph unicode="&#xc8;" d="M16 45l47 48l-47 48l47 48l-47 48l47 48l-47 48l47 48l-47 47l61 63l49 -49l47 49l49 -49l47 49l48 -49l48 49l48 -49l48 49l62 -63l-62 -61l-48 47l-48 -47l-48 47l-48 -47l-47 47l-49 -47l-47 47l-35 -33l49 -48l-49 -48l34 -34l48 48l49 -48l47 48l48 -49l48 49 l62 -62l-62 -62l-48 48l-48 -48l-47 48l-49 -48l-48 48l-34 -34l49 -48l-49 -48l34 -34l48 48l49 -48l47 48l48 -49l48 49l48 -49l48 49l62 -62l-62 -62l-48 48l-48 -48l-48 48l-48 -48l-47 48l-49 -48l-47 48l-49 -48zM116 702l60 61l61 -61l-61 -60zM210 608l60 61l47 -48 l47 48l61 -61l-61 -60l-47 46l-47 -46z" />
<glyph unicode="&#xc9;" d="M16 45l47 48l-47 48l47 48l-47 48l47 48l-47 48l47 48l-47 47l61 63l49 -49l47 49l49 -49l47 49l48 -49l48 49l48 -49l48 49l62 -63l-62 -61l-48 47l-48 -47l-48 47l-48 -47l-47 47l-49 -47l-47 47l-35 -33l49 -48l-49 -48l34 -34l48 48l49 -48l47 48l48 -49l48 49 l62 -62l-62 -62l-48 48l-48 -48l-47 48l-49 -48l-48 48l-34 -34l49 -48l-49 -48l34 -34l48 48l49 -48l47 48l48 -49l48 49l48 -49l48 49l62 -62l-62 -62l-48 48l-48 -48l-48 48l-48 -48l-47 48l-49 -48l-47 48l-49 -48zM113 608l60 61l47 -48l47 48l61 -61l-61 -60l-47 46 l-47 -46zM301 702l60 61l61 -61l-61 -60z" />
<glyph unicode="&#xca;" d="M16 45l47 48l-47 48l47 48l-47 48l47 48l-47 48l47 48l-47 47l61 63l49 -49l47 49l49 -49l47 49l48 -49l48 49l48 -49l48 49l62 -63l-62 -61l-48 47l-48 -47l-48 47l-48 -47l-47 47l-49 -47l-47 47l-35 -33l49 -48l-49 -48l34 -34l48 48l49 -48l47 48l48 -49l48 49 l62 -62l-62 -62l-48 48l-48 -48l-47 48l-49 -48l-48 48l-34 -34l49 -48l-49 -48l34 -34l48 48l49 -48l47 48l48 -49l48 49l48 -49l48 49l62 -62l-62 -62l-48 48l-48 -48l-48 48l-48 -48l-47 48l-49 -48l-47 48l-49 -48zM113 608l60 61l61 -61l-61 -60zM207 702l60 61l61 -61 l-61 -60zM301 608l60 61l61 -61l-61 -60z" />
<glyph unicode="&#xcb;" d="M16 45l47 48l-47 48l47 48l-47 48l47 48l-47 48l47 48l-47 47l61 63l49 -49l47 49l49 -49l47 49l48 -49l48 49l48 -49l48 49l62 -63l-62 -61l-48 47l-48 -47l-48 47l-48 -47l-47 47l-49 -47l-47 47l-35 -33l49 -48l-49 -48l34 -34l48 48l49 -48l47 48l48 -49l48 49 l62 -62l-62 -62l-48 48l-48 -48l-47 48l-49 -48l-48 48l-34 -34l49 -48l-49 -48l34 -34l48 48l49 -48l47 48l48 -49l48 49l48 -49l48 49l62 -62l-62 -62l-48 48l-48 -48l-48 48l-48 -48l-47 48l-49 -48l-47 48l-49 -48zM19 608l46 47l-46 47l60 61l61 -61l-48 -47l48 -47 l-61 -60zM395 608l46 47l-46 47l60 61l61 -61l-48 -47l48 -47l-61 -60z" />
<glyph unicode="&#xcc;" d="M16 45l61 62l49 -48l47 48l49 -48l33 34l-47 48l47 48l-47 48l47 48l-47 48l47 48l-33 33l-49 -47l-47 47l-49 -47l-61 61l61 63l49 -49l47 49l49 -49l47 49l48 -49l48 49l48 -49l48 49l62 -63l-62 -61l-48 47l-48 -47l-48 47l-34 -33l48 -48l-48 -48l48 -48l-48 -48 l48 -48l-48 -48l34 -35l48 49l48 -49l48 49l62 -62l-62 -62l-48 48l-48 -48l-48 48l-48 -48l-47 48l-49 -48l-47 48l-49 -48zM116 702l60 61l61 -61l-61 -60zM210 608l60 61l47 -48l47 48l61 -61l-61 -60l-47 46l-47 -46z" />
<glyph unicode="&#xcd;" d="M16 45l61 62l49 -48l47 48l49 -48l33 34l-47 48l47 48l-47 48l47 48l-47 48l47 48l-33 33l-49 -47l-47 47l-49 -47l-61 61l61 63l49 -49l47 49l49 -49l47 49l48 -49l48 49l48 -49l48 49l62 -63l-62 -61l-48 47l-48 -47l-48 47l-34 -33l48 -48l-48 -48l48 -48l-48 -48 l48 -48l-48 -48l34 -35l48 49l48 -49l48 49l62 -62l-62 -62l-48 48l-48 -48l-48 48l-48 -48l-47 48l-49 -48l-47 48l-49 -48zM113 608l60 61l47 -48l47 48l61 -61l-61 -60l-47 46l-47 -46zM301 702l60 61l61 -61l-61 -60z" />
<glyph unicode="&#xce;" d="M16 45l61 62l49 -48l47 48l49 -48l33 34l-47 48l47 48l-47 48l47 48l-47 48l47 48l-33 33l-49 -47l-47 47l-49 -47l-61 61l61 63l49 -49l47 49l49 -49l47 49l48 -49l48 49l48 -49l48 49l62 -63l-62 -61l-48 47l-48 -47l-48 47l-34 -33l48 -48l-48 -48l48 -48l-48 -48 l48 -48l-48 -48l34 -35l48 49l48 -49l48 49l62 -62l-62 -62l-48 48l-48 -48l-48 48l-48 -48l-47 48l-49 -48l-47 48l-49 -48zM113 608l60 61l61 -61l-61 -60zM207 702l60 61l61 -61l-61 -60zM301 608l60 61l61 -61l-61 -60z" />
<glyph unicode="&#xcf;" d="M16 45l61 62l49 -48l47 48l49 -48l33 34l-47 48l47 48l-47 48l47 48l-47 48l47 48l-33 33l-49 -47l-47 47l-49 -47l-61 61l61 63l49 -49l47 49l49 -49l47 49l48 -49l48 49l48 -49l48 49l62 -63l-62 -61l-48 47l-48 -47l-48 47l-34 -33l48 -48l-48 -48l48 -48l-48 -48 l48 -48l-48 -48l34 -35l48 49l48 -49l48 49l62 -62l-62 -62l-48 48l-48 -48l-48 48l-48 -48l-47 48l-49 -48l-47 48l-49 -48zM19 608l46 47l-46 47l60 61l61 -61l-48 -47l48 -47l-61 -60zM395 608l46 47l-46 47l60 61l61 -61l-48 -47l48 -47l-61 -60z" />
<glyph unicode="&#xd0;" d="M-21 242l61 62l49 -48l33 34l-47 48l47 48l-47 47l61 63l49 -49l47 49l48 -49l48 49l62 -63l-62 -61l-48 47l-48 -47l-47 47l-35 -33l49 -48l-49 -48l34 -34l48 48l62 -62l-62 -62l-48 48l-34 -34l49 -48l-49 -48l34 -34l48 48l48 -49l48 49l62 -62l-62 -62l-48 48 l-48 -48l-47 48l-49 -48l-61 62l47 48l-47 48l47 48l-33 34l-49 -48zM363 146l47 48l-47 48l47 48l-47 48l61 62l62 -62l-48 -48l48 -48l-48 -48l48 -48l-62 -62z" />
<glyph unicode="&#xd1;" d="M16 45l47 48l-47 48l47 48l-47 48l47 48l-47 48l47 48l-47 47l61 63l63 -63l-49 -47l35 -34l47 48l63 -62l-63 -62l-48 48l-34 -34l49 -48l-49 -48l49 -48l-49 -48l49 -48l-63 -62zM19 608l60 61l61 -61l-61 -60zM113 702l60 61l61 -61l-61 -60zM207 608l60 61l47 -48 l47 48l61 -61l-61 -60l-47 46l-47 -46zM208 237l61 62l62 -62l-62 -62zM304 141l61 62l48 -49l34 35l-47 48l47 48l-47 48l47 48l-47 47l61 63l62 -63l-48 -47l48 -48l-48 -48l48 -48l-48 -48l48 -48l-48 -48l48 -48l-62 -62l-61 62l47 48l-34 34l-48 -48zM395 702l60 61 l61 -61l-61 -60z" />
<glyph unicode="&#xd2;" d="M16 141l47 48l-47 48l47 48l-47 48l61 62l63 -62l-49 -48l49 -48l-49 -48l49 -48l-63 -62zM112 45l61 62l49 -48l47 48l48 -49l48 49l62 -62l-62 -62l-48 48l-48 -48l-47 48l-49 -48zM112 428l61 63l49 -49l47 49l48 -49l48 49l62 -63l-62 -61l-48 47l-48 -47l-47 47 l-49 -47zM116 702l60 61l61 -61l-61 -60zM210 608l60 61l47 -48l47 48l61 -61l-61 -60l-47 46l-47 -46zM400 141l47 48l-47 48l47 48l-47 48l61 62l62 -62l-48 -48l48 -48l-48 -48l48 -48l-62 -62z" />
<glyph unicode="&#xd3;" d="M16 141l47 48l-47 48l47 48l-47 48l61 62l63 -62l-49 -48l49 -48l-49 -48l49 -48l-63 -62zM112 45l61 62l49 -48l47 48l48 -49l48 49l62 -62l-62 -62l-48 48l-48 -48l-47 48l-49 -48zM112 428l61 63l49 -49l47 49l48 -49l48 49l62 -63l-62 -61l-48 47l-48 -47l-47 47 l-49 -47zM113 608l60 61l47 -48l47 48l61 -61l-61 -60l-47 46l-47 -46zM301 702l60 61l61 -61l-61 -60zM400 141l47 48l-47 48l47 48l-47 48l61 62l62 -62l-48 -48l48 -48l-48 -48l48 -48l-62 -62z" />
<glyph unicode="&#xd4;" d="M16 141l47 48l-47 48l47 48l-47 48l61 62l63 -62l-49 -48l49 -48l-49 -48l49 -48l-63 -62zM112 45l61 62l49 -48l47 48l48 -49l48 49l62 -62l-62 -62l-48 48l-48 -48l-47 48l-49 -48zM112 428l61 63l49 -49l47 49l48 -49l48 49l62 -63l-62 -61l-48 47l-48 -47l-47 47 l-49 -47zM113 608l60 61l61 -61l-61 -60zM207 702l60 61l61 -61l-61 -60zM301 608l60 61l61 -61l-61 -60zM400 141l47 48l-47 48l47 48l-47 48l61 62l62 -62l-48 -48l48 -48l-48 -48l48 -48l-62 -62z" />
<glyph unicode="&#xd5;" d="M16 141l47 48l-47 48l47 48l-47 48l61 62l63 -62l-49 -48l49 -48l-49 -48l49 -48l-63 -62zM19 608l60 61l61 -61l-61 -60zM112 45l61 62l49 -48l47 48l48 -49l48 49l62 -62l-62 -62l-48 48l-48 -48l-47 48l-49 -48zM112 428l61 63l49 -49l47 49l48 -49l48 49l62 -63 l-62 -61l-48 47l-48 -47l-47 47l-49 -47zM113 702l60 61l61 -61l-61 -60zM207 608l60 61l47 -48l47 48l61 -61l-61 -60l-47 46l-47 -46zM395 702l60 61l61 -61l-61 -60zM400 141l47 48l-47 48l47 48l-47 48l61 62l62 -62l-48 -48l48 -48l-48 -48l48 -48l-62 -62z" />
<glyph unicode="&#xd6;" d="M16 141l47 48l-47 48l47 48l-47 48l61 62l63 -62l-49 -48l49 -48l-49 -48l49 -48l-63 -62zM19 608l46 47l-46 47l60 61l61 -61l-48 -47l48 -47l-61 -60zM112 45l61 62l49 -48l47 48l48 -49l48 49l62 -62l-62 -62l-48 48l-48 -48l-47 48l-49 -48zM112 428l61 63l49 -49 l47 49l48 -49l48 49l62 -63l-62 -61l-48 47l-48 -47l-47 47l-49 -47zM395 608l46 47l-46 47l60 61l61 -61l-48 -47l48 -47l-61 -60zM400 141l47 48l-47 48l47 48l-47 48l61 62l62 -62l-48 -48l48 -48l-48 -48l48 -48l-62 -62z" />
<glyph unicode="&#xd7;" d="M-18 49l60 61l61 -61l-61 -60zM-18 425l60 61l61 -61l-61 -60zM76 143l60 61l61 -61l-61 -60zM76 331l60 61l61 -61l-61 -60zM170 237l60 61l61 -61l-61 -60zM264 143l60 61l61 -61l-61 -60zM264 331l60 61l61 -61l-61 -60zM358 49l60 61l61 -61l-61 -60zM358 425l60 61 l61 -61l-61 -60z" />
<glyph unicode="&#xd8;" d="M-21 146l47 48l-47 48l47 48l-47 48l61 62l63 -62l-49 -48l49 -48l-49 -48l36 -35l48 49l62 -62l-49 -49l33 -33l48 48l48 -49l48 49l62 -62l-62 -62l-48 48l-48 -48l-47 48l-49 -48l-61 62l48 49l-33 34l-50 -49zM75 433l61 63l49 -49l47 49l48 -49l35 36l-46 46l61 63 l62 -63l-49 -48l47 -48l-62 -61l-48 47l-34 -33l48 -48l-47 -47l49 -49l-62 -62l-61 62l46 47l-48 49l47 48l-33 33l-49 -47zM363 146l47 48l-47 48l47 48l-47 48l61 62l62 -62l-48 -48l48 -48l-48 -48l48 -48l-62 -62z" />
<glyph unicode="&#xd9;" d="M16 141l47 48l-47 48l47 48l-47 48l47 48l-47 47l61 63l63 -63l-49 -47l49 -48l-49 -48l49 -48l-49 -48l49 -48l-63 -62zM112 45l61 62l49 -48l47 48l48 -49l48 49l62 -62l-62 -62l-48 48l-48 -48l-47 48l-49 -48zM116 702l60 61l61 -61l-61 -60zM210 608l60 61l47 -48 l47 48l61 -61l-61 -60l-47 46l-47 -46zM400 141l47 48l-47 48l47 48l-47 48l47 48l-47 47l61 63l62 -63l-48 -47l48 -48l-48 -48l48 -48l-48 -48l48 -48l-62 -62z" />
<glyph unicode="&#xda;" d="M16 141l47 48l-47 48l47 48l-47 48l47 48l-47 47l61 63l63 -63l-49 -47l49 -48l-49 -48l49 -48l-49 -48l49 -48l-63 -62zM112 45l61 62l49 -48l47 48l48 -49l48 49l62 -62l-62 -62l-48 48l-48 -48l-47 48l-49 -48zM113 608l60 61l47 -48l47 48l61 -61l-61 -60l-47 46 l-47 -46zM301 702l60 61l61 -61l-61 -60zM400 141l47 48l-47 48l47 48l-47 48l47 48l-47 47l61 63l62 -63l-48 -47l48 -48l-48 -48l48 -48l-48 -48l48 -48l-62 -62z" />
<glyph unicode="&#xdb;" d="M16 141l47 48l-47 48l47 48l-47 48l47 48l-47 47l61 63l63 -63l-49 -47l49 -48l-49 -48l49 -48l-49 -48l49 -48l-63 -62zM112 45l61 62l49 -48l47 48l48 -49l48 49l62 -62l-62 -62l-48 48l-48 -48l-47 48l-49 -48zM113 608l60 61l61 -61l-61 -60zM207 702l60 61l61 -61 l-61 -60zM301 608l60 61l61 -61l-61 -60zM400 141l47 48l-47 48l47 48l-47 48l47 48l-47 47l61 63l62 -63l-48 -47l48 -48l-48 -48l48 -48l-48 -48l48 -48l-62 -62z" />
<glyph unicode="&#xdc;" d="M16 141l47 48l-47 48l47 48l-47 48l47 48l-47 47l61 63l63 -63l-49 -47l49 -48l-49 -48l49 -48l-49 -48l49 -48l-63 -62zM19 608l46 47l-46 47l60 61l61 -61l-48 -47l48 -47l-61 -60zM112 45l61 62l49 -48l47 48l48 -49l48 49l62 -62l-62 -62l-48 48l-48 -48l-47 48 l-49 -48zM395 608l46 47l-46 47l60 61l61 -61l-48 -47l48 -47l-61 -60zM400 141l47 48l-47 48l47 48l-47 48l47 48l-47 47l61 63l62 -63l-48 -47l48 -48l-48 -48l48 -48l-48 -48l48 -48l-62 -62z" />
<glyph unicode="&#xdd;" d="M16 333l47 48l-47 47l61 63l63 -63l-49 -47l49 -48l-63 -62zM112 237l61 62l63 -62l-63 -62zM113 608l60 61l47 -48l47 48l61 -61l-61 -60l-47 46l-47 -46zM208 45l47 48l-47 48l61 62l62 -62l-48 -48l48 -48l-62 -62zM301 702l60 61l61 -61l-61 -60zM304 237l61 62 l62 -62l-62 -62zM400 333l47 48l-47 47l61 63l62 -63l-48 -47l48 -48l-62 -62z" />
<glyph unicode="&#xde;" d="M-21 50l47 48l-47 48l47 48l-47 48l47 48l-47 48l47 48l-47 47l61 63l63 -63l-49 -47l35 -34l47 48l49 -48l47 48l48 -49l48 49l62 -62l-62 -62l-48 48l-48 -48l-47 48l-49 -48l-48 48l-34 -34l49 -48l-49 -48l34 -34l48 48l49 -48l47 48l48 -49l48 49l62 -62l-62 -62 l-48 48l-48 -48l-47 48l-49 -48l-48 48l-34 -34l49 -48l-63 -62zM363 242l61 62l62 -62l-62 -62z" />
<glyph unicode="&#xdf;" d="M-20 49l46 47l-46 47l46 47l-46 47l46 47l-46 47l60 61l61 -61l-48 -47l48 -47l-48 -47l48 -47l-48 -47l48 -47l-61 -60zM74 425l60 61l48 -47l46 47l62 -61l-62 -60l-46 46l-48 -46zM168 49l60 61l62 -61l-62 -60zM168 237l60 61l62 -61l-62 -60zM262 143l61 61l61 -61 l-61 -60zM262 331l61 61l61 -61l-61 -60z" />
<glyph unicode="&#xe0;" d="M19 138l60 61l61 -61l-61 -60zM113 44l60 61l47 -48l47 48l47 -48l47 48l47 -48l33 34l-46 47l46 47l-33 33l-47 -46l-47 46l-47 -46l-47 46l-47 -46l-60 60l60 61l47 -48l47 48l47 -48l47 48l47 -48l33 34l-46 47l60 61l61 -61l-48 -47l48 -47l-48 -47l48 -47l-48 -47 l48 -47l-61 -60l-47 46l-47 -46l-47 46l-47 -46l-47 46l-47 -46zM113 420l60 61l47 -48l47 48l47 -48l47 48l61 -61l-61 -60l-47 46l-47 -46l-47 46l-47 -46zM116 702l60 61l61 -61l-61 -60zM210 608l60 61l47 -48l47 48l61 -61l-61 -60l-47 46l-47 -46z" />
<glyph unicode="&#xe1;" d="M19 138l60 61l61 -61l-61 -60zM113 44l60 61l47 -48l47 48l47 -48l47 48l47 -48l33 34l-46 47l46 47l-33 33l-47 -46l-47 46l-47 -46l-47 46l-47 -46l-60 60l60 61l47 -48l47 48l47 -48l47 48l47 -48l33 34l-46 47l60 61l61 -61l-48 -47l48 -47l-48 -47l48 -47l-48 -47 l48 -47l-61 -60l-47 46l-47 -46l-47 46l-47 -46l-47 46l-47 -46zM113 420l60 61l47 -48l47 48l47 -48l47 48l61 -61l-61 -60l-47 46l-47 -46l-47 46l-47 -46zM113 608l60 61l47 -48l47 48l61 -61l-61 -60l-47 46l-47 -46zM301 702l60 61l61 -61l-61 -60z" />
<glyph unicode="&#xe2;" d="M19 138l60 61l61 -61l-61 -60zM113 44l60 61l47 -48l47 48l47 -48l47 48l47 -48l33 34l-46 47l46 47l-33 33l-47 -46l-47 46l-47 -46l-47 46l-47 -46l-60 60l60 61l47 -48l47 48l47 -48l47 48l47 -48l33 34l-46 47l60 61l61 -61l-48 -47l48 -47l-48 -47l48 -47l-48 -47 l48 -47l-61 -60l-47 46l-47 -46l-47 46l-47 -46l-47 46l-47 -46zM113 420l60 61l47 -48l47 48l47 -48l47 48l61 -61l-61 -60l-47 46l-47 -46l-47 46l-47 -46z" />
<glyph unicode="&#xe3;" d="M19 138l60 61l61 -61l-61 -60zM19 608l60 61l61 -61l-61 -60zM113 44l60 61l47 -48l47 48l47 -48l47 48l47 -48l33 34l-46 47l46 47l-33 33l-47 -46l-47 46l-47 -46l-47 46l-47 -46l-60 60l60 61l47 -48l47 48l47 -48l47 48l47 -48l33 34l-46 47l60 61l61 -61l-48 -47 l48 -47l-48 -47l48 -47l-48 -47l48 -47l-61 -60l-47 46l-47 -46l-47 46l-47 -46l-47 46l-47 -46zM113 420l60 61l47 -48l47 48l47 -48l47 48l61 -61l-61 -60l-47 46l-47 -46l-47 46l-47 -46zM113 702l60 61l61 -61l-61 -60zM207 608l60 61l47 -48l47 48l61 -61l-61 -60 l-47 46l-47 -46zM395 702l60 61l61 -61l-61 -60z" />
<glyph unicode="&#xe4;" d="M19 138l60 61l61 -61l-61 -60zM19 608l46 47l-46 47l60 61l61 -61l-48 -47l48 -47l-61 -60zM113 44l60 61l47 -48l47 48l47 -48l47 48l47 -48l33 34l-46 47l46 47l-33 33l-47 -46l-47 46l-47 -46l-47 46l-47 -46l-60 60l60 61l47 -48l47 48l47 -48l47 48l47 -48l33 34 l-46 47l60 61l61 -61l-48 -47l48 -47l-48 -47l48 -47l-48 -47l48 -47l-61 -60l-47 46l-47 -46l-47 46l-47 -46l-47 46l-47 -46zM113 420l60 61l47 -48l47 48l47 -48l47 48l61 -61l-61 -60l-47 46l-47 -46l-47 46l-47 -46zM395 608l46 47l-46 47l60 61l61 -61l-48 -47l48 -47 l-61 -60z" />
<glyph unicode="&#xe5;" d="M19 138l60 61l61 -61l-61 -60zM113 44l60 61l47 -48l47 48l47 -48l47 48l47 -48l33 34l-46 47l46 47l-33 33l-47 -46l-47 46l-47 -46l-47 46l-47 -46l-60 60l60 61l47 -48l47 48l47 -48l47 48l47 -48l33 34l-46 47l60 61l61 -61l-48 -47l48 -47l-48 -47l48 -47l-48 -47 l48 -47l-61 -60l-47 46l-47 -46l-47 46l-47 -46l-47 46l-47 -46zM113 420l60 61l47 -48l47 48l47 -48l47 48l61 -61l-61 -60l-47 46l-47 -46l-47 46l-47 -46zM113 702l60 61l61 -61l-61 -60zM207 608l60 61l61 -61l-61 -60zM207 796l60 62l61 -62l-61 -60zM301 702l60 61 l61 -61l-61 -60z" />
<glyph unicode="&#xe6;" d="M-18 143l60 61l61 -61l-61 -60zM76 49l60 61l47 -48l33 34l-46 47l46 47l-33 33l-47 -46l-60 60l60 61l47 -48l33 34l-46 47l60 61l61 -61l-48 -47l34 -34l47 48l61 -61l-61 -60l-47 46l-34 -33l48 -47l-48 -47l34 -34l47 48l47 -48l47 48l61 -61l-61 -60l-47 46l-47 -46 l-47 46l-47 -46l-47 46l-47 -46zM76 425l60 61l61 -61l-61 -60zM264 425l60 61l61 -61l-61 -60zM358 331l60 61l61 -61l-61 -60z" />
<glyph unicode="&#xe7;" d="M19 138l46 47l-46 47l46 47l-46 47l60 61l61 -61l-48 -47l48 -47l-48 -47l48 -47l-61 -60zM111 -144l60 61l62 -61l-62 -60zM113 44l60 61l47 -48l47 48l47 -48l47 48l61 -61l-61 -60l-47 46l-34 -34l47 -46l-62 -60l-60 60l47 48l-32 32l-47 -46zM113 420l60 61l47 -48 l47 48l47 -48l47 48l61 -61l-61 -60l-47 46l-47 -46l-47 46l-47 -46zM395 138l60 61l61 -61l-61 -60zM395 326l60 61l61 -61l-61 -60z" />
<glyph unicode="&#xe8;" d="M19 138l46 47l-46 47l46 47l-46 47l60 61l61 -61l-48 -47l34 -34l47 48l47 -48l47 48l47 -48l47 48l47 -48l33 34l-46 47l60 61l61 -61l-48 -47l48 -47l-61 -60l-47 46l-47 -46l-47 46l-47 -46l-47 46l-47 -46l-47 46l-34 -33l48 -47l-61 -60zM113 44l60 61l47 -48l47 48 l47 -48l47 48l47 -48l47 48l61 -61l-61 -60l-47 46l-47 -46l-47 46l-47 -46l-47 46l-47 -46zM113 420l60 61l47 -48l47 48l47 -48l47 48l61 -61l-61 -60l-47 46l-47 -46l-47 46l-47 -46zM116 702l60 61l61 -61l-61 -60zM210 608l60 61l47 -48l47 48l61 -61l-61 -60l-47 46 l-47 -46z" />
<glyph unicode="&#xe9;" d="M19 138l46 47l-46 47l46 47l-46 47l60 61l61 -61l-48 -47l34 -34l47 48l47 -48l47 48l47 -48l47 48l47 -48l33 34l-46 47l60 61l61 -61l-48 -47l48 -47l-61 -60l-47 46l-47 -46l-47 46l-47 -46l-47 46l-47 -46l-47 46l-34 -33l48 -47l-61 -60zM113 44l60 61l47 -48l47 48 l47 -48l47 48l47 -48l47 48l61 -61l-61 -60l-47 46l-47 -46l-47 46l-47 -46l-47 46l-47 -46zM113 420l60 61l47 -48l47 48l47 -48l47 48l61 -61l-61 -60l-47 46l-47 -46l-47 46l-47 -46zM113 608l60 61l47 -48l47 48l61 -61l-61 -60l-47 46l-47 -46zM301 702l60 61l61 -61 l-61 -60z" />
<glyph unicode="&#xea;" d="M19 138l46 47l-46 47l46 47l-46 47l60 61l61 -61l-48 -47l34 -34l47 48l47 -48l47 48l47 -48l47 48l47 -48l33 34l-46 47l60 61l61 -61l-48 -47l48 -47l-61 -60l-47 46l-47 -46l-47 46l-47 -46l-47 46l-47 -46l-47 46l-34 -33l48 -47l-61 -60zM113 44l60 61l47 -48l47 48 l47 -48l47 48l47 -48l47 48l61 -61l-61 -60l-47 46l-47 -46l-47 46l-47 -46l-47 46l-47 -46zM113 420l60 61l47 -48l47 48l47 -48l47 48l61 -61l-61 -60l-47 46l-47 -46l-47 46l-47 -46zM113 608l60 61l61 -61l-61 -60zM207 702l60 61l61 -61l-61 -60zM301 608l60 61l61 -61 l-61 -60z" />
<glyph unicode="&#xeb;" d="M19 138l46 47l-46 47l46 47l-46 47l60 61l61 -61l-48 -47l34 -34l47 48l47 -48l47 48l47 -48l47 48l47 -48l33 34l-46 47l60 61l61 -61l-48 -47l48 -47l-61 -60l-47 46l-47 -46l-47 46l-47 -46l-47 46l-47 -46l-47 46l-34 -33l48 -47l-61 -60zM19 608l46 47l-46 47l60 61 l61 -61l-48 -47l48 -47l-61 -60zM113 44l60 61l47 -48l47 48l47 -48l47 48l47 -48l47 48l61 -61l-61 -60l-47 46l-47 -46l-47 46l-47 -46l-47 46l-47 -46zM113 420l60 61l47 -48l47 48l47 -48l47 48l61 -61l-61 -60l-47 46l-47 -46l-47 46l-47 -46zM395 608l46 47l-46 47 l60 61l61 -61l-48 -47l48 -47l-61 -60z" />
<glyph unicode="&#xec;" d="M-18 49l60 61l47 -48l47 48l47 -48l33 34l-46 47l46 47l-46 47l46 47l-46 47l46 47l-33 33l-47 -46l-47 46l-47 -46l-60 60l60 61l47 -48l47 48l47 -48l47 48l61 -61l-48 -47l48 -47l-48 -47l48 -47l-48 -47l48 -47l-48 -47l34 -34l47 48l47 -48l47 48l61 -61l-61 -60 l-47 46l-47 -46l-47 46l-47 -46l-47 46l-47 -46l-47 46l-47 -46zM76 707l60 61l61 -61l-61 -60zM170 613l60 61l47 -48l47 48l61 -61l-61 -60l-47 46l-47 -46z" />
<glyph unicode="&#xed;" d="M-18 49l60 61l47 -48l47 48l47 -48l33 34l-46 47l46 47l-46 47l46 47l-46 47l46 47l-33 33l-47 -46l-47 46l-47 -46l-60 60l60 61l47 -48l47 48l47 -48l47 48l61 -61l-48 -47l48 -47l-48 -47l48 -47l-48 -47l48 -47l-48 -47l34 -34l47 48l47 -48l47 48l61 -61l-61 -60 l-47 46l-47 -46l-47 46l-47 -46l-47 46l-47 -46l-47 46l-47 -46zM76 613l60 61l47 -48l47 48l61 -61l-61 -60l-47 46l-47 -46zM264 707l60 61l61 -61l-61 -60z" />
<glyph unicode="&#xee;" d="M-18 49l60 61l47 -48l47 48l47 -48l33 34l-46 47l46 47l-46 47l46 47l-46 47l46 47l-33 33l-47 -46l-47 46l-47 -46l-60 60l60 61l47 -48l47 48l47 -48l47 48l61 -61l-48 -47l48 -47l-48 -47l48 -47l-48 -47l48 -47l-48 -47l34 -34l47 48l47 -48l47 48l61 -61l-61 -60 l-47 46l-47 -46l-47 46l-47 -46l-47 46l-47 -46l-47 46l-47 -46zM76 613l60 61l61 -61l-61 -60zM170 707l60 61l61 -61l-61 -60zM264 613l60 61l61 -61l-61 -60z" />
<glyph unicode="&#xef;" d="M-18 49l60 61l47 -48l47 48l47 -48l33 34l-46 47l46 47l-46 47l46 47l-46 47l46 47l-33 33l-47 -46l-47 46l-47 -46l-60 60l60 61l47 -48l47 48l47 -48l47 48l61 -61l-48 -47l48 -47l-48 -47l48 -47l-48 -47l48 -47l-48 -47l34 -34l47 48l47 -48l47 48l61 -61l-61 -60 l-47 46l-47 -46l-47 46l-47 -46l-47 46l-47 -46l-47 46l-47 -46zM-18 613l46 47l-46 47l60 61l61 -61l-48 -47l48 -47l-61 -60zM358 613l46 47l-46 47l60 61l61 -61l-48 -47l48 -47l-61 -60z" />
<glyph unicode="&#xf0;" d="M-18 143l60 61l61 -61l-61 -60zM76 49l60 61l47 -48l47 48l47 -48l47 48l62 -61l-62 -60l-47 46l-47 -46l-47 46l-47 -46zM76 237l60 61l47 -48l47 48l47 -48l33 34l-46 47l60 61l62 -61l-48 -47l34 -33l46 47l62 -61l-48 -47l48 -47l-62 -60l-60 60l46 47l-32 33 l-48 -46l-47 46l-47 -46l-47 46l-47 -46zM76 425l60 61l19 -19q7 3 17 3q18 0 31 -11l27 27l19 -19q8 3 17 3q21 0 35 -14.5t14 -35.5t-14 -34.5t-35 -13.5q-12 0 -24 5l-12 -12l-22 21q-14 -14 -36 -14q-12 0 -24 5l-12 -12zM358 425l60 61l19 -19q7 3 17 3q21 0 35 -14.5 t14 -35.5t-14 -34.5t-35 -13.5q-11 0 -23 5l-13 -12z" />
<glyph unicode="&#xf1;" d="M19 44l46 47l-46 47l46 47l-46 47l46 47l-46 47l46 47l-46 47l60 61l61 -61l-48 -47l34 -34l47 48l61 -61l-61 -60l-47 46l-34 -33l48 -47l-48 -47l48 -47l-48 -47l48 -47l-61 -60zM19 608l60 61l61 -61l-61 -60zM113 702l60 61l61 -61l-61 -60zM207 420l60 61l47 -48 l47 48l61 -61l-61 -60l-47 46l-47 -46zM207 608l60 61l47 -48l47 48l61 -61l-61 -60l-47 46l-47 -46zM395 44l46 47l-46 47l46 47l-46 47l46 47l-46 47l60 61l61 -61l-48 -47l48 -47l-48 -47l48 -47l-48 -47l48 -47l-61 -60zM395 702l60 61l61 -61l-61 -60z" />
<glyph unicode="&#xf2;" d="M19 138l46 47l-46 47l46 47l-46 47l60 61l61 -61l-48 -47l48 -47l-48 -47l48 -47l-61 -60zM113 44l60 61l47 -48l47 48l47 -48l47 48l61 -61l-61 -60l-47 46l-47 -46l-47 46l-47 -46zM113 420l60 61l47 -48l47 48l47 -48l47 48l61 -61l-61 -60l-47 46l-47 -46l-47 46 l-47 -46zM116 702l60 61l61 -61l-61 -60zM210 608l60 61l47 -48l47 48l61 -61l-61 -60l-47 46l-47 -46zM395 138l46 47l-46 47l46 47l-46 47l60 61l61 -61l-48 -47l48 -47l-48 -47l48 -47l-61 -60z" />
<glyph unicode="&#xf3;" d="M19 138l46 47l-46 47l46 47l-46 47l60 61l61 -61l-48 -47l48 -47l-48 -47l48 -47l-61 -60zM113 44l60 61l47 -48l47 48l47 -48l47 48l61 -61l-61 -60l-47 46l-47 -46l-47 46l-47 -46zM113 420l60 61l47 -48l47 48l47 -48l47 48l61 -61l-61 -60l-47 46l-47 -46l-47 46 l-47 -46zM113 608l60 61l47 -48l47 48l61 -61l-61 -60l-47 46l-47 -46zM301 702l60 61l61 -61l-61 -60zM395 138l46 47l-46 47l46 47l-46 47l60 61l61 -61l-48 -47l48 -47l-48 -47l48 -47l-61 -60z" />
<glyph unicode="&#xf4;" d="M19 138l46 47l-46 47l46 47l-46 47l60 61l61 -61l-48 -47l48 -47l-48 -47l48 -47l-61 -60zM113 44l60 61l47 -48l47 48l47 -48l47 48l61 -61l-61 -60l-47 46l-47 -46l-47 46l-47 -46zM113 420l60 61l47 -48l47 48l47 -48l47 48l61 -61l-61 -60l-47 46l-47 -46l-47 46 l-47 -46zM113 608l60 61l61 -61l-61 -60zM207 702l60 61l61 -61l-61 -60zM301 608l60 61l61 -61l-61 -60zM395 138l46 47l-46 47l46 47l-46 47l60 61l61 -61l-48 -47l48 -47l-48 -47l48 -47l-61 -60z" />
<glyph unicode="&#xf5;" d="M19 138l46 47l-46 47l46 47l-46 47l60 61l61 -61l-48 -47l48 -47l-48 -47l48 -47l-61 -60zM19 608l60 61l61 -61l-61 -60zM113 44l60 61l47 -48l47 48l47 -48l47 48l61 -61l-61 -60l-47 46l-47 -46l-47 46l-47 -46zM113 420l60 61l47 -48l47 48l47 -48l47 48l61 -61 l-61 -60l-47 46l-47 -46l-47 46l-47 -46zM113 702l60 61l61 -61l-61 -60zM207 608l60 61l47 -48l47 48l61 -61l-61 -60l-47 46l-47 -46zM395 138l46 47l-46 47l46 47l-46 47l60 61l61 -61l-48 -47l48 -47l-48 -47l48 -47l-61 -60zM395 702l60 61l61 -61l-61 -60z" />
<glyph unicode="&#xf6;" d="M19 138l46 47l-46 47l46 47l-46 47l60 61l61 -61l-48 -47l48 -47l-48 -47l48 -47l-61 -60zM19 608l46 47l-46 47l60 61l61 -61l-48 -47l48 -47l-61 -60zM113 44l60 61l47 -48l47 48l47 -48l47 48l61 -61l-61 -60l-47 46l-47 -46l-47 46l-47 -46zM113 420l60 61l47 -48 l47 48l47 -48l47 48l61 -61l-61 -60l-47 46l-47 -46l-47 46l-47 -46zM395 138l46 47l-46 47l46 47l-46 47l60 61l61 -61l-48 -47l48 -47l-48 -47l48 -47l-61 -60zM395 608l46 47l-46 47l60 61l61 -61l-48 -47l48 -47l-61 -60z" />
<glyph unicode="&#xf7;" d="M-18 237l60 61l47 -48l47 48l47 -48l47 48l47 -48l47 48l47 -48l47 48l61 -61l-61 -60l-47 46l-47 -46l-47 46l-47 -46l-47 46l-47 -46l-47 46l-47 -46zM170 49l60 61l61 -61l-61 -60zM170 425l60 61l61 -61l-61 -60z" />
<glyph unicode="&#xf8;" d="M-18 143l46 47l-46 47l46 47l-46 47l60 61l61 -61l-48 -47l48 -47l-48 -47l34 -34l47 48l61 -61l-48 -47l34 -34l47 48l47 -48l47 48l61 -61l-61 -60l-47 46l-47 -46l-47 46l-47 -46l-60 60l46 47l-33 33l-47 -46zM-17 -45l60 61l61 -61l-61 -60zM76 425l60 61l47 -48 l47 48l47 -48l47 48l61 -61l-48 -47l34 -34l47 48l61 -61l-48 -47l48 -47l-48 -47l48 -47l-61 -60l-60 60l46 47l-46 47l46 47l-33 33l-47 -46l-60 60l46 47l-33 33l-47 -46l-47 46l-47 -46zM170 237l60 61l61 -61l-61 -60zM358 519l60 61l61 -61l-61 -60z" />
<glyph unicode="&#xf9;" d="M19 138l46 47l-46 47l46 47l-46 47l46 47l-46 47l60 61l61 -61l-48 -47l48 -47l-48 -47l48 -47l-48 -47l48 -47l-61 -60zM113 44l60 61l47 -48l47 48l61 -61l-61 -60l-47 46l-47 -46zM116 702l60 61l61 -61l-61 -60zM210 608l60 61l47 -48l47 48l61 -61l-61 -60l-47 46 l-47 -46zM301 138l60 61l47 -48l33 34l-46 47l46 47l-46 47l46 47l-46 47l60 61l61 -61l-48 -47l48 -47l-48 -47l48 -47l-48 -47l48 -47l-48 -47l48 -47l-61 -60l-60 60l46 47l-33 33l-47 -46z" />
<glyph unicode="&#xfa;" d="M19 138l46 47l-46 47l46 47l-46 47l46 47l-46 47l60 61l61 -61l-48 -47l48 -47l-48 -47l48 -47l-48 -47l48 -47l-61 -60zM113 44l60 61l47 -48l47 48l61 -61l-61 -60l-47 46l-47 -46zM113 608l60 61l47 -48l47 48l61 -61l-61 -60l-47 46l-47 -46zM301 138l60 61l47 -48 l33 34l-46 47l46 47l-46 47l46 47l-46 47l60 61l61 -61l-48 -47l48 -47l-48 -47l48 -47l-48 -47l48 -47l-48 -47l48 -47l-61 -60l-60 60l46 47l-33 33l-47 -46zM301 702l60 61l61 -61l-61 -60z" />
<glyph unicode="&#xfb;" d="M19 138l46 47l-46 47l46 47l-46 47l46 47l-46 47l60 61l61 -61l-48 -47l48 -47l-48 -47l48 -47l-48 -47l48 -47l-61 -60zM113 44l60 61l47 -48l47 48l61 -61l-61 -60l-47 46l-47 -46zM113 608l60 61l61 -61l-61 -60zM207 702l60 61l61 -61l-61 -60zM301 138l60 61l47 -48 l33 34l-46 47l46 47l-46 47l46 47l-46 47l60 61l61 -61l-48 -47l48 -47l-48 -47l48 -47l-48 -47l48 -47l-48 -47l48 -47l-61 -60l-60 60l46 47l-33 33l-47 -46zM301 608l60 61l61 -61l-61 -60z" />
<glyph unicode="&#xfc;" d="M19 138l46 47l-46 47l46 47l-46 47l46 47l-46 47l60 61l61 -61l-48 -47l48 -47l-48 -47l48 -47l-48 -47l48 -47l-61 -60zM19 608l46 47l-46 47l60 61l61 -61l-48 -47l48 -47l-61 -60zM113 44l60 61l47 -48l47 48l61 -61l-61 -60l-47 46l-47 -46zM301 138l60 61l47 -48 l33 34l-46 47l46 47l-46 47l46 47l-46 47l60 61l61 -61l-48 -47l48 -47l-48 -47l48 -47l-48 -47l48 -47l-48 -47l48 -47l-61 -60l-60 60l46 47l-33 33l-47 -46zM395 608l46 47l-46 47l60 61l61 -61l-48 -47l48 -47l-61 -60z" />
<glyph unicode="&#xfd;" d="M19 326l46 47l-46 47l60 61l61 -61l-48 -47l48 -47l-61 -60zM113 232l60 61l61 -61l-61 -60zM113 608l60 61l47 -48l47 48l61 -61l-61 -60l-47 46l-47 -46zM207 44l46 47l-46 47l60 61l61 -61l-48 -47l48 -47l-61 -60zM301 232l60 61l61 -61l-61 -60zM301 702l60 61 l61 -61l-61 -60zM395 326l46 47l-46 47l60 61l61 -61l-48 -47l48 -47l-61 -60z" />
<glyph unicode="&#xfe;" d="M-18 49l46 47l-46 47l46 47l-46 47l46 47l-46 47l46 47l-46 47l60 61l61 -61l-48 -47l34 -34l47 48l47 -48l47 48l47 -48l47 48l61 -61l-61 -60l-47 46l-47 -46l-47 46l-47 -46l-47 46l-34 -33l48 -47l-48 -47l34 -34l47 48l47 -48l47 48l47 -48l47 48l61 -61l-61 -60 l-47 46l-47 -46l-47 46l-47 -46l-47 46l-34 -33l48 -47l-61 -60zM358 237l60 61l61 -61l-61 -60z" />
<glyph unicode="&#xff;" d="M19 326l46 47l-46 47l60 61l61 -61l-48 -47l48 -47l-61 -60zM19 608l46 47l-46 47l60 61l61 -61l-48 -47l48 -47l-61 -60zM113 232l60 61l61 -61l-61 -60zM207 44l46 47l-46 47l60 61l61 -61l-48 -47l48 -47l-61 -60zM301 232l60 61l61 -61l-61 -60zM395 326l46 47 l-46 47l60 61l61 -61l-48 -47l48 -47l-61 -60zM395 608l46 47l-46 47l60 61l61 -61l-48 -47l48 -47l-61 -60z" />
<glyph unicode="&#x152;" d="M-21 146l47 48l-47 48l47 48l-47 48l61 62l63 -62l-49 -48l49 -48l-49 -48l49 -48l-63 -62zM75 50l61 62l49 -48l33 34l-47 48l47 48l-47 48l47 48l-47 48l47 48l-33 33l-49 -47l-61 61l61 63l49 -49l47 49l48 -49l48 49l48 -49l48 49l62 -63l-62 -61l-48 47l-48 -47 l-48 47l-34 -33l48 -48l-48 -48l34 -35l48 49l62 -62l-62 -62l-48 48l-34 -34l48 -48l-48 -48l34 -35l48 49l48 -49l48 49l62 -62l-62 -62l-48 48l-48 -48l-48 48l-48 -48l-47 48l-49 -48z" />
<glyph unicode="&#x153;" d="M-18 143l46 47l-46 47l46 47l-46 47l60 61l61 -61l-48 -47l48 -47l-48 -47l48 -47l-61 -60zM76 49l60 61l61 -61l-61 -60zM76 425l60 61l61 -61l-61 -60zM170 143l46 47l-46 47l46 47l-46 47l60 61l61 -61l-48 -47l34 -34l47 48l47 -48l33 34l-46 47l60 61l61 -61 l-48 -47l48 -47l-61 -60l-47 46l-47 -46l-47 46l-34 -33l48 -47l-61 -60zM264 49l60 61l47 -48l47 48l61 -61l-61 -60l-47 46l-47 -46zM264 425l60 61l61 -61l-61 -60z" />
<glyph unicode="&#x178;" d="M16 333l47 48l-47 47l61 63l63 -63l-49 -47l49 -48l-63 -62zM19 608l46 47l-46 47l60 61l61 -61l-48 -47l48 -47l-61 -60zM112 237l61 62l63 -62l-63 -62zM208 45l47 48l-47 48l61 62l62 -62l-48 -48l48 -48l-62 -62zM304 237l61 62l62 -62l-62 -62zM395 608l46 47 l-46 47l60 61l61 -61l-48 -47l48 -47l-61 -60zM400 333l47 48l-47 47l61 63l62 -63l-48 -47l48 -48l-62 -62z" />
<glyph unicode="&#x2c6;" d="M76 613l60 61l61 -61l-61 -60zM170 707l60 61l61 -61l-61 -60zM264 613l60 61l61 -61l-61 -60z" />
<glyph unicode="&#x2dc;" d="M-18 613l60 61l61 -61l-61 -60zM76 707l60 61l61 -61l-61 -60zM170 613l60 61l47 -48l47 48l61 -61l-61 -60l-47 46l-47 -46zM358 707l60 61l61 -61l-61 -60z" />
<glyph unicode="&#x2000;" horiz-adv-x="429" />
<glyph unicode="&#x2001;" horiz-adv-x="858" />
<glyph unicode="&#x2002;" horiz-adv-x="429" />
<glyph unicode="&#x2003;" horiz-adv-x="858" />
<glyph unicode="&#x2004;" horiz-adv-x="286" />
<glyph unicode="&#x2005;" horiz-adv-x="214" />
<glyph unicode="&#x2006;" horiz-adv-x="143" />
<glyph unicode="&#x2007;" horiz-adv-x="143" />
<glyph unicode="&#x2008;" horiz-adv-x="107" />
<glyph unicode="&#x2009;" horiz-adv-x="171" />
<glyph unicode="&#x200a;" horiz-adv-x="47" />
<glyph unicode="&#x2010;" d="M76 237l60 61l47 -48l47 48l47 -48l47 48l61 -61l-61 -60l-47 46l-47 -46l-47 46l-47 -46z" />
<glyph unicode="&#x2011;" d="M76 237l60 61l47 -48l47 48l47 -48l47 48l61 -61l-61 -60l-47 46l-47 -46l-47 46l-47 -46z" />
<glyph unicode="&#x2012;" d="M76 237l60 61l47 -48l47 48l47 -48l47 48l61 -61l-61 -60l-47 46l-47 -46l-47 46l-47 -46z" />
<glyph unicode="&#x2013;" d="M76 237l60 61l47 -48l47 48l47 -48l47 48l61 -61l-61 -60l-47 46l-47 -46l-47 46l-47 -46z" />
<glyph unicode="&#x2014;" d="M-18 237l60 61l47 -48l47 48l47 -48l47 48l47 -48l47 48l47 -48l47 48l61 -61l-61 -60l-47 46l-47 -46l-47 46l-47 -46l-47 46l-47 -46l-47 46l-47 -46z" />
<glyph unicode="&#x2018;" d="M171 331l46 47l-46 47l60 61l62 -61l-48 -47l48 -47l-62 -60zM265 519l61 61l61 -61l-61 -60z" />
<glyph unicode="&#x2019;" d="M171 331l60 61l62 -61l-62 -60zM265 425l47 47l-47 47l61 61l61 -61l-48 -47l48 -47l-61 -60z" />
<glyph unicode="&#x201a;" d="M171 -45l60 61l62 -61l-62 -60zM265 49l47 47l-47 47l61 61l61 -61l-48 -47l48 -47l-61 -60z" />
<glyph unicode="&#x201c;" d="M77 331l46 47l-46 47l60 61l62 -61l-48 -47l48 -47l-62 -60zM171 519l60 61l62 -61l-62 -60zM265 331l47 47l-47 47l61 61l61 -61l-48 -47l48 -47l-61 -60zM359 519l61 61l61 -61l-61 -60z" />
<glyph unicode="&#x201d;" d="M77 331l60 61l62 -61l-62 -60zM171 425l46 47l-46 47l60 61l62 -61l-48 -47l48 -47l-62 -60zM265 331l61 61l61 -61l-61 -60zM359 425l47 47l-47 47l61 61l61 -61l-48 -47l48 -47l-61 -60z" />
<glyph unicode="&#x201e;" d="M77 -45l60 61l62 -61l-62 -60zM171 49l46 47l-46 47l60 61l62 -61l-48 -47l48 -47l-62 -60zM265 -45l61 61l61 -61l-61 -60zM359 49l47 47l-47 47l61 61l61 -61l-48 -47l48 -47l-61 -60z" />
<glyph unicode="&#x2022;" d="M-21 237l46 47l-46 47l46 47l-46 47l60 61l47 -48l47 48l47 -48l47 48l61 -61l-48 -47l48 -47l-48 -47l48 -47l-61 -60l-47 46l-47 -46l-47 46l-47 -46zM52 284l34 -34l33 34l-33 33zM52 378l34 -34l33 34l-33 33zM146 284l34 -34l33 34l-33 33zM146 378l34 -34l33 34 l-33 33z" />
<glyph unicode="&#x2026;" d="M-18 49l46 47l-46 47l60 61l61 -61l-48 -47l48 -47l-61 -60zM170 49l46 47l-46 47l60 61l61 -61l-48 -47l48 -47l-61 -60zM358 49l46 47l-46 47l60 61l61 -61l-48 -47l48 -47l-61 -60z" />
<glyph unicode="&#x202f;" horiz-adv-x="171" />
<glyph unicode="&#x2039;" d="M76 237l60 61l61 -61l-61 -60zM170 143l60 61l61 -61l-61 -60zM170 331l60 61l61 -61l-61 -60zM264 49l60 61l61 -61l-61 -60zM264 425l60 61l61 -61l-61 -60z" />
<glyph unicode="&#x203a;" d="M173 49l60 61l61 -61l-61 -60zM173 425l60 61l61 -61l-61 -60zM267 143l60 61l61 -61l-61 -60zM267 331l60 61l61 -61l-61 -60zM361 237l60 61l61 -61l-61 -60z" />
<glyph unicode="&#x205f;" horiz-adv-x="214" />
<glyph unicode="&#x20ac;" d="M-18 237l60 61l47 -48l33 34l-46 47l60 61l61 -61l-48 -47l34 -34l47 48l47 -48l47 48l61 -61l-61 -60l-47 46l-47 -46l-47 46l-34 -33l48 -47l-61 -60l-60 60l46 47l-33 33l-47 -46zM170 49l60 61l47 -48l47 48l47 -48l47 48l61 -61l-61 -60l-47 46l-47 -46l-47 46 l-47 -46zM170 425l60 61l47 -48l47 48l47 -48l47 48l61 -61l-61 -60l-47 46l-47 -46l-47 46l-47 -46z" />
<glyph unicode="&#x2122;" d="M-17 519l60 61l47 -48l47 48l48 -47l46 47l48 -47l47 47l61 -61l-48 -47l34 -33l47 47l47 -47l33 33l-47 47l61 61l61 -61l-48 -47l48 -47l-48 -47l48 -47l-61 -60l-61 60l47 47l-33 33l-47 -46l-47 46l-34 -33l48 -47l-61 -60l-61 60l47 47l-47 47l47 47l-33 33l-48 -46 l-46 46l-34 -33l48 -47l-48 -47l48 -47l-62 -60l-60 60l46 47l-46 47l46 47l-33 33l-47 -46z" />
<glyph unicode="&#xe000;" horiz-adv-x="485" d="M0 0v485h485v-485h-485z" />
</font>
</defs>
</svg>
