<?xml version="1.0" standalone="no"?>
<!DOCTYPE svg PUBLIC "-//W3C//DTD SVG 1.1//EN" "http://www.w3.org/Graphics/SVG/1.1/DTD/svg11.dtd" >
<svg xmlns="http://www.w3.org/2000/svg">
<metadata></metadata>
<defs>
<font id="alegreya_sansbold_italic" horiz-adv-x="461" >
<font-face units-per-em="1000" ascent="800" descent="-200" />
<missing-glyph horiz-adv-x="138" />
<glyph unicode="&#xa8;I" horiz-adv-x="289" d="M48 0l31 192l49 451h134l-62 -439l-20 -204h-132zM76 793q0 30 17 47.5t47 17.5q28 0 43.5 -16t15.5 -44q0 -30 -17 -48t-46 -18q-60 0 -60 61zM227 793q0 30 17 47.5t48 17.5q27 0 42.5 -16t15.5 -44q0 -30 -17 -48t-46 -18q-60 0 -60 61z" />
<glyph unicode="&#xa8;O" horiz-adv-x="631" d="M37 263q0 180 87 284.5t245 104.5q119 0 184.5 -68.5t65.5 -199.5q0 -180 -87.5 -287t-245.5 -107q-118 0 -183.5 70.5t-65.5 202.5zM174 266q0 -91 29.5 -132.5t95.5 -41.5q90 0 135.5 67t45.5 214q0 90 -29.5 131t-96.5 41q-91 0 -135.5 -66.5t-44.5 -212.5zM236 794 q0 30 17.5 47.5t47.5 17.5q27 0 42.5 -16t15.5 -44q0 -31 -17 -48.5t-46 -17.5q-60 0 -60 61zM411 793q0 30 17 47.5t47 17.5q28 0 43 -16t15 -44q0 -30 -17 -48t-46 -18q-59 0 -59 61z" />
<glyph unicode="&#xb4;Y" horiz-adv-x="543" d="M56 643h137l8 -43l76 -248h10l148 244l24 47h137l-273 -425l-6 -38l-17 -180h-132l30 180l4 41zM224 775q108 54 207 112l12 -3l33 -77l-4 -12q-89 -35 -214 -78l-13 4z" />
<glyph unicode="&#xa8;i" horiz-adv-x="236" d="M26 614q0 30 17 47.5t47 17.5q28 0 43.5 -16t15.5 -44q0 -30 -17 -48t-46 -18q-60 0 -60 61zM30 -4l50 360l4 104l121 9l-48 -357l-4 -107zM177 614q0 30 17 47.5t48 17.5q27 0 42.5 -16t15.5 -44q0 -30 -17 -48t-46 -18q-60 0 -60 61z" />
<glyph unicode="&#xa8;o" horiz-adv-x="436" d="M25 165q0 135 66.5 218.5t180.5 90.5l12 -1q128 -26 128 -165q0 -141 -65.5 -225.5t-180.5 -92.5l-12 1q-129 28 -129 174zM124 615q0 30 17.5 47.5t47.5 17.5q27 0 42.5 -16t15.5 -44q0 -31 -17 -48.5t-46 -17.5q-60 0 -60 61zM141 163q0 -44 10.5 -62t36.5 -18 q57 0 81.5 54.5t24.5 162.5q0 43 -10 60.5t-35 17.5q-57 0 -82.5 -54t-25.5 -161zM299 614q0 30 17 47.5t47 17.5q28 0 43 -16t15 -44q0 -30 -17 -48t-46 -18q-59 0 -59 61z" />
<glyph unicode="&#xb4;y" horiz-adv-x="442" d="M-81 -78l11 11q45 -14 81 -14q75 0 133 62l-100 480l122 8l9 -85l38 -250h16l61 130q31 69 31 110q0 35 -19 64l5 14l113 19q19 -38 19 -80q0 -64 -48 -154l-102 -189q-72 -134 -135 -189t-138 -55q-48 0 -91 17zM132 570q95 74 180 152l13 -1l47 -70l-3 -12 q-108 -70 -193 -119l-12 1z" />
<glyph unicode="&#xfb01;" horiz-adv-x="542" d="M42 389l9 66h72l5 38q29 210 220 210l122 -22l5 -9l-30 -90l-17 -5q-62 38 -101 38q-32 0 -52.5 -23.5t-27.5 -68.5l-10 -68h174l91 16l7 -7l-48 -352l-4 -107l-123 -9l50 360l1 25h-158q-23 -163 -53 -383l-4 -108l-123 -9l43 309l24 191h-66z" />
<glyph unicode="&#xfb02;" horiz-adv-x="546" d="M42 389l9 66h73l6 46q29 209 228 209l99 -13l89 7l-82 -592l-3 -107l-123 -9l83 595v12q-46 18 -87 18q-70 0 -86 -91l-10 -75h101l9 -10l-10 -64h-111q-22 -162 -52 -383l-4 -108l-123 -9l43 309l24 191h-67z" />
<glyph horiz-adv-x="1000" />
<glyph horiz-adv-x="1000" />
<glyph unicode="&#xd;" horiz-adv-x="1000" />
<glyph unicode=" "  horiz-adv-x="138" />
<glyph unicode="&#x09;" horiz-adv-x="138" />
<glyph unicode="&#xa0;" horiz-adv-x="138" />
<glyph unicode="!" horiz-adv-x="273" d="M52 60q0 33 19 52.5t52 19.5q31 0 48 -17.5t17 -48.5q0 -34 -19 -53.5t-51 -19.5q-31 0 -48.5 17.5t-17.5 49.5zM94 239l43 405l13 15l104 6l13 -15l-86 -414l-75 -10z" />
<glyph unicode="&#x22;" horiz-adv-x="349" d="M79 415l25 220l101 7l7 -9l-62 -217l-62 -10zM226 415l25 220l101 7l7 -9l-62 -217l-62 -10z" />
<glyph unicode="#" horiz-adv-x="547" d="M20 185l6 67h101l21 105h-87l-8 8l6 67h103l28 141h73l8 -10l-26 -131h101l28 141h73l9 -10l-26 -131h88l8 -9l-6 -66h-105l-20 -105h90l8 -9l-6 -66h-107l-29 -145h-74l-7 9l27 136h-102l-28 -145h-75l-6 9l27 136h-85zM210 252h101l21 105h-101z" />
<glyph unicode="$" horiz-adv-x="446" d="M15 23l28 115l14 8q29 -30 67.5 -47.5t69.5 -17.5q29 0 48.5 16t19.5 38q0 20 -20.5 35t-50 27.5t-58.5 28.5t-49.5 45t-20.5 69q0 62 44 109t119 59l15 135h63l11 -11l-15 -121q58 -5 107 -25l-30 -109l-19 -5q-54 47 -108 47q-29 0 -46 -15t-17 -36q0 -19 20.5 -34 t49.5 -27.5t58 -28t49.5 -44.5t20.5 -69q0 -56 -38 -103t-109 -63l-16 -133h-65l-8 10l13 116q-80 2 -147 31z" />
<glyph unicode="%" horiz-adv-x="859" d="M58 429q0 103 50 161.5t139 58.5q63 0 96.5 -37t33.5 -105q0 -104 -49 -162t-139 -58q-64 0 -97.5 37t-33.5 105zM112 -45l558 730l49 -32l5 -18l-557 -727l-51 33zM140 442q0 -77 63 -77q91 0 91 123q0 78 -65 78q-89 0 -89 -124zM504 136q0 104 49.5 162.5t139.5 58.5 q63 0 96 -36.5t33 -105.5q0 -104 -49 -162.5t-139 -58.5q-63 0 -96.5 36.5t-33.5 105.5zM585 150q0 -78 63 -78q92 0 92 124q0 77 -66 77q-89 0 -89 -123z" />
<glyph unicode="&#x26;" horiz-adv-x="644" d="M47 154q0 110 139 170v4q-77 49 -77 141q0 84 62 134.5t171 50.5q73 0 160 -32l-31 -98l-16 -5q-74 45 -135 45q-49 0 -76.5 -24t-27.5 -70q0 -94 89 -99l243 14l113 15l12 -14l-21 -84l-147 -6l-3 -5q23 -38 23 -91q0 -87 -66.5 -148.5t-191.5 -61.5q-103 0 -161.5 44 t-58.5 120zM165 167q0 -44 31 -69t86 -25q69 0 105 35t36 95q0 58 -36 89l-131 -6q-91 -46 -91 -119z" />
<glyph unicode="'" horiz-adv-x="202" d="M79 415l25 220l101 7l7 -9l-62 -217l-62 -10z" />
<glyph unicode="(" horiz-adv-x="296" d="M59 152q0 52 5.5 103t20.5 110.5t38.5 111t63 101t91.5 83.5h12l41 -40l-1 -11q-49 -39 -84 -99.5t-52 -127.5t-24 -124t-7 -111q0 -82 18.5 -138t62.5 -99l-1 -11l-52 -39h-12q-64 52 -92 120.5t-28 170.5z" />
<glyph unicode=")" horiz-adv-x="296" d="M-28 -100l1 11q49 39 84 99.5t52 127.5t24 124t7 112q0 81 -19 137t-62 99l1 11l52 40h12q64 -52 92 -120.5t28 -170.5q0 -52 -5.5 -103t-20.5 -110.5t-38.5 -111t-63 -101t-91.5 -83.5h-12z" />
<glyph unicode="*" horiz-adv-x="383" d="M75 586q0 43 11 77l9 3l102 -66l-6 -42l-10 -4zM94 444l1 9l92 82l37 -19l1 -10l-60 -96q-30 9 -71 34zM207 729q35 12 76 12l5 -8l-29 -123l-41 -4l-8 7zM243 509l30 27l10 -1l68 -91q-16 -25 -54 -56l-9 2zM270 591l4 10l104 39q24 -34 35 -69l-5 -7l-120 -10z" />
<glyph unicode="+" horiz-adv-x="477" d="M22 226l16 79h165l20 166l80 6l9 -9l-21 -163h163l8 -9l-16 -79h-165l-20 -166l-80 -7l-9 9l20 164h-163z" />
<glyph unicode="," horiz-adv-x="229" d="M2 -79q55 45 55 97q0 34 -31 59v12q47 28 94 40q44 -35 44 -84q0 -87 -119 -171l-42 37z" />
<glyph unicode="-" horiz-adv-x="304" d="M24 201l10 81l242 35l9 -9l-9 -81l-243 -36z" />
<glyph unicode="." horiz-adv-x="230" d="M26 60q0 33 19 52.5t52 19.5q31 0 48 -17.5t17 -48.5q0 -34 -19 -53.5t-51 -19.5t-49 17.5t-17 49.5z" />
<glyph unicode="/" horiz-adv-x="284" d="M-26 -104l261 784h87l10 -12l-262 -783h-89z" />
<glyph unicode="0" horiz-adv-x="525" d="M39 212q0 133 69.5 217t189.5 84q193 0 193 -222q0 -134 -69 -217t-189 -83q-94 0 -144 55.5t-50 165.5zM141 229q0 -64 25 -94t82 -30q69 0 104.5 42.5t35.5 120.5q0 65 -25.5 95t-82.5 30q-70 0 -104.5 -43t-34.5 -121z" />
<glyph unicode="1" horiz-adv-x="359" d="M22 340l13 104l239 67l17 -14l-43 -289l-19 -208h-131l30 194l20 169l-117 -30z" />
<glyph unicode="2" horiz-adv-x="470" d="M12 3l10 79l148 136q60 55 86.5 86.5t26.5 55.5q0 19 -13.5 30t-39.5 11q-68 0 -140 -61h-15l-8 101q104 70 197 70q67 0 109.5 -32t42.5 -86q0 -40 -32 -84.5t-114 -126.5l-76 -78l2 -5h136l91 8l6 -8l-28 -105l-119 6h-227l-37 -2z" />
<glyph unicode="3" horiz-adv-x="430" d="M-5 -84l5 103l11 9q54 -23 107 -23q60 0 95.5 25t35.5 68q0 62 -85 65h-69l-6 8l15 89l50 2q37 1 70.5 28t33.5 65q0 24 -16 38t-45 14q-52 0 -126 -49h-13l-7 95q89 59 175 59q76 0 122.5 -34.5t46.5 -90.5q0 -43 -30 -86.5t-85 -69.5v-5q95 -35 95 -122 q0 -86 -75.5 -142.5t-192.5 -56.5q-63 0 -112 11z" />
<glyph unicode="4" horiz-adv-x="501" d="M1 66l10 84l287 355h121l-46 -348h84l6 -11l-17 -91l-83 2l-12 -137l-9 -10l-101 -6l-6 8l22 146h-163l-86 -3zM125 157h146l26 201h-9z" />
<glyph unicode="5" horiz-adv-x="431" d="M-7 -85l4 102l10 9q59 -23 116 -23q59 0 95 28.5t36 73.5q0 60 -84 76l-101 18l-8 10l35 284l18 15l57 -3h146l103 6l7 -9l-25 -100l-10 -9l-89 9h-118l-15 -114l61 -13q148 -31 148 -149q0 -95 -78.5 -159t-196.5 -64q-53 0 -111 12z" />
<glyph unicode="6" horiz-adv-x="483" d="M30 188q0 77 34.5 150.5t112.5 142.5t193 115h7l85 -58l-1 -13q-211 -64 -278 -184l7 -10q52 30 97 30q71 0 114.5 -47.5t43.5 -115.5q0 -34 -12 -68.5t-37 -67t-69 -52.5t-101 -20q-94 0 -145 53t-51 145zM147 191q0 -55 18.5 -84t65.5 -29q51 0 73 31t22 77 q0 83 -75 83q-52 0 -102 -38q-2 -26 -2 -40z" />
<glyph unicode="7" horiz-adv-x="432" d="M35 -49l265 447h-165l-92 -10l-6 12l22 109l110 -4h220l49 2l-10 -95l-212 -364l-74 -148l-101 31z" />
<glyph unicode="8" horiz-adv-x="493" d="M32 137q0 55 33 89.5t94 60.5l1 6q-37 22 -57 51.5t-20 77.5q0 77 55.5 124.5t145.5 47.5q79 0 125 -36.5t46 -100.5q0 -91 -106 -146l-1 -7q45 -24 69 -54t24 -82q0 -78 -59 -127.5t-155 -49.5q-90 0 -142.5 40t-52.5 106zM142 155q0 -37 22.5 -57t65.5 -20 q47 0 75.5 24t28.5 59q0 33 -23 51.5t-73 39.5q-47 -18 -71.5 -39t-24.5 -58zM189 430q0 -32 20 -51t61 -36q81 42 81 98q0 64 -73 64q-40 0 -64.5 -21t-24.5 -54z" />
<glyph unicode="9" horiz-adv-x="483" d="M26 -33l1 13q211 64 278 184l-7 10q-52 -30 -97 -30q-71 0 -114.5 47.5t-43.5 115.5q0 34 12 68.5t37 67t69 52.5t101 20q94 0 145 -53t51 -145q0 -77 -34.5 -150.5t-112.5 -142.5t-193 -115h-7zM162 319q0 -83 75 -83q52 0 102 38q2 26 2 40q0 55 -18.5 84t-65.5 29 q-51 0 -73 -31t-22 -77z" />
<glyph unicode=":" horiz-adv-x="230" d="M26 60q0 33 19 52.5t52 19.5q31 0 48 -17.5t17 -48.5q0 -34 -19 -53.5t-51 -19.5t-49 17.5t-17 49.5zM58 324q0 33 19 52.5t52 19.5q31 0 48 -17.5t17 -49.5q0 -33 -19 -52.5t-51 -19.5t-49 17.5t-17 49.5z" />
<glyph unicode=";" horiz-adv-x="229" d="M-1 -79q55 45 55 97q0 34 -32 59l1 12q47 27 93 40q45 -35 45 -84q0 -86 -119 -171l-42 37zM55 324q0 33 19 52.5t52 19.5q31 0 48 -17.5t17 -49.5q0 -33 -19 -52.5t-51 -19.5q-66 0 -66 67z" />
<glyph unicode="&#x3c;" horiz-adv-x="496" d="M33 208l12 105l11 12l391 145l19 -74l-7 -10l-327 -119v-7l298 -114l-27 -73l-13 -9z" />
<glyph unicode="=" horiz-adv-x="478" d="M17 132l7 79h417l9 -9l-7 -79h-417zM40 319l7 78h417l9 -8l-7 -79h-417z" />
<glyph unicode="&#x3e;" horiz-adv-x="503" d="M48 146l327 114l1 7l-298 119l-4 10l36 74l356 -145l8 -12l-12 -105l-394 -144l-11 9z" />
<glyph unicode="?" horiz-adv-x="340" d="M67 60q0 33 19 52.5t52 19.5q31 0 48 -17.5t17 -48.5q0 -34 -19 -53.5t-51 -19.5t-49 17.5t-17 49.5zM87 593l32 68l13 7q123 -7 188.5 -45t65.5 -104q0 -44 -28.5 -83t-80.5 -67l-78 -44l-2 -5l-4 -85l-93 -12l-8 9l5 124l7 10l96 48q66 31 66 84q0 72 -171 83z" />
<glyph unicode="@" horiz-adv-x="843" d="M29 185q0 196 122 322t321 126q159 0 254 -87t95 -235t-97 -228.5t-277 -84.5l22 161h-12q-57 -100 -122 -166h-18q-99 38 -99 160q0 104 61 193.5t173 115.5h5l77 -20l70 22l10 -6l-48 -346l-1 -24q80 13 125.5 71.5t45.5 147.5q0 114 -76 181.5t-203 63.5 q-154 -4 -248 -102t-94 -250q0 -158 103.5 -247t277.5 -89l5 -13l-36 -61q-199 2 -317.5 106.5t-118.5 288.5zM324 194q0 -86 26 -86q11 0 31.5 23t50.5 75.5t60 121.5l3 20v5l-63 21q-50 0 -79 -50.5t-29 -129.5z" />
<glyph unicode="A" horiz-adv-x="583" d="M-20 0l291 643h157l111 -643h-133l-6 83l-9 63l-121 2l-107 -2l-24 -56l-29 -90h-130zM209 249l82 -2l85 1l-40 271h-9z" />
<glyph unicode="B" horiz-adv-x="565" d="M49 0l31 192l49 451l216 1q89 0 140 -36t51 -105q0 -57 -29.5 -101t-85.5 -68q57 -20 82.5 -52t25.5 -83q0 -204 -307 -204q-89 0 -172 5h-1zM187 94q50 -4 67 -4q67 0 104 28.5t37 79.5q0 65 -79 80l-108 -2l-10 -72zM222 371l90 -3q87 22 87 112q0 37 -23 53t-79 16 h-50z" />
<glyph unicode="C" horiz-adv-x="507" d="M37 259q0 185 89 288.5t250 103.5q95 0 165 -38l-37 -112l-11 -4q-57 46 -131 46q-91 0 -138 -67t-47 -196q0 -178 135 -178q78 0 149 44l11 -7l-25 -113q-77 -35 -154 -35q-123 0 -189.5 69.5t-66.5 198.5z" />
<glyph unicode="D" horiz-adv-x="641" d="M49 0l31 192l49 451l244 4q122 0 188.5 -65.5t66.5 -185.5q0 -189 -92 -296t-262 -107q-113 0 -225 7zM191 103q62 -8 112 -8q89 0 137.5 69.5t48.5 210.5q0 167 -132 167q-39 0 -109 -4l-48 -334z" />
<glyph unicode="E" horiz-adv-x="497" d="M48 0l31 192l50 451h396l6 -10l-22 -99l-149 5l-112 -1l-22 -159l107 -1l102 3l7 -10l-22 -99l-110 3l-99 -1l-10 -70l-10 -99l111 -1l154 5l5 -10l-20 -99h-393z" />
<glyph unicode="F" horiz-adv-x="444" d="M48 0l31 192l50 451h372l6 -10l-22 -100l-147 6l-90 -1l-25 -177l86 -1l108 3l6 -10l-21 -98l-115 3l-78 -1l-8 -53l-20 -204h-133z" />
<glyph unicode="G" horiz-adv-x="585" d="M35 252q0 192 94.5 295.5t270.5 103.5q105 0 187 -38l-44 -120l-12 -1q-84 52 -159 52q-99 0 -149 -67.5t-50 -219.5q0 -86 34.5 -124t109.5 -38q34 0 83 16l9 55l10 100l123 8l-13 -87l-17 -156q-114 -40 -210 -40q-130 0 -198.5 68.5t-68.5 192.5z" />
<glyph unicode="H" horiz-adv-x="679" d="M48 0l31 192l49 451h134l-37 -265l133 -3l132 3l28 265h135l-62 -439l-20 -204h-132l31 192l8 76l-142 3l-127 -4l-9 -63l-19 -204h-133z" />
<glyph unicode="I" horiz-adv-x="289" d="M48 0l31 192l49 451h134l-62 -439l-19 -204h-133z" />
<glyph unicode="J" horiz-adv-x="328" d="M-26 -36l1 13q65 32 94 64t36 82q11 82 28 242t19 181l-103 -2l-8 9l17 90h239l-62 -431l-8 -92q-11 -83 -60.5 -133.5t-160.5 -92.5z" />
<glyph unicode="K" horiz-adv-x="569" d="M48 0l31 192l49 451h134l-42 -298l204 237l44 61h142l-258 -308q80 -141 200 -307l-4 -15q-60 -15 -132 -23l-13 8q-118 199 -185 332l-18 -126l-20 -204h-132z" />
<glyph unicode="L" horiz-adv-x="421" d="M45 0l31 192l49 451h134l-62 -439l-9 -95h210l6 -10l-21 -99h-338z" />
<glyph unicode="M" horiz-adv-x="776" d="M15 0l144 643h151l14 -95l60 -309h9l143 310l39 94h150l-24 -643h-117l15 195l8 253h-9l-187 -380h-103l-80 380h-10l-53 -241l-39 -207h-111z" />
<glyph unicode="N" horiz-adv-x="678" d="M49 0l30 190l50 453h142l200 -441h9l51 436l123 8l-64 -448l-19 -198h-142l-200 441h-9l-28 -220l-22 -221h-121z" />
<glyph unicode="O" horiz-adv-x="631" d="M37 263q0 180 86.5 284.5t245.5 104.5q119 0 184.5 -68.5t65.5 -199.5q0 -180 -87.5 -287t-245.5 -107q-118 0 -183.5 70.5t-65.5 202.5zM174 266q0 -91 29.5 -132.5t95.5 -41.5q90 0 135 67t45 214q0 91 -29.5 131.5t-96.5 40.5q-90 0 -134.5 -66.5t-44.5 -212.5z" />
<glyph unicode="P" horiz-adv-x="540" d="M49 0l31 192l49 451l230 1q90 0 140.5 -43.5t50.5 -127.5q0 -117 -77 -191.5t-205 -74.5h-67v-3l-20 -204h-132zM216 308l94 -3q48 12 75 51t27 96q0 46 -23 69t-74 26l-66 -3z" />
<glyph unicode="Q" horiz-adv-x="632" d="M37 263q0 180 87 284.5t246 104.5q119 0 184 -68.5t65 -199.5q0 -136 -51 -232t-146 -136q118 -79 262 -114l4 -14q-30 -52 -67 -84l-10 -5q-185 67 -315 191h-11q-117 0 -182.5 70.5t-65.5 202.5zM174 266q0 -91 29.5 -132.5t95.5 -41.5q90 0 135 67t45 214 q0 91 -29.5 131.5t-96.5 40.5q-90 0 -134.5 -66.5t-44.5 -212.5z" />
<glyph unicode="R" horiz-adv-x="574" d="M48 0l31 192l50 451l232 1q89 0 139.5 -42.5t50.5 -120.5q0 -72 -38 -131.5t-105 -95.5q54 -112 123 -223l-3 -15q-68 -22 -133 -26l-12 10q-49 113 -88 219h-93q-5 -42 -12 -120.5t-9 -98.5h-133zM217 321l95 -4q100 34 100 142q0 83 -97 88l-66 -3z" />
<glyph unicode="S" horiz-adv-x="485" d="M9 33l32 122l15 8q36 -35 79.5 -53t81.5 -18q45 0 71.5 22t26.5 54q0 28 -25 51t-60 41.5t-70.5 40.5t-60.5 59.5t-25 85.5q0 87 70.5 146.5t176.5 59.5q82 0 162 -33l-35 -114l-20 -8q-65 51 -129 51q-41 0 -67 -21.5t-26 -51.5q0 -26 25 -48.5t61 -42t72 -42t61 -59.5 t25 -85q0 -87 -71.5 -147t-181.5 -60q-99 0 -188 42z" />
<glyph unicode="T" horiz-adv-x="489" d="M54 545l22 98h443l6 -10l-20 -98l-117 6h-38l-47 -337l-20 -204h-132l32 192l38 349h-39l-121 -6z" />
<glyph unicode="U" horiz-adv-x="622" d="M58 178q0 26 4 49l13 93l36 323h132l-55 -398q-3 -21 -3 -38q0 -107 108 -107q127 0 143 138l44 405h133q-6 -47 -17.5 -129t-21 -151t-17.5 -130q-13 -117 -83 -179.5t-191 -62.5q-105 0 -165 48.5t-60 138.5z" />
<glyph unicode="V" horiz-adv-x="570" d="M60 643h134l6 -83l65 -436h8l188 429l29 90h129l-289 -643h-157z" />
<glyph unicode="W" horiz-adv-x="877" d="M70 643h129v-78l58 -428h8l149 350l-25 156h135l3 -91l61 -415h9l178 421l26 85h123l-286 -643h-138l-54 312h-9l-132 -312h-141z" />
<glyph unicode="X" horiz-adv-x="593" d="M-14 0l238 325l-154 318h155l21 -63l78 -161l122 166l35 58h139l-227 -313l156 -330h-154l-21 64l-83 169l-135 -177l-35 -56h-135z" />
<glyph unicode="Y" horiz-adv-x="543" d="M56 643h137l8 -43l76 -248h9l148 244l24 47h138l-272 -423l-7 -40l-17 -180h-132l30 180l4 41z" />
<glyph unicode="Z" horiz-adv-x="532" d="M1 -4l12 95l370 451h-198l-107 -9l-5 7l24 105l126 -2h266l60 1l-12 -96l-367 -447h210l106 8l4 -7l-23 -105l-141 3h-249z" />
<glyph unicode="[" horiz-adv-x="295" d="M33 -117l53 378l39 377l209 10l5 -7l-7 -59l-110 -13l-76 -617l107 -13l-8 -59l-6 -7z" />
<glyph unicode="\" horiz-adv-x="350" d="M35 668l11 12h87l206 -784l-8 -11h-89z" />
<glyph unicode="]" horiz-adv-x="295" d="M-37 -119l7 58l110 13l75 617l-106 13l7 59l7 7l206 -10l-53 -377l-39 -378l-209 -10z" />
<glyph unicode="^" horiz-adv-x="440" d="M6 139l188 350l13 7h105l101 -350l-11 -12l-74 -17l-79 288h-8l-154 -288l-11 -5z" />
<glyph unicode="_" horiz-adv-x="445" d="M-63 -162l15 73h460l7 -9l-15 -73h-460z" />
<glyph unicode="`" horiz-adv-x="390" d="M121 651l47 70l12 1q89 -80 181 -152l-32 -49l-12 -1q-85 49 -193 119z" />
<glyph unicode="a" d="M22 154q0 67 24.5 130.5t80 115.5t132.5 71h6l76 -21l76 24l11 -7l-49 -355l-4 -107l-123 -9l22 158h-13q-53 -95 -118 -163h-18q-103 38 -103 163zM134 197q0 -85 25 -85q18 0 57.5 59.5t83.5 165.5l2 17v2l-65 21q-48 0 -75.5 -49.5t-27.5 -130.5z" />
<glyph unicode="b" horiz-adv-x="463" d="M36 22l79 569l2 104l123 9l-55 -397h13q55 96 120 164h18q103 -38 103 -163q0 -68 -25 -132t-80 -115.5t-130 -69.5h-6l-94 19zM160 102l66 -18q47 0 74.5 51t27.5 130q0 87 -25 87q-18 0 -57.5 -57.5t-83.5 -159.5z" />
<glyph unicode="c" horiz-adv-x="353" d="M23 169q0 130 64.5 216.5t190.5 86.5l75 -23l6 -14l-35 -93l-26 -2q-33 38 -63 38q-46 0 -70.5 -48t-24.5 -137q0 -53 11 -75t36 -22q41 0 83 76l16 -1l39 -50q-32 -54 -66.5 -83.5t-84.5 -45.5h-17q-72 11 -103 52t-31 125z" />
<glyph unicode="d" d="M21 154q0 106 62.5 198t177.5 119h5l50 -14l19 134l3 104l123 9l-82 -592l-4 -107l-123 -9l22 159h-11q-53 -93 -120 -164h-19q-103 38 -103 163zM132 196q0 -84 26 -84q11 0 31.5 23t50 74.5t59.5 120.5l3 27l-64 21q-49 0 -77.5 -50.5t-28.5 -131.5z" />
<glyph unicode="e" horiz-adv-x="402" d="M24 167q0 133 67 217.5t180 89.5l12 -1q101 -18 101 -107q0 -60 -58 -106t-186 -85q3 -46 17 -66t41 -20q61 0 107 80l16 -2l40 -53q-73 -97 -170 -123h-14q-153 16 -153 176zM142 253q134 39 134 105q0 34 -37 34q-39 0 -64.5 -36.5t-32.5 -102.5z" />
<glyph unicode="f" horiz-adv-x="305" d="M42 389l9 66h73l5 38q26 210 220 210l103 -14l5 -10l-33 -85l-16 -5q-45 26 -83 26q-31 0 -51.5 -23.5t-26.5 -68.5l-9 -68h101l9 -10l-10 -64h-111q-22 -163 -53 -383l-3 -108l-123 -9q50 366 67 500h-67z" />
<glyph unicode="g" horiz-adv-x="460" d="M-54 -44l4 10l136 71l1 10q-49 39 -49 125q0 105 59 189.5t167 109.5h5l76 -22l72 25l11 -7l-49 -348l-6 -76q-15 -112 -84.5 -176t-164.5 -64q-76 0 -121.5 41t-56.5 112zM73 -51q0 -23 20 -40.5t55 -17.5q44 0 74 30.5t37 87.5l22 162h-12q-52 -94 -119 -150l-65 -50 q-12 -10 -12 -22zM144 214q0 -30 4.5 -50.5t9.5 -28t11 -7.5q16 0 54 55.5t81 151.5l3 22v4l-63 21q-48 0 -74 -46t-26 -122z" />
<glyph unicode="h" horiz-adv-x="495" d="M31 -4l84 595l2 104l123 9l-58 -416h13q75 120 145 180l12 1q48 -9 76.5 -34.5t27.5 -62.5q-4 -30 -9.5 -66t-10.5 -64t-11 -65t-10 -64l-5 -108l-125 -9l49 308l1 11q0 24 -17 24q-24 0 -65 -53t-92 -154l-3 -20l-3 -107z" />
<glyph unicode="i" horiz-adv-x="236" d="M30 -4l50 360l4 104l121 9l-48 -357l-4 -107zM96 621q0 33 19 52.5t52 19.5q31 0 48 -17.5t17 -49.5q0 -33 -19 -52.5t-51 -19.5q-31 0 -48.5 17.5t-17.5 49.5z" />
<glyph unicode="j" horiz-adv-x="257" d="M-47 -139l1 12q45 27 67.5 60t29.5 86l46 334l1 28h-70l-6 8l10 66h70l118 13l4 -4l-50 -350l-9 -89q-10 -79 -49.5 -129.5t-123.5 -89.5zM104 621q0 33 19 52.5t52 19.5q31 0 48 -17.5t17 -49.5q0 -33 -19 -52.5t-51 -19.5q-31 0 -48.5 17.5t-17.5 49.5z" />
<glyph unicode="k" horiz-adv-x="498" d="M32 -4l83 595l2 104l124 9l-58 -413h14q87 125 157 177l13 1q106 -22 106 -112q0 -93 -126 -176q47 -89 98 -168l-6 -10l-103 -15l-12 6q-48 92 -85 180l4 18q107 67 107 124q0 24 -18 24q-28 0 -73 -53t-99 -161l-2 -14l-3 -107z" />
<glyph unicode="l" horiz-adv-x="240" d="M32 -4l83 595l2 104l123 9l-82 -592l-3 -107z" />
<glyph unicode="m" horiz-adv-x="753" d="M30 -4l51 360l4 104l121 9l-24 -181h12q72 117 145 180l12 1q47 -9 75.5 -34.5t27.5 -62.5l-1 -13l-12 -71h11q75 120 145 180l12 1q47 -9 75.5 -34.5t27.5 -62.5q-7 -51 -21.5 -142.5t-18.5 -116.5l-5 -108l-125 -9l49 308l1 11q0 24 -17 24q-24 0 -66 -54t-94 -158 l-2 -14l-4 -108l-126 -9l49 308l1 11q0 24 -17 24q-23 0 -63.5 -51.5t-91.5 -150.5l-3 -25l-4 -107z" />
<glyph unicode="n" horiz-adv-x="493" d="M30 -4l51 360l4 104l121 9l-24 -181h11q75 120 145 180l12 1q46 -10 75.5 -35.5t28.5 -61.5q-5 -39 -12 -83t-15.5 -94t-13.5 -82l-5 -108l-126 -9l50 308l1 11q0 24 -17 24q-23 0 -63.5 -51.5t-91.5 -150.5l-3 -25l-4 -107z" />
<glyph unicode="o" horiz-adv-x="436" d="M25 165q0 135 66.5 218.5t180.5 90.5l12 -1q128 -26 128 -165q0 -141 -65.5 -225.5t-180.5 -92.5l-12 1q-129 28 -129 174zM141 163q0 -44 10.5 -62t36.5 -18q106 0 106 217q0 43 -10.5 60.5t-35.5 17.5q-57 0 -82 -54t-25 -161z" />
<glyph unicode="p" d="M5 -194l77 550l4 104l121 9l-22 -162h14q54 96 120 164h18q103 -38 103 -163q0 -68 -25 -132t-80.5 -115.5t-130.5 -69.5h-5l-56 11l-10 -77l-4 -110zM157 102l70 -18q47 0 74 51t27 130q0 87 -25 87q-18 0 -58.5 -60.5t-84.5 -165.5z" />
<glyph unicode="q" d="M21 154q0 105 62 197.5t176 119.5h6l77 -21l76 24l10 -7l-74 -544l-4 -108l-124 -9l49 349h-14q-53 -95 -119 -164h-18q-103 38 -103 163zM132 196q0 -84 25 -84q19 0 59 59.5t85 165.5l2 17v2l-65 22q-50 0 -78 -50.5t-28 -131.5z" />
<glyph unicode="r" horiz-adv-x="354" d="M32 -4l50 360l4 104l122 9l-24 -174h12q62 109 149 173l27 -3l-22 -156l-10 -5l-20 3q-43 -6 -77.5 -40t-79.5 -124l-4 -31l-4 -107z" />
<glyph unicode="s" horiz-adv-x="346" d="M-9 22l30 107l15 6q49 -64 109 -64q23 0 37.5 14.5t14.5 32.5q0 17 -16.5 33t-39.5 30.5t-46 31t-39 42.5t-16 58q1 71 59.5 115.5t140.5 43.5q53 -9 101 -26l-31 -102l-17 -6q-47 51 -92 51q-21 0 -35 -13.5t-14 -32.5q0 -16 16 -31.5t39 -29t45.5 -30t38.5 -43 t16 -60.5q0 -69 -56 -113.5t-142 -44.5q-65 8 -118 31z" />
<glyph unicode="t" horiz-adv-x="342" d="M40 389l8 66h70l10 101l117 37l10 -7l-21 -131h111l9 -10l-8 -64h-123l-38 -239l-2 -14q0 -21 20 -21q26 0 64 54l17 -1l35 -45q-58 -78 -124 -121h-15q-56 7 -84 30t-28 69l1 21l39 244l2 23h-63z" />
<glyph unicode="u" horiz-adv-x="490" d="M38 92q6 52 21 144t19 116l6 109l123 8l-47 -302l-2 -18q0 -24 18 -24q50 0 150 198l5 33l4 104l122 9l-50 -357l-3 -107l-123 -9l25 177h-10q-76 -120 -142 -176h-12q-47 8 -76 33t-28 62z" />
<glyph unicode="v" horiz-adv-x="436" d="M54 461l122 8l1 -85l18 -256h10l82 155q29 53 29 93q0 30 -19 62l5 14l113 19q18 -39 18 -80q0 -59 -45 -140l-142 -251h-138z" />
<glyph unicode="w" horiz-adv-x="709" d="M54 461l120 8l1 -73l17 -258h11l103 250l25 77h129l2 -69l19 -258h9l72 145q29 58 29 93q0 30 -19 62l5 14l113 19q18 -39 18 -80q0 -55 -44 -140l-134 -251h-133l-24 300h-11l-121 -300h-134z" />
<glyph unicode="x" horiz-adv-x="468" d="M-15 0l168 240l-96 220l131 12l14 -47l46 -106l72 101l23 45h129l-164 -233l109 -228l-136 -11l-15 59l-46 108l-76 -107l-25 -53h-134z" />
<glyph unicode="y" horiz-adv-x="442" d="M-81 -78l11 11q45 -14 81 -14q76 0 133 63l-100 479l122 8l9 -85l38 -250h16l61 130q31 69 31 110q0 35 -19 64l5 14l113 19q19 -38 19 -80q0 -64 -48 -154l-103 -189q-72 -134 -134.5 -189t-138.5 -55q-47 0 -90 17z" />
<glyph unicode="z" horiz-adv-x="425" d="M-20 27l257 336l-104 -2l-75 -11l-10 8l23 108l11 8l83 -6l179 -4l32 18l36 -35l-261 -338l28 7q8 0 34.5 -6.5t35.5 -6.5q36 0 52.5 20t20.5 76l16 6l53 -19q-6 -196 -142 -196q-32 0 -83.5 16.5t-72.5 16.5q-31 0 -62 -30h-14z" />
<glyph unicode="{" horiz-adv-x="295" d="M32 238l7 60q81 21 81 101q0 14 -2.5 51.5t-2.5 55.5q0 151 152 151q26 0 62 -9l4 -10l-19 -66q-20 5 -34 5q-64 0 -64 -81q0 -16 4 -53t4 -52q0 -84 -82 -120l-1 -5q57 -28 57 -90q0 -26 -21.5 -83.5t-21.5 -82.5q0 -51 49 -51q13 0 36 5l3 -66l-7 -9q-33 -9 -65 -9 q-59 0 -90 26t-31 75q0 36 21.5 100.5t21.5 86.5q0 54 -61 70z" />
<glyph unicode="|" horiz-adv-x="308" d="M45 -248q66 538 129 1043l92 8l8 -9q-65 -493 -131 -1047l-90 -7z" />
<glyph unicode="}" horiz-adv-x="295" d="M-29 -102l19 67q20 -5 35 -5q63 0 63 81q0 15 -4 52t-4 53q0 84 82 120l1 5q-57 27 -57 90q0 26 21.5 83t21.5 82q0 52 -49 52q-13 0 -36 -5l-3 65l7 10q33 9 65 9q59 0 90 -26t31 -75q0 -36 -21.5 -101t-21.5 -86q0 -54 61 -70l-7 -61q-42 -11 -61.5 -34.5t-19.5 -65.5 q0 -14 2.5 -51.5t2.5 -56.5q0 -150 -152 -150q-32 0 -62 9z" />
<glyph unicode="~" horiz-adv-x="480" d="M30 225l2 12l93 91l13 6q22 -4 102 -28.5t98 -24.5q4 0 9 1.5t10.5 4.5t10 6t11 9t11.5 10t13.5 11.5t13.5 12.5h12l28 -42l-1 -12l-92 -92l-14 -4q-26 3 -104.5 27.5t-95.5 24.5q-6 0 -12.5 -2.5t-15.5 -9.5t-14 -11t-18.5 -16.5t-17.5 -16.5h-12z" />
<glyph unicode="&#xa1;" horiz-adv-x="273" d="M12 -182l86 414l75 10l12 -13l-43 -405l-13 -15l-104 -6zM91 402q0 34 19 53.5t51 19.5q31 0 48.5 -17.5t17.5 -49.5q0 -33 -19 -52.5t-52 -19.5q-31 0 -48 17.5t-17 48.5z" />
<glyph unicode="&#xa2;" horiz-adv-x="388" d="M29 213q0 109 47.5 187t140.5 101l23 154h63l11 -10l-21 -135l77 -22l6 -13l-30 -81l-23 -2q-35 35 -68 35q-58 0 -90.5 -51t-32.5 -143q0 -57 14.5 -82.5t45.5 -25.5q52 0 99 80l15 -1l36 -45q-51 -83 -123 -114l-27 -168h-64l-7 11l22 150q-59 14 -86.5 54.5 t-27.5 120.5z" />
<glyph unicode="&#xa3;" horiz-adv-x="447" d="M-6 7l13 70q76 18 86 100l11 96h-72l-3 7l13 63h71l8 71q10 87 67 134t153 47q50 0 112 -16l-17 -93l-9 -6q-57 32 -104 32q-78 0 -88 -79l-12 -90h127l4 -7l-14 -63h-126l-12 -88q-7 -62 -50 -94v-3h145l100 7l4 -7l-20 -91l-123 3h-260z" />
<glyph unicode="&#xa4;" horiz-adv-x="435" d="M9 200l3 12l75 61q-14 26 -14 62q0 45 31 89l-61 59v12l63 59l11 -1l54 -69q38 22 79 22q40 0 69 -20l69 70l13 1l52 -56l-2 -12l-76 -62q13 -25 13 -62q0 -48 -30 -87l63 -60v-12l-63 -59l-12 1l-53 68q-38 -23 -81 -23q-40 0 -71 21l-67 -69l-12 -1zM144 340 q0 -35 21 -56t55 -21q42 0 70.5 27.5t28.5 69.5q0 34 -21.5 55t-55.5 21q-41 0 -69.5 -27.5t-28.5 -68.5z" />
<glyph unicode="&#xa5;" horiz-adv-x="551" d="M24 118l10 53h173l-31 77h-131l-4 7l10 53h101l-78 195h117l8 -35l74 -188h8l131 184l21 39h114l-135 -195h107l5 -6l-11 -54h-143l-53 -77h184l6 -6l-10 -53h-193l-10 -112h-110l18 112h-173z" />
<glyph unicode="&#xa6;" horiz-adv-x="308" d="M45 -248l49 398l89 10l9 -11l-49 -402l-89 -7zM122 374l51 421l93 8l8 -9l-54 -417l-90 -11z" />
<glyph unicode="&#xa7;" horiz-adv-x="440" d="M-1 -69l27 99l12 8q61 -58 128 -58q32 0 53 16.5t21 36.5q0 18 -21 36t-50.5 34.5t-59 36t-50.5 49.5t-21 66q0 47 30.5 87t81.5 64q-43 41 -43 89q0 64 58.5 110t142.5 46q67 0 122 -23l-26 -95l-16 -5q-56 41 -105 41q-29 0 -48 -16t-19 -35q0 -18 20.5 -35.5t50 -34.5 t59 -36.5t50 -49.5t20.5 -66q0 -46 -30.5 -85.5t-81.5 -62.5q44 -42 44 -91q0 -64 -58.5 -110t-143.5 -46q-77 0 -147 30zM148 287q0 -14 6.5 -26.5t23.5 -26t28 -20.5t37 -22q64 28 64 72q0 20 -16 39t-30 28.5t-48 29.5q-65 -30 -65 -74z" />
<glyph unicode="&#xa8;" horiz-adv-x="390" d="M93 615q0 30 17.5 47.5t47.5 17.5q27 0 42.5 -16t15.5 -44q0 -31 -17 -48.5t-46 -17.5q-60 0 -60 61zM268 614q0 30 17 47.5t47 17.5q28 0 43 -16t15 -44q0 -30 -17 -48t-46 -18q-59 0 -59 61z" />
<glyph unicode="&#xa9;" horiz-adv-x="693" d="M54 293q0 137 82.5 221t216.5 84q135 0 217.5 -84t82.5 -221t-82.5 -221t-217.5 -84q-134 0 -216.5 84t-82.5 221zM100 293q0 -117 70 -188t183 -71q114 0 184 71t70 188t-70 188t-184 71q-113 0 -183 -71t-70 -188zM203 293q0 82 45 127t127 45q43 0 89 -17l-16 -69 l-5 -3q-31 17 -71 17t-59 -21.5t-19 -69.5q0 -103 81 -103q40 0 74 14l8 -3l-7 -69q-38 -14 -81 -14q-166 0 -166 166z" />
<glyph unicode="&#xaa;" horiz-adv-x="323" d="M51 430q0 75 41 136t119 80h5l56 -8l54 12l7 -5l-32 -241l-5 -73l-84 -6l15 116h-9q-40 -77 -81 -118h-12q-42 14 -58 39t-16 68zM130 463q0 -63 19 -63q10 0 35.5 38t55.5 104l3 25l1 9l-45 9q-32 -1 -50.5 -34.5t-18.5 -87.5z" />
<glyph unicode="&#xab;" horiz-adv-x="428" d="M33 220l3 21l157 173l57 -33l1 -13l-122 -141l88 -141l-4 -12l-65 -33zM216 220l3 21l157 173l57 -33l1 -13l-122 -141l88 -141l-4 -12l-65 -33z" />
<glyph unicode="&#xac;" horiz-adv-x="480" d="M22 226l17 79h395l5 -8l-30 -246l-79 -7l-9 9l20 164h-311z" />
<glyph unicode="&#xad;" horiz-adv-x="304" d="M24 201l10 81l242 35l9 -9l-9 -81l-243 -36z" />
<glyph unicode="&#xae;" horiz-adv-x="445" d="M37 517q0 83 51 134t135 51t135 -51t51 -134q0 -84 -51 -135.5t-135 -51.5t-135 51.5t-51 135.5zM70 517q0 -69 42.5 -111.5t110.5 -42.5q69 0 111 42.5t42 111.5t-42 110.5t-111 41.5t-111 -41.5t-42 -110.5zM151 426l2 57l-2 137l84 1q69 0 69 -60q0 -36 -37 -59 q20 -29 50 -66l-1 -5q-13 -5 -47 -9l-6 4q-19 32 -36 63h-31v-1l3 -62h-48zM197 526l32 -2q25 10 25 33q0 27 -35 28l-20 -1z" />
<glyph unicode="&#xaf;" horiz-adv-x="390" d="M94 586l7 73h280l9 -9l-7 -73h-280z" />
<glyph unicode="&#xb0;" horiz-adv-x="293" d="M51 510q0 58 44 100t103 42q50 0 82.5 -33t32.5 -82q0 -59 -44 -101t-102 -42q-50 0 -83 33.5t-33 82.5zM108 516q0 -28 18.5 -46.5t46.5 -18.5q34 0 58.5 23.5t24.5 56.5q0 28 -18.5 46.5t-46.5 18.5q-34 0 -58.5 -23.5t-24.5 -56.5z" />
<glyph unicode="&#xb1;" horiz-adv-x="478" d="M-14 -106l7 79h417l9 -9l-7 -79h-417zM22 226l16 79h165l21 166l80 6l8 -9l-20 -163h162l9 -9l-17 -79h-165l-20 -166l-80 -7l-8 9l20 164h-164z" />
<glyph unicode="&#xb2;" horiz-adv-x="360" d="M29 318l7 60l108 103q46 45 65 68.5t19 43.5q0 13 -10 21.5t-27 8.5q-49 0 -101 -46h-11l-9 76q81 52 151 52q49 0 81.5 -23.5t32.5 -62.5q0 -30 -23 -65t-79 -93l-62 -65l2 -3h96l68 5l4 -7l-20 -79l-93 4h-167l-27 -1z" />
<glyph unicode="&#xb3;" horiz-adv-x="320" d="M48 318l3 71l7 6q42 -11 75 -11q39 0 61.5 14t22.5 37q0 35 -50 37h-50l-5 6l9 67l32 1q27 1 47.5 15.5t20.5 36.5q0 30 -41 30q-31 0 -82 -27h-11l-8 67q65 38 127 38q52 0 86.5 -24t34.5 -62q0 -63 -74 -97l-1 -4q64 -18 64 -79q0 -58 -53.5 -94t-139.5 -36 q-40 0 -75 8z" />
<glyph unicode="&#xb4;" horiz-adv-x="390" d="M121 570q95 74 180 152l13 -1l47 -70l-3 -12q-108 -70 -193 -119l-12 1z" />
<glyph unicode="&#xb5;" horiz-adv-x="499" d="M8 -194l76 550l4 104l119 8l-44 -317l1 1q-5 -30 18 -30q50 0 156 206l4 28l4 104l119 8l-49 -356l-4 -107l-120 -9l25 181h-10q-75 -121 -146 -181h-12l-7 1l-10 -73l-4 -109z" />
<glyph unicode="&#xb6;" horiz-adv-x="521" d="M49 405q0 111 74 174.5t203 63.5h218l8 -10l-20 -89h-68l-47 -348l-6 -60q-7 -51 -29.5 -89.5t-68 -71t-120.5 -60.5l-28 59l2 13q39 20 64 41t38.5 46t17.5 56q11 80 27.5 232t20.5 183h-47q-48 -8 -74 -43.5t-26 -91.5q0 -89 79 -130l-53 -67q-80 19 -122.5 68.5 t-42.5 123.5z" />
<glyph unicode="&#xb7;" horiz-adv-x="230" d="M49 249q0 33 19 52.5t52 19.5q31 0 48 -17.5t17 -48.5q0 -33 -19 -53t-51 -20q-31 0 -48.5 17.5t-17.5 49.5z" />
<glyph unicode="&#xb8;" horiz-adv-x="390" d="M60 -172l10 55l6 2q30 -30 58 -30q25 0 25 22q0 11 -17 20l-49 28l23 100h63l-19 -73l34 -19q41 -22 41 -59q0 -33 -25.5 -54t-67.5 -21q-44 0 -82 29z" />
<glyph unicode="&#xb9;" horiz-adv-x="274" d="M53 582l10 78l181 46l12 -10l-34 -243l-13 -137h-103l19 126l18 152l-84 -17z" />
<glyph unicode="&#xba;" horiz-adv-x="309" d="M51 440q0 91 45.5 148t122.5 61h9q88 -16 88 -112t-45 -153t-124 -62l-8 2q-88 13 -88 116zM132 439q0 -31 7.5 -43.5t24.5 -12.5q70 0 70 148q0 30 -6.5 42.5t-22.5 12.5q-73 0 -73 -147z" />
<glyph unicode="&#xbb;" horiz-adv-x="425" d="M-5 89l122 141l-87 141l4 12l65 33l115 -179l-3 -21l-158 -173l-57 33zM179 76v13l122 141l-88 141l4 12l65 33l115 -179l-3 -21l-158 -173z" />
<glyph unicode="&#xbc;" horiz-adv-x="743" d="M28 -45l558 730l49 -32l6 -18l-558 -727l-51 33zM46 525l10 78l181 46l12 -10l-34 -243l-13 -137h-103l19 126l18 152l-84 -17zM382 94l7 63l194 228h94l-29 -221h54l5 -9l-13 -69l-54 2l-5 -81l-7 -7l-81 -4l-4 5l13 88h-104l-65 -3zM478 164h88l14 112h-6z" />
<glyph unicode="&#xbd;" horiz-adv-x="768" d="M29 -45l558 730l49 -32l6 -18l-558 -727l-51 33zM46 525l10 78l181 46l12 -10l-34 -243l-13 -137h-103l19 126l18 152l-84 -17zM413 2l7 60l108 103q46 45 65 68.5t19 43.5q0 13 -10 21.5t-27 8.5q-49 0 -101 -46h-11l-9 76q81 52 151 52q49 0 81.5 -23.5t32.5 -62.5 q0 -30 -23 -65t-79 -93l-62 -65l2 -3h96l68 5l4 -7l-20 -79l-93 4h-167l-27 -1z" />
<glyph unicode="&#xbe;" horiz-adv-x="782" d="M36 261l3 71l7 6q42 -11 75 -11q39 0 61.5 14t22.5 37q0 35 -50 37h-50l-5 6l9 67l32 1q27 1 47.5 15.5t20.5 36.5q0 30 -41 30q-31 0 -82 -27h-11l-8 67q65 38 127 38q52 0 86.5 -24t34.5 -62q0 -63 -74 -97l-1 -4q64 -18 64 -79q0 -58 -53.5 -94t-139.5 -36 q-40 0 -75 8zM67 -45l558 730l49 -32l6 -18l-558 -727l-51 33zM421 94l7 63l194 228h94l-29 -221h54l5 -9l-13 -69l-54 2l-5 -81l-7 -7l-81 -4l-4 5l13 88h-104l-65 -3zM517 164h88l14 112h-6z" />
<glyph unicode="&#xbf;" horiz-adv-x="340" d="M-41 -51q0 44 28.5 83t80.5 67l78 44l2 5l4 85l93 12l8 -9l-5 -124l-7 -10l-96 -48q-66 -31 -66 -84q0 -72 171 -83l8 -12l-32 -68l-13 -7q-123 7 -188.5 45t-65.5 104zM142 402q0 34 19 53.5t51 19.5t49 -17.5t17 -49.5q0 -33 -19 -52.5t-52 -19.5q-31 0 -48 17.5 t-17 48.5z" />
<glyph unicode="&#xc0;" horiz-adv-x="583" d="M-19 0l291 643h157l111 -643h-133l-6 83l-9 63l-122 2l-107 -2l-24 -56l-28 -90h-130zM209 249l82 -2l86 1l-40 271h-9zM238 809l33 77l12 3q90 -54 207 -112l-21 -55l-13 -4q-146 52 -214 79z" />
<glyph unicode="&#xc1;" horiz-adv-x="583" d="M-19 0l291 643h157l111 -643h-133l-6 83l-9 63l-122 2l-107 -2l-24 -56l-28 -90h-130zM209 249l82 -2l86 1l-40 271h-9zM245 775q108 54 207 112l12 -3l33 -77l-4 -12q-89 -35 -214 -78l-13 4z" />
<glyph unicode="&#xc2;" horiz-adv-x="583" d="M-19 0l291 643h157l111 -643h-133l-6 83l-9 63l-122 2l-107 -2l-24 -56l-28 -90h-130zM209 249l82 -2l86 1l-40 271h-9zM218 779q81 52 140 103h28q50 -49 124 -103l-30 -52h-13q-41 25 -99 64q-17 -10 -37 -20.5t-44.5 -23.5t-37.5 -20h-13z" />
<glyph unicode="&#xc3;" horiz-adv-x="583" d="M-19 0l291 643h157l111 -643h-133l-6 83l-9 63l-122 2l-107 -2l-24 -56l-28 -90h-130zM189 759v11l70 88l12 4q23 -3 82.5 -19t72.5 -16q6 0 11.5 2.5t12.5 8.5t11 10t13.5 14.5t13.5 15.5h11l39 -38v-11l-70 -88l-12 -5q-23 3 -82.5 19.5t-72.5 16.5q-6 0 -11.5 -2.5 t-12 -8.5t-11 -10.5t-13.5 -15t-13 -15.5h-12zM209 249l82 -2l86 1l-40 271h-9z" />
<glyph unicode="&#xc4;" horiz-adv-x="583" d="M-19 0l291 643h157l111 -643h-133l-6 83l-9 63l-122 2l-107 -2l-24 -56l-28 -90h-130zM209 249l82 -2l86 1l-40 271h-9zM214 794q0 30 17.5 47.5t47.5 17.5q27 0 42.5 -16t15.5 -44q0 -31 -17 -48.5t-46 -17.5q-60 0 -60 61zM389 793q0 30 17 47.5t47 17.5q28 0 43 -16 t15 -44q0 -30 -17 -48t-46 -18q-59 0 -59 61z" />
<glyph unicode="&#xc5;" horiz-adv-x="583" d="M-19 0l291 643h157l111 -643h-133l-6 83l-9 63l-122 2l-107 -2l-24 -56l-28 -90h-130zM209 249l82 -2l86 1l-40 271h-9zM270 807q0 45 25 70t72 25q45 0 69 -24t24 -67q0 -47 -26.5 -72.5t-71.5 -25.5q-43 0 -67.5 24.5t-24.5 69.5zM324 809q0 -41 41 -41t41 38 q0 40 -42 40q-40 0 -40 -37z" />
<glyph unicode="&#xc6;" horiz-adv-x="798" d="M-45 0l380 643h427l6 -10l-21 -99l-151 5h-85l-2 -183l195 49l9 -8l-1 -93l-204 -48l-1 -153h100l160 6l7 -10l-21 -99h-377l5 83l1 140l-212 -55l-45 -78l-39 -90h-131zM239 286l143 37l1 196h-8z" />
<glyph unicode="&#xc7;" horiz-adv-x="507" d="M37 259q0 185 89 288.5t250 103.5q95 0 165 -38l-37 -112l-11 -4q-57 46 -131 46q-184 0 -184 -263q0 -178 134 -178q78 0 149 44l11 -7l-24 -113q-64 -28 -124 -34l-10 -39l34 -19q41 -22 41 -59q0 -33 -25.5 -54t-67.5 -21q-44 0 -82 29l10 55l6 2q30 -30 58 -30 q25 0 25 22q0 12 -17 20l-49 28l15 66q-109 9 -167 78t-58 189z" />
<glyph unicode="&#xc8;" horiz-adv-x="497" d="M48 0l31 192l50 451h396l6 -10l-21 -99l-149 5l-114 -1l-22 -159l108 -1l102 3l7 -10l-21 -99l-110 3l-101 -1l-10 -70l-10 -99l112 -1l153 5l6 -10l-21 -99h-392zM214 809l33 77l12 3q90 -54 207 -112l-21 -55l-13 -4q-146 52 -214 79z" />
<glyph unicode="&#xc9;" horiz-adv-x="497" d="M48 0l31 192l50 451h396l6 -10l-21 -99l-149 5l-114 -1l-22 -159l108 -1l102 3l7 -10l-21 -99l-110 3l-101 -1l-10 -70l-10 -99l112 -1l153 5l6 -10l-21 -99h-392zM221 775q108 54 207 112l12 -3l33 -77l-4 -12q-89 -35 -214 -78l-13 4z" />
<glyph unicode="&#xca;" horiz-adv-x="497" d="M48 0l31 192l50 451h396l6 -10l-21 -99l-149 5l-114 -1l-22 -159l108 -1l102 3l7 -10l-21 -99l-110 3l-101 -1l-10 -70l-10 -99l112 -1l153 5l6 -10l-21 -99h-392zM195 779q81 52 140 103h28q50 -49 124 -103l-30 -52h-13q-41 25 -99 64q-17 -10 -37 -20.5t-44.5 -23.5 t-37.5 -20h-13z" />
<glyph unicode="&#xcb;" horiz-adv-x="497" d="M48 0l31 192l50 451h396l6 -10l-21 -99l-149 5l-114 -1l-22 -159l108 -1l102 3l7 -10l-21 -99l-110 3l-101 -1l-10 -70l-10 -99l112 -1l153 5l6 -10l-21 -99h-392zM191 794q0 30 17.5 47.5t47.5 17.5q27 0 42.5 -16t15.5 -44q0 -31 -17 -48.5t-46 -17.5q-60 0 -60 61z M366 793q0 30 17 47.5t47 17.5q28 0 43 -16t15 -44q0 -30 -17 -48t-46 -18q-59 0 -59 61z" />
<glyph unicode="&#xcc;" horiz-adv-x="289" d="M48 0l31 192l49 451h134l-62 -439l-20 -204h-132zM88 809l33 77l12 3q90 -54 207 -112l-21 -55l-13 -4q-146 52 -214 79z" />
<glyph unicode="&#xcd;" horiz-adv-x="289" d="M48 0l31 192l49 451h134l-62 -439l-20 -204h-132zM95 775q108 54 207 112l12 -3l33 -77l-4 -12q-89 -35 -214 -78l-13 4z" />
<glyph unicode="&#xce;" horiz-adv-x="289" d="M48 0l31 192l49 451h134l-62 -439l-20 -204h-132zM68 779q81 52 140 103h28q50 -49 124 -103l-30 -52h-13q-41 25 -99 64q-17 -10 -37 -20.5t-44.5 -23.5t-37.5 -20h-13z" />
<glyph unicode="&#xd0;" horiz-adv-x="668" d="M26 285l11 79h89l30 279l244 4q121 0 188 -65.5t67 -185.5q0 -189 -92 -296t-262 -107q-115 0 -225 7l31 192l9 84h-85zM218 103q62 -8 112 -8q89 0 137.5 69.5t48.5 210.5q0 167 -132 167q-40 0 -110 -4l-24 -174h120l5 -9l-10 -79h-128l-10 -72z" />
<glyph unicode="&#xd1;" horiz-adv-x="678" d="M49 0l31 190l50 453h141l200 -441h9l51 436l123 8l-64 -448l-19 -198h-142l-199 441h-9l-29 -220l-22 -221h-121zM235 759v11l70 88l12 4q23 -3 82.5 -19t72.5 -16q6 0 11.5 2.5t12.5 8.5t11 10t13.5 14.5t13.5 15.5h11l39 -38v-11l-70 -88l-12 -5q-23 3 -82.5 19.5 t-72.5 16.5q-6 0 -11.5 -2.5t-12 -8.5t-11 -10.5t-13.5 -15t-13 -15.5h-12z" />
<glyph unicode="&#xd2;" horiz-adv-x="631" d="M37 263q0 180 87 284.5t245 104.5q119 0 184.5 -68.5t65.5 -199.5q0 -180 -87.5 -287t-245.5 -107q-118 0 -183.5 70.5t-65.5 202.5zM174 266q0 -91 29.5 -132.5t95.5 -41.5q90 0 135.5 67t45.5 214q0 90 -29.5 131t-96.5 41q-91 0 -135.5 -66.5t-44.5 -212.5zM260 809 l33 77l12 3q90 -54 207 -112l-21 -55l-13 -4q-146 52 -214 79z" />
<glyph unicode="&#xd3;" horiz-adv-x="631" d="M37 263q0 180 87 284.5t245 104.5q119 0 184.5 -68.5t65.5 -199.5q0 -180 -87.5 -287t-245.5 -107q-118 0 -183.5 70.5t-65.5 202.5zM174 266q0 -91 29.5 -132.5t95.5 -41.5q90 0 135.5 67t45.5 214q0 90 -29.5 131t-96.5 41q-91 0 -135.5 -66.5t-44.5 -212.5zM267 775 q108 54 207 112l12 -3l33 -77l-4 -12q-89 -35 -214 -78l-13 4z" />
<glyph unicode="&#xd4;" horiz-adv-x="631" d="M37 263q0 180 87 284.5t245 104.5q119 0 184.5 -68.5t65.5 -199.5q0 -180 -87.5 -287t-245.5 -107q-118 0 -183.5 70.5t-65.5 202.5zM174 266q0 -91 29.5 -132.5t95.5 -41.5q90 0 135.5 67t45.5 214q0 90 -29.5 131t-96.5 41q-91 0 -135.5 -66.5t-44.5 -212.5zM240 779 q81 52 140 103h28q50 -49 124 -103l-30 -52h-13q-41 25 -99 64q-17 -10 -37 -20.5t-44.5 -23.5t-37.5 -20h-13z" />
<glyph unicode="&#xd5;" horiz-adv-x="631" d="M37 263q0 180 87 284.5t245 104.5q119 0 184.5 -68.5t65.5 -199.5q0 -180 -87.5 -287t-245.5 -107q-118 0 -183.5 70.5t-65.5 202.5zM174 266q0 -91 29.5 -132.5t95.5 -41.5q90 0 135.5 67t45.5 214q0 90 -29.5 131t-96.5 41q-91 0 -135.5 -66.5t-44.5 -212.5zM210 759 v11l70 88l12 4q23 -3 82.5 -19t72.5 -16q6 0 11.5 2.5t12.5 8.5t11 10t13.5 14.5t13.5 15.5h11l39 -38v-11l-70 -88l-12 -5q-23 3 -82.5 19.5t-72.5 16.5q-6 0 -11.5 -2.5t-12 -8.5t-11 -10.5t-13.5 -15t-13 -15.5h-12z" />
<glyph unicode="&#xd7;" horiz-adv-x="481" d="M50 133l2 11l130 117l-101 115l1 13l66 51l104 -117l131 117l55 -51l-1 -13l-130 -115l100 -116l-1 -12l-67 -52l-102 117l-133 -117z" />
<glyph unicode="&#xd8;" horiz-adv-x="631" d="M37 263q0 180 87 284.5t245 104.5q55 0 98 -15l59 99l67 -30l6 -14l-58 -97q78 -69 78 -211q0 -180 -87.5 -287t-245.5 -107q-50 0 -94 14l-71 -121l-69 31l-4 11l71 120q-82 71 -82 218zM174 266q0 -91 29.5 -132.5t95.5 -41.5q90 0 135.5 67t45.5 214q0 90 -29.5 131 t-96.5 41q-91 0 -135.5 -66.5t-44.5 -212.5z" />
<glyph unicode="&#xd9;" horiz-adv-x="622" d="M58 178q0 26 4 49l13 93l36 323h131l-55 -398q-2 -28 -2 -38q0 -107 108 -107q127 0 143 138l44 405h133q-6 -47 -17.5 -129t-21 -151t-17.5 -130q-13 -117 -83 -179.5t-191 -62.5q-106 0 -165.5 48.5t-59.5 138.5zM256 809l33 77l12 3q90 -54 207 -112l-21 -55l-13 -4 q-146 52 -214 79z" />
<glyph unicode="&#xda;" horiz-adv-x="622" d="M58 178q0 26 4 49l13 93l36 323h131l-55 -398q-2 -28 -2 -38q0 -107 108 -107q127 0 143 138l44 405h133q-6 -47 -17.5 -129t-21 -151t-17.5 -130q-13 -117 -83 -179.5t-191 -62.5q-106 0 -165.5 48.5t-59.5 138.5zM263 775q108 54 207 112l12 -3l33 -77l-4 -12 q-89 -35 -214 -78l-13 4z" />
<glyph unicode="&#xdb;" horiz-adv-x="622" d="M58 178q0 26 4 49l13 93l36 323h131l-55 -398q-2 -28 -2 -38q0 -107 108 -107q127 0 143 138l44 405h133q-6 -47 -17.5 -129t-21 -151t-17.5 -130q-13 -117 -83 -179.5t-191 -62.5q-106 0 -165.5 48.5t-59.5 138.5zM236 779q81 52 140 103h28q50 -49 124 -103l-30 -52 h-13q-41 25 -99 64q-17 -10 -37 -20.5t-44.5 -23.5t-37.5 -20h-13z" />
<glyph unicode="&#xdc;" horiz-adv-x="622" d="M58 178q0 26 4 49l13 93l36 323h131l-55 -398q-2 -28 -2 -38q0 -107 108 -107q127 0 143 138l44 405h133q-6 -47 -17.5 -129t-21 -151t-17.5 -130q-13 -117 -83 -179.5t-191 -62.5q-106 0 -165.5 48.5t-59.5 138.5zM232 794q0 30 17.5 47.5t47.5 17.5q27 0 42.5 -16 t15.5 -44q0 -31 -17 -48.5t-46 -17.5q-60 0 -60 61zM407 793q0 30 17 47.5t47 17.5q28 0 43 -16t15 -44q0 -30 -17 -48t-46 -18q-59 0 -59 61z" />
<glyph unicode="&#xde;" horiz-adv-x="547" d="M49 0l30 192l50 451h134l-14 -101h104q89 0 139.5 -43.5t50.5 -126.5q0 -116 -76.5 -190t-203.5 -74h-71l-10 -108h-133zM202 209l102 -4q48 12 75 50.5t27 96.5q0 45 -22.5 67.5t-73.5 25.5l-75 -4z" />
<glyph unicode="&#xdf;" horiz-adv-x="589" d="M42 389l9 66h73l6 45q12 97 73 150.5t161 53.5q54 0 93 -16.5t58.5 -46t19.5 -68.5q0 -32 -12.5 -59t-30 -46t-34.5 -36t-29.5 -36.5t-12.5 -40.5q0 -16 11 -31.5t27.5 -27.5t35.5 -27.5t35.5 -31t27.5 -39.5t11 -52q0 -67 -55.5 -111t-139.5 -44q-60 6 -119 31l27 103 l14 7q52 -63 110 -63q25 0 40.5 14.5t15.5 34.5q0 17 -15 34t-37.5 33t-44.5 34.5t-37 47t-15 62.5q0 33 11.5 60t28 45.5t33.5 35.5t28.5 37.5t11.5 43.5q0 59 -70 59q-89 0 -104 -85q-52 -377 -72 -527l-4 -108l-123 -9l43 309l24 191h-67z" />
<glyph unicode="&#xe0;" d="M22 154q0 67 24.5 130.5t80 115.5t132.5 71h6l77 -21l75 24l10 -7l-48 -355l-4 -107l-123 -9l22 158h-12q-53 -95 -118 -163h-19q-103 38 -103 163zM135 197q0 -85 24 -85q19 0 58.5 59.5t82.5 164.5l2 18v2l-65 21q-48 0 -75 -49.5t-27 -130.5zM140 652l47 70l12 1 q89 -80 181 -152l-32 -49l-12 -1q-85 49 -193 119z" />
<glyph unicode="&#xe1;" d="M22 154q0 67 24.5 130.5t80 115.5t132.5 71h6l77 -21l75 24l10 -7l-48 -355l-4 -107l-123 -9l22 158h-12q-53 -95 -118 -163h-19q-103 38 -103 163zM135 197q0 -85 24 -85q19 0 58.5 59.5t82.5 164.5l2 18v2l-65 21q-48 0 -75 -49.5t-27 -130.5zM155 571q95 74 180 152 l13 -1l47 -70l-3 -12q-108 -70 -193 -119l-12 1z" />
<glyph unicode="&#xe2;" d="M22 154q0 67 24.5 130.5t80 115.5t132.5 71h6l77 -21l75 24l10 -7l-48 -355l-4 -107l-123 -9l22 158h-12q-53 -95 -118 -163h-19q-103 38 -103 163zM121 576q38 32 155 141h28q54 -70 123 -141l-39 -49h-13q-63 56 -96 93q-39 -35 -119 -93h-13zM135 197q0 -85 24 -85 q19 0 58.5 59.5t82.5 164.5l2 18v2l-65 21q-48 0 -75 -49.5t-27 -130.5z" />
<glyph unicode="&#xe3;" d="M22 154q0 67 24.5 130.5t80 115.5t132.5 71h6l77 -21l75 24l10 -7l-48 -355l-4 -107l-123 -9l22 158h-12q-53 -95 -118 -163h-19q-103 38 -103 163zM99 581v11l70 88l12 4q23 -3 82.5 -19t72.5 -16q6 0 11.5 2.5t12.5 8.5t11 10t13.5 14.5t13.5 15.5h11l39 -38v-11 l-70 -88l-12 -5q-23 3 -82.5 19.5t-72.5 16.5q-6 0 -11.5 -2.5t-12 -8.5t-11 -10.5t-13.5 -15t-13 -15.5h-12zM135 197q0 -85 24 -85q19 0 58.5 59.5t82.5 164.5l2 18v2l-65 21q-48 0 -75 -49.5t-27 -130.5z" />
<glyph unicode="&#xe4;" d="M22 154q0 67 24.5 130.5t80 115.5t132.5 71h6l77 -21l75 24l10 -7l-48 -355l-4 -107l-123 -9l22 158h-12q-53 -95 -118 -163h-19q-103 38 -103 163zM124 616q0 30 17.5 47.5t47.5 17.5q27 0 42.5 -16t15.5 -44q0 -31 -17 -48.5t-46 -17.5q-60 0 -60 61zM135 197 q0 -85 24 -85q19 0 58.5 59.5t82.5 164.5l2 18v2l-65 21q-48 0 -75 -49.5t-27 -130.5zM299 615q0 30 17 47.5t47 17.5q28 0 43 -16t15 -44q0 -30 -17 -48t-46 -18q-59 0 -59 61z" />
<glyph unicode="&#xe5;" d="M22 154q0 67 24.5 130.5t80 115.5t132.5 71h6l77 -21l75 24l10 -7l-48 -355l-4 -107l-123 -9l22 158h-12q-53 -95 -118 -163h-19q-103 38 -103 163zM135 197q0 -85 24 -85q19 0 58.5 59.5t82.5 164.5l2 18v2l-65 21q-48 0 -75 -49.5t-27 -130.5zM180 629q0 45 25 70 t72 25q45 0 69 -24t24 -67q0 -47 -26.5 -72.5t-71.5 -25.5q-43 0 -67.5 24.5t-24.5 69.5zM234 631q0 -41 41 -41t41 38q0 40 -42 40q-40 0 -40 -37z" />
<glyph unicode="&#xe6;" horiz-adv-x="643" d="M25 153q0 107 62.5 199t176.5 119h6l127 -35q53 35 124 38l13 -1q101 -19 101 -107q0 -59 -58 -105.5t-188 -84.5q0 -41 15 -64.5t42 -23.5q31 0 60.5 21.5t49.5 58.5l16 -2l40 -52q-75 -97 -171 -123h-14q-75 9 -109.5 47t-41.5 110l-1 4q-1 5 -1 6q-62 -102 -127 -167 h-18q-104 38 -104 162zM137 197q0 -85 25 -85q18 0 57 55.5t81 152.5q8 19 17 33l-74 25q-50 0 -78 -50t-28 -131zM389 251q139 40 139 107q0 35 -39 35q-40 0 -66 -37.5t-34 -104.5z" />
<glyph unicode="&#xe7;" horiz-adv-x="353" d="M23 169q0 130 64.5 216.5t190.5 86.5l75 -23l5 -14l-34 -93l-26 -2q-33 38 -63 38q-46 0 -70.5 -48t-24.5 -137q0 -53 11 -75t36 -22q41 0 83 76l16 -1l39 -50q-53 -90 -128 -121l-12 -47l34 -19q41 -22 41 -59q0 -33 -25.5 -54t-67.5 -21q-44 0 -82 29l10 55l6 2 q30 -30 58 -30q25 0 25 22q0 12 -17 20l-49 28l16 71q-59 14 -85 54t-26 118z" />
<glyph unicode="&#xe8;" horiz-adv-x="402" d="M24 167q0 133 67 217.5t180 89.5l12 -1q102 -18 102 -107q0 -60 -58 -106t-187 -85q3 -46 17 -66t41 -20q61 0 107 80l16 -2l41 -53q-75 -97 -171 -123h-14q-153 16 -153 176zM124 652l47 70l12 1q89 -80 181 -152l-32 -49l-12 -1q-85 49 -193 119zM142 253 q134 39 134 105q0 34 -37 34q-39 0 -64.5 -36.5t-32.5 -102.5z" />
<glyph unicode="&#xe9;" horiz-adv-x="402" d="M24 167q0 133 67 217.5t180 89.5l12 -1q102 -18 102 -107q0 -60 -58 -106t-187 -85q3 -46 17 -66t41 -20q61 0 107 80l16 -2l41 -53q-75 -97 -171 -123h-14q-153 16 -153 176zM138 571q95 74 180 152l13 -1l47 -70l-3 -12q-108 -70 -193 -119l-12 1zM142 253 q134 39 134 105q0 34 -37 34q-39 0 -64.5 -36.5t-32.5 -102.5z" />
<glyph unicode="&#xea;" horiz-adv-x="402" d="M24 167q0 133 67 217.5t180 89.5l12 -1q102 -18 102 -107q0 -60 -58 -106t-187 -85q3 -46 17 -66t41 -20q61 0 107 80l16 -2l41 -53q-75 -97 -171 -123h-14q-153 16 -153 176zM104 576q38 32 155 141h28q54 -70 123 -141l-39 -49h-13q-63 56 -96 93q-39 -35 -119 -93h-13 zM142 253q134 39 134 105q0 34 -37 34q-39 0 -64.5 -36.5t-32.5 -102.5z" />
<glyph unicode="&#xeb;" horiz-adv-x="402" d="M24 167q0 133 67 217.5t180 89.5l12 -1q102 -18 102 -107q0 -60 -58 -106t-187 -85q3 -46 17 -66t41 -20q61 0 107 80l16 -2l41 -53q-75 -97 -171 -123h-14q-153 16 -153 176zM107 616q0 30 17.5 47.5t47.5 17.5q27 0 42.5 -16t15.5 -44q0 -31 -17 -48.5t-46 -17.5 q-60 0 -60 61zM142 253q134 39 134 105q0 34 -37 34q-39 0 -64.5 -36.5t-32.5 -102.5zM282 615q0 30 17 47.5t47 17.5q28 0 43 -16t15 -44q0 -30 -17 -48t-46 -18q-59 0 -59 61z" />
<glyph unicode="&#xec;" horiz-adv-x="236" d="M30 -4l50 360l4 104l121 9l-48 -357l-4 -107zM30 651l47 70l12 1q89 -80 181 -152l-32 -49l-12 -1q-85 49 -193 119z" />
<glyph unicode="&#xed;" horiz-adv-x="236" d="M30 -4l50 360l4 104l121 9l-48 -357l-4 -107zM45 570q95 74 180 152l13 -1l47 -70l-3 -12q-108 -70 -193 -119l-12 1z" />
<glyph unicode="&#xee;" horiz-adv-x="236" d="M11 575q38 32 155 141h28q54 -70 123 -141l-39 -49h-13q-63 56 -96 93q-39 -35 -119 -93h-13zM30 -4l50 360l4 104l121 9l-48 -357l-4 -107z" />
<glyph unicode="&#xf0;" d="M39 163q0 131 64 213t173 88q-23 43 -59 76l-125 -66l-9 3l-20 52l100 54q-37 24 -95 52l2 14l86 59h7q60 -30 105 -69l117 63l10 -4l20 -52l-99 -53q111 -120 109 -285q0 -140 -65.5 -225t-179.5 -93l-12 1q-129 28 -129 172zM151 162q0 -45 11 -64t38 -19q58 0 84.5 56 t27.5 166q0 29 -3 56q-16 24 -47 24q-111 0 -111 -219z" />
<glyph unicode="&#xf1;" horiz-adv-x="493" d="M30 -4l51 360l4 104l121 9l-25 -181h12q75 120 145 180l12 1q46 -10 75.5 -35.5t28.5 -61.5q-5 -39 -12 -83t-15.5 -94t-13.5 -82l-5 -108l-125 -9l49 308l1 11q0 24 -17 24q-24 0 -64.5 -52.5t-91.5 -152.5l-3 -22l-4 -107zM121 580v11l70 88l12 4q19 -2 53 -11 t62.5 -16.5t39.5 -7.5q6 0 11.5 2.5t12.5 8.5t11 10t13.5 14.5t13.5 15.5h11l39 -38v-11l-70 -88l-12 -5q-11 1 -26 4.5t-29 7.5t-30 8.5t-28.5 7.5t-24 5.5t-17.5 2.5t-11.5 -2.5t-12 -8.5t-11 -10.5t-13.5 -15t-13 -15.5h-12z" />
<glyph unicode="&#xf2;" horiz-adv-x="436" d="M25 165q0 135 66.5 218.5t180.5 90.5l12 -1q128 -26 128 -165q0 -141 -65.5 -225.5t-180.5 -92.5l-12 1q-129 28 -129 174zM140 651l47 70l12 1q89 -80 181 -152l-32 -49l-12 -1q-85 49 -193 119zM141 163q0 -44 10.5 -62t36.5 -18q57 0 81.5 54.5t24.5 162.5 q0 43 -10 60.5t-35 17.5q-57 0 -82.5 -54t-25.5 -161z" />
<glyph unicode="&#xf3;" horiz-adv-x="436" d="M25 165q0 135 66.5 218.5t180.5 90.5l12 -1q128 -26 128 -165q0 -141 -65.5 -225.5t-180.5 -92.5l-12 1q-129 28 -129 174zM141 163q0 -44 10.5 -62t36.5 -18q57 0 81.5 54.5t24.5 162.5q0 43 -10 60.5t-35 17.5q-57 0 -82.5 -54t-25.5 -161zM154 570q95 74 180 152 l13 -1l47 -70l-3 -12q-108 -70 -193 -119l-12 1z" />
<glyph unicode="&#xf4;" horiz-adv-x="436" d="M25 165q0 135 66.5 218.5t180.5 90.5l12 -1q128 -26 128 -165q0 -141 -65.5 -225.5t-180.5 -92.5l-12 1q-129 28 -129 174zM121 575q38 32 155 141h28q54 -70 123 -141l-39 -49h-13q-63 56 -96 93q-39 -35 -119 -93h-13zM141 163q0 -44 10.5 -62t36.5 -18q57 0 81.5 54.5 t24.5 162.5q0 43 -10 60.5t-35 17.5q-57 0 -82.5 -54t-25.5 -161z" />
<glyph unicode="&#xf5;" horiz-adv-x="436" d="M25 165q0 135 66.5 218.5t180.5 90.5l12 -1q128 -26 128 -165q0 -141 -65.5 -225.5t-180.5 -92.5l-12 1q-129 28 -129 174zM98 580v11l70 88l12 4q23 -3 82.5 -19t72.5 -16q6 0 11.5 2.5t12.5 8.5t11 10t13.5 14.5t13.5 15.5h11l39 -38v-11l-70 -88l-12 -5 q-23 3 -82.5 19.5t-72.5 16.5q-6 0 -11.5 -2.5t-12 -8.5t-11 -10.5t-13.5 -15t-13 -15.5h-12zM141 163q0 -44 10.5 -62t36.5 -18q57 0 81.5 54.5t24.5 162.5q0 43 -10 60.5t-35 17.5q-57 0 -82.5 -54t-25.5 -161z" />
<glyph unicode="&#xf7;" horiz-adv-x="477" d="M27 226l6 79h417l9 -9l-7 -79h-417zM161 91q0 29 17 46.5t46 17.5q27 0 42 -16t15 -43q0 -30 -16.5 -47.5t-45.5 -17.5q-28 0 -43 15.5t-15 44.5zM202 430q0 29 17 46.5t46 17.5q27 0 42.5 -15.5t15.5 -43.5q0 -29 -17 -46.5t-46 -17.5q-58 0 -58 59z" />
<glyph unicode="&#xf8;" horiz-adv-x="436" d="M10 -77l61 109q-46 44 -46 133q0 135 66.5 218.5t180.5 90.5l12 -1q19 -5 22 -6l57 103l60 -34l7 -12l-55 -99q37 -43 37 -117q0 -141 -65.5 -225.5t-180.5 -92.5l-12 1l-12 3l-64 -117l-65 34zM141 163q0 -44 10.5 -62t36.5 -18q57 0 81.5 54.5t24.5 162.5 q0 43 -10 60.5t-35 17.5q-57 0 -82.5 -54t-25.5 -161z" />
<glyph unicode="&#xf9;" horiz-adv-x="490" d="M38 92q6 52 21 144t19 116l6 109l123 8l-47 -302l-2 -18q0 -24 18 -24q50 0 150 198l5 33l4 104l122 9l-49 -357l-4 -107l-123 -9l25 177h-10q-76 -120 -142 -176h-12q-48 8 -76.5 33t-27.5 62zM160 651l47 70l12 1q89 -80 181 -152l-32 -49l-12 -1q-85 49 -193 119z" />
<glyph unicode="&#xfa;" horiz-adv-x="490" d="M38 92q6 52 21 144t19 116l6 109l123 8l-47 -302l-2 -18q0 -24 18 -24q50 0 150 198l5 33l4 104l122 9l-49 -357l-4 -107l-123 -9l25 177h-10q-76 -120 -142 -176h-12q-48 8 -76.5 33t-27.5 62zM174 570q95 74 180 152l13 -1l47 -70l-3 -12q-108 -70 -193 -119l-12 1z " />
<glyph unicode="&#xfb;" horiz-adv-x="490" d="M38 92q6 52 21 144t19 116l6 109l123 8l-47 -302l-2 -18q0 -24 18 -24q50 0 150 198l5 33l4 104l122 9l-49 -357l-4 -107l-123 -9l25 177h-10q-76 -120 -142 -176h-12q-48 8 -76.5 33t-27.5 62zM140 575q38 32 155 141h28q54 -70 123 -141l-39 -49h-13q-63 56 -96 93 q-39 -35 -119 -93h-13z" />
<glyph unicode="&#xfc;" horiz-adv-x="490" d="M38 92q6 52 21 144t19 116l6 109l123 8l-47 -302l-2 -18q0 -24 18 -24q50 0 150 198l5 33l4 104l122 9l-49 -357l-4 -107l-123 -9l25 177h-10q-76 -120 -142 -176h-12q-48 8 -76.5 33t-27.5 62zM144 615q0 30 17.5 47.5t47.5 17.5q27 0 42.5 -16t15.5 -44 q0 -31 -17 -48.5t-46 -17.5q-60 0 -60 61zM319 614q0 30 17 47.5t47 17.5q28 0 43 -16t15 -44q0 -30 -17 -48t-46 -18q-59 0 -59 61z" />
<glyph unicode="&#xfe;" horiz-adv-x="466" d="M8 -194l108 784l4 105l121 8l-54 -398h14q56 101 120 166h18q103 -38 103 -163q0 -68 -25 -132t-80.5 -115.5t-130.5 -69.5h-6l-55 11l-10 -77l-4 -110zM159 102l69 -18q47 0 74.5 51t27.5 130q0 87 -25 87q-19 0 -59 -59.5t-83 -163.5z" />
<glyph unicode="&#xff;" horiz-adv-x="442" d="M-81 -78l11 11q45 -14 81 -14q75 0 133 62l-100 480l122 8l9 -85l38 -250h16l61 130q31 69 31 110q0 35 -19 64l5 14l113 19q19 -38 19 -80q0 -64 -48 -154l-102 -189q-72 -134 -135 -189t-138 -55q-48 0 -91 17zM101 615q0 30 17.5 47.5t47.5 17.5q27 0 42.5 -16 t15.5 -44q0 -31 -17 -48.5t-46 -17.5q-60 0 -60 61zM276 614q0 30 17 47.5t47 17.5q28 0 43 -16t15 -44q0 -30 -17 -48t-46 -18q-59 0 -59 61z" />
<glyph unicode="&#x152;" horiz-adv-x="847" d="M36 261q0 183 97 288.5t264 105.5q36 0 93.5 -6t83.5 -6h300l7 -10l-22 -99l-146 5h-117l-20 -160l103 -1l107 3l6 -10l-22 -99l-113 3l-98 -1q-7 -61 -19 -169l107 -1l158 5l7 -10l-21 -99h-297q-31 1 -99 -5.5t-101 -6.5q-124 0 -191 71.5t-67 201.5zM174 265 q0 -89 35 -132t109 -43q56 0 80 12q22 10 26 43l38 347q3 36 -7 42q-19 14 -83 14q-100 0 -149 -68t-49 -215z" />
<glyph unicode="&#x153;" horiz-adv-x="671" d="M29 165q0 135 67 218.5t182 90.5l12 -1q72 -14 99 -70q62 67 159 71l12 -1q102 -18 102 -107q0 -59 -58.5 -105.5t-187.5 -85.5q3 -46 17 -66t41 -20q30 0 59 21.5t49 58.5l16 -2l40 -53q-73 -97 -170 -123h-14q-88 10 -122 77q-61 -72 -160 -78l-12 1q-131 28 -131 174z M144 163q0 -44 11.5 -62.5t37.5 -18.5q58 0 83.5 55t25.5 164q0 43 -11 61t-36 18q-111 0 -111 -217zM418 253q135 37 135 105q0 34 -38 34q-39 0 -64.5 -36.5t-32.5 -102.5z" />
<glyph unicode="&#x178;" horiz-adv-x="543" d="M56 643h137l8 -43l76 -248h10l148 244l24 47h137l-273 -425l-6 -38l-17 -180h-132l30 180l4 41zM193 794q0 30 17.5 47.5t47.5 17.5q27 0 42.5 -16t15.5 -44q0 -31 -17 -48.5t-46 -17.5q-60 0 -60 61zM368 793q0 30 17 47.5t47 17.5q28 0 43 -16t15 -44q0 -30 -17 -48 t-46 -18q-59 0 -59 61z" />
<glyph unicode="&#x2c6;" horiz-adv-x="390" d="M84 575q38 32 155 141h28q54 -70 123 -141l-39 -49h-13q-63 56 -96 93q-39 -35 -119 -93h-13z" />
<glyph unicode="&#x2dc;" horiz-adv-x="390" d="M67 580v11l70 88l12 4q23 -3 82.5 -19t72.5 -16q6 0 11.5 2.5t12.5 8.5t11 10t13.5 14.5t13.5 15.5h11l39 -38v-11l-70 -88l-12 -5q-23 3 -82.5 19.5t-72.5 16.5q-6 0 -11.5 -2.5t-12 -8.5t-11 -10.5t-13.5 -15t-13 -15.5h-12z" />
<glyph unicode="&#x2000;" horiz-adv-x="451" />
<glyph unicode="&#x2001;" horiz-adv-x="902" />
<glyph unicode="&#x2002;" horiz-adv-x="451" />
<glyph unicode="&#x2003;" horiz-adv-x="902" />
<glyph unicode="&#x2004;" horiz-adv-x="300" />
<glyph unicode="&#x2005;" horiz-adv-x="225" />
<glyph unicode="&#x2006;" horiz-adv-x="150" />
<glyph unicode="&#x2007;" horiz-adv-x="150" />
<glyph unicode="&#x2008;" horiz-adv-x="112" />
<glyph unicode="&#x2009;" horiz-adv-x="180" />
<glyph unicode="&#x200a;" horiz-adv-x="50" />
<glyph unicode="&#x2010;" horiz-adv-x="304" d="M24 201l10 81l242 35l9 -9l-9 -81l-243 -36z" />
<glyph unicode="&#x2011;" horiz-adv-x="304" d="M24 201l10 81l242 35l9 -9l-9 -81l-243 -36z" />
<glyph unicode="&#x2012;" horiz-adv-x="304" d="M24 201l10 81l242 35l9 -9l-9 -81l-243 -36z" />
<glyph unicode="&#x2013;" horiz-adv-x="466" d="M-16 223l16 79h482l7 -10l-16 -79h-482z" />
<glyph unicode="&#x2014;" horiz-adv-x="891" d="M-18 223l16 79h910l8 -10l-16 -79h-911z" />
<glyph unicode="&#x2018;" horiz-adv-x="204" d="M64 487q0 76 91 163l45 -30l2 -9q-41 -45 -41 -86q0 -47 40 -70v-10q-41 -32 -81 -51q-56 30 -56 93z" />
<glyph unicode="&#x2019;" horiz-adv-x="204" d="M65 433q40 46 40 86q0 48 -40 69v11q40 32 81 50q57 -29 57 -92q0 -75 -91 -163l-46 30z" />
<glyph unicode="&#x201a;" horiz-adv-x="228" d="M-2 -79q55 46 55 97q0 33 -32 59l1 12q48 28 93 40q45 -35 45 -84q0 -87 -120 -171l-42 37v10z" />
<glyph unicode="&#x201c;" horiz-adv-x="362" d="M60 487q0 75 91 163l46 -30l1 -9q-40 -46 -40 -86q0 -48 40 -69v-11q-40 -32 -81 -50q-57 29 -57 92zM223 487q0 75 91 163l46 -30l1 -9q-40 -46 -40 -86q0 -48 40 -69v-11q-40 -32 -81 -50q-57 29 -57 92z" />
<glyph unicode="&#x201d;" horiz-adv-x="361" d="M63 433q41 45 41 86q0 47 -41 69v11q40 32 81 50q57 -29 57 -92q0 -75 -91 -163l-45 30zM220 433q41 45 41 86q0 47 -40 69v11q42 33 81 50q56 -29 56 -92q0 -76 -91 -163l-45 30z" />
<glyph unicode="&#x201e;" horiz-adv-x="392" d="M-2 -79q55 46 55 97q0 33 -32 59l1 12q48 28 93 40q45 -35 45 -84q0 -87 -120 -171l-42 37v10zM160 -79q56 45 56 97q0 33 -32 59v12q47 28 94 40q44 -35 44 -84q0 -87 -119 -171l-42 37z" />
<glyph unicode="&#x2022;" horiz-adv-x="284" d="M59 240q0 41 23.5 65t64.5 24q37 0 58.5 -22t21.5 -60q0 -41 -23.5 -65t-63.5 -24q-39 0 -60 21.5t-21 60.5z" />
<glyph unicode="&#x2026;" horiz-adv-x="629" d="M1 60q0 33 19.5 52.5t51.5 19.5q31 0 48 -17.5t17 -48.5q0 -34 -19 -53.5t-51 -19.5q-31 0 -48.5 17.5t-17.5 49.5zM201 60q0 33 19 52.5t52 19.5q31 0 48 -17.5t17 -48.5q0 -34 -19 -53.5t-51 -19.5q-31 0 -48.5 17.5t-17.5 49.5zM400 60q0 33 19 52.5t52 19.5 q31 0 48 -17.5t17 -48.5q0 -34 -19 -53.5t-51 -19.5q-31 0 -48.5 17.5t-17.5 49.5z" />
<glyph unicode="&#x202f;" horiz-adv-x="180" />
<glyph unicode="&#x2039;" horiz-adv-x="243" d="M29 220l2 21l158 173l57 -32l1 -13l-122 -141l88 -141l-5 -13l-64 -33z" />
<glyph unicode="&#x203a;" horiz-adv-x="246" d="M8 89l122 141l-88 141l4 12l65 33l115 -179l-3 -21l-157 -173l-57 33z" />
<glyph unicode="&#x205f;" horiz-adv-x="225" />
<glyph unicode="&#x20ac;" horiz-adv-x="475" d="M4 165l11 58h339l4 -6l-11 -58h-149q18 -76 104 -76q63 0 118 30l9 -7l-19 -86q-60 -27 -123 -27q-192 0 -209 166h-70zM17 278l11 58h74q64 173 253 173q73 0 129 -29l-30 -87l-9 -4q-43 30 -103 30q-90 0 -126 -83h151l6 -6l-12 -58h-340z" />
<glyph unicode="&#x2122;" horiz-adv-x="589" d="M69 595l10 47h187l3 -5l-10 -48l-49 3h-12l-15 -111l-7 -76h-65l12 70l13 117h-12l-51 -3zM273 405l55 237h77l4 -35l20 -94h4l47 93l15 36h75l-8 -237h-58l5 71l2 70h-5l-64 -118h-50l-30 118h-4l-15 -63l-14 -78h-56z" />
<glyph unicode="&#x25fc;" horiz-adv-x="470" d="M0 0v470h470v-470h-470z" />
</font>
</defs>
</svg>
