<?xml version="1.0" standalone="no"?>
<!DOCTYPE svg PUBLIC "-//W3C//DTD SVG 1.1//EN" "http://www.w3.org/Graphics/SVG/1.1/DTD/svg11.dtd" >
<svg xmlns="http://www.w3.org/2000/svg">
<metadata></metadata>
<defs>
<font id="bodonixtregular" horiz-adv-x="500" >
<font-face units-per-em="1000" ascent="800" descent="-200" />
<missing-glyph horiz-adv-x="250" />
<glyph horiz-adv-x="1000" />
<glyph horiz-adv-x="1000" />
<glyph horiz-adv-x="333" />
<glyph horiz-adv-x="333" d="M314 648h-36q-14 -54 -41 -73q-28 -19 -70 -19t-70 19q-27 19 -41 73h-36q4 -85 46 -121t101 -36t101 36t46 121z" />
<glyph horiz-adv-x="333" d="M219 535q0 21 -16 37q-15 15 -37 15t-38 -16q-15 -15 -15 -36t16 -37q15 -15 37 -15t38 16q15 15 15 36z" />
<glyph horiz-adv-x="333" d="M269 547q0 42 -30 72t-72 30t-72 -30t-30 -72t30 -72t72 -30t72 30t30 72zM228 547q0 -26 -18 -44q-17 -17 -43 -17q-25 0 -43 18q-18 16 -18 43q0 25 18 43t43 18q26 0 44 -18q17 -19 17 -43z" />
<glyph unicode="&#xa;" horiz-adv-x="333" d="M359 631q0 12 -12 24q-12 13 -26 13t-27 -10q-20 -14 -65 -62q-23 -23 -47.5 -49t-51.5 -54h52l163 112q14 14 14 26zM205 631q0 11 -11 24q-12 13 -26 13t-28 -10q-10 -7 -25.5 -22.5t-38.5 -39.5q-23 -23 -47.5 -49t-51.5 -54h52l162 112q14 14 14 26z" />
<glyph horiz-adv-x="333" d="M254 -110l-13 32q-16 -9 -29 -13q-11 -3 -24 -3q-20 0 -34 10q-15 9 -15 29q0 16 10 32q11 17 28 27h-25q-29 -12 -50 -33t-21 -49q0 -27 26 -42q25 -15 63 -15q21 0 47 9q25 7 37 16z" />
<glyph horiz-adv-x="333" d="M325 648h-43l-115 -104l-116 104h-43l125 -169h68z" />
<glyph unicode="&#xd;" horiz-adv-x="278" d="M266 0v25h-73v504l-180 -5v-25h72v-474h-75v-25h256z" />
<glyph horiz-adv-x="167" d="M333 645h-52l-449 -645h52z" />
<glyph horiz-adv-x="556" d="M538 0v25h-70v504l-180 -5h-93v22q0 13 -1 24.5t-0.5 22t3.5 20t11 17.5t13.5 14.5t11 10.5t11.5 6t16 2q6 0 20.5 -0.5t30.5 -1.5t29.5 -3t17.5 -4q15 -8 15 -16q-1 -8 -12 -22q-11 -13 -11 -31q1 -46 53 -46q51 0 53 50q1 37 -36 67q-9 7 -28 12t-41.5 8.5t-44 5 t-34.5 1.5q-97 0 -161 -73q-12 -13 -16.5 -22.5t-5.5 -18.5t-0.5 -19.5t-0.5 -25.5h-71v-25h70v-33v-441h-70v-25h236v25h-58v474h93h20h52v-474h-58v-25h236z" />
<glyph horiz-adv-x="556" d="M540 0v25h-73v658q-35 -14 -54 -18q-8 -2 -28 -4q-8 6 -22 10t-30 6.5t-33 4t-30 1.5q-46 0 -79.5 -16.5t-68.5 -56.5q-11 -12 -16.5 -20.5t-8.5 -17t-4.5 -19.5t-3.5 -29h-73v-25h71v-23v-451h-71v-25h240v25h-61v474h164v-474h-56v-25h237zM359 524h-164v22v45t15 38 t26 25.5t33 8.5q6 0 15.5 -0.5t19.5 -1.5t19 -2.5t12 -3.5q13 -7 13 -24q0 -13 -12 -26q-11 -13 -11 -30q0 -29 34 -36v-15z" />
<glyph horiz-adv-x="611" d="M588 225h-31q-3 -95 -46 -147q-42 -53 -133 -53h-129v355l137 114v50l-137 -114v213h104v25h-336v-25h105v-318l-98 -81v-50l98 81v-250h-99v-25h554z" />
<glyph horiz-adv-x="278" d="M268 435v41l-74 -59v266q-29 -5 -51.5 -8t-38.5 -5q-16 -1 -38.5 -1.5t-51.5 -0.5v-25h72v-312l-75 -60v-41l75 60v-265h-75v-25h256v25h-73v351z" />
<glyph horiz-adv-x="611" d="M463 920h-43l-115 -104l-116 104h-43l125 -169h68zM572 215h-27q-29 -137 -78 -164q-50 -26 -121 -26h-162l386 614v29h-482l-16 -180h31q23 104 73 130q49 25 121 25h131l-389 -616v-27h525z" />
<glyph horiz-adv-x="444" d="M390 494v30h-102l91 124h-43l-115 -104l-116 104h-43l92 -124h-101v-155h26q10 66 40 99q18 21 55 29l13 -18h68l3 4l-228 -455v-28h359v170h-28q-6 -77 -31 -111t-92 -34h-82z" />
<glyph unicode=" "  horiz-adv-x="250" />
<glyph unicode="&#x09;" horiz-adv-x="250" />
<glyph unicode="&#xa0;" horiz-adv-x="250" />
<glyph unicode="!" horiz-adv-x="333" d="M232 620q0 30 -20 47q-19 16 -46 16q-28 0 -47 -16t-19 -47q0 -18 25 -136q25 -116 28 -270h26q2 76 8.5 143.5t19.5 127.5q25 116 25 135zM229 49q0 26 -19 45q-18 18 -44 18t-45 -19q-18 -18 -18 -44t19 -45q18 -18 44 -18t45 19q18 18 18 44z" />
<glyph unicode="&#x22;" horiz-adv-x="340" d="M278 646q0 15 -11 26t-26 11t-26 -11t-11 -26l2 -75l14 -180q2 -23 21 -23t21 23l14 179zM136 646q0 15 -11 26t-26 11t-26 -11t-11 -26l2 -75l14 -180q2 -23 21 -23t21 23l14 179z" />
<glyph unicode="#" d="M497 405v55h-95l28 185h-58l-28 -185h-136l28 185h-58l-28 -185h-118v-55h109l-20 -134h-116v-55h107l-33 -216h58l33 216h136l-33 -216h58l33 216h106v55h-97l20 134h104zM335 405l-20 -134h-136l20 134h136z" />
<glyph unicode="$" d="M452 192q0 82 -47 124q-16 14 -41.5 28t-62.5 28v239q31 -6 48 -15q36 -19 36 -40q0 -15 -21 -24t-21 -36q0 -45 44 -45h4q48 0 48 55q0 53 -49 89q-28 21 -89 32v81h-24v-78q-5 1 -14 1h-19q-23 0 -36 -3v80h-24v-85q-42 -14 -69 -39q-51 -47 -51 -121t41 -116 q25 -26 79 -49v-274q-37 8 -53 18q-34 22 -34 38q0 12 25 24q24 12 24 48q0 43 -43 43h-9q-52 -4 -52 -63q0 -53 55 -92q36 -25 87 -35v-100h24v97q5 -1 12 -1h15q25 0 42 3v-99h24v103q57 15 91 45q60 52 60 139zM277 380q-10 4 -26 8q-11 3 -21.5 5.5t-21.5 6.5v211 q15 4 40 4h17t12 -1v-234zM184 409q-16 5 -32 12q-50 21 -50 79q0 47 43 81q15 13 39 22v-194zM413 146q0 -54 -51 -90q-12 -9 -27.5 -16t-33.5 -12v234q20 -7 35.5 -14t28.5 -15q48 -29 48 -87zM277 23q-17 -3 -40 -3h-17t-12 1v268q11 -5 31 -9q12 -3 21.5 -5.5t16.5 -4.5 v-247z" />
<glyph unicode="%" horiz-adv-x="944" d="M878 255q0 47 -35 82q-34 34 -81 34q-70 0 -143 -85t-73 -173q0 -52 32 -87q31 -34 81 -34q88 0 154 78q65 79 65 185zM853 243q0 -79 -56 -152q-56 -71 -112 -71q-27 0 -40 15q-14 16 -14 42q0 81 57 168q56 86 95 86q34 0 52 -23t18 -65zM730 663h-45q-37 -51 -81 -78 t-96 -27h-13q-84 0 -116 28q-8 10 -15 18q-34 34 -81 34q-70 0 -143 -85t-73 -172q0 -52 32 -87q31 -34 81 -34q88 0 154 78q65 79 65 184q0 7 -0.5 12.5t-1.5 10.5q11 -4 35 -9q28 -5 52 -5q68 0 130 34l-386 -595h51zM374 510q0 -77 -56 -150q-56 -72 -112 -72 q-25 0 -40 15q-14 16 -14 42q0 81 56 167q56 85 93 86q22 -22 66 -43q7 -15 7 -45z" />
<glyph unicode="&#x26;" horiz-adv-x="833" d="M772 0v25h-100q-21 32 -42 63t-43 62q16 20 29 40t24 42q32 64 38 156h94v25h-223v-25h99q-4 -78 -32 -138q-17 -38 -45 -77q-8 12 -17 24t-17 24q-32 48 -65 94t-66 93q50 19 91 45q71 44 71 108q0 55 -51 87q-51 30 -119 30q-76 0 -128 -41q-51 -41 -51 -108 q0 -38 20 -81q9 -20 18.5 -36.5t18.5 -30.5q-101 -36 -155 -84q-59 -53 -59 -139q0 -73 56 -126q57 -52 165 -52q73 0 144 34q40 19 72 45l41 -59h232zM476 553q0 -70 -36 -97q-8 -6 -20.5 -13t-29.5 -15q-10 13 -22 29t-26 36q-33 48 -33 88q0 36 25 55q23 19 57 19 q43 0 64 -24q21 -23 21 -78zM483 83l-39 -27q-53 -33 -100 -33q-70 0 -118 80q-48 79 -48 130q0 50 27 79q26 26 84 50z" />
<glyph unicode="'" horiz-adv-x="200" d="M136 646q0 15 -11 26t-26 11t-26 -11t-11 -26l2 -75l14 -180q2 -23 21 -23t21 23l14 179z" />
<glyph unicode="(" horiz-adv-x="333" d="M286 -234v28q-92 64 -120 168q-27 103 -27 262q0 162 28 264q27 102 119 167v28q-84 -47 -161 -176q-76 -127 -76 -283t76 -283q77 -128 161 -175z" />
<glyph unicode=")" horiz-adv-x="333" d="M286 224q0 157 -76 284q-77 128 -161 175v-28q91 -65 120 -168q27 -104 27 -263q0 -161 -28 -263q-27 -102 -119 -167v-28q84 47 161 176q76 127 76 282z" />
<glyph unicode="*" d="M435 357q0 18 -23 33q-17 9 -54 15q-36 6 -87 35q52 29 88 35q37 6 53 15q23 15 23 33q0 8 -6 19q-10 19 -28 19q-12 0 -25 -7q-8 -5 -18 -15.5t-23 -24.5q-23 -27 -74 -58q1 29 4 53t10 41q13 37 13 54q0 41 -36 41t-36 -41q0 -18 14 -54q11 -33 13 -94q-49 29 -75 59 q-25 29 -40 39q-13 7 -25 7q-19 0 -29 -19q-6 -11 -6 -19q0 -18 24 -33q16 -9 54 -15q36 -6 87 -35q-52 -29 -88 -35q-37 -6 -53 -15q-24 -15 -24 -34q0 -9 6 -19q10 -18 29 -18q12 0 25 7q8 5 18 15.5t23 24.5q23 27 74 58q-1 -29 -4 -53t-10 -41q-13 -37 -13 -54 q0 -41 36 -41t36 41q0 18 -14 54q-11 33 -13 94q49 -29 75 -59q25 -29 40 -39q13 -7 25 -7q17 0 28 18q6 10 6 20z" />
<glyph unicode="+" d="M472 197v54h-194v190h-54v-190h-195v-54h195v-193h54v193h194z" />
<glyph unicode="," horiz-adv-x="333" d="M271 4q0 55 -28 83t-69 28q-34 0 -54 -20q-19 -19 -19 -49q0 -27 16 -44q17 -17 38 -17q38 0 49 27q11 26 20 26q17 0 17 -31q0 -13 -3 -29q-9 -62 -84 -119q-7 -6 -7 -11q0 -4 5 -7q4 -3 10 -3q2 0 10 4q21 15 39 33.5t32 41.5q28 46 28 87z" />
<glyph unicode="-" horiz-adv-x="333" d="M303 288v53h-271v-53h271z" />
<glyph unicode="." horiz-adv-x="195" d="M157 49q0 26 -19 45q-18 18 -44 18t-45 -19q-18 -18 -18 -44t19 -45q18 -18 44 -18t45 19q18 18 18 44z" />
<glyph unicode="/" horiz-adv-x="278" d="M276 683h-58l-216 -698h58z" />
<glyph unicode="0" d="M463 314q0 133 -66 232q-65 99 -150 99q-86 0 -152 -99q-65 -100 -65 -232q0 -131 65 -231q64 -99 151 -99q86 0 152 99q65 100 65 231zM341 192q0 -86 -24 -135q-23 -50 -70 -50q-49 0 -72 50q-23 51 -23 135v245q0 84 23 135q23 50 71 50t72 -50q23 -51 23 -135v-245z " />
<glyph unicode="1" d="M432 0v25h-116v620l-99 -8q-45 -3 -134 -3v-25h86q25 0 32 -8q7 -9 7 -36v-540h-119v-25h343z" />
<glyph unicode="2" d="M433 481q0 70 -54 118q-55 46 -137 46q-81 0 -137 -47q-55 -46 -55 -115q0 -31 16 -57q17 -27 53 -28q57 -2 62 51v8q0 45 -52 49q-8 0 -28 -5l-6 -1q-13 0 -14 15q0 38 36 67q36 28 82 28q48 0 83 -42q33 -41 33 -105q0 -85 -33 -137q-17 -26 -37.5 -52t-46.5 -51 l-169 -158v-65h395l6 185h-23q0 -55 -11 -75q-10 -19 -39 -19h-260l223 197q37 33 76 78q37 43 37 115z" />
<glyph unicode="3" d="M443 165q0 73 -51 118q-50 46 -162 56q100 25 142 66q41 41 41 97q0 61 -54 102q-55 41 -136 41q-62 0 -108 -32q-46 -33 -45 -76q2 -59 52 -59h4q45 0 50 45q0 26 -21 43q-21 15 -21 23t24 22q22 12 50 12q48 0 71 -30q22 -28 22 -85q0 -70 -32 -114q-30 -40 -85 -42 l-54 -2q-17 0 -21 -13q-1 -2 -1 -4q0 -7 5 -8.5t16 -1.5h31q85 0 125 -40q39 -39 39 -124q0 -70 -34 -110q-33 -41 -92 -41q-37 0 -64 12q-27 10 -27 28q0 6 23 23q22 15 24 44q-3 52 -51 52h-6q-56 0 -59 -68q-1 -47 49 -82q48 -33 117 -33q99 0 170 53q69 51 69 128z" />
<glyph unicode="4" d="M470 95v177h-26v-74h-72v447h-72l-291 -447v-28h255v-145h-75v-25h258v25h-75v145h72v-75h26zM264 198h-220l220 338v-338z" />
<glyph unicode="5" d="M449 189q0 88 -61 140q-61 53 -156 53q-16 0 -31 -1t-29 -3q-30 -3 -55 -12l8 185h134q77 0 112 24q34 24 34 98h-22q0 -14 -9 -21q-11 -7 -25 -7h-248l-14 -308q0 -9 4 -9q6 0 17 3q20 12 40 17q11 2 22.5 3.5t24.5 1.5q69 0 103 -43q35 -44 35 -123q0 -89 -32 -136 q-31 -46 -101 -46q-34 0 -61 11q-26 9 -26 27q0 9 23 23q25 13 25 38q-1 61 -51 61h-4q-54 0 -57 -62q-2 -29 10 -50.5t34 -37.5q43 -31 117 -31q110 0 175 54q64 54 64 151z" />
<glyph unicode="6" d="M470 192q0 86 -54 148q-52 61 -131 61q-44 0 -82 -20q-22 -12 -41 -29q19 103 58 158q65 90 208 118v22q-151 -6 -272 -119q-119 -111 -119 -271q0 -129 66 -202q65 -74 151 -74q87 0 152 62q64 60 64 146zM350 218q0 -108 -17 -162q-17 -53 -73 -53q-68 0 -86 51 t-18 200q0 19 0.5 33.5t1.5 24.5q24 32 46 45q31 19 65 19q43 0 63 -41q18 -41 18 -117z" />
<glyph unicode="7" d="M458 632v13h-356l-56 -188h27q20 74 29 83q11 11 35 11h251l-184 -420q-5 -11 -8 -21l-6 -20q-2 -10 -3.5 -17t-1.5 -12q0 -75 67 -75q64 0 64 75q0 19 -13 55q-13 35 -13 80q1 76 57 198q28 61 55.5 120t55.5 118z" />
<glyph unicode="8" d="M465 148q0 74 -46 120t-136 64q83 23 124 62q40 37 40 93q0 71 -55 114q-56 44 -143 44q-90 0 -144 -42q-54 -41 -54 -115q0 -50 30 -87q28 -37 131 -69q-77 -18 -129 -62q-50 -44 -50 -112q0 -81 60 -127q59 -47 156 -47q90 0 153 48t63 116zM331 484q0 -68 -19 -102 q-20 -33 -65 -33q-48 0 -64 34q-16 32 -16 108q0 68 18 101t64 33q50 0 67 -33q15 -32 15 -108zM347 163q0 -79 -21 -118q-21 -38 -76 -38q-56 0 -78 37q-22 35 -22 113t24 120q24 41 76 41q53 0 76 -39q21 -38 21 -116z" />
<glyph unicode="9" d="M465 370q0 128 -66 202q-64 73 -151 73t-152 -62q-64 -60 -64 -146q0 -87 54 -148t131 -61q44 0 82 20q24 13 40 29q-18 -103 -57 -157q-63 -88 -208 -117v-22q155 8 272 119q119 111 119 270zM346 375q0 -19 -0.5 -33.5t-1.5 -24.5q-24 -32 -46 -45q-31 -19 -64 -19 q-44 0 -64 41q-18 40 -18 117q0 108 17 162q17 53 73 53q69 0 87 -51q17 -53 17 -200z" />
<glyph unicode=":" horiz-adv-x="333" d="M229 331q0 26 -19 45q-18 18 -44 18t-45 -19q-18 -18 -18 -44t19 -45q18 -18 44 -18t45 19q18 18 18 44zM229 49q0 26 -19 45q-18 18 -44 18t-45 -19q-18 -18 -18 -44t19 -45q18 -18 44 -18t45 19q18 18 18 44z" />
<glyph unicode=";" horiz-adv-x="333" d="M250 331q0 26 -19 45q-18 18 -44 18t-45 -19q-18 -18 -18 -44t19 -45q18 -18 44 -18t45 19q18 18 18 44zM274 4q0 55 -28 83t-69 28q-34 0 -54 -20q-19 -19 -19 -49q0 -27 16 -44q17 -17 38 -17q38 0 49 27q11 26 20 26q17 0 17 -31q0 -13 -3 -29q-9 -62 -84 -119 q-7 -6 -7 -11q0 -4 5 -7q4 -3 10 -3q2 0 10 4q21 15 39 33.5t32 41.5q28 46 28 87z" />
<glyph unicode="&#x3c;" d="M485 -20v56l-409 186l409 186v56l-471 -217v-50z" />
<glyph unicode="=" d="M473 261v54h-443v-54h443zM473 129v54h-443v-54h443z" />
<glyph unicode="&#x3e;" d="M485 197v50l-471 217v-56l409 -186l-409 -186v-56z" />
<glyph unicode="?" horiz-adv-x="444" d="M386 519q0 60 -45 113q-45 51 -125 51q-72 0 -115 -39q-42 -39 -42 -82v-4q0 -54 52 -55q51 -2 51 48q0 30 -26 41t-26 19q0 15 35 33q36 17 69 17q47 0 79 -27q31 -27 31 -63q0 -46 -43 -80q-44 -34 -69 -61q-33 -36 -45 -65q-11 -30 -11 -60l11 -94h25v27q0 38 20 56 q20 20 68 52q31 21 69 66q37 43 37 107zM240 49q0 26 -19 45q-18 18 -44 18t-45 -19q-18 -18 -18 -44t19 -45q18 -18 44 -18t45 19q18 18 18 44z" />
<glyph unicode="@" horiz-adv-x="451" d="M427 488q0 76 -58 133q-57 57 -147 57q-93 0 -159 -69q-65 -70 -65 -160q0 -94 64 -162q64 -70 166 -70q67 0 120 43q55 43 73 87h-27q-20 -40 -66 -71q-49 -32 -106 -32q-75 0 -135 57q-61 58 -61 146q0 84 59 145q58 59 139 59q75 0 126 -48q50 -48 50 -113 q0 -64 -39 -110q-38 -47 -74 -47q-12 0 -15 6l-1 6q0 6 3 17l69 208h-51l-7 -24q-7 19 -26 28q-20 9 -37 9q-60 0 -100 -60q-40 -58 -40 -118q0 -48 22 -70q21 -23 55 -23q22 0 42 11q9 5 15.5 11t11.5 11q8 -20 22 -27q15 -7 32 -7q52 0 98 53q47 53 47 124zM272 521 q0 -12 -32 -102q-31 -88 -72 -88q-15 0 -27 8q-12 9 -12 26q0 66 34 133q34 68 76 68q12 0 23 -14q10 -15 10 -31z" />
<glyph unicode="A" horiz-adv-x="667" d="M664 0v25h-79l-228 658h-35l-239 -658h-80v-25h212v25h-102l62 177h217l59 -177h-103v-25h316zM380 227h-194l101 279z" />
<glyph unicode="B" horiz-adv-x="667" d="M614 178q0 67 -60 114q-58 44 -159 55q94 14 145 56q51 43 51 106q0 81 -63 120t-179 39h-333v-25h99v-618h-99v-25h354q115 0 179 46q65 47 65 132zM455 509q0 -72 -29 -112q-29 -39 -89 -39h-95v285h101q59 0 86 -33q26 -32 26 -101zM471 179q0 -73 -25 -113 q-24 -41 -72 -41h-132v308h95q68 0 101 -38t33 -116z" />
<glyph unicode="C" horiz-adv-x="667" d="M595 -6v204h-29q-29 -110 -81 -149q-53 -39 -112 -39q-88 0 -131 60q-43 59 -43 173v182q0 111 42 173q40 60 126 60q59 0 114 -37q55 -36 76 -141h29v193h-23l-39 -42q-25 21 -65 37q-38 15 -88 15q-131 0 -226 -104q-93 -104 -93 -248q0 -139 94 -242q93 -104 216 -104 q47 0 92 14q42 13 78 42l41 -47h22z" />
<glyph unicode="D" horiz-adv-x="722" d="M672 333q0 146 -91 240q-90 95 -252 95h-303v-25h99v-618h-99v-25h291q184 0 269 97q86 97 86 236zM535 353q0 -175 -44 -252q-43 -76 -171 -76h-68v618h45q150 0 195 -59q43 -60 43 -231z" />
<glyph unicode="E" horiz-adv-x="667" d="M612 215h-29q-15 -96 -53 -143t-135 -47h-134v306h27q76 0 101 -40q24 -39 24 -92h28v279h-28q0 -49 -25 -86q-24 -36 -100 -36h-27v287h115q83 0 125 -30q42 -29 64 -125h28l-7 180h-551v-25h99v-618h-99v-25h568z" />
<glyph unicode="F" horiz-adv-x="611" d="M586 464l-7 204h-554v-25h99v-618h-99v-25h325v25h-99v306h27q77 0 102 -40q24 -39 24 -92h28v279h-28q0 -49 -25 -86q-24 -36 -101 -36h-27v287h118q84 0 125 -34q42 -36 64 -145h28z" />
<glyph unicode="G" horiz-adv-x="722" d="M698 218v25h-313v-25h101v-82q0 -70 -34 -98q-32 -28 -85 -28q-98 0 -133 65t-35 205v136q0 121 41 182q40 60 135 60q56 0 109 -39q52 -37 81 -139h29v193h-23l-41 -42q-27 22 -69 37q-41 15 -93 15q-130 0 -223 -104t-93 -250q0 -148 92 -246q90 -98 229 -98 q109 0 180 61q71 60 75 172h70z" />
<glyph unicode="H" horiz-adv-x="778" d="M749 0v25h-99v618h99v25h-325v-25h99v-288h-269v288h99v25h-325v-25h99v-618h-99v-25h325v25h-99v306h269v-306h-99v-25h325z" />
<glyph unicode="I" horiz-adv-x="389" d="M357 0v25h-99v618h99v25h-326v-25h99v-618h-99v-25h326z" />
<glyph unicode="J" d="M456 643v25h-331v-25h106v-626q0 -38 -18 -59q-17 -20 -50 -20q-23 0 -37 7q-15 6 -15 15q0 8 15 29q14 20 14 34q-4 55 -56 55h-4q-56 0 -58 -65q-1 -21 9.5 -39t29.5 -32q38 -29 94 -29q91 0 147 59t56 153v518h98z" />
<glyph unicode="K" horiz-adv-x="722" d="M724 0v25h-45l-319 389l218 229h98v25h-251v-25h114l-279 -297l258 -321h-104v-25h310zM348 0v25h-99v321v297h99v25h-325v-25h99v-618h-99v-25h325z" />
<glyph unicode="L" horiz-adv-x="611" d="M588 225h-31q-3 -95 -46 -147q-42 -53 -133 -53h-129v618h104v25h-330v-25h99v-618h-99v-25h554z" />
<glyph unicode="M" horiz-adv-x="833" d="M814 0v25h-99v618h99v25h-253l-145 -458l-140 458h-258v-25h99v-618h-99v-25h229v25h-99v611l202 -636h34l204 636v-611h-99v-25h325z" />
<glyph unicode="N" horiz-adv-x="722" d="M702 643v25h-227v-25h96v-412l-296 437h-256v-25h98v-618h-98v-25h228v25h-98v599l424 -637h30v656h99z" />
<glyph unicode="O" horiz-adv-x="722" d="M672 334q0 141 -94 245q-95 104 -218 104q-124 0 -218 -105q-93 -104 -93 -244q0 -141 94 -245q93 -104 217 -104q123 0 218 105q94 103 94 244zM525 215q0 -100 -41 -153q-40 -52 -124 -52t-124 52t-40 153v238q0 101 40 153t124 52q83 0 125 -52q40 -54 40 -153v-238z " />
<glyph unicode="P" horiz-adv-x="667" d="M644 487q0 92 -70 137q-70 44 -198 44h-334v-25h99v-618h-99v-25h333v25h-107v278h113q120 0 192 48q71 48 71 136zM503 490q0 -82 -28 -122q-27 -40 -88 -40h-119v315h123q60 0 86 -38t26 -115z" />
<glyph unicode="Q" horiz-adv-x="722" d="M672 334q0 141 -94 245q-95 104 -218 104q-124 0 -218 -105q-93 -104 -93 -244t93 -245q62 -70 149 -95q1 -112 52 -150q52 -39 71 -39q0 -1 32 -9q19 -5 46 -7.5t62 -1.5l71 2v24h-20q-95 0 -121 23q-24 21 -23 24q-2 0 -18 34q-12 24 -12 65q0 8 0.5 17t1.5 19 q84 26 145 94q94 104 94 245zM525 215q0 -100 -41 -153q-40 -52 -124 -52t-124 52t-40 153v238q0 101 40 153t124 52q83 0 125 -52q40 -54 40 -153v-238z" />
<glyph unicode="R" horiz-adv-x="722" d="M697 0v23q-26 -3 -42 -3q-23 0 -32 5q-18 9 -24 32l-1 49q-1 45 -8.5 84t-24.5 72q-33 65 -158 91q106 16 159 57q52 40 52 106q0 81 -56 116q-54 36 -165 36h-352v-25h99v-618h-99v-25h325v25h-99v319h52q73 0 105 -53q15 -26 21 -63t9 -85l3 -43q15 -71 73 -98 q31 -14 73 -14q40 0 90 12zM481 505q0 -70 -30 -103t-95 -33h-85v274h98q62 0 88 -33q24 -32 24 -105z" />
<glyph unicode="S" horiz-adv-x="556" d="M486 209q0 92 -45 143q-44 49 -161 79q-74 19 -113 38q-38 17 -38 74q0 47 37 81t88 34q71 0 117 -49q46 -51 55 -125h32v189h-19l-38 -39q-31 25 -67 37t-78 12q-78 0 -131 -53q-51 -53 -51 -135q0 -79 42 -128q42 -48 136 -73q78 -21 130 -52q49 -30 49 -93 q0 -58 -44 -99q-43 -40 -107 -40q-75 0 -121 54t-61 129h-29v-199h17l48 42q28 -24 66 -38q33 -13 77 -13q92 0 151 62q58 61 58 162z" />
<glyph unicode="T" horiz-adv-x="667" d="M631 454l-11 214h-573l-11 -214h32q17 116 62 153q46 36 113 36h28v-618h-105v-25h337v25h-105v618h26q67 0 113 -37q45 -35 62 -152h32z" />
<glyph unicode="U" horiz-adv-x="722" d="M706 643v25h-229v-25h99v-442q0 -89 -45 -137q-44 -47 -129 -47q-83 0 -122 42q-39 40 -39 128v456h99v25h-325v-25h99v-411q0 -134 58 -191q58 -56 189 -56q130 0 188 55q58 54 58 178v425h99z" />
<glyph unicode="V" horiz-adv-x="667" d="M666 643v25h-217v-25h104l-169 -468l-170 468h103v25h-317v-25h83l238 -658h30l232 658h83z" />
<glyph unicode="W" horiz-adv-x="944" d="M926 643v25h-184v-25h81l-177 -483l-96 261l79 222h66v25h-150h-254h-276v-25h76l240 -658h32l111 307l113 -307h31l235 658h73zM602 643l-66 -172l-72 172h81h57zM459 336l-62 -177l-180 484h74h56z" />
<glyph unicode="X" horiz-adv-x="722" d="M703 0v25h-75l-231 363l176 255h94v25h-242v-25h113l-157 -229l-140 229h99v25h-319v-25h77l206 -340l-193 -278h-94v-25h247v25h-118l177 252l157 -252h-103v-25h326z" />
<glyph unicode="Y" horiz-adv-x="667" d="M667 643v25h-216v-25h104l-161 -287l-170 287h102v25h-325v-25h73l210 -340v-278h-106v-25h344v25h-111v300l174 318h82z" />
<glyph unicode="Z" horiz-adv-x="611" d="M572 215h-27q-29 -137 -78 -164q-50 -26 -121 -26h-162l386 614v29h-482l-16 -180h31q23 104 73 130q49 25 121 25h131l-389 -616v-27h525z" />
<glyph unicode="[" horiz-adv-x="389" d="M318 -234v37l-165 -2v845h165v37h-246v-917h246z" />
<glyph unicode="\" horiz-adv-x="520" d="M403 -15l-222 698h-58l222 -698h58z" />
<glyph unicode="]" horiz-adv-x="389" d="M318 -234v917h-246v-37l165 2v-845h-165v-37h246z" />
<glyph unicode="^" d="M487 173l-214 472h-48l-214 -472h55l183 408l183 -408h55z" />
<glyph unicode="_" d="M500 -251v58h-500v-58h500z" />
<glyph unicode="`" horiz-adv-x="333" d="M281 493q-20 20 -39 40t-39 40q-19 20 -38 39.5t-39 38.5q-16 16 -33 16q-16 0 -29 -13q-12 -11 -12 -22q0 -17 24 -33l155 -106h50z" />
<glyph unicode="a" d="M473 38l-12 14q-2 -2 -6.5 -5.5t-9.5 -8.5q-11 -9 -19 -9q-11 0 -18 6q-6 4 -6 14v358q0 55 -46 89q-48 34 -116 34q-73 0 -118 -30q-45 -31 -44 -74q1 -45 49 -45q47 0 51 43q0 21 -9 38q-8 16 -8 18q0 9 23 20q21 10 49 10q23 0 46 -18q21 -18 21 -44v-163h-26 q-12 0 -25 -1t-25 -2t-23 -3q-67 -12 -109 -55q-42 -42 -42 -112q0 -55 27 -92q27 -36 76 -36q37 0 76 17q36 16 71 54q3 -28 23 -50q18 -20 56 -20q33 0 54 15q21 16 40 38zM300 177q0 -56 -23 -100q-22 -43 -59 -43q-33 0 -48 31t-15 78q0 49 19 77q18 28 52 37q15 3 26 3 q9 0 17 -3q16 -7 31 -18v-62z" />
<glyph unicode="b" horiz-adv-x="556" d="M508 257q0 109 -59 192q-57 81 -135 81q-31 0 -62 -17q-30 -17 -56 -56v226q-29 -5 -51.5 -8t-38.5 -5q-16 -1 -38.5 -1.5t-51.5 -0.5v-25h72v-618h-72v-25q31 0 59.5 -0.5t54.5 -0.5q52 -2 66 -9v64q26 -36 58 -53q29 -16 65 -16q78 0 134 80q55 81 55 192zM390 163 q0 -72 -19 -114q-20 -44 -55 -44q-48 0 -84 53q-36 52 -36 131v125q0 80 36 139q34 57 86 57q32 0 53 -45q9 -23 14 -51t5 -62v-189z" />
<glyph unicode="c" horiz-adv-x="444" d="M406 177l-25 -1q-6 -54 -42 -112q-35 -59 -92 -59q-52 0 -72 47q-19 45 -19 137v135q0 85 21 136q20 50 63 50q25 0 49 -9q24 -7 27 -23q0 -11 -16 -24q-16 -12 -16 -36q6 -47 56 -47q51 0 56 54q0 51 -47 78t-102 27q-91 0 -149 -78q-59 -79 -59 -195q0 -114 55 -193 t136 -79q66 0 113 47q47 48 63 145z" />
<glyph unicode="d" horiz-adv-x="556" d="M534 0v25h-73v658q-29 -5 -51.5 -8t-38.5 -5q-16 -1 -38.5 -1.5t-51.5 -0.5v-25h72v-197q-21 49 -54 67q-32 17 -64 17q-78 0 -136 -82q-58 -80 -58 -191q0 -115 51 -194q51 -78 129 -78q37 0 73 18q35 19 60 66v-77q11 2 30 4t47 2q28 2 53 2h50zM354 199 q0 -76 -38 -135q-36 -59 -83 -59q-35 0 -54 45q-18 45 -18 116v183q0 72 18 117q17 44 52 44q52 0 87 -62q36 -60 36 -155v-94z" />
<glyph unicode="e" horiz-adv-x="444" d="M412 189h-25q-5 -30 -17.5 -60.5t-31.5 -61.5q-38 -62 -99 -62q-49 0 -68 48q-20 49 -20 136v96h249q7 0 7 7q1 4 1.5 8.5t0.5 10.5q0 91 -52 155q-51 64 -124 64q-83 0 -142 -83t-59 -199q0 -105 58 -184t133 -79q66 0 118 50q50 50 71 154zM298 379l-2 -69h-145v18 q0 89 15 136q13 46 60 46q36 0 54 -35q19 -37 18 -96z" />
<glyph unicode="f" horiz-adv-x="333" d="M375 601q1 33 -27 58q-26 24 -74 24q-20 0 -43 -4.5t-45.5 -13.5t-41.5 -23t-32 -32q-10 -14 -14 -23t-5.5 -17t-1 -18.5t0.5 -27.5h-80v-25h80v-23v-451h-78v-25h272v25h-86v474h95v25h-95v22q0 24 -4 45t8 38q22 34 47 34q7 0 22.5 -1.5t20.5 -3.5q9 -5 9 -14 q0 -5 -15 -17q-14 -11 -14 -29q0 -46 48 -46q50 0 53 49z" />
<glyph unicode="g" horiz-adv-x="444" d="M442 495q0 18 -14 29q-13 10 -28 10q-18 0 -38 -11q-14 -9 -42 -44l-3 3q-44 48 -107 48q-65 0 -109 -47q-42 -47 -42 -123q0 -68 46 -114q6 -6 13 -12t15 -11q-46 -15 -71 -46q-26 -32 -26 -87q0 -110 74 -118q-35 -20 -51 -36q-23 -23 -23 -63q0 -45 48 -76 q47 -31 123 -31q91 0 155 52q63 52 63 140q0 50 -24 76q-23 24 -62 24q-140 2 -206 3q-65 2 -65 50q0 46 39 67q37 21 108 21q65 0 107 46q40 48 40 120q0 57 -29 98q2 4 5 7.5t6 7.5q10 12 20 12q8 0 16 -17q7 -16 31 -16q11 0 22 11q9 10 9 27zM266 364q0 -43 -1.5 -72 t-3.5 -45q-4 -31 -51 -31q-43 0 -49 33q-2 16 -3.5 45t-1.5 71q0 41 1.5 69t5.5 44q6 32 50 32t49 -32q2 -16 3 -44t1 -70zM390 -75q0 -63 -57 -99q-58 -35 -122 -35q-57 0 -84 30q-26 29 -26 68q0 34 10 55q7 17 41 25q36 -2 77 -3.5t89 -1.5q38 0 55 -10q17 -9 17 -29z " />
<glyph unicode="h" horiz-adv-x="556" d="M540 0v25h-66v304q0 98 -29 150q-29 51 -96 51q-42 0 -82 -22q-40 -21 -66 -74v249q-29 -5 -51.5 -8t-38.5 -5q-16 -1 -38.5 -1.5t-51.5 -0.5v-25h72v-618h-68v-25h236v25h-60v232q0 114 35 176q34 61 76 61q33 0 44 -42q10 -39 10 -119v-308h-63v-25h237z" />
<glyph unicode="i" horiz-adv-x="278" d="M196 630q0 23 -17 40t-40 17t-40 -17t-17 -41q0 -23 17 -40t40 -17t40 17t17 41zM266 0v25h-73v504l-180 -5v-25h72v-474h-75v-25h256z" />
<glyph unicode="j" horiz-adv-x="333" d="M243 640q0 23 -17 40t-40 17t-40 -17t-17 -41q0 -23 17 -40t40 -17t40 17t17 41zM240 33v496l-180 -5v-25h72v-591q0 -55 -10 -85q-10 -31 -33 -31q-11 0 -18 4t-7 13q0 7 6 21q6 13 6 23q-2 41 -42 41h-6q-46 0 -46 -52q0 -27 23 -52q22 -24 61 -24q84 0 129 69t45 198z " />
<glyph unicode="k" horiz-adv-x="556" d="M532 0v25h-39l-187 305l110 169h88v25h-215v-25h83l-157 -214l152 -260h-57v-25h222zM264 0v25h-62v260v398q-29 -5 -51.5 -8t-38.5 -5q-16 -1 -38.5 -1.5t-51.5 -0.5v-25h72v-618h-64v-25h234z" />
<glyph unicode="l" horiz-adv-x="278" d="M267 0v25h-73v658q-29 -5 -51.5 -8t-38.5 -5q-16 -1 -38.5 -1.5t-51.5 -0.5v-25h72v-618h-75v-25h256z" />
<glyph unicode="m" horiz-adv-x="778" d="M765 0v25h-66v304q0 103 -25 152t-95 49q-47 0 -82 -26q-32 -25 -49 -57q-13 37 -41 60q-26 23 -79 23q-39 0 -76 -22q-36 -21 -60 -74v95l-174 -5v-25h68v-474h-68v-25h232v25h-56v277q0 86 33 139t55 53h8q31 0 40 -28q9 -29 9 -86v-355h-51v-25h214v25h-55v272 q0 99 31 148q30 49 66 49h8q27 0 33 -28q6 -29 6 -86v-355h-52v-25h226z" />
<glyph unicode="n" horiz-adv-x="556" d="M533 0v25h-64v304q0 100 -28 150q-29 51 -95 51q-43 0 -83 -22q-40 -21 -66 -74v95l-174 -5v-25h68v-474h-68v-25h237v25h-63v232q0 114 35 176q34 61 77 61q34 0 45 -42q5 -20 7.5 -50t2.5 -69v-308h-63v-25h232z" />
<glyph unicode="o" d="M460 257q0 110 -64 192q-63 81 -147 81q-83 0 -147 -82q-63 -81 -63 -191q0 -109 64 -191q63 -81 146 -81q84 0 148 82q63 81 63 190zM340 192q0 -93 -19 -140q-20 -47 -72 -47t-71 48q-19 45 -19 139v131q0 93 19 140q20 47 71 47q52 0 72 -48q19 -45 19 -139v-131z" />
<glyph unicode="p" horiz-adv-x="556" d="M509 257q0 113 -56 193q-54 80 -133 80q-34 0 -66 -20q-30 -18 -59 -63v82l-178 -5v-25h72v-708h-71v-25h248v25h-69v268q20 -41 53 -58q31 -16 65 -16q78 0 137 81q57 79 57 191zM391 152q0 -63 -20 -106q-18 -41 -52 -41q-54 0 -88 57q-34 55 -34 140v128 q0 34 10.5 64.5t30.5 59.5q38 56 79 56q35 0 55 -41q19 -39 19 -106v-211z" />
<glyph unicode="q" horiz-adv-x="556" d="M536 496v31l-181 4v-98q-24 55 -57 79t-66 24q-79 0 -134 -80q-55 -81 -55 -193t58 -191q57 -81 136 -81q33 0 65 17q32 19 53 56v-267h-70v-25h250v25h-72v696zM355 210q0 -83 -36 -141q-35 -58 -86 -58q-34 0 -53 48q-20 48 -20 119v165q0 75 18 125q18 48 52 48 q63 0 94 -67q31 -65 31 -191v-48z" />
<glyph unicode="r" horiz-adv-x="444" d="M425 463q0 28 -21 48q-20 19 -57 19q-43 0 -79 -27q-34 -25 -66 -85v111l-172 -5v-25h66v-474h-59v-25h257v25h-90v201q0 105 33 186q33 80 72 80q2 0 3 -0.5t3 -0.5q2 -2 2 -5l-4 -33q3 -44 52 -44h4q54 0 56 54z" />
<glyph unicode="s" horiz-adv-x="389" d="M338 153q0 74 -26 112q-13 19 -38.5 31.5t-63.5 21.5q-64 16 -88 37q-21 18 -21 54q0 42 22 71q21 30 61 30q41 0 71 -34q29 -34 32 -70h26v128h-17l-16 -36q-18 14 -42 23q-26 9 -54 9q-57 0 -93 -43q-36 -42 -36 -115q0 -79 41 -114q20 -17 43 -28.5t49 -17.5 q60 -14 84 -33q24 -20 24 -69q0 -46 -28 -75q-27 -30 -64 -30q-50 0 -84 39q-33 39 -42 99h-27v-146h16l29 30q23 -20 50 -32q28 -11 54 -11q67 0 103 44q35 44 35 125z" />
<glyph unicode="t" horiz-adv-x="333" d="M318 67l-20 10q-8 -23 -23 -38q-14 -15 -39 -15q-21 0 -30 10q-8 11 -8 34v426h94v30h-94v110l-108 -26v-84h-64v-30h64v-428q0 -45 24 -63q22 -18 78 -18q61 0 89 28q30 28 37 54z" />
<glyph unicode="u" horiz-adv-x="556" d="M534 0v25h-69v503l-183 -4v-25h75v-279q0 -83 -35 -144q-35 -59 -83 -59q-23 0 -34 26q-10 24 -10 71v414l-173 -4v-25h65v-354q0 -73 32 -117q30 -43 89 -43q43 0 81 23q37 21 69 74v-90q17 3 31 4.5t24 2.5t40 1h81z" />
<glyph unicode="v" d="M476 499v25h-154v-25h69l-106 -349l-100 349h63v25h-227v-25h51l161 -514h27l161 514h55z" />
<glyph unicode="w" horiz-adv-x="667" d="M656 499v25h-158v-25h68l-82 -365l-106 390h-48v-14l-90 -383l-76 372h67v25h-226v-25h49l140 -514h31l100 388l111 -388h32l129 514h59z" />
<glyph unicode="x" d="M477 0v25h-42l-148 272l107 202h67v25h-165v-25h66l-92 -181l-86 181q9 3 17 3l10 -1q7 -1 13.5 -1.5t13.5 -0.5v25h-219v-25h44l138 -261l-118 -213h-64v-25h166v25h-69l102 193l93 -193h-54v-25h220z" />
<glyph unicode="y" d="M476 499v25h-158v-25h72l-95 -316l-111 316h64v25h-229v-25h49l176 -472l-23 -91q-17 -38 -27 -60t-14 -29q-8 -12 -12 -12t-7 4q-1 3 -5 7q-18 22 -42 22q-4 0 -8 -0.5t-9 -1.5q-36 -9 -36 -48q0 -25 18 -38q19 -14 37 -14q37 0 69 41q16 20 30 44.5t23 54.5l182 593h56 z" />
<glyph unicode="z" horiz-adv-x="444" d="M390 494v30h-337v-155h26q10 66 40 99q28 31 83 31h64l-236 -471v-28h359v170h-28q-6 -77 -31 -111t-92 -34h-82z" />
<glyph unicode="{" horiz-adv-x="389" d="M330 -232q-35 7 -66 33q-30 25 -30 85v192q0 73 -28 105q-29 32 -87 41q59 11 87 43q28 31 28 104v192q0 60 31 85q31 26 65 35q-103 0 -141 -35q-37 -34 -37 -87v-231q0 -50 -23 -73q-24 -24 -73 -34q49 -8 73 -31q23 -23 23 -73v-231q0 -53 37 -87q37 -35 141 -33z" />
<glyph unicode="|" horiz-adv-x="560" d="M308 -250v1000h-55v-1000h55z" />
<glyph unicode="}" horiz-adv-x="389" d="M329 226q-50 7 -73 31q-22 24 -22 73v231q0 53 -37 87q-38 34 -141 33q34 -8 66 -33q30 -26 30 -85v-192q0 -73 28 -105q27 -31 86 -42q-59 -9 -87 -42q-27 -32 -27 -104v-192q0 -60 -31 -85q-33 -27 -65 -35q103 0 141 35q37 34 37 87v231q0 50 23 73q22 23 72 34z" />
<glyph unicode="~" d="M489 264l-41 27q-8 -13 -18.5 -25t-21.5 -23q-22 -22 -53 -22q-28 0 -97 31q-68 31 -111 31q-48 0 -82 -31q-33 -31 -52 -64l40 -27q17 27 40 48q22 22 53 22q29 0 97 -31t111 -31q48 0 82 31q33 30 53 64z" />
<glyph unicode="&#xa1;" horiz-adv-x="333" d="M228 397q0 26 -19 45q-18 18 -44 18t-45 -19q-18 -18 -18 -44t19 -45q18 -18 44 -18t45 19q18 18 18 44zM231 -174q0 18 -25 136q-25 116 -28 270h-26q-2 -76 -8.5 -143.5t-19.5 -127.5q-25 -116 -25 -135q0 -30 20 -47q19 -16 46 -16q28 0 47 16t19 47z" />
<glyph unicode="&#xa2;" d="M429 179l-25 -1q-6 -53 -41 -112t-91 -59q-34 0 -48 14l108 353q3 -7 31 -7q51 0 56 54q0 51 -46 78q-1 1 -2 1l43 143h-38l-39 -128q-30 11 -66 11q-90 0 -148 -78q-59 -77 -59 -192q0 -112 55 -191q26 -37 63 -59l-46 -151h38l42 137q17 -5 38 -5q65 0 112 47 q46 46 63 145zM329 489l-22 -72l-109 -358q-17 45 -17 129v135q0 84 21 134q19 49 62 49q25 0 49 -9q15 -6 16 -8z" />
<glyph unicode="&#xa3;" d="M472 176l-23 3q0 -48 -32 -74q-31 -25 -84 -25q-13 0 -26 1.5t-28 3.5q-14 2 -27 5t-24 8q16 40 24 80q4 19 5.5 37.5t1.5 35.5q0 21 -3 41q-1 19 -6 31h118v27h-121q-3 17 -6.5 35.5t-8.5 38.5q-9 40 -9 79q0 63 28 91q29 29 75 29q34 0 65 -17q30 -17 30 -43 q0 -14 -17 -14q-4 0 -14 2l-9 1q-23 0 -35 -37q-1 -5 -1 -13q0 -54 52 -54h4q62 2 62 75q0 58 -44 90t-100 32q-95 0 -147 -60q-53 -61 -53 -147q0 -16 0.5 -27t1.5 -19q1 -7 3 -17.5t4 -24.5h-105v-27h110q0 -44 25 -110q19 -52 19 -83q0 -5 -0.5 -10.5t-1.5 -10.5 q-15 8 -34 12q-10 2 -18.5 3t-16.5 1q-42 0 -67 -20q-23 -20 -23 -50q0 -34 19 -54q18 -21 56 -21q23 0 54 14q30 14 56 50q14 -11 30 -21.5t33 -21.5q34 -21 85 -21q60 0 90 49t33 147zM170 68q-13 -28 -36 -46t-43 -18q-22 0 -37 12q-14 12 -14 29q0 27 18 39q19 11 41 11 q12 0 32 -6q19 -5 39 -21z" />
<glyph unicode="&#xa4;" horiz-adv-x="667" d="M595 -6v204h-29q-29 -110 -81 -149q-53 -39 -112 -39q-88 0 -131 60q-43 59 -43 173v6h307l8 54h-315v78h326l9 54h-335q1 104 42 163q40 60 126 60q59 0 114 -37q55 -36 76 -141h29v193h-23l-39 -42q-25 21 -65 37q-38 15 -88 15q-132 0 -226 -104q-57 -63 -80 -144h-36 l-9 -54h35q-3 -24 -3 -50v-14t1 -14h-44l-8 -54h60q20 -89 85 -160q93 -104 216 -104q47 0 92 14q42 13 78 42l41 -47h22z" />
<glyph unicode="&#xa5;" d="M497 620v25h-152v-25h67l-117 -276l-124 276h73v25h-241v-25h49l158 -328v-31h-134v-25h134v-57h-134v-25h134v-129h-85v-25h278v25h-90v129h134v25h-134v57h134v25h-134v53l130 306h54z" />
<glyph unicode="&#xa6;" horiz-adv-x="560" d="M307 324v426h-55v-426h55zM307 -250v426h-55v-426h55z" />
<glyph unicode="&#xa7;" d="M428 245q0 65 -44 115q-42 48 -95 89q-59 45 -90 75t-31 67q0 39 28 55q28 17 59 17q21 0 40 -10q20 -9 20 -20q0 -8 -16 -21t-16 -37q0 -42 43 -42h4q24 0 36 13.5t12 37.5q0 46 -36 73q-35 26 -91 26q-57 0 -99 -33q-41 -33 -41 -89q0 -40 24 -76q25 -38 73 -74 q-5 1 -10 1.5t-10 0.5q-36 0 -72 -25q-43 -31 -43 -89q0 -65 44 -115q42 -48 95 -89q58 -45 90 -75q31 -30 31 -67q0 -39 -30 -55q-31 -17 -65 -17q-26 0 -47 10q-22 9 -22 20q0 8 16 21t16 37q0 41 -42 41h-6q-47 0 -47 -50q0 -45 39 -73q38 -26 95 -26q61 0 106 33 q44 33 44 89q0 41 -25 76q-25 37 -72 74q5 -1 10 -1.5t10 -0.5q37 0 72 24q43 31 43 90zM376 221q0 -27 -20 -47t-46 -20q-23 0 -59 21q-33 20 -55 42q-17 12 -29 25.5t-22 26.5q-20 26 -20 55q0 28 20 47q18 20 46 20q23 0 58 -21q17 -11 31 -21.5t25 -20.5 q14 -14 27 -26.5t24 -25.5q20 -26 20 -55z" />
<glyph unicode="&#xa8;" horiz-adv-x="333" d="M320 536q0 21 -16 37q-15 15 -37 15t-38 -16q-15 -15 -15 -36t16 -37q15 -15 37 -15t38 16q15 15 15 36zM117 536q0 21 -16 37q-15 15 -37 15t-38 -16q-15 -15 -15 -36t16 -37q15 -15 37 -15t38 16q15 15 15 36z" />
<glyph unicode="&#xa9;" horiz-adv-x="760" d="M726 334q0 143 -102 245q-101 101 -244 101q-142 0 -244 -102q-101 -101 -101 -244t102 -245q101 -101 244 -101q142 0 244 102q101 101 101 244zM691 334q0 -128 -91 -219t-220 -91q-128 0 -219 91t-91 219t91 219t220 91q128 0 219 -91t91 -219zM529 189v74h-18 q-11 -48 -45 -81q-33 -33 -88 -33q-61 0 -83 52q-22 53 -22 141q0 96 19 144q18 50 76 50q67 0 98 -31q32 -32 39 -76h18v79q-29 9 -66 27q-39 17 -74 17q-87 0 -147 -64q-60 -63 -60 -145q0 -87 62 -149q61 -60 145 -60q40 0 82 19t64 36z" />
<glyph unicode="&#xaa;" horiz-adv-x="300" d="M286 469l-7 9q-2 -2 -4.5 -4t-6.5 -5q-8 -5 -12 -5q-8 0 -12 4q-4 3 -4 8v211q0 32 -30 53q-29 20 -75 20q-48 0 -76 -18q-30 -19 -29 -44q2 -26 32 -26t33 25q0 13 -6 22q-5 10 -5 11q0 6 15 12q13 6 31 6q16 0 30 -11q14 -9 14 -26v-96l-64 -3q-44 -8 -71 -33 q-27 -26 -27 -66q0 -32 18 -54q16 -21 48 -21q26 0 50 10q24 11 46 31q2 -17 15 -29q12 -12 36 -12q21 0 35 9q12 8 26 22zM174 551q0 -34 -15 -59q-13 -25 -38 -25q-22 0 -32 19q-9 18 -9 45q0 29 12 46q12 16 34 22l14 1q8 0 14 -2q11 -4 20 -10v-37z" />
<glyph unicode="&#xab;" d="M417 51q0 3 -2 9q-17 36 -46 75q-14 20 -27.5 36t-26.5 29q26 26 55 65q28 40 45 75q2 8 2 10t-2 4t-5 2q-1 0 -5 -2l-39 -39t-38 -36t-38.5 -34.5t-41.5 -35.5q-7 -7 -7 -9q0 -5 7 -9q22 -19 42 -36.5t39 -34.5t37.5 -35.5l38.5 -38.5q4 -2 6 -2l4 1q2 2 2 6zM258 51 q0 3 -2 9q-17 36 -46 75q-14 20 -27.5 36t-26.5 29q26 26 55 65q28 40 45 75q2 8 2 10t-2 4t-5 2q-1 0 -5 -2l-39 -39t-38 -36t-38.5 -34.5t-41.5 -35.5q-7 -7 -7 -9q0 -5 7 -9q22 -19 42 -36.5t39 -34.5t37.5 -35.5l38.5 -38.5q4 -2 6 -2l4 1q2 2 2 6z" />
<glyph unicode="&#xac;" d="M472 46v269h-443v-54h389v-215h54z" />
<glyph unicode="&#xad;" horiz-adv-x="333" d="M303 288v53h-271v-53h271z" />
<glyph unicode="&#xae;" horiz-adv-x="760" d="M726 334q0 143 -102 245q-101 101 -244 101q-142 0 -244 -102q-101 -101 -101 -244t102 -245q101 -101 244 -101q142 0 244 102q101 101 101 244zM691 334q0 -128 -91 -219t-220 -91q-128 0 -219 91t-91 219t91 219t220 91q128 0 219 -91t91 -219zM599 153v13 q-29 1 -39 9q-10 6 -12 30q-5 45 -25 87q-21 44 -105 59q74 10 106 33q31 22 31 61q0 36 -31 60q-30 24 -104 24h-239v-14h65v-348h-65v-14h212v14h-64v180h20q79 0 96 -45q16 -45 33 -149h121zM465 441q0 -36 -18 -57q-18 -20 -68 -20h-50v149h78q27 0 43 -16 q15 -15 15 -56z" />
<glyph unicode="&#xaf;" horiz-adv-x="333" d="M324 484v59h-316v-59h316z" />
<glyph unicode="&#xb0;" horiz-adv-x="400" d="M350 495q0 62 -44 106t-106 44t-106 -44t-44 -106t44 -106t106 -44t106 44t44 106zM310 495q0 -46 -32 -78t-78 -32t-78 32t-32 78t32 78t78 32t78 -32t32 -78z" />
<glyph unicode="&#xb1;" d="M475 240v54h-196v150h-54v-150h-196v-54h196v-150h54v150h196zM475 0v54h-446v-54h446z" />
<glyph unicode="&#xb2;" horiz-adv-x="300" d="M281 547q0 41 -35 70q-34 28 -89 28q-53 0 -88 -28q-36 -29 -36 -69q0 -18 10 -34q11 -17 34 -17q37 0 40 31v6q0 25 -33 28q-7 0 -19 -3l-4 -1q-7 0 -8 9q0 23 23 40t53 17q32 0 54 -25t22 -63q0 -52 -22 -83q-11 -16 -24 -31.5t-30 -29.5l-110 -95v-39h257l4 111h-15 q0 -34 -7 -45q-8 -11 -26 -11h-169l145 118q13 10 25 21.5t24 25.5q24 25 24 69z" />
<glyph unicode="&#xb3;" horiz-adv-x="300" d="M283 357q0 44 -33 71t-105 33q66 15 92 40q26 26 26 58q0 36 -35 62q-35 24 -88 24q-42 0 -70 -19q-29 -20 -29 -46q0 -35 35 -35q30 0 33 27v4q0 11 -13 21q-14 8 -14 14q0 7 16 14q17 7 32 7q32 0 47 -18q14 -19 14 -51q0 -44 -21 -69q-11 -13 -24.5 -18.5t-30.5 -6.5 l-35 -1q-11 0 -14 -10q0 -6 13 -6h20q55 0 81 -24t26 -75q0 -41 -22 -66q-23 -24 -60 -24q-25 0 -42 7q-17 8 -17 17q0 3 15 14q13 9 15 26q-1 31 -33 31h-4q-36 0 -38 -41q-1 -27 32 -49q32 -20 76 -20q64 0 110 32q45 31 45 77z" />
<glyph unicode="&#xb4;" horiz-adv-x="333" d="M282 632q0 10 -12 22q-15 13 -28 13q-17 0 -33 -16q-20 -19 -39.5 -38.5l-39.5 -39.5l-38 -40l-38 -40h50l155 106q23 16 23 33z" />
<glyph unicode="&#xb5;" horiz-adv-x="556" d="M533 0v25h-69v503l-183 -4v-25h75v-279q0 -83 -35 -144q-35 -59 -82 -59q-22 0 -33 26q-10 24 -10 71v414l-173 -4v-25h65v-355q0 -54 13 -90q12 -36 12 -63q0 -28 -14 -81q-12 -50 -12 -90t53 -40t53 40q0 20 -15 70q-4 12 -11.5 28l-15 32t-13.5 29.5t-6 20.5q0 5 6 3 t14 -6l16 -8t13 -4h57q33 0 65 23q30 21 54 74v-90q17 3 31 4.5t24 2.5t40 1h81z" />
<glyph unicode="&#xb6;" horiz-adv-x="620" d="M546 641v41h-217q-109 0 -182 -61t-73 -151q0 -87 62 -146q60 -57 150 -71v-394h53v782h100v-782h53v782h54z" />
<glyph unicode="&#xb7;" horiz-adv-x="333" d="M226 222q0 26 -19 45q-18 18 -44 18t-45 -19q-18 -18 -18 -44t19 -45q18 -18 44 -18t45 19q18 18 18 44z" />
<glyph unicode="&#xb8;" horiz-adv-x="333" d="M273 -133q0 33 -23 54q-23 20 -59 20h-9t-9 -1q-4 -1 -7.5 -2t-7.5 -3l27 65h-37l-43 -99l16 -4l30 5q18 0 31 -13q12 -12 12 -29q0 -16 -17 -27t-42 -11q-23 0 -38 5q-12 4 -22 9l-12 -32q15 -10 33 -14q22 -5 49 -5q59 0 94 21q34 21 34 61z" />
<glyph unicode="&#xb9;" horiz-adv-x="300" d="M264 258v15h-76v372q-17 -1 -32.5 -2t-31.5 -3q-15 -1 -36.5 -1.5t-50.5 -0.5v-15h56q15 0 20 -5q5 -3 5 -21v-324h-77v-15h223z" />
<glyph unicode="&#xba;" horiz-adv-x="300" d="M288 599q0 65 -42 113q-41 48 -95 48t-96 -48q-41 -49 -41 -113q0 -65 42 -113q40 -48 95 -48q54 0 96 48q41 49 41 113zM210 560q0 -55 -13 -82q-12 -28 -46 -28t-47 28q-12 28 -12 82v78q0 55 13 82q12 28 46 28t47 -28q12 -29 12 -82v-78z" />
<glyph unicode="&#xbb;" d="M419 200q0 2 -7 9q-45 36 -82 70q-19 17 -37.5 36t-38.5 39q-4 2 -6 2q-3 0 -5 -2t-2 -6q0 -2 2 -8q17 -36 46 -75q15 -20 29 -36t27 -29q-13 -13 -27 -29t-29 -36q-29 -39 -46 -75q-2 -8 -2 -10q0 -3 2 -5l5 -1q2 0 6 2q20 20 39 38.5t38 35.5t38.5 35t42.5 36q7 7 7 9z M260 200q0 2 -7 9q-45 36 -82 70q-19 17 -37.5 36t-38.5 39q-4 2 -6 2q-3 0 -5 -2t-2 -6q0 -2 2 -8q17 -36 46 -75q15 -20 29 -36t27 -29q-13 -13 -27 -29t-29 -36q-29 -39 -46 -75q-2 -8 -2 -10q0 -3 2 -5l5 -1q2 0 6 2q20 20 39 38.5t38 35.5t38.5 35t42.5 36q7 7 7 9z " />
<glyph unicode="&#xbc;" horiz-adv-x="750" d="M739 57v106h-17v-44h-47v268h-47l-189 -268v-17h166v-87h-50v-15h169v15h-49v87h47v-45h17zM605 119h-143l143 203v-203zM663 645h-52l-449 -645h52zM237 258v15h-76v372q-17 -1 -32.5 -2t-31.5 -3q-15 -1 -36.5 -1.5t-50.5 -0.5v-15h56q15 0 20 -5q5 -3 5 -21v-324h-77 v-15h223z" />
<glyph unicode="&#xbd;" horiz-adv-x="750" d="M739 289q0 41 -35 70q-34 28 -89 28q-53 0 -88 -28q-36 -29 -36 -69q0 -18 10 -34q11 -17 34 -17q37 0 40 31v6q0 25 -33 28q-7 0 -19 -3l-4 -1q-7 0 -8 9q0 23 23 40t53 17q32 0 54 -25t22 -63q0 -52 -22 -83q-11 -16 -24 -31.5t-30 -29.5l-110 -95v-39h257l4 111h-15 q0 -34 -7 -45q-8 -11 -26 -11h-169l145 118q13 10 25 21.5t24 25.5q24 25 24 69zM638 645h-52l-449 -645h52zM238 258v15h-76v372q-17 -1 -32.5 -2t-31.5 -3q-15 -1 -36.5 -1.5t-50.5 -0.5v-15h56q15 0 20 -5q5 -3 5 -21v-324h-77v-15h223z" />
<glyph unicode="&#xbe;" horiz-adv-x="750" d="M740 57v106h-17v-44h-47v268h-47l-189 -268v-17h166v-87h-50v-15h169v15h-49v87h47v-45h17zM606 119h-143l143 203v-203zM656 645h-52l-449 -645h52zM273 357q0 44 -33 71t-105 33q66 15 92 40q26 26 26 58q0 36 -35 62q-35 24 -88 24q-42 0 -70 -19q-29 -20 -29 -46 q0 -35 35 -35q30 0 33 27v4q0 11 -13 21q-14 8 -14 14q0 7 16 14q17 7 32 7q32 0 47 -18q14 -19 14 -51q0 -44 -21 -69q-11 -13 -24.5 -18.5t-30.5 -6.5l-35 -1q-11 0 -14 -10q0 -6 13 -6h20q55 0 81 -24t26 -75q0 -41 -22 -66q-23 -24 -60 -24q-25 0 -42 7q-17 8 -17 17 q0 3 15 14q13 9 15 26q-1 31 -33 31h-4q-36 0 -38 -41q-1 -27 32 -49q32 -20 76 -20q64 0 110 32q45 31 45 77z" />
<glyph unicode="&#xbf;" horiz-adv-x="444" d="M332 398q0 26 -19 45q-20 18 -45 18t-44 -19q-18 -18 -18 -44t19 -45q18 -18 44 -18q25 0 44 19q19 18 19 44zM387 -115v4q0 54 -51 54h-4q-48 0 -48 -47q0 -30 26 -41t26 -19q0 -15 -35 -33q-36 -17 -70 -17q-48 0 -79 27t-31 63q0 46 43 80q44 34 69 61q34 37 45 65 q12 27 12 60l-11 94h-26v-27q0 -37 -19 -56q-16 -16 -69 -52q-32 -21 -69 -66q-37 -43 -37 -107q0 -61 46 -113q45 -51 124 -51q72 0 116 39q42 39 42 82z" />
<glyph unicode="&#xc0;" horiz-adv-x="667" d="M445 765q-20 20 -39 40t-39 40q-19 20 -38 39.5t-39 38.5q-16 16 -33 16q-16 0 -29 -13q-12 -11 -12 -22q0 -17 24 -33l155 -106h50zM664 0v25h-79l-228 658h-35l-239 -658h-80v-25h212v25h-102l62 177h217l59 -177h-103v-25h316zM380 227h-194l101 279z" />
<glyph unicode="&#xc1;" horiz-adv-x="667" d="M475 904q0 10 -12 22q-15 13 -28 13q-17 0 -33 -16q-20 -19 -39.5 -38.5l-39.5 -39.5l-38 -40l-38 -40h50l155 106q23 16 23 33zM664 0v25h-79l-228 658h-35l-239 -658h-80v-25h212v25h-102l62 177h217l59 -177h-103v-25h316zM380 227h-194l101 279z" />
<glyph unicode="&#xc2;" horiz-adv-x="667" d="M490 751l-125 169h-68l-125 -169h43l116 104l116 -104h43zM664 0v25h-79l-228 658h-35l-239 -658h-80v-25h212v25h-102l62 177h217l59 -177h-103v-25h316zM380 227h-194l101 279z" />
<glyph unicode="&#xc3;" horiz-adv-x="667" d="M503 880h-34q-8 -26 -23 -37q-15 -12 -31 -12q-25 0 -68 24q-44 23 -78 23q-40 0 -69 -29t-42 -82h34q6 25 22 37t32 12q24 0 68 -24q44 -23 78 -23q40 0 69 29t42 82zM664 0v25h-79l-228 658h-35l-239 -658h-80v-25h212v25h-102l62 177h217l59 -177h-103v-25h316z M380 227h-194l101 279z" />
<glyph unicode="&#xc4;" horiz-adv-x="667" d="M484 808q0 21 -16 37q-15 15 -37 15t-38 -16q-15 -15 -15 -36t16 -37q15 -15 37 -15t38 16q15 15 15 36zM281 808q0 21 -16 37q-15 15 -37 15t-38 -16q-15 -15 -15 -36t16 -37q15 -15 37 -15t38 16q15 15 15 36zM664 0v25h-79l-228 658h-35l-239 -658h-80v-25h212v25 h-102l62 177h217l59 -177h-103v-25h316zM380 227h-194l101 279z" />
<glyph unicode="&#xc5;" horiz-adv-x="667" d="M433 819q0 42 -30 72t-72 30t-72 -30t-30 -72t30 -72t72 -30t72 30t30 72zM392 819q0 -26 -18 -44q-17 -17 -43 -17q-25 0 -43 18q-18 16 -18 43q0 25 18 43t43 18q26 0 44 -18q17 -19 17 -43zM664 0v25h-79l-228 658h-35l-239 -658h-80v-25h212v25h-102l62 177h217 l59 -177h-103v-25h316zM380 227h-194l101 279z" />
<glyph unicode="&#xc6;" horiz-adv-x="1000" d="M931 215h-29q-15 -97 -54 -143q-38 -47 -134 -47h-131v306h24q76 0 101 -40q24 -39 24 -92h28v279h-28q0 -49 -25 -86q-24 -36 -100 -36h-24v287h112q82 0 124 -30q42 -29 65 -125h28l-7 180h-646v-25q97 0 100 -32l1 -11q0 -26 -17 -62l-260 -513h-63v-25h196v25h-103 l112 220h231v-220h-99v-25h565zM456 273h-216l196 370h20v-370z" />
<glyph unicode="&#xc7;" horiz-adv-x="667" d="M595 -6v204h-29q-29 -110 -81 -149q-53 -39 -112 -39q-88 0 -131 60q-43 59 -43 173v182q0 111 42 173q40 60 126 60q59 0 114 -37q55 -36 76 -141h29v193h-23l-39 -42q-25 21 -65 37q-38 15 -88 15q-131 0 -226 -104q-93 -104 -93 -248q0 -139 94 -242q72 -81 164 -99 l-39 -89l16 -4l30 5q18 0 31 -13q12 -12 12 -29q0 -16 -17 -27t-42 -11q-23 0 -38 5q-12 4 -22 9l-12 -32q15 -10 33 -14q22 -5 49 -5q59 0 94 21q34 21 34 61q0 33 -23 54q-23 20 -59 20h-9t-9 -1q-4 -1 -7.5 -2t-7.5 -3l21 51q5 -1 8 -1h9q47 0 92 14q42 13 78 42l41 -47 h22z" />
<glyph unicode="&#xc8;" horiz-adv-x="667" d="M448 765q-20 20 -39 40t-39 40q-19 20 -38 39.5t-39 38.5q-16 16 -33 16q-16 0 -29 -13q-12 -11 -12 -22q0 -17 24 -33l155 -106h50zM612 215h-29q-15 -96 -53 -143t-135 -47h-134v306h27q76 0 101 -40q24 -39 24 -92h28v279h-28q0 -49 -25 -86q-24 -36 -100 -36h-27v287 h115q83 0 125 -30q42 -29 64 -125h28l-7 180h-551v-25h99v-618h-99v-25h568z" />
<glyph unicode="&#xc9;" horiz-adv-x="667" d="M478 904q0 10 -12 22q-15 13 -28 13q-17 0 -33 -16q-20 -19 -39.5 -38.5l-39.5 -39.5l-38 -40l-38 -40h50l155 106q23 16 23 33zM612 215h-29q-15 -96 -53 -143t-135 -47h-134v306h27q76 0 101 -40q24 -39 24 -92h28v279h-28q0 -49 -25 -86q-24 -36 -100 -36h-27v287h115 q83 0 125 -30q42 -29 64 -125h28l-7 180h-551v-25h99v-618h-99v-25h568z" />
<glyph unicode="&#xca;" horiz-adv-x="667" d="M493 751l-125 169h-68l-125 -169h43l116 104l116 -104h43zM612 215h-29q-15 -96 -53 -143t-135 -47h-134v306h27q76 0 101 -40q24 -39 24 -92h28v279h-28q0 -49 -25 -86q-24 -36 -100 -36h-27v287h115q83 0 125 -30q42 -29 64 -125h28l-7 180h-551v-25h99v-618h-99v-25 h568z" />
<glyph unicode="&#xcb;" horiz-adv-x="667" d="M487 808q0 21 -16 37q-15 15 -37 15t-38 -16q-15 -15 -15 -36t16 -37q15 -15 37 -15t38 16q15 15 15 36zM284 808q0 21 -16 37q-15 15 -37 15t-38 -16q-15 -15 -15 -36t16 -37q15 -15 37 -15t38 16q15 15 15 36zM612 215h-29q-15 -96 -53 -143t-135 -47h-134v306h27 q76 0 101 -40q24 -39 24 -92h28v279h-28q0 -49 -25 -86q-24 -36 -100 -36h-27v287h115q83 0 125 -30q42 -29 64 -125h28l-7 180h-551v-25h99v-618h-99v-25h568z" />
<glyph unicode="&#xcc;" horiz-adv-x="389" d="M309 765q-20 20 -39 40t-39 40q-19 20 -38 39.5t-39 38.5q-16 16 -33 16q-16 0 -29 -13q-12 -11 -12 -22q0 -17 24 -33l155 -106h50zM357 0v25h-99v618h99v25h-326v-25h99v-618h-99v-25h326z" />
<glyph unicode="&#xcd;" horiz-adv-x="389" d="M339 904q0 10 -12 22q-15 13 -28 13q-17 0 -33 -16q-20 -19 -39.5 -38.5l-39.5 -39.5l-38 -40l-38 -40h50l155 106q23 16 23 33zM357 0v25h-99v618h99v25h-326v-25h99v-618h-99v-25h326z" />
<glyph unicode="&#xce;" horiz-adv-x="389" d="M354 751l-125 169h-68l-125 -169h43l116 104l116 -104h43zM357 0v25h-99v618h99v25h-326v-25h99v-618h-99v-25h326z" />
<glyph unicode="&#xcf;" horiz-adv-x="389" d="M348 808q0 21 -16 37q-15 15 -37 15t-38 -16q-15 -15 -15 -36t16 -37q15 -15 37 -15t38 16q15 15 15 36zM145 808q0 21 -16 37q-15 15 -37 15t-38 -16q-15 -15 -15 -36t16 -37q15 -15 37 -15t38 16q15 15 15 36zM357 0v25h-99v618h99v25h-326v-25h99v-618h-99v-25h326z " />
<glyph unicode="&#xd0;" horiz-adv-x="722" d="M673 333q0 146 -91 240q-90 95 -252 95h-303v-22l99 1v-253h-102v-32h102v-337h-99v-25h291q184 0 269 97q86 97 86 236zM536 353q0 -175 -44 -252q-43 -76 -171 -76h-68v337h143v32h-143v249h45q150 0 195 -59q43 -60 43 -231z" />
<glyph unicode="&#xd1;" horiz-adv-x="722" d="M530 880h-34q-8 -26 -23 -37q-15 -12 -31 -12q-25 0 -68 24q-44 23 -78 23q-40 0 -69 -29t-42 -82h34q6 25 22 37t32 12q24 0 68 -24q44 -23 78 -23q40 0 69 29t42 82zM702 643v25h-227v-25h96v-412l-296 437h-256v-25h98v-618h-98v-25h228v25h-98v599l424 -637h30v656 h99z" />
<glyph unicode="&#xd2;" horiz-adv-x="722" d="M474 765q-20 20 -39 40t-39 40q-19 20 -38 39.5t-39 38.5q-16 16 -33 16q-16 0 -29 -13q-12 -11 -12 -22q0 -17 24 -33l155 -106h50zM672 334q0 141 -94 245q-95 104 -218 104q-124 0 -218 -105q-93 -104 -93 -244q0 -141 94 -245q93 -104 217 -104q123 0 218 105 q94 103 94 244zM525 215q0 -100 -41 -153q-40 -52 -124 -52t-124 52t-40 153v238q0 101 40 153t124 52q83 0 125 -52q40 -54 40 -153v-238z" />
<glyph unicode="&#xd3;" horiz-adv-x="722" d="M504 904q0 10 -12 22q-15 13 -28 13q-17 0 -33 -16q-20 -19 -39.5 -38.5l-39.5 -39.5l-38 -40l-38 -40h50l155 106q23 16 23 33zM672 334q0 141 -94 245q-95 104 -218 104q-124 0 -218 -105q-93 -104 -93 -244q0 -141 94 -245q93 -104 217 -104q123 0 218 105 q94 103 94 244zM525 215q0 -100 -41 -153q-40 -52 -124 -52t-124 52t-40 153v238q0 101 40 153t124 52q83 0 125 -52q40 -54 40 -153v-238z" />
<glyph unicode="&#xd4;" horiz-adv-x="722" d="M519 751l-125 169h-68l-125 -169h43l116 104l116 -104h43zM672 334q0 141 -94 245q-95 104 -218 104q-124 0 -218 -105q-93 -104 -93 -244q0 -141 94 -245q93 -104 217 -104q123 0 218 105q94 103 94 244zM525 215q0 -100 -41 -153q-40 -52 -124 -52t-124 52t-40 153v238 q0 101 40 153t124 52q83 0 125 -52q40 -54 40 -153v-238z" />
<glyph unicode="&#xd5;" horiz-adv-x="722" d="M532 880h-34q-8 -26 -23 -37q-15 -12 -31 -12q-25 0 -68 24q-44 23 -78 23q-40 0 -69 -29t-42 -82h34q6 25 22 37t32 12q24 0 68 -24q44 -23 78 -23q40 0 69 29t42 82zM672 334q0 141 -94 245q-95 104 -218 104q-124 0 -218 -105q-93 -104 -93 -244q0 -141 94 -245 q93 -104 217 -104q123 0 218 105q94 103 94 244zM525 215q0 -100 -41 -153q-40 -52 -124 -52t-124 52t-40 153v238q0 101 40 153t124 52q83 0 125 -52q40 -54 40 -153v-238z" />
<glyph unicode="&#xd6;" horiz-adv-x="722" d="M513 808q0 21 -16 37q-15 15 -37 15t-38 -16q-15 -15 -15 -36t16 -37q15 -15 37 -15t38 16q15 15 15 36zM310 808q0 21 -16 37q-15 15 -37 15t-38 -16q-15 -15 -15 -36t16 -37q15 -15 37 -15t38 16q15 15 15 36zM672 334q0 141 -94 245q-95 104 -218 104 q-124 0 -218 -105q-93 -104 -93 -244q0 -141 94 -245q93 -104 217 -104q123 0 218 105q94 103 94 244zM525 215q0 -100 -41 -153q-40 -52 -124 -52t-124 52t-40 153v238q0 101 40 153t124 52q83 0 125 -52q40 -54 40 -153v-238z" />
<glyph unicode="&#xd7;" d="M473 40l-182 182l182 182l-40 40l-182 -182l-182 182l-40 -40l182 -182l-182 -182l40 -40l182 182l182 -182z" />
<glyph unicode="&#xd8;" horiz-adv-x="722" d="M672 334q0 141 -94 244q-4 4 -8 8.5t-9 9.5l84 122h-50l-65 -95q-74 60 -170 60q-124 0 -218 -105q-93 -104 -93 -244t93 -245q3 -3 6 -6.5t7 -7.5l-91 -133h50l72 105q76 -62 174 -62q123 0 218 105q94 103 94 244zM500 580l-298 -436q-6 24 -6 71v238q0 101 40 153 t124 52t124 -52q4 -5 7.5 -11.5t8.5 -14.5zM525 215q0 -100 -41 -153q-40 -52 -124 -52t-124 52q-4 5 -8.5 13t-9.5 18l299 438q8 -27 8 -78v-238z" />
<glyph unicode="&#xd9;" horiz-adv-x="722" d="M475 765q-20 20 -39 40t-39 40q-19 20 -38 39.5t-39 38.5q-16 16 -33 16q-16 0 -29 -13q-12 -11 -12 -22q0 -17 24 -33l155 -106h50zM706 643v25h-229v-25h99v-442q0 -89 -45 -137q-44 -47 -129 -47q-83 0 -122 42q-39 40 -39 128v456h99v25h-325v-25h99v-411 q0 -134 58 -191q58 -56 189 -56q130 0 188 55q58 54 58 178v425h99z" />
<glyph unicode="&#xda;" horiz-adv-x="722" d="M505 904q0 10 -12 22q-15 13 -28 13q-17 0 -33 -16q-20 -19 -39.5 -38.5l-39.5 -39.5l-38 -40l-38 -40h50l155 106q23 16 23 33zM706 643v25h-229v-25h99v-442q0 -89 -45 -137q-44 -47 -129 -47q-83 0 -122 42q-39 40 -39 128v456h99v25h-325v-25h99v-411q0 -134 58 -191 q58 -56 189 -56q130 0 188 55q58 54 58 178v425h99z" />
<glyph unicode="&#xdb;" horiz-adv-x="722" d="M520 751l-125 169h-68l-125 -169h43l116 104l116 -104h43zM706 643v25h-229v-25h99v-442q0 -89 -45 -137q-44 -47 -129 -47q-83 0 -122 42q-39 40 -39 128v456h99v25h-325v-25h99v-411q0 -134 58 -191q58 -56 189 -56q130 0 188 55q58 54 58 178v425h99z" />
<glyph unicode="&#xdc;" horiz-adv-x="722" d="M514 808q0 21 -16 37q-15 15 -37 15t-38 -16q-15 -15 -15 -36t16 -37q15 -15 37 -15t38 16q15 15 15 36zM311 808q0 21 -16 37q-15 15 -37 15t-38 -16q-15 -15 -15 -36t16 -37q15 -15 37 -15t38 16q15 15 15 36zM706 643v25h-229v-25h99v-442q0 -89 -45 -137 q-44 -47 -129 -47q-83 0 -122 42q-39 40 -39 128v456h99v25h-325v-25h99v-411q0 -134 58 -191q58 -56 189 -56q130 0 188 55q58 54 58 178v425h99z" />
<glyph unicode="&#xdd;" horiz-adv-x="667" d="M517 904q0 10 -12 22q-15 13 -28 13q-17 0 -33 -16q-20 -19 -39.5 -38.5l-39.5 -39.5l-38 -40l-38 -40h50l155 106q23 16 23 33zM667 643v25h-216v-25h104l-161 -287l-170 287h102v25h-325v-25h73l210 -340v-278h-106v-25h344v25h-111v300l174 318h82z" />
<glyph unicode="&#xde;" horiz-adv-x="667" d="M644 378q0 92 -66 136q-65 44 -189 44h-121v85h107v25h-339v-25h105v-618h-99v-25h339v25h-113v169h113q121 0 192 49q71 48 71 135zM503 381q0 -81 -28 -121q-27 -40 -88 -40h-119v313h123q60 0 86 -38t26 -114z" />
<glyph unicode="&#xdf;" horiz-adv-x="556" d="M515 185q0 78 -50 130q-49 51 -122 61q73 19 105 60q31 42 31 95q0 64 -55 109q-57 43 -139 43q-83 0 -136 -44q-53 -42 -53 -135v-479h-71v-25h175v565q0 60 25 79q27 19 57 19q48 0 68 -30q19 -30 19 -113q0 -79 -19 -107q-18 -27 -66 -27q-4 0 -8.5 -0.5t-9.5 -1.5 q-10 -1 -10 -9q0 -7 12 -10t22 -3q66 0 85 -46q20 -48 20 -135q0 -79 -10 -122q-11 -44 -44 -44q-16 0 -24 4q-8 5 -8 10q0 7 14 19q14 11 14 33q0 44 -42 44h-8q-25 0 -37.5 -15t-12.5 -42q0 -31 26 -54q25 -21 75 -21q81 0 129 58q48 57 48 134z" />
<glyph unicode="&#xe0;" d="M360 549q-20 20 -39 40t-39 40q-19 20 -38 39.5t-39 38.5q-17 16 -33 16t-29 -13q-12 -11 -12 -22q0 -17 24 -33l155 -106h50zM473 38l-12 14q-2 -2 -6.5 -5.5t-9.5 -8.5q-11 -9 -19 -9q-11 0 -18 6q-6 4 -6 14v358q0 55 -46 89q-48 34 -116 34q-73 0 -118 -30 q-45 -31 -44 -74q1 -45 49 -45q47 0 51 43q0 21 -9 38q-8 16 -8 18q0 9 23 20q21 10 49 10q23 0 46 -18q21 -18 21 -44v-163h-26q-12 0 -25 -1t-25 -2t-23 -3q-67 -12 -109 -55q-42 -42 -42 -112q0 -55 27 -92q27 -36 76 -36q37 0 76 17q36 16 71 54q3 -28 23 -50 q18 -20 56 -20q33 0 54 15q21 16 40 38zM300 177q0 -56 -23 -100q-22 -43 -59 -43q-33 0 -48 31t-15 78q0 49 19 77q18 28 52 37q15 3 26 3q9 0 17 -3q16 -7 31 -18v-62z" />
<glyph unicode="&#xe1;" d="M399 684q0 11 -12 22q-13 13 -28 13q-17 0 -33 -16q-20 -19 -39.5 -38t-39.5 -40l-38 -40l-38 -40h50l155 106q23 16 23 33zM473 38l-12 14q-2 -2 -6.5 -5.5t-9.5 -8.5q-11 -9 -19 -9q-11 0 -18 6q-6 4 -6 14v358q0 55 -46 89q-48 34 -116 34q-73 0 -118 -30 q-45 -31 -44 -74q1 -45 49 -45q47 0 51 43q0 21 -9 38q-8 16 -8 18q0 9 23 20q21 10 49 10q23 0 46 -18q21 -18 21 -44v-163h-26q-12 0 -25 -1t-25 -2t-23 -3q-67 -12 -109 -55q-42 -42 -42 -112q0 -55 27 -92q27 -36 76 -36q37 0 76 17q36 16 71 54q3 -28 23 -50 q18 -20 56 -20q33 0 54 15q21 16 40 38zM300 177q0 -56 -23 -100q-22 -43 -59 -43q-33 0 -48 31t-15 78q0 49 19 77q18 28 52 37q15 3 26 3q9 0 17 -3q16 -7 31 -18v-62z" />
<glyph unicode="&#xe2;" d="M408 562l-125 169h-68l-125 -169h43l116 104l116 -104h43zM473 38l-12 14q-2 -2 -6.5 -5.5t-9.5 -8.5q-11 -9 -19 -9q-11 0 -18 6q-6 4 -6 14v358q0 55 -46 89q-48 34 -116 34q-73 0 -118 -30q-45 -31 -44 -74q1 -45 49 -45q47 0 51 43q0 21 -9 38q-8 16 -8 18q0 9 23 20 q21 10 49 10q23 0 46 -18q21 -18 21 -44v-163h-26q-12 0 -25 -1t-25 -2t-23 -3q-67 -12 -109 -55q-42 -42 -42 -112q0 -55 27 -92q27 -36 76 -36q37 0 76 17q36 16 71 54q3 -28 23 -50q18 -20 56 -20q33 0 54 15q21 16 40 38zM300 177q0 -56 -23 -100q-22 -43 -59 -43 q-33 0 -48 31t-15 78q0 49 19 77q18 28 52 37q15 3 26 3q9 0 17 -3q16 -7 31 -18v-62z" />
<glyph unicode="&#xe3;" d="M421 658h-34q-8 -26 -23 -37q-15 -12 -31 -12q-28 0 -68 23q-44 24 -78 24q-42 0 -69 -29q-29 -29 -42 -82h34q6 26 22 37q15 12 32 12q24 0 68 -24q40 -23 78 -23q41 0 69 28q27 28 42 83zM473 38l-12 14q-2 -2 -6.5 -5.5t-9.5 -8.5q-11 -9 -19 -9q-11 0 -18 6 q-6 4 -6 14v358q0 55 -46 89q-48 34 -116 34q-73 0 -118 -30q-45 -31 -44 -74q1 -45 49 -45q47 0 51 43q0 21 -9 38q-8 16 -8 18q0 9 23 20q21 10 49 10q23 0 46 -18q21 -18 21 -44v-163h-26q-12 0 -25 -1t-25 -2t-23 -3q-67 -12 -109 -55q-42 -42 -42 -112q0 -55 27 -92 q27 -36 76 -36q37 0 76 17q36 16 71 54q3 -28 23 -50q18 -20 56 -20q33 0 54 15q21 16 40 38zM300 177q0 -56 -23 -100q-22 -43 -59 -43q-33 0 -48 31t-15 78q0 49 19 77q18 28 52 37q15 3 26 3q9 0 17 -3q16 -7 31 -18v-62z" />
<glyph unicode="&#xe4;" d="M399 614q0 20 -16 36q-15 16 -37 16q-23 0 -38 -16q-15 -15 -15 -36t15 -37q15 -15 38 -15q22 0 37 15q16 18 16 37zM196 614q0 20 -16 36q-15 16 -37 16q-23 0 -38 -16q-15 -15 -15 -36t15 -37q15 -15 38 -15q22 0 37 15q16 18 16 37zM473 38l-12 14q-2 -2 -6.5 -5.5 t-9.5 -8.5q-11 -9 -19 -9q-11 0 -18 6q-6 4 -6 14v358q0 55 -46 89q-48 34 -116 34q-73 0 -118 -30q-45 -31 -44 -74q1 -45 49 -45q47 0 51 43q0 21 -9 38q-8 16 -8 18q0 9 23 20q21 10 49 10q23 0 46 -18q21 -18 21 -44v-163h-26q-12 0 -25 -1t-25 -2t-23 -3 q-67 -12 -109 -55q-42 -42 -42 -112q0 -55 27 -92q27 -36 76 -36q37 0 76 17q36 16 71 54q3 -28 23 -50q18 -20 56 -20q33 0 54 15q21 16 40 38zM300 177q0 -56 -23 -100q-22 -43 -59 -43q-33 0 -48 31t-15 78q0 49 19 77q18 28 52 37q15 3 26 3q9 0 17 -3q16 -7 31 -18v-62 z" />
<glyph unicode="&#xe5;" d="M339 639q0 42 -30 72t-72 30t-72 -30t-30 -72t30 -72t72 -30t72 30t30 72zM298 639q0 -27 -18 -43q-18 -18 -43 -18t-43 18q-18 16 -18 43q0 25 18 43t43 18t43 -18t18 -43zM473 38l-12 14q-2 -2 -6.5 -5.5t-9.5 -8.5q-11 -9 -19 -9q-11 0 -18 6q-6 4 -6 14v358 q0 55 -46 89q-48 34 -116 34q-73 0 -118 -30q-45 -31 -44 -74q1 -45 49 -45q47 0 51 43q0 21 -9 38q-8 16 -8 18q0 9 23 20q21 10 49 10q23 0 46 -18q21 -18 21 -44v-163h-26q-12 0 -25 -1t-25 -2t-23 -3q-67 -12 -109 -55q-42 -42 -42 -112q0 -55 27 -92q27 -36 76 -36 q37 0 76 17q36 16 71 54q3 -28 23 -50q18 -20 56 -20q33 0 54 15q21 16 40 38zM300 177q0 -56 -23 -100q-22 -43 -59 -43q-33 0 -48 31t-15 78q0 49 19 77q18 28 52 37q15 3 26 3q9 0 17 -3q16 -7 31 -18v-62z" />
<glyph unicode="&#xe6;" horiz-adv-x="667" d="M644 189h-25q-14 -61 -51 -122q-38 -62 -100 -62q-50 0 -71 48t-21 136v96h244q10 0 16 7q5 8 5 19q0 90 -50 155q-49 64 -118 64q-37 0 -75 -11q-33 -9 -62 -33q-11 18 -47 32q-35 12 -78 12q-73 0 -118 -30q-45 -31 -44 -74q1 -45 49 -45q47 0 51 43q0 21 -9 38 q-8 16 -8 18q0 9 23 20q21 10 50 10q24 0 47 -18q21 -18 21 -44v-163h-26q-12 0 -25 -1t-25 -2t-23 -3q-68 -12 -111 -55q-42 -42 -42 -112q0 -54 35 -92q34 -36 96 -36q41 0 85 27q43 27 56 63q22 -48 59 -69q37 -20 105 -20q65 0 117 50q49 51 70 154zM530 310h-154v18 q0 91 16 136q15 46 62 46q36 0 56 -35q9 -17 14.5 -41t5.5 -55v-69zM273 177q0 -56 -23 -100q-22 -43 -59 -43q-35 0 -50 31t-15 78q0 49 19 77t53 37q15 3 26 3q10 0 18 -3q16 -7 31 -18v-62z" />
<glyph unicode="&#xe7;" horiz-adv-x="444" d="M406 177l-25 -1q-6 -54 -42 -112q-35 -59 -92 -59q-52 0 -72 47q-19 45 -19 137v135q0 85 21 136q20 50 63 50q25 0 49 -9q24 -7 27 -23q0 -11 -16 -24q-16 -12 -16 -36q6 -47 56 -47q51 0 56 54q0 51 -47 78t-102 27q-91 0 -149 -78q-59 -79 -59 -195q0 -114 55 -193 q45 -64 106 -76l-38 -87l16 -4l30 5q18 0 31 -13q12 -12 12 -29q0 -16 -17 -27t-42 -11q-23 0 -38 5q-12 4 -22 9l-12 -32q15 -10 33 -14q22 -5 49 -5q59 0 94 21q34 21 34 61q0 33 -23 54q-23 20 -59 20h-9t-9 -1q-4 -1 -7.5 -2t-7.5 -3l21 50q61 1 107 47q47 48 63 145z " />
<glyph unicode="&#xe8;" horiz-adv-x="444" d="M332 549q-40 39 -77 80q-39 42 -78 78q-16 16 -33 16q-16 0 -29 -13q-12 -11 -12 -22q0 -17 24 -33l155 -106h50zM412 189h-25q-5 -30 -17.5 -60.5t-31.5 -61.5q-38 -62 -99 -62q-49 0 -68 48q-20 49 -20 136v96h249q7 0 7 7q1 4 1.5 8.5t0.5 10.5q0 91 -52 155 q-51 64 -124 64q-83 0 -142 -83t-59 -199q0 -105 58 -184t133 -79q66 0 118 50q50 50 71 154zM298 379l-2 -69h-145v18q0 89 15 136q13 46 60 46q36 0 54 -35q19 -37 18 -96z" />
<glyph unicode="&#xe9;" horiz-adv-x="444" d="M347 707q0 8 -12 22q-15 13 -28 13q-15 0 -33 -16q-20 -19 -39.5 -38.5l-39.5 -39.5q-20 -21 -38.5 -40.5t-37.5 -39.5h50l155 106q23 15 23 33zM412 189h-25q-5 -30 -17.5 -60.5t-31.5 -61.5q-38 -62 -99 -62q-49 0 -68 48q-20 49 -20 136v96h249q7 0 7 7q1 4 1.5 8.5 t0.5 10.5q0 91 -52 155q-51 64 -124 64q-83 0 -142 -83t-59 -199q0 -105 58 -184t133 -79q66 0 118 50q50 50 71 154zM298 379l-2 -69h-145v18q0 89 15 136q13 46 60 46q36 0 54 -35q19 -37 18 -96z" />
<glyph unicode="&#xea;" horiz-adv-x="444" d="M383 528l-125 169h-68l-125 -169h43l116 104l116 -104h43zM412 189h-25q-5 -30 -17.5 -60.5t-31.5 -61.5q-38 -62 -99 -62q-49 0 -68 48q-20 49 -20 136v96h249q7 0 7 7q1 4 1.5 8.5t0.5 10.5q0 91 -52 155q-51 64 -124 64q-83 0 -142 -83t-59 -199q0 -105 58 -184 t133 -79q66 0 118 50q50 50 71 154zM298 379l-2 -69h-145v18q0 89 15 136q13 46 60 46q36 0 54 -35q19 -37 18 -96z" />
<glyph unicode="&#xeb;" horiz-adv-x="444" d="M380 598q0 20 -15 37q-15 15 -38 15q-22 0 -37 -15q-16 -18 -16 -37q0 -20 16 -36q15 -16 37 -16q23 0 38 16q15 15 15 36zM177 598q0 20 -15 37q-15 15 -38 15q-22 0 -37 -15q-16 -18 -16 -37q0 -20 16 -36q15 -16 37 -16q23 0 38 16q15 15 15 36zM412 189h-25 q-5 -30 -17.5 -60.5t-31.5 -61.5q-38 -62 -99 -62q-49 0 -68 48q-20 49 -20 136v96h249q7 0 7 7q1 4 1.5 8.5t0.5 10.5q0 91 -52 155q-51 64 -124 64q-83 0 -142 -83t-59 -199q0 -105 58 -184t133 -79q66 0 118 50q50 50 71 154zM298 379l-2 -69h-145v18q0 89 15 136 q13 46 60 46q36 0 54 -35q19 -37 18 -96z" />
<glyph unicode="&#xec;" horiz-adv-x="278" d="M211 558q-20 20 -38.5 40t-38.5 40q-39 42 -78 78q-16 16 -33 16q-15 0 -29 -13q-12 -11 -12 -22q0 -15 24 -33l155 -106h50zM266 0v25h-73v504l-180 -5v-25h72v-474h-75v-25h256z" />
<glyph unicode="&#xed;" horiz-adv-x="278" d="M291 694q0 11 -12 22q-13 13 -28 13q-17 0 -33 -16q-20 -19 -39.5 -38t-39.5 -40l-38 -40l-38 -40h50l155 106q23 16 23 33zM266 0v25h-73v504l-180 -5v-25h72v-474h-75v-25h256z" />
<glyph unicode="&#xee;" horiz-adv-x="278" d="M282 547l-125 169h-68l-125 -169h43l116 104l116 -104h43zM266 0v25h-73v504l-180 -5v-25h72v-474h-75v-25h256z" />
<glyph unicode="&#xef;" horiz-adv-x="278" d="M294 607q0 20 -15 37q-17 15 -38 15q-22 0 -37 -15q-16 -16 -16 -37t16 -36q15 -16 37 -16t38 16q15 15 15 36zM91 607q0 20 -15 37q-17 15 -38 15q-22 0 -37 -15q-16 -16 -16 -37t16 -36q15 -16 37 -16t38 16q15 15 15 36zM266 0v25h-73v504l-180 -5v-25h72v-474h-75 v-25h256z" />
<glyph unicode="&#xf0;" d="M460 332q0 150 -85 238q-10 10 -23.5 21.5t-31.5 24.5l83 49l-20 23l-93 -54q-52 33 -155 50l-12 -19q108 -18 144 -45l-134 -78l19 -26l141 83l2 -2q42 -47 42 -100q-20 15 -42 24q-21 9 -45 9q-88 0 -149 -82q-61 -84 -61 -194q0 -111 62 -191q61 -79 148 -79 q99 0 155 96q55 94 55 252zM340 193q0 -90 -20 -141q-20 -48 -70 -48q-52 0 -71 48q-19 47 -19 141v122q0 96 18 146q18 49 72 49t72 -50t18 -145v-122z" />
<glyph unicode="&#xf1;" horiz-adv-x="556" d="M440 683h-34q-6 -24 -22 -37q-17 -12 -32 -12q-26 0 -68 23q-42 24 -78 24q-40 0 -69 -29q-27 -29 -42 -82h34q6 24 22 37q16 12 32 12q26 0 68 -24q42 -23 78 -23q42 0 69 28q28 28 42 83zM533 0v25h-64v304q0 100 -28 150q-29 51 -95 51q-43 0 -83 -22q-40 -21 -66 -74 v95l-174 -5v-25h68v-474h-68v-25h237v25h-63v232q0 114 35 176q34 61 77 61q34 0 45 -42q5 -20 7.5 -50t2.5 -69v-308h-63v-25h232z" />
<glyph unicode="&#xf2;" d="M355 552q-40 39 -77 80q-39 40 -78 78q-16 16 -33 16q-15 0 -29 -13q-12 -11 -12 -22q0 -17 24 -33l155 -106h50zM460 257q0 110 -64 192q-63 81 -147 81q-83 0 -147 -82q-63 -81 -63 -191q0 -109 64 -191q63 -81 146 -81q84 0 148 82q63 81 63 190zM340 192 q0 -93 -19 -140q-20 -47 -72 -47t-71 48q-19 45 -19 139v131q0 93 19 140q20 47 71 47q52 0 72 -48q19 -45 19 -139v-131z" />
<glyph unicode="&#xf3;" d="M389 704q0 10 -12 22q-15 13 -28 13q-15 0 -33 -16q-41 -38 -78 -78q-20 -21 -39 -40.5t-38 -39.5h50l155 106q23 14 23 33zM460 257q0 110 -64 192q-63 81 -147 81q-83 0 -147 -82q-63 -81 -63 -191q0 -109 64 -191q63 -81 146 -81q84 0 148 82q63 81 63 190zM340 192 q0 -93 -19 -140q-20 -47 -72 -47t-71 48q-19 45 -19 139v131q0 93 19 140q20 47 71 47q52 0 72 -48q19 -45 19 -139v-131z" />
<glyph unicode="&#xf4;" d="M404 553l-125 169h-68l-125 -169h43l116 104l116 -104h43zM460 257q0 110 -64 192q-63 81 -147 81q-83 0 -147 -82q-63 -81 -63 -191q0 -109 64 -191q63 -81 146 -81q84 0 148 82q63 81 63 190zM340 192q0 -93 -19 -140q-20 -47 -72 -47t-71 48q-19 45 -19 139v131 q0 93 19 140q20 47 71 47q52 0 72 -48q19 -45 19 -139v-131z" />
<glyph unicode="&#xf5;" d="M429 694h-34q-8 -26 -23 -37q-15 -12 -31 -12q-25 0 -68 24q-44 23 -78 23q-41 0 -69 -28t-42 -83h34q6 25 22 37t32 12q24 0 68 -23q43 -24 78 -24q40 0 69 29t42 82zM460 257q0 110 -64 192q-63 81 -147 81q-83 0 -147 -82q-63 -81 -63 -191q0 -109 64 -191 q63 -81 146 -81q84 0 148 82q63 81 63 190zM340 192q0 -93 -19 -140q-20 -47 -72 -47t-71 48q-19 45 -19 139v131q0 93 19 140q20 47 71 47q52 0 72 -48q19 -45 19 -139v-131z" />
<glyph unicode="&#xf6;" d="M401 622q0 22 -15 37q-17 15 -38 15q-22 0 -37 -15q-16 -15 -16 -37q0 -21 16 -36q16 -16 37 -16q20 0 38 16q15 15 15 36zM198 622q0 22 -15 37q-17 15 -38 15q-22 0 -37 -15q-16 -15 -16 -37q0 -21 16 -36q16 -16 37 -16q20 0 38 16q15 15 15 36zM460 257 q0 110 -64 192q-63 81 -147 81q-83 0 -147 -82q-63 -81 -63 -191q0 -109 64 -191q63 -81 146 -81q84 0 148 82q63 81 63 190zM340 192q0 -93 -19 -140q-20 -47 -72 -47t-71 48q-19 45 -19 139v131q0 93 19 140q20 47 71 47q52 0 72 -48q19 -45 19 -139v-131z" />
<glyph unicode="&#xf7;" d="M312 379q0 26 -19 45q-18 18 -44 18t-45 -19q-18 -18 -18 -44t19 -45q18 -18 44 -18t45 19q18 18 18 44zM473 195v54h-443v-54h443zM312 63q0 26 -19 45q-18 18 -44 18t-45 -19q-18 -18 -18 -44t19 -45q18 -18 44 -18t45 19q18 18 18 44z" />
<glyph unicode="&#xf8;" d="M460 257q0 111 -64 191q-5 6 -10.5 12t-11.5 13l64 131h-44l-51 -104q-41 30 -94 30q-83 0 -147 -82q-63 -81 -63 -191q0 -109 63 -191q4 -5 9 -10.5t10 -10.5l-69 -141l44 1l55 113q43 -33 98 -33q84 0 148 82q63 81 63 190zM323 458l-161 -329q-3 21 -3 63v131 q0 93 19 140q20 47 71 47q52 0 72 -48zM340 192q0 -93 -19 -140q-20 -47 -72 -47q-51 0 -71 47q-1 2 -2 5t-2 7l162 332q4 -23 4 -73v-131z" />
<glyph unicode="&#xf9;" horiz-adv-x="556" d="M383 554q-20 20 -39 40t-39 40q-19 21 -38 40.5t-39 37.5q-16 16 -33 16q-16 0 -29 -13q-12 -11 -12 -22q0 -15 24 -33l155 -106h50zM534 0v25h-69v503l-183 -4v-25h75v-279q0 -83 -35 -144q-35 -59 -83 -59q-23 0 -34 26q-10 24 -10 71v414l-173 -4v-25h65v-354 q0 -73 32 -117q30 -43 89 -43q43 0 81 23q37 21 69 74v-90q17 3 31 4.5t24 2.5t40 1h81z" />
<glyph unicode="&#xfa;" horiz-adv-x="556" d="M425 694q0 11 -12 22q-13 13 -28 13q-17 0 -33 -16q-20 -18 -39.5 -37.5t-39.5 -40.5l-38 -40l-38 -40h50l155 106q23 16 23 33zM534 0v25h-69v503l-183 -4v-25h75v-279q0 -83 -35 -144q-35 -59 -83 -59q-23 0 -34 26q-10 24 -10 71v414l-173 -4v-25h65v-354 q0 -73 32 -117q30 -43 89 -43q43 0 81 23q37 21 69 74v-90q17 3 31 4.5t24 2.5t40 1h81z" />
<glyph unicode="&#xfb;" horiz-adv-x="556" d="M437 543l-125 169h-68l-125 -169h43l116 104l116 -104h43zM534 0v25h-69v503l-183 -4v-25h75v-279q0 -83 -35 -144q-35 -59 -83 -59q-23 0 -34 26q-10 24 -10 71v414l-173 -4v-25h65v-354q0 -73 32 -117q30 -43 89 -43q43 0 81 23q37 21 69 74v-90q17 3 31 4.5t24 2.5 t40 1h81z" />
<glyph unicode="&#xfc;" horiz-adv-x="556" d="M434 635q0 21 -16 37q-15 15 -37 15t-38 -15q-15 -17 -15 -37q0 -21 15 -36q16 -16 38 -16t37 16q16 15 16 36zM231 635q0 21 -16 37q-15 15 -37 15t-38 -15q-15 -17 -15 -37q0 -21 15 -36q16 -16 38 -16t37 16q16 15 16 36zM534 0v25h-69v503l-183 -4v-25h75v-279 q0 -83 -35 -144q-35 -59 -83 -59q-23 0 -34 26q-10 24 -10 71v414l-173 -4v-25h65v-354q0 -73 32 -117q30 -43 89 -43q43 0 81 23q37 21 69 74v-90q17 3 31 4.5t24 2.5t40 1h81z" />
<glyph unicode="&#xfd;" d="M476 499v25h-158v-25h72l-95 -346l-111 346h18l-6 -6h50l155 106q23 16 23 33q0 10 -12 22q-15 13 -28 13q-17 0 -33 -16q-20 -19 -39.5 -38.5l-39.5 -39.5q-11 -13 -23 -25t-23 -24h-207v-25h49l176 -472l-23 -91q-17 -38 -27 -60t-14 -29q-8 -12 -12 -12t-7 4 q-1 3 -5 7q-18 22 -42 22q-4 0 -8 -0.5t-9 -1.5q-36 -9 -36 -48q0 -25 18 -38q19 -14 37 -14q37 0 69 41q16 20 30 44.5t23 54.5l182 593h56z" />
<glyph unicode="&#xfe;" horiz-adv-x="556" d="M509 257q0 113 -56 193q-54 80 -133 80q-33 0 -65 -20q-31 -19 -58 -63v236q-29 -5 -51.5 -8t-38.5 -5q-16 -1 -38.5 -1.5t-51.5 -0.5v-25h72v-852h-71v-25h248v25h-69v268q20 -41 53 -58q31 -16 65 -16q78 0 137 81q57 79 57 191zM391 152q0 -63 -20 -106 q-18 -41 -52 -41q-54 0 -88 57q-34 55 -34 140v128q0 34 10.5 64.5t30.5 59.5q38 56 79 56q35 0 55 -41q19 -39 19 -106v-211z" />
<glyph unicode="&#xff;" d="M476 499v25h-44q1 4 1 12q0 21 -16 37q-15 15 -37 15t-38 -16q-15 -15 -15 -36q0 -8 1 -12h-10v-25h25q15 -15 37 -15h6l-91 -331l-107 332q15 3 26 14h34v25h-19q1 4 1 12q0 21 -16 37q-15 15 -37 15t-38 -16q-15 -15 -15 -36q0 -8 1 -12h-106v-25h49l176 -472l-23 -91 q-17 -38 -27 -60t-14 -29q-8 -12 -12 -12t-7 4q-1 3 -5 7q-18 22 -42 22q-4 0 -8 -0.5t-9 -1.5q-36 -9 -36 -48q0 -25 18 -38q19 -14 37 -14q37 0 69 41q16 20 30 44.5t23 54.5l182 593h56z" />
<glyph unicode="&#x152;" horiz-adv-x="1000" d="M969 215h-29q-15 -97 -54 -143q-38 -47 -134 -47h-131v306h24q76 0 101 -40q24 -39 24 -92h28v279h-28q0 -49 -25 -86q-24 -36 -100 -36h-24v287h112q82 0 124 -30q42 -29 65 -125h28l-7 180h-612q-129 0 -222 -96q-92 -97 -92 -231q0 -147 89 -245q87 -96 225 -96h629z M494 156q0 -69 -36 -100q-35 -31 -102 -31q-102 0 -147 62q-44 62 -44 192v120q0 122 47 184q45 60 149 60q70 0 101 -34q32 -35 32 -118v-335z" />
<glyph unicode="&#x153;" horiz-adv-x="722" d="M698 189h-25q-12 -61 -51 -122q-38 -62 -101 -62q-51 0 -72 48t-21 136v96h243q12 0 18 7t6 19q0 91 -52 155q-51 64 -122 64q-47 0 -86 -17q-37 -15 -61 -42q-22 25 -61 43q-40 16 -83 16q-82 0 -143 -82t-61 -191q0 -108 62 -191q60 -81 142 -81q55 0 88 16 q35 15 57 40q11 -13 25 -23t31 -18q34 -15 80 -15q65 0 117 50q50 50 70 154zM584 379q0 -24 -3 -43q-3 -18 -9 -26h-144v18q0 91 16 136q16 46 63 46q37 0 57 -35t20 -96zM326 192q0 -93 -19 -140q-20 -47 -71 -47q-52 0 -71 48q-19 45 -19 139v131q0 93 19 140 q20 47 71 47t71 -48q19 -45 19 -139v-131z" />
<glyph unicode="&#x178;" horiz-adv-x="667" d="M526 808q0 21 -16 37q-15 15 -37 15t-38 -16q-15 -15 -15 -36t16 -37q15 -15 37 -15t38 16q15 15 15 36zM323 808q0 21 -16 37q-15 15 -37 15t-38 -16q-15 -15 -15 -36t16 -37q15 -15 37 -15t38 16q15 15 15 36zM667 643v25h-216v-25h104l-161 -287l-170 287h102v25h-325 v-25h73l210 -340v-278h-106v-25h344v25h-111v300l174 318h82z" />
<glyph unicode="&#x2c6;" horiz-adv-x="333" d="M326 479l-125 169h-68l-125 -169h43l116 104l116 -104h43z" />
<glyph unicode="&#x2dc;" horiz-adv-x="333" d="M339 608h-34q-8 -26 -23 -37q-15 -12 -31 -12q-25 0 -68 24q-44 23 -78 23q-40 0 -69 -29t-42 -82h34q6 25 22 37t32 12q24 0 68 -24q44 -23 78 -23q40 0 69 29t42 82z" />
<glyph unicode="&#x2000;" horiz-adv-x="469" />
<glyph unicode="&#x2001;" horiz-adv-x="939" />
<glyph unicode="&#x2002;" horiz-adv-x="469" />
<glyph unicode="&#x2003;" horiz-adv-x="939" />
<glyph unicode="&#x2004;" horiz-adv-x="313" />
<glyph unicode="&#x2005;" horiz-adv-x="234" />
<glyph unicode="&#x2006;" horiz-adv-x="156" />
<glyph unicode="&#x2007;" horiz-adv-x="156" />
<glyph unicode="&#x2008;" horiz-adv-x="117" />
<glyph unicode="&#x2009;" horiz-adv-x="187" />
<glyph unicode="&#x200a;" horiz-adv-x="52" />
<glyph unicode="&#x2010;" horiz-adv-x="333" d="M303 288v53h-271v-53h271z" />
<glyph unicode="&#x2011;" horiz-adv-x="333" d="M303 288v53h-271v-53h271z" />
<glyph unicode="&#x2012;" horiz-adv-x="333" d="M303 288v53h-271v-53h271z" />
<glyph unicode="&#x2013;" d="M500 175v53h-500v-53h500z" />
<glyph unicode="&#x2014;" horiz-adv-x="1000" d="M1000 175v53h-1000v-53h1000z" />
<glyph unicode="&#x2018;" horiz-adv-x="333" d="M255 472q0 60 -49 64l-12 1q-38 3 -48 -29q-8 -23 -21 -23q-14 0 -14 41q0 36 29 77q14 20 29.5 36t31.5 27q6 4 6 8t-4 7q-5 5 -10 3q-5 0 -9 -3q-43 -24 -73 -72t-30 -86q0 -59 28 -87t70 -28q28 0 53 17q23 17 23 47z" />
<glyph unicode="&#x2019;" horiz-adv-x="333" d="M253 568q0 59 -28 87t-70 28q-28 0 -51 -17q-22 -16 -22 -47q0 -61 48 -65h10q39 0 48 29q6 23 20 23q15 0 15 -41q0 -36 -29 -77q-14 -20 -29.5 -36t-31.5 -27q-6 -5 -6 -8q0 -4 4 -7q5 -5 10 -3q4 0 9 3q43 24 73 72t30 86z" />
<glyph unicode="&#x201a;" horiz-adv-x="333" d="M253 0q0 59 -28 87t-70 28q-28 0 -51 -17q-22 -16 -22 -47q0 -61 48 -65h10q39 0 48 29q6 23 20 23q15 0 15 -41q0 -36 -29 -77q-14 -20 -29.5 -36t-31.5 -27q-6 -5 -6 -8q0 -4 4 -7q5 -5 10 -3q4 0 9 3q43 24 73 72t30 86z" />
<glyph unicode="&#x201c;" d="M465 472q0 60 -49 64l-12 1q-38 3 -48 -29q-8 -23 -21 -23q-14 0 -14 41q0 36 29 77q14 20 29.5 36t31.5 27q6 4 6 8t-4 7q-5 5 -10 3q-5 0 -9 -3q-43 -24 -73 -72t-30 -86q0 -59 28 -87t70 -28q28 0 53 17q23 17 23 47zM215 472q0 60 -49 64l-12 1q-38 3 -48 -29 q-8 -23 -21 -23q-14 0 -14 41q0 36 29 77q14 20 29.5 36t31.5 27q6 4 6 8t-4 7q-5 5 -10 3q-5 0 -9 -3q-43 -24 -73 -72t-30 -86q0 -59 28 -87t70 -28q28 0 53 17q23 17 23 47z" />
<glyph unicode="&#x201d;" d="M465 568q0 59 -28 87t-70 28q-28 0 -51 -17q-22 -16 -22 -47q0 -61 48 -65h10q39 0 48 29q6 23 20 23q15 0 15 -41q0 -36 -29 -77q-14 -20 -29.5 -36t-31.5 -27q-6 -5 -6 -8q0 -4 4 -7q5 -5 10 -3q4 0 9 3q43 24 73 72t30 86zM215 568q0 59 -28 87t-70 28q-28 0 -51 -17 q-22 -16 -22 -47q0 -61 48 -65h10q39 0 48 29q6 23 20 23q15 0 15 -41q0 -36 -29 -77q-14 -20 -29.5 -36t-31.5 -27q-6 -5 -6 -8q0 -4 4 -7q5 -5 10 -3q4 0 9 3q43 24 73 72t30 86z" />
<glyph unicode="&#x201e;" d="M460 0q0 59 -28 87t-70 28q-28 0 -51 -17q-22 -16 -22 -47q0 -61 48 -65h10q39 0 48 29q6 23 20 23q15 0 15 -41q0 -36 -29 -77q-14 -20 -29.5 -36t-31.5 -27q-6 -5 -6 -8q0 -4 4 -7q5 -5 10 -3q4 0 9 3q43 24 73 72t30 86zM213 0q0 59 -28 87t-70 28q-28 0 -51 -17 q-22 -16 -22 -47q0 -61 48 -65h10q39 0 48 29q6 23 20 23q15 0 15 -41q0 -36 -29 -77q-14 -20 -29.5 -36t-31.5 -27q-6 -5 -6 -8q0 -4 4 -7q5 -5 10 -3q4 0 9 3q43 24 73 72t30 86z" />
<glyph unicode="&#x2022;" horiz-adv-x="313" d="M272 333q0 45 -32 79q-34 32 -79 32q-44 0 -78 -32q-32 -34 -32 -79t32 -79q34 -32 79 -32q44 0 78 32q32 34 32 79z" />
<glyph unicode="&#x2026;" horiz-adv-x="1000" d="M896 49q0 26 -19 45q-18 18 -44 18t-45 -19q-18 -18 -18 -44t19 -45q18 -18 44 -18t45 19q18 18 18 44zM561 49q0 26 -19 45q-18 18 -44 18t-45 -19q-18 -18 -18 -44t19 -45q18 -18 44 -18t45 19q18 18 18 44zM226 49q0 26 -19 45q-18 18 -44 18t-45 -19q-18 -18 -18 -44 t19 -45q18 -18 44 -18t45 19q18 18 18 44z" />
<glyph unicode="&#x202f;" horiz-adv-x="187" />
<glyph unicode="&#x2039;" horiz-adv-x="333" d="M254 51q0 3 -2 9q-17 36 -46 75q-14 20 -27.5 36t-26.5 29q26 26 55 65q28 40 45 75q2 8 2 10t-2 4t-5 2q-1 0 -5 -2l-39 -39t-38 -36t-38.5 -34.5t-41.5 -35.5q-7 -7 -7 -9q0 -5 7 -9q22 -19 42 -36.5t39 -34.5t37.5 -35.5l38.5 -38.5q4 -2 6 -2l4 1q2 2 2 6z" />
<glyph unicode="&#x203a;" horiz-adv-x="333" d="M256 200q0 2 -7 9q-45 36 -82 70q-19 17 -37.5 36t-38.5 39q-4 2 -6 2q-3 0 -5 -2t-2 -6q0 -2 2 -8q17 -36 46 -75q15 -20 29 -36t27 -29q-13 -13 -27 -29t-29 -36q-29 -39 -46 -75q-2 -8 -2 -10q0 -3 2 -5l5 -1q2 0 6 2q20 20 39 38.5t38 35.5t38.5 35t42.5 36q7 7 7 9z " />
<glyph unicode="&#x205f;" horiz-adv-x="234" />
<glyph unicode="&#x2122;" horiz-adv-x="860" d="M829 334v13h-54v308h54v13h-137l-78 -229l-76 229h-139v-13h53v-308h-53v-13h123v13h-53v304l109 -317h19l112 317v-304h-57v-13h177zM353 561v107h-321v-107h18q3 43 25 68q23 26 58 26h27v-308h-59v-13h184v13h-59v308h26q36 0 59 -26q21 -25 24 -68h18z" />
<glyph unicode="&#xe000;" horiz-adv-x="525" d="M0 525h525v-525h-525v525z" />
</font>
</defs>
</svg>
