<?xml version="1.0" standalone="no"?>
<!DOCTYPE svg PUBLIC "-//W3C//DTD SVG 1.1//EN" "http://www.w3.org/Graphics/SVG/1.1/DTD/svg11.dtd" >
<svg xmlns="http://www.w3.org/2000/svg">
<metadata></metadata>
<defs>
<font id="bpdotssquareslight" horiz-adv-x="600" >
<font-face units-per-em="1000" ascent="800" descent="-200" />
<missing-glyph horiz-adv-x="500" />
<glyph horiz-adv-x="1000" />
<glyph horiz-adv-x="1000" />
<glyph unicode="&#xd;" horiz-adv-x="1000" />
<glyph unicode=" " />
<glyph unicode="!" d="M215 15v45h45v-45h-45zM215 115v45h45v-45h-45zM215 315v45h45v-45h-45zM215 415v45h45v-45h-45zM215 515v45h45v-45h-45zM215 615v45h45v-45h-45z" />
<glyph unicode="&#x22;" d="M115 415v45h45v-45h-45zM215 515v45h45v-45h-45zM215 615v45h45v-45h-45zM315 415v45h45v-45h-45zM416 515v45h45v-45h-45zM416 615v45h45v-45h-45z" />
<glyph unicode="#" d="M15 215v45h45v-45h-45zM15 415v45h45v-45h-45zM115 15v45h45v-45h-45zM115 115v45h45v-45h-45zM115 215v45h45v-45h-45zM115 315v45h45v-45h-45zM115 415v45h45v-45h-45zM115 515v45h45v-45h-45zM115 615v45h45v-45h-45zM215 215v45h45v-45h-45zM215 415v45h45v-45h-45z M315 15v45h45v-45h-45zM315 115v45h45v-45h-45zM315 215v45h45v-45h-45zM315 315v45h45v-45h-45zM315 415v45h45v-45h-45zM315 515v45h45v-45h-45zM315 615v45h45v-45h-45zM415 215v45h45v-45h-45zM415 415v45h45v-45h-45z" />
<glyph unicode="$" d="M15 15v45h45v-45h-45zM15 315v45h45v-45h-45zM115 15v45h45v-45h-45zM115 215v45h45v-45h-45zM115 415v45h45v-45h-45zM215 15v45h45v-45h-45zM215 -40h45v-45h-45v45zM215 115v45h45v-45h-45zM215 215v45h45v-45h-45zM215 315v45h45v-45h-45zM215 415v45h45v-45h-45z M215 515v45h45v-45h-45zM315 15v45h45v-45h-45zM315 215v45h45v-45h-45zM315 415v45h45v-45h-45zM415 115v45h45v-45h-45zM415 415v45h45v-45h-45z" />
<glyph unicode="%" d="M15 15v45h45v-45h-45zM15 115v45h45v-45h-45zM15 515v45h45v-45h-45zM15 615v45h45v-45h-45zM115 215v45h45v-45h-45zM115 315v45h45v-45h-45zM115 515v45h45v-45h-45zM115 615v45h45v-45h-45zM215 15v45h45v-45h-45zM215 115v45h45v-45h-45zM215 415v45h45v-45h-45z M315 15v45h45v-45h-45zM315 115v45h45v-45h-45zM315 515v45h45v-45h-45zM315 615v45h45v-45h-45z" />
<glyph unicode="&#x26;" d="M15 115v45h45v-45h-45zM15 215v45h45v-45h-45zM15 415v45h45v-45h-45zM15 515v45h45v-45h-45zM115 15v45h45v-45h-45zM115 315v45h45v-45h-45zM115 615v45h45v-45h-45zM215 15v45h45v-45h-45zM215 315v45h45v-45h-45zM215 615v45h45v-45h-45zM315 115v45h45v-45h-45z M315 215v45h45v-45h-45zM315 315v45h45v-45h-45zM415 315v45h45v-45h-45z" />
<glyph unicode="'" d="M215 416v45h45v-45h-45zM315 515v45h45v-45h-45zM315 616v45h45v-45h-45z" />
<glyph unicode="(" d="M215 115v45h45v-45h-45zM215 215v45h45v-45h-45zM215 315v45h45v-45h-45zM215 415v45h45v-45h-45zM215 515v45h45v-45h-45zM315 15v45h45v-45h-45zM315 615v45h45v-45h-45z" />
<glyph unicode=")" d="M215 15v45h45v-45h-45zM215 615v45h45v-45h-45zM315 115v45h45v-45h-45zM315 215v45h45v-45h-45zM315 315v45h45v-45h-45zM315 415v45h45v-45h-45zM315 515v45h45v-45h-45z" />
<glyph unicode="*" d="M15 415v45h45v-45h-45zM15 615v45h45v-45h-45zM115 515v45h45v-45h-45zM215 415v45h45v-45h-45zM215 615v45h45v-45h-45z" />
<glyph unicode="+" d="M15 215v45h45v-45h-45zM115 215v45h45v-45h-45zM215 15v45h45v-45h-45zM215 115v45h45v-45h-45zM215 215v45h45v-45h-45zM215 315v45h45v-45h-45zM215 415v45h45v-45h-45zM315 215v45h45v-45h-45zM415 215v45h45v-45h-45z" />
<glyph unicode="," d="M115 -40h45v-45h-45v45zM215 15v45h45v-45h-45zM215 115v45h45v-45h-45z" />
<glyph unicode="-" d="M115 215v45h45v-45h-45zM215 215v45h45v-45h-45zM315 215v45h45v-45h-45z" />
<glyph unicode="." d="M215 15v45h45v-45h-45zM215 115v45h45v-45h-45z" />
<glyph unicode="/" d="M115 15v45h45v-45h-45zM115 115v45h45v-45h-45zM215 215v45h45v-45h-45zM215 315v45h45v-45h-45zM315 415v45h45v-45h-45zM415 515v45h45v-45h-45zM415 615v45h45v-45h-45z" />
<glyph unicode="0" d="M15 115v45h45v-45h-45zM15 215v45h45v-45h-45zM15 315v45h45v-45h-45zM115 15v45h45v-45h-45zM115 115v45h45v-45h-45zM115 415v45h45v-45h-45zM215 15v45h45v-45h-45zM215 215v45h45v-45h-45zM215 415v45h45v-45h-45zM315 15v45h45v-45h-45zM315 315v45h45v-45h-45z M315 415v45h45v-45h-45zM415 115v45h45v-45h-45zM415 215v45h45v-45h-45zM415 315v45h45v-45h-45z" />
<glyph unicode="1" d="M15 15v45h45v-45h-45zM15 415v45h45v-45h-45zM115 15v45h45v-45h-45zM115 415v45h45v-45h-45zM215 15v45h45v-45h-45zM215 115v45h45v-45h-45zM215 215v45h45v-45h-45zM215 315v45h45v-45h-45zM215 415v45h45v-45h-45zM315 15v45h45v-45h-45zM415 15v45h45v-45h-45z" />
<glyph unicode="2" d="M15 15v45h45v-45h-45zM15 315v45h45v-45h-45zM115 15v45h45v-45h-45zM115 115v45h45v-45h-45zM115 415v45h45v-45h-45zM215 15v45h45v-45h-45zM215 215v45h45v-45h-45zM215 415v45h45v-45h-45zM315 15v45h45v-45h-45zM315 215v45h45v-45h-45zM315 415v45h45v-45h-45z M415 15v45h45v-45h-45zM415 315v45h45v-45h-45z" />
<glyph unicode="3" d="M15 -40h45v-45h-45v45zM15 315v45h45v-45h-45zM115 115v45h45v-45h-45zM115 -140h45v-45h-45v45zM115 415v45h45v-45h-45zM215 115v45h45v-45h-45zM215 -140h45v-45h-45v45zM215 415v45h45v-45h-45zM315 115v45h45v-45h-45zM315 -140h45v-45h-45v45zM315 415v45h45v-45 h-45zM415 15v45h45v-45h-45zM415 -40h45v-45h-45v45zM415 215v45h45v-45h-45zM415 315v45h45v-45h-45z" />
<glyph unicode="4" d="M15 15v45h45v-45h-45zM15 115v45h45v-45h-45zM115 15v45h45v-45h-45zM115 215v45h45v-45h-45zM215 15v45h45v-45h-45zM215 315v45h45v-45h-45zM315 15v45h45v-45h-45zM315 -40h45v-45h-45v45zM315 115v45h45v-45h-45zM315 -140h45v-45h-45v45zM315 215v45h45v-45h-45z M315 315v45h45v-45h-45zM315 415v45h45v-45h-45zM415 15v45h45v-45h-45z" />
<glyph unicode="5" d="M15 115v45h45v-45h-45zM15 -140h45v-45h-45v45zM15 215v45h45v-45h-45zM15 315v45h45v-45h-45zM15 415v45h45v-45h-45zM115 115v45h45v-45h-45zM115 -140h45v-45h-45v45zM115 415v45h45v-45h-45zM215 115v45h45v-45h-45zM215 -140h45v-45h-45v45zM215 415v45h45v-45h-45z M315 115v45h45v-45h-45zM315 -140h45v-45h-45v45zM315 415v45h45v-45h-45zM415 15v45h45v-45h-45zM415 -40h45v-45h-45v45zM415 415v45h45v-45h-45z" />
<glyph unicode="6" d="M15 115v45h45v-45h-45zM15 215v45h45v-45h-45zM15 315v45h45v-45h-45zM15 415v45h45v-45h-45zM115 15v45h45v-45h-45zM115 315v45h45v-45h-45zM115 515v45h45v-45h-45zM215 15v45h45v-45h-45zM215 315v45h45v-45h-45zM215 615v45h45v-45h-45zM315 15v45h45v-45h-45z M315 315v45h45v-45h-45zM315 615v45h45v-45h-45zM415 115v45h45v-45h-45zM415 215v45h45v-45h-45z" />
<glyph unicode="7" d="M15 415v45h45v-45h-45zM115 15v45h45v-45h-45zM115 -40h45v-45h-45v45zM115 -140h45v-45h-45v45zM115 415v45h45v-45h-45zM215 115v45h45v-45h-45zM215 415v45h45v-45h-45zM315 215v45h45v-45h-45zM315 415v45h45v-45h-45zM415 315v45h45v-45h-45zM415 415v45h45v-45h-45 z" />
<glyph unicode="8" d="M15 115v45h45v-45h-45zM15 215v45h45v-45h-45zM15 415v45h45v-45h-45zM15 515v45h45v-45h-45zM115 15v45h45v-45h-45zM115 315v45h45v-45h-45zM115 615v45h45v-45h-45zM215 15v45h45v-45h-45zM215 315v45h45v-45h-45zM215 615v45h45v-45h-45zM315 15v45h45v-45h-45z M315 315v45h45v-45h-45zM315 615v45h45v-45h-45zM415 115v45h45v-45h-45zM415 215v45h45v-45h-45zM415 415v45h45v-45h-45zM415 515v45h45v-45h-45z" />
<glyph unicode="9" d="M15 215v45h45v-45h-45zM15 315v45h45v-45h-45zM115 115v45h45v-45h-45zM115 -140h45v-45h-45v45zM115 415v45h45v-45h-45zM215 115v45h45v-45h-45zM215 -140h45v-45h-45v45zM215 415v45h45v-45h-45zM315 -40h45v-45h-45v45zM315 115v45h45v-45h-45zM315 415v45h45v-45 h-45zM415 15v45h45v-45h-45zM415 115v45h45v-45h-45zM415 215v45h45v-45h-45zM415 315v45h45v-45h-45z" />
<glyph unicode=":" d="M215 15v45h45v-45h-45zM215 115v45h45v-45h-45zM215 315v45h45v-45h-45zM215 415v45h45v-45h-45z" />
<glyph unicode=";" d="M115 -40h45v-45h-45v45zM215 15v45h45v-45h-45zM215 115v45h45v-45h-45zM215 315v45h45v-45h-45zM215 415v45h45v-45h-45z" />
<glyph unicode="&#x3c;" d="M115 215v45h45v-45h-45zM215 115v45h45v-45h-45zM215 315v45h45v-45h-45zM315 15v45h45v-45h-45zM315 415v45h45v-45h-45z" />
<glyph unicode="=" d="M15 115v45h45v-45h-45zM15 315v45h45v-45h-45zM115 115v45h45v-45h-45zM115 315v45h45v-45h-45zM215 115v45h45v-45h-45zM215 315v45h45v-45h-45zM315 115v45h45v-45h-45zM315 315v45h45v-45h-45zM415 115v45h45v-45h-45zM415 315v45h45v-45h-45z" />
<glyph unicode="&#x3e;" d="M215 15v45h45v-45h-45zM215 415v45h45v-45h-45zM315 115v45h45v-45h-45zM315 315v45h45v-45h-45zM415 215v45h45v-45h-45z" />
<glyph unicode="?" d="M15 515v45h45v-45h-45zM115 615v45h45v-45h-45zM215 15v45h45v-45h-45zM215 115v45h45v-45h-45zM215 315v45h45v-45h-45zM215 615v45h45v-45h-45zM315 315v45h45v-45h-45zM315 615v45h45v-45h-45zM415 415v45h45v-45h-45zM415 515v45h45v-45h-45z" />
<glyph unicode="@" d="M15 115v45h45v-45h-45zM15 215v45h45v-45h-45zM15 315v45h45v-45h-45zM15 415v45h45v-45h-45zM15 515v45h45v-45h-45zM115 15v45h45v-45h-45zM115 215v45h45v-45h-45zM115 315v45h45v-45h-45zM115 615v45h45v-45h-45zM215 15v45h45v-45h-45zM215 215v45h45v-45h-45z M215 415v45h45v-45h-45zM215 615v45h45v-45h-45zM315 15v45h45v-45h-45zM315 215v45h45v-45h-45zM315 315v45h45v-45h-45zM315 415v45h45v-45h-45zM315 615v45h45v-45h-45zM415 15v45h45v-45h-45zM415 215v45h45v-45h-45zM415 315v45h45v-45h-45zM415 415v45h45v-45h-45z M415 515v45h45v-45h-45z" />
<glyph unicode="A" d="M15 15v45h45v-45h-45zM15 115v45h45v-45h-45zM15 215v45h45v-45h-45zM15 315v45h45v-45h-45zM15 415v45h45v-45h-45zM15 515v45h45v-45h-45zM115 215v45h45v-45h-45zM115 615v45h45v-45h-45zM215 215v45h45v-45h-45zM215 615v45h45v-45h-45zM315 215v45h45v-45h-45z M315 615v45h45v-45h-45zM415 15v45h45v-45h-45zM415 115v45h45v-45h-45zM415 215v45h45v-45h-45zM415 315v45h45v-45h-45zM415 415v45h45v-45h-45zM415 515v45h45v-45h-45z" />
<glyph unicode="B" d="M15 15v45h45v-45h-45zM15 115v45h45v-45h-45zM15 215v45h45v-45h-45zM15 315v45h45v-45h-45zM15 415v45h45v-45h-45zM15 515v45h45v-45h-45zM15 615v45h45v-45h-45zM115 15v45h45v-45h-45zM115 315v45h45v-45h-45zM115 615v45h45v-45h-45zM215 15v45h45v-45h-45zM215 315 v45h45v-45h-45zM215 615v45h45v-45h-45zM315 15v45h45v-45h-45zM315 315v45h45v-45h-45zM315 615v45h45v-45h-45zM415 115v45h45v-45h-45zM415 215v45h45v-45h-45zM415 415v45h45v-45h-45zM415 515v45h45v-45h-45z" />
<glyph unicode="C" d="M15 115v45h45v-45h-45zM15 215v45h45v-45h-45zM15 315v45h45v-45h-45zM15 415v45h45v-45h-45zM15 515v45h45v-45h-45zM115 15v45h45v-45h-45zM115 615v45h45v-45h-45zM215 15v45h45v-45h-45zM215 615v45h45v-45h-45zM315 15v45h45v-45h-45zM315 615v45h45v-45h-45z M415 115v45h45v-45h-45zM415 515v45h45v-45h-45z" />
<glyph unicode="D" d="M15 15v45h45v-45h-45zM15 115v45h45v-45h-45zM15 215v45h45v-45h-45zM15 315v45h45v-45h-45zM15 415v45h45v-45h-45zM15 515v45h45v-45h-45zM15 615v45h45v-45h-45zM115 15v45h45v-45h-45zM115 615v45h45v-45h-45zM215 15v45h45v-45h-45zM215 615v45h45v-45h-45zM315 15 v45h45v-45h-45zM315 615v45h45v-45h-45zM415 115v45h45v-45h-45zM415 215v45h45v-45h-45zM415 315v45h45v-45h-45zM415 415v45h45v-45h-45zM415 515v45h45v-45h-45z" />
<glyph unicode="E" d="M15 15v45h45v-45h-45zM15 115v45h45v-45h-45zM15 215v45h45v-45h-45zM15 315v45h45v-45h-45zM15 415v45h45v-45h-45zM15 515v45h45v-45h-45zM15 615v45h45v-45h-45zM115 15v45h45v-45h-45zM115 315v45h45v-45h-45zM115 615v45h45v-45h-45zM215 15v45h45v-45h-45zM215 315 v45h45v-45h-45zM215 615v45h45v-45h-45zM315 15v45h45v-45h-45zM315 315v45h45v-45h-45zM315 615v45h45v-45h-45zM415 15v45h45v-45h-45zM415 615v45h45v-45h-45z" />
<glyph unicode="F" d="M15 15v45h45v-45h-45zM15 115v45h45v-45h-45zM15 215v45h45v-45h-45zM15 315v45h45v-45h-45zM15 415v45h45v-45h-45zM15 515v45h45v-45h-45zM15 615v45h45v-45h-45zM115 315v45h45v-45h-45zM115 615v45h45v-45h-45zM215 315v45h45v-45h-45zM215 615v45h45v-45h-45z M315 315v45h45v-45h-45zM315 615v45h45v-45h-45zM415 615v45h45v-45h-45z" />
<glyph unicode="G" d="M15 115v45h45v-45h-45zM15 215v45h45v-45h-45zM15 315v45h45v-45h-45zM15 415v45h45v-45h-45zM15 515v45h45v-45h-45zM115 15v45h45v-45h-45zM115 615v45h45v-45h-45zM215 15v45h45v-45h-45zM215 615v45h45v-45h-45zM315 15v45h45v-45h-45zM315 215v45h45v-45h-45z M315 615v45h45v-45h-45zM415 15v45h45v-45h-45zM415 115v45h45v-45h-45zM415 215v45h45v-45h-45zM415 515v45h45v-45h-45z" />
<glyph unicode="H" d="M15 15v45h45v-45h-45zM15 115v45h45v-45h-45zM15 215v45h45v-45h-45zM15 315v45h45v-45h-45zM15 415v45h45v-45h-45zM15 515v45h45v-45h-45zM15 615v45h45v-45h-45zM115 315v45h45v-45h-45zM215 315v45h45v-45h-45zM315 315v45h45v-45h-45zM415 15v45h45v-45h-45z M415 115v45h45v-45h-45zM415 215v45h45v-45h-45zM415 315v45h45v-45h-45zM415 415v45h45v-45h-45zM415 515v45h45v-45h-45zM415 615v45h45v-45h-45z" />
<glyph unicode="I" d="M15 15v45h45v-45h-45zM15 615v45h45v-45h-45zM115 15v45h45v-45h-45zM115 615v45h45v-45h-45zM215 15v45h45v-45h-45zM215 115v45h45v-45h-45zM215 215v45h45v-45h-45zM215 315v45h45v-45h-45zM215 415v45h45v-45h-45zM215 515v45h45v-45h-45zM215 615v45h45v-45h-45z M315 15v45h45v-45h-45zM315 615v45h45v-45h-45zM415 15v45h45v-45h-45zM415 615v45h45v-45h-45z" />
<glyph unicode="J" d="M15 115v45h45v-45h-45zM15 615v45h45v-45h-45zM115 15v45h45v-45h-45zM115 615v45h45v-45h-45zM215 15v45h45v-45h-45zM215 615v45h45v-45h-45zM315 115v45h45v-45h-45zM315 215v45h45v-45h-45zM315 315v45h45v-45h-45zM315 415v45h45v-45h-45zM315 515v45h45v-45h-45z M315 615v45h45v-45h-45z" />
<glyph unicode="K" d="M15 15v45h45v-45h-45zM15 115v45h45v-45h-45zM15 215v45h45v-45h-45zM15 315v45h45v-45h-45zM15 415v45h45v-45h-45zM15 515v45h45v-45h-45zM15 615v45h45v-45h-45zM115 315v45h45v-45h-45zM215 315v45h45v-45h-45zM315 215v45h45v-45h-45zM315 415v45h45v-45h-45z M415 15v45h45v-45h-45zM415 115v45h45v-45h-45zM415 515v45h45v-45h-45zM415 615v45h45v-45h-45z" />
<glyph unicode="L" d="M15 15v45h45v-45h-45zM15 115v45h45v-45h-45zM15 215v45h45v-45h-45zM15 315v45h45v-45h-45zM15 415v45h45v-45h-45zM15 515v45h45v-45h-45zM15 615v45h45v-45h-45zM115 15v45h45v-45h-45zM215 15v45h45v-45h-45zM315 15v45h45v-45h-45zM415 15v45h45v-45h-45z" />
<glyph unicode="M" d="M15 15v45h45v-45h-45zM15 115v45h45v-45h-45zM15 215v45h45v-45h-45zM15 315v45h45v-45h-45zM15 415v45h45v-45h-45zM15 515v45h45v-45h-45zM15 615v45h45v-45h-45zM115 415v45h45v-45h-45zM115 515v45h45v-45h-45zM215 215v45h45v-45h-45zM215 315v45h45v-45h-45z M315 415v45h45v-45h-45zM315 515v45h45v-45h-45zM415 15v45h45v-45h-45zM415 115v45h45v-45h-45zM415 215v45h45v-45h-45zM415 315v45h45v-45h-45zM415 415v45h45v-45h-45zM415 515v45h45v-45h-45zM415 615v45h45v-45h-45z" />
<glyph unicode="N" d="M15 15v45h45v-45h-45zM15 115v45h45v-45h-45zM15 215v45h45v-45h-45zM15 315v45h45v-45h-45zM15 415v45h45v-45h-45zM15 515v45h45v-45h-45zM15 615v45h45v-45h-45zM115 515v45h45v-45h-45zM215 315v45h45v-45h-45zM215 415v45h45v-45h-45zM315 215v45h45v-45h-45z M415 15v45h45v-45h-45zM415 115v45h45v-45h-45zM415 215v45h45v-45h-45zM415 315v45h45v-45h-45zM415 415v45h45v-45h-45zM415 515v45h45v-45h-45zM415 615v45h45v-45h-45z" />
<glyph unicode="O" d="M15 115v45h45v-45h-45zM15 215v45h45v-45h-45zM15 315v45h45v-45h-45zM15 415v45h45v-45h-45zM15 515v45h45v-45h-45zM115 15v45h45v-45h-45zM115 615v45h45v-45h-45zM215 15v45h45v-45h-45zM215 615v45h45v-45h-45zM315 15v45h45v-45h-45zM315 615v45h45v-45h-45z M415 115v45h45v-45h-45zM415 215v45h45v-45h-45zM415 315v45h45v-45h-45zM415 415v45h45v-45h-45zM415 515v45h45v-45h-45z" />
<glyph unicode="P" d="M15 15v45h45v-45h-45zM15 115v45h45v-45h-45zM15 215v45h45v-45h-45zM15 315v45h45v-45h-45zM15 415v45h45v-45h-45zM15 515v45h45v-45h-45zM15 615v45h45v-45h-45zM115 215v45h45v-45h-45zM115 615v45h45v-45h-45zM215 215v45h45v-45h-45zM215 615v45h45v-45h-45z M315 215v45h45v-45h-45zM315 615v45h45v-45h-45zM415 315v45h45v-45h-45zM415 415v45h45v-45h-45zM415 515v45h45v-45h-45z" />
<glyph unicode="Q" d="M15 115v45h45v-45h-45zM15 215v45h45v-45h-45zM15 315v45h45v-45h-45zM15 415v45h45v-45h-45zM15 515v45h45v-45h-45zM115 15v45h45v-45h-45zM115 615v45h45v-45h-45zM215 15v45h45v-45h-45zM215 -40h45v-45h-45v45zM215 115v45h45v-45h-45zM215 615v45h45v-45h-45z M315 15v45h45v-45h-45zM315 -140h45v-45h-45v45zM315 615v45h45v-45h-45zM415 115v45h45v-45h-45zM415 215v45h45v-45h-45zM415 315v45h45v-45h-45zM415 415v45h45v-45h-45zM415 515v45h45v-45h-45z" />
<glyph unicode="R" d="M15 15v45h45v-45h-45zM15 115v45h45v-45h-45zM15 215v45h45v-45h-45zM15 315v45h45v-45h-45zM15 415v45h45v-45h-45zM15 515v45h45v-45h-45zM15 615v45h45v-45h-45zM115 315v45h45v-45h-45zM115 615v45h45v-45h-45zM215 315v45h45v-45h-45zM215 615v45h45v-45h-45z M315 215v45h45v-45h-45zM315 315v45h45v-45h-45zM315 615v45h45v-45h-45zM415 15v45h45v-45h-45zM415 115v45h45v-45h-45zM415 415v45h45v-45h-45zM415 515v45h45v-45h-45z" />
<glyph unicode="S" d="M15 15v45h45v-45h-45zM15 415v45h45v-45h-45zM15 515v45h45v-45h-45zM115 15v45h45v-45h-45zM115 315v45h45v-45h-45zM115 615v45h45v-45h-45zM215 15v45h45v-45h-45zM215 315v45h45v-45h-45zM215 615v45h45v-45h-45zM315 15v45h45v-45h-45zM315 315v45h45v-45h-45z M315 615v45h45v-45h-45zM415 115v45h45v-45h-45zM415 215v45h45v-45h-45zM415 615v45h45v-45h-45z" />
<glyph unicode="T" d="M15 615v45h45v-45h-45zM115 615v45h45v-45h-45zM215 15v45h45v-45h-45zM215 115v45h45v-45h-45zM215 215v45h45v-45h-45zM215 315v45h45v-45h-45zM215 415v45h45v-45h-45zM215 515v45h45v-45h-45zM215 615v45h45v-45h-45zM315 615v45h45v-45h-45zM415 615v45h45v-45h-45z " />
<glyph unicode="U" d="M15 115v45h45v-45h-45zM15 215v45h45v-45h-45zM15 315v45h45v-45h-45zM15 415v45h45v-45h-45zM15 515v45h45v-45h-45zM15 615v45h45v-45h-45zM115 15v45h45v-45h-45zM215 15v45h45v-45h-45zM315 15v45h45v-45h-45zM415 115v45h45v-45h-45zM415 215v45h45v-45h-45z M415 315v45h45v-45h-45zM415 415v45h45v-45h-45zM415 515v45h45v-45h-45zM415 615v45h45v-45h-45z" />
<glyph unicode="V" d="M15 315v45h45v-45h-45zM15 415v45h45v-45h-45zM15 515v45h45v-45h-45zM15 615v45h45v-45h-45zM115 115v45h45v-45h-45zM115 215v45h45v-45h-45zM215 15v45h45v-45h-45zM315 115v45h45v-45h-45zM315 215v45h45v-45h-45zM415 315v45h45v-45h-45zM415 415v45h45v-45h-45z M415 515v45h45v-45h-45zM415 615v45h45v-45h-45z" />
<glyph unicode="W" d="M15 215v45h45v-45h-45zM15 315v45h45v-45h-45zM15 415v45h45v-45h-45zM15 515v45h45v-45h-45zM15 615v45h45v-45h-45zM115 15v45h45v-45h-45zM115 115v45h45v-45h-45zM215 215v45h45v-45h-45zM215 315v45h45v-45h-45zM215 415v45h45v-45h-45zM215 515v45h45v-45h-45z M315 15v45h45v-45h-45zM315 115v45h45v-45h-45zM415 215v45h45v-45h-45zM415 315v45h45v-45h-45zM415 415v45h45v-45h-45zM415 515v45h45v-45h-45zM415 615v45h45v-45h-45z" />
<glyph unicode="X" d="M15 15v45h45v-45h-45zM15 115v45h45v-45h-45zM15 515v45h45v-45h-45zM15 615v45h45v-45h-45zM115 215v45h45v-45h-45zM115 415v45h45v-45h-45zM215 315v45h45v-45h-45zM315 215v45h45v-45h-45zM315 415v45h45v-45h-45zM415 15v45h45v-45h-45zM415 115v45h45v-45h-45z M415 515v45h45v-45h-45zM415 615v45h45v-45h-45z" />
<glyph unicode="Y" d="M15 415v45h45v-45h-45zM15 515v45h45v-45h-45zM15 615v45h45v-45h-45zM115 315v45h45v-45h-45zM215 15v45h45v-45h-45zM215 115v45h45v-45h-45zM215 215v45h45v-45h-45zM315 315v45h45v-45h-45zM415 415v45h45v-45h-45zM415 515v45h45v-45h-45zM415 615v45h45v-45h-45z " />
<glyph unicode="Z" d="M15 15v45h45v-45h-45zM15 115v45h45v-45h-45zM15 615v45h45v-45h-45zM115 15v45h45v-45h-45zM115 215v45h45v-45h-45zM115 615v45h45v-45h-45zM215 15v45h45v-45h-45zM215 315v45h45v-45h-45zM215 615v45h45v-45h-45zM315 15v45h45v-45h-45zM315 415v45h45v-45h-45z M315 615v45h45v-45h-45zM415 15v45h45v-45h-45zM415 515v45h45v-45h-45zM415 615v45h45v-45h-45z" />
<glyph unicode="[" d="M215 15v45h45v-45h-45zM215 115v45h45v-45h-45zM215 215v45h45v-45h-45zM215 315v45h45v-45h-45zM215 415v45h45v-45h-45zM215 515v45h45v-45h-45zM215 615v45h45v-45h-45zM315 15v45h45v-45h-45zM315 615v45h45v-45h-45z" />
<glyph unicode="\" d="M115 515v45h45v-45h-45zM115 615v45h45v-45h-45zM215 415v45h45v-45h-45zM315 215v45h45v-45h-45zM315 315v45h45v-45h-45zM415 15v45h45v-45h-45zM415 115v45h45v-45h-45z" />
<glyph unicode="]" d="M215 15v45h45v-45h-45zM215 615v45h45v-45h-45zM315 15v45h45v-45h-45zM315 115v45h45v-45h-45zM315 215v45h45v-45h-45zM315 315v45h45v-45h-45zM315 415v45h45v-45h-45zM315 515v45h45v-45h-45zM315 615v45h45v-45h-45z" />
<glyph unicode="^" d="M115 615v45h45v-45h-45zM215 715v45h45v-45h-45zM315 615v45h45v-45h-45z" />
<glyph unicode="_" d="M15 15v45h45v-45h-45zM115 15v45h45v-45h-45zM215 15v45h45v-45h-45zM315 15v45h45v-45h-45zM415 15v45h45v-45h-45z" />
<glyph unicode="`" d="M15 715v45h45v-45h-45zM115 615v45h45v-45h-45zM215 615v45h45v-45h-45z" />
<glyph unicode="a" d="M15 115v45h45v-45h-45zM115 15v45h45v-45h-45zM115 215v45h45v-45h-45zM115 415v45h45v-45h-45zM215 15v45h45v-45h-45zM215 215v45h45v-45h-45zM215 415v45h45v-45h-45zM315 15v45h45v-45h-45zM315 215v45h45v-45h-45zM315 415v45h45v-45h-45zM415 15v45h45v-45h-45z M415 115v45h45v-45h-45zM415 215v45h45v-45h-45zM415 315v45h45v-45h-45z" />
<glyph unicode="b" d="M15 15v45h45v-45h-45zM15 115v45h45v-45h-45zM15 215v45h45v-45h-45zM15 315v45h45v-45h-45zM15 415v45h45v-45h-45zM15 515v45h45v-45h-45zM15 615v45h45v-45h-45zM115 15v45h45v-45h-45zM115 315v45h45v-45h-45zM215 15v45h45v-45h-45zM215 415v45h45v-45h-45zM315 15 v45h45v-45h-45zM315 415v45h45v-45h-45zM415 115v45h45v-45h-45zM415 215v45h45v-45h-45zM415 315v45h45v-45h-45z" />
<glyph unicode="c" d="M15 115v45h45v-45h-45zM15 215v45h45v-45h-45zM15 315v45h45v-45h-45zM115 15v45h45v-45h-45zM115 415v45h45v-45h-45zM215 15v45h45v-45h-45zM215 415v45h45v-45h-45zM315 15v45h45v-45h-45zM315 415v45h45v-45h-45zM415 115v45h45v-45h-45zM415 315v45h45v-45h-45z" />
<glyph unicode="d" d="M15 115v45h45v-45h-45zM15 215v45h45v-45h-45zM15 315v45h45v-45h-45zM115 15v45h45v-45h-45zM115 415v45h45v-45h-45zM215 15v45h45v-45h-45zM215 415v45h45v-45h-45zM315 115v45h45v-45h-45zM315 415v45h45v-45h-45zM415 15v45h45v-45h-45zM415 115v45h45v-45h-45z M415 215v45h45v-45h-45zM415 315v45h45v-45h-45zM415 415v45h45v-45h-45zM415 515v45h45v-45h-45zM415 615v45h45v-45h-45z" />
<glyph unicode="e" d="M15 115v45h45v-45h-45zM15 215v45h45v-45h-45zM15 315v45h45v-45h-45zM115 15v45h45v-45h-45zM115 215v45h45v-45h-45zM115 415v45h45v-45h-45zM215 15v45h45v-45h-45zM215 215v45h45v-45h-45zM215 415v45h45v-45h-45zM315 15v45h45v-45h-45zM315 215v45h45v-45h-45z M315 415v45h45v-45h-45zM415 15v45h45v-45h-45zM415 215v45h45v-45h-45zM415 315v45h45v-45h-45z" />
<glyph unicode="f" d="M15 15v45h45v-45h-45zM115 15v45h45v-45h-45zM115 415v45h45v-45h-45zM215 15v45h45v-45h-45zM215 115v45h45v-45h-45zM215 215v45h45v-45h-45zM215 315v45h45v-45h-45zM215 415v45h45v-45h-45zM215 515v45h45v-45h-45zM315 15v45h45v-45h-45zM315 415v45h45v-45h-45z M315 615v45h45v-45h-45zM415 15v45h45v-45h-45zM415 415v45h45v-45h-45zM415 615v45h45v-45h-45z" />
<glyph unicode="g" d="M15 115v45h45v-45h-45zM15 215v45h45v-45h-45zM15 315v45h45v-45h-45zM115 15v45h45v-45h-45zM115 -140h45v-45h-45v45zM115 415v45h45v-45h-45zM215 15v45h45v-45h-45zM215 -140h45v-45h-45v45zM215 415v45h45v-45h-45zM315 115v45h45v-45h-45zM315 -140h45v-45h-45v45z M315 415v45h45v-45h-45zM415 15v45h45v-45h-45zM415 -40h45v-45h-45v45zM415 115v45h45v-45h-45zM415 215v45h45v-45h-45zM415 315v45h45v-45h-45zM415 415v45h45v-45h-45z" />
<glyph unicode="h" d="M15 15v45h45v-45h-45zM15 115v45h45v-45h-45zM15 215v45h45v-45h-45zM15 315v45h45v-45h-45zM15 415v45h45v-45h-45zM15 515v45h45v-45h-45zM15 615v45h45v-45h-45zM115 415v45h45v-45h-45zM215 415v45h45v-45h-45zM315 415v45h45v-45h-45zM415 15v45h45v-45h-45z M415 115v45h45v-45h-45zM415 215v45h45v-45h-45zM415 315v45h45v-45h-45z" />
<glyph unicode="i" d="M15 15v45h45v-45h-45zM15 415v45h45v-45h-45zM115 15v45h45v-45h-45zM115 415v45h45v-45h-45zM215 15v45h45v-45h-45zM215 115v45h45v-45h-45zM215 215v45h45v-45h-45zM215 315v45h45v-45h-45zM215 415v45h45v-45h-45zM215 615v45h45v-45h-45zM315 15v45h45v-45h-45z M415 15v45h45v-45h-45z" />
<glyph unicode="j" d="M15 -40h45v-45h-45v45zM115 -140h45v-45h-45v45zM115 415v45h45v-45h-45zM215 -140h45v-45h-45v45zM215 415v45h45v-45h-45zM315 -140h45v-45h-45v45zM315 415v45h45v-45h-45zM415 15v45h45v-45h-45zM415 -40h45v-45h-45v45zM415 115v45h45v-45h-45zM415 215v45h45v-45 h-45zM415 315v45h45v-45h-45zM415 415v45h45v-45h-45zM415 615v45h45v-45h-45z" />
<glyph unicode="k" d="M15 15v45h45v-45h-45zM15 115v45h45v-45h-45zM15 215v45h45v-45h-45zM15 315v45h45v-45h-45zM15 415v45h45v-45h-45zM15 515v45h45v-45h-45zM15 615v45h45v-45h-45zM115 215v45h45v-45h-45zM215 215v45h45v-45h-45zM315 115v45h45v-45h-45zM315 315v45h45v-45h-45z M315 415v45h45v-45h-45zM415 15v45h45v-45h-45z" />
<glyph unicode="l" d="M15 15v45h45v-45h-45zM15 615v45h45v-45h-45zM115 15v45h45v-45h-45zM115 615v45h45v-45h-45zM215 15v45h45v-45h-45zM215 115v45h45v-45h-45zM215 215v45h45v-45h-45zM215 315v45h45v-45h-45zM215 415v45h45v-45h-45zM215 515v45h45v-45h-45zM215 615v45h45v-45h-45z M315 15v45h45v-45h-45zM415 15v45h45v-45h-45z" />
<glyph unicode="m" d="M15 15v45h45v-45h-45zM15 115v45h45v-45h-45zM15 215v45h45v-45h-45zM15 315v45h45v-45h-45zM15 415v45h45v-45h-45zM115 315v45h45v-45h-45zM215 15v45h45v-45h-45zM215 115v45h45v-45h-45zM215 215v45h45v-45h-45zM215 315v45h45v-45h-45zM215 415v45h45v-45h-45z M315 315v45h45v-45h-45zM415 15v45h45v-45h-45zM415 115v45h45v-45h-45zM415 215v45h45v-45h-45zM415 315v45h45v-45h-45zM415 415v45h45v-45h-45z" />
<glyph unicode="n" d="M15 15v45h45v-45h-45zM15 115v45h45v-45h-45zM15 215v45h45v-45h-45zM15 315v45h45v-45h-45zM15 415v45h45v-45h-45zM115 315v45h45v-45h-45zM215 415v45h45v-45h-45zM315 415v45h45v-45h-45zM415 15v45h45v-45h-45zM415 115v45h45v-45h-45zM415 215v45h45v-45h-45z M415 315v45h45v-45h-45z" />
<glyph unicode="o" d="M15 115v45h45v-45h-45zM15 215v45h45v-45h-45zM15 315v45h45v-45h-45zM115 15v45h45v-45h-45zM115 415v45h45v-45h-45zM215 15v45h45v-45h-45zM215 415v45h45v-45h-45zM315 15v45h45v-45h-45zM315 415v45h45v-45h-45zM415 115v45h45v-45h-45zM415 215v45h45v-45h-45z M415 315v45h45v-45h-45z" />
<glyph unicode="p" d="M15 15v45h45v-45h-45zM15 -40h45v-45h-45v45zM15 115v45h45v-45h-45zM15 -140h45v-45h-45v45zM15 215v45h45v-45h-45zM15 315v45h45v-45h-45zM15 415v45h45v-45h-45zM115 15v45h45v-45h-45zM115 315v45h45v-45h-45zM215 15v45h45v-45h-45zM215 415v45h45v-45h-45zM315 15 v45h45v-45h-45zM315 415v45h45v-45h-45zM415 115v45h45v-45h-45zM415 215v45h45v-45h-45zM415 315v45h45v-45h-45z" />
<glyph unicode="q" d="M15 115v45h45v-45h-45zM15 215v45h45v-45h-45zM15 315v45h45v-45h-45zM115 15v45h45v-45h-45zM115 415v45h45v-45h-45zM215 15v45h45v-45h-45zM215 415v45h45v-45h-45zM315 115v45h45v-45h-45zM315 415v45h45v-45h-45zM415 15v45h45v-45h-45zM415 -40h45v-45h-45v45z M415 115v45h45v-45h-45zM415 -140h45v-45h-45v45zM415 215v45h45v-45h-45zM415 315v45h45v-45h-45zM415 415v45h45v-45h-45z" />
<glyph unicode="r" d="M15 15v45h45v-45h-45zM15 415v45h45v-45h-45zM115 15v45h45v-45h-45zM115 115v45h45v-45h-45zM115 215v45h45v-45h-45zM115 315v45h45v-45h-45zM115 415v45h45v-45h-45zM215 15v45h45v-45h-45zM215 315v45h45v-45h-45zM315 15v45h45v-45h-45zM315 415v45h45v-45h-45z M415 415v45h45v-45h-45z" />
<glyph unicode="s" d="M15 15v45h45v-45h-45zM15 315v45h45v-45h-45zM115 15v45h45v-45h-45zM115 215v45h45v-45h-45zM115 415v45h45v-45h-45zM215 15v45h45v-45h-45zM215 215v45h45v-45h-45zM215 415v45h45v-45h-45zM315 15v45h45v-45h-45zM315 215v45h45v-45h-45zM315 415v45h45v-45h-45z M415 115v45h45v-45h-45zM415 415v45h45v-45h-45z" />
<glyph unicode="t" d="M15 415v45h45v-45h-45zM115 415v45h45v-45h-45zM215 115v45h45v-45h-45zM215 215v45h45v-45h-45zM215 315v45h45v-45h-45zM215 415v45h45v-45h-45zM215 515v45h45v-45h-45zM315 15v45h45v-45h-45zM315 415v45h45v-45h-45zM415 15v45h45v-45h-45zM415 415v45h45v-45h-45z " />
<glyph unicode="u" d="M15 115v45h45v-45h-45zM15 215v45h45v-45h-45zM15 315v45h45v-45h-45zM15 415v45h45v-45h-45zM115 15v45h45v-45h-45zM215 15v45h45v-45h-45zM315 115v45h45v-45h-45zM415 15v45h45v-45h-45zM415 115v45h45v-45h-45zM415 215v45h45v-45h-45zM415 315v45h45v-45h-45z M415 415v45h45v-45h-45z" />
<glyph unicode="v" d="M15 315v45h45v-45h-45zM15 415v45h45v-45h-45zM115 115v45h45v-45h-45zM115 215v45h45v-45h-45zM215 15v45h45v-45h-45zM315 115v45h45v-45h-45zM315 215v45h45v-45h-45zM415 315v45h45v-45h-45zM415 415v45h45v-45h-45z" />
<glyph unicode="w" d="M15 215v45h45v-45h-45zM15 315v45h45v-45h-45zM15 415v45h45v-45h-45zM115 15v45h45v-45h-45zM115 115v45h45v-45h-45zM215 215v45h45v-45h-45zM215 315v45h45v-45h-45zM315 15v45h45v-45h-45zM315 115v45h45v-45h-45zM415 215v45h45v-45h-45zM415 315v45h45v-45h-45z M415 415v45h45v-45h-45z" />
<glyph unicode="x" d="M15 15v45h45v-45h-45zM15 115v45h45v-45h-45zM15 315v45h45v-45h-45zM15 415v45h45v-45h-45zM115 215v45h45v-45h-45zM215 215v45h45v-45h-45zM315 215v45h45v-45h-45zM415 15v45h45v-45h-45zM415 115v45h45v-45h-45zM415 315v45h45v-45h-45zM415 415v45h45v-45h-45z" />
<glyph unicode="y" d="M15 -140h45v-45h-45v45zM15 315v45h45v-45h-45zM15 415v45h45v-45h-45zM115 115v45h45v-45h-45zM115 -140h45v-45h-45v45zM115 215v45h45v-45h-45zM215 15v45h45v-45h-45zM215 -40h45v-45h-45v45zM315 115v45h45v-45h-45zM315 215v45h45v-45h-45zM415 315v45h45v-45h-45z M415 415v45h45v-45h-45z" />
<glyph unicode="z" d="M15 15v45h45v-45h-45zM15 415v45h45v-45h-45zM115 15v45h45v-45h-45zM115 115v45h45v-45h-45zM115 415v45h45v-45h-45zM215 15v45h45v-45h-45zM215 215v45h45v-45h-45zM215 415v45h45v-45h-45zM315 15v45h45v-45h-45zM315 315v45h45v-45h-45zM315 415v45h45v-45h-45z M415 15v45h45v-45h-45zM415 415v45h45v-45h-45z" />
<glyph unicode="{" d="M115 315v45h45v-45h-45zM215 115v45h45v-45h-45zM215 215v45h45v-45h-45zM215 415v45h45v-45h-45zM215 515v45h45v-45h-45zM315 15v45h45v-45h-45zM315 615v45h45v-45h-45z" />
<glyph unicode="|" d="M215 15v45h45v-45h-45zM215 115v45h45v-45h-45zM215 215v45h45v-45h-45zM215 315v45h45v-45h-45zM215 415v45h45v-45h-45zM215 515v45h45v-45h-45zM215 615v45h45v-45h-45z" />
<glyph unicode="}" d="M215 15v45h45v-45h-45zM215 615v45h45v-45h-45zM315 115v45h45v-45h-45zM315 215v45h45v-45h-45zM315 415v45h45v-45h-45zM315 515v45h45v-45h-45zM415 315v45h45v-45h-45z" />
<glyph unicode="~" d="M15 315v45h45v-45h-45zM115 415v45h45v-45h-45zM215 315v45h45v-45h-45zM315 215v45h45v-45h-45zM415 315v45h45v-45h-45z" />
<glyph unicode="&#xa0;" />
<glyph unicode="&#xa1;" d="M215 15v45h45v-45h-45zM215 115v45h45v-45h-45zM215 215v45h45v-45h-45zM215 315v45h45v-45h-45zM215 515v45h45v-45h-45zM215 615v45h45v-45h-45z" />
<glyph unicode="&#xa2;" d="M15 115v45h45v-45h-45zM15 215v45h45v-45h-45zM15 315v45h45v-45h-45zM115 15v45h45v-45h-45zM115 415v45h45v-45h-45zM215 15v45h45v-45h-45zM215 -40h45v-45h-45v45zM215 115v45h45v-45h-45zM215 215v45h45v-45h-45zM215 315v45h45v-45h-45zM215 415v45h45v-45h-45z M215 515v45h45v-45h-45zM315 15v45h45v-45h-45zM315 415v45h45v-45h-45zM415 115v45h45v-45h-45zM415 315v45h45v-45h-45z" />
<glyph unicode="&#xa3;" d="M15 15v45h45v-45h-45zM15 315v45h45v-45h-45zM115 15v45h45v-45h-45zM115 115v45h45v-45h-45zM115 215v45h45v-45h-45zM115 315v45h45v-45h-45zM115 415v45h45v-45h-45zM115 515v45h45v-45h-45zM215 15v45h45v-45h-45zM215 315v45h45v-45h-45zM215 615v45h45v-45h-45z M315 15v45h45v-45h-45zM315 315v45h45v-45h-45zM315 615v45h45v-45h-45zM415 15v45h45v-45h-45zM415 515v45h45v-45h-45z" />
<glyph unicode="&#xa4;" d="M15 15v45h45v-45h-45zM15 415v45h45v-45h-45zM115 115v45h45v-45h-45zM115 215v45h45v-45h-45zM115 315v45h45v-45h-45zM215 115v45h45v-45h-45zM215 315v45h45v-45h-45zM315 115v45h45v-45h-45zM315 215v45h45v-45h-45zM315 315v45h45v-45h-45zM415 15v45h45v-45h-45z M415 415v45h45v-45h-45z" />
<glyph unicode="&#xa5;" d="M15 215v45h45v-45h-45zM15 515v45h45v-45h-45zM15 615v45h45v-45h-45zM115 215v45h45v-45h-45zM115 415v45h45v-45h-45zM215 15v45h45v-45h-45zM215 115v45h45v-45h-45zM215 215v45h45v-45h-45zM215 315v45h45v-45h-45zM315 215v45h45v-45h-45zM315 415v45h45v-45h-45z M415 215v45h45v-45h-45zM415 515v45h45v-45h-45zM415 615v45h45v-45h-45z" />
<glyph unicode="&#xa6;" d="M215 15v45h45v-45h-45zM215 115v45h45v-45h-45zM215 215v45h45v-45h-45zM215 415v45h45v-45h-45zM215 515v45h45v-45h-45zM215 615v45h45v-45h-45z" />
<glyph unicode="&#xa7;" d="M115 15v45h45v-45h-45zM115 315v45h45v-45h-45zM115 515v45h45v-45h-45zM215 15v45h45v-45h-45zM215 215v45h45v-45h-45zM215 415v45h45v-45h-45zM215 615v45h45v-45h-45zM315 15v45h45v-45h-45zM315 215v45h45v-45h-45zM315 415v45h45v-45h-45zM315 615v45h45v-45h-45z M415 115v45h45v-45h-45zM415 315v45h45v-45h-45zM415 615v45h45v-45h-45z" />
<glyph unicode="&#xa8;" d="M15 615v45h45v-45h-45zM15 715v45h45v-45h-45zM415 615v45h45v-45h-45zM415 715v45h45v-45h-45z" />
<glyph unicode="&#xa9;" d="M15 115v45h45v-45h-45zM15 215v45h45v-45h-45zM15 315v45h45v-45h-45zM115 15v45h45v-45h-45zM115 215v45h45v-45h-45zM115 415v45h45v-45h-45zM215 15v45h45v-45h-45zM215 115v45h45v-45h-45zM215 315v45h45v-45h-45zM215 415v45h45v-45h-45zM315 15v45h45v-45h-45z M315 415v45h45v-45h-45zM415 115v45h45v-45h-45zM415 215v45h45v-45h-45zM415 315v45h45v-45h-45z" />
<glyph unicode="&#xaa;" d="M15 415v45h45v-45h-45zM115 315v45h45v-45h-45zM115 415v45h45v-45h-45zM115 615v45h45v-45h-45zM215 315v45h45v-45h-45zM215 415v45h45v-45h-45zM215 515v45h45v-45h-45z" />
<glyph unicode="&#xab;" d="M15 215v45h45v-45h-45zM115 115v45h45v-45h-45zM115 315v45h45v-45h-45zM215 15v45h45v-45h-45zM215 215v45h45v-45h-45zM215 415v45h45v-45h-45zM315 115v45h45v-45h-45zM315 315v45h45v-45h-45zM415 15v45h45v-45h-45zM415 415v45h45v-45h-45z" />
<glyph unicode="&#xac;" d="M15 215v45h45v-45h-45zM115 215v45h45v-45h-45zM215 215v45h45v-45h-45zM315 215v45h45v-45h-45zM415 15v45h45v-45h-45zM415 115v45h45v-45h-45zM415 215v45h45v-45h-45z" />
<glyph unicode="&#xad;" d="M115 215v45h45v-45h-45zM215 215v45h45v-45h-45zM315 215v45h45v-45h-45z" />
<glyph unicode="&#xae;" d="M15 315v45h45v-45h-45zM15 415v45h45v-45h-45zM15 515v45h45v-45h-45zM115 215v45h45v-45h-45zM115 615v45h45v-45h-45zM215 215v45h45v-45h-45zM215 415v45h45v-45h-45zM215 515v45h45v-45h-45zM215 615v45h45v-45h-45zM315 215v45h45v-45h-45zM315 315v45h45v-45h-45z M315 515v45h45v-45h-45zM315 615v45h45v-45h-45zM415 315v45h45v-45h-45zM415 415v45h45v-45h-45zM415 515v45h45v-45h-45z" />
<glyph unicode="&#xaf;" d="M115 615v45h45v-45h-45zM215 615v45h45v-45h-45zM315 615v45h45v-45h-45z" />
<glyph unicode="&#xb0;" d="M15 515v45h45v-45h-45zM115 415v45h45v-45h-45zM115 615v45h45v-45h-45zM215 515v45h45v-45h-45z" />
<glyph unicode="&#xb1;" d="M15 15v45h45v-45h-45zM15 315v45h45v-45h-45zM115 15v45h45v-45h-45zM115 315v45h45v-45h-45zM215 15v45h45v-45h-45zM215 215v45h45v-45h-45zM215 315v45h45v-45h-45zM215 415v45h45v-45h-45zM315 15v45h45v-45h-45zM315 315v45h45v-45h-45zM415 15v45h45v-45h-45z M415 315v45h45v-45h-45z" />
<glyph unicode="&#xb2;" d="M15 315v45h45v-45h-45zM15 415v45h45v-45h-45zM15 615v45h45v-45h-45zM115 315v45h45v-45h-45zM115 515v45h45v-45h-45z" />
<glyph unicode="&#xb3;" d="M15 315v45h45v-45h-45zM15 615v45h45v-45h-45zM115 315v45h45v-45h-45zM115 415v45h45v-45h-45zM115 515v45h45v-45h-45z" />
<glyph unicode="&#xb4;" d="M115 615v45h45v-45h-45zM215 615v45h45v-45h-45zM315 715v45h45v-45h-45z" />
<glyph unicode="&#xb5;" d="M15 15v45h45v-45h-45zM15 -40h45v-45h-45v45zM15 115v45h45v-45h-45zM15 -140h45v-45h-45v45zM15 215v45h45v-45h-45zM15 315v45h45v-45h-45zM15 415v45h45v-45h-45zM115 15v45h45v-45h-45zM215 15v45h45v-45h-45zM315 115v45h45v-45h-45zM415 15v45h45v-45h-45zM415 115 v45h45v-45h-45zM415 215v45h45v-45h-45zM415 315v45h45v-45h-45zM415 415v45h45v-45h-45z" />
<glyph unicode="&#xb6;" d="M15 415v45h45v-45h-45zM15 515v45h45v-45h-45zM115 315v45h45v-45h-45zM115 415v45h45v-45h-45zM115 515v45h45v-45h-45zM115 615v45h45v-45h-45zM215 15v45h45v-45h-45zM215 115v45h45v-45h-45zM215 215v45h45v-45h-45zM215 315v45h45v-45h-45zM215 415v45h45v-45h-45z M215 515v45h45v-45h-45zM215 615v45h45v-45h-45zM415 15v45h45v-45h-45zM415 115v45h45v-45h-45zM415 215v45h45v-45h-45zM415 315v45h45v-45h-45zM415 415v45h45v-45h-45zM415 515v45h45v-45h-45zM415 615v45h45v-45h-45z" />
<glyph unicode="&#xb7;" d="M115 215v45h45v-45h-45zM115 315v45h45v-45h-45z" />
<glyph unicode="&#xb8;" d="M115 -140h45v-45h-45v45zM215 -40h45v-45h-45v45z" />
<glyph unicode="&#xb9;" d="M15 315v45h45v-45h-45zM15 615v45h45v-45h-45zM115 315v45h45v-45h-45zM115 415v45h45v-45h-45zM115 515v45h45v-45h-45zM115 615v45h45v-45h-45zM215 315v45h45v-45h-45z" />
<glyph unicode="&#xba;" d="M15 515v45h45v-45h-45zM115 415v45h45v-45h-45zM115 615v45h45v-45h-45zM215 515v45h45v-45h-45z" />
<glyph unicode="&#xbb;" d="M15 15v45h45v-45h-45zM15 415v45h45v-45h-45zM115 115v45h45v-45h-45zM115 315v45h45v-45h-45zM215 15v45h45v-45h-45zM215 215v45h45v-45h-45zM215 415v45h45v-45h-45zM315 115v45h45v-45h-45zM315 315v45h45v-45h-45zM415 215v45h45v-45h-45z" />
<glyph unicode="&#xbc;" d="M15 615v45h45v-45h-45zM115 15v45h45v-45h-45zM115 115v45h45v-45h-45zM115 415v45h45v-45h-45zM115 515v45h45v-45h-45zM115 615v45h45v-45h-45zM215 215v45h45v-45h-45zM215 315v45h45v-45h-45zM315 415v45h45v-45h-45zM415 215v45h45v-45h-45zM415 515v45h45v-45h-45z M415 615v45h45v-45h-45zM515 15v45h45v-45h-45zM515 115v45h45v-45h-45zM515 215v45h45v-45h-45zM515 315v45h45v-45h-45z" />
<glyph unicode="&#xbd;" d="M15 615v45h45v-45h-45zM115 15v45h45v-45h-45zM115 115v45h45v-45h-45zM115 415v45h45v-45h-45zM115 515v45h45v-45h-45zM115 615v45h45v-45h-45zM215 215v45h45v-45h-45zM215 315v45h45v-45h-45zM315 415v45h45v-45h-45zM415 15v45h45v-45h-45zM415 115v45h45v-45h-45z M415 315v45h45v-45h-45zM415 515v45h45v-45h-45zM415 615v45h45v-45h-45zM515 15v45h45v-45h-45zM515 215v45h45v-45h-45z" />
<glyph unicode="&#xbe;" d="M15 315v45h45v-45h-45zM15 615v45h45v-45h-45zM115 15v45h45v-45h-45zM115 115v45h45v-45h-45zM115 315v45h45v-45h-45zM115 415v45h45v-45h-45zM115 515v45h45v-45h-45zM215 215v45h45v-45h-45zM215 315v45h45v-45h-45zM315 415v45h45v-45h-45zM415 215v45h45v-45h-45z M415 515v45h45v-45h-45zM415 615v45h45v-45h-45zM515 15v45h45v-45h-45zM515 115v45h45v-45h-45zM515 215v45h45v-45h-45zM515 315v45h45v-45h-45z" />
<glyph unicode="&#xbf;" d="M15 115v45h45v-45h-45zM15 215v45h45v-45h-45zM115 15v45h45v-45h-45zM115 315v45h45v-45h-45zM215 15v45h45v-45h-45zM215 315v45h45v-45h-45zM215 515v45h45v-45h-45zM215 615v45h45v-45h-45zM315 15v45h45v-45h-45zM415 115v45h45v-45h-45z" />
<glyph unicode="&#xc0;" d="M15 15v45h45v-45h-45zM15 115v45h45v-45h-45zM15 215v45h45v-45h-45zM15 315v45h45v-45h-45zM15 415v45h45v-45h-45zM15 515v45h45v-45h-45zM115 215v45h45v-45h-45zM115 615v45h45v-45h-45zM115 940v45h45v-45h-45zM215 215v45h45v-45h-45zM215 615v45h45v-45h-45z M215 840v45h45v-45h-45zM315 215v45h45v-45h-45zM315 615v45h45v-45h-45zM315 840v45h45v-45h-45zM415 15v45h45v-45h-45zM415 115v45h45v-45h-45zM415 215v45h45v-45h-45zM415 315v45h45v-45h-45zM415 415v45h45v-45h-45zM415 515v45h45v-45h-45z" />
<glyph unicode="&#xc1;" d="M15 15v45h45v-45h-45zM15 115v45h45v-45h-45zM15 215v45h45v-45h-45zM15 315v45h45v-45h-45zM15 415v45h45v-45h-45zM15 515v45h45v-45h-45zM115 215v45h45v-45h-45zM115 615v45h45v-45h-45zM115 840v45h45v-45h-45zM215 215v45h45v-45h-45zM215 615v45h45v-45h-45z M215 840v45h45v-45h-45zM315 215v45h45v-45h-45zM315 615v45h45v-45h-45zM315 940v45h45v-45h-45zM415 15v45h45v-45h-45zM415 115v45h45v-45h-45zM415 215v45h45v-45h-45zM415 315v45h45v-45h-45zM415 415v45h45v-45h-45zM415 515v45h45v-45h-45z" />
<glyph unicode="&#xc2;" d="M15 15v45h45v-45h-45zM15 115v45h45v-45h-45zM15 215v45h45v-45h-45zM15 315v45h45v-45h-45zM15 415v45h45v-45h-45zM15 515v45h45v-45h-45zM115 215v45h45v-45h-45zM115 615v45h45v-45h-45zM115 840v45h45v-45h-45zM215 215v45h45v-45h-45zM215 615v45h45v-45h-45z M215 940v45h45v-45h-45zM315 215v45h45v-45h-45zM315 615v45h45v-45h-45zM315 840v45h45v-45h-45zM415 15v45h45v-45h-45zM415 115v45h45v-45h-45zM415 215v45h45v-45h-45zM415 315v45h45v-45h-45zM415 415v45h45v-45h-45zM415 515v45h45v-45h-45z" />
<glyph unicode="&#xc3;" d="M15 15v45h45v-45h-45zM15 115v45h45v-45h-45zM15 215v45h45v-45h-45zM15 315v45h45v-45h-45zM15 415v45h45v-45h-45zM15 515v45h45v-45h-45zM15 840v45h45v-45h-45zM115 215v45h45v-45h-45zM115 615v45h45v-45h-45zM115 940v45h45v-45h-45zM215 215v45h45v-45h-45z M215 615v45h45v-45h-45zM215 840v45h45v-45h-45zM315 215v45h45v-45h-45zM315 615v45h45v-45h-45zM315 840v45h45v-45h-45zM415 15v45h45v-45h-45zM415 115v45h45v-45h-45zM415 215v45h45v-45h-45zM415 315v45h45v-45h-45zM415 415v45h45v-45h-45zM415 515v45h45v-45h-45z M415 940v45h45v-45h-45z" />
<glyph unicode="&#xc4;" d="M15 15v45h45v-45h-45zM15 115v45h45v-45h-45zM15 215v45h45v-45h-45zM15 315v45h45v-45h-45zM15 415v45h45v-45h-45zM15 515v45h45v-45h-45zM15 840v45h45v-45h-45zM15 940v45h45v-45h-45zM115 215v45h45v-45h-45zM115 615v45h45v-45h-45zM215 215v45h45v-45h-45z M215 615v45h45v-45h-45zM315 215v45h45v-45h-45zM315 615v45h45v-45h-45zM415 15v45h45v-45h-45zM415 115v45h45v-45h-45zM415 215v45h45v-45h-45zM415 315v45h45v-45h-45zM415 415v45h45v-45h-45zM415 515v45h45v-45h-45zM415 840v45h45v-45h-45zM415 940v45h45v-45h-45z " />
<glyph unicode="&#xc5;" d="M15 15v45h45v-45h-45zM15 115v45h45v-45h-45zM15 215v45h45v-45h-45zM15 315v45h45v-45h-45zM15 415v45h45v-45h-45zM15 515v45h45v-45h-45zM115 215v45h45v-45h-45zM115 615v45h45v-45h-45zM115 940v45h45v-45h-45zM215 215v45h45v-45h-45zM215 615v45h45v-45h-45z M215 840v45h45v-45h-45zM215 1040v45h45v-45h-45zM315 215v45h45v-45h-45zM315 615v45h45v-45h-45zM315 940v45h45v-45h-45zM415 15v45h45v-45h-45zM415 115v45h45v-45h-45zM415 215v45h45v-45h-45zM415 315v45h45v-45h-45zM415 415v45h45v-45h-45zM415 515v45h45v-45h-45z " />
<glyph unicode="&#xc6;" d="M15 15v45h45v-45h-45zM15 115v45h45v-45h-45zM15 215v45h45v-45h-45zM15 315v45h45v-45h-45zM15 415v45h45v-45h-45zM15 515v45h45v-45h-45zM115 215v45h45v-45h-45zM115 615v45h45v-45h-45zM215 15v45h45v-45h-45zM215 115v45h45v-45h-45zM215 215v45h45v-45h-45z M215 315v45h45v-45h-45zM215 415v45h45v-45h-45zM215 515v45h45v-45h-45zM215 615v45h45v-45h-45zM315 15v45h45v-45h-45zM315 315v45h45v-45h-45zM315 615v45h45v-45h-45zM415 15v45h45v-45h-45zM415 615v45h45v-45h-45z" />
<glyph unicode="&#xc7;" d="M15 115v45h45v-45h-45zM15 215v45h45v-45h-45zM15 315v45h45v-45h-45zM15 415v45h45v-45h-45zM15 515v45h45v-45h-45zM115 15v45h45v-45h-45zM115 -140h45v-45h-45v45zM115 615v45h45v-45h-45zM215 15v45h45v-45h-45zM215 -40h45v-45h-45v45zM215 615v45h45v-45h-45z M315 15v45h45v-45h-45zM315 615v45h45v-45h-45zM415 115v45h45v-45h-45zM415 515v45h45v-45h-45z" />
<glyph unicode="&#xc8;" d="M15 15v45h45v-45h-45zM15 115v45h45v-45h-45zM15 215v45h45v-45h-45zM15 315v45h45v-45h-45zM15 415v45h45v-45h-45zM15 515v45h45v-45h-45zM15 615v45h45v-45h-45zM115 15v45h45v-45h-45zM115 315v45h45v-45h-45zM115 615v45h45v-45h-45zM115 940v45h45v-45h-45zM215 15 v45h45v-45h-45zM215 315v45h45v-45h-45zM215 615v45h45v-45h-45zM215 840v45h45v-45h-45zM315 15v45h45v-45h-45zM315 315v45h45v-45h-45zM315 615v45h45v-45h-45zM315 840v45h45v-45h-45zM415 15v45h45v-45h-45zM415 615v45h45v-45h-45z" />
<glyph unicode="&#xc9;" d="M15 15v45h45v-45h-45zM15 115v45h45v-45h-45zM15 215v45h45v-45h-45zM15 315v45h45v-45h-45zM15 415v45h45v-45h-45zM15 515v45h45v-45h-45zM15 615v45h45v-45h-45zM115 15v45h45v-45h-45zM115 315v45h45v-45h-45zM115 615v45h45v-45h-45zM115 840v45h45v-45h-45zM215 15 v45h45v-45h-45zM215 315v45h45v-45h-45zM215 615v45h45v-45h-45zM215 840v45h45v-45h-45zM315 15v45h45v-45h-45zM315 315v45h45v-45h-45zM315 615v45h45v-45h-45zM315 940v45h45v-45h-45zM415 15v45h45v-45h-45zM415 615v45h45v-45h-45z" />
<glyph unicode="&#xca;" d="M15 15v45h45v-45h-45zM15 115v45h45v-45h-45zM15 215v45h45v-45h-45zM15 315v45h45v-45h-45zM15 415v45h45v-45h-45zM15 515v45h45v-45h-45zM15 615v45h45v-45h-45zM115 15v45h45v-45h-45zM115 315v45h45v-45h-45zM115 615v45h45v-45h-45zM115 840v45h45v-45h-45zM215 15 v45h45v-45h-45zM215 315v45h45v-45h-45zM215 615v45h45v-45h-45zM215 940v45h45v-45h-45zM315 15v45h45v-45h-45zM315 315v45h45v-45h-45zM315 615v45h45v-45h-45zM315 840v45h45v-45h-45zM415 15v45h45v-45h-45zM415 615v45h45v-45h-45z" />
<glyph unicode="&#xcb;" d="M15 15v45h45v-45h-45zM15 115v45h45v-45h-45zM15 215v45h45v-45h-45zM15 315v45h45v-45h-45zM15 415v45h45v-45h-45zM15 515v45h45v-45h-45zM15 615v45h45v-45h-45zM15 840v45h45v-45h-45zM15 940v45h45v-45h-45zM115 15v45h45v-45h-45zM115 315v45h45v-45h-45zM115 615 v45h45v-45h-45zM215 15v45h45v-45h-45zM215 315v45h45v-45h-45zM215 615v45h45v-45h-45zM315 15v45h45v-45h-45zM315 315v45h45v-45h-45zM315 615v45h45v-45h-45zM415 15v45h45v-45h-45zM415 615v45h45v-45h-45zM415 840v45h45v-45h-45zM415 940v45h45v-45h-45z" />
<glyph unicode="&#xcc;" d="M15 15v45h45v-45h-45zM15 615v45h45v-45h-45zM115 15v45h45v-45h-45zM115 615v45h45v-45h-45zM115 940v45h45v-45h-45zM215 15v45h45v-45h-45zM215 115v45h45v-45h-45zM215 215v45h45v-45h-45zM215 315v45h45v-45h-45zM215 415v45h45v-45h-45zM215 515v45h45v-45h-45z M215 615v45h45v-45h-45zM215 840v45h45v-45h-45zM315 15v45h45v-45h-45zM315 615v45h45v-45h-45zM315 840v45h45v-45h-45zM415 15v45h45v-45h-45zM415 615v45h45v-45h-45z" />
<glyph unicode="&#xcd;" d="M15 15v45h45v-45h-45zM15 615v45h45v-45h-45zM115 15v45h45v-45h-45zM115 615v45h45v-45h-45zM115 840v45h45v-45h-45zM215 15v45h45v-45h-45zM215 115v45h45v-45h-45zM215 215v45h45v-45h-45zM215 315v45h45v-45h-45zM215 415v45h45v-45h-45zM215 515v45h45v-45h-45z M215 615v45h45v-45h-45zM215 840v45h45v-45h-45zM315 15v45h45v-45h-45zM315 615v45h45v-45h-45zM315 940v45h45v-45h-45zM415 15v45h45v-45h-45zM415 615v45h45v-45h-45z" />
<glyph unicode="&#xce;" d="M15 15v45h45v-45h-45zM15 615v45h45v-45h-45zM115 15v45h45v-45h-45zM115 615v45h45v-45h-45zM115 840v45h45v-45h-45zM215 15v45h45v-45h-45zM215 115v45h45v-45h-45zM215 215v45h45v-45h-45zM215 315v45h45v-45h-45zM215 415v45h45v-45h-45zM215 515v45h45v-45h-45z M215 615v45h45v-45h-45zM215 940v45h45v-45h-45zM315 15v45h45v-45h-45zM315 615v45h45v-45h-45zM315 840v45h45v-45h-45zM415 15v45h45v-45h-45zM415 615v45h45v-45h-45z" />
<glyph unicode="&#xcf;" d="M15 15v45h45v-45h-45zM15 615v45h45v-45h-45zM15 840v45h45v-45h-45zM15 940v45h45v-45h-45zM115 15v45h45v-45h-45zM115 615v45h45v-45h-45zM215 15v45h45v-45h-45zM215 115v45h45v-45h-45zM215 215v45h45v-45h-45zM215 315v45h45v-45h-45zM215 415v45h45v-45h-45z M215 515v45h45v-45h-45zM215 615v45h45v-45h-45zM315 15v45h45v-45h-45zM315 615v45h45v-45h-45zM415 15v45h45v-45h-45zM415 615v45h45v-45h-45zM415 840v45h45v-45h-45zM415 940v45h45v-45h-45z" />
<glyph unicode="&#xd0;" d="M15 315v45h45v-45h-45zM115 15v45h45v-45h-45zM115 115v45h45v-45h-45zM115 215v45h45v-45h-45zM115 315v45h45v-45h-45zM115 415v45h45v-45h-45zM115 515v45h45v-45h-45zM115 615v45h45v-45h-45zM215 15v45h45v-45h-45zM215 315v45h45v-45h-45zM215 615v45h45v-45h-45z M315 15v45h45v-45h-45zM315 615v45h45v-45h-45zM415 115v45h45v-45h-45zM415 215v45h45v-45h-45zM415 315v45h45v-45h-45zM415 415v45h45v-45h-45zM415 515v45h45v-45h-45z" />
<glyph unicode="&#xd1;" d="M15 15v45h45v-45h-45zM15 115v45h45v-45h-45zM15 215v45h45v-45h-45zM15 315v45h45v-45h-45zM15 415v45h45v-45h-45zM15 515v45h45v-45h-45zM15 615v45h45v-45h-45zM15 840v45h45v-45h-45zM115 515v45h45v-45h-45zM115 940v45h45v-45h-45zM215 315v45h45v-45h-45z M215 415v45h45v-45h-45zM215 840v45h45v-45h-45zM315 215v45h45v-45h-45zM315 840v45h45v-45h-45zM415 15v45h45v-45h-45zM415 115v45h45v-45h-45zM415 215v45h45v-45h-45zM415 315v45h45v-45h-45zM415 415v45h45v-45h-45zM415 515v45h45v-45h-45zM415 615v45h45v-45h-45z M415 940v45h45v-45h-45z" />
<glyph unicode="&#xd2;" d="M15 115v45h45v-45h-45zM15 215v45h45v-45h-45zM15 315v45h45v-45h-45zM15 415v45h45v-45h-45zM15 515v45h45v-45h-45zM115 15v45h45v-45h-45zM115 615v45h45v-45h-45zM115 940v45h45v-45h-45zM215 15v45h45v-45h-45zM215 615v45h45v-45h-45zM215 840v45h45v-45h-45z M315 15v45h45v-45h-45zM315 615v45h45v-45h-45zM315 840v45h45v-45h-45zM415 115v45h45v-45h-45zM415 215v45h45v-45h-45zM415 315v45h45v-45h-45zM415 415v45h45v-45h-45zM415 515v45h45v-45h-45z" />
<glyph unicode="&#xd3;" d="M15 115v45h45v-45h-45zM15 215v45h45v-45h-45zM15 315v45h45v-45h-45zM15 415v45h45v-45h-45zM15 515v45h45v-45h-45zM115 15v45h45v-45h-45zM115 615v45h45v-45h-45zM115 840v45h45v-45h-45zM215 15v45h45v-45h-45zM215 615v45h45v-45h-45zM215 840v45h45v-45h-45z M315 15v45h45v-45h-45zM315 615v45h45v-45h-45zM315 940v45h45v-45h-45zM415 115v45h45v-45h-45zM415 215v45h45v-45h-45zM415 315v45h45v-45h-45zM415 415v45h45v-45h-45zM415 515v45h45v-45h-45z" />
<glyph unicode="&#xd4;" d="M15 115v45h45v-45h-45zM15 215v45h45v-45h-45zM15 315v45h45v-45h-45zM15 415v45h45v-45h-45zM15 515v45h45v-45h-45zM115 15v45h45v-45h-45zM115 615v45h45v-45h-45zM115 840v45h45v-45h-45zM215 15v45h45v-45h-45zM215 615v45h45v-45h-45zM215 940v45h45v-45h-45z M315 15v45h45v-45h-45zM315 615v45h45v-45h-45zM315 840v45h45v-45h-45zM415 115v45h45v-45h-45zM415 215v45h45v-45h-45zM415 315v45h45v-45h-45zM415 415v45h45v-45h-45zM415 515v45h45v-45h-45z" />
<glyph unicode="&#xd5;" d="M15 115v45h45v-45h-45zM15 215v45h45v-45h-45zM15 315v45h45v-45h-45zM15 415v45h45v-45h-45zM15 515v45h45v-45h-45zM15 840v45h45v-45h-45zM115 15v45h45v-45h-45zM115 615v45h45v-45h-45zM115 940v45h45v-45h-45zM215 15v45h45v-45h-45zM215 615v45h45v-45h-45z M215 840v45h45v-45h-45zM315 15v45h45v-45h-45zM315 615v45h45v-45h-45zM315 840v45h45v-45h-45zM415 115v45h45v-45h-45zM415 215v45h45v-45h-45zM415 315v45h45v-45h-45zM415 415v45h45v-45h-45zM415 515v45h45v-45h-45zM415 940v45h45v-45h-45z" />
<glyph unicode="&#xd6;" d="M15 115v45h45v-45h-45zM15 215v45h45v-45h-45zM15 315v45h45v-45h-45zM15 415v45h45v-45h-45zM15 515v45h45v-45h-45zM15 840v45h45v-45h-45zM15 940v45h45v-45h-45zM115 15v45h45v-45h-45zM115 615v45h45v-45h-45zM215 15v45h45v-45h-45zM215 615v45h45v-45h-45zM315 15 v45h45v-45h-45zM315 615v45h45v-45h-45zM415 115v45h45v-45h-45zM415 215v45h45v-45h-45zM415 315v45h45v-45h-45zM415 415v45h45v-45h-45zM415 515v45h45v-45h-45zM415 840v45h45v-45h-45zM415 940v45h45v-45h-45z" />
<glyph unicode="&#xd7;" d="M15 15v45h45v-45h-45zM15 415v45h45v-45h-45zM115 115v45h45v-45h-45zM115 315v45h45v-45h-45zM215 215v45h45v-45h-45zM315 115v45h45v-45h-45zM315 315v45h45v-45h-45zM415 15v45h45v-45h-45zM415 415v45h45v-45h-45z" />
<glyph unicode="&#xd8;" d="M15 115v45h45v-45h-45zM15 215v45h45v-45h-45zM15 315v45h45v-45h-45zM15 415v45h45v-45h-45zM15 515v45h45v-45h-45zM115 15v45h45v-45h-45zM115 615v45h45v-45h-45zM117 115v45h45v-45h-45zM215 15v45h45v-45h-45zM215 615v45h45v-45h-45zM216 215v45h45v-45h-45z M216 315v45h45v-45h-45zM216 415v45h45v-45h-45zM315 15v45h45v-45h-45zM315 515v45h45v-45h-45zM315 615v45h45v-45h-45zM415 115v45h45v-45h-45zM415 215v45h45v-45h-45zM415 315v45h45v-45h-45zM415 415v45h45v-45h-45zM415 515v45h45v-45h-45z" />
<glyph unicode="&#xd9;" d="M15 115v45h45v-45h-45zM15 215v45h45v-45h-45zM15 315v45h45v-45h-45zM15 415v45h45v-45h-45zM15 515v45h45v-45h-45zM15 615v45h45v-45h-45zM115 15v45h45v-45h-45zM115 940v45h45v-45h-45zM215 15v45h45v-45h-45zM215 840v45h45v-45h-45zM315 15v45h45v-45h-45z M315 840v45h45v-45h-45zM415 115v45h45v-45h-45zM415 215v45h45v-45h-45zM415 315v45h45v-45h-45zM415 415v45h45v-45h-45zM415 515v45h45v-45h-45zM415 615v45h45v-45h-45z" />
<glyph unicode="&#xda;" d="M15 115v45h45v-45h-45zM15 215v45h45v-45h-45zM15 315v45h45v-45h-45zM15 415v45h45v-45h-45zM15 515v45h45v-45h-45zM15 615v45h45v-45h-45zM115 15v45h45v-45h-45zM115 840v45h45v-45h-45zM215 15v45h45v-45h-45zM215 840v45h45v-45h-45zM315 15v45h45v-45h-45z M315 940v45h45v-45h-45zM415 115v45h45v-45h-45zM415 215v45h45v-45h-45zM415 315v45h45v-45h-45zM415 415v45h45v-45h-45zM415 515v45h45v-45h-45zM415 615v45h45v-45h-45z" />
<glyph unicode="&#xdb;" d="M15 115v45h45v-45h-45zM15 215v45h45v-45h-45zM15 315v45h45v-45h-45zM15 415v45h45v-45h-45zM15 515v45h45v-45h-45zM15 615v45h45v-45h-45zM115 15v45h45v-45h-45zM115 840v45h45v-45h-45zM215 15v45h45v-45h-45zM215 940v45h45v-45h-45zM315 15v45h45v-45h-45z M315 840v45h45v-45h-45zM415 115v45h45v-45h-45zM415 215v45h45v-45h-45zM415 315v45h45v-45h-45zM415 415v45h45v-45h-45zM415 515v45h45v-45h-45zM415 615v45h45v-45h-45z" />
<glyph unicode="&#xdc;" d="M15 115v45h45v-45h-45zM15 215v45h45v-45h-45zM15 315v45h45v-45h-45zM15 415v45h45v-45h-45zM15 515v45h45v-45h-45zM15 615v45h45v-45h-45zM15 840v45h45v-45h-45zM15 940v45h45v-45h-45zM115 15v45h45v-45h-45zM215 15v45h45v-45h-45zM315 15v45h45v-45h-45zM415 115 v45h45v-45h-45zM415 215v45h45v-45h-45zM415 315v45h45v-45h-45zM415 415v45h45v-45h-45zM415 515v45h45v-45h-45zM415 615v45h45v-45h-45zM415 840v45h45v-45h-45zM415 940v45h45v-45h-45z" />
<glyph unicode="&#xdd;" d="M15 415v45h45v-45h-45zM15 515v45h45v-45h-45zM15 615v45h45v-45h-45zM115 315v45h45v-45h-45zM115 840v45h45v-45h-45zM215 15v45h45v-45h-45zM215 115v45h45v-45h-45zM215 215v45h45v-45h-45zM215 840v45h45v-45h-45zM315 315v45h45v-45h-45zM315 940v45h45v-45h-45z M415 415v45h45v-45h-45zM415 515v45h45v-45h-45zM415 615v45h45v-45h-45z" />
<glyph unicode="&#xde;" d="M15 15v45h45v-45h-45zM15 115v45h45v-45h-45zM15 215v45h45v-45h-45zM15 315v45h45v-45h-45zM15 415v45h45v-45h-45zM15 515v45h45v-45h-45zM15 615v45h45v-45h-45zM115 215v45h45v-45h-45zM115 515v45h45v-45h-45zM215 215v45h45v-45h-45zM215 515v45h45v-45h-45z M315 215v45h45v-45h-45zM315 515v45h45v-45h-45zM415 315v45h45v-45h-45zM415 415v45h45v-45h-45z" />
<glyph unicode="&#xdf;" d="M15 15v45h45v-45h-45zM15 115v45h45v-45h-45zM15 215v45h45v-45h-45zM15 315v45h45v-45h-45zM15 415v45h45v-45h-45zM115 515v45h45v-45h-45zM215 15v45h45v-45h-45zM215 315v45h45v-45h-45zM215 615v45h45v-45h-45zM315 15v45h45v-45h-45zM315 215v45h45v-45h-45z M315 415v45h45v-45h-45zM315 515v45h45v-45h-45zM415 115v45h45v-45h-45z" />
<glyph unicode="&#xe0;" d="M15 115v45h45v-45h-45zM115 15v45h45v-45h-45zM115 215v45h45v-45h-45zM115 415v45h45v-45h-45zM115 715v45h45v-45h-45zM215 15v45h45v-45h-45zM215 215v45h45v-45h-45zM215 415v45h45v-45h-45zM215 615v45h45v-45h-45zM315 15v45h45v-45h-45zM315 215v45h45v-45h-45z M315 415v45h45v-45h-45zM315 615v45h45v-45h-45zM415 15v45h45v-45h-45zM415 115v45h45v-45h-45zM415 215v45h45v-45h-45zM415 315v45h45v-45h-45z" />
<glyph unicode="&#xe1;" d="M15 115v45h45v-45h-45zM115 15v45h45v-45h-45zM115 215v45h45v-45h-45zM115 415v45h45v-45h-45zM115 615v45h45v-45h-45zM215 15v45h45v-45h-45zM215 215v45h45v-45h-45zM215 415v45h45v-45h-45zM215 615v45h45v-45h-45zM315 15v45h45v-45h-45zM315 215v45h45v-45h-45z M315 415v45h45v-45h-45zM315 715v45h45v-45h-45zM415 15v45h45v-45h-45zM415 115v45h45v-45h-45zM415 215v45h45v-45h-45zM415 315v45h45v-45h-45z" />
<glyph unicode="&#xe2;" d="M15 115v45h45v-45h-45zM115 15v45h45v-45h-45zM115 215v45h45v-45h-45zM115 415v45h45v-45h-45zM215 15v45h45v-45h-45zM215 215v45h45v-45h-45zM215 415v45h45v-45h-45zM315 15v45h45v-45h-45zM315 215v45h45v-45h-45zM315 415v45h45v-45h-45zM415 15v45h45v-45h-45z M415 115v45h45v-45h-45zM415 215v45h45v-45h-45zM415 315v45h45v-45h-45z" />
<glyph unicode="&#xe3;" d="M15 115v45h45v-45h-45zM15 615v45h45v-45h-45zM115 15v45h45v-45h-45zM115 215v45h45v-45h-45zM115 415v45h45v-45h-45zM115 715v45h45v-45h-45zM215 15v45h45v-45h-45zM215 215v45h45v-45h-45zM215 415v45h45v-45h-45zM215 615v45h45v-45h-45zM315 15v45h45v-45h-45z M315 215v45h45v-45h-45zM315 415v45h45v-45h-45zM315 615v45h45v-45h-45zM415 15v45h45v-45h-45zM415 115v45h45v-45h-45zM415 215v45h45v-45h-45zM415 315v45h45v-45h-45zM415 715v45h45v-45h-45z" />
<glyph unicode="&#xe4;" d="M15 115v45h45v-45h-45zM15 615v45h45v-45h-45zM15 715v45h45v-45h-45zM115 15v45h45v-45h-45zM115 215v45h45v-45h-45zM115 415v45h45v-45h-45zM215 15v45h45v-45h-45zM215 215v45h45v-45h-45zM215 415v45h45v-45h-45zM315 15v45h45v-45h-45zM315 215v45h45v-45h-45z M315 415v45h45v-45h-45zM415 15v45h45v-45h-45zM415 115v45h45v-45h-45zM415 215v45h45v-45h-45zM415 315v45h45v-45h-45zM415 615v45h45v-45h-45zM415 715v45h45v-45h-45z" />
<glyph unicode="&#xe5;" d="M15 115v45h45v-45h-45zM115 15v45h45v-45h-45zM115 215v45h45v-45h-45zM115 415v45h45v-45h-45zM115 715v45h45v-45h-45zM215 15v45h45v-45h-45zM215 215v45h45v-45h-45zM215 415v45h45v-45h-45zM215 615v45h45v-45h-45zM215 815v45h45v-45h-45zM315 15v45h45v-45h-45z M315 215v45h45v-45h-45zM315 415v45h45v-45h-45zM315 715v45h45v-45h-45zM415 15v45h45v-45h-45zM415 115v45h45v-45h-45zM415 215v45h45v-45h-45zM415 315v45h45v-45h-45z" />
<glyph unicode="&#xe6;" d="M15 115v45h45v-45h-45zM115 15v45h45v-45h-45zM115 215v45h45v-45h-45zM115 415v45h45v-45h-45zM215 15v45h45v-45h-45zM215 115v45h45v-45h-45zM215 215v45h45v-45h-45zM215 315v45h45v-45h-45zM315 15v45h45v-45h-45zM315 215v45h45v-45h-45zM315 415v45h45v-45h-45z M415 15v45h45v-45h-45zM415 315v45h45v-45h-45z" />
<glyph unicode="&#xe7;" d="M15 115v45h45v-45h-45zM15 215v45h45v-45h-45zM15 315v45h45v-45h-45zM115 15v45h45v-45h-45zM115 -140h45v-45h-45v45zM115 415v45h45v-45h-45zM215 15v45h45v-45h-45zM215 -40h45v-45h-45v45zM215 415v45h45v-45h-45zM315 15v45h45v-45h-45zM315 415v45h45v-45h-45z M415 115v45h45v-45h-45zM415 315v45h45v-45h-45z" />
<glyph unicode="&#xe8;" d="M15 115v45h45v-45h-45zM15 215v45h45v-45h-45zM15 315v45h45v-45h-45zM115 15v45h45v-45h-45zM115 215v45h45v-45h-45zM115 415v45h45v-45h-45zM115 715v45h45v-45h-45zM215 15v45h45v-45h-45zM215 215v45h45v-45h-45zM215 415v45h45v-45h-45zM215 615v45h45v-45h-45z M315 15v45h45v-45h-45zM315 215v45h45v-45h-45zM315 415v45h45v-45h-45zM315 615v45h45v-45h-45zM415 15v45h45v-45h-45zM415 215v45h45v-45h-45zM415 315v45h45v-45h-45z" />
<glyph unicode="&#xe9;" d="M15 115v45h45v-45h-45zM15 215v45h45v-45h-45zM15 315v45h45v-45h-45zM115 15v45h45v-45h-45zM115 215v45h45v-45h-45zM115 415v45h45v-45h-45zM115 615v45h45v-45h-45zM215 15v45h45v-45h-45zM215 215v45h45v-45h-45zM215 415v45h45v-45h-45zM215 615v45h45v-45h-45z M315 15v45h45v-45h-45zM315 215v45h45v-45h-45zM315 415v45h45v-45h-45zM315 715v45h45v-45h-45zM415 15v45h45v-45h-45zM415 215v45h45v-45h-45zM415 315v45h45v-45h-45z" />
<glyph unicode="&#xea;" d="M15 115v45h45v-45h-45zM15 215v45h45v-45h-45zM15 315v45h45v-45h-45zM115 15v45h45v-45h-45zM115 215v45h45v-45h-45zM115 415v45h45v-45h-45zM115 615v45h45v-45h-45zM215 15v45h45v-45h-45zM215 215v45h45v-45h-45zM215 415v45h45v-45h-45zM215 715v45h45v-45h-45z M315 15v45h45v-45h-45zM315 215v45h45v-45h-45zM315 415v45h45v-45h-45zM315 615v45h45v-45h-45zM415 15v45h45v-45h-45zM415 215v45h45v-45h-45zM415 315v45h45v-45h-45z" />
<glyph unicode="&#xeb;" d="M15 115v45h45v-45h-45zM15 215v45h45v-45h-45zM15 315v45h45v-45h-45zM15 615v45h45v-45h-45zM15 715v45h45v-45h-45zM115 15v45h45v-45h-45zM115 215v45h45v-45h-45zM115 415v45h45v-45h-45zM215 15v45h45v-45h-45zM215 215v45h45v-45h-45zM215 415v45h45v-45h-45z M315 15v45h45v-45h-45zM315 215v45h45v-45h-45zM315 415v45h45v-45h-45zM415 15v45h45v-45h-45zM415 215v45h45v-45h-45zM415 315v45h45v-45h-45zM415 615v45h45v-45h-45zM415 715v45h45v-45h-45z" />
<glyph unicode="&#xec;" d="M15 15v45h45v-45h-45zM15 415v45h45v-45h-45zM115 15v45h45v-45h-45zM115 415v45h45v-45h-45zM115 715v45h45v-45h-45zM215 15v45h45v-45h-45zM215 115v45h45v-45h-45zM215 215v45h45v-45h-45zM215 315v45h45v-45h-45zM215 415v45h45v-45h-45zM215 615v45h45v-45h-45z M315 15v45h45v-45h-45zM315 615v45h45v-45h-45zM415 15v45h45v-45h-45z" />
<glyph unicode="&#xed;" d="M15 15v45h45v-45h-45zM15 415v45h45v-45h-45zM115 15v45h45v-45h-45zM115 415v45h45v-45h-45zM115 615v45h45v-45h-45zM215 15v45h45v-45h-45zM215 115v45h45v-45h-45zM215 215v45h45v-45h-45zM215 315v45h45v-45h-45zM215 415v45h45v-45h-45zM215 615v45h45v-45h-45z M315 15v45h45v-45h-45zM315 715v45h45v-45h-45zM415 15v45h45v-45h-45z" />
<glyph unicode="&#xee;" d="M15 15v45h45v-45h-45zM15 415v45h45v-45h-45zM115 15v45h45v-45h-45zM115 415v45h45v-45h-45zM115 615v45h45v-45h-45zM215 15v45h45v-45h-45zM215 115v45h45v-45h-45zM215 215v45h45v-45h-45zM215 315v45h45v-45h-45zM215 415v45h45v-45h-45zM215 715v45h45v-45h-45z M315 15v45h45v-45h-45zM315 615v45h45v-45h-45zM415 15v45h45v-45h-45z" />
<glyph unicode="&#xef;" d="M15 15v45h45v-45h-45zM15 415v45h45v-45h-45zM15 615v45h45v-45h-45zM15 715v45h45v-45h-45zM115 15v45h45v-45h-45zM115 415v45h45v-45h-45zM215 15v45h45v-45h-45zM215 115v45h45v-45h-45zM215 215v45h45v-45h-45zM215 315v45h45v-45h-45zM215 415v45h45v-45h-45z M315 15v45h45v-45h-45zM415 15v45h45v-45h-45zM415 615v45h45v-45h-45zM415 715v45h45v-45h-45z" />
<glyph unicode="&#xf0;" d="M15 115v45h45v-45h-45zM15 215v45h45v-45h-45zM115 315v45h45v-45h-45zM115 615v45h45v-45h-45zM116 15v45h45v-45h-45zM215 15v45h45v-45h-45zM215 315v45h45v-45h-45zM215 415v45h45v-45h-45zM215 615v45h45v-45h-45zM314 15l1 45h45v-45h-46zM315 315v45h45v-45h-45z M315 515v45h45v-45h-45zM415 115v45h45v-45h-45zM415 215v45h45v-45h-45zM415 315v45h45v-45h-45zM415 415v45h45v-45h-45zM415 615v45h45v-45h-45z" />
<glyph unicode="&#xf1;" d="M15 15v45h45v-45h-45zM15 115v45h45v-45h-45zM15 215v45h45v-45h-45zM15 315v45h45v-45h-45zM15 415v45h45v-45h-45zM15 615v45h45v-45h-45zM115 315v45h45v-45h-45zM115 715v45h45v-45h-45zM215 415v45h45v-45h-45zM215 615v45h45v-45h-45zM315 415v45h45v-45h-45z M315 615v45h45v-45h-45zM415 15v45h45v-45h-45zM415 115v45h45v-45h-45zM415 215v45h45v-45h-45zM415 315v45h45v-45h-45zM415 715v45h45v-45h-45z" />
<glyph unicode="&#xf2;" d="M15 115v45h45v-45h-45zM15 215v45h45v-45h-45zM15 315v45h45v-45h-45zM115 15v45h45v-45h-45zM115 415v45h45v-45h-45zM115 715v45h45v-45h-45zM215 15v45h45v-45h-45zM215 415v45h45v-45h-45zM215 615v45h45v-45h-45zM315 15v45h45v-45h-45zM315 415v45h45v-45h-45z M315 615v45h45v-45h-45zM415 115v45h45v-45h-45zM415 215v45h45v-45h-45zM415 315v45h45v-45h-45z" />
<glyph unicode="&#xf3;" d="M15 115v45h45v-45h-45zM15 215v45h45v-45h-45zM15 315v45h45v-45h-45zM115 15v45h45v-45h-45zM115 415v45h45v-45h-45zM115 615v45h45v-45h-45zM215 15v45h45v-45h-45zM215 415v45h45v-45h-45zM215 615v45h45v-45h-45zM315 15v45h45v-45h-45zM315 415v45h45v-45h-45z M315 715v45h45v-45h-45zM415 115v45h45v-45h-45zM415 215v45h45v-45h-45zM415 315v45h45v-45h-45z" />
<glyph unicode="&#xf4;" d="M15 115v45h45v-45h-45zM15 215v45h45v-45h-45zM15 315v45h45v-45h-45zM115 15v45h45v-45h-45zM115 415v45h45v-45h-45zM115 615v45h45v-45h-45zM215 15v45h45v-45h-45zM215 415v45h45v-45h-45zM215 715v45h45v-45h-45zM315 15v45h45v-45h-45zM315 415v45h45v-45h-45z M315 615v45h45v-45h-45zM415 115v45h45v-45h-45zM415 215v45h45v-45h-45zM415 315v45h45v-45h-45z" />
<glyph unicode="&#xf5;" d="M15 115v45h45v-45h-45zM15 215v45h45v-45h-45zM15 315v45h45v-45h-45zM15 615v45h45v-45h-45zM115 15v45h45v-45h-45zM115 415v45h45v-45h-45zM115 715v45h45v-45h-45zM215 15v45h45v-45h-45zM215 415v45h45v-45h-45zM215 615v45h45v-45h-45zM315 15v45h45v-45h-45z M315 415v45h45v-45h-45zM315 615v45h45v-45h-45zM415 115v45h45v-45h-45zM415 215v45h45v-45h-45zM415 315v45h45v-45h-45zM415 715v45h45v-45h-45z" />
<glyph unicode="&#xf6;" d="M15 115v45h45v-45h-45zM15 215v45h45v-45h-45zM15 315v45h45v-45h-45zM15 615v45h45v-45h-45zM15 715v45h45v-45h-45zM115 15v45h45v-45h-45zM115 415v45h45v-45h-45zM215 15v45h45v-45h-45zM215 415v45h45v-45h-45zM315 15v45h45v-45h-45zM315 415v45h45v-45h-45z M415 115v45h45v-45h-45zM415 215v45h45v-45h-45zM415 315v45h45v-45h-45zM415 615v45h45v-45h-45zM415 715v45h45v-45h-45z" />
<glyph unicode="&#xf7;" d="M15 215v45h45v-45h-45zM115 215v45h45v-45h-45zM215 15v45h45v-45h-45zM215 215v45h45v-45h-45zM215 415v45h45v-45h-45zM315 215v45h45v-45h-45zM415 215v45h45v-45h-45z" />
<glyph unicode="&#xf8;" d="M15 115v45h45v-45h-45zM15 215v45h45v-45h-45zM15 315v45h45v-45h-45zM16 -40h45v-45h-45v45zM115 15v45h45v-45h-45zM115 115v45h45v-45h-45zM115 415v45h45v-45h-45zM215 15v45h45v-45h-45zM215 215v45h45v-45h-45zM215 415v45h45v-45h-45zM315 15v45h45v-45h-45z M315 315v45h45v-45h-45zM315 415v45h45v-45h-45zM415 115v45h45v-45h-45zM415 215v45h45v-45h-45zM415 315v45h45v-45h-45zM415 515v45h45v-45h-45z" />
<glyph unicode="&#xf9;" d="M15 115v45h45v-45h-45zM15 215v45h45v-45h-45zM15 315v45h45v-45h-45zM15 415v45h45v-45h-45zM115 15v45h45v-45h-45zM115 715v45h45v-45h-45zM215 15v45h45v-45h-45zM215 615v45h45v-45h-45zM315 115v45h45v-45h-45zM315 615v45h45v-45h-45zM415 15v45h45v-45h-45z M415 115v45h45v-45h-45zM415 215v45h45v-45h-45zM415 315v45h45v-45h-45zM415 415v45h45v-45h-45z" />
<glyph unicode="&#xfa;" d="M15 115v45h45v-45h-45zM15 215v45h45v-45h-45zM15 315v45h45v-45h-45zM15 415v45h45v-45h-45zM115 15v45h45v-45h-45zM115 615v45h45v-45h-45zM215 15v45h45v-45h-45zM215 615v45h45v-45h-45zM315 115v45h45v-45h-45zM315 715v45h45v-45h-45zM415 15v45h45v-45h-45z M415 115v45h45v-45h-45zM415 215v45h45v-45h-45zM415 315v45h45v-45h-45zM415 415v45h45v-45h-45z" />
<glyph unicode="&#xfb;" d="M15 115v45h45v-45h-45zM15 215v45h45v-45h-45zM15 315v45h45v-45h-45zM15 415v45h45v-45h-45zM115 15v45h45v-45h-45zM115 615v45h45v-45h-45zM215 15v45h45v-45h-45zM215 715v45h45v-45h-45zM315 115v45h45v-45h-45zM315 615v45h45v-45h-45zM415 15v45h45v-45h-45z M415 115v45h45v-45h-45zM415 215v45h45v-45h-45zM415 315v45h45v-45h-45zM415 415v45h45v-45h-45z" />
<glyph unicode="&#xfc;" d="M15 115v45h45v-45h-45zM15 215v45h45v-45h-45zM15 315v45h45v-45h-45zM15 415v45h45v-45h-45zM15 615v45h45v-45h-45zM15 715v45h45v-45h-45zM115 15v45h45v-45h-45zM215 15v45h45v-45h-45zM315 115v45h45v-45h-45zM415 15v45h45v-45h-45zM415 115v45h45v-45h-45z M415 215v45h45v-45h-45zM415 315v45h45v-45h-45zM415 415v45h45v-45h-45zM415 615v45h45v-45h-45zM415 715v45h45v-45h-45z" />
<glyph unicode="&#xfd;" d="M15 -140h45v-45h-45v45zM15 315v45h45v-45h-45zM15 415v45h45v-45h-45zM115 115v45h45v-45h-45zM115 -140h45v-45h-45v45zM115 215v45h45v-45h-45zM115 615v45h45v-45h-45zM215 15v45h45v-45h-45zM215 -40h45v-45h-45v45zM215 615v45h45v-45h-45zM315 115v45h45v-45h-45z M315 215v45h45v-45h-45zM315 715v45h45v-45h-45zM415 315v45h45v-45h-45zM415 415v45h45v-45h-45z" />
<glyph unicode="&#xfe;" d="M15 15v45h45v-45h-45zM15 -40h45v-45h-45v45zM15 115v45h45v-45h-45zM15 -140h45v-45h-45v45zM15 215v45h45v-45h-45zM15 315v45h45v-45h-45zM15 415v45h45v-45h-45zM15 515v45h45v-45h-45zM15 615v45h45v-45h-45zM115 15v45h45v-45h-45zM115 415v45h45v-45h-45zM215 15 v45h45v-45h-45zM215 415v45h45v-45h-45zM315 15v45h45v-45h-45zM315 415v45h45v-45h-45zM415 115v45h45v-45h-45zM415 215v45h45v-45h-45zM415 315v45h45v-45h-45z" />
<glyph unicode="&#xff;" d="M15 -140h45v-45h-45v45zM15 315v45h45v-45h-45zM15 415v45h45v-45h-45zM15 615v45h45v-45h-45zM15 715v45h45v-45h-45zM115 115v45h45v-45h-45zM115 -140h45v-45h-45v45zM115 215v45h45v-45h-45zM215 15v45h45v-45h-45zM215 -40h45v-45h-45v45zM315 115v45h45v-45h-45z M315 215v45h45v-45h-45zM415 315v45h45v-45h-45zM415 415v45h45v-45h-45zM415 615v45h45v-45h-45zM415 715v45h45v-45h-45z" />
<glyph unicode="&#x152;" d="M15 115v45h45v-45h-45zM15 215v45h45v-45h-45zM15 315v45h45v-45h-45zM15 415v45h45v-45h-45zM15 515v45h45v-45h-45zM115 15v45h45v-45h-45zM115 615v45h45v-45h-45zM215 15v45h45v-45h-45zM215 115v45h45v-45h-45zM215 215v45h45v-45h-45zM215 315v45h45v-45h-45z M215 415v45h45v-45h-45zM215 515v45h45v-45h-45zM215 615v45h45v-45h-45zM315 15v45h45v-45h-45zM315 315v45h45v-45h-45zM315 615v45h45v-45h-45zM415 15v45h45v-45h-45zM415 615v45h45v-45h-45z" />
<glyph unicode="&#x153;" d="M15 115v45h45v-45h-45zM15 215v45h45v-45h-45zM15 315v45h45v-45h-45zM115 15v45h45v-45h-45zM115 415v45h45v-45h-45zM215 115v45h45v-45h-45zM215 215v45h45v-45h-45zM215 315v45h45v-45h-45zM315 15v45h45v-45h-45zM315 215v45h45v-45h-45zM315 415v45h45v-45h-45z M415 15v45h45v-45h-45zM415 215v45h45v-45h-45zM415 315v45h45v-45h-45z" />
<glyph unicode="&#x178;" d="M15 415v45h45v-45h-45zM15 515v45h45v-45h-45zM15 615v45h45v-45h-45zM15 840v45h45v-45h-45zM15 940v45h45v-45h-45zM115 315v45h45v-45h-45zM215 15v45h45v-45h-45zM215 115v45h45v-45h-45zM215 215v45h45v-45h-45zM315 315v45h45v-45h-45zM415 415v45h45v-45h-45z M415 515v45h45v-45h-45zM415 615v45h45v-45h-45zM415 840v45h45v-45h-45zM415 940v45h45v-45h-45z" />
<glyph unicode="&#x2c6;" d="M115 615v45h45v-45h-45zM215 715v45h45v-45h-45zM315 615v45h45v-45h-45z" />
<glyph unicode="&#x2dc;" d="M15 615v45h45v-45h-45zM115 715v45h45v-45h-45zM215 615v45h45v-45h-45zM315 615v45h45v-45h-45zM415 715v45h45v-45h-45z" />
<glyph unicode="&#x2000;" horiz-adv-x="542" />
<glyph unicode="&#x2001;" horiz-adv-x="1085" />
<glyph unicode="&#x2002;" horiz-adv-x="542" />
<glyph unicode="&#x2003;" horiz-adv-x="1085" />
<glyph unicode="&#x2004;" horiz-adv-x="361" />
<glyph unicode="&#x2005;" horiz-adv-x="271" />
<glyph unicode="&#x2006;" horiz-adv-x="180" />
<glyph unicode="&#x2007;" horiz-adv-x="180" />
<glyph unicode="&#x2008;" horiz-adv-x="135" />
<glyph unicode="&#x2009;" horiz-adv-x="217" />
<glyph unicode="&#x200a;" horiz-adv-x="60" />
<glyph unicode="&#x2010;" d="M115 215v45h45v-45h-45zM215 215v45h45v-45h-45zM315 215v45h45v-45h-45z" />
<glyph unicode="&#x2011;" d="M115 215v45h45v-45h-45zM215 215v45h45v-45h-45zM315 215v45h45v-45h-45z" />
<glyph unicode="&#x2012;" d="M115 215v45h45v-45h-45zM215 215v45h45v-45h-45zM315 215v45h45v-45h-45z" />
<glyph unicode="&#x2013;" d="M115 215v45h45v-45h-45zM215 215v45h45v-45h-45zM315 215v45h45v-45h-45z" />
<glyph unicode="&#x2014;" d="M15 215v45h45v-45h-45zM115 215v45h45v-45h-45zM215 215v45h45v-45h-45zM315 215v45h45v-45h-45zM415 215v45h45v-45h-45z" />
<glyph unicode="&#x2018;" d="M215 415v45h45v-45h-45zM215 515v45h45v-45h-45zM315 615v45h45v-45h-45z" />
<glyph unicode="&#x2019;" d="M215 415v45h45v-45h-45zM315 515v45h45v-45h-45zM315 615v45h45v-45h-45z" />
<glyph unicode="&#x201a;" d="M215 -40h45v-45h-45v45zM315 15v45h45v-45h-45zM315 115v45h45v-45h-45z" />
<glyph unicode="&#x201c;" d="M115 415v45h45v-45h-45zM115 515v45h45v-45h-45zM215 615v45h45v-45h-45zM315 415v45h45v-45h-45zM315 515v45h45v-45h-45zM415 615v45h45v-45h-45z" />
<glyph unicode="&#x201d;" d="M115 415v45h45v-45h-45zM215 515v45h45v-45h-45zM215 615v45h45v-45h-45zM315 415v45h45v-45h-45zM415 515v45h45v-45h-45zM415 615v45h45v-45h-45z" />
<glyph unicode="&#x201e;" d="M115 -40h45v-45h-45v45zM215 15v45h45v-45h-45zM215 115v45h45v-45h-45zM315 -40h45v-45h-45v45zM415 15v45h45v-45h-45zM415 115v45h45v-45h-45z" />
<glyph unicode="&#x2022;" d="M15 215v45h45v-45h-45zM15 315v45h45v-45h-45zM15 415v45h45v-45h-45zM115 215v45h45v-45h-45zM115 315v45h45v-45h-45zM115 415v45h45v-45h-45zM215 215v45h45v-45h-45zM215 315v45h45v-45h-45zM215 415v45h45v-45h-45z" />
<glyph unicode="&#x2026;" d="M15 15v45h45v-45h-45zM15 115v45h45v-45h-45zM215 15v45h45v-45h-45zM215 115v45h45v-45h-45zM415 15v45h45v-45h-45zM415 115v45h45v-45h-45z" />
<glyph unicode="&#x202f;" horiz-adv-x="217" />
<glyph unicode="&#x2039;" d="M115 215v45h45v-45h-45zM215 115v45h45v-45h-45zM215 315v45h45v-45h-45zM315 15v45h45v-45h-45zM315 415v45h45v-45h-45z" />
<glyph unicode="&#x203a;" d="M215 15v45h45v-45h-45zM215 415v45h45v-45h-45zM315 115v45h45v-45h-45zM315 315v45h45v-45h-45zM415 215v45h45v-45h-45z" />
<glyph unicode="&#x205f;" horiz-adv-x="271" />
<glyph unicode="&#x20ac;" d="M15 215v45h45v-45h-45zM15 415v45h45v-45h-45zM115 115v45h45v-45h-45zM115 215v45h45v-45h-45zM115 315v45h45v-45h-45zM115 415v45h45v-45h-45zM115 515v45h45v-45h-45zM215 15v45h45v-45h-45zM215 215v45h45v-45h-45zM215 415v45h45v-45h-45zM215 615v45h45v-45h-45z M315 15v45h45v-45h-45zM315 415v45h45v-45h-45zM315 615v45h45v-45h-45zM415 15v45h45v-45h-45zM415 615v45h45v-45h-45z" />
<glyph unicode="&#x2122;" d="M15 615v45h45v-45h-45zM115 415v45h45v-45h-45zM115 515v45h45v-45h-45zM115 615v45h45v-45h-45zM215 615v45h45v-45h-45zM315 415v45h45v-45h-45zM315 515v45h45v-45h-45zM315 615v45h45v-45h-45zM415 515v45h45v-45h-45zM515 415v45h45v-45h-45zM515 515v45h45v-45h-45 zM515 615v45h45v-45h-45z" />
<glyph unicode="&#xe000;" horiz-adv-x="460" d="M0 0v460h460v-460h-460z" />
</font>
</defs>
</svg>
