<?xml version="1.0" standalone="no"?>
<!DOCTYPE svg PUBLIC "-//W3C//DTD SVG 1.1//EN" "http://www.w3.org/Graphics/SVG/1.1/DTD/svg11.dtd" >
<svg xmlns="http://www.w3.org/2000/svg">
<metadata></metadata>
<defs>
<font id="resagnictobold" horiz-adv-x="1450" >
<font-face units-per-em="2048" ascent="1621" descent="-427" />
<missing-glyph horiz-adv-x="938" />
<glyph unicode="&#xfb01;" horiz-adv-x="1536" d="M256 0v1088h-171v107h171v130q0 125 104.5 210.5t247.5 85.5q35 0 105 -13t134 -36l92 -34l-28 -77l-105 34q-62 20 -98 20q-116 0 -161.5 -42t-45.5 -161q0 -16 11 -117h384v-107h-384v-1088h-256zM1099 1621h277v-117q0 -22 -20.5 -37.5t-64.5 -15.5h-107 q-43 0 -64 16.5t-21 36.5v117zM1109 0v1195h256v-1195h-256z" />
<glyph unicode="&#xfb02;" horiz-adv-x="1706" d="M256 0v1088h-171v107h171v130q0 125 104.5 210.5t247.5 85.5q35 0 105 -13t134 -36l92 -34l-28 -77l-105 34q-62 20 -98 20q-116 0 -161.5 -42t-45.5 -161q0 -16 11 -117h384v-107h-384v-1088h-256zM1109 1621h256v-917q0 -64 -10.5 -224t-10.5 -173q0 -117 21 -169.5 t90 -52.5q70 0 132 20l34 -82q-116 -42 -245 -42q-110 0 -188.5 85.5t-78.5 210.5v1344z" />
<glyph unicode="&#xfb03;" horiz-adv-x="2474" d="M256 0v1088h-171v107h171v130q0 125 104.5 210.5t247.5 85.5q35 0 105 -13t134 -36l92 -34l-28 -77l-105 34q-62 20 -98 20q-116 0 -161.5 -42t-45.5 -161q0 -16 11 -117h341v-107h-341v-1088h-256zM1195 0v1088h-256v107h256v130q0 125 104.5 210.5t247.5 85.5 q35 0 105 -13t134 -36l91 -34l-27 -77l-105 34q-62 20 -98 20q-116 0 -161.5 -42t-45.5 -161q0 -16 11 -117h384v-107h-384v-1088h-256zM2037 1621h278v-117q0 -22 -21 -37.5t-65 -15.5h-106q-43 0 -64.5 17t-21.5 36v117zM2048 0v1195h256v-1195h-256z" />
<glyph unicode="&#xfb04;" horiz-adv-x="2645" d="M256 0v1088h-171v107h171v130q0 125 104.5 210.5t247.5 85.5q35 0 105 -13t134 -36l92 -34l-28 -77l-105 34q-62 20 -98 20q-116 0 -161.5 -42t-45.5 -161q0 -16 11 -117h299v-107h-299v-1088h-256zM1195 0v1088h-299v107h299v130q0 125 104.5 210.5t247.5 85.5 q35 0 105 -13t134 -36l91 -34l-27 -77l-105 34q-62 20 -98 20q-116 0 -161.5 -42t-45.5 -161q0 -16 11 -117h384v-107h-384v-1088h-256zM2048 1621h256v-917q0 -64 -10.5 -224t-10.5 -173q0 -117 21 -169.5t90 -52.5q70 0 132 20l34 -82q-116 -42 -245 -42 q-110 0 -188.5 85.5t-78.5 210.5v1344z" />
<glyph horiz-adv-x="2048" />
<glyph horiz-adv-x="2048" />
<glyph unicode="&#xd;" horiz-adv-x="2048" />
<glyph unicode=" "  horiz-adv-x="938" />
<glyph unicode="&#x09;" horiz-adv-x="938" />
<glyph unicode="&#xa0;" horiz-adv-x="938" />
<glyph unicode="!" horiz-adv-x="426" d="M341 171v-171q0 -18 -2.5 -25t-16.5 -12.5t-45 -5.5h-128q-42 0 -53 9t-11 34v171q0 11 1 16t6.5 12.5t19.5 10.5t37 3h128q44 0 54 -9.5t10 -32.5zM341 1621q-4 -64 -30.5 -378t-26.5 -475q0 -140 15 -256h-171q11 97 11 256q0 166 -25.5 480t-28.5 373h256z" />
<glyph unicode="&#x22;" horiz-adv-x="682" d="M85 1280zM598 1493q0 -7 -1 -14.5t-4 -19t-5.5 -21t-9 -28.5t-11 -33t-15 -44.5t-18.5 -52.5h-86q9 64 9 107q0 55 -11.5 88.5t-25 43t-25 20t-11.5 23.5v33.5t1.5 25t4 20.5t7 12.5t11.5 8.5t17 2h173v-171zM299 1493q0 -7 -1 -14.5t-4 -19t-5.5 -21t-9 -28.5t-11 -33 t-15 -44.5t-18.5 -52.5h-86q9 64 9 107q0 55 -11.5 88.5t-25 43t-25 20t-11.5 23.5v33.5t1.5 25t4 20.5t7 12.5t11.5 8.5t17 2h173v-171z" />
<glyph unicode="#" horiz-adv-x="1365" d="M1003 1195h256l-17 -171h-256l-35 -427h256l-17 -170h-256l-29 -342h-171l30 342h-256l-30 -342h-171l30 342h-256l17 170h256l34 427h-256l17 171h256l30 341h171l-30 -341h256l30 341h171zM525 597h256l34 427h-256z" />
<glyph unicode="$" horiz-adv-x="1365" d="M661 149q158 4 243.5 72.5t85.5 160.5q0 60 -37.5 114.5t-105.5 90.5l-186 100v-538zM576 151v583l-241 130q-116 59 -175.5 140t-59.5 167q0 69 30 132.5t87 115t150 83.5t209 34v85h85v-85h11q213 0 427 -79l-43 -98q-25 8 -84 27.5t-83 26t-67.5 17.5t-80.5 15.5 t-80 5.5v-468l357 -192q104 -57 161.5 -147t57.5 -190q0 -76 -33.5 -144t-100 -124t-177.5 -89t-254 -33h-11v-149h-85v149q-222 7 -478 100l43 98q45 -14 122 -39.5t112 -36t90.5 -21.5t110.5 -14zM576 1030v419q-233 -19 -233 -180q0 -55 41 -108t113 -88z" />
<glyph unicode="%" horiz-adv-x="2176" d="M512 896q59 0 105.5 21t73.5 52t45.5 72t25 76.5t6.5 68.5v60q0 33 -7 69t-25 76.5t-45.5 71.5t-74 52t-104.5 21q-59 0 -105.5 -21t-73.5 -52t-45.5 -72t-25 -76.5t-6.5 -68.5v-60q0 -33 7 -69t25 -76.5t45.5 -71.5t74 -52t104.5 -21zM480 1621h64q94 0 167 -28.5 t114.5 -71t68.5 -98t36 -102.5t9 -92v-26q0 -45 -9 -92t-36 -102.5t-68.5 -98t-114.5 -71t-167 -28.5h-64q-94 0 -167 28.5t-114.5 71t-68.5 98t-36 102.5t-9 92v26q0 45 9 92t36 102.5t68.5 98t114.5 71t167 28.5zM1579 64q59 0 105.5 21t73.5 52t45.5 72t25 76.5t6.5 68.5 v60q0 33 -7 69t-25 76.5t-45.5 71.5t-74 52t-104.5 21q-59 0 -105.5 -21t-73.5 -52t-45.5 -72t-25 -76.5t-6.5 -68.5v-60q0 -33 7 -69t25 -76.5t45.5 -71.5t74 -52t104.5 -21zM1547 789h64q94 0 167 -28.5t114.5 -71t68 -98t35.5 -102.5t9 -92v-26q0 -45 -9 -92 t-35.5 -102.5t-68 -98t-114.5 -71t-167 -28.5h-64q-94 0 -167 28.5t-114.5 71t-68.5 98t-36 102.5t-9 92v26q0 45 9 92t36 102.5t68.5 98t114.5 71t167 28.5zM1393 1649l113 -58l-830 -1657l-113 57z" />
<glyph unicode="&#x26;" horiz-adv-x="1834" d="M1301 610q0 80 -19 139l-62 192l98 42q26 -51 47.5 -167.5t21.5 -205.5q0 -128 -37 -237l195 -185q9 -7 32 -28.5t35 -30t34 -21.5t47 -18t56 -5v-85h-222q-96 0 -151.5 23.5t-108.5 72.5l-57 55q-92 -88 -220 -130t-271 -42q-129 0 -242.5 26.5t-201.5 76.5t-139 131 t-51 182q0 67 27 124.5t67 94.5t93 69.5t98 51t89 36.5t59 27l-23 21q-239 239 -239 414q0 74 23 128.5t61.5 87.5t97.5 53t122 27t144 7q86 0 199 -23.5t166 -49.5l-43 -98l-192 64q-68 22 -109 22q-45 0 -86 -7t-81.5 -23t-64.5 -48t-24 -76q0 -46 50 -109t164 -173 l597 -573q21 82 21 168zM1148 211l-551 534q-123 -73 -185 -169t-62 -194q0 -154 112.5 -236t286.5 -82q111 0 215.5 36.5t183.5 110.5z" />
<glyph unicode="'" horiz-adv-x="384" d="M299 1493q0 -7 -1 -14.5t-4 -19t-5.5 -21t-9 -28.5t-11 -33t-15 -44.5t-18.5 -52.5h-86q9 64 9 107q0 55 -11.5 88.5t-25 43t-25 20t-11.5 23.5v33.5t1.5 25t4 20.5t7 12.5t11.5 8.5t17 2h173v-171z" />
<glyph unicode="(" horiz-adv-x="682" d="M341 689q0 -322 50 -530.5t164 -314.5l64 -57l-60 -64l-124 115q-187 173 -268.5 378t-81.5 490t81.5 490t268.5 378l124 116l60 -64l-64 -58q-114 -106 -164 -314.5t-50 -530.5v-34z" />
<glyph unicode=")" horiz-adv-x="682" d="M341 689v34q0 322 -50 531t-163 314l-64 58l60 64l123 -116q187 -173 268.5 -378t81.5 -490t-81.5 -490t-268.5 -378l-123 -115l-60 64l64 57q113 105 163 314t50 531z" />
<glyph unicode="*" horiz-adv-x="819" d="M337 1557l28 17l6 154h77l6 -154l28 -17l143 43l24 -73l-141 -57l-9 -32l81 -120l-62 -42l-91 109h-34l-92 -109l-62 42l81 120l-9 32l-140 57l23 73z" />
<glyph unicode="+" horiz-adv-x="1365" d="M555 1365h170v-512h470v-170h-470v-512h-170v512h-470v170h470v512z" />
<glyph unicode="," horiz-adv-x="597" d="M427 171v-171q-1 -24 -41 -66t-156 -148q-23 -21 -36 -33l-55 64q98 105 98 149q0 23 -33 63.5t-33 53.5v88q0 11 1 16t6.5 12.5t19.5 10.5t37 3h128q44 0 54 -8.5t10 -33.5z" />
<glyph unicode="-" horiz-adv-x="982" d="M811 768v-170h-640v170h640z" />
<glyph unicode="." horiz-adv-x="512" d="M384 171v-171q0 -18 -2.5 -25t-16.5 -12.5t-45 -5.5h-128q-42 0 -53 9t-11 34v171q0 11 1 16t6.5 12.5t19.5 10.5t37 3h128q44 0 54 -9.5t10 -32.5z" />
<glyph unicode="/" horiz-adv-x="1109" d="M902 1679l154 -77l-849 -1698l-154 77z" />
<glyph unicode="0" d="M725 64q71 0 126 21t86.5 52t52 72t27.5 76t7 69v892q0 34 -7 69t-28 76t-52.5 72t-86.5 52t-125 21q-71 0 -125.5 -21t-86.5 -52t-52 -72t-27 -76t-7 -69v-892q0 -34 7 -69t27.5 -76t52.5 -72t86.5 -52t124.5 -21zM725 1621q130 0 232.5 -33t161 -81.5t97 -111 t51.5 -113.5t13 -96v-772q0 -45 -13 -96t-51.5 -113.5t-97 -111t-161 -81.5t-232.5 -33q-94 0 -174 17.5t-136 45.5t-100 66.5t-70.5 78.5t-43.5 83t-23.5 78t-6.5 66v772q0 31 6.5 66t23.5 78t43.5 83t70.5 78.5t100 66.5t136 45.5t174 17.5z" />
<glyph unicode="1" horiz-adv-x="682" d="M85 1536l427 85v-1621h-256v1376q0 45 -19 67.5t-51 22.5q-8 0 -101 -15v85z" />
<glyph unicode="2" horiz-adv-x="1280" d="M1109 0h-1024v132q398 417 492 523q180 202 235 320q43 94 43 205q0 74 -17.5 136t-55 112.5t-103 79t-154.5 28.5q-59 0 -118 -19l-192 -62l-42 98q51 26 167.5 47t205.5 21h137q91 0 172 -34.5t136 -89.5t86.5 -125.5t31.5 -142.5q0 -63 -6.5 -115t-25 -103.5 t-39 -92.5t-61.5 -93.5t-78.5 -95t-103.5 -108.5t-124 -122t-152 -148.5t-176 -175.5v-4h766v-171z" />
<glyph unicode="3" horiz-adv-x="1237" d="M757 939q143 0 247.5 -86t104.5 -211v-228q0 -45 -14 -96.5t-54 -113.5t-100 -110.5t-163.5 -81.5t-233.5 -33h-41q-84 0 -223 33t-195 61l43 98l192 -64q127 -43 192 -43q70 0 129 20.5t97 52.5t65 71.5t38.5 76.5t11.5 69v241q0 107 -54 182.5t-142 75.5h-145v86h51 q59 0 108.5 48t73 106t23.5 102v83q0 30 -0.5 46.5t-5 47.5t-13.5 50t-27 43t-43.5 38t-65 23.5t-90.5 9.5q-59 0 -118 -19l-192 -62l-42 98q51 26 167.5 47t205.5 21q71 0 129.5 -8.5t101 -21.5t76 -34.5t55 -41.5t36.5 -50t22.5 -51.5t11.5 -54.5t4.5 -50.5t0.5 -47.5v-45 q0 -74 -61 -160.5t-163 -114.5v-2z" />
<glyph unicode="4" horiz-adv-x="1280" d="M43 365q84 108 146 201t126 216t104.5 244.5t66.5 275t26 319.5h256q0 -330 -175 -651q-96 -176 -308 -453q-23 -30 -70 -90q-44 -57 -66 -86h704v512h256v-512h86v-85h-86v-256h-256v256h-810v109z" />
<glyph unicode="5" horiz-adv-x="1322" d="M171 843v778h938v-170h-853v-527l348 136q65 25 132.5 37t106.5 12q143 0 247.5 -86.5t104.5 -211.5v-397q0 -31 -7 -66t-25.5 -78t-46 -83t-73 -78.5t-102 -66.5t-137.5 -45.5t-175 -17.5h-40q-84 0 -223 33t-195 61l42 98l192 -64q127 -43 192 -43q70 0 129 20.5 t97.5 52.5t65.5 71.5t38.5 76.5t11.5 69v414q0 104 -53.5 169.5t-143.5 65.5q-36 0 -98 -20l-422 -140h-51z" />
<glyph unicode="6" horiz-adv-x="1408" d="M715 -21q-109 0 -198.5 22.5t-146.5 61t-98 84t-62 96.5t-30 92.5t-9 78.5v770q0 31 7 66t25.5 78t46 83.5t72.5 79t101.5 67t137.5 46t175 17.5h41q84 0 223 -33t195 -61l-43 -98l-192 62q-121 41 -192 41q-87 0 -156.5 -30.5t-107.5 -76.5t-57.5 -93t-19.5 -88v-288 l262 104q63 24 132.5 36.5t106.5 12.5q143 0 247.5 -86.5t104.5 -211.5v-440q0 -36 -10.5 -75t-34 -85t-67 -86t-103 -73.5t-150 -53t-200.5 -19.5zM427 885v-531q0 -34 6 -68.5t25 -76t49.5 -72.5t84 -52t123.5 -21q64 0 118 20.5t88 52.5t58 72t34.5 76.5t10.5 68.5v414 q0 104 -53 169.5t-143 65.5q-36 0 -98 -20z" />
<glyph unicode="7" horiz-adv-x="1152" d="M1109 1621v-85q-268 -284 -390 -665.5t-122 -870.5h-256q0 346 139.5 722.5t402.5 728.5h-798v170h1024z" />
<glyph unicode="8" horiz-adv-x="1365" d="M683 1536q-124 0 -196.5 -49t-72.5 -124q0 -63 52 -133t138 -129l149 -100q76 43 125.5 88.5t70 88.5t26.5 71.5t6 62.5q0 101 -79 162.5t-219 61.5zM557 813q-150 -84 -213 -133q-173 -133 -173 -283q1 -62 27.5 -118.5t81 -106t150 -79t221.5 -29.5h32q86 0 152.5 23.5 t102.5 55.5t58.5 72.5t29.5 68.5t7 49q0 73 -40 142.5t-103 111.5zM478 866l-36 26q-108 74 -164 173t-56 200q0 150 111.5 253t306.5 103h43q184 0 284 -86.5t100 -222.5q0 -221 -237 -365l230 -156q100 -67 160 -166.5t60 -206.5q0 -63 -20 -124.5t-65 -118.5 t-109.5 -100.5t-160 -69.5t-210.5 -26h-64q-143 0 -254.5 36t-177 96.5t-99 133t-35.5 152.5q0 69 28 134t66 111t98 93t101.5 72.5t99.5 58.5z" />
<glyph unicode="9" horiz-adv-x="1408" d="M128 0zM693 1622.96q109 0.00683594 198.5 -22.4873q89.5 -22.4951 146.5 -60.9912q57 -38.4971 98 -83.9941t62 -96.4961t30 -92.498q9 -41.5 9 -78.5v-770q0 -31 -7 -66q-7 -35.001 -25.5 -78.002t-46 -83.5029q-27.5 -40.501 -72.5 -79.0039t-101.5 -67.0059 q-56.5 -28.5039 -137.5 -46.0088t-175 -17.5107l-41 -0.00292969q-84 -0.00488281 -223 32.9873q-139 32.9912 -195 60.9873l43 98.0029l192 -61.9883q121 -40.9922 192 -40.9883q87 0.00488281 156.5 30.5098q69.5 30.5039 107.5 76.5059q38 46.0029 57.5 93.0039 t19.5 88.001v288l-262 -104.016q-63 -24.0039 -132.5 -36.5078q-69.5 -12.5049 -106.5 -12.5068q-143 -0.00878906 -247.5 86.4854q-104.5 86.4932 -104.5 211.493v440q0 36 10.5 75.001q10.5 39 34 85.002q23.5 46.001 67 86.0039t103 73.5059q59.5 33.5039 150 53.0098 q90.5 19.5049 200.5 19.5117zM981 716.974v531q0 34 -6 68.5t-25 75.998q-19 41.499 -49.5 72.4971t-84 51.9951t-123.5 20.9922q-64 -0.00390625 -118 -20.5068t-88 -52.5059q-34 -32.002 -58 -72.0029q-24 -40.002 -34.5 -76.502q-10.5 -36.501 -10.5 -68.501v-414 q0 -104 53 -169.497q53 -65.4961 143 -65.4912q36 0.00195312 98 20.0059z" />
<glyph unicode=":" horiz-adv-x="512" d="M128 0zM384 173v-171q0 -18 -2.5 -25t-16.5 -12.5t-45 -5.5h-128q-42 0 -53 9t-11 34v171q0 11 1 16t6.5 12.5t19.5 10.5t37 3h128q44 0 54 -9.5t10 -32.5zM384 1195v-171q0 -18 -2.5 -25t-16.5 -12.5t-45 -5.5h-128q-42 0 -53 9t-11 34v171q0 11 1 16t6.5 12.5 t19.5 10.5t37 3h128q44 0 54 -9.5t10 -32.5z" />
<glyph unicode=";" horiz-adv-x="597" d="M139 0zM427 1195v-171q0 -18 -2.5 -25t-16.5 -12.5t-45 -5.5h-128q-42 0 -53 9t-11 34v171q0 11 1 16t6.5 12.5t19.5 10.5t37 3h128q44 0 54 -9.5t10 -32.5zM427 171v-171q-1 -24 -41 -66t-156 -148q-23 -21 -36 -33l-55 64q98 105 98 149q0 23 -33 63.5t-33 53.5v88 q0 11 1 16t6.5 12.5t19.5 10.5t37 3h128q44 0 54 -8.5t10 -33.5z" />
<glyph unicode="&#x3c;" horiz-adv-x="938" d="M128 834l538 580l102 -104q-122 -123 -212 -231t-185 -247v-36q107 -147 195.5 -253.5t201.5 -220.5l-102 -102l-538 580v34z" />
<glyph unicode="=" horiz-adv-x="1365" d="M1195 683v-171h-1110v171h1110zM1195 1109v-170h-1110v170h1110z" />
<glyph unicode="&#x3e;" horiz-adv-x="938" d="M811 834v-34l-538 -580l-102 102q112 113 199.5 219t196.5 255v36q-96 140 -185.5 248t-210.5 230l102 104z" />
<glyph unicode="?" horiz-adv-x="1024" d="M469 171v-171q0 -18 -2.5 -25t-16.5 -12.5t-45 -5.5h-128q-42 0 -53 9t-11 34v171q0 11 1 16t6.5 12.5t19.5 10.5t37 3h128q44 0 54 -9.5t10 -32.5zM427 512h-171q-53 177 -53 258q0 111 83 202.5t305 228.5q66 42 86.5 84.5t20.5 92.5q0 64 -75.5 111t-178.5 47 q-26 0 -49.5 -1t-48 -4t-40.5 -4.5t-42.5 -8t-38 -8.5t-43 -11.5t-41 -12.5t-48.5 -15t-50 -16l-43 98q184 68 448 68q129 0 227 -28.5t153.5 -77t83 -106.5t27.5 -123q0 -192 -186 -294q-88 -49 -149 -92.5t-96 -78t-53.5 -72.5t-24 -68t-5.5 -71q0 -14 1 -47t1 -51z" />
<glyph unicode="@" horiz-adv-x="2304" d="M634 941q7 125 115.5 210.5t251.5 85.5q37 0 105.5 -12.5t130.5 -36.5l175 -70l113 98h105l-9 -171q-1 -19 -33.5 -291.5t-32.5 -358.5q0 -96 45 -149.5t130 -53.5t159 73.5t116.5 187.5t42.5 234q0 175 -65.5 332t-178.5 270.5t-270.5 180t-334.5 66.5 q-189 0 -363.5 -76t-301.5 -203t-202.5 -301.5t-75.5 -362.5q0 -173 65.5 -330t177.5 -271t270.5 -181t335.5 -67q199 0 382 83l32 -77q-197 -91 -418 -91q-196 0 -369.5 74t-296 199.5t-193.5 296.5t-71 360q0 139 37.5 272t104.5 246t163 209t209 163t246 104.5t272 37.5 q193 0 366 -73t296.5 -197.5t195.5 -296.5t72 -363q0 -54 -9.5 -114t-31 -130t-61 -132.5t-93.5 -114.5t-135.5 -82.5t-179.5 -30.5q-95 0 -164 41.5t-104 112.5l-237 -107q-64 -24 -134 -36.5t-107 -12.5q-130 0 -201.5 76.5t-71.5 199.5q0 51 30 580zM1363 1054l-170 57 q-62 20 -96 20q-90 0 -147.5 -66.5t-62.5 -170.5q-25 -492 -25 -529q0 -86 25 -129.5t96 -43.5q40 0 99 19l251 92q-6 29 -6 64q0 19 0.5 31t1.5 27.5t3.5 57.5t6 103t10 185t14.5 283z" />
<glyph unicode="A" horiz-adv-x="1536" d="M604 1621h328l519 -1621h-269l-164 512h-679l-164 -512h-90zM638 1451l-271 -854h623l-273 854h-79z" />
<glyph unicode="B" horiz-adv-x="1536" d="M427 853v-768h443q100 0 169.5 65t69.5 191v235q0 65 -30 119.5t-76 87.5t-98 51.5t-99 18.5h-379zM427 939h273q46 0 95.5 20t91 53.5t68 84.5t26.5 108v75q0 126 -69.5 191t-169.5 65h-315v-597zM1009 934q83 -11 164.5 -57.5t136.5 -122t55 -157.5v-277 q0 -129 -95.5 -224.5t-234.5 -95.5h-864v1621h693q139 0 235 -95.5t96 -224.5v-128q0 -52 -60.5 -132t-125.5 -100v-7z" />
<glyph unicode="C" horiz-adv-x="1280" d="M171 1186q0 45 14 96.5t54 113.5t100 110.5t163.5 81.5t233.5 33h41q85 0 224 -32t194 -59l-43 -99l-192 62q-127 43 -192 43q-89 0 -157 -25t-107 -67t-58 -92t-19 -106v-892q0 -56 19.5 -106t58.5 -92t107 -67t156 -25q65 0 192 43l192 64l43 -98q-56 -28 -195 -61 t-223 -33h-41q-130 0 -233.5 33t-163.5 81.5t-100 110.5t-54 113.5t-14 96.5v772z" />
<glyph unicode="D" horiz-adv-x="1536" d="M171 1621h629q130 0 233.5 -33t163.5 -81.5t100 -110.5t54 -113.5t14 -96.5v-751q0 -45 -14 -96.5t-54 -113.5t-100 -110.5t-163.5 -81.5t-233.5 -33h-629v1621zM427 1536v-1451h341q71 0 130 20.5t97 52.5t64.5 72t38 76.5t11.5 68.5v871q0 32 -11.5 69t-38.5 76.5 t-65 71.5t-97 52.5t-129 20.5h-341z" />
<glyph unicode="E" horiz-adv-x="1365" d="M171 1621h1024v-85h-768v-597h426v-86h-426v-768h768v-85h-1024v1621z" />
<glyph unicode="F" horiz-adv-x="1280" d="M171 1621h1024v-85h-768v-683h426v-85h-426v-768h-256v1621z" />
<glyph unicode="G" horiz-adv-x="1536" d="M171 1186q0 45 14.5 96.5t54.5 113t100.5 110.5t163.5 82t232 33h41q89 0 255.5 -39.5t247.5 -79.5l-43 -98l-277 89q-8 2 -31 9.5t-33 10.5t-30.5 8.5t-34 8t-31 4.5t-32.5 2q-89 0 -157 -25t-107 -67t-58 -92t-19 -106v-892q0 -108 105.5 -199t235.5 -91q23 0 50 5.5 t44 10.5t42 14t30 11l175 57v606h-343v85h599v-853h-213l-23 87l-154 -59q-61 -23 -131.5 -36t-107.5 -13q-130 0 -233.5 33t-163.5 81.5t-100 110.5t-54 113.5t-14 96.5v772z" />
<glyph unicode="H" horiz-adv-x="1536" d="M171 1621h256v-682h682v682h256v-1621h-256v853h-682v-853h-256v1621z" />
<glyph unicode="I" horiz-adv-x="597" d="M171 1621h256v-1621h-256v1621z" />
<glyph unicode="J" horiz-adv-x="810" d="M427 1621h256v-1346q0 -125 -104.5 -210.5t-247.5 -85.5q-36 0 -109.5 13t-136.5 36l41 77q62 -20 104 -20q97 0 157.5 59.5t60.5 177.5q0 110 -10.5 332.5t-10.5 348.5v618z" />
<glyph unicode="K" horiz-adv-x="1536" d="M427 851l823 794l98 -92q-17 -21 -84 -70t-160.5 -119.5t-158.5 -132.5l-264 -252l770 -913v-66h-280l-676 802l-68 -68v-734h-256v1621h256v-770z" />
<glyph unicode="L" horiz-adv-x="1365" d="M171 1621h256v-1536h853v-85h-1109v1621z" />
<glyph unicode="M" horiz-adv-x="1962" d="M245 1205l-32 -1205h-85l43 1621h128l693 -1218l689 1218h109l45 -1621h-256l-34 1210h-3l-38 -75l-606 -1075h-4l-608 1069l-39 76h-2z" />
<glyph unicode="N" horiz-adv-x="1536" d="M1280 331v1290h85v-1621h-160l-906 1261l-41 66h-2v-1327h-85v1621h183l896 -1248l28 -42h2z" />
<glyph unicode="O" horiz-adv-x="1536" d="M768 64q89 0 157 23t107 62.5t58 87.5t19 104v939q0 115 -83.5 185.5t-257.5 70.5q-175 0 -258 -70t-83 -186v-939q0 -118 84.5 -197.5t256.5 -79.5zM171 1195q0 103 51 186.5t136 134.5t190 78t220 27t220 -27t190 -78t136 -134.5t51 -186.5v-781q0 -106 -51 -190.5 t-136 -137t-190 -80t-220 -27.5t-220 27.5t-190 80t-136 137t-51 190.5v781z" />
<glyph unicode="P" horiz-adv-x="1536" d="M427 1536v-1024h373q81 0 142.5 23t96.5 62.5t52.5 87.5t17.5 104v470q0 118 -84.5 197.5t-256.5 79.5h-341zM171 1621h629q130 0 233.5 -32t163.5 -79.5t100 -108t54 -111t14 -95.5v-342q0 -44 -14 -95.5t-51.5 -111.5t-94 -107.5t-151 -79.5t-211.5 -32h-416v-427h-256 v1621z" />
<glyph unicode="Q" horiz-adv-x="1536" d="M768 64q89 0 157 23t107 62.5t58 87.5t19 104v939q0 115 -83.5 185.5t-257.5 70.5q-175 0 -258 -70t-83 -186v-939q0 -118 84.5 -197.5t256.5 -79.5zM171 1195q0 103 51 186.5t136 134.5t190 78t220 27t220 -27t190 -78t136 -134.5t51 -186.5v-781q0 -44 -13.5 -94.5 t-51.5 -111t-95 -108.5t-154.5 -82.5t-220.5 -38.5q24 -71 81.5 -121t155.5 -50h170v-85h-170q-173 0 -288.5 70t-136.5 190q-108 11 -193.5 48t-136 84t-84 104.5t-45.5 105t-12 89.5v781z" />
<glyph unicode="R" horiz-adv-x="1536" d="M1199 0l-309 422q-92 126 -120 156q-70 77 -160 96q-42 9 -98 9h-85v-683h-256v1621h672q94 0 172.5 -16.5t131 -42.5t93.5 -62.5t64 -73.5t37.5 -79.5t19 -75t4.5 -64.5v-153q0 -34 -7 -67.5t-23.5 -73.5t-49 -75t-78 -66.5t-116 -53.5t-157.5 -31v-2q43 -21 113 -89 t99 -110l305 -433v-53h-252zM427 1536v-768h373q64 0 117.5 18.5t88 47.5t58.5 65.5t34.5 71t10.5 66.5v230q0 33 -7 66.5t-27.5 71t-52.5 66t-86.5 47t-124.5 18.5h-384z" />
<glyph unicode="S" horiz-adv-x="1536" d="M715 717q-30 15 -78 38t-77.5 37t-72.5 36.5t-70 39.5t-61.5 41.5t-55.5 46.5t-44 52t-35.5 60.5t-20.5 68t-8 79.5q0 80 37.5 153t104.5 129t168.5 89.5t222.5 33.5h75q213 0 427 -79l-43 -98q-23 7 -87 28t-87 27.5t-70 18t-86.5 15t-85.5 3.5q-172 0 -267.5 -69.5 t-95.5 -165.5q0 -28 3 -49.5t14 -42.5t20.5 -35.5t35 -34t44 -31.5t61.5 -35t72.5 -37.5t92 -45.5t107.5 -53q31 -16 84 -41t84.5 -40.5t77 -39.5t73.5 -44t62 -48.5t54.5 -58t39 -65.5t27 -79.5t8.5 -93.5q0 -68 -20.5 -131.5t-65 -121.5t-109.5 -101t-160 -68.5 t-210 -25.5h-64q-243 0 -565 119l42 103q16 -6 66.5 -24t66.5 -24t59 -20.5t62.5 -20t57 -16t61.5 -14t57 -9t63 -7.5t62 -2q88 0 157 24t109.5 65t61 90t20.5 103q0 34 -4 62t-16 52t-23.5 42.5t-35 38t-43 33t-56 32.5t-63 32t-76 37t-84.5 42z" />
<glyph unicode="T" d="M85 1621h1280v-85h-512v-1536h-256v1536h-512v85z" />
<glyph unicode="U" horiz-adv-x="1536" d="M768 64h32q114 0 204 28t140 68t82.5 90.5t43 90.5t10.5 73v1207h85v-1207q0 -45 -14 -96.5t-54 -113.5t-100 -110.5t-163.5 -81.5t-233.5 -33h-64q-130 0 -233.5 33t-163.5 81.5t-100 110.5t-54 113.5t-14 96.5v1207h256v-1280q0 -118 84.5 -197.5t256.5 -79.5z" />
<glyph unicode="V" horiz-adv-x="1536" d="M907 194l454 1427h90l-519 -1621h-328l-519 1621h269l458 -1427h95z" />
<glyph unicode="W" horiz-adv-x="2304" d="M1715 196l414 1425h90l-476 -1621h-287l-304 1041l-304 -1041h-289l-474 1619h269l415 -1425h50l263 909q10 35 10 81q0 61 -37 204t-37 233h258q0 -65 6 -97q8 -40 34 -131l349 -1197h50z" />
<glyph unicode="X" d="M663 653l-473 -653h-105l536 738l-536 883h299l395 -650h10l472 650h104l-535 -738l535 -883h-298l-395 653h-9z" />
<glyph unicode="Y" d="M371 1621l444 -874h11l443 874h96l-490 -964v-657h-256v570l-534 1051h286z" />
<glyph unicode="Z" horiz-adv-x="1365" d="M107 1621h1173v-108l-809 -1272q-10 -17 -36.5 -55t-46 -67t-19.5 -34h911v-85h-1195v111l809 1271q11 17 39 56.5t45.5 66t17.5 31.5h-889v85z" />
<glyph unicode="[" horiz-adv-x="682" d="M597 1707v-86h-170v-1877h170v-85h-426v2048h426z" />
<glyph unicode="\" horiz-adv-x="1109" d="M207 1679l849 -1698l-154 -77l-849 1698z" />
<glyph unicode="]" horiz-adv-x="682" d="M512 1707v-2048h-427v85h171v1877h-171v86h427z" />
<glyph unicode="^" horiz-adv-x="938" d="M518 1717l269 -271l-89 -91l-62 64q-40 43 -89.5 79.5t-77.5 52.5q-23 -13 -80.5 -58t-85.5 -74l-62 -64l-90 91l269 271h98z" />
<glyph unicode="_" horiz-adv-x="1365" d="M1195 -256v-171h-1110v171h1110z" />
<glyph unicode="`" horiz-adv-x="1365" d="M410 1598v23h145q22 0 39 -7t32 -25t25.5 -34.5t29.5 -50.5q4 -7 6 -11l79 -143l-81 -61z" />
<glyph unicode="a" d="M751 1131q-48 0 -123 -15.5t-118 -29.5l-199 -68l-42 98q63 31 209.5 65.5t272.5 34.5q131 0 230 -22t154.5 -55t89.5 -79.5t44.5 -87t10.5 -85.5v-887h-192l-58 132l-268 -104q-125 -49 -197 -49q-94 0 -184.5 38t-150 107.5t-59.5 150.5v100q0 142 117.5 225t308.5 83 h427v200q0 42 -4.5 73.5t-21 66t-45 57t-80 37t-122.5 14.5zM1024 597h-341q-51 0 -91.5 -9t-67 -22.5t-45.5 -36t-29 -43t-15.5 -51.5t-6.5 -52.5t-1 -53.5v-13q0 -113 52.5 -172t143.5 -59q36 0 98 20l303 98v394z" />
<glyph unicode="b" d="M171 0v1621h256v-559l262 105q61 24 140 36.5t120 12.5q141 0 236 -85t95 -212v-644q0 -127 -95 -211.5t-236 -84.5q-41 0 -120 12.5t-140 36.5l-275 109l-51 -137h-192zM427 992v-789l303 -98q62 -20 119 -20q93 0 134 49.5t41 166.5v593q0 117 -41 166t-134 49 q-60 0 -119 -19z" />
<glyph unicode="c" horiz-adv-x="1194" d="M171 802q0 45 14 94.5t54 108t100 104t163.5 76.5t233.5 31q89 0 205.5 -21t167.5 -47l-42 -98l-192 61q-62 20 -118 20q-88 0 -154 -24.5t-103.5 -67t-55 -92.5t-17.5 -106v-487q0 -133 78 -211.5t252 -78.5q59 0 118 19l192 62l42 -98q-51 -26 -167.5 -47t-205.5 -21 q-130 0 -233.5 31t-163.5 76.5t-100 104t-54 108t-14 94.5v409z" />
<glyph unicode="d" d="M1280 0h-192l-51 137l-275 -109q-61 -24 -140.5 -36.5t-120.5 -12.5q-141 0 -235.5 84.5t-94.5 211.5v644q0 127 94.5 212t235.5 85q41 0 120.5 -12.5t140.5 -36.5l262 -105v559h256v-1621zM1024 992l-303 98q-59 19 -119 19q-93 0 -134 -49t-41 -166v-593 q0 -117 41 -166.5t134 -49.5q57 0 119 20l303 98v789z" />
<glyph unicode="e" d="M757 64q21 0 46 4t52.5 11.5t46.5 13t44.5 14.5t30.5 10l198 69l43 -99q-71 -36 -208.5 -72t-273.5 -36q-110 0 -200.5 19.5t-150 53t-103 73.5t-67 86t-34 85t-10.5 75v452q0 45 13 92t51 103t97 98.5t161 71t232 28.5q134 0 238 -31t161.5 -75.5t95 -100.5t49 -99 t11.5 -78v-192h-853v-286q0 -49 18 -97.5t54.5 -93t103.5 -72t154 -27.5zM427 725h597v128q0 57 -16.5 105t-50 88t-93 62.5t-139.5 22.5q-88 0 -150 -25.5t-92.5 -69t-43 -88t-12.5 -95.5v-128z" />
<glyph unicode="f" horiz-adv-x="938" d="M256 0v1088h-171v107h171v130q0 125 104.5 210.5t247.5 85.5q35 0 105 -13t134 -36l92 -34l-28 -77l-105 34q-62 20 -98 20q-116 0 -161.5 -42t-45.5 -161q0 -16 11 -117h256v-107h-256v-1088h-256z" />
<glyph unicode="g" horiz-adv-x="1365" d="M171 -85q0 -107 76 -181.5t224 -74.5h423q76 0 134.5 21t91 55t48.5 71.5t16 76.5q0 46 -49.5 81.5t-151.5 35.5h-512q-59 0 -118 27t-88 65q-8 -10 -23 -27t-19.5 -23t-14.5 -17.5t-12.5 -16t-8.5 -13t-7 -14t-4 -13t-3 -15.5t-1 -16.5t-1 -21.5zM384 751 q0 -128 75 -194t181 -66q107 0 181.5 65t74.5 195v119q0 128 -75 194.5t-181 66.5q-107 0 -181.5 -65.5t-74.5 -195.5v-119zM128 811q0 93 35.5 166t89.5 117t125 72.5t135 39t127 10.5q88 0 175 -21h465v-107q-43 0 -141.5 9.5t-131.5 11.5q145 -106 145 -298 q0 -67 -18.5 -124.5t-49.5 -98t-74 -73t-89 -53t-97 -33.5t-96 -18.5t-88 -5.5q-155 0 -282 58q-25 -53 -25 -100q0 -107 164 -107h397q96 0 171.5 -29t121.5 -77.5t69.5 -108.5t23.5 -126t-23.5 -126t-69.5 -109t-121.5 -78t-171.5 -29h-423q-96 0 -171.5 29t-121.5 78 t-69.5 109t-23.5 126q0 69 20.5 104t114.5 139q-9 18 -9 85q0 147 75 260q-158 109 -158 308z" />
<glyph unicode="h" d="M171 0v1621h256v-559l262 105q61 24 140 36.5t120 12.5q141 0 236 -85t95 -212v-919h-256v894q0 117 -41 166t-134 49q-60 0 -119 -19l-303 -100v-990h-256z" />
<glyph unicode="i" horiz-adv-x="597" d="M160 1621h277v-117q0 -22 -20.5 -37.5t-64.5 -15.5h-107q-43 0 -64 16.5t-21 36.5v117zM171 0v1195h256v-1195h-256z" />
<glyph unicode="j" horiz-adv-x="597" d="M160 1621h277v-117q0 -22 -20.5 -37.5t-64.5 -15.5h-107q-43 0 -64 16.5t-21 36.5v117zM-47 -322q120 0 179.5 58t59.5 164q0 13 -10.5 173t-10.5 224v898h256v-1325q0 -125 -104.5 -211t-247.5 -86q-44 0 -121.5 10.5t-139.5 32.5l35 81q59 -19 104 -19z" />
<glyph unicode="k" horiz-adv-x="1365" d="M474 683l582 565l96 -96q-18 -23 -167 -132t-232 -186l-72 -68l633 -751v-15h-322l-495 589l-70 -68v-521h-256v1621h256v-983z" />
<glyph unicode="l" horiz-adv-x="768" d="M171 1621h256v-917q0 -64 -11 -224t-11 -173q0 -117 21 -169.5t90 -52.5q23 0 66 6t67 14l34 -82q-62 -22 -132.5 -32t-113.5 -10q-110 0 -188 85.5t-78 210.5v1344z" />
<glyph unicode="m" horiz-adv-x="2133" d="M427 992v-992h-256v1195h211l36 -130l207 102q105 49 235 49q99 0 180 -44.5t121 -119.5l232 115q105 49 235 49q141 0 238 -85.5t97 -211.5v-919h-256v873q0 131 -43 183.5t-137 52.5q-43 0 -93 -19l-248 -100q9 -32 9 -71v-919h-256v873q0 131 -43 183.5t-137 52.5 q-43 0 -93 -19z" />
<glyph unicode="n" d="M171 0v1195h192l57 -135l269 107q61 24 140 36.5t120 12.5q141 0 236 -85t95 -212v-919h-256v894q0 117 -41 166t-134 49q-60 0 -119 -19l-303 -98v-992h-256z" />
<glyph unicode="o" d="M427 324q0 -40 7 -74.5t27.5 -69.5t52.5 -60t86 -40.5t125 -15.5t125.5 15.5t86.5 40.5t52.5 60t27.5 69.5t7 74.5v546q0 51 -13 93.5t-44 82t-92.5 62.5t-149.5 23t-150 -23t-92.5 -63t-43 -82t-12.5 -93v-546zM171 371v452q0 96 47 172.5t126.5 124t177 72t203.5 24.5 t204 -24.5t177 -72t126.5 -124t47.5 -172.5v-452q0 -96 -47.5 -172.5t-126.5 -123.5t-177 -71.5t-204 -24.5t-203.5 24.5t-177 71.5t-126.5 123.5t-47 172.5z" />
<glyph unicode="p" d="M427 992v-883q58 -19 142.5 -32t145.5 -13q80 0 142 24.5t97 64.5t52.5 86t17.5 94v561q0 117 -41 166t-134 49q-60 0 -119 -19zM171 1195h211l38 -135l269 107q61 24 140 36.5t120 12.5q141 0 236 -85t95 -212v-548q0 -36 -10.5 -75t-34 -85t-67 -86t-103 -73.5 t-150 -53t-200.5 -19.5q-134 0 -288 38v-444h-256v1622z" />
<glyph unicode="q" d="M1024 992l-303 98q-59 19 -119 19q-93 0 -134 -49t-41 -166v-561q0 -48 17.5 -94t52.5 -86t97 -64.5t142 -24.5q61 0 145.5 13t142.5 32v883zM1280 1195v-1622h-256v444q-154 -38 -288 -38q-110 0 -200.5 19.5t-150 53t-103 73.5t-67 86t-34 85t-10.5 75v548 q0 127 94.5 212t235.5 85q41 0 120.5 -12.5t140.5 -36.5l268 -107l39 135h211z" />
<glyph unicode="r" horiz-adv-x="938" d="M832 1003h-60q-76 0 -133.5 -14t-100.5 -57l-111 -111v-821h-256v1195h192l64 -252l98 98q7 7 35.5 36t35.5 35.5t31 29t33.5 28t31 20.5t35.5 19.5t36 12t43.5 9.5t46.5 2z" />
<glyph unicode="s" horiz-adv-x="1237" d="M578 64q150 0 238.5 56.5t88.5 126.5q0 84 -96 145q-52 33 -220 101q-26 11 -45 19q-23 10 -74.5 30.5t-78.5 31.5t-71.5 33t-69.5 39.5t-56 45.5t-47.5 57t-28 68t-11.5 83q0 128 138 222t374 94q264 0 448 -68l-43 -98q-11 4 -50 16t-48.5 15t-41 12.5t-43 11.5 t-38 8.5t-42.5 8t-40.5 4.5t-48 4t-49.5 1q-134 0 -208 -47.5t-74 -114.5q0 -64 38 -98q35 -30 167 -85q13 -5 40 -16q55 -23 86 -36l65 -26t78 -31.5t77.5 -36t80 -45.5t68.5 -53.5t59.5 -65.5t36.5 -77t15 -92q0 -52 -20 -99t-65 -89.5t-111 -73t-163.5 -48.5t-216.5 -18 q-237 0 -491 94l43 98q21 -7 110.5 -36.5t122.5 -38.5t97.5 -20.5t119.5 -11.5z" />
<glyph unicode="t" horiz-adv-x="938" d="M256 1088h-171v107h171v194l256 83v-277h341v-107h-341v-384q0 -64 -10.5 -218.5t-10.5 -167.5q0 -134 46.5 -183.5t170.5 -49.5q31 0 111 26l34 -81q-63 -23 -136 -36t-109 -13q-143 0 -247.5 85.5t-104.5 210.5v811z" />
<glyph unicode="u" d="M171 1195h256v-894q0 -117 41 -166.5t134 -49.5q57 0 119 20l303 98v992h256v-1195h-192l-58 134l-268 -106q-61 -24 -140.5 -36.5t-120.5 -12.5q-141 0 -235.5 84.5t-94.5 211.5v920z" />
<glyph unicode="v" horiz-adv-x="1365" d="M834 0h-313l-436 1195h273l373 -1022h75l382 1022h92z" />
<glyph unicode="w" horiz-adv-x="2048" d="M1158 1154l332 -956h35l348 997h90l-414 -1195h-260l-77 222l-188 542l-265 -764h-260l-414 1195h271l345 -997h35l222 636q8 23 8 49q0 53 -40.5 162.5t-40.5 149.5h273v-41z" />
<glyph unicode="x" horiz-adv-x="1280" d="M201 0h-116l453 538l-453 657h278l328 -472h11l397 472h106l-452 -544l452 -651h-286l-320 465h-10z" />
<glyph unicode="y" horiz-adv-x="1280" d="M367 -341q119 0 175 66q28 34 28 85q0 55 -41 169l-444 1216h273l331 -907q20 -50 36 -111h5l373 1018h92l-506 -1374q-24 -65 -47 -105t-59 -75.5t-89 -51.5t-127 -16h-239v107q26 0 103.5 -10.5t126.5 -10.5h9z" />
<glyph unicode="z" horiz-adv-x="1280" d="M85 53l640 890q18 26 50.5 67t53 67.5t20.5 31.5h-764v86h1110v-39l-653 -904q-12 -17 -44.5 -58.5t-56 -72.5t-23.5 -36h777v-85h-1110v53z" />
<glyph unicode="{" horiz-adv-x="768" d="M128 693q9 9 38 35t47 45.5t40.5 47t34 57t11.5 59.5v486q0 45 27.5 94.5t75 92t122 70t159.5 27.5v-86q-56 0 -92 -52t-36 -135v-369q0 -17 -6.5 -37.5t-20 -43.5t-27 -43.5t-35.5 -47t-37 -44t-39.5 -43t-35.5 -36.5l-32.5 -32.5l-22.5 -22.5v-64l22.5 -22.5 l32.5 -32.5t35.5 -36.5t39.5 -43t37 -44t35.5 -47t27 -43.5t20 -43.5t6.5 -37.5v-367q0 -85 34 -137.5t94 -52.5v-85q-85 0 -159.5 27.5t-122 69.5t-75 91.5t-27.5 94.5v487q0 37 -21.5 77t-40.5 61t-61.5 60.5t-47.5 44.5v21z" />
<glyph unicode="|" horiz-adv-x="597" d="M427 1621v-2048h-256v2048h256z" />
<glyph unicode="}" horiz-adv-x="768" d="M640 693v-21q-5 -5 -47.5 -44.5t-61.5 -60.5t-40.5 -61t-21.5 -77v-484q0 -45 -27.5 -95t-75 -92.5t-122 -70.5t-159.5 -28v85q60 0 94 52.5t34 137.5v367q0 17 6.5 37.5t20 43.5t27 43.5t35.5 47t37 44t39.5 43t35.5 36.5l32.5 32.5l22.5 22.5v64l-22.5 22.5l-32.5 32.5 t-35.5 36.5t-39.5 43t-37 44t-35.5 47t-27 43.5t-20 43.5t-6.5 37.5v369q0 83 -36 135t-92 52v86q85 0 159.5 -27.5t122 -70t75 -92t27.5 -94.5v-486q0 -30 11.5 -59.5t34 -57t40.5 -47t47 -45.5t38 -35z" />
<glyph unicode="~" horiz-adv-x="1280" d="M567 879q-63 51 -100 51q-44 0 -76.5 -22.5t-100.5 -92.5l-13 -15l-130 111l160 113q25 17 43.5 27t49.5 19t65 9q19 0 35.5 -3.5t27.5 -7t28 -15t24 -17t29 -24t31 -26.5l73 -60q63 -51 100 -51q44 0 76.5 22.5t100.5 92.5l13 15l130 -111l-160 -113q-26 -18 -44 -28 t-49 -19t-65 -9q-16 0 -29 1t-26.5 6.5t-21 8.5t-22 14t-21 16t-26.5 22.5t-29 25.5z" />
<glyph horiz-adv-x="1066" />
<glyph unicode="&#xa1;" horiz-adv-x="512" d="M86 0zM86 1023.98v171q0 18 2.5 25t16.5 12.501t45 5.50293l128 0.0078125q42 0.00195312 53 -8.99707t11 -33.999v-171q0 -11 -1 -16t-6.5 -12.501q-5.5 -7.5 -19.5 -10.501t-37 -3.00195l-128 -0.0078125q-44 -0.00292969 -54 9.49609q-10 9.5 -10 32.5zM86 -426.021 q4 64 30.5 378.002q26.5 314.001 26.5 475.001q0 140 -15 255.999l171 0.0107422q-11 -97.001 -11 -256.001q0 -166 25.5 -479.998q25.5 -313.999 28.5 -372.998z" />
<glyph unicode="&#xa2;" horiz-adv-x="1194" d="M725 107v-192h-85v196q-105 10 -189.5 45t-135.5 79.5t-84.5 99t-46.5 100.5t-13 86v409q0 40 13 86t46.5 100.5t84.5 99t135.5 79.5t189.5 45v281h85v-277q99 0 216.5 -21t167.5 -47l-42 -98l-192 61q-62 20 -118 20h-32v-1067h32q59 0 118 19l192 62l42 -98 q-51 -26 -167.5 -47t-205.5 -21h-11zM640 205v1041q-213 -48 -213 -277v-487q0 -229 213 -277z" />
<glyph unicode="&#xa3;" horiz-adv-x="1536" d="M597 939h427v-86h-427v-768h768v-85h-1280v85h43q50 0 88 12t60.5 36t36.5 48t19.5 59.5t7 58t1.5 55.5v499h-256v86h256v247q0 31 7 66t25.5 78t46 83t73 78.5t102 66.5t137.5 45.5t175 17.5h40q85 0 224 -32t194 -59l-42 -99l-192 62q-127 43 -192 43q-71 0 -130 -20.5 t-97.5 -52.5t-65 -72t-38 -76.5t-11.5 -68.5v-307z" />
<glyph unicode="&#xa4;" horiz-adv-x="853" d="M439 589q35 0 57 12.5t30.5 35.5t11 40t2.5 42v8q0 24 -2.5 41t-11 39.5t-30.5 35t-57 12.5h-21q-28 0 -48 -9.5t-30 -21.5t-15 -32t-6 -33t-1 -32v-8q0 -130 100 -130h21zM668 1056l89 -90l-128 -128q26 -40 26 -89v-54q0 -46 -24 -83l126 -128l-89 -89l-143 143 q-39 -11 -71 -11h-51q-32 0 -74 11l-143 -143l-90 89l132 135q-15 30 -15 76v54q0 46 20 81l-137 136l90 90l149 -147q28 8 68 8h51q25 0 67 -8z" />
<glyph unicode="&#xa5;" d="M371 1621l444 -874h11l443 874h96l-490 -964v-145h320v-85h-320v-427h-256v427h-320v85h320v58l-534 1051h286z" />
<glyph unicode="&#xa6;" horiz-adv-x="597" d="M427 480v-480h-256v480h256zM427 1621v-480h-256v480h256z" />
<glyph unicode="&#xa7;" horiz-adv-x="1706" d="M962 284q146 0 236.5 75t90.5 151q0 61 -51.5 134t-113.5 98l-328 156q-62 13 -137 13q-76 0 -140 -23t-103.5 -57.5t-61 -73t-21.5 -72.5q0 -61 51 -134.5t113 -98.5l329 -155q62 -13 136 -13zM1041 196l30 -15q228 -108 228 -273q0 -65 -27 -123t-83 -106.5t-153.5 -77 t-226.5 -28.5q-261 0 -448 69l42 98q11 -4 50 -16t48.5 -15t41 -12.5t43 -11.5t38 -8.5t42.5 -8t40.5 -4.5t48 -4t49.5 -1q103 0 178.5 47t75.5 111q0 85 -149 155l-583 275q-105 45 -173 137.5t-68 189.5q0 71 33 140t94 128t157.5 99.5t212.5 50.5v6l-32 15 q-228 108 -228 273q0 65 27.5 123t83 106.5t153.5 77t227 28.5q264 0 448 -68l-43 -98q-11 4 -50 16t-48.5 15t-41 12.5t-43 11.5t-38 8.5t-42.5 8t-40.5 4.5t-48 4t-49.5 1q-103 0 -178.5 -47t-75.5 -111q0 -86 150 -156l582 -275q105 -45 173 -137.5t68 -188.5 q0 -71 -33 -140t-93.5 -127.5t-156 -99t-212.5 -51.5v-7z" />
<glyph unicode="&#xa8;" horiz-adv-x="1365" d="M832 1621h213v-128q0 -19 -29 -30.5t-77 -11.5q-46 0 -76.5 13t-30.5 29v128zM320 1621h213v-128q0 -19 -29 -30.5t-77 -11.5q-46 0 -76.5 13t-30.5 29v128z" />
<glyph unicode="&#xa9;" horiz-adv-x="2133" d="M555 1037q0 45 14 94.5t54 108t100 104t163.5 76.5t233.5 31q89 0 205.5 -21t167.5 -47l-42 -98l-192 61q-62 20 -118 20q-88 0 -154 -24.5t-103.5 -67t-55 -92.5t-17.5 -106v-487q0 -133 78 -211.5t252 -78.5q59 0 118 19l192 62l42 -98q-51 -26 -167.5 -47t-205.5 -21 q-130 0 -233.5 31t-163.5 76.5t-100 104t-54 108t-14 94.5v409zM2048 811q0 -200 -77.5 -381.5t-209 -313t-313 -209.5t-381.5 -78t-381.5 78t-313 209.5t-209.5 313t-78 381.5t78 381.5t209.5 313t313 209t381.5 77.5t381.5 -77.5t313 -209t209 -313t77.5 -381.5z M1067 1707q-182 0 -348 -71t-286 -191t-191 -286t-71 -348t71 -348t191 -286t286 -191t348 -71t348 71t286 191t191 286t71 348t-71 348t-191 286t-286 191t-348 71z" />
<glyph unicode="&#xaa;" horiz-adv-x="1280" d="M868 659l-192 -77q-63 -24 -132.5 -36.5t-106.5 -12.5q-142 0 -247 86t-105 211v79q0 142 117.5 224.5t309.5 82.5h341v30q0 28 -1 48t-6 52.5t-14.5 56t-28 50.5t-44.5 43.5t-66 28t-91 11.5q-40 0 -99 -19l-192 -62l-42 98q52 26 159 47t195 21q95 0 170.5 -11.5 t125.5 -30t86.5 -46.5t56 -55t31 -62.5t14 -62t2.5 -60.5v-738h-213zM855 730l-2 27v374h-256q-51 0 -91.5 -9.5t-67 -24t-45.5 -37t-29 -43.5t-15.5 -49.5t-6.5 -48t-1 -46.5q0 -99 55 -166t142 -67q39 0 98 19z" />
<glyph unicode="&#xab;" horiz-adv-x="1109" d="M535 615l387 429l102 -105l-51.5 -51.5t-42.5 -43t-30.5 -32t-28.5 -32t-22.5 -28.5t-27 -37.5t-27.5 -43t-37 -58.5v-36q19 -25 53 -73t44 -61t37.5 -46t56.5 -63.5t76 -78.5l-102 -103l-387 429v34zM85 615l386 429l103 -105l-51.5 -51.5t-42.5 -43t-30.5 -32 t-28.5 -32t-22.5 -28.5t-27 -37.5t-27.5 -43t-37 -58.5v-36q19 -25 53 -73t44 -61t37.5 -46t56.5 -63.5t76 -78.5l-103 -103l-386 429v34z" />
<glyph unicode="&#xac;" horiz-adv-x="1365" d="M1024 427h-853v170h1024v-597h-171v427z" />
<glyph unicode="&#xad;" horiz-adv-x="982" d="M171 598zM811 768v-170h-640v170h640z" />
<glyph unicode="&#xae;" horiz-adv-x="2133" d="M1404 254l-233 318q-75 102 -104 130q-59 57 -151 63q-14 1 -29 1h-64v-512h-192v1216h504q97 0 171 -23t114.5 -57t66 -78.5t33 -80t7.5 -70.5v-116q0 -31 -7 -61.5t-28.5 -67t-56 -65.5t-94.5 -52t-138 -31v-2q32 -14 84.5 -64.5t75.5 -82.5l228 -325v-40h-187z M823 1406v-576h280q60 0 107 21t73 53t39 65.5t13 63.5v170q0 32 -10 64t-33 65t-69.5 53.5t-111.5 20.5h-288zM2048 811q0 -200 -77.5 -381.5t-209 -313t-313 -209.5t-381.5 -78t-381.5 78t-313 209.5t-209.5 313t-78 381.5t78 381.5t209.5 313t313 209t381.5 77.5 t381.5 -77.5t313 -209t209 -313t77.5 -381.5zM1067 1707q-182 0 -348 -71t-286 -191t-191 -286t-71 -348t71 -348t191 -286t286 -191t348 -71t348 71t286 191t191 286t71 348t-71 348t-191 286t-286 191t-348 71z" />
<glyph unicode="&#xaf;" horiz-adv-x="1237" d="M981 1621v-170h-682v170h682z" />
<glyph unicode="&#xb0;" horiz-adv-x="682" d="M275 1348h9q34 0 58.5 33t24.5 61v11q0 34 -23.5 64t-59.5 30h-9q-24 0 -48 -29t-24 -65v-11q0 -35 20 -64.5t52 -29.5zM107 1442v11q0 77 52.5 122.5t115.5 45.5h9q80 0 129.5 -50t49.5 -118v-11q0 -66 -53 -117t-126 -51h-9q-74 0 -121 49t-47 119z" />
<glyph unicode="&#xb1;" horiz-adv-x="1365" d="M555 1536h170v-512h470v-171h-470v-512h-170v512h-470v171h470v512zM1195 171v-171h-1110v171h1110z" />
<glyph unicode="&#xb2;" horiz-adv-x="753" d="M53 1013zM689 1013h-636v96l2 2q52 55 115 120.5t97 100t76 79.5t61.5 67.5t43.5 53t33.5 48.5t19.5 42t12.5 44t2.5 45q0 88 -46.5 143t-145.5 55q-33 0 -68 -11l-124 -38l-27 79l8 4q34 18 104 34.5t124 16.5h81q114 0 190.5 -78.5t76.5 -175.5q0 -49 -6.5 -87 t-25.5 -75t-39.5 -65.5t-62 -71t-80 -78t-106.5 -101t-128 -125.5h448v-124z" />
<glyph unicode="&#xb3;" horiz-adv-x="810" d="M51 981zM689 1388v-119q0 -28 -9 -62t-34 -75t-62.5 -74t-101.5 -55t-143 -22h-23q-42 0 -118.5 22t-146.5 57l39 83l119 -51q72 -26 111 -26q94 0 144 52t50 104v137q0 59 -29.5 93.5t-77.5 34.5h-98v89h41q46 0 79.5 50.5t33.5 92.5v53q0 25 -1 39.5t-8.5 35.5 t-21 32.5t-40.5 20.5t-66 9q-31 0 -66 -11l-119 -51l-39 83q129 64 237 64q55 0 99 -9.5t72 -23.5t48.5 -36.5t30.5 -42t15.5 -47t6.5 -44t1 -40.5v-19q0 -40 -27.5 -87.5t-74.5 -72.5q77 -13 128 -64t51 -120z" />
<glyph unicode="&#xb4;" horiz-adv-x="1408" d="M811 1598l-276 -309l-81 61l79 143q23 41 32 56t26.5 36.5t34.5 28.5t40 7h145v-23z" />
<glyph unicode="&#xb5;" d="M171 1195h256v-894q0 -117 41 -166.5t134 -49.5q57 0 119 20l303 98v992h256v-1195h-192l-58 134l-268 -106q-61 -24 -140.5 -36.5t-120.5 -12.5q-106 0 -181 44l43 -300q2 -13 2 -37q0 -53 -24 -83t-68 -30h-102v1622z" />
<glyph unicode="&#xb6;" d="M427 1024v512q-56 0 -113 -27.5t-100 -88.5t-43 -140q0 -63 26 -114.5t66.5 -81t83 -45t80.5 -15.5zM1280 1621v-1962h-256v1877h-341v-1877h-256v1280q-55 0 -113 21.5t-110.5 62t-85.5 108t-33 149.5q0 81 33.5 148t85 108t110 63t113.5 22h853z" />
<glyph unicode="&#xb7;" horiz-adv-x="512" d="M384 939v-171q0 -18 -2.5 -25t-16.5 -12.5t-45 -5.5h-128q-42 0 -53 9t-11 34v171q0 11 1 16t6.5 12.5t19.5 10.5t37 3h128q44 0 54 -9.5t10 -32.5z" />
<glyph unicode="&#xb8;" horiz-adv-x="1237" d="M578 -128q47 15 73 15q53 0 86 -34t33 -83v-45q0 -25 -8 -49.5t-26 -48.5t-54 -39t-85 -15h-32q-49 0 -113 32l19 62q10 -7 42.5 -20.5t51.5 -13.5h32q43 0 65.5 28.5t22.5 63.5v64q0 18 -10.5 28t-23.5 10q-25 0 -45 -8l-53 -26h-52l45 207h62z" />
<glyph unicode="&#xb9;" horiz-adv-x="512" d="M154 1013zM154 1941l273 55v-983h-171v789q0 43 -32 43q-9 0 -58 -9l-12 -2v107z" />
<glyph unicode="&#xba;" horiz-adv-x="1280" d="M597 619q70 0 121 21.5t76 50.5t39.5 74t17 74.5t2.5 69.5v337q0 27 -1 48t-7 53t-15.5 56t-29 50t-45.5 43.5t-66.5 28.5t-91.5 11q-70 0 -121 -21.5t-76 -50.5t-39.5 -74t-17 -74.5t-2.5 -69.5v-337q0 -27 1 -48t7 -53t15.5 -56t29 -50t45.5 -43.5t66.5 -28.5t91.5 -11 zM597 1621q94 0 172 -17.5t130 -45.5t91.5 -67t61.5 -78t35.5 -83.5t17.5 -77.5t4 -66v-217q0 -33 -4 -66t-17.5 -77.5t-35.5 -83.5t-61.5 -78.5t-91.5 -67.5t-130 -45.5t-172 -17.5t-172 17.5t-130 45.5t-91.5 67.5t-61.5 78.5t-35.5 83.5t-17.5 77.5t-4 66v217 q0 49 8.5 97t40.5 112t84.5 111.5t150.5 81t228 33.5z" />
<glyph unicode="&#xbb;" horiz-adv-x="1109" d="M574 615v-34l-386 -429l-103 103q47 48 76 78.5t56.5 63.5t37.5 46t44 61t53 73v36q-22 35 -37 58.5t-27.5 43t-27 37.5t-22.5 28.5t-28.5 32t-30.5 32t-42.5 43l-51.5 51.5l103 105zM1024 615v-34l-386 -429l-103 103q47 48 76 78.5t56.5 63.5t37.5 46t44 61t53 73v36 q-22 35 -37 58.5t-27.5 43t-27 37.5t-22.5 28.5t-28.5 32t-30.5 32t-42.5 43l-51.5 51.5l103 105z" />
<glyph unicode="&#xbc;" horiz-adv-x="1792" d="M1244 973v10h175v-10q0 -111 -22 -210t-68 -194t-97.5 -173t-130.5 -181h348v308h174v-308h52v-106h-52v-141h-174v141h-478v115l2 2q84 110 138.5 206t93.5 238t39 303zM203 1613l277 55v-996h-175v802q0 43 -32 43q-9 0 -58 -9l-12 -2v107zM1417 1677l102 -77 l-1220 -1655l-103 76z" />
<glyph unicode="&#xbd;" horiz-adv-x="1706" d="M1632 -32h-636v96l2 2q78 82 164 169.5t126 127.5t81.5 85.5t56 71.5t24 56.5t9.5 67.5q0 86 -44 131.5t-144 45.5q-36 0 -68 -10l-124 -39l-32 101l9 4q34 18 104 34.5t124 16.5h81q114 0 190.5 -78.5t76.5 -175.5q0 -57 -11.5 -100.5t-30 -76.5t-60 -76t-82 -79.5 t-117.5 -108t-147 -141.5h448v-124zM160 1613l277 55v-996h-175v802q0 43 -32 43q-8 0 -57 -9l-13 -2v107zM1374 1677l102 -77l-1220 -1655l-102 76z" />
<glyph unicode="&#xbe;" horiz-adv-x="1877" d="M710 1077v-138q0 -28 -9 -62t-34 -75t-62 -74t-101 -55t-143 -22h-24q-42 0 -118 22t-146 57l38 96l119 -52q69 -25 111 -25q94 0 144 52t50 104v142q0 59 -29 93.5t-77 34.5h-98v90h40q46 0 79.5 50.5t33.5 92.5v49q0 25 -1 39.5t-8.5 35.5t-21 32.5t-40 20.5t-65.5 9 q-31 0 -66 -11l-120 -51l-38 96q129 64 237 64q55 0 99 -9.5t72 -23.5t48.5 -36.5t30.5 -42t15.5 -47t6.5 -44t1 -40.5v-28q0 -39 -28 -87t-75 -73q77 -13 128 -64t51 -120zM1372 973v10h175v-10q0 -111 -22 -210t-68 -194t-97.5 -173t-130.5 -181h348v308h174v-308h52v-106 h-52v-141h-174v141h-478v115l2 2q84 110 138.5 206t93.5 238t39 303zM1545 1677l102 -77l-1220 -1655l-103 76z" />
<glyph unicode="&#xbf;" horiz-adv-x="1066" d="M85 0zM555 1023.97v171q0 18 2.5 25t16.5 12.501t45 5.50293l128 0.0078125q42 0.00195312 53 -8.99707t11 -33.999v-171q0 -11 -1 -16t-6.5 -12.501q-5.5 -7.5 -19.5 -10.501t-37 -3.00195l-128 -0.0078125q-44 -0.00292969 -54 9.49609q-10 9.5 -10 32.5zM597 682.974 l171 0.0107422q53 -176.997 53 -257.997q0 -111 -83 -202.505t-305 -228.519q-66 -42.0039 -86.5 -84.5049q-20.5 -42.502 -20.5 -92.502q0 -64 75.5 -110.995t178.5 -46.9893q26 0.00195312 49.5 1.00293q23.5 1.00195 48 4.00293q24.5 3.00195 40.5 4.50293t42.5 8.00293 q26.5 6.50098 38 8.50195t43 11.5029t41 12.502q9.5 3.00098 48.5 15.0029q39 12.0029 50 16.0029l43 -97.9971q-184 -68.0117 -448 -68.0273q-129 -0.0078125 -227 28.4863t-153.5 76.9902q-55.5 48.4971 -83 106.495t-27.5 122.998q0 192 186 294.012 q88 49.0049 149 92.5088t96 78.0059t53.5 72.5039q18.5 38.001 24 68.001t5.5 71q0 14 -1 47t-1 51z" />
<glyph unicode="&#xc0;" horiz-adv-x="1536" d="M85 0zM493 2005v23h145q22 0 39 -7t32 -25t25.5 -34.5t29.5 -50.5q4 -7 6 -11l79 -143l-81 -61zM604 1621h328l519 -1621h-269l-164 512h-679l-164 -512h-90zM638 1451l-271 -854h623l-273 854h-79z" />
<glyph unicode="&#xc1;" horiz-adv-x="1536" d="M85 0zM1044 2005l-276 -309l-81 61l79 143q23 41 32 56t26.5 36.5t34.5 28.5t40 7h145v-23zM604 1621h328l519 -1621h-269l-164 512h-679l-164 -512h-90zM638 1451l-271 -854h623l-273 854h-79z" />
<glyph unicode="&#xc2;" horiz-adv-x="1536" d="M85 0zM795 2069l269 -271l-89 -91l-62 64q-40 43 -89.5 79.5t-77.5 52.5q-23 -13 -80.5 -58t-85.5 -74l-62 -64l-90 91l269 271h98zM604 1621h328l519 -1621h-269l-164 512h-679l-164 -512h-90zM638 1451l-271 -854h623l-273 854h-79z" />
<glyph unicode="&#xc3;" horiz-adv-x="1536" d="M85 0zM700 1830q-56 34 -92 34q-14 0 -28 -3.5t-23.5 -6.5t-21 -12.5t-17 -13.5t-16.5 -18.5t-13.5 -17t-14 -19.5t-11.5 -18l-11 -17l-139 88l107 104q25 24 43.5 38t56.5 29.5t79 15.5q21 0 41.5 -6.5t32.5 -12t40.5 -23t41.5 -24.5l88 -49q62 -36 93 -36 q16 0 29.5 3.5t26 11.5t21.5 14t20 20t16 20t16 22t14 20l11 17l137 -90l-105 -104q-25 -23 -44 -38t-57 -30t-80 -15q-20 0 -40.5 6.5t-30 11t-41.5 23.5t-42 25zM604 1621h328l519 -1621h-269l-164 512h-679l-164 -512h-90zM638 1451l-271 -854h623l-273 854h-79z" />
<glyph unicode="&#xc4;" horiz-adv-x="1536" d="M85 0zM917 1952h213v-128q0 -19 -29 -30.5t-77 -11.5q-46 0 -76.5 13t-30.5 29v128zM405 1952h213v-128q0 -19 -29 -30.5t-77 -11.5q-46 0 -76.5 13t-30.5 29v128zM604 1621h328l519 -1621h-269l-164 512h-679l-164 -512h-90zM638 1451l-271 -854h623l-273 854h-79z" />
<glyph unicode="&#xc5;" horiz-adv-x="1536" d="M85 0zM785 1976q75 0 120.5 -47t45.5 -118v-12q0 -71 -45.5 -118t-120.5 -47h-30q-75 0 -120.5 47t-45.5 118v12q0 71 45.5 118t120.5 47h30zM770 1698q49 0 72.5 26t23.5 81q0 107 -96 107t-96 -107q0 -55 23.5 -81t72.5 -26zM604 1621h328l519 -1621h-269l-164 512 h-679l-164 -512h-90zM638 1451l-271 -854h623l-273 854h-79z" />
<glyph unicode="&#xc6;" horiz-adv-x="2218" d="M2048 1621v-85h-768v-683h442v-85h-442v-683h768v-85h-1024v512h-685l-164 -512h-90l519 1621h1444zM1024 597v939h-358l-301 -939h659z" />
<glyph unicode="&#xc7;" horiz-adv-x="1365" d="M789 -128q47 15 73 15q53 0 86 -34t33 -83v-45q0 -25 -7.5 -49.5t-25 -48.5t-53 -39t-84.5 -15h-34q-47 0 -111 32l17 62q10 -7 42.5 -20.5t51.5 -13.5h34q43 0 64 28t21 64v64q0 18 -10.5 28t-23.5 10q-23 0 -43 -8l-55 -26h-51l40 186q-124 3 -227 37t-166.5 83 t-108 109t-62.5 112t-18 94v772q0 43 18.5 96t64.5 114t112.5 110t174.5 82t238 33h40q85 0 224 -32t194 -59l-42 -99l-192 62q-127 43 -192 43q-176 0 -280 -87.5t-104 -202.5v-892q0 -54 26 -105.5t73.5 -93t121.5 -66.5t163 -25q65 0 192 43l192 64l42 -98 q-56 -28 -195 -61t-223 -33h-4z" />
<glyph unicode="&#xc8;" horiz-adv-x="1365" d="M171 0zM493 2005v23h145q22 0 39 -7t32 -25t25.5 -34.5t29.5 -50.5q4 -7 6 -11l79 -143l-81 -61zM171 1621h1024v-85h-768v-597h426v-86h-426v-768h768v-85h-1024v1621z" />
<glyph unicode="&#xc9;" horiz-adv-x="1365" d="M171 0zM937 2005l-276 -309l-81 61l79 143q23 41 32 56t26.5 36.5t34.5 28.5t40 7h145v-23zM171 1621h1024v-85h-768v-597h426v-86h-426v-768h768v-85h-1024v1621z" />
<glyph unicode="&#xca;" horiz-adv-x="1365" d="M171 0zM710 2069l269 -271l-89 -91l-62 64q-40 43 -89.5 79.5t-77.5 52.5q-23 -13 -80.5 -58t-85.5 -74l-62 -64l-90 91l269 271h98zM171 1621h1024v-85h-768v-597h426v-86h-426v-768h768v-85h-1024v1621z" />
<glyph unicode="&#xcb;" horiz-adv-x="1365" d="M171 0zM832 1958h213v-128q0 -19 -29 -30.5t-77 -11.5q-46 0 -76.5 13t-30.5 29v128zM320 1958h213v-128q0 -19 -29 -30.5t-77 -11.5q-46 0 -76.5 13t-30.5 29v128zM171 1621h1024v-85h-768v-597h426v-86h-426v-768h768v-85h-1024v1621z" />
<glyph unicode="&#xcc;" horiz-adv-x="597" d="M43 0zM43 2005v23h145q22 0 39 -7t32 -25t25.5 -34.5t29.5 -50.5q4 -7 6 -11l79 -143l-81 -61zM171 1621h256v-1621h-256v1621z" />
<glyph unicode="&#xcd;" horiz-adv-x="597" d="M171 0zM555 2005l-276 -309l-81 61l79 143q23 41 32 56t26.5 36.5t34.5 28.5t40 7h145v-23zM171 1621h256v-1621h-256v1621z" />
<glyph unicode="&#xce;" horiz-adv-x="597" d="M0 0zM347 2069l269 -271l-89 -91l-62 64q-40 43 -89.5 79.5t-77.5 52.5q-23 -13 -80.5 -58t-85.5 -74l-62 -64l-90 91l269 271h98zM171 1621h256v-1621h-256v1621z" />
<glyph unicode="&#xcf;" horiz-adv-x="597" d="M171 1621h256v-1621h-256v1621zM405 1958h192v-128q0 -42 -96 -42q-45 0 -70.5 12.5t-25.5 29.5v128zM0 1958h192v-128q0 -42 -96 -42q-45 0 -70.5 12.5t-25.5 29.5v128z" />
<glyph unicode="&#xd0;" horiz-adv-x="1536" d="M171 1621h629q130 0 233.5 -33t163.5 -81.5t100 -110.5t54 -113.5t14 -96.5v-751q0 -45 -14 -96.5t-54 -113.5t-100 -110.5t-163.5 -81.5t-233.5 -33h-629v768h-171v85h171v768zM768 1536h-341v-683h298v-85h-298v-683h341q89 0 157 23t107 63t58 88t19 104v917 q0 115 -83.5 185.5t-257.5 70.5z" />
<glyph unicode="&#xd1;" horiz-adv-x="1536" d="M171 0zM692 1830q-56 34 -92 34q-14 0 -28 -3.5t-23.5 -6.5t-21 -12.5t-17 -13.5t-16.5 -18.5t-13.5 -17t-14 -19.5t-11.5 -18l-11 -17l-139 88l107 104q25 24 43.5 38t56.5 29.5t79 15.5q21 0 41.5 -6.5t32.5 -12t40.5 -23t41.5 -24.5l88 -49q62 -36 93 -36 q16 0 29.5 3.5t26 11.5t21.5 14t20 20t16 20t16 22t14 20l11 17l137 -90l-105 -104q-25 -23 -44 -38t-57 -30t-80 -15q-20 0 -40.5 6.5t-30 11t-41.5 23.5t-42 25zM1280 331v1290h85v-1621h-160l-906 1261l-41 66h-2v-1327h-85v1621h183l896 -1248l28 -42h2z" />
<glyph unicode="&#xd2;" horiz-adv-x="1536" d="M171 0zM525 2005v23h145q22 0 39 -7t32 -25t25.5 -34.5t29.5 -50.5q4 -7 6 -11l79 -143l-81 -61zM768 64q89 0 157 23t107 62.5t58 87.5t19 104v939q0 115 -83.5 185.5t-257.5 70.5q-175 0 -258 -70t-83 -186v-939q0 -118 84.5 -197.5t256.5 -79.5zM171 1195 q0 103 51 186.5t136 134.5t190 78t220 27t220 -27t190 -78t136 -134.5t51 -186.5v-781q0 -106 -51 -190.5t-136 -137t-190 -80t-220 -27.5t-220 27.5t-190 80t-136 137t-51 190.5v781z" />
<glyph unicode="&#xd3;" horiz-adv-x="1536" d="M171 0zM1012 2005l-276 -309l-81 61l79 143q23 41 32 56t26.5 36.5t34.5 28.5t40 7h145v-23zM768 64q89 0 157 23t107 62.5t58 87.5t19 104v939q0 115 -83.5 185.5t-257.5 70.5q-175 0 -258 -70t-83 -186v-939q0 -118 84.5 -197.5t256.5 -79.5zM171 1195q0 103 51 186.5 t136 134.5t190 78t220 27t220 -27t190 -78t136 -134.5t51 -186.5v-781q0 -106 -51 -190.5t-136 -137t-190 -80t-220 -27.5t-220 27.5t-190 80t-136 137t-51 190.5v781z" />
<glyph unicode="&#xd4;" horiz-adv-x="1536" d="M171 0zM795 2069l269 -271l-89 -91l-62 64q-40 43 -89.5 79.5t-77.5 52.5q-23 -13 -80.5 -58t-85.5 -74l-62 -64l-90 91l269 271h98zM768 64q89 0 157 23t107 62.5t58 87.5t19 104v939q0 115 -83.5 185.5t-257.5 70.5q-175 0 -258 -70t-83 -186v-939q0 -118 84.5 -197.5 t256.5 -79.5zM171 1195q0 103 51 186.5t136 134.5t190 78t220 27t220 -27t190 -78t136 -134.5t51 -186.5v-781q0 -106 -51 -190.5t-136 -137t-190 -80t-220 -27.5t-220 27.5t-190 80t-136 137t-51 190.5v781z" />
<glyph unicode="&#xd5;" horiz-adv-x="1536" d="M171 0zM706 1850q-63 51 -100 51q-44 0 -76.5 -22.5t-100.5 -92.5l-13 -15l-130 111l160 113q25 17 43.5 27t49.5 19t65 9q19 0 35.5 -3.5t27.5 -7t28 -15t24 -17t29 -24t31 -26.5l73 -60q63 -51 100 -51q44 0 76.5 22.5t100.5 92.5l13 15l130 -111l-160 -113 q-26 -18 -44 -28t-49 -19t-65 -9q-16 0 -29 1t-26.5 6.5t-21 8.5t-22 14t-21 16t-26.5 22.5t-29 25.5zM768 64q89 0 157 23t107 62.5t58 87.5t19 104v939q0 115 -83.5 185.5t-257.5 70.5q-175 0 -258 -70t-83 -186v-939q0 -118 84.5 -197.5t256.5 -79.5zM171 1195 q0 103 51 186.5t136 134.5t190 78t220 27t220 -27t190 -78t136 -134.5t51 -186.5v-781q0 -106 -51 -190.5t-136 -137t-190 -80t-220 -27.5t-220 27.5t-190 80t-136 137t-51 190.5v781z" />
<glyph unicode="&#xd6;" horiz-adv-x="1536" d="M171 0zM939 1952h213v-128q0 -19 -29 -30.5t-77 -11.5q-46 0 -76.5 13t-30.5 29v128zM427 1952h213v-128q0 -19 -29 -30.5t-77 -11.5q-46 0 -76.5 13t-30.5 29v128zM768 64q89 0 157 23t107 62.5t58 87.5t19 104v939q0 115 -83.5 185.5t-257.5 70.5q-175 0 -258 -70 t-83 -186v-939q0 -118 84.5 -197.5t256.5 -79.5zM171 1195q0 103 51 186.5t136 134.5t190 78t220 27t220 -27t190 -78t136 -134.5t51 -186.5v-781q0 -106 -51 -190.5t-136 -137t-190 -80t-220 -27.5t-220 27.5t-190 80t-136 137t-51 190.5v781z" />
<glyph unicode="&#xd7;" horiz-adv-x="1280" d="M1003 1293l119 -120l-363 -362l363 -363l-119 -119l-363 362l-363 -362l-119 119l363 363l-363 362l119 120l363 -363z" />
<glyph unicode="&#xd8;" d="M171 1195q0 45 14 95.5t54 111t100 108t163.5 79.5t233.5 32h64q160 0 277 -47l47 90l77 -38l-45 -90q109 -66 159 -163t50 -178v-781q0 -45 -14 -96.5t-54 -113.5t-100 -110.5t-163.5 -81.5t-233.5 -33h-64q-205 0 -339 76l-60 -115l-77 39l64 126q-80 67 -116.5 153 t-36.5 156v781zM768 64q89 0 157 23t107 62.5t58 87.5t19 104v939q0 65 -25 115l-617 -1201q83 -130 301 -130zM429 307l595 1161q-87 68 -256 68q-175 0 -258 -70t-83 -186v-939q0 -23 2 -34z" />
<glyph unicode="&#xd9;" horiz-adv-x="1536" d="M171 0zM525 2005v23h145q22 0 39 -7t32 -25t25.5 -34.5t29.5 -50.5q4 -7 6 -11l79 -143l-81 -61zM768 64h32q114 0 204 28t140 68t82.5 90.5t43 90.5t10.5 73v1207h85v-1207q0 -45 -14 -96.5t-54 -113.5t-100 -110.5t-163.5 -81.5t-233.5 -33h-64q-130 0 -233.5 33 t-163.5 81.5t-100 110.5t-54 113.5t-14 96.5v1207h256v-1280q0 -118 84.5 -197.5t256.5 -79.5z" />
<glyph unicode="&#xda;" horiz-adv-x="1536" d="M171 0zM1044 2005l-276 -309l-81 61l79 143q23 41 32 56t26.5 36.5t34.5 28.5t40 7h145v-23zM768 64h32q114 0 204 28t140 68t82.5 90.5t43 90.5t10.5 73v1207h85v-1207q0 -45 -14 -96.5t-54 -113.5t-100 -110.5t-163.5 -81.5t-233.5 -33h-64q-130 0 -233.5 33 t-163.5 81.5t-100 110.5t-54 113.5t-14 96.5v1207h256v-1280q0 -118 84.5 -197.5t256.5 -79.5z" />
<glyph unicode="&#xdb;" horiz-adv-x="1536" d="M171 0zM795 2069l269 -271l-89 -91l-62 64q-40 43 -89.5 79.5t-77.5 52.5q-23 -13 -80.5 -58t-85.5 -74l-62 -64l-90 91l269 271h98zM768 64h32q114 0 204 28t140 68t82.5 90.5t43 90.5t10.5 73v1207h85v-1207q0 -45 -14 -96.5t-54 -113.5t-100 -110.5t-163.5 -81.5 t-233.5 -33h-64q-130 0 -233.5 33t-163.5 81.5t-100 110.5t-54 113.5t-14 96.5v1207h256v-1280q0 -118 84.5 -197.5t256.5 -79.5z" />
<glyph unicode="&#xdc;" horiz-adv-x="1536" d="M171 0zM960 1958h213v-128q0 -19 -29 -30.5t-77 -11.5q-46 0 -76.5 13t-30.5 29v128zM448 1958h213v-128q0 -19 -29 -30.5t-77 -11.5q-46 0 -76.5 13t-30.5 29v128zM768 64h32q114 0 204 28t140 68t82.5 90.5t43 90.5t10.5 73v1207h85v-1207q0 -45 -14 -96.5t-54 -113.5 t-100 -110.5t-163.5 -81.5t-233.5 -33h-64q-130 0 -233.5 33t-163.5 81.5t-100 110.5t-54 113.5t-14 96.5v1207h256v-1280q0 -118 84.5 -197.5t256.5 -79.5z" />
<glyph unicode="&#xdd;" d="M85 0zM980 2005l-276 -309l-81 61l79 143q23 41 32 56t26.5 36.5t34.5 28.5t40 7h145v-23zM371 1621l444 -874h11l443 874h96l-490 -964v-657h-256v570l-534 1051h286z" />
<glyph unicode="&#xde;" horiz-adv-x="1536" d="M427 1365v-853h373q81 0 142.5 23t96.5 62.5t52.5 87.5t17.5 104v299q0 118 -84.5 197.5t-256.5 79.5h-341zM171 0v1621h256v-170h373q94 0 174.5 -17t137.5 -44.5t102 -65t72.5 -77t46 -81.5t25.5 -76.5t7 -65.5v-171q0 -44 -14 -95.5t-51.5 -111.5t-94 -107.5 t-151 -79.5t-211.5 -32h-416v-427h-256z" />
<glyph unicode="&#xdf;" d="M85 1024h86v301q0 125 104.5 210.5t247.5 85.5q63 0 119.5 -6t121 -25.5t110.5 -51t76.5 -87.5t30.5 -130q0 -47 -29 -92t-70.5 -79t-82.5 -65.5t-70 -65.5t-29 -65q0 -16 5 -31t17.5 -30t24.5 -27.5t36 -28.5t40.5 -26.5t50 -28.5t53.5 -28.5t60.5 -31t62.5 -31.5 q91 -47 154 -97.5t97.5 -101.5t49 -100t14.5 -104q0 -57 -35 -111.5t-98 -99t-162 -71.5t-217 -27q-91 0 -151 6.5t-89 15t-86 29.5l43 98q28 -10 66 -25.5t50 -19.5t39 -10.5t55 -7.5t75 -1q83 0 168.5 52.5t85.5 126.5q0 124 -241 248q-176 92 -242.5 170.5t-66.5 189.5 q0 62 30.5 120t73.5 101t86 83t73.5 82t30.5 81q0 38 -11.5 69t-28.5 51.5t-42 35t-48 22.5t-50 12.5t-44 5.5t-34 1q-25 0 -44.5 -2.5t-46.5 -13.5t-44.5 -30.5t-30.5 -57t-13 -88.5q0 -13 5.5 -64t5.5 -64v-1195h-256v917h-86v107z" />
<glyph unicode="&#xe0;" d="M171 0zM519 1598v23h145q22 0 39 -7t32 -25t25.5 -34.5t29.5 -50.5q4 -7 6 -11l79 -143l-81 -61zM751 1131q-48 0 -123 -15.5t-118 -29.5l-199 -68l-42 98q63 31 209.5 65.5t272.5 34.5q131 0 230 -22t154.5 -55t89.5 -79.5t44.5 -87t10.5 -85.5v-887h-192l-58 132 l-268 -104q-125 -49 -197 -49q-94 0 -184.5 38t-150 107.5t-59.5 150.5v100q0 142 117.5 225t308.5 83h427v200q0 42 -4.5 73.5t-21 66t-45 57t-80 37t-122.5 14.5zM1024 597h-341q-51 0 -91.5 -9t-67 -22.5t-45.5 -36t-29 -43t-15.5 -51.5t-6.5 -52.5t-1 -53.5v-13 q0 -113 52.5 -172t143.5 -59q36 0 98 20l303 98v394z" />
<glyph unicode="&#xe1;" d="M171 0zM1005 1598l-276 -309l-81 61l79 143q23 41 32 56t26.5 36.5t34.5 28.5t40 7h145v-23zM751 1131q-48 0 -123 -15.5t-118 -29.5l-199 -68l-42 98q63 31 209.5 65.5t272.5 34.5q131 0 230 -22t154.5 -55t89.5 -79.5t44.5 -87t10.5 -85.5v-887h-192l-58 132l-268 -104 q-125 -49 -197 -49q-94 0 -184.5 38t-150 107.5t-59.5 150.5v100q0 142 117.5 225t308.5 83h427v200q0 42 -4.5 73.5t-21 66t-45 57t-80 37t-122.5 14.5zM1024 597h-341q-51 0 -91.5 -9t-67 -22.5t-45.5 -36t-29 -43t-15.5 -51.5t-6.5 -52.5t-1 -53.5v-13q0 -113 52.5 -172 t143.5 -59q36 0 98 20l303 98v394z" />
<glyph unicode="&#xe2;" d="M171 0zM800 1662l269 -271l-89 -91l-62 64q-40 43 -89.5 79.5t-77.5 52.5q-23 -13 -80.5 -58t-85.5 -74l-62 -64l-90 91l269 271h98zM751 1131q-48 0 -123 -15.5t-118 -29.5l-199 -68l-42 98q63 31 209.5 65.5t272.5 34.5q131 0 230 -22t154.5 -55t89.5 -79.5t44.5 -87 t10.5 -85.5v-887h-192l-58 132l-268 -104q-125 -49 -197 -49q-94 0 -184.5 38t-150 107.5t-59.5 150.5v100q0 142 117.5 225t308.5 83h427v200q0 42 -4.5 73.5t-21 66t-45 57t-80 37t-122.5 14.5zM1024 597h-341q-51 0 -91.5 -9t-67 -22.5t-45.5 -36t-29 -43t-15.5 -51.5 t-6.5 -52.5t-1 -53.5v-13q0 -113 52.5 -172t143.5 -59q36 0 98 20l303 98v394z" />
<glyph unicode="&#xe3;" d="M171 0zM709 1423q-56 34 -92 34q-14 0 -28 -3.5t-23.5 -6.5t-21 -12.5t-17 -13.5t-16.5 -18.5t-13.5 -17t-14 -19.5t-11.5 -18l-11 -17l-139 88l107 104q25 24 43.5 38t56.5 29.5t79 15.5q21 0 41.5 -6.5t32.5 -12t40.5 -23t41.5 -24.5l88 -49q62 -36 93 -36 q16 0 29.5 3.5t26 11.5t21.5 14t20 20t16 20t16 22t14 20l11 17l137 -90l-105 -104q-25 -23 -44 -38t-57 -30t-80 -15q-20 0 -40.5 6.5t-30 11t-41.5 23.5t-42 25zM751 1131q-48 0 -123 -15.5t-118 -29.5l-199 -68l-42 98q63 31 209.5 65.5t272.5 34.5q131 0 230 -22 t154.5 -55t89.5 -79.5t44.5 -87t10.5 -85.5v-887h-192l-58 132l-268 -104q-125 -49 -197 -49q-94 0 -184.5 38t-150 107.5t-59.5 150.5v100q0 142 117.5 225t308.5 83h427v200q0 42 -4.5 73.5t-21 66t-45 57t-80 37t-122.5 14.5zM1024 597h-341q-51 0 -91.5 -9t-67 -22.5 t-45.5 -36t-29 -43t-15.5 -51.5t-6.5 -52.5t-1 -53.5v-13q0 -113 52.5 -172t143.5 -59q36 0 98 20l303 98v394z" />
<glyph unicode="&#xe4;" d="M171 0zM900 1621h213v-128q0 -19 -29 -30.5t-77 -11.5q-46 0 -76.5 13t-30.5 29v128zM388 1621h213v-128q0 -19 -29 -30.5t-77 -11.5q-46 0 -76.5 13t-30.5 29v128zM751 1131q-48 0 -123 -15.5t-118 -29.5l-199 -68l-42 98q63 31 209.5 65.5t272.5 34.5q131 0 230 -22 t154.5 -55t89.5 -79.5t44.5 -87t10.5 -85.5v-887h-192l-58 132l-268 -104q-125 -49 -197 -49q-94 0 -184.5 38t-150 107.5t-59.5 150.5v100q0 142 117.5 225t308.5 83h427v200q0 42 -4.5 73.5t-21 66t-45 57t-80 37t-122.5 14.5zM1024 597h-341q-51 0 -91.5 -9t-67 -22.5 t-45.5 -36t-29 -43t-15.5 -51.5t-6.5 -52.5t-1 -53.5v-13q0 -113 52.5 -172t143.5 -59q36 0 98 20l303 98v394z" />
<glyph unicode="&#xe5;" d="M171 0zM768 1622q75 0 120.5 -47t45.5 -118v-12q0 -71 -45.5 -118t-120.5 -47h-30q-75 0 -120.5 47t-45.5 118v12q0 71 45.5 118t120.5 47h30zM753 1344q49 0 72.5 26t23.5 81q0 107 -96 107t-96 -107q0 -55 23.5 -81t72.5 -26zM751 1131q-48 0 -123 -15.5t-118 -29.5 l-199 -68l-42 98q63 31 209.5 65.5t272.5 34.5q131 0 230 -22t154.5 -55t89.5 -79.5t44.5 -87t10.5 -85.5v-887h-192l-58 132l-268 -104q-125 -49 -197 -49q-94 0 -184.5 38t-150 107.5t-59.5 150.5v100q0 142 117.5 225t308.5 83h427v200q0 42 -4.5 73.5t-21 66t-45 57 t-80 37t-122.5 14.5zM1024 597h-341q-51 0 -91.5 -9t-67 -22.5t-45.5 -36t-29 -43t-15.5 -51.5t-6.5 -52.5t-1 -53.5v-13q0 -113 52.5 -172t143.5 -59q36 0 98 20l303 98v394z" />
<glyph unicode="&#xe6;" horiz-adv-x="2304" d="M1589 -21q-340 0 -486 181l-73 -28l-268 -104q-125 -49 -197 -49q-94 0 -184.5 38t-150 107.5t-59.5 150.5v100q0 142 117.5 225t308.5 83h427v140v60q0 42 -4.5 73t-21 66t-44.5 57.5t-80 37t-123 14.5q-48 0 -123 -15.5t-118 -29.5l-199 -68l-42 98q63 31 209.5 65.5 t272.5 34.5q294 0 427 -107q147 107 401 107q97 0 178.5 -16.5t137.5 -42.5t99.5 -61.5t69 -71t42 -73.5t22 -66.5t5.5 -52.5v-235h-853v-243q0 -49 18 -97.5t55 -93t104 -72t154 -27.5q21 0 46 4t52 11.5t46 13t44.5 14t30.5 10.5l199 69l42 -99q-71 -36 -208.5 -72 t-273.5 -36zM1280 853v-170h597v170q0 57 -16 105t-50 88t-93 62.5t-139 22.5q-71 0 -125.5 -17.5t-86.5 -45t-52.5 -65.5t-27.5 -74t-7 -76zM1024 597h-341q-51 0 -91.5 -9t-67 -22.5t-45.5 -36t-29 -43t-15.5 -51.5t-6.5 -52.5t-1 -53.5v-13q0 -113 52.5 -172t143.5 -59 q36 0 98 20l303 98v168v226z" />
<glyph unicode="&#xe7;" horiz-adv-x="1194" d="M427 841v-487q0 -133 78 -211.5t252 -78.5q59 0 118 19l192 62l42 -98q-51 -26 -166.5 -47t-204.5 -21l-23 -105q47 15 72 15q53 0 86.5 -34t33.5 -83v-45q0 -25 -8 -49.5t-26 -48.5t-54 -39t-85 -15h-32q-49 0 -113 32l19 62q10 -7 42.5 -20.5t51.5 -13.5h32q43 0 65 28 t22 64v64q0 18 -10.5 28t-23.5 10q-25 0 -45 -8l-53 -26h-51l40 186q-115 7 -207 40t-146.5 78.5t-90.5 101t-49.5 103t-13.5 89.5v409q0 45 14 94.5t54 108t100 104t163.5 76.5t233.5 31q89 0 205.5 -21t167.5 -47l-42 -98l-192 61q-62 20 -118 20q-174 0 -252 -78.5 t-78 -211.5z" />
<glyph unicode="&#xe8;" d="M171 0zM493 1598v23h145q22 0 39 -7t32 -25t25.5 -34.5t29.5 -50.5q4 -7 6 -11l79 -143l-81 -61zM757 64q21 0 46 4t52.5 11.5t46.5 13t44.5 14.5t30.5 10l198 69l43 -99q-71 -36 -208.5 -72t-273.5 -36q-110 0 -200.5 19.5t-150 53t-103 73.5t-67 86t-34 85t-10.5 75 v452q0 45 13 92t51 103t97 98.5t161 71t232 28.5q134 0 238 -31t161.5 -75.5t95 -100.5t49 -99t11.5 -78v-192h-853v-286q0 -49 18 -97.5t54.5 -93t103.5 -72t154 -27.5zM427 725h597v128q0 57 -16.5 105t-50 88t-93 62.5t-139.5 22.5q-88 0 -150 -25.5t-92.5 -69t-43 -88 t-12.5 -95.5v-128z" />
<glyph unicode="&#xe9;" d="M171 0zM958 1598l-276 -309l-81 61l79 143q23 41 32 56t26.5 36.5t34.5 28.5t40 7h145v-23zM757 64q21 0 46 4t52.5 11.5t46.5 13t44.5 14.5t30.5 10l198 69l43 -99q-71 -36 -208.5 -72t-273.5 -36q-110 0 -200.5 19.5t-150 53t-103 73.5t-67 86t-34 85t-10.5 75v452 q0 45 13 92t51 103t97 98.5t161 71t232 28.5q134 0 238 -31t161.5 -75.5t95 -100.5t49 -99t11.5 -78v-192h-853v-286q0 -49 18 -97.5t54.5 -93t103.5 -72t154 -27.5zM427 725h597v128q0 57 -16.5 105t-50 88t-93 62.5t-139.5 22.5q-88 0 -150 -25.5t-92.5 -69t-43 -88 t-12.5 -95.5v-128z" />
<glyph unicode="&#xea;" d="M171 0zM753 1662l269 -271l-89 -91l-62 64q-40 43 -89.5 79.5t-77.5 52.5q-23 -13 -80.5 -58t-85.5 -74l-62 -64l-90 91l269 271h98zM757 64q21 0 46 4t52.5 11.5t46.5 13t44.5 14.5t30.5 10l198 69l43 -99q-71 -36 -208.5 -72t-273.5 -36q-110 0 -200.5 19.5t-150 53 t-103 73.5t-67 86t-34 85t-10.5 75v452q0 45 13 92t51 103t97 98.5t161 71t232 28.5q134 0 238 -31t161.5 -75.5t95 -100.5t49 -99t11.5 -78v-192h-853v-286q0 -49 18 -97.5t54.5 -93t103.5 -72t154 -27.5zM427 725h597v128q0 57 -16.5 105t-50 88t-93 62.5t-139.5 22.5 q-88 0 -150 -25.5t-92.5 -69t-43 -88t-12.5 -95.5v-128z" />
<glyph unicode="&#xeb;" d="M171 0zM875 1621h213v-128q0 -19 -29 -30.5t-77 -11.5q-46 0 -76.5 13t-30.5 29v128zM363 1621h213v-128q0 -19 -29 -30.5t-77 -11.5q-46 0 -76.5 13t-30.5 29v128zM757 64q21 0 46 4t52.5 11.5t46.5 13t44.5 14.5t30.5 10l198 69l43 -99q-71 -36 -208.5 -72t-273.5 -36 q-110 0 -200.5 19.5t-150 53t-103 73.5t-67 86t-34 85t-10.5 75v452q0 45 13 92t51 103t97 98.5t161 71t232 28.5q134 0 238 -31t161.5 -75.5t95 -100.5t49 -99t11.5 -78v-192h-853v-286q0 -49 18 -97.5t54.5 -93t103.5 -72t154 -27.5zM427 725h597v128q0 57 -16.5 105 t-50 88t-93 62.5t-139.5 22.5q-88 0 -150 -25.5t-92.5 -69t-43 -88t-12.5 -95.5v-128z" />
<glyph unicode="&#xec;" horiz-adv-x="597" d="M43 0zM43 1598v23h145q22 0 39 -7t32 -25t25.5 -34.5t29.5 -50.5q4 -7 6 -11l79 -143l-81 -61zM171 0v1195h256v-1195h-256z" />
<glyph unicode="&#xed;" horiz-adv-x="597" d="M171 0zM555 1598l-276 -309l-81 61l79 143q23 41 32 56t26.5 36.5t34.5 28.5t40 7h145v-23zM171 0v1195h256v-1195h-256z" />
<glyph unicode="&#xee;" horiz-adv-x="597" d="M0 0zM347 1662l269 -271l-89 -91l-62 64q-40 43 -89.5 79.5t-77.5 52.5q-23 -13 -80.5 -58t-85.5 -74l-62 -64l-90 91l269 271h98zM171 0v1195h256v-1195h-256z" />
<glyph unicode="&#xef;" horiz-adv-x="597" d="M171 0v1195h256v-1195h-256zM405 1553h192v-128q0 -43 -96 -43q-45 0 -70.5 13t-25.5 30v128zM0 1553h192v-128q0 -43 -96 -43q-45 0 -70.5 13t-25.5 30v128z" />
<glyph unicode="&#xf0;" d="M1024 870q0 88 -2 122l-301 98q-59 19 -119 19q-93 0 -134 -49t-41 -166v-570q0 -40 7 -74.5t27.5 -69.5t52.5 -60t86 -40.5t125 -15.5t125.5 15.5t86.5 40.5t52.5 60t27.5 69.5t7 74.5v546zM725 1301l-51 69l124 93q-56 21 -139 37l-198 36l10 107q64 -3 200.5 -40.5 t209.5 -77.5l156 118l51 -69l-128 -96q88 -62 154.5 -161t100 -199.5t49.5 -181.5t16 -136v-429q0 -44 -14 -92t-51.5 -103t-94 -97.5t-151 -71t-212.5 -28.5h-64q-118 0 -212.5 28.5t-150.5 71t-93.5 97.5t-51.5 103t-14 92v548q0 123 95 210t235 87q41 0 120.5 -12.5 t140.5 -36.5l253 -98q-13 149 -41 226.5t-93 123.5z" />
<glyph unicode="&#xf1;" d="M171 0zM655 1423q-56 34 -92 34q-14 0 -28 -3.5t-23.5 -6.5t-21 -12.5t-17 -13.5t-16.5 -18.5t-13.5 -17t-14 -19.5t-11.5 -18l-11 -17l-139 88l107 104q25 24 43.5 38t56.5 29.5t79 15.5q21 0 41.5 -6.5t32.5 -12t40.5 -23t41.5 -24.5l88 -49q62 -36 93 -36 q16 0 29.5 3.5t26 11.5t21.5 14t20 20t16 20t16 22t14 20l11 17l137 -90l-105 -104q-25 -23 -44 -38t-57 -30t-80 -15q-20 0 -40.5 6.5t-30 11t-41.5 23.5t-42 25zM171 0v1195h192l57 -135l269 107q61 24 140 36.5t120 12.5q141 0 236 -85t95 -212v-919h-256v894 q0 117 -41 166t-134 49q-60 0 -119 -19l-303 -98v-992h-256z" />
<glyph unicode="&#xf2;" d="M171 0zM472 1598v23h145q22 0 39 -7t32 -25t25.5 -34.5t29.5 -50.5q4 -7 6 -11l79 -143l-81 -61zM427 324q0 -40 7 -74.5t27.5 -69.5t52.5 -60t86 -40.5t125 -15.5t125.5 15.5t86.5 40.5t52.5 60t27.5 69.5t7 74.5v546q0 51 -13 93.5t-44 82t-92.5 62.5t-149.5 23 t-150 -23t-92.5 -63t-43 -82t-12.5 -93v-546zM171 371v452q0 96 47 172.5t126.5 124t177 72t203.5 24.5t204 -24.5t177 -72t126.5 -124t47.5 -172.5v-452q0 -96 -47.5 -172.5t-126.5 -123.5t-177 -71.5t-204 -24.5t-203.5 24.5t-177 71.5t-126.5 123.5t-47 172.5z" />
<glyph unicode="&#xf3;" d="M171 0zM958 1598l-276 -309l-81 61l79 143q23 41 32 56t26.5 36.5t34.5 28.5t40 7h145v-23zM427 324q0 -40 7 -74.5t27.5 -69.5t52.5 -60t86 -40.5t125 -15.5t125.5 15.5t86.5 40.5t52.5 60t27.5 69.5t7 74.5v546q0 51 -13 93.5t-44 82t-92.5 62.5t-149.5 23t-150 -23 t-92.5 -63t-43 -82t-12.5 -93v-546zM171 371v452q0 96 47 172.5t126.5 124t177 72t203.5 24.5t204 -24.5t177 -72t126.5 -124t47.5 -172.5v-452q0 -96 -47.5 -172.5t-126.5 -123.5t-177 -71.5t-204 -24.5t-203.5 24.5t-177 71.5t-126.5 123.5t-47 172.5z" />
<glyph unicode="&#xf4;" d="M171 0zM753 1662l269 -271l-89 -91l-62 64q-40 43 -89.5 79.5t-77.5 52.5q-23 -13 -80.5 -58t-85.5 -74l-62 -64l-90 91l269 271h98zM427 324q0 -40 7 -74.5t27.5 -69.5t52.5 -60t86 -40.5t125 -15.5t125.5 15.5t86.5 40.5t52.5 60t27.5 69.5t7 74.5v546q0 51 -13 93.5 t-44 82t-92.5 62.5t-149.5 23t-150 -23t-92.5 -63t-43 -82t-12.5 -93v-546zM171 371v452q0 96 47 172.5t126.5 124t177 72t203.5 24.5t204 -24.5t177 -72t126.5 -124t47.5 -172.5v-452q0 -96 -47.5 -172.5t-126.5 -123.5t-177 -71.5t-204 -24.5t-203.5 24.5t-177 71.5 t-126.5 123.5t-47 172.5z" />
<glyph unicode="&#xf5;" d="M171 0zM655 1423q-56 34 -92 34q-14 0 -28 -3.5t-23.5 -6.5t-21 -12.5t-17 -13.5t-16.5 -18.5t-13.5 -17t-14 -19.5t-11.5 -18l-11 -17l-139 88l107 104q25 24 43.5 38t56.5 29.5t79 15.5q21 0 41.5 -6.5t32.5 -12t40.5 -23t41.5 -24.5l88 -49q62 -36 93 -36 q16 0 29.5 3.5t26 11.5t21.5 14t20 20t16 20t16 22t14 20l11 17l137 -90l-105 -104q-25 -23 -44 -38t-57 -30t-80 -15q-20 0 -40.5 6.5t-30 11t-41.5 23.5t-42 25zM427 324q0 -40 7 -74.5t27.5 -69.5t52.5 -60t86 -40.5t125 -15.5t125.5 15.5t86.5 40.5t52.5 60t27.5 69.5 t7 74.5v546q0 51 -13 93.5t-44 82t-92.5 62.5t-149.5 23t-150 -23t-92.5 -63t-43 -82t-12.5 -93v-546zM171 371v452q0 96 47 172.5t126.5 124t177 72t203.5 24.5t204 -24.5t177 -72t126.5 -124t47.5 -172.5v-452q0 -96 -47.5 -172.5t-126.5 -123.5t-177 -71.5t-204 -24.5 t-203.5 24.5t-177 71.5t-126.5 123.5t-47 172.5z" />
<glyph unicode="&#xf6;" d="M171 0zM875 1621h213v-128q0 -19 -29 -30.5t-77 -11.5q-46 0 -76.5 13t-30.5 29v128zM363 1621h213v-128q0 -19 -29 -30.5t-77 -11.5q-46 0 -76.5 13t-30.5 29v128zM427 324q0 -40 7 -74.5t27.5 -69.5t52.5 -60t86 -40.5t125 -15.5t125.5 15.5t86.5 40.5t52.5 60 t27.5 69.5t7 74.5v546q0 51 -13 93.5t-44 82t-92.5 62.5t-149.5 23t-150 -23t-92.5 -63t-43 -82t-12.5 -93v-546zM171 371v452q0 96 47 172.5t126.5 124t177 72t203.5 24.5t204 -24.5t177 -72t126.5 -124t47.5 -172.5v-452q0 -96 -47.5 -172.5t-126.5 -123.5t-177 -71.5 t-204 -24.5t-203.5 24.5t-177 71.5t-126.5 123.5t-47 172.5z" />
<glyph unicode="&#xf7;" horiz-adv-x="1194" d="M704 1451v-171q0 -18 -2.5 -25t-16.5 -12.5t-45 -5.5h-128q-42 0 -53 9t-11 34v171q0 11 1 16t6.5 12.5t19.5 10.5t37 3h128q44 0 54 -9.5t10 -32.5zM704 427v-171q0 -18 -2.5 -25t-16.5 -12.5t-45 -5.5h-128q-42 0 -53 9t-11 34v171q0 11 1 16t6.5 12.5t19.5 10.5t37 3 h128q44 0 54 -9.5t10 -32.5zM1024 939v-171h-853v171h853z" />
<glyph unicode="&#xf8;" horiz-adv-x="1365" d="M171 371v452q0 44 14 92t51.5 103t93.5 98t150.5 71.5t212.5 28.5h64q213 0 350 -92l109 128l64 -55l-107 -126q55 -56 81 -123.5t26 -124.5v-452q0 -44 -14 -92t-51.5 -103t-94 -97.5t-151 -71t-212.5 -28.5h-64q-223 0 -360 98l-83 -98l-79 38l98 117 q-51 55 -74.5 118.5t-23.5 118.5zM1024 894l-578 -683q58 -147 279 -147q71 0 125.5 15.5t86.5 40.5t52.5 60t27.5 69.5t7 74.5v570zM998 996q-61 135 -273 135q-88 0 -150 -23t-92.5 -63t-43 -82t-12.5 -93v-550z" />
<glyph unicode="&#xf9;" d="M171 0zM493 1598v23h145q22 0 39 -7t32 -25t25.5 -34.5t29.5 -50.5q4 -7 6 -11l79 -143l-81 -61zM171 1195h256v-894q0 -117 41 -166.5t134 -49.5q57 0 119 20l303 98v992h256v-1195h-192l-58 134l-268 -106q-61 -24 -140.5 -36.5t-120.5 -12.5q-141 0 -235.5 84.5 t-94.5 211.5v920z" />
<glyph unicode="&#xfa;" d="M171 0zM958 1598l-276 -309l-81 61l79 143q23 41 32 56t26.5 36.5t34.5 28.5t40 7h145v-23zM171 1195h256v-894q0 -117 41 -166.5t134 -49.5q57 0 119 20l303 98v992h256v-1195h-192l-58 134l-268 -106q-61 -24 -140.5 -36.5t-120.5 -12.5q-141 0 -235.5 84.5 t-94.5 211.5v920z" />
<glyph unicode="&#xfb;" d="M171 0zM753 1662l269 -271l-89 -91l-62 64q-40 43 -89.5 79.5t-77.5 52.5q-23 -13 -80.5 -58t-85.5 -74l-62 -64l-90 91l269 271h98zM171 1195h256v-894q0 -117 41 -166.5t134 -49.5q57 0 119 20l303 98v992h256v-1195h-192l-58 134l-268 -106q-61 -24 -140.5 -36.5 t-120.5 -12.5q-141 0 -235.5 84.5t-94.5 211.5v920z" />
<glyph unicode="&#xfc;" d="M171 0zM875 1621h213v-128q0 -19 -29 -30.5t-77 -11.5q-46 0 -76.5 13t-30.5 29v128zM363 1621h213v-128q0 -19 -29 -30.5t-77 -11.5q-46 0 -76.5 13t-30.5 29v128zM171 1195h256v-894q0 -117 41 -166.5t134 -49.5q57 0 119 20l303 98v992h256v-1195h-192l-58 134 l-268 -106q-61 -24 -140.5 -36.5t-120.5 -12.5q-141 0 -235.5 84.5t-94.5 211.5v920z" />
<glyph unicode="&#xfd;" horiz-adv-x="1280" d="M85 0zM937 1598l-276 -309l-81 61l79 143q23 41 32 56t26.5 36.5t34.5 28.5t40 7h145v-23zM367 -341q119 0 175 66q28 34 28 85q0 55 -41 169l-444 1216h273l331 -907q20 -50 36 -111h5l373 1018h92l-506 -1374q-24 -65 -47 -105t-59 -75.5t-89 -51.5t-127 -16h-239v107 q26 0 103.5 -10.5t126.5 -10.5h9z" />
<glyph unicode="&#xfe;" d="M427 992v-883q58 -19 142.5 -32t145.5 -13q80 0 142 24.5t97 64.5t52.5 86t17.5 94v561q0 117 -41 166t-134 49q-60 0 -119 -19zM171 1621h256v-561l262 107q61 24 140 36.5t120 12.5q141 0 236 -85t95 -212v-548q0 -36 -10.5 -75t-34 -85t-67 -86t-103 -73.5t-150 -53 t-200.5 -19.5q-134 0 -288 38v-444h-256v2048z" />
<glyph unicode="&#xff;" horiz-adv-x="1280" d="M85 0zM811 1621h213v-128q0 -19 -29 -30.5t-77 -11.5q-46 0 -76.5 13t-30.5 29v128zM299 1621h213v-128q0 -19 -29 -30.5t-77 -11.5q-46 0 -76.5 13t-30.5 29v128zM367 -341q119 0 175 66q28 34 28 85q0 55 -41 169l-444 1216h273l331 -907q20 -50 36 -111h5l373 1018h92 l-506 -1374q-24 -65 -47 -105t-59 -75.5t-89 -51.5t-127 -16h-239v107q26 0 103.5 -10.5t126.5 -10.5h9z" />
<glyph unicode="&#x131;" horiz-adv-x="597" d="M171 0v1195h256v-1195h-256z" />
<glyph unicode="&#x152;" horiz-adv-x="2218" d="M768 85h299v1451h-299q-175 0 -258 -70t-83 -186v-917q0 -118 84.5 -198t256.5 -80zM768 0q-115 0 -220 27.5t-190 80t-136 137t-51 190.5v760q0 103 51 186.5t136 134.5t190 78t220 27h1365v-85h-810v-597h469v-86h-469v-768h810v-85h-1365z" />
<glyph unicode="&#x153;" horiz-adv-x="2304" d="M1589 -21q-284 0 -433 128q-142 -128 -399 -128h-64q-118 0 -212.5 28.5t-150.5 71t-93.5 97.5t-51.5 103t-14 92v452q0 44 14 92t51.5 103t93.5 98t150.5 71.5t212.5 28.5h64q255 0 395 -126q143 126 427 126q97 0 178.5 -16.5t137.5 -42.5t99.5 -61.5t69 -71t42 -73.5 t22 -66.5t5.5 -52.5v-192h-853v-286q0 -49 18 -97.5t55 -93t104 -72t154 -27.5q21 0 46 4t52 11.5t46 13t44.5 14t30.5 10.5l199 69l42 -99q-71 -36 -208.5 -72t-273.5 -36zM427 324q0 -40 7 -74.5t27.5 -69.5t52.5 -60t86 -40.5t125 -15.5t125.5 15.5t86.5 40.5t52.5 60 t27.5 69.5t7 74.5v546q0 51 -13 93.5t-44 82t-92.5 62.5t-149.5 23t-150 -23t-92.5 -63t-43 -82t-12.5 -93v-546zM1280 725h597v128q0 57 -16 105t-50 88t-93 62.5t-139 22.5q-71 0 -125.5 -17.5t-86.5 -45t-52.5 -65.5t-27.5 -74t-7 -76v-128z" />
<glyph unicode="&#x178;" d="M85 0zM907 1962h213v-128q0 -19 -29 -30.5t-77 -11.5q-46 0 -76.5 13t-30.5 29v128zM395 1962h213v-128q0 -19 -29 -30.5t-77 -11.5q-46 0 -76.5 13t-30.5 29v128zM371 1621l444 -874h11l443 874h96l-490 -964v-657h-256v570l-534 1051h286z" />
<glyph unicode="&#x2c6;" horiz-adv-x="896" d="M497 1739l269 -271l-90 -92l-62 64q-40 43 -89 79.5t-77 52.5q-23 -13 -80.5 -58t-85.5 -74l-62 -64l-90 92l269 271h98z" />
<glyph unicode="&#x2da;" horiz-adv-x="1237" d="M559 1451q75 0 120.5 -47t45.5 -118v-12q0 -71 -45.5 -118t-120.5 -47h-30q-75 0 -120.5 47t-45.5 118v12q0 71 45.5 118t120.5 47h30zM544 1173q49 0 72.5 26t23.5 81q0 107 -96 107t-96 -107q0 -55 23.5 -81t72.5 -26z" />
<glyph unicode="&#x2dc;" horiz-adv-x="1301" d="M602 1423q-56 34 -92 34q-14 0 -28 -3.5t-23.5 -6.5t-21 -12.5t-17 -13.5t-16.5 -18.5t-13.5 -17t-14 -19.5t-11.5 -18l-11 -17l-139 88l107 104q25 24 43.5 38t56.5 29.5t79 15.5q21 0 41.5 -6.5t32.5 -12t40.5 -23t41.5 -24.5l88 -49q62 -36 93 -36q16 0 29.5 3.5 t26 11.5t21.5 14t20 20t16 20t16 22t14 20l11 17l137 -90l-105 -104q-25 -23 -44 -38t-57 -30t-80 -15q-20 0 -40.5 6.5t-30 11t-41.5 23.5t-42 25z" />
<glyph unicode="&#x2000;" horiz-adv-x="1034" />
<glyph unicode="&#x2001;" horiz-adv-x="2069" />
<glyph unicode="&#x2002;" horiz-adv-x="1034" />
<glyph unicode="&#x2003;" horiz-adv-x="2069" />
<glyph unicode="&#x2004;" horiz-adv-x="689" />
<glyph unicode="&#x2005;" horiz-adv-x="517" />
<glyph unicode="&#x2006;" horiz-adv-x="344" />
<glyph unicode="&#x2007;" horiz-adv-x="344" />
<glyph unicode="&#x2008;" horiz-adv-x="258" />
<glyph unicode="&#x2009;" horiz-adv-x="413" />
<glyph unicode="&#x200a;" horiz-adv-x="114" />
<glyph unicode="&#x2010;" horiz-adv-x="982" d="M811 768v-170h-640v170h640z" />
<glyph unicode="&#x2011;" horiz-adv-x="982" d="M811 768v-170h-640v170h640z" />
<glyph unicode="&#x2012;" horiz-adv-x="982" d="M811 768v-170h-640v170h640z" />
<glyph unicode="&#x2013;" horiz-adv-x="1024" d="M939 768v-170h-854v170h854z" />
<glyph unicode="&#x2014;" horiz-adv-x="2048" d="M1963 768v-170h-1878v170h1878z" />
<glyph unicode="&#x2018;" horiz-adv-x="426" d="M53 1299zM53 1341.97v171q1 24 41 66.0029q40 42.002 156 148.01q23 21.001 36 33.002l55 -63.9971q-98 -105.006 -98 -149.006q0 -23 33 -63.498t33 -53.498v-88q0 -11 -1 -16t-6.5 -12.5q-5.5 -7.50098 -19.5 -10.501q-14 -3.00098 -37 -3.00293l-128 -0.0078125 q-44 -0.00195312 -54 8.49707t-10 33.499z" />
<glyph unicode="&#x2019;" horiz-adv-x="426" d="M86 1342zM374 1760v-171q-1 -24 -41 -66t-156 -148q-23 -21 -36 -33l-55 64q98 105 98 149q0 23 -33 63.5t-33 53.5v88q0 11 1 16t6.5 12.5t19.5 10.5t37 3h128q44 0 54 -8.5t10 -33.5z" />
<glyph unicode="&#x201a;" horiz-adv-x="426" d="M86 0zM374 171v-171q-1 -24 -41 -66t-156 -148q-23 -21 -36 -33l-55 64q98 105 98 149q0 23 -33 63.5t-33 53.5v88q0 11 1 16t6.5 12.5t19.5 10.5t37 3h128q44 0 54 -8.5t10 -33.5z" />
<glyph unicode="&#x201c;" horiz-adv-x="768" d="M53 1299zM394 1341.97v171q1 24 41 66.0029q40 42.002 156 148.01q23 21.001 36 33.002l55 -63.9971q-98 -105.006 -98 -149.006q0 -23 33 -63.498t33 -53.498v-88q0 -11 -1 -16t-6.5 -12.5q-5.5 -7.50098 -19.5 -10.501q-14 -3.00098 -37 -3.00293l-128 -0.0078125 q-44 -0.00195312 -54 8.49707t-10 33.499zM53 1341.97v171q1 24 41 66.0029q40 42.002 156 148.01q23 21.001 36 33.002l55 -63.9971q-98 -105.006 -98 -149.006q0 -23 33 -63.498t33 -53.498v-88q0 -11 -1 -16t-6.5 -12.5q-5.5 -7.50098 -19.5 -10.501 q-14 -3.00098 -37 -3.00293l-128 -0.0078125q-44 -0.00195312 -54 8.49707t-10 33.499z" />
<glyph unicode="&#x201d;" horiz-adv-x="768" d="M54 1342zM683 1760v-171q-1 -24 -41 -66t-156 -148q-23 -21 -36 -33l-55 64q98 105 98 149q0 23 -33 63.5t-33 53.5v88q0 11 1 16t6.5 12.5t19.5 10.5t37 3h128q44 0 54 -8.5t10 -33.5zM342 1760v-171q-1 -24 -41 -66t-156 -148q-23 -21 -36 -33l-55 64q98 105 98 149 q0 23 -33 63.5t-33 53.5v88q0 11 1 16t6.5 12.5t19.5 10.5t37 3h128q44 0 54 -8.5t10 -33.5z" />
<glyph unicode="&#x201e;" horiz-adv-x="768" d="M96 0zM683 171v-171q-1 -24 -41 -66t-156 -148q-23 -21 -36 -33l-55 64q98 105 98 149q0 23 -33 63.5t-33 53.5v88q0 11 1 16t6.5 12.5t19.5 10.5t37 3h128q44 0 54 -8.5t10 -33.5zM384 171v-171q-1 -24 -41 -66t-156 -148q-23 -21 -36 -33l-55 64q98 105 98 149 q0 23 -33 63.5t-33 53.5v88q0 11 1 16t6.5 12.5t19.5 10.5t37 3h128q44 0 54 -8.5t10 -33.5z" />
<glyph unicode="&#x2022;" horiz-adv-x="768" d="M171 725q0 88 62.5 151t150.5 63t150.5 -63t62.5 -151t-62.5 -150.5t-150.5 -62.5t-150.5 62.5t-62.5 150.5z" />
<glyph unicode="&#x2026;" horiz-adv-x="1280" d="M128 0zM1152 171v-171q0 -18 -2.5 -25t-16.5 -12.5t-45 -5.5h-128q-42 0 -53 9t-11 34v171q0 11 1 16t6.5 12.5t19.5 10.5t37 3h128q44 0 54 -9.5t10 -32.5zM768 171v-171q0 -18 -2.5 -25t-16.5 -12.5t-45 -5.5h-128q-42 0 -53 9t-11 34v171q0 11 1 16t6.5 12.5 t19.5 10.5t37 3h128q44 0 54 -9.5t10 -32.5zM384 171v-171q0 -18 -2.5 -25t-16.5 -12.5t-45 -5.5h-128q-42 0 -53 9t-11 34v171q0 11 1 16t6.5 12.5t19.5 10.5t37 3h128q44 0 54 -9.5t10 -32.5z" />
<glyph unicode="&#x202f;" horiz-adv-x="413" />
<glyph unicode="&#x2039;" horiz-adv-x="661" d="M85 615l389 429l102 -105l-58.5 -58.5l-46 -46t-33 -35t-30.5 -36t-26.5 -37t-34 -49.5t-40.5 -64v-36q16 -21 46 -62.5t38.5 -53t30.5 -39.5t39.5 -47t46 -49.5t68.5 -70.5l-102 -103l-389 429v34z" />
<glyph unicode="&#x203a;" horiz-adv-x="660" d="M575 615v-34l-388 -429l-102 103q40 40 68 70t46.5 50t39 46.5t30.5 40t38 52.5t46 63v36l-40 64t-34 50t-26.5 36.5t-31 36t-32.5 34.5t-46 46.5t-58 58.5l102 105z" />
<glyph unicode="&#x205f;" horiz-adv-x="517" />
<glyph unicode="&#x20ac;" horiz-adv-x="1536" d="M907 1621h40q85 0 224 -32t194 -59l-42 -99l-192 62q-127 43 -192 43q-76 0 -140.5 -40.5t-111 -111.5t-78 -162t-48.5 -198h378l-43 -85h-346q-6 -67 -6 -139v-32h352l-43 -85h-305q10 -125 39.5 -234t77 -196.5t118.5 -138t156 -50.5q65 0 192 43l192 64l42 -98 q-56 -28 -195 -61t-223 -33h-40q-112 0 -208.5 38t-167.5 103.5t-125 155t-85 192.5t-42 215h-38h-156l43 85h126h19v30q0 40 9 141h-154l43 85h123q20 99 55.5 186.5t89.5 163.5t122 130.5t157 85.5t189 31z" />
<glyph unicode="&#x2122;" d="M683 951l17 670h34l279 -492l278 492h36l17 -670h-90l-12 455h-9l-183 -322l-58 -105l-241 425l-13 -453h-55zM96 1621h499v-55h-205v-615h-89v615h-205v55z" />
<glyph unicode="&#xe000;" horiz-adv-x="1195" d="M0 1195h1195v-1195h-1195v1195z" />
<glyph unicode="&#xf054;" horiz-adv-x="512" d="M154 1600l273 55v-983h-171v789q0 43 -32 43q-9 0 -58 -9l-12 -2v107z" />
<glyph unicode="&#xf055;" horiz-adv-x="753" d="M689 672h-636v96l2 2q52 55 115 120.5t97 100t76 79.5t61.5 67.5t43.5 53t33.5 48.5t19.5 42t12.5 44t2.5 45q0 88 -46.5 143t-145.5 55q-33 0 -68 -11l-124 -38l-27 79l8 4q34 18 104 34.5t124 16.5h81q114 0 190.5 -78.5t76.5 -175.5q0 -49 -6.5 -87t-25.5 -75 t-39.5 -65.5t-62 -71t-80 -78t-106.5 -101t-128 -125.5h448v-124z" />
<glyph unicode="&#xf056;" horiz-adv-x="810" d="M689 1047v-119q0 -28 -9 -62t-34 -75t-62.5 -74t-101.5 -55t-143 -22h-23q-42 0 -118.5 22t-146.5 57l39 83l119 -51q72 -26 111 -26q94 0 144 52t50 104v137q0 59 -29.5 93.5t-77.5 34.5h-98v89h41q46 0 79.5 50.5t33.5 92.5v53q0 25 -1 39.5t-8.5 35.5t-21 32.5 t-40.5 20.5t-66 9q-31 0 -66 -11l-119 -51l-39 83q129 64 237 64q55 0 99 -9.5t72 -23.5t48.5 -36.5t30.5 -42t15.5 -47t6.5 -44t1 -40.5v-19q0 -40 -27.5 -87.5t-74.5 -72.5q77 -13 128 -64t51 -120z" />
<glyph horiz-adv-x="2133" d="M0 0z" />
</font>
</defs>
</svg>
