<?xml version="1.0" standalone="no"?>
<!DOCTYPE svg PUBLIC "-//W3C//DTD SVG 1.1//EN" "http://www.w3.org/Graphics/SVG/1.1/DTD/svg11.dtd" >
<svg xmlns="http://www.w3.org/2000/svg">
<metadata></metadata>
<defs>
<font id="snicklesregular" horiz-adv-x="1014" >
<font-face units-per-em="2048" ascent="1638" descent="-410" />
<missing-glyph horiz-adv-x="442" />
<glyph horiz-adv-x="2048" />
<glyph horiz-adv-x="2048" />
<glyph unicode="&#xd;" horiz-adv-x="508" />
<glyph unicode=" "  horiz-adv-x="442" />
<glyph unicode="&#x09;" horiz-adv-x="442" />
<glyph unicode="&#xa0;" horiz-adv-x="442" />
<glyph unicode="!" horiz-adv-x="448" d="M95 933q-53 -214 -68 -273q-67 -253 -64 -246q-9 -22 33 -23q25 -1 52 4q109 20 126 57q7 17 63 247q13 52 36 143q25 102 35 143q84 339 103 560q1 10 -32 11q-31 2 -72 -6q-106 -20 -110 -62q-17 -211 -102 -555zM-31 73q15 -30 115 -3q31 8 59 21q48 22 40 39 q-70 137 -74 148q-14 30 -115 3q-112 -30 -99 -60q5 -11 74 -148z" />
<glyph unicode="&#x22;" horiz-adv-x="1219" d="M56 1391q-25 -95 -107 -163q-25 -21 4 -29q22 -7 46 -5q91 8 143 51q92 76 124 181q35 114 -18 215q-20 36 -124 2q-40 -13 -67 -30q-29 -18 -23 -30q49 -91 22 -192zM406 1391q-25 -95 -107 -163q-25 -21 4 -29q22 -7 46 -5q91 8 143 51q92 76 124 181q35 114 -18 215 q-20 36 -124 2q-40 -13 -67 -30q-29 -18 -23 -30q49 -91 22 -192z" />
<glyph unicode="#" horiz-adv-x="1336" />
<glyph unicode="$" />
<glyph unicode="%" horiz-adv-x="1610" />
<glyph unicode="&#x26;" horiz-adv-x="799" d="M108 277q-14 -14 -32 -30q-6 -5 -17 -13q0 -1 -1 -2q-1 0 -2 -1l-4 -3q-8 2 -13 5q-91 37 -107 154q-16 112 33 221q46 103 137 175q35 -111 147 -327q-43 -64 -82 -113q-25 -32 -59 -66zM365 1325q11 14 30 32q66 -51 25 -156q-31 -83 -122 -173q-8 -7 -19 -18 q-7 78 6 148q15 85 80 167zM473 803q-42 -51 -91 -129q-60 129 -85 230q15 8 27 16q110 66 183 142q89 92 123 176q49 120 -35 191q-86 73 -276 -11q-97 -42 -174 -144q-117 -153 -67 -400q-131 -77 -188 -123q-90 -74 -136 -185q-46 -110 -36 -227t102 -170q80 -45 203 -22 q164 32 296 168q60 -127 85 -230q8 -35 115 -7q106 28 98 64q-33 134 -151 363q31 48 81 130q57 93 68 111q15 24 30 46q5 7 12 17q7 9 8 11q20 23 -5 31q-16 5 -45 2q-108 -9 -142 -50z" />
<glyph unicode="'" horiz-adv-x="1219" d="M96 1391q-25 -95 -107 -163q-25 -21 4 -29q22 -7 46 -5q91 8 143 51q92 76 124 181q35 114 -18 215q-20 36 -124 2q-40 -13 -67 -30q-29 -18 -23 -30q49 -91 22 -192z" />
<glyph unicode="(" horiz-adv-x="758" />
<glyph unicode=")" horiz-adv-x="758" />
<glyph unicode="*" horiz-adv-x="1024" />
<glyph unicode="+" />
<glyph unicode="," horiz-adv-x="407" d="M93 21q-25 -96 -107 -163q-25 -21 4 -30q22 -6 46 -4q91 8 143 51q92 75 124 181q35 114 -18 214q-20 37 -124 3q-40 -13 -67 -30q-29 -18 -23 -30q49 -92 22 -192z" />
<glyph unicode="-" horiz-adv-x="670" />
<glyph unicode="." horiz-adv-x="1219" d="M89 73q15 -30 115 -3q31 8 59 21q48 22 40 39q-70 137 -74 148q-14 30 -115 3q-112 -30 -99 -60q5 -11 74 -148z" />
<glyph unicode="/" horiz-adv-x="569" />
<glyph unicode="0" horiz-adv-x="641" d="M352 558q-60 -288 -173 -399q-13 14 -24 38q-27 61 -25 198q4 247 88 520q73 238 175 361q11 -35 18 -89q10 -87 -2 -231q-18 -212 -57 -398zM407 1416q-73 -27 -70 -50q-37 -13 -63 -34q-144 -114 -241 -379q-80 -217 -108 -481q-12 -114 -8 -207q6 -124 59 -177 q27 -27 90 -30q79 -4 200 46q100 41 176 158q69 107 115 306q31 133 49 293q24 205 24 302q-2 194 -85 266q-30 25 -138 -13z" />
<glyph unicode="1" horiz-adv-x="557" d="M303 1386q-46 -15 -64 -18q-102 -13 -143 -51q-23 -21 5 -30q21 -6 45 -3q50 6 120 26q-54 -211 -139 -600q-90 -417 -136 -600q-9 -36 85 -19q45 8 82 25q41 19 44 33q45 178 142 624q86 399 146 624q7 27 -47 24q-32 -2 -67 -11q-18 -5 -73 -24z" />
<glyph unicode="2" horiz-adv-x="700" d="M384 163q4 1 6 1q-4 -1 -6 -1v0zM431 594q190 248 252 525q28 122 -17 210q-51 100 -204 76q-170 -28 -274 -147q-73 -84 -127 -221q-47 -121 -74 -269q-6 -36 86 -20q44 8 81 26q42 19 44 32q52 290 175 457q19 26 44 49q3 -2 5 -3q64 -47 57 -183q-5 -97 -81 -272 q-53 -122 -144 -251q-73 -104 -185 -223q-27 -28 -112 -108q-70 -67 -108 -111q-21 -25 -39 -51q-14 -19 32 -21q34 -2 53 2q37 8 104 4q10 -1 132 -13q172 -18 316 32q24 8 48 23q37 23 16 36q-35 22 -129 -10q-4 0 -8 -1q-11 0 -45 1q-28 1 -118 11q-94 10 -165 7 q34 41 94 97q80 76 98 93q106 109 193 223z" />
<glyph unicode="3" horiz-adv-x="681" d="M691 1271q-15 92 -88 147q-71 56 -217 16q-201 -55 -308 -281q-66 -140 -48 -232q7 -34 114 -7t100 64q-26 133 107 320q19 27 45 52q31 -20 54 -59q77 -130 -19 -388q-84 -223 -211 -329q-25 -14 -47 -32q-18 -15 -4 -26q11 -8 31 -8q30 -1 61 6q8 -13 20 -44 q25 -66 21 -123q-8 -118 -107 -211l-10 -10q-30 13 -51 43q-62 90 12 209q13 20 -32 22q-30 1 -53 -3q-101 -18 -126 -58q-45 -72 -39 -149q6 -85 75 -130q63 -42 186 -20q136 24 232 113q68 63 103 148q37 91 20 177q-20 105 -75 132q1 0 0 0q89 84 168 247q116 237 86 414 z" />
<glyph unicode="4" horiz-adv-x="588" d="M413 985q-41 -19 -44 -33q-26 -113 -107 -397q-25 -5 -45 -8q-7 -2 -16 -3h-1q-2 0 -14 -1q-13 -1 -15 -1h-14q-12 3 -11 3q-11 5 -13 21q-4 28 21 117q7 28 38 123q10 29 38 159q66 303 128 469q9 22 -33 24q-23 0 -52 -5q-111 -20 -126 -58q-63 -165 -137 -509 q-11 -53 -39 -144q-30 -100 -40 -144q-21 -84 -7 -106q26 -39 120 -36q80 2 195 25l1 1h1q-70 -250 -95 -418q-3 -18 53 -13q38 3 62 9q93 25 99 61q24 164 94 410q40 16 52 39q11 22 -34 23q83 287 108 398q8 36 -85 19q-45 -8 -82 -25z" />
<glyph unicode="5" horiz-adv-x="743" d="M585 798q-87 64 -255 25q-32 -8 -62 -19q12 236 73 457q61 -5 120 -13q70 -9 150 28q20 10 37 27q21 23 -11 27q-142 19 -268 23q7 21 5 14q13 37 -85 20q-113 -21 -126 -58q2 6 -3 -10q-9 -4 -10 -5q-21 -13 -23 -26q-1 -13 17 -18q-92 -301 -93 -630q0 -26 87 -10 q90 16 116 47q43 49 78 73q27 -7 52 -24q31 -21 55 -61q92 -154 -35 -369q-48 -81 -102 -140q-19 -21 -41 -40q-47 26 -69 107q-12 43 -8 92q2 13 10 34q2 7 12 19q2 1 -16 -8q24 12 37 26q20 22 -11 28q-67 15 -149 -28q-107 -54 -97 -178q10 -119 97 -167q102 -57 284 25 q94 41 183 151q178 220 152 409q-15 110 -101 172z" />
<glyph unicode="6" horiz-adv-x="687" d="M322 620q1 0 2 1q4 -3 7 -6q3 -1 6 -5q2 -1 3 -2v-1q39 -52 14 -168q-24 -111 -89 -212q-11 -18 -27 -38q-4 4 -3 3q-29 31 -54 106q-27 82 -13 274q0 -2 0 2q75 0 145 41q-1 -1 9 5zM311 626h-4h3h1zM346 631v0q3 1 0 0zM465 1501q-122 -27 -200 -91q-95 -79 -174 -274 q-66 -165 -106 -385q-37 -202 -36 -362q1 -149 60 -239q71 -109 238 -59q139 42 222 163q131 191 106 358q-19 118 -169 100q-104 -13 -233 -80q17 158 59 324q55 212 134 352q38 67 78 106q49 -27 49 -134q1 -79 -35 -187q-12 -38 86 -20q113 21 125 58q80 243 -5 339 q-56 62 -199 31z" />
<glyph unicode="7" horiz-adv-x="553" d="M421 1398q-32 -3 -98 -12q-64 -8 -97 -10q-95 -8 -144 -51q-23 -21 5 -30q20 -6 46 -4q262 20 283 15q-67 -246 -205 -584q-35 -5 -86 -15q-105 -19 -125 -57q-11 -22 32 -24q28 -1 53 4q55 10 94 15q-266 -637 -327 -823q-12 -37 85 -19q114 21 126 58q66 202 311 786 q27 -5 49 -12q54 -17 150 28q25 12 38 25q18 20 -11 29q-81 25 -186 25q149 361 218 618q4 15 -18 22q-78 26 -193 16z" />
<glyph unicode="8" horiz-adv-x="746" d="M365 166q-1 -2 0 -1h-1q-8 0 -23 3q-50 8 -102 46q-91 67 -115 203q-30 172 125 339q28 -54 44 -88q90 -196 107 -330q10 -77 -9 -129q-10 -27 -26 -43zM381 1026q-13 -20 32 -22q30 -1 53 3q101 18 126 57q67 107 103 217q46 142 2 221q-61 108 -235 82 q-160 -23 -269 -127q-125 -118 -106 -290q13 -118 109 -308q-287 -211 -291 -440q-2 -131 84 -228q86 -98 215 -110t272 48q88 37 122 109q47 100 -18 304q-41 128 -141 321q-137 265 -142 386q-6 141 102 237q9 8 17 14h2q18 -5 45 -31q68 -63 24 -217q-30 -103 -102 -219 q-3 -5 -4 -7z" />
<glyph unicode="9" horiz-adv-x="718" d="M375 800q-41 -19 -44 -32v-4q-7 5 -12 11q-38 41 -51 138q-23 185 78 342q14 22 31 39q4 -1 6 -2q30 -12 56 -41q75 -83 52 -315q-6 -52 -17 -108q-7 -1 -17 -3q-45 -8 -82 -25zM403 1316q-4 -2 -1 -1zM538 1380q-113 28 -260 -39q-85 -38 -143 -124q-98 -146 -82 -348 q7 -89 48 -146q60 -86 199 -73q79 8 139 36q-7 -25 -14 -45q-43 -134 -86 -206q-45 -72 -142 -182q-44 -49 -85 -86q-32 -4 -81 -22q-95 -34 -64 -59q25 -21 84 -16q74 5 147 40q72 35 155 120q133 135 201 250q58 99 110 294q58 223 43 381q-19 189 -169 225z" />
<glyph unicode=":" horiz-adv-x="389" d="M-31 73q15 -30 115 -3q31 8 59 21q48 22 40 39q-70 137 -74 148q-14 30 -115 3q-112 -30 -99 -60q5 -11 74 -148zM133 817q15 -30 115 -3q30 8 59 21q48 22 39 39q-69 137 -74 148q-13 31 -115 3q-111 -30 -98 -60q5 -11 74 -148z" />
<glyph unicode=";" horiz-adv-x="401" d="M3 21q-25 -96 -107 -163q-25 -21 4 -30q22 -6 46 -4q91 8 143 51q92 75 124 181q35 114 -18 214q-20 37 -124 3q-40 -13 -67 -30q-29 -18 -23 -30q49 -92 22 -192zM143 817q16 -30 116 -3q30 8 59 21q48 22 39 39q-69 137 -74 148q-13 31 -115 3q-112 -30 -98 -60 q4 -11 73 -148z" />
<glyph unicode="&#x3c;" />
<glyph unicode="=" />
<glyph unicode="&#x3e;" />
<glyph unicode="?" horiz-adv-x="805" d="M230 1326q35 49 131 107q7 4 19 11q3 1 4 2q14 7 32 15l-6 -2q-1 -1 -13 -4q16 4 36 12q7 1 20 5q3 1 2 0q8 2 24 5q1 0 7 1q12 1 10 1h24q17 -1 33 -8q116 -53 -120 -293q-265 -272 -316 -340q-120 -160 -94 -315q6 -34 113 -7q107 26 101 64q-20 118 53 241 q47 78 162 196q244 250 288 309q75 100 61 164q-18 76 -166 75q-114 -1 -265 -48q-5 -2 -14 -5q-4 -2 -12 -4q-8 -3 -46 -18q-32 -14 -87 -45q-112 -63 -173 -132q-95 -107 -8 -179q30 -26 137 13q94 34 64 59q-55 46 -1 120zM31 36q15 -30 115 -3q113 30 98 61 q-14 30 -66 169q-12 31 -115 3q-110 -29 -98 -60q51 -139 66 -170z" />
<glyph unicode="@" horiz-adv-x="2019" />
<glyph unicode="A" horiz-adv-x="784" d="M227 569q60 177 127 332q24 57 104 237q-3 -96 -30 -571q-25 -2 -54 -5q-15 -1 -147 7zM556 1547q-94 -17 -125 -58q-29 -37 -143 -296q-20 -47 -73 -165q-46 -105 -72 -165q-61 -140 -116 -297q-135 -16 -230 -74q-26 -16 -22 -31q4 -14 34 -15q76 -2 145 37q21 3 28 3 h18q-47 -143 -94 -311q-10 -37 86 -20q44 8 81 26q40 18 44 32q39 140 79 263q43 -3 72 1q103 11 155 2q-16 -306 -16 -521q0 -12 33 -13q32 -2 74 7q107 22 107 64q0 252 30 757q29 504 29 757q0 13 -41 13q-27 14 -83 4z" />
<glyph unicode="B" horiz-adv-x="734" d="M361 297q-6 -5 -21 -15l-16 -10q-16 -10 -15 -9q-13 -6 -30 -14q-3 -1 -12 -5q-1 -1 -16 -7q-2 0 -13 -4q-11 -3 -12 -4q-13 -4 -28 -7q-4 -2 -25 -5l-8 -2q4 0 -17 -2q-11 -1 -29 -2q4 0 -22 0q11 38 64 299q47 7 87 28q18 9 39 18l2 2h1q12 5 30 11q2 0 2 1h1q3 1 12 3 q11 3 12 3l12 2t12 1h1h7h7t8 -1q18 -4 34 -15q33 -22 33 -84q0 -69 -49 -134q-14 -19 -51 -48zM184 613q21 87 60 223q107 376 134 523q76 -75 85 -203q11 -147 -106 -339q-72 -117 -173 -204zM561 845q132 204 114 388q-17 169 -164 246q-150 79 -384 10q-107 -31 -99 -60 q10 -35 116 -4q26 8 19 6q9 1 10 2h4q6 1 10 1q-3 -6 -4 -13q-22 -178 -150 -623q-51 -179 -79 -308q-73 -340 -71 -334q-8 -26 44 -24q9 -6 28 -7q225 -8 463 105q236 112 256 292q20 187 -270 134q89 84 157 189z" />
<glyph unicode="C" horiz-adv-x="731" d="M475 1541q-140 -34 -234 -138q-148 -164 -211 -477q-43 -214 -57 -478q-2 -192 18 -263q40 -143 199 -151q91 -4 177 34q87 40 141 110q55 72 104 238q11 36 -85 19q-44 -8 -81 -25q-40 -19 -44 -33q-36 -122 -76 -194q-17 -30 -36 -52q-83 38 -101 172q-4 35 -2 213 q14 263 60 481q68 316 219 456q2 1 6 5q53 -36 67 -145q11 -89 -20 -224q-49 -215 -50 -221q-3 -18 53 -14q38 4 62 10q93 25 99 61q7 50 30 146q24 98 32 147q28 180 -34 272q-63 93 -236 51z" />
<glyph unicode="D" horiz-adv-x="641" d="M535 1568q-68 55 -199 49q-146 -6 -329 -106q-27 -14 -22 -29t34 -16q73 -2 151 40q2 1 5 3l18 9q6 2 17 7q4 2 20 7h1q1 1 1 0q1 1 4 1q5 0 11 -1h4l7 -1q12 -2 27 -7h1h1q4 -2 11 -5q8 -4 20 -12q19 -12 38 -32q29 -29 52 -85q87 -209 9 -568q-51 -232 -155 -418 q-52 -93 -111 -155q-26 -28 -57 -53q159 689 227 1260q1 10 -31 11q-32 2 -72 -6q-106 -19 -111 -62q-69 -588 -241 -1316q-9 -37 85 -20q44 8 81 26q29 13 38 22q39 6 95 29q229 96 373 438q133 314 127 629q-6 261 -130 361z" />
<glyph unicode="E" horiz-adv-x="588" d="M367 1486q-221 -72 -303 -322q-51 -154 -25 -342q13 -95 52 -154q-61 -31 -104 -78q-146 -161 -130 -339q10 -100 80 -160q58 -49 179 -45q122 4 225 68q110 67 154 174q9 22 -32 24q-25 1 -53 -4q-110 -20 -125 -58q-29 -71 -80 -114q-2 -2 -4 -3q-7 1 -8 1q-10 3 -22 9 q-24 11 -47 34q-42 42 -53 131q-14 116 78 258q12 18 27 35q31 -11 71 -14q59 -3 131 30q61 28 39 49q-42 41 -104 49q-6 8 -11 14q-30 44 -46 126q-28 145 -1 276q39 190 151 286q8 7 22 16h1q19 -1 16 0q85 -12 68 -100q-7 -36 85 -19q45 8 82 25q41 19 44 32 q20 107 -80 138q-104 33 -277 -23z" />
<glyph unicode="F" horiz-adv-x="578" d="M380 1460q1 2 2 8q2 5 2 8q10 37 -85 20q-44 -8 -81 -25q-40 -19 -44 -33q1 3 -7 -27q-28 -14 -37 -32q-10 -18 22 -22q-186 -701 -260 -1247q-2 -18 54 -13q37 3 62 10q93 25 98 60q32 240 85 501q-10 -1 145 11q94 6 143 50q23 21 -5 30q-19 6 -45 4q-165 -12 -223 -21 q61 294 155 646q149 27 250 14q70 -10 149 27q21 10 37 27q22 23 -10 27q-161 21 -407 -23z" />
<glyph unicode="G" horiz-adv-x="628" d="M414 570q2 1 6 4q-4 -3 -6 -4v0zM389 1497q-83 -37 -166 -154q-68 -95 -130 -221q-135 -271 -176 -607q-17 -137 -19 -233q-3 -137 60 -183q67 -49 233 8q95 34 182 118q75 71 121 194q21 57 30 111q8 56 -7 79q-26 41 -124 20q-106 -22 -196 -94q-26 -20 4 -29 q22 -6 46 -4q34 3 67 13q2 -40 -26 -122q-28 -80 -66 -138q-7 -10 -11 -14q-16 -19 -30 -33q-13 -13 -32 -29q-7 8 -15 21q-18 34 -22 104q-2 43 13 218q28 319 167 616q77 162 147 254q17 -43 19 -87q2 -56 -26 -77q-25 -20 5 -29q22 -7 45 -5q88 8 143 51q45 35 45 108 q0 62 -28 119q-55 112 -253 25z" />
<glyph unicode="H" horiz-adv-x="780" d="M639 1500q-41 -19 -44 -32q-29 -125 -95 -373t-95 -374q-95 -12 -194 -34q30 146 90 399q68 284 92 398q8 36 -85 19q-44 -8 -81 -25q-41 -19 -44 -32q-25 -112 -95 -409q-61 -259 -92 -410q-20 -7 -25 -8q-23 -8 -47 -24q-37 -23 -17 -36q25 -15 74 -5 q-47 -250 -65 -459q-1 -10 32 -11q31 -2 72 6q106 20 109 62q18 210 67 462q30 7 81 16q55 9 110 14q-68 -309 -81 -556q0 -11 33 -12q31 -2 72 6q107 21 109 63q12 229 72 510q49 10 87 34q26 16 22 30t-34 15q-25 1 -58 1q31 134 98 386q70 262 99 385q8 36 -85 19 q-45 -8 -82 -25z" />
<glyph unicode="I" horiz-adv-x="364" d="M35 722q-35 -181 -63 -312q-57 -271 -58 -290q0 -12 33 -13q32 -2 73 6q107 22 108 64t24 132q11 43 34 153q25 117 63 312q87 450 123 610q8 37 -86 20q-44 -8 -81 -26q-41 -19 -44 -32q-36 -160 -126 -624z" />
<glyph unicode="J" horiz-adv-x="410" d="M98 899q-67 -440 -96 -620q-45 -183 -89 -305q-36 -101 -77 -176q-15 -27 -33 -51q-6 11 -12 25q-41 98 -8 188q14 37 -85 19q-111 -20 -125 -57q-32 -87 0 -192q29 -99 134 -100q140 -2 245 85q50 41 100 134q68 125 130 353q23 82 60 326q124 742 137 1105q0 11 -33 13 q-31 1 -72 -7q-107 -21 -108 -63q-10 -284 -68 -677z" />
<glyph unicode="K" horiz-adv-x="752" d="M731 1466q-42 -20 -44 -33q-37 -189 -219 -435q-98 -134 -244 -287q15 82 21 114q76 391 196 561q14 20 -32 22q-31 2 -53 -2q-97 -18 -126 -58q-120 -170 -198 -573q-57 -292 -58 -298q-70 -313 -72 -348q-1 -10 32 -12q31 -1 72 7q107 20 110 63q3 42 68 326 q48 -91 87 -215q59 -187 57 -341q0 -12 34 -13q31 -2 73 7q107 21 107 63q2 149 -57 341q-56 180 -139 301q194 195 326 370q187 249 225 446q8 36 -85 19q-44 -8 -81 -25z" />
<glyph unicode="L" horiz-adv-x="429" d="M96 83q125 672 288 1329q10 36 -85 19q-44 -8 -81 -25q-41 -19 -44 -33q-164 -656 -290 -1335q-13 -13 -3 -21q0 -3 -1 -12q-1 -7 -2 -12q-3 -24 91 -8q72 -17 205 -13q89 2 151 40q26 16 23 31q-4 15 -35 15q-152 -4 -217 25z" />
<glyph unicode="M" horiz-adv-x="1088" d="M906 1401q-102 -18 -126 -57q-128 -217 -265 -580v14q0 126 -24 628q-1 13 -35 15q-21 14 -82 3q-104 -19 -125 -58q-312 -572 -401 -1280q-2 -18 54 -13q36 3 62 10q94 25 98 60q59 474 230 903q8 -180 9 -311q1 -227 -11 -315q-27 -189 -28 -312q0 -30 100 -6 q99 25 112 54q70 154 175 438q115 312 169 440q6 -182 -29 -467q-49 -397 -54 -466q-1 -11 31 -12t73 6q106 20 110 63q8 112 34 309q28 221 37 308q35 363 -27 617q-6 24 -87 9z" />
<glyph unicode="N" horiz-adv-x="802" d="M747 1583q-40 -19 -44 -32q-129 -415 -220 -916q-12 74 -29 172q-43 259 -50 316q-22 188 -50 246q0 1 -2 3l1 2v1q6 36 -86 19q-44 -8 -81 -25q-42 -20 -44 -33q-27 -163 -121 -605q-80 -381 -110 -608q-2 -18 54 -13q37 3 62 10q94 25 98 60q29 224 110 602 q4 -22 5 -33q32 -189 58 -342q38 -219 71 -314q8 -21 58 -17q46 4 95 23q86 24 91 59q113 826 301 1431q12 37 -85 19q-45 -8 -82 -25z" />
<glyph unicode="O" horiz-adv-x="665" d="M372 558q-60 -288 -173 -399q-13 14 -24 38q-27 61 -25 198q4 247 88 520q73 238 175 361q11 -35 18 -89q10 -87 -2 -231q-18 -212 -57 -398zM427 1416q-73 -27 -70 -50q-37 -13 -63 -34q-144 -114 -241 -379q-80 -217 -108 -481q-12 -114 -8 -207q6 -124 59 -177 q27 -27 90 -30q79 -4 200 46q100 41 176 158q69 107 115 306q31 133 49 293q24 205 24 302q-2 194 -85 266q-30 25 -138 -13z" />
<glyph unicode="P" horiz-adv-x="796" d="M680 1508q-96 57 -226 59q-148 2 -332 -54q-106 -32 -99 -61q10 -35 116 -3q28 9 56 16q1 0 8 2q8 2 10 2q9 2 19 4q9 2 25 4q1 0 15 2q10 1 29 2h14q106 0 188 -57q89 -63 122 -186q28 -104 11 -226q-36 -255 -210 -378l-15 -10q2 1 -1 0q-2 -1 -5 -2q-8 0 -8 -1 q-15 0 -27 2q-99 16 -110 119q-1 8 -15 12l3 12q1 8 2 11q79 463 126 612q12 37 -85 20q-45 -8 -82 -25q-39 -19 -44 -33q-47 -149 -129 -625q-34 -199 -67 -311q-65 -226 -71 -299q-1 -11 32 -12q31 -1 72 6q106 20 110 63q5 61 72 293q10 35 20 75q93 -14 217 16 q250 59 372 318q114 243 34 456q-43 116 -147 177z" />
<glyph unicode="Q" horiz-adv-x="752" d="M226 899q74 276 193 413q11 12 30 28q32 -53 45 -134q22 -134 -15 -328q-71 -382 -268 -629q-6 -7 -11 -14q-27 -7 -48 -16q-10 20 -16 54q-9 53 12 209q32 242 78 417zM607 -238q-4 -3 -9 0l2 -1q-7 2 -19 5q-24 8 -54 33q-49 40 -91 127q-20 41 -91 262q54 44 107 118 q85 118 155 298q69 175 98 355q30 185 1 319q-30 133 -121 191q-40 25 -139 -1q-22 -5 -49 -19q-40 -21 -20 -34q-3 2 4 -3q-31 -8 -53 -21q-165 -96 -262 -346q-68 -175 -115 -456q-8 -48 -26 -182q-20 -143 2 -211q39 -116 214 -92q57 -185 99 -259q49 -87 114 -125 q89 -51 249 -26q110 17 104 52q-5 30 -100 16z" />
<glyph unicode="R" horiz-adv-x="774" d="M379 665q-28 -29 -63 -58l-18 -14q-32 13 -69 14q82 415 103 720q39 -20 74 -48q75 -59 109 -152q33 -91 17 -188q-22 -136 -153 -274zM99 1366q-1 -1 -2 -1zM488 401q-98 120 -115 138q67 30 130 80q176 138 228 306q36 118 6 229q-31 113 -122 192q-182 157 -485 95 q-19 -4 -48 -11q-108 -27 -99 -61q9 -30 113 -4q10 2 17 3q6 1 11 1q-17 -400 -198 -1231q-8 -37 85 -20q45 8 82 26q41 19 44 32q43 199 57 265h1l1 -1q16 -19 116 -143q193 -240 305 -324q33 -25 138 13q27 9 48 23q36 22 16 36q-107 80 -331 356z" />
<glyph unicode="S" horiz-adv-x="784" d="M801 1199q35 203 -38 288q-42 50 -152 43q-137 -9 -268 -85q-183 -108 -272 -364q-90 -258 0 -415q43 -74 244 -145q83 -29 113 -46q64 -37 77 -91q14 -58 -36 -155q-26 -50 -67 -87q-17 -16 -40 -31q-11 -7 -14 -9q-9 -5 -18 -9q14 6 -4 -1q1 0 10 2q-6 -1 -13 -1 q-1 -1 -15 0q-7 0 -29 6q-52 12 -96 61q-32 36 -45 103q-15 72 18 96q29 21 26 31q-4 14 -38 15q-91 2 -151 -41q-57 -42 -68 -90q-12 -50 11 -112q40 -108 167 -145q130 -38 316 36q148 59 231 165q55 70 68 146q15 91 -41 148q-39 40 -121 70q-22 8 -68 23q-43 14 -62 22 q-78 31 -119 69q-44 42 -59 148q-29 210 110 437q61 100 135 150q7 5 21 13q-1 0 7 3q-2 0 4 2q-4 -2 2 0q-11 -3 -22 -4q3 0 1 0h3q8 -1 20 -5q2 -1 16 -10q10 -8 16 -15q17 -21 27 -58q17 -57 8 -151q-18 -193 -102 -332q-13 -21 32 -22q29 -2 53 3q102 18 126 57 q66 110 96 287z" />
<glyph unicode="T" horiz-adv-x="522" d="M379 1402q-14 17 -84 5q-14 -3 -31 -7q-156 -9 -308 -44q-108 -25 -98 -61q7 -29 113 -4q1 0 3 1q2 0 4 1q11 2 34 6q24 4 57 8q42 5 90 7q-207 -680 -265 -1201q-1 -9 32 -11q31 -1 72 6q106 20 110 63q55 493 248 1138q69 -6 133 -19q64 -12 150 28q23 10 37 26 q21 22 -10 28q-140 27 -287 30z" />
<glyph unicode="U" horiz-adv-x="703" d="M518 1332q-8 -57 -31 -276q-18 -172 -38 -277q-59 -316 -220 -501q-22 -25 -38 -42q-38 74 -44 251q-8 220 127 559q100 248 124 319q13 37 -85 20q-113 -21 -126 -58q-24 -68 -105 -273q-68 -173 -99 -278q-97 -327 -14 -575q15 -47 44 -70q34 -29 128 -12 q148 28 281 176q171 191 234 494q23 115 43 299q26 251 33 301q2 19 -54 14q-37 -3 -62 -10q-93 -25 -98 -61z" />
<glyph unicode="V" horiz-adv-x="703" d="M636 1411q-108 -27 -100 -64q15 -76 -10 -177q-8 -33 -25 -87q-20 -65 -26 -86q-54 -194 -89 -300q-50 -150 -95 -247q4 860 1 947q0 13 -34 14q-32 2 -74 -7q-107 -23 -106 -65q8 -217 3 -598q-6 -428 -3 -598q0 -26 87 -10q80 15 117 47q181 161 312 545q34 103 92 311 q80 287 64 368q-7 34 -114 7z" />
<glyph unicode="W" horiz-adv-x="1222" d="M714 212l2 2v0v0zM1159 1625q-107 -29 -97 -64q29 -107 34 -206q3 -71 -17 -226q-31 -231 -83 -397q-42 -135 -131 -305q3 4 -6 -13q-12 248 -12 1012q0 13 -32 15q-30 1 -72 -9q-104 -23 -110 -63q-54 -382 -142 -649q-73 -218 -173 -374q-39 173 -22 526q1 32 8 291 q4 181 62 269q13 20 -32 22q-31 1 -54 -3q-99 -18 -125 -58q-55 -83 -64 -254q-3 -52 -4 -149q-2 -101 -4 -148q-23 -494 70 -706q11 -24 87 -10q84 15 117 47q169 163 280 410q5 -228 18 -418q2 -24 68 -13q42 7 76 18q136 47 244 235q92 157 148 318q60 170 96 424 q24 164 23 240q0 105 -34 231q-10 36 -117 7z" />
<glyph unicode="X" horiz-adv-x="650" d="M684 1459q-215 -58 -345 -274q-1 -1 -2 -3t-2 -3q-5 23 -11 44q-48 181 -144 226q-44 20 -138 -13q-20 -8 -47 -25q-39 -25 -17 -35q87 -40 134 -218q26 -95 55 -338q-1 4 2 -14q-8 -21 -12 -29q-56 -148 -132 -287q-51 -93 -91 -161q-24 -40 -47 -75q-10 -15 -22 -32 q-9 -14 -17 -23q-66 -32 -40 -49q39 -25 148 13q54 18 85 53q37 41 96 138q47 78 92 160q73 -261 157 -393q22 -36 125 -1q40 14 67 31q28 18 22 27q-83 130 -159 401q-38 134 -57 273q42 111 60 154q107 258 216 357q17 16 37 29l6 3l2 1q103 28 94 60t-115 3z" />
<glyph unicode="Y" horiz-adv-x="777" d="M701 1559q-107 -26 -101 -64q27 -179 -6 -382q-39 -239 -149 -384q-22 -30 -59 -61q-10 -9 -26 -19q1 1 -11 -7h-1v0q-11 -2 -21 -5l-1 1h-2l-15 3q-1 0 -5 2q-1 0 -4 1q-87 39 -86 219q0 199 141 620q12 37 -86 20q-113 -21 -125 -58q-127 -379 -142 -588 q-14 -182 61 -260q40 -42 129 -46q21 -1 44 1q-8 -93 -85 -399q-9 -37 85 -20q45 8 82 25q41 19 44 33q79 314 88 415q6 3 7 3q232 97 322 424q74 267 35 519q-5 33 -113 7z" />
<glyph unicode="Z" horiz-adv-x="634" d="M431 1490q-253 -26 -405 -119q-26 -16 -22 -31q4 -14 34 -15q81 -2 151 41q19 11 14 8l14 6l14 5q2 1 3 1q9 3 16 4q0 1 8 2q8 2 10 3q15 3 33 6q21 4 58 7q119 12 224 -3q-110 -219 -408 -625q-295 -401 -416 -627q-12 -23 36 -24q57 -2 301 29q177 23 236 -15 q36 -24 138 13q24 9 47 23q37 23 17 36q-85 56 -305 33q-33 -4 -113 -24q-4 0 -26 -3q-16 -2 -37 -4q-1 0 -9 -1q119 216 417 621q291 398 403 624q9 17 -18 22q-220 28 -415 7z" />
<glyph unicode="[" horiz-adv-x="758" />
<glyph unicode="\" horiz-adv-x="569" />
<glyph unicode="]" horiz-adv-x="758" />
<glyph unicode="^" />
<glyph unicode="_" horiz-adv-x="1024" />
<glyph unicode="`" horiz-adv-x="1024" />
<glyph unicode="a" horiz-adv-x="693" d="M141 286q-6 13 -11 25q-32 90 -10 242q17 119 76 262q22 52 51 105q19 33 44 58q24 24 59 51l2 2q2 1 6 4q6 4 17 11l1 1q30 -25 25 -116q-1 -16 61 -11q-16 -79 -48 -211q-54 -130 -188 -311q-67 -91 -85 -112zM615 1018q-3 88 -57 112q-85 37 -236 -24 q-208 -83 -294 -240q-138 -256 -129 -504q4 -145 75 -191q33 -22 121 -10q82 12 151 60q39 27 79 69q-12 -82 -17 -156q-1 -10 32 -12q31 -1 72 7q106 20 109 63q12 182 102 553q54 133 59 261q0 20 -67 12z" />
<glyph unicode="b" horiz-adv-x="669" d="M322 457q-29 -50 -69 -107q-15 -20 -35 -46q-17 -21 -19 -23q-26 -30 -60 -62q-9 -8 -19 -16v1q-21 18 -7 54q20 56 21 57q10 128 67 345q46 179 80 342q0 -4 2 9q28 12 45 28q-3 -3 3 3q37 -18 68 -71q58 -104 28 -257q-24 -116 -105 -257zM489 1127q-81 23 -183 -8 q27 124 50 214q6 24 21 82q14 52 21 82q28 113 22 153q-5 32 -112 7q-107 -26 -101 -64q5 -36 -22 -147q-8 -31 -23 -89q-16 -62 -23 -90q-26 -103 -76 -345q-22 -103 -83 -341q-23 -89 -37 -164q-6 -31 -13 -78q-13 -86 -14 -88q-32 -79 -7 -108q29 -35 93 -41 q134 -13 285 99q145 107 267 333q149 279 67 474q-39 92 -132 119z" />
<glyph unicode="c" horiz-adv-x="678" d="M365 1104v0q1 0 1 1zM389 1176q-156 -26 -266 -125q-144 -128 -189 -406q-47 -290 33 -442q70 -135 291 -63q152 49 245 204q13 21 -32 23q-29 1 -53 -4q-101 -18 -125 -57q-28 -47 -59 -80q-5 -5 -14 -13q-27 18 -48 62q-36 74 -40 217q-3 113 19 229q23 120 72 221 q52 104 122 150l1 1h1q5 -2 12 -5q19 -8 40 -27q61 -54 61 -162q0 -80 -53 -140q-20 -23 5 -31q17 -5 45 -3q107 9 143 51q69 77 72 176q4 104 -67 177q-70 70 -216 47z" />
<glyph unicode="d" horiz-adv-x="712" d="M166 720q54 217 154 325q8 9 19 18q2 -1 5 -4q51 -45 64 -176q1 -14 36 -15q-22 -118 -58 -320q-41 -234 -57 -319q-32 -14 -48 -35l-4 -5q-13 6 -26 15q-73 46 -102 154q-36 142 17 362zM654 1603q-39 -19 -43 -33q-57 -188 -107 -414q-38 13 -88 8q-105 -11 -199 -65 q-165 -94 -248 -371q-77 -257 -31 -433q32 -123 135 -176q117 -61 285 11q17 1 42 5q44 8 81 25q41 20 44 33q223 1174 296 1415q11 37 -85 20q-45 -8 -82 -25z" />
<glyph unicode="e" horiz-adv-x="625" d="M198 793q29 75 68 156q19 37 43 71q8 12 20 24q-3 -2 3 3q4 -2 10 -6q40 -30 49 -123q11 -81 -26 -219q-116 -3 -192 -14q12 57 25 108zM139 183l-3 -1q2 0 3 1v0zM358 1070q1 0 1 1q0 -1 -1 -1v0zM550 1106q-54 54 -197 28q-133 -24 -212 -102q-54 -53 -97 -148 q-67 -117 -102 -344q-19 -131 -18 -233q0 -166 104 -192q68 -17 190 24q73 24 141 80q118 97 140 227q6 36 -85 20q-45 -8 -81 -25q-42 -20 -44 -33q-14 -82 -76 -160q-14 -17 -36 -36q-19 17 -31 63q-13 50 -8 160q6 99 22 179q45 5 123 5q101 -1 123 0q34 1 83 18 q61 23 68 43q58 170 48 288q-6 90 -55 138z" />
<glyph unicode="f" horiz-adv-x="429" d="M517 1445q11 -35 116 -3q106 33 95 67q-39 121 -114 145q-44 14 -135 -12q-72 -21 -123 -60q-139 -105 -207 -325q-13 -43 -27 -89q-64 -8 -124 -21q-104 -23 -123 -62q-10 -22 34 -22q27 0 52 6q64 14 138 20q-54 -193 -81 -348q-76 -446 -71 -619q0 -11 33 -12 q32 0 73 10q106 25 105 67q-5 150 60 547q32 196 76 359q41 -1 116 -4q82 -4 117 -5q77 -2 149 46q25 17 21 30q-5 14 -35 15q-268 7 -343 6q71 232 149 344q2 3 8 10q21 -29 41 -90z" />
<glyph unicode="g" horiz-adv-x="759" d="M256 211q-3 -2 -9 -7q-66 16 -101 108q-21 54 -19 134q-6 135 77 297q77 173 211 292v0q5 -3 10 -7q17 -15 34 -54q8 -17 47 -15q-34 -143 -90 -542q-37 -72 -81 -126q-40 -50 -79 -80zM583 1132q-49 16 -133 -5q-164 -39 -292 -186q-234 -252 -240 -557q-7 -139 65 -215 q70 -74 187 -60q96 11 202 76q-23 -115 -49 -210q-31 -112 -74 -188q-22 -40 -51 -73q-4 -4 -13 -14q-13 4 -28 11q-55 24 -75 75q-18 47 27 210q11 38 -86 15q-111 -26 -122 -64q-47 -170 -28 -229q18 -58 84 -89q56 -26 123 -26q162 2 291 120q67 61 119 178q35 79 82 289 q26 120 54 344q41 221 53 304q64 193 77 308v0v0q-1 0 0 0v5q1 3 1 5q1 15 -40 12q-26 -2 -47 -7q-57 -13 -87 -29z" />
<glyph unicode="h" horiz-adv-x="759" d="M564 1139q-100 -14 -177 -66q-57 -39 -107 -108q60 277 161 674q9 36 -85 19q-45 -8 -82 -25q-40 -19 -43 -32q-229 -903 -296 -1472q-3 -27 98 -5q100 22 114 52q10 23 86 246q76 222 140 364q71 160 129 231q8 -25 11 -86q3 -89 -31 -307q-9 -63 -65 -239 q-47 -149 -48 -242q0 -11 33 -13q31 -1 73 7q106 22 107 63q1 72 75 309q23 72 43 203q17 109 23 183q9 115 -9 176q-25 86 -150 68z" />
<glyph unicode="i" horiz-adv-x="379" d="M25 599q-28 -104 -66 -232q-52 -175 -43 -219q7 -34 113 -7q107 27 100 64q-8 40 40 200q34 115 66 232q65 245 106 470q6 36 -85 19q-45 -8 -82 -25q-41 -19 -43 -32q-40 -220 -106 -470zM179 1302q10 -10 54 -6q41 4 83 19q91 32 64 59q-30 30 -73 59q-15 9 -54 6 q-41 -4 -83 -19q-26 -9 -48 -23q-36 -23 -16 -36q43 -29 73 -59z" />
<glyph unicode="j" horiz-adv-x="364" d="M18 612q-67 -381 -113 -532q-40 -130 -97 -237q-35 -65 -63 -97q-14 -17 -37 -35q-2 -2 -11 -8q-4 -3 -6 -4q1 1 19 6q5 2 23 4h-3q1 0 -5 1q-26 5 -52 32q-54 56 -22 187q9 36 -85 19q-44 -8 -81 -25q-41 -19 -44 -33q-32 -128 13 -198q46 -70 150 -69q157 2 284 95 q76 56 144 191q98 192 158 517q88 482 101 533q23 88 54 162q9 23 -33 24q-24 1 -52 -4q-110 -20 -125 -58q-61 -148 -117 -471zM194 1343q-1 1 -6 7q4 -5 19 -27q12 -17 21 -26q6 -3 13 -5q20 -4 41 -1q40 3 83 18q41 15 60 32q1 2 4 5q3 4 4 6q6 10 -4 17l-6 6l6 -7 q-4 5 -19 27q-12 17 -21 26q-8 3 -12 5q-21 3 -42 1q-40 -4 -83 -19q-40 -14 -59 -32q-4 -4 -9 -10q-5 -11 5 -17q2 -3 5 -6z" />
<glyph unicode="k" horiz-adv-x="678" d="M333 1030q9 6 23 14q5 3 22 11q3 1 12 5q10 4 11 5q6 2 10 4q1 -2 17 3q1 -1 3 -1q15 -3 30 -16q25 -24 13 -86q-13 -65 -64 -129q-50 -64 -119 -113q-11 -8 -28 -18h-2q-27 13 -73 5q1 5 48 237v1l1 1q19 21 50 46q16 13 46 31zM672 933q35 96 6 144q-27 48 -117 51 q-95 3 -225 -43q-37 -13 -74 -30q37 193 47 244q12 61 38 160q31 121 40 160q8 36 -86 19q-44 -8 -81 -25q-41 -19 -44 -32q-10 -42 -40 -160q-25 -100 -38 -160q-14 -68 -36 -188q-25 -133 -36 -187q-8 -10 -5 -6q-10 -13 -18 -25q-9 -15 12 -20q-37 -182 -75 -333 q-76 -306 -79 -354q0 -11 33 -13q32 -1 73 7q107 21 108 63q5 101 58 277q53 -104 137 -347q79 -230 142 -344q20 -37 124 -3q41 14 68 31q28 18 22 29q-63 114 -157 387q-88 257 -165 382q22 8 46 18q105 43 205 139q91 88 117 159z" />
<glyph unicode="l" horiz-adv-x="367" d="M35 862q-133 -710 -138 -734q-8 -36 86 -19q44 8 81 25q41 19 44 32q334 1480 325 1455q14 38 -85 20q-112 -20 -126 -58q-104 -280 -187 -721z" />
<glyph unicode="m" horiz-adv-x="1045" d="M902 1137q-159 -15 -268 -123q3 44 -3 79q-14 87 -137 72q-93 -12 -172 -58q-22 -12 -43 -30q2 31 2 62q0 12 -33 13q-32 2 -74 -7q-107 -22 -107 -64q-1 -183 -82 -482q-94 -348 -110 -478q-3 -26 87 -10q45 8 82 26q42 19 44 32q11 68 59 227q57 189 124 353 q77 184 148 283q8 -46 -10 -152q-11 -62 -43 -187q-7 -31 -62 -386q-10 -31 -16 -59q-11 -45 -14 -97q-2 -26 101 -6t111 54q16 64 29 149q18 57 53 136q74 172 95 229q47 134 91 215q28 53 56 86q-2 -3 2 3q6 -24 3 -71q-7 -103 -60 -311q-63 -248 -76 -314 q-7 -40 -18 -147q-10 -94 -24 -147q-9 -36 86 -19q44 8 81 25q41 19 44 33q15 57 26 160q13 115 22 160q-2 -7 84 342q52 210 50 311q-1 49 -25 76q-27 29 -103 22z" />
<glyph unicode="n" horiz-adv-x="790" d="M618 1067q-176 -33 -296 -148q-27 -26 -52 -57q34 151 51 262q2 18 -54 13q-37 -3 -62 -10q-93 -25 -98 -61q-19 -127 -101 -467q-71 -293 -84 -471q-2 -27 99 -5q102 21 113 53q126 345 195 483q72 144 143 230q18 22 40 43q31 -137 -27 -461q-81 -452 -126 -614 q-10 -37 86 -19q44 8 81 25q41 19 44 32q45 162 128 625q30 169 37 281q9 159 -30 256q-10 25 -87 10z" />
<glyph unicode="o" horiz-adv-x="650" d="M185 243q-15 -18 -34 -37q-19 24 -29 72q-31 154 51 447q34 123 79 221q17 37 35 68q64 -79 70 -226q8 -183 -80 -386q-39 -89 -92 -159zM287 1126q-39 -13 -62 -33q-44 -11 -72 -30q-70 -49 -130 -195q-58 -140 -93 -312q-38 -183 -26 -302q13 -136 106 -148 q88 -11 185 25q93 35 158 100q106 106 169 298q60 178 52 329q-11 204 -150 280q-39 22 -137 -12z" />
<glyph unicode="p" horiz-adv-x="724" d="M359 518q-66 -202 -143 -312q-34 17 -129 -18q-5 -1 -9 -3q123 530 141 612q36 74 72 132q33 54 66 91q14 15 33 33q9 -5 19 -14q26 -23 33 -95q4 -40 -5 -102q-18 -138 -78 -324zM464 1145q-95 -4 -187 -54q1 4 3 15q2 9 3 15q6 36 -86 19q-44 -8 -81 -25 q-42 -19 -44 -32q-26 -146 -64 -322q-12 -27 -31 -67q-6 -15 12 -21q-13 -58 -115 -495q-70 -300 -108 -497q-7 -36 85 -19q45 8 82 25q41 20 44 33q32 164 82 385q42 -19 99 -14q128 13 211 86q84 73 163 273q63 161 102 348q39 190 8 270q-33 82 -178 77z" />
<glyph unicode="q" horiz-adv-x="669" d="M199 252q-19 -28 -43 -51l-9 -9q-2 1 -13 7q-42 22 -57 78q-21 80 23 217q41 125 129 269q79 130 168 224q20 22 45 44q-1 -1 8 7q-27 -127 -80 -373q-39 -141 -87 -255q-38 -91 -84 -158zM120 172q-4 -2 -5 -2q-1 -1 6 2h-1zM509 1144q-275 -39 -518 -464 q-101 -177 -127 -322q-29 -163 57 -225q54 -38 152 -32q100 6 187 52q-55 -273 -91 -492q-6 -36 85 -20q45 8 82 26q42 19 44 32q55 338 198 994q39 141 90 417q6 33 -72 21q2 26 -87 13z" />
<glyph unicode="r" horiz-adv-x="572" d="M401 1057q-72 -17 -132 -63l-1 -1l-1 -1q8 62 2 115q-2 14 -36 16q-32 1 -75 -9q-107 -25 -103 -64q8 -73 -74 -407q-14 -58 -28 -138q-53 -160 -69 -348l-1 -10q-2 -26 100 -6q103 20 113 54q21 77 67 341q75 224 217 392q6 -33 -3 -80q-13 -73 -62 -165 q-40 -77 -75 -107q-24 -21 5 -30q20 -6 45 -4q95 9 144 51q46 40 96 135t64 189q14 99 -50 137q-45 26 -143 3z" />
<glyph unicode="s" horiz-adv-x="637" d="M608 1024q-2 57 -66 86q-47 22 -113 25q-141 6 -253 -68q-122 -80 -136 -213q-10 -82 53 -179q21 -31 59 -80q46 -57 58 -74q163 -228 49 -328q-12 -10 -30 -18q15 7 32 10q10 2 -2 2q-41 3 -93 43q-49 37 -58 93q-9 54 22 107q12 21 -32 23q-29 1 -53 -4 q-103 -18 -126 -57q-63 -108 9 -198q67 -84 200 -93q164 -11 317 104q84 63 78 163q-5 69 -75 175q5 -8 -122 166q-66 91 -73 162q-10 103 65 175l9 9q7 6 7 5q4 2 7 4q-21 -11 -43 -14q-20 -2 -2 0q-14 -1 2 -1q65 -3 89 -54q32 -66 -67 -205q-14 -20 32 -22q32 -2 53 2 q97 18 126 58q81 114 77 196z" />
<glyph unicode="t" horiz-adv-x="581" d="M345 1122q39 124 95 276q14 37 -85 19q-112 -20 -126 -58q-47 -128 -83 -240h-52q-86 0 -151 -41q-26 -16 -23 -30q4 -15 35 -15q45 0 165 2q-47 -161 -74 -307q-9 -54 -22 -139q-16 -112 -20 -139q-26 -158 17 -255q39 -91 123 -91q151 1 246 97q126 130 148 313 q1 9 -32 10q-31 2 -72 -6q-105 -19 -111 -62q-12 -103 -85 -216q-23 44 -30 110q-7 63 21 222q4 28 21 138q12 85 24 138q19 90 46 187q45 -1 78 -2q79 -4 151 40q26 16 22 30t-34 16q-80 3 -192 3z" />
<glyph unicode="u" horiz-adv-x="737" d="M232 509q-54 -101 -106 -177q21 425 226 773q13 21 -32 23q-29 1 -53 -4q-103 -18 -126 -57q-246 -417 -231 -924q6 -12 19 -13q156 -18 287 98q88 79 188 250q10 17 23 40q-11 -52 -96 -405q-8 -37 86 -20q44 8 81 26q41 19 44 32q162 680 181 956q2 27 -99 5 q-102 -22 -113 -53q-43 -117 -279 -550z" />
<glyph unicode="v" horiz-adv-x="634" d="M506 1061q-144 -307 -231 -498q-7 -13 -16 -34q-10 382 0 563q0 11 -32 12q-32 2 -73 -6q-107 -21 -109 -63q-10 -173 -3 -452q10 -353 9 -451q-1 -26 87 -10q90 16 116 47q82 95 222 412q48 108 241 519q10 22 -33 23q-26 1 -52 -4q-108 -19 -126 -58z" />
<glyph unicode="w" horiz-adv-x="1007" d="M854 1145q-108 -27 -101 -64q42 -214 -65 -524q-40 -115 -97 -214q7 82 8 96q2 41 1 238q-2 188 6 264q39 117 66 229q9 36 -92 15t-119 -53q-52 -93 -67 -233q-49 -148 -113 -296q-36 -82 -73 -156q25 675 26 662q-1 14 -36 16q-32 1 -75 -9q-107 -25 -103 -65 q18 -143 -12 -469q-28 -303 4 -469q5 -25 87 -10q96 18 125 58q85 116 162 261v-28q-10 -270 -5 -296q4 -18 60 -13q74 6 129 39q203 123 325 462q117 323 72 552q-6 34 -113 7z" />
<glyph unicode="x" horiz-adv-x="644" d="M577 1094q-138 -108 -265 -272q-46 221 -71 309q-9 35 -116 6t-98 -63q25 -89 58 -249q38 -179 56 -250q-263 -412 -297 -459q-14 -20 32 -22q33 -2 54 2q96 18 125 58q64 87 147 220q50 -134 121 -238q24 -36 126 0q39 14 66 31q28 17 22 26q-112 166 -180 430 q211 330 413 488q26 20 -4 29q-23 6 -46 4q-88 -7 -143 -50z" />
<glyph unicode="y" horiz-adv-x="718" d="M374 816q-72 -248 -112 -358q-33 -91 -68 -159q-15 -30 -32 -55q-9 20 -9 144q-2 372 183 733q11 22 -32 24q-27 1 -53 -4q-106 -19 -126 -58q-125 -245 -171 -559q-15 -98 -15 -267q-1 -111 90 -133q101 -25 235 48q23 13 46 33q-25 -100 -50 -175q-78 -238 -171 -330 q-11 5 -22 15q-50 41 -34 181l2 16q3 19 -53 14q-37 -4 -62 -10q-94 -25 -99 -61q-18 -131 23 -189q60 -86 224 -54q137 26 220 110q57 58 109 161q71 143 125 364q88 361 117 533q31 184 31 329q0 32 -99 5q-98 -26 -113 -53q-25 -45 -84 -245z" />
<glyph unicode="z" horiz-adv-x="678" d="M612 1103q-21 3 -39 2q-40 -3 -103 -11q-84 -12 -103 -14q-64 -7 -103 -7q-49 0 -72 11q-45 21 -138 -13q-21 -7 -47 -24q-39 -25 -17 -35q73 -34 244 -20q21 2 162 20q-34 -46 -263 -416q-34 -56 -156 -224q-100 -138 -64.5 -201t186.5 -45q152 17 221 2q61 -13 150 28 q23 11 37 26q20 21 -11 28q-99 22 -251 6q-106 -17 -124 -16q47 86 143 219q115 158 150 215q246 395 288 448q-57 16 -90 21z" />
<glyph unicode="|" d="M427 1577h160v-1995h-160v1995z" />
<glyph unicode="~" d="M923 878v-156q-63 -72 -122 -97.5t-116 -25.5q-60 0 -177.5 48.5t-176.5 48.5q-51 0 -107.5 -28t-129.5 -112v156q64 73 123 99t114 26q64 0 181.5 -49.5t172.5 -49.5q52 0 108.5 28t129.5 112z" />
<glyph unicode="&#xa1;" horiz-adv-x="672" />
<glyph unicode="&#xa2;" horiz-adv-x="1139" />
<glyph unicode="&#xa4;" d="M350 560q41 -40 99 -57q29 -8 58 -8t58 8q58 17 99 57q40 41 57 99q9 29 9 58t-9 58q-17 58 -57 99q-41 40 -100 57q-29 8 -58 8t-58 -9q-58 -17 -98 -56q-39 -40 -56 -98q-10 -30 -10 -60q0 -28 9 -56q16 -59 57 -100zM240 903l-118 118l80 81l118 -118q44 30 99 46 q44 14 89 14q41 0 83 -12q57 -17 102 -48l118 118l80 -81l-117 -117q31 -46 48 -102q12 -42 12 -85q0 -42 -12 -85q-17 -56 -48 -102l117 -117l-80 -81l-118 118q-45 -32 -101 -48q-42 -12 -85 -12q-42 0 -85 12q-57 16 -102 48l-118 -118l-80 81l118 117q-32 46 -48 103 q-12 42 -12 84q0 44 13 87q16 55 47 99z" />
<glyph unicode="&#xa6;" d="M427 371h160v-789h-160v789zM427 1578h160v-789h-160v789z" />
<glyph unicode="&#xa8;" horiz-adv-x="1024" d="M223 1289l71 72q13 12 25 12q11 0 27 -14l69 -73q10 -14 10 -25q0 -13 -12 -27l-69 -75q-17 -17 -25 -17q-14 0 -25 12l-76 86q-9 12 -9 23q0 13 14 26zM588 1289l71 72q13 12 25 12q11 0 27 -13l69 -74q10 -14 10 -25q0 -13 -12 -26l-69 -76q-17 -17 -25 -17 q-14 0 -25 12l-76 87q-9 11 -9 22q0 13 14 26z" />
<glyph unicode="&#xaa;" horiz-adv-x="648" />
<glyph unicode="&#xab;" horiz-adv-x="944" d="M174 479l342 303h14v-37l-205 -266l205 -266v-37h-14zM487 479l342 303h14v-37l-205 -266l205 -266v-37h-14z" />
<glyph unicode="&#xac;" d="M87 767h840v-491l-1 -1h-98v392h-741v100z" />
<glyph unicode="&#xad;" horiz-adv-x="670" />
<glyph unicode="&#xaf;" horiz-adv-x="670" />
<glyph unicode="&#xb0;" horiz-adv-x="674" d="M339 1372q-86 0 -147.5 -61t-61.5 -148t61 -147t148 -60t147 60t60 147t-60.5 148t-146.5 61zM339 1442q115 0 196 -81.5t81 -196.5q0 -114 -82 -196t-197 -82q-117 0 -197 81t-80 197t81.5 197t197.5 81z" />
<glyph unicode="&#xb1;" />
<glyph unicode="&#xb2;" />
<glyph unicode="&#xb3;" />
<glyph unicode="&#xb4;" horiz-adv-x="1024" d="M607 1375q35 35 55.5 47t40.5 12q33 0 53.5 -20t20.5 -51q0 -22 -15.5 -42t-46.5 -40l-330 -203h-69z" />
<glyph unicode="&#xb5;" horiz-adv-x="1180" />
<glyph unicode="&#xb6;" horiz-adv-x="1024" d="M929 1435v-70h-127v-1365h-82v1365h-166v-1365h-84v738q-174 8 -275.5 102.5t-101.5 245.5q0 157 107.5 253t285.5 96h443z" />
<glyph unicode="&#xb7;" horiz-adv-x="508" d="M145 740l82 84q15 14 29 14q13 0 31 -16l80 -86q12 -16 12 -29q0 -15 -14 -31l-80 -88q-20 -20 -29 -20q-16 0 -29 14l-88 101q-10 13 -10 26q0 15 16 31z" />
<glyph unicode="&#xb8;" horiz-adv-x="1024" d="M360 -290q85 -52 152 -52q66 0 94.5 21.5t28.5 66.5t-49 64q-40 16 -102 16q-16 0 -34 -2l48 176h63l-37 -104q32 4 62 5q86 0 134 -40.5t48 -113.5q0 -76 -58.5 -120.5t-160.5 -44.5q-109 0 -189 32v96z" />
<glyph unicode="&#xb9;" />
<glyph unicode="&#xba;" horiz-adv-x="718" />
<glyph unicode="&#xbb;" horiz-adv-x="944" d="M115 176h-14v37l205 266l-205 266v37h14l342 -303zM428 176h-14v37l205 266l-205 266v37h14l342 -303z" />
<glyph unicode="&#xbc;" horiz-adv-x="1708" />
<glyph unicode="&#xbd;" horiz-adv-x="1964" />
<glyph unicode="&#xbe;" horiz-adv-x="1708" />
<glyph unicode="&#xbf;" horiz-adv-x="748" />
<glyph unicode="&#xc0;" horiz-adv-x="1540" />
<glyph unicode="&#xc1;" horiz-adv-x="1540" />
<glyph unicode="&#xc2;" horiz-adv-x="1540" />
<glyph unicode="&#xc3;" horiz-adv-x="1540" />
<glyph unicode="&#xc4;" horiz-adv-x="1540" />
<glyph unicode="&#xc5;" horiz-adv-x="1540" />
<glyph unicode="&#xc6;" horiz-adv-x="2118" />
<glyph unicode="&#xc7;" horiz-adv-x="1399" />
<glyph unicode="&#xc8;" horiz-adv-x="1151" />
<glyph unicode="&#xc9;" horiz-adv-x="1151" />
<glyph unicode="&#xca;" horiz-adv-x="1151" />
<glyph unicode="&#xcb;" horiz-adv-x="1151" />
<glyph unicode="&#xcc;" horiz-adv-x="657" />
<glyph unicode="&#xcd;" horiz-adv-x="657" />
<glyph unicode="&#xce;" horiz-adv-x="657" />
<glyph unicode="&#xcf;" horiz-adv-x="657" />
<glyph unicode="&#xd0;" horiz-adv-x="1518" />
<glyph unicode="&#xd1;" horiz-adv-x="1554" />
<glyph unicode="&#xd2;" horiz-adv-x="1614" />
<glyph unicode="&#xd3;" horiz-adv-x="1614" />
<glyph unicode="&#xd4;" horiz-adv-x="1614" />
<glyph unicode="&#xd5;" horiz-adv-x="1614" />
<glyph unicode="&#xd6;" horiz-adv-x="1614" />
<glyph unicode="&#xd7;" d="M507 618l-247 -247l-99 99l247 247l-247 248l99 98l247 -247l248 247l98 -99l-247 -247l247 -247l-99 -99z" />
<glyph unicode="&#xd8;" horiz-adv-x="1614" />
<glyph unicode="&#xd9;" horiz-adv-x="1501" />
<glyph unicode="&#xda;" horiz-adv-x="1501" />
<glyph unicode="&#xdb;" horiz-adv-x="1501" />
<glyph unicode="&#xdc;" horiz-adv-x="1501" />
<glyph unicode="&#xdd;" horiz-adv-x="1233" />
<glyph unicode="&#xde;" horiz-adv-x="1120" />
<glyph unicode="&#xdf;" horiz-adv-x="1251" />
<glyph unicode="&#xe0;" horiz-adv-x="922" />
<glyph unicode="&#xe1;" horiz-adv-x="922" />
<glyph unicode="&#xe2;" horiz-adv-x="922" />
<glyph unicode="&#xe3;" horiz-adv-x="922" />
<glyph unicode="&#xe4;" horiz-adv-x="922" />
<glyph unicode="&#xe5;" horiz-adv-x="922" />
<glyph unicode="&#xe6;" horiz-adv-x="1454" />
<glyph unicode="&#xe7;" horiz-adv-x="905" />
<glyph unicode="&#xe8;" horiz-adv-x="909" />
<glyph unicode="&#xe9;" horiz-adv-x="909" />
<glyph unicode="&#xea;" horiz-adv-x="909" />
<glyph unicode="&#xeb;" horiz-adv-x="909" />
<glyph unicode="&#xec;" horiz-adv-x="514" />
<glyph unicode="&#xed;" horiz-adv-x="514" />
<glyph unicode="&#xee;" horiz-adv-x="514" />
<glyph unicode="&#xef;" horiz-adv-x="514" />
<glyph unicode="&#xf0;" horiz-adv-x="1139" />
<glyph unicode="&#xf1;" horiz-adv-x="1108" />
<glyph unicode="&#xf2;" horiz-adv-x="1010" />
<glyph unicode="&#xf3;" horiz-adv-x="1010" />
<glyph unicode="&#xf4;" horiz-adv-x="1010" />
<glyph unicode="&#xf5;" horiz-adv-x="1010" />
<glyph unicode="&#xf6;" horiz-adv-x="1010" />
<glyph unicode="&#xf7;" d="M87 647v140h839l1 -1v-139h-840zM398 408l82 84q15 14 29 14q13 0 31 -16l80 -86q12 -16 12 -29q0 -15 -14 -31l-80 -88q-20 -20 -29 -20q-16 0 -29 14l-88 101q-10 13 -10 26q0 15 16 31zM398 1101l82 84q15 14 29 14q13 0 31 -16l80 -86q12 -16 12 -29q0 -15 -14 -31 l-80 -88q-20 -20 -29 -20q-16 0 -29 14l-88 101q-10 13 -10 26q0 15 16 31z" />
<glyph unicode="&#xf8;" horiz-adv-x="1010" />
<glyph unicode="&#xf9;" horiz-adv-x="1059" />
<glyph unicode="&#xfa;" horiz-adv-x="1059" />
<glyph unicode="&#xfb;" horiz-adv-x="1059" />
<glyph unicode="&#xfc;" horiz-adv-x="1059" />
<glyph unicode="&#xfd;" horiz-adv-x="868" />
<glyph unicode="&#xfe;" horiz-adv-x="1010" />
<glyph unicode="&#xff;" horiz-adv-x="868" />
<glyph unicode="&#x2c6;" horiz-adv-x="1024" d="M221 1079l232 355h118l232 -355h-58l-233 216l-233 -216h-58z" />
<glyph unicode="&#x2dc;" horiz-adv-x="1024" d="M808 1382q-20 -103 -68.5 -154t-126.5 -51h-4q-50 0 -113 23q-66 24 -114 24q-39 0 -60.5 -20.5t-33.5 -71.5h-54q19 106 68 158.5t129 52.5q46 -1 113 -24q64 -23 112 -23h4q36 0 58 20t36 66h54z" />
<glyph unicode="&#x2000;" horiz-adv-x="833" />
<glyph unicode="&#x2001;" horiz-adv-x="1667" />
<glyph unicode="&#x2002;" horiz-adv-x="833" />
<glyph unicode="&#x2003;" horiz-adv-x="1667" />
<glyph unicode="&#x2004;" horiz-adv-x="555" />
<glyph unicode="&#x2005;" horiz-adv-x="416" />
<glyph unicode="&#x2006;" horiz-adv-x="277" />
<glyph unicode="&#x2007;" horiz-adv-x="277" />
<glyph unicode="&#x2008;" horiz-adv-x="208" />
<glyph unicode="&#x2009;" horiz-adv-x="333" />
<glyph unicode="&#x200a;" horiz-adv-x="92" />
<glyph unicode="&#x2010;" horiz-adv-x="670" />
<glyph unicode="&#x2011;" horiz-adv-x="670" />
<glyph unicode="&#x2012;" horiz-adv-x="670" />
<glyph unicode="&#x2013;" horiz-adv-x="1108" d="M56 419v120h996v-120h-996z" />
<glyph unicode="&#x2014;" horiz-adv-x="2048" d="M0 419v120h2048v-120h-2048z" />
<glyph unicode="&#x2018;" horiz-adv-x="1219" d="M203 1361q25 95 107 163q25 21 -4 29q-22 7 -46 5q-91 -8 -143 -51q-92 -76 -124 -181q-35 -114 18 -215q19 -36 123 -2q41 13 68 30q29 18 23 30q-49 91 -22 192z" />
<glyph unicode="&#x2019;" horiz-adv-x="1219" d="M86 1291q-25 -95 -107 -163q-25 -21 4 -29q22 -7 46 -5q91 8 143 51q92 76 124 181q35 114 -18 215q-20 36 -124 2q-40 -13 -67 -30q-29 -18 -23 -30q49 -91 22 -192z" />
<glyph unicode="&#x201a;" horiz-adv-x="1219" d="M63 -79q-25 -96 -107 -163q-25 -21 4 -30q22 -6 46 -4q91 8 143 51q92 75 124 181q35 114 -18 214q-20 37 -124 3q-40 -13 -67 -30q-29 -18 -23 -30q49 -92 22 -192zM383 -79q-25 -96 -107 -163q-25 -21 4 -30q22 -6 46 -4q91 8 143 51q92 75 124 181q35 114 -18 214 q-20 37 -124 3q-40 -13 -67 -30q-29 -18 -23 -30q49 -92 22 -192z" />
<glyph unicode="&#x201c;" horiz-adv-x="1219" d="M86 1291q-25 -95 -107 -163q-25 -21 4 -29q22 -7 46 -5q91 8 143 51q92 76 124 181q35 114 -18 215q-20 36 -124 2q-40 -13 -67 -30q-29 -18 -23 -30q49 -91 22 -192zM416 1291q-25 -95 -107 -163q-25 -21 4 -29q22 -7 46 -5q91 8 143 51q92 76 124 181q35 114 -18 215 q-20 36 -124 2q-40 -13 -67 -30q-29 -18 -23 -30q49 -91 22 -192z" />
<glyph unicode="&#x201d;" horiz-adv-x="1219" d="M96 1291q-25 -95 -107 -163q-25 -21 4 -29q22 -7 46 -5q91 8 143 51q92 76 124 181q35 114 -18 215q-20 36 -124 2q-40 -13 -67 -30q-29 -18 -23 -30q49 -91 22 -192zM426 1291q-25 -95 -107 -163q-25 -21 4 -29q22 -7 46 -5q91 8 143 51q92 76 124 181q35 114 -18 215 q-20 36 -124 2q-40 -13 -67 -30q-29 -18 -23 -30q49 -91 22 -192z" />
<glyph unicode="&#x201e;" horiz-adv-x="910" d="M238 281q44 0 88.5 -65.5t44.5 -151.5q0 -109 -71 -226.5t-139 -117.5v43q73 43 87 190q0 119 -129 161v42zM591 281q44 0 88.5 -65.5t44.5 -151.5q0 -109 -71 -226.5t-139 -117.5v43q73 43 87 190q0 119 -129 161v42z" />
<glyph unicode="&#x2022;" horiz-adv-x="1024" d="M216 718q0 123 87 209t210 86q122 0 208.5 -86.5t86.5 -208.5t-87.5 -209.5t-209.5 -87.5q-123 0 -209 87t-86 210z" />
<glyph unicode="&#x2026;" horiz-adv-x="2048" d="M145 167l82 84q15 14 29 14q13 0 31 -16l80 -86q12 -16 12 -29q0 -15 -14 -31l-80 -88q-20 -20 -29 -20q-16 0 -29 14l-88 101q-10 13 -10 26q0 15 16 31zM828 167l82 84q15 14 29 14q13 0 31 -16l80 -86q12 -16 12 -29q0 -15 -14 -31l-80 -88q-20 -20 -29 -20 q-16 0 -29 14l-88 101q-10 13 -10 26q0 15 16 31zM1511 167l82 84q15 14 29 14q13 0 31 -16l80 -86q12 -16 12 -29q0 -15 -14 -31l-80 -88q-20 -20 -29 -20q-16 0 -29 14l-88 101q-10 13 -10 26q0 15 16 31z" />
<glyph unicode="&#x202f;" horiz-adv-x="333" />
<glyph unicode="&#x2039;" horiz-adv-x="631" d="M174 479l342 303h14v-37l-205 -266l205 -266v-37h-14z" />
<glyph unicode="&#x203a;" horiz-adv-x="631" d="M115 176h-14v37l205 266l-205 266v37h14l342 -303z" />
<glyph unicode="&#x205f;" horiz-adv-x="416" />
<glyph unicode="&#x2122;" horiz-adv-x="1497" />
<glyph unicode="&#xe000;" horiz-adv-x="1150" d="M0 1150h1150v-1150h-1150v1150z" />
</font>
</defs>
</svg>
