<?xml version="1.0" standalone="no"?>
<!DOCTYPE svg PUBLIC "-//W3C//DTD SVG 1.1//EN" "http://www.w3.org/Graphics/SVG/1.1/DTD/svg11.dtd" >
<svg xmlns="http://www.w3.org/2000/svg">
<metadata></metadata>
<defs>
<font id="utilityboldcondensed" horiz-adv-x="364" >
<font-face units-per-em="1000" ascent="800" descent="-200" />
<missing-glyph horiz-adv-x="193" />
<glyph horiz-adv-x="1000" />
<glyph horiz-adv-x="1000" />
<glyph unicode="&#xd;" horiz-adv-x="193" />
<glyph unicode=" "  horiz-adv-x="193" />
<glyph unicode="&#x09;" horiz-adv-x="193" />
<glyph unicode="&#xa0;" horiz-adv-x="193" />
<glyph unicode="!" horiz-adv-x="150" d="M138 656h-119v-506h119v506zM78 124q-27 0 -46.5 -19.5t-19.5 -46.5t19.5 -47t46.5 -20t47 19.5t20 47.5q0 27 -19.5 46.5t-47.5 19.5z" />
<glyph unicode="." horiz-adv-x="150" d="M77 124q-27 0 -47 -19.5t-20 -46.5t19.5 -47t47.5 -20q27 0 46.5 19.5t19.5 47.5q0 27 -19.5 46.5t-46.5 19.5z" />
<glyph unicode="0" horiz-adv-x="327" d="M164 506h1q-59 0 -101 -40.5t-42 -97.5l1 -239q1 -55 42.5 -94t97.5 -39q59 0 101 40.5t42 97.5l1 233q1 57 -41 98t-102 41zM181 138q0 -16 -15 -16q-17 0 -17 16l-1 226q0 17 18 15q16 0 16 -16z" />
<glyph unicode="1" horiz-adv-x="158" d="M24 503v-505h120v505h-120z" />
<glyph unicode="2" horiz-adv-x="322" d="M187 168h-1q13 19 52 65l40 46q30 43 30 88q0 58 -41.5 98.5t-100.5 40.5t-101.5 -40.5t-41.5 -97.5l1 -49h125v39l-1 6q0 17 18 15q16 0 16 -16l-1 -5q0 -26 -25.5 -51.5t-38.5 -41.5q-24 -29 -48 -69q-30 -50 -40 -79q-6 -17 -6 -58v-62h284v120h-142q0 18 22 51z" />
<glyph unicode="3" horiz-adv-x="322" d="M124 303v-104h38q17 0 17 -22v-33l1 -5q0 -16 -18 -16q-16 0 -16 16v38h-126v-42q0 -58 41.5 -98.5t100.5 -40.5t101.5 40.5t41.5 97.5l-1 49q-1 34 -30 68q31 39 31 74v42q0 58 -41.5 98.5t-99.5 40.5q-60 0 -102.5 -40.5t-41.5 -97.5l1 -49h125v45q0 17 17 15 q16 0 16 -16v-37q0 -23 -16 -23h-39z" />
<glyph unicode="4" horiz-adv-x="362" d="M301 203v300h-162l-124 -322v-98h166v-85h120v85h42v120h-42zM181 203h-45l45 117v-117z" />
<glyph unicode="5" horiz-adv-x="322" d="M22 503v-297h126v5q0 16 16 16q17 0 17 -16v-72q0 -16 -17 -16q-16 0 -16 16v30h-126v-34q0 -58 41.5 -98.5t100.5 -40.5t101 40.5t42 97.5v57q0 63 -43 96q-32 25 -71 24q-24 0 -45 -8v80h146v120h-272z" />
<glyph unicode="6" horiz-adv-x="322" d="M164 -4h-1q59 0 100.5 40.5t42.5 97.5l1 57q1 63 -42 96q-33 25 -72 24q-23 0 -46 -8v56l1 5q0 16 16 16q17 0 17 -16v-38h125v47q0 55 -42 94t-99 39q-59 0 -101 -40.5t-42 -97.5l-1 -233q-1 -57 41 -98t102 -41zM163 197q17 0 17 -15v-43q0 -16 -18 -16q-16 0 -16 16 v37l1 5q0 16 16 16z" />
<glyph unicode="7" horiz-adv-x="296" d="M20 503v-120h116l-118 -385h119l155 505h-272z" />
<glyph unicode="8" horiz-adv-x="327" d="M307 367q0 58 -41.5 98.5t-100.5 40.5t-101.5 -40.5t-41.5 -97.5l1 -49q1 -34 30 -68q-31 -39 -31 -74v-42q0 -58 41.5 -98.5t99.5 -40.5q60 0 103 41t41 97l-2 49q-1 34 -29 68q31 39 31 74v42zM164 379l1 -1q16 0 16 -16v-42l-1 -2q0 -16 -15 -16q-17 0 -17 16v39l-1 6 q0 16 17 16zM165 121q-16 0 -16 16v44q0 16 16 16q17 0 17 -16v-44q0 -16 -17 -16z" />
<glyph unicode="9" horiz-adv-x="327" d="M166 506h1q-59 0 -101 -40.5t-42 -97.5v-57q0 -63 43 -96q32 -25 70 -24q23 0 46 8v-61q0 -16 -16 -16q-17 0 -17 16v38h-125v-47q0 -55 42 -94t99 -39q59 0 101 40.5t42 97.5v233q0 58 -42 98.5t-101 40.5zM167 305h1q-17 0 -17 15v38l-1 6q0 17 18 15q16 0 16 -16v-42 q0 -16 -17 -16z" />
<glyph unicode="A" horiz-adv-x="450" d="M295 -1h143l-117 699h-194l-118 -699h144l18 136h106zM189 276l35 265l34 -265h-69z" />
<glyph unicode="B" d="M278 387l1 -1q75 48 73 123l-1 42q-1 57 -48 102t-113 45h-174v-699l174 -1q68 0 116.5 48.5t48.5 116.5v85q0 90 -77 139zM161 568l25 1q8 0 14 -9t6 -19l-1 -88q0 -9 -6 -18t-14 -9h-24v142zM206 168h-1q0 -9 -6 -18t-14 -9h-24v142h25q8 0 14 -9t6 -18v-88z" />
<glyph unicode="C" d="M203 278v-116q0 -20 -22 -20q-20 0 -20 20l1 374q0 20 21 20q20 0 20 -20v-97h144v104q0 68 -48 117t-116 49t-116.5 -48.5t-48.5 -116.5l-1 -393q0 -68 48.5 -117t116.5 -49t116.5 48.5t48.5 116.5v128h-144z" />
<glyph unicode="D" d="M183 698h-164v-699l164 -1q68 0 116.5 48.5t48.5 116.5v370q0 68 -48.5 116.5t-116.5 48.5zM204 169q0 -9 -6.5 -18t-14.5 -9h-20v414l21 1q8 0 14 -9t6 -19v-360z" />
<glyph unicode="E" horiz-adv-x="309" d="M301 550v147l-279 1v-699h279v147h-126v136h95v148h-95v120h126z" />
<glyph unicode="F" horiz-adv-x="309" d="M294 550v147l-279 1v-699h153v283h95v148h-95v120h126z" />
<glyph unicode="G" d="M183 362v-148h22v-52q0 -20 -21 -20q-20 0 -20 20v374q0 20 21 20q20 0 20 -20v-96h144v103q0 68 -48 117t-116 49t-116.5 -48.5t-48.5 -116.5v-393q0 -68 48 -117t116 -49t116.5 48.5t48.5 116.5v212h-166z" />
<glyph unicode="H" horiz-adv-x="383" d="M223 698v-268h-56v268h-147v-699h147v275h56v-275h148v699h-148z" />
<glyph unicode="I" horiz-adv-x="182" d="M170 698h-154v-699h154v699z" />
<glyph unicode="J" horiz-adv-x="272" d="M112 698v-529q0 -27 -28 -27h-63v-143h71q164 0 164 165v534h-144z" />
<glyph unicode="K" horiz-adv-x="407" d="M25 -1h150v294l81 -294h150l-112 376l96 322h-150l-65 -235v235h-150v-698z" />
<glyph unicode="L" horiz-adv-x="292" d="M19 -1zM173 153v544h-154v-698h264v154h-110z" />
<glyph unicode="M" horiz-adv-x="517" d="M295 697l-35 -318l-35 318h-209v-698h134v364l50 -364h120l50 364v-364h134v698h-209z" />
<glyph unicode="N" horiz-adv-x="407" d="M252 697v-292l-78 292h-158v-698h140v292l79 -292h158v698h-141z" />
<glyph unicode="O" horiz-adv-x="360" d="M202 162h-1q0 -20 -21 -20q-20 0 -20 20l1 374q0 20 21 20q20 0 20 -20v-374zM345 543q0 68 -48 117t-116 49t-116.5 -48.5t-48.5 -116.5l-1 -393q0 -68 48 -117t116 -49t116.5 48.5t48.5 116.5z" />
<glyph unicode="P" horiz-adv-x="362" d="M347 479q0 -75 -43 -134q-49 -66 -122 -66h-21v-280h-143v699l164 1q67 0 116 -54t49 -124v-42zM203 449v80q0 9 -6.5 18t-14.5 9h-21v-135h22q8 0 14 9t6 19z" />
<glyph unicode="Q" horiz-adv-x="362" d="M367 -32h-166l-12 27h-6q-68 0 -116.5 48.5t-48.5 116.5l-1 383q0 68 48 117t116 49t116.5 -48.5t48.5 -116.5l1 -384q0 -56 -35 -101zM203 162v374q0 20 -22 20q-20 0 -20 -20l1 -374q0 -20 21 -20q20 0 20 20z" />
<glyph unicode="R" horiz-adv-x="368" d="M369 -1h-151q-15 15 -16 57v202q0 9 -6 18t-14 9h-24v-286h-144v699h174q66 0 113 -44.5t48 -101.5l1 -66q1 -76 -74 -121q43 -13 59 -40q18 -31 18 -103v-179q0 -9 2 -17q4 -19 14 -27zM202 455v88q0 9 -6 18t-14 9h-24v-143h24q8 0 14 9t6 19z" />
<glyph unicode="S" d="M207 177v-1q0 -35 -21 -34q-20 1 -20 20v68h-144v-80q0 -68 48 -116.5t116 -48.5t116.5 48t48.5 116q0 91 -9 118q-12 39 -69 96q-62 62 -71 73q-36 45 -36 87q0 33 21 33q20 0 20 -21v-68h144v76q0 68 -48 117t-116 49t-116.5 -48.5t-48.5 -116.5q0 -79 14 -115 q16 -45 77 -106q35 -34 69 -67q25 -30 25 -79z" />
<glyph unicode="T" d="M350 699h-329v-161h87v-540h154v540h88v161z" />
<glyph unicode="U" d="M204 698l-1 -537q0 -20 -21 -19q-20 1 -20 20v536h-144v-548q0 -68 48 -116.5t116 -48.5t116.5 48.5t48.5 116.5v548h-143z" />
<glyph unicode="V" horiz-adv-x="413" d="M260 698l-58 -507l-46 507h-150l80 -699h219l105 699h-150z" />
<glyph unicode="W" horiz-adv-x="570" d="M426 699l-23 -351l-41 351h-145l-41 -351l-23 351h-143l58 -699h179l43 352l42 -352h179l59 699h-144z" />
<glyph unicode="X" horiz-adv-x="441" d="M437 -2l-135 358l129 341h-154l-52 -138l-52 138h-154l129 -341l-135 -358h153l59 156l59 -156h153z" />
<glyph unicode="Y" horiz-adv-x="441" d="M428 697h-154l-50 -189l-50 189h-154l127 -358v-341h154v341z" />
<glyph unicode="Z" horiz-adv-x="334" d="M324 580v117h-304v-153h136l-146 -392v-154h314v154h-167z" />
<glyph unicode="a" horiz-adv-x="296" d="M151 506q-53 0 -89.5 -36.5t-36.5 -89.5v-75h111v71q0 15 15 15t15 -15v-99h-28q-47 0 -80 -33.5t-33 -80.5v-47q0 -64 23.5 -92.5t78.5 -27.5q15 0 39 9v-7h111v382q0 53 -36.5 89.5t-89.5 36.5zM166 101h-15q-15 0 -15 14v42q0 15 15 15h15v-71z" />
<glyph unicode="b" horiz-adv-x="312" d="M204 506h-1q-11 0 -21 -3q-25 -6 -39 -21v173h-120v-657h120l1 21q21 -22 60 -24q32 0 58 22q30 26 30 69v328q0 43 -30 70q-26 22 -58 22zM172 126q0 -15 -15 -15t-15 14l-1 251q0 15 15 15t15 -15z" />
<glyph unicode="c" horiz-adv-x="312" d="M171 130l1 -4q0 -15 -15 -15t-15 14l-1 251q0 15 15 15t15 -15v-97h112v63l-1 38q-1 53 -37 89.5t-88 36.5q-53 0 -90.5 -37t-36.5 -89l1 -38v-226q0 -50 37.5 -85t88.5 -35q53 0 89.5 37t36.5 89v64h-112v-56z" />
<glyph unicode="d" horiz-adv-x="312" d="M20 87q0 -43 30 -70q26 -22 59 -22q11 1 21 3q25 6 39 22v-22h120v657h-120l-1 -173q-18 18 -60 25q-32 0 -58 -22q-30 -27 -30 -70v-328zM139 377q0 15 15 15t15 -15v-251q0 -13 -14 -15q-15 0 -15 15z" />
<glyph unicode="e" horiz-adv-x="284" d="M146 506q-53 0 -89.5 -36.5t-36.5 -89.5v-264q0 -50 37.5 -85t88.5 -35q53 0 89.5 37t36.5 89v55h-112v-47l1 -4q0 -15 -15 -15t-15 14v91h141l-1 164q0 52 -36.5 89t-88.5 37zM131 319v57q0 15 14 15q15 0 15 -15v-57h-29z" />
<glyph unicode="f" horiz-adv-x="224" d="M178 655q-9 0 -10 1q-118 0 -118 -152h-33v-120h33v-386h120v386h34v120l-34 -1q0 38 33 38h29v114h-54z" />
<glyph unicode="g" horiz-adv-x="300" d="M286 502h-119l-1 -21q-18 18 -60 25q-32 0 -58 -22q-30 -27 -30 -70q0 -203 -1 -328q0 -43 30 -70q26 -22 59 -22q11 1 22 3q24 6 39 22v-22q0 -29 -5.5 -39t-27.5 -10h-59v-114h93q118 0 118 169v499zM137 375q0 15 15 15t15 -14v-251q0 -14 -15 -16q-15 0 -15 16v250z " />
<glyph unicode="h" horiz-adv-x="308" d="M291 -2h-119v378q0 15 -15 15t-15 -15v-378h-119v657h119l1 -173q18 18 60 25q32 0 58 -22q30 -27 30 -70v-417z" />
<glyph unicode="i" horiz-adv-x="158" d="M23 503v-505h119v505h-119zM83 662v1q-27 0 -46.5 -19.5t-19.5 -47.5q0 -27 19.5 -46.5t46.5 -19.5t47 19.5t20 46.5t-19.5 46.5t-47.5 19.5z" />
<glyph unicode="j" horiz-adv-x="180" d="M34 523v-506q0 -49 -33 -49h-39v-114h74q118 0 118 169v500h-120zM94 682q-27 0 -46.5 -19.5t-19.5 -46.5t19.5 -47t46.5 -20t47 19.5t20 47.5q0 27 -19.5 46.5t-47.5 19.5z" />
<glyph unicode="k" horiz-adv-x="325" d="M323 18l-102 260l96 245h-120l-61 -167v319h-120v-657h120v184l68 -184h119z" />
<glyph unicode="l" horiz-adv-x="154" d="M19 655v-657h120v657h-120z" />
<glyph unicode="m" horiz-adv-x="433" d="M417 358q0 77 1 76q0 43 -30 70q-26 22 -59 22q-44 0 -71 -37q-27 37 -72 37q-11 -1 -21 -3q-22 -6 -33 -22v22h-113v-505h113v377q0 14 15 16q15 0 15 -15v-378h113v377q0 14 14 16q15 0 15 -15v-378h113v340z" />
<glyph unicode="n" horiz-adv-x="298" d="M135 376q0 14 15 14t15 -15v-377h119l1 415q0 43 -30 70q-26 22 -59 22q-11 0 -21 -3q-25 -6 -40 -21v21h-119v-504h119v378z" />
<glyph unicode="o" horiz-adv-x="298" d="M150 506q-53 0 -89.5 -36.5t-36.5 -89.5v-264q0 -50 37.5 -85t88.5 -35q53 0 89.5 37t36.5 89l-1 258q-1 53 -37 89.5t-88 36.5zM165 126q0 -15 -15 -15t-15 14v251q0 15 14 15q15 0 15 -15z" />
<glyph unicode="p" horiz-adv-x="314" d="M293 413q0 43 -30 70q-26 22 -59 22q-11 0 -21 -3q-25 -6 -40 -21v21h-119v-657h119l1 173q21 -22 60 -24q32 0 58 22q30 26 30 69zM174 124q0 -14 -15 -16q-15 0 -15 16v251q0 14 15 14t15 -15v-250z" />
<glyph unicode="q" horiz-adv-x="314" d="M115 -6h1q11 1 21 3q25 6 39 22v-174h120v657h-120l-1 -21q-18 18 -60 25q-32 0 -58 -22q-30 -27 -30 -70v-328q0 -43 30 -70q26 -22 58 -22zM147 375q0 15 15 15t15 -14l1 -251q0 -14 -15 -16q-15 0 -15 16z" />
<glyph unicode="r" horiz-adv-x="214" d="M138 481v21h-119v-504h119v356q0 26 53 26h8v125q-11 0 -21 -3q-25 -6 -40 -21z" />
<glyph unicode="s" horiz-adv-x="288" d="M132 372v4q0 15 15 15t15 -15v-34h111v38q0 53 -36.5 89.5t-89.5 36.5t-89.5 -36.5t-36.5 -89.5v-37q0 -35 49 -89q35 -35 70 -69q27 -29 22 -55v-4q0 -15 -15 -15t-15 14v51h-111v-60q0 -50 37.5 -85t88.5 -35q53 0 89.5 36.5t36.5 88.5v20q0 65 -39 104q-34 35 -82 84 q-20 20 -20 43z" />
<glyph unicode="t" horiz-adv-x="205" d="M191 503h-29v123l-120 -16v-107h-28v-116h28v-389h120v389h29v116z" />
<glyph unicode="u" horiz-adv-x="308" d="M173 125q0 -14 -15 -14t-15 15v377h-119l-1 -415q0 -43 30 -70q26 -22 59 -22q11 0 22 3q24 6 39 21v-21h119v504h-119v-378z" />
<glyph unicode="v" horiz-adv-x="337" d="M217 503l-50 -277l-50 277h-113l94 -505h138l94 505h-113z" />
<glyph unicode="w" horiz-adv-x="447" d="M332 503l-12 -135l-7 -110l-15 110l-24 135h-99l-24 -135l-15 -110l-8 110l-11 135h-113l56 -505h129l35 235l36 -235h129l56 505h-113z" />
<glyph unicode="x" horiz-adv-x="330" d="M331 -2l-107 276l87 229h-109l-33 -85l-34 85h-109l87 -229l-107 -276h113l50 130l49 -130h113z" />
<glyph unicode="y" horiz-adv-x="300" d="M20 503h119v-377q0 -14 15 -16q15 0 15 15v378h119v-657h-119l-1 173q-21 -22 -60 -24q-32 0 -58 22q-30 26 -30 69v417z" />
<glyph unicode="z" horiz-adv-x="269" d="M137 111h117v-113h-236v113l118 279h-118v113h236v-113z" />
<glyph unicode="&#x2000;" horiz-adv-x="354" />
<glyph unicode="&#x2001;" horiz-adv-x="709" />
<glyph unicode="&#x2002;" horiz-adv-x="354" />
<glyph unicode="&#x2003;" horiz-adv-x="709" />
<glyph unicode="&#x2004;" horiz-adv-x="236" />
<glyph unicode="&#x2005;" horiz-adv-x="177" />
<glyph unicode="&#x2006;" horiz-adv-x="118" />
<glyph unicode="&#x2007;" horiz-adv-x="118" />
<glyph unicode="&#x2008;" horiz-adv-x="88" />
<glyph unicode="&#x2009;" horiz-adv-x="141" />
<glyph unicode="&#x200a;" horiz-adv-x="39" />
<glyph unicode="&#x202f;" horiz-adv-x="141" />
<glyph unicode="&#x205f;" horiz-adv-x="177" />
<glyph unicode="&#xe000;" horiz-adv-x="505" d="M0 505h505v-505h-505v505z" />
</font>
</defs>
</svg>
