<?xml version="1.0" standalone="no"?>
<!DOCTYPE svg PUBLIC "-//W3C//DTD SVG 1.1//EN" "http://www.w3.org/Graphics/SVG/1.1/DTD/svg11.dtd" >
<svg xmlns="http://www.w3.org/2000/svg">
<metadata></metadata>
<defs>
<font id="latin_modern_sans10_regular" horiz-adv-x="500" >
<font-face units-per-em="1000" ascent="806" descent="-194" />
<missing-glyph horiz-adv-x="333" />
<glyph unicode="&#xfb01;" horiz-adv-x="536" d="M27 386v58h74v91q0 74 38.5 122t94.5 48q27 0 60 -11v-68q-28 18 -60 18q-24 0 -42.5 -18t-18.5 -61v-121h121v-58h-118v-386h-75v386h-74zM374 612v83h83v-83h-83zM378 0v444h75v-444h-75z" />
<glyph unicode="&#xfb02;" horiz-adv-x="536" d="M27 386v58h74v91q0 74 38.5 122t94.5 48q27 0 60 -11v-67q-28 17 -60 17q-24 0 -42.5 -18t-18.5 -61v-121h121v-58h-118v-386h-75v386h-74zM378 0v694h75v-694h-75z" />
<glyph unicode="&#xfb03;" horiz-adv-x="814" d="M27 386v58h74v90q0 75 42.5 123t106.5 48q36 0 69 -11v-67q-33 17 -70 17q-12 0 -23 -3t-24 -10.5t-21 -24.5t-8 -42v-120h121v-58h-118v-386h-75v386h-74zM379 0v535q0 74 38.5 122t94.5 48q32 0 60 -10v-68q-28 17 -60 17q-24 0 -42.5 -18t-18.5 -61v-121h121v-58h-118 v-386h-75zM652 612v83h83v-83h-83zM656 0v444h75v-444h-75z" />
<glyph unicode="&#xfb04;" horiz-adv-x="814" d="M27 386v58h74v90q0 75 42.5 123t106.5 48q36 0 69 -11v-67q-33 17 -70 17q-12 0 -23 -3t-24 -10.5t-21 -24.5t-8 -42v-120h121v-58h-118v-386h-75v386h-74zM379 0v535q0 74 38.5 122t94.5 48q27 0 60 -11v-67q-28 17 -60 17q-24 0 -42.5 -18t-18.5 -61v-121h121v-58h-118 v-386h-75zM656 0v694h75v-694h-75z" />
<glyph horiz-adv-x="1000" />
<glyph horiz-adv-x="1000" />
<glyph unicode="&#xd;" horiz-adv-x="1000" />
<glyph unicode=" "  horiz-adv-x="333" />
<glyph unicode="&#x09;" horiz-adv-x="333" />
<glyph unicode="&#xa0;" horiz-adv-x="333" />
<glyph unicode="!" horiz-adv-x="319" d="M118 0v83h83v-83h-83zM118 694h83l-8 -476v-43h-67v43z" />
<glyph unicode="&#x22;" horiz-adv-x="434" d="M100 430v286h78v-286h-78zM256 430v286h78v-286h-78z" />
<glyph unicode="#" horiz-adv-x="833" d="M56 150q0 20 34 20h170l42 160h-212q-34 0 -34 20t33 20h225l80 300q2 8 3.5 11.5t6.5 8t12 4.5q8 0 14 -6t6 -14q0 -10 -4 -18l-77 -286h188l80 300q2 8 3.5 11.5t6.5 8t12 4.5q8 0 14 -6t6 -14q0 -10 -4 -18l-77 -286h159q33 0 33 -20t-34 -20h-170l-42 -160h212 q34 0 34 -20t-33 -20h-225l-80 -300q-2 -8 -3.5 -11.5t-6.5 -8t-12 -4.5q-8 0 -14 6t-6 14q0 10 4 18l77 286h-188l-80 -300q-2 -8 -3.5 -11.5t-6.5 -8t-12 -4.5q-8 0 -14 6t-6 14q0 10 4 18l77 286h-159q-33 0 -33 20zM301 170h188l42 160h-188z" />
<glyph unicode="$" d="M44 58l12 68q70 -62 165 -72v268q-51 12 -86.5 37t-51 55.5t-21.5 54t-6 44.5q0 65 43 120.5t122 69.5v47h58v-46q76 -5 148 -55l-12 -66q-63 50 -136 57v-241q80 -16 122 -75.5t42 -128.5q0 -74 -45.5 -132.5t-118.5 -70.5v-48h-58v46q-95 9 -177 68zM129 526 q0 -36 22.5 -68t69.5 -44v224q-42 -10 -67 -41.5t-25 -70.5zM279 57q44 13 67.5 48.5t23.5 76.5q0 44 -25.5 79.5t-65.5 46.5v-251z" />
<glyph unicode="%" horiz-adv-x="833" d="M56 549q0 86 42 143.5t98 57.5q55 0 96 -57.5t41 -144.5q0 -85 -41 -143t-96 -58t-97.5 57.5t-42.5 144.5zM131 548q0 -39 6 -67t13.5 -41.5t18 -21.5t16 -9t11.5 -1q29 0 48.5 41.5t19.5 99.5q0 56 -19.5 98t-48.5 42q-6 0 -12.5 -1.5t-16.5 -10t-17.5 -22.5t-13 -41.5 t-5.5 -65.5zM176 -36l7 18l435 752q11 16 21 16q8 0 14 -6t6 -14q0 -6 -8 -18l-434 -752q-9 -16 -21 -16q-8 0 -14 6t-6 14zM499 146q0 86 42 143.5t98 57.5q55 0 96 -57.5t41 -144.5q0 -85 -41 -143t-96 -58t-97.5 57.5t-42.5 144.5zM574 145q0 -39 6 -67t13.5 -41.5 t18 -21.5t16 -9t11.5 -1q29 0 48.5 41.5t19.5 99.5q0 56 -19.5 98t-48.5 42q-6 0 -12.5 -1.5t-16.5 -10t-17.5 -22.5t-13 -41.5t-5.5 -65.5z" />
<glyph unicode="&#x26;" horiz-adv-x="758" d="M42 146q0 62 45 111q7 8 46.5 41.5t49.5 43.5l9 11q-30 100 -30 165q0 83 38 140.5t100 57.5q57 0 93 -48t36 -109q0 -47 -36.5 -97t-114.5 -119q52 -110 156 -221q56 45 102 123q40 63 67 160l62 -18q-56 -197 -183 -308q53 -37 104 -37q58 0 115 18v-67 q-60 -15 -116 -15q-85 0 -161 58q-102 -58 -199 -58q-78 0 -130.5 49.5t-52.5 118.5zM120 153q0 -43 28 -77t78 -34q74 0 147 38q-11 11 -34.5 38.5t-60.5 79t-59 94.5q-64 -55 -65 -57q-34 -32 -34 -82zM227 552q0 -78 27 -148q53 48 79.5 84.5t26.5 71.5q0 18 -3.5 36.5 t-18.5 38.5t-39 20q-27 0 -49.5 -26t-22.5 -77z" />
<glyph unicode="'" horiz-adv-x="278" d="M100 430v286h78v-286h-78z" />
<glyph unicode="(" horiz-adv-x="389" d="M79 250q0 160 47 286q16 43 36 79.5t43 64t35 40t31 30.5h61q-88 -88 -131 -209q-44 -127 -44 -291q0 -92 14.5 -172t32.5 -129.5t46.5 -95t44 -63.5t37.5 -40h-61q-192 176 -192 500z" />
<glyph unicode=")" horiz-adv-x="389" d="M56 -250q88 88 131 209q44 127 44 291q0 92 -14.5 172t-32.5 129.5t-46.5 95t-44 63.5t-37.5 40h61q192 -176 192 -500q0 -160 -47 -286q-16 -43 -36 -79.5t-43 -64t-35 -40t-31 -30.5h-61z" />
<glyph unicode="*" d="M64 436q0 13 5.5 19t20.5 14l109 59q-33 18 -64 34t-42.5 22.5t-14.5 8.5q-14 9 -14 27q0 17 11 26.5t23 9.5t27 -11l98 -69q-8 120 -8 139q0 17 10.5 26t24.5 9q12 0 23 -8.5t11 -26.5q0 -19 -8 -139l96 67q18 13 29 13q12 0 23 -9.5t11 -26.5q0 -13 -5.5 -19t-20.5 -14 l-109 -59q33 -18 64 -34t42.5 -22.5t14.5 -8.5q14 -9 14 -27q0 -17 -11 -26.5t-23 -9.5q-11 0 -32 16l-93 64q8 -120 8 -139q0 -17 -10.5 -26t-24.5 -9q-12 0 -23 8.5t-11 26.5q0 19 8 139l-96 -67q-18 -13 -29 -13q-12 0 -23 9.5t-11 26.5z" />
<glyph unicode="+" horiz-adv-x="778" d="M56 250q0 20 33 20h280v280q0 33 20 33t20 -33v-280h279q33 0 33 -20t-33 -20h-279v-280q0 -33 -20 -33t-20 33v280h-280q-33 0 -33 20z" />
<glyph unicode="," horiz-adv-x="278" d="M97 0v83h83v-82l-42 -126h-41l25 125h-25z" />
<glyph unicode="-" horiz-adv-x="333" d="M11 193v58h265v-58h-265z" />
<glyph unicode="." horiz-adv-x="278" d="M97 0v83h83v-83h-83z" />
<glyph unicode="/" d="M56 -230q0 5 5 18l341 942q6 20 21 20q8 0 14 -6t6 -14q0 -5 -5 -18l-341 -942q-6 -20 -21 -20q-8 0 -14 6t-6 14z" />
<glyph unicode="0" d="M42 326q0 152 38 236q28 62 74 89t96 27q44 0 88.5 -23.5t72.5 -75.5q46 -89 46 -253q0 -151 -40 -238q-24 -52 -68.5 -81t-99.5 -29q-32 0 -61.5 10t-61 39t-50.5 74q-34 83 -34 225zM120 338q0 -128 17 -189q31 -110 113 -110q80 0 111 107q18 63 18 192t-19 185 q-6 15 -10.5 23.5t-17.5 28.5t-34.5 31t-48.5 11q-80 0 -112 -101q-17 -55 -17 -178z" />
<glyph unicode="1" d="M89 554v58q131 5 190 66h20v-620h125v-58h-329v58h125v520q-51 -22 -131 -24z" />
<glyph unicode="2" d="M42 514q46 164 194 164q96 0 154.5 -62.5t58.5 -152.5q0 -39 -17.5 -76.5t-33.5 -56t-48 -50.5q-9 -9 -44 -39t-45 -39q-7 -6 -63.5 -61t-75.5 -71h109q6 0 18 0.5t18 0.5h182v-71h-399v64l124 124l77 71q30 31 44.5 46.5t34.5 43.5t28.5 55t8.5 57q0 62 -39 107.5 t-106 45.5q-33 0 -57 -12.5t-39.5 -37t-24.5 -48t-18 -57.5q-12 17 -20 27t-21 28z" />
<glyph unicode="3" d="M42 82l11 60q32 -49 85 -76t107 -27q56 0 89.5 41t33.5 101q0 22 -5.5 44t-18.5 45.5t-40.5 38.5t-65.5 15h-71v61q75 6 79 7q45 10 73.5 48.5t28.5 85.5q0 45 -29.5 69.5t-71.5 24.5q-48 0 -91 -28t-64 -78l-36 54q31 52 82.5 81t109.5 29q75 0 128.5 -44t53.5 -108 q0 -50 -28 -96.5t-83 -75.5q56 -17 97 -63.5t41 -110.5q0 -81 -60.5 -141.5t-149.5 -60.5q-124 0 -205 104z" />
<glyph unicode="4" d="M28 171v61l253 424h91v-424h99v-61h-99v-171h-79v171h-265zM106 232h193v380q-1 -63 -193 -380z" />
<glyph unicode="5" d="M39 76l33 56q22 -41 65 -67t92 -26q8 0 17.5 1t32 10t38.5 24.5t29.5 49.5t13.5 81q0 83 -30 122t-71 39q-40 0 -69 -22.5t-43 -56.5h-66v369h335v-64h-263v-206q46 41 107 41q78 0 133.5 -65.5t55.5 -158.5q0 -94 -64.5 -159.5t-154.5 -65.5q-59 0 -109 27t-82 71z" />
<glyph unicode="6" d="M42 322q0 157 79 256.5t188 99.5q55 0 106 -20v-59q-53 21 -105 21q-72 0 -123.5 -62.5t-60.5 -178.5q68 83 169 83q70 0 116 -70.5t46 -169.5q0 -58 -14.5 -97.5t-49.5 -78.5q-59 -68 -142 -68q-28 0 -54.5 8t-55.5 31.5t-50 60.5t-35 100t-14 144zM127 219 q2 -23 6.5 -44t16.5 -56.5t38 -57.5t63 -22q62 0 100 62q24 41 24 121q0 76 -23 117q-34 62 -96 62q-59 0 -93.5 -47t-34.5 -107q-1 -12 -1 -28z" />
<glyph unicode="7" d="M42 585v71h415v-65q-35 -39 -68.5 -91t-70.5 -128.5t-59.5 -176.5t-22.5 -206h-84q0 336 237 597h-121q-6 0 -18 -0.5t-18 -0.5h-190z" />
<glyph unicode="8" d="M42 180q0 62 39.5 108.5t97.5 66.5q-62 20 -92.5 61.5t-30.5 86.5q0 71 56 123t138 52q80 0 136.5 -52t56.5 -123q0 -45 -30.5 -86.5t-92.5 -61.5q56 -19 96.5 -65t40.5 -110q0 -81 -60 -141.5t-148 -60.5q-86 0 -146.5 60t-60.5 142zM123 181q0 -68 36 -105t91 -37 q52 0 89 36.5t37 105.5q0 71 -38.5 107t-88.5 36q-48 0 -87 -35.5t-39 -107.5zM126 503q0 -53 33.5 -85.5t90.5 -32.5q55 0 89 32.5t34 85.5q0 51 -33.5 84t-90.5 33q-55 0 -89 -32.5t-34 -84.5z" />
<glyph unicode="9" d="M42 434q0 107 65 177q63 67 146 67q36 0 68.5 -15t64.5 -50.5t51.5 -107t19.5 -170.5q0 -158 -75 -257.5t-177 -99.5q-70 0 -133 46l31 53q46 -38 103 -38q64 0 111.5 61.5t55.5 176.5q-32 -40 -77 -61.5t-92 -21.5q-70 0 -116 70.5t-46 169.5zM124 434q0 -78 23 -119 q34 -60 96 -60q57 0 92.5 46t35.5 110q0 17 -1 24q-1 25 -6 51t-16 59t-36 54t-59 21q-61 0 -100 -57q-29 -46 -29 -129z" />
<glyph unicode=":" horiz-adv-x="278" d="M97 0v83h83v-83h-83zM97 361v83h83v-83h-83z" />
<glyph unicode=";" horiz-adv-x="278" d="M97 0v83h83v-82l-42 -126h-41l25 125h-25zM97 361v83h83v-83h-83z" />
<glyph unicode="&#x3c;" horiz-adv-x="778" d="M83 250q0 13 19 22l554 261q13 7 18 7q8 0 14 -6t6 -14q0 -12 -19 -22l-525 -248l525 -248q19 -10 19 -22q0 -8 -6 -14t-14 -6q-5 0 -18 7l-554 261q-19 9 -19 22z" />
<glyph unicode="=" horiz-adv-x="778" d="M56 150q0 20 34 20h597q34 0 34 -20t-33 -20h-599q-33 0 -33 20zM56 350q0 20 33 20h599q33 0 33 -20t-34 -20h-597q-34 0 -34 20z" />
<glyph unicode="&#x3e;" horiz-adv-x="778" d="M83 -20q0 12 19 22l525 248l-525 248q-19 10 -19 22q0 8 6 14t14 6q5 0 18 -7l554 -261q19 -9 19 -22t-19 -22l-554 -261q-13 -7 -18 -7q-8 0 -14 6t-6 14z" />
<glyph unicode="?" horiz-adv-x="472" d="M56 652q78 53 168 53q102 0 146.5 -46.5t44.5 -108.5q0 -72 -57 -120q-103 -87 -103 -201v-54h-67v32q0 171 114 268q35 32 35 76q0 93 -113 93q-85 0 -145 -55zM180 0v83h83v-83h-83z" />
<glyph unicode="@" horiz-adv-x="667" d="M56 347q0 150 99 254t232 104q223 0 223 -343q0 -65 -19 -115t-48.5 -76t-59.5 -38.5t-58 -12.5q-75 0 -130 65.5t-55 161.5t55 161.5t130 65.5q44 0 84 -25q-34 95 -123 95q-101 0 -178 -85t-77 -212q0 -123 75 -210t185 -87q74 0 146 31q8 4 25 4h48 q-33 -37 -90.5 -66.5t-131.5 -29.5q-136 0 -234 104t-98 254zM315 347q0 -70 32.5 -118t77.5 -48t77.5 48t32.5 118t-32.5 118t-77.5 48t-77.5 -48t-32.5 -118z" />
<glyph unicode="A" horiz-adv-x="667" d="M28 0l261 694h88l261 -694h-92l-76 204h-291l-77 -204h-74zM200 260h248l-91 257q-29 83 -32 105h-1q-6 -33 -59 -181q-25 -72 -32 -91t-33 -90z" />
<glyph unicode="B" horiz-adv-x="667" d="M97 0v694h237q105 0 177 -52t72 -122q0 -55 -47 -97t-119 -60q81 -13 137 -62t56 -113q0 -75 -71.5 -131.5t-177.5 -56.5h-264zM180 56h153q81 0 138.5 38.5t57.5 94.5q0 59 -61.5 100t-142.5 41h-145v-274zM180 391h116q97 0 153 39t56 89t-58 84.5t-141 34.5h-126v-247 z" />
<glyph unicode="C" horiz-adv-x="639" d="M67 347q0 151 93 260t234 109q91 0 183 -35l-15 -81q-81 52 -169 52q-102 0 -169.5 -90t-67.5 -215q0 -122 66 -213.5t174 -91.5q55 0 94.5 12t91.5 49l6 -69q-54 -33 -93 -44.5t-100 -11.5q-142 0 -235 110t-93 259z" />
<glyph unicode="D" horiz-adv-x="722" d="M96 0v694h262q128 0 217.5 -103.5t89.5 -249.5q0 -142 -89.5 -241.5t-216.5 -99.5h-263zM182 56h153q106 0 175 79.5t69 205.5q0 131 -69 214t-175 83h-153v-582z" />
<glyph unicode="E" horiz-adv-x="597" d="M94 0v691h446v-65h-183q-6 0 -18 0.5t-18 0.5h-138v-237h330v-61h-330v-259h209q6 0 18 0.5t18 0.5h126v-71h-460z" />
<glyph unicode="F" horiz-adv-x="569" d="M94 0v691h432v-65h-176q-6 0 -18 0.5t-18 0.5h-131v-251h302v-61h-302v-315h-89z" />
<glyph unicode="G" horiz-adv-x="667" d="M67 347q0 152 93.5 260.5t232.5 108.5q44 0 83 -8t58.5 -16t56.5 -25l-15 -81q-80 66 -184 66q-101 0 -168.5 -89.5t-67.5 -215.5t67.5 -215.5t168.5 -89.5q63 0 129 20v176h-132v61h210v-272q-101 -49 -208 -49q-135 0 -229.5 108t-94.5 261z" />
<glyph unicode="H" horiz-adv-x="708" d="M94 0v694h89v-303h341v303h89v-694h-89v330h-341v-330h-89z" />
<glyph unicode="I" horiz-adv-x="278" d="M94 0v694h89v-694h-89z" />
<glyph unicode="J" horiz-adv-x="472" d="M42 20l14 75q50 -56 128 -56q33 0 57.5 10.5t35.5 23.5t17.5 32t7 28t0.5 19v542h86v-545q0 -83 -47.5 -127t-127.5 -44q-87 0 -171 42z" />
<glyph unicode="K" horiz-adv-x="694" d="M96 0v694h85v-371l363 371h93l-268 -274l282 -420h-92l-245 364l-133 -137v-227h-85z" />
<glyph unicode="L" horiz-adv-x="542" d="M94 0v694h89v-630h49l267 2v-66h-405z" />
<glyph unicode="M" horiz-adv-x="875" d="M100 0v694h113q38 -98 109.5 -286.5t81.5 -214.5q25 -69 32 -100h1q12 52 93 262l130 339h114v-694h-78v620l-1 1q-1 -6 -42 -124q-11 -29 -181 -475h-73l-148 389q-64 168 -72 209h-1v-620h-78z" />
<glyph unicode="N" horiz-adv-x="708" d="M96 0v694h124q35 -70 98.5 -196t116 -230t97.5 -197h1v623h78v-694h-124q-35 70 -98.5 196t-116 230t-97.5 197h-1v-623h-78z" />
<glyph unicode="O" horiz-adv-x="736" d="M56 345q0 155 92 263t220 108q126 0 218.5 -108t92.5 -263t-92.5 -261t-219.5 -106q-125 0 -218 105.5t-93 261.5zM145 360q0 -140 65.5 -228.5t157.5 -88.5q90 0 156 88t66 229q0 130 -66 211t-157 81q-89 0 -155.5 -80.5t-66.5 -211.5z" />
<glyph unicode="P" horiz-adv-x="639" d="M96 0v694h249q101 0 169 -60t68 -142q0 -84 -68 -143.5t-162 -59.5h-167v-289h-89zM182 347h141q83 0 130.5 41.5t47.5 103.5q0 65 -48.5 105.5t-129.5 40.5h-141v-291z" />
<glyph unicode="Q" horiz-adv-x="736" d="M56 345q0 155 92 263t220 108q126 0 218.5 -108t92.5 -263q0 -87 -35 -169.5t-111 -142.5l119 -158h-103l-86 121q-46 -18 -96 -18q-125 0 -218 105.5t-93 261.5zM142 345q0 -135 67 -219t159 -84q13 0 27 2t21 4l8 3l-101 143h89l79 -105q102 93 102 256 q0 135 -66.5 221t-159.5 86q-91 0 -158 -86t-67 -221z" />
<glyph unicode="R" horiz-adv-x="646" d="M96 0v694h241q106 0 179 -55.5t73 -130.5q0 -61 -46.5 -110t-123.5 -72l198 -326h-89l-188 317h-158v-317h-86zM182 378h144q85 0 133.5 37t48.5 93q0 55 -49 92.5t-133 37.5h-144v-260z" />
<glyph unicode="S" horiz-adv-x="556" d="M44 47l15 81q96 -81 215 -81q65 0 105.5 40t40.5 92q0 57 -42 93q-21 18 -39.5 25.5t-83.5 23.5q-53 13 -84.5 26.5t-60.5 44.5q-54 57 -54 127q0 78 63 137.5t163 59.5t183 -50l-15 -80q-76 64 -169 64q-66 0 -106 -36t-40 -83q0 -49 35 -79q21 -18 39 -25.5t65 -18.5 q76 -19 107.5 -33t64.5 -49q53 -58 53 -137q0 -85 -64 -148t-160 -63q-121 0 -231 69z" />
<glyph unicode="T" horiz-adv-x="681" d="M36 623v65h608v-65h-134q-6 0 -18 0.5t-18 0.5h-89v-624h-89v624h-90q-6 0 -18 -0.5t-18 -0.5h-134z" />
<glyph unicode="U" horiz-adv-x="688" d="M94 233v461h89v-462q0 -95 48.5 -146.5t115.5 -51.5q68 0 118 52t50 146v462h78v-461q0 -108 -72.5 -181.5t-174.5 -73.5q-103 0 -177.5 73.5t-74.5 181.5z" />
<glyph unicode="V" horiz-adv-x="667" d="M14 694h93l173 -448q54 -144 60 -174h1q9 48 100 280l133 342h78l-273 -694h-92z" />
<glyph unicode="W" horiz-adv-x="944" d="M14 694h86q98 -341 128 -449q37 -154 39 -171h1q5 56 77 308l90 312h81l98 -341q29 -101 47 -171.5t21 -89.5l4 -20h1q6 57 79 308l91 314h72l-203 -694h-87l-115 401q-48 170 -55 220h-1q-6 -51 -70 -274l-100 -347h-81z" />
<glyph unicode="X" horiz-adv-x="667" d="M14 0l269 366l-255 328h104l194 -261l188 261h96l-241 -328l283 -366h-104l-222 306l-216 -306h-96z" />
<glyph unicode="Y" horiz-adv-x="667" d="M3 694h105l198 -290q8 -11 36 -57l61 95q13 20 17 26l155 226h88l-287 -417v-277h-86v278z" />
<glyph unicode="Z" horiz-adv-x="611" d="M56 0v43l385 590h-136q-6 0 -18 -0.5t-18 -0.5h-200v62h485v-41l-385 -589h32l263 2h96v-66h-504z" />
<glyph unicode="[" horiz-adv-x="289" d="M102 -250v1000h164v-61h-92v-878h92v-61h-164z" />
<glyph unicode="\" d="M56 730q0 8 6 14t14 6q14 0 22 -22l340 -940l5 -18q0 -8 -6 -14t-14 -6q-14 0 -22 22l-340 940z" />
<glyph unicode="]" horiz-adv-x="289" d="M22 -189h92v878h-92v61h164v-1000h-164v61z" />
<glyph unicode="^" horiz-adv-x="556" d="M-5 584l283 160l283 -160l-12 -22l-272 123l-271 -123z" />
<glyph unicode="_" horiz-adv-x="667" d="M0 -86h667v-78h-667v78z" />
<glyph unicode="`" d="M109 694h78l133 -167h-61z" />
<glyph unicode="a" horiz-adv-x="481" d="M44 113q0 63 78.5 96.5t198.5 35.5v43q0 53 -25 83.5t-62 30.5q-81 0 -151 -50l-6 66q75 43 157 43q70 0 117.5 -48.5t47.5 -123.5v-289h-75v36q-61 -47 -166 -47q-58 0 -86 40.5t-28 83.5zM116 115q0 -30 27.5 -47.5t65.5 -17.5q47 0 78 19q34 19 34 63v62 q-205 -10 -205 -79z" />
<glyph unicode="b" horiz-adv-x="517" d="M82 0v694h75v-298q72 59 161 59q69 0 115.5 -68.5t46.5 -163.5q0 -99 -55 -166.5t-131 -67.5q-72 0 -134 57v-46h-78zM160 114q35 -64 97 -64q55 0 100 42.5t45 130.5q0 87 -41 129t-94 42q-68 0 -107 -59v-221z" />
<glyph unicode="c" horiz-adv-x="444" d="M36 222q0 95 60.5 167t159.5 72q46 0 78 -9t76 -34l-12 -65q-40 26 -70 35t-71 9q-50 0 -83.5 -28t-46.5 -65.5t-13 -80.5q0 -74 38.5 -122t100.5 -48q87 0 156 54l6 -67q-74 -51 -163 -51q-92 0 -154 69t-62 164z" />
<glyph unicode="d" horiz-adv-x="517" d="M36 222q0 97 51.5 165t125.5 68q80 0 146 -55v294h75v-694h-78v52q-65 -63 -148 -63q-72 0 -122 67.5t-50 165.5zM114 221q0 -86 40.5 -128.5t94.5 -42.5q42 0 74 28q33 30 33 61v200q-38 55 -97 55q-55 0 -100 -42t-45 -131z" />
<glyph unicode="e" horiz-adv-x="444" d="M35 226q0 97 59 166t142 69q90 0 138 -73q40 -62 40 -169h-309q2 -73 44.5 -121t102.5 -48q84 0 152 56l6 -65q-72 -52 -159 -52q-90 0 -153 69t-63 168zM110 274h247q-9 64 -43 95t-78 31q-43 0 -78.5 -35t-47.5 -91z" />
<glyph unicode="f" horiz-adv-x="306" d="M27 386v58h74v90q0 74 47.5 122.5t118.5 48.5q36 0 80 -11v-67q-39 17 -81 17q-13 0 -26 -2.5t-29.5 -10t-27 -25t-10.5 -43.5v-119h113v-58h-110v-386h-75v386h-74z" />
<glyph unicode="g" d="M28 -71q0 65 64 103q-26 32 -26 76t29 85q-33 43 -33 99q0 68 47 115.5t112 47.5q55 0 95 -32q74 32 158 32l11 -63q-41 3 -59 3q-12 0 -37.5 -2t-36.5 -2l-4 1q33 -45 33 -100q0 -67 -46.5 -115t-113.5 -48q-50 0 -91 29q-11 -14 -11 -36q0 -53 58 -53h88q17 0 29.5 -1 t40.5 -4t48.5 -12.5t42 -23.5t33.5 -39.5t12 -58.5q0 -57 -64.5 -96.5t-157.5 -39.5q-92 0 -156.5 39.5t-64.5 95.5zM98 -71q0 -34 44.5 -56t107.5 -22q62 0 106.5 22t44.5 55q0 69 -135 69h-90q-22 0 -38 -7t-23.5 -15.5t-11.5 -20.5t-4.5 -16.5t-0.5 -8.5zM132 292 q0 -56 27.5 -81t61.5 -25q37 0 63.5 26t26.5 80t-26.5 80t-63.5 26q-34 0 -61.5 -25t-27.5 -81z" />
<glyph unicode="h" horiz-adv-x="517" d="M81 0v694h75v-311q56 72 142 72q137 0 137 -157v-298h-78v291q0 14 -0.5 23.5t-6 26t-15 27t-29 18.5t-46.5 8q-52 0 -76.5 -45t-24.5 -104v-245h-78z" />
<glyph unicode="i" horiz-adv-x="239" d="M75 566v89h89v-89h-89zM81 0v444h75v-444h-75z" />
<glyph unicode="j" horiz-adv-x="267" d="M-61 -171l21 61q32 -31 74 -31q10 0 20 2t24 8.5t22.5 22.5t8.5 39v513h75v-503q0 -67 -37.5 -106.5t-87.5 -39.5q-62 0 -120 34zM95 566v89h89v-89h-89z" />
<glyph unicode="k" horiz-adv-x="489" d="M84 0v694h72v-458l203 208h90l-168 -172l190 -272h-82l-156 224l-80 -83v-141h-69z" />
<glyph unicode="l" horiz-adv-x="239" d="M81 0v694h75v-694h-75z" />
<glyph unicode="m" horiz-adv-x="794" d="M81 0v450h72v-72q58 77 146 77q100 0 128 -82q56 82 149 82q137 0 137 -157v-298h-78v291q0 19 -2.5 33t-11 32t-30 28t-54.5 10q-51 0 -76 -45t-25 -104v-245h-78v291q0 19 -2.5 33t-11 32t-30 28t-54.5 10q-51 0 -76 -45t-25 -104v-245h-78z" />
<glyph unicode="n" horiz-adv-x="517" d="M81 0v450h72v-71q57 76 145 76q137 0 137 -157v-298h-78v291q0 14 -0.5 23.5t-6 26t-15 27t-29 18.5t-46.5 8q-52 0 -76.5 -45t-24.5 -104v-245h-78z" />
<glyph unicode="o" d="M30 220q0 99 64 170t156 71q90 0 154.5 -70.5t64.5 -170.5q0 -97 -64.5 -164t-155.5 -67q-89 0 -154 66.5t-65 164.5zM108 230q0 -85 42 -131t99 -46q59 0 100.5 46.5t41.5 130.5q0 83 -42 126.5t-100 43.5q-56 0 -98.5 -43t-42.5 -127z" />
<glyph unicode="p" horiz-adv-x="517" d="M82 -194v638h75v-49q71 60 164 60q70 0 114.5 -69t44.5 -163q0 -100 -55 -167t-130 -67q-74 0 -135 57v-240h-78zM160 132q0 -20 10 -35q35 -47 86 -47q58 0 102 49t44 124q0 69 -39.5 118.5t-96.5 49.5q-66 0 -106 -58v-201z" />
<glyph unicode="q" horiz-adv-x="517" d="M36 221q0 100 55 167t131 67q35 0 68 -15.5t46.5 -28.5t22.5 -24v68h75v-649h-78v244q-67 -61 -151 -61q-71 0 -120 68t-49 164zM114 221q0 -70 39.5 -120.5t96.5 -50.5q62 0 99 57q10 13 10 33v140q0 37 -26.5 74t-73.5 37q-57 0 -101 -48t-44 -122z" />
<glyph unicode="r" horiz-adv-x="342" d="M82 0v450h70v-91q64 95 175 96v-67q-74 -2 -122 -50.5t-48 -123.5v-214h-75z" />
<glyph unicode="s" horiz-adv-x="383" d="M28 33l12 68q73 -49 155 -49q94 0 94 69q0 15 -7 27t-15.5 19t-23.5 13t-24 8t-24 5q-34 7 -47 10t-29.5 9.5t-31.5 17.5q-54 41 -54 100q0 37 15.5 63.5t35 39t47 19.5t40.5 8t28 1q75 0 144 -32l-12 -65q-64 38 -142 38q-85 0 -85 -62q0 -14 6 -25t13.5 -17.5t23 -12 t26.5 -8.5t32 -7q43 -8 66 -17t50 -33l3 -4q4 -4 8 -9t9 -13.5t9 -18t7 -22t3 -25.5q0 -70 -48 -107q-43 -32 -116 -32q-80 0 -168 44z" />
<glyph unicode="t" horiz-adv-x="361" d="M19 386v58h87v127h69v-127h141v-58h-141v-250q0 -83 51 -83q49 0 90 33l16 -59q-73 -38 -146 -38q-83 0 -83 130v267h-84z" />
<glyph unicode="u" horiz-adv-x="517" d="M81 109v335h78v-331q0 -37 14.5 -53t63.5 -16q51 0 85.5 28.5t34.5 81.5v290h78v-444h-75v48q-67 -59 -173 -59q-59 0 -82.5 30.5t-23.5 89.5z" />
<glyph unicode="v" horiz-adv-x="461" d="M14 444h78l97 -259q36 -98 42 -132h1q8 47 60 183l79 208h75l-172 -444h-88z" />
<glyph unicode="w" horiz-adv-x="683" d="M14 444h76l52 -173q49 -169 54 -216h1q5 60 49 201l57 188h70l65 -213q41 -137 46 -177h1q5 44 46 178l64 212h73l-137 -444h-88l-73 248q-29 95 -32 140h-1q-4 -47 -45 -182l-62 -206h-79z" />
<glyph unicode="x" horiz-adv-x="461" d="M0 0l194 229l-188 215h83l138 -165l134 165h82l-183 -215l200 -229h-83l-150 188l-145 -188h-82z" />
<glyph unicode="y" horiz-adv-x="461" d="M14 444h79l54 -125q8 -18 24.5 -58t39.5 -107t26 -97h1q3 69 133 387h75l-218 -535q-28 -69 -54.5 -91.5t-58.5 -22.5q-37 0 -72 8l-6 65q40 -16 78 -16q10 0 16 2t17.5 15.5t23.5 40.5l36 90z" />
<glyph unicode="z" horiz-adv-x="435" d="M28 0v41l267 345h-78q-6 0 -18 -0.5t-18 -0.5h-139v59h358v-39l-266 -344h85q6 0 18 0.5t18 0.5h147v-62h-374z" />
<glyph unicode="{" d="M72 250q0 11 14 11q63 4 104 45q19 20 22.5 42t3.5 96v183q1 53 57.5 88t133.5 35q20 0 20 -11q0 -10 -15 -10.5t-45.5 -9t-59.5 -37.5q-17 -18 -20.5 -39t-3.5 -80v-180q0 -99 -118 -133q101 -29 116 -103q2 -10 2 -91v-150q0 -37 3 -48q8 -32 39.5 -57.5t85.5 -28.5 q5 -1 7 -1t4.5 -1t3.5 -3t1 -6q0 -11 -20 -11q-85 0 -139 38q-35 25 -43.5 51t-8.5 78v198q0 35 -13.5 60.5t-35 38t-40.5 18.5t-39 7q-5 1 -7 1t-4.5 1t-3.5 3t-1 6z" />
<glyph unicode="|" horiz-adv-x="278" d="M119 -217v934q0 33 20 33t20 -33v-934q0 -33 -20 -33t-20 33z" />
<glyph unicode="}" d="M72 -239q0 10 15 10.5t45.5 9t59.5 37.5q17 18 20.5 39t3.5 80v180q0 99 118 133q-101 29 -116 103q-2 10 -2 91v150q0 37 -3 48q-8 32 -39.5 57.5t-85.5 28.5q-5 1 -7 1t-4.5 1t-3.5 3t-1 6q0 11 20 11q83 0 139 -38q35 -25 43.5 -51t8.5 -78v-198q0 -35 13.5 -60.5 t35 -38t40.5 -18.5t39 -7q5 -1 7 -1t4.5 -1t3.5 -3t1 -6q0 -11 -14 -11q-63 -4 -104 -45q-19 -20 -22.5 -42t-3.5 -96v-183q-1 -53 -57.5 -88t-133.5 -35q-20 0 -20 11z" />
<glyph unicode="~" horiz-adv-x="556" d="M0 210l54 44q20 17 57 35q40 18 73 18q41 0 103.5 -35.5t100.5 -35.5q68 0 153 71l14 -17l-54 -44q-20 -17 -57 -35q-40 -18 -73 -18q-41 0 -103.5 35.5t-100.5 35.5q-68 0 -153 -71z" />
<glyph unicode="&#xa0;" />
<glyph unicode="&#xa1;" horiz-adv-x="319" d="M118 -194l8 476v43h67v-43l8 -476h-83zM118 417v83h83v-83h-83z" />
<glyph unicode="&#xa2;" horiz-adv-x="444" d="M36 222q0 83 47.5 151t128.5 84v51h64v-47q64 -3 134 -43l-12 -65q-61 40 -122 44v-343q75 7 133 53l6 -67q-65 -44 -139 -50v-54h-64v57q-77 15 -126.5 80.5t-49.5 148.5zM114 223q0 -61 26.5 -105t71.5 -59v331q-50 -15 -74 -63t-24 -104z" />
<glyph unicode="&#xa3;" horiz-adv-x="667" d="M67 315v64h99l-20 57q-22 99 37 178.5t156 79.5q81 0 137.5 -59.5t56.5 -143.5h-78q0 52 -33.5 88.5t-82.5 36.5q-60 0 -95.5 -50t-21.5 -113q2 -13 27 -74h151v-64h-134q4 -35 0 -69q-8 -72 -55 -149q51 0 163 -27q49 -14 87 -14q29 0 45 27.5t16 64.5h78 q0 -69 -39 -119.5t-100 -50.5q-44 0 -106 16q-55 14 -87 20t-73 3t-59 -25l-61 50q103 122 114 214q4 28 -2 59h-120z" />
<glyph unicode="&#xa4;" horiz-adv-x="778" d="M153 15q-5 5 -6 10t2.5 10.5t5.5 8t8 8.5l74 75q-44 54 -44 123t44 124l-74 74q-24 24 -10 38q15 14 38 -9l75 -75q54 44 123 44q68 0 123 -44l74 74q23 23 38 9q14 -13 -10 -37l-74 -74q44 -53 44 -124q0 -70 -43 -123l74 -75q23 -23 9 -37t-37 9l-75 74 q-54 -44 -123 -44t-124 44l-74 -74q-23 -23 -38 -9zM233 250q0 -64 45.5 -110t110.5 -46q64 0 109.5 45.5t45.5 110.5t-45.5 110.5t-109.5 45.5q-65 0 -110.5 -46t-45.5 -110z" />
<glyph unicode="&#xa5;" horiz-adv-x="667" d="M3 694h105l198 -290q8 -11 27 -42h19l51 80q13 20 17 26l155 226h88l-228 -332h121v-64h-166l-14 -21v-64h180v-64h-180v-149h-86v149h-179v64h179v65l-14 20h-165v64h121z" />
<glyph unicode="&#xa6;" horiz-adv-x="278" d="M119 157q0 32 20 32t20 -32v-374q0 -33 -20 -33t-20 33v374zM119 343v374q0 33 20 33t20 -33v-374q0 -32 -20 -32t-20 32z" />
<glyph unicode="&#xa7;" horiz-adv-x="528" d="M34 300q0 88 74 142q-33 42 -33 94q0 74 56 125t133 51t133 -49.5t56 -121.5h-78q0 43 -32.5 72t-78.5 29t-78.5 -31t-32.5 -75q0 -61 97 -107l101 -46q63 -29 103 -76.5t40 -106.5q0 -89 -74 -143q33 -42 33 -93q0 -74 -56 -125t-133 -51t-133 49.5t-56 121.5h78 q0 -43 32.5 -72t78.5 -29t78.5 31t32.5 75q0 61 -97 107l-101 46q-63 29 -103 76.5t-40 106.5zM112 300q0 -66 97 -112l101 -46q31 -16 58 -35q48 32 48 93q0 66 -97 112l-101 46q-35 18 -58 34q-48 -30 -48 -92z" />
<glyph unicode="&#xa8;" d="M137 571v80h80v-80h-80zM283 571v80h80v-80h-80z" />
<glyph unicode="&#xa9;" horiz-adv-x="694" d="M0 347q0 144 101.5 245.5t245.5 101.5t245.5 -101.5t101.5 -245.5t-101.5 -245.5t-245.5 -101.5t-245.5 101.5t-101.5 245.5zM38 347q0 -128 90.5 -218.5t218.5 -90.5t218.5 90.5t90.5 218.5t-90.5 218.5t-218.5 90.5t-218.5 -90.5t-90.5 -218.5zM163 347q0 95 58.5 164 t147.5 69q59 0 115 -23l-9 -51q-52 33 -107 33q-64 0 -106.5 -56.5t-42.5 -135.5q0 -77 41.5 -134.5t109.5 -57.5q34 0 59 8t58 31l4 -44q-33 -21 -58 -28t-63 -7q-90 0 -148.5 69t-58.5 163z" />
<glyph unicode="&#xaa;" horiz-adv-x="372" d="M37 473q0 44 66.5 67.5t166.5 24.5v30q0 37 -21 58.5t-52 21.5q-69 0 -127 -35l-5 46q62 30 132 30q59 0 98.5 -33.5t39.5 -86.5v-202h-63v25q-51 -33 -139 -33q-49 0 -72.5 28.5t-23.5 58.5zM69 334q0 9 9.5 15.5t22.5 6.5h170q13 0 22.5 -6.5t9.5 -15.5q0 -10 -9 -16.5 t-23 -6.5h-170q-14 0 -23 6.5t-9 16.5zM97 474q0 -21 23 -33t56 -12q41 0 65 13q29 13 29 44v44q-173 -10 -173 -56z" />
<glyph unicode="&#xab;" d="M111 219l105 220h61l-88 -220l88 -219h-61zM278 219l105 220h61l-88 -220l88 -219h-61z" />
<glyph unicode="&#xac;" horiz-adv-x="778" d="M56 350q0 8 6 14t14 6h625q8 0 14 -6t6 -14v-200q0 -8 -6 -14t-14 -6t-14 6t-6 14v180h-605q-8 0 -14 6t-6 14z" />
<glyph unicode="&#xad;" horiz-adv-x="333" d="M11 193v58h265v-58h-265z" />
<glyph unicode="&#xae;" horiz-adv-x="694" d="M0 347q0 144 101.5 245.5t245.5 101.5t245.5 -101.5t101.5 -245.5t-101.5 -245.5t-245.5 -101.5t-245.5 101.5t-101.5 245.5zM38 347q0 -128 90.5 -218.5t218.5 -90.5t218.5 90.5t90.5 218.5t-90.5 218.5t-218.5 90.5t-218.5 -90.5t-90.5 -218.5zM198 129v437h152 q67 0 113 -35t46 -82q0 -38 -29.5 -69.5t-77.5 -45.5l124 -205h-56l-118 199h-100v-199h-54zM252 367h91q54 0 84.5 23.5t30.5 58.5q0 34 -31 57.5t-84 23.5h-91v-163z" />
<glyph unicode="&#xaf;" d="M70 579v64h361v-64h-361z" />
<glyph unicode="&#xb0;" horiz-adv-x="375" d="M49 556q0 57 40.5 97.5t98.5 40.5q57 0 97.5 -40.5t40.5 -97.5q0 -58 -40.5 -98.5t-97.5 -40.5q-58 0 -98.5 40.5t-40.5 98.5zM89 556q0 -41 29 -70t70 -29t69.5 29t28.5 70q0 40 -29 69t-69 29q-41 0 -70 -28.5t-29 -69.5z" />
<glyph unicode="&#xb1;" horiz-adv-x="778" d="M56 20q0 20 33 20h280v273h-280q-33 0 -33 20t33 20h280v280q0 33 20 33t20 -33v-280h279q33 0 33 -20t-33 -20h-279v-273h279q33 0 33 -20t-33 -20h-599q-33 0 -33 20z" />
<glyph unicode="&#xb2;" horiz-adv-x="354" d="M30 618q34 98 140 98q69 0 111 -37.5t42 -91.5q0 -18 -5.5 -33.5t-19 -31t-21 -22.5t-25.5 -22q-7 -6 -32 -24t-32 -23q-77 -63 -100 -79h235v-42h-287v38l89 74l56 43q22 19 31.5 28t24.5 26t21 33t6 34q0 38 -27.5 65t-76.5 27q-24 0 -41.5 -7.5t-28.5 -22.5 t-17.5 -28.5t-12.5 -34.5q-10 11 -16 17.5t-14 15.5z" />
<glyph unicode="&#xb3;" horiz-adv-x="359" d="M30 359l8 36q23 -30 61 -46t77 -16q41 0 65 24.5t24 60.5q0 31 -21 58.5t-73 27.5h-51v37l57 4q32 6 53 29t21 51t-21.5 42.5t-51.5 14.5q-35 0 -66 -17t-46 -47l-26 32q49 66 139 66q54 0 92.5 -26t38.5 -65q0 -30 -20.5 -57.5t-59.5 -45.5q41 -11 70 -38.5t29 -65.5 q0 -49 -43.5 -85.5t-107.5 -36.5q-89 0 -148 63z" />
<glyph unicode="&#xb4;" d="M180 527l133 167h78l-150 -167h-61z" />
<glyph unicode="&#xb5;" horiz-adv-x="517" d="M81 -194v638h78v-329q0 -38 14 -54.5t64 -16.5t85 27.5t35 84.5v288h78v-444h-75v48q-66 -59 -173 -59q-18 0 -28 2v-185h-78z" />
<glyph unicode="&#xb6;" horiz-adv-x="611" d="M56 463q0 95 73 163t177 68h243q33 0 33 -20t-33 -20h-50v-815q0 -33 -20 -33t-20 33v815h-70v-815q0 -33 -20 -33t-20 33v391q-50 2 -100 17t-94 42t-71.5 72.5t-27.5 101.5z" />
<glyph unicode="&#xb7;" horiz-adv-x="778" d="M347 306v83h83v-83h-83z" />
<glyph unicode="&#xb8;" horiz-adv-x="444" d="M145 -192l74 168h61l-66 -168h-69z" />
<glyph unicode="&#xb9;" horiz-adv-x="369" d="M64 642v35q94 3 137 39h14v-372h90v-34h-237v34h90v312q-35 -12 -94 -14z" />
<glyph unicode="&#xba;" horiz-adv-x="419" d="M25 548q0 69 54 118.5t131 49.5q76 0 130 -49t54 -119q0 -68 -54.5 -115t-130.5 -47q-75 0 -129.5 46.5t-54.5 115.5zM57 334q0 9 9.5 15.5t22.5 6.5h241q13 0 22.5 -6.5t9.5 -15.5q0 -10 -9 -16.5t-23 -6.5h-241q-13 0 -22.5 6.5t-9.5 16.5zM91 555q0 -60 35 -92t83 -32 q50 0 84.5 32.5t34.5 91.5q0 58 -35 88.5t-84 30.5q-46 0 -82 -30.5t-36 -88.5z" />
<glyph unicode="&#xbb;" d="M56 0l88 219l-88 220h61l105 -220l-105 -219h-61zM223 0l88 219l-88 220h61l105 -220l-105 -219h-61z" />
<glyph unicode="&#xbc;" horiz-adv-x="788" d="M64 642v35q94 3 137 39h14v-372h90v-34h-237v34h90v312q-35 -12 -94 -14zM210 20l400 654h47l-400 -654h-47zM405 103v36l182 255h65v-255h71v-36h-71v-103h-57v103h-190zM461 139h139v228q-1 -34 -139 -228z" />
<glyph unicode="&#xbd;" horiz-adv-x="788" d="M64 642v35q94 3 137 39h14v-372h90v-34h-237v34h90v312q-35 -12 -94 -14zM170 20l400 654h47l-400 -654h-47zM430 308q34 99 140 99q69 0 111 -37.5t42 -91.5q0 -24 -12.5 -46t-24.5 -34t-34 -30q-6 -5 -18.5 -14t-26 -19t-19.5 -14l-100 -79h79q4 0 12.5 0.5t12.5 0.5 h131v-43h-287v38l89 75l56 42q28 24 42 37.5t27.5 37t13.5 47.5t-11.5 44t-35.5 33.5t-57 13.5q-23 0 -40.5 -7.5t-29 -22t-18 -28.5t-12.5 -35q-8 10 -11 13.5t-7.5 7.5t-11.5 12z" />
<glyph unicode="&#xbe;" horiz-adv-x="788" d="M60 359l8 36q23 -30 61.5 -46t77.5 -16q40 0 64 24.5t24 60.5q0 31 -21 58.5t-72 27.5h-52v37l57 4q32 6 53 29t21 51t-21 42.5t-52 14.5q-35 0 -66 -17t-46 -47l-25 32q47 66 138 66q54 0 92.5 -26t38.5 -65q0 -30 -20 -57.5t-60 -45.5q41 -11 70 -38.5t29 -65.5 q0 -49 -43.5 -85.5t-107.5 -36.5q-89 0 -148 63zM210 20l400 654h47l-400 -654h-47zM405 103v36l182 255h65v-255h71v-36h-71v-103h-57v103h-190zM461 139h139v228q-1 -34 -139 -228z" />
<glyph unicode="&#xbf;" horiz-adv-x="472" d="M56 -50q0 71 49 120q83 84 83 198v57h67v-32q0 -165 -91 -266q-30 -32 -30 -79q0 -49 21 -70.5t69 -21.5q92 0 168 55l23 -63q-91 -53 -192 -53q-87 0 -127 43.5t-40 111.5zM180 417v83h83v-83h-83z" />
<glyph unicode="&#xc0;" horiz-adv-x="667" d="M28 0l261 694h88l261 -694h-92l-76 204h-291l-77 -204h-74zM142 868h111l175 -122h-89zM200 260h248l-91 257q-29 83 -32 105h-1q-6 -33 -59 -181q-25 -72 -32 -91t-33 -90z" />
<glyph unicode="&#xc1;" horiz-adv-x="667" d="M28 0l261 694h88l261 -694h-92l-76 204h-291l-77 -204h-74zM200 260h248l-91 257q-29 83 -32 105h-1q-6 -33 -59 -181q-25 -72 -32 -91t-33 -90zM238 746l175 122h111l-197 -122h-89z" />
<glyph unicode="&#xc2;" horiz-adv-x="667" d="M28 0l261 694h88l261 -694h-92l-76 204h-291l-77 -204h-74zM177 736l126 134h60l126 -134h-59l-97 97l-97 -97h-59zM200 260h248l-91 257q-29 83 -32 105h-1q-6 -33 -59 -181q-25 -72 -32 -91t-33 -90z" />
<glyph unicode="&#xc3;" horiz-adv-x="667" d="M28 0l261 694h88l261 -694h-92l-76 204h-291l-77 -204h-74zM167 736q1 55 30.5 87t67.5 32q26 0 70.5 -29t64.5 -29q37 0 39 58h61q-1 -55 -30.5 -87t-67.5 -32q-26 0 -70.5 29t-64.5 29q-37 0 -39 -58h-61zM200 260h248l-91 257q-29 83 -32 105h-1q-6 -33 -59 -181 q-25 -72 -32 -91t-33 -90z" />
<glyph unicode="&#xc4;" horiz-adv-x="667" d="M28 0l261 694h88l261 -694h-92l-76 204h-291l-77 -204h-74zM200 260h248l-91 257q-29 83 -32 105h-1q-6 -33 -59 -181q-25 -72 -32 -91t-33 -90zM206 736v80h80v-80h-80zM380 736v80h80v-80h-80z" />
<glyph unicode="&#xc5;" horiz-adv-x="667" d="M28 0l261 694h44q-47 0 -79 24.5t-32 60.5q0 33 32 58t79 25t79 -24.5t32 -60.5q0 -33 -32 -58t-79 -25h44l261 -694h-92l-76 204h-291l-77 -204h-74zM200 260h248l-91 257q-29 83 -32 105h-1q-6 -33 -59 -181q-25 -72 -32 -91t-33 -90zM283 778q0 -37 50 -37t50 37 t-50 37t-50 -37z" />
<glyph unicode="&#xc6;" horiz-adv-x="861" d="M28 0l284 694h492v-65h-153q-6 0 -18 0.5t-18 0.5h-108v-239h270v-61h-270v-260h170q6 0 18 0.5t18 0.5h105v-71h-399v222h-225l-91 -222h-75zM217 278h202v352h-58z" />
<glyph unicode="&#xc7;" horiz-adv-x="639" d="M67 347q0 151 93 260t234 109q91 0 183 -35l-15 -81q-81 52 -169 52q-102 0 -169.5 -90t-67.5 -215q0 -122 66 -213.5t174 -91.5q55 0 94.5 12t91.5 49l6 -69q-54 -33 -93 -44.5t-100 -11.5q-142 0 -235 110t-93 259zM263 -214l74 168h61l-66 -168h-69z" />
<glyph unicode="&#xc8;" horiz-adv-x="597" d="M94 0v691h446v-65h-183q-6 0 -18 0.5t-18 0.5h-138v-237h330v-61h-330v-259h209q6 0 18 0.5t18 0.5h126v-71h-460zM108 868h111l175 -122h-89z" />
<glyph unicode="&#xc9;" horiz-adv-x="597" d="M94 0v691h446v-65h-183q-6 0 -18 0.5t-18 0.5h-138v-237h330v-61h-330v-259h209q6 0 18 0.5t18 0.5h126v-71h-460zM204 746l175 122h111l-197 -122h-89z" />
<glyph unicode="&#xca;" horiz-adv-x="597" d="M94 0v691h446v-65h-183q-6 0 -18 0.5t-18 0.5h-138v-237h330v-61h-330v-259h209q6 0 18 0.5t18 0.5h126v-71h-460zM143 736l126 134h60l126 -134h-59l-97 97l-97 -97h-59z" />
<glyph unicode="&#xcb;" horiz-adv-x="597" d="M94 0v691h446v-65h-183q-6 0 -18 0.5t-18 0.5h-138v-237h330v-61h-330v-259h209q6 0 18 0.5t18 0.5h126v-71h-460zM172 736v80h80v-80h-80zM346 736v80h80v-80h-80z" />
<glyph unicode="&#xcc;" horiz-adv-x="278" d="M-103 868h111l175 -122h-89zM94 0v694h89v-694h-89z" />
<glyph unicode="&#xcd;" horiz-adv-x="278" d="M94 0v694h89v-694h-89zM94 746l175 122h111l-197 -122h-89z" />
<glyph unicode="&#xce;" horiz-adv-x="278" d="M-17 736l126 134h60l126 -134h-59l-97 97l-97 -97h-59zM94 0v694h89v-694h-89z" />
<glyph unicode="&#xcf;" horiz-adv-x="278" d="M12 736v80h80v-80h-80zM94 0v694h89v-694h-89zM186 736v80h80v-80h-80z" />
<glyph unicode="&#xd0;" horiz-adv-x="722" d="M18 315v64h78v315h262q128 0 217.5 -103.5t89.5 -249.5q0 -142 -89.5 -241.5t-216.5 -99.5h-263v315h-78zM182 56h153q106 0 175 79.5t69 205.5q0 131 -69 214t-175 83h-153v-259h101v-64h-101v-259z" />
<glyph unicode="&#xd1;" horiz-adv-x="708" d="M96 0v694h124q35 -70 98.5 -196t116 -230t97.5 -197h1v623h78v-694h-124q-35 70 -98.5 196t-116 230t-97.5 197h-1v-623h-78zM188 736q1 55 30.5 87t67.5 32q26 0 70.5 -29t64.5 -29q37 0 39 58h61q-1 -55 -30.5 -87t-67.5 -32q-26 0 -70.5 29t-64.5 29q-37 0 -39 -58 h-61z" />
<glyph unicode="&#xd2;" horiz-adv-x="736" d="M56 345q0 155 92 263t220 108q126 0 218.5 -108t92.5 -263t-92.5 -261t-219.5 -106q-125 0 -218 105.5t-93 261.5zM145 360q0 -140 65.5 -228.5t157.5 -88.5q90 0 156 88t66 229q0 130 -66 211t-157 81q-89 0 -155.5 -80.5t-66.5 -211.5zM177 868h111l175 -122h-89z" />
<glyph unicode="&#xd3;" horiz-adv-x="736" d="M56 345q0 155 92 263t220 108q126 0 218.5 -108t92.5 -263t-92.5 -261t-219.5 -106q-125 0 -218 105.5t-93 261.5zM145 360q0 -140 65.5 -228.5t157.5 -88.5q90 0 156 88t66 229q0 130 -66 211t-157 81q-89 0 -155.5 -80.5t-66.5 -211.5zM273 746l175 122h111l-197 -122 h-89z" />
<glyph unicode="&#xd4;" horiz-adv-x="736" d="M56 345q0 155 92 263t220 108q126 0 218.5 -108t92.5 -263t-92.5 -261t-219.5 -106q-125 0 -218 105.5t-93 261.5zM145 360q0 -140 65.5 -228.5t157.5 -88.5q90 0 156 88t66 229q0 130 -66 211t-157 81q-89 0 -155.5 -80.5t-66.5 -211.5zM212 736l126 134h60l126 -134 h-59l-97 97l-97 -97h-59z" />
<glyph unicode="&#xd5;" horiz-adv-x="736" d="M56 345q0 155 92 263t220 108q126 0 218.5 -108t92.5 -263t-92.5 -261t-219.5 -106q-125 0 -218 105.5t-93 261.5zM145 360q0 -140 65.5 -228.5t157.5 -88.5q90 0 156 88t66 229q0 130 -66 211t-157 81q-89 0 -155.5 -80.5t-66.5 -211.5zM202 736q1 55 30.5 87t67.5 32 q26 0 70.5 -29t64.5 -29q37 0 39 58h61q-1 -55 -30.5 -87t-67.5 -32q-26 0 -70.5 29t-64.5 29q-37 0 -39 -58h-61z" />
<glyph unicode="&#xd6;" horiz-adv-x="736" d="M56 345q0 155 92 263t220 108q126 0 218.5 -108t92.5 -263t-92.5 -261t-219.5 -106q-125 0 -218 105.5t-93 261.5zM145 360q0 -140 65.5 -228.5t157.5 -88.5q90 0 156 88t66 229q0 130 -66 211t-157 81q-89 0 -155.5 -80.5t-66.5 -211.5zM241 736v80h80v-80h-80zM415 736 v80h80v-80h-80z" />
<glyph unicode="&#xd7;" horiz-adv-x="778" d="M153 15q-5 5 -6 10t2.5 10.5t5.5 8t8 8.5l198 198l-198 198q-24 24 -10 38q15 14 38 -9l198 -198l197 197q23 23 38 9q14 -13 -10 -37l-197 -198l198 -198q23 -23 9 -37t-37 9l-198 198l-198 -198q-23 -23 -38 -9z" />
<glyph unicode="&#xd8;" horiz-adv-x="778" d="M56 345q0 154 98 262.5t235 108.5q74 0 153 -41l48 84l55 -32l-52 -90q51 -42 89.5 -118.5t38.5 -173.5q0 -154 -98 -260.5t-235 -106.5q-78 0 -153 41l-48 -84l-55 32l51 90q-127 112 -127 288zM141 345q0 -140 77 -228l291 502q-60 36 -121 36q-100 0 -173.5 -84 t-73.5 -226zM268 74q58 -35 121 -35q100 0 173.5 82t73.5 224q0 144 -78 231z" />
<glyph unicode="&#xd9;" horiz-adv-x="688" d="M94 233v461h89v-462q0 -95 48.5 -146.5t115.5 -51.5q68 0 118 52t50 146v462h78v-461q0 -108 -72.5 -181.5t-174.5 -73.5q-103 0 -177.5 73.5t-74.5 181.5zM153 868h111l175 -122h-89z" />
<glyph unicode="&#xda;" horiz-adv-x="688" d="M94 233v461h89v-462q0 -95 48.5 -146.5t115.5 -51.5q68 0 118 52t50 146v462h78v-461q0 -108 -72.5 -181.5t-174.5 -73.5q-103 0 -177.5 73.5t-74.5 181.5zM249 746l175 122h111l-197 -122h-89z" />
<glyph unicode="&#xdb;" horiz-adv-x="688" d="M94 233v461h89v-462q0 -95 48.5 -146.5t115.5 -51.5q68 0 118 52t50 146v462h78v-461q0 -108 -72.5 -181.5t-174.5 -73.5q-103 0 -177.5 73.5t-74.5 181.5zM188 736l126 134h60l126 -134h-59l-97 97l-97 -97h-59z" />
<glyph unicode="&#xdc;" horiz-adv-x="688" d="M94 233v461h89v-462q0 -95 48.5 -146.5t115.5 -51.5q68 0 118 52t50 146v462h78v-461q0 -108 -72.5 -181.5t-174.5 -73.5q-103 0 -177.5 73.5t-74.5 181.5zM217 736v80h80v-80h-80zM391 736v80h80v-80h-80z" />
<glyph unicode="&#xdd;" horiz-adv-x="667" d="M3 694h105l198 -290q8 -11 36 -57l61 95q13 20 17 26l155 226h88l-287 -417v-277h-86v278zM238 746l175 122h111l-197 -122h-89z" />
<glyph unicode="&#xde;" horiz-adv-x="639" d="M96 0v694h89v-144h160q101 0 169 -60t68 -142q0 -84 -68 -143.5t-162 -59.5h-167v-145h-89zM182 202h141q83 0 130.5 41.5t47.5 103.5q0 65 -48.5 105.5t-129.5 40.5h-141v-291z" />
<glyph unicode="&#xdf;" horiz-adv-x="481" d="M82 0v552q0 72 52.5 112.5t118.5 40.5q70 0 120.5 -42.5t50.5 -104.5q0 -41 -24.5 -80.5t-71.5 -66.5q62 -39 93 -102.5t31 -129.5q0 -81 -52 -135.5t-124 -54.5q-20 0 -41.5 4t-34.5 8.5t-13 7.5q4 11 12 32.5t9 23.5q33 -15 67 -15q43 0 71.5 34.5t28.5 94.5 q0 83 -44 142.5t-118 61.5v61q65 1 99.5 35.5t34.5 79.5q0 37 -26 61t-69 24q-12 0 -24.5 -2.5t-30.5 -11t-29 -29t-11 -50.5v-551h-75z" />
<glyph unicode="&#xe0;" horiz-adv-x="481" d="M44 113q0 63 78.5 96.5t198.5 35.5v43q0 53 -25 83.5t-62 30.5q-81 0 -151 -50l-6 66q75 43 157 43q70 0 117.5 -48.5t47.5 -123.5v-289h-75v36q-61 -47 -166 -47q-58 0 -86 40.5t-28 83.5zM99 694h78l133 -167h-61zM116 115q0 -30 27.5 -47.5t65.5 -17.5q47 0 78 19 q34 19 34 63v62q-205 -10 -205 -79z" />
<glyph unicode="&#xe1;" horiz-adv-x="481" d="M44 113q0 63 78.5 96.5t198.5 35.5v43q0 53 -25 83.5t-62 30.5q-81 0 -151 -50l-6 66q75 43 157 43q70 0 117.5 -48.5t47.5 -123.5v-289h-75v36q-61 -47 -166 -47q-58 0 -86 40.5t-28 83.5zM116 115q0 -30 27.5 -47.5t65.5 -17.5q47 0 78 19q34 19 34 63v62 q-205 -10 -205 -79zM170 527l133 167h78l-150 -167h-61z" />
<glyph unicode="&#xe2;" horiz-adv-x="481" d="M44 113q0 63 78.5 96.5t198.5 35.5v43q0 53 -25 83.5t-62 30.5q-81 0 -151 -50l-6 66q75 43 157 43q70 0 117.5 -48.5t47.5 -123.5v-289h-75v36q-61 -47 -166 -47q-58 0 -86 40.5t-28 83.5zM85 525l125 172h60l125 -172h-59l-96 123l-96 -123h-59zM116 115 q0 -30 27.5 -47.5t65.5 -17.5q47 0 78 19q34 19 34 63v62q-205 -10 -205 -79z" />
<glyph unicode="&#xe3;" horiz-adv-x="481" d="M44 113q0 63 78.5 96.5t198.5 35.5v43q0 53 -25 83.5t-62 30.5q-81 0 -151 -50l-6 66q75 43 157 43q70 0 117.5 -48.5t47.5 -123.5v-289h-75v36q-61 -47 -166 -47q-58 0 -86 40.5t-28 83.5zM74 551q1 55 30.5 87t67.5 32q26 0 70.5 -29t64.5 -29q37 0 39 58h61 q-1 -55 -30.5 -87t-67.5 -32q-26 0 -70.5 29t-64.5 29q-37 0 -39 -58h-61zM116 115q0 -30 27.5 -47.5t65.5 -17.5q47 0 78 19q34 19 34 63v62q-205 -10 -205 -79z" />
<glyph unicode="&#xe4;" horiz-adv-x="481" d="M44 113q0 63 78.5 96.5t198.5 35.5v43q0 53 -25 83.5t-62 30.5q-81 0 -151 -50l-6 66q75 43 157 43q70 0 117.5 -48.5t47.5 -123.5v-289h-75v36q-61 -47 -166 -47q-58 0 -86 40.5t-28 83.5zM116 115q0 -30 27.5 -47.5t65.5 -17.5q47 0 78 19q34 19 34 63v62 q-205 -10 -205 -79zM127 571v80h80v-80h-80zM273 571v80h80v-80h-80z" />
<glyph unicode="&#xe5;" horiz-adv-x="481" d="M44 113q0 63 78.5 96.5t198.5 35.5v43q0 53 -25 83.5t-62 30.5q-81 0 -151 -50l-6 66q75 43 157 43q70 0 117.5 -48.5t47.5 -123.5v-289h-75v36q-61 -47 -166 -47q-58 0 -86 40.5t-28 83.5zM116 115q0 -30 27.5 -47.5t65.5 -17.5q47 0 78 19q34 19 34 63v62 q-205 -10 -205 -79zM129 602q0 33 32 58t79 25t79 -24.5t32 -60.5q0 -33 -32 -58t-79 -25t-79 24.5t-32 60.5zM190 601q0 -37 50 -37t50 37t-50 37t-50 -37z" />
<glyph unicode="&#xe6;" horiz-adv-x="722" d="M47 114q0 119 275 133v41q0 54 -25.5 84t-61.5 30q-81 0 -152 -50l-6 66q75 43 157 43q43 0 81 -20.5t60 -56.5q63 77 152 77q39 0 69.5 -14.5t47.5 -41t28 -51.5t15 -57.5t5 -47t1 -30.5h-293q4 -77 46 -123t98 -46q77 0 138 56l6 -65q-64 -52 -145 -52q-96 0 -163 77 q-16 -26 -48.5 -43t-70 -23.5t-59.5 -8.5t-41 -2q-34 0 -58 14.5t-35.5 36.5t-16 40t-4.5 34zM119 115q0 -28 26 -46.5t66 -18.5q13 0 25.5 1.5t36.5 7.5t39 23.5t15 44.5q0 36 -4 64q-22 0 -50 -2.5t-66 -9.5t-63 -23.5t-25 -40.5zM405 274h229q-5 39 -18 66t-29.5 39 t-30.5 16.5t-28 4.5q-41 0 -75.5 -34.5t-47.5 -91.5z" />
<glyph unicode="&#xe7;" horiz-adv-x="444" d="M36 222q0 95 60.5 167t159.5 72q46 0 78 -9t76 -34l-12 -65q-40 26 -70 35t-71 9q-50 0 -83.5 -28t-46.5 -65.5t-13 -80.5q0 -74 38.5 -122t100.5 -48q87 0 156 54l6 -67q-74 -51 -163 -51q-92 0 -154 69t-62 164zM156 -214l74 168h61l-66 -168h-69z" />
<glyph unicode="&#xe8;" horiz-adv-x="444" d="M35 226q0 97 59 166t142 69q90 0 138 -73q40 -62 40 -169h-309q2 -73 44.5 -121t102.5 -48q84 0 152 56l6 -65q-72 -52 -159 -52q-90 0 -153 69t-63 168zM81 694h78l133 -167h-61zM110 274h247q-9 64 -43 95t-78 31q-43 0 -78.5 -35t-47.5 -91z" />
<glyph unicode="&#xe9;" horiz-adv-x="444" d="M35 226q0 97 59 166t142 69q90 0 138 -73q40 -62 40 -169h-309q2 -73 44.5 -121t102.5 -48q84 0 152 56l6 -65q-72 -52 -159 -52q-90 0 -153 69t-63 168zM110 274h247q-9 64 -43 95t-78 31q-43 0 -78.5 -35t-47.5 -91zM152 527l133 167h78l-150 -167h-61z" />
<glyph unicode="&#xea;" horiz-adv-x="444" d="M35 226q0 97 59 166t142 69q90 0 138 -73q40 -62 40 -169h-309q2 -73 44.5 -121t102.5 -48q84 0 152 56l6 -65q-72 -52 -159 -52q-90 0 -153 69t-63 168zM67 525l125 172h60l125 -172h-59l-96 123l-96 -123h-59zM110 274h247q-9 64 -43 95t-78 31q-43 0 -78.5 -35 t-47.5 -91z" />
<glyph unicode="&#xeb;" horiz-adv-x="444" d="M35 226q0 97 59 166t142 69q90 0 138 -73q40 -62 40 -169h-309q2 -73 44.5 -121t102.5 -48q84 0 152 56l6 -65q-72 -52 -159 -52q-90 0 -153 69t-63 168zM109 571v80h80v-80h-80zM110 274h247q-9 64 -43 95t-78 31q-43 0 -78.5 -35t-47.5 -91zM255 571v80h80v-80h-80z " />
<glyph unicode="&#xec;" horiz-adv-x="239" d="M-55 694h78l133 -167h-61zM81 0v444h75v-444h-75z" />
<glyph unicode="&#xed;" horiz-adv-x="239" d="M81 0v444h75v-444h-75zM81 527l133 167h78l-150 -167h-61z" />
<glyph unicode="&#xee;" horiz-adv-x="239" d="M-36 525l125 172h60l125 -172h-59l-96 123l-96 -123h-59zM81 0v444h75v-444h-75z" />
<glyph unicode="&#xef;" horiz-adv-x="239" d="M6 571v80h80v-80h-80zM81 0v444h75v-444h-75zM152 571v80h80v-80h-80z" />
<glyph unicode="&#xf0;" d="M30 220q0 99 64 170t156 71q76 0 136 -52q-10 111 -43 167l-48 -41l-42 48l48 41q-32 21 -76 21v64q72 0 124 -44l52 46l42 -49l-53 -45q79 -122 79 -397q0 -93 -64 -162t-156 -69q-89 0 -154 66.5t-65 164.5zM108 230q0 -85 42 -131t99 -46q59 0 100.5 46.5t41.5 130.5 q0 83 -42 126.5t-100 43.5q-56 0 -98.5 -43t-42.5 -127z" />
<glyph unicode="&#xf1;" horiz-adv-x="517" d="M81 0v450h72v-71q57 76 145 76q137 0 137 -157v-298h-78v291q0 14 -0.5 23.5t-6 26t-15 27t-29 18.5t-46.5 8q-52 0 -76.5 -45t-24.5 -104v-245h-78zM92 551q1 55 30.5 87t67.5 32q26 0 70.5 -29t64.5 -29q37 0 39 58h61q-1 -55 -30.5 -87t-67.5 -32q-26 0 -70.5 29 t-64.5 29q-37 0 -39 -58h-61z" />
<glyph unicode="&#xf2;" d="M30 220q0 99 64 170t156 71q90 0 154.5 -70.5t64.5 -170.5q0 -97 -64.5 -164t-155.5 -67q-89 0 -154 66.5t-65 164.5zM108 230q0 -85 42 -131t99 -46q59 0 100.5 46.5t41.5 130.5q0 83 -42 126.5t-100 43.5q-56 0 -98.5 -43t-42.5 -127zM109 694h78l133 -167h-61z" />
<glyph unicode="&#xf3;" d="M30 220q0 99 64 170t156 71q90 0 154.5 -70.5t64.5 -170.5q0 -97 -64.5 -164t-155.5 -67q-89 0 -154 66.5t-65 164.5zM108 230q0 -85 42 -131t99 -46q59 0 100.5 46.5t41.5 130.5q0 83 -42 126.5t-100 43.5q-56 0 -98.5 -43t-42.5 -127zM180 527l133 167h78l-150 -167 h-61z" />
<glyph unicode="&#xf4;" d="M30 220q0 99 64 170t156 71q90 0 154.5 -70.5t64.5 -170.5q0 -97 -64.5 -164t-155.5 -67q-89 0 -154 66.5t-65 164.5zM95 525l125 172h60l125 -172h-59l-96 123l-96 -123h-59zM108 230q0 -85 42 -131t99 -46q59 0 100.5 46.5t41.5 130.5q0 83 -42 126.5t-100 43.5 q-56 0 -98.5 -43t-42.5 -127z" />
<glyph unicode="&#xf5;" d="M30 220q0 99 64 170t156 71q90 0 154.5 -70.5t64.5 -170.5q0 -97 -64.5 -164t-155.5 -67q-89 0 -154 66.5t-65 164.5zM84 551q1 55 30.5 87t67.5 32q26 0 70.5 -29t64.5 -29q37 0 39 58h61q-1 -55 -30.5 -87t-67.5 -32q-26 0 -70.5 29t-64.5 29q-37 0 -39 -58h-61z M108 230q0 -85 42 -131t99 -46q59 0 100.5 46.5t41.5 130.5q0 83 -42 126.5t-100 43.5q-56 0 -98.5 -43t-42.5 -127z" />
<glyph unicode="&#xf6;" d="M30 220q0 99 64 170t156 71q90 0 154.5 -70.5t64.5 -170.5q0 -97 -64.5 -164t-155.5 -67q-89 0 -154 66.5t-65 164.5zM108 230q0 -85 42 -131t99 -46q59 0 100.5 46.5t41.5 130.5q0 83 -42 126.5t-100 43.5q-56 0 -98.5 -43t-42.5 -127zM137 571v80h80v-80h-80zM283 571 v80h80v-80h-80z" />
<glyph unicode="&#xf7;" horiz-adv-x="778" d="M56 250q0 20 33 20h599q33 0 33 -20t-34 -20h-597q-34 0 -34 20zM347 85v83h83v-83h-83zM347 331v83h83v-83h-83z" />
<glyph unicode="&#xf8;" d="M32 220q0 99 64 170t154 71q44 0 88 -20l65 116l53 -30l-68 -121q79 -72 79 -186q0 -97 -64.5 -164t-153.5 -67q-44 0 -86 19l-67 -120l-53 30l69 123q-80 77 -80 179zM107 220q0 -74 37 -121l163 288q-26 13 -57 13q-60 0 -101.5 -47.5t-41.5 -132.5zM194 61 q23 -11 55 -11q59 0 101 44t42 126q0 78 -37 127z" />
<glyph unicode="&#xf9;" horiz-adv-x="517" d="M81 109v335h78v-331q0 -37 14.5 -53t63.5 -16q51 0 85.5 28.5t34.5 81.5v290h78v-444h-75v48q-67 -59 -173 -59q-59 0 -82.5 30.5t-23.5 89.5zM117 694h78l133 -167h-61z" />
<glyph unicode="&#xfa;" horiz-adv-x="517" d="M81 109v335h78v-331q0 -37 14.5 -53t63.5 -16q51 0 85.5 28.5t34.5 81.5v290h78v-444h-75v48q-67 -59 -173 -59q-59 0 -82.5 30.5t-23.5 89.5zM188 527l133 167h78l-150 -167h-61z" />
<glyph unicode="&#xfb;" horiz-adv-x="517" d="M81 109v335h78v-331q0 -37 14.5 -53t63.5 -16q51 0 85.5 28.5t34.5 81.5v290h78v-444h-75v48q-67 -59 -173 -59q-59 0 -82.5 30.5t-23.5 89.5zM103 525l125 172h60l125 -172h-59l-96 123l-96 -123h-59z" />
<glyph unicode="&#xfc;" horiz-adv-x="517" d="M81 109v335h78v-331q0 -37 14.5 -53t63.5 -16q51 0 85.5 28.5t34.5 81.5v290h78v-444h-75v48q-67 -59 -173 -59q-59 0 -82.5 30.5t-23.5 89.5zM145 571v80h80v-80h-80zM291 571v80h80v-80h-80z" />
<glyph unicode="&#xfd;" horiz-adv-x="461" d="M14 444h79l54 -125q8 -18 24.5 -58t39.5 -107t26 -97h1q3 69 133 387h75l-218 -535q-28 -69 -54.5 -91.5t-58.5 -22.5q-37 0 -72 8l-6 65q40 -16 78 -16q10 0 16 2t17.5 15.5t23.5 40.5l36 90zM161 527l133 167h78l-150 -167h-61z" />
<glyph unicode="&#xfe;" horiz-adv-x="517" d="M82 -194v888h75v-299q71 60 164 60q70 0 114.5 -69t44.5 -163q0 -100 -55 -167t-130 -67q-74 0 -135 57v-240h-78zM160 114q35 -64 97 -64q55 0 100 42.5t45 130.5q0 87 -41 129t-94 42q-68 0 -107 -59v-221z" />
<glyph unicode="&#xff;" horiz-adv-x="461" d="M14 444h79l54 -125q8 -18 24.5 -58t39.5 -107t26 -97h1q3 69 133 387h75l-218 -535q-28 -69 -54.5 -91.5t-58.5 -22.5q-37 0 -72 8l-6 65q40 -16 78 -16q10 0 16 2t17.5 15.5t23.5 40.5l36 90zM118 571v80h80v-80h-80zM264 571v80h80v-80h-80z" />
<glyph unicode="&#x152;" horiz-adv-x="972" d="M28 345q0 156 99 263.5t231 107.5q29 0 81 -11q49 -11 80 -11h396v-65h-182q-6 0 -18 0.5t-18 0.5h-138v-239h329v-61h-329v-260h209q6 0 18 0.5t18 0.5h125v-71h-410q-21 0 -79.5 -11t-81.5 -11q-131 0 -230.5 105.5t-99.5 261.5zM114 360q0 -133 72 -227t177 -94 q58 0 78 21.5t27 70.5q4 33 4 216q0 180 -4 213q-7 51 -27 73t-78 22q-105 0 -177 -86t-72 -209z" />
<glyph unicode="&#x153;" horiz-adv-x="778" d="M30 225q0 98 62.5 167t148.5 69q107 0 174 -99q25 41 69.5 70t98.5 29q41 0 72.5 -17t48.5 -42.5t28 -60t14 -63.5t3 -59h-294q4 -76 45.5 -122.5t99.5 -46.5q78 0 138 56l6 -65q-63 -52 -146 -52q-56 0 -104 28t-77 73q-70 -101 -176 -101q-86 0 -148.5 68.5 t-62.5 167.5zM102 230q0 -85 41 -132.5t98 -47.5q56 0 96 46.5t40 133.5q0 84 -40.5 127t-95.5 43q-57 0 -98 -44.5t-41 -125.5zM460 274h230q-9 63 -37.5 94.5t-69.5 31.5q-42 0 -77 -36t-46 -90z" />
<glyph unicode="&#x178;" horiz-adv-x="667" d="M3 694h105l198 -290q8 -11 36 -57l61 95q13 20 17 26l155 226h88l-287 -417v-277h-86v278zM206 736v80h80v-80h-80zM380 736v80h80v-80h-80z" />
<glyph unicode="&#x2c6;" d="M95 525l125 172h60l125 -172h-59l-96 123l-96 -123h-59z" />
<glyph unicode="&#x2dc;" d="M84 551q1 55 30.5 87t67.5 32q26 0 70.5 -29t64.5 -29q37 0 39 58h61q-1 -55 -30.5 -87t-67.5 -32q-26 0 -70.5 29t-64.5 29q-37 0 -39 -58h-61z" />
<glyph unicode="&#x2000;" horiz-adv-x="435" />
<glyph unicode="&#x2001;" horiz-adv-x="870" />
<glyph unicode="&#x2002;" horiz-adv-x="435" />
<glyph unicode="&#x2003;" horiz-adv-x="870" />
<glyph unicode="&#x2004;" horiz-adv-x="290" />
<glyph unicode="&#x2005;" horiz-adv-x="217" />
<glyph unicode="&#x2006;" horiz-adv-x="145" />
<glyph unicode="&#x2007;" horiz-adv-x="145" />
<glyph unicode="&#x2008;" horiz-adv-x="108" />
<glyph unicode="&#x2009;" horiz-adv-x="174" />
<glyph unicode="&#x200a;" horiz-adv-x="48" />
<glyph unicode="&#x2010;" horiz-adv-x="333" d="M11 193v58h265v-58h-265z" />
<glyph unicode="&#x2011;" horiz-adv-x="333" d="M11 193v58h265v-58h-265z" />
<glyph unicode="&#x2012;" horiz-adv-x="333" d="M11 193v58h265v-58h-265z" />
<glyph unicode="&#x2013;" d="M0 244v61h499v-61h-499z" />
<glyph unicode="&#x2014;" horiz-adv-x="1000" d="M0 244v61h999v-61h-999z" />
<glyph unicode="&#x2018;" horiz-adv-x="278" d="M97 486v82l42 126h41l-25 -125h25v-83h-83z" />
<glyph unicode="&#x2019;" horiz-adv-x="278" d="M97 486l25 125h-25v83h83v-82l-42 -126h-41z" />
<glyph unicode="&#x201a;" horiz-adv-x="278" d="M97 1v83h83v-82l-42 -126h-41l25 125h-25z" />
<glyph unicode="&#x201c;" horiz-adv-x="472" d="M97 486v82l42 126h41l-25 -125h25v-83h-83zM291 486v82l42 126h41l-25 -125h25v-83h-83z" />
<glyph unicode="&#x201d;" horiz-adv-x="472" d="M98 486l25 125h-25v83h83v-82l-42 -126h-41zM292 486l25 125h-25v83h83v-82l-42 -126h-41z" />
<glyph unicode="&#x201e;" horiz-adv-x="472" d="M98 1v83h83v-82l-42 -126h-41l25 125h-25zM292 1v83h83v-82l-42 -126h-41l25 125h-25z" />
<glyph unicode="&#x2022;" horiz-adv-x="778" d="M246 121v286h286v-286h-286z" />
<glyph unicode="&#x2026;" horiz-adv-x="626" d="M98 0v83h83v-83h-83zM272 0v83h83v-83h-83zM446 0v83h83v-83h-83z" />
<glyph unicode="&#x202f;" horiz-adv-x="174" />
<glyph unicode="&#x2039;" horiz-adv-x="333" d="M111 219l105 220h61l-88 -220l88 -219h-61z" />
<glyph unicode="&#x203a;" horiz-adv-x="333" d="M56 0l88 219l-88 220h61l105 -220l-105 -219h-61z" />
<glyph unicode="&#x205f;" horiz-adv-x="217" />
<glyph unicode="&#x20ac;" horiz-adv-x="599" d="M51 255l10 56h63q-1 12 -1 36t1 36h-73l10 56h70q19 98 72 169q37 49 87.5 78.5t106.5 29.5q76 0 141 -34l-15 -83q-28 28 -57 40.5t-69 12.5q-36 0 -67.5 -20t-53.5 -52t-36 -68t-21 -73h276l-10 -56h-273q-1 -12 -1 -36t1 -36h261l-10 -56h-244q13 -67 46 -124 q56 -89 132 -89q52 0 81 12.5t65 49.5l6 -70q-40 -34 -70 -45t-82 -11q-113 0 -194 108q-53 71 -72 169h-80z" />
<glyph unicode="&#x2122;" horiz-adv-x="933" d="M22 655v39h364v-39h-80q-3 0 -10.5 0.5t-11.5 0.5h-53v-374h-53v374h-54q-4 0 -11.5 -0.5t-10.5 -0.5h-80zM446 282v416h68q24 -58 66 -171t49 -130q14 -40 19 -60h1q6 30 55 158l78 203h69v-416h-47v372h-1q-2 -8 -25 -74q-7 -17 -108 -285h-44l-89 233q-39 100 -43 126 h-1v-372h-47z" />
<glyph unicode="&#xe000;" horiz-adv-x="445" d="M0 0v445h445v-445h-445z" />
</font>
</defs>
</svg>
