<?xml version="1.0" standalone="no"?>
<!DOCTYPE svg PUBLIC "-//W3C//DTD SVG 1.1//EN" "http://www.w3.org/Graphics/SVG/1.1/DTD/svg11.dtd" >
<svg xmlns="http://www.w3.org/2000/svg">
<metadata></metadata>
<defs>
<font id="trump_town_proregular" horiz-adv-x="480" >
<font-face units-per-em="1000" ascent="800" descent="-200" />
<missing-glyph horiz-adv-x="192" />
<glyph horiz-adv-x="1000" />
<glyph horiz-adv-x="1000" />
<glyph unicode="&#xd;" horiz-adv-x="1000" />
<glyph unicode=" "  horiz-adv-x="192" />
<glyph unicode="&#x09;" horiz-adv-x="192" />
<glyph unicode="&#xa0;" horiz-adv-x="192" />
<glyph unicode="!" horiz-adv-x="240" d="M48 48v48q0 20 14 34t34 14h48q19 0 33.5 -14.5t14.5 -33.5v-48q0 -20 -14 -34t-34 -14h-48q-22 0 -35 13t-13 35zM48 192v480h144v-480h-144z" />
<glyph unicode="&#x22;" horiz-adv-x="384" d="M24 480v192h144v-192l-48 -96h-48zM216 480v192h144v-192l-48 -96h-48z" />
<glyph unicode="#" horiz-adv-x="528" d="M24 192v96h96v96h-96v96h96v144h96v-144h96v144h96v-144h96v-96h-96v-96h96v-96h-96v-144h-96v144h-96v-144h-96v144h-96zM216 288h96v96h-96v-96z" />
<glyph unicode="$" d="M24 48v192h144v-48h48v96h-144q-22 0 -35 13t-13 35v240q0 20 14 34t34 14h144v96h48v-96h192v-192h-144v48h-48v-96h144q19 0 33.5 -14.5t14.5 -33.5v-240q0 -20 -14 -34t-34 -14h-144v-96h-48v96h-192zM168 384h48v96h-48v-96zM264 192h48v96h-48v-96z" />
<glyph unicode="%" horiz-adv-x="768" d="M24 336v288q0 20 14 34t34 14h192q19 0 33.5 -14.5t14.5 -33.5v-288q0 -20 -14 -34t-34 -14h-192q-22 0 -35 13t-13 35zM120 384h96v192h-96v-192zM168 0l336 672h96l-336 -672h-96zM456 48v288q0 20 14 34t34 14h192q19 0 33.5 -14.5t14.5 -33.5v-288q0 -20 -14 -34 t-34 -14h-192q-22 0 -35 13t-13 35zM552 96h96v192h-96v-192z" />
<glyph unicode="&#x26;" horiz-adv-x="672" d="M24 144v96l144 144l-96 96v144q0 20 14 34t34 14h288q19 0 33.5 -14.5t14.5 -33.5v-144l-96 -96l48 -48l96 96l96 -96l-96 -96l144 -144l-96 -96l-144 144l-144 -144h-96zM168 192l48 -48l96 96l-48 48zM216 528l48 -48l48 48v48h-96v-48z" />
<glyph unicode="'" horiz-adv-x="192" d="M24 480v192h144v-192l-48 -96h-48z" />
<glyph unicode="(" horiz-adv-x="240" d="M24 -144v864q0 20 14 34t34 14h144v-96h-48v-768h48v-96h-144q-20 0 -34 13.5t-14 34.5z" />
<glyph unicode=")" horiz-adv-x="240" d="M24 -96h48v768h-48v96h144q19 0 33.5 -14.5t14.5 -33.5v-864q0 -19 -15 -33.5t-33 -14.5h-144v96z" />
<glyph unicode="*" horiz-adv-x="432" d="M24 288v120l96 48l-96 48v120l144 -72v120h96v-120l144 72v-120l-96 -48l96 -48v-120l-144 72v-120h-96v120z" />
<glyph unicode="+" horiz-adv-x="432" d="M24 288v96h144v144h96v-144h144v-96h-144v-144h-96v144h-144z" />
<glyph unicode="," horiz-adv-x="216" d="M-48 -144l120 240h120l-120 -240h-120z" />
<glyph unicode="-" horiz-adv-x="336" d="M24 288v96h288v-96h-288z" />
<glyph unicode="." horiz-adv-x="192" d="M24 48v48q0 20 14 34t34 14h48q19 0 33.5 -14.5t14.5 -33.5v-48q0 -20 -14 -34t-34 -14h-48q-22 0 -35 13t-13 35z" />
<glyph unicode="/" d="M0 0l336 672h144l-336 -672h-144z" />
<glyph unicode="0" d="M24 48v576q0 20 14 34t34 14h336q19 0 33.5 -14.5t14.5 -33.5v-576q0 -20 -14 -34t-34 -14h-336q-22 0 -35 13t-13 35zM168 144h144v384h-144v-384z" />
<glyph unicode="1" horiz-adv-x="336" d="M-24 528l144 144h144v-528h48v-144h-240v144h48v336l-48 -48z" />
<glyph unicode="2" d="M24 0v144l288 288v96h-144v-96h-144v192q0 20 14 34t34 14h336q19 0 33.5 -14.5t14.5 -33.5v-240l-240 -240h240v-144h-432z" />
<glyph unicode="3" d="M24 48v144h144v-48h144v144h-144v96l144 144h-144v-48h-144v192h432v-144l-144 -144h96q19 0 33.5 -14.5t14.5 -33.5v-288q0 -20 -14 -34t-34 -14h-336q-22 0 -35 13t-13 35z" />
<glyph unicode="4" horiz-adv-x="456" d="M0 192v48l216 432h168v-384h48v-96h-48v-48h48v-144h-240v144h48v48h-240zM144 288h96v192z" />
<glyph unicode="5" d="M24 48v144h144v-48h144v144h-288v384h432v-144h-288v-144h240q19 0 33.5 -14.5t14.5 -33.5v-288q0 -20 -14 -34t-34 -14h-336q-22 0 -35 13t-13 35z" />
<glyph unicode="6" d="M24 48v576q0 20 14 34t34 14h336q19 0 33.5 -14.5t14.5 -33.5v-144h-144v48h-144v-144h240q19 0 33.5 -14.5t14.5 -33.5v-288q0 -20 -14 -34t-34 -14h-336q-22 0 -35 13t-13 35zM168 144h144v144h-144v-144z" />
<glyph unicode="7" d="M24 432v240h432v-144l-264 -528h-144l264 528h-144v-96h-144z" />
<glyph unicode="8" d="M24 48v240q0 20 14 34t34 14q-22 0 -35 13t-13 35v240q0 20 14 34t34 14h336q19 0 33.5 -14.5t14.5 -33.5v-240q0 -20 -14 -34t-34 -14q19 0 33.5 -14.5t14.5 -33.5v-240q0 -20 -14 -34t-34 -14h-336q-22 0 -35 13t-13 35zM168 144h144v144h-144v-144zM168 384h144v144 h-144v-144z" />
<glyph unicode="9" d="M24 48v144h144v-48h144v144h-240q-22 0 -35 13t-13 35v288q0 20 14 34t34 14h336q19 0 33.5 -14.5t14.5 -33.5v-576q0 -20 -14 -34t-34 -14h-336q-22 0 -35 13t-13 35zM168 384h144v144h-144v-144z" />
<glyph unicode=":" horiz-adv-x="192" d="M24 48v48q0 20 14 34t34 14h48q19 0 33.5 -14.5t14.5 -33.5v-48q0 -20 -14 -34t-34 -14h-48q-22 0 -35 13t-13 35zM24 336v48q0 20 14 34t34 14h48q19 0 33.5 -14.5t14.5 -33.5v-48q0 -20 -14 -34t-34 -14h-48q-22 0 -35 13t-13 35z" />
<glyph unicode=";" horiz-adv-x="216" d="M-48 -144l120 240h120l-120 -240h-120zM48 336v48q0 20 14 34t34 14h48q19 0 33.5 -14.5t14.5 -33.5v-48q0 -20 -14 -34t-34 -14h-48q-22 0 -35 13t-13 35z" />
<glyph unicode="&#x3c;" horiz-adv-x="432" d="M24 288v96l384 192v-120l-240 -120l240 -120v-120z" />
<glyph unicode="=" horiz-adv-x="432" d="M24 192v96h384v-96h-384zM24 384v96h384v-96h-384z" />
<glyph unicode="&#x3e;" horiz-adv-x="432" d="M24 96v120l240 120l-240 120v120l384 -192v-96z" />
<glyph unicode="?" horiz-adv-x="432" d="M24 480v144q0 20 14 34t34 14h288q19 0 33.5 -14.5t14.5 -33.5v-288q0 -20 -14 -34t-34 -14h-96v-96h-144v192h144v144h-96v-48h-144zM120 48v48q0 20 14 34t34 14h48q19 0 33.5 -14.5t14.5 -33.5v-48q0 -20 -14 -34t-34 -14h-48q-22 0 -35 13t-13 35z" />
<glyph unicode="@" horiz-adv-x="864" d="M48 -144v768q0 20 14 34t34 14h672q19 0 33.5 -14.5t14.5 -33.5v-576q0 -20 -14 -34t-34 -14h-288v48l-48 -48h-144q-22 0 -35 13t-13 35v384q0 20 14 34t34 14h144l48 -48v48h144v-384h96v480h-576v-672h480v-96h-528q-20 0 -34 13.5t-14 34.5zM384 96h96v288h-96v-288z " />
<glyph unicode="A" horiz-adv-x="576" d="M24 0v144h48v480q0 20 14 34t34 14h336q19 0 33.5 -14.5t14.5 -33.5v-480h48v-144h-192v192h-144v-192h-192zM216 288h144v240h-144v-240z" />
<glyph unicode="B" horiz-adv-x="528" d="M24 0v144h48v384h-48v144h432q19 0 33.5 -14.5t14.5 -33.5v-240q0 -20 -14 -34t-34 -14q19 0 33.5 -14.5t14.5 -33.5v-240q0 -20 -14 -34t-34 -14h-432zM216 144h144v144h-144v-144zM216 384h144v144h-144v-144z" />
<glyph unicode="C" d="M24 48v576q0 20 14 34t34 14h384v-240h-144v96h-144v-384h144v96h144v-240h-384q-22 0 -35 13t-13 35z" />
<glyph unicode="D" horiz-adv-x="528" d="M24 0v144h48v384h-48v144h432q19 0 33.5 -14.5t14.5 -33.5v-576q0 -20 -14 -34t-34 -14h-432zM216 144h144v384h-144v-384z" />
<glyph unicode="E" horiz-adv-x="528" d="M24 0v144h48v384h-48v144h480v-192h-144v48h-144v-144h192v-96h-192v-144h144v48h144v-192h-480z" />
<glyph unicode="F" horiz-adv-x="528" d="M24 0v144h48v384h-48v144h480v-192h-144v48h-144v-144h192v-96h-192v-144h48v-144h-240z" />
<glyph unicode="G" d="M24 48v576q0 20 14 34t34 14h384v-192h-144v48h-144v-384h144v144h-96v96h240v-384h-384q-22 0 -35 13t-13 35z" />
<glyph unicode="H" horiz-adv-x="576" d="M24 0v144h48v384h-48v144h192v-288h144v288h192v-144h-48v-384h48v-144h-192v288h-144v-288h-192z" />
<glyph unicode="I" horiz-adv-x="288" d="M24 0v144h48v384h-48v144h240v-144h-48v-384h48v-144h-240z" />
<glyph unicode="J" d="M24 48v192h144v-96h96v384h-48v144h240v-144h-48v-480q0 -20 -14 -34t-34 -14h-288q-22 0 -35 13t-13 35z" />
<glyph unicode="K" horiz-adv-x="576" d="M24 0v144h48v384h-48v144h192v-288l144 288h192v-144h-96l-72 -144h120v-240h48v-144h-192v288h-144v-288h-192z" />
<glyph unicode="L" d="M24 0v144h48v384h-48v144h240v-144h-48v-384h96v96h144v-240h-432z" />
<glyph unicode="M" horiz-adv-x="720" d="M24 0v144h48v384h-48v144h192l144 -288l144 288h192v-144h-48v-384h48v-144h-192v384l-144 -288l-144 288v-384h-192z" />
<glyph unicode="N" horiz-adv-x="624" d="M24 0v144h48v384h-48v144h192l192 -384v384h192v-144h-48v-384h48v-144h-192l-192 384v-384h-192z" />
<glyph unicode="O" d="M24 48v576q0 20 14 34t34 14h336q19 0 33.5 -14.5t14.5 -33.5v-576q0 -20 -14 -34t-34 -14h-336q-22 0 -35 13t-13 35zM168 144h144v384h-144v-384z" />
<glyph unicode="P" horiz-adv-x="528" d="M24 0v144h48v384h-48v144h432q19 0 33.5 -14.5t14.5 -33.5v-288q0 -20 -14 -34t-34 -14h-240v-144h48v-144h-240zM216 384h144v144h-144v-144z" />
<glyph unicode="Q" d="M24 48v576q0 20 14 34t34 14h336q19 0 33.5 -14.5t14.5 -33.5v-576q0 -20 -14 -34t-34 -14h-96v-96h-144v96h-96q-22 0 -35 13t-13 35zM168 144h144v384h-144v-384z" />
<glyph unicode="R" horiz-adv-x="576" d="M24 0v144h48v384h-48v144h432q19 0 33.5 -14.5t14.5 -33.5v-240q0 -20 -14 -34t-34 -14q19 0 33.5 -14.5t14.5 -33.5v-144h48v-144h-144q-22 0 -35 13t-13 35v240h-144v-144h48v-144h-240zM216 384h144v144h-144v-144z" />
<glyph unicode="S" d="M24 0v192h144v-48h144v144h-240q-22 0 -35 13t-13 35v288q0 20 14 34t34 14h384v-192h-144v48h-144v-144h240q19 0 33.5 -14.5t14.5 -33.5v-288q0 -20 -14 -34t-34 -14h-384z" />
<glyph unicode="T" horiz-adv-x="576" d="M24 384v288h528v-288h-96v144h-96v-384h48v-144h-240v144h48v384h-96v-144h-96z" />
<glyph unicode="U" horiz-adv-x="576" d="M24 528v144h192v-528h144v528h192v-144h-48v-480q0 -20 -14 -34t-34 -14h-336q-22 0 -35 13t-13 35v480h-48z" />
<glyph unicode="V" horiz-adv-x="576" d="M24 528v144h192v-384l72 -144l72 144v240h-48v144h240v-144h-48v-288l-120 -240h-192l-120 240v288h-48z" />
<glyph unicode="W" horiz-adv-x="864" d="M24 528v144h240v-144h-48v-240l72 -144l72 144v384h144v-384l72 -144l72 144v240h-48v144h240v-144h-48v-288l-120 -240h-192l-48 96l-48 -96h-192l-120 240v288h-48z" />
<glyph unicode="X" horiz-adv-x="528" d="M24 0v144h48l96 192l-96 192h-48v144h144l96 -192l48 96v96h192v-144h-48l-96 -192l96 -192h48v-144h-144l-96 192l-48 -96v-96h-192z" />
<glyph unicode="Y" horiz-adv-x="576" d="M24 528v144h144l120 -240l120 240h144v-144h-48l-144 -288v-96h48v-144h-240v144h48v96l-144 288h-48z" />
<glyph unicode="Z" horiz-adv-x="528" d="M24 0v192l336 336h-192v-48h-144v192h480v-192l-336 -336h192v48h144v-192h-480z" />
<glyph unicode="[" horiz-adv-x="240" d="M24 -192v960h192v-96h-48v-768h48v-96h-192z" />
<glyph unicode="\" d="M0 672h144l336 -672h-144z" />
<glyph unicode="]" horiz-adv-x="240" d="M24 -96h48v768h-48v96h192v-960h-192v96z" />
<glyph unicode="^" horiz-adv-x="432" d="M24 192l144 288h96l144 -288h-120l-72 144l-72 -144h-120z" />
<glyph unicode="_" horiz-adv-x="432" d="M24 -48h384v-96h-384v96z" />
<glyph unicode="`" horiz-adv-x="216" d="M24 672h120l72 -144h-120z" />
<glyph unicode="a" d="M24 48v192q0 20 14 34t34 14h192v96h-96v-48h-144v96q0 20 14 34t34 14h288q19 0 33.5 -14.5t14.5 -33.5v-336h48v-96h-192v48l-48 -48h-144q-22 0 -35 13t-13 35zM168 96h96v96h-96v-96z" />
<glyph unicode="b" d="M24 0v96h48v480h-48v96h192v-240l48 48h144q19 0 33.5 -14.5t14.5 -33.5v-384q0 -20 -14 -34t-34 -14h-144l-48 48v-48h-192zM216 96h96v288h-96v-288z" />
<glyph unicode="c" horiz-adv-x="432" d="M24 48v384q0 20 14 34t34 14h288q19 0 33.5 -14.5t14.5 -33.5v-96h-144v48h-96v-288h96v48h144v-96q0 -20 -14 -34t-34 -14h-288q-22 0 -35 13t-13 35z" />
<glyph unicode="d" d="M24 48v384q0 20 14 34t34 14h144l48 -48v144h-48v96h192v-576h48v-96h-192v48l-48 -48h-144q-22 0 -35 13t-13 35zM168 96h96v288h-96v-288z" />
<glyph unicode="e" horiz-adv-x="432" d="M24 48v384q0 20 14 34t34 14h288q19 0 33.5 -14.5t14.5 -33.5v-240h-240v-96h96v48h144v-96q0 -20 -14 -34t-34 -14h-288q-22 0 -35 13t-13 35zM168 288h96v96h-96v-96z" />
<glyph unicode="f" horiz-adv-x="288" d="M24 0v96h48v288h-48v96h48v144q0 20 14 34t34 14h144v-96h-48v-96h48v-96h-48v-288h48v-96h-240z" />
<glyph unicode="g" d="M24 -48h144v-48h96v144l-48 -48h-144q-22 0 -35 13t-13 35v384q0 20 14 34t34 14h144l48 -48v48h192v-96h-48v-528q0 -19 -15 -33.5t-33 -14.5h-288q-20 0 -34 13.5t-14 34.5v96zM168 96h96v288h-96v-288z" />
<glyph unicode="h" horiz-adv-x="528" d="M24 0v96h48v480h-48v96h192v-240l48 48h144q19 0 33.5 -14.5t14.5 -33.5v-336h48v-96h-192v384h-96v-384h-192z" />
<glyph unicode="i" horiz-adv-x="288" d="M24 0v96h48v288h-48v96h192v-384h48v-96h-240zM72 576v48q0 20 14 34t34 14h48q19 0 33.5 -14.5t14.5 -33.5v-48q0 -20 -14 -34t-34 -14h-48q-22 0 -35 13t-13 35z" />
<glyph unicode="j" horiz-adv-x="288" d="M24 -96h48v480h-48v96h240v-96h-48v-528q0 -19 -15 -33.5t-33 -14.5h-144v96zM72 576v48q0 20 14 34t34 14h48q19 0 33.5 -14.5t14.5 -33.5v-48q0 -20 -14 -34t-34 -14h-48q-22 0 -35 13t-13 35z" />
<glyph unicode="k" horiz-adv-x="528" d="M24 0v96h48v480h-48v96h192v-384l96 192h144v-96h-48l-48 -96h96v-192h48v-96h-192v192h-96v-192h-192z" />
<glyph unicode="l" horiz-adv-x="288" d="M24 0v96h48v480h-48v96h192v-576h48v-96h-240z" />
<glyph unicode="m" horiz-adv-x="768" d="M24 384v96h192v-48l48 48h144q19 0 33.5 -14.5t14.5 -33.5l48 48h144q19 0 33.5 -14.5t14.5 -33.5v-336h48v-96h-192v384h-96v-384h-144v384h-96v-384h-144v384h-48z" />
<glyph unicode="n" horiz-adv-x="528" d="M24 384v96h192v-48l48 48h144q19 0 33.5 -14.5t14.5 -33.5v-336h48v-96h-192v384h-96v-384h-144v384h-48z" />
<glyph unicode="o" horiz-adv-x="432" d="M24 48v384q0 20 14 34t34 14h288q19 0 33.5 -14.5t14.5 -33.5v-384q0 -20 -14 -34t-34 -14h-288q-22 0 -35 13t-13 35zM168 96h96v288h-96v-288z" />
<glyph unicode="p" d="M24 -96h48v480h-48v96h192v-48l48 48h144q19 0 33.5 -14.5t14.5 -33.5v-384q0 -20 -14 -34t-34 -14h-144l-48 48v-144h48v-96h-240v96zM216 96h96v288h-96v-288z" />
<glyph unicode="q" d="M24 48v384q0 20 14 34t34 14h144l48 -48v48h192v-96h-48v-480h48v-96h-240v96h48v144l-48 -48h-144q-22 0 -35 13t-13 35zM168 96h96v288h-96v-288z" />
<glyph unicode="r" horiz-adv-x="432" d="M24 0v96h48v288h-48v96h192v-48l48 48h96q19 0 33.5 -14.5t14.5 -33.5v-96h-144v48h-48v-288h48v-96h-240z" />
<glyph unicode="s" horiz-adv-x="432" d="M24 0v144h144v-48h96v96h-192q-22 0 -35 13t-13 35v192q0 20 14 34t34 14h336v-144h-144v48h-96v-96h192q19 0 33.5 -14.5t14.5 -33.5v-192q0 -20 -14 -34t-34 -14h-336z" />
<glyph unicode="t" horiz-adv-x="288" d="M24 384v96h48v96h144v-96h48v-96h-48v-288h48v-96h-144q-22 0 -35 13t-13 35v336h-48z" />
<glyph unicode="u" horiz-adv-x="528" d="M24 384v96h192v-384h96v384h144v-384h48v-96h-192v48l-48 -48h-144q-22 0 -35 13t-13 35v336h-48z" />
<glyph unicode="v" horiz-adv-x="528" d="M24 384v96h192v-240l48 -96l48 96v240h192v-96h-48v-144l-120 -240h-144l-120 240v144h-48z" />
<glyph unicode="w" horiz-adv-x="768" d="M24 384v96h192v-240l48 -96l48 96v240h144v-240l48 -96l48 96v240h192v-96h-48v-144l-120 -240h-144l-48 96l-48 -96h-144l-120 240v144h-48z" />
<glyph unicode="x" d="M24 0v96h48l72 144l-72 144h-48v96h144l72 -144l72 144h144v-96h-48l-72 -144l72 -144h48v-96h-144l-72 144l-72 -144h-144z" />
<glyph unicode="y" horiz-adv-x="528" d="M24 384v96h192v-240l48 -96l48 96v240h192v-96h-48v-144l-216 -432h-144v96h48l48 96l-120 240v144h-48z" />
<glyph unicode="z" d="M24 0v96l288 288h-144v-48h-144v144h432v-96l-288 -288h144v48h144v-144h-432z" />
<glyph unicode="{" horiz-adv-x="288" d="M24 240v96h48v384q0 20 14 34t34 14h144v-96h-48v-336q0 -20 -14 -34t-34 -14q19 0 33.5 -14.5t14.5 -33.5v-336h48v-96h-144q-20 0 -34 13.5t-14 34.5v384h-48z" />
<glyph unicode="|" horiz-adv-x="192" d="M24 -192v960h144v-960h-144z" />
<glyph unicode="}" horiz-adv-x="288" d="M24 -96h48v336q0 20 14 34t34 14q-22 0 -35 13t-13 35v336h-48v96h144q19 0 33.5 -14.5t14.5 -33.5v-384h48v-96h-48v-384q0 -19 -15 -33.5t-33 -14.5h-144v96z" />
<glyph unicode="~" horiz-adv-x="432" d="M24 240v144q0 20 14 34t34 14h144l96 -96v96h96v-144q0 -20 -14 -34t-34 -14h-144l-96 96v-96h-96z" />
<glyph unicode="&#xa1;" horiz-adv-x="240" d="M48 -96v480h144v-480h-144zM48 480v48q0 20 14 34t34 14h48q19 0 33.5 -14.5t14.5 -33.5v-48q0 -20 -14 -34t-34 -14h-48q-22 0 -35 13t-13 35z" />
<glyph unicode="&#xa2;" d="M24 96v480q0 20 14 34t34 14h144v96h48v-96h144q19 0 33.5 -14.5t14.5 -33.5v-96h-144v48h-48v-384h48v48h144v-96q0 -20 -14 -34t-34 -14h-144v-96h-48v96h-144q-22 0 -35 13t-13 35zM168 144h48v384h-48v-384z" />
<glyph unicode="&#xa3;" horiz-adv-x="528" d="M24 0v144h48v144h-48v96h48v240q0 20 14 34t34 14h336q19 0 33.5 -14.5t14.5 -33.5v-144h-144v48h-144v-144h144v-96h-144v-144h144v48h144v-192h-480z" />
<glyph unicode="&#xa4;" horiz-adv-x="528" d="M24 144l96 96v192l-96 96l48 48l96 -96h192l96 96l48 -48l-96 -96v-192l96 -96l-48 -48l-96 96h-192l-96 -96zM216 288h96v96h-96v-96z" />
<glyph unicode="&#xa5;" horiz-adv-x="576" d="M24 528v144h144l120 -240l120 240h144v-144h-48l-96 -192h96v-48h-120l-24 -48h144v-48h-144v-48h48v-144h-240v144h48v48h-144v48h144l-24 48h-120v48h96l-96 192h-48z" />
<glyph unicode="&#xa6;" horiz-adv-x="144" d="M24 -96v384h96v-384h-96zM24 384v384h96v-384h-96z" />
<glyph unicode="&#xa7;" horiz-adv-x="432" d="M24 -48v96h144v-48h96v144h-192q-22 0 -35 13t-13 35v240q0 20 14 34t34 14q-22 0 -35 13t-13 35v192q0 20 14 34t34 14h288q19 0 33.5 -14.5t14.5 -33.5v-96h-144v48h-96v-144h192q19 0 33.5 -14.5t14.5 -33.5v-240q0 -20 -14 -34t-34 -14q19 0 33.5 -14.5t14.5 -33.5 v-192q0 -19 -15 -33.5t-33 -14.5h-288q-20 0 -34 13.5t-14 34.5zM168 240h96v192h-96v-192z" />
<glyph unicode="&#xa8;" horiz-adv-x="384" d="M24 576v48q0 20 14 34t34 14h48q19 0 33.5 -14.5t14.5 -33.5v-48q0 -20 -14 -34t-34 -14h-48q-22 0 -35 13t-13 35zM216 576v48q0 20 14 34t34 14h48q19 0 33.5 -14.5t14.5 -33.5v-48q0 -20 -14 -34t-34 -14h-48q-22 0 -35 13t-13 35z" />
<glyph unicode="&#xa9;" horiz-adv-x="768" d="M48 48v576q0 20 14 34t34 14h576q19 0 33.5 -14.5t14.5 -33.5v-576q0 -20 -14 -34t-34 -14h-576q-22 0 -35 13t-13 35zM144 96h480v480h-480v-480zM240 240v192q0 20 14 34t34 14h240v-96h-96v48h-96v-192h96v48h96v-96h-240q-22 0 -35 13t-13 35z" />
<glyph unicode="&#xaa;" horiz-adv-x="288" d="M24 384v96q0 20 14 34t34 14h96v96h-48v-48h-96v48q0 20 14 34t34 14h144q19 0 33.5 -14.5t14.5 -33.5v-288h-96v24l-48 -24h-48q-22 0 -35 13t-13 35zM120 384h48v96h-48v-96z" />
<glyph unicode="&#xab;" horiz-adv-x="432" d="M24 192v96l192 192v-144l-96 -96l96 -96v-144zM216 192v96l192 192v-144l-96 -96l96 -96v-144z" />
<glyph unicode="&#xac;" horiz-adv-x="432" d="M24 288v96h384v-240h-96v144h-288z" />
<glyph unicode="&#xad;" horiz-adv-x="336" d="M24 288v96h288v-96h-288z" />
<glyph unicode="&#xae;" horiz-adv-x="768" d="M48 48v576q0 20 14 34t34 14h576q19 0 33.5 -14.5t14.5 -33.5v-576q0 -20 -14 -34t-34 -14h-576q-22 0 -35 13t-13 35zM144 96h480v480h-480v-480zM192 192v48h48v192h-48v48h288q19 0 33.5 -14.5t14.5 -33.5v-48q0 -20 -14 -34t-34 -14q19 0 33.5 -14.5t14.5 -33.5v-48 h48v-48h-144v96h-96v-96h-144zM336 336h96v96h-96v-96z" />
<glyph unicode="&#xaf;" horiz-adv-x="336" d="M24 528v96h288v-96h-288z" />
<glyph unicode="&#xb0;" horiz-adv-x="288" d="M24 480v144q0 20 14 34t34 14h144q19 0 33.5 -14.5t14.5 -33.5v-144q0 -20 -14 -34t-34 -14h-144q-22 0 -35 13t-13 35zM120 480h48v144h-48v-144z" />
<glyph unicode="&#xb1;" horiz-adv-x="432" d="M24 0v96h384v-96h-384zM24 288v96h144v144h96v-144h144v-96h-144v-144h-96v144h-144z" />
<glyph unicode="&#xb2;" horiz-adv-x="288" d="M24 336v96l144 144v48h-48v-48h-96v48q0 20 14 34t34 14h144q19 0 33.5 -14.5t14.5 -33.5v-48l-144 -144h144v-96h-240z" />
<glyph unicode="&#xb3;" horiz-adv-x="288" d="M24 384v48h96v-48h48v96h-48v48l48 48v48h-48v-48h-96v96h240v-96l-48 -48q19 0 33.5 -14.5t14.5 -33.5v-96q0 -20 -14 -34t-34 -14h-144q-22 0 -35 13t-13 35z" />
<glyph unicode="&#xb4;" horiz-adv-x="216" d="M0 528l72 144h120l-72 -144h-120z" />
<glyph unicode="&#xb5;" horiz-adv-x="528" d="M24 384v96h192v-384h96v384h144v-384h48v-96h-192v48l-48 -48h-48v-192h-144v576h-48z" />
<glyph unicode="&#xb6;" d="M24 384v240q0 20 14 34t34 14h384v-96h-48v-480h48v-96h-144v576h-48v-576h-144v96h48v240h-96q-22 0 -35 13t-13 35z" />
<glyph unicode="&#xb7;" horiz-adv-x="192" d="M24 288v48q0 20 14 34t34 14h48q19 0 33.5 -14.5t14.5 -33.5v-48q0 -20 -14 -34t-34 -14h-48q-22 0 -35 13t-13 35z" />
<glyph unicode="&#xb8;" horiz-adv-x="240" d="M24 -144h96v48h-48v96h96v-48h48v-96q0 -19 -15 -33.5t-33 -14.5h-144v48z" />
<glyph unicode="&#xb9;" horiz-adv-x="288" d="M24 576l96 96h96v-240h48v-96h-192v96h48v144l-48 -48z" />
<glyph unicode="&#xba;" horiz-adv-x="288" d="M24 384v240q0 20 14 34t34 14h144q19 0 33.5 -14.5t14.5 -33.5v-240q0 -20 -14 -34t-34 -14h-144q-22 0 -35 13t-13 35zM120 384h48v240h-48v-240z" />
<glyph unicode="&#xbb;" horiz-adv-x="432" d="M24 0v144l96 96l-96 96v144l192 -192v-96zM216 0v144l96 96l-96 96v144l192 -192v-96z" />
<glyph unicode="&#xbc;" horiz-adv-x="672" d="M24 576l96 96h96v-240h48v-96h-192v96h48v144l-48 -48zM120 0l336 672h96l-336 -672h-96zM312 96v48l192 192h96v-192h48v-48h-48v-48h48v-48h-192v48h48v48h-192zM408 144h96v96z" />
<glyph unicode="&#xbd;" horiz-adv-x="672" d="M24 576l96 96h96v-240h48v-96h-192v96h48v144l-48 -48zM120 0l336 672h96l-336 -672h-96zM408 0v96l144 144v48h-48v-48h-96v48q0 20 14 34t34 14h144q19 0 33.5 -14.5t14.5 -33.5v-48l-144 -144h144v-96h-240z" />
<glyph unicode="&#xbe;" horiz-adv-x="672" d="M24 384v48h96v-48h48v96h-48v48l48 48v48h-48v-48h-96v96h240v-96l-48 -48q19 0 33.5 -14.5t14.5 -33.5v-96q0 -20 -14 -34t-34 -14h-144q-22 0 -35 13t-13 35zM120 0l336 672h96l-336 -672h-96zM312 96v48l192 192h96v-192h48v-48h-48v-48h48v-48h-192v48h48v48h-192z M408 144h96v96z" />
<glyph unicode="&#xbf;" horiz-adv-x="432" d="M24 -48v288q0 20 14 34t34 14h96v96h144v-192h-144v-144h96v48h144v-144q0 -19 -15 -33.5t-33 -14.5h-288q-20 0 -34 13.5t-14 34.5zM168 480v48q0 20 14 34t34 14h48q19 0 33.5 -14.5t14.5 -33.5v-48q0 -20 -14 -34t-34 -14h-48q-22 0 -35 13t-13 35z" />
<glyph unicode="&#xc0;" horiz-adv-x="576" d="M24 0v144h48v480q0 20 14 34t34 14h336q19 0 33.5 -14.5t14.5 -33.5v-480h48v-144h-192v192h-144v-192h-192zM168 864h120l72 -144h-120zM216 288h144v240h-144v-240z" />
<glyph unicode="&#xc1;" horiz-adv-x="576" d="M24 0v144h48v480q0 20 14 34t34 14h336q19 0 33.5 -14.5t14.5 -33.5v-480h48v-144h-192v192h-144v-192h-192zM216 288h144v240h-144v-240zM216 720l72 144h120l-72 -144h-120z" />
<glyph unicode="&#xc2;" horiz-adv-x="576" d="M24 0v144h48v480q0 20 14 34t34 14h336q19 0 33.5 -14.5t14.5 -33.5v-480h48v-144h-192v192h-144v-192h-192zM168 720l72 144h96l72 -144h-72l-48 48l-48 -48h-72zM216 288h144v240h-144v-240z" />
<glyph unicode="&#xc3;" horiz-adv-x="576" d="M24 0v144h48v480q0 20 14 34t34 14h336q19 0 33.5 -14.5t14.5 -33.5v-480h48v-144h-192v192h-144v-192h-192zM144 720v96q0 20 14 34t34 14h96l48 -48h48v48h48v-96q0 -20 -14 -34t-34 -14h-96l-48 48h-48v-48h-48zM216 288h144v240h-144v-240z" />
<glyph unicode="&#xc4;" horiz-adv-x="576" d="M24 0v144h48v480q0 20 14 34t34 14h336q19 0 33.5 -14.5t14.5 -33.5v-480h48v-144h-192v192h-144v-192h-192zM120 768v48q0 20 14 34t34 14h48q19 0 33.5 -14.5t14.5 -33.5v-48q0 -20 -14 -34t-34 -14h-48q-22 0 -35 13t-13 35zM216 288h144v240h-144v-240zM312 768v48 q0 20 14 34t34 14h48q19 0 33.5 -14.5t14.5 -33.5v-48q0 -20 -14 -34t-34 -14h-48q-22 0 -35 13t-13 35z" />
<glyph unicode="&#xc5;" horiz-adv-x="576" d="M24 0v144h48v480q0 20 14 34t34 14h336q19 0 33.5 -14.5t14.5 -33.5v-480h48v-144h-192v192h-144v-192h-192zM216 288h144v240h-144v-240zM216 768v48q0 20 14 34t34 14h48q19 0 33.5 -14.5t14.5 -33.5v-48q0 -20 -14 -34t-34 -14h-48q-22 0 -35 13t-13 35zM264 768h48 v48h-48v-48z" />
<glyph unicode="&#xc6;" horiz-adv-x="816" d="M24 0v144h48v480q0 20 14 34t34 14h672v-192h-144v48h-144v-144h192v-96h-192v-144h144v48h144v-192h-432v192h-144v-192h-192zM216 288h144v240h-144v-240z" />
<glyph unicode="&#xc7;" d="M24 48v576q0 20 14 34t34 14h384v-240h-144v96h-144v-384h144v96h144v-240h-167v-48h48v-96q0 -19 -15 -33.5t-33 -14.5h-144v48h96v48h-48v96h-121q-22 0 -35 13t-13 35z" />
<glyph unicode="&#xc8;" horiz-adv-x="528" d="M24 0v144h48v384h-48v144h480v-192h-144v48h-144v-144h192v-96h-192v-144h144v48h144v-192h-480zM168 864h120l72 -144h-120z" />
<glyph unicode="&#xc9;" horiz-adv-x="528" d="M24 0v144h48v384h-48v144h480v-192h-144v48h-144v-144h192v-96h-192v-144h144v48h144v-192h-480zM216 720l72 144h120l-72 -144h-120z" />
<glyph unicode="&#xca;" horiz-adv-x="528" d="M24 0v144h48v384h-48v144h480v-192h-144v48h-144v-144h192v-96h-192v-144h144v48h144v-192h-480zM144 720l72 144h96l72 -144h-72l-48 48l-48 -48h-72z" />
<glyph unicode="&#xcb;" horiz-adv-x="528" d="M24 0v144h48v384h-48v144h480v-192h-144v48h-144v-144h192v-96h-192v-144h144v48h144v-192h-480zM96 768v48q0 20 14 34t34 14h48q19 0 33.5 -14.5t14.5 -33.5v-48q0 -20 -14 -34t-34 -14h-48q-22 0 -35 13t-13 35zM288 768v48q0 20 14 34t34 14h48q19 0 33.5 -14.5 t14.5 -33.5v-48q0 -20 -14 -34t-34 -14h-48q-22 0 -35 13t-13 35z" />
<glyph unicode="&#xcc;" horiz-adv-x="288" d="M24 0v144h48v384h-48v144h240v-144h-48v-384h48v-144h-240zM24 864h120l72 -144h-120z" />
<glyph unicode="&#xcd;" horiz-adv-x="288" d="M24 0v144h48v384h-48v144h240v-144h-48v-384h48v-144h-240zM72 720l72 144h120l-72 -144h-120z" />
<glyph unicode="&#xce;" horiz-adv-x="288" d="M24 0v144h48v384h-48v144h240v-144h-48v-384h48v-144h-240zM24 720l72 144h96l72 -144h-72l-48 48l-48 -48h-72z" />
<glyph unicode="&#xcf;" horiz-adv-x="288" d="M-24 768v48q0 20 14 34t34 14h48q19 0 33.5 -14.5t14.5 -33.5v-48q0 -20 -14 -34t-34 -14h-48q-22 0 -35 13t-13 35zM24 0v144h48v384h-48v144h240v-144h-48v-384h48v-144h-240zM168 768v48q0 20 14 34t34 14h48q19 0 33.5 -14.5t14.5 -33.5v-48q0 -20 -14 -34t-34 -14 h-48q-22 0 -35 13t-13 35z" />
<glyph unicode="&#xd0;" horiz-adv-x="528" d="M24 0v144h48v144h-48v96h48v144h-48v144h432q19 0 33.5 -14.5t14.5 -33.5v-576q0 -20 -14 -34t-34 -14h-432zM216 144h144v384h-144v-144h48v-96h-48v-144z" />
<glyph unicode="&#xd1;" horiz-adv-x="624" d="M24 0v144h48v384h-48v144h192l192 -384v384h192v-144h-48v-384h48v-144h-192l-192 384v-384h-192zM168 720v96q0 20 14 34t34 14h96l48 -48h48v48h48v-96q0 -20 -14 -34t-34 -14h-96l-48 48h-48v-48h-48z" />
<glyph unicode="&#xd2;" d="M24 48v576q0 20 14 34t34 14h336q19 0 33.5 -14.5t14.5 -33.5v-576q0 -20 -14 -34t-34 -14h-336q-22 0 -35 13t-13 35zM120 864h120l72 -144h-120zM168 144h144v384h-144v-384z" />
<glyph unicode="&#xd3;" d="M24 48v576q0 20 14 34t34 14h336q19 0 33.5 -14.5t14.5 -33.5v-576q0 -20 -14 -34t-34 -14h-336q-22 0 -35 13t-13 35zM168 144h144v384h-144v-384zM168 720l72 144h120l-72 -144h-120z" />
<glyph unicode="&#xd4;" d="M24 48v576q0 20 14 34t34 14h336q19 0 33.5 -14.5t14.5 -33.5v-576q0 -20 -14 -34t-34 -14h-336q-22 0 -35 13t-13 35zM120 720l72 144h96l72 -144h-72l-48 48l-48 -48h-72zM168 144h144v384h-144v-384z" />
<glyph unicode="&#xd5;" d="M24 48v576q0 20 14 34t34 14h336q19 0 33.5 -14.5t14.5 -33.5v-576q0 -20 -14 -34t-34 -14h-336q-22 0 -35 13t-13 35zM100 720v96q0 20 14 34t34 14h96l48 -48h48v48h48v-96q0 -20 -14 -34t-34 -14h-96l-48 48h-48v-48h-48zM168 144h144v384h-144v-384z" />
<glyph unicode="&#xd6;" d="M24 48v576q0 20 14 34t34 14h336q19 0 33.5 -14.5t14.5 -33.5v-576q0 -20 -14 -34t-34 -14h-336q-22 0 -35 13t-13 35zM72 768v48q0 20 14 34t34 14h48q19 0 33.5 -14.5t14.5 -33.5v-48q0 -20 -14 -34t-34 -14h-48q-22 0 -35 13t-13 35zM168 144h144v384h-144v-384z M264 768v48q0 20 14 34t34 14h48q19 0 33.5 -14.5t14.5 -33.5v-48q0 -20 -14 -34t-34 -14h-48q-22 0 -35 13t-13 35z" />
<glyph unicode="&#xd7;" d="M24 192l144 144l-144 144l72 72l144 -144l144 144l72 -72l-144 -144l144 -144l-72 -72l-144 144l-144 -144z" />
<glyph unicode="&#xd8;" d="M24 -48l26 52q-26 11 -26 44v576q0 20 14 34t34 14h312l24 48h48l-27 -54q27 -14 27 -42v-576q0 -20 -14 -34t-34 -14h-312l-24 -48h-48zM168 144h144v288zM168 240l144 288h-144v-288z" />
<glyph unicode="&#xd9;" horiz-adv-x="576" d="M24 528v144h192v-528h144v528h192v-144h-48v-480q0 -20 -14 -34t-34 -14h-336q-22 0 -35 13t-13 35v480h-48zM168 864h120l72 -144h-120z" />
<glyph unicode="&#xda;" horiz-adv-x="576" d="M24 528v144h192v-528h144v528h192v-144h-48v-480q0 -20 -14 -34t-34 -14h-336q-22 0 -35 13t-13 35v480h-48zM216 720l72 144h120l-72 -144h-120z" />
<glyph unicode="&#xdb;" horiz-adv-x="576" d="M24 528v144h192v-528h144v528h192v-144h-48v-480q0 -20 -14 -34t-34 -14h-336q-22 0 -35 13t-13 35v480h-48zM168 720l72 144h96l72 -144h-72l-48 48l-48 -48h-72z" />
<glyph unicode="&#xdc;" horiz-adv-x="576" d="M24 528v144h192v-528h144v528h192v-144h-48v-480q0 -20 -14 -34t-34 -14h-336q-22 0 -35 13t-13 35v480h-48zM120 768v48q0 20 14 34t34 14h48q19 0 33.5 -14.5t14.5 -33.5v-48q0 -20 -14 -34t-34 -14h-48q-22 0 -35 13t-13 35zM312 768v48q0 20 14 34t34 14h48 q19 0 33.5 -14.5t14.5 -33.5v-48q0 -20 -14 -34t-34 -14h-48q-22 0 -35 13t-13 35z" />
<glyph unicode="&#xdd;" horiz-adv-x="576" d="M24 528v144h144l120 -240l120 240h144v-144h-48l-144 -288v-96h48v-144h-240v144h48v96l-144 288h-48zM216 720l72 144h120l-72 -144h-120z" />
<glyph unicode="&#xde;" horiz-adv-x="528" d="M24 0v144h48v384h-48v144h240v-144h-48v-48h240q19 0 33.5 -14.5t14.5 -33.5v-192q0 -20 -14 -34t-34 -14h-240v-48h48v-144h-240zM216 288h144v96h-144v-96z" />
<glyph unicode="&#xdf;" d="M24 0v96h48v528q0 20 14 34t34 14h288q19 0 33.5 -14.5t14.5 -33.5v-240q0 -20 -14 -34t-34 -14q19 0 33.5 -14.5t14.5 -33.5v-240q0 -20 -14 -34t-34 -14h-144v96h48v192h-48v96h48v192h-96v-576h-192z" />
<glyph unicode="&#xe0;" d="M24 48v192q0 20 14 34t34 14h192v96h-96v-48h-144v96q0 20 14 34t34 14h288q19 0 33.5 -14.5t14.5 -33.5v-336h48v-96h-192v48l-48 -48h-144q-22 0 -35 13t-13 35zM96 672h120l72 -144h-120zM168 96h96v96h-96v-96z" />
<glyph unicode="&#xe1;" d="M24 48v192q0 20 14 34t34 14h192v96h-96v-48h-144v96q0 20 14 34t34 14h288q19 0 33.5 -14.5t14.5 -33.5v-336h48v-96h-192v48l-48 -48h-144q-22 0 -35 13t-13 35zM144 528l72 144h120l-72 -144h-120zM168 96h96v96h-96v-96z" />
<glyph unicode="&#xe2;" d="M24 48v192q0 20 14 34t34 14h192v96h-96v-48h-144v96q0 20 14 34t34 14h288q19 0 33.5 -14.5t14.5 -33.5v-336h48v-96h-192v48l-48 -48h-144q-22 0 -35 13t-13 35zM96 528l72 144h96l72 -144h-72l-48 48l-48 -48h-72zM168 96h96v96h-96v-96z" />
<glyph unicode="&#xe3;" d="M24 48v192q0 20 14 34t34 14h192v96h-96v-48h-144v96q0 20 14 34t34 14h288q19 0 33.5 -14.5t14.5 -33.5v-336h48v-96h-192v48l-48 -48h-144q-22 0 -35 13t-13 35zM72 528v96q0 20 14 34t34 14h96l48 -48h48v48h48v-96q0 -20 -14 -34t-34 -14h-96l-48 48h-48v-48h-48z M168 96h96v96h-96v-96z" />
<glyph unicode="&#xe4;" d="M24 48v192q0 20 14 34t34 14h192v96h-96v-48h-144v96q0 20 14 34t34 14h288q19 0 33.5 -14.5t14.5 -33.5v-336h48v-96h-192v48l-48 -48h-144q-22 0 -35 13t-13 35zM48 576v48q0 20 14 34t34 14h48q19 0 33.5 -14.5t14.5 -33.5v-48q0 -20 -14 -34t-34 -14h-48 q-22 0 -35 13t-13 35zM168 96h96v96h-96v-96zM240 576v48q0 20 14 34t34 14h48q19 0 33.5 -14.5t14.5 -33.5v-48q0 -20 -14 -34t-34 -14h-48q-22 0 -35 13t-13 35z" />
<glyph unicode="&#xe5;" d="M24 48v192q0 20 14 34t34 14h192v96h-96v-48h-144v96q0 20 14 34t34 14h288q19 0 33.5 -14.5t14.5 -33.5v-336h48v-96h-192v48l-48 -48h-144q-22 0 -35 13t-13 35zM144 576v48q0 20 14 34t34 14h48q19 0 33.5 -14.5t14.5 -33.5v-48q0 -20 -14 -34t-34 -14h-48 q-22 0 -35 13t-13 35zM168 96h96v96h-96v-96zM192 576h48v48h-48v-48z" />
<glyph unicode="&#xe6;" horiz-adv-x="672" d="M24 48v192q0 20 14 34t34 14h192v96h-96v-48h-144v96q0 20 14 34t34 14h528q19 0 33.5 -14.5t14.5 -33.5v-240h-240v-96h96v48h144v-96q0 -20 -14 -34t-34 -14h-336v48l-48 -48h-144q-22 0 -35 13t-13 35zM168 96h96v96h-96v-96zM408 288h96v96h-96v-96z" />
<glyph unicode="&#xe7;" horiz-adv-x="432" d="M24 48v384q0 20 14 34t34 14h288q19 0 33.5 -14.5t14.5 -33.5v-96h-144v48h-96v-288h96v48h144v-96q0 -20 -14 -34t-34 -14h-96v-48h48v-96q0 -19 -15 -33.5t-33 -14.5h-144v48h96v48h-48v96h-96q-22 0 -35 13t-13 35z" />
<glyph unicode="&#xe8;" horiz-adv-x="432" d="M24 48v384q0 20 14 34t34 14h288q19 0 33.5 -14.5t14.5 -33.5v-240h-240v-96h96v48h144v-96q0 -20 -14 -34t-34 -14h-288q-22 0 -35 13t-13 35zM96 672h120l72 -144h-120zM168 288h96v96h-96v-96z" />
<glyph unicode="&#xe9;" horiz-adv-x="432" d="M24 48v384q0 20 14 34t34 14h288q19 0 33.5 -14.5t14.5 -33.5v-240h-240v-96h96v48h144v-96q0 -20 -14 -34t-34 -14h-288q-22 0 -35 13t-13 35zM144 528l72 144h120l-72 -144h-120zM168 288h96v96h-96v-96z" />
<glyph unicode="&#xea;" horiz-adv-x="432" d="M24 48v384q0 20 14 34t34 14h288q19 0 33.5 -14.5t14.5 -33.5v-240h-240v-96h96v48h144v-96q0 -20 -14 -34t-34 -14h-288q-22 0 -35 13t-13 35zM96 528l72 144h96l72 -144h-72l-48 48l-48 -48h-72zM168 288h96v96h-96v-96z" />
<glyph unicode="&#xeb;" horiz-adv-x="432" d="M24 48v384q0 20 14 34t34 14h288q19 0 33.5 -14.5t14.5 -33.5v-240h-240v-96h96v48h144v-96q0 -20 -14 -34t-34 -14h-288q-22 0 -35 13t-13 35zM48 576v48q0 20 14 34t34 14h48q19 0 33.5 -14.5t14.5 -33.5v-48q0 -20 -14 -34t-34 -14h-48q-22 0 -35 13t-13 35zM168 288 h96v96h-96v-96zM240 576v48q0 20 14 34t34 14h48q19 0 33.5 -14.5t14.5 -33.5v-48q0 -20 -14 -34t-34 -14h-48q-22 0 -35 13t-13 35z" />
<glyph unicode="&#xec;" horiz-adv-x="288" d="M24 0v96h48v288h-48v96h192v-384h48v-96h-240zM24 672h120l72 -144h-120z" />
<glyph unicode="&#xed;" horiz-adv-x="288" d="M24 0v96h48v288h-48v96h192v-384h48v-96h-240zM72 528l72 144h120l-72 -144h-120z" />
<glyph unicode="&#xee;" horiz-adv-x="288" d="M24 0v96h48v288h-48v96h192v-384h48v-96h-240zM24 528l72 144h96l72 -144h-72l-48 48l-48 -48h-72z" />
<glyph unicode="&#xef;" horiz-adv-x="288" d="M-24 576v48q0 20 14 34t34 14h48q19 0 33.5 -14.5t14.5 -33.5v-48q0 -20 -14 -34t-34 -14h-48q-22 0 -35 13t-13 35zM24 0v96h48v288h-48v96h192v-384h48v-96h-240zM168 576v48q0 20 14 34t34 14h48q19 0 33.5 -14.5t14.5 -33.5v-48q0 -20 -14 -34t-34 -14h-48 q-22 0 -35 13t-13 35z" />
<glyph unicode="&#xf0;" horiz-adv-x="432" d="M24 48v384q0 20 14 34t34 14h144l-24 48h-24l-48 -24v48l48 24l-48 96h144l24 -48h24l48 24v-48l-48 -24l96 -192v-336q0 -20 -14 -34t-34 -14h-288q-22 0 -35 13t-13 35zM168 96h96v288h-96v-288z" />
<glyph unicode="&#xf1;" horiz-adv-x="528" d="M24 384v96h192v-48l48 48h144q19 0 33.5 -14.5t14.5 -33.5v-336h48v-96h-192v384h-96v-384h-144v384h-48zM120 528v96q0 20 14 34t34 14h96l48 -48h48v48h48v-96q0 -20 -14 -34t-34 -14h-96l-48 48h-48v-48h-48z" />
<glyph unicode="&#xf2;" horiz-adv-x="432" d="M24 48v384q0 20 14 34t34 14h288q19 0 33.5 -14.5t14.5 -33.5v-384q0 -20 -14 -34t-34 -14h-288q-22 0 -35 13t-13 35zM96 672h120l72 -144h-120zM168 96h96v288h-96v-288z" />
<glyph unicode="&#xf3;" horiz-adv-x="432" d="M24 48v384q0 20 14 34t34 14h288q19 0 33.5 -14.5t14.5 -33.5v-384q0 -20 -14 -34t-34 -14h-288q-22 0 -35 13t-13 35zM144 528l72 144h120l-72 -144h-120zM168 96h96v288h-96v-288z" />
<glyph unicode="&#xf4;" horiz-adv-x="432" d="M24 48v384q0 20 14 34t34 14h288q19 0 33.5 -14.5t14.5 -33.5v-384q0 -20 -14 -34t-34 -14h-288q-22 0 -35 13t-13 35zM96 528l72 144h96l72 -144h-72l-48 48l-48 -48h-72zM168 96h96v288h-96v-288z" />
<glyph unicode="&#xf5;" horiz-adv-x="432" d="M24 48v384q0 20 14 34t34 14h288q19 0 33.5 -14.5t14.5 -33.5v-384q0 -20 -14 -34t-34 -14h-288q-22 0 -35 13t-13 35zM72 528v96q0 20 14 34t34 14h96l48 -48h48v48h48v-96q0 -20 -14 -34t-34 -14h-96l-48 48h-48v-48h-48zM168 96h96v288h-96v-288z" />
<glyph unicode="&#xf6;" horiz-adv-x="432" d="M24 48v384q0 20 14 34t34 14h288q19 0 33.5 -14.5t14.5 -33.5v-384q0 -20 -14 -34t-34 -14h-288q-22 0 -35 13t-13 35zM48 576v48q0 20 14 34t34 14h48q19 0 33.5 -14.5t14.5 -33.5v-48q0 -20 -14 -34t-34 -14h-48q-22 0 -35 13t-13 35zM168 96h96v288h-96v-288zM240 576 v48q0 20 14 34t34 14h48q19 0 33.5 -14.5t14.5 -33.5v-48q0 -20 -14 -34t-34 -14h-48q-22 0 -35 13t-13 35z" />
<glyph unicode="&#xf7;" horiz-adv-x="432" d="M24 288v96h384v-96h-384zM168 144q0 20 14 34t34 14q19 0 33.5 -14.5t14.5 -33.5q0 -20 -14 -34t-34 -14q-22 0 -35 13t-13 35zM168 528q0 20 14 34t34 14q19 0 33.5 -14.5t14.5 -33.5q0 -20 -14 -34t-34 -14q-22 0 -35 13t-13 35z" />
<glyph unicode="&#xf8;" d="M0 48l48 48v336q0 20 14 34t34 14h288l26 -24l22 24l48 -48l-48 -48v-336q0 -20 -14 -34t-34 -14h-288l-24 24l-24 -24zM192 96h96v144l-96 -96v-48zM192 240l96 96v48h-96v-144z" />
<glyph unicode="&#xf9;" horiz-adv-x="528" d="M24 384v96h192v-384h96v384h144v-384h48v-96h-192v48l-48 -48h-144q-22 0 -35 13t-13 35v336h-48zM144 672h120l72 -144h-120z" />
<glyph unicode="&#xfa;" horiz-adv-x="528" d="M24 384v96h192v-384h96v384h144v-384h48v-96h-192v48l-48 -48h-144q-22 0 -35 13t-13 35v336h-48zM192 528l72 144h120l-72 -144h-120z" />
<glyph unicode="&#xfb;" horiz-adv-x="528" d="M24 384v96h192v-384h96v384h144v-384h48v-96h-192v48l-48 -48h-144q-22 0 -35 13t-13 35v336h-48zM144 528l72 144h96l72 -144h-72l-48 48l-48 -48h-72z" />
<glyph unicode="&#xfc;" horiz-adv-x="528" d="M24 384v96h192v-384h96v384h144v-384h48v-96h-192v48l-48 -48h-144q-22 0 -35 13t-13 35v336h-48zM96 576v48q0 20 14 34t34 14h48q19 0 33.5 -14.5t14.5 -33.5v-48q0 -20 -14 -34t-34 -14h-48q-22 0 -35 13t-13 35zM288 576v48q0 20 14 34t34 14h48q19 0 33.5 -14.5 t14.5 -33.5v-48q0 -20 -14 -34t-34 -14h-48q-22 0 -35 13t-13 35z" />
<glyph unicode="&#xfd;" horiz-adv-x="528" d="M24 384v96h192v-240l48 -96l48 96v240h192v-96h-48v-144l-216 -432h-144v96h48l48 96l-120 240v144h-48zM192 528l72 144h120l-72 -144h-120z" />
<glyph unicode="&#xfe;" d="M24 -96h48v672h-48v96h192v-240l48 48h144q19 0 33.5 -14.5t14.5 -33.5v-384q0 -20 -14 -34t-34 -14h-144l-48 48v-144h48v-96h-240v96zM216 96h96v288h-96v-288z" />
<glyph unicode="&#xff;" horiz-adv-x="528" d="M24 384v96h192v-240l48 -96l48 96v240h192v-96h-48v-144l-216 -432h-144v96h48l48 96l-120 240v144h-48zM96 576v48q0 20 14 34t34 14h48q19 0 33.5 -14.5t14.5 -33.5v-48q0 -20 -14 -34t-34 -14h-48q-22 0 -35 13t-13 35zM288 576v48q0 20 14 34t34 14h48 q19 0 33.5 -14.5t14.5 -33.5v-48q0 -20 -14 -34t-34 -14h-48q-22 0 -35 13t-13 35z" />
<glyph unicode="&#x152;" horiz-adv-x="768" d="M24 48v576q0 20 14 34t34 14h672v-192h-144v48h-144v-144h192v-96h-192v-144h144v48h144v-192h-672q-22 0 -35 13t-13 35zM168 144h144v384h-144v-384z" />
<glyph unicode="&#x153;" horiz-adv-x="672" d="M24 48v384q0 20 14 34t34 14h528q19 0 33.5 -14.5t14.5 -33.5v-240h-240v-96h96v48h144v-96q0 -20 -14 -34t-34 -14h-528q-22 0 -35 13t-13 35zM168 96h96v288h-96v-288zM408 288h96v96h-96v-96z" />
<glyph unicode="&#x178;" horiz-adv-x="576" d="M24 528v144h144l120 -240l120 240h144v-144h-48l-144 -288v-96h48v-144h-240v144h48v96l-144 288h-48zM120 768v48q0 20 14 34t34 14h48q19 0 33.5 -14.5t14.5 -33.5v-48q0 -20 -14 -34t-34 -14h-48q-22 0 -35 13t-13 35zM312 768v48q0 20 14 34t34 14h48 q19 0 33.5 -14.5t14.5 -33.5v-48q0 -20 -14 -34t-34 -14h-48q-22 0 -35 13t-13 35z" />
<glyph unicode="&#x2c6;" horiz-adv-x="288" d="M24 528l72 144h96l72 -144h-72l-48 48l-48 -48h-72z" />
<glyph unicode="&#x2dc;" horiz-adv-x="336" d="M24 528v96q0 20 14 34t34 14h96l48 -48h48v48h48v-96q0 -20 -14 -34t-34 -14h-96l-48 48h-48v-48h-48z" />
<glyph unicode="&#x2000;" horiz-adv-x="432" />
<glyph unicode="&#x2001;" horiz-adv-x="864" />
<glyph unicode="&#x2002;" horiz-adv-x="432" />
<glyph unicode="&#x2003;" horiz-adv-x="864" />
<glyph unicode="&#x2004;" horiz-adv-x="288" />
<glyph unicode="&#x2005;" horiz-adv-x="216" />
<glyph unicode="&#x2006;" horiz-adv-x="144" />
<glyph unicode="&#x2007;" horiz-adv-x="144" />
<glyph unicode="&#x2008;" horiz-adv-x="108" />
<glyph unicode="&#x2009;" horiz-adv-x="172" />
<glyph unicode="&#x200a;" horiz-adv-x="48" />
<glyph unicode="&#x2010;" horiz-adv-x="336" d="M24 288v96h288v-96h-288z" />
<glyph unicode="&#x2011;" horiz-adv-x="336" d="M24 288v96h288v-96h-288z" />
<glyph unicode="&#x2012;" horiz-adv-x="336" d="M24 288v96h288v-96h-288z" />
<glyph unicode="&#x2013;" d="M24 288v96h432v-96h-432z" />
<glyph unicode="&#x2014;" horiz-adv-x="624" d="M24 288v96h576v-96h-576z" />
<glyph unicode="&#x2018;" horiz-adv-x="192" d="M24 480v48l72 144h72l-48 -96q19 0 33.5 -14.5t14.5 -33.5v-48q0 -20 -14 -34t-34 -14h-48q-22 0 -35 13t-13 35z" />
<glyph unicode="&#x2019;" horiz-adv-x="192" d="M24 432l48 96q-22 0 -35 13t-13 35v48q0 20 14 34t34 14h48q19 0 33.5 -14.5t14.5 -33.5v-48l-72 -144h-72z" />
<glyph unicode="&#x201a;" horiz-adv-x="192" d="M24 48v48q0 20 14 34t34 14h48q19 0 33.5 -14.5t14.5 -33.5v-48l-72 -144h-72l48 96q-22 0 -35 13t-13 35z" />
<glyph unicode="&#x201c;" horiz-adv-x="384" d="M24 480v48l72 144h72l-48 -96q19 0 33.5 -14.5t14.5 -33.5v-48q0 -20 -14 -34t-34 -14h-48q-22 0 -35 13t-13 35zM216 480v48l72 144h72l-48 -96q19 0 33.5 -14.5t14.5 -33.5v-48q0 -20 -14 -34t-34 -14h-48q-22 0 -35 13t-13 35z" />
<glyph unicode="&#x201d;" horiz-adv-x="384" d="M24 432l48 96q-22 0 -35 13t-13 35v48q0 20 14 34t34 14h48q19 0 33.5 -14.5t14.5 -33.5v-48l-72 -144h-72zM216 432l48 96q-22 0 -35 13t-13 35v48q0 20 14 34t34 14h48q19 0 33.5 -14.5t14.5 -33.5v-48l-72 -144h-72z" />
<glyph unicode="&#x201e;" horiz-adv-x="384" d="M24 48v48q0 20 14 34t34 14h48q19 0 33.5 -14.5t14.5 -33.5v-48l-72 -144h-72l48 96q-22 0 -35 13t-13 35zM216 48v48q0 20 14 34t34 14h48q19 0 33.5 -14.5t14.5 -33.5v-48l-72 -144h-72l48 96q-22 0 -35 13t-13 35z" />
<glyph unicode="&#x2022;" horiz-adv-x="336" d="M24 240v192q0 20 14 34t34 14h192q19 0 33.5 -14.5t14.5 -33.5v-192q0 -20 -14 -34t-34 -14h-192q-22 0 -35 13t-13 35z" />
<glyph unicode="&#x2026;" horiz-adv-x="576" d="M24 48v48q0 20 14 34t34 14h48q19 0 33.5 -14.5t14.5 -33.5v-48q0 -20 -14 -34t-34 -14h-48q-22 0 -35 13t-13 35zM216 48v48q0 20 14 34t34 14h48q19 0 33.5 -14.5t14.5 -33.5v-48q0 -20 -14 -34t-34 -14h-48q-22 0 -35 13t-13 35zM408 48v48q0 20 14 34t34 14h48 q19 0 33.5 -14.5t14.5 -33.5v-48q0 -20 -14 -34t-34 -14h-48q-22 0 -35 13t-13 35z" />
<glyph unicode="&#x202f;" horiz-adv-x="172" />
<glyph unicode="&#x2039;" horiz-adv-x="240" d="M24 192v96l192 192v-144l-96 -96l96 -96v-144z" />
<glyph unicode="&#x203a;" horiz-adv-x="240" d="M24 0v144l96 96l-96 96v144l192 -192v-96z" />
<glyph unicode="&#x205f;" horiz-adv-x="216" />
<glyph unicode="&#x20ac;" d="M24 264v48h48v48h-48v48h48v216q0 20 14 34t34 14h336v-192h-144v48h-96v-120h144v-48h-144v-48h144v-48h-144v-120h96v48h144v-192h-336q-22 0 -35 13t-13 35v216h-48z" />
<glyph unicode="&#x2122;" horiz-adv-x="768" d="M24 528v144h288v-144h-48v72h-48v-192h48v-72h-192v72h48v192h-48v-72h-48zM360 336v72h48v192h-48v72h120l72 -144l72 144h120v-72h-48v-192h48v-72h-144v144l-48 -96l-48 96v-144h-144z" />
<glyph unicode="&#xe000;" d="M0 0v480h480v-480h-480z" />
</font>
</defs>
</svg>
