<?xml version="1.0" standalone="no"?>
<!DOCTYPE svg PUBLIC "-//W3C//DTD SVG 1.1//EN" "http://www.w3.org/Graphics/SVG/1.1/DTD/svg11.dtd" >
<svg xmlns="http://www.w3.org/2000/svg">
<metadata></metadata>
<defs>
<font id="action_man_extendedBdIt" horiz-adv-x="1792" >
<font-face units-per-em="2048" ascent="1638" descent="-410" />
<missing-glyph horiz-adv-x="1331" />
<glyph horiz-adv-x="2048" />
<glyph horiz-adv-x="2048" />
<glyph unicode="&#xd;" horiz-adv-x="2048" />
<glyph unicode=" "  horiz-adv-x="1331" />
<glyph unicode="&#x09;" horiz-adv-x="1331" />
<glyph unicode="&#xa0;" horiz-adv-x="1331" />
<glyph unicode="!" horiz-adv-x="864" d="M1329 1157q-22 -53 -54.5 -106t-71.5 -105.5t-82 -104.5t-85 -104q-47 -46 -87.5 -97t-88 -100t-109.5 -92.5t-152 -75.5q-60 2 -91 26t-34 53q-5 28 -6 55.5t10 56.5q26 62 57.5 123t66.5 123q25 32 42.5 65t33.5 66q14 34 22.5 66t21.5 66q17 49 48.5 97t76.5 96 q32 29 72.5 52.5t86.5 38.5t94.5 20.5t95.5 -0.5q32 -5 54 -15t37 -23.5t24.5 -29t17.5 -30.5q7 -29 8 -59.5t-8 -61.5zM787 116q-12 -29 -49 -55t-88 -44.5t-110.5 -27.5t-116.5 -6q-65 4 -113.5 22t-80 44t-44 58t-4.5 64q5 31 41 55.5t87.5 41.5t112 25t114.5 6 q34 -1 67.5 -4.5t64 -10.5t55.5 -17.5t42 -24.5q28 -26 32 -59.5t-10 -66.5z" />
<glyph unicode="&#x22;" horiz-adv-x="1318" d="M1690 1087q-17 -37 -37 -77.5t-51.5 -79t-80 -72.5t-123.5 -58q-9 -1 -19 -3t-19 -3l-34 -4h-10q-36 -1 -60 7t-39.5 20.5t-24 28.5t-13.5 30q-8 35 -5.5 71t16.5 72l15 39q6 11 10.5 21.5t8.5 21.5q15 45 31.5 89.5t43.5 89.5q12 19 35.5 38.5t55 34t70.5 22.5t83 4 q57 -9 91.5 -26.5t52.5 -41.5t23 -52t2.5 -58t-9.5 -59t-13 -55zM1120 1097q-20 -36 -34.5 -78t-40 -82t-69.5 -74.5t-123 -56.5q-19 -5 -37.5 -5.5t-38.5 -0.5q-45 4 -74.5 17.5t-48.5 31.5t-29 39t-17 40q-16 43 -11.5 87t19.5 89q14 38 41.5 76.5t59.5 75.5q20 16 40 34 t44 35t53.5 31t67.5 23q19 4 41 8t42 4q42 2 69 -7t43.5 -23.5t25 -32.5t11.5 -34q2 -58 -7.5 -105t-26.5 -92z" />
<glyph unicode="#" horiz-adv-x="1905" d="M2299 1017q-3 -18 -23 -35t-50 -29.5t-66.5 -20.5t-72.5 -9h-112l-36 -99q39 -5 86.5 -9t87 -13t64.5 -24t19 -41q-3 -13 -13.5 -24t-24.5 -21.5t-31 -21t-33 -20.5q-42 -15 -82.5 -28.5t-91.5 -15.5l-38 -2h-34h-7q-4 -11 -11 -22t-12 -22q-7 -12 -13.5 -24.5 t-17.5 -23.5q-16 -16 -41 -29t-55 -23t-64 -17t-67 -10q-64 0 -99.5 16t-50.5 41t-14 53.5t9 53.5q-54 0 -107 2.5t-107 1.5l-22 -60q-3 -12 -13.5 -22.5t-26 -20t-34 -17t-37.5 -13.5q-40 -16 -86.5 -24.5t-92.5 -8.5q-56 6 -85.5 25t-42.5 43.5t-14 52.5t0 52 q-38 1 -77 0.5t-75 4.5q-37 1 -68.5 9.5t-54 21.5t-33.5 30t-7 36q8 33 49.5 54t97.5 33.5t118.5 18t112.5 7.5q12 24 22.5 49t22.5 50q-32 -2 -66.5 -3t-65.5 1q-48 -2 -78 11.5t-56 29.5q-20 18 -28 39t4 44q22 30 67.5 48t101.5 28.5t116 15.5t111 11q14 25 40 53 t63.5 51.5t87 38.5t111.5 14q36 1 67.5 -6t53.5 -20t31.5 -29.5t2.5 -35.5l-24 -63q51 -1 104 -2t104 -1q15 22 32.5 47.5t43.5 48.5t64 39.5t94 19.5q45 -2 85.5 -12.5t71.5 -24.5q34 -14 50 -33t18 -42l-6 -19l-4 -17l-2 -16q48 -4 97 -12.5t88 -23t60.5 -35.5t14.5 -50z M1481 826q7 24 15 48.5t14 48.5h-208l-37 -100q55 1 108 1q54 0 108 2z" />
<glyph unicode="$" horiz-adv-x="1710" d="M2138 923q-6 -20 -29.5 -33t-55.5 -20t-68 -9t-67 1q-49 2 -96 2.5t-91 5.5q-49 2 -93.5 7.5t-94.5 3.5q-18 1 -33.5 2t-33.5 3l-29 -12q7 -14 24.5 -23t39 -16t45 -13.5t41.5 -14.5q72 -20 141.5 -44t132.5 -51q29 -13 53 -29t39.5 -34.5t21.5 -39t0 -42.5 q-14 -26 -40 -50t-61 -45.5t-77.5 -40t-87.5 -33.5q-97 -31 -201 -54.5t-211 -36.5q-9 -24 -14 -48.5t-11 -48.5q-7 -25 -11 -49t-15 -48q-8 -16 -16 -32.5t-18.5 -32.5t-24.5 -31.5t-35 -30.5q-24 -20 -58.5 -33.5t-74.5 -22t-83 -11.5t-82 -3q-30 0 -58 3.5t-51.5 10.5 t-40.5 18t-25 25q0 13 3.5 25.5t8.5 25.5q8 35 28 67.5t36 67.5q23 35 41 69t35 69q-91 6 -174 22.5t-153.5 41t-126 57.5t-92.5 74q-13 14 -17 30.5t0 33.5q-1 16 15 29t41 22t55.5 13t59.5 3q48 -2 93 -8.5t89 -15.5q45 -11 92 -18t89 -18q67 -8 135 -15t140 -7 q20 1 43.5 2t45 4t38 9.5t23.5 18.5q9 25 -7.5 45.5t-48 35.5t-72 25.5t-80.5 16.5q-104 17 -209.5 31.5t-211.5 29.5q-42 8 -80 22t-64 32.5t-36 41t4 48.5q16 27 51.5 48t81 38t96.5 30.5t98 24.5q107 25 215.5 42.5t220.5 27.5q35 53 64.5 107t66.5 107q19 22 46 46.5 t62.5 44.5t80.5 33t100 12q25 -1 52 -3t51.5 -6.5t45.5 -11t35 -16.5q41 -16 56.5 -41t4.5 -53q-9 -27 -24.5 -54.5t-41.5 -53.5q-50 -51 -79 -105q82 -7 152 -26.5t133 -42.5q30 -11 57 -24.5t47 -29.5t29.5 -34.5t4.5 -39.5z" />
<glyph unicode="%" horiz-adv-x="2393" d="M2749 1374q-27 -43 -71 -83t-96.5 -78.5t-110 -76t-109.5 -74.5q-138 -91 -277.5 -178t-277.5 -177q-239 -154 -473.5 -305t-463.5 -306q-55 -35 -99.5 -72.5t-92.5 -74.5q-13 -11 -31.5 -19.5t-40.5 -14t-45.5 -8t-45.5 -1.5q-54 2 -96 14.5t-69 32t-37 44.5t-1 52 q9 19 25.5 36.5t37.5 34t44.5 32.5t46.5 32q215 149 435 296.5t437 296.5q-86 -31 -184.5 -46.5t-196.5 -13.5q-60 -1 -116.5 6t-105 21t-86.5 34t-62 46q-50 48 -54.5 105.5t22.5 114.5q31 57 78.5 112.5t129.5 104.5q40 25 88.5 46t102.5 36.5t112.5 25t117.5 12.5 q145 13 250 -12t166 -74t74 -112.5t-27 -126.5q-9 -26 -23 -54t-37 -55q182 122 360 242.5t369 238.5q20 13 41.5 26.5t46 25t52 20t60.5 10.5q53 -2 100.5 -12.5t80.5 -28.5t48.5 -42t3.5 -53zM2536 338q-27 -60 -85.5 -117.5t-146.5 -107.5q-88 -51 -205 -85t-242 -38 q-93 -8 -166 1t-127 31.5t-88.5 54.5t-50 69.5t-11.5 78t28 79.5q5 44 35 88t79.5 84.5t117 74.5t146.5 57.5t168.5 35t182.5 5.5q57 1 111 -5.5t100 -19.5t81 -32t54 -44q43 -47 43.5 -101.5t-24.5 -108.5zM1207 1073q6 17 12 33.5t8 33.5q-8 14 -34 22t-58 5 q-24 0 -44 -6.5t-36 -16t-27.5 -20.5t-18.5 -21q-16 -23 -23.5 -46.5t-21.5 -47.5q-3 -9 -3 -19t6 -18.5t19.5 -13t37.5 -2.5q45 0 76 12t52 29.5t34 38t21 37.5zM2092 299l11 18l5 18l1 1q7 13 11 28.5t-0.5 29t-20.5 22.5t-49 9q-31 1 -56.5 -5.5t-44 -17t-30.5 -24 t-16 -26.5q-26 -44 -26 -89q0 -22 27.5 -35.5t75.5 -10.5q28 -2 51 7.5t36 22.5q6 14 14.5 26.5t10.5 25.5z" />
<glyph unicode="&#x26;" horiz-adv-x="2045" d="M2347 802q-23 -63 -54 -126t-67 -125.5t-75 -125t-79 -125.5q-24 -32 -52 -65t-63 -64.5t-79.5 -60t-102.5 -52.5q-60 -22 -125 -36t-132.5 -23t-136 -13t-135.5 -6q-103 -2 -198 9t-179.5 32t-157.5 51t-132 65q-60 34 -107.5 74.5t-77 85t-38 93.5t8.5 100 q10 45 51 87.5t102.5 79.5t139.5 67t163 51q-42 27 -83 58t-69 65t-36.5 71.5t14.5 78.5q14 37 48 71.5t82.5 66t108 58.5t124.5 50q133 45 278.5 69.5t291.5 24.5q111 1 215.5 -8.5t201.5 -27.5q45 -9 90 -20.5t81 -28t58 -37t20 -47.5q-8 -27 -39 -50.5t-69 -45.5 q-35 -20 -77.5 -38t-96.5 -18q-70 1 -134.5 9t-131.5 15q-71 6 -141.5 11.5t-141.5 6.5q-47 -1 -91 -12q-19 -5 -42 -11t-29 -18q-6 -17 -7 -34.5t5.5 -34t22.5 -30.5t44 -24q28 -9 60.5 -16t67.5 -12t70.5 -8.5t70.5 -7.5q69 -6 139 -13t143 -9q16 19 43.5 35t62.5 27.5 t74.5 17t78.5 2.5q65 1 113 -12.5t77 -36t37 -51.5t-8 -59zM1700 582q-44 5 -91 7.5t-95 4.5q-50 -2 -107.5 -2.5t-117 -3.5t-118 -9t-109 -18.5t-90 -33t-61.5 -51.5q-11 -25 -2 -47t31.5 -41t56 -34t71.5 -26q78 -25 171 -37.5t193 -12.5l39 2l38 2l30 1q42 75 81.5 149.5 t79.5 149.5z" />
<glyph unicode="'" horiz-adv-x="707" d="M1128 1094q-17 -40 -40 -79.5t-61 -77.5q-18 -19 -38 -38.5t-44.5 -37.5t-55.5 -33t-72 -24q-19 -5 -39 -7t-41 -2q-61 9 -97 28t-54 45t-21.5 56.5t1.5 62.5t14 63.5t16 58.5q15 38 39 75.5t54 73.5l35.5 35.5t41.5 35.5t51 32t64 25q41 10 88 10q43 -3 71.5 -16 t46 -31.5t26 -40t13.5 -40.5q16 -42 17.5 -85.5t-15.5 -88.5z" />
<glyph unicode="(" horiz-adv-x="1601" d="M1589 3q-13 -28 -45 -52.5t-76 -43.5t-98 -31.5t-110 -15.5q-114 -8 -216.5 8.5t-183.5 46.5q-81 26 -148.5 59.5t-123 72t-100 81t-78.5 87.5q-63 89 -81 186.5t19 197.5q38 112 119.5 222.5t199.5 214.5q124 107 286 202.5t368 167.5q94 32 197 53.5t209 15.5 q63 -3 109 -18.5t73 -39t35 -52.5t-5 -59q-10 -14 -28.5 -23.5t-42 -17t-49 -13t-49.5 -11.5q-89 -19 -172.5 -46t-158 -59.5t-139.5 -70.5t-116 -80q-56 -44 -97 -90.5t-72.5 -94t-54.5 -95.5t-42 -96q-13 -38 -22 -77t-10 -77.5t9.5 -75t36.5 -70.5q29 -32 70.5 -59.5 t91.5 -51.5t106 -45t114 -39q57 -17 114.5 -30.5t114.5 -27.5q28 -6 39.5 -21t6.5 -32z" />
<glyph unicode=")" horiz-adv-x="1597" d="M1937 737q-25 -68 -71 -135t-107.5 -132t-136 -128t-156.5 -124q-76 -54 -168.5 -114t-201 -108.5t-233 -78.5t-264.5 -25q-53 4 -100.5 16t-83 31t-54.5 43.5t-13 53.5q3 14 18 29t42 24q31 6 61.5 13.5t62.5 10.5q99 17 184.5 46.5t159 66.5t134.5 79t111 86 q115 95 187 195.5t110 203.5q31 85 4.5 168t-120.5 146q-86 60 -206 102.5t-263 68.5q-23 6 -47 12t-43 15t-30 20.5t-6 27.5q12 30 48.5 53.5t86.5 40.5t108 27.5t113 13.5q140 12 259.5 -4.5t215.5 -52.5t168 -86t117 -105q100 -112 131.5 -239.5t-17.5 -260.5z" />
<glyph unicode="*" horiz-adv-x="1498" d="M1934 1067q-4 -11 -11 -22.5t-19 -22.5t-28.5 -20t-40.5 -14q-89 -23 -176.5 -48t-173.5 -51q60 -23 122.5 -45.5t123.5 -44.5q37 -13 44 -37t-9 -47q-13 -20 -33 -41.5t-52 -38.5q-32 -18 -73.5 -31t-85.5 -15q-64 0 -113 16t-91 33q0 -13 -11 -27q-9 -24 -44 -44.5 t-79 -34.5q-45 -15 -96 -23.5t-102 -10.5q-61 3 -91 21t-40 43.5t-5.5 55t12.5 53.5q-26 -7 -53 -15.5t-54.5 -16t-55.5 -12t-56 -2.5q-51 -2 -92 8.5t-77 23.5q-33 13 -53.5 32.5t-16.5 44.5q24 30 67.5 53.5t96.5 42.5t110.5 35.5t109.5 33.5q-39 17 -81 34.5t-76.5 37.5 t-56.5 44t-21 53q14 22 42 42t65 35.5t80.5 25t88.5 10.5q36 1 64 -5.5t51.5 -17t44 -22.5t40.5 -23l5 12q14 31 36 61t58 58q36 27 93 46t119 17q39 0 73.5 -8t59.5 -21.5t37.5 -31t8.5 -38.5q-5 -22 -16.5 -42.5t-22.5 -42.5q60 23 128 40.5t140 19.5q42 -3 77.5 -13.5 t60.5 -26t38 -35t10 -41.5z" />
<glyph unicode="+" horiz-adv-x="1430" d="M1802 678q-8 -21 -32 -40t-58 -34t-75.5 -24t-83.5 -10q-69 0 -140 -2.5t-140 -2.5q-13 -29 -21.5 -59.5t-24.5 -60.5q-11 -26 -45.5 -46t-78.5 -35q-43 -17 -95 -27.5t-103 -10.5q-50 5 -80.5 19t-47 33.5t-22 43t-4.5 48.5t5.5 49.5t8.5 45.5q-60 0 -118.5 -0.5 t-119.5 2.5q-51 1 -90.5 13.5t-62.5 32.5q-27 19 -40.5 42.5t-2.5 49.5q23 26 59.5 43.5t81.5 29t96.5 18t103.5 10.5t103 6t95 4l7 19q12 32 36 70t65.5 70.5t101 54.5t142.5 21q41 0 76.5 -8.5t60.5 -22.5t37 -32t7 -39q-13 -36 -18.5 -70t-20.5 -70q10 0 21 -1t21 -1 q44 0 93 -1.5t96 -6.5t89 -14.5t71.5 -24t43 -35t3.5 -47.5z" />
<glyph unicode="," horiz-adv-x="765" d="M887 159q-16 -36 -49 -69.5t-77 -65t-95.5 -60.5t-105.5 -56q-30 -14 -61 -29.5t-64.5 -28.5t-70.5 -21.5t-79 -9.5q-14 2 -29 2t-31 2q-39 2 -64 12t-39 24.5t-17.5 32.5t1.5 35q10 31 33.5 60.5t55.5 58t69.5 56t75.5 53.5q40 23 83.5 49.5t92.5 49t104.5 38 t120.5 17.5q53 -3 93 -16t53 -39q8 -23 8.5 -47t-8.5 -48z" />
<glyph unicode="-" horiz-adv-x="1717" d="M1949 678q-13 -22 -42 -40t-68 -32t-83 -22.5t-87 -10.5q-244 -8 -483 -7t-481 2q-103 8 -164 45q-16 9 -30 19.5t-23 22t-12.5 24t2.5 26.5q38 38 102.5 59t139.5 30.5t153.5 12.5t145.5 5q46 -1 90 -1t91 -2q46 0 91 -1.5t91 -1.5q91 0 180.5 -3t178.5 -8q42 -5 83 -14 t72 -23.5t47 -34.5t6 -45z" />
<glyph unicode="." horiz-adv-x="812" d="M891 167q-11 -36 -47 -69.5t-90 -61.5q-51 -29 -120.5 -47t-141.5 -18q-78 -3 -133.5 14t-86.5 44.5t-37.5 62.5t12.5 70q15 31 53 59.5t90 49.5t114.5 33t125.5 12q64 3 117.5 -8t89.5 -32t51.5 -49.5t2.5 -59.5z" />
<glyph unicode="/" horiz-adv-x="1481" d="M2086 1341q-4 -17 -14.5 -33.5t-25 -33t-31 -32.5t-32.5 -32q-40 -33 -77.5 -67t-81.5 -68q-141 -123 -285 -245.5t-294.5 -243.5t-309 -240.5t-326.5 -236.5q-33 -22 -73 -47t-87 -45t-100 -32t-112 -7q-67 6 -97.5 33t-21.5 61q8 28 27 56.5t44.5 56t55 54.5t59.5 53 q73 58 143 116t144 116q83 69 161.5 139t163.5 139q149 121 309 237.5t326 231.5q36 24 78.5 51t92 49t106.5 35t121 9q27 -3 54 -8.5t47 -15t31 -22t5 -28.5z" />
<glyph unicode="0" horiz-adv-x="1973" d="M2222 640q-42 -110 -128 -220t-232 -207q-68 -49 -156.5 -92t-190.5 -75t-213.5 -49.5t-226.5 -15.5q-118 0 -212.5 21.5t-167.5 57t-125 81t-85 93.5q-69 98 -90 205.5t21 219.5q43 115 130.5 227t219.5 217q60 49 138 99t171 90.5t200 67t227 28.5q188 0 324.5 -33.5 t228 -91t142 -133t67.5 -159t4.5 -169t-46.5 -162.5zM1719 725q9 35 20 76.5t14.5 83.5t-5.5 81.5t-38.5 71.5t-85 53.5t-146.5 26.5q-71 -2 -125.5 -21t-97 -47t-75 -60t-57.5 -60q-38 -47 -65.5 -92t-49 -87.5t-38 -84t-31.5 -82.5q-9 -28 -17.5 -61.5t-11 -67t5.5 -65 t32.5 -56.5t70 -41.5t118.5 -19.5q66 -2 125 11t110 34.5t92.5 49.5t71.5 55q74 83 115 157t68 145z" />
<glyph unicode="1" horiz-adv-x="905" d="M1271 1026q-29 -89 -69 -176t-82 -176q-40 -89 -84.5 -177.5t-79.5 -177.5q-5 -22 -14 -42.5t-14 -42.5q-5 -20 -13.5 -41t-16.5 -41q-7 -26 -29 -51t-52 -48q-13 -12 -32 -23.5t-42 -20.5t-48.5 -15.5t-51.5 -8.5q-39 -3 -76 -0.5t-68 10.5t-55.5 20.5t-39.5 28.5 q-16 22 -19 47t1 50.5t12.5 51.5t14.5 51q29 78 64 157t71 157q40 81 78 162t70 162q7 22 15.5 46t13.5 47t3 45.5t-16 42.5q-27 14 -56 29.5t-51 32.5t-32 37.5t2 44.5q13 31 44 60.5t76.5 54.5t103 42t123.5 22q31 -4 57.5 -11t54.5 -15q69 -21 121 -52t84.5 -68.5 t44.5 -80t1 -86.5q-6 -11 -7.5 -23.5t-6.5 -23.5z" />
<glyph unicode="2" horiz-adv-x="2045" d="M2157 189q-67 -33 -147 -55t-165.5 -37.5t-173.5 -28t-171 -25.5q-195 -25 -389.5 -41t-386.5 -12q-68 0 -114.5 16.5t-72.5 41.5t-32.5 56.5t5.5 61.5q12 39 41 77t68.5 74.5t86.5 71.5t96 68q124 81 248.5 160.5t249.5 160.5q51 34 101 70t93 73t76 75.5t50 78.5 q6 13 4 25.5t-13.5 22t-31.5 15.5t-50 5q-63 -1 -124 -8t-122 -19q-57 -10 -114 -22.5t-99 -37.5l-20 -18l-16 -17l-17 -16q-16 -20 -45 -37.5t-66 -30t-79 -19.5t-83 -7q-28 -1 -55 2t-49.5 10t-38.5 18t-21 25q-19 23 -17 51t16 55q24 45 79 82.5t128.5 68t158 54 t166.5 41.5q177 37 357 53t356 13q60 -1 108.5 -11.5t86 -28t64.5 -40.5t44 -48q38 -50 46 -106t-7 -114q-11 -35 -33.5 -69.5t-54 -67.5t-70 -65t-81.5 -63q-104 -66 -209 -130.5t-211 -128.5q-49 -31 -98 -62.5t-93 -64t-82 -66.5t-65 -70q200 16 396.5 38t393.5 34 q53 2 92 -11.5t64 -33.5q26 -17 40.5 -39t1.5 -48z" />
<glyph unicode="3" horiz-adv-x="2004" d="M2260 555q-21 -59 -72.5 -114.5t-124 -107t-162 -97.5t-188.5 -84q-96 -41 -204 -73.5t-221.5 -54.5t-231 -32.5t-232.5 -6.5q-71 4 -127.5 21.5t-87.5 46.5q-41 27 -56 61.5t-3 71.5q5 17 20 35t50 26t72.5 10t72.5 4q62 3 122 5t122 9q115 13 223.5 35t211.5 57 q49 16 95.5 36t84 43t64.5 49t37 55q7 10 8.5 22t-4.5 22.5t-20.5 17.5t-39.5 8q-157 0 -317 -15t-314 -52q-54 -13 -104.5 -26.5t-107.5 -21.5q-57 3 -98 19.5t-69 36.5q-35 20 -52.5 44t-12.5 52q8 23 32 43.5t57 38t72 32t78 26.5q100 29 198 56.5t198 56.5q42 15 84 32 t76.5 37t59 42.5t32.5 48.5q5 8 13 16.5t13 16.5l-14 8q-104 -9 -199.5 -35.5t-190.5 -53.5q-81 -24 -162.5 -48t-167.5 -42q-27 -1 -50 3t-43 10.5t-38 14.5t-34 16q-12 9 -25.5 18t-23 19t-14 21t0.5 24q29 39 81.5 70t117 57.5t136 49.5t138.5 45q73 18 148 37t151.5 34 t155 24.5t158.5 10.5q110 0 201 -23t160 -59q33 -18 60 -39t44.5 -44.5t23.5 -49.5t-1 -53q-11 -30 -34.5 -59t-55 -57t-69 -55t-75.5 -53q121 -6 208 -37.5t136 -79t57.5 -105.5t-27.5 -117z" />
<glyph unicode="4" horiz-adv-x="1853" d="M2082 602q-20 -37 -69.5 -71t-126.5 -50q-11 -14 -18 -29t-15 -29q-11 -32 -20.5 -64.5t-18.5 -64.5q-6 -32 -18.5 -62.5t-23.5 -62.5q-12 -28 -36.5 -57.5t-63 -54.5t-90 -42.5t-116.5 -21.5q-41 -3 -80 0t-71.5 12t-54.5 23.5t-29 34.5q-12 19 -14 40t2 42.5t11.5 43.5 t13.5 43q12 23 21.5 47t21.5 47q15 23 25.5 47t22.5 47q1 13 7 24.5t6 24.5q-35 3 -68.5 3.5t-69.5 0.5q-129 0 -255.5 5.5t-246.5 23.5q-55 7 -111 16.5t-107 22t-93.5 30.5t-70.5 42q-20 20 -18 44.5t11 49.5q25 60 73.5 118t107.5 115q62 60 131.5 116t151.5 110 q39 28 85 54.5t96 50.5q43 23 91.5 45t108.5 32q59 2 105 -11.5t79 -30.5q16 -10 31.5 -21t26 -23.5t14.5 -26t-2 -28.5q-15 -26 -39.5 -50.5t-53.5 -48t-60.5 -47t-61.5 -46.5q-72 -54 -138 -107.5t-120 -110.5q118 -11 236.5 -17.5t236.5 -14.5q26 42 41 83.5t31 83.5 q14 41 27.5 82.5t28.5 82.5q17 45 40 90.5t58 90.5q15 21 42.5 39.5t63.5 32t77.5 20.5t85.5 4q58 -3 101.5 -17.5t71 -36t39 -48.5t5.5 -55q-14 -53 -33.5 -106t-41.5 -106q-20 -54 -39 -107.5t-41 -107.5q-7 -15 -7 -30q0 -14 -5 -30q33 -9 59 -22t42.5 -29.5t21.5 -36 t-4 -40.5z" />
<glyph unicode="5" horiz-adv-x="2028" d="M2331 626q-26 -67 -89 -128.5t-149.5 -117t-191 -105t-213.5 -92.5q-109 -42 -229 -79.5t-246.5 -64.5t-256.5 -40t-258 -6q-66 4 -117.5 22t-80.5 45q-32 27 -41.5 59t-2.5 65q6 31 45.5 59.5t107.5 34.5q57 5 113.5 8.5t113.5 1.5q54 0 109.5 1t110.5 8 q57 8 109.5 23.5t101 34.5t94 40t88.5 42q43 22 85 45t79 48t66 51.5t45 55.5l7 18q2 7 2.5 14.5t-3.5 14t-13 11t-26 5.5q-54 -3 -104 -13t-98 -24t-95 -30t-94 -31q-94 -35 -185 -69.5t-185 -68.5q-28 -11 -60.5 -20.5t-66.5 -16t-69 -10.5t-68 -4q-76 2 -125.5 26 t-69.5 56q-22 33 -31.5 68.5t7.5 73.5q23 63 50.5 125t60.5 125q35 61 65 122t65 121q24 48 84.5 94t150.5 75q91 29 189.5 45t198.5 25q121 13 241.5 15.5t237.5 -0.5q67 -2 133 -6.5t116 -24.5q54 -19 71 -52.5t1 -68.5q-5 -20 -25 -39.5t-62 -30.5q-42 -9 -82 -8.5 t-82 -1.5q-81 -2 -161 -5t-161 -5q-78 -7 -159 -14t-159 -24q-38 -67 -71.5 -132.5t-68.5 -131.5q75 36 162.5 65.5t181.5 49.5t192 30t193 8q69 -1 135.5 -8t125.5 -20.5t108.5 -34t84.5 -48.5q35 -26 55 -56.5t27.5 -63.5t3 -67.5t-17.5 -68.5z" />
<glyph unicode="6" horiz-adv-x="1884" d="M2178 526q-20 -51 -58.5 -100t-91.5 -95.5t-120 -89.5t-143 -82t-164 -72t-184 -57.5t-197 -37.5t-203 -11q-91 0 -171.5 14t-148 37.5t-122 55t-92.5 67.5q-41 35 -72 73.5t-49 79.5t-21.5 84t11.5 88q22 57 56.5 113.5t77 112.5t91 111.5t99.5 109.5q53 52 105 105 t110.5 105t127.5 101t155 93q56 25 122 39t134 16q43 5 78.5 -0.5t60.5 -18t37.5 -30t9.5 -37.5q3 -17 2 -33t-5 -33q-60 -58 -130 -112.5t-138 -109.5q-53 -44 -104.5 -86.5t-93.5 -89.5q122 30 250 41.5t253 9.5q70 0 138 -7t128 -21t110.5 -34.5t86.5 -47.5 q68 -53 81 -119t-16 -132zM1652 505q8 19 8 40t-13 38t-40.5 28t-73.5 9q-78 1 -150.5 -15t-141.5 -37q-71 -19 -134.5 -46.5t-109.5 -62.5q-19 -15 -37.5 -30.5t-34.5 -31.5t-27.5 -32t-15.5 -32q-9 -23 9 -38.5t51.5 -24.5t75 -12.5t78.5 -3.5q48 -1 97.5 3t97.5 13t93 23 t84 33q75 37 120.5 84t63.5 95z" />
<glyph unicode="7" horiz-adv-x="1850" d="M2338 1191q-33 -49 -77 -97.5t-93 -96t-101 -95t-101 -95.5q-128 -117 -257.5 -231t-264.5 -230q-29 -27 -52 -54t-43 -55t-39.5 -56t-41.5 -56q-23 -27 -47.5 -55.5t-59.5 -52.5q-21 -11 -47 -17.5t-53 -10.5t-55 -5.5t-54 -2.5q-71 -3 -124 11t-85.5 38t-42 55.5 t6.5 64.5q11 31 31.5 61.5t46.5 60.5t55.5 59.5t58.5 59.5q192 173 379.5 343.5t373.5 344.5q11 13 22 24.5t24 24.5q-59 2 -115 4.5t-115 2.5q-59 1 -120 -3t-120 -13.5t-114 -25.5t-102 -40q-40 -22 -90.5 -38t-105.5 -20q-57 -2 -113 4t-95 22q-45 11 -60.5 36t-1.5 51 q18 42 65 78.5t112.5 66t143 52t157.5 36.5q165 30 332.5 38t331.5 5q113 -2 221.5 -9.5t210.5 -24.5q47 -10 90 -25t74.5 -35t46.5 -44.5t7 -54.5z" />
<glyph unicode="8" horiz-adv-x="1918" d="M2272 990q-8 -49 -48.5 -95.5t-104.5 -87t-147 -73.5t-175 -55q68 -20 122.5 -49t88.5 -65t44 -77.5t-11 -86.5q-19 -42 -55 -81.5t-85.5 -76.5t-109.5 -70.5t-127 -63.5t-143 -54.5t-156.5 -41.5t-164.5 -26t-166 -7q-157 0 -290 28.5t-230 80.5q-49 25 -87 56t-61.5 65 t-31.5 71.5t4 76.5q9 49 51.5 94.5t107.5 84.5t148 71t172 54q-74 18 -134.5 46t-99 64t-50 78.5t12.5 88.5q19 43 57.5 84.5t91.5 80t117 73.5t135 65q70 31 149 58t163 46t170.5 29t173.5 9q159 0 285.5 -35.5t214.5 -90.5q45 -26 81.5 -57t59.5 -65t31 -71t-3 -75z M1681 1026q5 18 -1.5 36.5t-25 33t-47.5 23.5t-69 9q-60 0 -117.5 -14.5t-106.5 -34.5q-50 -20 -84 -46.5t-47 -54.5q-9 -21 -2 -40.5t28.5 -34.5t56 -24t79.5 -9q59 0 112 15t99 35q43 23 79.5 49.5t45.5 56.5zM1437 357q8 22 -3 42t-36.5 35.5t-62.5 24.5t-82 9 q-57 0 -110 -12t-104 -29q-21 -9 -41.5 -18.5t-38 -20.5t-30.5 -23t-18 -25q-9 -24 9 -40t51.5 -25t76 -12.5t80.5 -3.5q45 -2 96.5 3t96.5 17t77 31.5t39 46.5z" />
<glyph unicode="9" horiz-adv-x="1874" d="M2222 889q-25 -65 -67.5 -129.5t-96 -128t-115 -126t-124.5 -123.5q-65 -53 -127.5 -113t-136.5 -115.5t-166 -101.5t-215 -71q-44 -3 -79 3.5t-57.5 20t-30.5 32.5t3 40q3 6 5 14t7 15q4 6 7 12.5t5 12.5q15 30 38.5 58t53 55t61.5 54l64 54q71 59 139.5 115.5 t135.5 116.5q-67 -24 -140 -43t-149 -32.5t-153.5 -20.5t-153.5 -7q-71 0 -137.5 7.5t-126 21.5t-109.5 34.5t-86 47.5q-34 26 -53.5 56.5t-26 63t-2 67t18.5 68.5q33 72 93 141t153 132q95 66 214 120t262 91q98 27 205.5 42t210.5 13q92 0 175.5 -12t155 -34t129.5 -52.5 t100 -67.5q82 -72 112.5 -156t3.5 -175zM1679 1033q3 19 -14.5 31t-46 18.5t-63 8.5t-65.5 3q-103 5 -200.5 -14.5t-175.5 -55.5t-129.5 -83.5t-62.5 -97.5q-9 -17 -11.5 -36.5t6.5 -36.5t32 -28.5t65 -11.5q57 0 113.5 9t109.5 24t101.5 34t91.5 39q43 21 84 43.5t75 47 t57.5 51t32.5 55.5z" />
<glyph unicode=":" horiz-adv-x="788" d="M1043 754q-5 -29 -26 -61.5t-59 -59.5t-92.5 -44t-126.5 -14q-64 2 -120 16t-85 40q-17 12 -24.5 25.5t-9 28t1.5 29.5t8 30q16 29 40.5 59.5t69.5 56.5q41 26 98.5 44t119.5 18q30 -2 59 -5.5t53.5 -10.5t44 -17t31.5 -24q13 -12 18.5 -25.5t6 -28t-2 -29t-5.5 -28.5z M857 186q-17 -36 -50.5 -70t-81.5 -65q-26 -15 -56 -28.5t-63.5 -23.5t-69.5 -16t-73 -5q-80 0 -131 19t-78 49t-32 66.5t8 70.5q9 32 47 57t91.5 42.5t115 26t118.5 7.5q60 4 115.5 -3.5t93.5 -25t53 -43t-7 -58.5z" />
<glyph unicode=";" horiz-adv-x="850" d="M1174 713q-11 -60 -107 -107q-52 -23 -113.5 -35.5t-125.5 -10.5q-57 0 -110 7.5t-97 24.5q-29 18 -43 36t-18 35.5t-1 34.5t8 34q11 31 43.5 64t80.5 58.5t109.5 41t131.5 12.5t121 -22t81.5 -46.5t40.5 -60.5t-1 -66zM911 171q-18 -37 -52 -71.5t-78.5 -66.5t-96 -62.5 t-102.5 -59.5q-31 -14 -62.5 -29t-65.5 -27.5t-70.5 -20t-76.5 -5.5q-13 2 -27.5 3t-28.5 2q-36 6 -59.5 18.5t-36.5 28.5t-15.5 34.5t3.5 36.5q10 28 32.5 55t51.5 53t64 50.5t71 48.5q40 25 85.5 51t97 48.5t109 38.5t121.5 20q25 0 50 -2.5t46 -8t36 -14.5t21 -22 q9 -23 0.5 -49t-17.5 -50z" />
<glyph unicode="&#x3c;" horiz-adv-x="1437" d="M1548 447q-10 -21 -32.5 -40.5t-54.5 -35.5t-71.5 -26t-83.5 -12q-88 0 -162.5 15t-143.5 34q-77 25 -153 49t-154 47q-55 20 -118.5 39.5t-120.5 42t-99.5 50.5t-54.5 66q16 27 49.5 49.5t76.5 42t90.5 36t91.5 32.5q109 30 213.5 61t211.5 62q57 18 116.5 35.5 t118.5 34.5q58 16 118.5 25.5t118.5 7.5q42 -2 77.5 -12t60 -25.5t36.5 -35t7 -40.5q-5 -22 -25 -44.5t-67 -32.5q-151 -45 -297.5 -90.5t-294.5 -92.5q124 -35 246 -69t247 -69q30 -6 45 -17.5t19.5 -25.5t0.5 -30t-12 -31z" />
<glyph unicode="=" horiz-adv-x="1761" d="M2024 833q2 -26 -23 -45.5t-64 -33t-87 -19.5t-92 -3h-1028q-47 -1 -85 9t-62 27t-31 39t8 46q13 21 39.5 36t61 26.5t72.5 20t74 15.5q78 14 155.5 20t155.5 9h80t80 -2q79 -3 162 -3q26 1 50.5 -0.5t50.5 -1.5q27 2 54 2q28 0 52 -2q66 0 135.5 -7.5t125 -24t89 -43.5 t27.5 -65zM1888 517q-18 -24 -53 -44t-79.5 -34.5t-94 -23t-96.5 -9.5q-230 -8 -455.5 -7t-449.5 9q-50 2 -92.5 13t-72.5 28t-46 40t-14 49q2 20 23.5 35t53 25.5t69 17.5t71.5 12q81 11 163.5 16.5t162.5 5.5q44 0 84.5 -1t84.5 -4q42 -2 87 -2.5t89 -0.5h99q24 2 47 1.5 t50 1.5q41 0 89 -1.5t95 -6.5t88.5 -13.5t68.5 -22.5t36 -35t-8 -49z" />
<glyph unicode="&#x3e;" horiz-adv-x="1437" d="M1833 686q-17 -29 -53 -53.5t-83 -45.5t-99.5 -40t-100.5 -37q-100 -32 -199.5 -62.5t-201.5 -61.5q-60 -17 -117.5 -36t-120.5 -34q-57 -16 -116 -25.5t-121 -7.5q-84 7 -133 39.5t-49 75.5q5 23 27.5 43.5t69.5 34.5q153 48 302.5 98t301.5 100q-125 38 -247 77 t-250 77q-27 7 -41 19t-18.5 26t-2 29.5t10.5 29.5q8 20 29.5 39.5t53 34.5t70 25t81.5 12q66 -3 125.5 -14t115 -25t109.5 -30t109 -30q118 -38 233.5 -77t215.5 -87q17 -10 35.5 -20t33 -21.5t23.5 -24.5t7 -28z" />
<glyph unicode="?" horiz-adv-x="1884" d="M2338 1050q-30 -51 -87.5 -93t-133 -78t-164.5 -67t-183.5 -58t-188.5 -52t-180 -50q60 -2 117 -3.5t117 -1.5q55 -4 108 -7.5t107 -9.5q7 -18 14 -37.5t0 -39.5q-8 -21 -28 -39.5t-47.5 -34.5t-61.5 -29.5t-70 -24.5q-40 -2 -77 -2.5t-75 -2.5q-37 -2 -75 -2h-73 q-131 -2 -255.5 10t-236.5 35q-50 11 -98.5 27t-84.5 37.5t-53 48t-3 59.5q13 31 47 57t81 48.5t101.5 41.5t107.5 34q139 35 276.5 70.5t277.5 67.5q43 12 90 23.5t89.5 25.5t77 32t52.5 42q-1 25 -31 38.5t-73 20t-92 8t-89 3.5q-95 2 -193.5 -9t-192.5 -35 q-62 -23 -105 -52t-87 -58q-43 -32 -109.5 -55t-141.5 -25q-48 -1 -86 8.5t-62.5 26t-33.5 38.5t2 45q21 45 69 84.5t113.5 73.5t144 61.5t160.5 48.5q168 45 348.5 66.5t354.5 16.5q67 -1 134.5 -6t130.5 -15t119 -26t101 -38q91 -46 121 -112t10 -135zM1329 164 q-12 -34 -47 -67.5t-86.5 -60t-117.5 -42.5t-139 -14q-83 2 -158 13.5t-132 35.5q-61 24 -88.5 61t-14.5 79q5 38 47 71t104.5 56t136.5 35.5t144 9.5q51 2 101 -3t94 -15t80 -26t58 -36t27.5 -44.5t-9.5 -52.5z" />
<glyph unicode="@" horiz-adv-x="2816" d="M3144 768q-15 -50 -45 -100.5t-75.5 -99t-108 -93.5t-142.5 -84q-77 -42 -170 -73.5t-194 -53.5t-206.5 -33t-207.5 -11q-173 -2 -335.5 14.5t-311.5 47.5q-68 15 -136 34.5t-120.5 46.5t-81.5 61.5t-18 78.5q8 37 42.5 71.5t86 64.5t116 54t133.5 41q147 36 299.5 50.5 t303.5 12.5q-7 31 -40 58t-93 36q-51 5 -99 12.5t-101 9.5q-25 5 -40 15t-21.5 22.5t-6.5 25.5q0 14 5 28q10 27 42.5 51.5t78 42t99.5 27t108 8.5q78 1 152.5 -7t139 -24.5t116 -41.5t83.5 -58q34 -32 52.5 -67.5t24 -73t-0.5 -76.5t-20 -78q-26 -63 -70 -126.5 t-119 -121.5q101 11 173 42.5t120.5 73t76.5 89t41 89.5q43 78 22.5 154t-97 134.5t-204.5 91.5t-298 26q-96 0 -195 -5t-196.5 -17.5t-191.5 -33.5t-179 -53q-102 -42 -176.5 -89t-126.5 -97t-84 -101t-49 -101q-34 -59 -34 -118q0 -58 30 -110.5t89 -97t143.5 -75 t192.5 -45.5t236 -9q41 3 77 -3t60 -19t32.5 -31.5t-5.5 -39.5q-9 -27 -41.5 -51.5t-78 -42.5t-99.5 -28.5t-108 -10.5q-127 0 -245.5 14t-223 40t-191 64.5t-149.5 88.5q-66 47 -107.5 101.5t-61 113.5t-17 121t24.5 125q25 75 78 149t132 143.5t183.5 132t233.5 114.5 q128 52 271 90.5t293.5 63t303.5 35t302 7.5q118 0 230 -12t211.5 -35.5t182.5 -58.5t143 -80q63 -44 103.5 -94.5t59.5 -106t17 -113.5t-23 -116zM1964 577q-26 2 -53.5 6t-57.5 6q-54 -3 -115 -2.5t-120 -4t-112.5 -17t-92.5 -39.5q10 -12 27 -21t38.5 -15.5t45 -11.5 t46.5 -9q48 -10 102 -17t111 -7q63 26 106.5 61t74.5 71z" />
<glyph unicode="A" horiz-adv-x="2205" d="M2251 108q-11 -20 -33.5 -37t-53 -30t-67 -22t-75.5 -12q-33 -3 -67 -3q-33 0 -64.5 3.5t-58.5 11t-47 19.5q-14 15 -21.5 31t-11 32.5t-5 33.5t-3.5 34q-1 32 -3 64t-9 64q-31 6 -65 10t-70 2q-95 0 -187.5 -6t-187.5 -15q-44 -5 -90 -9.5t-91 -11.5t-88 -16.5 t-83 -23.5q-38 -17 -56.5 -40t-31.5 -45l-28 -52t-42 -49q-17 -13 -40 -21t-49.5 -12.5t-54 -6t-53.5 0.5q-72 6 -122.5 28.5t-83.5 51.5q-29 29 -42.5 62.5t-8.5 68.5q18 62 67.5 121.5t111.5 117.5q68 65 137.5 126.5t138.5 124.5q84 102 175.5 201.5t181.5 199.5 q48 40 100.5 86.5t117 87t144.5 71t183 39.5q92 0 171.5 -19t138.5 -48q63 -29 104 -68.5t65 -83.5q17 -42 25 -83t21 -82q36 -164 68 -327t52 -329q10 -28 11 -57.5t7 -58.5q3 -29 -2.5 -58.5t-22.5 -59.5zM1623 642q12 48 7.5 95t-17 93t-29.5 91.5t-31 90.5 q-73 -44 -128 -91.5t-106 -97.5q-45 -49 -83.5 -100t-57.5 -102l-7 -19l-2 -17l2 4q50 -2 104 -2t106 -2h58q25 0 55.5 2.5t58 9.5t47.5 18t23 27z" />
<glyph unicode="B" horiz-adv-x="2232" d="M2485 515q-19 -43 -59 -81.5t-95.5 -73t-122.5 -65t-141.5 -57t-152.5 -49.5t-154 -42q-133 -34 -269 -60t-276 -48q-128 -18 -256 -33.5t-254 -8.5q-67 2 -116.5 17.5t-85.5 39t-60 52t-39 56.5q-30 60 -28.5 122.5t17.5 126.5q17 58 44.5 115.5t62.5 115.5 q40 59 75.5 118.5t62.5 120.5q16 35 22.5 69t17.5 69q13 35 21 68t28 68q19 33 59 60t92.5 49t112.5 39t118 30q127 26 257.5 38.5t258.5 14.5q134 2 262.5 -11.5t235.5 -45.5q54 -13 101.5 -32.5t81.5 -44.5t50 -55t6 -64q-14 -60 -70.5 -116.5t-141.5 -106.5 q107 -25 177.5 -70.5t113.5 -98.5q42 -52 54 -108.5t-10 -117.5zM1729 1055q7 20 -9 33.5t-45 21t-65 10t-69 1.5q-42 1 -89 -3t-89.5 -14.5t-75.5 -28t-46 -41.5q-16 -27 -28.5 -54.5t-22.5 -54.5q-5 -13 -7.5 -26.5t-4.5 -26.5q167 21 317 65q34 10 71.5 22t70.5 26.5 t58 31.5t34 38zM1865 575q8 31 -9.5 59t-53.5 49l-5 6q-139 0 -278 -14t-270 -54q-63 -18 -113.5 -44t-88.5 -56t-62 -62.5t-33 -65.5q-8 -16 -5 -32.5t17.5 -29t40 -20t62.5 -6.5q124 -1 246 21t233 58q54 16 105.5 36.5t94.5 44.5t74 51.5t45 58.5z" />
<glyph unicode="C" horiz-adv-x="2113" d="M2461 937q-3 -27 -30.5 -49t-69 -37t-91 -21.5t-97.5 -1.5q-40 0 -76.5 5.5t-66.5 15.5t-52 24t-34 32q-16 35 -37 67t-36 67q-17 25 -48.5 47.5t-90.5 24.5q-84 0 -160 -18t-141 -46.5t-118 -64.5t-91 -71q-94 -75 -155.5 -156.5t-90.5 -165.5q-19 -58 -8 -113.5 t66 -101.5q23 -25 60 -44.5t83.5 -33t101 -20.5t114.5 -6q103 1 200.5 22t188.5 53q57 23 118.5 43.5t130.5 31.5q46 2 82.5 -12t45.5 -36q20 -18 20.5 -40.5t-10.5 -44.5q-15 -31 -44.5 -59.5t-70 -55t-90 -49.5t-102.5 -43q-103 -41 -223.5 -68t-242.5 -29 q-129 -5 -246.5 9t-219 42t-186 68t-147.5 87q-65 48 -112.5 101.5t-73.5 111.5t-29 120t21 125q21 62 61 123.5t96.5 121t128 116.5t154.5 110q78 51 173.5 100t204.5 87t229.5 60.5t249.5 20.5q90 0 171 -11t152 -30.5t132.5 -46t112.5 -57.5q50 -30 90.5 -65t67 -73.5 t36.5 -80.5t-1 -85z" />
<glyph unicode="D" horiz-adv-x="2188" d="M2540 836q-23 -80 -81 -158t-144 -152t-196.5 -142t-236.5 -128q-118 -60 -257.5 -112t-291 -88.5t-310.5 -53.5t-315 -7q-88 3 -158.5 23.5t-118 52.5t-68.5 73t-10 85q8 23 15.5 47t18.5 47q12 24 26.5 48t23.5 49q13 28 22 55t17 56q16 42 28.5 85t27.5 85 q16 43 33.5 86.5t35.5 86.5q31 57 57.5 116t60 117.5t80 114t117.5 106.5q87 15 173 23.5t172 13.5q102 9 200 14.5t198 8.5q153 5 286 -13.5t241 -55.5t188 -90t127 -116t58 -133.5t-19 -143.5zM2014 891q4 20 10 41.5t8 42.5t-3.5 41t-26.5 37q-23 16 -56 26t-72 15t-82 7 t-84 3q-48 -1 -100 -1t-101 -2q-51 -3 -99 -3.5t-97 -1.5q-22 -6 -35.5 -15.5t-22.5 -20t-15.5 -21.5t-13.5 -20q-12 -25 -22 -49t-23 -48q-46 -85 -81 -170t-64 -172q-11 -31 -21.5 -62.5t-17 -62.5t-8 -62t4.5 -62q94 8 180.5 30t165.5 52.5t150.5 66t136.5 71.5 q64 38 126 78t114 83t91 87.5t58 91.5z" />
<glyph unicode="E" horiz-adv-x="2106" d="M2273 364q-18 -29 -45 -55t-71 -48q-75 -34 -159 -60t-172.5 -48t-180 -40.5t-181.5 -37.5q-89 -15 -178.5 -30.5t-180 -28t-181 -19.5t-180.5 -6q-35 3 -70 7.5t-67.5 11t-61 16t-48.5 23.5q-24 13 -40 29t-27.5 33t-19.5 35t-16 35q-9 40 -9 81q0 42 6 84t16.5 84.5 t22.5 84.5q28 68 54 137.5t55.5 139t65.5 138.5t85 136t114 132t152 126q140 25 284 34.5t287 13.5q163 9 320 8.5t312 -6.5q64 -1 118 -14t90 -35t50.5 -51t-0.5 -62q-2 -21 -15.5 -40.5t-42.5 -36.5q-10 -10 -26 -17t-35 -12t-39.5 -7.5t-39.5 -2.5q-227 9 -452.5 11.5 t-455.5 -1.5q-32 -32 -60 -65t-41 -68q-2 -4 0 -7t0 -7q109 4 216.5 7t217.5 7t214 5.5t212 -0.5q67 2 127 -9t101 -32.5t57.5 -51.5t-2.5 -66q-9 -31 -46.5 -52.5t-89.5 -35t-110.5 -20.5t-109.5 -10q-158 -8 -315 -14.5t-315 -17.5q-72 -6 -141 -23.5t-125 -43.5t-93 -59 t-44 -70q-9 -23 -11 -44.5t1 -43t9.5 -42t12.5 -41.5q143 8 279.5 37.5t270.5 63.5q139 36 284.5 62.5t292.5 32.5q59 4 99 -7t61.5 -31t24 -45.5t-14.5 -50.5z" />
<glyph unicode="F" horiz-adv-x="1819" d="M2251 763q-10 -24 -38.5 -42.5t-67 -32.5t-84 -23.5t-88.5 -15.5q-129 -21 -255.5 -29.5t-254.5 -15.5q-109 -8 -216 -14t-213 -27q-10 -29 -15.5 -58t-16.5 -58q-9 -40 -19.5 -80t-21.5 -80q-17 -48 -42.5 -95.5t-73.5 -92.5q-16 -19 -42 -38.5t-59.5 -34.5t-73.5 -23 t-83 -5q-53 4 -95 18t-62 39q-17 35 -22 71.5t-5 73.5q0 38 3 75.5t2 74.5q11 81 24.5 160.5t40.5 160.5q95 259 329 510q42 42 106.5 78t151.5 59q103 13 202.5 25t201.5 17q109 12 217 15t217 6q77 -2 151.5 -14.5t130 -36t83 -56.5t10.5 -76q-3 -22 -27 -39t-58.5 -30 t-76 -22t-78.5 -13q-92 -11 -183.5 -15t-180.5 -2q-67 2 -132.5 2.5t-131.5 2.5h-28t-29 -2q-27 -18 -45 -37.5t-30.5 -39.5t-22 -41t-18.5 -42l-8 -22q88 2 174.5 5.5t175.5 7.5q86 3 171.5 7t169.5 2q60 1 115 -7t99 -23.5t74.5 -38t40.5 -51.5q4 -9 7.5 -17.5t-0.5 -19.5 z" />
<glyph unicode="G" horiz-adv-x="2294" d="M2555 660q-7 -26 -22 -51t-29 -49q-58 -104 -174 -200.5t-275 -180.5q-76 -41 -165 -77.5t-186.5 -63.5t-201 -43t-208.5 -15q-133 -2 -243.5 20t-199.5 59.5t-157 86.5t-115 101q-55 52 -92.5 109t-56 117.5t-16.5 123.5t26 127q21 58 63 114.5t99.5 111t129.5 105.5 t155 99q78 46 172 88.5t198.5 75t218 51.5t231.5 19q195 1 366.5 -31.5t314.5 -85.5q28 -13 59.5 -26.5t57 -29t41 -34t12.5 -41.5q-9 -18 -33 -33t-50 -28q-29 -14 -64 -25t-73 -13q-71 2 -133 16t-121 28q-57 14 -111.5 27.5t-120.5 15.5q-81 3 -164 -6t-161 -27.5 t-148 -46t-126 -62.5q-118 -68 -187.5 -149t-96.5 -163q-11 -35 -18.5 -70.5t-7 -70.5t11 -68t35.5 -64q17 -32 53 -59.5t87 -47t115 -30t136 -8.5q53 -1 106.5 7.5t103 23.5t93 34.5t77.5 42.5q71 46 115.5 97t62.5 104q9 17 10 32.5t3 32.5q-69 -7 -137 -16.5t-137 -16.5 q-70 -9 -139 -14.5t-138 -5.5q-59 0 -108.5 14t-73.5 39q-27 23 -32 51.5t4 57.5q8 14 18 28.5t32 26.5q57 20 119.5 33.5t126.5 23.5t129 18.5t127 17.5q132 17 263 32.5t264 19.5q109 0 176 -26t99 -67t32.5 -90.5t-22.5 -95.5z" />
<glyph unicode="H" horiz-adv-x="2150" d="M2188 234q-20 -31 -44 -61t-62 -59q-33 -28 -80.5 -54t-113.5 -33q-41 -5 -77.5 -1.5t-66.5 12t-52.5 22t-34.5 30.5q-17 18 -25.5 37t-12.5 39t-4 40q0 21 1 41q7 32 15.5 64t10.5 64q15 66 -4 132q-46 0 -90 1t-91 1q-63 -5 -126 -6t-126 -5q-51 -1 -100.5 -2.5 t-102.5 -3.5q-3 -71 -9.5 -141.5t-26.5 -142.5q-11 -35 -31 -69.5t-59 -66.5q-13 -15 -34 -30t-47 -26t-57 -16.5t-64 -2.5q-75 5 -132 25t-93 50q-74 58 -77 135q4 37 9.5 73t16.5 73q19 74 44 144.5t55 144.5q32 75 66 150t63 150q16 29 26.5 56.5t21.5 56.5q13 28 25 55 t23 56q18 29 42.5 59t56.5 57q31 28 77 51.5t111 30.5q46 4 88.5 0.5t78.5 -13.5t64.5 -25t46.5 -34q42 -38 55 -85t-13 -96q-14 -37 -39 -74t-49 -74q-25 -39 -51.5 -76.5t-37.5 -75.5q147 0 292.5 2t291.5 -1q6 9 9.5 18t7.5 18q14 47 21.5 92.5t14.5 90.5q6 45 14.5 88.5 t22.5 88.5q9 27 27 55t50 53q24 26 72 42.5t105 13.5q70 -5 118.5 -23t82 -44.5t54.5 -57.5t36 -61q23 -64 28.5 -131.5t-16.5 -136.5q-5 -28 -17 -54t-23 -55l-42 -113q-16 -59 -30.5 -118t-21.5 -119q-8 -57 -21.5 -112.5t-39.5 -112.5z" />
<glyph unicode="I" horiz-adv-x="2055" d="M2039 90q-14 -26 -50 -50t-96 -28q-269 -24 -532 -29.5t-526 3.5q-65 2 -130.5 9t-121.5 21.5t-98 37t-60 54.5q-11 13 -12 27.5t2 28.5q4 16 22.5 27.5t44.5 19.5t56 12t58 6q64 0 130 3t132 5q2 5 5.5 10.5t1.5 10.5q34 85 68 169t76 169q42 88 81 174.5t74 174.5 q13 36 23.5 73t8.5 73q-17 -2 -33.5 -4t-34.5 -2l-34 -3l-36 -3h-14q-69 0 -140 1t-134 14q-31 3 -56 11t-41 20t-21 27t5 32q36 35 94 59.5t126 41.5t141 30t139 25q152 22 303.5 34.5t302.5 9.5q80 0 154.5 -9t145.5 -20q33 -7 65.5 -16t60 -20t48.5 -25.5t31 -32.5 q-23 -35 -71 -67t-120 -47q-81 -8 -159.5 -15t-159.5 -16q-17 -33 -29 -65.5t-29 -65.5q-16 -35 -32 -69t-24 -69q-16 -42 -28 -81.5t-25 -81.5q-12 -40 -26.5 -80t-28.5 -80q-10 -36 -25 -73.5t-27.5 -75t-19 -74.5t1.5 -72l32 -2l29 2q27 -2 57.5 -0.5t59.5 1.5 q29 3 59 3.5t58 2.5q63 2 125.5 -2t113.5 -17q28 -15 41 -31t15.5 -32.5t-3 -32.5t-14.5 -31z" />
<glyph unicode="J" horiz-adv-x="2079" d="M2514 1178q-10 -23 -39.5 -34.5t-68 -16.5t-79 -5.5t-72.5 -1.5q-19 -1 -41.5 -0.5t-43.5 -2t-38 -8t-24 -18.5q-5 -12 -3.5 -22.5t-0.5 -22.5q3 -121 -19.5 -242.5t-75.5 -245.5q-26 -61 -55.5 -124t-71.5 -124.5t-102 -120t-147 -110.5q-45 -26 -100.5 -44.5 t-116 -30.5t-123 -18t-122.5 -6q-114 0 -205 21t-163 55t-128 76.5t-100 85.5q-90 93 -144 193t-83 207q-2 15 -5 30.5t3 30.5q4 22 27.5 39t58 29t75.5 17.5t80 3.5q61 1 110.5 -9t87 -27.5t63.5 -41.5t39 -50q20 -62 46.5 -121t51.5 -120q10 -21 25.5 -43t40.5 -40.5 t60.5 -31t86.5 -13.5q44 5 73.5 19.5t49.5 33.5t35 39.5t30 37.5q40 65 63 118.5t41 105.5q22 63 41.5 125.5t32 125t15 124.5t-10.5 123q-5 4 -8 8.5t-12 6.5q-72 0 -140.5 3.5t-134.5 13.5q-62 12 -86.5 42.5t-7.5 63.5q8 25 36 48t68 40.5t89 27.5t99 9q208 4 409 -2 t402 -20q89 -11 145.5 -45t79.5 -77q8 -15 8.5 -31t-1.5 -33z" />
<glyph unicode="K" horiz-adv-x="2068" d="M2084 125q-10 -18 -30 -36t-47.5 -32.5t-62.5 -24t-75 -10.5q-47 -5 -90.5 -1.5t-81 12.5t-68 23t-50.5 31q-40 40 -81.5 78.5t-80.5 78.5q-89 81 -180 159.5t-182 157.5q-14 -44 -23.5 -86t-22.5 -86q-11 -44 -22 -87t-24 -85q-14 -38 -40.5 -76.5t-74.5 -72.5 q-42 -23 -85.5 -36.5t-86.5 -19.5t-85 -7t-81 2q-48 8 -73 26t-36.5 40.5t-13 47.5t-1.5 48q6 38 14.5 76t19.5 76q8 26 12.5 51t11.5 51q10 27 14 53t15 53q9 24 16.5 49.5t19.5 49.5q11 26 23.5 53t25.5 53q20 46 30.5 90t27.5 91q14 45 29.5 89.5t35.5 89.5 q23 35 45.5 75.5t57.5 78.5t88 69t137 47q47 4 93 1t83 -14t60.5 -29t25.5 -42q0 -51 -8.5 -101.5t-16.5 -101.5q109 48 218 94t222 94q54 18 112.5 35t119 28.5t122 16.5t122.5 0q54 0 95 -11.5t67 -30.5t35 -43.5t0 -49.5q-6 -24 -26.5 -45.5t-50 -41t-66 -36.5t-74.5 -32 q-97 -31 -191 -61t-190 -64q-34 -12 -69.5 -24.5t-68 -27t-58 -31t-38.5 -36.5q0 -29 15 -55.5t37.5 -51.5t49 -48.5t50.5 -47.5q76 -65 155 -127.5t154 -127.5q24 -26 48 -52.5t39.5 -55t19.5 -58.5t-11 -62z" />
<glyph unicode="L" horiz-adv-x="2024" d="M2241 201q-9 -17 -33.5 -28.5t-53.5 -20.5q-76 -25 -156 -43t-162 -31.5t-165.5 -25t-165.5 -23.5q-168 -20 -332 -32.5t-328 -8.5q-82 3 -147.5 21t-114.5 45t-82 61.5t-50 70.5q-41 72 -43.5 149.5t20.5 157.5q4 25 15.5 50.5t15.5 50.5q31 94 74.5 186.5t97.5 185.5 q34 58 77.5 114t100.5 110q25 24 51.5 51.5t60 52.5t76.5 45t102 30q54 6 95 -2.5t66 -25.5t33.5 -40.5t-1.5 -47.5q-18 -63 -39.5 -124.5t-47.5 -124.5q-20 -56 -47 -110.5t-47 -110.5q-26 -55 -46.5 -110.5t-37.5 -111.5q-9 -37 -21 -75.5t-15.5 -76t6 -73.5t42.5 -68 q116 6 231.5 19.5t233.5 24.5q109 13 220 24t220 16q67 1 123.5 -13.5t98.5 -34.5q21 -8 39 -19.5t29 -25t13.5 -28.5t-6.5 -30z" />
<glyph unicode="M" horiz-adv-x="2963" d="M2918 96q-20 -21 -52 -36.5t-71 -26.5t-82.5 -17.5t-85.5 -8.5q-52 -2 -104.5 -2.5t-100.5 7.5q-21 8 -34 19t-21 23.5t-13.5 25.5t-10.5 26q-23 71 -28.5 144t1.5 147.5t23.5 150t37.5 150.5q16 42 24 81.5t17 80.5q-174 -117 -314 -240.5t-257 -254.5q-35 -32 -66 -66 t-62 -67q-17 -14 -37 -29t-44.5 -28t-53.5 -22t-63 -10q-63 -3 -117 5t-97 24t-74 38.5t-47 48.5q-29 47 -43.5 94t-22.5 98q-5 50 -11.5 100t-14.5 101l-5 -14q-11 -22 -18 -44t-18 -44q-8 -22 -15 -43t-12 -43q-11 -28 -20 -57t-11 -57q-4 -25 -2 -49t0 -48q2 -25 0 -49 t-8 -49q-2 -26 -20 -55t-52.5 -53t-84 -37t-113.5 -7q-44 2 -84.5 9t-74 18.5t-59 27t-40.5 34.5q-26 38 -38.5 79t-3.5 85q0 100 22 201.5t60 202.5q31 93 80.5 184t113.5 182q38 50 83 99t103 95q29 22 60.5 45.5t68.5 44t81.5 35.5t98.5 20q80 6 141 -7.5t104.5 -39 t70.5 -58t39 -65.5q14 -80 30 -158t37 -156q2 -20 15 -39t21 -38q117 86 234 171t238 170q57 33 114 70.5t120 71t135.5 59t159.5 33.5q110 -5 187.5 -28t128 -59t77.5 -81.5t36 -95t3.5 -100.5t-19.5 -97q-6 -32 -20.5 -63t-28.5 -63q-17 -32 -31 -64t-25 -64 q-14 -38 -20.5 -75t-7.5 -74t1 -73.5t4 -72.5q5 -69 5.5 -136.5t-17.5 -136.5z" />
<glyph unicode="N" horiz-adv-x="2239" d="M2244 239q-18 -35 -50 -68.5t-76 -64.5q-45 -31 -106 -57.5t-136 -33.5q-72 0 -129.5 11t-104.5 29.5t-85 43.5t-70.5 52t-60.5 55t-56 53q-75 102 -150.5 203.5t-151.5 203.5q-28 -29 -44.5 -58t-25.5 -58q-14 -47 -27 -92.5t-22 -92.5q-9 -45 -18.5 -89.5t-22.5 -89.5 q-11 -26 -24.5 -58.5t-40.5 -61.5t-71.5 -48.5t-116.5 -19.5q-54 2 -97 14t-78 29q-23 22 -40 44t-24 48q-17 47 -20.5 96t2 99t17.5 100.5t27 100.5q13 35 24 69t29 69q38 100 97.5 196t132.5 193q37 39 69.5 82.5t71.5 85.5t90.5 79t128.5 64q84 -7 145.5 -27t106 -49.5 t76 -66t57 -75t47.5 -77t48 -72.5q29 -55 55.5 -110.5t55.5 -111.5q28 -55 65 -109.5t82 -105.5q10 14 15 30t10 30q23 64 36.5 128t21.5 128q13 63 22 126.5t30 126.5q14 37 35.5 75t63.5 73q13 16 36 31t52.5 25.5t63.5 16t69 2.5q90 -5 147 -29.5t86.5 -60.5t34.5 -79 t-8 -83q-13 -49 -26 -98.5t-29 -98.5q-15 -49 -31.5 -97t-33.5 -99q-19 -60 -41.5 -120t-41.5 -121q-18 -57 -40 -114.5t-51 -115.5z" />
<glyph unicode="O" horiz-adv-x="2130" d="M2417 768q-23 -63 -58 -127t-83.5 -126t-111.5 -122.5t-142 -117.5q-74 -56 -169 -109.5t-206 -95t-235.5 -66.5t-257.5 -23q-130 -1 -234.5 22t-184.5 62t-137 89.5t-91 103.5q-73 109 -82 229t39 243q44 114 139 225t250 209q76 49 171.5 90.5t203.5 71.5t223.5 46 t231.5 14q113 2 214.5 -12.5t185.5 -41.5t149 -66t106 -87q43 -45 67 -95t32.5 -102.5t2 -106t-22.5 -107.5zM1845 858q8 25 15 54t6.5 58.5t-10.5 56.5t-34.5 48t-66.5 34.5t-106 15.5q-109 -2 -194.5 -24t-151.5 -57t-114 -80t-82.5 -93t-57.5 -96t-39 -89 q-20 -57 -33 -114.5t-11 -112.5q3 -29 10.5 -58.5t26.5 -53.5t54 -40t93 -19q90 1 164.5 23t134.5 56t106.5 74t79.5 76q80 84 130.5 169.5t79.5 171.5z" />
<glyph unicode="P" horiz-adv-x="1867" d="M2333 959q-9 -49 -49 -96t-101.5 -89.5t-140 -79.5t-165.5 -66q-190 -64 -399 -100t-422 -54q-12 -22 -20 -47q-11 -35 -18.5 -70t-12.5 -70t-9.5 -69.5t-15.5 -69.5q-3 -38 -43.5 -69.5t-101.5 -52t-133.5 -28t-138.5 3.5q-56 3 -92.5 18t-56 37.5t-24 49t2.5 52.5 q19 38 33 76.5t37 76.5q35 66 61 130t46 130q15 37 24 74t15.5 73.5t12.5 73t15 72.5q9 69 22.5 138.5t45.5 138.5l5 10q8 47 55.5 89t120 72.5t162 48.5t181.5 17q94 2 183 5.5t182 3.5q86 0 168.5 -7.5t157.5 -22.5t139.5 -38t114.5 -54q105 -59 146.5 -140t12.5 -167z M1823 995q9 26 -1.5 49.5t-24.5 46.5q-7 10 -17.5 21t-25 20.5t-34 15.5t-44.5 6q-50 3 -105.5 0.5t-110.5 -11t-106 -22.5t-91.5 -33.5t-68 -44.5t-35.5 -55q-20 -53 -20.5 -104t10.5 -102q103 6 204 25t197 46q42 12 85.5 26.5t82 31.5t66.5 38t39 46z" />
<glyph unicode="Q" horiz-adv-x="2051" d="M2039 44q-13 -21 -38.5 -40t-60 -34t-75 -25.5t-82.5 -14.5q-20 -2 -43 -2.5t-44 -0.5q-37 44 -88 82.5t-113 74.5q-40 -25 -89 -45t-104 -34t-114 -21t-118 -6q-114 0 -206.5 20.5t-164.5 54.5t-125 78t-88 91q-75 94 -93.5 199t18.5 214q45 121 135.5 239t230.5 229 q66 52 153.5 103t191 91.5t221 65t244.5 23.5q117 3 211 -18t164 -57.5t117 -83.5t70 -97q27 -51 40.5 -105t14.5 -109.5t-8.5 -111.5t-28.5 -111q-20 -51 -46 -102t-64 -101.5t-90.5 -98.5t-123.5 -91q32 -32 67.5 -63t70.5 -63q17 -14 32 -29t24 -31t10.5 -33.5 t-8.5 -36.5zM1626 763q16 50 30.5 100.5t14.5 99.5q0 30 -3 60t-17 54t-44.5 40.5t-84.5 19.5q-90 -6 -154.5 -33.5t-113 -64.5t-85.5 -78.5t-72 -76.5q-70 -86 -120.5 -174.5t-82.5 -177.5q-6 -24 -14.5 -52t-12 -56.5t0 -55.5t21 -49.5t52 -38.5t92.5 -22q24 -2 46 2.5 t40.5 12.5t34 18.5t25.5 20.5q-29 27 -61.5 52.5t-64.5 51.5t-48 55.5t-5 62.5q3 21 25 39.5t55.5 31.5t74 19.5t81.5 3.5q93 0 165.5 -20.5t129.5 -51.5q33 52 54.5 104t40.5 103z" />
<glyph unicode="R" horiz-adv-x="2345" d="M2360 116q-8 -17 -24.5 -35t-41.5 -33t-57.5 -25t-72.5 -13q-56 -6 -107 -2.5t-95.5 14t-81.5 26.5t-64 36q-53 45 -108 88t-112 87q-115 66 -243 126t-262 117q-14 -21 -25 -41.5t-15 -40.5q-10 -34 -19 -66t-18 -66q-17 -44 -35 -88t-54 -87q-25 -26 -56.5 -48 t-68.5 -37.5t-78 -23t-84 -2.5q-70 3 -119 20t-78 43.5t-39.5 58.5t-2.5 65q17 74 50 147.5t65 146.5q41 77 77.5 153.5t72.5 153.5q13 51 18.5 98.5t3.5 96.5q2 48 14.5 94.5t29.5 94.5q14 31 45 63.5t77 59t104.5 44.5t128.5 21q196 13 388.5 16.5t385.5 3.5 q73 1 138.5 -8t122.5 -25.5t105 -39t84 -49.5q72 -56 101.5 -122t7.5 -138q-9 -32 -33.5 -62.5t-60.5 -59t-81 -55t-94 -50.5q-106 -50 -227 -90.5t-256 -64.5q117 -47 225 -96.5t210 -103.5q41 -24 84.5 -48.5t82.5 -50t70 -53.5t48 -61q-4 -22 -7 -44.5t-19 -44.5z M1888 1031q9 15 7 30t-14.5 27.5t-35.5 20.5t-56 7q-124 0 -246.5 -1.5t-247.5 -3.5l-8 -3q2 -3 3 -6.5t4 -5.5q-13 -14 -16.5 -28.5t-14.5 -28.5q-23 -54 -38 -107t-13 -106q100 8 198.5 27t192.5 43q41 12 86 25t84.5 29t70.5 36t44 45z" />
<glyph unicode="S" horiz-adv-x="2133" d="M2294 442q-24 -54 -79 -103.5t-130.5 -92.5t-167 -79.5t-188.5 -65.5q-98 -30 -200.5 -53t-208.5 -38t-212.5 -21.5t-211.5 -3.5q-131 6 -251 28.5t-229 53.5q-17 45 -29.5 89.5t-5.5 92.5q1 10 11 19t25.5 15.5t35 10.5t39.5 5q50 -3 95.5 -11t93.5 -13q45 -8 93 -15.5 t98 -10.5q75 -2 163 -0.5t178.5 9.5t177 23t159 40t125 60.5t74.5 84.5q11 13 18 24.5t15 24.5l-2 16l-15 5q-78 -2 -157 -4t-157 -5q-78 -2 -155 -3.5t-154 -1.5q-71 1 -143.5 4.5t-141 12.5t-130.5 24t-113 38q-49 22 -74.5 51.5t-33.5 63t-1.5 68.5t21.5 69q20 51 61 101 t98.5 96.5t130.5 89.5t157 80q81 38 172.5 69t189.5 53t201 33.5t205 10.5q128 1 253 -14t228.5 -46t176 -78t96.5 -111q7 -11 8.5 -23t0.5 -23q0 -18 -19 -30t-47.5 -18.5t-60.5 -8.5t-58 0q-71 5 -134 14.5t-125 23.5q-60 14 -128 23t-137 13q-104 1 -213 -14t-206 -44 q-49 -14 -94.5 -32.5t-82.5 -40.5t-62 -46.5t-33 -51.5q-8 -14 -3.5 -28t18.5 -24.5t37.5 -16.5t55.5 -3q64 0 127.5 6t128.5 11q66 5 129.5 11t127.5 5q77 0 151.5 -7.5t141 -22.5t121.5 -38t92 -53q38 -29 58 -62t25.5 -69t-1 -73t-19.5 -73z" />
<glyph unicode="T" horiz-adv-x="2185" d="M2676 1210q-1 -24 -25.5 -43t-62 -33t-82.5 -23t-86 -12q-70 -6 -133 -9t-121.5 -4t-114 -0.5t-109.5 1.5q-93 -212 -198 -421t-218 -420q-25 -42 -58 -82t-75 -79q-20 -17 -44 -34.5t-53.5 -32.5t-64.5 -25.5t-77 -11.5q-65 -2 -124 8.5t-101 30.5t-61 48t-4 63 q17 48 39.5 95t52.5 93q24 45 51 90.5l54 91t51.5 91t44.5 91.5q38 103 63 205t21 204q-131 -1 -263 -4.5t-265 -7.5q-22 2 -35 9t-21.5 16t-14.5 19.5t-14 18.5q-11 22 -13.5 45t5.5 46q13 22 42 38t66 26.5t78.5 16.5t80.5 8q218 11 434 21.5t433 17.5q169 8 331.5 7 t326.5 -4q57 -8 103.5 -21.5t80.5 -36.5q15 -10 31 -21t28 -23t18.5 -25t2.5 -28z" />
<glyph unicode="U" horiz-adv-x="2014" d="M2410 1201q-7 -11 -16.5 -23t-21.5 -23q-24 -13 -39.5 -28.5t-35.5 -29.5q-18 -28 -30.5 -55t-17.5 -56q-13 -35 -20 -71t-17 -72q-13 -36 -19.5 -70t-21.5 -70q-36 -98 -91 -195t-146 -192q-64 -67 -148.5 -128.5t-185.5 -108t-217.5 -74t-245.5 -25.5 q-97 -2 -184.5 10.5t-161.5 35.5t-132.5 56t-97.5 72q-43 37 -68.5 79t-36 86.5t-7.5 90.5t17 93q20 62 44.5 122.5t50.5 122.5q29 61 57.5 122t57.5 123q10 29 16.5 57.5t3.5 57.5q8 28 9.5 56t14.5 56q17 31 60.5 57.5t96.5 46.5q60 18 121 31.5t127 18.5q60 -12 98.5 -32 t59 -46.5t27 -57t4 -62.5t-11.5 -64t-19 -61q-26 -71 -59 -141.5t-63 -141.5q-32 -72 -64 -143.5t-58 -143.5q-4 -19 -10.5 -41.5t-10.5 -45t-2.5 -44.5t13 -40.5t37 -32t69.5 -19.5q52 0 96.5 12t80.5 30.5t63.5 41.5t46.5 45q21 24 37 49t29 49.5t24 49.5l22 50 q23 52 43.5 102t40.5 101q20 49 37.5 98.5t40.5 98.5t49 96t59 95q21 29 51.5 62t74 60.5t100.5 44t129 12.5q58 -4 100 -21t77 -37q34 -20 57 -43t17 -53z" />
<glyph unicode="V" horiz-adv-x="2024" d="M2487 1159q-9 -31 -35.5 -60t-62.5 -56q-37 -27 -74.5 -54t-73.5 -54q-67 -57 -121 -114.5t-110 -117.5q-57 -62 -108.5 -123t-109.5 -123q-66 -72 -144 -140.5t-163 -137.5q-46 -35 -104.5 -71t-127.5 -64.5t-148 -45.5t-166 -15q-56 2 -102 17t-66 39q-15 26 -26 53.5 t-11 55.5q-13 60 -20 118.5t-2 120.5q-2 62 -5 123t1 123q-1 144 -21.5 286t-43.5 284q-1 7 1 12.5t5 11.5q6 13 19 24t31 20.5t38.5 18t40.5 16.5q48 15 99.5 23.5t102.5 13.5q62 1 100 -13.5t60 -37.5t32.5 -50t18.5 -51q16 -86 12 -161.5t-17 -150.5q-13 -81 -23.5 -161 t-17.5 -160q3 -15 2.5 -31.5t2.5 -32.5t12.5 -30t32.5 -24q22 10 37.5 22t27.5 25t23 26.5t23 25.5q24 31 47.5 61t47.5 60q62 79 124 155.5t129 153.5q55 61 123 119.5t140 116.5q33 22 65 47t68.5 48t80.5 41t101 26q66 -8 110 -30.5t75 -51.5q28 -29 50 -59.5t20 -66.5z " />
<glyph unicode="W" horiz-adv-x="2574" d="M2898 1097q-9 -31 -20 -61.5t-28 -60.5q-22 -47 -43 -93.5t-35 -94.5q-5 -22 -13 -44.5t-13 -44.5q-7 -23 -14 -44.5t-15 -44.5q-38 -91 -103.5 -180.5t-162.5 -174.5q-45 -40 -102 -81.5t-127 -77t-153 -59.5t-180 -29q-101 -3 -177 16.5t-131.5 52t-93 73.5t-59.5 81 q-44 -39 -100.5 -82t-127.5 -78.5t-156 -58t-184 -20.5q-81 3 -148.5 19t-120.5 41t-90.5 57t-58.5 68q-18 59 -18 119q0 61 11 122.5t29.5 123t37.5 123.5q36 102 96 202t148 199q42 42 86.5 89.5t100.5 91t129.5 77.5t174.5 49q78 4 120.5 -13t59 -45.5t12 -62.5 t-20.5 -63q-20 -45 -47.5 -88.5t-63.5 -87.5q-11 -17 -27.5 -33.5t-27.5 -33.5q-36 -45 -71 -90t-66 -91t-56.5 -92t-41.5 -92q-13 -33 -17.5 -67t2.5 -66q73 58 129.5 119t104.5 123.5t91.5 125.5t90.5 125q26 39 49 77t60 75q19 18 47 33.5t62 27t72.5 18t78.5 5.5 q79 1 142.5 -19t89.5 -56q15 -23 21.5 -46.5t8 -47.5t0 -48.5t-4.5 -48.5q-9 -52 -17.5 -104t-19.5 -103q-12 -67 -13.5 -131.5t18.5 -127.5q54 72 96 145t71 147q32 73 60.5 145.5t55.5 145.5q17 47 42.5 93.5t49.5 92.5q21 26 41 53t45.5 48.5t60 36t84.5 16.5 q90 -6 153.5 -33.5t95.5 -67.5q32 -38 39 -81.5t2 -87.5z" />
<glyph unicode="X" horiz-adv-x="2116" d="M2111 116q-17 -23 -51 -40.5t-75 -31.5q-42 -14 -86 -25t-92 -16q-58 -1 -101.5 10.5t-78 29.5t-62 39.5t-53.5 40.5q-87 78 -148.5 151t-110.5 146q-76 -64 -148 -128.5t-154 -127.5q-37 -24 -76.5 -52t-85 -51.5t-99 -40t-118.5 -17.5q-28 3 -56.5 8t-53.5 11.5 t-45 16.5t-30 24q-12 12 -16.5 26t-5 28.5t1.5 29.5t3 29q11 32 35.5 62.5t57 60.5t70.5 59t75 57q97 60 189 122t188 123q22 14 40 28.5t38 28.5q-18 38 -40.5 75.5t-46.5 74.5l-48 74t-46 74q-19 30 -37.5 60t-32 61t-19 63.5t1.5 65.5q8 22 34 39.5t62.5 30.5t78.5 20.5 t83 9.5q40 3 80 4t74 -5q31 -8 47.5 -22t32.5 -30q35 -33 63.5 -67.5t53.5 -70t48.5 -71.5t49.5 -72q66 43 127.5 92t129 95t145.5 86.5t176 67.5q59 -3 109 -17t85 -35.5t51.5 -49.5t9.5 -58q-33 -73 -104 -140.5t-162.5 -131t-195 -124.5t-200.5 -121q63 -83 130.5 -163.5 t133.5 -161.5q24 -31 50 -62t49.5 -62t43 -63.5t31.5 -66.5z" />
<glyph unicode="Y" horiz-adv-x="1877" d="M2391 1205q-12 -36 -40 -71t-66 -68t-82.5 -64.5t-89.5 -62.5q-106 -71 -212.5 -141.5t-205.5 -143.5q-102 -92 -201.5 -182.5t-187.5 -184.5q-45 -45 -87.5 -89.5t-90.5 -89.5q-24 -19 -50.5 -40t-59 -39t-71 -30.5t-85.5 -13.5q-76 -2 -135.5 13.5t-97 42t-49 61 t8.5 70.5q18 52 58.5 102t93 99t113 96t119.5 94q-88 12 -151.5 38.5t-108 62.5t-70.5 78t-39 84q-28 84 -14 170.5t59 174.5q10 29 38 57.5t70.5 52t97.5 38.5t120 17q53 4 88.5 -5.5t57.5 -27t32 -40t11 -43.5q-9 -62 -18.5 -123.5t-17.5 -123.5q1 -19 3.5 -42t14.5 -42.5 t38 -33.5t74 -15q35 4 61 14.5t47 24t40 28t40 27.5q37 31 72 62t73 62q48 38 89.5 77t85.5 78q22 17 44 35t45 35t49.5 33t59.5 29q38 13 84 20t89 2q58 -5 106.5 -19t83 -35.5t51.5 -49t13 -58.5z" />
<glyph unicode="Z" horiz-adv-x="2099" d="M2154 217q-18 -36 -67 -66.5t-118 -48.5q-201 -40 -407.5 -61t-412.5 -38q-111 -8 -221 -11t-216 1q-63 4 -110 20t-85 36q-18 10 -35 21t-29 23.5t-18.5 26t-4.5 28.5q30 66 91 127t137.5 119t161.5 114.5t163 112.5q189 129 391 251.5t406 247.5q-51 1 -99.5 3.5 t-100.5 1.5q-41 0 -83.5 -0.5t-85.5 -3.5q-41 0 -79.5 -0.5t-80.5 -0.5q-90 0 -180.5 1t-172.5 14q-34 3 -70 9t-63.5 16.5t-41 25.5t-1.5 36q18 25 53.5 43.5t80 32.5t94 24.5t94.5 18.5q100 18 201.5 28t201.5 12q43 1 82.5 2t81.5 3q42 0 82 1t82 -1q70 0 144 -5t143 -16 t129.5 -28.5t103 -42.5t63.5 -58t11 -74q-11 -37 -37 -73.5t-62 -71.5t-78.5 -69t-85.5 -67q-122 -88 -253.5 -170.5t-268.5 -164.5q-116 -73 -235.5 -144t-222.5 -148q178 7 352.5 23t351.5 40l63 6q51 4 105.5 -0.5t96 -18t60.5 -35t-1 -52.5z" />
<glyph unicode="[" horiz-adv-x="1556" d="M1538 143q-10 -26 -37 -50t-66 -43.5t-88 -33.5t-101 -18q-104 -10 -208 -17t-207 -7q-90 2 -177.5 12t-158.5 33q-37 18 -60.5 41t-34.5 48.5t-11.5 53t7.5 55.5q18 75 40 149.5t42 150.5q20 78 43.5 156t57.5 156q27 61 53.5 123.5t59.5 124.5t76 123t104 119 q20 14 44 28t60 20q187 18 371 20t361 -15q49 -4 88 -17t64.5 -32.5t36.5 -43t6 -47.5q-3 -11 -12 -21t-22.5 -19t-30.5 -17.5t-34 -15.5q-42 -12 -88 -23t-90 -6q-86 5 -169.5 6.5t-171.5 1.5q-20 -22 -34 -46q-26 -72 -52 -142.5t-56 -142.5q-29 -73 -55.5 -145 t-53.5 -145q-9 -26 -19 -52t-22 -52q-11 -26 -20.5 -49.5t-18.5 -49.5q-7 -18 -13.5 -35t-8.5 -35q66 -2 133.5 -2.5t135.5 0.5q34 3 67 2t67 2q44 0 85 -6.5t71 -20t44 -33t3 -43.5z" />
<glyph unicode="\" horiz-adv-x="1492" d="M1621 67q-19 -34 -67.5 -61.5t-123.5 -34.5q-75 1 -123 21t-80.5 48.5t-54.5 62t-44 61.5q-146 224 -265 452t-214 463q-14 35 -30 67t-27 67l-10 32t-7 32.5t-0.5 33.5t10.5 34q7 15 26 28t45 22.5t56 15.5t59 7q39 3 74 -0.5t65 -12.5t53.5 -22t38.5 -28 q28 -35 55.5 -70.5t50.5 -71.5q73 -100 137 -201.5t115 -207.5q29 -72 60.5 -141.5t62.5 -140.5q31 -59 60 -116.5t58 -117.5q10 -27 19.5 -53.5t14 -54t2 -56t-15.5 -57.5z" />
<glyph unicode="]" horiz-adv-x="1567" d="M1684 539q-26 -62 -52.5 -124t-60 -123.5t-76.5 -122.5t-102 -121q-23 -14 -47.5 -29t-62.5 -19q-189 -20 -373.5 -20.5t-361.5 15.5q-50 4 -88 17t-63 32t-36.5 42.5t-7.5 48.5q11 20 39 40t65 32q38 17 84 23.5t92 6.5q85 -4 171 -6t174 -2q9 11 18.5 23.5t15.5 23.5 q26 71 51.5 141t54.5 141q29 73 55.5 145t53.5 145q7 26 18.5 51.5t22.5 51.5t20.5 51t20.5 51q4 18 11.5 35t8.5 35q-66 2 -132 2.5t-135 0.5q-34 -1 -69 -1t-70 -2q-42 -1 -82.5 6.5t-69.5 21.5t-41.5 33.5t0.5 42.5q9 25 36 49t65.5 43t86.5 32t99 16q102 13 205 18.5 t206 7.5q44 -2 88.5 -4.5t87.5 -7.5t82.5 -13t74.5 -20q39 -17 62 -39.5t34 -48t12 -53.5t-5 -55l-81 -302q-20 -77 -42.5 -155t-56.5 -156z" />
<glyph unicode="^" horiz-adv-x="1427" d="M1719 748q-11 -22 -37.5 -40t-62.5 -31t-78 -20.5t-84 -7.5q-47 -3 -86 3.5t-69 19.5t-50 31t-30 38q-22 45 -38.5 90.5t-38.5 90.5q-64 -57 -127.5 -113t-126.5 -113q-14 -14 -36.5 -22.5t-48 -13t-52.5 -5.5t-51 0q-51 2 -93 11.5t-76 24.5q-38 13 -58 33.5t-22 45.5 q20 41 57 79t83.5 75t98 72.5t99.5 71.5q55 31 106.5 66.5t107 68t118.5 60t141 44.5q79 -11 132 -37.5t91 -61t67.5 -72t60.5 -71.5q24 -38 49.5 -76t43 -77.5t22.5 -80t-12 -83.5z" />
<glyph unicode="_" horiz-adv-x="2277" d="M2225 48q-15 -18 -42 -31t-60 -22t-70 -13.5t-72 -5.5q-378 -8 -751.5 -7t-749.5 5q-43 5 -81 14t-63 26q-53 31 -48 76q14 25 49.5 42.5t81 29.5t95.5 20t94 14q64 6 122 10.5t111.5 7t104 4t100.5 2.5q57 2 111.5 -0.5t108.5 -2.5q60 -2 114 -3t113 -1q65 0 128.5 -0.5 t127.5 -2.5q126 -3 251 -3q45 -11 94 -25t85.5 -33t52 -44t-6.5 -57z" />
<glyph unicode="`" horiz-adv-x="676" d="M1246 1500q-8 -14 -22 -27t-34 -24t-46 -18.5t-57 -8.5q-92 1 -149.5 24.5t-91 59t-49 77t-22.5 78.5q4 7 4 13q0 7 -1 13t-0.5 12.5t5.5 13.5q9 19 29.5 36.5t49.5 31t65 20.5t75 6q50 -1 84.5 -13t58.5 -30t40.5 -39.5t31.5 -40.5q28 -44 38.5 -89.5t-9.5 -94.5z" />
<glyph unicode="a" horiz-adv-x="2096" d="M2154 169q-12 -27 -39.5 -54t-67.5 -48.5t-91 -36.5t-111 -18q-35 -3 -70 -3q-34 0 -65 3.5t-57 12t-42 23.5q-17 12 -27 26t-14.5 29.5t-5.5 31.5t-1 32q8 36 8.5 73t7.5 72q-45 -1 -86 -0.5t-85 0.5t-87 2t-87 0q-72 0 -142 -2t-145 -8q-44 -48 -82.5 -94t-81.5 -94 q-18 -18 -43 -39t-56.5 -38t-70.5 -27.5t-86 -8.5q-69 3 -124 20t-84 45q-18 29 -23.5 62t3.5 65q18 58 47.5 115.5t66 114.5t78.5 114t84 113q90 111 185.5 221.5t214.5 217.5q56 46 123 97t149 94t179.5 72.5t215.5 33.5q105 0 180.5 -22.5t126.5 -59t79.5 -82t39.5 -89.5 q27 -89 33 -180t3 -184q-2 -91 -1.5 -179.5t20.5 -176.5q14 -30 27.5 -59.5t20.5 -60.5t4 -62t-21 -64zM1608 570q10 130 15 261q0 31 -1 62t-6.5 61.5t-17 60t-33.5 57.5q-91 -56 -158.5 -117.5t-119 -125.5t-91.5 -129.5t-76 -129.5q123 0 243 -1t245 1z" />
<glyph unicode="b" horiz-adv-x="2256" d="M2418 447q-25 -65 -95 -122.5t-168 -105.5t-215.5 -86t-237.5 -63q-246 -54 -499.5 -71.5t-497.5 -1.5q-47 3 -88.5 12.5t-75.5 24.5t-58.5 34t-37.5 41q-35 42 -41.5 89.5t4.5 95.5q9 41 35 81.5t52 81.5q32 56 58.5 109.5t47.5 109.5q46 133 79 263.5t57 261.5 q96 57 221 96.5t262 57.5q133 20 265 26.5t263 6.5q69 -1 139 -4t137 -10t130 -18.5t118 -29.5q56 -18 95.5 -44t62.5 -57t29 -65.5t-5 -70.5q-8 -35 -33 -68t-61 -65t-80.5 -62t-91.5 -58q88 -31 142.5 -76t81.5 -98q28 -50 30 -104.5t-24 -110.5zM1862 1055q7 12 5.5 24.5 t-12 22.5t-29.5 16t-46 5h-82q-80 -2 -162 -5.5t-162 -23.5q-78 -20 -124 -56.5t-60 -76.5q-12 -31 -19.5 -62.5t-16.5 -62.5q62 10 132 20t140.5 22t138.5 27.5t126.5 36.5t103 48.5t67.5 64.5zM1830 509q15 24 12 48t-24 43.5t-59 31t-93 8.5q-88 -2 -176.5 -16.5 t-171.5 -34.5q-83 -21 -160 -47.5t-143 -60.5q-14 -32 -26.5 -64t-24.5 -64q-10 -22 -11 -43.5t-6 -43.5q79 -3 170.5 0t183.5 13t179 28t158.5 46t122.5 66.5t69 89.5z" />
<glyph unicode="c" horiz-adv-x="2086" d="M2442 954q0 -24 -20.5 -49.5t-55.5 -46t-83 -31.5t-104 -6q-81 -3 -140 18.5t-85 54.5q-27 32 -45.5 64.5t-37.5 65.5q-23 29 -73 50.5t-122 22.5q-90 -1 -164.5 -23t-133.5 -56t-104 -74t-78 -77q-77 -86 -124 -173.5t-79 -176.5q-4 -22 -11.5 -47.5t-12 -51.5t-3 -51 t15.5 -46t43.5 -35.5t80.5 -20.5q120 -5 246 8.5t237 50.5q49 20 98 36.5t102 33.5q35 8 73.5 11t74.5 3q56 4 91 -6.5t51.5 -30t15.5 -43.5t-16 -46q-3 -9 -10.5 -20t-10.5 -20q-32 -31 -78 -58t-101.5 -50t-117 -42t-123.5 -34q-119 -33 -247.5 -54t-257.5 -23 q-113 -2 -211 15t-178.5 47.5t-141 71.5t-99.5 88q-81 93 -96.5 197t21.5 213q44 130 151 255.5t278 237.5q77 55 176.5 107t215 91t243 62t259.5 20q166 -2 295 -44t222 -101q44 -30 81.5 -63t62.5 -69t34 -74.5t-4 -80.5z" />
<glyph unicode="d" horiz-adv-x="2055" d="M2353 785q-21 -73 -68 -145t-116.5 -141.5t-160 -134t-199.5 -122.5q-102 -58 -227.5 -108.5t-264.5 -85t-285.5 -50.5t-289.5 -5q-109 5 -183.5 37.5t-109.5 78.5q-40 44 -51 94.5t0 101.5q22 72 52.5 144.5t59.5 144.5q40 76 77.5 151t69.5 151q17 32 27 64t19 64 q12 32 22.5 63t30.5 63q14 39 52.5 78t95.5 71t131.5 52.5t160.5 22.5q131 7 264 6.5t259 -12t239 -36.5t203 -66q89 -44 138.5 -100t68.5 -119t13 -130t-28 -132zM1830 836q6 17 10 34.5t8 34.5q3 22 4.5 44.5t-2 44t-16 41.5t-37.5 37q-32 15 -72 22.5t-84.5 10.5t-91 4 t-90.5 2q-44 0 -88 -2.5t-88 -0.5q-54 -63 -91.5 -127.5t-66 -129.5t-52 -130.5t-49.5 -129.5q-20 -63 -32.5 -126t-1.5 -125q84 1 166 15t157 38t139 56t111 68q56 36 99 75t75.5 79.5t55 82t37.5 82.5z" />
<glyph unicode="e" horiz-adv-x="2147" d="M2367 398q-65 -50 -156 -86t-193 -65.5t-209.5 -55.5t-205.5 -54q-107 -24 -215 -49t-217.5 -45.5t-220 -33.5t-221.5 -14q-34 2 -67.5 6t-63.5 10.5t-55 17t-43 24.5q-21 13 -34 29t-21 32.5t-13 34t-10 34.5q-21 69 -16.5 140t22.5 143q44 126 114.5 249.5t150.5 248.5 q37 62 81.5 123t89.5 123q50 36 119 59.5t147 39t159.5 26t156.5 20.5q174 18 345.5 24.5t341.5 -0.5q53 -2 99.5 -13t79 -29t48 -42.5t7.5 -52.5q-2 -19 -19 -36t-45 -30.5t-63.5 -22t-73.5 -11.5q-84 -4 -167 -4.5t-164 0.5q-80 0 -160.5 -5t-158.5 -19q-39 -8 -78 -17.5 t-72.5 -22.5t-59.5 -29t-41 -36q-9 -18 -21 -35t-19 -35l-3 -11q109 5 218.5 16.5t218.5 23.5q109 10 217 17.5t215 6.5q55 1 105.5 -8t85.5 -26.5t49 -42t-3 -53.5q-6 -26 -33 -47.5t-66.5 -38t-88 -27.5t-97.5 -15q-106 -7 -211.5 -12.5t-210.5 -9.5q-103 -7 -207.5 -16 t-201.5 -37q-48 -15 -84.5 -35t-62.5 -43.5t-42.5 -48.5t-24.5 -49q-11 -48 -17.5 -94.5t7.5 -91.5q140 22 271 54t263 64q134 33 274.5 58.5t280.5 29.5q49 1 96 -3.5t86 -16t67.5 -28.5t40.5 -39l2 -13z" />
<glyph unicode="f" horiz-adv-x="1737" d="M2282 1186q-5 -19 -29 -31.5t-58 -20.5t-71.5 -11.5t-68.5 -4.5q-109 0 -218.5 -4.5t-220.5 -10.5q-48 -3 -99 -10.5t-98.5 -19.5t-88 -29.5t-67.5 -41.5q-33 -35 -58 -71.5t-36 -72.5q53 5 106 6t106 5q53 2 105.5 3.5t104.5 -0.5q41 -1 83 -2t82 -4.5t77 -10.5t68 -19 t50 -28.5t27.5 -36t7 -40.5t-10.5 -42q-3 -16 -19 -30.5t-40.5 -26t-54.5 -19.5t-62 -11q-69 -4 -133.5 -4.5t-131.5 -0.5q-59 -2 -121 -2t-124 -3t-123 -11t-118 -26q-41 -72 -66 -144t-52 -145q-11 -44 -31.5 -87t-48.5 -87q-14 -19 -37 -38t-54 -33t-68.5 -21t-79.5 -2 q-84 5 -135.5 28.5t-78 56.5t-31.5 72.5t4 76.5q8 26 22 50.5t23 50.5q23 50 46.5 99.5t40.5 99.5q23 74 44 147.5t48 146.5q27 72 54.5 142.5t63.5 142.5q9 11 12 23.5t12 24.5q18 24 48 44.5t68.5 37.5t83 30.5t91.5 22.5q96 13 191 25t192 21q75 9 152 15.5t151 13.5 q74 2 144.5 6t141.5 -3q66 -6 115 -24.5t84 -45.5q19 -12 35.5 -25t28.5 -27.5t18 -30.5t2 -33z" />
<glyph unicode="g" horiz-adv-x="2140" d="M2405 710q-10 -27 -23.5 -54.5t-29.5 -54.5l-32 -54t-31 -54q-62 -91 -158 -178t-238 -160q-65 -38 -144 -70t-167 -55.5t-181 -37t-186 -12.5q-123 -3 -230.5 14t-195.5 48.5t-155 75t-110 94.5q-92 97 -111 211.5t22 230.5q22 68 66 136.5t108 133.5t148 126.5 t187 115.5q100 55 222.5 97.5t256 71t272 40.5t271.5 6q61 0 123.5 -8.5t110.5 -26t74 -43.5t15 -61q0 -17 -12.5 -36t-36 -34.5t-57 -24t-75.5 -5.5l-26 1l-24 2q-100 4 -204.5 -4.5t-204.5 -29t-190 -53t-160 -77.5q-76 -44 -132 -92.5t-97.5 -99.5t-69.5 -104t-48 -105 q-12 -33 -20.5 -71t-6.5 -76t17 -72.5t49.5 -61.5t92 -43.5t143.5 -16.5q133 -1 228.5 34t160 87.5t101.5 113t53 111.5q5 14 9.5 28.5t7.5 28.5q-45 -4 -90 -8.5t-91 -10.5q-49 -5 -96 -8.5t-93 -5.5q-54 -3 -99 5.5t-74 26t-38.5 41t6.5 50.5q7 21 30 39.5t54.5 34 t70 27.5t77.5 20q82 17 165 34.5t166.5 31.5t167.5 23.5t168 11.5q65 -2 119 -15.5t94 -35t64 -49.5t29 -59q2 -20 -0.5 -41.5t-11.5 -43.5z" />
<glyph unicode="h" horiz-adv-x="2164" d="M2130 123q-14 -22 -44 -40t-69 -32t-83 -23.5t-86 -12.5q-51 -6 -88.5 2t-63.5 23.5t-41.5 36t-21.5 41.5q-8 33 -9.5 64t1.5 59.5t9 56t13 54.5q14 39 19.5 78.5t14.5 79.5q-104 -4 -209 -5.5t-211 -1.5q-62 0 -119.5 0.5t-117.5 3.5q-23 -44 -45 -87t-35 -87 q-12 -32 -15.5 -62.5t-13.5 -62.5q0 -29 -8.5 -59.5t-13.5 -61.5q-3 -23 -27.5 -42t-61 -31.5t-79.5 -16.5t-83 3q-98 8 -151.5 39t-77 74t-23 91t10.5 91q32 103 87 202q29 53 57 105t47 105q16 48 32 97.5t26 98.5q7 49 25 96.5t38 96.5q21 37 49 74t69 72 q19 17 41.5 35.5t50.5 34.5t62 27.5t75 13.5q72 7 122 -1.5t82 -27.5t48 -46t19 -57t-4 -60.5t-21 -56.5q-34 -86 -73.5 -172t-75.5 -173q63 -4 126.5 -3.5t127.5 0.5q80 0 160 3t161 6q4 9 5 17.5t6 17.5q5 17 12 33.5t11 33.5q12 17 16.5 33.5t11.5 33.5q13 35 17 68 t12 68q5 35 14 69t20 69q4 26 24 57.5t55.5 57t87 41t118.5 10.5q86 -2 142 -23.5t86 -54.5t36.5 -73t-6.5 -78q-12 -40 -23 -79.5t-29 -79.5q-11 -41 -23.5 -82t-25.5 -83q-56 -170 -92.5 -340.5t-69.5 -340.5z" />
<glyph unicode="i" horiz-adv-x="898" d="M937 241q-14 -40 -44 -78t-69 -76q-18 -18 -43.5 -36.5t-57 -33.5t-69.5 -25t-81 -12q-33 -1 -59 4t-47 14t-36.5 21t-26.5 24q-17 27 -22.5 56t-7.5 58q-3 57 7.5 114t28.5 115q33 97 67.5 192t72.5 192q37 97 77.5 191t79.5 191q19 33 38.5 66.5t56.5 64.5 q16 16 36 32.5t45 30.5t55.5 24.5t68.5 15.5q43 3 80.5 -2t67.5 -16.5t52 -27t34 -33.5q18 -35 19.5 -73.5t-12.5 -76.5l-42 -110t-45 -110q-23 -57 -48.5 -113.5t-45.5 -113.5q-22 -62 -34 -122t-29 -120q-16 -57 -28.5 -113.5t-38.5 -113.5z" />
<glyph unicode="j" horiz-adv-x="2092" d="M2528 1232q-7 -29 -32.5 -48.5t-64 -32.5t-86 -20.5t-97 -11t-98 -4.5t-88.5 -1q-29 -97 -46.5 -194t-37.5 -195q-20 -97 -49 -194t-67 -196q-19 -58 -70.5 -121.5t-133 -116t-192 -86t-247.5 -31.5q-133 -2 -239.5 21.5t-191 62.5t-147.5 88.5t-109 101.5 q-48 52 -82.5 108.5t-51.5 116t-15 121.5t28 125q3 12 14 21.5t27.5 18t37 14.5t41.5 11q41 9 85.5 15t88.5 6q51 -6 81 -23.5t48 -40.5t27 -49t18 -48q11 -38 17.5 -76t18.5 -76q10 -42 32.5 -82t64.5 -75q32 -31 92 -52t140 -21q4 4 10.5 8.5t10.5 8.5l5 17l1 3 q16 27 29 53t21 53q6 26 14.5 51.5t16.5 51.5q9 26 14.5 51t14.5 51q48 130 79 258.5t33 257.5q-63 2 -130 8t-124.5 19.5t-99.5 35t-57 54.5q-7 16 -6 32t6 31q3 15 17 27.5t35.5 21.5t48 14t53.5 6q294 10 579.5 4.5t565.5 -28.5q41 -3 67 -17t44 -29q19 -17 28.5 -37 t7.5 -42z" />
<glyph unicode="k" horiz-adv-x="2188" d="M2173 125q-14 -24 -42.5 -46t-67 -39t-85 -27.5t-97.5 -12.5q-56 0 -96.5 12t-71.5 30.5t-55.5 40t-49.5 40.5q-69 67 -138.5 131.5t-138.5 131.5q-31 22 -61.5 46.5t-66 46t-79 39t-100.5 26.5q-13 -26 -25 -53t-28 -54q-9 -27 -23.5 -53t-20.5 -53q-12 -29 -16.5 -58 t-9.5 -58q-2 -29 -8 -57.5t-14 -56.5q1 -20 -17 -40.5t-48.5 -36t-71 -23t-83.5 -1.5q-66 5 -112.5 21t-76 39.5t-45.5 52t-21.5 59t-2.5 62t10 60.5q12 54 27.5 107.5t32.5 107.5q20 57 42.5 110.5t42.5 110.5q9 25 18.5 48.5t16.5 47.5q11 24 21 47.5t21 48.5 q23 57 55.5 111.5t65.5 111.5q48 63 116 123q19 13 38 28t41 28.5t49 24t62 15.5q35 2 68.5 -0.5t62 -9t51 -17.5t35.5 -26q26 -32 25.5 -68t-17.5 -74q-8 -20 -23.5 -40t-25.5 -40q-16 -20 -29 -40t-21 -40q-16 -30 -20 -57q140 56 271.5 116.5t267.5 119.5 q58 22 116.5 47.5t120 47.5t127.5 38t139 20q63 -3 111.5 -19t81 -40.5t47 -54.5t8.5 -61q-5 -15 -20.5 -28t-38 -23.5t-49.5 -18.5t-53 -14q-57 -17 -118 -30.5t-119 -30.5q-166 -52 -310 -118t-275 -138q46 -36 96 -70t100 -69q49 -39 106 -77t113.5 -76t108 -78t91 -83 t63 -89.5t22.5 -97.5z" />
<glyph unicode="l" horiz-adv-x="1741" d="M2014 302q-34 -44 -96.5 -78.5t-140 -62t-163 -49.5t-165.5 -42q-85 -19 -173 -35.5t-176.5 -28t-177 -16.5t-174.5 0q-46 3 -92.5 9t-87.5 15.5t-75 24t-56 34.5q-32 42 -37 87.5t-1 92.5q-2 22 2 43.5t9 43.5q15 57 42.5 111.5t56.5 111.5q31 58 61.5 116.5t57.5 117.5 q18 51 30 100t26 100q12 49 31 97t39 97q10 29 36 58.5t66 54.5t93 42.5t119 22.5q70 5 117 -5t76.5 -29t42.5 -46t15 -56t-5 -58.5t-19 -54.5q-35 -85 -83.5 -168.5t-97.5 -168.5q-48 -86 -92.5 -170.5t-76.5 -170.5q-15 -44 -22 -88t-7 -88q154 9 304 40t297 64 q67 16 134.5 31.5t137.5 20.5q55 5 106 -2t85 -23t45.5 -40.5t-11.5 -54.5z" />
<glyph unicode="m" horiz-adv-x="2611" d="M2577 179q-14 -26 -40 -50t-50 -49q-31 -22 -71.5 -43.5t-94.5 -26.5t-101.5 2.5t-84.5 22.5t-60.5 37t-28.5 46q-2 29 7 59.5t21 61.5q17 63 40 126.5t38 126.5q18 66 28.5 130.5t12.5 130.5q-60 -56 -115.5 -114t-112 -116.5t-116.5 -116.5t-127.5 -113t-146 -105.5 t-172.5 -95.5q-53 0 -91.5 11t-66 28.5t-44.5 39.5t-27 44q-28 58 -40.5 117.5t-24.5 119.5q-10 62 -17 122t-27 121q-31 -63 -54.5 -125.5t-42.5 -125.5q-13 -35 -16 -69.5t-8 -69.5q-2 -33 -5 -66t-14 -68q-5 -15 -10 -31t-12 -31.5t-17.5 -30.5t-27.5 -29 q-18 -14 -43 -22t-53 -12t-57 -4.5t-55 1.5q-91 5 -143.5 38.5t-67.5 74.5q-17 40 -22 82t-1.5 85t12.5 86t21 86q40 137 103.5 273t159.5 272q31 55 73.5 106.5t95.5 104.5q27 24 60 49t74 46t90 36t107 19q54 4 95.5 -4.5t71.5 -24.5t49 -37.5t28 -43.5q53 -145 88 -290 t43 -296q107 102 208 202.5t205 202.5q50 37 97.5 81t103.5 84.5t125 73t161 46.5q71 -5 122.5 -23t87.5 -45t58 -59t34 -63q31 -66 31.5 -135.5t-19.5 -140.5q-7 -35 -23.5 -69.5t-29.5 -69.5q-18 -35 -32 -69t-30 -69q-8 -38 -12 -77.5t-13 -77.5q-5 -36 -11 -72 t-15 -71.5t-23 -71.5t-35 -72z" />
<glyph unicode="n" horiz-adv-x="2106" d="M2092 189q-13 -30 -39.5 -61t-67 -57.5t-94.5 -45.5t-123 -25q-65 3 -114.5 16t-88.5 33t-70 45t-57.5 51.5t-51 53.5t-50.5 50q-73 97 -141 193.5t-130 195.5q-22 -75 -42 -147.5t-42 -147.5q-18 -49 -40 -97.5t-57 -97.5q-21 -29 -48 -57t-61.5 -49t-77 -33t-93.5 -7 q-54 4 -99 18.5t-77.5 35t-50 46.5t-17.5 53q28 79 72 159q24 40 46 79.5t36 80.5q18 71 37.5 142t32.5 142q19 69 41.5 139t55.5 139q20 45 54.5 89t71.5 88q22 19 43 40.5t46.5 41.5t58.5 35.5t78 22.5q45 4 81 -1.5t64.5 -17.5t50 -28t37.5 -33q19 -18 32.5 -38t24.5 -40 t20.5 -41t20.5 -41q33 -66 64 -132.5t69 -132.5q80 -134 196 -256q7 47 13.5 91.5t15.5 91.5q16 85 32 169.5t45 169.5q10 23 20.5 50.5t26 55.5t38 55t56 48t81 34.5t111.5 14.5q45 -2 75 -13t50.5 -27t33.5 -35t25 -37q20 -39 26.5 -79.5t-4.5 -83.5q-11 -24 -18.5 -47 t-18.5 -46l-36 -99q-30 -109 -53 -216.5t-43 -215.5q-8 -71 -28 -142t-49 -142z" />
<glyph unicode="o" horiz-adv-x="2212" d="M2463 689q-20 -61 -59.5 -121.5t-95.5 -119t-128 -114t-156 -107.5q-83 -51 -184 -96.5t-214 -79.5t-236 -53.5t-250 -16.5q-120 0 -217.5 22t-173.5 58t-132 82t-93 94q-75 100 -98.5 211t21.5 226q45 124 156.5 242.5t285.5 221.5q80 52 180.5 98t214 80t236.5 53 t248 17q120 0 218 -21.5t175 -57.5t133.5 -82t93.5 -95q79 -100 98 -212.5t-23 -228.5zM1898 749l18 58t15 57.5t7.5 57t-4.5 56.5q-7 27 -31 51.5t-61.5 42.5t-87 28t-109.5 8q-71 1 -138.5 -11.5t-127.5 -34t-110 -49.5t-86 -59q-75 -64 -122 -133t-71 -138 q-25 -67 -38 -133t0 -130q5 -31 26 -60.5t57.5 -52.5t89.5 -36.5t123 -11.5q66 -2 129.5 9.5t119.5 32t102 47.5t77 56q49 46 83.5 90t59.5 87t43.5 84.5t35.5 83.5z" />
<glyph unicode="p" horiz-adv-x="1789" d="M2273 993q-15 -50 -60.5 -96t-110.5 -88t-145 -79t-163 -68q-183 -71 -384 -122t-412 -86q-15 -77 -30.5 -154t-44.5 -155q-3 -25 -24 -54t-57 -52t-85.5 -36t-109.5 -6q-73 2 -129 23t-90 50q-31 29 -39 64t4 71q26 113 72 225t105 225q11 18 18.5 35t13.5 35 q21 58 35 116.5t22 115.5q15 56 30.5 111.5t44.5 110.5q21 37 63.5 67t99 52.5t124 38.5t138.5 26.5t142.5 16t135.5 6.5q89 2 177 -1t171.5 -12.5t160.5 -25.5t143 -41q64 -27 105.5 -62.5t63 -76.5t24.5 -85.5t-9 -88.5zM1804 1017q6 17 -3.5 30.5t-28.5 24t-44 18.5 t-50 14q-115 26 -246 26q-28 1 -58.5 -2.5t-58.5 -10t-52.5 -17t-40.5 -23.5q-24 -29 -38.5 -59t-24.5 -59q-18 -49 -35.5 -99t-27.5 -99q110 14 214.5 41.5t201.5 59.5q43 15 89.5 31t87.5 34.5t72 40.5t43 49z" />
<glyph unicode="q" horiz-adv-x="2099" d="M2053 80q-15 -20 -43 -38t-64 -32t-77.5 -23.5t-83.5 -13.5l-27 -2l-34 2l-26 3l-25 5l-23 12q-13 17 -31.5 32.5t-31.5 32.5q-82 -36 -183.5 -57t-202.5 -21q-120 -3 -227.5 13t-197 46t-157.5 72t-109 92q-45 49 -69 102t-31.5 108.5t0.5 112.5t27 114q42 124 131 245 t236 235q72 54 167.5 104t206 87.5t233.5 58.5t251 18q117 1 213 -19t169.5 -54.5t125.5 -80t81 -94.5q67 -98 75 -206t-27 -217q-42 -114 -128 -227.5t-227 -214.5q8 -26 29.5 -47.5t50.5 -41.5q25 -23 36 -50t-7 -56zM1794 707q20 57 32.5 115t9.5 115q-5 31 -18 59.5 t-38 50.5t-63 35t-92 14q-75 3 -148.5 -8.5t-138 -33t-118 -51.5t-87.5 -64q-35 -35 -60.5 -72t-45 -74t-34 -74.5t-27.5 -73.5q-10 -33 -21 -72t-15 -79t3.5 -77.5t35 -68t79 -51t136.5 -26.5q34 0 68.5 6t63.5 17q-26 19 -55.5 39t-52.5 42t-34.5 46t-1.5 52q9 20 31.5 40 t55.5 36t73 26.5t83 11.5q40 -4 74 -15.5t57 -28.5q22 -17 45.5 -33.5t46.5 -33.5q65 55 99.5 113.5t56.5 117.5z" />
<glyph unicode="r" horiz-adv-x="2307" d="M2342 130q-13 -24 -44 -43.5t-71.5 -33t-86.5 -21.5t-90 -10q-86 -6 -164 1t-146 24.5t-126 42t-104 53.5q-94 70 -192 137t-193 136q-32 17 -64 34.5t-75 29.5q-8 -23 -18.5 -45.5t-16.5 -45.5q-9 -32 -16 -64t-13 -64q-7 -32 -12 -63t-14 -63q-3 -21 -16.5 -46t-39 -46 t-64.5 -33.5t-93 -9.5q-50 3 -88.5 15t-67.5 29t-48 38t-30 43q-29 45 -32 92.5t8 96.5q14 48 30.5 94.5t41.5 94.5q24 51 50 100.5t44 99.5q22 60 35.5 119t30.5 118q12 29 21 57.5t18.5 57t21 57t28.5 57.5q11 23 31 47t49.5 45.5t68.5 39t88 28.5q44 13 91.5 20.5t96 12 t97.5 7.5t97 8q66 4 132.5 6.5t130.5 2.5q81 1 163 -1t160.5 -9t151.5 -19.5t136 -33.5q61 -24 98.5 -57t55.5 -71.5t18.5 -79.5t-11.5 -82q-12 -35 -42 -68.5t-72 -65t-93.5 -60.5t-105.5 -54q-115 -57 -248 -103t-279 -74q51 -40 98.5 -81.5t97.5 -81.5 q48 -39 111.5 -73.5t144.5 -57.5q58 -20 120.5 -35t116.5 -37q26 -8 47.5 -20t34.5 -27t16.5 -31.5t-5.5 -33.5zM1859 1075q6 14 -3.5 23.5t-28 15.5t-43 8t-48.5 1q-63 2 -126.5 -1.5t-128.5 -3.5q-59 -3 -120.5 -6t-123.5 -3q-17 -1 -28.5 -5.5t-19 -11t-12 -14 t-8.5 -13.5q2 -11 -2 -23.5t-8 -24.5q-22 -51 -36.5 -102.5t-2.5 -100.5q117 4 235.5 20.5t226.5 51.5q54 15 100 35.5t82 45t60 52t35 56.5z" />
<glyph unicode="s" horiz-adv-x="2140" d="M2321 498q-40 -97 -137 -187.5t-250 -163.5q-73 -39 -160 -70t-181 -53t-192.5 -33.5t-195.5 -10.5q-147 0 -280.5 20.5t-248.5 55.5q-54 17 -108 38t-95.5 46.5t-65.5 56.5t-18 68q1 17 18 34.5t44 30.5t61 19.5t70 3.5q54 -2 102 -9.5t87 -22.5q45 -12 87.5 -24.5 t86.5 -25.5q144 -30 309 -30q93 0 190.5 9t183.5 38q51 22 84.5 44.5t55 46t34 46t21.5 44.5q13 29 17 58.5t-10 56.5q-14 4 -27.5 6t-30.5 2q-91 0 -179.5 -12t-179.5 -25q-89 -13 -177.5 -24.5t-179.5 -9.5q-86 -2 -162.5 10t-137 35.5t-103.5 56t-62 70.5 q-43 75 -34.5 156.5t51.5 162.5q18 43 60.5 82.5t102 74.5t132 65.5t150.5 54.5q157 51 330.5 74t343.5 23q112 -2 219 -14t198 -41q43 -14 83 -31.5t68.5 -39t42 -47t5.5 -54.5q-3 -28 -32 -46t-71 -28t-90.5 -13t-89.5 0q-64 2 -121.5 12.5t-115.5 21.5q-56 11 -113.5 20 t-122.5 9q-85 2 -167.5 -12.5t-158.5 -40.5q-73 -24 -126.5 -60.5t-71.5 -77.5q-5 -23 1.5 -44.5t19.5 -41.5q8 -9 16.5 -18t20.5 -17t28.5 -13t40.5 -6q72 5 143 18t140 26q84 18 171 31.5t172 13.5q73 0 139 -10t122.5 -28t101.5 -42.5t77 -53.5q62 -57 79 -123.5 t-14 -137.5z" />
<glyph unicode="t" horiz-adv-x="2089" d="M2570 1227q-19 -32 -66 -59.5t-118 -32.5q-75 -8 -146.5 -5t-143.5 3q-57 2 -114.5 1t-112.5 -14q-13 -27 -25.5 -55t-25.5 -55q-56 -119 -106.5 -237.5t-96.5 -238.5q-17 -45 -33 -88.5t-36 -88.5q-13 -44 -30.5 -88t-35.5 -88q-13 -28 -32 -61.5t-51.5 -63t-81 -51 t-120.5 -25.5q-84 5 -135.5 25.5t-79 50.5t-36 67.5t-5 77t13 78t18.5 71.5q20 54 51 106.5t60 106.5q33 56 64 109.5t57 109.5q25 75 35.5 148.5t3.5 146.5q-48 -4 -96.5 -6.5t-97.5 -10.5q-47 -2 -91 -6t-92 -6q-66 -3 -129.5 2.5t-115.5 21.5q-53 13 -71.5 40.5t1.5 58.5 q19 29 60.5 48.5t94 33t110 22t108.5 15.5q69 8 138.5 14.5t138.5 13.5q153 17 306 29.5t306 21.5q87 4 171.5 5.5t168.5 -0.5q69 -4 138.5 -13.5t127.5 -26.5t99 -43.5t53 -63.5z" />
<glyph unicode="u" horiz-adv-x="2130" d="M2350 679q-38 -113 -133.5 -224t-236.5 -211q-67 -48 -151 -95.5t-182 -85t-207.5 -61t-227.5 -22.5q-133 -3 -249.5 16.5t-209 56t-157 87t-93.5 109.5q-31 58 -40.5 118.5t-4 122t23 124.5t40.5 125q30 69 59 139t65 139.5t82 138t110 134.5q46 36 119 57.5t152 22.5 q42 4 76 -1.5t58.5 -17.5t38 -29.5t15.5 -36.5q9 -45 1.5 -90.5t-27.5 -91.5q-33 -78 -70.5 -154t-77.5 -154q-42 -78 -80.5 -156t-64.5 -158q-6 -18 -11 -36.5t-6.5 -36.5t2.5 -35t18 -32q13 -17 38.5 -26t57.5 -14.5t68 -7.5t70 -3q90 -2 163.5 13.5t133 42.5t104.5 62.5 t77.5 74.5t53.5 79t31 75q38 101 58.5 202.5t20.5 201.5q0 42 6 83t13 83q4 24 22 52t50.5 50.5t79 35.5t107.5 8q56 -3 98.5 -16t73 -32.5t50 -43.5t31.5 -48q24 -64 29.5 -130t-1.5 -133t-25 -135t-41 -136z" />
<glyph unicode="v" horiz-adv-x="1806" d="M2243 1190q-17 -53 -44 -104.5t-69 -102.5q-45 -53 -91.5 -104t-91.5 -104q-78 -111 -167 -219.5t-176 -217.5q-31 -32 -62 -67.5t-66 -71.5t-75.5 -70.5t-90 -64t-111 -51.5t-137.5 -33q-37 0 -75.5 1.5t-75 5.5t-69 11.5t-57.5 20.5q-44 28 -68.5 62.5t-37.5 70.5 q-31 77 -43.5 156.5t-14.5 159.5q-6 81 -0.5 161t9.5 161q-5 85 -8.5 168.5t8.5 169.5l2 40t17 40q10 22 28 45t45.5 42.5t66.5 33.5t90 18q44 5 81 0t65 -17t45 -29t22 -36q8 -43 9 -85t-2 -84q-4 -81 -5.5 -161.5t0.5 -161.5q4 -82 21 -162.5t39 -159.5q57 57 101 116 t86 119q43 60 86 119.5t83 119.5q48 67 100.5 133t111.5 130q33 29 63 59.5t64.5 55.5t78 42.5t103.5 21.5q63 -4 107.5 -21t71 -41.5t34.5 -54.5t-1 -60z" />
<glyph unicode="w" horiz-adv-x="2707" d="M2966 889q-29 -102 -85.5 -203t-127.5 -201q-35 -48 -72 -96.5t-79.5 -96t-91.5 -94t-109 -90.5q-30 -20 -65 -39.5t-74.5 -35.5t-84 -26.5t-93.5 -13.5q-48 -1 -84.5 8t-63.5 24.5t-45 35t-29 38.5q-64 118 -111 240t-67 248q-83 -82 -170 -162.5t-186 -159.5 q-60 -42 -113.5 -86.5t-111 -82.5t-124.5 -65.5t-155 -35.5q-73 4 -125.5 22t-89.5 44t-59.5 58t-35.5 64q-30 66 -30 135q0 70 18 141q8 38 24.5 73.5t31.5 73.5q20 38 41 76t32 76q12 29 19 58t12.5 58t10.5 58t11 58q8 55 27.5 110.5t46.5 111.5q9 10 17.5 21t18 22 t22.5 21.5t31 18.5q29 17 67 34.5t84 17.5q55 3 103 -5t84.5 -24t60 -37.5t29.5 -46.5q2 -29 -8.5 -59.5t-22.5 -61.5q-46 -137 -89.5 -271.5t-79.5 -271.5q82 93 178 182t198 178q47 39 92 78.5t93 78.5t102.5 75.5t120.5 69.5q26 9 52 10.5t55 3.5q49 2 92 -7.5t72 -26.5 q20 -21 33.5 -42t17.5 -44q26 -78 43.5 -156t26.5 -159q3 -51 7 -99.5t7 -98.5q71 146 132.5 291.5t99.5 291.5q5 20 11.5 38t15.5 37q5 10 11 21t14 20.5t20.5 18.5t31.5 17q60 13 99.5 14.5t71.5 -0.5q20 -2 41 -4.5t40.5 -6t36 -9.5t27.5 -14q36 -31 55 -65t26 -70.5 t5 -74.5t-8.5 -76.5t-14.5 -77t-14 -75.5z" />
<glyph unicode="x" horiz-adv-x="2191" d="M2161 111q-13 -24 -44 -43t-72 -33t-88.5 -22.5t-92.5 -10.5q-75 0 -126 18.5t-88 45.5t-64.5 59t-54.5 59q-48 75 -96.5 148t-96.5 148q-77 -43 -141.5 -89t-126.5 -94q-57 -45 -109.5 -91.5t-110.5 -91.5q-23 -16 -47.5 -34.5t-53 -35t-62.5 -28.5t-76 -14 q-69 3 -120 19.5t-83 42.5t-44 58.5t-2 65.5q14 32 43 61.5t67 58t81.5 55.5t86.5 53q103 63 203.5 125t200.5 126q27 17 47 34.5t44 34.5q-51 70 -103.5 139.5t-101.5 139.5q-18 30 -37.5 61.5t-33 63.5t-17 65t10.5 68q9 22 35.5 39.5t63 29.5t78.5 18.5t83 8.5q31 3 62 2 t59.5 -5.5t52.5 -12t42 -18.5q26 -26 43.5 -53.5t35.5 -56.5q29 -60 62.5 -118.5t60.5 -118.5q58 34 110 70t98 74q47 35 89 70.5t94 70.5q21 13 42 29.5t45 30.5t53.5 24.5t67.5 12.5q63 -2 114.5 -16.5t86 -37t50.5 -51.5t10 -60q-24 -46 -66 -88.5t-96 -82.5t-117 -78 t-130 -74.5t-135.5 -72.5t-131.5 -72q97 -118 193 -235.5t193 -235.5q15 -18 29.5 -36.5t23.5 -37.5t11.5 -39t-4.5 -42z" />
<glyph unicode="y" horiz-adv-x="1884" d="M2400 1200q-10 -19 -28 -37.5t-40.5 -36t-47 -34.5t-48.5 -34q-60 -37 -121 -73t-122 -74q-134 -86 -257.5 -176t-230.5 -184.5t-193.5 -192.5t-147.5 -198q-10 -15 -20 -31.5t-22.5 -32t-28.5 -30.5t-38 -28q-19 -15 -46 -25.5t-58 -17t-64 -9t-63 -1.5q-54 0 -92 12 t-60.5 31.5t-28.5 43.5t6 49q22 97 85.5 191.5t156.5 185.5q-58 38 -97.5 81.5t-66 90.5t-43.5 96.5t-30 98.5q-11 46 -16 93t-2.5 94.5t15 95.5t37.5 96q8 19 26 38t45 35t62 27t78 13q49 6 91.5 2t75 -16t54 -30t27.5 -40q0 -49 0.5 -96t4.5 -95q13 -77 34 -152.5 t65 -147.5q113 91 236.5 179t249.5 176q62 46 126 91t132 90q40 23 93 37t108 9q60 -3 103 -18t68 -38.5t33.5 -51.5t-0.5 -56z" />
<glyph unicode="z" horiz-adv-x="2171" d="M2580 1208q-68 -63 -152 -122.5t-175.5 -116.5t-186 -113.5t-182.5 -114.5q-106 -63 -204.5 -125.5t-201.5 -125.5q-93 -60 -181.5 -120t-159.5 -126q66 23 137 37.5t143 27.5q72 14 142.5 26.5t143.5 28.5q69 14 141.5 24.5t145.5 12.5q115 3 196 -29q36 -15 53.5 -39 t-0.5 -50q-11 -31 -53 -56.5t-95 -43.5q-56 -18 -116 -30t-120 -25q-147 -27 -297 -53t-301 -45.5t-301.5 -29.5t-298.5 -5q-58 4 -95.5 23t-61.5 42q-22 24 -36.5 52t-6.5 57q35 64 100 123.5t145 116t167 111.5t167 111q201 128 402.5 253t404.5 253q-113 -2 -227 -9 t-228 -19l-228 -22t-226 -14q-33 -2 -70 -2q-36 0 -71 3t-65.5 9.5t-51 17.5t-28 26.5t3.5 36.5q56 46 140 75t181 48t198.5 31t193.5 25q213 23 423 31.5t412 -2.5q71 -4 133 -17.5t118 -33.5q24 -11 47.5 -23t41.5 -25.5t29 -29.5t11 -35z" />
<glyph unicode="{" horiz-adv-x="1430" d="M1381 87q-14 -24 -41 -48t-64 -43.5t-82.5 -33.5t-97.5 -20q-136 -11 -261 6t-219 55q-52 17 -95 40.5t-71.5 51.5t-40.5 60t-1 67q12 44 48.5 86t89 81t117.5 74.5t134 67.5q-26 0 -57.5 -1.5t-48.5 1.5q-38 -1 -79 1t-80 7.5t-73 15t-57 23t-33.5 31.5t-1.5 41 q8 26 34 46.5t62.5 35.5t82 25t93.5 16.5t95.5 9t89.5 2.5q-46 28 -84.5 60.5t-63 68.5t-31.5 75t10 81q31 71 106.5 138t192.5 120q54 27 119 47.5t134.5 34t141 18.5t139.5 -1q66 -4 123 -19.5t99 -38.5q21 -12 38.5 -25t29.5 -28t16.5 -31.5t-0.5 -33.5q-5 -22 -30 -39.5 t-61 -29t-77.5 -16t-77.5 0.5q-35 4 -69 8t-69 6q-42 4 -87.5 -1.5t-83.5 -19t-64 -33t-30 -43.5q5 -24 25.5 -45t48 -39.5t58.5 -36t58 -35.5q31 -18 63 -38t57.5 -42t41.5 -46.5t15 -52.5q-9 -24 -39.5 -46.5t-67.5 -40.5q16 -8 31 -17t25 -19.5t13.5 -22t-1.5 -24.5 q-15 -24 -42.5 -46.5t-62.5 -43t-74.5 -39.5t-78.5 -37q-41 -21 -83.5 -41.5t-83 -42t-76 -44.5t-62.5 -48q32 -10 65.5 -20t69.5 -17.5t74.5 -11.5t81.5 -2q46 5 85.5 -1.5t65.5 -20.5t35 -34.5t-6 -42.5z" />
<glyph unicode="|" horiz-adv-x="840" d="M1062 742q-16 -37 -29.5 -73t-30.5 -73q-16 -35 -29.5 -71t-28.5 -71l-36 -97q-4 -25 -14.5 -48t-19.5 -48q-12 -38 -31.5 -76t-38.5 -76q-20 -33 -42 -66t-57 -65q-14 -15 -31 -31.5t-38.5 -31.5t-49 -26.5t-62.5 -16.5q-54 -1 -86 11.5t-49.5 32.5t-25.5 43t-15 43 q-2 45 3.5 90.5t12.5 90.5q33 143 73.5 284t94.5 284q21 64 48.5 127t50.5 127q29 62 56 124t49 124q19 31 33.5 65.5t36.5 68t58 63.5t99 52q61 9 103 -0.5t69 -29t40 -44.5t16 -47q3 -51 -4.5 -101t-12.5 -101q-17 -109 -44 -217.5t-68 -219.5z" />
<glyph unicode="}" horiz-adv-x="1427" d="M1758 712q-9 -27 -35 -47.5t-62.5 -36t-82 -26t-93.5 -17t-96 -9t-90 -1.5q46 -28 85 -60t63.5 -68t31.5 -74.5t-11 -80.5q-31 -72 -106 -139t-190 -121q-56 -27 -120.5 -47t-134.5 -33t-141.5 -18t-140.5 -1q-69 5 -126.5 21t-97.5 41q-20 12 -37.5 25t-29 27.5 t-15.5 31t2 34.5q1 22 25.5 39t61.5 27.5t79 14.5t78 1q35 -5 69 -8.5t69 -7.5q43 -4 89.5 2.5t85 20t64.5 33t29 43.5q-6 24 -27 45t-49 39.5t-59 35.5t-58 34q-31 18 -63.5 38t-58 42.5t-41.5 47t-14 51.5q9 24 40.5 45.5t68.5 39.5q-16 9 -30.5 18t-25 19t-15.5 21.5 t0 25.5q17 25 46.5 47.5t65 43.5t74.5 40t76 38q42 21 85.5 41.5t84 42t76 44.5t62.5 49q-32 10 -66 19.5t-70 17t-74.5 11.5t-81.5 2q-45 -5 -84.5 1.5t-65.5 21t-35 34t6 42.5q13 24 39.5 47.5t63 43t81.5 33.5t95 19q137 13 264 -3.5t221 -54.5q50 -18 92 -41.5t70.5 -52 t40.5 -61t0 -67.5q-14 -44 -49.5 -86t-87.5 -81t-116 -75t-133 -67q26 -1 57 0.5t49 -0.5q55 0 117.5 -5.5t113 -18.5t78.5 -35.5t14 -57.5z" />
<glyph unicode="~" horiz-adv-x="2109" d="M2429 840q-3 -21 -24 -38.5t-52.5 -31.5t-70 -24.5t-75.5 -16.5q-44 -9 -91.5 -19.5t-91.5 -23.5q-110 -22 -220.5 -41.5t-224.5 -21.5q-72 0 -128.5 14t-107.5 34q-41 15 -84 30t-98 19q-56 -2 -109 -12.5t-102 -26.5t-93.5 -36t-83.5 -41q-11 0 -19 1t-18 1 q-51 2 -89.5 14t-67.5 30q-36 17 -55 39t-21 48q9 30 40 53.5t74.5 43t95 35.5t99.5 30q53 12 107 24.5t108.5 22.5t109.5 16t109 6q67 2 121.5 -13.5t101.5 -32.5q40 -16 85.5 -30t102.5 -16q63 4 124 15t117 29q63 15 130.5 28t133.5 11q52 -1 100 -10t85 -24t59 -36.5 t23 -48.5z" />
<glyph unicode="&#xa1;" horiz-adv-x="901" d="M1410 1198q-6 -31 -41.5 -56.5t-86 -43t-110 -26t-114.5 -4.5q-34 1 -68.5 4.5t-65.5 10.5t-56.5 17t-41.5 25q-32 27 -33 60.5t11 67.5q13 28 48.5 53.5t86.5 43.5q53 18 109 28t114 6q65 -5 115 -22.5t82 -43t45 -57t6 -63.5zM1111 802q-24 -62 -57 -123.5t-71 -123.5 q-22 -32 -39 -64.5t-31 -65.5q-9 -32 -22 -64t-22 -64q-22 -46 -48 -93.5t-70 -92.5q-32 -31 -73 -56t-88 -41.5t-97 -23t-100 0.5q-32 4 -54.5 14.5t-38.5 24t-25.5 29t-13.5 30.5q-11 29 -10 60t10 63q21 53 53 105t71 104t82.5 103.5t85.5 103.5q47 46 88 97t89.5 100 t110.5 93t152 77q31 -1 53 -8.5t36 -19t21 -25t8 -27.5q8 -27 9.5 -55.5t-9.5 -57.5z" />
<glyph unicode="&#xa2;" horiz-adv-x="1679" d="M2080 865q-4 -21 -22 -41.5t-47.5 -36.5t-69 -25.5t-86.5 -7.5q-64 0 -113.5 16.5t-72.5 43.5q-15 29 -32.5 57.5t-35.5 56.5q-14 -46 -26.5 -91t-29.5 -91q-20 -53 -42 -104t-44 -104q62 23 131 39t142 20q47 2 75.5 -8.5t42.5 -27.5t14.5 -38t-9.5 -40 q-23 -41 -75.5 -72t-121 -55t-146 -42t-150.5 -31q-8 -14 -13.5 -29t-10.5 -29q-20 -40 -44.5 -79.5t-62.5 -77.5q-15 -17 -34.5 -35t-44 -34t-56.5 -28.5t-72 -16.5q-33 -1 -64.5 3.5t-56.5 13.5t-41.5 22.5t-20.5 30.5q-2 33 4.5 67t14.5 68q5 28 11.5 55t12.5 56 q-139 22 -247.5 67t-179.5 105q-72 57 -98 125t1 141q29 78 108 151t186 138q52 33 113.5 63t130.5 55t145 42.5t158 23.5q11 23 21.5 45t18.5 45q11 23 25.5 46t40.5 45q12 10 24 20.5t27 20t33.5 16.5t43.5 9q40 1 79 -3.5t71 -14t54 -24.5t27 -36q11 -38 4.5 -76.5 t-13.5 -78.5q104 -17 186 -51t135 -81q57 -41 86.5 -91.5t15.5 -106.5zM1097 898q-44 -25 -86 -51.5t-78 -54t-62 -57.5t-38 -61q-6 -23 2.5 -43t26.5 -38t43 -34t52 -30q34 93 69.5 184.5t70.5 184.5z" />
<glyph unicode="&#xa3;" horiz-adv-x="2454" d="M2662 401q-68 -49 -159.5 -85.5t-194 -66t-210 -55.5t-207.5 -54q-109 -24 -218 -50t-219.5 -48t-222.5 -37.5t-226 -19.5q-36 1 -70.5 4t-66 9t-58 15t-45.5 23q-20 13 -31.5 28.5t-19 32t-12.5 33.5t-11 34q-13 72 -10 145t29 148q14 54 39 107.5t51 107.5 q-46 0 -91.5 -0.5t-92.5 0.5q-48 2 -89 13t-61 32q-25 19 -36 42.5t2 49.5q21 25 55 42.5t77 29t92 18t99 10t99 5.5t91 4q34 78 90 155t115 154q51 36 121 58.5t148 36.5t159.5 22t155.5 16q173 16 341.5 19t336.5 -5q53 -2 99 -13t79 -29t49 -42t10 -51q-2 -19 -19 -36.5 t-45 -31t-63 -22.5t-73 -11q-82 -5 -163 -5t-163 2q-48 1 -102 0t-108.5 -5.5t-107 -13t-98.5 -23t-83.5 -35t-61.5 -48.5q-21 -23 -33.5 -46t-30.5 -46q44 0 94.5 -1t99.5 -6t92 -14.5t73 -24.5t43.5 -36.5t2.5 -50.5q-5 -20 -24.5 -38t-48.5 -32.5t-66 -23.5t-76 -12 q-81 -4 -159 -4.5t-159 -2.5q-22 -48 -41.5 -95.5t-36.5 -95.5q-18 -48 -20 -94.5t10 -92.5q140 24 272.5 56.5t266.5 65.5q131 35 269.5 60t278.5 29q49 2 97.5 -3t89 -16t68 -29t35.5 -42q2 -4 2 -7t1 -7z" />
<glyph unicode="&#xa4;" horiz-adv-x="3000" d="M3280 1133q-34 -36 -86 -65.5t-113 -56.5t-126 -52.5t-124 -52.5q35 -53 45 -110.5t-16 -117.5q-20 -72 -87.5 -142.5t-169.5 -129.5q34 -26 75.5 -51t76 -52.5t55 -58t13.5 -65.5q-12 -16 -35.5 -30t-53.5 -25t-64 -17.5t-67 -7.5q-77 4 -139.5 20.5t-117 39t-104.5 48 t-102 47.5q-124 -23 -250 -33.5t-250 -8.5q-124 0 -238 15t-211 44q-67 -22 -135.5 -46.5t-139 -46t-144 -36.5t-151.5 -19q-31 1 -61.5 6t-53 14t-35 22.5t-7.5 32.5q22 38 68.5 70.5t105 61.5t122.5 56t121 54q-44 51 -59 106t9 114q23 63 67 125t111 120 q-42 26 -88.5 51.5t-87.5 53t-71 57.5t-38 66q17 18 45 30.5t66 20.5q35 11 70 19t73 10q66 3 119.5 -8t98.5 -29q51 -17 93 -38t87 -41q171 52 357 72.5t368 18.5q146 2 269 -24t221 -68q57 18 116.5 38.5t121.5 38t126.5 29t131.5 11.5q35 -4 67 -10.5t56 -18.5 q27 -8 49 -20.5t21 -30.5zM2284 649q20 47 14 94.5t-50 85.5q-23 19 -56 34t-74 24.5t-87 14t-94 3.5q-57 4 -118 0t-120 -15t-113 -28t-96 -40t-69 -51.5t-33 -60.5q-21 -42 -5 -82t60.5 -70t114.5 -47t159 -14h34q82 1 165.5 2t165.5 18q42 7 77.5 21t61.5 32t42 38.5 t21 40.5z" />
<glyph unicode="&#xa5;" horiz-adv-x="1987" d="M2444 1200q-10 -19 -28 -37.5t-40.5 -36t-47 -34.5t-48.5 -34q-60 -37 -121 -73t-121 -74q-80 -51 -158.5 -103.5t-147.5 -107.5q54 -2 108 -11t93.5 -25.5t57 -41t-0.5 -57.5q-5 -26 -34 -47.5t-71 -36.5t-92.5 -22.5t-99.5 -6.5q-126 0 -249 -3q-23 -20 -44 -41.5 t-41 -42.5h95q42 0 90.5 -1t96 -5.5t90 -13t71 -22.5t39.5 -35t-3 -49q-12 -26 -45 -46t-77 -34.5t-94.5 -23t-97.5 -10.5q-86 -2 -170.5 -3t-169.5 -1q-16 -26 -45.5 -51t-70.5 -45t-91.5 -31.5t-107.5 -8.5q-58 0 -96.5 13.5t-60 34.5t-26 46.5t6.5 51.5q-29 0 -54 3 t-54 3q-50 3 -89.5 15.5t-66.5 31t-40 42t-8 49.5q20 36 72 55t117 28t134 11.5t125 4.5q16 20 33.5 39.5t31.5 38.5q-55 2 -111.5 3.5t-113.5 3.5q-49 1 -87.5 12.5t-63 29.5t-35 41t-2.5 47t37.5 42t69.5 30.5t85.5 20.5t87.5 13q-32 68 -52 137.5t-28 140.5q-1 33 0 67 t6.5 68t16 68t28.5 68q8 19 26 38t45 35t62.5 27t78.5 13q50 6 92.5 1.5t74.5 -16.5t52.5 -30.5t26.5 -40.5q0 -48 1 -95.5t4 -95.5l16 -76t18.5 -75.5t26 -74.5t39.5 -72q72 59 150 115.5t159 114.5q78 54 154.5 108.5t149.5 108.5q37 23 67.5 48t69.5 47q41 20 92 32.5 t104 7.5q60 -3 102.5 -18t68 -38.5t33.5 -51.5t-1 -56z" />
<glyph unicode="&#xa6;" horiz-adv-x="840" d="M1070 876q-7 -26 -38 -47t-75 -35t-94.5 -21.5t-96.5 -6.5q-41 -1 -70 7.5t-48.5 22.5t-30.5 31.5t-16 34.5q-11 36 -5.5 72.5t13.5 74.5q8 19 20 38.5t20 39.5q10 20 19 39t20 40q4 13 9.5 25.5t5.5 25.5q2 13 10 24.5t11 24.5q13 33 38 73t66.5 75t102 59.5t144.5 28.5 q53 -5 86.5 -21.5t50.5 -39t18.5 -49t-8.5 -51.5q-35 -117 -74.5 -232.5t-77.5 -232.5zM766 43q-15 -26 -42.5 -54.5t-67.5 -52t-90.5 -39.5t-111.5 -18q-44 3 -70 16t-40.5 31.5t-21 39.5t-10.5 39q-11 38 -8.5 77.5t15.5 79.5q7 20 13.5 38t17.5 37q17 38 31 77 q6 11 7.5 23t5.5 23l16 44q6 33 32.5 70.5t72 68.5t110 50t146.5 16q49 0 85.5 -11t58.5 -29t29 -40.5t-4 -45.5q-45 -111 -87 -220.5t-87 -219.5z" />
<glyph unicode="&#xa8;" horiz-adv-x="1533" d="M2038 1548q-11 -26 -41 -49t-72 -40t-92.5 -26.5t-101.5 -9.5q-52 0 -97.5 11.5t-68.5 31.5q-29 23 -41 50.5t2 57.5q10 31 41.5 58.5t76.5 51.5q38 21 87 37.5t102 12.5q67 0 113.5 -20t70.5 -47q26 -26 32 -57t-11 -62zM1333 1553q-3 -25 -27 -49t-62 -42t-87 -27.5 t-101 -4.5q-57 3 -106 16t-80 35q-33 22 -46.5 50.5t-2.5 57.5q6 15 20 28.5t33 26t40.5 24t44.5 22.5q45 17 97.5 33t109.5 18q63 4 103 -15t57 -45q14 -31 18 -63t-11 -65z" />
<glyph unicode="&#xa9;" horiz-adv-x="2785" d="M2947 485q-22 -56 -72 -109t-121.5 -100.5t-161 -88.5t-189.5 -74q-202 -67 -422 -100t-442 -33q-235 -3 -443.5 32.5t-378.5 101.5q-84 31 -155 72t-118 89.5t-65.5 103.5t2.5 114q19 70 67.5 139.5t121.5 134.5t168 125t207 113q107 54 232.5 100t262 79t279.5 50.5 t285 14.5q140 1 265 -17.5t230 -53t188 -82t139 -103.5q124 -109 153 -240.5t-32 -267.5zM2481 478q18 46 27 93t6 92.5t-18.5 89.5t-46.5 85q-26 41 -76 76t-118 60t-151.5 39t-176.5 13q-99 1 -197.5 -12t-191.5 -37t-176.5 -57.5t-151.5 -72.5q-149 -76 -241.5 -170 t-121.5 -191q-14 -37 2 -69.5t51.5 -59.5t85.5 -48t106 -36q116 -35 251 -50.5t282 -15.5q131 0 265 14t260 49q63 15 118 37.5t98.5 49.5t73 57.5t41.5 63.5zM2266 835q-7 -24 -33.5 -46t-65.5 -39t-86 -27t-94 -10q-32 2 -61.5 7.5t-61.5 9.5q-69 -4 -127.5 -24.5 t-113.5 -43.5q-25 -12 -51 -25t-49 -26.5t-41 -28.5t-28 -31q-9 -17 0.5 -29t30.5 -19.5t49.5 -10.5t56.5 -2q40 2 79 4.5t78 10.5q74 13 152 16q47 0 86.5 -9.5t66 -26t37 -38.5t-0.5 -46q-8 -21 -29 -39t-51 -32.5t-66.5 -25t-75.5 -16.5q-90 -14 -179 -24t-179 -10 q-127 0 -237 21t-190 63q-78 40 -107 96.5t-6 118.5q12 41 48 79t87 73.5t112.5 67t126.5 58.5q67 28 141 52.5t152 43t159.5 29t163.5 10.5q62 0 119 -7.5t105 -24.5q46 -16 70.5 -42t12.5 -57z" />
<glyph unicode="&#xab;" horiz-adv-x="1922" d="M1882 109q-15 -22 -43.5 -41t-65.5 -34t-79.5 -24.5t-87.5 -12.5q-63 4 -109 21t-82 40.5t-65.5 49.5t-60.5 49q-30 29 -63.5 58t-60 59t-42 63t-9.5 69q22 35 62 66.5t90 61t105.5 57t106.5 54.5q49 21 98.5 45.5t102.5 45.5t111 36t123 18q89 -2 129 -34t33 -73 q-8 -27 -38 -53t-74 -46q-89 -47 -179.5 -91.5t-179.5 -91.5q65 -55 130 -109t125 -111q23 -14 28.5 -33t-5.5 -39zM1335 724q-8 -22 -36.5 -42t-59.5 -37q-117 -58 -230 -116t-224 -118q60 -49 123 -95t125 -94q15 -11 27.5 -23.5t20.5 -26t10 -27.5t-4 -29q-3 -21 -23 -41 t-51.5 -35.5t-72 -24t-83.5 -5.5q-63 8 -112 25.5t-90.5 40.5t-77.5 48t-74 48q-31 27 -66.5 54t-65 55.5t-48 59t-14.5 65.5q22 36 62.5 69t91 63.5t106 59t107.5 57.5q55 24 110 51.5t113 52t121 43.5t135 26q43 1 79 -7t60.5 -22.5t35.5 -34t5 -40.5z" />
<glyph unicode="&#xad;" horiz-adv-x="1782" d="M1980 678q-13 -22 -42 -40t-68 -32t-83 -22.5t-87 -10.5q-244 -8 -483.5 -7t-480.5 2q-103 8 -164 45q-16 9 -30 19.5t-23.5 22t-12.5 24t3 26.5q38 38 102 59t139 30.5t153.5 12.5t146.5 5q46 -1 90 -1t91 -2q46 0 91 -1.5t91 -1.5q91 0 180.5 -3t178.5 -8 q41 -5 82.5 -14t72.5 -23.5t46.5 -34.5t6.5 -45z" />
<glyph unicode="&#xae;" horiz-adv-x="2922" d="M3115 579q-24 -63 -81.5 -123.5t-138.5 -115t-181.5 -102.5t-211.5 -86q20 -14 26.5 -32t-4.5 -38q-8 -20 -32.5 -35.5t-58.5 -26t-72.5 -16.5t-75.5 -7q-34 0 -68.5 1t-68 4t-64.5 9t-56 16q-133 -23 -267.5 -35t-265.5 -12q-125 0 -247 11t-232 33.5t-205.5 56 t-168.5 79.5q-78 42 -130.5 94t-79 110t-27.5 120t22 124q22 72 76.5 141t135.5 133.5t184 123t221 108.5q115 52 245.5 95t270 73.5t284 46.5t286.5 14q140 1 267.5 -16.5t236.5 -51t196.5 -80t147.5 -101.5q66 -55 106 -116.5t56.5 -127t9.5 -134t-35 -137.5zM2647 577 q16 46 26 92.5t9.5 92.5t-14 90t-43.5 85q-29 40 -80 74.5t-120 59t-153 38t-178 11.5q-144 2 -285.5 -22t-274.5 -62q115 11 225.5 12.5t223.5 1.5q63 -2 128 -3.5t128 -7t121.5 -15t109.5 -26.5t81.5 -42.5t44 -56t13 -63.5t-12.5 -65q-9 -27 -32.5 -52.5t-56.5 -49.5 t-73 -46.5t-81 -43.5q-88 -40 -184.5 -76.5t-207.5 -58.5q46 -43 96.5 -82.5t103.5 -79.5q90 22 171 53t145.5 69t109 82t60.5 91zM2145 800q3 14 -18 21.5t-47 6.5q-51 0 -101 -2t-103 -3q-49 -3 -100 -4.5t-100 -1.5l-31 -10l-1 -5q-2 -11 -1 -22t-1 -22 q-17 -38 -22 -74.5t-5 -74.5q86 4 172 16t164 35q77 23 129 61t65 79zM1179 519q17 46 24 92.5t16 93.5q11 46 24.5 92t33.5 92q5 17 14 33.5t25 31.5q-81 -34 -151.5 -74t-125 -85t-92.5 -93.5t-54 -97.5q-15 -46 -16.5 -93t17.5 -90.5t61.5 -81t114.5 -63.5q17 31 28.5 60 t24.5 60q20 31 33.5 61.5t22.5 61.5zM1712 212q-41 33 -87 65.5t-111 55.5q-7 -11 -11 -21l-8 -20l-5 -17q-7 -17 -9.5 -32.5t-7.5 -32.5q24 -2 51 -2h53q33 0 67 1t68 3z" />
<glyph unicode="&#xb0;" horiz-adv-x="1423" d="M1821 1082q-10 -31 -36 -59.5t-63.5 -55t-84.5 -50t-98 -43.5q-106 -42 -227 -67t-245 -25q-116 0 -208.5 26t-158.5 66q-62 42 -92 94.5t-7 111.5q10 31 34 61t59 57.5t79.5 53t95.5 47.5q102 45 224.5 70t246.5 25q121 0 216.5 -28.5t156.5 -73.5q65 -42 96.5 -96 t11.5 -114zM1428 1092q9 25 -9.5 45.5t-49.5 34.5q-32 17 -74 28.5t-94 11.5q-41 -2 -78 -13t-66.5 -27t-48.5 -36t-25 -39q-12 -22 -9.5 -44t20.5 -40t51.5 -28.5t84.5 -8.5q49 -3 100.5 5t94.5 23.5t71.5 38t31.5 49.5z" />
<glyph unicode="&#xb1;" horiz-adv-x="1604" d="M1879 669q-5 -21 -28 -39.5t-56 -33t-72.5 -22.5t-78.5 -7q-70 1 -141 -0.5t-139 0.5q-12 -31 -20.5 -62.5t-22.5 -62.5q-9 -26 -47 -47t-83 -38q-48 -17 -101 -28.5t-107 -9.5q-78 8 -111.5 35t-41 63t1 75.5t15.5 72.5q-61 2 -121 0t-122 -2q-49 2 -87.5 12.5 t-60.5 30.5q-21 19 -34.5 41.5t-1.5 48.5q36 39 99.5 60.5t138 32.5t153 15t146.5 8l7 19l2 2q12 32 35 69.5t63 70t99.5 54t142.5 21.5q39 1 71.5 -6t56 -19t36.5 -28.5t13 -35.5q-4 -38 -17 -76.5t-22 -76.5q10 0 21 -1t22 -1q43 -1 91 -3.5t94 -9t86.5 -16.5t69.5 -24.5 t43.5 -35t7.5 -46.5zM1647 109q-14 -20 -39 -39t-58.5 -34t-73.5 -25.5t-82 -13.5q-246 -20 -485 -18.5t-474 14.5q-48 5 -83 19t-58 34q-27 20 -43.5 43t-9.5 49q2 17 20 30t44 22t57 15t60 8q48 4 89.5 6t78.5 2t71.5 -1t67.5 -2q95 0 193 -3q48 0 94 -2.5t95 -0.5 q93 0 187 2t185 -2q40 -1 76.5 -8.5t61.5 -20.5t33.5 -32t-7.5 -42z" />
<glyph unicode="&#xb4;" horiz-adv-x="676" d="M1336 1712q-2 -14 -14.5 -26.5t-17.5 -26.5q-33 -36 -77 -77.5t-102.5 -76.5t-132.5 -58t-166 -22q-27 1 -48.5 7.5t-35.5 17t-20 23t-2 25.5q4 14 8.5 25.5t12.5 24.5q26 42 72 81.5t102 77.5q25 16 54 34t62.5 32t72 23.5t82.5 9.5q39 0 69.5 -7.5t51 -20.5t28.5 -30.5 t1 -35.5z" />
<glyph unicode="&#xb6;" horiz-adv-x="3284" d="M3651 1222q-7 -23 -28 -45.5t-46 -43.5q-12 -9 -24.5 -19.5t-27.5 -19.5t-33.5 -16t-40.5 -10q-64 2 -126.5 4.5t-122.5 4.5q-35 -49 -60 -98t-45.5 -98.5t-37.5 -99t-35 -98.5q-46 -131 -81.5 -261t-65.5 -262q-11 -45 -25 -89.5t-36 -89.5q-17 -34 -59 -62.5 t-98.5 -49.5t-123 -33.5t-132.5 -12.5q-40 0 -65 10t-40 25t-23 33t-12 34q-7 18 -8 37t1.5 38.5t6 39.5t5.5 40q34 126 70 251t72 251q36 128 67 252.5t49 252.5q-63 -2 -128 -1.5t-125 3.5q-38 -64 -75.5 -129t-76.5 -129q-41 -66 -73.5 -131t-59.5 -132q-23 -63 -42 -126 t-40 -126q-14 -49 -25 -96.5t-24 -96.5q-4 -42 -12.5 -81.5t-14.5 -80.5q-7 -26 -29.5 -53t-58.5 -49t-84.5 -35.5t-107.5 -11.5q-77 -4 -145 8t-115 35t-66.5 56.5t0.5 73.5q19 54 40 108t45 108q20 57 47 113t45 113q4 11 7 23.5t7 23.5q-96 10 -190 23.5t-183 32.5 t-170.5 43t-151.5 55q-68 27 -119 63.5t-78.5 79t-29.5 89.5t29 96q44 86 146 164.5t257 135.5q73 29 154.5 50.5t166.5 36.5t172.5 23.5t172.5 10.5q92 3 184.5 5t185.5 2q166 -2 326.5 -10t321.5 -17q211 -13 416 -24t416 -22q37 -2 75 -8t68.5 -17t49 -27t17.5 -37z" />
<glyph unicode="&#xb7;" horiz-adv-x="870" d="M1138 771q-11 -35 -46.5 -68t-89.5 -61q-54 -29 -123 -49t-140 -18q-78 -3 -133 14t-86 45.5t-37.5 63.5t12.5 70q15 31 53.5 59t91 49t114 33t123.5 11q64 3 118 -8t90.5 -31.5t51.5 -49t1 -60.5z" />
<glyph unicode="&#xbb;" horiz-adv-x="1925" d="M2111 408q-20 -36 -59.5 -68.5t-89 -63t-105 -59.5t-106.5 -57q-56 -24 -111 -51.5t-113.5 -52.5t-122 -44t-136.5 -26q-44 -2 -80.5 6.5t-61 23.5t-35 35t-2.5 41q11 22 35.5 41t59.5 36q114 58 227 115.5t227 116.5q-60 49 -123 96t-126 95q-29 23 -46.5 50t-6.5 58 q4 20 24.5 40.5t51.5 35.5t70.5 23.5t82.5 4.5q65 -7 114.5 -25t90 -41.5t76 -49t72.5 -48.5q30 -27 65.5 -53.5t65 -54.5t48 -58.5t14.5 -65.5zM1309 408q-22 -36 -62.5 -67.5t-91 -61t-105.5 -57t-105 -55.5q-50 -21 -100 -45t-103 -45t-110.5 -36t-121.5 -19 q-44 1 -76.5 11t-53.5 25t-30 34t-5 39q10 27 38.5 53t72.5 46q91 47 181 91t179 90q-66 56 -129.5 111.5t-125.5 110.5q-17 16 -24 34t2 38q13 22 41 41t64 33t78.5 23.5t86.5 13.5q64 -4 111 -20t84 -38.5t67.5 -48.5t60.5 -49q28 -29 61.5 -58t61 -60t44 -64t10.5 -70z " />
<glyph unicode="&#xbf;" horiz-adv-x="1918" d="M2053 1195q-7 -37 -49 -70t-103.5 -56.5t-135.5 -36t-144 -8.5q-51 -2 -101 3t-94 15t-80 26t-58 36t-28 44.5t10 52.5q11 33 46.5 66.5t88 60.5t118.5 43t139 15q80 -4 154 -14.5t131 -36.5q61 -25 89 -61.5t17 -78.5zM2072 338q-21 -45 -70.5 -85.5t-117 -75 t-147.5 -62.5t-163 -48q-167 -47 -346.5 -67.5t-353.5 -16.5q-69 1 -136 6t-129 15.5t-117.5 26.5t-100.5 39q-91 45 -123.5 111t-13.5 135q32 51 90 93t134.5 77.5t166 65.5t183.5 57.5t189 52.5t181 50q-59 1 -116.5 3t-117.5 2q-55 2 -109.5 6.5t-108.5 12.5 q-9 17 -12 36t2 39q7 20 27 38.5t48 35t62.5 30.5t70.5 25q37 -1 74.5 1t77.5 4q35 2 73 2h73q132 2 256 -9.5t236 -36.5q51 -10 99.5 -26.5t83 -38t50.5 -48.5t4 -59q-14 -31 -48 -57t-80 -48.5t-99.5 -41.5t-106.5 -34q-140 -36 -278.5 -71t-278.5 -67q-42 -11 -89 -22.5 t-90.5 -25.5t-78 -32.5t-52.5 -42.5q1 -25 31 -38.5t74 -19.5t94 -8t91 -3q97 -2 192 9.5t192 33.5q59 23 105 51.5t88 59.5q22 15 50.5 29t61 25t68 18t71.5 8q47 2 86 -7t64.5 -25t35 -37.5t-1.5 -44.5z" />
<glyph unicode="&#xc0;" d="M258 1zM2251 108q-11 -20 -33.5 -37t-53 -30t-67 -22t-75.5 -12q-33 -3 -67 -3q-33 0 -64.5 3.5t-58.5 11t-47 19.5q-14 15 -21.5 31t-11 32.5t-5 33.5t-3.5 34q-1 32 -3 64t-9 64q-31 6 -65 10t-70 2q-95 0 -187.5 -6t-187.5 -15q-44 -5 -90 -9.5t-91 -11.5t-88 -16.5 t-83 -23.5q-38 -17 -56.5 -40t-31.5 -45l-28 -52t-42 -49q-17 -13 -40 -21t-49.5 -12.5t-54 -6t-53.5 0.5q-72 6 -122.5 28.5t-83.5 51.5q-29 29 -42.5 62.5t-8.5 68.5q18 62 67.5 121.5t111.5 117.5q68 65 137.5 126.5t138.5 124.5q84 102 175.5 201.5t181.5 199.5 q48 40 100.5 86.5t117 87t144.5 71t183 39.5q92 0 171.5 -19t138.5 -48q63 -29 104 -68.5t65 -83.5q17 -42 25 -83t21 -82q36 -164 68 -327t52 -329q10 -28 11 -57.5t7 -58.5q3 -29 -2.5 -58.5t-22.5 -59.5zM1623 642q12 48 7.5 95t-17 93t-29.5 91.5t-31 90.5 q-73 -44 -128 -91.5t-106 -97.5q-45 -49 -83.5 -100t-57.5 -102l-7 -19l-2 -17l2 4q50 -2 104 -2t106 -2h58q25 0 55.5 2.5t58 9.5t47.5 18t23 27zM1685 1503q-8 -14 -22 -27t-34 -24t-46 -18.5t-57 -8.5q-92 1 -149.5 24.5t-91 59t-49 77t-22.5 78.5q4 7 4 13q0 7 -1 13 t-0.5 12.5t5.5 13.5q9 19 29.5 36.5t49.5 31t65 20.5t75 6q50 -1 84.5 -13t58.5 -30t40.5 -39.5t31.5 -40.5q28 -44 38.5 -89.5t-9.5 -94.5z" />
<glyph unicode="&#xc1;" d="M258 1zM2251 108q-11 -20 -33.5 -37t-53 -30t-67 -22t-75.5 -12q-33 -3 -67 -3q-33 0 -64.5 3.5t-58.5 11t-47 19.5q-14 15 -21.5 31t-11 32.5t-5 33.5t-3.5 34q-1 32 -3 64t-9 64q-31 6 -65 10t-70 2q-95 0 -187.5 -6t-187.5 -15q-44 -5 -90 -9.5t-91 -11.5t-88 -16.5 t-83 -23.5q-38 -17 -56.5 -40t-31.5 -45l-28 -52t-42 -49q-17 -13 -40 -21t-49.5 -12.5t-54 -6t-53.5 0.5q-72 6 -122.5 28.5t-83.5 51.5q-29 29 -42.5 62.5t-8.5 68.5q18 62 67.5 121.5t111.5 117.5q68 65 137.5 126.5t138.5 124.5q84 102 175.5 201.5t181.5 199.5 q48 40 100.5 86.5t117 87t144.5 71t183 39.5q92 0 171.5 -19t138.5 -48q63 -29 104 -68.5t65 -83.5q17 -42 25 -83t21 -82q36 -164 68 -327t52 -329q10 -28 11 -57.5t7 -58.5q3 -29 -2.5 -58.5t-22.5 -59.5zM1623 642q12 48 7.5 95t-17 93t-29.5 91.5t-31 90.5 q-73 -44 -128 -91.5t-106 -97.5q-45 -49 -83.5 -100t-57.5 -102l-7 -19l-2 -17l2 4q50 -2 104 -2t106 -2h58q25 0 55.5 2.5t58 9.5t47.5 18t23 27zM2008 1721q-2 -14 -14.5 -26.5t-17.5 -26.5q-33 -36 -77 -77.5t-102.5 -76.5t-132.5 -58t-166 -22q-27 1 -48.5 7.5t-35.5 17 t-20 23t-2 25.5q4 14 8.5 25.5t12.5 24.5q26 42 72 81.5t102 77.5q25 16 54 34t62.5 32t72 23.5t82.5 9.5q39 0 69.5 -7.5t51 -20.5t28.5 -30.5t1 -35.5z" />
<glyph unicode="&#xc2;" d="M258 1zM2251 108q-11 -20 -33.5 -37t-53 -30t-67 -22t-75.5 -12q-33 -3 -67 -3q-33 0 -64.5 3.5t-58.5 11t-47 19.5q-14 15 -21.5 31t-11 32.5t-5 33.5t-3.5 34q-1 32 -3 64t-9 64q-31 6 -65 10t-70 2q-95 0 -187.5 -6t-187.5 -15q-44 -5 -90 -9.5t-91 -11.5t-88 -16.5 t-83 -23.5q-38 -17 -56.5 -40t-31.5 -45l-28 -52t-42 -49q-17 -13 -40 -21t-49.5 -12.5t-54 -6t-53.5 0.5q-72 6 -122.5 28.5t-83.5 51.5q-29 29 -42.5 62.5t-8.5 68.5q18 62 67.5 121.5t111.5 117.5q68 65 137.5 126.5t138.5 124.5q84 102 175.5 201.5t181.5 199.5 q48 40 100.5 86.5t117 87t144.5 71t183 39.5q92 0 171.5 -19t138.5 -48q63 -29 104 -68.5t65 -83.5q17 -42 25 -83t21 -82q36 -164 68 -327t52 -329q10 -28 11 -57.5t7 -58.5q3 -29 -2.5 -58.5t-22.5 -59.5zM1623 642q12 48 7.5 95t-17 93t-29.5 91.5t-31 90.5 q-73 -44 -128 -91.5t-106 -97.5q-45 -49 -83.5 -100t-57.5 -102l-7 -19l-2 -17l2 4q50 -2 104 -2t106 -2h58q25 0 55.5 2.5t58 9.5t47.5 18t23 27zM2164 1519q-10 -17 -32 -32t-51 -26t-63 -17.5t-69 -6.5q-69 -1 -113 21t-62 51q-16 33 -35.5 65.5t-36.5 65.5 q-48 -35 -96.5 -68t-99.5 -68q-23 -14 -50.5 -28t-58.5 -25t-65 -17t-70 -4q-45 1 -76 12t-49 27t-24 36t-2 40q9 29 34.5 56t61 52t77 48.5t82.5 46.5q45 21 92 43t98 41t106.5 32t116.5 15q60 0 107.5 -11.5t86 -29t69.5 -39.5t58 -44q25 -23 45 -47.5t32 -51t12.5 -54.5 t-13.5 -57q-2 -7 -6 -13t-6 -13z" />
<glyph unicode="&#xc3;" d="M258 1zM2251 108q-11 -20 -33.5 -37t-53 -30t-67 -22t-75.5 -12q-33 -3 -67 -3q-33 0 -64.5 3.5t-58.5 11t-47 19.5q-14 15 -21.5 31t-11 32.5t-5 33.5t-3.5 34q-1 32 -3 64t-9 64q-31 6 -65 10t-70 2q-95 0 -187.5 -6t-187.5 -15q-44 -5 -90 -9.5t-91 -11.5t-88 -16.5 t-83 -23.5q-38 -17 -56.5 -40t-31.5 -45l-28 -52t-42 -49q-17 -13 -40 -21t-49.5 -12.5t-54 -6t-53.5 0.5q-72 6 -122.5 28.5t-83.5 51.5q-29 29 -42.5 62.5t-8.5 68.5q18 62 67.5 121.5t111.5 117.5q68 65 137.5 126.5t138.5 124.5q84 102 175.5 201.5t181.5 199.5 q48 40 100.5 86.5t117 87t144.5 71t183 39.5q92 0 171.5 -19t138.5 -48q63 -29 104 -68.5t65 -83.5q17 -42 25 -83t21 -82q36 -164 68 -327t52 -329q10 -28 11 -57.5t7 -58.5q3 -29 -2.5 -58.5t-22.5 -59.5zM1623 642q12 48 7.5 95t-17 93t-29.5 91.5t-31 90.5 q-73 -44 -128 -91.5t-106 -97.5q-45 -49 -83.5 -100t-57.5 -102l-7 -19l-2 -17l2 4q50 -2 104 -2t106 -2h58q25 0 55.5 2.5t58 9.5t47.5 18t23 27zM2480 1625q-2 -19 -18.5 -37t-43 -34t-61 -28.5t-72.5 -19.5q-122 -27 -245 -51t-249 -26q-54 0 -101.5 10t-79.5 29 q-23 14 -54 25.5t-71 13.5q-54 2 -102.5 -11t-93.5 -30q-27 -10 -54 -21.5t-62 -15.5q-48 2 -87 14t-69 30l-26 20t-23 21t-14.5 22.5t0.5 25.5q5 24 28.5 46t58.5 40t77.5 32.5t86.5 24.5q85 23 177.5 37.5t182.5 14.5q52 2 97 -8t77 -27q23 -14 55 -24.5t72 -12.5 q44 0 89.5 2.5t89.5 11.5q36 11 74 19.5t71 22.5q20 7 40.5 8t41.5 1q45 -3 83 -14.5t66 -28t44 -38t15 -44.5z" />
<glyph unicode="&#xc4;" d="M258 1zM2251 108q-11 -20 -33.5 -37t-53 -30t-67 -22t-75.5 -12q-33 -3 -67 -3q-33 0 -64.5 3.5t-58.5 11t-47 19.5q-14 15 -21.5 31t-11 32.5t-5 33.5t-3.5 34q-1 32 -3 64t-9 64q-31 6 -65 10t-70 2q-95 0 -187.5 -6t-187.5 -15q-44 -5 -90 -9.5t-91 -11.5t-88 -16.5 t-83 -23.5q-38 -17 -56.5 -40t-31.5 -45l-28 -52t-42 -49q-17 -13 -40 -21t-49.5 -12.5t-54 -6t-53.5 0.5q-72 6 -122.5 28.5t-83.5 51.5q-29 29 -42.5 62.5t-8.5 68.5q18 62 67.5 121.5t111.5 117.5q68 65 137.5 126.5t138.5 124.5q84 102 175.5 201.5t181.5 199.5 q48 40 100.5 86.5t117 87t144.5 71t183 39.5q92 0 171.5 -19t138.5 -48q63 -29 104 -68.5t65 -83.5q17 -42 25 -83t21 -82q36 -164 68 -327t52 -329q10 -28 11 -57.5t7 -58.5q3 -29 -2.5 -58.5t-22.5 -59.5zM1623 642q12 48 7.5 95t-17 93t-29.5 91.5t-31 90.5 q-73 -44 -128 -91.5t-106 -97.5q-45 -49 -83.5 -100t-57.5 -102l-7 -19l-2 -17l2 4q50 -2 104 -2t106 -2h58q25 0 55.5 2.5t58 9.5t47.5 18t23 27zM2289 1553q-11 -26 -41 -49t-72 -40t-92.5 -26.5t-101.5 -9.5q-52 0 -97.5 11.5t-68.5 31.5q-29 23 -41 50.5t2 57.5 q10 31 41.5 58.5t76.5 51.5q38 21 87 37.5t102 12.5q67 0 113.5 -20t70.5 -47q26 -26 32 -57t-11 -62zM1584 1558q-3 -25 -27 -49t-62 -42t-87 -27.5t-101 -4.5q-57 3 -106 16t-80 35q-33 22 -46.5 50.5t-2.5 57.5q6 15 20 28.5t33 26t40.5 24t44.5 22.5q45 17 97.5 33 t109.5 18q63 4 103 -15t57 -45q14 -31 18 -63t-11 -65z" />
<glyph unicode="&#xc5;" d="M258 1zM2251 108q-11 -20 -33.5 -37t-53 -30t-67 -22t-75.5 -12q-33 -3 -67 -3q-33 0 -64.5 3.5t-58.5 11t-47 19.5q-14 15 -21.5 31t-11 32.5t-5 33.5t-3.5 34q-1 32 -3 64t-9 64q-31 6 -65 10t-70 2q-95 0 -187.5 -6t-187.5 -15q-44 -5 -90 -9.5t-91 -11.5t-88 -16.5 t-83 -23.5q-38 -17 -56.5 -40t-31.5 -45l-28 -52t-42 -49q-17 -13 -40 -21t-49.5 -12.5t-54 -6t-53.5 0.5q-72 6 -122.5 28.5t-83.5 51.5q-29 29 -42.5 62.5t-8.5 68.5q18 62 67.5 121.5t111.5 117.5q68 65 137.5 126.5t138.5 124.5q84 102 175.5 201.5t181.5 199.5 q48 40 100.5 86.5t117 87t144.5 71t183 39.5q92 0 171.5 -19t138.5 -48q63 -29 104 -68.5t65 -83.5q17 -42 25 -83t21 -82q36 -164 68 -327t52 -329q10 -28 11 -57.5t7 -58.5q3 -29 -2.5 -58.5t-22.5 -59.5zM1623 642q12 48 7.5 95t-17 93t-29.5 91.5t-31 90.5 q-73 -44 -128 -91.5t-106 -97.5q-45 -49 -83.5 -100t-57.5 -102l-7 -19l-2 -17l2 4q50 -2 104 -2t106 -2h58q25 0 55.5 2.5t58 9.5t47.5 18t23 27zM2208 1705q-23 -54 -90 -102.5t-162 -83.5q-95 -36 -204.5 -59t-220.5 -21q-103 0 -185.5 23t-135.5 60q-59 36 -81.5 83.5 t-7.5 97.5q18 56 81.5 106.5t157.5 88.5q89 40 199 62.5t221 21.5q104 -2 189 -25.5t140 -63.5q61 -38 89.5 -86t9.5 -102zM1881 1715q9 25 -10 46t-50 36q-32 16 -74 26t-93 10q-43 -1 -80.5 -11.5t-66.5 -26.5t-48.5 -36t-26.5 -39q-12 -22 -9 -44t21.5 -40t52.5 -28.5 t85 -8.5q50 -3 102 5t95.5 23.5t71.5 38t30 49.5z" />
<glyph unicode="&#xc6;" horiz-adv-x="3447" d="M3536 364q-29 -55 -119 -99q-77 -33 -163 -58.5t-176 -46.5t-182 -39.5t-182 -36.5q-90 -16 -181.5 -33t-183 -32t-183.5 -25.5t-183 -13.5q-53 0 -107 2.5t-104 9t-92 19.5t-69 35q-20 24 -27 49.5t-5.5 51.5t9 53t16.5 54q5 14 7 29t-7 28q-36 0 -71.5 2.5t-73.5 0.5 q-41 2 -82.5 2.5t-82.5 0.5q-72 0 -145.5 -1t-148.5 -7q-48 -47 -98 -92.5t-95 -91.5q-24 -18 -51 -38t-59 -37t-70.5 -28t-85.5 -10q-49 1 -92.5 10t-75.5 24t-49 35.5t-12 46.5q9 66 47.5 131.5t92.5 129.5q60 69 127.5 133.5t135.5 131.5q123 112 252.5 223.5 t281.5 218.5q72 46 153 95t174 90t198.5 70t225.5 35q67 0 128 -8t108 -30q128 12 251 16t247 6q165 -1 328.5 0.5t325.5 -6.5q62 -1 116.5 -13t93 -33t57 -49t8.5 -61q0 -20 -12 -40t-41 -38q-22 -18 -59.5 -30t-77.5 -9q-223 6 -443 9.5t-443 5.5q-32 -32 -53 -65t-35 -66 q-2 -5 -1 -8.5t-1 -7.5q212 3 421 9q105 4 209.5 5.5t210.5 1.5q66 2 126.5 -9t103 -32t60.5 -50.5t-1 -64.5q-8 -31 -45.5 -52t-89.5 -34.5t-111 -21t-108 -10.5q-155 -9 -307 -15t-305 -17q-73 -6 -143 -24.5t-126 -45t-93.5 -60t-45.5 -70.5q-16 -44 -13 -85.5t16 -83.5 q71 4 141 15t138.5 25.5t136 31t134.5 32.5q137 36 281 63.5t290 32.5q58 4 98 -7.5t61 -32t21.5 -46t-21.5 -50.5zM1713 570l81 220q11 35 22.5 71t18.5 71t7 70t-12 68q-107 -53 -192.5 -113t-157 -124t-132 -130t-116.5 -131q121 -2 240 -2h241z" />
<glyph unicode="&#xc8;" horiz-adv-x="1918" d="M385 0zM2273 364q-18 -29 -45 -55t-71 -48q-75 -34 -159 -60t-172.5 -48t-180 -40.5t-181.5 -37.5q-89 -15 -178.5 -30.5t-180 -28t-181 -19.5t-180.5 -6q-35 3 -70 7.5t-67.5 11t-61 16t-48.5 23.5q-24 13 -40 29t-27.5 33t-19.5 35t-16 35q-9 40 -9 81q0 42 6 84 t16.5 84.5t22.5 84.5q28 68 54 137.5t55.5 139t65.5 138.5t85 136t114 132t152 126q140 25 284 34.5t287 13.5q163 9 320 8.5t312 -6.5q64 -1 118 -14t90 -35t50.5 -51t-0.5 -62q-2 -21 -15.5 -40.5t-42.5 -36.5q-10 -10 -26 -17t-35 -12t-39.5 -7.5t-39.5 -2.5 q-227 9 -452.5 11.5t-455.5 -1.5q-32 -32 -60 -65t-41 -68q-2 -4 0 -7t0 -7q109 4 216.5 7t217.5 7t214 5.5t212 -0.5q67 2 127 -9t101 -32.5t57.5 -51.5t-2.5 -66q-9 -31 -46.5 -52.5t-89.5 -35t-110.5 -20.5t-109.5 -10q-158 -8 -315 -14.5t-315 -17.5q-72 -6 -141 -23.5 t-125 -43.5t-93 -59t-44 -70q-9 -23 -11 -44.5t1 -43t9.5 -42t12.5 -41.5q143 8 279.5 37.5t270.5 63.5q139 36 284.5 62.5t292.5 32.5q59 4 99 -7t61.5 -31t24 -45.5t-14.5 -50.5zM1819 1510q-8 -14 -22 -27t-34 -24t-46 -18.5t-57 -8.5q-92 1 -149.5 24.5t-91 59t-49 77 t-22.5 78.5q4 7 4 13q0 7 -1 13t-0.5 12.5t5.5 13.5q9 19 29.5 36.5t49.5 31t65 20.5t75 6q50 -1 84.5 -13t58.5 -30t40.5 -39.5t31.5 -40.5q28 -44 38.5 -89.5t-9.5 -94.5z" />
<glyph unicode="&#xc9;" horiz-adv-x="1918" d="M385 0zM2273 364q-18 -29 -45 -55t-71 -48q-75 -34 -159 -60t-172.5 -48t-180 -40.5t-181.5 -37.5q-89 -15 -178.5 -30.5t-180 -28t-181 -19.5t-180.5 -6q-35 3 -70 7.5t-67.5 11t-61 16t-48.5 23.5q-24 13 -40 29t-27.5 33t-19.5 35t-16 35q-9 40 -9 81q0 42 6 84 t16.5 84.5t22.5 84.5q28 68 54 137.5t55.5 139t65.5 138.5t85 136t114 132t152 126q140 25 284 34.5t287 13.5q163 9 320 8.5t312 -6.5q64 -1 118 -14t90 -35t50.5 -51t-0.5 -62q-2 -21 -15.5 -40.5t-42.5 -36.5q-10 -10 -26 -17t-35 -12t-39.5 -7.5t-39.5 -2.5 q-227 9 -452.5 11.5t-455.5 -1.5q-32 -32 -60 -65t-41 -68q-2 -4 0 -7t0 -7q109 4 216.5 7t217.5 7t214 5.5t212 -0.5q67 2 127 -9t101 -32.5t57.5 -51.5t-2.5 -66q-9 -31 -46.5 -52.5t-89.5 -35t-110.5 -20.5t-109.5 -10q-158 -8 -315 -14.5t-315 -17.5q-72 -6 -141 -23.5 t-125 -43.5t-93 -59t-44 -70q-9 -23 -11 -44.5t1 -43t9.5 -42t12.5 -41.5q143 8 279.5 37.5t270.5 63.5q139 36 284.5 62.5t292.5 32.5q59 4 99 -7t61.5 -31t24 -45.5t-14.5 -50.5zM2019 1732q-2 -14 -14.5 -26.5t-17.5 -26.5q-33 -36 -77 -77.5t-102.5 -76.5t-132.5 -58 t-166 -22q-27 1 -48.5 7.5t-35.5 17t-20 23t-2 25.5q4 14 8.5 25.5t12.5 24.5q26 42 72 81.5t102 77.5q25 16 54 34t62.5 32t72 23.5t82.5 9.5q39 0 69.5 -7.5t51 -20.5t28.5 -30.5t1 -35.5z" />
<glyph unicode="&#xca;" horiz-adv-x="1918" d="M385 0zM2273 364q-18 -29 -45 -55t-71 -48q-75 -34 -159 -60t-172.5 -48t-180 -40.5t-181.5 -37.5q-89 -15 -178.5 -30.5t-180 -28t-181 -19.5t-180.5 -6q-35 3 -70 7.5t-67.5 11t-61 16t-48.5 23.5q-24 13 -40 29t-27.5 33t-19.5 35t-16 35q-9 40 -9 81q0 42 6 84 t16.5 84.5t22.5 84.5q28 68 54 137.5t55.5 139t65.5 138.5t85 136t114 132t152 126q140 25 284 34.5t287 13.5q163 9 320 8.5t312 -6.5q64 -1 118 -14t90 -35t50.5 -51t-0.5 -62q-2 -21 -15.5 -40.5t-42.5 -36.5q-10 -10 -26 -17t-35 -12t-39.5 -7.5t-39.5 -2.5 q-227 9 -452.5 11.5t-455.5 -1.5q-32 -32 -60 -65t-41 -68q-2 -4 0 -7t0 -7q109 4 216.5 7t217.5 7t214 5.5t212 -0.5q67 2 127 -9t101 -32.5t57.5 -51.5t-2.5 -66q-9 -31 -46.5 -52.5t-89.5 -35t-110.5 -20.5t-109.5 -10q-158 -8 -315 -14.5t-315 -17.5q-72 -6 -141 -23.5 t-125 -43.5t-93 -59t-44 -70q-9 -23 -11 -44.5t1 -43t9.5 -42t12.5 -41.5q143 8 279.5 37.5t270.5 63.5q139 36 284.5 62.5t292.5 32.5q59 4 99 -7t61.5 -31t24 -45.5t-14.5 -50.5zM2186 1522q-10 -17 -32 -32t-51 -26t-63 -17.5t-69 -6.5q-69 -1 -113 21t-62 51 q-16 33 -35.5 65.5t-36.5 65.5q-48 -35 -96.5 -68t-99.5 -68q-23 -14 -50.5 -28t-58.5 -25t-65 -17t-70 -4q-45 1 -76 12t-49 27t-24 36t-2 40q9 29 34.5 56t61 52t77 48.5t82.5 46.5q45 21 92 43t98 41t106.5 32t116.5 15q60 0 107.5 -11.5t86 -29t69.5 -39.5t58 -44 q25 -23 45 -47.5t32 -51t12.5 -54.5t-13.5 -57q-2 -7 -6 -13t-6 -13z" />
<glyph unicode="&#xcb;" horiz-adv-x="1918" d="M385 0zM2273 364q-18 -29 -45 -55t-71 -48q-75 -34 -159 -60t-172.5 -48t-180 -40.5t-181.5 -37.5q-89 -15 -178.5 -30.5t-180 -28t-181 -19.5t-180.5 -6q-35 3 -70 7.5t-67.5 11t-61 16t-48.5 23.5q-24 13 -40 29t-27.5 33t-19.5 35t-16 35q-9 40 -9 81q0 42 6 84 t16.5 84.5t22.5 84.5q28 68 54 137.5t55.5 139t65.5 138.5t85 136t114 132t152 126q140 25 284 34.5t287 13.5q163 9 320 8.5t312 -6.5q64 -1 118 -14t90 -35t50.5 -51t-0.5 -62q-2 -21 -15.5 -40.5t-42.5 -36.5q-10 -10 -26 -17t-35 -12t-39.5 -7.5t-39.5 -2.5 q-227 9 -452.5 11.5t-455.5 -1.5q-32 -32 -60 -65t-41 -68q-2 -4 0 -7t0 -7q109 4 216.5 7t217.5 7t214 5.5t212 -0.5q67 2 127 -9t101 -32.5t57.5 -51.5t-2.5 -66q-9 -31 -46.5 -52.5t-89.5 -35t-110.5 -20.5t-109.5 -10q-158 -8 -315 -14.5t-315 -17.5q-72 -6 -141 -23.5 t-125 -43.5t-93 -59t-44 -70q-9 -23 -11 -44.5t1 -43t9.5 -42t12.5 -41.5q143 8 279.5 37.5t270.5 63.5q139 36 284.5 62.5t292.5 32.5q59 4 99 -7t61.5 -31t24 -45.5t-14.5 -50.5zM2306 1546q-11 -26 -41 -49t-72 -40t-92.5 -26.5t-101.5 -9.5q-52 0 -97.5 11.5t-68.5 31.5 q-29 23 -41 50.5t2 57.5q10 31 41.5 58.5t76.5 51.5q38 21 87 37.5t102 12.5q67 0 113.5 -20t70.5 -47q26 -26 32 -57t-11 -62zM1601 1551q-3 -25 -27 -49t-62 -42t-87 -27.5t-101 -4.5q-57 3 -106 16t-80 35q-33 22 -46.5 50.5t-2.5 57.5q6 15 20 28.5t33 26t40.5 24 t44.5 22.5q45 17 97.5 33t109.5 18q63 4 103 -15t57 -45q14 -31 18 -63t-11 -65z" />
<glyph unicode="&#xcc;" horiz-adv-x="1713" d="M413 0zM2039 90q-14 -26 -50 -50t-96 -28q-269 -24 -532 -29.5t-526 3.5q-65 2 -130.5 9t-121.5 21.5t-98 37t-60 54.5q-11 13 -12 27.5t2 28.5q4 16 22.5 27.5t44.5 19.5t56 12t58 6q64 0 130 3t132 5q2 5 5.5 10.5t1.5 10.5q34 85 68 169t76 169q42 88 81 174.5 t74 174.5q13 36 23.5 73t8.5 73q-17 -2 -33.5 -4t-34.5 -2l-34 -3l-36 -3h-14q-69 0 -140 1t-134 14q-31 3 -56 11t-41 20t-21 27t5 32q36 35 94 59.5t126 41.5t141 30t139 25q152 22 303.5 34.5t302.5 9.5q80 0 154.5 -9t145.5 -20q33 -7 65.5 -16t60 -20t48.5 -25.5 t31 -32.5q-23 -35 -71 -67t-120 -47q-81 -8 -159.5 -15t-159.5 -16q-17 -33 -29 -65.5t-29 -65.5q-16 -35 -32 -69t-24 -69q-16 -42 -28 -81.5t-25 -81.5q-12 -40 -26.5 -80t-28.5 -80q-10 -36 -25 -73.5t-27.5 -75t-19 -74.5t1.5 -72l32 -2l29 2q27 -2 57.5 -0.5t59.5 1.5 q29 3 59 3.5t58 2.5q63 2 125.5 -2t113.5 -17q28 -15 41 -31t15.5 -32.5t-3 -32.5t-14.5 -31zM1659 1509q-8 -14 -22 -27t-34 -24t-46 -18.5t-57 -8.5q-92 1 -149.5 24.5t-91 59t-49 77t-22.5 78.5q4 7 4 13q0 7 -1 13t-0.5 12.5t5.5 13.5q9 19 29.5 36.5t49.5 31t65 20.5 t75 6q50 -1 84.5 -13t58.5 -30t40.5 -39.5t31.5 -40.5q28 -44 38.5 -89.5t-9.5 -94.5z" />
<glyph unicode="&#xcd;" horiz-adv-x="1713" d="M413 0zM2039 90q-14 -26 -50 -50t-96 -28q-269 -24 -532 -29.5t-526 3.5q-65 2 -130.5 9t-121.5 21.5t-98 37t-60 54.5q-11 13 -12 27.5t2 28.5q4 16 22.5 27.5t44.5 19.5t56 12t58 6q64 0 130 3t132 5q2 5 5.5 10.5t1.5 10.5q34 85 68 169t76 169q42 88 81 174.5 t74 174.5q13 36 23.5 73t8.5 73q-17 -2 -33.5 -4t-34.5 -2l-34 -3l-36 -3h-14q-69 0 -140 1t-134 14q-31 3 -56 11t-41 20t-21 27t5 32q36 35 94 59.5t126 41.5t141 30t139 25q152 22 303.5 34.5t302.5 9.5q80 0 154.5 -9t145.5 -20q33 -7 65.5 -16t60 -20t48.5 -25.5 t31 -32.5q-23 -35 -71 -67t-120 -47q-81 -8 -159.5 -15t-159.5 -16q-17 -33 -29 -65.5t-29 -65.5q-16 -35 -32 -69t-24 -69q-16 -42 -28 -81.5t-25 -81.5q-12 -40 -26.5 -80t-28.5 -80q-10 -36 -25 -73.5t-27.5 -75t-19 -74.5t1.5 -72l32 -2l29 2q27 -2 57.5 -0.5t59.5 1.5 q29 3 59 3.5t58 2.5q63 2 125.5 -2t113.5 -17q28 -15 41 -31t15.5 -32.5t-3 -32.5t-14.5 -31zM1909 1729q-2 -14 -14.5 -26.5t-17.5 -26.5q-33 -36 -77 -77.5t-102.5 -76.5t-132.5 -58t-166 -22q-27 1 -48.5 7.5t-35.5 17t-20 23t-2 25.5q4 14 8.5 25.5t12.5 24.5 q26 42 72 81.5t102 77.5q25 16 54 34t62.5 32t72 23.5t82.5 9.5q39 0 69.5 -7.5t51 -20.5t28.5 -30.5t1 -35.5z" />
<glyph unicode="&#xce;" horiz-adv-x="1713" d="M413 0zM2039 90q-14 -26 -50 -50t-96 -28q-269 -24 -532 -29.5t-526 3.5q-65 2 -130.5 9t-121.5 21.5t-98 37t-60 54.5q-11 13 -12 27.5t2 28.5q4 16 22.5 27.5t44.5 19.5t56 12t58 6q64 0 130 3t132 5q2 5 5.5 10.5t1.5 10.5q34 85 68 169t76 169q42 88 81 174.5 t74 174.5q13 36 23.5 73t8.5 73q-17 -2 -33.5 -4t-34.5 -2l-34 -3l-36 -3h-14q-69 0 -140 1t-134 14q-31 3 -56 11t-41 20t-21 27t5 32q36 35 94 59.5t126 41.5t141 30t139 25q152 22 303.5 34.5t302.5 9.5q80 0 154.5 -9t145.5 -20q33 -7 65.5 -16t60 -20t48.5 -25.5 t31 -32.5q-23 -35 -71 -67t-120 -47q-81 -8 -159.5 -15t-159.5 -16q-17 -33 -29 -65.5t-29 -65.5q-16 -35 -32 -69t-24 -69q-16 -42 -28 -81.5t-25 -81.5q-12 -40 -26.5 -80t-28.5 -80q-10 -36 -25 -73.5t-27.5 -75t-19 -74.5t1.5 -72l32 -2l29 2q27 -2 57.5 -0.5t59.5 1.5 q29 3 59 3.5t58 2.5q63 2 125.5 -2t113.5 -17q28 -15 41 -31t15.5 -32.5t-3 -32.5t-14.5 -31zM2054 1519q-10 -17 -32 -32t-51 -26t-63 -17.5t-69 -6.5q-69 -1 -113 21t-62 51q-16 33 -35.5 65.5t-36.5 65.5q-48 -35 -96.5 -68t-99.5 -68q-23 -14 -50.5 -28t-58.5 -25 t-65 -17t-70 -4q-45 1 -76 12t-49 27t-24 36t-2 40q9 29 34.5 56t61 52t77 48.5t82.5 46.5q45 21 92 43t98 41t106.5 32t116.5 15q60 0 107.5 -11.5t86 -29t69.5 -39.5t58 -44q25 -23 45 -47.5t32 -51t12.5 -54.5t-13.5 -57q-2 -7 -6 -13t-6 -13z" />
<glyph unicode="&#xcf;" horiz-adv-x="1713" d="M413 0zM2039 90q-14 -26 -50 -50t-96 -28q-269 -24 -532 -29.5t-526 3.5q-65 2 -130.5 9t-121.5 21.5t-98 37t-60 54.5q-11 13 -12 27.5t2 28.5q4 16 22.5 27.5t44.5 19.5t56 12t58 6q64 0 130 3t132 5q2 5 5.5 10.5t1.5 10.5q34 85 68 169t76 169q42 88 81 174.5 t74 174.5q13 36 23.5 73t8.5 73q-17 -2 -33.5 -4t-34.5 -2l-34 -3l-36 -3h-14q-69 0 -140 1t-134 14q-31 3 -56 11t-41 20t-21 27t5 32q36 35 94 59.5t126 41.5t141 30t139 25q152 22 303.5 34.5t302.5 9.5q80 0 154.5 -9t145.5 -20q33 -7 65.5 -16t60 -20t48.5 -25.5 t31 -32.5q-23 -35 -71 -67t-120 -47q-81 -8 -159.5 -15t-159.5 -16q-17 -33 -29 -65.5t-29 -65.5q-16 -35 -32 -69t-24 -69q-16 -42 -28 -81.5t-25 -81.5q-12 -40 -26.5 -80t-28.5 -80q-10 -36 -25 -73.5t-27.5 -75t-19 -74.5t1.5 -72l32 -2l29 2q27 -2 57.5 -0.5t59.5 1.5 q29 3 59 3.5t58 2.5q63 2 125.5 -2t113.5 -17q28 -15 41 -31t15.5 -32.5t-3 -32.5t-14.5 -31zM2130 1548q-11 -26 -41 -49t-72 -40t-92.5 -26.5t-101.5 -9.5q-52 0 -97.5 11.5t-68.5 31.5q-29 23 -41 50.5t2 57.5q10 31 41.5 58.5t76.5 51.5q38 21 87 37.5t102 12.5 q67 0 113.5 -20t70.5 -47q26 -26 32 -57t-11 -62zM1425 1553q-3 -25 -27 -49t-62 -42t-87 -27.5t-101 -4.5q-57 3 -106 16t-80 35q-33 22 -46.5 50.5t-2.5 57.5q6 15 20 28.5t33 26t40.5 24t44.5 22.5q45 17 97.5 33t109.5 18q63 4 103 -15t57 -45q14 -31 18 -63t-11 -65z " />
<glyph unicode="&#xd1;" horiz-adv-x="1942" d="M395 0zM2244 239q-18 -35 -50 -68.5t-76 -64.5q-45 -31 -106 -57.5t-136 -33.5q-72 0 -129.5 11t-104.5 29.5t-85 43.5t-70.5 52t-60.5 55t-56 53q-75 102 -150.5 203.5t-151.5 203.5q-28 -29 -44.5 -58t-25.5 -58q-14 -47 -27 -92.5t-22 -92.5q-9 -45 -18.5 -89.5 t-22.5 -89.5q-11 -26 -24.5 -58.5t-40.5 -61.5t-71.5 -48.5t-116.5 -19.5q-54 2 -97 14t-78 29q-23 22 -40 44t-24 48q-17 47 -20.5 96t2 99t17.5 100.5t27 100.5q13 35 24 69t29 69q38 100 97.5 196t132.5 193q37 39 69.5 82.5t71.5 85.5t90.5 79t128.5 64q84 -7 145.5 -27 t106 -49.5t76 -66t57 -75t47.5 -77t48 -72.5q29 -55 55.5 -110.5t55.5 -111.5q28 -55 65 -109.5t82 -105.5q10 14 15 30t10 30q23 64 36.5 128t21.5 128q13 63 22 126.5t30 126.5q14 37 35.5 75t63.5 73q13 16 36 31t52.5 25.5t63.5 16t69 2.5q90 -5 147 -29.5t86.5 -60.5 t34.5 -79t-8 -83q-13 -49 -26 -98.5t-29 -98.5q-15 -49 -31.5 -97t-33.5 -99q-19 -60 -41.5 -120t-41.5 -121q-18 -57 -40 -114.5t-51 -115.5zM2565 1626q-2 -19 -18.5 -37t-43 -34t-61 -28.5t-72.5 -19.5q-122 -27 -245 -51t-249 -26q-54 0 -101.5 10t-79.5 29 q-23 14 -54 25.5t-71 13.5q-54 2 -102.5 -11t-93.5 -30q-27 -10 -54 -21.5t-62 -15.5q-48 2 -87 14t-69 30l-26 20t-23 21t-14.5 22.5t0.5 25.5q5 24 28.5 46t58.5 40t77.5 32.5t86.5 24.5q85 23 177.5 37.5t182.5 14.5q52 2 97 -8t77 -27q23 -14 55 -24.5t72 -12.5 q44 0 89.5 2.5t89.5 11.5q36 11 74 19.5t71 22.5q20 7 40.5 8t41.5 1q45 -3 83 -14.5t66 -28t44 -38t15 -44.5z" />
<glyph unicode="&#xd2;" horiz-adv-x="1772" d="M425 0zM2417 768q-23 -63 -58 -127t-83.5 -126t-111.5 -122.5t-142 -117.5q-74 -56 -169 -109.5t-206 -95t-235.5 -66.5t-257.5 -23q-130 -1 -234.5 22t-184.5 62t-137 89.5t-91 103.5q-73 109 -82 229t39 243q44 114 139 225t250 209q76 49 171.5 90.5t203.5 71.5 t223.5 46t231.5 14q113 2 214.5 -12.5t185.5 -41.5t149 -66t106 -87q43 -45 67 -95t32.5 -102.5t2 -106t-22.5 -107.5zM1845 858q8 25 15 54t6.5 58.5t-10.5 56.5t-34.5 48t-66.5 34.5t-106 15.5q-109 -2 -194.5 -24t-151.5 -57t-114 -80t-82.5 -93t-57.5 -96t-39 -89 q-20 -57 -33 -114.5t-11 -112.5q3 -29 10.5 -58.5t26.5 -53.5t54 -40t93 -19q90 1 164.5 23t134.5 56t106.5 74t79.5 76q80 84 130.5 169.5t79.5 171.5zM1738 1492q-8 -14 -22 -27t-34 -24t-46 -18.5t-57 -8.5q-92 1 -149.5 24.5t-91 59t-49 77t-22.5 78.5q4 7 4 13 q0 7 -1 13t-0.5 12.5t5.5 13.5q9 19 29.5 36.5t49.5 31t65 20.5t75 6q50 -1 84.5 -13t58.5 -30t40.5 -39.5t31.5 -40.5q28 -44 38.5 -89.5t-9.5 -94.5z" />
<glyph unicode="&#xd3;" horiz-adv-x="1772" d="M425 0zM2417 768q-23 -63 -58 -127t-83.5 -126t-111.5 -122.5t-142 -117.5q-74 -56 -169 -109.5t-206 -95t-235.5 -66.5t-257.5 -23q-130 -1 -234.5 22t-184.5 62t-137 89.5t-91 103.5q-73 109 -82 229t39 243q44 114 139 225t250 209q76 49 171.5 90.5t203.5 71.5 t223.5 46t231.5 14q113 2 214.5 -12.5t185.5 -41.5t149 -66t106 -87q43 -45 67 -95t32.5 -102.5t2 -106t-22.5 -107.5zM1845 858q8 25 15 54t6.5 58.5t-10.5 56.5t-34.5 48t-66.5 34.5t-106 15.5q-109 -2 -194.5 -24t-151.5 -57t-114 -80t-82.5 -93t-57.5 -96t-39 -89 q-20 -57 -33 -114.5t-11 -112.5q3 -29 10.5 -58.5t26.5 -53.5t54 -40t93 -19q90 1 164.5 23t134.5 56t106.5 74t79.5 76q80 84 130.5 169.5t79.5 171.5zM1969 1724q-2 -14 -14.5 -26.5t-17.5 -26.5q-33 -36 -77 -77.5t-102.5 -76.5t-132.5 -58t-166 -22q-27 1 -48.5 7.5 t-35.5 17t-20 23t-2 25.5q4 14 8.5 25.5t12.5 24.5q26 42 72 81.5t102 77.5q25 16 54 34t62.5 32t72 23.5t82.5 9.5q39 0 69.5 -7.5t51 -20.5t28.5 -30.5t1 -35.5z" />
<glyph unicode="&#xd4;" horiz-adv-x="1772" d="M425 0zM2417 768q-23 -63 -58 -127t-83.5 -126t-111.5 -122.5t-142 -117.5q-74 -56 -169 -109.5t-206 -95t-235.5 -66.5t-257.5 -23q-130 -1 -234.5 22t-184.5 62t-137 89.5t-91 103.5q-73 109 -82 229t39 243q44 114 139 225t250 209q76 49 171.5 90.5t203.5 71.5 t223.5 46t231.5 14q113 2 214.5 -12.5t185.5 -41.5t149 -66t106 -87q43 -45 67 -95t32.5 -102.5t2 -106t-22.5 -107.5zM1845 858q8 25 15 54t6.5 58.5t-10.5 56.5t-34.5 48t-66.5 34.5t-106 15.5q-109 -2 -194.5 -24t-151.5 -57t-114 -80t-82.5 -93t-57.5 -96t-39 -89 q-20 -57 -33 -114.5t-11 -112.5q3 -29 10.5 -58.5t26.5 -53.5t54 -40t93 -19q90 1 164.5 23t134.5 56t106.5 74t79.5 76q80 84 130.5 169.5t79.5 171.5zM2128 1524q-10 -17 -32 -32t-51 -26t-63 -17.5t-69 -6.5q-69 -1 -113 21t-62 51q-16 33 -35.5 65.5t-36.5 65.5 q-48 -35 -96.5 -68t-99.5 -68q-23 -14 -50.5 -28t-58.5 -25t-65 -17t-70 -4q-45 1 -76 12t-49 27t-24 36t-2 40q9 29 34.5 56t61 52t77 48.5t82.5 46.5q45 21 92 43t98 41t106.5 32t116.5 15q60 0 107.5 -11.5t86 -29t69.5 -39.5t58 -44q25 -23 45 -47.5t32 -51t12.5 -54.5 t-13.5 -57q-2 -7 -6 -13t-6 -13z" />
<glyph unicode="&#xd5;" horiz-adv-x="1772" d="M425 0zM2417 768q-23 -63 -58 -127t-83.5 -126t-111.5 -122.5t-142 -117.5q-74 -56 -169 -109.5t-206 -95t-235.5 -66.5t-257.5 -23q-130 -1 -234.5 22t-184.5 62t-137 89.5t-91 103.5q-73 109 -82 229t39 243q44 114 139 225t250 209q76 49 171.5 90.5t203.5 71.5 t223.5 46t231.5 14q113 2 214.5 -12.5t185.5 -41.5t149 -66t106 -87q43 -45 67 -95t32.5 -102.5t2 -106t-22.5 -107.5zM1845 858q8 25 15 54t6.5 58.5t-10.5 56.5t-34.5 48t-66.5 34.5t-106 15.5q-109 -2 -194.5 -24t-151.5 -57t-114 -80t-82.5 -93t-57.5 -96t-39 -89 q-20 -57 -33 -114.5t-11 -112.5q3 -29 10.5 -58.5t26.5 -53.5t54 -40t93 -19q90 1 164.5 23t134.5 56t106.5 74t79.5 76q80 84 130.5 169.5t79.5 171.5zM2569 1625q-2 -19 -18.5 -37t-43 -34t-61 -28.5t-72.5 -19.5q-122 -27 -245 -51t-249 -26q-54 0 -101.5 10t-79.5 29 q-23 14 -54 25.5t-71 13.5q-54 2 -102.5 -11t-93.5 -30q-27 -10 -54 -21.5t-62 -15.5q-48 2 -87 14t-69 30l-26 20t-23 21t-14.5 22.5t0.5 25.5q5 24 28.5 46t58.5 40t77.5 32.5t86.5 24.5q85 23 177.5 37.5t182.5 14.5q52 2 97 -8t77 -27q23 -14 55 -24.5t72 -12.5 q44 0 89.5 2.5t89.5 11.5q36 11 74 19.5t71 22.5q20 7 40.5 8t41.5 1q45 -3 83 -14.5t66 -28t44 -38t15 -44.5z" />
<glyph unicode="&#xd6;" horiz-adv-x="1772" d="M425 0zM2417 768q-23 -63 -58 -127t-83.5 -126t-111.5 -122.5t-142 -117.5q-74 -56 -169 -109.5t-206 -95t-235.5 -66.5t-257.5 -23q-130 -1 -234.5 22t-184.5 62t-137 89.5t-91 103.5q-73 109 -82 229t39 243q44 114 139 225t250 209q76 49 171.5 90.5t203.5 71.5 t223.5 46t231.5 14q113 2 214.5 -12.5t185.5 -41.5t149 -66t106 -87q43 -45 67 -95t32.5 -102.5t2 -106t-22.5 -107.5zM1845 858q8 25 15 54t6.5 58.5t-10.5 56.5t-34.5 48t-66.5 34.5t-106 15.5q-109 -2 -194.5 -24t-151.5 -57t-114 -80t-82.5 -93t-57.5 -96t-39 -89 q-20 -57 -33 -114.5t-11 -112.5q3 -29 10.5 -58.5t26.5 -53.5t54 -40t93 -19q90 1 164.5 23t134.5 56t106.5 74t79.5 76q80 84 130.5 169.5t79.5 171.5zM2325 1548q-11 -26 -41 -49t-72 -40t-92.5 -26.5t-101.5 -9.5q-52 0 -97.5 11.5t-68.5 31.5q-29 23 -41 50.5t2 57.5 q10 31 41.5 58.5t76.5 51.5q38 21 87 37.5t102 12.5q67 0 113.5 -20t70.5 -47q26 -26 32 -57t-11 -62zM1620 1553q-3 -25 -27 -49t-62 -42t-87 -27.5t-101 -4.5q-57 3 -106 16t-80 35q-33 22 -46.5 50.5t-2.5 57.5q6 15 20 28.5t33 26t40.5 24t44.5 22.5q45 17 97.5 33 t109.5 18q63 4 103 -15t57 -45q14 -31 18 -63t-11 -65z" />
<glyph unicode="&#xd7;" horiz-adv-x="1481" d="M1739 850q-9 -18 -23.5 -37t-51.5 -30q-62 -23 -123 -48.5t-124 -48.5q35 -17 69.5 -32.5t69.5 -32.5q34 -15 48 -38t-3 -47q-8 -23 -35.5 -42t-58.5 -38q-29 -18 -67 -31.5t-83 -18.5q-59 4 -103.5 18t-81.5 33.5t-68 42t-63 43.5q-42 -22 -80.5 -45.5t-83.5 -45.5 q-40 -20 -92.5 -32.5t-106.5 -9.5q-47 0 -84.5 8.5t-71.5 21.5q-32 12 -54.5 29t-20.5 40q16 29 51.5 54t81 47t96 42t97.5 39q-30 19 -64 39t-60.5 42t-40.5 46.5t-4 53.5q14 21 41.5 39.5t63.5 33t77.5 23.5t85.5 12q57 -2 100 -16t69 -37q29 -23 55.5 -48t55.5 -48 q47 19 95 40.5t98.5 40t105 32.5t114.5 17q82 -7 129.5 -38t44.5 -73z" />
<glyph unicode="&#xd8;" horiz-adv-x="2236" d="M2679 1348q-17 -27 -42.5 -52t-56 -50t-65.5 -48.5t-69 -47.5q64 -88 71.5 -185.5t-25.5 -196.5q-48 -129 -144.5 -253.5t-253.5 -239.5q-74 -56 -169 -110t-206 -96t-236.5 -66.5t-260.5 -22.5q-133 -2 -244.5 23t-194.5 67q-29 -26 -64 -51t-62 -51q-15 -11 -33.5 -22 t-40 -20t-46 -14.5t-52.5 -3.5q-52 5 -97 18t-76.5 32.5t-46.5 44t-9 52.5q24 31 58.5 60.5t74.5 57.5t82 56t80 56q-59 106 -63.5 218t38.5 227q22 57 55.5 114.5t81.5 113.5t110.5 109t142.5 102q75 51 171 93t205 71.5t226.5 45t234.5 12.5q103 0 198 -11.5t176 -36.5 q34 19 65.5 40t65.5 41.5t72.5 37.5t86.5 28q54 -7 98.5 -18.5t82.5 -29.5q18 -9 33.5 -19.5t27 -22.5t17.5 -25t3 -27zM1790 1120q-18 1 -35 3t-35 3q-110 -2 -195.5 -23.5t-151 -56.5t-113.5 -80t-82.5 -93.5t-57.5 -97t-38 -89.5q-5 -15 -10 -29.5t-7 -30.5 q179 127 360 248.5t365 245.5zM1884 787q-190 -120 -376 -239.5t-371 -240.5q18 -6 38.5 -11.5t46.5 -7.5q81 0 148 18.5t122.5 47.5t99.5 64t79 67q76 73 125.5 148.5t87.5 153.5z" />
<glyph unicode="&#xd9;" horiz-adv-x="1717" d="M449 0zM2410 1201q-7 -11 -16.5 -23t-21.5 -23q-24 -13 -39.5 -28.5t-35.5 -29.5q-18 -28 -30.5 -55t-17.5 -56q-13 -35 -20 -71t-17 -72q-13 -36 -19.5 -70t-21.5 -70q-36 -98 -91 -195t-146 -192q-64 -67 -148.5 -128.5t-185.5 -108t-217.5 -74t-245.5 -25.5 q-97 -2 -184.5 10.5t-161.5 35.5t-132.5 56t-97.5 72q-43 37 -68.5 79t-36 86.5t-7.5 90.5t17 93q20 62 44.5 122.5t50.5 122.5q29 61 57.5 122t57.5 123q10 29 16.5 57.5t3.5 57.5q8 28 9.5 56t14.5 56q17 31 60.5 57.5t96.5 46.5q60 18 121 31.5t127 18.5q60 -12 98.5 -32 t59 -46.5t27 -57t4 -62.5t-11.5 -64t-19 -61q-26 -71 -59 -141.5t-63 -141.5q-32 -72 -64 -143.5t-58 -143.5q-4 -19 -10.5 -41.5t-10.5 -45t-2.5 -44.5t13 -40.5t37 -32t69.5 -19.5q52 0 96.5 12t80.5 30.5t63.5 41.5t46.5 45q21 24 37 49t29 49.5t24 49.5l22 50 q23 52 43.5 102t40.5 101q20 49 37.5 98.5t40.5 98.5t49 96t59 95q21 29 51.5 62t74 60.5t100.5 44t129 12.5q58 -4 100 -21t77 -37q34 -20 57 -43t17 -53zM1761 1510q-8 -14 -22 -27t-34 -24t-46 -18.5t-57 -8.5q-92 1 -149.5 24.5t-91 59t-49 77t-22.5 78.5q4 7 4 13 q0 7 -1 13t-0.5 12.5t5.5 13.5q9 19 29.5 36.5t49.5 31t65 20.5t75 6q50 -1 84.5 -13t58.5 -30t40.5 -39.5t31.5 -40.5q28 -44 38.5 -89.5t-9.5 -94.5z" />
<glyph unicode="&#xda;" horiz-adv-x="1717" d="M449 0zM2410 1201q-7 -11 -16.5 -23t-21.5 -23q-24 -13 -39.5 -28.5t-35.5 -29.5q-18 -28 -30.5 -55t-17.5 -56q-13 -35 -20 -71t-17 -72q-13 -36 -19.5 -70t-21.5 -70q-36 -98 -91 -195t-146 -192q-64 -67 -148.5 -128.5t-185.5 -108t-217.5 -74t-245.5 -25.5 q-97 -2 -184.5 10.5t-161.5 35.5t-132.5 56t-97.5 72q-43 37 -68.5 79t-36 86.5t-7.5 90.5t17 93q20 62 44.5 122.5t50.5 122.5q29 61 57.5 122t57.5 123q10 29 16.5 57.5t3.5 57.5q8 28 9.5 56t14.5 56q17 31 60.5 57.5t96.5 46.5q60 18 121 31.5t127 18.5q60 -12 98.5 -32 t59 -46.5t27 -57t4 -62.5t-11.5 -64t-19 -61q-26 -71 -59 -141.5t-63 -141.5q-32 -72 -64 -143.5t-58 -143.5q-4 -19 -10.5 -41.5t-10.5 -45t-2.5 -44.5t13 -40.5t37 -32t69.5 -19.5q52 0 96.5 12t80.5 30.5t63.5 41.5t46.5 45q21 24 37 49t29 49.5t24 49.5l22 50 q23 52 43.5 102t40.5 101q20 49 37.5 98.5t40.5 98.5t49 96t59 95q21 29 51.5 62t74 60.5t100.5 44t129 12.5q58 -4 100 -21t77 -37q34 -20 57 -43t17 -53zM1971 1721q-2 -14 -14.5 -26.5t-17.5 -26.5q-33 -36 -77 -77.5t-102.5 -76.5t-132.5 -58t-166 -22q-27 1 -48.5 7.5 t-35.5 17t-20 23t-2 25.5q4 14 8.5 25.5t12.5 24.5q26 42 72 81.5t102 77.5q25 16 54 34t62.5 32t72 23.5t82.5 9.5q39 0 69.5 -7.5t51 -20.5t28.5 -30.5t1 -35.5z" />
<glyph unicode="&#xdb;" horiz-adv-x="1717" d="M449 0zM2410 1201q-7 -11 -16.5 -23t-21.5 -23q-24 -13 -39.5 -28.5t-35.5 -29.5q-18 -28 -30.5 -55t-17.5 -56q-13 -35 -20 -71t-17 -72q-13 -36 -19.5 -70t-21.5 -70q-36 -98 -91 -195t-146 -192q-64 -67 -148.5 -128.5t-185.5 -108t-217.5 -74t-245.5 -25.5 q-97 -2 -184.5 10.5t-161.5 35.5t-132.5 56t-97.5 72q-43 37 -68.5 79t-36 86.5t-7.5 90.5t17 93q20 62 44.5 122.5t50.5 122.5q29 61 57.5 122t57.5 123q10 29 16.5 57.5t3.5 57.5q8 28 9.5 56t14.5 56q17 31 60.5 57.5t96.5 46.5q60 18 121 31.5t127 18.5q60 -12 98.5 -32 t59 -46.5t27 -57t4 -62.5t-11.5 -64t-19 -61q-26 -71 -59 -141.5t-63 -141.5q-32 -72 -64 -143.5t-58 -143.5q-4 -19 -10.5 -41.5t-10.5 -45t-2.5 -44.5t13 -40.5t37 -32t69.5 -19.5q52 0 96.5 12t80.5 30.5t63.5 41.5t46.5 45q21 24 37 49t29 49.5t24 49.5l22 50 q23 52 43.5 102t40.5 101q20 49 37.5 98.5t40.5 98.5t49 96t59 95q21 29 51.5 62t74 60.5t100.5 44t129 12.5q58 -4 100 -21t77 -37q34 -20 57 -43t17 -53zM2124 1522q-10 -17 -32 -32t-51 -26t-63 -17.5t-69 -6.5q-69 -1 -113 21t-62 51q-16 33 -35.5 65.5t-36.5 65.5 q-48 -35 -96.5 -68t-99.5 -68q-23 -14 -50.5 -28t-58.5 -25t-65 -17t-70 -4q-45 1 -76 12t-49 27t-24 36t-2 40q9 29 34.5 56t61 52t77 48.5t82.5 46.5q45 21 92 43t98 41t106.5 32t116.5 15q60 0 107.5 -11.5t86 -29t69.5 -39.5t58 -44q25 -23 45 -47.5t32 -51t12.5 -54.5 t-13.5 -57q-2 -7 -6 -13t-6 -13z" />
<glyph unicode="&#xdc;" horiz-adv-x="1717" d="M449 0zM2410 1201q-7 -11 -16.5 -23t-21.5 -23q-24 -13 -39.5 -28.5t-35.5 -29.5q-18 -28 -30.5 -55t-17.5 -56q-13 -35 -20 -71t-17 -72q-13 -36 -19.5 -70t-21.5 -70q-36 -98 -91 -195t-146 -192q-64 -67 -148.5 -128.5t-185.5 -108t-217.5 -74t-245.5 -25.5 q-97 -2 -184.5 10.5t-161.5 35.5t-132.5 56t-97.5 72q-43 37 -68.5 79t-36 86.5t-7.5 90.5t17 93q20 62 44.5 122.5t50.5 122.5q29 61 57.5 122t57.5 123q10 29 16.5 57.5t3.5 57.5q8 28 9.5 56t14.5 56q17 31 60.5 57.5t96.5 46.5q60 18 121 31.5t127 18.5q60 -12 98.5 -32 t59 -46.5t27 -57t4 -62.5t-11.5 -64t-19 -61q-26 -71 -59 -141.5t-63 -141.5q-32 -72 -64 -143.5t-58 -143.5q-4 -19 -10.5 -41.5t-10.5 -45t-2.5 -44.5t13 -40.5t37 -32t69.5 -19.5q52 0 96.5 12t80.5 30.5t63.5 41.5t46.5 45q21 24 37 49t29 49.5t24 49.5l22 50 q23 52 43.5 102t40.5 101q20 49 37.5 98.5t40.5 98.5t49 96t59 95q21 29 51.5 62t74 60.5t100.5 44t129 12.5q58 -4 100 -21t77 -37q34 -20 57 -43t17 -53zM2263 1550q-11 -26 -41 -49t-72 -40t-92.5 -26.5t-101.5 -9.5q-52 0 -97.5 11.5t-68.5 31.5q-29 23 -41 50.5t2 57.5 q10 31 41.5 58.5t76.5 51.5q38 21 87 37.5t102 12.5q67 0 113.5 -20t70.5 -47q26 -26 32 -57t-11 -62zM1558 1555q-3 -25 -27 -49t-62 -42t-87 -27.5t-101 -4.5q-57 3 -106 16t-80 35q-33 22 -46.5 50.5t-2.5 57.5q6 15 20 28.5t33 26t40.5 24t44.5 22.5q45 17 97.5 33 t109.5 18q63 4 103 -15t57 -45q14 -31 18 -63t-11 -65z" />
<glyph unicode="&#xdd;" horiz-adv-x="1608" d="M580 0zM2391 1205q-12 -36 -40 -71t-66 -68t-82.5 -64.5t-89.5 -62.5q-106 -71 -212.5 -141.5t-205.5 -143.5q-102 -92 -201.5 -182.5t-187.5 -184.5q-45 -45 -87.5 -89.5t-90.5 -89.5q-24 -19 -50.5 -40t-59 -39t-71 -30.5t-85.5 -13.5q-76 -2 -135.5 13.5t-97 42 t-49 61t8.5 70.5q18 52 58.5 102t93 99t113 96t119.5 94q-88 12 -151.5 38.5t-108 62.5t-70.5 78t-39 84q-28 84 -14 170.5t59 174.5q10 29 38 57.5t70.5 52t97.5 38.5t120 17q53 4 88.5 -5.5t57.5 -27t32 -40t11 -43.5q-9 -62 -18.5 -123.5t-17.5 -123.5q1 -19 3.5 -42 t14.5 -42.5t38 -33.5t74 -15q35 4 61 14.5t47 24t40 28t40 27.5q37 31 72 62t73 62q48 38 89.5 77t85.5 78q22 17 44 35t45 35t49.5 33t59.5 29q38 13 84 20t89 2q58 -5 106.5 -19t83 -35.5t51.5 -49t13 -58.5zM1868 1721q-2 -14 -14.5 -26.5t-17.5 -26.5q-33 -36 -77 -77.5 t-102.5 -76.5t-132.5 -58t-166 -22q-27 1 -48.5 7.5t-35.5 17t-20 23t-2 25.5q4 14 8.5 25.5t12.5 24.5q26 42 72 81.5t102 77.5q25 16 54 34t62.5 32t72 23.5t82.5 9.5q39 0 69.5 -7.5t51 -20.5t28.5 -30.5t1 -35.5z" />
<glyph unicode="&#xde;" d="M2227 748q-15 -51 -58 -99.5t-107 -92.5t-144.5 -81.5t-171.5 -66.5q-187 -66 -392 -101.5t-414 -50.5q-6 -9 -10 -18t-7 -18q-10 -28 -11 -55t-6 -56l-10 -28t-13.5 -28t-21 -27.5t-32.5 -25.5q-38 -17 -75 -25t-72 -11t-68 -2t-63 4q-54 5 -90 21t-56 38.5t-24.5 48.5 t3.5 52l16 54l16 54q13 28 23 57t18 57q11 26 14.5 51.5t9.5 51.5q42 185 108.5 367t159.5 368q16 33 42 70t67 70t99.5 57.5t138.5 33.5q44 0 86 -3.5t71 -17.5q32 -11 47 -27.5t7 -37.5q-19 -45 -37.5 -90.5t-32.5 -90.5q74 16 148 18l148 4q77 -1 151 -5.5t140 -16.5 q126 -17 215.5 -57.5t141 -95.5t64 -119.5t-17.5 -129.5zM1702 773q8 26 -4 48l-24 44q-17 21 -50.5 33.5t-78.5 14.5q-75 0 -151.5 -3.5t-151.5 -18.5q-36 -9 -61.5 -23.5t-43 -31.5t-28.5 -35.5t-18 -35.5q-10 -29 -26 -60l-21 -56q-8 -23 -11.5 -47t-5.5 -47 q102 9 203 27t197 44q43 12 87.5 27.5t83 33.5t66 39.5t38.5 46.5z" />
<glyph unicode="&#xdf;" horiz-adv-x="2195" d="M2406 440q-18 -58 -66.5 -110.5t-120.5 -99.5t-164 -87t-195 -71t-214 -52.5t-221 -31.5q-42 -5 -85 -10t-86 -4q-51 -2 -97 5.5t-77.5 23t-44 37.5t3.5 49q4 25 27.5 49t60 43.5t84 34t98.5 21.5q38 4 74 11.5t74 12.5q70 12 140.5 31t129 45.5t100 59t54.5 71.5 q11 32 -2 61.5t-46 52.5q-27 24 -72.5 42t-111.5 16q-39 -2 -77.5 -6t-76.5 -8q-38 -5 -76 -9t-76 -4q-45 -2 -79 8t-55 26.5t-27 37t4 40.5q7 26 31.5 51.5t61.5 46.5t85.5 36.5t103.5 22.5q63 12 127.5 24.5t119.5 35.5q58 19 86 49.5t39 59.5q4 17 1 33t-30 25 q-29 8 -59.5 9.5t-63.5 1.5q-75 0 -150.5 -2t-153.5 -14q-38 -7 -68.5 -20t-54.5 -29t-41 -34t-29 -36q-28 -44 -45.5 -87t-37.5 -87q-48 -115 -92.5 -227t-80.5 -227q-26 -78 -43.5 -154t-19.5 -152q-4 -24 -5.5 -46.5t-8.5 -47.5q-8 -24 -23 -48.5t-48 -46.5 q-11 -12 -28.5 -21t-39.5 -15.5t-46 -9.5t-48 -2q-100 7 -162.5 40.5t-95.5 77.5q-31 42 -39 88t3 94q14 47 31 93.5t34 94.5q11 19 18.5 38l15 38t16.5 38t23 38q30 54 61.5 108.5t51.5 109.5q20 48 32.5 95t30.5 95q17 48 34 93.5t40 92.5q22 42 52 85t87 80 q79 52 183.5 85t220.5 52t236.5 26t230.5 8q69 -1 139 -3.5t137 -9.5t128.5 -19.5t114.5 -32.5q56 -18 96.5 -44t64.5 -56.5t30 -65.5t-7 -71q-8 -35 -33 -67.5t-61 -63.5t-80.5 -60.5t-90.5 -57.5q87 -31 143.5 -78t85.5 -98q26 -51 29.5 -105.5t-19.5 -111.5z" />
<glyph unicode="&#xe0;" horiz-adv-x="1608" d="M295 3zM2154 169q-12 -27 -39.5 -54t-67.5 -48.5t-91 -36.5t-111 -18q-35 -3 -70 -3q-34 0 -65 3.5t-57 12t-42 23.5q-17 12 -27 26t-14.5 29.5t-5.5 31.5t-1 32q8 36 8.5 73t7.5 72q-45 -1 -86 -0.5t-85 0.5t-87 2t-87 0q-72 0 -142 -2t-145 -8q-44 -48 -82.5 -94 t-81.5 -94q-18 -18 -43 -39t-56.5 -38t-70.5 -27.5t-86 -8.5q-69 3 -124 20t-84 45q-18 29 -23.5 62t3.5 65q18 58 47.5 115.5t66 114.5t78.5 114t84 113q90 111 185.5 221.5t214.5 217.5q56 46 123 97t149 94t179.5 72.5t215.5 33.5q105 0 180.5 -22.5t126.5 -59t79.5 -82 t39.5 -89.5q27 -89 33 -180t3 -184q-2 -91 -1.5 -179.5t20.5 -176.5q14 -30 27.5 -59.5t20.5 -60.5t4 -62t-21 -64zM1608 570q10 130 15 261q0 31 -1 62t-6.5 61.5t-17 60t-33.5 57.5q-91 -56 -158.5 -117.5t-119 -125.5t-91.5 -129.5t-76 -129.5q123 0 243 -1t245 1z M1639 1510q-8 -14 -22 -27t-34 -24t-46 -18.5t-57 -8.5q-92 1 -149.5 24.5t-91 59t-49 77t-22.5 78.5q4 7 4 13q0 7 -1 13t-0.5 12.5t5.5 13.5q9 19 29.5 36.5t49.5 31t65 20.5t75 6q50 -1 84.5 -13t58.5 -30t40.5 -39.5t31.5 -40.5q28 -44 38.5 -89.5t-9.5 -94.5z" />
<glyph unicode="&#xe1;" horiz-adv-x="1608" d="M295 3zM2154 169q-12 -27 -39.5 -54t-67.5 -48.5t-91 -36.5t-111 -18q-35 -3 -70 -3q-34 0 -65 3.5t-57 12t-42 23.5q-17 12 -27 26t-14.5 29.5t-5.5 31.5t-1 32q8 36 8.5 73t7.5 72q-45 -1 -86 -0.5t-85 0.5t-87 2t-87 0q-72 0 -142 -2t-145 -8q-44 -48 -82.5 -94 t-81.5 -94q-18 -18 -43 -39t-56.5 -38t-70.5 -27.5t-86 -8.5q-69 3 -124 20t-84 45q-18 29 -23.5 62t3.5 65q18 58 47.5 115.5t66 114.5t78.5 114t84 113q90 111 185.5 221.5t214.5 217.5q56 46 123 97t149 94t179.5 72.5t215.5 33.5q105 0 180.5 -22.5t126.5 -59t79.5 -82 t39.5 -89.5q27 -89 33 -180t3 -184q-2 -91 -1.5 -179.5t20.5 -176.5q14 -30 27.5 -59.5t20.5 -60.5t4 -62t-21 -64zM1608 570q10 130 15 261q0 31 -1 62t-6.5 61.5t-17 60t-33.5 57.5q-91 -56 -158.5 -117.5t-119 -125.5t-91.5 -129.5t-76 -129.5q123 0 243 -1t245 1z M1928 1727q-2 -14 -14.5 -26.5t-17.5 -26.5q-33 -36 -77 -77.5t-102.5 -76.5t-132.5 -58t-166 -22q-27 1 -48.5 7.5t-35.5 17t-20 23t-2 25.5q4 14 8.5 25.5t12.5 24.5q26 42 72 81.5t102 77.5q25 16 54 34t62.5 32t72 23.5t82.5 9.5q39 0 69.5 -7.5t51 -20.5t28.5 -30.5 t1 -35.5z" />
<glyph unicode="&#xe2;" horiz-adv-x="1608" d="M295 3zM2154 169q-12 -27 -39.5 -54t-67.5 -48.5t-91 -36.5t-111 -18q-35 -3 -70 -3q-34 0 -65 3.5t-57 12t-42 23.5q-17 12 -27 26t-14.5 29.5t-5.5 31.5t-1 32q8 36 8.5 73t7.5 72q-45 -1 -86 -0.5t-85 0.5t-87 2t-87 0q-72 0 -142 -2t-145 -8q-44 -48 -82.5 -94 t-81.5 -94q-18 -18 -43 -39t-56.5 -38t-70.5 -27.5t-86 -8.5q-69 3 -124 20t-84 45q-18 29 -23.5 62t3.5 65q18 58 47.5 115.5t66 114.5t78.5 114t84 113q90 111 185.5 221.5t214.5 217.5q56 46 123 97t149 94t179.5 72.5t215.5 33.5q105 0 180.5 -22.5t126.5 -59t79.5 -82 t39.5 -89.5q27 -89 33 -180t3 -184q-2 -91 -1.5 -179.5t20.5 -176.5q14 -30 27.5 -59.5t20.5 -60.5t4 -62t-21 -64zM1608 570q10 130 15 261q0 31 -1 62t-6.5 61.5t-17 60t-33.5 57.5q-91 -56 -158.5 -117.5t-119 -125.5t-91.5 -129.5t-76 -129.5q123 0 243 -1t245 1z M2082 1517q-10 -17 -32 -32t-51 -26t-63 -17.5t-69 -6.5q-69 -1 -113 21t-62 51q-16 33 -35.5 65.5t-36.5 65.5q-48 -35 -96.5 -68t-99.5 -68q-23 -14 -50.5 -28t-58.5 -25t-65 -17t-70 -4q-45 1 -76 12t-49 27t-24 36t-2 40q9 29 34.5 56t61 52t77 48.5t82.5 46.5 q45 21 92 43t98 41t106.5 32t116.5 15q60 0 107.5 -11.5t86 -29t69.5 -39.5t58 -44q25 -23 45 -47.5t32 -51t12.5 -54.5t-13.5 -57q-2 -7 -6 -13t-6 -13z" />
<glyph unicode="&#xe3;" horiz-adv-x="1608" d="M295 3zM2154 169q-12 -27 -39.5 -54t-67.5 -48.5t-91 -36.5t-111 -18q-35 -3 -70 -3q-34 0 -65 3.5t-57 12t-42 23.5q-17 12 -27 26t-14.5 29.5t-5.5 31.5t-1 32q8 36 8.5 73t7.5 72q-45 -1 -86 -0.5t-85 0.5t-87 2t-87 0q-72 0 -142 -2t-145 -8q-44 -48 -82.5 -94 t-81.5 -94q-18 -18 -43 -39t-56.5 -38t-70.5 -27.5t-86 -8.5q-69 3 -124 20t-84 45q-18 29 -23.5 62t3.5 65q18 58 47.5 115.5t66 114.5t78.5 114t84 113q90 111 185.5 221.5t214.5 217.5q56 46 123 97t149 94t179.5 72.5t215.5 33.5q105 0 180.5 -22.5t126.5 -59t79.5 -82 t39.5 -89.5q27 -89 33 -180t3 -184q-2 -91 -1.5 -179.5t20.5 -176.5q14 -30 27.5 -59.5t20.5 -60.5t4 -62t-21 -64zM1608 570q10 130 15 261q0 31 -1 62t-6.5 61.5t-17 60t-33.5 57.5q-91 -56 -158.5 -117.5t-119 -125.5t-91.5 -129.5t-76 -129.5q123 0 243 -1t245 1z M2420 1619q-2 -19 -18.5 -37t-43 -34t-61 -28.5t-72.5 -19.5q-122 -27 -245 -51t-249 -26q-54 0 -101.5 10t-79.5 29q-23 14 -54 25.5t-71 13.5q-54 2 -102.5 -11t-93.5 -30q-27 -10 -54 -21.5t-62 -15.5q-48 2 -87 14t-69 30l-26 20t-23 21t-14.5 22.5t0.5 25.5 q5 24 28.5 46t58.5 40t77.5 32.5t86.5 24.5q85 23 177.5 37.5t182.5 14.5q52 2 97 -8t77 -27q23 -14 55 -24.5t72 -12.5q44 0 89.5 2.5t89.5 11.5q36 11 74 19.5t71 22.5q20 7 40.5 8t41.5 1q45 -3 83 -14.5t66 -28t44 -38t15 -44.5z" />
<glyph unicode="&#xe4;" horiz-adv-x="1608" d="M295 3zM2154 169q-12 -27 -39.5 -54t-67.5 -48.5t-91 -36.5t-111 -18q-35 -3 -70 -3q-34 0 -65 3.5t-57 12t-42 23.5q-17 12 -27 26t-14.5 29.5t-5.5 31.5t-1 32q8 36 8.5 73t7.5 72q-45 -1 -86 -0.5t-85 0.5t-87 2t-87 0q-72 0 -142 -2t-145 -8q-44 -48 -82.5 -94 t-81.5 -94q-18 -18 -43 -39t-56.5 -38t-70.5 -27.5t-86 -8.5q-69 3 -124 20t-84 45q-18 29 -23.5 62t3.5 65q18 58 47.5 115.5t66 114.5t78.5 114t84 113q90 111 185.5 221.5t214.5 217.5q56 46 123 97t149 94t179.5 72.5t215.5 33.5q105 0 180.5 -22.5t126.5 -59t79.5 -82 t39.5 -89.5q27 -89 33 -180t3 -184q-2 -91 -1.5 -179.5t20.5 -176.5q14 -30 27.5 -59.5t20.5 -60.5t4 -62t-21 -64zM1608 570q10 130 15 261q0 31 -1 62t-6.5 61.5t-17 60t-33.5 57.5q-91 -56 -158.5 -117.5t-119 -125.5t-91.5 -129.5t-76 -129.5q123 0 243 -1t245 1z M2186 1551q-11 -26 -41 -49t-72 -40t-92.5 -26.5t-101.5 -9.5q-52 0 -97.5 11.5t-68.5 31.5q-29 23 -41 50.5t2 57.5q10 31 41.5 58.5t76.5 51.5q38 21 87 37.5t102 12.5q67 0 113.5 -20t70.5 -47q26 -26 32 -57t-11 -62zM1481 1556q-3 -25 -27 -49t-62 -42t-87 -27.5 t-101 -4.5q-57 3 -106 16t-80 35q-33 22 -46.5 50.5t-2.5 57.5q6 15 20 28.5t33 26t40.5 24t44.5 22.5q45 17 97.5 33t109.5 18q63 4 103 -15t57 -45q14 -31 18 -63t-11 -65z" />
<glyph unicode="&#xe5;" horiz-adv-x="1608" d="M295 3zM2154 169q-12 -27 -39.5 -54t-67.5 -48.5t-91 -36.5t-111 -18q-35 -3 -70 -3q-34 0 -65 3.5t-57 12t-42 23.5q-17 12 -27 26t-14.5 29.5t-5.5 31.5t-1 32q8 36 8.5 73t7.5 72q-45 -1 -86 -0.5t-85 0.5t-87 2t-87 0q-72 0 -142 -2t-145 -8q-44 -48 -82.5 -94 t-81.5 -94q-18 -18 -43 -39t-56.5 -38t-70.5 -27.5t-86 -8.5q-69 3 -124 20t-84 45q-18 29 -23.5 62t3.5 65q18 58 47.5 115.5t66 114.5t78.5 114t84 113q90 111 185.5 221.5t214.5 217.5q56 46 123 97t149 94t179.5 72.5t215.5 33.5q105 0 180.5 -22.5t126.5 -59t79.5 -82 t39.5 -89.5q27 -89 33 -180t3 -184q-2 -91 -1.5 -179.5t20.5 -176.5q14 -30 27.5 -59.5t20.5 -60.5t4 -62t-21 -64zM1608 570q10 130 15 261q0 31 -1 62t-6.5 61.5t-17 60t-33.5 57.5q-91 -56 -158.5 -117.5t-119 -125.5t-91.5 -129.5t-76 -129.5q123 0 243 -1t245 1z M2124 1708q-23 -54 -90 -102.5t-162 -83.5q-95 -36 -204.5 -59t-220.5 -21q-103 0 -185.5 23t-135.5 60q-59 36 -81.5 83.5t-7.5 97.5q18 56 81.5 106.5t157.5 88.5q89 40 199 62.5t221 21.5q104 -2 189 -25.5t140 -63.5q61 -38 89.5 -86t9.5 -102zM1797 1718q9 25 -10 46 t-50 36q-32 16 -74 26t-93 10q-43 -1 -80.5 -11.5t-66.5 -26.5t-48.5 -36t-26.5 -39q-12 -22 -9 -44t21.5 -40t52.5 -28.5t85 -8.5q50 -3 102 5t95.5 23.5t71.5 38t30 49.5z" />
<glyph unicode="&#xe6;" horiz-adv-x="3447" d="M3536 364q-29 -55 -119 -99q-77 -33 -163 -58.5t-176 -46.5t-182 -39.5t-182 -36.5q-90 -16 -181.5 -33t-183 -32t-183.5 -25.5t-183 -13.5q-53 0 -107 2.5t-104 9t-92 19.5t-69 35q-20 24 -27 49.5t-5.5 51.5t9 53t16.5 54q5 14 7 29t-7 28q-36 0 -71.5 2.5t-73.5 0.5 q-41 2 -82.5 2.5t-82.5 0.5q-72 0 -145.5 -1t-148.5 -7q-48 -47 -98 -92.5t-95 -91.5q-24 -18 -51 -38t-59 -37t-70.5 -28t-85.5 -10q-49 1 -92.5 10t-75.5 24t-49 35.5t-12 46.5q9 66 47.5 131.5t92.5 129.5q60 69 127.5 133.5t135.5 131.5q123 112 252.5 223.5 t281.5 218.5q72 46 153 95t174 90t198.5 70t225.5 35q67 0 128 -8t108 -30q128 12 251 16t247 6q165 -1 328.5 0.5t325.5 -6.5q62 -1 116.5 -13t93 -33t57 -49t8.5 -61q0 -20 -12 -40t-41 -38q-22 -18 -59.5 -30t-77.5 -9q-223 6 -443 9.5t-443 5.5q-32 -32 -53 -65t-35 -66 q-2 -5 -1 -8.5t-1 -7.5q212 3 421 9q105 4 209.5 5.5t210.5 1.5q66 2 126.5 -9t103 -32t60.5 -50.5t-1 -64.5q-8 -31 -45.5 -52t-89.5 -34.5t-111 -21t-108 -10.5q-155 -9 -307 -15t-305 -17q-73 -6 -143 -24.5t-126 -45t-93.5 -60t-45.5 -70.5q-16 -44 -13 -85.5t16 -83.5 q71 4 141 15t138.5 25.5t136 31t134.5 32.5q137 36 281 63.5t290 32.5q58 4 98 -7.5t61 -32t21.5 -46t-21.5 -50.5zM1713 570l81 220q11 35 22.5 71t18.5 71t7 70t-12 68q-107 -53 -192.5 -113t-157 -124t-132 -130t-116.5 -131q121 -2 240 -2h241z" />
<glyph unicode="&#xe8;" horiz-adv-x="1980" d="M405 0zM2367 398q-65 -50 -156 -86t-193 -65.5t-209.5 -55.5t-205.5 -54q-107 -24 -215 -49t-217.5 -45.5t-220 -33.5t-221.5 -14q-34 2 -67.5 6t-63.5 10.5t-55 17t-43 24.5q-21 13 -34 29t-21 32.5t-13 34t-10 34.5q-21 69 -16.5 140t22.5 143q44 126 114.5 249.5 t150.5 248.5q37 62 81.5 123t89.5 123q50 36 119 59.5t147 39t159.5 26t156.5 20.5q174 18 345.5 24.5t341.5 -0.5q53 -2 99.5 -13t79 -29t48 -42.5t7.5 -52.5q-2 -19 -19 -36t-45 -30.5t-63.5 -22t-73.5 -11.5q-84 -4 -167 -4.5t-164 0.5q-80 0 -160.5 -5t-158.5 -19 q-39 -8 -78 -17.5t-72.5 -22.5t-59.5 -29t-41 -36q-9 -18 -21 -35t-19 -35l-3 -11q109 5 218.5 16.5t218.5 23.5q109 10 217 17.5t215 6.5q55 1 105.5 -8t85.5 -26.5t49 -42t-3 -53.5q-6 -26 -33 -47.5t-66.5 -38t-88 -27.5t-97.5 -15q-106 -7 -211.5 -12.5t-210.5 -9.5 q-103 -7 -207.5 -16t-201.5 -37q-48 -15 -84.5 -35t-62.5 -43.5t-42.5 -48.5t-24.5 -49q-11 -48 -17.5 -94.5t7.5 -91.5q140 22 271 54t263 64q134 33 274.5 58.5t280.5 29.5q49 1 96 -3.5t86 -16t67.5 -28.5t40.5 -39l2 -13zM1826 1500q-8 -14 -22 -27t-34 -24t-46 -18.5 t-57 -8.5q-92 1 -149.5 24.5t-91 59t-49 77t-22.5 78.5q4 7 4 13q0 7 -1 13t-0.5 12.5t5.5 13.5q9 19 29.5 36.5t49.5 31t65 20.5t75 6q50 -1 84.5 -13t58.5 -30t40.5 -39.5t31.5 -40.5q28 -44 38.5 -89.5t-9.5 -94.5z" />
<glyph unicode="&#xe9;" horiz-adv-x="1980" d="M405 0zM2367 398q-65 -50 -156 -86t-193 -65.5t-209.5 -55.5t-205.5 -54q-107 -24 -215 -49t-217.5 -45.5t-220 -33.5t-221.5 -14q-34 2 -67.5 6t-63.5 10.5t-55 17t-43 24.5q-21 13 -34 29t-21 32.5t-13 34t-10 34.5q-21 69 -16.5 140t22.5 143q44 126 114.5 249.5 t150.5 248.5q37 62 81.5 123t89.5 123q50 36 119 59.5t147 39t159.5 26t156.5 20.5q174 18 345.5 24.5t341.5 -0.5q53 -2 99.5 -13t79 -29t48 -42.5t7.5 -52.5q-2 -19 -19 -36t-45 -30.5t-63.5 -22t-73.5 -11.5q-84 -4 -167 -4.5t-164 0.5q-80 0 -160.5 -5t-158.5 -19 q-39 -8 -78 -17.5t-72.5 -22.5t-59.5 -29t-41 -36q-9 -18 -21 -35t-19 -35l-3 -11q109 5 218.5 16.5t218.5 23.5q109 10 217 17.5t215 6.5q55 1 105.5 -8t85.5 -26.5t49 -42t-3 -53.5q-6 -26 -33 -47.5t-66.5 -38t-88 -27.5t-97.5 -15q-106 -7 -211.5 -12.5t-210.5 -9.5 q-103 -7 -207.5 -16t-201.5 -37q-48 -15 -84.5 -35t-62.5 -43.5t-42.5 -48.5t-24.5 -49q-11 -48 -17.5 -94.5t7.5 -91.5q140 22 271 54t263 64q134 33 274.5 58.5t280.5 29.5q49 1 96 -3.5t86 -16t67.5 -28.5t40.5 -39l2 -13zM2039 1731q-2 -14 -14.5 -26.5t-17.5 -26.5 q-33 -36 -77 -77.5t-102.5 -76.5t-132.5 -58t-166 -22q-27 1 -48.5 7.5t-35.5 17t-20 23t-2 25.5q4 14 8.5 25.5t12.5 24.5q26 42 72 81.5t102 77.5q25 16 54 34t62.5 32t72 23.5t82.5 9.5q39 0 69.5 -7.5t51 -20.5t28.5 -30.5t1 -35.5z" />
<glyph unicode="&#xea;" horiz-adv-x="1980" d="M405 0zM2367 398q-65 -50 -156 -86t-193 -65.5t-209.5 -55.5t-205.5 -54q-107 -24 -215 -49t-217.5 -45.5t-220 -33.5t-221.5 -14q-34 2 -67.5 6t-63.5 10.5t-55 17t-43 24.5q-21 13 -34 29t-21 32.5t-13 34t-10 34.5q-21 69 -16.5 140t22.5 143q44 126 114.5 249.5 t150.5 248.5q37 62 81.5 123t89.5 123q50 36 119 59.5t147 39t159.5 26t156.5 20.5q174 18 345.5 24.5t341.5 -0.5q53 -2 99.5 -13t79 -29t48 -42.5t7.5 -52.5q-2 -19 -19 -36t-45 -30.5t-63.5 -22t-73.5 -11.5q-84 -4 -167 -4.5t-164 0.5q-80 0 -160.5 -5t-158.5 -19 q-39 -8 -78 -17.5t-72.5 -22.5t-59.5 -29t-41 -36q-9 -18 -21 -35t-19 -35l-3 -11q109 5 218.5 16.5t218.5 23.5q109 10 217 17.5t215 6.5q55 1 105.5 -8t85.5 -26.5t49 -42t-3 -53.5q-6 -26 -33 -47.5t-66.5 -38t-88 -27.5t-97.5 -15q-106 -7 -211.5 -12.5t-210.5 -9.5 q-103 -7 -207.5 -16t-201.5 -37q-48 -15 -84.5 -35t-62.5 -43.5t-42.5 -48.5t-24.5 -49q-11 -48 -17.5 -94.5t7.5 -91.5q140 22 271 54t263 64q134 33 274.5 58.5t280.5 29.5q49 1 96 -3.5t86 -16t67.5 -28.5t40.5 -39l2 -13zM2201 1517q-10 -17 -32 -32t-51 -26t-63 -17.5 t-69 -6.5q-69 -1 -113 21t-62 51q-16 33 -35.5 65.5t-36.5 65.5q-48 -35 -96.5 -68t-99.5 -68q-23 -14 -50.5 -28t-58.5 -25t-65 -17t-70 -4q-45 1 -76 12t-49 27t-24 36t-2 40q9 29 34.5 56t61 52t77 48.5t82.5 46.5q45 21 92 43t98 41t106.5 32t116.5 15q60 0 107.5 -11.5 t86 -29t69.5 -39.5t58 -44q25 -23 45 -47.5t32 -51t12.5 -54.5t-13.5 -57q-2 -7 -6 -13t-6 -13z" />
<glyph unicode="&#xeb;" horiz-adv-x="1980" d="M405 0zM2367 398q-65 -50 -156 -86t-193 -65.5t-209.5 -55.5t-205.5 -54q-107 -24 -215 -49t-217.5 -45.5t-220 -33.5t-221.5 -14q-34 2 -67.5 6t-63.5 10.5t-55 17t-43 24.5q-21 13 -34 29t-21 32.5t-13 34t-10 34.5q-21 69 -16.5 140t22.5 143q44 126 114.5 249.5 t150.5 248.5q37 62 81.5 123t89.5 123q50 36 119 59.5t147 39t159.5 26t156.5 20.5q174 18 345.5 24.5t341.5 -0.5q53 -2 99.5 -13t79 -29t48 -42.5t7.5 -52.5q-2 -19 -19 -36t-45 -30.5t-63.5 -22t-73.5 -11.5q-84 -4 -167 -4.5t-164 0.5q-80 0 -160.5 -5t-158.5 -19 q-39 -8 -78 -17.5t-72.5 -22.5t-59.5 -29t-41 -36q-9 -18 -21 -35t-19 -35l-3 -11q109 5 218.5 16.5t218.5 23.5q109 10 217 17.5t215 6.5q55 1 105.5 -8t85.5 -26.5t49 -42t-3 -53.5q-6 -26 -33 -47.5t-66.5 -38t-88 -27.5t-97.5 -15q-106 -7 -211.5 -12.5t-210.5 -9.5 q-103 -7 -207.5 -16t-201.5 -37q-48 -15 -84.5 -35t-62.5 -43.5t-42.5 -48.5t-24.5 -49q-11 -48 -17.5 -94.5t7.5 -91.5q140 22 271 54t263 64q134 33 274.5 58.5t280.5 29.5q49 1 96 -3.5t86 -16t67.5 -28.5t40.5 -39l2 -13zM2335 1548q-11 -26 -41 -49t-72 -40 t-92.5 -26.5t-101.5 -9.5q-52 0 -97.5 11.5t-68.5 31.5q-29 23 -41 50.5t2 57.5q10 31 41.5 58.5t76.5 51.5q38 21 87 37.5t102 12.5q67 0 113.5 -20t70.5 -47q26 -26 32 -57t-11 -62zM1630 1553q-3 -25 -27 -49t-62 -42t-87 -27.5t-101 -4.5q-57 3 -106 16t-80 35 q-33 22 -46.5 50.5t-2.5 57.5q6 15 20 28.5t33 26t40.5 24t44.5 22.5q45 17 97.5 33t109.5 18q63 4 103 -15t57 -45q14 -31 18 -63t-11 -65z" />
<glyph unicode="&#xec;" horiz-adv-x="594" d="M374 0zM937 241q-14 -40 -44 -78t-69 -76q-18 -18 -43.5 -36.5t-57 -33.5t-69.5 -25t-81 -12q-33 -1 -59 4t-47 14t-36.5 21t-26.5 24q-17 27 -22.5 56t-7.5 58q-3 57 7.5 114t28.5 115q33 97 67.5 192t72.5 192q37 97 77.5 191t79.5 191q19 33 38.5 66.5t56.5 64.5 q16 16 36 32.5t45 30.5t55.5 24.5t68.5 15.5q43 3 80.5 -2t67.5 -16.5t52 -27t34 -33.5q18 -35 19.5 -73.5t-12.5 -76.5l-42 -110t-45 -110q-23 -57 -48.5 -113.5t-45.5 -113.5q-22 -62 -34 -122t-29 -120q-16 -57 -28.5 -113.5t-38.5 -113.5zM1110 1500q-8 -14 -22 -27 t-34 -24t-46 -18.5t-57 -8.5q-92 1 -149.5 24.5t-91 59t-49 77t-22.5 78.5q4 7 4 13q0 7 -1 13t-0.5 12.5t5.5 13.5q9 19 29.5 36.5t49.5 31t65 20.5t75 6q50 -1 84.5 -13t58.5 -30t40.5 -39.5t31.5 -40.5q28 -44 38.5 -89.5t-9.5 -94.5z" />
<glyph unicode="&#xed;" horiz-adv-x="594" d="M374 0zM937 241q-14 -40 -44 -78t-69 -76q-18 -18 -43.5 -36.5t-57 -33.5t-69.5 -25t-81 -12q-33 -1 -59 4t-47 14t-36.5 21t-26.5 24q-17 27 -22.5 56t-7.5 58q-3 57 7.5 114t28.5 115q33 97 67.5 192t72.5 192q37 97 77.5 191t79.5 191q19 33 38.5 66.5t56.5 64.5 q16 16 36 32.5t45 30.5t55.5 24.5t68.5 15.5q43 3 80.5 -2t67.5 -16.5t52 -27t34 -33.5q18 -35 19.5 -73.5t-12.5 -76.5l-42 -110t-45 -110q-23 -57 -48.5 -113.5t-45.5 -113.5q-22 -62 -34 -122t-29 -120q-16 -57 -28.5 -113.5t-38.5 -113.5zM1336 1712q-2 -14 -14.5 -26.5 t-17.5 -26.5q-33 -36 -77 -77.5t-102.5 -76.5t-132.5 -58t-166 -22q-27 1 -48.5 7.5t-35.5 17t-20 23t-2 25.5q4 14 8.5 25.5t12.5 24.5q26 42 72 81.5t102 77.5q25 16 54 34t62.5 32t72 23.5t82.5 9.5q39 0 69.5 -7.5t51 -20.5t28.5 -30.5t1 -35.5z" />
<glyph unicode="&#xee;" horiz-adv-x="594" d="M374 0zM937 241q-14 -40 -44 -78t-69 -76q-18 -18 -43.5 -36.5t-57 -33.5t-69.5 -25t-81 -12q-33 -1 -59 4t-47 14t-36.5 21t-26.5 24q-17 27 -22.5 56t-7.5 58q-3 57 7.5 114t28.5 115q33 97 67.5 192t72.5 192q37 97 77.5 191t79.5 191q19 33 38.5 66.5t56.5 64.5 q16 16 36 32.5t45 30.5t55.5 24.5t68.5 15.5q43 3 80.5 -2t67.5 -16.5t52 -27t34 -33.5q18 -35 19.5 -73.5t-12.5 -76.5l-42 -110t-45 -110q-23 -57 -48.5 -113.5t-45.5 -113.5q-22 -62 -34 -122t-29 -120q-16 -57 -28.5 -113.5t-38.5 -113.5zM1519 1517q-10 -17 -32 -32 t-51 -26t-63 -17.5t-69 -6.5q-69 -1 -113 21t-62 51q-16 33 -35.5 65.5t-36.5 65.5q-48 -35 -96.5 -68t-99.5 -68q-23 -14 -50.5 -28t-58.5 -25t-65 -17t-70 -4q-45 1 -76 12t-49 27t-24 36t-2 40q9 29 34.5 56t61 52t77 48.5t82.5 46.5q45 21 92 43t98 41t106.5 32 t116.5 15q60 0 107.5 -11.5t86 -29t69.5 -39.5t58 -44q25 -23 45 -47.5t32 -51t12.5 -54.5t-13.5 -57q-2 -7 -6 -13t-6 -13z" />
<glyph unicode="&#xef;" horiz-adv-x="594" d="M374 0zM937 241q-14 -40 -44 -78t-69 -76q-18 -18 -43.5 -36.5t-57 -33.5t-69.5 -25t-81 -12q-33 -1 -59 4t-47 14t-36.5 21t-26.5 24q-17 27 -22.5 56t-7.5 58q-3 57 7.5 114t28.5 115q33 97 67.5 192t72.5 192q37 97 77.5 191t79.5 191q19 33 38.5 66.5t56.5 64.5 q16 16 36 32.5t45 30.5t55.5 24.5t68.5 15.5q43 3 80.5 -2t67.5 -16.5t52 -27t34 -33.5q18 -35 19.5 -73.5t-12.5 -76.5l-42 -110t-45 -110q-23 -57 -48.5 -113.5t-45.5 -113.5q-22 -62 -34 -122t-29 -120q-16 -57 -28.5 -113.5t-38.5 -113.5zM1696 1553q-11 -26 -41 -49 t-72 -40t-92.5 -26.5t-101.5 -9.5q-52 0 -97.5 11.5t-68.5 31.5q-29 23 -41 50.5t2 57.5q10 31 41.5 58.5t76.5 51.5q38 21 87 37.5t102 12.5q67 0 113.5 -20t70.5 -47q26 -26 32 -57t-11 -62zM991 1558q-3 -25 -27 -49t-62 -42t-87 -27.5t-101 -4.5q-57 3 -106 16t-80 35 q-33 22 -46.5 50.5t-2.5 57.5q6 15 20 28.5t33 26t40.5 24t44.5 22.5q45 17 97.5 33t109.5 18q63 4 103 -15t57 -45q14 -31 18 -63t-11 -65z" />
<glyph unicode="&#xf1;" horiz-adv-x="1795" d="M360 0zM2092 189q-13 -30 -39.5 -61t-67 -57.5t-94.5 -45.5t-123 -25q-65 3 -114.5 16t-88.5 33t-70 45t-57.5 51.5t-51 53.5t-50.5 50q-73 97 -141 193.5t-130 195.5q-22 -75 -42 -147.5t-42 -147.5q-18 -49 -40 -97.5t-57 -97.5q-21 -29 -48 -57t-61.5 -49t-77 -33 t-93.5 -7q-54 4 -99 18.5t-77.5 35t-50 46.5t-17.5 53q28 79 72 159q24 40 46 79.5t36 80.5q18 71 37.5 142t32.5 142q19 69 41.5 139t55.5 139q20 45 54.5 89t71.5 88q22 19 43 40.5t46.5 41.5t58.5 35.5t78 22.5q45 4 81 -1.5t64.5 -17.5t50 -28t37.5 -33q19 -18 32.5 -38 t24.5 -40t20.5 -41t20.5 -41q33 -66 64 -132.5t69 -132.5q80 -134 196 -256q7 47 13.5 91.5t15.5 91.5q16 85 32 169.5t45 169.5q10 23 20.5 50.5t26 55.5t38 55t56 48t81 34.5t111.5 14.5q45 -2 75 -13t50.5 -27t33.5 -35t25 -37q20 -39 26.5 -79.5t-4.5 -83.5 q-11 -24 -18.5 -47t-18.5 -46l-36 -99q-30 -109 -53 -216.5t-43 -215.5q-8 -71 -28 -142t-49 -142zM2432 1616q-2 -19 -18.5 -37t-43 -34t-61 -28.5t-72.5 -19.5q-122 -27 -245 -51t-249 -26q-54 0 -101.5 10t-79.5 29q-23 14 -54 25.5t-71 13.5q-54 2 -102.5 -11t-93.5 -30 q-27 -10 -54 -21.5t-62 -15.5q-48 2 -87 14t-69 30l-26 20t-23 21t-14.5 22.5t0.5 25.5q5 24 28.5 46t58.5 40t77.5 32.5t86.5 24.5q85 23 177.5 37.5t182.5 14.5q52 2 97 -8t77 -27q23 -14 55 -24.5t72 -12.5q44 0 89.5 2.5t89.5 11.5q36 11 74 19.5t71 22.5q20 7 40.5 8 t41.5 1q45 -3 83 -14.5t66 -28t44 -38t15 -44.5z" />
<glyph unicode="&#xf2;" horiz-adv-x="1836" d="M425 0zM2463 689q-20 -61 -59.5 -121.5t-95.5 -119t-128 -114t-156 -107.5q-83 -51 -184 -96.5t-214 -79.5t-236 -53.5t-250 -16.5q-120 0 -217.5 22t-173.5 58t-132 82t-93 94q-75 100 -98.5 211t21.5 226q45 124 156.5 242.5t285.5 221.5q80 52 180.5 98t214 80 t236.5 53t248 17q120 0 218 -21.5t175 -57.5t133.5 -82t93.5 -95q79 -100 98 -212.5t-23 -228.5zM1898 749l18 58t15 57.5t7.5 57t-4.5 56.5q-7 27 -31 51.5t-61.5 42.5t-87 28t-109.5 8q-71 1 -138.5 -11.5t-127.5 -34t-110 -49.5t-86 -59q-75 -64 -122 -133t-71 -138 q-25 -67 -38 -133t0 -130q5 -31 26 -60.5t57.5 -52.5t89.5 -36.5t123 -11.5q66 -2 129.5 9.5t119.5 32t102 47.5t77 56q49 46 83.5 90t59.5 87t43.5 84.5t35.5 83.5zM1857 1510q-8 -14 -22 -27t-34 -24t-46 -18.5t-57 -8.5q-92 1 -149.5 24.5t-91 59t-49 77t-22.5 78.5 q4 7 4 13q0 7 -1 13t-0.5 12.5t5.5 13.5q9 19 29.5 36.5t49.5 31t65 20.5t75 6q50 -1 84.5 -13t58.5 -30t40.5 -39.5t31.5 -40.5q28 -44 38.5 -89.5t-9.5 -94.5z" />
<glyph unicode="&#xf3;" horiz-adv-x="1836" d="M425 0zM2463 689q-20 -61 -59.5 -121.5t-95.5 -119t-128 -114t-156 -107.5q-83 -51 -184 -96.5t-214 -79.5t-236 -53.5t-250 -16.5q-120 0 -217.5 22t-173.5 58t-132 82t-93 94q-75 100 -98.5 211t21.5 226q45 124 156.5 242.5t285.5 221.5q80 52 180.5 98t214 80 t236.5 53t248 17q120 0 218 -21.5t175 -57.5t133.5 -82t93.5 -95q79 -100 98 -212.5t-23 -228.5zM1898 749l18 58t15 57.5t7.5 57t-4.5 56.5q-7 27 -31 51.5t-61.5 42.5t-87 28t-109.5 8q-71 1 -138.5 -11.5t-127.5 -34t-110 -49.5t-86 -59q-75 -64 -122 -133t-71 -138 q-25 -67 -38 -133t0 -130q5 -31 26 -60.5t57.5 -52.5t89.5 -36.5t123 -11.5q66 -2 129.5 9.5t119.5 32t102 47.5t77 56q49 46 83.5 90t59.5 87t43.5 84.5t35.5 83.5zM2066 1731q-2 -14 -14.5 -26.5t-17.5 -26.5q-33 -36 -77 -77.5t-102.5 -76.5t-132.5 -58t-166 -22 q-27 1 -48.5 7.5t-35.5 17t-20 23t-2 25.5q4 14 8.5 25.5t12.5 24.5q26 42 72 81.5t102 77.5q25 16 54 34t62.5 32t72 23.5t82.5 9.5q39 0 69.5 -7.5t51 -20.5t28.5 -30.5t1 -35.5z" />
<glyph unicode="&#xf4;" horiz-adv-x="1836" d="M425 0zM2463 689q-20 -61 -59.5 -121.5t-95.5 -119t-128 -114t-156 -107.5q-83 -51 -184 -96.5t-214 -79.5t-236 -53.5t-250 -16.5q-120 0 -217.5 22t-173.5 58t-132 82t-93 94q-75 100 -98.5 211t21.5 226q45 124 156.5 242.5t285.5 221.5q80 52 180.5 98t214 80 t236.5 53t248 17q120 0 218 -21.5t175 -57.5t133.5 -82t93.5 -95q79 -100 98 -212.5t-23 -228.5zM1898 749l18 58t15 57.5t7.5 57t-4.5 56.5q-7 27 -31 51.5t-61.5 42.5t-87 28t-109.5 8q-71 1 -138.5 -11.5t-127.5 -34t-110 -49.5t-86 -59q-75 -64 -122 -133t-71 -138 q-25 -67 -38 -133t0 -130q5 -31 26 -60.5t57.5 -52.5t89.5 -36.5t123 -11.5q66 -2 129.5 9.5t119.5 32t102 47.5t77 56q49 46 83.5 90t59.5 87t43.5 84.5t35.5 83.5zM2169 1524q-10 -17 -32 -32t-51 -26t-63 -17.5t-69 -6.5q-69 -1 -113 21t-62 51q-16 33 -35.5 65.5 t-36.5 65.5q-48 -35 -96.5 -68t-99.5 -68q-23 -14 -50.5 -28t-58.5 -25t-65 -17t-70 -4q-45 1 -76 12t-49 27t-24 36t-2 40q9 29 34.5 56t61 52t77 48.5t82.5 46.5q45 21 92 43t98 41t106.5 32t116.5 15q60 0 107.5 -11.5t86 -29t69.5 -39.5t58 -44q25 -23 45 -47.5t32 -51 t12.5 -54.5t-13.5 -57q-2 -7 -6 -13t-6 -13z" />
<glyph unicode="&#xf5;" horiz-adv-x="1836" d="M425 0zM2463 689q-20 -61 -59.5 -121.5t-95.5 -119t-128 -114t-156 -107.5q-83 -51 -184 -96.5t-214 -79.5t-236 -53.5t-250 -16.5q-120 0 -217.5 22t-173.5 58t-132 82t-93 94q-75 100 -98.5 211t21.5 226q45 124 156.5 242.5t285.5 221.5q80 52 180.5 98t214 80 t236.5 53t248 17q120 0 218 -21.5t175 -57.5t133.5 -82t93.5 -95q79 -100 98 -212.5t-23 -228.5zM1898 749l18 58t15 57.5t7.5 57t-4.5 56.5q-7 27 -31 51.5t-61.5 42.5t-87 28t-109.5 8q-71 1 -138.5 -11.5t-127.5 -34t-110 -49.5t-86 -59q-75 -64 -122 -133t-71 -138 q-25 -67 -38 -133t0 -130q5 -31 26 -60.5t57.5 -52.5t89.5 -36.5t123 -11.5q66 -2 129.5 9.5t119.5 32t102 47.5t77 56q49 46 83.5 90t59.5 87t43.5 84.5t35.5 83.5zM2502 1619q-2 -19 -18.5 -37t-43 -34t-61 -28.5t-72.5 -19.5q-122 -27 -245 -51t-249 -26q-54 0 -101.5 10 t-79.5 29q-23 14 -54 25.5t-71 13.5q-54 2 -102.5 -11t-93.5 -30q-27 -10 -54 -21.5t-62 -15.5q-48 2 -87 14t-69 30l-26 20t-23 21t-14.5 22.5t0.5 25.5q5 24 28.5 46t58.5 40t77.5 32.5t86.5 24.5q85 23 177.5 37.5t182.5 14.5q52 2 97 -8t77 -27q23 -14 55 -24.5 t72 -12.5q44 0 89.5 2.5t89.5 11.5q36 11 74 19.5t71 22.5q20 7 40.5 8t41.5 1q45 -3 83 -14.5t66 -28t44 -38t15 -44.5z" />
<glyph unicode="&#xf6;" horiz-adv-x="1836" d="M425 0zM2463 689q-20 -61 -59.5 -121.5t-95.5 -119t-128 -114t-156 -107.5q-83 -51 -184 -96.5t-214 -79.5t-236 -53.5t-250 -16.5q-120 0 -217.5 22t-173.5 58t-132 82t-93 94q-75 100 -98.5 211t21.5 226q45 124 156.5 242.5t285.5 221.5q80 52 180.5 98t214 80 t236.5 53t248 17q120 0 218 -21.5t175 -57.5t133.5 -82t93.5 -95q79 -100 98 -212.5t-23 -228.5zM1898 749l18 58t15 57.5t7.5 57t-4.5 56.5q-7 27 -31 51.5t-61.5 42.5t-87 28t-109.5 8q-71 1 -138.5 -11.5t-127.5 -34t-110 -49.5t-86 -59q-75 -64 -122 -133t-71 -138 q-25 -67 -38 -133t0 -130q5 -31 26 -60.5t57.5 -52.5t89.5 -36.5t123 -11.5q66 -2 129.5 9.5t119.5 32t102 47.5t77 56q49 46 83.5 90t59.5 87t43.5 84.5t35.5 83.5zM2337 1546q-11 -26 -41 -49t-72 -40t-92.5 -26.5t-101.5 -9.5q-52 0 -97.5 11.5t-68.5 31.5 q-29 23 -41 50.5t2 57.5q10 31 41.5 58.5t76.5 51.5q38 21 87 37.5t102 12.5q67 0 113.5 -20t70.5 -47q26 -26 32 -57t-11 -62zM1632 1551q-3 -25 -27 -49t-62 -42t-87 -27.5t-101 -4.5q-57 3 -106 16t-80 35q-33 22 -46.5 50.5t-2.5 57.5q6 15 20 28.5t33 26t40.5 24 t44.5 22.5q45 17 97.5 33t109.5 18q63 4 103 -15t57 -45q14 -31 18 -63t-11 -65z" />
<glyph unicode="&#xf7;" horiz-adv-x="1454" d="M1556 1089q-10 -35 -39 -69t-82 -61q-55 -29 -126.5 -47t-146.5 -16q-79 -5 -134.5 11.5t-85.5 44t-34.5 63t19.5 70.5q14 31 51 59t88.5 49t113 32.5t124.5 10.5q63 2 117 -8.5t90 -31t49.5 -48t-4.5 -59.5zM1819 676q-8 -21 -31.5 -40t-57.5 -33.5t-75 -24t-83 -10.5 q-261 -6 -517.5 -5t-513.5 4q-49 1 -87.5 14.5t-62.5 31.5q-27 19 -39.5 42.5t-3.5 49.5q19 27 53 45.5t78 30t95 18t103.5 9.5t103 4t93.5 2h97t96 -2q49 0 99 -1.5t99 -1.5q95 0 188 -2.5t185 -9.5q43 -4 81.5 -14t64.5 -25.5t36.5 -36t-1.5 -45.5zM1251 362 q-13 -36 -49 -70t-88 -63q-54 -29 -122 -47.5t-140 -15.5q-79 -3 -131.5 14.5t-81 46t-34 64t10.5 69.5q8 32 44.5 59.5t89.5 47t116 30t124 8.5q64 4 120.5 -5.5t95 -29t52.5 -47.5t-7 -61z" />
<glyph unicode="&#xf8;" horiz-adv-x="2260" d="M2507 689q-42 -122 -153.5 -239.5t-279.5 -220.5q-81 -53 -182.5 -99t-216 -80.5t-238.5 -53.5t-249 -16q-126 0 -235.5 22.5t-187.5 64.5q-32 -26 -66 -51t-57 -52q-16 -9 -34.5 -19.5t-39.5 -19t-44 -13t-48 -2.5q-53 4 -97.5 17t-76 32t-47 43.5t-9.5 52.5 q24 30 57 58.5t71 56t78.5 54.5t78.5 54q-47 94 -61 193t23 201q47 125 155.5 246t283.5 225q79 53 180.5 99.5t217 80.5t240.5 52.5t251 15.5q81 -2 157 -13t140 -31q35 18 67 39t65 41t71 37t85 28q52 -8 99 -18.5t82 -29.5q38 -17 61.5 -40.5t20.5 -51.5 q-17 -28 -44 -54.5t-60 -52t-69 -50.5t-69 -50q86 -103 106.5 -219.5t-26.5 -236.5zM1754 1106q-30 3 -63 3q-70 2 -137 -10t-126.5 -34t-109.5 -51t-84 -60q-40 -32 -70 -65.5t-53 -67.5t-40 -69t-30 -69q-9 -22 -15.5 -43t-11.5 -41q180 129 365 254t375 253zM1944 748 q13 26 17.5 52t14.5 53q-221 -140 -435 -279t-433 -279q35 -18 84 -27t103 -9q65 -1 129 10.5t120.5 32t102.5 47.5t75 57q48 45 83 89t61 86.5t44.5 84t33.5 82.5z" />
<glyph unicode="&#xf9;" horiz-adv-x="1782" d="M458 0zM2350 679q-38 -113 -133.5 -224t-236.5 -211q-67 -48 -151 -95.5t-182 -85t-207.5 -61t-227.5 -22.5q-133 -3 -249.5 16.5t-209 56t-157 87t-93.5 109.5q-31 58 -40.5 118.5t-4 122t23 124.5t40.5 125q30 69 59 139t65 139.5t82 138t110 134.5q46 36 119 57.5 t152 22.5q42 4 76 -1.5t58.5 -17.5t38 -29.5t15.5 -36.5q9 -45 1.5 -90.5t-27.5 -91.5q-33 -78 -70.5 -154t-77.5 -154q-42 -78 -80.5 -156t-64.5 -158q-6 -18 -11 -36.5t-6.5 -36.5t2.5 -35t18 -32q13 -17 38.5 -26t57.5 -14.5t68 -7.5t70 -3q90 -2 163.5 13.5t133 42.5 t104.5 62.5t77.5 74.5t53.5 79t31 75q38 101 58.5 202.5t20.5 201.5q0 42 6 83t13 83q4 24 22 52t50.5 50.5t79 35.5t107.5 8q56 -3 98.5 -16t73 -32.5t50 -43.5t31.5 -48q24 -64 29.5 -130t-1.5 -133t-25 -135t-41 -136zM1717 1499q-8 -14 -22 -27t-34 -24t-46 -18.5 t-57 -8.5q-92 1 -149.5 24.5t-91 59t-49 77t-22.5 78.5q4 7 4 13q0 7 -1 13t-0.5 12.5t5.5 13.5q9 19 29.5 36.5t49.5 31t65 20.5t75 6q50 -1 84.5 -13t58.5 -30t40.5 -39.5t31.5 -40.5q28 -44 38.5 -89.5t-9.5 -94.5z" />
<glyph unicode="&#xfa;" horiz-adv-x="1782" d="M458 0zM2350 679q-38 -113 -133.5 -224t-236.5 -211q-67 -48 -151 -95.5t-182 -85t-207.5 -61t-227.5 -22.5q-133 -3 -249.5 16.5t-209 56t-157 87t-93.5 109.5q-31 58 -40.5 118.5t-4 122t23 124.5t40.5 125q30 69 59 139t65 139.5t82 138t110 134.5q46 36 119 57.5 t152 22.5q42 4 76 -1.5t58.5 -17.5t38 -29.5t15.5 -36.5q9 -45 1.5 -90.5t-27.5 -91.5q-33 -78 -70.5 -154t-77.5 -154q-42 -78 -80.5 -156t-64.5 -158q-6 -18 -11 -36.5t-6.5 -36.5t2.5 -35t18 -32q13 -17 38.5 -26t57.5 -14.5t68 -7.5t70 -3q90 -2 163.5 13.5t133 42.5 t104.5 62.5t77.5 74.5t53.5 79t31 75q38 101 58.5 202.5t20.5 201.5q0 42 6 83t13 83q4 24 22 52t50.5 50.5t79 35.5t107.5 8q56 -3 98.5 -16t73 -32.5t50 -43.5t31.5 -48q24 -64 29.5 -130t-1.5 -133t-25 -135t-41 -136zM1978 1722q-2 -14 -14.5 -26.5t-17.5 -26.5 q-33 -36 -77 -77.5t-102.5 -76.5t-132.5 -58t-166 -22q-27 1 -48.5 7.5t-35.5 17t-20 23t-2 25.5q4 14 8.5 25.5t12.5 24.5q26 42 72 81.5t102 77.5q25 16 54 34t62.5 32t72 23.5t82.5 9.5q39 0 69.5 -7.5t51 -20.5t28.5 -30.5t1 -35.5z" />
<glyph unicode="&#xfb;" horiz-adv-x="1782" d="M458 0zM2350 679q-38 -113 -133.5 -224t-236.5 -211q-67 -48 -151 -95.5t-182 -85t-207.5 -61t-227.5 -22.5q-133 -3 -249.5 16.5t-209 56t-157 87t-93.5 109.5q-31 58 -40.5 118.5t-4 122t23 124.5t40.5 125q30 69 59 139t65 139.5t82 138t110 134.5q46 36 119 57.5 t152 22.5q42 4 76 -1.5t58.5 -17.5t38 -29.5t15.5 -36.5q9 -45 1.5 -90.5t-27.5 -91.5q-33 -78 -70.5 -154t-77.5 -154q-42 -78 -80.5 -156t-64.5 -158q-6 -18 -11 -36.5t-6.5 -36.5t2.5 -35t18 -32q13 -17 38.5 -26t57.5 -14.5t68 -7.5t70 -3q90 -2 163.5 13.5t133 42.5 t104.5 62.5t77.5 74.5t53.5 79t31 75q38 101 58.5 202.5t20.5 201.5q0 42 6 83t13 83q4 24 22 52t50.5 50.5t79 35.5t107.5 8q56 -3 98.5 -16t73 -32.5t50 -43.5t31.5 -48q24 -64 29.5 -130t-1.5 -133t-25 -135t-41 -136zM2135 1520q-10 -17 -32 -32t-51 -26t-63 -17.5 t-69 -6.5q-69 -1 -113 21t-62 51q-16 33 -35.5 65.5t-36.5 65.5q-48 -35 -96.5 -68t-99.5 -68q-23 -14 -50.5 -28t-58.5 -25t-65 -17t-70 -4q-45 1 -76 12t-49 27t-24 36t-2 40q9 29 34.5 56t61 52t77 48.5t82.5 46.5q45 21 92 43t98 41t106.5 32t116.5 15q60 0 107.5 -11.5 t86 -29t69.5 -39.5t58 -44q25 -23 45 -47.5t32 -51t12.5 -54.5t-13.5 -57q-2 -7 -6 -13t-6 -13z" />
<glyph unicode="&#xfc;" horiz-adv-x="1782" d="M458 0zM2350 679q-38 -113 -133.5 -224t-236.5 -211q-67 -48 -151 -95.5t-182 -85t-207.5 -61t-227.5 -22.5q-133 -3 -249.5 16.5t-209 56t-157 87t-93.5 109.5q-31 58 -40.5 118.5t-4 122t23 124.5t40.5 125q30 69 59 139t65 139.5t82 138t110 134.5q46 36 119 57.5 t152 22.5q42 4 76 -1.5t58.5 -17.5t38 -29.5t15.5 -36.5q9 -45 1.5 -90.5t-27.5 -91.5q-33 -78 -70.5 -154t-77.5 -154q-42 -78 -80.5 -156t-64.5 -158q-6 -18 -11 -36.5t-6.5 -36.5t2.5 -35t18 -32q13 -17 38.5 -26t57.5 -14.5t68 -7.5t70 -3q90 -2 163.5 13.5t133 42.5 t104.5 62.5t77.5 74.5t53.5 79t31 75q38 101 58.5 202.5t20.5 201.5q0 42 6 83t13 83q4 24 22 52t50.5 50.5t79 35.5t107.5 8q56 -3 98.5 -16t73 -32.5t50 -43.5t31.5 -48q24 -64 29.5 -130t-1.5 -133t-25 -135t-41 -136zM2316 1551q-11 -26 -41 -49t-72 -40t-92.5 -26.5 t-101.5 -9.5q-52 0 -97.5 11.5t-68.5 31.5q-29 23 -41 50.5t2 57.5q10 31 41.5 58.5t76.5 51.5q38 21 87 37.5t102 12.5q67 0 113.5 -20t70.5 -47q26 -26 32 -57t-11 -62zM1611 1556q-3 -25 -27 -49t-62 -42t-87 -27.5t-101 -4.5q-57 3 -106 16t-80 35q-33 22 -46.5 50.5 t-2.5 57.5q6 15 20 28.5t33 26t40.5 24t44.5 22.5q45 17 97.5 33t109.5 18q63 4 103 -15t57 -45q14 -31 18 -63t-11 -65z" />
<glyph unicode="&#xfd;" horiz-adv-x="1481" d="M635 0zM2400 1200q-10 -19 -28 -37.5t-40.5 -36t-47 -34.5t-48.5 -34q-60 -37 -121 -73t-122 -74q-134 -86 -257.5 -176t-230.5 -184.5t-193.5 -192.5t-147.5 -198q-10 -15 -20 -31.5t-22.5 -32t-28.5 -30.5t-38 -28q-19 -15 -46 -25.5t-58 -17t-64 -9t-63 -1.5 q-54 0 -92 12t-60.5 31.5t-28.5 43.5t6 49q22 97 85.5 191.5t156.5 185.5q-58 38 -97.5 81.5t-66 90.5t-43.5 96.5t-30 98.5q-11 46 -16 93t-2.5 94.5t15 95.5t37.5 96q8 19 26 38t45 35t62 27t78 13q49 6 91.5 2t75 -16t54 -30t27.5 -40q0 -49 0.5 -96t4.5 -95 q13 -77 34 -152.5t65 -147.5q113 91 236.5 179t249.5 176q62 46 126 91t132 90q40 23 93 37t108 9q60 -3 103 -18t68 -38.5t33.5 -51.5t-0.5 -56zM1810 1722q-2 -14 -14.5 -26.5t-17.5 -26.5q-33 -36 -77 -77.5t-102.5 -76.5t-132.5 -58t-166 -22q-27 1 -48.5 7.5t-35.5 17 t-20 23t-2 25.5q4 14 8.5 25.5t12.5 24.5q26 42 72 81.5t102 77.5q25 16 54 34t62.5 32t72 23.5t82.5 9.5q39 0 69.5 -7.5t51 -20.5t28.5 -30.5t1 -35.5z" />
<glyph unicode="&#xfe;" d="M2227 748q-15 -51 -58 -99.5t-107 -92.5t-144.5 -81.5t-171.5 -66.5q-187 -66 -392 -101.5t-414 -50.5q-6 -9 -10 -18t-7 -18q-10 -28 -11 -55t-6 -56l-10 -28t-13.5 -28t-21 -27.5t-32.5 -25.5q-38 -17 -75 -25t-72 -11t-68 -2t-63 4q-54 5 -90 21t-56 38.5t-24.5 48.5 t3.5 52l16 54l16 54q13 28 23 57t18 57q11 26 14.5 51.5t9.5 51.5q42 185 108.5 367t159.5 368q16 33 42 70t67 70t99.5 57.5t138.5 33.5q44 0 86 -3.5t71 -17.5q32 -11 47 -27.5t7 -37.5q-19 -45 -37.5 -90.5t-32.5 -90.5q74 16 148 18l148 4q77 -1 151 -5.5t140 -16.5 q126 -17 215.5 -57.5t141 -95.5t64 -119.5t-17.5 -129.5zM1702 773q8 26 -4 48l-24 44q-17 21 -50.5 33.5t-78.5 14.5q-75 0 -151.5 -3.5t-151.5 -18.5q-36 -9 -61.5 -23.5t-43 -31.5t-28.5 -35.5t-18 -35.5q-10 -29 -26 -60l-21 -56q-8 -23 -11.5 -47t-5.5 -47 q102 9 203 27t197 44q43 12 87.5 27.5t83 33.5t66 39.5t38.5 46.5z" />
<glyph unicode="&#xff;" horiz-adv-x="1481" d="M635 0zM2400 1200q-10 -19 -28 -37.5t-40.5 -36t-47 -34.5t-48.5 -34q-60 -37 -121 -73t-122 -74q-134 -86 -257.5 -176t-230.5 -184.5t-193.5 -192.5t-147.5 -198q-10 -15 -20 -31.5t-22.5 -32t-28.5 -30.5t-38 -28q-19 -15 -46 -25.5t-58 -17t-64 -9t-63 -1.5 q-54 0 -92 12t-60.5 31.5t-28.5 43.5t6 49q22 97 85.5 191.5t156.5 185.5q-58 38 -97.5 81.5t-66 90.5t-43.5 96.5t-30 98.5q-11 46 -16 93t-2.5 94.5t15 95.5t37.5 96q8 19 26 38t45 35t62 27t78 13q49 6 91.5 2t75 -16t54 -30t27.5 -40q0 -49 0.5 -96t4.5 -95 q13 -77 34 -152.5t65 -147.5q113 91 236.5 179t249.5 176q62 46 126 91t132 90q40 23 93 37t108 9q60 -3 103 -18t68 -38.5t33.5 -51.5t-0.5 -56zM2164 1548q-11 -26 -41 -49t-72 -40t-92.5 -26.5t-101.5 -9.5q-52 0 -97.5 11.5t-68.5 31.5q-29 23 -41 50.5t2 57.5 q10 31 41.5 58.5t76.5 51.5q38 21 87 37.5t102 12.5q67 0 113.5 -20t70.5 -47q26 -26 32 -57t-11 -62zM1459 1553q-3 -25 -27 -49t-62 -42t-87 -27.5t-101 -4.5q-57 3 -106 16t-80 35q-33 22 -46.5 50.5t-2.5 57.5q6 15 20 28.5t33 26t40.5 24t44.5 22.5q45 17 97.5 33 t109.5 18q63 4 103 -15t57 -45q14 -31 18 -63t-11 -65z" />
<glyph unicode="&#x152;" horiz-adv-x="3564" d="M3710 401q-69 -49 -161.5 -84.5t-196 -64.5t-211 -54.5t-207.5 -52.5q-109 -24 -219.5 -50.5t-222.5 -49.5t-225.5 -40.5t-228.5 -24.5q-51 -2 -98.5 4t-86.5 18.5t-66.5 31.5t-38.5 43q-57 -22 -119.5 -39t-128 -28.5t-132.5 -17t-132 -2.5q-126 2 -230.5 25.5t-187 61 t-144 86t-101.5 100.5q-85 106 -100 225t36 242q44 115 148.5 226t269.5 205q81 46 178 86t203.5 69.5t220.5 46.5t229 18q76 1 151 -3.5t144 -15t130 -28.5t109 -44q139 37 282.5 55t288.5 24t289.5 3.5t284.5 -5.5q53 -1 100 -11t81.5 -27.5t52 -40.5t12.5 -51 q2 -19 -14 -36.5t-43 -31t-62.5 -22.5t-71.5 -12q-81 -5 -160 -5t-159 2q-70 2 -152 -1.5t-159 -16.5t-140 -38t-95 -67q-17 -17 -23 -34.5t-8 -34.5l-4.5 -4.5t-4.5 -5.5q107 3 214.5 13t215.5 21q103 9 207.5 16.5t207.5 7.5q54 1 104 -8t85.5 -25.5t50.5 -40.5t-1 -54 q-3 -26 -28.5 -47t-65 -37.5t-87.5 -27t-95 -14.5q-103 -7 -205 -12.5t-203 -9.5q-100 -5 -205.5 -15.5t-201.5 -39.5q-47 -15 -83.5 -35t-63.5 -43.5t-44 -48.5t-25 -49q-18 -48 -20 -94.5t-1 -92.5q140 22 271.5 56.5t264.5 67.5q131 34 269.5 59.5t278.5 29.5 q50 3 96.5 -2.5t84.5 -18t65 -30.5t37 -41v-14zM1872 860q9 24 18 52.5t12 57t-3.5 55.5t-28.5 48t-62.5 34t-105.5 14q-107 -3 -192.5 -25t-153 -56.5t-117.5 -78.5t-87 -91.5t-61 -95t-40 -88.5q-20 -57 -30.5 -111.5t-5.5 -110.5q3 -30 12 -59t29.5 -53t55.5 -39.5 t91 -18.5q88 0 158.5 21.5t126.5 54t98.5 71.5t75.5 74q78 85 127.5 171t82.5 174z" />
<glyph unicode="&#x153;" horiz-adv-x="3564" d="M3710 401q-69 -49 -161.5 -84.5t-196 -64.5t-211 -54.5t-207.5 -52.5q-109 -24 -219.5 -50.5t-222.5 -49.5t-225.5 -40.5t-228.5 -24.5q-51 -2 -98.5 4t-86.5 18.5t-66.5 31.5t-38.5 43q-57 -22 -119.5 -39t-128 -28.5t-132.5 -17t-132 -2.5q-126 2 -230.5 25.5t-187 61 t-144 86t-101.5 100.5q-85 106 -100 225t36 242q44 115 148.5 226t269.5 205q80 46 176.5 86t203.5 69.5t221.5 46.5t229.5 18q76 1 151 -3.5t144 -15t130 -28.5t109 -44q139 37 282.5 55t288.5 24t289.5 3.5t284.5 -5.5q53 -1 100 -11t81.5 -27.5t52 -40.5t12.5 -51 q2 -19 -14 -36.5t-43 -31t-62.5 -22.5t-71.5 -12q-81 -5 -160 -5t-159 2q-70 2 -152 -1.5t-159 -16.5t-140 -38t-95 -67q-17 -17 -23 -34.5t-8 -34.5l-4.5 -4.5t-4.5 -5.5q107 3 214.5 13t215.5 21q103 9 207.5 16.5t207.5 7.5q54 1 104 -8t85.5 -25.5t50.5 -40.5t-1 -54 q-3 -26 -28.5 -47t-65 -37.5t-87.5 -27t-95 -14.5q-103 -7 -205 -12.5t-203 -9.5q-100 -5 -205.5 -15.5t-201.5 -39.5q-47 -15 -83.5 -35t-63.5 -43.5t-44 -48.5t-25 -49q-18 -48 -20 -94.5t-1 -92.5q140 22 271.5 56.5t264.5 67.5q131 34 269.5 59.5t278.5 29.5 q50 3 96.5 -2.5t84.5 -18t65 -30.5t37 -41v-14zM1872 860q9 24 18 52.5t12 57t-3.5 55.5t-28.5 48t-62.5 34t-105.5 14q-107 -3 -192.5 -25t-153 -56.5t-117.5 -78.5t-87 -91.5t-61 -95t-40 -88.5q-20 -57 -30.5 -111.5t-5.5 -110.5q3 -30 12 -59t29.5 -53t55.5 -39.5 t91 -18.5q88 0 158.5 21.5t126.5 54t98.5 71.5t75.5 74q78 85 127.5 171t82.5 174z" />
<glyph unicode="&#x178;" horiz-adv-x="1608" d="M580 0zM2391 1205q-12 -36 -40 -71t-66 -68t-82.5 -64.5t-89.5 -62.5q-106 -71 -212.5 -141.5t-205.5 -143.5q-102 -92 -201.5 -182.5t-187.5 -184.5q-45 -45 -87.5 -89.5t-90.5 -89.5q-24 -19 -50.5 -40t-59 -39t-71 -30.5t-85.5 -13.5q-76 -2 -135.5 13.5t-97 42 t-49 61t8.5 70.5q18 52 58.5 102t93 99t113 96t119.5 94q-88 12 -151.5 38.5t-108 62.5t-70.5 78t-39 84q-28 84 -14 170.5t59 174.5q10 29 38 57.5t70.5 52t97.5 38.5t120 17q53 4 88.5 -5.5t57.5 -27t32 -40t11 -43.5q-9 -62 -18.5 -123.5t-17.5 -123.5q1 -19 3.5 -42 t14.5 -42.5t38 -33.5t74 -15q35 4 61 14.5t47 24t40 28t40 27.5q37 31 72 62t73 62q48 38 89.5 77t85.5 78q22 17 44 35t45 35t49.5 33t59.5 29q38 13 84 20t89 2q58 -5 106.5 -19t83 -35.5t51.5 -49t13 -58.5zM2166 1553q-11 -26 -41 -49t-72 -40t-92.5 -26.5t-101.5 -9.5 q-52 0 -97.5 11.5t-68.5 31.5q-29 23 -41 50.5t2 57.5q10 31 41.5 58.5t76.5 51.5q38 21 87 37.5t102 12.5q67 0 113.5 -20t70.5 -47q26 -26 32 -57t-11 -62zM1461 1558q-3 -25 -27 -49t-62 -42t-87 -27.5t-101 -4.5q-57 3 -106 16t-80 35q-33 22 -46.5 50.5t-2.5 57.5 q6 15 20 28.5t33 26t40.5 24t44.5 22.5q45 17 97.5 33t109.5 18q63 4 103 -15t57 -45q14 -31 18 -63t-11 -65z" />
<glyph unicode="&#x2c6;" horiz-adv-x="1270" d="M1812 1517q-10 -17 -32 -32t-51 -26t-63 -17.5t-69 -6.5q-69 -1 -113 21t-62 51q-16 33 -35.5 65.5t-36.5 65.5q-48 -35 -96.5 -68t-99.5 -68q-23 -14 -50.5 -28t-58.5 -25t-65 -17t-70 -4q-45 1 -76 12t-49 27t-24 36t-2 40q9 29 34.5 56t61 52t77 48.5t82.5 46.5 q45 21 92 43t98 41t106.5 32t116.5 15q60 0 107.5 -11.5t86 -29t69.5 -39.5t58 -44q25 -23 45 -47.5t32 -51t12.5 -54.5t-13.5 -57q-2 -7 -6 -13t-6 -13z" />
<glyph unicode="&#x2da;" horiz-adv-x="1283" d="M1684 1082q-23 -54 -90 -102.5t-162 -83.5q-95 -36 -204.5 -59t-220.5 -21q-103 0 -185.5 23t-135.5 60q-59 36 -81.5 83.5t-7.5 97.5q18 56 81.5 106.5t157.5 88.5q89 40 199 62.5t221 21.5q104 -2 189 -25.5t140 -63.5q61 -38 89.5 -86t9.5 -102zM1357 1092 q9 25 -10 46t-50 36q-32 16 -74 26t-93 10q-43 -1 -80.5 -11.5t-66.5 -26.5t-48.5 -36t-26.5 -39q-12 -22 -9 -44t21.5 -40t52.5 -28.5t85 -8.5q50 -3 102 5t95.5 23.5t71.5 38t30 49.5z" />
<glyph unicode="&#x2dc;" horiz-adv-x="1765" d="M2333 1616q-2 -19 -18.5 -37t-43 -34t-61 -28.5t-72.5 -19.5q-122 -27 -245 -51t-249 -26q-54 0 -101.5 10t-79.5 29q-23 14 -54 25.5t-71 13.5q-54 2 -102.5 -11t-93.5 -30q-27 -10 -54 -21.5t-62 -15.5q-48 2 -87 14t-69 30l-26 20t-23 21t-14.5 22.5t0.5 25.5 q5 24 28.5 46t58.5 40t77.5 32.5t86.5 24.5q85 23 177.5 37.5t182.5 14.5q52 2 97 -8t77 -27q23 -14 55 -24.5t72 -12.5q44 0 89.5 2.5t89.5 11.5q36 11 74 19.5t71 22.5q20 7 40.5 8t41.5 1q45 -3 83 -14.5t66 -28t44 -38t15 -44.5z" />
<glyph unicode="&#x2000;" horiz-adv-x="992" />
<glyph unicode="&#x2001;" horiz-adv-x="1985" />
<glyph unicode="&#x2002;" horiz-adv-x="992" />
<glyph unicode="&#x2003;" horiz-adv-x="1985" />
<glyph unicode="&#x2004;" horiz-adv-x="661" />
<glyph unicode="&#x2005;" horiz-adv-x="496" />
<glyph unicode="&#x2006;" horiz-adv-x="330" />
<glyph unicode="&#x2007;" horiz-adv-x="330" />
<glyph unicode="&#x2008;" horiz-adv-x="248" />
<glyph unicode="&#x2009;" horiz-adv-x="397" />
<glyph unicode="&#x200a;" horiz-adv-x="110" />
<glyph unicode="&#x2010;" horiz-adv-x="1717" d="M1949 678q-13 -22 -42 -40t-68 -32t-83 -22.5t-87 -10.5q-244 -8 -483 -7t-481 2q-103 8 -164 45q-16 9 -30 19.5t-23 22t-12.5 24t2.5 26.5q38 38 102.5 59t139.5 30.5t153.5 12.5t145.5 5q46 -1 90 -1t91 -2q46 0 91 -1.5t91 -1.5q91 0 180.5 -3t178.5 -8q42 -5 83 -14 t72 -23.5t47 -34.5t6 -45z" />
<glyph unicode="&#x2011;" horiz-adv-x="1717" d="M1949 678q-13 -22 -42 -40t-68 -32t-83 -22.5t-87 -10.5q-244 -8 -483 -7t-481 2q-103 8 -164 45q-16 9 -30 19.5t-23 22t-12.5 24t2.5 26.5q38 38 102.5 59t139.5 30.5t153.5 12.5t145.5 5q46 -1 90 -1t91 -2q46 0 91 -1.5t91 -1.5q91 0 180.5 -3t178.5 -8q42 -5 83 -14 t72 -23.5t47 -34.5t6 -45z" />
<glyph unicode="&#x2012;" horiz-adv-x="1717" d="M1949 678q-13 -22 -42 -40t-68 -32t-83 -22.5t-87 -10.5q-244 -8 -483 -7t-481 2q-103 8 -164 45q-16 9 -30 19.5t-23 22t-12.5 24t2.5 26.5q38 38 102.5 59t139.5 30.5t153.5 12.5t145.5 5q46 -1 90 -1t91 -2q46 0 91 -1.5t91 -1.5q91 0 180.5 -3t178.5 -8q42 -5 83 -14 t72 -23.5t47 -34.5t6 -45z" />
<glyph unicode="&#x2013;" horiz-adv-x="1447" d="M1657 679q-14 -21 -41.5 -39t-63.5 -32t-77.5 -22.5t-83.5 -10.5q-171 -4 -342.5 -6.5t-340.5 -0.5q-50 2 -92 13t-65 32q-33 17 -49 41t-7 51q22 25 57 42.5t78.5 28.5t92.5 17.5t99.5 9.5t100 4.5t92.5 3.5q57 -2 112 -3t112 -1q43 0 92.5 -2t98 -7t92 -14t75.5 -23 t48.5 -34t11.5 -48z" />
<glyph unicode="&#x2014;" horiz-adv-x="2232" d="M2439 681q-8 -23 -36 -41t-67 -31t-83.5 -21t-86.5 -11q-78 -2 -158 -6t-158 -6q-186 -8 -368.5 -13.5t-365.5 -7.5q-93 -1 -181.5 5.5t-175.5 17.5q-58 9 -109.5 21t-87 28.5t-50.5 38t0 48.5q40 38 105 58.5t140 30t153 13t146 6.5q118 0 238 1t237 -1q118 0 233 -0.5 t233 -3.5q45 -1 95 -3t99 -7t94 -13.5t79 -22t54.5 -33.5t20.5 -47z" />
<glyph unicode="&#x2018;" horiz-adv-x="795" d="M1195 930q-9 -20 -32.5 -38.5t-57 -32.5t-73.5 -22.5t-81 -8.5q-64 11 -106 34.5t-71 53.5t-49.5 62t-41.5 61q-22 32 -40.5 65.5t-30 68t-14 70t9.5 71.5q12 22 41.5 37t67.5 24.5t80 14t79 4.5q58 -12 96.5 -35t65 -51.5t45.5 -60t38 -59.5q19 -31 36.5 -62t29.5 -63.5 t15 -65.5t-7 -67z" />
<glyph unicode="&#x2019;" horiz-adv-x="778" d="M1266 1248q-12 -41 -38.5 -81.5t-65 -80t-86.5 -77t-103 -72.5q-30 -19 -61.5 -39t-67.5 -37.5t-77.5 -29.5t-90.5 -15q-53 1 -90.5 14t-59 33t-27.5 44.5t3 48.5q11 33 34 64.5t53.5 62.5t65.5 61.5t70 60.5q39 25 76 54.5t79 56.5t93 47.5t118 27.5q56 0 93.5 -13.5 t58 -34t26 -46t-2.5 -49.5z" />
<glyph unicode="&#x201a;" horiz-adv-x="802" d="M905 159q-16 -36 -49 -69.5t-77.5 -65t-96 -60.5t-105.5 -56q-30 -14 -61 -29.5t-64.5 -28.5t-70.5 -21.5t-79 -9.5q-14 2 -29 2t-31 2q-39 2 -64 12t-39 24.5t-17.5 32.5t1.5 35q10 31 33.5 60.5t55.5 58t69.5 56t75.5 53.5q40 23 83.5 49.5t92.5 49t104.5 38 t120.5 17.5q53 -3 93 -16t54 -39q8 -23 8 -47t-8 -48z" />
<glyph unicode="&#x201c;" horiz-adv-x="1481" d="M1830 930q-11 -21 -35.5 -39t-58.5 -30.5t-74.5 -20t-81.5 -7.5q-63 9 -102 32t-65 52t-44.5 61t-42.5 60q-19 34 -39.5 69t-36 70.5t-22.5 72t1 74.5q9 22 39.5 36.5t70 22.5t83 10t78.5 1q60 -13 98 -36.5t65 -52.5t47 -60t43 -59q18 -30 36.5 -61t31.5 -63t16.5 -65 t-7.5 -67zM1251 879q-5 -22 -28 -39.5t-56.5 -30t-74 -18.5t-82.5 -4q-65 13 -107 37t-72.5 53t-53.5 61.5t-48 61.5q-21 32 -40 65t-30.5 67t-13 69.5t13.5 71.5q13 22 43 36.5t68.5 23.5t81 13t80.5 6q57 -12 92 -35.5t58 -52t40.5 -58.5t39.5 -57q16 -33 34 -65.5t32 -66 t21.5 -68t1.5 -70.5z" />
<glyph unicode="&#x201d;" horiz-adv-x="1427" d="M1865 1169q-11 -42 -37.5 -82.5t-65.5 -79.5t-88 -76.5t-106 -72.5q-32 -18 -65 -38t-70 -37.5t-78.5 -31t-89.5 -17.5q-42 -1 -81.5 5.5t-68.5 19.5t-44.5 31t-7.5 41q3 13 18 25.5t32 24.5q31 23 58 47t51 48q46 51 98 100t98 100q24 19 49.5 41t57 41.5t70.5 33.5 t89 17q55 0 94 -12.5t61.5 -32.5t29 -45t-3.5 -50zM1300 1258q-33 -87 -111.5 -168t-193.5 -155q-28 -18 -59 -37.5t-66 -36.5t-75 -28.5t-87 -13.5q-54 -1 -93 10.5t-62 30.5t-29.5 43.5t3.5 48.5q11 33 34 65t54.5 63t68 61.5t74.5 59.5q37 26 75.5 55.5t82 56t95.5 47.5 t117 31q58 4 97 -7t60 -31t24.5 -45.5t-9.5 -49.5z" />
<glyph unicode="&#x201e;" horiz-adv-x="1420" d="M1469 87q-11 -42 -38 -82.5t-66 -79.5t-88 -76t-105 -71q-33 -18 -66.5 -38.5t-70 -38.5t-78 -31.5t-90.5 -17.5q-42 -1 -81.5 5.5t-68.5 19.5t-44 31t-7 41q5 13 18.5 26.5t30.5 24.5q35 22 59.5 46.5t51.5 49.5q46 50 97 98.5t98 99.5q24 19 49.5 41t56.5 41.5t70 33 t90 15.5q55 0 94 -12t61.5 -31.5t29 -44.5t-2.5 -50zM903 176q-31 -85 -110 -166.5t-194 -154.5q-28 -18 -59 -38t-66.5 -37t-76 -29t-86.5 -14q-54 0 -92.5 11.5t-61.5 30.5t-30 43t3 48q11 33 35 65t55.5 63t67.5 61.5t72 59.5q38 26 75.5 55.5t81 56.5t95.5 48t118 32 q58 4 97 -7.5t60 -32t25 -46t-9 -49.5z" />
<glyph unicode="&#x2022;" horiz-adv-x="1249" d="M1534 794q-19 -69 -79.5 -135t-162.5 -121q-47 -28 -105.5 -51t-123 -39t-133 -24.5t-136.5 -7.5q-114 4 -183.5 34.5t-102.5 75.5t-33.5 98.5t22.5 102.5q8 38 37 76.5t75 73.5t106.5 64t130.5 50t147.5 31t158.5 7q93 0 167.5 -21.5t126.5 -53.5q25 -17 45 -35 t32 -38.5t15.5 -42t-4.5 -44.5z" />
<glyph unicode="&#x2026;" horiz-adv-x="2307" d="M2280 114q-14 -31 -52 -56.5t-90.5 -43.5t-113 -28t-118.5 -10q-57 -2 -104.5 10.5t-69.5 37.5q-14 13 -21 28.5t-9 31.5t0 32t5 32q9 32 45 61.5t81 55.5q37 22 89 37.5t107 11.5q75 0 131 -20t89 -48q35 -27 42 -62t-11 -70zM1594 121q-5 -30 -37 -57t-80.5 -46.5 t-107.5 -30t-116 -6.5q-66 -2 -117 13.5t-86 37.5q-38 25 -53 55t-4 63q5 17 19.5 33.5t34 32t43 29.5t47.5 28q50 23 108.5 39.5t123.5 16.5q34 0 66.5 -4.5t59 -13.5t46.5 -21.5t29 -28.5q27 -31 34.5 -66.5t-10.5 -73.5zM887 113q-6 -12 -10.5 -23.5t-11 -23.5t-16.5 -23 t-25 -21q-63 -31 -118 -39.5t-104 -6.5q-66 2 -124 16t-96 37q-46 22 -64.5 53t-10.5 66q6 17 22.5 32.5t39.5 29t50 26t54 23.5q53 23 113.5 38.5t125.5 18.5q33 1 62 -3.5t51.5 -13.5t38 -21t20.5 -27q18 -32 14.5 -67.5t-11.5 -70.5z" />
<glyph unicode="&#x202f;" horiz-adv-x="397" />
<glyph unicode="&#x2039;" horiz-adv-x="1137" d="M1232 498q-8 -21 -28.5 -41t-51 -36t-70.5 -26t-85 -11q-107 5 -193.5 28.5t-161 56.5t-139.5 71t-129 73q-27 10 -37.5 27.5t-8.5 35.5q24 34 66 63t94 55t109 50.5t110 48.5q57 21 115.5 44t120 42.5t126 33t134.5 16.5q41 -4 75.5 -14t58.5 -25t37 -34t10 -41 q-6 -34 -39.5 -67t-90.5 -58q-59 -27 -122 -51.5t-123 -50.5q44 -21 85 -42.5t89 -41.5q36 -22 51 -48.5t-2 -57.5z" />
<glyph unicode="&#x203a;" horiz-adv-x="1137" d="M1524 737q-23 -34 -65 -63.5t-94.5 -56t-110.5 -50.5t-112 -48q-56 -21 -115 -43.5t-121 -42t-127 -33t-134 -16.5q-41 4 -75.5 14.5t-58.5 25.5t-36 34.5t-9 41.5q9 33 42 66.5t91 56.5q60 27 122 51.5t124 50.5q-44 21 -87 42.5t-87 41.5q-38 20 -54 49t-1 58 q8 21 29.5 40.5t53 35.5t70.5 26t83 11q109 -5 196 -28t161.5 -55.5t140 -71t130.5 -72.5q47 -27 44 -65z" />
<glyph unicode="&#x205f;" horiz-adv-x="496" />
<glyph unicode="&#x20ac;" horiz-adv-x="2386" d="M2726 954q-2 -24 -22.5 -50t-55.5 -46t-82.5 -31t-102.5 -6q-39 -2 -75 3.5t-65.5 15t-51.5 23.5t-34 31q-15 15 -26 31t-20.5 32.5t-19 32.5t-21.5 32q-19 31 -69 51.5t-118 22.5q-65 0 -121.5 -14t-105 -36.5t-88.5 -50t-73 -53.5h21q47 2 98.5 0t100 -8.5t91 -18 t71.5 -28.5t40.5 -40t-0.5 -52q-5 -29 -37 -49.5t-79 -34t-101 -19.5t-102 -4q-80 1 -159 0.5t-159 -0.5q-9 -18 -19.5 -35t-19.5 -35q20 -2 41 -2h43q45 1 96.5 -1t100.5 -7.5t92.5 -16t72.5 -26.5t40 -38.5t-3 -52.5q-5 -20 -25.5 -37t-51.5 -30t-68.5 -21.5t-74.5 -11.5 q-80 -8 -158.5 -6.5t-159.5 -0.5q1 -16 6.5 -34t19.5 -33.5t38 -25.5t63 -11q59 0 120.5 2.5t122.5 9.5t120.5 19.5t114.5 31.5q41 15 81.5 31t85.5 27q41 15 88 19t91 7q55 4 90 -7t51 -30.5t14 -44t-20 -46.5q-2 -11 -8 -20t-13 -18q-29 -32 -75.5 -58.5t-103 -49 t-118 -41t-121.5 -34.5q-122 -32 -247.5 -54.5t-255.5 -26.5q-79 -1 -154 6.5t-142 22.5t-124.5 37t-100.5 51q-90 58 -141.5 128.5t-64.5 148.5q-39 2 -77 2t-75 3q-51 0 -94.5 11t-72.5 29t-41.5 41.5t-3.5 49.5q13 32 55.5 52t98.5 32t117.5 17.5t112.5 8.5q7 17 16 34 t13 34q-22 -2 -43.5 -0.5t-41.5 0.5q-50 0 -89.5 11t-65 29t-34.5 41t3 47q22 36 74.5 58.5t118 35.5t137 19t131.5 10q82 85 193 163.5t257 145.5q67 32 146 58t163.5 44t172.5 26.5t172 5.5q82 -1 155.5 -13t138 -31.5t119.5 -45t101 -55.5q45 -29 83.5 -61t65 -68 t37 -74.5t0.5 -79.5z" />
<glyph unicode="&#x2122;" horiz-adv-x="2492" d="M2659 768q-9 -17 -29.5 -32t-40.5 -29q-23 -14 -52.5 -24.5t-65.5 -15.5q-33 -3 -60 1.5t-46 14.5t-28 24t-7 29q0 28 10.5 56.5t23.5 57.5q15 33 25.5 65.5t22.5 65.5q-42 -35 -82.5 -71.5t-85.5 -72t-96.5 -68.5t-114.5 -59q-60 0 -89 21.5t-36 48.5q-9 32 -13 65 t-11 65l-5 -12q-6 -18 -9 -35t-5 -35q-6 -17 -9.5 -33.5t-12.5 -33.5q-5 -18 -21 -37.5t-42 -35.5t-61.5 -26t-78.5 -8q-40 -1 -67 7.5t-43.5 22.5t-24 31t-7.5 34q7 38 16.5 77t26.5 77q27 84 62.5 166.5t91.5 164.5q-71 -13 -142 -19.5t-140 -4.5q-55 -102 -106 -203 t-94 -203q-2 -9 -7 -17l-10 -16q-19 -22 -28.5 -34.5t-22.5 -21.5q-11 -8 -24.5 -17.5t-29.5 -17.5t-35 -13t-41 -5q-41 -1 -76.5 5.5t-60 19t-36.5 30t-7 37.5q9 32 21.5 66t29.5 66q20 35 38 69t32 69q17 46 33.5 92t20.5 92q-59 0 -116.5 -0.5t-116.5 -0.5 q-25 4 -36.5 14t-15.5 23q-8 13 -9.5 27.5t3.5 28.5q9 15 29.5 26t46.5 17.5t54 10t54 3.5q106 4 210.5 9t210.5 13q84 2 168.5 6.5t168.5 7.5q48 0 85.5 -11.5t59.5 -31.5q26 17 63.5 27.5t76.5 10.5q64 0 105.5 -22.5t54.5 -51.5q33 -57 51 -114.5t29 -117.5 q40 40 79.5 80.5t87.5 78.5q27 22 49.5 44t47 40t53 30.5t67.5 14.5q41 0 71 -9t52 -22.5t37.5 -30.5t27.5 -33q20 -35 31.5 -72.5t2.5 -76.5l-24 -68q-9 -18 -19 -35t-17 -35q-5 -19 -5 -37q0 -17 -5 -36q-8 -19 -13 -37.5t-11 -37t-15 -36.5t-24 -36z" />
<glyph unicode="&#xe000;" horiz-adv-x="1370" d="M0 1370h1370v-1370h-1370v1370z" />
<glyph horiz-adv-x="1370" d="M0 0z" />
</font>
</defs>
</svg>
