<?xml version="1.0" standalone="no"?>
<!DOCTYPE svg PUBLIC "-//W3C//DTD SVG 1.1//EN" "http://www.w3.org/Graphics/SVG/1.1/DTD/svg11.dtd" >
<svg xmlns="http://www.w3.org/2000/svg">
<metadata></metadata>
<defs>
<font id="folks-heavyregular" horiz-adv-x="0" >
<font-face units-per-em="1000" ascent="800" descent="-200" />
<missing-glyph horiz-adv-x="290" />
<glyph horiz-adv-x="1000" />
<glyph horiz-adv-x="1000" />
<glyph horiz-adv-x="333" />
<glyph horiz-adv-x="391" d="M1 707q0 -35 23.5 -59t57.5 -39t71.5 -21.5t64.5 -6.5q29 0 68 6.5t74.5 21.5t60 40t24.5 63q0 29 -17 50t-48 21q-5 0 -10.5 -0.5t-10.5 -3.5q-30 -22 -60.5 -35.5t-68.5 -13.5q-33 0 -58 8.5t-44.5 18t-35 18t-28.5 8.5q-14 0 -26 -7t-20 -18t-12.5 -24.5t-4.5 -26.5z " />
<glyph />
<glyph horiz-adv-x="301" d="M24 689q0 -26 11.5 -46.5t29.5 -34.5t41.5 -21.5t47.5 -7.5q23 0 46 8t41 22t29 34.5t11 45.5t-11.5 45.5t-29.5 34.5t-41 21.5t-47 7.5q-23 0 -46 -7.5t-41 -21.5t-29.5 -34.5t-11.5 -45.5zM124 689q0 11 9 19t20 8t19 -8.5t8 -19.5t-8 -19t-19 -8q-13 0 -21 7.5 t-8 20.5z" />
<glyph unicode="&#xa;" horiz-adv-x="460" d="M29 208q10 -13 21.5 -25t22.5 -23l57 53q22 -16 48 -24.5t53 -8.5t53 8.5t48 24.5l54 -54q11 11 23 22.5t22 24.5l-53 52q16 22 25 48.5t9 53.5q0 29 -8 56t-25 50l52 49q-8 13 -20 27t-25 22l-54 -56q-22 16 -48 24t-53 8q-55 0 -102 -33l-55 56q-13 -11 -23.5 -22.5 t-19.5 -24.5l51 -51q-29 -47 -29 -103t29 -102zM115 360q0 24 9.5 45.5t25 37t37 25t45.5 9.5t45.5 -9t37.5 -25t25 -37.5t9 -45.5t-9 -45.5t-25 -37.5t-37.5 -25t-45.5 -9t-45.5 9.5t-37 25t-25 37t-9.5 45.5z" />
<glyph />
<glyph horiz-adv-x="375" d="M217 739q-11 4 -31.5 13.5t-43 18.5t-43 16t-32.5 7q-30 0 -50.5 -21.5t-20.5 -51.5q0 -22 11.5 -40t31.5 -26l141 -57q9 -4 18.5 -7t20.5 -3q9 0 18.5 2.5t17.5 6.5l137 56q20 8 33 26.5t13 41.5q0 30 -21.5 51t-50.5 21q-12 0 -32.5 -7t-42.5 -16t-42 -18t-32 -13z" />
<glyph unicode="&#xd;" horiz-adv-x="244" d="M32 2l223 -1v434q0 22 -9 42.5t-24 36t-35 24.5t-43 9t-43.5 -8.5t-35.5 -23.5t-24 -35t-9 -44v-434z" />
<glyph horiz-adv-x="269" d="M-124 42l133 -79l372 668q10 17 10 38q0 32 -23 55.5t-55 23.5q-20 0 -38 -10.5t-28 -28.5z" />
<glyph horiz-adv-x="629" d="M102 256l126 -125l111 103l63 -64q26 -26 64 -26q37 0 62 26t25 63q0 21 -9 38.5t-22.5 32.5t-29 28.5t-28.5 26.5l65 65q26 26 26 63q0 38 -25 64t-63 26q-21 0 -38.5 -9t-32.5 -22t-29 -29t-27 -29l-65 65q-26 26 -63 26t-63 -26.5t-26 -63.5q0 -38 26 -64l65 -65z" />
<glyph horiz-adv-x="457" />
<glyph />
<glyph />
<glyph />
<glyph />
<glyph unicode=" "  horiz-adv-x="290" />
<glyph unicode="&#x09;" horiz-adv-x="290" />
<glyph unicode="&#xa0;" horiz-adv-x="290" />
<glyph unicode="!" horiz-adv-x="285" d="M38 102q0 -25 9.5 -47t26 -38.5t39 -26t47.5 -9.5t47.5 9.5t39 26t26 38.5t9.5 48q0 25 -9.5 47.5t-26.5 38.5t-39.5 25.5t-47.5 9.5t-47 -9.5t-38.5 -26t-26 -39t-9.5 -47.5zM48 357q0 -23 9 -43.5t24 -35.5t35.5 -24t43.5 -9t43 9t35 24t23.5 35t8.5 43v364l-222 1 v-364z" />
<glyph unicode="&#x22;" horiz-adv-x="396" d="M29 468h124l42 252h-144zM231 468h124l42 252h-144z" />
<glyph unicode="#" horiz-adv-x="611" d="M171 274h-98q-17 0 -31 -12t-14 -29q0 -13 9 -22t21 -9h97q-2 -12 -8.5 -40t-13 -58t-11.5 -56.5t-5 -35.5q0 -13 9.5 -20.5t21.5 -7.5q15 0 25.5 10.5t13.5 24.5l40 183h87q-2 -9 -9 -37.5t-14.5 -60.5t-13.5 -59t-6 -32q0 -11 9 -19.5t20 -8.5q16 0 28 8.5t16 24.5 l42 184h98q19 0 31 12.5t12 31.5q0 11 -9 20t-20 9l-97 -1l37 172h95q18 0 33.5 11t15.5 31q0 14 -9 23t-23 9l-97 -2l44 200h-74l-42 -200h-86l42 200h-72l-42 -200l-96 2q-17 0 -31.5 -11.5t-14.5 -30.5q0 -13 9 -22.5t22 -9.5h95zM243 274l36 172h87l-37 -172h-86z" />
<glyph unicode="$" horiz-adv-x="578" d="M295 196q-29 0 -56.5 6t-55 15.5t-54.5 20t-53 19.5l-57 -197q66 -28 135 -48.5t141 -20.5v-88h36v90q51 0 100.5 19.5t89.5 53.5t64.5 80t24.5 100q0 55 -24 91.5t-61.5 61t-82.5 40t-88 27.5q-13 4 -22 5l1 53q17 -3 33 -8.5l32 -11t32 -9.5t34 -4q41 0 68.5 28 t27.5 69t-23.5 67.5t-58 42.5t-74 22.5t-71.5 7.5v90q0 8 -4.5 14.5t-13.5 6.5q-8 0 -13 -6t-5 -14v-92q-50 -5 -100 -23t-91 -49t-66.5 -75t-25.5 -100q0 -57 27 -94.5t69 -62t91.5 -38.5t94.5 -23zM297 531l-1 -51q-5 1 -14 4t-18 7t-15.5 9.5t-6.5 12.5q0 6 4.5 9.5t11 6 t13 3.5t10.5 1q6 0 16 -2zM331 197l1 57q4 -2 11 -3.5t13 -3.5t10.5 -5.5t4.5 -9.5q0 -18 -13 -24t-27 -11z" />
<glyph unicode="%" horiz-adv-x="803" d="M33 554q0 -39 14.5 -72t40 -57.5t59.5 -38.5t72 -14q37 0 70.5 14.5t58.5 39.5t40 58.5t15 70.5q0 38 -14.5 71.5t-39.5 58t-58.5 39t-71.5 14.5q-37 0 -71 -14.5t-59.5 -40t-40.5 -59t-15 -70.5zM186 554q0 13 10 21t22 8t22 -7t10 -21t-10 -21.5t-23 -7.5 q-12 0 -21.5 7.5t-9.5 20.5zM592 758l-437 -628q-17 -25 -17 -55q0 -37 25.5 -64t63.5 -27q24 0 45.5 11.5t35.5 31.5l439 629zM453 165q0 -37 15 -70t40 -58t58.5 -39.5t70.5 -14.5t70 14t58 39t39.5 57.5t14.5 70.5q0 37 -14 70t-39 58t-58 39t-70 14q-38 0 -71.5 -14 t-58.5 -38t-40 -57t-15 -71zM606 164q0 14 9.5 22t23.5 8q13 0 22 -8t9 -21q0 -14 -10.5 -21.5t-23.5 -7.5t-21.5 7.5t-8.5 20.5z" />
<glyph unicode="&#x26;" horiz-adv-x="724" d="M140 428q-51 -32 -84 -82t-33 -113t26 -109t68 -76t96 -45t110 -15q54 0 95.5 15.5t89.5 36.5q9 -9 22.5 -21.5t28 -24.5t29 -20.5t27.5 -8.5q21 0 39 8.5t31.5 22.5t21 32.5t7.5 38.5q0 31 -13 48t-35 37l116 95l-139 155l-121 -95l-48 48q28 10 54 26.5t45.5 39 t31 49.5t11.5 59q0 56 -22 95t-58 63t-82.5 35t-95.5 11q-44 0 -90.5 -11.5t-84.5 -35t-62.5 -60.5t-24.5 -88q0 -34 12 -59t32 -51zM381 495q-12 5 -26 16t-14 26q0 12 9 21t21 9q14 0 25.5 -9t11.5 -23q0 -9 -9.5 -22.5t-17.5 -17.5zM276 284l95 -97q-13 -3 -25 -6t-25 -3 q-12 0 -24.5 5t-23 14t-17 20t-6.5 23q0 14 7.5 25.5t18.5 18.5z" />
<glyph unicode="'" horiz-adv-x="216" d="M29 468h124l42 252h-144z" />
<glyph unicode="(" horiz-adv-x="280" d="M18 359q0 -45 5 -89t14 -89q4 -18 9 -44.5t12 -56t17 -59t24 -54t32 -41.5t42 -21q5 -1 15 -1q18 0 34.5 7t30 19t21.5 28t8 34q0 11 -2.5 21t-5.5 20q-26 82 -46.5 160.5t-20.5 166.5q0 21 1 45t4 48.5t7.5 47.5t10.5 43q6 17 11.5 42.5t11.5 52.5t12.5 52t14.5 41 q1 0 -15 4.5t-38.5 10.5t-46.5 12.5t-39 11t-16 4.5q-12 -21 -25 -51t-25 -62.5t-22 -65t-16 -60.5q-9 -44 -14 -88t-5 -89z" />
<glyph unicode=")" horiz-adv-x="280" d="M282 319q0 45 -5.5 89.5t-13.5 88.5q-6 28 -14.5 72t-23.5 87.5t-38.5 77t-59.5 39.5q-10 2 -16 2q-18 0 -34.5 -7t-29.5 -19t-21 -28t-8 -34q0 -20 8 -42q13 -41 25 -80.5t21.5 -79.5t15 -81.5t5.5 -84.5q0 -21 -1 -45t-4 -48.5t-7.5 -48.5t-10.5 -43q-5 -17 -11 -42.5 t-12 -52.5t-13 -52t-14 -41q-1 0 23 -6.5t53.5 -14.5t54 -14.5l24.5 -6.5q12 21 25.5 50.5t25.5 62t22 65t15 60.5q9 45 14 88.5t5 88.5z" />
<glyph unicode="*" horiz-adv-x="400" d="M13 442l103 -12l46 45q-7 -15 -15.5 -33t-8.5 -36q0 -26 19.5 -44t45.5 -18t46 18t20 45q0 17 -8.5 34.5t-15.5 33.5l46 -45l103 12l-61 73l-51 28l54 23l56 73l-99 16l-51 -41q7 14 18 31t11 34q0 12 -6.5 22t-16.5 17t-22 11t-23 4t-23 -4t-21.5 -11t-16 -17t-6.5 -22 q0 -17 11 -34t18 -31l-51 41l-99 -16l56 -73l54 -23l-51 -28z" />
<glyph unicode="+" horiz-adv-x="628" d="M99 441v-179h152v-92q0 -18 7 -34t19 -29q25 -27 63 -27q17 0 33.5 6.5t28.5 19.5q27 27 27 64v91q19 0 39.5 -1.5t41 0t39 7t33.5 20.5q26 26 26 62q0 35 -27 62q-15 15 -33.5 21t-39 7.5t-41 0t-38.5 -1.5v92q0 18 -7 34.5t-19 28.5t-28.5 19.5t-34.5 7.5 q-37 0 -63.5 -26t-26.5 -63v-90h-151z" />
<glyph unicode="," horiz-adv-x="259" d="M78 204l-99 -238q-9 -21 -9 -45q0 -43 28.5 -73.5t72.5 -30.5q30 0 57 17t40 45l106 235z" />
<glyph unicode="-" horiz-adv-x="456" d="M115 386q-19 0 -35.5 -7t-29 -19t-19.5 -28.5t-7 -35.5q0 -38 26.5 -63.5t64.5 -25.5h340l1 179h-341z" />
<glyph unicode="." horiz-adv-x="294" d="M8 103q0 -26 10 -48t26.5 -38.5t39 -26t47.5 -9.5t47 9.5t38.5 26t26 39t9.5 47.5t-9.5 47t-26 38.5t-38.5 26t-47 9.5t-47.5 -9.5t-39 -25.5t-26.5 -38.5t-10 -47.5z" />
<glyph unicode="/" horiz-adv-x="434" d="M284 768l-270 -659q-3 -8 -5 -16.5t-2 -17.5q0 -19 7.5 -36t20.5 -29.5t30 -19.5t36 -7q28 0 51 15t34 41l270 659z" />
<glyph unicode="0" horiz-adv-x="629" d="M20 360q0 -47 9.5 -94t29.5 -89t50.5 -78t72.5 -61q35 -21 75 -34t82 -13t81.5 12.5t74.5 34.5q42 25 72 61t50 78t29.5 89t9.5 94t-9.5 94t-29.5 89.5t-50 79t-72 61.5q-35 21 -74.5 34t-81.5 13t-82 -13t-75 -34q-42 -25 -73 -61t-50.5 -78.5t-29 -89.5t-9.5 -95z M234 360q0 23 5.5 53t17.5 57t32 46t49 19q30 0 50 -18.5t32 -45t17.5 -56.5t5.5 -53q0 -24 -4.5 -54.5t-16 -58.5t-31.5 -47t-50 -19q-33 0 -53.5 18t-32.5 45t-16.5 58t-4.5 56z" />
<glyph unicode="1" horiz-adv-x="628" d="M169 720q-42 0 -71 -28.5t-29 -70.5q0 -21 8 -39t22 -32t32 -22t39 -8h63v-518l231 -1v610q0 50 -29 79.5t-79 29.5h-187z" />
<glyph unicode="2" horiz-adv-x="628" d="M420 200q31 26 65.5 61.5t64 76.5t48.5 84.5t19 86.5q0 56 -24.5 97t-64 68t-88.5 40.5t-98 13.5q-57 0 -105 -14t-95 -48q-18 -13 -34 -29t-28.5 -35t-20 -40t-7.5 -44q0 -22 7.5 -41t21.5 -33.5t32.5 -22.5t41.5 -8q26 0 44.5 9t32.5 22t25.5 29t23.5 29t27 22t36 9 q13 0 27 -7t14 -23q0 -9 -12 -27t-30 -40t-39.5 -45.5t-41 -44t-33.5 -35t-18 -18.5q-30 -31 -60.5 -61t-60.5 -60q-16 -16 -26 -35.5t-10 -42.5q0 -24 9 -41.5t24.5 -29t35.5 -17.5t41 -6h466v200h-210z" />
<glyph unicode="3" horiz-adv-x="626" d="M518 398q29 25 47 63.5t18 76.5q0 49 -21.5 84.5t-55.5 58.5t-76.5 34.5t-85.5 11.5q-41 0 -76 -7.5t-67.5 -20t-64.5 -29t-68 -35.5l78 -176q10 4 37.5 15.5t58.5 23.5t57 21t33 9q12 0 25 -5.5t13 -20.5q0 -8 -6 -15.5t-14 -7.5q-25 0 -49 -4.5t-42.5 -16t-30 -31 t-11.5 -48.5v-5q0 -37 13 -56t33 -27.5t43 -10.5t43 -5t33 -11.5t13 -29.5q0 -22 -18 -33t-38 -11q-27 0 -48.5 13.5t-41.5 30t-42.5 30.5t-51.5 14q-43 0 -72.5 -29t-29.5 -72q0 -45 29 -80t71.5 -59t90.5 -36t87 -12q51 0 103 17t94.5 48.5t69.5 76.5t27 102 q0 59 -29 97.5t-78 66.5z" />
<glyph unicode="4" horiz-adv-x="628" d="M408 729q-25 0 -44 -6.5t-35 -17.5t-30 -27.5t-28 -35.5l-242 -342q-10 -14 -16 -30.5t-6 -33.5q0 -25 10 -43.5t26 -31t37 -19t44 -6.5h202v-136l231 1v133q22 0 42 6.5t35 19t24 31t9 42.5t-8.5 42t-23.5 31t-34.5 19.5t-41.5 6.5v214q0 40 -7 73.5t-24 58t-46 38 t-74 13.5zM225 333l102 158v-158h-102z" />
<glyph unicode="5" horiz-adv-x="627" d="M248 720q-35 0 -64.5 -23.5t-35.5 -58.5l-47 -266q-1 -4 -1 -8v-9q0 -37 26 -64t64 -27q16 0 31 5t30 11.5t30.5 11.5t31.5 5q24 0 45 -12.5t21 -40.5q0 -13 -6 -23t-16 -16.5t-21.5 -9.5t-23.5 -3q-21 0 -41.5 6t-40.5 13t-40 13t-41 6t-40 -7t-33 -20t-22.5 -31 t-8.5 -39q0 -44 30 -72t72 -44t88.5 -22.5t79.5 -6.5q90 0 160.5 37t109.5 121q11 25 18 52.5t7 54.5q0 45 -16.5 84t-45.5 67t-68 44t-84 16q-19 0 -39.5 -2t-38.5 -7l13 61h222l40 204h-345z" />
<glyph unicode="6" horiz-adv-x="628" d="M388 471q-2 0 13 19t36 46t43 56t34 48l-197 106q-36 -50 -72 -99t-71 -99q-18 -26 -39 -53.5t-35 -56.5q-23 -45 -37 -94t-14 -100q0 -64 24 -111.5t65 -79t94.5 -47t112.5 -15.5q57 0 108.5 18.5t89.5 53t60.5 83t22.5 108.5q0 39 -12 73.5t-34 61.5t-53.5 46t-69.5 27 q-17 4 -34.5 5.5t-34.5 3.5zM334 194q-10 0 -20.5 4t-19 11t-14 16.5t-5.5 20.5q0 23 19.5 37.5t40.5 14.5q22 0 41 -14t19 -37t-19.5 -38t-41.5 -15z" />
<glyph unicode="7" horiz-adv-x="628" d="M45 720v-199h325l-236 -359q-17 -26 -17 -57q0 -23 9 -43t24.5 -35t36.5 -23.5t44 -8.5q32 0 61 16.5t45 45.5l295 519q12 21 12 45q0 22 -9 40.5t-24.5 31.5t-35 20t-40.5 7h-490z" />
<glyph unicode="8" horiz-adv-x="628" d="M137 390q-24 -9 -42 -25.5t-30.5 -38t-18.5 -46t-6 -49.5q0 -62 26 -106.5t68.5 -73.5t96 -43t107.5 -14t107.5 14t96 43t68.5 74t26 107q0 24 -6 48.5t-18.5 46t-30.5 38t-42 25.5q27 26 42 59t15 71q0 36 -13.5 69.5t-36.5 60.5q-18 22 -42 37t-50.5 24.5t-54.5 13.5 t-56 4q-29 0 -59 -3.5t-57.5 -12.5t-52.5 -24t-44 -39q-23 -28 -37 -61t-14 -69q0 -38 15.5 -71t42.5 -59zM339 463q-18 0 -34 12t-16 31q0 20 15.5 32t33.5 12t33.5 -12.5t15.5 -31.5t-15.5 -31t-32.5 -12zM266 258q0 13 6.5 25t16.5 20t23 13t25 5q13 0 26 -5t23.5 -13.5 t17 -20t6.5 -25.5t-6.5 -25.5t-17 -20t-23 -13t-25.5 -4.5t-26 5t-23 13.5t-16.5 20t-6.5 25.5z" />
<glyph unicode="9" horiz-adv-x="629" d="M288 246q-38 -40 -72 -83.5t-66 -88.5l160 -109q1 1 17 16t43 40.5t54.5 53t51.5 54t36 43.5q22 32 43 68t36.5 74.5t25 78.5t9.5 80q0 64 -24 112t-64.5 79.5t-94 47t-112.5 15.5q-60 0 -111.5 -19t-89.5 -53.5t-59.5 -84t-21.5 -110.5q0 -54 19 -93t51.5 -64.5t76 -39 t92.5 -17.5zM280 470q0 23 18.5 38.5t41.5 15.5q22 0 41 -15t19 -38t-19 -37.5t-41 -14.5q-21 0 -40.5 14t-19.5 37z" />
<glyph unicode=":" horiz-adv-x="286" d="M39 103q0 -26 10 -48t26.5 -38.5t39 -26t47.5 -9.5t47 9.5t38.5 26t26 39t9.5 47.5t-9.5 47t-26 38.5t-38.5 26t-47 9.5t-47.5 -9.5t-39 -25.5t-26.5 -38.5t-10 -47.5zM38 437q0 -25 9.5 -47.5t26 -39t38.5 -26t47 -9.5t47.5 9.5t39 26t26 38.5t9.5 48q0 25 -9.5 47 t-26 38.5t-38.5 26t-47 9.5t-47.5 -9.5t-39 -26t-26 -38.5t-9.5 -47z" />
<glyph unicode=";" horiz-adv-x="300" d="M55 435q0 -26 10 -48.5t26.5 -39t39 -26t48.5 -9.5q25 0 47.5 9.5t39 26t26 39t9.5 47.5t-10 47.5t-26.5 39.5t-39 27t-47.5 10q-26 0 -48 -9.5t-39 -26.5t-26.5 -39.5t-9.5 -47.5zM114 233l-120 -267q-9 -21 -9 -44q0 -44 28 -74.5t73 -30.5q30 0 57 17.5t40 44.5 l127 264z" />
<glyph unicode="&#x3c;" horiz-adv-x="489" d="M29 360l421 -233v163l-145 70l145 70v163z" />
<glyph unicode="=" horiz-adv-x="628" d="M57 327l-1 -178h465q18 0 34 7t28.5 19t19.5 28t7 34q0 38 -25.5 64t-63.5 26h-464zM57 548v-179h464q38 0 63.5 26t25.5 64t-26 63.5t-64 25.5h-463z" />
<glyph unicode="&#x3e;" horiz-adv-x="489" d="M29 127l421 233l-421 233v-163l145 -70l-145 -70v-163z" />
<glyph unicode="?" horiz-adv-x="522" d="M144 104q0 -25 9.5 -47.5t26 -39t39 -26t47.5 -9.5t47.5 9.5t39.5 26t26.5 38.5t9.5 48q0 25 -10 47.5t-26.5 39t-39 26t-47.5 9.5t-47.5 -9.5t-39 -26t-26 -39t-9.5 -47.5zM378 348q31 7 59 22.5t48.5 38t32.5 51.5t12 63q0 56 -23.5 96.5t-62 67t-87 39.5t-98.5 13 q-35 0 -78.5 -10.5t-82 -32t-65 -53t-26.5 -73.5q0 -18 6 -34t17 -28t26 -19.5t34 -7.5q24 0 44 10t39.5 22.5t40.5 22.5t46 10q16 0 31.5 -6.5t15.5 -26.5q0 -11 -11 -16.5t-27.5 -10t-36 -10t-36 -16.5t-27.5 -30.5t-11 -50.5v-39q0 -22 -0.5 -42.5t-0.5 -35.5v-14l223 2z " />
<glyph unicode="@" horiz-adv-x="782" d="M456 72q0 -18 6.5 -32t18 -24t26.5 -15.5t32 -5.5q48 0 86 28.5t64 71t39.5 91.5t13.5 90q0 67 -25 123t-68 96.5t-100.5 63t-123.5 22.5q-81 0 -149.5 -28.5t-119 -78.5t-79 -119.5t-28.5 -150.5q0 -80 26 -148t73 -118.5t113.5 -79t147.5 -28.5q0 2 1 14t1.5 25.5 l0.5 13.5q-48 0 -86.5 12t-69 34.5t-54.5 55.5t-45 76q-16 32 -23 67.5t-7 71.5q0 65 22 122.5t62 100t95.5 67.5t122.5 25q54 0 99.5 -18t78 -51t51 -78t18.5 -99q0 -48 -15.5 -96.5t-49.5 -83.5q-12 -13 -27.5 -26.5t-35.5 -13.5q-19 0 -28.5 13t-9.5 30q0 31 5 61.5 t10 60.5l36 204h-54l-7 -45q-10 29 -35.5 42.5t-54.5 13.5q-47 0 -82.5 -25.5t-59 -64t-35.5 -84t-12 -84.5q0 -30 7 -60.5t23 -56t40.5 -41.5t59.5 -16q38 0 63.5 21t41.5 54zM360 46q-23 0 -36.5 10t-21.5 25.5t-10.5 34t-2.5 36.5q0 27 7 66.5t22 76t39 62t59 25.5 q32 0 46.5 -21t14.5 -50q0 -21 -5.5 -56.5t-15.5 -72.5t-23 -69.5t-29 -48.5q-18 -18 -44 -18z" />
<glyph unicode="A" horiz-adv-x="663" d="M343 726q-63 0 -107 -34.5t-67 -91.5l-172 -440q-13 -31 -13 -61q0 -24 9.5 -44.5t26 -35t37.5 -22.5t45 -8q27 0 46.5 9.5t33 25.5t23 36.5t17.5 43.5h243l34 -127l226 56l-208 567q-21 58 -66 92t-108 34zM289 303l54 192l54 -192h-108z" />
<glyph unicode="B" horiz-adv-x="611" d="M29 -1q92 2 182.5 1.5t182.5 -0.5q47 0 90 15t76 43t52.5 68t19.5 90q0 42 -16 78.5t-48 63.5q-3 2 -8.5 6t-11.5 7.5t-10.5 7t-5.5 4.5q20 26 29 58t9 64q0 52 -22.5 92t-58.5 67.5t-82 41.5t-94 14h-166q-25 0 -46.5 -9.5t-37.5 -25.5t-25 -38t-9 -46v-602zM261 458v64 h51q14 0 26.5 -9t12.5 -23t-11.5 -23t-25.5 -9h-53zM260 199v67h109q14 0 23 -10.5t9 -24.5q0 -13 -9.5 -22.5t-22.5 -9.5h-109z" />
<glyph unicode="C" horiz-adv-x="644" d="M20 364q0 -61 22 -120t60 -107q57 -74 138.5 -109t173.5 -35q32 0 73.5 7.5t78.5 25t62.5 46t25.5 69.5q0 21 -8.5 38t-22.5 29.5t-32 19t-38 6.5t-39 -4.5t-39 -10.5t-40.5 -10.5t-43.5 -4.5q-35 0 -62 12.5t-45.5 34t-28 50.5t-9.5 63q0 37 12.5 64t33.5 46.5 t49.5 31.5t61.5 18q13 3 26 3q35 0 76.5 -13t72.5 -29l62 179q-27 9 -62 19.5t-72 19t-72.5 14.5t-62.5 6h-11t-11 -1q-66 -9 -126 -40.5t-105 -79t-71.5 -108.5t-26.5 -130z" />
<glyph unicode="D" horiz-adv-x="705" d="M29 721v-604q0 -24 9 -45.5t24.5 -37t36.5 -25t45 -9.5h194q79 0 148.5 26t121 73t81 114t29.5 148q0 45 -10 85q-18 75 -56.5 127t-92 84.5t-119 47.5t-137.5 15q-69 0 -137 -0.5t-137 1.5zM260 199v321h46q38 0 71 -10.5t58 -31.5t39 -51.5t14 -70.5q0 -37 -14 -66 t-37.5 -49.5t-55 -31t-66.5 -10.5h-55z" />
<glyph unicode="E" horiz-adv-x="504" d="M29 118q0 -23 9 -44t25 -37.5t37 -26.5t44 -10h369l-1 200h-252v62h131q20 0 39 7.5t34 20t24 30.5t9 39q0 40 -30 68q-33 31 -77 31h-130v61h158q21 0 39 8t31.5 22t21 32.5t7.5 38.5t-7.5 38t-20.5 32t-31 22t-38 8h-57l-334 -1v-601z" />
<glyph unicode="F" horiz-adv-x="474" d="M29 0v603q0 25 9 46t24.5 37t37 25t46.5 9h353l1 -202h-239v-71h133q21 0 39 -8t31.5 -22t21 -32t7.5 -39q0 -20 -8 -38t-22 -31.5t-32 -21t-38 -7.5h-132v-248h-232z" />
<glyph unicode="G" horiz-adv-x="759" d="M541 237q-9 -14 -24 -22.5t-32.5 -14t-35.5 -7.5t-33 -2q-36 0 -67 12.5t-53.5 34.5t-35.5 53t-13 67q0 37 12.5 68t34.5 54t53 36t68 13q42 0 84.5 -17.5t78.5 -35.5l77 189q-53 33 -114 48t-123 15q-78 0 -149.5 -27.5t-127 -77t-88.5 -117.5t-33 -150q0 -86 33 -153.5 t89.5 -114.5t130 -72t154.5 -25q73 0 137.5 23t112.5 66t76 104t28 137q0 55 -24.5 86.5t-82.5 31.5h-194q-20 0 -38.5 -8t-32.5 -21.5t-22 -31.5t-8 -39q0 -43 29.5 -72.5t72.5 -29.5h60z" />
<glyph unicode="H" horiz-adv-x="729" d="M29 0v612q0 24 9 45t24.5 37t36.5 25t45 9q48 0 83 -35q34 -34 34 -82v-145h227v252l232 1v-613q0 -24 -9 -45t-25 -36.5t-36.5 -25t-44.5 -9.5t-45 9t-37 25t-25 37t-9 45v160h-229v-266h-231z" />
<glyph unicode="I" horiz-adv-x="265" d="M29 -1h231v612q0 24 -9 45t-24.5 36.5t-36.5 25t-45 9.5t-45 -9t-37 -24.5t-25 -36.5t-9 -45v-613zM60 837q0 -32 22.5 -55t54.5 -23t54.5 22.5t22.5 54.5t-22.5 55.5t-54.5 23.5q-16 0 -30 -6.5t-24.5 -17t-16.5 -24.5t-6 -30z" />
<glyph unicode="J" horiz-adv-x="453" d="M345 728q-24 0 -44.5 -9.5t-36 -25t-24.5 -36.5t-9 -45v-360q0 -9 -1 -20t-4 -21t-10 -16.5t-19 -6.5q-9 0 -28.5 5.5t-42 12.5t-43.5 14.5t-33 10.5l-43 -183q24 -9 50 -19t52.5 -18.5t53 -14.5t52.5 -6q60 0 105.5 19.5t76 54t46.5 83t16 105.5v358q0 24 -8.5 45 t-24 37.5t-36.5 26t-45 9.5z" />
<glyph unicode="K" horiz-adv-x="648" d="M29 0h230v301l223 -270q16 -19 39 -28.5t46 -9.5q24 0 45.5 9t37.5 24.5t25.5 36.5t9.5 45q0 43 -29 75l-181 201l199 196l-170 155l-244 -266v143q0 24 -9 45t-24.5 36.5t-36 25t-44.5 9.5t-45.5 -8.5t-37 -24t-25 -36.5t-9.5 -45v-614z" />
<glyph unicode="L" horiz-adv-x="475" d="M29 0h471v199h-239v412q0 24 -9.5 45t-25 37t-36.5 25.5t-45 9.5t-45 -9t-37 -25t-25 -37t-9 -45v-612z" />
<glyph unicode="M" horiz-adv-x="903" d="M246 730q-60 0 -101 -35t-51 -93l-82 -475q-1 -5 -1.5 -11t-0.5 -11q0 -24 9 -44.5t24 -36t36 -24t45 -8.5q21 0 40.5 7.5t35 20.5t25.5 31t13 39l34 287l93 -301h199l92 301l49 -388l225 37l-95 576q-10 59 -51.5 93.5t-100.5 34.5q-51 0 -91 -30t-54 -79l-74 -251 l-74 251q-14 49 -53.5 79t-90.5 30z" />
<glyph unicode="N" horiz-adv-x="731" d="M29 0l231 -1v353l262 -318q17 -20 40 -31t49 -11q24 0 45.5 9t37 24.5t24.5 36.5t9 45v504q0 24 -9 45t-25 36.5t-36.5 25t-44.5 9.5t-45 -9.5t-36.5 -25t-25 -36.5t-9.5 -45v-235l-254 298q-19 22 -44 38.5t-55 16.5q-24 0 -45 -9.5t-36.5 -26t-24 -37.5t-8.5 -45v-611z " />
<glyph unicode="O" horiz-adv-x="774" d="M20 360q0 -78 31.5 -145.5t84 -117.5t122 -78.5t145.5 -28.5t145.5 28.5t122 78.5t84 117.5t31.5 145.5t-31.5 145.5t-84 117.5t-122 78.5t-145.5 28.5t-145 -28.5t-122 -78.5t-84.5 -117.5t-31.5 -145.5zM249 360q0 33 11 64t31 54t48.5 37t63.5 14t63.5 -14t49 -37.5 t31.5 -54.5t11 -65q0 -33 -11.5 -63t-32 -53.5t-49.5 -37t-63 -13.5q-35 0 -63 14t-48 37.5t-31 54t-11 63.5z" />
<glyph unicode="P" horiz-adv-x="605" d="M29 111q0 -24 9 -45.5t24.5 -38t37 -26t45.5 -9.5q47 0 80 33q18 18 26 40.5t10 46.5t0.5 48.5t-1.5 47.5q33 0 67 -1t67 4q52 7 96.5 27t76.5 53t50 77t18 99q0 58 -22.5 105t-60 80t-88 51t-105.5 18h-330v-610zM260 408v108h92q23 0 39.5 -15t16.5 -38t-16.5 -39 t-39.5 -16h-92z" />
<glyph unicode="Q" horiz-adv-x="776" d="M722 161q32 43 48 93t16 104q0 78 -31 146t-83.5 118.5t-122 79t-146.5 28.5q-76 0 -145.5 -28.5t-122 -78.5t-84 -117.5t-31.5 -145.5q0 -77 31.5 -144.5t84.5 -117.5t122 -79.5t145 -29.5q45 0 86 10.5t83 26.5l140 -138l141 144zM249 360q0 33 11 64t31 54t48.5 37 t63.5 14t63.5 -14t48.5 -37t31 -54t11 -64t-11 -63.5t-31 -54t-48.5 -37.5t-62.5 -14q-35 0 -64 13.5t-49 37t-31 54t-11 64.5z" />
<glyph unicode="R" horiz-adv-x="608" d="M29 108q0 -24 9 -45t25 -37t36.5 -25.5t44.5 -9.5t44.5 9t36.5 24.5t25 36t9 44.5v169l210 -309l196 122l-146 201q51 39 79.5 83.5t28.5 110.5q0 58 -20.5 102.5t-56 75t-83 46t-102.5 15.5h-336v-613zM260 434v86h100q17 0 27 -14t10 -30q0 -17 -12 -29.5t-29 -12.5 h-96z" />
<glyph unicode="S" horiz-adv-x="578" d="M56 261l-1 -1q-1 -2 -3 -8q-4 -10 -6.5 -19.5t-5.5 -19.5q-5 -16 -11 -35t-12 -39t-11 -39.5t-7 -35.5q26 -15 64.5 -28.5t80.5 -23t82 -15t70 -5.5q75 0 140.5 22t115.5 80q26 30 41 67.5t15 77.5q0 47 -16 81t-42.5 58.5t-61.5 41t-73 28.5t-77 21t-73 18q-7 2 -14.5 6 t-7.5 12q0 14 13 19.5t24 5.5q24 0 48 -6t47 -12.5t46.5 -12.5t47.5 -6q39 0 65 28t26 67q0 41 -24.5 68t-60 42.5t-76 22t-73.5 6.5q-54 0 -109 -15t-99.5 -45t-72.5 -75.5t-28 -106.5q0 -56 22.5 -93t58.5 -61t81.5 -38.5t90.5 -24.5q6 -2 23 -5t34.5 -8t31.5 -12t14 -16 q0 -10 -6.5 -16.5t-16.5 -10.5t-20.5 -5.5t-17.5 -1.5q-28 0 -62.5 8t-69.5 18.5t-67.5 22t-56.5 19.5z" />
<glyph unicode="T" horiz-adv-x="529" d="M11 720l1 -198h157v-415q0 -24 9 -45t24.5 -36.5t36.5 -24.5t45 -9q23 0 44 9t36.5 24.5t24.5 36t9 43.5v415h84q20 0 38 8t31.5 21.5t21.5 31t8 37.5q0 21 -7.5 39.5t-20.5 32.5t-31.5 22t-39.5 8h-471z" />
<glyph unicode="U" horiz-adv-x="738" d="M29 323q0 -79 27 -140.5t74 -104t112 -64.5t142 -22q76 0 141.5 22t113 64.5t74.5 104t27 140.5v288q0 24 -9 45.5t-25 37.5t-37 25.5t-45 9.5t-44.5 -9.5t-36.5 -25t-25 -36.5t-9 -45v-297q0 -57 -33.5 -92t-90.5 -35q-58 0 -91.5 35t-33.5 92v405h-231v-398z" />
<glyph unicode="V" horiz-adv-x="632" d="M174 730l-216 -82l262 -580q15 -34 41 -56.5t65 -22.5q45 0 70 20.5t42 58.5l224 503q9 21 9 44q0 24 -9.5 44.5t-26 35.5t-38 24t-44.5 9q-36 0 -65 -20.5t-41 -54.5l-118 -324z" />
<glyph unicode="W" horiz-adv-x="961" d="M-18 689l153 -570q15 -57 52.5 -92.5t99.5 -35.5q52 0 91 31t54 79l73 230l73 -229q15 -48 54.5 -79t90.5 -31q63 0 99.5 35t52.5 93l130 472q3 10 3 20q0 23 -9.5 44t-26 37t-37.5 25.5t-44 9.5q-45 0 -73.5 -28.5t-40.5 -69.5l-85 -291l-85 300h-204l-85 -300l-108 388 z" />
<glyph unicode="X" horiz-adv-x="625" d="M186 387l-165 -211q-24 -30 -24 -68q0 -23 9 -44.5t25 -37.5t37 -25.5t44 -9.5q33 0 59.5 19t44.5 45l104 154l104 -154q18 -26 44.5 -45t59.5 -19q23 0 43.5 9.5t36.5 25.5t25 37t9 44q0 37 -24 69l-165 211l132 151q14 16 21.5 35.5t7.5 39.5q0 22 -9 43t-25 37 t-36.5 25.5t-42.5 9.5q-32 0 -59 -19t-46 -44l-76 -99l-135 171l-169 -151z" />
<glyph unicode="Y" horiz-adv-x="598" d="M160 730l-176 -144l221 -248v-230q0 -24 9 -45.5t24.5 -37.5t37 -25.5t45.5 -9.5t45 9.5t36.5 26t24.5 37.5t9 45v230l191 207q12 13 17.5 29.5t5.5 33.5q0 23 -9 45t-24.5 38.5t-36.5 26.5t-45 10q-31 0 -56.5 -17t-44.5 -40l-114 -138z" />
<glyph unicode="Z" horiz-adv-x="649" d="M317 521l-283 -358q-11 -13 -16 -30t-5 -34q0 -23 9 -41.5t24 -31t34.5 -19.5t41.5 -7h463q42 0 71 28.5t29 70.5q0 21 -7.5 39t-21 31.5t-31.5 21.5t-39 8h-245l280 351q12 15 20 31.5t8 36.5q0 21 -9 40t-24 32.5t-34.5 21.5t-40.5 8h-515v-199h291z" />
<glyph unicode="[" horiz-adv-x="341" d="M38 -33q0 -32 20.5 -56t54.5 -24h268l-3 198h-110v550h23q20 0 38 8t31 21.5t20.5 31.5t7.5 38q0 42 -28.5 70.5t-70.5 28.5h-176q-34 0 -54.5 -24t-20.5 -56v-786z" />
<glyph unicode="\" horiz-adv-x="320" d="M29 720l126 -720h144l-126 720h-144z" />
<glyph unicode="]" horiz-adv-x="341" d="M26 85l2 -198h257q34 0 54 24t20 56v786q0 32 -20 56t-54 24h-177q-42 0 -70.5 -28.5t-28.5 -70.5q0 -20 7.5 -38t20.5 -31.5t31 -21.5t38 -8h23v-550h-103z" />
<glyph unicode="^" horiz-adv-x="537" d="M29 149h164l69 146l70 -146h164l-234 422z" />
<glyph unicode="_" horiz-adv-x="428" d="M29 -237h360v43h-360v-43z" />
<glyph unicode="`" horiz-adv-x="280" d="M91 794l-54 -135l182 -71q13 -5 26 -5q29 0 50.5 21.5t21.5 50.5q0 21 -12 39t-32 26z" />
<glyph unicode="a" horiz-adv-x="613" d="M414 485q-21 35 -54.5 50t-72.5 15q-59 0 -108.5 -23.5t-84.5 -63t-54.5 -91.5t-19.5 -109t20 -107t56 -86.5t85 -57.5t106 -21q41 0 73 15t54 50q-2 -13 -1.5 -27.5t1.5 -28.5h193v439q0 48 -25.5 79t-76.5 31q-14 0 -29.5 -4t-29 -11.5t-22.5 -20t-10 -28.5zM241 265 q0 16 5 32t15 28.5t23.5 20.5t31.5 8q36 0 56.5 -26t20.5 -61q0 -16 -5.5 -32t-15.5 -28.5t-24 -20t-32 -7.5t-31.5 7.5t-23.5 19.5t-15 27.5t-5 31.5z" />
<glyph unicode="b" horiz-adv-x="610" d="M29 106q0 -52 28 -84t82 -32q29 0 51.5 15.5t28.5 44.5q26 -30 61 -43.5t74 -13.5q58 0 106.5 23.5t83 62.5t53.5 90t19 107t-19.5 105.5t-54 87t-83 59.5t-105.5 22q-52 0 -103 -20v233l-222 1v-658zM319 181q-19 0 -33.5 7.5t-24 20t-14 29t-4.5 33.5q0 33 21 58.5 t56 25.5q36 0 55 -26.5t19 -59.5q0 -35 -19 -61.5t-56 -26.5z" />
<glyph unicode="c" horiz-adv-x="513" d="M20 271q0 -64 24.5 -115.5t66.5 -88t97 -56t116 -19.5h8q29 0 65 4.5t67.5 17t52.5 36.5t21 63q0 19 -8 36t-21.5 30t-30.5 20.5t-36 7.5q-22 0 -55 -8.5t-64 -8.5q-35 0 -59 21t-24 58t25.5 56t60.5 19q18 0 36 -4t37 -9t37.5 -10t36.5 -8q8 50 17 95.5t14 95.5 q-35 14 -71.5 24t-73.5 10q-36 0 -74 -4t-73.5 -14.5t-67 -28.5t-56.5 -47q-30 -35 -49 -80.5t-19 -92.5z" />
<glyph unicode="d" horiz-adv-x="613" d="M385 530q-26 9 -51 14.5t-52 5.5q-57 0 -105.5 -22t-83 -59.5t-54 -87t-19.5 -105.5t19 -107t53.5 -90t82.5 -62.5t106 -23.5q39 0 74.5 13.5t61.5 43.5q6 -29 28.5 -44.5t51.5 -15.5q54 0 82 32t28 84v658h-222v-234zM317 181q-38 0 -57 26.5t-19 61.5q0 34 19.5 60 t55.5 26q38 0 58 -27t20 -62q0 -33 -21 -59t-56 -26z" />
<glyph unicode="e" horiz-adv-x="589" d="M253 217h260q43 0 67 16t24 63q0 54 -25.5 100t-66.5 79.5t-92 52.5t-102 19q-60 0 -114 -20t-95 -56t-65 -87t-24 -114q0 -69 27.5 -121t73 -87t104.5 -52.5t122 -17.5q38 0 76 5t75 17l-24 170q-26 -5 -53 -9.5t-55 -4.5q-32 0 -62.5 10t-50.5 37zM255 325q5 24 21 41 t42 17q25 0 39.5 -17t16.5 -41h-119z" />
<glyph unicode="f" horiz-adv-x="329" d="M72 541q-21 0 -39.5 -6.5t-33 -18.5t-23 -29.5t-8.5 -39.5q0 -18 8 -35.5t21.5 -32t31 -23.5t35.5 -9h6v-583h221v582q21 0 39.5 7t32.5 19.5t22 30.5t8 39q0 45 -28.5 72t-72.5 27q0 5 -0.5 9t-0.5 9q0 9 6.5 15t14.5 8q19 -2 36.5 5t30.5 20t20.5 30.5t7.5 36.5 q0 27 -12.5 47t-32.5 33t-44.5 19.5t-48.5 6.5h-47q-51 0 -80.5 -22.5t-45 -57.5t-20 -77.5t-4.5 -81.5z" />
<glyph unicode="g" horiz-adv-x="611" d="M415 488q-23 32 -56.5 46.5t-72.5 14.5q-59 0 -108 -23.5t-84 -63t-54.5 -91.5t-19.5 -109t19.5 -107t54.5 -86.5t83.5 -58t106.5 -21.5q26 0 51.5 6.5t48.5 20.5q0 -2 0.5 -4.5t0.5 -4.5q0 -34 -23 -54.5t-57 -20.5q-39 0 -78 9t-77 18l-24 -186q42 -14 86.5 -22.5 t89.5 -8.5q81 0 138.5 26t94 71.5t54 109t17.5 138.5v349q0 54 -25 85t-82 31q-31 0 -55 -16t-29 -48zM317 186q-37 0 -56.5 26t-19.5 60t22 58.5t57 24.5q17 0 31 -7.5t24 -19.5t15.5 -28t5.5 -32q0 -34 -22 -58t-57 -24z" />
<glyph unicode="h" horiz-adv-x="593" d="M29 1h223v310q0 24 17 39.5t40 15.5t38.5 -16.5t15.5 -39.5v-209q0 -23 8.5 -43t23.5 -36t35 -25t43 -9q24 0 44.5 8.5t36 23.5t24.5 35.5t9 44.5v260q0 43 -15 78t-42 59.5t-63 38t-78 13.5q-35 0 -71 -8.5t-66 -25.5v160q0 23 -9 43.5t-24 35.5t-35.5 23.5t-43.5 8.5 t-43 -8.5t-35 -23.5t-24 -35t-9 -43v-675z" />
<glyph unicode="i" horiz-adv-x="260" d="M32 2l223 -1v434q0 22 -9 42.5t-24 36t-35 24.5t-43 9t-43.5 -8.5t-35.5 -23.5t-24 -35t-9 -44v-434zM60 687q0 -32 22.5 -55t54.5 -23t54.5 22.5t22.5 54.5t-22.5 55.5t-54.5 23.5q-16 0 -30 -6.5t-24.5 -17t-16.5 -24.5t-6 -30z" />
<glyph unicode="j" horiz-adv-x="259" d="M33 -150q0 -22 8.5 -42t23.5 -35.5t34.5 -24.5t42.5 -9t43.5 8.5t36 23.5t24.5 35t9 44v668l-222 1v-669zM60 687q0 -32 22.5 -55t54.5 -23t54.5 22.5t22.5 54.5t-22.5 55.5t-54.5 23.5q-16 0 -30 -6.5t-24.5 -17t-16.5 -24.5t-6 -30z" />
<glyph unicode="k" horiz-adv-x="532" d="M29 1l221 -1v207l162 -231l180 127l-159 193q15 15 31.5 31t31 33.5t24 37.5t9.5 43t-8.5 42t-23.5 33t-35 22t-42 8q-27 0 -50.5 -12t-40.5 -33l-79 -102v276q0 23 -9 43t-24 35t-35 23.5t-43 8.5t-43 -9t-35 -24t-23.5 -35t-8.5 -42v-674z" />
<glyph unicode="l" horiz-adv-x="258" d="M29 0l222 1v672q0 22 -8.5 42t-23.5 35.5t-35 24.5t-42 9q-23 0 -43.5 -8t-36 -22.5t-24.5 -34.5t-9 -44v-675z" />
<glyph unicode="m" horiz-adv-x="895" d="M29 0h220v310q0 22 16 35t36 13t33.5 -15t13.5 -34v-309l220 -1v308q0 20 14.5 34t34.5 14t34.5 -14.5t14.5 -34.5v-204q0 -24 9 -44t24.5 -35t36 -23.5t43.5 -8.5t43 9t35 24t23.5 35t8.5 43v259q0 42 -16.5 76.5t-44.5 59t-65 38t-77 13.5q-46 0 -89.5 -15t-79.5 -43 q-32 30 -73 46t-85 16q-40 0 -77.5 -16t-60.5 -50q-5 31 -28 46.5t-53 15.5q-54 0 -82.5 -29t-28.5 -83v-436z" />
<glyph unicode="n" horiz-adv-x="592" d="M29 1h222v309q0 23 16.5 39.5t39.5 16.5t39.5 -16.5t16.5 -39.5v-208q0 -24 9 -44t24 -35t35.5 -23.5t44.5 -8.5q23 0 43 9t35 24.5t24 35.5t9 43v256q0 45 -18.5 80.5t-49.5 60t-70.5 37t-81.5 12.5q-43 0 -80.5 -16t-62.5 -52q-7 31 -31 50t-56 19q-23 0 -43 -9.5 t-34.5 -25t-22.5 -36.5t-8 -43v-435z" />
<glyph unicode="o" horiz-adv-x="601" d="M20 267q0 -61 24 -112t65 -88t94.5 -57.5t112.5 -20.5q60 0 113.5 21t94 58.5t64.5 89t24 112.5t-24 112.5t-64.5 89t-94 58t-113.5 20.5t-114 -21t-94.5 -59t-64 -90t-23.5 -113zM238 268q0 17 5.5 33t15.5 28.5t24.5 20t32.5 7.5t32.5 -7.5t24.5 -20t15.5 -28.5 t5.5 -33q0 -36 -19 -64.5t-59 -28.5q-19 0 -33.5 8t-24.5 21t-15 30t-5 34z" />
<glyph unicode="p" horiz-adv-x="611" d="M29 -237h222v250q51 -20 103 -20q57 0 105.5 21.5t83 58.5t54 87t19.5 106q0 55 -19 106.5t-53.5 91t-82.5 63t-106 23.5q-39 0 -74.5 -14t-61.5 -44q-6 29 -29 44.5t-52 15.5q-55 0 -82 -32t-27 -84v-673zM243 273q0 17 5 33t14.5 28.5t23.5 20t33 7.5q37 0 56 -27.5 t19 -61.5t-19.5 -60t-55.5 -26q-35 0 -55.5 26t-20.5 60z" />
<glyph unicode="q" horiz-adv-x="610" d="M417 492q-26 30 -61.5 44t-75.5 14q-57 0 -105 -23.5t-82.5 -63t-53.5 -91t-19 -106.5q0 -56 19.5 -105.5t54 -87t82.5 -59.5t105 -22q10 0 24 1.5t29 4t29 6.5t22 9v-252l222 -1v676q0 52 -28 84t-82 32q-29 0 -51.5 -15.5t-28.5 -44.5zM241 273q0 35 19.5 61.5 t56.5 26.5q35 0 56 -26t21 -59q0 -35 -20 -62t-58 -27q-36 0 -55.5 26t-19.5 60z" />
<glyph unicode="r" horiz-adv-x="378" d="M29 -1h221v207q0 22 1 46t18 41q20 22 51 32t60 22t49.5 32.5t20.5 63.5q0 21 -8 39.5t-22 32t-33 21.5t-40 8q-35 0 -62.5 -20t-41.5 -52q0 19 -8 33t-21 23.5t-30 14t-34 4.5q-24 0 -45.5 -8t-38.5 -22.5t-27 -35t-10 -45.5v-437z" />
<glyph unicode="s" horiz-adv-x="476" d="M62 206l-38 -164q57 -20 115.5 -36t118.5 -16q40 0 82.5 10.5t77 33t56.5 56.5t22 81q0 44 -19 74t-47.5 49.5t-62 31.5t-62 21t-47.5 16.5t-19 17.5q0 3 3 6l5 5q7 3 15 3q18 0 35.5 -4t35.5 -9t36 -9t36 -4q32 0 54.5 21t22.5 53q0 33 -24 53.5t-58 32t-69.5 16 t-59.5 4.5q-39 0 -82 -10t-79 -32t-59.5 -55.5t-23.5 -79.5q0 -44 19 -72.5t47 -47t61 -28.5t61 -17t47 -14t19 -19q0 -13 -12 -14t-21 -1q-10 0 -35.5 6t-54.5 14t-56 15.5t-40 11.5z" />
<glyph unicode="t" horiz-adv-x="344" d="M83 541q-21 0 -40.5 -5.5t-34 -17t-23.5 -29t-9 -40.5q0 -22 9 -39t23.5 -29t33.5 -18t40 -6v-357l223 -1v356q21 0 40.5 6t34.5 17.5t24 29t9 40.5q0 47 -32 70t-75 23v45q0 23 -8.5 44t-23.5 36.5t-35.5 24.5t-44.5 9q-23 0 -43.5 -9t-35.5 -24t-23.5 -35.5t-8.5 -43.5 v-47z" />
<glyph unicode="u" horiz-adv-x="590" d="M29 243q0 -68 19 -116t55 -78.5t87.5 -45t116.5 -14.5q64 0 115.5 14.5t87.5 45t55 78.5t19 116v193q0 23 -9 43.5t-24 35.5t-35.5 23.5t-43.5 8.5t-43.5 -9t-35.5 -24.5t-24 -36t-9 -43.5v-190q0 -25 -13.5 -43t-40.5 -18t-40.5 18t-13.5 43v291l-223 1v-293z" />
<glyph unicode="v" horiz-adv-x="501" d="M267 296l-106 246l-185 -91l184 -378q17 -36 42 -57.5t68 -21.5q38 0 62.5 24t40.5 55l156 310q6 13 10 26.5t4 27.5q0 22 -9 42t-24 35t-35.5 24t-42.5 9q-35 0 -66 -19t-42 -54z" />
<glyph unicode="w" horiz-adv-x="811" d="M260 315l-91 242l-182 -97l166 -388q14 -33 40 -54t64 -21q37 0 64 20.5t41 53.5l58 142l58 -142q14 -34 41.5 -54t64.5 -20q38 0 63 21.5t41 53.5l153 310q13 25 13 56q0 23 -8.5 43.5t-23.5 35.5t-35.5 23.5t-43.5 8.5q-34 0 -63.5 -19t-40.5 -51l-58 -164l-67 186 h-187z" />
<glyph unicode="x" horiz-adv-x="549" d="M150 281l-120 -97q-17 -14 -26.5 -34.5t-9.5 -43.5q0 -22 9 -42.5t24 -36.5t35 -25.5t43 -9.5q28 0 52.5 14t41.5 35l95 118l94 -118q17 -21 41 -35t52 -14q23 0 43 9.5t35 25t24 36t9 43.5t-9 43.5t-26 34.5l-120 97l92 71q19 14 28 37.5t9 46.5q0 47 -31 79.5t-79 32.5 q-55 0 -88 -44l-74 -100l-143 153l-149 -142z" />
<glyph unicode="y" horiz-adv-x="497" d="M173 539l-195 -88l173 -397l-77 -167q-10 -21 -10 -47q0 -22 9 -40t24 -31.5t34.5 -21t40.5 -7.5q40 0 64.5 22t39.5 57l246 571q11 25 11 51q0 22 -9 42t-24.5 34t-36 22.5t-42.5 8.5q-45 0 -68.5 -26t-36.5 -65l-51 -152z" />
<glyph unicode="z" horiz-adv-x="530" d="M40 541v-195h174l-183 -216q-20 -23 -20 -55q0 -22 8.5 -36.5t22 -23t31 -12t36.5 -3.5h363q20 0 37.5 8t30.5 21.5t20.5 31t7.5 37.5t-8 38t-21.5 31t-31 20.5t-37.5 7.5h-130l184 219q20 23 20 52q0 40 -27 57.5t-63 17.5h-414z" />
<glyph unicode="{" horiz-adv-x="391" d="M29 360q30 -1 48.5 -22t18.5 -50v-310q0 -47 26 -73.5t73 -26.5h178l1 85l-16.5 -1.5t-36 3.5t-36 20t-16.5 47v234q0 38 -26 64t-63 30q37 4 63 30t26 64v254q0 21 8.5 30.5t20.5 13.5t27 4t27 3t20.5 11.5t8.5 27.5q0 18 -12.5 31t-30.5 13h-143q-48 0 -73.5 -26.5 t-25.5 -73.5v-310q0 -29 -18.5 -50t-48.5 -22z" />
<glyph unicode="|" horiz-adv-x="194" d="M29 0h144v720h-144v-720z" />
<glyph unicode="}" horiz-adv-x="391" d="M381 360q-30 1 -48.5 22t-18.5 50v310q0 47 -26 73.5t-73 26.5h-178l-1 -85l16.5 1.5t36 -3.5t36 -20t16.5 -47v-234q0 -38 26 -64t63 -30q-37 -4 -63 -30t-26 -64v-254q0 -21 -8.5 -30.5t-20.5 -13.5t-27 -4t-27 -3t-20.5 -11.5t-8.5 -27.5q0 -18 12.5 -31t30.5 -13h143 q48 0 73.5 26.5t25.5 73.5v310q0 29 18.5 50t48.5 22z" />
<glyph unicode="~" horiz-adv-x="506" d="M29 265h105q0 7 2 17t6.5 19t10.5 15.5t15 6.5q13 0 34.5 -9t47 -19.5t53 -19t51.5 -8.5q39 0 65 19t41.5 48t22.5 63.5t7 66.5h-105q0 -7 -2 -16.5t-6 -18.5t-10 -15.5t-15 -6.5q-15 0 -37 8.5t-47.5 19t-52 19.5t-50.5 9q-39 0 -65 -19t-41.5 -48t-22.5 -64t-7 -67z " />
<glyph unicode="&#xa1;" horiz-adv-x="285" d="M282 600q0 25 -9.5 47t-26 38.5t-39 26t-47.5 9.5t-47.5 -9.5t-39 -26t-26 -39t-9.5 -47.5q0 -26 9.5 -48t26.5 -38t39 -25.5t48 -9.5q25 0 47 9.5t38.5 26t26 39t9.5 47.5zM272 345q0 23 -9 43.5t-24 35.5t-35.5 24t-43.5 9t-43 -9t-35 -24t-23.5 -35.5t-8.5 -42.5v-364 l222 -1v364z" />
<glyph unicode="&#xa2;" horiz-adv-x="513" d="M293 542q-55 -5 -104.5 -26.5t-87 -57t-59.5 -83.5t-22 -106q0 -54 22.5 -104t60.5 -88t88 -60.5t104 -22.5v-95q0 -7 5 -12t12 -5q8 0 13.5 5t5.5 13v93q13 0 40 4t57.5 9.5t59 11t44.5 8.5l-18 194q-46 -8 -91.5 -16.5t-92.5 -13.5v156q29 -5 57.5 -13t57.5 -8 q42 0 66 28t24 68q0 37 -21.5 60.5t-53 37t-67.5 18.5t-64 5v70q0 8 -5.5 12.5t-12.5 4.5t-12.5 -4t-5.5 -12v-71zM294 342v-147q-23 11 -39 30.5t-16 46.5q0 30 15 44.5t40 25.5z" />
<glyph unicode="&#xa3;" horiz-adv-x="670" d="M127 457q-23 0 -43 -6.5t-36 -19.5t-25 -32t-9 -43q0 -21 8 -39t22 -31t32.5 -20.5t39.5 -7.5h45q0 -15 -7 -31t-16.5 -31t-20 -28.5t-18.5 -24.5v-1q-10 -20 -10 -46q0 -16 6.5 -33t17.5 -31t26 -23t33 -9h-1h502l1 198h-291q1 14 4.5 29.5t6.5 29.5h117v198h-144 q-9 15 -9 33q0 12 6 20.5t15 13.5t20 7t22 2q28 0 52 -11t47 -24t47 -24t51 -11q18 0 34 9t27.5 23t18 32t6.5 35q0 37 -24 66t-59 50.5t-74.5 34t-70.5 16.5q-18 2 -36.5 3.5t-36.5 1.5q-54 0 -104.5 -13t-90 -40.5t-63 -71t-23.5 -103.5q0 -11 1 -23.5t4 -23.5z" />
<glyph unicode="&#xa4;" horiz-adv-x="740" d="M29 471v-97h51v-10v-13h-51l-1 -97h71q11 -32 27 -61.5t36 -55.5q57 -74 138.5 -109t173.5 -35q32 0 73.5 7.5t78.5 25t62.5 46t25.5 69.5q0 21 -8.5 38t-22.5 29.5t-32 19t-38 6.5t-39 -4.5t-39 -10.5t-40.5 -10.5t-43.5 -4.5q-36 0 -64 13.5t-46 36.5h178q19 0 36 3.5 t30 10t20.5 15.5t7.5 19q0 20 -27 34.5t-67 14.5h-213v13v10h213q40 0 67 14.5t27 34.5t-27.5 34t-67.5 14h-169q21 21 50.5 33.5t63.5 19.5q13 3 26 3q35 0 76.5 -13t72.5 -29l62 179q-27 9 -62 19.5t-72 19t-72.5 14.5t-62.5 6h-11t-11 -1q-53 -7 -102 -28.5t-89.5 -54.5 t-71.5 -76t-48 -92h-69z" />
<glyph unicode="&#xa5;" horiz-adv-x="670" d="M352 533l-113 138q-19 23 -44.5 40t-57.5 17q-24 0 -44.5 -10t-36 -27t-24.5 -39t-9 -45q0 -17 5.5 -33.5t17.5 -28.5l115 -115l-86 -1q-16 0 -28 -11t-12 -28q0 -16 12 -27t28 -11h150l12 -14l2 -25h-164q-16 0 -28.5 -11t-12.5 -28t12 -27.5t28 -10.5h165l1 -233h231 l-1 234h168q15 0 24.5 12.5t9.5 26.5t-9.5 25.5t-24.5 11.5l-167 -1v26l11 14l155 1q16 0 25 12.5t9 26.5q0 15 -9 26.5t-25 11.5h-88l110 115q12 13 17.5 29.5t5.5 33.5q0 23 -9 44.5t-24.5 38.5t-36.5 27t-45 10q-31 0 -56.5 -17t-44.5 -40z" />
<glyph unicode="&#xa6;" horiz-adv-x="699" d="M424 680q0 19 -7.5 36.5t-20.5 30.5t-30.5 20.5t-37.5 7.5q-40 0 -67.5 -28t-27.5 -68q0 -20 7.5 -37t20.5 -29.5t30 -20t37 -7.5q40 0 68 27.5t28 67.5zM214 680q0 19 -7.5 36.5t-20.5 30.5t-30.5 20.5t-36.5 7.5t-36.5 -7t-30.5 -19.5t-21 -29.5t-8 -36 q0 -41 26.5 -69.5t68.5 -28.5q40 0 68 27.5t28 67.5zM668 421q0 16 -6.5 31.5t-18 27.5t-26.5 19t-32 7q-23 0 -43.5 -12t-36.5 -29l-126 -132l-1 -131l128 -142q14 -16 33 -26t40 -10q18 0 34 7t27.5 19t18.5 27.5t7 33.5q0 20 -8 37.5t-22 31.5l-83 87l84 84 q14 14 22.5 32t8.5 38zM341 1v434q0 22 -9 42.5t-24 36t-35 24.5t-43 9t-43.5 -8.5t-35.5 -23.5t-24 -35t-9 -44v-434zM445 -115q0 30 -17 50.5t-48 20.5h-11q-5 0 -10 -4q-30 -22 -60.5 -35.5t-68.5 -13.5q-33 0 -58 8.5t-44.5 18.5t-34.5 18.5t-28 8.5q-15 0 -26.5 -7 t-20 -18t-13 -24.5t-4.5 -26.5q0 -35 24 -59t57.5 -39t71 -21.5t64.5 -6.5q29 0 68 6.5t74.5 21.5t60 40t24.5 62zM369 639q5 -3 6 -7t-1 -8t-6 -5.5t-9 0.5q-7 3 -12.5 7t-11.5 9q-4 3 -4 7q0 5 2.5 8.5t6.5 4.5t9 -2q10 -8 20 -14zM153 645q5 -3 5 -8t-3.5 -8.5t-9.5 -3 t-14 9.5q-2 2 -3.5 4t-3.5 5q-4 4 -3 8.5t4 7t7 2.5q5 0 8 -4q4 -4 6 -7t7 -6z" />
<glyph unicode="&#xa7;" horiz-adv-x="607" d="M98 435q-38 -32 -59 -77t-21 -95q0 -59 20.5 -94.5t54 -58t77.5 -37.5t91 -33h2q12 -5 23 -9t20 -9.5t14.5 -14.5t5.5 -24q0 -23 -22 -23q-27 0 -47.5 14.5t-40.5 32.5t-41.5 32.5t-49.5 14.5q-19 0 -37.5 -7.5t-33 -20.5t-23.5 -30.5t-9 -36.5q0 -33 23.5 -62.5 t57.5 -52t71.5 -37.5t65.5 -19q17 -2 34 -3.5t34 -1.5q43 0 87.5 10t80.5 32t59 57.5t23 86.5q0 59 -39 104q47 31 74.5 81t27.5 107q0 49 -24.5 82t-61 54.5t-79 36t-79 27.5t-61 28t-24.5 38q0 14 8 23t23 9q8 0 30 -10.5t47 -25t47.5 -28l32.5 -19.5l103 150 q-22 27 -58.5 48t-77.5 35t-83.5 21t-76.5 7q-40 0 -78 -9t-70 -35q-34 -28 -58 -65t-24 -82q0 -31 11 -59.5t30 -51.5zM255 312l91 -33q17 -6 29 -17t12 -30q0 -15 -12 -24v-1l-1 -2l-89 32q-18 7 -31 15t-13 30q0 11 3.5 17t10.5 13z" />
<glyph unicode="&#xa8;" horiz-adv-x="324" d="M-29 683q0 -41 26.5 -69.5t68.5 -28.5q40 0 67.5 27.5t27.5 67.5q0 19 -7.5 36.5t-20 30.5t-30 20.5t-37.5 7.5q-19 0 -36 -7t-30 -19.5t-21 -29.5t-8 -36zM181 679q0 -20 7.5 -37t20.5 -29.5t30 -20t37 -7.5q19 0 36.5 7.5t31 20t21 30t7.5 37.5q0 19 -7.5 36.5 t-20.5 30.5t-30.5 20.5t-37.5 7.5q-41 0 -68 -28t-27 -68z" />
<glyph unicode="&#xa9;" horiz-adv-x="850" d="M50 360q0 -77 29.5 -145t80 -118.5t118.5 -80t145 -29.5t145 29.5t118.5 80t80 118.5t29.5 145t-29.5 145t-80 119t-118.5 80.5t-145 29.5t-145 -29.5t-118.5 -80.5t-80 -119t-29.5 -145zM119 360q0 63 23.5 119.5t64.5 98.5t96.5 66.5t119.5 24.5t119.5 -24.5 t96.5 -66.5t64.5 -98t23.5 -119t-23.5 -119.5t-64.5 -99t-96.5 -67t-119.5 -24.5q-63 0 -118.5 24.5t-97 67t-65 98.5t-23.5 119zM232 358q0 -47 14.5 -88t41.5 -71t66 -47.5t88 -17.5q15 0 38 3.5t45 11.5t37.5 21.5t15.5 33.5q0 17 -10.5 30.5t-28.5 13.5q-10 0 -21 -4 t-22.5 -9t-24 -9t-26.5 -4q-28 0 -49.5 11t-36.5 29t-22.5 41.5t-7.5 49.5q0 27 6.5 52.5t20 46t35 33t51.5 12.5q20 0 38.5 -6t37.5 -13l1 -1q7 -3 16 -3q17 0 27.5 13t10.5 30q0 21 -14 34t-34 20.5t-41.5 10t-36.5 2.5q-50 0 -89.5 -17t-67.5 -47.5t-43 -72t-15 -89.5z " />
<glyph unicode="&#xaa;" horiz-adv-x="421" d="M64 319v-96h279q20 0 32 14.5t12 33.5t-12 33.5t-32 14.5h-279zM282 690q-17 20 -41.5 30.5t-50.5 10.5q-37 0 -66.5 -16.5t-50 -42.5t-31.5 -59.5t-11 -67.5t11 -67t31.5 -59.5t49.5 -42.5t66 -16q27 0 51.5 11t40.5 33q0 -22 12.5 -33t34.5 -11q19 0 33 14t14 33v274 q0 21 -16 34.5t-36 13.5q-18 0 -29.5 -10.5t-11.5 -28.5zM125 544q0 18 5 35.5t14.5 31.5t24.5 22.5t35 8.5t34.5 -8.5t23.5 -22.5t13 -31.5t4 -34.5t-4.5 -34.5t-13.5 -31.5t-23.5 -23t-33.5 -9q-20 0 -34.5 8.5t-24.5 22.5t-15 31t-5 35z" />
<glyph unicode="&#xab;" horiz-adv-x="552" d="M212 528q-23 0 -43 -12t-34 -30l-103 -133q-11 -14 -18.5 -31t-7.5 -36q0 -26 21 -61.5t50 -71t59.5 -67.5t50.5 -50l108 111q-26 36 -53.5 72t-58.5 68l84 85q14 14 22.5 32t8.5 38q0 17 -7 32.5t-19 27.5t-27.5 19t-32.5 7zM476 528q-23 0 -43 -12t-34 -30l-103 -133 q-11 -14 -18 -31t-7 -35q0 -27 20.5 -62.5t49.5 -71t59 -67t50 -50.5l109 111q-26 36 -53.5 72t-58.5 68l84 85q14 14 22.5 32t8.5 38q0 35 -25.5 60.5t-60.5 25.5z" />
<glyph unicode="&#xac;" horiz-adv-x="620" d="M29 360h468v-144h108v288h-576v-144z" />
<glyph unicode="&#xad;" horiz-adv-x="456" d="M115 386q-19 0 -35.5 -7t-29 -19t-19.5 -28.5t-7 -35.5q0 -38 26.5 -63.5t64.5 -25.5h340l1 179h-341z" />
<glyph unicode="&#xae;" horiz-adv-x="850" d="M50 360q0 -77 29.5 -145t80 -118.5t118.5 -80t145 -29.5t145 29.5t118.5 80t80 118.5t29.5 145t-29.5 145t-80 119t-118.5 80.5t-145 29.5t-145 -29.5t-118.5 -80.5t-80 -119t-29.5 -145zM119 360q0 63 23.5 119.5t64.5 98.5t96.5 66.5t119.5 24.5t119.5 -24.5 t96.5 -66.5t64.5 -98t23.5 -119t-23.5 -119.5t-64.5 -99t-96.5 -67t-119.5 -24.5q-63 0 -118.5 24.5t-97 67t-65 98.5t-23.5 119zM258 204q0 -28 20 -48.5t49 -20.5q28 0 48.5 19.5t20.5 48.5v101l125 -185l117 73l-87 120q29 23 46.5 49.5t17.5 66.5q0 34 -12 60.5 t-33 44.5t-49.5 27.5t-61.5 9.5h-201v-366zM396 399v51h60q10 0 16 -8t6 -18t-7 -17.5t-18 -7.5h-57z" />
<glyph unicode="&#xaf;" horiz-adv-x="364" d="M62 736q-27 0 -45 -20.5t-18 -46.5t16.5 -48t45.5 -22h271q29 0 49 20t20 49q0 28 -20 48t-48 20h-271z" />
<glyph unicode="&#xb0;" horiz-adv-x="351" d="M29 590q0 -30 11.5 -56t31 -45.5t45.5 -31t56 -11.5t56 11.5t45.5 31t31 45.5t11.5 56t-11.5 56t-31 45.5t-45.5 31t-56 11.5t-56 -11.5t-45.5 -31t-31 -45.5t-11.5 -56zM79 590q0 19 7.5 36.5t20 30t29.5 20t37 7.5q19 0 36 -7.5t30 -20t20.5 -30t7.5 -36.5t-7.5 -36 t-20.5 -29.5t-30 -20t-36 -7.5t-36 7.5t-30 20t-20.5 29.5t-7.5 36z" />
<glyph unicode="&#xb1;" horiz-adv-x="618" />
<glyph unicode="&#xb2;" />
<glyph unicode="&#xb3;" />
<glyph unicode="&#xb4;" horiz-adv-x="283" d="M252 798q-13 0 -26 -5l-182 -72q-20 -8 -33 -26.5t-13 -40.5q0 -30 21.5 -51.5t51.5 -21.5q16 0 27 5l182 74q20 8 32 26t12 40q0 29 -21.5 50.5t-50.5 21.5z" />
<glyph unicode="&#xb5;" horiz-adv-x="604" />
<glyph unicode="&#xb6;" horiz-adv-x="631" d="M449 -223h86v864h23q13 0 24 3.5t18 12t7 24.5q0 17 -12.5 28t-28.5 11h-319q-45 0 -85 -17.5t-69.5 -47.5t-46.5 -70t-17 -85t17 -85t46 -69.5t69 -47t85 -17.5h61v-504h85l2 864h56z" />
<glyph unicode="&#xb7;" horiz-adv-x="273" d="M31 275q0 -26 9.5 -48t26.5 -38.5t39 -26t48 -9.5q25 0 47 9.5t38.5 26t26 39t9.5 47.5t-9.5 47t-26 38.5t-38.5 26t-47 9.5t-47.5 -9.5t-39 -25.5t-26.5 -38.5t-10 -47.5z" />
<glyph unicode="&#xb8;" horiz-adv-x="207" d="M67 31q-8 -13 -18 -28.5t-19.5 -32t-16 -33.5t-6.5 -34q0 -12 4 -25t11.5 -23.5t18.5 -17.5t25 -7q26 0 39 22l100 179h-138z" />
<glyph unicode="&#xb9;" />
<glyph unicode="&#xba;" horiz-adv-x="409" d="M84 319q-20 0 -37.5 -13t-17.5 -35t17.5 -35t37.5 -13h276v96h-276zM29 546q0 -38 12.5 -71.5t35 -59.5t54.5 -41t71 -15t70.5 15.5t54 41t35 59.5t12.5 71t-12.5 70.5t-35 59t-54.5 40.5t-70 15t-70 -15t-55 -40.5t-35.5 -59t-12.5 -70.5zM201 444q-21 0 -35.5 9.5 t-23.5 25t-13 34t-4 36.5q0 17 5 34t15 30.5t24.5 22t33.5 8.5t33 -9t23.5 -23t14 -31.5t4.5 -34.5q0 -18 -4.5 -36t-13.5 -32.5t-23.5 -24t-35.5 -9.5z" />
<glyph unicode="&#xbb;" horiz-adv-x="552" d="M355 13q23 0 43 12t34 30l103 133q11 14 18.5 31t7.5 36q0 26 -21 61.5t-50 71t-60 67.5t-50 50l-108 -111q26 -36 53.5 -72t58.5 -68l-84 -85q-14 -14 -22.5 -32t-8.5 -38q0 -17 7 -32.5t19 -27.5t27.5 -19t32.5 -7zM91 13q23 0 43 12t34 30l103 133q11 14 18 31t7 35 q0 27 -20.5 62.5t-49.5 71t-59.5 67t-49.5 50.5l-109 -111q26 -36 53.5 -72t58.5 -68l-84 -85q-14 -14 -22.5 -32t-8.5 -38q0 -35 25.5 -60.5t60.5 -25.5z" />
<glyph unicode="&#xbc;" />
<glyph unicode="&#xbd;" />
<glyph unicode="&#xbe;" />
<glyph unicode="&#xbf;" horiz-adv-x="522" d="M393 617q0 25 -9.5 47.5t-26 39t-39 26t-47.5 9.5q-26 0 -48 -9.5t-39 -26.5t-26.5 -39.5t-9.5 -47.5t9.5 -47t26.5 -38.5t39 -26t48 -9.5q25 0 47.5 9.5t39 26t26 38.5t9.5 48zM159 373q-32 -8 -59.5 -23.5t-48 -38t-32.5 -51t-12 -62.5q0 -56 23.5 -96.5t62 -67 t87 -39.5t98.5 -13q34 0 78 10.5t82.5 32t65 53t26.5 73.5q0 35 -23 62t-60 27q-24 0 -44 -10.5t-39.5 -22.5t-40.5 -22.5t-46 -10.5q-16 0 -31.5 7t-15.5 27q0 11 11 16.5t27.5 10t36 10t36 16.5t27.5 30.5t11 50.5q0 32 -2 65t-4 65l-218 -3z" />
<glyph unicode="&#xc0;" horiz-adv-x="663" d="M506 834q0 21 -12 39t-32 26l-182 74q-11 5 -27 5q-30 0 -51.5 -21t-21.5 -52q0 -22 12.5 -40.5t33.5 -26.5l182 -71q13 -5 26 -5q29 0 50.5 21.5t21.5 50.5zM343 726q-63 0 -107 -34.5t-67 -91.5l-172 -440q-13 -31 -13 -61q0 -24 9.5 -44.5t26 -35t37.5 -22.5t45 -8 q27 0 46.5 9.5t33 25.5t23 36.5t17.5 43.5h243l34 -127l226 56l-208 567q-21 58 -66 92t-108 34zM289 303l54 192l54 -192h-108z" />
<glyph unicode="&#xc1;" horiz-adv-x="663" d="M437 977q-13 0 -26 -5l-182 -72q-20 -8 -33 -26.5t-13 -40.5q0 -30 21.5 -51.5t51.5 -21.5q16 0 27 5l182 74q20 8 32 26t12 40q0 29 -21.5 50.5t-50.5 21.5zM343 726q-63 0 -107 -34.5t-67 -91.5l-172 -440q-13 -31 -13 -61q0 -24 9.5 -44.5t26 -35t37.5 -22.5t45 -8 q27 0 46.5 9.5t33 25.5t23 36.5t17.5 43.5h243l34 -127l226 56l-208 567q-21 58 -66 92t-108 34zM289 303l54 192l54 -192h-108z" />
<glyph unicode="&#xc2;" horiz-adv-x="663" d="M345 966q-10 0 -19.5 -3t-18.5 -7l-141 -57q-20 -8 -31.5 -26t-11.5 -40q0 -30 20.5 -52t51.5 -22q12 0 32.5 7t42.5 16.5t42.5 18.5t31.5 14q12 -5 32 -14t42 -18t42.5 -15.5t32.5 -6.5q29 0 50.5 21t21.5 50q0 23 -12.5 41.5t-33.5 26.5l-137 56q-9 4 -18 7t-19 3z M343 726q-63 0 -107 -34.5t-67 -91.5l-172 -440q-13 -31 -13 -61q0 -24 9.5 -44.5t26 -35t37.5 -22.5t45 -8q27 0 46.5 9.5t33 25.5t23 36.5t17.5 43.5h243l34 -127l226 56l-208 567q-21 58 -66 92t-108 34zM289 303l54 192l54 -192h-108z" />
<glyph unicode="&#xc3;" horiz-adv-x="663" d="M206 915q-27 0 -45 -20.5t-18 -46.5t16.5 -48t45.5 -22h271q29 0 49 20t20 49q0 28 -20 48t-48 20h-271zM343 726q-63 0 -107 -34.5t-67 -91.5l-172 -440q-13 -31 -13 -61q0 -24 9.5 -44.5t26 -35t37.5 -22.5t45 -8q27 0 46.5 9.5t33 25.5t23 36.5t17.5 43.5h243l34 -127 l226 56l-208 567q-21 58 -66 92t-108 34zM289 303l54 192l54 -192h-108z" />
<glyph unicode="&#xc4;" horiz-adv-x="663" d="M88 739q0 -29 20.5 -49.5t49.5 -20.5q30 0 51 21t21 51q0 29 -20.5 49.5t-49.5 20.5q-30 0 -51 -21.5t-21 -50.5zM456 739q0 -29 21.5 -49.5t50.5 -20.5t49.5 21t20.5 50t-21 50t-50 21q-31 0 -51 -21t-20 -51zM343 726q-63 0 -107 -34.5t-67 -91.5l-172 -440 q-13 -31 -13 -61q0 -24 9.5 -44.5t26 -35t37.5 -22.5t45 -8q27 0 46.5 9.5t33 25.5t23 36.5t17.5 43.5h243l34 -127l226 56l-208 567q-21 58 -66 92t-108 34zM289 303l54 192l54 -192h-108z" />
<glyph unicode="&#xc5;" horiz-adv-x="661" d="M281 714q-42 -14 -69 -44t-43 -70l-172 -440q-13 -31 -13 -61q0 -24 9.5 -44.5t26 -35t37.5 -22.5t45 -8q27 0 46.5 9.5t33 25.5t23 36.5t17.5 43.5h243l47 -123l213 89l-208 530q-15 39 -43 69t-67 47q31 11 52 36t21 59q0 26 -12 46.5t-31.5 34.5t-43.5 21.5t-47 7.5 q-24 0 -48.5 -7.5t-44 -22t-31.5 -35t-12 -47.5q0 -33 20.5 -58.5t50.5 -36.5zM289 303l54 192l54 -192h-108zM320 814q0 10 7 17t17 7q11 0 19 -6.5t8 -17.5t-7.5 -18t-18.5 -7t-18 7t-7 18z" />
<glyph unicode="&#xc6;" horiz-adv-x="860" d="M-29 87l208 -103l44 127l157 -5l2 -2q8 -17 15 -33.5t15 -33.5q4 -8 15 -15t23.5 -12t25.5 -7.5t22 -2.5h371l-1 200h-259v59h140q21 0 39 8t31.5 22t21 32t7.5 39t-8 39t-22 31.5t-32.5 21t-38.5 7.5h-139v61h155q20 0 38.5 7.5t32 21t21.5 31.5t8 39t-8 39.5t-21.5 32 t-31.5 21.5t-39 8h-474q-42 0 -66.5 -17.5t-39.5 -56.5zM293 303l84 237v-237h-84z" />
<glyph unicode="&#xc7;" horiz-adv-x="644" d="M20 364q0 -66 23.5 -126t64 -108t96 -81.5t118.5 -46.5l-20.5 -20.5t-24.5 -26.5t-21 -28t-9 -26q0 -23 16.5 -39t39.5 -16t39 18l101 119l-17 10q31 1 70.5 9.5t74.5 26t59 45.5t24 67q0 21 -8.5 38t-22.5 29.5t-32 19t-38 6.5t-39 -4.5t-39 -10.5t-40.5 -10.5 t-43.5 -4.5q-35 0 -62 12.5t-45.5 34t-28 50.5t-9.5 63q0 37 12.5 64t33.5 46.5t49.5 31.5t61.5 18q13 3 26 3q35 0 76.5 -13t72.5 -29l62 179q-27 9 -62 19.5t-72 19t-72.5 14.5t-62.5 6h-11t-11 -1q-66 -9 -126 -40.5t-105 -79t-71.5 -108.5t-26.5 -130z" />
<glyph unicode="&#xc8;" horiz-adv-x="504" d="M426 834q0 21 -12 39t-32 26l-182 74q-11 5 -27 5q-30 0 -51.5 -21t-21.5 -52q0 -22 12.5 -40.5t33.5 -26.5l182 -71q13 -5 26 -5q29 0 50.5 21.5t21.5 50.5zM29 118q0 -23 9 -44t25 -37.5t37 -26.5t44 -10h369l-1 200h-252v62h131q20 0 39 7.5t34 20t24 30.5t9 39 q0 40 -30 68q-33 31 -77 31h-130v61h158q21 0 39 8t31.5 22t21 32.5t7.5 38.5t-7.5 38t-20.5 32t-31 22t-38 8h-57l-334 -1v-601z" />
<glyph unicode="&#xc9;" horiz-adv-x="504" d="M357 977q-13 0 -26 -5l-182 -72q-20 -8 -33 -26.5t-13 -40.5q0 -30 21.5 -51.5t51.5 -21.5q16 0 27 5l182 74q20 8 32 26t12 40q0 29 -21.5 50.5t-50.5 21.5zM29 118q0 -23 9 -44t25 -37.5t37 -26.5t44 -10h369l-1 200h-252v62h131q20 0 39 7.5t34 20t24 30.5t9 39 q0 40 -30 68q-33 31 -77 31h-130v61h158q21 0 39 8t31.5 22t21 32.5t7.5 38.5t-7.5 38t-20.5 32t-31 22t-38 8h-57l-334 -1v-601z" />
<glyph unicode="&#xca;" horiz-adv-x="504" d="M265 966q-10 0 -19.5 -3t-18.5 -7l-141 -57q-20 -8 -31.5 -26t-11.5 -40q0 -30 20.5 -52t51.5 -22q12 0 32.5 7t42.5 16.5t42.5 18.5t31.5 14q12 -5 32 -14t42 -18t42.5 -15.5t32.5 -6.5q29 0 50.5 21t21.5 50q0 23 -12.5 41.5t-33.5 26.5l-137 56q-9 4 -18 7t-19 3z M29 118q0 -23 9 -44t25 -37.5t37 -26.5t44 -10h369l-1 200h-252v62h131q20 0 39 7.5t34 20t24 30.5t9 39q0 40 -30 68q-33 31 -77 31h-130v61h158q21 0 39 8t31.5 22t21 32.5t7.5 38.5t-7.5 38t-20.5 32t-31 22t-38 8h-57l-334 -1v-601z" />
<glyph unicode="&#xcb;" horiz-adv-x="504" d="M65 862q0 -41 26.5 -69.5t68.5 -28.5q40 0 67.5 27.5t27.5 67.5q0 19 -7.5 36.5t-20 30.5t-30 20.5t-37.5 7.5q-19 0 -36 -7t-30 -19.5t-21 -29.5t-8 -36zM275 858q0 -20 7.5 -37t20.5 -29.5t30 -20t37 -7.5q19 0 36.5 7.5t31 20t21 30t7.5 37.5q0 19 -7.5 36.5 t-20.5 30.5t-30.5 20.5t-37.5 7.5q-41 0 -68 -28t-27 -68zM29 118q0 -23 9 -44t25 -37.5t37 -26.5t44 -10h369l-1 200h-252v62h131q20 0 39 7.5t34 20t24 30.5t9 39q0 40 -30 68q-33 31 -77 31h-130v61h158q21 0 39 8t31.5 22t21 32.5t7.5 38.5t-7.5 38t-20.5 32t-31 22 t-38 8h-57l-334 -1v-601z" />
<glyph unicode="&#xcc;" horiz-adv-x="265" d="M305 834q0 21 -12 39t-32 26l-182 74q-11 5 -27 5q-30 0 -51.5 -21t-21.5 -52q0 -22 12.5 -40.5t33.5 -26.5l182 -71q13 -5 26 -5q29 0 50.5 21.5t21.5 50.5zM29 -1h231v612q0 24 -9 45t-24.5 36.5t-36.5 25t-45 9.5t-45 -9t-37 -24.5t-25 -36.5t-9 -45v-613z" />
<glyph unicode="&#xcd;" horiz-adv-x="265" d="M236 977q-13 0 -26 -5l-182 -72q-20 -8 -33 -26.5t-13 -40.5q0 -30 21.5 -51.5t51.5 -21.5q16 0 27 5l182 74q20 8 32 26t12 40q0 29 -21.5 50.5t-50.5 21.5zM29 -1h231v612q0 24 -9 45t-24.5 36.5t-36.5 25t-45 9.5t-45 -9t-37 -24.5t-25 -36.5t-9 -45v-613z" />
<glyph unicode="&#xce;" horiz-adv-x="265" d="M144 966q-10 0 -19.5 -3t-18.5 -7l-141 -57q-20 -8 -31.5 -26t-11.5 -40q0 -30 20.5 -52t51.5 -22q12 0 32.5 7t42.5 16.5t42.5 18.5t31.5 14q12 -5 32 -14t42 -18t42.5 -15.5t32.5 -6.5q29 0 50.5 21t21.5 50q0 23 -12.5 41.5t-33.5 26.5l-137 56q-9 4 -18 7t-19 3z M29 -1h231v612q0 24 -9 45t-24.5 36.5t-36.5 25t-45 9.5t-45 -9t-37 -24.5t-25 -36.5t-9 -45v-613z" />
<glyph unicode="&#xcf;" horiz-adv-x="265" d="M-56 862q0 -41 26.5 -69.5t68.5 -28.5q40 0 67.5 27.5t27.5 67.5q0 19 -7.5 36.5t-20 30.5t-30 20.5t-37.5 7.5q-19 0 -36 -7t-30 -19.5t-21 -29.5t-8 -36zM154 858q0 -20 7.5 -37t20.5 -29.5t30 -20t37 -7.5q19 0 36.5 7.5t31 20t21 30t7.5 37.5q0 19 -7.5 36.5 t-20.5 30.5t-30.5 20.5t-37.5 7.5q-41 0 -68 -28t-27 -68zM29 -1h231v612q0 24 -9 45t-24.5 36.5t-36.5 25t-45 9.5t-45 -9t-37 -24.5t-25 -36.5t-9 -45v-613z" />
<glyph unicode="&#xd0;" />
<glyph unicode="&#xd1;" horiz-adv-x="731" d="M29 119q0 -25 8.5 -48t24 -40.5t37 -28t47.5 -10.5q24 0 45 9.5t36 25t24 36.5t9 45v244l262 -318q17 -20 40 -31t49 -11q24 0 45.5 9t37 24.5t24.5 36.5t9 45v504q0 24 -9 45t-25 36.5t-36.5 25t-44.5 9.5t-45 -9.5t-36.5 -25t-25 -36.5t-9.5 -45v-235l-254 298 q-19 22 -44 38.5t-55 16.5q-24 0 -45 -9.5t-36.5 -26t-24 -37.5t-8.5 -45v-492zM239 915q-27 0 -45 -20.5t-18 -46.5t16.5 -48t45.5 -22h271q29 0 49 20t20 49q0 28 -20 48t-48 20h-271z" />
<glyph unicode="&#xd2;" horiz-adv-x="774" d="M20 360q0 -78 31.5 -145.5t84 -117.5t122 -78.5t145.5 -28.5t145.5 28.5t122 78.5t84 117.5t31.5 145.5t-31.5 145.5t-84 117.5t-122 78.5t-145.5 28.5t-145 -28.5t-122 -78.5t-84.5 -117.5t-31.5 -145.5zM249 360q0 33 11 64t31 54t48.5 37t63.5 14t63.5 -14t49 -37.5 t31.5 -54.5t11 -65q0 -33 -11.5 -63t-32 -53.5t-49.5 -37t-63 -13.5q-35 0 -63 14t-48 37.5t-31 54t-11 63.5zM564 834q0 21 -12 39t-32 26l-182 74q-11 5 -27 5q-30 0 -51.5 -21t-21.5 -52q0 -22 12.5 -40.5t33.5 -26.5l182 -71q13 -5 26 -5q29 0 50.5 21.5t21.5 50.5z" />
<glyph unicode="&#xd3;" horiz-adv-x="774" d="M20 360q0 -78 31.5 -145.5t84 -117.5t122 -78.5t145.5 -28.5t145.5 28.5t122 78.5t84 117.5t31.5 145.5t-31.5 145.5t-84 117.5t-122 78.5t-145.5 28.5t-145 -28.5t-122 -78.5t-84.5 -117.5t-31.5 -145.5zM249 360q0 33 11 64t31 54t48.5 37t63.5 14t63.5 -14t49 -37.5 t31.5 -54.5t11 -65q0 -33 -11.5 -63t-32 -53.5t-49.5 -37t-63 -13.5q-35 0 -63 14t-48 37.5t-31 54t-11 63.5zM495 977q-13 0 -26 -5l-182 -72q-20 -8 -33 -26.5t-13 -40.5q0 -30 21.5 -51.5t51.5 -21.5q16 0 27 5l182 74q20 8 32 26t12 40q0 29 -21.5 50.5t-50.5 21.5z" />
<glyph unicode="&#xd4;" horiz-adv-x="774" d="M20 360q0 -78 31.5 -145.5t84 -117.5t122 -78.5t145.5 -28.5t145.5 28.5t122 78.5t84 117.5t31.5 145.5t-31.5 145.5t-84 117.5t-122 78.5t-145.5 28.5t-145 -28.5t-122 -78.5t-84.5 -117.5t-31.5 -145.5zM249 360q0 33 11 64t31 54t48.5 37t63.5 14t63.5 -14t49 -37.5 t31.5 -54.5t11 -65q0 -33 -11.5 -63t-32 -53.5t-49.5 -37t-63 -13.5q-35 0 -63 14t-48 37.5t-31 54t-11 63.5zM403 966q-10 0 -19.5 -3t-18.5 -7l-141 -57q-20 -8 -31.5 -26t-11.5 -40q0 -30 20.5 -52t51.5 -22q12 0 32.5 7t42.5 16.5t42.5 18.5t31.5 14q12 -5 32 -14 t42 -18t42.5 -15.5t32.5 -6.5q29 0 50.5 21t21.5 50q0 23 -12.5 41.5t-33.5 26.5l-137 56q-9 4 -18 7t-19 3z" />
<glyph unicode="&#xd5;" horiz-adv-x="774" d="M20 360q0 -78 31.5 -145.5t84 -117.5t122 -78.5t145.5 -28.5t145.5 28.5t122 78.5t84 117.5t31.5 145.5t-31.5 145.5t-84 117.5t-122 78.5t-145.5 28.5t-145 -28.5t-122 -78.5t-84.5 -117.5t-31.5 -145.5zM249 360q0 33 11 64t31 54t48.5 37t63.5 14t63.5 -14t49 -37.5 t31.5 -54.5t11 -65q0 -33 -11.5 -63t-32 -53.5t-49.5 -37t-63 -13.5q-35 0 -63 14t-48 37.5t-31 54t-11 63.5zM264 915q-27 0 -45 -20.5t-18 -46.5t16.5 -48t45.5 -22h271q29 0 49 20t20 49q0 28 -20 48t-48 20h-271z" />
<glyph unicode="&#xd6;" horiz-adv-x="774" d="M20 360q0 -78 31.5 -145.5t84 -117.5t122 -78.5t145.5 -28.5t145.5 28.5t122 78.5t84 117.5t31.5 145.5t-31.5 145.5t-84 117.5t-122 78.5t-145.5 28.5t-145 -28.5t-122 -78.5t-84.5 -117.5t-31.5 -145.5zM249 360q0 33 11 64t31 54t48.5 37t63.5 14t63.5 -14t49 -37.5 t31.5 -54.5t11 -65q0 -33 -11.5 -63t-32 -53.5t-49.5 -37t-63 -13.5q-35 0 -63 14t-48 37.5t-31 54t-11 63.5zM36 735q0 -29 21.5 -50t50.5 -21t50.5 21t21.5 50t-21 50t-50 21q-31 0 -52 -20t-21 -51zM627 735q0 -29 21 -50t50 -21t50.5 21t21.5 50q0 31 -22 51t-52 20 q-29 0 -49 -21.5t-20 -49.5z" />
<glyph unicode="&#xd7;" />
<glyph unicode="&#xd8;" horiz-adv-x="776" d="M655 640q-54 44 -118 67.5t-133 23.5q-77 0 -146.5 -28.5t-122.5 -79t-84 -118.5t-31 -146q0 -68 25.5 -130t73.5 -110l-98 -96l39 -42l99 97q51 -43 113.5 -66t129.5 -23q75 0 144 28.5t122.5 78t85 116.5t31.5 144q0 64 -24.5 129t-63.5 116q7 7 22.5 20.5t31.5 29.5 t28.5 30.5t12.5 23.5q0 11 -8.5 19.5t-19.5 8.5q-9 0 -24.5 -12t-32 -28t-31 -31t-21.5 -22zM506 493l-234 -224q-12 20 -18 43.5t-6 46.5q0 34 11 64.5t31 54t48.5 37.5t63.5 14q29 0 55 -9.5t49 -26.5zM311 227l227 217q19 -41 19 -84q0 -32 -12 -62.5t-33 -54t-49.5 -38 t-62.5 -14.5q-25 0 -48 9t-41 27z" />
<glyph unicode="&#xd9;" horiz-adv-x="738" d="M545 834q0 21 -12 39t-32 26l-182 74q-11 5 -27 5q-30 0 -51.5 -21t-21.5 -52q0 -22 12.5 -40.5t33.5 -26.5l182 -71q13 -5 26 -5q29 0 50.5 21.5t21.5 50.5zM29 323q0 -79 27 -140.5t74 -104t112 -64.5t142 -22q76 0 141.5 22t113 64.5t74.5 104t27 140.5v288 q0 24 -9 45.5t-25 37.5t-37 25.5t-45 9.5t-44.5 -9.5t-36.5 -25t-25 -36.5t-9 -45v-297q0 -57 -33.5 -92t-90.5 -35q-58 0 -91.5 35t-33.5 92v405h-231v-398z" />
<glyph unicode="&#xda;" horiz-adv-x="738" d="M476 977q-13 0 -26 -5l-182 -72q-20 -8 -33 -26.5t-13 -40.5q0 -30 21.5 -51.5t51.5 -21.5q16 0 27 5l182 74q20 8 32 26t12 40q0 29 -21.5 50.5t-50.5 21.5zM29 323q0 -79 27 -140.5t74 -104t112 -64.5t142 -22q76 0 141.5 22t113 64.5t74.5 104t27 140.5v288 q0 24 -9 45.5t-25 37.5t-37 25.5t-45 9.5t-44.5 -9.5t-36.5 -25t-25 -36.5t-9 -45v-297q0 -57 -33.5 -92t-90.5 -35q-58 0 -91.5 35t-33.5 92v405h-231v-398z" />
<glyph unicode="&#xdb;" horiz-adv-x="738" d="M384 966q-10 0 -19.5 -3t-18.5 -7l-141 -57q-20 -8 -31.5 -26t-11.5 -40q0 -30 20.5 -52t51.5 -22q12 0 32.5 7t42.5 16.5t42.5 18.5t31.5 14q12 -5 32 -14t42 -18t42.5 -15.5t32.5 -6.5q29 0 50.5 21t21.5 50q0 23 -12.5 41.5t-33.5 26.5l-137 56q-9 4 -18 7t-19 3z M29 323q0 -79 27 -140.5t74 -104t112 -64.5t142 -22q76 0 141.5 22t113 64.5t74.5 104t27 140.5v288q0 24 -9 45.5t-25 37.5t-37 25.5t-45 9.5t-44.5 -9.5t-36.5 -25t-25 -36.5t-9 -45v-297q0 -57 -33.5 -92t-90.5 -35q-58 0 -91.5 35t-33.5 92v405h-231v-398z" />
<glyph unicode="&#xdc;" horiz-adv-x="738" d="M227 739q0 -7 2 -17l-200 -1v-398q0 -79 27 -140.5t74 -104t112 -64.5t142 -22q76 0 141 22t113 64.5t75 104t27 140.5v288q0 24 -9 45.5t-25 37.5t-37 25.5t-45 9.5t-45 -9.5t-36.5 -25t-24.5 -36.5t-9 -45v-297q0 -57 -33.5 -92t-90.5 -35q-58 0 -91.5 35t-33.5 92v364 q17 -11 38 -11q29 0 49.5 21t20.5 50t-21 49.5t-50 20.5t-49.5 -21t-20.5 -50zM401 739q0 -29 20.5 -49.5t49.5 -20.5t50 21t21 50t-21 49.5t-50 20.5t-49.5 -21t-20.5 -50z" />
<glyph unicode="&#xdd;" />
<glyph unicode="&#xde;" />
<glyph unicode="&#xdf;" horiz-adv-x="607" d="M29 495v-733h222v743q0 14 2 28.5t8 26t17 18.5t29 7q9 0 18.5 -2t17.5 -6.5t13 -12t5 -18.5q0 -18 -16 -26.5t-35.5 -19.5t-35.5 -30t-16 -58q0 -31 10.5 -48t26.5 -27t35 -15t35 -11t26.5 -16.5t10.5 -30.5q0 -19 -10.5 -30t-26.5 -19.5t-34 -16.5t-34 -19.5t-26.5 -29 t-10.5 -45.5q0 -53 33.5 -82.5t84.5 -29.5q46 0 89 24.5t76.5 62.5t54 84.5t20.5 90.5q0 27 -8.5 54t-23.5 51t-36 42.5t-47 27.5q26 27 41.5 62t15.5 73q0 50 -21 89.5t-56 66.5t-79.5 41t-90.5 14q-62 0 -114 -20.5t-90 -57t-59 -88t-21 -114.5z" />
<glyph unicode="&#xe0;" horiz-adv-x="613" d="M479 655q0 21 -12 39t-32 26l-182 74q-11 5 -27 5q-30 0 -51.5 -21t-21.5 -52q0 -22 12.5 -40.5t33.5 -26.5l182 -71q13 -5 26 -5q29 0 50.5 21.5t21.5 50.5zM414 485q-21 35 -54.5 50t-72.5 15q-59 0 -108.5 -23.5t-84.5 -63t-54.5 -91.5t-19.5 -109t20 -107t56 -86.5 t85 -57.5t106 -21q41 0 73 15t54 50q-2 -13 -1.5 -27.5t1.5 -28.5h193v439q0 48 -25.5 79t-76.5 31q-14 0 -29.5 -4t-29 -11.5t-22.5 -20t-10 -28.5zM241 265q0 16 5 32t15 28.5t23.5 20.5t31.5 8q36 0 56.5 -26t20.5 -61q0 -16 -5.5 -32t-15.5 -28.5t-24 -20t-32 -7.5 t-31.5 7.5t-23.5 19.5t-15 27.5t-5 31.5z" />
<glyph unicode="&#xe1;" horiz-adv-x="613" d="M410 798q-13 0 -26 -5l-182 -72q-20 -8 -33 -26.5t-13 -40.5q0 -30 21.5 -51.5t51.5 -21.5q16 0 27 5l182 74q20 8 32 26t12 40q0 29 -21.5 50.5t-50.5 21.5zM414 485q-21 35 -54.5 50t-72.5 15q-59 0 -108.5 -23.5t-84.5 -63t-54.5 -91.5t-19.5 -109t20 -107t56 -86.5 t85 -57.5t106 -21q41 0 73 15t54 50q-2 -13 -1.5 -27.5t1.5 -28.5h193v439q0 48 -25.5 79t-76.5 31q-14 0 -29.5 -4t-29 -11.5t-22.5 -20t-10 -28.5zM241 265q0 16 5 32t15 28.5t23.5 20.5t31.5 8q36 0 56.5 -26t20.5 -61q0 -16 -5.5 -32t-15.5 -28.5t-24 -20t-32 -7.5 t-31.5 7.5t-23.5 19.5t-15 27.5t-5 31.5z" />
<glyph unicode="&#xe2;" horiz-adv-x="613" d="M318 787q-10 0 -19.5 -3t-18.5 -7l-141 -57q-20 -8 -31.5 -26t-11.5 -40q0 -30 20.5 -52t51.5 -22q12 0 32.5 7t42.5 16.5t42.5 18.5t31.5 14q12 -5 32 -14t42 -18t42.5 -15.5t32.5 -6.5q29 0 50.5 21t21.5 50q0 23 -12.5 41.5t-33.5 26.5l-137 56q-9 4 -18 7t-19 3z M414 485q-21 35 -54.5 50t-72.5 15q-59 0 -108.5 -23.5t-84.5 -63t-54.5 -91.5t-19.5 -109t20 -107t56 -86.5t85 -57.5t106 -21q41 0 73 15t54 50q-2 -13 -1.5 -27.5t1.5 -28.5h193v439q0 48 -25.5 79t-76.5 31q-14 0 -29.5 -4t-29 -11.5t-22.5 -20t-10 -28.5zM241 265 q0 16 5 32t15 28.5t23.5 20.5t31.5 8q36 0 56.5 -26t20.5 -61q0 -16 -5.5 -32t-15.5 -28.5t-24 -20t-32 -7.5t-31.5 7.5t-23.5 19.5t-15 27.5t-5 31.5z" />
<glyph unicode="&#xe3;" horiz-adv-x="613" d="M179 736q-27 0 -45 -20.5t-18 -46.5t16.5 -48t45.5 -22h271q29 0 49 20t20 49q0 28 -20 48t-48 20h-271zM414 485q-21 35 -54.5 50t-72.5 15q-59 0 -108.5 -23.5t-84.5 -63t-54.5 -91.5t-19.5 -109t20 -107t56 -86.5t85 -57.5t106 -21q41 0 73 15t54 50 q-2 -13 -1.5 -27.5t1.5 -28.5h193v439q0 48 -25.5 79t-76.5 31q-14 0 -29.5 -4t-29 -11.5t-22.5 -20t-10 -28.5zM241 265q0 16 5 32t15 28.5t23.5 20.5t31.5 8q36 0 56.5 -26t20.5 -61q0 -16 -5.5 -32t-15.5 -28.5t-24 -20t-32 -7.5t-31.5 7.5t-23.5 19.5t-15 27.5t-5 31.5z " />
<glyph unicode="&#xe4;" horiz-adv-x="613" d="M134 664q0 -19 8 -36t21 -29.5t30 -20t36 -7.5q40 0 68 27.5t28 67.5t-28 67.5t-68 27.5t-67.5 -28.5t-27.5 -68.5zM342 664q0 -20 8 -36.5t21.5 -29.5t31 -20t36.5 -7t36.5 8t30 21t20 30.5t7.5 36.5q0 40 -28.5 67.5t-68.5 27.5q-41 0 -67.5 -29t-26.5 -69zM414 485 q-21 35 -54.5 50t-72.5 15q-59 0 -108.5 -23.5t-84.5 -63t-54.5 -91.5t-19.5 -109t20 -107t56 -86.5t85 -57.5t106 -21q41 0 73 15t54 50q-2 -13 -1.5 -27.5t1.5 -28.5h193v439q0 48 -25.5 79t-76.5 31q-14 0 -29.5 -4t-29 -11.5t-22.5 -20t-10 -28.5zM241 265q0 16 5 32 t15 28.5t23.5 20.5t31.5 8q36 0 56.5 -26t20.5 -61q0 -16 -5.5 -32t-15.5 -28.5t-24 -20t-32 -7.5t-31.5 7.5t-23.5 19.5t-15 27.5t-5 31.5z" />
<glyph unicode="&#xe5;" horiz-adv-x="613" d="M212 675q0 -27 11.5 -47.5t30 -34.5t42 -21t47.5 -7q23 0 45.5 8t40.5 22.5t29 35t11 44.5q0 25 -11.5 45.5t-29.5 34.5t-41 21.5t-46 7.5t-46 -7.5t-41.5 -21.5t-30 -34.5t-11.5 -45.5zM312 675q0 12 8.5 19.5t20.5 7.5q11 0 19 -8t8 -19t-8 -19.5t-19 -8.5t-20 8t-9 20 zM414 485q-21 35 -54.5 50t-72.5 15q-59 0 -108.5 -23.5t-84.5 -63t-54.5 -91.5t-19.5 -109t20 -107t56 -86.5t85 -57.5t106 -21q41 0 73 15t54 50q-2 -13 -1.5 -27.5t1.5 -28.5h193v439q0 48 -25.5 79t-76.5 31q-14 0 -29.5 -4t-29 -11.5t-22.5 -20t-10 -28.5zM241 265 q0 16 5 32t15 28.5t23.5 20.5t31.5 8q36 0 56.5 -26t20.5 -61q0 -16 -5.5 -32t-15.5 -28.5t-24 -20t-32 -7.5t-31.5 7.5t-23.5 19.5t-15 27.5t-5 31.5z" />
<glyph unicode="&#xe6;" horiz-adv-x="953" d="M561 16q33 -15 68 -21.5t71 -6.5q43 0 89.5 6t88.5 20q-4 32 -8 63t-9 63q-1 8 -2 17t-3 17l-1 7q0 1 -0.5 2l-0.5 1q-8 0 -18 -2.5t-18 -3.5q-14 -2 -28 -2t-28 -1q-8 -1 -16.5 -1.5t-16.5 -0.5q-33 0 -64 10t-52 38h267q38 0 61.5 18.5t23.5 59.5q0 17 -4 33.5t-9 32.5 q-15 43 -42.5 77.5t-63 59t-77.5 37.5t-87 13q-31 0 -61.5 -5.5t-59.5 -17.5q-17 17 -35.5 22t-41.5 5q-14 0 -28 -3t-25.5 -10t-18.5 -18.5t-7 -27.5q-8 15 -23.5 25.5t-33.5 16.5t-36.5 8.5t-34.5 2.5q-57 0 -104.5 -24t-81 -63.5t-52.5 -90.5t-19 -105q0 -57 19 -107.5 t54 -88t83 -59.5t107 -22q34 0 67 10.5t56 37.5q0 -17 9.5 -26.5t23 -14.5t29 -6t28.5 -1q18 0 35 6.5t30 19.5zM314 188q-18 0 -31.5 7t-22.5 19t-14 27.5t-5 31.5t5.5 32t15.5 28t24 19.5t32 7.5t31.5 -7t23 -19t14.5 -27t5 -31q0 -35 -20.5 -61.5t-57.5 -26.5zM615 332 q2 22 19.5 39.5t40.5 17.5q26 0 41.5 -16t18.5 -41h-120z" />
<glyph unicode="&#xe7;" horiz-adv-x="512" d="M320 542q-60 0 -114 -19.5t-95.5 -55.5t-66 -87t-24.5 -114q0 -47 17 -90t46.5 -78t68.5 -59.5t84 -35.5q-7 -8 -15.5 -16.5t-16.5 -18t-13.5 -19.5t-5.5 -21q0 -23 17 -38.5t39 -15.5q25 0 40 18l86 101q27 2 57.5 8.5t55.5 20t41.5 35.5t16.5 56q0 19 -8 36t-21.5 30 t-30.5 20.5t-36 7.5q-11 0 -25.5 -2.5t-30 -6t-32 -6t-31.5 -2.5q-35 0 -59 21t-24 58t25.5 56t60.5 19q13 0 32.5 -3.5t41.5 -8t43 -9.5t36 -8l41 191q-49 13 -99 24.5t-101 11.5z" />
<glyph unicode="&#xe8;" horiz-adv-x="589" d="M471 655q0 21 -12 39t-32 26l-182 74q-11 5 -27 5q-30 0 -51.5 -21t-21.5 -52q0 -22 12.5 -40.5t33.5 -26.5l182 -71q13 -5 26 -5q29 0 50.5 21.5t21.5 50.5zM253 217h260q43 0 67 16t24 63q0 54 -25.5 100t-66.5 79.5t-92 52.5t-102 19q-60 0 -114 -20t-95 -56t-65 -87 t-24 -114q0 -69 27.5 -121t73 -87t104.5 -52.5t122 -17.5q38 0 76 5t75 17l-24 170q-26 -5 -53 -9.5t-55 -4.5q-32 0 -62.5 10t-50.5 37zM255 325q5 24 21 41t42 17q25 0 39.5 -17t16.5 -41h-119z" />
<glyph unicode="&#xe9;" horiz-adv-x="589" d="M402 798q-13 0 -26 -5l-182 -72q-20 -8 -33 -26.5t-13 -40.5q0 -30 21.5 -51.5t51.5 -21.5q16 0 27 5l182 74q20 8 32 26t12 40q0 29 -21.5 50.5t-50.5 21.5zM253 217h260q43 0 67 16t24 63q0 54 -25.5 100t-66.5 79.5t-92 52.5t-102 19q-60 0 -114 -20t-95 -56t-65 -87 t-24 -114q0 -69 27.5 -121t73 -87t104.5 -52.5t122 -17.5q38 0 76 5t75 17l-24 170q-26 -5 -53 -9.5t-55 -4.5q-32 0 -62.5 10t-50.5 37zM255 325q5 24 21 41t42 17q25 0 39.5 -17t16.5 -41h-119z" />
<glyph unicode="&#xea;" horiz-adv-x="589" d="M310 787q-10 0 -19.5 -3t-18.5 -7l-141 -57q-20 -8 -31.5 -26t-11.5 -40q0 -30 20.5 -52t51.5 -22q12 0 32.5 7t42.5 16.5t42.5 18.5t31.5 14q12 -5 32 -14t42 -18t42.5 -15.5t32.5 -6.5q29 0 50.5 21t21.5 50q0 23 -12.5 41.5t-33.5 26.5l-137 56q-9 4 -18 7t-19 3z M253 217h260q43 0 67 16t24 63q0 54 -25.5 100t-66.5 79.5t-92 52.5t-102 19q-60 0 -114 -20t-95 -56t-65 -87t-24 -114q0 -69 27.5 -121t73 -87t104.5 -52.5t122 -17.5q38 0 76 5t75 17l-24 170q-26 -5 -53 -9.5t-55 -4.5q-32 0 -62.5 10t-50.5 37zM255 325q5 24 21 41 t42 17q25 0 39.5 -17t16.5 -41h-119z" />
<glyph unicode="&#xeb;" horiz-adv-x="589" d="M110 683q0 -41 26.5 -69.5t68.5 -28.5q40 0 67.5 27.5t27.5 67.5q0 19 -7.5 36.5t-20 30.5t-30 20.5t-37.5 7.5q-19 0 -36 -7t-30 -19.5t-21 -29.5t-8 -36zM320 679q0 -20 7.5 -37t20.5 -29.5t30 -20t37 -7.5q19 0 36.5 7.5t31 20t21 30t7.5 37.5q0 19 -7.5 36.5 t-20.5 30.5t-30.5 20.5t-37.5 7.5q-41 0 -68 -28t-27 -68zM253 217h260q43 0 67 16t24 63q0 54 -25.5 100t-66.5 79.5t-92 52.5t-102 19q-60 0 -114 -20t-95 -56t-65 -87t-24 -114q0 -69 27.5 -121t73 -87t104.5 -52.5t122 -17.5q38 0 76 5t75 17l-24 170q-26 -5 -53 -9.5 t-55 -4.5q-32 0 -62.5 10t-50.5 37zM255 325q5 24 21 41t42 17q25 0 39.5 -17t16.5 -41h-119z" />
<glyph unicode="&#xec;" horiz-adv-x="244" d="M298 655q0 21 -12 39t-32 26l-182 74q-11 5 -27 5q-30 0 -51.5 -21t-21.5 -52q0 -22 12.5 -40.5t33.5 -26.5l182 -71q13 -5 26 -5q29 0 50.5 21.5t21.5 50.5zM32 2l223 -1v434q0 22 -9 42.5t-24 36t-35 24.5t-43 9t-43.5 -8.5t-35.5 -23.5t-24 -35t-9 -44v-434z" />
<glyph unicode="&#xed;" horiz-adv-x="244" d="M229 798q-13 0 -26 -5l-182 -72q-20 -8 -33 -26.5t-13 -40.5q0 -30 21.5 -51.5t51.5 -21.5q16 0 27 5l182 74q20 8 32 26t12 40q0 29 -21.5 50.5t-50.5 21.5zM32 2l223 -1v434q0 22 -9 42.5t-24 36t-35 24.5t-43 9t-43.5 -8.5t-35.5 -23.5t-24 -35t-9 -44v-434z" />
<glyph unicode="&#xee;" horiz-adv-x="244" d="M137 787q-10 0 -19.5 -3t-18.5 -7l-141 -57q-20 -8 -31.5 -26t-11.5 -40q0 -30 20.5 -52t51.5 -22q12 0 32.5 7t42.5 16.5t42.5 18.5t31.5 14q12 -5 32 -14t42 -18t42.5 -15.5t32.5 -6.5q29 0 50.5 21t21.5 50q0 23 -12.5 41.5t-33.5 26.5l-137 56q-9 4 -18 7t-19 3z M32 2l223 -1v434q0 22 -9 42.5t-24 36t-35 24.5t-43 9t-43.5 -8.5t-35.5 -23.5t-24 -35t-9 -44v-434z" />
<glyph unicode="&#xef;" horiz-adv-x="244" d="M-63 683q0 -41 26.5 -69.5t68.5 -28.5q40 0 67.5 27.5t27.5 67.5q0 19 -7.5 36.5t-20 30.5t-30 20.5t-37.5 7.5q-19 0 -36 -7t-30 -19.5t-21 -29.5t-8 -36zM147 679q0 -20 7.5 -37t20.5 -29.5t30 -20t37 -7.5q19 0 36.5 7.5t31 20t21 30t7.5 37.5q0 19 -7.5 36.5 t-20.5 30.5t-30.5 20.5t-37.5 7.5q-41 0 -68 -28t-27 -68zM32 2l223 -1v434q0 22 -9 42.5t-24 36t-35 24.5t-43 9t-43.5 -8.5t-35.5 -23.5t-24 -35t-9 -44v-434z" />
<glyph unicode="&#xf0;" />
<glyph unicode="&#xf1;" horiz-adv-x="592" d="M29 0h222v310q0 23 16.5 39.5t39.5 16.5t39.5 -16.5t16.5 -39.5v-208q0 -24 9 -44t24 -35t35.5 -23.5t44.5 -8.5q23 0 43 9t35 24.5t24 35.5t9 43v256q0 45 -18.5 80.5t-49.5 60t-70.5 37t-81.5 12.5q-43 0 -80.5 -16t-62.5 -52q-7 31 -31 50t-56 19q-23 0 -43 -9.5 t-34.5 -25t-22.5 -36.5t-8 -43v-436zM169 736q-27 0 -45 -20.5t-18 -46.5t16.5 -48t45.5 -22h271q29 0 49 20t20 49q0 28 -20 48t-48 20h-271z" />
<glyph unicode="&#xf2;" horiz-adv-x="601" d="M20 267q0 -61 24 -112t65 -88t94.5 -57.5t112.5 -20.5q60 0 113.5 21t94 58.5t64.5 89t24 112.5t-24 112.5t-64.5 89t-94 58t-113.5 20.5t-114 -21t-94.5 -59t-64 -90t-23.5 -113zM238 268q0 17 5.5 33t15.5 28.5t24.5 20t32.5 7.5t32.5 -7.5t24.5 -20t15.5 -28.5 t5.5 -33q0 -36 -19 -64.5t-59 -28.5q-19 0 -33.5 8t-24.5 21t-15 30t-5 34zM477 655q0 21 -12 39t-32 26l-182 74q-11 5 -27 5q-30 0 -51.5 -21t-21.5 -52q0 -22 12.5 -40.5t33.5 -26.5l182 -71q13 -5 26 -5q29 0 50.5 21.5t21.5 50.5z" />
<glyph unicode="&#xf3;" horiz-adv-x="601" d="M20 267q0 -61 24 -112t65 -88t94.5 -57.5t112.5 -20.5q60 0 113.5 21t94 58.5t64.5 89t24 112.5t-24 112.5t-64.5 89t-94 58t-113.5 20.5t-114 -21t-94.5 -59t-64 -90t-23.5 -113zM238 268q0 17 5.5 33t15.5 28.5t24.5 20t32.5 7.5t32.5 -7.5t24.5 -20t15.5 -28.5 t5.5 -33q0 -36 -19 -64.5t-59 -28.5q-19 0 -33.5 8t-24.5 21t-15 30t-5 34zM408 798q-13 0 -26 -5l-182 -72q-20 -8 -33 -26.5t-13 -40.5q0 -30 21.5 -51.5t51.5 -21.5q16 0 27 5l182 74q20 8 32 26t12 40q0 29 -21.5 50.5t-50.5 21.5z" />
<glyph unicode="&#xf4;" horiz-adv-x="601" d="M20 267q0 -61 24 -112t65 -88t94.5 -57.5t112.5 -20.5q60 0 113.5 21t94 58.5t64.5 89t24 112.5t-24 112.5t-64.5 89t-94 58t-113.5 20.5t-114 -21t-94.5 -59t-64 -90t-23.5 -113zM238 268q0 17 5.5 33t15.5 28.5t24.5 20t32.5 7.5t32.5 -7.5t24.5 -20t15.5 -28.5 t5.5 -33q0 -36 -19 -64.5t-59 -28.5q-19 0 -33.5 8t-24.5 21t-15 30t-5 34zM316 787q-10 0 -19.5 -3t-18.5 -7l-141 -57q-20 -8 -31.5 -26t-11.5 -40q0 -30 20.5 -52t51.5 -22q12 0 32.5 7t42.5 16.5t42.5 18.5t31.5 14q12 -5 32 -14t42 -18t42.5 -15.5t32.5 -6.5 q29 0 50.5 21t21.5 50q0 23 -12.5 41.5t-33.5 26.5l-137 56q-9 4 -18 7t-19 3z" />
<glyph unicode="&#xf5;" horiz-adv-x="601" d="M20 267q0 -61 24 -112t65 -88t94.5 -57.5t112.5 -20.5q60 0 113.5 21t94 58.5t64.5 89t24 112.5t-24 112.5t-64.5 89t-94 58t-113.5 20.5t-114 -21t-94.5 -59t-64 -90t-23.5 -113zM238 268q0 17 5.5 33t15.5 28.5t24.5 20t32.5 7.5t32.5 -7.5t24.5 -20t15.5 -28.5 t5.5 -33q0 -36 -19 -64.5t-59 -28.5q-19 0 -33.5 8t-24.5 21t-15 30t-5 34zM177 736q-27 0 -45 -20.5t-18 -46.5t16.5 -48t45.5 -22h271q29 0 49 20t20 49q0 28 -20 48t-48 20h-271z" />
<glyph unicode="&#xf6;" horiz-adv-x="601" d="M20 268q0 -61 24 -112t65 -88t94.5 -58t112.5 -21q60 0 113.5 21t94 58.5t64.5 89t24 112.5t-24 112.5t-64.5 89t-94 58t-113.5 20.5t-114 -21t-94.5 -58.5t-64 -89.5t-23.5 -113zM238 266q0 18 5.5 34t15.5 29t24.5 20.5t33.5 7.5q18 0 32.5 -7.5t24 -20.5t15 -29 t5.5 -32q0 -37 -19.5 -65t-59.5 -28q-18 0 -32.5 7.5t-24.5 20.5t-15 29.5t-5 33.5zM117 662q0 -19 8 -36t21 -29.5t30 -20t36 -7.5q20 0 37.5 7.5t30.5 20.5t20.5 30t7.5 37t-7.5 37.5t-20.5 30.5t-30.5 20.5t-36.5 7.5q-42 0 -69 -28.5t-27 -69.5zM324 663q0 -20 8 -37 t21 -29.5t30.5 -20t36.5 -7.5t36.5 7.5t31 20t21 30t7.5 37.5q0 19 -7.5 36.5t-20.5 31t-30.5 21t-37.5 7.5q-41 0 -68.5 -28t-27.5 -69z" />
<glyph unicode="&#xf7;" horiz-adv-x="618" />
<glyph unicode="&#xf8;" horiz-adv-x="601" d="M506 484q-38 35 -85.5 51.5t-99.5 16.5q-60 0 -114.5 -20.5t-96 -57t-66 -88t-24.5 -114.5q0 -52 19 -101.5t54 -87.5l-72 -70l32 -29l71 69q40 -32 88 -48.5t99 -16.5q60 0 114 20.5t95.5 57.5t65.5 89t24 114q0 51 -19 99.5t-53 86.5q4 4 17 15.5t26.5 25t24 25 t10.5 16.5q0 8 -3.5 16t-14.5 8q-9 0 -22 -9.5t-26 -22t-25 -25.5t-19 -20zM361 341l-117 -110q-2 11 -4.5 21.5t-2.5 21.5q0 15 6 30t16.5 27t24.5 19t30 7q25 0 47 -16zM267 193l119 112q6 -18 6 -40q0 -36 -19 -63t-59 -27q-11 0 -25 5t-22 13z" />
<glyph unicode="&#xf9;" horiz-adv-x="590" d="M467 655q0 21 -12 39t-32 26l-182 74q-11 5 -27 5q-30 0 -51.5 -21t-21.5 -52q0 -22 12.5 -40.5t33.5 -26.5l182 -71q13 -5 26 -5q29 0 50.5 21.5t21.5 50.5zM29 243q0 -68 19 -116t55 -78.5t87.5 -45t116.5 -14.5q64 0 115.5 14.5t87.5 45t55 78.5t19 116v193 q0 23 -9 43.5t-24 35.5t-35.5 23.5t-43.5 8.5t-43.5 -9t-35.5 -24.5t-24 -36t-9 -43.5v-190q0 -25 -13.5 -43t-40.5 -18t-40.5 18t-13.5 43v291l-223 1v-293z" />
<glyph unicode="&#xfa;" horiz-adv-x="590" d="M398 798q-13 0 -26 -5l-182 -72q-20 -8 -33 -26.5t-13 -40.5q0 -30 21.5 -51.5t51.5 -21.5q16 0 27 5l182 74q20 8 32 26t12 40q0 29 -21.5 50.5t-50.5 21.5zM29 243q0 -68 19 -116t55 -78.5t87.5 -45t116.5 -14.5q64 0 115.5 14.5t87.5 45t55 78.5t19 116v193 q0 23 -9 43.5t-24 35.5t-35.5 23.5t-43.5 8.5t-43.5 -9t-35.5 -24.5t-24 -36t-9 -43.5v-190q0 -25 -13.5 -43t-40.5 -18t-40.5 18t-13.5 43v291l-223 1v-293z" />
<glyph unicode="&#xfb;" horiz-adv-x="590" d="M306 787q-10 0 -19.5 -3t-18.5 -7l-141 -57q-20 -8 -31.5 -26t-11.5 -40q0 -30 20.5 -52t51.5 -22q12 0 32.5 7t42.5 16.5t42.5 18.5t31.5 14q12 -5 32 -14t42 -18t42.5 -15.5t32.5 -6.5q29 0 50.5 21t21.5 50q0 23 -12.5 41.5t-33.5 26.5l-137 56q-9 4 -18 7t-19 3z M29 243q0 -68 19 -116t55 -78.5t87.5 -45t116.5 -14.5q64 0 115.5 14.5t87.5 45t55 78.5t19 116v193q0 23 -9 43.5t-24 35.5t-35.5 23.5t-43.5 8.5t-43.5 -9t-35.5 -24.5t-24 -36t-9 -43.5v-190q0 -25 -13.5 -43t-40.5 -18t-40.5 18t-13.5 43v291l-223 1v-293z" />
<glyph unicode="&#xfc;" horiz-adv-x="590" d="M106 659q0 -19 8 -36t21 -29.5t30 -20t36 -7.5q40 0 68 27.5t28 67.5q0 19 -7.5 36.5t-20.5 30.5t-30.5 20.5t-36.5 7.5q-41 0 -68.5 -28t-27.5 -69zM316 659q0 -20 8 -37t21 -29.5t30.5 -19.5t37.5 -7q19 0 36.5 7.5t30 20.5t20 30.5t7.5 36.5q0 20 -7.5 37.5t-21 30 t-31 20t-36.5 7.5q-41 0 -68 -28.5t-27 -68.5zM29 243q0 -68 19 -116t55 -78.5t87.5 -45t116.5 -14.5q64 0 115.5 14.5t87.5 45t55 78.5t19 116v193q0 23 -9 43.5t-24 35.5t-35.5 23.5t-43.5 8.5t-43.5 -9t-35.5 -24.5t-24 -36t-9 -43.5v-190q0 -25 -13.5 -43t-40.5 -18 t-40.5 18t-13.5 43v291l-223 1v-293z" />
<glyph unicode="&#xfd;" />
<glyph unicode="&#xfe;" />
<glyph unicode="&#xff;" horiz-adv-x="497" d="M64 683q0 -41 26.5 -69.5t68.5 -28.5q40 0 67.5 27.5t27.5 67.5q0 19 -7.5 36.5t-20 30.5t-30 20.5t-37.5 7.5q-19 0 -36 -7t-30 -19.5t-21 -29.5t-8 -36zM274 679q0 -20 7.5 -37t20.5 -29.5t30 -20t37 -7.5q19 0 36.5 7.5t31 20t21 30t7.5 37.5q0 19 -7.5 36.5 t-20.5 30.5t-30.5 20.5t-37.5 7.5q-41 0 -68 -28t-27 -68zM173 539l-195 -88l173 -397l-77 -167q-10 -21 -10 -47q0 -22 9 -40t24 -31.5t34.5 -21t40.5 -7.5q40 0 64.5 22t39.5 57l246 571q11 25 11 51q0 22 -9 42t-24.5 34t-36 22.5t-42.5 8.5q-45 0 -68.5 -26t-36.5 -65 l-51 -152z" />
<glyph unicode="&#x152;" horiz-adv-x="1035" d="M601 669q-38 38 -89.5 52.5t-103.5 14.5q-19 0 -37.5 -1.5t-36.5 -3.5q-67 -9 -124.5 -43.5t-99.5 -85.5t-66 -114.5t-24 -129.5q0 -76 31 -144t83 -119t120.5 -81t144.5 -30q23 0 50.5 3.5t55.5 10.5t53 18t43 26v1q10 -26 22 -34.5t41 -8.5l299 -3q21 0 39 7.5t32 21.5 t22 32t8 39t-8 39t-21.5 32t-31.5 22t-39 8h-174v58h137q20 0 38 8t31.5 21.5t21.5 31.5t8 38q0 21 -7.5 39.5t-21 32t-31.5 21.5t-39 8h-138v61h230v203h-351q-28 0 -47.5 -9.5t-19.5 -41.5zM250 360q0 34 9 66.5t27 57.5t46 40.5t66 15.5q37 0 66.5 -14t50.5 -38t32 -55.5 t11 -67.5q0 -34 -9.5 -66t-28.5 -56.5t-47.5 -39.5t-65.5 -15q-38 0 -67 13.5t-49 37t-30.5 55t-10.5 66.5z" />
<glyph unicode="&#x153;" horiz-adv-x="953" d="M490 40q46 -29 93 -40t101 -11q19 0 47 2t56.5 5t55.5 7.5t45 10.5q-4 32 -8.5 63t-8.5 63l-4 31q-2 6 -2 11q-2 2 -1 2q-8 0 -19 -3t-19 -5q-29 -7 -58.5 -13.5t-58.5 -6.5q-34 0 -60.5 13t-43.5 44h271q38 0 60.5 19t22.5 58q0 22 -5.5 42.5t-13.5 40.5 q-17 43 -45.5 75.5t-64.5 54.5t-78.5 33.5t-87.5 11.5q-29 0 -50.5 -3t-40.5 -9t-38 -15t-43 -22q-44 24 -83.5 37.5t-90.5 13.5q-59 0 -112.5 -21t-94.5 -58t-65.5 -88.5t-24.5 -112.5q0 -63 23.5 -114.5t63.5 -89t93.5 -58t114.5 -20.5q50 0 91.5 11.5t82.5 40.5zM238 268 q0 16 5.5 31.5t15.5 28t24.5 20t31.5 7.5q35 0 55.5 -25.5t20.5 -58.5q0 -17 -5 -33.5t-15 -29t-24 -20t-33 -7.5q-37 0 -56.5 27t-19.5 60zM606 325q3 25 20 42t43 17q22 0 40 -18t17 -41h-120z" />
<glyph unicode="&#x178;" horiz-adv-x="598" d="M120 862q0 -41 26.5 -69.5t68.5 -28.5q40 0 67.5 27.5t27.5 67.5q0 19 -7.5 36.5t-20 30.5t-30 20.5t-37.5 7.5q-19 0 -36 -7t-30 -19.5t-21 -29.5t-8 -36zM330 858q0 -20 7.5 -37t20.5 -29.5t30 -20t37 -7.5q19 0 36.5 7.5t31 20t21 30t7.5 37.5q0 19 -7.5 36.5 t-20.5 30.5t-30.5 20.5t-37.5 7.5q-41 0 -68 -28t-27 -68zM160 730l-176 -144l221 -248v-230q0 -24 9 -45.5t24.5 -37.5t37 -25.5t45.5 -9.5t45 9.5t36.5 26t24.5 37.5t9 45v230l191 207q12 13 17.5 29.5t5.5 33.5q0 23 -9 45t-24.5 38.5t-36.5 26.5t-45 10q-31 0 -56.5 -17 t-44.5 -40l-114 -138z" />
<glyph unicode="&#x2c6;" horiz-adv-x="374" d="M216 787q-10 0 -19.5 -3t-18.5 -7l-141 -57q-20 -8 -31.5 -26t-11.5 -40q0 -30 20.5 -52t51.5 -22q12 0 32.5 7t42.5 16.5t42.5 18.5t31.5 14q12 -5 32 -14t42 -18t42.5 -15.5t32.5 -6.5q29 0 50.5 21t21.5 50q0 23 -12.5 41.5t-33.5 26.5l-137 56q-9 4 -18 7t-19 3z" />
<glyph unicode="&#x2dc;" horiz-adv-x="362" d="M61 736q-27 0 -45 -20.5t-18 -46.5t16.5 -48t45.5 -22h271q29 0 49 20t20 49q0 28 -20 48t-48 20h-271z" />
<glyph unicode="&#x2000;" horiz-adv-x="489" />
<glyph unicode="&#x2001;" horiz-adv-x="978" />
<glyph unicode="&#x2002;" horiz-adv-x="489" />
<glyph unicode="&#x2003;" horiz-adv-x="978" />
<glyph unicode="&#x2004;" horiz-adv-x="326" />
<glyph unicode="&#x2005;" horiz-adv-x="244" />
<glyph unicode="&#x2006;" horiz-adv-x="163" />
<glyph unicode="&#x2007;" horiz-adv-x="163" />
<glyph unicode="&#x2008;" horiz-adv-x="122" />
<glyph unicode="&#x2009;" horiz-adv-x="195" />
<glyph unicode="&#x200a;" horiz-adv-x="54" />
<glyph unicode="&#x2010;" horiz-adv-x="456" d="M115 386q-19 0 -35.5 -7t-29 -19t-19.5 -28.5t-7 -35.5q0 -38 26.5 -63.5t64.5 -25.5h340l1 179h-341z" />
<glyph unicode="&#x2011;" horiz-adv-x="456" d="M115 386q-19 0 -35.5 -7t-29 -19t-19.5 -28.5t-7 -35.5q0 -38 26.5 -63.5t64.5 -25.5h340l1 179h-341z" />
<glyph unicode="&#x2012;" horiz-adv-x="456" d="M115 386q-19 0 -35.5 -7t-29 -19t-19.5 -28.5t-7 -35.5q0 -38 26.5 -63.5t64.5 -25.5h340l1 179h-341z" />
<glyph unicode="&#x2013;" horiz-adv-x="628" d="M142 448q-18 0 -32.5 -7.5t-24 -20.5t-15 -29t-5.5 -32q0 -17 5.5 -33t15 -28.5t24 -20.5t32.5 -8h452v179h-452z" />
<glyph unicode="&#x2014;" horiz-adv-x="567" d="M31 252h527l-1 204h-526v-204z" />
<glyph unicode="&#x2018;" horiz-adv-x="289" d="M-32 412l189 -87l130 266q10 20 10 45q0 22 -8.5 41.5t-23.5 34.5t-34.5 23.5t-41.5 8.5q-32 0 -58.5 -17t-39.5 -46z" />
<glyph unicode="&#x2019;" horiz-adv-x="289" d="M287 647l-189 87l-130 -266q-10 -20 -10 -45q0 -23 8.5 -42.5t23.5 -34.5t35 -23.5t42 -8.5q32 0 57.5 17.5t39.5 46.5z" />
<glyph unicode="&#x201a;" horiz-adv-x="259" d="M96 238l-117 -272q-9 -21 -9 -45q0 -43 28.5 -73.5t72.5 -30.5q30 0 57 17t40 45l124 269z" />
<glyph unicode="&#x201c;" horiz-adv-x="533" d="M-10 426l189 -87l114 252q10 23 10 45t-8.5 42t-23.5 34.5t-35 23t-42 8.5q-32 0 -58.5 -17t-38.5 -46zM269 426l189 -87l113 252q10 23 10 46q0 22 -8.5 42t-23 34t-34.5 22.5t-42 8.5q-32 0 -58.5 -17t-38.5 -46z" />
<glyph unicode="&#x201d;" horiz-adv-x="533" d="M571 647l-189 87l-114 -252q-10 -23 -10 -45q0 -23 8.5 -42.5t23.5 -34.5t34.5 -23.5t42.5 -8.5q32 0 58.5 17.5t38.5 46.5zM292 647l-189 87l-113 -252q-10 -21 -10 -46q0 -23 8.5 -42.5t23 -34t34 -23t42.5 -8.5q32 0 58.5 17.5t38.5 46.5z" />
<glyph unicode="&#x201e;" horiz-adv-x="499" d="M105 253l-126 -287q-9 -21 -9 -45q0 -43 28.5 -73.5t72.5 -30.5q30 0 57 17t40 45l133 284zM384 253l-126 -287q-10 -23 -10 -45q0 -21 8 -40t21.5 -33t32 -22.5t40.5 -8.5q30 0 57 17.5t40 44.5l132 284z" />
<glyph unicode="&#x2022;" horiz-adv-x="351" d="M29 360q0 -30 11.5 -56t31 -45.5t45.5 -31t56 -11.5t56 11.5t45.5 31t31 45.5t11.5 56t-11.5 56t-31 45.5t-45.5 31t-56 11.5t-56 -11.5t-45.5 -31t-31 -45.5t-11.5 -56z" />
<glyph unicode="&#x2026;" horiz-adv-x="799" d="M36 94q0 -23 8.5 -42.5t23 -34t34 -23t42.5 -8.5q22 0 42 8.5t34.5 23t23 34t8.5 42.5q0 22 -8.5 41.5t-23.5 34.5t-34.5 23.5t-41.5 8.5t-41.5 -8.5t-34.5 -23.5t-23.5 -34.5t-8.5 -41.5zM324 94q0 -23 8.5 -42.5t23 -34t34 -23t42.5 -8.5q22 0 42 8.5t34.5 23t23 34 t8.5 42.5q0 22 -8.5 41.5t-23.5 34.5t-34.5 23.5t-41.5 8.5t-41.5 -8.5t-34.5 -23.5t-23.5 -34.5t-8.5 -41.5zM612 94q0 -23 8.5 -42.5t23 -34t34 -23t42.5 -8.5q22 0 42 8.5t34.5 23t23 34t8.5 42.5q0 22 -8.5 41.5t-23.5 34.5t-34.5 23.5t-41.5 8.5t-41.5 -8.5 t-34.5 -23.5t-23.5 -34.5t-8.5 -41.5z" />
<glyph unicode="&#x202f;" horiz-adv-x="195" />
<glyph unicode="&#x2039;" horiz-adv-x="318" d="M29 333l-1 -131l128 -142q14 -16 33 -26t40 -10q18 0 34 7t27.5 19t18.5 27.5t7 33.5q0 20 -8 37.5t-22 31.5l-83 87l84 84q14 14 22.5 32t8.5 38q0 16 -6.5 31.5t-18 27.5t-26.5 19t-32 7q-23 0 -43.5 -12t-36.5 -29z" />
<glyph unicode="&#x203a;" horiz-adv-x="318" d="M138 265l-84 -85q-14 -14 -22.5 -32t-8.5 -38q0 -17 7 -32.5t19 -27.5t27.5 -19t32.5 -7q23 0 43 12t34 30l106 133l1 131l-108 141q-13 17 -32 26.5t-40 9.5q-18 0 -34 -7t-28 -18.5t-19 -27.5t-7 -34q0 -20 8 -37t22 -31z" />
<glyph unicode="&#x205f;" horiz-adv-x="244" />
<glyph unicode="&#x2122;" horiz-adv-x="746" d="M58 720q-15 0 -25.5 -10.5t-10.5 -25.5q0 -18 10.5 -26t25 -10t30.5 -1t27 1v-266h78v266q11 0 27 -1t30.5 1t25 10t10.5 26q0 15 -10.5 25.5t-25.5 10.5h-192zM264 391l78 -10l32 213l64 -219h83l64 219l32 -213l78 10l-49 292q-3 19 -18.5 30t-33.5 11q-39 0 -52 -40 l-63 -207l-62 207q-5 17 -18 28.5t-32 11.5t-35 -10.5t-19 -30.5z" />
<glyph unicode="&#xe000;" horiz-adv-x="555" d="M0 555h555v-555h-555v555z" />
</font>
</defs>
</svg>
