<?xml version="1.0" standalone="no"?>
<!DOCTYPE svg PUBLIC "-//W3C//DTD SVG 1.1//EN" "http://www.w3.org/Graphics/SVG/1.1/DTD/svg11.dtd" >
<svg xmlns="http://www.w3.org/2000/svg">
<metadata></metadata>
<defs>
<font id="almendra_scregular" horiz-adv-x="475" >
<font-face units-per-em="1000" ascent="800" descent="-200" />
<missing-glyph horiz-adv-x="180" />
<glyph horiz-adv-x="1000" />
<glyph horiz-adv-x="1000" />
<glyph unicode="&#xd;" horiz-adv-x="1000" />
<glyph unicode=" "  horiz-adv-x="180" />
<glyph unicode="&#x09;" horiz-adv-x="180" />
<glyph unicode="&#xa0;" horiz-adv-x="180" />
<glyph unicode="!" horiz-adv-x="226" d="M52 46q6 12 23 27.5t31 22.5q13 -8 30 -23.5t24 -26.5q-7 -13 -24.5 -33t-29.5 -28q-12 8 -29.5 28t-24.5 33zM72 679q12 6 38 12t39 5q11 -10 32 -40q-47 -167 -62 -474l-26 -2z" />
<glyph unicode="&#x22;" horiz-adv-x="315" d="M63 649q12 6 38 12t39 5l12 -13q-31 -80 -46 -219l-30 -2zM198 649q12 6 38 12t39 5l12 -13q-31 -80 -46 -219l-30 -2z" />
<glyph unicode="#" horiz-adv-x="550" d="M40 151l10 52l46 -4q18 -2 71 -4l16 129l-108 3l-8 6l10 53l45 -4q16 -2 67 -4l26 209q19 0 44 5l4 -3q-21 -112 -33 -213q33 -2 109 -4l26 215q19 0 44 5l4 -3q-21 -113 -33 -217v-1q100 -2 123 -1l7 -6l-10 -48l-127 3l-15 -131q96 -2 118 -1l7 -5l-10 -49l-121 3 l-27 -228h-5q-24 5 -41 21q18 99 31 208l-108 3l-27 -232h-5q-24 5 -41 21q18 99 31 208v4l-112 3zM208 193q32 -2 108 -4l16 131l-108 3z" />
<glyph unicode="$" horiz-adv-x="450" d="M55 11v13q37 46 43 112h22q0 -39 2 -61q41 -22 87 -25l9 174q-39 23 -61.5 38t-43 37.5t-20.5 42.5q0 43 41.5 91t101.5 78l3 77q16 2 27 6l4 -3q-6 -35 -7 -68q76 0 139 -16v-14q-37 -46 -43 -113h-22q0 40 -3 63q-38 14 -74 15l-6 -147q33 -19 49 -29.5t40 -28 t34.5 -33t10.5 -31.5q0 -52 -43.5 -105t-110.5 -86l-1 -90h-5q-17 5 -27 15l5 62q-79 0 -151 26zM153 399q0 -26 76 -73l5 131q-81 -9 -81 -58zM236 50q39 4 65.5 23.5t26.5 58.5q0 27 -85 77z" />
<glyph unicode="%" horiz-adv-x="744" d="M34 389q14 88 58 134.5t86 46.5q22 0 114 -15t161 -15q63 0 86 38l6 10q38 2 65 10l3 -3q-68 -97 -145 -217l-305 -478h-5q-26 12 -39 32q101 137 122 170l175 274q48 72 94 151l-4 1q-24 -25 -69 -25q-59 0 -177 36l-3 -3q47 -44 62 -128q-14 -88 -57 -134.5t-84 -46.5 q-48 0 -89 42.5t-55 119.5zM106 399q0 -45 20 -87t52 -54q33 12 52 53.5t19 87.5t-19 87.5t-52 53.5q-32 -12 -52 -54t-20 -87zM425 147q14 88 58 134.5t86 46.5q47 0 87 -42.5t54 -119.5q-14 -88 -57 -134.5t-84 -46.5q-48 0 -89 42.5t-55 119.5zM497 157q0 -45 20 -87 t52 -54q33 12 52 53.5t19 87.5t-19 87.5t-52 53.5q-32 -12 -52 -54t-20 -87z" />
<glyph unicode="&#x26;" horiz-adv-x="602" d="M50 185q0 69 58 115t132 46v4q-68 4 -113.5 38t-45.5 94q36 64 95.5 115t127.5 69q71 0 140 -19q16 8 41 31l21 -14q-66 -80 -81 -191h-26q0 55 -5 93q-48 28 -115 28q-65 0 -106 -34q-7 -94 34.5 -139t135.5 -45q140 0 253 32l5 -5q-10 -32 -13 -74l-3 -4q-46 6 -103 8 v-150q0 -61 -57.5 -118.5t-125.5 -79.5q-107 0 -178 52t-71 148zM144 206q0 -73 48 -111.5t121 -38.5q57 0 94 24q7 14 7 46q0 107 -14 207h-74q-79 0 -130.5 -30.5t-51.5 -96.5z" />
<glyph unicode="'" horiz-adv-x="180" d="M63 649q12 6 38 12t39 5l12 -13q-31 -80 -46 -219l-30 -2z" />
<glyph unicode="(" horiz-adv-x="297" d="M48 262q0 135 53 251.5t149 197.5l10 -10q-140 -191 -140 -439q0 -127 36 -250.5t104 -216.5l-10 -10q-94 80 -148 208.5t-54 268.5z" />
<glyph unicode=")" horiz-adv-x="297" d="M37 -205q68 93 104 216.5t36 250.5q0 248 -140 439l10 10q96 -81 149 -197.5t53 -251.5q0 -140 -54 -268.5t-148 -208.5z" />
<glyph unicode="*" horiz-adv-x="371" d="M43 465q0 3 25 35l-8.5 8.5t-9.5 11.5l1 2q55 -2 115 25q-64 27 -115 25l-1 2q2 4 9.5 11.5l8.5 8.5q-1 2 -8.5 10.5t-12 14.5t-4.5 10q4 3 43 -4q0 1 3 11.5t5 14.5h3q26 -48 78 -87q-9 65 -36 112l2 2q3 0 13.5 -3t12.5 -3q13 36 18 39q5 -2 18 -39q2 0 12.5 3t13.5 3 l2 -2q-29 -47 -36 -112q52 39 78 87h3q2 -4 5 -14.5t3 -11.5q38 7 43 4q0 -3 -25 -35l8.5 -8.5t9.5 -11.5l-1 -2q-52 2 -116 -25q60 -27 116 -25l1 -2q-2 -4 -9.5 -11.5l-8.5 -8.5q1 -2 8.5 -10.5t12 -14.5t4.5 -10q-5 -3 -43 4q0 -1 -3 -11.5t-5 -14.5h-3q-27 49 -78 87 q7 -65 36 -112l-2 -2q-3 0 -13.5 3t-12.5 3q-13 -36 -18 -39q-5 2 -18 39q-2 0 -12.5 -3t-13.5 -3l-2 2q28 47 36 112q-51 -38 -78 -87h-3q-2 4 -5 14.5t-3 11.5q-38 -7 -43 -4z" />
<glyph unicode="+" horiz-adv-x="550" d="M58 229l9 51q122 -6 185 -7v203l47 9l5 -6q-5 -132 -5 -206v-1q37 -1 111 -1q46 0 85 3l6 -6l-9 -46h-193q0 -127 9 -222l-46 -9l-10 7v224h-186z" />
<glyph unicode="," horiz-adv-x="213" d="M36 -129q21 25 38 61.5t18 63.5q-26 24 -40 50q6 12 23 27.5t31 22.5q13 -8 30 -23.5t24 -26.5q0 -50 -34 -102t-80 -83z" />
<glyph unicode="-" horiz-adv-x="286" d="M28 242l6 46h46q88 0 172 10l8 -5l-6 -42l-217 -15z" />
<glyph unicode="." horiz-adv-x="212" d="M52 46q6 12 23 27.5t31 22.5q13 -8 30 -23.5t24 -26.5q-7 -13 -24.5 -33t-29.5 -28q-12 8 -29.5 28t-24.5 33z" />
<glyph unicode="/" horiz-adv-x="354" d="M16 -11q45 100 79 189l114 299q40 104 78 221q28 2 55 8l4 -3q-26 -59 -83 -212l-202 -532h-5q-23 10 -40 30z" />
<glyph unicode="0" d="M20 244q26 138 91.5 215t126.5 77q70 0 130 -70.5t88 -190.5q-26 -138 -91.5 -214t-126.5 -76q-70 0 -130 69.5t-88 189.5zM116 260q0 -80 32.5 -150t89.5 -91q57 21 89.5 91t32.5 150t-32.5 150t-89.5 91q-57 -21 -89.5 -91t-32.5 -150z" />
<glyph unicode="1" d="M132 440q0 13 3 19q78 18 134 74q12 3 28 3l4 -2q-14 -82 -14 -259v-55q0 -134 7 -187q29 -7 59 -20l-3 -19q-51 6 -102 6q-49 0 -105 -8l-2 19q35 13 63 19q9 74 9 190v55q0 103 -3 163h-76z" />
<glyph unicode="2" d="M36 -7q19 47 64.5 103.5t87 98.5t74.5 95.5t33 99.5q0 84 -94 84q-35 0 -66 -14q-7 -12 -7 -34q0 -18 10 -27l-1 -7q-26 -16 -48 -40q-12 1 -19 9.5t-7 19.5q0 46 55.5 92.5t111.5 62.5q90 0 127 -42t37 -137q-81 -126 -262 -274l2 -7q15 8 26 11q92 3 211 -13 q10 22 23 58l21 -7q-11 -39 -11 -73q0 -30 7 -59l-12 -8q-177 34 -317 33q-16 -19 -26 -34z" />
<glyph unicode="3" d="M39 24v13q38 43 43 112h22q0 -39 2 -61q24 -17 63.5 -29t69.5 -12q42 0 62 24q13 30 13 75q0 66 -37.5 101.5t-104.5 35.5l-4 6l135 159l-2 4q-15 -7 -27 -10q-58 0 -147 7q-9 -22 -20 -61l-21 7q7 40 7 65q0 34 -10 67l11 9q120 -27 280 -27q25 16 36 27l17 -15 q-39 -36 -177 -179q152 -25 152 -186q-21 -52 -74.5 -102t-107.5 -69q-41 0 -93 11t-88 28z" />
<glyph unicode="4" d="M13 153q86 98 142 177t107 181q42 10 73 25l8 -4q-13 -77 -13 -182q0 -126 1 -161q38 0 53.5 7.5t27.5 36.5l16 -3q-9 -45 -9 -92l-4 -2q-35 3 -83 3q0 -47 8 -106q21 -11 51 -18l-4 -20q-57 5 -101 5q-49 0 -111 -12l-3 20q34 15 79 26q7 57 7 105h-241zM118 200 q64 -7 140 -8l3 238h-7q-51 -112 -136 -230z" />
<glyph unicode="5" d="M50 24v13q38 43 43 112h22q0 -39 2 -61q24 -17 63.5 -29t69.5 -12q42 0 62 24q13 31 13 75q0 66 -37.5 101.5t-103.5 35.5q-39 0 -70 -17l-12 9l10 151q4 67 -2 107l21 4q5 -18 9 -27q128 4 229 26l11 -9q-12 -35 -12 -79q0 -24 5 -54l-22 -5q-9 37 -18 60 q-70 -7 -153 -7l-23 10l-4 -5l-11 -131q39 22 73 30q95 -2 146.5 -50t51.5 -140q-21 -52 -74.5 -102t-107.5 -69q-41 0 -93 11t-88 28z" />
<glyph unicode="6" d="M76 163q0 117 79.5 219t193.5 154l13 -18q-88 -63 -142.5 -146t-54.5 -176q0 -66 25.5 -107.5t80.5 -41.5q49 0 69 24q15 38 15 75q0 61 -34.5 92t-96.5 31q-15 0 -30 -3v7q32 23 57 51q90 0 141 -42t51 -126q-22 -51 -81 -103.5t-112 -67.5q-84 0 -129 47t-45 131z" />
<glyph unicode="7" d="M94 527l11 9q102 -21 289 -27q9 11 18 23l19 -11q-68 -101 -112 -193q-82 -171 -83 -292q48 -9 80 -22l-2 -20q-124 14 -212 -5l-5 20q32 10 50 21q7 74 38.5 144.5t98.5 176.5l64 100l-3 4q-14 -6 -27 -10q-125 0 -177 5q-9 -23 -18 -60l-22 5q5 30 5 54q0 43 -12 78z " />
<glyph unicode="8" d="M62 116q0 67 117 147q-95 59 -95 142q23 37 79.5 78.5t98.5 52.5q58 0 98.5 -25.5t40.5 -74.5q0 -61 -109 -138q31 -16 49.5 -27.5t39.5 -29.5t31 -40t10 -49q-21 -55 -75 -101t-114 -66q-69 0 -120 35.5t-51 95.5zM136 142q0 -44 35 -69.5t83 -25.5q46 0 68 24 q12 24 12 51q0 18 -6.5 32.5t-23 28t-29 21.5t-39.5 23t-38 22q-33 -25 -47.5 -48.5t-14.5 -58.5zM171 422q0 -61 100 -111q29 26 42.5 47.5t13.5 51.5q0 64 -86 64q-44 0 -65 -23q-5 -15 -5 -29z" />
<glyph unicode="9" d="M32 365q22 51 81 103.5t112 67.5q84 0 129 -47t45 -131q0 -117 -79.5 -219t-193.5 -154l-13 18q88 63 142.5 146t54.5 176q0 66 -25.5 107.5t-80.5 41.5q-49 0 -69 -24q-15 -38 -15 -75q0 -61 34 -92t97 -31q15 0 30 3v-7q-32 -23 -57 -51q-90 0 -141 42t-51 126z" />
<glyph unicode=":" horiz-adv-x="212" d="M52 46q6 12 23 27.5t31 22.5q13 -8 30 -23.5t24 -26.5q-7 -13 -24.5 -33t-29.5 -28q-12 8 -29.5 28t-24.5 33zM52 435q6 12 23 27.5t31 22.5q13 -8 30 -23.5t24 -26.5q-7 -13 -24.5 -33t-29.5 -28q-12 8 -29.5 28t-24.5 33z" />
<glyph unicode=";" horiz-adv-x="212" d="M36 -129q21 25 38 61.5t18 63.5q-26 24 -40 50q6 12 23 27.5t31 22.5q13 -8 30 -23.5t24 -26.5q0 -50 -34 -102t-80 -83zM52 435q6 12 23 27.5t31 22.5q13 -8 30 -23.5t24 -26.5q-7 -13 -24.5 -33t-29.5 -28q-12 8 -29.5 28t-24.5 33z" />
<glyph unicode="&#x3c;" horiz-adv-x="550" d="M52 222l14 64q56 17 186 66q124 47 222 97l24 -46l-5 -10l-359 -139v-4l359 -138l5 -10l-26 -47q-90 45 -206.5 91.5t-213.5 75.5z" />
<glyph unicode="=" horiz-adv-x="550" d="M53 152l9 51q170 -9 343 -9q46 0 85 3l6 -6l-9 -46h-426zM53 306l9 51q170 -9 343 -9q46 0 85 3l6 -6l-9 -46h-426z" />
<glyph unicode="&#x3e;" horiz-adv-x="550" d="M52 102l5 10l359 138v4l-359 139l-5 10l24 46q98 -50 222 -97q130 -49 186 -66l14 -64q-97 -29 -214 -75.5t-206 -91.5z" />
<glyph unicode="?" horiz-adv-x="335" d="M17 541q0 46 53.5 92.5t108.5 62.5q81 0 118.5 -39t37.5 -120q-63 -90 -158 -185q-7 -89 -11 -170l-26 -2l-21 139v19q120 120 120 222q0 37 -24 55.5t-64 18.5q-34 0 -62 -14q-7 -12 -7 -34q0 -18 10 -27l-1 -7q-26 -16 -48 -40q-12 1 -19 9.5t-7 19.5zM97 49 q6 12 23 27.5t31 22.5q13 -8 30 -23.5t24 -26.5q-7 -13 -24.5 -33t-29.5 -28q-12 8 -29.5 28t-24.5 33z" />
<glyph unicode="@" horiz-adv-x="860" d="M55 155q0 201 113 342.5t306 168.5q349 0 349 -303q0 -149 -72.5 -255t-189.5 -123l-7 3q-35 69 -31 194q-37 5 -81 5q-50 0 -77 -5q-17 -70 -17 -106q0 -44 35 -64l-4 -17q-23 5 -79 5q-75 0 -109 -8l-4 26q30 10 66 16l121 423q-53 9 -77 16l3 26q88 -11 172 -11 q107 0 195 11l4 -26q-25 -11 -62 -18q-11 -103 -11 -192q0 -169 22 -227l6 -3q66 36 99.5 119t33.5 177q0 287 -301 287q-102 0 -177 -46q-73 -70 -116.5 -181t-43.5 -217q0 -150 72 -231t216 -81q62 0 119 22l7 -13q-60 -42 -134 -59q-176 0 -261 84.5t-85 260.5zM374 229 q30 -6 68 -6q55 0 81 6q0 168 -8 218q-19 3 -45 3q-18 0 -44 -2z" />
<glyph unicode="A" horiz-adv-x="599" d="M-54 17q45 14 96 21l158 560q-118 0 -151 -32q-7 -14 -7 -46q0 -28 10 -39l-1 -7q-25 -15 -50 -42q-12 1 -19.5 10t-7.5 21q0 49 59 117t110 86q151 -17 306 -29q14 18 23 46l21 -6q-14 -70 -19 -144t-5 -237q0 -165 13 -261q53 -5 110 -19l-3 -24q-74 8 -156 8 q-91 0 -144 -8l-4 25q45 14 96 21q8 66 11 213q-52 6 -102 6q-75 0 -118 -6q-24 -98 -24 -150q0 -66 43 -91l-4 -14q-31 4 -96 4q-82 0 -141 -8zM183 301q45 -7 107 -7q61 0 102 7q0 177 -5 289l-3 3q-52 5 -129 5l-56 -231z" />
<glyph unicode="B" horiz-adv-x="576" d="M-100 463q0 46 52.5 109t100.5 87q85 -8 246 -8q38 0 62.5 -1.5t53.5 -7.5t45.5 -17.5t28 -33t11.5 -52.5q0 -53 -39 -98.5t-95 -68.5v-4q72 0 117 -33.5t45 -98.5q0 -80 -75 -154t-162 -97q-62 0 -146 38q-17 -26 -23 -45l-21 5q24 109 24 342q0 89 -8 273 q-111 -2 -142 -32q-7 -14 -7 -46q0 -28 10 -39l-1 -7q-25 -15 -50 -42q-12 1 -19.5 10t-7.5 21zM202 325q0 -152 5 -240q52 -28 118 -28q53 0 88 24q23 49 23 110q0 154 -190 154l5 37h12q74 0 107 21q36 40 36 106q0 57 -33.5 74.5t-104.5 17.5q-36 0 -58 -3 q-8 -101 -8 -273z" />
<glyph unicode="C" horiz-adv-x="498" d="M42 205q0 108 25.5 198.5t88.5 163t157 99.5q101 0 206 -19l-1 -22q-26 0 -48 -9q-25 -59 -33 -141h-25q-9 47 -9 90q-53 29 -115 29q-65 0 -106 -38q-51 -103 -51 -265q0 -52 3 -93.5t14 -87t29.5 -75.5t51 -49.5t76.5 -19.5q43 0 87.5 25.5t74.5 63.5l14 -14 q-73 -114 -198 -156q-86 0 -141 44t-77.5 113t-22.5 163z" />
<glyph unicode="D" horiz-adv-x="620" d="M-100 463q0 46 52.5 109t100.5 87q85 -8 252 -8q273 0 273 -265q0 -139 -73 -252t-198 -149q-72 0 -161 38q-17 -26 -23 -45l-21 5q24 109 24 342q0 176 -9 273q-111 -2 -142 -32q-7 -14 -7 -46q0 -28 10 -39l-1 -7q-25 -15 -50 -42q-12 1 -19.5 10t-7.5 21zM203 325 q0 -152 5 -240q54 -28 132 -28q60 0 98 34q51 93 51 229q0 138 -42.5 211t-157.5 73q-46 0 -77 -5q-9 -94 -9 -274z" />
<glyph unicode="E" horiz-adv-x="513" d="M50 185q0 69 58 115t132 46v4q-68 4 -113.5 38t-45.5 94q36 64 95.5 115t127.5 69q71 0 140 -19q16 8 41 31l21 -14q-66 -80 -81 -191h-26q0 55 -5 93q-48 28 -115 28q-65 0 -106 -34q-15 -187 170 -187l-5 -37h-12q-79 0 -130.5 -31.5t-51.5 -98.5q0 -73 48 -111.5 t121 -38.5q57 0 94 24q7 14 7 46q0 28 -10 39l1 7q25 15 50 42q12 -1 19.5 -10t7.5 -21q0 -61 -57.5 -118.5t-125.5 -79.5q-107 0 -178 52t-71 148z" />
<glyph unicode="F" horiz-adv-x="488" d="M-110 463q0 49 59 117t110 86q70 -3 163.5 -12t142.5 -9q79 0 109 31l19 -10q-43 -78 -50 -182h-25q-9 43 -9 109q-26 -8 -73 -8q-31 0 -121 8q-8 -74 -8 -227q43 -8 84 -8q78 0 99 43l20 -4q-9 -32 -9 -77q0 -44 6 -87l-23 -4q-15 38 -20 89q-37 3 -73 3q-44 0 -84 -5 q1 -204 13 -281q50 -5 110 -19l-3 -24q-74 8 -156 8q-91 0 -144 -8l-4 25q45 14 96 21q11 82 11 258v59q0 99 -12 243h-2q-118 0 -151 -32q-7 -14 -7 -46q0 -28 10 -39l-1 -7q-25 -15 -50 -42q-12 1 -19.5 10t-7.5 21z" />
<glyph unicode="G" horiz-adv-x="557" d="M42 265q0 138 73.5 252.5t197.5 148.5q104 0 209 -19l-1 -22q-25 0 -48 -9q-27 -63 -33 -141h-25q-9 41 -9 93q-47 26 -118 26q-65 0 -106 -34q-51 -87 -51 -221q0 -273 174 -273q47 0 98 28v82q0 23 -4 67q-35 10 -91 20l3 21q23 -3 44 -3q88 0 161 49l9 -18 q-23 -18 -36 -36q-19 -174 -20 -325q-29 -53 -95.5 -102t-121.5 -49q-15 0 -25 8t-10 22q29 22 49 51l7 1q22 -17 59 -17q21 0 32 6q41 55 41 180q-55 -43 -122 -66q-120 0 -180.5 75.5t-60.5 204.5z" />
<glyph unicode="H" horiz-adv-x="708" d="M-108 461q0 49 59 117t110 86q8 0 72 -6.5t102 -6.5q35 0 66 6l4 -25q-39 -15 -89 -27q-7 -75 -9 -223q76 -10 149 -10q77 0 145 9q-1 179 -9 272q19 61 92.5 133t128.5 72q12 0 21.5 -7.5t9.5 -19.5q-27 -25 -42 -50l-7 -1q-11 10 -39 10q-32 0 -46 -7q-32 -37 -32 -131 v-356q0 -187 13 -261q53 -5 110 -19l-3 -24q-64 8 -156 8q-83 0 -144 -8l-4 25q45 14 96 21q10 101 11 290q-74 7 -145 7q-75 0 -149 -7q1 -214 13 -293q53 -5 110 -19l-3 -24q-74 8 -156 8q-91 0 -144 -8l-4 25q45 14 96 21q11 82 11 258v59q0 131 -11 241h-1 q-118 0 -151 -32q-7 -14 -7 -46q0 -28 10 -39l-1 -7q-25 -15 -50 -42q-12 1 -19.5 10t-7.5 21z" />
<glyph unicode="I" horiz-adv-x="337" d="M21 634l4 25q53 -8 144 -8q82 0 156 8l3 -24q-57 -14 -110 -19q-11 -75 -11 -261q0 -224 13 -320q53 -5 110 -19l-3 -24q-74 8 -156 8q-91 0 -144 -8l-4 25q45 14 96 21q11 82 11 258v59q0 162 -13 258q-51 7 -96 21z" />
<glyph unicode="J" horiz-adv-x="337" d="M-105 461q0 49 59 117t110 86q8 0 72 -6.5t102 -6.5q34 0 66 6l4 -25q-39 -15 -89 -27q-12 -108 -12 -250v-59q0 -185 8 -263q-67 -135 -247 -214l-12 21q95 65 134.5 134.5t39.5 179.5v201q0 151 -9 241q-118 0 -151 -32q-7 -14 -7 -46q0 -28 10 -39l-1 -7 q-25 -15 -50 -42q-12 1 -19.5 10t-7.5 21z" />
<glyph unicode="K" horiz-adv-x="606" d="M-108 461q0 49 59 117t110 86q8 0 72 -6.5t102 -6.5q35 0 66 6l4 -25q-39 -15 -89 -27q-9 -92 -9 -255v-55q87 92 134.5 156t58 91t10.5 53q0 29 -17 46l4 14q31 -4 69 -4q77 0 136 8l4 -25q-45 -14 -96 -21q-9 -85 -146 -216l174 -374q39 -84 85 -105q18 0 44 13t32 26 l6 2q27 -18 60 -28q3 -6 3 -13q0 -14 -16.5 -23.5t-46.5 -9.5q-63 0 -148.5 35t-118.5 72q-22 97 -49 169t-82 183q-56 -51 -100 -87q3 -152 13 -222q53 -5 110 -19l-3 -24q-74 8 -156 8q-91 0 -144 -8l-4 25q45 14 96 21q11 82 11 258v59q0 131 -11 241h-1q-118 0 -151 -32 q-7 -14 -7 -46q0 -28 10 -39l-1 -7q-25 -15 -50 -42q-12 1 -19.5 10t-7.5 21z" />
<glyph unicode="L" horiz-adv-x="456" d="M21 634l4 25q53 -8 144 -8q82 0 156 8l3 -24q-60 -14 -110 -19q-13 -88 -13 -261q0 -210 8 -300q34 -2 64 -2q118 0 151 32q7 14 7 46q0 28 -10 39l1 7q25 15 50 42q12 -1 19.5 -10t7.5 -21q0 -49 -59 -117t-110 -86q-86 3 -186 29q-14 -18 -23 -46l-21 6q21 101 24 331 v50q0 175 -11 258q-51 7 -96 21z" />
<glyph unicode="M" horiz-adv-x="864" d="M-46 461q0 49 59 117t110 86q8 0 72 -6.5t102 -6.5q33 0 65 6l4 -25q-41 -16 -41 -31q0 -63 78 -306l32 -100l7 2q1 21 124 412q0 10 -11 19.5t-23 12.5l3 14q50 -4 114 -4q110 0 162 8l5 -25q-48 -15 -97 -21q-5 -24 -5 -71q0 -76 16.5 -261t30.5 -246q53 -5 110 -19 l-3 -24q-74 8 -156 8q-90 0 -143 -8l-4 25q45 14 96 21q0 95 -11 262t-28 286l-3 1q-143 -396 -150 -482q-65 -39 -97 -76l-12 8q2 22 2 33q0 117 -131 517l-4 -1l-31 -219q-20 -143 -20 -258q0 -37 8.5 -61t34.5 -38l-4 -14q-31 4 -98 4q-82 0 -141 -8l-4 25q45 14 96 21 l112 558q-118 0 -151 -32q-7 -14 -7 -46q0 -28 10 -39l-1 -7q-25 -15 -50 -42q-12 1 -19.5 10t-7.5 21z" />
<glyph unicode="N" horiz-adv-x="706" d="M-108 461q0 49 59 117t110 86q12 -1 67.5 -7t92.5 -6q35 0 66 6l4 -25q-41 -17 -41 -33q5 -27 57 -113.5t212 -335.5l4 2v144q0 171 -15 250.5t-57 94.5l4 14q31 -4 94 -4q77 0 136 8l3 -23q-71 -17 -99 -20q-13 -98 -13 -261v-59q0 -187 13 -261q51 -6 96 -18l-4 -25 q-53 8 -126 8q-34 0 -67 -3q0 33 -65 147t-236 381l-4 -2v-168q0 -245 37 -320q55 -5 109 -19l-2 -24q-74 8 -156 8q-91 0 -144 -8l-4 25q45 14 96 21q11 82 11 258v59q0 141 -12 241q-118 0 -151 -32q-7 -14 -7 -46q0 -28 10 -39l-1 -7q-25 -15 -50 -42q-12 1 -19.5 10 t-7.5 21z" />
<glyph unicode="O" horiz-adv-x="602" d="M42 265q0 204 148 338l12 -8q-71 -103 -71 -256q0 -109 50.5 -195.5t140.5 -86.5q59 0 99 35q50 92 50 218q0 76 -14 137.5t-48.5 104t-85.5 42.5q-26 0 -48 -15t-31 -39q0 -20 9 -46.5t23 -33.5l2 -7q-22 -27 -33 -57q-2 -1 -8 -1q-36 0 -36 64q0 108 112 207 q122 0 184.5 -73t62.5 -206q0 -138 -68.5 -246.5t-190.5 -155.5q-117 0 -188 77.5t-71 202.5z" />
<glyph unicode="P" horiz-adv-x="512" d="M-95 463q0 46 52.5 109t100.5 87q85 -8 266 -8q96 0 144.5 -35t48.5 -122q0 -89 -73 -144t-170 -55q-15 0 -22 1l4 32h12q75 0 115 38t40 113q0 68 -33.5 95t-106.5 27q-38 0 -68 -3q-8 -89 -8 -273q0 -201 12 -290q53 -5 110 -19l-3 -24q-74 8 -156 8q-91 0 -144 -8 l-4 25q45 14 96 21q12 82 12 287q0 165 -10 273q-109 -2 -140 -32q-7 -14 -7 -46q0 -28 10 -39l-1 -7q-25 -15 -50 -42q-12 1 -19.5 10t-7.5 21z" />
<glyph unicode="Q" horiz-adv-x="602" d="M53 299q0 126 71.5 230t188.5 137q122 0 184.5 -73t62.5 -206q0 -131 -61.5 -233t-178.5 -154q57 -19 173.5 -83.5t152.5 -64.5q21 0 35.5 25t14.5 50l4 7q33 0 65 10q12 -9 12 -22q0 -31 -52 -61t-112 -45.5t-97 -15.5q-205 144 -305 144q-63 0 -107 -34l-17 16 q28 25 74.5 51.5t83.5 38.5q7 0 34 -5q192 101 192 299q0 58 -10 107t-31 90t-59.5 64t-90.5 23q-60 0 -98 -34q-43 -74 -43 -185q0 -234 119 -234q26 0 48 15t31 39q0 20 -9 46.5t-23 33.5l-2 7q22 27 33 57q2 1 8 1q36 0 36 -64q0 -108 -112 -207q-104 0 -159.5 61 t-55.5 169z" />
<glyph unicode="R" horiz-adv-x="619" d="M-81 463q0 46 52.5 109t100.5 87q85 -8 246 -8q102 0 155 -30.5t53 -116.5q0 -122 -125 -170l140 -296q51 -7 96 -21l-4 -25q-59 8 -141 8q-55 0 -86 -4l-4 14q17 17 17 57q0 80 -94 255q-25 5 -58 5l3 22h12q72 0 111 35.5t39 104.5q0 66 -35 89t-110 23q-35 0 -58 -3 q-8 -89 -8 -273q0 -212 11 -287q51 -7 96 -21l-4 -25q-53 8 -144 8q-82 0 -156 -8l-3 24q57 14 110 19q13 96 13 290q0 165 -10 273q-109 -2 -140 -32q-7 -14 -7 -46q0 -28 10 -39l-1 -7q-25 -15 -50 -42q-12 1 -19.5 10t-7.5 21z" />
<glyph unicode="S" horiz-adv-x="465" d="M11 12q0 88 38.5 152t80.5 64q11 0 22 -7l3 -7q-13 -25 -16 -63l-6 -4q-4 2 -10 2q-16 0 -37.5 -12t-33.5 -24q-7 -14 -7 -32q0 -47 63.5 -80.5t122.5 -33.5q123 0 123 140q0 30 -29.5 65t-71.5 68.5l-84 67t-71.5 70.5t-29.5 69q0 70 63 130.5t143 88.5q86 0 163 -17 v-20q-52 -48 -58 -148h-25q0 53 -5 93q-43 20 -101 20q-43 0 -78 -21.5t-35 -57.5q0 -30 29.5 -63.5t71.5 -65t83.5 -64t71 -70t29.5 -72.5q0 -100 -55 -178t-150 -117q-125 13 -200 70q-4 28 -4 57z" />
<glyph unicode="T" horiz-adv-x="519" d="M-43 463q0 49 59 117t110 86q69 -3 158.5 -12t132.5 -9q33 0 52 6q46 44 65 67l16 -12q-53 -69 -64 -144l-33 9q-66 18 -148 24q-7 -109 -7 -240q0 -224 13 -320q50 -5 110 -19l-3 -24q-74 8 -156 8q-91 0 -144 -8l-4 25q45 14 96 21q11 82 11 258v59q0 99 -12 243h-26 q-118 0 -151 -32q-7 -14 -7 -46q0 -28 10 -39l-1 -7q-25 -15 -50 -42q-12 1 -19.5 10t-7.5 21z" />
<glyph unicode="U" horiz-adv-x="665" d="M-112 461q0 49 59 117t110 86q23 -1 60.5 -7t66.5 -6q33 0 61 4l4 -14q-45 -25 -52 -92q-14 -126 -14 -273q0 -49 5 -83.5t19.5 -65t44.5 -46t75 -15.5q76 0 126 46q5 130 5 212q0 178 -11 292q-51 7 -96 21l4 22q61 -8 142 -8q94 0 158 8l3 -21q-57 -14 -110 -19 q-13 -74 -13 -264v-59q0 -187 13 -261q53 -5 110 -19l-3 -24q-64 8 -156 8q-40 0 -58 -1l-3 14q9 11 13 71q-58 -65 -146 -99q-113 0 -157.5 65.5t-44.5 190.5q0 57 7 181t7 136q0 18 -3 38q-118 0 -151 -32q-7 -14 -7 -46q0 -28 10 -39l-1 -7q-25 -15 -50 -42 q-12 1 -19.5 10t-7.5 21z" />
<glyph unicode="V" horiz-adv-x="599" d="M-164 461q0 49 59 117t110 86q8 0 72 -6.5t102 -6.5q35 0 66 6l4 -25q-32 -12 -85 -26q10 -85 52.5 -243.5t90.5 -293.5q84 186 112.5 282.5t28.5 166.5q0 94 -50 123l4 14q31 -4 86 -4q82 0 141 8l4 -25q-45 -14 -96 -21q5 -35 5 -58q0 -88 -43.5 -189t-167.5 -331 q51 -7 96 -21l-4 -22q-59 8 -141 8q-63 0 -94 -4l-4 14q12 4 23 12.5t11 18.5q0 73 -133 488q-12 38 -24 67q-117 0 -150 -32q-7 -14 -7 -46q0 -28 10 -39l-1 -7q-25 -15 -50 -42q-12 1 -19.5 10t-7.5 21z" />
<glyph unicode="W" horiz-adv-x="906" d="M-164 461q0 49 59 117t110 86q8 0 72 -6.5t102 -6.5h117q216 0 313 10l4 -25q-44 -14 -96 -23q5 -35 5 -58q0 -34 -8 -77q38 -170 120 -409q74 187 97.5 283.5t23.5 165.5q0 94 -50 123l4 14q31 -4 86 -4q82 0 141 8l4 -25q-45 -14 -96 -21q5 -35 5 -58q0 -84 -41.5 -193 t-150.5 -328q17 -9 46 -17l-3 -21q-48 4 -91 4q-63 0 -94 -4l-4 14q12 4 23 12.5t11 18.5q0 59 -71 299h-4q-47 -121 -140 -306q17 -9 46 -17l-3 -21q-48 4 -91 4q-63 0 -94 -4l-4 14q12 4 23 12.5t11 18.5q0 73 -133 488q-12 38 -24 67q-117 0 -150 -32q-7 -14 -7 -46 q0 -28 10 -39l-1 -7q-25 -15 -50 -42q-12 1 -19.5 10t-7.5 21zM164 609q9 -82 51.5 -243t91.5 -297q74 187 97.5 283.5t23.5 165.5q0 68 -25 88.5t-97 20.5q-83 0 -142 -18z" />
<glyph unicode="X" horiz-adv-x="645" d="M-82 461q0 49 59 117t110 86q8 0 72 -6.5t102 -6.5q35 0 66 6l4 -25q-39 -15 -89 -27q8 -65 100 -218q110 180 110 222q0 22 -20 32l4 14q50 -4 83 -4q78 0 130 8l5 -25q-48 -15 -97 -21q-53 -84 -190 -265l196 -310q51 -7 96 -21l-4 -25q-59 8 -141 8q-55 0 -86 -4 l-4 14q4 8 4 22q0 65 -115 254q-129 -215 -129 -251q53 -5 110 -19l-3 -24q-80 8 -163 8q-80 0 -137 -8l-5 25q48 15 97 21q60 95 204 289l-161 269q-100 0 -133 -32q-7 -14 -7 -46q0 -28 10 -39l-1 -7q-25 -15 -50 -42q-12 1 -19.5 10t-7.5 21z" />
<glyph unicode="Y" horiz-adv-x="545" d="M-166 740q0 14 16.5 23.5t46.5 9.5q63 0 148.5 -35t118.5 -72q21 -90 46.5 -154.5t80.5 -174.5q111 217 111 272q0 22 -20 32l4 14q50 -4 83 -4q78 0 130 8l5 -25q-48 -15 -97 -21l-196 -315q0 -167 13 -263q53 -5 110 -19l-3 -24q-74 8 -156 8q-91 0 -144 -8l-4 25 q45 14 96 21q11 82 11 207v26l-170 364q-39 84 -85 105q-18 0 -44 -13t-32 -26l-6 -2q-27 18 -60 28q-3 6 -3 13z" />
<glyph unicode="Z" horiz-adv-x="459" d="M-37 -17q58 54 123 160l273 450q-16 -8 -34 -13q-143 31 -202 31q-64 0 -64 -66q0 -13 3 -23l-2 -8q-33 -9 -60 -27q-18 7 -18 28q0 50 75.5 100t145.5 69q97 -36 143 -41q19 -2 37 -2q74 0 106 38l22 -18q-50 -46 -91 -118l-266 -459q51 -23 105.5 -64t90.5 -75t73 -60 t62 -26q21 0 35.5 25t14.5 50l4 7q33 0 65 10q12 -9 12 -22q0 -31 -52 -61t-112 -45.5t-97 -15.5q-93 104 -153.5 151.5t-124.5 47.5q-49 0 -92 -41z" />
<glyph unicode="[" horiz-adv-x="326" d="M94 -203q10 69 10 452q0 381 -10 450l7 5q68 -17 195 -15v-21q-78 -2 -132 -17v-806q54 -15 132 -17v-21q-127 2 -195 -15z" />
<glyph unicode="\" horiz-adv-x="351" d="M21 696q32 11 48 21h4q26 -95 69 -224l109 -318q32 -93 72 -192q-14 -16 -41 -28h-5l-178 523q-46 137 -78 218z" />
<glyph unicode="]" horiz-adv-x="326" d="M30 -172q78 2 132 17v806q-54 15 -132 17v21q127 -2 195 15l7 -5q-10 -69 -10 -450q0 -383 10 -452l-7 -5q-68 17 -195 15v21z" />
<glyph unicode="^" horiz-adv-x="518" d="M50 306q92 158 181 380l53 10q95 -238 184 -390l-29 -15l-180 289l-180 -289z" />
<glyph unicode="_" horiz-adv-x="615" d="M-3 -178l8 44q170 -9 462 -9q107 0 146 3l6 -6l-8 -39h-606z" />
<glyph unicode="`" horiz-adv-x="200" d="M0 667q1 10 9.5 30.5t15.5 28.5q17 3 43 1q24 -42 59.5 -84t72.5 -67l-11 -18z" />
<glyph unicode="a" horiz-adv-x="535" d="M-14 18q24 9 66 16l130 456q-44 7 -77 16l3 26q94 -11 181 -11q105 0 198 11l4 -26q-30 -12 -62 -18q-11 -82 -11 -205q0 -169 11 -251q20 -3 74 -15l-4 -25q-48 8 -124 8q-74 0 -114 -8l-4 26q34 11 77 16q6 58 9 161q-47 5 -89 5q-52 0 -87 -5q-20 -82 -20 -114 q0 -49 35 -69l-4 -17q-23 5 -76 5q-75 0 -112 -8zM175 242q39 -6 79 -6q55 0 89 6q0 185 -8 239q-34 2 -48 2q-19 0 -53 -2l-46 -187z" />
<glyph unicode="b" horiz-adv-x="524" d="M38 494v25q39 0 127.5 3.5t111.5 3.5q31 0 51.5 -1.5t43.5 -7t36.5 -15t22.5 -27.5t9 -44q0 -42 -32.5 -78.5t-79.5 -54.5v-4q60 0 97 -25.5t37 -78.5q0 -62 -64 -122.5t-131 -79.5q-24 0 -65.5 10t-67.5 20q-11 -13 -20 -37l-21 5q19 89 19 274q0 140 -9 221 q-34 13 -65 13zM187 260q0 -130 4 -186q41 -22 94 -22q46 0 72 19q17 34 17 82q0 66 -39 93t-113 27l4 35h9q62 0 90 17q25 31 25 79q0 87 -95 87q-33 0 -61 -11q-7 -68 -7 -220z" />
<glyph unicode="c" horiz-adv-x="434" d="M45 212q0 108 65 200t166 121q73 0 165 -15l-1 -22q-19 0 -36 -7q-19 -45 -25 -107h-25q-8 34 -8 70q-38 19 -88 19q-54 0 -88 -28q-39 -71 -39 -172q0 -48 5.5 -83t19.5 -66t42.5 -47.5t70.5 -16.5q69 0 130 61l14 -14q-67 -85 -161 -117q-97 0 -152 61.5t-55 162.5z " />
<glyph unicode="d" horiz-adv-x="539" d="M36 494v25q40 0 124 3.5t106 3.5q114 0 175.5 -54t61.5 -163q0 -106 -67.5 -199t-167.5 -122q-26 0 -67.5 9.5t-68.5 20.5q-11 -13 -20 -37l-21 5q19 89 19 274q0 140 -9 221q-34 13 -65 13zM185 260q0 -130 4 -185q50 -23 105 -23q50 0 81 27q38 72 38 177q0 49 -8 89 t-25.5 74t-50 53t-76.5 19q-33 0 -61 -11q-7 -65 -7 -220z" />
<glyph unicode="e" horiz-adv-x="448" d="M45 212q0 108 65 200t166 121q73 0 165 -15l-1 -22q-19 0 -36 -7q-19 -45 -25 -107h-25q-8 34 -8 70q-38 19 -88 19q-54 0 -88 -28q-34 -62 -39 -148q42 -7 90 -7q83 0 100 35l21 -3q-9 -30 -9 -65q0 -23 7 -65l-24 -4q-11 30 -16 62q-40 4 -79 4q-40 0 -90 -5 q3 -89 33 -139t105 -50q69 0 130 61l14 -14q-67 -85 -161 -117q-97 0 -152 61.5t-55 162.5z" />
<glyph unicode="f" horiz-adv-x="440" d="M43 506l3 25q75 -10 213 -10q99 0 164 11l5 -20q-40 -42 -45 -125h-25q-7 33 -7 80q-35 17 -92 17q-35 0 -59 -4q-8 -54 -8 -185q35 -7 67 -7q59 0 76 35l21 -3q-9 -30 -9 -65q0 -23 7 -65l-24 -4q-11 30 -16 62q-40 4 -55 4q-25 0 -67 -5q0 -136 9 -214q44 -5 89 -16 l-3 -25q-49 8 -124 8q-63 0 -114 -8l-4 26q30 10 63 15q9 72 9 204v47q0 92 -10 204q-36 7 -64 18z" />
<glyph unicode="g" horiz-adv-x="492" d="M45 212q0 108 65 200t166 121q73 0 165 -15l-1 -22q-19 0 -36 -7q-19 -45 -25 -107h-25q-8 34 -8 70q-38 19 -88 19q-54 0 -88 -28q-40 -73 -40 -172q0 -100 29.5 -156.5t109.5 -56.5q43 0 85 25l-2 58q-3 47 -3 49q-28 9 -68 16l3 21q24 -2 35 -2q69 0 125 37l10 -18 q-12 -11 -22 -23q-14 -136 -18 -224h-21q-8 37 -24 61q-58 -51 -117 -70q-97 0 -152 61.5t-55 162.5z" />
<glyph unicode="h" horiz-adv-x="618" d="M44 503l4 26q51 -8 114 -8q66 0 118 7l3 -25q-38 -10 -83 -15q-8 -58 -8 -179q56 -8 119 -8q66 0 116 7q-1 85 -9 180q-35 6 -63 15l4 26q51 -8 114 -8q66 0 118 7l3 -25q-38 -10 -83 -15q-10 -62 -10 -204v-47q0 -144 10 -204q45 -5 83 -15l-3 -25q-52 7 -118 7 q-63 0 -114 -8l-4 26q28 9 63 15q8 113 9 226q-64 6 -116 6q-56 0 -119 -6q0 -165 9 -226q45 -5 83 -15l-3 -25q-52 7 -118 7q-63 0 -114 -8l-4 26q28 9 63 15q9 72 9 204v47q0 132 -10 204q-35 6 -63 15z" />
<glyph unicode="i" horiz-adv-x="309" d="M44 503l4 26q51 -8 114 -8q66 0 118 7l3 -25q-38 -10 -83 -15q-8 -54 -8 -205q0 -183 9 -250q45 -5 83 -15l-3 -25q-52 7 -118 7q-63 0 -114 -8l-4 26q28 9 63 15q9 72 9 204v47q0 132 -10 204q-35 6 -63 15z" />
<glyph unicode="j" horiz-adv-x="296" d="M12 -127q59 45 82 104.5t23 145.5v160q0 151 -8 205q-45 5 -83 15l3 25q52 -7 118 -7q63 0 114 8l4 -26q-28 -9 -63 -15q-10 -72 -10 -204v-47q0 -132 9 -204q-24 -53 -70 -100t-102 -79z" />
<glyph unicode="k" horiz-adv-x="525" d="M44 503l4 26q51 -8 114 -8q66 0 118 7l3 -25q-38 -10 -83 -15q-8 -54 -8 -205v-41q102 108 132.5 155.5t30.5 78.5q0 22 -15 33l5 17q22 -5 55 -5q50 0 110 8l4 -26q-23 -8 -67 -16q-9 -68 -116 -169l132 -284q42 -7 66 -16l-4 -26q-37 8 -112 8q-44 0 -68 -5l-5 17 q14 14 14 42q0 67 -79 218q-20 -17 -83 -69q3 -122 9 -170q45 -5 83 -15l-3 -25q-52 7 -118 7q-63 0 -114 -8l-4 26q28 9 63 15q9 72 9 204v47q0 132 -10 204q-35 6 -63 15z" />
<glyph unicode="l" horiz-adv-x="407" d="M43 15q28 11 64 18q10 60 10 204v47q0 124 -10 204q-33 5 -63 15l4 26q51 -8 114 -8q75 0 124 8l3 -25q-45 -11 -89 -16q-8 -54 -8 -206q0 -185 8 -241q24 -4 59 -4q53 0 88 17q14 34 14 80h25q4 -77 28 -125l-5 -20q-65 11 -150 11q-138 0 -213 -10z" />
<glyph unicode="m" horiz-adv-x="724" d="M-1 18q34 11 64 16l93 456q-52 9 -77 16l3 26q72 -11 136 -11q59 0 93 7l2 -17q-27 -7 -27 -23q0 -22 62 -254l22 -75l7 2q0 26 91 326q0 17 -27 24l2 17q34 -7 93 -7q66 0 137 11l3 -26q-27 -7 -69 -15q-3 -24 -3 -57q0 -60 13 -204t24 -198q37 -5 76 -14l-3 -25 q-52 7 -116 7q-63 0 -114 -8l-4 26q33 10 71 15q-3 236 -32 445h-3q-103 -304 -110 -394q-21 -7 -49 -25.5t-43 -36.5l-12 8v26q0 62 -31 185.5t-69 239.5l-4 -1l-25 -186q-16 -115 -16 -207q0 -56 35 -75l-4 -17q-30 5 -78 5q-49 0 -107 -8z" />
<glyph unicode="n" horiz-adv-x="623" d="M42 506l3 26q57 -11 126 -11q56 0 83 7l2 -17q-27 -7 -27 -23q0 -7 6 -19.5t23.5 -41t40 -64.5t65.5 -107t90 -151l3 2v122q0 134 -14 201.5t-48 78.5l2 17q26 -5 77 -5q53 0 108 11l3 -26q-41 -13 -69 -16q-10 -80 -10 -206v-47q0 -152 10 -206q42 -7 67 -16l-3 -26 q-50 11 -101 11q-37 0 -61 -4q0 12 -8.5 31.5t-30.5 57t-47 78t-70.5 116t-88.5 149.5l-4 -2v-134q0 -199 30 -259q45 -5 88 -15l-3 -25q-52 7 -118 7q-63 0 -114 -8l-4 26q32 10 60 15q9 78 9 204v47q0 134 -10 206q-27 3 -65 16z" />
<glyph unicode="o" horiz-adv-x="526" d="M42 212q0 111 64 203t167 118q103 0 157 -58.5t54 -164.5q0 -110 -58.5 -197t-162.5 -125q-99 0 -160 62.5t-61 161.5zM127 271q0 -55 16 -104t52 -83.5t85 -34.5t79 26q40 70 40 173q0 99 -36 161.5t-117 62.5q-45 0 -78 -25q-41 -70 -41 -176z" />
<glyph unicode="p" horiz-adv-x="460" d="M43 494v25q39 0 124.5 3.5t107.5 3.5q181 0 181 -131q0 -73 -64.5 -118t-146.5 -45q-12 0 -17 1l4 33h9q62 0 92.5 27t30.5 87q0 56 -24.5 83.5t-78.5 27.5q-33 0 -62 -11q-7 -66 -7 -223q0 -159 9 -224q42 -5 88 -16l-3 -25q-49 8 -124 8q-63 0 -114 -8l-4 26 q30 10 63 15q10 70 10 227q0 140 -9 221q-35 13 -65 13z" />
<glyph unicode="q" horiz-adv-x="526" d="M42 212q0 111 64 203t167 118q103 0 157 -58.5t54 -164.5q0 -103 -52.5 -187.5t-146.5 -125.5q38 -1 120 -37t104 -42q32 12 59 28l12 -18q-47 -34 -85 -105l-22 16q-51 37 -114.5 65.5t-113.5 28.5q-48 0 -86 -29l-17 16q42 44 103 69q-91 6 -147 67t-56 156zM127 271 q0 -55 16 -104t52 -83.5t85 -34.5t79 26q40 70 40 173q0 99 -36 161.5t-117 62.5q-45 0 -78 -25q-41 -70 -41 -176z" />
<glyph unicode="r" horiz-adv-x="526" d="M43 499v20q40 0 124.5 3.5t105.5 3.5q90 0 135 -26.5t45 -96.5q0 -48 -29.5 -85t-77.5 -55l112 -229q34 -6 64 -14l-4 -27q-42 7 -109 7q-38 0 -68 -5l-4 16q13 13 13 43q0 61 -70 196q-21 4 -49 4l2 29h10q118 0 118 108q0 100 -101 100q-34 0 -61 -11q-7 -66 -7 -223 q0 -163 9 -224q44 -5 82 -15l-3 -25q-52 7 -118 7q-63 0 -114 -8l-4 26q28 9 63 15q10 75 10 227q0 165 -9 226q-39 13 -65 13z" />
<glyph unicode="s" horiz-adv-x="421" d="M21 -7q56 61 62 151h25q0 -34 3 -68q46 -19 91 -19t72 21t27 60q0 23 -35.5 50t-78 49t-78 53.5t-35.5 62.5q0 53 56 107t115 73q74 0 134 -15v-18q-42 -42 -47 -115h-25q0 28 -5 70q-35 16 -78 16q-37 0 -63.5 -17.5t-26.5 -50.5q0 -23 35.5 -50t77.5 -48t77.5 -52 t35.5 -62q0 -60 -53 -119.5t-117 -83.5q-63 0 -118 15q-16 -7 -33 -23z" />
<glyph unicode="t" horiz-adv-x="431" d="M-4 514l5 17q77 -10 214 -10q141 0 226 11l6 -19q-25 -28 -34 -54.5t-11 -71.5h-25q-7 33 -7 80q-35 17 -77 17q-22 0 -33 -4q-8 -54 -8 -196q0 -168 11 -251q45 -5 83 -15l-3 -25q-52 7 -118 7q-69 0 -120 -8l-4 26q20 6 69 15q9 72 9 204v47q0 70 -11 196q-11 4 -31 4 q-40 0 -74 -14q-10 -31 -14 -83h-26q0 82 -27 127z" />
<glyph unicode="u" horiz-adv-x="578" d="M30 502l4 27q58 -8 104 -8q48 0 78 5l4 -17q-36 -19 -42 -69q-12 -96 -12 -215q0 -83 23.5 -125.5t91.5 -42.5q61 0 101 37q4 80 4 168q0 130 -8 226q-45 5 -83 15l3 25q52 -7 118 -7q63 0 114 8l4 -26q-28 -9 -63 -15q-10 -67 -10 -204v-47q0 -137 10 -205q46 -6 76 -14 l-3 -25q-49 7 -125 7q-27 0 -46 -3l-4 13q9 10 12 57q-52 -54 -120 -79q-172 0 -172 205q0 45 7 144t7 109q0 24 -6 40v1q-42 7 -67 15z" />
<glyph unicode="v" horiz-adv-x="509" d="M-26 503l4 26q40 -8 114 -8q76 0 124 8l4 -25q-54 -12 -74 -15q7 -66 41.5 -195t74.5 -239q67 149 89.5 226t22.5 133q0 72 -41 94l4 17q30 -5 75 -5q48 0 106 8l4 -26q-34 -11 -64 -16q4 -30 4 -42q0 -37 -7.5 -71.5t-35 -94t-48 -99t-77.5 -146.5q20 -2 64 -17l-5 -22 q-43 6 -111 6q-61 0 -90 -4l-3 16q9 2 17.5 10.5t8.5 15.5q0 57 -105 385q-14 44 -24 64q-33 4 -72 16z" />
<glyph unicode="w" horiz-adv-x="743" d="M-26 504l4 26q88 -9 282 -9q153 0 231 8l4 -26q-44 -15 -59 -17q2 -15 2 -42q0 -52 -13 -107q34 -133 88 -282q60 149 80 226t20 133q0 72 -41 94l4 17q30 -5 75 -5q41 0 99 8l4 -26q-40 -13 -57 -16q4 -30 4 -42q0 -73 -33 -156t-125 -255q19 -9 46 -17l-5 -22 q-36 6 -91 6q-58 0 -87 -4l-3 16q9 2 17.5 10.5t8.5 15.5q0 37 -49 202q-62 -143 -94 -207q19 -9 46 -17l-5 -22q-36 6 -92 6q-61 0 -90 -4l-3 16q9 2 17.5 10.5t8.5 15.5q0 57 -105 385q-14 44 -24 64q-21 3 -65 17zM139 487q7 -66 41.5 -194t74.5 -238q59 147 78.5 224 t19.5 135q0 50 -20 67t-73 17q-64 0 -121 -11z" />
<glyph unicode="x" horiz-adv-x="527" d="M-7 18q42 13 66 16q13 20 39 55t66.5 88.5t63.5 84.5l-150 225q-29 3 -67 16l4 26q40 -8 120 -8q86 0 134 8l4 -25q-52 -12 -75 -15q2 -40 83 -173q84 139 84 168q0 18 -27 25l4 17q30 -5 78 -5q49 0 107 8l4 -26q-28 -9 -70 -16q-13 -20 -37 -51.5t-60 -78.5t-60 -79 l160 -244q42 -7 70 -16l-4 -26q-58 8 -110 8q-48 0 -78 -5l-4 17q8 5 8 18q0 47 -92 199q-96 -160 -103 -197h2q53 -7 87 -15l-4 -25q-48 8 -131 8q-68 0 -108 -8z" />
<glyph unicode="y" horiz-adv-x="465" d="M-15 503l4 26q40 -8 114 -8q76 0 124 8l4 -25q-47 -11 -79 -15q34 -104 95 -219q89 173 89 217q0 16 -27 22l4 17q30 -5 78 -5q49 0 107 8l4 -26q-26 -9 -66 -15l-166 -250q0 -130 10 -205q44 -5 82 -15l-3 -25q-52 7 -118 7q-69 0 -120 -8l-4 26q19 6 68 15q9 54 9 163 v21q-116 234 -147 272q-28 3 -62 14z" />
<glyph unicode="z" horiz-adv-x="440" d="M4 1q45 45 74 93l227 370l-2 2h-108q-49 0 -84 -15q-6 -35 -20 -67l-24 3q2 30 2 43q0 37 -8 68q-16 9 -34 13l2 22q17 0 127.5 -10.5t177.5 -10.5q44 0 77 30l21 -16q-28 -25 -64 -87l-217 -375l3 -2h120q45 0 65 15q5 33 5 69h26q6 -91 62 -148l-20 -14q-4 6 -16 14 q-114 19 -276 19q-67 0 -95 -33z" />
<glyph unicode="{" horiz-adv-x="300" d="M44 255q72 16 72 54q0 47 -13.5 130t-13.5 130q0 44 43.5 86t91.5 56l4 -14q-27 -14 -51 -40t-33 -53q0 -47 22.5 -141t22.5 -134q-14 -34 -91 -79v-4q77 -45 91 -79q0 -40 -22.5 -134t-22.5 -141q9 -27 33 -53t51 -40l-4 -14q-48 14 -91.5 56t-43.5 86q0 48 13.5 130.5 t13.5 129.5q0 20 -20.5 32t-47.5 17z" />
<glyph unicode="|" horiz-adv-x="238" d="M89 723q34 14 52 27l5 -1q-2 -142 -2 -948q-18 -10 -41 -17l-7 3q0 689 -7 936z" />
<glyph unicode="}" horiz-adv-x="288" d="M72 -201q27 14 51 40t33 53q0 47 -22.5 141t-22.5 134q14 34 91 79v4q-77 45 -91 79q0 40 22.5 134t22.5 141q-9 27 -33 53t-51 40l4 14q48 -14 91.5 -56t43.5 -86q0 -47 -13.5 -130t-13.5 -130q0 -38 72 -54l-4 -19q-27 -5 -47.5 -17t-20.5 -32q0 -47 13.5 -129.5 t13.5 -130.5q0 -44 -43.5 -86t-91.5 -56z" />
<glyph unicode="~" horiz-adv-x="590" d="M50 211q22 41 69.5 76.5t91.5 40.5q43 -29 96 -49.5t97 -20.5q69 0 118 58l18 -11q-20 -38 -64 -71.5t-87 -45.5q-33 0 -110 33t-110 33q-66 0 -101 -54z" />
<glyph unicode="&#xa1;" horiz-adv-x="226" d="M45 -160q47 157 62 459l26 2l21 -484q-12 -6 -38 -12t-39 -5q-11 10 -32 40zM66 436q7 11 24 26.5t30 23.5q14 -7 31 -22.5t23 -27.5q-7 -13 -24.5 -33t-29.5 -28q-12 8 -29.5 28t-24.5 33z" />
<glyph unicode="&#xa2;" horiz-adv-x="450" d="M76 205q0 94 47.5 173.5t126.5 111.5l4 98q15 2 28 6l4 -3q-5 -34 -8 -91q61 0 121 -16v-14q-39 -48 -43 -105h-22q0 39 -2 61q-38 10 -56 11l-13 -365h1q55 0 114 53l10 -10q-52 -74 -127 -109l-1 -98h-5q-16 5 -27 15l6 77q-81 4 -119.5 58.5t-38.5 146.5zM156 260 q0 -37 2.5 -64t10.5 -54t25 -44t42 -23l12 363q-38 -2 -63 -24q-29 -61 -29 -154z" />
<glyph unicode="&#xa3;" horiz-adv-x="450" d="M26 -1q37 37 72 89q6 21 6 47.5t-2.5 59t-2.5 46.5v1l-39 -3l-9 6l6 46h46q14 86 70 155.5t139 91.5q69 0 128 -16v-14q-37 -46 -43 -113h-22q0 41 -3 64q-42 14 -80 14q-50 0 -80 -26q-31 -65 -31 -154q57 2 144 12l8 -5l-6 -42l-148 -11q-7 -97 -49 -159l3 -3 q15 7 27 10q101 2 204 -21q10 22 23 58l21 -7q-11 -39 -11 -73q0 -31 7 -60l-12 -8q-154 46 -289 46q-31 -17 -60 -46z" />
<glyph unicode="&#xa4;" horiz-adv-x="567" d="M32 110q25 21 83 75q-34 42 -34 101q0 84 52 145q-55 50 -101 90q5 26 24 47h5l105 -104q56 45 135 59q76 0 129 -36q14 14 40 42t37 39q42 -14 53 -16l2 -4l-99 -93q33 -42 33 -105q0 -89 -57 -152q85 -81 123 -115l-2 -4q-11 -2 -53 -16l-101 105q-51 -39 -117 -52 q-82 0 -137 36l-91 -89h-5q-19 21 -24 47zM154 329q0 -73 38 -116t112 -43q58 0 87 26q32 45 32 114q0 74 -38 116.5t-112 42.5q-58 0 -87 -26q-32 -45 -32 -114z" />
<glyph unicode="&#xa5;" horiz-adv-x="450" d="M-21 509l2 20q119 -13 220 5l5 -20q-32 -10 -50 -21q13 -59 93 -222q86 168 86 220q0 19 -13 32l3 7q29 -7 70 -7q42 0 70 4l2 -22q-35 -4 -54 -13l-144 -246v-1l44 2q63 3 84 5q4 -20 9 -31v-5l-137 -2q0 -34 1 -49l43 2q63 3 84 5q4 -20 9 -31v-5l-135 -2q1 -49 9 -104 q28 -6 63 -19l-2 -19q-56 8 -105 8q-51 0 -102 -6l-3 19q30 13 59 20q4 34 7 99h-11q-72 -2 -118 -9l-3 4q6 20 7 32l126 4q0 8 0.5 24t0.5 25h-13q-72 -2 -118 -9l-3 4q6 20 7 32l118 4q-86 178 -131 244q-48 9 -80 22z" />
<glyph unicode="&#xa6;" horiz-adv-x="245" d="M94 187q34 14 52 27l5 -1q-2 -142 -2 -411q-18 -10 -41 -17l-7 3q-1 182 -7 399zM94 725q34 14 52 27l5 -1q-2 -142 -2 -411q-18 -10 -41 -17l-7 3q-1 182 -7 399z" />
<glyph unicode="&#xa7;" horiz-adv-x="467" d="M18 295q8 25 34.5 64t47.5 61l14 -13q-18 -24 -18 -62q0 -29 29 -61.5t70 -63t82 -62.5t70 -69t29 -73q-23 -37 -79.5 -78.5t-98.5 -52.5q-72 0 -138 21v14q39 48 43 105h22l2 -61q46 -17 90 -17q42 0 65 23q7 12 7 34q0 35 -39.5 75t-88 70.5t-92.5 71t-51 74.5zM85 535 q23 37 79.5 78.5t98.5 52.5q64 0 124 -16v-14q-39 -48 -43 -105h-22q0 39 -2 61q-39 12 -76 12q-42 0 -65 -23q-7 -12 -7 -34q0 -35 39.5 -75t88 -70.5t92.5 -71t51 -74.5q-8 -25 -34.5 -64t-47.5 -61l-14 13q18 24 18 62q0 29 -29 61.5t-70 63t-82 62.5t-70 69t-29 73z" />
<glyph unicode="&#xa8;" horiz-adv-x="293" d="M0 661q6 12 23 27.5t31 22.5q13 -8 30 -23.5t24 -26.5q-7 -13 -24.5 -33t-29.5 -28q-12 8 -29.5 28t-24.5 33zM185 661q6 12 23 27.5t31 22.5q13 -8 30 -23.5t24 -26.5q-7 -13 -24.5 -33t-29.5 -28q-12 8 -29.5 28t-24.5 33z" />
<glyph unicode="&#xa9;" horiz-adv-x="765" d="M42 325q0 141 99.5 241t240.5 100t241 -100t100 -241t-100 -240.5t-241 -99.5t-240.5 99.5t-99.5 240.5zM86 325q0 -123 86.5 -210.5t209.5 -87.5t210 87.5t87 210.5t-87 211t-210 88t-209.5 -88t-86.5 -211zM223 289q0 77 48.5 147t120.5 95q63 0 120 -13l-1 -17 q-17 -2 -24 -7q-16 -35 -21 -83h-18q-7 30 -7 53q-28 15 -64 15q-32 0 -55 -16q-28 -54 -28 -129q0 -73 19.5 -115t74.5 -42q48 0 96 44l12 -13q-44 -55 -122 -89q-75 0 -113 45t-38 125z" />
<glyph unicode="&#xaa;" horiz-adv-x="410" d="M38 414q0 84 47 154.5t125 97.5q56 0 117 -17q13 20 20 43l17 -5q-18 -86 -18 -258q0 -81 6 -129q15 -7 40 -7v-18q-47 -2 -112 -16l-6 3q9 53 9 127h-3q-29 -40 -67.5 -78t-72.5 -52q-47 0 -74.5 49t-27.5 106zM109 451q0 -39 13.5 -81t39.5 -42q28 0 68 39.5t53 71.5 q0 119 -6 155q-37 20 -83 20q-38 0 -59 -20q-26 -61 -26 -143z" />
<glyph unicode="&#xab;" horiz-adv-x="413" d="M21 269v20q95 52 178 150l19 -13l-107 -143l108 -158l-20 -14q-93 107 -178 158zM197 271v20q100 55 168 135l19 -13l-97 -128l98 -143l-20 -14q-91 96 -168 143z" />
<glyph unicode="&#xac;" horiz-adv-x="550" d="M51 245l9 51q169 -9 343 -9q46 0 85 3l6 -6q0 -64 5 -196l-5 -6l-47 9v147h-388z" />
<glyph unicode="&#xad;" horiz-adv-x="286" d="M28 242l6 46h46q88 0 172 10l8 -5l-6 -42l-217 -15z" />
<glyph unicode="&#xae;" horiz-adv-x="434" d="M21 500q0 82 57 139t139 57t139 -57t57 -139t-57 -139t-139 -57t-139 57t-57 139zM57 500q0 -68 46.5 -115t113.5 -47t112.5 47t45.5 115t-45.5 114t-112.5 46t-113.5 -46t-46.5 -114zM125 404v11q12 3 25 5q4 40 4 87q0 61 -3 82q-12 4 -22 4v12q14 0 46.5 1.5t43.5 1.5 q36 0 55 -9.5t19 -37.5q0 -38 -37 -53l43 -88l20 -5v-11q-21 3 -43 3q-20 0 -36 -2l-2 7q6 5 6 16q0 23 -26 75q-8 3 -15 3l1 11h4q39 0 39 39q0 34 -33 34q-9 0 -17 -3q-1 -19 -1 -80q0 -73 3 -87l22 -5l-1 -11q-23 3 -48 3q-23 0 -47 -3z" />
<glyph unicode="&#xaf;" horiz-adv-x="274" d="M0 624l9 50l45 -3q49 -3 104 -3q63 0 108 4l8 -5l-9 -46l-256 -3z" />
<glyph unicode="&#xb0;" horiz-adv-x="367" d="M45 509q0 61 41.5 104t105.5 54q58 0 94 -30t36 -85q0 -60 -38 -101.5t-100 -54.5q-59 0 -99 29.5t-40 83.5zM102 538q0 -47 23.5 -75t67.5 -28q35 0 53 17q19 29 19 73q0 48 -23 75.5t-68 27.5q-35 0 -53 -17q-19 -29 -19 -73z" />
<glyph unicode="&#xb1;" horiz-adv-x="550" d="M50 7l9 51q170 -9 343 -9q46 0 85 3l6 -6l-9 -46h-426zM58 274l9 51q122 -6 185 -7v158l47 9l5 -6q-5 -88 -5 -161v-1q37 -1 111 -1q46 0 85 3l6 -6l-9 -46h-193q0 -82 9 -177l-46 -9l-10 7v179h-186z" />
<glyph unicode="&#xb2;" horiz-adv-x="372" d="M32 347q18 37 70 91.5t90.5 104.5t38.5 93q0 28 -19.5 43t-50.5 15q-28 0 -51 -11q-5 -12 -5 -27q0 -16 8 -21v-6q-12 -7 -40 -33q-23 2 -23 24q0 37 44.5 74.5t89.5 51.5q66 0 97 -32t31 -98q-76 -99 -190 -198l2 -3q11 5 19 7q67 3 150 -8q10 19 20 47l17 -6 q-9 -30 -9 -61q0 -21 6 -48l-10 -7q-144 30 -242 30q-14 -14 -26 -30z" />
<glyph unicode="&#xb3;" horiz-adv-x="334" d="M30 365v12q23 32 30 83h18q0 -27 1 -42q48 -27 93 -27q27 0 37 12q9 23 9 52q0 47 -23.5 73.5t-69.5 26.5l-3 4l85 119l-2 3q-11 -5 -19 -7q-45 0 -95 5q-10 -18 -16 -42l-17 6q5 28 5 51t-7 45l9 6q86 -18 203 -18q14 8 23 18l13 -11q-21 -19 -119 -134 q104 -19 104 -138q-13 -37 -51 -73t-78 -50q-71 0 -130 26z" />
<glyph unicode="&#xb4;" horiz-adv-x="200" d="M0 576q37 25 72.5 67t59.5 84q26 2 43 -1q7 -8 15.5 -28.5t9.5 -30.5l-189 -109z" />
<glyph unicode="&#xb6;" horiz-adv-x="512" d="M-5 494q0 164 206 164q27 0 133.5 -4.5t156.5 -4.5v-25q-50 0 -98 -16q-11 -94 -11 -283v-199q-11 -87 -71.5 -164t-136.5 -77q-12 0 -21 7.5t-10 19.5q27 25 42 50l7 1q11 -10 39 -10q32 0 46 7q30 74 28 165v200q0 198 -9 292q-11 3 -25 3q-13 0 -23 -3q-8 -57 -8 -138 q0 -130 22 -169l-2 -14q-7 -1 -22 -1q-97 0 -170 55t-73 144z" />
<glyph unicode="&#xb7;" horiz-adv-x="212" d="M52 284q6 12 23 27.5t31 22.5q13 -8 30 -23.5t24 -26.5q-7 -13 -24.5 -33t-29.5 -28q-12 8 -29.5 28t-24.5 33z" />
<glyph unicode="&#xb8;" horiz-adv-x="184" d="M0 -194q10 19 16 39l4 2q32 -25 68 -25q18 0 26 5q9 13 9 31q0 45 -83 45l-6 4l38 107l29 2l-24 -62l4 -3q46 0 74.5 -21t28.5 -63q-14 -27 -40.5 -49.5t-55.5 -32.5q-44 0 -88 21z" />
<glyph unicode="&#xb9;" horiz-adv-x="303" d="M68 667q0 11 2 17q72 20 110 60q12 2 26 2l3 -2q-11 -81 -11 -170v-67q0 -81 6 -127q25 -8 45 -17l-3 -17q-40 6 -83 6q-47 0 -86 -7l-2 17q25 11 50 16q8 69 8 129v67q0 44 -3 91h-60z" />
<glyph unicode="&#xba;" horiz-adv-x="395" d="M32 427q0 82 48 150.5t126 88.5q77 0 117 -44t40 -123q0 -75 -46.5 -143t-118.5 -97q-72 0 -119 48t-47 120zM103 470q0 -59 29.5 -108t79.5 -49q32 0 54 20q26 47 26 123q0 65 -27 111t-81 46q-34 0 -54 -19q-27 -53 -27 -124z" />
<glyph unicode="&#xbb;" horiz-adv-x="413" d="M28 142l98 143l-95 128l17 13q68 -80 168 -135v-20q-77 -47 -168 -143zM194 125l108 158l-105 143l17 13q83 -98 178 -150v-20q-85 -51 -178 -158z" />
<glyph unicode="&#xbc;" horiz-adv-x="830" d="M68 587q0 11 2 17q72 20 110 60q12 2 26 2l3 -2q-11 -81 -11 -170v-67q0 -81 6 -127q25 -8 45 -17l-3 -17q-40 6 -83 6q-47 0 -86 -7l-2 17q25 11 50 16q8 69 8 129v67q0 44 -3 91h-60zM117 -1q93 118 125 161l254 351q59 82 132 193q22 -5 53 -7l4 -3q-32 -40 -136 -184 l-398 -552l-5 1q-17 14 -29 40zM470 123q137 160 191 266q36 4 71 17l6 -2q-9 -48 -9 -141v-107q55 0 66 32l14 -4q-7 -32 -5 -73l-4 -2q-24 2 -70 2q0 -45 5 -70q13 -7 45 -16l-3 -18q-40 6 -91 6q-47 0 -80 -8l-2 17q27 12 54 17q5 29 5 72h-189zM555 163q44 -6 108 -6 l2 174h-5q-33 -70 -105 -168z" />
<glyph unicode="&#xbd;" horiz-adv-x="830" d="M68 587q0 11 2 17q72 20 110 60q12 2 26 2l3 -2q-11 -81 -11 -170v-67q0 -81 6 -127q25 -8 45 -17l-3 -17q-40 6 -83 6q-47 0 -86 -7l-2 17q25 11 50 16q8 69 8 129v67q0 44 -3 91h-60zM117 -1q93 118 125 161l254 351q59 82 132 193q22 -5 53 -7l4 -3q-32 -40 -136 -184 l-398 -552l-5 1q-17 14 -29 40zM489 8q18 37 70 91.5t90.5 104.5t38.5 93q0 28 -19.5 43t-50.5 15q-28 0 -51 -11q-5 -12 -5 -27q0 -16 8 -21v-6q-12 -7 -40 -33q-23 2 -23 24q0 37 44.5 74.5t89.5 51.5q66 0 97 -32t31 -98q-76 -99 -190 -198l2 -3q11 5 19 7q68 3 150 -8 q10 19 20 47l17 -6q-9 -30 -9 -61q0 -21 6 -48l-10 -7q-144 30 -242 30q-14 -14 -26 -30z" />
<glyph unicode="&#xbe;" horiz-adv-x="830" d="M30 285v12q23 32 30 83h18q0 -27 1 -42q48 -27 93 -27q27 0 37 12q9 23 9 52q0 47 -23.5 73.5t-69.5 26.5l-3 4l85 119l-2 3q-11 -5 -19 -7q-45 0 -95 5q-10 -18 -16 -42l-17 6q5 28 5 51t-7 45l9 6q86 -18 203 -18q14 8 23 18l13 -11q-21 -19 -119 -134 q104 -19 104 -138q-13 -37 -51 -73t-78 -50q-71 0 -130 26zM117 -1q93 118 125 161l254 351q59 82 132 193q22 -5 53 -7l4 -3q-32 -40 -136 -184l-398 -552l-5 1q-17 14 -29 40zM470 123q137 160 191 266q36 4 71 17l6 -2q-9 -48 -9 -141v-107q55 0 66 32l14 -4 q-7 -32 -5 -73l-4 -2q-24 2 -70 2q0 -45 5 -70q13 -7 45 -16l-3 -18q-40 6 -91 6q-47 0 -80 -8l-2 17q27 12 54 17q5 29 5 72h-189zM555 163q44 -6 108 -6l2 174h-5q-33 -70 -105 -168z" />
<glyph unicode="&#xbf;" horiz-adv-x="335" d="M0 -56q63 90 158 185q7 89 11 170l26 2l21 -139v-19q-120 -120 -120 -222q0 -37 24 -55.5t64 -18.5q34 0 62 14q7 12 7 34q0 18 -10 27l1 7q26 16 48 40q12 -1 19 -9.5t7 -19.5q0 -46 -53.5 -92.5t-108.5 -62.5q-81 0 -118.5 39t-37.5 120zM128 436q7 11 24 26.5t30 23.5 q14 -7 31 -22.5t23 -27.5q-7 -13 -24.5 -33t-29.5 -28q-12 8 -29.5 28t-24.5 33z" />
<glyph unicode="&#xc0;" horiz-adv-x="599" d="M-54 17q45 14 96 21l158 560q-118 0 -151 -32q-7 -14 -7 -46q0 -28 10 -39l-1 -7q-25 -15 -50 -42q-12 1 -19.5 10t-7.5 21q0 49 59 117t110 86q151 -17 306 -29q14 18 23 46l21 -6q-14 -70 -19 -144t-5 -237q0 -165 13 -261q53 -5 110 -19l-3 -24q-74 8 -156 8 q-91 0 -144 -8l-4 25q45 14 96 21q8 66 11 213q-52 6 -102 6q-75 0 -118 -6q-24 -98 -24 -150q0 -66 43 -91l-4 -14q-31 4 -96 4q-82 0 -141 -8zM164 806q-1 10 4.5 31.5t10.5 30.5q20 7 42 9q75 -90 157 -126l-8 -20zM183 301q45 -7 107 -7q61 0 102 7q0 177 -5 289l-3 3 q-52 5 -129 5l-56 -231z" />
<glyph unicode="&#xc1;" horiz-adv-x="599" d="M-54 17q45 14 96 21l158 560q-118 0 -151 -32q-7 -14 -7 -46q0 -28 10 -39l-1 -7q-25 -15 -50 -42q-12 1 -19.5 10t-7.5 21q0 49 59 117t110 86q151 -17 306 -29q14 18 23 46l21 -6q-14 -70 -19 -144t-5 -237q0 -165 13 -261q53 -5 110 -19l-3 -24q-74 8 -156 8 q-91 0 -144 -8l-4 25q45 14 96 21q8 66 11 213q-52 6 -102 6q-75 0 -118 -6q-24 -98 -24 -150q0 -66 43 -91l-4 -14q-31 4 -96 4q-82 0 -141 -8zM183 301q45 -7 107 -7q61 0 102 7q0 177 -5 289l-3 3q-52 5 -129 5l-56 -231zM315 742q82 36 157 126q22 -2 42 -9 q5 -9 10.5 -30.5t4.5 -31.5l-206 -75z" />
<glyph unicode="&#xc2;" horiz-adv-x="599" d="M-54 17q45 14 96 21l158 560q-118 0 -151 -32q-7 -14 -7 -46q0 -28 10 -39l-1 -7q-25 -15 -50 -42q-12 1 -19.5 10t-7.5 21q0 49 59 117t110 86q151 -17 306 -29q14 18 23 46l21 -6q-14 -70 -19 -144t-5 -237q0 -165 13 -261q53 -5 110 -19l-3 -24q-74 8 -156 8 q-91 0 -144 -8l-4 25q45 14 96 21q8 66 11 213q-52 6 -102 6q-75 0 -118 -6q-24 -98 -24 -150q0 -66 43 -91l-4 -14q-31 4 -96 4q-82 0 -141 -8zM177 734q92 58 161 151h20q69 -93 161 -151l-10 -19l-161 75l-161 -75zM183 301q45 -7 107 -7q61 0 102 7q0 177 -5 289l-3 3 q-52 5 -129 5l-56 -231z" />
<glyph unicode="&#xc3;" horiz-adv-x="599" d="M-54 17q45 14 96 21l158 560q-118 0 -151 -32q-7 -14 -7 -46q0 -28 10 -39l-1 -7q-25 -15 -50 -42q-12 1 -19.5 10t-7.5 21q0 49 59 117t110 86q151 -17 306 -29q14 18 23 46l21 -6q-14 -70 -19 -144t-5 -237q0 -165 13 -261q53 -5 110 -19l-3 -24q-74 8 -156 8 q-91 0 -144 -8l-4 25q45 14 96 21q8 66 11 213q-52 6 -102 6q-75 0 -118 -6q-24 -98 -24 -150q0 -66 43 -91l-4 -14q-31 4 -96 4q-82 0 -141 -8zM183 301q45 -7 107 -7q61 0 102 7q0 177 -5 289l-3 3q-52 5 -129 5l-56 -231zM183 755q56 61 128 82q59 -31 119 -31 q45 0 65 24l18 -11q-56 -61 -104 -82q-21 0 -72.5 15.5t-72.5 15.5q-43 0 -63 -24z" />
<glyph unicode="&#xc4;" horiz-adv-x="599" d="M-54 17q45 14 96 21l158 560q-118 0 -151 -32q-7 -14 -7 -46q0 -28 10 -39l-1 -7q-25 -15 -50 -42q-12 1 -19.5 10t-7.5 21q0 49 59 117t110 86q151 -17 306 -29q14 18 23 46l21 -6q-14 -70 -19 -144t-5 -237q0 -165 13 -261q53 -5 110 -19l-3 -24q-74 8 -156 8 q-91 0 -144 -8l-4 25q45 14 96 21q8 66 11 213q-52 6 -102 6q-75 0 -118 -6q-24 -98 -24 -150q0 -66 43 -91l-4 -14q-31 4 -96 4q-82 0 -141 -8zM183 301q45 -7 107 -7q61 0 102 7q0 177 -5 289l-3 3q-52 5 -129 5l-56 -231zM202 803q6 12 23 27.5t31 22.5q13 -8 30 -23.5 t24 -26.5q-7 -13 -24.5 -33t-29.5 -28q-12 8 -29.5 28t-24.5 33zM387 803q6 12 23 27.5t31 22.5q13 -8 30 -23.5t24 -26.5q-7 -13 -24.5 -33t-29.5 -28q-12 8 -29.5 28t-24.5 33z" />
<glyph unicode="&#xc5;" horiz-adv-x="599" d="M-54 17q45 14 96 21l158 560q-118 0 -151 -32q-7 -14 -7 -46q0 -28 10 -39l-1 -7q-25 -15 -50 -42q-12 1 -19.5 10t-7.5 21q0 49 59 117t110 86q151 -17 306 -29q14 18 23 46l21 -6q-14 -70 -19 -144t-5 -237q0 -165 13 -261q53 -5 110 -19l-3 -24q-74 8 -156 8 q-91 0 -144 -8l-4 25q45 14 96 21q8 66 11 213q-52 6 -102 6q-75 0 -118 -6q-24 -98 -24 -150q0 -66 43 -91l-4 -14q-31 4 -96 4q-82 0 -141 -8zM183 301q45 -7 107 -7q61 0 102 7q0 177 -5 289l-3 3q-52 5 -129 5l-56 -231zM243 777q0 40 29.5 69.5t72.5 38.5q91 0 91 -74 q0 -39 -26.5 -66.5t-69.5 -40.5q-41 0 -69 19t-28 54zM290 798q0 -26 16 -42.5t42 -16.5q20 0 30 9q11 16 11 43t-15.5 43t-42.5 16q-19 0 -30 -9q-11 -17 -11 -43z" />
<glyph unicode="&#xc6;" horiz-adv-x="744" d="M-54 17q45 14 96 21l208 576q-118 0 -151 -32q-7 -14 -7 -46q0 -28 10 -39l-1 -7q-25 -15 -50 -42q-12 1 -19.5 10t-7.5 21q0 49 59 117t110 86q138 -31 275 -31q135 0 265 11l4 -20q-52 -53 -59 -158h-25q-9 43 -9 109q-43 21 -108 21q-48 0 -76 -5q-7 -22 -12 -60 q-8 -70 -13 -184q31 -7 77 -7q89 0 109 43l20 -4q-9 -32 -9 -77q0 -44 6 -87l-23 -4q-15 38 -20 89q-37 3 -83 3q-44 0 -78 -5v-43q0 -50 5 -84t18.5 -64.5t41.5 -45.5t71 -15q72 0 148 78l14 -13q-83 -110 -183 -144q-111 0 -155 69.5t-42 197.5l1 63q-31 6 -72 6 q-51 0 -76 -6l-14 -46q-38 -126 -38 -178q0 -59 38 -81l-4 -14q-31 4 -96 4q-82 0 -141 -8zM223 364q23 -6 60 -6q47 0 72 7q2 37 4.5 81t4.5 72.5t2 39.5q0 37 -3 53q-14 3 -32 3q-19 0 -36 -3z" />
<glyph unicode="&#xc7;" horiz-adv-x="498" d="M42 265q0 138 73.5 252.5t197.5 148.5q101 0 206 -19l-1 -22q-26 0 -48 -9q-25 -59 -33 -138h-25q-9 40 -9 93q-47 25 -113 25q-65 0 -108 -36q-51 -87 -51 -221q0 -59 7.5 -104.5t25 -86t53.5 -62.5t87 -22q81 0 163 78l14 -13q-83 -106 -198 -144q-13 0 -19 1l-12 -32 l4 -3q46 0 74.5 -21t28.5 -63q-14 -27 -40.5 -49.5t-55.5 -32.5q-44 0 -88 21q10 19 16 39l4 2q32 -25 68 -25q18 0 26 5q9 13 9 31q0 45 -83 45l-6 4l29 82q-98 14 -147 87t-49 189z" />
<glyph unicode="&#xc8;" horiz-adv-x="513" d="M51 185q0 69 58 115t132 46v4q-68 4 -113.5 38t-45.5 94q36 64 95.5 115t127.5 69q71 0 140 -19q16 8 41 31l21 -14q-66 -80 -81 -191h-26q0 55 -5 93q-48 28 -115 28q-65 0 -106 -34q-15 -187 170 -187l-5 -37h-12q-79 0 -130.5 -31.5t-51.5 -98.5q0 -73 48 -111.5 t121 -38.5q57 0 94 24q7 14 7 46q0 28 -10 39l1 7q25 15 50 42q12 -1 19.5 -10t7.5 -21q0 -61 -57.5 -118.5t-125.5 -79.5q-107 0 -178 52t-71 148zM129 806q-1 10 4.5 31.5t10.5 30.5q20 7 42 9q75 -90 157 -126l-8 -20z" />
<glyph unicode="&#xc9;" horiz-adv-x="513" d="M50 185q0 69 58 115t132 46v4q-68 4 -113.5 38t-45.5 94q36 64 95.5 115t127.5 69q71 0 140 -19q16 8 41 31l21 -14q-66 -80 -81 -191h-26q0 55 -5 93q-48 28 -115 28q-65 0 -106 -34q-15 -187 170 -187l-5 -37h-12q-79 0 -130.5 -31.5t-51.5 -98.5q0 -73 48 -111.5 t121 -38.5q57 0 94 24q7 14 7 46q0 28 -10 39l1 7q25 15 50 42q12 -1 19.5 -10t7.5 -21q0 -61 -57.5 -118.5t-125.5 -79.5q-107 0 -178 52t-71 148zM263 742q82 36 157 126q22 -2 42 -9q5 -9 10.5 -30.5t4.5 -31.5l-206 -75z" />
<glyph unicode="&#xca;" horiz-adv-x="513" d="M50 185q0 69 58 115t132 46v4q-68 4 -113.5 38t-45.5 94q36 64 95.5 115t127.5 69q71 0 140 -19q16 8 41 31l21 -14q-66 -80 -81 -191h-26q0 55 -5 93q-48 28 -115 28q-65 0 -106 -34q-15 -187 170 -187l-5 -37h-12q-79 0 -130.5 -31.5t-51.5 -98.5q0 -73 48 -111.5 t121 -38.5q57 0 94 24q7 14 7 46q0 28 -10 39l1 7q25 15 50 42q12 -1 19.5 -10t7.5 -21q0 -61 -57.5 -118.5t-125.5 -79.5q-107 0 -178 52t-71 148zM132 734q92 58 161 151h20q69 -93 161 -151l-10 -19l-161 75l-161 -75z" />
<glyph unicode="&#xcb;" horiz-adv-x="513" d="M50 185q0 69 58 115t132 46v4q-68 4 -113.5 38t-45.5 94q36 64 95.5 115t127.5 69q71 0 140 -19q16 8 41 31l21 -14q-66 -80 -81 -191h-26q0 55 -5 93q-48 28 -115 28q-65 0 -106 -34q-15 -187 170 -187l-5 -37h-12q-79 0 -130.5 -31.5t-51.5 -98.5q0 -73 48 -111.5 t121 -38.5q57 0 94 24q7 14 7 46q0 28 -10 39l1 7q25 15 50 42q12 -1 19.5 -10t7.5 -21q0 -61 -57.5 -118.5t-125.5 -79.5q-107 0 -178 52t-71 148zM158 803q6 12 23 27.5t31 22.5q13 -8 30 -23.5t24 -26.5q-7 -13 -24.5 -33t-29.5 -28q-12 8 -29.5 28t-24.5 33zM343 803 q6 12 23 27.5t31 22.5q13 -8 30 -23.5t24 -26.5q-7 -13 -24.5 -33t-29.5 -28q-12 8 -29.5 28t-24.5 33z" />
<glyph unicode="&#xcc;" horiz-adv-x="337" d="M21 634l4 25q53 -8 144 -8q82 0 156 8l3 -24q-57 -14 -110 -19q-11 -75 -11 -261q0 -224 13 -320q53 -5 110 -19l-3 -24q-74 8 -156 8q-91 0 -144 -8l-4 25q45 14 96 21q11 82 11 258v59q0 162 -13 258q-51 7 -96 21zM23 806q-1 10 4.5 31.5t10.5 30.5q20 7 42 9 q75 -90 157 -126l-8 -20z" />
<glyph unicode="&#xcd;" horiz-adv-x="337" d="M21 634l4 25q53 -8 144 -8q82 0 156 8l3 -24q-57 -14 -110 -19q-11 -75 -11 -261q0 -224 13 -320q53 -5 110 -19l-3 -24q-74 8 -156 8q-91 0 -144 -8l-4 25q45 14 96 21q11 82 11 258v59q0 162 -13 258q-51 7 -96 21zM101 742q82 36 157 126q22 -2 42 -9q5 -9 10.5 -30.5 t4.5 -31.5l-206 -75z" />
<glyph unicode="&#xce;" horiz-adv-x="337" d="M3 734q92 58 161 151h20q69 -93 161 -151l-10 -19l-161 75l-161 -75z" />
<glyph unicode="&#xcf;" horiz-adv-x="337" d="M21 634l4 25q53 -8 144 -8q82 0 156 8l3 -24q-57 -14 -110 -19q-11 -75 -11 -261q0 -224 13 -320q53 -5 110 -19l-3 -24q-74 8 -156 8q-91 0 -144 -8l-4 25q45 14 96 21q11 82 11 258v59q0 162 -13 258q-51 7 -96 21zM27 803q6 12 23 27.5t31 22.5q13 -8 30 -23.5 t24 -26.5q-7 -13 -24.5 -33t-29.5 -28q-12 8 -29.5 28t-24.5 33zM212 803q6 12 23 27.5t31 22.5q13 -8 30 -23.5t24 -26.5q-7 -13 -24.5 -33t-29.5 -28q-12 8 -29.5 28t-24.5 33z" />
<glyph unicode="&#xd0;" horiz-adv-x="620" d="M-100 463q0 46 52.5 109t100.5 87q85 -8 252 -8q273 0 273 -265q0 -139 -73 -252t-198 -149q-72 0 -161 38q-17 -26 -23 -45l-21 5q24 108 24 341q-61 -3 -107 -9l-3 4q6 20 7 32l103 3q-1 141 -9 244q-111 -2 -142 -32q-7 -14 -7 -46q0 -28 10 -39l-1 -7 q-25 -15 -50 -42q-12 1 -19.5 10t-7.5 21zM203 325q0 -152 5 -240q54 -28 132 -28q60 0 98 34q51 93 51 229q0 138 -42.5 211t-157.5 73q-46 0 -77 -5q-9 -87 -9 -242l61 2q64 3 84 5q4 -20 9 -31v-5l-122 -2z" />
<glyph unicode="&#xd1;" horiz-adv-x="706" d="M-108 461q0 49 59 117t110 86q12 -1 67.5 -7t92.5 -6q35 0 66 6l4 -25q-41 -17 -41 -33q5 -27 57 -113.5t212 -335.5l4 2v144q0 171 -15 250.5t-57 94.5l4 14q31 -4 94 -4q77 0 136 8l3 -23q-71 -17 -99 -20q-13 -98 -13 -261v-59q0 -187 13 -261q51 -6 96 -18l-4 -25 q-53 8 -126 8q-34 0 -67 -3q0 33 -65 147t-236 381l-4 -2v-168q0 -245 37 -320q55 -5 109 -19l-2 -24q-74 8 -156 8q-91 0 -144 -8l-4 25q45 14 96 21q11 82 11 258v59q0 141 -12 241q-118 0 -151 -32q-7 -14 -7 -46q0 -28 10 -39l-1 -7q-25 -15 -50 -42q-12 1 -19.5 10 t-7.5 21zM201 755q56 61 128 82q59 -31 119 -31q45 0 65 24l18 -11q-56 -61 -104 -82q-21 0 -72.5 15.5t-72.5 15.5q-43 0 -63 -24z" />
<glyph unicode="&#xd2;" horiz-adv-x="602" d="M42 265q0 204 148 338l12 -8q-71 -103 -71 -256q0 -109 50.5 -195.5t140.5 -86.5q59 0 99 35q50 92 50 218q0 76 -14 137.5t-48.5 104t-85.5 42.5q-26 0 -48 -15t-31 -39q0 -20 9 -46.5t23 -33.5l2 -7q-22 -27 -33 -57q-2 -1 -8 -1q-36 0 -36 64q0 108 112 207 q122 0 184.5 -73t62.5 -206q0 -138 -68.5 -246.5t-190.5 -155.5q-117 0 -188 77.5t-71 202.5zM169 806q-1 10 4.5 31.5t10.5 30.5q20 7 42 9q75 -90 157 -126l-8 -20z" />
<glyph unicode="&#xd3;" horiz-adv-x="602" d="M42 265q0 204 148 338l12 -8q-71 -103 -71 -256q0 -109 50.5 -195.5t140.5 -86.5q59 0 99 35q50 92 50 218q0 76 -14 137.5t-48.5 104t-85.5 42.5q-26 0 -48 -15t-31 -39q0 -20 9 -46.5t23 -33.5l2 -7q-22 -27 -33 -57q-2 -1 -8 -1q-36 0 -36 64q0 108 112 207 q122 0 184.5 -73t62.5 -206q0 -138 -68.5 -246.5t-190.5 -155.5q-117 0 -188 77.5t-71 202.5zM271 742q82 36 157 126q22 -2 42 -9q5 -9 10.5 -30.5t4.5 -31.5l-206 -75z" />
<glyph unicode="&#xd4;" horiz-adv-x="602" d="M42 265q0 204 148 338l12 -8q-71 -103 -71 -256q0 -109 50.5 -195.5t140.5 -86.5q59 0 99 35q50 92 50 218q0 76 -14 137.5t-48.5 104t-85.5 42.5q-26 0 -48 -15t-31 -39q0 -20 9 -46.5t23 -33.5l2 -7q-22 -27 -33 -57q-2 -1 -8 -1q-36 0 -36 64q0 108 112 207 q122 0 184.5 -73t62.5 -206q0 -138 -68.5 -246.5t-190.5 -155.5q-117 0 -188 77.5t-71 202.5zM150 734q92 58 161 151h20q69 -93 161 -151l-10 -19l-161 75l-161 -75z" />
<glyph unicode="&#xd5;" horiz-adv-x="602" d="M42 265q0 204 148 338l12 -8q-71 -103 -71 -256q0 -109 50.5 -195.5t140.5 -86.5q59 0 99 35q50 92 50 218q0 76 -14 137.5t-48.5 104t-85.5 42.5q-26 0 -48 -15t-31 -39q0 -20 9 -46.5t23 -33.5l2 -7q-22 -27 -33 -57q-2 -1 -8 -1q-36 0 -36 64q0 108 112 207 q122 0 184.5 -73t62.5 -206q0 -138 -68.5 -246.5t-190.5 -155.5q-117 0 -188 77.5t-71 202.5zM157 755q56 61 128 82q59 -31 119 -31q45 0 65 24l18 -11q-56 -61 -104 -82q-21 0 -72.5 15.5t-72.5 15.5q-43 0 -63 -24z" />
<glyph unicode="&#xd6;" horiz-adv-x="602" d="M42 265q0 204 148 338l12 -8q-71 -103 -71 -256q0 -109 50.5 -195.5t140.5 -86.5q59 0 99 35q50 92 50 218q0 76 -14 137.5t-48.5 104t-85.5 42.5q-26 0 -48 -15t-31 -39q0 -20 9 -46.5t23 -33.5l2 -7q-22 -27 -33 -57q-2 -1 -8 -1q-36 0 -36 64q0 108 112 207 q122 0 184.5 -73t62.5 -206q0 -138 -68.5 -246.5t-190.5 -155.5q-117 0 -188 77.5t-71 202.5zM175 803q6 12 23 27.5t31 22.5q13 -8 30 -23.5t24 -26.5q-7 -13 -24.5 -33t-29.5 -28q-12 8 -29.5 28t-24.5 33zM360 803q6 12 23 27.5t31 22.5q13 -8 30 -23.5t24 -26.5 q-7 -13 -24.5 -33t-29.5 -28q-12 8 -29.5 28t-24.5 33z" />
<glyph unicode="&#xd7;" horiz-adv-x="550" d="M81 89q130 116 163 150l-153 151l38 35l8 -1q43 -48 141 -151l141 151l8 1l38 -35l-154 -151q28 -29 55.5 -54t62 -55.5t46.5 -40.5l-28 -39h-11l-158 155l-158 -155h-11z" />
<glyph unicode="&#xd8;" horiz-adv-x="602" d="M42 265q0 66 16.5 126.5t50 114t81.5 97.5l12 -8q-35 -51 -53 -119.5t-18 -136.5q0 -63 18 -123.5t53 -100.5q6 15 11 28l140 368q14 35 25 68q-25 15 -55 15q-26 0 -48 -15t-31 -39q0 -20 9 -46.5t23 -33.5l2 -7q-22 -27 -33 -57q-2 -1 -8 -1q-36 0 -36 64 q0 108 112 207q51 0 92 -13q12 36 26 79q23 2 38 7l4 -3q-14 -32 -38 -95q125 -61 125 -254q0 -138 -68.5 -246.5t-190.5 -155.5q-59 0 -108 21l-35 -93h-5q-16 9 -26 24q16 35 36 84q-57 35 -89 98.5t-32 145.5zM226 92q42 -35 96 -35q59 0 99 35q50 92 50 218 q0 51 -6.5 97t-22.5 86.5t-39 64.5q-7 -18 -13 -34z" />
<glyph unicode="&#xd9;" horiz-adv-x="665" d="M-112 461q0 49 59 117t110 86q23 -1 60.5 -7t66.5 -6q33 0 61 4l4 -14q-45 -25 -52 -92q-14 -126 -14 -273q0 -49 5 -83.5t19.5 -65t44.5 -46t75 -15.5q76 0 126 46q5 130 5 212q0 178 -11 292q-51 7 -96 21l4 22q61 -8 142 -8q94 0 158 8l3 -21q-57 -14 -110 -19 q-13 -74 -13 -264v-59q0 -187 13 -261q53 -5 110 -19l-3 -24q-64 8 -156 8q-40 0 -58 -1l-3 14q9 11 13 71q-58 -65 -146 -99q-113 0 -157.5 65.5t-44.5 190.5q0 57 7 181t7 136q0 18 -3 38q-118 0 -151 -32q-7 -14 -7 -46q0 -28 10 -39l-1 -7q-25 -15 -50 -42 q-12 1 -19.5 10t-7.5 21zM186 806q-1 10 4.5 31.5t10.5 30.5q20 7 42 9q75 -90 157 -126l-8 -20z" />
<glyph unicode="&#xda;" horiz-adv-x="665" d="M-112 461q0 49 59 117t110 86q23 -1 60.5 -7t66.5 -6q33 0 61 4l4 -14q-45 -25 -52 -92q-14 -126 -14 -273q0 -49 5 -83.5t19.5 -65t44.5 -46t75 -15.5q76 0 126 46q5 130 5 212q0 178 -11 292q-51 7 -96 21l4 22q61 -8 142 -8q94 0 158 8l3 -21q-57 -14 -110 -19 q-13 -74 -13 -264v-59q0 -187 13 -261q53 -5 110 -19l-3 -24q-64 8 -156 8q-40 0 -58 -1l-3 14q9 11 13 71q-58 -65 -146 -99q-113 0 -157.5 65.5t-44.5 190.5q0 57 7 181t7 136q0 18 -3 38q-118 0 -151 -32q-7 -14 -7 -46q0 -28 10 -39l-1 -7q-25 -15 -50 -42 q-12 1 -19.5 10t-7.5 21zM324 742q82 36 157 126q22 -2 42 -9q5 -9 10.5 -30.5t4.5 -31.5l-206 -75z" />
<glyph unicode="&#xdb;" horiz-adv-x="665" d="M-112 461q0 49 59 117t110 86q23 -1 60.5 -7t66.5 -6q33 0 61 4l4 -14q-45 -25 -52 -92q-14 -126 -14 -273q0 -49 5 -83.5t19.5 -65t44.5 -46t75 -15.5q76 0 126 46q5 130 5 212q0 178 -11 292q-51 7 -96 21l4 22q61 -8 142 -8q94 0 158 8l3 -21q-57 -14 -110 -19 q-13 -74 -13 -264v-59q0 -187 13 -261q53 -5 110 -19l-3 -24q-64 8 -156 8q-40 0 -58 -1l-3 14q9 11 13 71q-58 -65 -146 -99q-113 0 -157.5 65.5t-44.5 190.5q0 57 7 181t7 136q0 18 -3 38q-118 0 -151 -32q-7 -14 -7 -46q0 -28 10 -39l-1 -7q-25 -15 -50 -42 q-12 1 -19.5 10t-7.5 21zM184 734q92 58 161 151h20q69 -93 161 -151l-10 -19l-161 75l-161 -75z" />
<glyph unicode="&#xdc;" horiz-adv-x="665" d="M-112 461q0 49 59 117t110 86q23 -1 60.5 -7t66.5 -6q33 0 61 4l4 -14q-45 -25 -52 -92q-14 -126 -14 -273q0 -49 5 -83.5t19.5 -65t44.5 -46t75 -15.5q76 0 126 46q5 130 5 212q0 178 -11 292q-51 7 -96 21l4 22q61 -8 142 -8q94 0 158 8l3 -21q-57 -14 -110 -19 q-13 -74 -13 -264v-59q0 -187 13 -261q53 -5 110 -19l-3 -24q-64 8 -156 8q-40 0 -58 -1l-3 14q9 11 13 71q-58 -65 -146 -99q-113 0 -157.5 65.5t-44.5 190.5q0 57 7 181t7 136q0 18 -3 38q-118 0 -151 -32q-7 -14 -7 -46q0 -28 10 -39l-1 -7q-25 -15 -50 -42 q-12 1 -19.5 10t-7.5 21zM209 803q6 12 23 27.5t31 22.5q13 -8 30 -23.5t24 -26.5q-7 -13 -24.5 -33t-29.5 -28q-12 8 -29.5 28t-24.5 33zM394 803q6 12 23 27.5t31 22.5q13 -8 30 -23.5t24 -26.5q-7 -13 -24.5 -33t-29.5 -28q-12 8 -29.5 28t-24.5 33z" />
<glyph unicode="&#xdd;" horiz-adv-x="545" d="M-166 740q0 14 16.5 23.5t46.5 9.5q63 0 148.5 -35t118.5 -72q21 -90 46.5 -154.5t80.5 -174.5q111 217 111 272q0 22 -20 32l4 14q50 -4 83 -4q78 0 130 8l5 -25q-48 -15 -97 -21l-196 -315q0 -167 13 -263q53 -5 110 -19l-3 -24q-74 8 -156 8q-91 0 -144 -8l-4 25 q45 14 96 21q11 82 11 207v26l-170 364q-39 84 -85 105q-18 0 -44 -13t-32 -26l-6 -2q-27 18 -60 28q-3 6 -3 13zM279 742q82 36 157 126q22 -2 42 -9q5 -9 10.5 -30.5t4.5 -31.5l-206 -75z" />
<glyph unicode="&#xde;" horiz-adv-x="517" d="M21 634l4 25q53 -8 144 -8q82 0 156 8l3 -24q-57 -14 -110 -19q-4 -19 -7 -91q14 0 47 1.5t47 1.5q206 0 206 -164q0 -89 -73 -144t-170 -55q-15 0 -22 1l4 32h12q75 0 115 38t40 113q0 71 -31 106.5t-98 35.5q-40 0 -78 -13h-1q-2 -40 -2 -123q0 -224 13 -320 q53 -5 110 -19l-3 -24q-74 8 -156 8q-91 0 -144 -8l-4 25q45 14 96 21q11 82 11 258v59q0 162 -13 258q-51 7 -96 21z" />
<glyph unicode="&#xdf;" horiz-adv-x="833" d="M21 -7q56 61 62 151h25q0 -34 3 -68q46 -19 91 -19t72 21t27 60q0 23 -35.5 50t-78 49t-78 53.5t-35.5 62.5q0 53 56 107t115 73q74 0 134 -15v-18q-42 -42 -47 -115h-25q0 28 -5 70q-35 16 -78 16q-37 0 -63.5 -17.5t-26.5 -50.5q0 -23 35.5 -50t77.5 -48t77.5 -52 t35.5 -62q0 -60 -53 -119.5t-117 -83.5q-63 0 -118 15q-16 -7 -33 -23zM442 -7q56 61 62 151h25q0 -34 3 -68q46 -19 91 -19t72 21t27 60q0 23 -35.5 50t-78 49t-78 53.5t-35.5 62.5q0 53 56 107t115 73q74 0 134 -15v-18q-42 -42 -47 -115h-25q0 28 -5 70q-35 16 -78 16 q-37 0 -63.5 -17.5t-26.5 -50.5q0 -23 35.5 -50t77.5 -48t77.5 -52t35.5 -62q0 -60 -53 -119.5t-117 -83.5q-63 0 -118 15q-16 -7 -33 -23z" />
<glyph unicode="&#xe0;" horiz-adv-x="535" d="M-14 18q24 9 66 16l130 456q-44 7 -77 16l3 26q94 -11 181 -11q105 0 198 11l4 -26q-30 -12 -62 -18q-11 -82 -11 -205q0 -169 11 -251q20 -3 74 -15l-4 -25q-48 8 -124 8q-74 0 -114 -8l-4 26q34 11 77 16q6 58 9 161q-47 5 -89 5q-52 0 -87 -5q-20 -82 -20 -114 q0 -49 35 -69l-4 -17q-23 5 -76 5q-75 0 -112 -8zM133 667q1 10 9.5 30.5t15.5 28.5q17 3 43 1q24 -42 59.5 -84t72.5 -67l-11 -18zM175 242q39 -6 79 -6q55 0 89 6q0 185 -8 239q-34 2 -48 2q-19 0 -53 -2l-46 -187z" />
<glyph unicode="&#xe1;" horiz-adv-x="535" d="M-14 18q24 9 66 16l130 456q-44 7 -77 16l3 26q94 -11 181 -11q105 0 198 11l4 -26q-30 -12 -62 -18q-11 -82 -11 -205q0 -169 11 -251q20 -3 74 -15l-4 -25q-48 8 -124 8q-74 0 -114 -8l-4 26q34 11 77 16q6 58 9 161q-47 5 -89 5q-52 0 -87 -5q-20 -82 -20 -114 q0 -49 35 -69l-4 -17q-23 5 -76 5q-75 0 -112 -8zM175 242q39 -6 79 -6q55 0 89 6q0 185 -8 239q-34 2 -48 2q-19 0 -53 -2l-46 -187zM271 576q37 25 72.5 67t59.5 84q26 2 43 -1q7 -8 15.5 -28.5t9.5 -30.5l-189 -109z" />
<glyph unicode="&#xe2;" horiz-adv-x="535" d="M-14 18q24 9 66 16l130 456q-44 7 -77 16l3 26q94 -11 181 -11q105 0 198 11l4 -26q-30 -12 -62 -18q-11 -82 -11 -205q0 -169 11 -251q20 -3 74 -15l-4 -25q-48 8 -124 8q-74 0 -114 -8l-4 26q34 11 77 16q6 58 9 161q-47 5 -89 5q-52 0 -87 -5q-20 -82 -20 -114 q0 -49 35 -69l-4 -17q-23 5 -76 5q-75 0 -112 -8zM157 571q84 71 137 168h20q53 -97 137 -168l-13 -17l-134 90l-134 -90zM175 242q39 -6 79 -6q55 0 89 6q0 185 -8 239q-34 2 -48 2q-19 0 -53 -2l-46 -187z" />
<glyph unicode="&#xe3;" horiz-adv-x="535" d="M-14 18q24 9 66 16l130 456q-44 7 -77 16l3 26q94 -11 181 -11q105 0 198 11l4 -26q-30 -12 -62 -18q-11 -82 -11 -205q0 -169 11 -251q20 -3 74 -15l-4 -25q-48 8 -124 8q-74 0 -114 -8l-4 26q34 11 77 16q6 58 9 161q-47 5 -89 5q-52 0 -87 -5q-20 -82 -20 -114 q0 -49 35 -69l-4 -17q-23 5 -76 5q-75 0 -112 -8zM148 614q56 61 128 82q59 -31 119 -31q45 0 65 24l18 -11q-56 -61 -104 -82q-21 0 -72.5 15.5t-72.5 15.5q-43 0 -63 -24zM175 242q39 -6 79 -6q55 0 89 6q0 185 -8 239q-34 2 -48 2q-19 0 -53 -2l-46 -187z" />
<glyph unicode="&#xe4;" horiz-adv-x="535" d="M-14 18q24 9 66 16l130 456q-44 7 -77 16l3 26q94 -11 181 -11q105 0 198 11l4 -26q-30 -12 -62 -18q-11 -82 -11 -205q0 -169 11 -251q20 -3 74 -15l-4 -25q-48 8 -124 8q-74 0 -114 -8l-4 26q34 11 77 16q6 58 9 161q-47 5 -89 5q-52 0 -87 -5q-20 -82 -20 -114 q0 -49 35 -69l-4 -17q-23 5 -76 5q-75 0 -112 -8zM151 661q6 12 23 27.5t31 22.5q13 -8 30 -23.5t24 -26.5q-7 -13 -24.5 -33t-29.5 -28q-12 8 -29.5 28t-24.5 33zM175 242q39 -6 79 -6q55 0 89 6q0 185 -8 239q-34 2 -48 2q-19 0 -53 -2l-46 -187zM336 661q6 12 23 27.5 t31 22.5q13 -8 30 -23.5t24 -26.5q-7 -13 -24.5 -33t-29.5 -28q-12 8 -29.5 28t-24.5 33z" />
<glyph unicode="&#xe5;" horiz-adv-x="514" d="M-14 18q24 9 66 16l130 456q-44 7 -77 16l3 26q94 -11 181 -11q105 0 198 11l4 -26q-30 -12 -62 -18q-11 -82 -11 -205q0 -169 11 -251q20 -3 74 -15l-4 -25q-48 8 -124 8q-74 0 -114 -8l-4 26q34 11 77 16q6 58 9 161q-47 5 -89 5q-52 0 -87 -5q-20 -82 -20 -114 q0 -49 35 -69l-4 -17q-23 5 -76 5q-75 0 -112 -8zM175 242q39 -6 79 -6q55 0 89 6q0 185 -8 239q-34 2 -48 2q-19 0 -53 -2l-46 -187zM214 631q0 40 29.5 69.5t72.5 38.5q91 0 91 -74q0 -39 -26.5 -66.5t-69.5 -40.5q-41 0 -69 19t-28 54zM261 652q0 -26 16 -42.5t42 -16.5 q19 0 30 9q11 16 11 43t-15.5 43t-42.5 16q-20 0 -30 -9q-11 -17 -11 -43z" />
<glyph unicode="&#xe6;" horiz-adv-x="633" d="M-16 18q24 9 66 16l158 456q-47 8 -74 16l3 26q94 -11 222 -11q140 0 262 12l5 -20q-40 -42 -45 -122h-25q-7 33 -7 80q-35 17 -87 17q-43 0 -61 -4q-7 -19 -10 -47q-6 -49 -11 -139q35 -7 69 -7q61 0 78 35l21 -3q-9 -30 -9 -65q0 -23 7 -65l-24 -4q-11 30 -16 62 q-40 4 -57 4q-27 0 -69 -5v-30q0 -79 22.5 -120.5t87.5 -41.5q63 0 119 56l11 -10q-68 -88 -148 -116q-174 0 -169 212l1 50q-28 5 -57 5q-39 0 -60 -5l-9 -32q-30 -108 -30 -141q0 -48 30 -65l-4 -17q-23 5 -75 5q-74 0 -111 -8zM202 296q19 -5 47 -5q36 0 56 6 q2 40 5.5 87t3.5 56q0 29 -2 42q-12 3 -26 3t-27 -3z" />
<glyph unicode="&#xe7;" horiz-adv-x="387" d="M45 212q0 108 65 200t166 121q73 0 165 -15l-1 -22q-19 0 -36 -7q-19 -45 -25 -107h-25q-8 34 -8 70q-38 19 -88 19q-54 0 -88 -28q-39 -71 -39 -172q0 -48 5.5 -83t19.5 -66t42.5 -47.5t70.5 -16.5q69 0 130 61l14 -14q-31 -39 -73 -70.5t-88 -46.5h-16l-13 -34l4 -3 q46 0 74.5 -21t28.5 -63q-14 -27 -40.5 -49.5t-55.5 -32.5q-44 0 -88 21q10 19 16 39l4 2q32 -25 68 -25q18 0 26 5q9 13 9 31q0 45 -83 45l-6 4l30 84q-78 13 -121.5 72.5t-43.5 148.5z" />
<glyph unicode="&#xe8;" horiz-adv-x="448" d="M45 212q0 108 65 200t166 121q73 0 165 -15l-1 -22q-19 0 -36 -7q-19 -45 -25 -107h-25q-8 34 -8 70q-38 19 -88 19q-54 0 -88 -28q-34 -62 -39 -148q42 -7 90 -7q83 0 100 35l21 -3q-9 -30 -9 -65q0 -23 7 -65l-24 -4q-11 30 -16 62q-40 4 -79 4q-40 0 -90 -5 q3 -89 33 -139t105 -50q69 0 130 61l14 -14q-67 -85 -161 -117q-97 0 -152 61.5t-55 162.5zM119 667q1 10 9.5 30.5t15.5 28.5q17 3 43 1q24 -42 59.5 -84t72.5 -67l-11 -18z" />
<glyph unicode="&#xe9;" horiz-adv-x="448" d="M45 212q0 108 65 200t166 121q73 0 165 -15l-1 -22q-19 0 -36 -7q-19 -45 -25 -107h-25q-8 34 -8 70q-38 19 -88 19q-54 0 -88 -28q-34 -62 -39 -148q42 -7 90 -7q83 0 100 35l21 -3q-9 -30 -9 -65q0 -23 7 -65l-24 -4q-11 30 -16 62q-40 4 -79 4q-40 0 -90 -5 q3 -89 33 -139t105 -50q69 0 130 61l14 -14q-67 -85 -161 -117q-97 0 -152 61.5t-55 162.5zM215 576q37 25 72.5 67t59.5 84q26 2 43 -1q7 -8 15.5 -28.5t9.5 -30.5l-189 -109z" />
<glyph unicode="&#xea;" horiz-adv-x="448" d="M45 212q0 108 65 200t166 121q73 0 165 -15l-1 -22q-19 0 -36 -7q-19 -45 -25 -107h-25q-8 34 -8 70q-38 19 -88 19q-54 0 -88 -28q-34 -62 -39 -148q42 -7 90 -7q83 0 100 35l21 -3q-9 -30 -9 -65q0 -23 7 -65l-24 -4q-11 30 -16 62q-40 4 -79 4q-40 0 -90 -5 q3 -89 33 -139t105 -50q69 0 130 61l14 -14q-67 -85 -161 -117q-97 0 -152 61.5t-55 162.5zM121 571q84 71 137 168h20q53 -97 137 -168l-13 -17l-134 90l-134 -90z" />
<glyph unicode="&#xeb;" horiz-adv-x="448" d="M45 212q0 108 65 200t166 121q73 0 165 -15l-1 -22q-19 0 -36 -7q-19 -45 -25 -107h-25q-8 34 -8 70q-38 19 -88 19q-54 0 -88 -28q-34 -62 -39 -148q42 -7 90 -7q83 0 100 35l21 -3q-9 -30 -9 -65q0 -23 7 -65l-24 -4q-11 30 -16 62q-40 4 -79 4q-40 0 -90 -5 q3 -89 33 -139t105 -50q69 0 130 61l14 -14q-67 -85 -161 -117q-97 0 -152 61.5t-55 162.5zM122 661q6 12 23 27.5t31 22.5q13 -8 30 -23.5t24 -26.5q-7 -13 -24.5 -33t-29.5 -28q-12 8 -29.5 28t-24.5 33zM307 661q6 12 23 27.5t31 22.5q13 -8 30 -23.5t24 -26.5 q-7 -13 -24.5 -33t-29.5 -28q-12 8 -29.5 28t-24.5 33z" />
<glyph unicode="&#xec;" horiz-adv-x="309" d="M30 667q1 10 9.5 30.5t15.5 28.5q17 3 43 1q24 -42 59.5 -84t72.5 -67l-11 -18zM44 503l4 26q51 -8 114 -8q66 0 118 7l3 -25q-38 -10 -83 -15q-8 -54 -8 -205q0 -183 9 -250q45 -5 83 -15l-3 -25q-52 7 -118 7q-63 0 -114 -8l-4 26q28 9 63 15q9 72 9 204v47 q0 132 -10 204q-35 6 -63 15z" />
<glyph unicode="&#xed;" horiz-adv-x="309" d="M44 503l4 26q51 -8 114 -8q66 0 118 7l3 -25q-38 -10 -83 -15q-8 -54 -8 -205q0 -183 9 -250q45 -5 83 -15l-3 -25q-52 7 -118 7q-63 0 -114 -8l-4 26q28 9 63 15q9 72 9 204v47q0 132 -10 204q-35 6 -63 15zM90 576q37 25 72.5 67t59.5 84q26 2 43 -1q7 -8 15.5 -28.5 t9.5 -30.5l-189 -109z" />
<glyph unicode="&#xee;" horiz-adv-x="309" d="M14 571q84 71 137 168h20q53 -97 137 -168l-13 -17l-134 90l-134 -90zM44 503l4 26q51 -8 114 -8q66 0 118 7l3 -25q-38 -10 -83 -15q-8 -54 -8 -205q0 -183 9 -250q45 -5 83 -15l-3 -25q-52 7 -118 7q-63 0 -114 -8l-4 26q28 9 63 15q9 72 9 204v47q0 132 -10 204 q-35 6 -63 15z" />
<glyph unicode="&#xef;" horiz-adv-x="309" d="M22 661q6 12 23 27.5t31 22.5q13 -8 30 -23.5t24 -26.5q-7 -13 -24.5 -33t-29.5 -28q-12 8 -29.5 28t-24.5 33zM44 503l4 26q51 -8 114 -8q66 0 118 7l3 -25q-38 -10 -83 -15q-8 -54 -8 -205q0 -183 9 -250q45 -5 83 -15l-3 -25q-52 7 -118 7q-63 0 -114 -8l-4 26 q28 9 63 15q9 72 9 204v47q0 132 -10 204q-35 6 -63 15zM193 661q6 12 23 27.5t31 22.5q13 -8 30 -23.5t24 -26.5q-7 -13 -24.5 -33t-29.5 -28q-12 8 -29.5 28t-24.5 33z" />
<glyph unicode="&#xf0;" horiz-adv-x="539" d="M29 250q6 20 7 32l74 3q-1 133 -9 196q-34 13 -65 13v25q40 0 124 3.5t106 3.5q114 0 175.5 -54t61.5 -163q0 -106 -67.5 -199t-167.5 -122q-26 0 -67.5 9.5t-68.5 20.5q-11 -13 -20 -37l-21 5q19 93 19 268q-31 -1 -78 -8zM185 258q0 -129 4 -183q50 -23 105 -23 q50 0 81 27q38 72 38 177q0 49 -8 89t-25.5 74t-50 53t-76.5 19q-33 0 -61 -11q-7 -61 -7 -191l22 1q64 3 84 5q4 -20 9 -31v-5z" />
<glyph unicode="&#xf1;" horiz-adv-x="623" d="M42 506l3 26q57 -11 126 -11q56 0 83 7l2 -17q-27 -7 -27 -23q0 -7 6 -19.5t23.5 -41t40 -64.5t65.5 -107t90 -151l3 2v122q0 134 -14 201.5t-48 78.5l2 17q26 -5 77 -5q53 0 108 11l3 -26q-41 -13 -69 -16q-10 -80 -10 -206v-47q0 -152 10 -206q42 -7 67 -16l-3 -26 q-50 11 -101 11q-37 0 -61 -4q0 12 -8.5 31.5t-30.5 57t-47 78t-70.5 116t-88.5 149.5l-4 -2v-134q0 -199 30 -259q45 -5 88 -15l-3 -25q-52 7 -118 7q-63 0 -114 -8l-4 26q32 10 60 15q9 78 9 204v47q0 134 -10 206q-27 3 -65 16zM148 614q56 61 128 82q59 -31 119 -31 q45 0 65 24l18 -11q-56 -61 -104 -82q-21 0 -72.5 15.5t-72.5 15.5q-43 0 -63 -24z" />
<glyph unicode="&#xf2;" horiz-adv-x="526" d="M42 212q0 111 64 203t167 118q103 0 157 -58.5t54 -164.5q0 -110 -58.5 -197t-162.5 -125q-99 0 -160 62.5t-61 161.5zM113 667q1 10 9.5 30.5t15.5 28.5q17 3 43 1q24 -42 59.5 -84t72.5 -67l-11 -18zM127 271q0 -55 16 -104t52 -83.5t85 -34.5t79 26q40 70 40 173 q0 99 -36 161.5t-117 62.5q-45 0 -78 -25q-41 -70 -41 -176z" />
<glyph unicode="&#xf3;" horiz-adv-x="526" d="M42 212q0 111 64 203t167 118q103 0 157 -58.5t54 -164.5q0 -110 -58.5 -197t-162.5 -125q-99 0 -160 62.5t-61 161.5zM127 271q0 -55 16 -104t52 -83.5t85 -34.5t79 26q40 70 40 173q0 99 -36 161.5t-117 62.5q-45 0 -78 -25q-41 -70 -41 -176zM219 576q37 25 72.5 67 t59.5 84q26 2 43 -1q7 -8 15.5 -28.5t9.5 -30.5l-189 -109z" />
<glyph unicode="&#xf4;" horiz-adv-x="526" d="M42 212q0 111 64 203t167 118q103 0 157 -58.5t54 -164.5q0 -110 -58.5 -197t-162.5 -125q-99 0 -160 62.5t-61 161.5zM119 571q84 71 137 168h20q53 -97 137 -168l-13 -17l-134 90l-134 -90zM127 271q0 -55 16 -104t52 -83.5t85 -34.5t79 26q40 70 40 173 q0 99 -36 161.5t-117 62.5q-45 0 -78 -25q-41 -70 -41 -176z" />
<glyph unicode="&#xf5;" horiz-adv-x="526" d="M42 212q0 111 64 203t167 118q103 0 157 -58.5t54 -164.5q0 -110 -58.5 -197t-162.5 -125q-99 0 -160 62.5t-61 161.5zM108 614q56 61 128 82q59 -31 119 -31q45 0 65 24l18 -11q-56 -61 -104 -82q-21 0 -72.5 15.5t-72.5 15.5q-43 0 -63 -24zM127 271q0 -55 16 -104 t52 -83.5t85 -34.5t79 26q40 70 40 173q0 99 -36 161.5t-117 62.5q-45 0 -78 -25q-41 -70 -41 -176z" />
<glyph unicode="&#xf6;" horiz-adv-x="526" d="M42 212q0 111 64 203t167 118q103 0 157 -58.5t54 -164.5q0 -110 -58.5 -197t-162.5 -125q-99 0 -160 62.5t-61 161.5zM120 661q6 12 23 27.5t31 22.5q13 -8 30 -23.5t24 -26.5q-7 -13 -24.5 -33t-29.5 -28q-12 8 -29.5 28t-24.5 33zM127 271q0 -55 16 -104t52 -83.5 t85 -34.5t79 26q40 70 40 173q0 99 -36 161.5t-117 62.5q-45 0 -78 -25q-41 -70 -41 -176zM305 661q6 12 23 27.5t31 22.5q13 -8 30 -23.5t24 -26.5q-7 -13 -24.5 -33t-29.5 -28q-12 8 -29.5 28t-24.5 33z" />
<glyph unicode="&#xf7;" horiz-adv-x="550" d="M53 229l9 51q170 -9 343 -9q46 0 85 3l6 -6l-9 -46h-426zM229 112q0 16 14.5 30.5t30.5 14.5t30 -14t14 -31t-14 -31.5t-30 -14.5t-30.5 14.5t-14.5 31.5zM229 385q0 17 14.5 31t30.5 14t30 -14t14 -31t-14 -31.5t-30 -14.5t-30.5 14.5t-14.5 31.5z" />
<glyph unicode="&#xf8;" horiz-adv-x="526" d="M42 212q0 111 64 203t167 118q32 0 60 -6l29 87q23 2 38 7l4 -3q-14 -33 -40 -100q59 -22 89.5 -75.5t30.5 -132.5q0 -110 -58.5 -197t-162.5 -125q-51 0 -94 18l-35 -93h-5q-16 9 -26 24q16 35 36 84q-46 29 -71.5 78.5t-25.5 112.5zM127 271q0 -100 47 -165q9 21 15 37 l95 250q13 34 25 66q-28 13 -63 13q-45 0 -78 -25q-41 -70 -41 -176zM197 80q36 -31 83 -31q49 0 79 26q40 70 40 173q0 141 -64 194q-8 -20 -14 -36z" />
<glyph unicode="&#xf9;" horiz-adv-x="578" d="M30 502l4 27q58 -8 104 -8q48 0 78 5l4 -17q-36 -19 -42 -69q-12 -96 -12 -215q0 -83 23.5 -125.5t91.5 -42.5q61 0 101 37q4 80 4 168q0 130 -8 226q-45 5 -83 15l3 25q52 -7 118 -7q63 0 114 8l4 -26q-28 -9 -63 -15q-10 -67 -10 -204v-47q0 -137 10 -205q46 -6 76 -14 l-3 -25q-49 7 -125 7q-27 0 -46 -3l-4 13q9 10 12 57q-52 -54 -120 -79q-172 0 -172 205q0 45 7 144t7 109q0 24 -6 40v1q-42 7 -67 15zM132 667q1 10 9.5 30.5t15.5 28.5q17 3 43 1q24 -42 59.5 -84t72.5 -67l-11 -18z" />
<glyph unicode="&#xfa;" horiz-adv-x="582" d="M34 502l4 27q58 -8 104 -8q48 0 78 5l4 -17q-36 -19 -42 -69q-12 -96 -12 -215q0 -83 23.5 -125.5t91.5 -42.5q61 0 101 37q4 80 4 168q0 130 -8 226q-45 5 -83 15l3 25q52 -7 118 -7q63 0 114 8l4 -26q-28 -9 -63 -15q-10 -67 -10 -204v-47q0 -137 10 -205q46 -6 76 -14 l-3 -25q-49 7 -125 7q-27 0 -46 -3l-4 13q9 10 12 57q-52 -54 -120 -79q-172 0 -172 205q0 45 7 144t7 109q0 24 -6 40v1q-42 7 -67 15zM263 576q37 25 72.5 67t59.5 84q26 2 43 -1q7 -8 15.5 -28.5t9.5 -30.5l-189 -109z" />
<glyph unicode="&#xfb;" horiz-adv-x="578" d="M30 502l4 27q58 -8 104 -8q48 0 78 5l4 -17q-36 -19 -42 -69q-12 -96 -12 -215q0 -83 23.5 -125.5t91.5 -42.5q61 0 101 37q4 80 4 168q0 130 -8 226q-45 5 -83 15l3 25q52 -7 118 -7q63 0 114 8l4 -26q-28 -9 -63 -15q-10 -67 -10 -204v-47q0 -137 10 -205q46 -6 76 -14 l-3 -25q-49 7 -125 7q-27 0 -46 -3l-4 13q9 10 12 57q-52 -54 -120 -79q-172 0 -172 205q0 45 7 144t7 109q0 24 -6 40v1q-42 7 -67 15zM137 571q84 71 137 168h20q53 -97 137 -168l-13 -17l-134 90l-134 -90z" />
<glyph unicode="&#xfc;" horiz-adv-x="578" d="M30 502l4 27q58 -8 104 -8q48 0 78 5l4 -17q-36 -19 -42 -69q-12 -96 -12 -215q0 -83 23.5 -125.5t91.5 -42.5q61 0 101 37q4 80 4 168q0 130 -8 226q-45 5 -83 15l3 25q52 -7 118 -7q63 0 114 8l4 -26q-28 -9 -63 -15q-10 -67 -10 -204v-47q0 -137 10 -205q46 -6 76 -14 l-3 -25q-49 7 -125 7q-27 0 -46 -3l-4 13q9 10 12 57q-52 -54 -120 -79q-172 0 -172 205q0 45 7 144t7 109q0 24 -6 40v1q-42 7 -67 15zM138 661q6 12 23 27.5t31 22.5q13 -8 30 -23.5t24 -26.5q-7 -13 -24.5 -33t-29.5 -28q-12 8 -29.5 28t-24.5 33zM323 661q6 12 23 27.5 t31 22.5q13 -8 30 -23.5t24 -26.5q-7 -13 -24.5 -33t-29.5 -28q-12 8 -29.5 28t-24.5 33z" />
<glyph unicode="&#xfd;" horiz-adv-x="542" d="M-3 503l4 26q40 -8 114 -8q76 0 124 8l4 -25q-46 -11 -79 -15q34 -104 95 -219q89 173 89 217q0 16 -27 22l4 17q30 -5 78 -5q49 0 107 8l4 -26q-26 -9 -66 -15l-166 -250q0 -130 10 -205q44 -5 82 -15l-3 -25q-52 7 -118 7q-69 0 -120 -8l-4 26q19 6 68 15q9 54 9 163 v21q-116 234 -147 272q-28 3 -62 14zM257 576q37 25 72.5 67t59.5 84q26 2 43 -1q7 -8 15.5 -28.5t9.5 -30.5l-189 -109z" />
<glyph unicode="&#xfe;" horiz-adv-x="455" d="M44 503l4 26q51 -8 114 -8q66 0 118 7l3 -25q-38 -10 -83 -15q-3 -19 -5 -64q58 2 75 2q181 0 181 -131q0 -73 -64.5 -118t-146.5 -45q-12 0 -17 1l4 33h9q62 0 92.5 27t30.5 87q0 56 -24.5 83.5t-78.5 27.5q-34 0 -63 -11q-1 -32 -1 -97q0 -183 9 -250q45 -5 83 -15 l-3 -25q-52 7 -118 7q-63 0 -114 -8l-4 26q28 9 63 15q9 72 9 204v47q0 132 -10 204q-35 6 -63 15z" />
<glyph unicode="&#xff;" horiz-adv-x="542" d="M-3 503l4 26q40 -8 114 -8q76 0 124 8l4 -25q-46 -11 -79 -15q34 -104 95 -219q89 173 89 217q0 16 -27 22l4 17q30 -5 78 -5q49 0 107 8l4 -26q-26 -9 -66 -15l-166 -250q0 -130 10 -205q44 -5 82 -15l-3 -25q-52 7 -118 7q-69 0 -120 -8l-4 26q19 6 68 15q9 54 9 163 v21q-116 234 -147 272q-28 3 -62 14zM113 661q6 12 23 27.5t31 22.5q13 -8 30 -23.5t24 -26.5q-7 -13 -24.5 -33t-29.5 -28q-12 8 -29.5 28t-24.5 33zM298 661q6 12 23 27.5t31 22.5q13 -8 30 -23.5t24 -26.5q-7 -13 -24.5 -33t-29.5 -28q-12 8 -29.5 28t-24.5 33z" />
<glyph unicode="&#x152;" horiz-adv-x="811" d="M42 247q0 101 45 192t126.5 151.5t180.5 71.5q24 0 69 -5.5t84 -5.5q137 0 253 11l4 -20q-52 -53 -59 -158h-25q-9 43 -9 109q-43 21 -108 21q-49 0 -76 -5q-7 -22 -12 -60q-8 -70 -13 -184q32 -7 77 -7q89 0 109 43l20 -4q-9 -32 -9 -77q0 -44 6 -87l-23 -4 q-15 38 -20 89q-38 3 -83 3q-44 0 -78 -5v-43q0 -39 2.5 -67.5t11.5 -57t23.5 -46t39.5 -28t60 -10.5q69 0 147 78l14 -13q-83 -110 -183 -144q-124 0 -170 96h-4q-73 -74 -188 -96q-99 17 -155.5 88.5t-56.5 173.5zM141 281q0 -94 45.5 -162.5t126.5 -68.5q48 0 77 21 q18 24 23.5 59.5t5.5 121.5q0 85 6 195.5t6 129.5q-53 23 -106 23q-54 0 -84 -22q-100 -99 -100 -297z" />
<glyph unicode="&#x153;" horiz-adv-x="684" d="M42 199q0 123 86.5 222t208.5 112q19 0 56 -4.5t69 -4.5q118 0 210 9l5 -20q-40 -42 -45 -122h-25q-7 33 -7 80q-35 17 -87 17q-43 0 -61 -4q-7 -19 -10 -47q-6 -49 -11 -139q35 -7 69 -7q60 0 78 35l21 -3q-9 -30 -9 -65q0 -23 7 -65l-24 -4q-11 30 -16 62q-40 4 -57 4 q-27 0 -69 -5v-30q0 -79 22.5 -120.5t87.5 -41.5q63 0 119 56l11 -10q-68 -88 -148 -116q-105 0 -142 78h-3q-58 -59 -153 -78q-81 14 -132 72t-51 139zM135 227q0 -75 35.5 -127.5t101.5 -52.5q41 0 61 14q14 19 18.5 47.5t4.5 94.5q0 69 5 156t5 102q-40 16 -84 16 q-42 0 -67 -15q-80 -77 -80 -235z" />
<glyph unicode="&#x178;" horiz-adv-x="545" d="M-166 740q0 14 16.5 23.5t46.5 9.5q63 0 148.5 -35t118.5 -72q21 -90 46.5 -154.5t80.5 -174.5q111 217 111 272q0 22 -20 32l4 14q50 -4 83 -4q78 0 130 8l5 -25q-48 -15 -97 -21l-196 -315q0 -167 13 -263q53 -5 110 -19l-3 -24q-74 8 -156 8q-91 0 -144 -8l-4 25 q45 14 96 21q11 82 11 207v26l-170 364q-39 84 -85 105q-18 0 -44 -13t-32 -26l-6 -2q-27 18 -60 28q-3 6 -3 13zM156 803q6 12 23 27.5t31 22.5q13 -8 30 -23.5t24 -26.5q-7 -13 -24.5 -33t-29.5 -28q-12 8 -29.5 28t-24.5 33zM341 803q6 12 23 27.5t31 22.5 q13 -8 30 -23.5t24 -26.5q-7 -13 -24.5 -33t-29.5 -28q-12 8 -29.5 28t-24.5 33z" />
<glyph unicode="&#x2c6;" horiz-adv-x="294" d="M0 571q84 71 137 168h20q53 -97 137 -168l-13 -17l-134 90l-134 -90z" />
<glyph unicode="&#x2dc;" horiz-adv-x="330" d="M0 614q56 61 128 82q59 -31 119 -31q45 0 65 24l18 -11q-56 -61 -104 -82q-21 0 -72.5 15.5t-72.5 15.5q-43 0 -63 -24z" />
<glyph unicode="&#x2000;" horiz-adv-x="442" />
<glyph unicode="&#x2001;" horiz-adv-x="885" />
<glyph unicode="&#x2002;" horiz-adv-x="442" />
<glyph unicode="&#x2003;" horiz-adv-x="885" />
<glyph unicode="&#x2004;" horiz-adv-x="295" />
<glyph unicode="&#x2005;" horiz-adv-x="221" />
<glyph unicode="&#x2006;" horiz-adv-x="147" />
<glyph unicode="&#x2007;" horiz-adv-x="147" />
<glyph unicode="&#x2008;" horiz-adv-x="110" />
<glyph unicode="&#x2009;" horiz-adv-x="177" />
<glyph unicode="&#x200a;" horiz-adv-x="49" />
<glyph unicode="&#x2010;" horiz-adv-x="286" d="M28 242l6 46h46q88 0 172 10l8 -5l-6 -42l-217 -15z" />
<glyph unicode="&#x2011;" horiz-adv-x="286" d="M28 242l6 46h46q88 0 172 10l8 -5l-6 -42l-217 -15z" />
<glyph unicode="&#x2012;" horiz-adv-x="286" d="M28 242l6 46h46q88 0 172 10l8 -5l-6 -42l-217 -15z" />
<glyph unicode="&#x2013;" horiz-adv-x="410" d="M-5 252l8 44q124 -9 312 -9q57 0 96 3l6 -6l-8 -39h-406z" />
<glyph unicode="&#x2014;" horiz-adv-x="615" d="M-3 252l8 44q170 -9 462 -9q107 0 146 3l6 -6l-8 -39h-606z" />
<glyph unicode="&#x2018;" horiz-adv-x="213" d="M53 481q0 50 34 102t80 83l10 -10q-21 -25 -38 -61.5t-18 -63.5q26 -24 40 -50q-6 -12 -23 -27.5t-31 -22.5q-13 8 -30 23.5t-24 26.5z" />
<glyph unicode="&#x2019;" horiz-adv-x="213" d="M36 441q21 25 38 61.5t18 63.5q-26 24 -40 50q6 12 23 27.5t31 22.5q13 -8 30 -23.5t24 -26.5q0 -50 -34 -102t-80 -83z" />
<glyph unicode="&#x201a;" horiz-adv-x="208" d="M36 -115q51 49 56 111q-26 24 -40 50q6 12 23 27.5t31 22.5q13 -8 30 -23.5t24 -26.5q0 -50 -32.5 -97t-81.5 -75z" />
<glyph unicode="&#x201c;" horiz-adv-x="366" d="M53 481q0 50 34 102t80 83l10 -10q-21 -25 -38 -61.5t-18 -63.5q26 -24 40 -50q-6 -12 -23 -27.5t-31 -22.5q-13 8 -30 23.5t-24 26.5zM206 481q0 50 34 102t80 83l10 -10q-21 -25 -38 -61.5t-18 -63.5q26 -24 40 -50q-6 -12 -23 -27.5t-31 -22.5q-13 8 -30 23.5 t-24 26.5z" />
<glyph unicode="&#x201d;" horiz-adv-x="366" d="M36 441q21 25 38 61.5t18 63.5q-26 24 -40 50q6 12 23 27.5t31 22.5q13 -8 30 -23.5t24 -26.5q0 -50 -34 -102t-80 -83zM189 441q21 25 38 61.5t18 63.5q-26 24 -40 50q6 12 23 27.5t31 22.5q13 -8 30 -23.5t24 -26.5q0 -50 -34 -102t-80 -83z" />
<glyph unicode="&#x201e;" horiz-adv-x="361" d="M36 -115q51 49 56 111q-26 24 -40 50q6 12 23 27.5t31 22.5q13 -8 30 -23.5t24 -26.5q0 -50 -32.5 -97t-81.5 -75zM189 -115q51 49 56 111q-26 24 -40 50q6 12 23 27.5t31 22.5q13 -8 30 -23.5t24 -26.5q0 -50 -32.5 -97t-81.5 -75z" />
<glyph unicode="&#x2022;" horiz-adv-x="349" d="M52 273v14q4 3 17.5 14t17 14t14.5 12.5t15 14t12.5 13.5t13.5 16t11 16.5t12 19.5h20l12 -20t11 -16.5t13.5 -15.5t12.5 -13.5t15 -14t14 -12t17 -13.5t17 -14v-14q-77 -64 -112 -133h-20q-36 71 -113 132z" />
<glyph unicode="&#x202f;" horiz-adv-x="177" />
<glyph unicode="&#x2039;" horiz-adv-x="247" d="M21 269v20q95 52 178 150l19 -13l-107 -143l108 -158l-20 -14q-93 107 -178 158z" />
<glyph unicode="&#x203a;" horiz-adv-x="247" d="M28 125l108 158l-105 143l17 13q83 -98 178 -150v-20q-85 -51 -178 -158z" />
<glyph unicode="&#x205f;" horiz-adv-x="221" />
<glyph unicode="&#x20ac;" horiz-adv-x="456" d="M29 203q6 20 7 32l39 1q1 16 7 48q-29 -1 -50 -5l-3 4q6 20 7 32l53 2q23 80 75.5 139.5t126.5 81.5q71 0 131 -16v-14q-37 -48 -43 -113h-22q0 40 -3 64q-42 14 -84 14q-46 0 -77 -27q-26 -56 -36 -127l128 5q64 3 84 5q4 -20 9 -31v-5l-122 -2l-102 -3v-17v-16 q-1 -16 0 -16l131 5q63 3 84 5q4 -20 9 -31v-5l-122 -2l-100 -3q5 -72 31 -111.5t88 -39.5q59 0 128 63l10 -10q-60 -87 -156 -126q-91 0 -135.5 60t-46.5 160l-43 -5z" />
<glyph unicode="&#xe000;" horiz-adv-x="530" d="M0 0v530h530v-530h-530z" />
</font>
</defs>
</svg>
