<?xml version="1.0" standalone="no"?>
<!DOCTYPE svg PUBLIC "-//W3C//DTD SVG 1.1//EN" "http://www.w3.org/Graphics/SVG/1.1/DTD/svg11.dtd" >
<svg xmlns="http://www.w3.org/2000/svg">
<metadata></metadata>
<defs>
<font id="dejavu_serifcondensed" horiz-adv-x="1544" >
<font-face units-per-em="2048" ascent="1556" descent="-492" />
<missing-glyph horiz-adv-x="585" />
<glyph unicode="&#xfb00;" horiz-adv-x="1309" d="M853 955l-462 1v-850h212v-106h-536v106h158v850h-158v107h158v133q0 178 83 269t245 91q59 0 119.5 -12t119.5 -37v-202h-86q-2 75 -39 114t-109 39q-92 0 -129.5 -56.5t-37.5 -201.5v-137h462v132q0 178 83 269t245 91q59 0 119.5 -12t119.5 -37v-202h-86 q-2 75 -39 114t-109 39q-92 0 -129.5 -56.5t-37.5 -201.5v-137h266v-107h-266v-850h212v-106h-536v106h158v850z" />
<glyph unicode="fi" horiz-adv-x="1229" d="M964 1286l-85 1q-2 86 -57 128.5t-166 42.5q-138 0 -201.5 -71t-63.5 -224v-100h639v-957h157v-106h-481v106h159v850h-474v-850h156v-106h-480v106h158v850h-158v107h158v96q0 197 105.5 297t311.5 100q78 0 160 -13t162 -40v-217z" />
<glyph unicode="fl" horiz-adv-x="1229" d="M660 1556h357v-1450h157v-106h-481v106h158v1344h-193q-147 0 -207 -65t-60 -222v-100h265v-107h-265v-850h156v-106h-480v106h158v850h-158v107h158v96q0 201 107.5 299t327.5 98z" />
<glyph unicode="&#xfb03;" horiz-adv-x="1894" d="M890 956h-501v-850h212v-106h-536v106h158v850h-158v107h158v133q0 178 83.5 269t244.5 91q60 0 120.5 -12t119.5 -37v-202h-87q-1 75 -38.5 114t-108.5 39q-93 0 -130.5 -56.5t-37.5 -201.5v-137h501v96q0 197 105.5 297t311.5 100q78 0 160 -13t162 -40v-217l-85 1 q-2 86 -57 128.5t-166 42.5q-137 0 -201 -71t-64 -224v-100h640v-957h156v-106h-481v106h159v850h-474v-850h156v-106h-480v106h158v850z" />
<glyph unicode="&#xfb04;" horiz-adv-x="1899" d="M886 956h-499v-850h212v-106h-536v106h158v850h-158v107h158v133q0 178 83.5 269t244.5 91q60 0 120.5 -12t119.5 -37v-202h-87q-1 75 -38.5 114t-108.5 39q-92 0 -130 -56.5t-38 -201.5v-137h499v96q0 201 108 299t327 98h357v-1450h158v-106h-482v106h159v1344h-194 q-146 0 -206.5 -65t-60.5 -222v-100h266v-107h-266v-850h157v-106h-481v106h158v850z" />
<glyph unicode="&#xd;" horiz-adv-x="682" />
<glyph unicode=" "  horiz-adv-x="585" />
<glyph unicode="&#x09;" horiz-adv-x="585" />
<glyph unicode="&#xa0;" horiz-adv-x="585" />
<glyph unicode="!" horiz-adv-x="740" d="M251 104q0 56 34.5 95t85.5 39q49 0 84 -39t35 -95q0 -55 -35 -94t-84 -39q-51 0 -85.5 38.5t-34.5 94.5zM255 1493h232l-61 -821v-252h-111v252z" />
<glyph unicode="&#x22;" horiz-adv-x="847" d="M324 1493v-555h-143v555h143zM667 1493v-555h-143v555h143z" />
<glyph unicode="#" d="M938 901h-254l-76 -334h257zM811 1470l-92 -415h254l93 415h154l-94 -415h277v-154h-312l-74 -334h283v-153h-317l-93 -414h-155l95 414h-255l-93 -414h-154l92 414h-278v153h313l74 334h-284v154h319l94 415h153z" />
<glyph unicode="$" horiz-adv-x="1172" d="M621 68q102 10 155.5 65t53.5 150q0 86 -53 146t-156 91v-452zM531 1187q-93 -7 -144 -59.5t-51 -140.5q0 -80 47 -133t148 -86v419zM158 72v276h98q3 -137 71.5 -207t203.5 -73v485q-207 64 -290.5 147.5t-83.5 221.5q0 160 99 257t275 109v268h90v-268q91 -8 175 -32.5 t164 -65.5v-262h-98q-11 116 -73 183t-168 76v-452q221 -67 310 -153.5t89 -231.5q0 -166 -104.5 -266t-294.5 -115v-270h-90v270q-86 2 -179 27.5t-194 75.5z" />
<glyph unicode="%" horiz-adv-x="1751" d="M413 1427q-79 0 -123.5 -83t-44.5 -232q0 -147 45.5 -231t122.5 -84t121.5 83.5t44.5 231.5t-44.5 231.5t-121.5 83.5zM1340 694q-78 0 -122.5 -84t-44.5 -233q0 -147 45 -230.5t122 -83.5q78 0 122 83.5t44 230.5q0 148 -44.5 232.5t-121.5 84.5zM1340 784 q142 0 226 -110t84 -297t-84.5 -296.5t-225.5 -109.5q-144 0 -227.5 109.5t-83.5 296.5q0 188 84 297.5t227 109.5zM1228 1520h136l-840 -1549h-137zM411 1520q143 0 227.5 -109.5t84.5 -296.5q0 -189 -84.5 -298t-227.5 -109t-226 109.5t-83 297.5q0 186 83.5 296 t225.5 110z" />
<glyph unicode="&#x26;" horiz-adv-x="1640" d="M995 231l-523 613q-79 -78 -118 -168.5t-39 -192.5q0 -166 103.5 -278.5t258.5 -112.5q92 0 173.5 35.5t144.5 103.5zM1553 0h-361l-123 145q-94 -88 -201.5 -131t-231.5 -43q-232 0 -368 132t-136 358q0 133 69 248.5t209 216.5q-46 61 -68 121.5t-22 126.5 q0 159 103 252.5t281 93.5q60 0 140.5 -17t184.5 -51v-258h-102q-13 107 -70.5 163t-156.5 56q-92 0 -150 -56.5t-58 -146.5q0 -61 31 -121.5t128 -173.5l464 -544q62 80 97.5 172.5t44.5 197.5h-162v107h426v-107h-155q-15 -130 -59.5 -243t-119.5 -209l155 -183h211v-106z " />
<glyph unicode="'" horiz-adv-x="506" d="M324 1493v-555h-143v555h143z" />
<glyph unicode="(" horiz-adv-x="719" d="M588 -319q-219 109 -330.5 345.5t-111.5 591.5q0 356 111.5 592.5t330.5 345.5v-98q-139 -106 -199.5 -298.5t-60.5 -541.5q0 -348 60.5 -540.5t199.5 -298.5v-98z" />
<glyph unicode=")" horiz-adv-x="719" d="M130 -319v98q139 106 200 298.5t61 540.5q0 349 -61 541.5t-200 298.5v98q220 -109 331.5 -345.5t111.5 -592.5q0 -355 -111.5 -591.5t-331.5 -345.5z" />
<glyph unicode="*" horiz-adv-x="921" d="M892 1237l-352 -182l352 -185l-68 -118l-314 217l12 -381h-122l11 381l-313 -217l-68 118l352 183l-352 184l68 119l313 -217l-11 381h122l-12 -381l314 217z" />
<glyph unicode="+" d="M844 1284v-561h505v-162h-505v-561h-144v561h-505v162h505v561h144z" />
<glyph unicode="," horiz-adv-x="585" d="M67 -199q84 69 123.5 162.5t39.5 226.5v37h178q-8 -171 -73 -293.5t-196 -212.5z" />
<glyph unicode="-" horiz-adv-x="622" d="M81 627h461v-156h-461v156z" />
<glyph unicode="." horiz-adv-x="585" d="M174 104q0 56 34 95t85 39q50 0 85 -39t35 -95q0 -55 -35 -94t-85 -39q-51 0 -85 38.5t-34 94.5z" />
<glyph unicode="/" horiz-adv-x="621" d="M477 1493h144l-477 -1683h-144z" />
<glyph unicode="0" horiz-adv-x="1172" d="M586 70q138 0 206 168t68 507q0 340 -68 508t-206 168t-206.5 -168t-68.5 -508q0 -339 68.5 -507t206.5 -168zM586 -29q-219 0 -341.5 204t-122.5 570q0 367 122.5 571t341.5 204q220 0 342 -204t122 -571q0 -366 -122 -570t-342 -204z" />
<glyph unicode="1" horiz-adv-x="1172" d="M262 0v106h234v1242l-271 -195v131l328 236h124v-1414h234v-106h-649z" />
<glyph unicode="2" horiz-adv-x="1172" d="M236 1137h-101v266q96 57 194 87t191 30q210 0 331.5 -113t121.5 -307q0 -219 -275 -524q-22 -23 -33 -35l-339 -377h560v184h106v-348h-867v109l408 452q135 150 192.5 275.5t57.5 263.5q0 151 -70.5 236t-194.5 85q-129 0 -199.5 -71t-82.5 -213z" />
<glyph unicode="3" horiz-adv-x="1172" d="M179 1430q105 44 202 67t181 23q198 0 308.5 -94.5t110.5 -262.5q0 -135 -76.5 -225.5t-216.5 -122.5q165 -26 256.5 -133.5t91.5 -278.5q0 -209 -126.5 -320.5t-364.5 -111.5q-105 0 -205.5 25t-199.5 76v290h101q9 -144 87.5 -218t220.5 -74q138 0 217.5 88.5 t79.5 242.5q0 176 -82 266.5t-240 90.5h-86v102h45q158 0 236.5 72.5t78.5 218.5q0 131 -64.5 200.5t-186.5 69.5q-121 0 -188 -64t-79 -190h-101v263z" />
<glyph unicode="4" horiz-adv-x="1172" d="M644 506v794l-460 -794h460zM1040 0h-612v106h216v293h-587v109l588 1012h179v-1014h256v-107h-256v-293h216v-106z" />
<glyph unicode="5" horiz-adv-x="1172" d="M927 1493v-164h-616v-428q47 36 109.5 54t140.5 18q217 0 343 -134t126 -366q0 -237 -127 -369.5t-358 -132.5q-92 0 -189.5 25t-198.5 76v290h101q8 -142 81.5 -217t205.5 -75q143 0 219.5 104t76.5 299q0 194 -76.5 297.5t-219.5 103.5q-81 0 -142.5 -32t-109.5 -99 h-77v750h711z" />
<glyph unicode="6" horiz-adv-x="1172" d="M603 70q127 0 195.5 103.5t68.5 297.5t-68.5 297.5t-195.5 103.5q-129 0 -196.5 -100t-67.5 -289q0 -199 68.5 -306t195.5 -107zM310 822q61 75 138.5 112t174.5 37q201 0 317.5 -134t116.5 -366q0 -227 -125.5 -363.5t-335.5 -136.5q-228 0 -350.5 188.5t-122.5 538.5 q0 392 145 607t409 215q71 0 149 -15t160 -45v-246h-101q-11 101 -69.5 154t-157.5 53q-175 0 -260.5 -147t-87.5 -452z" />
<glyph unicode="7" horiz-adv-x="1172" d="M1040 1391l-526 -1391h-134l501 1329h-621v-184h-105v348h885v-102z" />
<glyph unicode="8" horiz-adv-x="1172" d="M859 408q0 160 -71.5 248.5t-201.5 88.5t-201.5 -88.5t-71.5 -248.5q0 -161 71.5 -249.5t201.5 -88.5t201.5 88.5t71.5 249.5zM822 1133q0 136 -62 212t-174 76q-111 0 -173.5 -76t-62.5 -212q0 -137 62.5 -213t173.5 -76q112 0 174 76t62 213zM724 795 q154 -23 239 -125.5t85 -261.5q0 -210 -119.5 -323.5t-342.5 -113.5q-222 0 -342.5 113.5t-120.5 323.5q0 159 85.5 261.5t239.5 125.5q-136 27 -208.5 114.5t-72.5 223.5q0 180 112 283.5t307 103.5t306.5 -103.5t111.5 -283.5q0 -136 -72 -223.5t-208 -114.5z" />
<glyph unicode="9" horiz-adv-x="1172" d="M862 669q-60 -75 -138.5 -112t-176.5 -37q-200 0 -315.5 134t-115.5 366q0 227 125.5 363.5t335.5 136.5q228 0 349.5 -188.5t121.5 -538.5q0 -392 -144.5 -607t-407.5 -215q-71 0 -149.5 15t-160.5 45v248h101q12 -101 70.5 -155t156.5 -54q174 0 260 146.5t88 452.5z M570 1421q-128 0 -196 -103.5t-68 -297.5t68 -298t196 -104t195.5 100.5t67.5 289.5q0 199 -68 306t-195 107z" />
<glyph unicode=":" horiz-adv-x="621" d="M192 104q0 56 34.5 95t84.5 39q51 0 85.5 -39t34.5 -95t-34 -94.5t-86 -38.5q-51 0 -85 38.5t-34 94.5zM192 756q0 56 34.5 94.5t84.5 38.5q52 0 86 -38t34 -95t-34 -95t-86 -38q-50 0 -84.5 38.5t-34.5 94.5z" />
<glyph unicode=";" horiz-adv-x="621" d="M67 -199q84 69 123.5 162.5t39.5 226.5v37h178q-8 -171 -73 -293.5t-196 -212.5zM195 756q0 56 35 94.5t85 38.5t85 -39t35 -94q0 -56 -35 -94.5t-85 -38.5t-85 38.5t-35 94.5z" />
<glyph unicode="&#x3c;" d="M1349 1020l-934 -379l934 -377v-170l-1154 465v166l1154 465v-170z" />
<glyph unicode="=" d="M195 926h1154v-160h-1154v160zM195 518h1154v-160h-1154v160z" />
<glyph unicode="&#x3e;" d="M195 1020v170l1154 -465v-166l-1154 -465v170l935 377z" />
<glyph unicode="?" horiz-adv-x="988" d="M324 104q0 56 34.5 95t86.5 39q49 0 84 -39t35 -95q0 -55 -35 -94t-84 -39q-52 0 -86.5 38.5t-34.5 94.5zM125 1427q95 47 181 70t162 23q200 0 315.5 -107t115.5 -289q0 -186 -99.5 -304t-299.5 -169v-254h-111v328q159 43 239.5 144t80.5 257q0 137 -65.5 216 t-179.5 79q-102 0 -167.5 -65.5t-84.5 -188.5h-87v260z" />
<glyph unicode="@" horiz-adv-x="1843" d="M1165 248q-53 -82 -119.5 -122t-149.5 -40q-158 0 -256 125t-98 326t98 325.5t256 124.5q83 0 149.5 -40t119.5 -122v142h140v-772q153 37 237.5 162t84.5 313q0 111 -30.5 210t-90.5 183q-96 133 -233 203.5t-298 70.5q-81 0 -160.5 -19t-156.5 -58 q-182 -93 -283 -281.5t-101 -435.5q0 -167 45 -307.5t131 -243.5q98 -119 232.5 -181.5t290.5 -62.5q116 0 217 38t187 114l48 -70q-97 -93 -220.5 -139.5t-270.5 -46.5q-164 0 -314 66.5t-263 189.5q-116 127 -175.5 290.5t-59.5 352.5q0 184 60 347t175 290 q115 126 270 194t330 68q192 0 351 -83t266 -239q68 -98 103.5 -213t35.5 -239q0 -268 -147 -423.5t-400 -158.5zM1165 485v105q0 125 -64.5 202.5t-168.5 77.5q-108 0 -169 -87.5t-61 -245.5q0 -159 61 -246.5t171 -87.5q103 0 167 78.5t64 203.5z" />
<glyph unicode="A" horiz-adv-x="1331" d="M369 541h493l-246 710zM-11 0v106h118l479 1387h151l480 -1387h132v-106h-489v106h150l-113 328h-565l-112 -328h147v-106h-378z" />
<glyph unicode="B" horiz-adv-x="1354" d="M455 106h269q162 0 237 78t75 248q0 169 -74.5 246.5t-237.5 77.5h-269v-650zM455 862h229q148 0 216 63t68 199q0 137 -68 199.5t-216 62.5h-229v-524zM102 0v106h171v1280h-171v107h663q203 0 306 -92.5t103 -276.5q0 -133 -71.5 -212t-208.5 -97q171 -24 259.5 -121.5 t88.5 -261.5q0 -222 -126 -327t-393 -105h-621z" />
<glyph unicode="C" horiz-adv-x="1410" d="M1300 395q-60 -209 -200 -316.5t-354 -107.5q-131 0 -243.5 50t-200.5 147q-100 112 -149 254.5t-49 322.5q0 348 180.5 561.5t476.5 213.5q110 0 234.5 -32t267.5 -97v-344h-102q-33 188 -133.5 277t-281.5 89q-215 0 -325.5 -169.5t-110.5 -498.5q0 -328 110.5 -497.5 t325.5 -169.5q150 0 247.5 79.5t140.5 237.5h166z" />
<glyph unicode="D" horiz-adv-x="1477" d="M455 106h168q262 0 402 166t140 476t-139.5 474t-402.5 164h-168v-1280zM102 0v106h171v1280h-171v107h534q348 0 542 -197t194 -548q0 -352 -194.5 -550t-541.5 -198h-534z" />
<glyph unicode="E" horiz-adv-x="1345" d="M102 0v106h171v1280h-171v107h1082v-332h-111v209h-618v-500h441v187h110v-496h-110v187h-441v-625h632v209h111v-332h-1096z" />
<glyph unicode="F" horiz-adv-x="1278" d="M102 0v106h171v1280h-171v107h1100v-332h-111v209h-636v-500h459v187h111v-496h-111v187h-459v-642h215v-106h-568z" />
<glyph unicode="G" horiz-adv-x="1472" d="M1180 1047q-32 187 -131.5 276.5t-278.5 89.5q-232 0 -346 -166t-114 -502q0 -329 117.5 -498t346.5 -169q102 0 194.5 28t176.5 84v385h-253v107h436v-557q-120 -77 -258 -115.5t-296 -38.5q-304 0 -487 211.5t-183 562.5q0 354 183.5 564.5t493.5 210.5 q115 0 238 -29.5t262 -89.5v-354h-101z" />
<glyph unicode="H" horiz-adv-x="1607" d="M102 0v106h171v1280h-171v107h524v-107h-171v-516h697v516h-171v107h525v-107h-171v-1280h171v-106h-525v106h171v642h-697v-642h171v-106h-524z" />
<glyph unicode="I" horiz-adv-x="728" d="M455 106h171v-106h-524v106h171v1280h-171v107h524v-107h-171v-1280z" />
<glyph unicode="J" horiz-adv-x="738" d="M-155 -358v235h103q2 -99 42 -147.5t119 -48.5q107 0 149.5 75t42.5 293v1337h-209v107h562v-107h-171v-1345q0 -247 -89 -357t-287 -110q-64 0 -130 17t-132 51z" />
<glyph unicode="K" horiz-adv-x="1377" d="M102 0v106h171v1280h-171v107h524v-107h-171v-565l579 565h-146v107h447v-107h-151l-577 -563l645 -717h153v-106h-312l-638 709v-603h171v-106h-524z" />
<glyph unicode="L" horiz-adv-x="1224" d="M102 0v106h171v1280h-171v107h524v-107h-171v-1263h614v250h111v-373h-1078z" />
<glyph unicode="M" horiz-adv-x="1887" d="M102 0v106h171v1280h-181v107h391l472 -1063l471 1063h368v-107h-179v-1280h171v-106h-525v106h171v1154l-461 -1041h-127l-461 1041v-1154h171v-106h-452z" />
<glyph unicode="N" horiz-adv-x="1612" d="M90 0v106h181v1280h-181v107h345l805 -1178v1071h-180v107h472v-107h-181v-1415h-109l-860 1258v-1123h180v-106h-472z" />
<glyph unicode="O" horiz-adv-x="1511" d="M756 78q220 0 333 168.5t113 498.5q0 331 -113 499.5t-333 168.5q-221 0 -333.5 -168.5t-112.5 -499.5q0 -330 112.5 -498.5t333.5 -168.5zM756 -29q-137 0 -251.5 50t-202.5 147q-100 112 -149 254t-49 323t49 323.5t149 254.5q89 98 202 147.5t252 49.5q292 0 472 -213 t180 -562q0 -179 -49 -322.5t-150 -254.5q-89 -98 -202 -147.5t-251 -49.5z" />
<glyph unicode="P" horiz-adv-x="1240" d="M455 760h238q134 0 204.5 80.5t70.5 232.5q0 153 -70.5 233t-204.5 80h-238v-626zM102 0v106h171v1280h-171v107h635q202 0 319.5 -113.5t117.5 -306.5q0 -192 -117.5 -306t-319.5 -114h-282v-547h208v-106h-561z" />
<glyph unicode="Q" horiz-adv-x="1511" d="M778 -29q-309 0 -491.5 210.5t-182.5 563.5q0 181 49 323.5t149 254.5q89 98 202 147.5t252 49.5q292 0 472 -213t180 -562q0 -296 -135 -497.5t-372 -259.5q49 -67 118.5 -99t167.5 -32h28v-185q-152 8 -260.5 82.5t-176.5 216.5zM756 78q220 0 333 168.5t113 498.5 q0 331 -113 499.5t-333 168.5q-221 0 -333.5 -168.5t-112.5 -499.5q0 -330 112.5 -498.5t333.5 -168.5z" />
<glyph unicode="R" horiz-adv-x="1387" d="M883 741q63 -19 108.5 -64.5t81.5 -127.5l195 -443h164v-106h-317l-210 475q-60 138 -110.5 178.5t-138.5 40.5h-201v-588h190v-106h-543v106h171v1280h-171v107h681q196 0 302.5 -104t106.5 -295q0 -154 -77.5 -242.5t-231.5 -110.5zM455 801h266q136 0 200.5 71.5 t64.5 221.5t-64.5 221t-200.5 71h-266v-585z" />
<glyph unicode="S" horiz-adv-x="1262" d="M171 72v340l103 -1q5 -170 89 -251.5t256 -81.5q160 0 244.5 70.5t84.5 205.5q0 108 -51 166t-215 113l-177 59q-193 65 -271.5 162t-78.5 266q0 190 121.5 295t340.5 105q94 0 205.5 -22.5t237.5 -65.5v-318h-102q-15 158 -94.5 228.5t-242.5 70.5q-142 0 -216.5 -64.5 t-74.5 -187.5q0 -107 56 -168t237 -121l166 -55q183 -61 261 -155.5t78 -253.5q0 -217 -125 -327t-373 -110q-111 0 -225.5 25t-233.5 76z" />
<glyph unicode="T" horiz-adv-x="1229" d="M352 0v106h172v1268h-395v-233h-111v352h1193v-352h-110v233h-395v-1268h172v-106h-526z" />
<glyph unicode="U" horiz-adv-x="1553" d="M258 1386h-172v107h526v-107h-172v-772q0 -286 84 -399t290 -113q207 0 291 113t84 399v772h-172v107h454v-107h-171v-792q0 -341 -118 -482t-401 -141q-282 0 -402.5 142t-120.5 481v792z" />
<glyph unicode="V" horiz-adv-x="1331" d="M322 1386l397 -1146l396 1146h-151v107h394v-107h-130l-480 -1386h-155l-477 1386h-134v107h490v-107h-150z" />
<glyph unicode="W" horiz-adv-x="1894" d="M1405 0h-148l-307 1214l-308 -1214h-148l-352 1386h-133v107h491v-107h-168l280 -1103l306 1210h146l311 -1223l282 1116h-155v107h387v-107h-132z" />
<glyph unicode="X" horiz-adv-x="1312" d="M610 639l-328 -533h173v-106h-444v106h155l387 627l-393 653h-144v107h533v-107h-158l288 -481l296 481h-173v107h440v-107h-151l-356 -575l424 -705h144v-106h-533v106h161z" />
<glyph unicode="Y" horiz-adv-x="1216" d="M348 0v106h172v537l-415 743h-126v107h500v-107h-157l336 -604l336 604h-152v107h391v-107h-127l-404 -724v-556h172v-106h-526z" />
<glyph unicode="Z" horiz-adv-x="1280" d="M83 0v72l837 1298h-695v-223h-111v346h1062v-72l-837 -1298h760v209h110v-332h-1126z" />
<glyph unicode="[" horiz-adv-x="719" d="M158 1556h419v-106h-247v-1614h247v-106h-419v1826z" />
<glyph unicode="\" horiz-adv-x="621" d="M144 1493l477 -1683h-144l-477 1683h144z" />
<glyph unicode="]" horiz-adv-x="719" d="M561 1556v-1826h-419v106h247v1614h-247v106h419z" />
<glyph unicode="^" d="M860 1493l489 -557h-138l-439 381l-438 -381h-139l489 557h176z" />
<glyph unicode="_" horiz-adv-x="921" d="M922 -403v-80h-922v80h922z" />
<glyph unicode="`" horiz-adv-x="921" d="M330 1636l234 -376h-105l-306 376h177z" />
<glyph unicode="a" horiz-adv-x="1098" d="M734 334v225h-214q-123 0 -183.5 -59t-60.5 -181q0 -111 61.5 -176t165.5 -65t167.5 71t63.5 185zM899 664v-558h148v-106h-313v115q-55 -74 -127 -109t-169 -35q-159 0 -252.5 94t-93.5 254q0 165 107 256t302 91h233v73q0 121 -66.5 187.5t-185.5 66.5q-100 0 -158 -50 t-73 -148h-85v215q86 41 167.5 61.5t158.5 20.5q199 0 303 -109.5t104 -318.5z" />
<glyph unicode="b" horiz-adv-x="1179" d="M212 106v1344h-159v106h325v-659q49 100 124 147.5t186 47.5q176 0 287.5 -155t111.5 -405t-111.5 -405.5t-287.5 -155.5q-111 0 -186 47.5t-124 147.5v-166h-325v106h159zM378 479q0 -192 66 -292.5t192 -100.5q127 0 192.5 113t65.5 333q0 221 -65.5 333t-192.5 112 q-126 0 -192 -101t-66 -292v-105z" />
<glyph unicode="c" horiz-adv-x="1032" d="M948 319q-35 -170 -135 -259t-259 -89q-208 0 -335 153.5t-127 407.5q0 255 127 407.5t335 152.5q91 0 181 -23.5t181 -71.5v-272h-96q-19 140 -82.5 204t-181.5 64q-134 0 -202.5 -115.5t-68.5 -345.5t68 -346t203 -116q107 0 171 62t87 187h134z" />
<glyph unicode="d" horiz-adv-x="1179" d="M968 106h158v-106h-324v166q-49 -100 -124 -147.5t-186 -47.5q-176 0 -288 155.5t-112 405.5t111.5 405t288.5 155q111 0 186 -47.5t124 -147.5v553h-157v106h323v-1450zM802 479v105q0 191 -66 292t-192 101q-128 0 -193.5 -112t-65.5 -333q0 -220 65.5 -333t193.5 -113 q126 0 192 100.5t66 292.5z" />
<glyph unicode="e" horiz-adv-x="1090" d="M999 512h-714v-8q0 -215 73 -324.5t215 -109.5q109 0 179 63.5t98 188.5h133q-40 -175 -146.5 -263t-280.5 -88q-210 0 -337 153.5t-127 407.5q0 252 125 406t328 154q217 0 333 -148.5t121 -431.5zM804 618q-6 186 -71 280.5t-188 94.5q-114 0 -179.5 -95t-80.5 -280 h519z" />
<glyph unicode="f" horiz-adv-x="682" d="M793 1305h-87q-1 75 -38.5 114t-108.5 39q-93 0 -130.5 -56.5t-37.5 -201.5v-137h267v-107h-267v-850h212v-106h-536v106h158v850h-158v107h158v133q0 178 83.5 269t244.5 91q60 0 120.5 -12t119.5 -37v-202z" />
<glyph unicode="g" horiz-adv-x="1179" d="M968 956v-933q0 -229 -113.5 -353.5t-323.5 -124.5q-95 0 -181 19t-166 57v223h87q16 -104 76.5 -152t172.5 -48q146 0 214 91.5t68 287.5v143q-49 -100 -124 -147.5t-186 -47.5q-176 0 -288 155.5t-112 405.5t111.5 405t288.5 155q111 0 186 -47.5t124 -147.5v166h324 v-107h-158zM802 584q0 191 -66 292t-192 101q-128 0 -193.5 -112t-65.5 -333q0 -220 65.5 -333t193.5 -113q126 0 192 100.5t66 292.5v105z" />
<glyph unicode="h" horiz-adv-x="1187" d="M76 0v106h149v1344h-158v106h324v-682q45 108 118.5 163t170.5 55q159 0 233.5 -101t74.5 -315v-570h148v-106h-457v106h143v512q0 195 -43 266.5t-153 71.5q-115 0 -175 -93t-60 -271v-486h144v-106h-459z" />
<glyph unicode="i" horiz-adv-x="589" d="M179 1393q0 46 30 80t73 34q41 0 71 -34t30 -80q0 -47 -29.5 -80t-71.5 -33q-43 0 -73 33t-30 80zM391 106h156v-106h-480v106h158v850h-158v107h324v-957z" />
<glyph unicode="j" horiz-adv-x="571" d="M184 1393q0 46 30.5 80t72.5 34q41 0 71.5 -34t30.5 -80q0 -47 -29.5 -80t-72.5 -33q-42 0 -72.5 33t-30.5 80zM225 956h-157v107h323v-1167q0 -164 -88 -257.5t-242 -93.5q-65 0 -124 16.5t-114 49.5v219h85q6 -96 44.5 -141t112.5 -45q82 0 121 61.5t39 190.5v1060z " />
<glyph unicode="k" horiz-adv-x="1116" d="M527 0h-464v106h149v1344h-159v106h325v-1013l403 413h-137v107h432v-107h-163l-285 -292l364 -558h138v-106h-472v106h137l-287 437l-130 -135v-302h149v-106z" />
<glyph unicode="l" horiz-adv-x="589" d="M378 106h157v-106h-482v106h159v1344h-159v106h325v-1450z" />
<glyph unicode="m" horiz-adv-x="1747" d="M955 856q48 117 122 176.5t173 59.5q150 0 224 -103.5t74 -312.5v-570h149v-106h-459v106h144v549q0 163 -43 232t-143 69q-111 0 -169 -93t-58 -271v-486h144v-106h-453v106h144v556q0 159 -43.5 226.5t-143.5 67.5q-110 0 -168 -93t-58 -271v-486h144v-106h-459v106 h149v852h-158v105h324v-189q45 106 116.5 162t161.5 56q111 0 186 -61.5t100 -174.5z" />
<glyph unicode="n" horiz-adv-x="1187" d="M76 0v106h149v850h-158v107h324v-189q45 108 118.5 163t170.5 55q159 0 233.5 -101t74.5 -315v-570h148v-106h-457v106h143v512q0 195 -43.5 267.5t-152.5 72.5q-115 0 -175 -93.5t-60 -272.5v-486h144v-106h-459z" />
<glyph unicode="o" horiz-adv-x="1109" d="M554 70q134 0 202 117t68 345t-68 344.5t-202 116.5q-133 0 -201 -116.5t-68 -344.5t68.5 -345t200.5 -117zM554 -29q-208 0 -335 153.5t-127 407.5t126.5 407t335.5 153q210 0 336.5 -153t126.5 -407t-126.5 -407.5t-336.5 -153.5z" />
<glyph unicode="p" horiz-adv-x="1179" d="M378 584v-105q0 -192 66 -292.5t192 -100.5q127 0 192.5 113t65.5 333q0 221 -65.5 333t-192.5 112q-126 0 -192 -101t-66 -292zM212 956h-159v107h325v-166q49 100 124 147.5t186 47.5q176 0 287.5 -155t111.5 -405t-111.5 -405.5t-287.5 -155.5q-111 0 -186 47.5 t-124 147.5v-485h157v-107h-482v107h159v1275z" />
<glyph unicode="q" horiz-adv-x="1179" d="M968 956v-1275h158v-107h-481v107h157v485q-49 -100 -124 -147.5t-186 -47.5q-176 0 -288 155.5t-112 405.5t111.5 405t288.5 155q111 0 186 -47.5t124 -147.5v166h324v-107h-158zM802 584q0 191 -66 292t-192 101q-128 0 -193.5 -112t-65.5 -333q0 -220 65.5 -333 t193.5 -113q126 0 192 100.5t66 292.5v105z" />
<glyph unicode="r" horiz-adv-x="881" d="M881 1065v-266h-95q-5 79 -40 118t-102 39q-123 0 -188 -94t-65 -270v-486h191v-106h-506v106h149v852h-158v105h324v-189q48 111 124.5 164.5t186.5 53.5q40 0 85 -7t94 -20z" />
<glyph unicode="s" horiz-adv-x="945" d="M104 59v248h95q3 -119 66.5 -178t188.5 -59q111 0 169.5 46.5t58.5 135.5q0 70 -42.5 113t-180.5 92l-120 45q-123 44 -178.5 110t-55.5 168q0 146 96.5 229t266.5 83q76 0 159.5 -22t172.5 -64v-232h-95q-4 103 -65 161t-167 58q-104 0 -157.5 -41t-53.5 -123 q0 -67 40.5 -107.5t161.5 -82.5l132 -45q136 -47 195.5 -117.5t59.5 -181.5q0 -151 -103.5 -237.5t-286.5 -86.5q-93 0 -181 22t-176 66z" />
<glyph unicode="t" horiz-adv-x="740" d="M199 956h-146v107h146v330h166v-330h312v-107h-312v-675q0 -135 23.5 -173t86.5 -38q65 0 94.5 42.5t31.5 137.5h125q-7 -145 -71 -212t-194 -67q-143 0 -202.5 70.5t-59.5 239.5v675z" />
<glyph unicode="u" horiz-adv-x="1187" d="M652 1063h310v-957h157v-106h-323v188q-45 -106 -118 -161.5t-170 -55.5q-159 0 -234 100.5t-75 315.5v569h-149v107h315v-619q0 -194 43 -266t153 -72q115 0 175 94t60 273v483h-144v107z" />
<glyph unicode="v" horiz-adv-x="1041" d="M455 0l-351 956h-109v107h440v-107h-153l269 -731l269 731h-143v107h359v-107h-107l-352 -956h-122z" />
<glyph unicode="w" horiz-adv-x="1577" d="M885 1063l245 -830l216 723h-139v107h346v-107h-106l-284 -956h-138l-236 795l-236 -795h-133l-283 956h-107v107h433v-107h-155l214 -723l247 830h116z" />
<glyph unicode="x" horiz-adv-x="1039" d="M536 649l201 307h-129v107h368v-107h-126l-257 -393l299 -457h125v-106h-442v106h122l-208 318l-209 -318h124v-106h-364v106h127l264 404l-291 446h-118v107h428v-107h-114z" />
<glyph unicode="y" horiz-adv-x="1041" d="M398 -195l63 177l-357 974h-109v107h440v-107h-153l269 -731l269 731h-143v107h359v-107h-107l-439 -1196q-44 -124 -99 -169.5t-155 -45.5q-42 0 -87 8t-90 23v203h85q5 -68 31 -97.5t80 -29.5q49 0 79 30.5t64 122.5z" />
<glyph unicode="z" horiz-adv-x="971" d="M74 0v86l599 870h-474v-184h-95v291h782v-86l-599 -871h520v193h97v-299h-830z" />
<glyph unicode="{" horiz-adv-x="1172" d="M942 -229v-105h-56q-224 0 -300 74t-76 295v258q0 150 -48.5 208t-176.5 58h-55v105h55q128 0 176.5 58t48.5 208v258q0 221 76 294.5t300 73.5h56v-104h-61q-127 0 -165.5 -44t-38.5 -185v-287q0 -158 -45 -226t-162 -98q119 -34 163 -101t44 -224v-287 q0 -141 38.5 -185t165.5 -44h61z" />
<glyph unicode="|" horiz-adv-x="621" d="M383 1565v-2048h-145v2048h145z" />
<glyph unicode="}" horiz-adv-x="1172" d="M230 -229h63q126 0 164.5 43.5t38.5 185.5v287q0 157 44 224t162 101q-117 30 -161.5 98t-44.5 226v287q0 142 -38.5 185.5t-164.5 43.5h-63v104h57q224 0 299.5 -73.5t75.5 -294.5v-258q0 -150 48.5 -208t175.5 -58h56v-105h-56q-127 0 -175.5 -58t-48.5 -208v-258 q0 -221 -75.5 -295t-299.5 -74h-57v105z" />
<glyph unicode="~" d="M1349 807v-148q-90 -88 -171 -130t-165 -42q-86 0 -243 66l-9 4q-9 4 -29 13q-133 57 -218 57q-83 0 -161 -36.5t-158 -113.5v152q90 87 170.5 127.5t165.5 40.5q86 0 243 -66l9 -4q10 -4 28 -12q130 -58 218 -58q83 0 162 37t158 113z" />
<glyph unicode="&#xa1;" horiz-adv-x="740" d="M251 1389q0 56 34.5 94.5t85.5 38.5q49 0 84 -39t35 -94q0 -56 -35 -95t-84 -39q-51 0 -85.5 39t-34.5 95zM255 0l60 821v252h111v-252l61 -821h-232z" />
<glyph unicode="&#xa2;" horiz-adv-x="1172" d="M566 991q-116 -15 -174 -130t-58 -329q0 -215 58 -330t174 -130v919zM994 319q-32 -154 -116.5 -240.5t-221.5 -105.5v-270h-90v270q-198 19 -312.5 169t-114.5 390q0 242 114.5 391.5t312.5 166.5v266h90v-266q83 -8 158.5 -31t147.5 -62v-272h-95q-17 123 -69 188.5 t-142 77.5v-919q81 12 133.5 75.5t70.5 171.5h134z" />
<glyph unicode="&#xa3;" horiz-adv-x="1172" d="M992 1225h-95q-9 95 -59.5 145.5t-137.5 50.5q-114 0 -168.5 -77.5t-54.5 -241.5v-295h371v-107h-371v-579h430v227h105v-348h-889v106h174v594h-174v107h174v295q0 205 103 311.5t302 106.5q76 0 149 -12.5t141 -37.5v-245z" />
<glyph unicode="&#xa4;" horiz-adv-x="1172" d="M811 985l188 207l85 -94l-188 -209q38 -60 56.5 -121t18.5 -127q0 -69 -18.5 -128t-58.5 -116l186 -207l-86 -94l-187 205q-50 -44 -103.5 -65t-115.5 -21q-58 0 -114 20.5t-111 61.5l-184 -205l-85 94l184 207q-37 62 -55.5 123t-18.5 125q0 70 19 129.5t59 116.5 l-187 207l86 94l186 -207q51 44 105 65t116 21q59 0 114 -20t109 -62zM830 643q0 112 -70 189t-172 77q-101 0 -171.5 -77t-70.5 -189q0 -114 70 -192t172 -78q101 0 171.5 78.5t70.5 191.5z" />
<glyph unicode="&#xa5;" horiz-adv-x="1172" d="M324 0v106h172v367h-364v105h364v65l-74 141h-290v105h237l-258 497h-125v107h497v-107h-157l308 -604l306 604h-151v107h389v-107h-128l-255 -497h245v-105h-299l-64 -122v-84h363v-105h-363v-367h171v-106h-524z" />
<glyph unicode="&#xa6;" horiz-adv-x="621" d="M383 408v-758h-145v758h145zM383 1432v-758h-145v758h145z" />
<glyph unicode="&#xa7;" horiz-adv-x="921" d="M341 936q-61 -46 -86 -87.5t-25 -94.5q0 -132 327 -335l29 -18q52 38 78.5 86t26.5 105q0 75 -62.5 142t-287.5 202zM746 1464v-202h-83q-1 72 -48 113.5t-126 41.5q-90 0 -142 -48.5t-52 -131.5q0 -97 222 -234q23 -15 34 -22q175 -109 231.5 -184t56.5 -174 q0 -95 -47.5 -158t-149.5 -107q70 -47 103 -110t33 -154q0 -131 -92 -210t-248 -79q-81 0 -153 13.5t-141 42.5v209l83 -1q2 -80 50.5 -120.5t144.5 -40.5q94 0 148.5 49t54.5 133q0 113 -206 240q-19 12 -28 18q-195 122 -251.5 197t-56.5 174q0 94 53 160.5t151 97.5 q-74 49 -109.5 112t-35.5 142q0 130 90 209.5t240 79.5q70 0 138.5 -14t135.5 -42z" />
<glyph unicode="&#xa8;" horiz-adv-x="921" d="M285 1569q43 0 74.5 -34.5t31.5 -82.5q0 -51 -30 -84t-76 -33q-45 0 -74.5 33t-29.5 84q0 48 31 82.5t73 34.5zM636 1569q43 0 74 -34.5t31 -82.5q0 -51 -30 -84t-75 -33q-46 0 -75.5 33t-29.5 84q0 48 31 82.5t74 34.5z" />
<glyph unicode="&#xa9;" horiz-adv-x="1843" d="M1238 573q-24 -131 -105.5 -201.5t-209.5 -70.5q-168 0 -268.5 120t-100.5 320q0 201 101.5 322t267.5 121q72 0 142 -18.5t148 -57.5v-213h-75q-16 109 -67 160t-146 51q-107 0 -161.5 -91.5t-54.5 -273.5q0 -181 54 -271.5t160 -90.5q88 0 138.5 47.5t69.5 146.5h107z M922 1485q136 0 254.5 -55t216.5 -164t146.5 -240t48.5 -285q0 -152 -48.5 -282.5t-146.5 -239.5t-216.5 -164t-254.5 -55q-137 0 -255.5 55t-216.5 164t-146.5 239.5t-48.5 282.5q0 154 48.5 285t146.5 240t216.5 164t255.5 55zM922 1382q-118 0 -220 -47t-186 -141 q-84 -93 -127 -207.5t-43 -245.5q0 -130 43 -243t127 -207t186 -141.5t220 -47.5t220.5 47.5t186.5 141.5q84 93 126 206t42 244q0 133 -42.5 246.5t-125.5 206.5q-84 94 -186.5 141t-220.5 47z" />
<glyph unicode="&#xaa;" horiz-adv-x="875" d="M754 1219v-379h72v-84h-205v80q-43 -51 -99.5 -75t-134.5 -24q-127 0 -201 65t-74 177q0 114 86 178t238 64h185v45q0 84 -52 131t-147 47q-78 0 -124 -35t-59 -104h-68v157q69 29 134 43.5t124 14.5q160 0 242.5 -77t82.5 -224zM621 997v148h-169q-95 0 -143.5 -40 t-48.5 -118q0 -81 45.5 -123.5t132.5 -42.5q83 0 133 48.5t50 127.5zM149 639h629v-104h-629v104z" />
<glyph unicode="&#xab;" horiz-adv-x="1127" d="M955 1059v-115l-267 -344l267 -344v-115l-422 418v82zM564 1059v-115l-267 -344l267 -344v-115l-422 418v82z" />
<glyph unicode="&#xac;" d="M195 862h1154v-575h-144v413h-1010v162z" />
<glyph unicode="&#xad;" horiz-adv-x="622" d="M81 627h461v-156h-461v156z" />
<glyph unicode="&#xae;" horiz-adv-x="1843" d="M806 791h112q75 0 112 38t37 113q0 74 -37.5 112t-111.5 38h-112v-301zM1027 754q38 -14 64.5 -39.5t44.5 -65.5l104 -229h69v-68h-171l-118 254q-32 70 -60 93.5t-72 23.5h-82v-303h75v-68h-285v68h74v672h-74v67h373q115 0 174 -56t59 -165q0 -83 -43.5 -128.5 t-131.5 -55.5zM922 1382q-118 0 -220 -47t-186 -141q-84 -93 -127 -207.5t-43 -245.5q0 -130 43 -243t127 -207t186 -141.5t220 -47.5t220.5 47.5t186.5 141.5q84 93 126 206t42 244q0 133 -42.5 246.5t-125.5 206.5q-84 94 -186.5 141t-220.5 47zM922 1485q136 0 254.5 -55 t216.5 -164t146.5 -240t48.5 -285q0 -152 -48.5 -282.5t-146.5 -239.5t-216.5 -164t-254.5 -55q-137 0 -255.5 55t-216.5 164t-146.5 239.5t-48.5 282.5q0 154 48.5 285t146.5 240t216.5 164t255.5 55z" />
<glyph unicode="&#xaf;" horiz-adv-x="921" d="M192 1526h538v-148h-538v148z" />
<glyph unicode="&#xb0;" horiz-adv-x="921" d="M461 1382q-69 0 -115.5 -52.5t-46.5 -129.5q0 -76 46.5 -127t115.5 -51q68 0 115 51.5t47 126.5t-48 128.5t-114 53.5zM461 1520q57 0 110.5 -24.5t91.5 -70.5q42 -45 62.5 -102t20.5 -123q0 -132 -83 -223.5t-204 -91.5t-202 90t-81 225q0 134 82.5 227t202.5 93z" />
<glyph unicode="&#xb1;" d="M844 1284v-391h505v-162h-505v-391h-144v391h-505v162h505v391h144zM195 160h1154v-160h-1154v160z" />
<glyph unicode="&#xb2;" horiz-adv-x="738" d="M153 1296h-63v158q59 32 122 49t126 17q124 0 201 -66t77 -170q0 -122 -175 -296l-17 -17l-214 -215h346v108h67v-196h-542v75l257 254q77 77 110.5 138t33.5 127q0 85 -44 134.5t-119 49.5q-71 0 -113 -38t-53 -112z" />
<glyph unicode="&#xb3;" horiz-adv-x="738" d="M112 1468q66 26 126.5 39t113.5 13q124 0 191 -54t67 -153q0 -72 -47.5 -122t-133.5 -67q107 -16 161.5 -75.5t54.5 -159.5q0 -114 -78.5 -175t-225.5 -61q-65 0 -127.5 14t-123.5 42v170l63 -1q5 -74 49 -112.5t126 -38.5q85 0 131 44t46 126q0 93 -46 140.5t-137 47.5 h-48v74h25q87 0 131.5 37t44.5 111q0 67 -36.5 103t-104.5 36q-74 0 -113 -32t-45 -97h-64v151z" />
<glyph unicode="&#xb4;" horiz-adv-x="921" d="M586 1638h179l-306 -376h-105z" />
<glyph unicode="&#xb5;" horiz-adv-x="1197" d="M665 1063h310v-959h156v-104h-322v188q-47 -106 -113 -161.5t-147 -55.5q-51 0 -93.5 18t-77.5 54v-362h157v-107h-482v107h159v1275h-149v107h315v-619q0 -194 43 -266t152 -72q115 0 175.5 94t60.5 273v483h-144v107z" />
<glyph unicode="&#xb6;" horiz-adv-x="1172" d="M570 1493h484v-107h-106v-1583h-97v1583h-207v-1583h-97v846q-193 17 -299 127.5t-106 294.5q0 190 117 306t311 116z" />
<glyph unicode="&#xb7;" horiz-adv-x="585" d="M171 711q0 56 34.5 94.5t86.5 38.5q49 0 84 -39t35 -94q0 -56 -35 -94.5t-84 -38.5q-52 0 -86.5 38t-34.5 95z" />
<glyph unicode="&#xb8;" horiz-adv-x="921" d="M520 0q58 -64 86 -120t28 -105q0 -81 -56.5 -125.5t-157.5 -44.5q-38 0 -77.5 6t-80.5 18v131q37 -17 72.5 -25.5t66.5 -8.5q52 0 81.5 26.5t29.5 71.5q0 28 -20 72t-59 104h87z" />
<glyph unicode="&#xb9;" horiz-adv-x="738" d="M158 668v84h155v634l-181 -106v94l216 129h92v-751h156v-84h-438z" />
<glyph unicode="&#xba;" horiz-adv-x="866" d="M433 813q95 0 143.5 79.5t48.5 235.5t-49 236t-143 80t-143 -81t-49 -235q0 -155 48.5 -235t143.5 -80zM433 737q-158 0 -253 107.5t-95 283.5q0 177 95 284.5t253 107.5q157 0 252.5 -107.5t95.5 -284.5t-95 -284t-253 -107zM123 639h619v-104h-619v104z" />
<glyph unicode="&#xbb;" horiz-adv-x="1127" d="M564 1059l422 -418v-82l-422 -418v115l268 344l-268 344v115zM174 1059l422 -418v-82l-422 -418v115l266 344l-266 344v115z" />
<glyph unicode="&#xbc;" horiz-adv-x="1786" d="M132 0zM1453 303v407l-277 -407h277zM1712 0h-391v84h132v137h-358v84l360 530h127v-532h147v-82h-147v-137h130v-84zM158 668v84h155v634l-181 -106v94l216 129h92v-751h156v-84h-438zM1249 1520h135l-847 -1549h-136z" />
<glyph unicode="&#xbd;" horiz-adv-x="1786" d="M132 0zM158 668v84h155v634l-181 -106v94l216 129h92v-751h156v-84h-438zM1249 1520h135l-847 -1549h-136zM1200 628h-63v158q59 32 122 49t126 17q124 0 201 -66t77 -170q0 -122 -175 -296l-17 -17l-214 -215h346v108h67v-196h-542v75l257 254q77 77 110.5 138t33.5 127 q0 85 -44 134.5t-119 49.5q-71 0 -113 -38t-53 -112z" />
<glyph unicode="&#xbe;" horiz-adv-x="1786" d="M90 0zM1453 303v407l-277 -407h277zM1712 0h-391v84h132v137h-358v84l360 530h127v-532h147v-82h-147v-137h130v-84zM112 1468q66 26 126.5 39t113.5 13q124 0 191 -54t67 -153q0 -72 -47.5 -122t-133.5 -67q107 -16 161.5 -75.5t54.5 -159.5q0 -114 -78.5 -175 t-225.5 -61q-65 0 -127.5 14t-123.5 42v170l63 -1q5 -74 49 -112.5t126 -38.5q85 0 131 44t46 126q0 93 -46 140.5t-137 47.5h-48v74h25q87 0 131.5 37t44.5 111q0 67 -36.5 103t-104.5 36q-74 0 -113 -32t-45 -97h-64v151zM1249 1520h135l-847 -1549h-136z" />
<glyph unicode="&#xbf;" horiz-adv-x="988" d="M700 1389q0 -56 -34.5 -95t-85.5 -39q-49 0 -84 39t-35 95q0 55 35 94t84 39q52 0 86 -38.5t34 -94.5zM899 66q-95 -47 -180.5 -70t-162.5 -23q-199 0 -315 107t-116 289q0 186 100 304t301 169v254h110v-328q-159 -43 -240 -144t-81 -257q0 -137 66 -216t180 -79 q101 0 167 65.5t85 188.5h86v-260z" />
<glyph unicode="&#xc0;" horiz-adv-x="1331" d="M0 0zM369 541h493l-246 710zM-11 0v106h118l479 1387h151l480 -1387h132v-106h-489v106h150l-113 328h-565l-112 -328h147v-106h-378zM602 1899l165 -264h-105l-236 264h176z" />
<glyph unicode="&#xc1;" horiz-adv-x="1331" d="M0 0zM369 541h493l-246 710zM-11 0v106h118l479 1387h151l480 -1387h132v-106h-489v106h150l-113 328h-565l-112 -328h147v-106h-378zM722 1899h177l-236 -264h-105z" />
<glyph unicode="&#xc2;" horiz-adv-x="1331" d="M0 0zM369 541h493l-246 710zM-11 0v106h118l479 1387h151l480 -1387h132v-106h-489v106h150l-113 328h-565l-112 -328h147v-106h-378zM586 1899h158l208 -264h-104l-183 161l-183 -161h-104z" />
<glyph unicode="&#xc3;" horiz-adv-x="1331" d="M0 0zM369 541h493l-246 710zM-11 0v106h118l479 1387h151l480 -1387h132v-106h-489v106h150l-113 328h-565l-112 -328h147v-106h-378zM654 1715l-44 28q-18 13 -36.5 20t-33.5 7q-35 0 -58.5 -28.5t-26.5 -74.5l-87 1q2 100 48 159t122 59q33 0 60.5 -9t77.5 -40l44 -26 q21 -13 40.5 -20t35.5 -7q37 0 58 27.5t21 74.5h87q-2 -105 -48 -162t-131 -57q-60 0 -125 45z" />
<glyph unicode="&#xc4;" horiz-adv-x="1331" d="M0 0zM369 541h493l-246 710zM-11 0v106h118l479 1387h151l480 -1387h132v-106h-489v106h150l-113 328h-565l-112 -328h147v-106h-378zM490 1884q43 0 74 -35t31 -81q0 -50 -30 -83.5t-75 -33.5q-44 0 -74.5 33.5t-30.5 83.5q0 46 31 81t74 35zM841 1884q42 0 73 -35 t31 -81q0 -50 -30 -83.5t-74 -33.5q-45 0 -75.5 33.5t-30.5 83.5q0 46 31.5 81t74.5 35z" />
<glyph unicode="&#xc5;" horiz-adv-x="1331" d="M798 1626q0 63 -40 107.5t-96 44.5q-58 0 -97 -43.5t-39 -108.5q0 -63 39 -107t97 -44q56 0 96 44t40 107zM369 541h491l-244 710zM-11 0v106h118l440 1278q-65 37 -98.5 98t-33.5 144q0 114 72 194.5t175 80.5q102 0 174.5 -80.5t72.5 -194.5q0 -80 -35 -143.5 t-100 -98.5l443 -1278h132v-106h-489v106h150l-113 328h-565l-112 -328h147v-106h-378z" />
<glyph unicode="&#xc6;" horiz-adv-x="1845" d="M383 541h441v845h-90zM652 0v106h172v328h-485l-137 -328h148v-106h-382v106h118l531 1280h-193v107h1310v-332h-110v209h-620v-500h443v187h111v-496h-111v187h-443v-625h635v209h111v-332h-1098z" />
<glyph unicode="&#xc7;" horiz-adv-x="1410" d="M104 0zM1300 395q-60 -209 -200 -316.5t-354 -107.5q-131 0 -243.5 50t-200.5 147q-100 112 -149 254.5t-49 322.5q0 348 180.5 561.5t476.5 213.5q110 0 234.5 -32t267.5 -97v-344h-102q-33 188 -133.5 277t-281.5 89q-215 0 -325.5 -169.5t-110.5 -498.5 q0 -328 110.5 -497.5t325.5 -169.5q150 0 247.5 79.5t140.5 237.5h166zM819 0q58 -64 86 -120t28 -105q0 -81 -56.5 -125.5t-157.5 -44.5q-38 0 -77.5 6t-80.5 18v131q37 -17 72.5 -25.5t66.5 -8.5q52 0 81.5 26.5t29.5 71.5q0 28 -20 72t-59 104h87z" />
<glyph unicode="&#xc8;" horiz-adv-x="1345" d="M102 0zM102 0v106h171v1280h-171v107h1082v-332h-111v209h-618v-500h441v187h110v-496h-110v187h-441v-625h632v209h111v-332h-1096zM610 1899l165 -264h-105l-236 264h176z" />
<glyph unicode="&#xc9;" horiz-adv-x="1345" d="M102 0zM102 0v106h171v1280h-171v107h1082v-332h-111v209h-618v-500h441v187h110v-496h-110v187h-441v-625h632v209h111v-332h-1096zM730 1899h177l-236 -264h-105z" />
<glyph unicode="&#xca;" horiz-adv-x="1345" d="M102 0zM102 0v106h171v1280h-171v107h1082v-332h-111v209h-618v-500h441v187h110v-496h-110v187h-441v-625h632v209h111v-332h-1096zM594 1899h158l208 -264h-104l-183 161l-183 -161h-104z" />
<glyph unicode="&#xcb;" horiz-adv-x="1345" d="M102 0zM102 0v106h171v1280h-171v107h1082v-332h-111v209h-618v-500h441v187h110v-496h-110v187h-441v-625h632v209h111v-332h-1096zM498 1884q43 0 74 -35t31 -81q0 -50 -30 -83.5t-75 -33.5q-44 0 -74.5 33.5t-30.5 83.5q0 46 31 81t74 35zM849 1884q42 0 73 -35 t31 -81q0 -50 -30 -83.5t-74 -33.5q-45 0 -75.5 33.5t-30.5 83.5q0 46 31.5 81t74.5 35z" />
<glyph unicode="&#xcc;" horiz-adv-x="728" d="M102 0zM455 106h171v-106h-524v106h171v1280h-171v107h524v-107h-171v-1280zM302 1899l165 -264h-105l-236 264h176z" />
<glyph unicode="&#xcd;" horiz-adv-x="728" d="M102 0zM455 106h171v-106h-524v106h171v1280h-171v107h524v-107h-171v-1280zM422 1899h177l-236 -264h-105z" />
<glyph unicode="&#xce;" horiz-adv-x="728" d="M78 0zM455 106h171v-106h-524v106h171v1280h-171v107h524v-107h-171v-1280zM286 1899h158l208 -264h-104l-183 161l-183 -161h-104z" />
<glyph unicode="&#xcf;" horiz-adv-x="728" d="M85 0zM455 106h171v-106h-524v106h171v1280h-171v107h524v-107h-171v-1280zM190 1884q43 0 74 -35t31 -81q0 -50 -30 -83.5t-75 -33.5q-44 0 -74.5 33.5t-30.5 83.5q0 46 31 81t74 35zM541 1884q42 0 73 -35t31 -81q0 -50 -30 -83.5t-74 -33.5q-45 0 -75.5 33.5 t-30.5 83.5q0 46 31.5 81t74.5 35z" />
<glyph unicode="&#xd0;" horiz-adv-x="1487" d="M463 106h169q262 0 402 166t140 476t-139.5 474t-402.5 164h-169v-542h302v-125h-302v-613zM111 0v106h171v613h-180v125h180v542h-171v107h534q348 0 542 -197t194 -548q0 -352 -194.5 -550t-541.5 -198h-534z" />
<glyph unicode="&#xd1;" horiz-adv-x="1612" d="M90 0zM90 0v106h181v1280h-181v107h345l805 -1178v1071h-180v107h472v-107h-181v-1415h-109l-860 1258v-1123h180v-106h-472zM796 1715l-44 28q-18 13 -36.5 20t-33.5 7q-35 0 -58.5 -28.5t-26.5 -74.5l-87 1q2 100 48 159t122 59q33 0 60.5 -9t77.5 -40l44 -26 q21 -13 40.5 -20t35.5 -7q37 0 58 27.5t21 74.5h87q-2 -105 -48 -162t-131 -57q-60 0 -125 45z" />
<glyph unicode="&#xd2;" horiz-adv-x="1511" d="M104 0zM756 78q220 0 333 168.5t113 498.5q0 331 -113 499.5t-333 168.5q-221 0 -333.5 -168.5t-112.5 -499.5q0 -330 112.5 -498.5t333.5 -168.5zM756 -29q-137 0 -251.5 50t-202.5 147q-100 112 -149 254t-49 323t49 323.5t149 254.5q89 98 202 147.5t252 49.5 q292 0 472 -213t180 -562q0 -179 -49 -322.5t-150 -254.5q-89 -98 -202 -147.5t-251 -49.5zM693 1899l165 -264h-105l-236 264h176z" />
<glyph unicode="&#xd3;" horiz-adv-x="1511" d="M104 0zM756 78q220 0 333 168.5t113 498.5q0 331 -113 499.5t-333 168.5q-221 0 -333.5 -168.5t-112.5 -499.5q0 -330 112.5 -498.5t333.5 -168.5zM756 -29q-137 0 -251.5 50t-202.5 147q-100 112 -149 254t-49 323t49 323.5t149 254.5q89 98 202 147.5t252 49.5 q292 0 472 -213t180 -562q0 -179 -49 -322.5t-150 -254.5q-89 -98 -202 -147.5t-251 -49.5zM813 1899h177l-236 -264h-105z" />
<glyph unicode="&#xd4;" horiz-adv-x="1511" d="M104 0zM756 78q220 0 333 168.5t113 498.5q0 331 -113 499.5t-333 168.5q-221 0 -333.5 -168.5t-112.5 -499.5q0 -330 112.5 -498.5t333.5 -168.5zM756 -29q-137 0 -251.5 50t-202.5 147q-100 112 -149 254t-49 323t49 323.5t149 254.5q89 98 202 147.5t252 49.5 q292 0 472 -213t180 -562q0 -179 -49 -322.5t-150 -254.5q-89 -98 -202 -147.5t-251 -49.5zM677 1899h158l208 -264h-104l-183 161l-183 -161h-104z" />
<glyph unicode="&#xd5;" horiz-adv-x="1511" d="M104 0zM756 78q220 0 333 168.5t113 498.5q0 331 -113 499.5t-333 168.5q-221 0 -333.5 -168.5t-112.5 -499.5q0 -330 112.5 -498.5t333.5 -168.5zM756 -29q-137 0 -251.5 50t-202.5 147q-100 112 -149 254t-49 323t49 323.5t149 254.5q89 98 202 147.5t252 49.5 q292 0 472 -213t180 -562q0 -179 -49 -322.5t-150 -254.5q-89 -98 -202 -147.5t-251 -49.5zM745 1715l-44 28q-18 13 -36.5 20t-33.5 7q-35 0 -58.5 -28.5t-26.5 -74.5l-87 1q2 100 48 159t122 59q33 0 60.5 -9t77.5 -40l44 -26q21 -13 40.5 -20t35.5 -7q37 0 58 27.5 t21 74.5h87q-2 -105 -48 -162t-131 -57q-60 0 -125 45z" />
<glyph unicode="&#xd6;" horiz-adv-x="1511" d="M104 0zM756 78q220 0 333 168.5t113 498.5q0 331 -113 499.5t-333 168.5q-221 0 -333.5 -168.5t-112.5 -499.5q0 -330 112.5 -498.5t333.5 -168.5zM756 -29q-137 0 -251.5 50t-202.5 147q-100 112 -149 254t-49 323t49 323.5t149 254.5q89 98 202 147.5t252 49.5 q292 0 472 -213t180 -562q0 -179 -49 -322.5t-150 -254.5q-89 -98 -202 -147.5t-251 -49.5zM581 1884q43 0 74 -35t31 -81q0 -50 -30 -83.5t-75 -33.5q-44 0 -74.5 33.5t-30.5 83.5q0 46 31 81t74 35zM932 1884q42 0 73 -35t31 -81q0 -50 -30 -83.5t-74 -33.5 q-45 0 -75.5 33.5t-30.5 83.5q0 46 31.5 81t74.5 35z" />
<glyph unicode="&#xd7;" d="M1291 1104l-417 -463l417 -461l-104 -112l-415 460l-415 -460l-102 112l414 461l-414 463l102 113l415 -461l415 461z" />
<glyph unicode="&#xd8;" horiz-adv-x="1511" d="M1093 1239q-59 88 -142 131t-195 43q-221 0 -333.5 -168.5t-112.5 -499.5q0 -119 14 -215.5t45 -177.5zM417 256q57 -89 142 -133.5t197 -44.5q220 0 333 168.5t113 498.5q0 117 -15 215.5t-46 180.5zM1252 1276q78 -108 117 -239.5t39 -291.5q0 -345 -180 -559.5 t-472 -214.5q-127 0 -234 43t-198 129l-164 -200l-70 69l168 207q-78 105 -116 235.5t-38 290.5q0 346 180.5 560.5t471.5 214.5q127 0 235 -42.5t194 -125.5l161 198l72 -71z" />
<glyph unicode="&#xd9;" horiz-adv-x="1553" d="M86 0zM258 1386h-172v107h526v-107h-172v-772q0 -286 84 -399t290 -113q207 0 291 113t84 399v772h-172v107h454v-107h-171v-792q0 -341 -118 -482t-401 -141q-282 0 -402.5 142t-120.5 481v792zM750 1899l165 -264h-105l-236 264h176z" />
<glyph unicode="&#xda;" horiz-adv-x="1553" d="M86 0zM258 1386h-172v107h526v-107h-172v-772q0 -286 84 -399t290 -113q207 0 291 113t84 399v772h-172v107h454v-107h-171v-792q0 -341 -118 -482t-401 -141q-282 0 -402.5 142t-120.5 481v792zM870 1899h177l-236 -264h-105z" />
<glyph unicode="&#xdb;" horiz-adv-x="1553" d="M86 0zM258 1386h-172v107h526v-107h-172v-772q0 -286 84 -399t290 -113q207 0 291 113t84 399v772h-172v107h454v-107h-171v-792q0 -341 -118 -482t-401 -141q-282 0 -402.5 142t-120.5 481v792zM734 1899h158l208 -264h-104l-183 161l-183 -161h-104z" />
<glyph unicode="&#xdc;" horiz-adv-x="1553" d="M86 0zM258 1386h-172v107h526v-107h-172v-772q0 -286 84 -399t290 -113q207 0 291 113t84 399v772h-172v107h454v-107h-171v-792q0 -341 -118 -482t-401 -141q-282 0 -402.5 142t-120.5 481v792zM638 1884q43 0 74 -35t31 -81q0 -50 -30 -83.5t-75 -33.5 q-44 0 -74.5 33.5t-30.5 83.5q0 46 31 81t74 35zM989 1884q42 0 73 -35t31 -81q0 -50 -30 -83.5t-74 -33.5q-45 0 -75.5 33.5t-30.5 83.5q0 46 31.5 81t74.5 35z" />
<glyph unicode="&#xdd;" horiz-adv-x="1216" d="M0 0zM348 0v106h172v537l-415 743h-126v107h500v-107h-157l336 -604l336 604h-152v107h391v-107h-127l-404 -724v-556h172v-106h-526zM665 1899h177l-236 -264h-105z" />
<glyph unicode="&#xde;" horiz-adv-x="1245" d="M455 434h238q134 0 204.5 80.5t70.5 233.5q0 152 -70.5 232.5t-204.5 80.5h-238v-627zM102 0v106h171v1280h-171v107h561v-107h-208v-219h282q202 0 319.5 -113.5t117.5 -305.5q0 -194 -118 -308t-319 -114h-282v-220h208v-106h-561z" />
<glyph unicode="&#xdf;" horiz-adv-x="1231" d="M846 1210q-7 119 -69.5 183.5t-169.5 64.5q-119 0 -174 -64.5t-55 -203.5v-1190h-325v106h159v1080q0 176 103 273t292 97q191 0 291.5 -104t111.5 -315h-20q-130 0 -205.5 -54t-75.5 -147q0 -52 24.5 -90.5t90.5 -85.5l80 -55q139 -99 192.5 -184t53.5 -199 q0 -155 -104 -253t-270 -98q-77 0 -152.5 18.5t-146.5 53.5v233h98q4 -101 54 -153.5t141 -52.5q100 0 157.5 60.5t57.5 164.5q0 84 -36 142.5t-142 131.5l-77 54q-94 65 -134 129.5t-40 146.5q0 122 76 204t214 107z" />
<glyph unicode="&#xe0;" horiz-adv-x="1098" d="M92 0zM734 334v225h-214q-123 0 -183.5 -59t-60.5 -181q0 -111 61.5 -176t165.5 -65t167.5 71t63.5 185zM899 664v-558h148v-106h-313v115q-55 -74 -127 -109t-169 -35q-159 0 -252.5 94t-93.5 254q0 165 107 256t302 91h233v73q0 121 -66.5 187.5t-185.5 66.5 q-100 0 -158 -50t-73 -148h-85v215q86 41 167.5 61.5t158.5 20.5q199 0 303 -109.5t104 -318.5zM381 1636l234 -376h-105l-306 376h177z" />
<glyph unicode="&#xe1;" horiz-adv-x="1098" d="M92 0zM734 334v225h-214q-123 0 -183.5 -59t-60.5 -181q0 -111 61.5 -176t165.5 -65t167.5 71t63.5 185zM899 664v-558h148v-106h-313v115q-55 -74 -127 -109t-169 -35q-159 0 -252.5 94t-93.5 254q0 165 107 256t302 91h233v73q0 121 -66.5 187.5t-185.5 66.5 q-100 0 -158 -50t-73 -148h-85v215q86 41 167.5 61.5t158.5 20.5q199 0 303 -109.5t104 -318.5zM637 1638h179l-306 -376h-105z" />
<glyph unicode="&#xe2;" horiz-adv-x="1098" d="M92 0zM734 334v225h-214q-123 0 -183.5 -59t-60.5 -181q0 -111 61.5 -176t165.5 -65t167.5 71t63.5 185zM899 664v-558h148v-106h-313v115q-55 -74 -127 -109t-169 -35q-159 0 -252.5 94t-93.5 254q0 165 107 256t302 91h233v73q0 121 -66.5 187.5t-185.5 66.5 q-100 0 -158 -50t-73 -148h-85v215q86 41 167.5 61.5t158.5 20.5q199 0 303 -109.5t104 -318.5zM436 1638h151l212 -376h-104l-183 260l-183 -260h-104z" />
<glyph unicode="&#xe3;" horiz-adv-x="1098" d="M92 0zM734 334v225h-214q-123 0 -183.5 -59t-60.5 -181q0 -111 61.5 -176t165.5 -65t167.5 71t63.5 185zM899 664v-558h148v-106h-313v115q-55 -74 -127 -109t-169 -35q-159 0 -252.5 94t-93.5 254q0 165 107 256t302 91h233v73q0 121 -66.5 187.5t-185.5 66.5 q-100 0 -158 -50t-73 -148h-85v215q86 41 167.5 61.5t158.5 20.5q199 0 303 -109.5t104 -318.5zM508 1370l-51 55q-24 24 -38.5 31.5t-31.5 7.5q-38 0 -59.5 -39.5t-26.5 -115.5h-86q2 135 47.5 208.5t127.5 73.5q35 0 63.5 -14t61.5 -47l52 -55q20 -23 35.5 -31t34.5 -8 q39 0 60.5 40t24.5 115h87q-2 -135 -48 -208.5t-128 -73.5q-34 0 -63 14t-62 47z" />
<glyph unicode="&#xe4;" horiz-adv-x="1098" d="M92 0zM734 334v225h-214q-123 0 -183.5 -59t-60.5 -181q0 -111 61.5 -176t165.5 -65t167.5 71t63.5 185zM899 664v-558h148v-106h-313v115q-55 -74 -127 -109t-169 -35q-159 0 -252.5 94t-93.5 254q0 165 107 256t302 91h233v73q0 121 -66.5 187.5t-185.5 66.5 q-100 0 -158 -50t-73 -148h-85v215q86 41 167.5 61.5t158.5 20.5q199 0 303 -109.5t104 -318.5zM336 1569q43 0 74.5 -34.5t31.5 -82.5q0 -51 -30 -84t-76 -33q-45 0 -74.5 33t-29.5 84q0 48 31 82.5t73 34.5zM687 1569q43 0 74 -34.5t31 -82.5q0 -51 -30 -84t-75 -33 q-46 0 -75.5 33t-29.5 84q0 48 31 82.5t74 34.5z" />
<glyph unicode="&#xe5;" horiz-adv-x="1098" d="M92 0zM734 334v225h-214q-123 0 -183.5 -59t-60.5 -181q0 -111 61.5 -176t165.5 -65t167.5 71t63.5 185zM899 664v-558h148v-106h-313v115q-55 -74 -127 -109t-169 -35q-159 0 -252.5 94t-93.5 254q0 165 107 256t302 91h233v73q0 121 -66.5 187.5t-185.5 66.5 q-100 0 -158 -50t-73 -148h-85v215q86 41 167.5 61.5t158.5 20.5q199 0 303 -109.5t104 -318.5zM758 1524q0 -115 -71.5 -195t-174.5 -80q-104 0 -175.5 80t-71.5 195t71.5 194.5t175.5 79.5q103 0 174.5 -79.5t71.5 -194.5zM649 1524q0 63 -40 107t-97 44q-59 0 -98 -43.5 t-39 -107.5q0 -65 39 -108.5t98 -43.5q57 0 97 44t40 108z" />
<glyph unicode="&#xe6;" horiz-adv-x="1732" d="M734 334v225h-214q-123 0 -183.5 -59t-60.5 -181q0 -111 61.5 -176t165.5 -65t167.5 71t63.5 185zM832 150q-75 -91 -166 -135t-203 -44q-178 0 -274.5 91t-96.5 257q0 165 107.5 256t301.5 91h233v73q0 120 -65 187t-180 67q-105 0 -164 -49.5t-74 -148.5h-85v215 q86 41 167.5 61.5t158.5 20.5q127 0 214 -43.5t136 -133.5q67 88 153.5 132.5t191.5 44.5q217 0 333 -149t120 -431h-713v-8q0 -215 72.5 -324.5t215.5 -109.5q109 0 178.5 63.5t97.5 188.5h133q-39 -175 -146 -263t-280 -88q-110 0 -203 45.5t-163 133.5zM1445 618 q-5 186 -70 280.5t-188 94.5q-114 0 -180.5 -95t-79.5 -280h518z" />
<glyph unicode="&#xe7;" horiz-adv-x="1032" d="M92 0zM948 319q-35 -170 -135 -259t-259 -89q-208 0 -335 153.5t-127 407.5q0 255 127 407.5t335 152.5q91 0 181 -23.5t181 -71.5v-272h-96q-19 140 -82.5 204t-181.5 64q-134 0 -202.5 -115.5t-68.5 -345.5t68 -346t203 -116q107 0 171 62t87 187h134zM610 0 q58 -64 86 -120t28 -105q0 -81 -56.5 -125.5t-157.5 -44.5q-38 0 -77.5 6t-80.5 18v131q37 -17 72.5 -25.5t66.5 -8.5q52 0 81.5 26.5t29.5 71.5q0 28 -20 72t-59 104h87z" />
<glyph unicode="&#xe8;" horiz-adv-x="1090" d="M92 0zM999 512h-714v-8q0 -215 73 -324.5t215 -109.5q109 0 179 63.5t98 188.5h133q-40 -175 -146.5 -263t-280.5 -88q-210 0 -337 153.5t-127 407.5q0 252 125 406t328 154q217 0 333 -148.5t121 -431.5zM804 618q-6 186 -71 280.5t-188 94.5q-114 0 -179.5 -95 t-80.5 -280h519zM415 1636l234 -376h-105l-306 376h177z" />
<glyph unicode="&#xe9;" horiz-adv-x="1090" d="M92 0zM999 512h-714v-8q0 -215 73 -324.5t215 -109.5q109 0 179 63.5t98 188.5h133q-40 -175 -146.5 -263t-280.5 -88q-210 0 -337 153.5t-127 407.5q0 252 125 406t328 154q217 0 333 -148.5t121 -431.5zM804 618q-6 186 -71 280.5t-188 94.5q-114 0 -179.5 -95 t-80.5 -280h519zM671 1638h179l-306 -376h-105z" />
<glyph unicode="&#xea;" horiz-adv-x="1090" d="M92 0zM999 512h-714v-8q0 -215 73 -324.5t215 -109.5q109 0 179 63.5t98 188.5h133q-40 -175 -146.5 -263t-280.5 -88q-210 0 -337 153.5t-127 407.5q0 252 125 406t328 154q217 0 333 -148.5t121 -431.5zM804 618q-6 186 -71 280.5t-188 94.5q-114 0 -179.5 -95 t-80.5 -280h519zM470 1638h151l212 -376h-104l-183 260l-183 -260h-104z" />
<glyph unicode="&#xeb;" horiz-adv-x="1090" d="M92 0zM999 512h-714v-8q0 -215 73 -324.5t215 -109.5q109 0 179 63.5t98 188.5h133q-40 -175 -146.5 -263t-280.5 -88q-210 0 -337 153.5t-127 407.5q0 252 125 406t328 154q217 0 333 -148.5t121 -431.5zM804 618q-6 186 -71 280.5t-188 94.5q-114 0 -179.5 -95 t-80.5 -280h519zM370 1569q43 0 74.5 -34.5t31.5 -82.5q0 -51 -30 -84t-76 -33q-45 0 -74.5 33t-29.5 84q0 48 31 82.5t73 34.5zM721 1569q43 0 74 -34.5t31 -82.5q0 -51 -30 -84t-75 -33q-46 0 -75.5 33t-29.5 84q0 48 31 82.5t74 34.5z" />
<glyph unicode="&#xec;" horiz-adv-x="589" d="M0 0zM391 106h156v-106h-480v106h158v850h-158v107h324v-957zM164 1636l234 -376h-105l-306 376h177z" />
<glyph unicode="&#xed;" horiz-adv-x="589" d="M67 0zM391 106h156v-106h-480v106h158v850h-158v107h324v-957zM420 1638h179l-306 -376h-105z" />
<glyph unicode="&#xee;" horiz-adv-x="589" d="M8 0zM391 106h156v-106h-480v106h158v850h-158v107h324v-957zM219 1638h151l212 -376h-104l-183 260l-183 -260h-104z" />
<glyph unicode="&#xef;" horiz-adv-x="589" d="M15 0zM391 106h156v-106h-480v106h158v850h-158v107h324v-957zM119 1569q43 0 74.5 -34.5t31.5 -82.5q0 -51 -30 -84t-76 -33q-45 0 -74.5 33t-29.5 84q0 48 31 82.5t73 34.5zM470 1569q43 0 74 -34.5t31 -82.5q0 -51 -30 -84t-75 -33q-46 0 -75.5 33t-29.5 84 q0 48 31 82.5t74 34.5z" />
<glyph unicode="&#xf0;" horiz-adv-x="1109" d="M739 928q-41 9 -77 13.5t-72 4.5q-156 0 -230.5 -107t-74.5 -331q0 -210 71 -324t198 -114q130 0 200 114.5t70 327.5q0 112 -21.5 217.5t-63.5 198.5zM684 1307q165 -167 249 -362.5t84 -412.5q0 -254 -126.5 -407.5t-336.5 -153.5q-206 0 -334 151.5t-128 395.5 q0 236 127 381t332 145q31 0 65 -3t81 -11q-20 53 -53 106.5t-78 108.5l-290 -149l-33 78l264 135q-55 58 -126 98.5t-156 62.5l16 86q107 -26 201 -73t177 -115l290 150l33 -78z" />
<glyph unicode="&#xf1;" horiz-adv-x="1187" d="M67 0zM76 0v106h149v850h-158v107h324v-189q45 108 118.5 163t170.5 55q159 0 233.5 -101t74.5 -315v-570h148v-106h-457v106h143v512q0 195 -43.5 267.5t-152.5 72.5q-115 0 -175 -93.5t-60 -272.5v-486h144v-106h-459zM589 1370l-51 55q-24 24 -38.5 31.5t-31.5 7.5 q-38 0 -59.5 -39.5t-26.5 -115.5h-86q2 135 47.5 208.5t127.5 73.5q35 0 63.5 -14t61.5 -47l52 -55q20 -23 35.5 -31t34.5 -8q39 0 60.5 40t24.5 115h87q-2 -135 -48 -208.5t-128 -73.5q-34 0 -63 14t-62 47z" />
<glyph unicode="&#xf2;" horiz-adv-x="1109" d="M92 0zM554 70q134 0 202 117t68 345t-68 344.5t-202 116.5q-133 0 -201 -116.5t-68 -344.5t68.5 -345t200.5 -117zM554 -29q-208 0 -335 153.5t-127 407.5t126.5 407t335.5 153q210 0 336.5 -153t126.5 -407t-126.5 -407.5t-336.5 -153.5zM424 1636l234 -376h-105 l-306 376h177z" />
<glyph unicode="&#xf3;" horiz-adv-x="1109" d="M92 0zM554 70q134 0 202 117t68 345t-68 344.5t-202 116.5q-133 0 -201 -116.5t-68 -344.5t68.5 -345t200.5 -117zM554 -29q-208 0 -335 153.5t-127 407.5t126.5 407t335.5 153q210 0 336.5 -153t126.5 -407t-126.5 -407.5t-336.5 -153.5zM680 1638h179l-306 -376h-105z " />
<glyph unicode="&#xf4;" horiz-adv-x="1109" d="M92 0zM554 70q134 0 202 117t68 345t-68 344.5t-202 116.5q-133 0 -201 -116.5t-68 -344.5t68.5 -345t200.5 -117zM554 -29q-208 0 -335 153.5t-127 407.5t126.5 407t335.5 153q210 0 336.5 -153t126.5 -407t-126.5 -407.5t-336.5 -153.5zM479 1638h151l212 -376h-104 l-183 260l-183 -260h-104z" />
<glyph unicode="&#xf5;" horiz-adv-x="1109" d="M92 0zM554 70q134 0 202 117t68 345t-68 344.5t-202 116.5q-133 0 -201 -116.5t-68 -344.5t68.5 -345t200.5 -117zM554 -29q-208 0 -335 153.5t-127 407.5t126.5 407t335.5 153q210 0 336.5 -153t126.5 -407t-126.5 -407.5t-336.5 -153.5zM551 1370l-51 55 q-24 24 -38.5 31.5t-31.5 7.5q-38 0 -59.5 -39.5t-26.5 -115.5h-86q2 135 47.5 208.5t127.5 73.5q35 0 63.5 -14t61.5 -47l52 -55q20 -23 35.5 -31t34.5 -8q39 0 60.5 40t24.5 115h87q-2 -135 -48 -208.5t-128 -73.5q-34 0 -63 14t-62 47z" />
<glyph unicode="&#xf6;" horiz-adv-x="1109" d="M92 0zM554 70q134 0 202 117t68 345t-68 344.5t-202 116.5q-133 0 -201 -116.5t-68 -344.5t68.5 -345t200.5 -117zM554 -29q-208 0 -335 153.5t-127 407.5t126.5 407t335.5 153q210 0 336.5 -153t126.5 -407t-126.5 -407.5t-336.5 -153.5zM379 1569q43 0 74.5 -34.5 t31.5 -82.5q0 -51 -30 -84t-76 -33q-45 0 -74.5 33t-29.5 84q0 48 31 82.5t73 34.5zM730 1569q43 0 74 -34.5t31 -82.5q0 -51 -30 -84t-75 -33q-46 0 -75.5 33t-29.5 84q0 48 31 82.5t74 34.5z" />
<glyph unicode="&#xf7;" d="M652 1012q0 56 35 94.5t85 38.5t85 -39t35 -94q0 -56 -35 -94.5t-85 -38.5q-51 0 -85.5 38t-34.5 95zM652 272q0 56 35 95t85 39t85 -39t35 -95q0 -55 -35 -94t-85 -39q-51 0 -85.5 38.5t-34.5 94.5zM195 723h1154v-162h-1154v162z" />
<glyph unicode="&#xf8;" horiz-adv-x="1109" d="M756 879q-34 57 -84.5 85.5t-117.5 28.5q-132 0 -200.5 -117t-68.5 -344q0 -72 7 -131t19 -108zM352 190q36 -61 86 -90.5t116 -29.5q133 0 201.5 117.5t68.5 344.5q0 76 -7 136.5t-21 111.5zM904 922q55 -74 84 -173t29 -217q0 -254 -126.5 -407.5t-336.5 -153.5 q-84 0 -156 26.5t-132 80.5l-129 -172l-69 63l134 178q-54 77 -82 173.5t-28 211.5q0 254 126.5 407t335.5 153q85 0 157 -25.5t130 -75.5l125 166l68 -63z" />
<glyph unicode="&#xf9;" horiz-adv-x="1187" d="M50 0zM652 1063h310v-957h157v-106h-323v188q-45 -106 -118 -161.5t-170 -55.5q-159 0 -234 100.5t-75 315.5v569h-149v107h315v-619q0 -194 43 -266t153 -72q115 0 175 94t60 273v483h-144v107zM395 1636l234 -376h-105l-306 376h177z" />
<glyph unicode="&#xfa;" horiz-adv-x="1187" d="M50 0zM652 1063h310v-957h157v-106h-323v188q-45 -106 -118 -161.5t-170 -55.5q-159 0 -234 100.5t-75 315.5v569h-149v107h315v-619q0 -194 43 -266t153 -72q115 0 175 94t60 273v483h-144v107zM651 1638h179l-306 -376h-105z" />
<glyph unicode="&#xfb;" horiz-adv-x="1187" d="M50 0zM652 1063h310v-957h157v-106h-323v188q-45 -106 -118 -161.5t-170 -55.5q-159 0 -234 100.5t-75 315.5v569h-149v107h315v-619q0 -194 43 -266t153 -72q115 0 175 94t60 273v483h-144v107zM450 1638h151l212 -376h-104l-183 260l-183 -260h-104z" />
<glyph unicode="&#xfc;" horiz-adv-x="1187" d="M50 0zM652 1063h310v-957h157v-106h-323v188q-45 -106 -118 -161.5t-170 -55.5q-159 0 -234 100.5t-75 315.5v569h-149v107h315v-619q0 -194 43 -266t153 -72q115 0 175 94t60 273v483h-144v107zM350 1569q43 0 74.5 -34.5t31.5 -82.5q0 -51 -30 -84t-76 -33 q-45 0 -74.5 33t-29.5 84q0 48 31 82.5t73 34.5zM701 1569q43 0 74 -34.5t31 -82.5q0 -51 -30 -84t-75 -33q-46 0 -75.5 33t-29.5 84q0 48 31 82.5t74 34.5z" />
<glyph unicode="&#xfd;" horiz-adv-x="1041" d="M0 0zM398 -195l63 177l-357 974h-109v107h440v-107h-153l269 -731l269 731h-143v107h359v-107h-107l-439 -1196q-44 -124 -99 -169.5t-155 -45.5q-42 0 -87 8t-90 23v203h85q5 -68 31 -97.5t80 -29.5q49 0 79 30.5t64 122.5zM647 1638h179l-306 -376h-105z" />
<glyph unicode="&#xfe;" horiz-adv-x="1179" d="M378 584v-105q0 -192 66 -292.5t192 -100.5q127 0 192.5 113t65.5 333q0 221 -65.5 333t-192.5 112q-126 0 -192 -101t-66 -292zM212 1450h-159v106h325v-659q49 100 124 147.5t186 47.5q176 0 287.5 -155t111.5 -405t-111.5 -405.5t-287.5 -155.5q-111 0 -186 47.5 t-124 147.5v-485h157v-107h-482v107h159v1769z" />
<glyph unicode="&#xff;" horiz-adv-x="1041" d="M0 0zM398 -195l63 177l-357 974h-109v107h440v-107h-153l269 -731l269 731h-143v107h359v-107h-107l-439 -1196q-44 -124 -99 -169.5t-155 -45.5q-42 0 -87 8t-90 23v203h85q5 -68 31 -97.5t80 -29.5q49 0 79 30.5t64 122.5zM346 1569q43 0 74.5 -34.5t31.5 -82.5 q0 -51 -30 -84t-76 -33q-45 0 -74.5 33t-29.5 84q0 48 31 82.5t73 34.5zM697 1569q43 0 74 -34.5t31 -82.5q0 -51 -30 -84t-75 -33q-46 0 -75.5 33t-29.5 84q0 48 31 82.5t74 34.5z" />
<glyph unicode="&#x100;" horiz-adv-x="1331" d="M0 0zM393 1841h538v-148h-538v148zM369 541h493l-246 710zM-11 0v106h118l479 1387h151l480 -1387h132v-106h-489v106h150l-113 328h-565l-112 -328h147v-106h-378z" />
<glyph unicode="&#x101;" horiz-adv-x="1098" d="M92 0zM224 1526h538v-148h-538v148zM734 334v225h-214q-123 0 -183.5 -59t-60.5 -181q0 -111 61.5 -176t165.5 -65t167.5 71t63.5 185zM899 664v-558h148v-106h-313v115q-55 -74 -127 -109t-169 -35q-159 0 -252.5 94t-93.5 254q0 165 107 256t302 91h233v73 q0 121 -66.5 187.5t-185.5 66.5q-100 0 -158 -50t-73 -148h-85v215q86 41 167.5 61.5t158.5 20.5q199 0 303 -109.5t104 -318.5z" />
<glyph unicode="&#x102;" horiz-adv-x="1331" d="M0 0zM391 1897h87q11 -79 58 -114.5t137 -35.5t136.5 35.5t58.5 114.5h86q-8 -143 -79.5 -215t-201.5 -72q-131 0 -202 72t-80 215zM369 541h493l-246 710zM-11 0v106h118l479 1387h151l480 -1387h132v-106h-489v106h150l-113 328h-565l-112 -328h147v-106h-378z" />
<glyph unicode="&#x103;" horiz-adv-x="1098" d="M92 0zM254 1581h87q11 -79 58 -114.5t137 -35.5t136.5 35.5t58.5 114.5h86q-8 -143 -79.5 -215t-201.5 -72q-131 0 -202 72t-80 215zM734 334v225h-214q-123 0 -183.5 -59t-60.5 -181q0 -111 61.5 -176t165.5 -65t167.5 71t63.5 185zM899 664v-558h148v-106h-313v115 q-55 -74 -127 -109t-169 -35q-159 0 -252.5 94t-93.5 254q0 165 107 256t302 91h233v73q0 121 -66.5 187.5t-185.5 66.5q-100 0 -158 -50t-73 -148h-85v215q86 41 167.5 61.5t158.5 20.5q199 0 303 -109.5t104 -318.5z" />
<glyph unicode="&#x104;" horiz-adv-x="1331" d="M0 0zM865 0h85l-1 -2q-79 -123 -79 -170q0 -46 30.5 -74t80.5 -28q24 0 50.5 6.5t52.5 19.5v-127q-33 -9 -63 -13.5t-59 -4.5q-102 0 -157.5 44.5t-55.5 125.5q0 49 27 101.5t89 121.5zM369 541h493l-246 710zM-11 0v106h118l479 1387h151l480 -1387h132v-106h-489v106 h150l-113 328h-565l-112 -328h147v-106h-378z" />
<glyph unicode="&#x105;" horiz-adv-x="1098" d="M92 0zM734 0h85l-1 -2q-79 -123 -79 -170q0 -46 30.5 -74t80.5 -28q24 0 50.5 6.5t52.5 19.5v-127q-33 -9 -63 -13.5t-59 -4.5q-102 0 -157.5 44.5t-55.5 125.5q0 49 27 101.5t89 121.5zM734 334v225h-214q-123 0 -183.5 -59t-60.5 -181q0 -111 61.5 -176t165.5 -65 t167.5 71t63.5 185zM899 664v-558h148v-106h-313v115q-55 -74 -127 -109t-169 -35q-159 0 -252.5 94t-93.5 254q0 165 107 256t302 91h233v73q0 121 -66.5 187.5t-185.5 66.5q-100 0 -158 -50t-73 -148h-85v215q86 41 167.5 61.5t158.5 20.5q199 0 303 -109.5t104 -318.5z " />
<glyph unicode="&#x106;" horiz-adv-x="1410" d="M104 0zM1300 395q-60 -209 -200 -316.5t-354 -107.5q-131 0 -243.5 50t-200.5 147q-100 112 -149 254.5t-49 322.5q0 348 180.5 561.5t476.5 213.5q110 0 234.5 -32t267.5 -97v-344h-102q-33 188 -133.5 277t-281.5 89q-215 0 -325.5 -169.5t-110.5 -498.5 q0 -328 110.5 -497.5t325.5 -169.5q150 0 247.5 79.5t140.5 237.5h166zM796 1899h177l-236 -264h-105z" />
<glyph unicode="&#x107;" horiz-adv-x="1032" d="M92 0zM948 319q-35 -170 -135 -259t-259 -89q-208 0 -335 153.5t-127 407.5q0 255 127 407.5t335 152.5q91 0 181 -23.5t181 -71.5v-272h-96q-19 140 -82.5 204t-181.5 64q-134 0 -202.5 -115.5t-68.5 -345.5t68 -346t203 -116q107 0 171 62t87 187h134zM671 1638h179 l-306 -376h-105z" />
<glyph unicode="&#x108;" horiz-adv-x="1410" d="M104 0zM667 1899h158l208 -264h-104l-183 161l-183 -161h-104zM1300 395q-60 -209 -200 -316.5t-354 -107.5q-131 0 -243.5 50t-200.5 147q-100 112 -149 254.5t-49 322.5q0 348 180.5 561.5t476.5 213.5q110 0 234.5 -32t267.5 -97v-344h-102q-33 188 -133.5 277 t-281.5 89q-215 0 -325.5 -169.5t-110.5 -498.5q0 -328 110.5 -497.5t325.5 -169.5q150 0 247.5 79.5t140.5 237.5h166z" />
<glyph unicode="&#x109;" horiz-adv-x="1032" d="M92 0zM479 1638h151l212 -376h-104l-183 260l-183 -260h-104zM948 319q-35 -170 -135 -259t-259 -89q-208 0 -335 153.5t-127 407.5q0 255 127 407.5t335 152.5q91 0 181 -23.5t181 -71.5v-272h-96q-19 140 -82.5 204t-181.5 64q-134 0 -202.5 -115.5t-68.5 -345.5 t68 -346t203 -116q107 0 171 62t87 187h134z" />
<glyph unicode="&#x10a;" horiz-adv-x="1410" d="M104 0zM746 1886q43 0 74 -35t31 -81q0 -50 -30 -83.5t-75 -33.5t-75 33.5t-30 83.5q0 46 31.5 81t73.5 35zM1300 395q-60 -209 -200 -316.5t-354 -107.5q-131 0 -243.5 50t-200.5 147q-100 112 -149 254.5t-49 322.5q0 348 180.5 561.5t476.5 213.5q110 0 234.5 -32 t267.5 -97v-344h-102q-33 188 -133.5 277t-281.5 89q-215 0 -325.5 -169.5t-110.5 -498.5q0 -328 110.5 -497.5t325.5 -169.5q150 0 247.5 79.5t140.5 237.5h166z" />
<glyph unicode="&#x10b;" horiz-adv-x="1032" d="M92 0zM555 1569q43 0 74 -34.5t31 -82.5q0 -51 -29.5 -84t-75.5 -33t-75.5 33t-29.5 84q0 48 31 82.5t74 34.5zM948 319q-35 -170 -135 -259t-259 -89q-208 0 -335 153.5t-127 407.5q0 255 127 407.5t335 152.5q91 0 181 -23.5t181 -71.5v-272h-96q-19 140 -82.5 204 t-181.5 64q-134 0 -202.5 -115.5t-68.5 -345.5t68 -346t203 -116q107 0 171 62t87 187h134z" />
<glyph unicode="&#x10c;" horiz-adv-x="1410" d="M104 0zM1300 395q-60 -209 -200 -316.5t-354 -107.5q-131 0 -243.5 50t-200.5 147q-100 112 -149 254.5t-49 322.5q0 348 180.5 561.5t476.5 213.5q110 0 234.5 -32t267.5 -97v-344h-102q-33 188 -133.5 277t-281.5 89q-215 0 -325.5 -169.5t-110.5 -498.5 q0 -328 110.5 -497.5t325.5 -169.5q150 0 247.5 79.5t140.5 237.5h166zM660 1635l-208 264h104l183 -162l183 162h104l-208 -264h-158z" />
<glyph unicode="&#x10d;" horiz-adv-x="1032" d="M92 0zM948 319q-35 -170 -135 -259t-259 -89q-208 0 -335 153.5t-127 407.5q0 255 127 407.5t335 152.5q91 0 181 -23.5t181 -71.5v-272h-96q-19 140 -82.5 204t-181.5 64q-134 0 -202.5 -115.5t-68.5 -345.5t68 -346t203 -116q107 0 171 62t87 187h134zM470 1262 l-211 376h104l183 -260l183 260h104l-212 -376h-151z" />
<glyph unicode="&#x10e;" horiz-adv-x="1477" d="M102 0zM455 106h168q262 0 402 166t140 476t-139.5 474t-402.5 164h-168v-1280zM102 0v106h171v1280h-171v107h534q348 0 542 -197t194 -548q0 -352 -194.5 -550t-541.5 -198h-534zM590 1635l-208 264h104l183 -162l183 162h104l-208 -264h-158z" />
<glyph unicode="&#x10f;" horiz-adv-x="1179" d="M92 0zM968 106h158v-106h-324v166q-49 -100 -124 -147.5t-186 -47.5q-176 0 -288 155.5t-112 405.5t111.5 405t288.5 155q111 0 186 -47.5t124 -147.5v553h-157v106h323v-1450zM802 479v105q0 191 -66 292t-192 101q-128 0 -193.5 -112t-65.5 -333q0 -220 65.5 -333 t193.5 -113q126 0 192 100.5t66 292.5zM1182 1554h179l-130 -376h-105z" />
<glyph unicode="&#x110;" horiz-adv-x="1487" d="M102 0zM463 106h169q262 0 402 166t140 476t-139.5 474t-402.5 164h-169v-542h302v-125h-302v-613zM111 0v106h171v613h-180v125h180v542h-171v107h534q348 0 542 -197t194 -548q0 -352 -194.5 -550t-541.5 -198h-534z" />
<glyph unicode="&#x111;" horiz-adv-x="1179" d="M968 106h158v-106h-324v166q-49 -100 -124 -147.5t-186 -47.5q-176 0 -288 155.5t-112 405.5t111.5 405t288.5 155q111 0 186 -47.5t124 -147.5v330h-294v106h294v117h-157v106h323v-223h158v-106h-158v-1121zM802 479v105q0 191 -66 292t-192 101q-128 0 -193.5 -112 t-65.5 -333q0 -220 65.5 -333t193.5 -113q126 0 192 100.5t66 292.5z" />
<glyph unicode="&#x112;" horiz-adv-x="1345" d="M102 0zM374 1842h538v-148h-538v148zM102 0v106h171v1280h-171v107h1082v-332h-111v209h-618v-500h441v187h110v-496h-110v187h-441v-625h632v209h111v-332h-1096z" />
<glyph unicode="&#x113;" horiz-adv-x="1090" d="M92 0zM277 1527h538v-148h-538v148zM999 512h-714v-8q0 -215 73 -324.5t215 -109.5q109 0 179 63.5t98 188.5h133q-40 -175 -146.5 -263t-280.5 -88q-210 0 -337 153.5t-127 407.5q0 252 125 406t328 154q217 0 333 -148.5t121 -431.5zM804 618q-6 186 -71 280.5 t-188 94.5q-114 0 -179.5 -95t-80.5 -280h519z" />
<glyph unicode="&#x114;" horiz-adv-x="1345" d="M102 0zM393 1901h85q16 -55 64 -82t131 -27t131 27t64 82h85q-18 -117 -90 -179.5t-190 -62.5q-119 0 -190.5 62t-89.5 180zM102 0v106h171v1280h-171v107h1082v-332h-111v209h-618v-500h441v187h110v-496h-110v187h-441v-625h632v209h111v-332h-1096z" />
<glyph unicode="&#x115;" horiz-adv-x="1090" d="M92 0zM264 1608h87q11 -79 58 -114.5t137 -35.5t136.5 35.5t58.5 114.5h86q-8 -143 -79.5 -215t-201.5 -72q-131 0 -202 72t-80 215zM999 512h-714v-8q0 -215 73 -324.5t215 -109.5q109 0 179 63.5t98 188.5h133q-40 -175 -146.5 -263t-280.5 -88q-210 0 -337 153.5 t-127 407.5q0 252 125 406t328 154q217 0 333 -148.5t121 -431.5zM804 618q-6 186 -71 280.5t-188 94.5q-114 0 -179.5 -95t-80.5 -280h519z" />
<glyph unicode="&#x116;" horiz-adv-x="1345" d="M102 0zM673 1886q43 0 74 -35t31 -81q0 -50 -30 -83.5t-75 -33.5t-75 33.5t-30 83.5q0 46 31.5 81t73.5 35zM102 0v106h171v1280h-171v107h1082v-332h-111v209h-618v-500h441v187h110v-496h-110v187h-441v-625h632v209h111v-332h-1096z" />
<glyph unicode="&#x117;" horiz-adv-x="1090" d="M92 0zM546 1569q43 0 74 -34.5t31 -82.5q0 -51 -29.5 -84t-75.5 -33t-75.5 33t-29.5 84q0 48 31 82.5t74 34.5zM999 512h-714v-8q0 -215 73 -324.5t215 -109.5q109 0 179 63.5t98 188.5h133q-40 -175 -146.5 -263t-280.5 -88q-210 0 -337 153.5t-127 407.5q0 252 125 406 t328 154q217 0 333 -148.5t121 -431.5zM804 618q-6 186 -71 280.5t-188 94.5q-114 0 -179.5 -95t-80.5 -280h519z" />
<glyph unicode="&#x118;" horiz-adv-x="1345" d="M102 0zM977 0h85l-1 -2q-79 -123 -79 -170q0 -46 30.5 -74t80.5 -28q24 0 50.5 6.5t52.5 19.5v-127q-33 -9 -63 -13.5t-59 -4.5q-102 0 -157.5 44.5t-55.5 125.5q0 49 27 101.5t89 121.5zM102 0v106h171v1280h-171v107h1082v-332h-111v209h-618v-500h441v187h110v-496 h-110v187h-441v-625h632v209h111v-332h-1096z" />
<glyph unicode="&#x119;" horiz-adv-x="1090" d="M92 0zM650 0h85l-1 -2q-79 -123 -79 -170q0 -46 30.5 -74t80.5 -28q24 0 50.5 6.5t52.5 19.5v-127q-33 -9 -63 -13.5t-59 -4.5q-102 0 -157.5 44.5t-55.5 125.5q0 49 27 101.5t89 121.5zM999 512h-714v-8q0 -215 73 -324.5t215 -109.5q109 0 179 63.5t98 188.5h133 q-40 -175 -146.5 -263t-280.5 -88q-210 0 -337 153.5t-127 407.5q0 252 125 406t328 154q217 0 333 -148.5t121 -431.5zM804 618q-6 186 -71 280.5t-188 94.5q-114 0 -179.5 -95t-80.5 -280h519z" />
<glyph unicode="&#x11a;" horiz-adv-x="1345" d="M102 0zM102 0v106h171v1280h-171v107h1082v-332h-111v209h-618v-500h441v187h110v-496h-110v187h-441v-625h632v209h111v-332h-1096zM660 1635l-208 264h104l183 -162l183 162h104l-208 -264h-158z" />
<glyph unicode="&#x11b;" horiz-adv-x="1090" d="M92 0zM999 512h-714v-8q0 -215 73 -324.5t215 -109.5q109 0 179 63.5t98 188.5h133q-40 -175 -146.5 -263t-280.5 -88q-210 0 -337 153.5t-127 407.5q0 252 125 406t328 154q217 0 333 -148.5t121 -431.5zM804 618q-6 186 -71 280.5t-188 94.5q-114 0 -179.5 -95 t-80.5 -280h519zM470 1262l-211 376h104l183 -260l183 260h104l-212 -376h-151z" />
<glyph unicode="&#x11c;" horiz-adv-x="1472" d="M104 0zM691 1899h158l208 -264h-104l-183 161l-183 -161h-104zM1180 1047q-32 187 -131.5 276.5t-278.5 89.5q-232 0 -346 -166t-114 -502q0 -329 117.5 -498t346.5 -169q102 0 194.5 28t176.5 84v385h-253v107h436v-557q-120 -77 -258 -115.5t-296 -38.5 q-304 0 -487 211.5t-183 562.5q0 354 183.5 564.5t493.5 210.5q115 0 238 -29.5t262 -89.5v-354h-101z" />
<glyph unicode="&#x11d;" horiz-adv-x="1179" d="M92 0zM468 1638h151l212 -376h-104l-183 260l-183 -260h-104zM968 956v-933q0 -229 -113.5 -353.5t-323.5 -124.5q-95 0 -181 19t-166 57v223h87q16 -104 76.5 -152t172.5 -48q146 0 214 91.5t68 287.5v143q-49 -100 -124 -147.5t-186 -47.5q-176 0 -288 155.5 t-112 405.5t111.5 405t288.5 155q111 0 186 -47.5t124 -147.5v166h324v-107h-158zM802 584q0 191 -66 292t-192 101q-128 0 -193.5 -112t-65.5 -333q0 -220 65.5 -333t193.5 -113q126 0 192 100.5t66 292.5v105z" />
<glyph unicode="&#x11e;" horiz-adv-x="1472" d="M104 0zM1180 1047q-32 187 -131.5 276.5t-278.5 89.5q-232 0 -346 -166t-114 -502q0 -329 117.5 -498t346.5 -169q102 0 194.5 28t176.5 84v385h-253v107h436v-557q-120 -77 -258 -115.5t-296 -38.5q-304 0 -487 211.5t-183 562.5q0 354 183.5 564.5t493.5 210.5 q115 0 238 -29.5t262 -89.5v-354h-101zM457 1901h85q16 -55 64 -82t131 -27t131 27t64 82h85q-18 -117 -90 -179.5t-190 -62.5q-119 0 -190.5 62t-89.5 180z" />
<glyph unicode="&#x11f;" horiz-adv-x="1179" d="M92 0zM968 956v-933q0 -229 -113.5 -353.5t-323.5 -124.5q-95 0 -181 19t-166 57v223h87q16 -104 76.5 -152t172.5 -48q146 0 214 91.5t68 287.5v143q-49 -100 -124 -147.5t-186 -47.5q-176 0 -288 155.5t-112 405.5t111.5 405t288.5 155q111 0 186 -47.5t124 -147.5v166 h324v-107h-158zM802 584q0 191 -66 292t-192 101q-128 0 -193.5 -112t-65.5 -333q0 -220 65.5 -333t193.5 -113q126 0 192 100.5t66 292.5v105zM308 1608h87q11 -79 58 -114.5t137 -35.5t136.5 35.5t58.5 114.5h86q-8 -143 -79.5 -215t-201.5 -72q-131 0 -202 72t-80 215z " />
<glyph unicode="&#x120;" horiz-adv-x="1472" d="M104 0zM770 1886q43 0 74 -35t31 -81q0 -50 -30 -83.5t-75 -33.5t-75 33.5t-30 83.5q0 46 31.5 81t73.5 35zM1180 1047q-32 187 -131.5 276.5t-278.5 89.5q-232 0 -346 -166t-114 -502q0 -329 117.5 -498t346.5 -169q102 0 194.5 28t176.5 84v385h-253v107h436v-557 q-120 -77 -258 -115.5t-296 -38.5q-304 0 -487 211.5t-183 562.5q0 354 183.5 564.5t493.5 210.5q115 0 238 -29.5t262 -89.5v-354h-101z" />
<glyph unicode="&#x121;" horiz-adv-x="1179" d="M92 0zM544 1569q43 0 74 -34.5t31 -82.5q0 -51 -29.5 -84t-75.5 -33t-75.5 33t-29.5 84q0 48 31 82.5t74 34.5zM968 956v-933q0 -229 -113.5 -353.5t-323.5 -124.5q-95 0 -181 19t-166 57v223h87q16 -104 76.5 -152t172.5 -48q146 0 214 91.5t68 287.5v143 q-49 -100 -124 -147.5t-186 -47.5q-176 0 -288 155.5t-112 405.5t111.5 405t288.5 155q111 0 186 -47.5t124 -147.5v166h324v-107h-158zM802 584q0 191 -66 292t-192 101q-128 0 -193.5 -112t-65.5 -333q0 -220 65.5 -333t193.5 -113q126 0 192 100.5t66 292.5v105z" />
<glyph unicode="&#x122;" horiz-adv-x="1472" d="M104 0zM635 -410q69 42 100.5 98t31.5 136v22h142q-6 -103 -59 -176q-52 -74 -157 -128zM1180 1047q-32 187 -131.5 276.5t-278.5 89.5q-232 0 -346 -166t-114 -502q0 -329 117.5 -498t346.5 -169q102 0 194.5 28t176.5 84v385h-253v107h436v-557q-120 -77 -258 -115.5 t-296 -38.5q-304 0 -487 211.5t-183 562.5q0 354 183.5 564.5t493.5 210.5q115 0 238 -29.5t262 -89.5v-354h-101z" />
<glyph unicode="&#x123;" horiz-adv-x="1179" d="M92 0zM756 1470q-69 -42 -100.5 -98t-31.5 -136v-22h-142q6 103 58 176q53 74 158 128zM968 956v-933q0 -229 -113.5 -353.5t-323.5 -124.5q-95 0 -181 19t-166 57v223h87q16 -104 76.5 -152t172.5 -48q146 0 214 91.5t68 287.5v143q-49 -100 -124 -147.5t-186 -47.5 q-176 0 -288 155.5t-112 405.5t111.5 405t288.5 155q111 0 186 -47.5t124 -147.5v166h324v-107h-158zM802 584q0 191 -66 292t-192 101q-128 0 -193.5 -112t-65.5 -333q0 -220 65.5 -333t193.5 -113q126 0 192 100.5t66 292.5v105z" />
<glyph unicode="&#x124;" horiz-adv-x="1607" d="M102 0zM724 1899h158l208 -264h-104l-183 161l-183 -161h-104zM102 0v106h171v1280h-171v107h524v-107h-171v-516h697v516h-171v107h525v-107h-171v-1280h171v-106h-525v106h171v642h-697v-642h171v-106h-524z" />
<glyph unicode="&#x125;" horiz-adv-x="1187" d="M0 0zM153 1899h158l208 -264h-104l-183 161l-183 -161h-104zM76 0v106h149v1344h-158v106h324v-682q45 108 118.5 163t170.5 55q159 0 233.5 -101t74.5 -315v-570h148v-106h-457v106h143v512q0 195 -43 266.5t-153 71.5q-115 0 -175 -93t-60 -271v-486h144v-106h-459z " />
<glyph unicode="&#x126;" horiz-adv-x="1607" d="M455 870h697v197h-697v-197zM102 0v106h171v961h-171v122h171v197h-171v107h524v-107h-171v-197h697v197h-171v107h525v-107h-171v-197h171v-122h-171v-961h171v-106h-525v106h171v642h-697v-642h171v-106h-524z" />
<glyph unicode="&#x127;" horiz-adv-x="1187" d="M76 0v106h149v1104h-158v122h158v118h-158v106h324v-224h284v-122h-284v-336q45 108 118.5 163t170.5 55q159 0 233.5 -101t74.5 -315v-570h148v-106h-457v106h143v512q0 195 -43 266.5t-153 71.5q-115 0 -175 -93t-60 -271v-486h144v-106h-459z" />
<glyph unicode="&#x128;" horiz-adv-x="728" d="M66 0zM352 1715l-44 28q-18 13 -36.5 20t-33.5 7q-35 0 -58.5 -28.5t-26.5 -74.5l-87 1q2 100 48 159t122 59q33 0 60.5 -9t77.5 -40l44 -26q21 -13 40.5 -20t35.5 -7q37 0 58 27.5t21 74.5h87q-2 -105 -48 -162t-131 -57q-60 0 -125 45zM455 106h171v-106h-524v106h171 v1280h-171v107h524v-107h-171v-1280z" />
<glyph unicode="&#x129;" horiz-adv-x="589" d="M0 0zM291 1370l-51 55q-24 24 -38.5 31.5t-31.5 7.5q-38 0 -59.5 -39.5t-26.5 -115.5h-86q2 135 47.5 208.5t127.5 73.5q35 0 63.5 -14t61.5 -47l52 -55q20 -23 35.5 -31t34.5 -8q39 0 60.5 40t24.5 115h87q-2 -135 -48 -208.5t-128 -73.5q-34 0 -63 14t-62 47zM391 106 h156v-106h-480v106h158v850h-158v107h324v-957z" />
<glyph unicode="&#x12a;" horiz-adv-x="728" d="M95 0zM95 1842h538v-148h-538v148zM455 106h171v-106h-524v106h171v1280h-171v107h524v-107h-171v-1280z" />
<glyph unicode="&#x12b;" horiz-adv-x="589" d="M0 0zM-40 1526h538v-148h-538v148zM391 106h156v-106h-480v106h158v850h-158v107h324v-957z" />
<glyph unicode="&#x12c;" horiz-adv-x="728" d="M83 0zM83 1901h85q16 -55 64 -82t131 -27t131 27t64 82h85q-18 -117 -90 -179.5t-190 -62.5q-119 0 -190.5 62t-89.5 180zM455 106h171v-106h-524v106h171v1280h-171v107h524v-107h-171v-1280z" />
<glyph unicode="&#x12d;" horiz-adv-x="589" d="M13 0zM13 1608h87q11 -79 58 -114.5t137 -35.5t136.5 35.5t58.5 114.5h86q-8 -143 -79.5 -215t-201.5 -72q-131 0 -202 72t-80 215zM391 106h156v-106h-480v106h158v850h-158v107h324v-957z" />
<glyph unicode="&#x12e;" horiz-adv-x="728" d="M102 0zM455 106h171v-106h-524v106h171v1280h-171v107h524v-107h-171v-1280zM371 0h85l-1 -2q-79 -123 -79 -170q0 -46 30.5 -74t80.5 -28q24 0 50.5 6.5t52.5 19.5v-127q-33 -9 -63 -13.5t-59 -4.5q-102 0 -157.5 44.5t-55.5 125.5q0 49 27 101.5t89 121.5z" />
<glyph unicode="&#x12f;" horiz-adv-x="589" d="M67 0zM179 1393q0 46 30 80t73 34q41 0 71 -34t30 -80q0 -47 -29.5 -80t-71.5 -33q-43 0 -73 33t-30 80zM391 106h156v-106h-480v106h158v850h-158v107h324v-957zM306 0h85l-1 -2q-79 -123 -79 -170q0 -46 30.5 -74t80.5 -28q24 0 50.5 6.5t52.5 19.5v-127 q-33 -9 -63 -13.5t-59 -4.5q-102 0 -157.5 44.5t-55.5 125.5q0 49 27 101.5t89 121.5z" />
<glyph unicode="&#x130;" horiz-adv-x="728" d="M102 0zM455 106h171v-106h-524v106h171v1280h-171v107h524v-107h-171v-1280zM365 1886q43 0 74 -35t31 -81q0 -50 -30 -83.5t-75 -33.5t-75 33.5t-30 83.5q0 46 31.5 81t73.5 35z" />
<glyph unicode="&#x131;" horiz-adv-x="589" d="M391 106h156v-106h-480v106h158v850h-158v107h324v-957z" />
<glyph unicode="&#x132;" horiz-adv-x="1476" d="M102 0zM455 106h171v-106h-524v106h171v1280h-171v107h524v-107h-171v-1280zM583 -358v235h103q2 -99 42 -147.5t119 -48.5q107 0 149.5 75t42.5 293v1337h-209v107h562v-107h-171v-1345q0 -247 -89 -357t-287 -110q-64 0 -130 17t-132 51z" />
<glyph unicode="&#x133;" horiz-adv-x="982" d="M67 0zM179 1393q0 46 30 80t73 34q41 0 71 -34t30 -80q0 -47 -29.5 -80t-71.5 -33q-43 0 -73 33t-30 80zM391 106h156v-106h-480v106h158v850h-158v107h324v-957zM710 1393q0 46 30.5 80t72.5 34q41 0 71.5 -34t30.5 -80q0 -47 -29.5 -80t-72.5 -33q-42 0 -72.5 33 t-30.5 80zM751 956h-157v107h323v-1167q0 -164 -88 -257.5t-242 -93.5q-65 0 -124 16.5t-114 49.5v219h85q6 -96 44.5 -141t112.5 -45q82 0 121 61.5t39 190.5v1060z" />
<glyph unicode="&#x134;" horiz-adv-x="738" d="M0 0zM293 1899h158l208 -264h-104l-183 161l-183 -161h-104zM-155 -358v235h103q2 -99 42 -147.5t119 -48.5q107 0 149.5 75t42.5 293v1337h-209v107h562v-107h-171v-1345q0 -247 -89 -357t-287 -110q-64 0 -130 17t-132 51z" />
<glyph unicode="&#x135;" horiz-adv-x="571" d="M0 0zM160 1638h151l212 -376h-104l-183 260l-183 -260h-104zM225 956h-157v107h323v-1167q0 -164 -88 -257.5t-242 -93.5q-65 0 -124 16.5t-114 49.5v219h85q6 -96 44.5 -141t112.5 -45q82 0 121 61.5t39 190.5v1060z" />
<glyph unicode="&#x136;" horiz-adv-x="1377" d="M102 0zM614 -381q69 42 100.5 98t31.5 136v22h142q-6 -103 -59 -176q-52 -74 -157 -128zM102 0v106h171v1280h-171v107h524v-107h-171v-565l579 565h-146v107h447v-107h-151l-577 -563l645 -717h153v-106h-312l-638 709v-603h171v-106h-524z" />
<glyph unicode="&#x137;" horiz-adv-x="1116" d="M53 0zM457 -381q69 42 100.5 98t31.5 136v22h142q-6 -103 -59 -176q-52 -74 -157 -128zM527 0h-464v106h149v1344h-159v106h325v-1013l403 413h-137v107h432v-107h-163l-285 -292l364 -558h138v-106h-472v106h137l-287 437l-130 -135v-302h149v-106z" />
<glyph unicode="&#x138;" horiz-adv-x="1116" d="M527 0h-464v106h149v847h-159v107h325v-519l403 412h-137v107h432v-107h-163l-285 -291l364 -556h138v-106h-472v106h137l-287 435l-130 -135v-300h149v-106z" />
<glyph unicode="&#x139;" horiz-adv-x="1224" d="M102 0zM379 1901h177l-236 -264h-105zM102 0v106h171v1280h-171v107h524v-107h-171v-1263h614v250h111v-373h-1078z" />
<glyph unicode="&#x13a;" horiz-adv-x="589" d="M53 0zM290 1900h177l-236 -264h-105zM378 106h157v-106h-482v106h159v1344h-159v106h325v-1450z" />
<glyph unicode="&#x13b;" horiz-adv-x="1224" d="M102 0zM502 -381q69 42 100.5 98t31.5 136v22h142q-6 -103 -59 -176q-52 -74 -157 -128zM102 0v106h171v1280h-171v107h524v-107h-171v-1263h614v250h111v-373h-1078z" />
<glyph unicode="&#x13c;" horiz-adv-x="589" d="M53 0zM92 -376q69 42 100.5 98t31.5 136v22h142q-6 -103 -59 -176q-52 -74 -157 -128zM378 106h157v-106h-482v106h159v1344h-159v106h325v-1450z" />
<glyph unicode="&#x13d;" horiz-adv-x="1224" d="M102 0zM830 1492h179l-130 -376h-105zM102 0v106h171v1280h-171v107h524v-107h-171v-1263h614v250h111v-373h-1078z" />
<glyph unicode="&#x13e;" horiz-adv-x="589" d="M53 0zM591 1556h179l-130 -376h-105zM378 106h157v-106h-482v106h159v1344h-159v106h325v-1450z" />
<glyph unicode="&#x13f;" horiz-adv-x="1224" d="M102 0zM899 845q0 56 34.5 94.5t86.5 38.5q49 0 84 -39t35 -94q0 -56 -35 -94.5t-84 -38.5q-52 0 -86.5 38t-34.5 95zM102 0v106h171v1280h-171v107h524v-107h-171v-1263h614v250h111v-373h-1078z" />
<glyph unicode="&#x140;" horiz-adv-x="589" d="M53 0zM513 836q0 56 34.5 94.5t86.5 38.5q49 0 84 -39t35 -94q0 -56 -35 -94.5t-84 -38.5q-52 0 -86.5 38t-34.5 95zM378 106h157v-106h-482v106h159v1344h-159v106h325v-1450z" />
<glyph unicode="&#x141;" horiz-adv-x="1233" d="M111 0v106h171v480l-142 -113l-63 92l205 162v659h-171v107h523v-107h-171v-516l276 226l63 -92l-339 -275v-606h615v250h111v-373h-1078z" />
<glyph unicode="&#x142;" horiz-adv-x="597" d="M385 106h159v-106h-481v106h157v574l-125 -96l-55 86l180 141v639h-157v106h322v-616l133 98l54 -86l-187 -141v-705z" />
<glyph unicode="&#x143;" horiz-adv-x="1612" d="M90 0zM843 1900h177l-236 -264h-105zM90 0v106h181v1280h-181v107h345l805 -1178v1071h-180v107h472v-107h-181v-1415h-109l-860 1258v-1123h180v-106h-472z" />
<glyph unicode="&#x144;" horiz-adv-x="1187" d="M67 0zM654 1590h179l-306 -376h-105zM76 0v106h149v850h-158v107h324v-189q45 108 118.5 163t170.5 55q159 0 233.5 -101t74.5 -315v-570h148v-106h-457v106h143v512q0 195 -43.5 267.5t-152.5 72.5q-115 0 -175 -93.5t-60 -272.5v-486h144v-106h-459z" />
<glyph unicode="&#x145;" horiz-adv-x="1612" d="M90 0zM631 -395q69 42 100.5 98t31.5 136v22h142q-6 -103 -59 -176q-52 -74 -157 -128zM90 0v106h181v1280h-181v107h345l805 -1178v1071h-180v107h472v-107h-181v-1415h-109l-860 1258v-1123h180v-106h-472z" />
<glyph unicode="&#x146;" horiz-adv-x="1187" d="M67 0zM467 -381q69 42 100.5 98t31.5 136v22h142q-6 -103 -59 -176q-52 -74 -157 -128zM76 0v106h149v850h-158v107h324v-189q45 108 118.5 163t170.5 55q159 0 233.5 -101t74.5 -315v-570h148v-106h-457v106h143v512q0 195 -43.5 267.5t-152.5 72.5q-115 0 -175 -93.5 t-60 -272.5v-486h144v-106h-459z" />
<glyph unicode="&#x147;" horiz-adv-x="1612" d="M90 0zM90 0v106h181v1280h-181v107h345l805 -1178v1071h-180v107h472v-107h-181v-1415h-109l-860 1258v-1123h180v-106h-472zM705 1645l-208 264h104l183 -162l183 162h104l-208 -264h-158z" />
<glyph unicode="&#x148;" horiz-adv-x="1187" d="M67 0zM76 0v106h149v850h-158v107h324v-189q45 108 118.5 163t170.5 55q159 0 233.5 -101t74.5 -315v-570h148v-106h-457v106h143v512q0 195 -43.5 267.5t-152.5 72.5q-115 0 -175 -93.5t-60 -272.5v-486h144v-106h-459zM470 1262l-211 376h104l183 -260l183 260h104 l-212 -376h-151z" />
<glyph unicode="&#x149;" horiz-adv-x="1596" d="M102 0zM102 1094q69 64 100.5 149t31.5 214v63h174q-1 -174 -57 -294.5t-179 -211.5zM435 0v106h149v850h-158v107h324v-189q45 108 118.5 163t170.5 55q159 0 233.5 -101t74.5 -315v-570h148v-106h-457v106h143v512q0 195 -43.5 267.5t-152.5 72.5q-115 0 -175 -93.5 t-60 -272.5v-486h144v-106h-459z" />
<glyph unicode="&#x14a;" horiz-adv-x="1553" d="M86 0v107h172v1279h-158v107h341v-201q67 114 172 172t245 58q227 0 334.5 -145.5t107.5 -454.5v-881q0 -247 -89.5 -357t-287.5 -110q-63 0 -129.5 17t-131.5 51v235h100q0 -99 41 -147.5t120 -48.5q106 0 150 75q42 73 42 293v832q0 292 -67.5 401t-238.5 109 q-180 0 -274 -128.5t-94 -375.5v-780h171v-107h-526z" />
<glyph unicode="&#x14b;" horiz-adv-x="1187" d="M76 0v106h149v850h-158v107h324v-189q45 108 118.5 163t170.5 55q157 0 234 -101q74 -99 74 -315v-780q0 -164 -87.5 -257.5t-241.5 -93.5q-65 0 -124 16.5t-115 49.5v219h86q6 -96 44.5 -141t111.5 -45q82 0 121 62q39 60 39 190v722q0 195 -43.5 267.5t-152.5 72.5 q-115 0 -175 -93.5t-60 -272.5v-486h144v-106h-459z" />
<glyph unicode="&#x14c;" horiz-adv-x="1511" d="M104 0zM487 1842h538v-148h-538v148zM756 78q220 0 333 168.5t113 498.5q0 331 -113 499.5t-333 168.5q-221 0 -333.5 -168.5t-112.5 -499.5q0 -330 112.5 -498.5t333.5 -168.5zM756 -29q-137 0 -251.5 50t-202.5 147q-100 112 -149 254t-49 323t49 323.5t149 254.5 q89 98 202 147.5t252 49.5q292 0 472 -213t180 -562q0 -179 -49 -322.5t-150 -254.5q-89 -98 -202 -147.5t-251 -49.5z" />
<glyph unicode="&#x14d;" horiz-adv-x="1109" d="M92 0zM286 1526h538v-148h-538v148zM554 70q134 0 202 117t68 345t-68 344.5t-202 116.5q-133 0 -201 -116.5t-68 -344.5t68.5 -345t200.5 -117zM554 -29q-208 0 -335 153.5t-127 407.5t126.5 407t335.5 153q210 0 336.5 -153t126.5 -407t-126.5 -407.5t-336.5 -153.5z " />
<glyph unicode="&#x14e;" horiz-adv-x="1511" d="M104 0zM476 1901h85q16 -55 64 -82t131 -27t131 27t64 82h85q-18 -117 -90 -179.5t-190 -62.5q-119 0 -190.5 62t-89.5 180zM756 78q220 0 333 168.5t113 498.5q0 331 -113 499.5t-333 168.5q-221 0 -333.5 -168.5t-112.5 -499.5q0 -330 112.5 -498.5t333.5 -168.5z M756 -29q-137 0 -251.5 50t-202.5 147q-100 112 -149 254t-49 323t49 323.5t149 254.5q89 98 202 147.5t252 49.5q292 0 472 -213t180 -562q0 -179 -49 -322.5t-150 -254.5q-89 -98 -202 -147.5t-251 -49.5z" />
<glyph unicode="&#x14f;" horiz-adv-x="1109" d="M92 0zM273 1608h87q11 -79 58 -114.5t137 -35.5t136.5 35.5t58.5 114.5h86q-8 -143 -79.5 -215t-201.5 -72q-131 0 -202 72t-80 215zM554 70q134 0 202 117t68 345t-68 344.5t-202 116.5q-133 0 -201 -116.5t-68 -344.5t68.5 -345t200.5 -117zM554 -29q-208 0 -335 153.5 t-127 407.5t126.5 407t335.5 153q210 0 336.5 -153t126.5 -407t-126.5 -407.5t-336.5 -153.5z" />
<glyph unicode="&#x150;" horiz-adv-x="1511" d="M104 0zM964 1899h177l-235 -264h-106zM679 1899h177l-236 -264h-105zM756 78q220 0 333 168.5t113 498.5q0 331 -113 499.5t-333 168.5q-221 0 -333.5 -168.5t-112.5 -499.5q0 -330 112.5 -498.5t333.5 -168.5zM756 -29q-137 0 -251.5 50t-202.5 147q-100 112 -149 254 t-49 323t49 323.5t149 254.5q89 98 202 147.5t252 49.5q292 0 472 -213t180 -562q0 -179 -49 -322.5t-150 -254.5q-89 -98 -202 -147.5t-251 -49.5z" />
<glyph unicode="&#x151;" horiz-adv-x="1109" d="M92 0zM540 1638h153l-220 -376h-102zM837 1638h160l-258 -376h-105zM554 70q134 0 202 117t68 345t-68 344.5t-202 116.5q-133 0 -201 -116.5t-68 -344.5t68.5 -345t200.5 -117zM554 -29q-208 0 -335 153.5t-127 407.5t126.5 407t335.5 153q210 0 336.5 -153t126.5 -407 t-126.5 -407.5t-336.5 -153.5z" />
<glyph unicode="&#x152;" horiz-adv-x="2096" d="M1023 106v1280h-168q-263 0 -402.5 -164t-139.5 -472q0 -311 140 -477.5t402 -166.5h168zM1948 0h-1106q-346 0 -540.5 198t-194.5 552q0 351 194 547t541 196h1091v-332h-111v209h-617v-500h443v187h109v-496h-109v187h-443v-625h633v209h110v-332z" />
<glyph unicode="&#x153;" horiz-adv-x="1822" d="M554 70q134 0 202 117t68 345t-68 344.5t-202 116.5q-133 0 -201 -116.5t-68 -344.5t68.5 -345t200.5 -117zM1731 512h-714v-8q0 -215 73 -324.5t215 -109.5q109 0 178.5 63.5t97.5 188.5h133q-39 -175 -145.5 -263t-279.5 -88q-117 0 -210 49t-159 146 q-62 -96 -155.5 -145.5t-210.5 -49.5q-208 0 -335 153.5t-127 407.5t126.5 407t335.5 153q119 0 212 -49.5t156 -145.5q65 96 155 145.5t200 49.5q218 0 333.5 -148.5t120.5 -431.5zM1535 618q-5 186 -70 280.5t-188 94.5q-114 0 -180 -95t-80 -280h518z" />
<glyph unicode="&#x154;" horiz-adv-x="1387" d="M102 0zM749 1900h177l-236 -264h-105zM883 741q63 -19 108.5 -64.5t81.5 -127.5l195 -443h164v-106h-317l-210 475q-60 138 -110.5 178.5t-138.5 40.5h-201v-588h190v-106h-543v106h171v1280h-171v107h681q196 0 302.5 -104t106.5 -295q0 -154 -77.5 -242.5 t-231.5 -110.5zM455 801h266q136 0 200.5 71.5t64.5 221.5t-64.5 221t-200.5 71h-266v-585z" />
<glyph unicode="&#x155;" horiz-adv-x="881" d="M67 0zM654 1590h179l-306 -376h-105zM881 1065v-266h-95q-5 79 -40 118t-102 39q-123 0 -188 -94t-65 -270v-486h191v-106h-506v106h149v852h-158v105h324v-189q48 111 124.5 164.5t186.5 53.5q40 0 85 -7t94 -20z" />
<glyph unicode="&#x156;" horiz-adv-x="1387" d="M102 0zM628 -381q69 42 100.5 98t31.5 136v22h142q-6 -103 -59 -176q-52 -74 -157 -128zM883 741q63 -19 108.5 -64.5t81.5 -127.5l195 -443h164v-106h-317l-210 475q-60 138 -110.5 178.5t-138.5 40.5h-201v-588h190v-106h-543v106h171v1280h-171v107h681 q196 0 302.5 -104t106.5 -295q0 -154 -77.5 -242.5t-231.5 -110.5zM455 801h266q136 0 200.5 71.5t64.5 221.5t-64.5 221t-200.5 71h-266v-585z" />
<glyph unicode="&#x157;" horiz-adv-x="881" d="M67 0zM96 -381q69 42 100.5 98t31.5 136v22h142q-6 -103 -59 -176q-52 -74 -157 -128zM881 1065v-266h-95q-5 79 -40 118t-102 39q-123 0 -188 -94t-65 -270v-486h191v-106h-506v106h149v852h-158v105h324v-189q48 111 124.5 164.5t186.5 53.5q40 0 85 -7t94 -20z" />
<glyph unicode="&#x158;" horiz-adv-x="1387" d="M102 0zM883 741q63 -19 108.5 -64.5t81.5 -127.5l195 -443h164v-106h-317l-210 475q-60 138 -110.5 178.5t-138.5 40.5h-201v-588h190v-106h-543v106h171v1280h-171v107h681q196 0 302.5 -104t106.5 -295q0 -154 -77.5 -242.5t-231.5 -110.5zM455 801h266 q136 0 200.5 71.5t64.5 221.5t-64.5 221t-200.5 71h-266v-585zM579 1635l-208 264h104l183 -162l183 162h104l-208 -264h-158z" />
<glyph unicode="&#x159;" horiz-adv-x="881" d="M67 0zM881 1065v-266h-95q-5 79 -40 118t-102 39q-123 0 -188 -94t-65 -270v-486h191v-106h-506v106h149v852h-158v105h324v-189q48 111 124.5 164.5t186.5 53.5q40 0 85 -7t94 -20zM432 1262l-211 376h104l183 -260l183 260h104l-212 -376h-151z" />
<glyph unicode="&#x15a;" horiz-adv-x="1262" d="M155 0zM749 1900h177l-236 -264h-105zM171 72v340l103 -1q5 -170 89 -251.5t256 -81.5q160 0 244.5 70.5t84.5 205.5q0 108 -51 166t-215 113l-177 59q-193 65 -271.5 162t-78.5 266q0 190 121.5 295t340.5 105q94 0 205.5 -22.5t237.5 -65.5v-318h-102 q-15 158 -94.5 228.5t-242.5 70.5q-142 0 -216.5 -64.5t-74.5 -187.5q0 -107 56 -168t237 -121l166 -55q183 -61 261 -155.5t78 -253.5q0 -217 -125 -327t-373 -110q-111 0 -225.5 25t-233.5 76z" />
<glyph unicode="&#x15b;" horiz-adv-x="945" d="M104 0zM654 1590h179l-306 -376h-105zM104 59v248h95q3 -119 66.5 -178t188.5 -59q111 0 169.5 46.5t58.5 135.5q0 70 -42.5 113t-180.5 92l-120 45q-123 44 -178.5 110t-55.5 168q0 146 96.5 229t266.5 83q76 0 159.5 -22t172.5 -64v-232h-95q-4 103 -65 161t-167 58 q-104 0 -157.5 -41t-53.5 -123q0 -67 40.5 -107.5t161.5 -82.5l132 -45q136 -47 195.5 -117.5t59.5 -181.5q0 -151 -103.5 -237.5t-286.5 -86.5q-93 0 -181 22t-176 66z" />
<glyph unicode="&#x15c;" horiz-adv-x="1262" d="M155 0zM553 1899h158l208 -264h-104l-183 161l-183 -161h-104zM171 72v340l103 -1q5 -170 89 -251.5t256 -81.5q160 0 244.5 70.5t84.5 205.5q0 108 -51 166t-215 113l-177 59q-193 65 -271.5 162t-78.5 266q0 190 121.5 295t340.5 105q94 0 205.5 -22.5t237.5 -65.5 v-318h-102q-15 158 -94.5 228.5t-242.5 70.5q-142 0 -216.5 -64.5t-74.5 -187.5q0 -107 56 -168t237 -121l166 -55q183 -61 261 -155.5t78 -253.5q0 -217 -125 -327t-373 -110q-111 0 -225.5 25t-233.5 76z" />
<glyph unicode="&#x15d;" horiz-adv-x="945" d="M104 0zM398 1638h151l212 -376h-104l-183 260l-183 -260h-104zM104 59v248h95q3 -119 66.5 -178t188.5 -59q111 0 169.5 46.5t58.5 135.5q0 70 -42.5 113t-180.5 92l-120 45q-123 44 -178.5 110t-55.5 168q0 146 96.5 229t266.5 83q76 0 159.5 -22t172.5 -64v-232h-95 q-4 103 -65 161t-167 58q-104 0 -157.5 -41t-53.5 -123q0 -67 40.5 -107.5t161.5 -82.5l132 -45q136 -47 195.5 -117.5t59.5 -181.5q0 -151 -103.5 -237.5t-286.5 -86.5q-93 0 -181 22t-176 66z" />
<glyph unicode="&#x15e;" horiz-adv-x="1262" d="M155 0zM171 72v340l103 -1q5 -170 89 -251.5t256 -81.5q160 0 244.5 70.5t84.5 205.5q0 108 -51 166t-215 113l-177 59q-193 65 -271.5 162t-78.5 266q0 190 121.5 295t340.5 105q94 0 205.5 -22.5t237.5 -65.5v-318h-102q-15 158 -94.5 228.5t-242.5 70.5 q-142 0 -216.5 -64.5t-74.5 -187.5q0 -107 56 -168t237 -121l166 -55q183 -61 261 -155.5t78 -253.5q0 -217 -125 -327t-373 -110q-111 0 -225.5 25t-233.5 76zM691 0q58 -64 86 -120t28 -105q0 -81 -56.5 -125.5t-157.5 -44.5q-38 0 -77.5 6t-80.5 18v131 q37 -17 72.5 -25.5t66.5 -8.5q52 0 81.5 26.5t29.5 71.5q0 28 -20 72t-59 104h87z" />
<glyph unicode="&#x15f;" horiz-adv-x="945" d="M104 0zM104 59v248h95q3 -119 66.5 -178t188.5 -59q111 0 169.5 46.5t58.5 135.5q0 70 -42.5 113t-180.5 92l-120 45q-123 44 -178.5 110t-55.5 168q0 146 96.5 229t266.5 83q76 0 159.5 -22t172.5 -64v-232h-95q-4 103 -65 161t-167 58q-104 0 -157.5 -41t-53.5 -123 q0 -67 40.5 -107.5t161.5 -82.5l132 -45q136 -47 195.5 -117.5t59.5 -181.5q0 -151 -103.5 -237.5t-286.5 -86.5q-93 0 -181 22t-176 66zM533 0q58 -64 86 -120t28 -105q0 -81 -56.5 -125.5t-157.5 -44.5q-38 0 -77.5 6t-80.5 18v131q37 -17 72.5 -25.5t66.5 -8.5 q52 0 81.5 26.5t29.5 71.5q0 28 -20 72t-59 104h87z" />
<glyph unicode="&#x160;" horiz-adv-x="1262" d="M155 0zM171 72v340l103 -1q5 -170 89 -251.5t256 -81.5q160 0 244.5 70.5t84.5 205.5q0 108 -51 166t-215 113l-177 59q-193 65 -271.5 162t-78.5 266q0 190 121.5 295t340.5 105q94 0 205.5 -22.5t237.5 -65.5v-318h-102q-15 158 -94.5 228.5t-242.5 70.5 q-142 0 -216.5 -64.5t-74.5 -187.5q0 -107 56 -168t237 -121l166 -55q183 -61 261 -155.5t78 -253.5q0 -217 -125 -327t-373 -110q-111 0 -225.5 25t-233.5 76zM553 1635l-208 264h104l183 -162l183 162h104l-208 -264h-158z" />
<glyph unicode="&#x161;" horiz-adv-x="945" d="M104 0zM104 59v248h95q3 -119 66.5 -178t188.5 -59q111 0 169.5 46.5t58.5 135.5q0 70 -42.5 113t-180.5 92l-120 45q-123 44 -178.5 110t-55.5 168q0 146 96.5 229t266.5 83q76 0 159.5 -22t172.5 -64v-232h-95q-4 103 -65 161t-167 58q-104 0 -157.5 -41t-53.5 -123 q0 -67 40.5 -107.5t161.5 -82.5l132 -45q136 -47 195.5 -117.5t59.5 -181.5q0 -151 -103.5 -237.5t-286.5 -86.5q-93 0 -181 22t-176 66zM398 1262l-211 376h104l183 -260l183 260h104l-212 -376h-151z" />
<glyph unicode="&#x162;" horiz-adv-x="1229" d="M18 0zM652 0q58 -64 86 -120t28 -105q0 -81 -56.5 -125.5t-157.5 -44.5q-38 0 -77.5 6t-80.5 18v131q37 -17 72.5 -25.5t66.5 -8.5q52 0 81.5 26.5t29.5 71.5q0 28 -20 72t-59 104h87zM352 0v106h172v1268h-395v-233h-111v352h1193v-352h-110v233h-395v-1268h172v-106 h-526z" />
<glyph unicode="&#x163;" horiz-adv-x="740" d="M53 0zM493 0q58 -64 86 -120t28 -105q0 -81 -56.5 -125.5t-157.5 -44.5q-38 0 -77.5 6t-80.5 18v131q37 -17 72.5 -25.5t66.5 -8.5q52 0 81.5 26.5t29.5 71.5q0 28 -20 72t-59 104h87zM199 956h-146v107h146v330h166v-330h312v-107h-312v-675q0 -135 23.5 -173t86.5 -38 q65 0 94.5 42.5t31.5 137.5h125q-7 -145 -71 -212t-194 -67q-143 0 -202.5 70.5t-59.5 239.5v675z" />
<glyph unicode="&#x164;" horiz-adv-x="1229" d="M18 0zM352 0v106h172v1268h-395v-233h-111v352h1193v-352h-110v233h-395v-1268h172v-106h-526zM530 1635l-208 264h104l183 -162l183 162h104l-208 -264h-158z" />
<glyph unicode="&#x165;" horiz-adv-x="740" d="M53 0zM199 956h-146v107h146v330h166v-330h312v-107h-312v-675q0 -135 23.5 -173t86.5 -38q65 0 94.5 42.5t31.5 137.5h125q-7 -145 -71 -212t-194 -67q-143 0 -202.5 70.5t-59.5 239.5v675zM536 1613h179l-130 -376h-105z" />
<glyph unicode="&#x166;" horiz-adv-x="1229" d="M352 0v106h172v573h-240v119h240v576h-395v-233h-111v352h1193v-352h-110v233h-395v-576h239v-119h-239v-573h172v-106h-526z" />
<glyph unicode="&#x167;" horiz-adv-x="740" d="M199 956h-146v107h146v330h166v-330h312v-107h-312v-233h171v-142h-171v-300q0 -135 23.5 -173t86.5 -38q65 0 95 42q29 43 31 138h125q-7 -145 -71 -212t-194 -67q-143 0 -203 71q-59 70 -59 239v300h-122v142h122v233z" />
<glyph unicode="&#x168;" horiz-adv-x="1553" d="M86 0zM802 1715l-44 28q-18 13 -36.5 20t-33.5 7q-35 0 -58.5 -28.5t-26.5 -74.5l-87 1q2 100 48 159t122 59q33 0 60.5 -9t77.5 -40l44 -26q21 -13 40.5 -20t35.5 -7q37 0 58 27.5t21 74.5h87q-2 -105 -48 -162t-131 -57q-60 0 -125 45zM258 1386h-172v107h526v-107 h-172v-772q0 -286 84 -399t290 -113q207 0 291 113t84 399v772h-172v107h454v-107h-171v-792q0 -341 -118 -482t-401 -141q-282 0 -402.5 142t-120.5 481v792z" />
<glyph unicode="&#x169;" horiz-adv-x="1187" d="M50 0zM522 1370l-51 55q-24 24 -38.5 31.5t-31.5 7.5q-38 0 -59.5 -39.5t-26.5 -115.5h-86q2 135 47.5 208.5t127.5 73.5q35 0 63.5 -14t61.5 -47l52 -55q20 -23 35.5 -31t34.5 -8q39 0 60.5 40t24.5 115h87q-2 -135 -48 -208.5t-128 -73.5q-34 0 -63 14t-62 47z M652 1063h310v-957h157v-106h-323v188q-45 -106 -118 -161.5t-170 -55.5q-159 0 -234 100.5t-75 315.5v569h-149v107h315v-619q0 -194 43 -266t153 -72q115 0 175 94t60 273v483h-144v107z" />
<glyph unicode="&#x16a;" horiz-adv-x="1553" d="M86 0zM510 1842h538v-148h-538v148zM258 1386h-172v107h526v-107h-172v-772q0 -286 84 -399t290 -113q207 0 291 113t84 399v772h-172v107h454v-107h-171v-792q0 -341 -118 -482t-401 -141q-282 0 -402.5 142t-120.5 481v792z" />
<glyph unicode="&#x16b;" horiz-adv-x="1187" d="M50 0zM300 1526h538v-148h-538v148zM652 1063h310v-957h157v-106h-323v188q-45 -106 -118 -161.5t-170 -55.5q-159 0 -234 100.5t-75 315.5v569h-149v107h315v-619q0 -194 43 -266t153 -72q115 0 175 94t60 273v483h-144v107z" />
<glyph unicode="&#x16c;" horiz-adv-x="1553" d="M86 0zM533 1901h85q16 -55 64 -82t131 -27t131 27t64 82h85q-18 -117 -90 -179.5t-190 -62.5q-119 0 -190.5 62t-89.5 180zM258 1386h-172v107h526v-107h-172v-772q0 -286 84 -399t290 -113q207 0 291 113t84 399v772h-172v107h454v-107h-171v-792q0 -341 -118 -482 t-401 -141q-282 0 -402.5 142t-120.5 481v792z" />
<glyph unicode="&#x16d;" horiz-adv-x="1187" d="M50 0zM244 1608h87q11 -79 58 -114.5t137 -35.5t136.5 35.5t58.5 114.5h86q-8 -143 -79.5 -215t-201.5 -72q-131 0 -202 72t-80 215zM652 1063h310v-957h157v-106h-323v188q-45 -106 -118 -161.5t-170 -55.5q-159 0 -234 100.5t-75 315.5v569h-149v107h315v-619 q0 -194 43 -266t153 -72q115 0 175 94t60 273v483h-144v107z" />
<glyph unicode="&#x16e;" horiz-adv-x="1553" d="M86 0zM258 1386h-172v107h526v-107h-172v-772q0 -286 84 -399t290 -113q207 0 291 113t84 399v772h-172v107h454v-107h-171v-792q0 -341 -118 -482t-401 -141q-282 0 -402.5 142t-120.5 481v792zM1035 1879q0 -115 -71.5 -195t-174.5 -80q-104 0 -175.5 80t-71.5 195 t71.5 194.5t175.5 79.5q103 0 174.5 -79.5t71.5 -194.5zM926 1879q0 63 -40 107t-97 44q-59 0 -98 -43.5t-39 -107.5q0 -65 39 -108.5t98 -43.5q57 0 97 44t40 108z" />
<glyph unicode="&#x16f;" horiz-adv-x="1187" d="M50 0zM652 1063h310v-957h157v-106h-323v188q-45 -106 -118 -161.5t-170 -55.5q-159 0 -234 100.5t-75 315.5v569h-149v107h315v-619q0 -194 43 -266t153 -72q115 0 175 94t60 273v483h-144v107zM783 1504q0 -115 -71.5 -195t-174.5 -80q-104 0 -175.5 80t-71.5 195 t71.5 194.5t175.5 79.5q103 0 174.5 -79.5t71.5 -194.5zM674 1504q0 63 -40 107t-97 44q-59 0 -98 -43.5t-39 -107.5q0 -65 39 -108.5t98 -43.5q57 0 97 44t40 108z" />
<glyph unicode="&#x170;" horiz-adv-x="1553" d="M86 0zM1021 1899h177l-235 -264h-106zM736 1899h177l-236 -264h-105zM258 1386h-172v107h526v-107h-172v-772q0 -286 84 -399t290 -113q207 0 291 113t84 399v772h-172v107h454v-107h-171v-792q0 -341 -118 -482t-401 -141q-282 0 -402.5 142t-120.5 481v792z" />
<glyph unicode="&#x171;" horiz-adv-x="1187" d="M50 0zM492 1638h153l-220 -376h-102zM789 1638h160l-258 -376h-105zM652 1063h310v-957h157v-106h-323v188q-45 -106 -118 -161.5t-170 -55.5q-159 0 -234 100.5t-75 315.5v569h-149v107h315v-619q0 -194 43 -266t153 -72q115 0 175 94t60 273v483h-144v107z" />
<glyph unicode="&#x172;" horiz-adv-x="1553" d="M86 0zM258 1386h-172v107h526v-107h-172v-772q0 -286 84 -399t290 -113q207 0 291 113t84 399v772h-172v107h454v-107h-171v-792q0 -341 -118 -482t-401 -141q-282 0 -402.5 142t-120.5 481v792zM739 -16h85l-1 -2q-79 -123 -79 -170q0 -46 30.5 -74t80.5 -28 q24 0 50.5 6.5t52.5 19.5v-127q-33 -9 -63 -13.5t-59 -4.5q-102 0 -157.5 44.5t-55.5 125.5q0 49 27 101.5t89 121.5z" />
<glyph unicode="&#x173;" horiz-adv-x="1187" d="M50 0zM652 1063h310v-957h157v-106h-323v188q-45 -106 -118 -161.5t-170 -55.5q-159 0 -234 100.5t-75 315.5v569h-149v107h315v-619q0 -194 43 -266t153 -72q115 0 175 94t60 273v483h-144v107zM969 0h85l-1 -2q-79 -123 -79 -170q0 -46 30.5 -74t80.5 -28 q24 0 50.5 6.5t52.5 19.5v-127q-33 -9 -63 -13.5t-59 -4.5q-102 0 -157.5 44.5t-55.5 125.5q0 49 27 101.5t89 121.5z" />
<glyph unicode="&#x174;" horiz-adv-x="1894" d="M9 0zM869 1906h158l208 -264h-104l-183 161l-183 -161h-104zM1405 0h-148l-307 1214l-308 -1214h-148l-352 1386h-133v107h491v-107h-168l280 -1103l306 1210h146l311 -1223l282 1116h-155v107h387v-107h-132z" />
<glyph unicode="&#x175;" horiz-adv-x="1577" d="M30 0zM716 1638h151l212 -376h-104l-183 260l-183 -260h-104zM885 1063l245 -830l216 723h-139v107h346v-107h-106l-284 -956h-138l-236 795l-236 -795h-133l-283 956h-107v107h433v-107h-155l214 -723l247 830h116z" />
<glyph unicode="&#x176;" horiz-adv-x="1216" d="M0 0zM526 1906h158l208 -264h-104l-183 161l-183 -161h-104zM348 0v106h172v537l-415 743h-126v107h500v-107h-157l336 -604l336 604h-152v107h391v-107h-127l-404 -724v-556h172v-106h-526z" />
<glyph unicode="&#x177;" horiz-adv-x="1041" d="M0 0zM439 1638h151l212 -376h-104l-183 260l-183 -260h-104zM398 -195l63 177l-357 974h-109v107h440v-107h-153l269 -731l269 731h-143v107h359v-107h-107l-439 -1196q-44 -124 -99 -169.5t-155 -45.5q-42 0 -87 8t-90 23v203h85q5 -68 31 -97.5t80 -29.5q49 0 79 30.5 t64 122.5z" />
<glyph unicode="&#x178;" horiz-adv-x="1216" d="M0 0zM348 0v106h172v537l-415 743h-126v107h500v-107h-157l336 -604l336 604h-152v107h391v-107h-127l-404 -724v-556h172v-106h-526zM433 1884q43 0 74 -35t31 -81q0 -50 -30 -83.5t-75 -33.5q-44 0 -74.5 33.5t-30.5 83.5q0 46 31 81t74 35zM784 1884q42 0 73 -35 t31 -81q0 -50 -30 -83.5t-74 -33.5q-45 0 -75.5 33.5t-30.5 83.5q0 46 31.5 81t74.5 35z" />
<glyph unicode="&#x179;" horiz-adv-x="1280" d="M83 0zM749 1900h177l-236 -264h-105zM83 0v72l837 1298h-695v-223h-111v346h1062v-72l-837 -1298h760v209h110v-332h-1126z" />
<glyph unicode="&#x17a;" horiz-adv-x="971" d="M74 0zM654 1590h179l-306 -376h-105zM74 0v86l599 870h-474v-184h-95v291h782v-86l-599 -871h520v193h97v-299h-830z" />
<glyph unicode="&#x17b;" horiz-adv-x="1280" d="M83 0zM650 1904q43 0 74 -35t31 -81q0 -50 -30 -83.5t-75 -33.5t-75 33.5t-30 83.5q0 46 31.5 81t73.5 35zM83 0v72l837 1298h-695v-223h-111v346h1062v-72l-837 -1298h760v209h110v-332h-1126z" />
<glyph unicode="&#x17c;" horiz-adv-x="971" d="M74 0zM515 1503q43 0 74 -34.5t31 -82.5q0 -51 -29.5 -84t-75.5 -33t-75.5 33t-29.5 84q0 48 31 82.5t74 34.5zM74 0v86l599 870h-474v-184h-95v291h782v-86l-599 -871h520v193h97v-299h-830z" />
<glyph unicode="&#x17d;" horiz-adv-x="1280" d="M83 0zM83 0v72l837 1298h-695v-223h-111v346h1062v-72l-837 -1298h760v209h110v-332h-1126zM562 1635l-208 264h104l183 -162l183 162h104l-208 -264h-158z" />
<glyph unicode="&#x17e;" horiz-adv-x="971" d="M74 0zM74 0v86l599 870h-474v-184h-95v291h782v-86l-599 -871h520v193h97v-299h-830zM411 1262l-211 376h104l183 -260l183 260h104l-212 -376h-151z" />
<glyph unicode="&#x17f;" horiz-adv-x="682" d="M391 106h212v-106h-536v106h158v850h-158v107h158v133q0 178 83.5 269t244.5 91q60 0 120.5 -12t119.5 -37v-202h-87q-1 75 -38.5 114t-108.5 39q-93 0 -131 -56q-37 -59 -37 -202v-1094z" />
<glyph unicode="&#x180;" horiz-adv-x="1179" d="M212 106v1104h-158v122h158v118h-158v106h324v-224h284v-122h-284v-313q49 100 124 147.5t186 47.5q176 0 287.5 -155t111.5 -405t-111.5 -405.5t-287.5 -155.5q-111 0 -186 47.5t-124 147.5v-166h-325v106h159zM378 479q0 -192 66 -292.5t192 -100.5q127 0 192.5 113 t65.5 333q0 221 -65.5 333t-192.5 112q-126 0 -192 -101t-66 -292v-105z" />
<glyph unicode="&#x181;" horiz-adv-x="1354" d="M273 1386q-205 0 -266 -89q-64 -91 -64 -277h-116v344q92 76 254 112q103 17 192 17h492q202 0 306 -93q103 -92 103 -276q0 -133 -71 -212q-72 -79 -209 -97q172 -24 260 -121q88 -98 88 -262q0 -222 -126 -327t-393 -105h-621v106h171v1280zM455 862h229q148 0 216 63 t68 199q0 157 -68 200q-96 62 -216 62h-229v-524zM455 106h269q162 0 237 78t75 248q0 167 -75 246q-74 78 -237 78h-269v-650z" />
<glyph unicode="&#x182;" horiz-adv-x="1354" d="M102 0zM455 106h269q162 0 237 78t75 248q0 169 -74.5 246.5t-237.5 77.5h-269v-650zM102 1493h1081v-333h-111v210h-617v-508h229q342 0 450 -143t108 -287q0 -222 -126 -327t-393 -105h-621v106h171v1280h-171v107z" />
<glyph unicode="&#x183;" horiz-adv-x="1179" d="M378 479q0 -192 67 -293q65 -100 191 -100q127 0 192 113q66 113 66 333q0 221 -66 333q-65 112 -192 112q-126 0 -191 -101q-67 -101 -67 -292v-105zM911 1556v-267h-95v144h-438v-536q49 100 124 147q75 48 186 48q176 0 287.5 -155t111.5 -405t-111 -406 q-112 -155 -288 -155q-111 0 -186 47q-75 48 -124 148v-166h-325v106h159v1344h-159v106h858z" />
<glyph unicode="&#x184;" horiz-adv-x="1354" d="M455 106h269q162 0 237 78t75 248q0 169 -74.5 246.5t-237.5 77.5h-269v-650zM102 1098l353 395v-631h229q342 0 470 -168q88 -118 88 -262q0 -222 -126 -327t-393 -105h-621v106h171v886h-171v106z" />
<glyph unicode="&#x185;" horiz-adv-x="1179" d="M378 479q0 -192 66 -292.5t192 -100.5q127 0 192.5 113t65.5 333q0 221 -65.5 333t-192.5 112q-126 0 -192 -101t-66 -292v-105zM378 1556v-659q49 100 124 147.5t186 47.5q176 0 287.5 -155t111.5 -405t-111.5 -405.5t-287.5 -155.5q-111 0 -186 47.5t-124 147.5v-166 h-325v106h159v1019h-159v126z" />
<glyph unicode="&#x186;" horiz-adv-x="1410" d="M104 1096q59 209 199 316.5t354 107.5q131 0 243.5 -50t200.5 -147q101 -112 150 -254.5t49 -322.5q0 -348 -181 -561.5t-477 -213.5q-110 0 -234 32t-268 97v344h102q33 -188 133.5 -277t281.5 -89q215 0 326 169.5t111 498.5q0 328 -111 497.5t-326 169.5 q-150 0 -247.5 -79.5t-140.5 -237.5h-165z" />
<glyph unicode="&#x187;" horiz-adv-x="1410" d="M1300 395q-60 -209 -200 -317q-140 -107 -354 -107q-131 0 -243.5 50t-200.5 147q-100 112 -149 254q-49 143 -49 323q0 348 180 561q181 214 477 214q110 0 234 -32q89 -23 188 -63q0 87 73 145q67 60 170 60q64 0 124 -16q58 -17 114 -50v-219h-85q0 96 -45 141 q-38 45 -112 45q-82 0 -120.5 -61t-38.5 -191v-232h-102q-33 188 -133 277q-101 89 -282 89q-215 0 -326 -169q-110 -170 -110 -499q0 -328 110 -497q111 -170 326 -170q150 0 248 80q97 79 140 237h166z" />
<glyph unicode="&#x188;" horiz-adv-x="1032" d="M948 319q-35 -170 -135 -259t-259 -89q-208 0 -335 153q-127 154 -127 408q0 255 127 408q127 152 335 152q91 0 181 -24q44 -11 89 -29q16 144 90 216q54 53 165 53q65 0 123 -16q60 -17 116 -50v-219h-86q0 96 -44 141q-39 45 -112 45q-82 0 -122 -61q-38 -61 -38 -191 v-232h-96q-19 140 -82 204q-64 64 -182 64q-134 0 -202 -115q-69 -116 -69 -346t68 -346t203 -116q107 0 171 62t87 187h134z" />
<glyph unicode="&#x189;" horiz-adv-x="1487" d="M102 0zM463 106h169q262 0 402 166t140 476t-139.5 474t-402.5 164h-169v-542h302v-125h-302v-613zM111 0v106h171v613h-180v125h180v542h-171v107h534q348 0 542 -197t194 -548q0 -352 -194.5 -550t-541.5 -198h-534z" />
<glyph unicode="&#x18a;" horiz-adv-x="1477" d="M273 1386q-205 0 -266 -89q-64 -91 -64 -277h-116v344q124 103 254 112q85 17 192 17h363q348 0 541 -197q195 -197 195 -548q0 -352 -194.5 -550t-541.5 -198h-534v106h171v1280zM455 106h168q262 0 401 166q141 166 141 476t-139.5 474t-402.5 164h-168v-1280z" />
<glyph unicode="&#x18b;" horiz-adv-x="1354" d="M888 106v650h-269q-163 0 -237 -78q-74 -77 -74 -246q0 -170 74.5 -248t236.5 -78h269zM1242 1493v-107h-171v-1280h171v-106h-621q-267 0 -393 105t-126 327q0 144 88 262q128 168 470 168h228v508h-616v-209h-111v332h1081z" />
<glyph unicode="&#x18c;" horiz-adv-x="1179" d="M762 479v105q0 191 -65 292q-67 101 -193 101q-127 0 -193 -112q-64 -112 -64 -333q0 -220 64 -333q66 -113 193 -113q126 0 193 100q65 101 65 293zM230 1556h857v-106h-159v-1344h159v-106h-325v166q-48 -100 -123 -148q-76 -47 -186 -47q-177 0 -288 155 q-112 156 -112 406t111.5 405t288.5 155q110 0 186 -48q75 -47 123 -147v536h-438v-144h-94v267z" />
<glyph unicode="&#x18d;" horiz-adv-x="1109" d="M779 27q60 -25 89 -74q35 -56 35 -193q0 -129 -89 -197q-88 -67 -264 -67q-49 0 -142 16q-94 17 -195 48v197l97 25q11 -89 76 -135q65 -45 149.5 -45t146.5 49q66 52 63 118q0 95 -33 127q-69 75 -158 75q-209 0 -336 153q-126 153 -126 407t126 407q127 154 336 154 t336 -154q127 -153 127 -407t-126 -407q-57 -67 -112 -97zM554 993q-133 0 -201 -117t-68 -345t68 -345q68 -116 201.5 -116t201.5 116q68 117 68 345t-68.5 345t-201.5 117z" />
<glyph unicode="&#x18e;" horiz-adv-x="1345" d="M1198 0h-1096v332h110v-209h632v625h-440v-187h-111v496h111v-187h440v500h-617v-209h-111v332h1082v-107h-171v-1280h171v-106z" />
<glyph unicode="&#x18f;" horiz-adv-x="1511" d="M766 1413q-160 0 -258 -79q-97 -80 -140 -238h-166q60 209 199 316q141 108 355 108q292 0 472 -213t180 -562q0 -179 -49 -323q-49 -142 -150 -254q-89 -98 -202 -148q-113 -49 -251 -49q-137 0 -252 50q-114 50 -202 147q-100 112 -149 254t-49 323v71h1096 q0 279 -111 428q-113 169 -323 169zM1201 694h-891q0 -292 112 -448q113 -168 334 -168q220 0 333 168q112 156 112 448z" />
<glyph unicode="&#x190;" horiz-adv-x="1148" d="M1032 1430v-263h-100q-12 126 -79 190t-220 64t-218 -69.5t-65 -207.5q0 -139 77.5 -210.5t274.5 -71.5h45v-106h-85q-198 0 -279 -89.5t-81 -254.5t80 -253.5t203 -88.5t207 69t91 126h165q-33 -105 -141.5 -199.5t-324.5 -94.5q-217 0 -343.5 111.5t-126.5 320.5 q0 171 91.5 278.5t257.5 133.5q-141 32 -217.5 122.5t-76.5 225.5q0 168 111 262.5t353 94.5q186 0 401 -90z" />
<glyph unicode="&#x191;" horiz-adv-x="1278" d="M79 -426q-130 0 -262 68v235h103q0 -196 161 -196q107 0 149 75q44 77 43 293v1337h-171v107h1100v-332h-111v209h-636v-500h459v187h111v-496h-111v187h-459v-707q0 -313 -149 -412q-84 -55 -227 -55z" />
<glyph unicode="&#x192;" horiz-adv-x="682" d="M793 1305h-87q0 21 -4 40q-8 46 -34 74q-38 39 -109 39q-93 0 -131 -56q-37 -57 -37 -202v-137h267v-107h-267v-975q0 -178 -83 -269q-84 -91 -245 -91q-60 0 -120.5 12t-119.5 37v202h87q0 -21 4 -40q8 -46 34 -74q38 -39 109 -39q92 0 130 57q38 56 38 205v975h-158 v107h158v133q0 178 83 269q84 91 245 91q60 0 120.5 -12t119.5 -37v-202z" />
<glyph unicode="&#x193;" horiz-adv-x="1472" d="M1440 1531q-112 0 -145 -118q-14 -54 -14 -134v-232h-102v5q-47 267 -240 335q-73 26 -169 26q-232 0 -346 -166t-114 -502q0 -530 298 -640q75 -27 166 -27q203 0 371 112v385h-253v107h436v-557q-240 -154 -554 -154q-304 0 -488 211q-182 212 -182 563q0 354 183 565 q184 210 494 210q191 0 415 -84q23 77 78 134q57 60 170 60q126 0 238 -66v-219h-85q0 147 -99 177q-26 9 -58 9z" />
<glyph unicode="&#x194;" horiz-adv-x="1312" d="M553 733l-393 653h-144v107h533v-107h-158l288 -481l296 481h-173v107h440v-107h-151l-356 -575q500 -685 334 -855q-140 -144 -457 -144q-320 0 -374 200q-51 181 315 721zM612 636q-259 -378 -259 -580q0 -138 259 -138q245 0 245 138q0 212 -245 580z" />
<glyph unicode="&#x195;" horiz-adv-x="1718" d="M76 0v106h149v1344h-158v106h324v-682q45 108 118 163q74 55 171 55q161 0 234 -101q74 -103 74 -315v-325q0 -131 38 -191q39 -60 122 -61q112 0 213 130q82 107 82 297q0 154 -55 257q-55 102 -161 148v59h101q138 -64 218 -193q81 -130 81 -287q0 -111 -38 -207 q-38 -98 -111 -172q-65 -67 -150 -102q-85 -36 -180 -36q-148 0 -243 101q-83 83 -83 257v267q0 195 -43 266q-43 72 -153 72q-115 0 -175 -93t-60 -271v-486h144v-106h-459z" />
<glyph unicode="&#x196;" horiz-adv-x="728" d="M455 351q0 -131 38 -191q40 -61 122 -61h11v-99h-11q-181 0 -237 54q-105 101 -105 297v1035h-171v107h524v-107h-171v-1035z" />
<glyph unicode="&#x197;" horiz-adv-x="728" d="M455 106h171v-106h-524v106h171v522h-239v170h239v588h-171v107h524v-107h-171v-588h239v-170h-239v-522z" />
<glyph unicode="&#x198;" horiz-adv-x="1377" d="M1034 1386q134 131 246 131q60 0 119 -17q63 -18 115 -49v-219h-86q0 96 -44 141q-33 38 -88 43q-78 0 -146 -60l-543 -533l645 -717h153v-106h-312l-638 709v-603h171v-106h-524v106h171v1280h-171v107h524v-107h-171v-565z" />
<glyph unicode="&#x199;" horiz-adv-x="1116" d="M379 543l402 413h-137v107h432v-107h-163l-285 -292l364 -558h138v-106h-472v106h137l-287 437l-130 -135v-302h149v-106h-464v106h149v1099q0 162 89 257q87 94 241 94q69 0 124 -16q58 -17 114 -50v-219h-85q0 96 -45 141q-38 45 -112 45q-82 0 -120 -61 q-39 -59 -39 -191v-662z" />
<glyph unicode="&#x19a;" horiz-adv-x="589" d="M54 464v106h158v880h-159v106h325v-986h157v-106h-157v-358h157v-106h-482v106h159v358h-158z" />
<glyph unicode="&#x19b;" horiz-adv-x="1168" d="M479 1307q-33 92 -64 122q-32 31 -79 31q-54 0 -80 -29q-26 -30 -31 -98h-85v203q45 15 90 23q44 8 87 8q100 0 155 -46q54 -45 100 -169l132 98l54 -86l-150 -115l402 -1142h107v-107h-359v107h143l-255 734l-283 -734h153v-107h-440v107h108l372 977l-34 99l-240 -187 l-55 86l259 203z" />
<glyph unicode="&#x19c;" horiz-adv-x="1747" d="M809 207q-48 -117 -122 -176.5t-173 -59.5q-149 0 -224 103q-74 103 -74 313v1002h-149v106h459v-106h-144v-981q0 -163 43 -232t143 -69q111 0 169 93q58 94 58 271v918h-144v106h453v-106h-144v-988q0 -159 43.5 -226.5t143.5 -67.5q111 0 168 93q58 94 58 271v918 h-144v106h459v-106h-149v-1284h158v-105h-324v189q-45 -106 -116.5 -162t-161.5 -56q-111 0 -186 61.5t-100 174.5z" />
<glyph unicode="&#x19d;" horiz-adv-x="1612" d="M-184 -358v235h102q0 -99 42 -147q40 -49 119 -49q107 0 149.5 75t42.5 293v1337h-181v107h345l805 -1178v1071h-180v107h472v-107h-181v-1415h-109l-860 1257v-1187q0 -247 -89 -357t-261 -110q-18 0 -84 17q-67 17 -132 51z" />
<glyph unicode="&#x19e;" horiz-adv-x="1187" d="M76 0v106h149v850h-158v107h324v-189q45 108 118.5 163t170.5 55q159 0 233.5 -101t74.5 -315v-996h148v-106h-457v106h143v938q0 195 -43.5 267.5t-152.5 72.5q-115 0 -175 -93.5t-60 -272.5v-486h144v-106h-459z" />
<glyph unicode="&#x19f;" horiz-adv-x="1511" d="M756 -29q-137 0 -251.5 50t-202.5 147q-100 112 -149 254t-49 323t49 323.5t149 254.5q89 98 202 147.5t252 49.5q292 0 472 -213t180 -562q0 -179 -49 -323q-49 -142 -150 -254q-89 -98 -202 -148q-113 -49 -251 -49zM756 78q220 0 333 168q104 156 112 448h-891 q8 -292 112 -448q113 -168 334 -168zM1200 816q-11 279 -111 428q-113 169 -333 169q-221 0 -334 -169q-100 -149 -111 -428h889z" />
<glyph unicode="&#x1a0;" horiz-adv-x="1511" d="M100 0zM752 78q220 0 333 168.5t113 498.5q0 331 -113 499.5t-333 168.5q-221 0 -333.5 -168.5t-112.5 -499.5q0 -330 112.5 -498.5t333.5 -168.5zM752 -29q-137 0 -251.5 50t-202.5 147q-100 112 -149 254t-49 323t49 323.5t149 254.5q89 98 202 147.5t252 49.5 q292 0 472 -213t180 -562q0 -179 -49 -322.5t-150 -254.5q-89 -98 -202 -147.5t-251 -49.5zM1100 1313v94l2 -1q110 -87 153 -87q41 0 66 33.5t25 89.5q0 27 -5.5 56t-17.5 59l114 -1q8 -36 12.5 -69.5t4.5 -65.5q0 -113 -40.5 -175t-112.5 -62q-45 0 -92 30t-109 99z" />
<glyph unicode="&#x1a1;" horiz-adv-x="1109" d="M89 0zM551 70q134 0 202 117t68 345t-68 344.5t-202 116.5q-133 0 -201 -116.5t-68 -344.5t68.5 -345t200.5 -117zM551 -29q-208 0 -335 153.5t-127 407.5t126.5 407t335.5 153q210 0 336.5 -153t126.5 -407t-126.5 -407.5t-336.5 -153.5zM837 845v94l2 -1 q110 -87 153 -87q41 0 66 33.5t25 89.5q0 27 -5.5 56t-17.5 59l114 -1q8 -36 12.5 -69.5t4.5 -65.5q0 -113 -40.5 -175t-112.5 -62q-45 0 -92 30t-109 99z" />
<glyph unicode="&#x1a2;" horiz-adv-x="1916" d="M756 -29q-137 0 -251.5 50t-202.5 147q-100 112 -149 254t-49 323t49 323.5t149 254.5q89 98 202 147.5t252 49.5q183 0 323 -84q54 26 109 40q66 17 130 17q198 0 287 -110t89 -357v-1240h171v-107h-563v107h209v1232q0 218 -42.5 293t-149.5 75q-79 0 -118 -48 q14 -15 27 -31q180 -213 180 -562q0 -179 -49 -323q-49 -142 -150 -254q-89 -98 -202 -148q-113 -49 -251 -49zM756 78q220 0 333 168.5t113 498.5q0 331 -113 499.5t-333 168.5q-221 0 -333.5 -168.5t-112.5 -499.5q0 -330 112.5 -498.5t333.5 -168.5z" />
<glyph unicode="&#x1a3;" horiz-adv-x="1487" d="M782 1033q0 2 40 13q59 17 124 17q154 0 241.5 -93.5t87.5 -257.5v-1031h159v-107h-481v107h157v1031q0 129 -39.5 190.5t-120.5 61.5q-59 0 -70 -13l11 -12q126 -153 126 -407t-126.5 -407.5t-336.5 -153.5q-208 0 -335 153.5t-127 407.5t126.5 407t335.5 153 q130 0 228 -59zM554 70q134 0 202 117t68 345t-68 344.5t-201.5 116.5t-201.5 -116.5t-68 -344.5t68.5 -345t200.5 -117z" />
<glyph unicode="&#x1a4;" horiz-adv-x="1240" d="M273 1493h464q202 0 320 -113q117 -114 117 -307q0 -192 -117.5 -306t-319.5 -114h-282v-547h208v-106h-561v106h171v1280q-205 0 -266 -89q-64 -91 -64 -277h-116v344q88 73 254 112q103 17 192 17zM455 760h238q134 0 204 80q71 81 71 233q0 153 -70.5 233t-204.5 80 h-238v-626z" />
<glyph unicode="&#x1a5;" horiz-adv-x="1179" d="M378 584v-105q0 -192 67 -293q65 -100 191 -100q127 0 192 113q66 113 66 333q0 221 -66 333q-65 112 -192 112q-126 0 -191 -101q-67 -101 -67 -292zM212 1115q0 166 87 258q88 93 242 93q60 0 123 -17q60 -16 115 -49v-219h-85q0 96 -44 141q-39 45 -113 45 q-82 0 -121 -62q-38 -60 -38 -190v-218q49 100 124 147q75 48 186 48q176 0 287.5 -155t111.5 -405t-111 -406q-112 -155 -288 -155q-111 0 -186 47q-75 48 -124 148v-485h157v-107h-482v107h159v1434z" />
<glyph unicode="&#x1a6;" horiz-adv-x="1387" d="M273 1386h-171v107h543v-107h-190v-218h328q196 0 302.5 -104t106.5 -295q0 -154 -77.5 -242.5t-231.5 -110.5q63 -19 108 -64q46 -46 82 -128l195 -443h164v-106h-317l-210 475q-61 139 -110 178q-51 41 -139 41h-201v-263h190v-106h-543v106h171v1280zM455 476h266 q136 0 200.5 71.5t64.5 221.5t-64.5 221t-200.5 71h-266v-585z" />
<glyph unicode="&#x1a7;" horiz-adv-x="1262" d="M1112 72q-119 -51 -234 -76t-226 -25q-247 0 -372 110t-125 327q0 159 77 254q78 94 261 155l167 55q181 60 236.5 121t55.5 168q0 123 -74 187q-74 65 -216 65q-163 0 -243 -71q-80 -70 -95 -228h-102v318q126 43 238 66q112 22 205 22q220 0 341.5 -105t121.5 -295 q0 -169 -79 -266t-271 -162l-178 -59q-164 -55 -215 -113q-50 -58 -50 -166q0 -135 84 -206q84 -70 244 -70q172 0 257 82q84 81 88 252h104v-340z" />
<glyph unicode="&#x1a8;" horiz-adv-x="945" d="M851 59q-88 -44 -176 -66t-181 -22q-183 0 -287 87q-103 86 -103 237q0 111 60 181q59 71 195 118l131 45q122 42 162 83q41 40 41 107q0 82 -54 123q-53 41 -157 41q-106 0 -167 -58t-65 -161h-95v232q89 42 172.5 64t159.5 22q170 0 266.5 -83t96.5 -229 q0 -102 -56 -168q-55 -66 -178 -110l-120 -45q-138 -49 -181 -92q-42 -43 -42 -113q0 -89 58 -136q59 -46 170 -46q125 0 188 59t67 178h95v-248z" />
<glyph unicode="&#x1a9;" horiz-adv-x="1303" d="M75 0zM864 814l-498 -626h702v144h111v-332h-1104l597 748l-597 745h1104v-332h-111v209h-625z" />
<glyph unicode="&#x1aa;" horiz-adv-x="597" d="M162 1459q-143 0 -143 -107q0 -123 280 -123q12 0 25 1q7 95 -40 167q-42 62 -122 62zM480 1333q28 61 28 156v64h90l-1 -64q-3 -220 -113 -306q-80 -540 -177 -1288q-14 -109 39 -190q38 -62 120 -62q74 0 113 46q38 44 44 140h85v-218q-55 -34 -114 -50t-124 -16 q-154 0 -241 93q-108 115 -89 257q-4 14 171 1234h-9q-484 0 -479 230q3 199 341 199q145 0 237 -93q58 -61 79 -132z" />
<glyph unicode="&#x1ab;" horiz-adv-x="740" d="M199 956h-146v107h146v330h166v-330h312v-107h-312v-675q0 -135 23.5 -173t86.5 -38q65 0 94.5 42.5t31.5 137.5h125v-354q0 -164 -87.5 -257.5t-241.5 -93.5q-65 0 -124 16.5t-115 49.5v219h86q6 -96 44.5 -141t111.5 -45q82 0 122 62q38 60 38 190v87q-44 -12 -99 -12 q-143 0 -202.5 70.5t-59.5 239.5v675z" />
<glyph unicode="&#x1ac;" horiz-adv-x="1229" d="M524 1493h687v-352h-110v233h-395v-1268h172v-106h-526v106h172v1268q-204 0 -267 -89q-63 -91 -63 -277h-116v356q92 76 254 112q108 17 192 17z" />
<glyph unicode="&#x1ad;" horiz-adv-x="740" d="M365 1063h312v-107h-312v-675q0 -135 23.5 -173t86.5 -38q65 0 95 42q29 43 31 138h125q0 -145 -71 -212q-64 -67 -194 -67q-143 0 -203 71q-59 70 -59 239v675h-146v107h146v142q0 162 88 257q87 94 241 94q70 0 124 -16q59 -17 115 -50v-219h-86q0 96 -45 141 q-38 45 -111 45q-82 0 -121 -61q-39 -59 -39 -191v-142z" />
<glyph unicode="&#x1ae;" horiz-adv-x="1229" d="M1161 -358q-66 -34 -131 -51q-67 -17 -131 -17q-198 0 -287 110t-88 357v1333h-395v-233h-111v352h1193v-352h-110v233h-395v-1325q0 -215 42 -293q40 -75 149 -75q79 0 119 49q40 48 42 147h103v-235z" />
<glyph unicode="&#x1af;" horiz-adv-x="1553" d="M81 0zM253 1386h-172v107h526v-107h-172v-772q0 -286 84 -399t290 -113q207 0 291 113t84 399v772h-172v107h454v-107h-171v-792q0 -341 -118 -482t-401 -141q-282 0 -402.5 142t-120.5 481v792zM1274 1313v94l2 -1q110 -87 153 -87q41 0 66 33.5t25 89.5q0 27 -5.5 56 t-17.5 59l114 -1q8 -36 12.5 -69.5t4.5 -65.5q0 -113 -40.5 -175t-112.5 -62q-45 0 -92 30t-109 99z" />
<glyph unicode="&#x1b0;" horiz-adv-x="1187" d="M40 0zM642 1063h310v-957h157v-106h-323v188q-45 -106 -118 -161.5t-170 -55.5q-159 0 -234 100.5t-75 315.5v569h-149v107h315v-619q0 -194 43 -266t153 -72q115 0 175 94t60 273v483h-144v107zM914 845v94l2 -1q110 -87 153 -87q41 0 66 33.5t25 89.5q0 27 -5.5 56 t-17.5 59l114 -1q8 -36 12.5 -69.5t4.5 -65.5q0 -113 -40.5 -175t-112.5 -62q-45 0 -92 30t-109 99z" />
<glyph unicode="&#x1b1;" horiz-adv-x="1528" d="M522 1356h-302v-137h-106v301h533v-182q-162 -70 -246 -226q-82 -155 -82 -387q0 -279 123 -449q123 -169 323 -169t323 169q123 170 123 449q0 233 -82.5 388t-243.5 225v182h531v-301h-106v137h-300q188 -87 298 -263t110 -390q0 -151 -52 -282t-151 -234 q-89 -91 -204 -139t-246 -48t-245 48q-114 47 -203 139q-100 103 -152 235q-53 131 -53 281q0 213 111 389q110 177 299 264z" />
<glyph unicode="&#x1b2;" horiz-adv-x="1400" d="M637 0q-191 -11 -259 54q-105 101 -105 297v1035h-171v107h524v-107h-171v-1035q0 -125 38 -191q27 -47 144 -53q193 -9 323 169q124 170 124 449q0 249 -83 388q-79 131 -216 159v114h97v0q199 -83 295 -258q113 -208 113 -425q0 -151 -52 -282q-53 -134 -151 -234 q-89 -91 -204 -139q-94 -39 -246 -48z" />
<glyph unicode="&#x1b3;" horiz-adv-x="1360" d="M702 106h172v-106h-526v106h172v537l-415 743h-126v107h500v-107h-157l336 -604l336 604q116 107 239 107q60 0 123 -17q60 -16 116 -49v-219h-86q-6 96 -44 141q-39 45 -113 45q-113 0 -159 -72l-368 -660v-556z" />
<glyph unicode="&#x1b4;" horiz-adv-x="1221" d="M883 825l-393 -1065q-44 -124 -99 -169.5t-155 -45.5q-42 0 -87 8t-90 23v203h85q5 -68 31 -97.5t80 -29.5q49 0 79 30.5t64 122.5l63 177l-357 974h-109v107h440v-107h-153l269 -731l239 645q45 124 100 169.5t155 45.5q42 0 86.5 -8t89.5 -23v-203h-84 q-6 68 -31.5 97.5t-79.5 29.5q-50 0 -80 -30.5t-63 -122.5z" />
<glyph unicode="&#x1b5;" horiz-adv-x="1280" d="M1063 798v-170h-398l-326 -505h760v209h110v-332h-1126v72l358 556h-223v170h333l369 572h-695v-223h-111v346h1062v-72l-401 -623h288z" />
<glyph unicode="&#x1b6;" horiz-adv-x="971" d="M245 464v106h163l265 386h-474v-184h-95v291h782v-86l-279 -407h118v-106h-191l-247 -358h520v193h97v-299h-830v86l260 378h-89z" />
<glyph unicode="&#x1b7;" horiz-adv-x="1040" d="M475 852h-85v102l309 416h-474v-223h-111v346h786v-125l-332 -445l71 -7q166 -29 257 -150q91 -120 91 -312q0 -234 -127 -359q-126 -124 -363 -124q-105 0 -205 28q-101 28 -200 85v324h101q9 -161 87 -244t220 -83q138 0 218 100q79 99 79 271q0 197 -81 299 q-82 101 -241 101z" />
<glyph unicode="&#x1b8;" horiz-adv-x="1040" d="M604 852q-158 0 -240 -101q-82 -102 -82 -299q0 -172 79 -271q80 -100 218 -100q142 0 220.5 83t86.5 244h101v-324q-99 -57 -199 -85t-206 -28q-237 0 -363 124q-127 125 -127 359q0 192 91 312q91 121 257 150l71 7l-332 445v125h786v-346h-111v223h-474l309 -416v-102 h-85z" />
<glyph unicode="&#x1b9;" horiz-adv-x="1040" d="M604 423q-158 0 -240 -101q-82 -102 -82 -299q0 -172 79 -271q80 -100 218 -100q142 0 220.5 83t86.5 244h101v-324q-99 -57 -199 -85t-206 -28q-237 0 -363 124q-127 125 -127 359q0 192 91 312q91 121 257 150l71 7l-332 483v86h783v-291h-95v184h-475l297 -431v-102 h-85z" />
<glyph unicode="&#x1bb;" horiz-adv-x="1172" d="M236 1137h-101v266q96 57 194 87t191 30q210 0 331.5 -113t121.5 -307q0 -135 -105 -302h141v-170h-266l-417 -464h560v184h106v-348h-867v109l408 452q30 34 57 67h-426v170h542l19 38q58 126 58 264q0 151 -70 236q-71 85 -195 85q-129 0 -199 -71q-83 -71 -83 -213z " />
<glyph unicode="&#x1bc;" horiz-adv-x="1265" d="M780 840q166 -26 257.5 -133.5t91.5 -303.5q0 -209 -126.5 -320.5t-364.5 -111.5q-105 0 -205.5 25t-199.5 76v290h101q9 -144 87.5 -218t220.5 -74q137 0 217 88.5t80 242.5q0 176 -82 266.5t-241 90.5h-343v628h-171v107h976v-332h-110v209h-513v-510h121q77 0 204 -20 z" />
<glyph unicode="&#x1bd;" horiz-adv-x="1040" d="M475 525l164 -21q166 -29 257 -150q91 -120 91 -329q0 -234 -127 -359q-126 -124 -363 -124q-105 0 -205 28q-102 28 -200 85v324h101q9 -161 87 -244t220 -83q138 0 218 100q79 99 79 271q0 197 -81 299q-82 101 -241 101h-281v535h-159v105h858v-267h-95v144h-438v-415 h115z" />
<glyph unicode="&#x1be;" horiz-adv-x="988" d="M358 1393h166v-329h156v-106h-156v-171q102 -8 176 -85q88 -94 88 -322q0 -224 -88 -317q-87 -93 -241 -93q-65 0 -124 16t-115 50v218h86q6 -96 45 -140q38 -46 112 -46q82 0 120 62q39 60 39 250q0 194 -39 254q-38 62 -120 62h-105v262h-158v106h158v329z" />
<glyph unicode="&#x1c0;" horiz-adv-x="543" d="M345 1493v-1493h-146v1493h146z" />
<glyph unicode="&#x1c1;" horiz-adv-x="907" d="M199 0zM709 1493v-1493h-146v1493h146zM345 1493v-1493h-146v1493h146z" />
<glyph unicode="&#x1c2;" horiz-adv-x="846" d="M350 851h-334v162h334v480h146v-480h334v-162h-334v-209h334v-162h-334v-480h-146v480h-334v162h334v209z" />
<glyph unicode="&#x1c3;" horiz-adv-x="543" d="M345 156v-156h-146v156h146zM345 1493v-1181h-146v1181h146z" />
<glyph unicode="&#x1c4;" horiz-adv-x="2758" d="M102 0zM1561 0zM1561 0v72l837 1298h-695v-223h-111v346h1062v-72l-837 -1298h760v209h110v-332h-1126zM2040 1635l-208 264h104l183 -162l183 162h104l-208 -264h-158zM455 106h168q262 0 402 166t140 476t-139.5 474t-402.5 164h-168v-1280zM102 0v106h171v1280h-171 v107h534q348 0 542 -197t194 -548q0 -352 -194.5 -550t-541.5 -198h-534z" />
<glyph unicode="&#x1c5;" horiz-adv-x="2448" d="M102 0zM1552 0zM1552 0v86l599 870h-474v-184h-95v291h782v-86l-599 -871h520v193h97v-299h-830zM1889 1262l-211 376h104l183 -260l183 260h104l-212 -376h-151zM455 106h168q262 0 402 166t140 476t-139.5 474t-402.5 164h-168v-1280zM102 0v106h171v1280h-171v107h534 q348 0 542 -197t194 -548q0 -352 -194.5 -550t-541.5 -198h-534z" />
<glyph unicode="&#x1c6;" horiz-adv-x="2151" d="M92 0zM1254 0zM1254 0v86l599 870h-474v-184h-95v291h782v-86l-599 -871h520v193h97v-299h-830zM1591 1262l-211 376h104l183 -260l183 260h104l-212 -376h-151zM968 106h158v-106h-324v166q-49 -100 -124 -147.5t-186 -47.5q-176 0 -288 155.5t-112 405.5t111.5 405 t288.5 155q111 0 186 -47.5t124 -147.5v553h-157v106h323v-1450zM802 479v105q0 191 -66 292t-192 101q-128 0 -193.5 -112t-65.5 -333q0 -220 65.5 -333t193.5 -113q126 0 192 100.5t66 292.5z" />
<glyph unicode="&#x1c7;" horiz-adv-x="1962" d="M102 0zM1069 -358v235h103q2 -99 42 -147.5t119 -48.5q107 0 149.5 75t42.5 293v1337h-209v107h562v-107h-171v-1345q0 -247 -89 -357t-287 -110q-64 0 -130 17t-132 51zM102 0v106h171v1280h-171v107h524v-107h-171v-1263h614v250h111v-373h-1078z" />
<glyph unicode="&#x1c8;" horiz-adv-x="1795" d="M102 0zM1408 1393q0 46 30.5 80t72.5 34q41 0 71.5 -34t30.5 -80q0 -47 -29.5 -80t-72.5 -33q-42 0 -72.5 33t-30.5 80zM1449 956h-157v107h323v-1167q0 -164 -88 -257.5t-242 -93.5q-65 0 -124 16.5t-114 49.5v219h85q6 -96 44.5 -141t112.5 -45q82 0 121 61.5t39 190.5 v1060zM102 0v106h171v1280h-171v107h524v-107h-171v-1263h614v250h111v-373h-1078z" />
<glyph unicode="&#x1c9;" horiz-adv-x="1161" d="M53 0zM774 1393q0 46 30.5 80t72.5 34q41 0 71.5 -34t30.5 -80q0 -47 -29.5 -80t-72.5 -33q-42 0 -72.5 33t-30.5 80zM815 956h-157v107h323v-1167q0 -164 -88 -257.5t-242 -93.5q-65 0 -124 16.5t-114 49.5v219h85q6 -96 44.5 -141t112.5 -45q82 0 121 61.5t39 190.5 v1060zM378 106h157v-106h-482v106h159v1344h-159v106h325v-1450z" />
<glyph unicode="&#x1ca;" horiz-adv-x="2351" d="M90 0zM1458 -358v235h103q2 -99 42 -147.5t119 -48.5q107 0 149.5 75t42.5 293v1337h-209v107h562v-107h-171v-1345q0 -247 -89 -357t-287 -110q-64 0 -130 17t-132 51zM90 0v106h181v1280h-181v107h345l805 -1178v1071h-180v107h472v-107h-181v-1415h-109l-860 1258 v-1123h180v-106h-472z" />
<glyph unicode="&#x1cb;" horiz-adv-x="2184" d="M90 0zM1797 1393q0 46 30.5 80t72.5 34q41 0 71.5 -34t30.5 -80q0 -47 -29.5 -80t-72.5 -33q-42 0 -72.5 33t-30.5 80zM1838 956h-157v107h323v-1167q0 -164 -88 -257.5t-242 -93.5q-65 0 -124 16.5t-114 49.5v219h85q6 -96 44.5 -141t112.5 -45q82 0 121 61.5t39 190.5 v1060zM90 0v106h181v1280h-181v107h345l805 -1178v1071h-180v107h472v-107h-181v-1415h-109l-860 1258v-1123h180v-106h-472z" />
<glyph unicode="&#x1cc;" horiz-adv-x="1758" d="M67 0zM1371 1393q0 46 30.5 80t72.5 34q41 0 71.5 -34t30.5 -80q0 -47 -29.5 -80t-72.5 -33q-42 0 -72.5 33t-30.5 80zM1412 956h-157v107h323v-1167q0 -164 -88 -257.5t-242 -93.5q-65 0 -124 16.5t-114 49.5v219h85q6 -96 44.5 -141t112.5 -45q82 0 121 61.5t39 190.5 v1060zM76 0v106h149v850h-158v107h324v-189q45 108 118.5 163t170.5 55q159 0 233.5 -101t74.5 -315v-570h148v-106h-457v106h143v512q0 195 -43.5 267.5t-152.5 72.5q-115 0 -175 -93.5t-60 -272.5v-486h144v-106h-459z" />
<glyph unicode="&#x1cd;" horiz-adv-x="1331" d="M0 0zM369 541h493l-246 710zM-11 0v106h118l479 1387h151l480 -1387h132v-106h-489v106h150l-113 328h-565l-112 -328h147v-106h-378zM584 1635l-208 264h104l183 -162l183 162h104l-208 -264h-158z" />
<glyph unicode="&#x1ce;" horiz-adv-x="1098" d="M92 0zM734 334v225h-214q-123 0 -183.5 -59t-60.5 -181q0 -111 61.5 -176t165.5 -65t167.5 71t63.5 185zM899 664v-558h148v-106h-313v115q-55 -74 -127 -109t-169 -35q-159 0 -252.5 94t-93.5 254q0 165 107 256t302 91h233v73q0 121 -66.5 187.5t-185.5 66.5 q-100 0 -158 -50t-73 -148h-85v215q86 41 167.5 61.5t158.5 20.5q199 0 303 -109.5t104 -318.5zM435 1262l-211 376h104l183 -260l183 260h104l-212 -376h-151z" />
<glyph unicode="&#x1cf;" horiz-adv-x="728" d="M77 0zM455 106h171v-106h-524v106h171v1280h-171v107h524v-107h-171v-1280zM285 1635l-208 264h104l183 -162l183 162h104l-208 -264h-158z" />
<glyph unicode="&#x1d0;" horiz-adv-x="589" d="M8 0zM391 106h156v-106h-480v106h158v850h-158v107h324v-957zM219 1262l-211 376h104l183 -260l183 260h104l-212 -376h-151z" />
<glyph unicode="&#x1d1;" horiz-adv-x="1511" d="M104 0zM756 78q220 0 333 168.5t113 498.5q0 331 -113 499.5t-333 168.5q-221 0 -333.5 -168.5t-112.5 -499.5q0 -330 112.5 -498.5t333.5 -168.5zM756 -29q-137 0 -251.5 50t-202.5 147q-100 112 -149 254t-49 323t49 323.5t149 254.5q89 98 202 147.5t252 49.5 q292 0 472 -213t180 -562q0 -179 -49 -322.5t-150 -254.5q-89 -98 -202 -147.5t-251 -49.5zM676 1635l-208 264h104l183 -162l183 162h104l-208 -264h-158z" />
<glyph unicode="&#x1d2;" horiz-adv-x="1109" d="M92 0zM554 70q134 0 202 117t68 345t-68 344.5t-202 116.5q-133 0 -201 -116.5t-68 -344.5t68.5 -345t200.5 -117zM554 -29q-208 0 -335 153.5t-127 407.5t126.5 407t335.5 153q210 0 336.5 -153t126.5 -407t-126.5 -407.5t-336.5 -153.5zM478 1262l-211 376h104 l183 -260l183 260h104l-212 -376h-151z" />
<glyph unicode="&#x1d3;" horiz-adv-x="1553" d="M86 0zM258 1386h-172v107h526v-107h-172v-772q0 -286 84 -399t290 -113q207 0 291 113t84 399v772h-172v107h454v-107h-171v-792q0 -341 -118 -482t-401 -141q-282 0 -402.5 142t-120.5 481v792zM734 1635l-208 264h104l183 -162l183 162h104l-208 -264h-158z" />
<glyph unicode="&#x1d4;" horiz-adv-x="1187" d="M50 0zM652 1063h310v-957h157v-106h-323v188q-45 -106 -118 -161.5t-170 -55.5q-159 0 -234 100.5t-75 315.5v569h-149v107h315v-619q0 -194 43 -266t153 -72q115 0 175 94t60 273v483h-144v107zM449 1262l-211 376h104l183 -260l183 260h104l-212 -376h-151z" />
<glyph unicode="&#x1d5;" horiz-adv-x="1553" d="M86 0zM542 2215h538v-148h-538v148zM86 0zM258 1386h-172v107h526v-107h-172v-772q0 -286 84 -399t290 -113q207 0 291 113t84 399v772h-172v107h454v-107h-171v-792q0 -341 -118 -482t-401 -141q-282 0 -402.5 142t-120.5 481v792zM638 1884q43 0 74 -35t31 -81 q0 -50 -30 -83.5t-75 -33.5q-44 0 -74.5 33.5t-30.5 83.5q0 46 31 81t74 35zM989 1884q42 0 73 -35t31 -81q0 -50 -30 -83.5t-74 -33.5q-45 0 -75.5 33.5t-30.5 83.5q0 46 31.5 81t74.5 35z" />
<glyph unicode="&#x1d6;" horiz-adv-x="1187" d="M50 0zM257 1842h538v-148h-538v148zM50 0zM652 1063h310v-957h157v-106h-323v188q-45 -106 -118 -161.5t-170 -55.5q-159 0 -234 100.5t-75 315.5v569h-149v107h315v-619q0 -194 43 -266t153 -72q115 0 175 94t60 273v483h-144v107zM350 1569q43 0 74.5 -34.5t31.5 -82.5 q0 -51 -30 -84t-76 -33q-45 0 -74.5 33t-29.5 84q0 48 31 82.5t73 34.5zM701 1569q43 0 74 -34.5t31 -82.5q0 -51 -30 -84t-75 -33q-46 0 -75.5 33t-29.5 84q0 48 31 82.5t74 34.5z" />
<glyph unicode="&#x1d7;" horiz-adv-x="1553" d="M86 0zM870 2245h177l-236 -264h-105zM86 0zM258 1386h-172v107h526v-107h-172v-772q0 -286 84 -399t290 -113q207 0 291 113t84 399v772h-172v107h454v-107h-171v-792q0 -341 -118 -482t-401 -141q-282 0 -402.5 142t-120.5 481v792zM638 1884q43 0 74 -35t31 -81 q0 -50 -30 -83.5t-75 -33.5q-44 0 -74.5 33.5t-30.5 83.5q0 46 31 81t74 35zM989 1884q42 0 73 -35t31 -81q0 -50 -30 -83.5t-74 -33.5q-45 0 -75.5 33.5t-30.5 83.5q0 46 31.5 81t74.5 35z" />
<glyph unicode="&#x1d8;" horiz-adv-x="1187" d="M50 0zM831 1634zM652 2010h179l-306 -376h-105zM50 0zM652 1063h310v-957h157v-106h-323v188q-45 -106 -118 -161.5t-170 -55.5q-159 0 -234 100.5t-75 315.5v569h-149v107h315v-619q0 -194 43 -266t153 -72q115 0 175 94t60 273v483h-144v107zM350 1569q43 0 74.5 -34.5 t31.5 -82.5q0 -51 -30 -84t-76 -33q-45 0 -74.5 33t-29.5 84q0 48 31 82.5t73 34.5zM701 1569q43 0 74 -34.5t31 -82.5q0 -51 -30 -84t-75 -33q-46 0 -75.5 33t-29.5 84q0 48 31 82.5t74 34.5z" />
<glyph unicode="&#x1d9;" horiz-adv-x="1553" d="M86 0zM734 1981l-208 264h104l183 -162l183 162h104l-208 -264h-158zM86 0zM258 1386h-172v107h526v-107h-172v-772q0 -286 84 -399t290 -113q207 0 291 113t84 399v772h-172v107h454v-107h-171v-792q0 -341 -118 -482t-401 -141q-282 0 -402.5 142t-120.5 481v792z M638 1884q43 0 74 -35t31 -81q0 -50 -30 -83.5t-75 -33.5q-44 0 -74.5 33.5t-30.5 83.5q0 46 31 81t74 35zM989 1884q42 0 73 -35t31 -81q0 -50 -30 -83.5t-74 -33.5q-45 0 -75.5 33.5t-30.5 83.5q0 46 31.5 81t74.5 35z" />
<glyph unicode="&#x1da;" horiz-adv-x="1187" d="M50 0zM814 1634zM451 1634l-211 376h104l183 -260l183 260h104l-212 -376h-151zM50 0zM652 1063h310v-957h157v-106h-323v188q-45 -106 -118 -161.5t-170 -55.5q-159 0 -234 100.5t-75 315.5v569h-149v107h315v-619q0 -194 43 -266t153 -72q115 0 175 94t60 273v483h-144 v107zM350 1569q43 0 74.5 -34.5t31.5 -82.5q0 -51 -30 -84t-76 -33q-45 0 -74.5 33t-29.5 84q0 48 31 82.5t73 34.5zM701 1569q43 0 74 -34.5t31 -82.5q0 -51 -30 -84t-75 -33q-46 0 -75.5 33t-29.5 84q0 48 31 82.5t74 34.5z" />
<glyph unicode="&#x1db;" horiz-adv-x="1553" d="M86 0zM750 2245l165 -264h-105l-236 264h176zM86 0zM258 1386h-172v107h526v-107h-172v-772q0 -286 84 -399t290 -113q207 0 291 113t84 399v772h-172v107h454v-107h-171v-792q0 -341 -118 -482t-401 -141q-282 0 -402.5 142t-120.5 481v792zM638 1884q43 0 74 -35 t31 -81q0 -50 -30 -83.5t-75 -33.5q-44 0 -74.5 33.5t-30.5 83.5q0 46 31 81t74 35zM989 1884q42 0 73 -35t31 -81q0 -50 -30 -83.5t-74 -33.5q-45 0 -75.5 33.5t-30.5 83.5q0 46 31.5 81t74.5 35z" />
<glyph unicode="&#x1dc;" horiz-adv-x="1187" d="M50 0zM636 1632zM402 2008l234 -376h-105l-306 376h177zM50 0zM652 1063h310v-957h157v-106h-323v188q-45 -106 -118 -161.5t-170 -55.5q-159 0 -234 100.5t-75 315.5v569h-149v107h315v-619q0 -194 43 -266t153 -72q115 0 175 94t60 273v483h-144v107zM350 1569 q43 0 74.5 -34.5t31.5 -82.5q0 -51 -30 -84t-76 -33q-45 0 -74.5 33t-29.5 84q0 48 31 82.5t73 34.5zM701 1569q43 0 74 -34.5t31 -82.5q0 -51 -30 -84t-75 -33q-46 0 -75.5 33t-29.5 84q0 48 31 82.5t74 34.5z" />
<glyph unicode="&#x1dd;" horiz-adv-x="1090" d="M92 0zM92 551h714v8q0 215 -73 325q-73 109 -215 109q-109 0 -180 -63q-69 -64 -97 -189h-133q40 175 146 263q107 88 281 88q209 0 336 -154q128 -153 128 -407q0 -252 -125 -406t-329 -154q-217 0 -333 149q-116 148 -120 431zM287 445q5 -186 71 -281q65 -94 187 -94 q115 0 180.5 95t80.5 280h-519z" />
<glyph unicode="&#x1de;" horiz-adv-x="1331" d="M0 0zM396 2215h538v-148h-538v148zM0 0zM369 541h493l-246 710zM-11 0v106h118l479 1387h151l480 -1387h132v-106h-489v106h150l-113 328h-565l-112 -328h147v-106h-378zM490 1884q43 0 74 -35t31 -81q0 -50 -30 -83.5t-75 -33.5q-44 0 -74.5 33.5t-30.5 83.5q0 46 31 81 t74 35zM841 1884q42 0 73 -35t31 -81q0 -50 -30 -83.5t-74 -33.5q-45 0 -75.5 33.5t-30.5 83.5q0 46 31.5 81t74.5 35z" />
<glyph unicode="&#x1df;" horiz-adv-x="1098" d="M92 0zM243 1842h538v-148h-538v148zM92 0zM734 334v225h-214q-123 0 -183.5 -59t-60.5 -181q0 -111 61.5 -176t165.5 -65t167.5 71t63.5 185zM899 664v-558h148v-106h-313v115q-55 -74 -127 -109t-169 -35q-159 0 -252.5 94t-93.5 254q0 165 107 256t302 91h233v73 q0 121 -66.5 187.5t-185.5 66.5q-100 0 -158 -50t-73 -148h-85v215q86 41 167.5 61.5t158.5 20.5q199 0 303 -109.5t104 -318.5zM336 1569q43 0 74.5 -34.5t31.5 -82.5q0 -51 -30 -84t-76 -33q-45 0 -74.5 33t-29.5 84q0 48 31 82.5t73 34.5zM687 1569q43 0 74 -34.5 t31 -82.5q0 -51 -30 -84t-75 -33q-46 0 -75.5 33t-29.5 84q0 48 31 82.5t74 34.5z" />
<glyph unicode="&#x1e0;" horiz-adv-x="1331" d="M0 0zM396 2215h538v-148h-538v148zM770 1708zM665 1942q43 0 74 -34.5t31 -82.5q0 -51 -29.5 -84t-75.5 -33t-75.5 33t-29.5 84q0 48 31 82.5t74 34.5zM369 541h493l-246 710zM-11 0v106h118l479 1387h151l480 -1387h132v-106h-489v106h150l-113 328h-565l-112 -328h147 v-106h-378z" />
<glyph unicode="&#x1e1;" horiz-adv-x="1098" d="M92 0zM243 1842h538v-148h-538v148zM617 1335zM512 1569q43 0 74 -34.5t31 -82.5q0 -51 -29.5 -84t-75.5 -33t-75.5 33t-29.5 84q0 48 31 82.5t74 34.5zM734 334v225h-214q-123 0 -183.5 -59t-60.5 -181q0 -111 61.5 -176t165.5 -65t167.5 71t63.5 185zM899 664v-558h148 v-106h-313v115q-55 -74 -127 -109t-169 -35q-159 0 -252.5 94t-93.5 254q0 165 107 256t302 91h233v73q0 121 -66.5 187.5t-185.5 66.5q-100 0 -158 -50t-73 -148h-85v215q86 41 167.5 61.5t158.5 20.5q199 0 303 -109.5t104 -318.5z" />
<glyph unicode="&#x1e2;" horiz-adv-x="1845" d="M0 0zM810 1841h538v-148h-538v148zM383 541h441v845h-90zM652 0v106h172v328h-485l-137 -328h148v-106h-382v106h118l531 1280h-193v107h1310v-332h-110v209h-620v-500h443v187h111v-496h-111v187h-443v-625h635v209h111v-332h-1098z" />
<glyph unicode="&#x1e3;" horiz-adv-x="1732" d="M92 0zM571 1526h538v-148h-538v148zM734 334v225h-214q-123 0 -183.5 -59t-60.5 -181q0 -111 61.5 -176t165.5 -65t167.5 71t63.5 185zM832 150q-75 -91 -166 -135t-203 -44q-178 0 -274.5 91t-96.5 257q0 165 107.5 256t301.5 91h233v73q0 120 -65 187t-180 67 q-105 0 -164 -49.5t-74 -148.5h-85v215q86 41 167.5 61.5t158.5 20.5q127 0 214 -43.5t136 -133.5q67 88 153.5 132.5t191.5 44.5q217 0 333 -149t120 -431h-713v-8q0 -215 72.5 -324.5t215.5 -109.5q109 0 178.5 63.5t97.5 188.5h133q-39 -175 -146 -263t-280 -88 q-110 0 -203 45.5t-163 133.5zM1445 618q-5 186 -70 280.5t-188 94.5q-114 0 -180.5 -95t-79.5 -280h518z" />
<glyph unicode="&#x1e4;" horiz-adv-x="1562" d="M1180 1047q-32 187 -131.5 276.5t-278.5 89.5q-232 0 -346 -166t-114 -502q0 -329 117.5 -498t346.5 -169q102 0 194.5 28t176.5 84v130h-400v107h400v148h-253v107h436v-255h180v-107h-180v-195q-120 -77 -258 -115.5t-296 -38.5q-304 0 -487 211.5t-183 562.5 q0 354 183.5 564.5t493.5 210.5q115 0 238 -29.5t262 -89.5v-354h-101z" />
<glyph unicode="&#x1e5;" horiz-adv-x="1179" d="M802 479h-217v107h217q0 190 -66 290q-66 101 -192 101q-128 0 -193.5 -112t-65.5 -333q0 -220 65.5 -333t193.5 -113q126 0 192 100.5t66 292.5zM968 479v-456q0 -229 -113.5 -353.5t-323.5 -124.5q-95 0 -181 19t-166 57v223h87q16 -104 76.5 -152t172.5 -48 q146 0 214 91.5t68 287.5v143q-49 -100 -124 -147.5t-186 -47.5q-176 0 -288 155.5t-112 405.5t111.5 405t288.5 155q111 0 186 -47.5t124 -147.5v166h324v-107h-158v-370h158v-107h-158z" />
<glyph unicode="&#x1e6;" horiz-adv-x="1472" d="M104 0zM692 1635l-208 264h104l183 -162l183 162h104l-208 -264h-158zM1180 1047q-32 187 -131.5 276.5t-278.5 89.5q-232 0 -346 -166t-114 -502q0 -329 117.5 -498t346.5 -169q102 0 194.5 28t176.5 84v385h-253v107h436v-557q-120 -77 -258 -115.5t-296 -38.5 q-304 0 -487 211.5t-183 562.5q0 354 183.5 564.5t493.5 210.5q115 0 238 -29.5t262 -89.5v-354h-101z" />
<glyph unicode="&#x1e7;" horiz-adv-x="1179" d="M92 0zM830 1262zM467 1262l-211 376h104l183 -260l183 260h104l-212 -376h-151zM968 956v-933q0 -229 -113.5 -353.5t-323.5 -124.5q-95 0 -181 19t-166 57v223h87q16 -104 76.5 -152t172.5 -48q146 0 214 91.5t68 287.5v143q-49 -100 -124 -147.5t-186 -47.5 q-176 0 -288 155.5t-112 405.5t111.5 405t288.5 155q111 0 186 -47.5t124 -147.5v166h324v-107h-158zM802 584q0 191 -66 292t-192 101q-128 0 -193.5 -112t-65.5 -333q0 -220 65.5 -333t193.5 -113q126 0 192 100.5t66 292.5v105z" />
<glyph unicode="&#x1e8;" horiz-adv-x="1377" d="M102 0zM676 1635l-208 264h104l183 -162l183 162h104l-208 -264h-158zM102 0v106h171v1280h-171v107h524v-107h-171v-565l579 565h-146v107h447v-107h-151l-577 -563l645 -717h153v-106h-312l-638 709v-603h171v-106h-524z" />
<glyph unicode="&#x1e9;" horiz-adv-x="1116" d="M11 0zM219 1705l-208 264h104l183 -162l183 162h104l-208 -264h-158zM527 0h-464v106h149v1344h-159v106h325v-1013l403 413h-137v107h432v-107h-163l-285 -292l364 -558h138v-106h-472v106h137l-287 437l-130 -135v-302h149v-106z" />
<glyph unicode="&#x1ea;" horiz-adv-x="1511" d="M104 0zM714 -16h85l-1 -2q-79 -123 -79 -170q0 -46 30.5 -74t80.5 -28q24 0 50.5 6.5t52.5 19.5v-127q-33 -9 -63 -13.5t-59 -4.5q-102 0 -157.5 44.5t-55.5 125.5q0 49 27 101.5t89 121.5zM756 78q220 0 333 168.5t113 498.5q0 331 -113 499.5t-333 168.5 q-221 0 -333.5 -168.5t-112.5 -499.5q0 -330 112.5 -498.5t333.5 -168.5zM756 -29q-137 0 -251.5 50t-202.5 147q-100 112 -149 254t-49 323t49 323.5t149 254.5q89 98 202 147.5t252 49.5q292 0 472 -213t180 -562q0 -179 -49 -322.5t-150 -254.5q-89 -98 -202 -147.5 t-251 -49.5z" />
<glyph unicode="&#x1eb;" horiz-adv-x="1109" d="M92 0zM512 -16h85l-1 -2q-79 -123 -79 -170q0 -46 30.5 -74t80.5 -28q24 0 50.5 6.5t52.5 19.5v-127q-33 -9 -63 -13.5t-59 -4.5q-102 0 -157.5 44.5t-55.5 125.5q0 49 27 101.5t89 121.5zM554 70q134 0 202 117t68 345t-68 344.5t-202 116.5q-133 0 -201 -116.5 t-68 -344.5t68.5 -345t200.5 -117zM554 -29q-208 0 -335 153.5t-127 407.5t126.5 407t335.5 153q210 0 336.5 -153t126.5 -407t-126.5 -407.5t-336.5 -153.5z" />
<glyph unicode="&#x1ec;" horiz-adv-x="1511" d="M104 0zM487 1842h538v-148h-538v148zM104 0zM714 -16h85l-1 -2q-79 -123 -79 -170q0 -46 30.5 -74t80.5 -28q24 0 50.5 6.5t52.5 19.5v-127q-33 -9 -63 -13.5t-59 -4.5q-102 0 -157.5 44.5t-55.5 125.5q0 49 27 101.5t89 121.5zM756 78q220 0 333 168.5t113 498.5 q0 331 -113 499.5t-333 168.5q-221 0 -333.5 -168.5t-112.5 -499.5q0 -330 112.5 -498.5t333.5 -168.5zM756 -29q-137 0 -251.5 50t-202.5 147q-100 112 -149 254t-49 323t49 323.5t149 254.5q89 98 202 147.5t252 49.5q292 0 472 -213t180 -562q0 -179 -49 -322.5 t-150 -254.5q-89 -98 -202 -147.5t-251 -49.5z" />
<glyph unicode="&#x1ed;" horiz-adv-x="1109" d="M92 0zM286 1526h538v-148h-538v148zM92 0zM512 -16h85l-1 -2q-79 -123 -79 -170q0 -46 30.5 -74t80.5 -28q24 0 50.5 6.5t52.5 19.5v-127q-33 -9 -63 -13.5t-59 -4.5q-102 0 -157.5 44.5t-55.5 125.5q0 49 27 101.5t89 121.5zM554 70q134 0 202 117t68 345t-68 344.5 t-202 116.5q-133 0 -201 -116.5t-68 -344.5t68.5 -345t200.5 -117zM554 -29q-208 0 -335 153.5t-127 407.5t126.5 407t335.5 153q210 0 336.5 -153t126.5 -407t-126.5 -407.5t-336.5 -153.5z" />
<glyph unicode="&#x1ee;" horiz-adv-x="1040" d="M92 0zM449 1635l-208 264h104l183 -162l183 162h104l-208 -264h-158zM475 852h-85v102l309 416h-474v-223h-111v346h786v-125l-332 -445l71 -7q166 -29 257 -150q91 -120 91 -312q0 -234 -127 -359q-126 -124 -363 -124q-105 0 -205 28q-101 28 -200 85v324h101 q9 -161 87 -244t220 -83q138 0 218 100q79 99 79 271q0 197 -81 299q-82 101 -241 101z" />
<glyph unicode="&#x1ef;" horiz-adv-x="1040" d="M92 0zM411 1262l-211 376h104l183 -260l183 260h104l-212 -376h-151zM475 423h-85v102l297 431h-475v-184h-95v291h783v-86l-332 -483l71 -7q166 -29 257 -150q91 -120 91 -312q0 -234 -127 -359q-126 -124 -363 -124q-105 0 -205 28q-101 28 -200 85v324h101 q9 -161 87 -244t220 -83q138 0 218 100q79 99 79 271q0 197 -81 299q-82 101 -241 101z" />
<glyph unicode="&#x1f0;" horiz-adv-x="589" d="M0 0zM225 956h-157v107h323v-1167q0 -164 -88 -257.5t-242 -93.5q-65 0 -124 16.5t-114 49.5v219h85q6 -96 44.5 -141t112.5 -45q82 0 121 61.5t39 190.5v1060zM219 1262l-211 376h104l183 -260l183 260h104l-212 -376h-151z" />
<glyph unicode="&#x1f1;" horiz-adv-x="2758" d="M102 0zM1561 0v72l837 1298h-695v-223h-111v346h1062v-72l-837 -1298h760v209h110v-332h-1126zM455 106h168q262 0 402 166t140 476t-139.5 474t-402.5 164h-168v-1280zM102 0v106h171v1280h-171v107h534q348 0 542 -197t194 -548q0 -352 -194.5 -550t-541.5 -198h-534z " />
<glyph unicode="&#x1f2;" horiz-adv-x="2448" d="M102 0zM1552 0v86l599 870h-474v-184h-95v291h782v-86l-599 -871h520v193h97v-299h-830zM455 106h168q262 0 402 166t140 476t-139.5 474t-402.5 164h-168v-1280zM102 0v106h171v1280h-171v107h534q348 0 542 -197t194 -548q0 -352 -194.5 -550t-541.5 -198h-534z" />
<glyph unicode="&#x1f3;" horiz-adv-x="2151" d="M92 0zM1254 0v86l599 870h-474v-184h-95v291h782v-86l-599 -871h520v193h97v-299h-830zM968 106h158v-106h-324v166q-49 -100 -124 -147.5t-186 -47.5q-176 0 -288 155.5t-112 405.5t111.5 405t288.5 155q111 0 186 -47.5t124 -147.5v553h-157v106h323v-1450zM802 479 v105q0 191 -66 292t-192 101q-128 0 -193.5 -112t-65.5 -333q0 -220 65.5 -333t193.5 -113q126 0 192 100.5t66 292.5z" />
<glyph unicode="&#x1f4;" horiz-adv-x="1472" d="M104 0zM824 1899h177l-236 -264h-105zM1180 1047q-32 187 -131.5 276.5t-278.5 89.5q-232 0 -346 -166t-114 -502q0 -329 117.5 -498t346.5 -169q102 0 194.5 28t176.5 84v385h-253v107h436v-557q-120 -77 -258 -115.5t-296 -38.5q-304 0 -487 211.5t-183 562.5 q0 354 183.5 564.5t493.5 210.5q115 0 238 -29.5t262 -89.5v-354h-101z" />
<glyph unicode="&#x1f5;" horiz-adv-x="1179" d="M92 0zM847 1262zM668 1638h179l-306 -376h-105zM968 956v-933q0 -229 -113.5 -353.5t-323.5 -124.5q-95 0 -181 19t-166 57v223h87q16 -104 76.5 -152t172.5 -48q146 0 214 91.5t68 287.5v143q-49 -100 -124 -147.5t-186 -47.5q-176 0 -288 155.5t-112 405.5t111.5 405 t288.5 155q111 0 186 -47.5t124 -147.5v166h324v-107h-158zM802 584q0 191 -66 292t-192 101q-128 0 -193.5 -112t-65.5 -333q0 -220 65.5 -333t193.5 -113q126 0 192 100.5t66 292.5v105z" />
<glyph unicode="&#x1f6;" horiz-adv-x="2126" d="M1152 594v154h-697v-642h171v-106h-524v106h171v1280h-171v107h524v-107h-171v-516h697v516h-171v107h525v-107h-171v-772q0 -286 83 -399q85 -113 202 -113q130 0 193 113q66 118 66 399v341h-156v108h322v-469q0 -341 -119 -482q-117 -141 -297 -141q-235 0 -356 142 t-121 481z" />
<glyph unicode="&#x1f8;" horiz-adv-x="1612" d="M90 0zM732 1899l165 -264h-105l-236 264h176zM90 0v106h181v1280h-181v107h345l805 -1178v1071h-180v107h472v-107h-181v-1415h-109l-860 1258v-1123h180v-106h-472z" />
<glyph unicode="&#x1f9;" horiz-adv-x="1187" d="M67 0zM643 1260zM409 1636l234 -376h-105l-306 376h177zM76 0v106h149v850h-158v107h324v-189q45 108 118.5 163t170.5 55q159 0 233.5 -101t74.5 -315v-570h148v-106h-457v106h143v512q0 195 -43.5 267.5t-152.5 72.5q-115 0 -175 -93.5t-60 -272.5v-486h144v-106h-459z " />
<glyph unicode="&#x1fa;" horiz-adv-x="1331" d="M632 1206l-31 2l-232 -667h493zM798 1459q0 63 -40 107.5t-96 44.5q-58 0 -97 -43.5t-39 -108.5q0 -63 39 -107t97 -44q56 0 96 44t40 107zM745 1899h177l-189 -176q58 -19 104 -69q72 -81 72 -195q0 -80 -35 -143q-21 -38 -53 -66l396 -1144h132v-106h-489v106h150 l-113 328h-565l-112 -328h147v-106h-378v106h118l395 1143q-33 29 -53 66q-34 61 -34 144q0 114 72 195q57 63 132 76z" />
<glyph unicode="&#x1fb;" horiz-adv-x="1098" d="M734 334v225h-214q-123 0 -183.5 -59t-60.5 -181q0 -111 61.5 -176t165.5 -65t167.5 71t63.5 185zM899 664v-558h148v-106h-313v115q-55 -74 -127 -109t-169 -35q-159 0 -252.5 94t-93.5 254q0 165 107 256t302 91h233v73q0 121 -66.5 187.5t-185.5 66.5q-100 0 -158 -50 t-73 -148h-85v215q86 41 167.5 61.5t158.5 20.5q199 0 303 -109.5t104 -318.5zM595 1899h177l-165 -185q44 -20 80 -60q72 -80 72 -195t-71.5 -195t-175 -80t-175 80t-71.5 195t71 195q64 71 154 78zM649 1459q0 63 -39.5 107t-97.5 44t-97.5 -43.5t-39.5 -107.5 q0 -65 39.5 -108.5t97.5 -43.5t97.5 44t39.5 108z" />
<glyph unicode="&#x1fc;" horiz-adv-x="1845" d="M0 0zM1133 1899h177l-236 -264h-105zM383 541h441v845h-90zM652 0v106h172v328h-485l-137 -328h148v-106h-382v106h118l531 1280h-193v107h1310v-332h-110v209h-620v-500h443v187h111v-496h-111v187h-443v-625h635v209h111v-332h-1098z" />
<glyph unicode="&#x1fd;" horiz-adv-x="1732" d="M92 0zM1137 1267zM958 1643h179l-306 -376h-105zM734 334v225h-214q-123 0 -183.5 -59t-60.5 -181q0 -111 61.5 -176t165.5 -65t167.5 71t63.5 185zM832 150q-75 -91 -166 -135t-203 -44q-178 0 -274.5 91t-96.5 257q0 165 107.5 256t301.5 91h233v73q0 120 -65 187 t-180 67q-105 0 -164 -49.5t-74 -148.5h-85v215q86 41 167.5 61.5t158.5 20.5q127 0 214 -43.5t136 -133.5q67 88 153.5 132.5t191.5 44.5q217 0 333 -149t120 -431h-713v-8q0 -215 72.5 -324.5t215.5 -109.5q109 0 178.5 63.5t97.5 188.5h133q-39 -175 -146 -263t-280 -88 q-110 0 -203 45.5t-163 133.5zM1445 618q-5 186 -70 280.5t-188 94.5q-114 0 -180.5 -95t-79.5 -280h518z" />
<glyph unicode="&#x1fe;" horiz-adv-x="1511" d="M90 0zM814 1899h177l-236 -264h-105zM1093 1239q-59 88 -142 131t-195 43q-221 0 -333.5 -168.5t-112.5 -499.5q0 -119 14 -215.5t45 -177.5zM417 256q57 -89 142 -133.5t197 -44.5q220 0 333 168.5t113 498.5q0 117 -15 215.5t-46 180.5zM1252 1276q78 -108 117 -239.5 t39 -291.5q0 -345 -180 -559.5t-472 -214.5q-127 0 -234 43t-198 129l-164 -200l-70 69l168 207q-78 105 -116 235.5t-38 290.5q0 346 180.5 560.5t471.5 214.5q127 0 235 -42.5t194 -125.5l161 198l72 -71z" />
<glyph unicode="&#x1ff;" horiz-adv-x="1109" d="M68 0zM953 1262zM774 1638h179l-306 -376h-105zM756 879q-34 57 -84.5 85.5t-117.5 28.5q-132 0 -200.5 -117t-68.5 -344q0 -72 7 -131t19 -108zM352 190q36 -61 86 -90.5t116 -29.5q133 0 201.5 117.5t68.5 344.5q0 76 -7 136.5t-21 111.5zM904 922q55 -74 84 -173 t29 -217q0 -254 -126.5 -407.5t-336.5 -153.5q-84 0 -156 26.5t-132 80.5l-129 -172l-69 63l134 178q-54 77 -82 173.5t-28 211.5q0 254 126.5 407t335.5 153q85 0 157 -25.5t130 -75.5l125 166l68 -63z" />
<glyph unicode="&#x200;" horiz-adv-x="1331" d="M0 0zM440 1899l164 -264h-105l-236 264h177zM726 1899l163 -264h-105l-236 264h178zM369 541h493l-246 710zM-11 0v106h118l479 1387h151l480 -1387h132v-106h-489v106h150l-113 328h-565l-112 -328h147v-106h-378z" />
<glyph unicode="&#x201;" horiz-adv-x="1098" d="M92 0zM567 1638l169 -376h-102l-220 376h153zM270 1638l203 -376h-105l-258 376h160zM734 334v225h-214q-123 0 -183.5 -59t-60.5 -181q0 -111 61.5 -176t165.5 -65t167.5 71t63.5 185zM899 664v-558h148v-106h-313v115q-55 -74 -127 -109t-169 -35q-159 0 -252.5 94 t-93.5 254q0 165 107 256t302 91h233v73q0 121 -66.5 187.5t-185.5 66.5q-100 0 -158 -50t-73 -148h-85v215q86 41 167.5 61.5t158.5 20.5q199 0 303 -109.5t104 -318.5z" />
<glyph unicode="&#x202;" horiz-adv-x="1331" d="M0 0zM947 1694h-87q-11 79 -58 114.5t-137 35.5t-136.5 -35.5t-58.5 -114.5h-86q8 143 79.5 215t202 72t201.5 -72t80 -215zM369 541h493l-246 710zM-11 0v106h118l479 1387h151l480 -1387h132v-106h-489v106h150l-113 328h-565l-112 -328h147v-106h-378z" />
<glyph unicode="&#x203;" horiz-adv-x="1098" d="M92 0zM794 1321h-87q-11 79 -58 114.5t-137 35.5t-136.5 -35.5t-58.5 -114.5h-86q8 143 79.5 215t202 72t201.5 -72t80 -215zM734 334v225h-214q-123 0 -183.5 -59t-60.5 -181q0 -111 61.5 -176t165.5 -65t167.5 71t63.5 185zM899 664v-558h148v-106h-313v115 q-55 -74 -127 -109t-169 -35q-159 0 -252.5 94t-93.5 254q0 165 107 256t302 91h233v73q0 121 -66.5 187.5t-185.5 66.5q-100 0 -158 -50t-73 -148h-85v215q86 41 167.5 61.5t158.5 20.5q199 0 303 -109.5t104 -318.5z" />
<glyph unicode="&#x204;" horiz-adv-x="1345" d="M102 0zM467 1899l164 -264h-105l-236 264h177zM753 1899l163 -264h-105l-236 264h178zM102 0v106h171v1280h-171v107h1082v-332h-111v209h-618v-500h441v187h110v-496h-110v187h-441v-625h632v209h111v-332h-1096z" />
<glyph unicode="&#x205;" horiz-adv-x="1090" d="M92 0zM600 1638l169 -376h-102l-220 376h153zM303 1638l203 -376h-105l-258 376h160zM999 512h-714v-8q0 -215 73 -324.5t215 -109.5q109 0 179 63.5t98 188.5h133q-40 -175 -146.5 -263t-280.5 -88q-210 0 -337 153.5t-127 407.5q0 252 125 406t328 154 q217 0 333 -148.5t121 -431.5zM804 618q-6 186 -71 280.5t-188 94.5q-114 0 -179.5 -95t-80.5 -280h519z" />
<glyph unicode="&#x206;" horiz-adv-x="1345" d="M102 0zM955 1694h-87q-11 79 -58 114.5t-137 35.5t-136.5 -35.5t-58.5 -114.5h-86q8 143 79.5 215t202 72t201.5 -72t80 -215zM102 0v106h171v1280h-171v107h1082v-332h-111v209h-618v-500h441v187h110v-496h-110v187h-441v-625h632v209h111v-332h-1096z" />
<glyph unicode="&#x207;" horiz-adv-x="1090" d="M92 0zM827 1321h-87q-11 79 -58 114.5t-137 35.5t-136.5 -35.5t-58.5 -114.5h-86q8 143 79.5 215t202 72t201.5 -72t80 -215zM999 512h-714v-8q0 -215 73 -324.5t215 -109.5q109 0 179 63.5t98 188.5h133q-40 -175 -146.5 -263t-280.5 -88q-210 0 -337 153.5t-127 407.5 q0 252 125 406t328 154q217 0 333 -148.5t121 -431.5zM804 618q-6 186 -71 280.5t-188 94.5q-114 0 -179.5 -95t-80.5 -280h519z" />
<glyph unicode="&#x208;" horiz-adv-x="728" d="M0 0zM143 1899l164 -264h-105l-236 264h177zM429 1899l163 -264h-105l-236 264h178zM455 106h171v-106h-524v106h171v1280h-171v107h524v-107h-171v-1280z" />
<glyph unicode="&#x209;" horiz-adv-x="589" d="M0 0zM391 106h156v-106h-480v106h158v850h-158v107h324v-957zM347 1638l169 -376h-102l-220 376h153zM50 1638l203 -376h-105l-258 376h160z" />
<glyph unicode="&#x20a;" horiz-adv-x="728" d="M84 0zM647 1694h-87q-11 79 -58 114.5t-137 35.5t-136.5 -35.5t-58.5 -114.5h-86q8 143 79.5 215t202 72t201.5 -72t80 -215zM455 106h171v-106h-524v106h171v1280h-171v107h524v-107h-171v-1280z" />
<glyph unicode="&#x20b;" horiz-adv-x="589" d="M14 0zM577 1321h-87q-11 79 -58 114.5t-137 35.5t-136.5 -35.5t-58.5 -114.5h-86q8 143 79.5 215t202 72t201.5 -72t80 -215zM391 106h156v-106h-480v106h158v850h-158v107h324v-957z" />
<glyph unicode="&#x20c;" horiz-adv-x="1511" d="M104 0zM532 1899l164 -264h-105l-236 264h177zM818 1899l163 -264h-105l-236 264h178zM756 78q220 0 333 168.5t113 498.5q0 331 -113 499.5t-333 168.5q-221 0 -333.5 -168.5t-112.5 -499.5q0 -330 112.5 -498.5t333.5 -168.5zM756 -29q-137 0 -251.5 50t-202.5 147 q-100 112 -149 254t-49 323t49 323.5t149 254.5q89 98 202 147.5t252 49.5q292 0 472 -213t180 -562q0 -179 -49 -322.5t-150 -254.5q-89 -98 -202 -147.5t-251 -49.5z" />
<glyph unicode="&#x20d;" horiz-adv-x="1109" d="M92 0zM609 1638l169 -376h-102l-220 376h153zM312 1638l203 -376h-105l-258 376h160zM554 70q134 0 202 117t68 345t-68 344.5t-202 116.5q-133 0 -201 -116.5t-68 -344.5t68.5 -345t200.5 -117zM554 -29q-208 0 -335 153.5t-127 407.5t126.5 407t335.5 153 q210 0 336.5 -153t126.5 -407t-126.5 -407.5t-336.5 -153.5z" />
<glyph unicode="&#x20e;" horiz-adv-x="1511" d="M104 0zM1038 1694h-87q-11 79 -58 114.5t-137 35.5t-136.5 -35.5t-58.5 -114.5h-86q8 143 79.5 215t202 72t201.5 -72t80 -215zM756 78q220 0 333 168.5t113 498.5q0 331 -113 499.5t-333 168.5q-221 0 -333.5 -168.5t-112.5 -499.5q0 -330 112.5 -498.5t333.5 -168.5z M756 -29q-137 0 -251.5 50t-202.5 147q-100 112 -149 254t-49 323t49 323.5t149 254.5q89 98 202 147.5t252 49.5q292 0 472 -213t180 -562q0 -179 -49 -322.5t-150 -254.5q-89 -98 -202 -147.5t-251 -49.5z" />
<glyph unicode="&#x20f;" horiz-adv-x="1109" d="M92 0zM836 1321h-87q-11 79 -58 114.5t-137 35.5t-136.5 -35.5t-58.5 -114.5h-86q8 143 79.5 215t202 72t201.5 -72t80 -215zM554 70q134 0 202 117t68 345t-68 344.5t-202 116.5q-133 0 -201 -116.5t-68 -344.5t68.5 -345t200.5 -117zM554 -29q-208 0 -335 153.5 t-127 407.5t126.5 407t335.5 153q210 0 336.5 -153t126.5 -407t-126.5 -407.5t-336.5 -153.5z" />
<glyph unicode="&#x210;" horiz-adv-x="1387" d="M102 0zM434 1899l164 -264h-105l-236 264h177zM720 1899l163 -264h-105l-236 264h178zM883 741q63 -19 108.5 -64.5t81.5 -127.5l195 -443h164v-106h-317l-210 475q-60 138 -110.5 178.5t-138.5 40.5h-201v-588h190v-106h-543v106h171v1280h-171v107h681 q196 0 302.5 -104t106.5 -295q0 -154 -77.5 -242.5t-231.5 -110.5zM455 801h266q136 0 200.5 71.5t64.5 221.5t-64.5 221t-200.5 71h-266v-585z" />
<glyph unicode="&#x211;" horiz-adv-x="881" d="M67 0zM552 1638l169 -376h-102l-220 376h153zM255 1638l203 -376h-105l-258 376h160zM881 1065v-266h-95q-5 79 -40 118t-102 39q-123 0 -188 -94t-65 -270v-486h191v-106h-506v106h149v852h-158v105h324v-189q48 111 124.5 164.5t186.5 53.5q40 0 85 -7t94 -20z" />
<glyph unicode="&#x212;" horiz-adv-x="1387" d="M102 0zM940 1694h-87q-11 79 -58 114.5t-137 35.5t-136.5 -35.5t-58.5 -114.5h-86q8 143 79.5 215t202 72t201.5 -72t80 -215zM883 741q63 -19 108.5 -64.5t81.5 -127.5l195 -443h164v-106h-317l-210 475q-60 138 -110.5 178.5t-138.5 40.5h-201v-588h190v-106h-543v106 h171v1280h-171v107h681q196 0 302.5 -104t106.5 -295q0 -154 -77.5 -242.5t-231.5 -110.5zM455 801h266q136 0 200.5 71.5t64.5 221.5t-64.5 221t-200.5 71h-266v-585z" />
<glyph unicode="&#x213;" horiz-adv-x="881" d="M67 0zM779 1321h-87q-11 79 -58 114.5t-137 35.5t-136.5 -35.5t-58.5 -114.5h-86q8 143 79.5 215t202 72t201.5 -72t80 -215zM881 1065v-266h-95q-5 79 -40 118t-102 39q-123 0 -188 -94t-65 -270v-486h191v-106h-506v106h149v852h-158v105h324v-189q48 111 124.5 164.5 t186.5 53.5q40 0 85 -7t94 -20z" />
<glyph unicode="&#x214;" horiz-adv-x="1553" d="M86 0zM587 1899l164 -264h-105l-236 264h177zM873 1899l163 -264h-105l-236 264h178zM258 1386h-172v107h526v-107h-172v-772q0 -286 84 -399t290 -113q207 0 291 113t84 399v772h-172v107h454v-107h-171v-792q0 -341 -118 -482t-401 -141q-282 0 -402.5 142t-120.5 481 v792z" />
<glyph unicode="&#x215;" horiz-adv-x="1187" d="M50 0zM580 1638l169 -376h-102l-220 376h153zM283 1638l203 -376h-105l-258 376h160zM652 1063h310v-957h157v-106h-323v188q-45 -106 -118 -161.5t-170 -55.5q-159 0 -234 100.5t-75 315.5v569h-149v107h315v-619q0 -194 43 -266t153 -72q115 0 175 94t60 273v483h-144 v107z" />
<glyph unicode="&#x216;" horiz-adv-x="1553" d="M86 0zM1095 1694h-87q-11 79 -58 114.5t-137 35.5t-136.5 -35.5t-58.5 -114.5h-86q8 143 79.5 215t202 72t201.5 -72t80 -215zM258 1386h-172v107h526v-107h-172v-772q0 -286 84 -399t290 -113q207 0 291 113t84 399v772h-172v107h454v-107h-171v-792q0 -341 -118 -482 t-401 -141q-282 0 -402.5 142t-120.5 481v792z" />
<glyph unicode="&#x217;" horiz-adv-x="1187" d="M50 0zM807 1321h-87q-11 79 -58 114.5t-137 35.5t-136.5 -35.5t-58.5 -114.5h-86q8 143 79.5 215t202 72t201.5 -72t80 -215zM652 1063h310v-957h157v-106h-323v188q-45 -106 -118 -161.5t-170 -55.5q-159 0 -234 100.5t-75 315.5v569h-149v107h315v-619q0 -194 43 -266 t153 -72q115 0 175 94t60 273v483h-144v107z" />
<glyph unicode="&#x218;" horiz-adv-x="1262" d="M155 0zM171 72v340l103 -1q5 -170 89 -251.5t256 -81.5q160 0 244.5 70.5t84.5 205.5q0 108 -51 166t-215 113l-177 59q-193 65 -271.5 162t-78.5 266q0 190 121.5 295t340.5 105q94 0 205.5 -22.5t237.5 -65.5v-318h-102q-15 158 -94.5 228.5t-242.5 70.5 q-142 0 -216.5 -64.5t-74.5 -187.5q0 -107 56 -168t237 -121l166 -55q183 -61 261 -155.5t78 -253.5q0 -217 -125 -327t-373 -110q-111 0 -225.5 25t-233.5 76zM475 -412q69 42 100.5 98t31.5 136v22h142q-6 -103 -59 -176q-52 -74 -157 -128z" />
<glyph unicode="&#x219;" horiz-adv-x="945" d="M104 0zM104 59v248h95q3 -119 66.5 -178t188.5 -59q111 0 169.5 46.5t58.5 135.5q0 70 -42.5 113t-180.5 92l-120 45q-123 44 -178.5 110t-55.5 168q0 146 96.5 229t266.5 83q76 0 159.5 -22t172.5 -64v-232h-95q-4 103 -65 161t-167 58q-104 0 -157.5 -41t-53.5 -123 q0 -67 40.5 -107.5t161.5 -82.5l132 -45q136 -47 195.5 -117.5t59.5 -181.5q0 -151 -103.5 -237.5t-286.5 -86.5q-93 0 -181 22t-176 66zM280 -412q69 42 100.5 98t31.5 136v22h142q-6 -103 -59 -176q-52 -74 -157 -128z" />
<glyph unicode="&#x21a;" horiz-adv-x="1229" d="M18 0zM352 0v106h172v1268h-395v-233h-111v352h1193v-352h-110v233h-395v-1268h172v-106h-526zM401 -412q69 42 100.5 98t31.5 136v22h142q-6 -103 -59 -176q-52 -74 -157 -128z" />
<glyph unicode="&#x21b;" horiz-adv-x="740" d="M53 0zM199 956h-146v107h146v330h166v-330h312v-107h-312v-675q0 -135 23.5 -173t86.5 -38q65 0 94.5 42.5t31.5 137.5h125q-7 -145 -71 -212t-194 -67q-143 0 -202.5 70.5t-59.5 239.5v675zM236 -412q69 42 100.5 98t31.5 136v22h142q-6 -103 -59 -176 q-52 -74 -157 -128z" />
<glyph unicode="&#x21c;" horiz-adv-x="1155" d="M140 1391q285 129 449.5 129t284.5 -104.5t120 -278.5t-69 -280t-177 -183q124 -19 200.5 -133t76.5 -227q0 -218 -126 -350.5t-342.5 -226.5t-416.5 -167v115q173 69 331.5 155.5t255.5 201t97 250t-63 206.5q-107 121 -258 39l-208 -113v108l211 123q124 73 215 209 q68 103 68 259t-75.5 223t-182 72t-192.5 -98q-73 -103 -97 -273h-102v344z" />
<glyph unicode="&#x21d;" horiz-adv-x="961" d="M275 943q-92 -67 -115 -235h-96v272q81 43 195.5 76.5t239 29t229 -86.5t104.5 -207.5t-62 -211.5t-159 -149q112 -15 180.5 -102.5t68.5 -168.5q0 -177 -114.5 -285.5t-324.5 -191.5t-357 -116v100q141 43 289 112t246 172q76 80 76 182.5t-56 159.5q-87 88 -230 26 l-186 -80v100l186 86q104 48 182 151q69 94 69 198.5t-64.5 159t-143.5 54.5q-94 0 -157 -45z" />
<glyph unicode="&#x21e;" horiz-adv-x="1607" d="M102 0zM729 1635l-208 264h104l183 -162l183 162h104l-208 -264h-158zM102 0v106h171v1280h-171v107h524v-107h-171v-516h697v516h-171v107h525v-107h-171v-1280h171v-106h-525v106h171v642h-697v-642h171v-106h-524z" />
<glyph unicode="&#x21f;" horiz-adv-x="1187" d="M11 0zM219 1705l-208 264h104l183 -162l183 162h104l-208 -264h-158zM76 0v106h149v1344h-158v106h324v-682q45 108 118.5 163t170.5 55q159 0 233.5 -101t74.5 -315v-570h148v-106h-457v106h143v512q0 195 -43 266.5t-153 71.5q-115 0 -175 -93t-60 -271v-486h144v-106 h-459z" />
<glyph unicode="&#x220;" horiz-adv-x="1553" d="M86 0v107h172v1279h-158v107h341v-201q67 114 172 172t245 58q227 0 334.5 -145.5t107.5 -454.5v-1241h171v-107h-528v107h172v1200q0 292 -67.5 401t-238.5 109q-180 0 -274 -128.5t-94 -375.5v-780h171v-107h-526z" />
<glyph unicode="&#x221;" horiz-adv-x="1500" d="M1130 -51q240 0 240 107q0 123 -377 123q-13 0 -25 -1q-8 -95 40 -167q41 -62 122 -62zM802 479v105q0 191 -66 292t-192 101q-128 0 -193.5 -112t-65.5 -333q0 -220 65.5 -333t193.5 -113q126 0 192 100.5t66 292.5zM968 279h13h8q484 0 480 -230q-4 -199 -341 -199 q-145 0 -237 93q-59 61 -79 132q-28 -61 -28 -156v-64h-90l1 64q1 66 11 120q-13 -11 -28 -21q-75 -47 -186 -47q-176 0 -288 155.5t-112 405.5t111.5 405t288.5 155q111 0 186 -47.5t124 -147.5v553h-157v106h323v-1277z" />
<glyph unicode="&#x224;" horiz-adv-x="1280" d="M83 0v72l837 1298h-695v-223h-111v346h1062v-72l-837 -1298h692h178q-7 -171 -72.5 -293.5t-196.5 -212.5l-72 80q84 69 124 163q26 61 35 140h-944z" />
<glyph unicode="&#x225;" horiz-adv-x="971" d="M74 0v86l599 870h-474v-184h-95v291h782v-86l-599 -871h439h178q-8 -171 -73 -293.5t-197 -212.5l-72 80q85 69 125 162q29 69 36 158h-649z" />
<glyph unicode="&#x226;" horiz-adv-x="1331" d="M0 0zM665 1886q43 0 74 -35t31 -81q0 -50 -30 -83.5t-75 -33.5t-75 33.5t-30 83.5q0 46 31.5 81t73.5 35zM369 541h493l-246 710zM-11 0v106h118l479 1387h151l480 -1387h132v-106h-489v106h150l-113 328h-565l-112 -328h147v-106h-378z" />
<glyph unicode="&#x227;" horiz-adv-x="1098" d="M92 0zM617 1335zM512 1569q43 0 74 -34.5t31 -82.5q0 -51 -29.5 -84t-75.5 -33t-75.5 33t-29.5 84q0 48 31 82.5t74 34.5zM734 334v225h-214q-123 0 -183.5 -59t-60.5 -181q0 -111 61.5 -176t165.5 -65t167.5 71t63.5 185zM899 664v-558h148v-106h-313v115 q-55 -74 -127 -109t-169 -35q-159 0 -252.5 94t-93.5 254q0 165 107 256t302 91h233v73q0 121 -66.5 187.5t-185.5 66.5q-100 0 -158 -50t-73 -148h-85v215q86 41 167.5 61.5t158.5 20.5q199 0 303 -109.5t104 -318.5z" />
<glyph unicode="&#x228;" horiz-adv-x="1345" d="M102 0zM886 0zM772 0q58 -64 86 -120t28 -105q0 -81 -56.5 -125.5t-157.5 -44.5q-38 0 -77.5 6t-80.5 18v131q37 -17 72.5 -25.5t66.5 -8.5q52 0 81.5 26.5t29.5 71.5q0 28 -20 72t-59 104h87zM102 0v106h171v1280h-171v107h1082v-332h-111v209h-618v-500h441v187h110 v-496h-110v187h-441v-625h632v209h111v-332h-1096z" />
<glyph unicode="&#x229;" horiz-adv-x="1090" d="M92 0zM708 0zM594 0q58 -64 86 -120t28 -105q0 -81 -56.5 -125.5t-157.5 -44.5q-38 0 -77.5 6t-80.5 18v131q37 -17 72.5 -25.5t66.5 -8.5q52 0 81.5 26.5t29.5 71.5q0 28 -20 72t-59 104h87zM999 512h-714v-8q0 -215 73 -324.5t215 -109.5q109 0 179 63.5t98 188.5h133 q-40 -175 -146.5 -263t-280.5 -88q-210 0 -337 153.5t-127 407.5q0 252 125 406t328 154q217 0 333 -148.5t121 -431.5zM804 618q-6 186 -71 280.5t-188 94.5q-114 0 -179.5 -95t-80.5 -280h519z" />
<glyph unicode="&#x22a;" horiz-adv-x="1511" d="M104 0zM488 2215h538v-148h-538v148zM104 0zM756 78q220 0 333 168.5t113 498.5q0 331 -113 499.5t-333 168.5q-221 0 -333.5 -168.5t-112.5 -499.5q0 -330 112.5 -498.5t333.5 -168.5zM756 -29q-137 0 -251.5 50t-202.5 147q-100 112 -149 254t-49 323t49 323.5 t149 254.5q89 98 202 147.5t252 49.5q292 0 472 -213t180 -562q0 -179 -49 -322.5t-150 -254.5q-89 -98 -202 -147.5t-251 -49.5zM581 1884q43 0 74 -35t31 -81q0 -50 -30 -83.5t-75 -33.5q-44 0 -74.5 33.5t-30.5 83.5q0 46 31 81t74 35zM932 1884q42 0 73 -35t31 -81 q0 -50 -30 -83.5t-74 -33.5q-45 0 -75.5 33.5t-30.5 83.5q0 46 31.5 81t74.5 35z" />
<glyph unicode="&#x22b;" horiz-adv-x="1109" d="M92 0zM286 1842h538v-148h-538v148zM92 0zM554 70q134 0 202 117t68 345t-68 344.5t-202 116.5q-133 0 -201 -116.5t-68 -344.5t68.5 -345t200.5 -117zM554 -29q-208 0 -335 153.5t-127 407.5t126.5 407t335.5 153q210 0 336.5 -153t126.5 -407t-126.5 -407.5 t-336.5 -153.5zM379 1569q43 0 74.5 -34.5t31.5 -82.5q0 -51 -30 -84t-76 -33q-45 0 -74.5 33t-29.5 84q0 48 31 82.5t73 34.5zM730 1569q43 0 74 -34.5t31 -82.5q0 -51 -30 -84t-75 -33q-46 0 -75.5 33t-29.5 84q0 48 31 82.5t74 34.5z" />
<glyph unicode="&#x22c;" horiz-adv-x="1511" d="M104 0zM488 2215h538v-148h-538v148zM104 0zM756 78q220 0 333 168.5t113 498.5q0 331 -113 499.5t-333 168.5q-221 0 -333.5 -168.5t-112.5 -499.5q0 -330 112.5 -498.5t333.5 -168.5zM756 -29q-137 0 -251.5 50t-202.5 147q-100 112 -149 254t-49 323t49 323.5 t149 254.5q89 98 202 147.5t252 49.5q292 0 472 -213t180 -562q0 -179 -49 -322.5t-150 -254.5q-89 -98 -202 -147.5t-251 -49.5zM745 1715l-44 28q-18 13 -36.5 20t-33.5 7q-35 0 -58.5 -28.5t-26.5 -74.5l-87 1q2 100 48 159t122 59q33 0 60.5 -9t77.5 -40l44 -26 q21 -13 40.5 -20t35.5 -7q37 0 58 27.5t21 74.5h87q-2 -105 -48 -162t-131 -57q-60 0 -125 45z" />
<glyph unicode="&#x22d;" horiz-adv-x="1109" d="M92 0zM279 1842h538v-148h-538v148zM92 0zM554 70q134 0 202 117t68 345t-68 344.5t-202 116.5q-133 0 -201 -116.5t-68 -344.5t68.5 -345t200.5 -117zM554 -29q-208 0 -335 153.5t-127 407.5t126.5 407t335.5 153q210 0 336.5 -153t126.5 -407t-126.5 -407.5 t-336.5 -153.5zM551 1370l-51 55q-24 24 -38.5 31.5t-31.5 7.5q-38 0 -59.5 -39.5t-26.5 -115.5h-86q2 135 47.5 208.5t127.5 73.5q35 0 63.5 -14t61.5 -47l52 -55q20 -23 35.5 -31t34.5 -8q39 0 60.5 40t24.5 115h87q-2 -135 -48 -208.5t-128 -73.5q-34 0 -63 14t-62 47z " />
<glyph unicode="&#x22e;" horiz-adv-x="1511" d="M104 0zM756 1884q43 0 74 -35t31 -81q0 -50 -30 -83.5t-75 -33.5t-75 33.5t-30 83.5q0 46 31.5 81t73.5 35zM756 78q220 0 333 168.5t113 498.5q0 331 -113 499.5t-333 168.5q-221 0 -333.5 -168.5t-112.5 -499.5q0 -330 112.5 -498.5t333.5 -168.5zM756 -29 q-137 0 -251.5 50t-202.5 147q-100 112 -149 254t-49 323t49 323.5t149 254.5q89 98 202 147.5t252 49.5q292 0 472 -213t180 -562q0 -179 -49 -322.5t-150 -254.5q-89 -98 -202 -147.5t-251 -49.5z" />
<glyph unicode="&#x22f;" horiz-adv-x="1109" d="M92 0zM555 1568q43 0 74 -34.5t31 -82.5q0 -51 -29.5 -84t-75.5 -33t-75.5 33t-29.5 84q0 48 31 82.5t74 34.5zM554 70q134 0 202 117t68 345t-68 344.5t-202 116.5q-133 0 -201 -116.5t-68 -344.5t68.5 -345t200.5 -117zM554 -29q-208 0 -335 153.5t-127 407.5 t126.5 407t335.5 153q210 0 336.5 -153t126.5 -407t-126.5 -407.5t-336.5 -153.5z" />
<glyph unicode="&#x230;" horiz-adv-x="1511" d="M104 0zM487 2215h538v-148h-538v148zM861 1708zM756 1942q43 0 74 -34.5t31 -82.5q0 -51 -29.5 -84t-75.5 -33t-75.5 33t-29.5 84q0 48 31 82.5t74 34.5zM756 78q220 0 333 168.5t113 498.5q0 331 -113 499.5t-333 168.5q-221 0 -333.5 -168.5t-112.5 -499.5 q0 -330 112.5 -498.5t333.5 -168.5zM756 -29q-137 0 -251.5 50t-202.5 147q-100 112 -149 254t-49 323t49 323.5t149 254.5q89 98 202 147.5t252 49.5q292 0 472 -213t180 -562q0 -179 -49 -322.5t-150 -254.5q-89 -98 -202 -147.5t-251 -49.5z" />
<glyph unicode="&#x231;" horiz-adv-x="1109" d="M92 0zM286 1842h538v-148h-538v148zM92 0zM555 1568q43 0 74 -34.5t31 -82.5q0 -51 -29.5 -84t-75.5 -33t-75.5 33t-29.5 84q0 48 31 82.5t74 34.5zM554 70q134 0 202 117t68 345t-68 344.5t-202 116.5q-133 0 -201 -116.5t-68 -344.5t68.5 -345t200.5 -117zM554 -29 q-208 0 -335 153.5t-127 407.5t126.5 407t335.5 153q210 0 336.5 -153t126.5 -407t-126.5 -407.5t-336.5 -153.5z" />
<glyph unicode="&#x232;" horiz-adv-x="1216" d="M0 0zM337 1842h538v-148h-538v148zM348 0v106h172v537l-415 743h-126v107h500v-107h-157l336 -604l336 604h-152v107h391v-107h-127l-404 -724v-556h172v-106h-526z" />
<glyph unicode="&#x233;" horiz-adv-x="1041" d="M0 0zM246 1526h538v-148h-538v148zM398 -195l63 177l-357 974h-109v107h440v-107h-153l269 -731l269 731h-143v107h359v-107h-107l-439 -1196q-44 -124 -99 -169.5t-155 -45.5q-42 0 -87 8t-90 23v203h85q5 -68 31 -97.5t80 -29.5q49 0 79 30.5t64 122.5z" />
<glyph unicode="&#x234;" horiz-adv-x="922" d="M464 164q61 -94 185 -94q143 -2 143 107q0 124 -100 123q-162 -2 -228 -136zM378 532q0 -159 32 -264q127 140 297 140q184 0 184 -238q0 -199 -244 -199q-138 0 -234 71q-8 -32 -7 -117v-144h-103l1 144q3 101 24 180l-17 19q-99 171 -99 408v918h-159v106h325v-1024z " />
<glyph unicode="&#x235;" horiz-adv-x="1532" d="M1074 164q61 -94 185 -94q143 -2 143 107q0 124 -100 123q-162 -2 -228 -136zM822 618q0 195 -43.5 267.5t-152.5 72.5q-115 0 -175 -93.5t-60 -272.5v-486h144v-106h-459v106h149v850h-158v107h324v-189q45 108 118.5 163t170.5 55q159 0 233.5 -101t74.5 -315v-144 q0 -177 33 -264q126 140 297 140q183 0 183 -238q0 -199 -244 -199q-137 0 -234 71q-8 -32 -7 -117v-144h-102v144q3 101 25 180l-17 19q-100 172 -100 408v86z" />
<glyph unicode="&#x236;" horiz-adv-x="909" d="M451 164q61 -94 185 -94q143 -2 143 107q0 124 -99 123q-162 -2 -229 -136zM365 956v-424q0 -159 33 -264q126 140 297 140q183 0 183 -238q0 -199 -244 -199q-137 0 -234 71q-8 -32 -7 -117v-144h-102l1 144q2 101 24 180l-17 19q-100 172 -100 408v424h-146v107h146 v330h166v-330h312v-107h-312z" />
<glyph unicode="&#x237;" horiz-adv-x="571" d="M225 956h-157v107h323v-1167q0 -164 -88 -257.5t-242 -93.5q-65 0 -124 16.5t-114 49.5v219h85q6 -96 44.5 -141t112.5 -45q82 0 121 61.5t39 190.5v1060z" />
<glyph unicode="&#x238;" horiz-adv-x="1769" d="M802 479v105q0 191 -66 292t-192 101q-128 0 -193.5 -112t-65.5 -333q0 -220 65.5 -333t193.5 -113q126 0 192 100.5t66 292.5zM968 479q0 -192 66 -292.5t192 -100.5q127 0 192 113t65 333q0 221 -65 333t-192 112q-126 0 -192 -101t-66 -292v-105zM802 0v166 q-49 -100 -124 -147.5t-186 -47.5q-176 0 -288 155.5t-112 405.5t111.5 405t288.5 155q111 0 186 -47.5t124 -147.5v553h-159v106h325v-659q48 100 123 147.5t186 47.5q177 0 288.5 -155t111.5 -405t-111.5 -405.5t-288.5 -155.5q-111 0 -186 47.5t-123 147.5v-166h-166z " />
<glyph unicode="&#x239;" horiz-adv-x="1769" d="M802 584q0 191 -66 292t-192 101q-128 0 -193.5 -112t-65.5 -333q0 -220 65.5 -333t193.5 -113q126 0 192 100.5t66 292.5v105zM802 956v107h166v-107v-59q48 100 123 147.5t186 47.5q177 0 288.5 -155t111.5 -405t-111.5 -405.5t-288.5 -155.5q-111 0 -186 47.5 t-123 147.5v-485h156h2v-107h-2h-479v107h157v485q-49 -100 -124 -147.5t-186 -47.5q-176 0 -288 155.5t-112 405.5t111.5 405t288.5 155q111 0 186 -47.5t124 -147.5v59zM968 584v-105q0 -192 66 -292.5t192 -100.5q127 0 192 113t65 333q0 221 -65 333t-192 112 q-126 0 -192 -101t-66 -292z" />
<glyph unicode="&#x23a;" horiz-adv-x="1331" d="M-11 0v106h90l49 61l458 1326h151l141 -408l379 465l72 -71l-413 -504l301 -869h132v-106h-489v106h150l-113 328h-423l-244 -298l-10 -30h147v-106h-248l-47 -57l-58 57h-25zM322 404l24 30h-14zM734 909l-118 342l-247 -710h65zM561 541h301l-89 258z" />
<glyph unicode="&#x23b;" horiz-adv-x="1410" d="M112 -57l-71 69l196 240q-53 79 -84 170q-49 143 -49 323q0 348 180.5 561.5t476.5 213.5q110 0 234 -32q93 -24 197 -66l105 128l72 -71l-106 -130v-302h-102q-13 74 -37 133l-728 -890q11 -22 24 -42q111 -170 326 -170q150 0 247.5 79.5t140.5 237.5h166 q-60 -209 -200 -316.5t-354 -107.5q-131 0 -243.5 50t-200.5 147l-3 4zM354 394l718 881q-20 27 -45 49q-100 89 -281 89q-215 0 -325.5 -169.5t-110.5 -498.5q0 -207 44 -351z" />
<glyph unicode="&#x23c;" horiz-adv-x="1032" d="M102 -94l-69 63l152 201q-93 144 -93 362q0 255 127 407.5t335 152.5q91 0 181 -24q51 -13 103 -34l93 123l68 -63l-83 -110v-259h-96q-8 57 -23 102l-460 -609q8 -17 16 -32q68 -116 203 -116q107 0 171 62t87 187h134q-35 -170 -135 -259t-259 -89q-188 0 -309 124z M303 326l446 590q-6 7 -11 13q-64 64 -182 64q-134 0 -202.5 -115.5t-68.5 -345.5q0 -118 18 -206z" />
<glyph unicode="&#x23d;" horiz-adv-x="1224" d="M102 0v106h171v522h-239v170h239v588h-171v107h524v-107h-171v-588h239v-170h-239v-505h614v250h111v-373h-1078z" />
<glyph unicode="&#x23e;" horiz-adv-x="1229" d="M878 0h-526v106h172v451l-503 -614l-70 69l573 702v660h-395v-233h-111v352h1142l46 57l72 -71l-67 -82v-256h-110v121l-395 -483v-673h172v-106zM1063 1374h-357v-438z" />
<glyph unicode="&#x23f;" horiz-adv-x="945" d="M367 -33l67 -162q38 -93 63 -123q26 -30 98 -30q39 0 64.5 29.5t30.5 97.5h85v-203q-45 -15 -89.5 -23t-99.5 -8q-128 0 -184 40q-84 60 -128 175l-72 183q-26 67 -55 96q-22 9 -43 20v248h95q3 -119 66.5 -178t188.5 -59q111 0 169.5 46.5t58.5 135.5q0 70 -42.5 113 t-180.5 92l-120 45q-123 44 -178.5 110t-55.5 168q0 146 96.5 229t266.5 83q76 0 159.5 -22t172.5 -64v-232h-95q-4 103 -65 161t-167 58q-104 0 -157.5 -41t-53.5 -123q0 -67 40.5 -107.5t161.5 -82.5l132 -45q136 -47 195.5 -117.5t59.5 -181.5q0 -151 -103.5 -237.5 t-286.5 -86.5q-50 0 -98 6z" />
<glyph unicode="&#x240;" horiz-adv-x="971" d="M266 0h-192v86l599 870h-474v-184h-95v291h782v-86l-599 -871h43q205 0 304 -228l31 -73q42 -97 64 -123q26 -30 62 -30q39 0 64.5 29.5t30.5 97.5h85v-203q-45 -15 -89.5 -23t-99.5 -8q-92 0 -148 40q-85 60 -129 175l-36 94q-56 146 -203 146z" />
<glyph unicode="&#x241;" horiz-adv-x="1075" d="M308 1387q-77 0 -109 -38q-39 -44 -44 -140h-87v218q56 34 115.5 50t124.5 16h264q202 0 320 -113.5t118 -305.5q0 -194 -118.5 -308t-319.5 -114h-43v-546h208v-106h-561v106h170v654h182q134 0 204.5 80.5t70.5 233.5q0 152 -70.5 232.5t-204.5 80.5h-220z" />
<glyph unicode="&#x242;" horiz-adv-x="855" d="M308 359q134 0 204 81q70 80 70 233q0 152 -70 233q-70 80 -204 80q-77 0 -109 -38q-39 -44 -44 -140h-87v218q56 34 115.5 50t124.5 16h44q202 0 319 -114q118 -113 118 -305q0 -194 -118 -308q-81 -77 -199 -102v-157h209v-106h-544v106h171v253z" />
<glyph unicode="&#x245;" horiz-adv-x="1331" d="M0 0zM1010 106l-394 1145l-396 -1145h147v-106h-378v106h118l479 1387h151l480 -1387h132v-106h-489v106h150z" />
<glyph unicode="&#x250;" horiz-adv-x="1098" d="M405 729v-225h213q124 0 184 59t60 181q0 111 -61 176t-166 65q-103 0 -167 -71q-63 -71 -63 -185zM239 399v558h-147v106h313v-115q55 74 127 109t168 35q160 0 253.5 -94t93.5 -254q0 -165 -107.5 -256t-302.5 -91h-232v-73q0 -121 67 -188q65 -66 185 -66 q99 0 157.5 50t72.5 148h86v-215q-87 -41 -168 -61q-81 -21 -159 -21q-199 0 -302 109q-105 110 -105 319z" />
<glyph unicode="&#x251;" horiz-adv-x="1179" d="M968 107h158v-107h-324v166q-49 -100 -124 -147.5t-186 -47.5q-176 0 -288 155.5t-112 405.5t111.5 405t288.5 155q111 0 186 -47.5t124 -147.5v166h324v-107h-158v-849zM802 479v105q0 191 -66 292t-192 101q-128 0 -193.5 -112t-65.5 -333q0 -220 65.5 -333t193.5 -113 q126 0 192 100.5t66 292.5z" />
<glyph unicode="&#x252;" horiz-adv-x="1179" d="M416 166v-166h-324v107h158v850h-158v106h324v-166q48 100 124 147q75 48 185 48q177 0 288 -156q113 -155 113 -405t-111.5 -405t-289.5 -155q-110 0 -185 47q-76 48 -124 148zM416 584v-105q0 -191 66 -292t192 -101q128 0 194 112q64 112 64 333q0 220 -64 333 q-66 113 -194 113q-126 0 -192 -101q-66 -100 -66 -292z" />
<glyph unicode="&#x253;" horiz-adv-x="1179" d="M379 966l-1 -69q49 100 124 147q75 48 186 48q176 0 287.5 -155t111.5 -405t-111 -406q-112 -155 -288 -155q-111 0 -186 47q-75 48 -124 148v-166h-325v106h159v867v232q0 164 89 257q87 94 241 94q65 0 124 -16q58 -17 114 -50v-219h-85q-7 96 -45 141t-112 45 q-82 0 -120 -61q-39 -59 -39 -191v-239zM378 479q0 -192 67 -293q65 -100 191 -100q127 0 192 113q66 113 66 333q0 221 -66 333q-65 112 -192 112q-126 0 -191 -101q-67 -101 -67 -292v-105z" />
<glyph unicode="&#x254;" horiz-adv-x="1032" d="M92 744q35 170 135 259t258 89q209 0 336 -153q127 -154 127 -408q0 -255 -127 -408q-127 -152 -336 -152q-91 0 -181 24q-90 23 -181 71v272h97q18 -140 82 -204q63 -64 181 -64q134 0 203 115q68 116 68 346t-68 346t-203 116q-107 0 -171 -62t-87 -187h-133z" />
<glyph unicode="&#x255;" horiz-adv-x="1032" d="M371 164q60 -92 185 -94q240 -2 240 107q0 125 -197 123q-162 -2 -228 -136zM318 268q112 132 344 132q238 0 234 -230q-4 -199 -342 -199q-137 0 -234 71q-8 -32 -7 -117v-144h-102l1 144q2 101 24 180q-9 10 -17 19q-127 154 -127 408q0 255 127 408q127 152 335 152 q91 0 181 -24q90 -23 181 -71v-272h-96q-19 140 -82 204q-64 64 -182 64q-134 0 -202 -115q-69 -116 -69 -346q0 -159 33 -264z" />
<glyph unicode="&#x256;" horiz-adv-x="1192" d="M968 -104q0 -130 38 -190q40 -62 122 -62q74 0 112 45t44 141h86v-219q-56 -33 -115 -49q-59 -17 -124 -17q-154 0 -242 93q-87 94 -87 258v232v38q-49 -100 -123 -148q-76 -47 -187 -47q-176 0 -289 155q-111 156 -111 406t111.5 405t288.5 155q111 0 187 -48 q74 -47 123 -147v553h-157v106h323v-1660zM802 479v105q0 191 -66 292t-192 101q-128 0 -193 -112q-66 -112 -66 -333q0 -220 66 -333q65 -113 193 -113q126 0 192 100q66 101 66 293z" />
<glyph unicode="&#x257;" horiz-adv-x="1258" d="M801 897v308q0 164 88 257q87 94 241 94q65 0 125 -16q58 -17 114 -50v-219h-86q-6 96 -45 141q-37 45 -111 45q-82 0 -121 -61q-38 -59 -38 -191v-1099h158v-106h-324v166q-49 -100 -123 -148q-76 -47 -187 -47q-176 0 -289 155q-111 156 -111 406t111.5 405t288.5 155 q111 0 187 -48q73 -47 122 -147zM802 479v105q0 191 -66 292t-192 101q-128 0 -193 -112q-66 -112 -66 -333q0 -220 66 -333q65 -113 193 -113q126 0 192 100q66 101 66 293z" />
<glyph unicode="&#x258;" horiz-adv-x="1090" d="M92 512q4 283 120 432q116 148 333 148q204 0 329 -154t125 -406q0 -254 -128 -408q-127 -153 -336 -153q-174 0 -281 88q-106 88 -146 263h133q28 -125 97 -188q71 -64 180 -64q142 0 215 110q73 109 73 324v8h-714zM287 618h519q-15 185 -80.5 280t-180.5 95 q-122 0 -187 -95q-66 -94 -71 -280z" />
<glyph unicode="&#x259;" horiz-adv-x="1090" d="M92 551h714v8q0 215 -73 325q-73 109 -215 109q-109 0 -180 -63q-69 -64 -97 -189h-133q40 175 146 263q107 88 281 88q209 0 336 -154q128 -153 128 -407q0 -252 -125 -406t-329 -154q-217 0 -333 149q-116 148 -120 431zM287 445q5 -186 71 -281q65 -94 187 -94 q115 0 180.5 95t80.5 280h-519z" />
<glyph unicode="&#x25a;" horiz-adv-x="1554" d="M1598 757l67 -78q-69 -48 -72 -49q-42 -17 -128 -17q-102 0 -188 93q-75 81 -86 213l-229 -146q37 -107 37 -242q0 -252 -125 -406t-329 -154q-218 0 -333 149q-90 118 -102 230l670 428q-18 62 -47 106q-73 109 -215 109q-109 0 -180 -63q-68 -62 -97 -189h-133 q40 175 146 263q107 88 281 88q209 0 336 -154q27 -33 49 -70l246 157h102v-61q0 -131 59 -190q61 -62 135 -62q125 0 136 45zM800 669l-501 -319q1 -101 59 -186q65 -94 187 -94q121 0 180 95q58 92 81 366v28q0 59 -6 110z" />
<glyph unicode="&#x25b;" horiz-adv-x="954" d="M143 810q0 129 88 197q89 67 265 67q48 0 142 -16q94 -17 194 -48v-221h-97q-11 89 -75.5 134t-149.5 45q-209 0 -209 -167q0 -191 231 -191h84v-105h-83q-142 0 -212 -62q-66 -60 -66 -176q0 -79 47 -129q79 -82 206 -82q105 0 180.5 53t84.5 155h97v-231 q-95 -36 -192 -54q-94 -18 -166 -18q-202 0 -312 79t-109 229q0 135 94 213q64 54 172 80q-73 19 -122 54q-92 67 -92 194z" />
<glyph unicode="&#x25c;" horiz-adv-x="937" d="M451 968q-85 0 -149 -45q-65 -46 -76 -135h-97v222q101 31 194 48q94 16 142 16q177 0 265 -67q88 -68 88 -197q0 -127 -92 -194q-48 -35 -122 -54q108 -26 172 -80q92 -78 94 -213q0 -150 -109 -229q-112 -80 -312 -79q-72 0 -165 18q-98 18 -190 54v231h94 q0 -102 85 -155q75 -53 180 -53q127 0 206 82q47 50 47 129q0 116 -66 176q-69 62 -212 62h-82v105h83q232 0 232 191q0 167 -210 167z" />
<glyph unicode="&#x25d;" horiz-adv-x="1424" d="M451 968q-85 0 -149 -45q-65 -46 -76 -135l-97 1v221q101 31 194 48q94 16 142 16q177 0 265 -67q82 -63 88 -180l217 213h103v-61q0 -131 59 -190q61 -62 135 -62q95 0 136 45l67 -78q-41 -38 -72 -49q-49 -17 -128 -17q-103 1 -188 93q-75 81 -86 213l-291 -277 q-18 -23 -44 -41q-48 -35 -122 -54q108 -26 172 -80q93 -78 94 -213q1 -150 -109 -229q-112 -80 -312 -79q-71 0 -165 18q-98 18 -193 54v231h97q9 -102 84.5 -155t180.5 -53q127 0 206 82q47 50 47 129q0 116 -66 176q-70 62 -212 62h-82v105h83q232 0 232 191 q0 167 -210 167z" />
<glyph unicode="&#x25e;" horiz-adv-x="1130" d="M653 987q-10 0 -90 -18q-37 -9 -100 -46q-216 -123 -216 -398q0 -259 216 -398q14 -16 100 -46q35 -11 90 -11q98 0 150 51q51 51 51 147q0 105 -63 158q-64 52 -188 52h-34v100h34q124 0 188 53q63 52 63 158q0 95 -51 146q-52 52 -150 52zM399 38q-307 151 -307 490 q0 308 307 490q52 31 143 56q70 18 137 18q176 0 272 -77t96 -218q0 -102 -68 -173q-68 -72 -190 -96q122 -24 190 -95t68 -174q0 -141 -95.5 -218t-272.5 -77q-36 0 -137 19q-50 5 -143 55z" />
<glyph unicode="&#x25f;" horiz-adv-x="580" d="M225 956h-157v107h323v-493h156v-106h-156v-568q0 -164 -88 -257.5t-242 -93.5q-65 0 -124 16.5t-114 49.5v219h85q6 -96 44.5 -141t112.5 -45q82 0 121 61.5t39 190.5v568h-158v106h158v386z" />
<glyph unicode="&#x260;" horiz-adv-x="1259" d="M802 584l1 372h-259q-128 0 -193.5 -112t-65.5 -312q0 -220 65.5 -333t193.5 -113q126 0 192 100.5t66 292.5v105zM968 1191v-1168q0 -229 -114 -353q-113 -125 -323 -125q-95 0 -181 19t-166 57v223h87q16 -104 76.5 -152t172.5 -48q146 0 214 91.5t68 287.5v143 q-49 -100 -124 -147.5t-186 -47.5q-176 0 -288 155.5t-112 405.5q0 221 111.5 376t288.5 155h310v142q0 164 87 257q88 94 242 94q65 0 124 -16q59 -17 115 -50v-219h-86q-6 96 -44 141t-112 45q-82 0 -122 -61q-38 -60 -38 -191v-14z" />
<glyph unicode="&#x261;" horiz-adv-x="1179" d="M492 1063h634v-107h-158v-933q0 -229 -113.5 -353.5t-323.5 -124.5q-95 0 -181 19t-166 57v223h87q16 -104 76.5 -152t172.5 -48q146 0 214 91.5t68 287.5v143q-49 -100 -124 -147.5t-186 -47.5q-176 0 -288 155.5t-112 405.5q0 221 111.5 376t288.5 155zM802 584l1 372 h-259q-128 0 -193.5 -112t-65.5 -312q0 -220 65.5 -333t193.5 -113q126 0 192 100.5t66 292.5v105z" />
<glyph unicode="&#x262;" horiz-adv-x="1002" d="M556 -33zM566 57zM820 725q-26 157 -82 204q-74 64 -182 64q-117 0 -199 -121q-80 -119 -80 -360q0 -242 83 -358q71 -100 285 -100q55 0 119 30q48 22 59 30l-2 286h-177v77h305v-402q-84 -56 -181 -84t-206 -28q-214 0 -342 153t-128 407q0 255 128 408 q129 152 346 152q76 0 167 -22q86 -21 183 -64v-272h-96z" />
<glyph unicode="&#x263;" horiz-adv-x="1312" d="M553 465l-324 495h-144v107h532v-107h-158l220 -323l198 319h-173v107h440v-107h-151l-258 -413q137 -211 211 -375q87 -195 87 -325q0 -150 -104 -225q-104 -74 -310 -74q-189 0 -263 103q-46 65 -46 172q0 121 87 329q58 139 156 317zM413 -208q0 -54 30 -88 q48 -54 172 -54q117 0 166 47q35 34 35 91q0 147 -59 304q-51 134 -145 276q-77 -145 -124 -264q-75 -190 -75 -312z" />
<glyph unicode="&#x264;" horiz-adv-x="1039" d="M130 1020q79 69 179.5 69t232.5 -206q132 203 314 203h3q42 0 70 -57v-75h-95v19q0 47 -42 47h-1q-61 0 -193 -223q86 -154 139 -278q87 -204 87 -324q0 -78 -37 -121q-96 -107 -301 -107q-132 0 -232 107q-44 46 -44 126q0 102 71 259q57 125 159 285q-138 273 -182 273 q-37 0 -37 -87v-18h-91v108zM327 185q0 -59 46 -87q40 -24 115 -24q81 0 133 65q34 42 34 80q0 64 -51 195q-40 102 -110 244q-80 -127 -122 -241q-45 -124 -45 -232z" />
<glyph unicode="&#x265;" horiz-adv-x="1187" d="M640 -320h156v508q-45 -106 -118 -162q-73 -55 -170 -55q-159 0 -234 101q-75 100 -75 315v569h-149v107h315v-619q0 -194 44 -266q42 -72 152 -72q115 0 175 94t60 273v483h-144v107h310v-1383h157v-106h-323l-156 2v104z" />
<glyph unicode="&#x266;" horiz-adv-x="1187" d="M392 874q45 108 117 163q74 55 171 55q159 0 233.5 -101t74.5 -315v-570h148v-106h-457v106h143v512q0 195 -43 266q-43 72 -153 72q-115 0 -175 -93t-60 -271v-486h144v-106h-459v106h149v867v232q0 164 88 257q87 94 241 94q65 0 125 -16q58 -17 114 -50v-219h-86 q-6 96 -45 141q-37 45 -111 45q-82 0 -121 -61q-38 -57 -38 -191v-331z" />
<glyph unicode="&#x267;" horiz-adv-x="1187" d="M392 874q45 108 117 163q74 55 171 55q159 0 233.5 -101t74.5 -315v-548v-232q0 -164 -88 -258q-87 -93 -241 -93q-65 0 -124 17q-59 16 -115 49v219h86q6 -96 45 -141q38 -45 111 -45q82 0 121 62q39 60 39 190v232v490q0 195 -43 266q-43 72 -153 72q-115 0 -175 -93 t-60 -271v-486h144v-106h-459v106h149v867v232q0 164 88 257q87 94 241 94q65 0 125 -16q58 -17 114 -50v-219h-86q-6 96 -45 141q-37 45 -111 45q-82 0 -121 -61q-38 -59 -38 -191v-239v-92z" />
<glyph unicode="&#x268;" horiz-adv-x="589" d="M67 0zM179 1393q0 46 30 80t73 34q41 0 71 -34t30 -80q0 -47 -29.5 -80t-72 -33t-72.5 33t-30 80zM391 106h156v-106h-480v106h158v358h-158v106h158v386h-158v107h324v-493h156v-106h-156v-358z" />
<glyph unicode="&#x269;" horiz-adv-x="722" d="M224 351l1 605h-158v107h324v-712q0 -131 37 -191q40 -61 122 -61v-99q-154 0 -242 94q-84 89 -84 257z" />
<glyph unicode="&#x26a;" horiz-adv-x="589" d="M391 106h156v-106h-480v106h158v850h-158v107h480v-103h-156v-854z" />
<glyph unicode="&#x26b;" horiz-adv-x="701" d="M442 106h156v-106h-481v106h159v638l-6 4q-15 8 -32 8q-38 0 -60 -40q-21 -39 -26 -115h-86q2 135 47 209q46 73 128 73q19 0 35 -4v571h-159v106h325v-812q6 -5 12 -8q15 -8 34 -8q38 0 60 40t25 115h87q-2 -135 -48 -209q-46 -73 -128 -73q-22 0 -42 6v-501z" />
<glyph unicode="&#x26c;" horiz-adv-x="837" d="M575 106h157v-106h-482v106h159v362q-342 1 -342 196q-1 229 211 230q78 0 132 -56v612h-160v106h325v-992h220v-99h-220v-359zM400 564q-19 223 -84 222q-53 -1 -53 -115q0 -105 137 -107z" />
<glyph unicode="&#x26d;" horiz-adv-x="668" d="M212 1450h-159v106h325v-1660q0 -130 38 -190q39 -62 121 -62q74 0 113 45q38 45 44 141h85v-219q-55 -33 -115 -49q-58 -17 -123 -17q-154 0 -242 93q-87 94 -87 258v1554z" />
<glyph unicode="&#x26e;" horiz-adv-x="1297" d="M733 423h-86v102l297 431h-474v-184h-92v-666h157v-106h-482v106h159v1344h-159v106h325v-493h779v-86l-332 -483l71 -7q166 -29 258 -150q91 -120 91 -312q0 -234 -127 -359q-126 -124 -364 -124q-105 0 -205 28q-101 28 -200 85v324h101q9 -161 87.5 -244t220.5 -83 q138 0 218 100q79 99 79 271q0 197 -82 299q-82 101 -240 101z" />
<glyph unicode="&#x26f;" horiz-adv-x="1747" d="M809 236q-48 -117 -121 -176q-75 -60 -174 -60q-150 0 -224 104q-74 103 -74 312v570h-149v106h315v-655q0 -163 43 -232t143 -69q111 0 168 93q59 93 59 271v486h-144v106h309v-662q0 -159 44 -226q43 -68 143 -68q110 0 169 93q57 93 57 271v486h-144v106h310v-958h158 v-105h-324v189q-45 -106 -116.5 -162t-161.5 -56q-111 0 -186 62q-75 61 -100 174z" />
<glyph unicode="&#x270;" horiz-adv-x="1747" d="M1539 -319h158v-107h-480v107h156v537q-45 -106 -116.5 -162t-161.5 -56q-111 0 -186 62q-75 61 -100 174q-48 -117 -121 -176q-75 -60 -174 -60q-150 0 -224 104q-74 103 -74 312v570h-149v106h315v-655q0 -163 43 -232t143 -69q111 0 168 93q59 93 59 271v486h-144v106 h309v-662q0 -159 44 -226q43 -68 143 -68q110 0 169 93q57 93 57 271v486h-144v106h310v-1411z" />
<glyph unicode="&#x271;" horiz-adv-x="1747" d="M1549 -104q0 -164 -87 -258q-89 -93 -242 -93q-65 0 -124 17q-59 16 -115 49v219h85q7 -96 45 -141t112 -45q82 0 122 62q37 60 37 190v759q0 163 -43 232t-143 69q-111 0 -168 -93q-59 -93 -59 -271v-486h144v-106h-453v106h144v556q0 159 -44 226q-43 68 -143 68 q-110 0 -169 -93q-57 -93 -57 -271v-486h144v-106h-459v106h149v852h-158v105h324v-189q45 106 116.5 162t161.5 56q111 0 186 -62q75 -61 100 -174q48 117 121 176q75 60 174 60q150 0 224 -104q74 -103 74 -312q1 -393 1 -780z" />
<glyph unicode="&#x272;" horiz-adv-x="1186" d="M391 -104q0 -164 -89 -258q-87 -93 -241 -93q-65 0 -124 17q-58 16 -114 49v219h85q6 -96 45 -141q38 -45 112 -45q82 0 120 62q39 60 39 190v1060h-158v107h324v-189q46 108 119 163t171 55q158 0 232.5 -101t74.5 -315v-570h148v-106h-457v106h143v512q0 195 -43 268 q-44 72 -152 72q-116 0 -176 -94q-60 -93 -60 -272q1 -350 1 -696z" />
<glyph unicode="&#x273;" horiz-adv-x="1278" d="M822 618q0 195 -44 268q-43 72 -152 72q-115 0 -175 -94q-60 -93 -60 -272v-486h144v-106h-459v106h149v850h-158v107h324v-189q46 108 118 163q74 55 171 55q157 0 234 -101q74 -99 74 -315v-780q0 -130 38 -190q40 -62 122 -62q73 0 112 45q38 45 44 141h86v-219 q-56 -33 -116 -49q-58 -17 -123 -17q-154 0 -242 93q-87 94 -87 258v722z" />
<glyph unicode="&#x274;" horiz-adv-x="1190" d="M76 0v106h125l1 850h-126v107h345l423 -775v668h-180v107h472v-107h-128l-1 -985h-162l-477 828l-1 -693h181v-106h-472z" />
<glyph unicode="&#x275;" horiz-adv-x="1109" d="M554 70q134 0 202 117q57 99 66 277h-535q9 -178 67 -277q68 -117 200 -117zM286 570h537q-5 200 -67 306q-68 117 -201.5 117t-201.5 -117q-62 -106 -67 -306zM554 -29q-208 0 -335 153q-127 154 -127 408t126 407q127 153 336.5 153t336.5 -153q126 -153 126 -407 t-126 -408q-127 -153 -337 -153z" />
<glyph unicode="&#x276;" horiz-adv-x="1456" d="M643 948q-164 6 -262 -111q-94 -112 -94 -312q0 -202 94 -314q91 -111 262 -113l25 -1l39 9v850l-41 -9zM1403 0h-787q-247 0 -385.5 141t-138.5 393q0 249 138 389t386 140h776v-237h-87l1 130h-432v-328h308l-1 124h85v-353h-85l1 123h-308v-416h442v130h87v-236z" />
<glyph unicode="&#x277;" horiz-adv-x="1193" d="M698 529v-40q0 -120 30 -226q56 -197 111 -197q80 0 80 364q-1 173 -51 342q-82 197 -269 201q-180 4 -266 -201q-49 -169 -50 -342q0 -364 80 -364q55 0 110 197q31 106 31 226v40h194zM599 272q-21 -142 -85 -222q-64 -79 -157 -79q-127 0 -196 112q-69 111 -69 317 q0 79 17 160q21 106 49 167q164 358 441 358q280 0 444 -358q28 -61 50 -167q17 -81 17 -160q0 -206 -70 -317q-69 -112 -196 -112q-92 0 -156 79q-64 80 -89 222z" />
<glyph unicode="&#x278;" horiz-adv-x="1109" d="M639 -320h157v-106h-481v106h158v297q-153 25 -254 147q-127 154 -127 408t126 407q101 122 255 147v363h-158v107h481v-103h-157v-368q152 -25 252 -146q126 -153 126 -407t-126 -408q-100 -121 -252 -146v-298zM473 83v897q-74 -26 -120 -104q-68 -116 -68 -344 t69 -345q45 -78 119 -104zM639 979v-895q72 27 117 103q68 117 68 345t-68 344q-45 76 -117 103z" />
<glyph unicode="&#x279;" horiz-adv-x="923" d="M67 -2v266h95q4 -79 39.5 -118t102.5 -39q123 0 187 94q66 94 66 270v486h-192v106h507v-106h-149v-852h158v-105h-324v189q-49 -111 -125 -165q-76 -53 -186 -53q-41 0 -86 7q-44 7 -93 20z" />
<glyph unicode="&#x27a;" horiz-adv-x="923" d="M67 -2v266h95q4 -79 39.5 -118t102.5 -39q120 0 187 94q66 91 66 270v978h-192v106h507v-106h-149v-1344h158v-105h-324v189q-49 -111 -125 -165q-76 -53 -186 -53q-41 0 -86 7q-44 7 -93 20z" />
<glyph unicode="&#x27b;" horiz-adv-x="1016" d="M557 0v189q-49 -111 -125 -165q-76 -53 -186 -53q-41 0 -86 7q-44 7 -93 20v266h95q4 -79 39.5 -118t102.5 -39q123 0 187 94q66 94 66 270v486h-192v106h507v-106h-147v-829v-232q0 -130 39 -190q39 -62 122 -62q73 0 111 45t45 141h85v-219q-56 -33 -115 -49 q-58 -17 -123 -17q-155 0 -242 93q-84 90 -87 258z" />
<glyph unicode="&#x27c;" horiz-adv-x="881" d="M881 1065v-266h-95q-5 79 -40 118t-102 39q-123 0 -189 -94q-64 -94 -64 -270v-910h191v-106h-506v106h149v1276h-158v105h324v-189q48 111 125 164q76 54 186 54q40 0 85 -7t94 -20z" />
<glyph unicode="&#x27d;" horiz-adv-x="881" d="M881 1065v-266h-95q-5 79 -40 118t-102 39q-123 0 -189 -94q-64 -94 -64 -270q1 -348 -2 -696q0 -130 38 -190q39 -62 121 -62q74 0 113 45q37 45 44 141h85v-219q-56 -33 -115 -49q-59 -17 -123 -17q-154 0 -242 93q-88 94 -88 258v104q1 472 0 958h-155v105h324v-189 q48 111 125 164q76 54 186 54q40 0 85 -7t94 -20z" />
<glyph unicode="&#x27e;" horiz-adv-x="834" d="M391 106h191v-106h-506v106h148v522v106q0 164 87 258q89 93 243 93q64 0 123 -17q59 -16 115 -49v-219h-86q-6 96 -44 141t-112 45q-82 0 -122 -62q-37 -60 -37 -190v-106v-522z" />
<glyph unicode="&#x27f;" horiz-adv-x="834" d="M477 106v522v106q0 130 -38 190q-39 62 -121 62q-74 0 -113 -45q-38 -45 -44 -141h-85v219q55 33 115 49q58 17 123 17q154 0 242 -93q88 -94 88 -258v-106v-522h148v-106h-507v106h192z" />
<glyph unicode="&#x280;" horiz-adv-x="1094" d="M680 536q45 -14 78 -46q25 -26 57 -99l127 -288h131l-2 -103h-257l-149 338q-43 98 -79 127t-98 29h-110v-391h119l-2 -103h-431l2 103h150l-2 857h-150v103h545q140 0 216 -74t76 -210q0 -102 -56 -165q-55 -63 -165 -78zM378 597h156q98 0 143 51q46 51 46 131t-46 130 q-47 51 -143 51h-156v-363z" />
<glyph unicode="&#x281;" horiz-adv-x="1094" d="M680 527q110 -15 165 -78q56 -63 56 -165q0 -136 -76 -210t-216 -74h-545v103h150l2 857h-150l-2 103h431l2 -103h-119v-391h110q62 0 98 29t79 127l149 338h257l2 -103h-131l-127 -288q-32 -73 -57 -99q-33 -32 -78 -46zM378 466v-363h156q96 0 143 51q46 50 46 130 t-46 131q-45 51 -143 51h-156z" />
<glyph unicode="&#x282;" horiz-adv-x="945" d="M269 -4v-100q0 -130 39 -190q38 -62 120 -62q74 0 112 45q39 45 45 141h85v-219q-55 -33 -114 -49q-59 -17 -124 -17q-154 0 -241 93q-88 94 -88 258v232h1v179h95q3 -119 67 -178l1 -1h2v-2q63 -56 185 -56q111 0 169.5 46.5t58.5 135.5q0 70 -42.5 113t-180.5 92 l-120 45q-123 44 -178.5 110t-55.5 168q0 146 96.5 229t266.5 83q76 0 159.5 -22t172.5 -64v-232h-95q-4 103 -65 161t-167 58q-104 0 -157.5 -41t-53.5 -123q0 -67 40.5 -107.5t161.5 -82.5l132 -45q136 -47 195.5 -117.5t59.5 -181.5q0 -151 -104 -237.5t-286 -86.5 q-93 0 -181 22z" />
<glyph unicode="&#x283;" horiz-adv-x="500" d="M391 -104q20 -142 -89 -258q-87 -93 -241 -93q-65 0 -124 17q-59 16 -114 49v219h85q6 -96 45 -141q38 -45 112 -45q80 0 120 62q54 80 39 190q-95 650 -181 1312q-19 143 88 257q88 93 242 93q64 0 124 -16q58 -16 114 -50v-218h-85q-7 96 -45 140q-38 46 -112 46 q-82 0 -121 -62q-53 -81 -38 -190q84 -663 181 -1312z" />
<glyph unicode="&#x284;" horiz-adv-x="682" d="M391 956v-386h156v-106h-156v-568q0 -164 -88 -257.5t-242 -93.5q-65 0 -124 16.5t-114 49.5v219h85q6 -96 44.5 -141t112.5 -45q82 0 121 61.5t39 190.5v568h-158v106h158v386h-157h-1v107h1h157v133q0 178 83.5 269t244.5 91q60 0 120.5 -12t119.5 -37v-202h-87 q-1 75 -38.5 114t-108.5 39q-93 0 -131 -56q-37 -59 -37 -202v-137v-107z" />
<glyph unicode="&#x285;" horiz-adv-x="897" d="M287 -104l181 839q14 110 -39 191q-38 61 -120 61q-74 0 -112 -45q-39 -45 -45 -141h-85v219q55 33 114 50q59 16 124 16q154 0 241 -94q117 -124 88 -257l-180 -839q-16 -110 38 -190q41 -62 121 -62q74 0 111 45q39 45 46 141h85v-219q-56 -33 -114 -49 q-60 -17 -125 -17q-153 0 -241 93q-117 125 -88 258z" />
<glyph unicode="&#x286;" horiz-adv-x="597" d="M162 -356q80 0 122 62q47 72 40 167q-13 1 -25 1q-280 0 -280 -123q0 -107 143 -107zM480 -230q-21 -71 -79 -132q-92 -93 -237 -93q-338 0 -341 199q-5 230 479 230h9q-175 1220 -171 1234q-19 142 89 257q87 93 241 93q65 0 124 -16t114 -50v-218h-85q-6 96 -44 140 q-39 46 -113 46q-82 0 -120 -62q-53 -81 -39 -190q97 -748 177 -1288q110 -86 113 -306l1 -64h-90v64q0 95 -28 156z" />
<glyph unicode="&#x287;" horiz-adv-x="740" d="M580 107h146v-107h-146v-330h-166v330h-311v107h311v675q0 135 -23.5 173t-86.5 38q-65 0 -94 -43q-30 -42 -32 -137h-125q7 145 71 212t195 67q143 0 202 -70q59 -71 59 -240v-675z" />
<glyph unicode="&#x288;" horiz-adv-x="740" d="M199 956h-146v107h146v330h166v-330h312v-107h-312v-1072q0 -135 23.5 -173t86.5 -38q65 0 95 43q29 42 31 137h125q-7 -145 -71 -212t-194 -67q-143 0 -203 70q-59 71 -59 240v1072z" />
<glyph unicode="&#x289;" horiz-adv-x="1187" d="M652 1063h310v-493h157v-106h-157v-358h157v-106h-323v188q-45 -106 -118 -162q-73 -55 -170 -55q-159 0 -234 101q-75 100 -75 315v77h-149v106h149v386h-149v107h315v-493h431v386h-144v107zM796 464h-431v-20q0 -194 44 -266q42 -72 152 -72q115 0 175 94 q59 92 60 264z" />
<glyph unicode="&#x28a;" horiz-adv-x="1143" d="M972 990h-220q137 -64 218 -193q81 -130 81 -287q0 -111 -39 -207q-38 -99 -110 -172q-65 -67 -150 -102q-85 -36 -180 -36q-97 0 -180.5 35t-149.5 103q-74 75 -112 172t-38 207q0 157 81 286q81 130 219 194h-299v106h400v-165q-107 -46 -162 -149t-55 -256 q0 -185 81 -297q82 -112 214.5 -112t213.5 112q82 112 82 297q0 154 -55 257q-55 102 -161 148v165h321v-106z" />
<glyph unicode="&#x28b;" horiz-adv-x="1120" d="M629 990h101q138 -64 219 -193q81 -130 81 -287q0 -111 -38 -207q-40 -99 -112 -172q-65 -67 -149 -102q-85 -36 -181 -36q-148 7 -242 101q-84 83 -84 257l1 605h-158v107h324v-712q0 -131 37 -191q39 -60 122 -61q112 -2 213 130q82 107 82 297q0 154 -55 257 q-55 102 -161 148v59z" />
<glyph unicode="&#x28c;" horiz-adv-x="1041" d="M575 1063l352 -956h109v-107h-440v107h153l-269 731l-269 -731h143v-107h-359v107h107l352 956h121z" />
<glyph unicode="&#x28d;" horiz-adv-x="1577" d="M698 0l-244 830l-216 -723h138v-107h-346v107h106l284 956h138l236 -795l236 795h133l283 -956h107v-107h-433v107h155l-214 723l-247 -830h-116z" />
<glyph unicode="&#x28e;" horiz-adv-x="1041" d="M633 1258l-63 -177l357 -974h109v-107h-440v107h153l-269 731l-269 -731h143v-107h-359v107h107l438 1196q45 124 100 169q55 46 155 46q42 0 87 -8q44 -8 89 -23v-203h-85q-5 68 -31 98q-25 29 -79 29q-50 0 -79 -31q-31 -30 -64 -122z" />
<glyph unicode="&#x28f;" horiz-adv-x="1207" d="M382 -2v104l167 2v307l-302 541h-171v111l496 2v-111l-168 -2l245 -440l245 440h-178v111l426 2v-111l-166 -2l-295 -527v-321l167 2v-106z" />
<glyph unicode="&#x290;" horiz-adv-x="1100" d="M74 0v86l599 870h-474v-184h-95v291h782v-86l-599 -871h617v-210q0 -131 37 -190q40 -62 122 -62q74 0 111 45q39 45 46 141h85v-219q-56 -33 -115 -49q-59 -17 -124 -17q-152 0 -242 93q-87 92 -87 258v104h-663z" />
<glyph unicode="&#x291;" horiz-adv-x="1032" d="M612 108q197 0 197 99q0 121 -57 121q-140 0 -140 -220zM491 0h-417v86l599 870h-474v-184h-95v291h782v-86l-599 -871l204 -1q2 325 274 325q144 0 143 -230q0 -200 -297 -200v-190h-120v190z" />
<glyph unicode="&#x292;" horiz-adv-x="1040" d="M475 423h-85v102l297 431h-475v-184h-95v291h783v-86l-332 -483l71 -7q166 -29 257 -150q91 -120 91 -312q0 -234 -127 -359q-126 -124 -363 -124q-105 0 -205 28q-101 28 -200 85v324h101q9 -161 87 -244t220 -83q138 0 218 100q79 99 79 271q0 197 -81 299 q-82 101 -241 101z" />
<glyph unicode="&#x293;" horiz-adv-x="1032" d="M497 -458q-338 0 -341 199q-5 232 234 230q272 -3 367 -157q40 86 40 209q0 197 -81 299q-82 101 -241 101h-85v102l297 431h-475v-184h-95v291h783v-86l-332 -483l71 -7q166 -29 257 -150q91 -120 91 -312q0 -234 -127 -359q-15 -15 -33 -29q14 -75 13 -94h-102l-8 53 q-145 -54 -233 -54zM691 -268q-68 140 -239 139q-100 0 -100 -123q0 -95 148 -96q123 0 191 80z" />
<glyph unicode="&#x294;" horiz-adv-x="988" d="M369 106v726h104q81 0 121 62q38 60 38 254q0 190 -38 250q-40 62 -121 62q-73 0 -112 -46q-39 -44 -44 -140h-87v218q56 34 115.5 50t124.5 16q153 0 241 -93t88 -317q0 -228 -88 -322q-74 -77 -176 -85v-635h156v-106h-156h-166h-158v106h158z" />
<glyph unicode="&#x295;" horiz-adv-x="988" d="M641 0h-166h-156v106h156v635q-102 8 -176 85q-88 94 -88 322q0 224 88 317q87 93 241 93q65 0 124 -16t114 -50v-218h-85q-6 96 -45 140q-38 46 -112 46q-82 0 -120 -62q-39 -60 -39 -250q0 -194 39 -254q38 -62 120 -62h105v-726h158v-106h-158z" />
<glyph unicode="&#x296;" horiz-adv-x="988" d="M369 1558h166h156v-106h-156v-634q102 -9 176 -86q88 -94 88 -322q0 -223 -88 -316q-88 -94 -241 -94q-65 0 -124 16q-60 17 -116 50v219h87q5 -96 44 -141t112 -45q81 0 121 61q38 60 38 250q0 195 -38 255q-40 61 -121 61h-104v726h-158v106h158z" />
<glyph unicode="&#x297;" horiz-adv-x="945" d="M103 125v1079q0 164 88 258q87 93 241 93q65 0 124 -17q59 -16 114 -49v-219h-85q-6 96 -45 141q-38 45 -112 45q-82 0 -120 -62q-39 -59 -39 -190v-1076v-232q0 -130 39 -190q38 -62 120 -62q74 0 112 45q39 45 45 141h85v-219q-55 -33 -114 -49q-59 -17 -124 -17 q-154 0 -241 93q-88 94 -88 258v229z" />
<glyph unicode="&#x298;" horiz-adv-x="1511" d="M653 745q0 46 31 80q29 34 72 34q41 0 72 -34q29 -34 29 -80q0 -47 -30 -80t-72 -33t-71 33q-31 33 -31 80zM756 78q220 0 333 168.5t113 498.5q0 331 -113 499.5t-333 168.5q-221 0 -333.5 -168.5t-112.5 -499.5q0 -330 112.5 -498.5t333.5 -168.5zM756 -29 q-137 0 -251.5 50t-202.5 147q-100 112 -149 254t-49 323t49 323.5t149 254.5q89 98 202 147.5t252 49.5q292 0 472 -213t180 -562q0 -179 -49 -322.5t-150 -254.5q-89 -98 -202 -147.5t-251 -49.5z" />
<glyph unicode="&#x299;" horiz-adv-x="1037" d="M66 0zM596 1063q313 0 313 -263q0 -94 -55 -150.5t-160 -69.5q266 -35 266 -272q0 -158 -96 -233t-301 -75h-497v106h150v851h-150v106h530zM382 642h152q95 0 147 44.5t52 112.5t-52.5 113t-146.5 45h-152v-315zM382 106h183q105 0 162.5 56t57.5 147t-57 146t-163 55 h-183v-404z" />
<glyph unicode="&#x29a;" horiz-adv-x="1130" d="M485 70q11 0 90 18q37 8 101 45q216 124 216 399q0 259 -216 398q-14 15 -101 45q-34 12 -90 12q-97 0 -149 -51q-52 -52 -52 -147q0 -105 63 -158q64 -53 189 -53h34v-99h-34q-125 0 -189 -53q-63 -53 -63 -158q0 -96 52 -147t149 -51zM740 1018q307 -150 307 -490 q0 -308 -307 -490q-52 -31 -143 -55q-71 -19 -137 -19q-176 1 -273 77q-95 77 -95 218q0 103 67 174q69 71 190 95q-121 25 -190 96q-67 71 -67 174q0 141 95 217q96 77 273 77q36 0 137 -18q49 -6 143 -56z" />
<glyph unicode="&#x29b;" horiz-adv-x="1205" d="M916 725h-96q-26 157 -82 204q-74 64 -182 64q-117 0 -199 -121q-80 -119 -80 -360q0 -236 83 -358q71 -100 285 -100q55 0 119 30q48 22 59 30l-2 286h-177v77h305v-402q-84 -56 -181 -84t-206 -28q-214 0 -342 153t-128 407q0 255 128 408q129 152 346 152 q81 0 167 -22l16 -4v148q0 164 87 257q87 94 242 94q65 0 124 -16q58 -17 114 -50v-219h-85q-7 96 -45 141t-111 45q-83 0 -122 -61q-39 -59 -39 -191v-207l2 -1v-272z" />
<glyph unicode="&#x29c;" horiz-adv-x="1228" d="M63 0zM982 957v-851h149v-106h-464v106h149v410h-438v-410h149v-106h-464v106h149v851h-149v106h464v-106h-149v-317h438v317h-149v106h464v-106h-149z" />
<glyph unicode="&#x29d;" horiz-adv-x="674" d="M0 0zM287 1393q0 46 30 80t73 34q41 0 71 -34t30 -80q0 -47 -29.5 -80t-72 -33t-72.5 33t-30 80zM463 -290q38 -98 44 -164h-102l-15 75q-90 -76 -226 -76q-341 0 -341 199q0 230 234 230q171 0 271 -60v1042h-157v107h322v-1167q0 -113 -30 -186zM315 -216 q-50 90 -196 90q-100 0 -100 -123q0 -95 148 -95q114 0 148 128z" />
<glyph unicode="&#x29e;" horiz-adv-x="1116" d="M674 520l131 135v408h315v-106h-150l2 -1279h159v-106h-484v106h159l-1 842l-404 -413h138v-107h-433v107h164l284 292l-363 558h-138v106h472v-106h-137z" />
<glyph unicode="&#x29f;" horiz-adv-x="1190" d="M76 0v106h171v850h-171v107h524v-107h-171v-833h414v250h111v-373h-878z" />
<glyph unicode="&#x2a0;" horiz-adv-x="1259" d="M968 -319h158v-107h-481v107h157v485q-49 -100 -123 -148q-76 -47 -187 -47q-176 0 -289 155q-111 156 -111 406t111.5 405t288.5 155q111 0 187 -48q74 -47 123 -147v76v232q0 164 87 257q88 94 242 94q65 0 124 -16q59 -17 115 -50v-219h-86q-6 96 -44 141t-112 45 q-82 0 -122 -61q-38 -59 -38 -191v-1524zM802 584q0 191 -66 292t-192 101q-128 0 -193 -112q-66 -112 -66 -333q0 -220 66 -333q65 -113 193 -113q126 0 192 100q66 101 66 293v105z" />
<glyph unicode="&#x2a1;" horiz-adv-x="988" d="M535 106h156v-106h-156h-166h-158v106h158v358h-158v106h158v262h104q81 0 121 62q38 60 38 254q0 190 -38 250q-40 62 -121 62q-73 0 -112 -46q-39 -44 -44 -140h-87v218q56 34 115.5 50t124.5 16q153 0 241 -93t88 -317q0 -228 -88 -322q-74 -77 -176 -85v-171h156 v-106h-156v-358z" />
<glyph unicode="&#x2a2;" horiz-adv-x="988" d="M641 0h-166h-156v106h156v358h-156v106h156v171q-102 8 -176 85q-88 94 -88 322q0 224 88 317q87 93 241 93q65 0 124 -16t114 -50v-218h-85q-6 96 -45 140q-38 46 -112 46q-82 0 -120 -62q-39 -60 -39 -250q0 -194 39 -254q38 -62 120 -62h105v-262h158v-106h-158v-358 h158v-106h-158z" />
<glyph unicode="&#x2a3;" horiz-adv-x="1836" d="M802 479v105q0 191 -66 292t-192 101q-128 0 -193.5 -112t-65.5 -333q0 -220 65.5 -333t193.5 -113q126 0 192 100.5t66 292.5zM968 1063h782v-86l-599 -871h520v193h97v-299h-642h-188h-136v166q-49 -100 -124 -147.5t-186 -47.5q-176 0 -288 155.5t-112 405.5 t111.5 405t288.5 155q111 0 186 -47.5t124 -147.5v553h-157v106h323v-493zM968 772v-643l569 827h-474v-184h-95z" />
<glyph unicode="&#x2a4;" horiz-adv-x="1904" d="M1325 423h-86v102l297 431h-474v-184h-94v-666h158v-106h-324v166q-49 -100 -124 -147.5t-186 -47.5q-176 0 -288 155.5t-112 405.5t111.5 405t288.5 155q111 0 186 -47.5t124 -147.5v553h-157v106h323v-493h782v-86l-332 -483l71 -7q165 -29 257 -150q91 -120 91 -312 q0 -234 -127 -359q-126 -124 -364 -124q-105 0 -205 28q-101 28 -200 85v324h101q9 -161 87.5 -244t220.5 -83q138 0 218 100q79 99 79 271q0 197 -82 299q-82 101 -240 101zM802 479v105q0 191 -66 292t-192 101q-128 0 -193.5 -112t-65.5 -333q0 -220 65.5 -333 t193.5 -113q126 0 192 100.5t66 292.5z" />
<glyph unicode="&#x2a5;" horiz-adv-x="1839" d="M1474 108q197 0 197 99q0 121 -56 121q-141 0 -141 -220zM802 479v105q0 191 -66 292t-192 101q-128 0 -193 -112q-66 -112 -66 -333q0 -220 66 -333q65 -113 193 -113q126 0 192 100q66 101 66 293zM968 1063h781v-86l-600 -871h206q0 324 272 324q144 0 143 -230 q0 -200 -297 -200v-190h-118v190h-553v166q-49 -100 -123 -148q-76 -47 -187 -47q-176 0 -289 155q-111 156 -111 406t111.5 405t288.5 155q111 0 187 -48q74 -47 123 -147v553h-157v106h323v-493zM968 772v-640l567 824h-474v-184h-93z" />
<glyph unicode="&#x2a6;" horiz-adv-x="1490" d="M199 956h-146v107h146v330h166v-330h312v-107h-312v-675q0 -135 23.5 -173t86.5 -38q65 0 94.5 42.5t31.5 137.5h169q0 -49 53 -106q7 -8 14 -15q64 -59 188 -59q112 0 170.5 46.5t58.5 135.5q0 70 -43 113t-181 92l-119 45q-124 44 -179 110t-55 168q0 146 96 229 t267 83q75 0 158.5 -22t173.5 -64v-232h-96q-3 103 -64.5 161t-166.5 58t-158.5 -41t-53.5 -123q0 -67 41 -107q41 -42 162 -83l131 -45q136 -46 196 -118q60 -70 60 -181q0 -151 -104 -237.5t-287 -86.5q-92 0 -180.5 22t-176.5 66v4q-9 -14 -20 -25q-64 -67 -194 -67 q-143 0 -202.5 70.5t-59.5 239.5v675z" />
<glyph unicode="&#x2a7;" horiz-adv-x="1101" d="M992 -104q20 -143 -88 -258q-88 -93 -242 -93q-64 0 -124 17q-58 16 -114 49v219h85q7 -96 45 -141t112 -45q80 0 121 62q54 80 38 190q-108 737 -151 1060h-309v-675q0 -135 23.5 -173t86.5 -38q65 0 94.5 42.5t31.5 137.5h125q-7 -145 -71 -212t-194 -67 q-143 0 -202.5 70.5t-59.5 239.5v675h-146v107h146v330h166v-330h294q-17 137 -15 145q-19 142 89 257q87 93 241 93q65 0 124 -16t114 -50v-218h-85q-6 93 -45 140q-38 46 -112 46q-80 0 -120 -62q-54 -81 -39 -190q85 -663 181 -1312z" />
<glyph unicode="&#x2a8;" horiz-adv-x="1441" d="M775 268q112 132 344 132q238 0 234 -230q-4 -199 -341 -199q-138 0 -234 71q-9 -32 -8 -117v-144h-102l1 144q2 88 19 159q-14 -27 -33 -46q-64 -67 -194 -67q-143 0 -202.5 70.5t-59.5 239.5v675h-146v107h146v330h166v-330h312v-107h-312v-675q0 -135 23.5 -173 t86.5 -38q65 0 95 42q29 42 31 135q-52 122 -52 285q0 255 127 408q127 152 336 152q90 0 180 -24q90 -23 181 -71v-272h-96q-19 140 -82 204q-64 64 -182 64q-134 0 -202 -115q-69 -116 -69 -346q0 -159 33 -264zM828 164q60 -92 185 -94q240 -2 240 107q0 125 -196 123 q-162 -2 -229 -136z" />
<glyph unicode="&#x2a9;" horiz-adv-x="1647" d="M665 0v106h149v850h-423v-850h212v-106h-536v106h158v850h-158v107h158v133q0 178 83.5 269t244.5 91q60 0 120 -12t120 -37v-202h-87q-1 75 -38.5 114t-108.5 39q-93 0 -130.5 -56.5t-37.5 -201.5v-137h589v-189q46 108 119.5 163t170.5 55q156 0 233 -101 q75 -99 75 -315v-780q0 -164 -88 -257.5t-242 -93.5q-64 0 -123 16.5t-115 49.5v219h85q7 -96 45 -141t112 -45q82 0 121 62q38 60 38 190v722q0 195 -43 267.5t-152 72.5q-115 0 -175.5 -93.5t-60.5 -272.5v-486h144v-106h-459z" />
<glyph unicode="&#x2aa;" horiz-adv-x="1191" d="M378 780q0 146 96.5 229t266.5 83q75 0 159 -22t173 -64v-232h-96q-3 103 -64.5 161t-166.5 58q-104 0 -157.5 -41t-53.5 -123q0 -67 40 -107q41 -42 162 -83l131 -45q136 -46 196 -118q60 -70 60 -181q0 -151 -104 -237.5t-286 -86.5q-93 0 -181 22q-13 3 -27 7h-473 v106h159v1344h-159v106h325v-776zM378 780v-473h94q3 -119 66.5 -178t187.5 -59q112 0 170.5 46.5t58.5 135.5q0 70 -43 113t-180 92l-120 45q-123 44 -178.5 110t-55.5 168z" />
<glyph unicode="&#x2ab;" horiz-adv-x="1245" d="M378 1063h783v-86l-599 -871h520v193h96v-299h-643h-187h-295v106h159v1344h-159v106h325v-493zM378 772v-643l570 827h-475v-184h-95z" />
<glyph unicode="&#x2ac;" horiz-adv-x="1101" d="M594 565l151 -465l134 405h-85v60h214v-60h-66l-176 -535h-86l-145 445l-147 -445h-82l-176 535h-66v60h268v-60h-96l133 -405l153 465h72zM594 1280l151 -465l134 405h-85v60h214v-60h-66l-176 -535h-86l-145 445l-147 -445h-82l-176 535h-66v60h268v-60h-96l133 -405 l153 465h72z" />
<glyph unicode="&#x2ad;" horiz-adv-x="816" d="M723 565v-349h-96v289h-468l-1 -290h-94v350h659zM723 1280v-349h-96v289h-468l-1 -290h-94v350h659z" />
<glyph unicode="&#x2ae;" horiz-adv-x="1439" d="M1214 1063v-1380h158v-106l-480 -1v107h156l2 506q-46 -108 -119 -163t-171 -55q-158 0 -232.5 101t-74.5 315v676h1v142q0 131 -38 191q-39 61 -121 61q-74 0 -111 -45q-39 -45 -45 -141h-86v219q56 33 114 50q60 16 125 16q154 0 241 -94q88 -93 88 -257v-232h-2v-528 q0 -195 43 -267q43 -71 152 -71q116 0 176 93t60 271v486h-144v106h308z" />
<glyph unicode="&#x2af;" horiz-adv-x="1413" d="M454 1063v142q0 131 -38 191q-39 61 -121 61q-74 0 -111 -45q-39 -45 -45 -141h-86v219q56 33 114 50q60 16 125 16q154 0 241 -94q88 -93 88 -257v-232h-2v-528q0 -195 43 -267q43 -71 152 -71q116 0 176 93t60 271v486h-144v106h308v-935h1v-232q0 -130 38 -190 q39 -62 121 -62q74 0 113 45q38 45 44 141h85v-219q-55 -33 -115 -49q-58 -17 -123 -17q-154 0 -242 93q-88 94 -88 258v104v128h2v61q-46 -108 -119 -163t-171 -55q-158 0 -232.5 101t-74.5 315v676h1z" />
<glyph unicode="&#x2b0;" horiz-adv-x="797" d="M47 668v59h93v753h-99v59h201v-382q29 61 74 92q46 31 106 31q98 0 144 -57q47 -57 47 -176v-320h91v-59h-284v59h89v287q0 109 -26 149q-27 40 -94 40q-72 0 -109 -52q-38 -52 -38 -151v-273h89v-59h-284z" />
<glyph unicode="&#x2b1;" horiz-adv-x="792" d="M238 1156q28 61 72 92q46 31 107 31q98 0 144 -57q47 -57 47 -176v-320h90v-59h-283v59h89v287q0 109 -26 149q-27 40 -95 40q-72 0 -109 -52t-37 -151v-273h89v-59h-285v59h93v486v130q0 92 54 144q55 52 150 52q41 0 77 -9q37 -9 71 -28v-122h-53q-4 54 -27 79 q-24 25 -70 25q-51 0 -75 -35q-23 -31 -23 -106v-186z" />
</font>
</defs>
</svg>
