<?xml version="1.0" standalone="no"?>
<!DOCTYPE svg PUBLIC "-//W3C//DTD SVG 1.1//EN" "http://www.w3.org/Graphics/SVG/1.1/DTD/svg11.dtd" >
<svg xmlns="http://www.w3.org/2000/svg">
<metadata></metadata>
<defs>
<font id="walkway_oblique_semiboldRg" horiz-adv-x="525" >
<font-face units-per-em="1000" ascent="800" descent="-200" />
<missing-glyph horiz-adv-x="354" />
<glyph horiz-adv-x="1000" />
<glyph horiz-adv-x="1000" />
<glyph unicode="&#xd;" horiz-adv-x="354" />
<glyph unicode=" "  horiz-adv-x="354" />
<glyph unicode="&#x09;" horiz-adv-x="354" />
<glyph unicode="&#xa0;" horiz-adv-x="354" />
<glyph unicode="!" horiz-adv-x="194" d="M116 169l108 509h36l-108 -509h-36zM97 0q-18 0 -14 18l13 64q4 17 22 17t14 -17l-13 -64q-4 -18 -22 -18z" />
<glyph unicode="&#x22;" horiz-adv-x="292" d="M319 547q-18 0 -14 17l19 91q4 17 22 17t14 -17l-19 -91q-4 -17 -22 -17zM203 547q-17 0 -13 17l19 91q4 17 21 17q19 0 15 -17l-19 -91q-4 -17 -23 -17z" />
<glyph unicode="#" horiz-adv-x="531" d="M531 359h-90l-41 -89h89l-14 -33h-89l-35 -76h-36l35 76h-105l-35 -76h-36l35 76h-89l14 33h89l42 89h-91l16 33h89l35 76h36l-35 -76h105l34 76h36l-34 -76h89zM301 359l-42 -89h105l41 89h-104z" />
<glyph unicode="$" horiz-adv-x="642" d="M406 -10l-13 -60h-36l12 55q-22 -2 -43 -2q-37 0 -68 5l-12 -58h-36l13 62q-155 37 -155 168q1 26 7 56l4 17h36l-3 -13q-6 -28 -6 -52q0 -111 125 -141l69 324q-143 35 -143 130q0 16 4 35q30 141 210 173l14 64h36l-12 -59q23 1 50 1q33 0 60 -3l13 61h36l-14 -66 q140 -31 140 -156q0 -24 -5 -53h-36q3 21 3 39q0 109 -109 136l-65 -304q78 -21 108 -41q52 -34 52 -96q0 -20 -5 -44q-16 -73 -87 -123q-62 -42 -144 -55zM512 659q-27 3 -60 3q-27 0 -51 -3l-60 -281l107 -21zM364 654q-144 -30 -167 -138q-3 -14 -3 -26q0 -72 113 -103z M594 251q-26 35 -119 62l-62 -289q68 11 118 46q57 40 70 101q12 55 -7 80zM440 321l-106 22l-69 -322q31 -5 69 -5q21 0 42 3z" />
<glyph unicode="%" horiz-adv-x="750" d="M162 0h-43l631 678h42zM556 -19q-111 0 -111 110q0 30 8 67q38 181 180 181q111 0 111 -112q0 -30 -8 -69q-38 -177 -180 -177zM254 301q-111 0 -110 110q0 29 7 66q39 180 180 180q112 0 112 -112q0 -30 -9 -68q-37 -176 -180 -176zM625 306q-104 0 -135 -148 q-7 -32 -7 -57q-1 -87 81 -87q104 0 135 144q7 34 7 60q0 88 -81 88zM323 624q-103 0 -135 -147q-7 -33 -7 -58q0 -86 81 -86q105 0 135 144q8 33 8 59q0 88 -82 88z" />
<glyph unicode="&#x26;" horiz-adv-x="603" d="M490 -19l30 141q-6 -7 -10 -14q-110 -124 -246 -124q-75 0 -129 31q-67 37 -67 106q0 95 106 174q50 38 160 89q-92 50 -92 130q0 17 3 34q14 62 70 98q52 32 118 32q57 0 93 -22q45 -27 45 -79q0 -15 -4 -31q-20 -93 -228 -194q-109 -53 -146 -81q-88 -67 -88 -143 q0 -54 55 -85q46 -26 105 -26q134 0 221 115q50 66 66 140h36l-62 -291h-36zM428 645q-51 0 -91 -24q-46 -27 -56 -74q-3 -14 -3 -27q0 -74 94 -119q162 81 162 167q0 39 -35 60q-29 17 -71 17z" />
<glyph unicode="'" horiz-adv-x="175" d="M203 547q-17 0 -13 17l19 91q4 17 21 17q19 0 15 -17l-19 -91q-4 -17 -23 -17z" />
<glyph unicode="(" horiz-adv-x="233" d="M154 -168q-51 121 -51 264q0 88 21 187q54 255 222 451h39q-171 -196 -225 -451q-21 -98 -21 -187q0 -143 54 -264h-39z" />
<glyph unicode=")" horiz-adv-x="233" d="M2 -168h-39q176 197 230 451q20 94 20 180q0 147 -58 271h39q56 -119 56 -263q0 -90 -21 -188q-54 -257 -227 -451z" />
<glyph unicode="*" horiz-adv-x="340" d="M200 620h1l66 -35l15 70q4 17 22 17t14 -17l-15 -71l81 36q4 2 9 2q10 0 14 -7q5 -16 -13 -24l-77 -33l63 -35q9 -5 7 -15q-3 -16 -21 -16q-5 0 -11 2l-63 36l-15 -70q-4 -17 -22 -17t-14 17l15 70l-80 -36q-6 -2 -11 -2q-18 0 -15 16q2 10 14 15l79 35l-64 34 q-16 8 -3 23q6 7 15 7q4 0 9 -2z" />
<glyph unicode="+" horiz-adv-x="560" d="M348 235l-36 -168h-36l36 168h-191l7 33h191l35 165h36l-35 -165h192l-7 -33h-192z" />
<glyph unicode="," horiz-adv-x="262" d="M111 -78q-6 -13 -19 -13q-19 0 -16 15q0 2 2 7l74 143q8 16 23 12q17 -4 9 -21z" />
<glyph unicode="-" horiz-adv-x="350" d="M98 254l4 20h272l-4 -20h-272z" />
<glyph unicode="." horiz-adv-x="209" d="M105 -2q-18 0 -15 16l12 55q3 16 21 16t15 -16l-12 -55q-3 -16 -21 -16z" />
<glyph unicode="/" horiz-adv-x="350" d="M28 0h-38l489 694h38z" />
<glyph unicode="0" horiz-adv-x="584" d="M290 -12q-93 0 -149 49t-56 140q0 31 8 68l36 168q24 116 107 187t200 71q93 0 147 -47q56 -50 56 -140q0 -33 -8 -71l-36 -168q-25 -116 -106 -186.5t-199 -70.5zM595 413q7 32 7 60q0 78 -47 121.5t-127 43.5q-101 0 -171.5 -62t-91.5 -163l-36 -168q-7 -32 -7 -61 q0 -77 47.5 -120t126.5 -43q101 0 173 63q69 61 90 161z" />
<glyph unicode="1" horiz-adv-x="413" d="M282 0l126 595l-168 -117h-56l239 168h32l-137 -646h-36z" />
<glyph unicode="2" horiz-adv-x="584" d="M50 0q41 182 266 301q39 20 157 82q101 52 113 113q4 15 4 28q0 55 -53 81q-40 19 -101 19q-204 0 -247 -200h-36q50 233 284 233q76 0 125 -24q63 -33 63 -102q0 -18 -4 -38q-18 -83 -198 -173q-85 -42 -137 -71q-64 -42 -114 -96q-61 -65 -75 -120h457l-7 -33h-497z " />
<glyph unicode="3" horiz-adv-x="584" d="M295 -11q-95 0 -153 35q-70 43 -70 131q0 26 7 56l3 17h36l-6 -31q-4 -20 -4 -39q0 -70 62 -107q51 -29 128 -29q88 0 156 36q81 42 98 121q4 21 4 39q0 112 -174 112h-53l7 34h54q187 0 215 132q3 13 3 25q0 57 -60 83q-45 20 -109 20q-216 0 -256 -188h-36 q47 221 296 221q79 0 132 -24q70 -32 70 -102q0 -17 -4 -35q-24 -117 -153 -148q105 -27 104 -124q0 -21 -5 -45q-20 -94 -110 -146q-78 -44 -182 -44z" />
<glyph unicode="4" horiz-adv-x="584" d="M474 220l-47 -220h-36l47 220h-370l306 427h38l-283 -394h316l84 394l35 -1l-83 -393h129l-7 -33h-129z" />
<glyph unicode="5" horiz-adv-x="584" d="M286 -11q-216 0 -216 162q0 30 8 66h36q-6 -29 -6 -54q0 -141 186 -141q97 0 165 49q73 52 93 144q5 25 5 46q0 75 -59 114q-51 34 -130 34q-128 0 -210 -96h-38l85 333h444l-7 -33h-408l-63 -248q84 78 208 78q91 0 149 -41q66 -46 66 -133q0 -25 -6 -53 q-23 -108 -108 -169q-81 -58 -194 -58z" />
<glyph unicode="6" horiz-adv-x="584" d="M588 436q5 25 5 48q0 69 -50 106q-45 33 -117 33q-89 0 -153 -46q-68 -49 -86 -134l-25 -119q79 87 216 87q84 0 137 -36q60 -42 60 -122q0 -24 -6 -51q-21 -98 -102 -155q-76 -53 -179 -53q-83 0 -136 37q-60 42 -60 120q0 24 6 51l2 10q2 7 3 8l48 226q21 98 103 154 q76 53 180 53q84 0 136 -38q59 -43 59 -123q0 -26 -6 -56h-35zM371 381q-90 0 -153 -45q-67 -48 -85 -134q-5 -24 -5 -45q0 -67 51 -103q45 -31 116 -31q89 0 153 46q68 48 86 133q5 23 5 44q0 68 -52 104q-45 31 -116 31z" />
<glyph unicode="7" horiz-adv-x="584" d="M217 0h-38l436 613h-426l7 33h480z" />
<glyph unicode="8" horiz-adv-x="601" d="M299 -11q-94 0 -152 29q-78 38 -78 121q0 22 5 46q30 138 190 171q-94 29 -94 103q0 14 4 29q19 90 99 133q67 36 168 36q81 0 132 -25q68 -33 68 -106q0 -18 -4 -38q-21 -96 -148 -132q122 -28 122 -129q0 -21 -5 -44q-22 -102 -115 -152q-78 -42 -192 -42zM434 624 q-195 0 -224 -137q-3 -10 -3 -19q0 -53 65 -79q48 -20 108 -20q72 0 133 27q75 33 88 93q4 17 4 32q0 103 -171 103zM373 336q-231 0 -263 -152q-4 -19 -4 -36q0 -70 69 -102q51 -24 131 -24q97 0 164 34q82 42 100 128q4 19 4 35q0 117 -201 117z" />
<glyph unicode="9" horiz-adv-x="584" d="M622 436l-52 -245q-21 -97 -104 -154q-77 -52 -180 -52q-84 0 -136 37q-59 42 -59 121q0 27 7 57h35q-6 -27 -6 -50q0 -68 50 -104q44 -32 116 -32q87 0 154 48t85 131l30 139q-80 -87 -217 -87q-83 0 -135 37q-60 42 -60 120q0 24 5 51q21 99 101 155q76 54 180 54 q82 0 135 -38q61 -43 61 -121q0 -24 -6 -50l-2 -10q-2 -5 -2 -7zM429 633q-90 0 -154 -46q-67 -49 -85 -134q-5 -24 -5 -45q0 -67 52 -102q45 -31 115 -31q89 0 155 46.5t84 131.5q5 23 5 44q0 69 -51 104q-45 32 -116 32z" />
<glyph unicode=":" horiz-adv-x="244" d="M201 366q-18 0 -14 18l13 63q4 18 22 18q17 0 13 -18l-12 -63q-4 -18 -22 -18zM123 -2q-18 0 -15 18l14 63q4 18 22 18q16 0 13 -18l-13 -63q-3 -18 -21 -18z" />
<glyph unicode=";" horiz-adv-x="251" d="M221 366q-18 0 -14 18l13 63q4 18 22 18t14 -18l-13 -63q-4 -18 -22 -18zM106 -77q-7 -14 -20 -14q-19 0 -16 16q1 3 3 7l75 151q8 17 23 13q17 -5 9 -22z" />
<glyph unicode="&#x3c;" horiz-adv-x="535" d="M89 225l6 31l483 179l-7 -35l-433 -160l365 -160l-7 -35z" />
<glyph unicode="=" horiz-adv-x="630" d="M103 282l7 31h545l-7 -31h-545zM78 167l7 31h545l-7 -31h-545z" />
<glyph unicode="&#x3e;" horiz-adv-x="535" d="M51 45l7 35l432 160l-364 160l7 35l407 -179l-6 -31z" />
<glyph unicode="?" d="M453 363q-82 -57 -109 -93q-18 -23 -27 -70l-7 -31h-37l5 25q21 99 139 181q69 49 96 77q45 48 45 108q0 54 -52 81q-41 20 -102 20q-180 0 -235 -173l-29 19q32 91 103.5 139t169.5 48q71 0 121 -28q61 -35 61 -100q0 -105 -142 -203zM254 0q-17 0 -13 18l13 64 q4 17 21 17q19 0 15 -17l-13 -64q-4 -18 -23 -18z" />
<glyph unicode="@" horiz-adv-x="840" d="M768 217q-27 -28 -66 -50q-45 -26 -78 -26q-31 0 -31 28q0 6 1.5 13t14.5 46q-90 -100 -215 -101q-99 -1 -134 68q-14 29 -14 66q0 21 5 45q24 113 102 183q82 75 194 76q129 2 146 -96l33 96h34l-131 -380q0 -8 10 -8q23 0 60 24q30 21 50 44q92 107 92 211 q0 100 -83 157q-72 50 -177 50q-151 0 -267 -88q-120 -90 -151 -235q-8 -38 -8 -73q0 -95 62 -160q81 -86 226 -86q90 0 182 40q96 42 150 108h41q-59 -80 -165.5 -130t-208.5 -50q-163 0 -254 95q-72 74 -72 181q0 38 9 80q34 156 167 255q129 95 292 95q119 0 201 -56 q94 -64 94 -177q0 -30 -7 -63q-21 -97 -104 -182zM535 534q-93 -1 -164 -68q-67 -63 -87 -157q-5 -23 -5 -43q0 -111 123 -110q82 1 154 58q67 54 96 134q15 41 15 79q0 109 -132 107z" />
<glyph unicode="A" horiz-adv-x="636" d="M603 0l-51 218h-372l-145 -218h-42l456 678h37l156 -678h-39zM457 628l-254 -377h342z" />
<glyph unicode="B" horiz-adv-x="642" d="M359 0h-317l144 678h330q77 0 126 -28q61 -34 61 -105q0 -20 -5 -42q-23 -106 -159 -148q118 -27 118 -126q0 -20 -5 -44q-20 -96 -110 -144q-76 -41 -183 -41zM507 645h-292l-58 -275h291q77 0 134 32q66 36 81 106q3 16 3 30q0 57 -54 85q-42 22 -105 22zM439 337h-289 l-65 -304h293q86 0 149 34q74 40 90 117q4 18 4 34q0 65 -62 96q-48 23 -120 23z" />
<glyph unicode="C" horiz-adv-x="719" d="M763 542q-50 110 -222 110q-148 0 -253 -85t-136 -229q-10 -44 -10 -82q0 -112 72 -173q67 -57 183 -57q165 0 271 112l27 -20q-120 -125 -304 -125q-161 0 -235 92q-52 64 -51 160q0 41 10 89q34 162 150.5 256.5t282.5 94.5q191 0 249 -123z" />
<glyph unicode="D" horiz-adv-x="680" d="M277 0h-227l144 678h265q270 0 270 -236q0 -47 -12 -104q-35 -164 -155 -253q-115 -85 -285 -85zM451 645h-228l-130 -612h194q155 0 257 76q105 80 137 229q11 53 11 97q0 210 -241 210z" />
<glyph unicode="E" horiz-adv-x="564" d="M50 0l144 678h501l-7 -33h-466l-58 -275h413l-7 -32h-413l-65 -305h471l-7 -33h-506z" />
<glyph unicode="F" horiz-adv-x="505" d="M222 645l-58 -275h368l-7 -32h-368l-72 -338h-35l144 678h465l-7 -33h-430z" />
<glyph unicode="G" horiz-adv-x="758" d="M619 56q-103 -63 -229 -63q-134 0 -213 58q-89 65 -89 193q0 43 11 93q34 162 149.5 255t281.5 93q274 0 272 -229h-37q-2 196 -241 196q-150 0 -254 -84t-135 -230q-10 -46 -10 -86q0 -115 80 -174q71 -52 192 -52q118 0 213 61q103 67 126 178l6 26h-291l7 33h325 q-3 -28 -7 -48q-31 -143 -157 -220z" />
<glyph unicode="H" horiz-adv-x="680" d="M595 0l72 338h-509l-72 -338h-36l144 678h36l-65 -308h509l65 308h36l-144 -678h-36z" />
<glyph unicode="I" horiz-adv-x="134" d="M50 0l144 678h36l-144 -678h-36z" />
<glyph unicode="J" horiz-adv-x="486" d="M222 -7q-179 0 -178 136q0 13 1 27h36q-1 -11 -1 -21q-2 -109 145 -109q96 0 144.5 39.5t68.5 133.5l102 479h36l-103 -485q-42 -200 -251 -200z" />
<glyph unicode="K" horiz-adv-x="670" d="M619 0l-303 367l-177 -119l-53 -248h-36l144 678h36l-82 -387l590 387h57l-446 -291l319 -387h-49z" />
<glyph unicode="L" horiz-adv-x="505" d="M50 0l144 678h36l-137 -645h428l-7 -33h-464z" />
<glyph unicode="M" horiz-adv-x="819" d="M733 0l132 619l-439 -619h-33l-175 619l-132 -619h-36l144 678h46l179 -631l448 631h46l-144 -678h-36z" />
<glyph unicode="N" horiz-adv-x="680" d="M588 0l-368 629l-134 -629h-36l144 678h42q58 -105 184 -314q124 -204 186 -313l133 627h36l-144 -678h-43z" />
<glyph unicode="O" horiz-adv-x="757" d="M378 -7q-131 0 -206 59q-83 65 -83 190q0 45 11 97q34 160 146 248t276 88q130 0 207 -57q86 -63 86 -187q0 -42 -11 -92q-34 -162 -147.5 -254t-278.5 -92zM515 642q-148 0 -248 -79.5t-131 -223.5q-10 -46 -10 -85q0 -113 74 -173q68 -55 185 -55q149 0 250.5 83.5 t132.5 229.5q10 45 10 84q0 112 -77 169q-68 50 -186 50z" />
<glyph unicode="P" horiz-adv-x="621" d="M410 302h-260l-64 -302h-36l144 678h307q204 0 206 -137q0 -24 -6 -53q-20 -94 -110 -144q-77 -42 -181 -42zM500 645h-277l-66 -309h278q82 0 143 36q70 41 86 115q4 23 4 43q0 115 -168 115z" />
<glyph unicode="Q" horiz-adv-x="757" d="M486 5q27 -38 86 -38h100l-7 -33h-100q-83 0 -118 63q-34 -5 -70 -5q-130 0 -205 59q-83 65 -83 190q0 45 11 97q34 161 145.5 249t276.5 88q131 0 207 -57q85 -63 85 -188q0 -42 -10 -92q-27 -128 -110 -216t-208 -117zM515 642q-148 0 -248 -79.5t-131 -224.5 q-10 -45 -10 -84q0 -85 45 -142q24 47 71.5 75.5t101.5 28.5q53 0 90 -29q41 -31 41 -83q0 -9 -3 -26t-3 -25q0 -10 2 -19q116 24 194 105t103 199q10 48 10 88q-1 110 -78 166q-68 50 -185 50zM441 99q0 40 -33 64q-29 21 -71 21q-47 0 -88 -26t-54 -70q68 -63 189 -63 q27 0 53 4q-2 10 -2 21q0 8 3 24t3 25z" />
<glyph unicode="R" horiz-adv-x="642" d="M540 330q91 -29 91 -117q0 -20 -5 -44l-36 -169h-36l35 166q4 20 4 37q0 107 -167 107h-274l-66 -310h-36l144 678h319q199 0 199 -130q0 -21 -5 -45q-28 -132 -167 -173zM508 645h-285l-64 -301h269q89 0 152 35q73 41 90 121q5 20 5 37q0 108 -167 108z" />
<glyph unicode="S" horiz-adv-x="642" d="M329 -7q-260 0 -260 170q0 25 6 54l4 17h36l-3 -13q-6 -26 -6 -49q0 -146 231 -146q93 0 161 29q87 38 104 117q3 18 3 33q0 65 -90 93q-29 9 -136 33q-123 27 -161 50q-61 36 -61 101q0 16 3 33q37 170 297 170q237 0 237 -158q0 -23 -6 -50h-36q4 21 4 40q0 81 -67 113 q-47 22 -139 22q-224 0 -254 -137q-3 -14 -3 -27q0 -56 64 -85q32 -15 112 -30q131 -25 171 -41q102 -41 102 -122q0 -19 -5 -41q-20 -93 -125 -140q-80 -36 -183 -36z" />
<glyph unicode="T" horiz-adv-x="545" d="M428 645l-137 -645h-36l137 645h-260l7 33h555l-7 -33h-259z" />
<glyph unicode="U" horiz-adv-x="664" d="M331 -7q-237 0 -237 177q0 38 10 84l90 424h36l-90 -423q-7 -35 -8 -65q-2 -164 206 -164q246 0 293 225l91 427h36l-90 -426q-55 -259 -337 -259z" />
<glyph unicode="V" horiz-adv-x="628" d="M335 0h-33l-156 678h37l146 -630l405 630h37z" />
<glyph unicode="W" horiz-adv-x="970" d="M684 0h-33l-82 384l-242 -384h-33l-145 678h37l135 -630l237 381l-52 249h37l135 -630l394 630h37z" />
<glyph unicode="X" horiz-adv-x="604" d="M573 0l-201 322l-340 -322h-46l368 349l-209 329h48l191 -303l321 303h47l-349 -329l216 -349h-46z" />
<glyph unicode="Y" horiz-adv-x="626" d="M402 330l-70 -330h-36l70 330l-239 348h46l217 -314l352 314h45z" />
<glyph unicode="Z" horiz-adv-x="626" d="M30 0l7 35l645 610h-486l7 33h531l-7 -34l-646 -611h524l-7 -33h-568z" />
<glyph unicode="[" horiz-adv-x="233" d="M58 -168l192 902h133l-7 -33h-97l-178 -836h97l-7 -33h-133z" />
<glyph unicode="\" horiz-adv-x="350" d="M324 0l-196 694h38l196 -694h-38z" />
<glyph unicode="]" horiz-adv-x="233" d="M102 -168h-131l7 33h96l10 40l168 796h-96l7 33h133z" />
<glyph unicode="^" horiz-adv-x="298" d="M317 511l-41 97l-81 -97h-38l112 135h29l60 -135h-41z" />
<glyph unicode="_" d="M-33 -119l10 48h541l-10 -48h-541z" />
<glyph unicode="`" horiz-adv-x="193" d="M278 532q-12 -7 -24 3l-91 110q-11 14 7 24q16 10 27 -3l89 -111q10 -13 -8 -23z" />
<glyph unicode="a" horiz-adv-x="564" d="M471 0l23 110q-89 -121 -236 -121q-113 0 -162 74q-30 46 -30 110q0 33 8 70q24 115 101 184q80 73 195 73q147 0 182 -118l25 116h36l-106 -498h-36zM358 467q-95 0 -164 -66q-65 -62 -85 -158q-8 -34 -8 -64q0 -74 43 -115.5t120 -41.5q95 0 168 64q70 62 91 157 q7 35 7 65q0 79 -45.5 119t-126.5 40z" />
<glyph unicode="b" horiz-adv-x="564" d="M290 -10q-64 0 -111 29q-51 32 -69 90l-23 -109h-36l144 678h36l-62 -292q83 118 231 118q91 0 143 -48t52 -136q0 -35 -9 -76q-25 -116 -101 -183q-79 -71 -195 -71zM397 471q-105 0 -173 -64q-63 -59 -86 -165q-6 -30 -6 -57q0 -75 47 -118.5t124 -43.5q97 0 164 64 q63 60 84 158q8 36 8 67q0 75 -42.5 117t-119.5 42z" />
<glyph unicode="c" d="M272 -11q-92 0 -146 44q-57 48 -57 137q0 30 7 65q26 121 109.5 193t205.5 72q75 0 122 -34q51 -38 54 -111l-36 -17q-6 129 -149 129q-105 0 -176.5 -63.5t-93.5 -168.5q-6 -30 -7 -57q0 -76 48 -117q45 -39 125 -39q75 0 133.5 36.5t86.5 104.5l31 -15 q-34 -77 -102.5 -118t-154.5 -41z" />
<glyph unicode="d" horiz-adv-x="564" d="M471 0l23 110q-89 -121 -236 -121q-113 0 -162 74q-30 46 -30 111q0 33 8 71q25 115 101 185q81 74 196 74q147 0 182 -119l62 293h36l-144 -678h-36zM359 471q-95 0 -165 -67q-64 -62 -85 -159q-7 -34 -7 -63q-1 -75 42 -117.5t120 -42.5q95 0 167 64t92 159q7 34 8 64 q0 79 -45 120.5t-127 41.5z" />
<glyph unicode="e" d="M104 233q-7 -34 -7 -63q0 -148 170 -148q149 0 222 122h37q-82 -155 -268 -155q-197 0 -197 175q0 36 10 79q24 114 105 185.5t195 71.5q90 0 144 -43q59 -46 59 -132q0 -30 -7 -63l-6 -28zM364 467q-93 0 -160 -55t-93 -146h415q5 26 5 50q0 73 -45.5 112t-121.5 39z " />
<glyph unicode="f" horiz-adv-x="267" d="M233 481l-8 -41h111l-8 -34h-111l-86 -407h-36l86 407h-72l8 34h72l8 41q40 185 279 185l-7 -32q-203 0 -236 -153z" />
<glyph unicode="g" horiz-adv-x="545" d="M228 -179q-182 0 -182 131q0 16 3 34h36q-2 -12 -2 -23q0 -109 153 -109q194 0 229 167l20 90q-40 -50 -101 -78.5t-126 -28.5q-88 0 -138.5 47t-50.5 132q0 31 7 67q24 113 102.5 181.5t191.5 68.5q61 0 107 -27q50 -30 66 -85l22 100h36l-100 -468q-42 -199 -273 -199z M361 467q-94 0 -161.5 -61t-87.5 -155q-7 -33 -7 -61q0 -72 42 -112.5t116 -40.5q94 0 162.5 59t88.5 152q6 30 6 57q0 56 -27 99q-41 63 -132 63z" />
<glyph unicode="h" d="M437 0l69 323q4 22 4 40q0 55 -41 84q-35 24 -94 24q-87 0 -149 -54t-80 -141l-59 -276h-36l144 678h36l-58 -274q71 100 208 100q71 0 115 -29q52 -35 52 -101q0 -19 -4 -41l-71 -333h-36z" />
<glyph unicode="i" horiz-adv-x="136" d="M192 590q-11 0 -13 14l15 68q9 15 19 15q9 0 17 -14l-15 -70q-13 -13 -23 -13zM51 0l105 492h36l-105 -492h-36z" />
<glyph unicode="j" horiz-adv-x="136" d="M192 590q-11 0 -13 14l15 68q9 15 19 15q9 0 17 -14l-15 -71q-13 -12 -23 -12zM-194 -179l7 32q204 0 240 169l99 469h36l-100 -470q-42 -200 -282 -200z" />
<glyph unicode="k" horiz-adv-x="532" d="M468 0l-201 280l-139 -87l-41 -193h-36l144 678h36l-94 -443l408 258l64 -1l-310 -190l217 -302h-48z" />
<glyph unicode="l" horiz-adv-x="136" d="M51 0l144 678h36l-144 -678h-36z" />
<glyph unicode="m" horiz-adv-x="817" d="M730 0l68 321q6 26 6 47q1 99 -113 99q-75 0 -129 -43.5t-70 -116.5l-65 -307h-36l68 321q6 26 6 47q0 99 -116 99q-79 0 -135 -59q-51 -52 -69 -134l-58 -274h-36l104 488h36l-18 -85q68 97 193 97q120 0 136 -99q65 99 194 99q146 0 146 -116q0 -24 -6 -53l-70 -331 h-36z" />
<glyph unicode="n" d="M437 0l68 321q5 21 5 39q0 55 -42 83q-35 24 -94 24q-87 0 -148.5 -53.5t-80.5 -139.5l-58 -274h-36l104 488h36l-19 -88q71 100 208 100q70 0 115 -29q53 -34 53 -100q0 -19 -5 -40l-70 -331h-36z" />
<glyph unicode="o" horiz-adv-x="545" d="M270 -11q-92 0 -148 48.5t-56 138.5q0 32 8 68q24 115 107 185.5t199 70.5q93 0 147 -47q58 -50 58 -140q0 -32 -8 -69q-25 -115 -108 -185t-199 -70zM372 467q-101 0 -171 -61t-91 -162q-7 -31 -7 -59q0 -78 47 -120.5t128 -42.5q100 0 171 61.5t92 160.5q7 33 7 62 q0 79 -47.5 120t-128.5 41z" />
<glyph unicode="p" horiz-adv-x="564" d="M290 -14q-148 0 -181 117l-58 -271h-36l140 656h36l-23 -106q83 118 230 118q92 0 144 -47t52 -136q0 -34 -8 -73q-25 -117 -100 -186q-79 -72 -196 -72zM397 467q-98 0 -167.5 -61.5t-90.5 -159.5q-8 -40 -8 -73q0 -154 170 -154q97 0 165 65q64 61 85 159q7 35 7 65 q0 74 -42.5 116.5t-118.5 42.5z" />
<glyph unicode="q" horiz-adv-x="564" d="M434 -168l57 269q-80 -115 -236 -115q-110 0 -159 76q-30 47 -30 111q0 33 8 71q24 112 101 182q82 74 193 74q149 0 183 -118l23 106h36l-140 -656h-36zM436 459q-22 8 -80 8q-95 0 -163 -66q-63 -61 -83 -158q-8 -34 -8 -63q0 -54 24 -94q41 -67 136 -67q104 0 173 61 q66 59 88 163q6 31 6 58q1 60 -29.5 103t-63.5 55z" />
<glyph unicode="r" horiz-adv-x="318" d="M168 382q24 37 64 65q75 53 174 53l-7 -33q-112 0 -184 -83q-61 -70 -87 -189l-41 -195h-36l104 488h36z" />
<glyph unicode="s" horiz-adv-x="486" d="M246 -13q-181 0 -181 135q0 25 7 55h38q-6 -25 -6 -45q1 -110 151 -110q62 0 108 22q57 27 69 81q1 9 1 17q0 55 -88 76q-16 4 -97 17q-119 19 -119 99q0 13 3 28q14 66 78 105q56 34 128 34q178 0 178 -123q0 -21 -5 -45h-39q4 20 4 37q0 96 -140 96q-58 0 -103 -24 q-52 -28 -63 -80q-2 -9 -2 -17q0 -54 86 -71q14 -3 102 -19q117 -21 117 -102q0 -13 -3 -28q-16 -73 -85 -109q-57 -29 -139 -29z" />
<glyph unicode="t" horiz-adv-x="263" d="M240 430l-91 -430h-34l89 430h-99l8 34h99l32 150h36l-32 -150h101l-8 -34h-101z" />
<glyph unicode="u" d="M437 0l19 88q-73 -99 -208 -99q-73 0 -116 29q-51 35 -51 102q0 23 6 49l68 319h36l-68 -318q-5 -22 -5 -41q0 -107 137 -107q92 0 153 56q57 52 76 145l57 265h36l-104 -488h-36z" />
<glyph unicode="v" horiz-adv-x="471" d="M263 0h-36l-126 488h43l110 -447l285 447h39z" />
<glyph unicode="w" horiz-adv-x="771" d="M555 0h-37l-67 287l-180 -287h-36l-114 488h41l100 -446l179 291l-38 155h43l99 -446l275 446h39z" />
<glyph unicode="x" horiz-adv-x="467" d="M434 0l-153 227l-248 -227h-45l277 253l-153 235h47l133 -210l228 210h44l-253 -235l168 -253h-45z" />
<glyph unicode="y" d="M203 -179q-181 0 -181 132q0 15 3 33h36q-2 -12 -2 -23q0 -109 153 -109q194 0 229 167l14 64q-73 -100 -208 -100q-73 0 -116 30q-50 34 -50 102q0 23 5 50l69 321h36l-68 -320q-5 -23 -5 -42q0 -107 136 -107q93 0 153 56q57 53 77 146l57 267h36l-100 -468 q-42 -199 -274 -199z" />
<glyph unicode="z" horiz-adv-x="473" d="M21 0l7 33l459 422h-340l7 33h386l-7 -32l-460 -423h387l-7 -33h-432z" />
<glyph unicode="{" horiz-adv-x="350" d="M207 -168q-68 0 -68 64q0 17 5 37l48 225q12 58 -2 79q-8 12 -51 33l6 27q52 20 65 32q22 21 35 79l48 225q21 101 106 101h19l-7 -33h-18q-35 0 -52 -31q-8 -16 -18 -61l-43 -203q-14 -65 -40 -92q-13 -13 -51 -31q30 -16 38 -30q15 -28 1 -93l-43 -202q-10 -46 -8 -62 q3 -31 38 -31h18l-7 -33h-19z" />
<glyph unicode="|" horiz-adv-x="233" d="M92 -32l157 738h36l-157 -738h-36z" />
<glyph unicode="}" horiz-adv-x="350" d="M253 237q-21 -20 -33 -79l-48 -225q-22 -101 -108 -101h-18l7 33h17q35 0 52 31q10 18 19 62l43 202q14 66 40 93q13 14 50 30q-30 17 -37 31q-15 26 -1 92l43 203q10 43 7 61q-4 31 -38 31h-17l7 33h18q69 0 69 -65q0 -16 -4 -36l-48 -225q-13 -59 0 -79q8 -12 52 -32 l-6 -27q-53 -21 -66 -33z" />
<glyph unicode="~" horiz-adv-x="548" d="M455 351q-31 0 -104 33t-94 33q-61 0 -88 -67h-47q18 46 57.5 75t86.5 29q29 0 101 -33.5t95 -33.5q62 0 89 69h47q-18 -49 -58 -77t-85 -28z" />
<glyph unicode="&#xa0;" />
<glyph unicode="&#xa1;" horiz-adv-x="194" d="M201 484q-18 0 -15 17l14 64q4 18 22 18t14 -18l-14 -64q-3 -17 -21 -17zM59 -95l108 509h36l-108 -509h-36z" />
<glyph unicode="&#xa2;" d="M271 -12q-65 0 -112 23l-33 -47h-38l46 64q-66 51 -65 143q0 29 7 65q26 121 110 193t205 72q38 0 70 -9l41 59h38l-50 -70q72 -36 78 -125l-37 -17q-4 81 -61 111l-288 -408q39 -20 96 -20q163 0 220 141l31 -15q-34 -77 -103 -118.5t-155 -41.5zM382 468 q-105 0 -176.5 -63.5t-93.5 -168.5q-7 -32 -7 -59q0 -75 51 -118l283 402q-26 7 -57 7z" />
<glyph unicode="&#xa3;" horiz-adv-x="584" d="M353 -12q-93 0 -149 49t-56 140q0 31 8 68l1 2h-76l13 34h70l19 91h-52l14 33h45l2 8q24 116 107 187t200 71q112 0 170 -77l-31 -24q-50 68 -147 68q-101 0 -171.5 -62t-91.5 -163l-2 -8h295l-14 -33h-288l-19 -91h270l-13 -34h-264l-1 -2q-7 -32 -7 -60 q0 -78 47.5 -121t126.5 -43q97 0 177 67l21 -23q-92 -77 -204 -77z" />
<glyph unicode="&#xa4;" horiz-adv-x="584" d="M522 194l-81 86q-50 -30 -106 -30t-92 31l-120 -87l-20 21l119 88q-18 26 -18 57q0 64 56 113l-84 89l30 21l83 -88q49 29 103 29q56 0 92 -29l121 88l20 -21l-120 -89q20 -27 20 -60q0 -62 -55 -111l82 -87zM387 492q-51 0 -91 -27q-43 -29 -54 -77q-2 -12 -2 -23 q0 -39 32 -62q29 -21 70 -21q50 0 93 29t53 76q3 12 3 22q0 40 -34 63q-29 20 -70 20z" />
<glyph unicode="&#xa5;" horiz-adv-x="645" d="M412 330l-10 -46h212l-7 -34h-212l-19 -91h212l-7 -33h-212l-27 -126h-36l27 126h-212l7 33h212l19 91h-212l7 34h212l10 46l-239 348h46l217 -314l352 314h45z" />
<glyph unicode="&#xa6;" horiz-adv-x="233" d="M178 372l69 324h36l-69 -324h-36zM94 -23l69 324h36l-69 -324h-36z" />
<glyph unicode="&#xa7;" horiz-adv-x="584" d="M412 143q74 -27 74 -87q0 -11 -3 -24q-14 -66 -78 -105q-57 -35 -129 -35q-175 0 -175 121q0 21 6 46h36q-5 -20 -5 -37q0 -97 140 -97q60 0 105 25q52 28 64 82q2 10 2 19q0 51 -70 66l-148 31q-35 12 -58 38q-26 28 -26 64q0 14 5 30q27 93 134 119q-73 27 -73 87 q0 12 3 25q14 67 77 105q56 35 128 35q177 0 177 -123q0 -21 -5 -45h-36q4 20 4 37q0 98 -141 98q-59 0 -104 -25q-53 -29 -64 -82q-2 -9 -2 -17q0 -39 43 -57q22 -9 123 -30q51 -5 80 -24q58 -27 58 -83q0 -13 -3 -27q-22 -102 -139 -130zM361 375q-126 0 -167 -76l-4 -15 q-2 -11 -2 -21q0 -49 53 -75q41 -20 96 -20q64 0 109 22q56 27 68 82q-2 103 -153 103z" />
<glyph unicode="&#xa8;" horiz-adv-x="214" d="M281 547q-17 0 -13 16l9 46q4 15 21 15q19 0 15 -15l-9 -46q-4 -16 -23 -16zM166 547q-18 0 -14 16l9 46q4 15 22 15t14 -15l-9 -46q-4 -16 -22 -16z" />
<glyph unicode="&#xa9;" horiz-adv-x="560" d="M335 236q-86 0 -143 41q-65 46 -65 128q0 23 5 48q21 97 109 159q83 60 185 60q84 0 143 -44q66 -48 66 -129q0 -21 -6 -45q-20 -97 -108 -159q-84 -59 -186 -59zM420 637q-87 0 -157 -49q-75 -51 -93 -134q-4 -21 -4 -40q0 -68 54 -108q49 -36 120 -36q87 0 158 49 q76 52 93 134q5 20 5 39q0 68 -55 108q-50 37 -121 37zM359 310q-55 0 -89 25q-38 29 -38 81q0 16 4 35q13 63 62.5 99.5t115.5 36.5q114 0 109 -106h-39q0 71 -79 71q-49 0 -85 -27t-46 -74q-3 -14 -3 -26q0 -40 29 -61q25 -19 66 -19q66 0 105 76h41q-56 -111 -153 -111z " />
<glyph unicode="&#xaa;" horiz-adv-x="378" d="M379 349l10 44q-52 -51 -129 -51q-56 0 -89.5 30.5t-33.5 85.5q0 19 5 42q15 71 65 114.5t122 43.5q76 0 105 -49l11 48h38l-66 -308h-38zM320 624q-54 0 -91 -35t-49 -89q-11 -55 9 -88q22 -36 78 -36q53 0 93 35.5t51 88.5q5 20 5 37q0 87 -96 87z" />
<glyph unicode="&#xab;" horiz-adv-x="391" d="M235 261l6 25l188 113l-8 -38l-143 -87l106 -88l-8 -35zM119 261l6 25l188 113l-8 -38l-143 -87l106 -88l-8 -35z" />
<glyph unicode="&#xac;" horiz-adv-x="602" d="M540 134l30 137h-470l6 31h506l-36 -168h-36z" />
<glyph unicode="&#xad;" horiz-adv-x="350" d="M98 254l4 20h272l-4 -20h-272z" />
<glyph unicode="&#xae;" horiz-adv-x="543" d="M324 236q-84 0 -142 42q-65 47 -65 128q0 22 5 47q21 97 109 159q83 60 185 60q100 0 160 -58q48 -47 48 -114q0 -22 -6 -46q-20 -99 -108 -160q-82 -58 -186 -58zM409 637q-87 0 -157 -48q-74 -52 -92 -135q-4 -22 -4 -41q0 -69 54 -108q48 -35 120 -35q88 0 158 49 q75 51 92 134q5 21 5 41q0 69 -55 108q-49 35 -121 35zM457 447q23 -18 15 -56l-15 -72h-39l15 71q1 5 1 10q0 29 -46 29h-80l-23 -110h-38l56 264h121q78 0 78 -54q0 -9 -2 -20q-9 -41 -43 -62zM416 547h-83l-17 -82h78q69 0 69 53q0 29 -47 29z" />
<glyph unicode="&#xaf;" horiz-adv-x="313" d="M155 597l4 19h259l-4 -19h-259z" />
<glyph unicode="&#xb0;" horiz-adv-x="420" d="M292 385q-52 0 -90 27q-42 31 -42 80q0 14 4 28q12 60 68 98q53 37 116 37q53 0 90 -27q43 -30 43 -80q0 -13 -3 -27q-13 -60 -67.5 -98t-118.5 -38zM343 624q-50 0 -92 -28t-52 -75q-3 -11 -3 -22q0 -39 33 -62q29 -21 69 -21q51 0 93 28.5t53 75.5q2 12 2 23 q0 39 -33 61q-29 20 -70 20z" />
<glyph unicode="&#xb1;" horiz-adv-x="630" d="M383 234l-36 -169h-36l36 169h-191l7 33h191l35 166h36l-35 -166h192l-7 -33h-192zM106 -3l8 34h419l-8 -34h-419z" />
<glyph unicode="&#xb2;" horiz-adv-x="392" d="M83 256q19 86 103 149q34 25 152 83q80 39 87 70q1 8 1 16q0 53 -95 53q-123 0 -148 -118h-39q33 153 191 153q130 0 130 -80q0 -12 -3 -26q-10 -48 -91 -88l-97 -48q-119 -59 -143 -130h295l-8 -34h-335z" />
<glyph unicode="&#xb3;" horiz-adv-x="426" d="M272 252q-63 0 -103 22q-52 27 -52 84q0 15 4 32l4 18h40l-6 -26q-2 -10 -2 -20q0 -75 118 -75q53 0 93 18q52 22 61 67q2 10 2 20q0 63 -107 63h-43l7 34h44q50 0 84 16q46 21 46 66q0 31 -40 46q-28 10 -66 10q-132 0 -156 -112h-39q32 147 202 147q52 0 89 -16 q50 -21 50 -67q0 -9 -2 -20q-14 -63 -81 -87q52 -22 52 -73q0 -13 -3 -27q-13 -61 -75 -93q-53 -27 -121 -27z" />
<glyph unicode="&#xb4;" horiz-adv-x="212" d="M178 535q-8 -6 -17 -6q-19 0 -15 15q1 6 7 11l137 111q8 7 17 7q18 0 15 -16q-2 -6 -8 -12z" />
<glyph unicode="&#xb5;" d="M390 11q-19 -9 -22 -26q-9 -42 72 -42l-8 -36q-38 0 -68 13q-40 17 -40 50q0 6 1 12l2 8q-27 -5 -57 -5q-135 0 -165 100l-54 -256h-36l140 659h36l-57 -266q-7 -35 -7 -65q0 -138 150 -138q164 0 196 149l68 320h36l-69 -321q-23 -111 -118 -156z" />
<glyph unicode="&#xb6;" horiz-adv-x="496" d="M378 -133l165 778h-71l-165 -778h-36l80 378q-101 -4 -160 57q-43 44 -43 109q-1 24 5 51q21 98 109 159q84 58 187 58q4 0 7 -1h130l-172 -811h-36z" />
<glyph unicode="&#xb7;" horiz-adv-x="209" d="M179 280q-18 0 -15 17l12 54q3 16 21 16t15 -16l-12 -54q-3 -17 -21 -17z" />
<glyph unicode="&#xb8;" horiz-adv-x="259" d="M86 -174q-38 0 -97 17l22 30q47 -16 79 -16q74 0 82 41q6 25 -47 30q-28 2 -47 -6l4 17l22 70h36l-13 -50h8q79 0 78 -49q0 -8 -2 -16q-14 -68 -125 -68z" />
<glyph unicode="&#xb9;" horiz-adv-x="287" d="M231 260l73 342l-114 -63h-67l201 114h32l-84 -393h-41z" />
<glyph unicode="&#xba;" horiz-adv-x="413" d="M279 350q-59 0 -96 28q-41 31 -41 88q0 17 4 37q15 72 71 112.5t130 40.5q60 0 98 -28q42 -31 42 -88q0 -17 -4 -37q-15 -72 -72 -112.5t-132 -40.5zM339 626q-59 0 -103 -33t-56 -90q-4 -17 -4 -31q0 -46 33 -70q30 -22 78 -22q61 0 105.5 32.5t56.5 90.5q3 16 3 30 q0 46 -34 71q-30 22 -79 22z" />
<glyph unicode="&#xbb;" horiz-adv-x="381" d="M212 151l8 35l141 88l-104 87l8 38l140 -113l-6 -25zM96 151l8 35l141 88l-104 87l8 38l140 -113l-6 -25z" />
<glyph unicode="&#xbc;" horiz-adv-x="816" d="M700 134l-28 -134h-35l28 134h-269l219 270h38l-193 -240h212l51 241l35 -2l-51 -239h92l-7 -30h-92zM227 0h-38l488 694h38zM254 257l74 350l-118 -66h-59l193 111h30l-84 -395h-36z" />
<glyph unicode="&#xbd;" horiz-adv-x="803" d="M430 0q29 120 174 192l99 49q63 31 70 64q2 9 2 17q0 56 -97 56q-125 0 -152 -122h-34q35 152 189 152q127 0 127 -79q0 -12 -3 -26q-10 -48 -82 -84q-37 -18 -102 -52q-126 -66 -148 -137h294l-6 -30h-331zM216 0h-38l489 694h38zM243 257l74 350l-117 -66h-60l193 111 h30l-84 -395h-36z" />
<glyph unicode="&#xbe;" horiz-adv-x="906" d="M791 134l-28 -134h-35l28 134h-269l220 270h38l-194 -240h212l51 241l35 -2l-51 -239h92l-7 -30h-92zM318 0h-38l489 694h38zM282 250q-152 0 -152 101q0 17 4 36l4 16h34l-6 -25q-2 -11 -2 -20q0 -43 42 -63q32 -15 80 -15q54 0 96 19q52 23 61 70q3 11 3 20 q0 66 -111 66h-40l6 31h41q117 0 133 72q1 8 1 15q0 57 -108 57q-134 0 -159 -113h-34q33 144 198 144q138 0 138 -82q0 -10 -2 -21q-14 -63 -88 -89q59 -22 59 -76q0 -11 -3 -24q-12 -60 -75 -92q-52 -27 -120 -27z" />
<glyph unicode="&#xbf;" d="M362 500q-17 0 -13 17l13 64q4 18 21 18q19 0 15 -18l-13 -64q-4 -17 -23 -17zM226 -95q-72 0 -121 28q-61 34 -61 100q0 85 82 156q40 31 118 95q66 55 79 116l7 31h37l-6 -26q-21 -98 -140 -181q-71 -49 -97 -77q-44 -48 -44 -108q0 -55 52 -81q40 -20 102 -20 q180 0 235 175l29 -21q-66 -187 -272 -187z" />
<glyph unicode="&#xc0;" horiz-adv-x="676" d="M558 706q-16 -9 -24 3l-89 121q-10 14 8 24q15 12 25 -2l88 -121q11 -15 -8 -25zM623 0l-50 219h-372l-146 -219h-42l457 681h37l155 -681h-39zM478 631l-254 -378h342z" />
<glyph unicode="&#xc1;" horiz-adv-x="676" d="M449 711q-8 -7 -16 -7q-19 0 -16 17q2 7 8 12l140 121q8 7 16 7q18 0 14 -17q-1 -7 -7 -12zM623 0l-50 219h-372l-146 -219h-42l457 681h37l155 -681h-39zM478 631l-254 -378h342z" />
<glyph unicode="&#xc2;" horiz-adv-x="676" d="M570 700l-59 109l-105 -109h-40l139 147h29l79 -147h-43zM623 0l-50 219h-372l-146 -219h-42l457 681h37l155 -681h-39zM478 631l-254 -378h342z" />
<glyph unicode="&#xc3;" horiz-adv-x="676" d="M567 714q-18 0 -66 27t-59 27q-41 0 -56 -61l-27 21q6 30 33.5 51.5t58.5 21.5q16 0 63.5 -27t59.5 -27q42 0 57 60l28 -18q-10 -33 -36.5 -54t-55.5 -21zM623 0l-50 219h-372l-146 -219h-42l457 680h37l155 -680h-39zM478 630l-254 -378h342z" />
<glyph unicode="&#xc4;" horiz-adv-x="676" d="M549 709q-17 0 -13 18l11 54q4 18 21 18q19 0 15 -18l-11 -54q-4 -18 -23 -18zM434 709q-18 0 -14 18l11 54q4 18 22 18t14 -18l-11 -54q-4 -18 -22 -18zM623 0l-50 219h-372l-146 -219h-42l457 680h37l155 -680h-39zM478 630l-254 -378h342z" />
<glyph unicode="&#xc5;" horiz-adv-x="676" d="M491 715q-29 0 -49.5 16.5t-20.5 44.5q0 45 39 75q30 22 65 22q29 0 50 -16.5t21 -44.5q0 -46 -39 -75q-30 -22 -66 -22zM623 0l-50 219h-372l-146 -219h-42l457 681h37l155 -681h-39zM517 838q-23 0 -40 -16t-17 -39q0 -33 38 -33q49 0 59 44q1 7 1 13q0 31 -41 31z M478 631l-254 -378h342z" />
<glyph unicode="&#xc6;" horiz-adv-x="1077" d="M583 0l72 338h-265l-375 -338h-45l755 678h453l-7 -33h-414l-58 -274h46v-1h315l-7 -32h-361l-65 -305h419l-7 -33h-456zM428 371h234l56 259z" />
<glyph unicode="&#xc7;" horiz-adv-x="719" d="M763 542q-50 110 -222 110q-148 0 -253.5 -85.5t-135.5 -229.5q-10 -46 -10 -86q0 -111 72 -171q67 -56 182 -56q165 0 272 111l26 -20q-120 -125 -304 -125q-161 0 -235 93q-51 63 -51 158q0 43 11 92q34 162 150.5 257t282.5 95q191 0 249 -123zM337 -174q-38 0 -98 19 l24 31q46 -17 78 -17q73 0 82 43q6 27 -46 32q-29 3 -46 -5l4 17l22 75h36l-13 -54q3 1 8 1q78 0 77 -52q0 -8 -2 -18q-15 -72 -126 -72z" />
<glyph unicode="&#xc8;" horiz-adv-x="564" d="M499 697q-16 -11 -26 3l-88 120q-11 15 8 25q15 11 25 -2l88 -121q11 -14 -7 -25zM50 0l145 681h501l-7 -33h-466l-59 -277h413l-7 -32h-413l-65 -306h471l-7 -33h-506z" />
<glyph unicode="&#xc9;" horiz-adv-x="564" d="M389 700q-8 -7 -17 -7q-19 0 -15 17q1 7 7 12l140 121q8 6 16 6q18 0 15 -17q-2 -7 -8 -12zM50 0l145 681h501l-7 -33h-466l-59 -277h413l-7 -32h-413l-65 -306h471l-7 -33h-506z" />
<glyph unicode="&#xca;" horiz-adv-x="564" d="M513 710l-59 109l-105 -109h-40l139 147h29l80 -147h-44zM50 0l145 681h501l-7 -33h-466l-59 -277h413l-7 -32h-413l-65 -306h471l-7 -33h-506z" />
<glyph unicode="&#xcb;" horiz-adv-x="564" d="M492 717q-18 0 -14 18l12 54q4 18 22 18t14 -18l-12 -54q-4 -18 -22 -18zM376 717q-17 0 -13 18l12 54q4 18 21 18q19 0 15 -18l-12 -54q-4 -18 -23 -18zM50 0l145 680h501l-7 -33h-466l-59 -276h413l-7 -32h-413l-65 -306h471l-7 -33h-506z" />
<glyph unicode="&#xcc;" horiz-adv-x="134" d="M286 712q-16 -10 -25 3l-88 120q-10 14 8 25q17 11 26 -2l88 -121q10 -14 -9 -25zM50 0l145 681h36l-145 -681h-36z" />
<glyph unicode="&#xcd;" horiz-adv-x="134" d="M176 711q-8 -7 -16 -7q-19 0 -16 17q2 7 8 12l139 121q8 7 17 7q18 0 14 -17q-1 -7 -7 -12zM50 0l145 681h36l-145 -681h-36z" />
<glyph unicode="&#xce;" horiz-adv-x="134" d="M298 706l-59 109l-106 -109h-40l139 147h29l80 -147h-43zM50 0l145 681h36l-145 -681h-36z" />
<glyph unicode="&#xcf;" horiz-adv-x="134" d="M279 724q-17 0 -13 19l11 54q4 17 21 17q18 0 14 -17l-10 -54q-4 -19 -23 -19zM164 724q-20 0 -16 19l11 54q4 17 24 17q17 0 13 -17l-10 -54q-4 -19 -22 -19zM50 0l145 680h36l-145 -680h-36z" />
<glyph unicode="&#xd0;" horiz-adv-x="680" d="M277 0h-227l69 323h-37l7 34h37l68 321h265q270 0 270 -236q0 -47 -12 -104q-35 -164 -155 -253q-115 -85 -285 -85zM451 645h-228l-61 -288h198l-7 -34h-198l-62 -290h194q155 0 257 76q105 80 137 229q11 53 11 97q0 210 -241 210z" />
<glyph unicode="&#xd1;" horiz-adv-x="680" d="M558 708q-18 0 -65.5 27t-58.5 27q-41 0 -56 -61l-28 21q7 29 34.5 51t57.5 22q17 0 64.5 -27t59.5 -27q42 0 56 60l29 -17q-10 -33 -37 -54.5t-56 -21.5zM588 0l-368 631l-134 -631h-36l145 680h42q58 -107 183 -314t186 -315l134 629h36l-145 -680h-43z" />
<glyph unicode="&#xd2;" horiz-adv-x="757" d="M598 710q-15 -9 -23 3l-90 120q-3 6 -1 12q3 18 21 18q9 0 14 -7l87 -121q11 -14 -8 -25zM378 -7q-131 0 -206 60q-83 65 -83 190q0 45 11 97q34 161 146 249.5t277 88.5q131 0 207 -56q85 -64 85 -188q0 -44 -11 -94q-34 -161 -148 -254t-278 -93zM516 645 q-149 0 -249 -80t-131 -225q-10 -46 -9 -87q0 -111 73 -171q68 -56 185 -56q149 0 250.5 83.5t132.5 230.5q10 47 10 87q0 111 -77 168q-68 50 -185 50z" />
<glyph unicode="&#xd3;" horiz-adv-x="757" d="M487 717q-8 -6 -15 -6q-18 0 -15 15q2 8 8 13l139 121q14 12 27 3q13 -12 -4 -26zM378 -7q-131 0 -207 60q-82 65 -82 191q0 45 11 97q35 160 147 248.5t276 88.5q131 0 207 -56q85 -64 85 -188q0 -43 -11 -93q-34 -162 -147.5 -255t-278.5 -93zM516 645 q-148 0 -248.5 -80t-131.5 -224q-9 -47 -9 -87q0 -112 73 -172q68 -56 185 -56q149 0 250.5 84t132.5 231q10 44 10 82q1 113 -75 171q-69 51 -187 51z" />
<glyph unicode="&#xd4;" horiz-adv-x="757" d="M612 718l-59 108l-105 -108h-40l138 146h29l80 -146h-43zM378 -7q-131 0 -207 60q-82 65 -82 191q0 45 11 97q35 160 147 248.5t276 88.5q131 0 207 -56q85 -64 85 -188q0 -43 -11 -93q-34 -162 -147.5 -255t-278.5 -93zM516 645q-148 0 -248.5 -80t-131.5 -224 q-9 -47 -9 -87q0 -112 73 -172q68 -56 185 -56q149 0 250.5 84t132.5 231q10 44 10 82q1 113 -75 171q-69 51 -187 51z" />
<glyph unicode="&#xd5;" horiz-adv-x="757" d="M603 729q-17 0 -65 27t-59 27q-38 0 -58 -61l-25 21q6 29 34 51t57 22q17 0 64.5 -27t58.5 -27q43 0 58 60l28 -18q-11 -33 -37.5 -54t-55.5 -21zM378 -7q-131 0 -206 60q-83 65 -83 190q0 45 11 97q34 161 146 249.5t277 88.5q130 0 207 -57q85 -64 85 -188 q0 -43 -11 -93q-34 -162 -147.5 -254.5t-278.5 -92.5zM516 644q-149 0 -249 -79.5t-131 -224.5q-10 -46 -10 -86q0 -113 74 -173q68 -55 185 -55q149 0 250.5 83.5t132.5 230.5q10 46 10 85q0 112 -76 169q-68 50 -186 50z" />
<glyph unicode="&#xd6;" horiz-adv-x="757" d="M591 724q-18 0 -14 19l11 54q4 17 22 17q17 0 13 -17l-10 -54q-4 -19 -22 -19zM475 724q-17 0 -13 19l11 54q4 17 21 17q18 0 14 -17l-10 -54q-4 -19 -23 -19zM378 -7q-131 0 -206 60q-83 65 -83 190q0 45 11 97q34 161 146 249t277 88q130 0 207 -57q85 -64 85 -188 q0 -42 -11 -92q-34 -162 -147.5 -254.5t-278.5 -92.5zM516 644q-149 0 -249 -79.5t-131 -224.5q-10 -46 -10 -86q0 -113 74 -173q68 -55 185 -55q149 0 250.5 83.5t132.5 230.5q10 46 10 85q0 112 -76 169q-68 50 -186 50z" />
<glyph unicode="&#xd7;" horiz-adv-x="490" d="M405 112l-112 116l-160 -115l-20 22l160 117l-110 115l31 23l109 -116l160 116l21 -23l-159 -115l110 -119z" />
<glyph unicode="&#xd8;" horiz-adv-x="757" d="M378 -7q-78 0 -137 21l-30 -43h-38l40 57q-123 60 -123 220q0 42 10 91q34 160 146 248.5t277 88.5q77 0 135 -19l33 47h38l-42 -60q128 -64 128 -212q0 -43 -11 -93q-34 -162 -147.5 -254t-278.5 -92zM665 614l-401 -568q51 -20 121 -20q149 0 250.5 83.5t132.5 229.5 q10 49 10 90q-2 131 -113 185zM515 642q-148 0 -248 -79.5t-131 -223.5q-9 -42 -9 -80q0 -82 42 -141q28 -40 66 -58l400 566q-51 16 -120 16z" />
<glyph unicode="&#xd9;" horiz-adv-x="664" d="M550 702q-13 -8 -25 3l-88 121q-10 13 7 24t26 -2l88 -120q11 -15 -8 -26zM331 -7q-237 0 -237 178q0 38 10 84l91 426h36l-91 -425q-8 -38 -8 -70q0 -160 206 -160q246 0 294 226l91 429h36l-91 -428q-55 -260 -337 -260z" />
<glyph unicode="&#xda;" horiz-adv-x="664" d="M439 707q-8 -6 -16 -6q-18 0 -15 16q2 8 8 13l139 120q8 7 17 7q18 0 15 -17q-2 -7 -8 -12zM331 -7q-237 0 -237 178q0 38 10 84l91 426h36l-91 -425q-8 -38 -8 -70q0 -160 206 -160q246 0 294 226l91 429h36l-91 -428q-55 -260 -337 -260z" />
<glyph unicode="&#xdb;" horiz-adv-x="664" d="M563 708l-59 109l-106 -109h-40l140 147h29l79 -147h-43zM331 -7q-237 0 -237 178q0 38 10 84l91 426h36l-91 -425q-8 -38 -8 -70q0 -160 206 -160q246 0 294 226l91 429h36l-91 -428q-55 -260 -337 -260z" />
<glyph unicode="&#xdc;" horiz-adv-x="664" d="M544 724q-18 0 -14 19l11 54q4 17 22 17t14 -17l-11 -54q-4 -19 -22 -19zM428 724q-17 0 -13 19l11 54q4 17 21 17q19 0 15 -17l-11 -54q-4 -19 -23 -19zM331 -7q-237 0 -237 178q0 38 10 84l91 425h36l-91 -424q-8 -38 -8 -70q0 -160 206 -160q246 0 294 226l91 428h36 l-91 -427q-55 -260 -337 -260z" />
<glyph unicode="&#xdd;" horiz-adv-x="657" d="M438 711q-8 -7 -16 -7q-19 0 -16 17q2 7 8 12l140 121q8 7 17 7q18 0 14 -17q-1 -7 -7 -12zM419 332l-71 -332h-36l71 332l-239 349h46l217 -316l352 316h45z" />
<glyph unicode="&#xde;" horiz-adv-x="425" d="M271 171h-148l-36 -171h-36l144 678h36l-32 -151h149q112 0 112 -111q0 -31 -8 -69q-38 -176 -181 -176zM340 494h-148l-62 -291h149q105 0 136 144q7 34 7 60q0 87 -82 87z" />
<glyph unicode="&#xdf;" horiz-adv-x="505" d="M199 -30l7 33q243 0 285 199q5 24 5 45q0 79 -66 119q-55 33 -140 33l7 33q99 0 143 16q69 25 83 94q4 17 4 31q0 54 -54 73q-31 11 -98 11q-148 0 -179 -144l-109 -514h-36l85 400h-35l7 34h35q9 44 26 106q39 151 215 151q180 0 180 -106q0 -17 -5 -38 q-26 -107 -142 -132q51 -15 83 -64t32 -104q0 -21 -5 -44q-49 -232 -328 -232z" />
<glyph unicode="&#xe0;" horiz-adv-x="552" d="M432 521q-15 -9 -25 2l-88 120q-11 15 7 25q16 12 27 -2l87 -121q10 -13 -8 -24zM471 0l23 110q-89 -121 -236 -121q-113 0 -162 74q-30 46 -30 111q0 33 8 71q25 115 101 185q81 74 196 74q147 0 182 -119l25 117h36l-107 -502h-36zM359 470q-96 0 -165 -66 q-64 -62 -85 -159q-7 -34 -7 -63q-1 -75 42 -117.5t120 -42.5q95 0 167 64t92 159q7 34 8 64q0 79 -45.5 120t-126.5 41z" />
<glyph unicode="&#xe1;" horiz-adv-x="552" d="M332 523q-8 -6 -15 -6q-18 0 -15 16q2 7 8 12l139 121q8 7 17 7q18 0 14 -17q-1 -6 -7 -13zM483 0l23 110q-89 -121 -236 -121q-113 0 -162 74q-30 46 -30 111q0 33 8 71q25 115 101 185q81 74 196 74q147 0 182 -119l25 117h36l-107 -502h-36zM371 470q-96 0 -165 -66 q-64 -62 -85 -159q-7 -34 -7 -63q-1 -75 42 -117.5t120 -42.5q95 0 167 64t92 159q7 34 8 64q0 79 -45.5 120t-126.5 41z" />
<glyph unicode="&#xe2;" horiz-adv-x="552" d="M457 528l-59 108l-105 -108h-40l138 146h29l80 -146h-43zM483 0l23 110q-89 -121 -236 -121q-113 0 -162 74q-30 46 -30 111q0 33 8 71q25 115 101 185q81 74 196 74q147 0 182 -119l25 117h36l-107 -502h-36zM371 470q-96 0 -165 -66q-64 -62 -85 -159q-7 -34 -7 -63 q-1 -75 42 -117.5t120 -42.5q95 0 167 64t92 159q7 34 8 64q0 79 -45.5 120t-126.5 41z" />
<glyph unicode="&#xe3;" horiz-adv-x="552" d="M448 539q-19 0 -66.5 27t-57.5 27q-39 0 -58 -61l-25 21q6 29 33.5 51t57.5 22q17 0 64.5 -27t58.5 -27q43 0 57 60l29 -18q-12 -33 -38 -54t-55 -21zM483 0l23 110q-89 -121 -236 -121q-113 0 -162 74q-30 47 -30 111q0 33 8 70q25 116 101 186q80 73 196 73 q147 0 182 -118l24 116h36l-106 -501h-36zM371 470q-95 0 -165 -67q-65 -62 -85 -159q-7 -35 -7 -64q0 -54 23 -93q41 -65 139 -65q95 0 167 63.5t92 158.5q7 36 7 66q0 78 -45.5 119t-125.5 41z" />
<glyph unicode="&#xe4;" horiz-adv-x="552" d="M449 534q-18 0 -14 19l11 54q4 17 22 17t14 -17l-11 -54q-4 -19 -22 -19zM333 534q-17 0 -13 19l11 54q4 17 21 17q19 0 15 -17l-11 -54q-4 -19 -23 -19zM483 0l23 110q-89 -121 -236 -121q-113 0 -162 74q-30 47 -30 111q0 33 8 70q24 115 101 185q81 74 196 74 q147 0 182 -118l24 116h36l-106 -501h-36zM371 470q-95 0 -165 -67q-65 -62 -85 -159q-7 -35 -7 -64q0 -54 23 -93q41 -65 139 -65q95 0 167 63.5t92 158.5q7 36 7 66q0 78 -45.5 119t-125.5 41z" />
<glyph unicode="&#xe5;" horiz-adv-x="552" d="M385 542q-29 0 -50 16.5t-21 44.5q0 46 39 75q30 22 66 22q29 0 49.5 -16.5t20.5 -44.5q0 -46 -39 -75q-30 -22 -65 -22zM483 0l24 111q-90 -122 -237 -122q-113 0 -162 74q-30 46 -30 111q0 33 8 71q25 116 101 186q80 73 196 73q147 0 182 -118l25 116h36l-107 -502 h-36zM411 665q-23 0 -40.5 -15.5t-17.5 -37.5q0 -34 40 -34q23 0 40.5 15.5t17.5 37.5q0 34 -40 34zM371 471q-95 0 -165 -67q-64 -62 -85 -159q-7 -35 -7 -64q0 -75 43 -117t119 -42q95 0 167 64t92 159q8 36 8 66q0 78 -46 119t-126 41z" />
<glyph unicode="&#xe6;" horiz-adv-x="984" d="M557 233l-4 -17q-7 -32 -7 -59q0 -135 173 -135q149 0 222 122h37q-83 -155 -268 -155q-146 0 -184 102l-19 -91h-36l23 110q-89 -121 -236 -121q-113 0 -162 74q-30 46 -30 110q0 33 8 70q24 115 101 184q80 73 195 73q147 0 182 -118l25 116h36l-24 -114q18 22 42 43 q85 73 191 73q90 0 144 -43q59 -46 59 -132q0 -30 -7 -63l-6 -28zM815 467q-87 0 -159.5 -54.5t-90.5 -138.5l-1 -8h413q5 26 5 50q0 73 -45.5 112t-121.5 39zM358 467q-95 0 -164 -66q-65 -62 -85 -158q-8 -34 -8 -64q0 -74 43 -115.5t120 -41.5q95 0 168 64q70 62 91 157 q7 35 7 65q0 79 -45.5 119t-126.5 40z" />
<glyph unicode="&#xe7;" d="M271 -15q-92 0 -146 45q-57 48 -57 137q0 31 8 66q25 121 109 194t206 73q76 0 122 -35q51 -38 54 -111l-36 -17q-6 130 -149 130q-106 0 -179 -66q-69 -62 -91 -168q-7 -31 -7 -58q0 -76 48 -117q45 -39 124 -39q76 0 134 36.5t86 105.5l32 -15q-34 -77 -103 -119 t-155 -42zM242 -174q-37 0 -97 18l23 32q47 -17 78 -17q74 0 83 43q6 27 -47 32q-28 2 -46 -6l3 17l24 75h36l-13 -53h7q78 0 77 -51q0 -8 -2 -18q-15 -72 -126 -72z" />
<glyph unicode="&#xe8;" d="M442 520q-6 -3 -12 -3q-7 0 -13 6l-89 120q-3 6 -2 12q4 18 22 18q8 0 14 -7l88 -121q10 -14 -8 -25zM104 235q-6 -35 -6 -64q0 -149 169 -149q149 0 222 124h37q-81 -157 -268 -157q-196 0 -196 176q0 36 9 80q24 114 105.5 186.5t195.5 72.5q90 0 144 -43 q58 -47 58 -134q0 -29 -7 -63l-6 -28zM365 470q-93 0 -160.5 -55.5t-93.5 -146.5h415q5 27 5 50q0 73 -46 114q-45 38 -120 38z" />
<glyph unicode="&#xe9;" d="M471 646l-140 -121q-9 -6 -16 -6q-18 0 -14 16q1 7 7 12l139 121q14 12 28 2q5 -5 4 -12q-1 -5 -8 -12zM104 235q-6 -35 -6 -64q0 -149 169 -149q149 0 222 124h37q-81 -157 -268 -157q-196 0 -196 176q0 36 9 80q24 114 105.5 186.5t195.5 72.5q90 0 144 -43 q58 -47 58 -134q0 -29 -7 -63l-6 -28zM365 470q-93 0 -160.5 -55.5t-93.5 -146.5h415q5 27 5 50q0 73 -46 114q-45 38 -120 38z" />
<glyph unicode="&#xea;" d="M455 528l-59 108l-105 -108h-40l139 146h29l79 -146h-43zM104 235q-6 -35 -6 -64q0 -149 169 -149q149 0 222 124h37q-81 -157 -268 -157q-196 0 -196 176q0 36 9 80q24 114 105.5 186.5t195.5 72.5q90 0 144 -43q58 -47 58 -134q0 -29 -7 -63l-6 -28zM365 470 q-93 0 -160.5 -55.5t-93.5 -146.5h415q5 27 5 50q0 73 -46 114q-45 38 -120 38z" />
<glyph unicode="&#xeb;" d="M435 534q-17 0 -13 19l11 54q4 17 21 17q19 0 15 -17l-11 -54q-4 -19 -23 -19zM320 534q-18 0 -14 19l11 54q4 17 22 17t14 -17l-11 -54q-4 -19 -22 -19zM104 234q-7 -35 -7 -64q0 -148 170 -148q149 0 222 123h37q-82 -156 -268 -156q-196 0 -196 176q0 36 9 79 q24 114 105 186.5t196 72.5q90 0 144 -43q58 -47 58 -133q0 -29 -7 -63l-6 -29zM365 470q-94 0 -161 -55.5t-93 -147.5h415q5 27 5 51q0 73 -46 114q-45 38 -120 38z" />
<glyph unicode="&#xec;" horiz-adv-x="136" d="M247 521q-15 -8 -25 2l-88 120q-11 14 7 25q15 12 26 -2l88 -121q10 -14 -8 -24zM51 0l105 492h36l-105 -492h-36z" />
<glyph unicode="&#xed;" horiz-adv-x="136" d="M137 520q-9 -7 -17 -7q-19 0 -15 17q1 6 7 11l140 121q8 7 16 7q18 0 15 -17q-2 -7 -8 -12zM51 0l105 492h36l-105 -492h-36z" />
<glyph unicode="&#xee;" horiz-adv-x="136" d="M257 528l-53 107l-101 -107h-39l133 146h29l73 -146h-42zM51 0l105 492h36l-105 -492h-36z" />
<glyph unicode="&#xef;" horiz-adv-x="136" d="M243 534q-17 0 -13 19l11 54q4 17 21 17q19 0 15 -17l-11 -54q-4 -19 -23 -19zM128 534q-19 0 -15 19l11 54q4 17 23 17q18 0 14 -17l-11 -54q-4 -19 -22 -19zM51 0l104 491h36l-104 -491h-36z" />
<glyph unicode="&#xf0;" horiz-adv-x="564" d="M471 0l23 110q-89 -121 -236 -121q-113 0 -162 74q-30 46 -30 111q0 33 8 71q25 115 101 185q81 74 196 74q147 0 182 -119l40 188h-332l7 35h332l15 70h36l-144 -678h-36zM359 471q-95 0 -165 -67q-64 -62 -85 -159q-7 -34 -7 -63q-1 -75 42 -117.5t120 -42.5 q95 0 167 64t92 159q7 34 8 64q0 79 -45 120.5t-127 41.5z" />
<glyph unicode="&#xf1;" d="M449 539q-18 0 -66 27t-59 27q-41 0 -56 -61l-27 21q6 28 34 50.5t57 22.5q17 0 64.5 -27t59.5 -27q42 0 56 60l29 -18q-11 -33 -37 -54t-55 -21zM437 0l69 323q4 20 4 38q0 56 -41 84q-35 25 -94 25q-87 0 -149 -53.5t-80 -140.5l-59 -276h-36l104 491h36l-18 -88 q71 100 208 100q70 0 115 -29q52 -34 52 -100q0 -19 -4 -41l-71 -333h-36z" />
<glyph unicode="&#xf2;" horiz-adv-x="545" d="M452 521q-15 -9 -25 2l-88 120q-11 15 7 25q16 12 27 -2l87 -121q10 -13 -8 -24zM270 -11q-94 0 -149 49t-55 140q1 32 8 68q25 116 107.5 187t199.5 71q93 0 148.5 -49t55.5 -140q0 -32 -8 -69q-24 -116 -107 -186.5t-200 -70.5zM373 470q-101 0 -171 -61.5t-92 -162.5 q-7 -32 -7 -61q0 -77 47.5 -120t127.5 -43q100 0 171 62t92 162q7 33 7 62q0 79 -47 120.5t-128 41.5z" />
<glyph unicode="&#xf3;" horiz-adv-x="545" d="M341 520q-9 -7 -17 -7q-18 0 -14 17q1 6 6 11l140 121q8 7 17 7q18 0 15 -17q-2 -7 -8 -12zM270 -11q-94 0 -149 49t-55 140q1 32 8 68q25 116 107.5 187t199.5 71q93 0 148.5 -49t55.5 -140q0 -32 -8 -69q-24 -116 -107 -186.5t-200 -70.5zM373 470q-101 0 -171 -61.5 t-92 -162.5q-7 -32 -7 -61q0 -77 47.5 -120t127.5 -43q100 0 171 62t92 162q7 33 7 62q0 79 -47 120.5t-128 41.5z" />
<glyph unicode="&#xf4;" horiz-adv-x="545" d="M466 528l-59 108l-106 -108h-40l139 146h29l80 -146h-43zM270 -11q-94 0 -149 49t-55 140q1 32 8 68q25 116 107.5 187t199.5 71q93 0 148.5 -49t55.5 -140q0 -32 -8 -69q-24 -116 -107 -186.5t-200 -70.5zM373 470q-101 0 -171 -61.5t-92 -162.5q-7 -32 -7 -61 q0 -77 47.5 -120t127.5 -43q100 0 171 62t92 162q7 33 7 62q0 79 -47 120.5t-128 41.5z" />
<glyph unicode="&#xf5;" horiz-adv-x="545" d="M456 539q-19 0 -67 27t-57 27q-42 0 -57 -61l-27 21q6 30 33.5 51.5t58.5 21.5q16 0 63.5 -27t59.5 -27q37 0 58 60l27 -18q-12 -33 -37.5 -54t-54.5 -21zM270 -11q-93 0 -147 48q-57 49 -57 139q0 33 8 69q25 115 107.5 186.5t199.5 71.5q93 0 148.5 -49t55.5 -140 q0 -32 -8 -69q-24 -115 -107.5 -185.5t-199.5 -70.5zM373 470q-101 0 -171.5 -62t-91.5 -163q-7 -32 -7 -60q0 -77 48 -120t127 -43q99 0 172 63q70 61 91 160q7 33 7 63q0 78 -47 120t-128 42z" />
<glyph unicode="&#xf6;" horiz-adv-x="545" d="M445 534q-18 0 -14 19l11 54q4 17 22 17t14 -17l-11 -54q-4 -19 -22 -19zM329 534q-17 0 -13 19l11 54q4 17 21 17q19 0 15 -17l-11 -54q-4 -19 -23 -19zM270 -11q-93 0 -147 48q-57 49 -57 139q0 33 8 69q25 115 107.5 186.5t199.5 71.5q93 0 148.5 -49t55.5 -140 q0 -32 -8 -69q-24 -115 -107.5 -185.5t-199.5 -70.5zM373 470q-101 0 -171.5 -62t-91.5 -163q-7 -32 -7 -60q0 -77 48 -120t127 -43q99 0 172 63q70 61 91 160q7 33 7 63q0 78 -47 120t-128 42z" />
<glyph unicode="&#xf7;" horiz-adv-x="592" d="M360 301q-17 0 -13 18l13 62q4 17 21 17q19 0 15 -17l-13 -62q-4 -18 -23 -18zM91 224l7 33h492l-7 -33h-492zM312 74q-17 0 -13 18l13 62q3 17 20 17q19 0 16 -17l-13 -62q-4 -18 -23 -18z" />
<glyph unicode="&#xf8;" horiz-adv-x="545" d="M269 -12q-57 0 -98 18l-37 -53h-38l47 67q-77 52 -77 154q0 32 8 70q24 115 107 186t199 71q52 0 92 -15l45 63h38l-54 -77q83 -50 83 -161q0 -31 -7 -67q-25 -115 -108 -185.5t-200 -70.5zM519 399q-19 28 -41 42l-286 -404q35 -16 85 -16q101 0 173 63q70 60 91 160 q6 29 6 56q0 56 -28 99zM372 468q-101 0 -171 -61.5t-91 -162.5q-7 -33 -7 -62q1 -83 62 -130l286 404q-35 12 -79 12z" />
<glyph unicode="&#xf9;" d="M441 517q-15 -8 -25 2l-88 121q-10 14 7 24q15 12 26 -2l88 -121q10 -14 -8 -24zM437 0l19 89q-73 -100 -208 -100q-73 0 -116 30q-50 34 -50 103q0 22 5 48l69 322h36l-69 -321q-4 -22 -4 -41q0 -108 136 -108q92 0 153 57q57 53 77 146l57 267h36l-105 -492h-36z" />
<glyph unicode="&#xfa;" d="M332 524q-8 -7 -16 -7q-19 0 -15 17q1 6 7 11l139 121q8 7 17 7q18 0 14 -17q-1 -8 -7 -13zM437 0l19 89q-73 -100 -208 -100q-73 0 -116 30q-50 34 -50 102q0 23 5 50l69 321h36l-69 -321q-4 -22 -4 -41q0 -108 136 -108q92 0 153 57q57 53 77 146l57 267h36l-105 -492 h-36z" />
<glyph unicode="&#xfb;" d="M455 528l-59 108l-105 -108h-40l139 146h29l79 -146h-43zM437 0l19 89q-73 -100 -208 -100q-73 0 -116 30q-50 34 -50 102q0 23 5 50l69 321h36l-68 -320q-5 -23 -5 -42q0 -108 136 -108q92 0 153 57q57 53 77 146l57 267h36l-105 -492h-36z" />
<glyph unicode="&#xfc;" d="M434 534q-17 0 -13 19l11 54q4 17 21 17q19 0 15 -17l-11 -54q-4 -19 -23 -19zM319 534q-18 0 -14 19l11 54q4 17 22 17t14 -17l-11 -54q-4 -19 -22 -19zM437 0l19 88q-73 -99 -208 -99q-73 0 -116 30q-51 35 -50 103q0 22 5 48l68 321h36l-68 -320q-4 -22 -4 -41 q0 -108 136 -108q93 0 153 56q57 53 77 147l56 266h36l-104 -491h-36z" />
<glyph unicode="&#xfd;" horiz-adv-x="506" d="M462 645l-140 -120q-9 -6 -16 -6q-19 0 -15 16q1 7 8 12l139 121q14 12 28 2q5 -5 4 -12q-1 -5 -8 -13zM203 -179q-181 0 -181 132q0 16 3 34h36q-1 -12 -1 -23q0 -110 152 -110q194 0 230 168l13 64q-73 -100 -208 -100q-72 0 -116 30q-50 35 -50 103q0 23 6 49l68 323 h36l-68 -322q-5 -22 -5 -40q0 -110 136 -110q93 0 154 57q57 54 76 147l57 268h36l-100 -470q-42 -200 -274 -200z" />
<glyph unicode="&#xfe;" horiz-adv-x="564" d="M290 -14q-148 0 -181 119l-58 -273h-36l180 846h36l-62 -293q83 118 230 118q91 0 143.5 -48t52.5 -137q0 -33 -9 -72q-25 -117 -100 -187q-79 -73 -196 -73zM398 470q-98 0 -168 -62t-90 -160q-9 -40 -9 -73q0 -155 170 -155q98 0 166 65q63 61 84 160q7 34 7 64 q0 75 -42 118t-118 43z" />
<glyph unicode="&#xff;" horiz-adv-x="510" d="M427 534q-17 0 -13 19l11 54q4 17 21 17t14 -17l-10 -54q-4 -19 -23 -19zM312 534q-18 0 -14 19l11 54q4 17 22 17q16 0 13 -17l-10 -54q-4 -19 -22 -19zM203 -179q-181 0 -181 132q0 16 3 34h36q-1 -12 -1 -23q0 -110 152 -110q194 0 230 168l13 64q-73 -100 -208 -100 q-72 0 -116 30q-50 34 -50 102q0 23 6 50l68 322h36l-68 -321q-5 -23 -5 -42q0 -108 136 -108q93 0 154 57q57 54 76 147l57 267h36l-100 -469q-42 -200 -274 -200z" />
<glyph unicode="&#x152;" horiz-adv-x="1010" d="M471 0q-44 -8 -90 -8q-163 0 -237 93q-51 63 -52 157q0 44 11 95q34 161 147.5 253.5t277.5 92.5q33 0 65 -5h525l-7 -33h-416q122 -69 122 -215q0 -28 -4 -60h209l-7 -33h-207q-46 -214 -236 -304h415l-7 -33h-509zM633 634l-56 -264h200q4 27 4 52q0 76 -38.5 132 t-109.5 80zM570 337l-63 -295q72 21 131 69q104 85 134 226h-202zM599 642q-36 8 -78 8q-148 0 -249.5 -83.5t-132.5 -229.5q-10 -46 -10 -86q0 -113 74 -172q68 -55 185 -55q42 0 82 9z" />
<glyph unicode="&#x153;" horiz-adv-x="1052" d="M601 233q-7 -34 -7 -63q0 -148 170 -148q149 0 222 122h37q-83 -155 -268 -155q-180 0 -195 151q-43 -71 -113 -111t-153 -40q-92 0 -148 48.5t-56 138.5q0 32 8 68q24 115 107 185.5t199 70.5q82 0 134 -38q57 -41 67 -119q29 49 70 84q84 73 192 73q90 0 144 -43 q59 -46 59 -132q0 -30 -7 -63l-6 -28zM860 467q-91 0 -159 -56t-93 -145h414q5 26 5 50q0 73 -45.5 112t-121.5 39zM396 467q-101 0 -171 -61t-91 -162q-7 -31 -7 -59q0 -78 47 -120.5t128 -42.5q100 0 171 61.5t92 160.5q7 33 7 62q0 79 -47.5 120t-128.5 41z" />
<glyph unicode="&#x178;" horiz-adv-x="663" d="M548 724q-17 0 -13 19l11 54q4 17 21 17q18 0 14 -17l-10 -54q-4 -19 -23 -19zM433 724q-18 0 -14 19l11 54q4 17 22 17q17 0 13 -17l-10 -54q-4 -19 -22 -19zM422 332l-71 -332h-36l71 332l-240 348h47l217 -315l352 315h45z" />
<glyph unicode="&#x2c6;" horiz-adv-x="259" d="M325 540l-61 99l-103 -99h-40l135 134h29l83 -134h-43z" />
<glyph unicode="&#x2dc;" horiz-adv-x="366" d="M367 552q-17 0 -65 23t-60 23q-41 0 -54 -52l-28 18q5 25 35 44q27 18 54 18q17 0 65 -23t59 -23q43 0 56 51l29 -15q-10 -28 -36 -46t-55 -18z" />
<glyph unicode="&#x2000;" horiz-adv-x="436" />
<glyph unicode="&#x2001;" horiz-adv-x="873" />
<glyph unicode="&#x2002;" horiz-adv-x="436" />
<glyph unicode="&#x2003;" horiz-adv-x="873" />
<glyph unicode="&#x2004;" horiz-adv-x="291" />
<glyph unicode="&#x2005;" horiz-adv-x="218" />
<glyph unicode="&#x2006;" horiz-adv-x="145" />
<glyph unicode="&#x2007;" horiz-adv-x="145" />
<glyph unicode="&#x2008;" horiz-adv-x="109" />
<glyph unicode="&#x2009;" horiz-adv-x="174" />
<glyph unicode="&#x200a;" horiz-adv-x="48" />
<glyph unicode="&#x2010;" horiz-adv-x="350" d="M98 254l4 20h272l-4 -20h-272z" />
<glyph unicode="&#x2011;" horiz-adv-x="350" d="M98 254l4 20h272l-4 -20h-272z" />
<glyph unicode="&#x2012;" horiz-adv-x="350" d="M98 254l4 20h272l-4 -20h-272z" />
<glyph unicode="&#x2013;" horiz-adv-x="495" d="M46 254l4 20h509l-4 -20h-509z" />
<glyph unicode="&#x2014;" horiz-adv-x="894" d="M46 254l4 20h908l-4 -20h-908z" />
<glyph unicode="&#x2018;" horiz-adv-x="175" d="M195 513q-8 -16 -25 -12q-16 4 -7 21l72 143q6 12 21 12q16 0 16 -10q0 -4 -4 -11z" />
<glyph unicode="&#x2019;" horiz-adv-x="175" d="M196 513q-6 -12 -21 -12q-16 0 -16 10q0 4 4 11l73 143q8 16 24 12q17 -4 8 -21z" />
<glyph unicode="&#x201a;" horiz-adv-x="292" d="M108 -78q-6 -13 -19 -13q-19 0 -16 15q0 2 2 7l74 143q8 16 23 12q17 -4 9 -21z" />
<glyph unicode="&#x201c;" horiz-adv-x="267" d="M300 513q-8 -16 -25 -12q-16 4 -7 21l72 143q6 12 21 12q16 0 16 -10q0 -4 -4 -11zM195 513q-8 -16 -25 -12q-16 4 -7 21l72 143q6 12 21 12q16 0 16 -10q0 -4 -4 -11z" />
<glyph unicode="&#x201d;" horiz-adv-x="276" d="M301 513q-6 -12 -21 -12q-16 0 -16 10q0 4 4 11l73 143q8 16 24 12q17 -4 8 -21zM196 513q-6 -12 -21 -12q-16 0 -16 10q0 4 4 11l73 143q8 16 24 12q17 -4 8 -21z" />
<glyph unicode="&#x201e;" horiz-adv-x="351" d="M213 -78q-6 -13 -19 -13q-19 0 -16 15q0 2 2 7l74 143q8 16 23 12q17 -4 9 -21zM108 -78q-6 -13 -19 -13q-19 0 -16 15q0 2 2 7l74 143q8 16 23 12q17 -4 9 -21z" />
<glyph unicode="&#x2022;" horiz-adv-x="292" d="M174 250q-73 0 -69 17l24 116q4 17 77 17q74 0 70 -17l-24 -116q-4 -17 -78 -17z" />
<glyph unicode="&#x2026;" horiz-adv-x="638" d="M524 -2q-18 0 -15 16l12 55q3 16 21 16t15 -16l-12 -55q-3 -16 -21 -16zM335 -2q-18 0 -15 16l12 55q3 16 21 16t15 -16l-12 -55q-3 -16 -21 -16zM146 -2q-18 0 -15 16l12 55q3 16 21 16t15 -16l-12 -55q-3 -16 -21 -16z" />
<glyph unicode="&#x202f;" horiz-adv-x="174" />
<glyph unicode="&#x2039;" horiz-adv-x="294" d="M119 261l6 25l188 113l-8 -38l-143 -87l106 -88l-8 -35z" />
<glyph unicode="&#x203a;" horiz-adv-x="294" d="M96 151l8 35l141 88l-104 87l8 38l140 -113l-6 -25z" />
<glyph unicode="&#x205f;" horiz-adv-x="218" />
<glyph unicode="&#x2122;" horiz-adv-x="789" d="M778 347l58 275l-203 -275h-33l-92 279q-18 -90 -57 -279h-40l64 303h-103l-64 -303h-40l64 303h-148l7 34h341l95 -285l213 285h50l-71 -337h-41z" />
<glyph unicode="&#xe000;" horiz-adv-x="490" d="M0 490h490v-490h-490v490z" />
</font>
</defs>
</svg>
