<?xml version="1.0" standalone="no"?>
<!DOCTYPE svg PUBLIC "-//W3C//DTD SVG 1.1//EN" "http://www.w3.org/Graphics/SVG/1.1/DTD/svg11.dtd" >
<svg xmlns="http://www.w3.org/2000/svg">
<metadata></metadata>
<defs>
<font id="junebugregular" horiz-adv-x="589" >
<font-face units-per-em="1000" ascent="800" descent="-200" />
<missing-glyph horiz-adv-x="500" />
<glyph horiz-adv-x="1000" />
<glyph horiz-adv-x="1000" />
<glyph unicode="&#xd;" horiz-adv-x="500" />
<glyph unicode=" "  horiz-adv-x="500" />
<glyph unicode="&#x09;" horiz-adv-x="500" />
<glyph unicode="&#xa0;" horiz-adv-x="500" />
<glyph unicode="!" horiz-adv-x="451" d="M409 746q-7 -25 -22 -89q-37 -172 -52 -295q-6 -50 -15 -96q-4 -13 -45 -11q-17 1 -62.5 3.5t-101.5 22.5q-23 91 -53 241l-47 229q1 -2 3 32q13 10 24 11q50 4 183 8q100 3 177 -8q7 -1 11 -21q2 -18 0 -27zM361 128q72 -48 72 -133q0 -65 -41.5 -115.5t-105.5 -59.5 q-6 -3 -19 -8q-28 -7 -49 -7q-7 0 -20 -1.5t-20 -1.5q-43 0 -84 24q-44 24 -62 61q-11 23 -21.5 69t-8.5 70q3 44 53 95q46 46 92 62q23 4 69 14q2 -5 41 -10q25 -3 55 -24q16 -12 49 -35z" />
<glyph unicode="&#x22;" horiz-adv-x="691" d="M325 637q-3 -4 -4 -14q1 -9 1 -17q0 -61 -62 -124q-49 -50 -116 -84q-8 -9 -22 -9q-24 0 -31 18q1 6 13 46q8 29 8 47q0 16 -7 30q-18 7 -33 11q-71 20 -71 87q0 57 27 106q32 57 83 63q3 2 9 5q14 3 28 3q62 0 115 -44q40 -34 62 -124zM671 602q-3 -5 -4 -15q1 -8 1 -17 q0 -60 -62 -124q-49 -50 -116 -84q-8 -8 -21 -8q-24 0 -31 18q1 13 11 46q9 29 9 46t-6 30q-20 7 -34 11q-70 19 -70 87q0 58 27 106q31 58 83 64q2 1 8 5q14 2 28 2q136 0 177 -167z" />
<glyph unicode="$" horiz-adv-x="592" d="M565 275q6 -43 -4 -76q-5 -8 -13 -24q-8 -33 -47 -67q-35 -31 -71 -45q-47 -18 -115 -18q-42 0 -81 7q-111 20 -172 69q6 47 16 114q5 33 6 64q5 7 19 7q12 0 37.5 -5t35.5 -6q29 -2 42 -2q-3 0 28 9q3 1 10 5q8 39 -92 83q-75 33 -120 76q-12 11 -24 48q-1 3 -1 8 q0 11 12 43q25 66 98 95q43 17 125 23q24 2 44 1q66 -2 119 -6q12 -1 37 -6l34 -10q17 -6 25 -19q3 -5 6 -55q6 -88 5 -92q2 -15 -1 -42q-5 -12 -20 -12q-11 0 -27.5 6.5t-30.5 12.5q-55 19 -79 19l-4 -4q41 -45 122 -88q71 -38 81 -113zM250 746h106l5 -70l-112 -15z M271 72h128l1 -112h-128z" />
<glyph unicode="%" horiz-adv-x="650" d="M627 714q0 -8 -8 -30q-11 -30 -15 -45q-11 -38 -128 -379q-17 -51 -59 -181q-31 -94 -81 -235q-1 -38 -38 -38q-56 0 -104 57q-24 28 -62 42q-11 9 -31 28q9 42 21 89q25 96 83 308q25 93 88 288q14 32 35 95l8 40q18 52 44 52q6 0 18.5 -3.5t18.5 -3.5q21 -3 58 -18 t56 -18q22 -7 79 -25q17 -5 17 -23zM280 623q-12 -36 -52 -62.5t-80 -28.5q-13 -4 -27 -4q-49 0 -80.5 37t-31.5 87q0 54 32.5 97.5t84.5 50.5q33 4 72 -18q34 -20 56 -50q10 -13 18.5 -44.5t8.5 -50.5q0 -9 -1 -14zM690 -88q-12 -38 -58 -65q-39 -23 -74 -26q-12 -3 -26 -3 q-49 0 -81 37t-32 87q0 53 33.5 97t84.5 51q32 4 72 -18q34 -20 56 -50q10 -13 18.5 -44.5t8.5 -50.5q0 -9 -2 -15z" />
<glyph unicode="&#x26;" horiz-adv-x="792" d="M778 -58q-22 -47 -33 -79q-5 -14 -15 -51q-2 -7 -14 -9q-8 -1 -72 23q-86 33 -139 100q-123 -105 -208 -112q-51 -4 -85 1q-125 19 -178 103q-7 12 -19 41q-15 38 -15 55v80q0 19 13 64q32 113 96 184q47 53 93 78q-61 56 -64 127q-2 61 25 115.5t78 88.5q66 45 193 49 q58 2 107.5 -27t75 -80t25.5 -112t-44 -128q-39 -59 -67 -63q-1 -19 10 -56q16 -55 21 -77q3 -1 6 -4q13 13 76 55q22 15 35 4q8 -6 14 -29q4 -15 34 -103q19 -56 23 -99q-34 -19 -55 -78q15 -12 19 -14q59 -20 64 -47zM378 493q40 5 40 40q0 23 -16.5 42.5t-39.5 17.5 q-19 -1 -30.5 -17.5t-11.5 -36.5q0 -34 35 -41q24 -5 23 -5zM367 101q-17 28 -41 71q-31 -20 -31 -50q0 -22 72 -21z" />
<glyph unicode="'" horiz-adv-x="353" d="M325 637q-3 -4 -4 -14q1 -9 1 -17q0 -61 -62 -124q-49 -50 -116 -84q-8 -9 -22 -9q-24 0 -31 18q1 6 13 46q8 29 8 47q0 16 -7 30q-18 7 -33 11q-71 20 -71 87q0 57 27 106q32 57 83 63q3 2 9 5q14 3 28 3q62 0 115 -44q40 -34 62 -124z" />
<glyph unicode="(" horiz-adv-x="461" d="M440 29q4 -10 -24 -90q-18 -52 -25 -88q-4 -23 -5 -24q-7 -23 -26 -23q-14 0 -35 9l-40 17q-101 43 -182 139q-87 104 -91 207q-8 46 -10 86q-3 53 14 119q29 114 86 214q9 12 33 43q90 122 183 145q9 2 39 12q27 9 36 9q24 0 26 -33q0 -11 5 -53q3 -28 3 -55 q0 -22 -3 -41q2 -11 2 -28q0 -16 -2 -38q-27 -21 -47 -41q-42 -41 -51 -61q-10 -13 -26 -41q-34 -96 -30 -131q5 -11 14 -35q28 -117 115 -181q15 -11 41 -37z" />
<glyph unicode=")" horiz-adv-x="460" d="M2 29q-6 -10 23 -90q19 -52 25 -88q4 -23 5 -24q7 -23 26 -23q14 0 35 9l40 17q101 43 182 139q87 104 92 207q5 29 10 86q0 59 -15 119q-29 114 -85 214q-17 20 -34 43q-90 122 -183 145q-6 1 -38 12q-27 9 -37 9q-25 0 -26 -33q-1 -13 -4.5 -51.5t-3.5 -56.5 q0 -22 3 -41q-1 -11 -1 -28q0 -16 1 -38q22 -16 47 -41q44 -44 77 -102q34 -96 30 -131q-4 -9 -13 -35q-31 -118 -116 -181q-15 -11 -40 -37z" />
<glyph unicode="*" horiz-adv-x="559" d="M537 307q0 -11 -27 -42l-47 -54q-11 -20 -37 -57q-14 -3 -25 -1q-26 27 -38 38q-26 24 -40 26q-31 -25 -81 -66q-15 -16 -31 -32q-23 -22 -34 -21q-6 1 -35 31l-34 36q-15 9 -41 27q-3 3 -3 8q0 4 9 31q15 44 69 87l4 15q-13 16 -39 31q-22 13 -49 29q-38 27 -57 52 q-7 9 0 20l2 3q15 26 56 91q13 20 29 20q21 0 65 -31q50 -35 66 -40q1 1 46 71q25 38 39 37q49 -5 185 -46q2 -25 -25 -77l-45 -86q63 -47 65 -49q52 -41 53 -51z" />
<glyph unicode="+" horiz-adv-x="661" d="M642 225q0 -6 -11 -11t-17 -3q-38 11 -121 8q3 -26 14 -81q10 -48 6 -73q-9 -6 -38 -9q-20 -2 -47 -6q-85 -23 -186 -48q-3 -1 -9 1.5t-8 2.5q-3 17 -9 107q-5 66 -18 91q-21 0 -62 -4t-62 -4q-29 0 -57 6q-7 2 -16 12q16 91 27 185q1 6 2 53q9 7 30 7q22 0 54 -7 q5 -1 55 -6q6 9 6 23q-1 37 0 60q0 51 2 75q3 11 28 11t63 2q101 5 163 19q11 -8 12 -34v-20.5v-20.5q1 -55 1 -64q0 -19 -1 -43q-1 -19 -1 -23h29q12 0 15.5 0.5t0.5 1.5l88 -11q22 -3 29 -4q18 -3 19 -9q5 -27 19 -184z" />
<glyph unicode="," horiz-adv-x="347" d="M322 39q-2 -4 -4 -14q2 -8 2 -17q0 -57 -60 -120q-52 -55 -119 -88q-8 -8 -21 -8q-24 0 -31 17q1 14 10.5 45t9.5 48q0 16 -6 30q-15 6 -34 11q-70 19 -70 87q0 56 27 106q32 58 83 64q3 1 8 5q14 2 28 2q64 0 115 -43q41 -34 62 -125z" />
<glyph unicode="-" d="M560 205q-6 -4 -17 -9q-60 -3 -214 -16q-37 -6 -111 -19q-89 -15 -150 -15q-20 0 -38 1t-19 45q0 13 -1 40q-9 147 -6 174q28 22 119 26l126 8q94 5 175 5h85q3 1 7 5q13 -10 16 -39q1 -13 3 -38q6 -49 25 -168z" />
<glyph unicode="." horiz-adv-x="335" d="M305 -48q-1 -51 -34 -96q-37 -49 -86 -49q-6 0 -13 1q-66 0 -109 29q-50 33 -50 95q0 57 42 106t98 49q49 0 101 -43.5t51 -91.5z" />
<glyph unicode="/" horiz-adv-x="635" d="M627 714q0 -8 -8 -30q-11 -30 -15 -45q-11 -38 -128 -379q-17 -51 -59 -181q-31 -94 -81 -235q-1 -38 -38 -38q-22 0 -46 11q-74 34 -220 88q-11 9 -31 28q9 42 21 89q25 96 83 308q25 93 88 288q14 32 35 95l8 40q18 52 44 52q6 0 18.5 -3.5t18.5 -3.5q72 -9 214 -36 q22 -7 79 -25q17 -5 17 -23z" />
<glyph unicode="0" horiz-adv-x="928" d="M905 264q9 -126 -81 -267q-98 -153 -230 -171q-31 -10 -109 -20q-208 -4 -318 95q-54 48 -94 126q-31 60 -47 134q-27 77 -27 156q0 94 32 186q16 47 47 100q41 71 83 108q98 86 260 92q27 1 64 -1q13 -3 72 -17q10 -8 31 -21q69 -32 103 -54q23 -19 83.5 -65t86.5 -96 q16 -31 32 -95q6 -24 8 -87q3 -86 4 -103zM537 419q-43 -13 -100 -79q-44 -50 -48 -128q-1 -17 3 -28q5 -16 20 -12q4 -1 8 -1q20 0 47 17q21 13 36 50q43 103 43 140q0 24 -9 41z" />
<glyph unicode="1" horiz-adv-x="572" d="M547 735q0 -59 -12 -176l-13 -111v-90q0 -15 -3.5 -44.5t-3.5 -43.5q-3 -129 -20 -453q-16 -15 -32 -12q-69 12 -248 42q-74 11 -90 27q0 29 3 134.5t3 159.5v168q-11 2 -43 -15.5t-45 -17.5q-43 0 -43 72v200q0 36 31 59q22 16 70 32q53 18 72 29q66 39 134 100 q10 9 30 9q15 0 92 -21q25 -10 83 -30q9 -2 19 -3q15 -4 16 -15z" />
<glyph unicode="2" horiz-adv-x="651" d="M635 221q1 -17 -4 -48q-3 -15 -7 -47q-5 -58 -19 -210q-57 -22 -99 -33q-65 -17 -178 -41q-132 -27 -178 -38q-11 -3 -37 5q-19 49 -69 137q-10 15 -26 40q-4 7 19 54q56 115 102 218q20 51 50 153q1 6 1 12q0 33 -47 33q-34 0 -86 -34q-20 -13 -30 -13q-11 0 -26 11 q0 35 5.5 105t5.5 105q0 38 -5 68q1 9 13 19q45 36 76 48q92 35 176 35q164 0 243 -117q51 -75 51 -131v-107q0 -58 -79 -220q15 -2 52 3q32 4 51 4q29 0 45 -11z" />
<glyph unicode="3" horiz-adv-x="676" d="M650 229q6 -26 6 -51q0 -81 -47 -165q-44 -78 -112 -132q-98 -78 -241 -78q-128 0 -199 66q14 60 23 155v95q0 4 -2 11q-2 8 0 13q4 12 25 16q17 4 32 1q38 -8 80 -5q10 1 23 2q17 4 22 13q8 14 8 29q0 33 -31 60q-26 23 -61 32q-28 3 -87 11q3 32 24 103q27 90 33 117 q-13 2 -52 -8q-46 -12 -57 -13q-9 -1 -22 3.5t-14 12.5q11 56 34 166q0 15 2 45t20 62q5 9 57 11q38 1 117 -9q93 -12 118 -12q29 -5 83 -11q49 2 139 0q14 0 24 -15q-1 -64 -47 -174q-59 -142 -64 -158q94 -38 141 -109q8 -13 25 -84z" />
<glyph unicode="4" horiz-adv-x="745" d="M710 -31q4 -32 4 -58q0 -40 -9 -65q-44 -20 -71 -21q-5 -1 -144 -13q-112 -10 -170 -8q-19 16 -17 44q2 26 2 28q0 26 6 74q7 53 9 76q-101 -1 -251 5q-27 5 -36 7q-19 5 -32 18q0 -48 6 27q4 45 13 171q8 114 9 128q16 152 36 259q4 30 20 109q4 17 33 20q44 4 158 18 q98 13 130 13q21 0 37 -2q13 -14 7 -49q-8 -46 -27 -165q-22 -149 -42 -200q0 -11 -1 -37l6 -2q5 -1 8 0q5 2 8 8q2 27 7 81q5 47 21 80q7 14 71 29q25 6 88 28.5t91 26.5q16 -23 19 -70q1 -61 9 -182q8 -66 8 -114q0 -40 -3 -94l-3 -60v-110z" />
<glyph unicode="5" horiz-adv-x="667" d="M644 271q5 -24 5 -37q0 3 -7 -43q-9 -58 -60 -135q-45 -67 -97 -113q-63 -56 -143 -95q-95 -47 -164 -44q-23 1 -44 50q-11 35 -23 69q-37 98 -37 101q0 26 71 54q32 13 54 38q25 29 25 61q0 10 -4 22q-22 65 -101 104q-30 11 -109 41q-9 3 -9 17q0 -9 7 42q4 41 19 145 q8 43 28 156q2 14 6 42.5t15.5 38.5t40.5 11q-32 -1 50 -1q11 0 150 -4q85 -2 150 1q75 12 86 10q21 -4 24 -46q1 -14 1 -58v-104q-1 0 -4 -14q-1 -7 -70 -36q-38 -16 -127 -31q-5 -4 -5 -16q0 -1 -1 -3v-4q45 3 99 -15.5t90 -47.5q48 -39 76 -106q1 -17 8 -50z" />
<glyph unicode="6" horiz-adv-x="850" d="M835 122q-2 -56 -14 -84l-16 -52q-12 -39 -34 -59q-41 -38 -116 -73q-84 -40 -137 -37q-4 0 -17.5 -3t-18.5 -3q-22 -1 -50 -6q-22 -4 -37 -4q-46 0 -118 27q-114 43 -143 63q-48 33 -106 126q-11 17 -19 67q-7 43 -7 71q0 89 5 126q6 43 31 121q58 180 227 306 q32 24 126 84q17 11 41 11q11 0 14 -5q37 -53 116 -154q20 -22 41 -42q-19 -23 -76 -67q-41 -32 -51 -69q60 -16 177 -51q110 -37 159 -129q28 -52 23 -164zM433 64q3 7 3 17q0 22 -17 49t-38 30l-20 -49q45 -49 72 -47z" />
<glyph unicode="7" horiz-adv-x="665" d="M654 693q0 -28 -25 -112l-41 -140q-6 -15 -16 -41q2 -4 1 -15q-14 -42 -44 -133q-37 -113 -49 -177q-11 -74 -40 -219q-6 -23 -22 -42q-5 -6 -17.5 -9t-20.5 -1q-45 14 -161 48q-66 19 -113 52q11 78 59 367q2 10 22 80q17 58 18 92q-34 5 -94 3l-94 -4q-8 4 -16 15 q-1 21 10 69q7 27 19 80q19 96 31 137l17 60q146 -15 349 -49q23 -4 57 -19q19 -9 65 -12q51 -4 68 -9q9 -1 30 -9q3 -4 7 -12z" />
<glyph unicode="8" horiz-adv-x="740" d="M734 161q0 -94 -66 -197q-17 -27 -73 -67q-48 -35 -86 -54q-75 -37 -176 -37q-12 0 -65 2q-61 2 -142 63q-79 58 -105 116q-20 44 -20 96q0 78 42 154q38 70 102 124q-47 46 -65 73q-29 43 -26 95q6 120 167 238q30 12 60.5 24t64.5 12q37 0 86 -13q41 -12 83 -24 q83 -23 135 -92.5t52 -155.5q0 -97 -67 -169q35 -19 50 -35q19 -19 32 -51q17 -48 17 -102zM384 562q-29 -30 -29 -80q0 -13 2 -20.5t22 -12.5q29 29 29 69q0 30 -24 44zM382 70q42 26 42 78q0 57 -52 66q-19 -21 -28 -85q-7 -46 16 -61q9 -6 22 2z" />
<glyph unicode="9" horiz-adv-x="851" d="M834 458q1 -24 1 -47q0 -98 -36 -207q-60 -181 -228 -306q-83 -61 -125 -84q-17 -9 -43 -9q-10 0 -13 3q-37 51 -73 103q-44 58 -84 94q15 17 75 64q42 32 52 72q-61 16 -181 52q-108 36 -155 128q-27 53 -23 164q2 53 15 84q10 33 48 110q7 10 33 26q106 68 164 80 q26 6 72 9q52 4 72 7q26 4 39 4q49 0 116 -26q115 -45 144 -64q54 -36 104 -126q22 -39 26 -131zM475 495q0 11 -26.5 29t-40.5 22q-7 -10 -7 -23q0 -23 16.5 -47t38.5 -29q7 17 19 48z" />
<glyph unicode=":" horiz-adv-x="335" d="M305 472q-1 -51 -34 -96q-37 -49 -86 -49q-6 0 -13 1q-66 0 -109 29q-50 33 -50 95q0 58 41.5 106.5t98.5 48.5q49 0 101 -43.5t51 -91.5zM302 166q0 -41 -40 -86q-47 -53 -103 -58q-37 -12 -84 6q-76 29 -76 117q0 64 39 110q29 34 84 33q63 -1 109 -23q71 -34 71 -99z " />
<glyph unicode=";" horiz-adv-x="309" d="M272 370q-11 -36 -53 -63q-38 -25 -79 -28q-13 -3 -26 -3q-49 0 -81 37t-32 87q0 54 33 97t85 51q31 5 71 -19q35 -20 57 -49q10 -13 18.5 -45t8.5 -50q0 -9 -2 -15zM260 186q19 -30 19 -65q0 -40 -22.5 -74.5t-58.5 -53.5q-39 -21 -74 -21q-20 0 -33 9q-2 5 7 25 q15 32 18 47l-46 6q-70 19 -70 76q0 46 39 79t87 35q66 3 95 -15q14 -8 39 -48z" />
<glyph unicode="&#x3c;" horiz-adv-x="585" d="M569 174q8 -16 -36 -40q-11 -6 -35 -18q-6 -3 -119 -60q-32 -23 -64 -47q-45 -30 -68 -31q-7 0 -25 21q-31 35 -64 80q-46 68 -138 203q-17 25 -19 42q-2 13 17 34q13 14 28 31q66 109 158 201q13 16 72 72q3 2 7 2q6 0 21 -8t20 -13l47 -22q49 -20 149 -57q1 -1 8 -11 q-14 -25 -74 -101q-54 -69 -68 -105q37 -45 93 -92q63 -53 90 -81z" />
<glyph unicode="=" horiz-adv-x="558" d="M479 435q-91 -22 -320 -78q-33 -9 -122 -30q-5 0 -26 2q-5 9 -7 29q-2 16 -4 34v149q0 19 9 22q70 26 117 30q71 6 141 24q51 14 176 46q8 1 16 -6q25 -104 25 -179q0 -28 -5 -43zM564 124q-2 -8 -7 -12q-27 -6 -81 -19q-55 -4 -108 -15q-97 -19 -163 -25q-58 -5 -120 -9 q-11 0 -41 -1q-13 7 -15 27q-1 3 -1 35q0 17 -3 50t-3 50q0 34 3 38q7 11 52 16q60 7 111 16q58 10 209 42q30 7 108 25q3 1 25 -1q11 -15 14 -40q8 -59 20 -177zM136 -197z" />
<glyph unicode="&#x3e;" horiz-adv-x="601" d="M590 341q-16 -20 -54 -82q-41 -67 -56 -88q-43 -61 -136 -172q-12 -19 -44 -66q-3 -5 -27 -8q-130 72 -272 198q-3 13 0 18q28 50 81 107l87 94q-23 26 -75 72q-78 68 -78 84q0 1 15 27q24 41 85 147q7 13 24 33q7 6 23 0q110 -42 232 -166q90 -91 127 -117 q77 -54 68 -81z" />
<glyph unicode="?" horiz-adv-x="673" d="M679 591q-2 -17 -26.5 -44t-42.5 -37q-14 -8 -37 -29.5t-36 -29.5q-84 -50 -84 -144q0 -9 14 -114q-6 -6 -21 -13q-55 -2 -124 13q-32 7 -53 7h-37q-13 -3 -40 -6q-27 14 -22 48q0 5 2 15t2 15q0 84 147 208q8 7 7 18q-3 7 -12 7q-60 2 -156 -46q-10 0 -37 -15t-39 -15 q-18 0 -23.5 18t-8.5 34q-8 48 -23 126q-13 40 -28 117q-1 6 16 14q31 15 113 39q67 11 146 19q19 1 70 6q37 5 130 -6q65 -7 133 -66q72 -62 72 -124q0 -7 -2 -15zM502 -71q-34 -57 -86 -90q-56 -36 -119 -36q-65 0 -128 48q-67 52 -67 115q0 8 6 43q1 25 36 59 q30 29 58 41q72 30 104 31q30 1 44 -3q22 -6 79 -23q37 -19 61 -58.5t24 -81.5q0 -25 -12 -45z" />
<glyph unicode="@" horiz-adv-x="968" d="M951 377q-6 -42 -31 -138q-23 -62 -78 -108q-13 -11 -45.5 -21.5t-51.5 -11.5q-41 -1 -80 9q-11 3 -75 24q-1 1 -19 15q-56 -32 -123 -32q-81 0 -119 48q-23 29 -24 85q-1 33 30 87q25 43 52 73q41 44 101 71.5t119 27.5q50 0 63 -26q8 -19 3 -70q-2 -23 -9 -82 q15 -10 39 -4q17 4 30 42q10 31 10 54q0 34 -33 92.5t-62 68.5q-50 18 -139 -19q-70 -28 -125 -70q-67 -51 -113 -122q-52 -81 -52 -156q0 -65 44 -113q28 -30 42 -39q4 -3 30 -11q44 -13 98 0q28 7 32 4q13 -8 15 -27v-31q0 -8 9 -66q2 -10 11 -43q7 -27 6 -45 q-1 -6 -39 -28q-22 -13 -111 -13q-135 0 -234 87q-42 37 -74 108q-30 65 -38 126q-9 70 -9 80q1 121 47.5 236t128.5 205q45 41 110 81q72 44 124 58q49 12 210 19q185 8 281 -116q2 -2 36 -64q30 -55 30 -126q0 -43 -17 -119z" />
<glyph unicode="A" horiz-adv-x="905" d="M907 -64q-5 -5 -18 -20q-20 -3 -73 -14q-13 -3 -85 -24q-8 -2 -97 -37q-76 -30 -116 -37q-10 14 -37 66q-23 44 -45 60q-38 -5 -64 -5q-17 0 -52 2.5t-53 2.5q-4 -21 -12 -61.5t-27 -40.5q-4 0 -9 2q-42 16 -106 50q-47 25 -73 30q-2 3 -23 22q-16 14 -16 25q2 51 16 92 q26 68 85 244q16 59 58 212q20 69 41 117q5 10 44 40q8 9 27 25q61 41 188 116q3 1 7 1q18 0 30 -15q9 -12 26 -48q23 -49 24 -54q23 -37 81 -136q11 -23 44 -84q72 -128 108 -207q28 -62 66 -161q16 -43 61 -150q3 -6 0 -13zM388 195q-17 44 -52 114q-9 -48 -21 -129 q-6 0 22 3l28 2q18 2 23 10z" />
<glyph unicode="B" horiz-adv-x="919" d="M896 584q8 -26 8 -55q0 -103 -106 -240q24 -17 59 -45q32 -34 32 -81q0 -83 -83 -179q-98 -114 -388 -154q-173 -24 -256 -25l-87 -1q-24 1 -58 13q-6 60 -9 163q-2 55 -5 165l-3 474q0 10 1 60q0 38 10 59q2 5 38 15q19 5 58 14q247 29 289 31q77 3 74 3 q363 -10 426 -217zM486 475q-11 1 -21 1q-18 0 -35 -4q0 -14 2 -41t2 -41q13 10 37.5 29.5t24.5 36.5q0 10 -10 19zM525 87q0 18 -18.5 31.5t-37.5 13.5q-12 0 -23 -6q3 -25 3 -72q34 4 35 4q23 3 32 10t9 19z" />
<glyph unicode="C" horiz-adv-x="831" d="M825 702q-70 -109 -167 -283q-1 -1 -23 -66q-5 -5 -12 -5t-28 15t-29 17q-16 5 -29 5q-37 0 -56 -33q-17 -27 -17 -66q0 -53 26 -87q16 -21 41 -21q14 0 41 9q18 6 42 13q12 0 18 -15q28 -68 79 -245q9 -30 6 -43q-2 -9 -50 -35q-14 3 -46 -12l-43 -20q-97 -25 -207 -25 q-5 0 -61 18q-35 11 -74 32q-110 58 -174 182q-59 115 -59 247q0 109 41 185q126 233 307 299q54 20 149 35h87q140 -14 229 -76q11 -8 9 -25z" />
<glyph unicode="D" horiz-adv-x="978" d="M959 447q7 -31 7 -71q0 -58 -15 -111q-8 -29 3 -32q-12 -15 -28 -49q-11 -23 -26 -53q-23 -39 -109 -128q-46 -47 -194 -128q-35 -10 -72 -21q-32 -10 -165 -30q-151 -23 -173 -23q-51 0 -122 18q-34 9 -38 28q-8 37 -12 234q-1 45 0 122q2 167 -8 395q1 -11 2 50 q0 32 -7 55q0 10 9 15q57 10 70 21q37 7 189 37q128 26 199 27q79 2 194 -29q84 -22 120 -41q54 -27 94 -82q52 -72 82 -204zM494 302q-3 25 -48 40q-33 10 -67 10q8 -50 26 -134q24 8 54 35t35 49z" />
<glyph unicode="E" horiz-adv-x="845" d="M828 -161q-4 -7 -12 -13q-49 -7 -174 -18q-93 -5 -218 0q-19 1 -395 27q1 7 -19 16l-7 354q-1 72 0 268v124q1 87 7 142q2 14 28 18q16 1 33 3q63 17 107 19q27 1 107 7l19 1q42 3 51 3h170q-21 0 29 3.5t64 3.5q8 0 25 -1.5t25 -1.5q18 0 52.5 4.5t52.5 4.5q48 0 48 -34 q0 -10 -4 -25l3 -198q0 -9 -7 -19q-52 -12 -142 -26l-90 -8l-32 -3q-70 -6 -85 -17q3 -9 3 -43q1 -1 5 -3q44 1 116 11q22 6 79 17q17 3 23 0q12 -6 14 -19v-19q6 -48 17 -143q-3 -5 -9 -13q-23 -7 -65 -19l-75 -14q-61 -12 -92 -27q3 -16 2 -45q24 -4 52 -4q27 0 81 6t81 6 q100 0 102 -35q-1 -8 -2 -25t3 -48q4 -34 4 -49q0 -60 25 -168z" />
<glyph unicode="F" horiz-adv-x="704" d="M695 461q2 -13 -9 -18q-14 0 -42 -4q-12 -4 -99 -19q-53 -9 -84 -24v-7q-1 -8 -1 -16v-25q2 -13 6 -17q4 0 21 3q43 7 87 0q16 0 33 -5q7 -7 12 -64q2 -14 10 -68q6 -41 6 -69q0 -27 -2 -33q-5 -15 -27 -16q-13 0 -37 -1q-29 -4 -105 -15q-4 -11 -4 -39q0 -12 1.5 -36 t1.5 -36q0 -36 -6 -56q-84 -12 -137 -24q-27 -10 -112 -33q-13 -6 -53 -20q-25 -9 -56 -16q-5 0 -16 17q-20 7 -25 51q-7 66 -10 103q-11 149 -46 696q-1 17 14 23q3 1 30 5q7 1 98 23q12 0 36 1q20 6 72 20q80 19 165 29q31 2 91 8q77 8 125 24q21 -9 28 -66q9 -77 34 -276 z" />
<glyph unicode="G" horiz-adv-x="943" d="M920 378q-1 -3 -2 -9q11 -27 11 -74q0 -29 -9 -104q-11 -92 -67 -188q-63 -107 -153 -157q-12 -7 -72 -22q-86 -22 -154 -22q-66 0 -146 21q-43 11 -137 76q-109 75 -153 197q-27 75 -36 198q-2 28 -2 51q0 47 25 130q5 18 49 81q64 92 179 163q122 75 228 79q18 1 55 4 q35 2 58 -1q79 -11 124 -25q79 -24 113 -68l-66 -127q-30 -60 -59 -132q-5 -12 -22 -19q-15 -2 -23 9q-29 41 -99 57q-13 3 -28 3q-68 0 -111 -67q-37 -59 -37 -130q0 -60 28 -98q31 -42 89 -42q20 0 43 5q2 11 2 21q0 15 -4 28q-35 1 -71 3q-36 6 -36 47q0 12 4 53 q1 5 0 14q-2 14 -2 16q0 25 23 35q11 5 30 6q24 1 30 2h255q19 -3 54 4q40 8 54 8q32 0 35 -26z" />
<glyph unicode="H" horiz-adv-x="1003" d="M978 547q-7 -78 -19 -301q-4 -120 0 -173q3 -22 15 -101q3 -23 -2.5 -33.5t-114.5 -42.5q-63 -17 -126 -35q-31 -10 -89 -26q-1 -1 -45 -18q-32 -12 -47 -9q-4 5 -10 13l-26 257q-12 0 -35 -1.5t-35 -1.5q11 -100 25 -250q-6 -8 -23 -18q-25 -3 -186 -3q-126 0 -189 10 q-39 6 -47 43l-4 56v117q0 14 -5 43t-5 43v110q0 31 -3.5 94t-3.5 94q0 50 4 97l-4 196q0 6 -3 18.5t-3 18.5q0 25 34 37q11 4 49 4q44 1 55 3q77 13 151 12l134 -1q3 -2 10 -13q26 -182 30 -336q15 -3 54.5 10t57.5 10q1 9 8 41q5 27 5 39v118q0 13 2 37.5t2 37.5 q17 14 45 14q5 0 51 -5q12 -2 19 -2q21 -1 69 -10q25 -5 91 -18q30 2 92 1q6 0 16 -10q0 -2 4 -79q3 -69 2 -87z" />
<glyph unicode="I" horiz-adv-x="496" d="M466 -33q5 -40 -4 -66q-3 -9 -20 -14q-47 -14 -122 -29q-18 -3 -63 -10q-18 -1 -56 -7q-105 -35 -139 -35q-32 0 -42 18v199q0 37 -3.5 111.5t-3.5 111.5v118q0 111 -9 239q-6 84 0 153q16 18 33 35q5 5 17 8l80 3q93 4 159 -3q19 -2 31 -2q15 0 44 3t44 3q38 0 38 -35 v-182l2 -48q2 -48 2 -68l-1 -277q-2 -29 -2 -37q2 -80 15 -189z" />
<glyph unicode="J" horiz-adv-x="606" d="M577 351q2 -24 2 -56q0 -143 -31 -279q-23 -102 -185 -194q-11 -6 -42 -8q-22 -5 -54 -9q-63 -8 -182 25q-29 12 -81 34q0 33 16 129q21 129 46 202q5 14 31 14q6 0 23.5 -12.5t26.5 -12.5q22 0 30 32q1 8 4 48q5 67 -24 262q-11 70 -24 123q-11 43 -11 39q0 8 4 16 q12 17 42 22q56 9 206 51q10 3 39 16q26 12 37 12q24 0 39 -35q3 -10 16 -55q14 -40 46 -143q12 -41 18 -109z" />
<glyph unicode="K" horiz-adv-x="978" d="M966 710q-75 -159 -81 -170q-47 -96 -92 -163q-3 -6 -3 -12q0 -4 21 -45q32 -62 110 -210q8 -14 -1 -22l-195 -168q-63 -54 -105 -83q-1 -2 -4 -2q-8 0 -46 32q-20 17 -92 88q-22 22 -51 24q6 -22 20 -103q3 -16 8 -55q-2 -6 -13 -14q-9 -3 -46 2q-33 1 -136 18 q-31 1 -93 4l-60 18q-41 12 -61 30q0 14 -4 45v107q0 159 -15 376q2 11 4 35q-8 173 -29 291q1 -4 2 16q5 3 12 6q238 7 377 47q5 1 20 -11l3 -51q-2 -33 -2 -61q0 -29 6 -78q6 -55 7 -77q0 -1 5 -6q25 33 58 97q39 73 56 100q4 6 14 37q13 40 57 32q54 -10 194 -37 q86 -5 145 -4q10 -3 12 -14q2 -10 -2 -19z" />
<glyph unicode="L" horiz-adv-x="693" d="M676 290q0 -21 -14 -246q-2 -31 1 -75q4 -59 4 -75q0 -25 -4 -51q-2 -10 -38 -17q-62 -12 -112 -14q-204 -7 -355 -7q-10 0 -27 2q-20 3 -27 3q-29 2 -31 3q-22 2 -27 15q-1 9 -9 151q-5 88 -14 143q2 27 -2 203q-4 189 -13 329q-7 107 -7 106q0 12 22 26q9 6 39 8 q27 2 74 -4h134q8 0 89 9q47 5 71 3q10 -1 13 -16q25 -107 31 -231q3 -71 8 -212l97 2q59 1 84 -3q10 -2 13 -13q3 -7 2 -21q-2 -23 -2 -18z" />
<glyph unicode="M" horiz-adv-x="1052" d="M999 -25q-86 -43 -107 -52q-60 -28 -111 -41q-32 -8 -91 -45q-53 -33 -71 -33q-15 22 -38 106q-29 106 -41 137q-49 -104 -83 -174q-9 -17 -22 -36q-5 -6 -34 -4q-32 43 -88 172q-4 -18 -8 -62q0 -68 1 -94q-2 -4 -6 -13q-14 -4 -33 -4t-42 3q-35 5 -44 5q-69 3 -157 10 q-19 1 -23 50v62q-1 38 0 99q0 23 1 41q0 15 1 22q0 6 0 2v105q0 29 5 84q6 63 7 86q7 184 7 247v124q0 27 97 32q-16 -1 117 -1h115q24 0 32 -17l80 -182l42 105q0 1 12 41q7 23 16 26q70 23 177 23q18 0 70 2q45 2 71 1q11 -7 13 -16q90 -461 164 -692q1 -18 5 -39 q8 -47 8 -40q0 -19 -42 -40z" />
<glyph unicode="N" horiz-adv-x="909" d="M858 -104q-14 -5 -42 -14q-42 -15 -153 -33q-26 -4 -67 -19q-33 -13 -66 -25q-22 -8 -30 -1q-13 14 -28 42q-22 41 -27 49q-13 20 -74 110q-5 -23 -6 -81q-2 -74 -3 -92q-1 -11 -9 -16q-4 -2 -12 -2q-18 0 -147 43q-67 22 -183 68q-6 3 -6 16q0 40 3 78q1 5 0 16 q-1 12 -1 18q0 23 -3 63q-3 45 -3 64q-1 55 0 100l2 102l-3 252q5 43 14 133q76 6 151 13q86 9 150 22q25 5 41 -7q20 -49 66 -117l76 -111q16 76 28 189q26 19 35 18q54 -12 170 -29q41 1 119 -2q23 -3 23 -32q0 -11 -3 -28v-149q0 -363 5 -459q3 -19 8 -56 q0 -12 3.5 -36.5t3.5 -36.5q0 -15 -3 -28t-29 -22z" />
<glyph unicode="O" horiz-adv-x="924" d="M898 236q-23 -120 -39 -162q-26 -68 -92 -138q-76 -81 -143 -101q-33 -10 -67 -21q-39 -10 -69 -8q-301 -7 -409 195q-80 150 -80 235q0 14 2 28q2 70 5 122q6 116 58 188q40 55 151 136q36 26 60 40q49 23 74.5 35.5t71.5 17.5q16 2 53.5 -1t52.5 -3q125 0 221 -90 q83 -78 127 -206q30 -87 30 -186q0 -44 -7 -81zM517 213q0 68 -44 125q-41 54 -107 81q-5 -17 -5 -37q0 -45 37 -128q23 -51 41 -66q22 -18 45 -18q8 0 16 2q14 6 15.5 17t1.5 24z" />
<glyph unicode="P" horiz-adv-x="957" d="M956 467v-35q2 -12 2 -25q0 -63 -31 -130.5t-78 -111.5q-83 -77 -196 -109q-21 -6 -196 -47q10 -51 12 -107q9 -46 7 -75q-1 -7 -12 -14.5t-18 -7.5q-57 2 -354 48q-35 5 -42 7q-26 6 -39 15q-9 158 -8 242l3 350q2 43 6 156q0 16 -5 117q0 9 16.5 22.5t26.5 16.5 q18 -2 33 -1q20 1 96 13q66 11 99 10q193 -3 247 -8q259 -23 371 -160q62 -76 60 -166zM524 304q7 9 7 22q0 29 -30 62q-27 30 -56 41l10 -98v-53q41 1 69 26z" />
<glyph unicode="Q" horiz-adv-x="960" d="M938 57q-11 -16 -34 -38q-30 -30 -39 -40q-31 -36 -110 -131q-16 -19 -41 -41q-9 -5 -27 -3q-21 20 -78 55q-10 7 -34 21q-9 0 -32 -7q-26 -8 -34 -9q-83 -13 -126 -13q-93 0 -173 34q-95 40 -130 112q-13 13 -21 26q-59 94 -59 246q0 36 5 69q40 267 195 362 q18 16 34 27q44 30 145 54q50 12 106 22q11 2 32 2q55 0 122 -20q32 -10 95 -29q6 -2 32 -18q80 -50 125 -147q42 -89 42 -190q0 -69 -22 -119q-4 -18 -16 -55q-11 -23 -42 -65q29 -29 82 -81q7 -18 3 -24zM529 331q1 35 -34 68.5t-70 33.5q-21 0 -33 -20.5t-12 -43.5 q0 -39 24.5 -73t61.5 -43q5 5 15 20q13 20 48 58z" />
<glyph unicode="R" horiz-adv-x="980" d="M949 81q6 -5 6 -11q0 -12 -32 -39l-42 -32q-34 -21 -109 -70q-28 -24 -91 -75q-9 -9 -30 -21q-13 -2 -24 4q-25 13 -110 81q-26 21 -67 51q0 -2 6 -100q-8 -10 -30 -16t-26 -9q-15 -3 -44 -9q-20 -1 -59 -5q-67 -13 -143 -25q-3 1 -60 2q-42 1 -57 10q-27 162 -27 352 v119q0 9 -5 49q-2 57 -2 199v139q0 14 -1 40.5t-1 40.5q44 30 167 39q24 2 161 6q110 3 179 0q120 -6 164 -12q104 -15 171 -52q122 -67 122 -233q0 -142 -75 -233q-15 -27 -45 -80q47 -60 104 -110zM471 462q4 -25 8.5 -76t8.5 -76q21 8 37.5 27t16.5 40q0 24 -23.5 50 t-47.5 35z" />
<glyph unicode="S" horiz-adv-x="876" d="M852 163q10 -69 -6 -119q-8 -12 -20 -37q-12 -51 -74 -105q-54 -48 -111 -70q-74 -29 -179 -29q-65 0 -127 11q-173 31 -269 108q11 86 25 179q8 54 10 100q7 9 29 9q20 0 57 -7q42 -8 58 -9q40 -3 65 -3q-6 0 43 14q6 1 17 8q12 60 -145 130q-112 50 -186 119 q-19 18 -38 74q-2 6 -2 13q0 16 19 66q39 104 153 149q72 28 195 37q31 2 69 1q104 -3 187 -9q22 -2 57.5 -10.5t50.5 -14.5q30 -12 41 -31q5 -9 10 -85q1 -15 5 -52.5t4 -60.5q0 -17 -2 -30q1 -10 1 -24q0 -18 -2 -42q-8 -19 -31 -19q-19 0 -51 13l-40 16l-60 18 q-41 12 -64 11l-5 -5q45 -50 94 -83q22 -15 95 -54q110 -59 127 -177z" />
<glyph unicode="T" horiz-adv-x="875" d="M862 427q0 -31 -82 -45q-15 -3 -91 -11q-39 -9 -67 -11q0 -23 3 -114q0 -19 2 -71q1 -20 3 -70q2 -56 19 -207q0 -6 6.5 -28t6.5 -34q0 -32 -33 -32q-18 0 -62 14q-29 4 -106 13q-9 0 -51 6q-31 6 -112 19q-11 1 -31.5 4t-29.5 14q-5 7 -5 27q0 17 4 44l4 365l9 98 q-84 13 -167 6q-35 -3 -74 4l-7 9q28 211 33 276q1 24 5 86q16 11 47 11q-6 0 56 -5q98 -8 176 -8h98q3 0 22 -2l27 -4q34 -1 81 1q67 3 82 3q55 0 92 1q11 0 34.5 4t35.5 4q21 0 40 -14q13 -10 15 -20q17 -89 17 -211v-122z" />
<glyph unicode="U" horiz-adv-x="1027" d="M1010 408q-2 -134 -58 -266q-63 -149 -183 -234q-61 -43 -167 -72q-121 -33 -180 -33q-249 0 -347 210q-39 84 -54 191q-7 59 -20 175q-6 48 3 178q6 90 13 180q1 10 16 23q10 8 36 9q14 0 39 -1q43 1 136 11q30 4 170 11q20 5 59 12q4 -3 9 -7q3 -18 -7 -63 q-15 -66 -16 -76q-14 -105 -14 -232v-103q0 -55 10 -80q17 -43 59 -37q27 4 40 53q4 16 10 116q2 35 2 48q0 59 -20 158q-16 80 -19 148q12 9 20 10q44 3 158 10q3 0 132 15q20 8 74 15l22 -11q79 -82 71 -226q7 -72 6 -132z" />
<glyph unicode="V" horiz-adv-x="882" d="M870 619q-13 -31 -24 -69q-12 -66 -24 -118q-5 -20 -54 -204q-4 -15 -61 -199q-41 -131 -51 -207q-4 -6 -17 -14q-21 -4 -48 -4q-47 0 -159 18q-43 12 -132 21q-79 8 -82 19q-15 49 -50 180q-16 66 -42 168q-15 54 -20 76q-25 122 -56 244q-9 28 -31 102q-2 6 -12 31 q-7 19 -7 31q0 37 51 55q69 25 219 36q74 6 111 18q6 2 14 0q10 -3 14 -9q7 -14 29 -104q19 -80 29 -117q17 -64 36 -115q42 108 72 225q3 15 11 45q14 48 41 48q8 0 91 -39q14 -14 44 -38q71 -46 108 -80z" />
<glyph unicode="W" horiz-adv-x="1444" d="M1421 780q5 -6 5 -18q0 9 -8 -48q-20 -141 -63 -265q-12 -37 -43 -132q-129 -384 -149 -487q-3 -13 -29 -20q-20 -5 -39 -5l-42 1h-128q-84 0 -149 19q-18 5 -24 25q-2 11 -5 29q-8 44 -32 158q-5 21 -27 99q-2 0 -7 -6q-10 -29 -82 -306q-5 -21 -36 -20q-34 1 -79.5 7.5 t-159.5 26.5q-47 3 -133 18q-10 8 -10 13q-7 21 -14 68q-1 1 -26 109l-57 246q-36 154 -66 257q-9 30 -17 78q-2 14 3 24q10 20 82 34q26 5 196 58q32 10 81 43q12 8 29 6q11 -1 25 -42q12 -32 37 -116q13 -60 38 -157q10 12 16 38l9 42l58 209q46 11 141 15q119 4 156 10 q14 2 26 -9q12 -34 49 -172q30 -112 54 -162q8 22 30 115q17 71 36 107q11 40 15 49q13 33 29 38q28 9 88.5 14.5t88.5 14.5q66 20 80 20q32 0 53 -26z" />
<glyph unicode="X" horiz-adv-x="919" d="M921 82q-36 -39 -102 -88q-33 -24 -97 -73q-17 -13 -128 -111q-2 -1 -23 -5q-3 1 -9 5q-44 96 -131 258q-60 -44 -109 -99q-19 -21 -64 -49q-18 -11 -29 -3q-27 29 -52 50q-40 34 -109 88q-17 9 -20 27q22 39 70 103q54 72 73 102q3 4 3 9q0 6 -7.5 18.5t-8.5 16.5 q-8 18 -28 50q-14 22 -45 85q-34 68 -65 137q-11 34 -39 122q-8 25 13 38q11 6 43.5 12t50.5 4q17 -2 32 -2q40 0 119 16t119 16q39 0 75 -11q17 -5 29 -45q17 -59 23 -69q25 39 84 108q9 8 34 8q16 0 55 -6q109 -17 205 -20q13 -12 13 -22q0 -3 -1 -6q-50 -100 -199 -271 q54 -89 113 -197q37 -67 72 -122t40 -74z" />
<glyph unicode="Y" horiz-adv-x="895" d="M893 662q-27 -75 -81 -185l-90 -182q-5 -11 -50 -149q-74 -228 -158 -330q-11 -3 -31 -11q-25 11 -72 52l-95 83q-61 52 -106 115q-2 3 -2 6q0 7 7.5 20t7.5 15q5 18 22 45l26 40q17 26 17 33q0 3 -1 5q-15 35 -103 173q-38 54 -141 203q-10 15 -26 51q-17 40 -16 53 q17 10 52 27q16 5 49 17q40 3 85 22q29 13 87 38q2 1 21 -1q44 -37 113 -119q33 -40 100 -120q6 0 9 6q17 63 54 191q3 9 18.5 22t24.5 13q3 -1 124 -26q22 -5 64 -25q47 -23 87 -56q10 -8 4 -26z" />
<glyph unicode="Z" horiz-adv-x="864" d="M858 182q-15 -87 -28 -194q-5 -44 -22 -154q-4 -20 -55 -25q-59 -6 -132 -4q-41 1 -124 4q-41 2 -204 8q-43 1 -128 2q-77 2 -124 13l-30 15q-2 6 -2 13q0 36 46 132q16 45 51 135q37 86 117 257q-72 0 -215 1q-2 3 -6 10l36 154q12 49 43 177q3 15 9 37q7 19 22 32 q11 9 37 8l285 -14q25 -1 68 2q49 4 68 4q66 0 108 -23q18 -10 18 -40q0 -26 -14 -65q-11 -32 -23 -64q-17 -57 -22 -71q-55 -147 -105 -284q8 -8 42 -12q23 -3 47 -5q76 -15 230 -39q2 -1 7 -10z" />
<glyph unicode="[" horiz-adv-x="457" d="M469 -140q-9 -18 -44 -24q-7 -1 -53 -4q-54 -3 -72 -5l-204 -22h-66q-4 0 -10.5 1.5t-10.5 1.5q-7 7 -8 25q-1 17 0 36q2 34 2 35q-4 94 -4 147q0 26 3 79t3 44v72l5 288v40q0 10 -1 26v16q0 44 10 167q1 18 26 17q56 -4 206 -12q46 -2 152 -10q18 -5 19 -28 q11 -174 11 -203q-19 -15 -90 -31q-82 -18 -106 -29q7 -116 23 -348q49 -25 104 -27q67 -3 85 -30q0 -28 4 -54q6 -40 14 -104q1 -21 2 -64z" />
<glyph unicode="\" horiz-adv-x="637" d="M1 714q0 -9 7 -30l15 -45q8 -26 129 -379q13 -38 59 -181q35 -108 80 -235q2 -38 38 -38q23 0 47 11q74 34 219 88q11 9 32 28q-6 30 -22 89l-82 308q-31 115 -89 288q-10 26 -35 95q-2 12 -8 40q-16 52 -43 52q-7 0 -19.5 -3.5t-17.5 -3.5q-72 -9 -214 -36 q-22 -7 -80 -25q-16 -5 -16 -23z" />
<glyph unicode="]" horiz-adv-x="504" d="M-1 -140q10 -18 44 -24q8 -1 54 -4q54 -3 72 -5l203 -22h67q4 0 10.5 1.5t10.5 1.5q6 7 8 25q-1 24 -2 71q3 94 3 147q0 26 -2.5 79t-2.5 44v72l-5 288v40q1 28 1 42q0 44 -10 167q-1 18 -26 17q-56 -4 -206 -12q-46 -2 -152 -10q-18 -5 -19 -28q-11 -174 -11 -203 q20 -15 89 -31q84 -19 107 -29q-7 -116 -23 -348q-49 -25 -104 -27q-67 -3 -85 -30q0 -30 -4 -54q-7 -40 -14 -104q-1 -30 -3 -64z" />
<glyph unicode="a" horiz-adv-x="905" d="M875 -113q-26 -5 -52 -9q-8 -2 -158 -55q-125 -43 -143 -43q-17 0 -23 8q-11 14 -34 60q-20 41 -36 56q-18 -2 -142 1q-19 -102 -59 -102q-22 0 -127 55q-44 23 -66 27l-18 15q-45 37 -45 69q0 25 21 87q26 69 85 244q16 64 49 191q38 141 77 172q124 100 244 162 q12 6 22 6q35 0 63 -54q12 -26 37 -78q22 -37 79 -135q12 -23 45 -85q97 -169 203 -445q7 -18 32 -73l2 -3q6 -14 0 -30q-12 -32 -56 -41zM468 779q-138 -70 -200 -129l-52 -46q-4 -7 -90 -318q-61 -160 -62 -163q-36 -104 -38 -165q10 -8 28 -26q34 -8 86 -36 q65 -35 85 -42q2 10 12 59q9 43 30 42q82 -4 166 0q27 1 56 -48q6 -10 40 -75q39 9 98 33q75 30 96 37q82 27 154 37l6 6l1 -1v-4l1 -3q-16 29 -33 75l-30 78q-46 118 -65 159q-36 79 -107 205q-12 25 -44 84q-30 53 -106 192q-4 9 -13 28t-19 21zM356 209q10 1 13 2 q0 -1 -2 -7t-2 -9v-9q-4 11 -9 23zM356 209q-4 9 -9 20q-2 -11 -3 -21q4 1 12 1zM359 320q31 -63 52 -116q6 -16 -6.5 -28.5t-30.5 -14.5q-14 -1 -43 -4q-10 -2 -16 -2q-27 0 -25 27q1 19 22 131q5 25 23 25q15 0 24 -18z" />
<glyph unicode="b" horiz-adv-x="919" d="M833 294l12 -9q69 -52 69 -124q0 -147 -153 -244q-112 -70 -284 -104q-203 -40 -402 -34q-25 1 -49 8q-32 10 -34 28q-13 131 -14 329l-3 477q0 35 1 87q6 53 44 63q227 62 450 55q383 -12 450 -235q9 -30 9 -62q0 -104 -96 -235zM31 722q-5 -17 -5 -51q0 -47 -1 -53 l3 -473q1 -188 13 -309q25 -8 80 -8q110 0 294 26q280 40 372 146q76 88 76 159q0 35 -23 63q-10 12 -44 38q-23 18 -23 30q0 8 5 14q100 130 100 231q0 128 -150 191q-106 45 -259 50q-222 7 -436 -53zM456 439q3 -37 3 -49l-42 18q13 10 39 31zM456 439q9 7 13 13 q-2 -1 -13 -1v-12zM464 501q30 1 39 -8q18 -17 18 -37q0 -23 -22 -46q-21 -15 -48 -38q-12 -10 -21 -10q-20 0 -24 47q-1 12 -1 63q0 28 59 29zM493 97q-9 8 -20 10q1 -12 1 -26l8 1q12 2 17 5q0 3 -6 10zM499 35l-46 -6q-26 -4 -30 28q0 26 -1 53q0 7 -1 13q-5 34 48 34 q30 0 55.5 -20.5t25.5 -49.5q0 -16 -12 -31t-39 -21z" />
<glyph unicode="c" horiz-adv-x="831" d="M680 407q-6 -17 -18 -51.5t-35 -34.5q-16 0 -38 15q-37 26 -56 26q-23 0 -35 -30q-9 -22 -9 -50q0 -66 40 -79q13 0 41 11t40 11h4q27 0 42 -30q23 -59 51 -147q35 -109 35 -146q0 -7 -1 -11q-4 -14 -34 -35t-44 -19q-15 -1 -39 -14q-28 -14 -39 -17q-101 -26 -214 -26 q-20 0 -77 22q-45 17 -70 31q-117 63 -184 191q-62 120 -62 260q0 115 44 197q89 166 189 244q132 103 285 103h94q51 0 160 -40q103 -38 103 -79q0 -10 -7 -21q-74 -117 -166 -281zM693 -94q0 16 -38 134q-33 104 -46 133q-63 -20 -79 -20q-45 0 -70 45q-20 37 -20 86 q0 50 22 85q26 42 73 42q18 0 38 -7q9 -3 44 -26q30 97 183 327v2q-84 57 -214 71h-84q-162 -26 -261 -101q-95 -71 -175 -220q-41 -76 -41 -172q0 -140 80 -265q84 -132 213 -173l53 -17q150 0 240 42q32 15 50 15q11 6 32 19z" />
<glyph unicode="d" horiz-adv-x="978" d="M960 256l13 -38q-12 -18 -27 -49q-19 -41 -25 -51q-33 -55 -94 -114.5t-119 -94.5q-54 -33 -67 -40q-39 -22 -72 -30q-242 -61 -391 -61q-35 0 -60 5l-68 14q-41 14 -47 45q-9 43 -13 239v122l-6 445q0 9 -3.5 27.5t-3.5 27.5q0 27 31 40q11 5 55 15q195 44 201 45 q116 23 204 23q100 0 202 -27q86 -23 127 -44q56 -29 100 -89q93 -127 93 -298q0 -59 -15 -110l-2 -12q-10 3 -13 10zM30 696q4 -18 3 -48q-1 -44 -1 -49q10 -232 8 -396q-1 -77 0 -121q4 -193 12 -229q11 -15 85 -22q63 -6 88 -3q35 4 217 33q125 20 240 90q57 35 91 70 q98 101 131 174q12 26 20 40q-1 6 -1 15q0 22 9 66t9 67q0 31 -6 58q-46 207 -155 266q-54 29 -152 51q-94 21 -159 20q-75 -1 -190 -25q-165 -34 -189 -38q-17 -10 -60 -19zM409 324q5 -23 13 -69q31 23 45 47q-6 7 -22 13t-36 9zM461 362q59 -22 59 -56q0 -29 -49 -75 q-41 -38 -68 -38q-17 0 -21.5 19t-27.5 135q-6 30 34 30q33 0 73 -15z" />
<glyph unicode="e" horiz-adv-x="845" d="M492 452q30 1 88 10q61 19 92 19q61 0 57 -57q-1 -20 8 -65q9 -48 9 -68q0 -36 -19 -50q-13 -10 -103 -29q-104 -22 -117 -26v-8q13 -1 28 -1q27 0 80.5 6t80.5 6q65 0 89 -10q41 -17 36 -72q0 -17 3.5 -50t3.5 -50q0 -26 13 -76t13 -75q0 -40 -45 -58q-32 -13 -93 -14 h-81q-137 -4 -212 -1q-20 1 -396 27l-18 22q1 -3 1 -8q-56 33 -56 169q0 65 12 142q2 11 12 71q-2 45 0 268v125q1 93 7 143q3 25 30 35q11 4 48 7q65 18 114 20q20 1 107 7l20 1q42 3 51 3h170q16 0 49 3.5t49 3.5q14 0 29 -2t54 2q48 5 65 5q76 0 76 -54q0 -14 -5 -32 l3 -195q0 -13 -8 -27.5t-20 -16.5q-65 -12 -143 -26q-62 -3 -183 -19zM695 281q-16 122 -15 146v4q-26 0 -73 -12q-51 -12 -73 -14q-68 -5 -54 -5q-22 0 -31 16q-5 10 -7 36q-3 33 6 41.5t44 14.5q39 6 87 10q36 3 88 8q36 6 128 23l-2 203q4 13 4 17q0 10 -27 9 q-16 0 -49 -4.5t-51 -4.5q-9 0 -25.5 2t-25.5 2q-16 0 -47 -4t-47 -4h-170q-8 0 -50 -3l-125 -8q-20 -1 -61 -10t-60 -11q-11 0 -24 -2q-7 -52 -7 -138v-120q-2 -134 0 -268l6 -338h1q6 -3 10 -8q361 -26 485 -26q152 0 283 18l-12 -5q4 3 6 6l-3 -19q-26 111 -26 174 q0 21 -3 61.5t-3 61.5q-17 9 -76 9q-26 0 -79 -6.5t-80 -6.5q-80 0 -80 30v19q-1 12 -1 18q0 25 13 31q33 15 85 25q75 14 87 18q16 5 54 14z" />
<glyph unicode="f" horiz-adv-x="704" d="M66 -199q-30 13 -37 81q-2 30 -6 91q-16 220 -46 695q-2 31 19 43q11 7 72 18q38 7 77 14l102 23q96 21 258 38q1 0 72 13q61 11 65 9q37 -15 58 -169q10 -97 20 -193q4 -30 -18 -41q-13 -6 -45 -8q-28 -1 -87 -13.5t-84 -22.5q-1 -13 -1 -20q28 4 73 2q41 -2 55 -8 q24 -10 27 -42q2 -28 14 -103q7 -46 7 -78q0 -57 -25 -69q-14 -7 -49 -7q-9 0 -102 -13q0 -15 1.5 -44t1.5 -44q0 -78 -28 -82q-81 -12 -134 -24q-27 -9 -111 -32l-54 -22q-34 -13 -54 -13q-27 0 -41 21zM626 775q-39 -12 -102 -18l-103 -11q-99 -14 -163 -29 q-56 -13 -105 -20q-23 -3 -125 -27h-1l23 -399q14 -235 32 -397q1 -9 5 -27q11 -5 17 -13l2 -4q38 14 97.5 33.5t110.5 32.5q33 9 122 22q-1 -9 -1 87q0 79 25 83q53 3 149 17q2 13 2 29q0 25 -8 81q-5 36 -11 81q-1 9 -2 13q-93 2 -110 -2q-4 -1 -11 -1q-34 0 -34 54 q0 -5 1 19v17q0 27 89 46q24 5 113 21q16 0 39 3q-1 -3 -6 -5v-4l-35 277q-2 17 -10 41z" />
<glyph unicode="g" horiz-adv-x="943" d="M953 271q-7 -148 -75 -276q-116 -219 -411 -219q-144 0 -291 102q-115 79 -162 209q-27 73 -37 205q-2 26 -2 49q0 117 79 231.5t210 181.5q122 61 271 72q81 6 171 -20q104 -30 144 -82q10 -13 3 -27q-33 -64 -65 -127q-37 -74 -59 -130q-10 -25 -35 -33l-6 -2 q-16 -2 -60 28q-48 33 -71 38q-10 2 -22 2q-58 0 -94 -59q-30 -50 -30 -112q0 -50 21 -80q25 -35 72 -35q9 0 18 1v5q-57 1 -77 10q-33 14 -33 62q0 20 4 57q-4 66 22 82q11 7 80 13h263q18 0 51 6q37 7 55 7q53 0 58 -50l-1 -8q12 -37 9 -101zM463 250q15 -8 41 -8h25 q44 0 44 -47q0 -12 -3 -32q-4 -28 -62 -28q-69 0 -109 48q-38 45 -38 116q0 84 43 150q49 75 129 75q16 0 34 -4q80 -17 114 -63q1 1 2 1q21 54 118 246q-36 35 -124 57q-81 20 -139 16q-305 -22 -470 -274q-43 -66 -43 -167q0 -14 2 -40q10 -124 34 -191q42 -115 144 -186 q134 -93 263 -93q132 0 217 43q97 48 153 157q65 127 65 266q0 46 -9 85v1q-3 1 -9 1q-13 0 -56 -7q-37 -7 -53 -5h-252q-29 -4 -57 -7q0 -33 -1 -44q-5 -56 -3 -64v-2z" />
<glyph unicode="h" horiz-adv-x="1003" d="M484 477q22 8 67 18l9 55v118q0 13 2 37.5t2 37.5q0 37 78 37q52 0 134 -15q12 -2 91 -18q10 0 29.5 1t29.5 1q70 0 71 -36q0 -2 4 -79q3 -61 2 -88q-2 -50 -13 -188q-10 -122 -10 -188q0 -54 4 -95q1 -10 9 -49t8 -58q0 -44 -28 -59q-43 -22 -115 -40 q-82 -20 -119 -31.5t-133 -43.5q-41 -15 -61 -11l-18 17q-6 5 -12 17q0 3 -24 235l-20 -1q12 -108 23 -225q1 -14 -11 -22q-18 -19 -34 -21q-28 -4 -189 -4q-120 0 -140 2q-103 10 -115 53l-10 73v123q0 14 -5 43t-5 43v110q0 138 -3 285l-4 196q0 8 -2.5 23.5t-2.5 23.5 q0 34 49 51q14 5 55 5h15q27 0 64 5q27 4 64 7t66 3q77 -1 134 -1q11 0 22 -11.5t13 -23.5q24 -163 29 -312zM950 699q-34 -2 -88 -2q-30 4 -79 15q-54 12 -80 13q-11 0 -33.5 3.5t-34.5 3.5q-13 0 -21 -3q-4 -71 -4 -61v-118q0 -16 -6 -42q-6 -29 -7 -41q-1 -17 -29 -22 l-45 -9q-36 -12 -56 -12q-31 0 -32 25q-4 156 -30 333l3 -8q-20 0 -62 1q-25 1 -60 0q-70 -7 -209 -15q-53 -1 -53 -14q0 -5 2 -18.5t2 -20.5l4 -197q3 -148 3 -284v-110q0 -14 5 -43t5 -43v-115l2 -46q4 -26 28 -30q65 -10 185 -10q152 0 182 4l1 1q-11 98 -24 239 q-2 24 38 29q8 1 57 1q22 0 24 -22q8 -88 26 -248h2q65 28 164 56q83 22 167 45q35 10 53 19v2q0 26 -6 58q-14 75 -14 155q0 66 10 190q6 78 13 189q0 29 -3 152z" />
<glyph unicode="i" horiz-adv-x="496" d="M232 -179q-23 -2 -83 -22q-55 -18 -88 -18q-45 0 -63 31l-3 12v199q0 37 -3.5 111.5t-3.5 111.5v118q0 52 -6 154.5t-6 154.5t3 85q1 16 27.5 39t43.5 26q33 6 80 6q31 0 92.5 -3.5t92.5 -3.5q25 0 39 1l55 4q66 0 66 -58v-183l2 -48q2 -48 2 -68l-1 -277q-2 -29 -2 -36 q3 -90 14 -187q5 -44 -2 -70q-15 -57 -256 -79zM440 -87q2 7 2 26q0 29 -8 115.5t-8 100.5q0 12 2 38l1 25v253q0 19 -2 67l-2 48v182q0 5 -1 8q-58 -2 -133 -2q-15 2 -114 3q-110 2 -123 -4q-9 -10 -25 -28q-2 -32 -2 -69q0 -52 5.5 -156t5.5 -156v-118q0 -37 3.5 -111.5 t3.5 -111.5v-189q7 -3 18 -3q30 0 83 18q58 20 82 22q45 4 110 16q86 15 102 26z" />
<glyph unicode="j" horiz-adv-x="606" d="M146 210q11 8 11 60q0 75 -20 213q-17 116 -28 160l-8 24q-5 15 -5 23q0 25 23 42q20 15 46 19q147 23 229 61q35 16 60 16q34 0 51 -35q8 -16 24 -71l38 -124q21 -73 26 -127q9 -98 9 -180q0 -150 -30 -281q-17 -73 -96 -144.5t-153 -76.5q-1 0 -49 -7q-27 -4 -49 -2 q-78 6 -147 26q-99 28 -99 58q-1 59 23 176q21 105 41 163q10 29 48 29q24 0 39 -11q4 -3 16 -11zM95 184q-3 -1 -7 -3q-50 -154 -59 -301q17 -9 63 -26q82 -26 143 -26q16 0 29 2q39 5 87 14q152 86 173 178q28 125 28 305q0 156 -25 238q-15 48 -53 172q-12 42 -29 42 q-7 0 -30 -11q-27 -13 -34 -15q-69 -20 -209 -52q-19 -3 -25 -12q0 6 10 -34q16 -65 32 -176q18 -128 18 -204q0 -115 -54 -115q-22 0 -58 24z" />
<glyph unicode="k" horiz-adv-x="978" d="M446 584q11 30 45 87t45 89q17 51 66 51q9 0 20 -2q78 -15 192 -37q71 -1 152 -5q27 -11 27 -45q0 -15 -4 -23q-69 -146 -82 -171q-48 -97 -93 -165q1 0 3 -3q11 -24 126 -238q5 -9 5 -25q0 -17 -11 -27q-54 -47 -196 -169q-19 -18 -58 -53q-43 -36 -72 -36q-7 0 -12 2 q-29 12 -137 121q17 -88 17 -112q0 -10 -2 -14q-15 -29 -50 -29q-4 0 -35 4q-37 4 -138 18q-12 4 -49.5 3t-46.5 3q-49 15 -79 25q-57 20 -58 45q0 12 -3 41l-1 5v107q0 158 -15 374q2 12 4 36q-7 169 -29 288q-3 19 8.5 34.5t30.5 16.5q235 6 370 46q7 2 13 2q25 0 36 -35 q8 -26 6 -55q-6 -77 5 -154zM942 718q-95 -2 -133 4h-4l-106 22q-93 19 -104 16q-7 -4 -15 -26q-11 -29 -13 -33q-19 -28 -56 -100q-34 -66 -59 -98q-8 -10 -19 -10q-18 0 -27 19q5 0 8 -1l-12 13q-1 22 -7 78q-6 49 -6 78q0 28 2 62q0 -7 -3 48l9 -18l-5 4 q-135 -38 -364 -45q28 -162 28 -259q0 -37 -4 -64q15 -218 15 -377v-104q3 -15 4 -36q18 -11 50 -20q46 -13 51 -15q32 1 94 -5q93 -22 163 -20q-9 84 -26 140q-2 7 -2 12q0 20 24 20q41 0 71 -31q18 -19 56 -58q31 -31 62 -51q54 38 283 238l-108 207q-25 47 -25 58 q0 12 8 24q50 76 91 161q26 56 79 167z" />
<glyph unicode="l" horiz-adv-x="693" d="M687 43q-1 -24 1 -69q4 -52 4 -70q0 -75 -20 -88q-57 -36 -514 -36q-134 0 -137 46q-3 74 -7 147q-4 90 -15 145l-1 5q2 27 -2 202q-1 95 -12 327q-2 32 -6 61l-3 25q0 75 85 81q29 2 77 -4h133q23 0 70 6.5t70 6.5q32 0 45 -14q9 -11 12 -23q21 -94 29 -210 q2 -31 10 -213q15 0 46 2.5t47 2.5q101 0 104 -53q0 -5 -1 -15.5t-1 -14.5q0 -21 -14 -247zM653 318q-38 4 -85 3l-86 -3q-24 -1 -25 23l-10 219q-7 119 -29 217q-26 1 -74 -5q-51 -7 -74 -7h-137q-10 5 -59 5q-35 0 -47 -14l-1 -2q-1 -17 7 -97q7 -69 13 -331 q4 -170 2 -203q11 -66 19 -283q5 -2 43.5 -6t47.5 -4q410 0 482 26q2 19 2 41q0 15 -4 74q-3 44 -1 75l14 244q0 5 1 14t1 14z" />
<glyph unicode="m" horiz-adv-x="1052" d="M330 -95q0 -61 -5 -74q-9 -24 -54 -24q-46 0 -250 18q-35 3 -43 56l-2 80q-1 44 0 100q0 23 1 41q0 15 1 22q0 6 0 2v105q1 21 5 68q6 75 7 103q7 184 7 246v124q0 50 87 54q46 2 152 2h115q39 0 55 -31q7 -15 56 -130q16 49 40 112q24 45 208 45q17 0 55 2t58 2 q35 -1 42 -5q20 -12 24 -32q90 -465 162 -690q6 -19 14 -74q5 -37 -28 -60q-81 -43 -122 -62q-69 -32 -128 -47q-11 -3 -80 -42q-62 -35 -87 -35q-15 0 -21 9q-17 23 -36 89q-9 30 -27 100q-13 -30 -41 -90q-35 -74 -60 -80q-8 -2 -18 -2q-32 0 -54 33q-6 9 -33 65zM839 777 q-37 0 -67 -1l-62 -2q-98 0 -165 -20q-9 -44 -41 -122q-23 -57 -44 -57q-11 0 -19 19q-26 62 -79 180q-4 2 -11 4l-212 1q-71 -1 -92 -11v-120q0 -63 -7 -248q-1 -28 -7 -102l-5 -67v-105q0 -27 -2.5 -80.5t-2.5 -80.5q0 -55 7 -90q82 -6 216 -17q23 -2 35 0q-4 84 7 151 q4 25 23 25q16 0 24 -18l36 -82q20 -45 44 -77h5q22 33 52 98l45 102q9 21 21 21q21 0 44 -76q8 -29 23 -85.5t27 -83.5q21 9 70 39q43 26 73 34q60 16 214 91q19 9 27 16q-1 -1 -11 69q-18 122 -79 347q-69 255 -87 348z" />
<glyph unicode="n" horiz-adv-x="909" d="M892 -114q-33 -25 -135 -46q-130 -27 -152 -35q-83 -29 -98 -29q-20 0 -35 25.5t-48 79.5l-34 51v-8q0 -83 -3 -92q-8 -43 -47 -43q-16 0 -42 8q-202 62 -297 105q-21 9 -21 39q0 19 1 56t1 56q0 20 -3 64q-3 41 -3 63q2 187 2 202l-3 252q0 28 5 67l9 68q2 21 22 23 l138 11q86 7 161 23q18 4 40.5 -1.5t28.5 -20.5q22 -55 106 -173l8 78q7 59 18 67q35 25 53 23q54 -12 170 -29q53 -1 107 -1q57 -6 57 -57q0 -14 -3 -31v-147q0 -351 5 -458q1 -19 8 -60.5t7 -64.5q0 -48 -23 -65zM31 -56q31 -14 152 -57q134 -48 155 -48q-1 57 9 171 q5 24 22 24q13 0 23 -15q48 -70 102 -161q7 -12 20 -31q25 4 72.5 23t72.5 23q171 29 204 53q2 9 2 22q0 23 -7 63q-7 44 -8 63q-5 109 -5 460v155q3 11 3 19q0 6 -2 10q-73 0 -117 2q-24 1 -91 15q-56 12 -78 14q-3 -1 -10 -6q-22 -207 -51 -207q-10 0 -22 17l-76 108 q-43 65 -65 115q-11 2 -16 1q-88 -18 -283 -33l-12 -111l3 -251q0 -22 -1 -84q-1 -71 -1 -117q0 -21 3 -64t3 -64v-23q-1 -21 -1 -32v-54z" />
<glyph unicode="o" horiz-adv-x="924" d="M785 -81q-80 -86 -154 -108q-102 -30 -144 -30q-319 0 -430 208q-81 152 -81 288q0 29 5 110q8 124 61 200q41 59 158 143q148 107 275 97q39 -3 52 -3q176 0 295 -164q109 -150 109 -338q0 -45 -9 -91q-24 -124 -41 -168q-28 -70 -96 -144zM836 84q43 121 43 238 q0 92 -28 173q-41 119 -119 193q-90 86 -205 86q-16 0 -48.5 1t-48.5 1q-53 0 -143 -48q-52 -28 -122 -88q-77 -66 -99 -109q-29 -58 -33 -135q-6 -129 -8 -136q-1 -12 -1 -24q0 -76 78 -223q100 -189 386 -182q99 -7 210 79q105 81 138 174zM490 195q1 10 1 19 q0 107 -105 168q0 -63 52 -153q20 -35 52 -34zM376 442q73 -31 118 -90q48 -63 48 -139q0 -52 -31 -64l-5 -2q-10 -2 -21 -2q-56 0 -91 60q-58 100 -58 178q0 61 30 61q5 0 10 -2z" />
<glyph unicode="p" horiz-adv-x="957" d="M981 434q2 -13 2 -27q0 -67 -33 -140t-84 -120q-77 -71 -179 -106q-33 -11 -201 -51q18 -121 15 -164q-1 -17 -19.5 -31.5t-35.5 -14.5q-63 2 -222 24q-193 27 -228 51q-21 14 -18 262l4 351q3 225 0 270q-2 28 30 49q29 20 57 17t99 9q81 14 110 13q189 -3 245 -8 q271 -23 392 -169q68 -83 66 -183v-32zM33 736q0 -6 -2 -270l-3 -349q-1 -67 7 -226q18 -7 61 -14l197 -30q102 -15 152 -17q3 1 5 3l1 1q1 67 -18 170q-4 23 18 29q67 15 201 49q102 28 180 101q59 55 81 131q15 53 18 154q3 138 -142 222q-110 64 -266 78q-108 10 -183 10 q-81 0 -156 -11q-89 -13 -128 -12q-12 -3 -23 -19zM477 376q3 -27 3 -45v-22q16 5 25 11q6 22 -28 56zM556 325q0 -21 -11 -35l-4 -5q-39 -32 -84 -32q-28 0 -27 25v53q0 -9 -10 96q-3 28 22 28q20 0 49 -24q65 -53 65 -106z" />
<glyph unicode="q" horiz-adv-x="960" d="M572 -146l-3 -1q-81 -27 -185 -27q-100 0 -187 37q-100 44 -140 123q-82 99 -82 270q0 135 51 260q58 142 160 205q9 8 34 26q38 27 126 52q76 22 136 29q8 1 29 1q61 0 138 -19q82 -21 130 -51q173 -108 173 -341q0 -84 -19 -151l-4 -14q-14 -48 -43 -88q28 -24 45 -41 q27 -27 32 -49q6 -27 -27 -61q-11 -12 -52 -51q-25 -31 -75 -92q-61 -74 -83 -86q-12 -7 -29 -7q-19 -1 -28 8q-21 21 -97 68zM914 66v1q-39 39 -78 76q-7 7 -7 15q0 13 23 50q26 41 29 57l3 14q18 84 18 140q0 214 -165 308q-36 20 -122 38t-126 13q-291 -36 -403 -248 q-44 -84 -58 -206q-3 -24 -3 -58q0 -261 203 -360q61 -30 143 -30q51 0 134 13q8 1 33 9q22 6 33 6q19 0 45 -20q28 -16 83 -55h4q12 7 83 92q44 48 128 145zM422 408q-16 -11 -16 -41q0 -61 52 -84q27 40 45 58q-4 23 -37 49t-44 18zM392 448q17 12 36 12q40 0 83 -43 t43 -83q0 -14 -9 -22q-13 -12 -43 -52q-21 -37 -43 -31q-44 12 -74.5 53t-30.5 88q0 51 38 78z" />
<glyph unicode="r" horiz-adv-x="980" d="M971 44q-18 -26 -93 -76q-31 -19 -92 -59q-20 -13 -93 -75q-33 -28 -52 -28q-20 0 -56 26q-7 5 -107 85q3 -37 3 -42q0 -23 -20 -34q-8 -5 -40 -15q-21 -6 -61 -16q-16 -1 -58 -5q-47 -8 -144 -24h-7q-45 0 -77 2q-57 4 -62 29q-27 139 -27 357v119q0 8 -5 48 q-2 58 -2 200v139q0 14 -1 40.5t-1 40.5q0 71 391 71q207 0 309 -14q136 -19 216 -78q100 -73 100 -199q0 -125 -117 -342q39 -48 91 -94q14 -12 14 -29q0 -14 -9 -27zM933 62q-112 98 -112 133q0 6 2 9q117 197 117 326q0 196 -271 234q-94 13 -289 13q-281 0 -354 -36 l2 -66v-139q0 -142 2 -198q5 -40 5 -50v-119q0 -71 25 -334q31 -1 94 -4q74 11 139 24q19 0 59 4q14 4 40 9q13 4 39 13l-6 66q0 50 21 50q9 0 19 -8l93 -72q78 -61 89 -59q15 8 55 44.5t55 46.5q63 41 149 103q10 8 24 18q1 -3 3 -8zM503 406l5 -51q11 16 9 24 q-4 14 -14 27zM538 442q29 -34 29 -65q0 -30 -26.5 -61t-55.5 -31q-19 0 -26 41q-2 28 -4 57q-6 58 -8 76q-4 29 21 29q30 0 70 -46z" />
<glyph unicode="s" horiz-adv-x="876" d="M605 445q29 -25 112 -74q69 -41 102 -76q48 -51 58 -128q5 -37 5 -56q0 -52 -30 -107q-43 -79 -81 -118q-103 -107 -308 -107q-111 0 -217 29q-118 33 -195 95q-11 9 -9 23l39 290q14 19 53 19q21 0 56 -7q40 -8 56 -9q42 -3 64 -3q25 8 42 15q-13 14 -49 42 q-25 19 -114 61q-42 19 -120 64q-40 28 -66 67q-29 44 -29 88q0 19 20 71q78 203 430 203q72 0 199 -9q57 -4 106 -23q64 -25 71 -68q14 -89 14 -189v-18q-1 -12 -1 -14q0 -21 -1 -64q-3 -36 -45 -42q-19 -3 -79 17q-42 14 -83 28zM125 185q-2 -44 -32 -252q70 -51 177 -79 q98 -26 194 -26q182 0 274 96q32 33 70 104q24 45 24 83q0 21 -4 49q-12 81 -79 132q-45 26 -133 81q-104 68 -104 107q0 27 42 27q35 0 109.5 -28.5t92.5 -28.5q9 0 9 26q0 46 -4 129q-6 99 -12 120q-32 52 -319 52q-48 0 -62 -1q-138 -10 -208 -44q-99 -49 -133 -163 q-2 -7 -2 -16q0 -44 31 -73q55 -52 138 -92q106 -51 137 -73q67 -47 67 -92q0 -28 -45 -45q-30 -12 -43 -12q-44 0 -155 17q-20 3 -30 2z" />
<glyph unicode="t" horiz-adv-x="875" d="M751.5 351q-59.5 -8 -104.5 -13q0 -321 35 -468q4 -17 4 -32q0 -60 -56 -60q-13 0 -34 6q-24 8 -33 9q-31 4 -156 19q-45 5 -145 23q-56 10 -56 64q0 14 5 48l4 364l7 75q-34 4 -109 3q-71 -2 -109 4l-20 17q1 -1 1 -3q-10 13 -9 24q25 195 33 274l10 96q9 24 51 24 q14 0 74 -5q96 -8 174 -8h98q3 0 23 -2l27 -4q34 -1 81 1q67 3 81 3q89 0 132 6q14 2 23 2q77 0 87 -53q17 -92 17 -216v-122q0 -32 -38 -50t-97.5 -26zM22 441q19 0 72 1h71q112 -1 109 -37l-9 -97l-4 -366l-4 -28q-3 -19 3 -27q23 -10 153 -25q44 -5 158 -19 q8 -1 25.5 -7.5t27.5 -6.5q7 0 12 2q3 7 -4 31q-3 11 -8 33q-31 281 -27 465q0 21 37 28q43 5 130 17q60 9 73 22v122q0 116 -17 206q-11 14 -36 14q-11 0 -32 -4t-31 -4q-34 -1 -93 -1q-15 0 -82 -3q-47 -2 -82 -1q-45 6 -48 6h-98q-38 0 -114.5 6t-114.5 6q-20 0 -26 -1 q-1 -21 -4 -73q-6 -71 -33 -276l-5 18z" />
<glyph unicode="u" horiz-adv-x="1027" d="M784 -113q-60 -43 -174.5 -76t-192.5 -33q-76 0 -153 28q-80 29 -132 79q-76 74 -112 213q-20 76 -44 278q-3 24 0 99q1 50 5 150q4 90 11 111q17 54 80 58q54 0 171 10q54 8 81 8q35 0 87 3q9 0 27.5 5.5t29.5 5.5q15 0 26 -8q12 -24 12 -50q0 -22 -9 -58 q-11 -43 -13 -57q-14 -106 -14 -229v-104q0 -97 41 -91q19 16 24 69q2 25 5 76q4 66 -14 176q-22 129 -24 176q-1 13 14 24t29 12l157 10q47 3 159 22q29 9 42 9q18 0 38 -13q96 -96 88 -251q7 -72 6 -132q-2 -138 -60 -274q-67 -157 -191 -246zM553 712q3 -35 22 -154 q15 -93 15 -154q0 -93 -11 -144q-18 -82 -76 -82q-83 0 -83 143v104q0 182 30 312q10 43 8 53l11 -17l-3 3q-17 -5 -49 -11q-35 0 -92 -2q-26 -1 -85 -10q-55 -8 -86 -8q-9 0 -31 1h-30q-43 -1 -51 -14q-11 -108 -17 -310q-2 -60 11 -155q13 -88 30 -153q37 -138 114 -204 t218 -81q11 -1 23 -1q62 0 160 27q120 35 174 73q109 78 169 213q54 121 61 268q1 22 -3 66.5t-3 66.5q7 129 -61 204q-1 1 -7 6q-14 0 -36 -6q-25 -8 -35 -9l-134 -15q-20 -2 -153 -10z" />
<glyph unicode="v" horiz-adv-x="882" d="M870 544q-6 -34 -23 -118q-24 -105 -117 -404q-37 -121 -49 -203l-11 -18q-18 -22 -83 -22q-56 0 -161 18q-118 20 -128 21q-40 3 -58 7q-40 9 -46 31q-14 49 -50 180q-19 68 -62 245q-64 280 -100 380q-8 22 -8 36q0 46 54 69q18 8 98 25q33 7 124 15q80 7 123 21 q9 3 17 3q34 0 53 -53q12 -47 19 -81q11 -52 42 -163l2 6q15 55 56 196q7 24 23 43q20 24 41 24q9 0 18 -5q53 -23 66 -29q30 -16 58 -42l71 -49q55 -38 55 -61q0 -4 -10 -32.5t-14 -39.5zM627 750q-2 -1 -3 -2q-8 -6 -38 -111l-33 -114q-10 -33 -27 -76q-7 -18 -23 -18 t-23 20q-24 66 -78 289q-7 27 -13 40q-2 1 -3 1q-23 -7 -119 -18q-110 -12 -155 -22q-79 -17 -87 -43q-1 -1 23 -78q9 -27 25.5 -80.5t38.5 -160.5t38 -160q3 -11 43 -169q14 -50 47 -171q18 -6 62 -9q38 -3 140 -22q96 -18 143 -18q25 0 46 4l1 1q14 86 50 203l62 199 q18 64 54 203q1 4 18 87q11 52 24 87q-43 30 -128 99q-14 11 -85 39z" />
<glyph unicode="w" horiz-adv-x="1444" d="M494 567l57 206q6 21 77 29q16 2 88.5 4t152.5 10q15 1 31.5 -6t21.5 -20q16 -46 38 -131q24 -91 37 -131q15 63 19 78q12 43 28 75q13 35 25 71q14 28 72 36l88 12q12 2 69 18q42 11 69 11q84 0 84 -68q0 -7 -2 -15q-21 -161 -114 -437q-124 -371 -147 -484 q-5 -24 -38 -36q-27 -10 -56 -9l-42 1h-127q-73 0 -111 7q-74 14 -86 55q-11 37 -22 106q-13 74 -21 106l-62 -238q-10 -38 -73 -38q-27 0 -72 8l-118 21q-59 3 -168 21q-29 9 -36 34l1 -1q-4 19 -15 71q-5 18 -26 108q-19 81 -56 244q-33 144 -66 258q-17 60 -17 88 q0 38 35 57q20 12 69 21q172 32 268 97q21 14 37 14q37 0 72 -111q8 -25 36 -142zM385 767q-10 -2 -43 -22q-29 -18 -53 -26q-79 -27 -198 -59q-51 -9 -65 -21q-3 -6 67 -293l72 -294q8 -31 26 -111q3 -18 13 -63q22 -6 62 -9q44 -3 63 -7q143 -32 226 -32q16 0 20 3 q20 79 41 157q24 92 46 156q10 15 26 15q20 0 36 -50q2 -8 15 -69q7 -35 20 -104q17 -87 24 -89q60 -18 142 -18l171 -1q27 0 43 9q23 111 149 486q89 264 112 428q1 7 1 11q-13 17 -35 17q-9 0 -71 -19q-29 -9 -89 -15t-88 -14q-6 -2 -16 -34q-6 -20 -13 -40 q-19 -39 -36 -108q-19 -81 -28 -110q-7 -22 -23 -22q-14 0 -23 18q-29 60 -57 163q-39 146 -46 166q-38 -5 -141 -8q-89 -3 -140 -13l-36 -140l-22 -86q-23 -69 -47 -69q-16 0 -22 20q-9 29 -38 149q-23 94 -45 148z" />
<glyph unicode="x" horiz-adv-x="919" d="M512 736l13 18q28 39 39 49q25 23 57 23q17 0 61 -7q110 -17 202 -20q16 0 26 -19q10 -15 10 -32q0 -8 -3 -14q-49 -99 -191 -262q94 -168 175 -302q43 -71 43 -90q0 -23 -27.5 -44t-82.5 -62q-114 -86 -224 -183q-12 -11 -34 -11q-23 0 -34 15l-3 5q-41 91 -116 230 q-18 -14 -74 -68q-44 -42 -78 -63q-16 -10 -29 -10q-18 0 -43 22l-38 36q-45 39 -109 89q-28 14 -28 40q0 27 27 63q14 17 42 52q20 25 75 106l-1 2q-24 43 -85 156q-16 30 -65 138q-20 65 -40 124q-4 12 -4 20q0 39 53 57q43 15 85 10q34 -4 130 12q108 18 151 18 q78 0 100 -39q8 -14 20 -59zM869 750q-41 1 -121 12.5t-119 12.5q-18 1 -24 -2q-9 -8 -51 -68q-32 -45 -50 -45q-22 0 -36 50q-10 37 -22 65q-32 9 -69 9q-41 0 -120.5 -15.5t-120.5 -15.5q-20 0 -30 1q-15 1 -42 -3t-38 -10q-1 -3 -1 -9q10 -34 39 -120q42 -114 107 -217 q46 -73 46 -100q0 -23 -21 -51t-63 -83q-24 -31 -58 -81l2 -1q48 -24 164 -139q16 0 91 73q53 51 84 75q8 6 15 6q14 0 22 -14q91 -168 132 -260l-3 5q-3 1 -5 4l-10 1h12q113 100 225 184q56 42 88 74q-16 35 -51 90q-43 69 -54 88q-32 55 -113 197q-9 15 3 28 q141 161 192 259z" />
<glyph unicode="y" horiz-adv-x="895" d="M503 608q16 67 44 159q15 50 72 50q12 0 22 -3q20 -6 86 -20q104 -22 169 -76q22 -19 22 -43q0 -23 -40 -109q-37 -78 -134 -282q-7 -14 -49 -145q-35 -107 -71 -188q-69 -154 -117 -165l-9 -2q-6 -2 -13 -2q-22 0 -49 20q-5 3 -41 35l-125 112q-92 88 -86 120 q5 25 78 144q-43 81 -115 187l-124 182q-46 68 -46 114q0 21 15 26q16 11 52 28q46 10 134 38q82 41 109 41q15 0 24 -8q48 -41 100 -103zM869 672q-62 50 -120 66q-44 10 -132 31h-3q-11 -7 -20 -17q-16 -63 -53 -191l-3 -5q-11 -18 -30 -18q-15 0 -64 59q-18 24 -56 70 q-60 72 -106 112q-28 -12 -85 -37q-47 -20 -89 -23q-24 -8 -71 -28l-8 -5q21 -63 80 -145q84 -117 96 -136q21 -33 63 -100q49 -81 44 -101q-6 -21 -32.5 -57.5t-32.5 -57.5l-12 -24v-1q30 -40 118 -123q93 -88 132 -109l12 3q79 98 151 319q45 139 51 151q39 82 133 282 q21 45 37 83v2z" />
<glyph unicode="z" horiz-adv-x="864" d="M563 262q27 -1 62 -6q13 -2 75 -17q76 -9 165 -26q19 -12 18 -33q-16 -88 -28 -194q-2 -33 -9 -98q-9 -70 -32 -85q-37 -24 -197 -24q19 0 -325 13q-49 0 -148 1q-94 2 -138 29q-21 13 -21 44q0 39 47 137q16 45 51 134q42 93 101 222l-177 1l-23 17q1 -1 2 -3 q-11 15 -8 26q34 136 78 332q11 49 27 69q23 29 67 27q79 -4 286 -14q25 -1 69 2q50 3 69 3q153 0 147 -95q-1 -17 -27 -99q-23 -72 -34 -102q-33 -88 -97 -261zM831 169q-93 10 -143 22q-53 8 -105 16q-76 14 -76 40q0 4 1 9q54 136 127 354q5 16 22 63l2 5q13 35 13 51 q0 45 -118 41q-11 0 -61 -4q-37 -3 -60 -2q-13 1 -116 7q-117 7 -156 7q-27 0 -33 -2q-14 -13 -23 -55q-39 -187 -77 -312h195q26 0 26 -22q0 -7 -3 -13q-49 -106 -117 -257q-15 -52 -52 -135q-41 -93 -43 -119q28 -18 125 -20q45 0 135 -1l335 -13q130 0 156 16q2 8 20 146 q8 51 26 178z" />
<glyph unicode="&#xad;" d="M560 205q-6 -4 -17 -9q-60 -3 -214 -16q-37 -6 -111 -19q-89 -15 -150 -15q-20 0 -38 1t-19 45q0 13 -1 40q-9 147 -6 174q28 22 119 26l126 8q94 5 175 5h85q3 1 7 5q13 -10 16 -39q1 -13 3 -38q6 -49 25 -168z" />
<glyph unicode="&#x2000;" horiz-adv-x="417" />
<glyph unicode="&#x2001;" horiz-adv-x="835" />
<glyph unicode="&#x2002;" horiz-adv-x="417" />
<glyph unicode="&#x2003;" horiz-adv-x="835" />
<glyph unicode="&#x2004;" horiz-adv-x="278" />
<glyph unicode="&#x2005;" horiz-adv-x="208" />
<glyph unicode="&#x2006;" horiz-adv-x="139" />
<glyph unicode="&#x2007;" horiz-adv-x="139" />
<glyph unicode="&#x2008;" horiz-adv-x="104" />
<glyph unicode="&#x2009;" horiz-adv-x="167" />
<glyph unicode="&#x200a;" horiz-adv-x="46" />
<glyph unicode="&#x2010;" d="M560 205q-6 -4 -17 -9q-60 -3 -214 -16q-37 -6 -111 -19q-89 -15 -150 -15q-20 0 -38 1t-19 45q0 13 -1 40q-9 147 -6 174q28 22 119 26l126 8q94 5 175 5h85q3 1 7 5q13 -10 16 -39q1 -13 3 -38q6 -49 25 -168z" />
<glyph unicode="&#x2011;" d="M560 205q-6 -4 -17 -9q-60 -3 -214 -16q-37 -6 -111 -19q-89 -15 -150 -15q-20 0 -38 1t-19 45q0 13 -1 40q-9 147 -6 174q28 22 119 26l126 8q94 5 175 5h85q3 1 7 5q13 -10 16 -39q1 -13 3 -38q6 -49 25 -168z" />
<glyph unicode="&#x2012;" d="M560 205q-6 -4 -17 -9q-60 -3 -214 -16q-37 -6 -111 -19q-89 -15 -150 -15q-20 0 -38 1t-19 45q0 13 -1 40q-9 147 -6 174q28 22 119 26l126 8q94 5 175 5h85q3 1 7 5q13 -10 16 -39q1 -13 3 -38q6 -49 25 -168z" />
<glyph unicode="&#x2013;" horiz-adv-x="532" d="M503 205q-5 -4 -15 -9q-54 -3 -192 -16q-34 -6 -100 -19q-80 -15 -135 -15q-18 0 -34 1t-17 45q0 13 -1 40q-8 147 -5 174q25 22 107 26q56 4 113 8q84 5 157 5h76q3 1 6 5q12 -10 15 -39q1 -13 3 -38q5 -49 22 -168z" />
<glyph unicode="&#x2014;" horiz-adv-x="1032" d="M1003 205q-11 -4 -31 -9q-107 -3 -384 -16q-66 -6 -199 -19q-160 -15 -270 -15q-36 0 -68 1t-34 45q0 13 -2 40q-16 147 -11 174q51 22 214 26l226 8q169 5 315 5h152q6 1 13 5q23 -10 29 -39q2 -13 5 -38q11 -49 45 -168z" />
<glyph unicode="&#x202f;" horiz-adv-x="167" />
<glyph unicode="&#x205f;" horiz-adv-x="208" />
<glyph unicode="&#xe000;" horiz-adv-x="835" d="M0 835h835v-835h-835v835z" />
</font>
</defs>
</svg>
