<?xml version="1.0" standalone="no"?>
<!DOCTYPE svg PUBLIC "-//W3C//DTD SVG 1.1//EN" "http://www.w3.org/Graphics/SVG/1.1/DTD/svg11.dtd" >
<svg xmlns="http://www.w3.org/2000/svg">
<metadata></metadata>
<defs>
<font id="dustismo_italic" horiz-adv-x="1111" >
<font-face units-per-em="2048" ascent="1638" descent="-410" />
<missing-glyph horiz-adv-x="724" />
<glyph horiz-adv-x="2048" />
<glyph horiz-adv-x="2048" />
<glyph unicode="&#xd;" horiz-adv-x="724" />
<glyph unicode=" "  horiz-adv-x="724" />
<glyph unicode="&#x09;" horiz-adv-x="724" />
<glyph unicode="&#xa0;" horiz-adv-x="724" />
<glyph unicode="!" horiz-adv-x="428" d="M72 302l218 1049h130l-218 -1049h-130zM97 140q58 0 58 -55q0 -34 -26.5 -59.5t-60.5 -25.5q-58 0 -58 55q0 34 26.5 59.5t60.5 25.5z" />
<glyph unicode="&#x22;" horiz-adv-x="627" d="M484 898h-130l95 457h130zM178 898h-130l95 457h130z" />
<glyph unicode="#" horiz-adv-x="1146" d="M740 591h-213l-99 -207h216zM248 725h200l109 232h138l-106 -232h214l108 232h136l-107 -232h181l-61 -134h-183l-96 -207h182l-63 -134h-182l-116 -250h-139l118 250h-215l-116 -250h-137l116 250h-206l67 134h200l97 207h-203z" />
<glyph unicode="$" horiz-adv-x="910" d="M445 327q88 0 150 36q76 44 76 126q0 130 -165 130zM455 1018q-83 0 -145 -46q-67 -52 -67 -133q0 -103 154 -103zM589 1018l-58 -282q112 0 185 -53q81 -60 81 -169q0 -148 -119 -239q-108 -82 -260 -82l-40 -193h-134l40 193q-251 0 -265 210h141q21 -76 151 -76 l61 292q-108 0 -178 42q-84 51 -84 152q0 148 115 245q107 89 258 94l42 203h134l-42 -203q265 0 274 -214h-141q-31 80 -161 80z" />
<glyph unicode="%" horiz-adv-x="1086" d="M953 1355l-679 -1355h-141l682 1355h138zM806 524q92 0 154 -56q65 -59 65 -150q0 -126 -100 -222t-227 -96q-94 0 -156 55.5t-62 148.5q0 129 98.5 224.5t227.5 95.5zM779 391q-63 0 -112.5 -47t-49.5 -109q0 -45 31.5 -73t76.5 -28q63 0 113 46.5t50 108.5 q0 45 -31.5 73.5t-77.5 28.5zM388 1355q93 0 156 -55q65 -58 65 -150q0 -127 -101 -222.5t-229 -95.5q-92 0 -155.5 57t-63.5 149q0 126 100.5 221.5t227.5 95.5zM361 1222q-66 0 -115 -46t-49 -111q0 -46 31.5 -73.5t78.5 -27.5q63 0 115 46.5t52 108.5q0 45 -34 74t-79 29 z" />
<glyph unicode="&#x26;" horiz-adv-x="925" d="M375 794q0 -78 75 -164q197 72 197 212q0 96 -109 96q-163 0 -163 -144zM684 257q60 50 67 105h138q-21 -102 -148 -214l45 -79l-126 -73l-40 69q-121 -64 -305 -64q-109 0 -186.5 75t-77.5 183q0 216 257 329q-22 44 -45 88q-24 53 -24 94q0 130 97 215q92 81 224 81 q93 0 149.5 -53t56.5 -145q0 -125 -75 -209q-56 -63 -185 -126zM365 496q-178 -65 -178 -218q0 -71 49 -111q46 -37 118 -37q132 0 211 37z" />
<glyph unicode="'" horiz-adv-x="281" d="M158 898h-130l95 457h130z" />
<glyph unicode="(" horiz-adv-x="616" d="M610 1355l-22 -109q-179 -69 -310 -569q-107 -407 -107 -688q0 -235 97 -279l-22 -109q-198 47 -198 455q0 335 137 740q170 503 425 559z" />
<glyph unicode=")" horiz-adv-x="615" d="M6 -401l23 109q179 69 309 570q106 407 106 687q0 235 -97 279l23 109q197 -47 197 -454q0 -334 -137 -740q-170 -504 -424 -560z" />
<glyph unicode="*" horiz-adv-x="757" d="M469 533l63 -167l-116 -60l-61 166l-131 -167l-91 60l132 168h-206l25 119h204l-68 186l115 59l69 -188l147 187l91 -59l-146 -185h202l-25 -119h-204z" />
<glyph unicode="+" horiz-adv-x="739" d="M37 589h282l62 299h131l-62 -299h278l-27 -130h-278l-61 -292h-131l61 292h-282z" />
<glyph unicode="," horiz-adv-x="359" d="M239 214q38 0 64 -25t26 -63q0 -102 -96.5 -202t-198.5 -109l-3 58q131 47 150 115q-88 5 -88 92q0 55 46 96q44 38 100 38z" />
<glyph unicode="-" horiz-adv-x="674" d="M89 660h523l-27 -130h-523z" />
<glyph unicode="." horiz-adv-x="321" d="M184 220q89 0 89 -86q0 -53 -40.5 -93.5t-93.5 -40.5q-38 0 -64 24t-26 62q0 53 41 93.5t94 40.5z" />
<glyph unicode="/" horiz-adv-x="831" d="M826 1355l-680 -1355h-141l684 1355h137z" />
<glyph unicode="0" horiz-adv-x="1012" d="M402 -22q-134 0 -233 83q-104 89 -104 221q0 59 22 162l38 162q38 180 170 278q128 95 315 95q133 0 232 -85q105 -89 105 -220q0 -59 -22 -162q-19 -80 -38 -161q-37 -178 -171 -277q-128 -96 -314 -96zM816 657q0 95 -72 147q-63 45 -162 45q-107 0 -203 -65 q-101 -69 -122 -170l-38 -162q-24 -110 -24 -159q0 -86 71 -138q64 -47 153 -47q111 0 210 66q106 71 128 175l36 154q23 102 23 154z" />
<glyph unicode="1" horiz-adv-x="530" d="M214 760l20 98q123 0 148 99h90l-171 -827h70l-27 -130h-288l27 130h88l131 630h-88z" />
<glyph unicode="2" horiz-adv-x="1072" d="M869 0h-834l27 130q52 252 313 305q148 30 192 40q109 27 186 62q135 60 135 142q0 170 -237 170q-109 0 -208 -45q-120 -55 -139 -148h-132q16 154 182 245q141 78 310 78q141 0 241 -63q118 -75 118 -207q0 -183 -237 -289q-119 -53 -396 -108q-159 -32 -195 -182h701z " />
<glyph unicode="3" horiz-adv-x="1048" d="M443 789l-94 75q141 115 313 115q135 0 223 -90.5t88 -225.5q0 -100 -69 -188t-166 -109q200 -72 200 -282q0 -201 -166 -340q-157 -131 -362 -131q-151 0 -254 89q-107 94 -107 243q0 27 4 55h132q-6 -22 -6 -48q0 -209 258 -209q146 0 256 91q116 97 116 241 q0 119 -102 176q-81 46 -209 46l27 127q120 2 212 61q108 70 108 183q0 85 -64 135q-58 46 -145 46q-105 0 -189 -60h-4z" />
<glyph unicode="4" horiz-adv-x="930" d="M592 130l139 673l-557 -673h418zM893 957l-171 -827h100l-27 -130h-100l-83 -399h-130l83 399h-561l27 130l675 827h187z" />
<glyph unicode="5" horiz-adv-x="1005" d="M519 380q-148 0 -258 -91h-107l138 668h673l-27 -130h-543l-76 -366q115 49 227 49q164 0 276 -97q117 -102 117 -264q0 -230 -173 -391q-169 -157 -400 -157q-202 0 -328 152l41 197q35 -98 116.5 -158.5t183.5 -60.5q167 0 300 127.5t133 294.5q0 114 -93 175 q-80 52 -200 52z" />
<glyph unicode="6" horiz-adv-x="1013" d="M250 679q188 110 327 110q151 0 254 -75q114 -85 114 -231q0 -222 -157 -356q-150 -127 -375 -127q-164 0 -261 80q-103 86 -103 247q0 105 31 265q51 267 292 514t554 247l-27 -130q-208 0 -402 -174q-179 -160 -247 -370zM583 659q-161 0 -273 -79q-125 -90 -125 -245 q0 -104 79 -158q69 -47 177 -47q147 0 255 87q115 93 115 237q0 91 -70 150q-65 55 -158 55z" />
<glyph unicode="7" horiz-adv-x="1049" d="M173 957h781q20 0 38 -20t18 -40q0 -23 -8 -37q-51 -71 -151 -209l-778 -1083q-24 18 -106 75l852 1185h-651z" />
<glyph unicode="8" horiz-adv-x="1069" d="M874 1059q0 76 -56 123q-53 43 -130 43q-120 0 -212 -86t-92 -204q0 -75 59 -116q52 -36 130 -36q123 0 210 76q91 79 91 200zM577 648q-148 0 -261 -80q-126 -90 -126 -232q0 -102 82 -158q71 -48 177 -48q141 0 251 91q117 97 117 235q0 97 -75 148q-64 44 -165 44z M422 0q-158 0 -255 84q-104 89 -104 244q0 258 281 397q-89 80 -89 200q0 171 139 302q137 128 309 128q124 0 211 -77q91 -80 91 -202q0 -217 -205 -351q149 -93 149 -250q0 -201 -166 -341q-157 -134 -361 -134z" />
<glyph unicode="9" horiz-adv-x="1012" d="M764 300q-188 -110 -327 -110q-150 0 -254 75q-116 84 -116 229q0 223 158 358q149 127 376 127q150 0 251 -86q107 -92 107 -239q0 -431 -326 -808q-219 -252 -525 -247h-24l27 130q208 0 405 187q179 170 248 384zM828 631q0 101 -79 162q-73 56 -176 56 q-154 0 -261 -92q-112 -96 -112 -248q0 -87 62 -140q59 -50 147 -50q157 0 278 76q141 89 141 236z" />
<glyph unicode=":" horiz-adv-x="431" d="M315 962q38 0 63.5 -24.5t25.5 -62.5q0 -52 -41.5 -93t-93.5 -41q-89 0 -89 87q0 52 41 93t94 41zM161 225q38 0 64 -24.5t26 -62.5q0 -53 -41.5 -93.5t-94.5 -40.5q-89 0 -89 86q0 52 41.5 93.5t93.5 41.5z" />
<glyph unicode=";" horiz-adv-x="486" d="M376 962q37 0 63.5 -25t26.5 -62q0 -52 -42 -93t-94 -41q-38 0 -64 24.5t-26 62.5q0 53 41.5 93.5t94.5 40.5zM220 208q38 0 64 -25t26 -62q0 -102 -97 -202.5t-198 -109.5l-3 58q131 47 150 115q-88 5 -88 92q0 55 46 96q44 38 100 38z" />
<glyph unicode="&#x3c;" horiz-adv-x="650" d="M584 976l-452 -401l287 -397l-37 -178l-373 492l35 171l577 491z" />
<glyph unicode="=" horiz-adv-x="836" d="M81 452h637l-27 -130h-637zM145 756h637l-27 -130h-637z" />
<glyph unicode="&#x3e;" horiz-adv-x="650" d="M268 1154l373 -491l-35 -171l-577 -492l37 178l451 397l-286 401z" />
<glyph unicode="?" horiz-adv-x="755" d="M220 300h-131q42 201 48 220q35 125 96 201q52 65 153 116q116 58 141 80q61 55 61 157q0 148 -168 148q-208 0 -257 -223h-133q32 152 146 252q118 104 271 104q118 0 200.5 -74t82.5 -191q0 -235 -212 -327q-39 -15 -117 -48q-61 -27 -105 -119q-27 -55 -47 -146 q-14 -75 -29 -150zM123 140q58 0 58 -55q0 -34 -26.5 -59.5t-60.5 -25.5q-58 0 -58 55q0 34 26.5 59.5t60.5 25.5z" />
<glyph unicode="@" horiz-adv-x="1659" d="M1417 1066q-265 -646 -265 -665q0 -44 56 -44q32 0 100 84q65 80 109 208t44 232q0 101 -44 185zM1152 228q-137 0 -137 134q0 18 3 37q-171 -163 -389 -163q-134 0 -218 78q-87 80 -87 213q0 237 220 434q214 191 453 191q206 0 256 -165l47 107h102q-124 207 -407 207 q-309 0 -550.5 -238.5t-241.5 -547.5q0 -184 113 -312q117 -133 299 -133t414 120l40 -118q-257 -133 -480 -133q-230 0 -378 161q-143 157 -143 389q0 369 289 657t659 288q236 0 403 -139q177 -148 177 -379q0 -204 -119 -427q-139 -261 -325 -261zM942 1029 q-177 0 -330 -144q-155 -147 -155 -323q0 -97 69 -151q63 -49 163 -49q176 0 323 148.5t147 325.5q0 93 -63 145q-59 48 -154 48z" />
<glyph unicode="A" horiz-adv-x="1036" d="M741 1127l-251 -480h300zM8 2l598 1148q37 75 116 222q24 41 57 41q62 0 68 -57l139 -1370q-35 -2 -129 -5l-55 537h-379l-298 -573z" />
<glyph unicode="B" horiz-adv-x="1110" d="M293 591l-95 -461h357q126 0 244 76q132 86 132 206q0 179 -281 179h-357zM425 1225l-104 -500h299q138 0 250 84q120 92 120 227q0 97 -87 147q-71 42 -175 42h-303zM748 1355q150 0 254 -74q116 -84 116 -229q0 -265 -247 -386q185 -77 185 -235q0 -186 -175 -314 q-161 -117 -353 -117h-487l281 1355h426z" />
<glyph unicode="C" horiz-adv-x="1110" d="M737 1379q176 0 282 -114.5t103 -291.5v-17h-128q1 130 -77 211.5t-207 81.5q-158 0 -282 -114q-117 -109 -150 -268l-79 -377q-10 -50 -10 -94q0 -129 78 -208.5t206 -79.5q133 0 246 85q108 81 160 208h128q-70 -180 -218 -297q-159 -126 -343 -126q-176 0 -283 117 q-103 114 -103 292q0 58 13 119l71 345q44 213 208 367q173 161 385 161z" />
<glyph unicode="D" horiz-adv-x="1094" d="M168 130h296q166 0 285 119q110 109 145 279l48 212q29 137 29 218q0 129 -75 198t-205 69h-296zM718 1355q171 0 278 -118q104 -113 104 -286q0 -82 -28 -213l-48 -210q-110 -528 -587 -528h-426l281 1355h426z" />
<glyph unicode="E" horiz-adv-x="1064" d="M1081 1355l-27 -130h-661l-89 -428h531l-27 -130h-531l-111 -537h661l-27 -130h-791l281 1355h791z" />
<glyph unicode="F" horiz-adv-x="1081" d="M1081 1355l-27 -130h-661l-88 -424h531l-28 -134h-531l-138 -667h-130l281 1355h791z" />
<glyph unicode="G" horiz-adv-x="1079" d="M758 0l29 141q-170 -163 -387 -163q-176 0 -283 117q-103 114 -103 292q0 58 13 119l71 345q46 222 205 371q167 157 388 157q176 0 283 -117q103 -114 103 -292q0 -58 -13 -119h-130q14 64 14 119q0 135 -74.5 207t-209.5 72q-131 0 -262 -112q-138 -118 -170 -270 l-79 -377q-11 -53 -11 -100q0 -134 75.5 -208t209.5 -74q161 0 284 116q116 110 151 272h-288q8 43 26 129h360q17 0 32.5 -19.5t12.5 -36.5l-118 -569h-129z" />
<glyph unicode="H" horiz-adv-x="1110" d="M421 1355l-147 -708h570l147 708h130l-281 -1355h-130l107 517h-570l-107 -517h-130l281 1355h130z" />
<glyph unicode="I" horiz-adv-x="755" d="M31 130h171l227 1096h-171l27 129h479l-27 -129h-176l-227 -1096h176l-27 -130h-479z" />
<glyph unicode="J" horiz-adv-x="1033" d="M725 1355h326l-206 -993q-36 -172 -172 -278t-314 -106q-139 0 -238 88q-103 92 -103 229q0 36 34 200h130q-35 -170 -35 -183q0 -91 75 -150q69 -54 162 -54q110 0 209 77t121 184l178 856h-194z" />
<glyph unicode="K" horiz-adv-x="1187" d="M1183 1310l-617 -509l396 -765l-111 -67l-387 748q-72 -58 -214 -176q-34 -163 -113 -547q-43 5 -129 16l281 1353l129 -16l-126 -603l816 672z" />
<glyph unicode="L" horiz-adv-x="894" d="M427 1355l-254 -1225h596l-27 -130h-726l281 1355h130z" />
<glyph unicode="M" horiz-adv-x="1434" d="M1023 3l226 1091l-258 -342q-85 -116 -260 -341q-27 -32 -53 -32q-44 0 -65 46q-42 123 -118 345l-119 344l-234 -1127q-43 5 -129 16l282 1359q13 62 64 62q40 0 59 -36q12 -36 36 -105l242 -703l624 821q16 22 54 22q24 0 42.5 -20.5t18.5 -45.5q0 -6 -1 -11 l-282 -1359z" />
<glyph unicode="N" horiz-adv-x="1218" d="M-6 3l270 1302q13 62 64 62q38 0 59 -36q27 -60 79 -177l405 -914l232 1117q43 -5 129 -16l-231 -1110q-11 -74 -44 -214q-17 -52 -61 -52q-42 0 -65 46q-9 17 -240 541l-239 540l-229 -1105z" />
<glyph unicode="O" horiz-adv-x="1095" d="M140 379q0 -126 72.5 -198.5t198.5 -72.5q160 0 289 113q126 109 159 269l79 377q14 68 14 119q0 125 -83 196q-77 67 -205 67q-145 0 -268 -109q-131 -117 -164 -273l-79 -377q-13 -60 -13 -111zM400 -22q-177 0 -283 117q-103 114 -103 292q0 58 13 119l71 345 q45 220 205 370q169 158 388 158q175 0 282 -120q103 -115 103 -292q0 -56 -12 -116l-71 -345q-46 -225 -203 -372q-166 -156 -390 -156z" />
<glyph unicode="P" horiz-adv-x="1110" d="M234 517l-107 -517h-132l281 1355h384q176 0 303 -85q146 -97 146 -265q0 -234 -202 -370q-176 -118 -421 -118h-252zM381 1225l-120 -578h252q177 0 311 86q156 99 156 267q0 123 -119 181q-89 44 -228 44h-252z" />
<glyph unicode="Q" horiz-adv-x="1079" d="M636 387q60 -52 122 -104q78 99 101 207l79 377q14 68 14 119q0 126 -83 196q-78 67 -205 67q-145 0 -268 -109q-131 -117 -164 -273l-79 -377q-13 -60 -13 -111q0 -126 72 -198.5t198 -72.5q145 0 255 84q-30 25 -113 96zM854 201q38 -33 115 -97l-84 -99 q-41 34 -122 103q-160 -130 -363 -130q-176 0 -283 117q-103 114 -103 292q0 58 13 119l71 345q45 220 205 370q169 158 388 158q175 0 282 -119q103 -115 103 -293q0 -56 -12 -116l-71 -345q-35 -169 -139 -305z" />
<glyph unicode="R" horiz-adv-x="1110" d="M382 1229l-121 -582h271q161 0 295 89q152 101 152 254q0 122 -118 186q-95 53 -227 53h-252zM234 517l-107 -517h-132l281 1355h384q173 0 302 -87q147 -99 147 -264q0 -198 -143 -326q-130 -116 -334 -142l186 -536h-152l-180 517h-252z" />
<glyph unicode="S" horiz-adv-x="1109" d="M258 955q0 -83 62 -134q36 -30 268 -82q191 -44 259 -82q131 -73 131 -219q0 -218 -185 -347q-163 -113 -391 -113q-163 0 -277 82q-127 91 -127 248q0 29 4 61h130q-7 -36 -7 -65q0 -105 104 -157q81 -39 198 -39q152 0 274 73q144 86 144 227q0 127 -186 181 q-173 46 -346 91q-187 76 -187 253q0 103 67 216t218 175q132 55 279 55q170 0 284 -78q132 -90 132 -253q0 -30 -6 -60h-130q5 25 5 51q0 210 -301 210q-260 0 -359 -145q-57 -82 -57 -149z" />
<glyph unicode="T" horiz-adv-x="1018" d="M570 1225l-254 -1225h-130l254 1225h-407l27 130h954l-27 -130h-417z" />
<glyph unicode="U" horiz-adv-x="1141" d="M317 1355l-180 -867q-13 -60 -13 -111q0 -122 72.5 -195.5t194.5 -73.5q158 0 287 115q124 111 157 269l179 863h130l-176 -849q-48 -233 -198 -375q-160 -153 -391 -153q-172 0 -279 119q-102 114 -102 288q0 58 13 121l176 849h130z" />
<glyph unicode="V" horiz-adv-x="1014" d="M177 1355l105 -1123l581 1123h142l-686 -1355h-141l-125 1355h124z" />
<glyph unicode="W" horiz-adv-x="1310" d="M206 1358l-22 -1012q121 256 454 964q19 41 57 41q57 0 68 -57q0 -1 7 -139l39 -812l413 1031l117 -57l-448 -1117q-24 -71 -76 -190q-19 -32 -59 -32q-55 0 -62 68l-23 489l-24 489l-401 -850q-23 -59 -77 -164q-21 -32 -59 -32q-25 0 -43.5 21.5t-18.5 46.5 q0 128 6 326q8 285 9 327l14 654z" />
<glyph unicode="X" horiz-adv-x="1187" d="M1192 1320l-524 -653l240 -638l-120 -48l-214 569l-466 -583q-25 18 -106 75l520 648l-241 644l120 48l215 -574l470 587z" />
<glyph unicode="Y" horiz-adv-x="951" d="M164 1382q70 -191 212 -571l463 584q36 -25 106 -75l-529 -666l-138 -667l-129 16l139 672l-244 659z" />
<glyph unicode="Z" horiz-adv-x="1171" d="M292 1352h838q20 0 38.5 -20.5t18.5 -41.5q0 -23 -23 -52q-51 -60 -154 -179l-798 -930h705q-2 -35 -5 -129h-837q-26 0 -46.5 18t-20.5 44q0 25 14 45q53 61 155 180l803 936h-693z" />
<glyph unicode="[" horiz-adv-x="726" d="M656 1222h-160l-308 -1480h160l-28 -133h-227l-51 64l335 1613l79 69h227z" />
<glyph unicode="\" horiz-adv-x="308" d="M161 1355l122 -1355h-141l-118 1355h137z" />
<glyph unicode="]" horiz-adv-x="666" d="M368 1355h223l56 -64l-336 -1618l-83 -64h-223l28 133h158l308 1480h-158z" />
<glyph unicode="^" horiz-adv-x="909" d="M21 877l439 478h167l243 -478h-163l-186 365l-337 -365h-163z" />
<glyph unicode="_" horiz-adv-x="1021" d="M91 130h866l-27 -130h-866z" />
<glyph unicode="`" horiz-adv-x="429" d="M327 1087l-322 268h235l156 -211z" />
<glyph unicode="a" horiz-adv-x="1143" d="M942 839q-33 2 -66 2q-260 0 -450 -100q-237 -125 -237 -362q0 -111 67 -189q71 -83 181 -83q163 0 272 85.5t144 243.5zM893 -16l-131 16l17 83q-142 -104 -330 -104q-172 0 -281 115q-108 112 -108 286q0 298 277 459q229 133 549 133q199 0 199 -75q0 -7 -2 -15z" />
<glyph unicode="b" horiz-adv-x="1087" d="M183 112q33 -1 66 -1q263 0 452 101q235 127 235 369q0 111 -67 189q-71 83 -181 83q-163 0 -271 -85q-111 -86 -145 -244zM445 1357l-99 -480q143 104 330 104q172 0 280.5 -113.5t108.5 -287.5q0 -302 -275 -465q-228 -136 -551 -136q-199 0 -199 75q0 7 2 15l271 1288 h132z" />
<glyph unicode="c" horiz-adv-x="1026" d="M172 373q0 -116 85 -190q81 -71 198 -71q193 0 334 144l108 -75q-186 -199 -435 -199q-174 0 -294 106q-124 111 -124 284q0 112 31 203q62 171 219 287q161 118 340 118q117 0 216 -53q103 -56 158 -155l-121 -51q-82 130 -251 130q-186 0 -325 -146t-139 -332z" />
<glyph unicode="d" horiz-adv-x="1156" d="M923 847q-32 1 -65 1q-262 0 -451 -102q-234 -127 -234 -367q0 -112 67 -190q71 -83 181 -83q162 0 272.5 86t143.5 243zM950 976l79 380h133q-62 -303 -287 -1372l-129 15l17 83q-142 -104 -330 -104q-172 0 -281 115q-108 112 -108 286q0 306 276 467q228 132 558 132 q36 0 72 -2z" />
<glyph unicode="e" horiz-adv-x="1072" d="M641 849q-163 0 -307 -111q-145 -114 -177 -272q214 55 641 171q35 10 53 33q28 35 30 80l-9 24q-55 75 -231 75zM156 331q21 -109 110 -168q81 -53 197 -53q213 0 382 194l92 -92q-90 -105 -213 -168q-131 -67 -262 -67q-185 0 -311 114q-130 119 -130 302 q0 226 187 406t414 180q152 0 253 -46q138 -61 138 -195q0 -107 -95 -184q-36 -29 -76 -40q-229 -61 -686 -183z" />
<glyph unicode="f" horiz-adv-x="585" d="M162 956h172q40 189 56 228q48 112 163 153q43 15 85 15q140 0 187 -124l-120 -48q-13 43 -71 43q-87 0 -127 -101q-11 -25 -40 -166h195l-27 -130h-195l-210 -1008q-17 -82 -71 -145q-62 -71 -139 -71l5 129q63 42 80 122l202 973h-172z" />
<glyph unicode="g" horiz-adv-x="1192" d="M1015 837q-33 2 -66 2q-260 0 -450 -100q-237 -125 -237 -362q0 -111 67 -190q71 -82 181 -82q163 0 272 85.5t144 243.5zM149 -55q54 -217 271 -217q143 0 276 106.5t156 246.5q-143 -104 -330 -104q-171 0 -280 113t-109 285q0 300 276 461q228 134 550 134 q199 0 199 -75q0 -7 -2 -15l-172 -799q-44 -205 -197 -341q-158 -141 -365 -141q-139 0 -244 72q-108 74 -146 205q57 32 117 69z" />
<glyph unicode="h" horiz-adv-x="1125" d="M167 0h-128l280 1353h132l-99 -480q142 104 330 104q180 0 287 -120q102 -115 102 -298q0 -31 -5 -54l-104 -505h-131l106 514q6 27 6 58q0 113 -67 193q-71 84 -182 84q-162 0 -272 -85.5t-144 -243.5z" />
<glyph unicode="i" horiz-adv-x="463" d="M384 1357q64 0 64 -60q0 -37 -29.5 -64.5t-66.5 -27.5q-64 0 -64 62q0 35 30 62.5t66 27.5zM107 957h257l-198 -957h-130l171 827h-127z" />
<glyph unicode="j" horiz-adv-x="545" d="M466 1355q64 0 64 -59q0 -38 -29 -65.5t-66 -27.5q-66 0 -66 62q0 35 31 62.5t66 27.5zM163 827l27 130h257l-220 -1055q-28 -133 -135.5 -217t-244.5 -84l27 134q80 0 143.5 45.5t79.5 121.5l192 923h-124q0 2 -2 2z" />
<glyph unicode="k" horiz-adv-x="869" d="M303 666q158 98 473 293q18 -24 75 -106l-314 -194l255 -659h-139l-227 590l-160 -99q-33 -164 -101 -491h-132l279 1345q43 -5 129 -16z" />
<glyph unicode="l" horiz-adv-x="417" d="M292 1355h132l-281 -1355h-132z" />
<glyph unicode="m" horiz-adv-x="1479" d="M1153 849q-130 0 -218 -126q-69 -97 -100 -245l-99 -478h-130l98 478q18 88 18 159q0 212 -160 212q-132 0 -224 -124q-73 -99 -104 -247l-99 -478h-130l198 957h130l-22 -106q117 128 278 128q208 0 235 -202q116 202 356 202q265 0 265 -320q0 -83 -20 -181l-99 -478 h-130l99 478q28 136 28 205q0 166 -170 166z" />
<glyph unicode="n" horiz-adv-x="1141" d="M173 -1h-128l198 957h132l-17 -84q142 104 330 104q180 0 287 -120q102 -115 102 -298q0 -31 -5 -54l-104 -505h-131l106 514q6 27 6 58q0 113 -67 193q-71 84 -182 84q-162 0 -272 -85.5t-144 -243.5z" />
<glyph unicode="o" horiz-adv-x="1140" d="M202 368q0 -116 85 -191q81 -70 199 -70q182 0 327 137.5t145 319.5q0 126 -83 204t-211 78q-184 0 -325 -148q-137 -145 -137 -330zM664 975q179 0 300 -113q123 -116 123 -294q0 -234 -180 -412.5t-415 -178.5q-174 0 -294 106q-124 111 -124 284q0 113 31 203 q62 171 219 287q161 118 340 118z" />
<glyph unicode="p" horiz-adv-x="1156" d="M359 835l-145 -698q75 -33 193 -33q194 0 356 129q173 138 173 326q0 148 -111 225q-96 66 -250 66q-114 0 -216 -15zM396 1013l-9 -44q45 8 178 8q104 0 193 -21q132 -31 221 -143.5t89 -247.5q0 -244 -209 -417q-197 -162 -446 -162q-121 0 -221 44l-93 -446 q-43 5 -129 16l250 1204q-51 -18 -90 -39l-57 117q83 43 177 65q5 27 17 82z" />
<glyph unicode="q" horiz-adv-x="1133" d="M950 842q-33 2 -66 2q-263 0 -452 -102q-235 -127 -235 -368q0 -112 67 -190q71 -83 181 -83q163 0 272.5 85.5t143.5 243.5zM688 -403l99 480q-142 -104 -330 -104q-172 0 -281 115q-108 112 -108 286q0 302 275 465q228 136 551 136q199 0 199 -75q0 -7 -2 -15 l-271 -1288h-132z" />
<glyph unicode="r" horiz-adv-x="920" d="M337 783q164 174 375 174h204l-36 -174q-94 44 -188 44q-148 0 -268 -101.5t-150 -247.5l-99 -478h-132l198 957h132z" />
<glyph unicode="s" horiz-adv-x="1019" d="M159 281l-1 -17q-6 -80 97 -122q78 -31 173 -31q101 0 199 42q124 53 124 140q0 59 -101 94q-63 21 -208 43q-139 20 -172 34q-59 23 -96 73q-40 53 -40 113q0 169 156 256q125 69 309 69q141 0 250 -55q136 -70 131 -195l-1 -24l-119 -27q-5 174 -305 174 q-104 0 -184 -39q-103 -49 -103 -142q0 -83 119 -109q124 -17 249 -34q156 -29 217 -115q30 -42 30 -104q0 -153 -163 -246q-138 -79 -303 -79q-146 0 -250 55q-131 69 -127 199l1 20z" />
<glyph unicode="t" horiz-adv-x="637" d="M388 957h241l-27 -130h-241l-123 -595q-3 -13 -3 -24q0 -78 82 -78h141l-27 -130h-141q-81 0 -134.5 49.5t-53.5 130.5q0 25 6 52l123 595h-150l27 130q112 0 147 49q20 28 46 157h130z" />
<glyph unicode="u" horiz-adv-x="1132" d="M959 956h128l-202 -972l-128 16l17 83q-142 -104 -330 -104q-180 0 -287 120q-102 115 -102 298q0 31 5 54l104 505h131l-106 -514q-6 -27 -6 -58q0 -113 67 -193q71 -84 182 -84q162 0 272 85.5t144 243.5z" />
<glyph unicode="v" horiz-adv-x="995" d="M154 984l256 -823l346 478q79 109 79 182q0 54 -48 72l48 120q131 -50 131 -196q0 -101 -70 -200q-130 -183 -309 -432q-46 -69 -144 -199q-28 -32 -56 -32q-48 0 -62 46l-291 936z" />
<glyph unicode="w" horiz-adv-x="1274" d="M651 959l122 -734l242 415q29 49 58 97q33 62 33 106q0 50 -50 69l48 120q131 -51 131 -187q0 -87 -103 -262l-338 -578q-19 -32 -57 -32q-18 0 -38 14.5t-23 31.5l-78 465l-291 -475q-20 -32 -57 -32q-18 0 -38 14.5t-23 31.5l-141 905l126 27l114 -730l278 453l-41 254 z" />
<glyph unicode="x" horiz-adv-x="1054" d="M1017 906q-135 -146 -406 -436q65 -126 229 -441l-111 -67q-48 91 -211 409l-392 -421l-92 92q98 105 420 451l-220 425l111 67l202 -392l378 405z" />
<glyph unicode="y" horiz-adv-x="984" d="M151 1004l256 -823l346 478q79 109 79 182q0 54 -48 72l48 120q131 -50 131 -196q0 -102 -70 -200l-440 -613q-11 -118 -37 -433q-43 5 -129 16l35 413l-291 936z" />
<glyph unicode="z" horiz-adv-x="1178" d="M282 954h776q20 0 38.5 -20.5t18.5 -40.5q0 -33 -23 -53l-820 -717q62 -4 203 -33q130 -26 202 -26q105 0 302 67q19 -66 37 -125q-221 -71 -349 -71q-56 0 -136 15q-67 14 -134 27q-95 7 -287 23q-67 7 -67 62q0 29 14 45q45 40 133 116l688 602h-601z" />
<glyph unicode="{" horiz-adv-x="535" d="M62 539q119 71 137 155q49 223 62 275q48 197 88 262q60 99 179 124l-5 -130q-77 -15 -118 -178q-35 -159 -69 -319q-51 -189 -146 -250q53 -47 53 -133q0 -91 -42 -269t-42 -267q0 -67 54 -78l-49 -130q-131 30 -131 166q0 104 26 249l50 246q3 14 3 26q0 69 -76 129z " />
<glyph unicode="|" horiz-adv-x="512" d="M503 1355l-362 -1742h-132l362 1742h132z" />
<glyph unicode="}" horiz-adv-x="535" d="M473 415q-119 -71 -137 -155q-49 -223 -62 -275q-49 -196 -89 -262q-60 -99 -179 -124l5 130q78 15 119 177q34 159 68 319q51 189 146 251q-53 46 -53 132q0 91 42 269.5t42 268.5q0 66 -53 77l49 130q130 -29 130 -165q0 -104 -26 -249q-25 -124 -50 -247 q-3 -14 -3 -26q0 -69 76 -129z" />
<glyph unicode="~" horiz-adv-x="741" d="M284 1196q57 0 113.5 -42.5t92.5 -42.5q38 0 92 81l114 -47q-98 -171 -239 -171q-70 0 -122 44t-82 44q-48 0 -95 -84l-113 51q96 167 239 167z" />
<glyph unicode="&#xa1;" horiz-adv-x="425" d="M352 1351q59 0 59 -55q0 -34 -27 -59.5t-61 -25.5q-57 0 -57 55q0 33 26 59t60 26zM369 1049l-218 -1049h-143l218 1049h143z" />
<glyph unicode="&#xa2;" horiz-adv-x="949" d="M522 916q-144 -28 -239 -130q-101 -107 -101 -249q0 -95 60 -159q57 -60 152 -77zM527 297q187 20 307 199l-44 -211q-140 -107 -291 -122l-33 -163h-134l34 167q-142 19 -228 109q-88 94 -88 235q0 204 149 359q145 150 350 178l30 144h134l-30 -144q154 -18 241 -117 l-44 -213q-42 169 -223 202z" />
<glyph unicode="&#xa3;" horiz-adv-x="1005" d="M255 160q-17 7 -25 7q-75 0 -75 -37q0 -21 43 -21q33 0 57 51zM973 109q-114 -109 -385 -109q-120 0 -236 98q-74 -98 -163 -98q-62 0 -106 22q-57 29 -57 85q0 73 77 119q67 39 151 39q22 0 41 -3q9 24 18 68l70 334h-132l27 133h132l69 329q42 202 235 202 q54 0 111 -19l-69 -126q-46 15 -73 15q-53 0 -70 -72l-69 -329h105l-27 -133h-105l-70 -334q-16 -77 -33 -117q115 -79 201 -79q204 0 274 63z" />
<glyph unicode="&#xa4;" horiz-adv-x="919" d="M501 812q-103 0 -181 -78t-78 -181q0 -73 48.5 -118.5t122.5 -45.5q105 0 184 79t79 184q0 75 -51 119q-48 41 -124 41zM211 793l-54 69l114 95l54 -69q104 57 204 57q104 0 184 -57l82 69l76 -95l-84 -69q24 -59 24 -122q0 -139 -104 -265l55 -68l-115 -95l-54 68 q-101 -56 -207 -56q-103 0 -181 56l-82 -68l-75 95l83 68q-25 56 -25 120q0 144 105 267z" />
<glyph unicode="&#xa5;" horiz-adv-x="1064" d="M473 812l433 543h151l-542 -674l-29 -138h209l-27 -133h-209l-25 -117h209l-27 -133h-209l-72 -345h-134l72 345h-234l27 133h234l25 117h-234l27 133h234l29 138l-261 674h151z" />
<glyph unicode="&#xa6;" horiz-adv-x="512" d="M9 -387l148 714h132l-148 -714h-132zM344 588h-132l159 767h132z" />
<glyph unicode="&#xa7;" horiz-adv-x="870" d="M566 1222q-77 0 -127.5 -46.5t-50.5 -123.5q0 -55 84 -127q77 -65 155 -131q83 -85 83 -174q0 -104 -76 -186q-72 -78 -177 -100q51 -44 103 -89q56 -57 56 -117q0 -134 -105.5 -227.5t-239.5 -93.5q-223 0 -223 208q0 44 11 98h136q-15 -22 -15 -75q0 -99 119 -99 q74 0 127.5 45t53.5 119q0 43 -52 90l-236 213q-43 39 -43 111q0 115 70.5 200t183.5 110q-50 44 -99 89q-48 53 -48 116q0 140 99 233q98 90 238 90q230 0 230 -207q0 -44 -11 -96h-137q16 35 16 75q0 95 -125 95zM286 562q0 -103 121 -103q67 0 117 35q57 39 57 105 q0 108 -123 108q-65 0 -116 -39q-56 -42 -56 -106z" />
<glyph unicode="&#xa8;" horiz-adv-x="696" d="M549 1159q35 0 57.5 -24t22.5 -59q0 -47 -37.5 -83t-84.5 -36q-82 0 -82 76q0 48 38 87t86 39zM188 1159q79 0 79 -83q0 -47 -37 -83t-84 -36q-80 0 -80 75q0 48 37.5 87.5t84.5 39.5z" />
<glyph unicode="&#xa9;" horiz-adv-x="1548" d="M855 996q-167 0 -288.5 -117.5t-121.5 -284.5q0 -117 81 -184q75 -62 194 -62q229 0 362 206l-45 -213q-159 -121 -344 -121q-164 0 -269 91q-111 95 -111 257q0 227 170 391.5t398 164.5q185 0 294 -121l-44 -213q-25 95 -100.5 150.5t-175.5 55.5zM913 1348 q236 0 392 -145q161 -148 161 -382q0 -323 -255 -572t-578 -249q-236 0 -392 147q-159 150 -159 384q0 323 254 570t577 247zM888 1228q-262 0 -472 -204.5t-210 -465.5q0 -191 132 -315q128 -120 320 -120q265 0 473.5 203t208.5 467q0 191 -132 315q-128 120 -320 120z " />
<glyph unicode="&#xab;" horiz-adv-x="1016" d="M931 793l-266 -281l151 -276l-37 -178l-341 459l530 454zM518 793l-266 -281l151 -276l-37 -178l-341 459l530 454z" />
<glyph unicode="&#xac;" horiz-adv-x="947" d="M37 829h851l-95 -448h-132l65 314h-717z" />
<glyph unicode="&#xad;" horiz-adv-x="674" d="M89 660h523l-27 -130h-523z" />
<glyph unicode="&#xae;" horiz-adv-x="1548" d="M913 1348q236 0 392 -145q161 -148 161 -382q0 -323 -255 -572t-578 -249q-236 0 -392 147q-159 150 -159 384q0 323 254 570t577 247zM888 1228q-262 0 -472 -204.5t-210 -465.5q0 -191 132 -315q128 -120 320 -120q265 0 473.5 203t208.5 467q0 191 -132 315 q-128 120 -320 120zM624 463l-42 -201h-134l179 862l262 3q112 0 186.5 -76t74.5 -188q0 -118 -68 -216q-65 -93 -174 -146l117 -239h-164l-97 201h-140zM652 597h140q86 0 156 77q67 75 67 163q0 59 -44.5 109t-104.5 50l-132 -4z" />
<glyph unicode="&#xaf;" horiz-adv-x="929" d="M95 1355h767l-27 -130h-767z" />
<glyph unicode="&#xb0;" horiz-adv-x="661" d="M383 1355q93 0 156 -55q65 -58 65 -150q0 -127 -101 -222.5t-229 -95.5q-92 0 -154 57t-62 148q0 126 99 222t226 96zM356 1222q-63 0 -113 -47.5t-50 -109.5q0 -46 31.5 -73.5t77.5 -27.5q64 0 116 46t52 109q0 46 -34 74.5t-80 28.5z" />
<glyph unicode="&#xb1;" horiz-adv-x="867" d="M148 971h280l62 297h134l-62 -297h276l-27 -132h-276l-61 -292h-134l61 292h-280zM45 517h703l-28 -133h-703z" />
<glyph unicode="&#xb2;" horiz-adv-x="2048" />
<glyph unicode="&#xb3;" horiz-adv-x="2048" />
<glyph unicode="&#xb4;" horiz-adv-x="564" d="M46 1144l244 211h235l-432 -268z" />
<glyph unicode="&#xb6;" horiz-adv-x="934" d="M371 957h536l-27 -130h-142l-171 -827h-131l171 827h-123l-171 -827h-131l66 319q-89 2 -141 76q-47 66 -47 159q0 131 88 260q98 143 223 143z" />
<glyph unicode="&#xb7;" horiz-adv-x="2048" />
<glyph unicode="&#xb8;" horiz-adv-x="356" d="M185 -190v2q1 11 -63 90l-80 98h129q9 -21 82 -71q61 -42 61 -104q0 -163 -202 -163l-44 113q57 14 117 35z" />
<glyph unicode="&#xb9;" horiz-adv-x="2048" />
<glyph unicode="&#xba;" horiz-adv-x="2048" />
<glyph unicode="&#xbb;" horiz-adv-x="1017" d="M651 971l341 -454l-530 -459l37 178l266 276l-151 281zM237 971l320 -454l-509 -459l37 178l265 276l-150 281z" />
<glyph unicode="&#xbc;" horiz-adv-x="2048" />
<glyph unicode="&#xbd;" horiz-adv-x="2048" />
<glyph unicode="&#xbf;" horiz-adv-x="771" d="M519 1355q59 0 59 -55q0 -34 -27 -59.5t-61 -25.5q-57 0 -57 55q0 33 26 59t60 26zM474 775q0 -95 67 -141q62 -33 125 -67q67 -48 67 -151q0 -166 -128.5 -291t-294.5 -125q-121 0 -200 73t-79 193q0 42 10 90h133q-8 -38 -8 -68q0 -74 48 -114.5t123 -40.5 q210 0 254 223q3 14 3 25q0 53 -66 95q-102 64 -122 85q-66 69 -66 191q0 59 50 303h131q-47 -234 -47 -280z" />
<glyph unicode="&#xc0;" horiz-adv-x="1150" d="M86 0zM819 1127l-251 -480h300zM86 2l598 1148q37 75 116 222q24 41 57 41q62 0 68 -57l139 -1370q-35 -2 -129 -5l-55 537h-379l-298 -573zM552 1452l-322 268h235l156 -211z" />
<glyph unicode="&#xc1;" horiz-adv-x="1136" d="M79 0zM812 1127l-251 -480h300zM79 2l598 1148q37 75 116 222q24 41 57 41q62 0 68 -57l139 -1370q-35 -2 -129 -5l-55 537h-379l-298 -573zM570 1514l244 211h235l-432 -268z" />
<glyph unicode="&#xc2;" horiz-adv-x="1136" d="M12 0zM745 1127l-251 -480h300zM12 2l598 1148q37 75 116 222q24 41 57 41q62 0 68 -57l139 -1370q-35 -2 -129 -5l-55 537h-379l-298 -573zM545 1715h167l138 -271h-164l-80 158l-146 -158h-164z" />
<glyph unicode="&#xc3;" horiz-adv-x="1136" d="M0 0zM710 1127l-251 -480h300zM-23 2l598 1148q37 75 116 222q24 41 57 41q62 0 68 -57l139 -1370q-35 -2 -129 -5l-55 537h-379l-298 -573zM540 1679q52 0 117.5 -42t89.5 -42q44 0 95 81l113 -46q-97 -171 -241 -171q-58 0 -117.5 43t-83.5 43q-46 0 -96 -82l-112 49 q91 167 235 167z" />
<glyph unicode="&#xc4;" horiz-adv-x="1136" d="M1 0zM734 1127l-251 -480h300zM1 2l598 1148q37 75 116 222q24 41 57 41q62 0 68 -57l139 -1370q-35 -2 -129 -5l-55 537h-379l-298 -573zM842 1659q35 0 57.5 -24t22.5 -59q0 -47 -37.5 -83t-84.5 -36q-82 0 -82 76q0 48 38 87t86 39zM481 1659q79 0 79 -83 q0 -47 -37 -83t-84 -36q-80 0 -80 75q0 48 37.5 87.5t84.5 39.5z" />
<glyph unicode="&#xc5;" horiz-adv-x="1136" d="M60 0zM793 1127l-251 -480h300zM60 2l598 1148q37 75 116 222q24 41 57 41q62 0 68 -57l139 -1370q-35 -2 -129 -5l-55 537h-379l-298 -573zM655 1642q56 0 95 -34.5t39 -89.5q0 -77 -61 -134t-138 -57q-54 0 -92 35.5t-38 89.5q0 74 60.5 132t134.5 58zM639 1562 q-37 0 -67.5 -28.5t-30.5 -65.5q0 -61 65 -61q39 0 70 27t31 66q0 62 -68 62z" />
<glyph unicode="&#xc6;" horiz-adv-x="1956" d="M531 445l-359 -445h-155l1085 1355h825l-26 -124h-660l-89 -430h530l-28 -134h-530l-112 -541h660l-26 -126h-794l92 445h-413zM1090 1145l-453 -568h334z" />
<glyph unicode="&#xc7;" horiz-adv-x="1090" d="M23 0zM700 1379q176 0 282 -114.5t103 -291.5v-17h-128q1 130 -77 211.5t-207 81.5q-158 0 -282 -114q-117 -109 -150 -268l-79 -377q-10 -50 -10 -94q0 -129 78 -208.5t206 -79.5q133 0 246 85q108 81 160 208h128q-70 -180 -218 -297q-159 -126 -343 -126 q-176 0 -283 117q-103 114 -103 292q0 58 13 119l71 345q44 213 208 367q173 161 385 161zM444 -156v2q1 11 -63 90l-80 98h129q9 -21 82 -71q61 -42 61 -104q0 -163 -202 -163l-44 113q57 14 117 35z" />
<glyph unicode="&#xc8;" horiz-adv-x="930" d="M0 0zM1002 1355l-27 -130h-661l-89 -428h531l-27 -130h-531l-111 -537h661l-27 -130h-791l281 1355h791zM286 1450l-322 268h235l156 -211z" />
<glyph unicode="&#xc9;" horiz-adv-x="930" d="M0 0zM953 1355l-27 -130h-661l-89 -428h531l-27 -130h-531l-111 -537h661l-27 -130h-791l281 1355h791zM250 1507l244 211h235l-432 -268z" />
<glyph unicode="&#xca;" horiz-adv-x="930" d="M0 0zM1002 1355l-27 -130h-661l-89 -428h531l-27 -130h-531l-111 -537h661l-27 -130h-791l281 1355h791zM344 1727h167l138 -271h-164l-80 158l-146 -158h-164z" />
<glyph unicode="&#xcb;" horiz-adv-x="930" d="M0 0zM1002 1355l-27 -130h-661l-89 -428h531l-27 -130h-531l-111 -537h661l-27 -130h-791l281 1355h791zM633 1648q35 0 57.5 -24t22.5 -59q0 -47 -37.5 -83t-84.5 -36q-82 0 -82 76q0 48 38 87t86 39zM272 1648q79 0 79 -83q0 -47 -37 -83t-84 -36q-80 0 -80 75 q0 48 37.5 87.5t84.5 39.5z" />
<glyph unicode="&#xcc;" horiz-adv-x="598" d="M0 0zM-36 130h171l227 1096h-171l27 129h479l-27 -129h-176l-227 -1096h176l-27 -130h-479zM226 1453l-322 268h235l156 -211z" />
<glyph unicode="&#xcd;" horiz-adv-x="598" d="M0 0zM-53 130h171l227 1096h-171l27 129h479l-27 -129h-176l-227 -1096h176l-27 -130h-479zM-11 1508l244 211h235l-432 -268z" />
<glyph unicode="&#xce;" horiz-adv-x="598" d="M0 0zM-96 130h171l227 1096h-171l27 129h479l-27 -129h-176l-227 -1096h176l-27 -130h-479zM145 1721h167l138 -271h-164l-80 158l-146 -158h-164z" />
<glyph unicode="&#xcf;" horiz-adv-x="598" d="M0 0zM-53 130h171l227 1096h-171l27 129h479l-27 -129h-176l-227 -1096h176l-27 -130h-479zM492 1653q35 0 57.5 -24t22.5 -59q0 -47 -37.5 -83t-84.5 -36q-82 0 -82 76q0 48 38 87t86 39zM131 1653q79 0 79 -83q0 -47 -37 -83t-84 -36q-80 0 -80 75q0 48 37.5 87.5 t84.5 39.5z" />
<glyph unicode="&#xd0;" horiz-adv-x="1267" d="M574 126q147 0 276.5 116.5t164.5 285.5l62 299q11 52 11 99q0 129 -77 215q-80 90 -208 90h-296l-97 -471h232l-28 -134h-232l-104 -500h296zM829 1355q171 0 278 -118q104 -113 104 -286q0 -59 -14 -124l-62 -299q-44 -211 -206 -365q-172 -163 -381 -163h-428l130 626 h-216l28 134h216l123 595h428z" />
<glyph unicode="&#xd1;" horiz-adv-x="1152" d="M0 0zM-42 3l270 1302q13 62 64 62q38 0 59 -36q27 -60 79 -177l405 -914l232 1117q43 -5 129 -16l-231 -1110q-11 -74 -44 -214q-17 -52 -61 -52q-42 0 -65 46q-9 17 -240 541l-239 540l-229 -1105zM507 1669q52 0 117.5 -42t89.5 -42q44 0 95 81l113 -46 q-97 -171 -241 -171q-58 0 -117.5 43t-83.5 43q-46 0 -96 -82l-112 49q91 167 235 167z" />
<glyph unicode="&#xd2;" horiz-adv-x="1118" d="M27 0zM153 379q0 -126 72.5 -198.5t198.5 -72.5q160 0 289 113q126 109 159 269l79 377q14 68 14 119q0 125 -83 196q-77 67 -205 67q-145 0 -268 -109q-131 -117 -164 -273l-79 -377q-13 -60 -13 -111zM413 -22q-177 0 -283 117q-103 114 -103 292q0 58 13 119l71 345 q45 220 205 370q169 158 388 158q175 0 282 -120q103 -115 103 -292q0 -56 -12 -116l-71 -345q-46 -225 -203 -372q-166 -156 -390 -156zM602 1450l-322 268h235l156 -211z" />
<glyph unicode="&#xd3;" horiz-adv-x="1118" d="M27 0zM153 379q0 -126 72.5 -198.5t198.5 -72.5q160 0 289 113q126 109 159 269l79 377q14 68 14 119q0 125 -83 196q-77 67 -205 67q-145 0 -268 -109q-131 -117 -164 -273l-79 -377q-13 -60 -13 -111zM413 -22q-177 0 -283 117q-103 114 -103 292q0 58 13 119l71 345 q45 220 205 370q169 158 388 158q175 0 282 -120q103 -115 103 -292q0 -56 -12 -116l-71 -345q-46 -225 -203 -372q-166 -156 -390 -156zM395 1501l244 211h235l-432 -268z" />
<glyph unicode="&#xd4;" horiz-adv-x="1118" d="M27 0zM153 379q0 -126 72.5 -198.5t198.5 -72.5q160 0 289 113q126 109 159 269l79 377q14 68 14 119q0 125 -83 196q-77 67 -205 67q-145 0 -268 -109q-131 -117 -164 -273l-79 -377q-13 -60 -13 -111zM413 -22q-177 0 -283 117q-103 114 -103 292q0 58 13 119l71 345 q45 220 205 370q169 158 388 158q175 0 282 -120q103 -115 103 -292q0 -56 -12 -116l-71 -345q-46 -225 -203 -372q-166 -156 -390 -156zM512 1727h167l138 -271h-164l-80 158l-146 -158h-164z" />
<glyph unicode="&#xd5;" horiz-adv-x="1118" d="M13 0zM139 379q0 -126 72.5 -198.5t198.5 -72.5q160 0 289 113q126 109 159 269l79 377q14 68 14 119q0 125 -83 196q-77 67 -205 67q-145 0 -268 -109q-131 -117 -164 -273l-79 -377q-13 -60 -13 -111zM399 -22q-177 0 -283 117q-103 114 -103 292q0 58 13 119l71 345 q45 220 205 370q169 158 388 158q175 0 282 -120q103 -115 103 -292q0 -56 -12 -116l-71 -345q-46 -225 -203 -372q-166 -156 -390 -156zM506 1668q52 0 117.5 -42t89.5 -42q44 0 95 81l113 -46q-97 -171 -241 -171q-58 0 -117.5 43t-83.5 43q-46 0 -96 -82l-112 49 q91 167 235 167z" />
<glyph unicode="&#xd6;" horiz-adv-x="1118" d="M27 0zM153 379q0 -126 72.5 -198.5t198.5 -72.5q160 0 289 113q126 109 159 269l79 377q14 68 14 119q0 125 -83 196q-77 67 -205 67q-145 0 -268 -109q-131 -117 -164 -273l-79 -377q-13 -60 -13 -111zM413 -22q-177 0 -283 117q-103 114 -103 292q0 58 13 119l71 345 q45 220 205 370q169 158 388 158q175 0 282 -120q103 -115 103 -292q0 -56 -12 -116l-71 -345q-46 -225 -203 -372q-166 -156 -390 -156zM811 1654q35 0 57.5 -24t22.5 -59q0 -47 -37.5 -83t-84.5 -36q-82 0 -82 76q0 48 38 87t86 39zM450 1654q79 0 79 -83q0 -47 -37 -83 t-84 -36q-80 0 -80 75q0 48 37.5 87.5t84.5 39.5z" />
<glyph unicode="&#xd7;" horiz-adv-x="766" d="M242 876l157 -199l256 212l73 -93l-255 -212l156 -196l-111 -92l-156 197l-249 -207l-74 93l249 206l-157 200z" />
<glyph unicode="&#xd8;" horiz-adv-x="1196" d="M325 171q67 -45 162 -45q155 0 284 126q121 119 154 276l44 192q27 127 27 194q0 83 -34 161zM709 1231q-142 0 -271 -118q-113 -102 -162 -268q-32 -159 -65 -317q-11 -52 -11 -100q0 -93 42 -166l636 911q-73 58 -169 58zM1155 1355l-107 -159q72 -108 72 -245 q0 -59 -13 -124l-62 -299q-44 -213 -208 -367q-172 -161 -383 -161q-114 0 -205 61l-42 -61h-148l98 144q-83 110 -83 258q0 60 14 126l62 299q44 210 209 365q175 163 383 163q124 0 218 -69l49 69h146z" />
<glyph unicode="&#xd9;" horiz-adv-x="1136" d="M0 0zM319 1355l-180 -867q-13 -60 -13 -111q0 -122 72.5 -195.5t194.5 -73.5q158 0 287 115q124 111 157 269l179 863h130l-176 -849q-48 -233 -198 -375q-160 -153 -391 -153q-172 0 -279 119q-102 114 -102 288q0 58 13 121l176 849h130zM545 1351l-322 268h235 l156 -211z" />
<glyph unicode="&#xda;" horiz-adv-x="1136" d="M0 0zM319 1355l-180 -867q-13 -60 -13 -111q0 -122 72.5 -195.5t194.5 -73.5q158 0 287 115q124 111 157 269l179 863h130l-176 -849q-48 -233 -198 -375q-160 -153 -391 -153q-172 0 -279 119q-102 114 -102 288q0 58 13 121l176 849h130zM241 1511l244 211h235 l-432 -268z" />
<glyph unicode="&#xdb;" horiz-adv-x="1136" d="M0 0zM319 1355l-180 -867q-13 -60 -13 -111q0 -122 72.5 -195.5t194.5 -73.5q158 0 287 115q124 111 157 269l179 863h130l-176 -849q-48 -233 -198 -375q-160 -153 -391 -153q-172 0 -279 119q-102 114 -102 288q0 58 13 121l176 849h130zM479 1721h167l138 -271h-164 l-80 158l-146 -158h-164z" />
<glyph unicode="&#xdc;" horiz-adv-x="1136" d="M0 0zM319 1355l-180 -867q-13 -60 -13 -111q0 -122 72.5 -195.5t194.5 -73.5q158 0 287 115q124 111 157 269l179 863h130l-176 -849q-48 -233 -198 -375q-160 -153 -391 -153q-172 0 -279 119q-102 114 -102 288q0 58 13 121l176 849h130zM785 1650q35 0 57.5 -24 t22.5 -59q0 -47 -37.5 -83t-84.5 -36q-82 0 -82 76q0 48 38 87t86 39zM424 1650q79 0 79 -83q0 -47 -37 -83t-84 -36q-80 0 -80 75q0 48 37.5 87.5t84.5 39.5z" />
<glyph unicode="&#xdd;" horiz-adv-x="1034" d="M66 0zM186 1382q70 -191 212 -571l463 584q36 -25 106 -75l-529 -666l-138 -667l-129 16l139 672l-244 659zM279 1504l244 211h235l-432 -268z" />
<glyph unicode="&#xde;" horiz-adv-x="1349" d="M754 256q168 0 298.5 128t130.5 296q0 120 -82 198q-81 75 -202 75q-168 0 -295 -129.5t-127 -297.5q0 -121 78 -195.5t199 -74.5zM724 132q-220 0 -310 174l-104 -502h115l-30 -141h-365l29 141h119l169 814h-1l166 799h-119l29 141h366l-29 -141h-115l-104 -502 q162 174 382 174q165 0 278 -106t113 -270q0 -227 -181 -404t-408 -177z" />
<glyph unicode="&#xdf;" horiz-adv-x="1283" d="M668 765q225 0 311 65q106 81 106 186q0 95 -83 154q-74 54 -173 54q-157 0 -210 -16q-106 -33 -130 -150l-194 -928h1l-27 -130q-1 0 -2 -1l-238 1l27 130h111l192 928q26 124 130.5 210t230.5 86h129q149 0 256 -78q118 -87 118 -232q0 -190 -224 -323 q161 -85 161 -260q0 -229 -156 -351q-142 -111 -376 -111h-205l27 130h205q143 0 254 77q124 87 124 225q0 200 -393 200z" />
<glyph unicode="&#xe0;" d="M45 0zM927 839q-33 2 -66 2q-260 0 -450 -100q-237 -125 -237 -362q0 -111 67 -189q71 -83 181 -83q163 0 272 85.5t144 243.5zM878 -16l-131 16l17 83q-142 -104 -330 -104q-172 0 -281 115q-108 112 -108 286q0 298 277 459q229 133 549 133q199 0 199 -75q0 -7 -2 -15 zM757 1087l-322 268h235l156 -211z" />
<glyph unicode="&#xe1;" d="M12 0zM894 839q-33 2 -66 2q-260 0 -450 -100q-237 -125 -237 -362q0 -111 67 -189q71 -83 181 -83q163 0 272 85.5t144 243.5zM845 -16l-131 16l17 83q-142 -104 -330 -104q-172 0 -281 115q-108 112 -108 286q0 298 277 459q229 133 549 133q199 0 199 -75q0 -7 -2 -15 zM491 1166l244 211h235l-432 -268z" />
<glyph unicode="&#xe2;" d="M45 0zM927 839q-33 2 -66 2q-260 0 -450 -100q-237 -125 -237 -362q0 -111 67 -189q71 -83 181 -83q163 0 272 85.5t144 243.5zM878 -16l-131 16l17 83q-142 -104 -330 -104q-172 0 -281 115q-108 112 -108 286q0 298 277 459q229 133 549 133q199 0 199 -75q0 -7 -2 -15 zM661 1356h167l138 -271h-164l-80 158l-146 -158h-164z" />
<glyph unicode="&#xe3;" d="M45 0zM927 839q-33 2 -66 2q-260 0 -450 -100q-237 -125 -237 -362q0 -111 67 -189q71 -83 181 -83q163 0 272 85.5t144 243.5zM878 -16l-131 16l17 83q-142 -104 -330 -104q-172 0 -281 115q-108 112 -108 286q0 298 277 459q229 133 549 133q199 0 199 -75q0 -7 -2 -15 zM653 1355q52 0 117.5 -42t89.5 -42q44 0 95 81l113 -46q-97 -171 -241 -171q-58 0 -117.5 43t-83.5 43q-46 0 -96 -82l-112 49q91 167 235 167z" />
<glyph unicode="&#xe4;" d="M45 0zM927 839q-33 2 -66 2q-260 0 -450 -100q-237 -125 -237 -362q0 -111 67 -189q71 -83 181 -83q163 0 272 85.5t144 243.5zM878 -16l-131 16l17 83q-142 -104 -330 -104q-172 0 -281 115q-108 112 -108 286q0 298 277 459q229 133 549 133q199 0 199 -75q0 -7 -2 -15 zM991 1290q35 0 57.5 -24t22.5 -59q0 -47 -37.5 -83t-84.5 -36q-82 0 -82 76q0 48 38 87t86 39zM630 1290q79 0 79 -83q0 -47 -37 -83t-84 -36q-80 0 -80 75q0 48 37.5 87.5t84.5 39.5z" />
<glyph unicode="&#xe5;" d="M45 0zM927 839q-33 2 -66 2q-260 0 -450 -100q-237 -125 -237 -362q0 -111 67 -189q71 -83 181 -83q163 0 272 85.5t144 243.5zM878 -16l-131 16l17 83q-142 -104 -330 -104q-172 0 -281 115q-108 112 -108 286q0 298 277 459q229 133 549 133q199 0 199 -75q0 -7 -2 -15 zM709 1366q56 0 95 -34.5t39 -89.5q0 -77 -61 -134t-138 -57q-54 0 -92 35.5t-38 89.5q0 74 60.5 132t134.5 58zM693 1286q-37 0 -67.5 -28.5t-30.5 -65.5q0 -61 65 -61q39 0 70 27t31 66q0 62 -68 62z" />
<glyph unicode="&#xe6;" horiz-adv-x="1918" d="M1418 827q-111 0 -217 -67q-102 -64 -161 -163h663q-17 105 -98 169q-79 61 -187 61zM377 0q-125 0 -215 69q-99 75 -99 197q0 132 113 242q93 90 224 120q81 19 246 21q175 3 257 18q2 14 2 27q0 59 -38.5 94t-97.5 35h-259q-69 0 -128 -49.5t-73 -117.5h-133 q26 123 131 212t230 89h259q87 0 154 -48t87 -130q184 178 408 178q168 0 279 -103q113 -106 113 -273q0 -51 -14 -118h-829q-6 -22 -6 -50q0 -124 90 -205q87 -78 212 -78q106 0 209.5 55t164.5 142l126 -23q-79 -132 -226.5 -218t-300.5 -86q-180 0 -286 106l-1 -4 q-24 35 -72 35q-45 0 -91 -39q-115 -98 -295 -98h-141zM545 134q93 0 176 49q92 54 110 139l43 206q-55 -13 -128 -17q-52 -3 -133 -1q-121 2 -130 2q-99 0 -186 -59q-96 -66 -96 -162q0 -74 67 -118q58 -39 136 -39h141z" />
<glyph unicode="&#xe7;" horiz-adv-x="971" d="M5 0zM133 373q0 -116 85 -190q81 -71 198 -71q193 0 334 144l108 -75q-186 -199 -435 -199q-174 0 -294 106q-124 111 -124 284q0 112 31 203q62 171 219 287q161 118 340 118q117 0 216 -53q103 -56 158 -155l-121 -51q-82 130 -251 130q-186 0 -325 -146t-139 -332z M471 -159v2q1 11 -63 90l-80 98h129q9 -21 82 -71q61 -42 61 -104q0 -163 -202 -163l-44 113q57 14 117 35z" />
<glyph unicode="&#xe8;" horiz-adv-x="1106" d="M57 0zM677 849q-163 0 -307 -111q-145 -114 -177 -272q214 55 641 171q35 10 53 33q28 35 30 80l-9 24q-55 75 -231 75zM192 331q21 -109 110 -168q81 -53 197 -53q213 0 382 194l92 -92q-90 -105 -213 -168q-131 -67 -262 -67q-185 0 -311 114q-130 119 -130 302 q0 226 187 406t414 180q152 0 253 -46q138 -61 138 -195q0 -107 -95 -184q-36 -29 -76 -40q-229 -61 -686 -183zM389 1087l-322 268h235l156 -211z" />
<glyph unicode="&#xe9;" horiz-adv-x="1106" d="M9 0zM629 849q-163 0 -307 -111q-145 -114 -177 -272q214 55 641 171q35 10 53 33q28 35 30 80l-9 24q-55 75 -231 75zM144 331q21 -109 110 -168q81 -53 197 -53q213 0 382 194l92 -92q-90 -105 -213 -168q-131 -67 -262 -67q-185 0 -311 114q-130 119 -130 302 q0 226 187 406t414 180q152 0 253 -46q138 -61 138 -195q0 -107 -95 -184q-36 -29 -76 -40q-229 -61 -686 -183zM297 1144l244 211h235l-432 -268z" />
<glyph unicode="&#xea;" horiz-adv-x="1106" d="M57 0zM677 849q-163 0 -307 -111q-145 -114 -177 -272q214 55 641 171q35 10 53 33q28 35 30 80l-9 24q-55 75 -231 75zM192 331q21 -109 110 -168q81 -53 197 -53q213 0 382 194l92 -92q-90 -105 -213 -168q-131 -67 -262 -67q-185 0 -311 114q-130 119 -130 302 q0 226 187 406t414 180q152 0 253 -46q138 -61 138 -195q0 -107 -95 -184q-36 -29 -76 -40q-229 -61 -686 -183zM446 1355h167l138 -271h-164l-80 158l-146 -158h-164z" />
<glyph unicode="&#xeb;" horiz-adv-x="1106" d="M57 0zM677 849q-163 0 -307 -111q-145 -114 -177 -272q214 55 641 171q35 10 53 33q28 35 30 80l-9 24q-55 75 -231 75zM192 331q21 -109 110 -168q81 -53 197 -53q213 0 382 194l92 -92q-90 -105 -213 -168q-131 -67 -262 -67q-185 0 -311 114q-130 119 -130 302 q0 226 187 406t414 180q152 0 253 -46q138 -61 138 -195q0 -107 -95 -184q-36 -29 -76 -40q-229 -61 -686 -183zM727 1278q35 0 57.5 -24t22.5 -59q0 -47 -37.5 -83t-84.5 -36q-82 0 -82 76q0 48 38 87t86 39zM366 1278q79 0 79 -83q0 -47 -37 -83t-84 -36q-80 0 -80 75 q0 48 37.5 87.5t84.5 39.5z" />
<glyph unicode="&#xec;" horiz-adv-x="476" d="M0 0zM315 1095l-322 268h235l156 -211zM168 957h257l-198 -957h-130l171 827h-127z" />
<glyph unicode="&#xed;" horiz-adv-x="483" d="M48 0zM49 1150l244 211h235l-432 -268zM119 957h257l-198 -957h-130l171 827h-127z" />
<glyph unicode="&#xee;" horiz-adv-x="652" d="M55 0zM304 1355h167l138 -271h-164l-80 158l-146 -158h-164zM217 957h257l-198 -957h-130l171 827h-127z" />
<glyph unicode="&#xef;" horiz-adv-x="559" d="M0 0zM464 1273q35 0 57.5 -24t22.5 -59q0 -47 -37.5 -83t-84.5 -36q-82 0 -82 76q0 48 38 87t86 39zM103 1273q79 0 79 -83q0 -47 -37 -83t-84 -36q-80 0 -80 75q0 48 37.5 87.5t84.5 39.5zM126 957h257l-198 -957h-130l171 827h-127z" />
<glyph unicode="&#xf0;" horiz-adv-x="1160" d="M543 648q-140 0 -247 -93q-113 -97 -113 -235q0 -98 87 -153q75 -48 178 -48q143 0 251 87q115 93 115 234q0 208 -271 208zM678 1144q-78 67 -236 67l28 133h50q181 0 316 -135l259 105l30 -122l-219 -88q81 -152 81 -339q0 -136 -49 -385q-33 -166 -192 -281 q-152 -110 -326 -110q-149 0 -254 81q-114 89 -114 234q0 201 178 342q167 132 372 132q141 0 235 -84q7 48 7 92q0 157 -84 257l-217 -90l-31 122z" />
<glyph unicode="&#xf1;" horiz-adv-x="1103" d="M20 0zM148 -1h-128l198 957h132l-17 -84q142 104 330 104q180 0 287 -120q102 -115 102 -298q0 -31 -5 -54l-104 -505h-131l106 514q6 27 6 58q0 113 -67 193q-71 84 -182 84q-162 0 -272 -85.5t-144 -243.5zM464 1310q52 0 117.5 -42t89.5 -42q44 0 95 81l113 -46 q-97 -171 -241 -171q-58 0 -117.5 43t-83.5 43q-46 0 -96 -82l-112 49q91 167 235 167z" />
<glyph unicode="&#xf2;" d="M37 0zM188 368q0 -116 85 -191q81 -70 199 -70q182 0 327 137.5t145 319.5q0 126 -83 204t-211 78q-184 0 -325 -148q-137 -145 -137 -330zM650 975q179 0 300 -113q123 -116 123 -294q0 -234 -180 -412.5t-415 -178.5q-174 0 -294 106q-124 111 -124 284q0 113 31 203 q62 171 219 287q161 118 340 118zM359 1087l-322 268h235l156 -211z" />
<glyph unicode="&#xf3;" d="M3 0zM131 368q0 -116 85 -191q81 -70 199 -70q182 0 327 137.5t145 319.5q0 126 -83 204t-211 78q-184 0 -325 -148q-137 -145 -137 -330zM593 975q179 0 300 -113q123 -116 123 -294q0 -234 -180 -412.5t-415 -178.5q-174 0 -294 106q-124 111 -124 284q0 113 31 203 q62 171 219 287q161 118 340 118zM309 1144l244 211h235l-432 -268z" />
<glyph unicode="&#xf4;" d="M50 0zM178 368q0 -116 85 -191q81 -70 199 -70q182 0 327 137.5t145 319.5q0 126 -83 204t-211 78q-184 0 -325 -148q-137 -145 -137 -330zM640 975q179 0 300 -113q123 -116 123 -294q0 -234 -180 -412.5t-415 -178.5q-174 0 -294 106q-124 111 -124 284q0 113 31 203 q62 171 219 287q161 118 340 118zM449 1355h167l138 -271h-164l-80 158l-146 -158h-164z" />
<glyph unicode="&#xf5;" d="M38 0zM166 368q0 -116 85 -191q81 -70 199 -70q182 0 327 137.5t145 319.5q0 126 -83 204t-211 78q-184 0 -325 -148q-137 -145 -137 -330zM628 975q179 0 300 -113q123 -116 123 -294q0 -234 -180 -412.5t-415 -178.5q-174 0 -294 106q-124 111 -124 284q0 113 31 203 q62 171 219 287q161 118 340 118zM455 1303q52 0 117.5 -42t89.5 -42q44 0 95 81l113 -46q-97 -171 -241 -171q-58 0 -117.5 43t-83.5 43q-46 0 -96 -82l-112 49q91 167 235 167z" />
<glyph unicode="&#xf6;" d="M50 0zM178 368q0 -116 85 -191q81 -70 199 -70q182 0 327 137.5t145 319.5q0 126 -83 204t-211 78q-184 0 -325 -148q-137 -145 -137 -330zM640 975q179 0 300 -113q123 -116 123 -294q0 -234 -180 -412.5t-415 -178.5q-174 0 -294 106q-124 111 -124 284q0 113 31 203 q62 171 219 287q161 118 340 118zM749 1292q35 0 57.5 -24t22.5 -59q0 -47 -37.5 -83t-84.5 -36q-82 0 -82 76q0 48 38 87t86 39zM388 1292q79 0 79 -83q0 -47 -37 -83t-84 -36q-80 0 -80 75q0 48 37.5 87.5t84.5 39.5z" />
<glyph unicode="&#xf7;" horiz-adv-x="1054" d="M471 236q38 0 64 -25t26 -63q0 -52 -42.5 -93t-94.5 -41q-89 0 -89 87q0 53 41.5 94t94.5 41zM602 869q38 0 64.5 -24.5t26.5 -62.5q0 -51 -42.5 -92t-94.5 -41q-89 0 -89 86q0 53 41 93.5t94 40.5zM38 514h1007l-27 -130h-1007z" />
<glyph unicode="&#xf8;" horiz-adv-x="1139" d="M384 148q40 -18 115 -18q167 0 297.5 128t130.5 296q0 101 -65 174zM643 827q-170 0 -300.5 -130t-130.5 -300q0 -112 76 -188l485 592q-66 26 -130 26zM670 957q93 0 191 -44l41 44h146l-95 -113q107 -110 107 -263q0 -228 -179.5 -404.5t-408.5 -176.5q-107 0 -180 37 l-29 -37h-148l80 98q-114 106 -114 268q0 233 178 412t411 179z" />
<glyph unicode="&#xf9;" horiz-adv-x="1026" d="M0 0zM903 956h128l-202 -972l-128 16l17 83q-142 -104 -330 -104q-180 0 -287 120q-102 115 -102 298q0 31 5 54l104 505h131l-106 -514q-6 -27 -6 -58q0 -113 67 -193q71 -84 182 -84q162 0 272 85.5t144 243.5zM351 1087l-322 268h235l156 -211z" />
<glyph unicode="&#xfa;" horiz-adv-x="1026" d="M0 0zM903 956h128l-202 -972l-128 16l17 83q-142 -104 -330 -104q-180 0 -287 120q-102 115 -102 298q0 31 5 54l104 505h131l-106 -514q-6 -27 -6 -58q0 -113 67 -193q71 -84 182 -84q162 0 272 85.5t144 243.5zM172 1144l244 211h235l-432 -268z" />
<glyph unicode="&#xfb;" horiz-adv-x="1026" d="M0 0zM903 956h128l-202 -972l-128 16l17 83q-142 -104 -330 -104q-180 0 -287 120q-102 115 -102 298q0 31 5 54l104 505h131l-106 -514q-6 -27 -6 -58q0 -113 67 -193q71 -84 182 -84q162 0 272 85.5t144 243.5zM354 1358h167l138 -271h-164l-80 158l-146 -158h-164z " />
<glyph unicode="&#xfc;" horiz-adv-x="1026" d="M0 0zM903 956h128l-202 -972l-128 16l17 83q-142 -104 -330 -104q-180 0 -287 120q-102 115 -102 298q0 31 5 54l104 505h131l-106 -514q-6 -27 -6 -58q0 -113 67 -193q71 -84 182 -84q162 0 272 85.5t144 243.5zM661 1279q35 0 57.5 -24t22.5 -59q0 -47 -37.5 -83 t-84.5 -36q-82 0 -82 76q0 48 38 87t86 39zM300 1279q79 0 79 -83q0 -47 -37 -83t-84 -36q-80 0 -80 75q0 48 37.5 87.5t84.5 39.5z" />
<glyph unicode="&#xfd;" horiz-adv-x="1090" d="M77 0zM197 1004l256 -823l346 478q79 109 79 182q0 54 -48 72l48 120q131 -50 131 -196q0 -102 -70 -200l-440 -613q-11 -118 -37 -433q-43 5 -129 16l35 413l-291 936zM316 1144l244 211h235l-432 -268z" />
<glyph unicode="&#xfe;" horiz-adv-x="1370" d="M776 387q168 0 298.5 128.5t130.5 296.5q0 120 -81.5 196t-202.5 76q-168 0 -295 -129.5t-127 -297.5q0 -121 78 -195.5t199 -74.5zM746 263q-220 0 -310 174l-124 -600h115l-30 -141h-366l30 141h119l189 912h-1l146 701h-119l29 141h165l59 -141h-2l-84 -404 q162 174 382 174q164 0 277.5 -106t113.5 -269q0 -228 -181 -405t-408 -177z" />
<glyph unicode="&#xff;" horiz-adv-x="1090" d="M77 0zM197 1004l256 -823l346 478q79 109 79 182q0 54 -48 72l48 120q131 -50 131 -196q0 -102 -70 -200l-440 -613q-11 -118 -37 -433q-43 5 -129 16l35 413l-291 936zM853 1286q35 0 57.5 -24t22.5 -59q0 -47 -37.5 -83t-84.5 -36q-82 0 -82 76q0 48 38 87t86 39z M492 1286q79 0 79 -83q0 -47 -37 -83t-84 -36q-80 0 -80 75q0 48 37.5 87.5t84.5 39.5z" />
<glyph unicode="&#x131;" horiz-adv-x="386" d="M112 957h257l-198 -957h-130l171 827h-127z" />
<glyph unicode="&#x152;" horiz-adv-x="1909" d="M717 1231q-144 0 -273 -117q-112 -101 -162 -270q-1 -4 -66 -316q-10 -50 -10 -96q0 -133 80 -219.5t212 -86.5q143 0 271 118q108 100 158 269q32 157 65 314q11 52 11 98q0 133 -78 219.5t-208 86.5zM1124 801h532l-28 -134h-532l-101 -486h660l-25 -120h-794l25 117 q-182 -178 -399 -178q-169 0 -276 120q-103 116 -103 286q0 59 13 122l62 299q44 212 210 366q175 162 385 162q207 0 315 -178l23 109h794l-25 -120h-660z" />
<glyph unicode="&#x153;" horiz-adv-x="1874" d="M606 827q-169 0 -290 -134q-118 -130 -118 -301q0 -119 72.5 -190.5t191.5 -71.5q167 0 294 129t127 296q0 121 -77.5 196.5t-199.5 75.5zM1000 459q-5 -33 -5 -63q0 -119 76 -192.5t195 -73.5q211 0 345 197l124 -23q-83 -136 -209 -217q-136 -87 -287 -87 q-250 0 -348 243q-185 -243 -456 -243q-167 0 -268 101.5t-101 268.5q0 230 169 408.5t398 178.5q264 0 357 -239q186 239 437 239q163 0 265 -101.5t102 -265.5q0 -57 -16 -131h-778zM1048 597h611q-17 106 -85 168t-174 62q-221 0 -352 -230z" />
<glyph unicode="&#x178;" horiz-adv-x="1048" d="M73 0zM193 1382q70 -191 212 -571l463 584q36 -25 106 -75l-529 -666l-138 -667l-129 16l139 672l-244 659zM817 1648q35 0 57.5 -24t22.5 -59q0 -47 -37.5 -83t-84.5 -36q-82 0 -82 76q0 48 38 87t86 39zM456 1648q79 0 79 -83q0 -47 -37 -83t-84 -36q-80 0 -80 75 q0 48 37.5 87.5t84.5 39.5z" />
<glyph unicode="&#x2c6;" horiz-adv-x="627" d="M277 1355h167l138 -271h-164l-80 158l-146 -158h-164z" />
<glyph unicode="&#x2da;" horiz-adv-x="435" d="M248 1355q56 0 95 -34.5t39 -89.5q0 -77 -61 -134t-138 -57q-54 0 -92 35.5t-38 89.5q0 74 60.5 132t134.5 58zM232 1275q-37 0 -67.5 -28.5t-30.5 -65.5q0 -61 65 -61q39 0 70 27t31 66q0 62 -68 62z" />
<glyph unicode="&#x2dc;" horiz-adv-x="746" d="M283 1173q52 0 117.5 -42t89.5 -42q44 0 95 81l113 -46q-97 -171 -241 -171q-58 0 -117.5 43t-83.5 43q-46 0 -96 -82l-112 49q91 167 235 167z" />
<glyph unicode="&#x2000;" horiz-adv-x="863" />
<glyph unicode="&#x2001;" horiz-adv-x="1727" />
<glyph unicode="&#x2002;" horiz-adv-x="863" />
<glyph unicode="&#x2003;" horiz-adv-x="1727" />
<glyph unicode="&#x2004;" horiz-adv-x="575" />
<glyph unicode="&#x2005;" horiz-adv-x="431" />
<glyph unicode="&#x2006;" horiz-adv-x="287" />
<glyph unicode="&#x2007;" horiz-adv-x="287" />
<glyph unicode="&#x2008;" horiz-adv-x="215" />
<glyph unicode="&#x2009;" horiz-adv-x="345" />
<glyph unicode="&#x200a;" horiz-adv-x="95" />
<glyph unicode="&#x2010;" horiz-adv-x="674" d="M89 660h523l-27 -130h-523z" />
<glyph unicode="&#x2011;" horiz-adv-x="674" d="M89 660h523l-27 -130h-523z" />
<glyph unicode="&#x2012;" horiz-adv-x="674" d="M89 660h523l-27 -130h-523z" />
<glyph unicode="&#x2013;" horiz-adv-x="929" d="M95 649h767l-27 -132h-767z" />
<glyph unicode="&#x2014;" horiz-adv-x="1571" d="M97 642h1405l-28 -134h-1405z" />
<glyph unicode="&#x2018;" horiz-adv-x="360" d="M109 960q-33 0 -56.5 26.5t-23.5 58.5q0 87 103.5 194t190.5 116q6 -34 5 -50v-10l-1 -1q-134 -40 -146 -110q74 -49 74 -94q0 -60 -42.5 -95t-103.5 -35z" />
<glyph unicode="&#x2019;" horiz-adv-x="359" d="M240 1308q38 0 64 -24t26 -62q0 -89 -103 -197t-192 -119q-5 50 -5 60l2 2q135 47 148 111q-72 59 -72 106q0 45 43.5 84t88.5 39z" />
<glyph unicode="&#x201a;" horiz-adv-x="362" d="M241 218q38 0 64 -25t26 -62q0 -102 -96.5 -202.5t-198.5 -109.5l-3 58q131 47 150 115q-88 5 -88 92q0 55 46 96q44 38 100 38z" />
<glyph unicode="&#x201c;" horiz-adv-x="685" d="M127 960q-32 0 -55 26.5t-23 58.5q0 87 103 194t191 116q4 -10 3 -53v-8q-118 -35 -146 -108q74 -52 74 -95q0 -62 -42.5 -96.5t-104.5 -34.5zM417 960q-34 0 -57.5 26t-23.5 60q0 88 103 194t192 115l6 -61q-127 -37 -151 -105q26 -20 50.5 -41t24.5 -57 q0 -62 -40.5 -96.5t-103.5 -34.5z" />
<glyph unicode="&#x201d;" horiz-adv-x="684" d="M544 1356q91 0 91 -82q0 -94 -102 -200.5t-194 -116.5q-4 34 -3 54v7q137 47 150 110q-25 20 -49 41q-25 25 -25 56q0 54 39.5 92.5t92.5 38.5zM257 1356q37 0 63.5 -25t26.5 -62q0 -87 -104 -195t-192 -117q-4 38 -3 49v10l1 2q132 47 147 110q-25 18 -49.5 38.5 t-24.5 53.5q0 52 41.5 94t93.5 42z" />
<glyph unicode="&#x201e;" horiz-adv-x="684" d="M545 231q90 0 90 -82q0 -94 -102 -201t-194 -117q-4 35 -3 54v7q137 47 150 110q-25 21 -49 41q-25 25 -25 57q0 49 42 90t91 41zM258 231q37 0 63 -25t26 -62q0 -88 -104 -196t-192 -117q-4 36 -4 39l1 20q1 1 1 2q132 47 147 110q-25 19 -49.5 39.5t-24.5 53.5 q0 52 42 94t94 42z" />
<glyph unicode="&#x2022;" horiz-adv-x="548" d="M318 866q74 0 125.5 -46t51.5 -120q0 -101 -81.5 -176t-182.5 -75q-74 0 -126 45.5t-52 118.5q0 101 82 177t183 76z" />
<glyph unicode="&#x2026;" horiz-adv-x="1448" d="M207 220q38 0 64.5 -24t26.5 -63q0 -52 -41.5 -92.5t-94.5 -40.5q-38 0 -64 24t-26 62q0 53 41 93.5t94 40.5zM746 220q90 0 90 -86q0 -53 -41 -93.5t-94 -40.5q-38 0 -64 24t-26 62q0 53 41 93.5t94 40.5zM1285 220q90 0 90 -86q0 -53 -41 -93.5t-94 -40.5 q-38 0 -64.5 24.5t-26.5 62.5q0 52 42 92.5t94 40.5z" />
<glyph unicode="&#x202f;" horiz-adv-x="345" />
<glyph unicode="&#x2039;" horiz-adv-x="571" d="M500 779l-268 -283l152 -276l-37 -178l-342 459l532 456z" />
<glyph unicode="&#x203a;" horiz-adv-x="571" d="M224 957l342 -456l-532 -459l37 178l266 276l-150 283z" />
<glyph unicode="&#x205f;" horiz-adv-x="431" />
<glyph unicode="&#x20ac;" horiz-adv-x="1265" d="M1105 1041q-49 217 -267 217q-128 0 -244 -99q-107 -92 -152 -220h210l-28 -132h-214l-48 -230h214l-27 -132h-213q-3 -27 -3 -52q0 -118 71 -203q75 -90 191 -90q101 0 206 67q100 63 154 154h125q-66 -142 -210 -244q-150 -107 -301 -107q-169 0 -270 127 q-92 117 -92 287q0 31 3 61h-184l27 132h182l48 230h-182l28 132h186q59 177 210 308q162 141 339 141q140 0 251 -102q114 -105 116 -245h-126z" />
<glyph unicode="&#x2122;" horiz-adv-x="1152" d="M83 1355h436l-27 -133h-148l-71 -341h-132l71 341h-156zM866 881l33 159l-87 -159h-145l-18 159l-33 -159h-134l98 474h160l32 -312l164 312h159l-98 -474h-131z" />
<glyph unicode="&#xe000;" horiz-adv-x="1000" d="M0 1000h1000v-1000h-1000v1000z" />
<glyph horiz-adv-x="390" d="M0 0z" />
</font>
</defs>
</svg>
