<?xml version="1.0" standalone="no"?>
<!DOCTYPE svg PUBLIC "-//W3C//DTD SVG 1.1//EN" "http://www.w3.org/Graphics/SVG/1.1/DTD/svg11.dtd" >
<svg xmlns="http://www.w3.org/2000/svg">
<metadata></metadata>
<defs>
<font id="wagnastyregular" horiz-adv-x="1139" >
<font-face units-per-em="2048" ascent="1638" descent="-410" />
<missing-glyph horiz-adv-x="569" />
<glyph horiz-adv-x="2048" />
<glyph horiz-adv-x="2048" />
<glyph unicode="&#xd;" horiz-adv-x="569" />
<glyph unicode=" "  horiz-adv-x="569" />
<glyph unicode="&#x09;" horiz-adv-x="569" />
<glyph unicode="&#xa0;" horiz-adv-x="569" />
<glyph unicode="!" horiz-adv-x="416" d="M192 1580h16q56 0 56 -112q32 -200 32 -464q-19 -668 -60 -668l-36 -12q-40 0 -56 52q40 303 40 640q0 295 -40 512q15 52 48 52zM208 220q108 -21 108 -100v-20q0 -84 -116 -100q-100 26 -100 96v28q0 76 108 96z" />
<glyph unicode="&#x22;" horiz-adv-x="727" />
<glyph unicode="#" horiz-adv-x="1480" d="M1052 1337h16q34 0 48 -52q-40 -268 -40 -416l264 16q40 -17 40 -48v-16q0 -52 -132 -52l-176 -12v-180l4 -20l240 8h16q48 -10 48 -48v-16q0 -48 -92 -48h-16l-192 -8q6 -253 128 -680q0 -56 -56 -56h-4q-53 0 -84 168q-88 340 -88 500l-8 56q-43 0 -344 -44 q12 -263 12 -440q-14 -52 -48 -52h-16q-39 0 -48 60l-8 412l-364 -72h-8q-33 0 -44 44v16q0 54 160 72l248 52v4l-8 196h-4l-272 -52q-33 0 -44 48v16q0 49 148 68q75 20 164 32l-32 448q0 33 48 44h4q60 0 60 -100l28 -372l364 44v4q22 468 68 468q0 7 20 8zM608 801 l12 -200h4l340 44l-4 60v140q-144 -12 -352 -44z" />
<glyph unicode="$" horiz-adv-x="1288" d="M880 1606q48 -10 48 -48l-16 -116q116 20 204 20q52 -13 52 -52v-8q0 -52 -92 -52q-176 -12 -176 -32q-32 -308 -32 -688q320 -93 320 -300q0 -192 -276 -296q-16 0 -16 -8l32 -352q-18 -44 -56 -44q-60 0 -60 120q-24 186 -24 260q-24 -8 -104 -8h-64l16 -296 q-17 -48 -52 -48h-8q-56 0 -56 124l-12 232h-4q-404 75 -404 144v16q0 37 56 48q274 -96 352 -96v176l8 372q-184 124 -184 256v24q0 160 228 344q11 0 28 192q9 64 60 64h4q48 -10 48 -48l-12 -136l112 44q14 192 52 192h28zM632 730l128 -56v48q0 268 24 568h-4 q-108 -42 -108 -64q-24 -202 -40 -496zM440 946q0 -75 84 -140l28 340q-112 -123 -112 -200zM624 610v-4l-8 -480v-12l44 -4l120 8l-4 4v4l-16 428zM872 514v-4q4 -207 16 -368q188 71 188 188q0 118 -204 184z" />
<glyph unicode="%" horiz-adv-x="1344" d="M1104 1600h16q33 0 44 -44v-16q0 -15 -176 -288q-287 -455 -544 -932l-164 -308q-15 -12 -28 -12h-16q-37 0 -48 56q174 380 624 1124q233 375 268 412zM404 1384q190 0 264 -220l8 -80q0 -179 -172 -260q-47 -16 -104 -16h-4q-174 0 -264 172q-32 65 -32 120v44 q0 135 160 212q73 28 144 28zM208 1116q0 -142 156 -196h56q103 0 140 120l4 52q-21 180 -156 180h-20q-133 0 -176 -112zM980 820q182 0 252 -224q12 -29 12 -80q0 -197 -224 -268l-80 -12q-195 0 -264 204l-8 80q0 198 228 288q44 12 84 12zM780 528v-16q0 -102 76 -144 q39 -20 84 -20q152 0 192 144v36q-28 180 -152 180h-12q-123 0 -184 -144z" />
<glyph unicode="&#x26;" horiz-adv-x="1256" d="M684 1518h16q31 0 48 -40l4 -324v-88l-4 -20h4q125 0 312 -96q92 -68 92 -148q0 -176 -288 -300v-4q200 -69 200 -216q0 -141 -196 -240l-160 -44q-26 -336 -48 -336l-32 -12h-4q-56 6 -56 52l28 296h-24q-278 0 -460 168l-16 36v16q10 48 48 48h4q31 0 92 -68 q158 -92 364 -92v4q12 131 12 336q-160 14 -160 60v20q0 34 52 48l116 -12l4 4v4l4 332l4 40h-60q-114 0 -320 -32q-48 10 -48 56v4q0 49 100 60q178 24 300 24h28v420q0 33 44 44zM748 938v-8l-8 -352q171 40 268 140q36 51 36 80v4q0 81 -296 136zM736 426l-16 -312 q123 22 192 80q44 55 44 88v12q0 74 -220 132z" />
<glyph unicode="'" horiz-adv-x="340" d="M176 1598h16q34 0 48 -52q-32 -145 -32 -288q0 -132 32 -276q-14 -52 -52 -52h-4q-59 0 -68 108q-16 102 -16 176v80q10 300 60 300z" />
<glyph unicode="(" horiz-adv-x="708" d="M464 1776h16q48 0 48 -60q0 -16 -76 -104q-248 -343 -248 -692q0 -438 400 -840l4 -20v-8q0 -41 -56 -52q-41 0 -164 160q-288 359 -288 712v72q0 404 332 816q17 16 32 16z" />
<glyph unicode=")" horiz-adv-x="800" d="M144 1816h16q123 -47 348 -324q192 -284 192 -572q0 -439 -444 -892q-24 -28 -52 -28q-52 13 -52 52v8q0 22 104 128q332 373 332 736q0 423 -436 772q-52 31 -52 60v16q0 33 44 44z" />
<glyph unicode="*" horiz-adv-x="1140" d="M560 1696h16q33 0 44 -44v-152l4 -180q192 200 204 200l20 4h4q48 -10 48 -48v-16q0 -19 -84 -100l-116 -124l80 4h180q80 0 80 -48v-16q-10 -48 -48 -48h-16l-112 4l-112 -4h-16q252 -243 252 -288v-8q0 -41 -56 -52q-31 0 -108 104q-137 143 -184 180q20 -187 56 -372 q0 -44 -60 -52q-53 0 -64 116q-24 128 -40 288q-63 -67 -204 -244q-15 -12 -36 -12h-4q-48 10 -48 48v16q0 23 192 248h-4l-280 -44h-4q-33 0 -44 44v16q0 49 116 64l248 36v4q-258 198 -272 216l-8 28q14 52 48 52h16q24 0 264 -196v4l-4 208l4 124q17 40 48 40z" />
<glyph unicode="+" horiz-adv-x="1176" d="M544 1218h16q48 -11 48 -44l-24 -384q222 16 416 16h24q41 0 52 -56q0 -56 -104 -56h-36q-170 0 -352 -16v-108q0 -225 36 -448v-4q-10 -48 -48 -48h-4q-68 0 -68 128q-28 147 -28 420v52l-332 -40q-40 17 -40 48v16q0 50 116 56l260 32v8q12 412 36 412q17 16 32 16z " />
<glyph unicode="," horiz-adv-x="520" d="M276 250h32q75 0 112 -104v-40q-17 -102 -52 -168q-110 -148 -232 -148q-27 0 -36 40v8q0 41 88 52q82 43 108 104q-93 0 -128 88l-4 24v32q30 112 112 112z" />
<glyph unicode="-" horiz-adv-x="1256" d="M692 786h160q292 0 292 -36q12 -15 12 -36q0 -35 -48 -52q-184 16 -332 16q-230 0 -636 -28q-40 17 -40 48v16q0 52 136 52q242 20 456 20z" />
<glyph unicode="." horiz-adv-x="456" d="M212 256h32q75 0 112 -104v-40q0 -75 -104 -112h-40q-112 30 -112 112v32q30 112 112 112z" />
<glyph unicode="/" horiz-adv-x="1400" d="M1240 1748h16q33 0 44 -44v-16q0 -19 -196 -304l-916 -1372q-15 -12 -36 -12h-4q-48 10 -48 48v16q0 17 228 352l884 1324z" />
<glyph unicode="0" horiz-adv-x="1456" d="M940 1288h44q256 0 348 -280q24 -86 24 -176v-12q0 -353 -396 -656q-248 -164 -468 -164q-270 0 -368 264q-24 91 -24 152v80q0 254 296 540q305 252 544 252zM476 960q372 -340 492 -500l68 -84q208 219 208 424v56q0 240 -188 312q-54 12 -92 12q-226 0 -488 -220z M396 884q-188 -216 -188 -424q0 -267 176 -332q52 -16 100 -16h24q209 0 444 188q-38 84 -448 488z" />
<glyph unicode="1" horiz-adv-x="688" d="M520 1616h16q48 0 48 -104l4 -208v-124q0 -555 -76 -1148q-21 -32 -56 -32q-52 13 -52 52q76 605 76 1236l-4 100h-4q-116 -155 -292 -288l-20 -4h-16q-33 0 -44 44v16q0 30 96 96q254 248 280 336q21 28 44 28z" />
<glyph unicode="2" horiz-adv-x="1520" d="M624 1492h52q269 0 424 -284q64 -141 64 -260q0 -259 -264 -556q298 -88 488 -184q22 0 32 -44q-6 -60 -60 -60q-197 93 -488 184l-60 12q-288 -300 -480 -300h-20q-126 0 -204 164l-8 36v32q0 139 228 212q61 16 152 16h8q112 0 296 -36q268 289 268 524q0 203 -164 360 q-107 76 -236 76q-193 0 -376 -156l-16 -4q-56 9 -56 56v8q25 78 248 172q102 32 172 32zM208 220q0 -73 108 -112h8q141 0 356 220v4q-107 16 -176 16h-60q-169 0 -232 -108z" />
<glyph unicode="3" horiz-adv-x="1456" d="M960 1460h76q139 0 184 -96l8 -48q0 -178 -412 -468q-108 -64 -172 -92q0 -8 172 -44q540 -158 540 -408v-16q0 -162 -224 -236q-177 -52 -424 -52q-600 21 -600 72q-7 0 -8 20v16q0 34 52 48q294 -44 572 -44q405 0 508 124l12 44v32q0 150 -444 288q-155 40 -384 80 q-24 19 -24 48v4q0 43 120 80q271 114 500 336q104 117 104 164v12q0 22 -104 28q-329 0 -820 -108q-52 14 -52 48v16q0 53 172 72q382 80 648 80z" />
<glyph unicode="4" horiz-adv-x="1308" d="M732 1668h16q49 0 76 -156q92 -367 92 -768h4q180 32 236 32q46 0 52 -56v-4q0 -56 -128 -56l-164 -32q-16 -620 -68 -620l-24 -8h-8q-52 13 -52 52q40 303 40 556h-4q-269 -56 -500 -56q-196 0 -196 36l-4 20v16q0 17 72 92q168 214 296 492q37 116 88 116 q52 -13 52 -52v-4q0 -62 -236 -468l-100 -136h8q261 0 524 56v8q0 477 -120 888q14 52 48 52z" />
<glyph unicode="5" horiz-adv-x="1400" d="M1256 1392q33 0 44 -48v-4q0 -60 -100 -60q-656 -33 -656 -68q-144 -73 -212 -248q-20 -66 -20 -104q0 -134 144 -180q64 -20 132 -20l296 12q229 0 280 -120l8 -52q0 -136 -196 -312q-246 -188 -512 -188h-8q-231 0 -356 160v24q0 41 56 48q18 0 100 -72q96 -48 180 -48 h52q246 0 488 224q84 114 84 160v8q0 56 -168 56h-32l-272 -12q-235 0 -348 164q-36 65 -36 140v20q0 195 200 380q112 112 408 112z" />
<glyph unicode="6" horiz-adv-x="1260" d="M748 1440h8q52 -4 52 -52v-8q0 -31 -80 -80q-245 -231 -312 -356q-208 -309 -208 -528q0 -45 16 -108h8q317 252 580 252h4q243 0 336 -236l8 -48v-8q0 -219 -500 -268h-96q-234 0 -388 172q-76 101 -76 224v48q0 278 336 716q227 257 312 280zM288 208 q127 -100 300 -100q277 0 436 108q24 29 24 44v20q0 61 -104 140q-60 28 -120 28h-32q-201 0 -500 -232l-4 -4v-4z" />
<glyph unicode="7" horiz-adv-x="1228" d="M628 1356h84q189 0 396 -68q20 -23 20 -40q-14 -272 -412 -876q-168 -237 -284 -364l-28 -8q-52 13 -52 52v8q0 22 160 216q411 564 500 928q-190 44 -336 44q-258 0 -516 -112h-16q-33 0 -44 44v16q0 81 412 152z" />
<glyph unicode="8" horiz-adv-x="1188" d="M848 1348h4q37 0 44 -52v-8q0 -50 -116 -64q-156 -52 -264 -116q-308 -210 -308 -348q0 -76 208 -88q0 25 204 300q216 256 256 256h16q37 0 44 -52v-8q0 -26 -92 -104q-186 -210 -288 -368l-20 -36q552 -45 552 -220v-12q0 -178 -564 -396q-113 -32 -168 -32h-32 q-123 0 -144 116v36q0 81 172 416h-4q-147 0 -232 120l-16 56v36q0 154 292 376q238 162 456 192zM472 556q-184 -344 -184 -428q8 -20 32 -20h24q181 0 572 244q52 40 64 76q0 82 -508 128z" />
<glyph unicode="9" horiz-adv-x="1064" d="M596 1416h52q115 0 196 -40l12 -32v-16q0 -37 -56 -48q-82 28 -168 28h-16q-291 0 -408 -340v-24q0 -109 164 -128q213 0 460 344q20 32 56 32q55 0 64 -144q12 -115 12 -228q0 -470 -204 -804q-22 -16 -40 -16q-52 13 -52 52v4q0 14 60 132q124 275 124 628v8l-4 156 l-4 12h-4q-243 -288 -460 -288q-212 0 -276 196l-4 36v28q0 129 176 328q154 124 320 124z" />
<glyph unicode=":" horiz-adv-x="456" d="M212 1102h32q75 0 112 -104v-40q0 -75 -104 -112h-40q-112 30 -112 112v32q30 112 112 112zM228 570q128 -17 128 -124v-20q0 -92 -128 -116h-4q-124 26 -124 116v20q0 107 128 124z" />
<glyph unicode=";" horiz-adv-x="464" d="M212 1100h32q75 0 112 -104v-40q0 -75 -104 -112h-40q-75 0 -112 104v40q30 112 112 112zM228 568q70 0 128 -72l8 -92v-48q0 -247 -168 -356h-12q-39 0 -44 48q0 17 72 80q60 107 60 188h-4l-44 -8q-124 26 -124 116v20q0 107 128 124z" />
<glyph unicode="&#x3c;" horiz-adv-x="1056" d="M824 1148h16q48 -10 48 -48v-4q0 -43 -100 -100q-226 -165 -552 -468v-4q435 -329 696 -424q24 -25 24 -48q-13 -52 -52 -52h-4q-63 0 -432 220q-178 121 -364 272l-4 20v16q0 35 220 224q259 231 448 364q40 32 56 32z" />
<glyph unicode="=" horiz-adv-x="1108" d="M480 942h128q388 -14 388 -48q12 -15 12 -36v-4q-13 -52 -52 -52q-212 32 -412 32q-202 0 -392 -32q-52 15 -52 48v16q0 60 148 60q88 16 232 16zM616 574h52q308 0 308 -56l4 -12v-16q0 -33 -52 -48q-66 16 -284 24q-269 -8 -472 -36q-38 0 -48 60q0 56 104 56 q181 28 388 28z" />
<glyph unicode="&#x3e;" horiz-adv-x="1080" d="M184 1148h12q37 0 440 -224q199 -114 316 -216q28 -31 28 -60q0 -59 -312 -336q-206 -154 -432 -276q-62 -36 -84 -36h-4q-48 10 -48 48v16q0 35 136 96q237 130 468 328q96 92 148 160v8q-351 233 -692 396q-12 0 -20 36v16q0 33 44 44z" />
<glyph unicode="?" horiz-adv-x="1024" d="M440 1732h48q264 0 396 -264q40 -113 40 -236q0 -309 -328 -416q-105 -32 -220 -32v-4q20 -94 20 -160q-20 -260 -84 -260h-20q-44 0 -52 64q36 94 36 172v52q0 67 -36 196v4q0 36 52 56l28 -4h28q377 0 448 244l12 96q0 301 -256 368l-80 8h-4q-143 0 -300 -92l-12 -4 q-56 14 -56 52v16q22 85 288 140zM304 220h8q100 -21 100 -100v-12q0 -83 -92 -108h-24q-86 0 -104 112q0 93 112 108z" />
<glyph unicode="@" horiz-adv-x="1708" d="M864 1388h60q248 0 492 -188q192 -183 192 -344v-44q0 -183 -232 -304q-80 -28 -148 -28h-4q-197 0 -276 188l-4 24h-4q-121 -204 -292 -204q-153 0 -220 148q-12 34 -16 88q0 211 204 380q159 96 344 96q52 -15 52 -60q0 -56 -124 -56q-105 0 -240 -96 q-124 -123 -124 -268q0 -90 88 -116l36 -4h20q136 0 280 356q36 148 80 148h8q56 -9 56 -52q-48 -200 -48 -280q0 -143 132 -176l40 -4h28q137 0 236 148q20 54 20 96q0 189 -260 352q-166 92 -352 92q-232 0 -460 -228q-220 -242 -220 -480q0 -206 196 -324q77 -32 152 -32 h32q206 0 548 184l20 4q56 -8 56 -56q0 -51 -212 -136q-236 -108 -404 -108h-8l-16 -4l-16 4h-12q-279 0 -420 308q-24 87 -24 144v48q0 279 308 584q245 200 456 200z" />
<glyph unicode="A" horiz-adv-x="1428" d="M760 1428h16q31 0 88 -116q160 -250 260 -532q36 -93 76 -240h4l76 8q48 -10 48 -48v-4q0 -64 -104 -64q52 -265 52 -372q0 -38 -60 -48q-56 0 -56 124q-16 141 -44 280q-366 -56 -596 -56q-48 10 -48 56v4q0 52 108 52q157 0 508 52q0 65 -160 448l-140 260 q-7 -3 -76 -200q-221 -517 -520 -1020l-40 -12h-4q-48 10 -48 48v16l184 332q243 459 368 792q36 98 64 212q21 28 44 28z" />
<glyph unicode="B" horiz-adv-x="1284" d="M424 1296h48q180 0 248 -156l8 -60v-4q0 -204 -232 -388h-4v-4h64q463 0 592 -148q36 -48 36 -100q0 -202 -432 -384q-155 -52 -288 -52q-246 0 -332 172l-16 60l4 224l-20 628q0 90 172 180q85 32 152 32zM208 1068l16 -396h4q258 92 356 280q32 62 32 116v28 q0 79 -168 92q-163 0 -236 -112l-4 -4v-4zM228 552l4 -84l-8 -212q0 -110 184 -140l44 -4h24q274 0 544 224q52 58 52 108q0 90 -380 124l-104 4h-36q-120 0 -324 -20z" />
<glyph unicode="C" horiz-adv-x="1704" d="M812 1344h12q41 0 48 -56q0 -47 -104 -72q-560 -257 -560 -652q0 -268 196 -392q114 -64 288 -64q359 0 784 232q45 44 72 44h4q52 -6 52 -48v-12q0 -86 -484 -256q-248 -68 -412 -68h-52q-395 0 -528 360q-28 117 -28 176v64q0 318 388 588q190 122 324 156z" />
<glyph unicode="D" horiz-adv-x="1584" d="M260 1468h80q474 0 844 -248q206 -157 280 -408q20 -63 20 -140v-4q0 -381 -608 -588q-260 -80 -496 -80q-280 11 -280 84v12q6 52 48 52h12q88 -36 188 -36h52q396 0 764 220q208 159 208 320v40q0 207 -236 424q-187 150 -544 216q-103 20 -272 28q52 -514 140 -1084 v-4q0 -33 -52 -48q-64 0 -64 112q-80 455 -140 1072v12q15 48 56 48z" />
<glyph unicode="E" horiz-adv-x="1408" d="M992 1272h100q212 0 212 -44l4 -16v-12q-11 -48 -44 -48l-220 12q-308 0 -716 -92q-88 -327 -88 -388l28 4q210 0 604 60q46 0 56 -60q0 -60 -120 -60q-339 -52 -584 -52q-16 -102 -16 -224q4 -184 44 -184q59 -56 204 -56h48q245 0 732 144h8q48 -12 48 -56 q0 -53 -140 -80q-394 -120 -672 -120q-267 0 -352 144q-28 61 -28 180v76q0 307 140 752q0 29 432 96q188 24 320 24z" />
<glyph unicode="F" horiz-adv-x="1336" d="M348 1320h132q333 0 728 -56q28 -20 28 -52q0 -41 -56 -52q-453 52 -776 52l-184 -4q44 -208 80 -496q197 -28 352 -28q152 0 304 36q43 0 52 -56v-4q0 -53 -124 -68q-106 -16 -188 -16h-88q-151 0 -300 24v-4l8 -272q0 -316 -40 -316l-32 -8q-52 14 -52 48 q12 138 12 248v56q0 399 -104 904v8q0 52 132 52z" />
<glyph unicode="G" horiz-adv-x="1492" d="M748 1420h44q106 0 196 -88l4 -20v-12q0 -40 -56 -48h-4q-10 0 -80 44q-49 16 -84 16q-252 0 -496 -552q-64 -170 -64 -312q0 -239 204 -292l64 -4h52q246 0 408 244q52 107 52 148h-36q-52 0 -160 -20h-4q-48 12 -48 56q0 57 128 68q36 8 96 8q136 0 136 -76 q0 -305 280 -492q12 -15 12 -28v-12q-10 -48 -48 -48h-8q-57 0 -208 168q-96 142 -96 172h-4q-105 -187 -316 -264q-100 -36 -200 -36h-16q-307 0 -384 284q-12 55 -12 100v56q0 297 280 700q196 240 368 240z" />
<glyph unicode="H" horiz-adv-x="1164" d="M160 1280h16q34 0 48 -52q-16 -144 -16 -336l4 -172q303 0 628 56q48 -14 48 -56q0 -58 -112 -68q-288 -40 -500 -40h-60q20 -282 60 -568q-15 -44 -48 -44h-16q-52 0 -60 140q-52 395 -52 700v152q0 280 36 280zM968 1176q64 0 64 -152q32 -419 32 -900q-9 -60 -60 -60 q-52 13 -52 52q0 602 -40 1016q18 44 56 44z" />
<glyph unicode="I" horiz-adv-x="1428" d="M492 1160h136q301 0 576 -68q28 -21 28 -52v-4q-10 -48 -48 -48h-4q-283 56 -420 56v-4l-8 -172v-76q0 -287 60 -668q181 12 472 52h4q40 -17 40 -48v-4q0 -68 -136 -68q-345 -56 -664 -56q-420 9 -420 52l-8 24v16q0 36 48 44q197 -24 396 -24h28l128 4q-60 396 -60 712 l8 220l-24 4q-229 0 -336 -12q-52 15 -52 48v16q0 52 116 52z" />
<glyph unicode="J" horiz-adv-x="1748" d="M1584 1348h16q48 -10 48 -48v-4q0 -60 -128 -80q-77 -32 -396 -72l-280 -20v-4q328 -512 328 -804q0 -228 -212 -296q-59 -16 -148 -20q-216 0 -608 140q-24 24 -24 40v16q0 37 56 48q368 -132 584 -132h4q167 0 216 100q20 39 20 84v40q0 252 -348 784l-80 -4h-356 q-168 0 -168 24l-8 28v16q0 36 48 44l284 -4q785 0 1152 124z" />
<glyph unicode="K" horiz-adv-x="1524" d="M232 1476h16q48 -11 48 -48q-40 -938 -80 -1276q148 162 400 512q0 20 620 792q21 20 36 20h16q41 0 48 -56q0 -22 -164 -220l-380 -480v-4q20 -119 580 -572q52 -25 52 -64v-4q0 -41 -56 -52q-31 0 -344 264q-284 268 -284 300l-24 28h-4q-196 -284 -392 -516 q-95 -100 -144 -100h-4q-62 0 -72 76v20q44 356 84 1328q14 52 48 52z" />
<glyph unicode="L" horiz-adv-x="1512" d="M228 1120h16q43 0 48 -56q-84 -384 -84 -656q0 -241 88 -292l32 -8q286 0 1032 188q52 -13 52 -52v-8q0 -53 -136 -72q-648 -164 -912 -164h-48q-176 0 -212 308l-4 80v76q0 253 88 632q24 24 40 24z" />
<glyph unicode="M" horiz-adv-x="1908" d="M1384 1256h16q46 0 80 -128q188 -456 328 -940v-8q0 -33 -48 -44h-16q-46 0 -72 140q-136 407 -268 756h-4q-265 -872 -492 -872q-169 0 -328 728h-4q-188 -537 -380 -868q-23 -20 -44 -20q-52 14 -52 48v16l84 164q152 302 364 900q26 24 48 24q60 0 72 -164 q140 -624 244 -716q101 0 332 616l104 348q21 20 36 20z" />
<glyph unicode="N" horiz-adv-x="1676" d="M1280 1180h16q52 0 52 -132q36 -234 84 -400q144 -420 144 -496q-10 -92 -80 -92h-8q-246 0 -616 208q-143 77 -392 320q-86 90 -192 220v-4q20 -152 20 -320q-14 -472 -52 -472q-15 -12 -28 -12h-16q-34 0 -48 52q32 207 32 416v44q0 334 -96 592v16q10 48 48 48h4 q46 0 76 -76q114 -194 360 -456q319 -294 544 -376q234 -88 332 -88v4q-16 69 -144 468q-88 331 -88 492q0 33 48 44z" />
<glyph unicode="O" horiz-adv-x="1740" d="M856 1312h88q319 0 556 -296q140 -220 140 -424q0 -375 -364 -540q-167 -52 -304 -52q-443 0 -696 148q-176 124 -176 296v44q0 191 184 456q184 213 292 260q153 93 280 108zM208 456q0 -283 580 -336l192 -8q394 0 520 308q28 75 28 176q0 262 -228 472 q-167 136 -396 136q-187 0 -440 -220q-256 -275 -256 -528z" />
<glyph unicode="P" horiz-adv-x="1364" d="M808 1416h44q167 0 320 -132q92 -102 92 -224v-40q0 -179 -212 -372q-144 -100 -312 -100q-151 0 -332 80v-4l-12 -248q0 -124 24 -328q0 -41 -56 -48q-53 0 -76 132q-96 324 -164 780l-24 204q0 41 56 48q60 0 60 -120q52 -345 76 -452h4v8q0 197 116 504 q154 312 396 312zM424 744q165 -84 308 -84h20q253 0 380 272q24 55 24 120q0 208 -304 256h-28q-297 0 -400 -564z" />
<glyph unicode="Q" horiz-adv-x="1668" d="M868 1388h68q329 0 528 -244q104 -153 104 -340q0 -303 -292 -504h-4v-4q138 -158 208 -188q32 -18 32 -56t-56 -52q-93 22 -284 244q-170 -72 -328 -72h-56q-410 0 -616 248q-72 118 -72 232v48q0 233 236 480q233 208 532 208zM208 668q0 -301 440 -376l172 -12 q127 0 280 52v4q-152 225 -152 268q0 40 60 52q37 0 88 -112l104 -160q256 157 256 424q0 347 -360 448q-87 24 -200 24q-479 0 -668 -464q-20 -91 -20 -148z" />
<glyph unicode="R" horiz-adv-x="1552" d="M792 1244h48q195 0 320 -184q40 -64 40 -144v-24q0 -205 -316 -384l-96 -48q59 -119 248 -192q120 -36 228 -36h140q48 -10 48 -48v-12q0 -52 -104 -52h-48q-479 0 -632 336l-8 32v12q0 39 116 76q316 152 316 336q0 150 -204 216l-72 8q-385 0 -532 -768 q-28 -158 -44 -332q-19 -36 -56 -36q-60 0 -60 144q-24 242 -24 500v296q0 84 52 84h12q34 0 48 -44l-4 -256v-68l4 -100h4q0 64 124 348q184 340 452 340z" />
<glyph unicode="S" horiz-adv-x="1304" d="M788 1248h68q33 0 44 -44v-16q-10 -48 -48 -48q-486 0 -624 -260l-4 -24v-8q0 -141 612 -280q283 -120 352 -264l16 -60v-36q0 -123 -244 -180q-142 -28 -312 -28q-223 0 -524 52q-24 24 -24 40v16q10 48 48 48q305 -44 500 -44h20q346 0 424 96l4 24q-28 103 -236 208 q-89 32 -408 116q-340 119 -340 300q0 153 264 304q187 88 412 88z" />
<glyph unicode="T" horiz-adv-x="1588" d="M144 1228h1296q48 -10 48 -48v-4q0 -56 -56 -56h-704v-4q0 -349 -68 -1080q-21 -36 -48 -36h-4q-56 6 -56 52q64 718 64 1056v12h-468q-48 10 -48 48v16q0 33 44 44z" />
<glyph unicode="U" horiz-adv-x="1196" d="M1020 1180h4q60 0 60 -116q8 0 12 -180q0 -533 -328 -796q-134 -88 -272 -88q-277 0 -360 292q-36 121 -36 252v96q0 211 64 488q24 28 52 28q42 0 52 -56q-60 -279 -60 -516q0 -349 156 -444q63 -28 140 -28q281 0 428 412q52 169 52 360v20q0 76 -16 236q14 40 52 40z " />
<glyph unicode="V" horiz-adv-x="1260" d="M1076 1148h8q57 0 68 -168l8 -164q0 -425 -256 -736q-83 -80 -160 -80q-202 0 -488 536q-106 187 -156 328v16q0 41 56 48q45 0 76 -104q353 -712 508 -712h12q89 0 228 312q68 188 68 364v68q0 87 -24 244q0 42 52 48z" />
<glyph unicode="W" horiz-adv-x="1976" d="M208 1180q48 -14 48 -52q-48 -298 -48 -476q0 -354 164 -508q46 -32 100 -32q159 0 356 280q87 141 100 224q24 24 40 24h16q43 0 72 -108q191 -324 432 -324q211 0 268 228l8 88v48q0 267 -172 520q-11 0 -16 40q14 48 48 48h16q72 0 196 -340q40 -162 40 -280v-16 q0 -347 -292 -436l-92 -12q-267 0 -488 308l-20 36h-4q-164 -322 -412 -420q-51 -16 -100 -20q-252 0 -348 416q-20 95 -20 196v92q27 472 76 472z" />
<glyph unicode="X" horiz-adv-x="1372" d="M144 1272h16q33 0 100 -108q197 -251 388 -448q278 438 324 496l20 4h16q48 0 48 -60q0 -15 -248 -392l-84 -132q338 -329 524 -452q13 0 24 -40q-9 -56 -56 -56h-8q-25 0 -280 204l-264 248l-344 -524q-15 -12 -36 -12q-52 0 -56 64l356 556q-374 405 -484 584v24 q0 33 44 44z" />
<glyph unicode="Y" horiz-adv-x="1496" d="M1332 1392h16q37 0 48 -56q0 -33 -136 -128q-241 -223 -312 -328q-86 -114 -160 -244q48 -155 48 -332q-11 -296 -48 -296l-24 -8h-12q-41 0 -48 52q20 154 20 256q0 407 -264 616q-114 103 -272 204q-88 36 -88 80v8q10 48 48 48h12q168 -66 456 -336q94 -111 116 -164 q103 165 264 344q286 279 336 284z" />
<glyph unicode="Z" horiz-adv-x="1820" d="M836 1412h116q492 -23 492 -48q36 -26 36 -64v-4q-7 -97 -400 -376q-497 -387 -688 -564q-184 -179 -184 -236l56 -12q129 0 1032 132q213 24 376 24q48 -11 48 -48v-16q0 -44 -72 -48h-8q-257 0 -1028 -120q-225 -32 -360 -32q-152 15 -152 108v28q0 170 788 772 q361 270 456 368h-20q-289 28 -432 28q-258 0 -492 -48q-43 0 -52 60q0 57 176 72q136 24 312 24z" />
<glyph unicode="[" horiz-adv-x="768" d="M488 1520q48 0 48 -60q0 -52 -116 -52q-71 0 -204 -40l-4 -44l-4 -304q0 -561 64 -908q82 0 344 48q52 -4 52 -52v-8q0 -48 -112 -64q-214 -36 -340 -36q-49 0 -64 164q-52 320 -52 740v240l4 256q0 87 328 120h56z" />
<glyph unicode="\" horiz-adv-x="1360" d="M144 1628h16q38 0 108 -140q431 -696 792 -1180l200 -236v-24q-10 -48 -48 -48h-4q-36 0 -96 76q-294 349 -472 636q-282 410 -540 848v24q0 33 44 44z" />
<glyph unicode="]" horiz-adv-x="760" d="M304 1524h108q208 0 208 -60q40 -434 40 -788v-136q-10 -524 -80 -524q-85 -16 -244 -16q-228 0 -228 48l-4 24q0 35 52 52q66 -12 148 -12h68l140 4q40 145 40 484q0 301 -36 808l-156 8q-92 0 -212 -12q-48 17 -48 48v16q0 48 76 48q0 7 128 8z" />
<glyph unicode="^" horiz-adv-x="961" />
<glyph unicode="_" horiz-adv-x="1712" d="M1568 160q33 0 44 -56q0 -60 -124 -60q-347 -44 -764 -44q-608 11 -608 32q-16 24 -16 36v16q0 31 48 48q263 -20 584 -20q407 0 836 48z" />
<glyph unicode="`" horiz-adv-x="682" />
<glyph unicode="a" horiz-adv-x="1428" d="M760 1428h16q31 0 88 -116q160 -250 260 -532q36 -93 76 -240h4l76 8q48 -10 48 -48v-4q0 -64 -104 -64q52 -265 52 -372q0 -38 -60 -48q-56 0 -56 124q-16 141 -44 280q-366 -56 -596 -56q-48 10 -48 56v4q0 52 108 52q157 0 508 52q0 65 -160 448l-140 260 q-7 -3 -76 -200q-221 -517 -520 -1020l-40 -12h-4q-48 10 -48 48v16l184 332q243 459 368 792q36 98 64 212q21 28 44 28z" />
<glyph unicode="b" horiz-adv-x="1284" d="M424 1296h48q180 0 248 -156l8 -60v-4q0 -204 -232 -388h-4v-4h64q463 0 592 -148q36 -48 36 -100q0 -202 -432 -384q-155 -52 -288 -52q-246 0 -332 172l-16 60l4 224l-20 628q0 90 172 180q85 32 152 32zM208 1068l16 -396h4q258 92 356 280q32 62 32 116v28 q0 79 -168 92q-163 0 -236 -112l-4 -4v-4zM228 552l4 -84l-8 -212q0 -110 184 -140l44 -4h24q274 0 544 224q52 58 52 108q0 90 -380 124l-104 4h-36q-120 0 -324 -20z" />
<glyph unicode="c" horiz-adv-x="1704" d="M812 1344h12q41 0 48 -56q0 -47 -104 -72q-560 -257 -560 -652q0 -268 196 -392q114 -64 288 -64q359 0 784 232q45 44 72 44h4q52 -6 52 -48v-12q0 -86 -484 -256q-248 -68 -412 -68h-52q-395 0 -528 360q-28 117 -28 176v64q0 318 388 588q190 122 324 156z" />
<glyph unicode="d" horiz-adv-x="1584" d="M260 1468h80q474 0 844 -248q206 -157 280 -408q20 -63 20 -140v-4q0 -381 -608 -588q-260 -80 -496 -80q-280 11 -280 84v12q6 52 48 52h12q88 -36 188 -36h52q396 0 764 220q208 159 208 320v40q0 207 -236 424q-187 150 -544 216q-103 20 -272 28q52 -514 140 -1084 v-4q0 -33 -52 -48q-64 0 -64 112q-80 455 -140 1072v12q15 48 56 48z" />
<glyph unicode="e" horiz-adv-x="1408" d="M992 1272h100q212 0 212 -44l4 -16v-12q-11 -48 -44 -48l-220 12q-308 0 -716 -92q-88 -327 -88 -388l28 4q210 0 604 60q46 0 56 -60q0 -60 -120 -60q-339 -52 -584 -52q-16 -102 -16 -224q4 -184 44 -184q59 -56 204 -56h48q245 0 732 144h8q48 -12 48 -56 q0 -53 -140 -80q-394 -120 -672 -120q-267 0 -352 144q-28 61 -28 180v76q0 307 140 752q0 29 432 96q188 24 320 24z" />
<glyph unicode="f" horiz-adv-x="1336" d="M348 1320h132q333 0 728 -56q28 -20 28 -52q0 -41 -56 -52q-453 52 -776 52l-184 -4q44 -208 80 -496q197 -28 352 -28q152 0 304 36q43 0 52 -56v-4q0 -53 -124 -68q-106 -16 -188 -16h-88q-151 0 -300 24v-4l8 -272q0 -316 -40 -316l-32 -8q-52 14 -52 48 q12 138 12 248v56q0 399 -104 904v8q0 52 132 52z" />
<glyph unicode="g" horiz-adv-x="1492" d="M748 1420h44q106 0 196 -88l4 -20v-12q0 -40 -56 -48h-4q-10 0 -80 44q-49 16 -84 16q-252 0 -496 -552q-64 -170 -64 -312q0 -239 204 -292l64 -4h52q246 0 408 244q52 107 52 148h-36q-52 0 -160 -20h-4q-48 12 -48 56q0 57 128 68q36 8 96 8q136 0 136 -76 q0 -305 280 -492q12 -15 12 -28v-12q-10 -48 -48 -48h-8q-57 0 -208 168q-96 142 -96 172h-4q-105 -187 -316 -264q-100 -36 -200 -36h-16q-307 0 -384 284q-12 55 -12 100v56q0 297 280 700q196 240 368 240z" />
<glyph unicode="h" horiz-adv-x="1164" d="M160 1280h16q34 0 48 -52q-16 -144 -16 -336l4 -172q303 0 628 56q48 -14 48 -56q0 -58 -112 -68q-288 -40 -500 -40h-60q20 -282 60 -568q-15 -44 -48 -44h-16q-52 0 -60 140q-52 395 -52 700v152q0 280 36 280zM968 1176q64 0 64 -152q32 -419 32 -900q-9 -60 -60 -60 q-52 13 -52 52q0 602 -40 1016q18 44 56 44z" />
<glyph unicode="i" horiz-adv-x="1428" d="M492 1160h136q301 0 576 -68q28 -21 28 -52v-4q-10 -48 -48 -48h-4q-283 56 -420 56v-4l-8 -172v-76q0 -287 60 -668q181 12 472 52h4q40 -17 40 -48v-4q0 -68 -136 -68q-345 -56 -664 -56q-420 9 -420 52l-8 24v16q0 36 48 44q197 -24 396 -24h28l128 4q-60 396 -60 712 l8 220l-24 4q-229 0 -336 -12q-52 15 -52 48v16q0 52 116 52z" />
<glyph unicode="j" horiz-adv-x="1748" d="M1584 1348h16q48 -10 48 -48v-4q0 -60 -128 -80q-77 -32 -396 -72l-280 -20v-4q328 -512 328 -804q0 -228 -212 -296q-59 -16 -148 -20q-216 0 -608 140q-24 24 -24 40v16q0 37 56 48q368 -132 584 -132h4q167 0 216 100q20 39 20 84v40q0 252 -348 784l-80 -4h-356 q-168 0 -168 24l-8 28v16q0 36 48 44l284 -4q785 0 1152 124z" />
<glyph unicode="k" horiz-adv-x="1524" d="M232 1476h16q48 -11 48 -48q-40 -938 -80 -1276q148 162 400 512q0 20 620 792q21 20 36 20h16q41 0 48 -56q0 -22 -164 -220l-380 -480v-4q20 -119 580 -572q52 -25 52 -64v-4q0 -41 -56 -52q-31 0 -344 264q-284 268 -284 300l-24 28h-4q-196 -284 -392 -516 q-95 -100 -144 -100h-4q-62 0 -72 76v20q44 356 84 1328q14 52 48 52z" />
<glyph unicode="l" horiz-adv-x="1512" d="M228 1120h16q43 0 48 -56q-84 -384 -84 -656q0 -241 88 -292l32 -8q286 0 1032 188q52 -13 52 -52v-8q0 -53 -136 -72q-648 -164 -912 -164h-48q-176 0 -212 308l-4 80v76q0 253 88 632q24 24 40 24z" />
<glyph unicode="m" horiz-adv-x="1908" d="M1384 1256h16q46 0 80 -128q188 -456 328 -940v-8q0 -33 -48 -44h-16q-46 0 -72 140q-136 407 -268 756h-4q-265 -872 -492 -872q-169 0 -328 728h-4q-188 -537 -380 -868q-23 -20 -44 -20q-52 14 -52 48v16l84 164q152 302 364 900q26 24 48 24q60 0 72 -164 q140 -624 244 -716q101 0 332 616l104 348q21 20 36 20z" />
<glyph unicode="n" horiz-adv-x="1676" d="M1280 1180h16q52 0 52 -132q36 -234 84 -400q144 -420 144 -496q-10 -92 -80 -92h-8q-246 0 -616 208q-143 77 -392 320q-86 90 -192 220v-4q20 -152 20 -320q-14 -472 -52 -472q-15 -12 -28 -12h-16q-34 0 -48 52q32 207 32 416v44q0 334 -96 592v16q10 48 48 48h4 q46 0 76 -76q114 -194 360 -456q319 -294 544 -376q234 -88 332 -88v4q-16 69 -144 468q-88 331 -88 492q0 33 48 44z" />
<glyph unicode="o" horiz-adv-x="1740" d="M856 1312h88q319 0 556 -296q140 -220 140 -424q0 -375 -364 -540q-167 -52 -304 -52q-443 0 -696 148q-176 124 -176 296v44q0 191 184 456q184 213 292 260q153 93 280 108zM208 456q0 -283 580 -336l192 -8q394 0 520 308q28 75 28 176q0 262 -228 472 q-167 136 -396 136q-187 0 -440 -220q-256 -275 -256 -528z" />
<glyph unicode="p" horiz-adv-x="1364" d="M808 1416h44q167 0 320 -132q92 -102 92 -224v-40q0 -179 -212 -372q-144 -100 -312 -100q-151 0 -332 80v-4l-12 -248q0 -124 24 -328q0 -41 -56 -48q-53 0 -76 132q-96 324 -164 780l-24 204q0 41 56 48q60 0 60 -120q52 -345 76 -452h4v8q0 197 116 504 q154 312 396 312zM424 744q165 -84 308 -84h20q253 0 380 272q24 55 24 120q0 208 -304 256h-28q-297 0 -400 -564z" />
<glyph unicode="q" horiz-adv-x="1668" d="M868 1388h68q329 0 528 -244q104 -153 104 -340q0 -303 -292 -504h-4v-4q138 -158 208 -188q32 -18 32 -56t-56 -52q-93 22 -284 244q-170 -72 -328 -72h-56q-410 0 -616 248q-72 118 -72 232v48q0 233 236 480q233 208 532 208zM208 668q0 -301 440 -376l172 -12 q127 0 280 52v4q-152 225 -152 268q0 40 60 52q37 0 88 -112l104 -160q256 157 256 424q0 347 -360 448q-87 24 -200 24q-479 0 -668 -464q-20 -91 -20 -148z" />
<glyph unicode="r" horiz-adv-x="1552" d="M792 1244h48q195 0 320 -184q40 -64 40 -144v-24q0 -205 -316 -384l-96 -48q59 -119 248 -192q120 -36 228 -36h140q48 -10 48 -48v-12q0 -52 -104 -52h-48q-479 0 -632 336l-8 32v12q0 39 116 76q316 152 316 336q0 150 -204 216l-72 8q-385 0 -532 -768 q-28 -158 -44 -332q-19 -36 -56 -36q-60 0 -60 144q-24 242 -24 500v296q0 84 52 84h12q34 0 48 -44l-4 -256v-68l4 -100h4q0 64 124 348q184 340 452 340z" />
<glyph unicode="s" horiz-adv-x="1304" d="M788 1248h68q33 0 44 -44v-16q-10 -48 -48 -48q-486 0 -624 -260l-4 -24v-8q0 -141 612 -280q283 -120 352 -264l16 -60v-36q0 -123 -244 -180q-142 -28 -312 -28q-223 0 -524 52q-24 24 -24 40v16q10 48 48 48q305 -44 500 -44h20q346 0 424 96l4 24q-28 103 -236 208 q-89 32 -408 116q-340 119 -340 300q0 153 264 304q187 88 412 88z" />
<glyph unicode="t" horiz-adv-x="1588" d="M144 1228h1296q48 -10 48 -48v-4q0 -56 -56 -56h-704v-4q0 -349 -68 -1080q-21 -36 -48 -36h-4q-56 6 -56 52q64 718 64 1056v12h-468q-48 10 -48 48v16q0 33 44 44z" />
<glyph unicode="u" horiz-adv-x="1196" d="M1020 1180h4q60 0 60 -116q8 0 12 -180q0 -533 -328 -796q-134 -88 -272 -88q-277 0 -360 292q-36 121 -36 252v96q0 211 64 488q24 28 52 28q42 0 52 -56q-60 -279 -60 -516q0 -349 156 -444q63 -28 140 -28q281 0 428 412q52 169 52 360v20q0 76 -16 236q14 40 52 40z " />
<glyph unicode="v" horiz-adv-x="1260" d="M1076 1148h8q57 0 68 -168l8 -164q0 -425 -256 -736q-83 -80 -160 -80q-202 0 -488 536q-106 187 -156 328v16q0 41 56 48q45 0 76 -104q353 -712 508 -712h12q89 0 228 312q68 188 68 364v68q0 87 -24 244q0 42 52 48z" />
<glyph unicode="w" horiz-adv-x="1976" d="M208 1180q48 -14 48 -52q-48 -298 -48 -476q0 -354 164 -508q46 -32 100 -32q159 0 356 280q87 141 100 224q24 24 40 24h16q43 0 72 -108q191 -324 432 -324q211 0 268 228l8 88v48q0 267 -172 520q-11 0 -16 40q14 48 48 48h16q72 0 196 -340q40 -162 40 -280v-16 q0 -347 -292 -436l-92 -12q-267 0 -488 308l-20 36h-4q-164 -322 -412 -420q-51 -16 -100 -20q-252 0 -348 416q-20 95 -20 196v92q27 472 76 472z" />
<glyph unicode="x" horiz-adv-x="1372" d="M144 1272h16q33 0 100 -108q197 -251 388 -448q278 438 324 496l20 4h16q48 0 48 -60q0 -15 -248 -392l-84 -132q338 -329 524 -452q13 0 24 -40q-9 -56 -56 -56h-8q-25 0 -280 204l-264 248l-344 -524q-15 -12 -36 -12q-52 0 -56 64l356 556q-374 405 -484 584v24 q0 33 44 44z" />
<glyph unicode="y" horiz-adv-x="1496" d="M1332 1392h16q37 0 48 -56q0 -33 -136 -128q-241 -223 -312 -328q-86 -114 -160 -244q48 -155 48 -332q-11 -296 -48 -296l-24 -8h-12q-41 0 -48 52q20 154 20 256q0 407 -264 616q-114 103 -272 204q-88 36 -88 80v8q10 48 48 48h12q168 -66 456 -336q94 -111 116 -164 q103 165 264 344q286 279 336 284z" />
<glyph unicode="z" horiz-adv-x="1820" d="M836 1412h116q492 -23 492 -48q36 -26 36 -64v-4q-7 -97 -400 -376q-497 -387 -688 -564q-184 -179 -184 -236l56 -12q129 0 1032 132q213 24 376 24q48 -11 48 -48v-16q0 -44 -72 -48h-8q-257 0 -1028 -120q-225 -32 -360 -32q-152 15 -152 108v28q0 170 788 772 q361 270 456 368h-20q-289 28 -432 28q-258 0 -492 -48q-43 0 -52 60q0 57 176 72q136 24 312 24z" />
<glyph unicode="{" horiz-adv-x="1196" d="M1048 1788q37 0 48 -56q0 -52 -112 -64q-444 -106 -444 -216q0 -39 188 -212q102 -120 104 -132q28 -52 28 -92q0 -148 -320 -228q44 -46 44 -88q0 -59 -124 -212q-96 -146 -96 -228q0 -105 224 -140l104 -8q125 0 288 44h4q41 0 52 -56q0 -57 -140 -76q-50 -16 -204 -24 q-262 0 -392 132q-48 62 -48 132q0 142 220 428v12q-72 44 -272 44h-56q-33 0 -44 44v16q0 52 108 52q343 0 520 124q20 21 20 36q0 50 -252 296q-64 63 -64 132v12q0 215 604 328h12z" />
<glyph unicode="|" horiz-adv-x="364" d="M148 1868h20q31 0 44 -36l-4 -456q0 -882 56 -1360q0 -26 -44 -36h-12q-60 0 -60 116q-48 392 -48 1068v628q0 76 48 76z" />
<glyph unicode="}" horiz-adv-x="1060" d="M400 1596h60q277 0 368 -196q20 -69 20 -124v-8q0 -241 -256 -428h100q268 0 268 -48v-28q0 -52 -96 -52q-368 -64 -368 -100v-4q33 -45 176 -200q128 -161 128 -260q0 -148 -292 -148q-258 0 -404 108l-4 20v16q10 48 48 48h4l116 -48q117 -32 212 -32h52q148 7 156 32 v16q0 76 -256 352q-46 50 -48 92v20q0 62 84 100v4h-4l-244 -12q-48 10 -48 56v4q0 56 112 56q267 69 364 204q88 113 88 212v44q0 196 -304 196l-184 -12q-44 18 -44 56q0 60 128 60z" />
<glyph unicode="~" horiz-adv-x="1816" d="M628 1494q67 0 308 -96q161 -52 280 -52h12q196 0 416 152h24q37 0 48 -56q0 -67 -300 -180q-122 -28 -192 -28q-195 0 -552 144l-48 4q-188 0 -436 -300q-15 -12 -36 -12h-4q-48 10 -48 48v16q20 66 244 256q154 104 284 104z" />
<glyph unicode="&#xa1;" horiz-adv-x="682" />
<glyph unicode="&#xa2;" />
<glyph unicode="&#xa3;" />
<glyph unicode="&#xa4;" />
<glyph unicode="&#xa5;" />
<glyph unicode="&#xa6;" horiz-adv-x="532" />
<glyph unicode="&#xa7;" />
<glyph unicode="&#xa8;" horiz-adv-x="682" />
<glyph unicode="&#xa9;" horiz-adv-x="1509" />
<glyph unicode="&#xaa;" horiz-adv-x="758" />
<glyph unicode="&#xab;" />
<glyph unicode="&#xac;" horiz-adv-x="1196" />
<glyph unicode="&#xad;" horiz-adv-x="1256" d="M692 786h160q292 0 292 -36q12 -15 12 -36q0 -35 -48 -52q-184 16 -332 16q-230 0 -636 -28q-40 17 -40 48v16q0 52 136 52q242 20 456 20z" />
<glyph unicode="&#xae;" horiz-adv-x="1509" />
<glyph unicode="&#xaf;" horiz-adv-x="1131" />
<glyph unicode="&#xb0;" horiz-adv-x="819" />
<glyph unicode="&#xb1;" horiz-adv-x="1124" />
<glyph unicode="&#xb2;" horiz-adv-x="682" />
<glyph unicode="&#xb3;" horiz-adv-x="682" />
<glyph unicode="&#xb4;" horiz-adv-x="682" />
<glyph unicode="&#xb5;" horiz-adv-x="1180" />
<glyph unicode="&#xb6;" horiz-adv-x="1100" />
<glyph unicode="&#xb7;" horiz-adv-x="569" />
<glyph unicode="&#xb8;" horiz-adv-x="682" />
<glyph unicode="&#xb9;" horiz-adv-x="682" />
<glyph unicode="&#xba;" horiz-adv-x="748" />
<glyph unicode="&#xbb;" />
<glyph unicode="&#xbc;" horiz-adv-x="1708" />
<glyph unicode="&#xbd;" horiz-adv-x="1708" />
<glyph unicode="&#xbe;" horiz-adv-x="1708" />
<glyph unicode="&#xbf;" horiz-adv-x="1251" />
<glyph unicode="&#xc0;" horiz-adv-x="1366" />
<glyph unicode="&#xc1;" horiz-adv-x="1366" />
<glyph unicode="&#xc2;" horiz-adv-x="1366" />
<glyph unicode="&#xc3;" horiz-adv-x="1366" />
<glyph unicode="&#xc4;" horiz-adv-x="1366" />
<glyph unicode="&#xc5;" horiz-adv-x="1366" />
<glyph unicode="&#xc6;" horiz-adv-x="2048" />
<glyph unicode="&#xc7;" horiz-adv-x="1479" />
<glyph unicode="&#xc8;" horiz-adv-x="1366" />
<glyph unicode="&#xc9;" horiz-adv-x="1366" />
<glyph unicode="&#xca;" horiz-adv-x="1366" />
<glyph unicode="&#xcb;" horiz-adv-x="1366" />
<glyph unicode="&#xcc;" horiz-adv-x="569" />
<glyph unicode="&#xcd;" horiz-adv-x="569" />
<glyph unicode="&#xce;" horiz-adv-x="569" />
<glyph unicode="&#xcf;" horiz-adv-x="569" />
<glyph unicode="&#xd0;" horiz-adv-x="1479" />
<glyph unicode="&#xd1;" horiz-adv-x="1479" />
<glyph unicode="&#xd2;" horiz-adv-x="1593" />
<glyph unicode="&#xd3;" horiz-adv-x="1593" />
<glyph unicode="&#xd4;" horiz-adv-x="1593" />
<glyph unicode="&#xd5;" horiz-adv-x="1593" />
<glyph unicode="&#xd6;" horiz-adv-x="1593" />
<glyph unicode="&#xd7;" horiz-adv-x="1196" />
<glyph unicode="&#xd8;" horiz-adv-x="1593" />
<glyph unicode="&#xd9;" horiz-adv-x="1479" />
<glyph unicode="&#xda;" horiz-adv-x="1479" />
<glyph unicode="&#xdb;" horiz-adv-x="1479" />
<glyph unicode="&#xdc;" horiz-adv-x="1479" />
<glyph unicode="&#xdd;" horiz-adv-x="1366" />
<glyph unicode="&#xde;" horiz-adv-x="1366" />
<glyph unicode="&#xdf;" horiz-adv-x="1251" />
<glyph unicode="&#xe0;" />
<glyph unicode="&#xe1;" />
<glyph unicode="&#xe2;" />
<glyph unicode="&#xe3;" />
<glyph unicode="&#xe4;" />
<glyph unicode="&#xe5;" />
<glyph unicode="&#xe6;" horiz-adv-x="1821" />
<glyph unicode="&#xe7;" horiz-adv-x="1024" />
<glyph unicode="&#xe8;" />
<glyph unicode="&#xe9;" />
<glyph unicode="&#xea;" />
<glyph unicode="&#xeb;" />
<glyph unicode="&#xec;" horiz-adv-x="569" />
<glyph unicode="&#xed;" horiz-adv-x="569" />
<glyph unicode="&#xee;" horiz-adv-x="569" />
<glyph unicode="&#xef;" horiz-adv-x="569" />
<glyph unicode="&#xf0;" />
<glyph unicode="&#xf1;" />
<glyph unicode="&#xf2;" />
<glyph unicode="&#xf3;" />
<glyph unicode="&#xf4;" />
<glyph unicode="&#xf5;" />
<glyph unicode="&#xf6;" />
<glyph unicode="&#xf7;" horiz-adv-x="1124" />
<glyph unicode="&#xf8;" horiz-adv-x="1251" />
<glyph unicode="&#xf9;" />
<glyph unicode="&#xfa;" />
<glyph unicode="&#xfb;" />
<glyph unicode="&#xfc;" />
<glyph unicode="&#xfd;" horiz-adv-x="1024" />
<glyph unicode="&#xfe;" />
<glyph unicode="&#xff;" horiz-adv-x="1024" />
<glyph unicode="&#x152;" horiz-adv-x="2048" />
<glyph unicode="&#x153;" horiz-adv-x="1933" />
<glyph unicode="&#x178;" horiz-adv-x="1366" />
<glyph unicode="&#x2c6;" horiz-adv-x="682" />
<glyph unicode="&#x2dc;" horiz-adv-x="682" />
<glyph unicode="&#x2000;" horiz-adv-x="934" />
<glyph unicode="&#x2001;" horiz-adv-x="1868" />
<glyph unicode="&#x2002;" horiz-adv-x="934" />
<glyph unicode="&#x2003;" horiz-adv-x="1868" />
<glyph unicode="&#x2004;" horiz-adv-x="622" />
<glyph unicode="&#x2005;" horiz-adv-x="467" />
<glyph unicode="&#x2006;" horiz-adv-x="311" />
<glyph unicode="&#x2007;" horiz-adv-x="311" />
<glyph unicode="&#x2008;" horiz-adv-x="233" />
<glyph unicode="&#x2009;" horiz-adv-x="373" />
<glyph unicode="&#x200a;" horiz-adv-x="103" />
<glyph unicode="&#x2010;" horiz-adv-x="1256" d="M692 786h160q292 0 292 -36q12 -15 12 -36q0 -35 -48 -52q-184 16 -332 16q-230 0 -636 -28q-40 17 -40 48v16q0 52 136 52q242 20 456 20z" />
<glyph unicode="&#x2011;" horiz-adv-x="1256" d="M692 786h160q292 0 292 -36q12 -15 12 -36q0 -35 -48 -52q-184 16 -332 16q-230 0 -636 -28q-40 17 -40 48v16q0 52 136 52q242 20 456 20z" />
<glyph unicode="&#x2012;" horiz-adv-x="1256" d="M692 786h160q292 0 292 -36q12 -15 12 -36q0 -35 -48 -52q-184 16 -332 16q-230 0 -636 -28q-40 17 -40 48v16q0 52 136 52q242 20 456 20z" />
<glyph unicode="&#x2013;" />
<glyph unicode="&#x2014;" horiz-adv-x="2048" />
<glyph unicode="&#x2018;" horiz-adv-x="455" />
<glyph unicode="&#x2019;" horiz-adv-x="455" />
<glyph unicode="&#x201a;" horiz-adv-x="455" />
<glyph unicode="&#x201c;" horiz-adv-x="682" />
<glyph unicode="&#x201d;" horiz-adv-x="682" />
<glyph unicode="&#x201e;" horiz-adv-x="682" />
<glyph unicode="&#x2022;" horiz-adv-x="717" />
<glyph unicode="&#x2026;" horiz-adv-x="2048" />
<glyph unicode="&#x202f;" horiz-adv-x="373" />
<glyph unicode="&#x2039;" horiz-adv-x="682" />
<glyph unicode="&#x203a;" horiz-adv-x="682" />
<glyph unicode="&#x205f;" horiz-adv-x="467" />
<glyph unicode="&#x20ac;" />
<glyph unicode="&#x2122;" horiz-adv-x="2048" />
<glyph unicode="&#xe000;" horiz-adv-x="1270" d="M0 1270h1270v-1270h-1270v1270z" />
</font>
</defs>
</svg>
