<?xml version="1.0" standalone="no"?>
<!DOCTYPE svg PUBLIC "-//W3C//DTD SVG 1.1//EN" "http://www.w3.org/Graphics/SVG/1.1/DTD/svg11.dtd" >
<svg xmlns="http://www.w3.org/2000/svg">
<metadata></metadata>
<defs>
<font id="teutonic_no3demibold" horiz-adv-x="684" >
<font-face units-per-em="1000" ascent="800" descent="-200" />
<missing-glyph horiz-adv-x="361" />
<glyph horiz-adv-x="1000" />
<glyph horiz-adv-x="1000" />
<glyph unicode="&#xd;" horiz-adv-x="1000" />
<glyph unicode=" "  horiz-adv-x="361" />
<glyph unicode="&#x09;" horiz-adv-x="361" />
<glyph unicode="&#xa0;" horiz-adv-x="361" />
<glyph unicode="!" horiz-adv-x="434" d="M42 58q0 -33 23 -43.5t50 -10.5h31q37 20 37 60q0 29 -17.5 43t-48.5 14q-29 0 -52 -15.5t-23 -47.5zM66 60q0 9 5 15.5t12.5 11.5t16 7.5t15.5 2.5q14 0 30 -5.5t16 -21.5q0 -18 -13 -33t-32 -15q-16 0 -33 9.5t-17 28.5zM57 196q2 -4 7.5 -16.5t13.5 -12.5h2q1 1 2.5 2 t2.5 3q17 24 30.5 38t27 25t29.5 21.5t39 27.5q0 2 0.5 4t0.5 4q0 3 -5.5 9.5t-13 15t-14.5 18t-10 19.5q0 12 -1 42.5t-1.5 64.5t-1.5 65t-1 43v78v72q1 32 2 62t9.5 53.5t28.5 38t59 14.5q6 0 17.5 -0.5t23.5 -3.5t20.5 -8.5t8.5 -15.5v-3t-1 -2q-14 -1 -30 -3.5t-30 -9.5 t-23.5 -19t-9.5 -31q0 -37 18.5 -57t54.5 -20q31 0 56 17t25 53q0 59 -37 93t-96 34q-44 0 -78 -15.5t-58.5 -42.5t-39.5 -63t-22 -76q-1 -16 -1.5 -49t-1.5 -74.5t-2 -87.5t-2 -87.5t-1.5 -74t-0.5 -48.5v-3v-1q0 -2 2 -9.5t2 -9.5v-74zM75 302q9 4 16.5 12t17.5 8 q8 0 13.5 -7.5t14.5 -7.5q7 0 14 10q3 -3 10.5 -11t7.5 -13q0 -2 -6 -6.5t-11 -7.5t-6 -4q-11 -8 -19.5 -14t-16 -12t-14.5 -13.5t-16 -17.5h-5v84zM90 296q0 -6 4 -11t10 -5q8 0 13 4t5 12q0 6 -7 8.5t-12 2.5t-9 -2.5t-4 -8.5zM93 359q0 6 5 10t11 4q5 0 9.5 -4t4.5 -10 q0 -7 -4.5 -11t-9.5 -4q-6 0 -11 4t-5 11z" />
<glyph unicode="&#x22;" horiz-adv-x="411" d="M44 631v-2q0 -1 1.5 -3t3.5 -2h2q8 0 22 11.5t28.5 26.5t27 29.5t18.5 21.5l7 7t12 13t11.5 13.5t6.5 8.5q7 9 8.5 18.5t1.5 20.5q0 15 -6 27.5t-15 24t-20 21.5t-20 19h-3q-8 0 -21 -10.5t-25.5 -25.5t-22 -31t-9.5 -27q0 -9 6.5 -18t15 -19.5t15 -23.5t6.5 -29 q0 -11 -8 -20.5t-17.5 -17.5t-17.5 -16t-8 -17zM225 636q0 -1 0.5 -1.5l0.5 -0.5q0 -2 2 -3.5t3 -1.5h1q9 0 23 11.5t28.5 26.5t27 29.5t17.5 21.5l7 7t12.5 13t11.5 13.5t6 8.5q7 9 9 18.5t2 20.5q0 15 -6 27.5t-15 23.5t-20 21t-20 19h-2q-8 0 -21 -10.5t-26 -25 t-22 -30.5t-9 -27q0 -9 6.5 -18t15 -19.5t15 -23.5t6.5 -29q0 -11 -8.5 -20.5t-18 -17.5t-18 -16t-8.5 -17z" />
<glyph unicode="'" horiz-adv-x="199" d="M33 642v-2q0 -2 2 -3.5t3 -1.5h2q8 0 22 11.5t28.5 26.5t27 29.5t17.5 21.5l7 7t12.5 13t11.5 13.5t6 8.5q7 9 9 18.5t2 20.5q0 15 -6 27.5t-15 23.5t-20 20.5t-20 18.5h-2q-8 0 -21 -10.5t-26 -25t-22 -30.5t-9 -27q0 -9 6.5 -17.5t15 -19t15 -23.5t6.5 -29 q0 -11 -8 -20.5t-18 -17.5t-18 -16t-8 -17z" />
<glyph unicode="," horiz-adv-x="200" d="M33 -128v-3q0 -1 2 -3t3 -2h2q8 0 22 11.5t28.5 26.5t27 29.5t17.5 21.5q1 1 7 7.5t12.5 13.5t11.5 13t6 8q7 9 9 19t2 21q0 14 -6 26.5t-15 24t-20 21t-20 18.5h-3q-8 0 -21 -10.5t-25.5 -25.5t-22 -31t-9.5 -27q0 -9 7 -17.5t15 -19t15 -23t7 -29.5q0 -11 -8 -20 t-18 -17t-18 -16t-8 -17zM70 40v1q1 2 4.5 7.5t5.5 6.5q3 4 8 9.5t10.5 10.5t9.5 9l4 4h5l37 -38l2 -5.5t3 -7.5v-5q0 -5 -0.5 -7t-4.5 -7q-2 -3 -8 -10t-13 -15.5t-13 -16t-8 -10.5h-2q-3 0 -5 4.5t-3.5 9.5t-2.5 10l-1 5q-5 8 -16.5 20t-11.5 25z" />
<glyph unicode="-" d="M372 397q26 -8 53 -11t54 -4.5l54 -3t53 -4.5h3q5 0 8 6.5t5.5 15.5t4 17.5t3.5 12.5q5 8 15.5 12.5t12.5 15.5h-5q-38 0 -76.5 -4t-77.5 -8.5t-77.5 -8t-77.5 -3.5h-12t-14.5 0.5t-13.5 0.5h-6q-8 0 -28 2.5t-42.5 5.5t-42.5 5.5t-27 4.5l-42 14h-3q-5 0 -7.5 -4 t-3.5 -9.5t-1 -11.5v-7q-1 -8 -7 -13t-13 -9.5t-12.5 -10.5t-5.5 -15q20 0 39 7t41 7h249z" />
<glyph unicode="." horiz-adv-x="233" d="M43 53q0 -16 6.5 -26.5t16.5 -16.5t23 -8t27 -2h30q38 21 38 59q0 31 -18 44t-48 13q-29 0 -52 -15.5t-23 -47.5zM67 55q0 9 5 16t12.5 12t16 8t15.5 3q14 0 29 -5.5t15 -22.5q0 -18 -12 -33t-31 -15q-16 0 -33 9.5t-17 27.5z" />
<glyph unicode="0" horiz-adv-x="630" d="M38 338q0 -54 20.5 -113t57 -108t87.5 -81t111 -32q31 0 58 9t51.5 24t46 34.5t41.5 40.5q2 8 7.5 13.5t10.5 13.5q24 38 42.5 84t18.5 91v3q0 1 -2 4.5t-3 4.5q2 47 -3.5 82t-19.5 65.5t-36 59.5t-52 65q-20 12 -37 24t-34.5 21t-36.5 15t-42 6q-57 0 -99 -23t-84 -58 q-1 -1 -2 -4t-3 -4q-1 -2 -6 -8.5t-10.5 -13.5t-10 -13t-5.5 -7q-28 -45 -47 -93.5t-19 -101.5zM169 377q0 50 0.5 97.5t14 84.5t45.5 59.5t95 22.5q32 0 55 -13t38 -34t23.5 -48t13.5 -55q4 -48 7 -99.5t3 -101.5v-25q0 -7 -1.5 -24.5t-3 -38t-3 -38.5t-2.5 -25 q-1 -2 -2.5 -9t-1.5 -10q-4 -24 -17 -42t-31.5 -29.5t-41 -17t-45.5 -5.5q-41 0 -67.5 19.5t-42.5 50t-23.5 69.5t-10.5 78t-2.5 74.5t0.5 59.5zM66 301v16q7 -5 14 -5q8 0 12 5.5t12 5.5q1 0 2.5 -0.5l1.5 -0.5q2 -2 9.5 -8t9.5 -7h2h3q1 1 4.5 5.5t4.5 4.5l0.5 0.5 t2.5 0.5l0.5 -0.5t1.5 -0.5q1 -3 2.5 -11.5t2.5 -11.5q4 -53 7 -92.5t11 -85.5q0 -2 0.5 -5.5t0.5 -4.5q-14 0 -20 9.5t-14 18.5q-7 8 -19.5 20t-17.5 22q-5 9 -10.5 25.5t-10.5 35t-8.5 36t-3.5 28.5zM487 307q10 2 17 9t16 7q2 0 3 -0.5t2 -0.5q1 -2 8.5 -8t9.5 -7h3h2 q1 1 4.5 5t5.5 5l4 -5v-13q0 -21 -7 -47.5t-18.5 -52t-26.5 -48t-32 -35.5q-1 3 -1 13v13q0 43 3 79.5t7 85.5zM108 252q0 -10 9 -10q10 0 10 10t-10 10q-9 0 -9 -10zM514 252q0 -10 11 -10q10 0 10 10t-10 10q-11 0 -11 -10zM90 296q0 -5 3 -10.5t9 -5.5q5 0 8.5 5.5 t3.5 10.5l-2 3q-1 1 -4 4.5t-4 3.5q-1 1 -2 1v0q-3 0 -3 -1q-2 0 -5 -3.5t-4 -4.5v-3zM506 296q0 -5 3.5 -10.5t8.5 -5.5t8.5 5.5t3.5 10.5l-1 3q-1 1 -4 4.5t-5 3.5q0 1 -1 1h-1q-2 0 -2 -1q-2 0 -5.5 -3.5l-4.5 -4.5v-3zM88 359q0 6 5 10t11 4q5 0 9.5 -4t4.5 -10 q0 -5 -4.5 -10t-9.5 -5q-6 0 -11 5t-5 10zM505 359q0 6 4.5 10t10.5 4t10.5 -4t4.5 -10q0 -5 -4.5 -10t-10.5 -5t-10.5 5t-4.5 10z" />
<glyph unicode="1" horiz-adv-x="456" d="M29 13l51 -5h18t34.5 -0.5t38.5 -0.5h31h43q28 0 55.5 0.5t48.5 0.5h26q3 0 12.5 0.5t20 1.5t19.5 2t13 1q5 1 5.5 6t0.5 9h-132q-18 0 -24.5 13t-8.5 29q3 140 -2 279.5t-3 280.5q0 1 -1.5 2.5l-2.5 2.5h-3h-2h-5t-11.5 -0.5t-12.5 -3t-8 -6.5q-1 -1 -3 -6t-4 -10.5 t-4.5 -10t-3.5 -5.5q-7 -14 -12 -22.5t-11 -16t-13.5 -15t-18.5 -17.5q-30 -26 -65 -39t-71 -26q-6 -2 -10.5 -5.5t-4.5 -11.5q23 0 46.5 5.5t43.5 11.5q11 3 18 6.5t12.5 6.5t11 4.5t14.5 1.5t13.5 -3t4.5 -16v-432h-144v-12zM192 294v13q9 2 16.5 8.5t16.5 6.5 q10 0 16.5 -8t15.5 -12q0 -10 0.5 -30t1 -46t1 -54.5t1 -54t1 -46t0.5 -30.5v-3v-2q0 -1 -2 -3t-3 -2h-55l-5 5l-0.5 27.5t-1.5 66.5t-1.5 80.5t-1.5 69.5v14zM220 256q0 -10 10 -10q9 0 9 10q0 9 -9 9q-10 0 -10 -9zM210 296q0 -5 3.5 -10.5t8.5 -5.5q6 0 9 5.5t3 10.5v2 q-1 2 -4 5t-5 4h-3h-2q-1 -1 -4.5 -4t-5.5 -5v-2zM210 359q0 14 15 14q14 0 14 -14q0 -15 -14 -15q-15 0 -15 15z" />
<glyph unicode="2" horiz-adv-x="609" d="M155 108q17 0 36.5 -10.5t38 -24t36.5 -28t32 -21.5q4 -3 12 -7t15.5 -7.5t13 -6.5t6.5 -3h94q5 0 17 6t15 8q27 15 44.5 38t27.5 50t14 56.5t4 58.5q-6 0 -8 -9t-4 -23t-5 -29.5t-10 -29.5t-19.5 -23t-33.5 -9q-15 0 -30 4t-30 10t-29.5 12.5t-28.5 10.5q-63 19 -133 19 q-32 0 -55 -6.5t-51 -17.5h-5q-7 0 -8 5q28 42 72 66t93 40t98 28.5t88.5 33.5t64 55t24.5 91q0 3 -0.5 13.5t-0.5 14.5q-10 18 -16.5 38.5t-20.5 35.5q-49 56 -107.5 75.5t-128.5 19.5q-30 0 -54 -3t-45 -10.5t-40.5 -20.5t-40.5 -32q-22 -19 -37 -43.5t-15 -54.5 q0 -20 5 -41t15.5 -38t26.5 -28t39 -11q36 0 59.5 20t23.5 57q0 12 -4 24t-11.5 21.5t-18.5 16t-25 6.5q-16 0 -32 -4.5t-31 -4.5q-7 0 -8.5 3t-1.5 9q0 23 17.5 44t42.5 36.5t52.5 25t46.5 9.5q39 0 71.5 -12.5t56.5 -35t37 -54.5t13 -71q0 -45 -24.5 -82t-59.5 -63 q-12 -9 -21.5 -13.5t-18.5 -8t-18.5 -7t-20.5 -10.5q-36 -20 -72.5 -46t-66 -57.5t-47.5 -69.5t-18 -83h12q4 18 10.5 36t16.5 31.5t25.5 22t38.5 8.5zM195 121v5q0 1 10.5 2.5l17.5 2.5h7q35 0 67 -8.5t63.5 -19t63.5 -20t66 -12.5v-5q0 -1 -9.5 -10t-14.5 -14 q-26 -24 -62 -24q-32 0 -58.5 11.5t-50.5 28t-48.5 34t-51.5 29.5zM437 325q0 -8 -7 -14t-17 -9.5t-20 -5.5t-16 -2q-1 0 -4.5 0.5t-4.5 0.5q10 14 31.5 22t37.5 8zM469 372q0 -13 -8 -18.5t-20 -5.5q0 11 8.5 17.5t19.5 6.5z" />
<glyph unicode="3" horiz-adv-x="601" d="M41 155q0 -49 28 -80.5t69 -50t87.5 -25.5t84.5 -7h49q1 1 4.5 2.5t5.5 1.5q1 1 8.5 3t16.5 4t16.5 4.5t9.5 3.5q28 9 54 25.5t45 39.5t30.5 51t11.5 59q0 33 -15 57.5t-38.5 43t-51.5 32t-55 24.5l-2 2t-2 3h-1v1q0 5 20.5 13.5t45.5 23.5t45.5 39t20.5 60 q0 32 -14.5 58.5t-37 47.5t-51 35t-56.5 21q-21 5 -47.5 5.5t-46.5 0.5q-34 0 -72 -9.5t-70 -28.5t-53 -49t-21 -70q0 -15 6 -29t16.5 -25t24.5 -17.5t30 -6.5q37 0 60.5 15.5t23.5 53.5q0 13 -4 25.5t-12 22.5t-19 16.5t-26 6.5q-11 0 -22 -2.5t-22 -2.5q-3 0 -6 2t-3 5 q0 18 21 32t48.5 23t54 14t38.5 5q40 0 66.5 -10.5t42.5 -31t22.5 -50t6.5 -68.5q0 -15 -3.5 -34.5t-12 -37t-22 -29.5t-32.5 -12h-150q-11 0 -24 -6.5t-13 -20.5q0 -16 8 -22.5t22 -6.5q22 0 39.5 10t37.5 14q16 2 31.5 3.5t30.5 1.5q9 0 22.5 -2t27 -5.5t25.5 -10 t18 -15.5q5 -7 12 -19.5t7 -13.5v-122q0 -2 -4 -18l-6 -24q-8 -28 -18.5 -45.5t-26 -27.5t-36 -13.5t-47.5 -3.5q-49 0 -94 10t-83 42q-1 1 -9.5 10t-8.5 14q0 2 2 4.5t3 2.5h52l7 6t11 10l15.5 15.5t10 13.5t5.5 15.5t2 20.5q0 36 -22 51.5t-57 15.5q-36 0 -60.5 -26.5 t-24.5 -63.5zM455 288q15 0 30 -11t26.5 -27.5t19 -34.5t7.5 -31q0 -18 -10 -42t-26 -46.5t-35 -38t-38 -15.5q0 23 8 43t11 42q5 43 6 79t1 82zM64 156q0 14 6.5 26t16.5 21t23 14t26 5q7 0 16 -4t16.5 -10t12.5 -13.5t5 -15.5q0 -6 -6 -16.5t-14.5 -20t-17 -17t-13.5 -7.5 h-62q-4 0 -6 4.5t-2.5 10.5t-0.5 12v11z" />
<glyph unicode="4" horiz-adv-x="606" d="M304 53q0 -5 -0.5 -13.5t-8.5 -8.5h-131q-11 0 -18 -7t-7 -17q109 0 217.5 1t217.5 5q8 -2 10.5 6t2.5 12h-26q-8 0 -26.5 1t-39.5 2t-39.5 1.5t-25.5 0.5q-8 5 -11 18t-3 20v117l1.5 3.5t3.5 5.5l4 8h144l15 6v42h-150q-6 0 -10.5 5t-7 12t-3.5 14.5t-2 11.5v181 q0 22 -1 57t-1.5 67.5t-1.5 56.5t-1 25l-5 18h-37q-2 -3 -9 -15.5t-10 -16.5q-3 -5 -12 -17t-19.5 -25.5t-20 -25.5t-13.5 -16l-5 -10q-42 -50 -77 -102.5t-77 -102.5q-6 -8 -24.5 -32t-38 -51.5t-34.5 -51t-15 -29.5q0 -2 0.5 -5.5t4.5 -3.5h281l4 -4l0.5 -14.5t1 -34.5 t1.5 -41.5t1 -35.5q0 -2 0.5 -8.5t0.5 -8.5zM317 221h-267q0 8 6 12q65 -1 130.5 0t130.5 5v69q9 2 17 8.5t16 6.5h5q2 -2 9.5 -8t9.5 -7h2h3q0 1 1.5 3t2.5 2h3h2q0 -3 1.5 -15.5t4.5 -26t8.5 -24.5t13.5 -11h135v-9h-145l-1.5 -3t-3.5 -5l-2.5 -5t-1.5 -4v-173 q-17 0 -30.5 -5t-28.5 -5q-2 0 -6.5 0.5t-4.5 4.5zM340 252q0 -11 10 -11q9 0 9 11q0 10 -9 10q-10 0 -10 -10zM64 263q0 1 0.5 1.5l0.5 0.5l154 211q8 25 27 46t39 38q5 -2 6.5 -12t3.5 -12q5 -48 4.5 -95.5t-0.5 -97.5v-83l-4 -4q-1 0 -16.5 -0.5t-37 -1.5t-44.5 -1.5 t-38 -0.5q-1 0 -5.5 -0.5t-10.5 -0.5h-12h-8q-2 0 -11.5 -0.5t-20 0t-19 3.5t-8.5 9zM335 296q0 -5 3.5 -10.5t8.5 -5.5q6 0 9 5.5t3 10.5v3l-4 4t-5 4l-0.5 0.5t-2.5 0.5l-0.5 -0.5t-1.5 -0.5l-8 -8q0 -1 -1 -2zM335 359q0 6 5 10t10 4q14 0 14 -14q0 -15 -14 -15 q-5 0 -10 4t-5 11z" />
<glyph unicode="5" horiz-adv-x="566" d="M40 146q0 -37 19 -65t48 -47t64 -28.5t67 -9.5q58 0 111 16.5t93.5 48.5t65 79.5t24.5 109.5q0 52 -24 90t-62.5 62.5t-85 36t-91.5 11.5q-23 0 -45.5 -2.5t-43.5 -11.5q-8 -4 -17 -10.5t-18.5 -12.5t-19 -10.5t-18.5 -4.5h-6q0 6 -1 19t-2 28t-1.5 28.5t-0.5 18.5v8 q0 6 1 9t9 6q2 1 8 1.5t12.5 1.5t12.5 1.5t9 0.5q7 0 26.5 0.5t40.5 0.5q22 0 41.5 -0.5t27.5 -0.5q26 3 54 20.5t51 43.5t38 55.5t15 56.5q-8 0 -19.5 -9t-26 -20.5t-30.5 -20.5t-32 -9h-139q-22 5 -49.5 10t-50.5 5h-7t-6 -5v-291q-5 -14 -7.5 -22.5t-2.5 -22.5 q0 -5 1.5 -13t10.5 -8h3q1 2 4.5 3.5t4.5 1.5q1 35 13.5 61t33.5 43t49 25t60 8q16 0 30.5 -4.5t28.5 -9.5q24 -9 38.5 -21.5t23.5 -29t14.5 -36t12.5 -41.5q0 -1 2 -4t3 -4v-122q0 -23 -11.5 -48.5t-30 -46.5t-42.5 -35t-49 -14q-32 0 -57 2t-46.5 9t-41 21t-40.5 37l5 5 q21 -5 40.5 -1t34.5 14.5t24 27t9 37.5q0 29 -17 48t-48 19q-41 0 -68 -23t-27 -66zM423 310q9 3 12.5 11t11.5 8q7 0 10.5 -3.5t8.5 -11.5q-8 2 -16 1.5t-8 -10.5q0 -8 5 -13.5t13 -5.5q11 0 11.5 9t0.5 17q11 0 19 -6t13 -16t7 -21.5t2 -21.5q0 -26 -7.5 -52.5t-22 -50.5 t-34.5 -43t-44 -30v5q0 16 9 32.5t9 33.5v168zM63 146q0 26 20.5 46t45.5 20q17 0 34 -12t17 -31q0 -8 -5 -17.5t-12.5 -18t-16.5 -14.5t-17 -6h-57q-3 0 -5 4.5t-3 10.5t-1 11v7zM478 270q0 -8 0.5 -17t10.5 -9q9 0 9 9t-6 13t-14 4zM416 378q6 0 16 -2.5t10 -11.5v-3 l-4.5 -4.5t-5.5 -4.5q-7 5 -11.5 11t-4.5 15z" />
<glyph unicode="6" horiz-adv-x="597" d="M39 314q0 -16 3 -33t7 -31q11 -55 33 -101.5t55 -80.5t78 -53t102 -19q47 0 91 16.5t77.5 46.5t53.5 71.5t20 91.5q0 44 -20 78t-52.5 57t-72.5 35t-80 12q-41 0 -82.5 -14.5t-67.5 -46.5l-9 10v14q0 39 -0.5 84.5t4.5 83.5q4 28 18 48.5t34.5 33.5t45 19.5t50.5 6.5 q10 0 29.5 -3.5t38.5 -10t33 -17t14 -24.5v-1q-1 -2 -3 -3.5l-2 -1.5q-2 0 -9.5 2t-9.5 3h-9q-15 0 -30.5 -4.5t-28.5 -13t-21.5 -21.5t-8.5 -30q0 -13 6.5 -26t16.5 -23.5t23 -17t25 -6.5q53 0 75.5 23.5t22.5 76.5q0 32 -14.5 54.5t-38 36t-52 19.5t-56.5 6 q-67 0 -120.5 -31t-91 -80.5t-57.5 -111.5t-20 -124zM175 210q0 37 4 68.5t18 54t40.5 35t72.5 12.5q37 0 60 -18t36 -45.5t17.5 -60t4.5 -60.5q0 -37 -2 -70t-13 -58t-34 -39.5t-66 -14.5q-47 0 -74.5 16t-41.5 43t-18 62.5t-4 74.5zM447 193q0 26 -3 52.5t-3 52.5 q0 6 4.5 16t12.5 10h2q16 -8 30.5 -17t26 -20t18 -26.5t6.5 -37.5v-1t-2 -1q-1 -6 -3 -16t-4.5 -20t-4 -17l-1.5 -7q-1 -2 -5 -9t-9 -15t-9.5 -15t-5.5 -8q-3 -6 -9.5 -15t-14.5 -18t-16.5 -15t-15.5 -6q0 33 3 66.5t3 66.5zM62 311q0 2 0.5 5t4.5 3q1 0 4.5 -1.5t4.5 -3.5 h5q8 0 12 5.5t12 5.5q1 0 2.5 -0.5t2.5 -0.5q1 -1 8.5 -7t9.5 -7h2h3q2 2 7 9.5t7 9.5q0 1 2 2t3 3l5 -5v-235q-5 0 -5 1q-22 17 -38.5 42.5t-28 55t-17.5 60.5t-6 58zM483 254q0 -9 10 -9t10 9q0 10 -10 10t-10 -10zM99 258q0 -10 11 -10q9 0 9 10q0 11 -9 11 q-11 0 -11 -11zM91 299q0 -5 3 -11t9 -6q5 0 8.5 6t3.5 11l-2 2l-4 4t-4 5q0 1 -1 1h-1q-3 0 -3 -1l-9 -9v-2zM451 298v-2q6 -8 8.5 -11t10.5 -3q6 0 7.5 3.5t1.5 8.5q0 8 -5.5 12.5t-13.5 4.5q-9 0 -9 -13zM89 361q0 7 5 11t11 4q5 0 9.5 -4t4.5 -11q0 -5 -4.5 -9.5 t-9.5 -4.5q-6 0 -11 4.5t-5 9.5zM435 358q4 0 8 -1.5t4 -6.5q0 -2 -1 -2q-11 0 -11 10z" />
<glyph unicode="7" horiz-adv-x="492" d="M132 110q0 -17 2.5 -38t10 -39t21 -30.5t35.5 -12.5q38 0 58 27t20 62q0 23 -3 46.5t-3 46.5q0 37 9 67t23 57.5t32.5 53t38.5 53.5q41 58 68.5 125t27.5 139q-12 0 -16 -13.5t-10 -30t-19.5 -30t-43.5 -13.5q-17 0 -33 12.5t-34.5 27.5t-42 27.5t-56.5 12.5 q-23 0 -44.5 -10t-41 -24.5t-37 -31.5t-31.5 -32h-3h-2q-2 2 -5.5 5t-3.5 4v79h-9l-1 -4t-2 -10t-1.5 -12.5t-0.5 -10.5v-53v-34q0 -15 0.5 -30t1.5 -30.5t3 -34.5h2q4 0 5.5 9.5t3.5 24.5t6.5 31.5t14 31.5t25.5 24.5t41 9.5q13 0 26 -5.5t25.5 -13t24 -15.5t21.5 -13 q16 -8 33.5 -9t32.5 -1q38 0 67.5 13t58.5 39q5 -1 5 -10v-5l-3.5 -7t-5.5 -12t-6 -13.5t-4 -9.5q-17 -33 -40.5 -56.5t-50.5 -44.5t-54 -41.5t-51 -47.5q-16 -24 -31.5 -47t-27.5 -47.5t-19 -50.5t-7 -55zM156 120q0 23 8 46t19.5 44.5t25.5 41.5t26 38q5 6 11 10.5t13 4.5 q4 0 9.5 -1t5.5 -6q0 -20 -9.5 -38.5t-9.5 -38.5v-155q0 -9 -5 -18.5t-12.5 -17t-16.5 -12t-18 -4.5q-17 0 -26.5 12t-14 29t-5.5 35t-1 30zM221 239q0 -10 11 -10q9 0 9 10q0 9 -9 9q-11 0 -11 -9zM240 280v-3q1 -1 2.5 -3t2.5 -2l2 -1q2 0 2.5 0.5l0.5 0.5l9 9v2v3 q0 4 -4 4h-3h-2q-1 -1 -5 -4t-5 -5v-1z" />
<glyph unicode="8" horiz-adv-x="619" d="M97 56q14 -5 25 -14.5t22 -17.5q14 -11 33 -18.5t40 -13t41 -8t37 -2.5q56 0 107.5 12.5t90.5 39.5t62.5 70.5t23.5 106.5q0 33 -11.5 57t-31 42t-44 32.5t-49.5 27.5l-10 9q3 5 9 6t11 4q15 9 30 21.5t27 27.5t19.5 32.5t7.5 37.5q0 44 -21.5 75.5t-54.5 51.5t-73 29.5 t-77 9.5h-8q-2 0 -8 -1.5t-13 -3t-13.5 -3t-7.5 -1.5q-42 -7 -78 -20.5t-62.5 -36.5t-41.5 -57t-15 -81q0 -32 16 -57.5t35.5 -44.5t36 -31.5t16.5 -18.5q0 -1 -20 -12t-43.5 -31.5t-43.5 -48.5t-20 -63q0 -32 16.5 -58.5t39.5 -48.5zM106 162q0 48 22 79t63 54q5 4 12 7 t13 3q11 0 23 -4.5t24.5 -9.5t25 -8.5t23.5 -1.5q24 -7 58 -17t64.5 -26t52.5 -39t22 -55q0 -40 -21 -66.5t-52.5 -42.5t-68.5 -23t-69 -7q-33 0 -67.5 10.5t-62 31t-45 49.5t-17.5 66zM64 169q0 9 3.5 24t15.5 15v-87q-6 0 -10 6t-6 14t-2.5 16t-0.5 12zM376 310h-3 q-2 -2 -7.5 -8t-6.5 -7h-4q-5 0 -14.5 2.5t-9.5 7.5q0 1 1.5 4.5t2.5 4.5q11 -3 16 -1.5t8.5 4l7 5t11.5 2.5q4 0 4 -1q2 0 9.5 -6t9.5 -7l2 -2q2 0 2.5 1l0.5 1q10 8 19 17.5t23 9.5h5q44 -16 73.5 -52t29.5 -83q0 -6 -1.5 -18.5t-4.5 -25t-7 -22.5t-9 -10l-2 1 q1 39 -9.5 62.5t-29 38.5t-44 26t-53.5 27q-4 3 -5.5 7.5t-3 9.5t-4 8.5t-7.5 3.5zM448 295q0 -9 9 -9q10 0 10 9q0 10 -10 10q-9 0 -9 -10zM293 313q0 11 10 11q8 0 14 -6.5t6 -13.5h-7t-10 0.5t-9 2.5t-4 6zM288 361q0 5 4.5 10t10.5 5t10 -5t4 -10q0 -6 -4 -10.5 t-10 -4.5t-10.5 4.5t-4.5 10.5zM369 354q0 5 4 8.5t9 3.5q9 0 9 -7q0 -5 -4 -8.5t-9 -3.5q-9 0 -9 7zM139 515q0 2 -0.5 11.5t-0.5 12.5q0 34 20 56t49.5 35t63 17.5t60.5 4.5q31 0 58 -12.5t46.5 -33.5t30.5 -49t11 -59q0 -14 -7 -33t-19 -36t-27 -29t-31 -12q-2 0 -6 0.5 t-5 0.5q-29 6 -60 12.5t-61.5 16.5t-57.5 25t-46 39q-1 2 -4.5 10t-3.5 10q-1 1 -4.5 6.5t-5.5 6.5z" />
<glyph unicode="9" horiz-adv-x="594" d="M107 124q0 -34 16 -58.5t41 -41t55.5 -24.5t59.5 -8q42 0 78.5 14.5t66.5 38.5t53 56t38 68q12 30 24.5 64.5t12.5 67.5q0 32 -0.5 65.5t-9.5 65.5q-10 38 -30 79.5t-49.5 76t-67 56.5t-82.5 22q-54 0 -104 -14t-88.5 -42.5t-61 -73t-22.5 -104.5q0 -45 21 -79.5t54 -58 t74.5 -35t82.5 -11.5q42 0 75.5 19.5t66.5 42.5l1 0.5t2 0.5l2 -1q1 0 2.5 -2t2.5 -3v-58v-81q0 -38 -10.5 -69t-36 -52.5t-75.5 -28.5q0 -2 -9 -2h-13q-30 0 -52.5 8.5t-47.5 25.5q-1 0 -4 3.5t-7 7.5t-6.5 7.5t-1.5 4.5l5 5q13 -4 21.5 -4.5t21.5 -0.5q65 0 65 66 q0 42 -26.5 58t-64.5 16h-7q-30 -15 -48 -33.5t-18 -53.5zM140 100q-5 2 -9 11t-5 11v3q0 10 7 21t17 20.5t21.5 15.5t21.5 6q22 0 41 -14t19 -37q0 -21 -15.5 -31.5t-33.5 -10.5q-17 0 -30.5 1t-33.5 4zM444 310q0 1 5.5 3t12.5 4.5t13 4.5t7 2h4q2 -1 9.5 -7t9.5 -7h2h3 q1 1 6.5 7t7.5 7l3 0.5t4 0.5q0 -23 -2 -39t-10 -36l-4 -12t-7 -18.5t-7.5 -18.5t-5.5 -13q-6 -16 -17 -35.5t-20 -34.5q-4 -6 -11 -14.5t-8 -8.5h-5q0 1 0.5 4t0.5 5q1 11 2 40.5t2.5 62.5t3 62.5t1.5 40.5zM476 245q0 -10 10 -10q11 0 11 10q0 9 -11 9q-10 0 -10 -9z M171 481q0 4 0.5 13.5t0.5 20.5t0.5 20.5t0.5 12.5q2 31 15.5 49.5t34 28.5t45 13t49.5 3q35 0 56 -20t31.5 -48.5t13.5 -61.5t3 -58q0 -34 -2 -61t-11 -48t-28 -36.5t-53 -26.5q-12 -5 -27 -7.5t-27 -2.5h-2q-36 12 -56 33.5t-30 49t-12 60t-2 66.5zM468 299q0 -5 3.5 -11 t8.5 -6t8.5 6t3.5 11l-1 1l-5 5t-4 5q-1 0 -1.5 0.5l-0.5 0.5q-1 0 -2 -0.5l-1 -0.5l-5 -5t-4 -5v-1zM135 319q2 5 10 5q4 0 10.5 -3.5t12.5 -9t10.5 -11.5t4.5 -11q-12 0 -26 10.5t-22 19.5zM131 361q0 15 14 15q5 0 9.5 -4t4.5 -11q0 -5 -4.5 -9.5t-9.5 -4.5q-6 0 -10 4.5 t-4 9.5zM467 361q0 7 4.5 11t10.5 4q5 0 10 -4t5 -11q0 -5 -5 -9.5t-10 -4.5q-6 0 -10.5 4.5t-4.5 9.5z" />
<glyph unicode=":" horiz-adv-x="243" d="M48 53q0 -16 6.5 -26.5t16.5 -16.5t23 -8t27 -2h30q38 21 38 59q0 31 -18 44t-48 13q-29 0 -52 -15.5t-23 -47.5zM72 55q0 9 5 16t12.5 12t16 8t15.5 3q14 0 29 -5.5t15 -22.5q0 -18 -12 -33t-31 -15q-16 0 -33 9.5t-17 27.5zM48 457q0 -32 23 -43t50 -11q4 0 15 0.5 t15 0.5q38 19 38 59q0 31 -18 44.5t-48 13.5q-29 0 -52 -16t-23 -48z" />
<glyph unicode=";" horiz-adv-x="210" d="M31 -133v-3q0 -1 2 -2.5t3 -1.5h2q8 0 22 11t28.5 26t27 29.5t17.5 21.5q1 1 7 7.5t12.5 13.5t11.5 13t6 8q7 9 9 19t2 21q0 14 -6 26.5t-15 24t-20 21t-20 18.5q-1 0 -2 0.5l-1 0.5q-8 0 -21 -10.5t-25.5 -25.5t-22 -31t-9.5 -26q0 -9 7 -18t15 -19.5t15 -23.5t7 -29 q0 -11 -8 -20.5t-18 -17.5t-18 -16t-8 -17zM68 35v2q1 2 5 7t5 6q3 4 8 9.5t10.5 10.5t9.5 9l4 4h5l37 -37q1 0 2.5 -5.5t2.5 -8.5v-4q0 -5 -0.5 -7.5t-4.5 -7.5q-2 -3 -8 -10t-13 -15t-13 -15.5t-8 -10.5h-2q-3 0 -5 4t-3.5 9.5t-2.5 10l-1 4.5q-5 8 -16.5 20t-11.5 25z M44 458q0 -32 23 -43t50 -11h30q18 11 28.5 25.5t10.5 34.5q0 30 -18.5 44t-47.5 14t-52.5 -16t-23.5 -48z" />
<glyph unicode="?" horiz-adv-x="501" d="M164 54q0 -32 23 -43t50 -11h30q18 10 28 24.5t10 35.5q0 30 -18 44t-48 14q-29 0 -52 -16t-23 -48zM188 56q0 9 5 16t12.5 12t16 7.5t15.5 2.5q14 0 29 -5.5t15 -22.5q0 -18 -12 -33t-32 -15q-16 0 -32.5 9.5t-16.5 28.5zM154 259q0 -38 21.5 -50.5t54.5 -12.5h32 q26 11 39 27t13 46q0 5 0.5 17t-5.5 18q-19 8 -39 13t-40 6q-15 8 -15 25q0 8 7 14t12 11q31 39 73.5 72t81.5 69.5t66 79.5t27 101q0 46 -11 73.5t-29.5 48t-42 38.5t-48.5 46q-2 0 -7.5 0.5t-7.5 0.5q-10 0 -23 -7.5t-26.5 -17t-27.5 -19t-25 -13.5q-1 0 -6.5 -1.5 t-11.5 -3t-12 -2.5t-7 -2q-5 -2 -16 -6.5t-23 -9.5t-22.5 -10t-13.5 -7q-25 -13 -47.5 -29.5t-45.5 -30.5q-2 -1 -10 -4.5t-9 -5.5l-0.5 -4.5t-0.5 -7.5q0 -12 8 -22t18.5 -19.5t21.5 -18t18 -17.5q4 0 14.5 -0.5t14.5 -0.5q16 0 40.5 9t47 24t38.5 34t16 40q-11 0 -19 -2 t-15 -4.5t-14 -4.5t-16 -2q-16 0 -24.5 11.5t-8.5 26.5q0 12 9 18t21 8.5t25 2.5h21q29 0 54.5 -11.5t44.5 -31t30 -46t11 -56.5q0 -46 -15.5 -82t-39 -67t-51 -59t-51 -57t-39 -62t-15.5 -73zM173 262q0 14 6 27t13 24h3h2q6 -3 22 -6.5t33.5 -8.5t30.5 -11.5t13 -15.5 q0 -12 -6.5 -22t-16 -17.5t-21 -12t-21.5 -4.5q-19 0 -38.5 11.5t-19.5 35.5z" />
<glyph unicode="A" horiz-adv-x="1040" d="M45 22q0 -21 3 -43t16 -39q16 -25 46 -45t65 -34t71 -21.5t63 -7.5q31 0 62.5 9t60.5 24.5t54.5 36t45.5 43.5q14 15 28.5 35.5t14.5 43.5h-10q-2 -17 -12.5 -31t-20.5 -25q-19 -20 -37 -35.5t-37.5 -28t-41 -22t-48.5 -18.5h-10t-15.5 -0.5t-16.5 -0.5h-10 q-31 0 -75.5 8t-86 26t-70.5 48t-29 74q0 23 12.5 41.5t32 31t41.5 19.5t42 7q34 0 63 -9t55 -24t50.5 -34.5t48.5 -40.5q1 0 3 -1l2 -1q2 0 7 6.5t10.5 14.5t10.5 15t6 8l144 145v150q0 14 9.5 22t22.5 12.5t27 6t23 1.5q17 0 34.5 -2t28.5 -17q0 -11 1.5 -39.5t3 -61 t3 -61t1.5 -39.5q3 -50 29.5 -83.5t64.5 -61.5q10 -8 22.5 -16t24.5 -8q13 0 17.5 10.5t11.5 18.5q1 1 5 6t9.5 11t10.5 11.5t7 8.5l23 23q6 7 15.5 18t18.5 21.5t15.5 18.5l6.5 8v9h-5q-2 -2 -7 -7.5t-11 -11.5t-11.5 -11t-7.5 -7q-5 -5 -11 -5.5t-14 -0.5q-17 0 -31 11.5 t-24.5 28t-16.5 35.5t-6 33l-10 408q0 1 -1.5 4.5t-1.5 5.5q-1 2 -4 10.5t-6 19t-5.5 19.5t-3.5 11q-15 38 -44 64t-64.5 41.5t-75.5 22.5t-77 7q-41 0 -81.5 -4t-81 -9.5t-81 -9.5t-81.5 -4q-21 0 -42.5 1t-40.5 7t-34 18.5t-23 34.5h-6q0 -48 18.5 -80t49 -52t69.5 -28.5 t80 -8.5q38 0 77 4.5t78 4.5v-9l-9.5 -5.5t-22 -13t-26.5 -15.5t-23 -13q-13 -8 -28 -23t-27.5 -33t-20.5 -36.5t-8 -33.5v-103l5 -10v-140q0 -17 -9 -38.5t-23 -31.5q-51 -14 -95 -31.5t-83 -52.5q-12 -11 -23.5 -22.5t-21 -24.5t-15.5 -27.5t-6 -30.5zM751 316q7 0 12 -4 t13 -4q6 0 10.5 5.5t12.5 5.5h4q2 -1 9.5 -7t8.5 -7h3h2q2 1 9.5 7t9.5 7l1 0.5t2 0.5v-46q0 -24 2.5 -49t10 -48t22.5 -41q1 -1 4.5 -5t8 -8.5l8.5 -8.5l6 -6q1 -1 7 -4.5t8 -5.5v-2q0 -4 -6.5 -14.5t-15.5 -21.5t-18 -19.5t-14 -8.5q-8 0 -10.5 2t-10.5 8 q-40 31 -60.5 58.5t-29 59t-9 69t-0.5 87.5zM181 140v3q0 6 18 14t40.5 14.5t41 11t20.5 4.5q10 0 36 -6.5t53.5 -16.5t49 -22t21.5 -22q0 -5 -7.5 -14.5t-17 -20t-20 -20t-16.5 -13.5h-1q-3 0 -17 9t-31 20.5t-33.5 22t-24.5 14.5q-29 11 -55.5 15.5t-56.5 6.5zM326 209 q0 7 19.5 19.5t43.5 31t43.5 42.5t19.5 54v252q0 19 8.5 38t22.5 33.5t32 23.5t38 9h2q1 -2 4.5 -5t5.5 -5q0 -4 1 -13.5t1.5 -21t1 -21.5t0.5 -14q2 -78 3.5 -155t1.5 -155v-106q-2 -3 -7 -10t-7 -9q-4 -4 -13 -12.5t-19.5 -18.5t-20 -18.5t-13.5 -11.5h-3q-3 0 -7.5 3 t-9.5 7t-9.5 8t-7.5 6q-12 7 -21.5 12.5t-18.5 9.5t-19.5 7.5t-24.5 7.5q-3 1 -10.5 0.5t-16 0.5t-14.5 3t-6 8zM789 244q0 -10 10 -10q9 0 9 10q0 9 -9 9q-10 0 -10 -9zM340 445q-6 7 -6 21q8 0 12 -8.5t12 -8.5t12.5 5.5t11.5 5.5h5q1 -2 9 -8t9 -7l2 -1q2 0 2.5 0.5 l0.5 0.5l14 18h5q3 -23 4 -38t1 -35q0 -42 -25.5 -76.5t-63.5 -50.5q-3 42 -5 89.5t0 92.5zM784 293q0 -4 3.5 -10.5t8.5 -6.5t8.5 6.5t3.5 10.5v2q-1 1 -4.5 5t-4.5 5h-3h-2l-10 -10v-2zM784 356q0 6 4 10.5t11 4.5q5 0 9.5 -4.5t4.5 -10.5t-4.5 -10t-9.5 -4q-15 0 -15 14z M373 389q0 -10 9 -10q10 0 10 10q0 9 -10 9q-9 0 -9 -9zM368 433q0 -4 3.5 -10.5t8.5 -6.5t8.5 6.5t3.5 10.5v3q-1 1 -5 4.5t-5 4.5h-2h-3q-2 -1 -5 -4.5t-4 -4.5v-3zM583 473q0 9 -0.5 32.5t-1.5 49.5t-1.5 49.5t-0.5 32.5q0 1 -0.5 11.5t-0.5 13.5q0 4 -0.5 13t0 17.5 t2.5 15.5t7 8h22q22 0 38 -6.5t28.5 -18t23 -26.5t20.5 -33q0 -1 2 -6t2 -8q2 -4 3.5 -11l1.5 -7v-127q0 -4 -4.5 -7t-10 -5.5t-11 -4t-7.5 -1.5q-5 0 -18.5 -0.5t-18.5 -0.5q-8 0 -19 -0.5t-21.5 0.5t-20 5.5t-14.5 13.5zM368 497q0 5 4 9.5t10 4.5q5 0 10 -4.5t5 -9.5 q0 -7 -5 -11t-10 -4q-14 0 -14 15z" />
<glyph unicode="B" horiz-adv-x="1234" d="M127 -19q0 -47 23.5 -81.5t60 -58t80.5 -35t85 -11.5q65 0 125 20.5t103 68.5q4 4 11 10.5t13.5 13.5t11 15t4.5 17h-6q-31 -34 -60.5 -56t-61.5 -34.5t-68.5 -17.5t-81.5 -5q-35 0 -75 7.5t-74.5 25t-57.5 46.5t-23 71q0 37 16 66t41.5 49t58.5 30t67 10q43 0 76 -5.5 t61.5 -19t54.5 -35t56 -53.5h3q9 0 17.5 8t15.5 18.5t13.5 20.5t11.5 14q26 22 52.5 42.5t55.5 38.5h3h2q8 -5 8.5 -18t0.5 -16q7 -33 25 -56t43 -37.5t55 -21.5t61 -7q47 0 95 19t87 52t63.5 76.5t24.5 93.5q0 41 -12.5 80.5t-36 72t-57.5 55t-76 30.5q-8 1 -17.5 0.5 t-14.5 8.5l1.5 2t1.5 3q2 0 10 4t9 4q24 14 48 29.5t42.5 35t30 43t11.5 54.5q0 20 -2 40t-12 38q-8 13 -23 27l-30 28t-26 28t-11 27q0 9 4 14.5t8.5 9.5t8.5 8.5t4 12.5q-19 0 -34.5 -7t-32.5 -12q-48 -18 -94 -34t-88 -46q-8 -5 -21.5 -17.5t-28.5 -25.5t-28.5 -22.5 t-20.5 -9.5q-4 0 -5.5 0.5t-3.5 4.5q-2 2 -7 11t-11.5 19.5t-12 19.5t-7.5 11q-21 27 -48 45.5t-57.5 29t-63.5 15t-66 4.5q-64 0 -127 -12.5t-125 -30.5q-11 -9 -27 -9h-29q-29 0 -47.5 9.5t-36.5 32.5h-6q0 -21 13.5 -45.5t33.5 -44.5t44.5 -33.5t47.5 -13.5 q59 0 118.5 10.5t119.5 10.5q57 0 96 -22t63.5 -58.5t35 -83.5t10.5 -97v-63q-25 -82 -75 -118.5t-139 -36.5q-18 0 -44 5t-49.5 15.5t-40 27.5t-16.5 41h73q12 0 21.5 7t16.5 17t10.5 21.5t3.5 21.5q0 15 -7 28.5t-18.5 23.5t-25.5 16t-28 6q-8 0 -22.5 -3t-28.5 -9 t-24 -15t-10 -21v-74q0 -23 19 -45t45.5 -39t55.5 -27.5t50 -10.5q52 0 89 5.5t67.5 20.5t59 40.5t64.5 65.5q2 2 6.5 7.5t9 11.5t8 11t4.5 7q20 38 29 81t9 86q0 23 -5 43.5t-5 43.5q0 8 15.5 26.5t36.5 37.5t41.5 33.5t30.5 14.5q1 0 1.5 -0.5l0.5 -0.5q1 0 3 -2t2 -3 q0 -8 1 -27t2 -41t1.5 -41t0.5 -27v-17v-15q0 -6 -0.5 -21.5t-1.5 -32.5t-2 -32.5t-1 -21.5q-4 -6 -14.5 -8.5t-23 -4t-25 -3.5t-21.5 -7v-14q0 -16 6 -20t23 -4q11 0 22.5 4.5t23.5 4.5q5 0 9.5 -4.5t4.5 -9.5v-210q0 -1 -2 -3t-3 -2q-12 -4 -21 -6t-17.5 -5t-17.5 -7 t-19 -11q-6 -3 -20 -13t-29.5 -21t-29.5 -21t-19 -14q-1 0 -4.5 -1t-5.5 -1q-16 0 -29 13t-27 21q-42 26 -86 37t-92 11q-5 0 -19 -0.5t-18 -0.5q-27 -11 -56.5 -16.5t-56.5 -16.5q-32 -12 -60.5 -32.5t-50.5 -48t-35 -60t-13 -66.5zM774 107v2l1.5 2t2.5 2q0 1 3 1h1t1 -1 q18 -8 34 -11.5t36 -3.5q32 0 51.5 20t19.5 51q0 18 -8 30t-18 21.5t-18 17.5t-8 16v215q0 6 6 9.5t14.5 4.5t16.5 1h12q29 0 50 -7t46 -22q19 -11 30 -42t15.5 -67.5t5.5 -72t1 -55.5q0 -40 -5 -76.5t-20.5 -65t-44 -45.5t-74.5 -17q-17 0 -42.5 7t-49.5 19.5t-41.5 29.5 t-17.5 37zM286 156v5q0 3 20.5 10t46.5 14t50 12.5t32 5.5q27 0 54.5 -5t53.5 -15t49 -25.5t41 -35.5q-2 -2 -7.5 -7t-11.5 -11t-11 -11.5t-7 -7.5q-6 -6 -10.5 -15.5t-13.5 -11.5q-4 -2 -12 5t-18 17l-19.5 19.5t-16.5 13.5q-6 3 -16.5 8.5t-22 11t-22.5 9.5t-18 4z M1078 95q0 17 4.5 34.5t4.5 34.5q0 9 0.5 31t0.5 47t-0.5 46.5t-0.5 30.5q10 2 17 8.5t16 6.5h5q1 -2 9 -8t9 -7h3h2q1 1 4.5 5t5.5 5h2q6 0 10.5 -9t7 -21t3.5 -23.5t1 -16.5q0 -54 -30 -97t-69 -77q-5 1 -5 3v7zM768 158q0 10 9 21t22 19t27 13.5t24 5.5q17 0 34 -15.5 t17 -32.5q0 -9 -4.5 -18t-11 -16.5t-15.5 -12t-18 -4.5t-23 2.5t-27.5 7.5t-23.5 12.5t-10 17.5zM1116 263q0 -10 9 -10q10 0 10 10q0 11 -10 11q-9 0 -9 -11zM1106 308q0 -5 3.5 -10.5t8.5 -5.5t8.5 5.5t3.5 10.5v2q-1 2 -4.5 5t-5.5 4l-2 1q-1 0 -1.5 -0.5l-0.5 -0.5 q-2 -1 -5.5 -4t-4.5 -5v-2zM1106 371q0 14 14 14q6 0 10.5 -4t4.5 -10q0 -5 -4.5 -10t-10.5 -5t-10 5t-4 10zM234 425q0 25 17.5 44t44.5 19q10 0 20.5 -4.5t19.5 -12t15 -17t6 -20.5q0 -8 -5 -16t-12 -14t-16 -10t-16 -4h-2q-8 1 -18.5 2t-20 2.5t-16.5 3t-7 2.5l-9 8 q0 1 -0.5 7t-0.5 10zM638 589l4.5 3t10.5 6l11 5.5t6 2.5q5 0 5 -1q2 0 9.5 -6t9.5 -7l1 -1t2 -1l1 2q1 0 4.5 4t5.5 4q1 1 3.5 1.5l2.5 0.5q0 -22 -4.5 -48t-13 -51.5t-22 -48t-31.5 -36.5q0 9 -1 33t-2 51t-1.5 51.5t-0.5 33.5v2zM872 516q0 9 -1 30t-2 45t-1.5 45 t-0.5 30v19v18q0 6 0.5 22t1.5 34t2 34.5t1 22.5q0 1 2 3t3 2q3 2 10.5 5.5t16 7t15.5 6.5t9 4q7 3 18.5 7t22.5 7.5t19.5 6.5t9.5 3h11q0 -11 -6.5 -22t-15 -23.5t-15 -28t-6.5 -34.5q0 -36 12.5 -58t27.5 -39.5t27.5 -34.5t12.5 -42q0 -23 -13 -39t-32 -26t-41.5 -14.5 t-40.5 -4.5q-10 0 -25.5 2t-21.5 12zM666 530q0 -9 9 -9q10 0 10 9q0 10 -10 10q-9 0 -9 -10zM656 580q0 -4 3.5 -10.5t8.5 -6.5t8.5 6.5t3.5 10.5v2l-10 10h-2h-2l-10 -10v-2zM656 643q0 5 4 10t10 5q7 0 11 -5t4 -10q0 -6 -4 -10.5t-11 -4.5q-6 0 -10 4.5t-4 10.5z" />
<glyph unicode="C" horiz-adv-x="879" d="M111 76q0 -56 18.5 -101.5t51.5 -80t77.5 -58t96.5 -34.5h54q42 0 83 5.5t79 26.5q4 4 15 12.5t23 18.5t22 18.5t14 12.5q6 5 17 14.5t21 20.5t17.5 23.5t7.5 23.5q-10 0 -10.5 -2.5t-5.5 -9.5q-9 -16 -17 -24t-25 -22q-8 -8 -18.5 -16t-21.5 -15.5t-21.5 -14.5 t-17.5 -11q-26 -17 -56.5 -20.5t-59.5 -3.5q-55 0 -113.5 11.5t-106.5 38.5t-78.5 71.5t-30.5 111.5q0 4 0.5 13t3 18t6.5 15.5t11 6.5h3q26 -13 49 -32t49 -33q27 -16 59 -27t66 -18t67.5 -10t65.5 -3q59 0 106.5 14.5t87 42t73 67t64.5 88.5q4 6 7.5 13t3.5 15h-11 q-3 -4 -12.5 -13.5t-19.5 -20t-19.5 -19.5t-12.5 -13q-8 -7 -22.5 -15.5t-24.5 -8.5q-3 0 -6.5 0.5t-3.5 5.5v234q0 6 3.5 10t8 8t8.5 8.5t4 11.5q0 17 -19 27v34q0 45 5 87.5t5 87.5q0 14 -0.5 28.5t-9.5 25.5h-12q-13 0 -17.5 -5t-4.5 -17q0 -59 7.5 -117t7.5 -118 q0 -11 -9.5 -17.5t-9.5 -18.5q0 -9 4.5 -14.5t14.5 -11.5v-102q0 -15 0.5 -35t0 -41t-1.5 -41.5t-4 -37.5q-3 -9 -22.5 -13.5t-43.5 -7t-46 -3t-31 -0.5q-32 0 -72.5 7t-80.5 20.5t-74.5 33.5t-55.5 47v2q0 9 11 10.5t17 1.5q43 0 73 -17t59 -49h7q23 0 54 23t59 55t47.5 65 t19.5 54v84q0 1 -2 4.5t-3 5.5l-28 42q-7 6 -23 21t-34 32t-33.5 33t-21.5 22q-20 20 -36 44t-16 53q0 16 4.5 34.5t14.5 34t24 25.5t34 10h7q15 -17 29.5 -29.5t30 -20.5t33.5 -12t41 -4q27 0 56 13t53.5 35t40.5 49t16 56v2q0 1 -2 2.5t-3 2.5h-2q-5 0 -10 -12.5 t-15 -27.5t-26.5 -27.5t-42.5 -12.5q-17 0 -31 8t-25 20.5t-20 27.5t-15 29h-5q-1 -1 -5.5 -5t-11.5 -10t-10 -9q-8 -6 -10.5 -9t-4 -4.5t-4.5 -3.5t-10 -6q-41 -24 -83.5 -43.5t-77 -45t-56.5 -62.5t-22 -95q0 -42 15.5 -73t38 -55.5t49.5 -44.5t49.5 -40.5t38 -42 t15.5 -49.5q0 -5 -2.5 -19t-7 -29t-11 -26.5t-13.5 -11.5h-3q-11 7 -22 16t-22.5 17t-24 13t-27.5 5q-26 0 -49.5 -5t-46.5 -14q-5 -2 -18.5 -7.5t-20.5 -5.5h-3q-26 22 -43 54t-27.5 67t-15 71.5t-4.5 69.5q0 42 9 85.5t27.5 83t48 71.5t70.5 50q4 2 13 4.5t18 6t16 8 t9 10.5l2 5q-37 0 -72 -13.5t-67 -35t-60 -47.5t-51 -51q-8 -21 -22.5 -42.5t-28 -44.5t-23.5 -47t-10 -48v-150q0 -25 8.5 -53.5t21 -56t28.5 -52.5t31 -43v-12q0 -17 -7.5 -32.5t-7.5 -33.5zM60 376v8t1 8q11 2 19 8.5t18 6.5q4 0 5 -1q1 0 9 -6t9 -8l2 -1q2 0 2.5 0.5 l0.5 0.5q1 2 7 7t7 7l0.5 0.5t2.5 0.5q5 0 8 -7t4.5 -15.5t2 -16t0.5 -9.5q10 -34 25.5 -68.5t45.5 -57.5q1 -1 7 -2.5t7 -2.5q6 -3 6 -8t4 -10q20 -29 57.5 -49.5t80.5 -34t86.5 -19.5t76.5 -6h77t76 14q9 4 12 7t4.5 5.5t4 4t11.5 1.5v-8l-65 -57q-41 -14 -82 -30t-85 -16 q-50 0 -91.5 7t-79 21.5t-73.5 35.5t-76 48q-2 2 -8 4t-12 4.5t-11 5.5t-6 6q-11 27 -26.5 53.5t-29.5 53.5t-24 55t-10 60zM372 259q6 0 19.5 -3.5t27.5 -9.5t25 -14t11 -16q0 -4 -3.5 -5.5t-6.5 -1.5h-3t-2 1q-4 3 -14.5 11.5t-14.5 11.5q-3 3 -9.5 5t-13 5t-11.5 7t-5 9z M561 336q10 0 10 -7v-3l-24 -32h-8q0 4 0.5 11.5t3 14t6.5 11.5t12 5zM102 326q0 -9 9 -9q11 0 11 9q0 10 -11 10q-9 0 -9 -10zM547 373q0 15 14 15q15 0 15 -15q0 -14 -15 -14q-14 0 -14 14zM84 380q0 -3 3.5 -9.5t8.5 -6.5t8.5 6.5t3.5 9.5v3q-1 1 -5 4.5t-5 4.5h-2h-3 q-2 -1 -5 -4.5t-4 -4.5v-3zM84 444q0 5 4 9.5t10 4.5q5 0 10 -4.5t5 -9.5q0 -6 -5 -11t-10 -5q-6 0 -10 5t-4 11z" />
<glyph unicode="D" horiz-adv-x="988" d="M44 0q0 -53 29 -93.5t72.5 -67.5t95 -40.5t96.5 -13.5q81 0 145 29.5t124 83.5q4 3 10.5 8.5t13.5 13t13 15t9 15.5q2 0 2 4h-10q-18 -20 -42 -43.5t-51.5 -43t-57.5 -32.5t-60 -13h-145q-35 0 -75.5 14t-76 38t-59 57t-23.5 71t15.5 66t41 46.5t58 27.5t65.5 9 q74 0 138.5 -25.5t121.5 -73.5q3 -3 8 -10.5t11 -16t11.5 -14.5t9.5 -6h2q26 27 53.5 52.5t62.5 37.5q4 1 13 4t11 4q7 4 20.5 10.5t27 13.5t24 12.5t12.5 6.5q45 25 81.5 60t62 77.5t39.5 91t14 101.5v3q0 1 -1.5 4t-3.5 4q3 60 -9.5 118t-41 108t-72 90.5t-101.5 64.5 q-20 8 -48 13t-57.5 8t-57 4.5t-46.5 1.5h-20q-6 0 -26 -2.5t-43 -4.5t-43 -4.5t-25 -2.5q-9 -1 -20 0t-22 1q-10 0 -20 -1.5t-17 -8.5q-5 -1 -17.5 -2.5t-27 -3t-27 -2.5t-17.5 -1q-1 0 -11 -0.5t-15 -0.5q-33 0 -59 14t-41 43h-12q0 -49 20.5 -81t53 -50.5t73 -25.5 t81.5 -7h4q2 0 7 1.5t7 3.5q11 0 39.5 0.5t60.5 1.5t60.5 1.5t39.5 0.5h33q81 0 136.5 -23.5t90 -66.5t49.5 -104.5t15 -136.5q0 -82 -23.5 -154t-84.5 -129q-14 -14 -33.5 -25.5t-40.5 -11.5h-5q-32 33 -60.5 57t-60 39.5t-69 23t-85.5 7.5q-43 0 -91.5 -11t-92.5 -32.5 t-79.5 -54.5t-51.5 -76q-2 -5 -3 -13.5t-1.5 -18.5t-0.5 -19v-15zM208 174q-1 0 -1 1v1q0 7 20.5 14.5t47.5 14.5t52.5 11.5t35.5 4.5q63 0 122.5 -23t102.5 -71q5 -5 9.5 -10.5t4.5 -13.5q0 -3 -1 -3l-60 -48h-5q-21 18 -45 37t-50.5 34.5t-54.5 26.5t-56 14 q-7 1 -24.5 2.5t-37 3t-36.5 3t-24 1.5zM836 310q0 4 5 4q3 0 7.5 -4.5t9 -10.5t7.5 -11.5t3 -7.5q0 -8 -6.5 -18t-15.5 -20t-18.5 -17.5t-15.5 -8.5v5q0 19 9.5 45.5t14.5 43.5zM367 270q0 -5 3 -6t6 -1q31 0 60.5 19t53 47.5t37.5 62.5t14 63q0 30 -8 51.5t-21.5 39.5 t-31.5 35t-38 38q-2 2 -5.5 7t-3.5 6v57q0 6 4 10.5t8.5 9t8.5 9t4 10.5q-22 0 -43.5 -19t-38 -45.5t-27 -55.5t-10.5 -49q0 -39 17 -65t37 -46.5t37 -40t17 -45.5q0 -24 -12.5 -39.5t-27.5 -26t-27.5 -16.5t-12.5 -10zM868 322v2q0 1 2 2.5t3 2.5h3q7 0 10 -7.5t3 -13.5 q-4 0 -12.5 5t-8.5 9zM423 455v6q8 0 12.5 3t7.5 6t6.5 6t8.5 3q9 0 15.5 -7.5t15.5 -7.5q5 0 7 3.5t4 8t4 8.5t7 4v0q1 0 1 -1q6 -5 6 -16v-17t-4 -23t-10.5 -34.5t-15 -31t-16.5 -13.5h-2q2 32 -11 56.5t-36 46.5zM868 364v2q2 2 7.5 7t7.5 7h2q5 0 6 -4t1 -8 q0 -5 -2.5 -10.5t-9.5 -5.5h-2q-2 1 -5 4.5t-5 4.5v3zM480 408q0 -10 9 -10q10 0 10 10t-10 10q-9 0 -9 -10zM451 452l1 -2q5 -8 7.5 -11t10.5 -3q10 0 10 13q0 8 -6 11.5t-14 3.5q-5 0 -7 -3.5t-2 -8.5zM433 518v7t5 5q7 0 10.5 -5.5t3.5 -10.5v-7t-5 -5q-7 0 -10.5 5.5 t-3.5 10.5z" />
<glyph unicode="E" horiz-adv-x="908" d="M108 86q0 -67 28.5 -118.5t74.5 -87t105 -54t120 -18.5q44 0 84 13t74.5 36.5t63 55t50.5 68.5q5 10 12 23.5t7 25.5q-13 0 -13.5 -5.5t-5.5 -14.5q-2 -4 -8 -13.5t-12.5 -20t-12.5 -19.5t-9 -13q-16 -23 -35.5 -37t-41.5 -23.5t-45.5 -17t-47.5 -16.5h-12t-19 -0.5 t-19 -0.5h-12q-56 0 -111.5 12.5t-100 40t-72.5 72.5t-28 110q0 5 0.5 13.5t2.5 17t5.5 15t10.5 6.5h5q31 -35 70.5 -60.5t83.5 -42t91 -25t92 -8.5q53 0 104 11.5t97 35t84 58.5t66 82q15 26 29.5 55.5t14.5 61.5q-8 0 -12 -4.5t-6 -10.5t-3 -12.5t-4 -10.5l-6 -6 t-11 -11.5t-12 -13.5t-10 -11q-7 -8 -17.5 -18t-22.5 -20t-24.5 -16.5t-23.5 -6.5q-8 0 -9 5q0 6 -1 22t-2 34t-1.5 34.5t-0.5 22.5q0 1 -0.5 12t-0.5 17q0 5 0.5 15.5t0.5 11.5q0 4 0.5 15.5t1.5 24t2 23.5t1 16q3 6 11.5 10.5t20 10t23 12.5t20.5 19l2.5 5t1.5 5v60 q0 15 -12.5 27.5t-27 22.5t-27 17.5t-12.5 12.5l-9 116h-3h-2q-1 0 -3 -1.5t-2 -2.5v-112q0 -5 -10 -9.5t-23.5 -9t-26.5 -9t-19 -9.5q-13 -11 -22 -22t-17 -25h-13q-18 18 -42 37.5t-46 40.5t-37.5 45t-15.5 53q0 46 38 76q4 4 11 9.5t14 10.5t12 8.5l5 3.5h14 q15 -16 28 -28t27 -20.5t30.5 -13t38.5 -4.5q18 0 30 1t29 10q10 6 27.5 21t34.5 34.5t29.5 39t12.5 34.5q-11 0 -18 -8.5t-13 -18.5t-13 -18.5t-18 -8.5h-61q-6 0 -16.5 9t-21 21t-19.5 23.5t-13 16.5h-5q-7 0 -14 -4.5t-13.5 -10t-11.5 -11t-8 -7.5q-35 -24 -76 -46 t-76 -49t-59 -62.5t-24 -86.5q0 -44 19 -79t46.5 -65t59.5 -57.5t59 -55.5q10 -11 14.5 -27t4.5 -31q0 -10 -2.5 -23t-8.5 -25t-15 -20.5t-22 -8.5h-4q-2 1 -9.5 7t-9.5 7q-3 1 -9.5 4.5t-14 7t-14 6.5t-9.5 5q-15 6 -33 8t-35 2q-14 0 -24 -0.5t-24 -4.5 q-13 -4 -25.5 -11.5t-23.5 -7.5h-7q-21 15 -36.5 46t-25.5 67t-14.5 71t-4.5 59q0 108 42 188t142 125v11q-26 0 -49.5 -13.5t-44.5 -24.5q-47 -26 -86 -61.5t-66.5 -78.5t-43 -92.5t-15.5 -104.5q0 -44 4.5 -80.5t14.5 -70t26 -66.5t39 -69q0 -1 0.5 -5.5t0.5 -5.5 q0 -18 -7.5 -34.5t-7.5 -36.5zM61 398q0 10 1 17t5 11.5t10 8.5t17 9q0 1 2 1h3q4 0 5 -1q1 0 9 -6t9 -7l2 -1q2 0 2.5 0.5l0.5 0.5l14 18h5q13 -153 96 -236.5t227 -114.5h12q10 0 21 -0.5t20 -0.5h14h18t21.5 0.5t18.5 0.5h10t10.5 1.5t21.5 4l24 5t19 4.5q12 2 22 7.5 l20 11t21 9.5t23 4q0 -7 -10 -15t-10 -9q-33 -27 -64 -46t-63.5 -30.5t-69 -16.5t-80.5 -5t-83.5 11t-80.5 27q-48 19 -92 53.5t-77.5 79.5t-53.5 97.5t-20 106.5zM258 234v5q0 6 6 10.5t14 7.5t16 4.5t13 1.5q37 0 67 -22.5t53 -48.5h13l6 2.5t13.5 6.5t15 7.5t12.5 6.5 q25 13 49.5 32.5t44 42.5t31.5 50t12 57q0 13 -1.5 29.5t-3.5 27.5q-1 1 -5 8t-8 15t-7.5 14.5t-3.5 8.5v12q0 12 6.5 24.5t16.5 22.5t22.5 16t25.5 6h5t11.5 -1t12.5 -3t8 -6v-2q0 -6 -8 -11t-18 -12t-18 -17.5t-8 -26.5q0 -31 12 -48t35 -38v-266q0 -4 -5 -7t-11 -5.5 t-12 -4.5t-9 -2q-7 -2 -19 -4t-24 -4.5t-21.5 -4t-11.5 -2.5h-49q-37 0 -76 7.5t-76 22.5t-69.5 37t-56.5 51zM422 239h5q5 0 12 -3t7 -9l-1 -3q0 -1 -2 -2t-3 -2zM553 332h2h3l5 -2.5t4 -1.5v-3q0 -5 -4 -11.5t-10 -6.5v25zM543 376q5 0 9.5 -3t9.5 -3q7 0 8.5 3t1.5 9 q0 16 -19 16q-8 0 -10.5 -6t-10.5 -6q0 7 6 16.5t12 9.5h3q2 -2 11.5 -8t12.5 -7h3q7 0 11.5 3t10.5 3q0 -3 -1 -12.5t-3 -19t-5.5 -17.5t-8.5 -8t-8.5 3t-8.5 3t-8.5 -3t-8.5 -3h-1t-1 1q-1 2 -2.5 11t-2.5 12v6zM103 365q0 -10 9 -10q10 0 10 10q0 9 -10 9q-9 0 -9 -9z M85 419q0 -4 3.5 -10.5t8.5 -6.5t8.5 6.5t3.5 10.5v2l-10 10h-2h-3q-2 -1 -5 -5t-4 -5v-2zM524 451q0 1 0.5 2l0.5 1q1 2 4 5t5 4q8 -5 11 -8t3 -10q0 -4 -1 -7.5t-6 -3.5l-3 2q-2 1 -7 6t-6 7zM85 482q0 6 4 10.5t10 4.5q5 0 10 -4.5t5 -10.5t-5 -10.5t-10 -4.5 q-6 0 -10 4.5t-4 10.5z" />
<glyph unicode="F" horiz-adv-x="1003" d="M52 -34q0 -57 32 -97t80 -65t103.5 -36.5t101.5 -11.5q39 0 79.5 12.5t77.5 34t68.5 50.5t51.5 63q3 5 7.5 14l9 18t7.5 15.5t3 7.5v11q-7 0 -8 -6q-13 -20 -24.5 -36.5t-24 -31.5t-27 -30t-32.5 -33q-26 -16 -56.5 -27.5t-59.5 -19.5h-66q-31 0 -63 1t-63.5 6t-61 15.5 t-56.5 29.5q-28 21 -47 48.5t-19 63.5q0 42 19.5 69.5t49.5 43t67 22t73 6.5q64 0 124.5 -27t102.5 -76h9q35 37 79 69.5t82.5 68.5t65 79t26.5 101q0 29 -9.5 54t-9.5 52q0 18 5 36.5t15.5 34t26 25t35.5 9.5q2 0 8.5 -0.5t8.5 -5.5q-11 -10 -19.5 -17.5t-14 -16t-8 -19 t-2.5 -25.5q0 -28 19.5 -49t46.5 -26q1 -21 2 -37.5t2 -31t1 -29.5v-32q0 -36 -2.5 -71.5t-2.5 -71.5q0 -8 -1 -23t0.5 -30.5t6.5 -27t16 -11.5q14 0 15.5 13.5t1.5 22.5q0 55 -6.5 114.5t-8.5 110.5l-4 10v89l1.5 1.5t2.5 3.5q15 8 29.5 16t25.5 18.5t18 24.5t7 34 q0 18 -7.5 32t-19.5 26t-26 22t-27 19q-4 0 -4 4q-4 25 -5 49t0 49q-5 6 -12 6v-100l-2.5 -3t-4.5 -5q0 -2 -2 -3.5l-2 -1.5q-19 -3 -39.5 -6.5t-36.5 -17.5q-1 -2 -5 -5.5t-8.5 -8l-8.5 -8.5t-5 -6q-5 -6 -10 -18t-9.5 -25t-8.5 -22.5t-7 -9.5t-8.5 3.5t-11 7.5t-10 8 t-6.5 5q-22 12 -43.5 25t-39 28.5t-28.5 36t-11 49.5q0 11 3 24.5t9.5 25t16 19.5t22.5 8q35 0 69 -10.5t70 -10.5q25 0 46.5 1.5t45.5 13.5q15 8 32 23.5t32 35t24.5 40.5t9.5 39q0 20 -12 37.5t-34 17.5q-9 0 -12 -5.5t-3 -13.5q0 -11 6.5 -15t14.5 -7.5t14.5 -8.5 t6.5 -16q0 -16 -8.5 -27.5t-21.5 -19t-27.5 -11t-27.5 -3.5q-23 0 -47.5 9t-48 21.5t-45.5 26t-41 22.5q-46 23 -95.5 41.5t-100.5 29.5h-65q-47 0 -107 -11.5t-113.5 -37t-90 -66.5t-36.5 -101q0 -36 13 -69t36 -58.5t54.5 -40.5t69.5 -15q65 0 114.5 31.5t82.5 86.5 q5 7 12 21.5t7 22.5v3q-1 1 -3 2t-2 2h-2h-3q-5 -10 -9 -18.5t-7.5 -16.5t-8.5 -16.5t-12 -18.5q-29 -36 -71.5 -51t-85.5 -15q-34 0 -65 9.5t-55 28t-38 45.5t-14 63q0 42 21 72t53.5 49t71.5 28t75 9q34 0 72 -14t76 -34t74 -41.5t68 -36.5q5 -1 5 -5v-7q0 -9 -7 -16.5 t-17 -14.5t-20.5 -13.5t-16.5 -13.5q-23 -26 -40.5 -59t-17.5 -69q0 -39 16 -67t39.5 -50t51 -40.5t51 -38t39.5 -42t16 -52.5q0 -11 -4.5 -27.5t-12.5 -32t-20 -26.5t-27 -11h-2q-29 29 -61 50t-70 35q-5 0 -17.5 1.5t-27 2.5t-27 2.5t-17.5 1.5h-2q-48 0 -106 -15 t-107.5 -44.5t-83 -73.5t-33.5 -101zM201 125l1 1q0 1 1.5 3t3.5 2q41 25 81 36t88 11h39q20 0 39 -5q9 -2 27.5 -10t37.5 -19.5t33.5 -24.5t14.5 -24v-1q-2 -2 -9 -9.5t-11 -10.5q-5 -4 -14 -12t-15.5 -13.5t-7.5 -6.5h-9q-9 10 -22.5 19.5t-28 17t-29 13.5t-24.5 11 q-22 9 -47 14t-51 6.5t-51 1.5h-47zM688 260q7 0 13 4.5t6 13.5v3l-4.5 4.5t-5.5 3.5q0 1 -1 1h-1h-1t-1 -1q-2 0 -7.5 -6.5t-7.5 -6.5l-5 3.5t-8 6.5q-1 0 -3 1.5l-2 1.5q-1 1 -1 2v1q14 0 20.5 6.5t17.5 6.5q2 0 3.5 -0.5l1.5 -0.5q2 -2 9.5 -8t8.5 -7h3h2l7.5 7.5 t6.5 7.5v-5q0 -6 -3.5 -21t-9.5 -30t-14 -26.5t-17 -11.5h-2q-2 6 -3.5 22.5t-1.5 27.5zM683 271q4 0 4 -5q0 -4 -4 -4t-4 4q0 5 4 5zM683 341q0 6 4 10.5t10 4.5q7 0 11 -4.5t4 -10.5q0 -5 -4 -10t-11 -5q-6 0 -10 5t-4 10z" />
<glyph unicode="G" horiz-adv-x="1004" d="M101 14q0 -41 18 -81.5t48 -73.5t69 -55t81 -26q33 -4 55 -4.5t53 -0.5h37q7 4 10 4.5t5 0t5.5 -1t11.5 1.5q3 0 10.5 2t16 4t15.5 4.5t10 3.5q12 4 40 22t56.5 41t50.5 48.5t22 44.5q-7 0 -13 -4.5t-11.5 -11t-9.5 -13t-8 -10.5q-3 -4 -10.5 -11t-15 -14.5t-14 -13.5 t-7.5 -8q-20 -17 -45 -29t-52.5 -19t-55.5 -10t-53 -3q-36 0 -68.5 5t-67.5 14q-11 3 -14 5t-14 0q-61 32 -98.5 76.5t-37.5 115.5q0 38 8.5 69t38.5 57q65 -50 138.5 -83t151.5 -53q25 2 49.5 -1.5t49.5 -3.5q36 0 78.5 8.5t86 24.5t85 39t75.5 53t58 66t33 77q5 22 5 42 v44q0 48 -15 88t-42.5 69t-67 45t-88.5 16q-23 0 -42.5 -4t-36.5 -12t-33.5 -19.5t-34.5 -26.5h-10q-1 0 -15 14l-33.5 33.5t-40 40.5t-33.5 35q-18 20 -32.5 44t-14.5 53q0 26 12.5 48t32.5 37.5t45 24.5t49 9q7 0 12.5 -5.5t10 -12.5l9 -14t8.5 -11q7 -8 20.5 -14t27 -13 t23 -15.5t9.5 -21.5q0 -17 -9.5 -27.5t-20.5 -18.5t-20.5 -15t-9.5 -17q23 0 49 15.5t48 39t36.5 50t14.5 49.5q0 24 -14 37.5t-31 23.5t-31 19.5t-14 24.5q0 11 7.5 15.5t17 7.5t17 7t7.5 13q-36 0 -59.5 -2.5t-40.5 -12.5t-29.5 -28.5t-26.5 -50.5q0 -2 -2 -3.5t-3 -1.5 q-51 -4 -95 -21t-77 -46t-52 -70.5t-19 -93.5q0 -41 15.5 -72t38.5 -56.5t49.5 -48t49.5 -47.5t38.5 -55t15.5 -70q0 -17 -6 -36t-17 -35t-27 -27t-35 -11h-5q-35 26 -64.5 39.5t-73.5 13.5q-23 0 -45 -8t-42 -8q-11 0 -17.5 8.5t-10.5 20t-7 23.5t-6 19q-2 8 -5 29t-6 44 t-5 43.5t-3 28.5v45q0 57 10.5 111.5t34 101.5t62 84.5t94.5 60.5v11q-23 0 -42.5 -9.5t-38 -22.5t-36.5 -25.5t-38 -19.5l-79 -70q-25 -41 -44.5 -69t-32.5 -55.5t-19.5 -59.5t-6.5 -80q0 -42 4.5 -82t27.5 -76q7 -10 20.5 -27.5t27 -35.5t23.5 -33t10 -20q0 -7 -5 -16.5 t-11.5 -19.5t-13 -19t-9.5 -16q-7 -16 -8 -37.5t-1 -39.5zM233 185q1 10 15 12t22 2q30 0 52.5 -13.5t39 -29t26.5 -29t15 -13.5q1 0 3.5 0.5t3.5 0.5q38 31 82 54.5t81 51.5t61.5 66t24.5 99q0 18 -4.5 33t-10 28.5t-10 25t-4.5 21.5v5q20 21 38.5 34t47.5 13q37 0 62 -17 t40 -43.5t21.5 -59.5t6.5 -64q0 -34 -0.5 -69.5t-9.5 -70.5q-12 -47 -39.5 -84t-65 -63.5t-82.5 -40.5t-91 -14q-52 0 -93.5 7t-78.5 23.5t-70.5 42.5t-68.5 64q-2 3 -8.5 13t-5.5 15zM817 125q27 42 37 80t15 88q1 2 7 5t13 6t14 5.5t9 2.5l7 -3t14.5 -6.5t14 -7.5t6.5 -5 q0 -12 -15.5 -40.5t-37.5 -57.5t-45.5 -51t-38.5 -22v6zM54 428q0 22 0.5 36t5.5 40q1 11 4.5 16.5t9 8.5t12.5 5.5t16 6.5q1 0 6.5 4.5t6.5 5.5h6h4l24 -24q0 -4 -0.5 -12.5t-0.5 -18.5t0.5 -18.5t0.5 -11.5q0 -10 2.5 -35.5t5.5 -54t5.5 -53.5t4.5 -35q5 -26 14 -53 t19 -50q4 -10 9.5 -16t5.5 -18q-10 0 -19.5 6.5t-14.5 14.5l-46 58t-41 60t-29 65t-11 73zM348 209q5 0 18 -4t26 -11t23 -15t10 -15q0 -5 -4.5 -8.5t-10.5 -3.5q-2 0 -11.5 9t-21 19.5t-20.5 19.5zM896 232q0 -10 11 -10q10 0 10 10q0 9 -10 9q-11 0 -11 -9zM536 408 q0 4 3.5 5.5t7.5 1.5t8 -0.5t5 -0.5q2 1 7.5 7t7.5 7h2h3l4 -4t4 -5q-8 0 -13 -4t-5 -12v-2q10 -15 23 -15q9 0 9 10q0 2 -1.5 7t-2.5 7q7 2 15.5 8.5t15.5 6.5q3 0 4.5 -5.5t2 -12t0.5 -12.5v-6q0 -12 -6 -34t-15 -44t-20.5 -38.5t-22.5 -16.5h-2q0 24 -2 55t-12 56 q-1 2 -3.5 7.5t-6 12t-6.5 12t-4 7.5v2zM898 286q0 -4 3 -10.5t9 -6.5q5 0 7.5 6.5t2.5 10.5v2q-1 2 -4 5l-5 5h-1h-3l-5 -5t-4 -5v-2zM896 349q0 5 5 10t10 5q6 0 10.5 -5t4.5 -10q0 -6 -4.5 -10t-10.5 -4q-5 0 -10 4t-5 10zM588 349q0 -9 10 -9q9 0 9 9q0 10 -9 10 q-10 0 -10 -10zM593 419q4 0 4 -5q0 -4 -4 -4t-4 4q0 5 4 5zM546 470q0 3 0.5 6t4.5 4q7 -5 10.5 -8.5t3.5 -9.5q0 -8 -5 -10q-7 5 -10.5 8.5t-3.5 9.5zM106 470q0 -9 9 -9q10 0 10 9q0 10 -10 10q-9 0 -9 -10zM106 524q0 -3 3.5 -9.5t8.5 -6.5t8.5 6.5t3.5 9.5v3 q-2 1 -5 4.5t-5 4.5h-2h-3l-4.5 -4.5t-3.5 -4.5q-1 0 -1 -3zM106 588q0 5 4.5 9.5t9.5 4.5q6 0 10 -4.5t4 -9.5q0 -14 -14 -14q-5 0 -9.5 4t-4.5 10z" />
<glyph unicode="H" horiz-adv-x="1079" d="M26 11q0 -40 15 -77t41 -66.5t61 -50t75 -27.5h54q41 0 75.5 7t63.5 22.5t54 40.5t48 61q4 6 9.5 16t10.5 22t9 23t4 19q0 3 -1.5 6.5t-6.5 3.5l-2 -1q-18 -47 -40 -81.5t-51 -57t-67 -33.5t-89 -11q-40 0 -83.5 7.5t-79.5 26t-59 50.5t-23 81q0 25 9.5 45.5t26 35.5 t38 23t46.5 8q35 0 64 -12.5t51 -39.5q2 -3 6 -11.5t8.5 -17.5t10 -16t10.5 -7q1 1 5 9t9.5 18t5.5 11q19 22 45 41t52 38.5t49.5 41t37.5 47.5q17 32 24.5 57.5t7.5 59.5q0 17 -4.5 33.5t-4.5 33.5q0 12 13.5 28.5t32 32t37.5 26t30 10.5q7 0 8 -5q0 -4 1 -13.5t2 -20.5 t1.5 -21t0.5 -14v-9q0 -6 -3 -10.5t-6.5 -9t-6.5 -9.5t-3 -13t3 -14t7 -12t7 -12.5t3 -15.5q0 -17 -1.5 -31t-4.5 -33q-11 -15 -22.5 -22.5t-21.5 -16.5t-16 -23t-6 -42q0 -37 18 -63.5t46 -43.5t62 -25t66 -8q36 0 78 17.5t80 45t67 63t38 71.5q5 17 5 41v42 q0 38 -11.5 75.5t-40.5 66.5q-14 14 -34.5 26t-40 25.5t-33 30.5t-13.5 43q0 13 4.5 23.5t4.5 22.5q0 4 -1 8t-6 4h-2q-18 -27 -32 -43.5t-31 -25t-39.5 -11t-56.5 -2.5q-6 0 -19 0.5t-14 0.5l-5 10v89q0 7 -3.5 18t-12.5 11q-13 0 -13 -14q0 -24 3 -49t3 -49q0 -17 -9 -27 t-22.5 -17t-28 -13t-25.5 -14q-3 -3 -11 -10t-17 -15t-17 -15.5t-11 -10.5q-13 3 -22 13.5t-20 18.5q-24 18 -47 33.5t-40.5 34t-28 42.5t-10.5 57q0 21 14.5 47.5t35.5 49.5t45.5 38.5t44.5 15.5h5q11 -9 25 -22.5t30.5 -26t34 -21.5t35.5 -9q59 0 98 28t72 75q14 19 21 31 t7 35q-11 0 -19.5 -12t-19 -26t-24 -26t-33.5 -12q-27 0 -51 14t-42 31t-29 31t-12 14t-2 -0.5t-2 -0.5q-15 -16 -37 -37.5t-43 -33.5q-42 -23 -90 -47t-88.5 -55t-67 -72.5t-26.5 -99.5q0 -45 16 -77t40 -57t52 -45.5t52 -42t40 -46.5t16 -59q0 -9 -3 -21.5t-9 -23.5 t-15 -19t-20 -8h-5q-23 31 -58.5 46t-73.5 15q-30 0 -61 -7t-59.5 -20.5t-52.5 -33.5t-41 -47q-3 -5 -8 -14t-9.5 -19t-7.5 -19.5t-3 -16.5zM620 118q0 3 0.5 8.5t6.5 5.5q10 0 19.5 -5.5t19 -11.5t19.5 -11.5t21 -5.5q35 0 54.5 18.5t19.5 52.5q0 28 -13.5 42t-30.5 20.5 t-32 10t-18 11.5q-1 5 -2.5 21t-2.5 21v3q0 14 3.5 22t8 14t8.5 12.5t4 17.5q0 9 -4 17l-8.5 17t-8 19t-3.5 23q0 31 3 44t13 16.5t27 3t46 2.5q3 0 14.5 2t14.5 3q2 0 14 0.5t15 0.5q0 -20 -5.5 -38t-5.5 -38q0 -21 7.5 -44.5t21.5 -39.5q4 -6 16 -21.5t25.5 -32.5 t25.5 -32.5t17 -21.5q9 -15 14 -30t5 -32q0 -35 -15.5 -64.5t-40.5 -51.5t-56.5 -34.5t-64.5 -12.5q-19 0 -45 6t-50 18.5t-40.5 31t-16.5 43.5zM152 127v3q0 7 14.5 14t34 12.5t38.5 9t27 3.5t26 -4.5t36 -12.5t31.5 -19t13.5 -23v-2q-1 0 -2.5 -2t-2.5 -3q-3 -3 -11 -9.5 t-17 -14t-17 -14t-11 -9.5h-3q-1 0 -7.5 7t-16 16t-19 17.5t-16.5 11.5q-23 10 -47.5 13.5t-50.5 5.5zM967 184q0 37 -12 63.5t-35 57.5v5q0 3 6 6.5t13.5 6t14 4.5t8.5 2h5q2 -1 9.5 -7t9.5 -8h2h2l28 28l1 0.5t2 0.5q4 0 7.5 -9t5.5 -20t3 -21t1 -13q0 -101 -76 -167v9 q0 16 2.5 30.5t2.5 31.5zM625 160v2q0 10 6.5 21t16.5 19t21.5 13.5t21.5 5.5q11 0 22.5 -4t21.5 -11.5t16 -17.5t6 -22q0 -18 -14.5 -31t-31.5 -13q-13 0 -23 5.5t-19.5 12.5t-20 13t-23.5 7zM288 440q0 2 3.5 5t5.5 5h3q5 0 8 -2.5t8 -2.5q8 0 10.5 5t10.5 5q10 0 15 -7.5 t14 -7.5h2l28 29h4q8 0 15.5 -4.5t12.5 -9.5q3 -2 12.5 -9.5t20.5 -16.5t20.5 -16.5t12.5 -9.5q1 -1 9 -4.5t10 -4.5q4 -3 7 -14t4.5 -24.5t2.5 -25.5t1 -17t-1 -13t-1 -10t-3.5 -10.5t-8 -19t-8.5 -20t-7 -14.5q-3 -6 -10 -15t-9 -9h-5q-2 17 -6 38.5t-12 36.5 q-4 5 -15 18.5t-18 18.5q-3 2 -15 11.5t-25.5 21t-25 21t-14.5 11.5l-8.5 8.5l-14 14l-14.5 14.5l-10 10q-2 3 -5.5 8t-3.5 6zM975 258q0 -10 11 -10q10 0 10 10t-10 10q-11 0 -11 -10zM948 302q0 -3 3.5 -9.5t8.5 -6.5t8.5 6.5t3.5 9.5v3q-2 1 -5.5 4.5l-4.5 4.5h-2h-3 l-9 -9v-3zM948 366q0 5 4 9.5t10 4.5t10 -4.5t4 -9.5q0 -14 -14 -14t-14 14zM372 384q0 -10 9 -10q11 0 11 10t-11 10q-9 0 -9 -10zM330 428q0 -9 10 -13.5t17 -4.5q0 4 -0.5 10t-3 12t-6.5 10t-10 4l-3 -1q0 -1 -1.5 -6.5t-1.5 -7.5q-1 0 -1 -3zM312 499q0 4 1 8t6 4h2 q8 -6 11.5 -8.5t3.5 -10.5q0 -10 -11 -10q-7 0 -10 5t-3 12z" />
<glyph unicode="I" horiz-adv-x="762" d="M181 -166q6 -1 19.5 -3.5t29.5 -4.5t30 -4t20 -2h21q25 0 48.5 3t46.5 11q22 8 52.5 27t57.5 43t46 51t19 52h-6q-26 -40 -54 -68.5t-61 -46.5t-71.5 -26.5t-85.5 -8.5q-32 0 -61 2.5t-56 11t-51.5 23.5t-46.5 39q-9 9 -16 24.5t-7 28.5q0 31 14.5 53t37.5 36t50.5 20 t53.5 6q33 0 64.5 -9t60.5 -24q8 -4 20 -14.5t24.5 -22t23 -20.5t15.5 -9t6 0.5t5 4.5q13 17 27 29.5t28.5 23t31 20.5t34.5 21q38 23 70.5 49.5t56.5 58t37.5 70t13.5 85.5q0 41 -14.5 77t-32.5 72t-32.5 74t-14.5 83q0 25 10.5 42t22.5 30.5t22.5 25t10.5 23.5 q-12 0 -17.5 -4.5t-16.5 -12.5q-28 -23 -55 -47.5t-48 -52.5t-34 -60.5t-13 -72.5q0 -20 1 -42.5t9 -42.5q11 -26 25 -53.5t26 -55.5t20.5 -56.5t8.5 -58.5q0 -38 -18.5 -66t-47.5 -51q-1 -1 -6 -1h-6q-8 0 -23 8.5t-31.5 19.5t-32.5 22t-27 16q-15 8 -33 7t-33 7 q-14 8 -16 19.5t-2 27.5v7q0 7 -0.5 15t-0.5 16v14v10t0.5 15t0.5 15v11q2 7 6.5 11.5l9.5 9.5t8.5 10.5t3.5 13.5q0 9 -4 15.5t-9 12.5t-9.5 12.5t-5.5 16.5q0 4 -1 15t-1.5 23t-1 22.5t-0.5 15.5q-5 6 -10 6v-95q0 -7 -3 -12t-6.5 -9.5t-6.5 -9t-3 -11.5q0 -11 5 -18.5 t14 -14.5v-154l-5 -5q-42 -5 -89.5 -18t-88 -37.5t-67 -61t-26.5 -87.5q0 -31 12 -56t31.5 -44.5t45 -34.5t51.5 -26zM211 120h-39q-5 -5 -12 -6t-12 -1q0 9 6 11q37 23 75 37.5t82 14.5q50 0 88 -17t78 -44l7 -7t2 -7q0 -4 -1 -5q-17 -12 -33 -24.5t-32 -27.5h-5 q-8 0 -15.5 5.5t-15 12.5l-15 14t-15.5 10q-35 18 -69.5 26t-73.5 8zM606 344q8 0 14.5 -4.5t14.5 -4.5t12 4.5t12 4.5h5q1 -1 8.5 -7t9.5 -7h2h3q1 1 6.5 7t7.5 7l5 2q0 -35 -14.5 -69t-37.5 -60l-14 -14t-10 -9h-2q0 31 -3 55t-8 53q0 1 -2 7t-3.5 12t-3 11.5t-1.5 7.5z M640 269q0 -10 9 -10q10 0 10 10q0 9 -10 9q-9 0 -9 -9zM645 318q0 -4 3 -10.5t9 -6.5q5 0 8.5 6.5t3.5 10.5q0 1 -1 1.5l-1 0.5q-1 2 -4 5.5t-4 4.5h-2h-3q-2 -1 -5 -4.5t-4 -5.5v-2zM643 382q0 5 5 9.5t11 4.5q5 0 9.5 -4.5t4.5 -9.5q0 -7 -4.5 -11t-9.5 -4q-6 0 -11 4 t-5 11zM101 700q0 -38 16 -66t42 -46.5t59 -28t67 -9.5q27 0 54 4.5t49 23.5q9 8 20 18t21.5 22t17.5 25.5t7 28.5h-11q-26 -45 -57.5 -67.5t-84.5 -22.5q-30 0 -63 5t-60 18.5t-45 37t-18 59.5q0 21 10 40t26 33.5t35.5 23.5t39.5 9q39 0 71 -16.5t63 -36t63 -36t70 -16.5 q24 0 42 6t34 15.5t32 22.5t34 27q4 3 12 7.5t16 10t13.5 11t5.5 11.5q0 8 -10 8q-9 0 -20 -6.5t-22.5 -15t-23.5 -15t-24 -6.5q-22 0 -41.5 12t-38 28.5t-37.5 32.5t-40 25q-32 13 -67 14t-70 1q-26 0 -53 -10t-49 -23q-18 -19 -34 -36.5t-27 -36t-17.5 -39.5t-6.5 -47z " />
<glyph unicode="J" horiz-adv-x="758" d="M308 202q-35 -4 -70 -12.5t-67.5 -23t-60.5 -36t-49 -51.5q-1 -2 -4 -6.5t-6.5 -9.5t-6 -9.5t-2.5 -6.5v-79q0 -27 19.5 -50.5t47.5 -42t58.5 -31t52.5 -17.5h54q32 0 62 1.5t61 13.5q20 7 50.5 26.5t58.5 44t48 51t20 47.5q-7 0 -18.5 -11.5t-23.5 -26t-23.5 -28.5 t-17.5 -19q-3 -2 -10 -7.5t-15.5 -11.5t-16 -11.5t-10.5 -7.5q-18 -12 -38 -17.5t-41.5 -8t-43.5 -2.5h-41q-30 0 -68 5.5t-71.5 20.5t-57 40t-23.5 64q0 31 11.5 53t31 35t46 19t55.5 6q67 0 120 -27t97 -76h5q16 24 34.5 41t39 30.5t43 26t46.5 28.5q63 42 102.5 100.5 t39.5 135.5q0 31 -8 59.5t-20 55t-26 53t-26 54.5q-1 4 -3 14t-4.5 21.5t-4.5 21.5t-3 14v7q0 36 20 66t46 53v12q-10 0 -19 -5.5t-17.5 -13.5t-16 -16.5t-13.5 -13.5q-25 -24 -46.5 -45t-37 -43.5t-24.5 -50.5t-9 -65q0 -41 14 -78.5t31 -74.5t31 -75t14 -80 q0 -36 -15.5 -59t-41.5 -47q-7 -6 -10 -8t-10 -2q-9 0 -21.5 7.5t-26 17l-27 19t-26.5 13.5q-5 2 -17 6l-25.5 8.5l-25.5 8.5t-17 6q-8 1 -9.5 7t-0.5 13t1.5 14t-4.5 12v99q0 7 4 11.5t9.5 9t9.5 10t4 13.5q0 10 -4 17t-9 12.5t-9 12t-5 16.5q-1 4 -2 15.5t-1.5 24.5t-1 24 t-0.5 16h-10v-103q-6 -5 -12.5 -12t-6.5 -16q0 -11 5.5 -21.5t13.5 -16.5q-2 -39 1.5 -70.5t3.5 -68.5q0 -5 -1 -11t-9 -8zM150 124v2q0 1 6 4.5t15 8t18.5 9t15.5 7.5q26 10 52.5 17t53.5 7q5 0 19.5 -3t33.5 -8.5t40 -12.5t38 -15.5t28.5 -17t11.5 -16.5q0 -2 -0.5 -2.5 l-0.5 -0.5q0 -1 -3.5 -4t-4.5 -5q-3 -2 -9 -6.5t-12.5 -10t-12.5 -10t-8 -6.5q-3 -5 -5.5 -9.5t-9.5 -4.5h-4q-35 27 -64 42t-58.5 23t-63 10t-76.5 2zM622 197q2 29 -1.5 55t-3.5 55v16q10 2 17 8t16 6h5q1 -1 9 -7t9 -7h3h2q9 6 11.5 11.5t12.5 5.5q0 -16 -7 -38 t-18.5 -43.5t-25 -40t-25.5 -26.5zM641 263q0 -11 9 -11q10 0 10 11q0 9 -10 9q-9 0 -9 -9zM636 312q0 -5 3.5 -11t8.5 -6t8.5 6t3.5 11v1q-1 2 -4.5 5.5t-5.5 4.5h-2h-2q-2 -1 -5.5 -4.5t-4.5 -5.5v-1zM636 374q0 15 14 15q6 0 10.5 -4t4.5 -11q0 -6 -4.5 -10t-10.5 -4 q-14 0 -14 14zM323 394h5v-5zM97 703q0 -28 11 -52.5t29.5 -44t42 -33.5t49.5 -21h42q22 0 53.5 8t60.5 23t49 37.5t20 51.5v2l-2 2t-3 2l-0.5 0.5t-2.5 0.5l-2 -1q-3 -2 -6.5 -9t-5 -12.5t-1.5 -6.5q-9 -17 -24 -29.5t-32.5 -20.5t-37 -12t-37.5 -4q-29 0 -62 4t-61 17 t-46.5 36.5t-18.5 61.5q0 27 12 47t31.5 33.5t44 20t48.5 6.5q36 0 63 -16.5t53.5 -36t55 -35.5t66.5 -16q25 0 52.5 10t53.5 26t48.5 35t37.5 37v2v2q0 2 -2 3.5t-3 1.5h-2q-8 0 -17.5 -6.5t-21 -14.5t-24.5 -14.5t-28 -6.5q-11 0 -18.5 2.5t-19.5 7.5q-26 22 -51 41 t-51.5 33t-56 21.5t-65.5 7.5q-41 0 -80.5 -13.5t-71 -38t-50.5 -60t-19 -79.5z" />
<glyph unicode="K" horiz-adv-x="1111" d="M25 -26q0 -48 25.5 -82t63.5 -55t83.5 -31t84.5 -10q35 0 68.5 10t63.5 27.5t56.5 41.5t46.5 52q11 16 23.5 33t13.5 38h-9q-23 -49 -61.5 -91.5t-92.5 -58.5q-2 -1 -8 -2t-13.5 -3t-15 -4.5t-11.5 -5.5h-50q-33 0 -76.5 5t-83.5 20t-67.5 41.5t-27.5 70.5q0 56 36 88.5 t91 32.5q54 0 93.5 -21.5t80.5 -53.5q7 -5 9.5 -7.5t8.5 -2.5q2 0 3.5 0.5l1.5 0.5q9 26 28 43.5t38 35.5q27 26 52 49.5t44 49t30 56t11 70.5q0 21 -3 36.5t-9 29t-15 26.5t-21 30v15l5 5t11.5 12t13.5 14t12 11t15.5 12t22.5 15.5t24 13t21 5.5q4 0 7.5 -5.5t3.5 -8.5v-79 q5 -8 4.5 -15t-0.5 -15q0 -5 0.5 -13.5t0.5 -17.5t-2 -16t-8 -8q-7 1 -16.5 1.5t-18.5 -1.5t-15.5 -7t-6.5 -16q0 -15 9 -19t20 -4.5t21 -1.5t12 -8v-68q0 -48 -2.5 -95t-2.5 -95q0 -5 0.5 -12.5t3 -15t6.5 -13t11 -5.5h3q1 0 4 1.5l5 2.5v57v55q0 13 -1 33t-1.5 38.5t-1 32 t-0.5 14.5l-5 9v61l1.5 2t3.5 3q12 8 29.5 10.5t31.5 2.5q25 0 39 -17t21.5 -44t11.5 -60t9.5 -65.5t15.5 -60t29 -43.5q1 -2 6.5 -6t12 -9t13.5 -10t10 -7q9 -7 20 -13.5t22 -6.5q6 0 7.5 2t6.5 8q1 2 7 9t12 14.5t11.5 14.5t6.5 9q2 3 11.5 12.5t21 20.5t21 20.5 l12.5 12.5l8 8t9.5 10.5t7.5 9.5l3 4v10h-14q-8 -9 -13 -14.5t-10.5 -9t-12 -4.5t-17.5 -1q-19 0 -32 11t-22.5 26.5t-16 33.5t-12.5 32q-8 17 -16 29t-21 28q-9 10 -24.5 19.5t-32 17.5t-30 15t-16.5 14q2 5 8 6t11 3q23 11 44 24t37.5 29.5t26 38t9.5 50.5q0 25 -12 43.5 t-26 34.5t-26 33t-12 41q0 14 8 24t8 24h-15q-15 -16 -37.5 -35.5t-48 -37t-52 -29t-48.5 -11.5h-1l-5 5l-10 103h-2h-3l-4 -4v-104q0 -16 -13.5 -21.5t-24.5 -10.5q-3 -2 -10 -6.5t-14.5 -9t-14 -8.5t-7.5 -5q-8 -5 -18 -15t-20.5 -20t-20.5 -18t-17 -8h-5q-21 20 -39.5 41 t-32.5 44t-22 49t-8 57q0 18 16 41t38 43.5t46 34.5t41 14q6 0 14 -5.5t16 -13t15 -14.5t11 -9q43 -29 97 -29q29 0 52.5 13t42 33.5t32.5 45.5t23 49q1 0 1 1v1q0 2 -1 2q0 3 -1.5 8.5t-1.5 6.5h-3h-2q-1 0 -3 -2t-2 -3q-1 -1 -3 -5t-4.5 -8.5t-4.5 -9t-2 -5.5 q-3 -5 -11.5 -11t-19 -11t-21 -8t-16.5 -3q-24 0 -44 11.5t-35.5 26t-26.5 26t-16 11.5q-8 0 -12.5 -4.5t-8 -10.5t-6.5 -12t-8 -10q-5 -3 -12 -8.5t-14.5 -10.5l-13.5 -9t-7 -5q-33 -20 -68.5 -37.5t-68.5 -39t-59.5 -49t-41.5 -66.5q-11 -24 -17.5 -47.5t-6.5 -48.5 q0 -35 12.5 -62.5t31.5 -51.5t42 -45.5t44 -44.5q20 -22 33 -39.5t29 -40.5q6 -10 10 -16.5t4 -20.5q0 -7 -1.5 -19t-5.5 -23.5t-11 -20t-17 -8.5q-8 0 -19 5t-22.5 11.5t-22.5 13t-19 8.5q-8 3 -20.5 4t-26 1.5t-25.5 0.5h-19q-3 0 -10.5 -0.5t-16.5 -0.5q-8 0 -16 -0.5 t-11 -0.5q-36 -8 -69.5 -24.5t-60 -42t-42 -58t-15.5 -71.5zM811 299q13 0 25.5 -6t23.5 -15t20 -19t16 -18q13 -15 23 -39.5t21.5 -48.5t27.5 -42t41 -20v-5q-1 -2 -10.5 -13t-23.5 -27t-22 -26q-3 -2 -8.5 -7.5t-6.5 -5.5l-5 3.5t-8 5.5q-35 26 -59.5 55.5t-30.5 76.5 q0 3 -1.5 17t-2.5 29.5t-2.5 29.5t-1.5 17q-3 14 -9.5 28t-6.5 30zM151 114v2q0 10 14.5 17t33 11t36.5 6t25 2q35 0 62 -3.5t59 -20.5q6 -2 14.5 -7.5t8.5 -6.5v-8l-51 -57l-1.5 -0.5t-2.5 -0.5q-5 0 -11 4t-12 9t-11.5 9.5t-8.5 6.5q-35 20 -75.5 28t-79.5 9zM348 406 q13 0 24 -7.5t24 -7.5q4 0 5.5 2.5t2.5 5l2 5t5 2.5h3q1 -2 4.5 -5.5l4.5 -4.5q-5 -2 -9.5 -5t-4.5 -9q0 -8 6 -14t13 -6q6 0 7.5 3t1.5 6q0 4 -0.5 8t1.5 7q0 2 4 3t4 2q6 4 8.5 9t4 10.5t4.5 11.5t12 11q30 -18 50.5 -52.5t20.5 -69.5q0 -20 -5 -41t-14 -38 q-2 -4 -6 -10.5t-8 -12.5l-7 -10.5l-3 -4.5h-5q0 28 -11.5 52t-28.5 45t-37.5 39.5t-39.5 36.5q-3 4 -9 9.5t-11 11t-9 9.5l-4 4v5zM441 335q0 -10 10 -10t10 10q0 9 -10 9t-10 -9zM635 335h22v-5h-22v5zM672 367q-2 19 -3 34.5t-1.5 29.5t-0.5 28v33v49q6 8 18.5 16.5 t27 15.5t29 11.5t23.5 4.5q0 -13 -2 -23.5t-2 -24.5q0 -27 9.5 -44t21 -31t21 -27.5t9.5 -32.5q0 -14 -7 -25t-18 -19.5t-24.5 -13t-26.5 -4.5q-8 0 -18.5 0.5t-21.5 2.5t-20 6.5t-14 13.5zM433 391q-1 -2 -3 -2t-2 2q-1 2 2 2t3 -2zM379 455q12 0 20 -5.5t8 -18.5 q-12 0 -20 5t-8 19z" />
<glyph unicode="L" horiz-adv-x="949" d="M15 2q0 -41 20.5 -75t53 -59.5t71.5 -39.5t77 -14q43 0 83.5 7.5t74.5 25.5t61.5 47.5t45.5 74.5v2v3q-1 0 -2 1.5t-3 2.5h-2h-2q-12 -21 -27.5 -41.5t-34 -36.5t-40.5 -26.5t-48 -12.5q-2 0 -15 -0.5t-29.5 -1.5l-33 -2t-26.5 -1h-9q-30 0 -65.5 9.5t-66 27.5 t-50.5 45.5t-20 63.5q0 39 18.5 65.5t47 42t63 22t67.5 6.5q54 0 105 -21.5t102.5 -47t104.5 -47t109 -21.5q85 0 146 37t105 108q8 15 19 30t11 33q-10 0 -23.5 -15.5t-31.5 -34.5t-40.5 -34.5t-49.5 -15.5q-4 0 -12.5 2.5t-8.5 7.5v224q0 8 3.5 14t8 11.5t8 12t3.5 14.5 q0 11 -4 18t-8.5 14.5t-8 17.5t-3.5 27q0 41 5.5 81t5.5 81v15q0 10 -1.5 19t-6.5 15.5t-14 6.5q-8 0 -12.5 -2t-4.5 -10q0 -60 5 -119.5t5 -119.5q0 -8 -3 -13t-6.5 -9.5t-6.5 -9.5t-3 -12q0 -14 6.5 -21.5t17.5 -15.5v-244l-10 -10q-1 -1 -13.5 1t-18.5 4q-31 7 -60 18.5 t-57 24.5t-56 26.5t-58 24.5q-33 11 -72 15t-74 4q-47 0 -101.5 -13.5t-101.5 -41t-78 -69t-31 -96.5zM183 161v2q0 4 11 8t26 8.5l30 9t23 9.5h10q8 0 16.5 0.5t16.5 0.5h11q55 0 90 -8t64 -21t60 -29t78 -32q48 -17 93.5 -21.5t98.5 -2.5q-30 -35 -76 -50.5t-91 -15.5 q-43 0 -81 18t-75 35q-36 16 -73 32.5t-75 30t-77 21.5t-80 5zM581 240q-5 -12 -13 -22.5t-8 -24.5h8l6 6t14.5 14t17 17t13.5 15q20 22 36 55t20 62q1 2 1 15v20v17q0 14 -1 18q-9 36 -39 66.5t-61.5 60.5t-56.5 62t-25 71q0 11 5.5 27.5t14.5 31.5t21 26t25 11 q4 0 14 -13.5t26 -29t37.5 -29t50.5 -13.5t60 16t56 40.5t41 55t16 59.5q-7 0 -15.5 -11.5t-20 -25t-27 -24.5t-36.5 -11q-20 0 -34.5 8t-25.5 20t-20.5 27t-18.5 30q-1 1 -3 2t-2 3h-2h-3q-3 -2 -8.5 -8.5t-11.5 -13.5t-10.5 -13.5t-6.5 -8.5q-26 -23 -57.5 -36.5 t-60.5 -32.5q-24 -16 -44.5 -38t-35.5 -47.5t-23.5 -54.5t-8.5 -59q0 -38 14.5 -66t36.5 -51t48 -42.5t48 -41t36.5 -47.5t14.5 -60q0 -3 -1 -15.5t-1 -16.5zM517 427q0 1 -1 2l-1 1q0 1 1 1.5l1 0.5q0 1 1.5 3l1.5 2h3q5 0 8 -2.5t8 -2.5t7 2t3 5t3 5t7 2q10 0 18 -14 q-8 2 -16 1.5t-8 -11.5q0 -7 5.5 -13t13.5 -6q11 0 9 8.5t0 15.5q1 0 6.5 6t12.5 12.5t12.5 12.5t6.5 6q20 -16 29 -29t9 -39q0 -7 -4.5 -25t-11.5 -36.5t-14.5 -33t-13.5 -14.5h-3q-3 24 -11 43t-20.5 35t-28 31t-33.5 31zM586 380q0 -9 10 -9q9 0 9 9q0 10 -9 10 q-10 0 -10 -10zM527 496q6 0 16.5 -3t10.5 -12v-2l-10 -10q-17 11 -17 27z" />
<glyph unicode="M" horiz-adv-x="1495" d="M161 -35q0 -46 25.5 -81.5t64 -60t84 -37t84.5 -12.5q24 0 50.5 1t53 5.5t51 14t42.5 26.5q27 25 50 47.5t44 51.5q11 14 24.5 34t13.5 39q-7 0 -12.5 -6t-9.5 -14t-8 -16.5t-8 -12.5q-23 -32 -46.5 -56.5t-56.5 -47.5q-19 -13 -40.5 -19.5t-44.5 -9.5t-46.5 -3.5 t-44.5 -0.5q-35 0 -79.5 8t-85 26.5t-68 49.5t-27.5 77q0 25 9.5 45.5t25 36t36 26t42.5 16.5q4 1 13.5 1.5t20.5 0.5h20h14q41 0 73.5 -5t61.5 -16.5t55.5 -31t55.5 -47.5h9q2 4 8 12.5t13 18.5t13 18.5t9 11.5q0 1 4.5 6t10.5 12t12 13.5t10 10.5q6 6 17 14.5t22.5 18.5 t19.5 21t8 22h-6q-3 -2 -9 -7.5t-12.5 -11.5t-12.5 -11.5t-9 -6.5q-1 -2 -6.5 -5.5t-6.5 -4.5h-3q-8 0 -16 4.5t-16.5 11t-16 12.5t-14.5 9q-45 20 -89.5 31t-93.5 11q-46 0 -95.5 -19.5t-91 -52.5t-68.5 -76.5t-27 -91.5zM1123 271q9 -20 10 -42t8 -42q20 -67 61.5 -114 t107.5 -74h2h3q0 1 3.5 6.5t5.5 7.5q4 8 15.5 24t25.5 35t29 40t28 38t21 28.5t8 12.5h-10q-15 -17 -28 -32t-37 -15q-33 0 -55.5 20.5t-37.5 50t-22 62.5t-8 59v113q0 2 -2 12t-2 12v13v14q1 10 2 27.5t2.5 35.5t3 32.5t1.5 17.5q2 12 9 33t15 32q6 7 18 15t24 15.5 t21.5 15t9.5 15.5h-13q-1 0 -9 -3.5t-19.5 -9t-22.5 -11t-18 -8.5q-30 -16 -58 -41.5t-49.5 -57t-34.5 -67t-13 -71.5v-2q0 -11 0.5 -39t1.5 -59.5t1.5 -59.5t1.5 -39zM724 330q0 -45 20.5 -83.5t49 -73t60 -68t53.5 -68.5q1 -1 3 -5.5t4.5 -9t4.5 -9t2 -5.5t2 -2t3 -2h2 q2 0 11 11t19.5 25t20 27t13.5 17q3 4 14.5 18t25 30.5t26 32t18.5 22.5q5 7 8 11.5t3 12.5q-7 0 -16.5 -8.5t-19.5 -20.5t-19.5 -24t-16.5 -19h-3q-5 0 -10.5 6.5t-10 15t-8.5 16t-6 10.5q-2 2 -7 8.5t-12 15t-13.5 16t-9.5 11.5q-14 16 -29 30.5l-30 29t-30 30t-28 32.5 q-8 12 -13.5 26t-5.5 28q0 12 4.5 22t10.5 20t10.5 19.5t4.5 20.5h-11l-4 -4t-9.5 -9t-11 -10.5t-8.5 -9.5q-10 -11 -20.5 -27.5t-19.5 -34.5t-15 -36.5t-6 -34.5zM284 116v3v2q13 13 35.5 24.5t47 19.5t49 12.5t42.5 4.5q10 0 42 -6t66.5 -16t61.5 -24t27 -29v-2t-2 -3 q-2 -3 -11 -14t-11 -14q-3 -3 -6.5 -9.5l-7 -13t-8 -11t-8.5 -4.5q-5 0 -15.5 6.5t-22.5 15t-23 16t-17 10.5q-24 10 -42 18t-42 10q-9 0 -31 1t-46.5 1.5t-46.5 1t-31 0.5zM1139 313q8 0 13.5 -2.5t12.5 -2.5t11.5 5t12.5 5h3q2 -1 9.5 -7t9.5 -7h3h2q1 1 5 4.5t5 4.5h2h3 l1.5 -1.5t2.5 -3.5q2 -21 6.5 -44t13 -44.5t21 -41t29.5 -34.5q5 -4 13.5 -7t17.5 -6.5t16 -7t9 -7.5q-18 -20 -27.5 -40.5t-28.5 -38.5q-1 0 -2.5 -0.5t-2.5 -0.5q-5 0 -7 1t-7 5q-38 25 -61.5 49t-37.5 51t-23 59t-19 75q0 1 -1.5 6.5t-2.5 6.5q0 3 -1 12.5t-1 11.5z M747 316q0 3 2.5 16t6.5 26.5t8.5 24.5t8.5 11q2 0 5.5 -6.5t7 -15.5l7 -18t6.5 -13q7 -10 23.5 -26.5l37 -37t42 -43.5t39.5 -44t29.5 -39t11.5 -30v-5q-14 -15 -23 -27t-19 -29q-1 -1 -3 -2.5t-2 -2.5h-2q-5 0 -12 7.5t-13.5 17.5l-13 20t-10.5 16q-16 20 -39.5 43.5 t-45 49t-37 52.5t-15.5 55zM1187 247q0 -9 10 -9t10 9q0 10 -10 10t-10 -10zM223 436q0 -35 12.5 -66.5t34 -55.5t52 -38t66.5 -14q149 0 231 81.5t82 231.5q0 65 -18.5 119.5t-54 93.5t-88 61t-119.5 22q-57 0 -114.5 -9t-111.5 -24q-12 -11 -32.5 -10.5t-35.5 0.5h-26 q-19 8 -34.5 26t-16.5 40h-6q0 -53 16 -87.5t44.5 -54.5t68.5 -28.5t88 -8.5q42 0 82 5.5t81 5.5q49 0 80 -23t49 -58t24.5 -77.5t6.5 -81.5q0 -98 -46.5 -154t-146.5 -56q-15 0 -36.5 8t-41.5 20.5t-34 29t-14 33.5q0 4 1 8t6 4q10 0 18.5 -3t18.5 -3q31 0 54.5 18t23.5 51 q0 29 -12.5 47t-34.5 35h-27q-43 0 -66.5 -23t-23.5 -65zM1174 293q0 -5 3.5 -11.5t8.5 -6.5t8 6.5t3 11.5v1q-1 2 -4.5 5t-5.5 5h-1h-2q-2 -2 -5.5 -5t-4.5 -5v-1zM897 318v-12q11 0 30.5 17t39 39.5t34 45.5t14.5 36v89q0 34 -25 62.5t-55 55.5t-55 55.5t-25 61.5 q0 31 15.5 53t36.5 45v9h-14l-6.5 -7.5t-15.5 -18t-18.5 -21.5t-15.5 -18q-15 -20 -30 -49.5t-22 -48.5q0 -2 -1.5 -16t-2.5 -22v-2q0 -28 6.5 -51t17.5 -43t26.5 -39t33.5 -39q10 -11 22 -22t22.5 -24t18 -27.5t7.5 -31.5q0 -23 -10.5 -43t-27.5 -34zM1173 355q0 7 4.5 11 t9.5 4q16 0 16 -15q0 -14 -16 -14q-5 0 -9.5 4t-4.5 10zM607 520q10 2 17 8t16 6q10 0 16.5 -8.5t17.5 -8.5q0 -13 -4 -32t-7 -27q-5 -18 -17 -36.5t-25 -33.5q-5 -5 -13 -14.5t-13 -16t-6 -7.5h-6q0 21 9 40.5t11 40.5q0 5 0.5 17.5t1.5 26.5t1.5 27t0.5 18zM247 407v51 q0 10 7.5 18.5t18 15t21.5 10t19 3.5q10 0 19.5 -6t16.5 -15.5t11 -20t4 -19.5q0 -18 -17 -32.5t-33 -14.5h-16q-6 0 -18 1.5l-20 2.5t-9 1zM952 438q10 0 15.5 1.5t5.5 11.5q0 7 -3.5 12t-10.5 5q-8 0 -14 -5q-1 0 -1 3t3.5 9.5t8.5 6.5q2 0 2 -1q3 -1 13.5 -8t15.5 -10 q1 -1 2.5 -3t2.5 -2v-2q0 -3 -3 -11t-7.5 -16.5t-10 -15t-10.5 -6.5q-3 0 -5 4.5t-3 9.5t-1 10v7zM626 463q0 -9 9 -9q10 0 10 9q0 10 -10 10q-9 0 -9 -10zM626 508q0 -4 3.5 -10.5t8.5 -6.5t8.5 6.5t3.5 10.5v2q-1 1 -5 4.5t-5 5.5h-2h-3q-2 -2 -5 -5.5t-4 -4.5v-2z M934 522q0 4 1.5 8t7.5 4q9 0 11.5 -10t2.5 -16q-11 0 -17 1.5t-6 12.5zM626 571q0 5 4 10t10 5q5 0 10 -5t5 -10q0 -6 -5 -10.5t-10 -4.5q-6 0 -10 4.5t-4 10.5zM1000 805q17 0 31 -4.5t26.5 -11t24.5 -15t26 -16.5q30 -18 56 -23t61 -5q53 0 91 19.5t73 60.5 q13 14 24.5 34t11.5 40q-12 0 -19.5 -11.5t-16.5 -26t-23 -26t-39 -11.5q-14 0 -25.5 3.5t-21.5 9t-19.5 12.5t-21.5 13q-14 8 -24.5 13t-20.5 8.5t-20.5 7t-23.5 8.5h-103q-14 0 -39.5 -15.5t-50 -37t-43 -44t-18.5 -35.5q11 0 20 8.5t19.5 18t25.5 18t39 8.5z" />
<glyph unicode="N" horiz-adv-x="1239" d="M194 -31q0 -32 12.5 -58t33 -47t47 -36.5t53.5 -25.5q4 -2 11.5 -4.5t15 -4.5t13.5 -3.5t7 -1.5h121q28 0 59.5 13.5t60.5 34.5t53 45.5t38 46.5q3 5 9 14.5t10 15.5t5 7v12q-1 0 -3 -0.5t-2 -1.5q-11 -11 -20 -22l-18 -22t-19 -22t-23 -23q-1 -1 -5.5 -4.5t-10.5 -8 l-12 -9t-9 -6.5q-18 -14 -40 -21t-45 -10t-46 -3h-44t-45 0.5t-47.5 4t-45 11.5t-39.5 22q-23 21 -42 45t-19 57q0 42 15.5 68.5t40.5 40.5t57.5 19t67.5 5q69 0 123 -27.5t90 -85.5h4q5 0 5.5 0.5l4.5 4.5q21 24 41 43.5t41.5 38.5t44 38t47.5 40q4 2 11 9.5t7 8.5 q4 9 4.5 27t0.5 30q0 81 -2.5 162t-2.5 162v204q3 6 9.5 8t12.5 2q17 0 35 -12t32 -20q28 -17 59.5 -30.5t65.5 -13.5q28 0 60.5 13.5t61 36t47.5 51.5t19 59h-8l-5.5 -9t-9.5 -14q-13 -23 -26 -35.5t-40 -12.5q-23 0 -38.5 9.5t-35.5 19.5q-38 19 -77.5 37.5t-83.5 18.5 t-80.5 -20.5t-67.5 -49.5q-5 -4 -11.5 -13.5t-14.5 -19t-16 -17t-14 -7.5q-7 0 -14 7.5t-14 17.5t-14 20.5t-14 15.5q-45 35 -96 50.5t-107 15.5q-24 0 -52.5 -5t-57 -12t-55.5 -15t-49 -14q-14 -11 -37.5 -13t-40.5 -2q-35 0 -52.5 17t-33.5 44q-1 2 -2.5 3t-2.5 2v-17 q0 -29 11.5 -57t31.5 -50t46.5 -36t56.5 -14q31 0 62 3.5t62 8t62 8.5t62 4q48 0 80.5 -21.5t52 -55t28 -75t8.5 -81.5q0 -46 -14 -85.5t-40.5 -69t-64 -46t-84.5 -16.5q-32 0 -62 15.5t-50 41.5q-2 3 -6 10.5t-3 8.5l5 5q21 0 43.5 3t41 11.5t30.5 25t12 44.5q0 7 -6 18.5 t-15 22t-19 18t-17 7.5h-61l-3.5 -2t-5.5 -3q-15 -9 -24.5 -17.5t-14.5 -18.5t-6.5 -22.5t-1.5 -30.5q0 -33 14 -60.5t37 -48t53.5 -31.5t62.5 -11q77 0 135 23.5t97 66t58.5 102.5t19.5 133q0 33 -6.5 61t-15.5 59v2q0 13 9 25t22.5 21t28.5 14t26 5q3 0 7.5 -0.5l4.5 -0.5 l5 -28q-2 -131 1.5 -260t3.5 -260q0 -4 -1 -16.5t-1 -16.5q-2 -8 -9.5 -16t-12.5 -11q-6 -6 -16.5 -14t-20 -15.5t-17 -13t-8.5 -5.5h-14q-51 44 -105.5 64.5t-123.5 20.5h-52q-18 -11 -39 -18.5t-40 -15.5q-28 -12 -54 -30.5t-46.5 -42.5t-33 -53t-12.5 -62zM897 251 q1 -4 3 -16.5t2 -16.5v-22q5 -33 13.5 -58.5t21.5 -46.5t32 -39.5t45 -39.5q11 -8 22 -13t25 -5h10q27 41 64.5 81t70.5 74v12q-8 0 -15.5 -6.5t-15 -14t-17 -14t-21.5 -6.5q-32 0 -53.5 21.5t-31.5 49.5q-2 6 -5 16t-6 20.5t-5 18.5t-2 10v319q0 21 10.5 38.5t26 32 t33.5 26t33 19.5v10h-15q-1 0 -8 -3t-16 -7.5t-18 -9.5t-14 -8q-3 -2 -15.5 -11t-28 -20t-31 -22.5t-23.5 -17.5q-11 -8 -23.5 -22t-23 -31t-17.5 -35t-7 -33v-230zM915 294q6 0 12.5 -3t12.5 -3q8 0 11.5 5.5t11.5 5.5h5q2 -1 9.5 -7t9.5 -8h2h3q1 2 6.5 8t6.5 7h2h3 q-2 -54 13.5 -103.5t56.5 -85.5q2 -2 7.5 -3t11 -3t10 -4t4.5 -5v-3q-3 -3 -9.5 -11.5t-14 -18.5t-14 -18.5t-9.5 -12.5q-5 -5 -6.5 -7t-7.5 -2q-7 0 -9.5 2t-8.5 7q-38 29 -59 52t-33 48.5t-17 58t-9 80.5q0 3 -0.5 12t-0.5 12zM335 120v2q0 4 15.5 12.5t35.5 17t40 14.5 t28 6q24 0 53.5 -3t58.5 -11t54.5 -21.5t42.5 -34.5q2 -4 5.5 -9l3.5 -5l-61 -62q-25 31 -57 50t-68 29.5t-74.5 13t-76.5 1.5zM958 228q0 -10 10 -10q9 0 9 10t-9 10q-10 0 -10 -10zM948 272q0 -3 3.5 -9.5t8.5 -6.5q6 0 9 6.5t3 9.5v3l-9 9h-3h-2l-4.5 -4.5t-5.5 -4.5v-3z M948 336q0 5 4 9.5t11 4.5q6 0 10 -4.5t4 -9.5q0 -14 -14 -14q-15 0 -15 14zM623 425v98q11 1 18.5 8t17.5 7h4l24 -24v-4q0 -25 -7.5 -48.5t-20.5 -45t-29 -40.5t-32 -35l-0.5 0.5t-0.5 1.5q0 8 2.5 19.5t6 23t8 22.5t9.5 17zM256 403q0 30 19 52.5t51 22.5q6 0 16.5 -5.5 t20 -13.5t17 -17t7.5 -17q0 -16 -9.5 -27t-23 -17.5t-28.5 -9.5t-26 -3h-31q-7 5 -10 16.5t-3 18.5zM644 467q0 -10 9 -10q11 0 11 10q0 9 -11 9q-9 0 -9 -9zM644 511q0 -4 3.5 -10.5t8.5 -6.5t8.5 6.5t3.5 10.5v3l-5 5t-5 4h-2h-3l-4 -4t-4 -5l-0.5 -1t-0.5 -2zM644 575 q0 6 4.5 10t9.5 4q14 0 14 -14q0 -15 -14 -15q-5 0 -9.5 4t-4.5 11z" />
<glyph unicode="O" horiz-adv-x="936" d="M205 32q0 -57 19.5 -101t54 -74.5t82 -46t102.5 -15.5q46 0 90.5 18.5t82 49.5t65 71.5t38.5 84.5q1 1 1 2v1q0 2 -1 2q0 1 -2 3l-2 2h-2q-3 0 -10 -11.5t-15 -27t-16 -30t-13 -20.5q-23 -25 -43.5 -40t-42 -25.5t-45.5 -18.5t-53 -19h-44q-41 0 -81.5 8.5t-72.5 28.5 t-52.5 52t-20.5 80q0 6 -0.5 15t0.5 17.5t5 14t13 5.5q24 0 48 -14t47 -20q36 -10 74 -17t76 -7q54 0 113 18t112.5 49.5t94.5 75.5t59 97q9 27 16 50t11.5 45.5t7 46t2.5 52.5q0 160 -76 264t-233 142q-45 11 -91 15t-92 13q-6 1 -14 2.5t-15.5 5t-12.5 9t-5 13.5 q0 7 3.5 11.5t7.5 9t7.5 9.5t3.5 12q-17 0 -37 -6t-37 -17.5t-29 -27.5t-12 -36q0 -28 9.5 -48.5t26 -35t39 -23.5t47.5 -14q6 -2 28.5 -6t48.5 -8.5t48.5 -9t28.5 -5.5q2 0 9 -2t15.5 -4t16 -4t10.5 -3q57 -18 98 -59.5t62 -95.5q13 -32 21 -66t8 -68q0 -74 -17.5 -142.5 t-55 -122t-96.5 -85.5t-141 -32q-26 0 -55 4t-57 14t-53 25t-41 38v4q0 8 6.5 14t15.5 10.5t18.5 6.5t15.5 2q32 0 60 -13t48 -39h10q16 0 38 15.5t43 38t37.5 46.5t21.5 41q0 2 2 11.5t4 21.5t4 23.5t3 18.5l1 3.5t1 5.5q0 29 -7.5 56t-21.5 52l-13 13l-19.5 19.5l-20 20 l-13.5 13.5q-10 9 -22.5 19t-23 21t-18 23.5t-7.5 28.5q0 32 19.5 56t41.5 44q1 0 1 1v1q0 7 -9 7q-8 0 -21 -7.5t-18 -11.5q-21 -18 -39.5 -38.5t-32.5 -44t-22.5 -49.5t-8.5 -55q0 -33 13.5 -61.5t34 -53t44.5 -46.5t44.5 -42t34 -39.5t13.5 -38.5q0 -8 -3 -19.5t-8.5 -22 t-13.5 -17.5t-18 -7q-4 0 -11.5 4.5t-15.5 10.5t-14.5 11t-9.5 6q-16 8 -36 11.5t-37 3.5q-32 0 -55.5 -16t-50.5 -31h-2q-5 0 -10.5 7.5t-10.5 16.5t-9 17.5t-5 10.5q-2 4 -5.5 13l-7 18t-6.5 16t-4 9q-1 4 -3.5 11.5t-4.5 16t-4 15.5t-2 9q-1 7 -3 27t-4 43t-4 44.5 t-3 30.5v38q0 29 2.5 56t11.5 56q1 4 5 12t7.5 16.5t5.5 17t1 14.5q3 5 13.5 19t14.5 19q2 3 12 10.5t21 15.5t19.5 15t8.5 8v3q-1 0 -4.5 1.5t-5.5 3.5h-2q-6 0 -16 -3.5t-20.5 -8.5t-19 -10t-12.5 -7q-32 -19 -61 -45.5t-53 -58t-41 -67.5t-23 -73v-51q0 -56 8 -97.5 t26 -76t46.5 -66.5t69.5 -69l6.5 -6.5t10 -9.5t9.5 -10t6 -7v-5q0 -10 -4.5 -19t-4.5 -20zM50 396q0 5 5 10t12 8.5t14 5.5t12 2h5q1 -1 9 -7t9 -7h2q6 0 8.5 5.5t8.5 5.5q8 0 15 -11q2 -50 6.5 -95.5t20.5 -91.5q4 -13 10 -30t14 -33t18.5 -29.5t23.5 -19.5q5 -2 5 -6v-8 v-8t-5 -7q-1 2 -3 3t-2 2q-11 17 -26 30t-30 27q-29 26 -53 54t-41.5 59t-27.5 66t-10 75zM435 127h5q10 0 10 -11q-5 0 -8.5 3.5t-6.5 7.5zM805 329q9 2 16.5 8t16.5 6h4q5 -4 14.5 -11t9.5 -8v-10l-3 -8.5t-6.5 -19.5t-7.5 -22.5t-7 -18.5q0 -2 -3.5 -9.5t-4.5 -9.5 q-3 -4 -7.5 -10.5t-9 -13.5t-8 -12t-4.5 -6q-6 -6 -15 -16t-18 -19t-16 -15.5t-8 -6.5h-4q26 48 41 98t20 104zM406 146h5q9 0 10 -4h-15v4zM426 371q0 3 5 6.5t11 6.5t12 4.5t9 1.5h5q2 -1 9.5 -7t9.5 -7h2h3l6.5 6.5t12.5 11.5t14.5 10.5t12.5 4.5q10 0 17.5 -13t12 -29.5 t6.5 -32.5t2 -23q0 -9 -1 -21.5t-3.5 -25t-7 -23t-12.5 -15.5q-6 2 -6 8t-3 11q-7 9 -26 27.5t-39.5 38t-36 36.5t-15.5 24zM814 263q0 -10 10 -10t10 10q0 9 -10 9t-10 -9zM824 317q0 -4 3 -10.5t8 -6.5t8.5 6.5t3.5 10.5v2q-1 2 -4.5 5.5t-5.5 4.5h-2h-1q-2 -1 -5.5 -4.5 t-4.5 -5.5v-2zM486 334q0 -10 9 -10q11 0 11 10q0 9 -11 9q-9 0 -9 -9zM88 348q0 -10 10 -10t10 10t-10 10t-10 -10zM448 364q0 -4 3.5 -10.5t8.5 -6.5q6 0 9 6.5t3 10.5v2q-1 2 -4 5l-5 5h-3h-2q-1 -2 -4.5 -5t-5.5 -5v-2zM823 380q0 7 4.5 11t9.5 4q16 0 16 -15 q0 -14 -16 -14q-5 0 -9.5 4t-4.5 10zM79 397q0 -5 3.5 -11t8.5 -6t8.5 6t3.5 11v3q-1 1 -5 4t-5 4l-2 1q-1 0 -2 -0.5l-1 -0.5q-2 -1 -5 -4l-4 -4v-3zM448 427q0 15 15 15q14 0 14 -15q0 -14 -14 -14q-15 0 -15 14zM79 460q0 14 14 14q5 0 10 -4t5 -10t-5 -10.5t-10 -4.5 q-6 0 -10 4.5t-4 10.5z" />
<glyph unicode="P" horiz-adv-x="1148" d="M233 5q0 -59 30 -101.5t76 -70t101.5 -40.5t106.5 -13q43 0 83.5 12t76.5 33t68 49.5t58 60.5q12 14 28 27t16 33h-6l-6.5 -6.5t-14 -13.5t-12.5 -12q-31 -34 -62 -61.5t-73 -46.5q-23 -9 -47 -14t-47 -14h-13q-8 0 -18 -0.5t-19 -0.5h-11h-16t-19.5 0.5t-17.5 0.5h-8 q-6 0 -19.5 2t-29.5 4.5t-30 4.5t-20 4q-25 8 -50 21.5t-45 31.5t-32.5 42t-12.5 53v26q0 15 5 26q10 25 33.5 44t52.5 31.5t59.5 18.5t55.5 6q45 0 86 -13t83 -31q13 -6 32 -22t36.5 -33t31.5 -30t17 -13h5q4 5 16 17l25.5 25.5l25.5 25.5l17 17q10 9 31 23.5t42.5 30 t38 30t16.5 22.5q-12 0 -25.5 -7.5t-27 -17t-26 -19.5t-21.5 -15q-1 0 -1.5 -0.5l-0.5 -0.5q-1 0 -1.5 0.5l-0.5 0.5q-2 0 -3.5 2l-1.5 2q0 6 -1 21.5t-2 32.5t-1.5 32.5t-0.5 21.5v15q0 10 3.5 17.5t8 14t8.5 14t4 17.5q0 11 -2.5 20t-16.5 14v70l5 5q4 0 15.5 -0.5 t23.5 -0.5q13 0 24 0.5t16 0.5q32 4 65.5 26t60.5 53t44 66.5t17 67.5q0 45 -21 80t-53 63q-10 8 -18.5 14t-15 12.5t-10.5 15t-4 21.5q0 15 6 22.5t13.5 13.5t13.5 12.5t6 17.5q-20 0 -38.5 -9t-38.5 -17q-74 -32 -137.5 -74.5t-123.5 -99.5h-5q-2 0 -13 14t-23.5 31 t-25 33t-17.5 21q-18 15 -40.5 26.5t-47 19t-49.5 11.5t-47 4q-54 0 -107.5 -7.5t-107.5 -16.5q-23 -4 -40.5 -9t-43.5 -5q-5 0 -19 0.5t-18 0.5q-13 1 -22.5 8t-15.5 16.5t-9.5 21.5t-3.5 23h-3h-2q-1 0 -3 -1.5t-2 -2.5v-23q0 -33 11 -63t31.5 -52.5t48.5 -36t63 -13.5 q54 0 105.5 6.5t105.5 3.5q5 5 10 5h10q19 0 41.5 -5.5t36.5 -18.5q56 -47 77.5 -103.5t21.5 -128.5q0 -97 -52.5 -145.5t-149.5 -48.5q-16 0 -34.5 6t-34.5 17t-26.5 25.5t-10.5 31.5h78q11 0 20.5 7t16.5 16.5t11 21t4 20.5q0 39 -22 59.5t-60 20.5q-48 0 -70 -26t-22 -72 q0 -29 13.5 -55.5t36 -46.5t50.5 -31.5t57 -11.5q78 0 135.5 23t96 65.5t57 102.5t18.5 134v59q-9 13 -9 32v10q14 15 35.5 35t38.5 34l12.5 10t15 11l13.5 9l6 4h5v-136q1 -1 3 -4.5t2 -4.5q0 -19 -11.5 -30.5t-26 -23t-26 -25.5t-11.5 -39q0 -19 11.5 -35.5t26 -29.5 t26 -20.5l11.5 -7.5v-80q-2 -1 -5.5 -4.5t-7 -8t-6.5 -9t-4 -6.5l-0.5 -5t-0.5 -7q0 -10 1.5 -14t4 -6.5t6 -5.5t7.5 -9q9 -23 10 -42t1 -42q0 -5 -1 -21t-1 -21q-1 -4 -3 -11.5t-9 -7.5h-2q-46 34 -86.5 56.5t-95.5 37.5h-57q-50 0 -102 -10.5t-99 -33.5t-84.5 -58.5 t-59.5 -85.5q0 -4 -1 -18t-1 -19zM548 -196h5v-4h-5v4zM412 164v3q0 11 22 19.5t50 14t52 8t29 2.5q15 0 34.5 -1t32.5 -4q26 -5 47.5 -15t41 -22t39 -25.5t41.5 -25.5q1 -2 6.5 -3t7.5 -2v-3v-2q-3 -4 -14 -14.5t-23 -22t-22.5 -20.5t-13.5 -9h-2q-71 67 -150 94.5 t-178 27.5zM829 314q3 6 10 6q0 -8 -6 -10zM619 516q5 6 12 12.5t15 6.5q1 0 3 -0.5l2 -0.5q2 -1 9.5 -7t9.5 -7h1h3q1 1 3 2.5l2 1.5q1 2 2 2h2v-6q0 -2 -2.5 -12.5t-6 -23l-7 -25t-6.5 -19.5q-2 -1 -10.5 -15t-13.5 -22q-2 -3 -5.5 -8.5t-8 -11.5t-10 -10.5t-9.5 -4.5v6 q0 2 1.5 8.5t3.5 13.5t3.5 13.5t1.5 8.5q0 5 1 19t2 29.5t1.5 29.5t0.5 20zM272 389q-5 2 -7.5 9t-2.5 12q0 15 5.5 28.5t15 24.5t23 17.5t29.5 6.5q5 0 11 -0.5t10 -4.5l37 -37q1 0 1 -4v-5q0 -9 -4.5 -19t-11.5 -18.5t-16.5 -14t-18.5 -5.5h-5q-4 0 -13.5 1.5t-20 3.5 t-20 3.5t-12.5 1.5zM632 460q0 -10 9 -10q10 0 10 10q0 9 -10 9q-9 0 -9 -9zM848 464q8 13 19 18t21.5 11t18 17t7.5 36q0 22 -11 36.5t-24.5 23.5t-24.5 14.5t-11 11.5v173q0 4 13 13t29.5 18t32 15.5t19.5 6.5q1 0 4.5 -0.5t4.5 -0.5q-11 -23 -22 -50.5t-11 -54.5 q0 -39 15.5 -65.5t34 -49t34 -45.5t15.5 -54q0 -24 -10.5 -41t-28 -27.5t-38.5 -15t-42 -4.5q-11 0 -24.5 1t-20.5 13zM632 509q0 -5 3.5 -11t8.5 -6t8.5 6t3.5 11v2q-1 1 -5 4t-5 5l-0.5 0.5t-1.5 0.5l-3 -1q-1 -2 -4.5 -5t-4.5 -4v-2zM632 571q0 15 14 15q15 0 15 -15 q0 -5 -4 -9.5t-11 -4.5q-6 0 -10 4.5t-4 9.5z" />
<glyph unicode="Q" horiz-adv-x="975" d="M229 0q0 -50 21 -88t55.5 -64.5t78.5 -40t91 -13.5q63 0 112.5 29t86.5 79q6 8 14.5 21.5t8.5 22.5v2q0 2 -2 3t-3 2h-2h-3q-14 -30 -36 -52t-49 -36.5t-57.5 -21.5t-61.5 -7q-30 0 -62.5 3t-62.5 12.5t-55.5 27t-41.5 45.5q-2 4 -5 10.5t-6 12.5t-5 11l-2 5v69 q0 7 3.5 13.5t9.5 6.5q16 0 31.5 -9.5t30.5 -14.5q41 -12 79.5 -20.5t82.5 -8.5q5 0 19.5 0.5t19.5 0.5q23 10 51 15.5t52 12.5h5q9 0 20.5 -5.5t25.5 -11.5t29.5 -11.5t31.5 -5.5q60 0 109 27.5t79 81.5l6 12t7.5 15.5t6.5 13t3 6.5v14q-7 0 -14.5 -12.5t-19 -27.5 t-27.5 -27.5t-40 -12.5q-6 0 -20 2t-29 5t-26 7.5t-11 10.5v3q76 65 120 151t44 187q0 106 -29 181t-83 125.5t-131.5 80t-173.5 44.5q-6 0 -23.5 3t-38.5 7t-40.5 7.5t-28.5 5.5q-12 2 -27 11t-15 23q0 11 8 19t8 19q-15 0 -22.5 -6.5t-17.5 -14.5q-14 -12 -23.5 -21.5 t-16 -21t-9.5 -25.5t-3 -33q0 -28 15.5 -47t40.5 -31t56.5 -18.5t62.5 -10.5t59.5 -6t47.5 -5q35 -7 72 -20.5t69 -31.5q36 -22 61 -55.5t40.5 -72.5t22.5 -81t7 -81v-39q-1 -9 -3 -31.5t-4 -47.5t-4.5 -47.5l-3.5 -31.5q-2 -11 -8 -22.5t-15 -21.5t-20 -16t-23 -6 q-7 0 -11 2t-12 7q-1 1 -6.5 4.5t-11.5 7.5t-12 7.5t-7 3.5q-5 3 -14 8t-19 10t-18 9.5t-10 6.5q-14 6 -30 9.5t-31 8.5h-121q-21 0 -44 -13t-43.5 -29t-36.5 -29t-22 -13q-3 0 -5 0.5t-4 4.5l-7 10.5t-10.5 16t-10 15.5t-5.5 9q-21 36 -34 75.5t-20 81t-9.5 83t-2.5 82.5 q0 50 17 102t49 91q5 6 14 12t17.5 12.5t15 14t6.5 15.5q-19 0 -40.5 -10.5t-36.5 -19.5q-93 -62 -137.5 -142.5t-44.5 -189.5q0 -116 71 -207q4 -5 16.5 -18t27 -27.5l27 -27t18.5 -16.5q2 -2 9 -6t14.5 -9t13 -11t5.5 -13q0 -16 -2.5 -30t-2.5 -29zM416 178v2q0 6 12 11.5 t16 5.5h85q33 -13 61 -23t60 -29q11 -7 26 -18.5t31 -23.5t31.5 -21.5t29.5 -11.5q4 -1 15.5 -2.5t24 -3t23.5 -3t16 -1.5v-1q0 -9 -15 -17t-34.5 -14.5t-37.5 -10.5t-24 -4q-13 0 -27 4.5t-28 11l-28 13t-26 10.5q-1 0 -3 1.5t-2 2.5q-12 19 -38 40t-57 38.5t-61.5 29.5 t-49.5 14zM295 108q-1 0 -1 2v2q0 7 6.5 14t15.5 12.5t18.5 9.5t15.5 7q5 0 18 0.5t18 0.5q6 0 20 -0.5t15 -0.5q3 -1 11 -4t17.5 -7t18.5 -7.5t14 -5.5q2 -1 10 -6.5t18.5 -12.5t20.5 -13.5t16 -9.5q2 -2 10.5 -7.5t18 -12.5t17 -14t7.5 -11q0 -6 -12.5 -11t-29 -8t-33 -5 t-24.5 -2q-27 0 -55.5 6.5t-56.5 18t-52 28t-42 37.5zM54 437q8 0 12.5 -3t12.5 -3q7 0 11.5 4.5t12.5 4.5h3q2 -1 10 -7t10 -7h2h2l15 19h5q5 -69 19 -142t50 -135q1 -2 5.5 -9t10 -15.5t10.5 -16t7 -11.5q3 -5 9.5 -6.5t9.5 -6.5q3 -8 3.5 -10.5t0.5 -4.5q0 -1 2 -4t8 -10 q-2 0 -6.5 -0.5t-5.5 -0.5q-7 0 -9 0.5t-3.5 2t-4 4.5t-8.5 9q-53 44 -89.5 78.5t-60 71.5t-34 83.5t-10.5 114.5zM861 366q8 0 13.5 -7t5.5 -15q0 -9 -3.5 -25t-15.5 -19q-1 -1 -4.5 1.5t-4.5 2.5q0 1 -2 1h-3q-10 0 -10 -10q0 -9 6.5 -10.5t14.5 -1.5q0 -6 -5 -16.5 t-11.5 -21.5t-14.5 -19t-14 -8q0 2 0.5 3.5t0.5 2.5q1 8 2 31.5t5 48t13 43.5t27 19zM490 262q-10 -11 -10 -27q20 0 38.5 19t32 44.5t21.5 51.5t8 41q0 20 -4 45.5t-20 41.5l-116 116v66q0 11 7.5 19.5t16 16t16 13.5t7.5 12q0 10 -7 10q-11 0 -24 -10t-21 -14 q-19 -18 -37 -36t-31.5 -38t-22 -43t-8.5 -51q0 -30 11.5 -53.5t29 -43t37.5 -36.5t37.5 -35t29 -38t11.5 -45v-13t-2 -13zM510 344q7 0 13 1.5t6 9.5q0 10 -10 10q-6 0 -9 -4.5t-5 -10.5q-3 3 -10.5 12t-7.5 12q0 2 4 5.5t4 4.5q1 1 3 4.5t2 5.5l0.5 0.5t0.5 1.5l-1 1 q-1 2 -4.5 5.5t-5.5 4.5l-1 1q-9 0 -11 -7.5t-6 -11.5l-2 -1l-2 1q-3 2 -10.5 9t-9.5 9q0 1 -1 1v1q17 0 24.5 6t20.5 6h3q2 -1 9.5 -7t9.5 -7h3h2l23 24h2q5 0 8.5 -4.5t5.5 -11t2.5 -13t0.5 -10.5q0 -7 -4 -21.5t-10.5 -29.5t-14.5 -26t-15 -11h-3q-1 5 -2 17t-2 16v7z M847 340q0 -5 3.5 -11t8.5 -6t8.5 6t3.5 11v2q-1 1 -5 4.5t-5 3.5q0 2 -1 2h-1q-3 0 -3 -2q-1 0 -4.5 -3.5l-4.5 -4.5v-2zM97 370q0 -10 9 -10q11 0 11 10q0 9 -11 9q-9 0 -9 -9zM482 384q4 0 4 -5t-4 -5t-4 5t4 5zM477 389q4 0 4 -5t-4 -5t-4 5t4 5zM847 402q0 6 4 11t10 5 q7 0 11 -5t4 -11q0 -5 -4 -9.5t-11 -4.5q-6 0 -10 4.5t-4 9.5zM88 414q0 -4 3.5 -10.5t8.5 -6.5t8.5 6.5t3.5 10.5q0 1 -0.5 1.5l-0.5 0.5q-1 2 -4 5.5t-4 4.5h-3h-2q-2 -1 -5 -4.5t-5 -5.5v-2zM476 458q0 7 4.5 11t9.5 4q16 0 16 -15q0 -5 -4.5 -9.5t-11.5 -4.5 q-5 0 -9.5 4.5t-4.5 9.5zM87 478q0 14 16 14q5 0 9.5 -4t4.5 -10q0 -7 -4.5 -11t-9.5 -4q-16 0 -16 15z" />
<glyph unicode="R" horiz-adv-x="1317" d="M201 -10q-2 -36 21 -70t57.5 -60t74 -41.5t71.5 -15.5h140q33 0 66 16t63 40t56 52t45 52q1 1 2.5 6.5t1.5 6.5t1 3l1 2h-11q-17 -23 -40.5 -48t-51 -45.5t-58 -34t-60.5 -13.5h-165q-25 0 -59.5 12t-66 32t-53.5 46.5t-22 55.5q0 37 19 60.5t47.5 37t61 19t60.5 5.5 q73 0 135 -26.5t112 -81.5q2 0 3.5 -0.5l1.5 -0.5q8 0 6.5 2t3.5 9q20 21 38 37t41 32q6 4 22 15t34 23l34.5 23l22.5 15q4 5 6.5 13.5t2.5 13.5v212q0 1 0.5 5.5t1.5 9.5l2 10t1 7q0 1 2 3t3 2q17 5 28 7t26 2q22 0 29.5 -15.5t10.5 -35.5q1 -9 3.5 -33t5.5 -51.5t5.5 -53 t3.5 -36.5q2 -23 4 -44.5t10 -44.5q9 -23 21.5 -39.5t28.5 -30.5t34 -26t38 -25q6 -4 8.5 -4.5t8.5 -0.5q7 0 9 1t7 9q1 1 7 9.5t13 18t13.5 18t8.5 10.5q2 3 12.5 13t22.5 21.5t22.5 22l13.5 13.5q5 5 13.5 16t8.5 12v9h-9q-13 -14 -28.5 -30.5t-37.5 -16.5q-25 0 -41 15 t-26 39t-16 53.5t-12.5 59t-14.5 55t-21 41.5q-19 23 -47.5 38.5t-54.5 27.5h-1v1q0 5 10.5 11t24.5 12.5l28 13t22 12.5q18 16 30 36.5t30 34.5q5 11 8 19t5 14.5t2.5 13.5t0.5 17q0 20 -6.5 45.5t-17.5 40.5l-62 74q0 2 -0.5 9t-0.5 11q0 15 6 25t12.5 18.5t12.5 16 t6 18.5q-14 0 -37 -8t-47.5 -19.5t-46.5 -23t-35 -18.5q-6 -3 -17 -9.5t-21.5 -12.5t-18.5 -10.5t-9 -4.5q-40 -27 -73 -63.5t-68 -68.5q-12 9 -19 23t-12.5 29t-12 30t-17.5 26q-26 26 -52 46.5t-53.5 34t-59 20.5t-69.5 7h-37q-7 -1 -25 -3.5t-38.5 -5.5t-38.5 -6t-25 -4 q-32 -8 -61 -16t-64 -8q-26 0 -42 9t-26.5 19.5t-16.5 19.5t-12 9q0 -40 14 -73.5t38.5 -58t58.5 -38t75 -13.5h3q1 1 7 3t8 2q4 1 13 2t19.5 2.5t19.5 3t12 1.5q19 2 33 3t27.5 1.5t26.5 0.5h31h47q39 -15 64 -40.5t39 -57.5t19 -68.5t5 -74.5v-13v-19t-0.5 -19t-0.5 -13 q-5 -50 -32.5 -91t-74.5 -59q-6 -2 -20 -5t-22 -8q-4 -1 -14 -1h-12q-20 0 -45.5 6t-48 18.5t-38.5 31t-16 43.5q0 3 1 6.5t6 3.5q12 0 24.5 -5.5t24.5 -5.5q33 0 52 20t19 52t-21.5 55.5t-53.5 23.5q-49 0 -69 -29t-20 -75q0 -36 16.5 -65t42.5 -50t58.5 -32t65.5 -11 q57 0 110 21t94 58t68 86t32 106q0 7 1 24t2 36.5t1.5 37t0.5 24.5q4 5 7.5 11t5.5 12l71 71q5 5 14 12t10 6l3 -4q1 0 1.5 -6t1.5 -14.5t1.5 -17t0.5 -13.5q0 -2 -0.5 -7.5t-0.5 -12.5t1 -13.5t5 -10.5l-5 -158q0 -3 -3 -7.5t-5 -6.5h-48q-7 -2 -15 -6t-8 -12q0 -4 2 -11 t5 -13.5t7 -11.5t9 -5h61v-241q0 -1 -3 -4.5t-7.5 -8t-9.5 -8.5t-8 -7q-3 -2 -12 -8.5t-19.5 -13t-19.5 -11.5t-12 -5q-6 0 -19 8.5t-27.5 19t-28 20.5t-21.5 13q-36 15 -77.5 22t-79.5 7q-44 0 -96.5 -14t-98 -41t-77 -66.5t-34.5 -90.5zM995 324q8 0 10.5 -5.5t9.5 -5.5 q8 0 12 5.5t11 5.5q1 0 3 -0.5l2 -0.5q2 -1 9.5 -6.5t9.5 -6.5q0 -2 3 -2h1t1 2l13 18h3q7 0 11 -11.5t5 -16.5q6 -24 9.5 -50.5t10 -51t18.5 -47t33 -38.5q1 -1 9 -5t9 -5l0.5 -1.5t0.5 -3.5q0 -3 -7 -14t-17 -22.5t-19.5 -20.5t-13.5 -9h-5q-44 26 -77 62.5t-39 87.5 q-1 7 -3 25t-4.5 37.5t-4.5 36.5t-3 24q0 2 -0.5 9.5t-0.5 9.5zM341 128v3q0 1 5 4t12.5 6.5t15.5 7.5t14 6q11 4 26 9t31.5 9t32.5 6.5t29 2.5q50 0 104.5 -17t94.5 -47l7.5 -7.5t6.5 -7.5v-2q0 -3 -10 -12.5t-22 -20t-23 -18.5t-13 -8h-3q-39 31 -73 48t-69.5 25.5 t-75.5 10.5t-90 2zM1033 253q0 -9 10 -9t10 9q0 10 -10 10t-10 -10zM1024 298q0 -5 3.5 -11t8.5 -6t8.5 6t3.5 11v2l-4.5 4.5l-5.5 5.5h-2h-3q-1 -2 -4 -5.5t-4 -4.5zM622 482q8 -2 12.5 -1t7.5 3.5t7 5t10 2.5q12 0 20.5 -8.5t8.5 -19.5q0 -7 -9.5 -26t-23 -39.5 t-27.5 -36.5t-22 -16q0 34 8 66t8 70zM1024 360q0 6 4.5 11t9.5 5q7 0 11 -5t4 -11q0 -5 -4 -9.5t-11 -4.5q-5 0 -9.5 4.5t-4.5 9.5zM261 389q-5 1 -5 5v8q0 14 4.5 28.5t13 26t21 18.5t28.5 7q23 0 39 -18.5t16 -41.5q0 -18 -15.5 -30.5t-33.5 -12.5q-17 0 -33.5 4.5 t-34.5 5.5zM640 426q0 -10 9 -10q10 0 10 10t-10 10q-9 0 -9 -10zM645 466q0 -4 3.5 -10.5t8.5 -6.5t8.5 6.5t3.5 10.5v2l-10 10h-2h-3q-1 -2 -4.5 -5t-4.5 -5v-2zM861 479v284q0 8 23 23.5t53 30.5t58.5 26t39.5 11q0 -7 -4.5 -15.5t-10.5 -16t-11.5 -13.5t-7.5 -9 q-20 -27 -31 -53.5t-11 -61.5q0 -21 11 -36.5t24.5 -30t24.5 -29.5t11 -35q0 -14 -7 -28.5t-18.5 -26t-26 -19t-29.5 -7.5h-69zM645 529q0 7 4.5 11t9.5 4q14 0 14 -15q0 -14 -14 -14q-5 0 -9.5 4t-4.5 10z" />
<glyph unicode="S" horiz-adv-x="917" d="M190 -211q48 -13 92 -20.5t93 -7.5h34q6 4 16 7t21.5 5.5t22 3.5t16.5 3q60 17 110 58t87 91q3 6 8.5 14.5t11 16.5t9 14.5l3.5 6.5v11q-3 0 -18.5 -17.5t-35.5 -40t-40 -44.5t-33 -30q-44 -30 -96 -48t-106 -18q-26 0 -61 3t-72.5 10.5t-74 20.5t-65.5 32.5t-46.5 47 t-17.5 64.5q0 38 18 62.5t45.5 38.5t61 19.5t64.5 5.5q28 0 58.5 -7t59 -20t53.5 -31t43 -40h5q16 26 42.5 45.5t58 35.5t67 29.5t70 27.5t66.5 29.5t57 34.5q4 7 6.5 10.5t5.5 5.5t6.5 5.5t9.5 10.5q26 32 36.5 69.5t10.5 75.5q0 53 -19 91t-51 63t-74.5 36.5t-89.5 11.5 h-42q-32 -13 -67 -24.5t-69 -22.5h-2h-3q-1 0 -2.5 2t-1.5 3q0 20 0.5 45.5t0 52.5t-1.5 53.5t-4 49.5l-2 2t-3 2q0 1 -2 1h-2q-1 0 -1 -1q-1 0 -4.5 -3.5l-4.5 -4.5v-29q0 -45 2 -90t2 -90q0 -11 -12 -21.5t-28.5 -19t-34 -13.5t-27.5 -5q-40 0 -64.5 22t-38.5 54.5 t-19 69.5t-5 68q0 40 18 67t46.5 45t62 29t65.5 19l2 1t3 1t2.5 -1t2.5 -1q18 -19 34.5 -34t34.5 -25t39.5 -15t48.5 -5q22 0 52.5 14.5t57.5 36.5t46 47.5t19 46.5q-9 0 -18.5 -11.5t-22.5 -26t-30.5 -26t-42.5 -11.5q-33 0 -53 13.5t-33 29t-20 29t-14 13.5q-6 0 -13.5 -5 t-14.5 -11t-14.5 -12t-13.5 -9t-17.5 -7.5t-22.5 -9t-20 -8.5t-11 -4q-51 -15 -106.5 -29.5t-101.5 -39t-76 -65.5t-30 -110q0 -48 18.5 -79.5t49 -50.5t69.5 -26.5t79 -7.5h10q7 0 14 0.5t12 0.5h7t7.5 1.5t14.5 4t16 4.5t13 3q14 6 25.5 17.5t25.5 11.5q7 0 10 -4.5t4 -11 t0.5 -13t-0.5 -10.5q0 -15 -0.5 -27t-3.5 -22t-9.5 -19.5t-18.5 -19.5q-3 -3 -9.5 -5l-13 -4t-11.5 -4.5t-5 -6.5q0 -2 1 -2.5l1 -0.5q1 -5 5.5 -6t9.5 -0.5t9.5 1.5t7.5 0q15 -2 23 -15.5t11.5 -31t3.5 -35.5v-26v-7t-0.5 -11t-0.5 -12v-7l-5 -5h-2h-2q-1 1 -5.5 2.5l-9 3 t-8.5 3t-5 1.5q-19 5 -39 7.5t-40 2.5q-37 0 -73 -7t-68 -27q-31 -18 -60.5 -36.5t-52.5 -41t-37 -51.5t-14 -69q0 -32 14 -60t36 -51t50 -40.5t55 -29.5zM211 122q-12 0 -20.5 -3.5t-21.5 -3.5q0 8 6 11q38 23 78.5 39.5t86.5 16.5h5l102 -22q6 -8 17.5 -16.5t23.5 -17 t20.5 -17t8.5 -15.5v-5l-61 -42h-9q-107 75 -236 75zM475 168q0 6 -1 20t-1.5 29.5t-1 29.5t-0.5 19v14q0 32 18.5 43.5t47.5 13.5v10q-25 4 -38 8.5t-24 23.5q0 6 -1 19t-1.5 28t-1 28t-0.5 19v17q0 13 10 22.5t24 16t29 10t25 5.5q1 0 8.5 0.5t17 1t20 1.5t16.5 1h2 q17 0 29.5 -6.5t24.5 -17.5q44 -41 59 -86.5t15 -105.5q0 -13 0.5 -22t-0.5 -17.5t-3 -17.5t-6 -22q-7 -21 -26.5 -47t-45.5 -49t-54 -39t-52 -16q-1 0 -4.5 0.5t-4.5 0.5q-4 3 -15 12t-23 18.5t-22.5 18.5t-14.5 12q-1 0 -3 2zM775 328h2q5 0 8 -2.5t8 -2.5q8 0 12.5 4.5 t11.5 4.5h5q1 -1 9 -7t9 -7h3q5 0 7.5 4.5t4.5 10.5t5 10.5t9 4.5q0 -20 -8 -39.5t-21 -37.5t-28 -33.5t-28 -26.5q-4 -3 -10.5 -8t-13.5 -9.5t-12 -8t-6 -3.5h-6q0 6 3 13t7.5 14.5t8.5 14t6 10.5q9 21 10.5 47t3.5 47zM789 266q0 -9 9 -9q10 0 10 9q0 11 -10 11 q-9 0 -9 -11zM803 307q0 -5 3.5 -11t8.5 -6t8.5 6t3.5 11v0q0 1 -1 3q0 1 -3.5 4t-5.5 4l-2 1q-1 0 -1.5 -0.5l-0.5 -0.5q-2 -1 -5.5 -4t-4.5 -4v-3zM803 370q0 14 14 14q6 0 10.5 -4t4.5 -10t-4.5 -10.5t-10.5 -4.5t-10 4.5t-4 10.5zM119 548q0 2 7.5 5.5t17 6.5t17.5 5.5 t10 2.5q1 0 2.5 -1l1.5 -1q2 -1 10 -7t10 -7h2h2q2 1 5 4.5t4 5.5q2 -1 9 -13t15.5 -27.5t16 -29.5t10.5 -19q2 0 2 -3v-3q-45 0 -77 20t-60 52q-1 1 -3 4.5t-2 4.5zM185 505q0 -9 10 -9q9 0 9 9q0 11 -9 11q-10 0 -10 -11zM156 541q0 -5 3.5 -11t8.5 -6t8.5 6t3.5 11v3 q-1 1 -4 4.5t-5 3.5q0 1 -3 1h-1t-1 -1q-1 0 -5 -3.5t-5 -4.5v-3zM156 604q0 6 4.5 10.5t10.5 4.5t10 -4.5t4 -10.5t-4 -10.5t-10 -4.5t-10.5 4.5t-4.5 10.5z" />
<glyph unicode="T" horiz-adv-x="1021" d="M232 20q0 -59 27.5 -102.5t70.5 -72t96.5 -42t105.5 -13.5q45 0 90 14t84 40t68.5 62.5t44.5 80.5v6q-7 0 -14 -7.5t-13.5 -17.5t-11.5 -19.5t-8 -13.5q-27 -33 -67.5 -57.5t-82.5 -35.5q-10 -3 -29 -5.5t-32 -9.5h-49q-45 0 -92 11t-85.5 34.5t-63 60.5t-24.5 89v18 q0 14 1.5 28t6 25t13.5 11q6 0 17 -6t23 -14.5t23.5 -16.5t18.5 -11q62 -25 119 -40.5t123 -15.5q42 0 74.5 3.5t62 12.5t58.5 24.5t65 39.5q13 9 36 31.5t45.5 49.5t38.5 53t16 42q-11 0 -27.5 -19t-37.5 -41.5t-45 -41t-48 -18.5q-3 0 -6.5 0.5t-4.5 5.5q0 8 -1 29t-2 45 t-1.5 45.5t-0.5 30.5v32v32q15 9 17.5 18.5t2.5 23.5q0 11 -1.5 21t-13.5 18v229q0 5 -5 5h-7q-11 0 -13 -8.5t-4 -20.5q3 -45 6.5 -98t3.5 -101q0 -14 -9.5 -23.5t-9.5 -23.5q0 -10 5.5 -17t13.5 -13q0 -6 1 -21t2 -32.5t1.5 -33t0.5 -21.5q0 -7 -0.5 -25t-1.5 -38t-2 -38 t-1 -25q-4 -8 -15 -8.5t-17 -5.5h-141q-34 7 -66.5 11.5t-62.5 12.5t-58 23.5t-52 45.5q0 1 -0.5 2l-0.5 1q0 7 7.5 10t17 4.5t18.5 1.5h11q27 0 49 -12.5t38 -27.5t25 -27.5t11 -12.5q5 0 13 6t12 8q27 20 51 42t42 48t28.5 55.5t10.5 64.5q0 34 -11 59.5t-27 45 t-35.5 35.5t-35.5 31.5t-27 33t-11 40.5q0 15 5.5 30.5t15.5 28.5t22.5 21.5t27.5 8.5q23 0 44.5 -5t44.5 -5q33 0 66.5 2.5t65.5 17.5q21 9 43 25.5t40 37.5t29.5 45.5t11.5 49.5h-8q-8 -19 -20 -36.5t-27 -31t-34.5 -22t-42.5 -8.5q-40 0 -78 13t-74.5 31.5t-71.5 39.5 t-68 38q-21 1 -32.5 8t-33.5 15q-28 10 -60.5 17t-63.5 7q-50 0 -109.5 -10t-112 -35t-87.5 -66.5t-35 -104.5q0 -22 10 -41.5t26.5 -34.5t37 -23.5t41.5 -8.5q15 0 36.5 4.5t42 13.5t34.5 22.5t14 31.5q-7 0 -14 -4.5t-14 -10t-13.5 -11t-13.5 -8.5q-20 -8 -31 -8.5 t-31 -0.5q-22 0 -41.5 5t-34 16t-23 28t-8.5 41q0 15 1 25.5t9 24.5q36 39 75.5 61.5t93.5 22.5q16 0 35.5 -1.5t39 -4.5t38 -8.5t32.5 -13.5l215 -112q2 -2 10.5 -6.5t8.5 -9.5v-2q-1 -2 -9 -10l-10 -10q-18 -19 -36 -39t-33 -42.5t-24.5 -47t-9.5 -52.5q0 -32 11 -56 t28 -44t36.5 -37t36.5 -35.5t28 -39t11 -47.5q0 -5 -0.5 -12.5t-2.5 -14t-6.5 -11t-12.5 -4.5q-11 0 -19.5 10t-19.5 14q-22 6 -45.5 12t-46.5 6q-16 0 -30.5 -4t-29 -8.5t-28.5 -8t-29 -3.5q-10 0 -13.5 4t-11.5 15q-38 51 -50.5 104.5t-12.5 114.5q0 80 38 144.5 t109 105.5v12q-24 0 -41.5 -16t-34.5 -29q-50 -37 -85.5 -67.5t-58 -65.5t-33.5 -79.5t-11 -108.5v-12t0.5 -19.5t0.5 -19.5v-12q8 -48 33.5 -94t55.5 -84q1 -1 1 -5t-1 -4q-2 -3 -7 -16.5t-7 -16.5q-5 -15 -5.5 -32.5t-0.5 -32.5zM182 368q0 17 -1 33t6 31q0 1 5.5 3 t12 4.5t12 4.5t7.5 2q10 0 16.5 -8t15.5 -11q4 -26 8.5 -58.5t15.5 -58.5q13 -30 29.5 -54.5t40.5 -44.5q2 -1 7 -6l7 -7q31 -37 70.5 -57t83 -29.5t89.5 -11.5t90 -2h17h27t27 0.5t18 1.5q10 6 26 10t28 4q0 -14 -21 -29t-49.5 -28t-57 -22t-43.5 -11h-73q-9 0 -22.5 -0.5 t-28.5 -0.5t-29.5 1.5t-25.5 4.5q-36 9 -73.5 23.5t-71.5 35t-61.5 48t-45.5 62.5q-12 23 -22 43t-17.5 39.5t-12 40.5t-4.5 47zM546 222q10 0 22 -6.5t12 -17.5q0 -4 -1.5 -7.5t-5.5 -3.5q-3 0 -7.5 4.5t-9 10t-7.5 11.5t-3 9zM669 322v2l-4.5 4.5t-4.5 5.5h-3h-2 q-1 -2 -5 -3t-5 -2v5q0 5 4 9.5t11 4.5q4 0 4 -1q3 -1 12 -8.5t11 -9.5v-3q0 -5 -2 -13t-6 -16.5t-9.5 -14.5t-12.5 -6q0 14 6 23.5t6 22.5zM210 376q0 -10 9 -10q10 0 10 10q0 9 -10 9q-9 0 -9 -9zM645 385q0 5 4 10t11 5q6 0 10 -5t4 -10q0 -6 -4 -10.5t-10 -4.5 q-7 0 -11 4.5t-4 10.5zM210 420q0 -4 3.5 -10.5t8.5 -6.5t8.5 6.5t3.5 10.5v2l-10 10h-2h-3l-4.5 -4.5t-4.5 -5.5v-2zM210 484q0 5 4 9.5t10 4.5t10 -4.5t4 -9.5q0 -16 -14 -16t-14 16z" />
<glyph unicode="U" horiz-adv-x="1233" d="M208 -36q0 -49 27.5 -81.5t68 -52t86.5 -27.5t84 -8q46 0 85.5 12t73.5 33.5t63.5 52t55.5 66.5q5 7 8.5 11t3.5 12h-12q-102 -150 -278 -150q-32 0 -75 4.5t-82.5 18.5t-67 40t-27.5 69q0 38 22.5 60t55.5 33.5t69.5 15t64.5 3.5q52 0 95 -23.5t77 -60.5h5 q30 31 63 59.5t67.5 55t69.5 52t68 52.5q0 1 2 1h1q2 0 2 -1q1 0 2 -1.5t2 -1.5q9 -20 13 -45.5t10 -44.5q9 -26 33.5 -49.5t47.5 -39.5q11 -8 17 -13.5t17 -5.5q5 0 21 11t36 27.5t42 36.5t40.5 37.5t30.5 30.5t12 16h-6q-3 -2 -11 -7.5t-17 -11.5t-17 -11t-12 -7 q-1 -1 -11.5 -4.5t-15.5 -5.5h-3q-18 0 -32.5 12.5t-24.5 30.5t-16 37.5t-8 32.5q-1 4 -2.5 12.5t-3 18.5t-3 18.5t-1.5 11.5v141v140q0 4 0.5 22t1.5 38.5t2 38t1 22.5q1 36 5.5 62.5t16 48.5t30 41.5t46.5 41.5v10q-26 0 -58 -17.5t-62.5 -42t-55.5 -52t-35 -48.5 q-15 -31 -19 -68t-4 -69v-351q0 -9 -8.5 -20t-20 -20t-24 -15t-20.5 -6h-2l-5 33v656h-15v-713l-1 -1.5t-2 -3.5q-9 -8 -16.5 -13t-14.5 -10t-15.5 -10.5t-19.5 -12.5h-7h-8q-23 7 -45 23t-43 23q-2 1 -11.5 3.5t-22 5.5t-25.5 6t-21 5q-3 1 -14 2t-14 2h-4 q-49 0 -103 -13.5t-99 -41.5t-74.5 -70t-29.5 -99zM435 95q-31 0 -61 -2.5t-60 -2.5h-11q12 14 29.5 26t37 21.5t40 16t38.5 10.5q5 2 20 2h20q22 0 50 -3.5t56 -11t53 -20t40 -31.5q-4 -4 -14.5 -15t-22.5 -22t-23.5 -20t-17.5 -9h-3q-38 32 -79 46.5t-92 14.5zM910 325 q11 0 17.5 2t11 4.5t8.5 4.5t11 2h5q2 -1 9.5 -7t9.5 -7h2h3l4.5 4.5t3.5 5.5h3h2q1 -29 4 -63t11.5 -66.5t25.5 -59t48 -41.5q1 -1 1 -3v-1q0 -8 -4 -11t-10 -9q-3 -2 -9.5 -7.5t-14 -11.5t-14 -11t-9.5 -7h-5q-6 0 -13.5 4.5t-14 10t-12 11l-7.5 7.5q-28 24 -42 53 t-19.5 61.5t-5.5 66.5v68zM208 397q0 -36 17 -66t44.5 -51t61.5 -33t67 -12q21 0 48 1.5t54.5 6.5t52 15.5t40.5 28.5q6 7 17 19.5t21.5 24.5t18.5 20.5t8 9.5q17 21 29.5 48t20.5 56.5t12 58.5t4 54q0 71 -22.5 126.5t-63.5 94t-98 58.5t-126 20h-13q-11 -1 -39 -3.5 t-59.5 -5.5t-59.5 -6t-39 -4q-8 -5 -18 -5h-19q-26 0 -49.5 4t-45.5 20q-5 3 -8 10.5t-6.5 14.5t-7.5 12.5t-11 5.5q0 -26 9.5 -57.5t27.5 -59.5t43.5 -47t56.5 -19h253q47 0 82 -23.5t58.5 -60.5t35 -81t11.5 -84q0 -29 -6 -60t-18 -60t-30.5 -54t-43.5 -42q-12 -8 -27 -12 t-30.5 -5.5t-31.5 -1.5h-28q-5 0 -19 0.5t-19 0.5q-13 4 -31 10.5t-35 16t-29 23t-12 30.5q0 2 4 4h2q12 0 23 -2t23 -2q27 0 53.5 13t34.5 43q0 3 1 14t1 14q0 42 -22.5 61t-64.5 19q-45 0 -74 -27.5t-29 -73.5zM948 263q0 -10 10 -10t10 10q0 11 -10 11t-10 -11zM944 313 q0 -5 3.5 -11t8.5 -6t8.5 6t3.5 11v1q-2 2 -5 5.5t-5 4.5h-2h-3l-4.5 -4.5t-4.5 -5.5v-1zM242 361q-9 7 -9.5 16t-0.5 18q0 15 6 30t16.5 27t24.5 19.5t31 7.5q24 0 46 -17t22 -44q0 -13 -6.5 -24.5t-16 -19.5t-22 -13t-24.5 -5q-18 0 -32.5 1.5t-34.5 3.5zM635 530 q5 7 12.5 13.5t15.5 6.5h5q2 -2 11.5 -9.5t12.5 -10.5v-4q0 -47 -20 -93.5t-56 -76.5q11 47 16 87.5t3 86.5zM944 376q0 6 4.5 10t9.5 4q14 0 14 -14q0 -15 -14 -15q-5 0 -9.5 4t-4.5 11zM653 479q0 -10 10 -10q9 0 9 10q0 9 -9 9q-10 0 -10 -9zM648 523q0 -4 3.5 -10.5 t8.5 -6.5q6 0 9 6.5t3 10.5v3q-1 1 -4 4.5t-5 4.5h-3h-2l-4.5 -4.5t-3.5 -4.5q-2 0 -2 -3zM648 587q0 5 5 9.5t10 4.5q6 0 10 -4.5t4 -9.5q0 -15 -14 -15q-5 0 -10 4t-5 11z" />
<glyph unicode="V" horiz-adv-x="1184" d="M174 -8q0 -52 28.5 -91t71 -65.5t92.5 -39.5t93 -13q53 0 94 8t76.5 25t68 43.5t67.5 63.5q15 17 30 35t15 42q-1 0 -19 -19.5t-43 -45t-51.5 -49.5t-44.5 -32q-46 -24 -97.5 -29t-102.5 -5q-36 0 -73.5 6t-71.5 20t-61.5 37.5t-42.5 58.5q-4 10 -7 15.5t-4.5 10t-2 9 t-0.5 11.5q0 19 7.5 34.5t18.5 29t25 24.5t28 21q2 1 7 7t7 6q25 13 54.5 14t55.5 1q36 0 79 -6t83 -20.5t72.5 -38.5t49.5 -61h5q39 36 87 58.5t97 43.5t94 47t77 70q24 33 38.5 65t14.5 73q0 35 -6.5 65t-17 58.5t-24 57t-28.5 61.5q-10 7 -12 24t-2 27q0 16 12 30 t26.5 26t26.5 22.5t12 21.5q-24 0 -47.5 -15t-45 -37t-39.5 -45.5t-29 -39.5q-4 -22 -11.5 -42.5t-7.5 -43.5q0 -35 9.5 -64.5t21.5 -58.5t21.5 -58.5t9.5 -62.5q0 -30 -8 -58.5t-24 -52.5t-40 -41t-55 -24q-3 2 -6.5 6.5t-3.5 7.5v71q-4 5 -4.5 6.5t-0.5 6.5q0 51 3 103 t2 103q13 13 18.5 23.5t5.5 27.5v6q0 5 -1 5q-2 5 -10.5 17t-12.5 15v295q0 5 6 5h7q12 0 18 -4.5t16 -9.5q19 -10 34 -17t30 -11.5t31 -7t36 -2.5h37q18 4 38.5 18.5t38.5 33.5t30 40t12 39h-16q-3 -7 -8.5 -16t-12.5 -16.5t-16 -13t-18 -5.5q-25 0 -46 10.5t-42 22.5 t-43 22.5t-47 10.5q-42 0 -72 -8.5t-54 -25.5t-45 -41.5t-45 -55.5q-3 -4 -4 -4.5t-5 -0.5h-5q-33 40 -80 68.5t-98 39.5h-56h-55t-53 -5q-54 -10 -107 -24t-107 -14q-21 0 -34.5 7t-23 15.5t-16.5 15.5t-13 7q0 -16 5 -35t10 -33q27 -23 42 -39.5t31 -27.5t38.5 -16.5 t64.5 -5.5q44 0 86.5 9.5t87.5 9.5q52 0 89 -19t60 -51t34 -74t11 -88q0 -27 -1.5 -52.5t-8.5 -49t-20 -44.5t-36 -39q-31 -23 -55 -33t-60 -10q-20 0 -41.5 5t-41.5 15t-36 25t-24 35q-1 3 1.5 9.5t2.5 8.5q17 0 33.5 -2t33.5 -2q34 0 50 19.5t16 54.5v12t-1 13 q-9 22 -29 34.5t-43 12.5q-43 0 -72.5 -27t-29.5 -71q0 -41 18 -71t46.5 -49.5t64.5 -29.5t72 -10q64 0 117.5 29t92.5 76t60.5 106.5t21.5 119.5q0 19 -4 37t-8.5 36t-8 36t-3.5 36q0 12 9 26.5t21.5 26.5t27.5 20.5t27 8.5q6 0 10.5 -1t7.5 -9q0 -12 1 -41t2 -62t1.5 -62 t0.5 -41v-15v-13q0 -4 -0.5 -14t-1.5 -21.5t-2 -21.5t-1 -14q-24 -17 -24 -48q0 -9 4.5 -15t10 -11.5t10 -12t4.5 -16.5v-278q-2 0 -7.5 -2t-7.5 -1q-8 4 -19 12t-23 17.5t-24 18t-22 13.5q-19 9 -42.5 16t-48 12t-49 8t-45.5 3q-38 0 -79.5 -5t-77.5 -19q-28 -12 -61 -31.5 t-61 -45t-47 -56.5t-19 -66zM348 149v3q0 2 14.5 9t23.5 11q29 14 65 19t68 5q29 0 64.5 -7t70.5 -20t65.5 -31.5t50.5 -40.5q-3 -4 -15.5 -13t-26.5 -18t-26 -15.5t-16 -6.5q-2 0 -3.5 1l-1.5 1q-41 36 -78 56t-76 30t-82.5 12.5t-96.5 4.5zM976 281q0 23 -2.5 43t-2.5 42 v7q5 -2 9.5 -3.5t9.5 -1.5q8 0 12 5t11 5h5q2 -1 9.5 -7t8.5 -7h4h1q2 1 9.5 9t9.5 10h2h3q1 -1 2 -2.5t3 -2.5v-19q0 -32 -16 -65t-36 -56q-5 -6 -12 -14t-14.5 -15.5t-13.5 -12.5t-7 -5h-5q0 23 5 45t5 45zM1008 307q0 -9 10 -9t10 9q0 10 -10 10t-10 -10zM999 353 q0 -5 3.5 -11.5t8.5 -6.5t8.5 6.5t3.5 11.5v1q-1 2 -5 5t-5 5h-2h-3q-1 -2 -4.5 -5t-4.5 -5v-1zM653 514h4q4 -2 12.5 -9.5t11.5 -10.5v-3q0 -13 -5 -28t-12.5 -30t-17 -28t-17.5 -22q-3 -3 -7.5 -8t-9 -9.5l-8 -8t-4.5 -3.5h-4q0 12 4 22t5 20q0 3 1.5 15.5t3.5 27t3.5 27 t1.5 15.5q2 12 13 22.5t25 10.5zM249 415q0 13 7 26.5t18 24.5t24 18t25 7q21 0 42 -13.5t21 -37.5q0 -18 -15 -36t-35 -18q-6 0 -20 2t-29 5.5t-26.5 9t-11.5 12.5zM999 415q0 15 14 15q15 0 15 -15q0 -14 -15 -14q-14 0 -14 14zM633 448q0 -10 11 -10q9 0 9 10q0 9 -9 9 q-11 0 -11 -9zM802 455v2q1 2 3 5.5t2 4.5h2h3l4.5 -4.5t4.5 -5.5v-2q0 -4 -3 -5.5t-6 -1.5q-10 0 -10 7zM638 488q0 -5 3.5 -10.5t8.5 -5.5t8.5 5.5t3.5 10.5v3q-2 1 -5 4t-5 4l-0.5 0.5t-1.5 0.5l-1 -0.5t-2 -0.5l-8 -8q0 -1 -0.5 -2zM638 551q0 6 4.5 10t9.5 4q6 0 11 -4 t5 -10q0 -5 -5 -10t-11 -5q-5 0 -9.5 5t-4.5 10z" />
<glyph unicode="W" horiz-adv-x="1327" d="M148 -28q0 -39 18 -69.5t46 -54t62 -40t67 -25.5q4 -1 11 -3t8 -2h141q18 0 43 11t52 29t53 41t46.5 47t33 47.5t12.5 41.5q-9 0 -16 -11q-1 -1 -3.5 -6.5t-6 -12t-6 -12t-3.5 -6.5q-22 -38 -60.5 -72t-79.5 -50q-27 -11 -55.5 -13t-57.5 -2q-26 0 -58 2t-64 8t-62.5 17 t-54 29t-38 44t-14.5 62q0 38 23.5 61.5t57 36.5t70.5 17.5t64 4.5q48 0 92 -22t79 -53q1 -2 9 -10.5t13 -8.5q2 0 7.5 1.5t7.5 2.5q35 38 76 78t83 72v3v2q-1 1 -2.5 3l-1.5 2h-3h-2q-5 -5 -12.5 -12t-16 -13.5t-17.5 -11.5t-18 -5q-8 0 -10 1t-11 9q-2 1 -7 5t-11.5 8.5 t-12 8.5t-7.5 5q-38 23 -81 33t-88 10q-43 0 -94.5 -18t-96 -49t-74.5 -72.5t-30 -88.5zM782 167q8 -6 29.5 -23t45.5 -35.5t45 -35.5t30 -24q3 -2 9.5 -8.5t13.5 -14t13.5 -14.5t9.5 -10h5q4 0 5 0.5t4 4.5q26 32 53 55.5t59 47.5q29 22 59.5 50.5t56 61.5t42 69.5 t16.5 75.5q0 36 -7.5 73t-25.5 69q-8 15 -18 29.5t-18.5 30.5t-14.5 32.5t-6 34.5q0 35 15.5 54.5t41.5 42.5v10h-15l-5.5 -4t-12 -9t-13.5 -10.5t-11 -9.5q-1 -1 -4.5 -7t-3.5 -7q-37 -42 -61 -86.5t-24 -103.5q0 -36 11 -66.5t24.5 -59t24.5 -57.5t11 -63 q0 -39 -12.5 -69.5t-44.5 -56.5q-11 -9 -17.5 -14t-17.5 -5q-10 0 -21.5 8.5t-23.5 19.5t-25 22t-26 16q-7 4 -24.5 16.5t-37 27t-36.5 27.5t-24 18q-14 11 -23 20.5t-14.5 20t-7.5 22.5t-2 29v24q1 3 4 9t7 12t7.5 11t5.5 7v7q-18 0 -33.5 -21.5t-27 -49.5t-18 -56.5 t-6.5 -41.5q0 -29 8.5 -51t25.5 -45zM375 110q-26 0 -50.5 -2t-50.5 -2q0 12 21.5 25t49.5 24.5t55.5 18.5t40.5 7q36 0 78.5 -11t74.5 -31q4 -3 11.5 -8.5t14 -10.5t11.5 -9t5 -5v-10l-61 -60l-0.5 -0.5t-1.5 -0.5q-5 0 -11.5 4.5t-13 10.5t-12 11t-8.5 7q-32 22 -73.5 32 t-79.5 10zM767 263v2l4.5 18t5.5 19q1 3 2 8.5t3 6.5l0.5 0.5t1.5 0.5l0.5 -0.5t1.5 -0.5q8 -20 21 -36t31 -30q6 -5 23 -17.5t36.5 -27t37 -27l24.5 -17.5q11 -5 22.5 -12.5t19.5 -15.5q4 -3 9.5 -8.5l11 -11l9.5 -9.5l4 -4v-5q-1 -1 -6 -6.5t-12 -13.5t-11 -12 q-5 -7 -10 -13.5t-13 -6.5h-5l-159 128q-21 16 -36.5 39.5t-15.5 51.5zM1188 268q8 0 16 0.5t8 11.5q0 9 -8 9.5t-16 -1.5q0 4 -1.5 14.5t-2.5 14.5v2q0 8 11 15t17 7q2 0 3.5 -0.5l1.5 -0.5q3 -2 12 -9t11 -9v-3q0 -5 -2.5 -11.5t-5.5 -13t-6 -12t-4 -7.5q-3 -5 -7.5 -11.5 t-9 -12.5t-8.5 -10.5l-4 -4.5h-5v32zM224 415q0 -24 11.5 -48.5t29.5 -45.5t40.5 -36t45.5 -20q12 -3 20 -4t15 -1h16h23q63 0 116 24t95 75q32 46 53.5 96t21.5 107q0 36 -8.5 70t-14.5 69l-0.5 3.5t-0.5 5.5q0 13 12 28t29 27.5t34.5 20.5t29.5 8q24 0 44.5 -7t39.5 -16.5 t38 -20t40 -17.5q33 -11 68.5 -19t69.5 -8q56 0 104.5 27.5t77.5 75.5q2 4 6 11.5t7.5 15t6 13.5t2.5 7v10q-8 0 -16.5 -12.5t-22 -28t-34 -28t-50.5 -12.5q-18 0 -36 6.5t-34.5 15.5t-33 19.5t-31.5 19.5q-27 15 -56.5 21.5t-61.5 6.5q-40 0 -73.5 -11t-63.5 -29.5t-57 -43 t-52 -52.5h-3q-5 0 -10 5.5t-10.5 12.5t-10.5 14t-8 10q-45 41 -103.5 60.5t-120.5 19.5h-1q-10 -1 -25.5 -2.5t-30.5 -3t-26.5 -2.5t-12.5 -1q-9 -2 -33 -6.5t-50.5 -10t-50.5 -10.5t-34 -7h-21q-23 0 -42.5 13t-24.5 39h-14q0 -38 15 -69t40.5 -53t59 -34t69.5 -12 q45 0 87 7t87 7h44q37 -9 65.5 -31.5t47 -52.5t28 -66t9.5 -72q0 -45 -8.5 -85t-29 -69.5t-54 -47t-83.5 -17.5q-41 0 -72.5 12.5t-56.5 44.5q-3 3 -6.5 10t-3.5 8l5 7h61l4 3t6 5q10 10 18.5 18t14.5 16t9.5 18t3.5 24q0 19 -7.5 32t-19.5 21t-27.5 12t-31.5 4 q-39 0 -65.5 -27.5t-26.5 -66.5zM941 336q0 -11 -4 -20.5t-9 -18.5t-9 -18.5t-4 -19.5q9 0 15.5 8t9.5 13q31 36 55.5 78t24.5 92q0 33 -10 56.5t-24.5 41.5t-31.5 32t-31.5 28.5t-24.5 30.5t-10 38q0 16 8.5 29t8.5 27h-15q-1 0 -6 -4.5t-12 -11.5t-14.5 -14t-11.5 -12 q-16 -18 -26.5 -42.5t-10.5 -48.5q0 -35 6 -64.5t23 -59.5q10 -18 27 -34t34 -32.5t29.5 -34t12.5 -39.5zM1198 314q0 -3 3.5 -9.5t8.5 -6.5t8.5 6.5t3.5 9.5v3l-4.5 4.5t-5.5 4.5h-2h-2q-2 -1 -5.5 -4.5l-4.5 -4.5v-3zM617 514q10 2 17.5 8t16.5 6q3 0 3 -1l24 -23v-2v-3 q-2 -6 -5 -18.5t-4 -13.5l-52 -89q-2 -4 -10 -9l-8 -5l-0.5 1.5t-0.5 2.5q0 21 3 37.5t7 33t6.5 34t2.5 41.5zM950 386l-70 81v9q11 2 19 8.5t18 6.5q1 0 3 -0.5l2 -0.5q2 -2 9.5 -7t8.5 -7l1 -1h1q3 0 3 1q1 0 4.5 4.5t4.5 4.5q4 4 13 11t11 8h3q6 0 9 -5t5 -12t2.5 -14 t0.5 -11q0 -26 -7.5 -52t-21.5 -46h-3q-6 0 -10.5 10.5t-5.5 11.5zM1198 378q0 5 4 9.5t10 4.5q7 0 11 -4.5t4 -9.5q0 -6 -4 -11t-11 -5q-6 0 -10 5t-4 11zM246 412q0 14 6 27.5t16.5 24t23.5 16.5t28 6q20 0 39 -13t19 -36q0 -14 -9 -23l-18 -18q-5 -4 -14 -11t-10 -7h-61 q-3 0 -9.5 7t-8.5 11q0 1 -1 6.5t-1 9.5zM940 433q0 -9 10 -9q9 0 9 9q0 11 -9 11q-10 0 -10 -11zM903 464q0 -5 3.5 -10.5t8.5 -5.5t8.5 5.5t3.5 10.5v3q-1 1 -5 4.5t-5 4.5h-2h-3l-9 -9v-3zM632 462q0 -10 9 -10q10 0 10 10t-10 10q-9 0 -9 -10zM636 502q0 -4 3.5 -10.5 t8.5 -6.5t8 6.5t3 10.5v2q-1 1 -4 4.5t-5 5.5h-2h-2q-2 -2 -5 -5.5t-5 -4.5v-2zM903 527q0 6 4 10.5t10 4.5q7 0 11 -4.5t4 -10.5q0 -5 -4 -10t-11 -5q-6 0 -10 5t-4 10zM635 565q0 5 4.5 10t10.5 5t10.5 -5t4.5 -10q0 -6 -4.5 -10t-10.5 -4t-10.5 4t-4.5 10z" />
<glyph unicode="X" horiz-adv-x="1064" d="M88 -74q14 -26 37.5 -47.5t52 -37.5t60 -24.5t60.5 -8.5q85 0 158 29.5t124 101.5q11 16 22.5 36.5t11.5 41.5q-7 0 -13.5 -9.5t-12.5 -21.5t-11.5 -24t-10.5 -18q-30 -33 -60 -53t-62.5 -31.5t-69 -15.5t-81.5 -4q-35 0 -71 9.5t-66 28.5t-49 48.5t-19 68.5 q0 31 14.5 51t36 31.5t47.5 16t50 4.5q40 0 66 -4.5t46.5 -15t40 -28.5t46.5 -45h2h3l9 9q17 21 33 39.5t32 36t33.5 35.5t37.5 39q10 11 17 27t20 24q12 -8 19 -26t13 -29q11 -19 21.5 -34t22.5 -27t26.5 -22.5t33.5 -20.5q13 -7 29.5 -15t34 -15.5t34.5 -14.5t32 -11h6 q7 0 7.5 2.5t6.5 11.5q12 20 22.5 37t22 33t24.5 33t29 38q4 6 10 14t11.5 17.5t9 19.5t3.5 18h-11q-18 -37 -45 -58t-69 -21q-22 0 -35 6t-34 17q-35 19 -56 46.5t-32.5 60t-15.5 69t-4 74.5v8q0 8 5 10q85 -2 125 35t40 123q0 13 -0.5 21t-4.5 22h-5q-6 0 -8 -6t-2 -14 t0.5 -15t-0.5 -8q-5 -16 -19 -24t-31.5 -11t-35 -2.5t-29.5 0.5q-8 0 -16.5 0.5t-13.5 8.5q0 5 -1.5 21t-3.5 21v8q0 5 1.5 19t4.5 32.5t7.5 39t10.5 37t13.5 27.5t16.5 11q3 0 3 -1q22 -16 42.5 -31.5t48.5 -15.5q27 0 50.5 16.5t41.5 41.5t28.5 54t10.5 54q-11 0 -16 -8.5 t-12 -18t-19 -18t-37 -8.5q-15 0 -27 9t-20.5 20t-14.5 20t-10 9q-1 0 -3 -0.5l-2 -0.5q-27 -47 -60 -87.5t-61 -85.5l-5 -5q-8 4 -13 11.5t-9 16t-7.5 17t-8.5 15.5q-31 42 -73 64t-91 34q-3 0 -11.5 0.5t-18.5 0.5t-18.5 0.5t-12.5 0.5q-44 0 -86.5 -6t-85 -13.5 t-85.5 -13.5t-87 -6h-30q-5 4 -10.5 11.5t-11.5 15.5t-12.5 14t-13.5 6q0 -32 12.5 -61t34.5 -51t51 -35t61 -13q52 0 101.5 8t100.5 8h10t12 -0.5t10 -0.5h6q4 0 14.5 -1t22.5 -2.5t23 -3.5t15 -3q25 -6 40 -25t23 -43t10 -49.5t2 -45.5v-11t-1 -8l-3 -5q-32 3 -61.5 -5.5 t-52.5 -27t-37 -45t-14 -59.5q0 -16 1 -29t4 -31h5q4 26 16.5 43t30.5 26.5t40.5 13.5t45.5 4q5 0 14.5 -1t10.5 -1l5 -4l1 -4.5t1.5 -10.5t1.5 -12.5t1 -10.5v-2v-2q0 -10 -1 -25t-2 -29t-1.5 -24.5l-0.5 -10.5q-2 -14 -7 -41.5t-14 -55.5t-22.5 -48.5t-30.5 -20.5 q-2 0 -5.5 0.5t-4.5 0.5q-1 1 -4 3.5t-7 6t-7.5 6.5t-4.5 4q-32 19 -69.5 30.5t-74.5 11.5q-39 0 -86.5 -16t-89 -44t-69.5 -67t-28 -85q0 -15 4.5 -32.5t9.5 -31.5zM645 234h-9q-5 0 -10.5 1t-9.5 4t-4 8q0 23 4.5 50.5t5.5 49.5q3 -1 14 -1t14 1q2 0 7.5 4t6.5 4q0 1 2 1 h3h3t2 -1q2 0 9 -6t9 -7q1 0 1.5 -0.5l0.5 -0.5q1 0 1.5 0.5l0.5 0.5q2 1 10 9t10 9l0.5 0.5t1.5 0.5l2 -1q2 -2 3 -9t2 -9q0 -3 1.5 -13.5t3 -22.5t3 -22t2.5 -13q7 -36 26.5 -63.5t46.5 -46t59.5 -28.5t67.5 -12v-5q0 -6 -7.5 -19.5t-17.5 -28t-18.5 -25.5t-11.5 -11h-5 q-86 22 -142 73t-88 129zM196 121v5q1 0 6.5 3.5t13.5 8t12 7.5q29 16 60.5 25t63.5 9q11 0 34 -5t46.5 -13t41 -20t17.5 -25v-3q-3 -3 -9 -11t-12.5 -16t-12.5 -15t-8 -10q-2 -2 -5 -5.5t-4 -3.5h-3h-2q-25 24 -53 37.5t-58 20.5t-62 9t-66 2zM659 286q0 -10 10 -10 q9 0 9 10q0 9 -9 9q-10 0 -10 -9zM654 330q0 -4 3.5 -10.5t8.5 -6.5t8.5 6.5t3.5 10.5v2q-1 2 -4.5 5.5l-4.5 4.5h-3h-2l-10 -10v-2zM654 394q0 5 4 9.5t11 4.5q6 0 10 -4.5t4 -9.5q0 -15 -14 -15q-15 0 -15 15z" />
<glyph unicode="Y" horiz-adv-x="1178" d="M478 -97q36 0 66 -6t59 -28q6 -5 17.5 -19t22.5 -30t20 -28t11 -12q9 0 19.5 6.5t21.5 14.5t22.5 15.5t20.5 10.5l178 52q14 11 30.5 15t30.5 12q51 29 84.5 65.5t50.5 94.5v37q0 23 -1.5 44.5t-17.5 40.5q-13 16 -25.5 28t-22 24.5t-15.5 27.5t-6 37v445q0 15 3 37 t11 37q4 10 16 20.5t24.5 21t22 20.5t9.5 19q-29 0 -67.5 -20.5t-73 -51.5t-58 -67.5t-23.5 -67.5v-472q0 -15 -6 -30.5t-16 -28.5t-23 -23.5t-26 -16.5q-2 2 -5.5 6.5t-3.5 6.5v52l-4 10v609l-5 79h-2h-3q-1 -1 -2.5 -2t-1.5 -2l2 -459v-33l2 -267q0 -4 -3.5 -4.5 t-5.5 -0.5h-5q-13 8 -28.5 17.5t-27.5 20.5q-8 3 -26.5 11t-39.5 17t-39.5 17t-25.5 11q-6 3 -16.5 7t-20.5 9.5t-17 12t-7 13.5v5q50 21 85 52t56.5 71t31.5 86.5t10 97.5q0 86 -24.5 145.5t-69.5 96t-108.5 53t-142.5 16.5h-46t-46 -10l-195 -23h-4q-14 0 -22 9t-15 20 t-14.5 20t-19.5 9q0 -27 9.5 -56.5t27.5 -53.5t43 -40t55 -16h145l10 5h22q30 0 64.5 1t63.5 -10q42 -15 69 -42t42.5 -61t22 -73t6.5 -79v-63q0 -15 -4.5 -37.5t-14 -43.5t-24.5 -36t-37 -15q-8 0 -11.5 5.5t-5 13t-1.5 15.5v14q0 17 4.5 33.5t14.5 30.5q3 6 9.5 10.5 t12.5 9.5t11 10.5t5 13.5q-20 0 -37 -12.5t-30.5 -30.5t-23 -38.5t-13.5 -36.5q-1 -4 -2.5 -11.5t-3 -16.5t-4 -18t-5.5 -15h-20q-15 0 -36.5 6.5t-41 18t-33.5 27t-14 32.5q0 1 2 3t3 2q27 -2 49.5 -0.5t38.5 9.5t25 25.5t9 47.5q0 35 -22 53.5t-56 18.5q-17 0 -34.5 -7 t-31 -19.5t-22 -29t-8.5 -35.5q0 -39 17.5 -70t45.5 -53.5t63 -36t71 -16.5q3 -2 10.5 -18t18 -35.5t24 -37t28.5 -21.5l130 -89l38 -38h9q37 41 80.5 71t82.5 66q8 6 20.5 16.5t13.5 10.5h10q7 -11 21.5 -28t29.5 -34.5t26 -33t11 -21.5v-75q0 -17 -21.5 -35.5t-50.5 -33.5 t-58 -24.5t-44 -9.5h-13q-27 28 -49.5 48t-47.5 33t-54.5 18.5t-69.5 5.5q-3 0 -9.5 -0.5t-13.5 -0.5t-13.5 -0.5t-9.5 -0.5q-56 -9 -113 -33.5t-102 -59.5q-9 -8 -23.5 -21t-28 -25.5t-23.5 -22t-10 -10.5v-10h9q24 22 48 42t50.5 36t55.5 25.5t63 9.5zM495 -72v2 q26 9 52 16.5t53 7.5q37 0 76 -11t68 -37q4 -3 10.5 -9.5l12.5 -12.5t10 -10.5l4 -4.5v-9q-52 -14 -99 -42q0 1 -1.5 2t-1.5 2q-12 15 -24 31t-26 29t-30.5 22t-37.5 12q-2 0 -9.5 1t-16.5 1.5t-16.5 1.5t-8.5 1q-2 0 -7.5 1.5t-7.5 3.5v2zM926 197v2v3q0 7 1 26t2 39.5 t1.5 39t0.5 25.5q11 -2 16 -0.5t8 4t7 5t12 2.5l4 -1q2 -1 9.5 -6.5t9.5 -6.5l0.5 -0.5t1.5 -0.5l3 1q2 1 9 9t9 9q2 2 3 2v-28t1 -32t4.5 -31.5t10.5 -27.5q11 -18 24 -32t24.5 -27.5t19 -29t7.5 -38.5q0 -14 -7.5 -38t-19.5 -46.5t-26.5 -39t-28.5 -16.5q0 4 -0.5 15.5 t-1 24.5t-1 24t-0.5 16q0 15 -6 27.5t-15 23.5t-19.5 21.5t-19.5 21.5q-2 1 -7 8t-7 10q-2 2 -6 8t-8.5 13t-8.5 13t-6 8zM552 145q-13 3 -26.5 18t-24.5 34t-18 38t-7 31q0 3 0.5 9.5l1 13t1.5 11.5t3 5h5q6 -21 11 -28.5t10 -9t9 -2t7 -7.5q1 -4 3 -14t7 -14 q5 -5 24.5 -14.5t46.5 -21.5t57.5 -25t56 -26t42 -24t16.5 -18q0 -4 -6.5 -10t-15 -12t-16.5 -11t-10 -7l-23 -23q-2 2 -11 9t-13 9q-7 6 -25.5 18.5t-39 26.5t-39.5 26.5t-26 17.5zM968 272q0 -9 10 -9q9 0 9 9q0 10 -9 10q-10 0 -10 -10zM960 317q0 -5 2.5 -11t7.5 -6 q6 0 9 6t3 11v2q-1 1 -4 5t-5 5h-3h-1q-2 -1 -5 -5t-4 -5v-2zM632 497q9 2 16 8t16 6h5q1 -1 9 -7t9 -7h3h2l4.5 4.5t5.5 4.5q1 0 2.5 1t3.5 1q0 -43 -20.5 -82.5t-47.5 -69.5q-1 -1 -6.5 -8t-11.5 -7v6q1 9 2 30t2.5 45t3 45t2.5 30zM958 380q0 6 5 10.5t10 4.5 q6 0 10.5 -4.5t4.5 -10.5t-4.5 -10.5t-10.5 -4.5q-5 0 -10 4.5t-5 10.5zM280 418q0 8 8 20t19.5 23t24 18.5t20.5 7.5q26 0 41 -19.5t15 -41.5q0 -7 -2.5 -15.5t-8 -16t-12.5 -13t-16 -5.5h-74q-6 0 -9 5.5t-4.5 12.5t-1.5 14v10zM655 450q0 -10 9 -10q10 0 10 10 q0 5 -2.5 8.5t-2.5 8.5v2q0 1 2 6.5t3 6.5v4v1q-1 2 -4.5 5.5t-5.5 4.5h-2h-2q-2 -1 -5.5 -4.5t-4.5 -5.5v-2v-3q1 -1 5.5 -8.5t4.5 -9.5q0 -1 -2.5 -4.5t-2.5 -4.5v-5zM650 548q0 15 14 15q15 0 15 -15q0 -14 -15 -14q-14 0 -14 14z" />
<glyph unicode="Z" horiz-adv-x="850" d="M41 5q0 -56 28 -95.5t70.5 -64t93.5 -36t97 -11.5q103 0 174.5 49.5t126.5 133.5q11 15 11 33h-6l-5 -7t-12 -17l-14 -20t-11 -17q-32 -48 -76 -70t-98 -33q-5 -1 -19.5 -2t-22.5 -8h-44q-41 0 -90 5t-91 22t-70.5 49t-28.5 86q0 3 0.5 13t0.5 13q10 20 28 35t40.5 25 t46 15t44.5 5q47 0 93.5 -11t89.5 -27q10 -4 25 -15.5t28.5 -23.5t24.5 -21.5t14 -9.5t5.5 3.5t4.5 7.5t3.5 8l1.5 4q1 1 4 4.5t7 7t7.5 7l5.5 5.5q20 17 37.5 29t36.5 21.5t39.5 18.5t46.5 20q61 26 91 79.5t30 119.5q0 68 -36.5 115t-99.5 74q-2 1 -10 3t-17 4.5t-16.5 6 t-7.5 8.5v1q0 1 1.5 3t3.5 2q29 17 52 32t46 44q14 19 21.5 44.5t7.5 48.5q0 33 -13 63t-34.5 54t-50.5 40t-62 21q-25 4 -52.5 4.5t-52.5 0.5q-42 0 -82.5 -6.5t-81 -14.5t-81 -14.5t-82.5 -6.5q-22 0 -37.5 11t-26 24t-17 24t-10.5 11q-7 0 -7 -9q0 -30 14.5 -54t36.5 -43 t48.5 -32t50.5 -21q4 -1 11 -3t8 -2h126q27 8 54.5 9t55.5 1h59q46 -7 70 -31.5t24 -73.5q0 -34 -12.5 -60t-33.5 -44t-49 -27t-60 -9q-4 0 -11 0.5l-7 0.5l-5 5v168q0 11 -12 11t-17 -11v-18q0 -27 2.5 -53.5t2.5 -52.5v-44q-1 -5 -6 -5h-7q-5 0 -15.5 0.5t-22 2t-20 5.5 t-8.5 12q0 4 6.5 10t14.5 14.5t14.5 20t6.5 26.5q0 16 -7.5 28t-19 20t-25.5 12t-28 4q-25 0 -38.5 -13t-26.5 -30q0 -3 -0.5 -13t-0.5 -13q0 -37 20 -58t44 -32.5t44 -17t20 -9.5q0 -5 -6 -7t-8 -4q-4 -2 -10.5 -6.5t-13.5 -9t-12.5 -8.5t-7.5 -5q-11 -8 -23.5 -18.5 t-24.5 -23t-22 -25.5t-14 -26v-5h15q14 15 34.5 34.5t43.5 37t48 29.5t48 12h7t6 -5v-99q-14 -7 -19.5 -14.5t-5.5 -19.5q0 -13 5.5 -21t19.5 -14v-85l-5 -5q-52 2 -103.5 -2t-102.5 -21q-27 -9 -57.5 -28t-56 -44t-42.5 -54.5t-17 -60.5zM159 126q14 21 41.5 33.5t59 20 t63 10t53.5 2.5h44q35 -19 68 -38.5t59 -50.5v-2v-3l-9 -9q-3 -2 -11 -8t-16 -13t-15 -13t-10 -8h-2q-6 0 -16 6t-21 14.5t-22 16t-19 10.5q-62 20 -122.5 28t-124.5 4zM438 242v15t1 18.5t2 17.5t3 12q0 1 3.5 4t8 7t8 7.5t3.5 4.5l0.5 4t0.5 6q0 8 -1.5 12t-4 7t-6 6.5 t-7.5 10.5q-11 17 -11 40v42q0 4 0.5 10.5l0.5 6.5l14 14h28q27 0 53.5 -4.5t49 -15.5t40 -30t25.5 -48q2 -6 4.5 -15l5 -18t4 -16t1.5 -8v-122q0 -11 -7.5 -28t-19.5 -32.5t-25.5 -26.5t-25.5 -11q-5 0 -12.5 5.5t-15 13l-14.5 14.5t-11 10q-14 9 -30.5 17t-31 17t-24 21.5 t-9.5 31.5zM685 192v155q1 1 9.5 4t19 6.5t11.5 3.5t3 -0.5l2 -0.5q1 -1 9 -6.5t9 -6.5l2 -1q1 0 2 0.5l1 0.5l3 4.5t7 9.5t8.5 9t7.5 4q5 0 7.5 -4.5t3.5 -11t1 -13.5v-10q0 -20 -9 -49t-24.5 -56.5t-36.5 -47t-44 -19.5q0 8 2.5 14.5t5.5 14.5zM720 295q0 -9 10 -9 q9 0 9 9q0 10 -9 10q-10 0 -10 -10zM711 335q0 -4 3 -10.5t9 -6.5q5 0 8.5 6.5t3.5 10.5v2q-2 1 -5.5 5t-4.5 5h-2h-3q-1 -1 -4.5 -5t-4.5 -5v-2zM430 342h9v-6q-8 0 -9 6zM711 398q0 6 4 10.5t10 4.5t10 -4.5t4 -10.5t-4 -10.5t-10 -4.5t-10 4.5t-4 10.5z" />
<glyph unicode="a" horiz-adv-x="691" d="M428 173q2 0 3.5 -2t1.5 -3q3 -9 4 -15.5t1 -12.5t-0.5 -13.5t0.5 -18.5q2 -29 20.5 -49t40.5 -36q4 -2 10 -6l12 -8t10.5 -6.5l4.5 -2.5h10l10 9.5t23.5 23t27.5 28t23 23.5q4 4 9.5 10t10.5 12t8.5 10.5l3.5 4.5v11q-8 0 -14.5 -4.5t-13 -10.5t-13.5 -10.5t-17 -4.5 q-20 0 -36.5 14t-21.5 34q-3 45 -4 80.5t-1 76.5v25q0 9 0.5 22t1.5 26t2 22t1 10l70 69v3q0 7 -9 7t-16.5 -2.5t-16.5 -2.5q-23 0 -45 9.5t-42.5 23.5t-38.5 30.5t-33 30.5l-9 9h-5q-5 0 -7 -0.5t-8 -4.5q-29 -19 -52.5 -34t-53.5 -27q-4 -1 -17 -5.5t-28 -9.5t-28 -10 t-16 -7q-24 -12 -51 -35t-50.5 -51.5t-38.5 -60.5t-15 -61q0 -5 0.5 -8.5t4.5 -8.5q-2 -27 -1 -53.5t7 -51.5t18 -48t32 -43q11 -11 25 -17.5t27 -15.5q7 -5 19 -17t25 -12l2.5 1t3.5 1q4 3 16 11.5t24.5 18.5t24 18.5t16.5 11.5q10 7 31.5 24.5t45 34.5t43.5 30.5t28 13.5z M462 103q-5 38 -5.5 72.5t-0.5 72.5v15q0 12 0.5 24.5t0.5 23.5v17q9 2 16.5 8t16.5 6q4 0 4 -1l23 -23l10 -187q0 -11 6.5 -19t15 -13.5t18 -10t16.5 -9.5v-2v-3q-1 0 -4 -3.5t-5 -4.5q-2 -2 -7.5 -7t-11.5 -10.5t-11.5 -10t-7.5 -6.5h-2q-9 0 -19.5 8.5t-20.5 20t-19 23.5 t-13 19zM71 308h2q1 0 5 -4l5 -5h2q5 0 8.5 6.5t3.5 10.5q0 9 -8.5 11.5t-15.5 0.5q2 5 5 9.5t10 4.5q4 0 4 -1q3 -1 9.5 -8.5t8.5 -9.5q-2 -32 0.5 -68t13.5 -69.5t32.5 -59.5t57.5 -37q2 -1 12 -2.5t12 -2.5l1.5 -2t1.5 -3q-8 -9 -21.5 -23t-26.5 -14h-2q-18 6 -40 21.5 t-41.5 35.5t-32.5 42t-13 41v122q0 4 4 4h3zM130 282q0 31 2.5 60.5t11.5 56.5t26.5 49t47.5 38q1 1 9 3.5t17.5 5.5t19.5 6t16 4h6q42 0 81 -21.5t66 -53.5q0 -9 1 -30.5t2 -46.5t1.5 -46.5t0.5 -30.5v-32v-34q-3 -11 -11.5 -16.5t-16.5 -11.5q-14 -9 -31 -22.5t-36 -26 t-39.5 -21.5t-40.5 -9q-34 0 -59 17t-41.5 43.5t-24.5 58t-8 60.5zM78 262q0 -10 10 -10q9 0 9 10q0 9 -9 9q-10 0 -10 -9zM480 266q0 -9 10 -9q9 0 9 9q0 10 -9 10q-10 0 -10 -10zM475 316q0 -4 3.5 -10.5t8.5 -6.5t8.5 6.5t3.5 10.5v2l-4.5 4.5t-4.5 5.5h-3h-2 q-1 -2 -5 -5.5t-5 -4.5v-2zM92 365q4 6 10 6q0 -9 -5 -11zM475 379q0 5 4 10t11 5q6 0 10 -5t4 -10q0 -6 -4 -10.5t-10 -4.5q-7 0 -11 4.5t-4 10.5z" />
<glyph unicode="b" horiz-adv-x="610" d="M29 112q34 -1 64.5 -7.5t59.5 -18t57 -25.5t58 -30q9 -5 24.5 -14.5t24.5 -9.5q4 0 8.5 1.5t3.5 9.5q38 43 82 78t82 73.5t63 85t25 112.5q0 46 -20 82t-54 65q-20 16 -37 24t-34 27q0 1 -3 6.5t-7.5 11.5t-5.5 6q-2 0 -2 -1q-26 -20 -47 -37.5t-52 -32.5q-2 -1 -12 -4.5 t-12 -4.5q-3 -2 -11.5 -8.5t-18.5 -14t-18.5 -14.5t-11.5 -10h-4q-11 0 -13 10.5t-2 18.5v242q0 25 8.5 46.5t23.5 37.5t36 25t45 9q7 0 21 -2t28 -6t24.5 -11.5t10.5 -17.5v-5q-14 -2 -28 -6t-25.5 -11.5t-19 -19t-7.5 -27.5q0 -29 22 -46t51 -17q34 0 48.5 23.5t14.5 54.5 q0 26 -13 45.5t-33.5 33t-45 20t-47.5 6.5q-39 0 -76 -14t-66 -38.5t-48 -58t-22 -72.5q0 -3 -2 -13.5t-3 -14.5v-436q0 -28 -13.5 -45.5t-29 -28.5t-29 -16.5t-13.5 -8.5q0 -1 0.5 -3.5t0.5 -3.5zM108 132q0 8 8.5 17.5t10.5 18.5q8 36 7 74.5t-2 74.5q5 7 14.5 15.5 t18.5 8.5q10 0 17 -8.5t17 -10.5v-154q0 -9 23 -21t51 -24t51 -23t23 -20v-2l-32 -32h-4q-13 0 -25 5t-23.5 12t-22 14t-19.5 11q-2 1 -11.5 4.5t-21.5 8l-24 9t-19 6.5q-1 1 -5.5 2t-10 2.5t-10.5 3t-6 1.5q-1 1 -2.5 2t-2.5 3v2zM221 186v94q0 3 -1 13t-1.5 22t-1.5 22 t-1 13v3v2q0 4 1 13.5t1.5 21t1.5 21.5t1 14q10 11 21.5 23t24.5 21.5t27 15.5t30 6q41 0 72 -18.5t51.5 -48t30.5 -66.5t9 -74q4 -5 4.5 -8t0.5 -8q0 -50 -25.5 -89t-63.5 -67q-9 -7 -10.5 -8.5t-9.5 -1.5q-9 0 -33 10t-50 23.5t-49 27.5t-30 23zM505 313q0 10 9 19t20 9 q8 0 13.5 -5.5t5.5 -12.5q0 -22 -10 -45t-27 -36q-1 22 -6 37.5t-5 33.5zM160 265q0 -9 9 -9q10 0 10 9q0 11 -10 11q-9 0 -9 -11zM150 316q0 -5 3.5 -11t8.5 -6t8.5 6t3.5 11v1q-1 2 -4.5 5t-4.5 4h-3h-2q-1 -1 -5 -4t-5 -5v-1zM520 316q0 -5 3.5 -11t8.5 -6t8.5 6t3.5 11 v1q-1 2 -4.5 5t-5.5 4h-2h-3q-1 -1 -4.5 -4t-4.5 -5v-1zM150 378q0 14 15 14q14 0 14 -14t-14 -14q-15 0 -15 14zM520 378q0 14 14 14q15 0 15 -14t-15 -14q-14 0 -14 14z" />
<glyph unicode="c" horiz-adv-x="450" d="M29 296q0 -66 13 -113.5t41 -81t72.5 -56.5t107.5 -41h5q6 0 8 4q21 35 50 59l58 48q4 3 9.5 8.5l10.5 10.5t9 9.5t4 5.5v8h-5q-19 -14 -34.5 -23t-31.5 -14t-34 -7.5t-42 -2.5q-23 0 -44 11.5t-38 29.5t-29 40t-18 42q-4 14 -4.5 31.5t-9.5 28.5v33q0 18 0.5 42.5 t4.5 41.5q2 10 10 26t19.5 31t24.5 26t25 11h5q25 -17 44.5 -27.5t51.5 -10.5q18 0 35.5 12.5t31 30.5t21.5 38.5t8 36.5q-6 0 -11 -5t-9.5 -11t-9 -12.5t-8.5 -9.5q-2 -1 -11 -1h-10q-18 0 -29.5 6.5t-19 15t-12 15t-9.5 6.5h-3q0 -3 -5 -5q-21 -26 -43 -41t-49 -34 q-26 -18 -52.5 -40t-48 -48.5t-35.5 -57.5t-14 -66zM52 228v35q0 7 -0.5 20t2 26t8.5 22.5t19 9.5q8 0 13.5 -6.5t8.5 -12.5q1 -46 12.5 -89t35 -76t60 -52t89.5 -17v-5q-1 -1 -7 -8t-15.5 -17.5t-14.5 -16.5q-5 -5 -6 -5h-6q-25 0 -48.5 9.5t-44.5 24.5t-39.5 33t-33.5 36 q-16 18 -20 42.5t-13 46.5zM76 265q0 -9 9 -9q10 0 10 9q0 10 -10 10q-9 0 -9 -10zM66 314q0 -3 3.5 -9.5t8.5 -6.5t8.5 6.5t3.5 9.5v3l-9 9h-3h-2q-1 -1 -5 -4.5t-5 -4.5v-3zM71 371q0 9 10 11.5t15 2.5q0 -7 -3 -15t-12 -8q-10 0 -10 9z" />
<glyph unicode="d" horiz-adv-x="577" d="M34 263q0 -78 34.5 -134t105.5 -88q6 -3 17.5 -8.5t24 -11t24.5 -9.5t21 -4h2q2 2 5.5 3t4.5 2q2 1 8 7.5t13 14t13 13.5t8 7q24 21 57 36t60 30q30 17 51 42t34.5 54.5t20 62.5t6.5 66q0 68 -30 117.5t-75.5 87t-98.5 66.5t-98.5 56.5t-75.5 56t-30 66.5q0 32 19.5 50.5 t51.5 18.5q24 0 36.5 -11.5t29.5 -30.5q1 -1 4 -1h5q11 0 13 3.5t2 13.5q0 17 -15.5 33t-33.5 16q-69 0 -109 -37.5t-40 -107.5q0 -42 25.5 -78t56.5 -62.5t56.5 -42.5t25.5 -20v-2q0 -5 -5 -5q-16 -8 -32 -16.5t-32 -16.5q-44 -23 -83.5 -55t-62.5 -77q-12 -24 -13 -51 t-1 -54zM52 280v19t1 18q2 7 7.5 13.5t10.5 10.5q12 -6 17.5 -13t7.5 -15t2 -18q0 -9 2 -20q7 -45 19.5 -78.5t34 -56.5t54 -37t79.5 -20l2 -2t3 -2v-3v-2l-34 -33h-6q-14 0 -30 6.5t-28 12.5q-70 32 -106 87.5t-36 132.5zM118 319q0 38 6.5 64.5t20.5 46.5t36.5 37t54.5 37 q11 8 27 16t28 8q5 0 7 -0.5t7 -4.5q72 -40 113.5 -98t41.5 -144q0 -38 -7 -70.5t-24 -56.5t-44.5 -38t-69.5 -14q-49 0 -86 16.5t-61.5 46t-37 69t-12.5 85.5zM483 299q9 -3 16.5 1.5t7.5 15.5v1q-1 2 -4.5 5t-5.5 4h-2h-3q-1 0 -4.5 -1.5t-4.5 -2.5h-6q0 7 6.5 13t13.5 6 q14 0 19 -10t5 -21q0 -8 -3.5 -24t-9 -32.5t-13.5 -29t-17 -12.5q0 22 1.5 44t3.5 43zM66 275q0 -10 10 -10t10 10q0 9 -10 9t-10 -9zM62 310v-2l4 -4l3 -2q1 0 1.5 1l0.5 1q1 0 3 3.5t2 5.5v3v1q0 1 -2 3t-3 2l-0.5 0.5t-1.5 0.5l-3 -1l-1.5 -4t-2.5 -5v-3zM81 373 q0 10 7 10h2q2 0 3 -2t2 -3v-2v-3l-9 -9q-5 2 -5 9zM483 378q0 14 14 14q15 0 15 -14t-15 -14q-14 0 -14 14z" />
<glyph unicode="e" horiz-adv-x="453" d="M30 302q0 -51 5 -88t16.5 -64t29 -46.5t42 -35.5t57.5 -31t74 -33h5q36 38 74.5 74t79.5 71q5 5 8 9.5t3 11.5q-10 0 -18.5 -5t-16.5 -11.5t-15.5 -13.5t-15.5 -10q-20 -8 -35 -9t-35 -1q-25 0 -51 9.5t-47 27t-34.5 41t-13.5 52.5q0 10 14.5 15t34 8t39 5t29.5 6 q28 11 53.5 26.5t45 36t31 47t11.5 58.5v28q-17 45 -51.5 69.5t-76.5 43.5h-3q-6 0 -11.5 -6t-10.5 -14.5t-10 -16t-10 -10.5q-34 -22 -69 -46t-63.5 -52.5t-46.5 -64t-18 -81.5zM77 341q3 0 5 -1q3 -2 11.5 -10.5t10.5 -12.5q1 -2 2 -7.5t1.5 -11.5t1 -11.5t0.5 -6.5 q12 -46 23 -80t31 -56.5t53.5 -34t89.5 -12.5v-5q-1 -1 -8 -8.5t-17.5 -19t-16.5 -18.5q-6 -8 -7.5 -9t-9.5 -1q-26 0 -59.5 17.5t-63.5 44.5t-50.5 59t-20.5 61v104q0 1 7 8t12 10q0 1 2 1h3zM77 265q0 -9 9 -9q10 0 10 9q0 10 -10 10q-9 0 -9 -10zM208 499q42 0 70 -27 t28 -69q0 -29 -15 -52t-37.5 -39.5t-50 -25t-52.5 -8.5q-1 0 -3 1l-2 1q-3 2 -10.5 9t-7.5 9v117q0 35 22.5 59.5t57.5 24.5zM62 314q0 -3 3.5 -9.5t8.5 -6.5t8.5 6.5t3.5 9.5v3l-9 9h-3h-2l-4.5 -4.5t-5.5 -4.5v-3zM272 312q7 8 17.5 16t21.5 8q7 0 8 -5q-5 -7 -18.5 -15.5 t-23.5 -8.5q-1 0 -3 2t-2 3zM72 374q0 14 10 14q9 0 9 -11q0 -9 -9 -13q-2 1 -5.5 4t-4.5 5v1zM341 388l2 -2q1 0 2.5 -1.5l2.5 -2.5v-3q0 -5 -6 -6.5t-10 -1.5q0 5 1 11t8 6z" />
<glyph unicode="f" horiz-adv-x="440" d="M117 89v-309q0 -3 3 -7.5t8 -4.5q0 37 -0.5 76t5 76.5t20 71t44.5 60.5q6 5 19 12t26.5 14t24 12t10.5 6v2q-24 9 -34.5 21t-13.5 27.5t-3.5 34t-4.5 39.5v319l9 11h94l1 8t2 13v3v2q-1 4 -2 10l-1 6h-94q-1 0 -2 3t-3 4q-2 2 -3 5.5l-1 3.5v160q0 5 5.5 12t9.5 7 q1 0 2 -0.5l1 -0.5q14 -15 32.5 -31t42.5 -16q19 0 41 9t40.5 24t30.5 34.5t12 40.5h-7q-2 -5 -12.5 -15t-15.5 -12q-1 -2 -8 -2h-9q-18 0 -29 8.5t-18.5 18t-12 18t-9.5 8.5h-3q-23 -29 -47.5 -44.5t-47.5 -27t-43.5 -21.5t-35 -27.5t-22.5 -46.5t-5 -76q-8 -8 -11 -17 t-4 -19h-69q-5 0 -7.5 -10.5t-2.5 -12.5q0 -14 10 -19t23.5 -6t28 0t22.5 0q1 -2 3 -3t2 -2q1 -5 3 -17.5t2 -16.5v-200q3 -5 3.5 -8t0.5 -8v-8q0 -7 -0.5 -33t-1.5 -56t-1.5 -56t-0.5 -33v-2v-3q0 -1 1.5 -4.5t2.5 -4.5zM137 47q-1 6 -1.5 21t-0.5 31v32v21v87q0 45 5 89 q7 6 12 10t12 4q10 0 17 -7.5t16 -11.5q7 -31 5 -63t-1 -63q0 -5 0.5 -15t1.5 -20.5t2 -19t1 -11.5q0 -1 1.5 -5t3 -9t3.5 -9t2 -5v-2v-3q-10 -3 -20.5 -11t-20 -17t-17.5 -18t-13 -15h-2h-3q-1 1 -2 5t-1 5zM159 263q0 -11 10 -11t10 11q0 9 -10 9t-10 -9zM150 316 q0 -4 3.5 -10.5t8.5 -6.5t8.5 6.5t3.5 10.5v2q-1 2 -5 5t-5 5h-2h-3q-1 -2 -4.5 -5t-4.5 -5v-2zM150 379q0 15 14 15q15 0 15 -15q0 -14 -15 -14q-14 0 -14 14z" />
<glyph unicode="g" horiz-adv-x="666" d="M74 -92q0 -37 15.5 -64t40 -46t55.5 -31t62 -19h68q56 0 111.5 13.5t100 42.5t72 75t27.5 111q0 29 -9 57t-23 51q-13 20 -28 35t-19 41q-2 31 -2.5 57t-1.5 50.5t-1 48.5v54v47l5 14l65 70v19q-7 0 -13.5 -3t-14 -6.5t-17 -6.5t-21.5 -3q-52 0 -100.5 20t-80.5 59 q-2 1 -6 1h-4q-5 0 -20 -8t-32.5 -19t-32.5 -22t-18 -17q-56 -25 -96.5 -50t-66.5 -58t-39 -77t-13 -105q0 -84 47 -140.5t126 -79.5h5q9 0 16 12t11 16l10.5 10.5l13.5 13.5t12.5 12t6.5 7q33 26 66 48t65 49q3 3 8 7t5 3l5 -5q-1 -22 0.5 -45t7 -44.5t16 -40.5t28.5 -33 q1 -1 3 -2.5t2 -2.5q12 -17 19 -31t11 -29t5.5 -32.5t1.5 -39.5q0 -14 -9.5 -29.5t-18.5 -25.5q-22 -24 -44 -38t-46 -21.5t-51.5 -9.5t-59.5 -2h-11q-7 0 -15 0.5t-16 0.5h-10q-14 3 -29 7t-29.5 10.5t-27 16t-21.5 21.5q1 4 16 6t32 7.5t31.5 17t14.5 34.5q0 35 -21 56 t-55 21q-13 0 -28 -2.5t-27.5 -9t-20.5 -17.5t-8 -27zM97 -100q0 10 6 18.5t15 14.5t19.5 9t19.5 3t18 -5t17 -12.5t13 -16.5t5 -18q0 -12 -7.5 -20t-18.5 -13.5t-23 -7.5t-21 -2q-2 0 -9.5 0.5t-9.5 0.5q-24 18 -24 49zM481 343q1 0 3 -0.5l2 -0.5q2 -1 9.5 -7t9.5 -7h2h3 q0 4 5 4h2h1q1 -5 3 -21t2 -21q0 -8 1 -27t2 -40.5t1.5 -41t0.5 -26.5q3 -24 15 -40.5t25.5 -33t24 -37t10.5 -52.5q0 -16 -3.5 -34t-10 -35.5t-16 -33t-21.5 -25.5l-10 118q-2 22 -15.5 38.5t-28.5 32.5t-27.5 33.5t-12.5 40.5v196q0 2 7 9t11 10q1 0 2.5 0.5t2.5 0.5z M55 236v32t3 28t10 24t21 22l1.5 0.5t2.5 0.5q11 0 18 -15q4 -30 7 -63t12.5 -63.5t27.5 -55.5t52 -38q1 0 6 -1.5t10.5 -3t10 -3t5.5 -2.5q1 0 3 -1.5t2 -2.5q-3 -4 -13.5 -16.5t-14.5 -16.5l-14 -14l-5.5 1.5t-7.5 3.5q-29 12 -53.5 30.5t-43.5 41.5t-29.5 51.5 t-10.5 60.5zM135 336q0 25 10.5 56t29.5 57t45 44t56 18q1 0 2 -0.5t3 -0.5q1 0 6 -2.5l11 -5.5t11.5 -6t8.5 -4q11 -6 28 -16.5t33.5 -20t28.5 -17t13 -7.5l8 -10q1 0 1.5 -13t1.5 -30.5t1.5 -36.5t0.5 -31v-8q0 -5 0.5 -11.5t0.5 -13.5v-9q0 -6 -0.5 -17t-0.5 -12l-5 -13 q0 -1 -5 -6.5t-11.5 -12.5t-14 -14t-11.5 -11q-29 -26 -61.5 -43t-73.5 -17q-38 0 -60.5 23t-35.5 56.5t-17 70.5t-4 64zM89 268q0 -10 9 -10q10 0 10 10q0 9 -10 9q-9 0 -9 -9zM471 272q0 -10 10 -10t10 10t-10 10t-10 -10zM79 317q0 -5 3.5 -11t8.5 -6t8.5 6t3.5 11v2 q-1 1 -4.5 4t-5.5 5l-2 1q-1 0 -1.5 -0.5l-0.5 -0.5q-2 -2 -5.5 -5t-4.5 -4v-2zM467 317q0 -5 3.5 -11t8.5 -6t8.5 6t3.5 11v2q-2 1 -5 4l-5 5l-0.5 0.5t-1.5 0.5l-3 -1q-1 -2 -4 -5l-4 -4q0 -1 -0.5 -1.5zM89 372v2q1 2 6.5 7.5l7.5 7.5q4 -1 4.5 -4t0.5 -6q0 -5 -3.5 -9.5 t-8.5 -4.5h-3q-1 1 -2.5 3l-1.5 2v2zM467 379q0 7 4.5 11t9.5 4q14 0 14 -15q0 -5 -4 -9.5t-10 -4.5q-5 0 -9.5 4.5t-4.5 9.5z" />
<glyph unicode="h" horiz-adv-x="612" d="M327 -205q10 -25 28 -43t47 -18q12 0 15 6.5t3 17.5q0 16 -11.5 20.5t-26 10t-26 18t-11.5 42.5q0 39 16.5 72t41 62.5t52 56.5t49.5 54q18 22 33.5 49t26.5 55.5t17.5 58t6.5 57.5q0 39 -11.5 71t-31 59.5t-45 52t-52.5 47.5q-3 2 -6.5 7.5t-7.5 11t-8 10t-6 4.5 q-3 0 -11 -8l-18.5 -18.5l-20.5 -20.5t-16 -14q-32 -20 -67 -34.5t-68 -31.5h-3h-2q-1 0 -3 2t-2 3q-5 43 -5 88v87v106q7 51 34 84t84 33q32 0 55 -11.5t43 -35.5q1 -2 3 -5t2 -4t-2 -3t-3 -2q-14 2 -32.5 1.5t-35.5 -6t-28.5 -16.5t-11.5 -31q0 -34 22 -52t54 -18 q10 0 23 4.5t24 12t19 18t8 23.5q0 35 -11.5 61t-32 43.5t-48.5 26.5t-61 9q-64 0 -114 -44q-31 -26 -50 -52t-30 -54.5t-15 -61.5t-4 -75q0 -23 2.5 -44t2.5 -43v-2q0 -1 -2 -6.5t-3 -7.5l-2.5 -4t-2.5 -5q0 -2 2 -5t3 -4q0 -8 1 -29t2 -44t1.5 -44t0.5 -29v-52 q0 -36 -0.5 -60t-8 -41t-25 -29t-50.5 -24v-5q0 -7 5 -9q42 -5 78.5 -13.5t76.5 -24.5q5 -2 17.5 -8.5t26.5 -14t26 -13.5t16 -6q3 0 14 10.5t25 26.5t30.5 36t29.5 38t22 33t9 21h-11l-13.5 -18t-16 -19t-18.5 -15t-21 -6q-8 0 -24 5t-32.5 12.5t-30 15.5t-17.5 15v145 q0 2 -1 9t-1.5 14.5t-1.5 14.5t-1 9v5v5q0 4 1 11l2 14t1.5 12l0.5 5q5 12 18.5 22.5t29.5 18t33 11.5t29 4q40 0 71.5 -20.5t53.5 -52t34 -69.5t12 -74q0 -64 -22.5 -119.5t-56.5 -109.5q-16 -25 -31.5 -47.5t-27.5 -45.5t-19.5 -49t-7.5 -57v-15t2 -15zM91 108v2 q0 2 3.5 7.5t8 12.5t8 13.5t4.5 11.5q2 5 3.5 21t1.5 21q0 7 1 25t1.5 38.5t1.5 38.5t1 25q5 6 12.5 12.5t15.5 6.5q11 0 18 -9.5t16 -14.5v-169q0 -3 15 -11t34.5 -16.5t37.5 -16t24 -8.5v-2v-2q-3 -5 -7.5 -13t-9.5 -15.5t-11 -13t-12 -5.5q-14 0 -31.5 11.5t-31.5 17.5 q-26 10 -52 16t-52 16zM509 236q0 22 -2.5 43t-2.5 43q0 7 10.5 14t17.5 7q14 0 23.5 -11.5t9.5 -23.5q0 -16 -4.5 -39.5t-12.5 -47.5t-19 -44.5t-25 -31.5v12q0 20 2.5 39.5t2.5 39.5zM143 272q0 -9 10 -9q9 0 9 9q0 10 -9 10q-10 0 -10 -10zM527 272q0 -9 10 -9q9 0 9 9 q0 10 -9 10q-10 0 -10 -10zM138 317q0 -4 3.5 -10.5t8.5 -6.5t8.5 6.5t3.5 10.5v2q-1 1 -4 5t-5 5h-3h-2l-10 -10v-2zM517 317q0 -4 3.5 -10.5t8.5 -6.5q6 0 9 6.5t3 10.5v2q-1 1 -4 5t-5 5h-3h-2q-1 -1 -4.5 -5t-3.5 -5zM138 380q0 6 4.5 10.5t10.5 4.5t10 -4.5t4 -10.5 t-4 -10.5t-10 -4.5t-10.5 4.5t-4.5 10.5zM517 380q0 6 5 10.5t10 4.5q6 0 10 -4.5t4 -10.5t-4 -10.5t-10 -4.5q-5 0 -10 4.5t-5 10.5z" />
<glyph unicode="i" horiz-adv-x="362" d="M126 130q4 -17 14 -39t24 -41.5t32 -32.5t38 -13q6 0 7 1.5t7 7.5q5 5 17 18t25.5 28t25 28.5t16.5 19.5t7.5 11.5t2.5 13.5q-8 0 -13 -4t-9.5 -9t-9.5 -9t-13 -4q-23 0 -38 17t-20 39q-2 34 -3 63.5t-2 57.5t-1 56v61v12t0.5 15.5t0.5 12.5v6l5 10l70 71v11 q-14 0 -23 -6t-24 -6q-20 0 -37 11t-30.5 24t-24 24t-17.5 11h-3q-2 -2 -8 -6t-13 -9.5t-13 -10t-8 -6.5t-10.5 -7.5t-17.5 -11.5t-17.5 -11.5t-10.5 -6.5q-4 -3 -11.5 -8.5t-14.5 -12t-12.5 -14t-5.5 -14.5q9 0 17 3.5t15.5 7t15.5 7t18 3.5q14 0 29.5 -12t18.5 -26 q-2 -81 0 -166.5t4 -164.5zM146 149v176q9 2 16 8.5t16 6.5q7 0 14 -4.5t13 -10.5t9.5 -13.5t3.5 -13.5v-154q0 -10 5 -19.5t13 -18t17.5 -14.5t18.5 -9v-5l-42 -42h-15l-4 3.5t-9.5 9t-10.5 11t-8 8.5q-8 9 -12.5 19.5t-8 21l-7 21t-9.5 19.5zM173 275q0 -11 10 -11 q9 0 9 11q0 9 -9 9q-10 0 -10 -9zM164 314q0 -5 3.5 -10.5t8.5 -5.5t8.5 5.5t3.5 10.5v3q-2 1 -5.5 4t-4.5 4l-0.5 0.5t-1.5 0.5l-3 -1q-1 -1 -4.5 -4t-4.5 -4v-3zM164 377q0 14 14 14t14 -14q0 -15 -14 -15t-14 15zM122 790q0 -29 19 -46t49 -17q11 0 22 6t20 15t14.5 20 t5.5 22q0 17 -10.5 34.5t-26.5 23.5h-25q-32 0 -50 -12.5t-18 -45.5z" />
<glyph unicode="j" horiz-adv-x="394" d="M67 -156q0 -27 11.5 -46.5t30 -33t42.5 -20t48 -6.5q28 0 59.5 16t57.5 40.5t43.5 54t17.5 57.5v5q0 6 -0.5 19.5t-1.5 28.5t-2 28t-1 18q-7 18 -14 32.5t-15.5 26.5t-19 23.5t-25.5 25.5q-11 8 -23 15.5t-15 21.5q-1 32 -2 60t-1.5 54.5t-0.5 52.5v56v39q0 8 1.5 22.5 t2.5 15.5l80 79v4q0 11 -10 11h-5q-8 -5 -12.5 -9.5t-8 -7.5t-9 -5t-14.5 -2q-20 0 -37.5 8t-34 20t-31 25.5t-26.5 25.5l-9 -5q-2 0 -14.5 -11.5t-29 -27.5l-33 -32t-26.5 -26q-3 -4 -8 -10t-9.5 -12t-7.5 -11t-3 -6v-9q10 0 17 6t14 13t16 13t24 6q11 0 19.5 -3t17.5 -11 q4 -3 11 -10l12 -12l6 -6v-117l1 -14l2 -192q1 -34 11.5 -51.5t26 -28t33.5 -20t33 -27.5q16 -19 25 -40.5t21 -43.5v-32q0 -54 -31.5 -88.5t-85.5 -34.5q-11 0 -24 2t-23.5 7.5t-17.5 14t-7 21.5q20 0 37.5 0.5t30.5 6t20.5 18t7.5 37.5q0 30 -21 44t-48 14q-33 0 -53 -23 t-20 -54zM86 -156q0 8 5.5 17.5t13 17.5t16.5 13.5t17 5.5q18 0 33 -9t15 -29q0 -17 -12.5 -27.5t-29.5 -10.5q-6 0 -16 -0.5t-19.5 1t-16 6t-6.5 15.5zM170 196q0 36 0.5 63t4.5 64q5 7 10.5 13t13.5 6q6 0 13 -4t13 -9.5t10 -12t4 -11.5v-174q0 -6 18 -22t39.5 -36 t39.5 -42.5t18 -43.5v-81q0 -5 -2 -13.5t-5.5 -17t-8.5 -14.5t-10 -6q0 21 -2.5 45t-9.5 46.5t-19.5 43t-31.5 34.5q-2 1 -10 4.5t-9 5.5q-29 16 -44.5 32t-22.5 34.5t-8 42t-1 53.5zM194 271q0 -9 10 -9t10 9q0 11 -10 11t-10 -11zM185 317q0 -5 3.5 -11t8.5 -6t8.5 6 t3.5 11v1q-1 2 -5 5t-5 5l-2 1l-3 -1q-1 -2 -4.5 -5t-4.5 -5v-1zM185 379q0 15 14 15q15 0 15 -15q0 -14 -15 -14q-14 0 -14 14zM109 788q0 -32 23 -43t50 -11h32q37 22 37 60q0 31 -17.5 44.5t-48.5 13.5q-29 0 -52.5 -16t-23.5 -48z" />
<glyph unicode="k" horiz-adv-x="648" d="M35 97q23 -2 45.5 -11.5t43.5 -20.5q9 -6 19.5 -15.5t21.5 -18.5t22 -16t21 -7q7 0 11.5 7t7.5 13l107 121v14h-5l-26 -26t-32 -12q-5 0 -14 1.5t-18 4.5t-15.5 8.5t-6.5 14.5v121q0 1 2 2t3 3q29 15 61 28.5t65 13.5q22 0 35 -10.5t19 -27t7.5 -37t1.5 -41.5v-40t3 -32 q7 -29 23 -55t42 -43q10 -6 25 -14.5t27 -8.5h4q2 3 7.5 11t11.5 17t11.5 17.5t7.5 11.5q6 8 14 17.5t15.5 19.5t13 20.5t5.5 22.5q-10 0 -15.5 -5.5t-10.5 -12t-11 -12t-16 -5.5q-18 0 -29.5 11.5t-17.5 27.5q-1 37 -3.5 68.5t-13.5 55t-34 38.5t-65 20l-1 2t-1 3 q0 3 17.5 13t39 28.5t39 45.5t17.5 64q0 23 -13 44t-32.5 36.5t-43 25t-44.5 9.5q-7 0 -12.5 -4.5t-10 -10.5l-9 -12t-8.5 -10q-27 -24 -56 -44t-55 -45h-15q-5 32 -4.5 64t0.5 66q0 39 -1 79.5t8.5 72.5t34.5 52.5t78 20.5q6 0 17 -1.5t22.5 -5t19.5 -9.5t8 -15v-2 q-11 -2 -24.5 -5t-25.5 -9t-20.5 -16t-8.5 -25q0 -36 21.5 -53.5t54.5 -17.5q29 0 49 18t20 47q0 28 -13 49.5t-34 35.5t-47 21.5t-51 7.5q-37 0 -75.5 -15t-69.5 -41.5t-51 -61.5t-20 -74v-230q-4 -3 -13.5 -12.5t-9.5 -18.5q0 -13 5.5 -16.5t13.5 -13.5q4 -6 4 -13 q0 -6 -1 -13t-0.5 -13.5t5.5 -11.5l-4 -146q-1 -16 -12 -27.5t-24 -20.5t-23.5 -15.5t-10.5 -12.5v-3zM100 109q0 6 3.5 12t8 12t8.5 12t4 13l9 164l2 1.5t3 2.5q8 6 11.5 10.5t11.5 4.5q1 0 8 -4.5t15.5 -10.5t17 -11.5t11.5 -7.5l1 -1q0 -1 -0.5 -1.5t-0.5 -2.5 q-16 -14 -18 -24.5t-2 -33.5q0 -29 1.5 -54t3.5 -56q5 -16 21.5 -22t30.5 -10v-5l-2.5 -3.5t-6.5 -8t-7.5 -8.5t-6.5 -7q-5 -6 -14 -15t-10 -9h-5q-3 2 -10.5 7.5t-16.5 11.5t-17 11t-11 7t-8.5 4.5t-12.5 6t-12.5 7t-8.5 6.5q-1 0 -1 2zM432 154q0 38 -4.5 77t-4.5 77 q5 0 16.5 -3t11.5 -9q0 -5 -4.5 -7.5t-4.5 -8.5q0 -10 9 -10q8 0 9.5 7t6.5 7q6 0 11.5 -10t9.5 -23t7 -25t3 -16q0 -5 1 -15.5t1.5 -22.5t1.5 -23t1 -15q5 -13 10.5 -18.5t11.5 -8.5t12 -5.5t13 -9.5v-3q0 -12 -10 -25.5t-23 -13.5q-19 0 -32 14t-24 28t-16 30.5t-13 31.5z M156 275q0 -10 10 -10q9 0 9 10q0 9 -9 9q-10 0 -10 -9zM147 314q0 -3 3.5 -9.5t8.5 -6.5t8.5 6.5t3.5 9.5v3l-5 5t-5 4h-2h-3q-1 -1 -4.5 -4t-3.5 -5q-1 0 -1 -3zM213 365v36q0 4 0.5 11t1 13.5t1.5 12l1 5.5q7 14 21.5 27t32 22.5t36 15.5t33.5 6q35 0 62 -21t27 -59 q0 -35 -19 -55.5t-47.5 -31.5t-61 -14t-58.5 -3q-4 0 -12 0.5t-9 0.5l-9 10v24zM147 378q0 6 4.5 10t9.5 4q14 0 14 -14t-14 -14q-5 0 -9.5 4t-4.5 10zM447 408v2q1 2 4 5.5t5 4.5l10 -10q-1 -1 -5 -4.5t-5 -4.5h-2h-3q-1 1 -2.5 2t-1.5 3v2z" />
<glyph unicode="l" horiz-adv-x="469" d="M29 102q42 -5 81.5 -15.5t76.5 -31.5q3 -1 15 -8t24.5 -14.5t23.5 -13.5t13 -6t11.5 10t23.5 25t29.5 33.5t28.5 35.5t21.5 30.5t8.5 18.5q-10 0 -17.5 -6t-15 -13t-15.5 -13t-20 -6q-4 0 -10.5 1t-7.5 1l-79 43q-7 2 -8.5 10t-1.5 13q2 106 -1.5 212t-3.5 212v66 q1 31 2 59.5t10 49.5t29 33.5t58 12.5q20 0 40.5 -4.5t33.5 -22.5l-5 -5q-14 -1 -29.5 -3.5t-28.5 -9t-21.5 -17.5t-8.5 -29q0 -68 68 -68q13 0 27.5 4t26.5 11.5t20 19.5t8 28q0 27 -11 48.5t-30 36.5t-43 22.5t-50 7.5q-35 0 -70.5 -14t-64 -39t-46.5 -58t-18 -71v-482 q0 -22 -12.5 -36.5t-27 -24.5t-27 -16t-12.5 -10v-2q0 -1 2 -3t3 -2zM98 116v3v2q2 1 6 6.5t4 6.5q2 4 5 11t5.5 13.5t4.5 12l2 5.5v146q7 5 14 12t16 7q11 0 17.5 -8.5t17.5 -10.5v-146l7 -22l103 -52v-2q0 -4 -5.5 -11.5t-13 -15l-14.5 -14.5l-9 -9h-2q-9 0 -19.5 4.5 t-20.5 10.5t-20 12.5t-17 10.5q-20 9 -40.5 14t-40.5 14zM150 280q0 -10 10 -10q9 0 9 10q0 9 -9 9q-10 0 -10 -9zM140 316q0 -5 3.5 -11t8.5 -6q6 0 9 6t3 11v1q-1 2 -4 5t-5 4l-0.5 1t-2.5 1l-2 -2q-1 -1 -4.5 -4t-5.5 -5v-1zM140 378q0 6 5 10t10 4q14 0 14 -14t-14 -14 q-5 0 -10 4t-5 10z" />
<glyph unicode="m" horiz-adv-x="1174" d="M88 110v-1q1 -1 2 -3t3 -2q32 -9 50.5 -15t31.5 -16t24 -27.5t29 -49.5l2.5 -2.5t2.5 -1.5h2q5 0 9 7t7.5 16.5l7 19t6.5 13.5l8 8t10.5 10t9.5 9t6 5q4 4 17.5 9t28.5 10t26.5 9.5t11.5 6.5q0 6 -13.5 10t-30.5 10.5t-33 17.5t-21 31q-1 9 -2 32t-1.5 49.5t-1 50 t-0.5 32.5v32v33q0 1 1.5 4.5t3.5 4.5q13 15 28 30t32.5 27.5t37.5 20.5t41 8q32 0 52 -11t31.5 -30t16.5 -43.5t5.5 -51t-0.5 -53t-1 -49.5v-72q-3 -19 -12 -31t-21.5 -20t-27 -14.5t-28.5 -14.5l-0.5 -1t-0.5 -2l0.5 -0.5t0.5 -1.5t2 -2.5t3 -1.5q20 -4 35.5 -8.5 t29 -11.5t26 -18t26.5 -28q3 -3 5.5 -11t5.5 -16.5t7 -14.5t10 -6q1 0 11 19t28 41.5t44 40.5t61 17q2 1 3.5 3l1.5 2l1 2q0 1 -0.5 1.5l-0.5 0.5q0 5 -5 5q-10 3 -26 7.5t-31 12t-25.5 19t-10.5 27.5v225q1 1 5 5.5t10 11.5t9 10q18 22 45.5 40t56.5 18q7 0 28 -5t43 -13 t39 -17.5t17 -17.5l10 -304q8 -13 17.5 -34.5t22.5 -42t29 -35.5t36 -15h7l12.5 12.5t18 18.5t18 18.5l11.5 11.5q1 1 4 5.5l6 9l6 9t4 5.5q8 9 15 15t12 12t8 13t3 19q-9 0 -14 -5.5t-10 -12.5t-12.5 -12.5t-23.5 -5.5q-14 0 -25 8t-19 20t-13 26t-5 25q-1 8 -2 28 t-1.5 42.5t-1 42.5t-0.5 28v51v52q1 2 4 7t5 7q4 5 13.5 17t21 25.5t21.5 25t14 16.5v21q-5 0 -9.5 -6.5t-11.5 -14t-17.5 -13.5t-25.5 -6l-6 1q-5 0 -15.5 3t-22.5 7l-22.5 7.5t-14.5 5.5q-8 3 -17.5 10.5t-19.5 16t-20.5 14.5t-19.5 6h-7q-9 -6 -32 -22t-48.5 -34t-48 -34 t-31.5 -23q-3 -2 -9.5 -7t-14 -11t-14 -11.5t-9.5 -7.5h-2q-3 0 -16 23.5t-34 52t-48 52t-57 23.5q-10 0 -13 -1.5t-12 -9.5q-45 -38 -86.5 -71.5t-91.5 -68.5h-2h-2q-5 2 -5 5q-6 25 -13 41.5t-17 30t-23 26t-31 29.5q-8 7 -13.5 10.5t-16.5 3.5q-2 0 -4.5 -0.5l-2.5 -0.5 l-113 -116q-4 -4 -5 -9.5t-1 -10.5h6q2 2 7 6.5t11 9t11 8t8 4.5q1 1 7 1h11q33 0 48.5 -24.5t20.5 -58t4 -68t-1 -55.5v-31t-0.5 -27.5t-2 -27.5t-3.5 -32q-3 -14 -15.5 -23t-27 -15.5t-25.5 -11t-11 -9.5zM162 113v2q0 4 3.5 8.5t8 9t8 9t4.5 9.5q1 4 3 16.5t2 16.5 q0 8 1 27.5t2 42t1.5 42.5t0.5 28q5 6 12 12.5t15 6.5t16.5 -6t16.5 -8q2 -1 4.5 -2.5t2.5 -2.5v-160q0 -1 4.5 -8t7.5 -10l28 -28v-5q-10 -4 -20 -11.5t-19.5 -16.5t-17.5 -17.5t-13 -14.5q-14 15 -32 32.5t-39 27.5zM922 164v160l1 2t2 3q8 6 12 10t12 4q6 0 10.5 -3l9 -6 l9 -6t11.5 -3v-137q0 -14 6.5 -26t17 -22.5t22 -18t22.5 -12.5v-5l-51 -51l-3 -1q-14 0 -26.5 14t-23 33t-18.5 37.5t-13 27.5zM514 122q3 4 9 10.5t12 15t10 16.5t4 15v145q8 5 14.5 12t16.5 7q8 0 16 -6t16 -8q7 -2 7 -5v-150q0 -7 5 -15t12 -15t13.5 -13t9.5 -9 q-2 -3 -13.5 -14t-24 -22.5t-23 -20.5l-10.5 -9h-2q-1 0 -1 2q-17 16 -37 31.5t-34 32.5zM219 282q0 -10 9 -10q10 0 10 10t-10 10q-9 0 -9 -10zM575 282q0 -10 10 -10q9 0 9 10t-9 10q-10 0 -10 -10zM940 282q0 -10 9 -10q10 0 10 10q0 5 -2.5 8t-2.5 8v3q0 1 2 6.5t3 6.5 v3v2q-1 2 -4.5 5.5t-5.5 4.5h-2h-2q-2 -1 -5.5 -4.5t-4.5 -5.5v-2v-3q1 -1 5.5 -8.5t4.5 -9.5q0 -1 -2.5 -4.5t-2.5 -4.5v-5zM209 317q0 -4 3.5 -10.5t8.5 -6.5t8.5 6.5t3.5 10.5v2q-1 2 -4.5 5.5t-5.5 4.5h-2h-2q-2 -1 -5.5 -4.5t-4.5 -5.5v-2zM565 317q0 -4 3.5 -10.5 t8.5 -6.5t8.5 6.5t3.5 10.5q0 2 -1 2q0 2 -3.5 5.5l-4.5 4.5h-3h-2q-2 -1 -5 -4.5t-5 -5.5v-2zM209 380q0 7 4.5 11t9.5 4q15 0 15 -15q0 -14 -15 -14q-5 0 -9.5 4t-4.5 10zM565 380q0 15 15 15q5 0 9.5 -4t4.5 -11q0 -6 -4.5 -10t-9.5 -4q-15 0 -15 14zM935 380q0 15 14 15 q15 0 15 -15q0 -14 -15 -14q-14 0 -14 14z" />
<glyph unicode="n" horiz-adv-x="826" d="M58 120v-1t1 -1q2 -4 8 -6t12 -2.5t11 -0.5h6q30 -3 53 -21.5t38.5 -40t25 -38.5t12.5 -17h2q1 0 3 1.5t2 2.5t2 7.5t4.5 14l4.5 13.5t3 7q8 19 23 33t33.5 23t39.5 13.5t40 5.5v14q-57 8 -82.5 40t-25.5 89q0 38 1.5 80t3.5 77q27 32 65.5 56t81.5 24q15 0 32.5 -5.5 t34 -14t30.5 -19.5t22 -22q0 -11 1 -39t2 -59.5t1.5 -59.5t0.5 -39q0 -28 1 -57.5t7 -57t20.5 -51.5t42.5 -40q10 -7 19.5 -13t22.5 -6q14 0 19 9.5t13 18.5q2 2 6.5 7.5t10 11.5t9.5 11.5t6 7.5q1 1 5.5 5t9.5 9l9 9l5 5q4 4 10.5 11t12.5 14t10 12l4 5v14h-9 q-13 -15 -28.5 -26.5t-36.5 -11.5q-20 0 -31.5 14t-18 33t-9 39t-2.5 32v89v89q-3 14 2 24.5t14 18.5t20 15.5t20 15.5l10.5 10.5l12.5 12.5t10 10.5l4 4.5v14h-9q-4 -3 -16.5 -12t-16.5 -11q-1 -1 -4.5 -3t-4.5 -2h-3q-24 0 -47 8t-44 20t-41 27t-38 29q-1 0 -3 0.5l-2 0.5 q-1 0 -3 -0.5l-2 -0.5q-2 -1 -9.5 -6.5t-9.5 -6.5q-4 -3 -12.5 -9t-17.5 -12t-16.5 -11.5t-9.5 -6.5l-8 -4t-13 -7t-13 -7l-8 -4q-6 -4 -17.5 -11.5t-24 -16t-23.5 -15.5t-14 -9q-4 -3 -14.5 -11.5t-13.5 -12.5h-7h-8q-3 0 -4 5q0 38 -16.5 72t-49.5 55q-8 5 -17 12t-20 7 q-2 0 -3.5 -0.5l-1.5 -0.5l-112 -112q-2 -2 -10.5 -13t-8.5 -18v-2l5 -5h2q4 0 11 6t15.5 13t18 13t18.5 6q23 0 38 -16t23 -35q0 -12 1 -41t2 -62t1.5 -62.5t0.5 -41.5v-10q0 -23 -11 -39t-27.5 -27.5t-36 -19t-37.5 -12.5q-1 0 -1 -2zM569 284v26q9 2 16 8t16 6 q11 0 17.5 -7.5t15.5 -11.5l9 -136q1 -15 11.5 -28t21.5 -23t20.5 -16t9.5 -7t-0.5 -3l-0.5 -2q-2 -2 -7.5 -8t-11.5 -13t-11.5 -13t-7.5 -8t-5.5 -6l-3.5 -4h-3q-5 0 -15.5 7.5t-14.5 12.5q-20 23 -34.5 42t-16.5 51q-3 26 -4 63.5t-1 69.5zM143 127q5 9 13 15.5t15.5 13 t13 15.5t5.5 22v117q9 2 16 8t16 6h5q1 -1 4.5 -3.5t7.5 -5.5t7 -6l4 -4q0 -5 0.5 -17.5t1 -27t1.5 -27t2 -17.5q2 -21 8.5 -43t24.5 -36q0 -1 4.5 -2.5t5.5 -2.5l1.5 -2t1.5 -3q-8 -11 -18.5 -19t-21.5 -16.5t-21 -17.5t-18 -21l-2 -1q-2 0 -7.5 7t-12.5 16t-14 17.5 t-11 11.5q-2 2 -13.5 9.5t-13.5 8.5q-1 2 -3 3t-2 2zM217 250q0 -10 10 -10t10 10q0 9 -10 9t-10 -9zM597 250q0 -10 9 -10q10 0 10 10q0 9 -10 9q-9 0 -9 -9zM208 299q0 -5 3.5 -11t8.5 -6t8.5 6t3.5 11v2q-1 1 -5 4t-5 5l-0.5 0.5t-1.5 0.5l-3 -1q-1 -2 -4.5 -5t-4.5 -4 v-2zM587 299q0 -5 3.5 -11t8.5 -6t8.5 6t3.5 11v2q-1 1 -4.5 4t-5.5 5l-0.5 0.5t-1.5 0.5l-2 -1q-2 -2 -5.5 -5t-4.5 -4v-2zM208 361q0 15 14 15q15 0 15 -15q0 -5 -4 -9.5t-11 -4.5q-6 0 -10 4.5t-4 9.5zM587 361q0 15 14 15q15 0 15 -15q0 -5 -4 -9.5t-11 -4.5 q-6 0 -10 4.5t-4 9.5z" />
<glyph unicode="o" horiz-adv-x="572" d="M32 265q0 -69 30.5 -127.5t91.5 -91.5q9 -5 23.5 -12t29 -13.5t25 -11.5t11.5 -5h5q3 3 10.5 9.5t15.5 13.5t15 13.5t10 9.5q25 20 53.5 30t54.5 27q69 45 100.5 102t31.5 140q0 48 -14 83t-39 62.5t-58 49.5t-72 44q-6 4 -8.5 6t-4 3t-3.5 1.5t-8 0.5q-5 0 -12 -6 t-15 -13.5t-14.5 -14.5t-9.5 -9q-2 -2 -8.5 -5.5t-14 -8t-14 -8.5t-9.5 -6q-2 -2 -10.5 -6t-18.5 -8.5t-18 -9t-10 -5.5q-67 -37 -106.5 -96.5t-39.5 -137.5zM51 268q0 6 1.5 15t5 18t9 15.5t13.5 6.5q12 0 18.5 -10t9 -22.5t3 -25t1.5 -18.5q17 -66 58.5 -110.5 t110.5 -58.5v-5l-38 -37h-4q-6 0 -15.5 3.5t-19.5 8.5t-18.5 9.5t-12.5 7.5q-32 19 -52 38t-33 42t-21 51t-15 64q0 2 -0.5 4t-0.5 4zM127 317q0 34 6.5 67t21.5 58.5t40.5 41.5t63.5 16q53 0 88 -22.5t56 -58.5t29.5 -80.5t8.5 -88.5v-10t-0.5 -15t-0.5 -15v-10 q-9 -28 -19.5 -47t-26 -30.5t-36.5 -16.5t-51 -5q-42 0 -75.5 19.5t-56.5 50.5t-35.5 69.5t-12.5 76.5zM459 268q0 6 0.5 15t3.5 18t8.5 15.5t15.5 6.5q11 0 17.5 -10t6.5 -20q0 -7 -4 -23t-10.5 -32.5t-14.5 -29t-16 -12.5h-2q0 4 -1 14t-2 21t-1.5 21t-0.5 13v3zM70 238 q0 -10 10 -10q9 0 9 10q0 9 -9 9q-10 0 -10 -9zM65 296q0 -5 3.5 -10.5t8.5 -5.5q6 0 9 5.5t3 10.5v3l-4.5 4.5t-4.5 3.5q0 1 -3 1h-1t-1 -1q-1 0 -4.5 -3.5t-5.5 -4.5v-3zM472 296q0 -5 3.5 -10.5t8.5 -5.5t8.5 5.5t3.5 10.5v3q-1 1 -4 4.5t-5 3.5q0 1 -3 1h-1t-1 -1 q-1 0 -5 -3.5t-4 -4.5q-1 0 -1 -2v-1zM472 359q0 6 4.5 10t10.5 4q14 0 14 -14q0 -5 -4 -10t-10 -5t-10.5 5t-4.5 10zM85 364h10q0 -6 -2 -10.5t-8 -4.5v15z" />
<glyph unicode="p" horiz-adv-x="669" d="M171 89q7 -43 8.5 -87t0.5 -88l-2 -88t3 -88l0.5 -0.5t1.5 -0.5l1 0.5t2 0.5q5 8 8.5 21.5t6 28.5t4.5 28.5t4 20.5q3 10 10.5 17t17 12.5t19.5 9.5t19 8q2 1 5 2t3 2v164q0 3 4 3.5t6 0.5h4q4 -2 15.5 -6t24.5 -9.5t24 -10t16 -6.5q7 -3 10 -5t5 -3.5t4 -2t7 -0.5 q4 0 8.5 4.5t9 10.5t7.5 11.5t5 7.5l32 32q9 7 22.5 16t28.5 18.5t29 20t24 21.5q38 38 61.5 91t23.5 107q0 46 -10.5 77.5t-30 55.5t-46.5 45.5t-60 48.5q-5 5 -7.5 12t-10.5 7h-4q-17 -19 -40 -37.5t-48 -36t-50 -34.5t-45 -33q-5 -3 -4.5 -3.5t-4.5 -0.5q-7 0 -11.5 6 t-7.5 14t-5.5 15.5l-3.5 10.5q-14 33 -38 58t-56 41h-7h-7q-1 0 -5 -5q-24 -33 -53 -56.5t-63 -51.5q-6 -8 -6 -16q10 0 18 4t16 9t16 9t18 4q12 0 24.5 -6.5t23 -17t18 -22.5t7.5 -24q1 -11 1.5 -36.5t1.5 -54.5t1.5 -55t0.5 -36v-27v-25q-12 -16 -33.5 -31t-42.5 -31.5 t-36.5 -36t-15.5 -43.5q9 0 15.5 4.5t12.5 11t11.5 13t13.5 10.5q14 6 29 7.5t29 1.5h3q1 -1 4.5 -4t4.5 -5zM189 113q-1 1 -4 2t-4 3q-3 0 -9 0.5t-12.5 1t-12.5 1t-8 0.5q0 1 -0.5 2l-0.5 1q0 1 0.5 1.5l0.5 0.5q0 1 2 2.5t2 2.5q1 1 7.5 6t13.5 10.5t13.5 10t8.5 5.5 q2 2 5 6l3 4v135q10 2 17.5 8.5t16.5 6.5h5q1 -1 8.5 -7t9.5 -8h2h2l2 2.5t3 2.5l1.5 0.5t2.5 0.5q0 -37 0.5 -75t5.5 -76q5 -7 17 -12.5t25.5 -10t26.5 -8t20 -6.5q3 -2 12.5 -6t19.5 -9t19.5 -10t12.5 -7q2 0 3.5 -2t1.5 -3v-3q0 -3 -4 -8.5t-9 -11.5t-10.5 -11.5 t-8.5 -7.5h-3q-14 0 -26.5 4.5t-25 10.5t-25.5 10.5t-27 4.5q-3 0 -10.5 -0.5t-8.5 -2.5l-5 -3v-150q0 -8 -8.5 -15.5t-19 -13.5t-21.5 -9.5t-15 -3.5h-2q0 10 -0.5 35t-1.5 53.5t-2 53.5t-1 35q0 3 -0.5 11t-1.5 17t-1.5 17.5t-1.5 11.5zM288 182q0 4 -0.5 14t-1.5 21.5 t-2 21.5t-1 14v9v9q0 8 1 28t2 42.5t1.5 42.5t0.5 28q1 1 2 4.5t3 4.5q23 26 49 46t62 20t64.5 -15t49 -39.5t31.5 -56t11 -64.5q0 -29 -3 -54.5t-10.5 -48.5t-20.5 -44.5t-32 -43.5q-14 -14 -31 -14q-1 0 -5.5 0.5t-5.5 0.5q-5 2 -15.5 7.5t-22 11.5t-22.5 11t-15 7 q-6 3 -19 6t-27 7.5t-26 10.5t-17 13zM583 290h2h3q0 -1 3.5 -5t4.5 -4h3q5 0 8.5 6t3.5 11v1l-5 5t-5 4h-2h-3l-4 -1.5t-4 -2.5h-7q0 7 6 13t14 6q10 0 14.5 -7.5t4.5 -15.5q0 -5 -3.5 -18.5t-9.5 -27.5t-13.5 -25t-15.5 -11v6q0 4 0.5 13t1.5 19.5t2 20t1 13.5zM218 244 q0 -10 10 -10q9 0 9 10q0 9 -9 9q-10 0 -10 -9zM213 298q0 -5 3.5 -11t8.5 -6t8.5 6t3.5 11l-1 1q-1 2 -4 5l-4 4l-3 2q-1 0 -1.5 -1l-0.5 -1q-2 -1 -5 -4l-5 -5v-1zM212 360q0 14 16 14q5 0 9.5 -4t4.5 -10t-4.5 -10t-9.5 -4q-16 0 -16 14zM587 360q0 6 4.5 10t9.5 4 q14 0 14 -14t-14 -14q-5 0 -9.5 4t-4.5 10z" />
<glyph unicode="q" horiz-adv-x="644" d="M431 -247q0 -2 2 -5.5t3 -4.5h2h3q1 1 2 4.5t3 5.5q0 2 1.5 10t3 17.5t2.5 18t2 10.5q9 32 29 51.5t50 32.5q0 14 -0.5 44t-0.5 68v79v80t0.5 67.5t0.5 44.5q0 10 0.5 34.5t1.5 52.5t2 52.5t1 33.5q8 12 18 22t20 20.5t18.5 22t13.5 24.5q0 1 0.5 2.5t0.5 3.5 q-9 0 -16 -4t-14 -9t-14.5 -9t-17.5 -4q-26 0 -51 7.5t-48.5 19.5t-45.5 27.5t-41 31.5h-15q-1 -1 -9 -7.5t-19.5 -16t-18.5 -14.5q-25 -21 -53.5 -32.5t-57.5 -28.5q-32 -18 -60 -41.5t-49 -52.5t-33.5 -62.5t-12.5 -71.5q0 -47 9 -81.5t27.5 -61.5t46.5 -48.5t67 -43.5 q10 -5 20 -17t22 -12l2 0.5t3 0.5q38 35 77.5 60.5t80.5 56.5q2 2 12 10t12 9h4q8 0 9 -5t1.5 -18.5t1.5 -28t1.5 -28t0.5 -18.5q0 -11 0.5 -34.5t0.5 -52.5v-62v-62q0 -30 -0.5 -53.5t-0.5 -34.5zM450 -121q2 105 -1 207.5t-3 208.5v13q9 2 16 8.5t16 6.5q10 0 16.5 -8 t15.5 -11l5 -65v-323q0 -2 -8.5 -7t-19 -11.5t-20 -13t-12.5 -10.5zM53 278q0 5 2 13t5.5 15.5t8.5 12.5t12 5q1 0 2 -0.5t3 -0.5q13 -6 19.5 -22t10 -34.5t6.5 -37.5t10 -32q24 -48 60 -68t86 -31v-4q0 -4 -6.5 -11t-15.5 -14t-17.5 -12t-12.5 -5h-5q-36 16 -67 37.5 t-53.5 49t-35 62t-12.5 77.5zM131 313q0 31 6 64.5t20.5 62t39.5 47t64 18.5q14 0 23 -0.5t26 -4.5l84 -42q14 -8 23 -18t9 -28v-225q0 -1 -8.5 -10t-13.5 -13q-26 -20 -54 -31.5t-62 -11.5q-38 0 -67.5 17.5t-49.5 45t-30 61.5t-10 68zM86 244q0 -10 9 -10q10 0 10 10 q0 9 -10 9q-9 0 -9 -9zM473 248q0 -9 10 -9q9 0 9 9q0 10 -9 10q-10 0 -10 -10zM66 298q0 -5 3.5 -11t8.5 -6t8.5 6t3.5 11v2q-1 1 -4.5 4t-4.5 4l-3 2l-2 -2q-1 -1 -4.5 -4t-5.5 -4v-2zM464 298q0 -5 3.5 -11t8.5 -6t8.5 6t3.5 11v2q-2 1 -5.5 4t-4.5 4l-0.5 1t-1.5 1 l-3 -2q-1 -1 -4.5 -4t-4.5 -4v-2zM96 367q0 -7 -3.5 -15t-12.5 -8q0 11 2.5 17t13.5 6zM464 360q0 14 14 14t14 -14q0 -5 -4 -9.5t-10 -4.5t-10 4.5t-4 9.5z" />
<glyph unicode="r" horiz-adv-x="569" d="M77 112q49 -4 89 -20.5t79 -45.5q2 -2 7.5 -8t12.5 -12.5t13.5 -12t11.5 -5.5h2q1 2 6.5 7t8.5 8q1 1 5 5.5t8.5 10t8.5 10.5t5 6q6 6 22 21.5t34 32.5t34 32t22 21v14h-9q-20 -19 -36.5 -32.5t-43.5 -13.5q-9 0 -19.5 3t-21 9t-18.5 13.5t-11 16.5q-2 42 -3 71t-1 64v24 q0 6 0.5 19.5t1 29t1.5 29.5t1 19q2 3 6.5 9t10 12.5t10 12.5t6.5 8q6 8 10.5 14.5t13.5 6.5q6 0 15 -6.5t20.5 -15t25.5 -15t29 -6.5q24 0 44.5 12.5t35.5 32t23 43t8 45.5q-8 0 -13 -5.5t-10 -12.5t-11 -12.5t-16 -5.5q-18 0 -28.5 8.5t-17 18t-11 18t-10.5 8.5h-5 q-30 -36 -64.5 -64.5t-66.5 -63.5h-5q-5 0 -17 20.5t-29 45.5t-39.5 45.5t-48.5 20.5q-6 0 -22 -14.5t-34.5 -33.5t-35.5 -37.5t-26 -26.5q-8 -7 -11 -9t-3 -9q0 -4 1 -7.5t6 -3.5q3 0 11.5 6t20 13t24 13t23.5 6h8q38 -17 49 -47.5t11 -68.5q0 -2 0.5 -13t0.5 -26v-29v-23 v-19v-28q0 -14 -0.5 -27t-0.5 -18q-6 -24 -22 -37.5t-33 -22t-30.5 -13.5t-13.5 -11q0 -1 0.5 -2.5zM157 125q11 8 24 24.5t13 31.5v108q0 13 12.5 23t25.5 10h4l24 -24l8 -144q1 -9 10 -17t20.5 -14.5t23 -10.5t17.5 -5v-5l-3.5 -4t-8 -9.5t-9.5 -10.5l-8 -8q-1 -2 -4 -5.5 t-7 -7t-7.5 -7l-4.5 -4.5q-28 26 -60.5 41.5t-65.5 32.5q-1 1 -2.5 3zM217 242q0 -9 9 -9q10 0 10 9q0 10 -10 10q-9 0 -9 -10zM217 296q0 -5 3.5 -10.5t8.5 -5.5t8.5 5.5t3.5 10.5v2l-5 5t-5 4h-2h-3q-1 -1 -4.5 -4t-3.5 -5q-1 0 -1 -1v-1zM217 359q0 6 4.5 10t9.5 4 q14 0 14 -14q0 -15 -14 -15q-5 0 -9.5 4t-4.5 11z" />
<glyph unicode="s" horiz-adv-x="615" d="M182 79q17 0 40.5 -0.5t37.5 -13.5l66 -57h5q20 22 41.5 43t47.5 37q25 16 54 31t53 33.5t40 44t16 61.5q0 28 -7.5 54.5t-23 46t-39 31.5t-54.5 12q-32 0 -59 -14t-52.5 -31t-51 -31t-55.5 -14q-45 0 -59.5 24t-14.5 66q0 15 6 35t16.5 38t25.5 30.5t33 12.5 q4 0 10.5 -4.5t12.5 -10.5l11 -11l6 -6q13 -11 31.5 -15t34.5 -4q11 0 26 1t25 8q11 7 30 22.5t38 33.5t32.5 36t13.5 30h-10l-47 -47q-2 -1 -5.5 -3t-4.5 -2h-56q-8 0 -16.5 9t-16.5 20t-15.5 20t-12.5 9l-4 -2q-21 -23 -49.5 -39.5t-59 -31.5l-61 -30t-54 -35t-38.5 -47 t-15 -65q0 -49 31.5 -76t79.5 -27q22 0 37 5.5t35 13.5q6 4 20.5 13.5t30.5 20t30.5 19.5t20.5 13q10 5 15 8t9 4.5t8 1.5h14q23 0 40 -11t28.5 -28t17 -38t5.5 -41q0 -14 -3 -35.5t-11 -41.5t-21 -34t-33 -14q-1 0 -7.5 5t-15 11.5t-16 12.5t-10.5 8q-21 12 -45.5 18 t-48.5 6q-31 0 -60.5 -10.5t-56 -27t-50.5 -38t-44 -42.5q-5 -5 -14 -15.5t-9 -11.5v-10h14q16 18 30.5 31t30.5 20.5t34.5 11t41.5 3.5zM170 109q0 6 12.5 12t28.5 11.5t32 9t22 3.5q7 0 25 -3.5t36.5 -10.5t32.5 -16.5t14 -22.5v-4q-2 -2 -7.5 -8t-12 -13t-14 -12 t-13.5 -5h-5q-19 20 -38.5 31t-45.5 16q-2 0 -9.5 1t-16 1.5t-16 1.5t-9.5 1q-3 0 -8 2t-7 3l-0.5 0.5t-0.5 1.5zM494 275q7 2 13 7.5t6 13.5v3l-9 9h-3h-2q-1 -1 -4.5 -2.5t-5.5 -1.5q0 -2 -2 -2h-4q0 8 6.5 14.5t14.5 6.5q1 0 2 -0.5t3 -0.5q1 -2 8.5 -7t9.5 -7q0 -1 1 -1 h1q5 0 7.5 5.5t9.5 5.5l1.5 -0.5t3.5 -0.5q8 -14 8.5 -25t0.5 -27q0 -11 -5.5 -28.5t-14.5 -34t-21 -28.5t-25 -12v113zM517 257q0 -10 10 -10q9 0 9 10q0 9 -9 9q-10 0 -10 -9zM117 308h-2q-1 -1 -4.5 -2.5t-5.5 -1.5q0 -2 -2 -2h-4q0 8 6.5 14.5t14.5 6.5q1 0 3 -0.5 l2 -0.5q2 -2 9.5 -7t9.5 -7q0 -1 2 -1v0q1 0 1 1q2 0 5.5 4t4.5 5q12 -12 24.5 -15t22.5 -13l1 -2q0 -3 -5.5 -5.5t-13 -4t-14 -2t-8.5 -0.5q-17 0 -24 5t-10 11.5t-5 11.5t-8 5zM105 359q0 6 4 10.5t11 4.5q6 0 10 -4.5t4 -10.5q0 -5 -4 -10t-10 -5q-7 0 -11 5t-4 10z M487 367q8 0 17.5 -1.5t13.5 -10.5q-7 -11 -14 -11q-9 0 -13 8t-4 15z" />
<glyph unicode="t" horiz-adv-x="394" d="M27 92q26 -1 48 -5.5t42 -12.5t40 -18.5t42 -23.5q2 -1 7.5 -4t11.5 -6t11.5 -5.5t7.5 -3.5l1.5 -0.5t2.5 -0.5q2 0 3.5 0.5l1.5 0.5l117 126q5 7 8.5 16t3.5 17h-8l-42 -42q-2 -3 -11 -4t-14 -1q-10 0 -21 4t-22 10t-20 13.5t-15 15.5q-5 64 -5 129v130v24v31 q0 16 0.5 27.5t1.5 13.5l3 7h94q8 0 9.5 9t1.5 13v4t-0.5 8.5t-2 8t-3.5 3.5h-84q-2 0 -7 3t-8 4q0 1 -1.5 3l-1.5 2q-1 6 -2 20.5t-1.5 31t-1 31t-0.5 20.5v15q0 38 7 67t40 54q6 5 15.5 7t19 4.5t16 7t6.5 14.5q-28 0 -64 -13t-67.5 -35t-53.5 -51t-22 -60v-125h-89 q-1 0 -3 -4t-2 -7q0 -6 2 -16.5t3 -12.5l79 -8l5 -5l1 -5.5t2 -12t1.5 -13.5t0.5 -11v-197q1 -2 2 -11.5t2 -12.5v-1q0 -29 -1 -59t-18 -56q-5 -8 -17 -13.5t-25 -10t-22.5 -9t-9.5 -9.5q0 -3 0.5 -5.5t4.5 -4.5zM101 107v2q0 2 4 7.5t9.5 13t10 15t5.5 13.5q4 35 4.5 73 t-1.5 73q6 6 13 12.5t16 6.5q10 0 17 -8.5t16 -10.5q3 -20 3 -40t-0.5 -40.5t0.5 -40.5t6 -39q18 -14 38.5 -24t40.5 -18v-2v-3q-8 -14 -22 -28t-24 -23h-5q-5 0 -6.5 1t-6.5 3q-30 18 -57.5 32.5t-60.5 24.5zM161 247q0 -9 11 -9q9 0 9 9q0 10 -9 10q-11 0 -11 -10z M148 296q0 -5 3.5 -10.5t8.5 -5.5t8.5 5.5t3.5 10.5v3q-1 1 -5 4.5t-5 3.5q0 1 -1 1h-1q-3 0 -3 -1q-2 0 -5 -3.5t-4 -4.5v-3zM148 359q0 14 14 14q5 0 10 -4t5 -10q0 -5 -5 -10t-10 -5q-6 0 -10 5t-4 10z" />
<glyph unicode="u" horiz-adv-x="817" d="M53 116q57 -7 113.5 -28t101.5 -56q2 -2 9.5 -10t9.5 -9l2 -0.5t3 -0.5l4 1q54 31 104.5 63.5t101.5 67.5q3 2 12 7t12 7q6 -5 10 -14t6.5 -19.5t5 -20.5t6.5 -16q6 -11 17 -24t24.5 -24t28 -19t28.5 -8q13 0 16 6.5t12 17.5q6 6 20.5 21t31 32.5t31 32.5t20.5 21v10h-10 q-13 -13 -27 -23.5t-33 -10.5q-18 0 -31.5 9.5t-22.5 24t-13 32t-4 34.5v195q0 20 10 33.5t24.5 21.5t32 11.5t32.5 4.5q1 0 3 2t2 3v2v3q-2 2 -5.5 5t-4.5 4q-14 4 -25.5 6t-23 4.5t-22.5 7.5t-23 15q-6 5 -14.5 19.5t-17 29.5t-15 27t-7.5 12h-2q-1 0 -2.5 -1.5l-2.5 -2.5 q0 -1 -1.5 -5.5t-2.5 -9t-2.5 -8.5t-1.5 -5q-2 -3 -4.5 -9t-5.5 -12l-5.5 -11t-3.5 -6q-8 -11 -28.5 -21.5t-43 -19t-39.5 -15t-17 -7.5t1 -1.5l1 -0.5q0 -1 1.5 -3t2.5 -2q13 -1 30 -3t32.5 -7.5t25.5 -16.5t10 -29q0 -8 1 -29t1.5 -44t1 -44t0.5 -29v-14v-20t-0.5 -18 t-1.5 -20t-2 -26q-5 -7 -21.5 -19.5t-37 -24.5t-41 -21t-31.5 -9h-5q-5 1 -15.5 4.5t-12.5 4.5l-98 59v306q-8 11 -10.5 25.5t-8.5 26.5q-3 3 -10 9.5t-15 13.5t-15.5 13.5t-10.5 9.5q-8 7 -18.5 13.5t-21.5 6.5q-4 0 -24 -18.5t-42.5 -42.5t-40.5 -48t-18 -35q9 0 15.5 4 t13 9t13.5 9t17 4q18 0 30.5 -9t19.5 -22.5t10 -30.5t3 -32v-168q0 -30 -16 -46t-35.5 -26t-35.5 -16t-16 -15v-3t1 -2zM573 107q-12 25 -15.5 45t-3.5 47v27q0 13 0.5 25.5t1 26t2.5 30.5q8 3 14 9t14 6q10 0 16.5 -8.5t17.5 -10.5q0 -6 0.5 -21t1 -31.5t1 -31t0.5 -20.5 q1 -18 5.5 -35.5t13.5 -32t22.5 -24t34.5 -11.5v-5l-52 -51h-2h-3q-2 2 -9 7t-10 7l-10 10l-15 15t-15 16t-10 11zM128 131q5 5 11.5 8t12.5 10q13 16 18.5 36t7 41t-0.5 42t-3 40q9 2 17 8.5t16 6.5h3t2 -1q2 0 9.5 -6t9.5 -8l0.5 -0.5t1.5 -0.5q5 0 6.5 3.5t6.5 3.5v-151 l8 -5q2 -1 14 -8t27 -16t29.5 -18t22.5 -14q3 -1 10 -4.5t9 -5.5v-2v-2l-1.5 -2t-2.5 -2q-2 -2 -9 -6.5t-15.5 -10t-16 -10.5t-11.5 -7q-1 -1 -4.5 -2t-5.5 -2h-2h-2q-4 3 -15.5 9.5t-24 14t-24.5 14t-16 8.5q-6 3 -18.5 6.5t-26.5 8t-26 10.5t-17 14zM576 247q0 -9 10 -9 t10 9q0 10 -10 10t-10 -10zM202 252q0 -10 10 -10q9 0 9 10t-9 10q-10 0 -10 -10zM192 296q0 -3 3.5 -9.5t8.5 -6.5q6 0 9 6.5t3 9.5v3q-1 1 -4 4.5t-5 4.5h-3h-2q-1 -1 -4 -4.5t-4 -4.5l-1 -0.5t-1 -2.5zM572 296q0 -3 3.5 -9.5t8.5 -6.5t8.5 6.5t3.5 9.5v3q-2 1 -5 4.5 t-5 4.5h-2h-3q-1 -1 -4 -4.5t-4 -4.5l-0.5 -0.5t-0.5 -2.5zM192 360q0 5 5 9.5t10 4.5q6 0 10 -4.5t4 -9.5q0 -14 -14 -14q-5 0 -10 4t-5 10zM572 360q0 5 4.5 9.5t9.5 4.5q6 0 10 -4.5t4 -9.5q0 -14 -14 -14q-5 0 -9.5 4t-4.5 10z" />
<glyph unicode="v" horiz-adv-x="679" d="M50 124q0 -5 4 -7t9.5 -3.5t9.5 -1.5h6h42q23 -2 55.5 -11.5t66 -24t62.5 -31.5t45 -32h29q1 2 6.5 7.5l11.5 11.5t11.5 11t7.5 7q1 1 8 6t15 11t15 10.5t9 6.5q30 23 61.5 55t54.5 57q36 38 49 82.5t13 95.5q0 32 -7 67t-31 59l-103 104h-10q-24 -21 -50.5 -38.5 t-53.5 -34l-54 -33t-52 -35.5q-1 -1 -3 -1h-2q-3 0 -13 23.5t-25.5 52t-37 52t-48.5 23.5l-1 -0.5t-2 -0.5l-121 -112l-0.5 -2t-0.5 -4q0 -5 1.5 -9t6.5 -4q7 0 13.5 4.5t13.5 10t14.5 10t15.5 4.5q15 0 26.5 -8.5t19.5 -21t12 -27.5t4 -28v-210q0 -21 -16 -37t-35.5 -27 t-35.5 -17.5t-16 -9.5zM139 137q0 5 5.5 11.5t12.5 14t12.5 16t5.5 17.5v108q7 5 14 12t16 7q10 0 16.5 -8.5t16.5 -10.5q0 -4 2 -16.5t2 -16.5q0 -6 1 -20t2 -29.5t1.5 -29.5t0.5 -19q7 -11 33.5 -21.5t55.5 -21t52 -22t23 -24.5q0 -1 -4 -4.5t-6 -5.5t-7.5 -6.5t-11 -9.5 l-11 -10t-7.5 -7h-2q-6 0 -12 3.5t-11 8.5t-10.5 10t-11.5 7q-2 0 -16 5t-33.5 12.5t-42.5 15.5t-42 15.5t-31.5 12.5t-12.5 6zM266 191v84q0 2 -2.5 10t-2.5 9v8v11q0 6 1 21t1.5 32.5t1.5 32.5t1 21q13 14 27.5 28.5t31 26t35 18.5t39.5 7q41 0 70 -21t47 -53t26.5 -70 t8.5 -72q0 -59 -32.5 -101t-79.5 -71q-2 0 -4 -1t-4 -1t-14.5 6t-31 14.5t-39.5 19t-38.5 19.5t-29.5 15t-12 7zM574 289h3h2q1 0 4.5 -4t5.5 -5h2h2q2 1 5.5 2.5t4.5 1.5v-4q0 -8 -4.5 -14t-9.5 -14q-4 -5 -11 -14.5l-7 -9.5h-6q0 1 0.5 3l0.5 2q0 3 1.5 11t2.5 17t2.5 17 t1.5 11zM200 252q0 -10 9 -10q10 0 10 10t-10 10q-9 0 -9 -10zM190 296q0 -3 3.5 -9.5t8.5 -6.5t8.5 6.5t3.5 9.5v3q-1 1 -4 4.5t-5 4.5h-3h-2q-1 -1 -5 -4.5t-4 -4.5q-1 0 -1 -3zM591 308h-2q-2 0 -5.5 -2t-4.5 -2l-2.5 -1t-3.5 -1q0 8 6.5 14.5t13.5 6.5q8 0 11 -4t9 -11 v-2v-2q-2 -2 -3 -3.5t-2 -1.5q-2 1 -7.5 4.5t-7.5 4.5h-2zM190 360q0 5 4.5 9.5t10.5 4.5t10 -4.5t4 -9.5q0 -14 -14 -14q-6 0 -10.5 4t-4.5 10zM579 360q0 5 4 9.5t10 4.5q7 0 11 -4.5t4 -9.5q0 -14 -15 -14q-14 0 -14 14z" />
<glyph unicode="w" horiz-adv-x="1033" d="M68 115q21 -5 38 -10.5t31 -13t26.5 -18.5t26.5 -27q3 -4 5.5 -13.5t5.5 -19t6.5 -17t7.5 -7.5h3q2 2 5 9.5t4 9.5t2.5 7t2.5 7q9 22 32 39.5t46 30t41 21t18 12.5q0 6 -14 9t-31 8.5t-31 16t-14 32.5v224q0 1 7 8.5t12 10.5q14 12 28.5 24.5t30 23t32.5 17t36 6.5 q35 0 54.5 -17t29 -43t11.5 -56.5t2 -56.5q0 -30 -1 -62t-3 -61q-2 -22 -16 -37t-30.5 -24.5t-30 -14.5t-13.5 -8q0 -4 21 -9.5t48 -12.5t53.5 -13.5t37.5 -11.5q32 -15 63 -36t63 -34l1 -0.5t2 -0.5l2 1q1 0 5 2t5 3q2 1 9.5 8t16 15t16 15t9.5 9q3 2 14.5 10t25 17 t25.5 17.5t15 10.5q24 20 47.5 45.5t41.5 54.5t29.5 61t11.5 65q0 32 -3 60.5t-12 54.5t-24.5 49.5t-39.5 45.5q-17 15 -33 23.5t-33 27.5h-9q-1 -1 -10 -8t-21.5 -17t-20.5 -17q-32 -28 -68 -53l-72 -50h-6h-8q-3 0 -4 5q-16 53 -45 89.5t-87 50.5h-3h-1q-2 0 -5 -1.5 l-5 -2.5q-47 -38 -93.5 -76.5t-98.5 -69.5h-2h-2l-5 5q-5 19 -8.5 35t-9.5 29.5t-15 26.5t-24 27q-6 6 -19 17.5t-25 11.5q-1 0 -3.5 -1t-3.5 -1q-35 -28 -62 -55.5t-64 -55.5q-1 -2 -3 -5.5t-2 -4.5v-2v-3q0 -1 2 -2.5t3 -1.5h2q7 0 14 3.5t14.5 8t15.5 8.5t17 4 q18 0 29 -8.5t17.5 -22t9 -29t2.5 -30.5v-192q0 -20 -9 -34.5t-23.5 -24.5t-32 -16t-33.5 -9v-15zM508 132q0 6 4 13t9.5 14.5t10 15.5t5.5 16q2 35 2.5 66t5.5 65q5 6 12.5 12.5t16.5 6.5q10 0 17 -8.5t18 -10.5v-155l8 -5.5t13 -7.5q7 -5 28.5 -14t44.5 -19t40.5 -20 t17.5 -16v-2l-42 -42h-9q-29 20 -61.5 36.5t-64.5 29.5q-4 1 -16 3.5t-25.5 6.5t-24 8t-10.5 7zM138 120q20 17 32.5 33.5t14.5 42.5q0 7 1 24.5t2 37.5t1.5 38t0.5 26q5 6 12.5 12.5t15.5 6.5h4q2 -1 10 -7t10 -8h2q5 0 6.5 3t6.5 3v-160q0 -15 13.5 -29t27.5 -18v-3 q0 -2 -10.5 -9.5t-24.5 -17t-27 -19.5t-18 -16h-5q-19 21 -33 32.5t-37 22.5q-1 1 -3 2.5t-2 2.5zM630 186q2 51 -1 97t-3 95q0 9 -0.5 21.5t4.5 20.5q7 12 23.5 25.5t37.5 24.5t42 18.5t37 7.5q24 0 41 -14t34 -30q31 -27 44 -69t13 -82q0 -60 -21 -108t-68 -86 q-2 -1 -6 -1h-6q-5 0 -19 4.5t-32 12t-38 17t-37 18.5t-29.5 16.5t-15.5 11.5zM924 307q2 0 2.5 0.5l0.5 0.5q1 0 1.5 -0.5l0.5 -0.5q1 0 5 -4t5 -4q0 -1 1 -1h1q5 0 8.5 6.5t3.5 9.5v3q-1 2 -4.5 5t-4.5 4h-3h-2q-1 0 -5 -2t-5 -2l-2.5 -1t-3.5 -1q0 8 6.5 14.5t14.5 6.5 q11 0 15 -8.5t4 -16.5q0 -10 -4 -24t-10 -27.5t-13.5 -25t-14.5 -16.5q0 2 -0.5 7.5t-0.5 7.5q0 19 1 32.5t3 36.5zM218 265q0 -9 9 -9q10 0 10 9q0 10 -10 10q-9 0 -9 -10zM569 270q0 -10 10 -10q9 0 9 10t-9 10q-10 0 -10 -10zM203 314q0 -3 3.5 -9.5t8.5 -6.5t8.5 6.5 t3.5 9.5v3q-1 2 -4 5t-5 4h-3h-2l-9 -9l-0.5 -0.5t-0.5 -2.5zM560 314q0 -3 3 -9.5t9 -6.5q5 0 8.5 6.5t3.5 9.5v3q-2 2 -5.5 5t-4.5 4h-2h-3q-1 -1 -4.5 -4t-4.5 -5v-3zM203 378q0 6 4.5 10t10.5 4q14 0 14 -14t-14 -14q-6 0 -10.5 4t-4.5 10zM560 378q0 14 14 14 q5 0 9.5 -4t4.5 -10t-4.5 -10t-9.5 -4q-14 0 -14 14zM929 378q0 14 15 14q14 0 14 -14t-14 -14q-15 0 -15 14z" />
<glyph unicode="x" horiz-adv-x="676" d="M283 163l1.5 -1.5t2.5 -3.5t6 -11t10.5 -19t10 -19t6.5 -11q12 -21 34 -40t47.5 -33t53.5 -22t52 -8q6 0 7 1.5t7 8.5q4 4 10.5 11.5t13.5 15t12 13.5t6 7q8 9 20 24t23 29t19 24.5l8 10.5v23h-5q-11 -16 -25.5 -30t-30.5 -25q-4 -1 -17 -1h-16q-30 0 -57 9.5t-48 27.5 t-33 44t-12 58v16q3 1 12.5 2.5t11.5 1.5h38q18 3 31 15t20.5 28t11 34t3.5 34q0 5 -1.5 8.5t-6.5 3.5q-2 0 -2 -1q-3 -3 -5 -11.5t-4.5 -17t-6 -15.5t-8.5 -7h-84q-4 0 -6 4.5t-3 10t-1 10.5v6q0 11 4.5 32.5t12.5 43t19.5 37.5t25.5 16q1 0 2 -0.5t2 -0.5q14 -18 32 -31 t42 -13q18 0 35.5 13t31.5 32.5t22.5 41t8.5 38.5q-9 0 -14.5 -6t-11 -13.5t-12 -13.5t-17.5 -6q-12 0 -21 8t-16.5 17.5t-14.5 17.5t-13 8q-7 0 -25 -21t-37.5 -46.5t-36.5 -46.5t-23 -21q-1 0 -9.5 10.5t-23 26t-33.5 34t-39 34t-40.5 26t-37.5 10.5q-1 0 -4 -0.5t-4 -0.5 q-23 -29 -51 -55.5t-52 -52.5q-4 -4 -9.5 -10l-11 -12t-9 -10.5l-3.5 -4.5v-18h4q3 3 10.5 9.5t15.5 14t15 14t10 9.5q8 5 15 4.5t15 -0.5q33 0 56.5 -11.5t38 -31t21.5 -45.5t7 -54h-59q-31 -26 -49 -58t-18 -74q9 0 14 8t8.5 18t8 19.5t13.5 12.5q11 5 27 5h27h30 q8 -4 9 -6t1 -7q0 -7 -3.5 -29.5t-9.5 -46.5t-15 -42.5t-21 -18.5q-9 0 -17.5 3.5t-17 8t-18 8.5t-19.5 4q-17 0 -37.5 -15.5t-38.5 -37.5t-30 -45.5t-12 -39.5v-2q0 -1 2 -3t3 -2h2q5 0 10 7.5t12 16t17 16t26 7.5q12 0 21 -7.5t16 -16t13 -16t11 -7.5q3 0 11 11t18.5 28 t22.5 37t23.5 38.5t20.5 32t15 16.5zM305 182l-9 5v99l-9 7h-91q0 8 11 16.5t19 8.5h66q4 -4 7 -4.5t6 -0.5q8 0 12.5 5t11.5 5h5q1 -1 9 -7t9 -8h3h2q1 2 6.5 8t7.5 7t5.5 -1t4.5 -4l84 -10v-1v-3q-1 0 -4.5 -4t-5.5 -5q-2 -2 -5.5 -4.5l-3.5 -2.5h-70l-5 -7 q-1 -3 -1.5 -14t-0.5 -16q0 -44 11.5 -75t34 -51t55 -31t74.5 -15v-2v-3q-1 -1 -4 -6.5t-5 -6.5q-2 -2 -6.5 -7.5t-10 -11.5t-10 -11.5t-6.5 -7.5h-12q-32 0 -60.5 15.5t-52 38.5t-42 51t-30.5 54zM105 70q0 1 -0.5 1.5l-0.5 0.5q0 9 6 17.5t15 16t19.5 12t18.5 4.5 q4 0 10.5 -2.5t13 -6t11.5 -8.5t5 -9q0 -5 -3 -12.5t-8 -14.5t-10.5 -12t-11.5 -5q-9 0 -15 3t-12.5 6.5t-15 6t-22.5 2.5zM325 257q0 -10 9 -10q10 0 10 10q0 9 -10 9q-9 0 -9 -9zM315 298q0 -5 3.5 -11t8.5 -6t8.5 6t3.5 11v1q-1 2 -4.5 5t-5.5 4h-2h-2q-2 -1 -5.5 -4 t-4.5 -5v-1zM315 360q0 14 14 14q6 0 10.5 -4t4.5 -10t-4.5 -10t-10.5 -4q-14 0 -14 14z" />
<glyph unicode="y" horiz-adv-x="673" d="M348 -179q0 -19 4.5 -37t14.5 -32.5t26 -23.5t38 -9q2 0 9 0.5t7 4.5v42q0 2 -11.5 6t-26 14t-26 26.5t-11.5 43.5q0 26 7.5 47.5t20.5 44.5q40 42 83 81.5t78.5 83.5t58.5 94.5t23 115.5q0 54 -15 99t-49 87q-4 5 -12.5 13.5t-16.5 10.5l-75 61h-9q-3 -3 -12 -10.5 t-18.5 -15.5t-18.5 -15.5t-12 -10.5q-9 -7 -29 -23.5t-42 -33t-40.5 -29t-24.5 -12.5l-9 22.5t-24.5 50t-37 50t-48.5 22.5q-17 0 -33.5 -12.5t-20.5 -29.5q-4 -5 -14 -15.5t-21 -22t-21 -22.5t-13 -15q-12 -12 -12 -24q11 0 19 5t15.5 11.5t15.5 11.5t19 5q26 0 39.5 -16 t20 -38t7.5 -46t2 -40v-75v-74q-6 -24 -23.5 -36.5t-36.5 -19t-33.5 -9.5t-14.5 -8q0 -7 6 -10t13.5 -4.5t14.5 -2t8 -0.5q46 -9 71.5 -37.5t40.5 -69.5h5q3 0 11 12.5t18.5 29t22.5 31.5t23 21q5 2 20 6t31.5 9t29 11t12.5 13v3q-9 9 -23 8t-29 -0.5t-29 8.5t-22 35 q-5 40 -5 73v74v15v24t0.5 23t0.5 16q24 28 57 51t72 23t67 -20.5t46 -51t26 -67.5t8 -70q0 -51 -17.5 -98.5t-43.5 -89.5q-1 -1 -3 -4.5t-2 -5.5q-25 -31 -48 -59t-40.5 -57.5t-28 -63t-10.5 -73.5zM405 -248v6q6 0 13 -2.5t11 -8.5l-5 -5zM129 119q0 5 12.5 10t15.5 11 q11 18 15.5 38t5.5 41.5t-0.5 43t-2.5 41.5q11 2 18 8t16 6h5q1 -1 9 -7t9 -7h2h3q1 0 2.5 2l1.5 2q2 0 2.5 1t1.5 1q0 -38 1 -74.5t5 -72.5q4 -13 13 -23.5t19 -18.5v-5q-15 -3 -25 -10t-18.5 -16t-16.5 -19t-19 -19q-10 6 -14 17.5t-15 19.5q-3 2 -10.5 5t-15.5 7t-14 8.5 t-6 9.5zM564 299q5 7 10 13t13 6q17 0 23 -10.5t6 -23.5q0 -16 -8.5 -41.5t-21.5 -51t-27 -46.5t-24 -29v12q0 8 2.5 18.5t6 20.5t6.5 18.5t5 14.5q1 3 2 16t2 18q1 4 1.5 13t1.5 19.5t1.5 19.5t0.5 13zM204 247q0 -9 10 -9q9 0 9 9q0 10 -9 10q-10 0 -10 -10zM573 247 q0 -9 9 -9q11 0 11 9q0 10 -11 10q-9 0 -9 -10zM195 292q0 -4 3 -10.5t9 -6.5q5 0 8.5 6.5t3.5 10.5v2q-2 2 -5.5 5t-4.5 5h-2h-3l-5 -5t-4 -5v-2zM573 292q0 -4 3.5 -10.5t8.5 -6.5t8.5 6.5t3.5 10.5v2l-10 10h-2h-3q-1 -2 -4 -5t-4 -5l-0.5 -0.5t-0.5 -1.5zM195 355 q0 15 14 15q5 0 9.5 -4t4.5 -11q0 -6 -4.5 -10t-9.5 -4q-14 0 -14 14zM573 355q0 7 4.5 11t9.5 4q14 0 14 -15q0 -14 -14 -14q-5 0 -9.5 4t-4.5 10z" />
<glyph unicode="z" horiz-adv-x="472" d="M44 -8q0 -28 5 -55.5t16.5 -52t29 -45.5t43.5 -36q3 -2 9 -5.5t12 -6.5t11 -5l5 -2h89q7 0 16.5 4.5t19 10.5t17 12.5t11.5 9.5q51 45 75 93t24 115q0 36 -8.5 65t-23 54.5t-34 49t-41.5 48.5q0 1 -0.5 1.5l-0.5 0.5q0 8 16 14t35.5 13t36 15.5t16.5 22.5q-18 0 -35 -7.5 t-33.5 -16.5t-33 -16.5t-35.5 -7.5q-5 0 -16 3t-23 7.5t-21 9.5t-9 10v3q30 13 57 29.5t47.5 39t33 50.5t12.5 63q0 38 -17 62t-43.5 40t-58 26t-59.5 21q-1 0 -3 0.5l-2 0.5q-3 0 -14 -11.5t-25.5 -28.5t-31 -37t-30 -38t-22.5 -30.5t-9 -14.5h11q21 26 41.5 41.5 t52.5 15.5q22 0 43 -8.5t37.5 -23t26 -34.5t9.5 -43q0 -43 -17 -65t-42.5 -32t-55 -12.5t-55 -5t-42.5 -10t-17 -28.5v-10q0 -4 5 -9h18q27 0 53.5 12.5t49.5 21.5h2q4 0 14.5 -5.5t21.5 -13t19.5 -15t8.5 -11.5v-2q-5 -6 -13 -11.5t-16.5 -9.5t-16 -7.5t-10.5 -5.5 q-9 -5 -20.5 -14.5t-23.5 -20t-22.5 -21t-17.5 -18.5q-24 -28 -38 -62t-14 -71zM91 -16q0 78 40.5 134t108.5 91q1 0 3.5 0.5t3.5 0.5q15 0 26 -16.5t19 -42.5t13.5 -56.5t8.5 -59t4.5 -50t1.5 -29.5q0 -22 -5 -49.5t-16 -51.5t-30 -40.5t-47 -16.5q-37 0 -62 18t-40.5 45 t-22 60t-6.5 63zM343 -24v14q0 8 -5 14q1 38 -5.5 77t-17.5 76q-10 17 -15.5 32t-17.5 29q-5 7 -11.5 10t-11.5 8q0 5 5 5h2h2q2 0 9 -1.5t9 -3.5q25 -23 47 -47t37.5 -50t24.5 -56t9 -66q0 -43 -18 -84.5t-53 -69.5l-5 -1q0 28 7.5 56.5t7.5 57.5zM296 398v3l4.5 4.5 t5.5 3.5q0 1 2 1q7 0 7 -9q0 -10 -9 -10q-10 0 -10 7z" />
<glyph unicode="&#xad;" d="M372 397q26 -8 53 -11t54 -4.5l54 -3t53 -4.5h3q5 0 8 6.5t5.5 15.5t4 17.5t3.5 12.5q5 8 15.5 12.5t12.5 15.5h-5q-38 0 -76.5 -4t-77.5 -8.5t-77.5 -8t-77.5 -3.5h-12t-14.5 0.5t-13.5 0.5h-6q-8 0 -28 2.5t-42.5 5.5t-42.5 5.5t-27 4.5l-42 14h-3q-5 0 -7.5 -4 t-3.5 -9.5t-1 -11.5v-7q-1 -8 -7 -13t-13 -9.5t-12.5 -10.5t-5.5 -15q20 0 39 7t41 7h249z" />
<glyph unicode="&#xdf;" horiz-adv-x="548" d="M12 571q0 -218 3 -433.5t3 -433.5q2 0 7.5 1t5.5 5v210q0 25 14.5 47.5t36.5 41.5t46 33.5t44 22.5v5q0 4 -5.5 10t-13 13.5t-14.5 15.5t-9 17q-1 9 -2 30.5t-1.5 46.5t-1 47t-0.5 31v16t-0.5 32t-0.5 36v30v23t0.5 34.5t0.5 34.5v23q7 9 28.5 16.5t47 13.5t49.5 9t36 3 q61 0 88 -32.5t27 -88.5v-39q-7 -17 -19 -32.5t-27.5 -29t-33 -24t-33.5 -16.5q-11 1 -33 1t-44 -4t-38 -14t-16 -29q0 -5 0.5 -8t4.5 -7q2 0 10 -0.5t10 -0.5q27 0 51 10.5t50 18.5h7q7 0 9 -0.5t8 -4.5q28 -18 47 -42.5t30.5 -53t16.5 -60t5 -62.5q0 -15 -0.5 -27.5 l-1 -25t-1.5 -26t-2 -31.5q-7 -7 -7 -15t-3 -17q-6 -18 -15 -37.5t-21.5 -36.5t-29.5 -28t-39 -11q-27 0 -46 13.5t-32 29t-20 29t-9 13.5t-7 -2.5t-10 -6.5t-9.5 -8t-4.5 -7v-4q26 -35 58 -55t77 -20q50 0 93.5 24.5t76 63.5t51 86.5t18.5 94.5q0 65 -26.5 117.5 t-76.5 96.5q-5 1 -18 4.5t-26.5 8t-24 10.5t-10.5 11q0 1 13 6.5t32 16.5t42 27.5t42 38.5t32 50t13 62q0 25 -17 50.5t-42 46.5t-54.5 34t-53.5 13q-26 0 -54 -11t-56 -24.5t-55 -24.5t-52 -11h-5q0 9 -1 30.5t-2 46.5t-1.5 47t-0.5 31v15q0 3 0.5 10t2 14t5 12t8.5 5 q1 0 1.5 -0.5l0.5 -0.5q22 -23 40.5 -37.5t50.5 -14.5h14t13 2q32 20 54 55t22 73q-10 0 -14 -6.5t-7.5 -14t-9 -14t-17.5 -6.5q-14 0 -23 7.5t-15.5 16.5t-12.5 16.5t-12 7.5h-3q-23 -22 -49 -38.5t-51.5 -32t-50 -33t-45.5 -41.5q-4 -12 -6 -24t-4 -23v-84zM425 8 q0 41 -2 76.5t-13 73.5q-2 7 -7.5 16.5t-11.5 19.5t-10.5 18t-4.5 12h25l4.5 -4t10.5 -10t12 -12.5t10 -10.5q28 -32 44.5 -69t16.5 -81q0 -14 -1 -28t-4 -28q-3 -11 -13 -33.5t-23.5 -45.5t-29.5 -40.5t-30 -17.5q0 15 9 31t12 31q6 26 6 51v51zM35 197v22v34t0.5 33.5 t0.5 21.5q9 2 16 8.5t16 6.5q11 0 17.5 -8t15.5 -11q0 -3 1 -9.5t2 -14t1.5 -14t0.5 -9.5q0 -9 1 -30t1.5 -45t1 -45t0.5 -30q2 -8 6 -16.5t9 -16.5q-1 -1 -3 -2t-2 -2q-1 -2 -7 -5.5t-7 -4.5q-4 -2 -12.5 -9t-18.5 -14.5t-18.5 -14t-12.5 -9.5h-4q-5 45 -5 92v92zM64 247 q0 -9 9 -9q10 0 10 9q0 10 -10 10q-9 0 -9 -10zM54 296q0 -3 3.5 -9.5t8.5 -6.5t8.5 6.5t3.5 9.5v3q-1 2 -4.5 5t-5.5 4h-2h-2q-2 -1 -5.5 -4t-4.5 -5v-3zM54 360q0 14 14 14q6 0 10.5 -4t4.5 -10t-4.5 -10t-10.5 -4q-14 0 -14 14z" />
<glyph unicode="&#x2c6;" horiz-adv-x="720" d="M12 290q0 -66 13 -113.5t41 -81t72.5 -56.5t107.5 -41h5q6 0 9 4q11 19 23.5 33.5t25.5 26.5t27.5 23t30.5 25q4 3 9.5 8.5t11 10.5t9.5 9.5l4 4.5v9h-5q-19 -14 -34.5 -23t-31.5 -14.5t-34 -8t-42 -2.5t-45 11.5t-37.5 29.5t-28.5 40t-18 42q-5 14 -4.5 31.5t-10.5 29.5 v32q0 32 3 60t15 57q4 7 14 18t20.5 21.5t19 18.5t8.5 10v3q0 1 -2 2t-3 2h-3h-2q-3 -1 -10 -4.5t-8 -4.5q-22 -16 -39 -29.5t-31.5 -28t-28 -31t-28.5 -37.5q-4 -23 -13.5 -42.5t-9.5 -44.5zM451 311q22 0 35 -10.5t19 -27t7.5 -37t1.5 -41.5v-40q0 -18 3 -31 q8 -29 24.5 -55.5t41.5 -43.5q9 -6 24 -14.5t28 -8.5h3q2 3 7.5 11t12 17t12 17.5t7.5 11.5q10 14 16.5 21t6.5 23v11q-6 -8 -13 -9t-16 -1q-18 0 -28.5 11.5t-17.5 27.5q-1 37 -3.5 68.5t-14 55t-34.5 38.5t-65 20l-1 2t-1 3q0 3 18 13t39 29t39 46t18 64q0 22 -13 43 t-33 36.5t-43.5 25t-44.5 9.5q-7 0 -12.5 -4t-10 -10t-8 -12.5t-7.5 -10.5q-27 -24 -57 -44t-56 -45h-15q-5 34 -4.5 65.5t0.5 64.5q0 40 -0.5 80t9 72.5t34.5 53t77 20.5q6 0 17.5 -1.5t22.5 -4.5t19.5 -9t8.5 -15q0 -2 -0.5 -2.5l-0.5 -0.5q-11 -2 -24.5 -5t-25.5 -9.5 t-20.5 -16.5t-8.5 -25q0 -36 22 -53.5t56 -17.5q28 0 48 18t20 47q0 28 -13.5 49.5t-34.5 35.5t-47 21.5t-51 7.5q-37 0 -75.5 -15t-69.5 -41.5t-50.5 -61.5t-19.5 -74v-333l5 -9v-121q4 -2 10.5 -6.5t14 -9.5t14.5 -9t10 -4h2q1 1 6.5 7t6.5 7q5 3 20 10t20 9v70l2.5 2 t4.5 3q30 15 61 28.5t65 13.5zM35 222v71q0 11 11.5 21.5t21.5 10.5q12 0 18 -14q2 -44 14 -86t36 -74.5t60.5 -51.5t86.5 -17v-5q-1 -1 -7 -8t-15.5 -17.5t-14.5 -16.5q-4 -5 -5 -5h-7q-25 0 -48.5 9.5t-44.5 24.5t-39.5 33t-33.5 36q-16 18 -20 43t-13 46zM536 143 q-1 38 -5.5 77.5t-4.5 77.5q29 0 45 -20.5t23.5 -49t9.5 -58t2 -46.5q5 -13 10.5 -18.5t11.5 -8.5t12 -5.5t13 -9.5l0.5 -1.5t0.5 -2.5q0 -12 -10.5 -25t-23.5 -13q-19 0 -32 13.5t-24 28.5q-10 14 -15 30.5t-13 30.5zM232 212v24q0 20 0.5 33.5t3.5 36.5q5 8 10 13.5 t14 5.5l57 -30q0 -2 -1 -2q0 -1 -4.5 -3l-4.5 -2l-5 -5l-9 -66q-1 -7 -14 -13t-19 -6q-8 0 -15.5 4t-12.5 10zM54 246q0 -10 10 -10q9 0 9 10t-9 10q-10 0 -10 -10zM554 246q0 -10 10 -10t10 10t-10 10t-10 -10zM254 251q0 -11 11 -11q10 0 10 11q0 9 -10 9q-11 0 -11 -9z M54 300q0 -5 3.5 -11t8.5 -6t8.5 6t3.5 11v1q-1 2 -4.5 5.5t-5.5 4.5l-2 1q-1 0 -1.5 -0.5l-0.5 -0.5q-2 -1 -5.5 -4.5t-4.5 -5.5v-1zM246 300q0 -5 3.5 -11t8.5 -6t8.5 6t3.5 11l-1 1q-1 2 -4 5.5t-5 4.5l-2 1q-1 0 -1.5 -0.5l-0.5 -0.5q-2 -1 -5.5 -4.5t-4.5 -5.5v-1z M316 354v36q0 4 1 11t1.5 14t1 12t0.5 6q7 14 22 26.5t32.5 22.5t36 15.5t33.5 5.5q35 0 61.5 -20.5t26.5 -58.5q0 -35 -19 -56t-47 -32t-60 -14t-59 -3q-5 0 -13 0.5t-9 0.5l-9 10v24zM59 355v3l5.5 11t7.5 3q11 0 11 -10q0 -14 -15 -14q-3 0 -6 1.5t-3 5.5zM245 362 q0 7 4.5 11t10.5 4t10.5 -4t4.5 -11q0 -6 -4.5 -10t-10.5 -4t-10.5 4t-4.5 10zM554 409q0 10 10 10t10 -10q0 -9 -10 -9t-10 9z" />
<glyph unicode="&#x2000;" horiz-adv-x="488" />
<glyph unicode="&#x2001;" horiz-adv-x="976" />
<glyph unicode="&#x2002;" horiz-adv-x="488" />
<glyph unicode="&#x2003;" horiz-adv-x="976" />
<glyph unicode="&#x2004;" horiz-adv-x="325" />
<glyph unicode="&#x2005;" horiz-adv-x="244" />
<glyph unicode="&#x2006;" horiz-adv-x="162" />
<glyph unicode="&#x2007;" horiz-adv-x="162" />
<glyph unicode="&#x2008;" horiz-adv-x="122" />
<glyph unicode="&#x2009;" horiz-adv-x="195" />
<glyph unicode="&#x200a;" horiz-adv-x="54" />
<glyph unicode="&#x2010;" d="M372 397q26 -8 53 -11t54 -4.5l54 -3t53 -4.5h3q5 0 8 6.5t5.5 15.5t4 17.5t3.5 12.5q5 8 15.5 12.5t12.5 15.5h-5q-38 0 -76.5 -4t-77.5 -8.5t-77.5 -8t-77.5 -3.5h-12t-14.5 0.5t-13.5 0.5h-6q-8 0 -28 2.5t-42.5 5.5t-42.5 5.5t-27 4.5l-42 14h-3q-5 0 -7.5 -4 t-3.5 -9.5t-1 -11.5v-7q-1 -8 -7 -13t-13 -9.5t-12.5 -10.5t-5.5 -15q20 0 39 7t41 7h249z" />
<glyph unicode="&#x2011;" d="M372 397q26 -8 53 -11t54 -4.5l54 -3t53 -4.5h3q5 0 8 6.5t5.5 15.5t4 17.5t3.5 12.5q5 8 15.5 12.5t12.5 15.5h-5q-38 0 -76.5 -4t-77.5 -8.5t-77.5 -8t-77.5 -3.5h-12t-14.5 0.5t-13.5 0.5h-6q-8 0 -28 2.5t-42.5 5.5t-42.5 5.5t-27 4.5l-42 14h-3q-5 0 -7.5 -4 t-3.5 -9.5t-1 -11.5v-7q-1 -8 -7 -13t-13 -9.5t-12.5 -10.5t-5.5 -15q20 0 39 7t41 7h249z" />
<glyph unicode="&#x2012;" d="M372 397q26 -8 53 -11t54 -4.5l54 -3t53 -4.5h3q5 0 8 6.5t5.5 15.5t4 17.5t3.5 12.5q5 8 15.5 12.5t12.5 15.5h-5q-38 0 -76.5 -4t-77.5 -8.5t-77.5 -8t-77.5 -3.5h-12t-14.5 0.5t-13.5 0.5h-6q-8 0 -28 2.5t-42.5 5.5t-42.5 5.5t-27 4.5l-42 14h-3q-5 0 -7.5 -4 t-3.5 -9.5t-1 -11.5v-7q-1 -8 -7 -13t-13 -9.5t-12.5 -10.5t-5.5 -15q20 0 39 7t41 7h249z" />
<glyph unicode="&#x2013;" horiz-adv-x="589" d="M319 397q22 -8 45 -11t45.5 -4.5l45 -3t44.5 -4.5h3q4 0 6.5 6.5t4.5 15.5t3.5 17.5t2.5 12.5q5 8 13.5 12.5t10.5 15.5h-4q-32 0 -64.5 -4t-65 -8.5t-65 -8t-65.5 -3.5h-10t-12 0.5t-11 0.5h-6q-6 0 -23 2.5t-36 5.5t-35.5 5.5t-22.5 4.5l-35 14h-3q-4 0 -6 -4t-3 -9.5 t-1 -11.5v-7q-1 -8 -6 -13t-11 -9.5t-10.5 -10.5t-4.5 -15q17 0 33 7t34 7h209z" />
<glyph unicode="&#x2014;" horiz-adv-x="1089" d="M596 397q44 -8 89 -11t90.5 -4.5l91 -3t89.5 -4.5h5q8 0 13 6.5t9.5 15.5t7 17.5t5.5 12.5q8 8 26 12.5t21 15.5h-8q-64 0 -129 -4t-130.5 -8.5t-130 -8t-130.5 -3.5h-20t-24.5 0.5t-22.5 0.5h-10q-13 0 -47 2.5t-71.5 5.5t-71.5 5.5t-45 4.5l-71 14h-5q-8 0 -12.5 -4 t-6 -9.5t-1.5 -11.5v-7q-2 -8 -12 -13t-22 -9.5t-21 -10.5t-9 -15q34 0 65.5 7t68.5 7h419z" />
<glyph unicode="&#x2018;" horiz-adv-x="197" d="M18 809q0 -15 4 -25.5t10.5 -19.5t15 -17.5t17.5 -19.5q5 -7 17.5 -21.5t27 -29.5t28.5 -26.5t22 -11.5h2q1 0 3 2t2 3v3q0 9 -8 17t-18 16t-18 17t-8 20q0 17 7 29.5t15 23t15 19t7 17.5q0 11 -9.5 27t-22 31t-26 25.5t-20.5 10.5h-3q-9 -9 -19.5 -18.5t-19.5 -21 t-15 -24t-6 -26.5z" />
<glyph unicode="&#x2019;" horiz-adv-x="186" d="M12 642v-2q0 -2 2 -3.5t3 -1.5h2q8 0 22 11.5t28.5 26.5t27 29.5t17.5 21.5l7 7t12.5 13t11.5 13.5t6 8.5q7 9 9 18.5t2 20.5q0 15 -6 27.5t-15 23.5t-20 20.5t-20 18.5h-2q-8 0 -21 -10.5t-26 -25t-22 -30.5t-9 -27q0 -9 6.5 -17.5t15 -19t15 -23.5t6.5 -29 q0 -11 -8 -20.5t-18 -17.5t-18 -16t-8 -17z" />
<glyph unicode="&#x201c;" horiz-adv-x="374" d="M194 803q0 -15 4 -25.5t10.5 -19.5t15 -17.5t18.5 -19.5q5 -7 17.5 -21.5t27 -29.5t28 -26.5t21.5 -11.5h3q1 0 3 2t2 3v3q0 9 -8 17t-18 16t-18 17t-8 20q0 17 6.5 29.5t15 23t15 19.5t6.5 18q0 11 -9 27t-22 31t-26 25.5t-21 10.5h-2q-9 -9 -20 -19t-20 -21.5t-15 -24 t-6 -26.5zM12 808q0 -15 4 -25.5t10.5 -19.5t15 -17.5t17.5 -19.5q6 -7 18.5 -21.5t26.5 -29.5t28 -26.5t23 -11.5h3l1.5 2t1.5 3q1 0 1 2q0 9 -8 17t-18 16t-18 17.5t-8 20.5q0 17 6.5 29.5t15 23t15 19.5t6.5 18q0 11 -9.5 27t-22 31t-26 25.5t-20.5 10.5h-1 q-10 -9 -21 -19t-20 -21.5t-15 -24t-6 -26.5z" />
<glyph unicode="&#x201d;" horiz-adv-x="363" d="M12 631v-2q0 -1 1.5 -3t3.5 -2h2q8 0 22 11.5t28.5 26.5t27 29.5t18.5 21.5l7 7t12 13t11.5 13.5t6.5 8.5q7 9 8.5 18.5t1.5 20.5q0 15 -6 27.5t-15 24t-20 21.5t-20 19h-3q-8 0 -21 -10.5t-25.5 -25.5t-22 -31t-9.5 -27q0 -9 6.5 -18t15 -19.5t15 -23.5t6.5 -29 q0 -11 -8 -20.5t-17.5 -17.5t-17.5 -16t-8 -17zM193 636q0 -1 0.5 -1.5l0.5 -0.5q0 -2 2 -3.5t3 -1.5h1q9 0 23 11.5t28.5 26.5t27 29.5t17.5 21.5l7 7t12.5 13t11.5 13.5t6 8.5q7 9 9 18.5t2 20.5q0 15 -6 27.5t-15 23.5t-20 21t-20 19h-2q-8 0 -21 -10.5t-26 -25 t-22 -30.5t-9 -27q0 -9 6.5 -18t15 -19.5t15 -23.5t6.5 -29q0 -11 -8.5 -20.5t-18 -17.5t-18 -16t-8.5 -17z" />
<glyph unicode="&#x202f;" horiz-adv-x="195" />
<glyph unicode="&#x205f;" horiz-adv-x="244" />
<glyph unicode="&#xe000;" horiz-adv-x="595" d="M0 595h595v-595h-595v595z" />
</font>
</defs>
</svg>
