<?xml version="1.0" standalone="no"?>
<!DOCTYPE svg PUBLIC "-//W3C//DTD SVG 1.1//EN" "http://www.w3.org/Graphics/SVG/1.1/DTD/svg11.dtd" >
<svg xmlns="http://www.w3.org/2000/svg">
<metadata></metadata>
<defs>
<font id="bellotabold_italic" horiz-adv-x="644" >
<font-face units-per-em="1000" ascent="800" descent="-200" />
<missing-glyph horiz-adv-x="271" />
<glyph unicode="&#xfb01;" horiz-adv-x="490" d="M-26 -259l113 713q28 171 123 226q38 22 89 22q85 0 131 -63l-79 -65q-12 22 -25.5 33t-38.5 11q-52 0 -81 -58q-17 -36 -28 -102h200q16 4 16 1q-5 -49 -56 -374l1.5 -9t3.5 -5.5t7 -2.5q12 0 29 21l68 -48q-53 -59 -109 -59q-45 0 -71 29q-21 25 -21 55q0 5 2 19 l46 289h-129l-101 -633h-90z" />
<glyph unicode="&#xfb02;" horiz-adv-x="693" d="M-26 -259l119 752q28 172 121 227q38 22 88 22q67 0 107 -31.5t40 -92.5q0 -15 -3 -33q-13 -88 -80 -140.5t-169 -52.5h-30l-19 -123h148l-13 -84h-148l-71 -444h-90zM181 476h30q126 0 143 108q2 16 2 20q0 27 -16 40.5t-44 13.5q-56 0 -84 -59q-18 -38 -28 -103z M436 77q0 11 1 17l100 632h90l-100 -632q0 -17 15 -17q6 0 14 8l12 12l68 -46q-53 -59 -110 -59q-37 0 -63.5 24t-26.5 61z" />
<glyph horiz-adv-x="1000" />
<glyph horiz-adv-x="1000" />
<glyph unicode="&#xd;" horiz-adv-x="1000" />
<glyph unicode=" "  horiz-adv-x="271" />
<glyph unicode="&#x09;" horiz-adv-x="271" />
<glyph unicode="&#xa0;" horiz-adv-x="271" />
<glyph unicode="!" horiz-adv-x="184" d="M-14 22q0 28 22.5 49.5t50.5 21.5q22 0 37.5 -15t15.5 -37q0 -28 -22.5 -50t-50.5 -22q-23 0 -38 15t-15 38zM23 152l77 552h112l-99 -552h-90z" />
<glyph unicode="&#x22;" horiz-adv-x="345" d="M85 475l25 227h108l-47 -227h-86zM245 475l25 227h108l-47 -227h-86z" />
<glyph unicode="#" horiz-adv-x="591" d="M5 176l13 82h114l24 152h-114l13 82h114l23 145h91l-23 -145h132l23 145h91l-23 -145h114l-13 -82h-114l-24 -152h114l-13 -82h-114l-23 -146h-89l23 146h-134l-23 -146h-89l23 146h-116zM223 258h132l24 152h-132z" />
<glyph unicode="$" horiz-adv-x="537" d="M-21 72l63 72q77 -51 147 -65l37 232q-75 24 -110 66q-30 36 -30 91q0 25 4.5 45.5t14 38.5t22.5 32.5t31 28.5q54 41 124 51l13 86h93l-13 -86q105 -15 188 -80l-64 -73q-77 52 -139 64l-31 -200q87 -27 128 -64q40 -40 40 -101q0 -105 -82 -165q-29 -21 -54 -32 t-41.5 -14t-51.5 -7l-10 -61h-93l10 60q-112 9 -196 81zM184 483q0 -23 12 -38q16 -22 45 -37l27 169q-24 -5 -42.5 -16t-30 -31t-11.5 -47zM282 77q101 12 115 99q2 12 2 17q0 46 -50 73l-35 15z" />
<glyph unicode="%" horiz-adv-x="732" d="M66 523q0 76 53 132t127 56q68 0 104 -49q27 -38 27 -85q0 -85 -65 -141q-36 -32 -58 -39.5t-60 -7.5q-59 0 -93.5 37.5t-34.5 96.5zM150 0l334 656h95l-333 -656h-96zM150 531q0 -13 5 -24.5t13 -19.5t18.5 -12.5t21.5 -4.5q32 0 56 26q11 12 16.5 21.5t7 16t3.5 19.5 q1 6 1 16q0 13 -5.5 25t-14 19.5t-19 12t-20.5 4.5q-49 0 -72 -53q-11 -22 -11 -46zM378 125q0 83 64 141q49 46 116 46q68 0 104 -48q27 -38 27 -86q0 -84 -65 -140q-19 -17 -33.5 -27t-29.5 -14t-24.5 -5t-30.5 -1q-59 0 -93.5 37.5t-34.5 96.5zM462 131q0 -27 17.5 -43.5 t40.5 -16.5q32 0 56 26q22 24 28 65q3 24 -13 46.5t-39 22.5q-43 0 -62 -26q-28 -30 -28 -74z" />
<glyph unicode="&#x26;" horiz-adv-x="631" d="M14 145q0 67 45 133q34 47 87 77q-25 39 -25 87q0 87 63 139.5t151 52.5q56 0 94 -30t50 -73l-75 -54q-11 32 -28 51q-20 21 -58 21q-40 0 -62 -16q-33 -23 -33 -73q0 -52 65 -114q13 -12 33 -32l115 -120q37 58 49 130l7 47h88l-9 -56q-15 -97 -77 -179l80 -83l-69 -63 l-77 78q-93 -77 -224 -77q-84 0 -137 38.5t-53 115.5zM107 160q0 -36 25 -61q28 -26 81 -26q94 0 159 51l-84 87q-44 45 -89 83q-33 -15 -61 -48q-31 -39 -31 -86z" />
<glyph unicode="'" horiz-adv-x="188" d="M79 475l25 227h108l-47 -227h-86z" />
<glyph unicode="(" horiz-adv-x="365" d="M15 210q0 33 7 84q23 152 120.5 273t232.5 189l31 -70q-112 -59 -191 -166q-81 -110 -99 -226q-5 -37 -5 -66q0 -106 48.5 -192.5t122.5 -131.5l-53 -70q-119 67 -175 191q-39 87 -39 185z" />
<glyph unicode=")" horiz-adv-x="365" d="M-42 -96q111 56 191 166q82 109 100 224q5 38 5 67q0 81 -32 159q-33 75 -59.5 104t-80.5 62l54 70q118 -71 174 -192q39 -87 39 -185q0 -34 -7 -85q-22 -144 -118 -269q-93 -121 -234 -191z" />
<glyph unicode="*" horiz-adv-x="373" d="M58 550l44 92l91 -38l12 108h97l-24 -109l105 39l14 -92l-100 -27l51 -74l-89 -56l-43 87l-71 -89l-68 58l73 75z" />
<glyph unicode="+" horiz-adv-x="427" d="M3 251l14 86h158l25 160h91l-25 -160h158l-14 -86h-158l-25 -161h-91l25 161h-158z" />
<glyph unicode="," horiz-adv-x="187" d="M-45 -66q36 31 46 56q1 3 6 25l4 39q3 22 21 35q14 13 37 13q21 0 33.5 -14t9.5 -36l-4 -20q-7 -52 -31 -88q-25 -34 -75 -66z" />
<glyph unicode="-" horiz-adv-x="431" d="M44 260l14 92h332l-14 -92h-332z" />
<glyph unicode="." horiz-adv-x="201" d="M-4 27q0 27 21.5 47.5t49.5 20.5q23 0 38 -14.5t15 -35.5q0 -28 -21.5 -48.5t-49.5 -20.5q-23 0 -38 14.5t-15 36.5z" />
<glyph unicode="/" horiz-adv-x="337" d="M-55 -87l363 855h99l-362 -855h-100z" />
<glyph unicode="0" horiz-adv-x="667" d="M47 256q0 36 6 73q15 101 71 183.5t140 121.5q65 30 129 30q67 0 120 -30q57 -31 89.5 -94t32.5 -144q0 -38 -5 -67q-22 -140 -109 -236q-94 -105 -222 -105q-70 0 -130 32q-122 63 -122 236zM145 265q0 -64 23 -109q41 -80 133 -80q47 0 87.5 20.5t69 56t47.5 79 t27 91.5q4 24 4 55q0 84 -38.5 141.5t-110.5 57.5q-59 0 -95.5 -19.5t-70.5 -61.5q-55 -69 -71 -170q-5 -35 -5 -61z" />
<glyph unicode="1" horiz-adv-x="377" d="M95 566q84 0 191 67q40 24 61 36h31l-106 -669h-96l84 527q-71 -43 -157 -43z" />
<glyph unicode="2" horiz-adv-x="556" d="M-5 0l5 29q17 101 119 186q32 28 84 61.5t99.5 66t78.5 64.5q38 40 38 95q0 28 -12.5 47.5t-34 28t-51.5 8.5q-49 0 -83 -17q-35 -17 -62 -56l-17 -25q-14 -21 -17 -25l-72 38l40 60q33 47 88.5 75.5t122.5 28.5q89 0 140 -35.5t51 -113.5q0 -20 -3 -41q-14 -86 -98 -155 q-37 -32 -80 -59l-85 -55q-47 -30 -79 -57.5t-53 -61.5h366l-14 -87h-471z" />
<glyph unicode="3" horiz-adv-x="583" d="M16 65l53 76q103 -63 173 -63q32 0 60 4q115 14 131 109q2 14 2 20q0 50 -36 79t-91 29h-127l14 87h126q24 0 52 11.5t50.5 38.5t22.5 62q0 31 -28 48t-69 17q-42 0 -76 -12.5t-84 -41.5l-34 75q7 3 19 10q45 23 66 32.5t50.5 16.5t65.5 7q88 0 139.5 -32.5t51.5 -99.5 q0 -20 -2 -30q-13 -85 -99 -135q89 -55 89 -148q0 -16 -3 -34q-13 -78 -64 -127t-133 -64q-51 -9 -98 -9q-101 0 -221 74z" />
<glyph unicode="4" horiz-adv-x="534" d="M4 120l11 67l284 473h105l-272 -453h204l34 211h97l-34 -211h84l-14 -87h-84l-19 -122h-97l19 122h-318z" />
<glyph unicode="5" horiz-adv-x="500" d="M2 72l37 85q57 -52 111 -73q21 -8 46 -8q77 0 127.5 43.5t62.5 115.5q2 20 2 28q0 55 -44 79q-41 22 -122 22q-75 0 -158 -29l50 311q264 3 370 8l-14 -88q-187 -5 -206 -4h-68l-18 -116q43 5 78 5q99 0 162.5 -47t63.5 -137q0 -17 -3 -37q-8 -52 -37 -98 q-37 -62 -102.5 -102t-145.5 -40q-52 0 -106 23t-86 59z" />
<glyph unicode="6" horiz-adv-x="551" d="M21 205q0 24 5 57q13 83 60 162q42 72 112 130q70 57 151 86q83 30 171 30l-16 -84q-50 0 -84.5 -6t-49.5 -12t-49 -23q-82 -41 -145 -132q71 38 135 38q93 0 155 -56t62 -143q0 -17 -3 -35q-16 -100 -101 -167q-82 -65 -185 -65q-95 0 -156.5 60.5t-61.5 159.5zM115 192 q0 -54 41.5 -89t99.5 -35q63 0 116 42q66 53 66 130q0 51 -30 86q-33 41 -102 41t-123 -44q-68 -55 -68 -131z" />
<glyph unicode="7" horiz-adv-x="492" d="M79 562l14 86l453 5l-4 -27l-360 -626h-102l329 565q-90 -3 -330 -3z" />
<glyph unicode="8" horiz-adv-x="565" d="M28 153q0 78 49 138q36 43 87 78q-50 39 -50 98q0 98 85 155q65 44 146 44q82 0 137 -44q44 -35 44 -105q0 -10 -3 -31q-4 -29 -28.5 -63.5t-66.5 -60.5q88 -53 88 -143q0 -15 -3 -33q-16 -96 -97 -151q-74 -50 -176 -50q-92 0 -152 43.5t-60 124.5zM127 169q0 -21 5 -34 q6 -23 25 -37q34 -29 96 -29q103 0 144 66q22 37 22 74q0 17 -6 31.5t-19.5 26t-25 19.5t-32.5 15.5t-31.5 11t-32 9.5t-24.5 7q-51 -37 -73 -57q-48 -48 -48 -103zM212 481q0 -22 14.5 -37t48.5 -25q33 -12 66 -21q56 33 76 64q12 22 12 45q0 32 -24 52q-25 21 -60 21 q-57 0 -89 -21q-44 -29 -44 -78z" />
<glyph unicode="9" horiz-adv-x="550" d="M48 392q0 74 40 136.5t106 98t140 35.5q54 0 100 -20.5t76 -59.5q43 -58 43 -143q0 -30 -4 -55q-14 -87 -57.5 -160t-105.5 -126q-141 -121 -309 -121h-22l15 83q57 0 101 10t88 35q90 53 147 138q-80 -48 -143 -48q-52 0 -94 18q-56 23 -88.5 68.5t-32.5 110.5zM136 405 q0 -57 39 -91.5t102 -34.5q77 0 130 47q55 50 55 120q0 30 -13 56q-13 25 -35 44q-17 15 -42 24q-27 8 -54 8q-28 0 -59 -11q-27 -10 -56 -31q-67 -52 -67 -131z" />
<glyph unicode=":" horiz-adv-x="195" d="M-4 37q0 27 21.5 47.5t49.5 20.5q23 0 38 -14.5t15 -35.5q0 -28 -21.5 -48.5t-49.5 -20.5q-23 0 -38 14.5t-15 36.5zM-4 417q0 27 21.5 47.5t49.5 20.5q23 0 38 -14.5t15 -35.5q0 -28 -21.5 -48.5t-49.5 -20.5q-23 0 -38 14.5t-15 36.5z" />
<glyph unicode=";" horiz-adv-x="179" d="M-45 -66q36 31 46 56q1 3 6 25l4 39q3 22 21 35q14 13 37 13q21 0 33.5 -14t9.5 -36l-4 -20q-7 -52 -31 -88q-25 -34 -75 -66zM-4 417q0 27 21.5 47.5t49.5 20.5q23 0 38 -14.5t15 -35.5q0 -28 -21.5 -48.5t-49.5 -20.5q-23 0 -38 14.5t-15 36.5z" />
<glyph unicode="&#x3c;" horiz-adv-x="384" d="M-11 265l335 210l39 -76l-210 -132l169 -134l-66 -77z" />
<glyph unicode="=" horiz-adv-x="454" d="M29 170l14 87h387l-14 -87h-387zM55 330l13 87h387l-13 -87h-387z" />
<glyph unicode="&#x3e;" horiz-adv-x="384" d="M11 132l210 131l-170 134l66 77l268 -209l-334 -209z" />
<glyph unicode="?" horiz-adv-x="458" d="M65 548q0 45 31 78q21 24 55 43q63 34 134 34q82 0 137 -47.5t55 -126.5q0 -17 -3 -33q-19 -121 -149 -187l-63 -32q-31 -17 -49 -34q-21 -19 -25 -43q-2 -14 -1 -53l-88 -17q-2 18 -2 31q0 31 6.5 56.5t19 44.5t27.5 33.5t35.5 27t38.5 22.5t42 22.5t41 23.5 q23 15 38.5 28t29 39.5t13.5 59.5q0 32 -16.5 55.5t-43 34.5t-59.5 11q-54 0 -97 -30q-18 -13 -18 -26q0 -20 31 -20l8 -60q-24 -9 -48 -9q-36 0 -58 20t-22 54zM86 22q0 28 22.5 49.5t50.5 21.5q11 0 21 -4t17 -11t11 -16.5t4 -20.5q0 -28 -22.5 -50t-50.5 -22 q-23 0 -38 15t-15 38z" />
<glyph unicode="@" horiz-adv-x="698" d="M22 178q0 29 4 56q23 139 121 226.5t245 87.5q121 0 196.5 -64t75.5 -176q0 -111 -66 -177q-52 -52 -125 -52q-69 0 -91 45q-42 -32 -88 -32q-59 0 -90.5 36.5t-31.5 96.5q0 89 66 144q52 45 116 45l65 -5h62l-33 -211q0 -2 -0.5 -4t-0.5 -4q0 -15 12 -25t29 -10 q39 0 63 44.5t24 97.5q0 71 -43 116q-55 58 -150 58q-107 0 -178 -65t-88 -166q-3 -22 -3 -43q0 -76 38 -122q46 -56 162 -56q109 0 207 41l13 -75q-6 -2 -24.5 -7t-24.5 -7t-22.5 -6.5t-23.5 -6t-22 -4.5t-23.5 -4.5t-22.5 -3.5t-25 -3t-24 -1.5t-27 -0.5q-67 0 -119 19 q-69 26 -111 80t-42 138zM257 233q0 -36 19 -52q9 -8 28 -8q15 0 25.5 5t16 11t15.5 20l5 10l18 112q-24 2 -37 2q-43 0 -66.5 -27t-23.5 -73z" />
<glyph unicode="A" horiz-adv-x="801" d="M-9 97l91 17q0 -1 1 -5.5t1.5 -6.5t1.5 -5.5t2.5 -5.5t4 -3.5t5.5 -1.5q10 0 15 8l363 592h42l203 -686h-103l-60 216h-271l-94 -158q-20 -31 -48 -45q-28 -16 -64 -16q-41 0 -65.5 29t-24.5 71zM338 303h195l-62 220z" />
<glyph unicode="B" horiz-adv-x="650" d="M64 562q9 53 48 93t93 40h222q91 0 147 -47q48 -39 48 -101q0 -18 -6 -51q-6 -36 -30.5 -71t-65.5 -57q46 -27 66 -72q16 -31 16 -70q0 -112 -103 -187q-69 -48 -211 -48q-51 0 -121 5l-67 6l96 606q-34 0 -41 -46h-91zM208 79q59 -3 100 -3q89 0 134 26q53 31 64 95 q2 14 2 20q0 47 -39.5 74.5t-94.5 27.5h-62l13 85h55q85 0 124 57q21 29 21 66q0 40 -26.5 60.5t-70.5 20.5h-136z" />
<glyph unicode="C" horiz-adv-x="762" d="M50 280q0 30 4 55q21 120 98.5 211t187.5 135q72 29 150 29q55 0 103.5 -14.5t82.5 -48t34 -79.5q0 -33 -16 -61t-44.5 -45t-62.5 -17q-40 0 -76 32l66 66q4 0 11 -6.5t11 -6.5q16 0 21 23q3 23 -22 40t-58.5 24t-67.5 7q-112 0 -211 -85q-121 -105 -121 -248 q0 -35 9 -62q12 -45 44 -87q12 -16 27 -29t28 -21t29.5 -14t28 -8.5t27.5 -4t23.5 -2t21.5 0t15 0.5q34 0 73 12.5t83.5 41.5t78.5 69l66 -49q-62 -70 -145.5 -114.5t-181.5 -44.5q-53 0 -101 14t-82.5 36t-61.5 52q-72 83 -72 199z" />
<glyph unicode="D" horiz-adv-x="819" d="M63 557q8 54 46 93q18 19 37 28t29.5 10.5t29.5 1.5h299q148 -2 226 -101q59 -77 59 -184q0 -26 -5 -61q-26 -159 -143 -259q-111 -94 -320 -94q-183 0 -221 13l95 599h-6q-14 0 -24.5 -14t-10.5 -32h-91zM208 80q47 -4 146 -4q148 0 231 71q46 41 77 104.5t31 141.5 q0 84 -42 137q-56 73 -171 73h-189z" />
<glyph unicode="E" horiz-adv-x="663" d="M62 551q7 53 47 93t94 40h479l-14 -87h-387l-31 -193h267l-13 -87h-267l-37 -229h387l-14 -88h-483l95 597q-17 -3 -24 -18q-8 -18 -8 -28h-91z" />
<glyph unicode="F" horiz-adv-x="601" d="M62 550q7 53 47 93t94 40h479l-14 -87h-387l-31 -193h267l-14 -87h-267l-50 -316h-96l95 596q-14 -2 -23 -16t-9 -30h-91z" />
<glyph unicode="G" horiz-adv-x="767" d="M48 270q0 28 4 52q14 81 53 147q38 67 100 121q130 112 284 112q84 0 147 -36q68 -39 68 -103q0 -52 -35.5 -88.5t-87.5 -36.5q-41 0 -75 31l66 67l9 -7q7 -6 13 -6q7 0 13 6q4 4 7 16q2 15 -12.5 30t-41.5 25q-42 15 -92 15q-57 0 -111 -23q-81 -34 -141 -105.5 t-74 -161.5q-4 -21 -4 -47q0 -65 29.5 -117.5t82 -83t117.5 -30.5q63 0 122 31q41 22 66 51t44 68q7 14 10 28l15 92h92l-76 -480q-7 -43 -43 -75t-82 -32q-37 0 -58 17q-19 15 -36 44l84 51l8 -13q6 -8 15 -8q17 0 20 16l32 205q-99 -80 -226 -80q-73 0 -135 29 q-126 60 -160 193q-11 44 -11 86z" />
<glyph unicode="H" horiz-adv-x="722" d="M74 629q53 60 106 60q44 0 73 -24t29 -63q0 -6 -2 -18l-29 -185h334l45 285h96l-109 -684h-96l50 311h-334l-50 -311h-97l93 584q1 5 -3 9t-9 4q-9 0 -24 -20z" />
<glyph unicode="I" horiz-adv-x="210" d="M14 0l109 684h96l-109 -684h-96z" />
<glyph unicode="J" horiz-adv-x="471" d="M8 151q0 24 4 47q3 -1 18 -1h62q-2 -18 -2 -27q0 -93 101 -93q53 0 84 33t39 86l62 391q-18 -5 -40 -5q-38 0 -90 21q-29 12 -43 12q-37 0 -91 -27l-23 70q49 41 127 41q31 0 71.5 -16.5t68.5 -16.5q22 0 45 24h80l-79 -496q-13 -89 -75.5 -144.5t-156.5 -55.5t-132 54 q-30 41 -30 103z" />
<glyph unicode="K" horiz-adv-x="658" d="M15 1l108 683h96l-47 -297q49 0 76 9.5t52 32.5q40 36 102 124q23 32 87 131h116q-27 -34 -74 -101t-70 -97q-25 -35 -62 -79q-32 -39 -64 -63l150 -257q5 -7 13 -7q18 0 22 33h92q-7 -50 -43 -85t-86 -35q-56 0 -81 43l-157 269q-32 -8 -72 -8h-14l-46 -296h-98z" />
<glyph unicode="L" horiz-adv-x="527" d="M14 0l109 684h96l-95 -596h327l-14 -88h-423z" />
<glyph unicode="M" horiz-adv-x="1034" d="M-13 71l88 32q6 -23 17 -23t14 8l224 596h85l122 -540l296 540h83l38 -684h-92l-27 519l-280 -519h-83l-114 517l-164 -443q-12 -34 -42.5 -57t-72.5 -23q-36 0 -59.5 20.5t-32.5 56.5z" />
<glyph unicode="N" horiz-adv-x="798" d="M-9 92q0 7 2 23h91q-2 -12 -2 -15q0 -5 1 -8q0 -9 16 -9q13 0 16 14l93 587h63q9 -13 49 -62q53 -70 162.5 -223t149.5 -208l75 492h95l-109 -683h-44l-376 522l-63 -424q-8 -43 -47 -72q-40 -29 -82 -29q-40 0 -65 26.5t-25 68.5z" />
<glyph unicode="O" horiz-adv-x="824" d="M48 274q0 24 5 56l3 19q11 72 52 141q37 61 97 112q122 104 274 104q146 0 241 -104q74 -82 74 -198q0 -30 -4 -55l-3 -19q-5 -26 -8.5 -42.5t-14.5 -43.5t-28 -54q-37 -61 -99 -113q-125 -103 -274 -103q-71 0 -134 28q-60 27 -104.5 75t-63.5 114q-13 38 -13 83z M140 285q0 -81 55 -147q30 -36 77 -57.5t104 -21.5t111.5 21t96.5 57q31 26 54.5 58t37.5 66t20 69l3 19q3 21 3 41q0 34 -9 65q-19 72 -81 118.5t-147 46.5q-55 0 -109 -21q-50 -19 -97 -58q-96 -82 -112 -192l-3 -19q-4 -30 -4 -45z" />
<glyph unicode="P" horiz-adv-x="624" d="M62 551q7 53 47 93t94 40h230q81 0 130.5 -46t49.5 -125q0 -13 -4 -43q-14 -94 -87.5 -159.5t-174.5 -65.5q-30 0 -54 7q1 4 7.5 35t9.5 52q34 -8 60 -8q63 0 105 49.5t42 116.5q0 49 -30 74.5t-82 25.5h-114l-95 -597h-96l95 597h-4q-19 0 -27 -15q-11 -17 -11 -31h-91z " />
<glyph unicode="Q" horiz-adv-x="802" d="M50 280q0 27 5 60q24 152 140 254q115 100 272 100q138 0 221 -79.5t83 -212.5q0 -28 -5 -63q-13 -81 -51 -148q-38 -66 -98 -115t-130 -72q-62 -20 -124 -20q-18 0 -27 1l-49 -56l80 -27q36 -11 74 -11q45 0 113 42l30 -72q-51 -31 -82.5 -42t-77.5 -11q-39 0 -96 16 q-39 11 -104 34l-55 -63l-63 52l137 153q-90 26 -141.5 98.5t-51.5 181.5zM147 284q0 -100 60 -157.5t164 -57.5q117 0 199.5 75.5t99.5 190.5q4 25 4 54q0 87 -40 143q-53 76 -170 76q-64 0 -121 -21q-51 -19 -91 -56q-47 -42 -76 -105t-29 -142z" />
<glyph unicode="R" horiz-adv-x="735" d="M62 551q7 53 47 93t94 40h236q78 0 126.5 -48t48.5 -127q0 -88 -51.5 -151t-128.5 -78l12 -16q23 -35 65 -100t52 -80q3 -6 13 -6q3 0 5.5 0.5t4.5 2t3 2.5t2.5 3.5t2 4t1 5t1 5t1 5.5t0.5 5l92 -3q-9 -50 -42 -83.5t-84 -33.5q-56 0 -83 43l-102 156q-12 21 -35 46.5 t-40 26.5l14 86h54q65 0 106 41t41 107q0 44 -25.5 72t-71.5 28h-132l-95 -597h-96l95 597q-33 0 -40 -46h-91z" />
<glyph unicode="S" horiz-adv-x="581" d="M11 162l89 32q8 -29 22 -52q43 -81 139 -81q49 0 87.5 21.5t61.5 55.5q23 31 23 74q0 36 -19 56.5t-54 37.5l-44 22q-70 34 -82 42q-27 15 -49 39.5t-33 49.5q-10 20 -10 49q0 57 32 99q19 29 53 53q25 18 65 32t78 14q51 0 90 -19t57 -52q8 -16 8 -40q0 -60 -48 -92 q-33 -25 -82 -25q-6 0 -12 2q-2 1 -5 1.5t-4 0.5l21 85l10 -3q3 -1 10 -1q17 0 19 14v4q0 9 -6 17q-26 22 -72 22q-33 0 -61 -13.5t-45 -34.5t-17 -51q0 -18 8 -27q10 -15 30.5 -32t39.5 -26q37 -18 115 -60q34 -20 57 -43q24 -27 35 -58q7 -25 7 -47q0 -15 -3 -36 q-7 -50 -34 -89q-57 -80 -149 -112q-44 -15 -93 -15q-92 0 -151 51t-84 135z" />
<glyph unicode="T" horiz-adv-x="642" d="M75 565q7 48 42 83.5t82 35.5h482l-14 -87h-239l-95 -597h-96l95 597h-144q-19 0 -21 -32h-92z" />
<glyph unicode="U" horiz-adv-x="770" d="M75 631q55 62 117 62q46 0 74 -31q24 -24 24 -62q0 -11 -1 -17l-50 -311q-3 -21 -3 -40q0 -64 30 -102q42 -53 131 -53t148 53q59 54 72 142l66 413h96l-66 -413q-19 -122 -109 -201t-220 -79q-112 0 -178.5 60.5t-66.5 166.5q0 29 4 53l50 311v5q0 15 -16 15 q-11 0 -18 -9l-13 -14z" />
<glyph unicode="V" horiz-adv-x="706" d="M70 598q17 38 49 65t74 27q34 0 59 -19t32 -53l90 -466l264 533h97l-343 -685h-84l-116 592q0 9 -11 9q-15 0 -26 -27z" />
<glyph unicode="W" horiz-adv-x="1146" d="M71 603q11 23 26 42.5t40.5 34t53.5 14.5q39 0 64 -19.5t31 -51.5l85 -470l263 532h85l96 -532l263 532h97l-343 -685h-85l-96 526l-263 -526h-85l-110 595q-2 11 -13 11q-10 0 -16 -10l-9 -17z" />
<glyph unicode="X" horiz-adv-x="702" d="M8 0l276 350l-170 334h111l131 -260l212 260h113l-274 -334l122 -263q4 -5 8 -5q17 0 26 31l92 -5q-21 -79 -83 -104q-28 -11 -52 -11q-36 0 -55.5 19.5t-37.5 57.5l-92 205l-215 -275h-112z" />
<glyph unicode="Y" horiz-adv-x="662" d="M68 583q12 47 45.5 79t82.5 32q63 0 87 -54l101 -240l212 285h110l-290 -388l-45 -297h-102l51 295l-126 302q-3 8 -14 8q-9 0 -14 -11l-7 -20z" />
<glyph unicode="Z" horiz-adv-x="624" d="M-6 22l452 575h-299l13 84h454l-446 -567q20 -4 62.5 -16t77.5 -20t57 -8q40 0 69 16q32 19 57 40l54 -58q-98 -81 -194 -81q-38 0 -81.5 10t-90.5 24.5t-68 19.5l-49 -61z" />
<glyph unicode="[" horiz-adv-x="330" d="M-25 -173l146 923h273l-14 -89h-177l-118 -745h177l-14 -89h-273z" />
<glyph unicode="\" horiz-adv-x="337" d="M77 750h98l99 -819h-100z" />
<glyph unicode="]" horiz-adv-x="331" d="M-66 -173l14 89h177l118 745h-177l14 89h273l-146 -923h-273z" />
<glyph unicode="^" horiz-adv-x="449" d="M25 359l234 274h38l146 -274l-86 -55l-104 189l-160 -187z" />
<glyph unicode="_" horiz-adv-x="574" d="M-21 -150l14 90h475l-14 -90h-475z" />
<glyph unicode="`" horiz-adv-x="240" d="M68 692l70 79l160 -146l-49 -62z" />
<glyph unicode="a" d="M40 194q0 145 102 239q81 75 202 75q34 0 76 -3q31 -6 70 -6l13 1h36l-65 -409v-4q0 -6 4 -9.5t10 -3.5q5 0 10.5 4t10.5 10t7 8l66 -48q-48 -57 -106 -57q-31 0 -54.5 14.5t-32.5 39.5q-63 -54 -154 -54q-92 0 -143.5 55.5t-51.5 147.5zM133 214q0 -50 18 -86 q28 -56 97 -56q59 0 101 34.5t51 85.5l36 228q-99 7 -120 7q-66 0 -118 -52q-28 -28 -46.5 -70t-18.5 -91z" />
<glyph unicode="b" horiz-adv-x="558" d="M18 14l112 712h90l-40 -252q62 44 139 44q109 0 160 -78q34 -53 34 -130q0 -76 -28 -138.5t-73 -104.5q-80 -76 -216 -76q-104 0 -178 23zM118 80q60 -7 102 -7q86 0 136 53q64 64 64 172q0 61 -30.5 99t-84.5 38q-63 0 -111 -45q-32 -30 -36 -61z" />
<glyph unicode="c" horiz-adv-x="546" d="M39 186q0 132 81 229t203 97q82 0 131 -44q40 -37 40 -100q0 -20 -2 -31h-92q2 16 2 22q0 74 -91 74q-41 0 -71 -18q-29 -19 -51 -47q-58 -75 -58 -169q0 -61 33.5 -92t96.5 -31q67 0 171 50l34 -66q-116 -66 -226 -66q-111 0 -164 69q-37 48 -37 123z" />
<glyph unicode="d" d="M41 198q0 29 4 53q19 115 97 190q82 77 206 77q46 0 102 -6l35 215h90l-101 -634v-3l-1 -1q0 -5 5 -9t9 -4q9 0 17 8l12 14l66 -48q-47 -59 -108 -59q-28 0 -52 14q-24 15 -33 41q-62 -55 -153 -55q-94 0 -144.5 55.5t-50.5 151.5zM134 210q0 -87 52 -121q24 -16 62 -16 q58 0 101.5 36t50.5 87l37 232q-49 7 -97 7q-52 0 -85 -14q-31 -13 -57 -39q-64 -62 -64 -172z" />
<glyph unicode="e" horiz-adv-x="546" d="M38 182q0 23 5 55q18 117 93 192q81 79 186 79q76 0 127 -39q47 -37 47 -96q0 -8 -2 -24q-13 -79 -83.5 -120.5t-180.5 -41.5h-98q1 -62 35 -89q31 -26 92 -26q68 0 173 50l33 -66q-115 -66 -226 -66q-94 0 -147.5 51t-53.5 141zM140 268h103q62 0 90 10q23 8 47 27 q23 21 23 57q0 12 -5 25q-6 15 -21 24q-13 10 -32 14q-20 4 -40 4q-54 0 -106 -52q-45 -47 -59 -109z" />
<glyph unicode="f" horiz-adv-x="418" d="M-26 -259l119 752q28 172 121 227q38 22 88 22q67 0 107 -31.5t40 -92.5q0 -15 -3 -33q-13 -88 -80 -140.5t-169 -52.5h-30l-19 -123h148l-13 -84h-148l-71 -444h-90zM181 476h30q126 0 143 108q2 16 2 20q0 27 -16 40.5t-44 13.5q-56 0 -84 -59q-18 -38 -28 -103z" />
<glyph unicode="g" horiz-adv-x="548" d="M41 198q0 29 4 52q17 108 100 183.5t201 75.5q44 0 77 -4l44 -6h70l-95 -600q-13 -81 -66 -130q-54 -49 -129 -49t-114 49q-28 33 -28 82q0 8 3 32q11 65 50 109q-71 28 -100 105q-17 46 -17 101zM130 211q0 -62 28 -105.5t81 -43.5q55 0 112 49q19 16 33 36q13 20 14 29 l39 244q-72 5 -102 5q-81 0 -135 -51q-70 -62 -70 -163zM196 -129q0 -10 1 -14q0 -9 10 -26q16 -27 53 -27q58 0 84 60q8 18 10 32l21 135q-40 -29 -69 -38q-18 -7 -23 -11l-28 -17q-22 -12 -35 -27q-14 -14 -19 -28t-5 -39z" />
<glyph unicode="h" horiz-adv-x="610" d="M4 3l115 726h90l-42 -264q73 56 159 56q73 0 115.5 -32.5t42.5 -97.5q0 -12 -4 -40l-41 -256v-6q0 -10 14 -10q11 0 27 21l68 -49q-22 -25 -49 -41q-25 -16 -57 -16q-41 0 -67.5 24t-26.5 62q0 10 1 15l41 253q2 16 2 23q0 67 -85 67q-48 0 -86 -24q-39 -25 -72 -61 l-55 -350h-90z" />
<glyph unicode="i" horiz-adv-x="261" d="M17 64q0 5 2 19l66 417h90l-66 -417v-4q0 -13 14 -13q6 0 14 8l12 12l69 -46q-53 -59 -110 -59q-38 0 -64.5 23t-26.5 60zM99 667q0 26 20.5 46t46.5 20q22 0 35.5 -13.5t13.5 -34.5q0 -27 -20 -46.5t-47 -19.5q-21 0 -35 13.5t-14 34.5z" />
<glyph unicode="j" horiz-adv-x="256" d="M-72 -205l82 47l8 -13q6 -7 13 -7q17 0 20 17l105 663h90l-105 -663q-8 -45 -43 -74q-18 -14 -32.5 -21t-24.5 -8t-31 -1q-49 0 -82 60zM166 667q0 26 20.5 46t46.5 20q21 0 35 -13.5t14 -34.5q0 -27 -20 -46.5t-47 -19.5q-21 0 -35 13.5t-14 34.5z" />
<glyph unicode="k" horiz-adv-x="590" d="M4 1l115 726h90l-42 -265q64 57 150 57q77 0 117 -40q36 -36 36 -89q0 -74 -50 -127q-25 -27 -62 -46l62 -124q1 -4 10 -4q8 0 15 11t7 20l92 -4q-18 -77 -81 -105q-20 -10 -45 -10q-29 0 -49 13q-22 11 -35 35l-68 143h-142l-30 -191h-90zM139 275h98q77 0 111 32 q27 28 33 61q0 2 0.5 5.5t0.5 4.5q0 3 -2 11q-9 50 -76 50q-61 0 -105.5 -48.5t-59.5 -115.5z" />
<glyph unicode="l" horiz-adv-x="275" d="M18 77q0 11 1 17l100 632h90l-100 -632q0 -17 15 -17q6 0 14 8l12 12l68 -46q-53 -59 -110 -59q-37 0 -63.5 24t-26.5 61z" />
<glyph unicode="m" horiz-adv-x="929" d="M53 0l55 346q3 16 3 30q0 44 -33 82l66 52q39 -30 51 -67q68 65 163 65q96 0 129 -71q74 71 166 71q66 0 107.5 -33.5t41.5 -95.5q0 -16 -3 -34l-40 -255v-4q0 -13 16 -13q11 0 26 20l66 -46q-48 -57 -108 -57q-43 0 -67 22.5t-24 60.5q0 12 1 17l40 254q2 16 2 21 q0 62 -73 62q-80 0 -140 -81l-55 -346h-90l53 331q2 10 2 27q0 37 -16.5 53t-53.5 16q-61 0 -113 -48q-20 -20 -26 -31l-56 -348h-90z" />
<glyph unicode="n" horiz-adv-x="659" d="M53 0l55 346q3 16 3 30q0 44 -33 82l65 52q43 -33 53 -72q76 70 178 70q72 0 115.5 -29t43.5 -92q0 -21 -2 -32l-43 -267q0 -17 17 -17q11 0 26 20l66 -46q-48 -57 -108 -57q-43 0 -67.5 23.5t-24.5 62.5q0 10 1 14l39 242q3 16 3 29q0 30 -15 45q-21 24 -69 24 q-78 0 -158 -85l-55 -343h-90z" />
<glyph unicode="o" horiz-adv-x="627" d="M41 201q0 26 4 47q18 117 106 189q84 71 202 71q99 0 163.5 -57t64.5 -153q0 -26 -4 -47q-18 -115 -103 -190q-77 -69 -203 -69q-124 0 -181 67q-49 56 -49 142zM134 212q0 -65 40 -102.5t106 -37.5q85 0 140 49q55 51 67 126q0 3 1 9.5t1 10.5q3 72 -30 113 q-39 47 -120 47q-91 0 -148 -60.5t-57 -154.5z" />
<glyph unicode="p" horiz-adv-x="596" d="M12 -260l96 603q3 17 3 30q0 27 -8 45t-25 39l66 54q24 -23 32.5 -35t16.5 -31q65 63 162 63q91 0 143 -56t52 -154q0 -75 -29 -138t-73 -104q-79 -76 -212 -76q-25 0 -95 6l-39 -246h-90zM154 69q62 -7 102 -7q47 0 78.5 13.5t58.5 40.5q63 63 63 168q0 49 -17 82 q-28 59 -95 59q-34 0 -64 -12.5t-51 -33.5t-31 -47q-4 -12 -4 -14z" />
<glyph unicode="q" horiz-adv-x="549" d="M40 185q0 148 102 246q80 77 214 77q105 0 180 -23l-118 -745h-90l45 283q-61 -43 -139 -43q-110 0 -161 77q-33 52 -33 128zM133 199q0 -38 11 -68t36.5 -49.5t61.5 -19.5q54 0 93 25.5t57 67.5q4 12 4 14l40 249q-62 7 -103 7q-46 0 -80 -14q-56 -27 -88 -81.5 t-32 -130.5z" />
<glyph unicode="r" horiz-adv-x="422" d="M53 0l55 347q2 18 2 26q0 48 -32 85l66 52q37 -29 51 -66q63 64 151 64q15 0 75 -10l-13 -83q-49 11 -80 11q-67 0 -130 -80l-55 -346h-90z" />
<glyph unicode="s" horiz-adv-x="469" d="M4 57l58 66q39 -26 70.5 -38.5t76.5 -12.5q98 0 110 69q1 4 1 12q0 19 -13 32q-21 21 -106 52q-28 9 -60 28q-53 32 -53 91q0 66 55.5 109t135.5 43q77 0 138 -37l-31 -79q-85 35 -130 35q-32 0 -52.5 -15t-20.5 -41q0 -19 14 -30q22 -18 105 -50q52 -21 82 -50.5 t30 -76.5q0 -80 -65.5 -126.5t-158.5 -46.5q-105 0 -186 66z" />
<glyph unicode="t" horiz-adv-x="396" d="M36 109q0 19 3 43l75 472h90l-19 -119h158l-13 -86h-158l-43 -267q-2 -10 -2 -26q0 -54 45 -54q29 0 54 22q24 17 43 42l61 -48q-33 -46 -76 -72q-43 -25 -98 -25q-120 0 -120 118z" />
<glyph unicode="u" horiz-adv-x="674" d="M76 445l60 70q83 -58 83 -121q0 -9 -1 -14l-34 -211q-3 -17 -3 -29q0 -27 14 -43q21 -25 70 -25q42 0 86 25q34 20 71 59l56 345h90l-66 -411v-4q0 -13 15 -13q5 0 15 8l12 13l68 -48q-51 -56 -110 -56q-32 0 -56.5 18t-32.5 45q-75 -60 -167 -60q-124 0 -152 81 q-6 18 -6 40q0 20 2 31l38 235q3 19 -37 53z" />
<glyph unicode="v" horiz-adv-x="524" d="M62 452l60 70q29 -19 54 -49q21 -29 28 -69l49 -256l179 352h92l-254 -500h-82l-77 400q-6 27 -49 52z" />
<glyph unicode="w" horiz-adv-x="849" d="M62 453l60 71q66 -46 81 -120l49 -254l178 351h82l66 -350l178 350h93l-253 -500h-82l-67 350l-177 -350h-83l-75 399q-7 25 -50 53z" />
<glyph unicode="x" horiz-adv-x="591" d="M2 0l209 249l-131 251h109l90 -178l144 178h107l-203 -249l88 -177q3 -7 13 -7q17 0 21 32l92 -5q-8 -31 -16 -45t-27 -33q-34 -34 -80 -34q-63 0 -88 47l-74 148l-147 -177h-107z" />
<glyph unicode="y" horiz-adv-x="570" d="M76 443l60 72q40 -31 61 -58.5t21 -66.5q0 -9 -1 -13l-34 -215q-3 -16 -3 -30q0 -24 8.5 -39t25 -22t43.5 -7q70 0 111 37q2 1 8 5.5t7.5 6t6.5 5.5t6.5 5.5l5.5 5.5t6 6.5t4.5 6.5t4.5 8t3.5 9t3.5 10l54 331h90q-69 -425 -97 -606q-13 -79 -65 -128.5t-132 -49.5 q-62 0 -100 38t-38 100q0 81 50 134q-56 13 -81 51q-18 27 -18 67q0 20 2 31l38 240q3 21 -36 54zM225 -133q0 -24 10 -41q15 -26 52 -26q26 0 47 12t32.5 32t15.5 46l21 135q-39 -24 -73 -38q-37 -16 -54 -28q-51 -32 -51 -92z" />
<glyph unicode="z" horiz-adv-x="561" d="M-1 24l348 393h-241l13 81h386l-5 -34l-321 -359l43 -14q55 -23 117 -23q40 0 108 40l31 -69q-82 -51 -145 -51q-31 0 -63.5 5t-49 9.5t-55 16.5t-48.5 15l-55 -60z" />
<glyph unicode="{" horiz-adv-x="318" d="M9 247l13 83q54 6 77 22q16 11 16 61q0 105 11 178q10 62 49 95t105 49q55 14 73 19l12 -77l-35 -9q-3 -1 -21 -5.5t-25 -6.5t-18 -7t-18 -11q-20 -14 -25 -38q-7 -44 -7 -113q-1 -72 -8 -113q-6 -38 -18 -53t-42 -33q34 -25 34 -66q0 -6 -2 -20q-8 -55 -27 -110 q-19 -57 -24 -90q-3 -19 -3 -32q0 -18 12 -30q14 -14 52 -25q8 -2 52 -14l-36 -77q-12 4 -42 12t-50.5 15t-36.5 17q-49 30 -49 89q0 18 2 28q12 72 31 135q19 56 23 80q1 3 1 8q0 21 -27 30q-16 6 -49 9z" />
<glyph unicode="|" horiz-adv-x="184" d="M-11 -87l135 855h96l-135 -855h-96z" />
<glyph unicode="}" horiz-adv-x="317" d="M-49 -99l34 9q54 14 83 30q20 11 26 43q5 34 7 108.5t8 111.5q7 54 57 85q-32 24 -32 66q0 35 29 135.5t29 120.5q0 13 -9.5 23.5t-18 14t-24.5 9.5q-13 5 -35 11l-31 9l36 77q12 -4 42 -11.5t51 -15t36 -17.5q49 -30 49 -89q0 -18 -2 -28q-9 -56 -23 -105 q-27 -88 -31 -110q-1 -3 -1 -9q0 -20 26 -30q10 -3 51 -8l-13 -84q-86 -9 -90 -44q-4 -17 -4 -39q-1 -13 -1 -46q-3 -93 -10 -134q-10 -60 -49 -92.5t-104 -48.5q-50 -12 -74 -19z" />
<glyph unicode="~" horiz-adv-x="524" d="M41 295q39 28 71 44t77 16q42 0 82 -17t73 -17q36 0 85 39l47 -68q-48 -33 -69 -42q-40 -17 -73 -17q-49 0 -98 20q-40 14 -59 14q-35 0 -89 -39z" />
<glyph unicode="&#xa1;" horiz-adv-x="223" d="M-21 -188l98 552h90l-76 -552h-112zM80 466q0 28 22.5 50t50.5 22q23 0 38 -15t15 -38q0 -28 -22.5 -49.5t-50.5 -21.5q-22 0 -37.5 15t-15.5 37z" />
<glyph unicode="&#xa2;" horiz-adv-x="501" d="M20 257q0 131 79 228q63 77 151 96l17 102h96l-16 -100q57 -12 92.5 -46.5t35.5 -92.5q0 -18 -3 -34h-61v11q2 5 6 5h-34q1 4 1 12q0 47 -50 63l-56 -355q16 2 36.5 8.5t31.5 11t36.5 15.5t29.5 13l34 -66q-93 -57 -182 -66l-10 -62h-96l11 65q-149 26 -149 192zM111 269 q0 -91 72 -116l54 343q-53 -24 -89.5 -88t-36.5 -139z" />
<glyph unicode="&#xa3;" horiz-adv-x="566" d="M42 287l14 88h82l16 102q14 89 78.5 137.5t167.5 48.5l131 -9l-13 -83q-104 9 -147 9q-104 0 -121 -103l-16 -102h154l-14 -88h-154l-24 -153l-5 -22q8 -3 28.5 -10t31.5 -10.5t28.5 -8t35 -6.5t36.5 -2q44 0 109 41l28 -76q-79 -52 -145 -52q-73 0 -142 24q-19 7 -47 15 q-17 -26 -37 -42l-74 30q3 5 14.5 21.5t15 22.5t10.5 19.5t10.5 26.5t6.5 29l24 153h-82z" />
<glyph unicode="&#xa4;" horiz-adv-x="697" d="M0 48l120 98q-23 40 -23 93q0 111 68 189l-88 100l77 65l93 -103q68 35 138 35t126 -35l125 103l58 -65l-121 -100q25 -46 25 -84q0 -23 -6 -56q-13 -83 -64 -140l90 -100l-78 -64l-94 103q-68 -36 -138 -36q-71 0 -126 34l-124 -101zM196 255q0 -57 34.5 -88.5 t92.5 -31.5q67 0 117 44q31 28 40.5 49t15.5 62q3 18 3 33q0 56 -35 87t-93 31q-78 0 -126.5 -52.5t-48.5 -133.5z" />
<glyph unicode="&#xa5;" horiz-adv-x="625" d="M52 161l13 83h192l9 54l-3 4h-190l14 85h138l-140 273h111l133 -263l214 263h112l-224 -273h136l-14 -85h-188l-2 -4l-9 -54h191l-13 -83h-191l-26 -161h-95l26 161h-194z" />
<glyph unicode="&#xa6;" horiz-adv-x="191" d="M-12 -87l64 405h96l-64 -405h-96zM59 363l64 405h96l-64 -405h-96z" />
<glyph unicode="&#xa7;" horiz-adv-x="406" d="M33 13l36 7q41 9 43 10q55 14 71 29q15 14 18 31q0 1 0.5 3t0.5 3q0 12 -7.5 24.5t-13.5 18t-19 16.5q-9 8 -41 31q-20 12 -36 29t-27.5 40.5t-11.5 47.5q0 7 2 21q12 81 70 117q-12 25 -12 54q0 7 2 23q5 30 21.5 54t40 40t57 29t66.5 20.5t73 13.5l8 -82l-34 -7 q-32 -7 -43 -10q-58 -15 -72 -29q-15 -15 -18 -38q0 -12 10 -27q15 -24 71 -61q27 -20 41 -35q35 -39 35 -72q0 -101 -75 -149q13 -26 13 -56q0 -89 -104 -137q-55 -25 -156 -40zM145 324q-6 -34 61 -77q8 -6 15 -11.5t10 -7.5q27 18 33 54q6 35 -61 77q-19 12 -26 18 q-26 -16 -32 -53z" />
<glyph unicode="&#xa8;" horiz-adv-x="424" d="M103 674q0 26 20.5 46t46.5 20q21 0 35 -14t14 -35q0 -26 -20.5 -45.5t-46.5 -19.5q-21 0 -35 13.5t-14 34.5zM343 674q0 26 20.5 46t46.5 20q21 0 35 -14t14 -35q0 -26 -20.5 -45.5t-46.5 -19.5q-21 0 -35 13.5t-14 34.5z" />
<glyph unicode="&#xa9;" horiz-adv-x="733" d="M33 179q0 25 5 62q23 144 126 235q104 91 245 91q121 0 198 -70t77 -192q0 -25 -5 -60q-22 -140 -126.5 -231t-245.5 -91q-138 0 -216 89q-58 67 -58 167zM123 196q0 -72 39 -123q52 -68 158 -68q54 0 101.5 19t81.5 51.5t56.5 76t30.5 93.5q4 21 4 48q0 76 -37 126 q-10 14 -22.5 24.5t-24 17.5t-26 11.5t-25 7t-25 3.5t-21.5 1h-19h-14q-35 0 -80.5 -17t-83.5 -50q-41 -37 -67 -94t-26 -127zM219 203q0 70 28.5 126t74.5 79q29 14 64 14q27 0 103 -6l-13 -82q-90 7 -101 7q-51 0 -65 -90q-3 -18 -3 -32q0 -65 53 -65q33 0 88 36l29 -68 q-78 -49 -136 -49q-38 0 -65.5 16.5t-42 45.5t-14.5 68z" />
<glyph unicode="&#xaa;" horiz-adv-x="419" d="M94 509q0 84 60 138q24 21 59 32t107 8h58l-36 -228l7 2l48 -33q-15 -16 -21.5 -22.5t-23 -15.5t-33.5 -9q-31 0 -47 21q-32 -21 -70 -21q-53 0 -80.5 35.5t-27.5 92.5zM173 524q-2 -22 9.5 -41t32.5 -19q29 0 54 42l15 99q-19 3 -35 3q-27 0 -47 -20q-5 -5 -9 -9.5 t-6.5 -10t-4.5 -8t-3.5 -9.5t-2 -8.5t-2 -9.5t-1.5 -9z" />
<glyph unicode="&#xab;" horiz-adv-x="609" d="M62 190q-62 62 20 122l250 196l50 -67l-245 -190l185 -190l-71 -66zM272 190q-62 62 20 122l250 196l50 -67l-245 -190l185 -190l-71 -66z" />
<glyph unicode="&#xac;" horiz-adv-x="481" d="M31 247l14 93h395l-33 -210h-97l19 117h-298z" />
<glyph unicode="&#xad;" horiz-adv-x="580" d="M44 260l14 92h332l-14 -92h-332z" />
<glyph unicode="&#xae;" horiz-adv-x="733" d="M61 357q0 26 5 61q10 66 41 125t78 104t112.5 71t139.5 26q141 0 217 -90q58 -70 58 -176q0 -30 -4 -54q-22 -137 -125 -234q-96 -91 -239 -91q-128 0 -205.5 69.5t-77.5 188.5zM151 373q0 -72 39 -123q52 -68 158 -68q72 0 130.5 32.5t93.5 86.5t46 121q4 23 4 49 q0 75 -37 125q-10 14 -22.5 24.5t-24 17.5t-26 11.5t-25 7t-25 3.5t-21.5 1h-19h-14q-35 0 -80.5 -17t-83.5 -50q-41 -37 -67 -94t-26 -127zM244 223l53 332q1 6 2.5 15.5t3 17.5t3.5 16h14l40 2l60 5q20 0 37.5 -4t32 -12.5t25.5 -20t17 -28t6 -35.5q0 -68 -60 -110 q15 -15 18 -36l28 -108l-85 -34l-22 102q-6 26 -22 36q-18 10 -43 11l-23 -149h-85zM364 447h40q18 0 32 14.5t17 32.5v6q0 33 -38 33q-11 0 -38 -6z" />
<glyph unicode="&#xaf;" horiz-adv-x="422" d="M91 630l15 92h361l-15 -92h-361z" />
<glyph unicode="&#xb0;" horiz-adv-x="392" d="M81 499q0 77 50.5 130t125.5 53q29 0 52.5 -8t40.5 -23.5t26.5 -38.5t9.5 -52q0 -83 -61 -138q-33 -30 -55 -36.5t-61 -6.5q-58 0 -93 31.5t-35 88.5zM171 516q0 -25 13 -39.5t38 -14.5q33 0 53 23.5t20 58.5q0 25 -13.5 39.5t-37.5 14.5q-14 0 -23 -3t-13 -6t-12 -11 q-25 -25 -25 -62z" />
<glyph unicode="&#xb1;" horiz-adv-x="487" d="M-9 -17l13 87h407l-13 -87h-407zM33 251l14 86h158l25 160h91l-25 -160h158l-14 -86h-158l-25 -161h-91l25 161h-158z" />
<glyph unicode="&#xb2;" horiz-adv-x="308" d="M53 397l4 22q12 77 90 129l38 25q40 27 43 43q1 4 1 10q0 9 -5 12t-17 3l-102 -3l12 74q53 7 103 7q41 0 65 -19t24 -57q0 -67 -54 -110q-10 -8 -26.5 -18t-31 -20t-25.5 -20h129l-13 -78h-235z" />
<glyph unicode="&#xb3;" horiz-adv-x="292" d="M55 402l13 79q64 -8 85 -8q18 0 26.5 1t17 6t10.5 16q0 1 0.5 4t0.5 5q0 12 -8 25q-15 -4 -49 -4h-35l12 78h52q36 0 36 25q0 13 -24 13l-96 -3l11 75q59 5 95 5q93 0 93 -74q0 -41 -22 -71q18 -27 18 -55q0 -61 -52 -100q-36 -24 -93 -24q-17 0 -91 7z" />
<glyph unicode="&#xb4;" horiz-adv-x="293" d="M86 625l208 146l45 -79l-222 -129z" />
<glyph unicode="&#xb5;" horiz-adv-x="521" d="M-48 -249l118 747h90l-53 -338q-2 -14 -2 -22q0 -33 18 -54.5t57 -21.5q51 0 88 25q37 27 71 63l55 348h90l-56 -355q-2 -10 -2 -28q0 -50 30 -86l-65 -52q-39 29 -53 74q-74 -71 -169 -71q-52 0 -88 15l-39 -244h-90z" />
<glyph unicode="&#xb6;" horiz-adv-x="596" d="M64 403q0 17 3 35q15 94 85 134.5t185 42.5q88 2 128 2q61 0 149 -3l-98 -614h-81l89 557h-116l-89 -557h-83l40 249q-212 14 -212 154z" />
<glyph unicode="&#xb7;" horiz-adv-x="205" d="M51 315q0 2 0.5 6t0.5 5q4 26 25 44t46 18q22 0 36.5 -14.5t14.5 -35.5t-13 -39t-33 -26q-13 -7 -28 -7q-23 0 -37 17q-12 15 -12 32z" />
<glyph unicode="&#xb8;" horiz-adv-x="239" d="M-28 -132l43 131h90l-18 -53q54 -17 54 -82q0 -67 -56 -111q-44 -32 -101 -32l14 88q17 0 34 7q16 7 20 28v5q0 12 -6.5 15.5t-21.5 3.5h-52z" />
<glyph unicode="&#xb9;" horiz-adv-x="233" d="M73 614l26 63q23 -6 42 -6q32 0 95 36l22 -14l-44 -279h-83l30 192q-25 -5 -36 -5q-20 0 -52 13z" />
<glyph unicode="&#xba;" horiz-adv-x="391" d="M85 525q0 89 63 146q49 46 122 46q69 0 107 -46q27 -35 27 -83q0 -91 -63 -148q-52 -48 -125 -48q-61 0 -96 36t-35 97zM170 537q0 -64 60 -64q39 0 61 26q30 33 30 74q0 24 -12 42q-17 22 -53 22t-57 -22q-29 -29 -29 -78z" />
<glyph unicode="&#xbb;" horiz-adv-x="609" d="M2 61l245 190l-185 190l72 67l188 -196q34 -38 27.5 -65t-47.5 -57l-249 -195zM212 61l245 190l-185 190l72 67l188 -196q34 -38 27.5 -65t-47.5 -57l-249 -195z" />
<glyph unicode="&#xbc;" horiz-adv-x="693" d="M80 568l27 66q23 -6 42 -6q26 0 96 38l22 -14l-48 -298h-83l33 205q-18 -5 -34 -5q-27 0 -55 14zM116 0l334 654h95l-333 -654h-96zM396 89l64 210h80l-42 -135h60l22 135h81l-48 -299h-81l15 89h-151z" />
<glyph unicode="&#xbd;" horiz-adv-x="681" d="M80 568l27 66q23 -6 42 -6q26 0 96 38l22 -14l-48 -298h-83l33 205q-18 -5 -34 -5q-27 0 -55 14zM116 0l334 654h95l-333 -654h-96zM366 0l4 21q5 31 11.5 44.5t21.5 29.5q39 41 110 83q24 15 27 31v7q0 10 -4.5 13t-17.5 3l-101 -3l11 71q49 6 98 6q95 0 95 -75 q0 -61 -55 -101q-12 -9 -40 -27t-42 -29h129l-12 -74h-235z" />
<glyph unicode="&#xbe;" horiz-adv-x="699" d="M47 358l12 74q3 0 39 -4t52 -4q22 0 33.5 4.5t14.5 19.5q0 2 0.5 4.5t0.5 3.5q0 13 -8 23q-15 -4 -49 -4h-35l12 75h52q9 0 14.5 1t10.5 3t7.5 7t2.5 13q0 11 -24 11l-96 -3l11 71q43 5 82 5q61 0 85 -21q21 -19 21 -51q0 -36 -21 -65q19 -29 19 -45q0 -7 -1 -10 q-10 -61 -47 -89t-105 -28q-17 0 -45.5 4t-37.5 5zM122 0l334 653h95l-333 -653h-96zM402 89l64 210h80l-42 -135h60l22 135h81l-48 -299h-81l15 89h-151z" />
<glyph unicode="&#xbf;" horiz-adv-x="501" d="M-5 -6q0 16 3 34q20 124 150 190q84 42 113 67q15 15 20 29.5t5 40.5q-2 17 -1 25l87 18q3 -18 3 -38q0 -42 -14 -74t-36 -51.5t-51.5 -37.5t-57 -31t-56 -32.5t-46.5 -40.5q-29 -33 -29 -84q0 -43 28 -68q33 -33 87 -33q34 0 61 10q59 18 64 45v5q0 14 -16 14 q-11 0 -20 -4l-23 56q32 22 54 22q38 0 63 -22t25 -56q0 -43 -31 -76q-27 -31 -80 -54t-98 -23q-101 0 -157 56q-47 47 -47 113zM259 477q0 28 22.5 49.5t50.5 21.5q22 0 37.5 -15t15.5 -37q0 -28 -22 -50t-50 -22q-23 0 -38.5 15t-15.5 38z" />
<glyph unicode="&#xc0;" horiz-adv-x="801" d="M-9 97l91 17q0 -1 1 -5.5t1.5 -6.5t1.5 -5.5t2.5 -5.5t4 -3.5t5.5 -1.5q10 0 15 8l363 592h42l203 -686h-103l-60 216h-271l-94 -158q-20 -31 -48 -45q-28 -16 -64 -16q-41 0 -65.5 29t-24.5 71zM338 303h195l-62 220zM342 878l70 79l160 -146l-49 -62z" />
<glyph unicode="&#xc1;" horiz-adv-x="801" d="M-9 97l91 17q0 -1 1 -5.5t1.5 -6.5t1.5 -5.5t2.5 -5.5t4 -3.5t5.5 -1.5q10 0 15 8l363 592h42l203 -686h-103l-60 216h-271l-94 -158q-20 -31 -48 -45q-28 -16 -64 -16q-41 0 -65.5 29t-24.5 71zM338 303h195l-62 220zM465 811l208 146l45 -79l-222 -129z" />
<glyph unicode="&#xc2;" horiz-adv-x="801" d="M-9 97l91 17q0 -1 1 -5.5t1.5 -6.5t1.5 -5.5t2.5 -5.5t4 -3.5t5.5 -1.5q10 0 15 8l363 592h42l203 -686h-103l-60 216h-271l-94 -158q-20 -31 -48 -45q-28 -16 -64 -16q-41 0 -65.5 29t-24.5 71zM328 794l181 177h65l127 -177h-115l-60 80l-85 -80h-113zM338 303h195 l-62 220z" />
<glyph unicode="&#xc3;" horiz-adv-x="801" d="M-9 97l91 17q0 -1 1 -5.5t1.5 -6.5t1.5 -5.5t2.5 -5.5t4 -3.5t5.5 -1.5q10 0 15 8l363 592h42l203 -686h-103l-60 216h-271l-94 -158q-20 -31 -48 -45q-28 -16 -64 -16q-41 0 -65.5 29t-24.5 71zM323 862q81 60 143 60q28 0 58 -11q52 -22 67 -22q38 0 89 39l46 -68 q-27 -19 -40 -27.5t-41.5 -20.5t-52.5 -12q-28 0 -44 6q-15 3 -35 11q-46 17 -65 17q-30 0 -80 -40zM338 303h195l-62 220z" />
<glyph unicode="&#xc4;" horiz-adv-x="801" d="M-9 97l91 17q0 -1 1 -5.5t1.5 -6.5t1.5 -5.5t2.5 -5.5t4 -3.5t5.5 -1.5q10 0 15 8l363 592h42l203 -686h-103l-60 216h-271l-94 -158q-20 -31 -48 -45q-28 -16 -64 -16q-41 0 -65.5 29t-24.5 71zM338 303h195l-62 220zM347 860q0 26 20.5 46t46.5 20q21 0 35 -14t14 -35 q0 -26 -20.5 -45.5t-46.5 -19.5q-21 0 -35 13.5t-14 34.5zM587 860q0 26 20.5 46t46.5 20q21 0 35 -14t14 -35q0 -26 -20.5 -45.5t-46.5 -19.5q-21 0 -35 13.5t-14 34.5z" />
<glyph unicode="&#xc5;" horiz-adv-x="801" d="M-9 97l91 17q0 -1 1 -5.5t1.5 -6.5t1.5 -5.5t2.5 -5.5t4 -3.5t5.5 -1.5q10 0 15 8l363 592h42l203 -686h-103l-60 216h-271l-94 -158q-20 -31 -48 -45q-28 -16 -64 -16q-41 0 -65.5 29t-24.5 71zM338 303h195l-62 220zM404 830q0 65 39 106t100 41q45 0 73.5 -27 t28.5 -71q0 -61 -40 -102t-99 -41q-47 0 -74.5 24t-27.5 70zM489 842q0 -28 27 -28q20 0 32 15t12 40q0 29 -29 29q-42 0 -42 -56z" />
<glyph unicode="&#xc6;" horiz-adv-x="963" d="M-24 0l486 684h500l-14 -87h-387l-31 -193h317l-13 -87h-317l-37 -229h407l-14 -88h-503l35 216h-164l-152 -216h-113zM302 304h117l33 214q-16 -24 -37 -54t-38 -53t-38 -53t-37 -54z" />
<glyph unicode="&#xc7;" horiz-adv-x="762" d="M50 280q0 30 4 55q21 120 98.5 211t187.5 135q72 29 150 29q55 0 103.5 -14.5t82.5 -48t34 -79.5q0 -33 -16 -61t-44.5 -45t-62.5 -17q-40 0 -76 32l66 66q4 0 11 -6.5t11 -6.5q16 0 21 23q3 23 -22 40t-58.5 24t-67.5 7q-112 0 -211 -85q-121 -105 -121 -248 q0 -35 9 -62q12 -45 44 -87q12 -16 27 -29t28 -21t29.5 -14t28 -8.5t27.5 -4t23.5 -2t21.5 0t15 0.5q34 0 73 12.5t83.5 41.5t78.5 69l66 -49q-62 -70 -145.5 -114.5t-181.5 -44.5q-53 0 -101 14t-82.5 36t-61.5 52q-72 83 -72 199zM289 -153l43 131h90l-18 -53 q54 -17 54 -82q0 -67 -56 -111q-20 -15 -41 -22.5t-32 -8.5t-28 -1l14 88q17 0 34 7q16 7 20 28v5q0 12 -6.5 15.5t-21.5 3.5h-52z" />
<glyph unicode="&#xc8;" horiz-adv-x="663" d="M62 551q7 53 47 93t94 40h479l-14 -87h-387l-31 -193h267l-13 -87h-267l-37 -229h387l-14 -88h-483l95 597q-17 -3 -24 -18q-8 -18 -8 -28h-91zM280 876l70 79l160 -146l-49 -62z" />
<glyph unicode="&#xc9;" horiz-adv-x="663" d="M62 551q7 53 47 93t94 40h479l-14 -87h-387l-31 -193h267l-13 -87h-267l-37 -229h387l-14 -88h-483l95 597q-17 -3 -24 -18q-8 -18 -8 -28h-91zM403 809l208 146l45 -79l-222 -129z" />
<glyph unicode="&#xca;" horiz-adv-x="663" d="M62 551q7 53 47 93t94 40h479l-14 -87h-387l-31 -193h267l-13 -87h-267l-37 -229h387l-14 -88h-483l95 597q-17 -3 -24 -18q-8 -18 -8 -28h-91zM266 792l181 177h65l127 -177h-115l-60 80l-85 -80h-113z" />
<glyph unicode="&#xcb;" horiz-adv-x="663" d="M62 551q7 53 47 93t94 40h479l-14 -87h-387l-31 -193h267l-13 -87h-267l-37 -229h387l-14 -88h-483l95 597q-17 -3 -24 -18q-8 -18 -8 -28h-91zM285 858q0 26 20.5 46t46.5 20q21 0 35 -14t14 -35q0 -26 -20.5 -45.5t-46.5 -19.5q-21 0 -35 13.5t-14 34.5zM525 858 q0 26 20.5 46t46.5 20q21 0 35 -14t14 -35q0 -17 -9.5 -32.5t-25 -24t-32.5 -8.5q-21 0 -35 13.5t-14 34.5z" />
<glyph unicode="&#xcc;" horiz-adv-x="210" d="M14 0l109 684h96l-109 -684h-96zM18 876l70 79l160 -146l-49 -62z" />
<glyph unicode="&#xcd;" horiz-adv-x="210" d="M14 0l109 684h96l-109 -684h-96zM141 809l208 146l45 -79l-222 -129z" />
<glyph unicode="&#xce;" horiz-adv-x="210" d="M4 792l181 177h65l127 -177h-115l-60 80l-85 -80h-113zM14 0l109 684h96l-109 -684h-96z" />
<glyph unicode="&#xcf;" horiz-adv-x="210" d="M14 0l109 684h96l-109 -684h-96zM23 858q0 26 20.5 46t46.5 20q21 0 35 -14t14 -35q0 -26 -20.5 -45.5t-46.5 -19.5q-21 0 -35 13.5t-14 34.5zM263 858q0 26 20.5 46t46.5 20q21 0 35 -14t14 -35q0 -26 -20.5 -45.5t-46.5 -19.5q-21 0 -35 13.5t-14 34.5z" />
<glyph unicode="&#xd0;" horiz-adv-x="819" d="M44 290l14 92h102l35 221h-6q-14 0 -24.5 -14t-10.5 -32h-91q8 54 46 93q18 19 36.5 28t30 10.5t29.5 0.5h299q147 0 226 -100q59 -77 59 -184q0 -26 -5 -61q-26 -159 -143 -259q-111 -94 -320 -94q-183 0 -221 13l45 286h-101zM208 80q47 -4 146 -4q148 0 231 71 q46 41 77 104.5t31 141.5q0 84 -42 137q-56 73 -171 73h-189l-35 -221h134l-14 -92h-135z" />
<glyph unicode="&#xd1;" horiz-adv-x="798" d="M-9 92q0 7 2 23h91q-2 -12 -2 -15q0 -5 1 -8q0 -9 16 -9q13 0 16 14l93 587h63q9 -13 49 -62q53 -70 162.5 -223t149.5 -208l75 492h95l-109 -683h-44l-376 522l-63 -424q-8 -43 -47 -72q-40 -29 -82 -29q-40 0 -65 26.5t-25 68.5zM332 860q81 60 143 60q28 0 58 -11 q52 -22 67 -22q38 0 89 39l46 -68q-27 -19 -40 -27.5t-41.5 -20.5t-52.5 -12q-27 0 -44 6q-15 3 -35 11q-46 17 -65 17q-30 0 -80 -40z" />
<glyph unicode="&#xd2;" horiz-adv-x="824" d="M48 274q0 24 5 56l3 19q11 72 52 141q37 61 97 112q122 104 274 104q146 0 241 -104q74 -82 74 -198q0 -30 -4 -55l-3 -19q-5 -26 -8.5 -42.5t-14.5 -43.5t-28 -54q-37 -61 -99 -113q-125 -103 -274 -103q-71 0 -134 28q-60 27 -104.5 75t-63.5 114q-13 38 -13 83z M140 285q0 -81 55 -147q30 -36 77 -57.5t104 -21.5t111.5 21t96.5 57q31 26 54.5 58t37.5 66t20 69l3 19q3 21 3 41q0 34 -9 65q-19 72 -81 118.5t-147 46.5q-55 0 -109 -21q-50 -19 -97 -58q-96 -82 -112 -192l-3 -19q-4 -30 -4 -45zM319 876l70 79l160 -146l-49 -62z" />
<glyph unicode="&#xd3;" horiz-adv-x="824" d="M48 274q0 24 5 56l3 19q11 72 52 141q37 61 97 112q122 104 274 104q146 0 241 -104q74 -82 74 -198q0 -30 -4 -55l-3 -19q-5 -26 -8.5 -42.5t-14.5 -43.5t-28 -54q-37 -61 -99 -113q-125 -103 -274 -103q-71 0 -134 28q-60 27 -104.5 75t-63.5 114q-13 38 -13 83z M140 285q0 -81 55 -147q30 -36 77 -57.5t104 -21.5t111.5 21t96.5 57q31 26 54.5 58t37.5 66t20 69l3 19q3 21 3 41q0 34 -9 65q-19 72 -81 118.5t-147 46.5q-55 0 -109 -21q-50 -19 -97 -58q-96 -82 -112 -192l-3 -19q-4 -30 -4 -45zM442 809l208 146l45 -79l-222 -129z " />
<glyph unicode="&#xd4;" horiz-adv-x="824" d="M48 274q0 24 5 56l3 19q11 72 52 141q37 61 97 112q122 104 274 104q146 0 241 -104q74 -82 74 -198q0 -30 -4 -55l-3 -19q-5 -26 -8.5 -42.5t-14.5 -43.5t-28 -54q-37 -61 -99 -113q-125 -103 -274 -103q-71 0 -134 28q-60 27 -104.5 75t-63.5 114q-13 38 -13 83z M140 285q0 -81 55 -147q30 -36 77 -57.5t104 -21.5t111.5 21t96.5 57q31 26 54.5 58t37.5 66t20 69l3 19q3 21 3 41q0 34 -9 65q-19 72 -81 118.5t-147 46.5q-55 0 -109 -21q-50 -19 -97 -58q-96 -82 -112 -192l-3 -19q-4 -30 -4 -45zM305 792l181 177h65l127 -177h-115 l-60 80l-85 -80h-113z" />
<glyph unicode="&#xd5;" horiz-adv-x="824" d="M48 274q0 24 5 56l3 19q11 72 52 141q37 61 97 112q122 104 274 104q146 0 241 -104q74 -82 74 -198q0 -30 -4 -55l-3 -19q-5 -26 -8.5 -42.5t-14.5 -43.5t-28 -54q-37 -61 -99 -113q-125 -103 -274 -103q-71 0 -134 28q-60 27 -104.5 75t-63.5 114q-13 38 -13 83z M140 285q0 -81 55 -147q30 -36 77 -57.5t104 -21.5t111.5 21t96.5 57q31 26 54.5 58t37.5 66t20 69l3 19q3 21 3 41q0 34 -9 65q-19 72 -81 118.5t-147 46.5q-55 0 -109 -21q-50 -19 -97 -58q-96 -82 -112 -192l-3 -19q-4 -30 -4 -45zM300 860q81 60 143 60q28 0 58 -11 q52 -22 67 -22q38 0 89 39l46 -68q-27 -19 -40 -27.5t-41.5 -20.5t-52.5 -12q-28 0 -44 6q-15 3 -35 11q-46 17 -65 17q-30 0 -80 -40z" />
<glyph unicode="&#xd6;" horiz-adv-x="824" d="M48 274q0 24 5 56l3 19q11 72 52 141q37 61 97 112q122 104 274 104q146 0 241 -104q74 -82 74 -198q0 -30 -4 -55l-3 -19q-5 -26 -8.5 -42.5t-14.5 -43.5t-28 -54q-37 -61 -99 -113q-125 -103 -274 -103q-71 0 -134 28q-60 27 -104.5 75t-63.5 114q-13 38 -13 83z M140 285q0 -81 55 -147q30 -36 77 -57.5t104 -21.5t111.5 21t96.5 57q31 26 54.5 58t37.5 66t20 69l3 19q3 21 3 41q0 34 -9 65q-19 72 -81 118.5t-147 46.5q-55 0 -109 -21q-50 -19 -97 -58q-96 -82 -112 -192l-3 -19q-4 -30 -4 -45zM324 858q0 26 20.5 46t46.5 20 q21 0 35 -14t14 -35q0 -26 -20.5 -45.5t-46.5 -19.5q-10 0 -19.5 3.5t-16 10t-10 15.5t-3.5 19zM564 858q0 26 20.5 46t46.5 20q21 0 35 -14t14 -35q0 -26 -20.5 -45.5t-46.5 -19.5q-21 0 -35 13.5t-14 34.5z" />
<glyph unicode="&#xd7;" horiz-adv-x="495" d="M11 136l170 145l-118 140l75 64l119 -140l163 140l53 -63l-163 -138l125 -146l-75 -64l-125 146l-171 -147z" />
<glyph unicode="&#xd8;" horiz-adv-x="826" d="M48 273q0 22 5 57l3 18q22 148 149 254q122 104 276 104q78 0 145 -33l19 24l90 -29l-36 -45q56 -51 78 -119q18 -52 18 -109q0 -109 -60 -205q-38 -63 -96 -113q-62 -51 -131 -77q-70 -27 -148 -27q-84 0 -158 40l-48 -60l-92 28l70 85q-84 87 -84 207zM139 280 q0 -78 54 -140l373 460q-46 20 -100 20q-113 0 -208 -79q-93 -78 -114 -206q-5 -33 -5 -55zM262 85q53 -27 113 -27q113 0 208 80q94 78 113 192l3 18q3 21 3 42q0 95 -64 159z" />
<glyph unicode="&#xd9;" horiz-adv-x="770" d="M75 631q55 62 117 62q46 0 74 -31q24 -24 24 -62q0 -11 -1 -17l-50 -311q-3 -21 -3 -40q0 -64 30 -102q42 -53 131 -53t148 53q59 54 72 142l66 413h96l-66 -413q-19 -122 -109 -201t-220 -79q-112 0 -178.5 60.5t-66.5 166.5q0 29 4 53l50 311v5q0 15 -16 15 q-11 0 -18 -9l-13 -14zM338 876l70 79l160 -146l-49 -62z" />
<glyph unicode="&#xda;" horiz-adv-x="770" d="M75 631q55 62 117 62q46 0 74 -31q24 -24 24 -62q0 -11 -1 -17l-50 -311q-3 -21 -3 -40q0 -64 30 -102q42 -53 131 -53t148 53q59 54 72 142l66 413h96l-66 -413q-19 -122 -109 -201t-220 -79q-112 0 -178.5 60.5t-66.5 166.5q0 29 4 53l50 311v5q0 15 -16 15 q-11 0 -18 -9l-13 -14zM461 809l208 146l45 -79l-222 -129z" />
<glyph unicode="&#xdb;" horiz-adv-x="770" d="M75 631q55 62 117 62q46 0 74 -31q24 -24 24 -62q0 -11 -1 -17l-50 -311q-3 -21 -3 -40q0 -64 30 -102q42 -53 131 -53t148 53q59 54 72 142l66 413h96l-66 -413q-19 -122 -109 -201t-220 -79q-112 0 -178.5 60.5t-66.5 166.5q0 29 4 53l50 311v5q0 15 -16 15 q-11 0 -18 -9l-13 -14zM324 792l181 177h65l127 -177h-115l-60 80l-85 -80h-113z" />
<glyph unicode="&#xdc;" horiz-adv-x="770" d="M75 631q55 62 117 62q46 0 74 -31q24 -24 24 -62q0 -11 -1 -17l-50 -311q-3 -21 -3 -40q0 -64 30 -102q42 -53 131 -53t148 53q59 54 72 142l66 413h96l-66 -413q-19 -122 -109 -201t-220 -79q-112 0 -178.5 60.5t-66.5 166.5q0 29 4 53l50 311v5q0 15 -16 15 q-11 0 -18 -9l-13 -14zM343 858q0 26 20.5 46t46.5 20q21 0 35 -14t14 -35q0 -26 -20.5 -45.5t-46.5 -19.5q-21 0 -35 13.5t-14 34.5zM583 858q0 26 20.5 46t46.5 20q21 0 35 -14t14 -35q0 -26 -20.5 -45.5t-46.5 -19.5q-21 0 -35 13.5t-14 34.5z" />
<glyph unicode="&#xdd;" horiz-adv-x="662" d="M68 583q12 47 45.5 79t82.5 32q63 0 87 -54l101 -240l212 285h110l-290 -388l-45 -297h-102l51 295l-126 302q-3 8 -14 8q-9 0 -14 -11l-7 -20zM393 809l208 146l45 -79l-222 -129z" />
<glyph unicode="&#xde;" horiz-adv-x="540" d="M14 0l109 684h96l-18 -115h138q81 0 130 -47.5t49 -128.5q0 -17 -3 -37q-16 -96 -88 -160t-174 -64h-64l15 86h60q67 0 113 46.5t46 119.5q0 50 -32 75t-85 25h-119l-77 -484h-96z" />
<glyph unicode="&#xdf;" horiz-adv-x="513" d="M-38 -249l116 734q27 169 123 227q37 22 82 22q152 0 152 -116q0 -58 -27 -89q-25 -34 -78 -69q-21 -17 -21 -46q0 -15 9 -27q10 -17 30 -30q27 -20 40 -28q69 -49 69 -129q0 -99 -68 -158t-174 -59q-63 0 -125 6l-38 -238h-90zM103 71q45 -5 98 -5q52 0 72 3t43 18 q46 29 46 92q0 39 -36 69q-26 20 -41 29q-25 15 -40 33q-33 34 -33 87q0 81 69 132q6 5 19 14.5t20 14.5q22 17 22 45q0 47 -64 47q-26 0 -45.5 -13.5t-32 -38.5t-19.5 -50.5t-12 -59.5z" />
<glyph unicode="&#xe0;" d="M40 194q0 145 102 239q81 75 202 75q34 0 76 -3q31 -6 70 -6l13 1h36l-65 -409v-4q0 -6 4 -9.5t10 -3.5q5 0 10.5 4t10.5 10t7 8l66 -48q-48 -57 -106 -57q-31 0 -54.5 14.5t-32.5 39.5q-63 -54 -154 -54q-92 0 -143.5 55.5t-51.5 147.5zM133 214q0 -50 18 -86 q28 -56 97 -56q59 0 101 34.5t51 85.5l36 228q-99 7 -120 7q-66 0 -118 -52q-28 -28 -46.5 -70t-18.5 -91zM179 700l70 79l160 -146l-49 -62z" />
<glyph unicode="&#xe1;" d="M40 194q0 145 102 239q81 75 202 75q34 0 76 -3q31 -6 70 -6l13 1h36l-65 -409v-4q0 -6 4 -9.5t10 -3.5q5 0 10.5 4t10.5 10t7 8l66 -48q-48 -57 -106 -57q-31 0 -54.5 14.5t-32.5 39.5q-63 -54 -154 -54q-92 0 -143.5 55.5t-51.5 147.5zM133 214q0 -50 18 -86 q28 -56 97 -56q59 0 101 34.5t51 85.5l36 228q-99 7 -120 7q-66 0 -118 -52q-28 -28 -46.5 -70t-18.5 -91zM302 633l208 146l45 -79l-222 -129z" />
<glyph unicode="&#xe2;" d="M40 194q0 145 102 239q81 75 202 75q34 0 76 -3q31 -6 70 -6l13 1h36l-65 -409v-4q0 -6 4 -9.5t10 -3.5q5 0 10.5 4t10.5 10t7 8l66 -48q-48 -57 -106 -57q-31 0 -54.5 14.5t-32.5 39.5q-63 -54 -154 -54q-92 0 -143.5 55.5t-51.5 147.5zM133 214q0 -50 18 -86 q28 -56 97 -56q59 0 101 34.5t51 85.5l36 228q-99 7 -120 7q-66 0 -118 -52q-28 -28 -46.5 -70t-18.5 -91zM165 616l181 177h65l127 -177h-115l-60 80l-85 -80h-113z" />
<glyph unicode="&#xe3;" d="M40 194q0 145 102 239q81 75 202 75q34 0 76 -3q31 -6 70 -6l13 1h36l-65 -409v-4q0 -6 4 -9.5t10 -3.5q5 0 10.5 4t10.5 10t7 8l66 -48q-48 -57 -106 -57q-31 0 -54.5 14.5t-32.5 39.5q-63 -54 -154 -54q-92 0 -143.5 55.5t-51.5 147.5zM133 214q0 -50 18 -86 q28 -56 97 -56q59 0 101 34.5t51 85.5l36 228q-99 7 -120 7q-66 0 -118 -52q-28 -28 -46.5 -70t-18.5 -91zM160 684q81 60 143 60q28 0 58 -11q52 -22 67 -22q38 0 89 39l46 -68q-2 -1 -5 -4q-24 -16 -38.5 -25.5t-41.5 -20t-49 -10.5q-27 0 -44 6q-15 3 -35 11 q-46 17 -65 17q-30 0 -80 -40z" />
<glyph unicode="&#xe4;" d="M40 194q0 145 102 239q81 75 202 75q34 0 76 -3q31 -6 70 -6l13 1h36l-65 -409v-4q0 -6 4 -9.5t10 -3.5q5 0 10.5 4t10.5 10t7 8l66 -48q-48 -57 -106 -57q-31 0 -54.5 14.5t-32.5 39.5q-63 -54 -154 -54q-92 0 -143.5 55.5t-51.5 147.5zM133 214q0 -50 18 -86 q28 -56 97 -56q59 0 101 34.5t51 85.5l36 228q-99 7 -120 7q-66 0 -118 -52q-28 -28 -46.5 -70t-18.5 -91zM184 682q0 26 20.5 46t46.5 20q21 0 35 -14t14 -35q0 -26 -20.5 -45.5t-46.5 -19.5q-21 0 -35 13.5t-14 34.5zM424 682q0 26 20.5 46t46.5 20q21 0 35 -14t14 -35 q0 -26 -20.5 -45.5t-46.5 -19.5q-10 0 -19.5 3.5t-16 10t-10 15.5t-3.5 19z" />
<glyph unicode="&#xe5;" d="M40 194q0 145 102 239q81 75 202 75q34 0 76 -3q31 -6 70 -6l13 1h36l-65 -409v-4q0 -6 4 -9.5t10 -3.5q5 0 10.5 4t10.5 10t7 8l66 -48q-48 -57 -106 -57q-31 0 -54.5 14.5t-32.5 39.5q-63 -54 -154 -54q-92 0 -143.5 55.5t-51.5 147.5zM133 214q0 -50 18 -86 q28 -56 97 -56q59 0 101 34.5t51 85.5l36 228q-99 7 -120 7q-66 0 -118 -52q-28 -28 -46.5 -70t-18.5 -91zM241 652q0 43 17.5 76.5t49.5 52t72 18.5q45 0 73.5 -27t28.5 -71q0 -40 -18.5 -73t-50.5 -51.5t-70 -18.5q-47 0 -74.5 24t-27.5 70zM326 664q0 -28 27 -28 q20 0 32 15t12 40q0 29 -29 29q-42 0 -42 -56z" />
<glyph unicode="&#xe6;" horiz-adv-x="852" d="M25 115q0 8 2 24q14 84 96 124q65 31 157 31h80q7 46 7 74q0 59 -76 59q-69 0 -158 -58l-36 66q101 73 211 73q112 0 139 -80q75 80 180 80q72 0 123.5 -35.5t51.5 -98.5q0 -91 -76 -139t-190 -48h-98q3 -60 33.5 -87.5t91.5 -27.5q71 0 175 50l33 -66q-115 -65 -219 -65 q-135 0 -178 88q-61 -88 -189 -88q-71 0 -115.5 31t-44.5 93zM118 124q0 -52 73 -52q61 0 102.5 30t48.5 80l5 32h-80q-57 0 -84 -9q-65 -20 -65 -81zM446 268h103q30 0 47.5 1.5t24 3t19.5 6.5q21 8 35 17t24 26.5t10 41.5q0 9 -4 23q-10 16 -21 25q-26 17 -73 17 q-26 0 -57 -14q-40 -22 -69 -61.5t-39 -85.5z" />
<glyph unicode="&#xe7;" horiz-adv-x="546" d="M39 186q0 132 81 229t203 97q82 0 131 -44q40 -37 40 -100q0 -20 -2 -31h-92q2 16 2 22q0 74 -91 74q-41 0 -71 -18q-29 -19 -51 -47q-58 -75 -58 -169q0 -61 33.5 -92t96.5 -31q67 0 171 50l34 -66q-116 -66 -226 -66q-111 0 -164 69q-37 48 -37 123zM162 -138l43 131 h90l-18 -53q54 -17 54 -82q0 -67 -56 -111q-44 -32 -101 -32l14 88q17 0 34 7q16 7 20 28v5q0 12 -6.5 15.5t-21.5 3.5h-52z" />
<glyph unicode="&#xe8;" horiz-adv-x="546" d="M38 182q0 23 5 55q18 117 93 192q81 79 186 79q76 0 127 -39q47 -37 47 -96q0 -8 -2 -24q-13 -79 -83.5 -120.5t-180.5 -41.5h-98q1 -62 35 -89q31 -26 92 -26q68 0 173 50l33 -66q-115 -66 -226 -66q-94 0 -147.5 51t-53.5 141zM140 268h103q62 0 90 10q23 8 47 27 q23 21 23 57q0 12 -5 25q-6 15 -21 24q-13 10 -32 14q-20 4 -40 4q-54 0 -106 -52q-45 -47 -59 -109zM170 700l70 79l160 -146l-49 -62z" />
<glyph unicode="&#xe9;" horiz-adv-x="546" d="M38 182q0 23 5 55q18 117 93 192q81 79 186 79q76 0 127 -39q47 -37 47 -96q0 -8 -2 -24q-13 -79 -83.5 -120.5t-180.5 -41.5h-98q1 -62 35 -89q31 -26 92 -26q68 0 173 50l33 -66q-115 -66 -226 -66q-94 0 -147.5 51t-53.5 141zM140 268h103q62 0 90 10q23 8 47 27 q23 21 23 57q0 12 -5 25q-6 15 -21 24q-13 10 -32 14q-20 4 -40 4q-54 0 -106 -52q-45 -47 -59 -109zM293 633l208 146l45 -79l-222 -129z" />
<glyph unicode="&#xea;" horiz-adv-x="546" d="M38 182q0 23 5 55q18 117 93 192q81 79 186 79q76 0 127 -39q47 -37 47 -96q0 -8 -2 -24q-13 -79 -83.5 -120.5t-180.5 -41.5h-98q1 -62 35 -89q31 -26 92 -26q68 0 173 50l33 -66q-115 -66 -226 -66q-94 0 -147.5 51t-53.5 141zM140 268h103q62 0 90 10q23 8 47 27 q23 21 23 57q0 12 -5 25q-6 15 -21 24q-13 10 -32 14q-20 4 -40 4q-54 0 -106 -52q-45 -47 -59 -109zM156 616l181 177h65l127 -177h-115l-60 80l-85 -80h-113z" />
<glyph unicode="&#xeb;" horiz-adv-x="546" d="M38 182q0 23 5 55q18 117 93 192q81 79 186 79q76 0 127 -39q47 -37 47 -96q0 -8 -2 -24q-13 -79 -83.5 -120.5t-180.5 -41.5h-98q1 -62 35 -89q31 -26 92 -26q68 0 173 50l33 -66q-115 -66 -226 -66q-94 0 -147.5 51t-53.5 141zM140 268h103q62 0 90 10q23 8 47 27 q23 21 23 57q0 12 -5 25q-6 15 -21 24q-13 10 -32 14q-20 4 -40 4q-54 0 -106 -52q-45 -47 -59 -109zM175 682q0 26 20.5 46t46.5 20q21 0 35 -14t14 -35q0 -26 -20.5 -45.5t-46.5 -19.5q-21 0 -35 13.5t-14 34.5zM415 682q0 26 20.5 46t46.5 20q21 0 35 -14t14 -35 q0 -26 -20.5 -45.5t-46.5 -19.5q-21 0 -35 13.5t-14 34.5z" />
<glyph unicode="&#xec;" horiz-adv-x="261" d="M-20 692l70 79l160 -146l-49 -62zM17 64q0 5 2 19l66 417h90l-66 -417v-4q0 -13 14 -13q6 0 14 8l12 12l69 -46q-53 -59 -110 -59q-38 0 -64.5 23t-26.5 60z" />
<glyph unicode="&#xed;" horiz-adv-x="261" d="M17 64q0 5 2 19l66 417h90l-66 -417v-4q0 -13 14 -13q6 0 14 8l12 12l69 -46q-53 -59 -110 -59q-38 0 -64.5 23t-26.5 60zM103 625l208 146l45 -79l-222 -129z" />
<glyph unicode="&#xee;" horiz-adv-x="261" d="M-34 608l181 177h65l127 -177h-115l-60 80l-85 -80h-113zM17 64q0 5 2 19l66 417h90l-66 -417v-4q0 -13 14 -13q6 0 14 8l12 12l69 -46q-53 -59 -110 -59q-38 0 -64.5 23t-26.5 60z" />
<glyph unicode="&#xef;" horiz-adv-x="261" d="M-15 674q0 26 20.5 46t46.5 20q21 0 35 -14t14 -35q0 -26 -20.5 -45.5t-46.5 -19.5q-21 0 -35 13.5t-14 34.5zM17 64q0 5 2 19l66 417h90l-66 -417v-4q0 -13 14 -13q6 0 14 8l12 12l69 -46q-53 -59 -110 -59q-38 0 -64.5 23t-26.5 60zM225 674q0 26 20.5 46t46.5 20 q21 0 35 -14t14 -35q0 -26 -20.5 -45.5t-46.5 -19.5q-21 0 -35 13.5t-14 34.5z" />
<glyph unicode="&#xf0;" horiz-adv-x="599" d="M42 203q0 26 4 49q18 107 94.5 180.5t185.5 84.5l-9 80l93 28l-24 100l97 27l22 -99l103 29l11 -85l-97 -28l15 -74q1 -9 9 -53t12 -74t4 -55q0 -159 -99 -250q-78 -72 -192 -72q-118 0 -179 73q-50 58 -50 139zM136 216q0 -66 40.5 -104.5t107.5 -38.5q72 0 122 49 q31 30 40.5 53t16.5 67q4 23 4 53q0 60 -16 128q-61 12 -107 12q-82 0 -138 -50q-70 -64 -70 -169zM350 519h5q36 0 78 -7l-5 29z" />
<glyph unicode="&#xf1;" horiz-adv-x="659" d="M53 0l55 346q3 16 3 30q0 44 -33 82l65 52q43 -33 53 -72q76 70 178 70q72 0 115.5 -29t43.5 -92q0 -21 -2 -32l-43 -267q0 -17 17 -17q11 0 26 20l66 -46q-48 -57 -108 -57q-43 0 -67.5 23.5t-24.5 62.5q0 10 1 14l39 242q3 16 3 29q0 30 -15 45q-21 24 -69 24 q-78 0 -158 -85l-55 -343h-90zM195 684q81 60 143 60q28 0 58 -11q52 -22 67 -22q38 0 89 39l46 -68q-27 -19 -40 -27.5t-41.5 -20.5t-52.5 -12q-28 0 -44 6q-15 3 -35 11q-46 17 -65 17q-30 0 -80 -40z" />
<glyph unicode="&#xf2;" horiz-adv-x="627" d="M41 201q0 26 4 47q18 117 106 189q84 71 202 71q99 0 163.5 -57t64.5 -153q0 -26 -4 -47q-18 -115 -103 -190q-77 -69 -203 -69q-124 0 -181 67q-49 56 -49 142zM134 212q0 -65 40 -102.5t106 -37.5q85 0 140 49q55 51 67 126q0 3 1 9.5t1 10.5q3 72 -30 113 q-39 47 -120 47q-91 0 -148 -60.5t-57 -154.5zM203 700l70 79l160 -146l-49 -62z" />
<glyph unicode="&#xf3;" horiz-adv-x="627" d="M41 201q0 26 4 47q18 117 106 189q84 71 202 71q99 0 163.5 -57t64.5 -153q0 -26 -4 -47q-18 -115 -103 -190q-77 -69 -203 -69q-124 0 -181 67q-49 56 -49 142zM134 212q0 -65 40 -102.5t106 -37.5q85 0 140 49q55 51 67 126q0 3 1 9.5t1 10.5q3 72 -30 113 q-39 47 -120 47q-91 0 -148 -60.5t-57 -154.5zM326 633l208 146l45 -79l-222 -129z" />
<glyph unicode="&#xf4;" horiz-adv-x="627" d="M41 201q0 26 4 47q18 117 106 189q84 71 202 71q99 0 163.5 -57t64.5 -153q0 -26 -4 -47q-18 -115 -103 -190q-77 -69 -203 -69q-124 0 -181 67q-49 56 -49 142zM134 212q0 -65 40 -102.5t106 -37.5q85 0 140 49q55 51 67 126q0 3 1 9.5t1 10.5q3 72 -30 113 q-39 47 -120 47q-91 0 -148 -60.5t-57 -154.5zM189 616l181 177h65l127 -177h-115l-60 80l-85 -80h-113z" />
<glyph unicode="&#xf5;" horiz-adv-x="627" d="M41 201q0 26 4 47q18 117 106 189q84 71 202 71q99 0 163.5 -57t64.5 -153q0 -26 -4 -47q-18 -115 -103 -190q-77 -69 -203 -69q-124 0 -181 67q-49 56 -49 142zM134 212q0 -65 40 -102.5t106 -37.5q85 0 140 49q55 51 67 126q0 3 1 9.5t1 10.5q3 72 -30 113 q-39 47 -120 47q-91 0 -148 -60.5t-57 -154.5zM184 684q81 60 143 60q28 0 58 -11q52 -22 67 -22q38 0 89 39l46 -68q-27 -19 -40 -27.5t-41.5 -20.5t-52.5 -12q-28 0 -44 6q-15 3 -35 11q-46 17 -65 17q-30 0 -80 -40z" />
<glyph unicode="&#xf6;" horiz-adv-x="627" d="M41 201q0 26 4 47q18 117 106 189q84 71 202 71q99 0 163.5 -57t64.5 -153q0 -26 -4 -47q-18 -115 -103 -190q-77 -69 -203 -69q-124 0 -181 67q-49 56 -49 142zM134 212q0 -65 40 -102.5t106 -37.5q85 0 140 49q55 51 67 126q0 3 1 9.5t1 10.5q3 72 -30 113 q-39 47 -120 47q-91 0 -148 -60.5t-57 -154.5zM208 682q0 26 20.5 46t46.5 20q21 0 35 -14t14 -35q0 -26 -20.5 -45.5t-46.5 -19.5q-21 0 -35 13.5t-14 34.5zM448 682q0 26 20.5 46t46.5 20q21 0 35 -14t14 -35q0 -26 -20.5 -45.5t-46.5 -19.5q-21 0 -35 13.5t-14 34.5z" />
<glyph unicode="&#xf7;" horiz-adv-x="485" d="M52 268l8 51h372l-8 -51h-372zM171 144q3 19 18 32.5t35 13.5q18 0 29.5 -10.5t11.5 -27.5q0 -2 -0.5 -5t-0.5 -4q-3 -21 -17.5 -33.5t-35.5 -12.5q-19 0 -31 14t-9 33zM237 476q14 13 35 13q18 0 29 -10t11 -28q0 -2 -0.5 -5t-0.5 -4q-1 -10 -3.5 -15.5t-5.5 -9t-9 -8.5 q-14 -13 -35 -13t-31.5 15t-7 34t17.5 31z" />
<glyph unicode="&#xf8;" horiz-adv-x="627" d="M40 197q0 16 4 48q19 119 107 192q86 72 201 72q57 0 107 -21l30 37l72 -46l-35 -38q55 -57 55 -142q0 -26 -4 -49q-18 -116 -106 -188q-87 -72 -200 -72q-56 0 -110 20l-29 -36l-73 45l34 37q-53 54 -53 141zM134 207q0 -49 19 -79l246 291q-32 8 -50 8q-91 0 -144 -47 q-71 -60 -71 -173zM222 79q31 -8 64 -8q88 0 149 67t61 149q0 52 -28 84z" />
<glyph unicode="&#xf9;" horiz-adv-x="674" d="M76 445l60 70q83 -58 83 -121q0 -9 -1 -14l-34 -211q-3 -17 -3 -29q0 -27 14 -43q21 -25 70 -25q42 0 86 25q34 20 71 59l56 345h90l-66 -411v-4q0 -13 15 -13q5 0 15 8l12 13l68 -48q-51 -56 -110 -56q-32 0 -56.5 18t-32.5 45q-75 -60 -167 -60q-124 0 -152 81 q-6 18 -6 40q0 20 2 31l38 235q3 19 -37 53zM189 692l70 79l160 -146l-49 -62z" />
<glyph unicode="&#xfa;" horiz-adv-x="674" d="M76 445l60 70q83 -58 83 -121q0 -9 -1 -14l-34 -211q-3 -17 -3 -29q0 -27 14 -43q21 -25 70 -25q42 0 86 25q34 20 71 59l56 345h90l-66 -411v-4q0 -13 15 -13q5 0 15 8l12 13l68 -48q-51 -56 -110 -56q-32 0 -56.5 18t-32.5 45q-75 -60 -167 -60q-124 0 -152 81 q-6 18 -6 40q0 20 2 31l38 235q3 19 -37 53zM312 625l208 146l45 -79l-222 -129z" />
<glyph unicode="&#xfb;" horiz-adv-x="674" d="M76 445l60 70q83 -58 83 -121q0 -9 -1 -14l-34 -211q-3 -17 -3 -29q0 -27 14 -43q21 -25 70 -25q42 0 86 25q34 20 71 59l56 345h90l-66 -411v-4q0 -13 15 -13q5 0 15 8l12 13l68 -48q-51 -56 -110 -56q-32 0 -56.5 18t-32.5 45q-75 -60 -167 -60q-124 0 -152 81 q-6 18 -6 40q0 20 2 31l38 235q3 19 -37 53zM175 608l181 177h65l127 -177h-115l-60 80l-85 -80h-113z" />
<glyph unicode="&#xfc;" horiz-adv-x="674" d="M76 445l60 70q83 -58 83 -121q0 -9 -1 -14l-34 -211q-3 -17 -3 -29q0 -27 14 -43q21 -25 70 -25q42 0 86 25q34 20 71 59l56 345h90l-66 -411v-4q0 -13 15 -13q5 0 15 8l12 13l68 -48q-51 -56 -110 -56q-32 0 -56.5 18t-32.5 45q-75 -60 -167 -60q-124 0 -152 81 q-6 18 -6 40q0 20 2 31l38 235q3 19 -37 53zM194 674q0 26 20.5 46t46.5 20q21 0 35 -14t14 -35q0 -26 -20.5 -45.5t-46.5 -19.5q-21 0 -35 13.5t-14 34.5zM434 674q0 26 20.5 46t46.5 20q21 0 35 -14t14 -35q0 -26 -20.5 -45.5t-46.5 -19.5q-21 0 -35 13.5t-14 34.5z" />
<glyph unicode="&#xfd;" horiz-adv-x="570" d="M76 443l60 72q40 -31 61 -58.5t21 -66.5q0 -9 -1 -13l-34 -215q-3 -16 -3 -30q0 -24 8.5 -39t25 -22t43.5 -7q70 0 111 37q2 1 8 5.5t7.5 6t6.5 5.5t6.5 5.5l5.5 5.5t6 6.5t4.5 6.5t4.5 8t3.5 9t3.5 10l54 331h90q-69 -425 -97 -606q-13 -79 -65 -128.5t-132 -49.5 q-62 0 -100 38t-38 100q0 81 50 134q-56 13 -81 51q-18 27 -18 67q0 20 2 31l38 240q3 21 -36 54zM225 -133q0 -24 10 -41q15 -26 52 -26q26 0 47 12t32.5 32t15.5 46l21 135q-39 -24 -73 -38q-37 -16 -54 -28q-51 -32 -51 -92zM324 625l208 146l45 -79l-222 -129z" />
<glyph unicode="&#xfe;" horiz-adv-x="547" d="M-35 -248l154 974h90q-20 -131 -44 -256q65 47 144 47q108 0 160 -80q33 -52 33 -127q0 -31 -4 -56q-20 -118 -97 -192q-81 -78 -207 -78q-47 0 -101 6l-38 -238h-90zM106 73q54 -6 97 -6q53 0 85 15q56 24 88 79.5t32 130.5q0 62 -28.5 101.5t-80.5 39.5q-21 0 -44 -5 q-80 -25 -105 -89q-4 -12 -4 -14z" />
<glyph unicode="&#xff;" horiz-adv-x="570" d="M76 443l60 72q40 -31 61 -58.5t21 -66.5q0 -9 -1 -13l-34 -215q-3 -16 -3 -30q0 -24 8.5 -39t25 -22t43.5 -7q70 0 111 37q2 1 8 5.5t7.5 6t6.5 5.5t6.5 5.5l5.5 5.5t6 6.5t4.5 6.5t4.5 8t3.5 9t3.5 10l54 331h90q-69 -425 -97 -606q-13 -79 -65 -128.5t-132 -49.5 q-62 0 -100 38t-38 100q0 81 50 134q-56 13 -81 51q-18 27 -18 67q0 20 2 31l38 240q3 21 -36 54zM206 674q0 26 20.5 46t46.5 20q21 0 35 -14t14 -35q0 -26 -20.5 -45.5t-46.5 -19.5q-21 0 -35 13.5t-14 34.5zM225 -133q0 -24 10 -41q15 -26 52 -26q26 0 47 12t32.5 32 t15.5 46l21 135q-39 -24 -73 -38q-37 -16 -54 -28q-51 -32 -51 -92zM446 674q0 26 20.5 46t46.5 20q21 0 35 -14t14 -35q0 -26 -20.5 -45.5t-46.5 -19.5q-21 0 -35 13.5t-14 34.5z" />
<glyph unicode="&#x152;" horiz-adv-x="1208" d="M50 280q0 33 5 62q12 78 50 143q33 54 96 107q118 99 264 99q153 0 242 -115l14 106q4 1 11 1h475l-14 -87h-387l-31 -193h267l-14 -87h-267l-36 -230h407l-14 -87h-503l17 103q-60 -55 -133 -84q-70 -28 -148 -28q-140 0 -229 99q-45 48 -61 108q-11 40 -11 83zM140 294 q0 -88 52 -147q65 -74 172 -74q78 0 152 43q94 55 136 153q9 23 12 39l10 64q2 14 2 23q0 30 -13 65.5t-27 54.5q-64 92 -186 92q-35 0 -71 -9t-68 -25.5t-59 -39.5q-89 -74 -108 -192q-4 -32 -4 -47z" />
<glyph unicode="&#x153;" horiz-adv-x="980" d="M41 199q0 25 4 48q18 114 102.5 187.5t203.5 73.5q68 0 120 -26q52 -27 79 -83q78 109 203 109q77 0 127 -35.5t50 -100.5q0 -8 -2 -24q-15 -87 -101 -129q-66 -32 -163 -32h-97q1 -60 31 -87.5t94 -27.5q69 0 174 50l33 -66q-114 -65 -219 -65q-145 0 -184 101 q-83 -101 -227 -101q-112 0 -178 69q-50 53 -50 139zM134 212q0 -66 40 -103t108 -37q80 0 138 49q50 43 64 120q4 23 4 48q0 56 -28 91q-40 47 -122 47q-84 0 -136.5 -50t-64.5 -127q-3 -19 -3 -38zM575 268h102q62 0 90 10q70 26 70 84q0 12 -5 25q-6 15 -21 24 q-13 10 -32 14q-20 4 -40 4q-57 0 -106 -52q-44 -46 -58 -109z" />
<glyph unicode="&#x178;" horiz-adv-x="662" d="M68 583q12 47 45.5 79t82.5 32q63 0 87 -54l101 -240l212 285h110l-290 -388l-45 -297h-102l51 295l-126 302q-3 8 -14 8q-9 0 -14 -11l-7 -20zM275 858q0 26 20.5 46t46.5 20q21 0 35 -14t14 -35q0 -26 -20.5 -45.5t-46.5 -19.5q-21 0 -35 13.5t-14 34.5zM515 858 q0 26 20.5 46t46.5 20q21 0 35 -14t14 -35q0 -26 -20.5 -45.5t-46.5 -19.5q-21 0 -35 13.5t-14 34.5z" />
<glyph unicode="&#x2c6;" horiz-adv-x="400" d="M70 608l181 177h65l127 -177h-115l-60 80l-85 -80h-113z" />
<glyph unicode="&#x2dc;" horiz-adv-x="482" d="M111 676q81 60 143 60q28 0 58 -11q52 -22 67 -22q38 0 89 39l46 -68q-27 -19 -40 -27.5t-41.5 -20.5t-52.5 -12q-28 0 -44 6q-15 3 -35 11q-46 17 -65 17q-30 0 -80 -40z" />
<glyph unicode="&#x2000;" horiz-adv-x="488" />
<glyph unicode="&#x2001;" horiz-adv-x="977" />
<glyph unicode="&#x2002;" horiz-adv-x="488" />
<glyph unicode="&#x2003;" horiz-adv-x="977" />
<glyph unicode="&#x2004;" horiz-adv-x="325" />
<glyph unicode="&#x2005;" horiz-adv-x="244" />
<glyph unicode="&#x2006;" horiz-adv-x="162" />
<glyph unicode="&#x2007;" horiz-adv-x="162" />
<glyph unicode="&#x2008;" horiz-adv-x="122" />
<glyph unicode="&#x2009;" horiz-adv-x="195" />
<glyph unicode="&#x200a;" horiz-adv-x="54" />
<glyph unicode="&#x2010;" horiz-adv-x="431" d="M44 260l14 92h332l-14 -92h-332z" />
<glyph unicode="&#x2011;" horiz-adv-x="431" d="M44 260l14 92h332l-14 -92h-332z" />
<glyph unicode="&#x2012;" horiz-adv-x="431" d="M44 260l14 92h332l-14 -92h-332z" />
<glyph unicode="&#x2013;" horiz-adv-x="538" d="M33 260l14 92h462l-14 -92h-462z" />
<glyph unicode="&#x2014;" horiz-adv-x="698" d="M33 260l14 92h622l-14 -92h-622z" />
<glyph unicode="&#x2018;" horiz-adv-x="205" d="M74 535q0 6 2 18q18 112 117 175l48 -56q-54 -46 -66 -119q-11 -60 -60 -60q-41 0 -41 42z" />
<glyph unicode="&#x2019;" horiz-adv-x="205" d="M61 533q55 47 67 119q3 23 16 43q14 17 42 17q42 0 42 -42q0 -12 -1 -18q-18 -111 -118 -175z" />
<glyph unicode="&#x201a;" horiz-adv-x="205" d="M-36 -76q57 49 67 118q11 60 59 60q42 0 42 -42q0 -6 -2 -18q-18 -110 -118 -174z" />
<glyph unicode="&#x201c;" horiz-adv-x="336" d="M76 535q0 6 2 18q18 112 117 175l48 -56q-54 -46 -66 -119q-11 -60 -60 -60q-41 0 -41 42zM201 535q0 6 2 18q18 112 117 175l48 -56q-54 -46 -66 -119q-11 -60 -60 -60q-41 0 -41 42z" />
<glyph unicode="&#x201d;" horiz-adv-x="336" d="M65 533q55 47 67 119q3 23 16 43q14 17 42 17q42 0 42 -42q0 -12 -1 -18q-18 -111 -118 -175zM190 533q55 47 67 119q3 23 16 43q14 17 42 17q42 0 42 -42q0 -12 -1 -18q-18 -111 -118 -175z" />
<glyph unicode="&#x201e;" horiz-adv-x="336" d="M-32 -76q57 49 67 118q11 60 59 60q42 0 42 -42q0 -6 -2 -18q-18 -110 -118 -174zM93 -76q57 49 67 118q11 60 59 60q42 0 42 -42q0 -6 -2 -18q-18 -110 -118 -174z" />
<glyph unicode="&#x2022;" horiz-adv-x="276" d="M38 298q0 52 43 88q32 31 75 31q30 0 42 -6.5t27 -23.5q20 -23 20 -54q0 -49 -35.5 -84.5t-84.5 -35.5q-36 0 -61.5 24.5t-25.5 60.5z" />
<glyph unicode="&#x2026;" horiz-adv-x="658" d="M16 42q0 27 21.5 47.5t49.5 20.5q23 0 38 -14.5t15 -35.5q0 -28 -21.5 -48.5t-49.5 -20.5q-23 0 -38 14.5t-15 36.5zM236 42q0 27 21.5 47.5t49.5 20.5q23 0 38 -14.5t15 -35.5q0 -28 -21.5 -48.5t-49.5 -20.5q-23 0 -38 14.5t-15 36.5zM446 42q0 27 21.5 47.5t49.5 20.5 q23 0 38 -14.5t15 -35.5q0 -28 -21.5 -48.5t-49.5 -20.5q-23 0 -38 14.5t-15 36.5z" />
<glyph unicode="&#x202f;" horiz-adv-x="195" />
<glyph unicode="&#x2039;" horiz-adv-x="374" d="M48 190q-62 62 20 122l250 196l50 -67l-245 -190l185 -190l-71 -66z" />
<glyph unicode="&#x203a;" horiz-adv-x="374" d="M-9 61l245 190l-185 190l72 67l188 -196q2 -2 22 -27q7 -10 7 -24q0 -36 -49 -71l-249 -195z" />
<glyph unicode="&#x205f;" horiz-adv-x="244" />
<glyph unicode="&#x20ac;" horiz-adv-x="634" d="M25 215l33 83h61l6 42h-79l31 82h65q24 70 48 106t67 71q80 65 205 65q22 0 126 -7l-13 -85q-95 6 -127 6q-84 0 -136 -41q-51 -41 -73 -115h248l-28 -83h-238l-6 -41h234l-27 -83h-212q5 -64 43 -102q37 -37 115 -37q43 0 82 14q38 15 76 36l32 -70q-52 -35 -96 -50 t-107 -15q-117 0 -179 59q-62 60 -63 165h-88z" />
<glyph unicode="&#x2122;" horiz-adv-x="614" d="M77 562l10 59h314l42 -185l105 185h80l-46 -290h-67l25 156l-83 -146h-59l-31 141l-24 -151h-67l36 231h-83l-36 -230h-68l36 230h-84z" />
<glyph unicode="&#xe000;" horiz-adv-x="500" d="M0 0v500h500v-500h-500z" />
<glyph unicode="&#xfb03;" horiz-adv-x="700" d="M-26 -259l113 713q27 169 123 226q38 23 88 23q71 0 106 -33q43 32 106 32q83 0 130 -63l-79 -65q-12 22 -25.5 33t-38.5 11q-52 0 -81 -58q-17 -36 -28 -101h219l-59 -374l-1 -4q0 -4 4.5 -8.5t8.5 -4.5q11 0 29 21l68 -48q-53 -59 -109 -59q-45 0 -71 29q-21 25 -21 55 q0 5 2 19l46 289h-129l-101 -633h-90l101 633h-120l-101 -633h-90zM178 458h120q5 30 9 49.5t10 36.5t9 23.5t13 25.5q-19 25 -51 25q-31 0 -50 -16q-25 -20 -38.5 -55t-21.5 -89z" />
<glyph unicode="&#xfb04;" horiz-adv-x="778" d="M-39 -259l113 713q28 171 123 226q38 22 90 22q83 0 128 -61q53 59 140 59q63 0 102 -32t39 -87q0 -18 -2 -27l-74 -468l-1 -4q0 -4 4.5 -8.5t8.5 -4.5q11 0 29 21l68 -48q-53 -59 -109 -59q-40 0 -65.5 23t-25.5 62q0 12 1 18l74 467q1 4 1 11q0 24 -15 36 q-16 16 -51 16q-36 0 -57 -24t-34 -67q-8 -23 -22 -110l-23 -148h148l-14 -84h-148l-70 -444h-90l70 444h-178l-70 -442h-90zM135 267h178l30 194q9 53 18.5 85t18 46.5t26.5 38.5l-68 -57q-8 14 -14.5 22.5t-19 15t-30.5 6.5q-23 0 -40.5 -10.5t-25 -21.5t-17.5 -31 q-16 -36 -28 -108z" />
</font>
</defs>
</svg>
