<?xml version="1.0" standalone="no"?>
<!DOCTYPE svg PUBLIC "-//W3C//DTD SVG 1.1//EN" "http://www.w3.org/Graphics/SVG/1.1/DTD/svg11.dtd" >
<svg xmlns="http://www.w3.org/2000/svg">
<metadata></metadata>
<defs>
<font id="yanone_kaffeesatzregular" horiz-adv-x="418" >
<font-face units-per-em="1000" ascent="800" descent="-200" />
<missing-glyph horiz-adv-x="158" />
<glyph unicode="&#xfb01;" horiz-adv-x="402" d="M10 432q0 48 3 58t18 10h48v61q0 56 15.5 94t43.5 55t56 23t65 6q115 0 115 -49q0 -26 -9 -47q-44 23 -103 23q-50 0 -76 -20t-26 -84v-62h70q0 -47 -3 -57.5t-14 -10.5h-53v-416q0 -16 -17 -16h-64v432h-69zM275 0v463q0 26 14.5 31.5t67.5 5.5v-484q0 -12 -10.5 -14 t-71.5 -2z" />
<glyph unicode="&#xfb02;" horiz-adv-x="412" d="M10 432q0 48 3 58t18 10h48v61q0 177 157 177q74 0 130 -34v-688q0 -16 -17 -16h-63v665q-21 7 -45 7q-16 0 -28 -3t-25.5 -12t-21 -30.5t-7.5 -53.5v-73h81q0 -48 -2.5 -58t-14.5 -10h-64v-416q0 -16 -16 -16h-64v432h-69z" />
<glyph horiz-adv-x="1000" />
<glyph horiz-adv-x="1000" />
<glyph horiz-adv-x="333" />
<glyph unicode="&#xd;" horiz-adv-x="158" />
<glyph unicode=" "  horiz-adv-x="158" />
<glyph unicode="&#x09;" horiz-adv-x="158" />
<glyph unicode="&#xa0;" horiz-adv-x="158" />
<glyph unicode="!" horiz-adv-x="195" d="M42 50q0 24 15 41t40 17q56 0 56 -58q0 -24 -15.5 -40.5t-40.5 -16.5q-55 0 -55 57zM45 683q0 16 19 19.5t91 3.5l-16 -455q-1 -25 -16.5 -31.5t-63.5 -6.5z" />
<glyph unicode="&#x22;" horiz-adv-x="263" d="M31 760q0 20 3 22q7 4 32 4q29 0 44 -3q0 -43 -7.5 -118t-13.5 -79l-44 -3q-14 98 -14 177zM154 760q0 21 2 22q7 4 33 4q29 0 44 -3q0 -41 -8 -117t-13 -80l-44 -3q-14 98 -14 177z" />
<glyph unicode="#" d="M28 190q0 64 16 64h43l5 106h-64q0 64 16 64h52l3 63q1 11 15 13.5t56 2.5l-4 -79h96l3 63q1 11 15 13.5t56 2.5l-4 -79h58q0 -64 -16 -64h-45l-6 -106h67q0 -64 -16 -64h-54l-4 -67q-1 -11 -14.5 -13.5t-56.5 -2.5l4 83h-95l-4 -67q-1 -11 -14.5 -13.5t-56.5 -2.5l4 83 h-55zM157 254h96l5 106h-95z" />
<glyph unicode="$" d="M53 37q0 9 6.5 31.5t14.5 33.5q37 -30 107 -30q93 0 93 86q0 28 -12 50t-43 56l-112 113q-54 57 -54 111q0 53 33.5 86t94.5 41v89q0 20 17 26.5t56 6.5v-121q35 -2 60 -9t34 -14t9 -12q0 -33 -20 -56q-30 21 -98 21q-97 0 -97 -57q0 -34 43 -80l121 -121q57 -57 57 -131 q0 -138 -126 -160v-88q0 -19 -16.5 -25t-56.5 -6v115q-36 2 -62.5 10t-37.5 17t-11 17z" />
<glyph unicode="%" horiz-adv-x="692" d="M45 525q0 183 141 183q70 0 101.5 -39.5t31.5 -142.5q0 -187 -139 -187q-72 0 -103.5 37.5t-31.5 148.5zM116 23l404 686q45 -15 45 -35q0 -5 -99.5 -175.5t-199.5 -338.5l-100 -168q-50 13 -50 31zM122 523q0 -72 14 -96.5t46 -24.5q63 0 63 123q0 72 -13.5 96.5 t-45.5 24.5t-48 -27t-16 -96zM372 177q0 183 142 183q70 0 101.5 -39.5t31.5 -142.5q0 -187 -139 -187q-48 0 -75.5 13.5t-44 55t-16.5 117.5zM448 173q0 -72 14.5 -96.5t46.5 -24.5q63 0 63 123q0 72 -13.5 96.5t-45.5 24.5t-48.5 -27t-16.5 -96z" />
<glyph unicode="&#x26;" horiz-adv-x="502" d="M27 170q0 60 31.5 109t80.5 79q-78 136 -78 210q0 68 43.5 103t123.5 35q65 0 107 -14t42 -33q0 -36 -20 -59q-50 35 -120 35q-44 0 -67.5 -15.5t-23.5 -61.5q0 -51 59 -154t138 -203q8 39 8 90q0 132 -60 205q41 8 114 8q42 0 78 -3q0 -1 0.5 -5.5t1 -11t0.5 -12.5 q0 -19 -8 -28t-34 -8h-49q11 -21 16 -32t12 -45t7 -78q0 -86 -25 -153q55 -60 84 -73q-3 -24 -20.5 -44.5t-32.5 -20.5q-14 0 -73 64q-56 -64 -150 -64q-185 0 -185 180zM110 168q0 -44 23 -73t74 -29q67 0 102 49q-67 81 -135 185q-64 -46 -64 -132z" />
<glyph unicode="'" horiz-adv-x="141" d="M31 760q0 20 3 22q7 4 32 4q29 0 44 -3q0 -43 -7.5 -118t-13.5 -79l-44 -3q-14 98 -14 177z" />
<glyph unicode="(" horiz-adv-x="292" d="M65 320q0 94 15.5 178t37 137.5t45.5 93t41 57t22 17.5q20 0 29.5 -11t15.5 -40q-124 -165 -124 -432q0 -157 39 -280t85 -176q-6 -30 -15.5 -45t-28.5 -15q-7 0 -24 18.5t-41 61t-45.5 99.5t-36.5 146.5t-15 190.5z" />
<glyph unicode=")" horiz-adv-x="292" d="M21 -136q50 66 87 181t37 275q0 141 -35 254.5t-89 177.5q7 29 16.5 40t28.5 11q6 0 22.5 -16.5t40.5 -56t45.5 -92.5t37 -137.5t15.5 -180.5q0 -95 -15 -182.5t-36.5 -146t-45 -102.5t-41 -64.5t-24.5 -20.5q-32 0 -44 60z" />
<glyph unicode="*" horiz-adv-x="470" d="M16 503q-1 29 13.5 48t30.5 19q6 0 9 -2l130 -81q3 -29 -16 -29q-5 0 -8 1zM66 300l121 123q8 8 15 8q10 0 22 -16l-88 -156q-8 -9 -16 -9q-13 0 -28.5 16t-25.5 34zM199 667q-1 11 7 16t23 5q27 0 49 -11l-20 -158q-3 -18 -19 -18q-7 0 -18 3zM246 414q0 11 25 20 l115 -135q5 -7 5 -11q0 -14 -21 -27t-43 -16l-78 159q-3 6 -3 10zM269 479q0 9 13 16l149 80q23 -20 23 -54q0 -23 -15 -27l-159 -39q-11 14 -11 24z" />
<glyph unicode="+" d="M34 247q0 43 2.5 56.5t14.5 13.5h123v124q0 11 14 13.5t57 2.5v-140h139q0 -43 -2.5 -56.5t-13.5 -13.5h-123v-124q0 -11 -14 -13.5t-57 -2.5v140h-140z" />
<glyph unicode="," horiz-adv-x="183" d="M38 -80q26 43 29 85q-24 16 -24 49q0 23 14.5 37.5t36.5 14.5q54 0 54 -59q0 -49 -30.5 -99.5t-47.5 -50.5q-27 0 -32 23z" />
<glyph unicode="-" horiz-adv-x="278" d="M37 247q0 43 2.5 56.5t14.5 13.5h187q0 -43 -2.5 -56.5t-13.5 -13.5h-188z" />
<glyph unicode="." horiz-adv-x="183" d="M37 51q0 24 15.5 40.5t40.5 16.5q55 0 55 -57q0 -25 -15 -41t-40 -16q-56 0 -56 57z" />
<glyph unicode="/" horiz-adv-x="334" d="M10 -20l225 763q3 11 9 15t22 5.5t58 1.5l-225 -765q-4 -14 -17 -17t-72 -3z" />
<glyph unicode="0" d="M29 296q0 152 43.5 228t138.5 76t136.5 -68.5t41.5 -211.5q0 -169 -41 -249t-142 -80q-99 0 -138 74t-39 231zM116 290q0 -125 20.5 -175.5t71.5 -50.5q52 0 74.5 60.5t22.5 196.5q0 107 -20 157.5t-70 50.5q-55 0 -77 -60t-22 -179z" />
<glyph unicode="1" d="M28 56q0 20 145 20l11 441q-15 0 -43.5 -4.5t-49.5 -8.5l-21 -5q-12 19 -12 53q0 10 80 29t109 19q16 0 23 -5l-13 -519h74l58 3q0 -47 -2.5 -63t-13.5 -16h-343q-2 32 -2 56z" />
<glyph unicode="2" d="M29 25q0 20 4.5 31.5t20.5 39.5q36 61 113 150q41 49 60 74t37.5 63t18.5 71q0 69 -77 69q-88 0 -147 -35q-10 23 -10 59q0 19 53.5 36t123.5 17q83 0 115.5 -33.5t32.5 -102.5q0 -33 -9 -64t-32 -66t-39 -55.5t-52 -63.5q-70 -82 -106 -139h135l118 7q0 -49 -3 -66 t-14 -17h-339q-4 11 -4 25z" />
<glyph unicode="3" d="M43 546q0 21 48.5 37.5t124.5 16.5q74 0 106.5 -33t32.5 -85q0 -102 -110 -181q60 -6 96.5 -42t36.5 -107q0 -121 -63 -186.5t-163 -65.5q-53 0 -80.5 14t-27.5 35t11 60q35 -32 98 -32q65 0 101.5 48t36.5 125q0 104 -159 104l-2 51q64 31 98.5 71t34.5 82q0 65 -72 65 q-80 0 -138 -36q-10 20 -10 59z" />
<glyph unicode="4" d="M28 202q0 41 77.5 192.5t131.5 197.5q17 14 36 14q28 0 43 -11v-389l74 3q4 -7 4 -24q0 -54 -27 -54h-51v-105q0 -20 -10 -23t-71 -3v131h-181q-26 26 -26 71zM98 206h137l12 289q-39 -45 -86 -134t-63 -155z" />
<glyph unicode="5" d="M34 -59q0 40 9 66q35 -32 98 -32q77 0 115 58.5t38 144.5q0 81 -39 111t-116 30q-39 0 -97 -13l29 294h306q0 -46 -7 -59t-35 -13l-195 4l-16 -151q35 5 64 5q192 0 192 -191q0 -139 -57.5 -217t-174.5 -78q-37 0 -64.5 7.5t-38.5 16.5t-11 17z" />
<glyph unicode="6" d="M31 308q0 394 228 394q108 0 108 -34q0 -32 -8 -57q-42 15 -94 15q-146 0 -156 -259q45 72 137 72q67 0 106 -47t39 -147q0 -253 -189 -253q-45 0 -76.5 15t-50 39.5t-28.5 67.5t-13 86t-3 108zM108 284q-2 -115 21.5 -167.5t75.5 -52.5q50 0 78.5 46t28.5 118 q0 67 -23 102t-66 35q-66 0 -115 -75v-6z" />
<glyph unicode="7" d="M45 600h360q-102 -197 -163 -362.5t-79 -325.5q-48 0 -65.5 4t-17.5 18q20 149 84.5 322t129.5 275q-74 -4 -227 -4q-22 0 -22 73z" />
<glyph unicode="8" d="M32 183q0 62 31.5 112.5t82.5 80.5q-45 31 -65 53q-42 39 -42 105q0 83 48.5 127.5t122.5 44.5q177 0 177 -162q0 -101 -108 -175q38 -30 54 -46q59 -61 59 -141q0 -83 -45 -136.5t-129 -53.5q-95 0 -140.5 53t-45.5 138zM107 188q0 -55 28.5 -87t77.5 -32q46 0 73 31 t27 83q0 62 -45 103q-23 23 -58 47q-103 -54 -103 -145zM119 539q0 -50 40 -82q16 -16 60 -46q94 59 94 130q0 44 -27 66.5t-66 22.5q-44 0 -72.5 -22.5t-28.5 -68.5z" />
<glyph unicode="9" d="M28 358q0 251 189 251q104 0 137 -65t35 -247q-2 -205 -62 -303t-189 -98q-89 0 -89 33q0 29 7 54q33 -10 73 -10q90 0 131.5 66.5t49.5 188.5q-48 -71 -136 -71q-65 0 -105.5 52.5t-40.5 148.5zM107 368q0 -66 24 -101.5t67 -35.5q65 0 114 74v5q0 122 -18.5 174.5 t-75.5 52.5q-53 0 -82 -42.5t-29 -126.5z" />
<glyph unicode=":" horiz-adv-x="183" d="M38 51q0 24 15 40.5t40 16.5q56 0 56 -57q0 -25 -15 -41t-41 -16q-55 0 -55 57zM38 386q0 24 15 40.5t40 16.5q56 0 56 -57q0 -25 -15 -41t-41 -16q-55 0 -55 57z" />
<glyph unicode=";" horiz-adv-x="183" d="M34 -80q24 40 29 85q-24 16 -24 49q0 23 14.5 37.5t36.5 14.5q54 0 54 -59q0 -49 -30.5 -99.5t-47.5 -50.5q-27 0 -32 23zM36 386q0 24 15 40.5t40 16.5q56 0 56 -57q0 -25 -15 -41t-41 -16q-55 0 -55 57z" />
<glyph unicode="&#x3c;" horiz-adv-x="400" d="M39 258q0 31 26 44l264 128q28 -25 28 -53q0 -18 -14 -24l-199 -98l216 -96q-1 -25 -12 -44t-24 -19q-6 0 -27 7l-245 108q-13 23 -13 47z" />
<glyph unicode="=" d="M34 154q0 42 2.5 56t14.5 14h333q0 -42 -2.5 -56t-13.5 -14h-334zM34 339q0 43 2.5 57t14.5 14h333q0 -43 -2.5 -57t-13.5 -14h-334z" />
<glyph unicode="&#x3e;" horiz-adv-x="400" d="M43 358q1 25 13 43.5t24 18.5q10 0 27 -7l244 -108q13 -20 13 -47q0 -31 -26 -44l-264 -129q-26 26 -28 54q0 18 14 25l200 97z" />
<glyph unicode="?" horiz-adv-x="295" d="M19 667q0 17 39.5 30t85.5 13q65 0 102 -35.5t37 -104.5q0 -31 -6 -58t-19 -51.5t-22 -38.5t-27 -38q-1 -2 -7.5 -10t-9 -11t-8 -11t-8 -12.5t-6.5 -12.5t-5.5 -14t-3 -14t-1.5 -16q0 -13 5 -40q3 -23 1 -26q-8 -10 -45 -10q-20 0 -28 1q-15 30 -15 71q0 9 1.5 18t4 18.5 t5.5 17t8 17.5l8 16t9.5 16t9.5 14.5t9 14t8 11.5q20 29 29 43t18 38.5t9 48.5q0 77 -82 77q-49 0 -84 -26q-12 36 -12 64zM75 51q0 24 15 40.5t40 16.5q56 0 56 -57q0 -16 -6.5 -29t-19.5 -20.5t-30 -7.5q-30 0 -42.5 14.5t-12.5 42.5z" />
<glyph unicode="@" horiz-adv-x="738" d="M47 264q0 215 92 317t255 102q151 0 225 -75t74 -249q0 -357 -160 -357q-35 0 -62 23q-32 -24 -112 -24q-60 0 -91 30t-31 120q0 167 127 167q38 0 59 -11q2 39 2 65q0 31 -15 42.5t-46 11.5q-56 0 -100 -24q-8 17 -8 46q0 11 9 20q39 26 126 26q57 0 84 -26t26 -90 l-5 -201q-2 -73 -5 -99q17 -6 33 -6q15 0 29.5 14t27.5 43t21 83t8 126q0 153 -47 213t-170 60q-135 0 -199.5 -80t-64.5 -278q0 -90 10.5 -154t29 -105t49 -64.5t66 -32.5t85.5 -9q127 0 233 44q21 -32 21 -58q0 -15 -29 -29.5t-87.5 -24.5t-131.5 -10q-62 0 -105.5 7.5 t-88.5 34.5t-72 75t-44.5 133t-17.5 204zM314 148q0 -50 13 -68t41 -18q50 0 51 52l4 144q-21 3 -35 3q-36 0 -55 -25t-19 -88z" />
<glyph unicode="A" horiz-adv-x="437" d="M5 1l179 688q3 14 30 14q23 0 38 -3l179 -685q2 -9 -5 -13t-30 -4q-27 0 -48 2l-42 178h-174l-39 -164q-2 -6 -4.5 -9t-10 -5t-23.5 -2q-21 0 -50 3zM149 251h139l-34 144q-29 122 -35 193q-11 -89 -36 -193z" />
<glyph unicode="B" horiz-adv-x="377" d="M44 0v681q0 19 26 19h99q168 0 168 -154q0 -76 -29 -116.5t-66 -45.5q118 -8 118 -146q0 -120 -53.5 -179t-136.5 -59h-126zM125 71h46q41 0 67.5 39.5t26.5 120.5q0 71 -22.5 92.5t-70.5 21.5h-47v-274zM125 414h50q34 0 54 29t20 87q0 99 -74 99h-50v-215z" />
<glyph unicode="C" horiz-adv-x="341" d="M30 321q0 98 12.5 171t31 114t46 65.5t52.5 31.5t55 7q50 0 72 -16t22 -39q0 -27 -13 -49q-31 25 -65 25q-21 0 -38 -6t-34.5 -25.5t-29 -52t-19 -89t-7.5 -133.5q0 -98 13.5 -154t34 -74t52.5 -18q57 0 93 32q12 -26 12 -49q0 -30 -35 -51t-89 -21q-32 0 -54.5 6 t-45 26.5t-36 56t-22 96.5t-8.5 146z" />
<glyph unicode="D" horiz-adv-x="388" d="M44 0v681q0 19 27 19h98q102 0 148.5 -69t46.5 -245q0 -144 -24 -230.5t-65.5 -121t-105.5 -34.5h-125zM125 77h46q22 0 38 11t32 42.5t24 97.5t8 166q0 133 -24 182.5t-78 49.5h-46v-549z" />
<glyph unicode="E" horiz-adv-x="320" d="M45 0v684q0 16 16 16h240q0 -51 -2 -62t-13 -11h-161v-209h151q0 -49 -2 -61.5t-13 -12.5h-136v-271h172q0 -52 -2 -62.5t-14 -10.5h-236z" />
<glyph unicode="F" horiz-adv-x="313" d="M45 0v684q0 16 16 16h240q0 -50 -2 -59.5t-13 -9.5h-161v-213h151q0 -49 -2 -61.5t-13 -12.5h-136v-328q0 -16 -15 -16h-65z" />
<glyph unicode="G" horiz-adv-x="386" d="M30 334q0 115 14.5 190.5t44 115.5t66.5 55t90 15q48 0 77.5 -15.5t29.5 -35.5q0 -25 -11 -52q-31 24 -80 24q-78 0 -111.5 -63.5t-33.5 -227.5q0 -115 13.5 -176t34 -78t56.5 -17q46 0 60 25v249h-75v51q0 16 19 16h131v-375q-54 -45 -137 -45q-70 0 -109 27t-59 102.5 t-20 214.5z" />
<glyph unicode="H" horiz-adv-x="410" d="M44 0v684q0 12 10 14t71 2v-285h160v269q0 12 9.5 14t70.5 2v-684q0 -12 -9.5 -14t-70.5 -2v339h-160v-323q0 -12 -10 -14t-71 -2z" />
<glyph unicode="I" horiz-adv-x="169" d="M44 0v663q0 28 10.5 32.5t71.5 4.5v-684q0 -12 -10.5 -14t-71.5 -2z" />
<glyph unicode="J" horiz-adv-x="300" d="M14 50q0 20 12 46q35 -33 83 -33q41 0 53 27t12 93v480q0 28 10 32.5t72 4.5v-535q0 -83 -30 -128.5t-107 -45.5q-56 0 -80.5 17t-24.5 42z" />
<glyph unicode="K" horiz-adv-x="389" d="M42 0v684q0 12 10 14t72 2v-301l160 296q28 6 51 6q36 0 36 -15q0 -3 -3 -9l-162 -279q120 -91 161 -380q1 -12 -5.5 -16t-27.5 -4q-26 0 -56 3q-24 127 -49 200.5t-65 116.5q-13 15 -40 27v-329q0 -12 -10 -14t-72 -2z" />
<glyph unicode="L" horiz-adv-x="314" d="M44 0v677q0 17 10.5 20t70.5 3v-624h172v-60q0 -16 -16 -16h-237z" />
<glyph unicode="M" horiz-adv-x="489" d="M44 0v684q0 10 4 13t12 3h58l96 -304l32 -111q18 71 29 108l89 291q5 16 16 16h65v-684q0 -12 -10.5 -14t-71.5 -2l3 245q2 88 18 298q-47 -178 -65 -228l-53 -154q-3 -8 -11 -8h-35l-52 162q-13 39 -64 226l-1 -1q17 -186 20 -291v-233q0 -12 -11 -14t-68 -2z" />
<glyph unicode="N" horiz-adv-x="444" d="M44 0v684q0 16 16 16h61l113 -270q11 -28 96 -283v2q-10 84 -10 299v236q0 12 10.5 14t70.5 2v-684q0 -16 -17 -16h-60l-115 275q-26 69 -95 284q10 -108 10 -300v-243q0 -12 -10 -14t-70 -2z" />
<glyph unicode="O" horiz-adv-x="429" d="M30 354q0 195 46 275.5t146 80.5q98 0 137.5 -76.5t39.5 -276.5q0 -203 -44 -285t-144 -82q-68 0 -105.5 31t-56.5 110t-19 223zM121 334q0 -143 20 -202t73 -59q54 0 76 64t22 218q0 153 -19.5 212.5t-72.5 59.5q-54 0 -76.5 -66t-22.5 -227z" />
<glyph unicode="P" horiz-adv-x="361" d="M44 0v684q0 16 16 16h99q95 0 139.5 -47t44.5 -150q0 -116 -50.5 -167.5t-132.5 -51.5h-36v-268q0 -12 -10 -14t-70 -2zM124 359h44q44 0 65 35.5t21 117.5q0 117 -80 117h-50v-270z" />
<glyph unicode="Q" horiz-adv-x="429" d="M30 354q0 195 46 275.5t146 80.5q98 0 137.5 -76.5t39.5 -276.5q0 -163 -28 -246.5t-89 -108.5q7 -40 18.5 -56t34.5 -16q37 0 63 17q12 -18 12 -44q0 -21 -28.5 -30.5t-61.5 -9.5q-51 0 -82 30.5t-48 97.5q-59 4 -93 37.5t-50.5 111.5t-16.5 214zM121 334 q0 -143 20 -202t73 -59q54 0 76 64t22 218q0 153 -19.5 212.5t-72.5 59.5q-54 0 -76.5 -66t-22.5 -227z" />
<glyph unicode="R" horiz-adv-x="372" d="M44 0v684q0 16 16 16h99q95 0 139.5 -47t44.5 -150q0 -147 -87 -196q82 -111 94 -289q0 -12 -7 -16t-34 -4q-11 0 -47 2q-13 195 -83 285l-19 -1h-36v-268q0 -12 -10 -14t-70 -2zM124 359h44q44 0 65 34.5t21 112.5q0 61 -18.5 92t-61.5 31h-50v-270z" />
<glyph unicode="S" horiz-adv-x="358" d="M25 49q0 31 21 58q39 -35 103 -35q99 0 99 102q0 36 -13 64.5t-46 67.5l-100 117q-63 75 -63 144q0 65 45.5 104t126.5 39q131 0 131 -50q0 -25 -20 -46q-28 24 -98 24q-45 0 -71.5 -18t-26.5 -51q0 -42 46 -99l109 -123q38 -45 52.5 -83t14.5 -86q0 -85 -41.5 -136.5 t-136.5 -51.5q-63 0 -97.5 18t-34.5 41z" />
<glyph unicode="T" horiz-adv-x="373" d="M8 624v60q0 16 17 16h340v-59q0 -17 -17 -17h-123v-608q0 -12 -10.5 -14t-70.5 -2v624h-136z" />
<glyph unicode="U" horiz-adv-x="437" d="M44 205v478q0 13 10.5 15t72.5 2v-498q0 -69 19 -103t78 -34q56 0 88 17v601q0 13 10.5 15t71.5 2v-674q-21 -14 -68.5 -25t-101.5 -11q-58 0 -95.5 16t-55 49t-23.5 66.5t-6 83.5z" />
<glyph unicode="V" horiz-adv-x="420" d="M5 689q0 11 19 11h66l84 -388q6 -30 11.5 -65t9.5 -61.5t9 -59t10 -57.5q18 146 36 243l75 364q3 13 7 18.5t14 5.5h70l-154 -703q-29 -4 -68 -4q-33 0 -48 58q-30 127 -85.5 377.5t-55.5 260.5z" />
<glyph unicode="W" horiz-adv-x="654" d="M5 687q0 13 19 13h66l73 -389q15 -91 30 -223h5q5 99 26 223l62 331q2 9 3.5 13.5t5.5 7.5t12 3h57l71 -355q13 -65 26 -185q0 -6 1.5 -18.5t2.5 -19.5h6q11 132 25 223l65 365q2 13 5.5 18.5t14.5 5.5h69l-132 -703q-47 -5 -67 -5q-32 0 -43 57l-52 227q-12 61 -31 229 q-19 -163 -29 -228l-55 -280q-33 -4 -74 -4q-27 0 -41 61q-26 129 -73.5 377t-47.5 256z" />
<glyph unicode="X" horiz-adv-x="424" d="M9 0l153 362l-126 324q-3 10 7 12q12 2 88 2l41 -114q18 -49 49 -150q26 87 50 150l39 101q3 10 13.5 11.5t73.5 1.5l-129 -332l144 -355q1 -2 1 -6q0 -7 -10 -7h-88l-54 135q-30 78 -54 149q-27 -81 -56 -149l-54 -125q-6 -10 -18 -10h-70z" />
<glyph unicode="Y" horiz-adv-x="364" d="M6 687q-3 9 7 11t84 2l40 -137q15 -47 31.5 -117t18.5 -93q2 22 19 92.5t32 117.5l35 122q3 11 14 13t73 2l-135 -412v-272q0 -12 -10 -14t-71 -2v284z" />
<glyph unicode="Z" horiz-adv-x="385" d="M19 31q0 19 8 36l240 561h-187q-31 0 -43 -3v58q0 17 17 17h298q8 -11 8 -26q0 -18 -8 -37l-244 -565h194q41 0 59 8v-64q0 -16 -16 -16h-313q-13 11 -13 31z" />
<glyph unicode="[" horiz-adv-x="386" d="M122 -199v995q0 17 9 21t53 4h193q0 -50 -4 -62t-23 -12h-147v-870h173q0 -54 -4.5 -65t-22.5 -11h-227z" />
<glyph unicode="\" horiz-adv-x="329" d="M10 752q0 9 14.5 11t66.5 2l226 -775q2 -6 2 -8q0 -9 -14.5 -10.5t-67.5 -1.5l-225 773q-2 6 -2 9z" />
<glyph unicode="]" horiz-adv-x="386" d="M9 -200q0 50 4 62t23 12h147v872h-173q0 54 4.5 65t22.5 11h227v-997q0 -17 -9 -21t-53 -4h-193z" />
<glyph unicode="^" horiz-adv-x="430" d="M48 249l172 149l146 -128q14 -11 14 -26q0 -14 -11 -25t-28 -13l-129 88l-102 -76q-16 -10 -25 -10q-16 0 -26 12.5t-11 28.5z" />
<glyph unicode="_" horiz-adv-x="377" d="M14 -109q0 43 2.5 57t13.5 14h334q0 -43 -2.5 -57t-14.5 -14h-333z" />
<glyph unicode="`" horiz-adv-x="269" d="M49 655q4 22 14 41.5t23 19.5q4 0 27.5 -18t54.5 -47t52 -53q-12 -45 -31 -45q-27 15 -78 51.5t-62 50.5z" />
<glyph unicode="a" horiz-adv-x="354" d="M29 142q0 95 36.5 129.5t97.5 34.5q47 0 73 -13v79q0 34 -15 47t-47 13q-77 0 -133 -23q-11 21 -11 47q0 20 11 27q15 10 58 18.5t95 8.5q65 0 94 -28t29 -94v-53q0 -220 -6 -311q-56 -34 -144 -34q-31 0 -52.5 5t-42.5 20t-32 47t-11 80zM113 144q0 -51 16.5 -68.5 t50.5 -17.5q35 0 53 16q3 34 3 162q-19 10 -47 10q-36 0 -56 -21t-20 -81z" />
<glyph unicode="b" horiz-adv-x="385" d="M48 20v678q0 26 13.5 31.5t66.5 5.5v-260q45 35 107 35t92.5 -45t30.5 -152q0 -83 -12.5 -144t-31.5 -94.5t-46.5 -53.5t-51 -25.5t-52.5 -5.5q-80 0 -116 30zM128 75q16 -14 47 -14q93 0 93 235q0 78 -17 109.5t-53 31.5q-42 0 -70 -28v-334z" />
<glyph unicode="c" horiz-adv-x="313" d="M31 239q0 69 11 120t28 79.5t42 45t47.5 21.5t50.5 5q36 0 60 -13t24 -32q0 -23 -9 -45q-34 19 -71 19q-20 0 -35.5 -7t-31.5 -26t-24.5 -61.5t-8.5 -106.5q0 -102 21 -139t69 -37q47 0 80 23q8 -29 8 -44q0 -21 -32 -36t-80 -15q-39 0 -64.5 9.5t-45.5 35.5t-29.5 76 t-9.5 128z" />
<glyph unicode="d" horiz-adv-x="381" d="M31 232q0 141 42.5 209.5t110.5 68.5q46 0 72 -20v208q0 26 14 31.5t67 5.5v-715q-64 -30 -144 -30q-30 0 -51 4t-43.5 18.5t-36 40t-22.5 71t-9 108.5zM120 241q0 -106 18.5 -142.5t57.5 -36.5q38 0 60 15v350q-17 13 -46 13q-90 0 -90 -199z" />
<glyph unicode="e" horiz-adv-x="361" d="M30 224q0 90 14.5 149.5t42 88t55 38.5t65.5 10q127 0 127 -160q0 -80 -11 -130q-81 -16 -210 -16q3 -78 24.5 -107t69.5 -29q60 0 114 32q7 -22 7 -55q0 -23 -40.5 -39t-97.5 -16q-38 0 -65 9.5t-49.5 34t-34 72t-11.5 118.5zM113 269q91 -2 138 11q5 23 5 60 q-1 56 -13 77.5t-45 21.5q-76 0 -85 -170z" />
<glyph unicode="f" horiz-adv-x="254" d="M13 432q0 48 2.5 58t17.5 10h49v61q0 44 10.5 77.5t26 52t39 30t44.5 15t47 3.5q93 0 93 -41q0 -23 -9 -44q-29 12 -71 12q-47 0 -73.5 -20t-26.5 -79v-67h90q0 -48 -2.5 -58t-14.5 -10h-73v-416q0 -16 -17 -16h-63v432h-69z" />
<glyph unicode="g" horiz-adv-x="394" d="M23 -88q0 70 76 121q-61 18 -61 53q0 42 63 92q-62 39 -62 149q0 183 167 183q25 0 48 -8h121q8 -14 8 -38q0 -31 -28 -31q-14 0 -36 5q38 -36 38 -109q0 -175 -162 -175q-26 0 -45 4q-27 -27 -27 -44q0 -4 3.5 -7t11.5 -6t15.5 -5t20.5 -4t21.5 -3.5t24 -3.5t22.5 -3 q66 -10 99.5 -35.5t33.5 -80.5q0 -70 -49 -116.5t-143 -46.5q-160 0 -160 109zM106 -69q0 -27 18 -40.5t66 -13.5q50 0 76.5 24t26.5 54q0 33 -23.5 46t-89.5 18l-19 2q-55 -40 -55 -90zM124 329q0 -58 15.5 -85.5t60.5 -27.5q76 0 76 132q0 103 -73 103q-36 0 -57.5 -29.5 t-21.5 -92.5z" />
<glyph unicode="h" horiz-adv-x="380" d="M45 0v698q0 26 13.5 31.5t66.5 5.5v-264q45 39 113 39q61 0 82.5 -31.5t21.5 -100.5v-362q0 -12 -11 -14t-71 -2v356q0 38 -12 58.5t-47 20.5q-44 0 -76 -27v-392q0 -12 -10 -14t-70 -2z" />
<glyph unicode="i" horiz-adv-x="175" d="M44 630q0 62 46 62q23 0 32 -13t9 -43q0 -66 -46 -66q-41 0 -41 60zM47 0v463q0 26 14 31.5t67 5.5v-484q0 -12 -10 -14t-71 -2z" />
<glyph unicode="j" horiz-adv-x="184" d="M-103 -143q0 26 12 41q38 -20 85 -20q37 0 48.5 21.5t11.5 76.5v487q0 26 14 31.5t66 5.5v-536q0 -75 -28 -117.5t-102 -42.5q-107 0 -107 53zM49 632q2 60 46 60q23 0 32 -13t9 -45q-2 -64 -46 -64q-41 0 -41 62z" />
<glyph unicode="k" horiz-adv-x="376" d="M46 0v698q0 26 14 31.5t67 5.5v-271q26 21 60 33.5t66 12.5q85 0 85 -86q0 -91 -84 -155q44 -19 72.5 -72t28.5 -130q0 -24 -3 -51q-1 -12 -12.5 -14t-78.5 -2q4 31 4 63q0 30 -5 60q-5 35 -17 59t-27 34.5t-32 10.5q-5 0 -11.5 -1.5t-12.5 -3.5t-12 -4.5t-10 -5t-8 -4.5 l-3 -1v-191q0 -12 -9.5 -14t-71.5 -2zM127 265q122 49 122 132q0 40 -37 40q-46 0 -85 -48v-124z" />
<glyph unicode="l" horiz-adv-x="173" d="M46 0v698q0 26 14 31.5t67 5.5v-719q0 -12 -10.5 -14t-70.5 -2z" />
<glyph unicode="m" horiz-adv-x="564" d="M46 0v477q73 33 151 33q62 0 91 -31q55 31 122 31q70 0 91.5 -33t21.5 -108v-353q0 -12 -11 -14t-70 -2v370q0 39 -9.5 54t-39.5 15q-37 0 -68 -19v-404q0 -12 -10 -14t-70 -2v372q0 40 -8.5 54t-41.5 14q-36 0 -68 -18v-406q0 -12 -11 -14t-70 -2z" />
<glyph unicode="n" horiz-adv-x="383" d="M45 0v476q78 34 159 34q78 0 109 -30.5t31 -103.5v-360q0 -12 -11 -14t-72 -2v352q0 50 -12 69t-48 19q-43 0 -75 -18v-406q0 -12 -10.5 -14t-70.5 -2z" />
<glyph unicode="o" horiz-adv-x="376" d="M27 250q0 260 167 260q82 0 118.5 -55.5t36.5 -202.5q0 -136 -41.5 -199t-123.5 -63q-42 0 -68.5 9t-48 36t-31 79.5t-9.5 135.5zM115 248q0 -80 9 -122.5t23 -55t39 -12.5q36 0 55.5 42t19.5 152q0 114 -16 152t-54 38q-37 0 -56.5 -42t-19.5 -152z" />
<glyph unicode="p" horiz-adv-x="382" d="M46 -162v632q63 40 146 40q80 0 121.5 -46t41.5 -162q0 -312 -149 -312q-51 0 -79 28v-209q-19 -6 -42 -6q-22 0 -30.5 7.5t-8.5 27.5zM127 95q20 -33 54 -33q85 0 85 231q0 86 -18.5 116.5t-59.5 30.5q-34 0 -61 -19v-326z" />
<glyph unicode="q" horiz-adv-x="387" d="M30 218q0 155 56 223.5t149 68.5q63 0 107 -31v-642q0 -23 -8.5 -28.5t-39.5 -6.5q-18 0 -33 3v229q-30 -44 -96 -44q-135 0 -135 228zM121 220q0 -93 20.5 -126t53.5 -33q47 0 66 51v314q-18 14 -46 14q-46 0 -70 -51t-24 -169z" />
<glyph unicode="r" horiz-adv-x="263" d="M45 0v465q64 45 136 45q70 0 70 -42q0 -25 -9 -47q-21 12 -48 12q-38 0 -67 -23v-394q0 -12 -10.5 -14t-71.5 -2z" />
<glyph unicode="s" horiz-adv-x="346" d="M30 40q0 24 15 47q41 -24 99 -24q82 0 82 61q0 44 -40 79l-97 83q-58 47 -58 106q0 55 41.5 86.5t122.5 31.5q47 0 77 -10.5t39 -22t9 -23.5q0 -21 -17 -41q-44 27 -99 27q-36 0 -57.5 -13t-21.5 -36q0 -29 40 -62l93 -75q33 -32 46.5 -60t13.5 -65q0 -66 -44.5 -102.5 t-121.5 -36.5q-55 0 -88.5 13t-33.5 37z" />
<glyph unicode="t" horiz-adv-x="292" d="M19 431q0 47 2.5 58t14.5 11h51v152q0 20 13.5 24t66.5 4v-180h104q0 -48 -2.5 -58.5t-14.5 -10.5h-87v-292q0 -27 1.5 -41t10 -26.5t25.5 -12.5q25 0 58 15q6 -20 6 -40q0 -44 -86 -44q-59 0 -77 36t-18 113v292h-68z" />
<glyph unicode="u" horiz-adv-x="389" d="M45 156v328q0 12 10 14t73 2v-351q0 -51 13.5 -70t54.5 -19q40 0 67 19v405q0 12 10.5 14t70.5 2v-474q-67 -36 -150 -36q-86 0 -117.5 39t-31.5 127z" />
<glyph unicode="v" horiz-adv-x="344" d="M17 486q0 10 14.5 12t72.5 2l32 -161q10 -46 20 -109.5t15 -103.5l5 -40h2q17 149 38 254l27 142q2 13 13 15.5t72 2.5l-115 -503q-15 -3 -57 -3q-23 0 -35 49l-102 432q-2 10 -2 11z" />
<glyph unicode="w" horiz-adv-x="541" d="M16 483q-2 12 10.5 14.5t76.5 2.5l31 -163q9 -50 17.5 -111t12.5 -97l5 -36h6q19 136 28 185l32 191q2 11 6.5 14t19.5 3h53l39 -210q8 -34 15.5 -79.5t11.5 -74.5l4 -29h5q10 119 32 244l25 145q2 13 13 15.5t67 2.5q-104 -503 -108 -503q-18 -3 -52 -3 q-12 0 -24.5 13.5t-17.5 38.5l-13 68q-23 106 -37 249q-18 -158 -37 -250l-23 -116q-41 -3 -67 -3q-24 0 -34 49z" />
<glyph unicode="x" horiz-adv-x="411" d="M15 0l142 260l-122 227q-4 9 4 11q9 2 81 2l37 -69q28 -52 54 -114q40 86 55 115l31 54q4 10 15.5 12t73.5 2l-128 -234l133 -247q4 -7 4 -11q0 -6 -16 -7t-77 -1l-37 66q-22 41 -66 135q-35 -80 -63 -136l-29 -49q-5 -12 -19 -14t-73 -2z" />
<glyph unicode="y" horiz-adv-x="357" d="M-4 -154q0 28 12 45q22 -15 63 -15q53 0 73 108l-120 494q-2 8 -2 11q0 8 13.5 9.5t66.5 1.5l55 -240q7 -35 14 -79.5t10 -70.5l3 -27q10 97 24 178l45 216q3 17 14 20t73 3l-123 -527q-22 -94 -53 -130t-87 -36q-81 0 -81 39z" />
<glyph unicode="z" horiz-adv-x="335" d="M21 40q0 18 7 30l195 362h-103q-57 0 -92 -5q-3 17 -3 38q0 35 26 35h255q8 -8 8 -25q0 -19 -9 -39l-190 -361h89q66 0 106 10q2 -8 2 -35t-6.5 -38.5t-25.5 -11.5h-246q-13 12 -13 40z" />
<glyph unicode="{" horiz-adv-x="277" d="M41 293q0 28 17 40q16 10 23.5 17t14.5 26.5t7 50.5q0 34 -7 101t-7 98q0 60 41.5 88.5t113.5 29.5q16 -22 16 -50q0 -25 -15 -28q-74 -6 -74 -81q0 -28 5.5 -89t5.5 -93q0 -24 -4 -42t-11.5 -29.5t-16.5 -18.5t-22 -13q13 -5 22.5 -12t17 -18t11 -27t3.5 -38 q0 -33 -5.5 -93.5t-5.5 -89.5q0 -54 18.5 -73t63.5 -25q2 -26 2 -30q0 -44 -28 -44q-73 0 -105.5 33.5t-32.5 101.5q0 35 7 97.5t7 99.5q0 38 -13 55t-42 23q-7 15 -7 33z" />
<glyph unicode="|" horiz-adv-x="324" d="M122 -200v993q0 16 11 19t70 3v-995q0 -15 -11 -17.5t-70 -2.5z" />
<glyph unicode="}" horiz-adv-x="277" d="M18 -100q0 25 15 28q73 6 73 80q0 30 -5 90t-5 93q0 46 13 68.5t40 34.5q-27 11 -40 32t-13 63q0 34 5 94t5 90q0 53 -18.5 72t-62.5 25q-4 16 -4 31q0 19 8 31t21 12q49 0 80 -15.5t44.5 -45t13.5 -74.5q0 -35 -7 -97.5t-7 -99.5q0 -38 13 -55t42 -23q7 -17 7 -33 q0 -29 -18 -40q-17 -11 -23.5 -17.5t-13.5 -26t-7 -50.5q0 -34 7 -101t7 -98q0 -60 -42 -89t-113 -29q-15 22 -15 50z" />
<glyph unicode="~" horiz-adv-x="400" d="M11 266q15 23 50.5 43t78.5 20q34 0 72 -23q29 -20 58 -20q39 0 71 34q7 6 15 6q14 0 24 -14t11 -35q-18 -25 -51 -45t-77 -20q-38 0 -78 25q-29 19 -53 19q-22 0 -59 -23q-18 -13 -27 -15q-14 -1 -24 12t-11 36z" />
<glyph unicode="&#xa1;" horiz-adv-x="195" d="M45 -197l16 453q1 25 16 31t64 6l14 -467q0 -16 -19 -19.5t-91 -3.5zM46 451q0 25 15 41t41 16q55 0 55 -57q0 -24 -15 -40.5t-40 -16.5q-56 0 -56 57z" />
<glyph unicode="&#xa2;" d="M83 228q0 243 130 276v88q0 19 17.5 26.5t55.5 7.5v-118q24 -5 41.5 -14.5t17.5 -18.5q0 -38 -8 -58q-32 18 -68 18q-22 0 -38 -6.5t-32.5 -26t-25.5 -62.5t-9 -109q0 -75 11 -112t28.5 -46t53.5 -9q45 0 78 24q8 -20 8 -51q0 -14 -24.5 -28.5t-55.5 -17.5v-93 q0 -19 -16.5 -25t-56.5 -6v126q-55 9 -81 58.5t-26 176.5z" />
<glyph unicode="&#xa3;" horiz-adv-x="366" d="M15 277q0 43 2.5 56.5t13.5 13.5h47q4 133 44.5 190.5t115.5 57.5q42 0 71 -13.5t29 -39.5q0 -19 -11 -49q-33 21 -71 21q-46 0 -71 -35.5t-27 -131.5h130q0 -43 -2.5 -56.5t-13.5 -13.5h-114q2 -133 7 -197l157 -6q7 -20 7 -37q0 -37 -52 -37h-188q-9 121 -11 277h-63z " />
<glyph unicode="&#xa4;" horiz-adv-x="571" d="M12 496q41 43 53 43q5 0 8 -4l74 -74q51 45 144 45q89 0 135 -43l84 83q42 -42 42 -53q0 -5 -4 -8l-82 -82q18 -47 18 -117q0 -84 -24 -138l100 -99q-43 -43 -53 -43q-3 0 -9 4l-81 81q-47 -39 -131 -39t-133 38l-91 -92q-43 43 -43 54q0 5 5 8l86 87q-23 51 -23 129 q0 74 20 125zM167 271q0 -150 121 -150q119 0 119 167q0 151 -112 151q-128 0 -128 -168z" />
<glyph unicode="&#xa5;" d="M30 687q-3 9 7 11q11 2 85 2l39 -137q47 -152 48 -191q5 46 50 191l38 122q4 11 14.5 13t72.5 2l-96 -292h90q0 -38 -6 -52.5t-25 -14.5h-81l-17 -53v-45h130q0 -38 -6 -52.5t-26 -14.5h-98v-160q0 -12 -9.5 -14t-70.5 -2v176h-131q0 39 6 53t26 14h99v41l-20 57h-111 q0 39 6 53t26 14h56z" />
<glyph unicode="&#xa6;" horiz-adv-x="227" d="M73 192q0 18 9 25.5t33 7.5q20 0 38 -6v-388q0 -18 -7.5 -23.5t-33.5 -5.5q-23 0 -39 5v385zM73 330v381q0 18 9 25t33 7q20 0 38 -6v-383q0 -17 -7.5 -22.5t-33.5 -5.5q-22 0 -39 4z" />
<glyph unicode="&#xa7;" horiz-adv-x="348" d="M36 388q0 63 56 100l-9 11q-37 45 -37 88q0 54 42.5 85t109.5 31q44 0 71.5 -13t34.5 -29q3 -9 3 -17q0 -27 -16 -49q-32 23 -82 23q-34 0 -52.5 -13t-18.5 -34q0 -35 66 -92q59 -59 71 -75q36 -45 36 -92q0 -62 -56 -100l9 -11q37 -48 37 -89q0 -54 -42.5 -85 t-108.5 -31q-44 0 -72 13.5t-35 29.5q-3 5 -3 16q0 28 16 50q34 -24 81 -24q34 0 53 13t19 34q0 10 -4 20t-13 21.5t-14.5 17.5t-19 19t-15.5 15q-53 51 -71 75q-36 45 -36 92zM111 382q0 -32 29 -67q11 -14 56 -51q17 7 28.5 23.5t11.5 30.5q0 29 -29 66q-11 14 -56 51 q-18 -6 -29 -22.5t-11 -30.5z" />
<glyph unicode="&#xa8;" horiz-adv-x="269" d="M34 632q0 57 44 57q22 0 30.5 -12t8.5 -41q0 -64 -44 -64q-39 0 -39 60zM153 630q0 59 44 59q22 0 30.5 -12t8.5 -41q0 -64 -43 -64q-40 0 -40 58z" />
<glyph unicode="&#xa9;" horiz-adv-x="471" d="M36 541q0 219 206 219q101 0 147.5 -49.5t46.5 -167.5q0 -108 -52 -165.5t-150 -57.5q-101 0 -149.5 51t-48.5 170zM96 541q0 -89 33.5 -126t102.5 -37q64 0 103.5 40.5t39.5 125.5q0 84 -33 122.5t-101 38.5q-145 0 -145 -164zM157 531q0 82 26 109.5t66 27.5 q15 0 30 -5.5t15 -10.5q0 -8 -6 -32q-20 8 -34 8q-23 0 -36.5 -19t-13.5 -80q0 -46 9.5 -59t33.5 -13q19 0 39 10q7 -16 7 -30q0 -7 -16 -14t-34 -7q-48 0 -67 21.5t-19 93.5z" />
<glyph unicode="&#xaa;" horiz-adv-x="323" d="M41 411q0 123 109 123q32 0 64 -10v58q0 57 -62 57q-47 0 -95 -22q-10 13 -10 36q0 15 6 22q32 35 123 35q106 0 106 -102v-291q-60 -29 -128 -29q-54 0 -83.5 24.5t-29.5 98.5zM105 409q0 -36 15.5 -49.5t44.5 -13.5q31 0 49 12v110q-18 8 -42 8q-34 0 -50.5 -12.5 t-16.5 -54.5z" />
<glyph unicode="&#xab;" horiz-adv-x="416" d="M18 253q0 15 36.5 76.5t73.5 116.5l36 54q14 0 26 -10t17 -20l5 -11q0 -17 -29.5 -68.5t-58.5 -94.5l-30 -43q120 -169 120 -206q-2 -5 -5.5 -13t-16 -21t-25.5 -13q-149 217 -149 253zM190 251q0 14 36 70.5t72 106.5l36 49q13 0 25 -9.5t17 -19.5l5 -9q0 -16 -28.5 -63 t-56.5 -86l-29 -39q116 -147 116 -182q-2 -5 -5.5 -12.5t-15.5 -20t-25 -12.5q-147 193 -147 227z" />
<glyph unicode="&#xac;" horiz-adv-x="400" d="M34 270q0 38 26 38h298v-197q-16 -6 -37 -6q-39 0 -39 26v101h-242q-6 20 -6 38z" />
<glyph unicode="&#xad;" horiz-adv-x="278" d="M37 247q0 43 2.5 56.5t14.5 13.5h187q0 -43 -2.5 -56.5t-13.5 -13.5h-188z" />
<glyph unicode="&#xae;" horiz-adv-x="471" d="M36 541q0 219 206 219q101 0 147.5 -49.5t46.5 -167.5q0 -108 -52 -165.5t-150 -57.5q-101 0 -149.5 51t-48.5 170zM96 541q0 -89 33.5 -126t102.5 -37q64 0 103.5 40.5t39.5 125.5q0 84 -33 122.5t-101 38.5q-145 0 -145 -164zM176 417v248q0 5 7 5h44q81 0 81 -72 q0 -48 -34 -69q35 -33 41 -103q0 -10 -16 -10l-25 1q-6 73 -35 100h-25v-92q0 -6 -6 -7t-32 -1zM214 552l16 -1q38 0 38 49q0 37 -36 37h-18v-85z" />
<glyph unicode="&#xaf;" horiz-adv-x="269" d="M1 624q0 18 9 28.5t24 10.5h227q7 -17 7 -34q0 -18 -8 -30t-22 -12h-232q-5 14 -5 37z" />
<glyph unicode="&#xb0;" horiz-adv-x="358" d="M84 649q0 97 100 97q49 0 70.5 -21t21.5 -75q0 -97 -99 -97q-48 0 -70.5 20.5t-22.5 75.5zM138 648q0 -44 41 -44q44 0 44 46q0 44 -39 44q-46 0 -46 -46z" />
<glyph unicode="&#xb1;" horiz-adv-x="419" d="M34 14q0 43 2.5 57t14.5 14h333q0 -43 -2.5 -57t-13.5 -14h-334zM36 289q0 43 2.5 56.5t13.5 13.5h124v124q0 11 14 13.5t56 2.5v-140h140q0 -43 -2.5 -56.5t-14.5 -13.5h-123v-123q0 -12 -14 -14.5t-56 -2.5v140h-140z" />
<glyph unicode="&#xb2;" horiz-adv-x="384" d="M41 315q0 29 12 42q24 28 84 86q33 31 49.5 48t31 40.5t14.5 44.5q0 52 -64 52q-46 0 -102 -38q-15 27 -15 49q0 27 49.5 49t104.5 22q69 0 97 -27.5t28 -78.5q0 -33 -19.5 -69.5t-41.5 -60.5t-57.5 -58.5t-49.5 -50.5h177q5 -23 5 -35q0 -41 -26 -41h-271q-6 12 -6 26z " />
<glyph unicode="&#xb3;" horiz-adv-x="384" d="M45 335q0 25 19 44q39 -26 97 -26q44 0 70 16.5t26 46.5q0 22 -15.5 36.5t-42.5 17.5q-18 3 -71 3q-9 12 -9 37t25 25q28 0 53 -3q39 28 39 62q0 18 -15.5 31t-49.5 13q-58 0 -104 -33q-16 16 -16 41q0 17 10 25q43 39 143 39q62 0 91.5 -24.5t29.5 -65.5q0 -59 -53 -104 q68 -28 68 -93q0 -71 -48.5 -107.5t-126.5 -36.5q-76 0 -108 26q-12 9 -12 30z" />
<glyph unicode="&#xb4;" horiz-adv-x="269" d="M49 605q32 36 79.5 76.5t54.5 40.5q13 0 23 -19.5t14 -41.5q-12 -13 -63 -50t-77 -51q-8 0 -15.5 11t-11.5 23z" />
<glyph unicode="&#xb5;" horiz-adv-x="395" d="M45 -190v660q0 35 41 35q24 0 39 -5v-369q0 -65 70 -65q42 0 74 15v389q0 18 8 26.5t31 8.5q26 0 41 -5v-476q-74 -34 -155 -34q-48 0 -69 25v-178q0 -32 -45 -32q-10 0 -35 5z" />
<glyph unicode="&#xb6;" horiz-adv-x="541" d="M34 420q0 149 52 219.5t145 70.5q67 0 121 -28v-656q0 -29 -40 -29q-23 0 -41 6v202q-29 -15 -80 -15q-157 0 -157 230zM116 428q0 -173 97 -173q36 0 58 14v361q-18 11 -51 11q-104 0 -104 -213zM414 2v656q0 18 9 25t33 7q21 0 39 -6v-658q0 -18 -8 -23.5t-34 -5.5 q-23 0 -39 5z" />
<glyph unicode="&#xb7;" horiz-adv-x="220" d="M53 269q0 24 15.5 40.5t40.5 16.5q56 0 56 -57q0 -25 -15 -41t-41 -16q-56 0 -56 57z" />
<glyph unicode="&#xb8;" horiz-adv-x="269" d="M70 -193q7 34 13 41q3 3 9.5 0t16.5 -7t19 -4q31 0 31 34t-30 34q-11 0 -21.5 -1.5t-15.5 -3.5l-4 -1l19 103h45l-12 -61q1 1 17 1q20 0 34.5 -16t14.5 -48q0 -38 -22.5 -61t-57.5 -23q-14 0 -28 3t-21 7z" />
<glyph unicode="&#xb9;" horiz-adv-x="382" d="M45 323q0 42 27 42h94v257l-108 -22q-10 16 -10 38q0 28 26 38q35 12 83.5 23t65.5 11q18 0 24 -3v-342h87q4 -26 4 -36q0 -22 -5.5 -31t-19.5 -9h-264q-4 19 -4 34z" />
<glyph unicode="&#xba;" horiz-adv-x="338" d="M35 499q0 211 139 211q68 0 98.5 -45t30.5 -164q0 -212 -138 -212q-66 0 -98 45.5t-32 164.5zM103 494q0 -80 15 -109t48 -29q69 0 69 143q0 81 -14 110.5t-46 29.5q-36 0 -54 -33.5t-18 -111.5z" />
<glyph unicode="&#xbb;" horiz-adv-x="414" d="M33 68q0 16 29 61.5t58 82.5l29 38q1 0 -2 4.5t-9 13t-14 19.5q-89 129 -89 152q0 12 11 22.5t22 14.5l11 4q145 -196 145 -230q0 -16 -37 -73t-74 -106l-37 -49q-5 1 -12 4.5t-19 15t-12 26.5zM200 46q0 16 30 68t60 96l31 43q-118 168 -118 206q0 12 12 22.5t24 14.5 l12 4q145 -214 145 -247q0 -16 -37 -79.5t-74 -118.5l-37 -55q-5 1 -13 4.5t-21.5 15t-13.5 26.5z" />
<glyph unicode="&#xbc;" horiz-adv-x="960" d="M41 323q0 42 27 42h94v257l-108 -22q-10 16 -10 38q0 27 27 38q34 12 82.5 23t65.5 11t25 -3v-342h86q4 -17 4 -36q0 -22 -5.5 -31t-18.5 -9h-264q-5 17 -5 34zM281 19l337 672q6 19 27 19q30 0 55 -28l-339 -677q-6 -15 -24 -15q-30 0 -56 29zM608 110q0 14 6 33 q18 59 63.5 132.5t87.5 114.5q26 31 70 31q20 0 33 -5v-269h60q6 -20 6 -38q0 -39 -24 -39h-42v-51q0 -25 -43 -25q-16 0 -32 4v72h-172q-13 16 -13 40zM682 141h113l4 188q-33 -26 -68 -82t-49 -106z" />
<glyph unicode="&#xbd;" horiz-adv-x="947" d="M41 323q0 42 27 42h94v257l-108 -22q-10 16 -10 38q0 27 27 38q34 12 82.5 23t65.5 11t25 -3v-342h86q4 -17 4 -36q0 -22 -5.5 -31t-18.5 -9h-264q-5 17 -5 34zM281 19l337 672q6 19 27 19q30 0 55 -28l-339 -677q-6 -15 -24 -15q-30 0 -56 29zM608 26q0 29 12 42 q20 24 84 86q34 32 49.5 48t30.5 40t15 45q0 52 -64 52q-48 0 -102 -38q-15 27 -15 49q0 27 49.5 49t104.5 22q69 0 96.5 -27.5t27.5 -78.5q0 -43 -24.5 -82.5t-80 -94t-62.5 -62.5h176q5 -18 5 -35q0 -41 -26 -41h-271q-5 12 -5 26z" />
<glyph unicode="&#xbe;" horiz-adv-x="962" d="M41 335q0 26 20 44q37 -26 97 -26q44 0 69.5 16.5t25.5 46.5q0 22 -15.5 36.5t-41.5 17.5q-19 3 -72 3q-9 12 -9 37t25 25q28 0 54 -3q38 28 38 62q0 18 -15 31t-49 13q-59 0 -104 -33q-16 16 -16 41q0 18 9 25q43 39 144 39q61 0 90.5 -24.5t29.5 -65.5q0 -59 -52 -104 q67 -29 67 -93q0 -71 -48.5 -107.5t-126.5 -36.5q-77 0 -107 26q-13 9 -13 30zM283 19l337 672q6 19 27 19q30 0 55 -28l-339 -677q-6 -15 -24 -15q-30 0 -56 29zM610 110q0 14 6 33q18 59 63.5 132.5t87.5 114.5q26 31 70 31q20 0 33 -5v-269h60q6 -15 6 -38q0 -39 -24 -39 h-42v-51q0 -25 -43 -25q-16 0 -32 4v72h-172q-13 16 -13 40zM684 141h113l4 188q-33 -26 -68 -82t-49 -106z" />
<glyph unicode="&#xbf;" horiz-adv-x="306" d="M14 -56q0 41 13 79t24.5 56t36.5 52q1 1 9.5 11.5t10 13.5t8.5 12.5t9 14.5t6 14t5 17.5t1 17.5q0 12 -5 39q-4 24 -1 27q9 10 45 10q12 0 28 -2q15 -30 15 -70q0 -37 -18 -73q-21 -36 -45 -70q-19 -28 -28.5 -43t-18 -39t-8.5 -48q0 -77 81 -77q46 0 84 25 q12 -30 12 -64q0 -17 -39.5 -29.5t-85.5 -12.5q-64 0 -101.5 35.5t-37.5 103.5zM111 450q0 24 15 40t41 16q56 0 56 -56q0 -24 -15.5 -41t-40.5 -17q-56 0 -56 58z" />
<glyph unicode="&#xc0;" horiz-adv-x="437" d="M5 1l179 688q3 14 30 14q23 0 38 -3l179 -685q2 -9 -5 -13t-30 -4q-27 0 -48 2l-42 178h-174l-39 -164q-2 -6 -4.5 -9t-10 -5t-23.5 -2q-21 0 -50 3zM139 855q4 21 14.5 41t23.5 20q4 0 27 -18t54.5 -47t52.5 -53q-13 -45 -31 -45q-27 15 -78 51.5t-63 50.5zM149 251h139 l-34 144q-29 122 -35 193q-11 -89 -36 -193z" />
<glyph unicode="&#xc1;" horiz-adv-x="437" d="M5 1l179 688q3 14 30 14q23 0 38 -3l179 -685q2 -9 -5 -13t-30 -4q-27 0 -48 2l-42 178h-174l-39 -164q-2 -6 -4.5 -9t-10 -5t-23.5 -2q-21 0 -50 3zM139 805q21 24 52.5 52.5t54.5 46.5t27 18q13 0 23.5 -20t14.5 -41q-12 -13 -63 -49.5t-77 -51.5q-8 0 -16 11t-12 23z M149 251h139l-34 144q-29 122 -35 193q-11 -89 -36 -193z" />
<glyph unicode="&#xc2;" horiz-adv-x="437" d="M5 1l179 688q3 14 30 14q23 0 38 -3l179 -685q2 -9 -5 -13t-30 -4q-27 0 -48 2l-42 178h-174l-39 -164q-2 -6 -4.5 -9t-10 -5t-23.5 -2q-21 0 -50 3zM92 785l114 123q7 3 17 3q14 0 25 -12q97 -99 97 -115q0 -10 -17 -16.5t-40 -6.5q-53 53 -66 77q-57 -76 -75 -76 q-36 0 -55 23zM149 251h139l-34 144q-29 122 -35 193q-11 -89 -36 -193z" />
<glyph unicode="&#xc3;" horiz-adv-x="437" d="M5 1l179 688q3 14 30 14q23 0 38 -3l179 -685q2 -9 -5 -13t-30 -4q-27 0 -48 2l-42 178h-174l-39 -164q-2 -6 -4.5 -9t-10 -5t-23.5 -2q-21 0 -50 3zM72 812q46 75 113 75q22 0 44.5 -24t42.5 -24t33 9.5t20 19.5t12 10q8 0 15 -11t10 -23l4 -11q-4 -9 -16.5 -23 t-38.5 -30.5t-53 -16.5q-23 0 -37 12t-25 24t-26 12q-20 0 -37.5 -19.5t-21.5 -19.5q-10 0 -19.5 10t-14.5 20zM149 251h139l-34 144q-29 122 -35 193q-11 -89 -36 -193z" />
<glyph unicode="&#xc4;" horiz-adv-x="437" d="M5 1l179 688q3 14 30 14q23 0 38 -3l179 -685q2 -9 -5 -13t-30 -4q-27 0 -48 2l-42 178h-174l-39 -164q-2 -6 -4.5 -9t-10 -5t-23.5 -2q-21 0 -50 3zM118 832q0 57 44 57q22 0 30.5 -12.5t8.5 -42.5q0 -62 -44 -62q-20 1 -29.5 14.5t-9.5 45.5zM149 251h139l-34 144 q-29 122 -35 193q-11 -89 -36 -193zM237 832q0 57 44 57q22 0 30.5 -12.5t8.5 -42.5q-2 -62 -44 -62q-40 2 -39 60z" />
<glyph unicode="&#xc5;" horiz-adv-x="437" d="M5 1l179 688q3 14 30 14q23 0 38 -3l179 -685q2 -9 -5 -13t-30 -4q-27 0 -48 2l-42 178h-174l-39 -164q-2 -6 -4.5 -9t-10 -5t-23.5 -2q-21 0 -50 3zM122 839q0 98 100 98q49 0 71 -21.5t22 -75.5q0 -97 -99 -97q-48 0 -71 21.5t-23 74.5zM149 251h139l-34 144 q-29 122 -35 193q-11 -89 -36 -193zM180 838q0 -41 37 -41q41 0 41 43q0 41 -35 41q-43 0 -43 -43z" />
<glyph unicode="&#xc6;" horiz-adv-x="615" d="M17 1l294 685q6 14 26 14h259q0 -51 -2 -62t-13 -11h-161v-209h151q0 -49 -2 -61.5t-13 -12.5h-136v-271h172q0 -52 -2 -62.5t-14 -10.5h-236v178h-166l-69 -164q-6 -16 -37 -16q-23 0 -51 3zM205 251h135v364q-36 -125 -76 -223z" />
<glyph unicode="&#xc7;" horiz-adv-x="341" d="M30 321q0 98 12.5 171t31 114t46 65.5t52.5 31.5t55 7q50 0 72 -16t22 -39q0 -27 -13 -49q-31 25 -65 25q-21 0 -38 -6t-34.5 -25.5t-29 -52t-19 -89t-7.5 -133.5q0 -98 13.5 -154t34 -74t52.5 -18q57 0 93 32q12 -26 12 -49q0 -26 -28 -46t-72 -24l-10 -51q1 1 17 1 q20 0 34.5 -16t14.5 -48q0 -38 -22.5 -61t-57.5 -23q-14 0 -28 3t-21 7l-7 3q6 34 13 41q3 3 9.5 0t16.5 -7t19 -4q31 0 31 34t-30 34q-11 0 -21.5 -1.5t-15.5 -3.5l-4 -1l17 92q-34 3 -58.5 17.5t-45 49t-31 100t-10.5 163.5z" />
<glyph unicode="&#xc8;" horiz-adv-x="320" d="M45 0v684q0 16 16 16h240q0 -51 -2 -62t-13 -11h-161v-209h151q0 -49 -2 -61.5t-13 -12.5h-136v-271h172q0 -52 -2 -62.5t-14 -10.5h-236zM91 855q4 22 14 41.5t23 19.5q4 0 27.5 -18t54.5 -47t52 -53q-12 -45 -31 -45q-27 15 -78 51.5t-62 50.5z" />
<glyph unicode="&#xc9;" horiz-adv-x="320" d="M45 0v684q0 16 16 16h240q0 -51 -2 -62t-13 -11h-161v-209h151q0 -49 -2 -61.5t-13 -12.5h-136v-271h172q0 -52 -2 -62.5t-14 -10.5h-236zM91 805q31 36 79 76.5t55 40.5q13 0 23 -19.5t14 -41.5q-12 -13 -63 -49.5t-77 -51.5q-8 0 -16 11t-12 23z" />
<glyph unicode="&#xca;" horiz-adv-x="320" d="M43 785l115 123q8 3 17 3q13 0 25 -12q97 -99 97 -115q0 -10 -17.5 -16.5t-39.5 -6.5q-53 53 -66 77q-58 -76 -75 -76q-37 0 -56 23zM45 0v684q0 16 16 16h240q0 -51 -2 -62t-13 -11h-161v-209h151q0 -49 -2 -61.5t-13 -12.5h-136v-271h172q0 -52 -2 -62.5t-14 -10.5 h-236z" />
<glyph unicode="&#xcb;" horiz-adv-x="320" d="M45 0v684q0 16 16 16h240q0 -51 -2 -62t-13 -11h-161v-209h151q0 -49 -2 -61.5t-13 -12.5h-136v-271h172q0 -52 -2 -62.5t-14 -10.5h-236zM69 832q2 57 44 57q22 0 31 -12.5t9 -42.5q-2 -62 -45 -62q-39 2 -39 60zM188 832q0 57 45 57q21 0 29.5 -12.5t8.5 -42.5 q0 -62 -44 -62q-20 1 -29.5 14.5t-9.5 45.5z" />
<glyph unicode="&#xcc;" horiz-adv-x="169" d="M6 855q3 21 13.5 41t23.5 20q7 0 54.5 -41t79.5 -77q-13 -45 -31 -45q-27 15 -77.5 51.5t-62.5 50.5zM44 0v663q0 28 10.5 32.5t71.5 4.5v-684q0 -12 -10.5 -14t-71.5 -2z" />
<glyph unicode="&#xcd;" horiz-adv-x="169" d="M6 805q31 36 79 76.5t55 40.5q12 0 22.5 -20t14.5 -41q-12 -13 -63 -49.5t-77 -51.5q-8 0 -16 11t-11 23zM44 0v663q0 28 10.5 32.5t71.5 4.5v-684q0 -12 -10.5 -14t-71.5 -2z" />
<glyph unicode="&#xce;" horiz-adv-x="169" d="M-42 785l115 123q6 3 16 3q15 0 25 -12q98 -99 98 -115q0 -10 -17.5 -16.5t-40.5 -6.5q-53 53 -66 77q-57 -76 -74 -76q-37 0 -56 23zM44 0v663q0 28 10.5 32.5t71.5 4.5v-684q0 -12 -10.5 -14t-71.5 -2z" />
<glyph unicode="&#xcf;" horiz-adv-x="169" d="M-16 832q2 57 44 57q22 0 31 -12.5t8 -42.5q0 -62 -44 -62q-20 1 -29.5 14.5t-9.5 45.5zM44 0v663q0 28 10.5 32.5t71.5 4.5v-684q0 -12 -10.5 -14t-71.5 -2zM103 832q0 57 44 57q22 0 30.5 -12.5t8.5 -42.5q0 -62 -44 -62q-40 2 -39 60z" />
<glyph unicode="&#xd0;" horiz-adv-x="388" d="M5 331q0 43 2.5 56.5t13.5 13.5h23v280q0 19 27 19h98q102 0 148.5 -68t46.5 -238q0 -217 -48.5 -305.5t-146.5 -88.5h-125v331h-39zM125 77h46q22 0 38 11t32 42.5t24 97.5t8 166q0 133 -24 182.5t-78 49.5h-46v-225h80q0 -43 -2.5 -56.5t-14.5 -13.5h-63v-254z" />
<glyph unicode="&#xd1;" horiz-adv-x="444" d="M44 0v684q0 16 16 16h61l113 -270q11 -28 96 -283v2q-10 84 -10 299v236q0 12 10.5 14t70.5 2v-684q0 -16 -17 -16h-60l-115 275q-26 69 -95 284q10 -108 10 -300v-243q0 -12 -10 -14t-70 -2zM75 812q46 75 113 75q22 0 44.5 -24t42.5 -24q16 0 28 6t17 13.5t10.5 13.5 t10.5 6q7 0 14 -11t11 -23l3 -11q-4 -9 -16 -23t-38.5 -30.5t-53.5 -16.5q-23 0 -37 12t-24.5 24t-25.5 12q-20 0 -37.5 -19.5t-21.5 -19.5q-10 0 -20 10t-15 20z" />
<glyph unicode="&#xd2;" horiz-adv-x="429" d="M30 354q0 195 46 275.5t146 80.5q98 0 137.5 -76.5t39.5 -276.5q0 -203 -44 -285t-144 -82q-68 0 -105.5 31t-56.5 110t-19 223zM121 334q0 -143 20 -202t73 -59q54 0 76 64t22 218q0 153 -19.5 212.5t-72.5 59.5q-54 0 -76.5 -66t-22.5 -227zM136 855q4 22 14 41.5 t23 19.5q4 0 27.5 -18t54.5 -47t52 -53q-12 -45 -31 -45q-27 15 -78 51.5t-62 50.5z" />
<glyph unicode="&#xd3;" horiz-adv-x="429" d="M30 354q0 195 46 275.5t146 80.5q98 0 137.5 -76.5t39.5 -276.5q0 -203 -44 -285t-144 -82q-68 0 -105.5 31t-56.5 110t-19 223zM121 334q0 -143 20 -202t73 -59q54 0 76 64t22 218q0 153 -19.5 212.5t-72.5 59.5q-54 0 -76.5 -66t-22.5 -227zM136 805q31 36 79 76.5 t55 40.5q13 0 23 -19.5t14 -41.5q-12 -13 -63 -49.5t-77 -51.5q-8 0 -16 11t-11 23z" />
<glyph unicode="&#xd4;" horiz-adv-x="429" d="M30 354q0 195 46 275.5t146 80.5q98 0 137.5 -76.5t39.5 -276.5q0 -203 -44 -285t-144 -82q-68 0 -105.5 31t-56.5 110t-19 223zM88 785l115 123q8 3 17 3q13 0 25 -12q97 -99 97 -115q0 -10 -17.5 -16.5t-39.5 -6.5q-53 53 -66 77q-58 -76 -75 -76q-37 0 -56 23z M121 334q0 -143 20 -202t73 -59q54 0 76 64t22 218q0 153 -19.5 212.5t-72.5 59.5q-54 0 -76.5 -66t-22.5 -227z" />
<glyph unicode="&#xd5;" horiz-adv-x="429" d="M30 354q0 195 46 275.5t146 80.5q98 0 137.5 -76.5t39.5 -276.5q0 -203 -44 -285t-144 -82q-68 0 -105.5 31t-56.5 110t-19 223zM68 812q46 75 113 75q23 0 45 -24t42 -24q16 0 28 6t17 13.5t10.5 13.5t10.5 6q7 0 14 -11t10 -23l4 -11q-4 -9 -16 -23t-38.5 -30.5 t-53.5 -16.5q-29 0 -50 24t-37 24q-20 0 -37.5 -19.5t-21.5 -19.5q-10 0 -20 10t-15 20zM121 334q0 -143 20 -202t73 -59q54 0 76 64t22 218q0 153 -19.5 212.5t-72.5 59.5q-54 0 -76.5 -66t-22.5 -227z" />
<glyph unicode="&#xd6;" horiz-adv-x="429" d="M30 354q0 195 46 275.5t146 80.5q98 0 137.5 -76.5t39.5 -276.5q0 -203 -44 -285t-144 -82q-68 0 -105.5 31t-56.5 110t-19 223zM114 832q2 57 44 57q22 0 31 -12.5t9 -42.5q-2 -62 -45 -62q-39 2 -39 60zM121 334q0 -143 20 -202t73 -59q54 0 76 64t22 218 q0 153 -19.5 212.5t-72.5 59.5q-54 0 -76.5 -66t-22.5 -227zM233 832q0 57 45 57q21 0 29.5 -12.5t8.5 -42.5q0 -62 -44 -62q-20 1 -29.5 14.5t-9.5 45.5z" />
<glyph unicode="&#xd7;" d="M71 381q44 42 54 42q4 0 8 -4l212 -236q-42 -42 -53 -42q-4 0 -8 3z" />
<glyph unicode="&#xd8;" horiz-adv-x="436" d="M24 9q-1 7 35 94q-26 81 -26 251q0 195 45 275.5t144 80.5q80 0 119 -46q18 48 22 55q47 -4 51 -25q2 -8 -33 -110q22 -79 22 -227q0 -202 -44.5 -284.5t-144.5 -82.5q-80 0 -120 45q-4 -11 -8.5 -22t-8.5 -19.5t-4 -9.5q-14 0 -30.5 7t-18.5 18zM124 334q0 -102 7 -158 l150 423q-20 29 -59 29q-53 0 -75.5 -66.5t-22.5 -227.5zM157 98q19 -25 54 -25q36 0 57 20t34 83t13 179q0 109 -8 162q-64 -185 -150 -419z" />
<glyph unicode="&#xd9;" horiz-adv-x="437" d="M44 205v478q0 13 10.5 15t72.5 2v-498q0 -69 19 -103t78 -34q56 0 88 17v601q0 13 10.5 15t71.5 2v-674q-21 -14 -68.5 -25t-101.5 -11q-58 0 -95.5 16t-55 49t-23.5 66.5t-6 83.5zM140 855q4 22 14 41.5t23 19.5q7 0 54.5 -41t79.5 -77q-13 -45 -31 -45 q-27 15 -77.5 51.5t-62.5 50.5z" />
<glyph unicode="&#xda;" horiz-adv-x="437" d="M44 205v478q0 13 10.5 15t72.5 2v-498q0 -69 19 -103t78 -34q56 0 88 17v601q0 13 10.5 15t71.5 2v-674q-21 -14 -68.5 -25t-101.5 -11q-58 0 -95.5 16t-55 49t-23.5 66.5t-6 83.5zM140 805q31 36 79 76.5t55 40.5q13 0 23 -19.5t14 -41.5q-12 -13 -63 -49.5t-77 -51.5 q-8 0 -16 11t-11 23z" />
<glyph unicode="&#xdb;" horiz-adv-x="437" d="M44 205v478q0 13 10.5 15t72.5 2v-498q0 -69 19 -103t78 -34q56 0 88 17v601q0 13 10.5 15t71.5 2v-674q-21 -14 -68.5 -25t-101.5 -11q-58 0 -95.5 16t-55 49t-23.5 66.5t-6 83.5zM92 785l115 123q6 3 17 3q13 0 24 -12q98 -99 98 -115q0 -10 -17.5 -16.5t-39.5 -6.5 q-54 53 -66 77q-58 -76 -75 -76q-37 0 -56 23z" />
<glyph unicode="&#xdc;" horiz-adv-x="437" d="M44 205v478q0 13 10.5 15t72.5 2v-498q0 -69 19 -103t78 -34q56 0 88 17v601q0 13 10.5 15t71.5 2v-674q-21 -14 -68.5 -25t-101.5 -11q-58 0 -95.5 16t-55 49t-23.5 66.5t-6 83.5zM118 832q2 57 44 57q22 0 31 -12.5t8 -42.5q0 -62 -44 -62q-39 2 -39 60zM237 832 q0 57 44 57q22 0 30.5 -12.5t8.5 -42.5q0 -62 -44 -62q-40 2 -39 60z" />
<glyph unicode="&#xdd;" horiz-adv-x="364" d="M6 687q-3 9 7 11t84 2l40 -137q15 -47 31.5 -117t18.5 -93q2 22 19 92.5t32 117.5l35 122q3 11 14 13t73 2l-135 -412v-272q0 -12 -10 -14t-71 -2v284zM103 805q32 36 79.5 76.5t54.5 40.5q13 0 23 -19.5t14 -41.5q-12 -13 -63 -50t-77 -51q-8 0 -15.5 11t-11.5 23z" />
<glyph unicode="&#xde;" horiz-adv-x="361" d="M44 0v680q0 13 10 16.5t44 3.5h26v-134h35q95 0 139.5 -47t44.5 -150q0 -116 -50.5 -167.5t-132.5 -51.5h-36v-134q0 -12 -11 -14t-69 -2zM124 227q4 0 22.5 -1t21.5 -1q44 0 65 35.5t21 117.5q0 117 -80 117q-17 0 -34 -1h-16v-267z" />
<glyph unicode="&#xdf;" horiz-adv-x="465" d="M39 2q1 3 3 8.5t4.5 24.5t1.5 39v476q0 155 160 155q101 0 151 -42.5t50 -101.5q0 -23 -10.5 -42t-21 -28t-30.5 -24q-17 -13 -24 -19t-15 -18.5t-8 -26.5q0 -27 54 -79q24 -22 36.5 -36t30.5 -38.5t26.5 -52t8.5 -59.5q0 -68 -40 -107.5t-110 -39.5q-55 0 -87 14.5 t-32 30.5q0 33 21 54q27 -27 80 -27q36 0 57 19t21 55q0 35 -24 70.5t-53 61t-53 60.5t-24 70q0 23 10.5 43t21.5 30t31 25q17 13 24.5 19.5t15.5 18.5t8 25q0 29 -28.5 49.5t-80.5 20.5q-48 0 -66.5 -29t-16.5 -97v-460q0 -30 -9 -41.5t-38 -11.5q-14 0 -25 2.5t-15 5.5z " />
<glyph unicode="&#xe0;" horiz-adv-x="354" d="M29 142q0 95 36.5 129.5t97.5 34.5q47 0 73 -13v79q0 34 -15 47t-47 13q-77 0 -133 -23q-11 21 -11 47q0 20 11 27q15 10 58 18.5t95 8.5q65 0 94 -28t29 -94v-53q0 -220 -6 -311q-57 -34 -139 -34q-32 0 -54 4.5t-44 19t-33.5 46.5t-11.5 82zM96 655q3 21 13.5 41 t23.5 20q7 0 54.5 -41t79.5 -77q-13 -45 -31 -45q-27 15 -77.5 51.5t-62.5 50.5zM113 144q0 -51 16.5 -68.5t50.5 -17.5q35 0 53 16q3 34 3 162q-19 10 -47 10q-36 0 -56 -21t-20 -81z" />
<glyph unicode="&#xe1;" horiz-adv-x="354" d="M29 142q0 95 36.5 129.5t97.5 34.5q47 0 73 -13v79q0 34 -15 47t-47 13q-77 0 -133 -23q-11 21 -11 47q0 20 11 27q15 10 58 18.5t95 8.5q65 0 94 -28t29 -94v-53q0 -220 -6 -311q-57 -34 -139 -34q-32 0 -54 4.5t-44 19t-33.5 46.5t-11.5 82zM96 605q21 24 52 52.5 t54 46.5t27 18q13 0 23.5 -20t14.5 -41q-12 -13 -63 -49.5t-77 -51.5q-8 0 -16 11t-11 23zM113 144q0 -51 16.5 -68.5t50.5 -17.5q35 0 53 16q3 34 3 162q-19 10 -47 10q-36 0 -56 -21t-20 -81z" />
<glyph unicode="&#xe2;" horiz-adv-x="354" d="M29 142q0 95 36.5 129.5t97.5 34.5q47 0 73 -13v79q0 34 -15 47t-47 13q-77 0 -133 -23q-11 21 -11 47q0 20 11 27q15 10 58 18.5t95 8.5q65 0 94 -28t29 -94v-53q0 -220 -6 -311q-57 -34 -139 -34q-32 0 -54 4.5t-44 19t-33.5 46.5t-11.5 82zM48 585l114 123q7 3 17 3 q15 0 25 -12q98 -99 98 -115q0 -10 -17.5 -16.5t-40.5 -6.5q-53 53 -66 77q-57 -76 -75 -76q-36 0 -55 23zM113 144q0 -51 16.5 -68.5t50.5 -17.5q35 0 53 16q3 34 3 162q-19 10 -47 10q-36 0 -56 -21t-20 -81z" />
<glyph unicode="&#xe3;" horiz-adv-x="354" d="M28 612q46 75 113 75q22 0 44.5 -24t42.5 -24q16 0 28 6t17 13.5t10 13.5t10 6q8 0 15 -11t10 -23l4 -11q-4 -9 -16.5 -23t-38.5 -30.5t-53 -16.5q-29 0 -50 24t-37 24q-20 0 -38 -19.5t-22 -19.5q-10 0 -19.5 10t-14.5 20zM29 142q0 95 36.5 129.5t97.5 34.5 q47 0 73 -13v79q0 34 -15 47t-47 13q-77 0 -133 -23q-11 21 -11 47q0 20 11 27q15 10 58 18.5t95 8.5q65 0 94 -28t29 -94v-53q0 -220 -6 -311q-57 -34 -139 -34q-32 0 -54 4.5t-44 19t-33.5 46.5t-11.5 82zM113 144q0 -51 16.5 -68.5t50.5 -17.5q35 0 53 16q3 34 3 162 q-19 10 -47 10q-36 0 -56 -21t-20 -81z" />
<glyph unicode="&#xe4;" horiz-adv-x="354" d="M29 142q0 95 36.5 129.5t97.5 34.5q47 0 73 -13v79q0 34 -15 47t-47 13q-77 0 -133 -23q-11 21 -11 47q0 20 11 27q15 10 58 18.5t95 8.5q65 0 94 -28t29 -94v-53q0 -220 -6 -311q-57 -34 -139 -34q-32 0 -54 4.5t-44 19t-33.5 46.5t-11.5 82zM74 632q0 57 44 57 q22 0 31 -12.5t8 -42.5q0 -62 -44 -62q-20 1 -29.5 14.5t-9.5 45.5zM113 144q0 -51 16.5 -68.5t50.5 -17.5q35 0 53 16q3 34 3 162q-19 10 -47 10q-36 0 -56 -21t-20 -81zM193 632q0 57 44 57q22 0 30.5 -12.5t8.5 -42.5q-2 -62 -44 -62q-40 2 -39 60z" />
<glyph unicode="&#xe5;" horiz-adv-x="354" d="M29 142q0 95 36.5 129.5t97.5 34.5q47 0 73 -13v79q0 34 -15 47t-47 13q-77 0 -133 -23q-11 21 -11 47q0 20 11 27q15 10 58 18.5t95 8.5q65 0 94 -28t29 -94v-53q0 -220 -6 -311q-57 -34 -139 -34q-32 0 -54 4.5t-44 19t-33.5 46.5t-11.5 82zM78 639q0 98 100 98 q49 0 71 -21.5t22 -75.5q0 -97 -99 -97q-48 0 -71 21.5t-23 74.5zM113 144q0 -51 16.5 -68.5t50.5 -17.5q35 0 53 16q3 34 3 162q-19 10 -47 10q-36 0 -56 -21t-20 -81zM136 638q0 -41 37 -41q41 0 41 43q0 41 -35 41q-43 0 -43 -43z" />
<glyph unicode="&#xe6;" horiz-adv-x="583" d="M29 148q0 171 131 171q50 0 76 -13v72q0 60 -68 60q-75 0 -126 -27q-10 18 -10 48q0 14 10 24q40 27 155 27q80 0 99 -57q35 57 122 57q127 0 127 -159q0 -81 -11 -131q-46 -6 -87 -6q-61 0 -123 11q0 -68 10.5 -103t27 -44t48.5 -9q68 0 122 31q7 -21 7 -72 q0 -7 -18.5 -15.5t-51.5 -15t-68 -6.5q-67 0 -99 29q-48 -29 -136 -29q-31 0 -52 4.5t-42.5 19.5t-32 48t-10.5 85zM113 149q0 -57 15.5 -74t49.5 -17q45 0 58 16v176q-19 8 -47 8q-76 0 -76 -109zM326 290q56 -13 101 -13q19 0 35 3q5 23 5 62q-1 55 -13 76t-45 21 q-72 0 -83 -149z" />
<glyph unicode="&#xe7;" horiz-adv-x="313" d="M31 239q0 69 11 120t28 79.5t42 45t47.5 21.5t50.5 5q36 0 60 -13t24 -32q0 -23 -9 -45q-34 19 -71 19q-20 0 -35.5 -7t-31.5 -26t-24.5 -61.5t-8.5 -106.5q0 -102 21 -139t69 -37q47 0 80 23q8 -29 8 -44q0 -21 -30.5 -35.5t-77.5 -15.5l-10 -49q1 1 17 1q21 0 35.5 -16 t14.5 -48q0 -38 -22.5 -61t-57.5 -23q-14 0 -28 3t-21 7l-7 3q6 34 12 41q3 3 9.5 0t16.5 -7t19 -4q32 0 32 34t-30 34q-12 0 -22.5 -1.5t-15.5 -3.5l-4 -1l17 94q-56 10 -82 64t-26 182z" />
<glyph unicode="&#xe8;" horiz-adv-x="361" d="M30 224q0 90 14.5 149.5t42 88t55 38.5t65.5 10q127 0 127 -160q0 -80 -11 -130q-81 -16 -210 -16q3 -78 24.5 -107t69.5 -29q60 0 114 32q7 -22 7 -55q0 -23 -40.5 -39t-97.5 -16q-38 0 -65 9.5t-49.5 34t-34 72t-11.5 118.5zM101 655q4 21 14.5 41t22.5 20 q4 0 27.5 -18t54.5 -47t52 -53q-12 -45 -31 -45q-27 15 -78 51.5t-62 50.5zM113 269q91 -2 138 11q5 23 5 60q-1 56 -13 77.5t-45 21.5q-76 0 -85 -170z" />
<glyph unicode="&#xe9;" horiz-adv-x="361" d="M30 224q0 90 14.5 149.5t42 88t55 38.5t65.5 10q127 0 127 -160q0 -80 -11 -130q-81 -16 -210 -16q3 -78 24.5 -107t69.5 -29q60 0 114 32q7 -22 7 -55q0 -23 -40.5 -39t-97.5 -16q-38 0 -65 9.5t-49.5 34t-34 72t-11.5 118.5zM101 605q32 36 79.5 76.5t54.5 40.5 q13 0 23 -19.5t14 -41.5q-12 -13 -63 -50t-77 -51q-8 0 -15.5 11t-11.5 23zM113 269q91 -2 138 11q5 23 5 60q-1 56 -13 77.5t-45 21.5q-76 0 -85 -170z" />
<glyph unicode="&#xea;" horiz-adv-x="361" d="M30 224q0 90 14.5 149.5t42 88t55 38.5t65.5 10q127 0 127 -160q0 -80 -11 -130q-81 -16 -210 -16q3 -78 24.5 -107t69.5 -29q60 0 114 32q7 -22 7 -55q0 -23 -40.5 -39t-97.5 -16q-38 0 -65 9.5t-49.5 34t-34 72t-11.5 118.5zM53 585l115 123q8 3 17 3q13 0 25 -12 q97 -99 97 -115q0 -10 -17 -16.5t-40 -6.5q-53 53 -66 77q-58 -76 -75 -76q-37 0 -56 23zM113 269q91 -2 138 11q5 23 5 60q-1 56 -13 77.5t-45 21.5q-76 0 -85 -170z" />
<glyph unicode="&#xeb;" horiz-adv-x="361" d="M30 224q0 90 14.5 149.5t42 88t55 38.5t65.5 10q127 0 127 -160q0 -80 -11 -130q-81 -16 -210 -16q3 -78 24.5 -107t69.5 -29q60 0 114 32q7 -22 7 -55q0 -23 -40.5 -39t-97.5 -16q-38 0 -65 9.5t-49.5 34t-34 72t-11.5 118.5zM80 632q0 57 44 57q22 0 30.5 -12.5 t8.5 -42.5q-2 -62 -45 -62q-39 2 -38 60zM113 269q91 -2 138 11q5 23 5 60q-1 56 -13 77.5t-45 21.5q-76 0 -85 -170zM198 632q2 57 45 57q22 0 30.5 -12.5t7.5 -42.5q0 -62 -43 -62q-20 1 -30 14.5t-10 45.5z" />
<glyph unicode="&#xec;" horiz-adv-x="175" d="M8 655q4 21 14.5 41t23.5 20q4 0 27 -18t54 -47t52 -53q-12 -45 -31 -45q-27 15 -78 51.5t-62 50.5zM47 0v463q0 26 14 31.5t67 5.5v-484q0 -12 -10 -14t-71 -2z" />
<glyph unicode="&#xed;" horiz-adv-x="175" d="M8 605q32 36 79.5 76.5t54.5 40.5q13 0 23.5 -20t13.5 -41q-12 -13 -63 -50t-77 -51q-8 0 -15.5 11t-11.5 23zM47 0v463q0 26 14 31.5t67 5.5v-484q0 -12 -10 -14t-71 -2z" />
<glyph unicode="&#xee;" horiz-adv-x="175" d="M-39 585l114 123q7 3 17 3q13 0 25 -12q97 -99 97 -115q0 -10 -17 -16.5t-40 -6.5q-53 53 -66 77q-57 -76 -75 -76q-36 0 -55 23zM47 0v463q0 26 14 31.5t67 5.5v-484q0 -12 -10 -14t-71 -2z" />
<glyph unicode="&#xef;" horiz-adv-x="175" d="M-13 632q0 57 44 57q22 0 30.5 -12.5t8.5 -42.5q0 -62 -44 -62q-40 2 -39 60zM47 0v463q0 26 14 31.5t67 5.5v-484q0 -12 -10 -14t-71 -2zM105 632q2 57 45 57q22 0 30.5 -12.5t8.5 -42.5q-2 -62 -44 -62q-40 2 -40 60z" />
<glyph unicode="&#xf0;" horiz-adv-x="408" d="M30 257q0 121 43 186.5t117 65.5q55 0 88 -30q-17 68 -54 123l-95 -37q-18 47 -18 58q0 10 8 14l58 22q-19 20 -52 48q19 37 58 37q19 0 30 -12q20 -16 44 -42l69 27q18 -47 18 -58q0 -10 -8 -13l-35 -14q79 -128 79 -343q0 -67 -7 -116t-24.5 -93t-52.5 -67t-87 -23 q-93 0 -136 61.5t-43 205.5zM112 244q0 -186 95 -186q30 0 49 17t27.5 52t11.5 70t3 89q0 60 -4 101q-31 50 -82 50q-49 0 -74.5 -54t-25.5 -139z" />
<glyph unicode="&#xf1;" horiz-adv-x="383" d="M45 0v476q78 34 159 34q78 0 109 -30.5t31 -103.5v-360q0 -12 -11 -14t-72 -2v352q0 50 -12 69t-48 19q-43 0 -75 -18v-406q0 -12 -10.5 -14t-70.5 -2zM45 612q46 75 113 75q22 0 44.5 -24t42.5 -24q16 0 28 6t17 13.5t10 13.5t10 6q8 0 15 -11t11 -23l3 -11 q-4 -9 -16.5 -23t-38.5 -30.5t-53 -16.5q-29 0 -50 24t-37 24q-20 0 -38 -19.5t-21 -19.5q-10 0 -20 10t-15 20z" />
<glyph unicode="&#xf2;" horiz-adv-x="376" d="M27 250q0 260 167 260q82 0 118.5 -55.5t36.5 -202.5q0 -136 -41.5 -199t-123.5 -63q-42 0 -68.5 9t-48 36t-31 79.5t-9.5 135.5zM115 248q0 -80 9 -122.5t23 -55t39 -12.5q36 0 55.5 42t19.5 152q0 114 -16 152t-54 38q-37 0 -56.5 -42t-19.5 -152zM123 655 q4 21 14.5 41t23.5 20q4 0 27 -18t54.5 -47t52.5 -53q-13 -45 -32 -45q-27 15 -78 51.5t-62 50.5z" />
<glyph unicode="&#xf3;" horiz-adv-x="376" d="M27 250q0 260 167 260q82 0 118.5 -55.5t36.5 -202.5q0 -136 -41.5 -199t-123.5 -63q-42 0 -68.5 9t-48 36t-31 79.5t-9.5 135.5zM115 248q0 -80 9 -122.5t23 -55t39 -12.5q36 0 55.5 42t19.5 152q0 114 -16 152t-54 38q-37 0 -56.5 -42t-19.5 -152zM123 605 q21 24 52.5 52.5t54.5 46.5t27 18q13 0 23.5 -20t14.5 -41q-12 -13 -63 -49.5t-77 -51.5q-8 0 -16 11t-12 23z" />
<glyph unicode="&#xf4;" horiz-adv-x="376" d="M27 250q0 260 167 260q82 0 118.5 -55.5t36.5 -202.5q0 -136 -41.5 -199t-123.5 -63q-42 0 -68.5 9t-48 36t-31 79.5t-9.5 135.5zM76 585l114 123q8 3 17 3q14 0 25 -12q97 -99 97 -115q0 -10 -17 -16.5t-40 -6.5q-53 53 -66 77q-57 -76 -75 -76q-36 0 -55 23zM115 248 q0 -80 9 -122.5t23 -55t39 -12.5q36 0 55.5 42t19.5 152q0 114 -16 152t-54 38q-37 0 -56.5 -42t-19.5 -152z" />
<glyph unicode="&#xf5;" horiz-adv-x="376" d="M27 250q0 260 167 260q82 0 118.5 -55.5t36.5 -202.5q0 -136 -41.5 -199t-123.5 -63q-42 0 -68.5 9t-48 36t-31 79.5t-9.5 135.5zM56 612q46 75 113 75q22 0 44.5 -24t42.5 -24t33 9.5t20 19.5t12 10q8 0 15 -11t10 -23l4 -11q-4 -9 -16.5 -23t-38.5 -30.5t-53 -16.5 q-23 0 -37 12t-25 24t-26 12q-20 0 -37.5 -19.5t-21.5 -19.5q-10 0 -19.5 10t-14.5 20zM115 248q0 -80 9 -122.5t23 -55t39 -12.5q36 0 55.5 42t19.5 152q0 114 -16 152t-54 38q-37 0 -56.5 -42t-19.5 -152z" />
<glyph unicode="&#xf6;" horiz-adv-x="376" d="M27 250q0 260 167 260q82 0 118.5 -55.5t36.5 -202.5q0 -136 -41.5 -199t-123.5 -63q-42 0 -68.5 9t-48 36t-31 79.5t-9.5 135.5zM102 632q0 57 44 57q22 0 30.5 -12.5t8.5 -42.5q0 -62 -44 -62q-20 1 -29.5 14.5t-9.5 45.5zM115 248q0 -80 9 -122.5t23 -55t39 -12.5 q36 0 55.5 42t19.5 152q0 114 -16 152t-54 38q-37 0 -56.5 -42t-19.5 -152zM220 632q2 57 45 57q22 0 30.5 -12.5t8.5 -42.5q-2 -62 -44 -62q-40 2 -40 60z" />
<glyph unicode="&#xf7;" d="M34 247q0 43 2.5 56.5t14.5 13.5h333q0 -43 -2.5 -56.5t-13.5 -13.5h-334zM159 132q0 21 13 36t36 15q50 0 50 -51q0 -22 -13.5 -36.5t-36.5 -14.5q-49 0 -49 51zM159 427q0 21 13 36t36 15q50 0 50 -51q0 -22 -13.5 -36.5t-36.5 -14.5q-49 0 -49 51z" />
<glyph unicode="&#xf8;" horiz-adv-x="412" d="M17 8q0 3 46 84q-15 56 -15 158q0 260 165 260q76 0 110 -42q28 46 34 54q46 -13 46 -33q0 -8 -47 -93q13 -52 13 -144q0 -136 -40.5 -199t-121.5 -63q-80 0 -114 39q-5 -10 -13 -23t-12.5 -21.5t-5.5 -10.5q-16 3 -30.5 12.5t-14.5 21.5zM135 248q0 -30 2 -72l128 228 q-14 36 -54 36q-37 0 -56.5 -41.5t-19.5 -150.5zM150 101q15 -43 57 -43q36 0 55.5 42.5t19.5 151.5q0 46 -3 77q-20 -37 -65.5 -116.5t-63.5 -111.5z" />
<glyph unicode="&#xf9;" horiz-adv-x="389" d="M45 156v328q0 12 10 14t73 2v-351q0 -51 13.5 -70t54.5 -19q40 0 67 19v405q0 12 10.5 14t70.5 2v-474q-67 -36 -150 -36q-86 0 -117.5 39t-31.5 127zM116 655q3 21 13.5 41t23.5 20q7 0 54.5 -41t79.5 -77q-13 -45 -31 -45q-27 15 -77.5 51.5t-62.5 50.5z" />
<glyph unicode="&#xfa;" horiz-adv-x="389" d="M45 156v328q0 12 10 14t73 2v-351q0 -51 13.5 -70t54.5 -19q40 0 67 19v405q0 12 10.5 14t70.5 2v-474q-67 -36 -150 -36q-86 0 -117.5 39t-31.5 127zM116 605q21 24 52 52.5t54 46.5t27 18q13 0 23.5 -20t14.5 -41q-12 -13 -63 -49.5t-77 -51.5q-8 0 -16 11t-11 23z" />
<glyph unicode="&#xfb;" horiz-adv-x="389" d="M45 156v328q0 12 10 14t73 2v-351q0 -51 13.5 -70t54.5 -19q40 0 67 19v405q0 12 10.5 14t70.5 2v-474q-67 -36 -150 -36q-86 0 -117.5 39t-31.5 127zM68 585l114 123q7 3 17 3q15 0 25 -12q98 -99 98 -115q0 -10 -17.5 -16.5t-40.5 -6.5q-53 53 -66 77q-57 -76 -74 -76 q-37 0 -56 23z" />
<glyph unicode="&#xfc;" horiz-adv-x="389" d="M45 156v328q0 12 10 14t73 2v-351q0 -51 13.5 -70t54.5 -19q40 0 67 19v405q0 12 10.5 14t70.5 2v-474q-67 -36 -150 -36q-86 0 -117.5 39t-31.5 127zM94 632q2 57 44 57q22 0 31 -12.5t8 -42.5q0 -62 -44 -62q-20 1 -29.5 14.5t-9.5 45.5zM213 632q0 57 44 57 q22 0 30.5 -12.5t8.5 -42.5q-2 -62 -44 -62q-40 2 -39 60z" />
<glyph unicode="&#xfd;" horiz-adv-x="357" d="M-4 -154q0 28 12 45q22 -15 63 -15q53 0 73 108l-120 494q-4 16 6 19t72 3l55 -240q7 -35 14 -79.5t10 -70.5l3 -27q10 97 24 178l45 216q3 17 14 20t73 3l-123 -527q-22 -94 -53 -130t-87 -36q-81 0 -81 39zM99 605q32 36 79.5 76.5t54.5 40.5q13 0 23 -19.5t14 -41.5 q-12 -13 -63 -50t-77 -51q-8 0 -15.5 11t-11.5 23z" />
<glyph unicode="&#xfe;" horiz-adv-x="384" d="M46 -166v864q0 26 14 31.5t67 5.5v-233q29 7 65 7q81 0 122 -46t41 -163q0 -76 -10.5 -134t-26 -90.5t-37 -53t-40 -26.5t-38.5 -6q-50 0 -76 26v-210q-19 -6 -48 -6q-21 0 -27 6.5t-6 27.5zM127 88q16 -29 51 -29q88 3 88 234q0 89 -18.5 117.5t-59.5 28.5 q-34 0 -61 -21v-330z" />
<glyph unicode="&#xff;" horiz-adv-x="357" d="M-4 -154q0 28 12 45q22 -15 63 -15q53 0 73 108l-120 494q-4 16 6 19t72 3l55 -240q7 -35 14 -79.5t10 -70.5l3 -27q10 97 24 178l45 216q3 17 14 20t73 3l-123 -527q-22 -94 -53 -130t-87 -36q-81 0 -81 39zM78 632q0 57 44 57q22 0 30.5 -12.5t8.5 -42.5 q-2 -62 -45 -62q-39 2 -38 60zM196 632q2 57 45 57q22 0 30.5 -12.5t7.5 -42.5q0 -62 -43 -62q-20 1 -30 14.5t-10 45.5z" />
<glyph unicode="&#x152;" horiz-adv-x="592" d="M27 353q0 193 45 274.5t144 81.5q75 0 113 -41v16q1 16 16 16h227q0 -51 -2 -62t-13 -11h-161v-209h152q0 -49 -2 -61.5t-13 -12.5h-137v-271h172q0 -52 -2 -62.5t-13 -10.5h-224v41q-41 -50 -121 -50q-67 0 -105 31.5t-57 110t-19 220.5zM117 334q0 -143 20.5 -203.5 t73.5 -60.5q54 0 74 64t20 221q0 156 -18 217t-71 61t-76 -68.5t-23 -230.5z" />
<glyph unicode="&#x153;" horiz-adv-x="603" d="M31 250q0 259 165 259q87 0 121 -57q39 58 131 58q127 0 127 -159q0 -81 -11 -131q-81 -16 -210 -16q2 -85 21.5 -110.5t64.5 -25.5q68 0 122 32q7 -22 7 -72q0 -7 -18.5 -16t-51.5 -15.5t-68 -6.5q-91 0 -125 54q-41 -54 -116 -54q-58 0 -89.5 17.5t-50.5 75.5t-19 167z M118 248q0 -80 9 -122.5t23.5 -55t39.5 -12.5q36 0 55.5 42.5t19.5 151.5q0 114 -16 150.5t-55 36.5q-37 0 -56.5 -41t-19.5 -150zM355 269q90 -2 137 11q5 23 5 62q-1 55 -13 76t-45 21q-78 0 -84 -170z" />
<glyph unicode="&#x178;" horiz-adv-x="364" d="M6 687q-3 9 7 11t84 2l40 -137q15 -47 31.5 -117t18.5 -93q2 22 19 92.5t32 117.5l35 122q3 11 14 13t73 2l-135 -412v-272q0 -12 -10 -14t-71 -2v284zM82 832q0 57 44 57q22 0 30.5 -12.5t8.5 -42.5q-2 -62 -45 -62q-39 2 -38 60zM200 832q0 57 45 57q22 0 30.5 -12.5 t7.5 -42.5q0 -62 -43 -62q-20 1 -30 14.5t-10 45.5z" />
<glyph unicode="&#x2c6;" horiz-adv-x="269" d="M8 585l114 123q7 3 17 3q15 0 25 -12q97 -99 97 -115q0 -10 -17 -16.5t-40 -6.5q-53 53 -66 77q-57 -76 -75 -76q-36 0 -55 23z" />
<glyph unicode="&#x2dc;" horiz-adv-x="269" d="M-12 612q46 75 113 75q22 0 44 -24t43 -24q20 0 33 9.5t20 19.5t12 10q8 0 15 -11t10 -23l4 -11q-4 -9 -16.5 -23t-38.5 -30.5t-53 -16.5q-29 0 -54 27q-17 21 -34 21q-20 0 -37.5 -19.5t-21.5 -19.5q-10 0 -19.5 10t-14.5 20z" />
<glyph unicode="&#x2000;" horiz-adv-x="468" />
<glyph unicode="&#x2001;" horiz-adv-x="937" />
<glyph unicode="&#x2002;" horiz-adv-x="468" />
<glyph unicode="&#x2003;" horiz-adv-x="937" />
<glyph unicode="&#x2004;" horiz-adv-x="312" />
<glyph unicode="&#x2005;" horiz-adv-x="234" />
<glyph unicode="&#x2006;" horiz-adv-x="156" />
<glyph unicode="&#x2007;" horiz-adv-x="156" />
<glyph unicode="&#x2008;" horiz-adv-x="117" />
<glyph unicode="&#x2009;" horiz-adv-x="187" />
<glyph unicode="&#x200a;" horiz-adv-x="52" />
<glyph unicode="&#x2010;" horiz-adv-x="278" d="M37 247q0 43 2.5 56.5t14.5 13.5h187q0 -43 -2.5 -56.5t-13.5 -13.5h-188z" />
<glyph unicode="&#x2011;" horiz-adv-x="278" d="M37 247q0 43 2.5 56.5t14.5 13.5h187q0 -43 -2.5 -56.5t-13.5 -13.5h-188z" />
<glyph unicode="&#x2012;" horiz-adv-x="278" d="M37 247q0 43 2.5 56.5t14.5 13.5h187q0 -43 -2.5 -56.5t-13.5 -13.5h-188z" />
<glyph unicode="&#x2013;" horiz-adv-x="424" d="M37 247q0 43 2.5 56.5t14.5 13.5h333q0 -43 -2.5 -56.5t-13.5 -13.5h-334z" />
<glyph unicode="&#x2014;" horiz-adv-x="700" d="M6 247q0 43 2.5 56.5t13.5 13.5h672q0 -43 -2.5 -56.5t-13.5 -13.5h-672z" />
<glyph unicode="&#x2018;" horiz-adv-x="174" d="M34 634q0 50 29 105.5t45 55.5q27 0 32 -23q-21 -40 -25 -96q23 -15 23 -49q0 -22 -14 -37t-36 -15q-54 0 -54 59z" />
<glyph unicode="&#x2019;" horiz-adv-x="174" d="M34 595q21 39 25 97q-23 14 -23 48q0 23 14 37.5t36 14.5q55 0 55 -59q0 -50 -29.5 -105.5t-45.5 -55.5q-25 0 -32 23z" />
<glyph unicode="&#x201a;" horiz-adv-x="170" d="M34 -91q21 38 25 96q-23 14 -23 49q0 22 14 37t36 15q55 0 55 -59q0 -50 -29.5 -105.5t-45.5 -55.5q-25 0 -32 23z" />
<glyph unicode="&#x201c;" horiz-adv-x="324" d="M34 634q0 50 29 105.5t45 55.5q27 0 32 -23q-21 -40 -25 -96q23 -15 23 -49q0 -22 -14 -37t-36 -15q-54 0 -54 59zM184 634q0 50 29 105.5t45 55.5q27 0 32 -23q-21 -38 -25 -96q23 -15 23 -49q0 -22 -14 -37t-36 -15q-54 0 -54 59z" />
<glyph unicode="&#x201d;" horiz-adv-x="324" d="M34 595q21 39 25 97q-23 14 -23 48q0 23 14 37.5t36 14.5q55 0 55 -59q0 -50 -29.5 -105.5t-45.5 -55.5q-25 0 -32 23zM184 595q21 39 25 97q-23 14 -23 48q0 23 14 37.5t36 14.5q55 0 55 -59q0 -50 -29.5 -105.5t-45.5 -55.5q-27 0 -32 23z" />
<glyph unicode="&#x201e;" horiz-adv-x="321" d="M34 -91q21 38 25 96q-23 14 -23 49q0 22 14 37t36 15q55 0 55 -59q0 -50 -29.5 -105.5t-45.5 -55.5q-25 0 -32 23zM184 -91q21 38 25 96q-23 14 -23 49q0 22 14 37t36 15q55 0 55 -59q0 -50 -29.5 -105.5t-45.5 -55.5q-27 0 -32 23z" />
<glyph unicode="&#x2022;" horiz-adv-x="223" d="M41 284q0 32 20 54.5t53 22.5q75 0 75 -77q0 -33 -20.5 -54.5t-54.5 -21.5q-73 0 -73 76z" />
<glyph unicode="&#x2026;" horiz-adv-x="521" d="M36 51q0 24 15 40.5t40 16.5q56 0 56 -57q0 -25 -15 -41t-41 -16q-55 0 -55 57zM205 51q0 24 15 40.5t40 16.5q56 0 56 -57q0 -25 -15 -41t-41 -16q-55 0 -55 57zM375 51q0 24 15 40.5t40 16.5q56 0 56 -57q0 -25 -15 -41t-41 -16q-55 0 -55 57z" />
<glyph unicode="&#x202f;" horiz-adv-x="187" />
<glyph unicode="&#x2039;" horiz-adv-x="247" d="M18 250q0 15 36.5 77.5t73.5 117.5l36 55q14 0 26 -10t17 -20l5 -11q0 -17 -29.5 -69t-58.5 -96l-30 -44q120 -166 120 -203q-2 -5 -5.5 -13t-16 -21t-25.5 -13q-149 214 -149 250z" />
<glyph unicode="&#x203a;" horiz-adv-x="247" d="M33 46q0 16 30 67t60 94l30 43q-118 171 -118 209q0 12 12 22.5t24 14.5l12 4q146 -216 146 -250q0 -16 -37 -78.5t-74 -117.5l-37 -54q-5 1 -13 4.5t-21.5 15t-13.5 26.5z" />
<glyph unicode="&#x205f;" horiz-adv-x="234" />
<glyph unicode="&#x20ac;" d="M16 198q0 39 6 53t26 14h54v9q0 34 3 66h-89q0 38 6 52.5t26 14.5h64q10 61 30 102.5t47 61.5t52 27.5t56 7.5q34 0 57.5 -7.5t32 -16t8.5 -16.5q0 -38 -13 -54q-26 20 -66 20q-90 0 -117 -125h144q0 -39 -6 -53t-26 -14h-121q-2 -38 -2 -63v-12h122q0 -38 -6 -52.5 t-26 -14.5h-87q8 -78 31.5 -103.5t66.5 -25.5q55 0 88 26q12 -22 12 -52q0 -17 -34.5 -34.5t-80.5 -17.5q-38 0 -64 7.5t-49.5 29t-37 63.5t-18.5 107h-89z" />
<glyph unicode="&#x2122;" horiz-adv-x="504" d="M30 661v30q0 4 2 6.5t4 2.5h3h190v-29l-9 -10h-67v-270q0 -7 -5 -8t-36 -1v279h-82zM254 382v309q0 9 10 9h28l44 -127l19 -54q11 36 16 53l41 119q2 9 9 9h32v-309q0 -7 -5.5 -8t-36.5 -1l1 111q1 30 8 117q-4 -11 -10 -31.5t-10 -32.5t-5 -16l-28 -75q-1 -4 -5 -4h-21 l-29 79l-25 81q0 -5 2 -29.5t4 -49.5t2 -38v-103q0 -7 -5.5 -8t-35.5 -1z" />
<glyph unicode="&#xe000;" horiz-adv-x="500" d="M0 0v500h500v-500h-500z" />
<glyph unicode="&#xfb03;" horiz-adv-x="606" d="M10 432q0 48 3 58t18 10h48v69q0 165 157 165q57 0 100 -28q43 33 126 33q114 0 114 -49q0 -25 -8 -47q-44 23 -103 23q-50 0 -76.5 -20t-26.5 -84v-62h70q0 -48 -2.5 -58t-14.5 -10h-53v-416q0 -16 -16 -16h-64v432h-123v-416q0 -16 -16 -16h-64v432h-69zM159 500h123 v61q0 55 15 91q-25 14 -61 14q-77 0 -77 -88v-78zM478 0v463q0 26 14 31.5t67 5.5v-484q0 -12 -10 -14t-71 -2z" />
<glyph unicode="&#xfb04;" horiz-adv-x="616" d="M10 432q0 48 3 58t18 10h48v69q0 165 157 165q53 0 99 -27q37 32 104 32q73 0 130 -33v-690q0 -12 -9.5 -14t-70.5 -2v659q-17 7 -45 7q-17 0 -29 -2.5t-25.5 -11.5t-20.5 -29t-7 -51v-72h70q0 -47 -3 -57.5t-14 -10.5h-53v-416q0 -16 -16 -16h-64v432h-123v-416 q0 -16 -16 -16h-64v432h-69zM159 500h123v61q0 54 14 91q-25 14 -60 14q-77 0 -77 -88v-78z" />
</font>
</defs>
</svg>
