<?xml version="1.0" standalone="no"?>
<!DOCTYPE svg PUBLIC "-//W3C//DTD SVG 1.1//EN" "http://www.w3.org/Graphics/SVG/1.1/DTD/svg11.dtd" >
<svg xmlns="http://www.w3.org/2000/svg">
<metadata></metadata>
<defs>
<font id="sailregular" horiz-adv-x="441" >
<font-face units-per-em="1000" ascent="800" descent="-200" />
<missing-glyph horiz-adv-x="213" />
<glyph horiz-adv-x="1000" />
<glyph horiz-adv-x="1000" />
<glyph unicode="&#xd;" horiz-adv-x="1000" />
<glyph unicode=" "  horiz-adv-x="213" />
<glyph unicode="&#x09;" horiz-adv-x="213" />
<glyph unicode="&#xa0;" horiz-adv-x="213" />
<glyph unicode="!" horiz-adv-x="204" d="M55 42q0 21 14.5 36t35.5 15t36 -15t15 -36t-15 -35.5t-36 -14.5t-35.5 14.5t-14.5 35.5zM111 125l87 489l29 -4l-89 -488z" />
<glyph unicode="&#x22;" horiz-adv-x="289" d="M110 356q2 55 43 151.5t41 157.5h43q0 -54 -42.5 -158.5t-42.5 -150.5h-42zM240 356q2 55 43 151.5t41 157.5h43q0 -54 -42.5 -158.5t-42.5 -150.5h-42z" />
<glyph unicode="#" horiz-adv-x="585" d="M40 61l4 25h164l33 187h-163l4 25h163l42 225h30l-42 -225h143l42 225h30l-42 -225h160l-4 -25h-160l-33 -187h159l-4 -25h-160l-37 -204h-30l37 204h-143l-37 -204h-30l37 204h-163zM238 86h142l33 187h-142z" />
<glyph unicode="$" horiz-adv-x="707" d="M84 -26q0 68 47.5 120.5t124.5 52.5q58 0 95.5 -29t37.5 -81q0 -43 -27.5 -78t-68.5 -35q-47 0 -73 28q-13 13 -19.5 31t-7.5 28.5t0 12.5l19 -1q-1 -35 22 -58q20 -21 59 -21q33 0 55 28.5t22 64.5q0 44 -32 67.5t-82 23.5q-69 0 -111 -46.5t-42 -107.5q0 -70 54 -116 q32 -28 65.5 -40t89.5 -12q105 0 163.5 43t58.5 114q0 51 -25.5 90t-63.5 64.5t-77.5 50.5t-73.5 63t-45 86q-91 27 -120 113q-22 67 0.5 144t74.5 116l11 -16q-47 -34 -67.5 -105.5t-0.5 -132.5q24 -73 99 -98q-2 11 -2 34q0 111 69.5 187t179.5 98l19 107h30l-17 -102 q45 3 46 3q81 0 135.5 -42t54.5 -115q0 -60 -42 -105.5t-113 -45.5q-38 0 -64 15q-52 -39 -121 -56q20 -19 93.5 -70t110 -97.5t36.5 -108.5q0 -111 -85.5 -182t-228.5 -74l-14 -77h-30l14 78q-100 4 -166.5 53t-66.5 136zM404 329q67 15 124 54q-46 41 -46 111 q0 44 22.5 73t61.5 29q67 0 67 -73q0 -74 -73 -139q22 -10 46 -10q62 0 99 40.5t37 93.5q0 64 -49 101t-122 37q-78 0 -133.5 -39t-75 -90.5t-9.5 -105.5t51 -82zM502 494q0 -65 41 -99q30 21 50 57t20 71q0 55 -48 55q-30 0 -46.5 -23t-16.5 -61z" />
<glyph unicode="%" horiz-adv-x="572" d="M70 237q0 66 49.5 109.5t93.5 43.5v-18q-28 0 -50.5 -43t-22.5 -95q0 -57 44 -57q30 0 61.5 35t31.5 76q0 22 -9.5 35t-25.5 13q-23 0 -32 -12q-6 -7 -9.5 -18.5t-4.5 -19.5v-8h-17q0 37 18 58q19 17 45 17q24 0 38 -17.5t14 -47.5q0 -47 -40.5 -92.5t-101.5 -45.5 q-35 0 -58.5 25t-23.5 62zM194 -32l233 466l26 -10l-233 -466zM346 79q0 66 49.5 109.5t93.5 43.5v-18q-28 0 -50.5 -43t-22.5 -95q0 -57 44 -57q30 0 61.5 35t31.5 76q0 22 -9.5 35t-25.5 13q-23 0 -32 -12q-6 -7 -9.5 -18.5t-4.5 -19.5v-8h-17q0 37 18 58q19 17 45 17 q24 0 38 -17.5t14 -47.5q0 -47 -40.5 -92.5t-101.5 -45.5q-35 0 -58.5 25t-23.5 62z" />
<glyph unicode="&#x26;" horiz-adv-x="711" d="M55 112q0 70 45.5 113t107.5 60q-45 55 -45 124q0 82 60.5 141t174.5 59q87 0 133.5 -30.5t46.5 -80.5q0 -41 -23.5 -88.5t-26.5 -75.5h-21q3 30 26.5 77t23.5 86q0 42 -42.5 68t-100.5 26q-73 0 -119 -50.5t-46 -154.5q0 -28 3.5 -48t7.5 -26l3 -6q52 17 117 17 q73 0 73 -40q0 -24 -26 -39.5t-75 -15.5q-77 0 -124 37q-18 -19 -28 -32t-22.5 -50t-12.5 -84q0 -57 44 -95.5t92 -38.5q41 0 76.5 13.5t59 32t43 43t28.5 42t16 33.5q-78 1 -164 31h-1l8 17q81 -30 166 -30q92 0 151 60.5t59 154.5h18q0 -100 -59.5 -164t-155.5 -69 q-7 -17 -16 -34.5t-31.5 -46t-49.5 -50t-71.5 -37.5t-95.5 -16q-107 0 -167 45.5t-60 121.5zM271 289q2 -5 7 -12t25.5 -19t48.5 -12q40 0 60.5 10.5t20.5 24.5q0 24 -53 24q-55 0 -109 -16z" />
<glyph unicode="'" horiz-adv-x="159" d="M110 356q2 55 43 151.5t41 157.5h43q0 -54 -42.5 -158.5t-42.5 -150.5h-42z" />
<glyph unicode="(" horiz-adv-x="396" d="M70 144q0 181 117 298t307 117v-21q-22 0 -60 -4q-35 -11 -66.5 -28.5t-65.5 -53t-58 -82.5t-40 -120.5t-16 -163.5q0 -150 97 -198q24 -3 50 -3v-20q-126 0 -195.5 73t-69.5 206z" />
<glyph unicode=")" horiz-adv-x="391" d="M-28 -114q22 0 60 4q35 11 66.5 28.5t65.5 53t58 82.5t40 120.5t16 163.5q0 150 -97 198q-24 3 -50 3v20q126 0 195.5 -73t69.5 -206q0 -181 -117 -298t-307 -117v21z" />
<glyph unicode="*" horiz-adv-x="315" d="M119 492l14 41l82 -35l-15 87l42 9l9 -93l69 62l28 -32l-74 -55l86 -28l-14 -41l-84 35l18 -87l-42 -9l-11 93l-68 -62l-29 32l75 54z" />
<glyph unicode="+" horiz-adv-x="434" d="M59 188l4 25h173l32 176h30l-32 -176h180l-4 -25h-180l-31 -170h-30l31 170h-173z" />
<glyph unicode="," horiz-adv-x="239" d="M30 -95q45 15 76.5 37.5t40.5 37.5l9 16q-9 -4 -23 -4q-30 0 -51 21t-21 51t21 51.5t51 21.5t51.5 -21.5t21.5 -51.5q0 -49 -43.5 -103t-123.5 -77z" />
<glyph unicode="-" horiz-adv-x="497" d="M90 184l2 18h383l-2 -18h-383z" />
<glyph unicode="." horiz-adv-x="237" d="M61 64q0 30 21 51.5t51 21.5t51.5 -21.5t21.5 -51.5t-21.5 -51t-51.5 -21t-51 21t-21 51z" />
<glyph unicode="/" horiz-adv-x="312" d="M23 -32l351 699l26 -10l-351 -699z" />
<glyph unicode="0" horiz-adv-x="444" d="M66 137q0 59 26 110t64 82.5t78 49.5t71 18v-21q-50 0 -88 -75t-38 -168q0 -105 80 -105q55 0 111 62t56 137q0 40 -18 63.5t-49 23.5q-39 0 -57 -23q-12 -12 -18.5 -31.5t-7.5 -33.5v-13h-20q0 58 31 91q27 29 72 29q40 0 63 -28.5t23 -77.5q0 -80 -69 -158t-171 -78 q-60 0 -99.5 41.5t-39.5 104.5z" />
<glyph unicode="1" horiz-adv-x="290" d="M54 0l118 339l-71 -15l-5 20l223 45l-147 -389h-118z" />
<glyph unicode="2" horiz-adv-x="400" d="M29 -4v20q38 26 155 96q72 46 92 77t20 81q0 35 -20.5 58.5t-53.5 23.5q-27 0 -55 -22t-41.5 -40.5t-15.5 -23.5l-16 10q6 11 15.5 23.5t32.5 36t61 38.5t84 15q108 0 108 -93q0 -53 -46 -95t-160 -111h193l-34 -94h-319z" />
<glyph unicode="3" horiz-adv-x="372" d="M-3 -73l21 -1q0 -38 26.5 -55t64.5 -17q65 0 100.5 45.5t35.5 119.5q0 46 -14.5 72.5t-38.5 26.5l-28 -2l-6 20q38 13 57.5 21.5t40 25t29 40.5t8.5 59q0 36 -21.5 54.5t-47.5 17.5q-23 0 -47.5 -17.5t-36 -31.5t-13.5 -19l-17 9q2 4 7 11.5t20 23t34 28t50 22t66 9.5 q46 0 71.5 -21.5t25.5 -61.5q0 -55 -48.5 -97.5t-114.5 -69.5q49 -4 77 -26q37 -29 37 -88q0 -82 -69.5 -136.5t-156.5 -54.5q-112 0 -112 93z" />
<glyph unicode="4" horiz-adv-x="433" d="M6 24v20l451 375l-107 -301h81l-34 -94h-80l-65 -183l-22 2l63 181h-287zM128 118h199l85 237z" />
<glyph unicode="5" horiz-adv-x="363" d="M-4 -147q112 0 169.5 44t57.5 148q0 138 -121 138h-33l88 206h258l-34 -94h-242l-41 -96h23q96 0 145 -41q45 -37 45 -105q0 -58 -28 -102t-75 -68.5t-100.5 -36.5t-111.5 -12v19z" />
<glyph unicode="6" horiz-adv-x="460" d="M71 137q0 84 43 161.5t110 130.5t147 85.5t155 36.5v-20q-74 -6 -137 -29.5t-116.5 -69t-84 -122.5t-30.5 -179q0 -106 86 -106q68 0 122.5 58t54.5 136q0 46 -24 71t-67 25q-46 0 -77 -31l-14 14q37 37 91 37q52 0 81 -30.5t29 -85.5q0 -35 -15 -72.5t-43 -72 t-75.5 -56.5t-105.5 -22q-130 0 -130 141z" />
<glyph unicode="7" horiz-adv-x="370" d="M48 223l81 166h319l-353 -553l-18 10l283 445h-257l-37 -75z" />
<glyph unicode="8" horiz-adv-x="438" d="M56 100q0 36 17 67.5t40 51t47.5 33.5t40 20t17.5 6l5 -18q-42 -10 -65 -46.5t-23 -90.5q0 -45 30.5 -71.5t68.5 -23.5q57 0 87 36.5t30 84.5q0 22 -14 44t-27 34t-43 35q-30 22 -47.5 38t-33.5 43.5t-16 57.5q0 58 50.5 104t129.5 46q130 0 130 -99q0 -66 -54 -108 t-123 -58l-4 17q68 18 114 56.5t46 85.5q0 44 -26.5 65t-82.5 21q-68 0 -113.5 -40t-45.5 -90q0 -27 14.5 -51t30 -38t44.5 -35q30 -23 45.5 -37t30.5 -39t15 -52q0 -68 -49.5 -110.5t-128.5 -42.5q-69 0 -103 33t-34 71z" />
<glyph unicode="9" horiz-adv-x="439" d="M-11 -140q54 14 89.5 24.5t77.5 27.5t68 36t53 48t41.5 64.5t24 84.5t9.5 109q0 61 -28.5 84t-69.5 22q-71 -20 -111 -78t-40 -115q0 -25 7.5 -44.5t18 -29.5t24.5 -16t23 -7.5t17 -1.5q19 0 37 7.5t27 14.5t9 8l13 -15q-34 -34 -86 -34q-46 0 -78.5 29t-32.5 89 q0 86 65.5 154t169.5 68q61 0 95.5 -39t34.5 -107q0 -12 -1.5 -27.5t-11.5 -48.5t-26.5 -65t-51 -71.5t-80 -73t-119 -65t-163.5 -51.5z" />
<glyph unicode=":" horiz-adv-x="270" d="M76 64q0 30 21 51.5t51 21.5t51.5 -21.5t21.5 -51.5t-21.5 -51t-51.5 -21t-51 21t-21 51zM116 316q0 30 21 51.5t51 21.5t51.5 -21.5t21.5 -51.5t-21.5 -51t-51.5 -21t-51 21t-21 51z" />
<glyph unicode=";" horiz-adv-x="271" d="M45 -95q45 15 76.5 37.5t40.5 37.5l9 16q-9 -4 -23 -4q-30 0 -51 21t-21 51t21 51.5t51 21.5t51.5 -21.5t21.5 -51.5q0 -49 -43.5 -103t-123.5 -77zM116 316q0 30 21 51.5t51 21.5t51.5 -21.5t21.5 -51.5t-21.5 -51t-51.5 -21t-51 21t-21 51z" />
<glyph unicode="&#x3c;" horiz-adv-x="282" d="M67 193l5 26q19 6 36 13t60.5 26t72.5 43.5t34 48.5h21q-6 -33 -45 -64t-78 -49t-83 -32q28 -11 52 -23.5t49 -31t37.5 -41.5t6.5 -47h-21q12 58 -112 116q-15 7 -33 14z" />
<glyph unicode="=" horiz-adv-x="498" d="M82 137l2 18h383l-2 -18h-383zM102 246l2 18h383l-2 -18h-383z" />
<glyph unicode="&#x3e;" horiz-adv-x="282" d="M59 62q6 33 45 64t78 49t83 32q-28 11 -52 23.5t-49 31t-37.5 41.5t-6.5 47h21q-12 -58 112 -116q15 -7 33 -14l2 -1l-5 -26q-19 -6 -36 -13t-60.5 -26t-72.5 -43.5t-34 -48.5h-21z" />
<glyph unicode="?" horiz-adv-x="463" d="M96 399q17 88 82 147.5t157 59.5q77 0 119.5 -40.5t42.5 -105.5q0 -24 -6 -48q-13 -52 -43.5 -90.5t-79.5 -80.5q-73 -64 -105 -126l-24 12q31 66 111 132q88 71 114 155q4 17 4 38q0 58 -34.5 92t-102.5 34q-82 0 -136.5 -52t-69.5 -127h-29zM180 42q0 21 14.5 36 t35.5 15t36 -15t15 -36t-15 -35.5t-36 -14.5t-35.5 14.5t-14.5 35.5z" />
<glyph unicode="@" horiz-adv-x="641" d="M83 194q0 181 117 298t307 117q166 0 166 -130q0 -51 -53.5 -154t-53.5 -157q0 -39 28 -39q21 1 35 19l10 -8q-20 -25 -52 -25q-75 0 -80 73q-15 -38 -38 -55.5t-61 -17.5q-45 0 -72.5 27.5t-27.5 78.5q0 78 38 122.5t100 44.5q80 0 99.5 -42.5t7.5 -135.5q8 53 33 100.5 t44.5 86.5t19.5 81q0 110 -143 110q-83 0 -145.5 -40t-96 -105.5t-49 -136.5t-15.5 -146q0 -108 47 -166.5t120 -58.5q67 0 129 41l9 -21q-64 -40 -158 -40q-126 0 -195.5 73t-69.5 206zM386 205q0 -66 40 -66q23 0 40.5 24.5t21.5 46.5q31 155 -28 155q-36 0 -55 -42 t-19 -118z" />
<glyph unicode="A" horiz-adv-x="1149" d="M53 124q0 111 71 197t191 86q106 0 165 -67q14 -18 20 -27q54 -23 123 -76q52 -42 77 -58q7 13 20.5 37t17.5 31q25 46 38 69t39 65t42.5 63.5t44 54t50 48.5t54.5 34t62.5 23t68 4t77.5 -12l-5 -19q-24 7 -51 10q-100 -393 -115 -628q13 0 25.5 7t18.5 14l6 7l15 -12 q-3 -4 -8 -10t-24.5 -16t-42.5 -10q-112 0 -112 97q0 30 7 89q-48 -15 -86 -15q-67 0 -134 41q-39 -67 -73 -114.5t-79.5 -92.5t-100 -68t-117.5 -23q-138 0 -216 84q-69 77 -69 187zM73 124q0 -114 74 -182.5t191 -68.5q59 0 111 22.5t95.5 66t76 89.5t70.5 111 q-34 22 -80 59q-51 40 -96 63q17 -42 17 -87q0 -74 -42.5 -131t-114.5 -57q-47 0 -76.5 28t-29.5 63q0 25 9 44.5t20.5 29.5t25 16.5t21 8t9.5 1.5l2 -20q-6 0 -19 -4t-30.5 -24t-17.5 -52q0 -28 23.5 -49.5t62.5 -21.5q64 0 101 50t37 118q0 54 -25 99q-55 21 -109 21 q-104 0 -147 -97l-19 6l1 1q5 12 12.5 24t26.5 35t52 37t74 14q45 0 89 -13l-2 3q-55 60 -151 60q-111 0 -176.5 -80t-65.5 -183zM718 168q107 -63 213 -21q24 169 90 420q-40 -19 -76 -51.5t-71.5 -83.5t-57.5 -88.5t-60 -106.5z" />
<glyph unicode="B" horiz-adv-x="980" d="M82 310q0 143 149.5 221t422.5 78q155 0 227 -47t72 -128q0 -68 -46.5 -122t-130.5 -80q184 -21 184 -129q0 -56 -39.5 -93.5t-104.5 -53.5t-117 -21.5t-109 -5.5v20q133 -9 195 33.5t62 112.5q0 40 -24.5 71.5t-48.5 43.5l-25 12q-32 -7 -72 -7v20q96 0 175 55t79 144 q0 74 -69.5 114.5t-198.5 41.5q-55 -372 -84 -512q-20 -108 -100 -169.5t-171 -61.5v19q70 6 87.5 28.5t34.5 118.5q2 12 3 19l96 553q-205 -17 -316.5 -88.5t-111.5 -186.5q0 -52 36 -88q25 -24 66 -36.5t67.5 -14t28.5 0.5v-21q-118 0 -175 56q-42 39 -42 103z" />
<glyph unicode="C" horiz-adv-x="644" d="M92 194q0 181 117 298t307 117q88 0 127 -31.5t39 -98.5q0 -45 -44 -111q-40 -64 -40 -100h-22q0 20 8 43t14 33t22 36q39 59 39 97q0 22 -4.5 38t-17.5 34.5t-44 28.5t-77 10q-22 0 -60 -4q-35 -11 -66.5 -28.5t-65.5 -53t-58 -82.5t-40 -120.5t-16 -163.5 q0 -150 97 -198q24 -3 50 -3q53 0 97 15t68 37t41 44t23 37l5 15l20 -8q-2 -7 -6 -17.5t-22.5 -38t-44 -48.5t-74 -38.5t-107.5 -17.5q-126 0 -195.5 73t-69.5 206z" />
<glyph unicode="D" horiz-adv-x="970" d="M105 293q0 78 44 146.5t136 112.5q-66 56 -174 74l4 19q121 -22 189 -85q121 49 293 49q177 0 277 -79.5t100 -221.5q0 -71 -25 -136.5t-72.5 -120t-127 -87.5t-179.5 -33q-67 0 -125 16q-69 -49 -147 -49v19q39 1 56.5 10.5t30.5 40.5q-52 23 -91 58.5t-52.5 57.5 t-13.5 26l18 7q0 -4 12.5 -24t49 -53.5t84.5 -54.5q14 35 23 87l89 514q-104 -8 -184 -41q76 -81 67 -196q-7 -77 -52.5 -128t-108.5 -51q-57 0 -89 36.5t-32 86.5zM124 293q0 -41 26.5 -72.5t75.5 -31.5q56 0 96 46t46 117q11 106 -68 185q-90 -41 -133 -105.5t-43 -138.5z M464 -39q53 -12 106 -12q95 0 171 31.5t121.5 83.5t69 114.5t23.5 129.5q0 125 -86 199t-240 82q-49 -331 -77 -476q-18 -92 -88 -152z" />
<glyph unicode="E" horiz-adv-x="563" d="M65 112q0 70 45.5 113t107.5 60q-45 55 -45 124q0 82 60.5 141t174.5 59q87 0 133.5 -30.5t46.5 -80.5q0 -41 -23.5 -88.5t-26.5 -75.5h-21q3 30 26.5 77t23.5 86q0 42 -42.5 68t-100.5 26q-73 0 -119 -50.5t-46 -154.5q0 -28 3.5 -48t7.5 -26l3 -6q52 17 117 17 q73 0 73 -40q0 -24 -26 -39.5t-75 -15.5q-77 0 -124 37q-18 -19 -28 -32t-22.5 -50t-12.5 -84q0 -57 44 -95.5t92 -38.5q47 0 88 18t65 42t42.5 52.5t24.5 43.5t8 22l20 -5q0 -3 -7.5 -21t-27.5 -47.5t-48 -57t-77 -47.5t-107 -20q-107 0 -167 45.5t-60 121.5zM281 289 q2 -5 7 -12t25.5 -19t48.5 -12q40 0 60.5 10.5t20.5 24.5q0 24 -53 24q-55 0 -109 -16z" />
<glyph unicode="F" horiz-adv-x="870" d="M82 311q0 142 150.5 220t423.5 78q143 0 201 -31t58 -89q0 -46 -29 -93.5t-70 -98.5t-56 -86h53l-2 -18h-58q-8 -26 -8 -47h-21q0 24 6 47h-127l-21 -117q-21 -108 -101 -169.5t-172 -61.5v20q68 1 87.5 29t38.5 137l27 162h-51l2 18h52l65 373q-205 -17 -316 -87.5 t-111 -185.5q0 -58 35 -90q25 -24 65.5 -36.5t67 -14t28.5 0.5l1 -21h-6q-112 0 -170 56q-42 39 -42 105zM606 211h131q15 38 55 89.5t69.5 98.5t29.5 90q0 100 -227 100q-41 -283 -58 -378z" />
<glyph unicode="G" horiz-adv-x="654" d="M92 194q0 181 117 298t307 117q88 0 127 -31.5t39 -98.5q0 -45 -44 -111q-40 -64 -40 -100h-22q0 20 8 43t14 33t22 36q39 59 39 97q0 22 -4.5 38t-17.5 34.5t-44 28.5t-77 10q-22 0 -60 -4q-35 -11 -66.5 -28.5t-65.5 -53t-58 -82.5t-40 -120.5t-16 -163.5 q0 -150 97 -198q24 -3 50 -3q52 0 95.5 11.5t70.5 29t38.5 28t18.5 18.5q6 22 16.5 70.5t16.5 73.5l21 -5q-8 -31 -19.5 -83t-17 -74.5t-16 -58t-20.5 -52t-26.5 -36.5t-37.5 -31t-49 -19l-4 21q51 11 79 49.5t48 108.5q-81 -73 -214 -73q-126 0 -195.5 73.5t-69.5 207.5z " />
<glyph unicode="H" horiz-adv-x="993" d="M20 57l22 -3q-9 -112 53 -180q59 -66 160 -66q91 0 130 51t71 179q39 162 125 515q-79 34 -173 34q-91 0 -148.5 -59t-57.5 -154h-22q0 104 64 169.5t164 65.5q80 0 173 -31q107 -39 232 -39v-21q-75 0 -120 7q-1 -4 -7.5 -33.5t-21.5 -97.5t-38 -163h268l102 434h21 l-140 -601q-9 -37 -9 -50q0 -42 39 -42q14 0 26 7t17 15l6 7l14 -12q-2 -4 -6.5 -10t-20.5 -16t-36 -10q-31 0 -45.5 17t-14.5 41l12 66l31 136h-269q-3 -12 -9 -37.5t-9 -39.5q-15 -63 -30.5 -110t-42.5 -97t-60.5 -81.5t-84 -52t-112.5 -20.5q-55 0 -107 22t-87 61 q-70 80 -59 199z" />
<glyph unicode="I" horiz-adv-x="611" d="M90 369q0 240 207 240q67 0 189 -51t186 -51v-23q-26 0 -59 7q-3 -1 -7.5 -4.5t-19.5 -21t-29.5 -43.5t-35.5 -77t-39 -117h108l-2 -18h-111q-7 -23 -16 -63q-41 -179 -86.5 -255.5t-133.5 -76.5q-26 0 -44.5 3t-23.5 6l-5 3l10 21q14 -14 69 -14q7 0 23 2l71 308 q3 13 9 37t7 29h-109l2 18h111q39 147 77.5 214.5t90.5 74.5q-12 5 -53.5 23t-60 25t-51.5 15t-61 8q-95 0 -142.5 -52t-47.5 -167h-23z" />
<glyph unicode="J" horiz-adv-x="725" d="M15 40h23q-8 -106 55 -177t166 -71q28 0 51 11t42 34.5t34 51.5t29 71.5t25 84t24 99.5q9 42 16 66h-110l2 18h112q23 89 45.5 145.5t47.5 87.5t55 40q-22 8 -45.5 20.5t-42.5 23t-40.5 21t-48.5 16.5t-58 6q-87 0 -142 -57t-55 -147h-21q0 99 61 162t157 63q35 0 67 -8 t47.5 -16t46.5 -25q36 -20 57 -29.5t66.5 -20t100.5 -10.5v-21q-32 0 -59 3q-8 -8 -20 -24.5t-41 -80t-56 -149.5h106l-2 -18h-109q-17 -55 -26 -93q-18 -77 -39 -131.5t-56.5 -107t-91 -80t-129.5 -27.5q-117 0 -185 80t-59 189z" />
<glyph unicode="K" horiz-adv-x="1078" d="M20 57l22 -3q-9 -112 53 -180q59 -66 160 -66q91 0 130 51t71 179q39 162 125 515q-79 34 -173 34q-91 0 -148.5 -59t-57.5 -154h-22q0 104 64 169.5t164 65.5q80 0 173 -31q107 -39 232 -39v-21q-75 0 -120 7q-23 -112 -90 -389q-15 -63 -30.5 -110t-42.5 -97 t-60.5 -81.5t-84 -52t-112.5 -20.5q-55 0 -107 22t-87 61q-70 80 -59 199zM654 177l143 186q73 95 154.5 153.5t183.5 61.5q15 45 15 87h23q0 -57 -42.5 -160.5t-42.5 -148.5h-22q0 24 6.5 51.5t14 47t21 51t19.5 48.5q-158 -9 -319 -219q-36 -44 -66 -86 q95 -198 139.5 -279.5t74.5 -112.5t67 -31q31 0 55.5 19.5t34.5 52.5h25q-32 -104 -157 -104q-79 0 -130 37.5t-87 113.5z" />
<glyph unicode="L" horiz-adv-x="650" d="M-77 -70q0 35 28.5 56.5t85.5 21.5q78 0 140 -58q12 37 20 82l67 387q12 75 39 126t65.5 76t77 35t85.5 10q85 0 141.5 -51t56.5 -161h-24q0 89 -42.5 135.5t-107.5 46.5q-119 0 -141 -148q0 -3 -8 -56t-25.5 -155t-37.5 -199q-21 -117 -112 -181q3 -3 18 -17t19.5 -17.5 t18.5 -14t24 -13.5t27 -8.5t36 -7.5t43 -2q39 0 72 17.5t52 39t35 50.5t20.5 42t7.5 23v1l24 -8q-26 -85 -82.5 -135t-131.5 -50q-25 0 -46 1.5t-39.5 8.5t-28.5 9.5t-26.5 15t-20 15t-21.5 20t-19 18.5q-64 -38 -141 -38q-71 0 -110 23.5t-39 59.5zM-53 -70 q0 -29 32.5 -46.5t92.5 -17.5q28 0 62 8q20 18 35 54q-32 30 -61 45.5t-69 15.5q-43 0 -67.5 -15.5t-24.5 -43.5z" />
<glyph unicode="M" horiz-adv-x="1336" d="M23 96l20 -2q-11 -102 49 -168q30 -33 73.5 -52t90.5 -19q49 0 86.5 9.5t71.5 30.5t68 62t69 96.5t81 142.5l180 327q-49 1 -93 7.5t-66 12t-57 16.5q-89 29 -162 29q-84 0 -137 -55t-53 -142h-20q0 96 58.5 156.5t151.5 60.5q35 0 67.5 -4.5t51 -9.5t49.5 -15 q38 -12 61.5 -18t70 -12t102.5 -6l42 -540l20 28q211 290 326 414.5t186 124.5v-20q-31 0 -79 -34q-7 -22 -47 -152.5t-67 -214.5q-30 -93 -34 -161t20 -104q21 0 39.5 8.5t27.5 17.5l8 8l13 -17q-4 -4 -11 -10.5t-30.5 -17t-49.5 -10.5q-52 0 -85 22.5t-45.5 62.5t-9 92 t22.5 115l45 148q-59 -74 -191.5 -255t-149.5 -204l-18 5l-39 484l-80 -146q-114 -215 -190.5 -283.5t-203.5 -68.5q-108 0 -179 77q-66 74 -54 184z" />
<glyph unicode="N" horiz-adv-x="1287" d="M21 90l19 -3q-9 -96 46 -159q59 -67 157 -67q122 0 214 80t198 278l170 310q-103 2 -205 35q-82 26 -154 26q-80 0 -130.5 -52t-50.5 -135h-19q0 91 56 149t144 58q70 0 160 -28q111 -33 226 -33l160 -435q41 65 85.5 140.5t70 121t56 92.5t55 72t56 40.5t68.5 15.5v-20 q-39 0 -71.5 -20.5t-68 -69t-64.5 -97.5t-81 -138.5t-97 -159.5q29 -71 43 -99q29 -56 52.5 -80t60.5 -24q20 0 36.5 7.5t26 18t16 21.5t8.5 19l3 7h22q-1 -4 -2.5 -11t-11.5 -25t-25 -32t-45.5 -25t-69.5 -11q-84 0 -136 41.5t-88 125.5l-139 369l-101 -184 q-109 -204 -204 -286t-224 -82q-103 0 -171 73q-62 69 -51 176z" />
<glyph unicode="O" horiz-adv-x="748" d="M89 174q0 179 114 304t284 132l1 -20q-65 -2 -116.5 -32.5t-83 -77t-52 -108t-28.5 -119.5t-8 -117q0 -110 52.5 -162t119.5 -52q91 0 173.5 60.5t129.5 152t47 184.5q0 99 -43 153.5t-122 54.5q-95 0 -149 -66t-54 -155q0 -39 12 -68t27 -43t34 -23t28.5 -10.5 t14.5 -1.5l-1 -20q-4 0 -15 2t-33 12t-40 26t-32.5 49t-14.5 77q0 97 59.5 168.5t163.5 71.5q87 0 136 -60t49 -167q0 -75 -29.5 -150.5t-80 -135.5t-126 -98t-160.5 -38q-121 0 -189 73.5t-68 203.5z" />
<glyph unicode="P" horiz-adv-x="960" d="M105 310q0 127 119 203.5t340 91.5q47 105 175 105v-26q-25 -3 -34.5 -20t-16.5 -55q83 -1 142.5 -20.5t90.5 -51.5t45 -67t14 -76q0 -63 -23.5 -114.5t-59.5 -84.5t-88 -57.5t-101 -37t-106 -20.5v-2q-21 -117 -112 -181q41 -37 90 -58t126 -21v-22q-83 0 -136.5 23.5 t-97.5 65.5q-64 -38 -141 -38q-71 0 -110 23.5t-39 59.5q0 35 28.5 56.5t85.5 21.5q78 0 140 -58q12 37 20 82l6 37h-42v22h46l76 434q5 37 14 60q-207 -16 -319.5 -87.5t-112.5 -187.5q0 -52 36 -88q25 -24 66 -36.5t67.5 -14t28.5 0.5v-21q-118 0 -175 56q-42 39 -42 103z M206 -70q0 -27 32 -45.5t76 -18.5q46 0 72.5 13t41.5 49q-32 30 -61 45.5t-69 15.5q-43 0 -67.5 -15.5t-24.5 -43.5zM607 103q347 50 347 291q0 88 -66.5 141t-201.5 55q-37 -272 -79 -487z" />
<glyph unicode="Q" horiz-adv-x="779" d="M10 -223q0 52 64.5 90t156.5 38q95 0 206 -44q131 97 217.5 228.5t86.5 255.5q0 118 -63 181.5t-181 63.5q-49 0 -97 -25.5t-92 -76.5t-71 -142.5t-27 -209.5q0 -42 8.5 -72.5t19 -44.5t28 -22t27 -9t23.5 -1q60 0 111.5 66t51.5 156q0 68 -36 104q-10 9 -21.5 16 t-21.5 10t-19 4.5t-13 2.5h-5v20q54 0 94 -39q42 -42 42 -118q0 -98 -60 -174t-163 -76q-92 0 -142 55t-50 155q0 57 15 116.5t48.5 118t80.5 104t117 74t152 28.5q125 0 194 -69.5t69 -195.5t-85.5 -258.5t-217.5 -233.5q36 -15 99 -48t105.5 -49t81.5 -16q29 0 54.5 9 t40.5 21t26 26t15 21.5t5 10.5l19 -5q-43 -117 -251 -117q-60 0 -118 13.5t-89.5 27t-84.5 39.5q-138 -80 -257 -80q-47 0 -70 20.5t-23 50.5zM33 -223q0 -23 20 -37t55 -14q106 0 231 71q-116 56 -202 56q-40 0 -72 -20t-32 -56z" />
<glyph unicode="R" horiz-adv-x="956" d="M82 310q0 143 149.5 221t422.5 78q170 0 241.5 -46t71.5 -129q0 -76 -54.5 -133t-143.5 -88q130 -270 167 -324.5t89 -54.5q31 0 55.5 19.5t34.5 52.5h25q-32 -104 -157 -104q-79 0 -130.5 37.5t-86.5 113.5l-108 234q-40 -4 -59 -4q-3 -15 -9 -51t-10 -54 q-20 -108 -100.5 -169.5t-171.5 -61.5v19q62 3 84 32t41 134l96 553q-205 -17 -316.5 -88.5t-111.5 -186.5q0 -52 36 -88q25 -24 66 -36.5t67.5 -14t28.5 0.5v-21q-118 0 -175 56q-42 39 -42 103zM603 205q142 4 240 71.5t98 157.5q0 153 -278 156z" />
<glyph unicode="S" horiz-adv-x="710" d="M81 -26q0 68 47.5 120.5t124.5 52.5q58 0 95.5 -29t37.5 -81q0 -43 -27.5 -78t-68.5 -35q-47 0 -73 28q-13 13 -19.5 31t-7.5 28.5t0 12.5l19 -1q-1 -35 22 -58q19 -21 59 -21q33 0 55 28.5t22 64.5q0 44 -32 67.5t-82 23.5q-69 0 -111 -46.5t-42 -107.5q0 -70 54 -116 q32 -28 65.5 -40t89.5 -12q105 0 163.5 43t58.5 114q0 51 -25.5 90t-63.5 64.5t-77.5 50.5t-73.5 63t-45 86q-91 27 -120 113q-22 67 0.5 144t74.5 116l11 -16q-47 -34 -67.5 -105.5t-0.5 -132.5q24 -73 99 -98q-2 11 -2 34q0 131 95 212t232 81q81 0 135.5 -42t54.5 -115 q0 -60 -42 -105.5t-113 -45.5q-39 0 -64 15q-51 -39 -121 -56q20 -19 93.5 -70t110 -97.5t36.5 -108.5q0 -114 -88.5 -185t-235.5 -71q-107 0 -180 49.5t-73 140.5zM401 329q67 15 124 54q-46 41 -46 111q0 44 22.5 73t61.5 29q67 0 67 -73q0 -74 -73 -139q22 -10 46 -10 q62 0 99 40.5t37 93.5q0 64 -49 101t-122 37q-78 0 -133.5 -39t-75 -90.5t-9.5 -105.5t51 -82zM499 494q0 -65 41 -99q30 21 50 57t20 71q0 55 -48 55q-30 0 -46.5 -23t-16.5 -61z" />
<glyph unicode="T" horiz-adv-x="940" d="M46 107h23v-14t3.5 -34.5t10.5 -48.5t23 -51.5t38.5 -49t60.5 -34.5t85 -14q78 0 123.5 63t81.5 220q49 204 93.5 281.5t129.5 89.5q-15 6 -48.5 20t-52.5 20.5t-50.5 15.5t-65 13t-72.5 4q-69 0 -121.5 -22t-82 -58t-43.5 -77t-14 -85q0 -52 19 -91.5t46 -58t54 -29.5 t46 -13l19 -2l-6 -22q-6 0 -22 2.5t-49 15.5t-60.5 34t-48.5 64t-21 100q0 51 17 97t50.5 83.5t89.5 60t127 22.5q55 0 106 -9.5t80 -20t72 -28.5q2 -1 16 -6.5t17 -6.5t16 -6t17.5 -6t16 -5t18 -5t17.5 -3.5t19 -3t19 -1.5t21 -1q49 0 85.5 16.5t53 36.5t26.5 46.5t11 38 t1 19.5h22q0 -7 -1.5 -19.5t-12.5 -43t-29.5 -54t-59.5 -42.5t-96 -19q-58 0 -115 18q-68 -96 -143 -387q-37 -146 -106.5 -212.5t-209.5 -66.5q-123 0 -187.5 80t-56.5 189z" />
<glyph unicode="U" horiz-adv-x="898" d="M85 374q0 104 64 169.5t164 65.5q80 0 173 -31q107 -39 232 -39v-21q-75 0 -120 7q-12 -50 -35 -138.5t-32 -135t-9 -88.5q0 -56 33.5 -87.5t85.5 -31.5q54 0 89.5 35.5t52.5 77.5l118 508h21l-140 -601q-9 -37 -9 -50q0 -42 39 -42q14 0 26 7t18 15l5 7l14 -12 q-2 -4 -6.5 -10t-20.5 -16t-36 -10q-31 0 -45.5 17t-14.5 41l12 66l5 23q-27 -42 -72.5 -75.5t-100.5 -33.5q-92 0 -141 48.5t-49 131.5q0 35 6.5 77t14 72.5t27.5 107t32 125.5q-79 34 -173 34q-91 0 -148.5 -59t-57.5 -154h-22z" />
<glyph unicode="V" horiz-adv-x="1003" d="M107 324q0 87 38.5 151.5t111 99t169.5 34.5q40 0 98.5 -5t94 -7.5t82.5 5.5t88 31l12 -19q-63 -34 -135 -39q-55 -66 -94 -175t-39 -215q0 -56 11 -95.5t32 -60.5t45.5 -29.5t55.5 -8.5q50 0 95 28t79 70q59 76 95.5 172t46.5 184.5t7.5 162t-15.5 126.5l21 5 q14 -54 16.5 -129.5t-8 -166.5t-48 -190t-98.5 -177q-124 -160 -274 -160q-45 0 -79 17t-52.5 45.5t-27.5 60t-9 66.5q0 67 16.5 134t40 117.5t54 97.5t52.5 74t42 46q-34 0 -101 6.5t-104 6.5q-140 0 -219 -69.5t-79 -193.5q0 -47 16 -84.5t36.5 -57.5t47 -34.5t39 -18.5 t21.5 -6h1l-5 -21q-4 0 -20 4.5t-43.5 20t-52 38t-43 64.5t-18.5 95z" />
<glyph unicode="W" horiz-adv-x="1332" d="M106 322q0 132 87 209.5t235 77.5q40 0 122.5 -8.5t136 -2.5t107.5 35l11 -18q-65 -38 -143 -41q-63 -60 -106.5 -200t-43.5 -298q0 -97 35.5 -137t83.5 -40q32 0 62 14.5t46.5 28.5t43.5 41q-16 48 -16 129q0 122 35 239.5t93 192.5t120 75q30 0 45.5 -16t15.5 -58 q0 -85 -54.5 -226t-140.5 -257q9 -77 49 -114t102 -37q114 0 205 218q69 167 69.5 343t-67.5 245l15 15q52 -52 68 -159.5t-2.5 -227t-61.5 -225.5q-112 -270 -305 -270q-99 0 -145 79q-12 20 -17 30q-106 -109 -234 -109q-83 0 -123.5 55.5t-40.5 135.5q0 78 20.5 156.5 t47.5 134.5t64.5 110.5t61 81.5t46.5 50q-33 0 -86 7q-111 6 -119 6q-140 0 -220 -70.5t-80 -194.5q0 -33 8.5 -61.5t18.5 -47.5t30 -36.5t30.5 -25t32.5 -17t23 -9.5t15 -4l2 -1l-3 -21q-3 0 -19 4.5t-44 20t-53.5 38t-44 65t-18.5 95.5zM878 97q10 14 26 40 q65 101 107 217t42 191q0 52 -38 52q-15 0 -33 -8q-16 -15 -31 -42.5t-33 -80.5t-29 -144.5t-11 -209.5v-15z" />
<glyph unicode="X" horiz-adv-x="788" d="M-45 -176h23q5 -44 23.5 -58.5t55.5 -14.5q84 0 189.5 117t176.5 267t71 246q0 119 -32.5 163t-96.5 44q-41 0 -81.5 -16.5t-76 -48t-57 -85t-21.5 -120.5q0 -49 16.5 -88t39.5 -59t46 -33.5t39 -17.5l17 -3l-7 -19l-2 1q-13 3 -25.5 7t-41.5 21t-49.5 38.5t-37 62 t-16.5 90.5q0 129 74.5 210t193.5 81q220 0 220 -209q0 -42 -4.5 -85t-8 -65t-5.5 -27q46 133 119.5 259t162.5 211.5t163 85.5q56 0 79 -24.5t23 -72.5h-23q-5 44 -23.5 58.5t-55.5 14.5q-61 0 -140.5 -76t-144.5 -180t-110.5 -215.5t-45.5 -180.5q0 -103 34.5 -144 t98.5 -41q53 0 104 27v-23q-53 -25 -115 -25q-229 0 -229 228q0 48 8 96q-93 -222 -208 -358t-218 -136q-56 0 -79 24.5t-23 72.5z" />
<glyph unicode="Y" horiz-adv-x="713" d="M106 318q0 129 74.5 210t193.5 81q220 0 220 -209q0 -106 -18 -160q249 539 445 539q56 0 79 -24.5t23 -72.5h-23q-5 44 -23.5 58.5t-55.5 14.5q-62 0 -134.5 -65.5t-137 -167.5t-119 -215t-91.5 -221q-62 -179 -87 -254h-134q7 15 18.5 42t40.5 103.5t51.5 146.5t41 155 t18.5 145q0 82 -33 123t-92 41q-41 0 -81.5 -16.5t-76 -48t-57 -85t-21.5 -120.5q0 -49 16.5 -88t39.5 -59t46 -33.5t39 -17.5l17 -3l-7 -19l-2 1q-13 3 -25.5 7t-41.5 21t-49.5 38.5t-37 62t-16.5 90.5z" />
<glyph unicode="Z" horiz-adv-x="728" d="M21 -42q4 55 35 85t83 30q22 0 43.5 -3.5t31.5 -6.5l10 -3l333 337q-51 14 -167.5 78.5t-169.5 64.5q-42 0 -66 -22v-14q0 -27 10 -48.5t25 -33.5t29.5 -20t24.5 -10l10 -3l-5 -17l-4 1q-4 1 -10.5 3.5t-15.5 5.5t-18 9t-18.5 13t-18 17t-15 21.5t-10.5 27.5t-4 34 q0 66 39.5 102.5t111.5 36.5q39 0 77.5 -13.5t59 -26t57.5 -38.5q34 -23 51 -33.5t47.5 -22t59.5 -11.5q44 0 71 12t32 24l5 11l24 1q0 -38 -10.5 -70.5t-46.5 -59.5t-95 -27q-19 0 -37 3l-334 -339q45 -17 112.5 -61t129 -73t123.5 -29q59 0 82 23q5 22 5 42h21 q0 -158 -165 -158q-52 2 -115 31.5t-112 63.5t-112 62.5t-115 28.5q-21 0 -35 -6.5t-17 -12.5l-4 -6h-23z" />
<glyph unicode="[" horiz-adv-x="284" d="M48 -143l140 779h183l-2 -18h-63l-135 -743h61l-2 -18h-182z" />
<glyph unicode="\" horiz-adv-x="526" d="M130 657l26 10l351 -699l-26 -10z" />
<glyph unicode="]" horiz-adv-x="284" d="M0 -143l2 18h63l134 743h-62l2 18h185l-142 -779h-182z" />
<glyph unicode="^" horiz-adv-x="330" d="M22 266l163 180h27l96 -186l-25 -12l-88 170l-151 -169z" />
<glyph unicode="_" horiz-adv-x="604" d="M103 -39l2 18h383l-2 -18h-383z" />
<glyph unicode="`" horiz-adv-x="145" d="M33 564l26 10l53 -106l-26 -10z" />
<glyph unicode="a" horiz-adv-x="484" d="M59 145q0 114 56 179t145 65q73 0 97 -69q5 30 11 60q34 0 65 2t45 4l13 3l-69 -378q30 3 50 28l15 -12q-30 -36 -75 -36q-88 0 -96 77q-44 -77 -112 -77q-66 0 -105.5 40.5t-39.5 113.5zM172 94q0 -45 11.5 -62.5t33.5 -17.5q26 0 50.5 25.5t35.5 47t18 39.5q2 8 5 24.5 t9 52t12 67.5q-3 38 -21 66t-45 28q-49 0 -79 -87.5t-30 -182.5z" />
<glyph unicode="b" horiz-adv-x="461" d="M46 -27l112 655q-30 -3 -50 -28l-15 12q30 36 75 36q46 0 71 -23t25 -65q0 -8 -2 -26q-16 -89 -39 -214q42 68 108 68q68 0 104 -38.5t36 -105.5q0 -118 -64 -185.5t-166 -67.5q-63 0 -92 42l-84 -60h-19zM173 50q17 -32 61 -32q55 0 89.5 76.5t34.5 190.5q0 46 -9.5 63 t-30.5 17q-29 0 -55.5 -30t-38.5 -56.5t-12 -30.5h-2q-25 -131 -37 -198z" />
<glyph unicode="c" horiz-adv-x="405" d="M58 135q0 119 59.5 186.5t161.5 67.5q69 0 106 -35t37 -92q0 -36 -21.5 -55t-49.5 -19q-30 0 -51 21t-21 51t21 51.5t51 21.5q9 0 23 -4q-19 35 -70 35q-53 0 -93 -66t-40 -196q0 -45 20.5 -66.5t52.5 -21.5q30 0 55.5 12t40.5 28.5t26 34.5t15.5 29t4.5 13l18 -8 q-1 -5 -4 -14t-16 -32t-31 -40t-53 -31.5t-78 -14.5q-81 0 -122.5 38.5t-41.5 105.5z" />
<glyph unicode="d" horiz-adv-x="481" d="M58 135q0 118 56 186t145 68q73 0 94 -55l54 294q-30 -3 -50 -28l-15 12q30 36 75 36q46 0 71 -23t25 -65q0 -8 -2 -26q-49 -275 -95 -523q30 3 50 28l15 -12q-30 -36 -75 -36q-88 0 -96 75q-44 -75 -112 -75t-104 38.5t-36 105.5zM171 94q0 -46 9.5 -63t30.5 -17 q20 0 39 14t32.5 35.5t21 36t12.5 27.5l29 158q-2 32 -21 58.5t-65 26.5q-32 0 -60 -94t-28 -182z" />
<glyph unicode="e" horiz-adv-x="397" d="M58 135q0 119 59 186.5t158 67.5q127 0 127 -101q0 -63 -59.5 -95.5t-169.5 -33.5q-2 -36 -2 -57q0 -45 20.5 -66.5t52.5 -21.5q30 0 55.5 12t40.5 28.5t26 34.5t15.5 29t4.5 13l18 -8q-1 -5 -4 -14t-16 -32t-31 -40t-53 -31.5t-78 -14.5q-81 0 -122.5 38.5t-41.5 105.5z M176 182q201 1 201 106q0 33 -19.5 54.5t-53.5 21.5q-43 0 -79.5 -46t-48.5 -136z" />
<glyph unicode="f" horiz-adv-x="304" d="M51 -70l77 432h-61l2 18h62l16 86q16 99 49.5 140.5t97.5 41.5q36 0 59.5 -27t23.5 -79q0 -56 -43 -162h38l-2 -18h-44q-34 -85 -34 -129h-18q0 52 33 129h-58q-30 -157 -77 -432h-121zM252 380h62q44 100 44 162q0 36 -16.5 62t-40.5 26q-10 -39 -49 -250z" />
<glyph unicode="g" horiz-adv-x="465" d="M37 -102q0 30 21.5 50.5t67.5 20.5q30 0 60 -7.5t47 -15t47 -22.5q7 32 18 92.5t13 73.5q-45 -83 -116 -83q-136 0 -136 134q0 112 56.5 180t144.5 68q51 0 79 -31q8 -9 16 -27l9 49q34 0 64.5 2t43.5 4l13 3l-66 -369q-15 -78 -60 -126q13 -3 29 -3q18 0 33.5 7t22.5 14 l6 7l14 -12q-24 -34 -76 -34q-22 0 -45 5q-68 -62 -174 -62q-63 0 -97.5 21.5t-34.5 60.5zM58 -100q0 -32 29 -48t78 -16q80 0 108 69l-14 7t-14.5 7.5t-13.5 6.5t-16 6.5t-15.5 5.5t-17.5 5.5t-16.5 3.5t-19.5 2.5t-20 0.5q-33 0 -50.5 -14t-17.5 -36zM172 110 q0 -46 9 -61.5t31 -15.5q21 0 41 14.5t34 37t22.5 39.5t13.5 32l21 115v7q0 14 -2.5 26.5t-10 29t-26 26.5t-45.5 10q-21 0 -42 -42t-33.5 -102.5t-12.5 -115.5z" />
<glyph unicode="h" horiz-adv-x="487" d="M49 0l111 628q-30 -3 -50 -28l-15 12q30 36 75 36q46 0 71 -23t25 -65q0 -8 -2 -26l-42 -237q41 92 127 92q59 0 92 -33.5t33 -92.5q0 -31 -19 -119.5t-21 -132.5q12 0 24.5 7t19.5 14l6 7l15 -12q-2 -4 -7 -10t-26.5 -16t-50.5 -10q-91 0 -91 82q0 35 18 125t18 118 q0 43 -41 43q-34 0 -65.5 -46t-51.5 -125l-33 -188h-120z" />
<glyph unicode="i" horiz-adv-x="242" d="M73 74q0 13 16 109l33 179h-42l2 18h43q34 0 65 2t44 4l14 3l-69 -378q30 3 50 28l15 -12q-30 -36 -75 -36t-70.5 23t-25.5 60zM135 536q0 30 21 51.5t51 21.5t51.5 -21.5t21.5 -51.5t-21.5 -51t-51.5 -21t-51 21t-21 51z" />
<glyph unicode="j" horiz-adv-x="229" d="M-70 -175l7 19q17 -9 36 -9q32 0 46 18.5t24 71.5q35 189 81 437h-43l2 18h43q34 0 65 2t45 4l13 3q-10 -54 -32.5 -179.5t-32.5 -179.5q-19 -107 -68.5 -160.5t-139.5 -53.5q-14 0 -25.5 2t-16.5 4zM137 536q0 30 21 51.5t51 21.5t51.5 -21.5t21.5 -51.5t-21.5 -51 t-51.5 -21t-51 21t-21 51z" />
<glyph unicode="k" horiz-adv-x="470" d="M48 0l113 628q-30 -3 -50 -28l-15 12q30 36 75 36q46 0 71 -23t25 -65q0 -8 -2 -26q-23 -127 -50 -274q25 61 72 95t109 34q44 0 65.5 -21t21.5 -54q0 -30 -19 -50t-49 -20q-31 0 -47.5 17.5t-16.5 43.5q0 43 24 61q-96 -11 -153 -142q14 2 24 2q53 0 83.5 -21 t39.5 -51.5t13 -61t13 -51.5t32 -21q12 0 21 5t12 9l3 5l15 -12q-2 -4 -7 -10t-26.5 -16t-50.5 -10q-46 0 -74.5 19t-39.5 47.5t-18.5 57t-21 51.5t-37.5 27q-7 -39 -19 -102t-17 -91h-119z" />
<glyph unicode="l" horiz-adv-x="278" d="M62 79q0 8 2 26l65 360q18 99 49.5 141t83.5 42q36 0 59.5 -27t23.5 -79q0 -58 -42.5 -160t-42.5 -149h-18q0 53 42 151.5t42 157.5q0 36 -16.5 62t-40.5 26q-1 -26 -34.5 -233.5t-66.5 -385.5q28 0 52 29t34 58l11 30l18 -8q-1 -5 -4 -14t-13.5 -31t-23.5 -39t-35.5 -31 t-48.5 -14q-46 0 -71 23t-25 65z" />
<glyph unicode="m" horiz-adv-x="745" d="M65 0l66 369q-30 -3 -50 -28l-15 12q30 36 75 36q46 0 71 -23t25 -65v-3q39 91 118 91q56 0 88.5 -30.5t35.5 -85.5q19 55 48 85.5t80 30.5q59 0 92 -33.5t33 -92.5q0 -31 -19 -119.5t-21 -132.5q12 0 24.5 7t19.5 14l6 7l15 -12q-2 -4 -7 -10t-26.5 -16t-50.5 -10 q-91 0 -91 82q0 35 18 125t18 118q0 43 -41 43q-63 0 -107 -172q-3 -13 -9 -42t-9.5 -46.5t-7 -42.5t-4.5 -45q12 0 24.5 7t19.5 14l6 7l15 -12q-2 -4 -7 -10t-26.5 -16t-50.5 -10q-91 0 -91 82q0 35 18 125t18 118q0 43 -41 43q-62 0 -104 -159l-36 -200h-120z" />
<glyph unicode="n" horiz-adv-x="499" d="M62 353q30 36 75 36q46 0 71 -23t25 -65v-6q41 94 128 94q59 0 92 -33.5t33 -92.5q0 -31 -19 -119.5t-21 -132.5q12 0 24.5 7t19.5 14l6 7l15 -12q-2 -4 -7 -10t-26.5 -16t-50.5 -10q-91 0 -91 82q0 35 18 125t18 118q0 43 -41 43q-33 0 -63.5 -43t-50.5 -118l-34 -187 q31 3 51 28l15 -12q-30 -36 -75 -36t-70.5 23t-25.5 60q0 14 16 110l33 185q-30 -3 -50 -28z" />
<glyph unicode="o" d="M59 135q0 50 10.5 91.5t34.5 80t72.5 60.5t117.5 22q76 0 116.5 -38.5t40.5 -105.5q0 -114 -60.5 -184t-174.5 -70q-77 0 -117 38.5t-40 105.5zM172 94q0 -80 46 -80q47 0 83.5 80.5t36.5 191.5q0 84 -45 84q-46 0 -83.5 -76.5t-37.5 -199.5z" />
<glyph unicode="p" horiz-adv-x="479" d="M37 -148l94 524q-30 -3 -50 -28l-15 12q30 36 75 36q44 0 69 -21.5t27 -60.5q44 75 112 75t104 -38.5t36 -105.5q0 -118 -64 -185.5t-166 -67.5q-46 0 -73 21l-30 -161h-119zM193 53q17 -38 63 -38q49 0 84.5 80t35.5 191q0 46 -9.5 63t-30.5 17q-29 0 -55.5 -30 t-38.5 -56.5t-12 -30.5h-1z" />
<glyph unicode="q" horiz-adv-x="465" d="M58 135q0 118 56 186t145 68q71 0 94 -60q1 8 4.5 24.5t5.5 26.5q34 0 65 2t44 4l14 3l-101 -552q30 3 50 28l15 -12q-30 -36 -75 -36q-46 0 -71 23t-25 65q0 17 9 64q5 31 15 86q-41 -64 -105 -64q-68 0 -104 38.5t-36 105.5zM171 94q0 -46 9.5 -63t30.5 -17 q29 0 55.5 30t38.5 56.5t12 30.5l26 141v4q0 14 -2.5 27t-10 29.5t-26 27t-45.5 10.5q-32 0 -60 -94t-28 -182z" />
<glyph unicode="r" horiz-adv-x="392" d="M64 0l66 369q-30 -3 -50 -28l-15 12q30 36 75 36q46 0 71 -23t25 -65v-6q45 94 117 94q77 0 77 -80q0 -33 -22 -70t-44 -70.5t-22 -59.5h-24q0 37 43 100t43 96q0 36 -13.5 48.5t-37.5 12.5q-29 0 -54.5 -23t-43 -58t-24.5 -53t-11 -32v-1l-36 -199h-120z" />
<glyph unicode="s" horiz-adv-x="368" d="M35 107q0 41 22 60.5t52 19.5t49.5 -19.5t19.5 -49.5q0 -31 -19 -52t-49 -21q-13 0 -27 4q22 -32 70 -32q99 0 99 146q0 36 -10.5 85t-12.5 61q-61 -63 -137 -76v24q72 16 135 82v4q0 24 7 47t14 34l7 11h24q0 -44 14 -80.5t31 -59t31 -59t14 -80.5q0 -71 -53.5 -118 t-135.5 -47q-68 0 -106.5 34t-38.5 82z" />
<glyph unicode="t" horiz-adv-x="322" d="M68 362l2 18h51q4 24 13.5 73.5t13.5 74.5q34 0 65 2t45 4l13 3q-14 -70 -31 -157h124l-2 -18h-125q-50 -258 -50 -311q0 -32 31 -32q37 0 65 43t40 93l18 -6q-37 -158 -153 -158q-48 0 -80 26.5t-32 72.5q0 49 41 272h-49z" />
<glyph unicode="u" horiz-adv-x="499" d="M56 353q2 4 7 10t26.5 16t50.5 10q91 0 91 -82q0 -35 -18 -125t-18 -118q0 -43 41 -43q29 0 56.5 34t47.5 94l42 231q34 0 64.5 2t43.5 4l13 3l-67 -378q30 3 50 28l15 -12q-30 -36 -75 -36t-70 22t-26 62q-42 -84 -124 -84q-59 0 -92 33.5t-33 92.5q0 31 19 119.5 t21 132.5q-12 0 -24.5 -7t-18.5 -14l-7 -7z" />
<glyph unicode="v" d="M54 339q3 6 9 14t30.5 22t54.5 14q44 0 66.5 -24t22.5 -65q0 -33 -20 -110.5t-20 -114.5q0 -26 14.5 -44t41.5 -18q67 0 122 73t55 163q0 7 -2 21q-21 -26 -56 -26q-30 0 -51 21t-21 51t21 51.5t51 21.5q23 0 41.5 -13.5t26.5 -34.5q1 -1 1 -2v-1q12 -26 12 -89 q0 -36 -11.5 -77t-35 -83.5t-68.5 -70t-103 -27.5q-64 0 -104.5 40t-40.5 100q0 44 18.5 120.5t20.5 117.5q-16 -1 -31 -11.5t-22 -20.5l-7 -10z" />
<glyph unicode="w" horiz-adv-x="689" d="M54 339q3 6 9 14t30.5 22t54.5 14q44 0 66.5 -24t22.5 -65q0 -33 -20 -110.5t-20 -114.5q0 -26 14.5 -44t41.5 -18q58 0 99 60q-11 28 -11 58q0 44 18.5 120.5t20.5 117.5q-16 -1 -31 -11.5t-22 -20.5l-7 -10l-15 12q3 6 9 14t30.5 22t54.5 14q44 0 66.5 -24t22.5 -65 q0 -33 -20 -110.5t-20 -114.5q0 -26 14.5 -44t41.5 -18q67 0 120 72.5t53 163.5q0 7 -2 21q-21 -26 -56 -26q-30 0 -51 21t-21 51t21 51.5t51 21.5q23 0 41.5 -13.5t26.5 -34.5q1 -1 1 -2v-1q12 -26 12 -89q0 -28 -6 -60t-22 -68t-39 -64.5t-61.5 -47t-85.5 -18.5 q-80 0 -120 58q-48 -58 -131 -58q-64 0 -104.5 40t-40.5 100q0 44 18.5 120.5t20.5 117.5q-16 -1 -31 -11.5t-22 -20.5l-7 -10z" />
<glyph unicode="x" horiz-adv-x="474" d="M56 64q0 49 45.5 83.5t112.5 41.5l-55 137q-12 31 -39 31q-12 0 -23 -8.5t-16 -16.5l-5 -9l-15 9q10 17 17.5 26.5t29 20t52.5 10.5q87 0 117 -74l41 -102q62 6 97 31h-1q-30 0 -51 21t-21 51t21 51.5t51 21.5t51.5 -21.5t21.5 -51.5q0 -51 -47 -85.5t-113 -40.5l52 -127 q12 -31 40 -31q12 0 23 8.5t16 17.5l4 8l16 -9q-10 -17 -17.5 -26.5t-29 -20t-52.5 -10.5q-88 0 -118 74l-38 92q-59 -6 -95 -30h1q30 0 51 -21t21 -51t-21 -51.5t-51 -21.5t-51.5 21.5t-21.5 51.5z" />
<glyph unicode="y" horiz-adv-x="483" d="M55 -102q0 30 21 50.5t66 20.5q32 0 65 -12.5t48 -14.5l-2 -18q-17 2 -49 14t-62 12q-33 0 -49.5 -14t-16.5 -36q0 -31 29 -47.5t72 -16.5q104 0 128 125l25 138q-42 -92 -127 -92q-58 0 -89.5 33t-31.5 93q0 31 18.5 111.5t20.5 124.5q-12 0 -24.5 -7t-18.5 -14l-7 -7 l-15 12q2 4 7 10t26.5 16t50.5 10q91 0 91 -82q0 -35 -19 -114.5t-19 -107.5q0 -48 40 -48q33 0 64.5 45t51.5 121l33 177q34 0 64.5 2t43.5 4l13 3l-63 -354q-18 -103 -83.5 -161t-169.5 -58q-63 0 -97.5 21.5t-34.5 60.5z" />
<glyph unicode="z" horiz-adv-x="419" d="M41 0l262 354q-52 2 -93 9t-61 7q-30 0 -47 -17t-17 -44q0 -10 3.5 -21t6.5 -16l3 -6l-18 -7q-16 20 -16 52q0 34 22.5 56t60.5 22q26 0 79.5 -9.5t116.5 -9.5q70 1 102 9l-265 -353q53 -16 116 -17q40 0 69.5 22.5t38.5 44.5l9 22l17 -6q-9 -36 -41 -68.5t-93 -32.5 q-66 0 -118 14t-74 14q-13 0 -24 -4.5t-16 -9.5l-5 -5h-18z" />
<glyph unicode="{" horiz-adv-x="291" d="M62 257q27 33 69 36l43 234q9 54 43 81.5t83 27.5q45 0 75 -36l-15 -12q-20 25 -50 28l-48 -279q-3 -23 -14 -39.5t-20 -21.5l-10 -4q3 -3 7 -8t8.5 -24t0.5 -42l-55 -321q30 3 50 28l15 -12q-30 -36 -75 -36q-46 0 -71 23t-25 65q0 8 2 26q6 54 52 302q-30 -3 -50 -28z " />
<glyph unicode="|" horiz-adv-x="180" d="M53 -123l131 739h30l-131 -739h-30z" />
<glyph unicode="}" horiz-adv-x="292" d="M3 -107l15 12q20 -25 50 -28l48 279q3 23 14 39.5t20 20.5l10 5q-3 3 -7 8t-8.5 24t-0.5 42l55 321q-30 -3 -50 -28l-15 12q30 36 75 36q46 0 71 -23t25 -65q0 -8 -2 -26q-6 -54 -52 -302q30 3 50 28l15 -12q-27 -33 -69 -36l-43 -234q-9 -54 -43 -81.5t-83 -27.5 q-45 0 -75 36z" />
<glyph unicode="~" horiz-adv-x="496" d="M93 259q2 5 6 14t18 31.5t30.5 39.5t43.5 31t57 14t47.5 -11t24 -27t12 -32t17 -27t32.5 -11q36 0 67 27t44 54l12 27h26q-2 -5 -5.5 -14t-16.5 -32t-28.5 -40.5t-43 -32t-58.5 -14.5q-35 0 -53 17t-22 37.5t-18 37.5t-41 17q-32 0 -62 -26.5t-44 -52.5l-14 -27h-31z" />
<glyph unicode="&#xa1;" horiz-adv-x="202" d="M55 -162l89 488l27 -3l-87 -489zM126 406q0 21 15 35.5t36 14.5t35.5 -14.5t14.5 -35.5t-14.5 -36t-35.5 -15t-36 15t-15 36z" />
<glyph unicode="&#xa2;" horiz-adv-x="411" d="M59 135q0 119 59.5 186.5t161.5 67.5h5l33 188h30l-34 -191q53 -9 81 -42t28 -82q0 -36 -21.5 -55t-49.5 -19q-30 0 -51 21t-21 51t21 51.5t51 21.5q9 0 23 -4q-19 35 -70 35q-53 0 -93 -66t-40 -196q0 -45 20.5 -66.5t52.5 -21.5q30 0 55.5 12t40.5 28.5t26 34.5 t15.5 29t4.5 13l18 -8q-1 -5 -3.5 -13t-14 -29.5t-27.5 -38t-47 -32t-69 -18.5l-27 -154h-30l27 153q-76 2 -115.5 40.5t-39.5 103.5z" />
<glyph unicode="&#xa3;" horiz-adv-x="773" d="M9 -70q0 35 28.5 56.5t85.5 21.5q78 0 140 -58q12 37 20 82l31 179h-139l2 18h140l33 190q12 75 39 126t65.5 76t77 35t85.5 10q85 0 141.5 -51t56.5 -161h-24q0 89 -42.5 135.5t-107.5 46.5q-119 0 -141 -148q0 -25 -43 -259h273l-2 -18h-274q-6 -35 -25 -133 q-21 -117 -112 -181q3 -3 18 -17t19.5 -17.5t18.5 -14t24 -13.5t27 -8.5t36 -7.5t43 -2q39 0 72 17.5t52 39t35 50.5t20.5 42t7.5 23v1l24 -8q-26 -85 -82.5 -135t-131.5 -50q-25 0 -46 1.5t-39.5 8.5t-28.5 9.5t-26.5 15t-20 15t-21.5 20t-19 18.5q-64 -38 -141 -38 q-71 0 -110 23.5t-39 59.5zM33 -70q0 -29 32.5 -46.5t92.5 -17.5q28 0 62 8q20 18 35 54q-32 30 -61 45.5t-69 15.5q-43 0 -67.5 -15.5t-24.5 -43.5z" />
<glyph unicode="&#xa4;" horiz-adv-x="706" d="M57 177l2 18h98q0 47 7 86h-87l2 18h89q32 140 142.5 225t270.5 85q88 0 127 -31.5t39 -98.5q0 -45 -44 -111q-40 -64 -40 -100h-22q0 20 8 43t14 33t22 36q39 59 39 97q0 22 -4.5 38t-17.5 34.5t-44 28.5t-77 10q-22 0 -60 -4q-184 -56 -231 -285h242l-2 -18h-243 q-7 -37 -10 -86h235l-2 -18h-234q-1 -14 -1 -41q0 -150 97 -198q24 -3 50 -3q53 0 97 15t68 37t41 44t22 37l6 15l20 -8q-2 -7 -6 -17.5t-22.5 -38t-44 -48.5t-74 -38.5t-107.5 -17.5q-122 0 -191.5 68t-73.5 194h-100z" />
<glyph unicode="&#xa5;" horiz-adv-x="1012" d="M97 318q0 129 74.5 210t193.5 81q220 0 220 -209q0 -106 -18 -160q249 539 445 539q53 0 77 -23.5t27 -73.5h-25q-5 43 -24 57.5t-56 14.5q-54 0 -114.5 -50t-118 -136t-106.5 -177t-96 -197h182l-2 -18h-188q-8 -18 -21.5 -50t-16.5 -40l-1 -1h209l-2 -18h-214 q-24 -59 -39 -103t-26 -83.5t-14 -48.5h-134q47 105 92 235q-57 2 -108.5 16.5t-97 42.5t-72 77.5t-26.5 114.5zM118 318q0 -63 27 -110t71 -72.5t92 -38t99 -12.5q10 29 28 91h-162l2 18h165q39 137 39 230q0 82 -33 123t-92 41q-41 0 -81.5 -16.5t-76 -48t-57 -85 t-21.5 -120.5z" />
<glyph unicode="&#xa6;" horiz-adv-x="189" d="M58 -123l56 318h30l-56 -318h-30zM137 322l52 294h30l-52 -294h-30z" />
<glyph unicode="&#xa7;" horiz-adv-x="462" d="M69 222q0 24 8.5 43.5t16.5 27.5l8 8l15 -11q-26 -29 -26 -70q0 -37 27.5 -62.5t68.5 -25.5q99 0 99 146q0 39 -15 89t-15 83q0 47 25.5 73.5t70.5 26.5l30 -3v-28q-3 -2 -18 0.5t-33 -10t-18 -38.5t14 -51t31 -42.5t31 -46t14 -60.5t-12 -59q15 -25 23 -39.5t15.5 -42 t7.5 -58.5q0 -71 -55.5 -118t-137.5 -47q-70 0 -105.5 33.5t-35.5 82.5q0 24 8.5 43.5t16.5 27.5l8 8l15 -11q-26 -29 -26 -70q0 -37 27.5 -62.5t68.5 -25.5q99 0 99 146q0 22 -4 52q-47 -25 -106 -25q-70 0 -105.5 33.5t-35.5 82.5z" />
<glyph unicode="&#xa8;" horiz-adv-x="475" d="M99 589q0 24 17 41.5t41 17.5t41.5 -17.5t17.5 -41.5t-17.5 -41t-41.5 -17q-25 0 -41.5 16.5t-16.5 41.5zM259 589q0 24 17 41.5t41 17.5t41.5 -17.5t17.5 -41.5t-17.5 -41t-41.5 -17q-25 0 -41.5 16.5t-16.5 41.5z" />
<glyph unicode="&#xa9;" horiz-adv-x="682" d="M85 222q0 40 9 75q28 134 129 216.5t235 82.5q113 0 178.5 -60.5t65.5 -162.5q0 -39 -8 -74q-28 -135 -129 -217.5t-236 -82.5q-114 0 -179 60t-65 163zM116 230q0 -96 59 -151.5t161 -55.5q117 0 208.5 77.5t121.5 196.5q7 31 7 69q0 94 -58.5 149.5t-163.5 55.5 q-120 0 -210.5 -75t-117.5 -197q-7 -35 -7 -69zM211 245q0 26 7 53q18 86 77.5 146t144.5 60q96 0 131 -72l-26 -15q-33 64 -111 64q-69 0 -119.5 -54t-67.5 -127q-5 -21 -5 -51q0 -59 30 -96.5t85 -37.5q87 0 142 64l16 -16q-64 -73 -163 -73q-68 0 -104.5 44t-36.5 111z " />
<glyph unicode="&#xaa;" horiz-adv-x="377" d="M123 482q0 78 38 122.5t100 44.5q51 0 66 -48l8 42q24 0 45 1.5t30 3.5l10 1l-48 -259q21 1 35 19l10 -8q-20 -25 -52 -25q-61 0 -66 52q-30 -52 -76 -52q-45 0 -72.5 27.5t-27.5 78.5zM201 447q0 -55 31 -55q26 0 45.5 29.5t25.5 49.5l18 95q-2 27 -14.5 46.5 t-31.5 19.5q-33 0 -53.5 -60t-20.5 -125z" />
<glyph unicode="&#xab;" horiz-adv-x="430" d="M67 193l5 26q19 6 36 13t60.5 26t72.5 43.5t34 48.5h21q-6 -33 -45 -64t-78 -49t-83 -32q28 -11 52 -23.5t49 -31t37.5 -41.5t6.5 -47h-21q12 58 -112 116q-15 7 -33 14zM215 193l5 26q19 6 36 13t60.5 26t72.5 43.5t34 48.5h21q-6 -33 -45 -64t-78 -49t-83 -32 q28 -11 52 -23.5t49 -31t37.5 -41.5t6.5 -47h-21q12 58 -112 116q-15 7 -33 14z" />
<glyph unicode="&#xac;" horiz-adv-x="646" d="M93 184l4 27h528l-47 -282h-27l44 255h-502z" />
<glyph unicode="&#xad;" horiz-adv-x="317" d="M90 184l2 18h203l-2 -18h-203z" />
<glyph unicode="&#xae;" horiz-adv-x="682" d="M85 222q0 40 9 75q28 134 129 216.5t235 82.5q113 0 178.5 -60.5t65.5 -162.5q0 -39 -8 -74q-28 -135 -129 -217.5t-236 -82.5q-114 0 -179 60t-65 163zM116 230q0 -96 59 -151.5t161 -55.5q117 0 208.5 77.5t121.5 196.5q7 31 7 69q0 94 -58.5 149.5t-163.5 55.5 q-120 0 -210.5 -75t-117.5 -197q-7 -35 -7 -69zM222 105q14 67 42 198t42 198h160q60 0 87.5 -34t16.5 -82q-8 -40 -41 -73.5t-83 -42.5q8 -27 23.5 -83t23.5 -81h-31l-47 162h-132l-33 -162h-28zM289 289h134q47 0 78 27t40 67t-12 67t-68 27h-132z" />
<glyph unicode="&#xb0;" horiz-adv-x="339" d="M122 476q0 72 37.5 120.5t123.5 48.5q54 0 82 -27t28 -74q0 -78 -42 -126t-120 -48q-109 0 -109 106zM146 478q0 -88 86 -88q66 0 102.5 39t36.5 113q0 40 -23.5 62t-64.5 22q-63 0 -100 -36.5t-37 -111.5z" />
<glyph unicode="&#xb1;" horiz-adv-x="486" d="M58 20l4 25h383l-4 -25h-383zM90 228l4 25h173l24 136h30l-24 -136h180l-4 -25h-180l-25 -133h-30l25 133h-173z" />
<glyph unicode="&#xb2;" horiz-adv-x="313" d="M107 392q21 13 110 68q49 31 63 52.5t14 55.5q0 24 -14 40.5t-37 16.5q-18 0 -37 -14.5t-29 -28.5t-10 -17l-11 7q4 7 10.5 16t22 25t42 26.5t57.5 10.5q74 0 74 -64q0 -38 -33.5 -67t-123.5 -84l-66 -41h170l34 79l11 -4l-36 -89h-207z" />
<glyph unicode="&#xb3;" horiz-adv-x="292" d="M86 333l14 -1q0 -49 63 -49q53 0 95.5 34t42.5 82q0 33 -19.5 49.5t-52.5 16.5l-29 -3l-4 14q26 9 39.5 15t27.5 17t20 27.5t6 40.5q0 25 -14.5 38t-32.5 12q-16 0 -33 -12t-24.5 -21.5t-9.5 -13.5l-12 6q43 65 122 65q31 0 48.5 -15t17.5 -42q0 -38 -33 -67t-78 -48 q35 -2 56.5 -22.5t21.5 -55.5q0 -57 -48 -94t-107 -37q-77 0 -77 64z" />
<glyph unicode="&#xb4;" horiz-adv-x="145" d="M33 468l53 106l26 -10l-53 -106z" />
<glyph unicode="&#xb5;" horiz-adv-x="551" d="M72 -90q16 86 31.5 167.5t23 121.5t14.5 76.5t9.5 56t3.5 37.5q-12 0 -24.5 -7t-19.5 -14l-6 -7l-15 12q2 4 7 10t26.5 16t50.5 10q91 0 91 -82q0 -34 -18.5 -121t-18.5 -120q0 -45 42 -45q29 0 56.5 34t47.5 94l42 231q34 0 64.5 2t43.5 4l13 3l-67 -378q30 3 50 28 l15 -12q-30 -36 -75 -36t-70 22t-26 62q-42 -84 -124 -84q-9 0 -16.5 1.5t-10.5 3.5l-4 2l-15 -88h-121z" />
<glyph unicode="&#xb6;" horiz-adv-x="565" d="M87 335q0 122 110 198t299 76q1 10 4.5 31t6.5 38l3 16l20 -4l-3 -16q-3 -16 -6.5 -36t-4.5 -29h8q54 0 112 -7v-20l-53 6q-6 -50 -32 -217t-52 -298q-20 -108 -100 -169.5t-171 -61.5v19q57 3 106.5 24.5t90.5 70.5t55 119q52 275 83 514q-6 0 -19 0.5t-20 0.5h-10 q-42 -291 -78 -481q-21 -108 -90 -157.5t-181 -59.5v21q90 0 161.5 50t90.5 162l2 12q-143 -14 -237.5 36.5t-94.5 161.5z" />
<glyph unicode="&#xb7;" horiz-adv-x="243" d="M90 238q0 30 21 51.5t51 21.5t51.5 -21.5t21.5 -51.5t-21.5 -51t-51.5 -21t-51 21t-21 51z" />
<glyph unicode="&#xb8;" horiz-adv-x="274" d="M44 -116q0 33 24.5 52.5t73.5 19.5l9 46h18l-11 -65h-16q-35 0 -55.5 -14.5t-20.5 -39.5q0 -48 72 -48q23 0 43.5 6.5t29.5 12.5l9 7l10 -17q-29 -28 -93 -28q-93 0 -93 68z" />
<glyph unicode="&#xb9;" horiz-adv-x="204" d="M114 380l77 235l-49 -10l-4 13l153 31l-96 -269h-81z" />
<glyph unicode="&#xba;" horiz-adv-x="337" d="M123 475q0 174 161 174q53 0 80.5 -26.5t27.5 -72.5q0 -78 -41.5 -126t-119.5 -48q-53 0 -80.5 26.5t-27.5 72.5zM201 447q0 -55 31 -55q33 0 58 55.5t25 131.5q0 57 -31 57q-32 0 -57.5 -52.5t-25.5 -136.5z" />
<glyph unicode="&#xbb;" horiz-adv-x="430" d="M59 62q6 33 45 64t78 49t83 32q-28 11 -52 23.5t-49 31t-37.5 41.5t-6.5 47h21q-12 -58 112 -116q15 -7 33 -14l2 -1l-5 -26q-19 -6 -36 -13t-60.5 -26t-72.5 -43.5t-34 -48.5h-21zM207 62q6 33 45 64t78 49t83 32q-28 11 -52 23.5t-49 31t-37.5 41.5t-6.5 47h21 q-12 -58 112 -116q15 -7 33 -14l2 -1l-5 -26q-19 -6 -36 -13t-60.5 -26t-72.5 -43.5t-34 -48.5h-21z" />
<glyph unicode="&#xbc;" horiz-adv-x="581" d="M109 380l77 238l-47 -10l-6 19l165 34l-101 -281h-88zM118 -34l355 705l19 -8l-354 -705zM250 -6v17l325 271l-77 -217h55v-71h-80l-46 -128l-22 1l44 127h-199zM346 65h129l55 155z" />
<glyph unicode="&#xbd;" horiz-adv-x="563" d="M110 380l77 238l-47 -10l-6 19l165 34l-101 -281h-88zM119 -34l353 705q4 -1 11 -3t11 -4l-355 -706zM294 11q13 8 35.5 22t41.5 26t36 22q47 31 62.5 53.5t15.5 53.5q0 23 -14 39t-35 16q-18 0 -36.5 -15.5t-28 -30t-9.5 -17.5l-19 11q4 7 11 17t23.5 27t44 28t60.5 11 q78 0 78 -68q0 -40 -34.5 -70.5t-126.5 -85.5l-56 -36h158l35 82l17 -7l-39 -95h-215z" />
<glyph unicode="&#xbe;" horiz-adv-x="675" d="M81 338l21 -1q0 -49 60 -49q53 0 95.5 33.5t42.5 80.5q0 32 -19.5 48t-50.5 16l-32 -4l-6 21q52 17 73.5 35.5t21.5 63.5q0 25 -13.5 37t-30.5 11q-16 0 -32.5 -12.5t-24.5 -22.5t-10 -14l-18 9q47 71 128 71q34 0 52.5 -16t18.5 -45q0 -37 -30.5 -66.5t-73.5 -48.5 q70 -14 70 -82q0 -59 -50 -97.5t-111 -38.5q-81 0 -81 71zM212 -34l354 705q4 -2 11 -3.5t10 -3.5l-354 -706zM344 -6v17l326 271l-78 -217h55v-71h-80l-46 -128l-21 1l44 127h-200zM441 65h128q9 27 27.5 77.5t28.5 77.5z" />
<glyph unicode="&#xbf;" horiz-adv-x="461" d="M45 -12q0 24 6 48q13 52 43.5 90.5t79.5 80.5q73 64 105 126l24 -12q-31 -66 -111 -132q-88 -71 -114 -155q-4 -17 -4 -38q0 -58 34.5 -92t102.5 -34q82 0 136.5 52t69.5 127h29q-17 -88 -82 -147.5t-157 -59.5q-77 0 -119.5 40.5t-42.5 105.5zM261 406q0 21 15 35.5 t36 14.5t35.5 -14.5t14.5 -35.5t-14.5 -36t-35.5 -15t-36 15t-15 36z" />
<glyph unicode="&#xc0;" horiz-adv-x="1149" d="M53 124q0 111 71 197t191 86q106 0 165 -67q14 -18 20 -27q54 -23 123 -76q52 -42 77 -58q7 13 20.5 37t17.5 31q25 46 38 69t39 65t42.5 63.5t44 54t50 48.5t54.5 34t62.5 23t68 4t77.5 -12l-5 -19q-24 7 -51 10q-100 -393 -115 -628q13 0 25.5 7t18.5 14l6 7l15 -12 q-3 -4 -8 -10t-24.5 -16t-42.5 -10q-112 0 -112 97q0 30 7 89q-48 -15 -86 -15q-67 0 -134 41q-39 -67 -73 -114.5t-79.5 -92.5t-100 -68t-117.5 -23q-138 0 -216 84q-69 77 -69 187zM73 124q0 -114 74 -182.5t191 -68.5q59 0 111 22.5t95.5 66t76 89.5t70.5 111 q-34 22 -80 59q-51 40 -96 63q17 -42 17 -87q0 -74 -42.5 -131t-114.5 -57q-47 0 -76.5 28t-29.5 63q0 25 9 44.5t20.5 29.5t25 16.5t21 8t9.5 1.5l2 -20q-6 0 -19 -4t-30.5 -24t-17.5 -52q0 -28 23.5 -49.5t62.5 -21.5q64 0 101 50t37 118q0 54 -25 99q-55 21 -109 21 q-104 0 -147 -97l-19 6l1 1q5 12 12.5 24t26.5 35t52 37t74 14q45 0 89 -13l-2 3q-55 60 -151 60q-111 0 -176.5 -80t-65.5 -183zM718 168q107 -63 213 -21q24 169 90 420q-40 -19 -76 -51.5t-71.5 -83.5t-57.5 -88.5t-60 -106.5zM1024 754l26 10l53 -106l-26 -10z" />
<glyph unicode="&#xc1;" horiz-adv-x="1149" d="M53 124q0 111 71 197t191 86q106 0 165 -67q14 -18 20 -27q54 -23 123 -76q52 -42 77 -58q7 13 20.5 37t17.5 31q25 46 38 69t39 65t42.5 63.5t44 54t50 48.5t54.5 34t62.5 23t68 4t77.5 -12l-5 -19q-24 7 -51 10q-100 -393 -115 -628q13 0 25.5 7t18.5 14l6 7l15 -12 q-3 -4 -8 -10t-24.5 -16t-42.5 -10q-112 0 -112 97q0 30 7 89q-48 -15 -86 -15q-67 0 -134 41q-39 -67 -73 -114.5t-79.5 -92.5t-100 -68t-117.5 -23q-138 0 -216 84q-69 77 -69 187zM73 124q0 -114 74 -182.5t191 -68.5q59 0 111 22.5t95.5 66t76 89.5t70.5 111 q-34 22 -80 59q-51 40 -96 63q17 -42 17 -87q0 -74 -42.5 -131t-114.5 -57q-47 0 -76.5 28t-29.5 63q0 25 9 44.5t20.5 29.5t25 16.5t21 8t9.5 1.5l2 -20q-6 0 -19 -4t-30.5 -24t-17.5 -52q0 -28 23.5 -49.5t62.5 -21.5q64 0 101 50t37 118q0 54 -25 99q-55 21 -109 21 q-104 0 -147 -97l-19 6l1 1q5 12 12.5 24t26.5 35t52 37t74 14q45 0 89 -13l-2 3q-55 60 -151 60q-111 0 -176.5 -80t-65.5 -183zM718 168q107 -63 213 -21q24 169 90 420q-40 -19 -76 -51.5t-71.5 -83.5t-57.5 -88.5t-60 -106.5zM1085 658l53 106l26 -10l-53 -106z" />
<glyph unicode="&#xc2;" horiz-adv-x="1149" d="M53 124q0 111 71 197t191 86q106 0 165 -67q14 -18 20 -27q54 -23 123 -76q52 -42 77 -58q7 13 20.5 37t17.5 31q25 46 38 69t39 65t42.5 63.5t44 54t50 48.5t54.5 34t62.5 23t68 4t77.5 -12l-5 -19q-24 7 -51 10q-100 -393 -115 -628q13 0 25.5 7t18.5 14l6 7l15 -12 q-3 -4 -8 -10t-24.5 -16t-42.5 -10q-112 0 -112 97q0 30 7 89q-48 -15 -86 -15q-67 0 -134 41q-39 -67 -73 -114.5t-79.5 -92.5t-100 -68t-117.5 -23q-138 0 -216 84q-69 77 -69 187zM73 124q0 -114 74 -182.5t191 -68.5q59 0 111 22.5t95.5 66t76 89.5t70.5 111 q-34 22 -80 59q-51 40 -96 63q17 -42 17 -87q0 -74 -42.5 -131t-114.5 -57q-47 0 -76.5 28t-29.5 63q0 25 9 44.5t20.5 29.5t25 16.5t21 8t9.5 1.5l2 -20q-6 0 -19 -4t-30.5 -24t-17.5 -52q0 -28 23.5 -49.5t62.5 -21.5q64 0 101 50t37 118q0 54 -25 99q-55 21 -109 21 q-104 0 -147 -97l-19 6l1 1q5 12 12.5 24t26.5 35t52 37t74 14q45 0 89 -13l-2 3q-55 60 -151 60q-111 0 -176.5 -80t-65.5 -183zM718 168q107 -63 213 -21q24 169 90 420q-40 -19 -76 -51.5t-71.5 -83.5t-57.5 -88.5t-60 -106.5zM947 666l163 180h27l96 -186l-25 -12 l-88 170l-151 -169z" />
<glyph unicode="&#xc3;" horiz-adv-x="1149" d="M53 124q0 111 71 197t191 86q106 0 165 -67q14 -18 20 -27q54 -23 123 -76q52 -42 77 -58q7 13 20.5 37t17.5 31q25 46 38 69t39 65t42.5 63.5t44 54t50 48.5t54.5 34t62.5 23t68 4t77.5 -12l-5 -19q-24 7 -51 10q-100 -393 -115 -628q13 0 25.5 7t18.5 14l6 7l15 -12 q-3 -4 -8 -10t-24.5 -16t-42.5 -10q-112 0 -112 97q0 30 7 89q-48 -15 -86 -15q-67 0 -134 41q-39 -67 -73 -114.5t-79.5 -92.5t-100 -68t-117.5 -23q-138 0 -216 84q-69 77 -69 187zM73 124q0 -114 74 -182.5t191 -68.5q59 0 111 22.5t95.5 66t76 89.5t70.5 111 q-34 22 -80 59q-51 40 -96 63q17 -42 17 -87q0 -74 -42.5 -131t-114.5 -57q-47 0 -76.5 28t-29.5 63q0 25 9 44.5t20.5 29.5t25 16.5t21 8t9.5 1.5l2 -20q-6 0 -19 -4t-30.5 -24t-17.5 -52q0 -28 23.5 -49.5t62.5 -21.5q64 0 101 50t37 118q0 54 -25 99q-55 21 -109 21 q-104 0 -147 -97l-19 6l1 1q5 12 12.5 24t26.5 35t52 37t74 14q45 0 89 -13l-2 3q-55 60 -151 60q-111 0 -176.5 -80t-65.5 -183zM718 168q107 -63 213 -21q24 169 90 420q-40 -19 -76 -51.5t-71.5 -83.5t-57.5 -88.5t-60 -106.5zM843 651q2 5 6 14t18 31.5t30.5 39.5 t43.5 31t57 14t47.5 -11t24 -27t12 -32t17 -27t32.5 -11q36 0 67 27t44 54l12 27h26q-2 -5 -5.5 -14t-16.5 -32t-28.5 -40.5t-43 -32t-58.5 -14.5q-35 0 -53 17t-22 37.5t-18 37.5t-41 17q-32 0 -62 -26.5t-44 -52.5l-14 -27h-31z" />
<glyph unicode="&#xc4;" horiz-adv-x="1149" d="M53 124q0 111 71 197t191 86q106 0 165 -67q14 -18 20 -27q54 -23 123 -76q52 -42 77 -58q7 13 20.5 37t17.5 31q25 46 38 69t39 65t42.5 63.5t44 54t50 48.5t54.5 34t62.5 23t68 4t77.5 -12l-5 -19q-24 7 -51 10q-100 -393 -115 -628q13 0 25.5 7t18.5 14l6 7l15 -12 q-3 -4 -8 -10t-24.5 -16t-42.5 -10q-112 0 -112 97q0 30 7 89q-48 -15 -86 -15q-67 0 -134 41q-39 -67 -73 -114.5t-79.5 -92.5t-100 -68t-117.5 -23q-138 0 -216 84q-69 77 -69 187zM73 124q0 -114 74 -182.5t191 -68.5q59 0 111 22.5t95.5 66t76 89.5t70.5 111 q-34 22 -80 59q-51 40 -96 63q17 -42 17 -87q0 -74 -42.5 -131t-114.5 -57q-47 0 -76.5 28t-29.5 63q0 25 9 44.5t20.5 29.5t25 16.5t21 8t9.5 1.5l2 -20q-6 0 -19 -4t-30.5 -24t-17.5 -52q0 -28 23.5 -49.5t62.5 -21.5q64 0 101 50t37 118q0 54 -25 99q-55 21 -109 21 q-104 0 -147 -97l-19 6l1 1q5 12 12.5 24t26.5 35t52 37t74 14q45 0 89 -13l-2 3q-55 60 -151 60q-111 0 -176.5 -80t-65.5 -183zM718 168q107 -63 213 -21q24 169 90 420q-40 -19 -76 -51.5t-71.5 -83.5t-57.5 -88.5t-60 -106.5zM949 706q0 24 17 41.5t41 17.5t41.5 -17.5 t17.5 -41.5t-17.5 -41t-41.5 -17q-25 0 -41.5 16.5t-16.5 41.5zM1109 706q0 24 17 41.5t41 17.5t41.5 -17.5t17.5 -41.5t-17.5 -41t-41.5 -17q-25 0 -41.5 16.5t-16.5 41.5z" />
<glyph unicode="&#xc5;" horiz-adv-x="1149" d="M53 124q0 111 71 197t191 86q106 0 165 -67q14 -18 20 -27q54 -23 123 -76q52 -42 77 -58q7 13 20.5 37t17.5 31q25 46 38 69t39 65t42.5 63.5t44 54t50 48.5t54.5 34t62.5 23t68 4t77.5 -12l-5 -19q-24 7 -51 10q-100 -393 -115 -628q13 0 25.5 7t18.5 14l6 7l15 -12 q-3 -4 -8 -10t-24.5 -16t-42.5 -10q-112 0 -112 97q0 30 7 89q-48 -15 -86 -15q-67 0 -134 41q-39 -67 -73 -114.5t-79.5 -92.5t-100 -68t-117.5 -23q-138 0 -216 84q-69 77 -69 187zM73 124q0 -114 74 -182.5t191 -68.5q59 0 111 22.5t95.5 66t76 89.5t70.5 111 q-34 22 -80 59q-51 40 -96 63q17 -42 17 -87q0 -74 -42.5 -131t-114.5 -57q-47 0 -76.5 28t-29.5 63q0 25 9 44.5t20.5 29.5t25 16.5t21 8t9.5 1.5l2 -20q-6 0 -19 -4t-30.5 -24t-17.5 -52q0 -28 23.5 -49.5t62.5 -21.5q64 0 101 50t37 118q0 54 -25 99q-55 21 -109 21 q-104 0 -147 -97l-19 6l1 1q5 12 12.5 24t26.5 35t52 37t74 14q45 0 89 -13l-2 3q-55 60 -151 60q-111 0 -176.5 -80t-65.5 -183zM718 168q107 -63 213 -21q24 169 90 420q-40 -19 -76 -51.5t-71.5 -83.5t-57.5 -88.5t-60 -106.5zM1049 697q0 20 15 34.5t35 14.5t34.5 -14.5 t14.5 -34.5t-14.5 -34.5t-34.5 -14.5t-35 14.5t-15 34.5zM1069 697q0 -12 9 -21t21 -9q13 0 22 9t9 21q0 13 -9 22t-22 9q-12 0 -21 -9t-9 -22z" />
<glyph unicode="&#xc6;" horiz-adv-x="1417" d="M53 124q0 111 71 197t191 86q106 0 165 -67q14 -18 20 -27q54 -23 123 -76q52 -42 77 -58q7 13 20.5 37t17.5 31q27 50 43 77.5t43.5 71.5t48.5 69.5t51.5 56.5t59.5 47.5t65.5 28t75.5 11.5q27 0 82 -9.5t96 -9.5q105 0 150 20q6 36 6 55h23q0 -57 -42.5 -160.5 t-42.5 -148.5h-22q0 47 34 131t39 102q-44 -17 -145 -17q-36 0 -62 2.5t-49.5 7.5t-32.5 6q-39 -142 -74 -332h320l-2 -18h-321q-26 -142 -39 -279q61 -2 154 27.5t168 33.5l-3 -20q-64 -3 -159 -32t-170 -29q-112 0 -112 97q0 30 7 89q-41 -15 -86 -15q-67 0 -134 41 q-39 -67 -73 -114.5t-79.5 -92.5t-100 -68t-117.5 -23q-138 0 -216 84q-69 77 -69 187zM73 124q0 -114 74 -182.5t191 -68.5q59 0 111 22.5t95.5 66t76 89.5t70.5 111q-34 22 -80 59q-51 40 -96 63q17 -42 17 -87q0 -74 -42.5 -131t-114.5 -57q-47 0 -76.5 28t-29.5 63 q0 25 9 44.5t20.5 29.5t25 16.5t21 8t9.5 1.5l2 -20q-6 0 -19 -4t-30.5 -24t-17.5 -52q0 -28 23.5 -49.5t62.5 -21.5q64 0 101 50t37 118q0 54 -25 99q-55 21 -109 21q-104 0 -147 -97l-19 6l1 1q5 12 12.5 24t26.5 35t52 37t74 14q45 0 89 -13l-2 3q-55 60 -151 60 q-111 0 -176.5 -80t-65.5 -183zM718 168q67 -40 126 -40q36 0 86 18q21 152 91 421q-35 -17 -70 -49t-57 -58t-54.5 -78t-43 -70.5t-40.5 -74.5z" />
<glyph unicode="&#xc7;" horiz-adv-x="644" d="M92 194q0 181 117 298t307 117q88 0 127 -31.5t39 -98.5q0 -45 -44 -111q-40 -64 -40 -100h-22q0 20 8 43t14 33t22 36q39 59 39 97q0 22 -4.5 38t-17.5 34.5t-44 28.5t-77 10q-21 0 -61 -4q-45 -14 -83.5 -41t-77.5 -76.5t-61.5 -134.5t-22.5 -196q0 -150 97 -198 q24 -3 50 -3q53 0 97 15t68 37t41 44t23 37l5 15l20 -8q-2 -6 -5.5 -16t-21 -36.5t-41.5 -47t-68.5 -38.5t-99.5 -21l-4 -44h-14q-65 0 -65 -45q0 -22 14.5 -31t46.5 -9q21 0 39 5.5t26 11.5l8 6l9 -18q-26 -25 -83 -25q-83 0 -83 60q0 29 22 47t63 18l2 23 q-126 1 -195 73.5t-69 205.5z" />
<glyph unicode="&#xc8;" horiz-adv-x="563" d="M65 112q0 70 45.5 113t107.5 60q-45 55 -45 124q0 82 60.5 141t174.5 59q87 0 133.5 -30.5t46.5 -80.5q0 -41 -23.5 -88.5t-26.5 -75.5h-21q3 30 26.5 77t23.5 86q0 42 -42.5 68t-100.5 26q-73 0 -119 -50.5t-46 -154.5q0 -28 3.5 -48t7.5 -26l3 -6q52 17 117 17 q73 0 73 -40q0 -24 -26 -39.5t-75 -15.5q-77 0 -124 37q-18 -19 -28 -32t-22.5 -50t-12.5 -84q0 -57 44 -95.5t92 -38.5q47 0 88 18t65 42t42.5 52.5t24.5 43.5t8 22l20 -5q0 -3 -7.5 -21t-27.5 -47.5t-48 -57t-77 -47.5t-107 -20q-107 0 -167 45.5t-60 121.5zM281 289 q2 -5 7 -12t25.5 -19t48.5 -12q40 0 60.5 10.5t20.5 24.5q0 24 -53 24q-55 0 -109 -16zM350 754l26 10l53 -106l-26 -10z" />
<glyph unicode="&#xc9;" horiz-adv-x="563" d="M65 112q0 70 45.5 113t107.5 60q-45 55 -45 124q0 82 60.5 141t174.5 59q87 0 133.5 -30.5t46.5 -80.5q0 -41 -23.5 -88.5t-26.5 -75.5h-21q3 30 26.5 77t23.5 86q0 42 -42.5 68t-100.5 26q-73 0 -119 -50.5t-46 -154.5q0 -28 3.5 -48t7.5 -26l3 -6q52 17 117 17 q73 0 73 -40q0 -24 -26 -39.5t-75 -15.5q-77 0 -124 37q-18 -19 -28 -32t-22.5 -50t-12.5 -84q0 -57 44 -95.5t92 -38.5q47 0 88 18t65 42t42.5 52.5t24.5 43.5t8 22l20 -5q0 -3 -7.5 -21t-27.5 -47.5t-48 -57t-77 -47.5t-107 -20q-107 0 -167 45.5t-60 121.5zM281 289 q2 -5 7 -12t25.5 -19t48.5 -12q40 0 60.5 10.5t20.5 24.5q0 24 -53 24q-55 0 -109 -16zM408 658l53 106l26 -10l-53 -106z" />
<glyph unicode="&#xca;" horiz-adv-x="563" d="M65 112q0 70 45.5 113t107.5 60q-45 55 -45 124q0 82 60.5 141t174.5 59q87 0 133.5 -30.5t46.5 -80.5q0 -41 -23.5 -88.5t-26.5 -75.5h-21q3 30 26.5 77t23.5 86q0 42 -42.5 68t-100.5 26q-73 0 -119 -50.5t-46 -154.5q0 -28 3.5 -48t7.5 -26l3 -6q52 17 117 17 q73 0 73 -40q0 -24 -26 -39.5t-75 -15.5q-77 0 -124 37q-18 -19 -28 -32t-22.5 -50t-12.5 -84q0 -57 44 -95.5t92 -38.5q47 0 88 18t65 42t42.5 52.5t24.5 43.5t8 22l20 -5q0 -3 -7.5 -21t-27.5 -47.5t-48 -57t-77 -47.5t-107 -20q-107 0 -167 45.5t-60 121.5zM274 666 l163 180h27l96 -186l-25 -12l-88 170l-151 -169zM281 289q2 -5 7 -12t25.5 -19t48.5 -12q40 0 60.5 10.5t20.5 24.5q0 24 -53 24q-55 0 -109 -16z" />
<glyph unicode="&#xcb;" horiz-adv-x="563" d="M65 112q0 70 45.5 113t107.5 60q-45 55 -45 124q0 82 60.5 141t174.5 59q87 0 133.5 -30.5t46.5 -80.5q0 -41 -23.5 -88.5t-26.5 -75.5h-21q3 30 26.5 77t23.5 86q0 42 -42.5 68t-100.5 26q-73 0 -119 -50.5t-46 -154.5q0 -28 3.5 -48t7.5 -26l3 -6q52 17 117 17 q73 0 73 -40q0 -24 -26 -39.5t-75 -15.5q-77 0 -124 37q-18 -19 -28 -32t-22.5 -50t-12.5 -84q0 -57 44 -95.5t92 -38.5q47 0 88 18t65 42t42.5 52.5t24.5 43.5t8 22l20 -5q0 -3 -7.5 -21t-27.5 -47.5t-48 -57t-77 -47.5t-107 -20q-107 0 -167 45.5t-60 121.5zM271 706 q0 24 17 41.5t41 17.5t41.5 -17.5t17.5 -41.5t-17.5 -41t-41.5 -17q-25 0 -41.5 16.5t-16.5 41.5zM281 289q2 -5 7 -12t25.5 -19t48.5 -12q40 0 60.5 10.5t20.5 24.5q0 24 -53 24q-55 0 -109 -16zM431 706q0 24 17 41.5t41 17.5t41.5 -17.5t17.5 -41.5t-17.5 -41t-41.5 -17 q-25 0 -41.5 16.5t-16.5 41.5z" />
<glyph unicode="&#xcc;" horiz-adv-x="611" d="M90 369q0 240 207 240q67 0 189 -51t186 -51v-23q-26 0 -59 7q-3 -1 -7.5 -4.5t-19.5 -21t-29.5 -43.5t-35.5 -77t-39 -117h108l-2 -18h-111q-7 -23 -16 -63q-41 -179 -86.5 -255.5t-133.5 -76.5q-26 0 -44.5 3t-23.5 6l-5 3l10 21q14 -14 69 -14q7 0 23 2l71 308 q3 13 9 37t7 29h-109l2 18h111q39 147 77.5 214.5t90.5 74.5q-12 5 -53.5 23t-60 25t-51.5 15t-61 8q-95 0 -142.5 -52t-47.5 -167h-23zM507 754l26 10l53 -106l-26 -10z" />
<glyph unicode="&#xcd;" horiz-adv-x="611" d="M90 369q0 240 207 240q67 0 189 -51t186 -51v-23q-26 0 -59 7q-3 -1 -7.5 -4.5t-19.5 -21t-29.5 -43.5t-35.5 -77t-39 -117h108l-2 -18h-111q-7 -23 -16 -63q-41 -179 -86.5 -255.5t-133.5 -76.5q-26 0 -44.5 3t-23.5 6l-5 3l10 21q14 -14 69 -14q7 0 23 2l71 308 q3 13 9 37t7 29h-109l2 18h111q39 147 77.5 214.5t90.5 74.5q-12 5 -53.5 23t-60 25t-51.5 15t-61 8q-95 0 -142.5 -52t-47.5 -167h-23zM579 658l53 106l26 -10l-53 -106z" />
<glyph unicode="&#xce;" horiz-adv-x="611" d="M90 369q0 240 207 240q67 0 189 -51t186 -51v-23q-26 0 -59 7q-3 -1 -7.5 -4.5t-19.5 -21t-29.5 -43.5t-35.5 -77t-39 -117h108l-2 -18h-111q-7 -23 -16 -63q-41 -179 -86.5 -255.5t-133.5 -76.5q-26 0 -44.5 3t-23.5 6l-5 3l10 21q14 -14 69 -14q7 0 23 2l71 308 q3 13 9 37t7 29h-109l2 18h111q39 147 77.5 214.5t90.5 74.5q-12 5 -53.5 23t-60 25t-51.5 15t-61 8q-95 0 -142.5 -52t-47.5 -167h-23zM423 666l163 180h27l96 -186l-25 -12l-88 170l-151 -169z" />
<glyph unicode="&#xcf;" horiz-adv-x="611" d="M90 369q0 240 207 240q67 0 189 -51t186 -51v-23q-26 0 -59 7q-3 -1 -7.5 -4.5t-19.5 -21t-29.5 -43.5t-35.5 -77t-39 -117h108l-2 -18h-111q-7 -23 -16 -63q-41 -179 -86.5 -255.5t-133.5 -76.5q-26 0 -44.5 3t-23.5 6l-5 3l10 21q14 -14 69 -14q7 0 23 2l71 308 q3 13 9 37t7 29h-109l2 18h111q39 147 77.5 214.5t90.5 74.5q-12 5 -53.5 23t-60 25t-51.5 15t-61 8q-95 0 -142.5 -52t-47.5 -167h-23zM424 706q0 24 17 41.5t41 17.5t41.5 -17.5t17.5 -41.5t-17.5 -41t-41.5 -17q-25 0 -41.5 16.5t-16.5 41.5zM584 706q0 24 17 41.5 t41 17.5t41.5 -17.5t17.5 -41.5t-17.5 -41t-41.5 -17q-25 0 -41.5 16.5t-16.5 41.5z" />
<glyph unicode="&#xd0;" horiz-adv-x="970" d="M105 293q0 78 44 146.5t136 112.5q-66 56 -174 74l4 19q121 -22 189 -85q121 49 293 49q177 0 277 -79.5t100 -221.5q0 -71 -25 -136.5t-72.5 -120t-127 -87.5t-179.5 -33q-67 0 -125 16q-69 -49 -147 -49v19q39 1 56.5 10.5t30.5 40.5q-52 23 -91 58.5t-52.5 57.5 t-13.5 26l18 7q0 -4 12.5 -24t49 -53.5t84.5 -54.5q14 35 23 87l19 112h-82l2 18h83l67 384q-104 -8 -184 -41q76 -81 67 -196q-7 -77 -52.5 -128t-108.5 -51q-57 0 -89 36.5t-32 86.5zM124 293q0 -41 26.5 -72.5t75.5 -31.5q56 0 96 46t46 117q11 106 -68 185 q-90 -41 -133 -105.5t-43 -138.5zM464 -39q53 -12 106 -12q95 0 171 31.5t121.5 83.5t69 114.5t23.5 129.5q0 125 -86 199t-240 82q-45 -297 -61 -387h169l-2 -18h-170q-4 -19 -13 -71q-18 -92 -88 -152z" />
<glyph unicode="&#xd1;" horiz-adv-x="1287" d="M21 90l19 -3q-9 -96 46 -159q59 -67 157 -67q122 0 214 80t198 278l170 310q-103 2 -205 35q-82 26 -154 26q-80 0 -130.5 -52t-50.5 -135h-19q0 91 56 149t144 58q70 0 160 -28q111 -33 226 -33l160 -435q41 65 85.5 140.5t70 121t56 92.5t55 72t56 40.5t68.5 15.5v-20 q-39 0 -71.5 -20.5t-68 -69t-64.5 -97.5t-81 -138.5t-97 -159.5q29 -71 43 -99q29 -56 52.5 -80t60.5 -24q20 0 36.5 7.5t26 18t16 21.5t8.5 19l3 7h22q-1 -4 -2.5 -11t-11.5 -25t-25 -32t-45.5 -25t-69.5 -11q-84 0 -136 41.5t-88 125.5l-139 369l-101 -184 q-109 -204 -204 -286t-224 -82q-103 0 -171 73q-62 69 -51 176zM903 611q2 5 6 14t18 31.5t30.5 39.5t43.5 31t57 14t47.5 -11t24 -27t12 -32t17 -27t32.5 -11q36 0 67 27t44 54l12 27h26q-2 -5 -5.5 -14t-16.5 -32t-28.5 -40.5t-43 -32t-58.5 -14.5q-35 0 -53 17t-22 37.5 t-18 37.5t-41 17q-32 0 -62 -26.5t-44 -52.5l-14 -27h-31z" />
<glyph unicode="&#xd2;" horiz-adv-x="748" d="M89 174q0 179 114 304t284 132l1 -20q-65 -2 -116.5 -32.5t-83 -77t-52 -108t-28.5 -119.5t-8 -117q0 -110 52.5 -162t119.5 -52q91 0 173.5 60.5t129.5 152t47 184.5q0 99 -43 153.5t-122 54.5q-95 0 -149 -66t-54 -155q0 -39 12 -68t27 -43t34 -23t28.5 -10.5 t14.5 -1.5l-1 -20q-4 0 -15 2t-33 12t-40 26t-32.5 49t-14.5 77q0 97 59.5 168.5t163.5 71.5q87 0 136 -60t49 -167q0 -75 -29.5 -150.5t-80 -135.5t-126 -98t-160.5 -38q-121 0 -189 73.5t-68 203.5zM495 754l26 10l53 -106l-26 -10z" />
<glyph unicode="&#xd3;" horiz-adv-x="748" d="M89 174q0 179 114 304t284 132l1 -20q-65 -2 -116.5 -32.5t-83 -77t-52 -108t-28.5 -119.5t-8 -117q0 -110 52.5 -162t119.5 -52q91 0 173.5 60.5t129.5 152t47 184.5q0 99 -43 153.5t-122 54.5q-95 0 -149 -66t-54 -155q0 -39 12 -68t27 -43t34 -23t28.5 -10.5 t14.5 -1.5l-1 -20q-4 0 -15 2t-33 12t-40 26t-32.5 49t-14.5 77q0 97 59.5 168.5t163.5 71.5q87 0 136 -60t49 -167q0 -75 -29.5 -150.5t-80 -135.5t-126 -98t-160.5 -38q-121 0 -189 73.5t-68 203.5zM583 658l53 106l26 -10l-53 -106z" />
<glyph unicode="&#xd4;" horiz-adv-x="748" d="M89 174q0 179 114 304t284 132l1 -20q-65 -2 -116.5 -32.5t-83 -77t-52 -108t-28.5 -119.5t-8 -117q0 -110 52.5 -162t119.5 -52q91 0 173.5 60.5t129.5 152t47 184.5q0 99 -43 153.5t-122 54.5q-95 0 -149 -66t-54 -155q0 -39 12 -68t27 -43t34 -23t28.5 -10.5 t14.5 -1.5l-1 -20q-4 0 -15 2t-33 12t-40 26t-32.5 49t-14.5 77q0 97 59.5 168.5t163.5 71.5q87 0 136 -60t49 -167q0 -75 -29.5 -150.5t-80 -135.5t-126 -98t-160.5 -38q-121 0 -189 73.5t-68 203.5zM392 666l163 180h27l96 -186l-25 -12l-88 170l-151 -169z" />
<glyph unicode="&#xd5;" horiz-adv-x="748" d="M89 174q0 179 114 304t284 132l1 -20q-65 -2 -116.5 -32.5t-83 -77t-52 -108t-28.5 -119.5t-8 -117q0 -110 52.5 -162t119.5 -52q91 0 173.5 60.5t129.5 152t47 184.5q0 99 -43 153.5t-122 54.5q-95 0 -149 -66t-54 -155q0 -39 12 -68t27 -43t34 -23t28.5 -10.5 t14.5 -1.5l-1 -20q-4 0 -15 2t-33 12t-40 26t-32.5 49t-14.5 77q0 97 59.5 168.5t163.5 71.5q87 0 136 -60t49 -167q0 -75 -29.5 -150.5t-80 -135.5t-126 -98t-160.5 -38q-121 0 -189 73.5t-68 203.5zM300 651q2 5 6 14t18 31.5t30.5 39.5t43.5 31t57 14t47.5 -11t24 -27 t12 -32t17 -27t32.5 -11q36 0 67 27t43 54l13 27h26q-2 -5 -5.5 -14t-16.5 -32t-28.5 -40.5t-43 -32t-58.5 -14.5q-35 0 -53 17t-22 37.5t-18 37.5t-41 17q-32 0 -62 -26.5t-44 -52.5l-14 -27h-31z" />
<glyph unicode="&#xd6;" horiz-adv-x="748" d="M89 174q0 179 114 304t284 132l1 -20q-65 -2 -116.5 -32.5t-83 -77t-52 -108t-28.5 -119.5t-8 -117q0 -110 52.5 -162t119.5 -52q91 0 173.5 60.5t129.5 152t47 184.5q0 99 -43 153.5t-122 54.5q-95 0 -149 -66t-54 -155q0 -39 12 -68t27 -43t34 -23t28.5 -10.5 t14.5 -1.5l-1 -20q-4 0 -15 2t-33 12t-40 26t-32.5 49t-14.5 77q0 97 59.5 168.5t163.5 71.5q87 0 136 -60t49 -167q0 -75 -29.5 -150.5t-80 -135.5t-126 -98t-160.5 -38q-121 0 -189 73.5t-68 203.5zM371 709q0 24 17 41.5t41 17.5t41.5 -17.5t17.5 -41.5t-17.5 -41 t-41.5 -17q-25 0 -41.5 16.5t-16.5 41.5zM531 709q0 24 17 41.5t41 17.5t41.5 -17.5t17.5 -41.5t-17.5 -41t-41.5 -17q-25 0 -41.5 16.5t-16.5 41.5z" />
<glyph unicode="&#xd7;" horiz-adv-x="351" d="M34 19l154 170l-90 174l25 12l88 -170l151 169l22 -17l-154 -170l90 -174l-25 -12l-88 170l-151 -169z" />
<glyph unicode="&#xd8;" horiz-adv-x="748" d="M89 174q0 179 114 304t284 132l1 -20q-65 -2 -116.5 -32.5t-83 -77t-52 -108t-28.5 -119.5t-8 -117q0 -128 77 -184l110 223q-53 44 -53 131q0 97 59.5 168.5t163.5 71.5q9 0 13 -1l56 113l20 -10l-52 -105q70 -13 109 -71t39 -153q0 -75 -29.5 -150.5t-80 -135.5 t-126 -98t-160.5 -38q-30 0 -67 7l-57 -116l-21 9l55 113q-80 24 -123.5 92t-43.5 172zM297 -60q36 -18 75 -18q91 0 173.5 60.5t129.5 152t47 184.5q0 90 -35.5 143t-101.5 63l-170 -345q12 -7 26.5 -12t22.5 -6l8 -1l-3 -19q-29 0 -63 20zM354 306q0 -74 43 -112l164 333 h-4q-95 0 -149 -66t-54 -155z" />
<glyph unicode="&#xd9;" horiz-adv-x="898" d="M85 374q0 104 64 169.5t164 65.5q80 0 173 -31q107 -39 232 -39v-21q-75 0 -120 7q-12 -50 -35 -138.5t-32 -135t-9 -88.5q0 -56 33.5 -87.5t85.5 -31.5q54 0 89.5 35.5t52.5 77.5l118 508h21l-140 -601q-9 -37 -9 -50q0 -42 39 -42q14 0 26 7t18 15l5 7l14 -12 q-2 -4 -6.5 -10t-20.5 -16t-36 -10q-31 0 -45.5 17t-14.5 41l12 66l5 23q-27 -42 -72.5 -75.5t-100.5 -33.5q-92 0 -141 48.5t-49 131.5q0 35 6.5 77t14 72.5t27.5 107t32 125.5q-79 34 -173 34q-91 0 -148.5 -59t-57.5 -154h-22zM699 754l26 10l53 -106l-26 -10z" />
<glyph unicode="&#xda;" horiz-adv-x="898" d="M85 374q0 104 64 169.5t164 65.5q80 0 173 -31q107 -39 232 -39v-21q-75 0 -120 7q-12 -50 -35 -138.5t-32 -135t-9 -88.5q0 -56 33.5 -87.5t85.5 -31.5q54 0 89.5 35.5t52.5 77.5l118 508h21l-140 -601q-9 -37 -9 -50q0 -42 39 -42q14 0 26 7t18 15l5 7l14 -12 q-2 -4 -6.5 -10t-20.5 -16t-36 -10q-31 0 -45.5 17t-14.5 41l12 66l5 23q-27 -42 -72.5 -75.5t-100.5 -33.5q-92 0 -141 48.5t-49 131.5q0 35 6.5 77t14 72.5t27.5 107t32 125.5q-79 34 -173 34q-91 0 -148.5 -59t-57.5 -154h-22zM696 658l53 106l26 -10l-53 -106z" />
<glyph unicode="&#xdb;" horiz-adv-x="898" d="M85 374q0 104 64 169.5t164 65.5q80 0 173 -31q107 -39 232 -39v-21q-75 0 -120 7q-12 -50 -35 -138.5t-32 -135t-9 -88.5q0 -56 33.5 -87.5t85.5 -31.5q54 0 89.5 35.5t52.5 77.5l118 508h21l-140 -601q-9 -37 -9 -50q0 -42 39 -42q14 0 26 7t18 15l5 7l14 -12 q-2 -4 -6.5 -10t-20.5 -16t-36 -10q-31 0 -45.5 17t-14.5 41l12 66l5 23q-27 -42 -72.5 -75.5t-100.5 -33.5q-92 0 -141 48.5t-49 131.5q0 35 6.5 77t14 72.5t27.5 107t32 125.5q-79 34 -173 34q-91 0 -148.5 -59t-57.5 -154h-22zM517 664l163 180h27l96 -186l-25 -12 l-88 170l-151 -169z" />
<glyph unicode="&#xdc;" horiz-adv-x="898" d="M85 374q0 104 64 169.5t164 65.5q80 0 173 -31q107 -39 232 -39v-21q-75 0 -120 7q-12 -50 -35 -138.5t-32 -135t-9 -88.5q0 -56 33.5 -87.5t85.5 -31.5q54 0 89.5 35.5t52.5 77.5l118 508h21l-140 -601q-9 -37 -9 -50q0 -42 39 -42q14 0 26 7t18 15l5 7l14 -12 q-2 -4 -6.5 -10t-20.5 -16t-36 -10q-31 0 -45.5 17t-14.5 41l12 66l5 23q-27 -42 -72.5 -75.5t-100.5 -33.5q-92 0 -141 48.5t-49 131.5q0 35 6.5 77t14 72.5t27.5 107t32 125.5q-79 34 -173 34q-91 0 -148.5 -59t-57.5 -154h-22zM526 706q0 24 17 41.5t41 17.5t41.5 -17.5 t17.5 -41.5t-17.5 -41t-41.5 -17q-25 0 -41.5 16.5t-16.5 41.5zM686 706q0 24 17 41.5t41 17.5t41.5 -17.5t17.5 -41.5t-17.5 -41t-41.5 -17q-25 0 -41.5 16.5t-16.5 41.5z" />
<glyph unicode="&#xdd;" horiz-adv-x="713" d="M106 318q0 129 74.5 210t193.5 81q220 0 220 -209q0 -106 -18 -160q249 539 445 539q56 0 79 -24.5t23 -72.5h-23q-5 44 -23.5 58.5t-55.5 14.5q-62 0 -134.5 -65.5t-137 -167.5t-119 -215t-91.5 -221q-62 -179 -87 -254h-134q7 15 18.5 42t40.5 103.5t51.5 146.5t41 155 t18.5 145q0 82 -33 123t-92 41q-41 0 -81.5 -16.5t-76 -48t-57 -85t-21.5 -120.5q0 -49 16.5 -88t39.5 -59t46 -33.5t39 -17.5l17 -3l-7 -19l-2 1q-13 3 -25.5 7t-41.5 21t-49.5 38.5t-37 62t-16.5 90.5zM632 675l53 106l26 -10l-53 -106z" />
<glyph unicode="&#xde;" horiz-adv-x="601" d="M-28 -128q28 0 49 9.5t32.5 21t20.5 35t12.5 39t8.5 45.5q1 7 2 10l86 493q32 182 197 185v-26q-25 -3 -34.5 -20t-16.5 -55q83 -1 142.5 -20.5t90.5 -51.5t45 -67t14 -76q0 -63 -23.5 -114.5t-59.5 -84.5t-88 -57.5t-101 -37t-106 -20.5q-19 -101 -96 -167t-175 -66v25z M248 103q347 50 347 291q0 88 -66.5 141t-201.5 55q-37 -272 -79 -487z" />
<glyph unicode="&#xdf;" horiz-adv-x="473" d="M44 -27q52 298 68 387t60 133.5t145 44.5q80 0 125.5 -37t45.5 -99q0 -69 -39 -104.5t-95 -47.5q116 -20 116 -110q0 -65 -47.5 -107t-142.5 -42q-86 0 -129 45l-88 -63h-19zM172 57q26 -33 72 -33q48 0 76.5 39.5t28.5 94.5q0 67 -65 84l-20 1l4 22q56 0 85 34.5 t29 131.5q0 83 -59 83q-69 0 -91 -128z" />
<glyph unicode="&#xe0;" horiz-adv-x="484" d="M59 145q0 114 56 179t145 65q73 0 97 -69q5 30 11 60q34 0 65 2t45 4l13 3l-69 -378q30 3 50 28l15 -12q-30 -36 -75 -36q-88 0 -96 77q-44 -77 -112 -77q-66 0 -105.5 40.5t-39.5 113.5zM172 94q0 -45 11.5 -62.5t33.5 -17.5q26 0 50.5 25.5t35.5 47t18 39.5q2 8 5 24.5 t9 52t12 67.5q-3 38 -21 66t-45 28q-49 0 -79 -87.5t-30 -182.5zM232 564l26 10l53 -106l-26 -10z" />
<glyph unicode="&#xe1;" horiz-adv-x="484" d="M59 145q0 114 56 179t145 65q73 0 97 -69q5 30 11 60q34 0 65 2t45 4l13 3l-69 -378q30 3 50 28l15 -12q-30 -36 -75 -36q-88 0 -96 77q-44 -77 -112 -77q-66 0 -105.5 40.5t-39.5 113.5zM172 94q0 -45 11.5 -62.5t33.5 -17.5q26 0 50.5 25.5t35.5 47t18 39.5q2 8 5 24.5 t9 52t12 67.5q-3 38 -21 66t-45 28q-49 0 -79 -87.5t-30 -182.5zM274 468l53 106l26 -10l-53 -106z" />
<glyph unicode="&#xe2;" horiz-adv-x="484" d="M59 145q0 114 56 179t145 65q73 0 97 -69q5 30 11 60q34 0 65 2t45 4l13 3l-69 -378q30 3 50 28l15 -12q-30 -36 -75 -36q-88 0 -96 77q-44 -77 -112 -77q-66 0 -105.5 40.5t-39.5 113.5zM172 94q0 -45 11.5 -62.5t33.5 -17.5q26 0 50.5 25.5t35.5 47t18 39.5q2 8 5 24.5 t9 52t12 67.5q-3 38 -21 66t-45 28q-49 0 -79 -87.5t-30 -182.5zM183 453l163 180h27l96 -186l-25 -12l-88 170l-151 -169z" />
<glyph unicode="&#xe3;" horiz-adv-x="484" d="M59 145q0 114 56 179t145 65q73 0 97 -69q5 30 11 60q34 0 65 2t45 4l13 3l-69 -378q30 3 50 28l15 -12q-30 -36 -75 -36q-88 0 -96 77q-44 -77 -112 -77q-66 0 -105.5 40.5t-39.5 113.5zM91 439q2 5 6 14t18 31.5t30.5 39.5t43.5 31t57 14t47.5 -11t24 -27t12 -32 t17 -27t32.5 -11q36 0 67 27t44 54l12 27h26q-2 -5 -5.5 -14t-16.5 -32t-28.5 -40.5t-43 -32t-58.5 -14.5q-35 0 -53 17t-22 37.5t-18 37.5t-41 17q-32 0 -62 -26.5t-44 -52.5l-14 -27h-31zM172 94q0 -45 11.5 -62.5t33.5 -17.5q26 0 50.5 25.5t35.5 47t18 39.5q2 8 5 24.5 t9 52t12 67.5q-3 38 -21 66t-45 28q-49 0 -79 -87.5t-30 -182.5z" />
<glyph unicode="&#xe4;" horiz-adv-x="484" d="M59 145q0 114 56 179t145 65q73 0 97 -69q5 30 11 60q34 0 65 2t45 4l13 3l-69 -378q30 3 50 28l15 -12q-30 -36 -75 -36q-88 0 -96 77q-44 -77 -112 -77q-66 0 -105.5 40.5t-39.5 113.5zM172 94q0 -45 11.5 -62.5t33.5 -17.5q26 0 50.5 25.5t35.5 47t18 39.5q2 8 5 24.5 t9 52t12 67.5q-3 38 -21 66t-45 28q-49 0 -79 -87.5t-30 -182.5zM173 493q0 24 17 41.5t41 17.5t41.5 -17.5t17.5 -41.5t-17.5 -41t-41.5 -17q-25 0 -41.5 16.5t-16.5 41.5zM333 493q0 24 17 41.5t41 17.5t41.5 -17.5t17.5 -41.5t-17.5 -41t-41.5 -17q-25 0 -41.5 16.5 t-16.5 41.5z" />
<glyph unicode="&#xe5;" horiz-adv-x="484" d="M59 145q0 114 56 179t145 65q73 0 97 -69q5 30 11 60q34 0 65 2t45 4l13 3l-69 -378q30 3 50 28l15 -12q-30 -36 -75 -36q-88 0 -96 77q-44 -77 -112 -77q-66 0 -105.5 40.5t-39.5 113.5zM172 94q0 -45 11.5 -62.5t33.5 -17.5q26 0 50.5 25.5t35.5 47t18 39.5q2 8 5 24.5 t9 52t12 67.5q-3 38 -21 66t-45 28q-49 0 -79 -87.5t-30 -182.5zM268 484q0 20 15 34.5t35 14.5t34.5 -14.5t14.5 -34.5t-14.5 -34.5t-34.5 -14.5t-35 14.5t-15 34.5zM288 484q0 -12 9 -21t21 -9q13 0 22 9t9 21q0 13 -9 22t-22 9q-12 0 -21 -9t-9 -22z" />
<glyph unicode="&#xe6;" horiz-adv-x="660" d="M59 145q0 114 56 179t145 65q84 0 102 -92q57 92 176 92q127 0 127 -101q0 -63 -59.5 -95.5t-169.5 -33.5q-2 -36 -2 -57q0 -45 20.5 -66.5t52.5 -21.5q30 0 55.5 12t40.5 28.5t26 34.5t15.5 29t4.5 13l18 -8q-1 -5 -4 -14t-16 -32t-31 -40t-53 -31.5t-78 -14.5 q-132 0 -158 97q-46 -97 -123 -97q-66 0 -105.5 40.5t-39.5 113.5zM172 94q0 -45 11.5 -62.5t33.5 -17.5q26 0 50.5 25t35 45.5t18.5 40.5v10q0 78 26 135q-3 39 -21 66.5t-45 27.5q-49 0 -79 -87.5t-30 -182.5zM439 182q201 1 201 106q0 33 -19.5 54.5t-53.5 21.5 q-43 0 -79.5 -46t-48.5 -136z" />
<glyph unicode="&#xe7;" horiz-adv-x="406" d="M58 135q0 119 59.5 186.5t161.5 67.5q46 0 78.5 -16.5t48.5 -45t16 -65.5q0 -36 -21.5 -55t-49.5 -19q-30 0 -51 21t-21 51t21 51.5t51 21.5q9 0 23 -4q-9 16 -28.5 25.5t-41.5 9.5q-53 0 -93 -66t-40 -196q0 -45 20.5 -66.5t52.5 -21.5q30 0 55.5 12t40.5 28.5t26 34.5 t15.5 29t4.5 13l18 -8l-12 -32q-43 -86 -142 -98l-9 -56h-16q-35 0 -55.5 -14.5t-20.5 -39.5q0 -48 72 -48q23 0 43.5 6.5t29.5 12.5l9 7l10 -17q-29 -28 -93 -28q-93 0 -93 68q0 33 24.5 52.5t73.5 19.5l7 35h-10q-81 0 -122.5 38.5t-41.5 105.5z" />
<glyph unicode="&#xe8;" horiz-adv-x="397" d="M58 135q0 119 59 186.5t158 67.5q127 0 127 -101q0 -63 -59.5 -95.5t-169.5 -33.5q-2 -36 -2 -57q0 -45 20.5 -66.5t52.5 -21.5q30 0 55.5 12t40.5 28.5t26 34.5t15.5 29t4.5 13l18 -8q-1 -5 -4 -14t-16 -32t-31 -40t-53 -31.5t-78 -14.5q-81 0 -122.5 38.5t-41.5 105.5z M176 182q201 1 201 106q0 33 -19.5 54.5t-53.5 21.5q-43 0 -79.5 -46t-48.5 -136zM221 564l26 10l53 -106l-26 -10z" />
<glyph unicode="&#xe9;" horiz-adv-x="397" d="M58 135q0 119 59 186.5t158 67.5q127 0 127 -101q0 -63 -59.5 -95.5t-169.5 -33.5q-2 -36 -2 -57q0 -45 20.5 -66.5t52.5 -21.5q30 0 55.5 12t40.5 28.5t26 34.5t15.5 29t4.5 13l18 -8q-1 -5 -4 -14t-16 -32t-31 -40t-53 -31.5t-78 -14.5q-81 0 -122.5 38.5t-41.5 105.5z M176 182q201 1 201 106q0 33 -19.5 54.5t-53.5 21.5q-43 0 -79.5 -46t-48.5 -136zM261 468l53 106l26 -10l-53 -106z" />
<glyph unicode="&#xea;" horiz-adv-x="397" d="M58 135q0 119 59 186.5t158 67.5q127 0 127 -101q0 -63 -59.5 -95.5t-169.5 -33.5q-2 -36 -2 -57q0 -45 20.5 -66.5t52.5 -21.5q30 0 55.5 12t40.5 28.5t26 34.5t15.5 29t4.5 13l18 -8q-1 -5 -4 -14t-16 -32t-31 -40t-53 -31.5t-78 -14.5q-81 0 -122.5 38.5t-41.5 105.5z M141 453l163 180h27l96 -186l-25 -12l-88 170l-151 -169zM176 182q201 1 201 106q0 33 -19.5 54.5t-53.5 21.5q-43 0 -79.5 -46t-48.5 -136z" />
<glyph unicode="&#xeb;" horiz-adv-x="397" d="M58 135q0 119 59 186.5t158 67.5q127 0 127 -101q0 -63 -59.5 -95.5t-169.5 -33.5q-2 -36 -2 -57q0 -45 20.5 -66.5t52.5 -21.5q30 0 55.5 12t40.5 28.5t26 34.5t15.5 29t4.5 13l18 -8q-1 -5 -4 -14t-16 -32t-31 -40t-53 -31.5t-78 -14.5q-81 0 -122.5 38.5t-41.5 105.5z M129 493q0 24 17 41.5t41 17.5t41.5 -17.5t17.5 -41.5t-17.5 -41t-41.5 -17q-25 0 -41.5 16.5t-16.5 41.5zM176 182q201 1 201 106q0 33 -19.5 54.5t-53.5 21.5q-43 0 -79.5 -46t-48.5 -136zM289 493q0 24 17 41.5t41 17.5t41.5 -17.5t17.5 -41.5t-17.5 -41t-41.5 -17 q-25 0 -41.5 16.5t-16.5 41.5z" />
<glyph unicode="&#xec;" horiz-adv-x="242" d="M73 79q0 8 2 26q5 26 47 257h-42l2 18h43q34 0 65 2t44 4l14 3l-69 -378q30 3 50 28l15 -12q-30 -36 -75 -36q-46 0 -71 23t-25 65zM126 564l26 10l53 -106l-26 -10z" />
<glyph unicode="&#xed;" horiz-adv-x="242" d="M73 79q0 8 2 26q5 26 47 257h-42l2 18h43q34 0 65 2t44 4l14 3l-69 -378q30 3 50 28l15 -12q-30 -36 -75 -36q-46 0 -71 23t-25 65zM172 445l53 106l26 -10l-53 -106z" />
<glyph unicode="&#xee;" horiz-adv-x="242" d="M44 453l163 180h27l96 -186l-25 -12l-88 170l-151 -169zM73 79q0 8 2 26q5 26 47 257h-42l2 18h43q34 0 65 2t44 4l14 3l-69 -378q30 3 50 28l15 -12q-30 -36 -75 -36q-46 0 -71 23t-25 65z" />
<glyph unicode="&#xef;" horiz-adv-x="242" d="M51 493q0 24 17 41.5t41 17.5t41.5 -17.5t17.5 -41.5t-17.5 -41t-41.5 -17q-25 0 -41.5 16.5t-16.5 41.5zM73 79q0 8 2 26q5 26 47 257h-42l2 18h43q34 0 65 2t44 4l14 3l-69 -378q30 3 50 28l15 -12q-30 -36 -75 -36q-46 0 -71 23t-25 65zM211 493q0 24 17 41.5t41 17.5 t41.5 -17.5t17.5 -41.5t-17.5 -41t-41.5 -17q-25 0 -41.5 16.5t-16.5 41.5z" />
<glyph unicode="&#xf0;" horiz-adv-x="430" d="M54 137q0 59 26 110t64 82.5t78 49.5t71 18v-21q-50 0 -88 -75t-38 -168q0 -105 80 -105q27 0 57.5 18.5t58.5 52t46.5 88.5t18.5 119q0 84 -33 139h-107l3 18h91q-43 51 -119 51v19q93 0 143 -70h88l-3 -18h-74q31 -57 31 -139q0 -134 -72.5 -224t-182.5 -90 q-65 0 -102 40t-37 105z" />
<glyph unicode="&#xf1;" horiz-adv-x="499" d="M62 353q30 36 75 36q46 0 71 -23t25 -65v-6q41 94 128 94q59 0 92 -33.5t33 -92.5q0 -31 -19 -119.5t-21 -132.5q12 0 24.5 7t19.5 14l6 7l15 -12q-2 -4 -7 -10t-26.5 -16t-50.5 -10q-91 0 -91 82q0 35 18 125t18 118q0 43 -41 43q-33 0 -63.5 -43t-50.5 -118l-34 -187 q31 3 51 28l15 -12q-30 -36 -75 -36t-70.5 23t-25.5 60q0 14 16 110l33 185q-30 -3 -50 -28zM96 439q2 5 6 14t18 31.5t30.5 39.5t43.5 31t57 14t47.5 -11t24 -27t12 -32t17 -27t32.5 -11q36 0 67 27t43 54l13 27h26q-2 -5 -5.5 -14t-16.5 -32t-28.5 -40.5t-43 -32 t-58.5 -14.5q-35 0 -53 17t-22 37.5t-18 37.5t-41 17q-32 0 -62 -26.5t-44 -52.5l-14 -27h-31z" />
<glyph unicode="&#xf2;" d="M59 135q0 50 10.5 91.5t34.5 80t72.5 60.5t117.5 22q76 0 116.5 -38.5t40.5 -105.5q0 -114 -60.5 -184t-174.5 -70q-77 0 -117 38.5t-40 105.5zM172 94q0 -80 46 -80q47 0 83.5 80.5t36.5 191.5q0 84 -45 84q-46 0 -83.5 -76.5t-37.5 -199.5zM215 564l26 10l53 -106 l-26 -10z" />
<glyph unicode="&#xf3;" d="M59 135q0 50 10.5 91.5t34.5 80t72.5 60.5t117.5 22q76 0 116.5 -38.5t40.5 -105.5q0 -114 -60.5 -184t-174.5 -70q-77 0 -117 38.5t-40 105.5zM172 94q0 -80 46 -80q47 0 83.5 80.5t36.5 191.5q0 84 -45 84q-46 0 -83.5 -76.5t-37.5 -199.5zM265 468l53 106l26 -10 l-53 -106z" />
<glyph unicode="&#xf4;" d="M59 135q0 50 10.5 91.5t34.5 80t72.5 60.5t117.5 22q76 0 116.5 -38.5t40.5 -105.5q0 -114 -60.5 -184t-174.5 -70q-77 0 -117 38.5t-40 105.5zM153 453l163 180h27l96 -186l-25 -12l-88 170l-151 -169zM172 94q0 -80 46 -80q47 0 83.5 80.5t36.5 191.5q0 84 -45 84 q-46 0 -83.5 -76.5t-37.5 -199.5z" />
<glyph unicode="&#xf5;" d="M59 135q0 50 10.5 91.5t34.5 80t72.5 60.5t117.5 22q76 0 116.5 -38.5t40.5 -105.5q0 -114 -60.5 -184t-174.5 -70q-77 0 -117 38.5t-40 105.5zM97 439q2 5 6 14t18 31.5t30.5 39.5t43.5 31t57 14t47.5 -11t24 -27t12 -32t17 -27t32.5 -11q36 0 67 27t44 54l12 27h26 q-2 -5 -5.5 -14t-16.5 -32t-28.5 -40.5t-43 -32t-58.5 -14.5q-35 0 -53 17t-22 37.5t-18 37.5t-41 17q-32 0 -62 -26.5t-44 -52.5l-14 -27h-31zM172 94q0 -80 46 -80q47 0 83.5 80.5t36.5 191.5q0 84 -45 84q-46 0 -83.5 -76.5t-37.5 -199.5z" />
<glyph unicode="&#xf6;" d="M59 135q0 50 10.5 91.5t34.5 80t72.5 60.5t117.5 22q76 0 116.5 -38.5t40.5 -105.5q0 -114 -60.5 -184t-174.5 -70q-77 0 -117 38.5t-40 105.5zM157 493q0 24 17 41.5t41 17.5t41.5 -17.5t17.5 -41.5t-17.5 -41t-41.5 -17q-25 0 -41.5 16.5t-16.5 41.5zM172 94 q0 -80 46 -80q47 0 83.5 80.5t36.5 191.5q0 84 -45 84q-46 0 -83.5 -76.5t-37.5 -199.5zM317 493q0 24 17 41.5t41 17.5t41.5 -17.5t17.5 -41.5t-17.5 -41t-41.5 -17q-25 0 -41.5 16.5t-16.5 41.5z" />
<glyph unicode="&#xf7;" d="M62 184l2 18h383l-2 -18h-383zM160 64q0 30 21 51.5t51 21.5t51.5 -21.5t21.5 -51.5t-21.5 -51t-51.5 -21t-51 21t-21 51zM200 316q0 30 21 51.5t51 21.5t51.5 -21.5t21.5 -51.5t-21.5 -51t-51.5 -21t-51 21t-21 51z" />
<glyph unicode="&#xf8;" d="M59 135q0 50 10.5 91.5t34.5 80t72.5 60.5t117.5 22q23 0 46 -5l80 160l26 -10l-79 -157q84 -31 84 -132q0 -114 -60.5 -184t-174.5 -70q-23 0 -41 3l-80 -159l-26 10l78 156q-88 30 -88 134zM172 94q0 -22 3 -37l150 297q-11 16 -32 16q-46 0 -83.5 -76.5t-37.5 -199.5z M190 25q11 -11 28 -11q47 0 83.5 80.5t36.5 191.5q0 12 -2 30z" />
<glyph unicode="&#xf9;" horiz-adv-x="499" d="M56 353q2 4 7 10t26.5 16t50.5 10q91 0 91 -82q0 -35 -18 -125t-18 -118q0 -43 41 -43q29 0 56.5 34t47.5 94l42 231q34 0 64.5 2t43.5 4l13 3l-67 -378q30 3 50 28l15 -12q-30 -36 -75 -36t-70 22t-26 62q-42 -84 -124 -84q-59 0 -92 33.5t-33 92.5q0 31 19 119.5 t21 132.5q-12 0 -24.5 -7t-18.5 -14l-7 -7zM236 564l26 10l53 -106l-26 -10z" />
<glyph unicode="&#xfa;" horiz-adv-x="499" d="M56 353q2 4 7 10t26.5 16t50.5 10q91 0 91 -82q0 -35 -18 -125t-18 -118q0 -43 41 -43q29 0 56.5 34t47.5 94l42 231q34 0 64.5 2t43.5 4l13 3l-67 -378q30 3 50 28l15 -12q-30 -36 -75 -36t-70 22t-26 62q-42 -84 -124 -84q-59 0 -92 33.5t-33 92.5q0 31 19 119.5 t21 132.5q-12 0 -24.5 -7t-18.5 -14l-7 -7zM280 468l53 106l26 -10l-53 -106z" />
<glyph unicode="&#xfb;" horiz-adv-x="499" d="M56 353q2 4 7 10t26.5 16t50.5 10q91 0 91 -82q0 -35 -18 -125t-18 -118q0 -43 41 -43q29 0 56.5 34t47.5 94l42 231q34 0 64.5 2t43.5 4l13 3l-67 -378q30 3 50 28l15 -12q-30 -36 -75 -36t-70 22t-26 62q-42 -84 -124 -84q-59 0 -92 33.5t-33 92.5q0 31 19 119.5 t21 132.5q-12 0 -24.5 -7t-18.5 -14l-7 -7zM171 453l163 180h27l96 -186l-25 -12l-88 170l-151 -169z" />
<glyph unicode="&#xfc;" horiz-adv-x="499" d="M56 353q2 4 7 10t26.5 16t50.5 10q91 0 91 -82q0 -35 -18 -125t-18 -118q0 -43 41 -43q29 0 56.5 34t47.5 94l42 231q34 0 64.5 2t43.5 4l13 3l-67 -378q30 3 50 28l15 -12q-30 -36 -75 -36t-70 22t-26 62q-42 -84 -124 -84q-59 0 -92 33.5t-33 92.5q0 31 19 119.5 t21 132.5q-12 0 -24.5 -7t-18.5 -14l-7 -7zM167 493q0 24 17 41.5t41 17.5t41.5 -17.5t17.5 -41.5t-17.5 -41t-41.5 -17q-25 0 -41.5 16.5t-16.5 41.5zM327 493q0 24 17 41.5t41 17.5t41.5 -17.5t17.5 -41.5t-17.5 -41t-41.5 -17q-25 0 -41.5 16.5t-16.5 41.5z" />
<glyph unicode="&#xfd;" horiz-adv-x="483" d="M55 -102q0 30 21 50.5t66 20.5q32 0 65 -12.5t48 -14.5l-2 -18q-17 2 -49 14t-62 12q-33 0 -49.5 -14t-16.5 -36q0 -31 29 -47.5t72 -16.5q104 0 128 125l25 138q-42 -92 -127 -92q-58 0 -89.5 33t-31.5 93q0 31 18.5 111.5t20.5 124.5q-12 0 -24.5 -7t-18.5 -14l-7 -7 l-15 12q2 4 7 10t26.5 16t50.5 10q91 0 91 -82q0 -35 -19 -114.5t-19 -107.5q0 -48 40 -48q33 0 64.5 45t51.5 121l33 177q34 0 64.5 2t43.5 4l13 3l-63 -354q-18 -103 -83.5 -161t-169.5 -58q-63 0 -97.5 21.5t-34.5 60.5zM285 468l53 106l26 -10l-53 -106z" />
<glyph unicode="&#xfe;" horiz-adv-x="459" d="M27 -137l112 655q-30 -3 -50 -28l-15 12q30 36 75 36q46 0 71 -23t25 -65q0 -8 -2 -26q-7 -38 -18 -97q43 61 104 61q68 0 104 -38.5t36 -105.5q0 -118 -64 -185.5t-166 -67.5q-45 0 -71 21q-8 -39 -28 -149h-113zM174 46q17 -28 58 -28q55 0 89.5 76.5t34.5 190.5 q0 46 -9.5 63t-30.5 17q-58 0 -104 -109z" />
<glyph unicode="&#xff;" horiz-adv-x="483" d="M55 -102q0 30 21 50.5t66 20.5q32 0 65 -12.5t48 -14.5l-2 -18q-17 2 -49 14t-62 12q-33 0 -49.5 -14t-16.5 -36q0 -31 29 -47.5t72 -16.5q104 0 128 125l25 138q-42 -92 -127 -92q-58 0 -89.5 33t-31.5 93q0 31 18.5 111.5t20.5 124.5q-12 0 -24.5 -7t-18.5 -14l-7 -7 l-15 12q2 4 7 10t26.5 16t50.5 10q91 0 91 -82q0 -35 -19 -114.5t-19 -107.5q0 -48 40 -48q33 0 64.5 45t51.5 121l33 177q34 0 64.5 2t43.5 4l13 3l-63 -354q-18 -103 -83.5 -161t-169.5 -58q-63 0 -97.5 21.5t-34.5 60.5zM162 493q0 24 17 41.5t41 17.5t41.5 -17.5 t17.5 -41.5t-17.5 -41t-41.5 -17q-25 0 -41.5 16.5t-16.5 41.5zM322 493q0 24 17 41.5t41 17.5t41.5 -17.5t17.5 -41.5t-17.5 -41t-41.5 -17q-25 0 -41.5 16.5t-16.5 41.5z" />
<glyph unicode="&#x152;" horiz-adv-x="1090" d="M89 174q0 179 114 304t284 132l1 -20q-65 -2 -116.5 -32.5t-83 -77t-52 -108t-28.5 -119.5t-8 -117q0 -110 52.5 -162t119.5 -52q120 0 222 102v12q0 132 79 443q-43 48 -116 48q-95 0 -149 -66t-54 -155q0 -39 12 -68t27 -43t34 -23t28.5 -10.5t14.5 -1.5l-1 -20 q-4 0 -15 2t-33 12t-40 26t-32.5 49t-14.5 77q0 97 59.5 168.5t163.5 71.5q74 0 121 -45l25 93q49 15 135 15q22 0 65.5 -9.5t85.5 -9.5q92 0 137 20q6 36 6 55h23q0 -57 -42.5 -160.5t-42.5 -148.5h-22q0 47 34 131t39 102q-41 -17 -131 -17q-51 0 -91.5 9t-65.5 10 q-45 -167 -75 -335h320l-2 -18h-321q-26 -144 -39 -279q61 -2 154 27.5t168 33.5l-3 -20q-64 -3 -159 -32t-170 -29q-87 0 -107 61q-110 -103 -253 -103q-121 0 -189 73.5t-68 203.5z" />
<glyph unicode="&#x153;" horiz-adv-x="667" d="M59 135q0 50 10.5 91.5t34.5 80t72.5 60.5t117.5 22q80 0 120 -42q53 42 131 42q127 0 127 -101q0 -63 -59.5 -95.5t-169.5 -33.5q-2 -13 -2 -47q0 -56 19.5 -77t53.5 -21q30 0 55.5 12t40.5 28.5t26 34.5t15.5 29t4.5 13l18 -8q-1 -5 -4 -14t-16 -32t-31 -40t-53 -31.5 t-78 -14.5q-87 0 -129 45q-57 -45 -147 -45q-77 0 -117 38.5t-40 105.5zM172 94q0 -80 46 -80q47 0 83.5 80.5t36.5 191.5q0 84 -45 84q-46 0 -83.5 -76.5t-37.5 -199.5zM446 182q201 1 201 106q0 33 -19.5 54.5t-53.5 21.5q-101 0 -128 -182z" />
<glyph unicode="&#x178;" horiz-adv-x="713" d="M106 318q0 129 74.5 210t193.5 81q220 0 220 -209q0 -106 -18 -160q249 539 445 539q56 0 79 -24.5t23 -72.5h-23q-5 44 -23.5 58.5t-55.5 14.5q-62 0 -134.5 -65.5t-137 -167.5t-119 -215t-91.5 -221q-62 -179 -87 -254h-134q7 15 18.5 42t40.5 103.5t51.5 146.5t41 155 t18.5 145q0 82 -33 123t-92 41q-41 0 -81.5 -16.5t-76 -48t-57 -85t-21.5 -120.5q0 -49 16.5 -88t39.5 -59t46 -33.5t39 -17.5l17 -3l-7 -19l-2 1q-13 3 -25.5 7t-41.5 21t-49.5 38.5t-37 62t-16.5 90.5zM466 692q0 24 17 41.5t41 17.5t41.5 -17.5t17.5 -41.5t-17.5 -41 t-41.5 -17q-25 0 -41.5 16.5t-16.5 41.5zM626 692q0 24 17 41.5t41 17.5t41.5 -17.5t17.5 -41.5t-17.5 -41t-41.5 -17q-25 0 -41.5 16.5t-16.5 41.5z" />
<glyph unicode="&#x2c6;" horiz-adv-x="330" d="M22 473l163 180h27l96 -186l-25 -12l-88 170l-151 -169z" />
<glyph unicode="&#x2dc;" horiz-adv-x="503" d="M33 631q2 5 6 14t18 31.5t30.5 39.5t43.5 31t57 14t47.5 -11t24 -27t12 -32t17 -27t32.5 -11q36 0 67 27t44 54l12 27h26q-2 -5 -5.5 -14t-16.5 -32t-28.5 -40.5t-43 -32t-58.5 -14.5q-35 0 -53 17t-22 37.5t-18 37.5t-41 17q-32 0 -62 -26.5t-44 -52.5l-14 -27h-31z" />
<glyph unicode="&#x2000;" horiz-adv-x="423" />
<glyph unicode="&#x2001;" horiz-adv-x="846" />
<glyph unicode="&#x2002;" horiz-adv-x="423" />
<glyph unicode="&#x2003;" horiz-adv-x="846" />
<glyph unicode="&#x2004;" horiz-adv-x="282" />
<glyph unicode="&#x2005;" horiz-adv-x="211" />
<glyph unicode="&#x2006;" horiz-adv-x="141" />
<glyph unicode="&#x2007;" horiz-adv-x="141" />
<glyph unicode="&#x2008;" horiz-adv-x="105" />
<glyph unicode="&#x2009;" horiz-adv-x="169" />
<glyph unicode="&#x200a;" horiz-adv-x="47" />
<glyph unicode="&#x2010;" horiz-adv-x="497" d="M90 184l2 18h383l-2 -18h-383z" />
<glyph unicode="&#x2011;" horiz-adv-x="497" d="M90 184l2 18h383l-2 -18h-383z" />
<glyph unicode="&#x2012;" horiz-adv-x="497" d="M90 184l2 18h383l-2 -18h-383z" />
<glyph unicode="&#x2013;" horiz-adv-x="547" d="M90 184l2 18h433l-2 -18h-433z" />
<glyph unicode="&#x2014;" horiz-adv-x="647" d="M90 184l2 18h533l-2 -18h-533z" />
<glyph unicode="&#x2018;" horiz-adv-x="206" d="M126 574q0 49 43.5 103t123.5 77l9 -21q-45 -15 -76.5 -37.5t-40.5 -37.5l-9 -16q9 4 23 4q30 0 51 -21t21 -51t-21 -51.5t-51 -21.5t-51.5 21.5t-21.5 51.5z" />
<glyph unicode="&#x2019;" horiz-adv-x="186" d="M124 522q45 15 76.5 37.5t40.5 38.5l9 15q-9 -4 -23 -4q-30 0 -51 21t-21 51t21 51.5t51 21.5t51.5 -21.5t21.5 -51.5q0 -49 -43.5 -103t-123.5 -77z" />
<glyph unicode="&#x201a;" horiz-adv-x="239" d="M30 -95q45 15 76.5 37.5t40.5 37.5l9 16q-9 -4 -23 -4q-30 0 -51 21t-21 51t21 51.5t51 21.5t51.5 -21.5t21.5 -51.5q0 -49 -43.5 -103t-123.5 -77z" />
<glyph unicode="&#x201c;" horiz-adv-x="393" d="M126 574q0 49 43.5 103t123.5 77l9 -21q-45 -15 -76.5 -37.5t-40.5 -37.5l-9 -16q9 4 23 4q30 0 51 -21t21 -51t-21 -51.5t-51 -21.5t-51.5 21.5t-21.5 51.5zM313 574q0 49 43.5 103t123.5 77l9 -21q-45 -15 -76.5 -37.5t-40.5 -37.5l-9 -16q9 4 23 4q30 0 51 -21t21 -51 t-21 -51.5t-51 -21.5t-51.5 21.5t-21.5 51.5z" />
<glyph unicode="&#x201d;" horiz-adv-x="373" d="M124 522q45 15 76.5 37.5t40.5 38.5l9 15q-9 -4 -23 -4q-30 0 -51 21t-21 51t21 51.5t51 21.5t51.5 -21.5t21.5 -51.5q0 -49 -43.5 -103t-123.5 -77zM311 522q45 15 76.5 37.5t40.5 38.5l9 15q-9 -4 -23 -4q-30 0 -51 21t-21 51t21 51.5t51 21.5t51.5 -21.5t21.5 -51.5 q0 -49 -43.5 -103t-123.5 -77z" />
<glyph unicode="&#x201e;" horiz-adv-x="475" d="M30 -95q45 15 76.5 37.5t40.5 37.5l9 16q-9 -4 -23 -4q-30 0 -51 21t-21 51t21 51.5t51 21.5t51.5 -21.5t21.5 -51.5q0 -49 -43.5 -103t-123.5 -77zM267 -95q45 15 76.5 37.5t40.5 37.5l9 16q-9 -4 -23 -4q-30 0 -51 21t-21 51t21 51.5t51 21.5t51.5 -21.5t21.5 -51.5 q0 -49 -43.5 -103t-123.5 -77z" />
<glyph unicode="&#x2022;" horiz-adv-x="311" d="M107 238q0 37 26 63.5t63 26.5t63.5 -26.5t26.5 -63.5t-26.5 -63t-63.5 -26t-63 26t-26 63z" />
<glyph unicode="&#x2026;" horiz-adv-x="703" d="M61 64q0 30 21 51.5t51 21.5t51.5 -21.5t21.5 -51.5t-21.5 -51t-51.5 -21t-51 21t-21 51zM294 64q0 30 21 51.5t51 21.5t51.5 -21.5t21.5 -51.5t-21.5 -51t-51.5 -21t-51 21t-21 51zM527 64q0 30 21 51.5t51 21.5t51.5 -21.5t21.5 -51.5t-21.5 -51t-51.5 -21t-51 21 t-21 51z" />
<glyph unicode="&#x202f;" horiz-adv-x="169" />
<glyph unicode="&#x2039;" horiz-adv-x="282" d="M67 193l5 26q19 6 36 13t60.5 26t72.5 43.5t34 48.5h21q-6 -33 -45 -64t-78 -49t-83 -32q28 -11 52 -23.5t49 -31t37.5 -41.5t6.5 -47h-21q12 58 -112 116q-15 7 -33 14z" />
<glyph unicode="&#x203a;" horiz-adv-x="282" d="M59 62q6 33 45 64t78 49t83 32q-28 11 -52 23.5t-49 31t-37.5 41.5t-6.5 47h21q-12 -58 112 -116q15 -7 33 -14l2 -1l-5 -26q-19 -6 -36 -13t-60.5 -26t-72.5 -43.5t-34 -48.5h-21z" />
<glyph unicode="&#x205f;" horiz-adv-x="211" />
<glyph unicode="&#x20ac;" horiz-adv-x="706" d="M57 177l2 18h98q0 47 7 86h-87l2 18h89q32 140 142.5 225t270.5 85q88 0 127 -31.5t39 -98.5q0 -45 -44 -111q-40 -64 -40 -100h-22q0 20 8 43t14 33t22 36q39 59 39 97q0 22 -4.5 38t-17.5 34.5t-44 28.5t-77 10q-22 0 -60 -4q-184 -56 -231 -285h242l-2 -18h-243 q-7 -37 -10 -86h235l-2 -18h-234q-1 -14 -1 -41q0 -150 97 -198q24 -3 50 -3q53 0 97 15t68 37t41 44t22 37l6 15l20 -8q-2 -7 -6 -17.5t-22.5 -38t-44 -48.5t-74 -38.5t-107.5 -17.5q-122 0 -191.5 68t-73.5 194h-100z" />
<glyph unicode="&#x2122;" horiz-adv-x="886" d="M115 366h25v-13.5t5 -29.5t14.5 -37t32 -29.5t53.5 -13.5q37 0 58 30.5t38 108.5q21 86 43.5 128.5t55.5 56.5q-1 1 -2 1q-67 28 -124 28q-64 0 -94.5 -34t-30.5 -80q0 -40 23.5 -63t47.5 -27l23 -3l-5 -23q-3 0 -12 1.5t-27.5 8.5t-33.5 18t-27 34t-12 54q0 55 38.5 96 t109.5 41q62 0 125 -25.5t94 -25.5q23 0 40 8t25 18.5t12.5 24t5 19t0.5 9.5h23q0 -4 -0.5 -11.5t-6.5 -24.5t-16 -30.5t-32 -24.5t-51 -11q-35 0 -57 7q-29 -41 -66 -189q-20 -72 -57 -108t-108 -36q-66 0 -99.5 43.5t-30.5 103.5zM365 218v21q54 2 92.5 36t90.5 133 l95 177h19l20 -260q98 134 164.5 204t104.5 70v-22q-20 0 -40 -14q-46 -126 -60.5 -178t-14.5 -95q0 -25 7 -35q8 1 17 5.5t14 9.5l4 4l15 -17q-22 -25 -53 -25q-77 0 -77 85q0 33 25 115q-22 -29 -154 -211l-18 3l-17 229l-30 -54q-56 -105 -98 -143t-106 -38z" />
<glyph unicode="&#xe000;" horiz-adv-x="390" d="M0 0v390h390v-390h-390z" />
</font>
</defs>
</svg>
