<?xml version="1.0" standalone="no"?>
<!DOCTYPE svg PUBLIC "-//W3C//DTD SVG 1.1//EN" "http://www.w3.org/Graphics/SVG/1.1/DTD/svg11.dtd" >
<svg xmlns="http://www.w3.org/2000/svg">
<metadata></metadata>
<defs>
<font id="oxygenitalic" horiz-adv-x="635" >
<font-face units-per-em="1000" ascent="800" descent="-200" />
<missing-glyph horiz-adv-x="192" />
<glyph horiz-adv-x="1000" />
<glyph horiz-adv-x="1000" />
<glyph unicode="&#xd;" horiz-adv-x="142" />
<glyph unicode=" "  horiz-adv-x="192" />
<glyph unicode="&#x09;" horiz-adv-x="192" />
<glyph unicode="&#xa0;" horiz-adv-x="192" />
<glyph unicode="!" horiz-adv-x="270" d="M83 59q3 26 23 45t49 19q30 0 43 -19t10 -45t-22 -45.5t-49 -19.5q-29 0 -43 19.5t-11 45.5zM150 212l34 449l9 69h93l-10 -69l-89 -449h-37z" />
<glyph unicode="&#x22;" horiz-adv-x="329" d="M145 496l24 241h71l-48 -241h-47zM279 496l24 241h71l-48 -241h-47z" />
<glyph unicode="#" horiz-adv-x="522" d="M71 200l13 62h84l56 192h-82l12 61h90l65 199h72l-65 -199h109l60 199h60l-59 -199h64l-15 -60h-68l-58 -193h68l-13 -62h-72l-69 -211h-71l69 211h-109l-66 -211h-61l64 211h-78zM231 262h111l63 193h-109z" />
<glyph unicode="$" horiz-adv-x="605" d="M51 49l34 70q86 -48 187 -55l40 284l-62 18q-149 41 -129 176q13 95 77.5 145t169.5 57l12 83h44l-12 -82q117 -3 186 -53l-34 -68q-68 42 -162 46l-35 -248l50 -13q79 -21 115 -67t24 -131q-15 -106 -80.5 -161t-168.5 -60l-12 -85h-45l12 85q-136 5 -211 59zM206 547 q-11 -79 87 -105l31 -9l33 236q-135 -11 -151 -122zM317 63q135 8 155 145q6 47 -13.5 76.5t-78.5 45.5l-25 6z" />
<glyph unicode="%" horiz-adv-x="860" d="M124 539q12 81 59 134.5t113 53.5q67 0 99.5 -53t21.5 -135q-11 -80 -59 -132t-114 -52t-98.5 52t-21.5 132zM184 539q-8 -56 9.5 -91.5t58.5 -35.5t68.5 36.5t35.5 90.5q8 56 -9.5 95t-57.5 39q-41 0 -69 -39t-36 -95zM185 -2l465 716h74l-477 -716h-62zM521 180 q12 82 61.5 135t125.5 53q77 0 112.5 -52t23.5 -136q-12 -82 -62 -134.5t-126 -52.5q-77 0 -112 52.5t-23 134.5zM580 180q-8 -56 14 -94t70 -38q49 0 81 38.5t40 93.5q8 56 -14 94t-70 38q-49 0 -81 -38.5t-40 -93.5z" />
<glyph unicode="&#x26;" horiz-adv-x="679" d="M76 193q11 75 58.5 126t129.5 91q-36 48 -50 81.5t-8 77.5q10 73 64.5 115.5t136.5 42.5q75 0 121.5 -39t36.5 -111q-15 -107 -182 -184l155 -210q43 41 80 109l49 -44q-37 -67 -89 -123l67 -105q-37 -14 -75 -25l-51 75q-106 -81 -233 -81q-117 0 -170.5 54t-39.5 150z M160 198q-9 -63 28.5 -98.5t112.5 -35.5q91 0 173 62l-170 228q-63 -32 -100 -68.5t-44 -87.5zM293 569q-5 -33 8 -60.5t43 -64.5q40 20 63.5 34.5t44.5 39.5t25 54q6 41 -17.5 63t-61.5 22q-42 0 -70.5 -23.5t-34.5 -64.5z" />
<glyph unicode="'" horiz-adv-x="181" d="M137 496l24 241h72l-47 -241h-49z" />
<glyph unicode="(" horiz-adv-x="281" d="M102 311q30 209 174 426h67q-133 -205 -163 -424q-15 -105 -2.5 -215.5t48.5 -203.5h-67q-87 207 -57 417z" />
<glyph unicode=")" horiz-adv-x="280" d="M29 -106q130 198 162 419q30 218 -44 424h67q84 -221 55 -426q-29 -207 -175 -417h-65z" />
<glyph unicode="*" horiz-adv-x="491" d="M117 534l43 78l133 -93l15 208h81l-42 -208l158 93l23 -78l-170 -66q64 -112 93 -167q-11 -9 -33.5 -23t-34.5 -23l-77 178l-123 -178l-56 46l139 167z" />
<glyph unicode="+" horiz-adv-x="491" d="M83 250l9 65h175l29 205h60l-28 -205h167l-9 -65h-168l-30 -211h-61l29 211h-173z" />
<glyph unicode="," horiz-adv-x="234" d="M43 -143l45 255h100l-95 -255h-50z" />
<glyph unicode="-" horiz-adv-x="319" d="M78 254l9 70h238l-10 -70h-237z" />
<glyph unicode="." horiz-adv-x="229" d="M68 59q3 26 22.5 45t49.5 19t43 -19t10 -45t-22 -45.5t-49 -19.5q-29 0 -43 19.5t-11 45.5z" />
<glyph unicode="/" horiz-adv-x="432" d="M8 -106l423 822h66l-423 -822h-66z" />
<glyph unicode="0" horiz-adv-x="569" d="M103 367q25 174 99 276t190 102t161 -102t20 -276q-24 -171 -96.5 -274.5t-191.5 -103.5t-162.5 103.5t-19.5 274.5zM193 370q-19 -136 7.5 -221.5t95.5 -85.5t119 85t69 222q19 134 -7.5 217t-95.5 83t-119.5 -83t-68.5 -217z" />
<glyph unicode="1" horiz-adv-x="285" d="M100 585l11 82q9 4 31.5 13.5t35.5 15.5t31 15.5t32 18.5h74l-103 -730h-83l90 640q-55 -34 -119 -55z" />
<glyph unicode="2" horiz-adv-x="509" d="M53 0v80l275 280q100 102 112 176q12 61 -16 96.5t-86 35.5q-96 0 -159 -60l-16 73q72 64 193 64q93 0 141 -54.5t35 -144.5v-3q-10 -65 -48 -121t-110 -127l-223 -220h317l-15 -75h-400z" />
<glyph unicode="3" horiz-adv-x="504" d="M56 45l35 72q56 -54 145 -54q68 0 113.5 36t55.5 102q7 47 -5.5 78.5t-44 47t-68 21t-89.5 5.5l10 72q45 0 77 4t65.5 16.5t53 39.5t25.5 68q16 117 -108 117q-92 0 -159 -52l-16 71q76 56 204 56q81 0 132 -48.5t39 -132.5q-19 -136 -147 -175q63 -15 93.5 -64 t19.5 -125q-14 -96 -86.5 -153.5t-173.5 -57.5q-62 0 -107 17t-64 39z" />
<glyph unicode="4" horiz-adv-x="553" d="M76 181l10 75l366 474h87l-67 -478h83l-16 -71h-77l-25 -181h-80l26 181h-307zM166 252h227l52 368z" />
<glyph unicode="5" horiz-adv-x="540" d="M64 56l40 69q62 -57 149 -57q75 0 124.5 45.5t60.5 118.5q9 65 -22 106t-98 41q-68 0 -115 -48l-63 9l72 390h353l-18 -80h-279l-39 -230q58 36 117 36q100 0 145.5 -63t31.5 -160q-16 -111 -92 -177.5t-191 -66.5q-117 0 -176 67z" />
<glyph unicode="6" horiz-adv-x="553" d="M81 230q12 80 48 143.5t120 158.5l179 195h108l-286 -307q56 30 108 30q90 0 144.5 -66t40.5 -165q-15 -100 -87 -165t-176 -65q-108 0 -161 69t-38 172zM168 221q-10 -67 21 -112.5t99 -45.5t113 44.5t54 110.5q10 69 -22.5 113.5t-100.5 44.5q-72 0 -113 -43.5 t-51 -111.5z" />
<glyph unicode="7" horiz-adv-x="478" d="M120 0l325 655h-306l15 75h394l-9 -66l-336 -664h-83z" />
<glyph unicode="8" horiz-adv-x="542" d="M75 188q10 70 55 122t117 75q-124 49 -105 176q12 87 77.5 135.5t159.5 48.5t144.5 -48.5t38.5 -135.5q-19 -127 -144 -176q60 -23 88 -75t18 -122q-13 -94 -83.5 -146.5t-167.5 -52.5t-154 52.5t-44 146.5zM158 194q-8 -60 27 -95.5t98 -35.5t107.5 35.5t52.5 95.5 q8 58 -25 95.5t-95 53.5q-67 -16 -112 -53.5t-53 -95.5zM225 562q-16 -114 108 -145q131 30 147 145q7 50 -25.5 79t-85.5 29t-95 -29t-49 -79z" />
<glyph unicode="9" horiz-adv-x="537" d="M113 514q15 100 88 165.5t178 65.5q108 0 160 -66.5t37 -169.5q-10 -70 -40.5 -127t-97.5 -136l-218 -246h-103l290 321q-55 -29 -109 -29q-90 0 -144.5 61.5t-40.5 160.5zM201 516q-10 -69 23 -110t102 -41q72 0 112.5 42.5t50.5 110.5q10 67 -20 109.5t-98 42.5 t-114.5 -44t-55.5 -110z" />
<glyph unicode=":" horiz-adv-x="228" d="M67 -12l16 114h96l-16 -114h-96zM130 436l16 113h96l-16 -113h-96z" />
<glyph unicode=";" horiz-adv-x="238" d="M43 -151l61 247h85l-93 -247h-53zM142 436l16 113h97l-16 -113h-97z" />
<glyph unicode="&#x3c;" horiz-adv-x="535" d="M86 267l6 46l470 248l-11 -82l-375 -188l320 -186l-11 -81z" />
<glyph unicode="=" horiz-adv-x="584" d="M89 149l10 72h455l-11 -72h-454zM118 362l10 73h455l-10 -73h-455z" />
<glyph unicode="&#x3e;" horiz-adv-x="537" d="M63 30l12 82l372 180l-318 195l12 79l398 -254l-7 -46z" />
<glyph unicode="?" horiz-adv-x="398" d="M119 59q3 26 22.5 45t48.5 19q30 0 43.5 -19t10.5 -45t-22.5 -45.5t-49.5 -19.5q-29 0 -42.5 19.5t-10.5 45.5zM132 697q62 47 160 47q75 0 115 -41.5t30 -116.5q-8 -59 -41 -113t-89 -127t-90 -134h-41q7 48 50 119.5t85.5 140t48.5 107.5q11 91 -91 91q-63 0 -125 -39z " />
<glyph unicode="@" horiz-adv-x="817" d="M97 352q23 164 147.5 278.5t280.5 114.5q151 0 239 -92.5t67 -242.5q-17 -118 -96 -191.5t-158 -73.5q-74 0 -74 77q-54 -68 -118 -68q-50 0 -76 41.5t-16 112.5q15 104 72 175.5t149 71.5q55 0 132 -30q-82 -243 -85 -269q-7 -52 33 -52q48 0 107 63t70 144 q18 127 -54 201t-202 74q-129 0 -234 -97t-124 -237q-21 -150 52.5 -240t201.5 -90q129 0 217 68l26 -43q-98 -84 -253 -84t-241.5 107t-62.5 282zM354 303q-5 -41 8 -64t43 -23q18 0 34.5 8.5t31.5 30.5t25 38.5t24 54.5t19.5 54.5l20.5 61.5q5 15 7 23q-17 11 -60 11 q-65 0 -103.5 -57.5t-49.5 -137.5z" />
<glyph unicode="A" horiz-adv-x="596" d="M3 0l356 730h96l139 -730h-84l-42 231h-270l-113 -231h-82zM233 298h217l-54 348z" />
<glyph unicode="B" horiz-adv-x="591" d="M69 0l102 730h201q129 0 189 -42t47 -136q-8 -57 -38.5 -100.5t-83.5 -60.5q60 -14 85.5 -66.5t16.5 -116.5q-29 -208 -278 -208h-241zM162 68h142q180 0 200 141q10 69 -25 105t-112 36h-166zM210 415h161q131 0 148 120q11 76 -31 100.5t-137 24.5h-106z" />
<glyph unicode="C" horiz-adv-x="588" d="M98 364q23 167 125 274t255 107q122 0 189 -67l-38 -66q-62 58 -159 58q-117 0 -191 -87.5t-93 -218.5q-11 -58 -2.5 -112.5t29.5 -96.5t66.5 -67t110.5 -25q92 0 171 60l16 -71q-75 -63 -205 -63q-104 0 -172 51t-92.5 135t-9.5 189z" />
<glyph unicode="D" horiz-adv-x="692" d="M69 0l102 730h171q93 0 162 -18.5t119.5 -60t70.5 -115t5 -176.5q-25 -177 -135.5 -268.5t-277.5 -91.5h-217zM163 76h143q127 0 206 71.5t98 210.5q12 84 -1.5 143t-51 92t-90 47.5t-125.5 14.5h-98z" />
<glyph unicode="E" horiz-adv-x="524" d="M69 0l102 730h404l-17 -75h-314l-34 -242h301l-11 -75h-301l-36 -262h333l-17 -76h-410z" />
<glyph unicode="F" horiz-adv-x="469" d="M69 0l102 730h379l-17 -75h-289l-35 -246h280l-10 -70h-279l-48 -339h-83z" />
<glyph unicode="G" horiz-adv-x="653" d="M99 364q23 164 123 272.5t257 108.5q126 0 199 -71l-39 -67q-26 26 -71 44.5t-92 18.5q-122 0 -196.5 -87.5t-92.5 -218.5q-19 -131 31 -216t172 -85q40 0 85.5 13.5t73.5 30.5l27 193h-168l16 73h233l-44 -313q-66 -39 -121.5 -55t-121.5 -16q-104 0 -171.5 53 t-90.5 136t-9 186z" />
<glyph unicode="H" horiz-adv-x="670" d="M69 0l102 730h83l-44 -316h371l44 316h83l-102 -730h-83l48 340h-371l-48 -340h-83z" />
<glyph unicode="I" horiz-adv-x="234" d="M76 0l103 730h83l-103 -730h-83z" />
<glyph unicode="J" horiz-adv-x="250" d="M-24 -35h34q57 0 76 29t28 94l91 642h83l-86 -612q-9 -63 -19.5 -99t-32.5 -67t-60 -43.5t-98 -12.5h-16v69z" />
<glyph unicode="K" horiz-adv-x="566" d="M68 0l103 730h83l-50 -354l340 354h109l-329 -340l259 -390h-105l-225 343l-60 -49l-42 -294h-83z" />
<glyph unicode="L" horiz-adv-x="449" d="M69 0l103 730h83l-92 -654h298l-16 -76h-376z" />
<glyph unicode="M" horiz-adv-x="815" d="M70 0l102 730h90l175 -561l330 561h86l-103 -730h-78l81 574l-283 -485h-91l-150 488l-81 -577h-78z" />
<glyph unicode="N" horiz-adv-x="681" d="M69 0l102 730h91l295 -606l85 606h77l-103 -730h-92l-292 605l-85 -605h-78z" />
<glyph unicode="O" horiz-adv-x="758" d="M98 364q24 173 127 277t260 104t231 -104t50 -277q-23 -166 -125.5 -270.5t-261.5 -104.5q-160 0 -232 104t-49 271zM186 364q-18 -134 32 -217.5t172 -83.5t195.5 83.5t91.5 217.5q19 141 -31.5 223.5t-170.5 82.5t-194.5 -82t-94.5 -224z" />
<glyph unicode="P" horiz-adv-x="533" d="M68 0l103 730h222q105 0 161 -48t42 -148q-8 -54 -25.5 -93.5t-50 -71.5t-86.5 -48t-128 -16q-32 0 -111 7l-44 -312h-83zM205 381q87 -1 118 -1q55 0 92.5 12.5t56 37t26.5 47t13 55.5q9 62 -26 91.5t-102 29.5h-140z" />
<glyph unicode="Q" horiz-adv-x="809" d="M98 364q24 173 127 277t260 104t231 -104t50 -277q-18 -129 -85 -223t-173 -131q14 -46 48 -104.5t50 -76.5l-62 -58q-19 24 -59 95t-58 126q-24 -3 -48 -3q-160 0 -232 104t-49 271zM186 364q-18 -134 32 -217.5t172 -83.5t195.5 83.5t91.5 217.5q19 141 -31.5 223.5 t-170.5 82.5t-194.5 -82t-94.5 -224z" />
<glyph unicode="R" horiz-adv-x="614" d="M69 0l102 730h218q68 0 111 -6.5t78 -26t47 -58.5t4 -99q-10 -70 -49.5 -119t-107.5 -67l6 -16q7 -17 16.5 -42t14.5 -41l76 -255h-93l-61 227q-26 93 -33 109q-26 -2 -79 -2l-120 4l-47 -338h-83zM209 411l162 -2q89 -1 128 30t48 99q9 59 -19 88t-104 29h-180z" />
<glyph unicode="S" horiz-adv-x="562" d="M51 49l34 70q100 -56 218 -56q148 0 169 145q6 47 -13.5 76.5t-78.5 45.5l-130 36q-149 41 -129 176q14 103 88 153t191 50q126 0 198 -53l-34 -68q-28 18 -76.5 32t-99.5 14q-164 0 -182 -123q-11 -79 87 -105l124 -33q79 -21 115 -67t24 -131q-15 -111 -86 -166.5 t-181 -55.5q-154 0 -238 60z" />
<glyph unicode="T" horiz-adv-x="486" d="M91 655l10 75h490l-11 -75h-204l-91 -655h-83l91 655h-202z" />
<glyph unicode="U" horiz-adv-x="634" d="M95 255l67 475h83l-66 -472q-15 -106 19.5 -151.5t127.5 -45.5q92 0 139.5 45.5t62.5 151.5l66 472h83l-67 -475q-18 -128 -85.5 -197t-209.5 -69q-141 0 -189.5 69t-30.5 197z" />
<glyph unicode="V" horiz-adv-x="574" d="M98 730h87l115 -635q194 418 297 635h85l-351 -730h-88z" />
<glyph unicode="W" horiz-adv-x="972" d="M90 730h86l106 -634l262 608h96l75 -609l287 635h85l-337 -730h-96l-75 598l-266 -598h-95z" />
<glyph unicode="X" horiz-adv-x="596" d="M5 0l296 381l-178 349h100l142 -294l237 294h88l-278 -349l180 -381h-96l-149 332l-250 -332h-92z" />
<glyph unicode="Y" horiz-adv-x="569" d="M102 730h86l144 -350l251 350h89l-316 -430l-42 -300h-83l43 300z" />
<glyph unicode="Z" horiz-adv-x="545" d="M42 0l10 68l460 587h-362l11 75h468l-8 -60l-466 -594h379l-16 -76h-476z" />
<glyph unicode="[" horiz-adv-x="314" d="M39 -127l121 862h211l-9 -61h-127l-104 -742h127l-8 -59h-211z" />
<glyph unicode="\" horiz-adv-x="424" d="M139 716h67l187 -775h-66z" />
<glyph unicode="]" horiz-adv-x="314" d="M33 -127l9 59h126l105 742h-127l8 61h211l-121 -862h-211z" />
<glyph unicode="^" horiz-adv-x="546" d="M85 306l271 455h48l146 -455h-61l-123 365l-219 -365h-62z" />
<glyph unicode="_" horiz-adv-x="568" d="M50 -143l10 67h432l-10 -67h-432z" />
<glyph unicode="`" horiz-adv-x="298" d="M152 800h118l60 -189h-53z" />
<glyph unicode="a" horiz-adv-x="444" d="M57 127q4 28 14.5 51t23 38.5t34.5 28.5t39 20.5t47 14.5t48 10.5t52 8.5l47 6l9 57q12 91 -78 91q-78 0 -148 -34l-11 62q71 41 167 41q161 0 140 -147l-52 -375h-57l-2 58q-63 -70 -154 -70q-61 0 -95 35t-24 104zM127 130q-11 -78 66 -78q34 0 76 20.5t68 52.5l17 124 q-41 -7 -42 -7q-101 -14 -139.5 -37t-45.5 -75z" />
<glyph unicode="b" horiz-adv-x="497" d="M53 0l102 726l72 11l-43 -308q32 47 74 70t83 23q91 0 131.5 -76t25.5 -185q-17 -117 -79 -195t-155 -78q-47 0 -81 23.5t-49 66.5l-11 -78h-70zM159 255q-12 -87 14.5 -143.5t95.5 -56.5q35 0 64 18t47 48.5t29 63.5t16 70q5 47 2.5 91.5t-28.5 76.5t-72 32 q-61 -1 -108 -56t-60 -144z" />
<glyph unicode="c" horiz-adv-x="402" d="M70 255q16 111 87.5 189t170.5 78q83 0 118 -46l-25 -56q-43 35 -103 35q-63 0 -113.5 -57.5t-62.5 -144.5t22.5 -142.5t102.5 -55.5q55 0 108 38l10 -56q-52 -49 -131 -49q-103 0 -151.5 77.5t-32.5 189.5z" />
<glyph unicode="d" horiz-adv-x="496" d="M71 261q16 111 80.5 186t150.5 75q47 0 83.5 -24.5t48.5 -65.5l41 294l71 11l-103 -737h-62l3 83q-27 -42 -68 -68.5t-87 -26.5q-91 0 -133 75.5t-25 197.5zM143 258q-12 -84 11.5 -140.5t89.5 -56.5q68 0 111 54.5t55 140.5t-15 140t-97 54q-65 0 -104.5 -57t-50.5 -135 z" />
<glyph unicode="e" horiz-adv-x="459" d="M71 255q16 114 83 189t157 78q85 0 125 -66.5t24 -179.5l-5 -35h-314q-12 -83 20.5 -133t94.5 -50q78 0 153 50l14 -56q-72 -64 -179 -64q-98 0 -144 72t-29 195zM151 294h245q11 78 -15.5 120t-79.5 42q-52 0 -93 -44t-57 -118z" />
<glyph unicode="f" horiz-adv-x="269" d="M81 452l8 57h67l3 18q20 132 58.5 177.5t122.5 45.5h30v-62h-39q-52 0 -70 -32t-32 -128l-2 -19h104l-8 -57h-104l-64 -452h-70l63 452h-67z" />
<glyph unicode="g" horiz-adv-x="493" d="M71 253q17 117 79 193t162 76q85 0 126 -84l10 71h68l-68 -480q-9 -60 -21 -101t-40 -84.5t-80.5 -66t-128.5 -22.5h-74v74h86q53 0 88 13t55 43.5t29.5 64t17.5 90.5l7 47q-64 -87 -154 -87q-64 0 -105 39.5t-53.5 95.5t-3.5 118zM144 257q-10 -73 17 -130t92 -57 q69 0 108 47.5t50 122.5l5 37q11 77 -15.5 126.5t-93.5 49.5q-68 0 -110 -60t-53 -136z" />
<glyph unicode="h" horiz-adv-x="473" d="M51 0l102 726l72 11l-42 -299q72 84 175 84q140 0 110 -213l-44 -309h-70l41 284q15 86 1 127t-70 41q-51 0 -96 -34t-60 -73l-49 -345h-70z" />
<glyph unicode="i" horiz-adv-x="206" d="M71 0l75 536h71l-76 -536h-70zM160 634l14 96h70l-14 -96h-70z" />
<glyph unicode="j" horiz-adv-x="185" d="M-60 -245l1 74h22q53 0 69 22.5t25 89.5l84 595h70l-85 -604q-15 -101 -48 -139t-116 -38h-22zM155 634l13 96h71l-14 -96h-70z" />
<glyph unicode="k" horiz-adv-x="425" d="M51 0l102 728l72 9l-60 -428l236 227h96l-228 -223l166 -313h-90l-136 275l-56 -50l-32 -225h-70z" />
<glyph unicode="l" horiz-adv-x="237" d="M96 229l71 499l71 9l-74 -527q-14 -88 -9.5 -120.5t38.5 -32.5q5 0 38 3l-4 -64q-29 -6 -49 -6q-28 0 -47 4.5t-30 19t-16 28.5t-4 47t4 60t11 80z" />
<glyph unicode="m" horiz-adv-x="749" d="M51 0q68 491 70 509h61l-5 -78q72 91 168 91q101 0 116 -98q69 98 172 98q141 0 113 -198l-45 -324h-70l37 264q5 34 7 54t3 44.5t-2.5 38t-10.5 26.5t-20.5 18.5t-32.5 5.5q-44 0 -83 -31t-63 -83l-48 -337h-69l39 280q14 77 1 124t-62 47q-51 0 -95 -32t-62 -74 l-49 -345h-70z" />
<glyph unicode="n" horiz-adv-x="472" d="M51 0l54 385l16 124h61l-5 -78q32 42 80 66.5t96 24.5q75 0 102 -54t12 -163l-43 -305h-70l36 254q19 98 8.5 148t-69.5 50q-53 0 -98.5 -34t-60.5 -72l-49 -346h-70z" />
<glyph unicode="o" horiz-adv-x="498" d="M70 254q16 114 85 191t170 77q102 0 146.5 -75.5t27.5 -191.5q-16 -112 -83.5 -189.5t-166.5 -77.5q-101 0 -148 76t-31 190zM143 252q-11 -83 17.5 -140t99.5 -57q70 0 112 57t54 142q12 88 -13 144.5t-98 56.5q-70 0 -115 -59t-57 -144z" />
<glyph unicode="p" horiz-adv-x="495" d="M23 -224l103 733h67l-6 -71q66 84 153 84q96 0 133.5 -77t20.5 -196q-16 -108 -79 -184.5t-150 -76.5q-95 0 -129 89l-41 -290zM160 254q-12 -87 12.5 -141.5t92.5 -54.5q66 0 106.5 58.5t51.5 137.5t-13 139t-90 60q-68 0 -108 -55.5t-52 -143.5z" />
<glyph unicode="q" horiz-adv-x="496" d="M69 250q17 117 79 194.5t158 77.5q92 0 128 -89l11 76h68l-101 -723l-72 -10l43 306q-60 -94 -157 -94q-91 0 -131.5 76t-25.5 186zM143 255q-5 -49 -1.5 -92.5t30 -73t73.5 -29.5q70 0 111 54t53 141q12 86 -14.5 140.5t-95.5 54.5q-68 0 -106 -57.5t-50 -137.5z" />
<glyph unicode="r" horiz-adv-x="279" d="M55 0l55 392l15 117h60l-7 -92q57 92 146 92h13l-5 -74h-17q-61 0 -100 -39.5t-48 -99.5l-42 -296h-70z" />
<glyph unicode="s" horiz-adv-x="398" d="M55 38l26 60q56 -42 125 -42h7q39 0 65.5 20.5t35.5 59.5q0 1 0.5 3t0.5 3q7 55 -59 77l-57 19q-63 20 -85 54.5t-16 84.5q8 59 54 101.5t119 43.5q82 0 135 -35l-25 -57q-56 27 -113 27q-39 0 -67 -21.5t-33 -59.5q-7 -50 56 -69l60 -19q112 -34 95 -150v-2 q-13 -71 -59 -109.5t-113 -38.5q-49 0 -90.5 15t-61.5 35z" />
<glyph unicode="t" horiz-adv-x="290" d="M74 452l13 57h65l46 200l53 5l-29 -205h122l-9 -57h-121l-39 -281q-10 -71 -1 -92t51 -21q13 0 57 4l-3 -65q-74 -7 -80 -7q-79 0 -95 50t5 165l35 247h-70z" />
<glyph unicode="u" horiz-adv-x="466" d="M72 169l48 340h70l-47 -338q-9 -64 17.5 -90t80.5 -26q113 0 130 116l47 338h70l-48 -340q-13 -94 -71 -137.5t-138 -43.5t-126 44t-33 137z" />
<glyph unicode="v" horiz-adv-x="433" d="M71 509h75l85 -424l197 424h75l-251 -509h-71z" />
<glyph unicode="w" horiz-adv-x="677" d="M78 509h73l45 -405l178 405h82l60 -404l156 404h71l-210 -509h-69l-61 431l-189 -431h-70z" />
<glyph unicode="x" horiz-adv-x="437" d="M11 0l204 258l-129 251h81l97 -193l153 193h81l-200 -253l129 -256h-76l-101 204l-158 -204h-81z" />
<glyph unicode="y" horiz-adv-x="423" d="M-20 -245l3 74h12q74 0 103.5 28t82.5 147l-108 505h74l86 -418l180 418h74l-243 -540q-49 -109 -100 -161.5t-141 -52.5h-23z" />
<glyph unicode="z" horiz-adv-x="364" d="M38 0l9 64l273 383h-221l8 62h302l-9 -62l-275 -384h229l-8 -63h-308z" />
<glyph unicode="{" horiz-adv-x="318" d="M84 300l10 73h28q20 0 34 11.5t22 34t12.5 41.5t8.5 49l19 138q10 76 48.5 109t113.5 33l-10 -67q-46 0 -59 -22.5t-24 -102.5l-16 -115q-6 -43 -27.5 -84.5t-62.5 -61.5q62 -35 48 -146l-15 -114q-13 -74 -5.5 -99.5t53.5 -25.5l-10 -67q-75 0 -103 33t-18 109l19 138 q11 47 5 91.5t-43 44.5h-28z" />
<glyph unicode="|" horiz-adv-x="216" d="M54 -148l131 931h70l-130 -931h-71z" />
<glyph unicode="}" horiz-adv-x="323" d="M39 -116l9 67q46 0 60 23t25 102l16 114q6 44 27 85t62 61q-62 35 -48 146l17 115q13 73 4.5 99t-54.5 26l9 67q75 0 104 -33t19 -109l-19 -138q-11 -47 -4.5 -91.5t43.5 -44.5h27l-10 -73h-28q-20 0 -34 -11.5t-22 -34t-12.5 -41.5t-8.5 -49l-19 -138 q-10 -76 -48.5 -109t-114.5 -33z" />
<glyph unicode="~" horiz-adv-x="612" d="M97 231q18 59 58.5 99.5t96.5 40.5q39 0 114 -42t94 -42q30 0 55.5 27.5t39.5 65.5l50 -20q-20 -66 -60 -105t-94 -39q-28 0 -102.5 42t-104.5 42q-34 0 -61.5 -28t-41.5 -69z" />
<glyph unicode="&#xa1;" horiz-adv-x="229" d="M63 -203l80 568h64l-80 -568h-64zM137 465l15 108h88l-15 -108h-88z" />
<glyph unicode="&#xa2;" horiz-adv-x="504" d="M83 349q16 109 85.5 187t167.5 80l-10 -67q-62 -2 -111 -59.5t-60 -142.5q-12 -84 19.5 -139t95.5 -59l-10 -67q-100 3 -146.5 80t-30.5 187zM249 0l11 82h7q19 0 38 3l-12 -85h-44zM270 149l56 400h5q17 0 39 -5l-56 -391q-15 -4 -34 -4h-10zM305 85l9 68q40 9 74 34 l10 -56q-37 -35 -93 -46zM336 616l16 114h44l-17 -117q-18 3 -38 3h-5zM370 544l9 69q52 -9 80 -43l-25 -56q-27 22 -64 30z" />
<glyph unicode="&#xa3;" horiz-adv-x="500" d="M60 0v67q47 25 67.5 62t29.5 99l16 117h-79l10 70h79l5 42q7 51 16 88.5t27 77.5t43 65t64.5 41t91.5 16q106 0 150 -86l-51 -53q-42 64 -109 64q-118 0 -144 -178l-11 -77h181l-10 -70h-181l-12 -86q-20 -133 -75 -185q38 5 41 5h281l-11 -79h-419z" />
<glyph unicode="&#xa4;" horiz-adv-x="467" d="M12 124l124 106q-36 59 -26 132q10 71 63 131l-94 107l27 25l93 -105q64 54 140 54q78 0 126 -56l124 107l17 -27l-122 -106q25 -41 25.5 -91.5t-16.5 -93.5t-46 -75l93 -106l-24 -27l-95 107q-65 -57 -142 -57q-76 0 -125 56l-122 -106zM153 362q-10 -70 29 -119.5 t104 -49.5t117.5 49.5t62.5 119.5t-29 119t-104 49t-117.5 -49t-62.5 -119z" />
<glyph unicode="&#xa5;" horiz-adv-x="500" d="M60 161l8 60h178l13 94h-176l8 60h160l-140 355h82l118 -303l208 303h77l-246 -355h159l-9 -60h-170l-13 -94h172l-9 -60h-171l-23 -161h-71l23 161h-178z" />
<glyph unicode="&#xa6;" horiz-adv-x="206" d="M50 -147l44 313h71l-44 -313h-71zM137 471l44 312h70l-44 -312h-70z" />
<glyph unicode="&#xa7;" horiz-adv-x="449" d="M79 2l11 79q55 -35 111 -35q52 0 86 23.5t39 58.5q4 31 -14.5 48t-72.5 44l-37 19q-93 51 -80 144q11 82 96 130q-29 26 -40.5 54.5t-5.5 72.5q10 71 62.5 108t130.5 37q51 0 100 -22l-11 -77q-39 27 -96 27q-103 0 -113 -71q-5 -32 14.5 -54.5t75.5 -50.5q60 -32 88 -65 t21 -84q-11 -77 -96 -136q30 -22 43.5 -49t7.5 -70q-10 -74 -68 -115.5t-138 -41.5q-70 0 -114 26zM195 390q-5 -35 17 -55.5t77 -46.5q74 46 81 92q3 17 -2.5 31t-18.5 24t-25 17t-29 14.5t-25 12.5q-68 -42 -75 -89z" />
<glyph unicode="&#xa8;" horiz-adv-x="354" d="M142 612l14 104h72l-15 -104h-71zM321 612l14 104h73l-14 -104h-73z" />
<glyph unicode="&#xa9;" horiz-adv-x="841" d="M108 381q13 95 54.5 171.5t99 124t124 72.5t135.5 25q153 0 245.5 -103.5t66.5 -289.5q-11 -77 -40 -142t-69.5 -111t-91.5 -78t-106.5 -47.5t-113.5 -15.5q-69 0 -128.5 25t-104.5 72.5t-64.5 124.5t-6.5 172zM162 382q-21 -150 46 -249.5t210 -99.5q149 0 245 98.5 t117 248.5t-48 249.5t-218 99.5q-141 0 -236.5 -100t-115.5 -247zM254 383q16 110 87 181t170 71q82 0 135 -44l-34 -47q-39 33 -112 33q-76 0 -123.5 -55t-58.5 -137q-13 -87 21 -141.5t115 -54.5q31 0 67 10.5t57 24.5l10 -52q-64 -40 -152 -40q-95 0 -146.5 71t-35.5 180 z" />
<glyph unicode="&#xaa;" horiz-adv-x="347" d="M129 513q6 44 35 74t71 39q16 3 46 6l40 4q7 48 -2 65.5t-41 17.5q-56 0 -84 -48l-21 38q36 67 115 67q44 0 68 -31.5t15 -95.5l-25 -170q-2 -14 -7 -65h-48l4 38q-35 -49 -88 -49q-40 0 -62.5 30t-15.5 80zM179 514q-7 -56 44 -56q35 0 58 32t31 80l1 13q-13 -3 -41 -7 t-43.5 -7.5t-30.5 -17t-19 -37.5z" />
<glyph unicode="&#xab;" horiz-adv-x="449" d="M96 285l138 194h78l-147 -194l87 -196h-76zM253 285l148 194h63l-132 -194l74 -196h-61z" />
<glyph unicode="&#xac;" horiz-adv-x="583" d="M103 346l10 74h466l-42 -295h-62l31 221h-403z" />
<glyph unicode="&#xad;" horiz-adv-x="561" d="M62 0l10 72h445l-11 -72h-444z" />
<glyph unicode="&#xae;" horiz-adv-x="835" d="M108 381q13 95 54.5 171.5t99 124t124 72.5t135.5 25q73 0 135 -25t107 -73t65 -124t7 -171q-18 -126 -83.5 -217.5t-153 -134t-185.5 -42.5q-69 0 -129 25t-104.5 72.5t-64.5 124.5t-7 172zM162 382q-21 -150 46.5 -249.5t210.5 -99.5q149 0 245.5 98.5t117.5 248.5 t-48.5 249.5t-218.5 99.5q-142 0 -237.5 -100t-115.5 -247zM296 147l67 477h119q103 0 148.5 -33.5t36.5 -98.5q-17 -117 -139 -133q13 -13 25 -34t20.5 -42t24.5 -62.5t30 -73.5h-70l-41 109q-29 77 -47 94h-84l-28 -203h-62zM395 412h57q67 0 100.5 16t39.5 60 q6 46 -20.5 59.5t-102.5 13.5h-53z" />
<glyph unicode="&#xaf;" horiz-adv-x="482" d="M165 726l9 67h363l-9 -67h-363z" />
<glyph unicode="&#xb0;" horiz-adv-x="374" d="M145 605q9 63 53.5 108.5t97.5 45.5t84.5 -45.5t22.5 -108.5q-9 -64 -53.5 -110t-97.5 -46t-84.5 46t-22.5 110zM197 605q-5 -40 13.5 -67t50.5 -27t59.5 27.5t32.5 66.5t-14.5 66t-51.5 27t-58.5 -27t-31.5 -66z" />
<glyph unicode="&#xb1;" horiz-adv-x="562" d="M62 0l10 72h447l-11 -72h-446zM106 313l11 72h189l27 198h63l-28 -198h193l-10 -72h-191l-27 -196h-63l27 196h-191z" />
<glyph unicode="&#xb2;" horiz-adv-x="348" d="M107 317l9 58q74 77 106 111t63 78t35 72q4 27 -8.5 43t-39.5 16q-49 0 -84 -69l-27 41q19 42 52 66t72 24q46 0 71 -33t18 -87q-9 -60 -53 -117t-131 -140h146l-8 -63h-221z" />
<glyph unicode="&#xb3;" horiz-adv-x="345" d="M112 359l33 50q30 -41 66 -41q29 0 52.5 20t27.5 53q5 37 -14.5 53.5t-62.5 16.5h-22l9 62h20q79 0 88 63q4 29 -10 44t-40 15q-37 0 -81 -41l-17 50q51 54 109 54q44 0 72 -33t20 -88q-9 -63 -57 -94q49 -32 39 -104q-8 -59 -48 -95t-91 -36q-61 0 -93 51z" />
<glyph unicode="&#xb4;" horiz-adv-x="297" d="M146 610l114 190h118l-179 -190h-53z" />
<glyph unicode="&#xb6;" horiz-adv-x="492" d="M129 595q24 167 239 167h169l-9 -64h-34l-109 -775h-53l108 775h-99l-109 -775h-59l69 491q-57 1 -90.5 51.5t-22.5 129.5z" />
<glyph unicode="&#xb7;" horiz-adv-x="216" d="M94 324q3 26 23 45.5t49 19.5q30 0 43 -19.5t10 -45.5t-22.5 -45t-49.5 -19q-29 0 -42.5 19t-10.5 45z" />
<glyph unicode="&#xb8;" horiz-adv-x="273" d="M26 -197l10 45q41 -13 60 -13q46 0 51 38q3 20 -8 29.5t-32 9.5h-3q-2 0 -5.5 -0.5t-6.5 -0.5l-13 -1l26 98h41l-15 -55h4q35 0 55.5 -20t15.5 -58q-6 -40 -36 -61.5t-74 -21.5q-26 0 -70 11z" />
<glyph unicode="&#xb9;" horiz-adv-x="280" d="M121 317l8 63h49l40 288q-30 -18 -66 -36l10 69q44 18 74 41l44 9l-52 -373h48l-8 -61h-147z" />
<glyph unicode="&#xba;" horiz-adv-x="385" d="M142 591q12 81 54.5 133t104.5 52t90.5 -53.5t16.5 -134.5q-12 -80 -54.5 -132.5t-103.5 -52.5q-64 0 -92 53t-16 135zM194 589q-8 -57 8 -93.5t56 -36.5q37 0 63.5 37t34.5 91q8 57 -8.5 94.5t-54.5 37.5t-64.5 -37.5t-34.5 -92.5z" />
<glyph unicode="&#xbb;" horiz-adv-x="457" d="M71 89l133 197l-76 193h62l92 -193l-148 -197h-63zM237 89l143 197l-83 193h72l79 -193l-137 -197h-74z" />
<glyph unicode="&#xbc;" horiz-adv-x="734" d="M113 317l9 63h49l39 288q-35 -21 -65 -36l10 69q42 17 73 41l45 9l-53 -373h51l-8 -61h-150zM135 0l525 755h66l-530 -755h-61zM439 117l7 49l210 273h56l-37 -264h43l-4 -58h-48l-14 -97h-49l13 97h-177zM512 175h112l17 122q2 15 5 33t3 20z" />
<glyph unicode="&#xbd;" horiz-adv-x="726" d="M113 0l526 755h70l-533 -755h-63zM114 317l9 63h49l40 288q-30 -18 -66 -36l10 69q40 16 73 41l45 9l-52 -373h56l-8 -61h-156zM426 -15l8 60q63 56 93.5 84t68 66.5t54 64t19.5 46.5q4 27 -11.5 42.5t-46.5 15.5q-59 0 -98 -69l-34 41q22 43 60 66.5t84 23.5 q52 0 79 -32.5t20 -86.5q-5 -32 -20.5 -63t-48.5 -67.5t-57 -59.5t-75 -69h152l-8 -63h-239z" />
<glyph unicode="&#xbe;" horiz-adv-x="744" d="M105 359l30 50q30 -41 68 -41q30 0 53.5 20t27.5 53q5 37 -15 53.5t-62 16.5h-23l9 62h20q79 0 88 63q4 29 -9.5 44t-39.5 15q-39 0 -83 -41l-16 50q51 54 110 54q46 0 78.5 -33.5t24.5 -87.5q-9 -63 -67 -94q58 -31 48 -104q-8 -58 -53 -94.5t-97 -36.5q-60 0 -92 51z M152 0l525 755h67l-531 -755h-61zM449 120l6 47l211 274h56l-37 -265h44l-4 -56h-48l-14 -99h-50l13 99h-177zM521 176h112q20 143 26 176z" />
<glyph unicode="&#xbf;" horiz-adv-x="399" d="M62 151q6 43 27.5 78t48 58.5t53 46t47 51.5t25.5 63l7 54h63l-3 -32q-2 -29 -5 -53q-5 -34 -33.5 -67.5t-60.5 -56.5t-61 -60t-35 -78q-6 -46 22 -71t77 -25q10 0 20 1.5t17.5 3t17 5t15 5.5t14 7t11.5 7t11.5 7t9.5 6l11 -61q-71 -52 -147 -52q-79 0 -121 42.5 t-31 120.5zM261 603l15 112h104l-16 -112h-103z" />
<glyph unicode="&#xc0;" d="M3 0l356 730h96l139 -730h-84l-42 231h-270l-113 -231h-82zM233 298h217l-54 348zM357 991h118l60 -189h-53z" />
<glyph unicode="&#xc1;" d="M3 0l356 730h96l139 -730h-84l-42 231h-270l-113 -231h-82zM233 298h217l-54 348zM329 801l114 190h118l-179 -190h-53z" />
<glyph unicode="&#xc2;" d="M3 0l356 730h96l139 -730h-84l-42 231h-270l-113 -231h-82zM233 298h217l-54 348zM292 802l115 189h100l61 -189h-63l-57 133l-94 -133h-62z" />
<glyph unicode="&#xc3;" d="M3 0l356 730h96l139 -730h-84l-42 231h-270l-113 -231h-82zM233 298h217l-54 348zM287 821q15 107 93 107q34 0 79 -23t49 -23h1q19 1 28 46h50q-14 -107 -83 -107q-21 0 -69.5 24t-65.5 24h-1q-22 0 -31 -48h-50z" />
<glyph unicode="&#xc4;" d="M3 0l356 730h96l139 -730h-84l-42 231h-270l-113 -231h-82zM233 298h217l-54 348zM304 803l14 104h72l-15 -104h-71zM483 803l14 104h73l-14 -104h-73z" />
<glyph unicode="&#xc5;" d="M3 0l356 730h96l139 -730h-84l-42 231h-270l-113 -231h-82zM233 298h217l-54 348zM354 895q6 42 36.5 69t66.5 27q37 0 59.5 -27.5t16.5 -68.5q-6 -40 -35.5 -65t-65.5 -25q-38 0 -61 24.5t-17 65.5zM399 895q-3 -25 6.5 -40t30.5 -15q17 0 32.5 16.5t18.5 38.5 q3 23 -7.5 39.5t-28.5 16.5q-17 0 -33 -17t-19 -39z" />
<glyph unicode="&#xc6;" horiz-adv-x="949" d="M40 0l480 766h473l-12 -78h-319l-19 -257h287l-11 -77h-278l-19 -277h283l-11 -77h-355l15 208h-305l-131 -208h-78zM298 288h257l28 400h-23z" />
<glyph unicode="&#xc7;" horiz-adv-x="626" d="M98 364q23 167 125 274t255 107q122 0 189 -67l-38 -66q-62 58 -159 58q-117 0 -191 -87.5t-93 -218.5q-11 -58 -2.5 -112.5t29.5 -96.5t66.5 -67t110.5 -25q92 0 171 60l16 -71q-75 -63 -205 -63q-30 0 -62 5l-11 -41h4q35 0 55.5 -20t15.5 -58q-6 -40 -36 -61.5 t-74 -21.5q-26 0 -70 11l10 45q41 -13 60 -13q46 0 51 38q3 20 -8 29.5t-32 9.5h-3q-2 0 -5.5 -0.5t-6.5 -0.5l-13 -1l25 93q-104 33 -148.5 131t-25.5 230z" />
<glyph unicode="&#xc8;" horiz-adv-x="556" d="M69 0l102 730h404l-17 -75h-314l-34 -242h301l-11 -75h-301l-36 -262h333l-17 -76h-410zM309 991h118l60 -189h-53z" />
<glyph unicode="&#xc9;" horiz-adv-x="556" d="M69 0l102 730h404l-17 -75h-314l-34 -242h301l-11 -75h-301l-36 -262h333l-17 -76h-410zM281 801l114 190h118l-179 -190h-53z" />
<glyph unicode="&#xca;" horiz-adv-x="556" d="M69 0l102 730h404l-17 -75h-314l-34 -242h301l-11 -75h-301l-36 -262h333l-17 -76h-410zM245 802l115 189h100l61 -189h-63l-57 133l-94 -133h-62z" />
<glyph unicode="&#xcb;" horiz-adv-x="556" d="M69 0l102 730h404l-17 -75h-314l-34 -242h301l-11 -75h-301l-36 -262h333l-17 -76h-410zM256 803l14 104h72l-15 -104h-71zM435 803l14 104h73l-14 -104h-73z" />
<glyph unicode="&#xcc;" horiz-adv-x="248" d="M76 0l103 730h83l-103 -730h-83zM155 991h118l60 -189h-53z" />
<glyph unicode="&#xcd;" horiz-adv-x="248" d="M76 0l103 730h83l-103 -730h-83zM127 801l114 190h118l-179 -190h-53z" />
<glyph unicode="&#xce;" horiz-adv-x="248" d="M76 0l103 730h83l-103 -730h-83zM91 802l115 189h100l61 -189h-63l-57 133l-94 -133h-62z" />
<glyph unicode="&#xcf;" horiz-adv-x="248" d="M76 0l103 730h83l-103 -730h-83zM102 803l14 104h72l-15 -104h-71zM281 803l14 104h73l-14 -104h-73z" />
<glyph unicode="&#xd0;" horiz-adv-x="743" d="M61 340l9 66h55l46 324h171q93 0 162 -18.5t119.5 -60t70.5 -115t5 -176.5q-25 -177 -135.5 -268.5t-277.5 -91.5h-217l47 340h-55zM163 76h143q127 0 206 71.5t98 210.5q12 84 -1.5 143t-51 92t-90 47.5t-125.5 14.5h-98l-35 -249h105l-9 -66h-105z" />
<glyph unicode="&#xd1;" horiz-adv-x="726" d="M69 0l102 730h91l295 -606l85 606h77l-103 -730h-92l-292 605l-85 -605h-78zM325 821q15 107 93 107q34 0 79 -23t49 -23h1q19 1 28 46h50q-14 -107 -83 -107q-21 0 -69.5 24t-65.5 24h-1q-22 0 -31 -48h-50z" />
<glyph unicode="&#xd2;" horiz-adv-x="811" d="M98 364q24 173 127 277t260 104t231 -104t50 -277q-23 -166 -125.5 -270.5t-261.5 -104.5q-160 0 -232 104t-49 271zM186 364q-18 -134 32 -217.5t172 -83.5t195.5 83.5t91.5 217.5q19 141 -31.5 223.5t-170.5 82.5t-194.5 -82t-94.5 -224zM437 991h118l60 -189h-53z" />
<glyph unicode="&#xd3;" horiz-adv-x="811" d="M98 364q24 173 127 277t260 104t231 -104t50 -277q-23 -166 -125.5 -270.5t-261.5 -104.5q-160 0 -232 104t-49 271zM186 364q-18 -134 32 -217.5t172 -83.5t195.5 83.5t91.5 217.5q19 141 -31.5 223.5t-170.5 82.5t-194.5 -82t-94.5 -224zM409 801l114 190h118 l-179 -190h-53z" />
<glyph unicode="&#xd4;" horiz-adv-x="811" d="M98 364q24 173 127 277t260 104t231 -104t50 -277q-23 -166 -125.5 -270.5t-261.5 -104.5q-160 0 -232 104t-49 271zM186 364q-18 -134 32 -217.5t172 -83.5t195.5 83.5t91.5 217.5q19 141 -31.5 223.5t-170.5 82.5t-194.5 -82t-94.5 -224zM372 802l115 189h100l61 -189 h-63l-57 133l-94 -133h-62z" />
<glyph unicode="&#xd5;" horiz-adv-x="811" d="M98 364q24 173 127 277t260 104t231 -104t50 -277q-23 -166 -125.5 -270.5t-261.5 -104.5q-160 0 -232 104t-49 271zM186 364q-18 -134 32 -217.5t172 -83.5t195.5 83.5t91.5 217.5q19 141 -31.5 223.5t-170.5 82.5t-194.5 -82t-94.5 -224zM367 821q15 107 93 107 q34 0 79 -23t49 -23h1q19 1 28 46h50q-14 -107 -83 -107q-21 0 -69.5 24t-65.5 24h-1q-22 0 -31 -48h-50z" />
<glyph unicode="&#xd6;" horiz-adv-x="811" d="M98 364q24 173 127 277t260 104t231 -104t50 -277q-23 -166 -125.5 -270.5t-261.5 -104.5q-160 0 -232 104t-49 271zM186 364q-18 -134 32 -217.5t172 -83.5t195.5 83.5t91.5 217.5q19 141 -31.5 223.5t-170.5 82.5t-194.5 -82t-94.5 -224zM384 803l14 104h72l-15 -104 h-71zM563 803l14 104h73l-14 -104h-73z" />
<glyph unicode="&#xd7;" horiz-adv-x="451" d="M73 135l143 157l-99 156l49 53l106 -156l148 156l35 -54l-142 -155l98 -156l-50 -55l-104 156l-151 -156z" />
<glyph unicode="&#xd8;" horiz-adv-x="785" d="M110 380q26 182 129 288t260 106q60 0 111 -17l49 95l56 -22l-50 -99q149 -95 114 -351q-25 -176 -127 -284t-262 -108q-61 0 -104 14l-47 -90l-53 21l47 93q-78 45 -109 138t-14 216zM200 383q-13 -92 6.5 -163.5t70.5 -108.5l291 564q-33 13 -80 13 q-118 0 -193.5 -85.5t-94.5 -219.5zM329 84q30 -10 72 -10q120 0 194.5 86t93.5 223q26 184 -69 263z" />
<glyph unicode="&#xd9;" horiz-adv-x="676" d="M95 255l67 475h83l-66 -472q-15 -106 19.5 -151.5t127.5 -45.5q92 0 139.5 45.5t62.5 151.5l66 472h83l-67 -475q-18 -128 -85.5 -197t-209.5 -69q-141 0 -189.5 69t-30.5 197zM369 991h118l60 -189h-53z" />
<glyph unicode="&#xda;" horiz-adv-x="676" d="M95 255l67 475h83l-66 -472q-15 -106 19.5 -151.5t127.5 -45.5q92 0 139.5 45.5t62.5 151.5l66 472h83l-67 -475q-18 -128 -85.5 -197t-209.5 -69q-141 0 -189.5 69t-30.5 197zM341 801l114 190h118l-179 -190h-53z" />
<glyph unicode="&#xdb;" horiz-adv-x="676" d="M95 255l67 475h83l-66 -472q-15 -106 19.5 -151.5t127.5 -45.5q92 0 139.5 45.5t62.5 151.5l66 472h83l-67 -475q-18 -128 -85.5 -197t-209.5 -69q-141 0 -189.5 69t-30.5 197zM305 802l115 189h100l61 -189h-63l-57 133l-94 -133h-62z" />
<glyph unicode="&#xdc;" horiz-adv-x="676" d="M95 255l67 475h83l-66 -472q-15 -106 19.5 -151.5t127.5 -45.5q92 0 139.5 45.5t62.5 151.5l66 472h83l-67 -475q-18 -128 -85.5 -197t-209.5 -69q-141 0 -189.5 69t-30.5 197zM316 803l14 104h72l-15 -104h-71zM495 803l14 104h73l-14 -104h-73z" />
<glyph unicode="&#xdd;" horiz-adv-x="606" d="M102 730h86l144 -350l251 350h89l-316 -430l-42 -300h-83l43 300zM306 801l114 190h118l-179 -190h-53z" />
<glyph unicode="&#xde;" horiz-adv-x="592" d="M69 0l102 730h83l-19 -136h148q129 0 185.5 -48t41.5 -160q-14 -102 -76.5 -160.5t-177.5 -58.5l-180 3l-24 -170h-83zM186 241h174q152 0 171 141q11 73 -24 106t-127 33h-155z" />
<glyph unicode="&#xdf;" horiz-adv-x="518" d="M53 0l72 511q16 112 71.5 173t149.5 61q80 0 122 -45t31 -123q-3 -22 -11.5 -42t-17 -32.5t-27 -28t-28 -22t-35 -22t-34.5 -21.5q15 -14 45 -37t50.5 -40.5t41 -41.5t29 -54t3.5 -66q-13 -88 -61.5 -129t-121.5 -41h-144l18 72h130q41 0 68 25.5t33 69.5q4 30 -11 58.5 t-33.5 45t-51 40.5t-42.5 33q-59 53 9 112q11 9 44 31t48 41t19 49q6 43 -18.5 68t-65.5 25q-117 0 -139 -154l-73 -516h-70z" />
<glyph unicode="&#xe0;" horiz-adv-x="501" d="M57 127q4 28 14.5 51t23 38.5t34.5 28.5t39 20.5t47 14.5t48 10.5t52 8.5l47 6l9 57q12 91 -78 91q-78 0 -148 -34l-11 62q71 41 167 41q161 0 140 -147l-52 -375h-57l-2 58q-63 -70 -154 -70q-61 0 -95 35t-24 104zM127 130q-11 -78 66 -78q34 0 76 20.5t68 52.5l17 124 q-41 -7 -42 -7q-101 -14 -139.5 -37t-45.5 -75zM262 800h118l60 -189h-53z" />
<glyph unicode="&#xe1;" horiz-adv-x="501" d="M57 127q4 28 14.5 51t23 38.5t34.5 28.5t39 20.5t47 14.5t48 10.5t52 8.5l47 6l9 57q12 91 -78 91q-78 0 -148 -34l-11 62q71 41 167 41q161 0 140 -147l-52 -375h-57l-2 58q-63 -70 -154 -70q-61 0 -95 35t-24 104zM127 130q-11 -78 66 -78q34 0 76 20.5t68 52.5l17 124 q-41 -7 -42 -7q-101 -14 -139.5 -37t-45.5 -75zM234 610l114 190h118l-179 -190h-53z" />
<glyph unicode="&#xe2;" horiz-adv-x="501" d="M57 127q4 28 14.5 51t23 38.5t34.5 28.5t39 20.5t47 14.5t48 10.5t52 8.5l47 6l9 57q12 91 -78 91q-78 0 -148 -34l-11 62q71 41 167 41q161 0 140 -147l-52 -375h-57l-2 58q-63 -70 -154 -70q-61 0 -95 35t-24 104zM127 130q-11 -78 66 -78q34 0 76 20.5t68 52.5l17 124 q-41 -7 -42 -7q-101 -14 -139.5 -37t-45.5 -75zM198 611l115 189h100l61 -189h-63l-57 133l-94 -133h-62z" />
<glyph unicode="&#xe3;" horiz-adv-x="501" d="M57 127q4 28 14.5 51t23 38.5t34.5 28.5t39 20.5t47 14.5t48 10.5t52 8.5l47 6l9 57q12 91 -78 91q-78 0 -148 -34l-11 62q71 41 167 41q161 0 140 -147l-52 -375h-57l-2 58q-63 -70 -154 -70q-61 0 -95 35t-24 104zM127 130q-11 -78 66 -78q34 0 76 20.5t68 52.5l17 124 q-41 -7 -42 -7q-101 -14 -139.5 -37t-45.5 -75zM193 630q15 107 93 107q34 0 79 -23t49 -23h1q19 1 28 46h50q-14 -107 -83 -107q-21 0 -69.5 24t-65.5 24h-1q-22 0 -31 -48h-50z" />
<glyph unicode="&#xe4;" horiz-adv-x="501" d="M57 127q4 28 14.5 51t23 38.5t34.5 28.5t39 20.5t47 14.5t48 10.5t52 8.5l47 6l9 57q12 91 -78 91q-78 0 -148 -34l-11 62q71 41 167 41q161 0 140 -147l-52 -375h-57l-2 58q-63 -70 -154 -70q-61 0 -95 35t-24 104zM127 130q-11 -78 66 -78q34 0 76 20.5t68 52.5l17 124 q-41 -7 -42 -7q-101 -14 -139.5 -37t-45.5 -75zM209 612l14 104h72l-15 -104h-71zM388 612l14 104h73l-14 -104h-73z" />
<glyph unicode="&#xe5;" horiz-adv-x="501" d="M57 127q4 28 14.5 51t23 38.5t34.5 28.5t39 20.5t47 14.5t48 10.5t52 8.5l47 6l9 57q12 91 -78 91q-78 0 -148 -34l-11 62q71 41 167 41q161 0 140 -147l-52 -375h-57l-2 58q-63 -70 -154 -70q-61 0 -95 35t-24 104zM127 130q-11 -78 66 -78q34 0 76 20.5t68 52.5l17 124 q-41 -7 -42 -7q-101 -14 -139.5 -37t-45.5 -75zM260 704q6 42 36.5 69t66.5 27q37 0 59.5 -27.5t16.5 -68.5q-6 -40 -35.5 -65t-65.5 -25q-38 0 -61 24.5t-17 65.5zM305 704q-3 -25 6.5 -40t30.5 -15q17 0 32.5 16.5t18.5 38.5q3 23 -7.5 39.5t-28.5 16.5q-17 0 -33 -17 t-19 -39z" />
<glyph unicode="&#xe6;" horiz-adv-x="706" d="M56 146q5 37 22.5 64.5t39.5 43t58 25.5t66 13.5t75 6.5q5 0 14 1t13 1l11 80q7 50 -8 73t-58 23q-83 0 -155 -40l-6 67q76 45 169 45q52 0 85 -24t35 -70q59 94 161 94q80 0 109.5 -62t16.5 -153q-5 -38 -22.5 -54t-65.5 -19l-210 -12q-15 -191 104 -191q69 0 143 54 l13 -59q-75 -65 -170 -65q-85 0 -127 67q-104 -68 -199 -68q-60 0 -93 38t-21 121zM126 142q-12 -87 58 -87q13 0 28 2.5t35.5 9t31.5 10.5t36.5 13.5t30.5 11.5q-19 60 -12 142q-9 0 -27 -2q-98 -9 -136.5 -31.5t-44.5 -68.5zM416 300l219 14v5q11 84 -5 122.5t-62 38.5 q-60 0 -98.5 -49.5t-53.5 -130.5z" />
<glyph unicode="&#xe7;" horiz-adv-x="469" d="M70 255q16 111 87.5 189t170.5 78q83 0 118 -46l-25 -56q-43 35 -103 35q-63 0 -113.5 -57.5t-62.5 -144.5t22.5 -142.5t102.5 -55.5q55 0 108 38l10 -56q-52 -49 -131 -49q-4 0 -12 0.5t-11 0.5l-10 -36h4q35 0 55.5 -20t15.5 -58q-6 -40 -36 -61.5t-74 -21.5 q-26 0 -70 11l10 45q41 -13 60 -13q46 0 51 38q3 20 -8 29.5t-32 9.5h-3q-2 0 -5.5 -0.5t-6.5 -0.5l-13 -1l23 87q-72 23 -103.5 94t-18.5 164z" />
<glyph unicode="&#xe8;" horiz-adv-x="531" d="M71 255q16 114 83 189t157 78q85 0 125 -66.5t24 -179.5l-5 -35h-314q-12 -83 20.5 -133t94.5 -50q78 0 153 50l14 -56q-72 -64 -179 -64q-98 0 -144 72t-29 195zM151 294h245q11 78 -15.5 120t-79.5 42q-52 0 -93 -44t-57 -118zM271 800h118l60 -189h-53z" />
<glyph unicode="&#xe9;" horiz-adv-x="531" d="M71 255q16 114 83 189t157 78q85 0 125 -66.5t24 -179.5l-5 -35h-314q-12 -83 20.5 -133t94.5 -50q78 0 153 50l14 -56q-72 -64 -179 -64q-98 0 -144 72t-29 195zM151 294h245q11 78 -15.5 120t-79.5 42q-52 0 -93 -44t-57 -118zM243 610l114 190h118l-179 -190h-53z" />
<glyph unicode="&#xea;" horiz-adv-x="531" d="M71 255q16 114 83 189t157 78q85 0 125 -66.5t24 -179.5l-5 -35h-314q-12 -83 20.5 -133t94.5 -50q78 0 153 50l14 -56q-72 -64 -179 -64q-98 0 -144 72t-29 195zM151 294h245q11 78 -15.5 120t-79.5 42q-52 0 -93 -44t-57 -118zM206 611l115 189h100l61 -189h-63 l-57 133l-94 -133h-62z" />
<glyph unicode="&#xeb;" horiz-adv-x="531" d="M71 255q16 114 83 189t157 78q85 0 125 -66.5t24 -179.5l-5 -35h-314q-12 -83 20.5 -133t94.5 -50q78 0 153 50l14 -56q-72 -64 -179 -64q-98 0 -144 72t-29 195zM151 294h245q11 78 -15.5 120t-79.5 42q-52 0 -93 -44t-57 -118zM218 612l14 104h72l-15 -104h-71z M397 612l14 104h73l-14 -104h-73z" />
<glyph unicode="&#xec;" horiz-adv-x="209" d="M61 0l71 509h71l-72 -509h-70zM109 800h118l60 -189h-53z" />
<glyph unicode="&#xed;" horiz-adv-x="209" d="M61 0l71 509h71l-72 -509h-70zM82 610l114 190h118l-179 -190h-53z" />
<glyph unicode="&#xee;" horiz-adv-x="209" d="M45 611l115 189h100l61 -189h-63l-57 133l-94 -133h-62zM61 0l71 509h71l-72 -509h-70z" />
<glyph unicode="&#xef;" horiz-adv-x="209" d="M56 612l14 104h72l-15 -104h-71zM61 0l71 509h71l-72 -509h-70zM235 612l14 104h73l-14 -104h-73z" />
<glyph unicode="&#xf0;" horiz-adv-x="509" d="M72 237q15 107 79.5 172.5t155.5 65.5q62 0 109 -47q-23 74 -101 186l-121 -55l-9 65l98 42l-83 109h93l60 -76l119 54l10 -63l-98 -44q76 -127 104 -214q30 -95 16 -192q-16 -112 -82 -182t-169 -70q-100 0 -148 72t-33 177zM148 237q-10 -75 20 -128t98 -53 q66 0 110 49t55 125q10 71 -21.5 124t-97.5 53q-65 0 -109.5 -49t-54.5 -121z" />
<glyph unicode="&#xf1;" horiz-adv-x="544" d="M51 0l54 385l16 124h61l-5 -78q32 42 80 66.5t96 24.5q75 0 102 -54t12 -163l-43 -305h-70l36 254q19 98 8.5 148t-69.5 50q-53 0 -98.5 -34t-60.5 -72l-49 -346h-70zM207 630q15 107 93 107q34 0 79 -23t49 -23h1q19 1 28 46h50q-14 -107 -83 -107q-21 0 -69.5 24 t-65.5 24h-1q-22 0 -31 -48h-50z" />
<glyph unicode="&#xf2;" horiz-adv-x="577" d="M70 254q16 114 85 191t170 77q102 0 146.5 -75.5t27.5 -191.5q-16 -112 -83.5 -189.5t-166.5 -77.5q-101 0 -148 76t-31 190zM143 252q-11 -83 17.5 -140t99.5 -57q70 0 112 57t54 142q12 88 -13 144.5t-98 56.5q-70 0 -115 -59t-57 -144zM294 800h118l60 -189h-53z" />
<glyph unicode="&#xf3;" horiz-adv-x="577" d="M70 254q16 114 85 191t170 77q102 0 146.5 -75.5t27.5 -191.5q-16 -112 -83.5 -189.5t-166.5 -77.5q-101 0 -148 76t-31 190zM143 252q-11 -83 17.5 -140t99.5 -57q70 0 112 57t54 142q12 88 -13 144.5t-98 56.5q-70 0 -115 -59t-57 -144zM265 610l114 190h118l-179 -190 h-53z" />
<glyph unicode="&#xf4;" horiz-adv-x="577" d="M70 254q16 114 85 191t170 77q102 0 146.5 -75.5t27.5 -191.5q-16 -112 -83.5 -189.5t-166.5 -77.5q-101 0 -148 76t-31 190zM143 252q-11 -83 17.5 -140t99.5 -57q70 0 112 57t54 142q12 88 -13 144.5t-98 56.5q-70 0 -115 -59t-57 -144zM229 611l115 189h100l61 -189 h-63l-57 133l-94 -133h-62z" />
<glyph unicode="&#xf5;" horiz-adv-x="577" d="M70 254q16 114 85 191t170 77q102 0 146.5 -75.5t27.5 -191.5q-16 -112 -83.5 -189.5t-166.5 -77.5q-101 0 -148 76t-31 190zM143 252q-11 -83 17.5 -140t99.5 -57q70 0 112 57t54 142q12 88 -13 144.5t-98 56.5q-70 0 -115 -59t-57 -144zM224 630q15 107 93 107 q33 0 79 -23t49 -23h1q19 1 28 46h50q-14 -107 -83 -107q-21 0 -69.5 24t-65.5 24h-1q-22 0 -31 -48h-50z" />
<glyph unicode="&#xf6;" horiz-adv-x="575" d="M70 254q16 114 85 191t170 77q102 0 146.5 -75.5t27.5 -191.5q-16 -112 -83.5 -189.5t-166.5 -77.5q-101 0 -148 76t-31 190zM143 252q-11 -83 17.5 -140t99.5 -57q70 0 112 57t54 142q12 88 -13 144.5t-98 56.5q-70 0 -115 -59t-57 -144zM241 612l14 104h72l-15 -104 h-71zM420 612l14 104h73l-14 -104h-73z" />
<glyph unicode="&#xf7;" horiz-adv-x="553" d="M82 255l10 73h457l-10 -73h-457zM226 11l16 111h89l-16 -111h-89zM289 458l15 111h106l-15 -111h-106z" />
<glyph unicode="&#xf8;" horiz-adv-x="498" d="M70 254q16 114 85 191t170 77q36 0 67 -11l78 156l30 -18l-78 -153q50 -31 69.5 -95t7.5 -146q-16 -112 -83.5 -189.5t-166.5 -77.5q-43 0 -77 14l-69 -136l-27 18l68 135q-47 33 -66 95t-8 140zM143 252q-15 -113 35 -165l182 360q-21 8 -45 8q-70 0 -115 -59t-57 -144z M205 67q22 -12 55 -12q70 0 112 57t54 142q18 128 -37 176z" />
<glyph unicode="&#xf9;" horiz-adv-x="536" d="M72 169l48 340h70l-47 -338q-9 -64 17.5 -90t80.5 -26q113 0 130 116l47 338h70l-48 -340q-13 -94 -71 -137.5t-138 -43.5t-126 44t-33 137zM273 800h118l60 -189h-53z" />
<glyph unicode="&#xfa;" horiz-adv-x="536" d="M72 169l48 340h70l-47 -338q-9 -64 17.5 -90t80.5 -26q113 0 130 116l47 338h70l-48 -340q-13 -94 -71 -137.5t-138 -43.5t-126 44t-33 137zM245 610l114 190h118l-179 -190h-53z" />
<glyph unicode="&#xfb;" horiz-adv-x="536" d="M72 169l48 340h70l-47 -338q-9 -64 17.5 -90t80.5 -26q113 0 130 116l47 338h70l-48 -340q-13 -94 -71 -137.5t-138 -43.5t-126 44t-33 137zM208 611l115 189h100l61 -189h-63l-57 133l-94 -133h-62z" />
<glyph unicode="&#xfc;" horiz-adv-x="536" d="M72 169l48 340h70l-47 -338q-9 -64 17.5 -90t80.5 -26q113 0 130 116l47 338h70l-48 -340q-13 -94 -71 -137.5t-138 -43.5t-126 44t-33 137zM220 612l14 104h72l-15 -104h-71zM399 612l14 104h73l-14 -104h-73z" />
<glyph unicode="&#xfd;" horiz-adv-x="483" d="M-20 -245l3 74h12q74 0 103.5 28t82.5 147l-108 505h74l86 -418l180 418h74l-243 -540q-49 -109 -100 -161.5t-141 -52.5h-23zM218 610l114 190h118l-179 -190h-53z" />
<glyph unicode="&#xfe;" horiz-adv-x="512" d="M24 -224l135 961h70l-43 -307q66 92 160 92q85 -1 127.5 -75t26.5 -187q-16 -111 -77 -191.5t-152 -80.5q-101 0 -134 90l-43 -302h-70zM161 255q-12 -86 14.5 -143t96.5 -57q46 0 80.5 33t51 75.5t23.5 91.5q4 47 2 91t-27 76.5t-70 32.5q-68 0 -113.5 -58t-57.5 -142z " />
<glyph unicode="&#xff;" horiz-adv-x="483" d="M-20 -245l3 74h12q74 0 103.5 28t82.5 147l-108 505h74l86 -418l180 418h74l-243 -540q-49 -109 -100 -161.5t-141 -52.5h-23zM194 612l14 104h72l-15 -104h-71zM373 612l14 104h73l-14 -104h-73z" />
<glyph unicode="&#x152;" horiz-adv-x="904" d="M100 376q26 161 130 264.5t241 103.5q101 0 152 -54l5 40h332l-18 -75h-241l-34 -242h225l-11 -75h-225l-37 -262h260l-17 -76h-337l6 40q-18 -17 -68 -34t-88 -17q-159 0 -229.5 105t-45.5 282zM189 377q-11 -65 -4 -122t27.5 -99.5t65.5 -67t109 -25.5q39 0 84 15 t70 30l71 507q-55 55 -143 55q-108 0 -183.5 -81.5t-96.5 -211.5z" />
<glyph unicode="&#x153;" horiz-adv-x="806" d="M72 254q17 115 84 191.5t167 76.5q120 0 158 -112q32 50 82 80.5t104 31.5q84 0 120.5 -66t20.5 -180q0 -2 -2.5 -16t-3.5 -19h-309q-12 -83 21 -133t95 -50q73 0 148 50l13 -56q-72 -64 -173 -64q-123 0 -161 112q-72 -112 -189 -112q-100 0 -145.5 75.5t-29.5 190.5z M145 252q-7 -54 0 -96.5t35.5 -71.5t76.5 -29q70 0 112.5 57t54.5 142q12 88 -13.5 144.5t-98.5 56.5q-69 0 -112 -58.5t-55 -144.5zM503 293h241q11 79 -13.5 121t-76.5 42t-93 -44.5t-58 -118.5z" />
<glyph unicode="&#x178;" horiz-adv-x="606" d="M102 730h86l144 -350l251 350h89l-316 -430l-42 -300h-83l43 300zM281 803l14 104h72l-15 -104h-71zM460 803l14 104h73l-14 -104h-73z" />
<glyph unicode="&#x2c6;" horiz-adv-x="372" d="M136 611l115 189h100l61 -189h-63l-57 133l-94 -133h-62z" />
<glyph unicode="&#x2dc;" horiz-adv-x="405" d="M143 630q15 107 93 107q34 0 79 -23t49 -23h1q19 1 28 46h50q-14 -107 -83 -107q-21 0 -69.5 24t-65.5 24h-1q-22 0 -31 -48h-50z" />
<glyph unicode="&#x2000;" horiz-adv-x="495" />
<glyph unicode="&#x2001;" horiz-adv-x="991" />
<glyph unicode="&#x2002;" horiz-adv-x="495" />
<glyph unicode="&#x2003;" horiz-adv-x="991" />
<glyph unicode="&#x2004;" horiz-adv-x="330" />
<glyph unicode="&#x2005;" horiz-adv-x="247" />
<glyph unicode="&#x2006;" horiz-adv-x="165" />
<glyph unicode="&#x2007;" horiz-adv-x="165" />
<glyph unicode="&#x2008;" horiz-adv-x="123" />
<glyph unicode="&#x2009;" horiz-adv-x="198" />
<glyph unicode="&#x200a;" horiz-adv-x="55" />
<glyph unicode="&#x2010;" horiz-adv-x="319" d="M78 254l9 70h238l-10 -70h-237z" />
<glyph unicode="&#x2011;" horiz-adv-x="319" d="M78 254l9 70h238l-10 -70h-237z" />
<glyph unicode="&#x2012;" horiz-adv-x="319" d="M78 254l9 70h238l-10 -70h-237z" />
<glyph unicode="&#x2013;" horiz-adv-x="598" d="M102 257l9 73h476l-10 -73h-475z" />
<glyph unicode="&#x2014;" horiz-adv-x="1102" d="M102 257l9 73h980l-10 -73h-979z" />
<glyph unicode="&#x2018;" horiz-adv-x="235" d="M136 538l96 231h55l-75 -231h-76z" />
<glyph unicode="&#x2019;" horiz-adv-x="232" d="M138 538l76 231h74l-96 -231h-54z" />
<glyph unicode="&#x201a;" horiz-adv-x="232" d="M42 -125l75 230h75l-95 -230h-55z" />
<glyph unicode="&#x201c;" horiz-adv-x="379" d="M136 538l95 231h57l-77 -231h-75zM281 538l95 231h56l-75 -231h-76z" />
<glyph unicode="&#x201d;" horiz-adv-x="369" d="M138 538l76 231h75l-96 -231h-55zM272 538l76 231h76l-97 -231h-55z" />
<glyph unicode="&#x201e;" horiz-adv-x="380" d="M42 -125l74 230h75l-94 -230h-55zM189 -125l75 230h76l-95 -230h-56z" />
<glyph unicode="&#x2022;" horiz-adv-x="402" d="M116 365q10 67 58.5 116t104.5 49q57 0 91 -48t25 -114q-10 -67 -58.5 -116t-105.5 -49q-58 0 -91 47.5t-24 114.5z" />
<glyph unicode="&#x2026;" horiz-adv-x="723" d="M68 59q3 26 22.5 45t49.5 19t43 -19t10 -45t-22 -45.5t-49 -19.5q-29 0 -43 19.5t-11 45.5zM309 59q3 26 22.5 45t49.5 19t43 -19t10 -45t-22 -45.5t-49 -19.5q-29 0 -43 19.5t-11 45.5zM550 59q3 26 22.5 45t49.5 19t43 -19t10 -45t-22 -45.5t-49 -19.5q-29 0 -43 19.5 t-11 45.5z" />
<glyph unicode="&#x202f;" horiz-adv-x="198" />
<glyph unicode="&#x2039;" horiz-adv-x="284" d="M96 285l137 194h66l-135 -194l77 -196h-65z" />
<glyph unicode="&#x203a;" horiz-adv-x="286" d="M71 89l136 197l-79 193h65l84 -193l-141 -197h-65z" />
<glyph unicode="&#x205f;" horiz-adv-x="247" />
<glyph unicode="&#x20ac;" horiz-adv-x="552" d="M89 283l15 50h42q0 13 2 26.5t6 29.5t5 24h-52l17 54h50q36 127 112 202t184 75q83 0 126 -46l-13 -88q-40 58 -113 58q-75 0 -127 -53.5t-80 -147.5h254l-16 -54h-254q-3 -10 -6 -30.5t-5 -34.5l-2 -15h249l-12 -50h-237q-2 -94 33 -155.5t110 -61.5q68 0 138 53 l-13 -85q-64 -45 -146 -45q-57 0 -99.5 25.5t-66 68.5t-34.5 93t-11 107h-56z" />
<glyph unicode="&#x2122;" horiz-adv-x="827" d="M138 681l7 49h291l-7 -49h-120l-54 -384h-53l53 384h-117zM430 297l61 433h73l76 -328l173 328h70l-61 -433h-53l50 362l-173 -327h-39l-74 327l-51 -362h-52z" />
<glyph unicode="&#xe000;" horiz-adv-x="510" d="M0 0v510h510v-510h-510z" />
<glyph unicode="&#xfb01;" horiz-adv-x="459" d="M72 452l9 57h67q20 143 58.5 192t125.5 49h30l-1 -62h-39q-54 0 -71 -34.5t-33 -144.5h254l-72 -509h-69l63 452h-184l-64 -452h-70l64 452h-68zM419 634l14 96h70l-13 -96h-71z" />
<glyph unicode="&#xfb02;" horiz-adv-x="518" d="M72 452l9 57h67q18 129 63 179t123 50q32 0 177 -10l-71 -508q-16 -88 -9.5 -123t52.5 -35q9 0 31 2l-4 -64q-49 -6 -52 -6q-80 0 -94.5 55t9.5 188l60 434q-56 5 -84 5h-10.5t-6.5 -0.5t-3 -0.5q-50 0 -74 -36t-37 -130h104l-8 -57h-104l-64 -452h-70l64 452h-68z" />
<glyph unicode="&#xfb03;" horiz-adv-x="666" d="M72 452l9 57h67q20 143 58.5 192t125.5 49h30l-1 -62h-39q-54 0 -71 -34.5t-33 -144.5h163q20 146 54 193.5t119 47.5h32l-5 -62h-36q-45 0 -60.5 -24.5t-25.5 -95.5l-8 -59h229l-72 -509h-69l63 452h-159l-64 -452h-69l63 452h-163l-64 -452h-70l64 452h-68zM628 634 l14 96h69l-14 -96h-69z" />
</font>
</defs>
</svg>
