<?xml version="1.0" standalone="no"?>
<!DOCTYPE svg PUBLIC "-//W3C//DTD SVG 1.1//EN" "http://www.w3.org/Graphics/SVG/1.1/DTD/svg11.dtd" >
<svg xmlns="http://www.w3.org/2000/svg">
<metadata></metadata>
<defs>
<font id="league_gothicCnRg" horiz-adv-x="232" >
<font-face units-per-em="1000" ascent="735" descent="-265" />
<missing-glyph horiz-adv-x="108" />
<glyph horiz-adv-x="1000" />
<glyph horiz-adv-x="1000" />
<glyph horiz-adv-x="333" />
<glyph unicode="&#xd;" horiz-adv-x="108" />
<glyph unicode=" "  horiz-adv-x="108" />
<glyph unicode="&#x09;" horiz-adv-x="108" />
<glyph unicode="&#xa0;" horiz-adv-x="108" />
<glyph unicode="!" horiz-adv-x="143" d="M13 735h88l-16 -537h-56zM16 0v111h81v-111h-81z" />
<glyph unicode="&#x22;" horiz-adv-x="204" d="M10 735h81l-9 -269h-63zM111 735h81l-9 -269h-63z" />
<glyph unicode="#" horiz-adv-x="391" d="M5 214l8 95h58q1 27 5 63l6 63h-57l7 95h58q2 39 8 102l9 103h75l-16 -205h58q2 39 8 102l9 103h75l-17 -205h57l-8 -95h-56l-6 -63q-4 -41 -5 -63h56l-8 -95h-56l-9 -107q-6 -72 -8 -107h-76l17 214h-58l-9 -107q-6 -72 -8 -107h-76l18 214h-59zM147 309h58q1 27 5 63 l6 63h-58z" />
<glyph unicode="$" horiz-adv-x="234" d="M3 175l65 6q4 -91 44 -91q32 0 32 90q0 54 -39 126q-68 127 -84 197q-7 35 -7 61q0 39 6.5 72t24 60t43.5 35v64h42v-61q20 -3 35.5 -16t24.5 -33t13.5 -42t6.5 -47l-65 -12q-3 29 -10 45.5t-22 15.5q-16 0 -22.5 -25t-6.5 -54q0 -35 20 -84q9 -23 50.5 -104.5 t53.5 -134.5q6 -30 6 -62q0 -26 -2.5 -49t-8.5 -46t-15 -40.5t-24 -29.5t-34 -15v-106h-42v108q-43 11 -64 59.5t-21 112.5z" />
<glyph unicode="%" horiz-adv-x="409" d="M21 445v213q0 37 20.5 61t54.5 24q68 0 74 -85v-213q-2 -38 -21 -62t-53 -24q-36 0 -55.5 25t-19.5 61zM77 0l210 735h64l-207 -735h-67zM81 445q-2 -27 15 -27q14 0 14 27v213q0 27 -14 27q-15 0 -15 -27v-213zM257 77v213q0 37 20.5 61.5t54.5 24.5q35 0 53 -25t21 -61 v-213q-2 -37 -21.5 -61t-52.5 -24q-36 0 -55.5 25t-19.5 60zM317 77q-2 -28 15 -28q14 0 14 28v213q0 27 -14 27q-15 0 -15 -27v-213z" />
<glyph unicode="&#x26;" horiz-adv-x="280" d="M-4 142q0 69 59 225q-31 113 -31 216q3 160 88 160q27 0 45.5 -16.5t26.5 -43.5t11 -49.5t3 -47.5q0 -37 -10.5 -80t-19 -63.5t-29.5 -71.5q34 -127 36 -132q16 44 16 90l66 -12q-2 -62 -45 -191q7 -15 35 -30v-104q-16 5 -26 9.5t-18 13.5t-10 12t-11 18 q-20 -53 -79 -53q-39 0 -65 28t-34 59t-8 63zM77 143q0 -25 8 -44.5t22 -19.5q26 0 39 48q-25 55 -49 137q-20 -97 -20 -121zM92 586q0 -65 14 -110q22 64 22 110q2 71 -18 71q-18 0 -18 -71z" />
<glyph unicode="'" horiz-adv-x="121" d="M8 735h81l-9 -269h-63z" />
<glyph unicode="(" horiz-adv-x="194" d="M10 315q0 160 43 324q21 77 46 147l61 -53q-74 -184 -74 -418q0 -161 38 -303q15 -62 36 -114l-60 -52q-50 126 -77 292q-13 78 -13 177z" />
<glyph unicode=")" horiz-adv-x="194" d="M4 -102q34 81 63 247q12 86 12 170q0 147 -38 303q-21 76 -37 115l61 53q50 -134 76 -293q13 -79 13 -178q0 -160 -43 -324q-16 -63 -47 -145z" />
<glyph unicode="*" horiz-adv-x="229" d="M11 613l14 69l48 -23l-5 76h63l-5 -77l47 24l15 -69l-53 -19l43 -65l-48 -49l-31 61l-30 -61l-49 49l47 65z" />
<glyph unicode="+" horiz-adv-x="341" d="M13 317v84h108v169h69v-169h108v-84h-108v-169h-69v169h-108z" />
<glyph unicode="," horiz-adv-x="121" d="M4 0v111h81v-111l-33 -130h-48l25 130h-25z" />
<glyph unicode="-" horiz-adv-x="160" d="M13 222v95h105v-95h-105z" />
<glyph unicode="." horiz-adv-x="124" d="M7 0v111h81v-111h-81z" />
<glyph unicode="/" horiz-adv-x="241" d="M-7 -72l159 807h66l-157 -807h-68z" />
<glyph unicode="0" horiz-adv-x="242" d="M9 141v453q0 64 24.5 106.5t76.5 42.5q37 0 61 -26t31.5 -57t7.5 -66v-453q0 -65 -23.5 -107t-76.5 -42q-37 0 -60.5 23.5t-32 55t-8.5 70.5zM94 141q0 -44 17 -44q16 0 16 44v453q0 44 -16 44q-17 0 -17 -44v-453z" />
<glyph unicode="1" horiz-adv-x="169" d="M-2 576v67q30 11 56 54q8 16 13 38h57v-735h-83v576h-43z" />
<glyph unicode="2" horiz-adv-x="244" d="M7 0v107q41 109 59 159.5t38.5 135t21.5 151.5q0 90 -17 90t-17 -90v-51h-83v51q3 190 100 190t97 -183q0 -163 -108 -453h103v-107h-194z" />
<glyph unicode="3" horiz-adv-x="231" d="M4 523q0 220 99 220q37 0 61 -30.5t31 -64.5t7 -69q0 -81 -10.5 -125t-39.5 -79q52 -35 52 -187q0 -41 -3.5 -72t-13.5 -61t-30.5 -46.5t-50.5 -16.5q-99 0 -99 220h81q0 -125 18 -125q17 0 17 100q-2 85 -13 114t-46 31v89q16 1 27 9t16.5 17t8 27.5t3 30t0.5 34.5v9 q0 97 -15 97q-18 0 -18 -122h-82z" />
<glyph unicode="4" horiz-adv-x="234" d="M1 160v95l103 480h81v-480h30v-95h-30v-160h-71v160h-113zM71 255h45v227z" />
<glyph unicode="5" horiz-adv-x="236" d="M13 214h82v-49q0 -79 15 -79q18 0 18 78v184q0 23 -5 38.5t-13 15.5q-10 0 -15.5 -20t-5.5 -34h-72v387h174v-107h-100v-157q1 10 16 19.5t27 9.5q75 0 75 -152v-174q-2 -182 -103 -182q-27 0 -46 16.5t-28 37t-13.5 54.5t-5 53t-0.5 49v12z" />
<glyph unicode="6" horiz-adv-x="235" d="M10 141v434q2 168 99 168q98 0 98 -168v-52h-80q0 126 -18 126q-16 0 -16 -74v-136q2 5 13 11t22 6q82 0 82 -135v-180q-1 -59 -27 -104t-79 -45q-37 0 -59.5 28t-28.5 58t-6 63zM93 129q0 -43 18 -43q19 0 19 43v210q0 33 -19 33q-15 0 -18 -30v-213z" />
<glyph unicode="7" horiz-adv-x="203" d="M-6 628v107h182v-108l-65 -627h-85l66 628h-98z" />
<glyph unicode="8" horiz-adv-x="234" d="M14 127v156q0 63 42 105q-39 39 -39 95v142q0 47 24.5 82.5t70.5 35.5q48 0 71.5 -36t23.5 -82v-142q0 -62 -39 -95q42 -24 42 -105v-156q0 -54 -24.5 -94.5t-73.5 -40.5q-50 0 -74 42t-24 93zM95 122q0 -14 5.5 -23.5t11.5 -9.5t11.5 9.5t5.5 23.5v168q0 42 -17 42 t-17 -42v-168zM95 462q0 -14 5.5 -23.5t11.5 -9.5t11.5 9.5t5.5 23.5v148q0 41 -17 41t-17 -41v-148z" />
<glyph unicode="9" horiz-adv-x="235" d="M2 414v180q1 59 27 104t79 45q37 0 59.5 -28t28.5 -58t6 -63v-434q-2 -168 -99 -168q-98 0 -98 168v52h80q0 -126 18 -126q16 0 16 74v136q-2 -5 -13 -11t-22 -6q-82 0 -82 135zM82 396q0 -33 19 -33q15 0 18 30v213q0 43 -18 43q-19 0 -19 -43v-210z" />
<glyph unicode=":" horiz-adv-x="136" d="M13 0v111h81v-111h-81zM13 436v111h81v-111h-81z" />
<glyph unicode=";" horiz-adv-x="136" d="M13 0v111h81v-111l-33 -130h-48l25 130h-25zM13 436v111h81v-111h-81z" />
<glyph unicode="&#x3c;" horiz-adv-x="340" d="M13 320v72l285 248v-107l-208 -177q7 -6 103 -88l105 -89v-107z" />
<glyph unicode="=" horiz-adv-x="340" d="M13 233v84h285v-84h-285zM13 422v84h285v-84h-285z" />
<glyph unicode="&#x3e;" horiz-adv-x="340" d="M13 72v107l207 177l-207 177v107l285 -248v-72z" />
<glyph unicode="?" horiz-adv-x="153" d="M-14 615q6 32 32 75q31 49 75 49q92 0 92 -130q0 -57 -42 -149q-27 -65 -27 -137v-125h-71v125q0 52 20 132q8 31 31 89q5 12 9.5 25.5t8 32.5t-2 31t-20.5 12q-6 0 -12 -4t-10 -9.5t-8 -15t-6 -15.5t-5 -15.5t-4 -11.5zM41 0v111h81v-111h-81z" />
<glyph unicode="@" horiz-adv-x="338" d="M8 152v426q0 58 28 103q43 65 122 65t124 -65q27 -44 27 -103v-388h-67l-13 31q-4 -14 -19.5 -26t-31.5 -12q-25 0 -39 26t-14 66v233q0 90 63 90q19 0 35 -14q-6 64 -65 64q-37 0 -51 -26q-14 -22 -14 -44v-426q0 -22 14 -41q15 -27 51 -27q41 0 63 35l71 -50 q-48 -80 -134 -80q-77 0 -122 64q-28 43 -28 99zM202 281q0 -7 4 -12t8 -5q12 0 12 17v219q0 17 -13 17q-11 0 -11 -17v-219z" />
<glyph unicode="A" horiz-adv-x="254" d="M-3 0l67 735h97l66 -735h-81l-11 150h-46l-11 -150h-81zM97 264h31l-16 292z" />
<glyph unicode="B" horiz-adv-x="248" d="M15 0v735h73q56 0 86 -43q34 -52 34 -152q0 -61 -8 -96.5t-35 -55.5q32 -30 41 -72q7 -32 7 -108q0 -102 -16 -145q-24 -63 -73 -63h-109zM98 107q16 0 20 5q11 15 11 108q0 97 -11 108q-5 5 -20 5v-226zM98 432q16 0 20 6q11 15 11 92t-11 92q-6 6 -20 6v-196z" />
<glyph unicode="C" horiz-adv-x="238" d="M9 141v453q0 59 23.5 104t74.5 45q28 0 49 -15.5t31 -40t14.5 -48t4.5 -45.5v-111h-81v111q0 44 -17 44q-14 0 -14 -40v-457q0 -44 14 -44q17 0 17 44v111h81v-111q0 -65 -23 -107t-76 -42q-36 0 -59.5 25t-31 56t-7.5 68z" />
<glyph unicode="D" horiz-adv-x="253" d="M15 0v735h69q49 0 72.5 -16.5t37.5 -59.5q19 -63 19 -292q0 -258 -15 -302q-11 -32 -34 -48.5t-69 -16.5h-80zM98 108q8 0 11 0.5t9.5 5t9.5 17t3 33.5v172q0 240 -3 267q-1 6 -3 10.5t-3.5 7t-5.5 4t-5.5 1.5t-6.5 0.5t-6 0.5v-519z" />
<glyph unicode="E" horiz-adv-x="214" d="M15 0v735h166v-111h-83v-193h60v-118h-60v-202h83v-111h-166z" />
<glyph unicode="F" horiz-adv-x="211" d="M15 0v735h172v-111h-89v-193h60v-111h-60v-320h-83z" />
<glyph unicode="G" horiz-adv-x="246" d="M9 141v453q0 59 24 104t75 45q28 0 49 -14.5t31 -38.5t14.5 -47.5t4.5 -48.5v-123h-83v123q0 44 -16 44q-15 0 -15 -44v-462q0 -44 17 -44q20 0 20 44v143h-18v91h95v-366h-43l-9 27q-7 -13 -24 -24t-31 -11q-26 0 -45 15.5t-28.5 40t-13.5 48t-4 45.5z" />
<glyph unicode="H" horiz-adv-x="258" d="M15 0v735h83v-304h32v304h83v-735h-83v320h-32v-320h-83z" />
<glyph unicode="I" horiz-adv-x="143" d="M15 0v735h83v-735h-83z" />
<glyph unicode="J" horiz-adv-x="154" d="M-4 -6v108q22 -5 29.5 12t7.5 39v582h83v-599q0 -71 -27 -109.5t-93 -32.5z" />
<glyph unicode="K" horiz-adv-x="255" d="M15 0v735h80v-211l54 211h81l-73 -269l71 -466h-81l-52 350v-350h-80z" />
<glyph unicode="L" horiz-adv-x="207" d="M15 0v735h83v-635h86v-100h-169z" />
<glyph unicode="M" horiz-adv-x="320" d="M15 0v735h92l38 -347l38 347h92v-735h-79v362l-28 -362h-45l-31 362v-362h-77z" />
<glyph unicode="N" horiz-adv-x="267" d="M15 0v735h70l60 -347v347h77v-735h-70l-60 357v-357h-77z" />
<glyph unicode="O" horiz-adv-x="242" d="M9 141v453q0 64 24.5 106.5t76.5 42.5q37 0 61 -26t31.5 -57t7.5 -66v-453q0 -65 -23.5 -107t-76.5 -42q-37 0 -60.5 23.5t-32 55t-8.5 70.5zM94 141q0 -44 17 -44q16 0 16 44v453q0 44 -16 44q-17 0 -17 -44v-453z" />
<glyph unicode="P" horiz-adv-x="241" d="M15 0v735h84q50 0 78 -44q35 -56 35 -176q0 -123 -35 -179q-25 -40 -79 -42v-294h-83zM98 404q20 0 26 12q8 16 8 95q0 87 -8 105q-5 11 -26 11v-223z" />
<glyph unicode="Q" horiz-adv-x="244" d="M9 141v453q0 149 97 149q37 0 61 -26t31.5 -57t7.5 -66v-453q0 -44 -15 -87v-1v-1q9 -14 23 -18v-90q-61 0 -81 52h-1q-6 -2 -9 -2l-12 -2h-8h-3l-1 1q-34 2 -55.5 27t-28 54.5t-6.5 66.5zM94 141q0 -44 13 -44q14 0 14 44v453q0 44 -14 44q-13 0 -13 -44v-453z" />
<glyph unicode="R" horiz-adv-x="247" d="M15 0v735h84q57 0 83.5 -53t26.5 -159q0 -122 -38 -167l51 -356h-81l-43 320v-320h-83zM98 405q15 0 22 11q10 14 10 103q0 85 -9 99q-6 10 -23 10v-223z" />
<glyph unicode="S" horiz-adv-x="236" d="M2 205l81 12q0 -126 22 -126q11 0 14 16t3 55q0 42 -14 85.5t-52 134.5q-45 121 -45 189q0 28 3.5 54t12.5 54.5t29 45.5t48 18q100 2 100 -194l-82 -12q0 107 -16 107q-14 0 -14 -73q0 -50 49 -173q32 -78 47.5 -129.5t15.5 -101.5q0 -175 -99 -175q-22 0 -39 9 t-27.5 21t-18 33.5t-11 37t-5.5 42t-2 37v33.5z" />
<glyph unicode="T" horiz-adv-x="220" d="M-8 624v111h205v-111h-61v-624h-83v624h-61z" />
<glyph unicode="U" horiz-adv-x="250" d="M8 141v594h83v-594q0 -44 16 -44q15 0 15 44v594h83v-594q0 -149 -98 -149q-99 0 -99 149z" />
<glyph unicode="V" horiz-adv-x="240" d="M-4 735h81l28 -376l28 376h81l-68 -735h-82z" />
<glyph unicode="W" horiz-adv-x="334" d="M-2 735h78l21 -345l24 345h61l25 -344q3 54 10 172t10 172h78l-54 -735h-71l-28 352l-28 -352h-70z" />
<glyph unicode="X" horiz-adv-x="246" d="M-4 0l71 386q-1 6 -15 73.5t-20 100.5l-35 175h82l29 -178q5 29 15 88.5t14 89.5h82l-70 -349q4 -22 11.5 -64.5t11.5 -61.5l48 -260h-81l-31 203l-31 -203h-81z" />
<glyph unicode="Y" horiz-adv-x="235" d="M-2 735h82l28 -214q4 34 14 105.5t15 108.5h82l-69 -422v-313h-83v313z" />
<glyph unicode="Z" horiz-adv-x="214" d="M-3 0v116l101 512h-87v107h176v-107l-104 -521h104v-107h-190z" />
<glyph unicode="[" horiz-adv-x="188" d="M15 -104v839h135v-96h-59v-647h59v-96h-135z" />
<glyph unicode="\" horiz-adv-x="262" d="M-7 826h66l180 -914h-67z" />
<glyph unicode="]" horiz-adv-x="188" d="M8 -8h59v647h-59v96h135v-839h-135v96z" />
<glyph unicode="^" horiz-adv-x="353" d="M7 395l111 340h87l111 -340h-76l-79 238l-78 -238h-76z" />
<glyph unicode="_" horiz-adv-x="354" d="M13 -75h299v-84h-299v84z" />
<glyph unicode="`" horiz-adv-x="330" d="M78 727h80l31 -90h-64z" />
<glyph unicode="a" horiz-adv-x="230" d="M5 127q0 132 76 197q28 24 32 39v59q0 46 -13 46q-7 0 -10.5 -16t-3.5 -30v-36h-76v33q0 53 23.5 94.5t69.5 41.5q42 0 64 -39.5t20 -84.5v-336q0 -55 5 -95h-67q-9 15 -12 33q-16 -41 -51 -41q-57 0 -57 135zM77 128q0 -41 14 -41q9 0 15 11t6 26v127 q-14 -18 -24.5 -54.5t-10.5 -68.5z" />
<glyph unicode="b" horiz-adv-x="231" d="M15 0v735h79v-211q2 10 16 20.5t25 10.5q61 0 61 -107v-349v-17.5t-0.5 -21t-2 -19.5t-4.5 -20t-7.5 -14t-12.5 -11.5t-18 -3.5q-18 0 -35 13.5t-22 24.5v-30h-79zM94 125q0 -38 14 -38t14 38v306q0 36 -14 36t-14 -36v-306z" />
<glyph unicode="c" horiz-adv-x="219" d="M10 144v259q0 27 4.5 51t14 48t28.5 38.5t46 14.5q32 0 52 -12t28.5 -36.5t10.5 -44.5t2 -54v-53h-76v72q0 40 -15 40q-7 0 -11.5 -12.5t-4.5 -27.5v-301q0 -43 15 -43q16 0 16 43v76h76v-63q0 -28 -1.5 -45.5t-7 -39t-15 -33.5t-27.5 -20.5t-44 -8.5q-28 0 -47 15 t-28 40t-12.5 48.5t-3.5 48.5z" />
<glyph unicode="d" horiz-adv-x="231" d="M21 99v349q0 107 61 107q11 0 25 -10.5t16 -20.5v211h79v-735h-79v30q-5 -11 -22 -24.5t-35 -13.5q-10 0 -18 3.5t-12.5 11.5t-7.5 14t-4.5 20t-2 19.5t-0.5 21v17.5zM95 125q0 -38 14 -38t14 38v306q0 36 -14 36t-14 -36v-306z" />
<glyph unicode="e" horiz-adv-x="223" d="M10 130v285q0 56 23 98t69 42q30 0 50 -12t29 -33.5t12 -42.5t3 -49v-163h-109v-119q0 -55 15 -55q19 0 19 55v60h75v-69q0 -135 -99 -135q-33 0 -53.5 22.5t-27 51t-6.5 64.5zM87 334h34v77q0 56 -20 56q-14 0 -14 -56v-77z" />
<glyph unicode="f" horiz-adv-x="169" d="M-3 456v91h31v32q0 33 2.5 54.5t9.5 49t23.5 42t42.5 14.5q20 0 37 -10v-83q-18 11 -28 1q-9 -10 -9 -62v-38h31v-91h-31v-456h-78v456h-31z" />
<glyph unicode="g" horiz-adv-x="245" d="M-5 -90q0 45 52 83h1q-43 21 -43 73q0 45 41 82q-38 58 -38 119v149q1 33 9 62.5t29.5 53t52.5 23.5q43 0 62 -34q29 34 63 34v-90q-28 0 -37 -12q4 -8 4 -24v-165q-3 -52 -27 -93.5t-70 -41.5h-5q-6 -10 -6 -24q0 -23 40 -34q43 -12 60 -31q31 -38 31 -96 q0 -60 -27.5 -100t-85.5 -40q-51 0 -78.5 28.5t-27.5 77.5zM71 -73q0 -38 31 -38q16 0 26.5 11t10.5 26q0 29 -26 39l-24 8q-18 -20 -18 -46zM86 262q0 -49 13 -49q15 0 15 49v155q0 50 -15 50q-13 0 -13 -50v-155z" />
<glyph unicode="h" horiz-adv-x="229" d="M15 0v735h79v-211q2 10 16 20.5t27 10.5q23 0 37 -21t17.5 -42.5t3.5 -43.5v-448h-75v431q0 36 -13 36t-13 -36v-431h-79z" />
<glyph unicode="i" horiz-adv-x="132" d="M15 0v547h79v-547h-79zM15 634v101h79v-101h-79z" />
<glyph unicode="j" horiz-adv-x="137" d="M-22 -180l2 91q15 -5 23 3.5t9 18t1 26.5v5v583h79v-561q0 -34 -2 -58.5t-9 -54t-24.5 -45.5t-43.5 -16q-18 0 -35 8zM13 634v101h79v-101h-79z" />
<glyph unicode="k" horiz-adv-x="218" d="M15 0v735h76v-302l37 114h76l-67 -188l65 -359h-76l-35 232v-232h-76z" />
<glyph unicode="l" horiz-adv-x="137" d="M15 0v735h79v-735h-79z" />
<glyph unicode="m" horiz-adv-x="329" d="M15 0v547h79v-29q9 15 24.5 26t29.5 11q16 0 26 -12t12 -28q7 16 26 28t36 12q50 0 50 -107v-448h-73v431q0 36 -15 36t-15 -36v-431h-72v433q0 34 -15 34q-14 0 -14 -36v-431h-79z" />
<glyph unicode="n" d="M15 0v547h79v-28q8 12 24.5 24t28.5 12q54 0 54 -107v-448h-78v432q0 35 -15 35q-14 0 -14 -36v-431h-79z" />
<glyph unicode="o" horiz-adv-x="223" d="M10 136v275q0 144 94 144q55 0 73 -36.5t18 -104.5v-281q0 -68 -21 -104.5t-72 -36.5q-92 0 -92 144zM85 126q-2 -45 17 -45q10 0 14.5 17t3.5 28v295q2 46 -17 46q-18 0 -18 -46v-295z" />
<glyph unicode="p" horiz-adv-x="231" d="M15 -188v735h79v-28q6 13 22 24.5t30 11.5q55 0 55 -107v-349q-3 -107 -55 -107q-14 0 -29.5 12t-22.5 28v-220h-79zM94 120q0 -33 15 -33q14 0 14 33v310q0 37 -14 37q-15 0 -15 -37v-310z" />
<glyph unicode="q" horiz-adv-x="231" d="M15 99v349q0 107 55 107q14 0 30 -11.5t22 -24.5v28h79v-735h-79v220q-7 -16 -22.5 -28t-29.5 -12q-52 0 -55 107zM93 120q0 -33 14 -33q15 0 15 33v310q0 37 -15 37q-14 0 -14 -37v-310z" />
<glyph unicode="r" horiz-adv-x="178" d="M15 0v547h77v-30q22 38 67 38v-120q-33 19 -50 0.5t-17 -55.5v-380h-77z" />
<glyph unicode="s" horiz-adv-x="215" d="M2 159h72q0 -83 19 -83q16 0 16 66q0 32 -41 118q-4 8 -15.5 29t-16 32t-11.5 29.5t-10 36.5t-3 38q0 56 21.5 93t64.5 37q88 0 88 -148h-68q0 64 -18 64q-14 0 -14 -57q0 -10 2 -21.5t4 -19t7.5 -19.5t8 -17t9 -17.5t7.5 -14.5q60 -99 60 -181q0 -21 -3.5 -41t-12.5 -42 t-28.5 -35.5t-46.5 -13.5q-30 0 -49.5 14.5t-28 42.5t-11 52t-2.5 58z" />
<glyph unicode="t" horiz-adv-x="175" d="M2 456v91h33v135h77v-135h42v-91h-42v-456h-77v456h-33z" />
<glyph unicode="u" d="M11 99v448h78v-432q0 -35 15 -35q14 0 14 36v431h79v-547h-79v28q-8 -12 -24.5 -24t-28.5 -12q-54 0 -54 107z" />
<glyph unicode="v" horiz-adv-x="206" d="M-4 547h74l23 -321l24 321h74l-59 -547h-78z" />
<glyph unicode="w" horiz-adv-x="295" d="M-3 547h71l19 -251l22 251h48l21 -251l19 251h71l-48 -547h-65l-23 260l-22 -260h-64z" />
<glyph unicode="x" horiz-adv-x="217" d="M1 547h74l25 -137l27 137h74l-62 -265l56 -282h-73l-22 148q-3 -19 -10.5 -77.5t-9.5 -70.5h-74l56 282z" />
<glyph unicode="y" horiz-adv-x="228" d="M-2 547h77l29 -323q3 38 13.5 162.5t12.5 160.5h78l-68 -588q-6 -67 -28 -106q-17 -32 -44.5 -44.5t-56.5 -1.5v89q23 -9 35 5q18 27 18 83z" />
<glyph unicode="z" horiz-adv-x="186" d="M-5 0v82l83 373h-70v92h152v-82l-83 -373h83v-92h-165z" />
<glyph unicode="{" d="M9 221v80q10 0 17.5 7t12 18t6.5 22t2 21v194q1 50 6.5 80.5t20.5 55.5t44.5 35t75.5 9v-84q-46 -1 -58.5 -24t-12.5 -72v-194q0 -37 -14.5 -69t-35.5 -39q22 -15 36 -44t14 -64v-194q2 -54 14.5 -75t56.5 -21v-84q-39 0 -66 8t-43 21.5t-24.5 37.5t-11 49t-2.5 64v194 q0 23 -10 45t-28 23z" />
<glyph unicode="|" horiz-adv-x="134" d="M15 -250v1076h74v-1076h-74z" />
<glyph unicode="}" d="M8 -137q44 0 56.5 21t14.5 75v194q0 35 14 64t36 44q-21 7 -35.5 39t-14.5 69v194q0 49 -12.5 72t-58.5 24v84q89 2 117 -39t30 -141v-194q0 -23 9.5 -45.5t28.5 -22.5v-80q-18 -1 -28 -23t-10 -45v-194q0 -49 -4.5 -78t-19 -54.5t-45 -36.5t-78.5 -11v84z" />
<glyph unicode="~" horiz-adv-x="405" d="M24 663q14 68 55 124q20 23 52 23q37 0 87 -50q31 -35 45 -35q24 0 46 86q0 2 1 6t1 5l57 -39q-17 -74 -55 -125q-18 -23 -50 -23q-26 0 -44.5 12.5t-40.5 36.5q-32 36 -47 36q-16 0 -36 -44q-11 -32 -15 -53z" />
<glyph d="M7 494v111l33 130h48l-21 -130h21v-111h-81zM115 494v111l33 130h48l-21 -130h21v-111h-81z" />
<glyph horiz-adv-x="228" d="M7 494l21 130h-21v111h81v-111l-33 -130h-48zM115 494l21 130h-21v111h81v-111l-33 -130h-48z" />
<glyph unicode="&#xa1;" horiz-adv-x="143" d="M13 -188l16 537h56l16 -537h-88zM16 436v111h81v-111h-81z" />
<glyph unicode="&#xa2;" horiz-adv-x="217" d="M7 239v259q0 48 14.5 92.5t49.5 56.5v118h54v-117q23 -5 38 -18.5t21 -36.5t7.5 -41.5t1.5 -48.5v-53h-76v72q0 40 -15 40q-7 0 -11.5 -12.5t-4.5 -27.5v-301q0 -43 15 -43q16 0 16 43v76h76v-63q0 -31 -2.5 -50.5t-8.5 -41.5t-20.5 -35t-36.5 -18v-149h-53v147 q-36 13 -50.5 58.5t-14.5 93.5z" />
<glyph unicode="&#xa3;" horiz-adv-x="269" d="M-8 33q10 41 36 80q8 12 26 22q11 49 11 97q0 35 -9 85h-55v67h44q-3 12 -7 31q-19 103 -19 146q0 180 96 182q61 1 87 -60q19 -50 19 -136h-81q0 96 -21 96t-21 -82q0 -52 23 -177h61v-67h-51q8 -50 8 -85q0 -50 -19 -107l7 -7t11 -10t12 -11l8 21q8 20 9 73l73 -14 q-4 -89 -26 -137t-57 -48q-19 0 -46.5 25t-33.5 25t-16 -25q-4 -9 -11 -37z" />
<glyph unicode="&#xa5;" horiz-adv-x="241" d="M-2 735h82l31 -214q3 24 16 103t17 111h82l-65 -368h44v-67h-52v-67h52v-67h-52v-166h-83v166h-51v67h51v67h-51v67h43z" />
<glyph unicode="&#xa8;" horiz-adv-x="330" d="M61 637v98h74v-98h-74zM165 637v98h74v-98h-74z" />
<glyph unicode="&#xa9;" horiz-adv-x="512" d="M7 367q0 156 67 266q65 110 167 110q101 0 167 -110q67 -110 67 -266q0 -155 -67 -265q-66 -110 -167 -110q-102 0 -167 110q-67 110 -67 265zM59 367q0 -132 56 -223q57 -94 126 -94q70 0 127 94q54 93 54 223q0 132 -54 225q-56 93 -127 93q-70 0 -126 -93 q-56 -91 -56 -225zM175 238v259q0 49 25 81q12 15 40 15q43 0 57 -48q7 -25 7 -48v-61h-58v61q1 15 -4 26q-1 0 -1 2l-3 -10v-1l-1 -2q-2 -8 -2 -15v-259q0 -18 6 -28v-3q2 0 4 13.5t1 17.5v61h58v-61q-3 -50 -25 -81q-12 -15 -39 -15q-65 0 -65 96z" />
<glyph unicode="&#xad;" horiz-adv-x="160" d="M13 222v95h105v-95h-105z" />
<glyph unicode="&#xae;" horiz-adv-x="512" d="M7 367q0 156 67 266q65 110 167 110q101 0 167 -110q67 -110 67 -266q0 -155 -67 -265q-66 -110 -167 -110q-102 0 -167 110q-67 110 -67 265zM59 367q0 -132 56 -223q57 -94 126 -94q70 0 127 94q54 93 54 223q0 132 -54 225q-56 93 -127 93q-70 0 -126 -93 q-56 -91 -56 -225zM174 153v429h67q76 0 76 -126q0 -70 -26 -108h1l31 -195h-63l-25 165v-165h-61zM235 393h4q20 0 20 62q0 64 -20 64h-4v-126z" />
<glyph unicode="&#xaf;" horiz-adv-x="330" d="M83 642v79h134v-79h-134z" />
<glyph unicode="&#xb4;" horiz-adv-x="330" d="M111 637l31 90h80l-47 -90h-64z" />
<glyph unicode="&#xb7;" horiz-adv-x="93" d="M-9 317v111h81v-111h-81z" />
<glyph unicode="&#xb8;" horiz-adv-x="330" d="M116 -54h68v-69l-13 -65h-49l16 65h-22v69z" />
<glyph unicode="&#xbf;" horiz-adv-x="219" d="M-14 -62q0 57 42 149q27 65 27 137v125h71v-125q0 -52 -20 -132q-8 -31 -31 -89q-5 -12 -9.5 -25.5t-8 -32.5t2 -31t20.5 -12q6 0 12 4t10 9.5t8 15t6 15.5t5 15.5t4 11.5l60 -41q-6 -32 -32 -75q-31 -49 -75 -49q-92 0 -92 130zM49 436v111h81v-111h-81z" />
<glyph unicode="&#xc0;" horiz-adv-x="254" d="M-3 0l67 735h97l66 -735h-81l-11 150h-46l-11 -150h-81zM33 890h80l32 -90h-64zM97 264h31l-16 292z" />
<glyph unicode="&#xc1;" horiz-adv-x="254" d="M-3 0l67 735h97l66 -735h-81l-11 150h-46l-11 -150h-81zM77 800l31 90h80l-47 -90h-64zM97 264h31l-16 292z" />
<glyph unicode="&#xc2;" horiz-adv-x="254" d="M-3 0l67 735h97l66 -735h-81l-11 150h-46l-11 -150h-81zM31 800l42 90h81l41 -90h-65l-17 39l-17 -39h-65zM97 264h31l-16 292z" />
<glyph unicode="&#xc3;" horiz-adv-x="254" d="M-3 0l67 735h97l66 -735h-81l-11 150h-46l-11 -150h-81zM46 783v86q15 21 41 21q12 0 28 -8.5t25 -8.5t22 10t18 19v-83q-15 -25 -40 -25q-12 0 -28 9.5t-26 9.5q-8 0 -21.5 -11t-18.5 -19zM97 264h31l-16 292z" />
<glyph unicode="&#xc4;" horiz-adv-x="254" d="M-3 0l67 735h97l66 -735h-81l-12 150h-44l-12 -150h-81zM28 800v98h74v-98h-74zM98 264h29l-15 262zM125 800v98h73v-98h-73z" />
<glyph unicode="&#xc5;" horiz-adv-x="254" d="M-3 0l67 735h97l66 -735h-81l-12 150h-44l-12 -150h-81zM59 860q0 30 15.5 50t38.5 20q22 0 37.5 -20t15.5 -50t-15.5 -50t-37.5 -20q-23 0 -38.5 20t-15.5 50zM98 264h29l-15 262zM98 860q0 -14 4.5 -23t10.5 -9q5 0 10 9.5t5 22.5t-5 22t-10 9q-6 0 -10.5 -8.5 t-4.5 -22.5z" />
<glyph unicode="&#xc6;" horiz-adv-x="352" d="M-4 0l123 735h200v-111h-83v-193h60v-118h-60v-202h83v-111h-166v150h-49l-26 -150h-82zM121 264h32v274z" />
<glyph unicode="&#xc7;" horiz-adv-x="238" d="M9 141v453q0 59 23.5 104t74.5 45q28 0 49 -15.5t31 -40t14.5 -48t4.5 -45.5v-111h-81v111q0 44 -17 44q-14 0 -14 -40v-457q0 -44 14 -44q17 0 17 44v111h81v-111q0 -65 -23 -107t-76 -42q-36 0 -59.5 25t-31 56t-7.5 68zM70 -54h68v-69l-13 -65h-49l12 65h-18v69z" />
<glyph unicode="&#xc8;" horiz-adv-x="214" d="M15 0v735h166v-111h-83v-193h60v-118h-60v-202h83v-111h-166zM24 890h80l32 -90h-64z" />
<glyph unicode="&#xc9;" horiz-adv-x="214" d="M15 0v735h166v-111h-83v-193h60v-118h-60v-202h83v-111h-166zM60 800l31 90h80l-47 -90h-64z" />
<glyph unicode="&#xca;" horiz-adv-x="214" d="M15 0v735h166v-111h-83v-193h60v-118h-60v-202h83v-111h-166zM18 800l42 90h81l41 -90h-65l-17 39l-17 -39h-65z" />
<glyph unicode="&#xcb;" horiz-adv-x="214" d="M15 0v735h166v-111h-83v-193h60v-118h-60v-202h83v-111h-166zM15 800v98h74v-98h-74zM112 800v98h73v-98h-73z" />
<glyph unicode="&#xcc;" horiz-adv-x="148" d="M-10 890h80l31 -90h-63zM20 0v735h83v-735h-83z" />
<glyph unicode="&#xcd;" horiz-adv-x="148" d="M15 0v735h83v-735h-83zM16 800l31 90h80l-47 -90h-64z" />
<glyph unicode="&#xce;" horiz-adv-x="139" d="M-29 800l42 90h81l41 -90h-65l-17 39l-17 -39h-65zM13 0v735h82v-735h-82z" />
<glyph unicode="&#xcf;" horiz-adv-x="139" d="M-29 800v98h74v-98h-74zM13 0v735h83v-735h-83zM68 800v98h73v-98h-73z" />
<glyph unicode="&#xd0;" horiz-adv-x="253" d="M-3 320v111h18v304h60q97 0 117.5 -62.5t20.5 -305.5q0 -66 -0.5 -102.5t-2.5 -81t-5.5 -65.5t-10.5 -46.5t-16.5 -35.5t-24.5 -20.5t-33.5 -13t-44.5 -2.5h-60v320h-18zM98 108q8 0 11 0.5t9.5 5t9.5 17t3 33.5v172q0 240 -3 267q-1 6 -3 10.5t-3.5 7t-5.5 4t-5.5 1.5 t-6.5 0.5t-6 0.5v-196h15v-111h-15v-212z" />
<glyph unicode="&#xd1;" horiz-adv-x="267" d="M15 0v735h70l60 -347v347h77v-735h-70l-60 357v-357h-77zM51 783v86q15 21 41 21q12 0 28 -8.5t25 -8.5t22 10t18 19v-83q-15 -25 -40 -25q-12 0 -28 9.5t-26 9.5q-8 0 -21.5 -11t-18.5 -19z" />
<glyph unicode="&#xd2;" horiz-adv-x="242" d="M9 141v453q0 64 24.5 106.5t76.5 42.5q37 0 61 -26t31.5 -57t7.5 -66v-453q0 -65 -23.5 -107t-76.5 -42q-37 0 -60.5 23.5t-32 55t-8.5 70.5zM27 890h80l32 -90h-64zM94 141q0 -44 17 -44q16 0 16 44v453q0 44 -16 44q-17 0 -17 -44v-453z" />
<glyph unicode="&#xd3;" horiz-adv-x="242" d="M9 141v453q0 64 24.5 106.5t76.5 42.5q37 0 61 -26t31.5 -57t7.5 -66v-453q0 -65 -23.5 -107t-76.5 -42q-37 0 -60.5 23.5t-32 55t-8.5 70.5zM74 800l32 90h80l-48 -90h-64zM94 141q0 -44 17 -44q16 0 16 44v453q0 44 -16 44q-17 0 -17 -44v-453z" />
<glyph unicode="&#xd4;" horiz-adv-x="242" d="M9 141v453q0 64 24.5 106.5t76.5 42.5q37 0 61 -26t31.5 -57t7.5 -66v-453q0 -65 -23.5 -107t-76.5 -42q-37 0 -60.5 23.5t-32 55t-8.5 70.5zM27 800l42 90h81l41 -90h-65l-17 39l-17 -39h-65zM94 141q0 -44 17 -44q16 0 16 44v453q0 44 -16 44q-17 0 -17 -44v-453z" />
<glyph unicode="&#xd5;" horiz-adv-x="242" d="M9 141v453q0 64 24.5 106.5t76.5 42.5q37 0 61 -26t31.5 -57t7.5 -66v-453q0 -65 -23.5 -107t-76.5 -42q-37 0 -60.5 23.5t-32 55t-8.5 70.5zM39 783v86q15 21 41 21q12 0 28 -8.5t25 -8.5t22 10t18 19v-83q-15 -25 -40 -25q-12 0 -28 9.5t-26 9.5q-8 0 -21.5 -11 t-18.5 -19zM94 141q0 -44 17 -44q16 0 16 44v453q0 44 -16 44q-17 0 -17 -44v-453z" />
<glyph unicode="&#xd6;" horiz-adv-x="242" d="M9 141v453q0 64 24.5 106.5t76.5 42.5q37 0 61 -26t31.5 -57t7.5 -66v-453q0 -65 -23.5 -107t-76.5 -42q-37 0 -60.5 23.5t-32 55t-8.5 70.5zM25 800v98h74v-98h-74zM94 141q0 -44 17 -44q16 0 16 44v453q0 44 -16 44q-17 0 -17 -44v-453zM122 800v98h73v-98h-73z" />
<glyph unicode="&#xd8;" horiz-adv-x="242" d="M12 141v453q0 64 24.5 106.5t76.5 42.5q26 0 47 -13l3 15h46l-12 -63q16 -37 16 -88v-453q0 -65 -23.5 -107t-76.5 -42q-25 0 -47 12l-3 -14h-48l12 63q-15 35 -15 88zM97 141q0 -44 17 -44q16 0 16 44v195l-33 -171v-24zM97 408l33 168v18q0 44 -16 44q-17 0 -17 -44 v-186z" />
<glyph unicode="&#xd9;" horiz-adv-x="250" d="M8 141v594h83v-594q0 -44 16 -44q15 0 15 44v594h83v-594q0 -149 -98 -149q-99 0 -99 149zM35 890h80l31 -90h-64z" />
<glyph unicode="&#xda;" horiz-adv-x="250" d="M8 141v594h83v-594q0 -44 16 -44q15 0 15 44v594h83v-594q0 -149 -98 -149q-99 0 -99 149zM81 800l31 90h80l-47 -90h-64z" />
<glyph unicode="&#xdb;" horiz-adv-x="250" d="M8 141v594h83v-594q0 -44 16 -44q15 0 15 44v594h83v-594q0 -149 -98 -149q-99 0 -99 149zM22 800l42 90h81l41 -90h-65l-17 39l-17 -39h-65z" />
<glyph unicode="&#xdc;" horiz-adv-x="250" d="M8 141v594h83v-594q0 -44 16 -44q15 0 15 44v594h83v-594q0 -149 -98 -149q-99 0 -99 149zM21 800v98h74v-98h-74zM118 800v98h73v-98h-73z" />
<glyph unicode="&#xdd;" horiz-adv-x="236" d="M-2 735h82l28 -214q4 34 14 105.5t15 108.5h82l-69 -422v-313h-83v313zM65 800l32 90h80l-48 -90h-64z" />
<glyph unicode="&#xde;" horiz-adv-x="242" d="M15 0v735h83v-118q49 -3 77 -46q37 -59 37 -174q0 -114 -37 -173q-30 -43 -77 -48v-176h-83zM98 286q12 3 19 10.5t9.5 27t3 29t0.5 40.5q0 30 -0.5 41.5t-3 31.5t-9.5 29t-19 12v-221z" />
<glyph unicode="&#xdf;" horiz-adv-x="251" d="M7 0v603q0 59 25.5 99.5t75.5 40.5q53 0 76 -41t23 -98q0 -50 -29 -85q25 -26 35 -73q12 -57 12 -165q0 -173 -25 -232q-12 -28 -34 -38.5t-57 -10.5v94q22 0 29 33q9 41 9 154q0 120 -9 162q-8 35 -29 35v69q11 0 18.5 15.5t7.5 41.5q0 21 -7.5 35t-19.5 14 q-22 0 -22 -50v-603h-79z" />
<glyph unicode="&#xe0;" horiz-adv-x="230" d="M5 127q0 132 76 197q28 24 32 39v59q0 46 -13 46q-7 0 -10.5 -16t-3.5 -30v-36h-76v33q0 53 23.5 94.5t69.5 41.5q42 0 64 -39.5t20 -84.5v-336q0 -55 5 -95h-67q-9 15 -12 33q-16 -41 -51 -41q-57 0 -57 135zM32 727h80l31 -90h-64zM77 128q0 -41 14 -41q9 0 15 11t6 26 v127q-14 -18 -24.5 -54.5t-10.5 -68.5z" />
<glyph unicode="&#xe1;" horiz-adv-x="230" d="M5 127q0 132 76 197q28 24 32 39v59q0 46 -13 46q-7 0 -10.5 -16t-3.5 -30v-36h-76v33q0 53 23.5 94.5t69.5 41.5q42 0 64 -39.5t20 -84.5v-336q0 -55 5 -95h-67q-9 15 -12 33q-16 -41 -51 -41q-57 0 -57 135zM59 637l32 90h80l-48 -90h-64zM77 128q0 -41 14 -41 q9 0 15 11t6 26v127q-14 -18 -24.5 -54.5t-10.5 -68.5z" />
<glyph unicode="&#xe2;" horiz-adv-x="230" d="M5 127q0 132 76 197q28 24 32 39v59q0 46 -13 46q-7 0 -10.5 -16t-3.5 -30v-36h-76v33q0 53 23.5 94.5t69.5 41.5q42 0 64 -39.5t20 -84.5v-336q0 -55 5 -95h-67q-9 15 -12 33q-16 -41 -51 -41q-57 0 -57 135zM18 637l42 90h81l41 -90h-65l-17 39l-17 -39h-65zM77 128 q0 -41 14 -41q9 0 15 11t6 26v127q-14 -18 -24.5 -54.5t-10.5 -68.5z" />
<glyph unicode="&#xe3;" horiz-adv-x="230" d="M5 127q0 132 76 197q28 24 32 39v59q0 46 -13 46q-7 0 -10.5 -16t-3.5 -30v-36h-76v33q0 53 23.5 94.5t69.5 41.5q42 0 64 -39.5t20 -84.5v-336q0 -55 5 -95h-67q-9 15 -12 33q-16 -41 -51 -41q-57 0 -57 135zM32 619v86q15 21 41 21q12 0 28 -8.5t25 -8.5t22 10t18 19 v-83q-15 -25 -40 -25q-12 0 -28 9.5t-26 9.5q-8 0 -21.5 -11t-18.5 -19zM77 128q0 -41 14 -41q9 0 15 11t6 26v127q-14 -18 -24.5 -54.5t-10.5 -68.5z" />
<glyph unicode="&#xe4;" horiz-adv-x="230" d="M5 127q0 132 76 197q28 24 32 39v59q0 46 -13 46q-7 0 -10.5 -16t-3.5 -30v-36h-76v33q0 53 23.5 94.5t69.5 41.5q42 0 64 -39.5t20 -84.5v-336q0 -55 5 -95h-67q-9 15 -12 33q-16 -41 -51 -41q-57 0 -57 135zM17 637v98h74v-98h-74zM77 128q0 -41 14 -41q9 0 15 11t6 26 v127q-14 -18 -24.5 -54.5t-10.5 -68.5zM114 637v98h73v-98h-73z" />
<glyph unicode="&#xe5;" horiz-adv-x="230" d="M5 127q0 132 76 197q28 24 32 39v59q0 46 -13 46q-7 0 -10.5 -16t-3.5 -30v-36h-76v33q0 53 23.5 94.5t69.5 41.5q42 0 64 -39.5t20 -84.5v-336q0 -55 5 -95h-67q-9 15 -12 33q-16 -41 -51 -41q-57 0 -57 135zM47 694q0 30 15.5 50t38.5 20q22 0 37.5 -20t15.5 -50 t-15.5 -50t-37.5 -20q-23 0 -38.5 20t-15.5 50zM77 128q0 -41 14 -41q9 0 15 11t6 26v127q-14 -18 -24.5 -54.5t-10.5 -68.5zM86 694q0 -14 4.5 -23t10.5 -9q5 0 10 9.5t5 22.5t-5 22t-10 9q-6 0 -10.5 -8.5t-4.5 -22.5z" />
<glyph unicode="&#xe6;" horiz-adv-x="333" d="M7 127q0 132 76 197q28 24 32 39v59q0 46 -13 46q-7 0 -10.5 -16t-3.5 -30v-36h-76v33q0 53 23.5 94.5t69.5 41.5q28 0 50 -22q24 22 54 22t50 -12t29 -33.5t12 -42.5t3 -49v-163h-109v-119q0 -55 15 -55q19 0 19 55v60h75v-69q0 -135 -99 -135q-38 0 -59 27 q-21 -27 -63 -27q-30 0 -48.5 28.5t-22.5 55t-4 51.5zM79 128q0 -41 14 -41q9 0 15 11t6 26v127q-14 -18 -24.5 -54.5t-10.5 -68.5zM194 334h34v77q0 56 -20 56q-14 0 -14 -56v-77z" />
<glyph unicode="&#xe7;" horiz-adv-x="219" d="M10 144v259q0 27 4.5 51t14 48t28.5 38.5t46 14.5q32 0 52 -12t28.5 -36.5t10.5 -44.5t2 -54v-53h-76v72q0 40 -15 40q-7 0 -11.5 -12.5t-4.5 -27.5v-301q0 -43 15 -43q16 0 16 43v76h76v-63q0 -28 -1.5 -45.5t-7 -39t-15 -33.5t-27.5 -20.5t-44 -8.5q-28 0 -47 15 t-28 40t-12.5 48.5t-3.5 48.5zM61 -54h68v-69l-13 -65h-49l12 65h-18v69z" />
<glyph unicode="&#xe8;" horiz-adv-x="223" d="M10 130v285q0 56 23 98t69 42q30 0 50 -12t29 -33.5t12 -42.5t3 -49v-163h-109v-119q0 -55 15 -55q19 0 19 55v60h75v-69q0 -135 -99 -135q-33 0 -53.5 22.5t-27 51t-6.5 64.5zM22 727h80l31 -90h-64zM87 334h34v77q0 56 -20 56q-14 0 -14 -56v-77z" />
<glyph unicode="&#xe9;" horiz-adv-x="223" d="M10 130v285q0 56 23 98t69 42q30 0 50 -12t29 -33.5t12 -42.5t3 -49v-163h-109v-119q0 -55 15 -55q19 0 19 55v60h75v-69q0 -135 -99 -135q-33 0 -53.5 22.5t-27 51t-6.5 64.5zM68 637l32 90h80l-48 -90h-64zM87 334h34v77q0 56 -20 56q-14 0 -14 -56v-77z" />
<glyph unicode="&#xea;" horiz-adv-x="223" d="M10 130v285q0 56 23 98t69 42q30 0 50 -12t29 -33.5t12 -42.5t3 -49v-163h-109v-119q0 -55 15 -55q19 0 19 55v60h75v-69q0 -135 -99 -135q-33 0 -53.5 22.5t-27 51t-6.5 64.5zM20 637l42 90h81l41 -90h-65l-17 39l-17 -39h-65zM87 334h34v77q0 56 -20 56q-14 0 -14 -56 v-77z" />
<glyph unicode="&#xeb;" horiz-adv-x="223" d="M10 130v285q0 56 23 98t69 42q30 0 50 -12t29 -33.5t12 -42.5t3 -49v-163h-109v-119q0 -55 15 -55q19 0 19 55v60h75v-69q0 -135 -99 -135q-33 0 -53.5 22.5t-27 51t-6.5 64.5zM18 637v98h74v-98h-74zM87 334h34v77q0 56 -20 56q-14 0 -14 -56v-77zM115 637v98h73v-98 h-73z" />
<glyph unicode="&#xec;" horiz-adv-x="139" d="M-18 727h80l32 -90h-64zM15 0v547h79v-547h-79z" />
<glyph unicode="&#xed;" horiz-adv-x="139" d="M15 0v547h79v-547h-79zM15 637l31 90h80l-47 -90h-64z" />
<glyph unicode="&#xee;" horiz-adv-x="139" d="M-27 637l42 90h81l41 -90h-65l-17 39l-17 -39h-65zM15 0v547h79v-547h-79z" />
<glyph unicode="&#xef;" horiz-adv-x="139" d="M-30 637v98h74v-98h-74zM15 0v547h79v-547h-79zM67 637v98h73v-98h-73z" />
<glyph unicode="&#xf0;" horiz-adv-x="227" d="M8 136v283q3 136 65 136q16 0 35 -17q-2 18 -10 62l-21 -31l-22 43l32 45q-2 6 -6 13.5t-7 11.5l-3 5l42 64l16 -33l27 40l22 -44l-28 -43q42 -112 42 -218v-320q0 -52 -22.5 -96.5t-69.5 -44.5q-49 0 -70.5 43.5t-21.5 100.5zM83 126q0 -45 17 -45q6 0 11.5 16t5.5 29 v295q0 46 -17 46q-7 0 -12 -18t-5 -28v-295z" />
<glyph unicode="&#xf1;" d="M15 0v547h79v-28q8 12 24.5 24t28.5 12q54 0 54 -107v-448h-78v432q0 35 -15 35q-14 0 -14 -36v-431h-79zM34 623v86q15 21 41 21q12 0 28 -8.5t25 -8.5t22 10t18 19v-83q-15 -25 -40 -25q-12 0 -28 9.5t-26 9.5q-8 0 -21.5 -11t-18.5 -19z" />
<glyph unicode="&#xf2;" horiz-adv-x="223" d="M10 136v275q0 144 94 144q55 0 73 -36.5t18 -104.5v-281q0 -68 -21 -104.5t-72 -36.5q-92 0 -92 144zM21 727h80l31 -90h-64zM85 126q-2 -45 17 -45q10 0 14.5 17t3.5 28v295q2 46 -17 46q-18 0 -18 -46v-295z" />
<glyph unicode="&#xf3;" horiz-adv-x="223" d="M10 136v275q0 144 94 144q55 0 73 -36.5t18 -104.5v-281q0 -68 -21 -104.5t-72 -36.5q-92 0 -92 144zM67 637l31 90h80l-47 -90h-64zM85 126q-2 -45 17 -45q10 0 14.5 17t3.5 28v295q2 46 -17 46q-18 0 -18 -46v-295z" />
<glyph unicode="&#xf4;" horiz-adv-x="223" d="M10 136v275q0 144 94 144q55 0 73 -36.5t18 -104.5v-281q0 -68 -21 -104.5t-72 -36.5q-92 0 -92 144zM20 637l42 90h81l41 -90h-65l-17 39l-17 -39h-65zM85 126q-2 -45 17 -45q10 0 14.5 17t3.5 28v295q2 46 -17 46q-18 0 -18 -46v-295z" />
<glyph unicode="&#xf5;" horiz-adv-x="223" d="M10 136v275q0 144 94 144q55 0 73 -36.5t18 -104.5v-281q0 -68 -21 -104.5t-72 -36.5q-92 0 -92 144zM29 622v86q15 21 41 21q12 0 28 -8.5t25 -8.5t22 10t18 19v-83q-15 -25 -40 -25q-12 0 -28 9.5t-26 9.5q-8 0 -21.5 -11t-18.5 -19zM85 126q-2 -45 17 -45 q10 0 14.5 17t3.5 28v295q2 46 -17 46q-18 0 -18 -46v-295z" />
<glyph unicode="&#xf6;" horiz-adv-x="223" d="M10 136v275q0 144 94 144q55 0 73 -36.5t18 -104.5v-281q0 -68 -21 -104.5t-72 -36.5q-92 0 -92 144zM18 637v98h74v-98h-74zM85 126q-2 -45 17 -45q10 0 14.5 17t3.5 28v295q2 46 -17 46q-18 0 -18 -46v-295zM115 637v98h73v-98h-73z" />
<glyph unicode="&#xf8;" horiz-adv-x="229" d="M13 136v275q0 144 94 144q17 0 34 -5l7 34h43l-13 -63q20 -31 20 -107v-281q0 -68 -21 -104.5t-72 -36.5q-15 0 -30 5l-6 -34h-45l12 63q-23 34 -23 110zM88 283l33 168q-3 16 -15 16q-18 0 -18 -46v-138zM93 88q5 -7 12 -7q10 0 14.5 17t3.5 28v112z" />
<glyph unicode="&#xf9;" d="M11 99v448h78v-432q0 -35 15 -35q14 0 14 36v431h79v-547h-79v28q-8 -12 -24.5 -24t-28.5 -12q-54 0 -54 107zM25 727h80l31 -90h-64z" />
<glyph unicode="&#xfa;" d="M11 99v448h78v-432q0 -35 15 -35q14 0 14 36v431h79v-547h-79v28q-8 -12 -24.5 -24t-28.5 -12q-54 0 -54 107zM71 637l32 90h80l-48 -90h-64z" />
<glyph unicode="&#xfb;" d="M11 99v448h78v-432q0 -35 15 -35q14 0 14 36v431h79v-547h-79v28q-8 -12 -24.5 -24t-28.5 -12q-54 0 -54 107zM20 637l42 90h81l41 -90h-65l-17 39l-17 -39h-65z" />
<glyph unicode="&#xfc;" d="M11 99v448h78v-432q0 -35 15 -35q14 0 14 36v431h79v-547h-79v28q-8 -12 -24.5 -24t-28.5 -12q-54 0 -54 107zM17 637v98h74v-98h-74zM114 637v98h73v-98h-73z" />
<glyph unicode="&#xfd;" horiz-adv-x="226" d="M-2 547h77l29 -323q3 38 13.5 162.5t12.5 160.5h78l-68 -588q-6 -67 -28 -106q-17 -32 -44.5 -44.5t-56.5 -1.5v89q23 -9 35 5q18 27 18 83zM64 637l31 90h80l-47 -90h-64z" />
<glyph unicode="&#xfe;" horiz-adv-x="231" d="M14 -188v923h79v-211q2 10 16 20.5t25 10.5q61 0 61 -107v-349v-17.5t-0.5 -21t-2 -19.5t-4.5 -20t-7.5 -14t-12.5 -11.5t-18 -3.5q-18 0 -35 13.5t-22 24.5v-218h-79zM93 125q0 -38 14 -38t14 38v306q0 36 -14 36t-14 -36v-306z" />
<glyph unicode="&#xff;" horiz-adv-x="216" d="M-2 547h77l29 -323q3 38 13.5 162.5t12.5 160.5h78l-68 -588q-6 -67 -28 -106q-17 -32 -44.5 -44.5t-56.5 -1.5v89q23 -9 35 5q18 27 18 83zM17 637v98h74v-98h-74zM114 637v98h73v-98h-73z" />
<glyph unicode="&#x152;" horiz-adv-x="318" d="M11 151v433q0 151 100 151h184v-111h-83v-193h60v-118h-60v-202h83v-111h-184q-100 5 -100 151zM94 151q0 -21 5 -37.5t12 -16.5q10 0 14 20t4 34v433q0 14 -5 34t-13 20q-7 0 -12 -19.5t-5 -34.5v-433z" />
<glyph unicode="&#x153;" horiz-adv-x="322" d="M11 136v275q0 144 94 144q37 0 59 -20q22 20 51 20q30 0 50 -12t29 -33.5t12 -42.5t3 -49v-163h-109v-119q0 -55 15 -55q19 0 19 55v60h75v-69q0 -135 -99 -135q-30 0 -50 18q-23 -18 -57 -18q-92 0 -92 144zM86 126q-2 -45 17 -45q10 0 14.5 17t3.5 28v295q2 46 -17 46 q-18 0 -18 -46v-295zM200 334h34v77q0 56 -20 56q-14 0 -14 -56v-77z" />
<glyph unicode="&#x178;" horiz-adv-x="236" d="M-2 735h82l28 -214q4 34 14 105.5t15 108.5h82l-69 -422v-313h-83v313zM23 800v98h74v-98h-74zM120 800v98h73v-98h-73z" />
<glyph unicode="&#x2c6;" horiz-adv-x="329" d="M68 637l42 90h81l41 -90h-65l-17 39l-17 -39h-65z" />
<glyph unicode="&#x2dc;" horiz-adv-x="330" d="M83 623v86q15 21 41 21q12 0 28 -8.5t25 -8.5t22 10t18 19v-83q-15 -25 -40 -25q-12 0 -28 9.5t-26 9.5q-8 0 -21.5 -11t-18.5 -19z" />
<glyph unicode="&#x2000;" horiz-adv-x="465" />
<glyph unicode="&#x2001;" horiz-adv-x="930" />
<glyph unicode="&#x2002;" horiz-adv-x="465" />
<glyph unicode="&#x2003;" horiz-adv-x="930" />
<glyph unicode="&#x2004;" horiz-adv-x="310" />
<glyph unicode="&#x2005;" />
<glyph unicode="&#x2006;" horiz-adv-x="155" />
<glyph unicode="&#x2007;" horiz-adv-x="155" />
<glyph unicode="&#x2008;" horiz-adv-x="116" />
<glyph unicode="&#x2009;" horiz-adv-x="186" />
<glyph unicode="&#x200a;" horiz-adv-x="51" />
<glyph unicode="&#x2010;" horiz-adv-x="160" d="M13 222v95h105v-95h-105z" />
<glyph unicode="&#x2011;" horiz-adv-x="160" d="M13 222v95h105v-95h-105z" />
<glyph unicode="&#x2012;" horiz-adv-x="160" d="M13 222v95h105v-95h-105z" />
<glyph unicode="&#x2013;" horiz-adv-x="266" d="M13 317v95h211v-95h-211z" />
<glyph unicode="&#x2014;" horiz-adv-x="315" d="M13 317v95h259v-95h-259z" />
<glyph unicode="&#x2018;" horiz-adv-x="121" d="M5 494v111l33 130h48l-21 -130h21v-111h-81z" />
<glyph unicode="&#x2019;" horiz-adv-x="121" d="M4 494l21 130h-21v111h81v-111l-33 -130h-48z" />
<glyph unicode="&#x201a;" horiz-adv-x="121" d="M4 0v111h81v-111l-33 -130h-48l21 130h-21z" />
<glyph unicode="&#x201c;" d="M7 494v111l33 130h48l-21 -130h21v-111h-81zM115 494v111l33 130h48l-21 -130h21v-111h-81z" />
<glyph unicode="&#x201d;" horiz-adv-x="228" d="M7 494l21 130h-21v111h81v-111l-33 -130h-48zM115 494l21 130h-21v111h81v-111l-33 -130h-48z" />
<glyph unicode="&#x201e;" horiz-adv-x="213" d="M7 0v111h81v-111l-33 -130h-48l21 130h-21zM95 0v111h81v-111l-33 -130h-48l21 130h-21z" />
<glyph unicode="&#x2022;" horiz-adv-x="224" d="M13 401q0 35 24.5 59.5t59.5 24.5t59.5 -24.5t24.5 -59.5t-24.5 -59.5t-59.5 -24.5t-59.5 24.5t-24.5 59.5z" />
<glyph unicode="&#x2026;" horiz-adv-x="318" d="M7 0v111h81v-111h-81zM111 0v111h81v-111h-81zM215 0v111h81v-111h-81z" />
<glyph unicode="&#x202f;" horiz-adv-x="186" />
<glyph unicode="&#x205f;" />
<glyph unicode="&#x20ac;" horiz-adv-x="268" d="M7 267v67h31v67h-31v67h31v116q0 84 38 134q20 25 57 25q36 0 54 -22t31 -58q10 -37 11 -79v-41h-79v41q0 26 -9 46h1q-6 8 -8 8q-4 0 -8.5 -20.5t-4.5 -33.5v-116h68v-67h-68v-67h68v-67h-68v-116q0 -28 9 -46h-1l5 -8q8 0 12 18.5t4 35.5v41h79v-41q-1 -43 -11 -80 q-10 -29 -28 -54q-20 -25 -57 -25t-57 25q-38 51 -38 134v116h-31z" />
<glyph unicode="&#x2122;" horiz-adv-x="305" d="M13 684v51h112v-51h-31v-283h-51v283h-30zM140 401v334h50l21 -137q2 12 11.5 66.5t11.5 70.5h46v-334h-43v176q-15 -130 -18 -176h-19l-18 176v-176h-42z" />
<glyph unicode="&#xe000;" horiz-adv-x="545" d="M0 0v545h545v-545h-545z" />
<glyph unicode="&#xfb01;" horiz-adv-x="256" d="M-3 456v91h31v32q0 33 2.5 54.5t9.5 49t23.5 42t42.5 14.5q20 0 37 -10v-83q-18 11 -28 1q-9 -10 -9 -62v-38h109v-547h-78v456h-31v-456h-78v456h-31z" />
<glyph unicode="&#xfb02;" horiz-adv-x="256" d="M-3 456v91h31v32q0 33 2.5 54.5t9.5 49t23.5 42t42.5 14.5l31 -4h79v-735h-79v456h-31v-456h-78v456h-31zM106 547h31v102q-8 3 -13.5 2t-8.5 -4.5t-5.5 -9t-3 -13t-0.5 -15v-15.5v-3v-3v-3v-38z" />
</font>
</defs>
</svg>
