<?xml version="1.0" standalone="no"?>
<!DOCTYPE svg PUBLIC "-//W3C//DTD SVG 1.1//EN" "http://www.w3.org/Graphics/SVG/1.1/DTD/svg11.dtd" >
<svg xmlns="http://www.w3.org/2000/svg">
<metadata></metadata>
<defs>
<font id="paete_roundbolditalic" horiz-adv-x="476" >
<font-face units-per-em="1000" ascent="800" descent="-200" />
<missing-glyph horiz-adv-x="624" />
<glyph horiz-adv-x="1000" />
<glyph horiz-adv-x="1000" />
<glyph unicode="&#xd;" horiz-adv-x="624" />
<glyph unicode=" "  horiz-adv-x="624" />
<glyph unicode="&#x09;" horiz-adv-x="624" />
<glyph unicode="&#xa0;" horiz-adv-x="624" />
<glyph unicode="!" horiz-adv-x="212" d="M411 656q-85 -163 -120 -251q-13 -41 -46 -139l-7 -12q-6 -8 -17 -18q-35 0 -35 54q0 57 30 138q41 114 143 309q9 20 33 63q19 20 30 20q28 0 28 -53q0 -29 -5 -44q-2 -5 -34 -67zM199 105q-5 -14 -19 -36q-17 -26 -22 -35q-1 -8 -7 -27q-15 -32 -40 -32q-29 0 -29 58 q0 36 17 66.5t35 60.5q8 15 35 61q43 -1 43 -55q0 -25 -9 -49q-1 -4 -4 -12z" />
<glyph unicode="&#x22;" horiz-adv-x="308" d="M430 514q-39 0 -39 62q0 32 9 61q3 12 18.5 54t21.5 55q15 29 39 51q52 7 52 -54q0 -21 -14 -48q-21 -40 -23 -45q-17 -46 -17 -77q-1 -17 -3 -23q-13 -36 -44 -36zM309 544q-26 0 -34 44q-7 34 -3 46q7 22 15 48q7 20 28 61q29 56 45 67q24 4 38 -16q11 -17 11 -42 q0 -13 -4 -23q-1 -3 -20.5 -45t-20 -44t-2.5 -9l-4 -18q-6 -29 -7 -33q-13 -36 -42 -36z" />
<glyph unicode="#" horiz-adv-x="612" d="M435 544q40 10 118 31q2 31 11 80q15 39 48 39q49 0 42 -101q37 4 49 4q37 0 54 -7q31 -14 31 -69q0 -15 -3 -25q-15 -41 -50 -41q-6 0 -19 7q-3 1 -28 1q-36 0 -61 -6q-7 -27 -12 -52q21 2 23 2q61 0 61 -62q0 -17 -6 -31q-10 -30 -33 -37q-16 -5 -42 -6q-31 -1 -42 -2 q-23 -75 -73 -114q-26 2 -41.5 20t-15.5 44q0 15 5 29q-51 -11 -86 -20q21 -35 7 -71q-16 -44 -60 -44q-22 0 -37 24q-14 21 -17 53l-10 -5q-29 -14 -38 -14q-40 0 -40 70q0 14 2 19q15 42 118 78q3 10 5 18l-18 -9q-34 -17 -44 -17q-40 0 -40 71q0 13 2 19q10 28 59 54 q8 4 76 33q2 9 10 65q5 39 17 66q25 16 39 16q43 0 43 -68q0 -20 -4 -42zM514 408q1 3 4 18l1 7q-55 -14 -110 -31q-5 -19 -8 -32q10 2 107 21z" />
<glyph unicode="$" horiz-adv-x="484" d="M485 520q-1 -3 -3 -10l-2 -4q51 -19 82 -57q35 -42 35 -97q0 -32 -13 -66q-42 -116 -242 -196q-6 -37 -18 -69q-20 -25 -42 -25q-38 0 -43 73q-12 -1 -14 -1q-45 0 -72 30.5t-27 72.5q0 20 7 39q15 43 48 43q23 0 30.5 -22.5t26.5 -22.5q7 0 35 5l49 143q-28 -8 -45 -8 q-51 0 -51 64q0 21 6 36q8 23 29 42t41 37q3 3 66 54q20 14 42 31q11 32 19 125q1 14 3 19q15 41 48 41q48 0 44 -105q80 44 113 44q41 0 41 -72q0 -18 -3 -26q-16 -42 -62 -47q-20 -6 -63 -30q-46 -26 -65 -41zM435 374q-8 -24 -44 -121q105 51 105 92q0 21 -61 29z" />
<glyph unicode="%" horiz-adv-x="636" d="M573 36q-51 -21 -83 -21q-92 0 -92 114q0 45 13 81q4 11 11 24q-61 -64 -121 -126l-38 -52q-24 -31 -51 -31q-42 0 -42 62q0 21 4 32q15 42 70 97q128 128 229 242q-42 -30 -94 -30q-24 0 -53 10q-68 25 -68 98q0 38 18 88q16 44 49 90q48 68 95 68q54 0 88 -12 q29 -11 46 -49q15 -34 15 -72q0 -15 -3 -27q-7 -29 -16 -54t-21 -46q30 35 67 78l88 108q71 79 99 79q40 0 40 -71q0 -16 -3 -23q-8 -23 -30 -41q-8 -6 -25 -22l-153 -185q-21 -24 -46 -53q24 13 48 13q103 0 103 -124q0 -55 -18 -105q-16 -42 -41.5 -78.5t-84.5 -61.5z M395 626q-16 -22 -29 -54q21 -6 26 -6q49 0 70 57q2 5 5 14q-1 2 -23 1q-25 -15 -35 -15q-7 0 -14 3zM604 267q-7 -19 -18.5 -27.5t-21.5 -10.5t-19 -4t-25 -30q-14 -23 -20 -38q-1 -4 2 -4q16 0 47 13t39 23q15 21 22.5 41.5t7.5 26.5q0 9 -14 10z" />
<glyph unicode="&#x26;" horiz-adv-x="756" d="M309 339h5q12 0 21 -16.5t9 -33.5q0 -8 -2 -13l-2 -5q3 -21 58 -48q8 -4 36 -4q71 0 158 35q44 17 108 67l6 5q-7 -1 -16 -1q-38 0 -50 40q-12 -15 -29 -34q-55 8 -58 62q-53 -61 -74 -61q-19 0 -27 25q-49 -46 -71 -46q-18 0 -28 21q-9 18 -8 32l1 6q-19 -17 -37 -31z M738 239q-13 -12 -41 -33q-145 -87 -273 -87q-31 0 -43.5 4t-38.5 21q-40 25 -57 48q-20 29 -23 73q-1 16 5 32q3 7 10 17q-42 -32 -60 -32q-39 0 -39 62q0 27 5 41q9 24 60 83q40 47 59 65q34 30 66 43q-1 35 9 62q31 84 153 120q76 23 164 23q17 0 126 -21 q153 -30 153 -138q0 -28 -11 -60q-16 -43 -57 -94q-44 -55 -93 -88q-33 -22 -47 -31q12 -9 16 -33q3 -20 -1 -30q-6 -17 -42 -47zM737 437q16 10 41 28l-3 5q1 3 1 6q-9 0 -39 -39zM447 471q33 34 45 53q7 11 21 24q19 16 33 16q18 0 26 -20q33 29 51 29q43 0 36 -63 q101 99 144 99q52 0 44 -82q36 42 47 72q4 12 2 18q-11 24 -94 45q-74 20 -122 20q-138 0 -198 -42q-31 -22 -38 -40q-2 -6 2 -39q4 -38 4 -43q0 -23 -3 -47z" />
<glyph unicode="'" horiz-adv-x="260" d="M362 584q-26 -46 -46 -46q-23 0 -23 49q0 25 4 37q6 17 23 42q23 35 27 41q13 27 43 80l23 13q-1 -1 -3 0h3q29 3 29 -40q0 -25 -9 -48q-9 -26 -33 -69.5t-38 -58.5z" />
<glyph unicode="(" horiz-adv-x="308" d="M528 671q-8 0 -14 5q-6 0 -30.5 -17t-36.5 -30q-60 -72 -118 -170t-85 -172q-30 -82 -30 -129q0 -17 3 -30q1 -1 10 -27q6 -16 6 -28q0 -14 -6 -31q-16 -42 -49 -42q-24 0 -42 67q-14 54 -13 70q0 19 4 58q9 45 39 144q43 120 134 261q115 179 203 203l6 3q11 5 19 5 q51 0 51 -64q0 -25 -10 -50q-22 -26 -41 -26z" />
<glyph unicode=")" horiz-adv-x="312" d="M393 231q-32 -61 -76 -115q-6 -7 -92 -103q-15 -16 -32 -16q-37 0 -37 62q0 21 4 31q5 15 36 48q22 24 45 47q82 92 136 239q33 90 33 142q0 47 -27 71q-24 17 -49 33q-26 20 -26 53q0 20 12 51q22 26 41 26q3 0 42.5 -15t67.5 -70q23 -47 28 -96q2 -19 2 -37 q0 -83 -46 -209q-11 -33 -62 -142z" />
<glyph unicode="*" horiz-adv-x="408" d="M535 629q38 -19 38 -63q0 -14 -5 -27q-14 -40 -46 -40q-8 0 -69 36q0 -20 -20 -76q-19 -24 -41 -24q-18 0 -29 23q-9 18 -9 39q0 8 6 21q-10 -8 -35 -23q-28 -16 -33 -16q-43 0 -43 62q0 16 3 25q8 22 90 73q-12 30 -2 57q14 40 47 40q13 0 35 -25l3 -4q8 36 17 67 q20 23 40 23q28 0 38 -46q36 23 56 23q40 0 40 -56q0 -16 -3 -26q-8 -22 -22.5 -30t-29.5 -15q-11 -7 -26 -18z" />
<glyph unicode="+" horiz-adv-x="436" d="M249 293q-6 -8 -13 -15l-17 -8h4l-3 -1q-7 -2 -14 -2q-45 0 -45 59q0 15 4 26q18 50 145 81q9 26 26 78q11 29 38 57q30 4 45 -15q11 -15 11 -37q0 -14 -22 -70q16 1 37 1q41 0 67 -5q32 -7 32 -55q0 -14 -4 -25q-5 -14 -19 -26.5t-28 -12.5q-4 0 -10 2.5t-9 3.5h-41 q-46 0 -64 -2q-1 -4 -1 -5l-48 -131q-19 -22 -39 -22q-18 0 -28 21q-8 17 -8 37q0 7 1 11q10 27 21 64q-7 -3 -18 -9z" />
<glyph unicode="," horiz-adv-x="276" d="M167 -46q-20 -19 -47 -49q-14 -20 -37 -20q-29 0 -29 46q0 18 4 28q6 17 15 25q38 36 78 76q0 8 1 18q2 18 12 46q17 22 33 22q34 0 28 -65l-1 -7q5 -30 -3 -50q-9 -24 -54 -70z" />
<glyph unicode="-" d="M512 332q-5 0 -18 4q-23 4 -64 4q-3 0 -64 -1.5t-63 -1.5q-55 0 -68 5q-31 11 -31 46q0 18 25 40q67 -2 131 -1q9 1 42 2q29 1 32 1q55 0 96 -8q36 -6 36 -47q0 -20 -16.5 -31.5t-37.5 -11.5z" />
<glyph unicode="." horiz-adv-x="260" d="M203 47q-30 -50 -47 -50t-23 32q-6 27 0 42q6 16 24 41.5t30 32.5q36 2 36 -44q0 -15 -5 -28q-2 -5 -15 -26z" />
<glyph unicode="/" horiz-adv-x="504" d="M751 670q-9 -18 -19.5 -23t-20.5 -9q-19 -13 -41 -36q-101 -104 -286 -304q-11 -13 -81 -83q-52 -52 -74 -86q-27 -31 -71 -98q-8 -16 -24 -36q-32 -4 -49 22q-14 22 -14 55q0 19 5 33q7 19 18 32q17 20 21 26q38 59 100 125l110 116q175 195 317 334q42 42 76 42 q39 0 39 -78q0 -19 -6 -32z" />
<glyph unicode="0" horiz-adv-x="604" d="M417 648q3 54 20 101q20 25 42 25q26 0 35 -25q4 -10 8 -48q10 20 51.5 37.5t77.5 17.5q42 0 53 -39q3 -2 27.5 -8.5t46.5 -42.5q20 -32 23 -62q1 -13 1 -25q0 -42 -19 -94q-56 -154 -185 -277q-17 -16 -131 -109q-4 -4 -8 -3v-5q1 -15 -3 -26q-15 -42 -50 -42 q-15 0 -29 16q-91 -49 -142 -49q-30 0 -46 5.5t-37 25.5q-49 46 -49 109q0 44 26 114q32 88 121 215q56 81 160 183zM669 584q-26 0 -70 -20t-83 -52q-8 -5 -17 -13q0 -7 -3 -33l-11 -82q-10 -86 -18 -136q173 138 228 289q7 17 7 26q0 21 -33 21zM362 172q3 33 9 100l14 87 q9 53 9 86q0 3 -6 11q-131 -152 -172 -266q-13 -35 -14 -49q0 -7 18 -12q15 -5 25 -5q23 0 59 17q29 15 58 31z" />
<glyph unicode="1" horiz-adv-x="296" d="M174 113q6 61 57 200q10 28 74 198l15 35q-15 -11 -29 -11q-34 0 -34 64q0 18 3 28q9 24 40 50q25 21 51 42q85 81 114 81q37 0 37 -71q0 -22 -3 -31l-49 -98q-51 -101 -71 -150q-18 -45 -69 -185q-9 -22 -38 -122q23 -3 36 -23.5t13 -47.5q0 -16 -6 -31q-14 -40 -46 -40 q-6 0 -16 6l-2 2q-8 0 -43 -16q-14 -14 -37 -14q-47 0 -47 61q0 17 5 31q12 32 45 42z" />
<glyph unicode="2" horiz-adv-x="504" d="M315 207q50 15 96 15q84 0 123 -53q10 -13 12 -39q2 -25 -3 -40q-15 -41 -50 -41q-9 0 -24.5 14t-24.5 17q-20 5 -45 5q-55 0 -122 -31q-27 -12 -104 -57q-53 -31 -74 -31q-45 0 -45 66q0 22 4 34q17 47 262 308q136 143 273 286q-56 -12 -151 -74q0 -21 -3 -29 q-9 -26 -43 -43q-27 -13 -48 -13q-49 0 -49 65q0 35 20 62q13 18 48 47q65 55 140.5 90t128.5 35q44 0 69.5 -24t25.5 -64q0 -25 -10 -51q-8 -22 -12 -30q-7 -13 -20 -29q-23 -27 -204 -215q-87 -89 -170 -180z" />
<glyph unicode="3" horiz-adv-x="588" d="M605 506q46 -20 72 -70q23 -45 23 -102q0 -92 -87 -185q-78 -82 -195 -138q-113 -54 -200 -54q-58 0 -88 36q-28 32 -28 86q0 41 16 83l11 15q18 14 33 14q23 0 34 -25q9 -21 6 -48q-2 -20 -2 -22q0 -5 4 -5l8.5 1.5t17.5 1.5q81 0 222 80q152 87 152 157q0 29 -37 44 q-28 11 -63 11q-81 0 -201 -62q-30 -15 -40 -15q-41 0 -41 65q0 20 4 30q9 24 25 33q82 46 249 144q64 39 149 102q-105 6 -259 -85q-15 -46 -63 -46q-60 0 -60 70q0 17 5 32q10 28 75 63q193 103 289 103q31 0 98 -20q26 -7 40 -33.5t14 -59.5q0 -59 -66 -119 q-28 -25 -117 -82z" />
<glyph unicode="4" horiz-adv-x="524" d="M347 462q193 -17 179 -17h33q10 29 66 185q12 31 27 92q1 13 3 20q18 50 56 50q42 0 42 -68q0 -23 -6 -42q-94 -271 -94 -268q1 -33 -7 -56q-5 -14 -8 -19q-5 -9 -15 -17l-4 -3l-31 -87q-18 -49 -49 -162q-4 -26 -19 -79q-21 -25 -42 -25q-18 0 -31 26q-13 23 -12 43 q0 43 76 274q-84 8 -254 22q-33 2 -50 28q-15 22 -15 54q0 21 6 39q12 32 70 91l86 86q48 49 146 152q35 36 60 36q39 0 39 -70q0 -16 -3 -24q-10 -28 -28 -40q-26 -18 -78 -72z" />
<glyph unicode="5" horiz-adv-x="500" d="M433 761q36 8 89 8q4 0 49 -2.5t48 -2.5h110q41 0 41 -64q0 -36 -31 -68q-34 -5 -73 -5q-3 0 -75.5 2.5t-76.5 2.5q-65 0 -119 -14l-26 -58q68 41 123 41q102 0 102 -148q0 -74 -19 -127q-31 -85 -105 -176q-83 -102 -177 -153q-71 -39 -105 -39q-36 0 -58 37 q-18 31 -18 75q0 41 16 62.5t39 21.5q34 0 42 -56q82 19 172 117q80 88 108 164q14 39 14 58q0 28 -25 28q-43 0 -89 -35q-6 -5 -71 -65q-38 -35 -61 -35q-46 0 -46 80q0 22 2 29l43 117q1 2 28 59q-13 19 -13 47q0 16 4 29q13 33 65 52q24 54 56 54q29 0 37 -36z" />
<glyph unicode="6" horiz-adv-x="532" d="M232 136q0 23 17 69q12 34 32 72q40 78 135 154q102 81 175 81q75 0 75 -104q0 -51 -14 -89q-37 -102 -163 -210q-134 -114 -241 -114q-131 0 -131 143q0 71 29 150q43 118 133 247q106 151 224 234q71 49 111 49q57 0 57 -76q0 -20 -5.5 -35.5t-19.5 -29.5 q-17 -16 -33 -16q-9 0 -22 11q-1 2 -2 5q-6 0 -51 -33q-154 -112 -271 -335q-23 -43 -34 -74q-18 -50 -18 -81q0 -10 17 -18zM565 373h-3q-8 0 -41 -18q-25 -14 -32 -19q-106 -76 -149 -174l9 -3l30 19q49 29 106 86q65 65 80 109z" />
<glyph unicode="7" horiz-adv-x="564" d="M400 634l-2 -1q-23 -18 -67 -18q-39 0 -39 72q0 16 2 22q11 29 31 38q2 1 66 18q23 7 73 21q189 44 270 44q73 0 73 -84q0 -24 -8 -45q-10 -28 -128 -205q47 -26 47 -75q0 -15 -6 -30q-15 -43 -47 -43q-7 0 -23 11q-20 13 -23 14q-8 3 -28 9q-45 -61 -103 -156 q-70 -112 -89 -165q-2 -6 -2 -5q16 -27 16 -48q0 -23 -16 -55q-30 -22 -46 -22q-53 0 -53 107q0 24 3 31.5t8 25.5t6 20q33 92 149 267q-104 -21 -115 -37v-5q-6 -69 -56 -69q-31 0 -48 27q-14 22 -14 54q0 18 4 30q12 31 60 62q125 79 248 79q8 0 17 -1q17 25 113 168 q-103 -16 -167 -28q-30 -6 -106 -28z" />
<glyph unicode="8" horiz-adv-x="568" d="M458 440q101 -51 101 -162q0 -34 -13 -69q-35 -96 -134.5 -170t-192.5 -74q-52 0 -83.5 34.5t-31.5 85.5q0 29 19 82q28 76 120 203q-38 32 -38 89q0 24 7 45q33 90 222 215q180 118 255 118q36 0 50 -34q68 29 76 29q48 0 48 -67q0 -18 -4.5 -29.5t-8.5 -17.5 q-24 -35 -56 -34h-3q-50 -20 -79 -37q-107 -60 -254 -207zM389 534q-34 -28 -58 -52q8 -3 10 -3q21 25 48 55zM360 333q-118 -139 -150 -225q12 -4 19 -5q44 0 106 35t97 83q22 31 26 42q1 3 1 7q0 35 -99 63z" />
<glyph unicode="9" horiz-adv-x="532" d="M705 550q-128 -303 -139 -333l-34 -84q-18 -50 -19 -83q0 -9 -3 -27q-5 -13 -47 -69q-31 -2 -41 5q-21 14 -21 53q0 41 18 90l101 277q7 14 26 57q-168 -127 -254 -127t-86 103q0 39 13 74q39 107 139 197q95 86 207 124q40 13 70 13q26 0 61 -12q39 -14 47.5 -29.5 t18.5 -63t10 -43.5q0 -13 -8 -34.5t-21 -33.5q-18 -18 -24 -26t-14 -28zM651 675q-23 6 -28 6q-43 0 -157 -61q-37 -20 -86 -76q-45 -52 -67 -95h5q38 1 170 95q115 83 163 131z" />
<glyph unicode=":" horiz-adv-x="232" d="M332 457q-12 -11 -32 -37q-9 -14 -23 -29q-43 -5 -43 51q0 18 5 31q13 35 85 108q42 2 42 -51q0 -37 -34 -73zM252 203q-11 -13 -36 -42q-43 -1 -43 52q0 18 6 33q6 19 30 45q19 21 37 42q44 3 44 -52q0 -17 -5 -30q-6 -18 -33 -48z" />
<glyph unicode=";" horiz-adv-x="236" d="M331 451q-59 -54 -72 -54q-26 0 -26 57q0 20 2 27q7 17 36 47q33 33 53 33q27 0 27 -55q0 -19 -3 -27q-7 -18 -17 -28zM182 75q-10 -13 -56 -60q-42 -2 -42 52q0 17 5.5 32.5t20 31.5t27.5 31q66 84 69 91q-1 3 -2 10q-3 33 3 50q14 39 41 39q16 0 27 -45q9 -34 9 -49 q-1 -22 -10 -48q-12 -33 -92 -135z" />
<glyph unicode="&#x3c;" horiz-adv-x="428" d="M413 148h4q21 0 33 -33q10 -29 7 -46q0 -2 -17 -51q-21 -26 -42 -26q-14 0 -33 23q-13 16 -27 33q-190 180 -190 275q0 17 5 32q10 28 69 80q43 37 86 73q35 33 103 100q191 192 217 192q38 0 38 -76q0 -16 -2 -22q-5 -13 -13 -24q-53 -44 -127 -118q-106 -108 -122 -123 q-46 -40 -137 -120q-4 -1 -9 -4q-2 -7 52 -61q45 -44 80 -74q6 -5 20 -23z" />
<glyph unicode="=" horiz-adv-x="460" d="M475 399q-6 0 -16.5 4.5t-23.5 3.5h-10.5h-7.5q-54 0 -72 -5q-5 -1 -73 -31q-16 -6 -24 -6q-44 0 -44 62q0 16 4 26q8 21 21 30q51 35 103 47q37 9 100 9q32 0 52 -4t32 -27q11 -19 11 -44q0 -15 -4 -26q-14 -39 -48 -39zM471 208q-7 0 -15.5 5.5t-13.5 5.5q-22 4 -57 4 q-52 0 -143 -22q-14 -3 -20 -3q-23 0 -36 28q-10 22 -8 37q2 17 11 39l12 15q6 6 15 11q7 1 89 18q44 9 90 9q56 0 95 -9q36 -9 36 -69q0 -17 -4 -28t-16 -23q-16 -18 -35 -18z" />
<glyph unicode="&#x3e;" horiz-adv-x="452" d="M543 298q-14 -12 -43 -35q-38 -33 -112 -95q-54 -40 -144 -108q-23 -20 -45 -39q-26 -22 -46 -22q-40 0 -40 68q0 17 3 25q9 25 98 93q62 46 123 92l139 116q-7 17 -22 52q-38 85 -80.5 146.5l-42.5 61.5q-26 43 -26 76q0 15 4 28q16 43 51 43q8 0 23 -7t19 -15 q16 -37 61 -110q43 -69 60 -110q12 -29 40 -84q13 -20 18.5 -34t5.5 -42q0 -31 -7 -50q-9 -25 -37 -50z" />
<glyph unicode="?" horiz-adv-x="556" d="M700 708h-1h-10q-102 0 -289 -138q-4 -12 -11 -25.5t-41 -29.5q-30 -13 -43 -13q-42 0 -42 71q0 18 3 26q11 31 67 70q203 142 293 164q49 12 74 12q50 0 76 -41q22 -34 22 -86q0 -34 -10 -60q-37 -102 -256 -278q25 -13 25 -60q0 -20 -3 -30q-12 -33 -41.5 -42.5 t-58.5 -17.5q-151 -54 -160 -54q-45 0 -45 68q0 24 5 37q10 28 47 61q31 26 62 51q92 77 184 153q135 115 152 161zM384 62q-19 -17 -51 -34q-50 -28 -54 -30q-29 -18 -53 -18q-42 0 -42 66q0 18 4 28q9 26 29 36q141 73 149 73q39 0 39 -70q0 -20 -8 -34q-6 -10 -13 -17z " />
<glyph unicode="@" horiz-adv-x="704" d="M628 285q25 12 32 21q1 7 5 20l8 11q6 7 20 17q58 -4 58 -66q0 -22 -7 -42q-2 -9 -15 -30q-56 -64 -189 -98q-95 -25 -173 -25q-82 0 -126 28q-49 29 -63 96q-7 32 -7 64q0 59 24 125q49 134 194 264q155 140 285 140q93 0 120 -40.5t27 -129.5q0 -93 -24 -160 q-20 -53 -66 -75q-7 -3 -91 -26q1 -68 -12 -94zM632 672q12 -26 6 -55q-2 -11 0 -107q25 5 39 9q30 8 33 14q17 47 17 111q0 15 -3 17q-23 14 -61 14q-16 0 -31 -3zM417 297q-15 -23 -40 -23q-41 0 -41 62q0 23 5 35q11 32 43 72q50 61 143 185q-55 -37 -148 -129 q-25 -24 -55.5 -70t-40.5 -74q-15 -41 -15 -64q0 -39 39 -54q30 -11 68 -11q83 0 189 34q-26 17 -23 89q-36 -13 -79 -36q-28 -14 -45 -16z" />
<glyph unicode="A" horiz-adv-x="525" d="M248 226q1 -1 2 -1q-34 -44 -96 -133q21 -20 21 -55q0 -17 -5 -31q-9 -25 -40 -48.5t-55 -23.5q-32 0 -47 36q-12 28 -9 61q2 15 15 52q45 124 260 367q201 228 336 327q41 30 61 30q40 0 40 -58q0 -8 -1 -16q-3 -18 0 -30q3 -15 0 -24l-34 -93q-23 -54 -70 -172 q30 -20 30 -59q0 -41 -26 -62q-13 -11 -31 -11q-4 0 -26 2l-48 -131q-69 -190 -127 -190q-43 0 -43 62q0 21 4.5 32.5t22.5 28.5q25 32 38 68l45 123q-135 -26 -217 -51zM399 399q71 17 121 23l65 166q-80 -72 -186 -189z" />
<glyph unicode="B" horiz-adv-x="688" d="M743 554q76 -56 76 -166q0 -44 -14 -83q-73 -201 -482 -303q-65 -16 -99 -16q-1 0 -16 2q-15 -18 -36 -18q-20 0 -35 29l-20 46q-17 30 -17 61q0 33 20 82q21 24 43 24q12 0 20 -5q14 42 52 155q2 19 5 31q-38 4 -38 86q0 58 9 81q28 77 136 142q18 11 26 18q1 5 4 15 q15 41 49 41q10 0 24 -14q0 -2 1 -5q2 2 8 5q81 35 174 35q47 0 88 -12q32 -10 51 -48q16 -33 16 -75q0 -28 -8 -50q-10 -27 -37 -58zM623 659q-85 0 -178 -45q1 0 -3 2q-18 -30 -35 -85q96 45 177 52q-6 0 5 -1q51 25 87 68q-28 9 -53 9zM264 129q29 8 87 21q79 14 186 64 q149 69 177 146q4 10 4 20q0 30 -34 49q-29 17 -67 17q-9 0 -8 0q-64 -38 -175 -100q-40 -21 -110 -48l1 6q-20 -53 -57 -161z" />
<glyph unicode="C" horiz-adv-x="648" d="M642 286q15 37 49 37q41 0 41 -69q0 -28 -8 -50q-11 -32 -33 -40q-122 -49 -287 -109q-110 -41 -169 -41q-129 0 -129 141q0 66 26 136q55 150 191 304q178 202 353 202q54 0 85 -34.5t31 -82.5q0 -25 -9 -49q-5 -14 -27 -41q-26 -30 -40 -30q-19 0 -34 32q-12 26 -12 38 q1 11 6 27q2 0 -11 0q-132 0 -278 -162q-119 -132 -165 -258q-17 -45 -17 -59q0 -24 42 -24q49 0 190 52q45 17 205 80z" />
<glyph unicode="D" horiz-adv-x="640" d="M339 724q3 16 25 50q16 14 34 14q19 0 32 -17q53 23 86 30q27 6 75 6q106 0 181 -58q79 -60 79 -152q0 -38 -15 -77q-86 -236 -585 -463q-24 -11 -38 -19q-11 -47 -43 -83q-8 -2 -15 -2q-31 0 -47 45q-20 9 -26 16q-16 19 -16 53q0 17 4 30q9 24 34 37q12 21 20 28 q4 3 27 18q2 1 4 5q22 63 105 312q-39 26 -39 76q0 22 8 46q3 9 12 26q17 22 46 44q26 17 52 35zM270 210q418 205 476 364q2 6 2 12q0 28 -43 53q-34 19 -55 21q-12 1 -41 5t-31 4q-69 0 -160 -47q-34 -87 -120 -329q-10 -28 -28 -83z" />
<glyph unicode="E" horiz-adv-x="638" d="M487 797q44 10 150 10q169 0 235 -27q27 -12 27 -65q0 -18 -4 -31q-17 -46 -54 -46q-7 0 -16 5t-14 5q-131 15 -186 15q-103 0 -155 -10q-4 -1 -8 0h-6q-31 -47 -80 -128q187 55 345 55q51 0 51 -73q0 -19 -4 -31q-15 -40 -47 -41.5t-93 -3.5q-127 -6 -277 -58 q0 -15 -4 -25q-16 -43 -54 -43q-6 0 -28 6q-18 -37 -27 -62q-20 -57 -20 -73q0 -14 6 -18.5t37 -4.5q46 0 131 29q77 25 136 56q7 30 39 52q13 0 27.5 -4t20.5 -5q30 -4 39 -18q15 -23 15 -50q0 -16 -6 -32q-10 -29 -41 -46q-27 -13 -55 -25q-204 -101 -318 -101 q-49 0 -69 11q-62 34 -62 151q0 52 14 89.5l42 112.5q3 8 3.5 27t3.5 29q11 31 37 42l4 1q24 48 90 162q-27 19 -27 62q0 19 5 33q13 36 55 46q30 4 60 9l3 5q15 29 46 29q23 0 33 -21z" />
<glyph unicode="F" horiz-adv-x="520" d="M526 769l9 3q134 45 208 45q37 0 58.5 -18.5t21.5 -50.5q0 -18 -7.5 -38.5t-18.5 -31.5q-5 -5 -50 -37q-49 -36 -56 -36q-35 0 -41 62q-69 -17 -164 -51q-22 -8 -48 -64q89 31 145 31q43 0 69.5 -20.5t26.5 -59.5q0 -22 -9 -49q-8 -21 -27 -42q-23 -26 -44 -26 q-32 0 -41 57q-71 -5 -165 -51l-27 -9q-1 1 -3 0q-27 -47 -53 -113l-40 -114q-4 -8 -12.5 -31.5t-8.5 -29.5q0 -1 4 -23q3 -22 -6 -47q-6 -18 -23 -37q-22 -25 -43 -25q-38 0 -38 84q0 26 3 49q17 65 65 184q7 17 25 34q-17 -9 -28 -9q-41 0 -41 66q0 20 3 30q10 27 55 52 l72 36l6 13q-65 1 -65 75q0 17 5 30q11 31 41 48q44 22 132 68q44 79 73 79q27 0 37 -33z" />
<glyph unicode="G" horiz-adv-x="793" d="M455 159q-5 -1 -9 -1q-37 0 -58 28q-18 24 -18 59q0 18 6 33q12 35 98 92q170 113 287 145q45 13 79 13q43 0 65 -25t22 -65q0 -26 -10 -54q-23 -65 -117 -146q-139 -119 -283 -194q-147 -76 -246 -76q-83 0 -130 52q-44 48 -44 124q0 45 17 92q15 42 57 106 q40 61 79 105q121 136 247 226q76 55 175.5 96t161.5 41q37 0 58 -26t21 -62q0 -20 -7 -38q-8 -23 -36 -51q-31 -32 -55 -32q-32 0 -43 62q-18 -7 -53 -18q-67 -18 -193 -110q-129 -95 -221 -195q-105 -116 -105 -182q0 -49 83 -49q65 0 172 50zM553 272v-1q8 -38 -3 -62 q131 79 230 173q-71 -22 -219 -106z" />
<glyph unicode="H" horiz-adv-x="626" d="M303 423q182 34 319 34q52 167 72 223q11 29 34 84q7 18 36 51q33 5 51 -23q15 -23 13 -52q-2 -24 -15 -51q-21 -41 -23 -47q-17 -51 -53 -151q-7 -20 -7 -28q0 -6 5 -13q7 -10 11 -17q15 -38 2 -72q-15 -44 -64 -43l-13 -34q-10 -27 -40 -162l-12 -50q-5 -23 -6 -27 q-15 -41 -50 -41q-18 0 -33 28q-13 25 -12 41q1 2 10 52q10 57 49 192h-30q8 0 -66 -7q-3 0 -239 -34q-18 -46 -39 -98q-10 -27 -26 -79q3 -4 6 -12q8 -28 -3 -57q-6 -18 -24 -38q-23 -25 -45 -25q-26 0 -40 43q-12 38 -6 64q16 68 25 93l47 128q8 14 16 51q1 15 5 28 q3 9 16 22.5t18 25.5q28 69 93 231q8 22 32 78q15 34 37 58.5t36 24.5q40 0 40 -75q0 -23 -4 -34t-21 -31q-2 -4 -17 -39q-31 -72 -85 -212z" />
<glyph unicode="I" horiz-adv-x="412" d="M298 153q55 -6 80 -17q40 -18 40 -57q0 -18 -8 -40q-15 -43 -49 -43q-7 0 -18 4q-14 6 -17 7q-36 8 -54 8q-36 0 -89 -14l-86 -24q-6 -2 -9 -2q-38 0 -38 76q0 17 2 22q12 33 37 41q36 11 96 24q31 79 97 238q21 46 120 254q-68 -35 -74 -35q-38 0 -38 74q0 18 2 24 q10 27 25 36q36 21 52 29q29 16 52 23q91 29 164 29q61 0 61 -64q0 -18 -6.5 -36.5t-24.5 -38.5t-34 -20q-9 0 -24 12q-7 6 -5 6q-2 0 -18 -2l-13 -2q-4 -16 -11 -37q-31 -67 -112 -240q-46 -102 -100 -235z" />
<glyph unicode="J" horiz-adv-x="720" d="M924 644q-8 0 -14 4.5t-9 5.5q-19 3 -59 3q-50 0 -63 -1q22 -65 18 -220q-4 -121 -34.5 -205.5t-69.5 -130.5q-79 -95 -200 -145q-98 -41 -187 -41q-104 0 -162 55q-54 50 -54 135q0 49 19 103q32 87 107 154q79 72 158 72q24 0 57.5 -9.5t49.5 -22.5q26 -20 26 -70 q0 -19 -6 -35q-8 -21 -31 -42q-27 -24 -53 -24q-23 0 -34 21q-5 7 -14 39q-58 -2 -116 -57t-58 -112q0 -64 122 -64q105 0 202 56q112 64 152 173q26 70 26 176q0 86 -17 140q-5 4 -10 9q-7 9 -14 23q-21 -4 -102 -32q-75 -26 -84 -26q-48 0 -48 69q0 20 4 29q12 33 38 43 q25 7 49 14q180 69 338 69q22 0 83 -7q22 -2 35 -29q11 -22 11 -51q0 -17 -4 -28q-15 -41 -52 -41z" />
<glyph unicode="K" horiz-adv-x="511" d="M400 649l-75 -188q164 123 371 319q58 4 58 -64q0 -16 -4 -29q-8 -21 -78 -87q-137 -129 -310 -260q32 -33 60 -114q31 -87 55 -118q26 -19 26 -55q0 -16 -6.5 -34t-22.5 -32.5t-31 -14.5q-42 0 -101 165q-18 50 -31 70q-25 39 -61 39h-9h-6q-12 -41 -37 -127q1 1 1 2 l2 -5q9 -25 -3 -57q-7 -19 -22 -36q-21 -23 -44 -23q-25 0 -37 41q-9 34 -5 50q13 54 65 214q118 325 194 475q18 38 54 38q24 0 36 -35q9 -26 8 -56q-1 -16 -15 -52q-12 -22 -32 -26z" />
<glyph unicode="L" horiz-adv-x="507" d="M520 77q-14 -4 -36 -5q-25 0 -36 -3q-23 -5 -122 -38q-79 -25 -118 -25q-98 0 -98 118q0 73 31 158q16 43 54 126q53 114 77 171q-17 23 -17 54q0 17 6 34t38 52q27 30 44.5 44t34.5 14q25 0 38 -37.5t6 -60.5q-5 -19 -13 -45q-1 -3 -89.5 -203.5t-89.5 -203.5 q-17 -47 -23 -78q1 -2 13 -2q24 0 89 21q46 14 92 29q60 17 99 17q61 0 61 -64q0 -17 -6 -34q-4 -10 -16 -23.5t-19 -15.5z" />
<glyph unicode="M" horiz-adv-x="910" d="M1027 759q-6 17 37 56q31 4 47 -20.5t16 -56.5q0 -16 -4 -27q-9 -13 -23 -40q-115 -292 -165 -517q-1 -32 -10 -84q-18 -50 -57 -50q-42 0 -42 67q0 22 6 56q25 175 114 410q-322 -291 -460 -508q-9 -14 -34 -33q-32 -6 -48 12t-16 51q0 8 2 14q19 84 64 250 q27 84 87 235q-49 -51 -206 -239q-30 -37 -87 -124q-52 -80 -75 -123q-6 -11 -20 -46q-6 -13 -31 -40q-64 -8 -64 68q0 19 5 31q21 58 96 175q57 87 98 141q4 5 109 129q99 117 220 236q30 30 49 30q17 0 30 -15l2 -3h1q22 1 36 -33q11 -29 8 -47q-1 -7 -8 -24 q-1 -4 -59 -142.5t-59.5 -142t-27.5 -78.5q93 109 214 226q138 133 233 196q12 7 22 10z" />
<glyph unicode="N" horiz-adv-x="606" d="M595 103v1q8 -48 1 -67q-18 -50 -59 -50q-26 0 -43 30q-12 26 -23 51q-31 47 -83 147q-57 145 -68 244q-34 -99 -97 -297l2 2q22 -21 22 -53q0 -65 -74 -138l-23 -9q1 0 2 -1q-50 -5 -50 66q0 29 11 88q20 111 30 139l37 99q45 139 138 423q23 29 45 29t35 -26 q10 -21 10 -47q0 -13 -7 -27q-9 -18 -10 -25q15 -27 23 -104l10 -114l15 -56q41 -150 86 -208q62 144 95 235q5 14 17 52q19 55 38 111q30 90 29 102q-1 33 4 47q16 45 52 68q5 1 10 1q23 0 37 -26q12 -22 12 -49q0 -9 -2 -16q-57 -204 -108 -343q-33 -91 -76 -194 q-17 -37 -38 -85z" />
<glyph unicode="O" horiz-adv-x="709" d="M686 767q52 17 102 17q121 0 121 -133q0 -46 -16 -90q-29 -80 -143 -208q-121 -134 -252 -224q-153 -105 -260 -105q-140 0 -140 133q0 57 26 129q83 228 289 401q118 100 219 100q14 0 31 -4q27 -5 23 -16zM529 530q1 1 2 1l-2 -2q-12 -10 -27 -10q-31 0 -42 48 q-81 -68 -150 -165q-66 -92 -95 -173q-12 -34 -12 -44q0 -19 45 -19q67 0 207 93q132 89 238 197q113 118 113 178q0 11 -27 11q-75 0 -203 -68q-23 -12 -28 -21q-9 -17 -19 -26z" />
<glyph unicode="P" horiz-adv-x="480" d="M240 289q-1 0 -1 -1zM245 288q-20 -48 -55 -135q-5 -15 -11 -30q-2 -9 1 -25q4 -16 -4 -39q-17 -45 -55 -45q-49 0 -49 82q0 15 2 21l70 192q1 3 35 86t35 87q6 11 13 34q-3 3 -7 11q-9 33 5 71q8 23 66 89q-1 1 0 5q32 80 70 80q9 0 24 -14q64 37 97 48.5t78 11.5 q78 0 136.5 -54.5t58.5 -126.5q0 -28 -10 -56q-16 -43 -59 -81q-18 -16 -84 -62q-219 -151 -343 -151q-4 0 -14 1zM332 432q56 16 149 71q57 34 86 54q83 54 90 73q4 11 -27 29q-24 14 -41.5 19.5t-39.5 5.5q-54 0 -131 -47q-27 -16 -55 -37l-49 -134q10 -12 18 -34z" />
<glyph unicode="Q" horiz-adv-x="752" d="M747 781l5 2q11 3 39 3q132 0 132 -156q0 -71 -24 -137q-32 -90 -100 -179q-79 -103 -181 -172q22 -33 42 -33q2 0 26 16.5t37 16.5q40 0 40 -71q0 -15 -2 -22q-12 -33 -56 -58q-36 -20 -55 -20q-38 0 -76 35q-34 32 -52 77q-112 -63 -140 -76q-75 -33 -144 -33 q-76 0 -109.5 28.5t-39.5 97.5q-2 18 -2 34q0 47 31 134q25 67 51 114q163 297 423 414q52 24 91 24q40 0 64 -39zM585 266q77 53 143 138q58 75 83 142q14 41 14 64q0 42 -45 42q-71 0 -214 -92q-148 -95 -173 -166q-3 -12 -12 -35q-14 -27 -44 -27q-35 0 -41 47 q-60 -87 -89 -165q-21 -58 -21 -74q0 -29 64 -29q52 0 87 14q29 12 89 41q65 31 66 35q2 5 -3.5 37t-12.5 51q-21 56 -21 75q0 15 5 28q15 41 51 41q48 0 71 -151z" />
<glyph unicode="R" horiz-adv-x="651" d="M412 767l14 5q92 28 183 28q20 0 107 -10q53 -5 94 -39q44 -38 44 -90q0 -23 -8 -46q-14 -39 -62 -79q-121 -103 -330 -216q40 -31 128 -125q44 -40 127 -120q18 -18 18 -56q0 -17 -5 -30q-15 -41 -52 -41q-18 0 -52 33q-22 23 -45 45q-17 14 -46 41q-60 65 -70 76 q-42 42 -80 65q-29 18 -92 18q-23 0 -21 0l-86 -236q-21 -25 -44 -25q-45 0 -45 67q0 14 3 23q21 60 102 288q56 158 82 254l-1 2q-23 19 -23 54q0 18 6 35q9 25 24 36q8 5 40 19q17 51 54 51q21 0 36 -27zM598 657q-63 0 -96 -8q-52 -13 -103 -26l-4 -1l-4 -4 q-6 -25 -19 -72q-32 -95 -48 -143q247 112 393 239q-49 15 -119 15z" />
<glyph unicode="S" horiz-adv-x="645" d="M249 305q86 43 172 87q97 46 176 46q62 0 101 -38q36 -36 36 -91q0 -26 -10 -53q-15 -42 -76 -97q-149 -134 -346 -194q-17 -4 -24 -4q-40 0 -40 76q0 13 2 18q9 26 39 45q49 6 70 13q55 21 136 72q93 58 141 111q-19 8 -42 8q-67 0 -206.5 -74.5t-190.5 -74.5 q-67 0 -67 87q0 35 11 65q44 122 222 277q156 136 299 204q61 29 103 29q39 0 61.5 -22.5t22.5 -58.5q0 -21 -8 -43.5t-26.5 -42.5t-37.5 -20q-30 0 -40 51q-20 -6 -102 -47q-104 -52 -212 -149q-97 -87 -164 -180z" />
<glyph unicode="T" horiz-adv-x="603" d="M538 687q-64 -18 -110 -34q-8 -31 -36 -38q-61 -15 -127 -15q-45 0 -45 68q0 20 3 28q9 24 26 35q10 7 42 17q24 9 68 24q194 58 210 62q106 26 205 26q95 0 122 -26q20 -20 20 -58q0 -18 -5 -33q-17 -46 -54 -46q-9 0 -17 8.5t-12 9.5q-15 6 -66 6q-30 0 -76 -4 q-1 -15 -4 -22q-14 -38 -44 -42q-105 -232 -165 -397q-29 -80 -48 -173l1 -3q0 -1 1 -6q-1 -32 -6 -45q-19 -53 -58 -53q-33 0 -33 67q0 60 25 163q17 71 27.5 100t63.5 169q29 65 92 212z" />
<glyph unicode="U" horiz-adv-x="667" d="M607 2q-23 0 -36 27q-12 24 -8 48q-65 -40 -162 -71q-91 -28 -144 -28q-145 0 -145 164q0 48 14 103q2 7 24 67q43 120 109 265q82 179 123 218q62 8 62 -68q0 -21 -5.5 -35.5t-24.5 -58.5q-5 -11 -21 -22q-11 -19 -29 -56q-86 -191 -124 -296q-28 -76 -28 -102 q0 -38 57 -38q83 0 184 47q67 31 95 51q45 34 65 84q11 28 57 153l99 272q6 17 25 48q7 7 28 22q58 -10 58 -83q0 -37 -13 -67q-10 -12 -24 -19l-64 -166q-17 -50 -50 -150q-47 -137 -60 -213l-6 -33q-3 -16 -4 -20q-16 -43 -52 -43z" />
<glyph unicode="V" horiz-adv-x="609" d="M302 164q113 129 286 359q86 112 139 194q0 3 1 8q14 86 64 86q49 0 49 -78q0 -22 -4 -33q-12 -33 -109 -170q-69 -98 -97 -135q-3 -4 -107 -134q-31 -39 -122 -152q-53 -62 -102 -108.5t-65 -46.5q-48 0 -48 90q0 48 13 110q50 243 81 475q0 34 4 81q16 42 49 42 q23 0 37 -41q12 -35 9 -61q-24 -224 -78 -486z" />
<glyph unicode="W" horiz-adv-x="932" d="M248 6q-5 -1 -10 -1q-4 0 -8 1q3 -2 14 -11zM683 220q108 206 357 540q38 51 104 107q62 3 62 -67q0 -16 -5 -28q-5 -15 -43 -55q-46 -50 -51 -57q-79 -104 -192 -273q-152 -227 -181 -305q1 -8 1 -3q0 -23 -4 -56q-8 -21 -27 -36.5t-41 -15.5q-35 0 -56 83q-2 6 -22 116 q-31 179 -37 301l-87 -129q-74 -100 -153 -217q1 3 3 -8q8 -34 -1 -58q-15 -41 -57 -52q-2 -9 -3 -12q-17 -45 -59 -45q-54 0 -54 108q0 43 5 60q61 236 100 402q32 140 34 193q0 26 14 45.5t39 19.5q30 0 42 -50q9 -36 6 -53q-11 -68 -26 -135q-51 -233 -75 -310 q56 103 151 254q82 129 165 258l16 32q7 13 31 31q55 -4 55 -54q0 -9 -20 -99q-26 -114 -26 -149q0 -26 8 -99q3 -29 27 -184z" />
<glyph unicode="X" horiz-adv-x="630" d="M145 43v-3q2 -19 -13 -45q-10 -16 -39 -28q-22 -10 -34 -10q-44 0 -44 73q0 18 3 28q11 29 49 69l62 64q52 56 133 131q69 63 139 126q2 2 16 13q-1 -3 -5 11q-11 66 -45 192q-6 17 -6 42q0 36 16 63q25 18 39 18q22 0 41.5 -27t18.5 -50q-2 -29 -2 -30q5 -40 28 -138 q73 68 224 197q78 61 120 61q51 0 51 -68q0 -26 -6 -42t-22.5 -31t-30.5 -15q-9 0 -21 10q0 2 -1 3q-15 0 -224 -191q-31 -27 -63 -57q-1 -2 23 -104q26 -112 43 -171q9 -7 20 -24q10 -41 1 -65q-6 -15 -20 -29q-19 -18 -38 -18q-24 0 -38 23q-6 11 -17 43q-12 38 -31 146 q-8 42 -29 122q-164 -145 -298 -289z" />
<glyph unicode="Y" horiz-adv-x="544" d="M724 758q9 14 24 28q59 4 59 -65q0 -21 -6 -37q-2 -9 -14 -28q-42 -47 -132 -135q-63 -52 -235 -308q-73 -108 -80 -126q8 -34 -1 -57q-7 -19 -32 -46q-30 -33 -55 -33q-23 0 -35 24q-11 20 -10 45q1 14 15 53q31 85 135 236q-52 -23 -92 -23q-47 0 -75.5 32.5 t-28.5 83.5q0 12 2 26.5t17 54.5q26 72 79.5 158t111.5 150q33 36 56 36q39 0 39 -65q0 -25 -5 -40q-12 -32 -36 -48q-6 -2 -10 -3q-108 -131 -152 -249h15q48 0 151 71q43 30 148 114q10 12 30 34q28 31 56 63q38 41 61 54z" />
<glyph unicode="Z" horiz-adv-x="749" d="M391 570q-19 -32 -47 -32q-22 0 -42.5 23t-20.5 41q0 34 4 45q12 33 43 43q36 10 107 28q34 10 103 25q170 25 256 25q103 0 171 -17q32 -9 32 -64q0 -16 -4 -27q-9 -25 -36 -43.5t-52 -18.5h-6q-31 -11 -71 -41q-383 -285 -549 -418l19 3q58 11 99 11q70 0 154 -11 q99 -14 135 -36q26 -16 26 -61q0 -16 -5 -28q-6 -18 -22 -32q-20 -17 -41 -17q-6 0 -21 10q-18 12 -25 14q-86 23 -208 23q-47 0 -131 -15t-133 -31t-57 -16q-58 0 -58 73q0 17 4 28q16 46 330 290q187 142 374 283q-111 -8 -185 -22q-30 -5 -143 -35z" />
<glyph unicode="[" horiz-adv-x="320" d="M200 144h54q7 0 21.5 2.5t21.5 2.5q50 0 50 -63q0 -19 -6 -34q-3 -10 -16 -24t-20 -16q-45 -9 -106 -9q-51 0 -80.5 12.5t-29.5 60.5q0 51 31 136l203 557q32 31 103 31q24 0 64 -7q57 -9 57 -72q0 -43 -26 -65q-12 -10 -29 -10q-1 0 -36 10q-10 3 -46 3h-29l-131 -364 q-24 -71 -50 -151z" />
<glyph unicode="\" horiz-adv-x="507" d="M478 -8q-30 0 -42 51q-5 20 -10 78l-12 111q-8 89 -35 165q-18 43 -49 143q-4 29 -15 85q-13 45 -13 95q0 23 5 35q15 42 48 42q26 0 37 -37q3 -8 11 -60q5 -31 16 -92q5 -23 23 -69q22 -59 30 -82q25 -80 37 -168q20 -144 20 -232q0 -19 -2 -24q-15 -41 -49 -41z" />
<glyph unicode="]" horiz-adv-x="239" d="M370 638l-4 -1q-17 -7 -24 -7q-39 0 -39 61q0 21 5 35q4 10 15 23t17 15q77 26 109 26q45 0 45 -61q0 -27 -7 -49q-10 -19 -30 -64q-85 -214 -142 -369q-15 -42 -41 -135q-3 -16 -13 -47t-31 -48q-87 -10 -98 -10q-22 0 -30 6q-21 15 -21 57q0 29 14 53q16 28 42 28 q4 0 11 -2.5t11 -2.5q3 0 35 4q11 47 23 80q67 178 136 362z" />
<glyph unicode="^" horiz-adv-x="400" d="M519 526q-21 0 -32 26q-4 10 -10 43q-4 18 -13 54q-27 -23 -83 -73q-10 -50 -50 -50q-52 0 -52 58q0 13 4 24q8 21 89 92q54 46 108 91q42 4 55 -32q6 -35 11 -69l12 -50q9 -35 9 -56q0 -14 -4 -23q-4 -12 -17.5 -23.5t-26.5 -11.5z" />
<glyph unicode="_" horiz-adv-x="399" d="M429 -5q-9 -4 -22 -4q-3 0 -15 1l-24 3q-44 6 -112 6q-58 0 -175 -6q-10 -1 -35.5 -3t-26.5 -2q-44 0 -44 46q0 7 1 10q6 18 25 24q26 8 98 12q51 1 102 3h57q119 0 162 -13q31 -9 31 -43q0 -7 -1 -12q-6 -15 -21 -22z" />
<glyph unicode="`" horiz-adv-x="290" d="M394 497q-26 0 -41 51t-15 108q0 74 26 140q18 24 38 24q35 0 35 -72q0 -11 -1 -16q-10 -31 -10 -61q0 -29 10 -62q13 -41 2 -73q-14 -39 -44 -39z" />
<glyph unicode="a" horiz-adv-x="531" d="M251 226q1 -1 2 -1q-34 -44 -96 -133q21 -20 21 -55q0 -17 -5 -31q-9 -25 -40 -48.5t-55 -23.5q-32 0 -47 36q-12 28 -9 61q2 15 15 52q45 124 260 367q201 228 336 327q41 30 61 30q40 0 40 -58q0 -8 -1 -16q-3 -18 0 -30q3 -15 0 -24l-34 -93q-23 -54 -70 -172 q30 -20 30 -59q0 -41 -26 -62q-13 -11 -31 -11q-4 0 -26 2l-48 -131q-69 -190 -127 -190q-43 0 -43 62q0 21 4.5 32.5t22.5 28.5q25 32 38 68l45 123q-135 -26 -217 -51zM402 399q71 17 121 23l65 166q-80 -72 -186 -189z" />
<glyph unicode="b" horiz-adv-x="708" d="M751 554q76 -56 76 -166q0 -44 -14 -83q-73 -201 -482 -303q-65 -16 -99 -16q-1 0 -16 2q-15 -18 -36 -18q-20 0 -35 29l-20 46q-17 30 -17 61q0 33 20 82q21 24 43 24q12 0 20 -5q14 42 52 155q2 19 5 31q-38 4 -38 86q0 58 9 81q28 77 136 142q18 11 26 18q1 5 4 15 q15 41 49 41q10 0 24 -14q0 -2 1 -5q2 2 8 5q81 35 174 35q47 0 88 -12q32 -10 51 -48q16 -33 16 -75q0 -28 -8 -50q-10 -27 -37 -58zM631 659q-85 0 -178 -45q1 0 -3 2q-18 -30 -35 -85q96 45 177 52q-6 0 5 -1q51 25 87 68q-28 9 -53 9zM272 129q29 8 87 21q79 14 186 64 q149 69 177 146q4 10 4 20q0 30 -34 49q-29 17 -67 17q-9 0 -8 0q-64 -38 -175 -100q-40 -21 -110 -48l1 6q-20 -53 -57 -161z" />
<glyph unicode="c" horiz-adv-x="652" d="M638 286q15 37 49 37q41 0 41 -69q0 -28 -8 -50q-11 -32 -33 -40q-122 -49 -287 -109q-110 -41 -169 -41q-129 0 -129 141q0 66 26 136q55 150 191 304q178 202 353 202q54 0 85 -34.5t31 -82.5q0 -25 -9 -49q-5 -14 -27 -41q-26 -30 -40 -30q-19 0 -34 32q-12 26 -12 38 q1 11 6 27q2 0 -11 0q-132 0 -278 -162q-119 -132 -165 -258q-17 -45 -17 -59q0 -24 42 -24q49 0 190 52q45 17 205 80z" />
<glyph unicode="d" horiz-adv-x="684" d="M371 724q3 16 25 50q16 14 34 14q19 0 32 -17q53 23 86 30q27 6 75 6q106 0 181 -58q79 -60 79 -152q0 -38 -15 -77q-86 -236 -585 -463q-24 -11 -38 -19q-11 -47 -43 -83q-8 -2 -15 -2q-31 0 -47 45q-20 9 -26 16q-16 19 -16 53q0 17 4 30q9 24 34 37q12 21 20 28 q4 3 27 18q2 1 4 5q22 63 105 312q-39 26 -39 76q0 22 8 46q3 9 12 26q17 22 46 44q26 17 52 35zM302 210q418 205 476 364q2 6 2 12q0 28 -43 53q-34 19 -55 21q-12 1 -41 5t-31 4q-69 0 -160 -47q-34 -87 -120 -329q-10 -28 -28 -83z" />
<glyph unicode="e" horiz-adv-x="642" d="M479 797q44 10 150 10q169 0 235 -27q27 -12 27 -65q0 -18 -4 -31q-17 -46 -54 -46q-7 0 -16 5t-14 5q-131 15 -186 15q-103 0 -155 -10q-4 -1 -8 0h-6q-31 -47 -80 -128q187 55 345 55q51 0 51 -73q0 -19 -4 -31q-15 -40 -47 -41.5t-93 -3.5q-127 -6 -277 -58 q0 -15 -4 -25q-16 -43 -54 -43q-6 0 -28 6q-18 -37 -27 -62q-20 -57 -20 -73q0 -14 6 -18.5t37 -4.5q46 0 131 29q77 25 136 56q7 30 39 52q13 0 27.5 -4t20.5 -5q30 -4 39 -18q15 -23 15 -50q0 -16 -6 -32q-10 -29 -41 -46q-27 -13 -55 -25q-204 -101 -318 -101 q-49 0 -69 11q-62 34 -62 151q0 52 14 89.5l42 112.5q3 8 3.5 27t3.5 29q11 31 37 42l4 1q24 48 90 162q-27 19 -27 62q0 19 5 33q13 36 55 46q30 4 60 9l3 5q15 29 46 29q23 0 33 -21z" />
<glyph unicode="f" horiz-adv-x="550" d="M525 769l9 3q134 45 208 45q37 0 58.5 -18.5t21.5 -50.5q0 -18 -7.5 -38.5t-18.5 -31.5q-5 -5 -50 -37q-49 -36 -56 -36q-35 0 -41 62q-69 -17 -164 -51q-22 -8 -48 -64q89 31 145 31q43 0 69.5 -20.5t26.5 -59.5q0 -22 -9 -49q-8 -21 -27 -42q-23 -26 -44 -26 q-32 0 -41 57q-71 -5 -165 -51l-27 -9q-1 1 -3 0q-27 -47 -53 -113l-40 -114q-4 -8 -12.5 -31.5t-8.5 -29.5q0 -1 4 -23q3 -22 -6 -47q-6 -18 -23 -37q-22 -25 -43 -25q-38 0 -38 84q0 26 3 49q17 65 65 184q7 17 25 34q-17 -9 -28 -9q-41 0 -41 66q0 20 3 30q10 27 55 52 l72 36l6 13q-65 1 -65 75q0 17 5 30q11 31 41 48q44 22 132 68q44 79 73 79q27 0 37 -33z" />
<glyph unicode="g" horiz-adv-x="777" d="M446 159q-5 -1 -9 -1q-37 0 -58 28q-18 24 -18 59q0 18 6 33q12 35 98 92q170 113 287 145q45 13 79 13q43 0 65 -25t22 -65q0 -26 -10 -54q-23 -65 -117 -146q-139 -119 -283 -194q-147 -76 -246 -76q-83 0 -130 52q-44 48 -44 124q0 45 17 92q15 42 57 106 q40 61 79 105q121 136 247 226q76 55 175.5 96t161.5 41q37 0 58 -26t21 -62q0 -20 -7 -38q-8 -23 -36 -51q-31 -32 -55 -32q-32 0 -43 62q-18 -7 -53 -18q-67 -18 -193 -110q-129 -95 -221 -195q-105 -116 -105 -182q0 -49 83 -49q65 0 172 50zM544 272v-1q8 -38 -3 -62 q131 79 230 173q-71 -22 -219 -106z" />
<glyph unicode="h" horiz-adv-x="630" d="M303 423q182 34 319 34q52 167 72 223q11 29 34 84q7 18 36 51q33 5 51 -23q15 -23 13 -52q-2 -24 -15 -51q-21 -41 -23 -47q-17 -51 -53 -151q-7 -20 -7 -28q0 -6 5 -13q7 -10 11 -17q15 -38 2 -72q-15 -44 -64 -43l-13 -34q-10 -27 -40 -162l-12 -50q-5 -23 -6 -27 q-15 -41 -50 -41q-18 0 -33 28q-13 25 -12 41q1 2 10 52q10 57 49 192h-30q8 0 -66 -7q-3 0 -239 -34q-18 -46 -39 -98q-10 -27 -26 -79q3 -4 6 -12q8 -28 -3 -57q-6 -18 -24 -38q-23 -25 -45 -25q-26 0 -40 43q-12 38 -6 64q16 68 25 93l47 128q8 14 16 51q1 15 5 28 q3 9 16 22.5t18 25.5q28 69 93 231q8 22 32 78q15 34 37 58.5t36 24.5q40 0 40 -75q0 -23 -4 -34t-21 -31q-2 -4 -17 -39q-31 -72 -85 -212z" />
<glyph unicode="i" horiz-adv-x="211" d="M213 220q-31 -83 -41 -157q-1 -6 -5 -18q-2 -5 -7 -19q-18 -25 -36 -25q-14 0 -22 24t-6 45q6 75 53 205q20 53 106 257q95 224 111 245q3 3 7 8l22 11q-2 0 -3 1q12 1 17 -4q17 -20 17 -47q0 -22 -15 -62q-8 -20 -89 -203t-109 -261z" />
<glyph unicode="j" horiz-adv-x="587" d="M645 662q-37 -14 -110 -45q0 -1 -1 -3q-15 -18 -41 -18q-50 0 -50 67q0 18 4 30q9 23 23 33q24 16 85 42q66 29 85 29q44 0 44 -63q0 -20 -3 -31q-12 -31 -36 -41zM381 -46q-68 -16 -100 -16q-42 0 -78 16q-116 53 -116 192q0 60 23 122q29 82 89 132q67 56 151 56 q46 0 74.5 -24t28.5 -64q0 -22 -9 -45q-6 -18 -34 -50q-34 -39 -56 -39q-43 0 -43 66q0 8 2 16q-18 0 -54 -24.5t-46 -47.5q-6 -10 -14 -30q-10 -27 -10 -51q0 -41 28.5 -62.5t75.5 -21.5q91 0 165 49q78 53 111 143q12 32 12 68q0 25 -6 51q-16 72 -38.5 86.5t-22.5 61.5 q0 12 14 51q29 21 45 21q62 0 102 -181q7 -35 7 -74q0 -71 -25 -141q-36 -98 -105 -166q-74 -72 -171 -94z" />
<glyph unicode="k" horiz-adv-x="471" d="M376 649l-75 -188q164 123 371 319q58 4 58 -64q0 -16 -4 -29q-8 -21 -78 -87q-137 -129 -310 -260q32 -33 60 -114q31 -87 55 -118q26 -19 26 -55q0 -16 -6.5 -34t-22.5 -32.5t-31 -14.5q-42 0 -101 165q-18 50 -31 70q-25 39 -61 39h-9h-6q-12 -41 -37 -127q1 1 1 2 l2 -5q9 -25 -3 -57q-7 -19 -22 -36q-21 -23 -44 -23q-25 0 -37 41q-9 34 -5 50q13 54 65 214q118 325 194 475q18 38 54 38q24 0 36 -35q9 -26 8 -56q-1 -16 -15 -52q-12 -22 -32 -26z" />
<glyph unicode="l" horiz-adv-x="520" d="M525 77q-14 -4 -36 -5q-25 0 -36 -3q-23 -5 -122 -38q-79 -25 -118 -25q-98 0 -98 118q0 73 31 158q16 43 54 126q53 114 77 171q-17 23 -17 54q0 17 6 34t38 52q27 30 44.5 44t34.5 14q25 0 38 -37.5t6 -60.5q-5 -19 -13 -45q-1 -3 -89.5 -203.5t-89.5 -203.5 q-17 -47 -23 -78q1 -2 13 -2q24 0 89 21q46 14 92 29q60 17 99 17q61 0 61 -64q0 -17 -6 -34q-4 -10 -16 -23.5t-19 -15.5z" />
<glyph unicode="m" horiz-adv-x="878" d="M1011 759q-6 17 37 56q31 4 47 -20.5t16 -56.5q0 -16 -4 -27q-9 -13 -23 -40q-115 -292 -165 -517q-1 -32 -10 -84q-18 -50 -57 -50q-42 0 -42 67q0 22 6 56q25 175 114 410q-322 -291 -460 -508q-9 -14 -34 -33q-32 -6 -48 12t-16 51q0 8 2 14q19 84 64 250 q27 84 87 235q-49 -51 -206 -239q-30 -37 -87 -124q-52 -80 -75 -123q-6 -11 -20 -46q-6 -13 -31 -40q-64 -8 -64 68q0 19 5 31q21 58 96 175q57 87 98 141q4 5 109 129q99 117 220 236q30 30 49 30q17 0 30 -15l2 -3h1q22 1 36 -33q11 -29 8 -47q-1 -7 -8 -24 q-1 -4 -59 -142.5t-59.5 -142t-27.5 -78.5q93 109 214 226q138 133 233 196q12 7 22 10z" />
<glyph unicode="n" horiz-adv-x="588" d="M590 103v1q8 -48 1 -67q-18 -50 -59 -50q-26 0 -43 30q-12 26 -23 51q-31 47 -83 147q-57 145 -68 244q-34 -99 -97 -297l2 2q22 -21 22 -53q0 -65 -74 -138l-23 -9q1 0 2 -1q-50 -5 -50 66q0 29 11 88q20 111 30 139l37 99q45 139 138 423q23 29 45 29t35 -26 q10 -21 10 -47q0 -13 -7 -27q-9 -18 -10 -25q15 -27 23 -104l10 -114l15 -56q41 -150 86 -208q62 144 95 235q5 14 17 52q19 55 38 111q30 90 29 102q-1 33 4 47q16 45 52 68q5 1 10 1q23 0 37 -26q12 -22 12 -49q0 -9 -2 -16q-57 -204 -108 -343q-33 -91 -76 -194 q-17 -37 -38 -85z" />
<glyph unicode="o" horiz-adv-x="698" d="M683 767q52 17 102 17q121 0 121 -133q0 -46 -16 -90q-29 -80 -143 -208q-121 -134 -252 -224q-153 -105 -260 -105q-140 0 -140 133q0 57 26 129q83 228 289 401q118 100 219 100q14 0 31 -4q27 -5 23 -16zM526 530q1 1 2 1l-2 -2q-12 -10 -27 -10q-31 0 -42 48 q-81 -68 -150 -165q-66 -92 -95 -173q-12 -34 -12 -44q0 -19 45 -19q67 0 207 93q132 89 238 197q113 117 113 178q0 11 -27 11q-75 0 -203 -68q-23 -12 -28 -21q-9 -17 -19 -26z" />
<glyph unicode="p" horiz-adv-x="472" d="M250 289q-1 0 -1 -1zM255 288q-20 -48 -55 -135q-5 -15 -11 -30q-2 -9 1 -25q4 -16 -4 -39q-17 -45 -55 -45q-49 0 -49 82q0 15 2 21l70 192q1 3 35 86t35 87q6 11 13 34q-3 3 -7 11q-9 33 5 71q8 23 66 89q-1 1 0 5q32 80 70 80q9 0 24 -14q64 37 97 48.5t78 11.5 q78 0 136.5 -54.5t58.5 -126.5q0 -28 -10 -56q-16 -43 -59 -81q-18 -16 -84 -62q-219 -151 -343 -151q-4 0 -14 1zM342 432q56 16 149 71q57 34 86 54q83 54 90 73q4 11 -27 29q-24 14 -41.5 19.5t-39.5 5.5q-54 0 -131 -47q-27 -16 -55 -37l-49 -134q10 -12 18 -34z" />
<glyph unicode="q" horiz-adv-x="733" d="M760 781l5 2q11 3 39 3q132 0 132 -156q0 -71 -24 -137q-32 -90 -100 -179q-79 -103 -181 -172q22 -33 42 -33q2 0 26 16.5t37 16.5q40 0 40 -71q0 -15 -2 -22q-12 -33 -56 -58q-36 -20 -55 -20q-38 0 -76 35q-34 32 -52 77q-112 -63 -140 -76q-75 -33 -144 -33 q-76 0 -109.5 28.5t-39.5 97.5q-2 18 -2 34q0 47 31 134q25 67 51 114q163 297 423 414q52 24 91 24q40 0 64 -39zM598 266q77 53 143 138q58 75 83 142q14 41 14 64q0 42 -45 42q-71 0 -214 -92q-148 -95 -173 -166q-3 -12 -12 -35q-14 -27 -44 -27q-35 0 -41 47 q-60 -87 -89 -165q-21 -58 -21 -74q0 -29 64 -29q52 0 87 14q29 12 89 41q65 31 66 35q2 5 -3.5 37t-12.5 51q-21 56 -21 75q0 15 5 28q15 41 51 41q48 0 71 -151z" />
<glyph unicode="r" horiz-adv-x="659" d="M409 767l14 5q92 28 183 28q20 0 107 -10q53 -5 94 -39q44 -38 44 -90q0 -23 -8 -46q-14 -39 -62 -79q-121 -103 -330 -216q40 -31 128 -125q44 -40 127 -120q18 -18 18 -56q0 -17 -5 -30q-15 -41 -52 -41q-18 0 -52 33q-22 23 -45 45q-17 14 -46 41q-60 65 -70 76 q-42 42 -80 65q-29 18 -92 18q-23 0 -21 0l-86 -236q-21 -25 -44 -25q-45 0 -45 67q0 14 3 23q21 60 102 288q56 158 82 254l-1 2q-23 19 -23 54q0 18 6 35q9 25 24 36q8 5 40 19q17 51 54 51q21 0 36 -27zM595 657q-63 0 -96 -8q-52 -13 -103 -26l-4 -1l-4 -4 q-6 -25 -19 -72q-32 -95 -48 -143q247 112 393 239q-49 15 -119 15z" />
<glyph unicode="s" horiz-adv-x="640" d="M264 305q86 43 172 87q97 46 176 46q62 0 101 -38q36 -36 36 -91q0 -26 -10 -53q-15 -42 -76 -97q-149 -134 -346 -194q-17 -4 -24 -4q-40 0 -40 76q0 13 2 18q9 26 39 45q49 6 70 13q55 21 136 72q93 58 141 111q-19 8 -42 8q-67 0 -206.5 -74.5t-190.5 -74.5 q-67 0 -67 87q0 35 11 65q44 122 222 277q156 136 299 204q61 29 103 29q39 0 61.5 -22.5t22.5 -58.5q0 -21 -8 -43.5t-26.5 -42.5t-37.5 -20q-30 0 -40 51q-20 -6 -102 -47q-104 -52 -212 -149q-97 -87 -164 -180z" />
<glyph unicode="t" horiz-adv-x="615" d="M541 687q-64 -18 -110 -34q-8 -31 -36 -38q-61 -15 -127 -15q-45 0 -45 68q0 20 3 28q9 24 26 35q10 7 42 17q24 9 68 24q194 58 210 62q106 26 205 26q95 0 122 -26q20 -20 20 -58q0 -18 -5 -33q-17 -46 -54 -46q-9 0 -17 8.5t-12 9.5q-15 6 -66 6q-30 0 -76 -4 q-1 -15 -4 -22q-14 -38 -44 -42q-105 -232 -165 -397q-29 -80 -48 -173l1 -3q0 -1 1 -6q-1 -32 -6 -45q-19 -53 -58 -53q-33 0 -33 67q0 60 25 163q17 71 27.5 100t63.5 169q29 65 92 212z" />
<glyph unicode="u" horiz-adv-x="651" d="M611 2q-23 0 -36 27q-12 24 -8 48q-65 -40 -162 -71q-91 -28 -144 -28q-145 0 -145 164q0 48 14 103q2 7 24 67q43 120 109 265q82 179 123 218q62 8 62 -68q0 -21 -5.5 -35.5t-24.5 -58.5q-5 -11 -21 -22q-11 -19 -29 -56q-86 -191 -124 -296q-28 -76 -28 -102 q0 -38 57 -38q83 0 184 47q67 31 95 51q45 34 65 84q11 28 57 153l99 272q6 17 25 48q7 7 28 22q58 -10 58 -83q0 -37 -13 -67q-10 -12 -24 -19l-64 -166q-17 -50 -50 -150q-47 -137 -60 -213l-6 -33q-3 -16 -4 -20q-16 -43 -52 -43z" />
<glyph unicode="v" horiz-adv-x="582" d="M290 164q113 129 286 359q86 112 139 194q0 3 1 8q14 86 64 86q49 0 49 -78q0 -22 -4 -33q-12 -33 -109 -170q-69 -98 -97 -135q-3 -4 -107 -134q-31 -39 -122 -152q-53 -62 -102 -108.5t-65 -46.5q-48 0 -48 90q0 48 13 110q50 243 81 475q0 34 4 81q16 42 49 42 q23 0 37 -41q12 -35 9 -61q-24 -224 -78 -486z" />
<glyph unicode="w" horiz-adv-x="907" d="M238 6q-5 -1 -10 -1q-4 0 -8 1q3 -2 14 -11zM673 220q108 206 357 540q38 51 104 107q62 3 62 -67q0 -16 -5 -28q-5 -15 -43 -55q-46 -50 -51 -57q-79 -104 -192 -273q-152 -227 -181 -305q1 -8 1 -3q0 -23 -4 -56q-8 -21 -27 -36.5t-41 -15.5q-35 0 -56 83q-2 6 -22 116 q-31 179 -37 301l-87 -129q-74 -100 -153 -217q1 3 3 -8q8 -34 -1 -58q-15 -41 -57 -52q-2 -9 -3 -12q-17 -45 -59 -45q-54 0 -54 108q0 43 5 60q61 236 100 402q32 140 34 193q0 26 14 45.5t39 19.5q30 0 42 -50q9 -36 6 -53q-11 -68 -26 -135q-51 -233 -75 -310 q56 103 151 254q82 129 165 258l16 32q7 13 31 31q55 -4 55 -54q0 -9 -20 -99q-26 -114 -26 -149q0 -26 8 -99q3 -29 27 -184z" />
<glyph unicode="x" horiz-adv-x="618" d="M146 43v-3q2 -19 -13 -45q-10 -16 -39 -28q-22 -10 -34 -10q-44 0 -44 73q0 18 3 28q11 29 49 69l62 64q52 56 133 131q69 63 139 126q2 2 16 13q-1 -3 -5 11q-11 66 -45 192q-6 17 -6 42q0 36 16 63q25 18 39 18q22 0 41.5 -27t18.5 -50q-2 -29 -2 -30q5 -40 28 -138 q73 68 224 197q78 61 120 61q51 0 51 -68q0 -26 -6 -42t-22.5 -31t-30.5 -15q-9 0 -21 10q0 2 -1 3q-15 0 -224 -191q-31 -27 -63 -57q-1 -2 23 -104q26 -112 43 -171q9 -7 20 -24q10 -41 1 -65q-6 -15 -20 -29q-19 -18 -38 -18q-24 0 -38 23q-6 11 -17 43q-12 38 -31 146 q-8 42 -29 122q-164 -145 -298 -289z" />
<glyph unicode="y" horiz-adv-x="572" d="M750 758q9 14 24 28q59 4 59 -65q0 -21 -6 -37q-2 -9 -14 -28q-42 -47 -132 -135q-63 -52 -235 -308q-73 -108 -80 -126q8 -34 -1 -57q-7 -19 -32 -46q-30 -33 -55 -33q-23 0 -35 24q-11 20 -10 45q1 14 15 53q31 85 135 236q-52 -23 -92 -23q-47 0 -75.5 32.5 t-28.5 83.5q0 12 2 26.5t17 54.5q26 72 79.5 158t111.5 150q33 36 56 36q39 0 39 -65q0 -25 -5 -40q-12 -32 -36 -48q-6 -2 -10 -3q-108 -131 -152 -249h15q48 0 151 71q43 30 148 114q10 12 30 34q28 31 56 63q38 41 61 54z" />
<glyph unicode="z" horiz-adv-x="748" d="M391 570q-19 -32 -47 -32q-22 0 -42.5 23t-20.5 41q0 34 4 45q12 33 43 43q36 10 107 28q34 10 103 25q170 25 256 25q103 0 171 -17q32 -9 32 -64q0 -16 -4 -27q-9 -25 -36 -43.5t-52 -18.5h-6q-31 -11 -71 -41q-383 -285 -549 -418l19 3q58 11 99 11q70 0 154 -11 q99 -14 135 -36q26 -16 26 -61q0 -16 -5 -28q-6 -18 -22 -32q-20 -17 -41 -17q-6 0 -21 10q-18 12 -25 14q-86 23 -208 23q-47 0 -131 -15t-133 -31t-57 -16q-58 0 -58 73q0 17 4 28q16 46 330 290q187 142 374 283q-111 -8 -185 -22q-30 -5 -143 -35z" />
<glyph unicode="{" horiz-adv-x="299" d="M429 456q-16 0 -31 30l-22 44q-10 13 -32 32q-25 20 -33 31q-16 17 -16 53q0 17 5 31q15 40 47 40q5 0 37 -21.5t61 -64.5q37 -54 37 -100q0 -18 -6 -34q-15 -41 -47 -41zM373 322q-3 0 -14.5 1.5t-14.5 1.5t-41 -4t-41 -4q-29 0 -46.5 16.5t-17.5 44.5q0 17 7 36 q15 43 47 42q36 -1 66.5 2.5t42.5 3.5q31 0 49.5 -18t18.5 -47q0 -17 -7 -34q-14 -41 -49 -41zM376 206q-13 -11 -38 -34q-117 -115 -133 -115q-35 0 -35 68q0 21 2.5 29t14.5 26l116 111q31 30 52 30q35 0 35 -66q0 -19 -3 -28q-5 -13 -11 -21z" />
<glyph unicode="|" horiz-adv-x="234" d="M133 0q-23 0 -23 53q0 34 6 49l56 155q1 3 15.5 47.5t15.5 48.5l153 418q17 26 33 26q25 0 25 -49q0 -25 -6 -41l-223 -624q-5 -18 -18 -59q-18 -24 -34 -24z" />
<glyph unicode="}" horiz-adv-x="294" d="M397 534q-20 -16 -40 -31q-24 -19 -41 -19q-36 0 -36 69q0 26 13 46q6 9 13 15q22 20 95 66.5t83 46.5q37 0 37 -57q0 -38 -16 -67q-41 -24 -108 -69zM381 310q-3 0 -40.5 3t-40.5 3q-43 0 -55 -1q-15 -5 -19 -5q-39 0 -39 63q0 23 4 35q14 36 56 45q16 4 65 4 q75 0 94 -7q31 -12 31 -63q0 -19 -5 -33q-16 -44 -51 -44zM286 56q-16 0 -75 97q-3 6 -18 20q-29 18 -29 61q0 18 6 35q15 41 48 41q32 0 68 -55q11 -16 46 -83q5 -11 6 -35t-4 -38.5t-19.5 -28.5t-28.5 -14z" />
<glyph unicode="~" horiz-adv-x="464" d="M606 768l2 1q13 6 22 6q19 0 30 -21q9 -17 9 -38q0 -7 -2 -11q-15 -43 -88 -43q-21 0 -46 9q-20 8 -39.5 14t-53.5 17q-8 0 -21 -3q-10 -46 -64 -46q-43 0 -43 56q0 28 21 49q13 13 52 31t59 18q19 0 86 -24q47 -17 55 -17q5 0 21 2z" />
<glyph unicode="&#xa5;" horiz-adv-x="908" d="M562 779q24 14 91 14q66 0 146 -40q86 -43 116 -100h139q23 0 39 -27.5t16 -52.5q0 -34 -43 -49h-110q-1 -19 -7 -38q108 -8 108 -81q0 -15 -5 -33q-29 -21 -57 -21q-3 0 -71 7q-72 7 -81 8q1 -1 1 -3l-29 -18q-215 -135 -406 -135l-4 -11q-2 -5 -23 -83t-21 -80 q-15 -40 -51 -40q-27 0 -47.5 28t-16.5 52q12 67 45 167q-31 29 -31 61q0 10 4 20q13 38 51 38q6 0 13 -3h1l3 7h-37q-2 0 -29.5 -2.5t-30.5 -2.5q-19 0 -25 1q-20 3 -37 26t-17 48q0 30 38 53q21 2 59 5q31 1 94 5h-69q-22 0 -39 25t-17 51t36 53h116q9 0 29 2.5t30 2.5 l7 16q-10 28 -10 39q0 19 17 32q13 11 27 21q0 2 1 5q3 8 11 29q27 21 44 21q6 0 32 -17zM713 653q-35 11 -51 11q-51 0 -96 -22l-1 -3q50 5 148 14zM601 510q36 0 64 -1q18 -1 79 -5q58 -4 59 -4q9 0 7 0q0 -1 20 24h-27q9 0 -202 -14zM455 343q36 5 128 37l-116 -6z" />
<glyph unicode="&#xa9;" horiz-adv-x="656" d="M794 458q-34 -92 -121 -169q-27 -25 -116 -69q-120 -59 -226 -59q-80 0 -111 28q-46 42 -46 136q0 56 17 102q19 52 75 132q78 113 172 170q50 29 112.5 50t104.5 21q45 0 56 -63q1 -6 31 -20q24 -12 44 -52q17 -34 22 -68q10 -71 -14 -139zM747 509q10 27 10 53 q0 77 -68 85q-17 1 -43 4q-15 3 -22 21q-6 15 -4 30q-46 -9 -65 -16q-15 -7 -44 -18q-76 -25 -167 -130q-82 -93 -107 -162q-1 -4 -9 -64q-8 -59 99 -59q68 0 154.5 31t160.5 84q27 19 72 83q25 35 33 58zM625 393q-3 -8 -12 -22q-22 -19 -68 -33q-40 -12 -64 -12 q-57 0 -86.5 28t-29.5 75q0 32 14 69q19 54 75 94.5t112 40.5q29 0 35 -4q27 -17 27 -62q0 -28 -12 -49q-11 -8 -15 -8q-10 0 -29 31q-5 2 -12 2q-30 0 -77.5 -34t-57.5 -62q-6 -16 -2 -19q13 -10 52 -10q55 0 103 30q6 8 21 22q31 -6 31 -47q0 -16 -5 -30z" />
<glyph unicode="&#xad;" d="M512 332q-5 0 -18 4q-23 4 -64 4q-3 0 -64 -1.5t-63 -1.5q-55 0 -68 5q-31 11 -31 46q0 18 25 40q67 -2 131 -1q9 1 42 2q29 1 32 1q55 0 96 -8q36 -6 36 -47q0 -20 -16.5 -31.5t-37.5 -11.5z" />
<glyph unicode="&#xae;" horiz-adv-x="680" d="M806 457q-16 -45 -26 -61t-30 -46q-86 -114 -277 -163q-26 -7 -90 -14q-4 -5 -16 -15q-6 -2 -15 7t-13 10q-22 4 -43 8q-26 7 -43 20q-72 53 -72 142q0 54 29 133q5 14 16 44q30 67 134 149.5t178 93.5q6 1 28 6q18 4 22 4q22 0 35 -15q6 -6 13 -26q28 -3 56 -5 q33 -4 54 -15q86 -46 86 -136q0 -49 -26 -121zM758 510q19 52 18 75q0 16 -35.5 34t-62.5 18h-98q-9 0 -29 34q-46 0 -142.5 -70.5t-125.5 -122.5q-17 -30 -25 -53q-12 -33 -22 -82q-4 -22 31 -47q31 -24 51 -24h16q26 164 56 246l12 34q14 33 31 33q5 0 14.5 -9l9.5 -9 q-1 0 43 25t79 25q33 0 53.5 -23t20.5 -56q0 -18 -7 -36q-15 -40 -85 -97q18 -4 59 -16q36 -11 39 -11q13 0 44 37q23 29 35 50q10 18 20 45zM563 518q-52 -15 -88 -47q-17 -17 -47 -43q-2 -5 -5 -13q77 40 140 103zM546 312q-17 4 -54 6q-55 3 -58 4q-7 0 -24 27 q-6 -28 -17 -80q71 6 153 43z" />
<glyph unicode="&#x2000;" horiz-adv-x="433" />
<glyph unicode="&#x2001;" horiz-adv-x="867" />
<glyph unicode="&#x2002;" horiz-adv-x="433" />
<glyph unicode="&#x2003;" horiz-adv-x="867" />
<glyph unicode="&#x2004;" horiz-adv-x="289" />
<glyph unicode="&#x2005;" horiz-adv-x="216" />
<glyph unicode="&#x2006;" horiz-adv-x="144" />
<glyph unicode="&#x2007;" horiz-adv-x="144" />
<glyph unicode="&#x2008;" horiz-adv-x="108" />
<glyph unicode="&#x2009;" horiz-adv-x="173" />
<glyph unicode="&#x200a;" horiz-adv-x="48" />
<glyph unicode="&#x2010;" d="M512 332q-5 0 -18 4q-23 4 -64 4q-3 0 -64 -1.5t-63 -1.5q-55 0 -68 5q-31 11 -31 46q0 18 25 40q67 -2 131 -1q9 1 42 2q29 1 32 1q55 0 96 -8q36 -6 36 -47q0 -20 -16.5 -31.5t-37.5 -11.5z" />
<glyph unicode="&#x2011;" d="M512 332q-5 0 -18 4q-23 4 -64 4q-3 0 -64 -1.5t-63 -1.5q-55 0 -68 5q-31 11 -31 46q0 18 25 40q67 -2 131 -1q9 1 42 2q29 1 32 1q55 0 96 -8q36 -6 36 -47q0 -20 -16.5 -31.5t-37.5 -11.5z" />
<glyph unicode="&#x2012;" d="M512 332q-5 0 -18 4q-23 4 -64 4q-3 0 -64 -1.5t-63 -1.5q-55 0 -68 5q-31 11 -31 46q0 18 25 40q67 -2 131 -1q9 1 42 2q29 1 32 1q55 0 96 -8q36 -6 36 -47q0 -20 -16.5 -31.5t-37.5 -11.5z" />
<glyph unicode="&#x2013;" horiz-adv-x="614" d="M629 332q-6 0 -24 4q-32 4 -89 4q-4 0 -88 -1.5t-87 -1.5q-76 0 -94 5q-43 11 -43 46q0 18 35 40q92 -2 180 -1q13 1 58 2q41 1 45 1q76 0 132 -8q50 -6 50 -47q0 -20 -23 -31.5t-52 -11.5z" />
<glyph unicode="&#x2014;" horiz-adv-x="1114" d="M1055 332q-14 0 -50 4q-63 4 -177 4q-8 0 -176.5 -1.5t-174.5 -1.5q-151 0 -187 5q-86 11 -86 46q0 18 69 40q185 -2 362 -1q25 1 116 2q80 1 88 1q152 0 266 -8q99 -6 99 -47q0 -20 -45.5 -31.5t-103.5 -11.5z" />
<glyph unicode="&#x202f;" horiz-adv-x="173" />
<glyph unicode="&#x205f;" horiz-adv-x="216" />
<glyph unicode="&#x2122;" horiz-adv-x="600" d="M757 473q-7 -8 -16 -8q-14 0 -23 24t-5 36q4 16 14 50q5 18 3 22q-37 -37 -110 -108q-4 -4 -14 -4q-22 0 -33 52q-2 15 -9 45q-16 -22 -45 -65t-45 -65q-35 2 -35 46q0 16 5 30q9 25 48 76t46 71q3 9 -3 9q-2 0 -91 -7q-24 -95 -41 -141q-26 -71 -45 -71q-14 0 -22 24 t-5 36q2 7 26 69q21 54 21 62q0 2 -1 2q-8 0 -23.5 -9t-29.5 -9q-19 0 -29.5 16t-10.5 36q0 12 3 21q6 16 16 20q4 2 45 12q19 7 54 17q74 13 104 13q28 0 38 -15q6 -9 8 -28q1 -15 6 -15q8 0 14.5 12.5t17.5 12.5q16 0 24 -24.5t4 -35.5q-5 -11 -11 -35q0 -9 4 -24 q5 -18 5 -23q6 4 27 25q49 48 100 101q10 11 22 11q35 0 35 -76q0 -69 -43 -188z" />
<glyph unicode="&#xe000;" horiz-adv-x="800" d="M0 800h800v-800h-800v800z" />
</font>
</defs>
</svg>
