<?xml version="1.0" standalone="no"?>
<!DOCTYPE svg PUBLIC "-//W3C//DTD SVG 1.1//EN" "http://www.w3.org/Graphics/SVG/1.1/DTD/svg11.dtd" >
<svg xmlns="http://www.w3.org/2000/svg">
<metadata></metadata>
<defs>
<font id="elsie_swash_capsregular" horiz-adv-x="1372" >
<font-face units-per-em="2048" ascent="1638" descent="-410" />
<missing-glyph horiz-adv-x="450" />
<glyph unicode="&#x2e;&#x2e;&#x2e;" horiz-adv-x="1267" d="M115 98q0 51 33.5 86t84.5 35t86 -35t35 -86t-35 -84.5t-86 -33.5t-84.5 33.5t-33.5 84.5zM514 98q0 51 34 86t85 35t86 -35t35 -86t-35 -84.5t-86 -33.5t-85 33.5t-34 84.5zM913 98q0 51 34 86t85 35t86 -35t35 -86t-35 -84.5t-86 -33.5t-85 33.5t-34 84.5z" />
<glyph unicode="&#xfb02;" horiz-adv-x="1157" d="M78 911v31h145v139q0 186 60.5 279.5t167.5 93.5q68 0 120 -43q10 2 35 2h70q155 0 285 27v-1409h135v-31h-453v31h135v1351h-180q31 -46 31 -98q0 -68 -44 -107.5t-100 -39.5q-53 0 -88 32.5t-35 87.5q0 53 36 92.5t114 55.5q-27 12 -57 12q-78 0 -118 -54.5t-40 -139.5 q0 -45 14.5 -83.5t33 -62.5t36 -60.5t22.5 -74.5h191v-31h-188v-880h135v-31h-453v31h135v880h-145zM397 1257q0 -37 26 -61.5t62 -24.5q41 0 74 31t33 82q0 60 -39 94q-48 -5 -81.5 -19t-48.5 -33t-20.5 -35t-5.5 -34z" />
<glyph horiz-adv-x="2048" />
<glyph horiz-adv-x="2048" />
<glyph unicode="&#xd;" horiz-adv-x="2048" />
<glyph unicode=" "  horiz-adv-x="450" />
<glyph unicode="&#x09;" horiz-adv-x="450" />
<glyph unicode="&#xa0;" horiz-adv-x="450" />
<glyph unicode="!" horiz-adv-x="575" d="M168 98q0 51 35 86t86 35t85 -35t34 -86t-34 -84.5t-85 -33.5t-86 33.5t-35 84.5zM168 1251q0 50 30.5 85.5t88.5 35.5t88.5 -35.5t30.5 -85.5q0 -38 -16 -118t-35.5 -168t-35.5 -239.5t-16 -315.5h-33q0 164 -16 315.5t-35 239.5t-35 168t-16 118z" />
<glyph unicode="&#x22;" horiz-adv-x="405" d="M82 999v435h39v-435h-39zM272 999v435h39v-435h-39z" />
<glyph unicode="#" horiz-adv-x="1492" d="M145 287v43h320l106 317h-295v43h310l106 309h45l-106 -309h354l107 309h45l-107 -309h299v-43h-313l-107 -317h289v-43h-303l-104 -307h-46l105 307h-354l-105 -307h-45l105 307h-306zM510 330h354l107 317h-355z" />
<glyph unicode="$" horiz-adv-x="905" d="M127 756q0 126 91 205t214 79h4v127h41v-131q52 -7 119 -33t84 -26q46 0 53 63h25v-338h-29q-23 125 -85.5 204t-166.5 93v-362q131 -61 173 -88q132 -85 147 -213q2 -18 2 -37q0 -146 -97 -232.5t-241 -86.5h-2v-107h-41v111q-53 7 -114.5 33t-78.5 26q-26 0 -45 -18 t-22 -45h-27v374h29q10 -68 27 -120.5t46 -100.5t75.5 -77.5t109.5 -37.5v416q-45 21 -72 34.5t-66 36.5t-62 46t-46.5 53.5t-34 68.5t-10.5 83zM264 856q0 -69 44.5 -114.5t127.5 -86.5v349h-4q-68 0 -118 -42.5t-50 -105.5zM459 16h6q86 0 151.5 40t65.5 124 q0 36 -12.5 67t-31 53.5t-50 44.5t-59.5 37t-70 34v-400z" />
<glyph unicode="%" horiz-adv-x="2004" d="M82 936q0 127 47.5 235t140.5 175t213 67q51 0 105 -19t102 -46.5t98 -55t112 -46.5t126 -19q67 0 127.5 16.5t101.5 40.5t75 54.5t51.5 54t27.5 43.5l18 32l35 -14l-866 -1509l-29 18l754 1317q-136 -90 -295 -90q-54 0 -110.5 14t-86.5 28l-30 13q90 -133 90 -309 q0 -126 -48 -233.5t-142 -174.5t-216 -67q-120 0 -213 67t-140.5 174.5t-47.5 233.5zM266 936q0 -438 217 -438q69 0 116 39.5t68.5 109.5t29.5 137t8 152t-8 153t-29.5 138t-68.5 109.5t-116 39.5q-46 0 -82 -18.5t-59 -53t-38.5 -75t-23.5 -93.5t-11 -99.5t-3 -100.5z M1116 434q0 127 48 235t141 175t213 67q92 0 169 -39t128 -105t79.5 -152t28.5 -181q0 -94 -28.5 -179.5t-79.5 -151.5t-128 -105t-169 -39q-120 0 -213 67t-141 174.5t-48 233.5zM1300 434q0 -438 218 -438q47 0 84 18.5t60.5 53t39 74.5t23.5 93t11 99t3 100q0 55 -3 101 t-11 99t-23.5 93.5t-39 75t-60.5 53t-84 18.5q-218 0 -218 -440z" />
<glyph unicode="&#x26;" horiz-adv-x="1353" d="M209 369q0 73 22.5 137.5t61 112t82.5 81.5t94 58l-4 20q-88 27 -137 95t-49 169q0 97 53.5 174t137.5 116.5t179 39.5q76 0 143 -25.5t114.5 -83.5t47.5 -139q0 -62 -40 -103.5t-101 -41.5q-46 0 -80.5 31.5t-34.5 76.5q0 46 27.5 78.5t71.5 32.5q32 0 54.5 -17 t27.5 -40q3 -19 18 -19q7 0 12.5 5.5t5.5 13.5q0 72 -67 129t-150 57q-231 0 -231 -283q0 -98 44 -166.5t128 -68.5q23 0 53.5 7.5t49.5 14.5l20 7l10 -37q-97 -31 -158 -62t-106.5 -77t-64.5 -108.5t-19 -152.5q0 -98 30 -170.5t83 -113.5t118 -60.5t144 -19.5 q55 0 111.5 20.5t104.5 58t78.5 98.5t30.5 134q0 117 -74.5 197t-175.5 80q-107 0 -164 -64t-57 -153q0 -85 51.5 -149t137.5 -64q32 0 61 10t29 28q0 19 -19 19q-3 0 -17 -8t-30 -8q-44 0 -68 28.5t-24 69.5q0 46 29.5 77t83.5 31q53 0 90 -42t37 -91q0 -42 -16.5 -73 t-43.5 -47t-55 -23.5t-57 -7.5q-112 0 -177 76t-65 180q0 145 114 242t296 112q34 3 92 6t90.5 5.5t78 8.5t71.5 17t51.5 29t37 46t11.5 66q0 84 -52.5 132t-121.5 48q-33 0 -62.5 -17t-29.5 -36q0 -7 5 -12.5t13 -5.5t16 8q18 22 52 22q40 0 68 -30.5t28 -69.5 q0 -48 -33 -81.5t-84 -33.5q-56 0 -93.5 40t-37.5 98q0 65 49 110t113 45q86 0 147.5 -62.5t61.5 -166.5q0 -67 -25.5 -120.5t-66 -85t-89 -53.5t-97.5 -31t-89.5 -13.5t-65.5 -4.5l-26 1q139 -104 139 -275q0 -74 -31 -143.5t-88.5 -125.5t-150 -90t-205.5 -34 q-122 0 -217.5 37.5t-150 98.5t-82 131t-27.5 143z" />
<glyph unicode="'" horiz-adv-x="864" d="M362 999v435h39v-435h-39z" />
<glyph unicode="(" horiz-adv-x="866" d="M143 506q0 146 27.5 280.5t86.5 253t143 206t203.5 138t262.5 50.5v-33q-126 0 -226.5 -70t-165 -192t-98.5 -283.5t-34 -349.5q0 -187 34 -348t98.5 -283t165 -192t226.5 -70v-33q-143 0 -262.5 50.5t-203.5 138t-143 205.5t-86.5 252.5t-27.5 279.5z" />
<glyph unicode=")" horiz-adv-x="866" d="M0 -387q126 0 226.5 70t165 192t98.5 283t34 348q0 188 -34 349.5t-98.5 283.5t-165 192t-226.5 70v33q143 0 262.5 -50.5t203.5 -138t143 -206t86.5 -253t27.5 -280.5q0 -145 -27.5 -279.5t-86.5 -252.5t-143 -205.5t-203.5 -138t-262.5 -50.5v33z" />
<glyph unicode="*" horiz-adv-x="671" d="M41 1026q0 45 33 74.5t88 29.5q20 0 57 -4t51 -4q19 0 39 8q-17 -10 -33.5 -44t-29 -68t-40.5 -61t-67 -27q-38 0 -68 27.5t-30 68.5zM41 1260q0 41 30 68.5t68 27.5q39 0 67 -27.5t40.5 -61t29 -68t33.5 -44.5q-15 6 -39 6q-14 0 -51 -3t-57 -3q-55 0 -88 29.5t-33 75.5 zM238 911q0 34 23 71.5t48 70t27 53.5q2 -21 26.5 -53.5t48 -70t23.5 -71.5q0 -41 -28.5 -68.5t-69.5 -27.5t-69.5 27.5t-28.5 68.5zM238 1374q0 40 28.5 69.5t69.5 29.5t69.5 -29.5t28.5 -69.5q0 -34 -23.5 -72t-48 -70.5t-26.5 -51.5q-2 19 -50 84t-48 110zM362 1130 q20 -8 39 -8q15 0 51.5 4t55.5 4q56 0 89.5 -29.5t33.5 -74.5q0 -41 -30.5 -68.5t-68.5 -27.5q-39 0 -67 27t-40.5 61t-29 68t-33.5 44zM362 1155q17 10 33.5 44.5t29 68t40.5 61t67 27.5q38 0 68.5 -27.5t30.5 -68.5q0 -46 -33.5 -75.5t-89.5 -29.5q-19 0 -55.5 3t-51.5 3 q-24 0 -39 -6z" />
<glyph unicode="+" horiz-adv-x="1298" d="M164 463v43h465v465h41v-465h465v-43h-465v-463h-41v463h-465z" />
<glyph unicode="," horiz-adv-x="516" d="M78 94q0 59 42 98t103 39q78 0 128 -47t50 -125q0 -79 -51 -145.5t-129 -110.5l-18 31q69 39 115.5 98t46.5 127q0 60 -36 97t-83 37q-21 0 -21 -19q0 -15 19 -18q23 -5 38 -25.5t15 -52.5q0 -43 -32 -70.5t-77 -27.5q-47 0 -78.5 33t-31.5 81z" />
<glyph unicode="-" horiz-adv-x="632" d="M106 463v43h406v-43h-406z" />
<glyph unicode="." horiz-adv-x="468" d="M115 98q0 51 33.5 86t84.5 35t86 -35t35 -86t-35 -84.5t-86 -33.5t-84.5 33.5t-33.5 84.5z" />
<glyph unicode="/" horiz-adv-x="802" d="M158 -436l399 1900h47l-399 -1900h-47z" />
<glyph unicode="0" horiz-adv-x="1163" d="M170 471q0 137 46 251.5t141.5 187.5t224.5 73q97 0 176.5 -42t130 -113.5t77.5 -163t27 -193.5t-27 -193.5t-77.5 -163t-130 -113.5t-176.5 -42q-129 0 -224.5 73t-141.5 187.5t-46 251.5zM369 471q0 -56 1 -92.5t5.5 -91.5t12.5 -91.5t23.5 -78t37.5 -66t56 -41 t77 -16.5t77 16.5t56 41t37.5 66t23.5 78t12.5 91.5t5.5 91.5t1 92.5t-1 92.5t-5.5 91.5t-12.5 91.5t-23.5 78t-37.5 66t-56 41t-77 16.5t-77 -16.5t-56 -41t-37.5 -66t-23.5 -78t-12.5 -91.5t-5.5 -91.5t-1 -92.5z" />
<glyph unicode="1" horiz-adv-x="862" d="M166 707q116 34 178.5 84.5t81.5 150.5q67 7 111 27v-938h178v-31h-525v31h164v719q-74 -49 -178 -76z" />
<glyph unicode="2" horiz-adv-x="1071" d="M145 0v82q0 59 29.5 109.5t76.5 87.5t103.5 71.5t113.5 70t104 73.5t76.5 90.5t29.5 113.5q0 110 -58 177t-163 67q-63 0 -113 -18t-77.5 -46.5t-41.5 -59.5t-14 -62q0 -8 5.5 -13.5t12.5 -5.5q16 0 19 19q13 57 82 57q45 0 72.5 -29.5t27.5 -74.5q0 -51 -34.5 -83 t-82.5 -32q-61 0 -101 40t-40 101q0 120 89 184t228 64q76 0 143 -15t123.5 -45.5t89 -84t32.5 -123.5q0 -66 -24 -120.5t-64 -91.5t-92 -68t-110 -54t-115.5 -45t-109.5 -46t-92 -51.5t-64 -67t-24 -87.5l13 -6q38 45 94.5 65.5t189.5 20.5h320q45 0 64.5 22.5t21.5 73.5 h24v-260h-764z" />
<glyph unicode="3" horiz-adv-x="1046" d="M113 -186q0 62 40 103.5t101 41.5q46 0 80.5 -32t34.5 -77q0 -46 -27.5 -78t-71.5 -32q-33 0 -55 15t-27 38q-3 19 -18 19q-7 0 -12.5 -5.5t-5.5 -13.5q0 -71 69.5 -128.5t196.5 -57.5q139 0 210.5 100t71.5 256q0 92 -23 169t-78.5 131t-137.5 54q-17 0 -36 -4 t-29.5 -7.5t-35.5 -13.5t-32 -13l-15 34q71 30 129 65.5t109 82.5t79.5 108t28.5 129q0 110 -58 177t-163 67q-63 0 -112.5 -18t-77 -46.5t-41.5 -59.5t-14 -62q0 -8 5.5 -13.5t12.5 -5.5q15 0 18 19q13 57 82 57q45 0 73 -29.5t28 -74.5q0 -51 -34.5 -83t-82.5 -32 q-61 0 -101 40t-40 101q0 120 89 184t228 64q75 0 141 -16t119.5 -48t85 -86t31.5 -124q0 -132 -75 -205.5t-224 -122.5l4 -19q161 0 255.5 -100t94.5 -264q0 -202 -123 -317t-329 -115q-54 0 -103 8.5t-92 28t-74.5 48t-50 70.5t-18.5 93z" />
<glyph unicode="4" horiz-adv-x="1189" d="M76 0v31q492 470 565 911q67 7 111 27v-918h178v-51h-178v-397h-183v397h-493zM154 51h415v543h-10q-69 -141 -178.5 -284.5t-226.5 -250.5v-8z" />
<glyph unicode="5" horiz-adv-x="1091" d="M119 -186q0 62 39.5 101.5t101.5 39.5q48 0 82.5 -32t34.5 -83q0 -45 -28 -74.5t-73 -29.5q-68 0 -81 57q-3 19 -19 19q-7 0 -12.5 -5.5t-5.5 -13.5q0 -71 69.5 -128.5t196.5 -57.5q78 0 134.5 34.5t88 95t46 132t14.5 156.5q0 399 -228 399q-176 0 -297 -197h-30v715 h530q45 0 64.5 22.5t21.5 73.5h25v-260h-607v-465h15q121 152 309 152q185 0 292 -109.5t107 -296.5q0 -228 -117 -360.5t-335 -132.5q-54 0 -103 8.5t-92 28t-74.5 48t-50 70.5t-18.5 93z" />
<glyph unicode="6" horiz-adv-x="1210" d="M186 657q0 331 119 523t344 192q136 0 227 -63t91 -185q0 -62 -40.5 -103.5t-101.5 -41.5q-53 0 -84.5 35.5t-31.5 83.5q0 41 27.5 71.5t74.5 30.5q61 0 80 -55q6 -19 18 -19q7 0 13 6t6 13q0 70 -64 128t-188 58q-55 0 -98.5 -16t-72.5 -41.5t-50 -65.5t-32.5 -78 t-18 -89.5t-8 -90.5t-1.5 -90v-147h6q41 59 108.5 90t137.5 31q174 0 278.5 -113t104.5 -299q0 -129 -51 -234t-147 -167t-220 -62q-96 0 -171 39.5t-122 105t-77.5 157.5t-43 188.5t-12.5 207.5zM395 383q0 -214 48.5 -301.5t166.5 -87.5t169.5 89t51.5 302 q0 217 -49.5 312.5t-165.5 95.5q-77 0 -149 -61.5t-72 -151.5v-197z" />
<glyph unicode="7" horiz-adv-x="980" d="M102 682v258h674q57 0 78.5 21.5t24.5 74.5h36v-24q0 -153 -24 -280t-62.5 -214.5t-85 -163.5t-93 -143.5t-85 -137.5t-62.5 -164t-24 -204q0 -52 -28 -80t-74 -28q-42 0 -70 28.5t-28 81.5q0 139 76.5 268t224.5 265q47 43 87 91.5t67 90.5t49.5 91.5t35 84t23.5 81 t14.5 68.5t9 60.5t6.5 44.5q-2 -5 -5.5 -10t-20.5 -17.5t-40.5 -22t-68.5 -17t-102 -7.5h-387q-58 0 -83 -22t-28 -74h-35z" />
<glyph unicode="8" horiz-adv-x="1148" d="M154 356q0 112 58 215.5t165 167.5q-166 148 -166 312q0 155 105 238t272 83q158 0 247 -91.5t89 -219.5q0 -92 -46 -174t-126 -135q54 -39 93.5 -75.5t75.5 -83t55 -101.5t19 -117q0 -61 -17.5 -120t-53.5 -112.5t-87 -94.5t-124 -65t-158 -24q-120 0 -213 54.5 t-140.5 144.5t-47.5 198zM190 358q0 -152 100.5 -257t262.5 -105q131 0 217 72t86 184q0 56 -27 107t-78.5 97.5t-102 83t-123 86.5t-117.5 87q-101 -53 -159.5 -153.5t-58.5 -201.5zM401 1128q0 -32 8.5 -61.5t28.5 -57.5t37.5 -49t54 -49.5t57 -44t66.5 -47t66 -45.5 q73 45 120.5 119.5t47.5 159.5q0 128 -79 203t-196 75q-93 0 -152 -52.5t-59 -150.5z" />
<glyph unicode="9" horiz-adv-x="1210" d="M180 520q0 129 51 234t147 167t220 62q96 0 171 -39.5t122 -105t77.5 -157.5t43 -188.5t12.5 -207.5q0 -331 -119 -523t-344 -192q-136 0 -226.5 63t-90.5 185q0 62 40 103.5t101 41.5q53 0 85 -35.5t32 -83.5q0 -41 -28 -71.5t-75 -30.5q-61 0 -80 55q-6 19 -18 19 q-7 0 -12.5 -5.5t-5.5 -13.5q0 -70 64 -128t188 -58q55 0 98.5 16t72.5 41.5t50 65.5t32 77.5t17.5 89.5t8 91t1.5 90v147h-6q-41 -59 -108.5 -89.5t-137.5 -30.5q-174 0 -278.5 112.5t-104.5 298.5zM379 557q0 -217 49.5 -312t165.5 -95q77 0 149 61t72 151v197 q0 214 -48.5 301.5t-166.5 87.5t-169.5 -89t-51.5 -302z" />
<glyph unicode=":" horiz-adv-x="468" d="M115 100q0 51 33.5 86t84.5 35t86 -35t35 -86t-35 -84.5t-86 -33.5t-84.5 33.5t-33.5 84.5zM115 844q0 51 33.5 86t84.5 35t86 -35t35 -86t-35 -85t-86 -34t-84.5 34t-33.5 85z" />
<glyph unicode=";" horiz-adv-x="516" d="M78 94q0 59 42 98t103 39q78 0 128 -47t50 -125q0 -79 -51 -145.5t-129 -110.5l-18 31q69 39 115.5 98t46.5 127q0 60 -36 97t-83 37q-21 0 -21 -19q0 -15 19 -18q23 -5 38 -25.5t15 -52.5q0 -43 -32 -70.5t-77 -27.5q-47 0 -78.5 33t-31.5 81zM115 842q0 51 33.5 86 t84.5 35t86 -35t35 -86t-35 -85t-86 -34t-84.5 34t-33.5 85z" />
<glyph unicode="&#x3c;" horiz-adv-x="964" d="M29 451v41l934 346l16 -41l-881 -326l881 -326l-16 -41z" />
<glyph unicode="=" horiz-adv-x="1314" d="M170 295v43h971v-43h-971zM170 633v43h971v-43h-971z" />
<glyph unicode="&#x3e;" horiz-adv-x="1044" d="M4 145l881 326l-881 326l16 41l934 -346v-41l-934 -347z" />
<glyph unicode="?" horiz-adv-x="827" d="M8 1141q0 78 49.5 132t121.5 76.5t159 22.5q85 0 151 -12.5t122 -41.5t86 -83t30 -131q0 -67 -32.5 -126t-80.5 -99.5t-105 -80.5t-105 -71t-80.5 -69t-32.5 -76q0 -62 35.5 -99t95.5 -37q52 0 93 25t65 68l30 -21q-29 -49 -79 -78.5t-113 -29.5q-76 0 -125 47t-49 121 q0 51 28 102.5t68 96t80 91t68 105.5t28 121q0 109 -54 173t-157 64q-70 0 -123 -17.5t-80.5 -45t-41 -55t-13.5 -52.5q0 -8 6 -13t13 -5q15 0 18 18q5 23 27 38t55 15q44 0 71 -32t27 -78q0 -45 -34 -77t-80 -32q-61 0 -101.5 42t-40.5 104zM299 98q0 51 34 86t85 35 t86 -35t35 -86t-35 -84.5t-86 -33.5t-85 33.5t-34 84.5z" />
<glyph unicode="@" horiz-adv-x="1454" d="M102 492q0 172 82 316t225 228t314 84q130 0 245 -44.5t200 -123.5t134.5 -194t49.5 -250q0 -192 -78 -310t-193 -118q-80 0 -125 53t-45 137h-12q-28 -97 -91 -143.5t-175 -46.5q-104 0 -181 56.5t-77 154.5q0 71 34 120t98.5 75.5t141.5 37.5t178 11h47v18 q0 68 -2.5 109t-12.5 87.5t-29.5 71.5t-54.5 41.5t-87 16.5q-111 0 -166 -47.5t-55 -102.5q0 -8 5.5 -13t12.5 -5q16 0 19 18q5 23 27 38t55 15q44 0 71 -32t27 -78q0 -45 -34.5 -77t-80.5 -32q-61 0 -101 42t-40 104q0 74 46 123.5t109 68.5t136 19q48 0 86.5 -3 t70.5 -10.5t56 -16.5t43 -26.5t32 -34.5t22.5 -45.5t14.5 -55t8 -67.5t4 -79t1 -93v-239q0 -105 82 -105q21 0 48 22t54 64t45.5 115t18.5 162q0 165 -79 295t-211.5 200t-291.5 70q-117 0 -223.5 -46t-183 -124.5t-121.5 -185.5t-45 -225q0 -248 154 -408t398 -160 q149 0 277 70l22 -41q-136 -76 -299 -76q-129 0 -240.5 45.5t-190.5 126t-124 195t-45 248.5zM573 313q0 -85 37 -131.5t90 -46.5q85 0 129.5 67t44.5 197v99h-38q-130 0 -196.5 -48.5t-66.5 -136.5z" />
<glyph unicode="A" horiz-adv-x="1302" d="M2 0v33q46 0 83 12t63 32t48.5 53.5t37.5 68t32 84.5l143 413q-81 33 -163 33q-42 0 -84 -14t-75.5 -44.5t-39.5 -72.5q-1 -4 0 -7.5t3 -6.5t5.5 -4.5t7.5 -1.5q15 0 21 16q10 27 34.5 45t61.5 18q45 0 76 -30t31 -82q0 -43 -20.5 -75t-50.5 -47t-64 -15 q-59 0 -103.5 44.5t-44.5 114.5q0 81 69 140t175 59q87 0 174 -34l178 515q9 27 15 41.5t16.5 33t21.5 28t28.5 16t39.5 6.5h6l414 -1339h145v-33h-524v33h151l-40 132q-24 56 -54 111.5t-71 116t-86 112.5t-101.5 98.5t-115.5 76.5l-130 -377q-22 -62 -22 -129 q0 -29 9 -51.5t21.5 -37.5t36.5 -25t44 -15.5t53.5 -8t55.5 -3t60 -0.5h35v-33h-606zM458 716q99 -47 189 -135.5t163 -211.5l-216 708h-12z" />
<glyph unicode="B" horiz-adv-x="1312" d="M106 0v33h150v755q116 -34 266 -34q97 0 169.5 26t114 72.5t61.5 103t20 123.5q0 124 -74.5 187t-210.5 63q-159 0 -256 -76q-30 -23 -47.5 -55t-17.5 -53q0 -19 18 -19q13 0 20 17q10 27 35 45t62 18q45 0 76.5 -32t31.5 -84q0 -63 -41.5 -98.5t-95.5 -35.5 q-59 0 -103 45t-44 115q0 111 107 183.5t282 72.5q225 0 356 -72t131 -215q0 -141 -96 -231t-254 -121v-12q115 -2 202.5 -35.5t142 -106.5t54.5 -180q0 -399 -569 -399h-490zM469 33h96q190 0 280.5 83.5t90.5 268.5q0 92 -27 155t-82.5 99t-130 51t-180.5 15h-47v-672z " />
<glyph unicode="C" horiz-adv-x="1185" d="M106 672q0 108 23.5 210.5t71.5 191.5t114 155.5t157 104.5t196 38q163 0 272 -73.5t109 -182.5q0 -70 -44.5 -115t-103.5 -45q-54 0 -95.5 35.5t-41.5 98.5q0 52 31.5 84t76.5 32q37 0 62 -18t35 -45q7 -17 20 -17q9 0 15 6.5t4 14.5q-10 71 -99.5 127.5t-220.5 56.5 q-53 0 -96.5 -13.5t-76 -34t-57.5 -56.5t-41.5 -70.5t-28.5 -87t-18 -94.5t-9.5 -105t-4 -105.5t-0.5 -109.5q0 -71 3 -130.5t12 -128t24.5 -122.5t41.5 -105t61 -85.5t85.5 -55t112.5 -20.5q172 0 268.5 114.5t110.5 301.5l37 -4q-14 -210 -133 -335.5t-320 -125.5 q-134 0 -241.5 59t-174 159t-102 226.5t-35.5 268.5z" />
<glyph unicode="D" horiz-adv-x="1406" d="M106 0v33h150v868q49 -41 127 -41q22 0 43.5 3.5t31.5 6.5l11 4v-841h125q85 0 151.5 15.5t114.5 43t82 73t55 96.5t33.5 123t16.5 143.5t4 166.5q0 151 -20.5 261.5t-69 197.5t-135.5 131.5t-214 44.5q-176 0 -274 -76q-30 -23 -48 -55t-18 -53q0 -19 19 -19q13 0 20 17 q10 27 35 45t62 18q45 0 76.5 -32t31.5 -84q0 -63 -41.5 -98.5t-95.5 -35.5q-59 0 -103.5 45t-44.5 115q0 111 107 183.5t283 72.5q159 0 282 -38t213 -116.5t137 -206t47 -298.5q0 -352 -161.5 -532.5t-501.5 -180.5h-531z" />
<glyph unicode="E" horiz-adv-x="1116" d="M203 303q0 140 94 244t270 143l-6 19q-148 28 -223.5 111t-75.5 196q0 156 119.5 256t302.5 100q43 0 83.5 -6t82 -21.5t71.5 -39.5t49 -62.5t19 -87.5q0 -75 -43.5 -119.5t-103.5 -44.5q-55 0 -98.5 35t-43.5 98q0 52 34 86.5t79 34.5q60 0 84 -39q5 -9 10 -19.5 t7 -15.5t6.5 -8.5t11.5 -3.5t12.5 5.5t5.5 13.5q0 64 -66 104.5t-145 40.5q-113 0 -192.5 -79t-79.5 -216q0 -138 70 -211.5t182 -73.5q49 0 98 19l12 -37q-407 -119 -407 -406q0 -146 86.5 -224.5t234.5 -78.5q114 0 199.5 62.5t85.5 179.5q0 27 -12 53.5t-27 26.5 q-8 0 -13 -6t-5 -15q0 -2 6 -16.5t6 -36.5q0 -44 -29 -73t-77 -29q-53 0 -89 33.5t-36 93.5q0 59 42 101t101 42q75 0 122.5 -50.5t47.5 -125.5q0 -60 -22.5 -112t-69 -94t-125.5 -66.5t-184 -24.5q-227 0 -344 89.5t-117 254.5z" />
<glyph unicode="F" horiz-adv-x="1130" d="M106 0v33h150v1245q-70 12 -129 35l6 37q134 -50 273 -50q75 0 143.5 11.5t111 25t103.5 24.5t123 11q105 0 164 -53.5t59 -136.5q0 -70 -44 -115t-103 -45q-35 0 -65.5 14t-51.5 45t-21 74q0 53 30.5 85t82.5 32q70 0 90 -64q6 -16 21 -16q18 0 18 18q0 20 -10 40.5 t-30.5 40t-57.5 32t-84 12.5q-64 0 -129.5 -14.5t-139.5 -32t-147 -22.5v-576h88q149 0 203.5 56t54.5 206h35v-563h-35q0 151 -55 209.5t-203 58.5h-88v-624h170v-33h-533z" />
<glyph unicode="G" horiz-adv-x="1353" d="M111 672q0 167 51.5 301.5t141 220.5t208 132t254.5 46q163 0 272 -73.5t109 -182.5q0 -70 -44.5 -115t-103.5 -45q-54 0 -95.5 35.5t-41.5 98.5q0 52 32 84t77 32q73 0 96 -63q7 -17 20 -17q9 0 15 6.5t4 14.5q-10 71 -99.5 127.5t-220.5 56.5q-97 0 -169.5 -30 t-121.5 -85t-79 -139.5t-43 -187t-13 -234.5q0 -71 3 -131t12 -128t24.5 -122.5t41.5 -106t61 -85.5t85.5 -55t112.5 -21q51 0 119 14t111 33v529h-150v32h512v-32h-149v-650q0 -203 -65 -308t-185 -105q-84 0 -137.5 57t-53.5 129q0 70 44.5 115t103.5 45q54 0 94.5 -36.5 t40.5 -100.5q0 -52 -30.5 -82.5t-75.5 -30.5q-37 0 -62 18t-35 45q-7 17 -20 17q-9 0 -14 -6.5t-3 -14.5q7 -51 50.5 -84.5t97.5 -33.5q82 0 122 54t40 140q0 52 -22.5 94.5t-53 86t-41.5 83.5q-14 -4 -73 -21.5t-103.5 -25.5t-97.5 -8q-134 0 -241.5 59t-174 159 t-102 226.5t-35.5 268.5z" />
<glyph unicode="H" horiz-adv-x="1501" d="M-33 279q0 65 14 120t38.5 96t61 73.5t79.5 55t96 39.5v635h-150v33h533v-33h-170v-593q81 9 199 14q31 1 93 3.5t98.5 4t85.5 5t87 8.5v397q0 119 54 176t133 57q102 0 156.5 -70t54.5 -202t-48 -213t-137 -125v-727h170v-33h-532v33h149v671q-32 -5 -67 -8t-73 -5 t-70.5 -3t-76.5 -3t-73 -3q-122 -6 -203 -15v-452q0 -127 -62.5 -191.5t-156.5 -64.5q-128 0 -205.5 83t-77.5 237zM8 291q0 -121 44.5 -191.5t127.5 -70.5q22 0 38 12t23.5 31t11 37t3.5 36v478q-120 -40 -184 -119.5t-64 -212.5zM1245 805q144 85 144 297q0 82 -21 131 t-55 49q-33 0 -50.5 -22.5t-17.5 -85.5v-369z" />
<glyph unicode="I" horiz-adv-x="724" d="M106 0v33h150v1152q-18 -1 -37 -1q-38 0 -108 8v39q70 -8 110 -8q64 0 119 11.5t101.5 35t73 66t26.5 98.5q0 89 -49 131.5t-109 42.5q-68 0 -105.5 -37t-37.5 -76q0 -18 18 -18q15 0 21 16q23 63 94 63q45 0 76.5 -32t31.5 -84q0 -63 -41 -98t-96 -35q-59 0 -103 44.5 t-44 114.5q0 75 50.5 127t135.5 52q78 0 136.5 -55.5t58.5 -149.5q0 -130 -109 -197v-1210h170v-33h-533z" />
<glyph unicode="J" horiz-adv-x="849" d="M-61 96q0 85 51.5 136t126.5 51q70 0 114.5 -44.5t44.5 -103.5q0 -55 -35 -96t-98 -41q-52 0 -84 31.5t-32 76.5q0 72 63 95q16 6 16 20q0 19 -18 19q-39 0 -76 -38t-37 -106q0 -102 72 -167.5t162 -65.5q82 0 139.5 57t57.5 168v1210h-170v33h532v-33h-150v-1062 q0 -106 -32 -188.5t-85 -132t-116.5 -74.5t-132.5 -25q-127 0 -220 76t-93 204z" />
<glyph unicode="K" horiz-adv-x="1368" d="M106 0v33h150v1265h-150v33h533v-33h-170v-596q135 0 247.5 38.5t184 102t111 141t39.5 157.5q0 89 -50 131.5t-110 42.5q-68 0 -105.5 -37t-37.5 -76q0 -18 18 -18q14 0 20 16q23 64 95 64q44 0 76 -32.5t32 -84.5q0 -63 -41 -98t-96 -35q-59 0 -103 45t-44 115 q0 75 50.5 126.5t135.5 51.5q79 0 137.5 -56.5t58.5 -150.5q0 -243 -264 -402l8 -16q57 -4 101.5 -20.5t74.5 -40t51.5 -61t33.5 -73.5t18.5 -88.5t8 -95t1.5 -102.5v-49q0 -74 10 -101.5t35 -27.5q26 0 54 40.5t47 122.5l37 -8q-24 -117 -83.5 -180t-152.5 -63 q-78 0 -121 59.5t-43 183.5v172q0 67 -18.5 117t-47.5 79t-73.5 47t-88.5 24t-100 6q-36 0 -106 -4v-631h170v-33h-533z" />
<glyph unicode="L" horiz-adv-x="1140" d="M106 0v33h150v1265h-150v33h553v-33h-190v-1269q78 -7 202.5 -34.5t178.5 -27.5q112 0 170.5 51t58.5 129q0 65 -38 98.5t-78 33.5q-7 0 -13 -5.5t-6 -13.5q0 -15 14 -18q38 -10 58 -36t20 -59q0 -42 -32.5 -75t-85.5 -33q-63 0 -98.5 41.5t-35.5 95.5q0 59 45 103.5 t115 44.5q69 0 120.5 -50.5t51.5 -126.5q0 -96 -69.5 -156.5t-188.5 -60.5q-67 0 -146 17.5t-178.5 35t-216.5 17.5h-211z" />
<glyph unicode="M" horiz-adv-x="1730" d="M-12 0v33q150 0 209 56t59 204v924q-4 49 -37.5 66t-95.5 17h-92v31h465l341 -746l435 746h373v-33h-170v-1265h170v-33h-533v33h150v1171h-15l-390 -662l46 -100l10.5 -21t22.5 -49.5t28.5 -68.5t22.5 -68t10 -57q0 -53 -26 -91t-65.5 -55.5t-86.5 -17.5q-37 0 -69.5 9 t-59.5 28t-43 52.5t-16 78.5q0 26 11.5 57t23 51.5t42.5 72.5l-397 841h-14v-911q0 -149 56 -204.5t206 -55.5h14v-33h-585zM668 178q0 -21 4.5 -39t14 -32.5t24.5 -22.5t34 -8q13 0 24.5 6t19.5 21t8 36q0 16 -13 53.5t-18 47.5l-39 82q-3 -6 -10 -17t-11.5 -19t-11 -19 t-10.5 -21t-8 -21.5t-6 -23t-2 -23.5z" />
<glyph unicode="N" horiz-adv-x="1355" d="M-45 106q0 55 35 96.5t98 41.5q52 0 84.5 -32t32.5 -77q0 -71 -64 -94q-16 -6 -16 -21q0 -18 18 -18q41 0 77 40t36 122v1042q-56 94 -215 94v31h213q99 0 149 -33.5t101 -119.5l543 -932h12v792q0 149 -56 204.5t-206 55.5h-15v33h586v-33q-150 0 -209 -56t-59 -204 v-1052h-33q-68 0 -109.5 43t-111.5 164l-541 929h-8v-958q0 -99 -51.5 -152t-130.5 -53q-70 0 -115 44t-45 103z" />
<glyph unicode="O" d="M106 672q0 321 164.5 510.5t456.5 189.5q177 0 305.5 -92.5t128.5 -204.5q0 -70 -44 -115t-103 -45q-54 0 -95.5 35.5t-41.5 98.5q0 52 31.5 84t76.5 32q73 0 96 -63q7 -17 21 -17q9 0 14.5 6.5t3.5 14.5q-10 75 -112.5 149t-239.5 74q-97 0 -170 -32.5t-118.5 -88.5 t-73.5 -141t-39 -179.5t-11 -215.5q0 -64 1 -107.5t4 -105.5t9.5 -104.5t18 -94.5t28.5 -87t42 -70.5t56.5 -56.5t75 -34.5t95.5 -13.5q65 0 116 22t85.5 56.5t59 90t37.5 108.5t20.5 128t9.5 132.5t2 136.5q0 94 -2 143q29 -4 72 7t86.5 43.5t52.5 80.5q41 -136 41 -274 q0 -115 -23.5 -220.5t-71.5 -195.5t-116 -156t-162.5 -103.5t-206.5 -37.5t-206.5 37.5t-162.5 103.5t-116 156t-71.5 195.5t-23.5 220.5z" />
<glyph unicode="P" horiz-adv-x="1179" d="M106 0v33h150v870q57 -41 131 -41q22 0 42.5 4t30.5 8l9 5v-267h119q173 0 246 88t73 273q0 358 -295 358q-184 0 -284 -78q-30 -23 -48 -55t-18 -53q0 -19 19 -19q13 0 20 17q23 63 96 63q45 0 77 -32t32 -84q0 -63 -41.5 -98.5t-95.5 -35.5q-59 0 -103.5 45t-44.5 115 q0 110 111.5 183t288.5 73q237 0 376.5 -96.5t139.5 -288.5q0 -221 -121 -314t-363 -93h-184v-547h170v-33h-533z" />
<glyph unicode="Q" d="M106 672q0 112 24 216t73 192t117.5 153t162.5 102t203 37t203 -37t162.5 -102t117.5 -153t73 -192t24 -216q0 -149 -38.5 -278.5t-117.5 -231.5t-190 -154q7 -36 11 -57.5t11.5 -54.5t14 -53t17.5 -46.5t23 -42.5t28.5 -34t35.5 -27.5t44 -16t54 -6.5q35 0 64 12.5 t45.5 31t25.5 38.5t9 37q0 8 -5 13t-14 5q-14 0 -20 -16q-10 -27 -34 -45t-61 -18q-21 0 -40.5 8t-34.5 22.5t-24 37t-9 48.5q0 43 21 74t51 45t65 14q59 0 103.5 -44.5t44.5 -114.5q0 -76 -51.5 -130.5t-135.5 -54.5q-40 0 -74.5 11t-59 25.5t-47.5 43.5t-37 51.5t-30.5 64 t-24.5 65.5t-22 70q-4 14 -6 20q-81 -25 -172 -25q-112 0 -206.5 37.5t-162.5 103.5t-116 156t-71.5 195.5t-23.5 220.5zM356 672q0 -93 2 -154.5t10 -140.5t26.5 -141t47.5 -109q-6 23 -6 47q0 90 54.5 155.5t148.5 65.5q53 0 94.5 -16.5t68.5 -42.5t47.5 -67t32 -80 t22.5 -93q30 37 51.5 90.5t33 106.5t18 123.5t8 125.5t1.5 130q0 79 -2 135.5t-9.5 130.5t-20.5 126t-37.5 106t-59 87.5t-85.5 54.5t-116 21t-116 -21t-85.5 -54.5t-59 -87.5t-37.5 -106t-20.5 -126t-9.5 -130.5t-2 -135.5zM489 133q0 -59 56 -104q60 -31 141 -31 q90 0 154 40q-17 51 -34.5 86t-43 68t-61 49.5t-80.5 16.5q-54 0 -93 -37t-39 -88z" />
<glyph unicode="R" horiz-adv-x="1366" d="M106 0v33h150v870q57 -41 131 -41q22 0 42.5 4t30.5 8l9 5v-170h131q167 0 234 61t67 229q0 332 -289 332q-184 0 -284 -78q-30 -23 -48 -55t-18 -53q0 -19 19 -19q13 0 20 17q23 63 96 63q45 0 77 -32t32 -84q0 -63 -41.5 -98.5t-95.5 -35.5q-59 0 -103.5 45t-44.5 115 q0 110 111.5 183t288.5 73q238 0 373.5 -89t135.5 -265q0 -129 -84.5 -214.5t-236.5 -105.5v-10q79 0 133.5 -16.5t89 -45.5t53.5 -80t26 -110t7 -145v-94q0 -74 10 -101.5t35 -27.5q26 0 54 40.5t47 122.5l36 -8q-24 -117 -83 -180t-152 -63q-73 0 -118.5 60.5t-45.5 182.5 v135q0 174 -69 246t-216 72h-147v-643h170v-33h-533z" />
<glyph unicode="S" horiz-adv-x="1032" d="M49 260q0 70 44.5 115t103.5 45q55 0 96 -35t41 -98q0 -52 -32 -84.5t-77 -32.5q-37 0 -62.5 18t-35.5 45q-7 17 -21 17q-18 0 -18 -21q0 -14 14 -51q34 -85 130.5 -132.5t211.5 -47.5q66 0 126 16.5t109 49.5t78 87.5t29 124.5q0 60 -23.5 108.5t-63.5 82t-92 61.5 t-109.5 52.5t-115 50.5t-109.5 59.5t-92 75t-63.5 102.5t-23.5 136q0 113 57.5 198t152 127.5t212.5 42.5q161 0 261 -73t100 -183q0 -70 -44.5 -115t-103.5 -45q-54 0 -95.5 35.5t-41.5 98.5q0 52 31.5 84t76.5 32q37 0 62 -18t35 -45q7 -17 20 -17q9 0 15 6.5t4 14.5 q-10 73 -91 129.5t-210 56.5q-115 0 -200 -66.5t-85 -172.5q0 -60 23.5 -108.5t63.5 -82t92 -61.5t109.5 -52.5t115 -50t109.5 -59t92 -75t63.5 -102.5t23.5 -136q0 -81 -27.5 -149t-74 -115t-108.5 -80t-130 -48.5t-139 -15.5q-109 0 -201 33t-152.5 103.5t-60.5 164.5z " />
<glyph unicode="T" horiz-adv-x="1007" d="M-111 1276q0 79 57.5 128.5t143.5 49.5q57 0 124 -17.5t156.5 -51t118.5 -42.5q108 -33 162.5 -48.5t133.5 -31.5t135 -16q120 0 188 62t68 147q0 60 -37.5 97.5t-75.5 37.5q-19 0 -19 -18q0 -14 17 -21q63 -23 63 -94q0 -45 -32 -76.5t-84 -31.5q-63 0 -98.5 41.5 t-35.5 95.5q0 59 45 103t115 44q79 0 128.5 -52.5t49.5 -123.5q0 -46 -17.5 -89.5t-51.5 -80t-91.5 -58.5t-131.5 -22q-108 0 -265 45v-1220h170v-33h-532v33h149v1286l-34 12q-21 7 -72.5 25.5t-84 29.5t-78 21t-81.5 10q-68 0 -110 -31q-50 -38 -50 -81q0 -19 19 -19 q13 0 20 17q23 63 95 63q44 0 76 -32.5t32 -84.5q0 -63 -41 -98t-96 -35q-59 0 -103.5 45t-44.5 115z" />
<glyph unicode="U" horiz-adv-x="1312" d="M88 1298v33h533v-33h-170v-667q0 -105 2.5 -166t11.5 -144.5t30 -130.5t56 -94t92 -67.5t135 -20.5q86 0 154 44.5t112 120.5t73 183t41.5 225t12.5 253q0 140 -24.5 245.5t-81 170.5t-139.5 65q-68 0 -106 -37t-38 -76q0 -18 19 -18q14 0 20 16q23 64 94 64 q45 0 77 -32.5t32 -84.5q0 -63 -41 -98t-96 -35q-59 0 -103.5 45t-44.5 115q0 72 51 125t130 53q59 0 106 -22t78 -61.5t52.5 -88t33 -110t16 -117.5t4.5 -119q0 -81 -4 -155t-16.5 -165t-33 -166.5t-57 -149.5t-84.5 -125t-118.5 -82.5t-157.5 -31.5q-115 0 -202 33 t-143.5 90.5t-91.5 143.5t-49.5 184t-14.5 221v667h-150z" />
<glyph unicode="V" horiz-adv-x="993" d="M-102 1298v33h532v-33h-151l307 -1056h12l297 868q14 44 14 72q0 58 -34 92.5t-68 34.5q-19 0 -19 -19q0 -13 17 -20q63 -23 63 -94q0 -45 -32 -77t-84 -32q-63 0 -98.5 41.5t-35.5 95.5q0 59 45 103.5t115 44.5q77 0 123.5 -49t46.5 -121q0 -36 -14 -76l-350 -1022 q-12 -34 -19.5 -51t-21.5 -37t-33.5 -28.5t-46.5 -8.5h-6l-414 1339h-145z" />
<glyph unicode="W" horiz-adv-x="1671" d="M-102 1298v33h532v-33h-151l307 -1056h12l231 704l-108 352h-146v33h533v-33h-152l308 -1056h12l297 868q14 44 14 72q0 58 -34 92.5t-68 34.5q-19 0 -19 -19q0 -13 17 -20q63 -23 63 -94q0 -45 -32 -77t-84 -32q-63 0 -98.5 41.5t-35.5 95.5q0 59 45 103.5t115 44.5 q77 0 123.5 -49t46.5 -121q0 -36 -14 -76l-350 -1022q-12 -34 -19.5 -51t-21.5 -37t-33.5 -28.5t-46.5 -8.5h-6l-285 922l-266 -797q-12 -34 -19.5 -51t-21.5 -37t-33.5 -28.5t-46.5 -8.5h-6l-414 1339h-145z" />
<glyph unicode="X" horiz-adv-x="1378" d="M59 143q0 63 41.5 107.5t102.5 44.5q54 0 94.5 -34t40.5 -99q0 -43 -33 -75t-80 -32q-32 0 -55 17.5t-29 17.5q-7 0 -12.5 -5t-5.5 -13q0 -16 32.5 -37t67.5 -21q33 0 62.5 12.5t47.5 26.5t37.5 39.5t25.5 36.5l18 33l244 457l-396 679h-149v33h557v-33h-170l265 -455 l193 361q36 68 89.5 108t119.5 40q64 0 116 -45.5t52 -120.5q0 -64 -41 -108t-102 -44q-54 0 -94.5 34t-40.5 99q0 43 32.5 75t79.5 32q32 0 55 -17.5t29 -17.5q8 0 13.5 5.5t5.5 12.5q0 16 -33 37t-68 21q-33 0 -62.5 -12.5t-47 -26t-37 -40t-25.5 -36.5t-18 -33l-194 -361 l450 -773h170v-33h-557v33h149l-320 549l-243 -457q-36 -68 -89.5 -108t-119.5 -40q-63 0 -115.5 46t-52.5 120z" />
<glyph unicode="Y" horiz-adv-x="1171" d="M2 1298v33h549v-33h-170l332 -666l270 376q2 3 12.5 18.5t15.5 23.5t14 25.5t13.5 31.5t8.5 34t4 41q0 58 -34.5 92.5t-68.5 34.5q-18 0 -18 -19q0 -14 16 -20q64 -23 64 -94q0 -45 -32.5 -77t-84.5 -32q-63 0 -98 41t-35 96q0 59 45 103.5t115 44.5q77 0 123.5 -49 t46.5 -121q0 -91 -66 -181l-293 -408v-560h170v-33h-532v33h149v542l-366 723h-150z" />
<glyph unicode="Z" horiz-adv-x="1163" d="M31 35l807 1253q-126 3 -256 24t-209 21q-115 0 -182.5 -46.5t-67.5 -104.5q0 -7 5 -13t13 -6q15 0 21 19q8 30 36.5 46.5t59.5 16.5q45 0 79 -33t34 -86q0 -63 -41.5 -98t-96.5 -35q-60 0 -106.5 45.5t-46.5 114.5q0 102 82.5 159.5t212.5 57.5q78 0 216.5 -22.5 t295.5 -22.5q82 0 196 6v-31l-792 -1230h45q104 0 207 -19t185.5 -38t135.5 -19q112 0 171 51t59 129q0 65 -38 98t-79 33q-8 0 -13.5 -5.5t-5.5 -12.5q0 -16 15 -19q38 -10 58 -36t20 -58q0 -42 -33 -75t-86 -33q-63 0 -98 41t-35 96q0 59 44.5 103t114.5 44t121 -50 t51 -126q0 -96 -71.5 -156.5t-192.5 -60.5q-60 0 -145 19t-189.5 38t-212.5 19q-114 0 -264 -29z" />
<glyph unicode="[" horiz-adv-x="626" d="M176 -358v1689h451v-33h-238v-1624h238v-32h-451z" />
<glyph unicode="\" horiz-adv-x="604" d="M-104 1460h43l598 -1693h-45z" />
<glyph unicode="]" horiz-adv-x="626" d="M0 -326h238v1624h-238v33h451v-1689h-451v32z" />
<glyph unicode="^" horiz-adv-x="976" d="M176 305l340 656h23l344 -658l-33 -18l-322 608l-321 -608z" />
<glyph unicode="_" horiz-adv-x="897" d="M-53 -397h1011v-43h-1011v43z" />
<glyph unicode="`" horiz-adv-x="720" d="M94 1325q0 31 19.5 49.5t50.5 18.5q47 0 94 -56q16 -22 44 -52.5t57.5 -60t79 -64.5t108.5 -66l-15 -31l-368 172q-37 16 -53.5 35.5t-16.5 54.5z" />
<glyph unicode="a" horiz-adv-x="1075" d="M90 225q0 66 26.5 116.5t75.5 81.5t106.5 51.5t133 29.5t140 11.5t141.5 0.5v100q0 80 -11.5 136.5t-39 101t-77.5 66.5t-124 22q-70 0 -123 -17.5t-80.5 -45t-41 -55t-13.5 -52.5q0 -8 5.5 -13t12.5 -5q16 0 19 18q5 23 27 38t55 15q44 0 71 -32t27 -78q0 -45 -34.5 -77 t-80.5 -32q-61 0 -101 42t-40 104q0 78 49.5 132t121.5 76.5t159 22.5q85 0 148 -12t107.5 -40t72.5 -65.5t44.5 -95.5t22.5 -123t6 -155v-363q0 -84 37 -84t63 65.5t37 170.5l37 -5q-30 -317 -207 -317q-39 0 -64.5 19t-37 55t-15.5 70.5t-4 82.5h-12q-27 -108 -108 -167.5 t-195 -59.5q-93 0 -167.5 28t-121.5 89.5t-47 148.5zM289 233q0 -99 47 -158t139 -59q79 0 134.5 48t79.5 119.5t24 158.5v137q-73 2 -129.5 -1.5t-114.5 -18.5t-95.5 -41.5t-61 -73t-23.5 -111.5z" />
<glyph unicode="b" horiz-adv-x="1167" d="M68 1382v31h43q154 0 284 27v-684h13q37 104 109 165.5t173 61.5q76 0 138 -27.5t103.5 -75t69 -112.5t40 -137.5t12.5 -153.5q0 -85 -12.5 -159.5t-41.5 -141t-72 -114t-107 -75.5t-144 -28q-90 0 -160 43.5t-108 124.5h-13v-127h-317v31h135v1351h-145zM391 399 q0 -74 13.5 -139.5t42.5 -121.5t79.5 -89t118.5 -33q47 0 83.5 19.5t58.5 57.5t36 79t20.5 99t8.5 102t2 104q0 47 -1.5 86t-7 87t-14.5 85.5t-25 74.5t-38 61.5t-54.5 39.5t-72.5 15q-61 0 -111 -46t-79 -116.5t-44.5 -146.5t-15.5 -144v-74z" />
<glyph unicode="c" horiz-adv-x="940" d="M115 471q0 236 112 374t332 138q142 0 230 -61.5t88 -186.5q0 -62 -40.5 -103.5t-101.5 -41.5q-46 0 -80 31.5t-34 76.5q0 46 27 78.5t71 32.5q33 0 55 -15t27 -38q3 -19 18 -19q7 0 13 5.5t6 13.5q0 31 -14 62t-41.5 59.5t-77.5 46.5t-113 18q-279 0 -279 -459 q0 -467 283 -467q107 0 175 78t95 201l37 -4q-30 -151 -122.5 -241.5t-233.5 -90.5q-210 0 -321 142t-111 370z" />
<glyph unicode="d" horiz-adv-x="1157" d="M115 465q0 85 12.5 159.5t41.5 141t72 114t107 75.5t144 28q90 0 160 -43.5t108 -124.5h12v567h-145v31h43q154 0 284 27v-1409h136v-31h-318v186h-12q-37 -104 -109.5 -165.5t-173.5 -61.5q-95 0 -166.5 41.5t-113 114t-62 160.5t-20.5 190zM313 465q0 -47 1.5 -86 t7 -87t14.5 -85.5t25 -74.5t38 -61.5t54.5 -39.5t72.5 -15q61 0 111 46t79 116.5t44.5 146.5t15.5 144v74q0 74 -13.5 139.5t-42.5 121.5t-79.5 89t-118.5 33q-47 0 -83.5 -19.5t-58.5 -57.5t-36 -79t-20.5 -99t-8.5 -102t-2 -104z" />
<glyph unicode="e" horiz-adv-x="1003" d="M109 471q0 231 119 371.5t337 140.5q72 0 135 -15t114.5 -45.5t81.5 -82.5t30 -119q0 -53 -16.5 -94.5t-42.5 -69.5t-68 -48.5t-83.5 -32t-99 -18t-104.5 -8t-109 -1.5h-96v-60q0 -80 16 -145.5t48.5 -117.5t88 -81t130.5 -29q118 0 193.5 78t105.5 201l37 -4 q-34 -151 -132.5 -241.5t-250.5 -90.5q-213 0 -323.5 140.5t-110.5 371.5zM307 485h72q66 0 114.5 5t95 20t75 40.5t46 68.5t17.5 102q0 103 -44 165t-136 62q-67 0 -116 -36t-75 -97t-37.5 -128.5t-11.5 -143.5v-58z" />
<glyph unicode="f" horiz-adv-x="636" d="M78 911v31h145v139q0 189 62.5 281t175.5 92q72 0 120 -48.5t48 -117.5q0 -62 -41 -108.5t-101 -46.5q-52 0 -85 31t-33 81q0 43 27 75t71 32q40 0 62 -20.5t22 -51.5q0 -3 -1 -11t-1 -12q0 -16 16 -16q27 0 27 51q0 52 -36.5 88.5t-92.5 36.5q-83 0 -124.5 -53 t-41.5 -141q0 -45 14.5 -83.5t33 -62.5t36 -60.5t22.5 -74.5h191v-31h-188v-880h135v-31h-453v31h135v880h-145z" />
<glyph unicode="g" horiz-adv-x="1048" d="M94 -61q0 91 72 158.5t178 103.5q-98 52 -153.5 148.5t-55.5 219.5q0 180 113.5 297t290.5 117q65 0 145 -25l4 5q-49 55 -49 129q0 78 50 125t128 47q61 0 103.5 -39.5t42.5 -98.5q0 -48 -32 -81t-79 -33q-45 0 -77 27.5t-32 70.5q0 32 15.5 52.5t38.5 25.5q18 3 18 18 q0 19 -20 19q-47 0 -83 -36.5t-36 -96.5q0 -107 96 -179q80 -60 125 -148t45 -196q0 -180 -113 -297.5t-290 -117.5q-84 0 -154 28q-76 -23 -134 -66t-58 -100q0 -51 38.5 -74.5t98.5 -23.5q62 0 221 60.5t221 60.5q95 0 149 -54t54 -149q0 -148 -114.5 -232.5t-278.5 -84.5 q-126 0 -218.5 61t-136.5 174q-64 13 -98.5 62t-34.5 123zM272 -250q30 -92 118 -145.5t192 -53.5q115 0 205 52t90 147q0 55 -35.5 87t-91.5 32q-62 0 -238 -59.5t-238 -59.5h-2zM324 569q0 -54 2.5 -96t10 -88.5t22.5 -80t38 -61.5t59 -42.5t83 -14.5t83 14.5t59 42.5 t38 61.5t22.5 80t10 88.5t2.5 96t-2.5 95.5t-10 88.5t-22.5 79.5t-38 61t-59 42.5t-83 14t-83 -14t-59 -42.5t-38 -61t-22.5 -79.5t-10 -88.5t-2.5 -95.5z" />
<glyph unicode="h" horiz-adv-x="1204" d="M72 1382v31h43q156 0 288 27v-676h13q34 98 117 158.5t186 60.5q93 0 155 -29t95 -87t46 -130t13 -174v-532h135v-31h-452v31h135v504v58t-1.5 58t-4.5 60t-8.5 54.5t-14 52.5t-21 43t-28.5 35.5t-38.5 21t-49.5 8.5q-67 0 -118.5 -33t-81.5 -84t-49 -123t-25.5 -140 t-6.5 -145v-370h136v-31h-453v31h135v1351h-145z" />
<glyph unicode="i" horiz-adv-x="606" d="M76 911v31h43q154 0 284 27v-938h136v-31h-453v31h135v880h-145zM186 1251q0 51 34 86t85 35t86 -35t35 -86t-35 -84.5t-86 -33.5t-85 33.5t-34 84.5z" />
<glyph unicode="j" horiz-adv-x="587" d="M2 -315q0 62 40.5 108.5t100.5 46.5q53 0 86 -31.5t33 -80.5q0 -43 -27 -75t-71 -32q-40 0 -62 20.5t-22 51.5q0 3 1 10.5t1 11.5q0 6 -4.5 11.5t-11.5 5.5q-27 0 -27 -51q0 -55 42 -90t103 -35q156 0 156 194q0 48 -17 92.5t-37.5 73.5t-37.5 73.5t-17 92.5v829h-145v31 h43q155 0 285 27v-1078q0 -372 -230 -372q-78 0 -130 47t-52 119zM188 1251q0 51 34 86t85 35t86 -35t35 -86t-35 -84.5t-86 -33.5t-85 33.5t-34 84.5z" />
<glyph unicode="k" horiz-adv-x="1007" d="M68 1382v31h43q154 0 284 27v-891q63 9 113.5 19.5t108 31t95.5 47t63.5 69t25.5 95.5q0 61 -32.5 98t-78.5 37q-20 0 -20 -18q0 -16 18 -19q23 -5 38 -26t15 -54q0 -43 -31.5 -70.5t-76.5 -27.5q-47 0 -79 33.5t-32 81.5q0 59 42.5 98t103.5 39q77 0 122.5 -46.5 t45.5 -125.5q0 -170 -213 -246v-4q83 -4 135.5 -26t79 -67.5t35 -99t8.5 -139.5v-77q0 -79 13 -112.5t50 -33.5q16 0 37 6l4 -24q-56 -15 -111 -15q-176 0 -176 203v111q0 250 -159 250h-13q-5 0 -23 -3.5t-49 -9.5t-59 -10v-483h135v-31h-452v31h135v1351h-145z" />
<glyph unicode="l" horiz-adv-x="595" d="M72 1382v31h43q154 0 284 27v-1409h136v-31h-453v31h135v1351h-145z" />
<glyph unicode="m" horiz-adv-x="1781" d="M72 911v31h43q156 0 288 27v-205h13q34 99 114.5 159t182.5 60q129 0 197 -55.5t91 -163.5h13q34 99 114.5 159t182.5 60q75 0 128.5 -20t85.5 -54t50.5 -89.5t24.5 -114.5t6 -142v-532h135v-31h-453v31h135v579q0 45 -1.5 77t-6 72t-15 67t-26.5 51.5t-42 36.5t-60 12 q-275 0 -275 -525v-370h136v-31h-443v31h135v579q0 45 -1.5 77t-6 72t-15 67t-26.5 51.5t-42 36.5t-60 12q-275 0 -275 -525v-370h136v-31h-453v31h135v880h-145z" />
<glyph unicode="n" horiz-adv-x="1204" d="M72 911v31h43q156 0 288 27v-205h13q34 98 117 158.5t186 60.5q93 0 155 -29t95 -87t46 -130t13 -174v-532h135v-31h-452v31h135v504v58t-1.5 58t-4.5 60t-8.5 54.5t-14 52.5t-21 43t-28.5 35.5t-38.5 21t-49.5 8.5q-67 0 -118.5 -33t-81.5 -84t-49 -123t-25.5 -140 t-6.5 -145v-370h136v-31h-453v31h135v880h-145z" />
<glyph unicode="o" horiz-adv-x="1118" d="M109 471q0 147 51 261.5t154 182.5t245 68t245.5 -68t154.5 -182.5t51 -261.5t-51 -261.5t-154.5 -182.5t-245.5 -68t-245 68t-154 182.5t-51 261.5zM307 471q0 -64 3 -114.5t11.5 -109t26.5 -101t44.5 -78.5t69 -55t97.5 -19t97.5 19t69 55t44.5 78.5t26.5 101t11.5 109 t3 114.5t-3 114.5t-11.5 109t-26.5 101t-44.5 78.5t-69 55t-97.5 19t-97.5 -19t-69 -55t-44.5 -78.5t-26.5 -101t-11.5 -109t-3 -114.5z" />
<glyph unicode="p" horiz-adv-x="1161" d="M61 911v31h43q155 0 285 27v-213h12q37 104 109.5 165.5t173.5 61.5q76 0 138 -27.5t103.5 -75t69 -112.5t40 -137.5t12.5 -153.5q0 -85 -12.5 -159.5t-41.5 -141t-72 -114t-107 -75.5t-144 -28q-90 0 -160.5 43.5t-108.5 124.5h-12v-537h135v-30h-452v30h135v1321h-146z M385 399q0 -74 13.5 -139.5t42.5 -121.5t79.5 -89t118.5 -33q47 0 83.5 19.5t58.5 57.5t36 79t20.5 99t8.5 102t2 104q0 47 -1.5 86t-7 87t-14.5 85.5t-25 74.5t-38 61.5t-54.5 39.5t-72.5 15q-61 0 -111 -46t-79 -116.5t-44.5 -146.5t-15.5 -144v-74z" />
<glyph unicode="q" horiz-adv-x="1161" d="M115 465q0 85 12.5 159.5t41.5 141t72 114t107 75.5t144 28q90 0 160 -43.5t108 -124.5h12v154q130 -27 285 -27h43v-31h-146v-1321h136v-30h-453v30h135v596h-12q-37 -104 -109.5 -165.5t-173.5 -61.5q-95 0 -166.5 41.5t-113 114t-62 160.5t-20.5 190zM313 465 q0 -47 1.5 -86t7 -87t14.5 -85.5t25 -74.5t38 -61.5t54.5 -39.5t72.5 -15q61 0 111 46t79 116.5t44.5 146.5t15.5 144v74q0 74 -13.5 139.5t-42.5 121.5t-79.5 89t-118.5 33q-47 0 -83.5 -19.5t-58.5 -57.5t-36 -79t-20.5 -99t-8.5 -102t-2 -104z" />
<glyph unicode="r" horiz-adv-x="835" d="M76 911v31h43q159 0 289 27v-213h12q85 227 258 227q76 0 124 -47.5t48 -128.5q0 -61 -40 -103t-101 -42q-46 0 -80.5 31.5t-34.5 76.5q0 46 27 78.5t71 32.5q33 0 55 -15.5t27 -38.5q3 -18 19 -18q7 0 12.5 5t5.5 13q0 53 -39 88t-94 35q-61 0 -110 -35.5t-79 -91.5 t-50 -129t-28 -143t-8 -139v-381h150v-31h-467v31h135v880h-145z" />
<glyph unicode="s" horiz-adv-x="972" d="M127 190q0 62 40 104t101 42q46 0 80.5 -32t34.5 -77q0 -46 -27 -78t-71 -32q-33 0 -55 15t-27 38q-3 18 -19 18q-7 0 -12.5 -5t-5.5 -13q0 -61 68 -115.5t204 -54.5q297 0 297 193q0 50 -31.5 88t-82.5 63t-112 48t-122.5 49t-112.5 58t-82.5 83t-31.5 118 q0 130 103.5 206.5t248.5 76.5q64 0 117.5 -10.5t98.5 -34t70 -66t25 -100.5q0 -62 -40 -103.5t-101 -41.5q-46 0 -80.5 31.5t-34.5 76.5q0 46 27.5 78.5t71.5 32.5q33 0 55 -15t27 -38q3 -19 18 -19q7 0 12.5 5.5t5.5 13.5q0 57 -56 103t-183 46q-66 0 -121 -16.5t-94 -57 t-39 -98.5q0 -44 24.5 -79t65 -58t92.5 -45.5t105.5 -40.5t105.5 -45t92.5 -57t65 -77t24.5 -106q0 -79 -31 -138.5t-86 -95t-124.5 -52.5t-153.5 -17q-69 0 -128.5 13t-109 39.5t-78 72t-28.5 106.5z" />
<glyph unicode="t" horiz-adv-x="673" d="M72 911v31h14q120 0 191.5 71t95.5 199h26v-270h248v-31h-248v-696q0 -63 1 -92t6.5 -59t17 -40t31.5 -10q52 0 99.5 59t78.5 130l33 -13q-38 -97 -104 -164t-152 -67q-51 0 -87.5 15.5t-56.5 39t-31.5 65.5t-14.5 81.5t-3 99.5v651h-145z" />
<glyph unicode="u" horiz-adv-x="1226" d="M72 911v31h43q154 0 284 27v-561v-58t1.5 -58t4 -60t8 -55t12.5 -53t19 -43t26.5 -35.5t35 -21t45.5 -8.5q67 0 118.5 33t81 84t48.5 123t25.5 140t6.5 145v370h-145v31h43q155 0 285 27v-938h135v-31h-322v178h-12q-34 -98 -117 -158.5t-186 -60.5q-73 0 -126.5 20.5 t-85.5 55t-51 89.5t-25.5 114.5t-6.5 140.5v532h-145z" />
<glyph unicode="v" horiz-adv-x="1034" d="M18 911v31h43q157 0 289 27v-125q0 -137 13.5 -269t42 -253.5t81.5 -196t123 -74.5q68 0 136.5 91t112.5 233t44 280q0 58 -8 106.5t-25.5 92t-50 68t-78.5 24.5q-20 0 -20 -18q0 -16 18 -19q25 -5 41.5 -25t16.5 -53q-1 -44 -32 -70t-77 -26q-49 0 -81 32.5t-32 80.5 q0 59 43.5 97t104.5 38q217 0 217 -319q0 -168 -54 -331t-147.5 -268.5t-197.5 -105.5q-173 0 -275 230t-102 608v114h-146z" />
<glyph unicode="w" horiz-adv-x="1636" d="M18 911v31h43q157 0 289 27v-125q0 -137 13.5 -269t42 -253.5t81.5 -196t123 -74.5q60 0 118 72.5t99 189.5q-55 198 -55 484v114h-145v31h43q156 0 288 27v-125q0 -137 13.5 -269t42.5 -253.5t82 -196t123 -74.5q67 0 132.5 91.5t105.5 232.5t40 280q0 58 -7.5 107 t-24.5 93.5t-49.5 69.5t-78.5 25q-20 0 -20 -18q0 -16 18 -19q24 -5 40 -26.5t16 -55.5q-1 -44 -32 -70t-77 -26q-49 0 -81 32.5t-32 80.5q0 59 43.5 97t104.5 38q217 0 217 -319q0 -169 -50.5 -331t-140.5 -268t-194 -106q-98 0 -175.5 78t-127.5 221 q-55 -136 -134.5 -217.5t-170.5 -81.5q-173 0 -275 230t-102 608v114h-146z" />
<glyph unicode="x" horiz-adv-x="983" d="M2 104q0 48 32 81.5t79 33.5q45 0 76.5 -27.5t31.5 -70.5q0 -27 -11 -45.5t-24.5 -26t-24.5 -15t-11 -14.5q0 -18 20 -18q17 0 33 8t33.5 28t31.5 38t32 54l29.5 59t31.5 70t29 69.5t30 74.5q13 33 20 50l-141 321q-15 33 -26 52.5t-32.5 38t-47.5 18.5q-23 0 -39.5 -16 t-24 -33.5t-16.5 -47.5l-33 11q14 73 62 122.5t114 49.5q72 0 128.5 -53t92.5 -134l49 -112q68 162 123 233.5t139 71.5q61 0 103.5 -39t42.5 -98q0 -48 -32 -81.5t-79 -33.5q-45 0 -76.5 27.5t-31.5 70.5q0 27 11 45.5t24.5 26t24.5 15t11 14.5q0 18 -20 18 q-54 0 -105.5 -83t-113.5 -234l203 -455q15 -33 26 -52.5t32.5 -38t47.5 -18.5q23 0 39.5 16t24 33.5t16.5 47.5l33 -11q-14 -73 -62 -122.5t-114 -49.5q-72 0 -129 53t-93 134l-108 243q-91 -219 -122 -277q-64 -122 -137 -149q-27 -10 -57 -10q-61 0 -103 39t-42 98z" />
<glyph unicode="y" horiz-adv-x="983" d="M8 911v31h43q157 0 289 27v-125q0 -188 29.5 -331.5t90 -227.5t146.5 -84q33 0 73 22.5t78.5 65t70.5 97.5t51.5 125.5t19.5 143.5q0 100 -29 177t-90 102q-20 10 -47 10q-26 0 -26 -18q0 -16 18 -19q24 -5 39.5 -26.5t15.5 -55.5q-2 -46 -29.5 -74t-78.5 -28 q-48 0 -80.5 35.5t-32.5 83.5q0 63 45 102t109 39q77 0 129 -45.5t73 -114.5t21 -159q0 -161 -70 -292t-200 -218q-8 -5 -39 -25.5t-43 -28.5t-40.5 -28.5t-41.5 -32t-37 -33t-35.5 -37t-27.5 -39t-23.5 -44t-13 -46t-5.5 -51.5q0 -102 51 -164.5t115 -62.5q21 0 21 18 q0 16 -19 19q-23 5 -38 27t-15 55q0 43 32 70.5t77 27.5q47 0 78.5 -33.5t31.5 -81.5q0 -60 -42.5 -100.5t-102.5 -40.5q-102 0 -163.5 72.5t-61.5 187.5q0 173 180 305l-2 8q-65 4 -125.5 49t-111 128t-81 219t-30.5 305v114h-146z" />
<glyph unicode="z" horiz-adv-x="942" d="M72 2l565 909q-13 2 -85 14.5t-122.5 18.5t-89.5 6q-82 0 -138.5 -34t-56.5 -103q0 -8 6 -13t13 -5q15 0 18 18q5 23 27 38t55 15q44 0 71 -32t27 -78q0 -45 -34 -77t-80 -32q-61 0 -101.5 42.5t-40.5 103.5q0 96 65.5 143t168.5 47q76 0 197.5 -21.5t197.5 -21.5 q63 0 121 14l8 -14l-567 -909h2q260 -39 328 -39q64 0 114.5 14t85.5 51t35 93q0 8 -5.5 13t-12.5 5q-16 0 -19 -18q-5 -23 -27 -38.5t-55 -15.5q-44 0 -71 32.5t-27 78.5q0 45 34.5 76.5t80.5 31.5q61 0 101 -42t40 -103q0 -75 -39 -123.5t-98 -68t-137 -19.5 q-76 0 -213 21.5t-213 21.5q-63 0 -121 -14z" />
<glyph unicode="{" horiz-adv-x="458" d="M0 -51q0 73 23.5 131.5t57.5 94t67.5 65t57 62t23.5 67.5q0 102 -153 102v31q153 0 153 102q0 30 -17 58.5t-42.5 50.5t-55 52.5t-55 63t-42.5 84t-17 113.5q0 98 35 173t98 121.5t145 69.5t181 23v-33q-61 0 -103 -10q-57 -14 -94 -56t-50 -91.5t-13 -110.5 q0 -70 14.5 -136.5t32.5 -109.5t32.5 -94.5t14.5 -95.5q0 -73 -26.5 -120t-98.5 -69v-2q72 -22 98.5 -68.5t26.5 -119.5q0 -44 -14.5 -95.5t-32.5 -93.5t-32.5 -108.5t-14.5 -136.5q0 -61 13 -111t50 -92.5t94 -56.5q46 -11 103 -11v-32q-99 0 -181 23.5t-145 70t-98 122 t-35 173.5z" />
<glyph unicode="|" horiz-adv-x="741" d="M348 -420v1893h45v-1893h-45z" />
<glyph unicode="}" horiz-adv-x="458" d="M0 -408q56 0 102 11q44 10 75.5 36t49 62.5t25.5 76t8 83.5q0 70 -14.5 136.5t-32.5 109.5t-32.5 94.5t-14.5 95.5q0 73 26.5 119.5t98.5 68.5v2q-72 22 -98.5 69t-26.5 120q0 44 14.5 95.5t32.5 93.5t32.5 108.5t14.5 136.5q0 44 -8 84t-25.5 76.5t-49 63t-75.5 36.5 q-42 10 -102 10v33q99 0 181 -23.5t145 -70t98 -122t35 -173.5q0 -62 -17 -113.5t-42.5 -83.5t-55.5 -62.5t-55.5 -52t-42.5 -50t-17 -58.5q0 -102 154 -102v-31q-154 0 -154 -102q0 -30 17 -58.5t42.5 -50.5t55.5 -52.5t55.5 -63t42.5 -84t17 -113.5q0 -98 -35 -173 t-98 -121.5t-145 -69.5t-181 -23v32z" />
<glyph unicode="~" horiz-adv-x="1200" d="M106 498q87 56 149.5 78t135.5 22q78 0 220 -45t220 -45q128 0 234 86l25 -29q-83 -56 -134.5 -75t-117.5 -19q-86 0 -237 45t-214 45q-65 0 -125.5 -21t-138.5 -75z" />
<glyph horiz-adv-x="0" />
<glyph unicode="&#xa1;" horiz-adv-x="575" d="M168 864q0 51 34 85t85 34t86 -34t35 -85t-35 -86t-86 -35t-85 35t-34 86zM170 -289q0 38 16 118t35 168.5t35 240t16 315.5h33q0 -164 16 -315.5t35.5 -240t35.5 -168.5t16 -118q0 -50 -30.5 -85.5t-88.5 -35.5t-88.5 35.5t-30.5 85.5z" />
<glyph unicode="&#xa2;" horiz-adv-x="985" d="M115 518q0 210 114 336t322 129v184h41v-186q128 -6 206.5 -67.5t78.5 -178.5q0 -62 -40.5 -103.5t-101.5 -41.5q-46 0 -80 31.5t-34 76.5q0 46 27 78.5t71 32.5q33 0 55 -15t27 -38q3 -19 18 -19q7 0 13 5.5t6 13.5q0 31 -14 62t-41.5 59.5t-77.5 46.5t-113 18 q-78 0 -134 -34t-86.5 -94t-44.5 -130.5t-14 -155.5q0 -87 14 -159.5t45 -134t88 -96t136 -34.5q107 0 175 78t95 201l37 -4q-29 -139 -109 -228t-202 -102v-176h-41v174h-4q-202 0 -317 131.5t-115 339.5z" />
<glyph unicode="&#xa3;" horiz-adv-x="980" d="M41 154q0 63 58 107t155 44q75 0 166 -43q-7 31 -27.5 63t-35 48t-56 54t-51.5 48h-152v43h111q-94 105 -94 236q0 94 58 161t148 98t201 31q139 0 228.5 -64t89.5 -183q0 -62 -37 -102t-98 -40q-52 0 -87.5 32t-35.5 83q0 45 27.5 74.5t72.5 29.5q69 0 82 -57 q3 -18 18 -18q8 0 13.5 5.5t5.5 12.5q0 31 -14 62.5t-41.5 60t-77.5 46.5t-113 18q-105 0 -163 -67t-58 -177q0 -125 76 -242h295v-43h-267q27 -42 41.5 -68t27.5 -69t13 -88q0 -5 -1 -15.5t-1 -15.5q94 -41 162 -41q76 0 124.5 38t55.5 116h37q3 -58 -5.5 -115.5 t-30.5 -112.5t-69 -89.5t-112 -34.5q-76 0 -127.5 28t-101.5 80q-86 -86 -215 -86q-74 0 -134.5 40.5t-60.5 111.5zM94 135q0 -40 37 -68t102 -28q127 0 175 94q-45 47 -90 72.5t-105 25.5q-57 0 -88 -29t-31 -67z" />
<glyph unicode="&#xa4;" horiz-adv-x="1110" d="M59 -8l168 168q-118 121 -118 311q0 191 118 309l-168 170l31 33l170 -172q121 98 295 98q171 0 295 -98l170 172l31 -33l-168 -170q118 -118 118 -309q0 -190 -118 -311l168 -168l-31 -33l-170 172q-124 -98 -295 -98q-174 0 -295 98l-170 -172zM303 471 q0 -186 60 -294.5t192 -108.5t192 108.5t60 294.5t-60 294.5t-192 108.5t-192 -108.5t-60 -294.5z" />
<glyph unicode="&#xa5;" horiz-adv-x="980" d="M0 950v33h422v-33h-129l264 -501l113 217q4 8 19.5 37t26 49.5t23 47.5t19 48.5t6.5 34.5q0 37 -29 52t-106 15h-58v33h410v-33q-26 0 -45 -1t-35.5 -5.5t-27.5 -8t-22 -13t-17 -16t-15.5 -23t-14.5 -27.5t-16.5 -34.5t-19.5 -39.5l-186 -368h233v-33h-237v-90h237v-33 h-237v-227h108v-31h-399v31h108v227h-241v33h241v90h-241v33h223l-289 536h-88z" />
<glyph unicode="&#xa6;" horiz-adv-x="452" d="M205 -246v721h45v-721h-45zM205 752v721h45v-721h-45z" />
<glyph unicode="&#xa7;" horiz-adv-x="1292" d="M145 549q0 106 64.5 181t173.5 114q-135 106 -135 274q0 158 102.5 247t278.5 89q94 0 173 -22.5t135 -77.5t56 -135q0 -62 -40 -104t-101 -42q-46 0 -80.5 32t-34.5 77q0 46 27.5 78t71.5 32q33 0 55 -15t27 -38q3 -18 18 -18q7 0 12.5 5t5.5 13q0 26 -18.5 55.5 t-53.5 57t-97 45.5t-138 18q-110 0 -177 -59t-67 -154q0 -58 24.5 -105.5t65.5 -80.5t94.5 -61.5t113 -54t118.5 -52t112.5 -61.5t94.5 -77.5t65.5 -104t24.5 -136.5q0 -119 -51.5 -204t-146.5 -130q96 -106 96 -250q0 -122 -58.5 -205.5t-159.5 -122t-239 -38.5 q-91 0 -171 27t-133.5 86t-53.5 139q0 62 40 103.5t101 41.5q46 0 80.5 -32t34.5 -77q0 -46 -27.5 -78t-71.5 -32q-33 0 -55 15t-27 38q-3 19 -18 19q-7 0 -12.5 -5.5t-5.5 -13.5q2 -30 19 -61.5t49.5 -61t89.5 -48.5t128 -19q150 0 242 63.5t92 181.5q0 56 -24.5 102.5 t-65.5 80t-94.5 62.5t-113 56t-118.5 55t-112.5 64.5t-94.5 80t-65.5 106t-24.5 137.5zM301 623q0 -68 37 -121t101.5 -91t133.5 -69t152 -72.5t137 -83.5q99 70 99 193q0 73 -34 129t-96 96t-125.5 70t-146.5 68.5t-135 72.5q-123 -52 -123 -192z" />
<glyph unicode="&#xa8;" horiz-adv-x="860" d="M123 1251q0 51 36 87t87 36t88 -36t37 -87t-37 -88t-88 -37t-87 37t-36 88zM489 1251q0 51 36.5 87t88.5 36q51 0 87 -36t36 -87t-36 -88t-87 -37q-52 0 -88.5 37t-36.5 88z" />
<glyph unicode="&#xa9;" horiz-adv-x="1431" d="M102 475q0 132 51.5 252t138 206.5t206 137.5t250.5 51q128 0 237.5 -44.5t184 -121.5t117 -180.5t42.5 -220.5q0 -89 -32.5 -174.5t-94.5 -158t-165 -117t-232 -44.5q-214 0 -330.5 112.5t-116.5 309.5q0 191 112.5 304.5t309.5 113.5q135 0 226.5 -66t91.5 -182 q0 -62 -40.5 -103.5t-101.5 -41.5q-46 0 -80 31.5t-34 76.5q0 46 27 78.5t71 32.5q33 0 55 -15t27 -38q3 -19 18 -19q8 0 13.5 5.5t5.5 13.5q0 66 -68 126t-178 60q-69 0 -120 -28t-80.5 -78.5t-43.5 -115t-14 -144.5q0 -107 30.5 -189.5t99.5 -134t171 -51.5 q112 0 209 55.5t156 156.5t59 226q0 224 -150.5 369t-381.5 145q-161 0 -298.5 -79.5t-217.5 -217t-80 -299.5q0 -161 80 -298.5t217.5 -217.5t298.5 -80q132 0 258 60l24 -45q-134 -64 -282 -64q-175 0 -324 86.5t-235.5 235t-86.5 323.5z" />
<glyph unicode="&#xaa;" horiz-adv-x="696" d="M61 772q0 190 328 182v47q0 51 -4 82t-17 59t-39.5 40t-70.5 12q-76 0 -110.5 -33t-34.5 -69q0 -17 12 -17t12 17q3 29 20.5 42t41.5 13q31 0 48 -21t17 -53q0 -36 -26.5 -58t-61.5 -22q-36 0 -63 24.5t-27 63.5q0 69 58 105.5t139 36.5q144 0 199 -55.5t55 -209.5v-229 q0 -49 20 -49q17 0 31.5 38.5t17.5 88.5l29 -2q-17 -191 -117 -191q-46 0 -69 45t-25 115h-8q-16 -81 -57 -120.5t-123 -39.5q-89 0 -132 42.5t-43 115.5zM76 449v43h477v-43h-477zM219 778q0 -121 68 -121q102 0 102 187v84q-89 3 -129.5 -42t-40.5 -108z" />
<glyph unicode="&#xab;" horiz-adv-x="641" d="M10 485l264 353l35 -27l-243 -326l243 -325l-35 -27zM240 485l264 353l35 -27l-244 -326l244 -325l-35 -27z" />
<glyph unicode="&#xac;" horiz-adv-x="1050" d="M70 496v43h909v-342h-45v299h-864z" />
<glyph unicode="&#xad;" horiz-adv-x="632" d="M106 463v43h406v-43h-406z" />
<glyph unicode="&#xae;" horiz-adv-x="1454" d="M102 492q0 172 82 316t225 228t314 84q130 0 245 -44.5t200 -123.5t134.5 -194t49.5 -250q0 -196 -92 -317t-240 -121q-69 0 -107.5 46t-38.5 128v63q0 107 -40 147t-132 40h-51v-375h109v-37h-377v37h92v755h-92v37h403q129 0 202 -41t73 -141q0 -86 -52 -142.5 t-149 -68.5v-8q103 0 150 -59.5t47 -186.5v-76q0 -55 28 -55q33 0 70 24t71 68t56.5 118.5t22.5 164.5q0 165 -79 295t-211.5 200t-291.5 70q-117 0 -223.5 -46t-183 -124.5t-121.5 -185.5t-45 -225q0 -248 154 -408t398 -160q149 0 277 70l22 -41q-136 -76 -299 -76 q-129 0 -240.5 45.5t-190.5 126t-124 195t-45 248.5zM651 530h39q98 0 143.5 40t45.5 151q0 82 -31.5 117.5t-126.5 35.5h-70v-344z" />
<glyph unicode="&#xaf;" horiz-adv-x="579" d="M4 1167v39h571v-39h-571z" />
<glyph unicode="&#xb0;" horiz-adv-x="573" d="M49 1130q0 98 70 168t168 70t167.5 -70t69.5 -168t-69.5 -167.5t-167.5 -69.5t-168 69.5t-70 167.5zM113 1130q0 -72 51 -123t123 -51t123 51t51 123t-51 123.5t-123 51.5t-123 -51.5t-51 -123.5z" />
<glyph unicode="&#xb1;" horiz-adv-x="1259" d="M170 61v43h971v-43h-971zM170 565v43h465v363h41v-363h465v-43h-465v-360h-41v360h-465z" />
<glyph unicode="&#xb2;" horiz-adv-x="675" d="M61 596v61q0 60 41 109.5t99.5 86t117 73.5t99.5 89t41 115q0 81 -43 129t-121 48q-91 0 -133.5 -41t-42.5 -92q0 -21 18 -21q15 0 19 18q8 52 65 52q37 0 56.5 -24.5t19.5 -59.5q0 -40 -29 -67.5t-73 -27.5q-52 0 -82.5 32.5t-30.5 80.5q0 89 64.5 137.5t172.5 48.5 q77 0 140.5 -19t107 -65.5t43.5 -115.5q0 -63 -28 -112.5t-73.5 -80.5t-100 -57t-109 -48t-100 -46.5t-73.5 -60t-28 -81.5l15 -4q15 22 23.5 31.5t30.5 25t57.5 22.5t86.5 7h234q33 0 47 16.5t16 55.5h27v-215h-574zM98 465v43h477v-43h-477z" />
<glyph unicode="&#xb3;" horiz-adv-x="632" d="M74 748q0 56 35 89t88 33q45 0 70.5 -28.5t25.5 -67.5q0 -35 -20.5 -60.5t-59.5 -25.5q-29 0 -46.5 16t-21.5 35q-3 19 -18 19q-7 0 -12.5 -5.5t-5.5 -13.5q0 -46 48.5 -83.5t121.5 -37.5q77 0 119 42.5t42 125.5q0 103 -41 143t-110 40q-39 0 -111 -29l-12 33 q11 5 37 15t41.5 16.5t40 18t40 21.5t34 25t29 30.5t17.5 36t7 42.5q0 66 -41 98.5t-101 32.5q-62 0 -109.5 -32.5t-47.5 -74.5q0 -18 16 -18q4 0 7 2t4 4.5t3.5 8.5t3.5 9q6 15 23 25t37 10q38 0 58 -24t20 -54q0 -42 -28 -69t-69 -27q-55 0 -82.5 31.5t-27.5 77.5 q0 81 66.5 123t170.5 42q117 0 182.5 -39t65.5 -120q0 -37 -17 -65.5t-50.5 -49t-68.5 -34t-87 -27.5l2 -11q116 3 183 -43.5t67 -140.5q0 -70 -44.5 -124.5t-110.5 -81.5t-138 -27q-36 0 -73.5 9.5t-72.5 28t-57 52.5t-22 78zM104 465v43h478v-43h-478z" />
<glyph unicode="&#xb4;" horiz-adv-x="671" d="M94 1094q27 14 52 29t46.5 30.5t38.5 28t35.5 30t29 27t27 27.5t22 24.5t21 25t17.5 21.5q47 56 94 56q31 0 50.5 -18.5t19.5 -49.5q0 -35 -16.5 -54.5t-53.5 -35.5l-368 -172z" />
<glyph unicode="&#xb5;" horiz-adv-x="1226" d="M72 911v31h43q154 0 284 27v-561v-58t1.5 -58t4 -60t8 -55t12.5 -53t19 -43t26.5 -35.5t35 -21t45.5 -8.5q67 0 118.5 33t81 84t48.5 123t25.5 140t6.5 145v370h-145v31h43q155 0 285 27v-938h135v-31h-322v178h-12q-23 -59 -56 -100.5t-63.5 -59t-62 -32.5t-55 -24.5 t-38 -31t-14.5 -55.5q0 -26 15.5 -47t34 -34t34 -39t15.5 -60q0 -51 -35 -85t-86 -34t-85 34t-34 85q0 34 16 60t35 39t35 34t16 47q0 35 -15 55.5t-38.5 31.5t-52.5 22t-58 36t-52.5 64t-38.5 114.5t-15 180.5v532h-145z" />
<glyph unicode="&#xb6;" horiz-adv-x="702" d="M8 1081q0 123 85 207t224 84q45 0 111 -11t131 -11h59v-33h-73v-1475q0 -174 -50.5 -248.5t-144.5 -74.5q-62 0 -106.5 39.5t-44.5 99.5q0 53 31.5 87t80.5 34q43 0 73 -27t30 -71q0 -40 -20.5 -62t-51.5 -22q-3 0 -11 1t-12 1q-6 0 -11 -5t-5 -12q0 -28 53 -28 q49 0 81 25.5t45.5 72.5t17.5 87t4 95v1485l-76 8v-1556l-2 3q-1 3 -4 7t-8 9.5t-12.5 11t-17 11t-23 10t-29.5 7.5v975q-16 -2 -45 -2q-123 0 -201 79t-78 199z" />
<glyph unicode="&#xb7;" horiz-adv-x="567" d="M164 535q0 51 34 85.5t85 34.5t85.5 -34.5t34.5 -85.5t-34.5 -85t-85.5 -34t-85 34t-34 85z" />
<glyph unicode="&#xb8;" horiz-adv-x="768" d="M260 -195l76 195h41l-60 -150q62 46 136 46q75 0 135.5 -49.5t60.5 -151.5q0 -79 -50.5 -127.5t-127.5 -48.5q-61 0 -103 39t-42 98q0 48 31.5 81.5t78.5 33.5q45 0 77 -28t32 -71q0 -33 -15 -54t-38 -26q-19 -3 -19 -18q0 -18 21 -18q46 0 82 39t36 100 q0 79 -47.5 121.5t-109.5 42.5q-53 0 -97 -25t-69 -63z" />
<glyph unicode="&#xb9;" horiz-adv-x="536" d="M37 465v43h477v-43h-477zM61 1153q87 26 134.5 65t60.5 113q43 3 84 27v-725h135v-37h-395v37h123v543q-55 -38 -133 -58z" />
<glyph unicode="&#xba;" horiz-adv-x="700" d="M61 918q0 148 77.5 226.5t211.5 78.5t211.5 -78.5t77.5 -226.5t-77.5 -226t-211.5 -78t-211.5 78t-77.5 226zM106 465v43h478v-43h-478zM223 918q0 -133 28.5 -206t98.5 -73t98.5 73t28.5 206q0 134 -28.5 207t-98.5 73t-98.5 -73t-28.5 -207z" />
<glyph unicode="&#xbb;" horiz-adv-x="641" d="M102 160l244 325l-244 326l35 27l264 -353l-264 -352zM332 160l243 325l-243 326l35 27l264 -353l-264 -352z" />
<glyph unicode="&#xbc;" horiz-adv-x="1431" d="M164 1153q87 26 134 65t60 113q43 3 84 27v-725h136v-37h-396v37h123v543q-55 -38 -133 -58zM362 20l738 1323h49l-735 -1323h-52zM768 236v38q257 244 303 480q26 0 51 7t37 14l12 7v-497h97v-49h-97v-195h-137v195h-266zM836 285h198v252h-8q-59 -115 -190 -246v-6z " />
<glyph unicode="&#xbd;" horiz-adv-x="1599" d="M164 1153q87 26 134 65t60 113q43 3 84 27v-725h136v-37h-396v37h123v543q-55 -38 -133 -58zM362 20l738 1323h49l-735 -1323h-52zM862 41v61q0 60 39 109.5t94 86t110.5 73.5t94.5 89t39 115q0 177 -143 177q-91 0 -133.5 -41t-42.5 -93q0 -20 16 -20q12 0 16 18 q3 22 21.5 37t48.5 15q37 0 56.5 -24.5t19.5 -59.5q0 -40 -29.5 -67.5t-73.5 -27.5q-52 0 -82 32.5t-30 80.5q0 86 63.5 136t173.5 50q119 0 195 -49t76 -151q0 -62 -26 -110.5t-68 -80.5t-92.5 -57.5t-102 -47.5t-94.5 -44.5t-72 -54t-33 -70.5l15 -4q24 35 60 50t134 15 h213q33 0 47.5 16.5t16.5 55.5h26v-215h-553z" />
<glyph unicode="&#xbe;" horiz-adv-x="1480" d="M168 748q0 56 35 89t88 33q45 0 70.5 -28.5t25.5 -67.5q0 -35 -20.5 -60.5t-59.5 -25.5q-29 0 -46 16t-21 35q-3 19 -19 19q-7 0 -12.5 -5.5t-5.5 -13.5q0 -46 48.5 -83.5t121.5 -37.5q77 0 119.5 42.5t42.5 125.5q0 103 -41.5 143t-110.5 40q-39 0 -111 -29l-12 33 q11 5 37 15t41.5 16.5t40 18t40 21.5t34 25t29 30.5t17.5 36t7 42.5q0 66 -40.5 98.5t-100.5 32.5q-63 0 -110.5 -32t-47.5 -73q0 -18 16 -18q3 0 5 1t3.5 2t3 3.5t2.5 4.5t2.5 6t2.5 7q13 33 59 33q38 0 58 -24t20 -54q0 -42 -28 -69t-68 -27q-55 0 -83 32t-28 77 q0 81 67 123t171 42q117 0 182 -39t65 -120q0 -37 -17 -65.5t-50.5 -49t-68.5 -34t-87 -27.5l2 -11q116 3 183 -43.5t67 -140.5q0 -70 -44.5 -124.5t-110.5 -81.5t-138 -27q-36 0 -73.5 9.5t-72.5 28t-57 52.5t-22 78zM412 20l737 1323h49l-735 -1323h-51zM817 236v38 q257 244 303 480q26 0 51.5 7t37.5 14l12 7v-497h96v-49h-96v-195h-138v195h-266zM885 285h198v252h-8q-59 -115 -190 -246v-6z" />
<glyph unicode="&#xbf;" horiz-adv-x="827" d="M100 -141q0 58 24 109.5t62.5 90t85 73.5t93.5 65t85.5 58.5t62.5 60.5t24 65q0 62 -35.5 98.5t-95.5 36.5q-52 0 -93 -24.5t-65 -67.5l-31 20q29 49 80 79t113 30q76 0 125 -47t49 -121q0 -43 -20 -87t-50.5 -79.5t-66 -77t-66 -80t-50.5 -89t-20 -103.5 q0 -109 54 -173.5t157 -64.5q70 0 123 17.5t80.5 45t41 55t13.5 52.5q0 8 -5.5 13.5t-12.5 5.5q-16 0 -19 -19q-5 -23 -26.5 -38t-54.5 -15q-44 0 -71.5 32.5t-27.5 78.5q0 45 34.5 76.5t80.5 31.5q61 0 101 -41.5t40 -103.5q0 -59 -28 -105t-76 -73t-105 -40.5t-121 -13.5 q-389 0 -389 269zM289 864q0 51 35 85t86 34t84.5 -34t33.5 -85t-33.5 -86t-84.5 -35t-86 35t-35 86z" />
<glyph unicode="&#xc0;" horiz-adv-x="1302" d="M2 0v33q58 0 100.5 17t72.5 53t50 76.5t41 103.5l334 964q12 34 19.5 51t21.5 37t33.5 28.5t46.5 8.5h6l414 -1339h145v-33h-524v33h151l-141 463h-391l-66 -193q-22 -62 -22 -129q0 -29 9 -51.5t21.5 -37.5t36.5 -25t44 -15.5t53.5 -8t55.5 -3t60 -0.5h35v-33h-606z M330 1696q0 31 19 49t50 18q49 0 95 -55q3 -4 20 -24.5t24 -28.5t25.5 -28.5t31.5 -32t35.5 -31t43.5 -34t49 -32t59 -33.5l-14 -30l-369 172q-36 16 -52.5 35.5t-16.5 54.5zM393 528h369l-168 549h-12z" />
<glyph unicode="&#xc1;" horiz-adv-x="1302" d="M2 0v33q58 0 100.5 17t72.5 53t50 76.5t41 103.5l334 964q12 34 19.5 51t21.5 37t33.5 28.5t46.5 8.5h6l414 -1339h145v-33h-524v33h151l-141 463h-391l-66 -193q-22 -62 -22 -129q0 -29 9 -51.5t21.5 -37.5t36.5 -25t44 -15.5t53.5 -8t55.5 -3t60 -0.5h35v-33h-606z M393 528h369l-168 549h-12zM551 1464q31 16 59 34t49 32t44 34t35 30.5t32 32.5t25.5 28t24.5 28.5t20 24.5q46 55 94 55q31 0 50.5 -18.5t19.5 -48.5q0 -35 -16.5 -54.5t-53.5 -35.5l-369 -172z" />
<glyph unicode="&#xc2;" horiz-adv-x="1302" d="M2 0v33q58 0 100.5 17t72.5 53t50 76.5t41 103.5l334 964q12 34 19.5 51t21.5 37t33.5 28.5t46.5 8.5h6l414 -1339h145v-33h-524v33h151l-141 463h-391l-66 -193q-22 -62 -22 -129q0 -29 9 -51.5t21.5 -37.5t36.5 -25t44 -15.5t53.5 -8t55.5 -3t60 -0.5h35v-33h-606z M293 1464q31 16 59 34t49 32t44 34t35 30.5t32 32.5t25.5 28t24.5 28.5t20 24.5q46 55 94 55t94 -55q1 -2 20 -24.5t24.5 -28.5t25.5 -28t32 -32.5t35 -30.5t44 -34t49 -32t59 -34l-15 -30l-368 172l-369 -172zM393 528h369l-168 549h-12z" />
<glyph unicode="&#xc3;" horiz-adv-x="1302" d="M2 0v33q58 0 100.5 17t72.5 53t50 76.5t41 103.5l334 964q12 34 19.5 51t21.5 37t33.5 28.5t46.5 8.5h6l414 -1339h145v-33h-524v33h151l-141 463h-391l-66 -193q-22 -62 -22 -129q0 -29 9 -51.5t21.5 -37.5t36.5 -25t44 -15.5t53.5 -8t55.5 -3t60 -0.5h35v-33h-606z M377 1520q0 97 40.5 161t114.5 64q52 0 161.5 -53.5t150.5 -53.5q102 0 102 105h31q0 -97 -41 -161t-115 -64q-52 0 -161.5 53t-149.5 53q-102 0 -102 -104h-31zM393 528h369l-168 549h-12z" />
<glyph unicode="&#xc4;" horiz-adv-x="1302" d="M2 0v33q58 0 100.5 17t72.5 53t50 76.5t41 103.5l334 964q12 34 19.5 51t21.5 37t33.5 28.5t46.5 8.5h6l414 -1339h145v-33h-524v33h151l-141 463h-391l-66 -193q-22 -62 -22 -129q0 -29 9 -51.5t21.5 -37.5t36.5 -25t44 -15.5t53.5 -8t55.5 -3t60 -0.5h35v-33h-606z M369 1622q0 51 36 87t87 36t87.5 -36t36.5 -87t-36.5 -88t-87.5 -37t-87 37t-36 88zM393 528h369l-168 549h-12zM735 1622q0 51 36.5 87t88.5 36q51 0 87 -36t36 -87t-36 -88t-87 -37q-52 0 -88.5 37t-36.5 88z" />
<glyph unicode="&#xc5;" horiz-adv-x="1253" d="M2 0v33q58 0 100.5 17t72.5 53t50 76.5t41 103.5l334 964q12 34 19.5 51t21.5 37t33.5 28.5t46.5 8.5h6l414 -1339h145v-33h-524v33h151l-141 463h-391l-66 -193q-22 -62 -22 -129q0 -29 9 -51.5t21.5 -37.5t36.5 -25t44 -15.5t53.5 -8t55.5 -3t60 -0.5h35v-33h-606z M393 528h369l-168 549h-12zM510 1663q0 51 35 87t86 36q52 0 87.5 -36t35.5 -87q0 -53 -35.5 -89t-87.5 -36q-51 0 -86 36t-35 89zM547 1663q0 -35 25 -61.5t59 -26.5q35 0 60.5 26.5t25.5 61.5q0 34 -25.5 60t-60.5 26q-34 0 -59 -26t-25 -60z" />
<glyph unicode="&#xc6;" horiz-adv-x="2570" d="M-121 0v33q50 0 92 13.5t73 34t61.5 55.5t51.5 67t48 80l518 923q42 73 58 91q32 34 81 34h694v-426h-32q0 87 -6.5 145.5t-25 104.5t-46 72t-75.5 43t-106.5 22.5t-146.5 5.5h-123v-587h47q149 0 203.5 56t54.5 206h35v-563h-35q0 151 -55 209.5t-203 58.5h-47v-645h105 q103 0 171 6.5t122.5 28t84.5 51.5t51 87t30 123.5t14 172.5h33l-21 -502h-952v33h149v645h-321l-215 -383q-62 -112 -62 -168t58.5 -75t201.5 -19h35v-33h-600zM479 711h303v508h-18z" />
<glyph unicode="&#xc7;" horiz-adv-x="1185" d="M106 672q0 108 23.5 210.5t71.5 191.5t114.5 155.5t158 104.5t196.5 38q69 0 133.5 -17t109.5 -34.5t68 -17.5q34 0 49.5 17t20.5 52h24v-479h-33q-11 76 -27 137t-44 119.5t-65.5 97.5t-93 62.5t-124.5 23.5q-53 0 -96.5 -13.5t-76 -34t-57.5 -57t-41.5 -71t-28.5 -87.5 t-18 -94.5t-9.5 -105t-4 -106t-0.5 -109.5q0 -71 3 -131t12 -128t24.5 -122.5t41.5 -106t61 -85.5t85.5 -55t112.5 -21q171 0 268 115t111 303l37 -4q-14 -210 -133 -335.5t-320 -125.5q-34 0 -96 8l-43 -117q70 46 135 46q32 0 64.5 -11t63.5 -33t50 -63t19 -94 q0 -79 -50.5 -127.5t-127.5 -48.5q-61 0 -103.5 39t-42.5 98q0 48 32 81.5t79 33.5q45 0 77 -28t32 -71q0 -32 -15.5 -53.5t-38.5 -26.5q-18 -3 -18 -18q0 -18 20 -18q47 0 83 39.5t36 99.5q0 78 -50 121t-108 43q-46 0 -93.5 -26t-71.5 -62l-29 34l63 170 q-136 35 -232.5 140.5t-142 248t-45.5 308.5z" />
<glyph unicode="&#xc8;" horiz-adv-x="1267" d="M106 0v33h150v1265h-150v33h986v-426h-33q0 87 -6.5 145.5t-25 104.5t-46 72t-75.5 43t-106.5 22.5t-146.5 5.5h-184v-587h109q149 0 203.5 56t54.5 206h34v-563h-34q0 151 -55 209.5t-203 58.5h-109v-645h166q103 0 171 6.5t122.5 28t84.5 51.5t51 87t30 123.5t14 172.5 h33l-21 -502h-1014zM471 1696q0 30 19.5 48.5t50.5 18.5q48 0 94 -55q1 -2 20 -24.5t24.5 -28.5t25.5 -28t32 -32.5t35 -30.5t44 -34t49 -32t59 -34l-15 -30l-368 172q-37 16 -53.5 35.5t-16.5 54.5z" />
<glyph unicode="&#xc9;" horiz-adv-x="1267" d="M106 0v33h150v1265h-150v33h986v-426h-33q0 87 -6.5 145.5t-25 104.5t-46 72t-75.5 43t-106.5 22.5t-146.5 5.5h-184v-587h109q149 0 203.5 56t54.5 206h34v-563h-34q0 151 -55 209.5t-203 58.5h-109v-645h166q103 0 171 6.5t122.5 28t84.5 51.5t51 87t30 123.5t14 172.5 h33l-21 -502h-1014zM580 1464q31 16 59 33.5t49 32t43.5 34t35.5 31t31.5 32t25.5 28.5t24 28.5t20 24.5q46 55 95 55q31 0 50 -18t19 -49q0 -35 -16.5 -54.5t-52.5 -35.5l-369 -172z" />
<glyph unicode="&#xca;" horiz-adv-x="1267" d="M106 0v33h150v1265h-150v33h986v-426h-33q0 87 -6.5 145.5t-25 104.5t-46 72t-75.5 43t-106.5 22.5t-146.5 5.5h-184v-587h109q149 0 203.5 56t54.5 206h34v-563h-34q0 151 -55 209.5t-203 58.5h-109v-645h166q103 0 171 6.5t122.5 28t84.5 51.5t51 87t30 123.5t14 172.5 h33l-21 -502h-1014zM287 1464q31 16 59 33.5t49 32t43.5 34t35.5 31t31.5 32t25.5 28.5t24 28.5t20 24.5q46 55 95 55q48 0 94 -55q1 -2 20 -24.5t24.5 -28.5t25.5 -28t32 -32.5t35 -30.5t44 -34t49 -32t59 -34l-15 -30l-368 172l-369 -172z" />
<glyph unicode="&#xcb;" horiz-adv-x="1267" d="M106 0v33h150v1265h-150v33h986v-426h-33q0 87 -6.5 145.5t-25 104.5t-46 72t-75.5 43t-106.5 22.5t-146.5 5.5h-184v-587h109q149 0 203.5 56t54.5 206h34v-563h-34q0 151 -55 209.5t-203 58.5h-109v-645h166q103 0 171 6.5t122.5 28t84.5 51.5t51 87t30 123.5t14 172.5 h33l-21 -502h-1014zM330 1622q0 51 36 87t87 36t88 -36t37 -87t-37 -88t-88 -37t-87 37t-36 88zM696 1622q0 51 36.5 87t88.5 36q51 0 87 -36t36 -87t-36 -88t-87 -37q-52 0 -88.5 37t-36.5 88z" />
<glyph unicode="&#xcc;" horiz-adv-x="724" d="M51 1696q0 30 19.5 48.5t50.5 18.5q48 0 94 -55q1 -2 20 -24.5t24.5 -28.5t25.5 -28t32 -32.5t35 -30.5t44 -34t49 -32t59 -34l-15 -30l-368 172q-37 16 -53.5 35.5t-16.5 54.5zM106 0v33h150v1265h-150v33h533v-33h-170v-1265h170v-33h-533z" />
<glyph unicode="&#xcd;" horiz-adv-x="724" d="M106 0v33h150v1265h-150v33h533v-33h-170v-1265h170v-33h-533zM221 1464q31 16 59 34t49 32t44 34t35 30.5t32 32.5t25.5 28t24.5 28.5t20 24.5q46 55 94 55q31 0 50.5 -18.5t19.5 -48.5q0 -35 -16.5 -54.5t-53.5 -35.5l-368 -172z" />
<glyph unicode="&#xce;" horiz-adv-x="724" d="M-14 1464q31 16 59 33.5t49 32t43.5 34t35.5 31t31.5 32t25.5 28.5t24 28.5t20 24.5q46 55 95 55q48 0 94 -55q1 -2 20 -24.5t24.5 -28.5t25.5 -28t32 -32.5t35 -30.5t44 -34t49 -32t59 -34l-15 -30l-368 172l-369 -172zM106 0v33h150v1265h-150v33h533v-33h-170v-1265 h170v-33h-533z" />
<glyph unicode="&#xcf;" horiz-adv-x="724" d="M61 1622q0 51 36 87t87 36t88 -36t37 -87t-37 -88t-88 -37t-87 37t-36 88zM106 0v33h150v1265h-150v33h533v-33h-170v-1265h170v-33h-533zM428 1622q0 51 36.5 87t88.5 36q51 0 87 -36t36 -87t-36 -88t-87 -37q-52 0 -88.5 37t-36.5 88z" />
<glyph unicode="&#xd0;" horiz-adv-x="1406" d="M106 0v33h150v622h-150v33h150v610h-150v33h560q311 0 472.5 -163t161.5 -476q0 -350 -160.5 -521t-502.5 -171h-531zM469 33h125q84 0 150 15.5t113.5 42t82 70.5t56 94t34 119.5t17 139t4.5 160.5q0 96 -7 172t-24 149.5t-47.5 126.5t-75.5 94t-111 61.5t-151 20.5 h-166v-610h154v-33h-154v-622z" />
<glyph unicode="&#xd1;" horiz-adv-x="1411" d="M-12 0v33q150 0 209 56t59 204v913q-56 94 -215 94v31h213q99 0 149 -33.5t101 -119.5l543 -932h12v792q0 149 -56 204.5t-206 55.5h-15v33h586v-33q-150 0 -209 -56t-59 -204v-1052h-33q-68 0 -109.5 43t-111.5 164l-541 929h-8v-829q0 -149 56 -204.5t206 -55.5h14v-33 h-585zM375 1520q0 97 40.5 161t114.5 64q52 0 161.5 -53.5t150.5 -53.5q102 0 102 105h31q0 -97 -41 -161t-115 -64q-52 0 -161.5 53t-149.5 53q-102 0 -102 -104h-31z" />
<glyph unicode="&#xd2;" d="M106 672q0 112 24 216t73 192t117.5 153t162.5 102t203 37t203 -37t162.5 -102t117.5 -153t73 -192t24 -216q0 -115 -23.5 -220.5t-71.5 -195.5t-116 -156t-162.5 -103.5t-206.5 -37.5t-206.5 37.5t-162.5 103.5t-116 156t-71.5 195.5t-23.5 220.5zM356 672 q0 -64 1 -107.5t4 -105.5t9.5 -104.5t18 -94.5t28.5 -87t42 -70.5t56.5 -56.5t75 -34.5t95.5 -13.5q65 0 116 22t85.5 56.5t59 90t37.5 108.5t20.5 128t9.5 132.5t2 136.5t-2 135.5t-9.5 130.5t-20.5 126t-37.5 106t-59 87.5t-85.5 54.5t-116 21t-116 -21t-85.5 -54.5 t-59 -87.5t-37.5 -106t-20.5 -126t-9.5 -130.5t-2 -135.5zM414 1696q0 31 19 49t50 18q49 0 95 -55q3 -4 20 -24.5t24 -28.5t25.5 -28.5t31.5 -32t35.5 -31t43.5 -34t49 -32t59 -33.5l-14 -30l-369 172q-36 16 -52.5 35.5t-16.5 54.5z" />
<glyph unicode="&#xd3;" d="M106 672q0 112 24 216t73 192t117.5 153t162.5 102t203 37t203 -37t162.5 -102t117.5 -153t73 -192t24 -216q0 -115 -23.5 -220.5t-71.5 -195.5t-116 -156t-162.5 -103.5t-206.5 -37.5t-206.5 37.5t-162.5 103.5t-116 156t-71.5 195.5t-23.5 220.5zM356 672 q0 -64 1 -107.5t4 -105.5t9.5 -104.5t18 -94.5t28.5 -87t42 -70.5t56.5 -56.5t75 -34.5t95.5 -13.5q65 0 116 22t85.5 56.5t59 90t37.5 108.5t20.5 128t9.5 132.5t2 136.5t-2 135.5t-9.5 130.5t-20.5 126t-37.5 106t-59 87.5t-85.5 54.5t-116 21t-116 -21t-85.5 -54.5 t-59 -87.5t-37.5 -106t-20.5 -126t-9.5 -130.5t-2 -135.5zM508 1464q31 16 59 34t49 32t44 34t35 30.5t32 32.5t25.5 28t24.5 28.5t20 24.5q46 55 94 55q31 0 50.5 -18.5t19.5 -48.5q0 -35 -16.5 -54.5t-53.5 -35.5l-369 -172z" />
<glyph unicode="&#xd4;" d="M106 672q0 112 24 216t73 192t117.5 153t162.5 102t203 37t203 -37t162.5 -102t117.5 -153t73 -192t24 -216q0 -115 -23.5 -220.5t-71.5 -195.5t-116 -156t-162.5 -103.5t-206.5 -37.5t-206.5 37.5t-162.5 103.5t-116 156t-71.5 195.5t-23.5 220.5zM307 1464q31 16 59 34 t49 32t44 34t35 30.5t32 32.5t25.5 28t24.5 28.5t20 24.5q46 55 94 55t94 -55q1 -2 20 -24.5t24.5 -28.5t25.5 -28t32 -32.5t35 -30.5t44 -34t49 -32t59 -34l-14 -30l-369 172l-368 -172zM356 672q0 -64 1 -107.5t4 -105.5t9.5 -104.5t18 -94.5t28.5 -87t42 -70.5 t56.5 -56.5t75 -34.5t95.5 -13.5q65 0 116 22t85.5 56.5t59 90t37.5 108.5t20.5 128t9.5 132.5t2 136.5t-2 135.5t-9.5 130.5t-20.5 126t-37.5 106t-59 87.5t-85.5 54.5t-116 21t-116 -21t-85.5 -54.5t-59 -87.5t-37.5 -106t-20.5 -126t-9.5 -130.5t-2 -135.5z" />
<glyph unicode="&#xd5;" d="M106 672q0 112 24 216t73 192t117.5 153t162.5 102t203 37t203 -37t162.5 -102t117.5 -153t73 -192t24 -216q0 -115 -23.5 -220.5t-71.5 -195.5t-116 -156t-162.5 -103.5t-206.5 -37.5t-206.5 37.5t-162.5 103.5t-116 156t-71.5 195.5t-23.5 220.5zM356 672 q0 -64 1 -107.5t4 -105.5t9.5 -104.5t18 -94.5t28.5 -87t42 -70.5t56.5 -56.5t75 -34.5t95.5 -13.5q65 0 116 22t85.5 56.5t59 90t37.5 108.5t20.5 128t9.5 132.5t2 136.5t-2 135.5t-9.5 130.5t-20.5 126t-37.5 106t-59 87.5t-85.5 54.5t-116 21t-116 -21t-85.5 -54.5 t-59 -87.5t-37.5 -106t-20.5 -126t-9.5 -130.5t-2 -135.5zM389 1520q0 97 41 161t115 64q52 0 161 -53.5t150 -53.5q102 0 102 105h31q0 -97 -40.5 -161t-114.5 -64q-52 0 -162 53t-150 53q-102 0 -102 -104h-31z" />
<glyph unicode="&#xd6;" d="M106 672q0 112 24 216t73 192t117.5 153t162.5 102t203 37t203 -37t162.5 -102t117.5 -153t73 -192t24 -216q0 -115 -23.5 -220.5t-71.5 -195.5t-116 -156t-162.5 -103.5t-206.5 -37.5t-206.5 37.5t-162.5 103.5t-116 156t-71.5 195.5t-23.5 220.5zM356 672 q0 -64 1 -107.5t4 -105.5t9.5 -104.5t18 -94.5t28.5 -87t42 -70.5t56.5 -56.5t75 -34.5t95.5 -13.5q65 0 116 22t85.5 56.5t59 90t37.5 108.5t20.5 128t9.5 132.5t2 136.5t-2 135.5t-9.5 130.5t-20.5 126t-37.5 106t-59 87.5t-85.5 54.5t-116 21t-116 -21t-85.5 -54.5 t-59 -87.5t-37.5 -106t-20.5 -126t-9.5 -130.5t-2 -135.5zM379 1622q0 51 36 87t87 36t88 -36t37 -87t-37 -88t-88 -37t-87 37t-36 88zM745 1622q0 51 36.5 87t88.5 36q51 0 87 -36t36 -87t-36 -88t-87 -37q-52 0 -88.5 37t-36.5 88z" />
<glyph unicode="&#xd7;" horiz-adv-x="933" d="M127 147l328 338l-312 322l33 29l307 -320l310 320l30 -31l-309 -320l330 -338l-31 -30l-328 338l-327 -338z" />
<glyph unicode="&#xd8;" d="M106 672q0 112 24 216t73 192t117.5 153t162.5 102t203 37q152 0 281 -76l73 158h52l-86 -184q124 -92 192 -251.5t68 -346.5q0 -115 -23.5 -220.5t-71.5 -195.5t-116 -156t-162.5 -103.5t-206.5 -37.5q-143 0 -264 64l-80 -170h-49l90 194q-134 90 -205.5 257t-71.5 368 zM356 672q0 -123 3 -197t20 -171t51 -159l496 1063q-81 125 -240 125q-65 0 -116 -21t-85.5 -54.5t-59 -87.5t-37.5 -106t-20.5 -126t-9.5 -130.5t-2 -135.5zM459 100q79 -102 227 -102q65 0 116 22t85.5 56.5t59 90t37.5 108.5t20.5 128t9.5 132.5t2 136.5q0 158 -12.5 277 t-51.5 208z" />
<glyph unicode="&#xd9;" horiz-adv-x="1390" d="M88 1298v33h533v-33h-170v-667q0 -68 0.5 -111.5t4 -103.5t10 -98.5t18 -86t28 -77.5t41.5 -61t57 -48t75 -28t95 -11q61 0 110 18t83 48.5t59 76.5t40 94.5t23.5 112t11.5 119.5t3 125v438q0 149 -56 204.5t-206 55.5h-14v33h585v-33q-150 0 -209 -56t-59 -204v-366 q0 -93 -2.5 -160.5t-12.5 -146.5t-27 -134.5t-48 -110t-73.5 -87.5t-105.5 -53.5t-143 -20.5q-115 0 -202 33t-143.5 90.5t-91.5 143.5t-49.5 184t-14.5 221v667h-150zM508 1696q0 30 19.5 48.5t50.5 18.5q48 0 94 -55q1 -2 20 -24.5t24.5 -28.5t25.5 -28t32 -32.5t35 -30.5 t44 -34t49 -32t59 -34l-15 -30l-368 172q-37 16 -53.5 35.5t-16.5 54.5z" />
<glyph unicode="&#xda;" horiz-adv-x="1390" d="M88 1298v33h533v-33h-170v-667q0 -68 0.5 -111.5t4 -103.5t10 -98.5t18 -86t28 -77.5t41.5 -61t57 -48t75 -28t95 -11q61 0 110 18t83 48.5t59 76.5t40 94.5t23.5 112t11.5 119.5t3 125v438q0 149 -56 204.5t-206 55.5h-14v33h585v-33q-150 0 -209 -56t-59 -204v-366 q0 -93 -2.5 -160.5t-12.5 -146.5t-27 -134.5t-48 -110t-73.5 -87.5t-105.5 -53.5t-143 -20.5q-115 0 -202 33t-143.5 90.5t-91.5 143.5t-49.5 184t-14.5 221v667h-150zM600 1464q31 16 59 34t49 32t44 34t35 30.5t32 32.5t25.5 28t24.5 28.5t20 24.5q46 55 94 55 q31 0 50.5 -18.5t19.5 -48.5q0 -35 -16.5 -54.5t-53.5 -35.5l-369 -172z" />
<glyph unicode="&#xdb;" horiz-adv-x="1390" d="M88 1298v33h533v-33h-170v-667q0 -68 0.5 -111.5t4 -103.5t10 -98.5t18 -86t28 -77.5t41.5 -61t57 -48t75 -28t95 -11q61 0 110 18t83 48.5t59 76.5t40 94.5t23.5 112t11.5 119.5t3 125v438q0 149 -56 204.5t-206 55.5h-14v33h585v-33q-150 0 -209 -56t-59 -204v-366 q0 -93 -2.5 -160.5t-12.5 -146.5t-27 -134.5t-48 -110t-73.5 -87.5t-105.5 -53.5t-143 -20.5q-115 0 -202 33t-143.5 90.5t-91.5 143.5t-49.5 184t-14.5 221v667h-150zM397 1464q31 16 59 34t49 32t44 34t35 30.5t32 32.5t25.5 28t24.5 28.5t20 24.5q46 55 94 55t94 -55 q1 -2 20 -24.5t24.5 -28.5t25.5 -28t32 -32.5t35 -30.5t44 -34t49 -32t59 -34l-14 -30l-369 172l-368 -172z" />
<glyph unicode="&#xdc;" horiz-adv-x="1503" d="M88 1298v33h533v-33h-170v-667q0 -68 0.5 -111.5t4 -103.5t10 -98.5t18 -86t28 -77.5t41.5 -61t57 -48t75 -28t95 -11q61 0 110 18t83 48.5t59 76.5t40 94.5t23.5 112t11.5 119.5t3 125v438q0 149 -56 204.5t-206 55.5h-14v33h585v-33q-150 0 -209 -56t-59 -204v-366 q0 -93 -2.5 -160.5t-12.5 -146.5t-27 -134.5t-48 -110t-73.5 -87.5t-105.5 -53.5t-143 -20.5q-115 0 -202 33t-143.5 90.5t-91.5 143.5t-49.5 184t-14.5 221v667h-150zM442 1622q0 51 36 87t87 36t88 -36t37 -87t-37 -88t-88 -37t-87 37t-36 88zM809 1622q0 51 36.5 87 t88.5 36q51 0 87 -36t36 -87t-36 -88t-87 -37q-52 0 -88.5 37t-36.5 88z" />
<glyph unicode="&#xdd;" horiz-adv-x="1224" d="M2 1298v33h549v-33h-170l328 -620l172 334q53 104 53 166q0 38 -15 63t-45 36t-60.5 15t-76.5 4h-16v33h532v-33q-97 -3 -162 -39t-112 -129l-248 -491v-604h170v-33h-532v33h149v583l-366 682h-150zM537 1464q31 16 59 33.5t49 32t43.5 34t35.5 31t31.5 32t25.5 28.5 t24 28.5t20 24.5q46 55 95 55q31 0 50 -18t19 -49q0 -35 -16.5 -54.5t-52.5 -35.5l-369 -172z" />
<glyph unicode="&#xde;" horiz-adv-x="1204" d="M53 1382v31h459v-31h-137v-233h145q168 0 281.5 -23.5t180.5 -73t95.5 -119.5t28.5 -171q0 -88 -28.5 -158t-76.5 -115.5t-114.5 -75.5t-138 -42.5t-152.5 -12.5q-112 0 -221 25v-352h139v-31h-459v31h138v1351h-140zM375 420q107 -21 186 -21q346 0 346 363 q0 190 -113 272t-348 82h-71v-696z" />
<glyph unicode="&#xdf;" horiz-adv-x="1232" d="M80 0v33h108v971q0 146 117 236.5t313 90.5q211 0 321 -53t110 -182q0 -43 -16.5 -77t-41 -54t-61.5 -37.5t-69.5 -26.5t-74 -22t-65.5 -23q-88 -39 -88 -90q0 -34 35 -72q33 -36 102 -70.5t138 -63.5t135 -66.5t107.5 -96t41.5 -135.5q0 -121 -97 -212t-257 -91 q-61 0 -113.5 13t-96 39.5t-68.5 72t-25 106.5q0 62 40 104t101 42q46 0 80.5 -32t34.5 -77t-29 -77.5t-74 -32.5q-66 0 -78 53q-3 18 -18 18q-7 0 -13 -5t-6 -13q0 -28 12 -55t38 -54t78.5 -44t123.5 -17q116 0 176 53.5t60 139.5q0 50 -28.5 89t-73.5 65.5t-100 51 t-110 51t-100 58t-73.5 81t-28.5 111.5q0 42 20 75.5t50.5 54t65.5 45t65.5 48t50.5 64.5t20 94q0 104 -57.5 158.5t-143.5 54.5q-114 0 -165.5 -64.5t-51.5 -225.5v-971h117v-33h-438z" />
<glyph unicode="&#xe0;" horiz-adv-x="1075" d="M90 225q0 66 26.5 116.5t75.5 81.5t106.5 51.5t133 29.5t140 11.5t141.5 0.5v100q0 80 -11.5 136.5t-39 101t-77.5 66.5t-124 22q-70 0 -123 -17.5t-80.5 -45t-41 -55t-13.5 -52.5q0 -8 5.5 -13t12.5 -5q16 0 19 18q5 23 27 38t55 15q44 0 71 -32t27 -78q0 -45 -34.5 -77 t-80.5 -32q-61 0 -101 42t-40 104q0 78 49.5 132t121.5 76.5t159 22.5q85 0 148 -12t107.5 -40t72.5 -65.5t44.5 -95.5t22.5 -123t6 -155v-363q0 -84 37 -84t63 65.5t37 170.5l37 -5q-30 -317 -207 -317q-39 0 -64.5 19t-37 55t-15.5 70.5t-4 82.5h-12q-27 -108 -108 -167.5 t-195 -59.5q-93 0 -167.5 28t-121.5 89.5t-47 148.5zM233 1325q0 31 19.5 49.5t50.5 18.5q47 0 94 -56q2 -3 17.5 -21.5t21 -25t22 -24.5t27 -27.5t29 -27t35.5 -30t38.5 -28t46.5 -30.5t52 -29l-14 -31l-369 172q-37 16 -53.5 35.5t-16.5 54.5zM289 233q0 -99 47 -158 t139 -59q79 0 134.5 48t79.5 119.5t24 158.5v137q-73 2 -129.5 -1.5t-114.5 -18.5t-95.5 -41.5t-61 -73t-23.5 -111.5z" />
<glyph unicode="&#xe1;" horiz-adv-x="1075" d="M90 225q0 66 26.5 116.5t75.5 81.5t106.5 51.5t133 29.5t140 11.5t141.5 0.5v100q0 80 -11.5 136.5t-39 101t-77.5 66.5t-124 22q-70 0 -123 -17.5t-80.5 -45t-41 -55t-13.5 -52.5q0 -8 5.5 -13t12.5 -5q16 0 19 18q5 23 27 38t55 15q44 0 71 -32t27 -78q0 -45 -34.5 -77 t-80.5 -32q-61 0 -101 42t-40 104q0 78 49.5 132t121.5 76.5t159 22.5q85 0 148 -12t107.5 -40t72.5 -65.5t44.5 -95.5t22.5 -123t6 -155v-363q0 -84 37 -84t63 65.5t37 170.5l37 -5q-30 -317 -207 -317q-39 0 -64.5 19t-37 55t-15.5 70.5t-4 82.5h-12q-27 -108 -108 -167.5 t-195 -59.5q-93 0 -167.5 28t-121.5 89.5t-47 148.5zM289 233q0 -99 47 -158t139 -59q79 0 134.5 48t79.5 119.5t24 158.5v137q-73 2 -129.5 -1.5t-114.5 -18.5t-95.5 -41.5t-61 -73t-23.5 -111.5zM350 1094q27 14 52 29t46.5 30.5t38.5 28t35.5 30t29 27t27 27.5t22 24.5 t21 25t17.5 21.5q47 56 94 56q31 0 50.5 -18.5t19.5 -49.5q0 -35 -16.5 -54.5t-53.5 -35.5l-368 -172z" />
<glyph unicode="&#xe2;" horiz-adv-x="1075" d="M90 225q0 66 26.5 116.5t75.5 81.5t106.5 51.5t133 29.5t140 11.5t141.5 0.5v100q0 80 -11.5 136.5t-39 101t-77.5 66.5t-124 22q-70 0 -123 -17.5t-80.5 -45t-41 -55t-13.5 -52.5q0 -8 5.5 -13t12.5 -5q16 0 19 18q5 23 27 38t55 15q44 0 71 -32t27 -78q0 -45 -34.5 -77 t-80.5 -32q-61 0 -101 42t-40 104q0 78 49.5 132t121.5 76.5t159 22.5q85 0 148 -12t107.5 -40t72.5 -65.5t44.5 -95.5t22.5 -123t6 -155v-363q0 -84 37 -84t63 65.5t37 170.5l37 -5q-30 -317 -207 -317q-39 0 -64.5 19t-37 55t-15.5 70.5t-4 82.5h-12q-27 -108 -108 -167.5 t-195 -59.5q-93 0 -167.5 28t-121.5 89.5t-47 148.5zM158 1094q31 16 59 34t48.5 32t44 34t35.5 30.5t31.5 32t25 28t24 28.5t20.5 24q47 56 95 56q47 0 94 -56q2 -3 17.5 -21.5t21 -25t22 -24.5t27 -27.5t29 -27t35.5 -30t38.5 -28t46.5 -30.5t52 -29l-15 -31l-368 172 l-369 -172zM289 233q0 -99 47 -158t139 -59q79 0 134.5 48t79.5 119.5t24 158.5v137q-73 2 -129.5 -1.5t-114.5 -18.5t-95.5 -41.5t-61 -73t-23.5 -111.5z" />
<glyph unicode="&#xe3;" horiz-adv-x="1075" d="M90 225q0 66 26.5 116.5t75.5 81.5t106.5 51.5t133 29.5t140 11.5t141.5 0.5v100q0 80 -11.5 136.5t-39 101t-77.5 66.5t-124 22q-70 0 -123 -17.5t-80.5 -45t-41 -55t-13.5 -52.5q0 -8 5.5 -13t12.5 -5q16 0 19 18q5 23 27 38t55 15q44 0 71 -32t27 -78q0 -45 -34.5 -77 t-80.5 -32q-61 0 -101 42t-40 104q0 78 49.5 132t121.5 76.5t159 22.5q85 0 148 -12t107.5 -40t72.5 -65.5t44.5 -95.5t22.5 -123t6 -155v-363q0 -84 37 -84t63 65.5t37 170.5l37 -5q-30 -317 -207 -317q-39 0 -64.5 19t-37 55t-15.5 70.5t-4 82.5h-12q-27 -108 -108 -167.5 t-195 -59.5q-93 0 -167.5 28t-121.5 89.5t-47 148.5zM199 1149q0 97 40.5 161t114.5 64q52 0 161.5 -53t150.5 -53q102 0 102 104h31q0 -97 -41 -161t-115 -64q-52 0 -161.5 53t-149.5 53q-103 0 -103 -104h-30zM289 233q0 -99 47 -158t139 -59q79 0 134.5 48t79.5 119.5 t24 158.5v137q-73 2 -129.5 -1.5t-114.5 -18.5t-95.5 -41.5t-61 -73t-23.5 -111.5z" />
<glyph unicode="&#xe4;" horiz-adv-x="1075" d="M90 225q0 66 26.5 116.5t75.5 81.5t106.5 51.5t133 29.5t140 11.5t141.5 0.5v100q0 80 -11.5 136.5t-39 101t-77.5 66.5t-124 22q-70 0 -123 -17.5t-80.5 -45t-41 -55t-13.5 -52.5q0 -8 5.5 -13t12.5 -5q16 0 19 18q5 23 27 38t55 15q44 0 71 -32t27 -78q0 -45 -34.5 -77 t-80.5 -32q-61 0 -101 42t-40 104q0 78 49.5 132t121.5 76.5t159 22.5q85 0 148 -12t107.5 -40t72.5 -65.5t44.5 -95.5t22.5 -123t6 -155v-363q0 -84 37 -84t63 65.5t37 170.5l37 -5q-30 -317 -207 -317q-39 0 -64.5 19t-37 55t-15.5 70.5t-4 82.5h-12q-27 -108 -108 -167.5 t-195 -59.5q-93 0 -167.5 28t-121.5 89.5t-47 148.5zM252 1251q0 51 36 87t87 36t88 -36t37 -87t-37 -88t-88 -37t-87 37t-36 88zM289 233q0 -99 47 -158t139 -59q79 0 134.5 48t79.5 119.5t24 158.5v137q-73 2 -129.5 -1.5t-114.5 -18.5t-95.5 -41.5t-61 -73t-23.5 -111.5z M618 1251q0 51 36.5 87t88.5 36q51 0 87 -36t36 -87t-36 -88t-87 -37q-52 0 -88.5 37t-36.5 88z" />
<glyph unicode="&#xe5;" horiz-adv-x="1075" d="M90 225q0 66 26.5 116.5t75.5 81.5t106.5 51.5t133 29.5t140 11.5t141.5 0.5v100q0 80 -11.5 136.5t-39 101t-77.5 66.5t-124 22q-70 0 -123 -17.5t-80.5 -45t-41 -55t-13.5 -52.5q0 -8 5.5 -13t12.5 -5q16 0 19 18q5 23 27 38t55 15q44 0 71 -32t27 -78q0 -45 -34.5 -77 t-80.5 -32q-61 0 -101 42t-40 104q0 78 49.5 132t121.5 76.5t159 22.5q85 0 148 -12t107.5 -40t72.5 -65.5t44.5 -95.5t22.5 -123t6 -155v-363q0 -84 37 -84t63 65.5t37 170.5l37 -5q-30 -317 -207 -317q-39 0 -64.5 19t-37 55t-15.5 70.5t-4 82.5h-12q-27 -108 -108 -167.5 t-195 -59.5q-93 0 -167.5 28t-121.5 89.5t-47 148.5zM289 233q0 -99 47 -158t139 -59q79 0 134.5 48t79.5 119.5t24 158.5v137q-73 2 -129.5 -1.5t-114.5 -18.5t-95.5 -41.5t-61 -73t-23.5 -111.5zM391 1249q0 51 35 87t86 36q52 0 87.5 -36t35.5 -87q0 -53 -35.5 -89 t-87.5 -36q-51 0 -86 36t-35 89zM428 1249q0 -35 25 -61.5t59 -26.5q35 0 60.5 26.5t25.5 61.5q0 34 -25.5 60t-60.5 26q-34 0 -59 -26t-25 -60z" />
<glyph unicode="&#xe6;" horiz-adv-x="1607" d="M90 225q0 66 26.5 116.5t75.5 81.5t106.5 51.5t133 29.5t140 11.5t141.5 0.5v100q0 80 -11.5 136.5t-39 101t-77.5 66.5t-124 22q-70 0 -123 -17.5t-80.5 -45t-41 -55t-13.5 -52.5q0 -8 5.5 -13t12.5 -5q16 0 19 18q5 23 27 38t55 15q44 0 71 -32t27 -78q0 -45 -34.5 -77 t-80.5 -32q-61 0 -101 42t-40 104q0 78 49.5 132t121.5 76.5t159 22.5q243 0 325 -139q59 66 149.5 102.5t200.5 36.5q72 0 135 -15t114.5 -45.5t81.5 -82.5t30 -119q0 -53 -16.5 -94.5t-42.5 -69.5t-68 -48.5t-83.5 -32t-98.5 -18t-104 -8t-109 -1.5h-97v-60 q0 -80 16 -145.5t48.5 -117.5t88 -81t130.5 -29q118 0 193.5 78t105.5 201l37 -4q-34 -151 -132.5 -241.5t-250.5 -90.5q-102 0 -188 33.5t-140 93.5q-5 -5 -14.5 -13.5t-45.5 -30.5t-77.5 -39t-110.5 -30.5t-145 -13.5q-93 0 -167.5 28t-121.5 89.5t-47 148.5zM289 233 q0 -99 47 -158t139 -59q79 0 134.5 48t79.5 119.5t24 158.5v137q-73 2 -129.5 -1.5t-114.5 -18.5t-95.5 -41.5t-61 -73t-23.5 -111.5zM911 485h72q66 0 114.5 5t95 20t75 40.5t46 68.5t17.5 102q0 103 -44 165t-136 62q-67 0 -116 -36t-75 -97t-37.5 -128.5t-11.5 -143.5 v-58z" />
<glyph unicode="&#xe7;" horiz-adv-x="940" d="M115 471q0 236 112 374t332 138q142 0 230 -61.5t88 -186.5q0 -62 -40.5 -103.5t-101.5 -41.5q-46 0 -80 31.5t-34 76.5q0 46 27 78.5t71 32.5q33 0 55 -15t27 -38q3 -19 18 -19q7 0 13 5.5t6 13.5q0 31 -14 62t-41.5 59.5t-77.5 46.5t-113 18q-279 0 -279 -459 q0 -467 283 -467q107 0 175 78t95 201l37 -4q-30 -151 -122.5 -241.5t-233.5 -90.5q-65 0 -127 16l-47 -125q70 46 135 46q32 0 64.5 -11t63.5 -33t50 -63t19 -94q0 -79 -50.5 -127.5t-128.5 -48.5q-61 0 -103 39t-42 98q0 48 32 81.5t79 33.5q45 0 76.5 -28t31.5 -71 q0 -33 -15 -54t-38 -26q-19 -3 -19 -18q0 -18 21 -18q47 0 83 39.5t36 99.5q0 78 -50 121t-108 43q-46 0 -94 -26t-72 -62l-29 34l68 183q-132 48 -200 176.5t-68 306.5z" />
<glyph unicode="&#xe8;" horiz-adv-x="1003" d="M109 471q0 231 119 371.5t337 140.5q72 0 135 -15t114.5 -45.5t81.5 -82.5t30 -119q0 -53 -16.5 -94.5t-42.5 -69.5t-68 -48.5t-83.5 -32t-99 -18t-104.5 -8t-109 -1.5h-96v-60q0 -80 16 -145.5t48.5 -117.5t88 -81t130.5 -29q118 0 193.5 78t105.5 201l37 -4 q-34 -151 -132.5 -241.5t-250.5 -90.5q-213 0 -323.5 140.5t-110.5 371.5zM289 1325q0 31 19 49.5t50 18.5q48 0 95 -56q2 -2 20.5 -24t24 -28.5t25 -28t31.5 -32t35.5 -30.5t44 -34t48.5 -32t59 -34l-14 -31l-369 172q-36 16 -52.5 35.5t-16.5 54.5zM307 485h72 q66 0 114.5 5t95 20t75 40.5t46 68.5t17.5 102q0 103 -44 165t-136 62q-67 0 -116 -36t-75 -97t-37.5 -128.5t-11.5 -143.5v-58z" />
<glyph unicode="&#xe9;" horiz-adv-x="1003" d="M109 471q0 231 119 371.5t337 140.5q72 0 135 -15t114.5 -45.5t81.5 -82.5t30 -119q0 -53 -16.5 -94.5t-42.5 -69.5t-68 -48.5t-83.5 -32t-99 -18t-104.5 -8t-109 -1.5h-96v-60q0 -80 16 -145.5t48.5 -117.5t88 -81t130.5 -29q118 0 193.5 78t105.5 201l37 -4 q-34 -151 -132.5 -241.5t-250.5 -90.5q-213 0 -323.5 140.5t-110.5 371.5zM307 485h72q66 0 114.5 5t95 20t75 40.5t46 68.5t17.5 102q0 103 -44 165t-136 62q-67 0 -116 -36t-75 -97t-37.5 -128.5t-11.5 -143.5v-58zM367 1094q31 16 59 34t48.5 32t44 34t35.5 30.5t31.5 32 t25 28t24 28.5t20.5 24q47 56 95 56q31 0 50 -18.5t19 -49.5q0 -35 -16.5 -54.5t-52.5 -35.5l-369 -172z" />
<glyph unicode="&#xea;" horiz-adv-x="1003" d="M109 471q0 231 119 371.5t337 140.5q72 0 135 -15t114.5 -45.5t81.5 -82.5t30 -119q0 -53 -16.5 -94.5t-42.5 -69.5t-68 -48.5t-83.5 -32t-99 -18t-104.5 -8t-109 -1.5h-96v-60q0 -80 16 -145.5t48.5 -117.5t88 -81t130.5 -29q118 0 193.5 78t105.5 201l37 -4 q-34 -151 -132.5 -241.5t-250.5 -90.5q-213 0 -323.5 140.5t-110.5 371.5zM164 1094q27 14 52 29t46.5 30.5t38.5 28t35.5 30t29 27t27 27.5t22 24.5t21 25t17.5 21.5q47 56 94 56t94 -56q2 -3 17.5 -21.5t21 -25t22 -24.5t27 -27.5t29 -27t35.5 -30t38.5 -28t46.5 -30.5 t52 -29l-15 -31l-368 172l-369 -172zM307 485h72q66 0 114.5 5t95 20t75 40.5t46 68.5t17.5 102q0 103 -44 165t-136 62q-67 0 -116 -36t-75 -97t-37.5 -128.5t-11.5 -143.5v-58z" />
<glyph unicode="&#xeb;" horiz-adv-x="1003" d="M109 471q0 231 119 371.5t337 140.5q72 0 135 -15t114.5 -45.5t81.5 -82.5t30 -119q0 -53 -16.5 -94.5t-42.5 -69.5t-68 -48.5t-83.5 -32t-99 -18t-104.5 -8t-109 -1.5h-96v-60q0 -80 16 -145.5t48.5 -117.5t88 -81t130.5 -29q118 0 193.5 78t105.5 201l37 -4 q-34 -151 -132.5 -241.5t-250.5 -90.5q-213 0 -323.5 140.5t-110.5 371.5zM240 1251q0 51 35.5 87t86.5 36t88 -36t37 -87t-37 -88t-88 -37t-86.5 37t-35.5 88zM307 485h72q66 0 114.5 5t95 20t75 40.5t46 68.5t17.5 102q0 103 -44 165t-136 62q-67 0 -116 -36t-75 -97 t-37.5 -128.5t-11.5 -143.5v-58zM606 1251q0 51 36.5 87t88.5 36q51 0 87 -36t36 -87t-36 -88t-87 -37q-52 0 -88.5 37t-36.5 88z" />
<glyph unicode="&#xec;" horiz-adv-x="606" d="M6 1325q0 31 19.5 49.5t50.5 18.5q47 0 94 -56q16 -22 44 -52.5t57.5 -60t79 -64.5t108.5 -66l-15 -31l-368 172q-37 16 -53.5 35.5t-16.5 54.5zM76 911v31h43q154 0 284 27v-938h136v-31h-453v31h135v880h-145z" />
<glyph unicode="&#xed;" horiz-adv-x="606" d="M76 911v31h43q154 0 284 27v-938h136v-31h-453v31h135v880h-145zM143 1094q27 14 52 29t46.5 30.5t38.5 28t35.5 30t29 27t27 27.5t22 24.5t21 25t17.5 21.5q47 56 94 56q31 0 50.5 -18.5t19.5 -49.5q0 -35 -16.5 -54.5t-53.5 -35.5l-368 -172z" />
<glyph unicode="&#xee;" horiz-adv-x="606" d="M-90 1094q27 14 52 29t46.5 30.5t38.5 28t35.5 30t29 27t27 27.5t22 24.5t21 25t17.5 21.5q47 56 94 56t94 -56q2 -3 17.5 -21.5t21 -25t22 -24.5t27 -27.5t29 -27t35.5 -30t38.5 -28t46.5 -30.5t52 -29l-14 -31l-369 172l-369 -172zM76 911v31h43q154 0 284 27v-938h136 v-31h-453v31h135v880h-145z" />
<glyph unicode="&#xef;" horiz-adv-x="606" d="M-14 1251q0 51 36 87t87 36t87.5 -36t36.5 -87t-36.5 -88t-87.5 -37t-87 37t-36 88zM76 911v31h43q154 0 284 27v-938h136v-31h-453v31h135v880h-145zM352 1251q0 51 36.5 87t88.5 36q51 0 87 -36t36 -87t-36 -88t-87 -37q-52 0 -88.5 37t-36.5 88z" />
<glyph unicode="&#xf0;" horiz-adv-x="1036" d="M109 403q0 122 50 223.5t144.5 162.5t214.5 61q91 0 166 -35l16 8q-20 177 -159 310l-224 -105l-16 39l205 96q-110 89 -277 158l13 31q195 -54 344 -152l211 100l16 -38l-188 -88q303 -226 303 -678q0 -141 -48.5 -263t-143.5 -199t-218 -77q-120 0 -214.5 60.5 t-144.5 162t-50 223.5zM305 403q0 -71 4.5 -126.5t18 -111t36.5 -92t62 -59t92 -22.5t92 22.5t62 59t36.5 92t18 111t4.5 126.5q0 59 -3.5 106.5t-11.5 96.5t-23.5 85t-38.5 65t-57.5 44t-78.5 15t-78.5 -15t-57.5 -44t-38.5 -65t-23.5 -85t-11.5 -96.5t-3.5 -106.5z" />
<glyph unicode="&#xf1;" horiz-adv-x="1202" d="M70 911v31h43q156 0 288 27v-205h13q34 98 117 158.5t186 60.5q93 0 155 -29t95 -87t46 -130t13 -174v-532h135v-31h-452v31h135v504v58t-1.5 58t-4.5 60t-8.5 54.5t-14 52.5t-21 43t-28.5 35.5t-38.5 21t-49.5 8.5q-67 0 -118.5 -33t-81.5 -84t-49 -123t-25.5 -140 t-6.5 -145v-370h135v-31h-452v31h135v880h-145zM319 1149q0 97 41 161t115 64q52 0 161 -53t150 -53q103 0 103 104h31q0 -97 -41 -161t-115 -64q-52 0 -161.5 53t-149.5 53q-103 0 -103 -104h-31z" />
<glyph unicode="&#xf2;" horiz-adv-x="1118" d="M109 471q0 147 51 261.5t154 182.5t245 68t245.5 -68t154.5 -182.5t51 -261.5t-51 -261.5t-154.5 -182.5t-245.5 -68t-245 68t-154 182.5t-51 261.5zM246 1325q0 31 19 49.5t50 18.5q48 0 95 -56q2 -2 20.5 -24t24 -28.5t25 -28t31.5 -32t35.5 -30.5t44 -34t48.5 -32 t59 -34l-14 -31l-369 172q-36 16 -52.5 35.5t-16.5 54.5zM307 471q0 -64 3 -114.5t11.5 -109t26.5 -101t44.5 -78.5t69 -55t97.5 -19t97.5 19t69 55t44.5 78.5t26.5 101t11.5 109t3 114.5t-3 114.5t-11.5 109t-26.5 101t-44.5 78.5t-69 55t-97.5 19t-97.5 -19t-69 -55 t-44.5 -78.5t-26.5 -101t-11.5 -109t-3 -114.5z" />
<glyph unicode="&#xf3;" horiz-adv-x="1118" d="M109 471q0 147 51 261.5t154 182.5t245 68t245.5 -68t154.5 -182.5t51 -261.5t-51 -261.5t-154.5 -182.5t-245.5 -68t-245 68t-154 182.5t-51 261.5zM307 471q0 -64 3 -114.5t11.5 -109t26.5 -101t44.5 -78.5t69 -55t97.5 -19t97.5 19t69 55t44.5 78.5t26.5 101t11.5 109 t3 114.5t-3 114.5t-11.5 109t-26.5 101t-44.5 78.5t-69 55t-97.5 19t-97.5 -19t-69 -55t-44.5 -78.5t-26.5 -101t-11.5 -109t-3 -114.5zM387 1094q27 14 52 29t46.5 30.5t38.5 28t35.5 30t29 27t27 27.5t22 24.5t21 25t17.5 21.5q47 56 94 56q31 0 50.5 -18.5t19.5 -49.5 q0 -35 -16.5 -54.5t-53.5 -35.5l-369 -172z" />
<glyph unicode="&#xf4;" horiz-adv-x="1118" d="M109 471q0 147 51 261.5t154 182.5t245 68t245.5 -68t154.5 -182.5t51 -261.5t-51 -261.5t-154.5 -182.5t-245.5 -68t-245 68t-154 182.5t-51 261.5zM176 1094q27 14 52 29t46.5 30.5t38.5 28t35.5 30t29 27t27 27.5t22 24.5t21 25t17.5 21.5q47 56 94 56t94 -56 q16 -22 44 -52.5t57.5 -60t79 -64.5t108.5 -66l-14 -31l-369 172l-369 -172zM307 471q0 -64 3 -114.5t11.5 -109t26.5 -101t44.5 -78.5t69 -55t97.5 -19t97.5 19t69 55t44.5 78.5t26.5 101t11.5 109t3 114.5t-3 114.5t-11.5 109t-26.5 101t-44.5 78.5t-69 55t-97.5 19 t-97.5 -19t-69 -55t-44.5 -78.5t-26.5 -101t-11.5 -109t-3 -114.5z" />
<glyph unicode="&#xf5;" horiz-adv-x="1118" d="M109 471q0 147 51 261.5t154 182.5t245 68t245.5 -68t154.5 -182.5t51 -261.5t-51 -261.5t-154.5 -182.5t-245.5 -68t-245 68t-154 182.5t-51 261.5zM262 1149q0 97 41 161t115 64q52 0 161 -53t150 -53q102 0 102 104h31q0 -97 -40.5 -161t-114.5 -64q-52 0 -162 53 t-150 53q-102 0 -102 -104h-31zM307 471q0 -64 3 -114.5t11.5 -109t26.5 -101t44.5 -78.5t69 -55t97.5 -19t97.5 19t69 55t44.5 78.5t26.5 101t11.5 109t3 114.5t-3 114.5t-11.5 109t-26.5 101t-44.5 78.5t-69 55t-97.5 19t-97.5 -19t-69 -55t-44.5 -78.5t-26.5 -101 t-11.5 -109t-3 -114.5z" />
<glyph unicode="&#xf6;" horiz-adv-x="1118" d="M109 471q0 147 51 261.5t154 182.5t245 68t245.5 -68t154.5 -182.5t51 -261.5t-51 -261.5t-154.5 -182.5t-245.5 -68t-245 68t-154 182.5t-51 261.5zM254 1251q0 51 36 87t87 36t88 -36t37 -87t-37 -88t-88 -37t-87 37t-36 88zM307 471q0 -64 3 -114.5t11.5 -109 t26.5 -101t44.5 -78.5t69 -55t97.5 -19t97.5 19t69 55t44.5 78.5t26.5 101t11.5 109t3 114.5t-3 114.5t-11.5 109t-26.5 101t-44.5 78.5t-69 55t-97.5 19t-97.5 -19t-69 -55t-44.5 -78.5t-26.5 -101t-11.5 -109t-3 -114.5zM621 1251q0 51 36 87t88 36q51 0 87 -36t36 -87 t-36 -88t-87 -37q-52 0 -88 37t-36 88z" />
<glyph unicode="&#xf7;" horiz-adv-x="1040" d="M35 463v43h971v-43h-971zM352 145q0 70 48.5 119t117.5 49q70 0 119 -48.5t49 -119.5q0 -69 -49 -117t-119 -48q-69 0 -117.5 48t-48.5 117zM352 831q0 70 48.5 119t117.5 49q70 0 119 -48.5t49 -119.5q0 -69 -49 -117t-119 -48q-69 0 -117.5 48t-48.5 117zM395 145 q0 -51 36 -86.5t87 -35.5q52 0 87.5 35.5t35.5 86.5q0 53 -35.5 88t-87.5 35q-51 0 -87 -35.5t-36 -87.5zM395 831q0 -51 36 -86.5t87 -35.5q52 0 87.5 35.5t35.5 86.5q0 53 -35.5 88t-87.5 35q-51 0 -87 -35.5t-36 -87.5z" />
<glyph unicode="&#xf8;" horiz-adv-x="1118" d="M109 471q0 147 51 261.5t154 182.5t245 68q124 0 215 -51l57 121h52l-68 -146q94 -65 144.5 -179.5t50.5 -256.5q0 -147 -51 -261.5t-154.5 -182.5t-245.5 -68q-86 0 -174 31l-63 -137h-50l72 155q-114 59 -174.5 181.5t-60.5 281.5zM307 471q0 -279 74 -387l358 770 q-64 94 -180 94q-55 0 -97.5 -19t-69 -55t-44.5 -78.5t-26.5 -101t-11.5 -109t-3 -114.5zM412 45q57 -51 147 -51q55 0 97.5 19t69 55t44.5 78.5t26.5 101t11.5 109t3 114.5q0 226 -45 332z" />
<glyph unicode="&#xf9;" horiz-adv-x="1226" d="M72 911v31h43q154 0 284 27v-561v-58t1.5 -58t4 -60t8 -55t12.5 -53t19 -43t26.5 -35.5t35 -21t45.5 -8.5q67 0 118.5 33t81 84t48.5 123t25.5 140t6.5 145v370h-145v31h43q155 0 285 27v-938h135v-31h-322v178h-12q-34 -98 -117 -158.5t-186 -60.5q-73 0 -126.5 20.5 t-85.5 55t-51 89.5t-25.5 114.5t-6.5 140.5v532h-145zM287 1325q0 31 19 49.5t50 18.5q48 0 95 -56q2 -2 20.5 -24t24 -28.5t25 -28t31.5 -32t35.5 -30.5t44 -34t48.5 -32t59 -34l-14 -31l-369 172q-36 16 -52.5 35.5t-16.5 54.5z" />
<glyph unicode="&#xfa;" horiz-adv-x="1226" d="M72 911v31h43q154 0 284 27v-561v-58t1.5 -58t4 -60t8 -55t12.5 -53t19 -43t26.5 -35.5t35 -21t45.5 -8.5q67 0 118.5 33t81 84t48.5 123t25.5 140t6.5 145v370h-145v31h43q155 0 285 27v-938h135v-31h-322v178h-12q-34 -98 -117 -158.5t-186 -60.5q-73 0 -126.5 20.5 t-85.5 55t-51 89.5t-25.5 114.5t-6.5 140.5v532h-145zM463 1094q27 14 52 29t46.5 30.5t38.5 28t35.5 30t29 27t27 27.5t22 24.5t21 25t17.5 21.5q47 56 94 56q31 0 50 -18.5t19 -49.5q0 -35 -16.5 -54.5t-52.5 -35.5l-369 -172z" />
<glyph unicode="&#xfb;" horiz-adv-x="1226" d="M72 911v31h43q154 0 284 27v-561v-58t1.5 -58t4 -60t8 -55t12.5 -53t19 -43t26.5 -35.5t35 -21t45.5 -8.5q67 0 118.5 33t81 84t48.5 123t25.5 140t6.5 145v370h-145v31h43q155 0 285 27v-938h135v-31h-322v178h-12q-34 -98 -117 -158.5t-186 -60.5q-73 0 -126.5 20.5 t-85.5 55t-51 89.5t-25.5 114.5t-6.5 140.5v532h-145zM233 1094q27 14 52 29t46.5 30.5t38.5 28t35.5 30t29 27t27 27.5t22 24.5t21 25t17.5 21.5q47 56 94 56q48 0 95 -56q2 -2 20.5 -24t24 -28.5t25 -28t31.5 -32t35.5 -30.5t44 -34t48.5 -32t59 -34l-14 -31l-369 172 l-368 -172z" />
<glyph unicode="&#xfc;" horiz-adv-x="1226" d="M72 911v31h43q154 0 284 27v-561v-58t1.5 -58t4 -60t8 -55t12.5 -53t19 -43t26.5 -35.5t35 -21t45.5 -8.5q67 0 118.5 33t81 84t48.5 123t25.5 140t6.5 145v370h-145v31h43q155 0 285 27v-938h135v-31h-322v178h-12q-34 -98 -117 -158.5t-186 -60.5q-73 0 -126.5 20.5 t-85.5 55t-51 89.5t-25.5 114.5t-6.5 140.5v532h-145zM309 1251q0 51 36 87t87 36t88 -36t37 -87t-37 -88t-88 -37t-87 37t-36 88zM676 1251q0 51 36.5 87t88.5 36q51 0 87 -36t36 -87t-36 -88t-87 -37q-52 0 -88.5 37t-36.5 88z" />
<glyph unicode="&#xfd;" horiz-adv-x="983" d="M8 911v31h43q157 0 289 27v-125q0 -188 29.5 -331.5t90 -227.5t146.5 -84q33 0 73 22.5t78.5 65t70.5 97.5t51.5 125.5t19.5 143.5q0 100 -29 177t-90 102q-20 10 -47 10q-26 0 -26 -18q0 -16 18 -19q24 -5 39.5 -26.5t15.5 -55.5q-2 -46 -29.5 -74t-78.5 -28 q-48 0 -80.5 35.5t-32.5 83.5q0 63 45 102t109 39q77 0 129 -45.5t73 -114.5t21 -159q0 -161 -70 -292t-200 -218q-8 -5 -39 -25.5t-43 -28.5t-40.5 -28.5t-41.5 -32t-37 -33t-35.5 -37t-27.5 -39t-23.5 -44t-13 -46t-5.5 -51.5q0 -102 51 -164.5t115 -62.5q21 0 21 18 q0 16 -19 19q-23 5 -38 27t-15 55q0 43 32 70.5t77 27.5q47 0 78.5 -33.5t31.5 -81.5q0 -60 -42.5 -100.5t-102.5 -40.5q-102 0 -163.5 72.5t-61.5 187.5q0 173 180 305l-2 8q-65 4 -125.5 49t-111 128t-81 219t-30.5 305v114h-146zM416 1094q27 14 52 29t46.5 30.5t38.5 28 t35.5 30t29 27t27 27.5t22 24.5t21 25t17.5 21.5q47 56 94 56q31 0 50 -18.5t19 -49.5q0 -35 -16.5 -54.5t-52.5 -35.5l-369 -172z" />
<glyph unicode="&#xfe;" horiz-adv-x="1167" d="M68 1382v31h43q154 0 284 27v-684h13q37 104 109 165.5t173 61.5q76 0 138 -27.5t103.5 -75t69 -112.5t40 -137.5t12.5 -153.5q0 -85 -12.5 -159.5t-41.5 -141t-72 -114t-107 -75.5t-144 -28q-90 0 -160 43.5t-108 124.5h-13v-537h135v-30h-452v30h135v1792h-145z M391 399q0 -74 13.5 -139.5t42.5 -121.5t79.5 -89t118.5 -33q47 0 83.5 19.5t58.5 57.5t36 79t20.5 99t8.5 102t2 104q0 47 -1.5 86t-7 87t-14.5 85.5t-25 74.5t-38 61.5t-54.5 39.5t-72.5 15q-61 0 -111 -46t-79 -116.5t-44.5 -146.5t-15.5 -144v-74z" />
<glyph unicode="&#xff;" horiz-adv-x="983" d="M8 911v31h43q157 0 289 27v-125q0 -188 29.5 -331.5t90 -227.5t146.5 -84q33 0 73 22.5t78.5 65t70.5 97.5t51.5 125.5t19.5 143.5q0 100 -29 177t-90 102q-20 10 -47 10q-26 0 -26 -18q0 -16 18 -19q24 -5 39.5 -26.5t15.5 -55.5q-2 -46 -29.5 -74t-78.5 -28 q-48 0 -80.5 35.5t-32.5 83.5q0 63 45 102t109 39q77 0 129 -45.5t73 -114.5t21 -159q0 -161 -70 -292t-200 -218q-8 -5 -39 -25.5t-43 -28.5t-40.5 -28.5t-41.5 -32t-37 -33t-35.5 -37t-27.5 -39t-23.5 -44t-13 -46t-5.5 -51.5q0 -102 51 -164.5t115 -62.5q21 0 21 18 q0 16 -19 19q-23 5 -38 27t-15 55q0 43 32 70.5t77 27.5q47 0 78.5 -33.5t31.5 -81.5q0 -60 -42.5 -100.5t-102.5 -40.5q-102 0 -163.5 72.5t-61.5 187.5q0 173 180 305l-2 8q-65 4 -125.5 49t-111 128t-81 219t-30.5 305v114h-146zM211 1251q0 51 36 87t87 36t88 -36 t37 -87t-37 -88t-88 -37t-87 37t-36 88zM578 1251q0 51 36 87t88 36q51 0 87 -36t36 -87t-36 -88t-87 -37q-52 0 -88 37t-36 88z" />
<glyph unicode="&#x152;" horiz-adv-x="2064" d="M106 672q0 112 24 216t73 192t117.5 153t162.5 102t203 37q119 0 217 -43v2h985v-426h-33q0 87 -6.5 145.5t-25 104.5t-45.5 72t-75 43t-106.5 22.5t-146.5 5.5h-184v-587h108q149 0 203.5 56t54.5 206h35v-563h-35q0 151 -55 209.5t-203 58.5h-108v-645h166 q103 0 171 6.5t122.5 28t84.5 51.5t51 87t30 123.5t14 172.5h32l-20 -502h-1014q-108 -41 -217 -41q-112 0 -206.5 37.5t-162.5 103.5t-116 156t-71.5 195.5t-23.5 220.5zM356 672q0 -64 1 -107.5t4 -105.5t9.5 -104.5t18 -94.5t28.5 -87t42 -70.5t56.5 -56.5t75 -34.5 t95.5 -13.5q65 0 116 22t85.5 56.5t59 90t37.5 108.5t20.5 128t9.5 132.5t2 136.5t-2 135.5t-9.5 130.5t-20.5 126t-37.5 106t-59 87.5t-85.5 54.5t-116 21t-116 -21t-85.5 -54.5t-59 -87.5t-37.5 -106t-20.5 -126t-9.5 -130.5t-2 -135.5z" />
<glyph unicode="&#x153;" horiz-adv-x="1705" d="M109 471q0 147 51 261.5t154 182.5t245 68q227 0 350 -168q123 168 359 168q98 0 176.5 -25.5t131 -86.5t52.5 -150q0 -53 -16.5 -94.5t-42.5 -69.5t-68 -48.5t-83.5 -32t-98.5 -18t-104 -8t-109 -1.5h-96v-60q0 -80 15.5 -145.5t48 -117.5t88 -81t130.5 -29 q118 0 193.5 78t105.5 201l37 -4q-34 -151 -132.5 -241.5t-250.5 -90.5q-226 0 -340 162q-123 -162 -346 -162q-142 0 -245 68t-154 182.5t-51 261.5zM307 471q0 -64 3 -114.5t11.5 -109t26.5 -101t44.5 -78.5t69 -55t97.5 -19q63 0 110 27t73 68.5t42 105t21 121.5t6 133 v45q-1 62 -4.5 111t-13 104t-27.5 95.5t-44.5 74.5t-68 51.5t-94.5 17.5q-55 0 -97.5 -19t-69 -55t-44.5 -78.5t-26.5 -101t-11.5 -109t-3 -114.5zM1010 485h71q66 0 114.5 5t95 20t75.5 40.5t46.5 68.5t17.5 102q0 103 -44.5 165t-136.5 62q-67 0 -116 -36t-74.5 -97 t-37 -128.5t-11.5 -143.5v-58z" />
<glyph unicode="&#x178;" horiz-adv-x="1316" d="M74 1298v33h549v-33h-170l327 -620l172 334q54 106 54 166q0 38 -15 63t-45 36t-60.5 15t-76.5 4h-16v33h532v-33q-97 -3 -162 -39t-112 -129l-248 -491v-604h170v-33h-533v33h150v583l-367 682h-149zM412 1622q0 51 36 87t87 36t87.5 -36t36.5 -87t-36.5 -88t-87.5 -37 t-87 37t-36 88zM778 1622q0 51 36.5 87t88.5 36q51 0 87 -36t36 -87t-36 -88t-87 -37q-52 0 -88.5 37t-36.5 88z" />
<glyph unicode="&#x2c6;" horiz-adv-x="765" d="M0 1094q27 14 52 29t46.5 30.5t38.5 28t35.5 30t29 27t27 27.5t22 24.5t21 25t17.5 21.5q47 56 94 56t94 -56q2 -3 17.5 -21.5t21 -25t22 -24.5t27 -27.5t29 -27t35.5 -30t38.5 -28t46.5 -30.5t52 -29l-14 -31l-369 172l-369 -172z" />
<glyph unicode="&#x2dc;" horiz-adv-x="960" d="M199 1149q0 97 40.5 161t114.5 64q52 0 161.5 -53t150.5 -53q102 0 102 104h31q0 -97 -41 -161t-115 -64q-52 0 -161.5 53t-149.5 53q-103 0 -103 -104h-30z" />
<glyph unicode="&#x2000;" horiz-adv-x="893" />
<glyph unicode="&#x2001;" horiz-adv-x="1786" />
<glyph unicode="&#x2002;" horiz-adv-x="893" />
<glyph unicode="&#x2003;" horiz-adv-x="1786" />
<glyph unicode="&#x2004;" horiz-adv-x="595" />
<glyph unicode="&#x2005;" horiz-adv-x="446" />
<glyph unicode="&#x2006;" horiz-adv-x="297" />
<glyph unicode="&#x2007;" horiz-adv-x="297" />
<glyph unicode="&#x2008;" horiz-adv-x="223" />
<glyph unicode="&#x2009;" horiz-adv-x="357" />
<glyph unicode="&#x200a;" horiz-adv-x="99" />
<glyph unicode="&#x2010;" horiz-adv-x="632" d="M106 463v43h406v-43h-406z" />
<glyph unicode="&#x2011;" horiz-adv-x="632" d="M106 463v43h406v-43h-406z" />
<glyph unicode="&#x2012;" horiz-adv-x="632" d="M106 463v43h406v-43h-406z" />
<glyph unicode="&#x2013;" horiz-adv-x="991" d="M10 463v43h971v-43h-971z" />
<glyph unicode="&#x2014;" horiz-adv-x="1953" d="M2 463v43h1940v-43h-1940z" />
<glyph unicode="&#x2018;" horiz-adv-x="466" d="M92 1155q0 79 51 145.5t129 110.5l19 -31q-69 -39 -115.5 -98t-46.5 -127q0 -60 36 -96.5t83 -36.5q20 0 20 18q0 16 -18 19q-23 5 -38 25.5t-15 52.5q0 43 31.5 70.5t76.5 27.5q47 0 79 -33.5t32 -81.5q0 -59 -42.5 -98t-103.5 -39q-78 0 -128 47t-50 125z" />
<glyph unicode="&#x2019;" horiz-adv-x="466" d="M51 1274q0 59 42.5 98t103.5 39q78 0 128 -47t50 -125q0 -79 -51 -145.5t-129 -110.5l-19 31q69 39 115.5 98t46.5 127q0 60 -36 96.5t-83 36.5q-20 0 -20 -18q0 -16 18 -19q23 -5 38 -25.5t15 -52.5q0 -43 -31.5 -70.5t-76.5 -27.5q-47 0 -79 33.5t-32 81.5z" />
<glyph unicode="&#x201a;" horiz-adv-x="516" d="M78 94q0 59 42 98t103 39q78 0 128 -47t50 -125q0 -79 -51 -145.5t-129 -110.5l-18 31q69 39 115.5 98t46.5 127q0 60 -36 97t-83 37q-21 0 -21 -19q0 -15 19 -18q23 -5 38 -25.5t15 -52.5q0 -43 -32 -70.5t-77 -27.5q-47 0 -78.5 33t-31.5 81z" />
<glyph unicode="&#x201c;" horiz-adv-x="845" d="M92 1155q0 79 51 145.5t129 110.5l19 -31q-69 -39 -115.5 -98t-46.5 -127q0 -60 36 -96.5t83 -36.5q20 0 20 18q0 16 -18 19q-23 5 -38 25.5t-15 52.5q0 43 31.5 70.5t76.5 27.5q47 0 79 -33.5t32 -81.5q0 -59 -42.5 -98t-103.5 -39q-78 0 -128 47t-50 125zM471 1155 q0 79 51 145.5t129 110.5l19 -31q-69 -39 -115.5 -98t-46.5 -127q0 -60 36 -96.5t83 -36.5q20 0 20 18q0 16 -18 19q-23 5 -38.5 25.5t-15.5 52.5q0 43 32 70.5t77 27.5q47 0 79 -33.5t32 -81.5q0 -59 -42.5 -98t-103.5 -39q-78 0 -128 47t-50 125z" />
<glyph unicode="&#x201d;" horiz-adv-x="845" d="M51 1274q0 59 42.5 98t103.5 39q78 0 128 -47t50 -125q0 -79 -51 -145.5t-129 -110.5l-19 31q69 39 115.5 98t46.5 127q0 60 -36 96.5t-83 36.5q-20 0 -20 -18q0 -16 18 -19q23 -5 38 -25.5t15 -52.5q0 -43 -31.5 -70.5t-76.5 -27.5q-47 0 -79 33.5t-32 81.5zM430 1274 q0 59 42 98t103 39q78 0 128.5 -47t50.5 -125q0 -79 -51.5 -145.5t-129.5 -110.5l-18 31q69 39 115.5 98t46.5 127q0 60 -36 96.5t-83 36.5q-20 0 -20 -18q0 -16 18 -19q23 -5 38 -25.5t15 -52.5q0 -43 -31.5 -70.5t-76.5 -27.5q-47 0 -79 33.5t-32 81.5z" />
<glyph unicode="&#x201e;" horiz-adv-x="956" d="M78 94q0 59 42 98t103 39q78 0 128 -47t50 -125q0 -79 -51 -145.5t-129 -110.5l-18 31q69 39 115.5 98t46.5 127q0 60 -36 97t-83 37q-21 0 -21 -19q0 -15 19 -18q23 -5 38 -25.5t15 -52.5q0 -43 -32 -70.5t-77 -27.5q-47 0 -78.5 33t-31.5 81zM518 94q0 59 42.5 98 t103.5 39q78 0 128 -47t50 -125q0 -79 -51 -145.5t-129 -110.5l-19 31q69 39 115.5 98t46.5 127q0 60 -36 97t-83 37q-20 0 -20 -19q0 -15 18 -18q23 -5 38 -25.5t15 -52.5q0 -43 -31.5 -70.5t-76.5 -27.5q-47 0 -79 33t-32 81z" />
<glyph unicode="&#x2022;" horiz-adv-x="1116" d="M250 774q0 135 90.5 228.5t214.5 93.5t215.5 -94t91.5 -228q0 -132 -91 -223.5t-216 -91.5q-127 0 -216 91t-89 224z" />
<glyph unicode="&#x202f;" horiz-adv-x="357" />
<glyph unicode="&#x2039;" horiz-adv-x="411" d="M102 160l244 325l-244 326l35 27l264 -353l-264 -352z" />
<glyph unicode="&#x203a;" horiz-adv-x="411" d="M10 485l264 353l35 -27l-243 -326l243 -325l-35 -27z" />
<glyph unicode="&#x205f;" horiz-adv-x="446" />
<glyph unicode="&#x20ac;" horiz-adv-x="983" d="M0 430v33h145v90h-145v33h150q23 205 160.5 319.5t334.5 114.5q54 0 101 -14t77.5 -28.5t42.5 -14.5q49 0 49 57h33v-395h-33q-19 175 -73.5 264.5t-169.5 89.5q-44 0 -80 -9t-73 -34.5t-63.5 -68t-46 -114t-24.5 -167.5h299v-33h-301v-90h301v-33h-299q5 -102 23 -178 t43.5 -120.5t62.5 -71t73.5 -35.5t82.5 -9q49 0 90.5 19.5t69.5 49.5t49 68t31.5 73.5t13.5 68.5q0 3 1 10t1 10h37q-46 -356 -373 -356q-187 0 -304 124.5t-136 346.5h-150z" />
<glyph unicode="&#xe000;" horiz-adv-x="972" d="M0 0v973h973v-973h-973z" />
</font>
</defs>
</svg>
