<?xml version="1.0" standalone="no"?>
<!DOCTYPE svg PUBLIC "-//W3C//DTD SVG 1.1//EN" "http://www.w3.org/Graphics/SVG/1.1/DTD/svg11.dtd" >
<svg xmlns="http://www.w3.org/2000/svg">
<metadata></metadata>
<defs>
<font id="discoregular" horiz-adv-x="1000" >
<font-face units-per-em="1000" ascent="800" descent="-200" />
<missing-glyph horiz-adv-x="430" />
<glyph />
<glyph />
<glyph unicode="&#xd;" horiz-adv-x="430" />
<glyph unicode=" "  horiz-adv-x="430" />
<glyph unicode="&#x09;" horiz-adv-x="430" />
<glyph unicode="&#xa0;" horiz-adv-x="430" />
<glyph unicode="!" horiz-adv-x="289" d="M144 146v464h28v-464h-28zM144 -7v72h28v-72h-28z" />
<glyph unicode="&#x22;" horiz-adv-x="454" d="M361 413v190h30v-190h-30zM213 413v190h30v-190h-30z" />
<glyph unicode="#" horiz-adv-x="784" d="M605 358l-26 -145h134v-21h-140l-36 -192h-24l36 192h-198l-35 -192h-25l36 192h-143v21h150l27 145h-146v20h152l36 196h24l-36 -196h197l36 196h24l-36 -196h134v-20h-141zM385 358l-27 -145h196l28 145h-197z" />
<glyph unicode="$" horiz-adv-x="822" d="M489 -16v-73h-24v74q-140 11 -209 58q-78 53 -86 160h24q10 -95 75 -140.5t196 -56.5v296q-139 22 -196 50q-77 37 -77 109q0 141 273 158v35h24v-36q123 -9 185 -48q71 -44 87 -138h-24q-13 80 -72.5 118t-175.5 48v-279q47 -8 128 -23q54 -13 85 -28q77 -38 77 -119 q0 -148 -290 -165zM465 598q-114 -6 -172 -31q-77 -34 -77 -106q0 -90 154 -121q19 -3 95 -16v274zM668 258q-45 18 -179 40v-293q266 18 266 144q0 74 -87 109z" />
<glyph unicode="%" horiz-adv-x="951" d="M729 -11q-85 0 -132 44q-42 39 -42 101q0 66 46.5 106.5t127.5 40.5q84 0 130 -40t46 -107q0 -62 -46 -102q-49 -43 -130 -43zM276 -29h-30l545 632h29zM346 294q-84 0 -131 43q-42 39 -42 101q0 66 46.5 106.5t126.5 40.5q84 0 130.5 -40.5t46.5 -105.5q0 -62 -46 -102 q-49 -43 -131 -43zM729 260q-76 0 -115 -36q-35 -33 -35 -90q0 -53 36 -87q41 -37 114 -37t115 38q38 34 38 86q0 57 -37 90q-40 36 -116 36zM346 565q-75 0 -114 -37q-36 -33 -36 -90q0 -53 37 -87q40 -37 113 -37t116 38q38 34 38 86q0 58 -37 91q-40 36 -117 36z" />
<glyph unicode="&#x26;" horiz-adv-x="846" d="M758 0l-100 94q-105 -108 -241 -108q-91 0 -159 40q-74 43 -74 110q0 54 58 103q48 41 160 95q-68 63 -92 93q-28 35 -28 63q0 56 54 87q46 26 114 26q70 0 118.5 -30t48.5 -83q0 -42 -43 -79q-38 -33 -135 -83l216 -201q24 59 24 109h22q-1 -60 -31 -123l121 -113h-33z M451 583q-62 0 -103.5 -25.5t-41.5 -66.5q0 -29 46 -80q11 -12 71 -68q74 36 108 60q62 44 62 87q0 41 -41.5 67t-100.5 26zM418 318q-45 -20 -131 -67q-82 -55 -82 -116q0 -58 70 -96q63 -33 142 -33q125 0 226 104z" />
<glyph unicode="'" horiz-adv-x="333" d="M213 413v190h57v-190h-57z" />
<glyph unicode="(" horiz-adv-x="426" d="M347 -149q-78 103 -113 193.5t-35 193.5q0 192 147 379h31q-152 -205 -152 -379q0 -183 154 -387h-32z" />
<glyph unicode=")" horiz-adv-x="429" d="M222 -149h-31q152 203 152 379q0 183 -154 387h32q79 -104 113 -192q36 -92 36 -195q0 -191 -148 -379z" />
<glyph unicode="*" horiz-adv-x="564" d="M368 466l102 -97l-19 -10l-99 101l-100 -98l-18 12l104 93l-156 37l7 19l156 -39v121h20v-119l157 37l3 -20z" />
<glyph unicode="+" horiz-adv-x="781" d="M479 204v-204h-21v204h-280v19h280v204h21v-204h281v-19h-281z" />
<glyph unicode="," horiz-adv-x="393" d="M124 -94v11q39 27 39 85v81h44v-81q0 -28 -11 -45q-18 -25 -72 -51z" />
<glyph unicode="-" horiz-adv-x="733" d="M187 204v19h468v-19h-468z" />
<glyph unicode="." horiz-adv-x="353" d="M134 0v83h57v-83h-57z" />
<glyph unicode="/" horiz-adv-x="595" d="M176 -14h-25l383 631h26z" />
<glyph unicode="0" horiz-adv-x="903" d="M451 -10q-155 0 -232 94q-64 78 -64 203t64 203q77 94 232 94t233 -94q64 -78 64 -203t-64 -203q-78 -94 -233 -94zM451 565q-146 0 -216 -92q-56 -72 -56 -186q0 -113 56 -185q70 -92 216 -92t217 92q56 72 56 185q0 114 -56 186q-71 92 -217 92z" />
<glyph unicode="1" horiz-adv-x="903" d="M543 0v546q-148 -99 -212 -118v18q65 28 119 64q48 32 92 64h30v-574h-29z" />
<glyph unicode="2" horiz-adv-x="903" d="M187 0q10 69 68 118q30 25 81 52l96 48q45 21 138 73q101 66 101 138q0 63 -55 100t-154 37q-112 0 -167 -42.5t-63 -131.5h-24q10 102 74 148q61 44 178 44q105 0 167 -38q68 -41 68 -117q0 -92 -160 -181q-50 -26 -149 -77q-82 -43 -94 -51q-59 -41 -79 -100h503v-20 h-529z" />
<glyph unicode="3" horiz-adv-x="903" d="M460 -10q-278 0 -284 199h25q7 -179 259 -179q102 0 169 38q73 41 73 110t-63 106q-59 35 -162 35h-33v20h33q212 0 210 124q-2 121 -222 121q-224 0 -243 -162h-24q17 182 267 182q104 0 169 -32q76 -38 76 -111q0 -41 -27 -75q-35 -44 -103 -58q75 -17 114 -62 q33 -38 33 -86q0 -79 -80 -126q-75 -44 -187 -44z" />
<glyph unicode="4" horiz-adv-x="903" d="M604 149v-149h-25v149h-407v22l402 403h30v-405h126v-20h-126zM579 548l-382 -379h382v379z" />
<glyph unicode="5" horiz-adv-x="903" d="M448 -10q-253 0 -268 177h25q8 -86 74 -123q57 -32 169 -32q115 0 184 55q66 52 66 134q0 78 -67 131q-70 55 -181 55q-136 0 -221 -96h-33l72 283h412v-20h-387l-56 -220q80 74 213 74q119 0 195.5 -59t76.5 -148q0 -93 -77 -152t-197 -59z" />
<glyph unicode="6" horiz-adv-x="903" d="M456 -10q-75 0 -140 28q-56 24 -89 62q-52 59 -52 191q0 128 62 211q77 102 234 102q184 0 232 -133h-22q-30 71 -95 98q-44 18 -116 18q-124 0 -199 -83t-68 -228q38 78 124 114q61 26 129 26q105 0 186 -58q86 -61 86 -149q0 -85 -80.5 -142t-191.5 -57zM456 376 q-104 0 -174 -59q-67 -55 -67 -128q0 -74 68 -125q69 -54 173 -54t174 53t70 126t-68 128q-72 59 -176 59z" />
<glyph unicode="7" horiz-adv-x="903" d="M328 0h-25q7 153 90 280q82 124 270 274h-461v20h498v-25q-176 -129 -260 -243q-102 -139 -112 -306z" />
<glyph unicode="8" horiz-adv-x="903" d="M451 -10q-124 0 -200 41q-85 45 -85 130q0 125 171 156q-58 4 -97 43q-35 37 -35 79q0 74 72 112q65 33 174 33t174 -33q73 -38 73 -112q0 -94 -133 -127q81 -12 126 -54t45 -97q0 -85 -85 -130q-76 -41 -200 -41zM451 565q-97 0 -153 -28q-66 -33 -66 -98 q0 -114 219 -114q220 0 220 114q0 65 -66 98q-57 28 -154 28zM451 304q-107 0 -175 -31q-82 -38 -82 -112q0 -76 76 -115q68 -36 181 -36t182 36q76 40 76 115q0 74 -81 112q-68 31 -177 31z" />
<glyph unicode="9" horiz-adv-x="903" d="M432 -10q-94 0 -149 28q-58 29 -83 97h25q29 -66 92 -90q42 -16 116 -16q125 0 195 79q76 84 77 247q-84 -148 -259 -148q-117 0 -194 55t-77 144q0 85 82 143q79 55 189 55q75 0 140 -28q56 -24 89 -61q53 -60 53 -160q0 -14 -1 -30q-8 -123 -59 -201 q-76 -114 -236 -114zM446 565q-103 0 -174.5 -54t-71.5 -127t71.5 -125.5t174.5 -52.5q100 0 178 63q72 57 71 117q-1 74 -73 126.5t-176 52.5z" />
<glyph unicode=":" horiz-adv-x="371" d="M246 350v84h57v-84h-57zM246 0v84h57v-84h-57z" />
<glyph unicode=";" horiz-adv-x="379" d="M270 349v85h43v-85h-43zM230 -96v17q40 27 40 81v84h43v-84q0 -29 -12 -47q-18 -25 -71 -51z" />
<glyph unicode="&#x3c;" horiz-adv-x="784" d="M175 203v22l585 209v-20l-561 -200l561 -201v-19z" />
<glyph unicode="=" horiz-adv-x="760" d="M154 291v13h582v-13h-582zM154 123v13h582v-13h-582z" />
<glyph unicode="&#x3e;" horiz-adv-x="779" d="M170 -6v19l562 201l-562 200v20l587 -209v-22z" />
<glyph unicode="?" horiz-adv-x="705" d="M620 377q-20 -20 -59 -44q-46 -28 -61 -41q-58 -47 -66 -139h-24q11 109 98 171q19 14 40 27q43 27 60 47q31 34 31 79q0 55 -57 89t-149 34q-216 0 -227 -186h-25q6 100 72 151.5t180 51.5q99 0 163 -36q67 -39 67 -104q0 -57 -43 -100zM409 0v23h24v-23h-24z" />
<glyph unicode="@" horiz-adv-x="1039" d="M610 -10q-166 0 -279 73q-130 84 -130 235q0 132 122 224t289 92q152 0 249.5 -72t95.5 -191q-2 -101 -74 -172q-68 -66 -150 -66q-46 0 -70 55q-74 -48 -153 -48q-62 0 -108 39t-46 93q0 82 60 135q65 58 182 58q95 0 152 -66q3 -4 9 11q5 10 9 20l20 1 q-38 -75 -102 -218q-4 -10 -4 -18q0 -20 19 -33q16 -11 33 -11q77 0 139 66.5t63 150.5q1 64 -27 117t-81 81q-103 54 -215 54q-164 0 -281 -95q-112 -91 -112 -208q0 -135 115 -215q107 -75 272 -75q259 0 358 125h25q-107 -142 -380 -142zM587 427q-100 0 -157 -51 q-53 -48 -53 -124q0 -42 36 -76q39 -38 101 -38q121 0 166 88q22 46 64 133q-45 68 -157 68z" />
<glyph unicode="A" horiz-adv-x="896" d="M811 0l-106 196h-413l-107 -196h-30l331 603h31l322 -603h-28zM502 583l-199 -365h390z" />
<glyph unicode="B" horiz-adv-x="869" d="M532 0h-339v603h353q101 0 163 -37q68 -41 68 -115q0 -38 -32 -77q-41 -51 -112 -62q87 -9 133 -58q37 -39 37 -89q0 -80 -77 -124q-72 -41 -194 -41zM546 582h-328v-257h328q87 0 146.5 33.5t59.5 92.5q0 64 -59 99q-55 32 -147 32zM546 303h-328v-281h325q104 0 167 36 q67 38 67 106q0 71 -71 107q-62 32 -160 32z" />
<glyph unicode="C" horiz-adv-x="917" d="M534 -14q-161 0 -264.5 87t-103.5 223q0 127 88 216q104 105 294 105q136 0 230 -60q85 -54 108 -138h-24q-25 78 -110 127.5t-204 49.5q-181 0 -277 -105q-77 -83 -77 -195q0 -118 87 -199q95 -89 253 -89q273 0 332 218h24q-69 -240 -356 -240z" />
<glyph unicode="D" horiz-adv-x="891" d="M458 0h-251v603h287q145 0 235 -61q114 -78 114 -241q0 -152 -119 -232q-103 -69 -266 -69zM489 582h-257v-560h232q154 0 250 69q104 74 104 210q0 152 -103 223q-83 58 -226 58z" />
<glyph unicode="E" horiz-adv-x="747" d="M169 0v603h548v-21h-523v-257h492v-22h-492v-281h528v-22h-553z" />
<glyph unicode="F" horiz-adv-x="699" d="M184 582v-257h440v-22h-440v-303h-26v603h513v-21h-487z" />
<glyph unicode="G" horiz-adv-x="958" d="M888 155q-39 -89 -143 -134q-82 -35 -180 -35q-181 0 -284 92q-97 86 -97 223t101 225q106 91 280 91q127 0 215 -49q94 -53 130 -156h-24q-32 89 -116.5 136.5t-204.5 47.5q-166 0 -264 -88q-92 -83 -92 -211q0 -123 90 -202q98 -87 270 -87q136 0 225.5 68t97.5 187 h-265v22h288q0 -69 -27 -130z" />
<glyph unicode="H" horiz-adv-x="915" d="M808 0v303h-570v-303h-25v603h25v-278h570v278h26v-603h-26z" />
<glyph unicode="I" horiz-adv-x="315" d="M189 0v603h25v-603h-25z" />
<glyph unicode="J" horiz-adv-x="724" d="M415 -14q-113 0 -171 47q-53 43 -53 118v39h27v-39q0 -69 52 -105.5t145 -36.5q204 0 204 161v433h26v-445q0 -172 -230 -172z" />
<glyph unicode="K" horiz-adv-x="868" d="M796 0l-402 334l-184 -121v-213h-26v603h26v-363l560 363h42l-396 -257l417 -346h-37z" />
<glyph unicode="L" horiz-adv-x="694" d="M156 0v603h26v-581h483v-22h-509z" />
<glyph unicode="M" horiz-adv-x="1058" d="M952 0v579l-344 -579h-26l-344 579v-579h-25v603h38l344 -578l343 578h38v-603h-24z" />
<glyph unicode="N" horiz-adv-x="915" d="M798 0l-560 579v-579h-25v603h36l559 -578v578h26v-603h-36z" />
<glyph unicode="O" horiz-adv-x="994" d="M570 -14q-176 0 -279 93q-96 87 -96 222q0 136 96 223q103 93 279 93q175 0 278 -93q96 -87 96 -223q0 -135 -96 -222q-103 -93 -278 -93zM570 596q-162 0 -254.5 -82.5t-92.5 -212.5q0 -129 91 -209q94 -84 256 -84q161 0 257 84q91 80 91 209q0 130 -91 211 q-96 84 -257 84z" />
<glyph unicode="P" horiz-adv-x="774" d="M498 272h-297v-272h-26v603h334q243 0 243 -165q0 -80 -69.5 -123t-184.5 -43zM509 582h-308v-288h308q100 0 159 39t59 105q0 144 -218 144z" />
<glyph unicode="Q" horiz-adv-x="967" d="M769 54l107 -79l-23 -15l-107 80q-93 -54 -224 -54q-156 0 -260 78q-114 86 -114 237t114 238q104 78 260 78t260 -78q114 -87 114 -238q0 -157 -127 -247zM522 596q-147 0 -242 -72q-104 -80 -104 -223q0 -142 104 -221q95 -72 242 -72q120 0 205 47l-103 74l23 15 l103 -75q121 81 121 232q0 142 -106 223q-96 72 -243 72z" />
<glyph unicode="R" horiz-adv-x="845" d="M766 0q-19 50 -19 129t-37 111q-46 41 -178 41h-305v-281h-26v603h335q123 0 181.5 -37.5t61.5 -117.5q1 -47 -31 -87q-41 -50 -122 -68q90 -12 123 -65q23 -35 23 -102q0 -83 26 -126h-32zM541 582h-314v-280h303q99 0 159 36q67 39 65 110q-4 134 -213 134z" />
<glyph unicode="S" horiz-adv-x="837" d="M501 -14q-302 0 -320 210h26q19 -191 294 -191q109 0 183 35q84 40 84 109q0 74 -75.5 103.5t-201.5 50.5q-91 15 -99 17q-56 10 -97 23q-89 28 -89 116q0 77 84 120q76 38 194 38q123 0 187 -34q78 -42 96 -144h-25q-16 89 -84 126q-58 32 -171 32q-93 0 -160 -26 q-94 -36 -94 -113q0 -71 77 -97q41 -14 143 -31q55 -9 165 -32q84 -22 118 -44q55 -36 55 -105q0 -81 -93 -125q-80 -38 -197 -38z" />
<glyph unicode="T" horiz-adv-x="857" d="M546 582v-582h-26v582h-294v21h614v-21h-294z" />
<glyph unicode="U" horiz-adv-x="879" d="M507 -14q-301 0 -301 239v378h25v-378q0 -218 276 -218t276 218v378h26v-378q0 -239 -302 -239z" />
<glyph unicode="V" horiz-adv-x="850" d="M498 0h-26l-321 603h27l307 -578l299 578h26z" />
<glyph unicode="W" horiz-adv-x="1203" d="M927 0h-30l-237 579l-231 -579h-31l-237 603h26l226 -579l231 579h34l234 -579l224 579h25z" />
<glyph unicode="X" horiz-adv-x="851" d="M774 0l-295 294l-298 -294h-32l313 310l-297 293h34l280 -278l281 278h33l-297 -293l310 -310h-32z" />
<glyph unicode="Y" horiz-adv-x="853" d="M498 253v-253h-24v253l-330 350h33l309 -328l311 328h31z" />
<glyph unicode="Z" horiz-adv-x="774" d="M144 0v26l568 556h-537v21h566v-26l-569 -555h578v-22h-606z" />
<glyph unicode="[" horiz-adv-x="419" d="M213 -149v766h158v-21h-127v-725h127v-20h-158z" />
<glyph unicode="\" horiz-adv-x="613" d="M538 -14l-384 631h26l383 -631h-25z" />
<glyph unicode="]" horiz-adv-x="429" d="M191 -149v20h127v725h-127v21h158v-766h-158z" />
<glyph unicode="^" horiz-adv-x="800" d="M728 191l-253 365l-253 -365h-23l265 383h23l266 -383h-25z" />
<glyph unicode="_" horiz-adv-x="650" d="M41 -106v43h577v-43h-577z" />
<glyph unicode="`" horiz-adv-x="371" d="M311 496l-153 121h23l138 -121h-8z" />
<glyph unicode="a" horiz-adv-x="721" d="M693 26l1 -25h-25q-20 1 -37 19q-12 13 -17 65q-31 -46 -97 -72q-62 -24 -139 -24q-89 0 -143 36q-57 37 -57 103q0 101 106 130q44 12 112 16l114 6q14 1 46 5q61 14 61 59q0 120 -174 120q-88 0 -133 -26q-49 -28 -65 -97h-31q17 79 74 114q54 34 155 34 q198 0 198 -138v-250q0 -75 40 -75h11zM618 287q-26 -31 -136 -36q-42 -2 -97 -5q-176 -10 -175 -119q0 -41 31 -70q44 -42 136 -42q115 0 180 53q61 49 61 126v93z" />
<glyph unicode="b" horiz-adv-x="795" d="M464 -11q-75 0 -139 31q-74 36 -102 103v-123h-24v663h24v-306q30 70 110 106q63 28 131 28q117 0 187 -73q67 -71 67 -179q0 -112 -70 -181t-184 -69zM464 465q-111 0 -176 -61t-65 -165q0 -99 66.5 -161.5t173.5 -62.5q112 0 175 70q56 62 56 154q0 89 -52 151 q-63 75 -178 75z" />
<glyph unicode="c" horiz-adv-x="710" d="M440 -11q-121 0 -193 68t-72 172q0 113 69 184q75 76 210 76q178 0 224 -163h-23q-45 137 -201 137q-132 0 -198 -78q-53 -63 -53 -156q0 -88 58 -148q65 -68 179 -68q86 0 143 40.5t75 115.5h25q-44 -180 -243 -180z" />
<glyph unicode="d" horiz-adv-x="755" d="M412 -11q69 0 135 33q78 38 106 104v-126h24v663h-24v-306q-31 69 -111 106q-62 28 -130 28q-117 0 -188 -73q-67 -71 -67 -179q0 -112 70 -181t185 -69zM411 465q112 0 177 -61t65 -165q0 -93 -63 -157q-67 -67 -178 -67q-112 0 -175 70q-55 62 -55 154q0 89 52 151 q62 75 177 75z" />
<glyph unicode="e" horiz-adv-x="660" d="M129 232q4 -99 62 -157q62 -60 170 -60q78 0 122 18q61 24 98 92h30q-30 -74 -89.5 -105t-158.5 -31q-131 0 -202 76q-62 67 -62 174q0 106 83 180q79 70 181 70q123 0 190.5 -68.5t69.5 -188.5h-494zM367 463q-88 0 -157 -57q-72 -60 -81 -149h462q-7 94 -64 149 q-60 57 -160 57z" />
<glyph unicode="f" horiz-adv-x="444" d="M339 634q-44 0 -63 -8q-30 -14 -30 -53v-92h136v-30h-136v-451h-27v451h-108v30h108v98q0 84 125 84q17 0 54 -3v-30q-33 4 -59 4z" />
<glyph unicode="g" horiz-adv-x="781" d="M698 18q0 -193 -250 -193q-96 0 -149 26q-69 34 -84 117h32q14 -117 201 -117q226 0 226 167v131q-25 -64 -111 -99q-64 -27 -126 -27q-109 0 -177 60q-72 62 -72 170q0 104 67 168q70 68 190 68q62 0 121 -27q78 -35 108 -103v119h24v-460zM446 465q-112 0 -176 -66 q-57 -59 -57 -146t55 -142q60 -62 167 -62q112 0 178 63q61 58 61 147q0 82 -60 142q-64 64 -168 64z" />
<glyph unicode="h" horiz-adv-x="751" d="M672 0h-25v315q0 72 -55 113q-51 37 -135 37q-105 0 -165 -61q-54 -54 -54 -132v-272h-25v663h25v-291q30 62 103 94q56 25 116 25q95 0 153 -43q62 -47 62 -131v-317z" />
<glyph unicode="i" horiz-adv-x="324" d="M222 611v52h28v-52h-28zM222 0v480h28v-480h-28z" />
<glyph unicode="j" horiz-adv-x="410" d="M296 608v55h31v-55h-31zM157 -164v22q77 2 102 12q37 16 37 65v545h31v-545q0 -56 -34 -76t-136 -23z" />
<glyph unicode="k" horiz-adv-x="684" d="M616 0l-278 279l-154 -101v-178h-23v663h23v-453l409 271h49l-282 -186l295 -295h-39z" />
<glyph unicode="l" horiz-adv-x="281" d="M178 0v663h29v-663h-29z" />
<glyph unicode="m" horiz-adv-x="1048" d="M963 0h-23v306q0 66 -43 109.5t-118 43.5q-77 0 -130 -44.5t-53 -105.5v-309h-24v313q0 60 -34 100q-41 48 -123 48q-86 0 -137 -50t-51 -126v-285h-23v478h23v-109q20 54 74 84q49 27 110 27q65 0 113 -29q52 -32 61 -86q54 113 193 113q82 0 133.5 -46t51.5 -126v-306z " />
<glyph unicode="n" horiz-adv-x="724" d="M641 0h-25v313q0 72 -55 114q-52 38 -135 38q-101 0 -163 -61q-56 -56 -56 -134v-270h-25v478h25v-115q17 60 95 97q63 29 123 29q91 0 151 -43q65 -48 65 -131v-315z" />
<glyph unicode="o" horiz-adv-x="748" d="M454 -11q-123 0 -198 74q-70 70 -70 176q0 105 70 175q75 75 199 75q123 0 198 -75q70 -70 70 -175q0 -106 -70 -176q-75 -74 -199 -74zM455 463q-116 0 -184 -71q-61 -64 -61 -153q0 -91 61 -154q68 -71 184 -71q115 0 183 71q61 63 61 154q0 89 -61 153q-69 71 -183 71 z" />
<glyph unicode="p" horiz-adv-x="747" d="M467 -13q-68 0 -130 27q-79 34 -110 100v-279h-25v643h25v-128q23 66 102 106q68 33 138 33q116 0 185.5 -69t69.5 -181q0 -109 -67 -178q-70 -74 -188 -74zM469 462q-113 0 -180 -69q-62 -63 -62 -154q0 -104 64 -165t176 -61q115 0 178 75q53 62 53 151q0 92 -55 154 q-63 69 -174 69z" />
<glyph unicode="q" horiz-adv-x="815" d="M467 -13q68 0 131 27q79 34 110 100v-279h25v643h-25v-132q-24 66 -102 107q-69 36 -139 36q-114 0 -184 -69t-70 -181q0 -108 67 -178q70 -74 187 -74zM466 464q112 0 180 -70q62 -64 62 -155q0 -104 -65 -166t-176 -62q-116 0 -178 76q-52 63 -52 152q0 92 55 155 q63 70 174 70z" />
<glyph unicode="r" horiz-adv-x="509" d="M214 270v-270h-27v478h27v-106q24 51 104 85q71 29 147 31v-28q-128 -5 -194 -63q-57 -50 -57 -127z" />
<glyph unicode="s" horiz-adv-x="672" d="M427 -11q-116 0 -170 32q-63 38 -73 132h27q10 -79 65 -111q49 -30 151 -30q63 0 120 26q70 32 70 84q0 64 -100 90q-15 4 -29 7q-68 12 -204 46q-76 25 -76 101q0 50 46 84q55 39 156 39q94 0 141 -30q54 -35 68 -120h-26q-10 69 -54 98t-129 29q-90 0 -137 -33 q-39 -27 -39 -67q0 -57 65 -77q42 -13 109 -26q81 -16 109 -23q125 -32 125 -115q0 -63 -62.5 -99.5t-152.5 -36.5z" />
<glyph unicode="t" horiz-adv-x="465" d="M278 451v-355q0 -43 32 -59q16 -8 51 -8q27 0 56 5v-31q-34 -3 -61 -3q-105 0 -105 93v358h-117v29h117v148h27v-148h142v-29h-142z" />
<glyph unicode="u" horiz-adv-x="707" d="M605 0v108q-33 -66 -105 -96q-52 -23 -114 -23q-95 0 -153 43q-62 47 -62 130v315h25v-312q0 -73 55 -112q50 -36 135 -36q105 0 165 59q54 53 54 132v269h24v-477h-24z" />
<glyph unicode="v" horiz-adv-x="728" d="M436 0h-27l-249 477h31l231 -453l214 453h29z" />
<glyph unicode="w" horiz-adv-x="1029" d="M772 0h-27l-183 455l-184 -455h-30l-185 477h25l175 -454l181 454h34l180 -454l179 454h25z" />
<glyph unicode="x" horiz-adv-x="730" d="M631 0l-223 230l-221 -230h-36l240 247l-218 230h37l198 -213l204 213h34l-219 -230l240 -247h-36z" />
<glyph unicode="y" horiz-adv-x="732" d="M387 -98q-21 -43 -67 -57q-27 -8 -90 -9v29q82 0 108 20q21 16 41 56q9 19 31 66l-251 470h29l237 -446l213 446h27z" />
<glyph unicode="z" horiz-adv-x="672" d="M157 0v31l413 419h-381v27h415v-30l-413 -420h432v-27h-466z" />
<glyph unicode="{" horiz-adv-x="506" d="M391 -149q-52 0 -72.5 22t-20.5 73v137q0 51 -17 81q-20 35 -73 62v25q90 30 90 134v139q0 51 20.5 72t72.5 21h63v-21h-61q-39 0 -53.5 -20t-14.5 -67v-138q0 -68 -71 -137q71 -67 71 -137v-136q0 -51 14.5 -70.5t53.5 -19.5h61v-20h-63z" />
<glyph unicode="|" horiz-adv-x="187" d="M120 -14v631h28v-631h-28z" />
<glyph unicode="}" horiz-adv-x="494" d="M351 83v-139q0 -50 -20.5 -71.5t-72.5 -21.5h-64v20h62q39 0 53 20t14 68v138q0 67 71 137q-71 68 -71 137v136q0 51 -14 70t-53 19h-62v21h64q52 0 72.5 -22t20.5 -73v-137q0 -51 17 -81q20 -35 73 -62v-25q-90 -30 -90 -134z" />
<glyph unicode="~" horiz-adv-x="772" d="M589 172q-32 0 -123 38q-86 36 -132 36q-59 0 -109 -72l-9 3q61 73 116 78q26 2 96 -21q31 -14 109 -44q29 -10 55 -10q43 0 98 73l11 -2q-64 -79 -112 -79z" />
<glyph unicode="&#xa1;" horiz-adv-x="360" d="M228 372v86h57v-86h-57zM228 -149v454h57v-454h-57z" />
<glyph unicode="&#xa2;" horiz-adv-x="758" d="M468 -15v-98h-24v98q-124 16 -189 90q-59 67 -59 164q0 95 60 162q65 73 188 90v79h24v-79q97 -11 149 -46q60 -39 81 -120h-23q-19 61 -67 93t-140 45v-450q178 24 212 156h25q-23 -88 -83 -132q-55 -41 -154 -52zM444 464q-118 -22 -175 -90q-49 -56 -49 -135 q0 -80 49 -137q57 -67 175 -89v451z" />
<glyph unicode="&#xa3;" horiz-adv-x="772" d="M558 -14q-29 0 -74 12l-74 20q-40 10 -75 10q-65 0 -143 -42l-24 20q138 94 138 171q0 52 -34 113h-90v20h71q-76 114 -76 150q0 77 80 119q70 38 179 38q125 0 194 -53q73 -56 68 -161h-24q0 194 -238 194q-97 0 -162 -32q-73 -38 -73 -105q0 -32 31 -79q6 -9 53 -71 h181v-20h-160q23 -77 23 -113q0 -39 -51 -127q100 -3 142 -14q34 -10 68 -19q41 -11 70 -11q46 0 88 18q34 14 88 52l16 -13q-101 -77 -192 -77z" />
<glyph unicode="&#xa4;" horiz-adv-x="835" d="M686 144l62 -46l-17 -13l-64 47q-93 -52 -194 -52q-102 0 -194 52l-65 -47l-18 13l62 46q-64 75 -64 143t64 144l-62 46l18 12l65 -47q97 54 193 54q98 0 195 -54l64 47l17 -12l-62 -46q72 -84 72 -144t-72 -143zM472 478q-108 0 -185 -56.5t-77 -134.5t77 -134.5 t185 -56.5t185 56.5t77 134.5t-76.5 134.5t-185.5 56.5z" />
<glyph unicode="&#xa5;" horiz-adv-x="804" d="M498 277h153v-21h-168v-82h168v-21h-168v-153h-23v153h-168v21h168v82h-168v21h155l-270 326h28l267 -324l269 324h27z" />
<glyph unicode="&#xa6;" horiz-adv-x="363" d="M229 372v245h57v-245h-57zM229 -14v245h57v-245h-57z" />
<glyph unicode="&#xa7;" horiz-adv-x="767" d="M593 57q55 -63 51 -102q-6 -57 -63 -88q-50 -27 -126 -27q-191 0 -202 168h24q12 -146 178 -147q82 0 128 34q37 27 37 60q0 36 -19 57t-73 49q-69 31 -205 95q-77 38 -104 72q-22 27 -22 67q0 56 110 118q-44 58 -44 90q0 58 64 89q51 25 119 25q177 0 197 -159h-23 q-21 138 -176 138q-59 0 -100 -17q-60 -24 -57 -77q3 -47 65 -81q31 -17 114 -50.5t124 -54.5q122 -64 122 -144q0 -50 -119 -115zM496 334q-51 22 -151 64q-123 -31 -123 -109q0 -61 115 -115q75 -34 216 -102q134 27 134 101q0 42 -36 73q-39 34 -155 88z" />
<glyph unicode="&#xa8;" horiz-adv-x="461" d="M358 498v69h29v-69h-29zM161 498v69h28v-69h-28z" />
<glyph unicode="&#xa9;" horiz-adv-x="1078" d="M606 -14q-175 0 -299 91.5t-124 223.5t124 224t299 92t299 -92t124 -224t-124 -223.5t-299 -91.5zM606 597q-167 0 -283.5 -87t-116.5 -209t116.5 -208.5t283.5 -86.5t283.5 86.5t116.5 208.5t-116.5 209t-283.5 87zM619 101q-112 0 -180.5 55t-68.5 140q0 86 66.5 140 t178.5 54q159 0 207 -130h-23q-40 110 -184 110q-104 0 -165 -50q-57 -48 -57 -123q0 -74 59 -124q63 -52 167 -52q130 0 181 114h22q-63 -134 -203 -134z" />
<glyph unicode="&#xaa;" horiz-adv-x="648" d="M578 320l1 -14h-14q-12 0 -20.5 9t-10.5 37q-36 -53 -129 -53q-111 0 -111 73q0 56 59 72q19 5 124 11q4 1 26 3q33 9 33 33q0 70 -95 70q-98 0 -114 -69h-17q17 83 131 83q109 0 109 -77v-137q0 -41 22 -41h6zM536 459q-13 -15 -75 -19l-53 -3q-97 -5 -97 -66 q0 -21 18 -36q24 -21 74 -21q62 0 100 31q33 27 33 67v47z" />
<glyph unicode="&#xab;" horiz-adv-x="529" d="M327 221v11l132 116v-28l-105 -93l105 -93v-30zM211 221v11l132 116v-28l-105 -93l105 -93v-30z" />
<glyph unicode="&#xac;" horiz-adv-x="857" d="M757 79v210h-558v15h582v-225h-24z" />
<glyph unicode="&#xad;" horiz-adv-x="733" d="M187 204v19h468v-19h-468z" />
<glyph unicode="&#xae;" horiz-adv-x="1078" d="M606 -14q-175 0 -299 91.5t-124 223.5t124 224t299 92t299 -92t124 -224t-124 -223.5t-299 -91.5zM606 597q-167 0 -283.5 -87t-116.5 -209t116.5 -208.5t283.5 -86.5t283.5 86.5t116.5 208.5t-116.5 209t-283.5 87zM778 113l-145 168q-23 -1 -36 -1h-111v-167h-23v365 h160q160 0 161 -99q1 -82 -120 -97l145 -169h-31zM699 453q-20 4 -40 5h-38h-135v-157h118q60 0 77 3q83 14 83 75q0 60 -65 74z" />
<glyph unicode="&#xaf;" />
<glyph unicode="&#xb0;" horiz-adv-x="599" d="M375 341q-73 0 -123 36t-50 87q0 49 50 84.5t123 35.5t123 -35.5t50 -84.5q0 -50 -49.5 -86.5t-123.5 -36.5zM375 570q-58 0 -102.5 -32t-44.5 -74q0 -46 43.5 -76.5t103.5 -30.5q62 0 104.5 30.5t42.5 76.5q0 44 -42 75t-105 31z" />
<glyph unicode="&#xb1;" horiz-adv-x="787" d="M476 262v-180h-24v180h-279v28h279v180h24v-180h279v-28h-279zM173 0v27h582v-27h-582z" />
<glyph unicode="&#xb4;" horiz-adv-x="393" d="M182 496h-7l145 121h23z" />
<glyph unicode="&#xb6;" horiz-adv-x="430" />
<glyph unicode="&#xb7;" horiz-adv-x="427" d="M327 263q-6 -3 -19 -3h-43q-11 0 -19 3q-12 7 -12 24q0 19 12 24q5 2 19 4h13q7 -1 9 -1t9 1h12q13 -2 19 -4q12 -5 12 -24q0 -18 -12 -24z" />
<glyph unicode="&#xb8;" />
<glyph unicode="&#xba;" horiz-adv-x="591" d="M351 310q-84 0 -135 43q-46 39 -46 95t46 94q51 42 136 42q84 0 134 -42q46 -38 46 -94t-46 -95q-50 -43 -135 -43zM352 568q-70 0 -115 -37q-41 -35 -41 -83t41 -83q45 -38 115 -38q69 0 113 38q41 35 41 83t-41 83q-44 37 -113 37z" />
<glyph unicode="&#xbb;" horiz-adv-x="528" d="M332 104v30l105 93l-105 93v28l131 -116v-11zM216 104v30l105 93l-105 93v28l131 -116v-11z" />
<glyph unicode="&#xbf;" horiz-adv-x="687" d="M406 435v23h24v-23h-24zM406 -160q-100 0 -163 36q-68 39 -68 106q0 48 30 84q21 25 84 68t84 73q26 36 30 98h24q-7 -74 -42 -119q-26 -34 -95 -78q-42 -27 -60 -48q-30 -34 -30 -78q0 -57 57 -89t149 -32q216 0 227 183h25q-6 -100 -72 -152t-180 -52z" />
<glyph unicode="&#xc0;" horiz-adv-x="1012" d="M928 0l-107 197h-414l-108 -197h-27l331 603h29l323 -603h-27zM617 585l-199 -367h392zM669 646l-154 122h24l138 -122h-8z" />
<glyph unicode="&#xc1;" />
<glyph unicode="&#xc2;" />
<glyph unicode="&#xc3;" horiz-adv-x="1005" d="M931 0l-107 197h-414l-108 -197h-28l331 603h30l322 -603h-26zM620 585l-199 -367h392zM747 662q-12 -2 -21 -2q-30 0 -77.5 34.5t-76.5 34.5q-16 0 -26 -10q11 7 26 7q23 0 56 -21q26 -17 53 -35q24 -13 45 -13q11 0 21 5zM747 662q21 14 32 60h22q-15 -50 -54 -60z M546 719q-19 -17 -26 -60h-19q15 46 45 60z" />
<glyph unicode="&#xc4;" horiz-adv-x="896" d="M812 0l-107 197h-414l-107 -197h-28l331 603h29l322 -603h-26zM502 585l-200 -367h392zM588 649v68h28v-68h-28zM390 649v68h28v-68h-28z" />
<glyph unicode="&#xc6;" horiz-adv-x="1083" d="M620 0v230h-294l-170 -230h-27l492 657h22v-54h440v-21h-441v-258h405v-21h-405v-283h441v-20h-463zM620 617l-281 -367h281v367z" />
<glyph unicode="&#xc8;" />
<glyph unicode="&#xc9;" horiz-adv-x="792" d="M217 0v603h549v-20h-525v-258h494v-21h-494v-284h530v-20h-554zM452 646h-7l145 122h22z" />
<glyph unicode="&#xca;" />
<glyph unicode="&#xcb;" />
<glyph unicode="&#xcc;" />
<glyph unicode="&#xcd;" />
<glyph unicode="&#xce;" />
<glyph unicode="&#xcf;" />
<glyph unicode="&#xd2;" />
<glyph unicode="&#xd3;" />
<glyph unicode="&#xd4;" />
<glyph unicode="&#xd6;" horiz-adv-x="1100" d="M676 -14q-175 0 -278 93q-97 87 -97 222q0 136 97 223q103 93 278 93t277 -93q97 -87 97 -223q0 -135 -97 -222q-103 -93 -277 -93zM676 597q-162 0 -257 -84q-91 -81 -91 -212q0 -130 91 -211q95 -84 257 -84t258 84q92 81 92 211t-92 212q-96 84 -258 84zM765 649v68 h28v-68h-28zM567 649v68h29v-68h-29z" />
<glyph unicode="&#xd7;" horiz-adv-x="744" d="M479 214l221 -160l-17 -12l-220 160l-219 -160l-17 12l219 160l-219 159l17 11l219 -159l220 159l17 -11z" />
<glyph unicode="&#xd8;" horiz-adv-x="990" d="M565 -14q-147 0 -268 84l-79 -66l-20 11l81 67q-88 111 -88 219q0 136 96 223q103 93 278 93q147 0 266 -82l66 54l20 -12l-68 -55q89 -109 89 -221q0 -135 -96 -222q-102 -93 -277 -93zM831 507l-519 -425q132 -76 253 -76q161 0 257 84q93 81 93 211q0 103 -84 206z M565 597q-161 0 -257 -84q-92 -81 -93 -212q-1 -99 82 -204l520 426q-136 74 -252 74z" />
<glyph unicode="&#xd9;" />
<glyph unicode="&#xda;" />
<glyph unicode="&#xdb;" />
<glyph unicode="&#xdc;" horiz-adv-x="979" d="M601 -14q-303 0 -303 239v378h24v-378q0 -219 279 -219q277 0 277 219v378h24v-378q0 -239 -301 -239zM688 649v68h29v-68h-29zM490 649v68h29v-68h-29z" />
<glyph unicode="&#xdf;" horiz-adv-x="738" d="M377 -20v20q271 -2 271 168q0 82 -71 120q-65 35 -200 37v21q222 5 222 128q0 55 -52 88.5t-134 33.5q-59 0 -109 -26q-74 -39 -74 -118v-452h-24v455q0 76 66 120q57 38 140 38q88 0 147 -36q62 -39 62 -104q0 -42 -28 -78q-39 -50 -116 -56q105 -12 155 -67 q39 -43 39 -101q0 -190 -294 -191z" />
<glyph unicode="&#xe0;" horiz-adv-x="829" d="M798 26v-25h-26q-19 1 -36 19q-13 14 -18 65q-31 -46 -94 -71t-141 -25q-90 0 -144 32q-57 35 -57 100q0 101 107 130q44 12 112 16l114 6q14 1 46 5q61 14 61 59q0 127 -174 127q-89 0 -137 -27q-53 -30 -69 -98h-31q32 150 237 150q198 0 198 -138v-250q0 -75 40 -75 h12zM722 279q-27 -30 -136 -35q-38 -2 -97 -5q-178 -10 -176 -119q1 -39 32 -67q43 -38 135 -38q114 0 181 56q61 50 61 123v85zM595 525l-154 134h24l138 -134h-8z" />
<glyph unicode="&#xe1;" horiz-adv-x="812" d="M782 26v-25h-25q-20 1 -37 19q-12 13 -17 65q-31 -46 -97 -72q-62 -24 -139 -24q-90 0 -143 32q-57 35 -57 100q0 101 106 130q44 12 112 16l114 6q14 1 46 5q61 14 61 59q0 127 -174 127q-89 0 -137 -27q-53 -30 -69 -98h-30q30 150 236 150q198 0 198 -138v-250 q0 -75 40 -75h12zM706 279q-26 -30 -136 -35q-42 -2 -97 -5q-176 -10 -175 -119q0 -39 31 -67q43 -38 136 -38q113 0 180 56q61 50 61 123v85zM467 525h-8l145 134h23z" />
<glyph unicode="&#xe2;" horiz-adv-x="849" d="M817 26v-25h-26q-19 1 -36 19q-13 14 -18 65q-31 -46 -94 -71t-141 -25q-90 0 -144 32q-57 35 -57 100q0 101 107 130q44 12 112 16l114 6q14 1 46 5q61 14 61 59q0 127 -174 127q-89 0 -137 -27q-53 -30 -69 -98h-31q32 150 237 150q198 0 198 -138v-250q0 -75 40 -75 h12zM741 279q-27 -30 -136 -35q-42 -2 -97 -5q-178 -10 -176 -119q1 -39 32 -67q43 -38 135 -38q114 0 181 56q61 50 61 123v85zM680 529l-120 124l-115 -124h-15l122 130h20l122 -130h-14z" />
<glyph unicode="&#xe3;" />
<glyph unicode="&#xe4;" horiz-adv-x="708" d="M674 26v-25h-26q-19 1 -36 19q-13 14 -18 65q-31 -46 -94 -71t-141 -25q-90 0 -144 32q-57 35 -57 100q0 101 107 130q44 12 112 16l114 6q14 1 46 5q61 12 61 59q0 127 -174 127q-89 0 -137 -27q-53 -30 -69 -98h-31q32 150 237 150q198 0 198 -138v-250q0 -75 40 -75 h12zM598 279q-27 -30 -136 -35q-38 -2 -97 -5q-177 -10 -176 -119q0 -39 31 -67q44 -38 136 -38q114 0 181 56q61 50 61 123v85zM507 548v55h28v-55h-28zM309 548v55h28v-55h-28z" />
<glyph unicode="&#xe5;" />
<glyph unicode="&#xe6;" horiz-adv-x="1169" d="M1102 170q-15 -81 -76 -129q-65 -51 -165 -52q-73 -1 -127 28q-59 32 -111 108q-96 -136 -246 -136q-88 0 -139 32q-55 34 -55 99q0 102 104 131q33 9 107 15q40 2 110 6q14 1 45 5q59 12 59 60q0 128 -169 128q-166 0 -195 -142h-23q29 166 219 166q69 0 123 -29 q71 -39 72 -114q34 72 101 110q58 33 127 33q116 0 180 -68.5t67 -190.5h-477q-4 -81 56 -144q65 -69 172 -69q177 0 219 155q3 0 10.5 -1t11.5 -1zM863 461q-91 0 -145 -48t-86 -155h447q-8 95 -64 149t-152 54zM482 244q-34 -3 -100 -7q-27 -2 -54 -3q-30 -3 -52 -11 q-70 -25 -70 -103q0 -41 35 -68q45 -35 134 -35q108 0 174 57q58 50 59 120l1 81q-65 -28 -127 -31z" />
<glyph unicode="&#xe7;" horiz-adv-x="430" />
<glyph unicode="&#xe8;" horiz-adv-x="822" d="M294 230q4 -97 62 -153q61 -59 168 -59q77 0 121 17q60 25 96 92h33q-29 -75 -91 -107q-58 -31 -158 -31q-131 0 -201 76q-62 67 -62 174q0 106 83 180q79 70 181 70q123 0 190 -69t70 -190h-492zM530 460q-87 0 -156 -56q-71 -59 -80 -146h456q-6 93 -63.5 147.5 t-156.5 54.5zM608 525l-153 134h23l138 -134h-8z" />
<glyph unicode="&#xe9;" horiz-adv-x="829" d="M298 230q4 -96 63.5 -154t166.5 -58q77 0 121 17q60 25 97 92h33q-30 -75 -92 -107q-58 -31 -158 -31q-131 0 -201 76q-62 67 -62 174q0 106 83 180q79 70 181 70q123 0 190 -69t70 -190h-492zM534 460q-87 0 -156 -56q-71 -59 -80 -146h457q-7 92 -65 147t-156 55z M478 525h-7l145 134h23z" />
<glyph unicode="&#xea;" horiz-adv-x="831" d="M222 230q5 -97 63 -153q61 -59 168 -59q77 0 121 17q60 25 96 92h33q-30 -75 -89.5 -106.5t-159.5 -31.5q-131 0 -201 76q-62 67 -62 174q0 106 83 180q79 70 181 70q123 0 190 -69t70 -190h-493zM459 460q-87 0 -156 -56q-72 -59 -80 -146h456q-6 92 -64 147t-156 55z M593 529l-120 120l-115 -120h-24l131 130h20l123 -130h-15z" />
<glyph unicode="&#xeb;" horiz-adv-x="830" d="M221 230q5 -97 63 -153q60 -59 167 -59q77 0 121 17q60 25 97 92h33q-30 -75 -89.5 -106.5t-159.5 -31.5q-131 0 -201 76q-63 67 -63 174q0 106 83 180q79 70 181 70q123 0 192 -70q66 -68 68 -189h-492zM458 460q-88 0 -157 -56q-71 -59 -79 -146h456q-6 92 -64 147 t-156 55zM554 548v55h29v-55h-29zM356 548v55h29v-55h-29z" />
<glyph unicode="&#xf2;" horiz-adv-x="883" d="M558 -11q-123 0 -198 74q-70 70 -70 176q0 105 70 175q75 75 199 75q123 0 198 -75q70 -70 70 -175q0 -106 -70 -176q-75 -74 -199 -74zM559 463q-116 0 -184 -71q-61 -63 -61 -153q0 -91 61 -154q67 -71 184 -71q115 0 183 71q61 63 61 154q0 89 -61 153q-68 71 -183 71 zM627 525l-154 134h23l138 -134h-7z" />
<glyph unicode="&#xf3;" horiz-adv-x="881" d="M556 -11q-123 0 -198 74q-70 70 -70 176q0 105 70 175q75 75 199 75q123 0 198 -75q70 -70 70 -175q0 -106 -70 -176q-75 -74 -199 -74zM557 463q-116 0 -184 -71q-61 -63 -61 -153q0 -91 61 -154q67 -71 184 -71q115 0 182 71q61 63 61 154q0 89 -61 153q-68 71 -182 71 zM496 525h-7l145 134h22z" />
<glyph unicode="&#xf4;" horiz-adv-x="884" d="M559 -11q-123 0 -198 74q-70 70 -70 176q0 105 70 175q75 75 199 75q123 0 198 -75q70 -70 70 -175q0 -106 -70 -176q-75 -74 -199 -74zM560 463q-116 0 -184 -71q-61 -63 -61 -153q0 -91 61 -154q67 -71 184 -71q115 0 183 71q61 63 61 154q0 89 -61 153q-69 71 -183 71 zM712 529l-120 124l-115 -124h-14l121 130h20l123 -130h-15z" />
<glyph unicode="&#xf5;" horiz-adv-x="884" d="M559 -11q-123 0 -198 74q-70 70 -70 176q0 105 70 175q75 75 199 75q123 0 198 -75q70 -70 70 -175q0 -106 -70 -176q-75 -74 -199 -74zM560 463q-116 0 -184 -71q-61 -64 -61 -153q0 -91 61 -154q68 -71 184 -71q115 0 183 71q61 63 61 154q0 89 -61 153q-69 71 -183 71 zM703 543q-10 -3 -21 -3q-29 0 -78 38.5t-77 38.5q-13 0 -25 -12q11 7 25 7q27 0 78 -38t77 -38q11 0 21 7zM703 543q22 17 31 65h23q-15 -54 -54 -65zM502 605q-21 -19 -26 -66h-20q16 49 46 66z" />
<glyph unicode="&#xf6;" horiz-adv-x="878" d="M553 -11q-123 0 -198 74q-70 70 -70 176q0 105 70 175q75 75 199 75q123 0 198 -75q70 -70 70 -175q0 -106 -70 -176q-75 -74 -199 -74zM554 463q-116 0 -184 -71q-61 -63 -61 -153q0 -91 61 -154q67 -71 184 -71q115 0 183 71q61 63 61 154q0 89 -61 153q-68 71 -183 71 zM641 548v55h28v-55h-28zM443 548v55h28v-55h-28z" />
<glyph unicode="&#xf7;" horiz-adv-x="767" d="M453 356q-48 0 -48 36q0 35 48 35q20 0 34 -10t14 -25q0 -36 -48 -36zM162 204v19h581v-19h-581zM453 0q-48 0 -48 35q0 16 14 26t34 10t34 -10.5t14 -25.5q0 -35 -48 -35z" />
<glyph unicode="&#xf8;" horiz-adv-x="790" d="M677 400q54 -87 54 -161q0 -106 -70 -176q-73 -74 -196 -74q-105 0 -197 72l-65 -53l-21 17l69 55q-52 86 -52 159q0 105 70 175q74 75 197 75q100 0 193 -70l51 41l21 -16zM466 461q-116 0 -183 -70q-61 -63 -61 -152q0 -51 46 -143l374 310q-105 55 -176 55zM658 384 l-374 -309q107 -58 182 -58q114 0 181 69q61 62 61 153q0 56 -50 145z" />
<glyph unicode="&#xf9;" horiz-adv-x="800" d="M696 0v108q-34 -66 -104 -96q-53 -23 -115 -23q-95 0 -153 43q-62 47 -62 130v315h25v-312q0 -73 55 -112q51 -36 135 -36q104 0 165 59q54 53 54 132v269h24v-477h-24zM603 525l-154 134h23l138 -134h-7z" />
<glyph unicode="&#xfa;" horiz-adv-x="799" d="M695 0v108q-33 -66 -104 -96q-52 -23 -114 -23q-95 0 -153 43q-62 47 -62 130v315h25v-312q0 -73 55 -112q50 -36 135 -36q104 0 164 59q54 53 54 132v269h24v-477h-24zM474 525h-7l144 134h23z" />
<glyph unicode="&#xfb;" horiz-adv-x="803" d="M696 0v108q-34 -66 -104 -96q-53 -23 -115 -23q-95 0 -152 43q-62 47 -62 130v315h24v-312q0 -73 55 -112q51 -36 135 -36q105 0 165 59q54 53 54 132v269h25v-477h-25zM618 529l-120 124l-115 -124h-14l121 130h19l124 -130h-15z" />
<glyph unicode="&#xfc;" horiz-adv-x="805" d="M698 0v108q-34 -66 -104 -96q-53 -23 -115 -23q-95 0 -153 43q-62 47 -62 130v315h25v-312q0 -73 55 -112q51 -36 135 -36q105 0 165 59q54 53 54 132v269h24v-477h-24zM589 538v65h28v-65h-28zM391 538v65h28v-65h-28z" />
<glyph unicode="&#xff;" />
<glyph unicode="&#x152;" horiz-adv-x="1231" d="M744 0v48q-125 -62 -220 -62q-173 0 -274 93q-95 86 -95 219q0 136 93 224q101 95 276 95q101 0 220 -60v46h487v-20h-464v-258h410v-21h-410v-284h464v-20h-487zM744 524q-58 41 -106 57t-114 16q-158 0 -252.5 -82.5t-94.5 -216.5q0 -128 93.5 -210t253.5 -82 q119 0 220 75v443z" />
<glyph unicode="&#x153;" horiz-adv-x="1178" d="M661 230q29 -219 220 -219q156 0 205 156h22q-53 -179 -228 -178q-79 0 -141.5 42.5t-87.5 112.5q-48 -155 -225 -155q-118 0 -182 76q-56 68 -56 174t55 173q63 77 183 77q77 0 137 -37q72 -46 88 -135q18 84 87 130q61 41 142 42q116 1 180 -71q57 -65 57 -169v-19 h-456zM881 461q-97 0 -148 -49t-73 -154h429q-12 203 -208 203zM426 464q-111 0 -167 -72q-48 -60 -48 -153t46 -153q56 -72 166 -72q116 0 172 70q46 58 46 155q0 95 -46 153q-55 72 -169 72z" />
<glyph unicode="&#x178;" />
<glyph unicode="&#x2c6;" />
<glyph unicode="&#x2dc;" />
<glyph unicode="&#x2000;" horiz-adv-x="384" />
<glyph unicode="&#x2001;" horiz-adv-x="768" />
<glyph unicode="&#x2002;" horiz-adv-x="384" />
<glyph unicode="&#x2003;" horiz-adv-x="768" />
<glyph unicode="&#x2004;" horiz-adv-x="256" />
<glyph unicode="&#x2005;" horiz-adv-x="192" />
<glyph unicode="&#x2006;" horiz-adv-x="128" />
<glyph unicode="&#x2007;" horiz-adv-x="128" />
<glyph unicode="&#x2008;" horiz-adv-x="96" />
<glyph unicode="&#x2009;" horiz-adv-x="153" />
<glyph unicode="&#x200a;" horiz-adv-x="42" />
<glyph unicode="&#x2010;" horiz-adv-x="733" d="M187 204v19h468v-19h-468z" />
<glyph unicode="&#x2011;" horiz-adv-x="733" d="M187 204v19h468v-19h-468z" />
<glyph unicode="&#x2012;" horiz-adv-x="733" d="M187 204v19h468v-19h-468z" />
<glyph unicode="&#x2013;" horiz-adv-x="837" d="M178 204v19h582v-19h-582z" />
<glyph unicode="&#x2014;" horiz-adv-x="430" />
<glyph unicode="&#x2018;" horiz-adv-x="364" d="M253 511v-98h-43v98q0 35 11 48q15 20 73 40v-14q-20 -10 -30.5 -24.5t-10.5 -49.5z" />
<glyph unicode="&#x2019;" horiz-adv-x="355" d="M199 417v14q37 21 40 54v20v98h43v-98q0 -34 -10 -47q-16 -20 -73 -41z" />
<glyph unicode="&#x201a;" horiz-adv-x="363" d="M203 -94v11q41 26 41 85v81h43v-81q0 -28 -12 -45q-17 -25 -72 -51z" />
<glyph unicode="&#x201c;" horiz-adv-x="478" d="M375 512v-99h-29v99q0 35 9 49q11 19 53 38v-14q-33 -22 -33 -73zM245 512v-99h-30v99q0 34 9 49q12 19 53 38v-14q-32 -23 -32 -73z" />
<glyph unicode="&#x201d;" horiz-adv-x="458" d="M330 417v14q33 22 33 74v98h29v-98q0 -35 -9 -50q-12 -19 -53 -38zM200 417v14q32 23 32 74v98h30v-98q0 -35 -9 -50q-12 -19 -53 -38z" />
<glyph unicode="&#x201e;" horiz-adv-x="473" d="M334 -94v10q33 27 33 85v82h29v-82q0 -29 -9 -46q-13 -25 -53 -49zM204 -94v10q33 27 33 85v82h29v-82q0 -29 -9 -46q-13 -25 -53 -49z" />
<glyph unicode="&#x2022;" horiz-adv-x="703" d="M418 151q-88 0 -149 44t-61 106q0 63 61 107t149 44t149.5 -44t61.5 -107q0 -62 -61.5 -106t-149.5 -44z" />
<glyph unicode="&#x2026;" horiz-adv-x="1114" d="M1014 0v83h23v-83h-23zM636 0v83h23v-83h-23zM258 0v83h24v-83h-24z" />
<glyph unicode="&#x202f;" horiz-adv-x="153" />
<glyph unicode="&#x2039;" horiz-adv-x="427" d="M211 221v11l147 117v-30l-117 -92l117 -93v-31z" />
<glyph unicode="&#x203a;" horiz-adv-x="425" d="M215 103v31l116 93l-116 92v30l147 -117v-11z" />
<glyph unicode="&#x205f;" horiz-adv-x="192" />
<glyph unicode="&#x2122;" horiz-adv-x="1201" d="M1104 255v334l-187 -334h-23l-186 334v-334h-24v348h40l182 -323l182 323h39v-348h-23zM410 586v-331h-23v331h-169v17h361v-17h-169z" />
<glyph unicode="&#xe000;" horiz-adv-x="475" d="M0 475h475v-475h-475v475z" />
</font>
</defs>
</svg>
