<?xml version="1.0" standalone="no"?>
<!DOCTYPE svg PUBLIC "-//W3C//DTD SVG 1.1//EN" "http://www.w3.org/Graphics/SVG/1.1/DTD/svg11.dtd" >
<svg xmlns="http://www.w3.org/2000/svg">
<metadata></metadata>
<defs>
<font id="ramblabold" horiz-adv-x="511" >
<font-face units-per-em="1000" ascent="800" descent="-200" />
<missing-glyph horiz-adv-x="186" />
<glyph horiz-adv-x="1000" />
<glyph horiz-adv-x="1000" />
<glyph unicode="&#xd;" horiz-adv-x="1000" />
<glyph unicode=" "  horiz-adv-x="186" />
<glyph unicode="&#x09;" horiz-adv-x="186" />
<glyph unicode="&#xa0;" horiz-adv-x="186" />
<glyph unicode="!" horiz-adv-x="248" d="M43 77q0 33 24 57t59 24q33 0 57 -24t24 -57q0 -34 -24 -59t-57 -25q-35 0 -59 24.5t-24 59.5zM51 702h146l-22 -486h-105z" />
<glyph unicode="&#x22;" horiz-adv-x="389" d="M40 700h126l-18 -251h-90zM223 700h126l-18 -251h-90z" />
<glyph unicode="#" horiz-adv-x="642" d="M38 172v105h101l17 95h-112v104h130l35 192h110l-34 -192h105l35 192h110l-34 -192h100v-104h-118l-17 -95h135v-105h-154l-32 -185h-111l32 185h-105l-32 -185h-111l32 185h-82zM250 277h105l17 95h-105z" />
<glyph unicode="$" horiz-adv-x="493" d="M26 33l37 119q92 -42 174 -42q93 0 93 72q0 35 -31 60t-94 54q-43 20 -65.5 33t-49.5 37t-39 57t-12 78q0 71 46.5 118t122.5 58l-4 109h91l-4 -107q64 -5 151 -36l-40 -109q-82 29 -140 29q-83 0 -84 -66q0 -13 4.5 -23.5t18 -20.5t21.5 -15.5t32.5 -18t33.5 -17.5 q33 -18 50.5 -28.5t46.5 -32.5t44.5 -41.5t27.5 -49.5t12 -63q0 -78 -47 -130.5t-130 -65.5l4 -102h-91l3 100q-108 9 -182 44z" />
<glyph unicode="%" horiz-adv-x="871" d="M44 510q0 56 14 95.5t38 59t48.5 27.5t52.5 8q71 0 110 -40.5t39 -148.5q0 -56 -14 -95t-37.5 -58t-48 -27t-52.5 -8q-72 0 -111 39.5t-39 147.5zM138 510q0 -71 14.5 -96t42.5 -25t42.5 25.5t14.5 95.5t-14.5 96.5t-42.5 26.5t-42.5 -26.5t-14.5 -96.5zM180 0l353 691 h129l-352 -691h-130zM503 177q0 56 14 95.5t38 59t48.5 27.5t52.5 8q71 0 110 -40.5t39 -148.5q0 -56 -14 -95t-37.5 -58t-48 -27t-52.5 -8q-72 0 -111 39.5t-39 147.5zM597 177q0 -71 14.5 -96t42.5 -25t42.5 25.5t14.5 95.5t-14.5 96.5t-42.5 26.5t-42.5 -26.5 t-14.5 -96.5z" />
<glyph unicode="&#x26;" horiz-adv-x="677" d="M35 190q0 127 143 200q-67 86 -67 152q0 65 49 103t120 38q81 0 182 -37l-33 -97q-77 33 -129 33q-61 0 -61 -52q0 -37 48 -94l171 -206q43 84 51 196h108q-6 -165 -89 -275q53 -46 145 -91l-53 -93q-37 16 -87.5 44.5t-82.5 53.5q-74 -78 -188 -78q-98 0 -162.5 52 t-64.5 151zM162 195q0 -41 27.5 -70.5t78.5 -29.5q68 0 115 44l-146 175q-35 -17 -55 -50t-20 -69z" />
<glyph unicode="'" horiz-adv-x="206" d="M40 700h126l-18 -251h-90z" />
<glyph unicode="(" horiz-adv-x="302" d="M31 310q0 215 166 442l87 -60q-120 -205 -120 -382q0 -181 120 -383l-87 -60q-166 227 -166 443z" />
<glyph unicode=")" horiz-adv-x="302" d="M18 -73q120 202 120 383q0 177 -120 382l87 60q166 -227 166 -442q0 -216 -166 -443z" />
<glyph unicode="*" horiz-adv-x="393" d="M34 491l98 35l-97 36l47 87l76 -70l-10 107h94l-9 -106l75 68l50 -86l-98 -35l98 -38l-51 -82l-74 66l10 -105h-95l10 108l-75 -69z" />
<glyph unicode="+" horiz-adv-x="483" d="M37 223v110h149v145h111v-145h149v-110h-149v-146h-111v146h-149z" />
<glyph unicode="," horiz-adv-x="218" d="M-20 -128q82 95 82 172q0 33 -17 72h115q12 -26 12 -57q0 -105 -89 -187h-103z" />
<glyph unicode="-" horiz-adv-x="509" d="M51 223v109h407v-109h-407z" />
<glyph unicode="." horiz-adv-x="242" d="M39 77q0 33 24 57t59 24q33 0 57 -24t24 -57q0 -34 -24 -59t-57 -25q-35 0 -59 24.5t-24 59.5z" />
<glyph unicode="/" horiz-adv-x="426" d="M18 -89l285 851l105 -31l-283 -849z" />
<glyph unicode="0" horiz-adv-x="546" d="M43 332q0 131 28 209.5t77 109t127 30.5q117 0 172.5 -76t55.5 -270q0 -99 -15 -167.5t-46 -107.5t-72.5 -56t-99.5 -17q-78 0 -125.5 29t-74.5 106t-27 210zM179 334q0 -130 21.5 -179.5t72.5 -49.5t72.5 49.5t21.5 179.5q0 129 -21.5 178.5t-72.5 49.5t-72.5 -49.5 t-21.5 -178.5z" />
<glyph unicode="1" horiz-adv-x="377" d="M7 582l198 86h108v-667h-139v535l-123 -53z" />
<glyph unicode="2" horiz-adv-x="482" d="M27 0v105q108 118 201 230q46 55 61.5 82.5t15.5 64.5q0 41 -23 63t-65 22q-63 0 -133 -30l-31 100q91 45 177 45q93 0 146 -52t53 -138q0 -53 -22 -97.5t-65 -101.5q-50 -67 -149 -177h258l-9 -116h-415z" />
<glyph unicode="3" horiz-adv-x="489" d="M27 25l30 111q90 -32 147 -32q114 0 114 103q0 46 -31 73t-91 27h-69v101h59q100 0 100 81q0 35 -24.5 52t-62.5 17q-59 0 -133 -30l-32 107q98 45 187 45q95 0 147 -47.5t52 -127.5q0 -40 -18.5 -78t-56.5 -62q107 -46 107 -156q0 -103 -63.5 -162.5t-173.5 -59.5 q-81 0 -188 38z" />
<glyph unicode="4" horiz-adv-x="568" d="M19 176v74l266 419h156v-398h104v-95h-104v-176h-133v176h-289zM166 271h142l-1 234z" />
<glyph unicode="5" horiz-adv-x="483" d="M28 48l43 99q84 -42 149 -42q43 0 70 28.5t27 92.5q0 51 -25 77.5t-63 26.5q-50 0 -91 -41l-73 35v345h349v-115h-232v-127q32 23 82 23q81 0 134 -58.5t53 -161.5q0 -105 -58 -174t-166 -69q-99 0 -199 61z" />
<glyph unicode="6" horiz-adv-x="499" d="M41 283q0 191 75 294t198 103q63 0 125 -28l-31 -107q-35 13 -86 13q-48 0 -83 -35t-48 -110q20 18 47.5 27t46.5 9q84 0 133 -54t49 -163q0 -104 -55 -174t-159 -70q-212 0 -212 295zM180 311q0 -117 19 -162t57 -45q37 0 57 33.5t20 94.5q0 51 -19.5 76t-51.5 26 q-43 0 -82 -23z" />
<glyph unicode="7" horiz-adv-x="433" d="M22 554v115h399v-72l-108 -259q-74 -162 -100 -338h-131q21 169 96 340q2 4 96 214h-252z" />
<glyph unicode="8" horiz-adv-x="518" d="M37 187q0 49 29.5 95t80.5 76q-80 49 -80 146q0 85 54.5 131t141.5 46q88 0 140 -44t52 -122q0 -101 -93 -156q118 -57 118 -169q0 -84 -55.5 -143t-161.5 -59q-111 0 -168.5 53t-57.5 146zM167 190q0 -41 26 -63.5t66 -22.5q42 0 66.5 25.5t24.5 64.5q0 43 -28 67 t-79 44q-1 0 -3 1l-4 2h-1l-1 1q-67 -41 -67 -119zM191 507q0 -34 21.5 -62t53.5 -43q29 17 47 48t18 55q0 31 -19.5 46.5t-48.5 15.5q-30 0 -51 -14.5t-21 -45.5z" />
<glyph unicode="9" horiz-adv-x="500" d="M33 435q0 104 55 174t159 70q212 0 212 -295q0 -191 -75 -293.5t-198 -102.5q-63 0 -125 28l31 107q35 -13 86 -13q48 0 83 35t48 109q-20 -18 -47.5 -27t-46.5 -9q-84 0 -133 54t-49 163zM167 435q0 -51 19.5 -76t51.5 -26q43 0 82 23q0 117 -19 162t-57 45 q-37 0 -57 -33.5t-20 -94.5z" />
<glyph unicode=":" horiz-adv-x="266" d="M50 77q0 33 24 57t59 24q33 0 57 -24t24 -57q0 -34 -24 -59t-57 -25q-35 0 -59 24.5t-24 59.5zM52 374q0 33 24 57t59 24q33 0 57 -24t24 -57q0 -34 -24 -59t-57 -25q-35 0 -59 24.5t-24 59.5z" />
<glyph unicode=";" horiz-adv-x="256" d="M2 -128q82 95 82 172q0 33 -17 72h115q12 -26 12 -57q0 -105 -89 -187h-103zM44 371q0 33 24 57t59 24q33 0 57 -24t24 -57q0 -34 -24 -59t-57 -25q-35 0 -59 24.5t-24 59.5z" />
<glyph unicode="&#x3c;" horiz-adv-x="439" d="M31 236v88l356 178v-122l-208 -99l208 -101v-120z" />
<glyph unicode="=" horiz-adv-x="488" d="M55 128v108h378v-108h-378zM55 324v107h378v-107h-378z" />
<glyph unicode="&#x3e;" horiz-adv-x="439" d="M52 60v120l208 101l-208 99v122l356 -178v-88z" />
<glyph unicode="?" horiz-adv-x="366" d="M42 51q0 32 23 54.5t56 22.5q31 0 54 -23t23 -54q0 -33 -22.5 -56.5t-54.5 -23.5q-33 0 -56 23.5t-23 56.5zM50 608l25 92q125 -6 200.5 -60.5t66.5 -139.5q-3 -30 -17 -56t-27.5 -39.5t-38.5 -35.5q-24 -21 -38 -35.5t-28 -40.5t-17 -55q0 -8 -1 -27.5t-1 -26.5h-114 q-3 36 -3 67q4 33 20.5 65t31.5 49.5t41 42.5q20 18 30.5 28.5t20.5 27.5t12 34q12 94 -163 110z" />
<glyph unicode="@" horiz-adv-x="801" d="M36 280q0 180 107.5 290t294.5 110q166 0 251.5 -85.5t85.5 -236.5q0 -257 -189 -257q-29 0 -57.5 16.5t-40.5 41.5q-18 -24 -48.5 -41.5t-60.5 -17.5q-69 0 -111 44t-42 122q0 106 61 172t153 66q60 0 140 -35l-18 -208q-1 -12 -1 -31q0 -20 9.5 -28t33.5 -8 q63 0 63 165q0 105 -58 164t-173 59q-136 0 -212 -80t-76 -220q0 -62 15.5 -110.5t41 -78t60.5 -48.5t70.5 -26t74.5 -7q83 0 204 42l25 -86q-123 -54 -245 -54q-77 0 -140.5 21t-113 63.5t-77 114.5t-27.5 167zM336 273q0 -81 52 -81q26 0 44 23t20 58l11 139q-7 3 -22 3 q-45 0 -75 -40.5t-30 -101.5z" />
<glyph unicode="A" horiz-adv-x="568" d="M-4 0l212 668h153l209 -668h-142l-47 158h-193l-46 -158h-146zM219 267h131l-66 263z" />
<glyph unicode="B" horiz-adv-x="549" d="M64 0v668h146q77 0 121 -6.5t79 -29.5q68 -44 68 -142q0 -84 -65 -124q58 -26 80.5 -63.5t22.5 -98.5q0 -95 -57.5 -149.5t-174.5 -54.5h-220zM207 114h60q110 0 110 94q0 55 -31.5 75.5t-90.5 20.5h-48v-190zM207 409h67q65 5 65 81q0 20 -6 34t-14 21.5t-24 11.5 t-29.5 4.5t-37.5 0.5h-21v-153z" />
<glyph unicode="C" horiz-adv-x="519" d="M39 336q0 95 26 164.5t70.5 107t95 54.5t108.5 17q75 0 151 -22l-23 -103q-57 11 -106 11q-81 0 -128 -50.5t-47 -175.5q0 -128 48 -180.5t133 -52.5q59 0 107 8l9 -109q-79 -18 -154 -18q-60 0 -109.5 17.5t-91.5 56.5t-65.5 109t-23.5 166z" />
<glyph unicode="D" horiz-adv-x="601" d="M64 0v667h188q126 0 176 -26q132 -68 132 -308q0 -108 -31.5 -190t-99.5 -116q-54 -27 -177 -27h-188zM208 129h50q95 0 127.5 49.5t32.5 155.5t-32 155t-128 49h-50v-409z" />
<glyph unicode="E" horiz-adv-x="536" d="M64 0v669h421v-116h-277v-151h261v-112h-261v-174h286v-116h-430z" />
<glyph unicode="F" horiz-adv-x="512" d="M64 0v668h421v-115h-276v-151h252v-112h-252v-290h-145z" />
<glyph unicode="G" horiz-adv-x="580" d="M38 336q0 95 26 164.5t70.5 107t95 54.5t108.5 17q80 0 175 -26l-21 -104q-67 16 -132 16q-81 0 -128 -50.5t-47 -175.5q0 -233 155 -233q31 0 65 6v124h-94v105h225v-310q-110 -44 -217 -44q-121 0 -199 83.5t-82 265.5z" />
<glyph unicode="H" horiz-adv-x="633" d="M64 0v668h143v-264h219v264h143v-668h-143v288h-219v-288h-143z" />
<glyph unicode="I" horiz-adv-x="272" d="M64 0v668h144v-668h-144z" />
<glyph unicode="J" horiz-adv-x="270" d="M-58 -91q75 42 99 87t24 125v547h143v-545q0 -109 -45.5 -183.5t-158.5 -125.5z" />
<glyph unicode="K" horiz-adv-x="636" d="M64 0v668h144v-668h-144zM230 341l194 327h170l-207 -322l251 -346h-175z" />
<glyph unicode="L" horiz-adv-x="474" d="M64 0v668h145v-552h255v-116h-400z" />
<glyph unicode="M" horiz-adv-x="771" d="M46 0l39 668h156l144 -430l145 430h156l39 -668h-134l-16 478l-137 -393h-105l-138 394l-16 -479h-133z" />
<glyph unicode="N" horiz-adv-x="682" d="M64 0v668h152l262 -468v468h140v-668h-152l-263 467v-467h-139z" />
<glyph unicode="O" horiz-adv-x="618" d="M39 334q0 70 14 129t44 109.5t84.5 79t128.5 28.5q60 0 107.5 -19.5t77.5 -51.5t49 -77.5t27 -93.5t8 -104q0 -70 -13.5 -128.5t-43.5 -109t-85 -79.5t-130 -29q-60 0 -107 19.5t-77 51.5t-49 77.5t-27 94t-8 103.5zM178 334q0 -105 29 -164.5t102 -59.5t102 59.5 t29 164.5q0 69 -10 116.5t-40 80t-81 32.5q-38 0 -64.5 -17.5t-40.5 -50.5t-20 -71.5t-6 -89.5z" />
<glyph unicode="P" horiz-adv-x="540" d="M64 0v668h193q76 0 121.5 -13t80.5 -45q61 -54 61 -148q0 -111 -68 -166q-35 -28 -85 -40t-134 -12h-25v-244h-144zM208 350h11q99 0 127 21q34 23 34 82q0 66 -34.5 87.5t-111.5 21.5h-26v-212z" />
<glyph unicode="Q" horiz-adv-x="618" d="M39 334q0 70 14 129t44 109.5t84.5 79t128.5 28.5q60 0 107.5 -19.5t77.5 -51.5t49 -77.5t27 -93.5t8 -104q0 -218 -118 -301q113 -13 212 -72l-72 -98q-4 4 -11.5 10.5t-35 25t-59 34t-82.5 32t-106 25.5q-72 0 -125.5 28.5t-83.5 78t-44.5 109t-14.5 128.5zM178 334 q0 -240 131 -240t131 240q0 229 -131 229t-131 -229z" />
<glyph unicode="R" horiz-adv-x="581" d="M64 0v668h193q76 0 121.5 -13t80.5 -45q61 -54 61 -148q0 -115 -68 -166q-23 -18 -54 -30l171 -233l-108 -66l-198 278q-9 -1 -30 -1h-25v-244h-144zM208 350h11q99 0 127 21q35 24 35 82q0 64 -35 86.5t-112 22.5h-26v-212z" />
<glyph unicode="S" horiz-adv-x="499" d="M29 33l37 119q92 -42 174 -42q93 0 93 72q0 35 -31 60t-94 54q-43 20 -65.5 33t-49.5 37t-39 57t-12 78q0 82 60.5 131t155.5 49q84 0 187 -38l-40 -109q-82 29 -140 29q-83 0 -84 -66q0 -13 4.5 -23.5t18 -20.5t21.5 -15.5t32.5 -18t33.5 -17.5q33 -18 50.5 -28.5 t46.5 -32.5t44.5 -41.5t27.5 -49.5t12 -63q0 -89 -61.5 -144.5t-165.5 -55.5q-50 0 -112.5 13.5t-103.5 32.5z" />
<glyph unicode="T" horiz-adv-x="515" d="M10 553v115h495v-115h-177v-553h-144v553h-174z" />
<glyph unicode="U" horiz-adv-x="606" d="M59 246v421h145v-416q0 -86 20 -113q20 -30 80 -30q61 0 79.5 32.5t18.5 110.5v416h145v-421q0 -116 -47 -182q-60 -74 -197 -76q-137 0 -198 76q-46 67 -46 182z" />
<glyph unicode="V" horiz-adv-x="553" d="M-4 668h142l138 -508q25 85 72 261.5t67 246.5h142l-210 -668h-141z" />
<glyph unicode="W" horiz-adv-x="795" d="M36 668h132l36 -505l141 449h105l140 -448l36 504h133l-67 -668h-150l-145 494l-144 -494h-150z" />
<glyph unicode="X" horiz-adv-x="600" d="M9 0l215 334l-205 333h154l126 -227l125 227h156l-208 -327l219 -340h-161l-133 231l-134 -231h-154z" />
<glyph unicode="Y" horiz-adv-x="548" d="M-8 668h146l136 -285l136 285h146l-210 -404v-264h-144v264z" />
<glyph unicode="Z" horiz-adv-x="525" d="M32 88l283 464h-267l-15 116h433l9 -93l-281 -458h302v-117h-453z" />
<glyph unicode="[" horiz-adv-x="346" d="M58 -131v879h261v-100l-130 -8v-664l130 -6v-101h-261z" />
<glyph unicode="\" horiz-adv-x="428" d="M19 731l105 31l285 -851l-107 -29z" />
<glyph unicode="]" horiz-adv-x="346" d="M27 -30l130 6v664l-130 8v100h261v-879h-261v101z" />
<glyph unicode="^" horiz-adv-x="499" d="M28 295l176 348h88l178 -348h-122l-99 200l-101 -200h-120z" />
<glyph unicode="_" horiz-adv-x="534" d="M51 0v109h432v-109h-432z" />
<glyph unicode="`" horiz-adv-x="343" d="M58 663l49 111l189 -109l-34 -78z" />
<glyph unicode="a" horiz-adv-x="510" d="M21 134q0 45 19 77t49 46.5t58 20.5t57 6q59 0 95 -3v49q0 52 -21 67t-67 15q-55 0 -118 -21l-29 88q37 22 90.5 33.5t91.5 11.5q102 0 145.5 -43.5t43.5 -148.5v-210q0 -28 25 -28q13 0 37 6l19 -83q-51 -28 -109 -28q-63 0 -92 46q-58 -48 -146 -48q-68 0 -108 39.5 t-40 107.5zM151 149q0 -69 66 -69q42 0 82 26v105q-28 2 -49 2q-99 0 -99 -64z" />
<glyph unicode="b" horiz-adv-x="541" d="M52 22v679h140v-221q21 17 56.5 29.5t71.5 12.5q82 0 135 -62.5t53 -178.5q0 -143 -58 -218.5t-186 -75.5q-55 0 -118 10.5t-94 24.5zM192 105q27 -5 52 -5q69 0 96 42t27 118q0 84 -21.5 116t-66.5 32q-43 0 -87 -27v-276z" />
<glyph unicode="c" horiz-adv-x="438" d="M32 254q0 135 67 201.5t172 66.5q62 0 141 -23l-27 -101q-61 14 -98 14q-59 0 -90.5 -35.5t-31.5 -123.5q0 -92 34.5 -127t96.5 -35q32 0 98 10l17 -91q-79 -23 -140 -23q-103 0 -171 66.5t-68 200.5z" />
<glyph unicode="d" horiz-adv-x="534" d="M34 244q0 278 217 278q55 0 89 -18v206h141v-717h-116l-8 38q-56 -40 -133 -40q-94 0 -142 68t-48 185zM168 247q0 -151 90 -151q46 0 83 23v279q-33 14 -76 14q-97 0 -97 -165z" />
<glyph unicode="e" horiz-adv-x="480" d="M33 266q0 110 59 183t170 73q89 0 137.5 -47.5t48.5 -132.5q0 -50 -13 -100h-271q1 -79 35.5 -114.5t92.5 -35.5q65 0 125 23l24 -95q-77 -33 -171 -33q-237 0 -237 279zM165 318h171v6q0 99 -70 99q-84 0 -101 -105z" />
<glyph unicode="f" horiz-adv-x="409" d="M15 422v82l95 7v29q0 103 56 150t174 47q60 0 134 -24l-29 -100q-42 10 -96 10q-62 0 -81 -22.5t-19 -73.5v-15h153l-9 -96h-144v-602l-140 14v588z" />
<glyph unicode="g" horiz-adv-x="490" d="M15 -104q0 39 26 74t73 56q-32 21 -32 61q0 39 30 79q-36 26 -56 69.5t-20 94.5q0 87 48.5 141t142.5 54q14 0 44 -2.5t44 -2.5q78 0 165 15l12 -77q-19 -5 -104 -17q35 -49 35 -111q0 -86 -49.5 -140t-142.5 -54q-33 0 -53 5q-6 -18 -6 -31q0 -33 57 -33h86 q77 0 120 -34.5t43 -95.5q0 -89 -68 -140t-183 -51q-101 0 -156.5 36.5t-55.5 103.5zM131 -84q0 -56 108 -56q120 0 120 73q0 22 -16.5 33t-59.5 11h-101q-51 -17 -51 -61zM161 329q0 -44 16.5 -64t52.5 -20t52 20t16 64q0 47 -16 68.5t-52 21.5q-69 0 -69 -90z" />
<glyph unicode="h" horiz-adv-x="546" d="M53 0v697l140 9v-239q30 23 71 39t79 16q46 0 77 -12.5t47 -37.5t22.5 -53.5t6.5 -67.5v-351h-146v326q0 20 -1.5 31.5t-7 25t-18.5 19.5t-35 6q-56 0 -95 -37v-371h-140z" />
<glyph unicode="i" horiz-adv-x="246" d="M40 678q0 33 24 57t59 24q33 0 57 -24t24 -57q0 -34 -24 -59t-57 -25q-35 0 -59 24.5t-24 59.5zM53 0v512l140 12v-524h-140z" />
<glyph unicode="j" horiz-adv-x="244" d="M-77 -99q71 12 100.5 47t29.5 112v448l139 14v-471q0 -245 -258 -258zM38 679q0 34 24.5 58.5t60.5 24.5q34 0 58.5 -24.5t24.5 -58.5q0 -35 -24.5 -60.5t-58.5 -25.5q-36 0 -60.5 25t-24.5 61z" />
<glyph unicode="k" horiz-adv-x="554" d="M53 0v699l140 10v-416l170 219h152l-185 -231l224 -281h-160l-201 261v-261h-140z" />
<glyph unicode="l" horiz-adv-x="309" d="M54 161v539h141v-547q0 -29 8.5 -41t31.5 -12q29 0 57 7l21 -98q-51 -22 -103 -22q-44 0 -75 11t-46.5 25t-23.5 41t-9.5 45.5t-1.5 51.5z" />
<glyph unicode="m" horiz-adv-x="836" d="M53 0v513h115l12 -57q26 26 71.5 46t91.5 20q56 0 84 -17t45 -52q27 28 73.5 48.5t93.5 20.5q86 0 116.5 -44.5t30.5 -126.5v-351h-140v326q0 20 -1.5 31.5t-7 25t-18.5 19.5t-35 6q-56 0 -95 -37q1 -7 1 -21v-350h-140v326q0 20 -1.5 31.5t-7 25t-18.5 19.5t-35 6 q-56 0 -95 -37v-371h-140z" />
<glyph unicode="n" horiz-adv-x="546" d="M53 0v513h118l12 -57q29 27 73.5 46.5t89.5 19.5q87 0 118.5 -44.5t31.5 -126.5v-351h-140v326q0 39 -12.5 60.5t-52.5 21.5q-56 0 -95 -37v-371h-143z" />
<glyph unicode="o" d="M33 254q0 139 61.5 203.5t161.5 64.5q222 0 222 -267q0 -139 -62 -203.5t-166 -64.5q-98 0 -157.5 64t-59.5 203zM168 254q0 -160 87 -160q41 0 64 35.5t23 124.5q0 94 -22 127t-64 33q-43 0 -65.5 -33t-22.5 -127z" />
<glyph unicode="p" horiz-adv-x="538" d="M53 -213v726h120l12 -41q64 50 131 50q93 0 141 -69t48 -187q0 -279 -229 -279q-38 0 -83 18v-202zM193 107q28 -7 60 -7q114 0 114 162q0 146 -95 146q-38 0 -79 -25v-276z" />
<glyph unicode="q" horiz-adv-x="541" d="M33 228q0 294 255 294q54 0 112 -11t89 -27v-706l-140 9v232q-51 -32 -128 -32q-82 0 -135 62.5t-53 178.5zM174 249q0 -84 21.5 -116.5t66.5 -32.5q41 0 87 20v281q-26 8 -57 8q-66 0 -92 -42t-26 -118z" />
<glyph unicode="r" horiz-adv-x="377" d="M53 0v513h116l11 -65q58 76 148 76q25 0 46 -5l-23 -115q-22 6 -43 6q-82 0 -115 -47v-363h-140z" />
<glyph unicode="s" horiz-adv-x="419" d="M23 20l34 100q78 -26 137 -26q66 0 66 49q0 21 -23 38t-55.5 31.5t-65 31.5t-55.5 48t-23 72q0 77 51 118t140 41q101 0 155 -31l-33 -99q-69 21 -114 21q-68 0 -68 -45q0 -24 23 -41t55.5 -29.5t65 -28t55.5 -44.5t23 -71q0 -75 -51 -121.5t-150 -46.5q-45 0 -94.5 10 t-72.5 23z" />
<glyph unicode="t" horiz-adv-x="403" d="M15 422v82l93 8v117l140 12v-128h146l-8 -97h-139v-264q0 -29 9 -41.5t34 -12.5q33 0 69 9l21 -99q-49 -21 -117 -21q-33 0 -58.5 6t-42 14t-28 23.5t-17 27.5t-8.5 34.5t-3.5 35t-0.5 37.5v251z" />
<glyph unicode="u" horiz-adv-x="543" d="M50 158v355h140v-330q0 -40 12 -61t53 -21q54 0 95 31v381h140v-526h-115l-12 60q-77 -60 -163 -60q-87 0 -118.5 44.5t-31.5 126.5z" />
<glyph unicode="v" d="M10 513h141l104 -401l107 401h141l-160 -513h-176z" />
<glyph unicode="w" horiz-adv-x="689" d="M21 513h137l52 -401l69 392l129 9l73 -398l55 398h137l-115 -513h-150l-62 373l-63 -373h-156z" />
<glyph unicode="x" horiz-adv-x="527" d="M6 0l178 266l-160 247h150l93 -172l93 172h146l-159 -249l172 -264h-148l-107 191l-108 -191h-150z" />
<glyph unicode="y" horiz-adv-x="502" d="M-20 -195l21 97q0 -1 13 -3t30 -4.5t26 -2.5q56 0 79.5 20.5t42.5 100.5l-187 487l133 17l115 -354l102 350h135l-162 -471q-52 -150 -98.5 -202.5t-144.5 -52.5q-45 0 -105 18z" />
<glyph unicode="z" horiz-adv-x="451" d="M25 75l225 341h-205l-10 96h359l13 -78l-226 -339h240l12 -95h-396z" />
<glyph unicode="{" horiz-adv-x="369" d="M18 260v104h43q8 0 13 3.5t7.5 11.5t3 14t1 19t0.5 18q1 23 2.5 75.5t2.5 75.5q3 81 46.5 127t116.5 46h89v-95h-95q-40 0 -40 -80l-2 -129q-2 -100 -45 -138q43 -38 45 -138l2 -129q0 -80 40 -80h95v-95h-89q-73 0 -116.5 46t-46.5 127q-1 23 -2.5 75.5t-2.5 75.5 q0 5 -0.5 18t-1 19t-3 14t-7.5 11.5t-13 3.5h-43z" />
<glyph unicode="|" horiz-adv-x="234" d="M59 -43v737h116v-737h-116z" />
<glyph unicode="}" horiz-adv-x="369" d="M26 -35h95q40 0 40 80l2 129q2 100 45 138q-43 38 -45 138l-2 129q0 80 -40 80h-95v95h89q73 0 116.5 -46t46.5 -127q1 -23 2.5 -75.5t2.5 -75.5q0 -5 0.5 -18t1 -19t3 -14t7.5 -11.5t13 -3.5h43v-104h-43q-8 0 -13 -3.5t-7.5 -11.5t-3 -14t-1 -19t-0.5 -18 q-1 -23 -2.5 -75.5t-2.5 -75.5q-3 -81 -46.5 -127t-116.5 -46h-89v95z" />
<glyph unicode="~" horiz-adv-x="567" d="M34 271q58 104 137 104q52 0 128 -36q70 -31 99 -31q41 0 73 46l63 -55q-58 -103 -144 -103q-47 0 -121 35q-62 31 -99 31q-41 0 -73 -46z" />
<glyph horiz-adv-x="0" />
<glyph unicode="&#xa1;" horiz-adv-x="240" d="M37 447q0 34 24 59t57 25q35 0 59 -24.5t24 -59.5q0 -33 -24 -57t-59 -24q-33 0 -57 24t-24 57zM47 -178l22 486h105l19 -486h-146z" />
<glyph unicode="&#xa2;" horiz-adv-x="440" d="M26 338q0 122 55 188t146 77l-6 116h90l-7 -115q38 -3 102 -21l-27 -101q-61 14 -98 14q-59 0 -90.5 -35.5t-31.5 -123.5q0 -92 34.5 -127t96.5 -35q32 0 98 10l17 -91q-52 -16 -100 -22l6 -108h-90l6 109q-89 12 -145 78t-56 187z" />
<glyph unicode="&#xa3;" horiz-adv-x="493" d="M36 304v100h56q-12 36 -12 87q0 92 53.5 142t145.5 50q79 0 170 -42l-38 -100q-78 32 -127 32q-40 0 -61 -20.5t-21 -56.5q0 -45 15 -92h132l6 -100h-108q5 -25 5 -60q0 -68 -32 -129h241v-115h-399v100q32 16 51 60t19 89q0 34 -8 55h-88z" />
<glyph unicode="&#xa4;" horiz-adv-x="537" d="M31 21l79 101q-43 57 -43 128q0 75 48 134q-12 17 -39 49.5t-37 45.5l69 53l75 -96q43 18 91 18q45 0 80 -16q46 61 74 94l68 -53l-70 -91q54 -59 54 -138q0 -76 -51 -135q3 -4 25 -31q6 -8 24 -31t25 -32l-69 -53l-73 96q-33 -17 -87 -17q-52 0 -96 21 q-14 -18 -41.5 -53.5t-36.5 -46.5zM161 250q0 -48 32 -81t81 -33q48 0 80 33t32 81q0 32 -14.5 58.5t-40 42t-57.5 15.5q-49 0 -81 -33.5t-32 -82.5z" />
<glyph unicode="&#xa5;" horiz-adv-x="606" d="M21 668h146l136 -285l136 285h146l-175 -337h113v-84h-148v-53h148v-85h-148v-109h-144v109h-148v85h148v53h-148v84h113z" />
<glyph unicode="&#xa6;" horiz-adv-x="236" d="M60 -43v285h116v-285h-116zM60 407v287h116v-287h-116z" />
<glyph unicode="&#xa7;" horiz-adv-x="379" d="M24 287q0 88 78 140q-14 42 -14 73q0 123 126 169q16 6 63 17l23 -99l-46 -16q-55 -20 -55 -61q0 -13 8 -31q15 -35 68 -115q52 -76 66 -108q15 -34 15 -71q0 -92 -80 -142q16 -32 16 -71q0 -45 -18 -81q-19 -39 -66.5 -68.5t-105.5 -36.5l-23 97l47 15q54 19 54 61 q0 18 -8 31q-6 14 -14 29.5t-15 26t-18.5 28.5t-17.5 27q-7 11 -23 34t-26.5 41.5t-19.5 37.5q-14 31 -14 73zM136 297q0 -18 6 -33q17 -41 69 -115l15 -21q18 20 18 44q0 15 -7 34q-10 25 -27 51.5t-57 82.5q-17 -16 -17 -43z" />
<glyph unicode="&#xa8;" horiz-adv-x="358" d="M17 667q0 28 19.5 48t49.5 20q29 0 49 -20t20 -48q0 -30 -20 -50.5t-49 -20.5q-30 0 -49.5 20.5t-19.5 50.5zM201 667q0 28 20 48t50 20q28 0 48 -20t20 -48q0 -30 -20 -50.5t-48 -20.5q-30 0 -50 20.5t-20 50.5z" />
<glyph unicode="&#xa9;" horiz-adv-x="716" d="M38 302q0 134 93 227t227 93t227 -93t93 -227t-93 -227t-227 -93t-227 93t-93 227zM112 300q0 -110 70 -182.5t176 -72.5t175.5 73.5t69.5 183.5t-69.5 181.5t-175.5 71.5t-176 -72.5t-70 -182.5zM195 298q0 99 50 149.5t123 50.5q60 0 108 -32l-24 -52q-38 24 -83 24 q-44 0 -74 -34t-30 -106t30 -106.5t74 -34.5q43 0 90 27l22 -49q-52 -37 -113 -37q-73 0 -123 50.5t-50 149.5z" />
<glyph unicode="&#xaa;" horiz-adv-x="342" d="M34 486q1 48 32.5 66.5t69.5 18.5q32 0 51 -2v26q0 26 -11 34t-36 8q-24 0 -65 -13l-18 53q42 26 103 26q57 0 81 -24.5t24 -82.5v-117q0 -12 12 -12q11 0 22 4l11 -50q-30 -17 -61 -17q-35 0 -52 24q-33 -25 -80 -25q-38 0 -60.5 22.5t-22.5 60.5zM110 494q0 -35 33 -35 q23 0 44 13v55h-10q-3 0 -8 0.5t-7 0.5q-52 0 -52 -34z" />
<glyph unicode="&#xab;" horiz-adv-x="560" d="M36 247v59l176 185l82 -70l-140 -145l140 -142l-82 -73zM267 247v59l176 185l82 -70l-139 -145l139 -142l-82 -73z" />
<glyph unicode="&#xac;" horiz-adv-x="566" d="M51 333v109h457v-217h-110v108h-347z" />
<glyph unicode="&#xad;" horiz-adv-x="509" />
<glyph unicode="&#xae;" horiz-adv-x="716" d="M38 302q0 134 93 227t227 93t227 -93t93 -227t-93 -227t-227 -93t-227 93t-93 227zM112 300q0 -110 70 -182.5t176 -72.5t175.5 73.5t69.5 183.5t-69.5 181.5t-175.5 71.5t-176 -72.5t-70 -182.5zM235 111v386h96q81 0 117 -32q34 -30 34 -84q0 -62 -37 -92 q-15 -13 -33 -19q3 -6 42.5 -58t60.5 -76l-42 -31q-62 67 -119 155q-26 -2 -39 -2h-21v-147h-59zM294 305h20q63 0 82 16q24 17 24 58q0 42 -24 57.5t-73 15.5h-29v-147z" />
<glyph unicode="&#xaf;" horiz-adv-x="532" d="M45 541v109h442v-109h-442z" />
<glyph unicode="&#xb0;" horiz-adv-x="311" d="M35 564q0 50 31 84.5t89 34.5q59 0 90 -34t31 -84t-31.5 -86t-90.5 -36q-58 0 -88.5 35t-30.5 86zM104 562q0 -22 12.5 -38.5t38.5 -16.5q53 0 53 57q0 54 -53 54q-26 0 -38.5 -16t-12.5 -40z" />
<glyph unicode="&#xb1;" d="M51 333v110h149v145h111v-145h149v-110h-149v-146h-111v146h-149zM52 1v109h407v-109h-407z" />
<glyph unicode="&#xb2;" horiz-adv-x="378" d="M46 256v75q13 13 35 37q52 54 90 99q24 29 34 47.5t10 35.5q0 21 -12 33t-31 12q-8 0 -16.5 -1.5t-19 -4.5t-17 -5.5t-19 -7t-15.5 -5.5l-26 77q68 32 121 32q40 0 69.5 -15.5t45 -43.5t15.5 -65q0 -51 -55 -125q-13 -18 -77 -87h145v-88h-277z" />
<glyph unicode="&#xb3;" horiz-adv-x="367" d="M35 291l35 74q51 -31 91 -31q22 0 35.5 14.5t13.5 39.5q0 56 -58 56h-49v70h48q43 0 43 48q0 34 -44 34q-38 0 -76 -19l-26 71q64 32 114 32q61 0 94.5 -30t33.5 -84q0 -45 -35 -78q49 -30 49 -98q0 -63 -39 -102t-104 -39q-59 0 -126 42z" />
<glyph unicode="&#xb4;" horiz-adv-x="342" d="M50 665l189 109l49 -111l-204 -76z" />
<glyph unicode="&#xb5;" horiz-adv-x="603" d="M61 -201v714h140v-330q0 -40 12 -61t53 -21q54 0 95 31v381h140v-391q0 -28 25 -28q13 0 37 6l19 -83q-51 -28 -109 -28q-75 0 -99 64q-56 -56 -125 -56q-27 0 -48 9v-207h-140z" />
<glyph unicode="&#xb6;" horiz-adv-x="506" d="M21 510q0 66 46.5 112t112.5 46h298v-64h-72v-766h-74v766h-74v-766h-78v513q-66 0 -112.5 46.5t-46.5 112.5z" />
<glyph unicode="&#xb7;" horiz-adv-x="248" d="M42 264q0 33 24 57t59 24q33 0 57 -24t24 -57q0 -34 -24 -59t-57 -25q-35 0 -59 24.5t-24 59.5z" />
<glyph unicode="&#xb8;" horiz-adv-x="276" d="M53 -230q58 43 58 91q0 28 -21 82h124q18 -39 18 -76q0 -97 -128 -162z" />
<glyph unicode="&#xb9;" horiz-adv-x="320" d="M12 604l143 62h77v-415h-103v308l-86 -36z" />
<glyph unicode="&#xba;" horiz-adv-x="325" d="M37 552q0 78 35 114.5t91 36.5q125 0 125 -150q0 -78 -35 -114.5t-93 -36.5q-56 0 -89.5 35.5t-33.5 114.5zM116 552q0 -87 46 -87q47 0 47 87q0 51 -11.5 69t-34.5 18t-35 -18t-12 -69z" />
<glyph unicode="&#xbb;" horiz-adv-x="561" d="M37 136l139 142l-139 145l82 70l176 -185v-59l-176 -186zM268 136l140 142l-140 145l82 70l176 -185v-59l-176 -186z" />
<glyph unicode="&#xbc;" horiz-adv-x="874" d="M19 625l143 62h77v-415h-103v308l-86 -36zM231 -55l285 851l105 -31l-283 -849zM525 109v55l140 244h119v-227h63v-72h-63v-109h-95v109h-164zM623 181h66v124z" />
<glyph unicode="&#xbd;" horiz-adv-x="841" d="M19 625l143 62h77v-415h-103v308l-86 -36zM215 -55l285 851l105 -31l-283 -849zM533 -2v75q13 13 35 37q52 54 90 99q24 29 34 47.5t10 35.5q0 42 -43 42q-29 0 -87 -21l-26 77q68 32 121 32q40 0 69.5 -15.5t45 -43.5t15.5 -65q0 -51 -55 -125q-13 -18 -77 -87h145v-88 h-277z" />
<glyph unicode="&#xbe;" horiz-adv-x="874" d="M25 307l35 74q51 -31 91 -31q22 0 35.5 14.5t13.5 39.5t-16.5 40.5t-45.5 15.5h-45v70h44q47 0 47 48q0 34 -44 34q-38 0 -76 -19l-26 71q64 32 114 32q61 0 94.5 -30t33.5 -84q0 -45 -35 -78q49 -30 49 -98q0 -63 -39 -102t-104 -39q-59 0 -126 42zM239 -68l285 851 l105 -31l-283 -849zM531 109v55l140 244h119v-227h63v-72h-63v-109h-95v109h-164zM629 181h66v124z" />
<glyph unicode="&#xbf;" horiz-adv-x="361" d="M22 -4q3 30 17 56t27.5 39.5t38.5 35.5q24 21 38 35.5t28 40.5t17 55q0 8 1 27t1 27h114q3 -36 3 -67q-4 -33 -20.5 -65t-31.5 -49.5t-41 -42.5q-20 -18 -30.5 -28.5t-20.5 -27.5t-12 -34q-12 -94 163 -110l-25 -92q-125 6 -200.5 60.5t-66.5 139.5zM167 448 q0 33 22.5 56.5t54.5 23.5q33 0 56 -23.5t23 -56.5q0 -32 -23 -54.5t-56 -22.5q-32 0 -54.5 22.5t-22.5 54.5z" />
<glyph unicode="&#xc0;" horiz-adv-x="568" d="M-4 0l212 668h153l209 -668h-142l-47 158h-193l-46 -158h-146zM153 808l49 111l189 -109l-34 -78zM219 267h131l-66 263z" />
<glyph unicode="&#xc1;" horiz-adv-x="568" d="M-4 0l212 668h153l209 -668h-142l-47 158h-193l-46 -158h-146zM218 813l189 109l49 -111l-204 -76zM219 267h131l-66 263z" />
<glyph unicode="&#xc2;" horiz-adv-x="568" d="M-4 0l212 668h153l209 -668h-142l-47 158h-193l-46 -158h-146zM137 763l111 119h74l111 -119l-64 -52l-84 85l-84 -85zM219 267h131l-66 263z" />
<glyph unicode="&#xc3;" horiz-adv-x="568" d="M-4 0l212 668h153l209 -668h-142l-47 158h-193l-46 -158h-146zM112 796q18 30 47.5 52.5t58.5 22.5q26 0 71 -21.5t64 -21.5q26 0 55 35l49 -54q-18 -30 -48.5 -52.5t-59.5 -22.5q-26 0 -70 21.5t-63 21.5q-26 0 -55 -35zM219 267h131l-66 263z" />
<glyph unicode="&#xc4;" horiz-adv-x="568" d="M-4 0l212 668h153l209 -668h-142l-47 158h-193l-46 -158h-146zM124 786q0 28 19.5 48t49.5 20q29 0 49 -20t20 -48q0 -30 -20 -50.5t-49 -20.5q-30 0 -49.5 20.5t-19.5 50.5zM219 267h131l-66 263zM308 786q0 28 20 48t50 20q28 0 48 -20t20 -48q0 -30 -20 -50.5 t-48 -20.5q-30 0 -50 20.5t-20 50.5z" />
<glyph unicode="&#xc5;" horiz-adv-x="568" d="M-4 0l212 668h153l209 -668h-142l-47 158h-193l-46 -158h-146zM181 815q0 43 26.5 72.5t76.5 29.5t76.5 -29t26.5 -72t-27 -73.5t-77 -30.5t-76 30t-26 73zM219 267h131l-66 263zM249 814q0 -16 8.5 -27.5t26.5 -11.5q36 0 36 40q0 38 -36 38q-35 0 -35 -39z" />
<glyph unicode="&#xc6;" horiz-adv-x="817" d="M-7 0l288 668h485v-116h-277v-151h261v-112h-261v-174h286v-116h-405v159h-169l-63 -158h-145zM244 267h117v304z" />
<glyph unicode="&#xc7;" horiz-adv-x="519" d="M39 336q0 95 26 164.5t70.5 107t95 54.5t108.5 17q75 0 151 -22l-23 -103q-57 11 -106 11q-81 0 -128 -50.5t-47 -175.5q0 -128 48 -180.5t133 -52.5q59 0 107 8l9 -109q-79 -18 -154 -18q-60 0 -109.5 17.5t-91.5 56.5t-65.5 109t-23.5 166zM245 -230q58 43 58 91 q0 28 -21 82h124q18 -39 18 -76q0 -97 -128 -162z" />
<glyph unicode="&#xc8;" horiz-adv-x="536" d="M64 0v669h421v-116h-277v-151h261v-112h-261v-174h286v-116h-430zM150 808l49 111l189 -109l-34 -78z" />
<glyph unicode="&#xc9;" horiz-adv-x="536" d="M64 0v669h421v-116h-277v-151h261v-112h-261v-174h286v-116h-430zM144 813l189 109l49 -111l-204 -76z" />
<glyph unicode="&#xca;" horiz-adv-x="536" d="M64 0v669h421v-116h-277v-151h261v-112h-261v-174h286v-116h-430zM108 763l111 119h74l111 -119l-64 -52l-84 85l-84 -85z" />
<glyph unicode="&#xcb;" horiz-adv-x="536" d="M64 0v669h421v-116h-277v-151h261v-112h-261v-174h286v-116h-430zM107 786q0 28 19.5 48t49.5 20q29 0 49 -20t20 -48q0 -30 -20 -50.5t-49 -20.5q-30 0 -49.5 20.5t-19.5 50.5zM291 786q0 28 20 48t50 20q28 0 48 -20t20 -48q0 -30 -20 -50.5t-48 -20.5q-30 0 -50 20.5 t-20 50.5z" />
<glyph unicode="&#xcc;" horiz-adv-x="272" d="M-22 808l49 111l189 -109l-34 -78zM64 0v668h144v-668h-144z" />
<glyph unicode="&#xcd;" horiz-adv-x="272" d="M47 813l189 109l49 -111l-204 -76zM64 0v668h144v-668h-144z" />
<glyph unicode="&#xce;" horiz-adv-x="272" d="M-16 763l111 119h74l111 -119l-64 -52l-84 85l-84 -85zM64 0v668h144v-668h-144z" />
<glyph unicode="&#xcf;" horiz-adv-x="272" d="M-35 786q0 28 19.5 48t49.5 20q29 0 49 -20t20 -48q0 -30 -20 -50.5t-49 -20.5q-30 0 -49.5 20.5t-19.5 50.5zM64 0v668h144v-668h-144zM149 786q0 28 20 48t50 20q28 0 48 -20t20 -48q0 -30 -20 -50.5t-48 -20.5q-30 0 -50 20.5t-20 50.5z" />
<glyph unicode="&#xd0;" horiz-adv-x="653" d="M21 280v112h95v275h188q126 0 176 -26q132 -68 132 -308q0 -108 -31.5 -190t-99.5 -116q-54 -27 -177 -27h-188v280h-95zM260 129h50q95 0 127.5 49.5t32.5 155.5t-32 155t-128 49h-50v-146h115v-112h-115v-151z" />
<glyph unicode="&#xd1;" horiz-adv-x="682" d="M64 0v668h152l262 -468v468h140v-668h-152l-263 467v-467h-139zM158 796q18 30 47.5 52.5t58.5 22.5q26 0 71 -21.5t64 -21.5q26 0 55 35l49 -54q-18 -30 -48.5 -52.5t-59.5 -22.5q-26 0 -70 21.5t-63 21.5q-26 0 -55 -35z" />
<glyph unicode="&#xd2;" horiz-adv-x="618" d="M39 334q0 70 14 129t44 109.5t84.5 79t128.5 28.5q60 0 107.5 -19.5t77.5 -51.5t49 -77.5t27 -93.5t8 -104q0 -70 -13.5 -128.5t-43.5 -109t-85 -79.5t-130 -29q-60 0 -107 19.5t-77 51.5t-49 77.5t-27 94t-8 103.5zM178 334q0 -105 29 -164.5t102 -59.5t102 59.5 t29 164.5q0 69 -10 116.5t-40 80t-81 32.5q-38 0 -64.5 -17.5t-40.5 -50.5t-20 -71.5t-6 -89.5zM182 808l49 111l189 -109l-34 -78z" />
<glyph unicode="&#xd3;" horiz-adv-x="618" d="M39 334q0 70 14 129t44 109.5t84.5 79t128.5 28.5q60 0 107.5 -19.5t77.5 -51.5t49 -77.5t27 -93.5t8 -104q0 -70 -13.5 -128.5t-43.5 -109t-85 -79.5t-130 -29q-60 0 -107 19.5t-77 51.5t-49 77.5t-27 94t-8 103.5zM178 334q0 -105 29 -164.5t102 -59.5t102 59.5 t29 164.5q0 69 -10 116.5t-40 80t-81 32.5q-38 0 -64.5 -17.5t-40.5 -50.5t-20 -71.5t-6 -89.5zM193 813l189 109l49 -111l-204 -76z" />
<glyph unicode="&#xd4;" horiz-adv-x="618" d="M39 334q0 70 14 129t44 109.5t84.5 79t128.5 28.5q60 0 107.5 -19.5t77.5 -51.5t49 -77.5t27 -93.5t8 -104q0 -70 -13.5 -128.5t-43.5 -109t-85 -79.5t-130 -29q-60 0 -107 19.5t-77 51.5t-49 77.5t-27 94t-8 103.5zM162 763l111 119h74l111 -119l-64 -52l-84 85l-84 -85 zM178 334q0 -105 29 -164.5t102 -59.5t102 59.5t29 164.5q0 69 -10 116.5t-40 80t-81 32.5q-38 0 -64.5 -17.5t-40.5 -50.5t-20 -71.5t-6 -89.5z" />
<glyph unicode="&#xd5;" horiz-adv-x="618" d="M39 334q0 70 14 129t44 109.5t84.5 79t128.5 28.5q60 0 107.5 -19.5t77.5 -51.5t49 -77.5t27 -93.5t8 -104q0 -70 -13.5 -128.5t-43.5 -109t-85 -79.5t-130 -29q-60 0 -107 19.5t-77 51.5t-49 77.5t-27 94t-8 103.5zM134 793q18 30 47.5 52.5t58.5 22.5q26 0 70.5 -21.5 t64.5 -21.5q26 0 55 35l49 -54q-18 -30 -48.5 -52.5t-59.5 -22.5q-26 0 -70 21.5t-63 21.5q-26 0 -55 -35zM178 334q0 -105 29 -164.5t102 -59.5t102 59.5t29 164.5q0 69 -10 116.5t-40 80t-81 32.5q-38 0 -64.5 -17.5t-40.5 -50.5t-20 -71.5t-6 -89.5z" />
<glyph unicode="&#xd6;" horiz-adv-x="618" d="M39 334q0 70 14 129t44 109.5t84.5 79t128.5 28.5q60 0 107.5 -19.5t77.5 -51.5t49 -77.5t27 -93.5t8 -104q0 -70 -13.5 -128.5t-43.5 -109t-85 -79.5t-130 -29q-60 0 -107 19.5t-77 51.5t-49 77.5t-27 94t-8 103.5zM142 786q0 28 19.5 48t49.5 20q29 0 49 -20t20 -48 q0 -30 -20 -50.5t-49 -20.5q-30 0 -49.5 20.5t-19.5 50.5zM178 334q0 -105 29 -164.5t102 -59.5t102 59.5t29 164.5q0 69 -10 116.5t-40 80t-81 32.5q-38 0 -64.5 -17.5t-40.5 -50.5t-20 -71.5t-6 -89.5zM326 786q0 28 20 48t50 20q28 0 48 -20t20 -48q0 -30 -20 -50.5 t-48 -20.5q-30 0 -50 20.5t-20 50.5z" />
<glyph unicode="&#xd7;" horiz-adv-x="516" d="M39 150l140 140l-138 137l79 79l137 -137l138 137l80 -78l-137 -136l139 -140l-78 -77l-140 138l-140 -140z" />
<glyph unicode="&#xd8;" horiz-adv-x="618" d="M39 334q0 70 14 129t44 109.5t84.5 79t128.5 28.5q38 0 67 -7l43 105l103 -38l-47 -114q103 -86 103 -292q0 -70 -13.5 -128.5t-43.5 -109t-85 -79.5t-130 -29q-49 0 -90 12l-45 -110l-105 36l55 133q-83 88 -83 275zM178 334q0 -69 11 -114l141 341q-14 2 -21 2 q-38 0 -64.5 -17.5t-40.5 -50.5t-20 -71.5t-6 -89.5zM265 117q18 -7 44 -7q73 0 102 59.5t29 164.5q0 97 -22 152z" />
<glyph unicode="&#xd9;" horiz-adv-x="606" d="M59 246v421h145v-416q0 -86 20 -113q20 -30 80 -30q61 0 79.5 32.5t18.5 110.5v416h145v-421q0 -116 -47 -182q-60 -74 -197 -76q-137 0 -198 76q-46 67 -46 182zM178 808l49 111l189 -109l-34 -78z" />
<glyph unicode="&#xda;" horiz-adv-x="606" d="M59 246v421h145v-416q0 -86 20 -113q20 -30 80 -30q61 0 79.5 32.5t18.5 110.5v416h145v-421q0 -116 -47 -182q-60 -74 -197 -76q-137 0 -198 76q-46 67 -46 182zM202 813l189 109l49 -111l-204 -76z" />
<glyph unicode="&#xdb;" horiz-adv-x="606" d="M59 246v421h145v-416q0 -86 20 -113q20 -30 80 -30q61 0 79.5 32.5t18.5 110.5v416h145v-421q0 -116 -47 -182q-60 -74 -197 -76q-137 0 -198 76q-46 67 -46 182zM158 763l111 119h74l111 -119l-64 -52l-84 85l-84 -85z" />
<glyph unicode="&#xdc;" horiz-adv-x="606" d="M59 246v421h145v-416q0 -86 20 -113q20 -30 80 -30q61 0 79.5 32.5t18.5 110.5v416h145v-421q0 -116 -47 -182q-60 -74 -197 -76q-137 0 -198 76q-46 67 -46 182zM145 786q0 28 19.5 48t49.5 20q29 0 49 -20t20 -48q0 -30 -20 -50.5t-49 -20.5q-30 0 -49.5 20.5 t-19.5 50.5zM329 786q0 28 20 48t50 20q28 0 48 -20t20 -48q0 -30 -20 -50.5t-48 -20.5q-30 0 -50 20.5t-20 50.5z" />
<glyph unicode="&#xdd;" horiz-adv-x="548" d="M-8 668h146l136 -285l136 285h146l-210 -404v-264h-144v264zM175 813l189 109l49 -111l-204 -76z" />
<glyph unicode="&#xde;" horiz-adv-x="504" d="M64 0v697h104v-100h56q77 0 122 -12t79 -43q59 -52 59 -147q0 -113 -65 -161q-36 -28 -85.5 -39.5t-134.5 -11.5h-31v-183h-104zM168 276h42q98 0 131 23q38 27 38 91q0 53 -31 84q-31 30 -123 30h-57v-228z" />
<glyph unicode="&#xdf;" horiz-adv-x="604" d="M53 -129v624q0 114 62.5 169.5t174.5 55.5q100 0 150.5 -45t50.5 -119q0 -27 -11 -50.5t-26.5 -40t-31.5 -31t-27 -30.5t-11 -31q0 -17 8.5 -29.5t17.5 -17.5t30 -14h-1q29 -13 42.5 -19.5t37.5 -21.5t35.5 -29.5t21.5 -37.5t10 -51q0 -77 -49.5 -121.5t-134.5 -44.5 q-41 0 -95 15.5t-81 34.5l35 98q93 -39 146 -39t53 49q0 20 -21.5 35.5t-52 29t-60.5 30.5t-51.5 49t-21.5 76q0 34 16.5 63t35.5 45t35.5 36t16.5 39q0 64 -69 64q-51 0 -74 -28.5t-23 -90.5v-622h-138z" />
<glyph unicode="&#xe0;" horiz-adv-x="510" d="M21 134q0 45 19 77t49 46.5t58 20.5t57 6q59 0 95 -3v49q0 52 -21 67t-67 15q-55 0 -118 -21l-29 88q37 22 90.5 33.5t91.5 11.5q102 0 145.5 -43.5t43.5 -148.5v-210q0 -28 25 -28q13 0 37 6l19 -83q-51 -28 -109 -28q-63 0 -92 46q-58 -48 -146 -48q-68 0 -108 39.5 t-40 107.5zM116 663l49 111l189 -109l-34 -78zM151 149q0 -69 66 -69q42 0 82 26v105q-28 2 -49 2q-99 0 -99 -64z" />
<glyph unicode="&#xe1;" horiz-adv-x="510" d="M21 134q0 45 19 77t49 46.5t58 20.5t57 6q59 0 95 -3v49q0 52 -21 67t-67 15q-55 0 -118 -21l-29 88q37 22 90.5 33.5t91.5 11.5q102 0 145.5 -43.5t43.5 -148.5v-210q0 -28 25 -28q13 0 37 6l19 -83q-51 -28 -109 -28q-63 0 -92 46q-58 -48 -146 -48q-68 0 -108 39.5 t-40 107.5zM121 665l189 109l49 -111l-204 -76zM151 149q0 -69 66 -69q42 0 82 26v105q-28 2 -49 2q-99 0 -99 -64z" />
<glyph unicode="&#xe2;" horiz-adv-x="510" d="M21 134q0 45 19 77t49 46.5t58 20.5t57 6q59 0 95 -3v49q0 52 -21 67t-67 15q-55 0 -118 -21l-29 88q37 22 90.5 33.5t91.5 11.5q102 0 145.5 -43.5t43.5 -148.5v-210q0 -28 25 -28q13 0 37 6l19 -83q-51 -28 -109 -28q-63 0 -92 46q-58 -48 -146 -48q-68 0 -108 39.5 t-40 107.5zM91 643l111 119h74l111 -119l-64 -52l-84 85l-84 -85zM151 149q0 -69 66 -69q42 0 82 26v105q-28 2 -49 2q-99 0 -99 -64z" />
<glyph unicode="&#xe3;" horiz-adv-x="510" d="M21 134q0 45 19 77t49 46.5t58 20.5t57 6q59 0 95 -3v49q0 52 -21 67t-67 15q-55 0 -118 -21l-29 88q37 22 90.5 33.5t91.5 11.5q102 0 145.5 -43.5t43.5 -148.5v-210q0 -28 25 -28q13 0 37 6l19 -83q-51 -28 -109 -28q-63 0 -92 46q-58 -48 -146 -48q-68 0 -108 39.5 t-40 107.5zM65 653q18 30 47.5 52.5t58.5 22.5q25 0 70 -21.5t65 -21.5q26 0 55 35l49 -54q-18 -30 -48.5 -52.5t-59.5 -22.5q-26 0 -70 21.5t-63 21.5q-26 0 -55 -35zM151 149q0 -69 66 -69q42 0 82 26v105q-28 2 -49 2q-99 0 -99 -64z" />
<glyph unicode="&#xe4;" horiz-adv-x="510" d="M21 134q0 45 19 77t49 46.5t58 20.5t57 6q59 0 95 -3v49q0 52 -21 67t-67 15q-55 0 -118 -21l-29 88q37 22 90.5 33.5t91.5 11.5q102 0 145.5 -43.5t43.5 -148.5v-210q0 -28 25 -28q13 0 37 6l19 -83q-51 -28 -109 -28q-63 0 -92 46q-58 -48 -146 -48q-68 0 -108 39.5 t-40 107.5zM87 667q0 28 19.5 48t49.5 20q29 0 49 -20t20 -48q0 -30 -20 -50.5t-49 -20.5q-30 0 -49.5 20.5t-19.5 50.5zM151 149q0 -69 66 -69q42 0 82 26v105q-28 2 -49 2q-99 0 -99 -64zM271 667q0 28 20 48t50 20q28 0 48 -20t20 -48q0 -30 -20 -50.5t-48 -20.5 q-30 0 -50 20.5t-20 50.5z" />
<glyph unicode="&#xe5;" horiz-adv-x="510" d="M21 134q0 45 19 77t49 46.5t58 20.5t57 6q59 0 95 -3v49q0 52 -21 67t-67 15q-55 0 -118 -21l-29 88q37 22 90.5 33.5t91.5 11.5q102 0 145.5 -43.5t43.5 -148.5v-210q0 -28 25 -28q13 0 37 6l19 -83q-51 -28 -109 -28q-63 0 -92 46q-58 -48 -146 -48q-68 0 -108 39.5 t-40 107.5zM140 700q0 43 26.5 72.5t76.5 29.5t76.5 -29t26.5 -72t-27 -73.5t-77 -30.5t-76 30t-26 73zM151 149q0 -69 66 -69q42 0 82 26v105q-28 2 -49 2q-99 0 -99 -64zM208 699q0 -16 8.5 -27.5t26.5 -11.5q36 0 36 40q0 38 -36 38q-35 0 -35 -39z" />
<glyph unicode="&#xe6;" horiz-adv-x="746" d="M21 134q0 45 19 77t49 46.5t58 20.5t57 6q66 0 102 -3v49q0 52 -21 67t-67 15q-62 0 -125 -21l-29 88q37 22 90.5 33.5t91.5 11.5q56 0 89.5 -14t52.5 -53q47 65 140 65q89 0 137.5 -47.5t48.5 -132.5q0 -42 -13 -100h-271q1 -79 35.5 -114.5t92.5 -35.5q65 0 125 23 l24 -95q-77 -33 -171 -33q-99 0 -157 56q-29 -21 -81 -38.5t-103 -17.5q-84 0 -129 39t-45 108zM151 149q0 -37 22 -53t69 -16q21 0 51.5 7t48.5 19q-19 43 -26 105q-28 2 -59 2q-106 0 -106 -64zM427 318h175v6q0 99 -73 99q-85 0 -102 -105z" />
<glyph unicode="&#xe7;" horiz-adv-x="438" d="M32 254q0 135 67 201.5t172 66.5q62 0 141 -23l-27 -101q-61 14 -98 14q-59 0 -90.5 -35.5t-31.5 -123.5q0 -92 34.5 -127t96.5 -35q32 0 98 10l17 -91q-79 -23 -140 -23q-103 0 -171 66.5t-68 200.5zM174 -230q58 43 58 91q0 28 -21 82h124q18 -39 18 -76 q0 -97 -128 -162z" />
<glyph unicode="&#xe8;" horiz-adv-x="480" d="M33 266q0 110 59 183t170 73q89 0 137.5 -47.5t48.5 -132.5q0 -50 -13 -100h-271q1 -79 35.5 -114.5t92.5 -35.5q65 0 125 23l24 -95q-77 -33 -171 -33q-237 0 -237 279zM130 663l49 111l189 -109l-34 -78zM165 318h171v6q0 99 -70 99q-84 0 -101 -105z" />
<glyph unicode="&#xe9;" horiz-adv-x="480" d="M33 266q0 110 59 183t170 73q89 0 137.5 -47.5t48.5 -132.5q0 -50 -13 -100h-271q1 -79 35.5 -114.5t92.5 -35.5q65 0 125 23l24 -95q-77 -33 -171 -33q-237 0 -237 279zM139 665l189 109l49 -111l-204 -76zM165 318h171v6q0 99 -70 99q-84 0 -101 -105z" />
<glyph unicode="&#xea;" horiz-adv-x="480" d="M33 266q0 110 59 183t170 73q89 0 137.5 -47.5t48.5 -132.5q0 -50 -13 -100h-271q1 -79 35.5 -114.5t92.5 -35.5q65 0 125 23l24 -95q-77 -33 -171 -33q-237 0 -237 279zM108 643l111 119h74l111 -119l-64 -52l-84 85l-84 -85zM165 318h171v6q0 99 -70 99 q-84 0 -101 -105z" />
<glyph unicode="&#xeb;" horiz-adv-x="480" d="M33 266q0 110 59 183t170 73q89 0 137.5 -47.5t48.5 -132.5q0 -50 -13 -100h-271q1 -79 35.5 -114.5t92.5 -35.5q65 0 125 23l24 -95q-77 -33 -171 -33q-237 0 -237 279zM96 667q0 28 19.5 48t49.5 20q29 0 49 -20t20 -48q0 -30 -20 -50.5t-49 -20.5q-30 0 -49.5 20.5 t-19.5 50.5zM165 318h171v6q0 99 -70 99q-84 0 -101 -105zM280 667q0 28 20 48t50 20q28 0 48 -20t20 -48q0 -30 -20 -50.5t-48 -20.5q-30 0 -50 20.5t-20 50.5z" />
<glyph unicode="&#xec;" horiz-adv-x="246" d="M-19 663l49 111l189 -109l-34 -78zM53 0v512l140 12v-524h-140z" />
<glyph unicode="&#xed;" horiz-adv-x="246" d="M38 665l189 109l49 -111l-204 -76zM53 0v512l140 12v-524h-140z" />
<glyph unicode="&#xee;" horiz-adv-x="246" d="M-21 643l111 119h74l111 -119l-64 -52l-84 85l-84 -85zM53 0v512l140 12v-524h-140z" />
<glyph unicode="&#xef;" horiz-adv-x="246" d="M-32 667q0 28 19.5 48t49.5 20q29 0 49 -20t20 -48q0 -30 -20 -50.5t-49 -20.5q-30 0 -49.5 20.5t-19.5 50.5zM53 0v512l140 12v-524h-140zM152 667q0 28 20 48t50 20q28 0 48 -20t20 -48q0 -30 -20 -50.5t-48 -20.5q-30 0 -50 20.5t-20 50.5z" />
<glyph unicode="&#xf0;" horiz-adv-x="499" d="M35 244q0 108 49 161.5t133 53.5q56 0 94 -22q-11 87 -63 134l-74 -76l-60 58l57 58q-42 12 -118 16l18 92q108 0 183 -25l67 70l58 -60l-47 -48q129 -92 129 -349q0 -175 -56.5 -247t-155.5 -72q-105 0 -159.5 71.5t-54.5 184.5zM169 244q0 -140 77 -140q25 0 41 17.5 t25.5 70t9.5 143.5q-32 16 -82 16q-71 -2 -71 -107z" />
<glyph unicode="&#xf1;" horiz-adv-x="546" d="M53 0v513h118l12 -57q29 27 73.5 46.5t89.5 19.5q87 0 118.5 -44.5t31.5 -126.5v-351h-140v326q0 39 -12.5 60.5t-52.5 21.5q-56 0 -95 -37v-371h-143zM94 653q18 30 47.5 52.5t58.5 22.5q26 0 71 -21.5t64 -21.5q26 0 55 35l49 -54q-18 -30 -48.5 -52.5t-59.5 -22.5 q-26 0 -70 21.5t-63 21.5q-26 0 -55 -35z" />
<glyph unicode="&#xf2;" d="M33 254q0 139 61.5 203.5t161.5 64.5q222 0 222 -267q0 -139 -62 -203.5t-166 -64.5q-98 0 -157.5 64t-59.5 203zM131 663l49 111l189 -109l-34 -78zM168 254q0 -160 87 -160q41 0 64 35.5t23 124.5q0 94 -22 127t-64 33q-43 0 -65.5 -33t-22.5 -127z" />
<glyph unicode="&#xf3;" d="M33 254q0 139 61.5 203.5t161.5 64.5q222 0 222 -267q0 -139 -62 -203.5t-166 -64.5q-98 0 -157.5 64t-59.5 203zM168 254q0 -160 87 -160q41 0 64 35.5t23 124.5q0 94 -22 127t-64 33q-43 0 -65.5 -33t-22.5 -127zM170 665l189 109l49 -111l-204 -76z" />
<glyph unicode="&#xf4;" d="M33 254q0 139 61.5 203.5t161.5 64.5q222 0 222 -267q0 -139 -62 -203.5t-166 -64.5q-98 0 -157.5 64t-59.5 203zM105 643l111 119h74l111 -119l-64 -52l-84 85l-84 -85zM168 254q0 -160 87 -160q41 0 64 35.5t23 124.5q0 94 -22 127t-64 33q-43 0 -65.5 -33t-22.5 -127z " />
<glyph unicode="&#xf5;" d="M33 254q0 139 61.5 203.5t161.5 64.5q222 0 222 -267q0 -139 -62 -203.5t-166 -64.5q-98 0 -157.5 64t-59.5 203zM81 653q18 30 47.5 52.5t58.5 22.5q25 0 70 -21.5t65 -21.5q26 0 55 35l49 -54q-18 -30 -48.5 -52.5t-59.5 -22.5q-26 0 -70 21.5t-63 21.5q-26 0 -55 -35z M168 254q0 -160 87 -160q41 0 64 35.5t23 124.5q0 94 -22 127t-64 33q-43 0 -65.5 -33t-22.5 -127z" />
<glyph unicode="&#xf6;" d="M33 254q0 139 61.5 203.5t161.5 64.5q222 0 222 -267q0 -139 -62 -203.5t-166 -64.5q-98 0 -157.5 64t-59.5 203zM92 667q0 28 19.5 48t49.5 20q29 0 49 -20t20 -48q0 -30 -20 -50.5t-49 -20.5q-30 0 -49.5 20.5t-19.5 50.5zM168 254q0 -160 87 -160q41 0 64 35.5 t23 124.5q0 94 -22 127t-64 33q-43 0 -65.5 -33t-22.5 -127zM276 667q0 28 20 48t50 20q28 0 48 -20t20 -48q0 -30 -20 -50.5t-48 -20.5q-30 0 -50 20.5t-20 50.5z" />
<glyph unicode="&#xf7;" horiz-adv-x="537" d="M40 223v109h457v-109h-457zM203 118q0 26 19.5 44t47.5 18q26 0 44.5 -18t18.5 -44q0 -27 -18.5 -47t-44.5 -20q-28 0 -47.5 20t-19.5 47zM203 439q0 26 19.5 44t47.5 18q26 0 44.5 -18t18.5 -44q0 -27 -18.5 -47t-44.5 -20q-28 0 -47.5 20t-19.5 47z" />
<glyph unicode="&#xf8;" d="M33 254q0 139 61.5 203.5t161.5 64.5q36 0 71 -8l40 83l75 -36l-41 -85q77 -66 77 -221q0 -139 -62 -203.5t-166 -64.5q-40 0 -81 13l-38 -78l-77 35l43 88q-64 69 -64 209zM168 254q0 -25 4 -57l105 215q-14 2 -21 2q-43 0 -65.5 -33t-22.5 -127zM219 102q15 -8 36 -8 q41 0 64 35.5t23 124.5q0 55 -7 86z" />
<glyph unicode="&#xf9;" horiz-adv-x="543" d="M50 158v355h140v-330q0 -40 12 -61t53 -21q54 0 95 31v381h140v-526h-115l-12 60q-77 -60 -163 -60q-87 0 -118.5 44.5t-31.5 126.5zM106 663l49 111l189 -109l-34 -78z" />
<glyph unicode="&#xfa;" horiz-adv-x="543" d="M50 158v355h140v-330q0 -40 12 -61t53 -21q54 0 95 31v381h140v-526h-115l-12 60q-77 -60 -163 -60q-87 0 -118.5 44.5t-31.5 126.5zM189 665l189 109l49 -111l-204 -76z" />
<glyph unicode="&#xfb;" horiz-adv-x="543" d="M50 158v355h140v-330q0 -40 12 -61t53 -21q54 0 95 31v381h140v-526h-115l-12 60q-77 -60 -163 -60q-87 0 -118.5 44.5t-31.5 126.5zM122 643l111 119h74l111 -119l-64 -52l-84 85l-84 -85z" />
<glyph unicode="&#xfc;" horiz-adv-x="543" d="M50 158v355h140v-330q0 -40 12 -61t53 -21q54 0 95 31v381h140v-526h-115l-12 60q-77 -60 -163 -60q-87 0 -118.5 44.5t-31.5 126.5zM112 667q0 28 19.5 48t49.5 20q29 0 49 -20t20 -48q0 -30 -20 -50.5t-49 -20.5q-30 0 -49.5 20.5t-19.5 50.5zM296 667q0 28 20 48 t50 20q28 0 48 -20t20 -48q0 -30 -20 -50.5t-48 -20.5q-30 0 -50 20.5t-20 50.5z" />
<glyph unicode="&#xfd;" horiz-adv-x="502" d="M-20 -195l21 97q0 -1 13 -3t30 -4.5t26 -2.5q56 0 79.5 20.5t42.5 100.5l-187 487l133 17l115 -354l102 350h135l-162 -471q-52 -150 -98.5 -202.5t-144.5 -52.5q-45 0 -105 18zM176 665l189 109l49 -111l-204 -76z" />
<glyph unicode="&#xfe;" horiz-adv-x="542" d="M53 -212v913h140v-221q21 17 56.5 29.5t71.5 12.5q82 0 135 -62.5t53 -178.5q0 -294 -240 -294q-39 0 -76 16v-215h-140zM193 105q27 -5 52 -5q69 0 96 42t27 118q0 84 -21.5 116t-66.5 32q-43 0 -87 -27v-276z" />
<glyph unicode="&#xff;" horiz-adv-x="502" d="M-20 -195l21 97q0 -1 13 -3t30 -4.5t26 -2.5q56 0 79.5 20.5t42.5 100.5l-187 487l133 17l115 -354l102 350h135l-162 -471q-52 -150 -98.5 -202.5t-144.5 -52.5q-45 0 -105 18zM87 667q0 28 19.5 48t49.5 20q29 0 49 -20t20 -48q0 -30 -20 -50.5t-49 -20.5 q-30 0 -49.5 20.5t-19.5 50.5zM271 667q0 28 20 48t50 20q28 0 48 -20t20 -48q0 -30 -20 -50.5t-48 -20.5q-30 0 -50 20.5t-20 50.5z" />
<glyph unicode="&#x152;" horiz-adv-x="913" d="M39 334q0 70 14 129t44 109.5t84.5 79t128.5 28.5q88 0 151 -42v31h401v-116h-291v-151h275v-112h-275v-174h300v-116h-410v31q-62 -43 -154 -43q-60 0 -107 19.5t-77 51.5t-49 77.5t-27 94t-8 103.5zM178 334q0 -105 29 -164.5t102 -59.5t102 59.5t29 164.5 q0 69 -10 116.5t-40 80t-81 32.5q-38 0 -64.5 -17.5t-40.5 -50.5t-20 -71.5t-6 -89.5z" />
<glyph unicode="&#x153;" horiz-adv-x="803" d="M33 254q0 139 61.5 203.5t161.5 64.5q111 0 163 -81q56 81 166 81q89 0 137.5 -47.5t48.5 -132.5q0 -50 -13 -100h-276q1 -150 133 -150q65 0 125 23l24 -95q-76 -33 -171 -33q-121 0 -177 80q-55 -80 -166 -80q-98 0 -157.5 64t-59.5 203zM168 254q0 -160 87 -160 q44 0 67.5 35t23.5 125q0 94 -22.5 127t-67.5 33q-43 0 -65.5 -33t-22.5 -127zM483 318h176v6q0 99 -70 99q-29 0 -50.5 -11.5t-32.5 -30.5t-15.5 -33t-7.5 -30z" />
<glyph unicode="&#x178;" horiz-adv-x="548" d="M-8 668h146l136 -285l136 285h146l-210 -404v-264h-144v264zM108 786q0 28 19.5 48t49.5 20q29 0 49 -20t20 -48q0 -30 -20 -50.5t-49 -20.5q-30 0 -49.5 20.5t-19.5 50.5zM292 786q0 28 20 48t50 20q28 0 48 -20t20 -48q0 -30 -20 -50.5t-48 -20.5q-30 0 -50 20.5 t-20 50.5z" />
<glyph unicode="&#x2c6;" horiz-adv-x="380" d="M42 643l111 119h74l111 -119l-64 -52l-84 85l-84 -85z" />
<glyph unicode="&#x2dc;" horiz-adv-x="474" d="M66 653q18 30 47.5 52.5t58.5 22.5q26 0 71 -21.5t64 -21.5q26 0 55 35l49 -54q-18 -30 -48.5 -52.5t-59.5 -22.5q-26 0 -70 21.5t-63 21.5q-26 0 -55 -35z" />
<glyph unicode="&#x2000;" horiz-adv-x="461" />
<glyph unicode="&#x2001;" horiz-adv-x="922" />
<glyph unicode="&#x2002;" horiz-adv-x="461" />
<glyph unicode="&#x2003;" horiz-adv-x="922" />
<glyph unicode="&#x2004;" horiz-adv-x="307" />
<glyph unicode="&#x2005;" horiz-adv-x="230" />
<glyph unicode="&#x2006;" horiz-adv-x="153" />
<glyph unicode="&#x2007;" horiz-adv-x="153" />
<glyph unicode="&#x2008;" horiz-adv-x="115" />
<glyph unicode="&#x2009;" horiz-adv-x="184" />
<glyph unicode="&#x200a;" horiz-adv-x="51" />
<glyph unicode="&#x2010;" horiz-adv-x="509" d="M51 223v109h407v-109h-407z" />
<glyph unicode="&#x2011;" horiz-adv-x="509" d="M51 223v109h407v-109h-407z" />
<glyph unicode="&#x2012;" horiz-adv-x="509" d="M51 223v109h407v-109h-407z" />
<glyph unicode="&#x2013;" horiz-adv-x="559" d="M51 223v109h457v-109h-457z" />
<glyph unicode="&#x2014;" horiz-adv-x="709" d="M51 223v109h607v-109h-607z" />
<glyph unicode="&#x2018;" horiz-adv-x="221" d="M41 533q0 105 89 187h103q-82 -95 -82 -172q0 -33 17 -72h-115q-12 26 -12 57z" />
<glyph unicode="&#x2019;" horiz-adv-x="254" d="M32 455q82 95 82 172q0 33 -17 72h115q12 -26 12 -57q0 -105 -89 -187h-103z" />
<glyph unicode="&#x201a;" horiz-adv-x="218" d="M-20 -128q82 95 82 172q0 33 -17 72h115q12 -26 12 -57q0 -105 -89 -187h-103z" />
<glyph unicode="&#x201c;" horiz-adv-x="411" d="M41 533q0 105 89 187h103q-82 -95 -82 -172q0 -33 17 -72h-115q-12 26 -12 57zM231 533q0 105 89 187h103q-82 -95 -82 -172q0 -33 17 -72h-115q-12 26 -12 57z" />
<glyph unicode="&#x201d;" horiz-adv-x="444" d="M32 455q82 95 82 172q0 33 -17 72h115q12 -26 12 -57q0 -105 -89 -187h-103zM222 455q82 95 82 172q0 33 -17 72h115q12 -26 12 -57q0 -105 -89 -187h-103z" />
<glyph unicode="&#x201e;" horiz-adv-x="408" d="M-20 -128q82 95 82 172q0 33 -17 72h115q12 -26 12 -57q0 -105 -89 -187h-103zM170 -128q82 95 82 172q0 33 -17 72h115q12 -26 12 -57q0 -105 -89 -187h-103z" />
<glyph unicode="&#x2022;" horiz-adv-x="357" d="M62 314q0 50 33.5 83.5t82.5 33.5q50 0 83.5 -33.5t33.5 -83.5t-33.5 -83.5t-83.5 -33.5q-49 0 -82.5 33.5t-33.5 83.5z" />
<glyph unicode="&#x2026;" horiz-adv-x="702" d="M39 77q0 33 24 57t59 24q33 0 57 -24t24 -57q0 -34 -24 -59t-57 -25q-35 0 -59 24.5t-24 59.5zM270 77q0 33 24 57t59 24q33 0 57 -24t24 -57q0 -34 -24 -59t-57 -25q-35 0 -59 24.5t-24 59.5zM500 77q0 33 24 57t59 24q33 0 57 -24t24 -57q0 -34 -24 -59t-57 -25 q-35 0 -59 24.5t-24 59.5z" />
<glyph unicode="&#x202f;" horiz-adv-x="184" />
<glyph unicode="&#x2039;" horiz-adv-x="330" d="M35 249v59l176 185l82 -70l-140 -145l140 -142l-82 -73z" />
<glyph unicode="&#x203a;" horiz-adv-x="330" d="M37 136l140 142l-140 145l82 70l176 -185v-59l-176 -186z" />
<glyph unicode="&#x205f;" horiz-adv-x="230" />
<glyph unicode="&#x20ac;" horiz-adv-x="581" d="M33 227v74h68q-1 11 -1 35q0 28 1 41h-68v74h79q18 82 65 135t102 73t121 20q75 0 151 -22l-23 -103q-57 11 -106 11q-127 0 -161 -114h146v-74h-159q-1 -12 -1 -38t1 -38h159v-74h-147q36 -121 168 -121q59 0 107 8l9 -109q-79 -18 -154 -18q-106 0 -181.5 56.5 t-99.5 183.5h-76z" />
<glyph unicode="&#x2122;" horiz-adv-x="795" d="M44 604v64h278v-64h-100v-312h-80v312h-98zM361 292l21 376h88l82 -242l81 242h88l22 -376h-75l-10 269l-77 -222h-58l-78 222l-9 -269h-75z" />
<glyph unicode="&#xe000;" horiz-adv-x="515" d="M0 0v515h515v-515h-515z" />
<glyph unicode="&#xfb01;" horiz-adv-x="616" d="M15 422v82l95 7v29q0 104 57 150.5t180 46.5q75 0 149 -24l-29 -100q-43 10 -111 10q-67 0 -87 -22.5t-20 -73.5v-15h175l140 12v-524h-140v416h-175v-602l-140 14v588z" />
<glyph unicode="&#xfb02;" horiz-adv-x="727" d="M15 422v82l95 7v29q0 59 19.5 100.5t55.5 63.5t78.5 31.5t96.5 9.5q116 0 253 -45v-547q0 -29 8.5 -41t31.5 -12q29 0 57 7l21 -98q-51 -22 -103 -22q-44 0 -75 11t-46.5 25t-23.5 41t-9.5 45.5t-1.5 51.5v453q-39 15 -107 15q-73 0 -94.5 -23t-21.5 -79v-15h143l-9 -96 h-134v-602l-140 14v588z" />
</font>
</defs>
</svg>
