<?xml version="1.0" standalone="no"?>
<!DOCTYPE svg PUBLIC "-//W3C//DTD SVG 1.1//EN" "http://www.w3.org/Graphics/SVG/1.1/DTD/svg11.dtd" >
<svg xmlns="http://www.w3.org/2000/svg">
<metadata></metadata>
<defs>
<font id="foglihtenno03regular" horiz-adv-x="1320" >
<font-face units-per-em="2288" ascent="1768" descent="-520" />
<missing-glyph horiz-adv-x="600" />
<glyph horiz-adv-x="2288" />
<glyph horiz-adv-x="2288" />
<glyph unicode="&#xd;" horiz-adv-x="666" />
<glyph unicode=" "  horiz-adv-x="600" />
<glyph unicode="&#x09;" horiz-adv-x="600" />
<glyph unicode="&#xa0;" horiz-adv-x="600" />
<glyph unicode="!" horiz-adv-x="460" d="M100 210q0 54 33 87t87 33q63 0 101.5 -33t38.5 -87q0 -63 -38.5 -101.5t-101.5 -38.5q-54 0 -87 38.5t-33 101.5zM116 1196q0 31 23.5 45.5t83.5 14.5q112 0 112 -58q0 -192 -24.5 -356t-24.5 -352v-30l-36 2v28q0 190 25 355t25 355q0 11 -22 20.5t-58 9.5 q-42 0 -61 -6t-19 -24q0 -190 25 -355t25 -355h28v-28l-46 4v20q0 188 -28 354t-28 356zM120 210q0 -47 27.5 -73.5t72.5 -26.5q47 0 73.5 27.5t26.5 72.5q0 47 -27.5 73.5t-72.5 26.5q-47 0 -73.5 -27.5t-26.5 -72.5zM170 210q0 22 14 36t36 14q19 0 29.5 -14t10.5 -36 q0 -40 -40 -40q-22 0 -36 11t-14 29zM200 1160h40q-2 -160 -20 -285q-18 125 -20 285z" />
<glyph unicode="&#x22;" horiz-adv-x="510" d="M73 930l38 360h24q31 0 50 -7q16 -6 30 -24t14 -45q0 -40 -18 -133l-30 -161l-56 7l1 14l43 -2l19 145q12 83 12 130q0 30 -17 39t-62 11l-23 -336zM293 928l18 351q5 0 27 -0.5t30 -1.5t25 -5t24 -10t13.5 -18.5t6.5 -29.5q0 -34 -16 -133l-25 -158l-61 2l1 16l43 -2 l19 145q12 83 12 130q0 30 -17 39t-62 11l-23 -338z" />
<glyph unicode="#" horiz-adv-x="1120" d="M90 530h207l42 250l4 30h23l-33 -320h-213v-60h207l-33 -317l60 -6l33 323h280l-33 -317l60 -6l33 323h233v60h-227l33 320h234v60h-227l33 317l-60 6l-34 -323h-279l33 317l-60 6l-34 -323h-212v-60h156l-4 -31l-192 -9l11 138l205 2l44 307l130 6l-53 -323l239 10 l14 307l140 6l-43 -327l213 4l20 -130h-238l-35 -260l218 10l5 -120h-237l-23 -327l-130 4l33 328l-220 -5l-23 -327l-130 14l40 313h-200zM393 490l33 320h213l-2 -35l-175 12l-35 -273l220 6l19 254l2 36h38l-33 -320h-280z" />
<glyph unicode="$" horiz-adv-x="1040" d="M56 519l20 1l27 -511l-40 -2zM100 962q0 112 89 185t233 89l-2 124h40v-151q-140 -9 -230 -76.5t-90 -170.5q0 -66 35.5 -124t92.5 -101.5t126 -83.5t138.5 -76t126.5 -71.5t92.5 -78t35.5 -87.5q0 -82 -62.5 -130.5t-171.5 -57.5v31q83 9 138.5 47.5t55.5 108.5v1 q0 13 -4 25q-12 34 -54 69t-99.5 66.5t-124.5 66t-131 75t-116.5 86t-85 106t-32.5 128.5zM122 232l10 1q9 -27 45 -51l6 -169l-40 -2l-8 157q-1 33 -13 64zM136 521l41 1l-5 -100q4 -82 90 -153.5t197 -85.5v-30q-121 15 -218 99.5t-101 188.5zM200 962q0 29 10 52v-2 q0 -54 29 -103t76 -86.5t107 -75t123 -68.5t123 -67.5t107 -70.5t76 -78.5t29 -92.5q0 -62 -46 -111q13 35 13 81q-2 35 -9 57q-15 46 -59 89t-101 78t-123 69.5t-128.5 70t-113.5 73.5t-82 85.5t-31 99.5zM240 128l9 17q109 -44 211 -53v-182h-20l-1 164q-99 13 -199 54z M270 1012q0 46 35.5 79.5t98.5 48.5v-22q-94 -27 -94 -106q0 -43 37 -84t96 -76.5t130.5 -73t143 -79.5t130.5 -88.5t96 -108.5t37 -132q0 -132 -118.5 -211t-311.5 -88l-2 20q173 10 282.5 86.5t109.5 192.5q0 64 -37 121.5t-96 100.5t-130.5 83.5t-143 78.5t-130.5 76 t-96 84.5t-37 97.5zM423 1144l37 6v-280l-33 15zM431 548l29 -15v-331l-24 2zM500 -90v602l32 -17l8 -585h-40zM500 851v299q122 0 205 -68t90 -160l8 -112l-19 -2l-9 110q-6 74 -77 139t-175 72l4 -291zM500 1210v30q35 0 88 -10.5t92 -26.5l-6 -19q-83 26 -174 26z M500 1257v103h20l1 -103h-21zM754 1287l40 2l7 -131q1 -34 7 -65l-33 42zM834 1291l20 2l45 -478l-40 -2z" />
<glyph unicode="%" horiz-adv-x="1228" d="M60 930q0 125 77 202t202 77q126 0 203 -77t77 -202q0 -121 -77 -195.5t-203 -74.5q-125 0 -202 74.5t-77 195.5zM70 155l1005 1036l28 -28l-987 -1007l43 -42l987 1008l11 -13l-996 -1041zM90 930q0 -113 68.5 -181.5t180.5 -68.5q113 0 181.5 69t68.5 181t-68.5 180.5 t-181.5 68.5t-181 -68.5t-68 -180.5zM194 941q0 91 36.5 140.5t108.5 49.5q55 0 89.5 -34t45.5 -78.5t11 -100.5q0 -91 -36.5 -140.5t-108.5 -49.5q-55 0 -89.5 34t-45.5 78.5t-11 100.5zM214 941q0 -85 32 -129t93 -44q52 0 79 38.5t27 111.5q0 89 -27 136t-78 47 q-61 0 -93.5 -41t-32.5 -119zM609 310q0 125 77 202t202 77q126 0 203 -77t77 -202q0 -122 -77 -196t-203 -74q-125 0 -202 74.5t-77 195.5zM639 310q0 -113 68.5 -181.5t180.5 -68.5t181 69t69 181t-68.5 180.5t-181.5 68.5q-112 0 -180.5 -68.5t-68.5 -180.5zM743 321 q0 91 36.5 140.5t108.5 49.5q55 0 89.5 -34t45.5 -78.5t11 -100.5q0 -91 -36.5 -140.5t-108.5 -49.5q-55 0 -89.5 34t-45.5 78.5t-11 100.5zM763 321q0 -85 32 -129t93 -44q52 0 79 38.5t27 111.5q0 89 -27 136t-78 47q-61 0 -93.5 -41t-32.5 -119z" />
<glyph unicode="&#x26;" horiz-adv-x="1520" d="M60 470q0 75 18.5 137t71.5 118t138 81l28 -33q-122 -36 -179 -116.5t-57 -186.5q0 -171 120.5 -275.5t317.5 -104.5q171 0 266 105l26 -32q-98 -103 -292 -103q-213 0 -335.5 110.5t-122.5 299.5zM140 470q0 135 99 203q-49 -84 -49 -203q0 -143 55 -235 q-105 88 -105 235zM242 990q0 118 94.5 187t255.5 69q123 0 222 -65l-17 -27q-82 57 -205 57q-145 0 -233.5 -61t-88.5 -160q0 -141 154 -192v-4q-33 -3 -62 -8l-56 54q-64 69 -64 150zM250 470q0 129 64 204.5t182 75.5h222v-22l-222 -8q-58 -4 -101 -27.5t-66.5 -60 t-34.5 -77t-11 -85.5q0 -146 65 -215.5t178 -69.5q87 0 151 68t73 197l10 280v20h20v-300q0 -145 -74 -222.5t-179 -77.5q-135 0 -206 82t-71 238zM330 990q0 59 52 102q-22 -46 -22 -102t16 -102q-46 35 -46 102zM420 990q0 78 50 119t145 41q158 0 202 -133l-20 -13 q-22 58 -71.5 87t-110.5 29q-83 0 -127.5 -36.5t-44.5 -93.5q0 -74 38 -114.5t95 -40.5h6l108 4q120 5 120 70v17l19 6q0 -4 0.5 -11t0.5 -11q0 -57 -36.5 -78.5t-103.5 -21.5h-104q-81 0 -123.5 46t-42.5 134zM800 211q12 16 26 44q43 -78 119 -121.5t175 -43.5 q116 0 202.5 68t118.5 185l10 39l19 -5l-10 -40q-36 -130 -123.5 -198.5t-216.5 -68.5q-109 0 -179 31t-100 64zM833 367q7 45 7 83v300h40v-380q0 -56 15 -111q-8 11 -16 25zM842 1112l46 287h19l-27 -349zM920 810l19 40l421 -10v-30h-440zM940 370v380h420v-20l-395 -8 l2 -352q1 -81 38 -136.5t115 -55.5q75 0 137.5 50.5t88.5 138.5l9 39l38 -9l-10 -39q-28 -96 -99 -152t-164 -56q-88 0 -134 56.5t-46 163.5zM940 884v515h40l-20 -514z" />
<glyph unicode="'" horiz-adv-x="300" d="M73 930l38 360h24q31 0 50 -7q16 -6 30 -24t14 -45q0 -40 -18 -133l-30 -161l-56 7l1 14l43 -2l19 145q12 83 12 130q0 30 -17 39t-62 11l-23 -336z" />
<glyph unicode="(" horiz-adv-x="680" d="M95 650q0 175 100.5 342t287.5 299l31 21l72 -80l-36 -24q-80 -52 -136 -145.5t-80 -197.5t-24 -215q0 -178 54.5 -329.5t171.5 -226.5l36 -24l-56 -98l-31 19l49 69q-129 83 -191.5 245.5t-62.5 344.5t62.5 344.5t191.5 245.5l-27 35q-182 -117 -284.5 -287.5 t-102.5 -337.5q0 -158 87.5 -316.5t255.5 -278.5l-14 -18q-175 126 -264.5 285.5t-89.5 327.5zM180 650q0 137 76 276q-36 -129 -36 -276q0 -152 39 -286q-79 140 -79 286z" />
<glyph unicode=")" horiz-adv-x="680" d="M93 1230l71 98l31 -19l-49 -69q129 -83 191.5 -245.5t62.5 -344.5t-62.5 -344.5t-191.5 -245.5l27 -35q182 117 284.5 287.5t102.5 337.5q0 158 -87.5 316.5t-255.5 278.5l14 18q175 -126 264.5 -285.5t89.5 -327.5q0 -176 -101 -348t-287 -303l-31 -21l-53 80l36 25 q80 54 131.5 151t70.5 199t19 217q0 172 -61 325.5t-180 230.5zM421 936q79 -140 79 -286q0 -137 -76 -276q36 129 36 276q0 152 -39 286z" />
<glyph unicode="*" horiz-adv-x="943" d="M89 518l243 142l-233 131l60 124l217 -121l1 -39l-203 114l-41 -73l240 -142v-9l-240 -142l30 -54l-25 -12zM150 416l269 151l7 -4l5 -279h82l5 279l6 4l245 -137l41 73l-240 142v9l240 142l-29 52l30 21l53 -88l-253 -131l219 -142l-46 -122l-237 137l-5 -259l-150 -10 l5 269l-228 -141zM392 1046l155 6l-8 -286l241 157l20 -35l-276 -156l-6 5l-5 279h-82l-5 -279l-7 -5l-20 11l-2 40zM433 628v40l40 29l37 -31v-36l-37 -25z" />
<glyph unicode="+" horiz-adv-x="960" d="M54 580l10 62l23 -1l-7 -41h324l-1 -28zM68 660l4 20l362 8l5 370l125 5l-5 -371l358 8l-2 -76l-41 1l6 35h-356v366l-60 4v-370h-396zM429 218l5 381l30 1v-350l22 -1v-36zM524 213v387h387l-7 -40l-350 7l-10 -359z" />
<glyph unicode="," horiz-adv-x="440" d="M96 -12h40q86 0 135 59.5t49 182.5q0 45 -27.5 72.5t-72.5 27.5q-100 0 -100 -100t100 -100q24 0 36 16l8 -6q-11 -22 -14 -40q-6 -34 -37 -53t-77 -19h-40v20l40 1q63 3 88 42q2 3 4 8t2.5 9t-0.5 4q-130 0 -130 118q0 61 31 93t89 32t94 -34.5t36 -90.5 q0 -266 -214 -277l-40 -2v37zM180 230q0 40 40 40t40 -40t-40 -40t-40 40z" />
<glyph unicode="-" horiz-adv-x="720" d="M54 580l10 62l23 -1l-7 -41h591l-7 -40zM68 660l4 20l605 20l-2 -76l-41 1l6 35h-572z" />
<glyph unicode="." horiz-adv-x="440" d="M100 230q0 54 33 87t87 33q63 0 101.5 -33t38.5 -87q0 -63 -38.5 -101.5t-101.5 -38.5q-54 0 -87 38.5t-33 101.5zM120 230q0 -47 27.5 -73.5t72.5 -26.5q47 0 73.5 27.5t26.5 72.5q0 47 -27.5 73.5t-72.5 26.5q-47 0 -73.5 -27.5t-26.5 -72.5zM170 230q0 22 14 36t36 14 q19 0 29.5 -14t10.5 -36q0 -40 -40 -40q-22 0 -36 11t-14 29z" />
<glyph unicode="/" horiz-adv-x="1195" d="M76 89l943 1221l31 -24l-928 -1190l47 -37l928 1190l13 -11l-934 -1225z" />
<glyph unicode="0" horiz-adv-x="1060" d="M60 650q0 266 126.5 428t333.5 162q216 0 348 -162t132 -428q0 -263 -132 -424t-348 -161q-207 0 -333.5 161t-126.5 424zM80 650q0 -252 121 -406t319 -154t319 154t121 406t-121 406t-319 154t-319 -154t-121 -406zM140 650q0 203 84 335q-35 -103 -35 -255 q0 -322 92 -486q-68 65 -104.5 169.5t-36.5 236.5zM249 730q0 32 1 47h19q0 -6 -0.5 -18.5t-0.5 -18.5q0 -266 68.5 -409.5t191.5 -143.5q118 0 180.5 98.5t62.5 284.5q0 273 -66.5 416.5t-192.5 143.5q-153 0 -205 -189l-30 12q60 197 235 197q136 0 207.5 -148.5 t71.5 -431.5q0 -205 -67.5 -312.5t-195.5 -107.5q-136 0 -207.5 148.5t-71.5 431.5zM759 1056q68 -65 104.5 -169.5t36.5 -236.5q0 -203 -84 -335q35 103 35 255q0 322 -92 486z" />
<glyph unicode="1" horiz-adv-x="660" d="M20 110v20h620v-40zM20 170v20l124 5q57 2 71.5 19t14.5 74l-2 586l-88 -104l-28 27l89 93q35 33 55 65l10 -3q-6 -37 -6 -126v-536q0 -81 -19.5 -100.5t-100.5 -19.5h-120zM54 851l25 29q46 52 85 102.5t78 107.5t86 131l63 4l-3 -35h-48q-93 -150 -270 -353zM307 190 q13 36 13 120v516q0 87 5 116q7 40 24 129h11v-761q1 -90 13 -120h-66zM420 310v917l40 3l-13 -920v-24.5t1 -20t1.5 -19t2.5 -14.5t4.5 -13t6.5 -9.5t9 -8t12.5 -4.5t16 -3.5t19.5 -0.5l120 -3v-20h-100q-29 0 -46.5 1.5t-32.5 7t-22 14t-12 25.5t-6 37.5t-1 54.5z" />
<glyph unicode="2" horiz-adv-x="1000" d="M40 110l15 124h25v-104h802l-4 -40zM58 258v4l13 8q48 38 208 187t204 187q93 85 127 127q64 80 65 144q0 105 -52.5 160t-153.5 55q-62 0 -113 -23.5t-81.5 -56.5t-52.5 -74t-30.5 -71.5t-11.5 -53.5l-2 -101h-18v104q10 60 32.5 111t59 93.5t92.5 67t125 24.5 q115 0 175.5 -60t60.5 -175q0 -22 -6.5 -45t-13 -40.5t-24 -41t-26.5 -36t-33.5 -37t-32 -31.5t-35.5 -32t-31 -28l-244 -220q-34 -28 -65 -54.5t-47.5 -41t-30.5 -26.5t-22 -17t-14 -6zM77 750l24 501l19 -1l-1 -500h-42zM155 190v8l53 10q11 2 115 2h444q75 1 100 9h2 l-2 -29h-712zM157 1082q3 23 3 66v102h30l-10 -110l30 20q144 80 258 80q202 0 309.5 -87t107.5 -243q0 -27 -4.5 -52t-10.5 -45.5t-19 -42.5t-24.5 -38t-33 -37t-37 -35t-45 -36.5t-49 -36.5t-55.5 -40l-306 -219l-104 -61l-5 17q4 1 17.5 10t35.5 25t25 18l314 223 q43 30 67.5 48.5t58.5 45.5t53.5 47t41.5 46.5t33.5 50t19 52.5t7.5 60q0 137 -105 218.5t-292 81.5q-128 0 -249 -76q-35 -23 -55 -54zM264 270l69 39l452 -16q38 1 56.5 9t26 25t10.5 52l9 79h19l-6 -80q-3 -21 -5 -34t-6.5 -26t-8 -19.5t-11.5 -12.5t-15.5 -8.5 t-21.5 -4.5t-28 -2.5t-37 -0.5h-503zM667 697q98 107 98 213q0 105 -36 165q76 -58 76 -165q0 -58 -32.5 -106t-105.5 -107zM920 90l25 368h21l-6 -368h-40z" />
<glyph unicode="3" horiz-adv-x="940" d="M60 460h40v-256q120 -109 336 -114q192 0 308 90.5t116 239.5q0 99 -68.5 182.5t-172.5 118.5l44 2q61 -28 110.5 -75t79 -107t29.5 -121q0 -168 -120 -269t-326 -101q-100 2 -195 39t-171 107zM100 1259h40v-385h-20zM146 364v96h18l2 -91l1 -3q8 -34 28.5 -67 t52.5 -62.5t81 -48t107 -18.5h1q109 0 171 66t62 184q0 130 -64 195t-170 65h-30l-8 69h38v-39q128 0 196 -74.5t68 -215.5q0 -88 -30 -148t-89 -91t-145 -31q-53 0 -98 12.5t-76.5 32.5t-55.5 48t-38 58t-22 63zM178 1131q2 8 2 34v94h40l-6 -61l27 10q85 32 195 32 q113 0 196.5 -32t129.5 -92.5t46 -143.5q0 -60 -30.5 -114t-83.5 -93l-26 -19l-127 -9v4q89 15 160.5 82.5t71.5 148.5q0 71 -41.5 125t-118 83.5t-177.5 29.5q-39 0 -75.5 -4.5t-71 -13.5t-62.5 -25t-44 -38zM190 874v97q17 83 74 130.5t172 48.5q69 0 116 -21t70.5 -62 t23.5 -101q0 -95 -54.5 -145.5t-155.5 -50.5l-38 1l-2 19h40q64 0 108 25.5t63 64t19 86.5q0 66 -47.5 110t-140.5 44h-2q-179 0 -213 -151v-2l6 -93h-39zM696 1044q20 -40 20 -72q0 -16 -14 -49q3 36 3 43q0 38 -9 78zM721 240q39 75 39 180q0 88 -24 156q64 -72 64 -156 q0 -109 -79 -180z" />
<glyph unicode="4" horiz-adv-x="1120" d="M60 393q14 17 40 52t81.5 120t104.5 174.5t99.5 212.5t77.5 237l7 31l173 -10l-14 -20h-132q-27 -116 -80 -242.5t-109 -224t-108.5 -178t-85.5 -123.5l-34 -43v-49h574v-20l-592 -6zM175 410l509 780l12 20h42l-525 -780l462 5l-2 319l147 -5v-20h-120v-319h-525z M440 110v20h660v-40zM440 170v20l120 2q41 1 62 5t33 20t14.5 33t5.5 60v20h25v-20q0 -94 -23 -117t-117 -23h-120zM484 975l25 74q6 17 27 91h56zM747 194q13 36 13 116v360h40v-360q0 -35 1 -54.5t3.5 -33t8.5 -28.5q-2 -5 -33 -5.5t-33 5.5zM860 310v20h143l-1 -36 l-112 6q1 -20 1.5 -28t2.5 -22t4.5 -19t8 -13.5t13 -11t19 -6.5t26.5 -5t35 -2l100 -5v-18h-100q-34 0 -54.5 1.5t-37.5 7t-25.5 14t-14 25.5t-7 37.5t-1.5 54.5zM860 410v339l32 -2l-8 -310l121 -2l-2 -80h-21v55h-122z" />
<glyph unicode="5" horiz-adv-x="960" d="M70 441h30v-227q60 -55 151.5 -88.5t168.5 -35.5q202 0 326 107t124 283q0 113 -59.5 198t-165.5 130l7 20q118 -44 182 -132.5t64 -215.5q0 -192 -129.5 -301t-348.5 -109q-83 2 -173 33t-156 92l-13 12zM85 703l40 413q7 73 47 74l491 15q48 2 55 8q6 6 8 28l6 78 l36 -1l-8 -79q-8 -48 -23.5 -58.5t-78.5 -10.5h-489q-1 0 -3.5 -5.5t-6 -19.5t-4.5 -32l-33 -390l23 -5l-6 -29zM139 338v103h20l2 -98l1 -3q24 -84 95.5 -125.5t162.5 -41.5h1q127 0 195.5 76.5t68.5 230.5q0 140 -73 209.5t-192 69.5q-52 0 -118.5 -18.5t-118.5 -54.5 l3 49q96 55 234 55q141 0 215.5 -79.5t74.5 -230.5q0 -160 -74.5 -245t-215.5 -85q-120 1 -190 52.5t-91 135.5zM187 782l14 163q2 22 3.5 34t7 23t11.5 15.5t21 8t31 4t46 0.5h405l-3 -20l-402 -3q-54 0 -69.5 -12t-20.5 -53l-16 -114l40 14q80 29 165 29q19 0 55 -2 l-3 -21q-34 2 -52 2q-122 0 -233 -68zM212 1079l3 29v2h443h17h12.5h8.5h6h4.5h3t2.5 0.5t3.5 1t5.5 1t8 1.5l-2 -24h-406q-79 0 -109 -11zM723 257q47 89 47 223q0 123 -44 206q84 -82 84 -206q0 -136 -87 -223zM778 1009l27 310h21l-8 -313z" />
<glyph unicode="6" horiz-adv-x="990" d="M62 603q0 179 60.5 325t167.5 230t239 84q147 0 245 -69l1 -51q-111 88 -246 88q-119 0 -219.5 -79t-160 -219t-59.5 -309q0 -231 112 -372t296 -141v-19q-202 0 -319 142.5t-117 389.5zM150 603q0 138 46 262q-20 -95 -20 -208q1 -110 7 -176q11 -103 47 -186 q-80 121 -80 308zM236 657q0 231 79.5 362t213.5 131q48 0 86 -11.5t61 -27.5t41 -42t27 -47t18 -51v-43h-30l3 40q-12 36 -27.5 63t-39.5 50t-59 35t-81 12q-69 0 -121.5 -37t-85.5 -104.5t-52 -148.5t-27 -181h-6zM243 487q1 68 26.5 129.5t65 103t87.5 66t95 24.5 q79 0 133 -38t82 -112.5t28 -183.5q0 -159 -67.5 -242.5t-195.5 -83.5q-82 0 -145 64t-92 175l15 7q30 -103 89 -165t133 -62q104 0 170 78t66 229q0 153 -60 231t-156 78q-38 0 -80.5 -23t-78.5 -62t-60 -95t-25 -116zM278 720l10 75l38 32q94 78 198 78q188 0 297 -116 t109 -313q0 -158 -78.5 -260t-224.5 -133l-6 21q134 33 211.5 131.5t77.5 240.5q0 178 -106 286t-280 108q-33 0 -68 -11.5t-67 -32t-61 -48.5q-16 -15 -28.5 -29.5t-16.5 -21.5zM783 269q37 88 37 207q0 132 -37 220q67 -87 67 -220q0 -123 -67 -207zM802 928v224l40 -34 l-21 -190h-19z" />
<glyph unicode="7" horiz-adv-x="980" d="M38 882l39 314h21l-19 -314h-41zM115 882l5 40q10 76 30 92t103 16h429l-20 -22l-426 2h-8q-45 0 -62 -19.5t-25 -73.5l-6 -35h-20zM136 1170v20l802 20l2 -40h-804zM151 1081l2 29h639l-55 -19q0 -1 -76 -1h-408q-75 -1 -100 -9h-2zM325 95v63q0 114 24.5 223.5 t56 185.5t85.5 161t86.5 126.5t86.5 104.5l45 53l48 22l4 -11q-17 -5 -63 -55q-38 -44 -59 -69t-62 -80.5t-65.5 -99t-57 -111.5t-50.5 -132t-31 -147.5t-13 -170.5v-28h123v-40zM420 190q4 159 54 307q-14 -96 -14 -203v-104h-40zM520 90v204q0 114 17 215.5t44 175 t62.5 135.5t71 102.5t72.5 70.5t64.5 44.5t48.5 20.5v83h40l-6 -104l-29 -9q-17 -5 -41 -17.5t-59.5 -41t-70.5 -66.5t-70.5 -98t-62 -131t-44 -170t-17.5 -210v-204h-20z" />
<glyph unicode="8" horiz-adv-x="1060" d="M60 420q0 95 51 179t143 133l28 14l127 1v-8q-130 -15 -224.5 -108t-94.5 -211q0 -147 124 -238.5t316 -91.5t316 91.5t124 238.5q0 100 -69.5 184.5t-175.5 118.5l41 6q97 -46 165.5 -132.5t68.5 -176.5q0 -163 -130 -256.5t-340 -93.5t-340 93.5t-130 256.5zM150 420 q0 85 66 157q-26 -69 -26 -157q0 -99 36 -171q-76 71 -76 171zM150 972q0 123 105.5 195.5t274.5 72.5q171 0 279.5 -72.5t108.5 -195.5q0 -60 -30.5 -114t-83.5 -93l-26 -19l-127 -9v4q89 15 160.5 82.5t71.5 148.5q0 106 -100 172t-253 66q-151 0 -250.5 -66t-99.5 -172 q0 -61 41 -116t104 -87h-38q-57 37 -97 91t-40 112zM238 972q0 34 20 63q-8 -32 -8 -69q0 -8 2 -24t2 -18q-16 23 -16 48zM250 420q0 141 72 215.5t208 74.5t208 -74.5t72 -215.5q0 -132 -71.5 -201t-208.5 -69t-208.5 69t-71.5 201zM270 417q0 -99 62.5 -163t197.5 -64 q240 0 240 230q0 130 -61.5 198.5t-178.5 68.5q-127 0 -193.5 -69t-66.5 -201zM300 955v11q0 90 58.5 137t170.5 47q111 0 169 -47t58 -137q0 -95 -58 -145.5t-168 -50.5q-161 0 -210 100l19 9q46 -89 191 -89q91 0 138.5 45t47.5 131q0 71 -48 110t-139 39q-101 0 -155 -39 t-54 -110v-10zM806 1035q20 -29 20 -63q0 -25 -16 -48q0 2 2 18t2 24q0 37 -8 69zM834 249q36 72 36 171q0 89 -26 158q66 -72 66 -158q0 -100 -76 -171z" />
<glyph unicode="9" horiz-adv-x="990" d="M60 824q0 182 119 293.5t313 111.5q202 0 319 -142.5t117 -389.5q0 -179 -60.5 -325t-167.5 -230t-239 -84q-147 0 -245 69l-1 51q111 -88 246 -88q119 0 219.5 79t160 219t59.5 309q0 231 -112 372t-296 141q-185 0 -298.5 -106t-113.5 -280q0 -178 106 -286t280 -108 q102 0 196 92q16 15 28.5 29.5t17.5 21.5l4 7l-10 -75l-38 -32q-94 -78 -198 -78q-188 0 -297 116t-109 313zM140 824q0 123 67 207q-37 -88 -37 -207q0 -132 37 -220q-67 87 -67 220zM148 182l21 190h19v-224zM228 329v43h30l-3 -40q25 -76 72 -118t135 -42q69 0 121.5 37 t85.5 104.5t52 148.5t27 181h6q0 -231 -79.5 -362t-213.5 -131q-59 0 -102 15.5t-68 44.5t-38 54.5t-25 64.5zM230 824q0 159 67.5 242.5t195.5 83.5q82 0 144 -64t92 -175l-35 -7q-66 227 -201 227q-103 0 -164.5 -77.5t-61.5 -229.5q0 -155 56 -234.5t150 -79.5 q44 0 89 24t81.5 63.5t60.5 96t25 117.5l18 2q-1 -55 -17.5 -106t-44 -89.5t-62.5 -68t-74 -44.5t-76 -15q-79 0 -133 38t-82 112.5t-28 183.5zM760 1005q80 -121 80 -308q0 -138 -46 -262q20 95 20 208q-1 110 -7 176q-11 103 -47 186z" />
<glyph unicode=":" horiz-adv-x="440" d="M80 900q0 63 38.5 101.5t101.5 38.5q54 0 87 -38.5t33 -101.5q0 -54 -33 -87t-87 -33q-63 0 -101.5 33t-38.5 87zM100 230q0 54 33 87t87 33q63 0 101.5 -33t38.5 -87q0 -63 -38.5 -101.5t-101.5 -38.5q-54 0 -87 38.5t-33 101.5zM120 230q0 -47 27.5 -73.5t72.5 -26.5 q47 0 73.5 27.5t26.5 72.5q0 47 -27.5 73.5t-72.5 26.5q-47 0 -73.5 -27.5t-26.5 -72.5zM120 900q0 -47 27.5 -73.5t72.5 -26.5q47 0 73.5 27.5t26.5 72.5q0 47 -27.5 73.5t-72.5 26.5q-47 0 -73.5 -27.5t-26.5 -72.5zM170 230q0 22 14 36t36 14q19 0 29.5 -14t10.5 -36 q0 -40 -40 -40q-22 0 -36 11t-14 29zM180 900q0 40 40 40q22 0 36 -11t14 -29q0 -22 -14 -36t-36 -14q-19 0 -29.5 14t-10.5 36z" />
<glyph unicode=";" horiz-adv-x="440" d="M80 900q0 63 38.5 101.5t101.5 38.5q54 0 87 -38.5t33 -101.5q0 -54 -33 -87t-87 -33q-63 0 -101.5 33t-38.5 87zM96 -12h40q86 0 135 59.5t49 182.5q0 45 -27.5 72.5t-72.5 27.5q-100 0 -100 -100t100 -100q24 0 36 16l8 -6q-11 -22 -14 -40q-6 -34 -37 -53t-77 -19h-40 v20l40 1q63 3 88 42q2 3 4 8t2.5 9t-0.5 4q-130 0 -130 118q0 61 31 93t89 32t94 -34.5t36 -90.5q0 -266 -214 -277l-40 -2v37zM120 900q0 -47 27.5 -73.5t72.5 -26.5q47 0 73.5 27.5t26.5 72.5q0 47 -27.5 73.5t-72.5 26.5q-47 0 -73.5 -27.5t-26.5 -72.5zM180 230 q0 40 40 40t40 -40t-40 -40t-40 40zM180 900q0 40 40 40q22 0 36 -11t14 -29q0 -22 -14 -36t-36 -14q-19 0 -29.5 14t-10.5 36z" />
<glyph unicode="&#x3c;" horiz-adv-x="1000" d="M62 665l669 518l15 -14l-646 -516v-6l668 -533l79 81l-506 343q-123 82 -128 85l37 1q123 -83 354.5 -238.5t274.5 -184.5l-108 -131l-701 558zM166 645v10q9 2 22.5 8t33.5 19t33.5 22t43 29t42.5 29l506 343l-79 81l-17 14l20 17l120 -118q-33 -23 -274.5 -192.5 t-369.5 -256.5z" />
<glyph unicode="=" horiz-adv-x="1080" d="M49 734l3 96l41 -1l-7 -55h932l-4 -20zM53 434l11 82l23 -1l-8 -61h941l-1 -30zM56 854l7 40l970 -20l-11 -82l-23 1l8 61h-951zM68 534l4 20l965 20l-13 -96l-31 1l7 55h-932z" />
<glyph unicode="&#x3e;" horiz-adv-x="1000" d="M114 1099l120 118l20 -17q-21 -17 -55.5 -53t-40.5 -42l506 -343q13 -9 42.5 -29t43 -29t33.5 -22t33.5 -19t22.5 -8v-10l-81 5q-128 87 -368.5 256t-275.5 193zM126 201q40 27 273 183.5t356 239.5l37 -1q-5 -3 -128 -85l-506 -343l79 -81l668 533v6l-646 516l15 14 l669 -518l-8 -37l-701 -558z" />
<glyph unicode="?" horiz-adv-x="880" d="M60 1219h40v-305h-20zM138 1131q2 8 2 34v54h36l-6 -25l37 18q67 33 188 33q190 0 307.5 -85.5t117.5 -228.5q-6 -68 -40.5 -122.5t-82 -89t-95.5 -60t-90 -49.5t-55 -44q-3 -5 -7 -14v-102h-40v100q0 31 38 62t92.5 60.5t109 63.5t92.5 84.5t38 109.5q0 126 -106 203 t-279 77q-82 0 -152 -19.5t-100 -61.5zM150 914v57q17 83 73.5 130.5t171.5 48.5q105 0 160 -56.5t55 -163.5q0 -42 -27 -81t-65 -70.5t-76 -64t-65 -75t-27 -89.5v-100h-40v100q0 53 27 100.5t65 81.5t76 65t65 65t27 68q0 180 -174 180h-1q-104 -1 -158 -41.5t-67 -99.5 v-2l-1 -53h-19zM240 210q0 61 38.5 100.5t101.5 39.5q61 0 100.5 -38.5t39.5 -101.5q0 -61 -38.5 -100.5t-101.5 -39.5q-61 0 -100.5 38.5t-39.5 101.5zM280 210q0 -47 27.5 -73.5t72.5 -26.5q47 0 73.5 27.5t26.5 72.5q0 47 -27.5 73.5t-72.5 26.5q-47 0 -73.5 -27.5 t-26.5 -72.5zM340 210q0 40 40 40t40 -40t-40 -40t-40 40zM602 776q68 73 68 154q0 92 -36 158q86 -59 86 -158q-6 -83 -118 -154z" />
<glyph unicode="@" horiz-adv-x="1960" d="M80 654q0 193 71 365.5t195.5 298.5t302 200t381.5 74q256 0 449 -100.5t297 -282t104 -419.5q0 -123 -27 -237t-79.5 -208.5t-140 -151.5t-198.5 -57q-74 0 -134 42.5t-98 125.5l-15 31l5 98h9q28 -128 90.5 -195.5t142.5 -67.5q115 0 213 83t155 226t57 311 q0 169 -60 311.5t-168 241.5t-262.5 154t-339.5 55q-197 0 -370.5 -71t-296 -191.5t-193 -286t-70.5 -349.5q0 -173 46.5 -320t127.5 -252.5t191.5 -179.5t239 -110t268.5 -36q259 0 484 120l19 -35q-47 -25 -113 -52q-163 -63 -390 -63q-146 0 -278.5 37t-245 113.5 t-194.5 185.5t-128.5 260.5t-46.5 331.5zM160 654q0 172 66 326t180 267t276.5 179t347.5 66q346 0 558 -193t212 -509q0 -154 -48 -285.5t-131 -207.5t-180 -76q-56 0 -85 45.5t-29 133.5q0 26 6 76l85 779l20 -1l-70 -782q-1 -7 -3.5 -33t-2.5 -39q5 -159 79 -159 q78 0 142.5 51.5t104 133.5t61 177t21.5 187q0 148 -54 274.5t-150 216.5t-234.5 140.5t-301.5 50.5q-177 0 -333 -66.5t-264 -178t-170.5 -261t-62.5 -312.5q0 -155 41 -288.5t113 -229.5t169.5 -164.5t212 -102t238.5 -33.5q248 0 446 108l9 -15q-208 -113 -455 -113 q-131 0 -251 33.5t-222.5 103t-178.5 167.5t-119 235.5t-43 298.5zM461 627q0 92 20.5 179t66 166.5t111 139t161.5 94.5t212 35q113 0 246 -58l11 -4l78 57l15 -20q-66 -58 -89 -74q-115 59 -237 64h-24q-131 0 -235.5 -48t-168.5 -128.5t-98.5 -176t-38.5 -199.5v-27 q0 -108 29.5 -196.5t79.5 -145.5t112.5 -88.5t131.5 -33.5h11q184 0 304 203l2 -36l-3 -3q-127 -184 -307 -184h-11q-162 6 -270.5 132t-108.5 352zM551 627q0 153 65 277.5t180 186.5q-70 -58 -117 -150t-65.5 -185.5t-18.5 -190.5q0 -128 29 -213q-73 107 -73 275z M654 565q0 6 0.5 18t0.5 19q4 97 28.5 185.5t69.5 163.5t120 120t169 45h14q48 -2 76.5 -7.5t56.5 -15.5t53 -15l-1 -16l-48 14q-67 20 -141 20q-114 0 -199 -80.5t-125 -199t-40 -251.5q0 -52 8 -104t26 -106.5t56 -88.5t90 -34q54 0 110.5 35t107.5 111t74 179v1l36 482 l41 -7l-49 -481q-35 -160 -127 -250t-188 -90h-6q-93 3 -153 89.5t-60 263.5zM1246 528q0 2 0.5 7t0.5 7l55 530v2l39 29l-68 -621q-1 -8 -3 -30t-3 -35q-21 61 -21 111z" />
<glyph unicode="A" d="M20 110v20h540v-40zM20 170v20l106 3q36 0 57 20t47 82l385 915l117 13v-33h-101l-374 -900q-35 -84 -53.5 -102t-77.5 -18h-106zM302 219q0 23 19 70l50 121h468l14 -37l-465 17l-41 -127q-6 -17 -6 -29q0 -40 75 -40l144 -4v-20h-144q-62 0 -88 10.5t-26 38.5zM396 470 l148 356l18 -5l-126 -331l338 6l-176 457l14 80h18v-3q-1 -2 -1 -10q0 -42 18 -89l170 -461h-421zM689 1013l1 1v79l12 3q6 -37 22 -84l275 -744q4 -9 8 -18.5t8 -18.5t6 -14q-4 2 -10.5 4t-10 3.5t-8.5 3.5t-8 4.5t-7 5.5t-7 7t-6.5 9t-6.5 11.5t-6 14.5q-49 133 -143 388 t-105 284q-12 32 -14 61zM730 110v20h570v-40zM730 170v20l175 6q-8 17 -16.5 38t-15 38t-15 40t-14.5 39h17l34 -92q24 -67 70 -85v-4h-235zM757 1157q0 3 0.5 10t0.5 11v42h26q-5 -45 -5 -69q0 -49 22 -105l291 -743q27 -69 43 -88t54 -20l111 -5v-20h-114 q-13 0 -22.5 0.5t-18.5 2t-15 3t-13 6t-11 8t-10 12t-9.5 14.5t-9.5 20t-10 24l-12 30l-275 742q-23 65 -23 125z" />
<glyph unicode="B" horiz-adv-x="1260" d="M40 110v20h640q225 0 362.5 80t137.5 210q0 211 -264 277l13 14q63 -18 108.5 -38t90.5 -53t68.5 -83.5t23.5 -116.5q0 -143 -143 -232t-373 -89q-5 0 -16.5 0.5t-17.5 0.5zM40 170v20l144 5q57 2 71.5 18.5t14.5 74.5l-10 722q-1 57 -12 69.5t-68 20.5l-140 10v20h140 q81 0 100.5 -19.5t19.5 -100.5v-720q0 -81 -19.5 -100.5t-100.5 -19.5h-140zM40 1170v20l500 10q15 1 46 1q129 0 232 -27.5t167.5 -87t64.5 -141.5q0 -46 -27.5 -96t-95.5 -82l-107 -51l-96 9v10q146 26 216 80.5t70 129.5q0 103 -126 164t-334 61h-510zM349 190 q11 33 11 100v733q0 56 -11 87h6q1 -3 10.5 -14.5t16 -22.5t12.5 -33.5t6 -49.5v-680q0 -33 -9.5 -59t-21.5 -42.5t-13 -18.5h-7zM420 190l29 26h231q153 0 226.5 56t73.5 148q0 31 -9 61.5t-36 66t-70 61.5t-119.5 43.5t-175.5 17.5h-90l10 -360h-30v380h110 q215 0 327.5 -69t112.5 -201q0 -112 -87 -171t-253 -59h-250zM420 1110h120q300 0 300 -170q0 -85 -81 -137.5t-229 -52.5h-70v240h20l10 -215h40q50 0 95.5 8t89 25t69.5 51t26 81q0 50 -39 84.5t-98.5 50t-132.5 15.5h-101zM871 1049q79 -43 79 -104q0 -58 -72 -99 q22 45 22 94q0 64 -29 109zM1014 596q106 -60 106 -176q0 -87 -91 -148q41 63 41 148q0 100 -56 176z" />
<glyph unicode="C" horiz-adv-x="1160" d="M60 644q0 268 156 432t398 164q47 0 106.5 -14.5t100.5 -34.5l-8 -17q-97 36 -199 36q-224 0 -369 -156.5t-145 -409.5q0 -247 152 -400.5t388 -153.5q141 0 248.5 63t171.5 185l18 36l37 -17l-20 -38q-69 -131 -185.5 -200t-269.5 -69q-123 0 -230.5 43t-184.5 120 t-121 188.5t-44 242.5zM160 644q0 202 103 338q-58 -127 -58 -308q0 -242 93 -392q-138 138 -138 362zM265 674q0 229 93 352.5t256 123.5q121 0 210.5 -68.5t106.5 -206.5l5 -86l-19 -1l-6 81q-15 125 -99.5 193t-197.5 68q-71 0 -126.5 -29t-89 -74t-55.5 -107t-30 -122 t-8 -124q0 -72 9 -136.5t33.5 -129.5t62.5 -112t100.5 -76.5t143.5 -29.5q100 0 182 50t134 142l18 31l35 -15l-18 -36q-57 -102 -148.5 -157t-202.5 -55q-182 0 -285.5 135.5t-103.5 388.5zM888 1307l40 2l8 -177l4 -40l-18 14zM968 1311l20 1l46 -520l-40 -1z" />
<glyph unicode="D" horiz-adv-x="1300" d="M40 110v20h620q243 0 391.5 143t148.5 377t-148.5 377t-391.5 143h-620v20l610 10h14q256 0 416 -152.5t160 -397.5q0 -243 -157.5 -396.5t-408.5 -153.5h-24zM40 170v20l144 5q57 2 71.5 18.5t14.5 74.5l-10 722q-1 57 -12 69.5t-68 20.5l-140 10v20h140 q81 0 100.5 -19.5t19.5 -100.5v-720q0 -81 -19.5 -100.5t-100.5 -19.5h-140zM349 190q11 33 11 100v733q0 56 -11 87h9q1 -3 12 -15t20.5 -36t9.5 -59v-700q0 -30 -8 -51.5t-19 -37.5t-13 -21h-11zM420 190l17 25h213q38 0 73.5 7t77 23.5t75.5 49t63 78.5t45 117t16 160 q0 105 -24 186.5t-60 128t-84.5 76t-92 39.5t-89.5 10h-208l-22 20h230q185 0 282.5 -118t97.5 -342t-97.5 -342t-282.5 -118h-230zM460 300v700l20 -1l20 -699h-40zM1015 321q75 129 75 329t-75 329q125 -123 125 -329t-125 -329z" />
<glyph unicode="E" horiz-adv-x="1220" d="M40 110v20h981q26 0 37 4t23 16h1l-13 -191l-19 2l-2 129zM40 170v20l144 5q57 2 71.5 18.5t14.5 74.5l-10 722q-1 57 -12 69.5t-68 20.5l-140 10v20h140q81 0 100.5 -19.5t19.5 -100.5v-720q0 -81 -19.5 -100.5t-100.5 -19.5h-140zM40 1170v20l917 20l3 -40h-920z M357 226q3 22 3 64v720q0 38 -3 64q43 -39 43 -84v-680q0 -45 -43 -84zM410 190v4q50 50 50 116v253h20l10 -253q1 -22 -8 -54l-7 -26h385q37 0 57 0.5t45 3t37 6t27 11t21.5 17.5t13.5 26t10 35.5t5 46.5h20q-3 -44 -7.5 -71.5t-15.5 -50t-25.5 -34t-42.5 -19t-60 -9.5 t-85 -2h-450zM410 1110h330q58 0 92 -2t63 -13t41.5 -23t23 -44.5t13.5 -64t7 -93.5l2 -40h-20l-2 38q-3 50 -7 79.5t-15 54t-22.5 35.5t-39.5 19t-55.5 10t-80.5 4l-305 10zM460 610v20h118q29 0 46 -2.5t32 -11.5t22 -22t12 -40t6.5 -59.5t1.5 -84.5h40v540h20l20 -580 h-120v58q0 52 -1.5 78.5t-5 48t-14 29t-22.5 11t-37 5.5zM460 690v300h20l20 -270h78q40 1 58 8.5t30 40t12 100.5l20 -1q-1 -81 -11.5 -117.5t-33.5 -48.5t-75 -12h-118zM989 1343l19 2l55 -515h-41zM1109 -43l33 513h21l-13 -515z" />
<glyph unicode="F" horiz-adv-x="1143" d="M40 110v20h680v-40zM40 170v20l144 5q57 2 71.5 18.5t14.5 74.5l-10 722q-1 57 -12 69.5t-68 20.5l-140 10v20h140q81 0 100.5 -19.5t19.5 -100.5v-720q0 -81 -19.5 -100.5t-100.5 -19.5h-140zM40 1170v20l977 20l3 -40h-980zM349 190q11 44 11 100v720q0 38 -3 64 q43 -39 43 -84v-713q0 -43 11 -87h-62zM410 1110h390q43 0 71.5 -1t55 -6.5t41 -11t28 -21t20 -29.5t12 -43t7.5 -55.5t5 -72.5l2 -40h-20l-2 38q-2 37 -5 62t-9 47.5t-11.5 35.5t-19.5 24t-26.5 16t-38 9t-48 5.5t-62.5 2.5l-365 10zM460 290v293h20l10 -303 q2 -46 11 -62.5t39 -17.5l180 -10v-20h-180q-27 0 -44 7t-24.5 25t-9.5 36t-2 52zM460 630v20h158q29 0 46 -2.5t32 -11.5t22 -22t12 -40t6.5 -59.5t1.5 -84.5h40v540h20l20 -580h-120v58q0 43 -0.5 67.5t-4 46t-7.5 30t-14.5 16t-21.5 9t-32 3.5zM460 710v280h20l20 -250 h118q24 0 37 2.5t27 10t20.5 23.5t11 43.5t4.5 69.5l20 -1q-1 -41 -3 -68t-7.5 -48t-13 -32.5t-22 -18.5t-31.5 -9t-43 -2h-158zM1049 1343l19 2l55 -515h-41z" />
<glyph unicode="G" horiz-adv-x="1300" d="M60 644q0 268 156 432t398 164q47 0 106.5 -14.5t100.5 -34.5l-8 -17q-97 36 -199 36q-224 0 -369 -156.5t-145 -409.5q0 -247 152 -400.5t388 -153.5q195 0 311 131l24 -17q-133 -144 -335 -144q-166 0 -297.5 71t-207 205t-75.5 308zM160 644q0 202 103 338 q-58 -127 -58 -308q0 -242 93 -392q-138 138 -138 362zM265 674q0 229 93 352.5t256 123.5q121 0 210.5 -68.5t106.5 -206.5l5 -86l-19 -1l-6 81q-15 125 -99.5 193t-197.5 68q-71 0 -126.5 -29t-89 -74t-55.5 -107t-30 -122t-8 -124q0 -59 6.5 -115t21.5 -114t42 -105.5 t64 -85.5t92.5 -59.5t122.5 -21.5q81 0 150 35.5t116 99.5v162v9q-1 47 -9.5 56t-55.5 9h-17l-258 -14v40h240q81 0 100.5 -19.5t19.5 -100.5v-145q-109 -155 -286 -155q-182 0 -285.5 135.5t-103.5 388.5zM580 610v20l720 20v-40h-720zM888 1307l40 2l8 -177l5 -40l-19 14z M968 1311l20 1l46 -520l-40 -1zM989 550h62q-11 -22 -11 -100v-169l-40 17v165q0 43 -11 87zM1029 176l33 -21v-155h-20zM1100 0v450q0 29 1 46.5t6 32.5t12 22t22 12t32.5 6t46.5 1h80v-20l-83 -4q-58 -3 -75.5 -18.5t-17.5 -70.5v-7l8 -450h-32z" />
<glyph unicode="H" horiz-adv-x="1440" d="M40 110v20h655v-40zM40 170v20l144 5q57 2 71.5 18.5t14.5 74.5l-10 722q-1 57 -12 69.5t-68 20.5l-140 10v20h140q81 0 100.5 -19.5t19.5 -100.5v-720q0 -81 -19.5 -100.5t-100.5 -19.5h-140zM40 1170v20l656 20l-1 -40h-655zM349 190q11 44 11 100v743q0 43 -11 87h62 q-11 -44 -11 -100v-743q0 -43 11 -87h-62zM460 290v380h520v-40l-487 8l7 -348q1 -23 1.5 -33.5t3.5 -22.5t7 -16t14 -8.5t21.5 -6t32.5 -3.5l115 -10v-20h-115q-29 0 -46.5 1t-32.5 6t-22 12t-12 22t-6 32.5t-1 46.5zM460 730v40l484 -10l-4 250q0 15 -0.5 23t-1.5 18 t-3 15t-4 11t-7 8.5t-10 5.5t-13.5 4t-17.5 2.5t-23 2.5l-105 10v20h105q29 0 46.5 -1t32.5 -6t22 -12t12 -22t6 -32.5t1 -46.5v-280h-520zM460 834v176q0 29 1 46.5t6 32.5t12 22t22 12t32.5 6t46.5 1h115v-20l-119 -5q-38 -2 -55.5 -9t-24 -23.5t-6.5 -51.5v-9l3 -178h-33 zM755 110v20h645v-40zM755 170v20l109 5q54 3 70 17.5t16 61.5v14l-6 270h36v-268q0 -29 -1 -46.5t-6 -32.5t-12 -22t-22 -12t-32.5 -6t-46.5 -1h-105zM755 1170v20l645 20v-40h-645zM1029 190q11 22 11 100v743q0 43 -11 87h62q-11 -44 -11 -100v-743q0 -43 11 -87h-62z M1140 290v720q0 29 1 46.5t6 32.5t12 22t22 12t32.5 6t46.5 1h140v-20l-144 -5q-30 -1 -46 -4.5t-25.5 -15t-12 -27t-2.5 -46.5l10 -722l1.5 -33t4 -22t7 -15t14.5 -8.5t21 -6.5t32 -5l140 -10v-20h-140q-29 0 -46.5 1t-32.5 6t-22 12t-12 22t-6 32.5t-1 46.5z" />
<glyph unicode="I" horiz-adv-x="760" d="M40 110v20h680v-40zM40 170v20l144 5q55 2 70.5 17.5t15.5 66.5v9l-10 722q-1 57 -12 69.5t-68 20.5l-140 10v20h140q81 0 100.5 -19.5t19.5 -100.5v-720q0 -81 -19.5 -100.5t-100.5 -19.5h-140zM40 1170v20l680 20v-40h-680zM349 190q11 44 11 100v743q0 43 -11 87h62 q-11 -44 -11 -100v-743q0 -43 11 -87h-62zM460 290v720q0 29 1 46.5t6 32.5t12 22t22 12t32.5 6t46.5 1h140v-20l-144 -5q-38 -2 -55.5 -9t-24 -23.5t-6.5 -51.5v-9l10 -722l1.5 -33t4 -22t7 -15t14.5 -8.5t21 -6.5t32 -5l140 -10v-20h-140q-29 0 -46.5 1t-32.5 6t-22 12 t-12 22t-6 32.5t-1 46.5z" />
<glyph unicode="J" horiz-adv-x="900" d="M28 111l6 19l59 -18q70 -22 130 -22q170 0 273.5 104.5t103.5 275.5v520q0 83 25.5 111.5t104.5 28.5h130v-20l-134 -5q-55 -2 -75.5 -27t-20.5 -81v-5l5 -522q0 -185 -111.5 -292.5t-300.5 -107.5q-68 0 -142 24zM50 193l9 38l64 -20q96 -29 131 -29q58 0 97.5 33t54 76 t14.5 93v6l-15 665h35v-665q0 -110 -52 -175t-147 -65q-41 0 -132 26zM100 1090v40h362l-20 -29zM100 1170v20l760 20v-40h-760zM484 273q16 56 16 117v676q0 9 1 16l25 28h37q-23 -40 -23 -100v-540q0 -115 -56 -197z" />
<glyph unicode="K" horiz-adv-x="1300" d="M40 110v20h590v-40zM40 170v20l144 5q57 2 71.5 18.5t14.5 74.5l-10 722q-1 57 -12 69.5t-68 20.5l-140 10v20h140q81 0 100.5 -19.5t19.5 -100.5v-720q0 -81 -19.5 -100.5t-100.5 -19.5h-140zM40 1170v20l620 20v-40h-620zM337 190q23 40 23 100v733q0 43 -11 87h62 q-11 -44 -11 -100v-756q0 -11 -1 -19.5t-4 -15.5l-4.5 -10.5t-5.5 -10.5t-5 -8h-43zM440 170v4q12 12 16 23t4 37v276l104 132q27 -22 57 -60.5t75 -106t66 -96.5q93 -133 162 -224t135.5 -164.5t120 -116.5t113.5 -72t118.5 -39.5t131.5 -10.5q152 0 272 93l23 -40 q-120 -93 -295 -93q-76 0 -137.5 12t-124 44.5t-117.5 78t-123.5 123.5t-136.5 169t-163 226q-21 29 -52 76.5t-58.5 88.5t-46.5 64l-15 19l-77 -117l3 -271v-4l-1 -21l136 -10v-20h-190zM459 652l338 448h-33v30h125v-4q-1 -1 -4 -2q-9 -4 -14.5 -7t-15 -11.5t-23 -23.5 t-32.5 -40l-300 -382q-27 -34 -40 -65zM460 738v272q0 29 1 46.5t6 32.5t12 22t22 12t32.5 6t46.5 1h80v-20l-89 -4q-57 -4 -71 -20.5t-15 -74.5l-4 -259zM620 716l219 278q34 43 67.5 71t69.5 42t68.5 18.5t77.5 4.5h92v-20h-92q-78 0 -140.5 -28t-125.5 -109l-212 -274z M664 625q28 -15 51.5 -33t48 -46.5t41.5 -51.5t49 -69q113 -162 187.5 -263t140 -176.5t121.5 -121.5q-95 50 -207 176t-284 373q-18 26 -48.5 71.5t-54 79.5t-45.5 61zM689 679l22 31q24 -13 46 -29t36 -28.5t35 -37.5t30 -37.5t33.5 -47t34.5 -48.5q67 -97 118.5 -169 t99.5 -136t85.5 -108t72 -81.5t64.5 -60.5t58 -40.5t57.5 -25.5t58 -12t63.5 -4q43 0 92 14t88 39l12 -19q-92 -59 -192 -59q-58 0 -100 8t-91.5 34.5t-94.5 67.5t-109 116.5t-134 171t-171 241.5q-5 7 -15 20q-31 44 -47.5 65t-42.5 50.5t-52 49t-57 35.5zM764 1170v20 l451 20l-1 -40h-450z" />
<glyph unicode="L" horiz-adv-x="1160" d="M40 110v20h921q26 0 37 4t23 16h1l-13 -191l-19 2l-2 129zM40 170v20l144 5q57 2 71.5 18.5t14.5 74.5l-10 722q-1 57 -12 69.5t-68 20.5l-140 10v20h140q81 0 100.5 -19.5t19.5 -100.5v-720q0 -81 -19.5 -100.5t-100.5 -19.5h-140zM40 1170v20l700 20v-40h-700zM357 226 q3 22 3 64v720q0 38 -3 64q43 -39 43 -84v-680q0 -45 -43 -84zM410 190l31 40h359q37 0 57 0.5t45 3t37 6t27 11t21.5 17.5t13.5 26t10 35.5t5 46.5h20q-3 -44 -7.5 -71.5t-15.5 -50t-25.5 -34t-42.5 -19t-60 -9.5t-85 -2h-390zM460 290v720q0 81 19.5 100.5t100.5 19.5h160 v-20l-160 -10q-56 -4 -67 -17.5t-13 -72.5l-20 -722zM1049 -43l33 513h21l-13 -515z" />
<glyph unicode="M" horiz-adv-x="1700" d="M20 110v20h540v-40zM20 170v27l106 -4q5 0 14 -0.5t13 -0.5q49 0 66 20.5t26 91.5l74 740q2 20 2 26q0 23 -14 30.5t-59 7.5l-110 2v20h110q65 0 84.5 -9.5t19.5 -43.5q0 -19 -3 -47l-82 -720q-6 -51 -11.5 -75.5t-22 -41t-39 -20t-68.5 -3.5h-106zM138 1170v20l308 20 l397 -793l-14 -27l-407 780h-284zM323 239q0 18 3 42l57 523q3 27 3 66v26h15l-3 -143l-32 -476q-1 -8 -1 -22q0 -34 19 -45.5t82 -14.5l94 -5v-20h-94q-88 0 -115.5 12t-27.5 57zM409 1024q1 7 3 36l354 -678q20 -39 20 -74v-52l-297 574q-27 63 -28 71zM422 772l3 53 l369 -715h28l369 720q37 79 37 91h13q0 -21 -6 -43.5t-10 -33.5t-17.5 -37.5t-15.5 -30.5l-356 -696l-66 10zM846 308l38 103l401 787l297 12v-40h-280l-396 -764q-37 -72 -37 -99zM1080 110v20h600v-40zM1081 170v40l80 -4q14 -1 38 -1q45 0 63.5 10.5t18.5 39.5 q0 12 -1 18l-62 472l30 41l52 -509q2 -22 2 -31q0 -46 -28.5 -61t-112.5 -15h-80zM1282 1001l45 88q-3 -14 -3 -44q0 -31 3 -61l70 -680q10 -86 22 -114h-66q9 24 9 56q0 11 -2 37l-57 551q-6 83 -21 167zM1384 1045q0 54 24 69.5t98 15.5h76v-20l-76 -2q-59 -2 -79 -14 t-20 -53q0 -20 3 -47l85 -680q1 -8 3 -23q4 -35 7 -48.5t14 -27t29 -16.5t54 -5l78 -4v-20h-78q-41 0 -62 3t-38 9t-24.5 24.5t-12 39.5t-8.5 64l-70 680q-3 31 -3 55z" />
<glyph unicode="N" horiz-adv-x="1340" d="M40 110v20h560v-40zM40 170v20l124 5q57 2 71.5 18.5t14.5 74.5l-10 722q-1 57 -12 69.5t-68 20.5l-120 10v20h120q81 0 100.5 -19.5t19.5 -100.5v-720q0 -81 -19.5 -100.5t-100.5 -19.5h-120zM40 1170v20l391 16l482 -685l-14 -15l-485 664h-374zM340 290v726l30 -54 l10 -672q2 -59 13 -72.5t67 -17.5l140 -10v-20h-140q-81 0 -100.5 19.5t-19.5 100.5zM400 877l18 15l573 -782h39v-35l-58 5zM400 1087l500 -684q25 -35 31.5 -55t13.5 -74l-502 685q-30 45 -36.5 65.5t-6.5 62.5zM755 1110v20h125q81 0 100.5 -19.5t19.5 -100.5v-647 l-26 34l-14 613q-2 59 -13 72.5t-67 17.5zM755 1170v20l545 20v-40h-545zM1060 73v937q0 81 19.5 100.5t100.5 19.5h120v-20l-124 -5q-55 -2 -70.5 -17.5t-15.5 -66.5v-9l10 -942z" />
<glyph unicode="O" horiz-adv-x="1180" d="M60 650q0 119 44 241l14 -5q-38 -106 -38 -236q0 -252 137.5 -406t362.5 -154t362.5 154t137.5 406t-137.5 406t-362.5 154q-197 0 -327 -118l-11 10q141 128 338 128q244 0 392 -157t148 -423q0 -268 -149 -434t-391 -166q-239 0 -379.5 164.5t-140.5 435.5zM140 650 q0 180 77 305q-32 -98 -32 -225q0 -306 102 -471q-147 138 -147 391zM245 730q0 200 80 307l12 -10q-72 -96 -72 -297q0 -105 17 -197t53 -171t101 -125.5t152 -46.5q136 0 211.5 91.5t75.5 288.5q0 85 -8 160.5t-29 151.5t-54.5 130.5t-87.5 88.5t-124 34v15 q167 0 255 -148.5t88 -431.5q0 -205 -83.5 -312.5t-243.5 -107.5q-167 0 -255 148.5t-88 431.5zM873 1041q147 -138 147 -391q0 -180 -77 -305q32 98 32 225q0 306 -102 471z" />
<glyph unicode="P" horiz-adv-x="1280" d="M40 110v20h680v-40zM40 170v20l144 5q57 2 71.5 18.5t14.5 74.5l-10 722q-1 57 -12 69.5t-68 20.5l-140 10v20h140q81 0 100.5 -19.5t19.5 -100.5v-720q0 -81 -19.5 -100.5t-100.5 -19.5h-140zM40 1170v20l659 10h26q222 0 358.5 -102t136.5 -268q0 -165 -133.5 -268 t-350.5 -103q-24 0 -36 1l-240 10v20h240q216 0 348 93.5t132 246.5t-132 246.5t-348 93.5h-660zM349 190q11 44 11 100v720q0 38 -3 64q43 -39 43 -84v-713q0 -43 11 -87h-62zM420 1110h270q156 0 238 -72t82 -208.5t-82 -208t-238 -71.5h-230v440h20l10 -410h200 q146 0 218 68t72 182q0 127 -74.5 193.5t-215.5 66.5h-251zM460 290v133h20l10 -143q3 -47 12 -63t38 -17l180 -10v-20h-180q-27 0 -44 7t-24.5 25t-9.5 36t-2 52zM1020 637q50 79 50 193t-50 193q100 -75 100 -193t-100 -193z" />
<glyph unicode="Q" horiz-adv-x="1180" d="M60 660q0 265 142.5 417.5t387.5 152.5q232 0 381 -152t149 -397q0 -76 -15 -143.5t-40 -119t-63.5 -97t-79 -79t-93 -63t-99.5 -49.5t-104 -40l-172 -57l-109 -44q11 15 29.5 27.5t48.5 25t53 20.5t68 23l69 23q72 25 131 53.5t124.5 77.5t109.5 107.5t73 145t29 189.5 q0 230 -138.5 379.5t-351.5 149.5q-230 0 -370 -151t-140 -399q0 -166 76 -292t202 -195l-27 -25q-126 75 -198.5 207t-72.5 305zM140 660q0 181 84 307q-39 -103 -39 -247q0 -221 34 -340q-79 121 -79 280zM184 -136q0 171 157 232l208 85q72 29 127 65t105 91t77 135.5 t27 182.5q0 217 -83.5 348t-219.5 131v16q157 0 247.5 -132.5t90.5 -362.5q0 -378 -358 -510q-18 -7 -52.5 -19t-52 -18.5t-47 -18.5t-45.5 -20t-39 -22t-35.5 -26t-27 -29.5t-22 -36t-12.5 -42t-5 -49.5q0 -135 109 -154l39 -6l-6 -40l-39 7q-1 0 -13 2.5t-15 3.5 q-115 37 -115 187zM245 720q0 216 83 325l13 -16q-76 -99 -76 -309q0 -158 21 -256.5t57 -149t100 -87.5l-27 -25q-93 59 -132 170t-39 348zM284 -159q0 72 69 72q82 0 225.5 -41t278.5 -89.5t303 -89.5t294 -41q160 0 244.5 86t85.5 250l35 -1q0 -172 -101.5 -267 t-271.5 -95q-107 0 -237.5 27.5t-249 67t-230 78.5t-212.5 66.5t-165 27.5q-22 0 -33 -16.5t-11 -34.5q0 -46 37 -52l39 -6l-2 -18l-40 5q-58 9 -58 71zM393 -12l44 15q139 -11 355.5 -60t404 -91.5t280.5 -42.5q102 0 162 43t60 129v9h25q-1 -99 -66.5 -151t-190.5 -52 q-80 0 -224.5 29t-281 64.5t-298.5 68.5t-270 39zM734 -114l206 -45q73 -16 196.5 -47.5t195 -44.5t135.5 -13q103 0 204 46q-47 -41 -93.5 -60t-123.5 -19q-60 0 -128 12t-109.5 23.5t-139.5 42.5t-141 44zM900 1017q120 -133 120 -336q0 -184 -99 -309q59 121 59 283 q0 217 -80 362z" />
<glyph unicode="R" horiz-adv-x="1340" d="M40 110v20h660v-40zM40 170v20l144 5q57 2 71.5 18.5t14.5 74.5l-10 722q-1 57 -12 69.5t-68 20.5l-140 10v20h140q81 0 100.5 -19.5t19.5 -100.5v-720q0 -81 -19.5 -100.5t-100.5 -19.5h-140zM40 1170v20l618 10q6 0 18 0.5t17 0.5q237 0 382 -97t145 -254 q0 -102 -81.5 -184t-201.5 -113l-106 7q149 14 249 95t100 195q0 144 -143 232t-377 88h-620zM349 190q11 44 11 100v720q0 42 -4 70l4 1l18 -17q22 -22 22 -74v-713q0 -43 11 -87h-62zM420 1110h260q156 0 238 -66.5t82 -193.5q0 -230 -322 -230h-218v370h20l20 -340h180 q290 0 290 200q0 75 -34.5 128.5t-104 82.5t-171.5 29h-221zM460 290v260h20l10 -270q2 -45 11.5 -61.5t38.5 -18.5l160 -10v-20h-160q-27 0 -44 7t-24.5 25t-9.5 36t-2 52zM519 550h102q37 0 66.5 -10t56 -34.5t48 -52t53.5 -76.5q94 -135 161 -224t132.5 -163.5 t117 -116.5t110.5 -71.5t116.5 -39.5t130.5 -10q152 0 272 93l23 -40q-120 -93 -295 -93q-51 0 -94.5 6t-84 17.5t-80 34t-76.5 48.5t-78 67.5t-80.5 86t-89 109.5t-97 131t-111.5 157q-55 85 -98.5 118t-102.5 33h-101zM831 548l117 -15q22 -21 47 -50q67 -97 118.5 -169 t99.5 -136t85.5 -108t72 -82t65 -61t58.5 -40.5t57.5 -25.5t58 -12t63.5 -4q43 0 92 14t88 39l12 -19q-92 -59 -192 -59q-58 0 -100.5 8t-92 34.5t-94.5 67.5t-109 116.5t-134.5 171.5t-171.5 241q-75 75 -140 89zM848 478q43 -22 76 -53q168 -242 268 -368t181 -193 q-93 49 -199 171.5t-283 377.5q-34 52 -43 65zM1007 676q53 72 53 174q0 103 -47 176q107 -71 107 -176q0 -50 -29.5 -95.5t-83.5 -78.5z" />
<glyph unicode="S" horiz-adv-x="1040" d="M56 559l20 1l27 -521l-40 -2zM100 942q0 127 113 202.5t287 75.5q35 0 88 -10.5t92 -26.5l-6 -19q-83 26 -174 26q-155 0 -257.5 -69t-102.5 -179q0 -58 28 -108.5t73.5 -87t103.5 -71t118.5 -61t118.5 -56.5t103.5 -57.5t73.5 -64t28 -76.5q0 -91 -77 -140.5t-210 -49.5 q-130 0 -243 89t-117 202l-4 80l41 1l-5 -100q4 -91 105.5 -166.5t222.5 -75.5q61 0 114 14t93 51.5t40 93.5v1q0 13 -4 25q-12 34 -54 67t-99.5 61t-124.5 58t-131 66.5t-116.5 78t-85 100t-32.5 126.5zM122 252l10 1q9 -27 45 -51l6 -169l-40 -2l-8 157q-1 33 -13 64z M200 942q0 29 10 52v-2q0 -61 37 -113.5t96 -91t130.5 -74t143 -69.5t130.5 -69.5t96 -83t37 -101.5q0 -62 -46 -111q13 35 13 81q-2 35 -9 57q-15 46 -59 87t-101 72.5t-123 61.5t-128.5 61.5t-113.5 65.5t-82 79.5t-31 97.5zM240 148l9 17q135 -55 251 -55 q191 0 315.5 77.5t124.5 202.5q0 64 -37 119t-96 95t-130.5 76t-143 69.5t-130.5 68t-96 79t-37 95.5q0 62 63 100t167 38q121 0 204 -67.5t91 -160.5l7 -82l-19 -2l-8 80q-7 78 -84 145t-189 67q-93 0 -142.5 -31.5t-49.5 -86.5q0 -43 37 -82t96 -71t130.5 -65t143 -71 t130.5 -80.5t96 -102.5t37 -130q0 -94 -63 -162.5t-170.5 -103t-246.5 -34.5q-119 0 -260 58zM754 1267l40 2l7 -131q1 -34 7 -65l-33 42zM834 1271l20 2l44 -458l-40 -2z" />
<glyph unicode="T" horiz-adv-x="1170" d="M19 790l62 514l19 -1l-39 -513h-42zM110 908q4 68 13 105t38.5 55.5t52 22.5t86.5 7q20 1 30 2l180 10v-860q0 -56 -11 -67t-69 -13h-200v20l205 10q29 2 34.5 7t5.5 33l5 835h-150q-43 0 -67.5 -1.5t-49 -7.5t-37 -16.5t-23 -30.5t-15.5 -46.5t-8 -67.5zM213 1170l2 20 l831 20l1 -40h-834zM230 110v20h720v-40zM559 190q11 44 11 100v820h40v-833q0 -43 11 -87h-62zM670 250v740h20l20 -750q0 -15 1 -21.5t6 -11.5t11 -5.5t22 -1.5l200 -10v-20h-200q-56 0 -67 11t-13 69zM670 1090v20h160q53 0 84 -2t60.5 -9.5t43.5 -19.5t26.5 -36 t17.5 -55t8 -80l4 -118h-39l-5 125q-3 40 -6 65t-14 43.5t-19.5 27.5t-34.5 15.5t-45 8t-65 4.5q-10 1 -16 1zM1081 1303l21 2l53 -515h-40z" />
<glyph unicode="U" horiz-adv-x="1360" d="M40 1110v20h120q81 0 100.5 -19.5t19.5 -100.5v-520q0 -180 113 -290t297 -110q176 0 283 110t107 290l4 520q1 81 20 100.5t100 19.5h116v-20l-122 -2q-57 -2 -73 -20t-16 -76l6 -522v-7q0 -193 -117 -303t-308 -110q-204 0 -327 113t-123 307v520q-2 59 -13 72.5 t-67 17.5zM40 1170v20l640 20l-1 -40h-639zM329 1110h62q-11 -44 -11 -100v-580q0 -84 23 -150q-63 86 -63 210v533q0 43 -11 87zM440 530v480q0 29 1 46.5t6 32.5t12 22t22 12t32.5 6t46.5 1h119v-20l-123 -5q-30 -1 -46 -4.5t-25.5 -15t-12 -27t-2.5 -46.5l3 -482h-33z M451 329l19 7q40 -166 220 -166q130 0 210 88t80 232l4 519v14q0 48 -13 60t-67 17l-124 10v20h124q28 0 45 -1t32 -5.5t22 -11.5t12.5 -20t7 -30t1.5 -43v-10l-4 -519q0 -101 -41 -178.5t-116 -119.5t-173 -42q-97 0 -157.5 45.5t-81.5 133.5zM780 1170v20l540 20v-40h-540 z" />
<glyph unicode="V" d="M20 1110v20h114q60 0 79 -18t52 -102l354 -900h90l354 900q33 84 52 102t79 18h106v-20l-106 -5q-45 -5 -60 -20.5t-44 -89.5l-364 -925l-110 10q-76 177 -211 509.5t-169 415.5q-28 69 -41 82t-56 17zM20 1170v20l530 20v-40h-530zM299 1083q4 -1 15.5 -5.5t14 -6 t10.5 -6.5t11.5 -10t8.5 -14t10 -22l264 -671q10 -29 15 -45v-76l-9 -4l-318 809q-4 9 -8 18.5t-8 18.5t-6 14zM354 1126v4h196v-20l-122 -4l20 -65l241 -602l-22 -14l-235 598q-19 50 -36.5 72t-41.5 31zM702 366l273 669q12 29 12 43q0 22 -43 22q-17 0 -27 -1l-177 -9v40 h164q63 0 88 -10.5t25 -38.5q0 -25 -18 -70l-252 -641q-22 -53 -22 -74q0 -5 1 -6v-3h-18zM740 1170v20l560 20v-40h-560z" />
<glyph unicode="W" horiz-adv-x="2000" d="M20 1110v20h114q60 0 79 -18t52 -102l354 -900h90l265 675l22 -30l-270 -685l-110 10q-76 177 -211 509.5t-169 415.5q-28 69 -41 82t-56 17zM20 1170v20l470 20v-40h-470zM299 1083q4 -1 15.5 -5.5t14 -6t10.5 -6.5t11.5 -10t8.5 -14t10 -22l264 -671q10 -29 15 -45v-76 l-9 -4l-318 809q-4 9 -8 18.5t-8 18.5t-6 14zM354 1126v4h136v-20l-62 -4l20 -65l241 -602l-22 -14l-235 598q-19 50 -36.5 72t-41.5 31zM702 366l237 582l-23 57q-28 69 -41 83t-56 16l-99 6v20h94q60 0 79 -18t52 -102l27 -68l-225 -572q-22 -53 -22 -74q0 -5 1 -6v-3h-18 zM720 1170v20l570 20v-40h-570zM979 1083q4 -1 15.5 -5.5t14 -6t10.5 -6.5t11.5 -10t8.5 -14t10 -22l264 -671q10 -29 15 -45v-76l-9 -4l-318 809q-4 9 -8 18.5t-8 18.5t-6 14zM991 827l11 29l297 -746h90l354 900q33 84 52 102t79 18h106v-20l-106 -5q-45 -5 -60 -20.5 t-44 -89.5l-364 -925l-110 10q-61 143 -170 413t-135 334zM1034 1126v4h256v-20l-182 -4l20 -65l241 -602l-22 -14l-235 598q-19 50 -36.5 72t-41.5 31zM1382 366l273 669q12 28 12 43q0 22 -43 22q-17 0 -27 -1l-157 -9v40h144q63 0 88 -10.5t25 -38.5q0 -25 -18 -70 l-252 -641q-22 -53 -22 -74q0 -5 1 -6v-3h-18zM1440 1170v20l540 20v-40h-540z" />
<glyph unicode="X" horiz-adv-x="1300" d="M30 110v20h535v-40zM30 170v25h113q51 1 74.5 22t93.5 125l223 330l-183 285q-58 89 -88 121t-59 32h-124v20h120q47 0 76 -27.5t95 -128.5l198 -302l-227 -346q-38 -58 -55.5 -82t-41.5 -44.5t-45 -25t-57 -4.5h-113zM80 1170v20l516 20v-40h-516zM359 211q0 30 50 107 l196 299l15 -23l-202 -308q-27 -45 -27 -64q0 -17 19 -22t68 -7l86 -3v-20h-84q-65 0 -93 8.5t-28 32.5zM371 1081l28 -11q12 -5 35.5 -25.5t46.5 -55.5l456 -696q65 -100 67 -103h-95q2 9 2 21q-6 58 -60 140q-37 55 -211 321.5t-269 408.5zM421 1126v4h175v-20l-98 -4 q28 -41 162 -245l-14 -14l-115 175q-25 39 -55.5 67t-54.5 37zM619 523l22 39l160 -244q50 -77 50 -107q0 -17 -14 -26t-39 -12t-68 -3h-84v40l95 -5q11 -1 30 -1q44 0 44 18q0 16 -36 69zM645 110v20h625v-40zM666 1091v40h104q65 0 93 -8.5t28 -32.5q0 -30 -50 -107 l-142 -217l-23 37l146 210q34 53 34 69q0 18 -40 18q-20 0 -32 -1zM666 1170v20l554 20l-1 -40h-553zM735 711l173 264l39 58.5t30.5 40.5t28.5 29.5t27.5 16.5t33 9.5t40.5 1.5h113v-20h-113q-18 0 -29 -1t-24.5 -9t-21 -14.5t-24.5 -28.5t-28 -38.5t-38 -57.5l-6 -9 l-153 -242l231 -363q14 -21 28 -43.5t22 -35.5t17 -27.5t15 -21.5t12.5 -14t12.5 -10t13 -4.5t16 -1.5h120v-20h-120q-11 0 -20 1t-16.5 2.5t-14.5 6t-12.5 7.5t-13 12t-12.5 15.5t-14.5 20.5t-16.5 24.5t-20 30.5t-23 36z" />
<glyph unicode="Y" horiz-adv-x="1280" d="M20 1110v20h133q54 0 76 -21.5t58 -94.5q7 -13 10 -20l273 -543v-201q0 -56 -11 -67t-69 -13h-200v20l205 10q29 1 34 6.5t6 33.5l5 207l-269 539q-6 11 -15 29q-32 62 -44.5 74t-48.5 15zM20 1170v20l550 20l-1 -40h-549zM290 110v20h720v-40zM319 1083q4 -2 14 -5.5 t12.5 -4.5t9.5 -4.5t10 -7t8.5 -9t10 -13.5t11 -18.5t13.5 -25.5l263 -519v-43q0 -114 -1 -143v-13q0 -43 11 -87h-62q11 44 11 100v175q-24 47 -137 272.5t-174 345.5zM374 1126v4h194v-20l-120 -4q36 -79 110 -221.5t85 -164.5l-22 -14l-159 316q-25 49 -44.5 72t-43.5 32 zM675 599l215 416q22 43 22 61q0 12 -9.5 17t-29.5 5q-3 0 -9 -0.5t-10 -0.5l-156 -7v40h144q37 0 58 -3.5t33 -14t12 -29.5q0 -31 -31 -93l-183 -370q-23 -45 -30 -71zM698 1170v20l562 20l-1 -40h-561zM730 250v237l252 503q1 2 2 5q15 29 22 42t17.5 32t16.5 25.5t15 16 t18 12.5t20.5 5t26.5 2h140v-20l-140 -10q-29 -2 -42 -18t-48 -86q-8 -15 -12 -24l-248 -494v-238q0 -15 0.5 -21.5t6 -11t11.5 -5.5t22 -2l200 -10v-20h-200q-56 0 -67 11t-13 69z" />
<glyph unicode="Z" horiz-adv-x="1240" d="M40 110v20h1001q26 0 37 4t23 16h1l-13 -191l-19 2l-2 129zM40 170v40h34q25 0 40 13.5t74 84.5q22 27 35 43l513 623l17 -12l-499 -636q-13 -17 -28 -36t-24 -30.5t-19.5 -25t-16.5 -21.5t-13.5 -16t-12 -12.5t-9.5 -8t-9 -5t-8 -1.5h-74zM70 790l51 514l19 -1l-28 -513 h-42zM161 894q5 68 14.5 105t35 64.5t69 37t117.5 9.5h470l-31 -40h-439q-124 -1 -166 -35.5t-50 -140.5h-20zM171 1151l7 148l40 -3l-4 -86l966 -20v-20h-950q-26 0 -36.5 -3.5t-22.5 -15.5zM232 200q111 142 318.5 406.5t250.5 318.5q17 22 42 54t33 42.5t22 27.5t22 24 t19.5 16.5t26.5 20.5l14 -11q-109 -143 -316.5 -406t-250.5 -318q-16 -21 -30 -39t-28.5 -34.5t-23 -26.5t-23.5 -25.5t-19.5 -20l-21 -21l-17.5 -17.5zM343 190l31 40h506q37 0 57 0.5t45 3t37 6t27 11t21.5 17.5t13.5 26t10 35.5t5 46.5h20q-3 -44 -7.5 -71.5t-15.5 -50 t-25.5 -34t-42.5 -19t-60 -9.5t-85 -2h-537zM461 338l499 636q13 17 28 36t24 30.5t19.5 25t16.5 21.5t13.5 16t12 12.5t9.5 8t9 5t8 1.5h80v-40h-40q-25 0 -40 -13.5t-74 -84.5q-22 -27 -35 -43l-513 -623zM1129 -43l33 513h21l-13 -515z" />
<glyph unicode="[" horiz-adv-x="600" d="M80 1495l500 -15v-20h-495zM86 1443h31q10 -90 10 -163v-1260q0 -80 -10 -168v-12h463v-20l-493 -16v38q16 128 16 178l-6 1260q0 64 -11 163zM182 -95q5 62 5 115v1260q0 37 -5 114q18 -15 24.5 -22t13.5 -25.5t7 -46.5v-1300q0 -37 -9.5 -55t-35.5 -40zM247 -116 q40 40 40 116v1300q0 76 -40 116v4h333v-20l-276 -10q18 -57 18 -90l-10 -1300q0 -19 -9 -49t-18 -46l-38 -25v4zM276 -120l31 23l273 12v-35h-304z" />
<glyph unicode="\" horiz-adv-x="1195" d="M76 1238l13 11l928 -1190l47 37l-928 1190l31 24l943 -1221l-100 -76z" />
<glyph unicode="]" horiz-adv-x="600" d="M20 -85l273 -12l31 -23h-304v35zM20 -160h463v12q-10 88 -10 168v1260q0 73 10 163h31q-11 -99 -11 -163l-6 -1260q0 -50 16 -178v-38l-493 16v20zM20 1400v20h333v-4q-40 -40 -40 -116v-1300q0 -76 40 -116v-4l-38 25q-9 16 -18 46t-9 49l-10 1300q0 33 18 90zM20 1460 v20l500 15l-5 -35h-495zM373 0v1300q0 28 7 46.5t13.5 25.5t24.5 22q-5 -77 -5 -114v-1260q0 -53 5 -115q-26 22 -35.5 40t-9.5 55z" />
<glyph unicode="^" horiz-adv-x="950" d="M72 954l387 362l32 -6l387 -356l-101 -109l-203 229q-12 13 -29.5 35.5t-30.5 33.5l11 16q33 -38 67 -73l185 -196l56 62l-351 336h-24l-351 -336l56 -62l185 196q9 10 26 27.5t24.5 25.5t20 21.5t18.5 21.5t13 17.5t10.5 17t4.5 14.5h10l10 -54q-15 -18 -57 -63.5 t-50 -54.5l-215 -219z" />
<glyph unicode="_" horiz-adv-x="600" d="M-20 -120h640v-40h-640v40zM-20 1420v40h640v-40h-640z" />
<glyph unicode="`" horiz-adv-x="560" d="M91 1562q0 23 26 44l33 28q26 17 46 17q32 0 53 -25l216 -285l-70 -46l-14 10l48 39l-220 263q-9 11 -22 11q-10 0 -20 -8l-35 -30q-12 -9 -12 -22q0 -9 8 -19l29 -34l216 -169l-13 -15l-211 155l-34 37q-24 30 -24 49z" />
<glyph unicode="a" d="M20 110v20h540v-40zM20 170v20l106 3q36 0 57 20t47 82l385 915l117 13v-33h-101l-374 -900q-35 -84 -53.5 -102t-77.5 -18h-106zM302 219q0 23 19 70l50 121h468l14 -37l-465 17l-41 -127q-6 -17 -6 -29q0 -40 75 -40l144 -4v-20h-144q-62 0 -88 10.5t-26 38.5zM396 470 l148 356l18 -5l-126 -331l338 6l-176 457l14 80h18v-3q-1 -2 -1 -10q0 -42 18 -89l170 -461h-421zM689 1013l1 1v79l12 3q6 -37 22 -84l275 -744q4 -9 8 -18.5t8 -18.5t6 -14q-4 2 -10.5 4t-10 3.5t-8.5 3.5t-8 4.5t-7 5.5t-7 7t-6.5 9t-6.5 11.5t-6 14.5q-49 133 -143 388 t-105 284q-12 32 -14 61zM730 110v20h570v-40zM730 170v20l175 6q-8 17 -16.5 38t-15 38t-15 40t-14.5 39h17l34 -92q24 -67 70 -85v-4h-235zM757 1157q0 3 0.5 10t0.5 11v42h26q-5 -45 -5 -69q0 -49 22 -105l291 -743q27 -69 43 -88t54 -20l111 -5v-20h-114 q-13 0 -22.5 0.5t-18.5 2t-15 3t-13 6t-11 8t-10 12t-9.5 14.5t-9.5 20t-10 24l-12 30l-275 742q-23 65 -23 125z" />
<glyph unicode="b" horiz-adv-x="1260" d="M40 110v20h640q225 0 362.5 80t137.5 210q0 211 -264 277l13 14q63 -18 108.5 -38t90.5 -53t68.5 -83.5t23.5 -116.5q0 -143 -143 -232t-373 -89q-5 0 -16.5 0.5t-17.5 0.5zM40 170v20l144 5q57 2 71.5 18.5t14.5 74.5l-10 722q-1 57 -12 69.5t-68 20.5l-140 10v20h140 q81 0 100.5 -19.5t19.5 -100.5v-720q0 -81 -19.5 -100.5t-100.5 -19.5h-140zM40 1170v20l500 10q15 1 46 1q129 0 232 -27.5t167.5 -87t64.5 -141.5q0 -46 -27.5 -96t-95.5 -82l-107 -51l-96 9v10q146 26 216 80.5t70 129.5q0 103 -126 164t-334 61h-510zM349 190 q11 33 11 100v733q0 56 -11 87h6q1 -3 10.5 -14.5t16 -22.5t12.5 -33.5t6 -49.5v-680q0 -33 -9.5 -59t-21.5 -42.5t-13 -18.5h-7zM420 190l29 26h231q153 0 226.5 56t73.5 148q0 31 -9 61.5t-36 66t-70 61.5t-119.5 43.5t-175.5 17.5h-90l10 -360h-30v380h110 q215 0 327.5 -69t112.5 -201q0 -112 -87 -171t-253 -59h-250zM420 1110h120q300 0 300 -170q0 -85 -81 -137.5t-229 -52.5h-70v240h20l10 -215h40q50 0 95.5 8t89 25t69.5 51t26 81q0 50 -39 84.5t-98.5 50t-132.5 15.5h-101zM871 1049q79 -43 79 -104q0 -58 -72 -99 q22 45 22 94q0 64 -29 109zM1014 596q106 -60 106 -176q0 -87 -91 -148q41 63 41 148q0 100 -56 176z" />
<glyph unicode="c" horiz-adv-x="1160" d="M60 644q0 268 156 432t398 164q47 0 106.5 -14.5t100.5 -34.5l-8 -17q-97 36 -199 36q-224 0 -369 -156.5t-145 -409.5q0 -247 152 -400.5t388 -153.5q141 0 248.5 63t171.5 185l18 36l37 -17l-20 -38q-69 -131 -185.5 -200t-269.5 -69q-123 0 -230.5 43t-184.5 120 t-121 188.5t-44 242.5zM160 644q0 202 103 338q-58 -127 -58 -308q0 -242 93 -392q-138 138 -138 362zM265 674q0 229 93 352.5t256 123.5q121 0 210.5 -68.5t106.5 -206.5l5 -86l-19 -1l-6 81q-15 125 -99.5 193t-197.5 68q-71 0 -126.5 -29t-89 -74t-55.5 -107t-30 -122 t-8 -124q0 -72 9 -136.5t33.5 -129.5t62.5 -112t100.5 -76.5t143.5 -29.5q100 0 182 50t134 142l18 31l35 -15l-18 -36q-57 -102 -148.5 -157t-202.5 -55q-182 0 -285.5 135.5t-103.5 388.5zM888 1307l40 2l8 -177l4 -40l-18 14zM968 1311l20 1l46 -520l-40 -1z" />
<glyph unicode="d" horiz-adv-x="1300" d="M40 110v20h620q243 0 391.5 143t148.5 377t-148.5 377t-391.5 143h-620v20l610 10h14q256 0 416 -152.5t160 -397.5q0 -243 -157.5 -396.5t-408.5 -153.5h-24zM40 170v20l144 5q57 2 71.5 18.5t14.5 74.5l-10 722q-1 57 -12 69.5t-68 20.5l-140 10v20h140 q81 0 100.5 -19.5t19.5 -100.5v-720q0 -81 -19.5 -100.5t-100.5 -19.5h-140zM349 190q11 33 11 100v733q0 56 -11 87h9q1 -3 12 -15t20.5 -36t9.5 -59v-700q0 -30 -8 -51.5t-19 -37.5t-13 -21h-11zM420 190l17 25h213q38 0 73.5 7t77 23.5t75.5 49t63 78.5t45 117t16 160 q0 105 -24 186.5t-60 128t-84.5 76t-92 39.5t-89.5 10h-208l-22 20h230q185 0 282.5 -118t97.5 -342t-97.5 -342t-282.5 -118h-230zM460 300v700l20 -1l20 -699h-40zM1015 321q75 129 75 329t-75 329q125 -123 125 -329t-125 -329z" />
<glyph unicode="e" horiz-adv-x="1220" d="M40 110v20h981q26 0 37 4t23 16h1l-13 -191l-19 2l-2 129zM40 170v20l144 5q57 2 71.5 18.5t14.5 74.5l-10 722q-1 57 -12 69.5t-68 20.5l-140 10v20h140q81 0 100.5 -19.5t19.5 -100.5v-720q0 -81 -19.5 -100.5t-100.5 -19.5h-140zM40 1170v20l917 20l3 -40h-920z M357 226q3 22 3 64v720q0 38 -3 64q43 -39 43 -84v-680q0 -45 -43 -84zM410 190v4q50 50 50 116v253h20l10 -253q1 -22 -8 -54l-7 -26h385q37 0 57 0.5t45 3t37 6t27 11t21.5 17.5t13.5 26t10 35.5t5 46.5h20q-3 -44 -7.5 -71.5t-15.5 -50t-25.5 -34t-42.5 -19t-60 -9.5 t-85 -2h-450zM410 1110h330q58 0 92 -2t63 -13t41.5 -23t23 -44.5t13.5 -64t7 -93.5l2 -40h-20l-2 38q-3 50 -7 79.5t-15 54t-22.5 35.5t-39.5 19t-55.5 10t-80.5 4l-305 10zM460 610v20h118q29 0 46 -2.5t32 -11.5t22 -22t12 -40t6.5 -59.5t1.5 -84.5h40v540h20l20 -580 h-120v58q0 52 -1.5 78.5t-5 48t-14 29t-22.5 11t-37 5.5zM460 690v300h20l20 -270h78q40 1 58 8.5t30 40t12 100.5l20 -1q-1 -81 -11.5 -117.5t-33.5 -48.5t-75 -12h-118zM989 1343l19 2l55 -515h-41zM1109 -43l33 513h21l-13 -515z" />
<glyph unicode="f" horiz-adv-x="1160" d="M40 110v20h680v-40zM40 170v20l144 5q57 2 71.5 18.5t14.5 74.5l-10 722q-1 57 -12 69.5t-68 20.5l-140 10v20h140q81 0 100.5 -19.5t19.5 -100.5v-720q0 -81 -19.5 -100.5t-100.5 -19.5h-140zM40 1170v20l977 20l3 -40h-980zM349 190q11 44 11 100v720q0 38 -3 64 q43 -39 43 -84v-713q0 -43 11 -87h-62zM410 1110h390q43 0 71.5 -1t55 -6.5t41 -11t28 -21t20 -29.5t12 -43t7.5 -55.5t5 -72.5l2 -40h-20l-2 38q-2 37 -5 62t-9 47.5t-11.5 35.5t-19.5 24t-26.5 16t-38 9t-48 5.5t-62.5 2.5l-365 10zM460 290v293h20l10 -303 q2 -46 11 -62.5t39 -17.5l180 -10v-20h-180q-27 0 -44 7t-24.5 25t-9.5 36t-2 52zM460 630v20h158q29 0 46 -2.5t32 -11.5t22 -22t12 -40t6.5 -59.5t1.5 -84.5h40v540h20l20 -580h-120v58q0 43 -0.5 67.5t-4 46t-7.5 30t-14.5 16t-21.5 9t-32 3.5zM460 710v280h20l20 -250 h118q24 0 37 2.5t27 10t20.5 23.5t11 43.5t4.5 69.5l20 -1q-1 -41 -3 -68t-7.5 -48t-13 -32.5t-22 -18.5t-31.5 -9t-43 -2h-158zM1049 1343l19 2l55 -515h-41z" />
<glyph unicode="g" horiz-adv-x="1300" d="M60 644q0 268 156 432t398 164q47 0 106.5 -14.5t100.5 -34.5l-8 -17q-97 36 -199 36q-224 0 -369 -156.5t-145 -409.5q0 -247 152 -400.5t388 -153.5q195 0 311 131l24 -17q-133 -144 -335 -144q-166 0 -297.5 71t-207 205t-75.5 308zM160 644q0 202 103 338 q-58 -127 -58 -308q0 -242 93 -392q-138 138 -138 362zM265 674q0 229 93 352.5t256 123.5q121 0 210.5 -68.5t106.5 -206.5l5 -86l-19 -1l-6 81q-15 125 -99.5 193t-197.5 68q-71 0 -126.5 -29t-89 -74t-55.5 -107t-30 -122t-8 -124q0 -59 6.5 -115t21.5 -114t42 -105.5 t64 -85.5t92.5 -59.5t122.5 -21.5q81 0 150 35.5t116 99.5v162v9q-1 47 -9.5 56t-55.5 9h-17l-258 -14v40h240q81 0 100.5 -19.5t19.5 -100.5v-145q-109 -155 -286 -155q-182 0 -285.5 135.5t-103.5 388.5zM580 610v20l720 20v-40h-720zM888 1307l40 2l8 -177l5 -40l-19 14z M968 1311l20 1l46 -520l-40 -1zM989 550h62q-11 -22 -11 -100v-169l-40 17v165q0 43 -11 87zM1029 176l33 -21v-155h-20zM1100 0v450q0 29 1 46.5t6 32.5t12 22t22 12t32.5 6t46.5 1h80v-20l-83 -4q-58 -3 -75.5 -18.5t-17.5 -70.5v-7l8 -450h-32z" />
<glyph unicode="h" horiz-adv-x="1440" d="M40 110v20h655v-40zM40 170v20l144 5q57 2 71.5 18.5t14.5 74.5l-10 722q-1 57 -12 69.5t-68 20.5l-140 10v20h140q81 0 100.5 -19.5t19.5 -100.5v-720q0 -81 -19.5 -100.5t-100.5 -19.5h-140zM40 1170v20l656 20l-1 -40h-655zM349 190q11 44 11 100v743q0 43 -11 87h62 q-11 -44 -11 -100v-743q0 -43 11 -87h-62zM460 290v380h520v-40l-487 8l7 -348q1 -23 1.5 -33.5t3.5 -22.5t7 -16t14 -8.5t21.5 -6t32.5 -3.5l115 -10v-20h-115q-29 0 -46.5 1t-32.5 6t-22 12t-12 22t-6 32.5t-1 46.5zM460 730v40l484 -10l-4 250q0 15 -0.5 23t-1.5 18 t-3 15t-4 11t-7 8.5t-10 5.5t-13.5 4t-17.5 2.5t-23 2.5l-105 10v20h105q29 0 46.5 -1t32.5 -6t22 -12t12 -22t6 -32.5t1 -46.5v-280h-520zM460 834v176q0 29 1 46.5t6 32.5t12 22t22 12t32.5 6t46.5 1h115v-20l-119 -5q-38 -2 -55.5 -9t-24 -23.5t-6.5 -51.5v-9l3 -178h-33 zM755 110v20h645v-40zM755 170v20l109 5q54 3 70 17.5t16 61.5v14l-6 270h36v-268q0 -29 -1 -46.5t-6 -32.5t-12 -22t-22 -12t-32.5 -6t-46.5 -1h-105zM755 1170v20l645 20v-40h-645zM1029 190q11 22 11 100v743q0 43 -11 87h62q-11 -44 -11 -100v-743q0 -43 11 -87h-62z M1140 290v720q0 29 1 46.5t6 32.5t12 22t22 12t32.5 6t46.5 1h140v-20l-144 -5q-30 -1 -46 -4.5t-25.5 -15t-12 -27t-2.5 -46.5l10 -722l1.5 -33t4 -22t7 -15t14.5 -8.5t21 -6.5t32 -5l140 -10v-20h-140q-29 0 -46.5 1t-32.5 6t-22 12t-12 22t-6 32.5t-1 46.5z" />
<glyph unicode="i" horiz-adv-x="760" d="M40 110v20h680v-40zM40 170v20l144 5q55 2 70.5 17.5t15.5 66.5v9l-10 722q-1 57 -12 69.5t-68 20.5l-140 10v20h140q81 0 100.5 -19.5t19.5 -100.5v-720q0 -81 -19.5 -100.5t-100.5 -19.5h-140zM40 1170v20l680 20v-40h-680zM349 190q11 44 11 100v743q0 43 -11 87h62 q-11 -44 -11 -100v-743q0 -43 11 -87h-62zM460 290v720q0 29 1 46.5t6 32.5t12 22t22 12t32.5 6t46.5 1h140v-20l-144 -5q-38 -2 -55.5 -9t-24 -23.5t-6.5 -51.5v-9l10 -722l1.5 -33t4 -22t7 -15t14.5 -8.5t21 -6.5t32 -5l140 -10v-20h-140q-29 0 -46.5 1t-32.5 6t-22 12 t-12 22t-6 32.5t-1 46.5z" />
<glyph unicode="j" horiz-adv-x="900" d="M28 111l6 19l59 -18q70 -22 130 -22q170 0 273.5 104.5t103.5 275.5v520q0 83 25.5 111.5t104.5 28.5h130v-20l-134 -5q-55 -2 -75.5 -27t-20.5 -81v-5l5 -522q0 -185 -111.5 -292.5t-300.5 -107.5q-68 0 -142 24zM50 193l9 38l64 -20q96 -29 131 -29q58 0 97.5 33t54 76 t14.5 93v6l-15 665h35v-665q0 -110 -52 -175t-147 -65q-41 0 -132 26zM100 1090v40h362l-20 -29zM100 1170v20l760 20v-40h-760zM484 273q16 56 16 117v676q0 9 1 16l25 28h37q-23 -40 -23 -100v-540q0 -115 -56 -197z" />
<glyph unicode="k" horiz-adv-x="1340" d="M40 110v20h590v-40zM40 170v20l144 5q57 2 71.5 18.5t14.5 74.5l-10 722q-1 57 -12 69.5t-68 20.5l-140 10v20h140q81 0 100.5 -19.5t19.5 -100.5v-720q0 -81 -19.5 -100.5t-100.5 -19.5h-140zM40 1170v20l620 20v-40h-620zM337 190q23 40 23 100v733q0 43 -11 87h62 q-11 -44 -11 -100v-756q0 -11 -1 -19.5t-4 -15.5l-4.5 -10.5t-5.5 -10.5t-5 -8h-43zM440 170v4q12 12 16 23t4 37v276l104 132q21 -17 47.5 -48.5t46.5 -60.5t52.5 -77.5t52.5 -76.5l65 -92q79 -110 129 -153.5t113 -43.5q58 0 210 50l39 13l5 -41l-31 -10 q-105 -35 -223 -35q-33 0 -62 9.5t-51 24t-49.5 44t-47 55.5t-53.5 73l-65 92q-13 19 -72.5 108.5t-85.5 120.5l-15 19l-77 -117l3 -271v-4l-1 -21l136 -10v-20h-190zM459 652l338 448h-33v30h125v-4q-1 -1 -4 -2q-9 -4 -14.5 -7t-15 -11.5t-23 -23.5t-32.5 -40l-300 -382 q-27 -34 -40 -65zM460 738v272q0 29 1 46.5t6 32.5t12 22t22 12t32.5 6t46.5 1h80v-20l-89 -4q-57 -4 -71 -20.5t-15 -74.5l-4 -259zM620 716l219 278q34 43 67.5 71t69.5 42t68.5 18.5t77.5 4.5h92v-20h-92q-78 0 -140.5 -28t-125.5 -109l-212 -274zM664 625 q17 -9 33 -20.5t27.5 -20.5t27.5 -27t24 -26t26 -33t24 -33.5t28 -39.5l87 -124q0 -1 15.5 -23t19.5 -28t18.5 -25t23.5 -28.5t23 -23t27 -23.5q-41 1 -79 35t-112 137l-65 92q-14 19 -67.5 98.5t-80.5 112.5zM689 679l22 31q18 -10 35 -21.5t29 -20t28.5 -26.5t23.5 -25 t25 -31l22.5 -30t26 -37t25.5 -37l87 -124q5 -7 19.5 -28.5t23 -33t23.5 -31t26.5 -31t26 -23.5t29.5 -17.5t29 -5.5q1 0 3 0.5t6 1t8 0.5l105 16l2 -18l-103 -18q-16 -2 -23 -2q-15 0 -28 2.5t-26.5 10t-23 12t-23.5 19t-20 20t-20.5 25t-18.5 24.5t-20 28t-18 26l-87 124 q-33 47 -51.5 72t-46 56.5t-55 53t-61.5 38.5zM764 1170v20l451 20l-1 -40h-450z" />
<glyph unicode="l" horiz-adv-x="1160" d="M40 110v20h921q26 0 37 4t23 16h1l-13 -191l-19 2l-2 129zM40 170v20l144 5q57 2 71.5 18.5t14.5 74.5l-10 722q-1 57 -12 69.5t-68 20.5l-140 10v20h140q81 0 100.5 -19.5t19.5 -100.5v-720q0 -81 -19.5 -100.5t-100.5 -19.5h-140zM40 1170v20l700 20v-40h-700zM357 226 q3 22 3 64v720q0 38 -3 64q43 -39 43 -84v-680q0 -45 -43 -84zM410 190l31 40h359q37 0 57 0.5t45 3t37 6t27 11t21.5 17.5t13.5 26t10 35.5t5 46.5h20q-3 -44 -7.5 -71.5t-15.5 -50t-25.5 -34t-42.5 -19t-60 -9.5t-85 -2h-390zM460 290v720q0 81 19.5 100.5t100.5 19.5h160 v-20l-160 -10q-56 -4 -67 -17.5t-13 -72.5l-20 -722zM1049 -43l33 513h21l-13 -515z" />
<glyph unicode="m" horiz-adv-x="1700" d="M20 110v20h540v-40zM20 170v27l106 -4q5 0 14 -0.5t13 -0.5q49 0 66 20.5t26 91.5l74 740q2 20 2 26q0 23 -14 30.5t-59 7.5l-110 2v20h110q65 0 84.5 -9.5t19.5 -43.5q0 -19 -3 -47l-82 -720q-6 -51 -11.5 -75.5t-22 -41t-39 -20t-68.5 -3.5h-106zM138 1170v20l308 20 l397 -793l-14 -27l-407 780h-284zM323 239q0 18 3 42l57 523q3 27 3 66v26h15l-3 -143l-32 -476q-1 -8 -1 -22q0 -34 19 -45.5t82 -14.5l94 -5v-20h-94q-88 0 -115.5 12t-27.5 57zM409 1024q1 7 3 36l354 -678q20 -39 20 -74v-52l-297 574q-27 63 -28 71zM422 772l3 53 l369 -715h28l369 720q37 79 37 91h13q0 -21 -6 -43.5t-10 -33.5t-17.5 -37.5t-15.5 -30.5l-356 -696l-66 10zM846 308l38 103l401 787l297 12v-40h-280l-396 -764q-37 -72 -37 -99zM1080 110v20h600v-40zM1081 170v40l80 -4q14 -1 38 -1q45 0 63.5 10.5t18.5 39.5 q0 12 -1 18l-62 472l30 41l52 -509q2 -22 2 -31q0 -46 -28.5 -61t-112.5 -15h-80zM1282 1001l45 88q-3 -14 -3 -44q0 -31 3 -61l70 -680q10 -86 22 -114h-66q9 24 9 56q0 11 -2 37l-57 551q-6 83 -21 167zM1384 1045q0 54 24 69.5t98 15.5h76v-20l-76 -2q-59 -2 -79 -14 t-20 -53q0 -20 3 -47l85 -680q1 -8 3 -23q4 -35 7 -48.5t14 -27t29 -16.5t54 -5l78 -4v-20h-78q-41 0 -62 3t-38 9t-24.5 24.5t-12 39.5t-8.5 64l-70 680q-3 31 -3 55z" />
<glyph unicode="n" horiz-adv-x="1340" d="M40 110v20h560v-40zM40 170v20l124 5q57 2 71.5 18.5t14.5 74.5l-10 722q-1 57 -12 69.5t-68 20.5l-120 10v20h120q81 0 100.5 -19.5t19.5 -100.5v-720q0 -81 -19.5 -100.5t-100.5 -19.5h-120zM40 1170v20l391 16l482 -685l-14 -15l-485 664h-374zM340 290v726l30 -54 l10 -672q2 -59 13 -72.5t67 -17.5l140 -10v-20h-140q-81 0 -100.5 19.5t-19.5 100.5zM400 877l18 15l573 -782h39v-35l-58 5zM400 1087l500 -684q25 -35 31.5 -55t13.5 -74l-502 685q-30 45 -36.5 65.5t-6.5 62.5zM755 1110v20h125q81 0 100.5 -19.5t19.5 -100.5v-647 l-26 34l-14 613q-2 59 -13 72.5t-67 17.5zM755 1170v20l545 20v-40h-545zM1060 73v937q0 81 19.5 100.5t100.5 19.5h120v-20l-124 -5q-55 -2 -70.5 -17.5t-15.5 -66.5v-9l10 -942z" />
<glyph unicode="o" horiz-adv-x="1180" d="M60 650q0 119 44 241l14 -5q-38 -106 -38 -236q0 -252 137.5 -406t362.5 -154t362.5 154t137.5 406t-137.5 406t-362.5 154q-197 0 -327 -118l-11 10q141 128 338 128q244 0 392 -157t148 -423q0 -268 -149 -434t-391 -166q-239 0 -379.5 164.5t-140.5 435.5zM140 650 q0 180 77 305q-32 -98 -32 -225q0 -306 102 -471q-147 138 -147 391zM245 730q0 200 80 307l12 -10q-72 -96 -72 -297q0 -105 17 -197t53 -171t101 -125.5t152 -46.5q136 0 211.5 91.5t75.5 288.5q0 85 -8 160.5t-29 151.5t-54.5 130.5t-87.5 88.5t-124 34v15 q167 0 255 -148.5t88 -431.5q0 -205 -83.5 -312.5t-243.5 -107.5q-167 0 -255 148.5t-88 431.5zM873 1041q147 -138 147 -391q0 -180 -77 -305q32 98 32 225q0 306 -102 471z" />
<glyph unicode="p" horiz-adv-x="1280" d="M40 110v20h680v-40zM40 170v20l144 5q57 2 71.5 18.5t14.5 74.5l-10 722q-1 57 -12 69.5t-68 20.5l-140 10v20h140q81 0 100.5 -19.5t19.5 -100.5v-720q0 -81 -19.5 -100.5t-100.5 -19.5h-140zM40 1170v20l659 10h26q222 0 358.5 -102t136.5 -268q0 -165 -133.5 -268 t-350.5 -103q-24 0 -36 1l-240 10v20h240q216 0 348 93.5t132 246.5t-132 246.5t-348 93.5h-660zM349 190q11 44 11 100v720q0 38 -3 64q43 -39 43 -84v-713q0 -43 11 -87h-62zM420 1110h270q156 0 238 -72t82 -208.5t-82 -208t-238 -71.5h-230v440h20l10 -410h200 q146 0 218 68t72 182q0 127 -74.5 193.5t-215.5 66.5h-251zM460 290v133h20l10 -143q3 -47 12 -63t38 -17l180 -10v-20h-180q-27 0 -44 7t-24.5 25t-9.5 36t-2 52zM1020 637q50 79 50 193t-50 193q100 -75 100 -193t-100 -193z" />
<glyph unicode="q" horiz-adv-x="1180" d="M60 660q0 265 142.5 417.5t387.5 152.5q232 0 381 -152t149 -397q0 -76 -15 -143.5t-40 -119t-63.5 -97t-79 -79t-93 -63t-99.5 -49.5t-104 -40l-172 -57l-109 -44q11 15 29.5 27.5t48.5 25t53 20.5t68 23l69 23q72 25 131 53.5t124.5 77.5t109.5 107.5t73 145t29 189.5 q0 230 -138.5 379.5t-351.5 149.5q-230 0 -370 -151t-140 -399q0 -166 76 -292t202 -195l-27 -25q-126 75 -198.5 207t-72.5 305zM140 660q0 181 84 307q-39 -103 -39 -247q0 -221 34 -340q-79 121 -79 280zM184 -136q0 171 157 232l208 85q72 29 127 65t105 91t77 135.5 t27 182.5q0 217 -83.5 348t-219.5 131v16q157 0 247.5 -132.5t90.5 -362.5q0 -378 -358 -510q-18 -7 -52.5 -19t-52 -18.5t-47 -18.5t-45.5 -20t-39 -22t-35.5 -26t-27 -29.5t-22 -36t-12.5 -42t-5 -49.5q0 -135 109 -154l39 -6l-6 -40l-39 7q-1 0 -13 2.5t-15 3.5 q-115 37 -115 187zM245 720q0 216 83 325l13 -16q-76 -99 -76 -309q0 -158 21 -256.5t57 -149t100 -87.5l-27 -25q-93 59 -132 170t-39 348zM284 -159q0 72 69 72q27 0 79.5 -34.5t105 -76t124 -76t132.5 -34.5q95 0 152.5 82t57.5 216v80l40 -1l-4 -79q-8 -151 -73 -239.5 t-172 -88.5q-58 3 -113 24t-83.5 39t-81 58.5t-65.5 50.5q-2 1 -16 12.5t-21 16.5t-19.5 13.5t-23.5 12t-20 3.5q-22 0 -33 -16.5t-11 -34.5q0 -46 37 -52l39 -6l-2 -18l-40 5q-58 9 -58 71zM422 -21l59 23l23 -10q44 -18 107.5 -56.5t112 -63.5t82.5 -25h1q60 0 88 43.5 t28 100.5l1 81h20v-81q0 -80 -35 -122t-102 -42q-46 0 -111 29.5t-141.5 69t-132.5 53.5zM582 -156q36 -19 58.5 -29.5t54 -23t59 -18.5t53.5 -6q8 1 18 1t14 0.5t10 1.5t14 4q-31 -22 -69 -22q-90 5 -212 92zM900 1017q57 -63 88.5 -149.5t31.5 -186.5q0 -184 -99 -309 q59 121 59 283q0 217 -80 362z" />
<glyph unicode="r" horiz-adv-x="1360" d="M40 110v20h660v-40zM40 170v20l144 5q57 2 71.5 18.5t14.5 74.5l-10 722q-1 57 -12 69.5t-68 20.5l-140 10v20h140q81 0 100.5 -19.5t19.5 -100.5v-720q0 -81 -19.5 -100.5t-100.5 -19.5h-140zM40 1170v20l618 10q6 0 18 0.5t17 0.5q237 0 382 -97t145 -254 q0 -102 -81.5 -184t-201.5 -113l-106 7q149 14 249 95t100 195q0 144 -143 232t-377 88h-620zM349 190q11 44 11 100v720q0 42 -4 70l4 1l18 -17q22 -22 22 -74v-713q0 -43 11 -87h-62zM420 1110h260q156 0 238 -66.5t82 -193.5q0 -230 -322 -230h-218v370h20l20 -340h180 q290 0 290 200q0 75 -34.5 128.5t-104 82.5t-171.5 29h-221zM460 290v260h20l10 -270q2 -45 11.5 -61.5t38.5 -18.5l160 -10v-20h-160q-27 0 -44 7t-24.5 25t-9.5 36t-2 52zM519 550h102q37 0 66.5 -10t56 -34.5t48 -52t53.5 -76.5l57 -87q67 -104 109 -142t101 -38 q45 0 173 36q3 1 5 1.5t5 1t5 1.5l38 10l6 -39l-33 -10q-74 -21 -199 -21q-38 0 -67 9.5t-57 36t-50.5 57.5t-59.5 89l-56 87q-55 85 -98.5 118t-102.5 33h-101zM831 548l117 -15q24 -21 54.5 -59.5t46.5 -64.5l34 -54q6 -9 18.5 -30t21.5 -35t22.5 -33t25 -30.5t25 -20.5 t25.5 -9h12l98 21l3 -19q-8 -2 -26.5 -7t-29.5 -7.5t-27.5 -5t-30.5 -2.5q-37 0 -65 31.5t-93 129.5l-36 54q-38 57 -93 101.5t-102 54.5zM848 478q31 -16 66 -47t62 -72l36 -54q71 -107 97 -135q-36 1 -66.5 30.5t-90.5 122.5l-57 87q-14 21 -47 68zM1007 676q53 72 53 174 q0 103 -47 176q107 -71 107 -176q0 -50 -29.5 -95.5t-83.5 -78.5z" />
<glyph unicode="s" horiz-adv-x="1040" d="M56 559l20 1l27 -521l-40 -2zM100 942q0 127 113 202.5t287 75.5q35 0 88 -10.5t92 -26.5l-6 -19q-83 26 -174 26q-155 0 -257.5 -69t-102.5 -179q0 -58 28 -108.5t73.5 -87t103.5 -71t118.5 -61t118.5 -56.5t103.5 -57.5t73.5 -64t28 -76.5q0 -91 -77 -140.5t-210 -49.5 q-130 0 -243 89t-117 202l-4 80l41 1l-5 -100q4 -91 105.5 -166.5t222.5 -75.5q61 0 114 14t93 51.5t40 93.5v1q0 13 -4 25q-12 34 -54 67t-99.5 61t-124.5 58t-131 66.5t-116.5 78t-85 100t-32.5 126.5zM122 252l10 1q9 -27 45 -51l6 -169l-40 -2l-8 157q-1 33 -13 64z M200 942q0 29 10 52v-2q0 -61 37 -113.5t96 -91t130.5 -74t143 -69.5t130.5 -69.5t96 -83t37 -101.5q0 -62 -46 -111q13 35 13 81q-2 35 -9 57q-15 46 -59 87t-101 72.5t-123 61.5t-128.5 61.5t-113.5 65.5t-82 79.5t-31 97.5zM240 148l9 17q135 -55 251 -55 q191 0 315.5 77.5t124.5 202.5q0 64 -37 119t-96 95t-130.5 76t-143 69.5t-130.5 68t-96 79t-37 95.5q0 62 63 100t167 38q121 0 204 -67.5t91 -160.5l7 -82l-19 -2l-8 80q-7 78 -84 145t-189 67q-93 0 -142.5 -31.5t-49.5 -86.5q0 -43 37 -82t96 -71t130.5 -65t143 -71 t130.5 -80.5t96 -102.5t37 -130q0 -94 -63 -162.5t-170.5 -103t-246.5 -34.5q-119 0 -260 58zM754 1267l40 2l7 -131q1 -34 7 -65l-33 42zM834 1271l20 2l44 -458l-40 -2z" />
<glyph unicode="t" horiz-adv-x="1170" d="M19 790l62 514l19 -1l-39 -513h-42zM110 908q4 68 13 105t38.5 55.5t52 22.5t86.5 7q20 1 30 2l180 10v-860q0 -56 -11 -67t-69 -13h-200v20l205 10q29 2 34.5 7t5.5 33l5 835h-150q-43 0 -67.5 -1.5t-49 -7.5t-37 -16.5t-23 -30.5t-15.5 -46.5t-8 -67.5zM213 1170l2 20 l831 20l1 -40h-834zM230 110v20h720v-40zM559 190q11 44 11 100v820h40v-833q0 -43 11 -87h-62zM670 250v740h20l20 -750q0 -15 1 -21.5t6 -11.5t11 -5.5t22 -1.5l200 -10v-20h-200q-56 0 -67 11t-13 69zM670 1090v20h160q53 0 84 -2t60.5 -9.5t43.5 -19.5t26.5 -36 t17.5 -55t8 -80l4 -118h-39l-5 125q-3 40 -6 65t-14 43.5t-19.5 27.5t-34.5 15.5t-45 8t-65 4.5q-10 1 -16 1zM1081 1303l21 2l53 -515h-40z" />
<glyph unicode="u" horiz-adv-x="1360" d="M40 1110v20h120q81 0 100.5 -19.5t19.5 -100.5v-520q0 -180 113 -290t297 -110q176 0 283 110t107 290l4 520q1 81 20 100.5t100 19.5h116v-20l-122 -2q-57 -2 -73 -20t-16 -76l6 -522v-7q0 -193 -117 -303t-308 -110q-204 0 -327 113t-123 307v520q-2 59 -13 72.5 t-67 17.5zM40 1170v20l640 20l-1 -40h-639zM329 1110h62q-11 -44 -11 -100v-580q0 -84 23 -150q-63 86 -63 210v533q0 43 -11 87zM440 530v480q0 29 1 46.5t6 32.5t12 22t22 12t32.5 6t46.5 1h119v-20l-123 -5q-30 -1 -46 -4.5t-25.5 -15t-12 -27t-2.5 -46.5l3 -482h-33z M451 329l19 7q40 -166 220 -166q130 0 210 88t80 232l4 519v14q0 48 -13 60t-67 17l-124 10v20h124q28 0 45 -1t32 -5.5t22 -11.5t12.5 -20t7 -30t1.5 -43v-10l-4 -519q0 -101 -41 -178.5t-116 -119.5t-173 -42q-97 0 -157.5 45.5t-81.5 133.5zM780 1170v20l540 20v-40h-540 z" />
<glyph unicode="v" d="M20 1110v20h114q60 0 79 -18t52 -102l354 -900h90l354 900q33 84 52 102t79 18h106v-20l-106 -5q-45 -5 -60 -20.5t-44 -89.5l-364 -925l-110 10q-76 177 -211 509.5t-169 415.5q-28 69 -41 82t-56 17zM20 1170v20l530 20v-40h-530zM299 1083q4 -1 15.5 -5.5t14 -6 t10.5 -6.5t11.5 -10t8.5 -14t10 -22l264 -671q10 -29 15 -45v-76l-9 -4l-318 809q-4 9 -8 18.5t-8 18.5t-6 14zM354 1126v4h196v-20l-122 -4l20 -65l241 -602l-22 -14l-235 598q-19 50 -36.5 72t-41.5 31zM702 366l273 669q12 29 12 43q0 22 -43 22q-17 0 -27 -1l-177 -9v40 h164q63 0 88 -10.5t25 -38.5q0 -25 -18 -70l-252 -641q-22 -53 -22 -74q0 -5 1 -6v-3h-18zM740 1170v20l560 20v-40h-560z" />
<glyph unicode="w" horiz-adv-x="2000" d="M20 1110v20h114q60 0 79 -18t52 -102l354 -900h90l265 675l22 -30l-270 -685l-110 10q-76 177 -211 509.5t-169 415.5q-28 69 -41 82t-56 17zM20 1170v20l470 20v-40h-470zM299 1083q4 -1 15.5 -5.5t14 -6t10.5 -6.5t11.5 -10t8.5 -14t10 -22l264 -671q10 -29 15 -45v-76 l-9 -4l-318 809q-4 9 -8 18.5t-8 18.5t-6 14zM354 1126v4h136v-20l-62 -4l20 -65l241 -602l-22 -14l-235 598q-19 50 -36.5 72t-41.5 31zM702 366l237 582l-23 57q-28 69 -41 83t-56 16l-99 6v20h94q60 0 79 -18t52 -102l27 -68l-225 -572q-22 -53 -22 -74q0 -5 1 -6v-3h-18 zM720 1170v20l570 20v-40h-570zM979 1083q4 -1 15.5 -5.5t14 -6t10.5 -6.5t11.5 -10t8.5 -14t10 -22l264 -671q10 -29 15 -45v-76l-9 -4l-318 809q-4 9 -8 18.5t-8 18.5t-6 14zM991 827l11 29l297 -746h90l354 900q33 84 52 102t79 18h106v-20l-106 -5q-45 -5 -60 -20.5 t-44 -89.5l-364 -925l-110 10q-61 143 -170 413t-135 334zM1034 1126v4h256v-20l-182 -4l20 -65l241 -602l-22 -14l-235 598q-19 50 -36.5 72t-41.5 31zM1382 366l273 669q12 28 12 43q0 22 -43 22q-17 0 -27 -1l-157 -9v40h144q63 0 88 -10.5t25 -38.5q0 -25 -18 -70 l-252 -641q-22 -53 -22 -74q0 -5 1 -6v-3h-18zM1440 1170v20l540 20v-40h-540z" />
<glyph unicode="x" horiz-adv-x="1300" d="M30 110v20h535v-40zM30 170v25h113q51 1 74.5 22t93.5 125l223 330l-183 285q-58 89 -88 121t-59 32h-124v20h120q47 0 76 -27.5t95 -128.5l198 -302l-227 -346q-38 -58 -55.5 -82t-41.5 -44.5t-45 -25t-57 -4.5h-113zM80 1170v20l516 20v-40h-516zM359 211q0 30 50 107 l196 299l15 -23l-202 -308q-27 -45 -27 -64q0 -17 19 -22t68 -7l86 -3v-20h-84q-65 0 -93 8.5t-28 32.5zM371 1081l28 -11q12 -5 35.5 -25.5t46.5 -55.5l456 -696q65 -100 67 -103h-95q2 9 2 21q-6 58 -60 140q-37 55 -211 321.5t-269 408.5zM421 1126v4h175v-20l-98 -4 q28 -41 162 -245l-14 -14l-115 175q-25 39 -55.5 67t-54.5 37zM619 523l22 39l160 -244q50 -77 50 -107q0 -17 -14 -26t-39 -12t-68 -3h-84v40l95 -5q11 -1 30 -1q44 0 44 18q0 16 -36 69zM645 110v20h625v-40zM666 1091v40h104q65 0 93 -8.5t28 -32.5q0 -30 -50 -107 l-142 -217l-23 37l146 210q34 53 34 69q0 18 -40 18q-20 0 -32 -1zM666 1170v20l554 20l-1 -40h-553zM735 711l173 264l39 58.5t30.5 40.5t28.5 29.5t27.5 16.5t33 9.5t40.5 1.5h113v-20h-113q-18 0 -29 -1t-24.5 -9t-21 -14.5t-24.5 -28.5t-28 -38.5t-38 -57.5l-6 -9 l-153 -242l231 -363q14 -21 28 -43.5t22 -35.5t17 -27.5t15 -21.5t12.5 -14t12.5 -10t13 -4.5t16 -1.5h120v-20h-120q-11 0 -20 1t-16.5 2.5t-14.5 6t-12.5 7.5t-13 12t-12.5 15.5t-14.5 20.5t-16.5 24.5t-20 30.5t-23 36z" />
<glyph unicode="y" horiz-adv-x="1280" d="M20 1110v20h133q54 0 76 -21.5t58 -94.5q7 -13 10 -20l273 -543v-201q0 -56 -11 -67t-69 -13h-200v20l205 10q29 1 34 6.5t6 33.5l5 207l-269 539q-6 11 -15 29q-32 62 -44.5 74t-48.5 15zM20 1170v20l550 20l-1 -40h-549zM290 110v20h720v-40zM319 1083q4 -2 14 -5.5 t12.5 -4.5t9.5 -4.5t10 -7t8.5 -9t10 -13.5t11 -18.5t13.5 -25.5l263 -519v-43q0 -114 -1 -143v-13q0 -43 11 -87h-62q11 44 11 100v175q-24 47 -137 272.5t-174 345.5zM374 1126v4h194v-20l-120 -4q36 -79 110 -221.5t85 -164.5l-22 -14l-159 316q-25 49 -44.5 72t-43.5 32 zM675 599l215 416q22 43 22 61q0 12 -9.5 17t-29.5 5q-3 0 -9 -0.5t-10 -0.5l-156 -7v40h144q37 0 58 -3.5t33 -14t12 -29.5q0 -31 -31 -93l-183 -370q-23 -45 -30 -71zM698 1170v20l562 20l-1 -40h-561zM730 250v237l252 503q1 2 2 5q15 29 22 42t17.5 32t16.5 25.5t15 16 t18 12.5t20.5 5t26.5 2h140v-20l-140 -10q-29 -2 -42 -18t-48 -86q-8 -15 -12 -24l-248 -494v-238q0 -15 0.5 -21.5t6 -11t11.5 -5.5t22 -2l200 -10v-20h-200q-56 0 -67 11t-13 69z" />
<glyph unicode="z" horiz-adv-x="1240" d="M40 110v20h1001q26 0 37 4t23 16h1l-13 -191l-19 2l-2 129zM40 170v40h34q25 0 40 13.5t74 84.5q22 27 35 43l513 623l17 -12l-499 -636q-13 -17 -28 -36t-24 -30.5t-19.5 -25t-16.5 -21.5t-13.5 -16t-12 -12.5t-9.5 -8t-9 -5t-8 -1.5h-74zM70 790l51 514l19 -1l-28 -513 h-42zM161 894q5 68 14.5 105t35 64.5t69 37t117.5 9.5h470l-31 -40h-439q-124 -1 -166 -35.5t-50 -140.5h-20zM171 1151l7 148l40 -3l-4 -86l966 -20v-20h-950q-26 0 -36.5 -3.5t-22.5 -15.5zM232 200q111 142 318.5 406.5t250.5 318.5q17 22 42 54t33 42.5t22 27.5t22 24 t19.5 16.5t26.5 20.5l14 -11q-109 -143 -316.5 -406t-250.5 -318q-16 -21 -30 -39t-28.5 -34.5t-23 -26.5t-23.5 -25.5t-19.5 -20l-21 -21l-17.5 -17.5zM343 190l31 40h506q37 0 57 0.5t45 3t37 6t27 11t21.5 17.5t13.5 26t10 35.5t5 46.5h20q-3 -44 -7.5 -71.5t-15.5 -50 t-25.5 -34t-42.5 -19t-60 -9.5t-85 -2h-537zM461 338l499 636q13 17 28 36t24 30.5t19.5 25t16.5 21.5t13.5 16t12 12.5t9.5 8t9 5t8 1.5h80v-40h-40q-25 0 -40 -13.5t-74 -84.5q-22 -27 -35 -43l-513 -623zM1129 -43l33 513h21l-13 -515z" />
<glyph unicode="{" horiz-adv-x="620" d="M5 647l16 13q109 86 147 125.5t38 63.5q0 30 -40 173.5t-40 202.5q0 119 78 185.5t196 70.5l280 10v-31h-280q-111 0 -182.5 -65t-71.5 -170q0 -47 45 -190.5t45 -185.5q0 -32 -29 -61.5t-119 -100.5q-28 -22 -43 -34l-26 -19zM33 620l24 18q123 -98 147 -123 q32 -34 32 -65q0 -42 -45 -185t-45 -190q0 -105 71.5 -170t182.5 -65h280v-30l-280 8q-127 0 -205.5 68.5t-78.5 188.5q0 45 50 187.5t50 197.5q0 12 -23.5 33t-91.5 74q-42 33 -68 53zM127 647v6q16 14 72.5 52t123.5 89q27 20 36.5 28t20.5 24t11 32q0 32 -51 195.5 t-51 213.5q0 63 49.5 98t141.5 35h160v-18l-160 -5q-171 -6 -171 -110q0 -39 56 -202t56 -207q0 -51 -104 -116l-158 -102q127 -86 188 -132q23 -17 35 -29t23 -34t11 -50q0 -36 -53.5 -199.5t-53.5 -202.5q0 -43 44 -71.5t127 -32.5l160 -9v-20h-160q-92 0 -141.5 35 t-49.5 98q0 50 51 213t51 195q0 16 -10.5 32t-21.5 25t-36 28q-67 51 -123.5 89t-72.5 52zM208 75q0 27 44.5 168t45.5 204q27 -22 31 -29q-1 -9 -51.5 -173t-50.5 -232q0 -13 1 -23q-20 37 -20 85zM208 1225q0 49 20 85q-1 -5 -1 -23q0 -66 50.5 -229t51.5 -177 q-18 -18 -31 -28q-1 60 -45.5 202t-44.5 170z" />
<glyph unicode="|" horiz-adv-x="320" d="M104 1450l36 3v-1596l-30 3zM160 -120h20v1577l23 3l9 -1610l-52 5v25z" />
<glyph unicode="}" horiz-adv-x="620" d="M-60 -160h280q111 0 182.5 65t71.5 170q0 47 -45 190.5t-45 185.5q0 32 29 61.5t119 100.5q28 22 43 34l26 19l14 -13l-16 -13q-109 -86 -147 -125.5t-38 -63.5q0 -30 40 -173.5t40 -202.5q0 -119 -78 -185.5t-196 -70.5l-280 -10v31zM-60 1460v30l280 -8 q127 0 205.5 -68.5t78.5 -188.5q0 -45 -50 -187.5t-50 -197.5q0 -12 23.5 -33t91.5 -74q42 -33 68 -53l-24 -18q-123 98 -147 123q-32 34 -32 65q0 42 45 185t45 190q0 105 -71.5 170t-182.5 65h-280zM-20 -102l160 5q171 6 171 110q0 39 -56 202t-56 207q0 51 104 116 l158 102q-127 86 -188 132q-23 17 -35 29t-23 34t-11 50q0 36 53.5 199.5t53.5 202.5q0 43 -44 71.5t-127 32.5l-160 9v20h160q92 0 141.5 -35t49.5 -98q0 -50 -51 -213t-51 -195q0 -16 10.5 -32t21.5 -25t36 -28q67 -51 123.5 -89t72.5 -52v-6q-16 -14 -72.5 -52 t-123.5 -89q-27 -20 -36.5 -28t-20.5 -24t-11 -32q0 -32 51 -195.5t51 -213.5q0 -63 -49.5 -98t-141.5 -35h-160v18zM291 419q18 18 31 28q1 -60 45.5 -202t44.5 -170q0 -49 -20 -85q1 5 1 23q0 66 -50.5 229t-51.5 177zM291 882q1 9 51.5 173t50.5 232q0 13 -1 23 q20 -37 20 -85q0 -27 -44.5 -168t-45.5 -204q-27 22 -31 29z" />
<glyph unicode="~" horiz-adv-x="1070" d="M91 570l26 107q23 94 64.5 135t104.5 41q53 0 135.5 -33.5t152 -74t134 -74t85.5 -33.5q10 0 16.5 2.5t14.5 14.5t14 35l25 108l39 -10l-28 -106q-22 -82 -84 -82q-34 0 -104.5 35.5t-139 78.5t-143.5 78.5t-117 35.5q-105 0 -148 -156l-29 -107zM168 551l28 107 q19 72 75 72q32 0 101.5 -36t138 -79t144.5 -79t119 -36q113 0 158 168l28 107l19 -5l-26 -107q-27 -102 -70 -145t-108 -43q-54 0 -137.5 34.5t-153.5 75.5t-133.5 75.5t-82.5 34.5q-8 0 -13 -2t-11.5 -11.5t-11.5 -28.5l-25 -111zM224 760q27 28 62 28q32 0 100.5 -35.5 t136.5 -78.5t145 -78.5t122 -35.5q30 0 54 13q-29 -33 -70 -33q-33 0 -102.5 36t-137 79t-143 79t-120.5 36q-27 0 -47 -10z" />
<glyph unicode="&#xa0;" horiz-adv-x="600" d="M-20 -120h640v-40h-640v40zM-20 1420v40h640v-40h-640z" />
<glyph unicode="&#xa1;" horiz-adv-x="520" d="M140 1090q0 63 33 101.5t87 38.5q63 0 101.5 -38.5t38.5 -101.5q0 -54 -38.5 -87t-101.5 -33q-54 0 -87 33t-33 87zM156 104q0 190 28 356t28 354v20l46 4v-28h-28q0 -190 -25 -355t-25 -355q0 -18 19 -24t61 -6q37 0 58.5 9t21.5 21q0 190 -25 355t-25 355v28l35 2v-30 q0 -188 25 -352t25 -356q0 -32 -28.5 -44.5t-83.5 -13.5h-5q-56 0 -78.5 15t-23.5 45zM160 1090q0 -45 26.5 -72.5t73.5 -27.5q45 0 72.5 26.5t27.5 73.5q0 45 -26.5 72.5t-73.5 27.5q-45 0 -72.5 -26.5t-27.5 -73.5zM210 1090q0 18 14 29t36 11q40 0 40 -40 q0 -22 -10.5 -36t-29.5 -14q-22 0 -36 14t-14 36zM240 140q2 160 20 285q18 -125 20 -285h-40z" />
<glyph unicode="&#xa2;" horiz-adv-x="1140" d="M40 644q0 258 147 403.5t385 152.5l-2 160h40v-190h-16q-229 0 -371.5 -139t-142.5 -387q0 -240 146.5 -375.5t383.5 -138.5v-220h-20l-3 191q-245 10 -396 151.5t-151 391.5zM140 644q0 182 103 318q-58 -127 -58 -288q0 -222 93 -372q-138 138 -138 342zM245 674 q0 408 309 434l1 -20q-77 -8 -133 -44.5t-87 -94.5t-45.5 -126t-14.5 -149q0 -68 9.5 -128t34 -117.5t61.5 -99.5t96 -69t134 -30v-40q-175 7 -270 125.5t-95 358.5zM573 1110h37v-864l-25 2zM647 131q132 6 232 68.5t161 178.5l18 36l22 -11l-20 -38q-133 -251 -410 -264z M650 71l38 2l2 -163h-40v161zM650 189v917q103 -15 174.5 -82.5t86.5 -188.5l3 -66l-19 -1l-4 61q-12 102 -72 166.5t-146 85.5l13 -890zM650 1211v149h20l2 -152zM651 1167v28q81 -12 150 -44l-8 -17q-68 25 -142 33zM700 236q163 30 250 186l18 31l35 -15l-18 -36 q-48 -86 -120.5 -138.5t-162.5 -67.5zM868 1267l40 2l8 -177l5 -40l-19 14zM948 1271l20 1l44 -500l-40 -1z" />
<glyph unicode="&#xa3;" horiz-adv-x="1280" d="M107 237q0 74 60 122.5t170 48.5h30q4 32 6 241v24l-158 -4l-6 58l31 1v-29h160v-39q-2 -168 -19 -276q-29 4 -64 4q-90 0 -135 -44t-45 -107q0 -64 39 -105.5t97 -41.5q52 0 104.5 38t93.5 116l14 -9q-107 -180 -212 -180q-74 0 -120 50.5t-46 131.5zM198 237 q0 41 23.5 72t66.5 31q33 0 81 -16q-18 -79 -47 -121.5t-60 -42.5q-24 0 -44 18.5t-20 58.5zM202 793l170 -9v59q0 95 22 166t57 114t87 69t105 35.5t117 9.5q170 0 277 -84v-32q-96 89 -277 89q-360 0 -360 -367v-84h-194zM228 237q0 -21 10.5 -32t23.5 -11q24 0 46 38.5 t32 70.5q-37 8 -52 8q-26 0 -42 -23.5t-18 -50.5zM431 317l9 57q19 117 20 286v183q0 150 64 224q-24 -72 -24 -197v-245q0 -120 -41 -251l-13 -42l-6 -18zM479 259l7 16q32 -16 116 -59t129.5 -65t109 -43t106.5 -21q136 0 175 165l28 117l38 -10l-37 -116q-15 -49 -37 -84 t-41.5 -52t-44.5 -27t-39.5 -11.5t-33.5 -1.5h-8q-34 0 -73.5 9.5t-90 31.5t-84.5 38.5t-98 50t-90 46.5zM516 356q22 73 33 147.5t11 121.5q0 33 -7.5 47t-22.5 23v4h330v-26l-275 -4l1 -31v-13q0 -18 -2 -47t-5.5 -63t-9.5 -72t-13 -69q318 -106 411 -106h2q36 0 62 23 t34 58l10 40l19 -5l-10 -39q-28 -117 -116 -117q-39 0 -110 20.5t-174 55.5t-168 52zM560 759v29l300 -9v-20h-300zM560 810v60q0 158 42 219t158 61q211 -1 247 -179v-57h-22v55q-6 27 -20 51.5t-39.5 47.5t-68 37.5t-97.5 14.5h-2q-63 0 -99 -21.5t-55.5 -76t-21.5 -152.5 l-1 -60h-21zM685 240q77 -25 113 -36.5t87.5 -23.5t82.5 -12q41 5 53 8q-29 -29 -74 -29q-78 0 -262 93zM1057 914v223l19 -18l12 -205h-31z" />
<glyph unicode="&#xa4;" horiz-adv-x="920" d="M93 926l106 72l96 -96q93 50 162 50q107 0 173 -44l99 109l27 -29l-124 -124q-76 62 -175 62q-94 0 -167 -56l-93 93l-45 -39l95 -95q-66 -77 -66 -179q0 -99 62 -175l-113 -112l-16 18l89 98q-52 84 -52 171q0 108 46 180zM169 318l117 115q74 -59 171 -59q102 0 179 66 l84 -84l45 39l-88 88q56 73 56 167q0 97 -59 171l121 121l12 -13l-97 -112q24 -39 38.5 -84.5t14.5 -82.5q0 -80 -44 -162l77 -95l-78 -82l-85 101q-90 -58 -176 -58q-99 0 -167 42l-94 -108zM241 650q0 89 63.5 152.5t152.5 63.5t152.5 -63.5t63.5 -152.5t-63.5 -152.5 t-152.5 -63.5t-152.5 63.5t-63.5 152.5zM261 650q0 -79 57.5 -135.5t138.5 -56.5h1q74 0 126.5 56t52.5 136q0 77 -53 131.5t-127 54.5h-1q-81 0 -138 -54.5t-57 -131.5z" />
<glyph unicode="&#xa5;" horiz-adv-x="1280" d="M20 1110v20h133q54 0 76 -21.5t58 -94.5q7 -13 10 -20l273 -543v-201q0 -56 -11 -67t-69 -13h-200v20l205 10q29 1 34 6.5t6 33.5l5 207l-269 539q-6 11 -15 29q-32 62 -44.5 74t-48.5 15zM20 1170v20l550 20l-1 -40h-549zM146 446v40l351 -7l17 -33h-368zM150 370v20 h366l-1 -28zM290 110v20h720v-40zM319 1083q4 -2 14 -5.5t12.5 -4.5t9.5 -4.5t10 -7t8.5 -9t10 -13.5t11 -18.5t13.5 -25.5l263 -519v-43q0 -114 -1 -143v-13q0 -43 11 -87h-62q11 44 11 100v175q-24 47 -137 272.5t-174 345.5zM374 1126v4h194v-20l-120 -4 q36 -79 110 -221.5t85 -164.5l-22 -14l-159 316q-25 49 -44.5 72t-43.5 32zM675 599l215 416q22 43 22 61q0 12 -9.5 17t-29.5 5q-3 0 -9 -0.5t-10 -0.5l-156 -7v40h144q37 0 58 -3.5t33 -14t12 -29.5q0 -31 -31 -93l-183 -370q-23 -45 -30 -71zM698 1170v20l562 20l-1 -40 h-561zM730 250v237l252 503q1 2 2 5q15 29 22 42t17.5 32t16.5 25.5t15 16t18 12.5t20.5 5t26.5 2h140v-20l-140 -10q-29 -2 -42 -18t-48 -86q-8 -15 -12 -24l-248 -494v-238q0 -15 0.5 -21.5t6 -11t11.5 -5.5t22 -2l200 -10v-20h-200q-56 0 -67 11t-13 69zM787 390h333v-40 l-331 7zM787 446v27l329 -7v-20h-329z" />
<glyph unicode="&#xa6;" horiz-adv-x="320" d="M104 430l36 3v-576l-30 3zM104 1460l36 3v-576l-30 3zM160 -120h20v557l23 3l9 -590l-52 5v25zM160 885v25h20v557l23 3l9 -590z" />
<glyph unicode="&#xa7;" horiz-adv-x="1200" d="M85 690q0 82 43.5 139t129.5 107l12 -12q-81 -46 -120.5 -101t-39.5 -133q0 -64 39 -116.5t102 -88t138.5 -66t151 -59t138.5 -58.5t102 -71.5t39 -92.5q0 -62 -59 -95t-171 -33q-120 0 -201.5 66.5t-95.5 159.5l-3 59h23l2 -56q13 -84 86 -145t184 -61q205 0 205 105 q0 45 -39 83t-101 66t-137 56t-150.5 60t-137.5 69.5t-101 93.5t-39 124zM170 690q0 73 47 121q-14 -38 -14 -91q0 -51 35 -101q33 -44 100 -81.5t135.5 -61t158 -59.5t149.5 -72q46 -26 77.5 -67t31.5 -90q0 -23 -10 -50q0 62 -39 113t-102 86t-138.5 65.5t-151 59 t-138.5 59t-102 73.5t-39 96zM215 1112q0 78 48 138t135.5 92.5t201.5 32.5q68 0 136 -15.5t117 -42.5l23 -12l-1 100h25l1 -107q0 -25 7 -65l-6 -2q-10 29 -35 48q-43 32 -115 51.5t-152 19.5q-162 0 -261 -65.5t-99 -172.5q0 -93 77 -163l-23 -12l-30 32q-49 63 -49 143z M225 -105l10 420h15v-420h-25zM263 720q0 42 13 75.5t37.5 59.5t63.5 49q45 -28 109.5 -56.5t122.5 -48t117.5 -44.5t102.5 -48t70.5 -56t27.5 -71q0 -62 -28 -105.5t-86 -78.5q-52 33 -132.5 66t-148.5 57.5t-131.5 53t-100.5 65.5t-37 82zM282 67l6 2q8 -28 35 -48 q43 -32 115 -51.5t152 -19.5q162 0 261 65.5t99 172.5q0 93 -77 163l16 8l32 -31q50 -65 50 -140q0 -119 -104 -191t-277 -72q-69 0 -137 15.5t-116 42.5l-33 18l-1 -106h-13l-1 107q0 25 -7 65zM295 724q0 -38 34.5 -70t95 -58t125.5 -49t142 -54.5t128 -63.5 q46 35 67.5 68.5t21.5 86.5q0 38 -34.5 70t-95 58t-125.5 49t-142 54.5t-128 63.5q-46 -35 -67.5 -68.5t-21.5 -86.5zM300 1112q0 23 10 50q0 -62 39 -113t102 -86t138.5 -65.5t151 -59t138.5 -59t102 -73.5t39 -96q0 -73 -47 -121q14 38 14 91q0 51 -35 101 q-33 44 -100 81.5t-135.5 61t-158 59.5t-149.5 72q-46 26 -77.5 67t-31.5 90zM370 1162q0 62 59 95t171 33q120 0 201.5 -66.5t95.5 -159.5l3 -59h-18l-5 56q-13 84 -86.5 144t-185.5 60q-200 0 -200 -103q0 -45 38.5 -83t100.5 -66t136.5 -56t149 -60t136.5 -69.5 t100.5 -93.5t38.5 -124q0 -85 -43 -145t-127 -109l-18 18q82 47 122.5 102t40.5 134q0 64 -39 116.5t-102 88t-138.5 66t-151 59t-138.5 58.5t-102 71.5t-39 92.5zM940 985v420h15l10 -420h-25z" />
<glyph unicode="&#xa8;" horiz-adv-x="920" d="M120 1498h40q0 -45 27.5 -72.5t72.5 -27.5q47 0 73.5 27.5t26.5 72.5q0 47 -27.5 73.5t-72.5 26.5q-70 0 -93 -59l-17 7q27 73 110 73q56 0 90.5 -33t34.5 -88q0 -58 -34.5 -94t-90.5 -36q-63 0 -101.5 36t-38.5 94zM520 1498h40q0 -45 27.5 -72.5t72.5 -27.5 q47 0 73.5 27.5t26.5 72.5q0 47 -27.5 73.5t-72.5 26.5q-70 0 -93 -59l-17 7q27 73 110 73q56 0 90.5 -33t34.5 -88q0 -58 -34.5 -94t-90.5 -36q-63 0 -101.5 36t-38.5 94z" />
<glyph unicode="&#xa9;" horiz-adv-x="1250" d="M75 650q0 155 76.5 273t205 179.5t288.5 61.5q146 0 269.5 -66t197 -185t73.5 -263q0 -149 -76.5 -265.5t-203.5 -177.5t-280 -61t-277.5 61t-198.5 177t-74 266zM105 650q0 -136 72 -248t191 -174t257 -62t257 62t191 174t72 248t-72 248t-191 174t-257 62t-257 -62 t-191 -174t-72 -248zM140 650q0 128 67.5 232t178 160.5t239.5 56.5t239.5 -56.5t178 -160.5t67.5 -232t-67.5 -232t-178 -160.5t-239.5 -56.5t-239.5 56.5t-178 160.5t-67.5 232zM170 650q0 -119 63 -217.5t167.5 -153t224.5 -54.5q90 0 174.5 32.5t148.5 88t103 135.5 t39 169q0 119 -65.5 218.5t-172.5 155t-227 55.5q-184 0 -319.5 -124.5t-135.5 -304.5zM359 642q0 136 75.5 217.5t196.5 81.5q58 0 106 -24l-6 -12l-1 1q-48 17 -99 17q-112 0 -183.5 -78t-71.5 -203q0 -123 75.5 -199t192.5 -76q146 0 218 143l24 -10l-11 -21 q-72 -136 -231 -136q-126 0 -205.5 83t-79.5 216zM402 642q0 99 63 185q-37 -79 -37 -170q0 -116 56 -209q-82 76 -82 194zM454 657q0 115 47.5 177.5t129.5 62.5q62 0 107 -35t53 -104l3 -45l-13 -1l-3 43q-4 32 -18 57t-34.5 40t-44.5 23t-50 8q-44 0 -75.5 -21t-47.5 -56 t-23 -71.5t-7 -77.5q0 -46 8 -87t26.5 -79.5t54 -61t84.5 -22.5q101 0 168 121l19 -8q-67 -127 -187 -127q-92 0 -144.5 69t-52.5 195zM766 976l24 1l4 -90l3 -25l-14 11zM806 978l16 1l23 -264l-26 -1z" />
<glyph unicode="&#xaa;" horiz-adv-x="940" d="M20 410v20h384v-32zM20 454v20l76 2q25 0 38.5 13.5t31.5 55.5l271 641l88 9v-27h-74l-261 -629q-25 -59 -38.5 -72t-55.5 -13h-76zM219 490q0 17 14 50l35 86h329l11 -30l-325 12l-28 -87q-5 -15 -5 -20q0 -26 51 -26l103 -3v-18h-103q-28 0 -42.5 1.5t-27 10 t-12.5 24.5zM284 664l106 254l16 -5l-88 -231l229 4l-122 318l10 58h16v-5q-2 -4 1.5 -26.5t10.5 -41.5l120 -325h-299zM490 1046l1 1v57l12 3q4 -13 9 -35t6 -26l193 -520q4 -11 9.5 -24t7.5 -17q-5 3 -16.5 7.5t-16 7t-10.5 11t-11 21.5q-35 93 -101 272.5t-73 198.5 t-10 43zM519 412v18h399v-32zM519 454v18l119 4q-9 21 -24.5 61.5t-17.5 46.5l16 1l24 -66q17 -42 50 -59v-6h-167zM540 1147q0 4 0.5 9t0.5 6v31h22v-2q-3 -30 -3 -51q0 -36 14 -70l204 -521q19 -49 29.5 -61t36.5 -13l76 -3v-18h-78q-42 0 -55.5 13.5t-37.5 71.5l-193 520 q-16 44 -16 88z" />
<glyph unicode="&#xab;" horiz-adv-x="1039" d="M40 665l419 388l15 -14l-396 -386v-6l418 -403l79 81l-266 213q-41 33 -128 85l37 1q61 -40 126 -89t142.5 -110t120.5 -94l-108 -131l-451 428zM134 645v10q25 5 74 35t101 72l266 213l-79 81l-17 14l20 17l120 -118l-288 -240l-116 -79zM423 668l456 432l108 -131 l-296 -230l-93 -63l-39 1q95 57 130 85l266 213l-79 81l-418 -403v-6l396 -386l-15 -14l-411 388zM514 645v10l81 -5l116 -79l288 -240l-120 -118l-20 17q15 13 31.5 29t35 35.5t29.5 30.5l-266 213q-52 42 -101 72t-74 35z" />
<glyph unicode="&#xac;" horiz-adv-x="960" d="M67 670l10 122l803 -12l-10 -497h-120l-10 377zM100 700h680v-390l60 -4v454h-736z" />
<glyph unicode="&#xad;" horiz-adv-x="720" d="M54 580l10 62l23 -1l-7 -41h591l-7 -40zM68 660l4 20l605 20l-2 -76l-41 1l6 35h-572z" />
<glyph unicode="&#xae;" horiz-adv-x="1240" d="M65 650q0 155 76.5 273t205 179.5t288.5 61.5q146 0 269.5 -66t197 -185t73.5 -263q0 -149 -76.5 -265.5t-203.5 -177.5t-280 -61t-277.5 61t-198.5 177t-74 266zM95 650q0 -136 72 -248t191 -174t257 -62t257 62t191 174t72 248t-72 248t-191 174t-257 62t-257 -62 t-191 -174t-72 -248zM130 650q0 128 67.5 232t178 160.5t239.5 56.5t239.5 -56.5t178 -160.5t67.5 -232t-67.5 -232t-178 -160.5t-239.5 -56.5t-239.5 56.5t-178 160.5t-67.5 232zM160 650q0 -119 63 -217.5t167.5 -153t224.5 -54.5q90 0 174.5 32.5t148.5 88t103 135.5 t39 169q0 119 -65.5 218.5t-172.5 155t-227 55.5q-184 0 -319.5 -124.5t-135.5 -304.5zM334 395v15h294v-26zM334 426v14l54 3q29 1 35 8t6 35l-5 361q-1 29 -6 34.5t-32 8.5l-52 5v15h52q42 0 52 -10.5t10 -51.5v-360q0 -42 -10.5 -52t-51.5 -10h-52zM334 926v15l271 6h10 q123 0 198.5 -49.5t75.5 -129.5q0 -52 -42 -93.5t-102 -57.5h-1l-77 6l24 2q75 7 124 47.5t49 95.5q0 71 -71 114.5t-187 43.5h-272zM468 436q3 6 3 9q3 10 3 43v359q0 23 -2 35v2l5 1q21 -21 21 -47v-350q0 -32 3 -43q1 -2 1 -5l1 -2l1 -2h-36zM501 899h115 q79 0 120.5 -33.5t41.5 -97.5q0 -118 -163 -118h-91v190h14l10 -170h68q142 0 142 98q0 116 -152 116h-91zM524 487v133h14l5 -137q1 -23 5.5 -30.5t17.5 -8.5l62 -4v-14h-62q-27 0 -34.5 14t-7.5 47zM553 620h33q36 0 59 -20t55 -68l29 -43q33 -52 53.5 -70.5t49.5 -18.5 q23 0 115 25l3 -24q-61 -17 -118 -17q-37 0 -60.5 21.5t-59.5 77.5l-29 43q-28 43 -48.5 58.5t-48.5 15.5h-32zM691 615q11 -1 61 -6q30 -30 50 -61l17 -27q2 -4 8 -13t9.5 -14.5t9.5 -14t10.5 -13.5t10 -10.5t10.5 -8t10 -2.5h5l51 11l2 -16q-6 -1 -18 -4t-22 -5t-19 -2 q-19 0 -34.5 16.5t-46.5 64.5l-18 27q-13 19 -29.5 35.5t-34 28t-32.5 14.5zM693 587q46 -23 73 -64l18 -27q18 -27 51 -71q-25 5 -40 17.5t-45 60.5q-27 42 -57 84zM772 673q32 48 32 95q0 49 -28 94q62 -39 62 -94q0 -28 -17 -49.5t-49 -45.5z" />
<glyph unicode="&#xaf;" horiz-adv-x="700" d="M40 1310v40h616v-20zM44 1410v20l616 20v-40h-616z" />
<glyph unicode="&#xb0;" horiz-adv-x="540" d="M52 1070q0 99 60.5 159.5t160.5 60.5q97 0 156 -60.5t59 -159.5q0 -96 -59 -155t-156 -59q-100 0 -160.5 59t-60.5 155zM73 1070q0 -90 55 -145t145 -55t145 55t55 145t-55 145t-145 55t-145 -55t-55 -145zM173 1070q0 160 100 160t100 -160t-100 -160t-100 160z M190 1070q0 -140 83 -140q75 0 75 140q0 145 -75 145q-83 0 -83 -145z" />
<glyph unicode="&#xb1;" horiz-adv-x="1040" d="M94 810l10 62l23 -1l-7 -41h324l-1 -28zM108 890l4 20l362 8l5 370l125 5l-5 -371l358 8l-2 -76l-41 1l6 35h-356v366l-60 4v-370h-396zM214 170l10 62l23 -1l-7 -41h631l-7 -40zM228 250l4 20l645 20l-2 -76l-41 1l6 35h-612zM469 448l5 381l30 1v-350l22 -1v-36z M564 443v387h387l-7 -40l-350 7l-10 -359z" />
<glyph unicode="&#xb4;" horiz-adv-x="560" d="M111 1343l8 11q3 -2 44 -37l240 188l29 34q8 10 8 19q0 13 -12 22l-35 30q-10 8 -20 8q-13 0 -22 -11l-209 -250l-11 10l189 256q21 25 53 25q21 0 46 -17l36 -25q26 -21 26 -44q0 -19 -24 -49l-34 -37l-261 -191z" />
<glyph unicode="&#xb6;" d="M100 968q0 155 86.5 242t245.5 90l838 16l3 -36h-841q-140 0 -226 -86t-86 -226t86 -226t226 -86h48v-33h-49q-151 4 -241 96.5t-90 248.5zM180 968q0 113 69.5 182.5t182.5 69.5h48v-425h-19l-11 396h-21q-103 0 -166 -61.5t-63 -161.5q0 -104 67 -170t174 -66h39v-16 h-48q-113 0 -182.5 69.5t-69.5 182.5zM240 0h400v1080q0 94 19.5 117t100.5 23t100.5 -23t19.5 -117v-69h-21l1 69v8q0 67 -19.5 89.5t-80.5 22.5q-56 0 -72.5 -23t-17.5 -97l-7 -1117l-423 17v20zM240 40v20l80 1q85 1 111.5 20.5t26.5 87.5v10l-7 404h29v-403 q0 -51 -4 -75.5t-22.5 -41t-47 -20t-86.5 -3.5h-80zM524 60q16 37 16 120v1040h62q-14 -23 -18 -48.5t-4 -91.5v-1020h-56zM850 -21l7 781h23v-760h400v-34zM918 1220h78q-16 -37 -16 -120v-920q1 -87 16 -120h-56v1020q-1 75 -4 95t-18 45zM1040 180v920q0 51 4 75.5 t22.5 41t47 20t86.5 3.5h77l3 -20l-80 -2q-48 -2 -72 -6t-38 -19t-17 -34t-3 -61l-10 -921q1 -68 21.5 -88.5t95.5 -20.5h23l80 2v-30h-80q-58 0 -86.5 3.5t-47 20t-22.5 41t-4 75.5z" />
<glyph unicode="&#xb7;" horiz-adv-x="440" d="M100 630q0 54 33 87t87 33q63 0 101.5 -33t38.5 -87q0 -63 -38.5 -101.5t-101.5 -38.5q-54 0 -87 38.5t-33 101.5zM120 630q0 -47 27.5 -73.5t72.5 -26.5q47 0 73.5 27.5t26.5 72.5q0 47 -27.5 73.5t-72.5 26.5q-47 0 -73.5 -27.5t-26.5 -72.5zM170 630q0 22 14 36t36 14 q19 0 29.5 -14t10.5 -36q0 -40 -40 -40q-22 0 -36 11t-14 29z" />
<glyph unicode="&#xb8;" horiz-adv-x="1100" d="M355 -480l8 30h41q150 0 254 61.5t104 154.5q0 71 -53 121t-143 50q-43 0 -76 -14l26 116l19 -5l-12 -78q40 4 43 4q107 0 164 -53.5t57 -140.5q0 -79 -55 -136t-140 -83.5t-188 -26.5h-49zM371 -410l4 20h43q86 0 147 55.5t61 122.5q0 34 -19 55.5t-39 21.5 q-48 0 -92 -29l-64 6l25 215l40 -9l-37 -172l28 -4q37 23 100 23q39 0 61.5 -30t22.5 -77q0 -85 -70 -141.5t-170 -56.5h-41zM640 -352q52 63 52 140q0 42 -14 73q44 -38 44 -95q0 -68 -82 -118z" />
<glyph unicode="&#xba;" horiz-adv-x="846" d="M48 798q0 107 32 171l13 -5v-2q-27 -75 -27 -164q0 -176 97 -284t253 -108q157 0 253.5 108.5t96.5 283.5q0 176 -97 284t-253 108q-133 0 -227 -84l-2 -1l-11 10l2 1q102 92 238 92q172 0 277 -111.5t105 -298.5q0 -189 -106 -306.5t-276 -117.5q-169 0 -268.5 117 t-99.5 307zM106 798q0 131 63 229q-27 -86 -27 -173q0 -215 78 -342l-11 11q-103 95 -103 275zM182 854q0 144 54 216l1 2l12 -10l-1 -1q-48 -64 -48 -207q0 -74 11.5 -137.5t36.5 -118.5t69.5 -86.5t104.5 -31.5q196 0 196 262q0 77 -9.5 141.5t-31.5 123.5t-64.5 92.5 t-102.5 33.5h-2v14h2q119 0 179.5 -103.5t60.5 -301.5q0 -145 -58 -219.5t-170 -74.5q-119 0 -179.5 104t-60.5 302zM612 1084l11 -11q103 -95 103 -275q0 -131 -63 -229q27 86 27 173q0 215 -78 342z" />
<glyph unicode="&#xbb;" horiz-adv-x="1039" d="M40 331l288 240l116 79l81 5v-10q-56 -12 -175 -107l-266 -213l79 -81l17 -14l-20 -17zM52 969l108 131l456 -432l-5 -33l-411 -388l-15 14l396 386v6l-418 403l-79 -81l266 -213q35 -28 130 -85l-39 -1q-61 40 -126 89t-142.5 110t-120.5 94zM420 969l120 118l20 -17 q-21 -17 -55.5 -53t-40.5 -42l266 -213q52 -42 101 -72t74 -35v-10l-81 5l-116 79zM432 331l296 230l93 63l37 -1q-87 -52 -128 -85l-266 -213l79 -81l418 403v6l-396 386l15 14l419 -388l-8 -37l-451 -428z" />
<glyph unicode="&#xbf;" horiz-adv-x="920" d="M80 369q6 68 40.5 122.5t82 89t95.5 60t90 49.5t55 44q3 5 7 14v102h40v-100q0 -31 -38 -62t-92.5 -60.5t-109 -63.5t-92.5 -84.5t-38 -109.5q0 -126 106 -203t279 -77q82 0 152 19.5t100 61.5l5 -2q-2 -8 -2 -34v-54h-36l6 25l-37 -18q-67 -33 -188 -33 q-190 0 -307.5 85.5t-117.5 228.5zM180 370q6 83 118 154q-68 -73 -68 -154q0 -92 36 -158q-86 59 -86 158zM290 370q0 42 27 81t65 70.5t76 64t65 75t27 89.5v100h40v-100q0 -53 -27 -100.5t-65 -81.5t-76 -65t-65 -65t-27 -68q0 -180 174 -180h1q104 1 158 41.5t67 99.5v2 l1 53h19v-57q-17 -83 -73.5 -130.5t-171.5 -48.5q-105 0 -160 56.5t-55 163.5zM380 1090q0 61 38.5 100.5t101.5 39.5q61 0 100.5 -38.5t39.5 -101.5q0 -61 -38.5 -100.5t-101.5 -39.5q-61 0 -100.5 38.5t-39.5 101.5zM420 1090q0 -47 27.5 -73.5t72.5 -26.5q47 0 73.5 27.5 t26.5 72.5q0 47 -27.5 73.5t-72.5 26.5q-47 0 -73.5 -27.5t-26.5 -72.5zM480 1090q0 40 40 40t40 -40t-40 -40t-40 40zM800 81v305h20l20 -305h-40z" />
<glyph unicode="&#xc0;" d="M20 110v20h540v-40zM20 170v20l106 3q36 0 57 20t47 82l385 915l117 13v-33h-101l-374 -900q-35 -84 -53.5 -102t-77.5 -18h-106zM302 219q0 23 19 70l50 121h468l14 -37l-465 17l-41 -127q-6 -17 -6 -29q0 -40 75 -40l144 -4v-20h-144q-62 0 -88 10.5t-26 38.5zM396 470 l148 356l18 -5l-126 -331l338 6l-176 457l14 80h18v-3q-1 -2 -1 -10q0 -42 18 -89l170 -461h-421zM433 1562q0 23 26 44l33 28q26 17 46 17q32 0 53 -25l216 -285l-70 -46l-14 10l48 39l-220 263q-9 11 -22 11q-10 0 -20 -8l-35 -30q-12 -9 -12 -22q0 -9 8 -19l29 -34 l216 -169l-13 -15l-211 155l-34 37q-24 30 -24 49zM689 1013l1 1v79l12 3q6 -37 22 -84l275 -744q4 -9 8 -18.5t8 -18.5t6 -14q-4 2 -10.5 4t-10 3.5t-8.5 3.5t-8 4.5t-7 5.5t-7 7t-6.5 9t-6.5 11.5t-6 14.5q-49 133 -143 388t-105 284q-12 32 -14 61zM730 110v20h570v-40z M730 170v20l175 6q-8 17 -16.5 38t-15 38t-15 40t-14.5 39h17l34 -92q24 -67 70 -85v-4h-235zM757 1157q0 3 0.5 10t0.5 11v42h26q-5 -45 -5 -69q0 -49 22 -105l291 -743q27 -69 43 -88t54 -20l111 -5v-20h-114q-13 0 -22.5 0.5t-18.5 2t-15 3t-13 6t-11 8t-10 12t-9.5 14.5 t-9.5 20t-10 24l-12 30l-275 742q-23 65 -23 125z" />
<glyph unicode="&#xc1;" d="M20 110v20h540v-40zM20 170v20l106 3q36 0 57 20t47 82l385 915l117 13v-33h-101l-374 -900q-35 -84 -53.5 -102t-77.5 -18h-106zM302 219q0 23 19 70l50 121h468l14 -37l-465 17l-41 -127q-6 -17 -6 -29q0 -40 75 -40l144 -4v-20h-144q-62 0 -88 10.5t-26 38.5zM396 470 l148 356l18 -5l-126 -331l338 6l-176 457l14 80h18v-3q-1 -2 -1 -10q0 -42 18 -89l170 -461h-421zM551 1343l8 11q3 -2 44 -37l240 188l29 34q8 10 8 19q0 13 -12 22l-35 30q-10 8 -20 8q-13 0 -22 -11l-209 -250l-11 10l189 256q21 25 53 25q21 0 46 -17l36 -25 q26 -21 26 -44q0 -19 -24 -49l-34 -37l-261 -191zM689 1013l1 1v79l12 3q6 -37 22 -84l275 -744q4 -9 8 -18.5t8 -18.5t6 -14q-4 2 -10.5 4t-10 3.5t-8.5 3.5t-8 4.5t-7 5.5t-7 7t-6.5 9t-6.5 11.5t-6 14.5q-49 133 -143 388t-105 284q-12 32 -14 61zM730 110v20h570v-40z M730 170v20l175 6q-8 17 -16.5 38t-15 38t-15 40t-14.5 39h17l34 -92q24 -67 70 -85v-4h-235zM757 1157q0 3 0.5 10t0.5 11v42h26q-5 -45 -5 -69q0 -49 22 -105l291 -743q27 -69 43 -88t54 -20l111 -5v-20h-114q-13 0 -22.5 0.5t-18.5 2t-15 3t-13 6t-11 8t-10 12t-9.5 14.5 t-9.5 20t-10 24l-12 30l-275 742q-23 65 -23 125z" />
<glyph unicode="&#xc2;" d="M20 110v20h540v-40zM20 170v20l106 3q36 0 57 20t47 82l385 915l117 13v-33h-101l-374 -900q-35 -84 -53.5 -102t-77.5 -18h-106zM302 219q0 23 19 70l50 121h468l14 -37l-465 17l-41 -127q-6 -17 -6 -29q0 -40 75 -40l144 -4v-20h-144q-62 0 -88 10.5t-26 38.5z M372 1414l267 252l72 -6l267 -246l-101 -109l-103 129q-12 13 -29.5 35.5t-30.5 33.5l11 16q11 -13 33.5 -36.5t33.5 -36.5l85 -96l56 62l-231 226h-64l-231 -226l56 -62l85 96q13 15 35 38t32.5 34.5t23 26.5t18.5 25.5t8 20.5h10l10 -54q-15 -18 -57 -63.5t-50 -54.5 l-115 -119zM396 470l148 356l18 -5l-126 -331l338 6l-176 457l14 80h18v-3q-1 -2 -1 -10q0 -42 18 -89l170 -461h-421zM689 1013l1 1v79l12 3q6 -37 22 -84l275 -744q4 -9 8 -18.5t8 -18.5t6 -14q-4 2 -10.5 4t-10 3.5t-8.5 3.5t-8 4.5t-7 5.5t-7 7t-6.5 9t-6.5 11.5 t-6 14.5q-49 133 -143 388t-105 284q-12 32 -14 61zM730 110v20h570v-40zM730 170v20l175 6q-8 17 -16.5 38t-15 38t-15 40t-14.5 39h17l34 -92q24 -67 70 -85v-4h-235zM757 1157q0 3 0.5 10t0.5 11v42h26q-5 -45 -5 -69q0 -49 22 -105l291 -743q27 -69 43 -88t54 -20 l111 -5v-20h-114q-13 0 -22.5 0.5t-18.5 2t-15 3t-13 6t-11 8t-10 12t-9.5 14.5t-9.5 20t-10 24l-12 30l-275 742q-23 65 -23 125z" />
<glyph unicode="&#xc3;" d="M20 110v20h540v-40zM20 170v20l106 3q36 0 57 20t47 82l385 915l117 13v-33h-101l-374 -900q-35 -84 -53.5 -102t-77.5 -18h-106zM296 1360l26 107q23 94 64.5 135t104.5 41q53 0 117 -27.5t111 -60t92.5 -60t66.5 -27.5q10 0 16.5 2.5t14.5 14.5t14 35l25 108l39 -10 l-28 -106q-22 -82 -84 -82q-34 0 -85.5 29.5t-97.5 64.5t-102.5 64.5t-98.5 29.5q-105 0 -148 -156l-29 -107zM302 219q0 23 19 70l50 121h468l14 -37l-465 17l-41 -127q-6 -17 -6 -29q0 -40 75 -40l144 -4v-20h-144q-62 0 -88 10.5t-26 38.5zM373 1341l28 107q19 72 75 72 q32 0 83 -29.5t97 -65.5t103 -65.5t100 -29.5q113 0 158 168l28 107l19 -5l-26 -107q-27 -102 -70 -145t-108 -43q-54 0 -119 28t-112 62t-92 62t-64 28q-8 0 -13 -2t-11.5 -11.5t-11.5 -28.5l-25 -111zM396 470l148 356l18 -5l-126 -331l338 6l-176 457l14 80h18v-3 q-1 -2 -1 -10q0 -42 18 -89l170 -461h-421zM429 1550q27 28 62 28q32 0 82 -29.5t95.5 -64.5t103.5 -64.5t103 -29.5q30 0 54 13q-29 -33 -70 -33q-28 0 -65.5 19.5t-75.5 47.5t-78 56t-83.5 47.5t-80.5 19.5q-27 0 -47 -10zM689 1013l1 1v79l12 3q6 -37 22 -84l275 -744 q4 -9 8 -18.5t8 -18.5t6 -14q-4 2 -10.5 4t-10 3.5t-8.5 3.5t-8 4.5t-7 5.5t-7 7t-6.5 9t-6.5 11.5t-6 14.5q-49 133 -143 388t-105 284q-12 32 -14 61zM730 110v20h570v-40zM730 170v20l175 6q-8 17 -16.5 38t-15 38t-15 40t-14.5 39h17l34 -92q24 -67 70 -85v-4h-235z M757 1157q0 3 0.5 10t0.5 11v42h26q-5 -45 -5 -69q0 -49 22 -105l291 -743q27 -69 43 -88t54 -20l111 -5v-20h-114q-13 0 -22.5 0.5t-18.5 2t-15 3t-13 6t-11 8t-10 12t-9.5 14.5t-9.5 20t-10 24l-12 30l-275 742q-23 65 -23 125z" />
<glyph unicode="&#xc4;" d="M20 110v20h540v-40zM20 170v20l106 3q36 0 57 20t47 82l385 915l117 13v-33h-101l-374 -900q-35 -84 -53.5 -102t-77.5 -18h-106zM302 219q0 23 19 70l50 121h468l14 -37l-465 17l-41 -127q-6 -17 -6 -29q0 -40 75 -40l144 -4v-20h-144q-62 0 -88 10.5t-26 38.5z M340 1498h40q0 -45 27.5 -72.5t72.5 -27.5q47 0 73.5 27.5t26.5 72.5q0 47 -27.5 73.5t-72.5 26.5q-70 0 -93 -59l-17 7q27 73 110 73q56 0 90.5 -33t34.5 -88q0 -58 -34.5 -94t-90.5 -36q-63 0 -101.5 36t-38.5 94zM396 470l148 356l18 -5l-126 -331l338 6l-176 457l14 80 h18v-3q-1 -2 -1 -10q0 -42 18 -89l170 -461h-421zM689 1013l1 1v79l12 3q6 -37 22 -84l275 -744q4 -9 8 -18.5t8 -18.5t6 -14q-4 2 -10.5 4t-10 3.5t-8.5 3.5t-8 4.5t-7 5.5t-7 7t-6.5 9t-6.5 11.5t-6 14.5q-49 133 -143 388t-105 284q-12 32 -14 61zM730 110v20h570v-40z M730 170v20l175 6q-8 17 -16.5 38t-15 38t-15 40t-14.5 39h17l34 -92q24 -67 70 -85v-4h-235zM740 1498h40q0 -45 27.5 -72.5t72.5 -27.5q31 0 54 12.5t34.5 35t11.5 52.5q0 23 -7.5 42t-20.5 31.5t-31.5 19.5t-40.5 7q-70 0 -93 -59l-17 7q27 73 110 73q56 0 90.5 -33 t34.5 -88q0 -58 -34.5 -94t-90.5 -36q-63 0 -101.5 36t-38.5 94zM757 1157q0 3 0.5 10t0.5 11v42h26q-5 -45 -5 -69q0 -49 22 -105l291 -743q27 -69 43 -88t54 -20l111 -5v-20h-114q-13 0 -22.5 0.5t-18.5 2t-15 3t-13 6t-11 8t-10 12t-9.5 14.5t-9.5 20t-10 24l-12 30 l-275 742q-23 65 -23 125z" />
<glyph unicode="&#xc5;" d="M20 110v20h540v-40zM20 170v20l106 3q36 0 57 20t47 82l389 937l25 -9l-387 -933q-34 -84 -53 -102t-78 -18h-106zM302 219q0 23 19 70l50 121h468l14 -37l-465 17l-41 -127q-6 -17 -6 -29q0 -40 75 -40l144 -4v-20h-144q-62 0 -88 10.5t-26 38.5zM396 470l148 356l18 -5 l-126 -331l338 6l-176 457l14 80h18v-3q-1 -2 -1 -10q0 -42 18 -89l170 -461h-421zM490 1378q0 81 55.5 138t134.5 57q75 0 135 -58t60 -137q0 -55 -31.5 -101.5t-84.5 -71.5l1 36q36 22 58.5 58t22.5 77q0 72 -50 119.5t-121 47.5q-59 0 -107 -48t-48 -107q0 -52 23.5 -91 t64.5 -59l-15 -33q-45 26 -71.5 72.5t-26.5 100.5zM552 1378q0 53 37.5 89.5t88.5 36.5q53 0 89.5 -37.5t36.5 -88.5q0 -53 -37.5 -89.5t-88.5 -36.5q-53 0 -89.5 37.5t-36.5 88.5zM572 1378q0 -44 31 -74.5t75 -30.5q38 0 65 30.5t27 74.5q0 41 -27 69.5t-65 28.5 q-44 0 -75 -28.5t-31 -69.5zM689 1013l1 1v79l12 3q6 -37 22 -84l275 -744q4 -9 8 -18.5t8 -18.5t6 -14q-4 2 -10.5 4t-10 3.5t-8.5 3.5t-8 4.5t-7 5.5t-7 7t-6.5 9t-6.5 11.5t-6 14.5q-49 133 -143 388t-105 284q-12 32 -14 61zM730 110v20h570v-40zM730 170v20l175 6 q-8 17 -16.5 38t-15 38t-15 40t-14.5 39h17l34 -92q24 -67 70 -85v-4h-235zM757 1157q0 3 0.5 9t0.5 10l24 8q-1 -13 -1 -36q0 -51 20 -102l291 -743q27 -69 43 -88t54 -20l111 -5v-20h-114q-13 0 -22.5 0.5t-18.5 2t-15 3t-13 6t-11 8t-10 12t-9.5 14.5t-9.5 20t-10 24 l-12 30l-275 742q-23 65 -23 125z" />
<glyph unicode="&#xc6;" horiz-adv-x="1820" d="M20 110v20h500v-40zM20 170v20l106 3q36 0 57 20t47 82l358 841l24 -1l-355 -845q-35 -84 -53.5 -102t-77.5 -18h-106zM302 219q0 23 19 70l50 121h529v-37l-512 17l-41 -127q-6 -17 -6 -29q0 -22 18.5 -30t56.5 -10l104 -4v-20h-104q-62 0 -88 10.5t-26 38.5zM396 470 l248 590l17 -5l-225 -565l431 6l-7 514q-2 59 -13 72.5t-67 17.5l-100 8v22h100q81 0 100.5 -19.5t19.5 -100.5v-540h-504zM470 1170v20l1087 20l3 -40h-1090zM680 110v20h941q26 0 37 4t23 16h1l-13 -191l-19 2l-2 129zM680 170v20l104 5q57 3 71.5 19t14.5 74l-1 55h31 v-53q0 -81 -19.5 -100.5t-100.5 -19.5h-100zM957 226q3 22 3 64v720q0 38 -3 64q43 -39 43 -84v-680q0 -45 -43 -84zM1010 190v4q50 50 50 116v253h20l10 -253q1 -22 -8 -54l-7 -26h385q37 0 57 0.5t45 3t37 6t27 11t21.5 17.5t13.5 26t10 35.5t5 46.5h20q-3 -44 -7.5 -71.5 t-15.5 -50t-25.5 -34t-42.5 -19t-60 -9.5t-85 -2h-450zM1010 1110h330q58 0 92 -2t63 -13t41.5 -23t23 -44.5t13.5 -64t7 -93.5l2 -40h-20l-2 38q-3 50 -7 79.5t-15 54t-22.5 35.5t-39.5 19t-55.5 10t-80.5 4l-305 10zM1060 610v20h118q29 0 46 -2.5t32 -11.5t22 -22t12 -40 t6.5 -59.5t1.5 -84.5h40v540h20l20 -580h-120v58q0 52 -1.5 78.5t-5 48t-14 29t-22.5 11t-37 5.5zM1060 690v300h20l20 -270h78q40 1 58 8.5t30 40t12 100.5l20 -1q-1 -81 -11.5 -117.5t-33.5 -48.5t-75 -12h-118zM1589 1343l19 2l55 -515h-41zM1709 -43l33 513h21l-13 -515 z" />
<glyph unicode="&#xc7;" horiz-adv-x="1140" d="M40 644q0 268 156 432t398 164q47 0 106.5 -14.5t100.5 -34.5l-8 -17q-98 36 -199 36q-224 0 -369 -156.5t-145 -409.5q0 -202 104.5 -344.5t278.5 -189.5l-4 -40q-189 49 -304 202.5t-115 371.5zM140 644q0 202 103 338q-58 -127 -58 -308q0 -242 93 -392 q-138 138 -138 362zM245 674q0 229 93 352.5t256 123.5q121 0 210.5 -68.5t106.5 -206.5l5 -86l-19 -1l-6 81q-15 125 -99.5 193t-197.5 68q-71 0 -126.5 -29t-89 -74t-55.5 -107t-30 -122t-8 -124q0 -72 9 -136.5t33.5 -129.5t62.5 -112t100.5 -76.5t143.5 -29.5 q100 0 182 50t134 142l18 31l35 -15l-18 -36q-57 -102 -148.5 -157t-202.5 -55q-182 0 -285.5 135.5t-103.5 388.5zM417 -459l8 30h41q150 0 254 61.5t104 154.5q0 71 -53 121t-143 50q-43 0 -76 -14l29 147q13 -1 39 -1q141 0 248.5 63t171.5 185l18 36l37 -17l-20 -38 q-69 -131 -185.5 -200t-269.5 -69q-13 0 -25 1l-11 -74q40 4 44 4q107 0 164 -53.5t57 -140.5q0 -79 -55 -136t-140 -83.5t-188 -26.5h-49zM433 -389l4 20h43q86 0 147 55.5t61 122.5q0 34 -19 55.5t-39 21.5q-46 0 -93 -29l-63 6l27 241l40 -7l-39 -200l28 -4q37 23 100 23 q39 0 61.5 -30t22.5 -77q0 -85 -70 -141.5t-170 -56.5h-41zM702 -332q52 63 52 141q0 40 -15 73q45 -39 45 -95q0 -69 -82 -119zM868 1307l40 2l8 -177l4 -40l-18 14zM948 1311l20 1l46 -520l-40 -1z" />
<glyph unicode="&#xc8;" horiz-adv-x="1220" d="M40 110v20h981q26 0 37 4t23 16h1l-13 -191l-19 2l-2 129zM40 170v20l144 5q57 2 71.5 18.5t14.5 74.5l-10 722q-1 57 -12 69.5t-68 20.5l-140 10v20h140q81 0 100.5 -19.5t19.5 -100.5v-720q0 -81 -19.5 -100.5t-100.5 -19.5h-140zM40 1170v20l917 20l3 -40h-920z M338 1562q0 23 26 44l33 28q25 17 46 17q32 0 53 -25l216 -285l-70 -46l-14 10l48 39l-220 263q-9 11 -22 11q-10 0 -20 -8l-35 -30q-12 -9 -12 -22q0 -9 8 -19l29 -34l216 -169l-13 -15l-211 155l-34 37q-24 30 -24 49zM357 226q3 22 3 64v720q0 38 -3 64q43 -39 43 -84 v-680q0 -45 -43 -84zM410 190v4q50 50 50 116v253h20l10 -253q1 -22 -8 -54l-7 -26h385q37 0 57 0.5t45 3t37 6t27 11t21.5 17.5t13.5 26t10 35.5t5 46.5h20q-3 -44 -7.5 -71.5t-15.5 -50t-25.5 -34t-42.5 -19t-60 -9.5t-85 -2h-450zM410 1110h330q58 0 92 -2t63 -13 t41.5 -23t23 -44.5t13.5 -64t7 -93.5l2 -40h-20l-2 38q-3 50 -7 79.5t-15 54t-22.5 35.5t-39.5 19t-55.5 10t-80.5 4l-305 10zM460 610v20h118q29 0 46 -2.5t32 -11.5t22 -22t12 -40t6.5 -59.5t1.5 -84.5h40v540h20l20 -580h-120v58q0 52 -1.5 78.5t-5 48t-14 29t-22.5 11 t-37 5.5zM460 690v300h20l20 -270h78q40 1 58 8.5t30 40t12 100.5l20 -1q-1 -81 -11.5 -117.5t-33.5 -48.5t-75 -12h-118zM989 1343l19 2l55 -515h-41zM1109 -43l33 513h21l-13 -515z" />
<glyph unicode="&#xc9;" horiz-adv-x="1220" d="M40 110v20h981q26 0 37 4t23 16h1l-13 -191l-19 2l-2 129zM40 170v20l144 5q57 2 71.5 18.5t14.5 74.5l-10 722q-1 57 -12 69.5t-68 20.5l-140 10v20h140q81 0 100.5 -19.5t19.5 -100.5v-720q0 -81 -19.5 -100.5t-100.5 -19.5h-140zM40 1170v20l917 20l3 -40h-920z M357 226q3 22 3 64v720q0 38 -3 64q43 -39 43 -84v-680q0 -45 -43 -84zM410 190v4q50 50 50 116v253h20l10 -253q1 -22 -8 -54l-7 -26h385q37 0 57 0.5t45 3t37 6t27 11t21.5 17.5t13.5 26t10 35.5t5 46.5h20q-3 -44 -7.5 -71.5t-15.5 -50t-25.5 -34t-42.5 -19t-60 -9.5 t-85 -2h-450zM410 1110h330q58 0 92 -2t63 -13t41.5 -23t23 -44.5t13.5 -64t7 -93.5l2 -40h-20l-2 38q-3 50 -7 79.5t-15 54t-22.5 35.5t-39.5 19t-55.5 10t-80.5 4l-305 10zM426 1343l8 11q3 -2 44 -37l240 188l29 34q8 10 8 19q0 13 -12 22l-35 30q-10 8 -20 8 q-13 0 -22 -11l-209 -250l-11 10l189 256q21 25 53 25q20 0 46 -17l36 -25q26 -21 26 -44q0 -19 -24 -49l-34 -37l-261 -191zM460 610v20h118q29 0 46 -2.5t32 -11.5t22 -22t12 -40t6.5 -59.5t1.5 -84.5h40v540h20l20 -580h-120v58q0 52 -1.5 78.5t-5 48t-14 29t-22.5 11 t-37 5.5zM460 690v300h20l20 -270h78q40 1 58 8.5t30 40t12 100.5l20 -1q-1 -81 -11.5 -117.5t-33.5 -48.5t-75 -12h-118zM989 1343l19 2l55 -515h-41zM1109 -43l33 513h21l-13 -515z" />
<glyph unicode="&#xca;" horiz-adv-x="1220" d="M40 110v20h981q26 0 37 4t23 16h1l-13 -191l-19 2l-2 129zM40 170v20l144 5q57 2 71.5 18.5t14.5 74.5l-10 722q-1 57 -12 69.5t-68 20.5l-140 10v20h140q81 0 100.5 -19.5t19.5 -100.5v-720q0 -81 -19.5 -100.5t-100.5 -19.5h-140zM40 1170v20l917 20l3 -40h-920z M267 1414l267 252l72 -6l267 -246l-101 -109l-103 129q-12 13 -29.5 35.5t-30.5 33.5l11 16q11 -13 33.5 -36.5t33.5 -36.5l85 -96l56 62l-231 226h-64l-231 -226l56 -62l85 96q13 15 35 38t32.5 34.5t23 26.5t18.5 25.5t8 20.5h10l10 -54q-15 -18 -57 -63.5t-50 -54.5 l-115 -119zM357 226q3 22 3 64v720q0 38 -3 64q43 -39 43 -84v-680q0 -45 -43 -84zM410 190v4q50 50 50 116v253h20l10 -253q1 -22 -8 -54l-7 -26h385q37 0 57 0.5t45 3t37 6t27 11t21.5 17.5t13.5 26t10 35.5t5 46.5h20q-3 -44 -7.5 -71.5t-15.5 -50t-25.5 -34t-42.5 -19 t-60 -9.5t-85 -2h-450zM410 1110h330q58 0 92 -2t63 -13t41.5 -23t23 -44.5t13.5 -64t7 -93.5l2 -40h-20l-2 38q-3 50 -7 79.5t-15 54t-22.5 35.5t-39.5 19t-55.5 10t-80.5 4l-305 10zM460 610v20h118q29 0 46 -2.5t32 -11.5t22 -22t12 -40t6.5 -59.5t1.5 -84.5h40v540h20 l20 -580h-120v58q0 52 -1.5 78.5t-5 48t-14 29t-22.5 11t-37 5.5zM460 690v300h20l20 -270h78q40 1 58 8.5t30 40t12 100.5l20 -1q-1 -81 -11.5 -117.5t-33.5 -48.5t-75 -12h-118zM989 1343l19 2l55 -515h-41zM1109 -43l33 513h21l-13 -515z" />
<glyph unicode="&#xcb;" horiz-adv-x="1220" d="M40 110v20h981q26 0 37 4t23 16h1l-13 -191l-19 2l-2 129zM40 170v20l144 5q57 2 71.5 18.5t14.5 74.5l-10 722q-1 57 -12 69.5t-68 20.5l-140 10v20h140q81 0 100.5 -19.5t19.5 -100.5v-720q0 -81 -19.5 -100.5t-100.5 -19.5h-140zM40 1170v20l917 20l3 -40h-920z M235 1498h40q0 -45 27.5 -72.5t72.5 -27.5q47 0 73.5 27.5t26.5 72.5q0 47 -27.5 73.5t-72.5 26.5q-70 0 -93 -59l-17 7q27 73 110 73q56 0 90.5 -33t34.5 -88q0 -58 -34.5 -94t-90.5 -36q-63 0 -101.5 36t-38.5 94zM357 226q3 22 3 64v720q0 38 -3 64q43 -39 43 -84v-680 q0 -45 -43 -84zM410 190v4q50 50 50 116v253h20l10 -253q1 -22 -8 -54l-7 -26h385q37 0 57 0.5t45 3t37 6t27 11t21.5 17.5t13.5 26t10 35.5t5 46.5h20q-3 -44 -7.5 -71.5t-15.5 -50t-25.5 -34t-42.5 -19t-60 -9.5t-85 -2h-450zM410 1110h330q58 0 92 -2t63 -13t41.5 -23 t23 -44.5t13.5 -64t7 -93.5l2 -40h-20l-2 38q-3 50 -7 79.5t-15 54t-22.5 35.5t-39.5 19t-55.5 10t-80.5 4l-305 10zM460 610v20h118q29 0 46 -2.5t32 -11.5t22 -22t12 -40t6.5 -59.5t1.5 -84.5h40v540h20l20 -580h-120v58q0 52 -1.5 78.5t-5 48t-14 29t-22.5 11t-37 5.5z M460 690v300h20l20 -270h78q40 1 58 8.5t30 40t12 100.5l20 -1q-1 -81 -11.5 -117.5t-33.5 -48.5t-75 -12h-118zM635 1498h40q0 -45 27.5 -72.5t72.5 -27.5q47 0 73.5 27.5t26.5 72.5q0 47 -27.5 73.5t-72.5 26.5q-70 0 -93 -59l-17 7q27 73 110 73q56 0 90.5 -33t34.5 -88 q0 -58 -34.5 -94t-90.5 -36q-63 0 -101.5 36t-38.5 94zM989 1343l19 2l55 -515h-41zM1109 -43l33 513h21l-13 -515z" />
<glyph unicode="&#xcc;" horiz-adv-x="760" d="M40 110v20h680v-40zM40 170v20l144 5q57 2 71.5 18.5t14.5 74.5l-10 722q-1 57 -12 69.5t-68 20.5l-140 10v20h140q81 0 100.5 -19.5t19.5 -100.5v-720q0 -81 -19.5 -100.5t-100.5 -19.5h-140zM40 1170v20l680 20v-40h-680zM143 1562q0 23 26 44l33 28q26 17 46 17 q32 0 53 -25l216 -285l-70 -46l-14 10l48 39l-220 263q-9 11 -22 11q-10 0 -20 -8l-35 -30q-12 -9 -12 -22q0 -9 8 -19l29 -34l216 -169l-13 -15l-211 155l-34 37q-24 30 -24 49zM349 190q11 44 11 100v743q0 43 -11 87h62q-11 -44 -11 -100v-743q0 -43 11 -87h-62zM460 290 v720q0 29 1 46.5t6 32.5t12 22t22 12t32.5 6t46.5 1h140v-20l-144 -5q-30 -1 -46 -4.5t-25.5 -15t-12 -27t-2.5 -46.5l10 -722l1.5 -33t4 -22t7 -15t14.5 -8.5t21 -6.5t32 -5l140 -10v-20h-140q-29 0 -46.5 1t-32.5 6t-22 12t-12 22t-6 32.5t-1 46.5z" />
<glyph unicode="&#xcd;" horiz-adv-x="760" d="M40 110v20h680v-40zM40 170v20l144 5q57 2 71.5 18.5t14.5 74.5l-10 722q-1 57 -12 69.5t-68 20.5l-140 10v20h140q81 0 100.5 -19.5t19.5 -100.5v-720q0 -81 -19.5 -100.5t-100.5 -19.5h-140zM40 1170v20l680 20v-40h-680zM231 1343l8 11q3 -2 44 -37l240 188l29 34 q8 10 8 19q0 13 -12 22l-35 30q-10 8 -20 8q-13 0 -22 -11l-209 -250l-11 10l189 256q21 25 53 25q21 0 46 -17l36 -25q26 -21 26 -44q0 -19 -24 -49l-34 -37l-261 -191zM349 190q11 44 11 100v743q0 43 -11 87h62q-11 -44 -11 -100v-743q0 -43 11 -87h-62zM460 290v720 q0 29 1 46.5t6 32.5t12 22t22 12t32.5 6t46.5 1h140v-20l-144 -5q-30 -1 -46 -4.5t-25.5 -15t-12 -27t-2.5 -46.5l10 -722l1.5 -33t4 -22t7 -15t14.5 -8.5t21 -6.5t32 -5l140 -10v-20h-140q-29 0 -46.5 1t-32.5 6t-22 12t-12 22t-6 32.5t-1 46.5z" />
<glyph unicode="&#xce;" horiz-adv-x="760" d="M40 110v20h680v-40zM40 170v20l144 5q57 2 71.5 18.5t14.5 74.5l-10 722q-1 57 -12 69.5t-68 20.5l-140 10v20h140q81 0 100.5 -19.5t19.5 -100.5v-720q0 -81 -19.5 -100.5t-100.5 -19.5h-140zM40 1170v20l680 20v-40h-680zM72 1414l267 252l72 -6l267 -246l-101 -109 l-103 129q-12 13 -29.5 35.5t-30.5 33.5l11 16q11 -13 33.5 -36.5t33.5 -36.5l85 -96l56 62l-231 226h-64l-231 -226l56 -62l85 96q13 15 35 38t32.5 34.5t23 26.5t18.5 25.5t8 20.5h10l10 -54q-15 -18 -57 -63.5t-50 -54.5l-115 -119zM349 190q11 44 11 100v743 q0 43 -11 87h62q-11 -44 -11 -100v-743q0 -43 11 -87h-62zM460 290v720q0 29 1 46.5t6 32.5t12 22t22 12t32.5 6t46.5 1h140v-20l-144 -5q-30 -1 -46 -4.5t-25.5 -15t-12 -27t-2.5 -46.5l10 -722l1.5 -33t4 -22t7 -15t14.5 -8.5t21 -6.5t32 -5l140 -10v-20h-140 q-29 0 -46.5 1t-32.5 6t-22 12t-12 22t-6 32.5t-1 46.5z" />
<glyph unicode="&#xcf;" horiz-adv-x="760" d="M40 110v20h680v-40zM40 170v20l144 5q57 2 71.5 18.5t14.5 74.5l-10 722q-1 57 -12 69.5t-68 20.5l-140 10v20h140q81 0 100.5 -19.5t19.5 -100.5v-720q0 -81 -19.5 -100.5t-100.5 -19.5h-140zM40 1170v20l680 20v-40h-680zM40 1498h40q0 -45 27.5 -72.5t72.5 -27.5 q47 0 73.5 27.5t26.5 72.5q0 47 -27.5 73.5t-72.5 26.5q-70 0 -93 -59l-17 7q27 73 110 73q56 0 90.5 -33t34.5 -88q0 -58 -34.5 -94t-90.5 -36q-63 0 -101.5 36t-38.5 94zM349 190q11 44 11 100v743q0 43 -11 87h62q-11 -44 -11 -100v-743q0 -43 11 -87h-62zM440 1498h40 q0 -45 27.5 -72.5t72.5 -27.5q47 0 73.5 27.5t26.5 72.5q0 47 -27.5 73.5t-72.5 26.5q-70 0 -93 -59l-17 7q27 73 110 73q56 0 90.5 -33t34.5 -88q0 -59 -34.5 -94.5t-90.5 -35.5q-63 0 -101.5 35.5t-38.5 94.5zM460 290v720q0 29 1 46.5t6 32.5t12 22t22 12t32.5 6t46.5 1 h140v-20l-144 -5q-30 -1 -46 -4.5t-25.5 -15t-12 -27t-2.5 -46.5l10 -722l1.5 -33t4 -22t7 -15t14.5 -8.5t21 -6.5t32 -5l140 -10v-20h-140q-29 0 -46.5 1t-32.5 6t-22 12t-12 22t-6 32.5t-1 46.5z" />
<glyph unicode="&#xd0;" horiz-adv-x="1280" d="M40 110v20h620q243 0 391.5 143t148.5 377t-148.5 377t-391.5 143h-620v20l610 10h14q256 0 416 -152.5t160 -397.5q0 -243 -157.5 -396.5t-408.5 -153.5h-24zM40 170v20l144 5q55 2 70.5 17.5t15.5 66.5v9l-4 296l-166 6v20h200v-320q0 -81 -19.5 -100.5t-100.5 -19.5 h-140zM40 1110v20h140q81 0 100.5 -19.5t19.5 -100.5v-231l-37 3l-3 228q-1 57 -12 69.5t-68 20.5zM110 710v40l190 -7v-33h-190zM349 190q11 33 11 100v733q0 56 -11 87h9q1 -3 12 -15t20.5 -36t9.5 -59v-700q0 -30 -8 -51.5t-19 -37.5t-13 -21h-11zM420 190l17 25h213 q38 0 73.5 7t77 23.5t75.5 49t63 78.5t45 117t16 160q0 105 -24 186.5t-60 128t-84.5 76t-92 39.5t-89.5 10h-208l-22 20h230q185 0 282.5 -118t97.5 -342t-97.5 -342t-282.5 -118h-230zM460 300v310h220v-40l-188 5l8 -275h-40zM460 710v290l20 -1l8 -263l202 -6v-20h-230z M1015 321q75 129 75 329t-75 329q125 -123 125 -329t-125 -329z" />
<glyph unicode="&#xd1;" horiz-adv-x="1340" d="M40 110v20h560v-40zM40 170v20l124 5q57 2 71.5 18.5t14.5 74.5l-10 722q-1 57 -12 69.5t-68 20.5l-120 10v20h120q81 0 100.5 -19.5t19.5 -100.5v-720q0 -81 -19.5 -100.5t-100.5 -19.5h-120zM40 1170v20l391 16l482 -685l-14 -15l-485 664h-374zM246 1360l26 107 q23 94 64.5 135t104.5 41q53 0 117 -27.5t111 -60t92.5 -60t66.5 -27.5q10 0 16.5 2.5t14.5 14.5t14 35l25 108l39 -10l-28 -106q-22 -82 -84 -82q-34 0 -85.5 29.5t-97.5 64.5t-102.5 64.5t-98.5 29.5q-105 0 -148 -156l-29 -107zM323 1341l28 107q19 72 75 72 q32 0 83 -29.5t97 -65.5t103 -65.5t100 -29.5q113 0 158 168l28 107l19 -5l-26 -107q-27 -102 -70 -145t-108 -43q-54 0 -119 28t-112 62t-92 62t-64 28q-8 0 -13 -2t-11.5 -11.5t-11.5 -28.5l-25 -111zM340 290v726l30 -54l10 -672q2 -59 13 -72.5t67 -17.5l140 -10v-20 h-140q-81 0 -100.5 19.5t-19.5 100.5zM379 1550q27 28 62 28q32 0 82 -29.5t95.5 -64.5t103.5 -64.5t103 -29.5q30 0 54 13q-29 -33 -70 -33q-28 0 -65.5 19.5t-75.5 47.5t-78 56t-83.5 47.5t-80.5 19.5q-27 0 -47 -10zM400 877l18 15l573 -782h39v-35l-58 5zM400 1087 l500 -684q25 -35 31.5 -55t13.5 -74l-502 685q-30 45 -36.5 65.5t-6.5 62.5zM755 1110v20h125q81 0 100.5 -19.5t19.5 -100.5v-647l-26 34l-14 613q-2 59 -13 72.5t-67 17.5zM755 1170v20l545 20v-40h-545zM1060 73v937q0 81 19.5 100.5t100.5 19.5h120v-20l-124 -5 q-55 -2 -70.5 -17.5t-15.5 -66.5v-9l10 -942z" />
<glyph unicode="&#xd2;" horiz-adv-x="1180" d="M60 650q0 119 44 241l14 -5q-38 -106 -38 -236q0 -252 137.5 -406t362.5 -154t362.5 154t137.5 406t-137.5 406t-362.5 154q-197 0 -327 -118l-11 10q141 128 338 128q244 0 392 -157t148 -423q0 -268 -149 -434t-391 -166q-239 0 -379.5 164.5t-140.5 435.5zM140 650 q0 180 77 305q-32 -98 -32 -225q0 -306 102 -471q-147 138 -147 391zM245 730q0 200 80 307l12 -10q-72 -96 -72 -297q0 -105 17 -197t53 -171t101 -125.5t152 -46.5q136 0 211.5 91.5t75.5 288.5q0 85 -8 160.5t-29 151.5t-54.5 130.5t-87.5 88.5t-124 34v15 q167 0 255 -148.5t88 -431.5q0 -205 -83.5 -312.5t-243.5 -107.5q-167 0 -255 148.5t-88 431.5zM343 1562q0 23 26 44l33 28q26 17 46 17q32 0 53 -25l216 -285l-70 -46l-14 10l48 39l-220 263q-9 11 -22 11q-10 0 -20 -8l-35 -30q-12 -9 -12 -22q0 -9 8 -19l29 -34 l216 -169l-13 -15l-211 155l-34 37q-24 30 -24 49zM873 1041q147 -138 147 -391q0 -180 -77 -305q32 98 32 225q0 306 -102 471z" />
<glyph unicode="&#xd3;" horiz-adv-x="1180" d="M60 650q0 119 44 241l14 -5q-38 -106 -38 -236q0 -252 137.5 -406t362.5 -154t362.5 154t137.5 406t-137.5 406t-362.5 154q-197 0 -327 -118l-11 10q141 128 338 128q244 0 392 -157t148 -423q0 -268 -149 -434t-391 -166q-239 0 -379.5 164.5t-140.5 435.5zM140 650 q0 180 77 305q-32 -98 -32 -225q0 -306 102 -471q-147 138 -147 391zM245 730q0 200 80 307l12 -10q-72 -96 -72 -297q0 -105 17 -197t53 -171t101 -125.5t152 -46.5q136 0 211.5 91.5t75.5 288.5q0 85 -8 160.5t-29 151.5t-54.5 130.5t-87.5 88.5t-124 34v15 q167 0 255 -148.5t88 -431.5q0 -205 -83.5 -312.5t-243.5 -107.5q-167 0 -255 148.5t-88 431.5zM431 1343l8 11q3 -2 44 -37l240 188l29 34q8 10 8 19q0 13 -12 22l-35 30q-10 8 -20 8q-13 0 -22 -11l-209 -250l-11 10l189 256q21 25 53 25q21 0 46 -17l36 -25 q26 -21 26 -44q0 -19 -24 -49l-34 -37l-261 -191zM873 1041q147 -138 147 -391q0 -180 -77 -305q32 98 32 225q0 306 -102 471z" />
<glyph unicode="&#xd4;" horiz-adv-x="1180" d="M60 650q0 119 44 241l14 -5q-38 -106 -38 -236q0 -252 137.5 -406t362.5 -154t362.5 154t137.5 406t-137.5 406t-362.5 154q-197 0 -327 -118l-11 10q141 128 338 128q244 0 392 -157t148 -423q0 -268 -149 -434t-391 -166q-239 0 -379.5 164.5t-140.5 435.5zM140 650 q0 180 77 305q-32 -98 -32 -225q0 -306 102 -471q-147 138 -147 391zM245 730q0 200 80 307l12 -10q-72 -96 -72 -297q0 -105 17 -197t53 -171t101 -125.5t152 -46.5q136 0 211.5 91.5t75.5 288.5q0 85 -8 160.5t-29 151.5t-54.5 130.5t-87.5 88.5t-124 34v15 q167 0 255 -148.5t88 -431.5q0 -205 -83.5 -312.5t-243.5 -107.5q-167 0 -255 148.5t-88 431.5zM272 1414l267 252l72 -6l267 -246l-101 -109l-103 129q-12 13 -29.5 35.5t-30.5 33.5l11 16q11 -13 33.5 -36.5t33.5 -36.5l85 -96l56 62l-231 226h-64l-231 -226l56 -62l85 96 q13 15 35 38t32.5 34.5t23 26.5t18.5 25.5t8 20.5h10l10 -54q-15 -18 -57 -63.5t-50 -54.5l-115 -119zM873 1041q147 -138 147 -391q0 -180 -77 -305q32 98 32 225q0 306 -102 471z" />
<glyph unicode="&#xd5;" horiz-adv-x="1180" d="M60 650q0 119 44 241l14 -5q-38 -106 -38 -236q0 -252 137.5 -406t362.5 -154t362.5 154t137.5 406t-137.5 406t-362.5 154q-197 0 -327 -118l-11 10q141 128 338 128q244 0 392 -157t148 -423q0 -268 -149 -434t-391 -166q-239 0 -379.5 164.5t-140.5 435.5zM140 650 q0 180 77 305q-32 -98 -32 -225q0 -306 102 -471q-147 138 -147 391zM196 1360l26 107q23 94 64.5 135t104.5 41q53 0 117 -27.5t111 -60t92.5 -60t66.5 -27.5q10 0 16.5 2.5t14.5 14.5t14 35l25 108l39 -10l-28 -106q-22 -82 -84 -82q-34 0 -85.5 29.5t-97.5 64.5 t-102.5 64.5t-98.5 29.5q-105 0 -148 -156l-29 -107zM245 730q0 200 80 307l12 -10q-72 -96 -72 -297q0 -105 17 -197t53 -171t101 -125.5t152 -46.5q136 0 211.5 91.5t75.5 288.5q0 85 -8 160.5t-29 151.5t-54.5 130.5t-87.5 88.5t-124 34v15q167 0 255 -148.5t88 -431.5 q0 -205 -83.5 -312.5t-243.5 -107.5q-167 0 -255 148.5t-88 431.5zM273 1341l28 107q19 72 75 72q32 0 83 -29.5t97 -65.5t103 -65.5t100 -29.5q113 0 158 168l28 107l19 -5l-26 -107q-27 -102 -70 -145t-108 -43q-54 0 -119 28t-112 62t-92 62t-64 28q-8 0 -13 -2 t-11.5 -11.5t-11.5 -28.5l-25 -111zM329 1550q27 28 62 28q32 0 82 -29.5t95.5 -64.5t103.5 -64.5t103 -29.5q30 0 54 13q-29 -33 -70 -33q-28 0 -65.5 19.5t-75.5 47.5t-78 56t-83.5 47.5t-80.5 19.5q-27 0 -47 -10zM873 1041q147 -138 147 -391q0 -180 -77 -305 q32 98 32 225q0 306 -102 471z" />
<glyph unicode="&#xd6;" horiz-adv-x="1180" d="M60 650q0 119 44 241l14 -5q-38 -106 -38 -236q0 -252 137.5 -406t362.5 -154t362.5 154t137.5 406t-137.5 406t-362.5 154q-197 0 -327 -118l-11 10q141 128 338 128q244 0 392 -157t148 -423q0 -268 -149 -434t-391 -166q-239 0 -379.5 164.5t-140.5 435.5zM140 650 q0 180 77 305q-32 -98 -32 -225q0 -306 102 -471q-147 138 -147 391zM240 1498h40q0 -45 27.5 -72.5t72.5 -27.5q47 0 73.5 27.5t26.5 72.5q0 47 -27.5 73.5t-72.5 26.5q-70 0 -93 -59l-17 7q27 73 110 73q56 0 90.5 -33t34.5 -88q0 -58 -34.5 -94t-90.5 -36 q-63 0 -101.5 36t-38.5 94zM245 730q0 200 80 307l12 -10q-72 -96 -72 -297q0 -105 17 -197t53 -171t101 -125.5t152 -46.5q136 0 211.5 91.5t75.5 288.5q0 85 -8 160.5t-29 151.5t-54.5 130.5t-87.5 88.5t-124 34v15q167 0 255 -148.5t88 -431.5q0 -205 -83.5 -312.5 t-243.5 -107.5q-167 0 -255 148.5t-88 431.5zM640 1498h40q0 -45 27.5 -72.5t72.5 -27.5q47 0 73.5 27.5t26.5 72.5q0 47 -27.5 73.5t-72.5 26.5q-70 0 -93 -59l-17 7q27 73 110 73q56 0 90.5 -33t34.5 -88q0 -58 -34.5 -94t-90.5 -36q-63 0 -101.5 36t-38.5 94zM873 1041 q147 -138 147 -391q0 -180 -77 -305q32 98 32 225q0 306 -102 471z" />
<glyph unicode="&#xd7;" horiz-adv-x="760" d="M88 875l51 36l15 -17l-34 -24l178 -177l-21 -19zM97 456l221 215l22 -21l-196 -195l15 -17l-25 -25zM154 921l17 11l210 -198l204 206l92 -84l-205 -208l198 -186l-55 -52l-29 30l29 20l-190 190l197 207l-39 46l-200 -210zM161 386l222 222l212 -212l-34 -23l-180 190 l-209 -195z" />
<glyph unicode="&#xd8;" horiz-adv-x="1180" d="M60 650q0 119 44 241l14 -5q-38 -106 -38 -236q0 -255 140 -409l-20 -26q-140 163 -140 435zM140 650q0 180 77 305q-32 -98 -32 -225q0 -306 102 -471q-147 138 -147 391zM165 107l79 109q134 -126 336 -126q225 0 362.5 154t137.5 406q0 253 -139 408l21 26 q158 -158 158 -434q0 -268 -149 -434t-391 -166q-205 0 -340 123l-59 -78zM242 1102q141 128 338 128q190 0 324 -97l74 102l32 -24l-94 -128q-133 127 -336 127q-197 0 -327 -118zM245 730q0 200 80 307l12 -10q-72 -96 -72 -297q0 -105 17 -197t53 -171t101 -125.5 t152 -46.5q136 0 211.5 91.5t75.5 288.5q0 85 -8 160.5t-29 151.5t-54.5 130.5t-87.5 88.5t-124 34v15q167 0 255 -148.5t88 -431.5q0 -205 -83.5 -312.5t-243.5 -107.5q-167 0 -255 148.5t-88 431.5zM356 372l415 576l16 -37l-415 -560zM873 1041q147 -138 147 -391 q0 -180 -77 -305q32 98 32 225q0 306 -102 471z" />
<glyph unicode="&#xd9;" horiz-adv-x="1360" d="M40 1110v20h120q81 0 100.5 -19.5t19.5 -100.5v-520q0 -180 113 -290t297 -110q176 0 283 110t107 290l4 520q1 81 20 100.5t100 19.5h116v-20l-122 -2q-57 -2 -73 -20t-16 -76l6 -522v-7q0 -193 -117 -303t-308 -110q-204 0 -327 113t-123 307v520q-2 59 -13 72.5 t-67 17.5zM40 1170v20l640 20l-1 -40h-639zM329 1110h62q-11 -44 -11 -100v-580q0 -84 23 -150q-63 86 -63 210v533q0 43 -11 87zM440 530v480q0 29 1 46.5t6 32.5t12 22t22 12t32.5 6t46.5 1h119v-20l-123 -5q-30 -1 -46 -4.5t-25.5 -15t-12 -27t-2.5 -46.5l3 -482h-33z M451 329l19 7q40 -166 220 -166q130 0 210 88t80 232l4 519v14q0 48 -13 60t-67 17l-124 10v20h124q28 0 45 -1t32 -5.5t22 -11.5t12.5 -20t7 -30t1.5 -43v-10l-4 -519q0 -101 -41 -178.5t-116 -119.5t-173 -42q-97 0 -157.5 45.5t-81.5 133.5zM453 1562q0 23 26 44l33 28 q25 17 46 17q32 0 53 -25l216 -285l-70 -46l-14 10l48 39l-220 263q-9 11 -22 11q-10 0 -20 -8l-35 -30q-12 -9 -12 -22q0 -9 8 -19l29 -34l216 -169l-13 -15l-211 155l-34 37q-24 30 -24 49zM780 1170v20l540 20v-40h-540z" />
<glyph unicode="&#xda;" horiz-adv-x="1360" d="M40 1110v20h120q81 0 100.5 -19.5t19.5 -100.5v-520q0 -180 113 -290t297 -110q176 0 283 110t107 290l4 520q1 81 20 100.5t100 19.5h116v-20l-122 -2q-57 -2 -73 -20t-16 -76l6 -522v-7q0 -193 -117 -303t-308 -110q-204 0 -327 113t-123 307v520q-2 59 -13 72.5 t-67 17.5zM40 1170v20l640 20l-1 -40h-639zM329 1110h62q-11 -44 -11 -100v-580q0 -84 23 -150q-63 86 -63 210v533q0 43 -11 87zM440 530v480q0 29 1 46.5t6 32.5t12 22t22 12t32.5 6t46.5 1h119v-20l-123 -5q-30 -1 -46 -4.5t-25.5 -15t-12 -27t-2.5 -46.5l3 -482h-33z M451 329l19 7q40 -166 220 -166q130 0 210 88t80 232l4 519v14q0 48 -13 60t-67 17l-124 10v20h124q28 0 45 -1t32 -5.5t22 -11.5t12.5 -20t7 -30t1.5 -43v-10l-4 -519q0 -101 -41 -178.5t-116 -119.5t-173 -42q-97 0 -157.5 45.5t-81.5 133.5zM541 1343l8 11q3 -2 44 -37 l240 188l29 34q8 10 8 19q0 13 -12 22l-35 30q-10 8 -20 8q-13 0 -22 -11l-209 -250l-11 10l189 256q21 25 53 25q21 0 46 -17l36 -25q26 -21 26 -44q0 -19 -24 -49l-34 -37l-261 -191zM780 1170v20l540 20v-40h-540z" />
<glyph unicode="&#xdb;" horiz-adv-x="1360" d="M40 1110v20h120q81 0 100.5 -19.5t19.5 -100.5v-520q0 -180 113 -290t297 -110q176 0 283 110t107 290l4 520q1 81 20 100.5t100 19.5h116v-20l-122 -2q-57 -2 -73 -20t-16 -76l6 -522v-7q0 -193 -117 -303t-308 -110q-204 0 -327 113t-123 307v520q-2 59 -13 72.5 t-67 17.5zM40 1170v20l640 20l-1 -40h-639zM329 1110h62q-11 -44 -11 -100v-580q0 -84 23 -150q-63 86 -63 210v533q0 43 -11 87zM382 1414l267 252l72 -6l267 -246l-101 -109l-103 129q-12 13 -29.5 35.5t-30.5 33.5l11 16q9 -10 18.5 -20.5t23 -25t25.5 -27.5l85 -96 l56 62l-231 226h-64l-231 -226l56 -62l85 96q13 15 35 38t32.5 34.5t23 26.5t18.5 25.5t8 20.5h10l10 -54q-15 -18 -57 -63.5t-50 -54.5l-115 -119zM440 530v480q0 29 1 46.5t6 32.5t12 22t22 12t32.5 6t46.5 1h119v-20l-123 -5q-30 -1 -46 -4.5t-25.5 -15t-12 -27 t-2.5 -46.5l3 -482h-33zM451 329l19 7q40 -166 220 -166q130 0 210 88t80 232l4 519v14q0 48 -13 60t-67 17l-124 10v20h124q28 0 45 -1t32 -5.5t22 -11.5t12.5 -20t7 -30t1.5 -43v-10l-4 -519q0 -101 -41 -178.5t-116 -119.5t-173 -42q-97 0 -157.5 45.5t-81.5 133.5z M780 1170v20l540 20v-40h-540z" />
<glyph unicode="&#xdc;" horiz-adv-x="1360" d="M40 1110v20h120q81 0 100.5 -19.5t19.5 -100.5v-520q0 -180 113 -290t297 -110q176 0 283 110t107 290l4 520q1 81 20 100.5t100 19.5h116v-20l-122 -2q-57 -2 -73 -20t-16 -76l6 -522v-7q0 -193 -117 -303t-308 -110q-204 0 -327 113t-123 307v520q-2 59 -13 72.5 t-67 17.5zM40 1170v20l640 20l-1 -40h-639zM329 1110h62q-11 -44 -11 -100v-580q0 -84 23 -150q-63 86 -63 210v533q0 43 -11 87zM350 1498h40q0 -45 27.5 -72.5t72.5 -27.5q31 0 54 12.5t34.5 35t11.5 52.5q0 23 -7.5 42t-20.5 31.5t-31.5 19.5t-40.5 7q-70 0 -93 -59 l-17 7q27 73 110 73q56 0 90.5 -33t34.5 -88q0 -58 -34.5 -94t-90.5 -36q-63 0 -101.5 36t-38.5 94zM440 530v480q0 29 1 46.5t6 32.5t12 22t22 12t32.5 6t46.5 1h119v-20l-123 -5q-30 -1 -46 -4.5t-25.5 -15t-12 -27t-2.5 -46.5l3 -482h-33zM451 329l19 7q40 -166 220 -166 q130 0 210 88t80 232l4 519v14q0 48 -13 60t-67 17l-124 10v20h124q28 0 45 -1t32 -5.5t22 -11.5t12.5 -20t7 -30t1.5 -43v-10l-4 -519q0 -101 -41 -178.5t-116 -119.5t-173 -42q-97 0 -157.5 45.5t-81.5 133.5zM750 1498h40q0 -45 27.5 -72.5t72.5 -27.5q47 0 73.5 27.5 t26.5 72.5q0 47 -27.5 73.5t-72.5 26.5q-70 0 -93 -59l-17 7q27 73 110 73q56 0 90.5 -33t34.5 -88q0 -58 -34.5 -94t-90.5 -36q-63 0 -101.5 36t-38.5 94zM780 1170v20l540 20v-40h-540z" />
<glyph unicode="&#xdd;" horiz-adv-x="1280" d="M20 1110v20h133q54 0 76 -21.5t58 -94.5q7 -13 10 -20l273 -543v-201q0 -56 -11 -67t-69 -13h-200v20l205 10q29 1 34 6.5t6 33.5l5 207l-269 539q-6 11 -15 29q-32 62 -44.5 74t-48.5 15zM20 1170v20l550 20l-1 -40h-549zM290 110v20h720v-40zM319 1083q4 -2 14 -5.5 t12.5 -4.5t9.5 -4.5t10 -7t8.5 -9t10 -13.5t11 -18.5t13.5 -25.5l263 -519v-43q0 -114 -1 -143v-13q0 -43 11 -87h-62q11 44 11 100v175q-24 47 -137 272.5t-174 345.5zM374 1126v4h194v-20l-120 -4q36 -79 110 -221.5t85 -164.5l-22 -14l-159 316q-25 49 -44.5 72t-43.5 32 zM491 1343l8 11q3 -2 44 -37l240 188l29 34q8 10 8 19q0 13 -12 22l-35 30q-10 8 -20 8q-13 0 -22 -11l-209 -250l-11 10l189 256q21 25 53 25q21 0 46 -17l36 -25q26 -21 26 -44q0 -19 -24 -49l-34 -37l-261 -191zM675 599l215 416q22 43 22 61q0 12 -9.5 17t-29.5 5 q-3 0 -9 -0.5t-10 -0.5l-156 -7v40h144q37 0 58 -3.5t33 -14t12 -29.5q0 -31 -31 -93l-183 -370q-23 -45 -30 -71zM698 1170v20l562 20l-1 -40h-561zM730 250v237l252 503q1 2 2 5q15 29 22 42t17.5 32t16.5 25.5t15 16t18 12.5t20.5 5t26.5 2h140v-20l-140 -10 q-29 -2 -42 -18t-48 -86q-8 -15 -12 -24l-248 -494v-238q0 -15 0.5 -21.5t6 -11t11.5 -5.5t22 -2l200 -10v-20h-200q-56 0 -67 11t-13 69z" />
<glyph unicode="&#xde;" horiz-adv-x="1220" d="M40 110v20h680v-40zM40 170v20l144 5q57 2 71.5 18.5t14.5 74.5l-10 722q-1 57 -12 69.5t-68 20.5l-140 10v20h140q81 0 100.5 -19.5t19.5 -100.5v-720q0 -81 -19.5 -100.5t-100.5 -19.5h-140zM40 1170v20l680 20v-40h-680zM349 190q11 44 11 100v720q0 38 -3 64 q43 -39 43 -84v-713q0 -43 11 -87h-62zM460 290v20h20l2 -30q3 -44 15 -61.5t43 -18.5l180 -10v-20h-180q-27 0 -44 7t-24.5 25t-9.5 36t-2 52zM460 350v20h180q219 0 349.5 84.5t130.5 235.5q0 75 -34.5 135.5t-97.5 101t-151.5 62t-196.5 21.5h-120v20l119 7q36 2 53 2 q212 0 340 -94.5t128 -254.5q0 -162 -131 -256.5t-348 -94.5q-27 0 -41 1zM460 430v400h20l10 -370h140q290 0 290 230q0 124 -73 182t-217 58h-170v20h170q159 0 239.5 -63t80.5 -197q0 -90 -37 -148t-107 -85t-176 -27h-170zM460 1010v35q0 49 12 67t58 18h180v-20 l-180 -10q-29 -1 -36 -12.5t-12 -57.5l-2 -20h-20zM960 497q50 79 50 193t-50 193q100 -75 100 -193t-100 -193z" />
<glyph unicode="&#xdf;" horiz-adv-x="1290" d="M40 111v19l370 -10v17q-10 88 -10 120v713q0 88 52.5 134t152.5 46q74 0 140 -29.5t113 -79.5l-237 -279l-26 28l228 249q-108 76 -218 76q-172 0 -175 -135l-5 -723q0 -25 10 -115v-53zM40 170v20l80 2q65 0 81 16.5t16 84.5l-2 396l-155 10v20h180v-429 q0 -81 -19.5 -100.5t-100.5 -19.5h-80zM60 779v40l150 -10l-2 81q0 158 113.5 254t299.5 96q222 -4 358 -140q17 -19 28 -28l-16 -16l-21 21l-12 12t-24 21t-34 25t-48 27.5t-60.5 23.5t-77.5 17.5t-93 6.5q-172 0 -276.5 -88t-104.5 -232v-111h-180zM287 184q13 26 13 106 v600q0 86 48 149q-8 -34 -8 -69v-713q0 -43 4 -75zM562 752l16 18l25 -29q39 -51 91.5 -95t100 -72t96 -57.5t83 -53.5t56.5 -58.5t22 -74.5q0 -88 -44 -134t-128 -46q-119 0 -174.5 67.5t-55.5 202.5v40h40l-5 -40q0 -130 52 -190t143 -60q41 0 73 18t50.5 55t18.5 87 q0 38 -29 71t-78.5 64.5t-104.5 64.5t-119 85t-110 112zM570 50l20 410h20v-410h-40zM650 50v151q3 -3 9 -10q23 -26 37 -39t40.5 -30t61.5 -24.5t82 -7.5q148 0 239 72.5t91 191.5q0 54 -20.5 97t-53.5 71.5t-81 60t-96.5 59.5t-107 73.5t-105.5 97.5l209 246l22 -19 l-193 -211l29 -28q34 -32 74.5 -62.5t74 -52.5t69.5 -45.5t64.5 -43.5t54.5 -46t43 -53t27 -64t10 -80q0 -137 -93 -215.5t-257 -78.5q-100 0 -158 45l-48 36l-4 -91h-20zM682 741l23 28q57 -62 126.5 -113.5t122 -81.5t99.5 -61.5t72 -69.5t25 -89q0 -80 -58 -135 q20 48 20 111q0 42 -15 77.5t-41.5 62.5t-60 50.5t-74.5 48t-80.5 48t-82.5 56.5t-76 68z" />
<glyph unicode="&#xe0;" d="M20 110v20h540v-40zM20 170v20l106 3q36 0 57 20t47 82l385 915l117 13v-33h-101l-374 -900q-35 -84 -53.5 -102t-77.5 -18h-106zM302 219q0 23 19 70l50 121h468l14 -37l-465 17l-41 -127q-6 -17 -6 -29q0 -40 75 -40l144 -4v-20h-144q-62 0 -88 10.5t-26 38.5zM396 470 l148 356l18 -5l-126 -331l338 6l-176 457l14 80h18v-3q-1 -2 -1 -10q0 -42 18 -89l170 -461h-421zM433 1562q0 23 26 44l33 28q26 17 46 17q32 0 53 -25l216 -285l-70 -46l-14 10l48 39l-220 263q-9 11 -22 11q-10 0 -20 -8l-35 -30q-12 -9 -12 -22q0 -9 8 -19l29 -34 l216 -169l-13 -15l-211 155l-34 37q-24 30 -24 49zM689 1013l1 1v79l12 3q6 -37 22 -84l275 -744q4 -9 8 -18.5t8 -18.5t6 -14q-4 2 -10.5 4t-10 3.5t-8.5 3.5t-8 4.5t-7 5.5t-7 7t-6.5 9t-6.5 11.5t-6 14.5q-49 133 -143 388t-105 284q-12 32 -14 61zM730 110v20h570v-40z M730 170v20l175 6q-8 17 -16.5 38t-15 38t-15 40t-14.5 39h17l34 -92q24 -67 70 -85v-4h-235zM757 1157q0 3 0.5 10t0.5 11v42h26q-5 -45 -5 -69q0 -49 22 -105l291 -743q27 -69 43 -88t54 -20l111 -5v-20h-114q-13 0 -22.5 0.5t-18.5 2t-15 3t-13 6t-11 8t-10 12t-9.5 14.5 t-9.5 20t-10 24l-12 30l-275 742q-23 65 -23 125z" />
<glyph unicode="&#xe1;" d="M20 110v20h540v-40zM20 170v20l106 3q36 0 57 20t47 82l385 915l117 13v-33h-101l-374 -900q-35 -84 -53.5 -102t-77.5 -18h-106zM302 219q0 23 19 70l50 121h468l14 -37l-465 17l-41 -127q-6 -17 -6 -29q0 -40 75 -40l144 -4v-20h-144q-62 0 -88 10.5t-26 38.5zM396 470 l148 356l18 -5l-126 -331l338 6l-176 457l14 80h18v-3q-1 -2 -1 -10q0 -42 18 -89l170 -461h-421zM551 1343l8 11q3 -2 44 -37l240 188l29 34q8 10 8 19q0 13 -12 22l-35 30q-10 8 -20 8q-13 0 -22 -11l-209 -250l-11 10l189 256q21 25 53 25q21 0 46 -17l36 -25 q26 -21 26 -44q0 -19 -24 -49l-34 -37l-261 -191zM689 1013l1 1v79l12 3q6 -37 22 -84l275 -744q4 -9 8 -18.5t8 -18.5t6 -14q-4 2 -10.5 4t-10 3.5t-8.5 3.5t-8 4.5t-7 5.5t-7 7t-6.5 9t-6.5 11.5t-6 14.5q-49 133 -143 388t-105 284q-12 32 -14 61zM730 110v20h570v-40z M730 170v20l175 6q-8 17 -16.5 38t-15 38t-15 40t-14.5 39h17l34 -92q24 -67 70 -85v-4h-235zM757 1157q0 3 0.5 10t0.5 11v42h26q-5 -45 -5 -69q0 -49 22 -105l291 -743q27 -69 43 -88t54 -20l111 -5v-20h-114q-13 0 -22.5 0.5t-18.5 2t-15 3t-13 6t-11 8t-10 12t-9.5 14.5 t-9.5 20t-10 24l-12 30l-275 742q-23 65 -23 125z" />
<glyph unicode="&#xe2;" d="M20 110v20h540v-40zM20 170v20l106 3q36 0 57 20t47 82l385 915l117 13v-33h-101l-374 -900q-35 -84 -53.5 -102t-77.5 -18h-106zM302 219q0 23 19 70l50 121h468l14 -37l-465 17l-41 -127q-6 -17 -6 -29q0 -40 75 -40l144 -4v-20h-144q-62 0 -88 10.5t-26 38.5z M372 1414l267 252l72 -6l267 -246l-101 -109l-103 129q-12 13 -29.5 35.5t-30.5 33.5l11 16q11 -13 33.5 -36.5t33.5 -36.5l85 -96l56 62l-231 226h-64l-231 -226l56 -62l85 96q13 15 35 38t32.5 34.5t23 26.5t18.5 25.5t8 20.5h10l10 -54q-15 -18 -57 -63.5t-50 -54.5 l-115 -119zM396 470l148 356l18 -5l-126 -331l338 6l-176 457l14 80h18v-3q-1 -2 -1 -10q0 -42 18 -89l170 -461h-421zM689 1013l1 1v79l12 3q6 -37 22 -84l275 -744q4 -9 8 -18.5t8 -18.5t6 -14q-4 2 -10.5 4t-10 3.5t-8.5 3.5t-8 4.5t-7 5.5t-7 7t-6.5 9t-6.5 11.5 t-6 14.5q-49 133 -143 388t-105 284q-12 32 -14 61zM730 110v20h570v-40zM730 170v20l175 6q-8 17 -16.5 38t-15 38t-15 40t-14.5 39h17l34 -92q24 -67 70 -85v-4h-235zM757 1157q0 3 0.5 10t0.5 11v42h26q-5 -45 -5 -69q0 -49 22 -105l291 -743q27 -69 43 -88t54 -20 l111 -5v-20h-114q-13 0 -22.5 0.5t-18.5 2t-15 3t-13 6t-11 8t-10 12t-9.5 14.5t-9.5 20t-10 24l-12 30l-275 742q-23 65 -23 125z" />
<glyph unicode="&#xe3;" d="M20 110v20h540v-40zM20 170v20l106 3q36 0 57 20t47 82l385 915l117 13v-33h-101l-374 -900q-35 -84 -53.5 -102t-77.5 -18h-106zM296 1360l26 107q23 94 64.5 135t104.5 41q53 0 117 -27.5t111 -60t92.5 -60t66.5 -27.5q10 0 16.5 2.5t14.5 14.5t14 35l25 108l39 -10 l-28 -106q-22 -82 -84 -82q-34 0 -85.5 29.5t-97.5 64.5t-102.5 64.5t-98.5 29.5q-105 0 -148 -156l-29 -107zM302 219q0 23 19 70l50 121h468l14 -37l-465 17l-41 -127q-6 -17 -6 -29q0 -40 75 -40l144 -4v-20h-144q-62 0 -88 10.5t-26 38.5zM373 1341l28 107q19 72 75 72 q32 0 83 -29.5t97 -65.5t103 -65.5t100 -29.5q113 0 158 168l28 107l19 -5l-26 -107q-27 -102 -70 -145t-108 -43q-54 0 -119 28t-112 62t-92 62t-64 28q-8 0 -13 -2t-11.5 -11.5t-11.5 -28.5l-25 -111zM396 470l148 356l18 -5l-126 -331l338 6l-176 457l14 80h18v-3 q-1 -2 -1 -10q0 -42 18 -89l170 -461h-421zM429 1550q27 28 62 28q32 0 82 -29.5t95.5 -64.5t103.5 -64.5t103 -29.5q30 0 54 13q-29 -33 -70 -33q-28 0 -65.5 19.5t-75.5 47.5t-78 56t-83.5 47.5t-80.5 19.5q-27 0 -47 -10zM689 1013l1 1v79l12 3q6 -37 22 -84l275 -744 q4 -9 8 -18.5t8 -18.5t6 -14q-4 2 -10.5 4t-10 3.5t-8.5 3.5t-8 4.5t-7 5.5t-7 7t-6.5 9t-6.5 11.5t-6 14.5q-49 133 -143 388t-105 284q-12 32 -14 61zM730 110v20h570v-40zM730 170v20l175 6q-8 17 -16.5 38t-15 38t-15 40t-14.5 39h17l34 -92q24 -67 70 -85v-4h-235z M757 1157q0 3 0.5 10t0.5 11v42h26q-5 -45 -5 -69q0 -49 22 -105l291 -743q27 -69 43 -88t54 -20l111 -5v-20h-114q-13 0 -22.5 0.5t-18.5 2t-15 3t-13 6t-11 8t-10 12t-9.5 14.5t-9.5 20t-10 24l-12 30l-275 742q-23 65 -23 125z" />
<glyph unicode="&#xe4;" d="M20 110v20h540v-40zM20 170v20l106 3q36 0 57 20t47 82l385 915l117 13v-33h-101l-374 -900q-35 -84 -53.5 -102t-77.5 -18h-106zM302 219q0 23 19 70l50 121h468l14 -37l-465 17l-41 -127q-6 -17 -6 -29q0 -40 75 -40l144 -4v-20h-144q-62 0 -88 10.5t-26 38.5z M340 1498h40q0 -45 27.5 -72.5t72.5 -27.5q47 0 73.5 27.5t26.5 72.5q0 47 -27.5 73.5t-72.5 26.5q-70 0 -93 -59l-17 7q27 73 110 73q56 0 90.5 -33t34.5 -88q0 -58 -34.5 -94t-90.5 -36q-63 0 -101.5 36t-38.5 94zM396 470l148 356l18 -5l-126 -331l338 6l-176 457l14 80 h18v-3q-1 -2 -1 -10q0 -42 18 -89l170 -461h-421zM689 1013l1 1v79l12 3q6 -37 22 -84l275 -744q4 -9 8 -18.5t8 -18.5t6 -14q-4 2 -10.5 4t-10 3.5t-8.5 3.5t-8 4.5t-7 5.5t-7 7t-6.5 9t-6.5 11.5t-6 14.5q-49 133 -143 388t-105 284q-12 32 -14 61zM730 110v20h570v-40z M730 170v20l175 6q-8 17 -16.5 38t-15 38t-15 40t-14.5 39h17l34 -92q24 -67 70 -85v-4h-235zM740 1498h40q0 -45 27.5 -72.5t72.5 -27.5q31 0 54 12.5t34.5 35t11.5 52.5q0 23 -7.5 42t-20.5 31.5t-31.5 19.5t-40.5 7q-70 0 -93 -59l-17 7q27 73 110 73q56 0 90.5 -33 t34.5 -88q0 -58 -34.5 -94t-90.5 -36q-63 0 -101.5 36t-38.5 94zM757 1157q0 3 0.5 10t0.5 11v42h26q-5 -45 -5 -69q0 -49 22 -105l291 -743q27 -69 43 -88t54 -20l111 -5v-20h-114q-13 0 -22.5 0.5t-18.5 2t-15 3t-13 6t-11 8t-10 12t-9.5 14.5t-9.5 20t-10 24l-12 30 l-275 742q-23 65 -23 125z" />
<glyph unicode="&#xe5;" d="M20 110v20h540v-40zM20 170v20l106 3q36 0 57 20t47 82l389 937l25 -9l-387 -933q-34 -84 -53 -102t-78 -18h-106zM302 219q0 23 19 70l50 121h468l14 -37l-465 17l-41 -127q-6 -17 -6 -29q0 -40 75 -40l144 -4v-20h-144q-62 0 -88 10.5t-26 38.5zM396 470l148 356l18 -5 l-126 -331l338 6l-176 457l14 80h18v-3q-1 -2 -1 -10q0 -42 18 -89l170 -461h-421zM490 1378q0 81 55.5 138t134.5 57q75 0 135 -58t60 -137q0 -55 -31.5 -101.5t-84.5 -71.5l1 36q36 22 58.5 58t22.5 77q0 72 -50 119.5t-121 47.5q-59 0 -107 -48t-48 -107q0 -52 23.5 -91 t64.5 -59l-15 -33q-45 26 -71.5 72.5t-26.5 100.5zM552 1378q0 53 37.5 89.5t88.5 36.5q53 0 89.5 -37.5t36.5 -88.5q0 -53 -37.5 -89.5t-88.5 -36.5q-53 0 -89.5 37.5t-36.5 88.5zM572 1378q0 -44 31 -74.5t75 -30.5q38 0 65 30.5t27 74.5q0 41 -27 69.5t-65 28.5 q-44 0 -75 -28.5t-31 -69.5zM689 1013l1 1v79l12 3q6 -37 22 -84l275 -744q4 -9 8 -18.5t8 -18.5t6 -14q-4 2 -10.5 4t-10 3.5t-8.5 3.5t-8 4.5t-7 5.5t-7 7t-6.5 9t-6.5 11.5t-6 14.5q-49 133 -143 388t-105 284q-12 32 -14 61zM730 110v20h570v-40zM730 170v20l175 6 q-8 17 -16.5 38t-15 38t-15 40t-14.5 39h17l34 -92q24 -67 70 -85v-4h-235zM757 1157q0 3 0.5 9t0.5 10l24 8q-1 -13 -1 -36q0 -51 20 -102l291 -743q27 -69 43 -88t54 -20l111 -5v-20h-114q-13 0 -22.5 0.5t-18.5 2t-15 3t-13 6t-11 8t-10 12t-9.5 14.5t-9.5 20t-10 24 l-12 30l-275 742q-23 65 -23 125z" />
<glyph unicode="&#xe6;" horiz-adv-x="1820" d="M20 110v20h500v-40zM20 170v20l106 3q36 0 57 20t47 82l358 841l24 -1l-355 -845q-35 -84 -53.5 -102t-77.5 -18h-106zM302 219q0 23 19 70l50 121h529v-37l-512 17l-41 -127q-6 -17 -6 -29q0 -22 18.5 -30t56.5 -10l104 -4v-20h-104q-62 0 -88 10.5t-26 38.5zM396 470 l248 590l17 -5l-225 -565l431 6l-7 514q-2 59 -13 72.5t-67 17.5l-100 8v22h100q81 0 100.5 -19.5t19.5 -100.5v-540h-504zM470 1170v20l1087 20l3 -40h-1090zM680 110v20h941q26 0 37 4t23 16h1l-13 -191l-19 2l-2 129zM680 170v20l104 5q57 3 71.5 19t14.5 74l-1 55h31 v-53q0 -81 -19.5 -100.5t-100.5 -19.5h-100zM957 226q3 22 3 64v720q0 38 -3 64q43 -39 43 -84v-680q0 -45 -43 -84zM1010 190v4q50 50 50 116v253h20l10 -253q1 -22 -8 -54l-7 -26h385q37 0 57 0.5t45 3t37 6t27 11t21.5 17.5t13.5 26t10 35.5t5 46.5h20q-3 -44 -7.5 -71.5 t-15.5 -50t-25.5 -34t-42.5 -19t-60 -9.5t-85 -2h-450zM1010 1110h330q58 0 92 -2t63 -13t41.5 -23t23 -44.5t13.5 -64t7 -93.5l2 -40h-20l-2 38q-3 50 -7 79.5t-15 54t-22.5 35.5t-39.5 19t-55.5 10t-80.5 4l-305 10zM1060 610v20h118q29 0 46 -2.5t32 -11.5t22 -22t12 -40 t6.5 -59.5t1.5 -84.5h40v540h20l20 -580h-120v58q0 52 -1.5 78.5t-5 48t-14 29t-22.5 11t-37 5.5zM1060 690v300h20l20 -270h78q40 1 58 8.5t30 40t12 100.5l20 -1q-1 -81 -11.5 -117.5t-33.5 -48.5t-75 -12h-118zM1589 1343l19 2l55 -515h-41zM1709 -43l33 513h21l-13 -515 z" />
<glyph unicode="&#xe7;" horiz-adv-x="1140" d="M40 644q0 268 156 432t398 164q47 0 106.5 -14.5t100.5 -34.5l-8 -17q-98 36 -199 36q-224 0 -369 -156.5t-145 -409.5q0 -202 104.5 -344.5t278.5 -189.5l-4 -40q-189 49 -304 202.5t-115 371.5zM140 644q0 202 103 338q-58 -127 -58 -308q0 -242 93 -392 q-138 138 -138 362zM245 674q0 229 93 352.5t256 123.5q121 0 210.5 -68.5t106.5 -206.5l5 -86l-19 -1l-6 81q-15 125 -99.5 193t-197.5 68q-71 0 -126.5 -29t-89 -74t-55.5 -107t-30 -122t-8 -124q0 -72 9 -136.5t33.5 -129.5t62.5 -112t100.5 -76.5t143.5 -29.5 q100 0 182 50t134 142l18 31l35 -15l-18 -36q-57 -102 -148.5 -157t-202.5 -55q-182 0 -285.5 135.5t-103.5 388.5zM417 -459l8 30h41q150 0 254 61.5t104 154.5q0 71 -53 121t-143 50q-43 0 -76 -14l29 147q13 -1 39 -1q141 0 248.5 63t171.5 185l18 36l37 -17l-20 -38 q-69 -131 -185.5 -200t-269.5 -69q-13 0 -25 1l-11 -74q40 4 44 4q107 0 164 -53.5t57 -140.5q0 -79 -55 -136t-140 -83.5t-188 -26.5h-49zM433 -389l4 20h43q86 0 147 55.5t61 122.5q0 34 -19 55.5t-39 21.5q-46 0 -93 -29l-63 6l27 241l40 -7l-39 -200l28 -4q37 23 100 23 q39 0 61.5 -30t22.5 -77q0 -85 -70 -141.5t-170 -56.5h-41zM702 -332q52 63 52 141q0 40 -15 73q45 -39 45 -95q0 -69 -82 -119zM868 1307l40 2l8 -177l4 -40l-18 14zM948 1311l20 1l46 -520l-40 -1z" />
<glyph unicode="&#xe8;" horiz-adv-x="1220" d="M40 110v20h981q26 0 37 4t23 16h1l-13 -191l-19 2l-2 129zM40 170v20l144 5q57 2 71.5 18.5t14.5 74.5l-10 722q-1 57 -12 69.5t-68 20.5l-140 10v20h140q81 0 100.5 -19.5t19.5 -100.5v-720q0 -81 -19.5 -100.5t-100.5 -19.5h-140zM40 1170v20l917 20l3 -40h-920z M338 1562q0 23 26 44l33 28q25 17 46 17q32 0 53 -25l216 -285l-70 -46l-14 10l48 39l-220 263q-9 11 -22 11q-10 0 -20 -8l-35 -30q-12 -9 -12 -22q0 -9 8 -19l29 -34l216 -169l-13 -15l-211 155l-34 37q-24 30 -24 49zM357 226q3 22 3 64v720q0 38 -3 64q43 -39 43 -84 v-680q0 -45 -43 -84zM410 190v4q50 50 50 116v253h20l10 -253q1 -22 -8 -54l-7 -26h385q37 0 57 0.5t45 3t37 6t27 11t21.5 17.5t13.5 26t10 35.5t5 46.5h20q-3 -44 -7.5 -71.5t-15.5 -50t-25.5 -34t-42.5 -19t-60 -9.5t-85 -2h-450zM410 1110h330q58 0 92 -2t63 -13 t41.5 -23t23 -44.5t13.5 -64t7 -93.5l2 -40h-20l-2 38q-3 50 -7 79.5t-15 54t-22.5 35.5t-39.5 19t-55.5 10t-80.5 4l-305 10zM460 610v20h118q29 0 46 -2.5t32 -11.5t22 -22t12 -40t6.5 -59.5t1.5 -84.5h40v540h20l20 -580h-120v58q0 52 -1.5 78.5t-5 48t-14 29t-22.5 11 t-37 5.5zM460 690v300h20l20 -270h78q40 1 58 8.5t30 40t12 100.5l20 -1q-1 -81 -11.5 -117.5t-33.5 -48.5t-75 -12h-118zM989 1343l19 2l55 -515h-41zM1109 -43l33 513h21l-13 -515z" />
<glyph unicode="&#xe9;" horiz-adv-x="1220" d="M40 110v20h981q26 0 37 4t23 16h1l-13 -191l-19 2l-2 129zM40 170v20l144 5q57 2 71.5 18.5t14.5 74.5l-10 722q-1 57 -12 69.5t-68 20.5l-140 10v20h140q81 0 100.5 -19.5t19.5 -100.5v-720q0 -81 -19.5 -100.5t-100.5 -19.5h-140zM40 1170v20l917 20l3 -40h-920z M357 226q3 22 3 64v720q0 38 -3 64q43 -39 43 -84v-680q0 -45 -43 -84zM410 190v4q50 50 50 116v253h20l10 -253q1 -22 -8 -54l-7 -26h385q37 0 57 0.5t45 3t37 6t27 11t21.5 17.5t13.5 26t10 35.5t5 46.5h20q-3 -44 -7.5 -71.5t-15.5 -50t-25.5 -34t-42.5 -19t-60 -9.5 t-85 -2h-450zM410 1110h330q58 0 92 -2t63 -13t41.5 -23t23 -44.5t13.5 -64t7 -93.5l2 -40h-20l-2 38q-3 50 -7 79.5t-15 54t-22.5 35.5t-39.5 19t-55.5 10t-80.5 4l-305 10zM426 1343l8 11q3 -2 44 -37l240 188l29 34q8 10 8 19q0 13 -12 22l-35 30q-10 8 -20 8 q-13 0 -22 -11l-209 -250l-11 10l189 256q21 25 53 25q20 0 46 -17l36 -25q26 -21 26 -44q0 -19 -24 -49l-34 -37l-261 -191zM460 610v20h118q29 0 46 -2.5t32 -11.5t22 -22t12 -40t6.5 -59.5t1.5 -84.5h40v540h20l20 -580h-120v58q0 52 -1.5 78.5t-5 48t-14 29t-22.5 11 t-37 5.5zM460 690v300h20l20 -270h78q40 1 58 8.5t30 40t12 100.5l20 -1q-1 -81 -11.5 -117.5t-33.5 -48.5t-75 -12h-118zM989 1343l19 2l55 -515h-41zM1109 -43l33 513h21l-13 -515z" />
<glyph unicode="&#xea;" horiz-adv-x="1220" d="M40 110v20h981q26 0 37 4t23 16h1l-13 -191l-19 2l-2 129zM40 170v20l144 5q57 2 71.5 18.5t14.5 74.5l-10 722q-1 57 -12 69.5t-68 20.5l-140 10v20h140q81 0 100.5 -19.5t19.5 -100.5v-720q0 -81 -19.5 -100.5t-100.5 -19.5h-140zM40 1170v20l917 20l3 -40h-920z M267 1414l267 252l72 -6l267 -246l-101 -109l-103 129q-12 13 -29.5 35.5t-30.5 33.5l11 16q11 -13 33.5 -36.5t33.5 -36.5l85 -96l56 62l-231 226h-64l-231 -226l56 -62l85 96q13 15 35 38t32.5 34.5t23 26.5t18.5 25.5t8 20.5h10l10 -54q-15 -18 -57 -63.5t-50 -54.5 l-115 -119zM357 226q3 22 3 64v720q0 38 -3 64q43 -39 43 -84v-680q0 -45 -43 -84zM410 190v4q50 50 50 116v253h20l10 -253q1 -22 -8 -54l-7 -26h385q37 0 57 0.5t45 3t37 6t27 11t21.5 17.5t13.5 26t10 35.5t5 46.5h20q-3 -44 -7.5 -71.5t-15.5 -50t-25.5 -34t-42.5 -19 t-60 -9.5t-85 -2h-450zM410 1110h330q58 0 92 -2t63 -13t41.5 -23t23 -44.5t13.5 -64t7 -93.5l2 -40h-20l-2 38q-3 50 -7 79.5t-15 54t-22.5 35.5t-39.5 19t-55.5 10t-80.5 4l-305 10zM460 610v20h118q29 0 46 -2.5t32 -11.5t22 -22t12 -40t6.5 -59.5t1.5 -84.5h40v540h20 l20 -580h-120v58q0 52 -1.5 78.5t-5 48t-14 29t-22.5 11t-37 5.5zM460 690v300h20l20 -270h78q40 1 58 8.5t30 40t12 100.5l20 -1q-1 -81 -11.5 -117.5t-33.5 -48.5t-75 -12h-118zM989 1343l19 2l55 -515h-41zM1109 -43l33 513h21l-13 -515z" />
<glyph unicode="&#xeb;" horiz-adv-x="1220" d="M40 110v20h981q26 0 37 4t23 16h1l-13 -191l-19 2l-2 129zM40 170v20l144 5q57 2 71.5 18.5t14.5 74.5l-10 722q-1 57 -12 69.5t-68 20.5l-140 10v20h140q81 0 100.5 -19.5t19.5 -100.5v-720q0 -81 -19.5 -100.5t-100.5 -19.5h-140zM40 1170v20l917 20l3 -40h-920z M235 1498h40q0 -45 27.5 -72.5t72.5 -27.5q47 0 73.5 27.5t26.5 72.5q0 47 -27.5 73.5t-72.5 26.5q-70 0 -93 -59l-17 7q27 73 110 73q56 0 90.5 -33t34.5 -88q0 -58 -34.5 -94t-90.5 -36q-63 0 -101.5 36t-38.5 94zM357 226q3 22 3 64v720q0 38 -3 64q43 -39 43 -84v-680 q0 -45 -43 -84zM410 190v4q50 50 50 116v253h20l10 -253q1 -22 -8 -54l-7 -26h385q37 0 57 0.5t45 3t37 6t27 11t21.5 17.5t13.5 26t10 35.5t5 46.5h20q-3 -44 -7.5 -71.5t-15.5 -50t-25.5 -34t-42.5 -19t-60 -9.5t-85 -2h-450zM410 1110h330q58 0 92 -2t63 -13t41.5 -23 t23 -44.5t13.5 -64t7 -93.5l2 -40h-20l-2 38q-3 50 -7 79.5t-15 54t-22.5 35.5t-39.5 19t-55.5 10t-80.5 4l-305 10zM460 610v20h118q29 0 46 -2.5t32 -11.5t22 -22t12 -40t6.5 -59.5t1.5 -84.5h40v540h20l20 -580h-120v58q0 52 -1.5 78.5t-5 48t-14 29t-22.5 11t-37 5.5z M460 690v300h20l20 -270h78q40 1 58 8.5t30 40t12 100.5l20 -1q-1 -81 -11.5 -117.5t-33.5 -48.5t-75 -12h-118zM635 1498h40q0 -45 27.5 -72.5t72.5 -27.5q47 0 73.5 27.5t26.5 72.5q0 47 -27.5 73.5t-72.5 26.5q-70 0 -93 -59l-17 7q27 73 110 73q56 0 90.5 -33t34.5 -88 q0 -58 -34.5 -94t-90.5 -36q-63 0 -101.5 36t-38.5 94zM989 1343l19 2l55 -515h-41zM1109 -43l33 513h21l-13 -515z" />
<glyph unicode="&#xec;" horiz-adv-x="760" d="M40 110v20h680v-40zM40 170v20l144 5q57 2 71.5 18.5t14.5 74.5l-10 722q-1 57 -12 69.5t-68 20.5l-140 10v20h140q81 0 100.5 -19.5t19.5 -100.5v-720q0 -81 -19.5 -100.5t-100.5 -19.5h-140zM40 1170v20l680 20v-40h-680zM143 1562q0 23 26 44l33 28q26 17 46 17 q32 0 53 -25l216 -285l-70 -46l-14 10l48 39l-220 263q-9 11 -22 11q-10 0 -20 -8l-35 -30q-12 -9 -12 -22q0 -9 8 -19l29 -34l216 -169l-13 -15l-211 155l-34 37q-24 30 -24 49zM349 190q11 44 11 100v743q0 43 -11 87h62q-11 -44 -11 -100v-743q0 -43 11 -87h-62zM460 290 v720q0 29 1 46.5t6 32.5t12 22t22 12t32.5 6t46.5 1h140v-20l-144 -5q-30 -1 -46 -4.5t-25.5 -15t-12 -27t-2.5 -46.5l10 -722l1.5 -33t4 -22t7 -15t14.5 -8.5t21 -6.5t32 -5l140 -10v-20h-140q-29 0 -46.5 1t-32.5 6t-22 12t-12 22t-6 32.5t-1 46.5z" />
<glyph unicode="&#xed;" horiz-adv-x="760" d="M40 110v20h680v-40zM40 170v20l144 5q57 2 71.5 18.5t14.5 74.5l-10 722q-1 57 -12 69.5t-68 20.5l-140 10v20h140q81 0 100.5 -19.5t19.5 -100.5v-720q0 -81 -19.5 -100.5t-100.5 -19.5h-140zM40 1170v20l680 20v-40h-680zM231 1343l8 11q3 -2 44 -37l240 188l29 34 q8 10 8 19q0 13 -12 22l-35 30q-10 8 -20 8q-13 0 -22 -11l-209 -250l-11 10l189 256q21 25 53 25q21 0 46 -17l36 -25q26 -21 26 -44q0 -19 -24 -49l-34 -37l-261 -191zM349 190q11 44 11 100v743q0 43 -11 87h62q-11 -44 -11 -100v-743q0 -43 11 -87h-62zM460 290v720 q0 29 1 46.5t6 32.5t12 22t22 12t32.5 6t46.5 1h140v-20l-144 -5q-30 -1 -46 -4.5t-25.5 -15t-12 -27t-2.5 -46.5l10 -722l1.5 -33t4 -22t7 -15t14.5 -8.5t21 -6.5t32 -5l140 -10v-20h-140q-29 0 -46.5 1t-32.5 6t-22 12t-12 22t-6 32.5t-1 46.5z" />
<glyph unicode="&#xee;" horiz-adv-x="760" d="M40 110v20h680v-40zM40 170v20l144 5q57 2 71.5 18.5t14.5 74.5l-10 722q-1 57 -12 69.5t-68 20.5l-140 10v20h140q81 0 100.5 -19.5t19.5 -100.5v-720q0 -81 -19.5 -100.5t-100.5 -19.5h-140zM40 1170v20l680 20v-40h-680zM72 1414l267 252l72 -6l267 -246l-101 -109 l-103 129q-12 13 -29.5 35.5t-30.5 33.5l11 16q11 -13 33.5 -36.5t33.5 -36.5l85 -96l56 62l-231 226h-64l-231 -226l56 -62l85 96q13 15 35 38t32.5 34.5t23 26.5t18.5 25.5t8 20.5h10l10 -54q-15 -18 -57 -63.5t-50 -54.5l-115 -119zM349 190q11 44 11 100v743 q0 43 -11 87h62q-11 -44 -11 -100v-743q0 -43 11 -87h-62zM460 290v720q0 29 1 46.5t6 32.5t12 22t22 12t32.5 6t46.5 1h140v-20l-144 -5q-30 -1 -46 -4.5t-25.5 -15t-12 -27t-2.5 -46.5l10 -722l1.5 -33t4 -22t7 -15t14.5 -8.5t21 -6.5t32 -5l140 -10v-20h-140 q-29 0 -46.5 1t-32.5 6t-22 12t-12 22t-6 32.5t-1 46.5z" />
<glyph unicode="&#xef;" horiz-adv-x="760" d="M40 110v20h680v-40zM40 170v20l144 5q57 2 71.5 18.5t14.5 74.5l-10 722q-1 57 -12 69.5t-68 20.5l-140 10v20h140q81 0 100.5 -19.5t19.5 -100.5v-720q0 -81 -19.5 -100.5t-100.5 -19.5h-140zM40 1170v20l680 20v-40h-680zM40 1498h40q0 -45 27.5 -72.5t72.5 -27.5 q47 0 73.5 27.5t26.5 72.5q0 47 -27.5 73.5t-72.5 26.5q-70 0 -93 -59l-17 7q27 73 110 73q56 0 90.5 -33t34.5 -88q0 -58 -34.5 -94t-90.5 -36q-63 0 -101.5 36t-38.5 94zM349 190q11 44 11 100v743q0 43 -11 87h62q-11 -44 -11 -100v-743q0 -43 11 -87h-62zM440 1498h40 q0 -45 27.5 -72.5t72.5 -27.5q47 0 73.5 27.5t26.5 72.5q0 47 -27.5 73.5t-72.5 26.5q-70 0 -93 -59l-17 7q27 73 110 73q56 0 90.5 -33t34.5 -88q0 -59 -34.5 -94.5t-90.5 -35.5q-63 0 -101.5 35.5t-38.5 94.5zM460 290v720q0 29 1 46.5t6 32.5t12 22t22 12t32.5 6t46.5 1 h140v-20l-144 -5q-30 -1 -46 -4.5t-25.5 -15t-12 -27t-2.5 -46.5l10 -722l1.5 -33t4 -22t7 -15t14.5 -8.5t21 -6.5t32 -5l140 -10v-20h-140q-29 0 -46.5 1t-32.5 6t-22 12t-12 22t-6 32.5t-1 46.5z" />
<glyph unicode="&#xf0;" horiz-adv-x="1280" d="M40 110v20h620q243 0 391.5 143t148.5 377t-148.5 377t-391.5 143h-620v20l610 10h14q256 0 416 -152.5t160 -397.5q0 -243 -157.5 -396.5t-408.5 -153.5h-24zM40 170v20l144 5q55 2 70.5 17.5t15.5 66.5v9l-4 296l-166 6v20h200v-320q0 -81 -19.5 -100.5t-100.5 -19.5 h-140zM40 1110v20h140q81 0 100.5 -19.5t19.5 -100.5v-231l-37 3l-3 228q-1 57 -12 69.5t-68 20.5zM110 710v40l190 -7v-33h-190zM349 190q11 33 11 100v733q0 56 -11 87h9q1 -3 12 -15t20.5 -36t9.5 -59v-700q0 -30 -8 -51.5t-19 -37.5t-13 -21h-11zM420 190l17 25h213 q38 0 73.5 7t77 23.5t75.5 49t63 78.5t45 117t16 160q0 105 -24 186.5t-60 128t-84.5 76t-92 39.5t-89.5 10h-208l-22 20h230q185 0 282.5 -118t97.5 -342t-97.5 -342t-282.5 -118h-230zM460 300v310h220v-40l-188 5l8 -275h-40zM460 710v290l20 -1l8 -263l202 -6v-20h-230z M1015 321q75 129 75 329t-75 329q125 -123 125 -329t-125 -329z" />
<glyph unicode="&#xf1;" horiz-adv-x="1340" d="M40 110v20h560v-40zM40 170v20l124 5q57 2 71.5 18.5t14.5 74.5l-10 722q-1 57 -12 69.5t-68 20.5l-120 10v20h120q81 0 100.5 -19.5t19.5 -100.5v-720q0 -81 -19.5 -100.5t-100.5 -19.5h-120zM40 1170v20l391 16l482 -685l-14 -15l-485 664h-374zM246 1360l26 107 q23 94 64.5 135t104.5 41q53 0 117 -27.5t111 -60t92.5 -60t66.5 -27.5q10 0 16.5 2.5t14.5 14.5t14 35l25 108l39 -10l-28 -106q-22 -82 -84 -82q-34 0 -85.5 29.5t-97.5 64.5t-102.5 64.5t-98.5 29.5q-105 0 -148 -156l-29 -107zM323 1341l28 107q19 72 75 72 q32 0 83 -29.5t97 -65.5t103 -65.5t100 -29.5q113 0 158 168l28 107l19 -5l-26 -107q-27 -102 -70 -145t-108 -43q-54 0 -119 28t-112 62t-92 62t-64 28q-8 0 -13 -2t-11.5 -11.5t-11.5 -28.5l-25 -111zM340 290v726l30 -54l10 -672q2 -59 13 -72.5t67 -17.5l140 -10v-20 h-140q-81 0 -100.5 19.5t-19.5 100.5zM379 1550q27 28 62 28q32 0 82 -29.5t95.5 -64.5t103.5 -64.5t103 -29.5q30 0 54 13q-29 -33 -70 -33q-28 0 -65.5 19.5t-75.5 47.5t-78 56t-83.5 47.5t-80.5 19.5q-27 0 -47 -10zM400 877l18 15l573 -782h39v-35l-58 5zM400 1087 l500 -684q25 -35 31.5 -55t13.5 -74l-502 685q-30 45 -36.5 65.5t-6.5 62.5zM755 1110v20h125q81 0 100.5 -19.5t19.5 -100.5v-647l-26 34l-14 613q-2 59 -13 72.5t-67 17.5zM755 1170v20l545 20v-40h-545zM1060 73v937q0 81 19.5 100.5t100.5 19.5h120v-20l-124 -5 q-55 -2 -70.5 -17.5t-15.5 -66.5v-9l10 -942z" />
<glyph unicode="&#xf2;" horiz-adv-x="1180" d="M60 650q0 119 44 241l14 -5q-38 -106 -38 -236q0 -252 137.5 -406t362.5 -154t362.5 154t137.5 406t-137.5 406t-362.5 154q-197 0 -327 -118l-11 10q141 128 338 128q244 0 392 -157t148 -423q0 -268 -149 -434t-391 -166q-239 0 -379.5 164.5t-140.5 435.5zM140 650 q0 180 77 305q-32 -98 -32 -225q0 -306 102 -471q-147 138 -147 391zM245 730q0 200 80 307l12 -10q-72 -96 -72 -297q0 -105 17 -197t53 -171t101 -125.5t152 -46.5q136 0 211.5 91.5t75.5 288.5q0 85 -8 160.5t-29 151.5t-54.5 130.5t-87.5 88.5t-124 34v15 q167 0 255 -148.5t88 -431.5q0 -205 -83.5 -312.5t-243.5 -107.5q-167 0 -255 148.5t-88 431.5zM343 1562q0 23 26 44l33 28q26 17 46 17q32 0 53 -25l216 -285l-70 -46l-14 10l48 39l-220 263q-9 11 -22 11q-10 0 -20 -8l-35 -30q-12 -9 -12 -22q0 -9 8 -19l29 -34 l216 -169l-13 -15l-211 155l-34 37q-24 30 -24 49zM873 1041q147 -138 147 -391q0 -180 -77 -305q32 98 32 225q0 306 -102 471z" />
<glyph unicode="&#xf3;" horiz-adv-x="1180" d="M60 650q0 119 44 241l14 -5q-38 -106 -38 -236q0 -252 137.5 -406t362.5 -154t362.5 154t137.5 406t-137.5 406t-362.5 154q-197 0 -327 -118l-11 10q141 128 338 128q244 0 392 -157t148 -423q0 -268 -149 -434t-391 -166q-239 0 -379.5 164.5t-140.5 435.5zM140 650 q0 180 77 305q-32 -98 -32 -225q0 -306 102 -471q-147 138 -147 391zM245 730q0 200 80 307l12 -10q-72 -96 -72 -297q0 -105 17 -197t53 -171t101 -125.5t152 -46.5q136 0 211.5 91.5t75.5 288.5q0 85 -8 160.5t-29 151.5t-54.5 130.5t-87.5 88.5t-124 34v15 q167 0 255 -148.5t88 -431.5q0 -205 -83.5 -312.5t-243.5 -107.5q-167 0 -255 148.5t-88 431.5zM431 1343l8 11q3 -2 44 -37l240 188l29 34q8 10 8 19q0 13 -12 22l-35 30q-10 8 -20 8q-13 0 -22 -11l-209 -250l-11 10l189 256q21 25 53 25q21 0 46 -17l36 -25 q26 -21 26 -44q0 -19 -24 -49l-34 -37l-261 -191zM873 1041q147 -138 147 -391q0 -180 -77 -305q32 98 32 225q0 306 -102 471z" />
<glyph unicode="&#xf4;" horiz-adv-x="1180" d="M60 650q0 119 44 241l14 -5q-38 -106 -38 -236q0 -252 137.5 -406t362.5 -154t362.5 154t137.5 406t-137.5 406t-362.5 154q-197 0 -327 -118l-11 10q141 128 338 128q244 0 392 -157t148 -423q0 -268 -149 -434t-391 -166q-239 0 -379.5 164.5t-140.5 435.5zM140 650 q0 180 77 305q-32 -98 -32 -225q0 -306 102 -471q-147 138 -147 391zM245 730q0 200 80 307l12 -10q-72 -96 -72 -297q0 -105 17 -197t53 -171t101 -125.5t152 -46.5q136 0 211.5 91.5t75.5 288.5q0 85 -8 160.5t-29 151.5t-54.5 130.5t-87.5 88.5t-124 34v15 q167 0 255 -148.5t88 -431.5q0 -205 -83.5 -312.5t-243.5 -107.5q-167 0 -255 148.5t-88 431.5zM272 1414l267 252l72 -6l267 -246l-101 -109l-103 129q-12 13 -29.5 35.5t-30.5 33.5l11 16q11 -13 33.5 -36.5t33.5 -36.5l85 -96l56 62l-231 226h-64l-231 -226l56 -62l85 96 q13 15 35 38t32.5 34.5t23 26.5t18.5 25.5t8 20.5h10l10 -54q-15 -18 -57 -63.5t-50 -54.5l-115 -119zM873 1041q147 -138 147 -391q0 -180 -77 -305q32 98 32 225q0 306 -102 471z" />
<glyph unicode="&#xf5;" horiz-adv-x="1180" d="M60 650q0 119 44 241l14 -5q-38 -106 -38 -236q0 -252 137.5 -406t362.5 -154t362.5 154t137.5 406t-137.5 406t-362.5 154q-197 0 -327 -118l-11 10q141 128 338 128q244 0 392 -157t148 -423q0 -268 -149 -434t-391 -166q-239 0 -379.5 164.5t-140.5 435.5zM140 650 q0 180 77 305q-32 -98 -32 -225q0 -306 102 -471q-147 138 -147 391zM196 1360l26 107q23 94 64.5 135t104.5 41q53 0 117 -27.5t111 -60t92.5 -60t66.5 -27.5q10 0 16.5 2.5t14.5 14.5t14 35l25 108l39 -10l-28 -106q-22 -82 -84 -82q-34 0 -85.5 29.5t-97.5 64.5 t-102.5 64.5t-98.5 29.5q-105 0 -148 -156l-29 -107zM245 730q0 200 80 307l12 -10q-72 -96 -72 -297q0 -105 17 -197t53 -171t101 -125.5t152 -46.5q136 0 211.5 91.5t75.5 288.5q0 85 -8 160.5t-29 151.5t-54.5 130.5t-87.5 88.5t-124 34v15q167 0 255 -148.5t88 -431.5 q0 -205 -83.5 -312.5t-243.5 -107.5q-167 0 -255 148.5t-88 431.5zM273 1341l28 107q19 72 75 72q32 0 83 -29.5t97 -65.5t103 -65.5t100 -29.5q113 0 158 168l28 107l19 -5l-26 -107q-27 -102 -70 -145t-108 -43q-54 0 -119 28t-112 62t-92 62t-64 28q-8 0 -13 -2 t-11.5 -11.5t-11.5 -28.5l-25 -111zM329 1550q27 28 62 28q32 0 82 -29.5t95.5 -64.5t103.5 -64.5t103 -29.5q30 0 54 13q-29 -33 -70 -33q-28 0 -65.5 19.5t-75.5 47.5t-78 56t-83.5 47.5t-80.5 19.5q-27 0 -47 -10zM873 1041q147 -138 147 -391q0 -180 -77 -305 q32 98 32 225q0 306 -102 471z" />
<glyph unicode="&#xf6;" horiz-adv-x="1180" d="M60 650q0 119 44 241l14 -5q-38 -106 -38 -236q0 -252 137.5 -406t362.5 -154t362.5 154t137.5 406t-137.5 406t-362.5 154q-197 0 -327 -118l-11 10q141 128 338 128q244 0 392 -157t148 -423q0 -268 -149 -434t-391 -166q-239 0 -379.5 164.5t-140.5 435.5zM140 650 q0 180 77 305q-32 -98 -32 -225q0 -306 102 -471q-147 138 -147 391zM240 1498h40q0 -45 27.5 -72.5t72.5 -27.5q47 0 73.5 27.5t26.5 72.5q0 47 -27.5 73.5t-72.5 26.5q-70 0 -93 -59l-17 7q27 73 110 73q56 0 90.5 -33t34.5 -88q0 -58 -34.5 -94t-90.5 -36 q-63 0 -101.5 36t-38.5 94zM245 730q0 200 80 307l12 -10q-72 -96 -72 -297q0 -105 17 -197t53 -171t101 -125.5t152 -46.5q136 0 211.5 91.5t75.5 288.5q0 85 -8 160.5t-29 151.5t-54.5 130.5t-87.5 88.5t-124 34v15q167 0 255 -148.5t88 -431.5q0 -205 -83.5 -312.5 t-243.5 -107.5q-167 0 -255 148.5t-88 431.5zM640 1498h40q0 -45 27.5 -72.5t72.5 -27.5q47 0 73.5 27.5t26.5 72.5q0 47 -27.5 73.5t-72.5 26.5q-70 0 -93 -59l-17 7q27 73 110 73q56 0 90.5 -33t34.5 -88q0 -58 -34.5 -94t-90.5 -36q-63 0 -101.5 36t-38.5 94zM873 1041 q147 -138 147 -391q0 -180 -77 -305q32 98 32 225q0 306 -102 471z" />
<glyph unicode="&#xf7;" horiz-adv-x="1020" d="M54 580l10 62l23 -1l-7 -41h891l-7 -40zM68 660l4 20l905 20l-2 -76l-41 1l6 35h-872zM390 340q0 54 33 87t87 33q63 0 101.5 -33t38.5 -87q0 -63 -38.5 -101.5t-101.5 -38.5q-54 0 -87 38.5t-33 101.5zM390 940q0 54 33 87t87 33q63 0 101.5 -33t38.5 -87 q0 -63 -38.5 -101.5t-101.5 -38.5q-54 0 -87 38.5t-33 101.5zM410 340q0 -47 27.5 -73.5t72.5 -26.5q47 0 73.5 27.5t26.5 72.5q0 47 -27.5 73.5t-72.5 26.5q-47 0 -73.5 -27.5t-26.5 -72.5zM410 940q0 -47 27.5 -73.5t72.5 -26.5q47 0 73.5 27.5t26.5 72.5q0 47 -27.5 73.5 t-72.5 26.5q-47 0 -73.5 -27.5t-26.5 -72.5zM460 340q0 22 14 36t36 14q19 0 29.5 -14t10.5 -36q0 -40 -40 -40q-22 0 -36 11t-14 29zM460 940q0 22 14 36t36 14q19 0 29.5 -14t10.5 -36q0 -40 -40 -40q-22 0 -36 11t-14 29z" />
<glyph unicode="&#xf8;" horiz-adv-x="1180" d="M60 650q0 119 44 241l14 -5q-38 -106 -38 -236q0 -255 140 -409l-20 -26q-140 163 -140 435zM140 650q0 180 77 305q-32 -98 -32 -225q0 -306 102 -471q-147 138 -147 391zM165 107l79 109q134 -126 336 -126q225 0 362.5 154t137.5 406q0 253 -139 408l21 26 q158 -158 158 -434q0 -268 -149 -434t-391 -166q-205 0 -340 123l-59 -78zM242 1102q141 128 338 128q190 0 324 -97l74 102l32 -24l-94 -128q-133 127 -336 127q-197 0 -327 -118zM245 730q0 200 80 307l12 -10q-72 -96 -72 -297q0 -105 17 -197t53 -171t101 -125.5 t152 -46.5q136 0 211.5 91.5t75.5 288.5q0 85 -8 160.5t-29 151.5t-54.5 130.5t-87.5 88.5t-124 34v15q167 0 255 -148.5t88 -431.5q0 -205 -83.5 -312.5t-243.5 -107.5q-167 0 -255 148.5t-88 431.5zM356 372l415 576l16 -37l-415 -560zM873 1041q147 -138 147 -391 q0 -180 -77 -305q32 98 32 225q0 306 -102 471z" />
<glyph unicode="&#xf9;" horiz-adv-x="1360" d="M40 1110v20h120q81 0 100.5 -19.5t19.5 -100.5v-520q0 -180 113 -290t297 -110q176 0 283 110t107 290l4 520q1 81 20 100.5t100 19.5h116v-20l-122 -2q-57 -2 -73 -20t-16 -76l6 -522v-7q0 -193 -117 -303t-308 -110q-204 0 -327 113t-123 307v520q-2 59 -13 72.5 t-67 17.5zM40 1170v20l640 20l-1 -40h-639zM329 1110h62q-11 -44 -11 -100v-580q0 -84 23 -150q-63 86 -63 210v533q0 43 -11 87zM440 530v480q0 29 1 46.5t6 32.5t12 22t22 12t32.5 6t46.5 1h119v-20l-123 -5q-30 -1 -46 -4.5t-25.5 -15t-12 -27t-2.5 -46.5l3 -482h-33z M451 329l19 7q40 -166 220 -166q130 0 210 88t80 232l4 519v14q0 48 -13 60t-67 17l-124 10v20h124q28 0 45 -1t32 -5.5t22 -11.5t12.5 -20t7 -30t1.5 -43v-10l-4 -519q0 -101 -41 -178.5t-116 -119.5t-173 -42q-97 0 -157.5 45.5t-81.5 133.5zM453 1562q0 23 26 44l33 28 q25 17 46 17q32 0 53 -25l216 -285l-70 -46l-14 10l48 39l-220 263q-9 11 -22 11q-10 0 -20 -8l-35 -30q-12 -9 -12 -22q0 -9 8 -19l29 -34l216 -169l-13 -15l-211 155l-34 37q-24 30 -24 49zM780 1170v20l540 20v-40h-540z" />
<glyph unicode="&#xfa;" horiz-adv-x="1360" d="M40 1110v20h120q81 0 100.5 -19.5t19.5 -100.5v-520q0 -180 113 -290t297 -110q176 0 283 110t107 290l4 520q1 81 20 100.5t100 19.5h116v-20l-122 -2q-57 -2 -73 -20t-16 -76l6 -522v-7q0 -193 -117 -303t-308 -110q-204 0 -327 113t-123 307v520q-2 59 -13 72.5 t-67 17.5zM40 1170v20l640 20l-1 -40h-639zM329 1110h62q-11 -44 -11 -100v-580q0 -84 23 -150q-63 86 -63 210v533q0 43 -11 87zM440 530v480q0 29 1 46.5t6 32.5t12 22t22 12t32.5 6t46.5 1h119v-20l-123 -5q-30 -1 -46 -4.5t-25.5 -15t-12 -27t-2.5 -46.5l3 -482h-33z M451 329l19 7q40 -166 220 -166q130 0 210 88t80 232l4 519v14q0 48 -13 60t-67 17l-124 10v20h124q28 0 45 -1t32 -5.5t22 -11.5t12.5 -20t7 -30t1.5 -43v-10l-4 -519q0 -101 -41 -178.5t-116 -119.5t-173 -42q-97 0 -157.5 45.5t-81.5 133.5zM541 1343l8 11q3 -2 44 -37 l240 188l29 34q8 10 8 19q0 13 -12 22l-35 30q-10 8 -20 8q-13 0 -22 -11l-209 -250l-11 10l189 256q21 25 53 25q21 0 46 -17l36 -25q26 -21 26 -44q0 -19 -24 -49l-34 -37l-261 -191zM780 1170v20l540 20v-40h-540z" />
<glyph unicode="&#xfb;" horiz-adv-x="1360" d="M40 1110v20h120q81 0 100.5 -19.5t19.5 -100.5v-520q0 -180 113 -290t297 -110q176 0 283 110t107 290l4 520q1 81 20 100.5t100 19.5h116v-20l-122 -2q-57 -2 -73 -20t-16 -76l6 -522v-7q0 -193 -117 -303t-308 -110q-204 0 -327 113t-123 307v520q-2 59 -13 72.5 t-67 17.5zM40 1170v20l640 20l-1 -40h-639zM329 1110h62q-11 -44 -11 -100v-580q0 -84 23 -150q-63 86 -63 210v533q0 43 -11 87zM382 1414l267 252l72 -6l267 -246l-101 -109l-103 129q-12 13 -29.5 35.5t-30.5 33.5l11 16q9 -10 18.5 -20.5t23 -25t25.5 -27.5l85 -96 l56 62l-231 226h-64l-231 -226l56 -62l85 96q13 15 35 38t32.5 34.5t23 26.5t18.5 25.5t8 20.5h10l10 -54q-15 -18 -57 -63.5t-50 -54.5l-115 -119zM440 530v480q0 29 1 46.5t6 32.5t12 22t22 12t32.5 6t46.5 1h119v-20l-123 -5q-30 -1 -46 -4.5t-25.5 -15t-12 -27 t-2.5 -46.5l3 -482h-33zM451 329l19 7q40 -166 220 -166q130 0 210 88t80 232l4 519v14q0 48 -13 60t-67 17l-124 10v20h124q28 0 45 -1t32 -5.5t22 -11.5t12.5 -20t7 -30t1.5 -43v-10l-4 -519q0 -101 -41 -178.5t-116 -119.5t-173 -42q-97 0 -157.5 45.5t-81.5 133.5z M780 1170v20l540 20v-40h-540z" />
<glyph unicode="&#xfc;" horiz-adv-x="1360" d="M40 1110v20h120q81 0 100.5 -19.5t19.5 -100.5v-520q0 -180 113 -290t297 -110q176 0 283 110t107 290l4 520q1 81 20 100.5t100 19.5h116v-20l-122 -2q-57 -2 -73 -20t-16 -76l6 -522v-7q0 -193 -117 -303t-308 -110q-204 0 -327 113t-123 307v520q-2 59 -13 72.5 t-67 17.5zM40 1170v20l640 20l-1 -40h-639zM329 1110h62q-11 -44 -11 -100v-580q0 -84 23 -150q-63 86 -63 210v533q0 43 -11 87zM350 1498h40q0 -45 27.5 -72.5t72.5 -27.5q31 0 54 12.5t34.5 35t11.5 52.5q0 23 -7.5 42t-20.5 31.5t-31.5 19.5t-40.5 7q-70 0 -93 -59 l-17 7q27 73 110 73q56 0 90.5 -33t34.5 -88q0 -58 -34.5 -94t-90.5 -36q-63 0 -101.5 36t-38.5 94zM440 530v480q0 29 1 46.5t6 32.5t12 22t22 12t32.5 6t46.5 1h119v-20l-123 -5q-30 -1 -46 -4.5t-25.5 -15t-12 -27t-2.5 -46.5l3 -482h-33zM451 329l19 7q40 -166 220 -166 q130 0 210 88t80 232l4 519v14q0 48 -13 60t-67 17l-124 10v20h124q28 0 45 -1t32 -5.5t22 -11.5t12.5 -20t7 -30t1.5 -43v-10l-4 -519q0 -101 -41 -178.5t-116 -119.5t-173 -42q-97 0 -157.5 45.5t-81.5 133.5zM750 1498h40q0 -45 27.5 -72.5t72.5 -27.5q47 0 73.5 27.5 t26.5 72.5q0 47 -27.5 73.5t-72.5 26.5q-70 0 -93 -59l-17 7q27 73 110 73q56 0 90.5 -33t34.5 -88q0 -58 -34.5 -94t-90.5 -36q-63 0 -101.5 36t-38.5 94zM780 1170v20l540 20v-40h-540z" />
<glyph unicode="&#xfd;" horiz-adv-x="1280" d="M20 1110v20h133q54 0 76 -21.5t58 -94.5q7 -13 10 -20l273 -543v-201q0 -56 -11 -67t-69 -13h-200v20l205 10q29 1 34 6.5t6 33.5l5 207l-269 539q-6 11 -15 29q-32 62 -44.5 74t-48.5 15zM20 1170v20l550 20l-1 -40h-549zM290 110v20h720v-40zM319 1083q4 -2 14 -5.5 t12.5 -4.5t9.5 -4.5t10 -7t8.5 -9t10 -13.5t11 -18.5t13.5 -25.5l263 -519v-43q0 -114 -1 -143v-13q0 -43 11 -87h-62q11 44 11 100v175q-24 47 -137 272.5t-174 345.5zM374 1126v4h194v-20l-120 -4q36 -79 110 -221.5t85 -164.5l-22 -14l-159 316q-25 49 -44.5 72t-43.5 32 zM491 1343l8 11q3 -2 44 -37l240 188l29 34q8 10 8 19q0 13 -12 22l-35 30q-10 8 -20 8q-13 0 -22 -11l-209 -250l-11 10l189 256q21 25 53 25q21 0 46 -17l36 -25q26 -21 26 -44q0 -19 -24 -49l-34 -37l-261 -191zM675 599l215 416q22 43 22 61q0 12 -9.5 17t-29.5 5 q-3 0 -9 -0.5t-10 -0.5l-156 -7v40h144q37 0 58 -3.5t33 -14t12 -29.5q0 -31 -31 -93l-183 -370q-23 -45 -30 -71zM698 1170v20l562 20l-1 -40h-561zM730 250v237l252 503q1 2 2 5q15 29 22 42t17.5 32t16.5 25.5t15 16t18 12.5t20.5 5t26.5 2h140v-20l-140 -10 q-29 -2 -42 -18t-48 -86q-8 -15 -12 -24l-248 -494v-238q0 -15 0.5 -21.5t6 -11t11.5 -5.5t22 -2l200 -10v-20h-200q-56 0 -67 11t-13 69z" />
<glyph unicode="&#xfe;" horiz-adv-x="1220" d="M40 110v20h680v-40zM40 170v20l144 5q57 2 71.5 18.5t14.5 74.5l-10 722q-1 57 -12 69.5t-68 20.5l-140 10v20h140q81 0 100.5 -19.5t19.5 -100.5v-720q0 -81 -19.5 -100.5t-100.5 -19.5h-140zM40 1170v20l680 20v-40h-680zM349 190q11 44 11 100v720q0 38 -3 64 q43 -39 43 -84v-713q0 -43 11 -87h-62zM460 290v20h20l2 -30q3 -44 15 -61.5t43 -18.5l180 -10v-20h-180q-27 0 -44 7t-24.5 25t-9.5 36t-2 52zM460 350v20h180q219 0 349.5 84.5t130.5 235.5q0 75 -34.5 135.5t-97.5 101t-151.5 62t-196.5 21.5h-120v20l119 7q36 2 53 2 q212 0 340 -94.5t128 -254.5q0 -162 -131 -256.5t-348 -94.5q-27 0 -41 1zM460 430v400h20l10 -370h140q290 0 290 230q0 124 -73 182t-217 58h-170v20h170q159 0 239.5 -63t80.5 -197q0 -90 -37 -148t-107 -85t-176 -27h-170zM460 1010v35q0 49 12 67t58 18h180v-20 l-180 -10q-29 -1 -36 -12.5t-12 -57.5l-2 -20h-20zM960 497q50 79 50 193t-50 193q100 -75 100 -193t-100 -193z" />
<glyph unicode="&#xff;" horiz-adv-x="1280" d="M20 1110v20h133q54 0 76 -21.5t58 -94.5q7 -13 10 -20l273 -543v-201q0 -56 -11 -67t-69 -13h-200v20l205 10q29 1 34 6.5t6 33.5l5 207l-269 539q-6 11 -15 29q-32 62 -44.5 74t-48.5 15zM20 1170v20l550 20l-1 -40h-549zM290 110v20h720v-40zM300 1498h40 q0 -45 27.5 -72.5t72.5 -27.5q47 0 73.5 27.5t26.5 72.5q0 47 -27.5 73.5t-72.5 26.5q-70 0 -93 -59l-17 7q27 73 110 73q56 0 90.5 -33t34.5 -88q0 -58 -34.5 -94t-90.5 -36q-63 0 -101.5 36t-38.5 94zM319 1083q4 -2 14 -5.5t12.5 -4.5t9.5 -4.5t10 -7t8.5 -9t10 -13.5 t11 -18.5t13.5 -25.5l263 -519v-43q0 -114 -1 -143v-13q0 -43 11 -87h-62q11 44 11 100v175q-24 47 -137 272.5t-174 345.5zM374 1126v4h194v-20l-120 -4q36 -79 110 -221.5t85 -164.5l-22 -14l-159 316q-25 49 -44.5 72t-43.5 32zM675 599l215 416q22 43 22 61 q0 12 -9.5 17t-29.5 5q-3 0 -9 -0.5t-10 -0.5l-156 -7v40h144q37 0 58 -3.5t33 -14t12 -29.5q0 -31 -31 -93l-183 -370q-23 -45 -30 -71zM698 1170v20l562 20l-1 -40h-561zM700 1498h40q0 -45 27.5 -72.5t72.5 -27.5q31 0 54 12.5t34.5 35t11.5 52.5q0 23 -7.5 42 t-20.5 31.5t-31.5 19.5t-40.5 7q-70 0 -93 -59l-17 7q27 73 110 73q56 0 90.5 -33t34.5 -88q0 -59 -34.5 -94.5t-90.5 -35.5q-63 0 -101.5 35.5t-38.5 94.5zM730 250v237l252 503q1 2 2 5q15 29 22 42t17.5 32t16.5 25.5t15 16t18 12.5t20.5 5t26.5 2h140v-20l-140 -10 q-29 -2 -42 -18t-48 -86q-8 -15 -12 -24l-248 -494v-238q0 -15 0.5 -21.5t6 -11t11.5 -5.5t22 -2l200 -10v-20h-200q-56 0 -67 11t-13 69z" />
<glyph unicode="&#x152;" horiz-adv-x="1736" d="M60 650q0 119 44 241l14 -5q-38 -106 -38 -236q0 -252 137.5 -406t362.5 -154q52 0 100 9l86 -19q-86 -30 -186 -30q-239 0 -379.5 164.5t-140.5 435.5zM140 650q0 180 77 305q-32 -98 -32 -225q0 -306 102 -471q-147 138 -147 391zM242 1102q141 128 338 128 q146 0 263 -60h-59q-94 40 -204 40q-197 0 -327 -118zM245 730q0 200 80 307l12 -10q-72 -96 -72 -297q0 -82 10.5 -159t35 -149.5t61.5 -125.5t93.5 -85.5t126.5 -32.5q226 0 226 147q0 103 2 310t2 311q0 35 -7 62t-17 45.5t-30 32t-36.5 21t-48 12.5t-52 7t-59.5 5l-1 19 q279 0 279 -180v-640q0 -180 -261 -180q-167 0 -255.5 148.5t-88.5 431.5zM720 110l60 20h761q26 0 37 4t23 16h1l-13 -191l-19 2l-2 129zM840 1190l637 20l3 -40h-610zM907 226q3 22 3 64v720q0 38 -3 64q43 -39 43 -84v-680q0 -45 -43 -84zM960 190v4q50 50 50 116v253h20 l10 -253q1 -22 -8 -54l-7 -26h355q37 0 57 0.5t45 3t37 6t27 11t21.5 17.5t13.5 26t10 35.5t5 46.5h20q-3 -44 -7.5 -71.5t-15.5 -50t-25.5 -34t-42.5 -19t-60 -9.5t-85 -2h-420zM960 1110h300q58 0 92 -2t63 -13t41.5 -23t23 -44.5t13.5 -64t7 -93.5l2 -40h-20l-2 38 q-3 50 -7 79.5t-15 54t-22.5 35.5t-39.5 19t-55.5 10t-80.5 4l-275 10zM1010 610v20h108q29 0 46 -2.5t32 -11.5t22 -22t12 -40t6.5 -59.5t1.5 -84.5h40v540h20l20 -580h-120v58q0 52 -1.5 78.5t-5 48t-14 29t-22.5 11t-37 5.5zM1010 690v300h20l20 -270h68q40 1 58 8.5 t30 40t12 100.5l20 -1q-1 -81 -11.5 -117.5t-33.5 -48.5t-75 -12h-108zM1509 1343l19 2l55 -515h-41zM1629 -43l33 513h21l-13 -515z" />
<glyph unicode="&#x153;" horiz-adv-x="1736" d="M60 650q0 119 44 241l14 -5q-38 -106 -38 -236q0 -252 137.5 -406t362.5 -154q52 0 100 9l86 -19q-86 -30 -186 -30q-239 0 -379.5 164.5t-140.5 435.5zM140 650q0 180 77 305q-32 -98 -32 -225q0 -306 102 -471q-147 138 -147 391zM242 1102q141 128 338 128 q146 0 263 -60h-59q-94 40 -204 40q-197 0 -327 -118zM245 730q0 200 80 307l12 -10q-72 -96 -72 -297q0 -82 10.5 -159t35 -149.5t61.5 -125.5t93.5 -85.5t126.5 -32.5q226 0 226 147q0 103 2 310t2 311q0 35 -7 62t-17 45.5t-30 32t-36.5 21t-48 12.5t-52 7t-59.5 5l-1 19 q279 0 279 -180v-640q0 -180 -261 -180q-167 0 -255.5 148.5t-88.5 431.5zM720 110l60 20h761q26 0 37 4t23 16h1l-13 -191l-19 2l-2 129zM840 1190l637 20l3 -40h-610zM907 226q3 22 3 64v720q0 38 -3 64q43 -39 43 -84v-680q0 -45 -43 -84zM960 190v4q50 50 50 116v253h20 l10 -253q1 -22 -8 -54l-7 -26h355q37 0 57 0.5t45 3t37 6t27 11t21.5 17.5t13.5 26t10 35.5t5 46.5h20q-3 -44 -7.5 -71.5t-15.5 -50t-25.5 -34t-42.5 -19t-60 -9.5t-85 -2h-420zM960 1110h300q58 0 92 -2t63 -13t41.5 -23t23 -44.5t13.5 -64t7 -93.5l2 -40h-20l-2 38 q-3 50 -7 79.5t-15 54t-22.5 35.5t-39.5 19t-55.5 10t-80.5 4l-275 10zM1010 610v20h108q29 0 46 -2.5t32 -11.5t22 -22t12 -40t6.5 -59.5t1.5 -84.5h40v540h20l20 -580h-120v58q0 52 -1.5 78.5t-5 48t-14 29t-22.5 11t-37 5.5zM1010 690v300h20l20 -270h68q40 1 58 8.5 t30 40t12 100.5l20 -1q-1 -81 -11.5 -117.5t-33.5 -48.5t-75 -12h-108zM1509 1343l19 2l55 -515h-41zM1629 -43l33 513h21l-13 -515z" />
<glyph unicode="&#x178;" horiz-adv-x="1280" d="M20 1110v20h133q54 0 76 -21.5t58 -94.5q7 -13 10 -20l273 -543v-201q0 -56 -11 -67t-69 -13h-200v20l205 10q29 1 34 6.5t6 33.5l5 207l-269 539q-6 11 -15 29q-32 62 -44.5 74t-48.5 15zM20 1170v20l550 20l-1 -40h-549zM290 110v20h720v-40zM300 1498h40 q0 -45 27.5 -72.5t72.5 -27.5q47 0 73.5 27.5t26.5 72.5q0 47 -27.5 73.5t-72.5 26.5q-70 0 -93 -59l-17 7q27 73 110 73q56 0 90.5 -33t34.5 -88q0 -58 -34.5 -94t-90.5 -36q-63 0 -101.5 36t-38.5 94zM319 1083q4 -2 14 -5.5t12.5 -4.5t9.5 -4.5t10 -7t8.5 -9t10 -13.5 t11 -18.5t13.5 -25.5l263 -519v-43q0 -114 -1 -143v-13q0 -43 11 -87h-62q11 44 11 100v175q-24 47 -137 272.5t-174 345.5zM374 1126v4h194v-20l-120 -4q36 -79 110 -221.5t85 -164.5l-22 -14l-159 316q-25 49 -44.5 72t-43.5 32zM675 599l215 416q22 43 22 61 q0 12 -9.5 17t-29.5 5q-3 0 -9 -0.5t-10 -0.5l-156 -7v40h144q37 0 58 -3.5t33 -14t12 -29.5q0 -31 -31 -93l-183 -370q-23 -45 -30 -71zM698 1170v20l562 20l-1 -40h-561zM700 1498h40q0 -45 27.5 -72.5t72.5 -27.5q31 0 54 12.5t34.5 35t11.5 52.5q0 23 -7.5 42 t-20.5 31.5t-31.5 19.5t-40.5 7q-70 0 -93 -59l-17 7q27 73 110 73q56 0 90.5 -33t34.5 -88q0 -59 -34.5 -94.5t-90.5 -35.5q-63 0 -101.5 35.5t-38.5 94.5zM730 250v237l252 503q1 2 2 5q15 29 22 42t17.5 32t16.5 25.5t15 16t18 12.5t20.5 5t26.5 2h140v-20l-140 -10 q-29 -2 -42 -18t-48 -86q-8 -15 -12 -24l-248 -494v-238q0 -15 0.5 -21.5t6 -11t11.5 -5.5t22 -2l200 -10v-20h-200q-56 0 -67 11t-13 69z" />
<glyph unicode="&#x2c6;" horiz-adv-x="670" d="M32 1414l267 252l72 -6l267 -246l-101 -109l-103 129q-12 13 -29.5 35.5t-30.5 33.5l11 16q11 -13 33.5 -36.5t33.5 -36.5l85 -96l56 62l-231 226h-64l-231 -226l56 -62l85 96q13 15 35 38t32.5 34.5t23 26.5t18.5 25.5t8 20.5h10l10 -54q-15 -18 -57 -63.5t-50 -54.5 l-115 -119z" />
<glyph unicode="&#x2dc;" horiz-adv-x="950" d="M91 1360l26 107q23 94 64.5 135t104.5 41q53 0 117 -27.5t111 -60t92.5 -60t66.5 -27.5q10 0 16.5 2.5t14.5 14.5t14 35l25 108l39 -10l-28 -106q-22 -82 -84 -82q-34 0 -85.5 29.5t-97.5 64.5t-102.5 64.5t-98.5 29.5q-105 0 -148 -156l-29 -107zM168 1341l28 107 q19 72 75 72q32 0 83 -29.5t97 -65.5t103 -65.5t100 -29.5q113 0 158 168l28 107l19 -5l-26 -107q-27 -102 -70 -145t-108 -43q-54 0 -119 28t-112 62t-92 62t-64 28q-8 0 -13 -2t-11.5 -11.5t-11.5 -28.5l-25 -111zM224 1550q27 28 62 28q32 0 82 -29.5t95.5 -64.5 t103.5 -64.5t103 -29.5q30 0 54 13q-29 -33 -70 -33q-28 0 -65.5 19.5t-75.5 47.5t-78 56t-83.5 47.5t-80.5 19.5q-27 0 -47 -10z" />
<glyph unicode="&#x2000;" horiz-adv-x="833" />
<glyph unicode="&#x2001;" horiz-adv-x="1666" />
<glyph unicode="&#x2002;" horiz-adv-x="833" />
<glyph unicode="&#x2003;" horiz-adv-x="1666" />
<glyph unicode="&#x2004;" horiz-adv-x="555" />
<glyph unicode="&#x2005;" horiz-adv-x="416" />
<glyph unicode="&#x2006;" horiz-adv-x="277" />
<glyph unicode="&#x2007;" horiz-adv-x="277" />
<glyph unicode="&#x2008;" horiz-adv-x="208" />
<glyph unicode="&#x2009;" horiz-adv-x="333" />
<glyph unicode="&#x200a;" horiz-adv-x="92" />
<glyph unicode="&#x2010;" horiz-adv-x="720" d="M54 580l10 62l23 -1l-7 -41h591l-7 -40zM68 660l4 20l605 20l-2 -76l-41 1l6 35h-572z" />
<glyph unicode="&#x2011;" horiz-adv-x="720" d="M54 580l10 62l23 -1l-7 -41h591l-7 -40zM68 660l4 20l605 20l-2 -76l-41 1l6 35h-572z" />
<glyph unicode="&#x2012;" horiz-adv-x="720" d="M54 580l10 62l23 -1l-7 -41h591l-7 -40zM68 660l4 20l605 20l-2 -76l-41 1l6 35h-572z" />
<glyph unicode="&#x2013;" horiz-adv-x="1020" d="M54 580l10 62l23 -1l-7 -41h891l-7 -40zM68 660l4 20l905 20l-2 -76l-41 1l6 35h-872z" />
<glyph unicode="&#x2014;" horiz-adv-x="2040" d="M54 580l10 62l23 -1l-7 -41h1911l-7 -40zM68 660l4 20l1925 20l-2 -76l-41 1l6 35h-1892z" />
<glyph unicode="&#x2018;" horiz-adv-x="440" d="M90 1000q0 69 23.5 125.5t55.5 92.5t91 87l30 26l23 -29l-32 -25q-7 -6 -28 -21.5t-28 -21.5t-24 -21t-23.5 -24t-18.5 -25.5t-17 -31.5t-11.5 -36t-8.5 -44.5t-2 -51.5q0 -45 27.5 -72.5t72.5 -27.5q100 0 100 100t-105 100l8 18q57 -4 87 -34.5t30 -83.5q0 -61 -31 -93 t-89 -32t-94 34.5t-36 90.5zM176 1090q2 4 6 17.5t8 22.5q5 11 13 22.5t15 19.5t20.5 20t20.5 17.5t24.5 19t22.5 17.5l31 24l13 -16q-95 -70 -124 -102q-5 -6 -14 -20t-7 -14l-21 -34zM180 1000q0 16 12 28t28 12t28 -12t12 -28t-12 -28t-28 -12t-28 12t-12 28z" />
<glyph unicode="&#x2019;" horiz-adv-x="440" d="M90 926q95 70 124 102q5 6 14 20t7 14l21 34l8 -6q-2 -4 -6 -17.5t-8 -22.5q-5 -11 -13 -22.5t-15 -19.5t-20.5 -20t-20.5 -17.5t-24.5 -19t-22.5 -17.5l-31 -24zM100 1180q0 61 31 93t89 32t94 -34.5t36 -90.5q0 -69 -23.5 -125.5t-55.5 -92.5t-91 -87l-30 -26l-23 29 l32 25q7 6 28 21.5t28 21.5t24 21t23.5 24t18.5 25.5t17 31.5t11.5 36t8.5 44.5t2 51.5q0 45 -27.5 72.5t-72.5 27.5q-100 0 -100 -100t105 -100l-8 -18q-57 4 -87 34.5t-30 83.5zM180 1180q0 16 12 28t28 12t28 -12t12 -28t-12 -28t-28 -12t-28 12t-12 28z" />
<glyph unicode="&#x201a;" horiz-adv-x="440" d="M90 -54q95 70 124 102q5 6 14 20t7 14l21 34l8 -6q-2 -4 -6 -17.5t-8 -22.5q-5 -11 -13 -22.5t-15 -19.5t-20.5 -20t-20.5 -17.5t-24.5 -19t-22.5 -17.5l-31 -24zM100 200q0 61 31 93t89 32t94 -34.5t36 -90.5q0 -69 -23.5 -125.5t-55.5 -92.5t-91 -87l-30 -26l-23 29 l32 25q7 6 28 21.5t28 21.5t24 21t23.5 24t18.5 25.5t17 31.5t11.5 36t8.5 44.5t2 51.5q0 45 -27.5 72.5t-72.5 27.5q-100 0 -100 -100t105 -100l-8 -18q-57 4 -87 34.5t-30 83.5zM180 200q0 16 12 28t28 12t28 -12t12 -28t-12 -28t-28 -12t-28 12t-12 28z" />
<glyph unicode="&#x201c;" horiz-adv-x="784" d="M90 1000q0 69 23.5 125.5t55.5 92.5t91 87l30 26l23 -29l-32 -25q-7 -6 -28 -21.5t-28 -21.5t-24 -21t-23.5 -24t-18.5 -25.5t-17 -31.5t-11.5 -36t-8.5 -44.5t-2 -51.5q0 -45 27.5 -72.5t72.5 -27.5q100 0 100 100t-105 100l8 18q57 -4 87 -34.5t30 -83.5q0 -61 -31 -93 t-89 -32t-94 34.5t-36 90.5zM176 1090q2 4 6 17.5t8 22.5q5 11 13 22.5t15 19.5t20.5 20t20.5 17.5t24.5 19t22.5 17.5l31 24l13 -16q-95 -70 -124 -102q-5 -6 -14 -20t-7 -14l-21 -34zM180 1000q0 16 12 28t28 12t28 -12t12 -28t-12 -28t-28 -12t-28 12t-12 28zM434 1000 q0 69 23.5 125.5t55.5 92.5t91 87l30 26l23 -29l-32 -25q-7 -6 -28 -21.5t-28 -21.5t-24 -21t-23.5 -24t-18.5 -25.5t-17 -31.5t-11.5 -36t-8.5 -44.5t-2 -51.5q0 -45 27.5 -72.5t72.5 -27.5q100 0 100 100t-105 100l8 18q57 -4 87 -34.5t30 -83.5q0 -61 -31 -93t-89 -32 t-94 34.5t-36 90.5zM520 1090q2 4 6 17.5t8 22.5q5 11 13 22.5t15 19.5t20.5 20t20.5 17.5t24.5 19t22.5 17.5l31 24l13 -16q-95 -70 -124 -102q-5 -6 -14 -20t-7 -14l-21 -34zM524 1000q0 16 12 28t28 12t28 -12t12 -28t-12 -28t-28 -12t-28 12t-12 28z" />
<glyph unicode="&#x201d;" horiz-adv-x="780" d="M90 926q95 70 124 102q5 6 14 20t7 14l21 34l8 -6q-2 -4 -6 -17.5t-8 -22.5q-5 -11 -13 -22.5t-15 -19.5t-20.5 -20t-20.5 -17.5t-24.5 -19t-22.5 -17.5l-31 -24zM100 1180q0 61 31 93t89 32t94 -34.5t36 -90.5q0 -69 -23.5 -125.5t-55.5 -92.5t-91 -87l-30 -26l-23 29 l32 25q7 6 28 21.5t28 21.5t24 21t23.5 24t18.5 25.5t17 31.5t11.5 36t8.5 44.5t2 51.5q0 45 -27.5 72.5t-72.5 27.5q-100 0 -100 -100t105 -100l-8 -18q-57 4 -87 34.5t-30 83.5zM180 1180q0 16 12 28t28 12t28 -12t12 -28t-12 -28t-28 -12t-28 12t-12 28zM430 926 q95 70 124 102q5 6 14 20t7 14l21 34l8 -6q-2 -4 -6 -17.5t-8 -22.5q-5 -11 -13 -22.5t-15 -19.5t-20.5 -20t-20.5 -17.5t-24.5 -19t-22.5 -17.5l-31 -24zM440 1180q0 61 31 93t89 32t94 -34.5t36 -90.5q0 -69 -23.5 -125.5t-55.5 -92.5t-91 -87l-30 -26l-23 29l32 25 q7 6 28 21.5t28 21.5t24 21t23.5 24t18.5 25.5t17 31.5t11.5 36t8.5 44.5t2 51.5q0 45 -27.5 72.5t-72.5 27.5q-100 0 -100 -100t105 -100l-8 -18q-57 4 -87 34.5t-30 83.5zM520 1180q0 16 12 28t28 12t28 -12t12 -28t-12 -28t-28 -12t-28 12t-12 28z" />
<glyph unicode="&#x201e;" horiz-adv-x="780" d="M90 -54q95 70 124 102q5 6 14 20t7 14l21 34l8 -6q-2 -4 -6 -17.5t-8 -22.5q-5 -11 -13 -22.5t-15 -19.5t-20.5 -20t-20.5 -17.5t-24.5 -19t-22.5 -17.5l-31 -24zM100 200q0 61 31 93t89 32t94 -34.5t36 -90.5q0 -69 -23.5 -125.5t-55.5 -92.5t-91 -87l-30 -26l-23 29 l32 25q7 6 28 21.5t28 21.5t24 21t23.5 24t18.5 25.5t17 31.5t11.5 36t8.5 44.5t2 51.5q0 45 -27.5 72.5t-72.5 27.5q-100 0 -100 -100t105 -100l-8 -18q-57 4 -87 34.5t-30 83.5zM180 200q0 16 12 28t28 12t28 -12t12 -28t-12 -28t-28 -12t-28 12t-12 28zM430 -54 q95 70 124 102q5 6 14 20t7 14l21 34l8 -6q-2 -4 -6 -17.5t-8 -22.5q-5 -11 -13 -22.5t-15 -19.5t-20.5 -20t-20.5 -17.5t-24.5 -19t-22.5 -17.5l-31 -24zM440 200q0 61 31 93t89 32t94 -34.5t36 -90.5q0 -69 -23.5 -125.5t-55.5 -92.5t-91 -87l-30 -26l-23 29l32 25 q7 6 28 21.5t28 21.5t24 21t23.5 24t18.5 25.5t17 31.5t11.5 36t8.5 44.5t2 51.5q0 45 -27.5 72.5t-72.5 27.5q-100 0 -100 -100t105 -100l-8 -18q-57 4 -87 34.5t-30 83.5zM520 200q0 16 12 28t28 12t28 -12t12 -28t-12 -28t-28 -12t-28 12t-12 28z" />
<glyph unicode="&#x2022;" horiz-adv-x="560" d="M93 650q0 74 55 127t132 53q82 0 139.5 -53t57.5 -127q0 -79 -57.5 -134.5t-139.5 -55.5q-77 0 -132 55.5t-55 134.5zM120 650q0 -66 47 -113t113 -47t113 47t47 113t-47 113t-113 47t-113 -47t-47 -113zM180 650q0 41 29.5 70.5t70.5 29.5t70.5 -29.5t29.5 -70.5 t-29.5 -70.5t-70.5 -29.5t-70.5 29.5t-29.5 70.5z" />
<glyph unicode="&#x202f;" horiz-adv-x="333" />
<glyph unicode="&#x2039;" horiz-adv-x="659" d="M40 665l419 388l15 -14l-396 -386v-6l418 -403l79 81l-266 213q-41 33 -128 85l37 1q61 -40 126 -89t142.5 -110t120.5 -94l-108 -131l-451 428zM134 645v10q25 5 74 35t101 72l266 213l-79 81l-17 14l20 17l120 -118l-288 -240l-116 -79z" />
<glyph unicode="&#x203a;" horiz-adv-x="656" d="M40 331l288 240l116 79l81 5v-10q-56 -12 -175 -107l-266 -213l79 -81l17 -14l-20 -17zM52 969l108 131l456 -432l-5 -33l-411 -388l-15 14l396 386v6l-418 403l-79 -81l266 -213q35 -28 130 -85l-39 -1q-61 40 -126 89t-142.5 110t-120.5 94z" />
<glyph unicode="&#x205f;" horiz-adv-x="416" />
<glyph unicode="&#x20ac;" horiz-adv-x="1324" d="M40 510v20h209l5 -25zM50 590v40l152 -4v18q2 77 4 93l-136 3v20h179q-9 -63 -9 -116q0 -18 2 -54h-192zM80 820v40l194 -5l-10 -35h-184zM221 482h39q47 -181 187 -286.5t333 -105.5q141 0 248.5 63t171.5 185l18 36l18 -8l-21 -38q-73 -131 -178.5 -194.5t-256.5 -63.5 q-210 0 -361 109.5t-198 302.5zM236 875q58 171 196.5 268t321.5 97q47 0 106.5 -14.5t100.5 -34.5l-8 -17q-98 36 -199 36q-167 0 -294 -90.5t-183 -247.5zM300 644q0 202 103 338q-58 -127 -58 -308q0 -242 93 -392q-138 138 -138 362zM405 642v32q0 32 4 86h451v-40 l-424 11q-1 -19 -1 -57q0 -6 0.5 -17t0.5 -16zM406 621l434 -11v-20h-432zM415 530h415v-40l-377 10q14 -67 39.5 -122t65.5 -100.5t100.5 -71t135.5 -25.5q99 0 184 53.5t137 146.5l16 31l32 -14l-18 -36q-57 -102 -148.5 -157t-202.5 -55q-154 0 -252.5 97.5t-126.5 282.5 zM416 819q28 161 115.5 246t222.5 85q121 0 210.5 -68.5t106.5 -206.5l5 -86l-19 -1l-6 81q-15 125 -99.5 193t-197.5 68q-68 0 -122.5 -25.5t-90.5 -70.5t-58.5 -98t-34.5 -117h-32zM463 820l5 30l402 -10v-20h-407zM1028 1307l40 2l8 -177l4 -40l-18 14zM1108 1311l20 1 l46 -520l-40 -1z" />
<glyph unicode="&#xe000;" horiz-adv-x="1210" d="M0 0v1210h1210v-1210h-1210z" />
</font>
</defs>
</svg>
