<?xml version="1.0" standalone="no"?>
<!DOCTYPE svg PUBLIC "-//W3C//DTD SVG 1.1//EN" "http://www.w3.org/Graphics/SVG/1.1/DTD/svg11.dtd" >
<svg xmlns="http://www.w3.org/2000/svg">
<metadata></metadata>
<defs>
<font id="dpsdbeyondregular" horiz-adv-x="600" >
<font-face units-per-em="1000" ascent="750" descent="-250" />
<missing-glyph horiz-adv-x="500" />
<glyph horiz-adv-x="1000" />
<glyph horiz-adv-x="1000" />
<glyph unicode="&#xd;" horiz-adv-x="1000" />
<glyph unicode=" " />
<glyph unicode="!" d="M224 76q0 32 22.5 54.5t53.5 22.5q32 0 54.5 -22.5t22.5 -54.5q0 -31 -22.5 -53.5t-54.5 -22.5t-54 22t-22 54zM259 260v423q0 37 30 37h113q30 0 30 -37q0 -33 -30 -33h-33q-30 0 -30 -30v-360q0 -30 -30 -30h-20q-30 0 -30 30z" />
<glyph unicode="&#x22;" d="M199 430v260q0 30 30 30h12q30 0 30 -30v-260q0 -30 -30 -30h-12q-30 0 -30 30zM369 430v260q0 30 30 30h12q30 0 30 -30v-260q0 -30 -30 -30h-12q-30 0 -30 30z" />
<glyph unicode="#" horiz-adv-x="602" d="M86 180v20q0 30 30 30h29q30 0 30 30v80q0 30 -30 30h-29q-30 0 -30 30v20q0 30 30 30h29q30 0 30 30v85q0 30 30 30h20q30 0 30 -30v-85q0 -30 30 -30h80q30 0 30 30v85q0 30 30 30h20q30 0 30 -30v-85q0 -30 30 -30h20q30 0 30 -30v-20q0 -30 -30 -30h-20 q-30 0 -30 -30v-80q0 -30 30 -30h20q30 0 30 -30v-20q0 -30 -30 -30h-20q-30 0 -30 -30v-90q0 -30 -30 -30h-20q-30 0 -30 30v90q0 30 -30 30h-80q-30 0 -30 -30v-90q0 -30 -30 -30h-20q-30 0 -30 30v90q0 30 -30 30h-29q-30 0 -30 30zM255 260q0 -30 30 -30h80q30 0 30 30 v80q0 30 -30 30h-80q-30 0 -30 -30v-80z" />
<glyph unicode="$" d="M160 222v5q0 30 30 31h16q30 0 30 -29v-10q0 -31 28 -52t59 -21q30 0 55.5 15t25.5 43q0 26 -24 47.5t-58 37.5t-68 34t-58 47.5t-24 68.5q0 46 22.5 77.5t54.5 46.5q27 12 27 43v84q0 30 30 30h20q30 0 30 -30v-81q0 -18 6 -25.5t26 -15.5q31 -12 54 -42.5t23 -74.5v-5 q0 -30 -30 -31h-16q-30 0 -30 29v10q0 19 -21 35.5t-48 16.5q-28 0 -46.5 -16.5t-18.5 -45.5q0 -23 23.5 -41.5t56.5 -33.5t66 -34t56.5 -52.5t23.5 -78.5q0 -43 -26 -72.5t-60 -44.5q-29 -13 -29 -41v-76q0 -30 -30 -30h-20q-30 0 -30 30v75q0 17 -6.5 26t-25.5 16 q-38 15 -66 48.5t-28 86.5z" />
<glyph unicode="%" horiz-adv-x="1200" d="M178 560q0 67 47.5 114.5t114.5 47.5t114.5 -47.5t47.5 -114.5t-47.5 -114.5t-114.5 -47.5t-114.5 47.5t-47.5 114.5zM253 560q0 -36 25.5 -61.5t61.5 -25.5q35 0 60.5 25.5t25.5 61.5q0 35 -25.5 60.5t-60.5 25.5q-36 0 -61.5 -25.5t-25.5 -60.5zM403 12q0 7 4 15 l305 666q11 27 42 27h24q21 0 21 -12q0 -7 -4 -15l-305 -666q-11 -27 -42 -27h-24q-21 0 -21 12zM718 160q0 67 47.5 114.5t114.5 47.5t114.5 -47.5t47.5 -114.5t-47.5 -114.5t-114.5 -47.5t-114.5 47.5t-47.5 114.5zM793 160q0 -36 25.5 -61.5t61.5 -25.5q35 0 60.5 25.5 t25.5 61.5q0 35 -25.5 60.5t-60.5 25.5q-36 0 -61.5 -25.5t-25.5 -60.5z" />
<glyph unicode="&#x26;" d="M112 134v117q0 29 4.5 54.5t24 51.5t51.5 29q9 2 9 5q0 1 -9 5q-33 15 -49 52t-16 71v62q0 6 1 15t8.5 33t20.5 42.5t41.5 33.5t67.5 15h54q39 0 67.5 -14.5t41.5 -35t20.5 -40.5t8.5 -34l1 -15v-124q0 -30 28 -30h40q30 0 30 -30v-12q0 -30 -30 -30h-41q-30 0 -30 -30 v-134q0 -30 -30 -30h-18q-30 0 -30 30v134q0 14 -20 22t-40 8h-54q-44 0 -60.5 -32.5t-16.5 -71.5v-117q0 -2 0.5 -6t3.5 -14.5t8.5 -18t17 -14.5t27.5 -8h283q30 0 30 -30v-13q0 -30 -30 -30h-286q-36 2 -62.5 16.5t-39 34t-19 38.5t-7.5 32zM202 519q0 -33 17 -62.5 t46 -29.5h59q20 0 40 8t20 22v124q0 2 -0.5 6.5t-3.5 15t-8 18.5t-17 14.5t-29 6.5h-63q-27 0 -42.5 -15t-16.5 -29l-2 -15v-64z" />
<glyph unicode="'" d="M279 430v260q0 30 30 30h12q30 0 30 -30v-260q0 -30 -30 -30h-12q-30 0 -30 30z" />
<glyph unicode="(" d="M210 209v302q0 62 19.5 105.5t52.5 64.5t65.5 30t68.5 9h30q30 0 30 -30v-14q0 -30 -30 -30h-30q-131 0 -131 -126v-320q0 -126 131 -126h30q30 0 30 -30v-14q0 -30 -30 -30h-30q-36 0 -68.5 9t-65.5 30t-52.5 64.5t-19.5 105.5z" />
<glyph unicode=")" d="M210 30v14q0 30 30 30h30q131 0 131 126v320q0 126 -131 126h-30q-30 0 -30 30v14q0 30 30 30h30q36 0 68.5 -9t65.5 -30t52.5 -64.5t19.5 -105.5v-302q0 -62 -19.5 -105.5t-52.5 -64.5t-65.5 -30t-68.5 -9h-30q-30 0 -30 30z" />
<glyph unicode="*" d="M112 642q0 12 13 25t25 13q11 0 22 -10l74 -75q11 -11 21 -11t21 11l73 73q11 11 21 11q12 0 25.5 -13.5t13.5 -25.5q0 -10 -11 -21l-73 -72q-11 -11 -11 -22t11 -21l75 -75q11 -13 11 -21q0 -11 -13.5 -25t-25.5 -14q-10 0 -21 11l-75 75q-11 11 -21 11t-21 -11l-73 -72 q-11 -11 -21 -11q-12 0 -25.5 13t-13.5 25q0 10 11 21l73 73q11 11 11 21q0 9 -11 22l-74 74q-11 10 -11 21zM229 320v60q0 30 30 30h12q30 0 30 -30v-60q0 -30 -30 -30h-12q-30 0 -30 30zM229 670v60q0 30 30 30h12q30 0 30 -30v-60q0 -30 -30 -30h-12q-30 0 -30 30z" />
<glyph unicode="+" d="M111 241v14q0 30 30 30h102q30 0 30 30v115q0 30 30 30h20q30 0 30 -30v-115q0 -30 30 -30h93q30 0 30 -30v-14q0 -30 -30 -30h-93q-30 0 -30 -30v-111q0 -30 -30 -30h-20q-30 0 -30 30v111q0 30 -30 30h-102q-30 0 -30 30z" />
<glyph unicode="," d="M163 -122q0 28 29 29h10q3 0 7 0.5t15 4t19 9.5t15 19t7 31v199q0 30 30 30h18q27 0 27 -29v-200q0 -39 -14 -67t-34.5 -41t-41 -20.5t-34.5 -8.5l-14 -1h-10q-29 0 -29 28v17z" />
<glyph unicode="-" d="M190 261v9q0 30 30 30h145q30 0 30 -30v-9q0 -30 -30 -30h-145q-30 0 -30 30z" />
<glyph unicode="." d="M224 76q0 32 22.5 54.5t53.5 22.5q32 0 54.5 -22.5t22.5 -54.5q0 -31 -22.5 -53.5t-54.5 -22.5t-54 22t-22 54z" />
<glyph unicode="/" d="M103 12q0 7 4 15l305 666q11 27 42 27h24q21 0 21 -12q0 -7 -4 -15l-305 -666q-11 -27 -42 -27h-24q-21 0 -21 12z" />
<glyph unicode="0" d="M131 139v422q0 6 1 15t8.5 33t20.5 42.5t41.5 33.5t67.5 15h100q39 0 67.5 -14.5t41.5 -35t20.5 -40.5t8.5 -34l1 -15v-422q0 -6 -1 -15t-8.5 -33t-20.5 -42.5t-41.5 -33.5t-67.5 -15h-100q-39 0 -67.5 14.5t-41.5 35t-20.5 40.5t-8.5 34zM209 139q0 -2 0.5 -6.5t3.5 -15 t9 -18.5t18.5 -14.5t29.5 -6.5h100q27 0 42.5 15t17.5 31l1 15v422q0 2 -0.5 6.5t-3.5 15t-9 18.5t-18.5 14.5t-29.5 6.5h-100q-27 0 -42.5 -15t-17.5 -31l-1 -15v-422zM285 185v340q0 30 30 30h15q30 0 30 -30v-340q0 -30 -30 -30h-15q-30 0 -30 30z" />
<glyph unicode="1" d="M166 663q0 37 30 37h133q30 0 30 -37v-633q0 -30 -30 -30h-20q-30 0 -30 30v570q0 30 -30 30h-53q-30 0 -30 33z" />
<glyph unicode="2" d="M145 511v45q0 73 46.5 112t110.5 39q59 0 102.5 -39t43.5 -104q0 -48 -9.5 -82.5t-36.5 -88.5l-144 -286q-4 -8 -4 -15q0 -12 21 -12h159q30 0 30 -30v-20q0 -30 -30 -30h-254q-16 0 -23 8.5t-7 31.5q0 12 12 37l168 350q35 71 35 137q0 29 -21.5 48t-48.5 19 q-29 0 -51.5 -20t-22.5 -52v-50q0 -29 -30 -29h-16q-30 1 -30 31z" />
<glyph unicode="3" d="M126 139v22q0 30 30 30h17q31 0 31 -30v-22q0 -2 0.5 -6.5t3.5 -15t9 -18.5t18.5 -14.5t29.5 -6.5h55q25 1 39.5 16.5t16.5 29.5l1 15v82q0 23 -4.5 43.5t-23 40.5t-49.5 20h-48q-30 0 -30 30v12q0 30 30 30h47q29 0 46 29.5t17 62.5v74q0 2 -0.5 6t-3.5 14.5t-9 18 t-18.5 14t-29.5 6.5h-27q-27 0 -42.5 -15t-17.5 -31l-1 -15v-12q-1 -30 -31 -30h-17q-30 0 -30 30v12q0 6 1 15t8.5 33t20.5 42.5t41.5 33.5t67.5 15h27q39 0 67.5 -14.5t41.5 -35t20.5 -40.5t8.5 -34l1 -15v-72q0 -32 -18.5 -65t-56.5 -48q-9 -4 -9 -5q0 -3 9 -5 q28 -2 47.5 -18.5t28 -40.5t11.5 -44.5t3 -41.5v-82q0 -5 -1 -14t-7.5 -32.5t-19 -41.5t-39 -33.5t-62.5 -17.5h-61q-39 0 -67.5 14.5t-41.5 35t-20.5 40.5t-8.5 34z" />
<glyph unicode="4" d="M86 165q2 24 128 518q4 16 10.5 21.5t21.5 5.5h29q20 0 20 -16q0 -3 -2 -11l-110 -437q-3 -9 -3 -18q0 -15 20 -15h75q30 0 30 30v272q0 8 5.5 13.5t13.5 5.5h37q7 0 13 -6t6 -13v-272q0 -30 30 -30h23q30 0 30 -24v-21q0 -28 -30 -28h-23q-30 0 -30 -30v-91q0 -7 -6 -13 t-13 -6h-37q-8 0 -13.5 5.5t-5.5 13.5v91q0 30 -30 30h-159q-29 0 -30 25z" />
<glyph unicode="5" d="M131 328v342q0 30 30 30l248 2q30 0 30 -30v-18q0 -30 -30 -30h-170q-30 0 -30 -30v-172q0 -10 4 -10q3 0 5 5q12 25 41 42t71 17q33 0 57.5 -14.5t36 -35t18 -40.5t6.5 -34l1 -15v-198q0 -6 -1 -15t-8.5 -33t-20.5 -42.5t-41.5 -33.5t-67.5 -15h-39q-39 0 -67.5 14.5 t-41.5 35t-20.5 40.5t-8.5 34l-1 15v12q0 30 30 30h17q30 0 31 -30v-12q0 -2 0.5 -6.5t3.5 -15t9 -18.5t18.5 -14.5t29.5 -6.5h39q27 0 42.5 15t17.5 31l1 15v198q0 2 -0.5 6.5t-4.5 15t-10.5 18.5t-21 14.5t-34.5 6.5q-38 0 -64.5 -20t-26.5 -50t-30 -30h-18q-30 0 -30 30z " />
<glyph unicode="6" d="M131 567q0 9 2 22.5t11 34.5t23 37.5t41 28.5t62 12h139q30 0 30 -30v-18q0 -30 -30 -30h-139q-34 0 -47.5 -20.5t-13.5 -40.5v-161q0 -10 4 -10q3 0 5 5q11 24 45 41.5t77 17.5q39 0 67.5 -14.5t41.5 -35t20.5 -40.5t8.5 -34l1 -15v-178q0 -6 -1 -15t-8.5 -33 t-20.5 -42.5t-41.5 -33.5t-67.5 -15h-69q-39 0 -67.5 14.5t-41.5 35t-20.5 40.5t-8.5 34l-1 15zM209 287l1 -148q0 -2 0.5 -6.5t3.5 -15t9 -18.5t18.5 -14.5t29.5 -6.5h69q27 0 42.5 15t17.5 31l1 15v178q0 2 -0.5 6.5t-5.5 15t-13.5 18.5t-27.5 14.5t-44 6.5q-41 0 -71 -24 t-30 -67z" />
<glyph unicode="7" d="M136 655v17q0 28 30 28h271q30 0 30 -30q-1 -26 -12 -51l-159 -590q-9 -29 -38 -29h-20q-24 0 -24 17q0 2 2 12l150 571q4 12 4 14q0 13 -22 13h-182q-30 0 -30 28z" />
<glyph unicode="8" d="M123 139v82q0 21 3 41t11.5 43.5t28 39.5t47.5 18q9 1 9 5q0 1 -9 5q-38 15 -56.5 49t-18.5 67v72q0 6 1 15t8.5 33t20.5 42.5t41.5 33.5t67.5 15h50q39 0 67.5 -14.5t41.5 -35t20.5 -40.5t8.5 -34l1 -15v-72q0 -33 -18.5 -67t-56.5 -49q-9 -4 -9 -5q0 -4 9 -5 q28 -2 47.5 -18t28 -39.5t11.5 -43.5t3 -41v-82q0 -5 -1 -14t-7.5 -32.5t-19 -41.5t-39 -33.5t-62.5 -17.5h-100q-36 2 -62.5 17t-39 35t-19 40t-7.5 34zM201 139q0 -2 0.5 -6.5t3.5 -15t9 -18.5t18.5 -14.5t29.5 -6.5h84q25 1 39.5 16.5t16.5 29.5l1 15v82q0 23 -4.5 44.5 t-23 42t-49.5 20.5h-48q-31 0 -49.5 -20.5t-23 -42t-4.5 -44.5v-82zM216 489q0 -34 17 -64t46 -30h46q29 0 46 30t17 64v78q0 2 -0.5 6.5t-3.5 15t-9 18.5t-18.5 14.5t-29.5 6.5h-50q-27 0 -42.5 -15t-16.5 -31l-2 -15v-78z" />
<glyph unicode="9" d="M116 385v178q0 6 1 15t8.5 33t20.5 42.5t41.5 33.5t67.5 15h69q39 0 67.5 -14.5t41.5 -35t20.5 -40.5t8.5 -34l1 -15l1 -428q0 -9 -2 -22.5t-11 -34.5t-23 -37.5t-41 -28.5t-62 -12h-159q-30 0 -30 30v18q0 30 30 30h159q34 0 47.5 20.5t13.5 40.5v161q0 10 -4 10 q-2 0 -5 -5q-11 -24 -45 -41.5t-77 -17.5q-39 0 -67.5 14.5t-41.5 35t-20.5 40.5t-8.5 34zM194 385q0 -2 0.5 -6.5t5.5 -15t13.5 -18.5t27.5 -14.5t44 -6.5q41 0 71 24t30 67l-1 148q0 2 -0.5 6.5t-3.5 15t-9 18.5t-18.5 14.5t-29.5 6.5h-69q-27 0 -42.5 -15t-16.5 -31 l-2 -15v-178z" />
<glyph unicode=":" d="M224 76q0 32 22.5 54.5t53.5 22.5q32 0 54.5 -22.5t22.5 -54.5q0 -31 -22.5 -53.5t-54.5 -22.5t-54 22t-22 54zM224 423q0 32 22.5 54.5t53.5 22.5q32 0 54.5 -23t22.5 -54t-22.5 -53.5t-54.5 -22.5t-54 22.5t-22 53.5z" />
<glyph unicode=";" d="M163 -122q0 28 29 29h10q3 0 7 0.5t15 4t19 9.5t15 19t7 31v199q0 30 30 30h18q27 0 27 -29v-200q0 -39 -14 -67t-34.5 -41t-41 -20.5t-34.5 -8.5l-14 -1h-10q-29 0 -29 28v17zM224 423q0 32 22.5 54.5t53.5 22.5q32 0 54.5 -23t22.5 -54t-22.5 -53.5t-54.5 -22.5 t-54 22.5t-22 53.5z" />
<glyph unicode="&#x3c;" d="M171 249q0 26 13.5 52t27.5 39l14 12l172 168q10 10 21 10q9 0 19 -10l10 -10q11 -13 11 -21q0 -9 -11 -20l-173 -169q-20 -19 -20 -46q0 -22 21 -45l167 -171q11 -11 11 -21t-12 -22l-13 -12q-9 -9 -18 -9q-10 0 -21 11l-168 172q-51 53 -51 92z" />
<glyph unicode="=" d="M100 171v9q0 30 30 30h366q30 0 30 -30v-9q0 -30 -30 -30h-366q-30 0 -30 30zM100 331v9q0 30 30 30h366q30 0 30 -30v-9q0 -30 -30 -30h-366q-30 0 -30 30z" />
<glyph unicode="&#x3e;" d="M171 489q0 8 11 21l10 10q10 10 19 10q11 0 21 -10l172 -168q6 -5 15 -14t24.5 -36t15.5 -53q0 -39 -51 -92l-168 -172q-11 -11 -21 -11q-9 0 -18 9l-13 12q-12 12 -12 22t11 21l167 171q21 23 21 45q0 12 -5 23.5t-10 16.5l-5 6l-173 169q-11 11 -11 20z" />
<glyph unicode="?" d="M163 552v29q0 6 1 15t8.5 33t20.5 42.5t41.5 33.5t67.5 15h80q39 0 67.5 -14.5t41.5 -35t20.5 -40.5t8.5 -34l1 -15v-62q0 -6 -1 -15t-8.5 -33t-21 -42.5t-42.5 -33.5t-69 -15q-18 0 -28.5 -15t-11.5 -31l-1 -15v-59q0 -30 -30 -30h-18q-30 0 -30 30v59q0 6 0.5 15 t7.5 33t18.5 42.5t36.5 33.5t59 15q27 0 42.5 15t17.5 31l1 15v62q0 2 -0.5 6.5t-3.5 15t-9 18.5t-18.5 14.5t-29.5 6.5h-80q-27 0 -42.5 -15t-17.5 -31l-1 -15v-29q0 -30 -30 -30h-18q-30 0 -30 30zM224 76q0 32 22.5 54.5t53.5 22.5q32 0 54.5 -22.5t22.5 -54.5 q0 -31 -22.5 -53.5t-54.5 -22.5t-54 22t-22 54z" />
<glyph unicode="@" d="M101 139v422q0 6 1 15t8.5 33t20.5 42.5t41.5 33.5t67.5 15h160q39 0 67.5 -14.5t41.5 -35t20.5 -40.5t8.5 -34l1 -15v-306q0 -47 -21.5 -68.5t-68.5 -21.5h-92q-47 0 -68.5 21.5t-21.5 68.5v191q0 30 30 30h15q30 0 30 -30v-185q0 -30 30 -30h65q24 0 24 30v305 q0 2 -0.5 6.5t-3.5 15t-9 18.5t-18.5 14.5t-29.5 6.5h-160q-27 0 -42.5 -15.5t-17.5 -30.5l-1 -15v-432q0 -2 0.5 -6.5t3.5 -15t9 -18.5t18.5 -14.5t29.5 -6.5h220q30 0 30 -30v-13q0 -30 -30 -30h-220q-39 0 -67.5 14.5t-41.5 35t-20.5 40.5t-8.5 34z" />
<glyph unicode="A" d="M113 21l147 652q8 32 41 32t41 -32l149 -652q0 -8 -6.5 -14.5t-14.5 -6.5h-43q-9 0 -14.5 6t-5.5 15l-26 121q-6 29 -36 29h-90q-30 0 -36 -29l-27 -121q0 -9 -5.5 -15t-14.5 -6h-38q-8 0 -14.5 6.5t-6.5 14.5zM246 259q0 -19 25 -19h59q25 0 25 19q0 6 -47 242 q-5 13 -8 13t-6 -14q-48 -235 -48 -241z" />
<glyph unicode="B" d="M149 27v646q0 27 27 27h112q208 0 208 -180q0 -52 -24.5 -87t-53.5 -48q-7 -3 -7 -8q0 -7 9 -8q50 -6 88 -48t38 -112q0 -62 -20.5 -105.5t-55 -64.5t-68 -30t-69.5 -9h-157q-27 0 -27 27zM223 107q0 -33 33 -33h70q70 0 107.5 35t37.5 91q0 55 -35.5 87.5t-103.5 32.5 h-76q-33 0 -33 -34v-179zM223 427q0 -34 33 -34h35q51 0 90.5 33.5t39.5 85.5q0 32 -11.5 55t-28.5 33.5t-33.5 17t-27.5 6.5l-12 1h-52q-33 0 -33 -33v-165z" />
<glyph unicode="C" d="M131 139v422q0 6 1 15t8.5 33t20.5 42.5t41.5 33.5t67.5 15h160q30 0 30 -30v-13q0 -30 -30 -30h-160q-27 0 -42.5 -15.5t-17.5 -30.5l-1 -15v-432q0 -2 0.5 -6.5t3.5 -15t9 -18.5t18.5 -14.5t29.5 -6.5h160q30 0 30 -30v-13q0 -30 -30 -30h-160q-39 0 -67.5 14.5 t-41.5 35t-20.5 40.5t-8.5 34z" />
<glyph unicode="D" d="M119 27v646q0 27 27 27h157q36 0 68 -9t64.5 -30t51.5 -64.5t19 -105.5v-282q0 -62 -19 -105.5t-51.5 -64.5t-64.5 -30t-68 -9h-157q-27 0 -27 27zM193 107q0 -33 33 -33h70q69 0 102 34.5t33 91.5v300q0 57 -33 91.5t-102 34.5h-70q-33 0 -33 -33v-486z" />
<glyph unicode="E" d="M155 19v662q0 8 5.5 13.5t13.5 5.5h293q30 0 30 -30v-18q0 -30 -30 -30h-203q-30 0 -30 -30v-165q0 -30 30 -30h155q30 0 30 -30v-18q0 -30 -30 -30h-155q-30 0 -30 -30v-181q0 -30 30 -30h205q30 0 30 -30v-18q0 -30 -30 -30h-295q-8 0 -13.5 5.5t-5.5 13.5z" />
<glyph unicode="F" d="M175 30v651q0 8 5.5 13.5t13.5 5.5h283q30 0 30 -30v-18q0 -30 -30 -30h-193q-30 0 -30 -30v-205q0 -30 30 -30h145q30 0 30 -30v-18q0 -30 -30 -30h-145q-30 0 -30 -30v-219q0 -30 -30 -30h-19q-30 0 -30 30z" />
<glyph unicode="G" d="M131 139v422q0 6 1 15t8.5 33t20.5 42.5t41.5 33.5t67.5 15h170q30 0 30 -30v-13q0 -30 -30 -30h-170q-27 0 -42.5 -15.5t-17.5 -30.5l-1 -15v-432q0 -2 0.5 -6.5t3.5 -15t9 -18.5t18.5 -14.5t29.5 -6.5h70q27 0 42.5 15t17.5 30l1 16v225q0 30 -29 30q-30 0 -30 -30 v-195q0 -30 -30 -30h-15q-30 0 -30 30v201q0 47 21.5 68.5t68.5 21.5h32q47 0 68.5 -21.5t21.5 -68.5v-226q0 -6 -1 -15t-8.5 -33t-20.5 -42.5t-41.5 -33.5t-67.5 -15h-70q-39 0 -67.5 14.5t-41.5 35t-20.5 40.5t-8.5 34z" />
<glyph unicode="H" d="M121 19v651q0 30 30 30h20q30 0 30 -30v-260q0 -30 30 -30h152q30 0 30 30v260q0 30 30 30h21q30 0 30 -30v-651q0 -7 -6 -13t-13 -6h-43q-8 0 -13.5 5.5t-5.5 13.5v262q0 30 -30 30h-152q-30 0 -30 -30v-262q0 -8 -5.5 -13.5t-13.5 -5.5h-42q-8 0 -13.5 6t-5.5 13z" />
<glyph unicode="I" d="M146 37q0 33 30 33h53q30 0 30 30v500q0 30 -30 30h-53q-30 0 -30 33q0 37 30 37h247q30 0 30 -37q0 -33 -30 -33h-54q-30 0 -30 -30v-500q0 -30 30 -30h54q30 0 30 -36q0 -34 -30 -34h-247q-30 0 -30 37z" />
<glyph unicode="J" d="M146 663q0 37 30 37h243q30 0 30 -30v-515q0 -31 -15 -57l-132 -270q-13 -28 -33 -28q-49 5 -49 30q0 12 7 26l125 250q16 26 16 55v439q0 30 -29 30h-163q-30 0 -30 33z" />
<glyph unicode="K" d="M126 30v649q0 8 6.5 14.5t14.5 6.5h41q9 0 14.5 -6t5.5 -15v-292h77q10 0 21 11l77 92q16 15 16 55v134q0 9 5.5 15t14.5 6h41q8 0 14.5 -6.5t6.5 -14.5v-156q0 -41 -16 -57l-78 -90q-11 -11 -11 -21q0 -11 11 -21l98 -100q16 -19 16 -57v-156q0 -8 -6.5 -14.5 t-14.5 -6.5h-41q-9 0 -14.5 6t-5.5 15v134q0 36 -16 55l-97 93q-13 11 -21 11h-77v-284q0 -30 -30 -30h-22q-30 0 -30 30z" />
<glyph unicode="L" d="M175 19v662q0 8 5.5 13.5t13.5 5.5h42q8 0 13.5 -6t5.5 -13v-574q0 -30 30 -30h182q30 0 30 -30v-17q0 -30 -30 -30h-273q-8 0 -13.5 5.5t-5.5 13.5z" />
<glyph unicode="M" d="M101 19v651q0 30 30 30h20q17 0 29 -20l116 -177q7 -13 16 -13q7 0 16 13l116 177q12 20 29 20h20q30 0 30 -30v-651q0 -7 -5.5 -13t-13.5 -6h-42q-8 0 -13.5 5.5t-5.5 13.5v482q0 17 -4 17q-3 0 -11 -13l-99 -133q-9 -14 -17 -14t-17 14l-99 133q-8 13 -11 13 q-4 0 -4 -17v-482q0 -8 -5.5 -13.5t-13.5 -5.5h-42q-8 0 -13.5 6t-5.5 13z" />
<glyph unicode="N" d="M141 19v651q0 30 30 30h20q18 0 29 -20l177 -331q8 -13 12 -13t4 17v317q0 30 30 30h21q30 0 30 -30v-651q0 -7 -6 -13t-13 -6h-43q-8 0 -13.5 5.5t-5.5 13.5v120q0 29 -15 56l-162 310q-8 13 -11 13q-4 0 -4 -17v-482q0 -8 -5.5 -13.5t-13.5 -5.5h-42q-8 0 -13.5 6 t-5.5 13z" />
<glyph unicode="O" d="M111 139v422q0 6 1 15t8.5 33t20.5 42.5t41.5 33.5t67.5 15h100q39 0 67.5 -14.5t41.5 -35t20.5 -40.5t8.5 -34l1 -15v-422q0 -6 -1 -15t-8.5 -33t-20.5 -42.5t-41.5 -33.5t-67.5 -15h-100q-39 0 -67.5 14.5t-41.5 35t-20.5 40.5t-8.5 34zM189 134q0 -2 0.5 -6.5t3.5 -15 t9 -18.5t18.5 -14.5t29.5 -6.5h100q27 0 42.5 15t17.5 30l1 16v432q0 2 -0.5 6.5t-3.5 15t-9 18.5t-18.5 14.5t-29.5 6.5h-100q-27 0 -42.5 -15.5t-17.5 -30.5l-1 -15v-432zM235 405v145q0 30 30 30h15q30 0 30 -30v-145q0 -30 -30 -30h-15q-30 0 -30 30z" />
<glyph unicode="P" d="M143 27v646q0 27 27 27h151q96 0 150.5 -69t54.5 -164q0 -63 -20 -117.5t-67.5 -94t-115.5 -40.5h-71q-33 0 -33 -34v-151q0 -30 -30 -30h-19q-27 0 -27 27zM219 327q0 -34 33 -34h82q52 0 83 50t31 114t-33 112.5t-94 53.5h-69q-33 0 -33 -33v-263z" />
<glyph unicode="Q" d="M111 139v422q0 6 1 15t8.5 33t20.5 42.5t41.5 33.5t67.5 15h100q39 0 67.5 -14.5t41.5 -35t20.5 -40.5t8.5 -34l1 -15v-422q0 -139 -119 -139q-30 0 -30 -30v-75q0 -30 -30 -30h-15q-30 0 -30 30v75q0 30 -30 30q-64 0 -94 34.5t-30 104.5zM189 134q0 -2 0.5 -6.5t3 -15 t6.5 -18.5t13.5 -14.5t22.5 -6.5q30 0 30 30v147q0 30 30 30h15q30 0 30 -30v-147q0 -30 30 -30q18 0 28.5 15t11.5 30l1 16v432q0 2 -0.5 6.5t-3.5 15t-9 18.5t-18.5 14.5t-29.5 6.5h-100q-27 0 -42.5 -15.5t-17.5 -30.5l-1 -15v-432z" />
<glyph unicode="R" d="M143 27v646q0 27 27 27h141q99 0 152 -56t53 -147q0 -139 -91 -194q-13 -10 -13 -25q0 -7 5 -19l101 -231q3 -9 3 -14q0 -14 -22 -14h-26q-30 0 -41 28l-96 219q-11 28 -41 28h-43q-33 0 -33 -34v-211q0 -30 -30 -30h-19q-27 0 -27 27zM219 387q0 -34 33 -34h72 q54 0 84 37t30 97t-32 95.5t-95 40.5h-59q-33 0 -33 -33v-203z" />
<glyph unicode="S" horiz-adv-x="601" d="M145 147v45q0 30 30 31h16q30 0 30 -29v-50q0 -33 27.5 -52.5t62.5 -19.5q34 0 59 18t25 49q0 18 -2.5 34t-10 33t-12 26.5t-19 27.5t-19 24t-24 27t-23.5 25q-75 83 -99 132.5t-24 93.5q0 67 43.5 105.5t106.5 38.5q62 0 102 -38t40 -112v-35q0 -30 -30 -31h-16 q-30 0 -30 29v40q0 33 -21 52t-52 19q-28 0 -44.5 -15.5t-16.5 -45.5q0 -38 20 -75.5t85 -105.5q63 -66 93.5 -119.5t30.5 -122.5q0 -67 -47.5 -108.5t-113.5 -41.5q-65 0 -116 39.5t-51 111.5z" />
<glyph unicode="T" d="M89 662q0 38 30 38h347q30 0 30 -38q0 -35 -30 -35h-103q-30 0 -30 -30v-567q0 -30 -30 -30h-22q-30 0 -30 30v567q0 30 -30 30h-102q-30 0 -30 35z" />
<glyph unicode="U" d="M126 139v531q0 30 30 30h18q30 0 30 -30v-531q0 -2 0.5 -6.5t3.5 -15t9 -18.5t18.5 -14.5t29.5 -6.5h90q27 0 42.5 15t16.5 31l2 15v531q0 30 30 30h18q30 0 30 -30v-531q0 -6 -1 -15t-8.5 -33t-20.5 -42.5t-41.5 -33.5t-67.5 -15h-90q-39 0 -67.5 14.5t-41.5 35 t-20.5 40.5t-8.5 34z" />
<glyph unicode="V" d="M113 684q0 8 6.5 14.5t14.5 6.5h38q9 0 14.5 -6t5.5 -15l102 -459q3 -14 6 -14t8 13l99 460q0 9 5.5 15t14.5 6h43q8 0 14.5 -6.5t6.5 -14.5l-148 -656q-8 -32 -41 -32t-41 32z" />
<glyph unicode="W" d="M91 133v548q0 8 5.5 13.5t13.5 5.5h36q8 0 13.5 -6t5.5 -13v-548q0 -2 0.5 -6t3.5 -14.5t8.5 -18t17 -14t27.5 -6.5q24 7 33.5 21t9.5 39v551q0 8 5.5 13.5t13.5 5.5h36q8 0 13.5 -6t5.5 -13v-551q0 -47 37 -60q2 0 6 0.5t14 3.5t17.5 8.5t14 17.5t6.5 29v548q0 7 6 13 t13 6h36q7 0 13 -6t6 -13v-548q0 -37 -11.5 -64.5t-28 -40t-33 -19.5t-27.5 -8l-12 -1q-30 0 -49 11.5t-29 23t-18 11.5q-6 0 -14 -7t-15.5 -16t-25.5 -16t-43 -7q-31 0 -54 13.5t-33.5 33t-16.5 39.5t-6 34z" />
<glyph unicode="X" d="M131 21v156q0 41 16 57l92 95q11 11 11 21q0 8 -11 21l-92 95q-16 16 -16 57v156q0 8 6.5 14.5t14.5 6.5h40q9 0 14.5 -6t5.5 -15v-129q0 -37 16 -55l66 -74q10 -11 21 -11q10 0 21 11l67 64q16 16 16 55v139q0 9 5.5 15t14.5 6h40q8 0 14.5 -6.5t6.5 -14.5v-156 q0 -39 -16 -57l-93 -95q-11 -11 -11 -21q0 -11 11 -21l95 -95q16 -16 16 -57v-156q0 -8 -6.5 -14.5t-14.5 -6.5h-42q-9 0 -14.5 6t-5.5 15v139q0 39 -16 55l-67 67q-13 11 -21 11q-10 0 -21 -11l-66 -67q-16 -16 -16 -55v-139q0 -9 -5.5 -15t-14.5 -6h-40q-8 0 -14.5 6.5 t-6.5 14.5z" />
<glyph unicode="Y" d="M109 679q0 8 6.5 14.5t14.5 6.5h42q9 0 15 -6.5t6 -14.5l102 -314q5 -15 9 -15t9 15l99 314q0 9 5.5 15t14.5 6h41q8 0 14.5 -6.5t6.5 -14.5l-140 -425q-9 -28 -9 -58v-175q0 -9 -5.5 -15t-14.5 -6h-41q-8 0 -14.5 6.5t-6.5 14.5v172q0 31 -10 58z" />
<glyph unicode="Z" d="M126 30q2 20 12 45l238 525q4 12 4 14q0 13 -22 13h-192q-16 0 -23 6.5t-7 21.5v17q0 28 30 28h281q30 0 30 -30q-1 -26 -12 -51l-237 -519q-4 -12 -4 -14q0 -13 22 -13h207q30 0 30 -24v-21q0 -28 -30 -28h-297q-30 0 -30 30z" />
<glyph unicode="[" d="M166 37v646q0 37 30 37h133q30 0 30 -37q0 -33 -30 -33h-53q-30 0 -30 -30v-520q0 -30 30 -30h53q30 0 30 -33q0 -37 -30 -37h-133q-30 0 -30 37z" />
<glyph unicode="\" d="M103 708q0 12 21 12h24q31 0 42 -27l305 -666q4 -8 4 -15q0 -12 -21 -12h-24q-31 0 -42 27l-305 666q-4 8 -4 15z" />
<glyph unicode="]" d="M166 37q0 33 30 33h53q30 0 30 30v520q0 30 -30 30h-53q-30 0 -30 33q0 37 30 37h133q30 0 30 -37v-646q0 -37 -30 -37h-133q-30 0 -30 37z" />
<glyph unicode="^" d="M83 602q0 11 10 21l118 122q5 6 14 15t36 24.5t53 15.5q39 0 92 -51l122 -118q11 -11 11 -21q0 -9 -9 -18l-10 -11q-12 -12 -22 -12t-21 11l-121 117q-20 19 -43 19q-12 0 -24 -5.5t-18 -10.5l-6 -6l-119 -123q-11 -11 -20 -11q-8 0 -21 11l-12 12q-10 10 -10 19z" />
<glyph unicode="_" d="M100 30v9q0 30 30 30h366q30 0 30 -30v-9q0 -30 -30 -30h-366q-30 0 -30 30z" />
<glyph unicode="a" d="M121 135v230q0 6 1 15t8.5 33t20.5 42.5t41.5 33.5t67.5 15q43 0 77 -17.5t45 -41.5q2 -5 5 -5q4 0 4 10v20q0 30 30 30h18q30 0 30 -30v-440q0 -30 -30 -30h-18q-30 0 -30 30v20q0 10 -4 10q-3 0 -5 -5q-11 -24 -45 -41.5t-77 -17.5q-39 0 -67.5 14.5t-41.5 35 t-20.5 40.5t-8.5 34zM199 135q0 -2 0.5 -6.5t5.5 -15t13.5 -18.5t27.5 -14.5t44 -6.5q41 0 71 24t30 67v170q0 43 -30 67t-71 24q-25 0 -44 -6.5t-27.5 -15t-13.5 -17.5t-5 -15l-1 -7v-230z" />
<glyph unicode="b" d="M141 690q0 30 30 30h18q30 0 30 -30v-240q0 -10 4 -10q3 0 5 5q11 24 45 41.5t77 17.5q39 0 67.5 -14.5t41.5 -35t20.5 -40.5t8.5 -34l1 -15v-226q0 -6 -1 -15t-8.5 -33t-20.5 -42.5t-41.5 -33.5t-67.5 -15h-69q-39 0 -67.5 14.5t-41.5 35t-20.5 40.5t-8.5 34l-1 15z M219 335l1 -196q0 -2 0.5 -6.5t3.5 -15t9 -18.5t18.5 -14.5t29.5 -6.5h69q27 0 42.5 15t17.5 31l1 15v226q0 2 -0.5 6.5t-5.5 15t-13.5 18.5t-27.5 14.5t-44 6.5q-41 0 -71 -24t-30 -67z" />
<glyph unicode="c" d="M158 139v222q0 6 1 15t8.5 33t20.5 42.5t41.5 33.5t67.5 15h130q30 0 30 -30v-18q0 -30 -30 -30h-130q-27 0 -42.5 -15t-16.5 -31l-2 -15v-222q0 -2 0.5 -6.5t3.5 -15t9 -18.5t18.5 -14.5t29.5 -6.5h130q30 0 30 -30v-18q0 -30 -30 -30h-130q-39 0 -67.5 14.5t-41.5 35 t-20.5 40.5t-8.5 34z" />
<glyph unicode="d" d="M121 135v230q0 6 1 15t8.5 33t20.5 42.5t41.5 33.5t67.5 15q43 0 77 -17.5t45 -41.5q2 -5 5 -5q4 0 4 10v240q0 30 30 30h18q30 0 30 -30v-660q0 -30 -30 -30h-18q-30 0 -30 30v20q0 10 -4 10q-3 0 -5 -5q-11 -24 -45 -41.5t-77 -17.5q-39 0 -67.5 14.5t-41.5 35 t-20.5 40.5t-8.5 34zM199 135q0 -2 0.5 -6.5t5.5 -15t13.5 -18.5t27.5 -14.5t44 -6.5q41 0 71 24t30 67v170q0 43 -30 67t-71 24q-25 0 -44 -6.5t-27.5 -15t-13.5 -17.5t-5 -15l-1 -7v-230z" />
<glyph unicode="e" d="M141 139v222q0 6 1 15t8.5 33t20.5 42.5t41.5 33.5t67.5 15h80q39 0 67.5 -14.5t41.5 -35t20.5 -40.5t8.5 -34l1 -15v-64q0 -47 -21.5 -68.5t-68.5 -21.5h-160q-30 0 -30 -30v-39q0 -2 0.5 -6.5t3.5 -15t9 -18.5t18.5 -14.5t29.5 -6.5h169q30 0 30 -30v-17q0 -30 -30 -30 h-169q-39 0 -67.5 14.5t-41.5 35t-20.5 40.5t-8.5 34zM219 310q0 -30 30 -30h142q30 0 30 30v52q0 2 -0.5 6.5t-3.5 15t-9 18.5t-18.5 14.5t-29.5 6.5h-80q-27 0 -42.5 -15.5t-17.5 -30.5l-1 -15v-52z" />
<glyph unicode="f" d="M157 37q0 33 30 33h26q30 0 30 30l-1 295q0 30 -30 30h-19q-30 0 -30 30v15q0 30 30 30h19q30 0 30 30v56q0 14 5 32t17.5 43t43 42t73.5 17h91q30 0 30 -30v-18q0 -30 -30 -30h-91q-24 0 -38.5 -13t-18 -23.5t-4.5 -21.5v-54q0 -30 30 -30h91q30 0 30 -30v-15 q0 -30 -30 -30h-90q-30 0 -30 -30l2 -295q0 -30 30 -30h61q30 0 30 -36q0 -34 -30 -34h-227q-30 0 -30 37z" />
<glyph unicode="g" d="M121 175v186q0 6 1 15t8.5 33t20.5 42.5t41.5 33.5t67.5 15h239q30 0 30 -30v-8q0 -30 -30 -30h-55q-10 0 -10 -4q0 -2 5 -5q13 -6 20.5 -19t8.5 -23v-10l1 -436q0 -9 -2 -22.5t-11 -34.5t-23 -37.5t-41 -28.5t-62 -12h-129q-30 0 -30 30v18q0 30 30 30h129 q34 0 47.5 20.5t13.5 40.5v151q0 10 -4 10q-3 0 -5 -5q-11 -24 -45 -41.5t-77 -17.5q-39 0 -67.5 14.5t-41.5 34.5t-20.5 40.5t-8.5 34.5zM199 175q0 -2 0.5 -6.5t5.5 -15t13.5 -18.5t27.5 -14.5t44 -6.5q41 0 71 24t30 67l-1 156q0 25 -17.5 43t-43.5 18h-69 q-27 0 -42.5 -15t-17.5 -31l-1 -15v-186z" />
<glyph unicode="h" d="M141 690q0 30 30 30h18q30 0 30 -30v-240q0 -10 4 -10q3 0 5 5q11 24 45 41.5t77 17.5q39 0 67.5 -14.5t41.5 -35t20.5 -40.5t8.5 -34l1 -15v-335q0 -30 -30 -30h-18q-30 0 -30 30v335q0 2 -0.5 6.5t-5.5 15t-13.5 18.5t-27.5 14.5t-44 6.5q-41 0 -71 -24t-30 -67l1 -305 q0 -30 -30 -30h-18q-30 0 -30 30z" />
<glyph unicode="i" d="M176 463q0 37 30 37h133q30 0 30 -30v-440q0 -30 -30 -30h-20q-30 0 -30 30v370q0 30 -30 30h-53q-30 0 -30 33zM238 664q0 32 22.5 54.5t53.5 22.5q32 0 54.5 -22.5t22.5 -54.5q0 -31 -22.5 -53.5t-54.5 -22.5t-54 22t-22 54z" />
<glyph unicode="j" d="M176 463q0 37 30 37h233q30 0 30 -30v-315q0 -31 -15 -57l-132 -270q-13 -28 -33 -28q-49 5 -49 30q0 12 7 26l125 250q16 26 16 55v239q0 30 -29 30h-153q-30 0 -30 33zM338 664q0 32 22.5 54.5t53.5 22.5q32 0 54.5 -22.5t22.5 -54.5q0 -31 -22.5 -53.5t-54.5 -22.5 t-54 22t-22 54z" />
<glyph unicode="k" d="M145 30v669q0 8 6.5 14.5t14.5 6.5h41q9 0 14.5 -6t5.5 -15v-407h47q10 0 21 11l87 92q16 15 16 55v29q0 9 5.5 15t14.5 6h41q8 0 14.5 -6.5t6.5 -14.5v-51q0 -41 -16 -57l-88 -90q-11 -11 -11 -21q0 -11 11 -21l98 -100q16 -19 16 -57v-61q0 -8 -6.5 -14.5t-14.5 -6.5 h-41q-9 0 -14.5 6t-5.5 15v39q0 36 -16 55l-97 93q-13 11 -21 11h-47v-189q0 -30 -30 -30h-22q-30 0 -30 30z" />
<glyph unicode="l" d="M146 37q0 33 30 33h53q30 0 30 30v500q0 30 -30 30h-53q-30 0 -30 33q0 37 30 37h133q30 0 30 -37v-563q0 -30 30 -30h54q30 0 30 -36q0 -34 -30 -34h-247q-30 0 -30 37z" />
<glyph unicode="m" d="M40 459v11q0 30 30 30h132q25 0 43 -7t25.5 -16t15.5 -16t14 -7q8 0 18 11.5t29 23t49 11.5q40 0 76 -29.5t36 -103.5v-348q0 -7 -6 -13t-13 -6h-36q-7 0 -13 6t-6 13v348q0 26 -14.5 41t-29.5 16l-14 2q-37 -13 -37 -60v-351q0 -7 -5.5 -13t-13.5 -6h-36q-8 0 -13.5 5.5 t-5.5 13.5v351q0 25 -9.5 39t-33.5 21q-25 0 -39.5 -15t-16.5 -29l-1 -15v-348q0 -7 -5.5 -13t-13.5 -6h-36q-8 0 -13.5 5.5t-5.5 13.5v355q0 33 19 46q5 2 5 5q0 4 -10 4h-35q-30 0 -30 30z" />
<glyph unicode="n" d="M80 462v8q0 30 30 30h240q39 0 67.5 -14.5t41.5 -35t20.5 -40.5t8.5 -34l1 -15v-331q0 -30 -30 -30h-18q-30 0 -30 30v331q0 2 -0.5 6.5t-3.5 15t-9 18.5t-18.5 14.5t-29.5 6.5h-70q-27 0 -42.5 -15t-17.5 -31l-1 -15v-331q0 -30 -30 -30h-18q-30 0 -30 30v341 q-1 38 29 52q5 3 5 5q0 4 -10 4h-55q-30 0 -30 30z" />
<glyph unicode="o" d="M111 139v222q0 6 1 15t8.5 33t20.5 42.5t41.5 33.5t67.5 15h100q39 0 67.5 -14.5t41.5 -35t20.5 -40.5t8.5 -34l1 -15v-222q0 -6 -1 -15t-8.5 -33t-20.5 -42.5t-41.5 -33.5t-67.5 -15h-100q-39 0 -67.5 14.5t-41.5 35t-20.5 40.5t-8.5 34zM189 139q0 -2 0.5 -6.5t3.5 -15 t9 -18.5t18.5 -14.5t29.5 -6.5h100q27 0 42.5 15t17.5 31l1 15v222q0 2 -0.5 6.5t-3.5 15t-9 18.5t-18.5 14.5t-29.5 6.5h-100q-27 0 -42.5 -15t-17.5 -31l-1 -15v-222zM265 175v150q0 30 30 30h15q30 0 30 -30v-150q0 -30 -30 -30h-15q-30 0 -30 30z" />
<glyph unicode="p" d="M141 470q0 30 30 30h18q30 0 30 -30v-20q0 -10 4 -10q3 0 5 5q11 24 45 41.5t77 17.5q39 0 67.5 -14.5t41.5 -35t20.5 -40.5t8.5 -34l1 -15v-226q0 -6 -1 -15t-8.5 -33t-20.5 -42.5t-41.5 -33.5t-67.5 -15h-99q-30 0 -30 -30l1 -140q0 -30 -30 -30h-20q-30 0 -30 30z M219 335l1 -227q0 -30 30 -30h100q27 0 42.5 15t17.5 31l1 15v226q0 2 -0.5 6.5t-5.5 15t-13.5 18.5t-27.5 14.5t-44 6.5q-41 0 -71 -24t-30 -67z" />
<glyph unicode="q" d="M141 135v226q0 6 1 15t8.5 33t20.5 42.5t41.5 33.5t67.5 15h69q39 0 67.5 -14.5t41.5 -35t20.5 -40.5t8.5 -34l1 -15l1 -531q0 -30 -30 -30h-18q-30 0 -30 30v220q0 10 -4 10q-3 0 -5 -5q-11 -24 -45 -41.5t-77 -17.5q-39 0 -67.5 14.5t-41.5 35t-20.5 40.5t-8.5 34z M219 135q0 -2 0.5 -6.5t5.5 -15t13.5 -18.5t27.5 -14.5t44 -6.5q41 0 71 24t30 67l-1 196q0 2 -0.5 6.5t-3.5 15t-9 18.5t-18.5 14.5t-29.5 6.5h-69q-27 0 -42.5 -15t-17.5 -31l-1 -15v-226z" />
<glyph unicode="r" d="M126 37q0 33 30 33h26q30 0 30 30l-1 370q0 30 30 30h18q30 0 30 -30v-20q0 -10 4 -10q3 0 5 5q11 24 45 41.5t77 17.5h21q30 0 30 -30v-18q0 -30 -30 -30h-51q-40 0 -69 -24t-29 -67v-235q0 -30 30 -30h61q30 0 30 -36q0 -34 -30 -34h-227q-30 0 -30 37z" />
<glyph unicode="s" d="M139 147v5q0 30 30 31h16q30 0 30 -29v-10q0 -31 28 -52t59 -21q30 0 55.5 15t25.5 43q0 32 -36.5 58t-79.5 43t-79.5 52t-36.5 82q0 66 43 104.5t108 38.5q61 0 101.5 -35.5t40.5 -95.5v-5q0 -30 -30 -31h-16q-30 0 -30 29v10q0 19 -21 35.5t-48 16.5q-28 0 -46.5 -16.5 t-18.5 -45.5q0 -23 23.5 -41.5t56.5 -33.5t66 -34t56.5 -52.5t23.5 -78.5q0 -60 -47.5 -96.5t-107.5 -36.5q-65 0 -115.5 39.5t-50.5 111.5z" />
<glyph unicode="t" d="M153 460v15q0 30 30 30h29q30 0 30 30v105q0 30 31 30h20q30 0 30 -30v-105q0 -30 28 -30h70q30 0 30 -30v-15q0 -30 -30 -30h-71q-30 0 -30 -30v-264q1 -11 4.5 -21.5t18 -23.5t38.5 -13h41q30 0 30 -30v-18q0 -30 -30 -30h-41q-43 0 -73.5 17t-43 42t-17.5 43t-5 32 v266q0 30 -30 30h-29q-30 0 -30 30z" />
<glyph unicode="u" d="M126 139l1 332q0 30 30 30h18q30 0 30 -30l-1 -332q0 -2 0.5 -6.5t3.5 -15t9 -18.5t18.5 -14.5t29.5 -6.5h70q20 0 33.5 8t19 19.5t7 18t1.5 11.5v336q0 30 30 30h18q30 0 30 -30v-303q0 -71 -49 -94q-5 -2 -5 -5q0 -4 10 -4h55q30 0 30 -30v-5q0 -30 -30 -30h-220 q-39 0 -67.5 14.5t-41.5 35t-20.5 40.5t-8.5 34z" />
<glyph unicode="v" d="M106 479q0 8 6.5 14.5t14.5 6.5h44q9 0 15 -6.5t6 -14.5l101 -314q5 -15 9 -15t9 15l98 314q0 9 5.5 15t14.5 6h41q8 0 14.5 -6.5t6.5 -14.5l-148 -451q-13 -28 -43 -28q-36 4 -43 32z" />
<glyph unicode="w" d="M91 133v348q0 8 5.5 13.5t13.5 5.5h36q8 0 13.5 -6t5.5 -13v-348q0 -2 0.5 -6t3.5 -14.5t8.5 -18t17 -14t27.5 -6.5q24 7 33.5 21t9.5 39v291q0 8 5.5 13.5t13.5 5.5h36q8 0 13.5 -6t5.5 -13v-291q0 -47 37 -60q2 0 6 0.5t14 3.5t17.5 8.5t14 17.5t6.5 29v348q0 7 6 13 t13 6h36q7 0 13 -6t6 -13v-348q0 -37 -11.5 -64.5t-28 -40t-33 -19.5t-27.5 -8l-12 -1q-30 0 -49 11.5t-29 23t-18 11.5q-6 0 -14 -7t-15.5 -16t-25.5 -16t-43 -7q-31 0 -54 13.5t-33.5 33t-16.5 39.5t-6 34z" />
<glyph unicode="x" d="M139 21v56q0 40 16 57l93 95q11 11 11 21q0 8 -11 21l-93 95q-16 16 -16 57v56q0 8 6.5 14.5t14.5 6.5h41q9 0 14.5 -6t5.5 -15v-34q0 -38 16 -55l56 -57q10 -11 21 -11q10 0 21 11l57 57q16 16 16 55v34q0 9 5.5 15t14.5 6h41q8 0 14.5 -6.5t6.5 -14.5v-56 q0 -41 -16 -57l-94 -95q-11 -11 -11 -21q0 -11 11 -21l94 -95q16 -14 16 -57v-56q0 -8 -6.5 -14.5t-14.5 -6.5h-41q-9 0 -14.5 6t-5.5 15v34q0 35 -16 55l-57 61q-13 11 -21 11q-9 0 -21 -12l-56 -60q-16 -19 -16 -55v-34q0 -9 -5.5 -15t-14.5 -6h-41q-8 0 -14.5 6.5 t-6.5 14.5z" />
<glyph unicode="y" d="M121 135v337q0 30 30 30h18q30 0 30 -30v-337q0 -2 0.5 -6.5t5.5 -15t13.5 -18.5t27.5 -14.5t44 -6.5q41 0 71 24t30 67l-1 307q0 30 30 30h18q30 0 30 -30l1 -537q0 -9 -2 -22.5t-11 -34.5t-23 -37.5t-41 -28.5t-62 -12h-129q-30 0 -30 30v18q0 30 30 30h129 q34 0 47.5 20.5t13.5 40.5v111q0 10 -4 10q-3 0 -5 -5q-11 -24 -45 -41.5t-77 -17.5q-39 0 -67.5 14.5t-41.5 35t-20.5 40.5t-8.5 34z" />
<glyph unicode="z" d="M126 25q2 35 12 50l220 325q4 12 4 14q0 13 -22 13h-165q-30 0 -30 28v17q0 28 30 28h271q29 0 30 -29q-2 -38 -12 -52l-219 -319q-4 -12 -4 -14q0 -13 22 -13h190q30 0 30 -24v-21q0 -28 -30 -28h-297q-29 0 -30 25z" />
<glyph unicode="{" d="M116 351v9q0 30 30 30h34q30 0 30 30v91q0 62 19.5 105.5t52.5 64.5t65.5 30t68.5 9h30q30 0 30 -30v-14q0 -30 -30 -30h-30q-131 0 -131 -126v-320q0 -126 131 -126h30q30 0 30 -30v-14q0 -30 -30 -30h-30q-36 0 -68.5 9t-65.5 30t-52.5 64.5t-19.5 105.5v82 q0 30 -30 30h-34q-30 0 -30 30z" />
<glyph unicode="|" d="M279 -170v860q0 30 30 30h20q30 0 30 -30v-860q0 -30 -30 -30h-20q-30 0 -30 30z" />
<glyph unicode="}" d="M146 30v14q0 30 30 30h30q131 0 131 126v320q0 126 -131 126h-30q-30 0 -30 30v14q0 30 30 30h30q36 0 68.5 -9t65.5 -30t52.5 -64.5t19.5 -105.5v-91q0 -30 30 -30h34q30 0 30 -30v-9q0 -30 -30 -30h-34q-30 0 -30 -30v-82q0 -62 -19.5 -105.5t-52.5 -64.5t-65.5 -30 t-68.5 -9h-30q-30 0 -30 30z" />
<glyph unicode="~" d="M91 269v30q0 30 30 30h18q30 0 30 -30v-30q0 -2 0.5 -6.5t3.5 -15t9 -18.5t18.5 -14.5t29.5 -6.5q27 0 42.5 15t17.5 31l1 15q0 6 1 15t8.5 33t20.5 42.5t41.5 33.5t67.5 15t67.5 -14.5t41.5 -35t20.5 -40.5t8.5 -34l1 -15v-30q0 -30 -30 -30h-18q-30 0 -30 30v30 q0 2 -0.5 6.5t-3.5 15t-9 18.5t-18.5 14.5t-29.5 6.5q-27 0 -42.5 -15t-17.5 -31l-1 -15q0 -6 -1 -15t-8.5 -33t-20.5 -42.5t-41.5 -33.5t-67.5 -15t-67.5 14.5t-41.5 35t-20.5 40.5t-8.5 34z" />
<glyph unicode="&#xa0;" />
<glyph unicode="&#xa3;" d="M140 37q0 12 3.5 19.5t8 10t8.5 3.5l5 2q10 2 21.5 2.5t17 1t11 2.5t7 8.5t1.5 19.5l-1 235q0 30 -30 30h-19q-30 0 -30 30v15q0 30 30 30h19q30 0 30 30v56q0 14 5 32t17.5 43t43 42t73.5 17h111q30 0 30 -30v-18q0 -30 -30 -30h-111q-24 0 -38.5 -13t-18 -23.5 t-4.5 -21.5v-54q0 -30 30 -30h91q30 0 30 -30v-15q0 -30 -30 -30h-90q-30 0 -30 -30l2 -258q0 -32 33 -46q58 -29 97 -29q21 0 57.5 14.5t54.5 16.5q14 0 26 -17t12 -31q0 -27 -56 -42.5t-96 -15.5q-55 0 -133 40q-54 28 -89 28q-9 -1 -24 -3.5t-21 -2.5q-23 0 -24 42z" />
<glyph unicode="&#xa5;" d="M109 679q0 8 6.5 14.5t14.5 6.5h42q9 0 15 -6.5t6 -14.5l102 -314q5 -15 9 -15t9 15l99 314q0 9 5.5 15t14.5 6h41q8 0 14.5 -6.5t6.5 -14.5l-108 -326q-2 -10 -2 -12q0 -16 23 -16h46q30 0 30 -30v-9q0 -30 -30 -30l-69 -1q-9 0 -16 -2.5t-10.5 -5.5t-5 -7t-2.5 -5v-1 q0 -24 25 -24h78q30 0 30 -30v-9q0 -30 -30 -30h-78q-30 0 -30 -30v-90q0 -9 -5.5 -15t-14.5 -6h-41q-8 0 -14.5 6.5t-6.5 14.5v90q0 30 -30 30h-86q-30 0 -30 30v9q0 30 30 30h85q13 0 21 7.5t8 17.5q0 21 -30 21h-84q-30 0 -30 30v9q0 30 30 30h51q23 0 23 15q0 6 -3 13z " />
<glyph unicode="&#xa6;" d="M279 -170v340q0 30 30 30h20q30 0 30 -30v-340q0 -30 -30 -30h-20q-30 0 -30 30zM279 350v340q0 30 30 30h20q30 0 30 -30v-340q0 -30 -30 -30h-20q-30 0 -30 30z" />
<glyph unicode="&#xa7;" d="M156 589q0 62 46.5 102t111.5 40q48 0 83.5 -28t50.5 -85q11 -42 11 -46q0 -19 -23 -26q-24 -6 -28 -6q-10 0 -17 11.5t-17 49.5q-7 26 -25.5 40t-42.5 14q-26 0 -46.5 -17t-20.5 -43q0 -14 5 -28.5t16 -28.5t20.5 -25t27.5 -25l27 -21t29.5 -21t25.5 -18q1 -1 8 -5.5 t11.5 -7.5t8.5 -8.5t4 -10.5q0 -14 -15.5 -33t-29.5 -19q-8 0 -36 18q-41 27 -63.5 43t-56 47t-49.5 65t-16 72zM163 144q0 16 16.5 24t34.5 8q17 0 24 -22l10 -39q7 -26 25.5 -40t42.5 -14q26 0 46.5 17t20.5 43q0 14 -5 28.5t-16 28.5t-20.5 25t-27.5 25l-27 21t-29.5 21 t-25.5 18q-1 1 -8 5.5t-11.5 7.5t-8.5 8.5t-4 10.5q0 14 15.5 33t29.5 19q8 0 36 -18q39 -24 63.5 -42t56.5 -48t48.5 -64.5t16.5 -72.5q0 -62 -46.5 -102t-111.5 -40q-48 0 -83.5 28t-50.5 85q-11 42 -11 46z" />
<glyph unicode="&#xa8;" d="M143 676q0 24 17 41t40 17q24 0 41 -17t17 -41q0 -23 -17 -40t-41 -17q-23 0 -40 17t-17 40zM343 676q0 24 17 41t40 17q24 0 41 -17t17 -41q0 -23 -17 -40t-41 -17q-23 0 -40 17t-17 40z" />
<glyph unicode="&#xa9;" d="M51 139v292q0 6 1 15t8.5 33t20.5 42.5t41.5 33.5t67.5 15h240q39 0 67.5 -14.5t41.5 -35t20.5 -40.5t8.5 -34l1 -15v-292q0 -6 -1 -15t-8.5 -33t-20.5 -42.5t-41.5 -33.5t-67.5 -15h-240q-39 0 -67.5 14.5t-41.5 35t-20.5 40.5t-8.5 34zM122 133q0 -3 0.5 -7t4 -15 t9 -19t18.5 -15t31 -7h250q28 0 43.5 15.5t17.5 31.5l2 16v303q0 3 -0.5 7t-4 15t-9 19t-18.5 15t-31 7h-250q-28 0 -43.5 -15.5t-17.5 -31.5l-2 -16v-303zM175 279v22q0 6 1 15t8.5 33t20.5 42.5t41.5 33.5t67.5 15h80q30 0 30 -30v-15q0 -30 -30 -30h-80 q-27 0 -42.5 -15.5t-17.5 -30.5l-1 -15v-28q0 -2 0.5 -6.5t3.5 -15t9 -18.5t18.5 -14.5t29.5 -6.5h80q30 0 30 -30v-15q0 -30 -30 -30h-80q-39 0 -67.5 14.5t-41.5 35t-20.5 40.5t-8.5 34z" />
<glyph unicode="&#xab;" d="M91 249q0 26 13.5 52t27.5 39l14 12l122 118q10 10 21 10q9 0 19 -10l10 -10q11 -13 11 -21q0 -9 -11 -20l-123 -119q-20 -19 -20 -46q0 -22 21 -45l117 -121q11 -11 11 -21t-12 -22l-13 -12q-9 -9 -18 -9q-10 0 -21 11l-118 122q-51 53 -51 92zM291 249q0 26 13.5 52 t27.5 39l14 12l122 118q10 10 21 10q9 0 19 -10l10 -10q11 -13 11 -21q0 -9 -11 -20l-123 -119q-20 -19 -20 -46q0 -22 21 -45l117 -121q11 -11 11 -21t-12 -22l-13 -12q-9 -9 -18 -9q-10 0 -21 11l-118 122q-51 53 -51 92z" />
<glyph unicode="&#xad;" d="M190 261v9q0 30 30 30h145q30 0 30 -30v-9q0 -30 -30 -30h-145q-30 0 -30 30z" />
<glyph unicode="&#xae;" d="M51 289v292q0 6 1 15t8.5 33t20.5 42.5t41.5 33.5t67.5 15h240q39 0 67.5 -14.5t41.5 -35t20.5 -40.5t8.5 -34l1 -15v-292q0 -6 -1 -15t-8.5 -33t-20.5 -42.5t-41.5 -33.5t-67.5 -15h-240q-39 0 -67.5 14.5t-41.5 35t-20.5 40.5t-8.5 34zM122 283q0 -3 0.5 -7t4 -15 t9 -19t18.5 -15t31 -7h250q28 0 43.5 16t17.5 32l2 15v303q0 3 -0.5 7t-4 15t-9 19t-18.5 15t-31 7h-250q-28 0 -43.5 -15.5t-17.5 -31.5l-2 -16v-303zM215 334v15q0 30 30 30h50q27 0 42.5 17t17 28t1.5 19q0 2 -0.5 6.5t-3.5 15t-9 18.5t-18.5 14.5t-29.5 6.5h-50 q-30 0 -30 30v15q0 30 30 30h50q39 0 67.5 -15t41.5 -33t20.5 -42t8.5 -33.5t1 -15.5t-1 -15t-8.5 -32.5t-20.5 -41.5t-41.5 -32.5t-67.5 -14.5h-50q-30 0 -30 30z" />
<glyph unicode="&#xb0;" d="M138 560q0 67 47.5 114.5t114.5 47.5t114.5 -47.5t47.5 -114.5t-47.5 -114.5t-114.5 -47.5t-114.5 47.5t-47.5 114.5zM213 560q0 -36 25.5 -61.5t61.5 -25.5q35 0 60.5 25.5t25.5 61.5q0 35 -25.5 60.5t-60.5 25.5q-36 0 -61.5 -25.5t-25.5 -60.5z" />
<glyph unicode="&#xb2;" d="M145 511v45q0 73 46.5 112t110.5 39q59 0 102.5 -39t43.5 -104q0 -92 -170 -257q-7 -7 -7 -14q0 -13 24 -13h139q30 0 30 -30v-20q0 -30 -30 -30h-254q-16 0 -23 8.5t-7 31.5q0 20 12 37q94 99 139 154.5t54.5 79t9.5 53.5q0 29 -21.5 48t-48.5 19q-29 0 -51.5 -20 t-22.5 -52v-50q0 -29 -30 -29h-16q-30 1 -30 31z" />
<glyph unicode="&#xb3;" d="M129 331q0 30 30 30h13q31 0 31 -32q0 -6 1.5 -15.5t17 -25t42.5 -15.5h47q25 1 41.5 17.5t20.5 32.5l4 16q0 42 -15.5 64t-61.5 22h-48q-30 0 -30 30v12q0 30 30 30h47q30 0 46.5 20.5t16.5 51.5q0 9 -1 15.5t-6 18t-19 18t-35 6.5h-27q-17 0 -30 -6t-19 -13.5t-10 -17 t-4.5 -14.5t-0.5 -7q-1 -30 -31 -30h-12q-30 0 -30 32q0 5 1.5 14t10.5 31t23 39t43.5 31t68.5 14q76 0 113.5 -32t37.5 -86q0 -35 -17.5 -63.5t-52.5 -42.5q-9 -4 -9 -5q0 -2 9 -5q41 -11 63 -45.5t22 -77.5q0 -53 -37 -95.5t-96 -47.5h-53q-37 0 -64.5 12.5t-40.5 29 t-20.5 38t-8.5 32t-1 19.5z" />
<glyph unicode="&#xb6;" d="M69 500q0 82 58.5 141t141.5 59h50q30 0 30 -30v-640q0 -30 -30 -30h-20q-30 0 -30 30v270q-83 0 -141.5 59t-58.5 141zM409 30v640q0 30 30 30h20q30 0 30 -30v-640q0 -30 -30 -30h-20q-30 0 -30 30z" />
<glyph unicode="&#xb7;" d="M224 423q0 32 22.5 54.5t53.5 22.5q32 0 54.5 -23t22.5 -54t-22.5 -53.5t-54.5 -22.5t-54 22.5t-22 53.5z" />
<glyph unicode="&#xbb;" d="M101 437q0 8 11 21l12 12q10 10 19 10q11 0 21 -10l122 -118q6 -5 15 -14t24.5 -36t15.5 -53q0 -39 -51 -92l-118 -122q-11 -11 -21 -11q-9 0 -18 9l-11 10q-12 12 -12 22t11 21l117 121q19 20 19 43q0 12 -5.5 24t-11.5 18l-5 6l-123 119q-11 11 -11 20zM301 437 q0 8 11 21l12 12q10 10 19 10q11 0 21 -10l122 -118q6 -5 15 -14t24.5 -36t15.5 -53q0 -39 -51 -92l-118 -122q-11 -11 -21 -11q-9 0 -18 9l-11 10q-12 12 -12 22t11 21l117 121q19 20 19 43q0 12 -5.5 24t-11.5 18l-5 6l-123 119q-11 11 -11 20z" />
<glyph unicode="&#xbd;" horiz-adv-x="1200" d="M166 663q0 37 30 37h133q30 0 30 -37v-417q0 -30 -30 -30h-20q-30 0 -30 30v354q0 30 -30 30h-53q-30 0 -30 33zM410 12q0 7 4 15l305 666q11 27 42 27h24q21 0 21 -12q0 -7 -4 -15l-305 -666q-11 -27 -42 -27h-24q-21 0 -21 12zM795 311v45q0 73 46.5 112t110.5 39 q59 0 102.5 -39t43.5 -104q0 -92 -170 -257q-7 -7 -7 -14q0 -13 24 -13h139q30 0 30 -30v-20q0 -30 -30 -30h-254q-16 0 -23 8.5t-7 31.5q0 20 12 37q94 99 139 154.5t54.5 79t9.5 53.5q0 29 -21.5 48t-48.5 19q-29 0 -51.5 -20t-22.5 -52v-50q0 -29 -30 -29h-16 q-30 1 -30 31z" />
<glyph unicode="&#x2000;" horiz-adv-x="400" />
<glyph unicode="&#x2001;" horiz-adv-x="800" />
<glyph unicode="&#x2002;" horiz-adv-x="400" />
<glyph unicode="&#x2003;" horiz-adv-x="800" />
<glyph unicode="&#x2004;" horiz-adv-x="266" />
<glyph unicode="&#x2005;" horiz-adv-x="200" />
<glyph unicode="&#x2006;" horiz-adv-x="133" />
<glyph unicode="&#x2007;" horiz-adv-x="133" />
<glyph unicode="&#x2008;" horiz-adv-x="100" />
<glyph unicode="&#x2009;" horiz-adv-x="160" />
<glyph unicode="&#x200a;" horiz-adv-x="44" />
<glyph unicode="&#x2010;" d="M190 261v9q0 30 30 30h145q30 0 30 -30v-9q0 -30 -30 -30h-145q-30 0 -30 30z" />
<glyph unicode="&#x2011;" d="M190 261v9q0 30 30 30h145q30 0 30 -30v-9q0 -30 -30 -30h-145q-30 0 -30 30z" />
<glyph unicode="&#x2012;" d="M190 261v9q0 30 30 30h145q30 0 30 -30v-9q0 -30 -30 -30h-145q-30 0 -30 30z" />
<glyph unicode="&#x2013;" d="M170 261v9q0 30 30 30h225q30 0 30 -30v-9q0 -30 -30 -30h-225q-30 0 -30 30z" />
<glyph unicode="&#x2014;" d="M100 261v9q0 30 30 30h366q30 0 30 -30v-9q0 -30 -30 -30h-366q-30 0 -30 30z" />
<glyph unicode="&#x2018;" d="M326 622v69q0 29 27 29h18q30 0 30 -30v-68q0 -28 15.5 -44t31.5 -18l16 -2h10q29 -1 29 -29v-17q0 -28 -29 -28h-10q-6 0 -15 1t-33 8.5t-42 20.5t-33 41t-15 67z" />
<glyph unicode="&#x2019;" d="M46 675v17q0 28 29 28h10q6 0 15 -1t33 -8.5t42 -20.5t33 -41t15 -67v-69q0 -29 -27 -29h-18q-30 0 -30 30v68q0 28 -16 44t-32 18l-15 2h-10q-29 1 -29 29z" />
<glyph unicode="&#x201a;" d="M279 30v260q0 30 30 30h12q30 0 30 -30v-260q0 -30 -30 -30h-12q-30 0 -30 30z" />
<glyph unicode="&#x201c;" d="M126 622v69q0 29 27 29h18q30 0 30 -30v-68q0 -28 15.5 -44t31.5 -18l16 -2h10q29 -1 29 -29v-17q0 -28 -29 -28h-10q-6 0 -15 1t-33 8.5t-42 20.5t-33 41t-15 67zM326 622v69q0 29 27 29h18q30 0 30 -30v-68q0 -28 15.5 -44t31.5 -18l16 -2h10q29 -1 29 -29v-17 q0 -28 -29 -28h-10q-6 0 -15 1t-33 8.5t-42 20.5t-33 41t-15 67z" />
<glyph unicode="&#x201d;" d="M46 675v17q0 28 29 28h10q6 0 15 -1t33 -8.5t42 -20.5t33 -41t15 -67v-69q0 -29 -27 -29h-18q-30 0 -30 30v68q0 28 -16 44t-32 18l-15 2h-10q-29 1 -29 29zM246 675v17q0 28 29 28h10q6 0 15 -1t33 -8.5t42 -20.5t33 -41t15 -67v-69q0 -29 -27 -29h-18q-30 0 -30 30v68 q0 28 -16 44t-32 18l-15 2h-10q-29 1 -29 29z" />
<glyph unicode="&#x201e;" d="M106 -122q0 28 29 29h10q3 0 7 0.5t15 4t19 9.5t15 19t7 31v68q0 30 30 30h18q27 0 27 -29v-69q0 -39 -14 -67t-34.5 -41t-41 -20.5t-34.5 -8.5l-14 -1h-10q-29 0 -29 28v17zM306 -122q0 28 29 29h10q3 0 7 0.5t15 4t19 9.5t15 19t7 31v68q0 30 30 30h18q27 0 27 -29v-69 q0 -39 -14 -67t-34.5 -41t-41 -20.5t-34.5 -8.5l-14 -1h-10q-29 0 -29 28v17z" />
<glyph unicode="&#x2022;" d="M157 303q0 59 42 101.5t101 42.5t101.5 -42.5t42.5 -101.5t-42.5 -101t-101.5 -42t-101 42t-42 101z" />
<glyph unicode="&#x2026;" horiz-adv-x="1200" d="M124 76q0 32 22.5 54.5t53.5 22.5q32 0 54.5 -22.5t22.5 -54.5q0 -31 -22.5 -53.5t-54.5 -22.5t-54 22t-22 54zM524 76q0 32 22.5 54.5t53.5 22.5q32 0 54.5 -22.5t22.5 -54.5q0 -31 -22.5 -53.5t-54.5 -22.5t-54 22t-22 54zM924 76q0 32 22.5 54.5t53.5 22.5 q32 0 54.5 -22.5t22.5 -54.5q0 -31 -22.5 -53.5t-54.5 -22.5t-54 22t-22 54z" />
<glyph unicode="&#x202f;" horiz-adv-x="160" />
<glyph unicode="&#x2039;" d="M291 249q0 26 13.5 52t27.5 39l14 12l122 118q10 10 21 10q9 0 19 -10l10 -10q11 -13 11 -21q0 -9 -11 -20l-123 -119q-20 -19 -20 -46q0 -22 21 -45l117 -121q11 -11 11 -21t-12 -22l-13 -12q-9 -9 -18 -9q-10 0 -21 11l-118 122q-51 53 -51 92z" />
<glyph unicode="&#x203a;" d="M101 437q0 8 11 21l12 12q10 10 19 10q11 0 21 -10l122 -118q6 -5 15 -14t24.5 -36t15.5 -53q0 -39 -51 -92l-118 -122q-11 -11 -21 -11q-9 0 -18 9l-11 10q-12 12 -12 22t11 21l117 121q19 20 19 43q0 12 -5.5 24t-11.5 18l-5 6l-123 119q-11 11 -11 20z" />
<glyph unicode="&#x205f;" horiz-adv-x="200" />
<glyph unicode="&#x20ac;" d="M86 262v14q0 30 30 30h15q30 0 30 30v11q0 30 -30 30h-15q-30 0 -30 30v14q0 30 30 30h15q30 0 30 30v80q0 6 1 15t8.5 33t20.5 42.5t41.5 33.5t67.5 15h160q30 0 30 -30v-13q0 -30 -30 -30h-160q-27 0 -42.5 -15.5t-17.5 -30.5l-1 -15v-85q0 -30 30 -30h146q30 0 30 -30 v-14q0 -30 -30 -30h-146q-30 0 -30 -30v-11q0 -30 30 -30h86q30 0 30 -30v-14q0 -30 -30 -30h-86q-30 0 -30 -30v-68q0 -2 0.5 -6.5t3.5 -15t9 -18.5t18.5 -14.5t29.5 -6.5h160q30 0 30 -30v-13q0 -30 -30 -30h-160q-39 0 -67.5 14.5t-41.5 35t-20.5 40.5t-8.5 34l-1 15v63 q0 30 -30 30h-15q-30 0 -30 30z" />
<glyph unicode="&#x2122;" horiz-adv-x="1200" d="M89 662q0 38 30 38h347q30 0 30 -38q0 -35 -30 -35h-103q-30 0 -30 -30v-267q0 -30 -30 -30h-22q-30 0 -30 30v267q0 30 -30 30h-102q-30 0 -30 35zM601 321v349q0 30 30 30h20q17 0 29 -20l116 -177q7 -13 16 -13q7 0 16 13l116 177q12 20 29 20h20q30 0 30 -30v-349 q0 -8 -6 -14.5t-13 -6.5h-42q-8 0 -13.5 6.5t-5.5 14.5v180q0 17 -4 17q-3 0 -11 -13l-99 -133q-9 -14 -17 -14t-17 14l-99 133q-8 13 -11 13q-4 0 -4 -17v-180q0 -8 -5.5 -14.5t-13.5 -6.5h-42q-7 0 -13 6.5t-6 14.5z" />
<glyph unicode="&#xe000;" horiz-adv-x="500" d="M0 0v500h500v-500h-500z" />
</font>
</defs>
</svg>
