<?xml version="1.0" standalone="no"?>
<!DOCTYPE svg PUBLIC "-//W3C//DTD SVG 1.1//EN" "http://www.w3.org/Graphics/SVG/1.1/DTD/svg11.dtd" >
<svg xmlns="http://www.w3.org/2000/svg">
<metadata></metadata>
<defs>
<font id="nixie_oneregular" horiz-adv-x="572" >
<font-face units-per-em="1000" ascent="800" descent="-200" />
<missing-glyph horiz-adv-x="280" />
<glyph horiz-adv-x="1000" />
<glyph horiz-adv-x="1000" />
<glyph unicode="&#xd;" horiz-adv-x="1000" />
<glyph unicode=" "  horiz-adv-x="280" />
<glyph unicode="&#x09;" horiz-adv-x="280" />
<glyph unicode="&#xa0;" horiz-adv-x="280" />
<glyph unicode="!" horiz-adv-x="268" d="M93 3q-13 14 -13 37t13 36q14 14 37 14t36 -14q14 -13 14 -36t-14 -37q-13 -13 -36 -13t-37 13zM115 185v500q0 15 15 15t15 -15v-500q0 -15 -15 -15t-15 15z" />
<glyph unicode="&#x22;" horiz-adv-x="314" d="M77 475v210q0 15 15 15t15 -15v-210q0 -15 -15 -15t-15 15zM207 475v210q0 15 15 15t15 -15v-210q0 -15 -15 -15t-15 15z" />
<glyph unicode="#" horiz-adv-x="760" d="M36 206q0 15 15 15h146l65 258h-143q-15 0 -15 15t15 15h150l45 179q4 12 14 12q9 0 13 -5.5t2 -13.5l-43 -172h239l45 179q4 12 14 12q9 0 13 -5.5t2 -13.5l-43 -172h139q15 0 15 -15t-15 -15h-147l-64 -258h143q15 0 15 -15t-15 -15h-151l-44 -179q-4 -12 -14 -12 q-9 0 -13 5.5t-2 13.5l43 172h-240l-44 -179q-4 -12 -14 -12q-9 0 -13 5.5t-2 13.5l43 172h-139q-15 0 -15 15zM228 221h239l65 258h-240z" />
<glyph unicode="$" horiz-adv-x="624" d="M60 15v190q0 15 15 15t15 -15v-75q52 -60 141 -93q28 -10 65 -15v324l-72 21q-37 12 -74 30q-90 44 -90 138q0 36 12.5 66t38 55t71.5 39.5t108 14.5h6v55q0 15 15 15t15 -15v-57q23 -4 37 -7q81 -21 146 -76q16 -14 16 10v50q0 15 15 15t15 -15v-190q0 -15 -15 -15 t-15 15v70q-53 62 -138 97q-27 11 -61 16v-305q8 -2 42 -11.5t46 -13t41 -14t41 -18.5t32 -23t29 -30t16 -36.5t7 -46.5q0 -85 -64 -137.5t-181 -52.5h-9v-55q0 -15 -15 -15t-15 15v57q-54 4 -106.5 30.5t-83.5 52.5q-16 14 -16 -10v-50q0 -15 -15 -15t-15 15zM90 535 q0 -29 14 -53t39 -40.5t50 -27t57 -20.5q35 -9 46 -13v299h-6q-101 0 -150.5 -41.5t-49.5 -103.5zM326 20h9q105 0 160 44.5t55 115.5q0 98 -161 140l-63 18v-318z" />
<glyph unicode="%" horiz-adv-x="784" d="M37 540q0 71 47.5 120.5t117.5 49.5t117.5 -49.5t47.5 -120.5t-47.5 -120.5t-117.5 -49.5t-117.5 49.5t-47.5 120.5zM67 540q0 -59 39 -99.5t96 -40.5t96 40.5t39 99.5t-39 99.5t-96 40.5t-96 -40.5t-39 -99.5zM158 14q0 5 4 9l433 669q4 7 12 7q2 0 8 -2q13 -10 4 -20 l-432 -670q-6 -9 -17.5 -6t-11.5 13zM417 160q0 71 47.5 120.5t117.5 49.5t117.5 -49.5t47.5 -120.5t-47.5 -120.5t-117.5 -49.5t-117.5 49.5t-47.5 120.5zM447 160q0 -59 39 -99.5t96 -40.5t96 40.5t39 99.5t-39 99.5t-96 40.5t-96 -40.5t-39 -99.5z" />
<glyph unicode="&#x26;" horiz-adv-x="699" d="M45 170q0 50 23 90t66.5 67t106.5 42q15 4 1 21q-27 32 -43 55.5t-27.5 54t-11.5 60.5q0 34 12.5 62t35.5 47.5t56.5 30t75.5 10.5q55 0 101 -26.5t73 -69.5q8 -11 -7 -19q-11 -8 -21 6q-31 39 -65.5 59t-80.5 20q-68 0 -109 -34t-41 -86q0 -65 76 -150l212 -240 q9 -10 16 0l118 178q3 4 8 5t9.5 -0.5t7.5 -4.5t3 -8t-4 -10l-121 -181q-8 -12 2 -22l72 -82q13 -15 25 -15h66q15 0 15 -15t-15 -15h-80q-12 0 -26 15l-75 85q-11 10 -18 0q-95 -120 -241 -120q-86 0 -140.5 52.5t-54.5 137.5zM75 170q0 -47 21 -83.5t58.5 -56.5t85.5 -20 q130 0 219 111q6 7 6 13q0 5 -5 10l-174 196q-4 7 -15 7l-10 -2q-186 -50 -186 -175z" />
<glyph unicode="'" horiz-adv-x="184" d="M77 475v210q0 15 15 15t15 -15v-210q0 -15 -15 -15t-15 15z" />
<glyph unicode="(" horiz-adv-x="281" d="M76 260v100q0 128 37 236t93 176q11 12 23 2q11 -9 2 -18q-57 -69 -91 -171.5t-34 -224.5v-100q0 -122 34.5 -226t90.5 -170q11 -11 -3 -19q-12 -8 -22 3q-56 68 -93 176t-37 236z" />
<glyph unicode=")" horiz-adv-x="281" d="M46 -144q0 4 4 8q56 66 90.5 170t34.5 226v100q0 122 -34 224.5t-91 171.5q-4 4 -4 8q0 5 5 10t11 5l13 -7q56 -68 93 -176t37 -236v-100q0 -128 -37 -236t-93 -176q-7 -7 -13 -7l-9 3q-7 6 -7 12z" />
<glyph unicode="*" horiz-adv-x="448" d="M67 458q0 8 9 12l107 61q5 2 5 6.5t-5 7.5l-107 61q-9 4 -9 12q0 10 7.5 14.5t16.5 -0.5l102 -60q16 -9 16 8v105q0 15 15 15t15 -15v-105q0 -17 16 -8l102 60q9 5 16.5 0.5t7.5 -14.5q0 -8 -9 -12l-107 -61q-5 -3 -5 -7.5t5 -6.5l107 -61q9 -4 9 -12q0 -10 -7.5 -14.5 t-16.5 0.5l-102 59q-16 9 -16 -8v-100q0 -15 -15 -15t-15 15v100q0 17 -16 8l-102 -59q-9 -5 -16.5 -0.5t-7.5 14.5z" />
<glyph unicode="+" horiz-adv-x="501" d="M40 320q0 15 15 15h160q15 0 15 15v165q0 15 15 15t15 -15v-165q0 -15 15 -15h170q15 0 15 -15t-15 -15h-170q-15 0 -15 -15v-165q0 -15 -15 -15t-15 15v165q0 15 -15 15h-160q-15 0 -15 15z" />
<glyph unicode="," horiz-adv-x="242" d="M71 40q0 23 13.5 36.5t36.5 13.5q50 0 50 -60v-15q0 -52 -20 -88.5t-55 -51.5q-6 -3 -10 -3q-11 0 -13.5 10.5t7.5 15.5q61 27 61 92v8q-14 -8 -25 -8q-19 0 -32 13.5t-13 36.5z" />
<glyph unicode="-" d="M76 320q0 15 15 15h390q15 0 15 -15t-15 -15h-390q-15 0 -15 15z" />
<glyph unicode="." horiz-adv-x="242" d="M84 3q-13 14 -13 37t13 36q14 14 37 14t36 -14q14 -13 14 -36t-14 -37q-13 -13 -36 -13t-37 13z" />
<glyph unicode="/" horiz-adv-x="518" d="M26 14q0 5 4 9l433 669q4 7 12 7q6 0 11 -4.5t5 -9.5q0 -4 -4 -8l-432 -670q-4 -7 -12 -7q-7 0 -12 4.5t-5 9.5z" />
<glyph unicode="0" horiz-adv-x="654" d="M62 350q0 170 75 265q77 95 190 95q114 0 189 -95q76 -94 76 -265t-76 -265q-75 -95 -189 -95q-113 0 -190 95q-75 95 -75 265zM92 350q0 -158 67 -244q68 -86 168 -86q99 0 167 86q68 88 68 244q0 157 -68 243q-67 87 -167 87q-101 0 -168 -87q-67 -85 -67 -243z" />
<glyph unicode="1" horiz-adv-x="346" d="M26 567q0 7 7 11l128 107q21 15 27 15q20 0 20 -15v-640q0 -15 15 -15h70q15 0 15 -15t-15 -15h-200q-15 0 -15 15t15 15h70q15 0 15 15v605q0 10 -14 0l-111 -95q-8 -8 -17.5 -3t-9.5 15z" />
<glyph unicode="2" horiz-adv-x="595" d="M60 15v55q0 58 45 108q48 52 111 85l128 71q63 34 110 82q46 46 46 104q0 64 -54 112t-146 48q-133 0 -219 -91q-11 -11 -21 0t0 21q102 100 240 100q106 0 168 -57t62 -133q0 -64 -46 -116q-45 -52 -110 -90l-128 -70q-62 -33 -111 -79q-45 -43 -45 -95v-25 q0 -15 15 -15h380q15 0 15 15v110q0 15 15 15t15 -15v-140q0 -15 -15 -15h-440q-15 0 -15 15z" />
<glyph unicode="3" horiz-adv-x="601" d="M60 90q-10 10 0 21t21 0q86 -91 219 -91q99 0 154.5 45.5t55.5 124.5q0 74 -46.5 117t-123.5 43h-105q-15 0 -15 15t15 15h85q79 0 124.5 40.5t45.5 104.5q0 68 -53.5 111.5t-144.5 43.5q-105 0 -199 -81q-11 -11 -21 0t0 21q104 90 220 90q98 0 163 -49.5t65 -135.5 q0 -120 -125 -158q69 -12 107 -59.5t38 -117.5q0 -91 -65 -145.5t-175 -54.5q-138 0 -240 100z" />
<glyph unicode="4" horiz-adv-x="578" d="M14 182q0 5 3 11q93 140 110 172q76 144 76 350q0 15 15 15t15 -15q0 -180 -49 -293q-27 -65 -50.5 -105.5t-67.5 -101.5q-8 -15 11 -15h331q15 0 15 15v286q0 15 15 15t15 -15v-286q0 -15 15 -15h80q15 0 15 -15t-15 -15h-80q-15 0 -15 -15v-150q0 -15 -15 -15t-15 15 v150q0 15 -15 15h-380q-14 0 -14 12z" />
<glyph unicode="5" d="M70 375v310q0 15 15 15h390q15 0 15 -15t-15 -15h-360q-15 0 -15 -15v-235q0 -20 15 -12q79 42 168 42q116 0 179 -58.5t63 -161.5q0 -70 -37.5 -122t-101 -81t-138 -43t-158.5 -14q-15 0 -15 15t15 15q238 0 346 100q59 53 59 130q0 89 -55 139.5t-157 50.5 q-105 0 -183 -54q-13 -6 -16 -6q-14 0 -14 15z" />
<glyph unicode="6" horiz-adv-x="597" d="M57 300q0 178 111 304t289 126q15 0 15 -15t-15 -15q-161 0 -266 -118q-51 -58 -68 -107q-5 -15 13 -15h154q125 0 196 -63t71 -172q0 -105 -65 -170t-170 -65q-118 0 -192 81q-73 82 -73 229zM87 300q0 -126 61 -203t174 -77q95 0 150 55.5t55 149.5q0 98 -61.5 151.5 t-180.5 53.5h-163q-14 0 -20 -15q-5 -18 -10 -58t-5 -57z" />
<glyph unicode="7" horiz-adv-x="466" d="M0 545v140q0 15 15 15h440q14 0 14 -12q0 -5 -3 -11l-74 -124q-20 -34 -67 -125q-36 -72 -61 -137q-54 -152 -54 -276q0 -15 -15 -15t-15 15q0 261 241 640q7 15 -11 15h-365q-15 0 -15 -15v-110q0 -15 -15 -15t-15 15z" />
<glyph unicode="8" horiz-adv-x="644" d="M57 170q3 41 13 65.5t35 44.5l30 23q18 11 78 37l44 16q13 5 0 10q-52 20 -96 47q-69 45 -74 127q0 76 62.5 123t172.5 47t172.5 -47t62.5 -123q0 -53 -35 -95q-11 -13 -40 -32q-39 -25 -95 -47q-13 -5 0 -10q98 -37 131 -60q69 -46 69 -126q0 -57 -40 -99t-98.5 -61.5 t-126.5 -19.5q-106 0 -185.5 47.5t-79.5 132.5zM87 170q0 -74 69.5 -112t165.5 -38t165.5 38t69.5 112q0 49 -30 79l-20 19q-21 17 -54 30q-14 7 -32 13l-31 12l-68 22l-68 -22l-32 -12q-7 -3 -32 -13q-33 -14 -53 -30l-20 -19q-30 -30 -30 -79zM117 540q0 -77 90 -120 q37 -18 53 -23l62 -20l61 20q23 8 55 24.5t46 29.5q43 37 43 89q0 65 -53 102.5t-152 37.5t-152 -37.5t-53 -102.5z" />
<glyph unicode="9" horiz-adv-x="597" d="M40 475q0 105 65 170t170 65q119 0 192 -81q73 -82 73 -229q0 -178 -111 -304t-289 -126q-15 0 -15 15t15 15q161 0 266 118q51 58 68 107q5 15 -13 15h-154q-125 0 -196 63t-71 172zM70 475q0 -98 61.5 -151.5t180.5 -53.5h163q14 0 20 15q6 17 10.5 57t4.5 58 q0 126 -61 203t-174 77q-95 0 -150 -55.5t-55 -149.5z" />
<glyph unicode=":" horiz-adv-x="252" d="M89 3q-13 14 -13 37t13 36q14 14 37 14t36 -14q14 -13 14 -36t-14 -37q-13 -13 -36 -13t-37 13zM89 423q-13 14 -13 37t13 36q14 14 37 14t36 -14q14 -13 14 -36t-14 -37q-13 -13 -36 -13t-37 13z" />
<glyph unicode=";" horiz-adv-x="252" d="M76 40q0 23 13.5 36.5t36.5 13.5q50 0 50 -60v-15q0 -52 -20 -88.5t-55 -51.5q-6 -3 -10 -3q-11 0 -13.5 10.5t7.5 15.5q61 27 61 92v8q-14 -8 -25 -8q-19 0 -32 13.5t-13 36.5zM89 423q-13 14 -13 37t13 36q14 14 37 14t36 -14q14 -13 14 -36t-14 -37q-13 -13 -36 -13 t-37 13z" />
<glyph unicode="&#x3c;" horiz-adv-x="499" d="M43 266l376 216q4 4 9 4q6 0 10.5 -6t4.5 -13q0 -6 -8 -11l-343 -198q-14 -9 0 -18l343 -197q8 -6 8 -12t-5 -12t-10 -6t-9 4l-375 216q-11 6 -11 16.5t10 16.5z" />
<glyph unicode="=" horiz-adv-x="580" d="M80 220q0 15 15 15h390q15 0 15 -15t-15 -15h-390q-15 0 -15 15zM80 420q0 15 15 15h390q15 0 15 -15t-15 -15h-390q-15 0 -15 15z" />
<glyph unicode="&#x3e;" horiz-adv-x="499" d="M56 31q0 6 8 12l343 197q13 9 0 18l-343 198q-8 5 -8 11q0 7 4.5 13t10.5 6q5 0 9 -4l376 -216q10 -6 10 -16.5t-11 -16.5l-375 -216q-4 -4 -9 -4t-10 6t-5 12z" />
<glyph unicode="?" horiz-adv-x="542" d="M35 510q0 91 61.5 145.5t168.5 54.5t168 -57q62 -57 62 -133q0 -96 -75 -155l-64 -47q-76 -55 -76 -133q0 -15 -15 -15t-15 15q0 41 15.5 75.5t40.5 55.5q53 43 103 83q56 44 56 121q0 64 -54 112t-146 48q-93 0 -146.5 -45.5t-53.5 -124.5q0 -15 -15 -15t-15 15zM228 3 q-13 14 -13 37t13 36q14 14 37 14t36 -14q14 -13 14 -36t-14 -37q-13 -13 -36 -13t-37 13z" />
<glyph unicode="@" horiz-adv-x="922" d="M51 260q0 196 120 323t295 127q174 0 294 -127q121 -127 121 -323q0 -123 -41 -197q-40 -73 -107 -73q-80 0 -107 80q-6 20 -16 10q-80 -90 -169 -90t-152 68t-63 192t63 192t152 68t169 -90q8 -7 12 -4t4 14v55q0 15 15 15t15 -15v-375q0 -44 20.5 -67t56.5 -23 q52 0 85 66t33 174q0 185 -111 302q-109 118 -274 118q-164 0 -275 -118q-110 -118 -110 -302t110 -302q111 -118 275 -118q168 0 249 91q11 11 21 0t0 -21q-91 -100 -270 -100q-175 0 -295 127t-120 323zM256 250q0 -113 53 -172q54 -58 132 -58q76 0 137 70q27 30 48 70 v180q-21 40 -48 70q-61 70 -137 70q-78 0 -132 -59q-53 -59 -53 -171z" />
<glyph unicode="A" horiz-adv-x="724" d="M-10 15q0 15 15 15h65q12 0 20 15l250 650q5 15 22.5 15t21.5 -15l250 -650q8 -15 20 -15h65q15 0 15 -15t-15 -15h-190q-15 0 -15 15t15 15h60q17 0 10 15l-71 185q-6 14 -24 14h-284q-18 0 -24 -14l-71 -185q-7 -15 10 -15h60q15 0 15 -15t-15 -15h-190q-15 0 -15 15z M219 289q-7 -15 11 -15h264q18 0 11 15l-137 356q-2 6 -6 6t-6 -6z" />
<glyph unicode="B" horiz-adv-x="651" d="M46 15q0 15 15 15h70q15 0 15 15v610q0 15 -15 15h-70q-15 0 -15 15t15 15h305q78 0 129 -49.5t51 -125.5q0 -106 -95 -151q71 -14 108 -62t37 -122q0 -88 -50 -139t-140 -51h-345q-15 0 -15 15zM176 45q0 -15 15 -15h215q75 0 117.5 42.5t42.5 117.5t-42.5 117.5 t-117.5 42.5h-215q-15 0 -15 -15v-290zM176 395q0 -15 15 -15h180q63 0 104 42q41 44 41 103q0 64 -41 104.5t-109 40.5h-175q-15 0 -15 -15v-260z" />
<glyph unicode="C" horiz-adv-x="695" d="M58 350q0 157 88 257q88 103 227 103q122 0 219 -85q16 -13 16 10v50q0 15 15 15t15 -15v-190q0 -15 -15 -15t-15 15v70q-27 31 -63 57q-82 58 -172 58q-123 0 -204 -94t-81 -236q0 -144 84 -237t221 -93q143 0 229 91q10 11 21 0t0 -21q-102 -100 -250 -100 q-151 0 -243 101q-92 104 -92 259z" />
<glyph unicode="D" horiz-adv-x="734" d="M46 15q0 15 15 15h70q15 0 15 15v610q0 15 -15 15h-70q-15 0 -15 15t15 15h280q152 0 243 -100q92 -101 92 -250t-92 -250q-91 -100 -243 -100h-280q-15 0 -15 15zM176 45q0 -15 15 -15h150q136 0 220 91q85 91 85 229t-85 229q-84 91 -220 91h-150q-15 0 -15 -15v-610z " />
<glyph unicode="E" horiz-adv-x="614" d="M46 15q0 15 15 15h70q15 0 15 15v610q0 15 -15 15h-70q-15 0 -15 15t15 15h475q15 0 15 -15v-140q0 -15 -15 -15t-15 15v110q0 15 -15 15h-315q-15 0 -15 -15v-270q0 -15 15 -15h225q15 0 15 15v50q0 15 15 15t15 -15v-160q0 -15 -15 -15t-15 15v50q0 15 -15 15h-225 q-15 0 -15 -15v-280q0 -15 15 -15h325q15 0 15 15v110q0 15 15 15t15 -15v-140q0 -15 -15 -15h-485q-15 0 -15 15z" />
<glyph unicode="F" horiz-adv-x="586" d="M46 15q0 15 15 15h70q15 0 15 15v610q0 15 -15 15h-70q-15 0 -15 15t15 15h475q15 0 15 -15v-140q0 -15 -15 -15t-15 15v110q0 15 -15 15h-315q-15 0 -15 -15v-270q0 -15 15 -15h235q15 0 15 15v50q0 15 15 15t15 -15v-160q0 -15 -15 -15t-15 15v50q0 15 -15 15h-235 q-15 0 -15 -15v-280q0 -15 15 -15h80q15 0 15 -15t-15 -15h-210q-15 0 -15 15z" />
<glyph unicode="G" horiz-adv-x="764" d="M58 350q0 156 88 257q88 103 227 103q121 0 219 -85q16 -13 16 10v50q0 15 15 15t15 -15v-190q0 -15 -15 -15t-15 15v70q-27 31 -63 57q-82 58 -172 58q-123 0 -204 -94t-81 -236q0 -143 82 -237q82 -93 213 -93q87 0 163 57q31 23 62 58v190q0 15 -15 15h-60 q-15 0 -15 15t15 15h190q15 0 15 -15t-15 -15h-70q-15 0 -15 -15v-310q0 -15 -15 -15t-15 15v50q0 23 -16 10q-98 -85 -209 -85q-145 0 -235 102t-90 258z" />
<glyph unicode="H" horiz-adv-x="782" d="M46 15q0 15 15 15h70q15 0 15 15v610q0 15 -15 15h-70q-15 0 -15 15t15 15h190q15 0 15 -15t-15 -15h-60q-15 0 -15 -15v-270q0 -15 15 -15h400q15 0 15 15v270q0 15 -15 15h-60q-15 0 -15 15t15 15h190q15 0 15 -15t-15 -15h-70q-15 0 -15 -15v-610q0 -15 15 -15h70 q15 0 15 -15t-15 -15h-190q-15 0 -15 15t15 15h60q15 0 15 15v280q0 15 -15 15h-400q-15 0 -15 -15v-280q0 -15 15 -15h60q15 0 15 -15t-15 -15h-190q-15 0 -15 15z" />
<glyph unicode="I" horiz-adv-x="322" d="M46 15q0 15 15 15h70q15 0 15 15v610q0 15 -15 15h-70q-15 0 -15 15t15 15h200q15 0 15 -15t-15 -15h-70q-15 0 -15 -15v-610q0 -15 15 -15h70q15 0 15 -15t-15 -15h-200q-15 0 -15 15z" />
<glyph unicode="J" horiz-adv-x="505" d="M20 86q-8 11 7 19q11 7 21 -6q63 -79 146 -79q67 0 108.5 44t41.5 121v470q0 15 -15 15h-70q-15 0 -15 15t15 15h200q15 0 15 -15t-15 -15h-70q-15 0 -15 -15v-470q0 -92 -49 -143.5t-131 -51.5q-55 0 -101 26t-73 70z" />
<glyph unicode="K" horiz-adv-x="696" d="M46 15q0 15 15 15h70q15 0 15 15v610q0 15 -15 15h-70q-15 0 -15 15t15 15h190q15 0 15 -15t-15 -15h-60q-15 0 -15 -15v-370l340 370q6 5 4.5 10t-9.5 5h-65q-15 0 -15 15t15 15h205q15 0 15 -15t-15 -15h-64q-11 0 -26 -15l-231 -251l261 -359q13 -15 25 -15h65 q15 0 15 -15t-15 -15h-200q-15 0 -15 15t15 15h65q18 0 5 15l-243 335l-132 -144v-191q0 -15 15 -15h60q15 0 15 -15t-15 -15h-190q-15 0 -15 15z" />
<glyph unicode="L" horiz-adv-x="578" d="M46 15q0 15 15 15h70q15 0 15 15v610q0 15 -15 15h-70q-15 0 -15 15t15 15h220q15 0 15 -15t-15 -15h-90q-15 0 -15 -15v-610q0 -15 15 -15h320q15 0 15 15v110q0 15 15 15t15 -15v-140q0 -15 -15 -15h-480q-15 0 -15 15z" />
<glyph unicode="M" horiz-adv-x="972" d="M46 15q0 15 15 15h70q15 0 15 15v610q0 15 -15 15h-70q-15 0 -15 15t15 15h110q17 0 25 -15l280 -620q10 -19 20 0l280 620q8 15 25 15h110q15 0 15 -15t-15 -15h-70q-15 0 -15 -15v-610q0 -15 15 -15h70q15 0 15 -15t-15 -15h-190q-15 0 -15 15t15 15h60q15 0 15 15v585 q0 5 -1.5 7t-3 1.5t-3.5 -3.5l-280 -620q-8 -15 -22 -15t-22 15l-280 620q-2 3 -3.5 3.5t-3 -1.5t-1.5 -7v-585q0 -15 15 -15h60q15 0 15 -15t-15 -15h-190q-15 0 -15 15z" />
<glyph unicode="N" horiz-adv-x="785" d="M46 15q0 15 15 15h70q15 0 15 15v610q0 15 -15 15h-70q-15 0 -15 15t15 15h110q16 0 25 -15l410 -625q2 -4 6 -3.5t4 8.5v590q0 15 -15 15h-60q-15 0 -15 15t15 15h190q15 0 15 -15t-15 -15h-70q-15 0 -15 -15v-610q0 -15 15 -15h70q15 0 15 -15t-15 -15h-110 q-16 0 -25 15l-410 625q-2 4 -6 3.5t-4 -8.5v-590q0 -15 15 -15h60q15 0 15 -15t-15 -15h-190q-15 0 -15 15z" />
<glyph unicode="O" horiz-adv-x="786" d="M58 350q0 157 92 258q92 102 243 102t243 -102q92 -101 92 -258q0 -156 -92 -259q-92 -101 -243 -101t-243 101q-92 103 -92 259zM88 350q0 -144 84 -237t221 -93t221 93t84 237t-84 237t-221 93t-221 -93t-84 -237z" />
<glyph unicode="P" horiz-adv-x="633" d="M46 15q0 15 15 15h70q15 0 15 15v610q0 15 -15 15h-70q-15 0 -15 15t15 15h335q99 0 149.5 -53.5t50.5 -156.5t-50.5 -156.5t-149.5 -53.5h-205q-15 0 -15 -15v-220q0 -15 15 -15h80q15 0 15 -15t-15 -15h-210q-15 0 -15 15zM176 325q0 -15 15 -15h205q170 0 170 180 t-170 180h-205q-15 0 -15 -15v-330z" />
<glyph unicode="Q" horiz-adv-x="787" d="M58 350q0 157 92 258q92 102 243 102t243 -102q92 -101 92 -258q0 -128 -63 -223q-61 -93 -172 -123q21 -64 67 -64q32 0 54 16q8 7 16 3t9 -12t-6 -14q-31 -23 -73 -23q-66 0 -98 86q-32 -6 -69 -6q-151 0 -243 101q-92 104 -92 259zM88 350q0 -144 84 -237 q53 -59 126 -80q29 86 95 86q34 0 55.5 -21.5t36.5 -65.5q75 21 129 81q84 93 84 237t-84 237t-221 93t-221 -93t-84 -237zM329 25q33 -5 64 -5q36 0 61 5q-18 64 -61 64q-46 0 -64 -64z" />
<glyph unicode="R" horiz-adv-x="688" d="M46 15q0 15 15 15h70q15 0 15 15v610q0 15 -15 15h-70q-15 0 -15 15t15 15h335q96 0 148 -50t52 -140t-52 -140t-148 -50h-5q-8 0 -11.5 -4.5t1.5 -10.5l190 -260q13 -15 25 -15h65q15 0 15 -15t-15 -15h-200q-15 0 -15 15t15 15h65q18 0 5 15l-200 275h-140 q-15 0 -15 -15v-260q0 -15 15 -15h60q15 0 15 -15t-15 -15h-190q-15 0 -15 15zM176 365q0 -15 15 -15h205q81 0 125.5 42t44.5 118t-44.5 118t-125.5 42h-205q-15 0 -15 -15v-290z" />
<glyph unicode="S" horiz-adv-x="645" d="M70 15v190q0 15 15 15t15 -15v-75q27 -31 64 -55q84 -55 181 -55q105 0 160 44.5t55 115.5q0 75 -87 114q-41 19 -153.5 49t-159.5 54q-90 44 -90 138q0 76 55 125.5t175 49.5t219 -85q16 -14 16 10v50q0 15 15 15t15 -15v-190q0 -15 -15 -15t-15 15v70q-27 31 -63 57 q-82 58 -172 58q-101 0 -150.5 -41.5t-49.5 -103.5q0 -75 87 -114q41 -19 153.5 -49t159.5 -54q90 -44 90 -138q0 -85 -64 -137.5t-181 -52.5q-129 0 -229 85q-16 14 -16 -10v-50q0 -15 -15 -15t-15 15z" />
<glyph unicode="T" horiz-adv-x="618" d="M26 540v145q0 15 15 15h540q15 0 15 -15v-145q0 -15 -15 -15t-15 15v115q0 15 -15 15h-210q-15 0 -15 -15v-610q0 -15 15 -15h70q15 0 15 -15t-15 -15h-200q-15 0 -15 15t15 15h70q15 0 15 15v610q0 15 -15 15h-210q-15 0 -15 -15v-115q0 -15 -15 -15t-15 15z" />
<glyph unicode="U" horiz-adv-x="776" d="M28 685q0 15 15 15h190q15 0 15 -15t-15 -15h-60q-15 0 -15 -15v-405q0 -102 64.5 -166t165.5 -64t165.5 64t64.5 166v405q0 15 -15 15h-60q-15 0 -15 15t15 15h190q15 0 15 -15t-15 -15h-70q-15 0 -15 -15v-405q0 -113 -73.5 -186.5t-186.5 -73.5t-187 72 q-73 73 -73 188v405q0 15 -15 15h-70q-15 0 -15 15z" />
<glyph unicode="V" horiz-adv-x="724" d="M-10 685q0 15 15 15h190q15 0 15 -15t-15 -15h-60q-17 0 -10 -15l231 -600q2 -6 6 -6t6 6l231 600q7 15 -10 15h-60q-15 0 -15 15t15 15h190q15 0 15 -15t-15 -15h-65q-12 0 -20 -15l-250 -650q-4 -15 -22 -15t-22 15l-250 650q-8 15 -20 15h-65q-15 0 -15 15z" />
<glyph unicode="W" horiz-adv-x="1013" d="M-10 685q0 15 15 15h190q15 0 15 -15t-15 -15h-60q-17 0 -10 -15l179 -578q2 -6 6 -6t6 6l171 608q5 15 20 15t20 -15l170 -608q2 -6 6 -6t6 6l179 578q8 15 -10 15h-60q-15 0 -15 15t15 15h190q15 0 15 -15t-15 -15h-65q-15 0 -20 -15l-201 -650q-4 -15 -19 -15t-19 15 l-171 610q-2 6 -7 6t-7 -6l-170 -610q-5 -15 -19 -15t-19 15l-201 650q-4 15 -20 15h-65q-15 0 -15 15z" />
<glyph unicode="X" horiz-adv-x="661" d="M7 15q0 15 15 15h60q16 0 25 15l200 303q6 9 0 18l-190 289q-9 15 -25 15h-60q-15 0 -15 15t15 15h190q15 0 15 -15t-15 -15h-60q-8 0 -11 -4.5t1 -10.5l171 -260q7 -10 14 0l172 260q4 6 1 10.5t-11 4.5h-60q-15 0 -15 15t15 15h190q15 0 15 -15t-15 -15h-60 q-16 0 -25 -15l-190 -289q-6 -9 0 -18l200 -303q9 -15 25 -15h60q15 0 15 -15t-15 -15h-190q-15 0 -15 15t15 15h60q8 0 11 4.5t-1 10.5l-182 275q-7 10 -14 0l-181 -275q-4 -6 -1 -10.5t11 -4.5h60q15 0 15 -15t-15 -15h-190q-15 0 -15 15z" />
<glyph unicode="Y" horiz-adv-x="627" d="M-10 685q0 15 15 15h190q15 0 15 -15t-15 -15h-60q-8 0 -11 -4.5t1 -10.5l181 -316q7 -10 14 0l182 316q4 6 1 10.5t-11 4.5h-60q-15 0 -15 15t15 15h190q15 0 15 -15t-15 -15h-60q-16 0 -25 -15l-208 -361v-249q0 -15 15 -15h70q15 0 15 -15t-15 -15h-200q-15 0 -15 15 t15 15h70q15 0 15 15v247l-209 363q-9 15 -25 15h-60q-15 0 -15 15z" />
<glyph unicode="Z" horiz-adv-x="615" d="M50 17q0 3 12 23l449 614q6 6 3 11t-14 5h-400q-15 0 -15 -15v-110q0 -15 -15 -15t-15 15v140q0 15 15 15h480q15 0 15 -17q0 -3 -12 -23l-449 -614q-6 -6 -3 -11t14 -5h400q15 0 15 15v110q0 15 15 15t15 -15v-140q0 -15 -15 -15h-480q-15 0 -15 17z" />
<glyph unicode="[" horiz-adv-x="290" d="M107 -145v910q0 15 15 15h130q15 0 15 -15t-15 -15h-100q-15 0 -15 -15v-850q0 -15 15 -15h100q15 0 15 -15t-15 -15h-130q-15 0 -15 15z" />
<glyph unicode="\" horiz-adv-x="519" d="M27 685q0 5 5 9.5t11 4.5q8 0 12 -7l433 -669q4 -4 4 -9t-5 -9.5t-12 -4.5q-8 0 -12 7l-432 670q-4 4 -4 8z" />
<glyph unicode="]" horiz-adv-x="290" d="M23 -145q0 15 15 15h100q15 0 15 15v850q0 15 -15 15h-100q-15 0 -15 15t15 15h130q15 0 15 -15v-910q0 -15 -15 -15h-130q-15 0 -15 15z" />
<glyph unicode="^" horiz-adv-x="467" d="M21 458q0 3 3 8l193 263q5 9 17 11q10 0 16 -11l193 -263q3 -5 3 -8q0 -6 -5.5 -11t-11.5 -5q-7 0 -12 8l-174 237q-4 6 -9.5 6t-9.5 -6l-174 -237q-5 -8 -12 -8q-6 0 -11.5 5t-5.5 11z" />
<glyph unicode="_" horiz-adv-x="708" d="M189 -65q0 15 15 15h300q15 0 15 -15t-15 -15h-300q-15 0 -15 15z" />
<glyph unicode="`" horiz-adv-x="242" d="M60 705q0 4 6.5 9.5t11.5 5.5q6 0 11 -9l89 -127q4 -4 4 -10q0 -5 -5.5 -9t-11.5 -4q-7 0 -11 6l-90 128q-4 4 -4 10z" />
<glyph unicode="a" d="M41 140q0 64 54.5 107t145.5 43h165q15 0 15 15v40q0 58 -44 96.5t-112 38.5q-96 0 -162 -51q-8 -6 -16 -2.5t-8.5 11t5.5 13.5q73 59 181 59q79 0 132.5 -46t53.5 -119v-300q0 -15 15 -15h70q15 0 15 -15t-15 -15h-100q-15 0 -15 15v56q0 11 -4 14t-12 -4 q-30 -38 -79 -64.5t-105 -26.5q-85 0 -132.5 42t-47.5 108zM71 140q0 -54 39.5 -87t110.5 -33q82 0 149 67q30 30 51 68v90q0 15 -15 15h-165q-84 0 -127 -33t-43 -87z" />
<glyph unicode="b" horiz-adv-x="599" d="M-4 685q0 15 15 15h100q15 0 15 -15v-170q0 -15 15 -15h135q127 0 198.5 -65.5t71.5 -179.5q0 -125 -59.5 -195t-160.5 -70q-62 0 -112 29q-46 29 -72 62q-8 7 -12 4t-4 -14v-56q0 -15 -15 -15t-15 15v640q0 15 -15 15h-70q-15 0 -15 15zM126 155q21 -38 51 -68 q67 -67 149 -67q87 0 138.5 61.5t51.5 173.5q0 103 -63 159t-177 56h-135q-15 0 -15 -15v-300z" />
<glyph unicode="c" horiz-adv-x="549" d="M51 250q0 115 63 187q63 73 157 73q99 0 174 -75q16 -15 16 10v40q0 15 15 15t15 -15v-160q0 -15 -15 -15t-15 15v50q-22 29 -50.5 52t-65.5 38t-74 15q-81 0 -136 -64q-54 -64 -54 -166q0 -101 55.5 -165.5t149.5 -64.5q37 0 67 6.5t53.5 20t34.5 22t28 23.5q7 6 15 2 t10 -12t-4 -15q-84 -77 -204 -77q-107 0 -171 73.5t-64 186.5z" />
<glyph unicode="d" horiz-adv-x="631" d="M50 255q0 114 71.5 179.5t198.5 65.5h135q15 0 15 15v140q0 15 -15 15h-80q-15 0 -15 15t15 15h110q15 0 15 -15v-640q0 -15 15 -15h70q15 0 15 -15t-15 -15h-100q-15 0 -15 15v56q0 11 -4 14t-12 -4q-29 -37 -78.5 -64t-105.5 -27q-101 0 -160.5 70t-59.5 195zM80 255 q0 -112 51.5 -173.5t138.5 -61.5q82 0 149 67q30 30 51 68v300q0 15 -15 15h-135q-114 0 -177 -56t-63 -159z" />
<glyph unicode="e" horiz-adv-x="567" d="M52 250q0 113 64 186.5t171 73.5q103 0 169 -66t66 -159v-15q0 -30 -30 -30h-394q-17 0 -15 -15q6 -90 61 -147.5t143 -57.5q37 0 67 6.5t53.5 20t34.5 22t28 23.5q7 6 15 2t10 -12t-4 -15q-84 -77 -204 -77q-107 0 -171 73.5t-64 186.5zM84 285q-2 -15 14 -15h379 q15 0 15 15q0 80 -59 137q-58 58 -146 58q-84 0 -139.5 -55.5t-63.5 -139.5z" />
<glyph unicode="f" horiz-adv-x="414" d="M36 15q0 15 15 15h70q15 0 15 15v410q0 15 -15 15h-70q-15 0 -15 15t15 15h70q15 0 15 15v10q0 90 41 137.5t119 47.5q72 0 129 -57q13 -13 2 -23t-21 0q-55 50 -110 50q-63 0 -96.5 -39.5t-33.5 -115.5v-10q0 -15 15 -15h160q15 0 15 -15t-15 -15h-160q-15 0 -15 -15 v-410q0 -15 15 -15h80q15 0 15 -15t-15 -15h-210q-15 0 -15 15z" />
<glyph unicode="g" horiz-adv-x="605" d="M25 -55q0 35 20 68t55 50q7 3 7 8.5t-7 7.5q-21 7 -35.5 23.5t-14.5 36.5q0 41 53 65q14 8 0 21q-38 43 -38 110q0 81 57 128t163 47q94 0 150 -37q32 32 80 32h65q15 0 15 -15v-115q0 -15 -15 -15t-15 15v90q0 15 -15 15h-35q-15 0 -34 -7l-13 -6q-12 -11 -1 -22 q38 -45 38 -110q0 -81 -57 -128t-163 -47q-92 0 -141 32q-33 -9 -48.5 -20t-15.5 -33q0 -39 80 -39h125q260 0 260 -155t-260 -155t-260 155zM55 -55q0 -125 230 -125t230 125t-230 125t-230 -125zM95 335q0 -145 190 -145t190 145t-190 145t-190 -145z" />
<glyph unicode="h" horiz-adv-x="651" d="M19 15q0 15 15 15h70q15 0 15 15v610q0 15 -15 15h-70q-15 0 -15 15t15 15h100q15 0 15 -15v-256q0 -11 4 -14t12 4q81 91 179 91q93 0 144 -52t51 -148v-265q0 -15 15 -15h70q15 0 15 -15t-15 -15h-190q-15 0 -15 15t15 15h60q15 0 15 15v265q0 84 -43.5 127t-121.5 43 q-75 0 -143 -68q-32 -34 -52 -67v-300q0 -15 15 -15h60q15 0 15 -15t-15 -15h-190q-15 0 -15 15z" />
<glyph unicode="i" horiz-adv-x="286" d="M37 15q0 15 15 15h70q15 0 15 15v410q0 15 -15 15h-70q-15 0 -15 15t15 15h100q15 0 15 -15v-440q0 -15 15 -15h70q15 0 15 -15t-15 -15h-200q-15 0 -15 15zM118 591q-11 12 -11 29t11 28q12 12 29 12t28 -12q12 -11 12 -28t-12 -29q-11 -11 -28 -11t-29 11z" />
<glyph unicode="j" horiz-adv-x="245" d="M-131 -130q11 10 21 0q55 -50 110 -50q57 0 88 37t31 108v490q0 15 -15 15h-70q-15 0 -15 15t15 15h100q15 0 15 -15v-520q0 -84 -39.5 -129.5t-109.5 -45.5q-77 0 -129 57q-13 13 -2 23zM100 591q-11 12 -11 29t11 28q12 12 29 12t28 -12q12 -11 12 -28t-12 -29 q-11 -11 -28 -11t-29 11z" />
<glyph unicode="k" horiz-adv-x="581" d="M19 15q0 15 15 15h70q15 0 15 15v610q0 15 -15 15h-70q-15 0 -15 15t15 15h100q15 0 15 -15v-492l240 262q6 5 4.5 10t-9.5 5h-56q-15 0 -15 15t15 15h196q15 0 15 -15t-15 -15h-64q-11 0 -26 -15l-150 -163l180 -247q13 -15 25 -15h65q15 0 15 -15t-15 -15h-190 q-15 0 -15 15t15 15h55q18 0 5 15l-162 223l-113 -124v-99q0 -15 15 -15h60q15 0 15 -15t-15 -15h-190q-15 0 -15 15z" />
<glyph unicode="l" horiz-adv-x="268" d="M19 15q0 15 15 15h70q15 0 15 15v610q0 15 -15 15h-70q-15 0 -15 15t15 15h100q15 0 15 -15v-640q0 -15 15 -15h70q15 0 15 -15t-15 -15h-200q-15 0 -15 15z" />
<glyph unicode="m" horiz-adv-x="959" d="M36 15q0 15 15 15h70q15 0 15 15v410q0 15 -15 15h-70q-15 0 -15 15t15 15h100q15 0 15 -15v-56q0 -26 16 -10q78 91 154 91q59 0 101.5 -33.5t59.5 -94.5q21 37 48 64q61 64 131 64q76 0 123 -53t47 -147v-265q0 -15 15 -15h70q15 0 15 -15t-15 -15h-190q-15 0 -15 15 t15 15h60q15 0 15 15v265q0 80 -39 125t-101 45q-63 0 -124 -70q-27 -30 -48 -70q0 -6 0.5 -13t1 -11t0.5 -6v-265q0 -15 15 -15h60q15 0 15 -15t-15 -15h-180q-15 0 -15 15t15 15h60q15 0 15 15v265q0 80 -39 125t-101 45q-61 0 -121 -68q-27 -30 -49 -67v-300 q0 -15 15 -15h60q15 0 15 -15t-15 -15h-190q-15 0 -15 15z" />
<glyph unicode="n" horiz-adv-x="668" d="M36 15q0 15 15 15h70q15 0 15 15v410q0 15 -15 15h-70q-15 0 -15 15t15 15h100q15 0 15 -15v-56q0 -11 4 -14t12 4q81 91 179 91q93 0 144 -52t51 -148v-265q0 -15 15 -15h70q15 0 15 -15t-15 -15h-190q-15 0 -15 15t15 15h60q15 0 15 15v265q0 84 -43 127t-122 43 q-75 0 -143 -68q-30 -30 -52 -67v-300q0 -15 15 -15h60q15 0 15 -15t-15 -15h-190q-15 0 -15 15z" />
<glyph unicode="o" horiz-adv-x="592" d="M51 250q0 114 67.5 187t177.5 73t177.5 -73t67.5 -187t-67.5 -187t-177.5 -73t-177.5 73t-67.5 187zM81 250q0 -104 57.5 -167t157.5 -63q99 0 157 63.5t58 166.5q0 102 -58.5 166t-156.5 64t-156.5 -64t-58.5 -166z" />
<glyph unicode="p" horiz-adv-x="622" d="M19 -185q0 15 15 15h70q15 0 15 15v610q0 15 -15 15h-70q-15 0 -15 15t15 15h100q15 0 15 -15v-56q0 -11 4 -14t12 4q27 33 72 61q49 30 112 30q105 0 162.5 -73.5t57.5 -191.5q0 -114 -71.5 -179.5t-198.5 -65.5h-135q-15 0 -15 -15v-140q0 -15 15 -15h80q15 0 15 -15 t-15 -15h-210q-15 0 -15 15zM149 45q0 -15 15 -15h135q115 0 177.5 56t62.5 159q0 112 -51.5 173.5t-138.5 61.5q-81 0 -149 -68q-30 -30 -51 -67v-300z" />
<glyph unicode="q" horiz-adv-x="612" d="M53 245q0 118 57 191.5t163 73.5q63 0 111 -30q47 -27 73 -61q8 -7 12 -4t4 14v56q0 15 15 15t15 -15v-640q0 -15 15 -15h70q15 0 15 -15t-15 -15h-210q-15 0 -15 15t15 15h80q15 0 15 15v140q0 15 -15 15h-135q-127 0 -198.5 65.5t-71.5 179.5zM83 245q0 -103 63 -159 t177 -56h135q15 0 15 15v300q-21 37 -51 67q-68 68 -149 68q-87 0 -138.5 -61.5t-51.5 -173.5z" />
<glyph unicode="r" horiz-adv-x="507" d="M36 15q0 15 15 15h70q15 0 15 15v410q0 15 -15 15h-70q-15 0 -15 15t15 15h100q15 0 15 -15v-79q0 -24 16 -7q95 111 234 111h49q15 0 15 -15v-125q0 -15 -15 -15t-15 15v95q0 15 -15 15h-19q-87 0 -150 -44.5t-100 -110.5v-280q0 -15 15 -15h80q15 0 15 -15t-15 -15 h-210q-15 0 -15 15z" />
<glyph unicode="s" horiz-adv-x="554" d="M60 15v160q0 15 15 15t15 -15v-50q21 -30 50 -53q64 -52 150 -52q85 0 132.5 30t47.5 80q0 45 -43 69q-34 19 -131.5 34t-119.5 21q-56 16 -86 44.5t-30 81.5q0 52 54 91t146 39q99 0 174 -75q9 -8 12.5 -4t3.5 14v40q0 15 15 15t15 -15v-160q0 -15 -15 -15t-15 15v50 q-26 33 -50 52q-65 53 -140 53q-82 0 -126 -29.5t-44 -70.5q0 -48 40 -74q26 -16 67.5 -26t99.5 -18.5t85 -14.5q56 -13 87 -40t31 -77q0 -62 -54 -101t-156 -39q-55 0 -104.5 22.5t-79.5 52.5q-16 16 -16 -10v-40q0 -15 -15 -15t-15 15z" />
<glyph unicode="t" horiz-adv-x="403" d="M15 485q0 15 15 15h70q15 0 15 15v170q0 15 15 15t15 -15v-170q0 -15 15 -15h170q15 0 15 -15t-15 -15h-170q-15 0 -15 -15v-290q0 -71 31.5 -108t88.5 -37q55 0 110 50q11 10 21 0t-2 -23q-57 -57 -129 -57q-70 0 -110 45.5t-40 129.5v290q0 15 -15 15h-70q-15 0 -15 15 z" />
<glyph unicode="u" horiz-adv-x="650" d="M11 485q0 15 15 15h100q15 0 15 -15v-295q0 -84 43.5 -127t121.5 -43q75 0 142 67q33 35 53 68v300q0 15 -15 15h-70q-15 0 -15 15t15 15h100q15 0 15 -15v-440q0 -15 15 -15h70q15 0 15 -15t-15 -15h-100q-15 0 -15 15v56q0 11 -4 14t-12 -4q-81 -91 -179 -91 q-93 0 -144 52t-51 148v265q0 15 -15 15h-70q-15 0 -15 15z" />
<glyph unicode="v" horiz-adv-x="624" d="M-1 485q0 15 15 15h190q15 0 15 -15t-15 -15h-62q-18 0 -10 -15l174 -407q2 -6 6 -6t6 6l174 407q8 15 -10 15h-62q-15 0 -15 15t15 15h190q15 0 15 -15t-15 -15h-65q-13 0 -20 -15l-193 -450q-8 -15 -20 -15t-20 15l-193 450q-7 15 -20 15h-65q-15 0 -15 15z" />
<glyph unicode="w" horiz-adv-x="864" d="M-1 485q0 15 15 15h190q15 0 15 -15t-15 -15h-60q-18 0 -10 -15l135 -383q2 -6 6 -6t6 6l131 413q4 15 20 15t20 -15l131 -413q2 -6 6 -6t6 6l135 383q8 15 -10 15h-60q-15 0 -15 15t15 15h190q15 0 15 -15t-15 -15h-65q-15 0 -20 -15l-159 -450q-4 -15 -17 -15t-17 15 l-130 410q-2 8 -10 8t-10 -8l-130 -410q-4 -15 -17 -15t-17 15l-159 450q-5 15 -20 15h-65q-15 0 -15 15z" />
<glyph unicode="x" horiz-adv-x="579" d="M22 15q0 15 15 15h60q12 0 25 15l143 199q6 9 0 18l-138 193q-9 15 -25 15h-60q-15 0 -15 15t15 15h190q15 0 15 -15t-15 -15h-60q-8 0 -11.5 -4.5t1.5 -10.5l120 -167q7 -10 14 0l121 167q5 6 1.5 10.5t-11.5 4.5h-60q-15 0 -15 15t15 15h190q15 0 15 -15t-15 -15h-60 q-16 0 -25 -15l-138 -193q-6 -9 0 -18l143 -199q13 -15 25 -15h60q15 0 15 -15t-15 -15h-190q-15 0 -15 15t15 15h60q8 0 11.5 4.5t-1.5 10.5l-126 174q-7 10 -14 0l-125 -174q-5 -6 -1.5 -10.5t11.5 -4.5h60q15 0 15 -15t-15 -15h-190q-15 0 -15 15z" />
<glyph unicode="y" horiz-adv-x="617" d="M-1 485q0 15 15 15h190q15 0 15 -15t-15 -15h-62q-18 0 -10 -15l189 -395q5 -14 11 0l153 395q7 15 -10 15h-62q-15 0 -15 15t15 15h190q15 0 15 -15t-15 -15h-65q-12 0 -20 -15l-190 -490q-39 -97 -74 -136t-95 -39q-79 0 -124 57q-13 13 -2 23t21 0q50 -50 105 -50 q47 0 77 33t60 112l10 26q4 13 0 24l-207 440q-7 15 -20 15h-65q-15 0 -15 15z" />
<glyph unicode="z" horiz-adv-x="538" d="M49 17q0 10 12 23l368 414q6 5 3 10.5t-14 5.5h-318q-15 0 -15 -15v-95q0 -15 -15 -15t-15 15v125q0 15 15 15h403q15 0 15 -17q0 -9 -12 -23l-368 -414q-6 -5 -3 -10.5t14 -5.5h319q15 0 15 15v95q0 15 15 15t15 -15v-125q0 -15 -15 -15h-404q-15 0 -15 17z" />
<glyph unicode="{" horiz-adv-x="324" d="M21 310q0 15 15 15h10q95 2 95 100v225q0 60 35 95t95 35h15q15 0 15 -15t-15 -15h-15q-100 0 -100 -100v-225q0 -88 -70 -115q70 -27 70 -115v-225q0 -100 100 -100h15q15 0 15 -15t-15 -15h-15q-60 0 -95 35t-35 95v225q0 97 -95 100h-10q-15 0 -15 15z" />
<glyph unicode="|" horiz-adv-x="246" d="M108 -185v870q0 15 15 15t15 -15v-870q0 -15 -15 -15t-15 15z" />
<glyph unicode="}" horiz-adv-x="324" d="M23 -145q0 15 15 15h15q100 0 100 100v225q0 88 70 115q-70 27 -70 115v225q0 100 -100 100h-15q-15 0 -15 15t15 15h15q60 0 95 -35t35 -95v-225q0 -98 95 -100h10q15 0 15 -15t-15 -15h-10q-95 -3 -95 -100v-225q0 -60 -35 -95t-95 -35h-15q-15 0 -15 15z" />
<glyph unicode="~" horiz-adv-x="524" d="M78 280q0 100 100 100q50 0 90 -48q43 -47 80 -47q70 0 70 70q0 15 15 15t15 -15q0 -100 -100 -100q-48 0 -91 47q-40 48 -79 48q-70 0 -70 -70q0 -15 -15 -15t-15 15z" />
<glyph unicode="&#xa0;" d="M41 140q0 64 54.5 107t145.5 43h165q15 0 15 15v40q0 58 -44 96.5t-112 38.5q-96 0 -162 -51q-8 -6 -16 -2.5t-8.5 11t5.5 13.5q73 59 181 59q79 0 132.5 -46t53.5 -119v-300q0 -15 15 -15h70q15 0 15 -15t-15 -15h-100q-15 0 -15 15v56q0 11 -4 14t-12 -4 q-30 -38 -79 -64.5t-105 -26.5q-85 0 -132.5 42t-47.5 108zM71 140q0 -54 39.5 -87t110.5 -33q82 0 149 67q30 30 51 68v90q0 15 -15 15h-165q-84 0 -127 -33t-43 -87zM209 583q-22 23 -22 57t22 57q23 23 58 23q34 0 57 -23t23 -57t-23 -57t-57 -23q-35 0 -58 23zM230 603 q14 -13 37 -13t36 13q14 14 14 37t-14 36q-13 14 -36 14t-37 -14q-13 -13 -13 -36t13 -37z" />
<glyph unicode="&#xa1;" horiz-adv-x="240" d="M83 423q-13 14 -13 37t13 36q14 14 37 14t36 -14q14 -13 14 -36t-14 -37q-13 -13 -36 -13t-37 13zM105 -185v500q0 15 15 15t15 -15v-500q0 -15 -15 -15t-15 15z" />
<glyph unicode="&#xa2;" horiz-adv-x="578" d="M57 250q0 115 63 187q61 71 152 73v55q0 15 15 15t15 -15v-56q81 -9 149 -74q16 -15 16 10v40q0 15 15 15t15 -15v-160q0 -15 -15 -15t-15 15v50q-31 40 -74 68.5t-91 34.5v-458q28 1 53 6.5t41.5 12.5t33.5 18t25.5 17.5t19.5 17.5q7 6 15 2t10 -12t-4 -15 q-81 -74 -194 -77v-55q0 -15 -15 -15t-15 15v56q-98 6 -156.5 79t-58.5 180zM87 250q0 -105 57 -168q26 -28 58 -43.5t70 -18.5v460q-77 -3 -131 -64q-54 -64 -54 -166z" />
<glyph unicode="&#xa3;" horiz-adv-x="578" d="M36 15q0 15 15 15q49 0 79.5 38t30.5 107v150q0 15 -15 15h-70q-15 0 -15 15t15 15h70q15 0 15 15v140q0 88 40 136.5t110 48.5q67 0 108.5 -43t41.5 -112q0 -15 -15 -15t-15 15q0 57 -33 91t-87 34q-56 0 -88 -40t-32 -115v-140q0 -15 15 -15h120q15 0 15 -15t-15 -15 h-120q-15 0 -15 -15v-150q0 -102 -55 -145h265q46 0 78 32.5t32 82.5q0 15 15 15t15 -15q0 -63 -40 -104t-100 -41h-350q-15 0 -15 15z" />
<glyph unicode="&#xa4;" horiz-adv-x="653" d="M65 15q0 15 15 15h70q15 0 15 15v135q0 15 -15 15h-70q-15 0 -15 15t15 15h70q15 0 15 15v45q0 15 -15 15h-70q-15 0 -15 15t15 15h70q15 0 15 15v310q0 15 -15 15h-70q-15 0 -15 15t15 15h335q96 0 148 -52t52 -148t-52 -148t-148 -52h-205q-15 0 -15 -15v-45 q0 -15 15 -15h280q15 0 15 -15t-15 -15h-280q-15 0 -15 -15v-135q0 -15 15 -15h80q15 0 15 -15t-15 -15h-210q-15 0 -15 15zM195 345q0 -15 15 -15h205q83 0 126.5 43.5t43.5 126.5t-43.5 126.5t-126.5 43.5h-205q-15 0 -15 -15v-310z" />
<glyph unicode="&#xa5;" horiz-adv-x="703" d="M28 685q0 15 15 15h190q15 0 15 -15t-15 -15h-60q-8 0 -11 -4.5t1 -10.5l181 -316q7 -10 14 0l182 316q4 6 1 10.5t-11 4.5h-60q-15 0 -15 15t15 15h190q15 0 15 -15t-15 -15h-60q-16 0 -25 -15l-193 -335q-8 -15 10 -15h115q15 0 15 -15t-15 -15h-125q-15 0 -15 -15v-60 q0 -15 15 -15h125q15 0 15 -15t-15 -15h-125q-15 0 -15 -15v-95q0 -15 15 -15h70q15 0 15 -15t-15 -15h-200q-15 0 -15 15t15 15h70q15 0 15 15v95q0 15 -15 15h-125q-15 0 -15 15t15 15h125q15 0 15 15v60q0 15 -15 15h-125q-15 0 -15 15t15 15h115q16 0 9 15l-193 335 q-9 15 -25 15h-60q-15 0 -15 15z" />
<glyph unicode="&#xa6;" horiz-adv-x="256" d="M113 165q0 15 15 15t15 -15v-350q0 -15 -15 -15t-15 15v350zM113 335v350q0 15 15 15t15 -15v-350q0 -15 -15 -15t-15 15z" />
<glyph unicode="&#xa7;" horiz-adv-x="582" d="M63 270q0 45 28 80t78 49q12 5 0 10q-49 20 -74.5 50t-25.5 81q0 71 56.5 115.5t163.5 44.5q60 0 115 -17.5t86 -41.5q7 -5 5.5 -13.5t-8.5 -11.5t-16 3q-24 18 -75.5 34.5t-106.5 16.5q-94 0 -142 -35.5t-48 -94.5q0 -41 26.5 -65.5t77.5 -44.5q29 -11 100 -30.5 t105 -32.5q111 -42 111 -137q0 -44 -28.5 -79.5t-77.5 -49.5q-12 -5 0 -10q49 -20 74.5 -50t25.5 -81q0 -71 -56.5 -115.5t-163.5 -44.5q-61 0 -117 17.5t-84 41.5q-7 5 -5.5 13.5t8.5 11.5t16 -3q24 -18 75.5 -34.5t106.5 -16.5q93 0 141.5 35.5t48.5 94.5q0 41 -26.5 65.5 t-77.5 44.5q-29 11 -100 30.5t-105 32.5q-111 42 -111 137zM93 270q0 -31 13.5 -54t38 -36.5t50 -22.5t57.5 -17q11 -2 17 -4l60 -16q78 0 119 31t41 79q0 63 -56 93q-28 16 -120 41l-60 16q-78 0 -119 -31.5t-41 -78.5z" />
<glyph unicode="&#xa8;" horiz-adv-x="240" d="M11 571q-11 12 -11 29t11 28q12 12 29 12t28 -12q12 -11 12 -28t-12 -29q-11 -11 -28 -11t-29 11zM171 571q-11 12 -11 29t11 28q12 12 29 12t28 -12q12 -11 12 -28t-12 -29q-11 -11 -28 -11t-29 11z" />
<glyph unicode="&#xa9;" horiz-adv-x="878" d="M54 350q0 167 111 278q112 112 274 112t273 -112q112 -111 112 -278t-112 -279q-111 -111 -273 -111q-161 0 -274 111q-111 113 -111 279zM84 350q0 -159 100 -259q101 -101 255 -101q153 0 254 101t101 259t-101 259t-254 101q-154 0 -255 -101q-100 -100 -100 -259z M229 350q0 101 53 169.5t142 70.5q84 0 154 -70q16 -12 16 10v40q0 15 15 15t15 -15v-150q0 -15 -15 -15t-15 15v40q-16 21 -49 50q-62 50 -116 50q-79 0 -124.5 -60t-45.5 -150q0 -93 49.5 -151.5t135.5 -58.5q107 0 169 101q6 8 16 4t10 -12q0 -5 -5 -13 q-71 -110 -190 -110q-100 0 -157.5 67t-57.5 173z" />
<glyph unicode="&#xaa;" horiz-adv-x="420" d="M60 480q0 47 31 73.5t89 26.5h75q15 0 15 15v4q0 76 -80 76q-54 0 -88 -37q-10 -10 -21 0t0 21q16 20 46 33t63 13q51 0 80.5 -29t29.5 -77v-164q0 -15 15 -15h20q15 0 15 -15t-15 -15h-50q-15 0 -15 15v25q-10 -10 -28 -23q-37 -22 -72 -22q-49 0 -79.5 25.5t-30.5 69.5 zM90 480q0 -28 23 -46.5t62 -18.5q23 0 51 17.5t44 37.5v65q0 15 -15 15h-75q-43 0 -66.5 -19t-23.5 -51z" />
<glyph unicode="&#xab;" horiz-adv-x="499" d="M39 249q0 8 8 16l231 230q6 6 14.5 3.5t10.5 -10t-4 -14.5l-216 -216q-9 -9 0 -18l214 -214q4 -4 4.5 -9t-2 -8.5t-6 -6t-8.5 -2t-9 4.5l-228 227q-9 9 -9 17zM209 249q0 8 8 16l186 185q11 10 21.5 -0.5t-0.5 -20.5l-171 -171q-9 -9 0 -18l169 -169q11 -11 0.5 -21.5 t-21.5 0.5l-183 182q-9 9 -9 17z" />
<glyph unicode="&#xac;" horiz-adv-x="592" d="M92 330q0 15 15 15h390q15 0 15 -15v-105q0 -15 -15 -15t-15 15v75q0 15 -15 15h-360q-15 0 -15 15z" />
<glyph unicode="&#xad;" d="M76 320q0 15 15 15h390q15 0 15 -15t-15 -15h-390q-15 0 -15 15z" />
<glyph unicode="&#xae;" horiz-adv-x="878" d="M54 350q0 167 111 278q112 112 274 112t273 -112q112 -111 112 -278t-112 -279q-111 -111 -273 -111q-161 0 -274 111q-111 113 -111 279zM84 350q0 -159 100 -259q101 -101 255 -101q153 0 254 101t101 259t-101 259t-254 101q-154 0 -255 -101q-100 -100 -100 -259z M229 125q0 15 15 15h50q15 0 15 15v380q0 15 -15 15h-50q-15 0 -15 15t15 15h240q66 0 105.5 -35t39.5 -90t-39.5 -90t-105.5 -35q-8 0 -11.5 -4.5t1.5 -10.5l104 -160q14 -15 25 -15h45q15 0 15 -15t-15 -15h-145q-15 0 -15 15t15 15h33q18 0 5 15l-114 175h-73 q-15 0 -15 -15v-160q0 -15 15 -15h30q15 0 15 -15t-15 -15h-140q-15 0 -15 15zM339 375q0 -15 15 -15h130q53 0 84 27t31 68t-31 68t-84 27h-130q-15 0 -15 -15v-160z" />
<glyph unicode="&#xb0;" horiz-adv-x="440" d="M55 540q0 71 47.5 120.5t117.5 49.5t117.5 -49.5t47.5 -120.5t-47.5 -120.5t-117.5 -49.5t-117.5 49.5t-47.5 120.5zM85 540q0 -59 39 -99.5t96 -40.5t96 40.5t39 99.5t-39 99.5t-96 40.5t-96 -40.5t-39 -99.5z" />
<glyph unicode="&#xb1;" horiz-adv-x="511" d="M45 100q0 15 15 15h390q15 0 15 -15t-15 -15h-390q-15 0 -15 15zM45 320q0 15 15 15h160q15 0 15 15v165q0 15 15 15t15 -15v-165q0 -15 15 -15h170q15 0 15 -15t-15 -15h-170q-15 0 -15 -15v-125q0 -15 -15 -15t-15 15v125q0 15 -15 15h-160q-15 0 -15 15z" />
<glyph unicode="&#xb2;" horiz-adv-x="401" d="M75 405v30q0 42 34 69t76 36q110 29 110 75q0 60 -100 60q-61 0 -99 -41q-8 -14 -21 0q-10 10 0 21q50 50 120 50q130 0 130 -90q0 -57 -77 -84l-66 -20q-77 -23 -77 -76q0 -15 15 -15h160q15 0 15 15v25q0 15 15 15t15 -15v-55q0 -15 -15 -15h-220q-15 0 -15 15z" />
<glyph unicode="&#xb3;" horiz-adv-x="381" d="M71 435q-11 11 0 21t21 0q16 -18 43.5 -29.5t56.5 -11.5q95 0 95 55q0 30 -21 47.5t-59 17.5h-65q-15 0 -15 15q0 14 15 14h65q70 0 70 56q0 55 -90 55q-59 0 -93 -37q-7 -7 -15.5 -4t-10.5 10.5t5 14.5q16 19 49 32.5t65 13.5q58 0 89 -22.5t31 -62.5q0 -49 -50 -70 q60 -22 60 -80q0 -40 -32 -62.5t-93 -22.5q-35 0 -69 14.5t-52 35.5z" />
<glyph unicode="&#xb4;" horiz-adv-x="122" d="M4 584l89 127q9 15 21 4q13 -7 4 -20l-90 -128q-6 -7 -14.5 -5.5t-11.5 8t2 14.5z" />
<glyph unicode="&#xb5;" horiz-adv-x="688" d="M37 485q0 15 15 15h100q15 0 15 -15v-304q0 -79 44.5 -120t125.5 -41q74 0 140 70q27 28 50 70v295q0 15 -15 15h-70q-15 0 -15 15t15 15h100q15 0 15 -15v-440q0 -15 15 -15h70q15 0 15 -15t-15 -15h-100q-15 0 -15 15v56q0 25 -16 10q-81 -91 -174 -91q-120 0 -170 80 v-255q0 -15 -15 -15t-15 15v640q0 15 -15 15h-70q-15 0 -15 15z" />
<glyph unicode="&#xb6;" horiz-adv-x="735" d="M37 460q0 113 66 176.5t179 63.5h405q15 0 15 -15t-15 -15h-100q-15 0 -15 -15v-840q0 -15 -15 -15t-15 15v840q0 15 -15 15h-140q-15 0 -15 -15v-840q0 -15 -15 -15t-15 15v390q0 15 -15 15h-45q-113 0 -179 63.5t-66 176.5zM67 460q0 -102 56 -156t159 -54h45 q15 0 15 15v390q0 15 -15 15h-45q-103 0 -159 -54t-56 -156z" />
<glyph unicode="&#xb7;" horiz-adv-x="252" d="M89 313q-13 14 -13 37t13 36q14 14 37 14t36 -14q14 -13 14 -36t-14 -37q-13 -13 -36 -13t-37 13z" />
<glyph unicode="&#xb8;" horiz-adv-x="115" d="M0 -165q0 15 15 15q70 0 70 40q0 18 -13 29t-37 11h-15q-15 0 -15 15v55q0 15 15 15t15 -15v-40q36 0 58 -19.5t22 -50.5q0 -70 -100 -70q-15 0 -15 15z" />
<glyph unicode="&#xb9;" horiz-adv-x="309" d="M58 618q0 7 7 11l74 61q21 15 27 15q20 0 20 -15v-255q0 -15 15 -15h40q15 0 15 -15t-15 -15h-140q-15 0 -15 15t15 15h40q15 0 15 15v220q0 11 -14 0l-57 -49q-8 -7 -17.5 -2t-9.5 14z" />
<glyph unicode="&#xba;" horiz-adv-x="396" d="M58 545q0 69 38 114.5t102 45.5q63 0 101.5 -45.5t38.5 -114.5t-38 -114.5t-102 -45.5t-102 45t-38 115zM88 545q0 -58 28.5 -94t81.5 -36t81.5 36t28.5 94t-28.5 94t-81.5 36t-81.5 -36t-28.5 -94z" />
<glyph unicode="&#xbb;" horiz-adv-x="499" d="M75 429q-7 6 -4.5 14.5t10.5 10.5t15 -4l186 -185q8 -8 8 -16t-9 -17l-183 -182q-7 -7 -15.5 -4t-10.5 10.5t5 14.5l169 169q9 9 0 18zM200 474q-11 11 0 21q11 8 21 0l231 -230q8 -8 8 -16t-9 -17l-228 -227q-11 -11 -21 0t0 21l214 214q9 9 0 18z" />
<glyph unicode="&#xbc;" horiz-adv-x="672" d="M44 619q0 7 7 11l74 61q21 15 27 15q20 0 20 -15v-255q0 -15 15 -15h40q15 0 15 -15t-15 -15h-140q-15 0 -15 15t15 15h40q15 0 15 15v220q0 10 -14 0l-57 -49q-8 -8 -17.5 -3t-9.5 15zM100 14q0 5 4 9l433 669q4 7 12 7q2 0 8 -2q13 -10 4 -20l-432 -670q-6 -9 -17.5 -6 t-11.5 13zM344 88v5q0 4 3 7q53 45 76.5 91t23.5 114q0 15 15 15t15 -15q0 -63 -20.5 -114.5t-54.5 -80.5h130q15 0 15 15v106q0 15 15 15t15 -15v-106q0 -15 15 -15h30q15 0 15 -15t-15 -15h-30q-15 0 -15 -15v-55q0 -15 -15 -15t-15 15v55q0 15 -15 15h-175q-10 0 -13 8z " />
<glyph unicode="&#xbd;" horiz-adv-x="674" d="M39 619q0 7 7 11l74 61q21 15 27 15q20 0 20 -15v-255q0 -15 15 -15h40q15 0 15 -15t-15 -15h-140q-15 0 -15 15t15 15h40q15 0 15 15v220q0 10 -14 0l-57 -49q-8 -7 -17.5 -2.5t-9.5 14.5zM95 14q0 5 4 9l433 669q4 7 12 7q2 0 8 -2q14 -10 4 -20l-432 -670 q-4 -7 -12 -7q-7 0 -12 4.5t-5 9.5zM375 15v30q0 42 34 69t76 36q110 29 110 75q0 60 -100 60q-61 0 -99 -41q-7 -12 -19 -2q-14 11 -2 23q50 50 120 50q130 0 130 -90q0 -60 -77 -83l-65 -21q-78 -23 -78 -76q0 -15 15 -15h160q15 0 15 15v25q0 15 15 15t15 -15v-55 q0 -15 -15 -15h-220q-15 0 -15 15z" />
<glyph unicode="&#xbe;" horiz-adv-x="706" d="M54 435q-6 7 -3.5 15t10 10t14.5 -4q16 -18 43.5 -29.5t56.5 -11.5q95 0 95 55q0 30 -21 47.5t-59 17.5h-65q-15 0 -15 15q0 14 15 14h65q70 0 70 56q0 55 -90 55q-59 0 -93 -37q-11 -10 -21 0t0 21q16 19 49 32.5t65 13.5q58 0 89 -22.5t31 -62.5q0 -49 -50 -70 q60 -22 60 -80q0 -40 -32 -62.5t-93 -22.5q-35 0 -69 14.5t-52 35.5zM134 14q0 5 4 9l433 669q4 7 12 7q2 0 8 -2q14 -10 4 -20l-432 -670q-6 -9 -17.5 -6t-11.5 13zM378 88v5q0 4 3 7q53 45 76.5 91t23.5 114q0 15 15 15t15 -15q0 -63 -20.5 -114.5t-54.5 -80.5h130 q15 0 15 15v106q0 15 15 15t15 -15v-106q0 -15 15 -15h30q15 0 15 -15t-15 -15h-30q-15 0 -15 -15v-55q0 -15 -15 -15t-15 15v55q0 15 -15 15h-175q-10 0 -13 8z" />
<glyph unicode="&#xbf;" horiz-adv-x="532" d="M40 -20q0 95 85 161l45 35q40 30 62.5 61.5t22.5 77.5q0 15 15 15t15 -15q0 -91 -75 -150l-64 -46q-76 -55 -76 -139q0 -64 54 -112t146 -48q93 0 146.5 45.5t53.5 124.5q0 15 15 15t15 -15q0 -92 -61.5 -146t-168.5 -54q-108 0 -169 57q-61 55 -61 133zM234 424 q-14 14 -14 36t14 36t36 14t36 -14t14 -36t-14 -36t-36 -14t-36 14z" />
<glyph unicode="&#xc0;" horiz-adv-x="724" d="M-10 15q0 15 15 15h65q12 0 20 15l250 650q5 15 22.5 15t21.5 -15l250 -650q8 -15 20 -15h65q15 0 15 -15t-15 -15h-190q-15 0 -15 15t15 15h60q17 0 10 15l-71 185q-6 14 -24 14h-284q-18 0 -24 -14l-71 -185q-7 -15 10 -15h60q15 0 15 -15t-15 -15h-190q-15 0 -15 15z M219 289q-7 -15 11 -15h264q18 0 11 15l-137 356q-2 6 -6 6t-6 -6zM253 900q0 4 6.5 9.5t11.5 5.5q7 0 11 -9l89 -127q4 -4 4 -10q0 -4 -5.5 -8.5t-11.5 -4.5t-11 6l-90 128q-4 4 -4 10z" />
<glyph unicode="&#xc1;" horiz-adv-x="724" d="M-10 15q0 15 15 15h65q12 0 20 15l250 650q5 15 22.5 15t21.5 -15l250 -650q8 -15 20 -15h65q15 0 15 -15t-15 -15h-190q-15 0 -15 15t15 15h60q17 0 10 15l-71 185q-6 14 -24 14h-284q-18 0 -24 -14l-71 -185q-7 -15 10 -15h60q15 0 15 -15t-15 -15h-190q-15 0 -15 15z M219 289q-7 -15 11 -15h264q18 0 11 15l-137 356q-2 6 -6 6t-6 -6zM347 769q0 6 4 10l89 127q4 9 11 9q5 0 11.5 -5.5t6.5 -9.5q0 -6 -4 -10l-90 -128q-5 -6 -12 -6q-6 0 -11 4.5t-5 8.5z" />
<glyph unicode="&#xc2;" horiz-adv-x="724" d="M-10 15q0 15 15 15h65q12 0 20 15l250 650q5 15 22.5 15t21.5 -15l250 -650q8 -15 20 -15h65q15 0 15 -15t-15 -15h-190q-15 0 -15 15t15 15h60q17 0 10 15l-71 185q-6 14 -24 14h-284q-18 0 -24 -14l-71 -185q-7 -15 10 -15h60q15 0 15 -15t-15 -15h-190q-15 0 -15 15z M219 289q-7 -15 11 -15h264q18 0 11 15l-137 356q-2 6 -6 6t-6 -6zM237 761l107 109q9 9 17 9t16 -8l110 -110q8 -7 5 -15t-11 -9.5t-15 3.5l-96 95q-9 9 -18 0l-94 -95q-6 -6 -14.5 -3.5t-10.5 10t4 14.5z" />
<glyph unicode="&#xc3;" horiz-adv-x="724" d="M-10 15q0 15 15 15h65q12 0 20 15l250 650q5 15 22.5 15t21.5 -15l250 -650q8 -15 20 -15h65q15 0 15 -15t-15 -15h-190q-15 0 -15 15t15 15h60q17 0 10 15l-71 185q-6 14 -24 14h-284q-18 0 -24 -14l-71 -185q-7 -15 10 -15h60q15 0 15 -15t-15 -15h-190q-15 0 -15 15z M219 289q-7 -15 11 -15h264q18 0 11 15l-137 356q-2 6 -6 6t-6 -6zM237 761q0 42 19.5 66t50.5 24q22 0 38 -11.5t24 -26t20.5 -26t27.5 -11.5q40 0 40 60q0 15 15 15t15 -15q0 -43 -19 -66.5t-51 -23.5q-28 0 -45.5 19t-31.5 37.5t-33 18.5q-40 0 -40 -60q0 -15 -15 -15 t-15 15z" />
<glyph unicode="&#xc4;" horiz-adv-x="724" d="M-10 15q0 15 15 15h65q12 0 20 15l250 650q5 15 22.5 15t21.5 -15l250 -650q8 -15 20 -15h65q15 0 15 -15t-15 -15h-190q-15 0 -15 15t15 15h60q17 0 10 15l-71 185q-6 14 -24 14h-284q-18 0 -24 -14l-71 -185q-7 -15 10 -15h60q15 0 15 -15t-15 -15h-190q-15 0 -15 15z M219 289q-7 -15 11 -15h264q18 0 11 15l-137 356q-2 6 -6 6t-6 -6zM253 756q-11 12 -11 29t11 28q12 12 29 12t28 -12q12 -11 12 -28t-12 -29q-11 -11 -28 -11t-29 11zM413 756q-11 12 -11 29t11 28q12 12 29 12t28 -12q12 -11 12 -28t-12 -29q-11 -11 -28 -11t-29 11z" />
<glyph unicode="&#xc5;" horiz-adv-x="725" d="M-10 15q0 15 15 15h65q12 0 20 15l246 639q-53 18 -53 76q0 34 22 57t57 23t58 -23t23 -57q0 -27 -14.5 -47.5t-40.5 -28.5l246 -639q8 -15 20 -15h65q15 0 15 -15t-15 -15h-190q-15 0 -15 15t15 15h60q17 0 10 15l-71 185q-6 14 -24 14h-284q-18 0 -24 -14l-71 -185 q-7 -15 10 -15h60q15 0 15 -15t-15 -15h-190q-15 0 -15 15zM219 289q-7 -15 11 -15h264q18 0 11 15l-137 356q-2 6 -6 6t-6 -6zM313 760q0 -23 14 -36.5t35 -13.5t35 13.5t14 36.5t-14 36.5t-35 13.5t-35 -13.5t-14 -36.5z" />
<glyph unicode="&#xc6;" horiz-adv-x="964" d="M-24 15q0 15 15 15h65q12 0 20 15l352 635q9 20 26 20h432q15 0 15 -15v-140q0 -15 -15 -15t-15 15v110q0 15 -15 15h-315q-15 0 -15 -15v-270q0 -15 15 -15h225q15 0 15 15v50q0 15 15 15t15 -15v-160q0 -15 -15 -15t-15 15v50q0 15 -15 15h-225q-15 0 -15 -15v-280 q0 -15 15 -15h325q15 0 15 15v110q0 15 15 15t15 -15v-140q0 -15 -15 -15h-475q-15 0 -15 15t15 15h60q15 0 15 15v210q0 15 -15 15h-229q-18 0 -24 -14l-117 -211q-7 -15 10 -15h60q15 0 15 -15t-15 -15h-190q-15 0 -15 15zM261 315q-7 -15 11 -15h209q15 0 15 15v340 q0 15 -15 15h-11q-12 0 -20 -15z" />
<glyph unicode="&#xc7;" horiz-adv-x="696" d="M59 350q0 157 88 257q88 103 227 103q122 0 219 -85q16 -13 16 10v50q0 15 15 15t15 -15v-190q0 -15 -15 -15t-15 15v70q-27 31 -63 57q-82 58 -172 58q-123 0 -204 -94q-81 -95 -81 -236q0 -144 84 -237t221 -93q143 0 229 91q10 10 20.5 -0.5t0.5 -20.5 q-102 -100 -250 -100h-7v-30q36 0 58 -19.5t22 -50.5q0 -70 -100 -70q-15 0 -15 15t15 15q70 0 70 40q0 18 -13 29t-37 11h-15q-15 0 -15 15v47q-126 11 -206 99q-92 104 -92 259z" />
<glyph unicode="&#xc8;" horiz-adv-x="614" d="M46 15q0 15 15 15h70q15 0 15 15v610q0 15 -15 15h-70q-15 0 -15 15t15 15h475q15 0 15 -15v-140q0 -15 -15 -15t-15 15v110q0 15 -15 15h-315q-15 0 -15 -15v-270q0 -15 15 -15h225q15 0 15 15v50q0 15 15 15t15 -15v-160q0 -15 -15 -15t-15 15v50q0 15 -15 15h-225 q-15 0 -15 -15v-280q0 -15 15 -15h325q15 0 15 15v110q0 15 15 15t15 -15v-140q0 -15 -15 -15h-485q-15 0 -15 15zM232 905q0 4 6.5 9.5t11.5 5.5q6 0 11 -9l89 -127q4 -4 4 -10q0 -5 -5.5 -9t-11.5 -4q-7 0 -11 6l-90 128q-4 4 -4 10z" />
<glyph unicode="&#xc9;" horiz-adv-x="614" d="M46 15q0 15 15 15h70q15 0 15 15v610q0 15 -15 15h-70q-15 0 -15 15t15 15h475q15 0 15 -15v-140q0 -15 -15 -15t-15 15v110q0 15 -15 15h-315q-15 0 -15 -15v-270q0 -15 15 -15h225q15 0 15 15v50q0 15 15 15t15 -15v-160q0 -15 -15 -15t-15 15v50q0 15 -15 15h-225 q-15 0 -15 -15v-280q0 -15 15 -15h325q15 0 15 15v110q0 15 15 15t15 -15v-140q0 -15 -15 -15h-485q-15 0 -15 15zM292 764q0 6 4 10l89 127q5 9 11 9q5 0 11.5 -5.5t6.5 -9.5q0 -6 -4 -10l-90 -128q-4 -6 -11 -6q-6 0 -11.5 4t-5.5 9z" />
<glyph unicode="&#xca;" horiz-adv-x="614" d="M46 15q0 15 15 15h70q15 0 15 15v610q0 15 -15 15h-70q-15 0 -15 15t15 15h475q15 0 15 -15v-140q0 -15 -15 -15t-15 15v110q0 15 -15 15h-315q-15 0 -15 -15v-270q0 -15 15 -15h225q15 0 15 15v50q0 15 15 15t15 -15v-160q0 -15 -15 -15t-15 15v50q0 15 -15 15h-225 q-15 0 -15 -15v-280q0 -15 15 -15h325q15 0 15 15v110q0 15 15 15t15 -15v-140q0 -15 -15 -15h-485q-15 0 -15 15zM188 787l107 109q9 9 17 9t16 -8l110 -110q10 -11 0 -21t-21 0l-96 95q-9 9 -18 0l-94 -95q-11 -10 -21 0t0 21z" />
<glyph unicode="&#xcb;" horiz-adv-x="614" d="M46 15q0 15 15 15h70q15 0 15 15v610q0 15 -15 15h-70q-15 0 -15 15t15 15h475q15 0 15 -15v-140q0 -15 -15 -15t-15 15v110q0 15 -15 15h-315q-15 0 -15 -15v-270q0 -15 15 -15h225q15 0 15 15v50q0 15 15 15t15 -15v-160q0 -15 -15 -15t-15 15v50q0 15 -15 15h-225 q-15 0 -15 -15v-280q0 -15 15 -15h325q15 0 15 15v110q0 15 15 15t15 -15v-140q0 -15 -15 -15h-485q-15 0 -15 15zM214 781q-11 12 -11 29t11 28q12 12 29 12t28 -12q12 -11 12 -28t-12 -29q-11 -11 -28 -11t-29 11zM374 781q-11 12 -11 29t11 28q12 12 29 12t28 -12 q12 -11 12 -28t-12 -29q-11 -11 -28 -11t-29 11z" />
<glyph unicode="&#xcc;" horiz-adv-x="322" d="M46 15q0 15 15 15h70q15 0 15 15v610q0 15 -15 15h-70q-15 0 -15 15t15 15h200q15 0 15 -15t-15 -15h-70q-15 0 -15 -15v-610q0 -15 15 -15h70q15 0 15 -15t-15 -15h-200q-15 0 -15 15zM50 895q0 4 6.5 9.5t11.5 5.5q6 0 11 -9l89 -127q4 -4 4 -10q0 -5 -5.5 -9t-11.5 -4 q-7 0 -11 6l-90 128q-4 4 -4 10z" />
<glyph unicode="&#xcd;" horiz-adv-x="322" d="M46 15q0 15 15 15h70q15 0 15 15v610q0 15 -15 15h-70q-15 0 -15 15t15 15h200q15 0 15 -15t-15 -15h-70q-15 0 -15 -15v-610q0 -15 15 -15h70q15 0 15 -15t-15 -15h-200q-15 0 -15 15zM140 764q0 6 4 10l89 127q5 9 11 9q5 0 11.5 -5.5t6.5 -9.5q0 -6 -4 -10l-90 -128 q-4 -6 -11 -6q-6 0 -11.5 4t-5.5 9z" />
<glyph unicode="&#xce;" horiz-adv-x="322" d="M36 787l107 109q9 9 17 9t16 -8l110 -110q10 -11 0 -21t-21 0l-96 95q-9 9 -18 0l-94 -95q-11 -10 -21 0t0 21zM46 15q0 15 15 15h70q15 0 15 15v610q0 15 -15 15h-70q-15 0 -15 15t15 15h200q15 0 15 -15t-15 -15h-70q-15 0 -15 -15v-610q0 -15 15 -15h70q15 0 15 -15 t-15 -15h-200q-15 0 -15 15z" />
<glyph unicode="&#xcf;" horiz-adv-x="322" d="M46 15q0 15 15 15h70q15 0 15 15v610q0 15 -15 15h-70q-15 0 -15 15t15 15h200q15 0 15 -15t-15 -15h-70q-15 0 -15 -15v-610q0 -15 15 -15h70q15 0 15 -15t-15 -15h-200q-15 0 -15 15zM52 781q-11 12 -11 29t11 28q12 12 29 12t28 -12q12 -11 12 -28t-12 -29 q-11 -11 -28 -11t-29 11zM212 781q-11 12 -11 29t11 28q12 12 29 12t28 -12q12 -11 12 -28t-12 -29q-11 -11 -28 -11t-29 11z" />
<glyph unicode="&#xd0;" horiz-adv-x="734" d="M46 15q0 15 15 15h70q15 0 15 15v275q0 15 -15 15h-70q-15 0 -15 15t15 15h70q15 0 15 15v275q0 15 -15 15h-70q-15 0 -15 15t15 15h280q152 0 243 -100q92 -101 92 -250t-92 -250q-91 -100 -243 -100h-280q-15 0 -15 15zM176 45q0 -15 15 -15h150q136 0 220 91 q85 91 85 229t-85 229q-84 91 -220 91h-150q-15 0 -15 -15v-275q0 -15 15 -15h70q15 0 15 -15t-15 -15h-70q-15 0 -15 -15v-275z" />
<glyph unicode="&#xd1;" horiz-adv-x="785" d="M46 15q0 15 15 15h70q15 0 15 15v610q0 15 -15 15h-70q-15 0 -15 15t15 15h110q16 0 25 -15l410 -625q2 -4 6 -3.5t4 8.5v590q0 15 -15 15h-60q-15 0 -15 15t15 15h190q15 0 15 -15t-15 -15h-70q-15 0 -15 -15v-610q0 -15 15 -15h70q15 0 15 -15t-15 -15h-110 q-16 0 -25 15l-410 625q-2 4 -6 3.5t-4 -8.5v-590q0 -15 15 -15h60q15 0 15 -15t-15 -15h-190q-15 0 -15 15zM261 785q0 42 19.5 66t50.5 24q22 0 38 -11.5t24 -26t20.5 -26t27.5 -11.5q40 0 40 60q0 15 15 15t15 -15q0 -43 -19 -66.5t-51 -23.5q-28 0 -45.5 19t-31.5 37.5 t-33 18.5q-40 0 -40 -60q0 -15 -15 -15t-15 15z" />
<glyph unicode="&#xd2;" horiz-adv-x="786" d="M58 350q0 157 92 258q92 102 243 102t243 -102q92 -101 92 -258q0 -156 -92 -259q-92 -101 -243 -101t-243 101q-92 103 -92 259zM88 350q0 -144 84 -237t221 -93t221 93t84 237t-84 237t-221 93t-221 -93t-84 -237zM292 905q0 4 6.5 9.5t11.5 5.5q6 0 11 -9l89 -127 q4 -4 4 -10q0 -5 -5.5 -9t-11.5 -4q-7 0 -11 6l-90 128q-4 4 -4 10z" />
<glyph unicode="&#xd3;" horiz-adv-x="786" d="M58 350q0 157 92 258q92 102 243 102t243 -102q92 -101 92 -258q0 -156 -92 -259q-92 -101 -243 -101t-243 101q-92 103 -92 259zM88 350q0 -144 84 -237t221 -93t221 93t84 237t-84 237t-221 93t-221 -93t-84 -237zM372 774q0 6 4 10l89 127q5 9 11 9q5 0 11.5 -5.5 t6.5 -9.5q0 -6 -4 -10l-90 -128q-5 -6 -11 -6t-11.5 4t-5.5 9z" />
<glyph unicode="&#xd4;" horiz-adv-x="786" d="M58 350q0 157 92 258q92 102 243 102t243 -102q92 -101 92 -258q0 -156 -92 -259q-92 -101 -243 -101t-243 101q-92 103 -92 259zM88 350q0 -144 84 -237t221 -93t221 93t84 237t-84 237t-221 93t-221 -93t-84 -237zM268 787l107 109q9 9 17 9t16 -8l110 -110 q10 -11 0 -21t-21 0l-96 95q-9 9 -18 0l-94 -95q-11 -10 -21 0t0 21z" />
<glyph unicode="&#xd5;" horiz-adv-x="786" d="M58 350q0 157 92 258q92 102 243 102t243 -102q92 -101 92 -258q0 -156 -92 -259q-92 -101 -243 -101t-243 101q-92 103 -92 259zM88 350q0 -144 84 -237t221 -93t221 93t84 237t-84 237t-221 93t-221 -93t-84 -237zM268 785q0 42 19.5 66t50.5 24q22 0 38 -11.5t24 -26 t20.5 -26t27.5 -11.5q40 0 40 60q0 15 15 15t15 -15q0 -43 -19 -66.5t-51 -23.5q-28 0 -45.5 19t-31.5 37.5t-33 18.5q-40 0 -40 -60q0 -15 -15 -15t-15 15z" />
<glyph unicode="&#xd6;" horiz-adv-x="786" d="M58 350q0 157 92 258q92 102 243 102t243 -102q92 -101 92 -258q0 -156 -92 -259q-92 -101 -243 -101t-243 101q-92 103 -92 259zM88 350q0 -144 84 -237t221 -93t221 93t84 237t-84 237t-221 93t-221 -93t-84 -237zM284 791q-11 12 -11 29t11 28q12 12 29 12t28 -12 q12 -11 12 -28t-12 -29q-11 -11 -28 -11t-29 11zM444 791q-11 12 -11 29t11 28q12 12 29 12t28 -12q12 -11 12 -28t-12 -29q-11 -11 -28 -11t-29 11z" />
<glyph unicode="&#xd7;" horiz-adv-x="457" d="M78 477q-6 6 -3.5 15t9.5 11t15 -4l117 -117q10 -10 21 0l120 120q6 6 15 3.5t11 -9.5t-4 -15l-121 -120q-10 -11 0 -21l117 -117q11 -11 0 -21t-21 0l-117 116q-11 10 -21 0l-113 -113q-11 -11 -21 0t0 21l113 113q10 12 0 22z" />
<glyph unicode="&#xd8;" horiz-adv-x="786" d="M58 350q0 157 92 258q92 102 243 102q101 0 182 -51l22 33q8 11 20 5q13 -10 4 -20l-22 -34q129 -101 129 -293q0 -156 -92 -259q-92 -101 -243 -101q-103 0 -183 50l-21 -33q-5 -7 -14 -6.5t-12.5 7t1.5 15.5l22 34q-128 104 -128 293zM88 350q0 -173 115 -267l356 550 q-71 47 -166 47q-137 0 -221 -93t-84 -237zM227 66q70 -46 166 -46q137 0 221 93t84 237q0 174 -116 267z" />
<glyph unicode="&#xd9;" horiz-adv-x="776" d="M28 685q0 15 15 15h190q15 0 15 -15t-15 -15h-60q-15 0 -15 -15v-405q0 -102 64.5 -166t165.5 -64t165.5 64t64.5 166v405q0 15 -15 15h-60q-15 0 -15 15t15 15h190q15 0 15 -15t-15 -15h-70q-15 0 -15 -15v-405q0 -113 -73.5 -186.5t-186.5 -73.5t-187 72 q-73 73 -73 188v405q0 15 -15 15h-70q-15 0 -15 15zM307 895q0 4 6.5 9.5t11.5 5.5q7 0 11 -9l89 -127q4 -4 4 -10q0 -5 -6 -9t-12 -4q-5 0 -10 6l-90 128q-4 4 -4 10z" />
<glyph unicode="&#xda;" horiz-adv-x="776" d="M28 685q0 15 15 15h190q15 0 15 -15t-15 -15h-60q-15 0 -15 -15v-405q0 -102 64.5 -166t165.5 -64t165.5 64t64.5 166v405q0 15 -15 15h-60q-15 0 -15 15t15 15h190q15 0 15 -15t-15 -15h-70q-15 0 -15 -15v-405q0 -113 -73.5 -186.5t-186.5 -73.5t-187 72 q-73 73 -73 188v405q0 15 -15 15h-70q-15 0 -15 15zM367 764q0 6 4 10l89 127q4 9 11 9q5 0 11.5 -5.5t6.5 -9.5q0 -6 -4 -10l-90 -128q-5 -6 -11 -6t-11.5 4t-5.5 9z" />
<glyph unicode="&#xdb;" horiz-adv-x="776" d="M28 685q0 15 15 15h190q15 0 15 -15t-15 -15h-60q-15 0 -15 -15v-405q0 -102 64.5 -166t165.5 -64t165.5 64t64.5 166v405q0 15 -15 15h-60q-15 0 -15 15t15 15h190q15 0 15 -15t-15 -15h-70q-15 0 -15 -15v-405q0 -113 -73.5 -186.5t-186.5 -73.5t-187 72 q-73 73 -73 188v405q0 15 -15 15h-70q-15 0 -15 15zM263 787l107 109q9 9 17 9t16 -8l110 -110q11 -11 0 -21t-21 0l-96 95q-9 9 -18 0l-94 -95q-10 -10 -21 0t0 21z" />
<glyph unicode="&#xdc;" horiz-adv-x="776" d="M28 685q0 15 15 15h190q15 0 15 -15t-15 -15h-60q-15 0 -15 -15v-405q0 -102 64.5 -166t165.5 -64t165.5 64t64.5 166v405q0 15 -15 15h-60q-15 0 -15 15t15 15h190q15 0 15 -15t-15 -15h-70q-15 0 -15 -15v-405q0 -113 -73.5 -186.5t-186.5 -73.5t-187 72 q-73 73 -73 188v405q0 15 -15 15h-70q-15 0 -15 15zM279 781q-11 12 -11 29t11 28q12 12 29 12t28 -12q12 -11 12 -28t-12 -29q-11 -11 -28 -11t-29 11zM439 781q-11 12 -11 29t11 28q12 12 29 12t28 -12q12 -11 12 -28t-12 -29q-11 -11 -28 -11t-29 11z" />
<glyph unicode="&#xdd;" horiz-adv-x="627" d="M-10 685q0 15 15 15h190q15 0 15 -15t-15 -15h-60q-8 0 -11 -4.5t1 -10.5l181 -316q7 -10 14 0l182 316q4 6 1 10.5t-11 4.5h-60q-15 0 -15 15t15 15h190q15 0 15 -15t-15 -15h-60q-16 0 -25 -15l-208 -361v-249q0 -15 15 -15h70q15 0 15 -15t-15 -15h-200q-15 0 -15 15 t15 15h70q15 0 15 15v247l-209 363q-9 15 -25 15h-60q-15 0 -15 15zM302 764q0 6 4 10l89 127q5 9 11 9q5 0 11.5 -5.5t6.5 -9.5q0 -6 -4 -10l-90 -128q-4 -6 -11 -6q-6 0 -11.5 4t-5.5 9z" />
<glyph unicode="&#xde;" horiz-adv-x="610" d="M46 15q0 15 15 15h70q15 0 15 15v610q0 15 -15 15h-70q-15 0 -15 15t15 15h200q15 0 15 -15t-15 -15h-70q-15 0 -15 -15v-50q0 -15 15 -15h105q124 0 199.5 -63t75.5 -177t-75.5 -177t-199.5 -63h-105q-15 0 -15 -15v-50q0 -15 15 -15h70q15 0 15 -15t-15 -15h-200 q-15 0 -15 15zM176 155q0 -15 15 -15h105q117 0 181 55t64 155t-64 155t-181 55h-105q-15 0 -15 -15v-390z" />
<glyph unicode="&#xdf;" horiz-adv-x="641" d="M36 15q0 15 15 15h70q15 0 15 15v410q0 15 -15 15h-70q-15 0 -15 15t15 15h70q15 0 15 15v10q0 87 49.5 136t130.5 49q70 0 120 -38.5t50 -101.5q0 -25 -12 -44.5t-29 -32.5t-33.5 -24.5t-28.5 -26.5t-12 -32q0 -25 18 -46.5t44.5 -37t57.5 -35t57.5 -39.5t44.5 -51.5 t18 -70.5q0 -63 -49.5 -101.5t-120.5 -38.5q-125 0 -200 100q-11 13 2 23q11 9 19 -2q66 -91 179 -91q65 0 102.5 31t37.5 79q0 68 -63 110l-57 38l-58 35q-62 37 -62 97q0 27 18 49.5t39.5 35.5t39.5 32.5t18 42.5q0 49 -38.5 79.5t-101.5 30.5q-71 0 -110.5 -39.5 t-39.5 -115.5v-510q0 -15 -15 -15h-100q-15 0 -15 15z" />
<glyph unicode="&#xe0;" d="M41 140q0 64 54.5 107t145.5 43h165q15 0 15 15v40q0 58 -44 96.5t-112 38.5q-96 0 -162 -51q-8 -6 -16 -2.5t-8.5 11t5.5 13.5q73 59 181 59q79 0 132.5 -46t53.5 -119v-300q0 -15 15 -15h70q15 0 15 -15t-15 -15h-100q-15 0 -15 15v56q0 11 -4 14t-12 -4 q-30 -38 -79 -64.5t-105 -26.5q-85 0 -132.5 42t-47.5 108zM71 140q0 -54 39.5 -87t110.5 -33q82 0 149 67q30 30 51 68v90q0 15 -15 15h-165q-84 0 -127 -33t-43 -87zM166 715q0 4 6.5 9.5t11.5 5.5q6 0 11 -9l89 -127q4 -4 4 -10q0 -5 -5.5 -9t-11.5 -4q-7 0 -11 6 l-90 128q-4 4 -4 10z" />
<glyph unicode="&#xe1;" d="M41 140q0 64 54.5 107t145.5 43h165q15 0 15 15v40q0 58 -44 96.5t-112 38.5q-96 0 -162 -51q-8 -6 -16 -2.5t-8.5 11t5.5 13.5q73 59 181 59q79 0 132.5 -46t53.5 -119v-300q0 -15 15 -15h70q15 0 15 -15t-15 -15h-100q-15 0 -15 15v56q0 11 -4 14t-12 -4 q-30 -38 -79 -64.5t-105 -26.5q-85 0 -132.5 42t-47.5 108zM71 140q0 -54 39.5 -87t110.5 -33q82 0 149 67q30 30 51 68v90q0 15 -15 15h-165q-84 0 -127 -33t-43 -87zM246 584q0 6 4 10l89 127q5 9 11 9q5 0 11.5 -5.5t6.5 -9.5q0 -6 -4 -10l-90 -128q-4 -6 -11 -6 q-6 0 -11.5 4t-5.5 9z" />
<glyph unicode="&#xe2;" d="M41 140q0 64 54.5 107t145.5 43h165q15 0 15 15v40q0 58 -44 96.5t-112 38.5q-96 0 -162 -51q-8 -6 -16 -2.5t-8.5 11t5.5 13.5q73 59 181 59q79 0 132.5 -46t53.5 -119v-300q0 -15 15 -15h70q15 0 15 -15t-15 -15h-100q-15 0 -15 15v56q0 11 -4 14t-12 -4 q-30 -38 -79 -64.5t-105 -26.5q-85 0 -132.5 42t-47.5 108zM71 140q0 -54 39.5 -87t110.5 -33q82 0 149 67q30 30 51 68v90q0 15 -15 15h-165q-84 0 -127 -33t-43 -87zM142 587l107 109q9 9 17 9t16 -8l110 -110q6 -7 3.5 -15t-10 -10t-14.5 4l-96 95q-9 9 -18 0l-94 -95 q-11 -10 -21 0t0 21z" />
<glyph unicode="&#xe3;" d="M41 140q0 64 54.5 107t145.5 43h165q15 0 15 15v40q0 58 -44 96.5t-112 38.5q-96 0 -162 -51q-8 -6 -16 -2.5t-8.5 11t5.5 13.5q73 59 181 59q79 0 132.5 -46t53.5 -119v-300q0 -15 15 -15h70q15 0 15 -15t-15 -15h-100q-15 0 -15 15v56q0 11 -4 14t-12 -4 q-30 -38 -79 -64.5t-105 -26.5q-85 0 -132.5 42t-47.5 108zM71 140q0 -54 39.5 -87t110.5 -33q82 0 149 67q30 30 51 68v90q0 15 -15 15h-165q-84 0 -127 -33t-43 -87zM142 585q0 42 19.5 66t50.5 24q22 0 38 -11.5t24 -26t20.5 -26t27.5 -11.5q40 0 40 60q0 15 15 15 t15 -15q0 -43 -19 -66.5t-51 -23.5q-28 0 -45.5 19t-31.5 37.5t-33 18.5q-40 0 -40 -60q0 -15 -15 -15t-15 15z" />
<glyph unicode="&#xe4;" d="M41 140q0 64 54.5 107t145.5 43h165q15 0 15 15v40q0 58 -44 96.5t-112 38.5q-96 0 -162 -51q-8 -6 -16 -2.5t-8.5 11t5.5 13.5q73 59 181 59q79 0 132.5 -46t53.5 -119v-300q0 -15 15 -15h70q15 0 15 -15t-15 -15h-100q-15 0 -15 15v56q0 11 -4 14t-12 -4 q-30 -38 -79 -64.5t-105 -26.5q-85 0 -132.5 42t-47.5 108zM71 140q0 -54 39.5 -87t110.5 -33q82 0 149 67q30 30 51 68v90q0 15 -15 15h-165q-84 0 -127 -33t-43 -87zM168 581q-11 12 -11 29t11 28q12 12 29 12t28 -12q12 -11 12 -28t-12 -29q-11 -11 -28 -11t-29 11z M328 581q-11 12 -11 29t11 28q12 12 29 12t28 -12q12 -11 12 -28t-12 -29q-11 -11 -28 -11t-29 11z" />
<glyph unicode="&#xe5;" d="M41 140q0 64 54.5 107t145.5 43h165q15 0 15 15v40q0 58 -44 96.5t-112 38.5q-96 0 -162 -51q-8 -6 -16 -2.5t-8.5 11t5.5 13.5q73 59 181 59q79 0 132.5 -46t53.5 -119v-300q0 -15 15 -15h70q15 0 15 -15t-15 -15h-100q-15 0 -15 15v56q0 11 -4 14t-12 -4 q-30 -38 -79 -64.5t-105 -26.5q-85 0 -132.5 42t-47.5 108zM71 140q0 -54 39.5 -87t110.5 -33q82 0 149 67q30 30 51 68v90q0 15 -15 15h-165q-84 0 -127 -33t-43 -87zM209 583q-22 23 -22 57t22 57q23 23 58 23q34 0 57 -23t23 -57t-23 -57t-57 -23q-35 0 -58 23zM230 603 q14 -13 37 -13t36 13q14 14 14 37t-14 36q-13 14 -36 14t-37 -14q-13 -13 -13 -36t13 -37z" />
<glyph unicode="&#xe6;" horiz-adv-x="937" d="M42 140q0 70 52 110t148 40h175q15 0 15 15v40q0 59 -45 97t-121 38q-96 0 -162 -51q-8 -6 -16 -2.5t-8.5 11t5.5 13.5q73 59 181 59q79 0 129.5 -35.5t62.5 -94.5q30 61 84 95.5t120 34.5q97 0 163 -63q67 -63 67 -142v-15q0 -30 -30 -30h-385q-15 0 -15 -15 q0 -97 56 -162q55 -63 144 -63q30 0 56.5 5.5t44 12t35.5 18t26 18t21 18.5q7 6 15 2t10 -12t-4 -15q-84 -77 -204 -77q-72 0 -127.5 38t-81.5 105q-32 -57 -92.5 -100t-128.5 -43q-190 0 -190 150zM72 140q0 -120 160 -120q82 0 149 67q30 30 51 68v90q0 15 -15 15h-175 q-170 0 -170 -120zM466 305q-3 -15 14 -15h367q15 0 15 15q0 66 -59 120q-58 55 -141 55q-76 0 -131 -50t-65 -125z" />
<glyph unicode="&#xe7;" horiz-adv-x="560" d="M51 250q0 115 63 187q63 73 157 73q99 0 174 -75q16 -15 16 10v40q0 15 15 15t15 -15v-160q0 -15 -15 -15t-15 15v50q-34 45 -84.5 75t-105.5 30q-81 0 -136 -64q-54 -64 -54 -166q0 -101 55.5 -165.5t149.5 -64.5q37 0 67 6.5t53.5 20t34.5 22t28 23.5q7 6 15 2t10 -12 t-4 -15q-22 -20 -43.5 -34t-63 -28t-89.5 -15v-30q36 0 58 -19.5t22 -50.5q0 -70 -100 -70q-15 0 -15 15t15 15q70 0 70 40q0 18 -13 29t-37 11h-15q-15 0 -15 15v46q-98 8 -155.5 80t-57.5 179z" />
<glyph unicode="&#xe8;" horiz-adv-x="567" d="M52 250q0 113 64 186.5t171 73.5q103 0 169 -66t66 -159v-15q0 -30 -30 -30h-394q-17 0 -15 -15q6 -90 61 -147.5t143 -57.5q37 0 67 6.5t53.5 20t34.5 22t28 23.5q7 6 15 2t10 -12t-4 -15q-84 -77 -204 -77q-107 0 -171 73.5t-64 186.5zM84 285q-2 -15 14 -15h379 q15 0 15 15q0 80 -59 137q-58 58 -146 58q-84 0 -139.5 -55.5t-63.5 -139.5zM181 715q0 3 3 6.5t7.5 6t7.5 2.5q6 0 11 -9l89 -127q4 -4 4 -10q0 -5 -6 -9t-12 -4t-10 6l-90 128q-4 4 -4 10z" />
<glyph unicode="&#xe9;" horiz-adv-x="567" d="M52 250q0 113 64 186.5t171 73.5q103 0 169 -66t66 -159v-15q0 -30 -30 -30h-394q-17 0 -15 -15q6 -90 61 -147.5t143 -57.5q37 0 67 6.5t53.5 20t34.5 22t28 23.5q7 6 15 2t10 -12t-4 -15q-84 -77 -204 -77q-107 0 -171 73.5t-64 186.5zM84 285q-2 -15 14 -15h379 q15 0 15 15q0 80 -59 137q-58 58 -146 58q-84 0 -139.5 -55.5t-63.5 -139.5zM271 584q0 6 4 10l89 127q4 9 11 9q5 0 11.5 -5.5t6.5 -9.5q0 -6 -4 -10l-90 -128q-5 -6 -11 -6t-11.5 4t-5.5 9z" />
<glyph unicode="&#xea;" horiz-adv-x="567" d="M52 250q0 113 64 186.5t171 73.5q103 0 169 -66t66 -159v-15q0 -30 -30 -30h-394q-17 0 -15 -15q6 -90 61 -147.5t143 -57.5q37 0 67 6.5t53.5 20t34.5 22t28 23.5q7 6 15 2t10 -12t-4 -15q-84 -77 -204 -77q-107 0 -171 73.5t-64 186.5zM84 285q-2 -15 14 -15h379 q15 0 15 15q0 80 -59 137q-58 58 -146 58q-84 0 -139.5 -55.5t-63.5 -139.5zM157 587l107 109q9 9 17 9t16 -8l110 -110q10 -11 -0.5 -21t-20.5 0l-96 95q-9 9 -18 0l-94 -95q-11 -10 -21.5 0t0.5 21z" />
<glyph unicode="&#xeb;" horiz-adv-x="567" d="M52 250q0 113 64 186.5t171 73.5q103 0 169 -66t66 -159v-15q0 -30 -30 -30h-394q-17 0 -15 -15q6 -90 61 -147.5t143 -57.5q37 0 67 6.5t53.5 20t34.5 22t28 23.5q7 6 15 2t10 -12t-4 -15q-84 -77 -204 -77q-107 0 -171 73.5t-64 186.5zM84 285q-2 -15 14 -15h379 q15 0 15 15q0 80 -59 137q-58 58 -146 58q-84 0 -139.5 -55.5t-63.5 -139.5zM173 591q-11 12 -11 29t11 28q8 8 18.5 10.5t21 0t17.5 -10.5q12 -11 12 -28t-12 -29q-11 -11 -28 -11t-29 11zM333 591q-11 12 -11 29t11 28q12 12 29 12t28 -12q12 -11 12 -28t-12 -29 q-11 -11 -28 -11t-29 11z" />
<glyph unicode="&#xec;" horiz-adv-x="286" d="M37 15q0 15 15 15h70q15 0 15 15v410q0 15 -15 15h-70q-15 0 -15 15t15 15h100q15 0 15 -15v-440q0 -15 15 -15h70q15 0 15 -15t-15 -15h-200q-15 0 -15 15zM41 715q0 4 6.5 9.5t11.5 5.5q7 0 11 -9l89 -127q4 -4 4 -10q0 -5 -6 -9t-12 -4q-5 0 -10 6l-90 128q-4 4 -4 10 z" />
<glyph unicode="&#xed;" horiz-adv-x="286" d="M37 15q0 15 15 15h70q15 0 15 15v410q0 15 -15 15h-70q-15 0 -15 15t15 15h100q15 0 15 -15v-440q0 -15 15 -15h70q15 0 15 -15t-15 -15h-200q-15 0 -15 15zM121 584q0 6 4 10l89 127q4 9 11 9q5 0 11.5 -5.5t6.5 -9.5q0 -6 -4 -10l-90 -128q-5 -6 -11 -6t-11.5 4t-5.5 9 z" />
<glyph unicode="&#xee;" horiz-adv-x="286" d="M17 587l107 109q9 9 17 9t16 -8l110 -110q11 -11 0 -21t-21 0l-96 95q-9 9 -18 0l-94 -95q-10 -10 -21 0t0 21zM37 15q0 15 15 15h70q15 0 15 15v410q0 15 -15 15h-70q-15 0 -15 15t15 15h100q15 0 15 -15v-440q0 -15 15 -15h70q15 0 15 -15t-15 -15h-200q-15 0 -15 15z " />
<glyph unicode="&#xef;" horiz-adv-x="286" d="M33 591q-11 12 -11 29t11 28q12 12 29 12t28 -12q12 -11 12 -28t-12 -29q-11 -11 -28 -11t-29 11zM37 15q0 15 15 15h70q15 0 15 15v410q0 15 -15 15h-70q-15 0 -15 15t15 15h100q15 0 15 -15v-440q0 -15 15 -15h70q15 0 15 -15t-15 -15h-200q-15 0 -15 15zM193 591 q-11 12 -11 29t11 28q12 12 29 12t28 -12q12 -11 12 -28t-12 -29q-11 -11 -28 -11t-29 11z" />
<glyph unicode="&#xf0;" horiz-adv-x="627" d="M54 235q0 101 71.5 163t195.5 62h155q18 0 13 15q-35 83 -98 143q-12 9 -21 -1l-56 -66q-6 -8 -14.5 -5.5t-11 10t3.5 15.5l55 65q11 11 0 17q-91 67 -203 67q-15 0 -15 15t15 15q115 0 219 -71q13 -10 22 2l62 74q5 6 10 6q10 0 14.5 -8.5t-0.5 -16.5l-62 -74 q-9 -10 2 -21q67 -67 105 -156t38 -185q0 -134 -67.5 -222t-187.5 -88q-113 0 -179 66t-66 179zM84 235q0 -101 57.5 -158t157.5 -57q107 0 166 78.5t59 201.5q0 65 -15 115q-6 15 -20 15h-163q-118 0 -180 -52t-62 -143z" />
<glyph unicode="&#xf1;" horiz-adv-x="668" d="M36 15q0 15 15 15h70q15 0 15 15v410q0 15 -15 15h-70q-15 0 -15 15t15 15h100q15 0 15 -15v-56q0 -11 4 -14t12 4q81 91 179 91q93 0 144 -52t51 -148v-265q0 -15 15 -15h70q15 0 15 -15t-15 -15h-190q-15 0 -15 15t15 15h60q15 0 15 15v265q0 84 -43 127t-122 43 q-75 0 -143 -68q-30 -30 -52 -67v-300q0 -15 15 -15h60q15 0 15 -15t-15 -15h-190q-15 0 -15 15zM221 585q0 42 19.5 66t50.5 24q22 0 38 -11.5t24 -26t20.5 -26t27.5 -11.5q40 0 40 60q0 15 15 15t15 -15q0 -43 -19 -66.5t-51 -23.5q-28 0 -45.5 19t-31.5 37.5t-33 18.5 q-40 0 -40 -60q0 -15 -15 -15t-15 15z" />
<glyph unicode="&#xf2;" horiz-adv-x="592" d="M51 250q0 114 67.5 187t177.5 73t177.5 -73t67.5 -187t-67.5 -187t-177.5 -73t-177.5 73t-67.5 187zM81 250q0 -104 57.5 -167t157.5 -63q99 0 157 63.5t58 166.5q0 102 -58.5 166t-156.5 64t-156.5 -64t-58.5 -166zM195 715q0 4 6.5 9.5t11.5 5.5q7 0 11 -9l89 -127 q4 -4 4 -10q0 -5 -6 -9t-12 -4q-5 0 -10 6l-90 128q-4 4 -4 10z" />
<glyph unicode="&#xf3;" horiz-adv-x="592" d="M51 250q0 114 67.5 187t177.5 73t177.5 -73t67.5 -187t-67.5 -187t-177.5 -73t-177.5 73t-67.5 187zM81 250q0 -104 57.5 -167t157.5 -63q99 0 157 63.5t58 166.5q0 102 -58.5 166t-156.5 64t-156.5 -64t-58.5 -166zM275 584q0 6 4 10l89 127q4 9 11 9q5 0 11.5 -5.5 t6.5 -9.5q0 -6 -4 -10l-90 -128q-5 -6 -11 -6t-11.5 4t-5.5 9z" />
<glyph unicode="&#xf4;" horiz-adv-x="592" d="M51 250q0 114 67.5 187t177.5 73t177.5 -73t67.5 -187t-67.5 -187t-177.5 -73t-177.5 73t-67.5 187zM81 250q0 -104 57.5 -167t157.5 -63q99 0 157 63.5t58 166.5q0 102 -58.5 166t-156.5 64t-156.5 -64t-58.5 -166zM171 587l107 109q9 9 17 9t16 -8l110 -110 q11 -11 0 -21t-21 0l-96 95q-9 9 -18 0l-94 -95q-10 -10 -21 0t0 21z" />
<glyph unicode="&#xf5;" horiz-adv-x="592" d="M51 250q0 114 67.5 187t177.5 73t177.5 -73t67.5 -187t-67.5 -187t-177.5 -73t-177.5 73t-67.5 187zM81 250q0 -104 57.5 -167t157.5 -63q99 0 157 63.5t58 166.5q0 102 -58.5 166t-156.5 64t-156.5 -64t-58.5 -166zM171 585q0 42 19.5 66t50.5 24q22 0 38 -11.5t24 -26 t20.5 -26t27.5 -11.5q40 0 40 60q0 15 15 15t15 -15q0 -43 -19 -66.5t-51 -23.5q-28 0 -45.5 19t-31.5 37.5t-33 18.5q-40 0 -40 -60q0 -15 -15 -15t-15 15z" />
<glyph unicode="&#xf6;" horiz-adv-x="592" d="M51 250q0 114 67.5 187t177.5 73t177.5 -73t67.5 -187t-67.5 -187t-177.5 -73t-177.5 73t-67.5 187zM81 250q0 -104 57.5 -167t157.5 -63q99 0 157 63.5t58 166.5q0 102 -58.5 166t-156.5 64t-156.5 -64t-58.5 -166zM187 591q-11 12 -11 29t11 28q12 12 29 12t28 -12 q12 -11 12 -28t-12 -29q-11 -11 -28 -11t-29 11zM347 591q-11 12 -11 29t11 28q12 12 29 12t28 -12q12 -11 12 -28t-12 -29q-11 -11 -28 -11t-29 11z" />
<glyph unicode="&#xf7;" horiz-adv-x="581" d="M80 320q0 15 15 15h390q15 0 15 -15t-15 -15h-390q-15 0 -15 15zM248 123q-13 14 -13 37t13 36q14 14 37 14t36 -14q14 -13 14 -36t-14 -37q-13 -13 -36 -13t-37 13zM248 443q-13 14 -13 37t13 36q14 14 37 14t36 -14q14 -13 14 -36t-14 -37q-13 -13 -36 -13t-37 13z" />
<glyph unicode="&#xf8;" horiz-adv-x="592" d="M51 250q0 114 67.5 187t177.5 73q70 0 128 -33l17 26q4 7 12 7q2 0 8 -2q13 -10 4 -20l-18 -27q94 -73 94 -211q0 -114 -67.5 -187t-177.5 -73q-72 0 -129 33l-17 -26q-4 -7 -12 -7q-10 0 -14 7.5t1 15.5l17 27q-91 72 -91 210zM81 250q0 -122 77 -185l250 387 q-49 28 -112 28q-98 0 -156.5 -64t-58.5 -166zM183 48q49 -28 113 -28q99 0 157 63.5t58 166.5q0 126 -79 186z" />
<glyph unicode="&#xf9;" horiz-adv-x="650" d="M11 485q0 15 15 15h100q15 0 15 -15v-295q0 -84 43.5 -127t121.5 -43q75 0 142 67q33 35 53 68v300q0 15 -15 15h-70q-15 0 -15 15t15 15h100q15 0 15 -15v-440q0 -15 15 -15h70q15 0 15 -15t-15 -15h-100q-15 0 -15 15v56q0 11 -4 14t-12 -4q-81 -91 -179 -91 q-93 0 -144 52t-51 148v265q0 15 -15 15h-70q-15 0 -15 15zM220 695q0 4 6.5 9.5t11.5 5.5q6 0 11 -9l89 -127q4 -4 4 -10q0 -5 -5.5 -9t-11.5 -4q-7 0 -11 6l-90 128q-4 4 -4 10z" />
<glyph unicode="&#xfa;" horiz-adv-x="650" d="M11 485q0 15 15 15h100q15 0 15 -15v-295q0 -84 43.5 -127t121.5 -43q75 0 142 67q33 35 53 68v300q0 15 -15 15h-70q-15 0 -15 15t15 15h100q15 0 15 -15v-440q0 -15 15 -15h70q15 0 15 -15t-15 -15h-100q-15 0 -15 15v56q0 11 -4 14t-12 -4q-81 -91 -179 -91 q-93 0 -144 52t-51 148v265q0 15 -15 15h-70q-15 0 -15 15zM270 564q0 6 4 10l89 127q5 9 11 9q5 0 11.5 -5.5t6.5 -9.5q0 -6 -4 -10l-90 -128q-4 -6 -11 -6q-6 0 -11.5 4t-5.5 9z" />
<glyph unicode="&#xfb;" horiz-adv-x="650" d="M11 485q0 15 15 15h100q15 0 15 -15v-295q0 -84 43.5 -127t121.5 -43q75 0 142 67q33 35 53 68v300q0 15 -15 15h-70q-15 0 -15 15t15 15h100q15 0 15 -15v-440q0 -15 15 -15h70q15 0 15 -15t-15 -15h-100q-15 0 -15 15v56q0 11 -4 14t-12 -4q-81 -91 -179 -91 q-93 0 -144 52t-51 148v265q0 15 -15 15h-70q-15 0 -15 15zM186 587l107 109q9 9 17 9t16 -8l110 -110q6 -7 3.5 -15t-10 -10t-14.5 4l-96 95q-9 9 -18 0l-94 -95q-11 -10 -21 0t0 21z" />
<glyph unicode="&#xfc;" horiz-adv-x="650" d="M11 485q0 15 15 15h100q15 0 15 -15v-295q0 -84 43.5 -127t121.5 -43q75 0 142 67q33 35 53 68v300q0 15 -15 15h-70q-15 0 -15 15t15 15h100q15 0 15 -15v-440q0 -15 15 -15h70q15 0 15 -15t-15 -15h-100q-15 0 -15 15v56q0 11 -4 14t-12 -4q-81 -91 -179 -91 q-93 0 -144 52t-51 148v265q0 15 -15 15h-70q-15 0 -15 15zM202 581q-11 12 -11 29t11 28q12 12 29 12t28 -12q12 -11 12 -28t-12 -29q-11 -11 -28 -11t-29 11zM362 581q-11 12 -11 29t11 28q12 12 29 12t28 -12q12 -11 12 -28t-12 -29q-11 -11 -28 -11t-29 11z" />
<glyph unicode="&#xfd;" horiz-adv-x="617" d="M-1 485q0 15 15 15h190q15 0 15 -15t-15 -15h-62q-18 0 -10 -15l189 -395q5 -14 11 0l153 395q7 15 -10 15h-62q-15 0 -15 15t15 15h190q15 0 15 -15t-15 -15h-65q-12 0 -20 -15l-190 -490q-39 -97 -74 -136t-95 -39q-79 0 -124 57q-13 13 -2 23t21 0q50 -50 105 -50 q47 0 77 33t60 112l10 26q4 13 0 24l-207 440q-7 15 -20 15h-65q-15 0 -15 15zM287 564q0 6 4 10l89 127q4 9 11 9q5 0 11.5 -5.5t6.5 -9.5q0 -6 -4 -10l-90 -128q-5 -6 -11 -6t-11.5 4t-5.5 9z" />
<glyph unicode="&#xfe;" horiz-adv-x="600" d="M-3 -185q0 15 15 15h70q15 0 15 15v810q0 15 -15 15h-70q-15 0 -15 15t15 15h100q15 0 15 -15v-256q0 -11 4 -14t12 4q27 33 72 61q49 30 112 30q105 0 162.5 -73.5t57.5 -191.5q0 -114 -71.5 -179.5t-198.5 -65.5h-135q-15 0 -15 -15v-140q0 -15 15 -15h80q15 0 15 -15 t-15 -15h-210q-15 0 -15 15zM127 45q0 -15 15 -15h135q115 0 177.5 56t62.5 159q0 112 -51.5 173.5t-138.5 61.5q-81 0 -149 -68q-30 -30 -51 -67v-300z" />
<glyph unicode="&#xff;" horiz-adv-x="617" d="M-1 485q0 15 15 15h190q15 0 15 -15t-15 -15h-62q-18 0 -10 -15l189 -395q5 -14 11 0l153 395q7 15 -10 15h-62q-15 0 -15 15t15 15h190q15 0 15 -15t-15 -15h-65q-12 0 -20 -15l-190 -490q-39 -97 -74 -136t-95 -39q-79 0 -124 57q-13 13 -2 23t21 0q50 -50 105 -50 q47 0 77 33t60 112l10 26q4 13 0 24l-207 440q-7 15 -20 15h-65q-15 0 -15 15zM194 571q-11 12 -11 29t11 28q12 12 29 12t28 -12q12 -11 12 -28t-12 -29q-11 -11 -28 -11t-29 11zM354 571q-11 12 -11 29t11 28q12 12 29 12t28 -12q12 -11 12 -28t-12 -29q-11 -11 -28 -11 t-29 11z" />
<glyph unicode="&#x152;" horiz-adv-x="923" d="M58 350q0 149 92 250q91 100 243 100h455q15 0 15 -15v-120q0 -15 -15 -15t-15 15v90q0 15 -15 15h-315q-15 0 -15 -15v-270q0 -15 15 -15h225q15 0 15 15v50q0 15 15 15t15 -15v-160q0 -15 -15 -15t-15 15v50q0 15 -15 15h-225q-15 0 -15 -15v-280q0 -15 15 -15h325 q15 0 15 15v90q0 15 15 15t15 -15v-120q0 -15 -15 -15h-465q-152 0 -243 100q-92 101 -92 250zM88 350q0 -138 84 -229q85 -91 221 -91h50q15 0 15 15v610q0 15 -15 15h-50q-136 0 -221 -91q-84 -92 -84 -229z" />
<glyph unicode="&#x153;" horiz-adv-x="916" d="M51 250q0 114 67.5 187t177.5 73q105 0 173 -68q65 68 167 68t168 -66q67 -66 67 -159v-15q0 -30 -30 -30h-394q-15 0 -15 -15q6 -88 59 -147q54 -58 145 -58q106 0 183 72q7 6 15.5 2t10 -12t-4.5 -15q-84 -77 -204 -77q-104 0 -167 68q-66 -68 -173 -68 q-110 0 -177.5 73t-67.5 187zM81 250q0 -104 57.5 -167t157.5 -63q97 0 154 60q-49 67 -49 170q0 102 49 169q-58 61 -154 61q-98 0 -156.5 -64t-58.5 -166zM433 285q-1 -15 14 -15h379q15 0 15 15q0 80 -59 137q-58 58 -146 58q-91 0 -143 -58q-53 -59 -60 -137z" />
<glyph unicode="&#x178;" horiz-adv-x="627" d="M-10 685q0 15 15 15h190q15 0 15 -15t-15 -15h-60q-8 0 -11 -4.5t1 -10.5l181 -316q7 -10 14 0l182 316q4 6 1 10.5t-11 4.5h-60q-15 0 -15 15t15 15h190q15 0 15 -15t-15 -15h-60q-16 0 -25 -15l-208 -361v-249q0 -15 15 -15h70q15 0 15 -15t-15 -15h-200q-15 0 -15 15 t15 15h70q15 0 15 15v247l-209 363q-9 15 -25 15h-60q-15 0 -15 15zM204 781q-11 12 -11 29t11 28q12 12 29 12t28 -12q12 -11 12 -28t-12 -29q-11 -11 -28 -11t-29 11zM364 781q-11 12 -11 29t11 28q12 12 29 12t28 -12q12 -11 12 -28t-12 -29q-11 -11 -28 -11t-29 11z" />
<glyph unicode="&#x2c6;" horiz-adv-x="262" d="M6 577l107 109q9 9 17 9t16 -8l110 -110q10 -11 0 -21t-21 0l-96 95q-9 9 -18 0l-94 -95q-11 -10 -21 0t0 21z" />
<glyph unicode="&#x2dc;" horiz-adv-x="250" d="M0 575q0 42 19.5 66t50.5 24q22 0 38 -11.5t24 -26t20.5 -26t27.5 -11.5q40 0 40 60q0 15 15 15t15 -15q0 -43 -19 -66.5t-51 -23.5q-28 0 -45.5 19t-31.5 37.5t-33 18.5q-40 0 -40 -60q0 -15 -15 -15t-15 15z" />
<glyph unicode="&#x2000;" horiz-adv-x="460" />
<glyph unicode="&#x2001;" horiz-adv-x="920" />
<glyph unicode="&#x2002;" horiz-adv-x="460" />
<glyph unicode="&#x2003;" horiz-adv-x="920" />
<glyph unicode="&#x2004;" horiz-adv-x="306" />
<glyph unicode="&#x2005;" horiz-adv-x="230" />
<glyph unicode="&#x2006;" horiz-adv-x="153" />
<glyph unicode="&#x2007;" horiz-adv-x="153" />
<glyph unicode="&#x2008;" horiz-adv-x="115" />
<glyph unicode="&#x2009;" horiz-adv-x="184" />
<glyph unicode="&#x200a;" horiz-adv-x="51" />
<glyph unicode="&#x2010;" d="M76 320q0 15 15 15h390q15 0 15 -15t-15 -15h-390q-15 0 -15 15z" />
<glyph unicode="&#x2011;" d="M76 320q0 15 15 15h390q15 0 15 -15t-15 -15h-390q-15 0 -15 15z" />
<glyph unicode="&#x2012;" d="M76 320q0 15 15 15h390q15 0 15 -15t-15 -15h-390q-15 0 -15 15z" />
<glyph unicode="&#x2013;" horiz-adv-x="652" d="M76 320q0 15 15 15h470q15 0 15 -15t-15 -15h-470q-15 0 -15 15z" />
<glyph unicode="&#x2014;" horiz-adv-x="832" d="M76 320q0 15 15 15h650q15 0 15 -15t-15 -15h-650q-15 0 -15 15z" />
<glyph unicode="&#x2018;" horiz-adv-x="229" d="M64 551v15q0 52 20 88.5t55 51.5q6 3 10 3q11 0 13.5 -10.5t-7.5 -15.5q-61 -27 -61 -92v-8q14 8 25 8q19 0 32 -13.5t13 -36.5t-13.5 -36.5t-36.5 -13.5q-50 0 -50 60z" />
<glyph unicode="&#x2019;" horiz-adv-x="228" d="M71 660q0 23 13.5 36.5t36.5 13.5q50 0 50 -60v-15q0 -52 -20 -88.5t-55 -51.5q-6 -3 -10 -3q-11 0 -13.5 10.5t7.5 15.5q61 27 61 92v8q-14 -8 -25 -8q-19 0 -32 13.5t-13 36.5z" />
<glyph unicode="&#x201a;" horiz-adv-x="242" d="M71 40q0 23 13.5 36.5t36.5 13.5q50 0 50 -60v-15q0 -52 -20 -88.5t-55 -51.5q-6 -3 -10 -3q-11 0 -13.5 10.5t7.5 15.5q61 27 61 92v8q-14 -8 -25 -8q-19 0 -32 13.5t-13 36.5z" />
<glyph unicode="&#x201c;" horiz-adv-x="369" d="M64 551v15q0 52 20 88.5t55 51.5q6 3 10 3q11 0 13.5 -10.5t-7.5 -15.5q-61 -27 -61 -92v-8q14 8 25 8q19 0 32 -13.5t13 -36.5t-13.5 -36.5t-36.5 -13.5q-50 0 -50 60zM204 551v15q0 52 20 88.5t55 51.5q6 3 10 3q11 0 13.5 -10.5t-7.5 -15.5q-61 -27 -61 -92v-8 q14 8 25 8q19 0 32 -13.5t13 -36.5t-13.5 -36.5t-36.5 -13.5q-50 0 -50 60z" />
<glyph unicode="&#x201d;" horiz-adv-x="368" d="M71 660q0 23 13.5 36.5t36.5 13.5q50 0 50 -60v-15q0 -52 -20 -88.5t-55 -51.5q-6 -3 -10 -3q-11 0 -13.5 10.5t7.5 15.5q61 27 61 92v8q-14 -8 -25 -8q-19 0 -32 13.5t-13 36.5zM211 660q0 23 13.5 36.5t36.5 13.5q50 0 50 -60v-15q0 -52 -20 -88.5t-55 -51.5 q-6 -3 -10 -3q-11 0 -13.5 10.5t7.5 15.5q61 27 61 92v8q-14 -8 -25 -8q-19 0 -32 13.5t-13 36.5z" />
<glyph unicode="&#x201e;" horiz-adv-x="382" d="M71 40q0 23 13.5 36.5t36.5 13.5q50 0 50 -60v-15q0 -52 -20 -88.5t-55 -51.5q-6 -3 -10 -3q-11 0 -13.5 10.5t7.5 15.5q61 27 61 92v8q-14 -8 -25 -8q-19 0 -32 13.5t-13 36.5zM211 40q0 23 13.5 36.5t36.5 13.5q50 0 50 -60v-15q0 -52 -20 -88.5t-55 -51.5 q-6 -3 -10 -3q-11 0 -13.5 10.5t7.5 15.5q61 27 61 92v8q-14 -8 -25 -8q-19 0 -32 13.5t-13 36.5z" />
<glyph unicode="&#x2022;" horiz-adv-x="344" d="M62 350q0 46 32 78t78 32t78 -32t32 -78t-32 -78t-78 -32t-78 32t-32 78z" />
<glyph unicode="&#x2026;" horiz-adv-x="662" d="M84 3q-13 14 -13 37t13 36q14 14 37 14t36 -14q14 -13 14 -36t-14 -37q-13 -13 -36 -13t-37 13zM294 3q-13 14 -13 37t13 36q14 14 37 14t36 -14q14 -13 14 -36t-14 -37q-13 -13 -36 -13t-37 13zM504 3q-13 14 -13 37t13 36q14 14 37 14t36 -14q14 -13 14 -36t-14 -37 q-13 -13 -36 -13t-37 13z" />
<glyph unicode="&#x202f;" horiz-adv-x="184" />
<glyph unicode="&#x2039;" horiz-adv-x="356" d="M39 249q0 8 8 16l231 230q10 11 21 0t0 -21l-216 -216q-9 -9 0 -18l214 -214q10 -10 -0.5 -20.5t-20.5 -0.5l-228 227q-9 9 -9 17z" />
<glyph unicode="&#x203a;" horiz-adv-x="356" d="M57 474q-8 7 -5 15t11 9.5t15 -3.5l231 -230q8 -8 8 -16t-9 -17l-228 -227q-10 -11 -21 0t0 21l214 214q9 9 0 18z" />
<glyph unicode="&#x205f;" horiz-adv-x="230" />
<glyph unicode="&#x20ac;" horiz-adv-x="773" d="M36 275q0 15 15 15h89q-4 23 -4 60q0 36 4 60h-69q-15 0 -15 15t15 15h74q23 115 104.5 192.5t201.5 77.5q121 0 219 -85q16 -13 16 10v50q0 15 15 15t15 -15v-190q0 -15 -15 -15t-15 15v70q-27 31 -63 57q-82 58 -172 58q-108 0 -180.5 -68.5t-95.5 -171.5h286 q15 0 15 -15t-15 -15h-291q-4 -24 -4 -60q0 -37 4 -60h271q15 0 15 -15t-15 -15h-266q23 -106 101 -173t195 -67q143 0 229 91q10 11 21 0t0 -21q-102 -100 -250 -100q-129 0 -215.5 75.5t-110.5 194.5h-94q-15 0 -15 15z" />
<glyph unicode="&#x2122;" horiz-adv-x="945" d="M78 620v65q0 15 15 15h260q15 0 15 -15v-65q0 -15 -15 -15t-15 15v35q0 15 -15 15h-70q-15 0 -15 -15v-220q0 -15 15 -15h40q15 0 15 -15t-15 -15h-140q-15 0 -15 15t15 15h40q15 0 15 15v220q0 15 -15 15h-70q-15 0 -15 -15v-35q0 -15 -15 -15t-15 15zM398 405 q0 15 15 15h40q15 0 15 15v220q0 15 -15 15h-40q-15 0 -15 15t15 15h77q18 0 25 -15l108 -230q10 -19 20 0l108 230q7 15 25 15h77q15 0 15 -15t-15 -15h-40q-15 0 -15 -15v-220q0 -15 15 -15h40q15 0 15 -15t-15 -15h-120q-15 0 -15 15t15 15h20q15 0 15 15v195q0 5 -1.5 7 t-3 1.5t-3.5 -3.5l-108 -230q-7 -15 -19 -15t-19 15l-108 230q-2 3 -3.5 3.5t-3 -1.5t-1.5 -7v-195q0 -15 15 -15h20q15 0 15 -15t-15 -15h-120q-15 0 -15 15z" />
<glyph unicode="&#xe000;" horiz-adv-x="500" d="M0 0v500h500v-500h-500z" />
</font>
</defs>
</svg>
