<?xml version="1.0" standalone="no"?>
<!DOCTYPE svg PUBLIC "-//W3C//DTD SVG 1.1//EN" "http://www.w3.org/Graphics/SVG/1.1/DTD/svg11.dtd" >
<svg xmlns="http://www.w3.org/2000/svg">
<metadata></metadata>
<defs>
<font id="justoldfashionregular" horiz-adv-x="580" >
<font-face units-per-em="1000" ascent="800" descent="-200" />
<missing-glyph horiz-adv-x="333" />
<glyph horiz-adv-x="1000" />
<glyph horiz-adv-x="1000" />
<glyph horiz-adv-x="333" />
<glyph horiz-adv-x="520" d="M456 797h-82q-2 -19 -13 -32.5t-27 -21.5t-34.5 -12t-34.5 -4q-17 0 -35 4t-34 12t-27 21.5t-13 32.5h-83q0 -41 16 -72t42.5 -51.5t61 -30.5t72.5 -10q37 0 72 10t61.5 30.5t42 51.5t15.5 72z" />
<glyph horiz-adv-x="260" d="M191 585v129h-122v-129h122z" />
<glyph horiz-adv-x="380" d="M306 715q0 24 -9 45.5t-24.5 37.5t-37 25.5t-45.5 9.5t-45.5 -9t-37.5 -24.5t-25.5 -37t-9.5 -45.5q0 -25 9 -46.5t25 -37.5t37.5 -25.5t46.5 -9.5q24 0 45 9.5t37 25t25 37t9 45.5zM236 717q0 -20 -13.5 -34.5t-33.5 -14.5q-19 0 -33 13.5t-14 32.5q0 20 13.5 34.5 t33.5 14.5q19 0 33 -13.5t14 -32.5z" />
<glyph unicode="&#xa;" horiz-adv-x="480" d="M411 807l-90 33l-93 -223l72 -28zM255 807l-90 33l-94 -222l72 -29z" />
<glyph horiz-adv-x="340" d="M265 -195v74q-6 -3 -12.5 -5.5t-13.5 -2.5q-14 0 -24 7t-16 17.5t-9 23t-3 24.5q0 20 6.5 33t21.5 24h-77q-19 -20 -27 -44t-8 -51q0 -48 27.5 -79.5t77.5 -31.5q15 0 29 3t28 8z" />
<glyph d="M507 799h-138l-74 -75l-79 75h-145l171 -168h91z" />
<glyph unicode="&#xd;" horiz-adv-x="300" d="M280 0v24h-69v510h-191v-24h69v-486h-70v-24h261z" />
<glyph horiz-adv-x="80" d="M251 714h-98l-322 -714h100z" />
<glyph horiz-adv-x="540" d="M468 585v129h-122v-129h122zM537 0v24h-69v510h-260v12q-1 18 3.5 45.5t14.5 53t26.5 44t40.5 17.5v27q-100 1 -154.5 -47.5t-52.5 -151.5h-69v-24h69v-486h-69v-24h520zM346 24h-138v486h138v-486z" />
<glyph horiz-adv-x="540" d="M536 0v24h-69v709h-162q-53 0 -93.5 -10t-68.5 -33.5t-42.5 -61.5t-14.5 -94h-69v-114h69v-396h-69v-24h519zM345 24h-137v396h70v114h-70v8q0 24 6 54t19.5 57t34.5 45t51 18h26v-692z" />
<glyph unicode=" "  horiz-adv-x="333" />
<glyph unicode="&#x09;" horiz-adv-x="333" />
<glyph unicode="&#xa0;" horiz-adv-x="333" />
<glyph unicode="!" horiz-adv-x="200" d="M163 214v500h-126v-500h126zM163 0v141h-126v-141h126z" />
<glyph unicode="&#x22;" horiz-adv-x="400" d="M356 714h-126l26 -287h73zM162 714h-126l26 -287h73z" />
<glyph unicode="#" d="M554 416v75h-113l32 223h-76l-32 -223h-103l31 223h-75l-32 -223h-130v-75h119l-15 -102h-133v-75h121l-34 -239h76l34 239h103l-34 -239h76l35 239h121v75h-109l14 102h124zM353 416l-15 -102h-102l14 102h103z" />
<glyph unicode="$" d="M527 202q0 65 -25 104t-63 62.5t-82 36.5t-82 27t-63 34t-25 57q0 19 8 33t21 24t30 17t35 12q28 8 58.5 2t56 -20t43 -33.5t18.5 -39.5h31v196h-34v-43q-5 7 -21 13.5t-34.5 11.5t-36.5 8t-27 5v116h-104v-105q-38 -5 -70 -22.5t-56 -44.5t-37.5 -61t-13.5 -72 q0 -65 25 -103t62.5 -61t81 -36t81 -28t62.5 -36.5t25 -61.5q0 -22 -11.5 -39t-30.5 -29t-42 -19t-47 -9q-30 -3 -60 6t-54.5 25t-39.5 38t-14 45h-29v-212h31v41q5 -7 23.5 -14.5t40.5 -13.5t43 -9.5t30 -3.5v-120h104v103q42 7 77 26t60.5 47.5t40 65.5t14.5 80z" />
<glyph unicode="%" horiz-adv-x="860" d="M828 168q0 37 -14.5 69t-39 56t-57 37.5t-68.5 13.5t-68 -14t-56 -37.5t-38 -55.5t-14 -68q0 -37 13.5 -70t37.5 -57.5t56.5 -38.5t70.5 -14q37 0 69 14.5t56 39t38 57t14 68.5zM639 714h-98l-322 -714h99zM387 552q0 37 -14.5 69t-39 56t-57 38t-68.5 14t-68 -14 t-56 -38t-38 -55.5t-14 -67.5q0 -37 13.5 -70t37.5 -57.5t56.5 -38.5t70.5 -14q37 0 69 14t56 38t38 56.5t14 69.5zM724 167q0 -30 -21 -52t-51 -22q-31 0 -53 22t-22 53q0 30 22 51.5t52 21.5t51.5 -22.5t21.5 -51.5zM283 551q0 -30 -21.5 -51.5t-51.5 -21.5 q-32 0 -53 21.5t-21 53.5q0 30 21.5 51t51.5 21q31 0 52.5 -21.5t21.5 -52.5z" />
<glyph unicode="&#x26;" horiz-adv-x="720" d="M686 410v23h-148l-70 -152l-115 113q23 13 44 31t36.5 40t24.5 47t9 53q0 37 -14.5 67.5t-39.5 53t-57 35t-68 12.5q-38 0 -71.5 -13t-58.5 -36.5t-39.5 -56t-14.5 -71.5q0 -52 21 -88.5t57 -71.5q-29 -18 -55 -38t-46.5 -44.5t-32.5 -54.5t-12 -66q0 -46 19 -84 t51 -65.5t72.5 -42.5t84.5 -15q69 0 121.5 30t93.5 86l113 -112l84 83l-122 123l62 214h71zM355 557q0 -16 -7 -30t-17.5 -26t-23.5 -21.5t-25 -17.5q-23 20 -41 42t-18 54q0 29 18 49.5t48 20.5q29 0 47.5 -21.5t18.5 -49.5zM392 187q-20 -37 -48 -61t-73 -24 q-21 0 -39.5 7.5t-33 21t-23 32t-8.5 39.5q0 22 8 39.5t20.5 31.5t29 25t34.5 20z" />
<glyph unicode="'" horiz-adv-x="200" d="M162 714h-126l26 -287h73z" />
<glyph unicode="(" horiz-adv-x="360" d="M332 -133v152q-37 20 -66 49.5t-49.5 65.5t-31.5 76.5t-11 81.5q0 42 11 82t31.5 75.5t50 65t65.5 50.5v149q-67 -22 -121.5 -65t-93.5 -99.5t-60 -123t-21 -135.5q0 -71 21 -137t60 -122t93.5 -98.5t121.5 -66.5z" />
<glyph unicode=")" horiz-adv-x="360" d="M332 291q0 69 -21 135.5t-60 123t-93.5 99.5t-121.5 65v-149q73 -43 115.5 -115.5t42.5 -157.5q0 -41 -11 -81.5t-31.5 -76.5t-49.5 -65.5t-66 -49.5v-152q67 24 121.5 66.5t93.5 98.5t60 122t21 137z" />
<glyph unicode="*" horiz-adv-x="360" d="M326 545v63l-92 -5l50 77l-57 34l-47 -86l-52 86l-55 -36l55 -78l-94 3v-64l98 6l-48 -78l55 -31l44 85l49 -85l54 36l-51 75z" />
<glyph unicode="+" horiz-adv-x="660" d="M584 312v92h-208v208h-92v-208h-208v-92h208v-208h92v208h208z" />
<glyph unicode="," horiz-adv-x="300" d="M213 -25v166h-126v-141h54q0 -18 -0.5 -32.5t-5 -24t-15.5 -14.5t-33 -5v-68h19q61 0 84 30.5t23 88.5z" />
<glyph unicode="-" horiz-adv-x="320" d="M258 252v71h-256v-71h256z" />
<glyph unicode="." horiz-adv-x="300" d="M162 0v141h-126v-141h126z" />
<glyph unicode="/" d="M572 714h-89l-447 -909h88z" />
<glyph unicode="0" d="M548 260v200q0 57 -18 107t-52 87t-81.5 58t-107.5 21q-54 0 -104 -22t-87 -61q-41 -43 -53.5 -87.5t-12.5 -102.5v-200q0 -31 3 -58t11.5 -51t23.5 -46.5t38 -44.5q37 -35 83.5 -54.5t97.5 -19.5q54 0 104 22.5t88 61.5q41 43 54 87.5t13 102.5zM414 258q0 -31 -6 -58.5 t-20.5 -47.5t-38.5 -32t-59 -12q-34 0 -57.5 11t-38.5 30t-21.5 45t-6.5 57v217q0 30 7 56t22 45.5t38.5 30.5t56.5 11q35 0 58.5 -12t38 -33t21 -48.5t6.5 -57.5v-202z" />
<glyph unicode="1" d="M455 0v24h-84v690h-237v-24h105v-666h-84v-24h300z" />
<glyph unicode="2" d="M528 499q0 48 -18 91t-49.5 74.5t-73.5 50t-91 18.5q-54 0 -99 -19.5t-77.5 -53.5t-50.5 -80t-18 -99h129q-1 24 6.5 46t22 38.5t35 26t45.5 9.5q22 0 41.5 -8t34.5 -21.5t23.5 -32.5t8.5 -41q0 -21 -8 -40t-20.5 -35.5t-28 -31t-29.5 -28.5l-257 -249v-114h469v190h-27 v-76h-273l169 155q27 24 51.5 48.5t43 52t30 59t11.5 70.5z" />
<glyph unicode="3" d="M545 215q0 30 -8.5 58.5t-24 53t-38.5 43.5t-51 29q20 10 35.5 26t26 35.5t16 41.5t5.5 44q0 43 -17.5 77.5t-46 59t-66.5 37.5t-78 13q-42 0 -80 -14t-67.5 -39.5t-47.5 -61.5t-18 -79h123q2 36 26.5 59.5t60.5 23.5q39 0 64.5 -25t25.5 -64q0 -32 -12.5 -50.5 t-32.5 -27.5t-44.5 -11.5t-49.5 -2.5v-104q5 2 16.5 1.5t16.5 -0.5q27 0 50 -8.5t40 -24t26.5 -37.5t9.5 -49q0 -24 -9 -44.5t-25 -36t-36.5 -24.5t-44.5 -9q-45 0 -75.5 29t-37.5 72h-135q3 -52 24.5 -92.5t57 -69t80.5 -43.5t94 -15q48 0 92.5 17t79 48t55 72.5t20.5 91.5 z" />
<glyph unicode="4" d="M578 190v33h-107v491h-153l-308 -420v-104h329v-166h-83v-24h298v24h-83v166h107zM339 294h-184l184 259v-259z" />
<glyph unicode="5" d="M560 242q0 49 -17.5 93.5t-49 78.5t-74 53.5t-93.5 19.5q-34 0 -65.5 -9t-59.5 -29l28 151h275v114h-380l-64 -382l112 -29q17 33 47.5 51.5t67.5 18.5q27 0 51.5 -10t43 -27.5t29.5 -41.5t11 -52t-10.5 -52.5t-28.5 -42.5t-42.5 -28t-52.5 -10q-42 0 -73.5 22t-46.5 60 h-140q10 -47 34 -85t58 -64.5t76.5 -41t90.5 -14.5q55 0 104.5 18.5t87 52.5t59.5 81t22 104z" />
<glyph unicode="6" d="M557 250q0 47 -17 91t-47 77.5t-71.5 54t-90.5 20.5q-34 0 -63 -16l166 237h-149l-192 -282q-28 -41 -45.5 -83t-17.5 -93q0 -55 20 -104t55 -86t83.5 -58.5t104.5 -21.5q55 0 103.5 20.5t84 56t56 83.5t20.5 104zM428 245q0 -27 -11 -50.5t-29.5 -41.5t-42.5 -28 t-51 -10q-28 0 -52 10.5t-42 28.5t-28.5 42.5t-10.5 52.5t10.5 52t29 41.5t43 27.5t51.5 10q28 0 52 -10.5t42 -29t28.5 -43t10.5 -52.5z" />
<glyph unicode="7" d="M531 599v115h-474v-229h29v115h308l-276 -600h147z" />
<glyph unicode="8" d="M539 216q0 29 -9 57.5t-25 53t-39.5 43.5t-51.5 28q39 24 60 62.5t21 84.5q0 41 -17 75.5t-45 59.5t-64.5 39t-75.5 14q-43 0 -82.5 -14t-69.5 -40t-47.5 -63t-17.5 -82t23.5 -84.5t65.5 -58.5q-56 -22 -90 -72.5t-34 -110.5q0 -52 20.5 -93t54.5 -69.5t78.5 -44 t93.5 -15.5t94.5 16.5t80 47t55.5 73t21 93.5zM376 528q0 -37 -26.5 -63.5t-63.5 -26.5q-19 0 -35.5 7t-29 19.5t-19.5 29.5t-7 36t7.5 35.5t20 28.5t29.5 19t35 7t34.5 -7.5t28.5 -20.5t19 -29.5t7 -34.5zM400 216q0 -23 -9 -43.5t-24 -36t-35 -25t-43 -9.5 q-24 0 -45.5 8.5t-37 24t-25 36.5t-9.5 45t9 44.5t24 36t35.5 24.5t44.5 9t44.5 -9t36.5 -24.5t25 -36t9 -44.5z" />
<glyph unicode="9" d="M561 464q0 56 -20.5 105t-56 85.5t-84 57.5t-105.5 21q-53 0 -101.5 -21t-85 -57t-58.5 -83.5t-22 -100.5q0 -49 17.5 -94.5t48 -80t73.5 -55.5t94 -21q17 0 32.5 4.5t30.5 12.5l-178 -237h165l191 288q28 43 43.5 83t15.5 93zM429 471q0 -28 -10.5 -53t-28.5 -43.5 t-42.5 -29t-52.5 -10.5t-52.5 10.5t-43 29t-29 43.5t-10.5 53q0 27 11 51t29.5 42t43 28t51.5 10t51 -10.5t42.5 -28t29.5 -41.5t11 -51z" />
<glyph unicode=":" horiz-adv-x="300" d="M213 373v141h-126v-141h126zM213 0v141h-126v-141h126z" />
<glyph unicode=";" horiz-adv-x="300" d="M213 373v141h-126v-141h126zM213 -25v166h-126v-141h54q0 -18 -0.5 -32.5t-5 -24t-15.5 -14.5t-33 -5v-68h19q61 0 84 30.5t23 88.5z" />
<glyph unicode="&#x3c;" horiz-adv-x="660" d="M595 67v91l-450 199l450 202v92l-540 -249v-88z" />
<glyph unicode="=" horiz-adv-x="660" d="M584 389v93h-508v-93h508zM584 233v93h-508v-93h508z" />
<glyph unicode="&#x3e;" horiz-adv-x="660" d="M595 314v88l-540 249v-92l450 -202l-450 -199v-91z" />
<glyph unicode="?" horiz-adv-x="540" d="M510 499q0 47 -19 89.5t-51 74.5t-74.5 51t-89.5 19q-51 0 -95 -19t-76.5 -52.5t-51 -78t-17.5 -95.5h129q1 48 30.5 81.5t79.5 33.5q21 0 40 -9t33.5 -23.5t22.5 -34t8 -40.5q0 -26 -12.5 -46.5t-31 -39.5t-40 -39t-40 -44t-31 -55t-12.5 -72h26q5 35 27.5 59.5 t52.5 43.5t64 36.5t62.5 39t47 50t18.5 70.5zM298 0v141h-126v-141h126z" />
<glyph unicode="@" horiz-adv-x="880" d="M799 316q0 69 -27 125t-72.5 95.5t-105 61.5t-125.5 22q-78 0 -148 -30t-123 -82t-84.5 -121.5t-31.5 -147.5q0 -83 32 -150.5t86 -115.5t125.5 -74t150.5 -26q47 0 95.5 4t94.5 15l-21 45q-43 -4 -86 -5t-86 -1q-68 0 -128 22.5t-104 64t-69.5 99t-25.5 127.5 q0 67 25.5 124.5t69 100.5t102 67.5t124.5 24.5q57 0 107.5 -17t88 -50t59 -80t21.5 -107q0 -28 -9 -63t-27 -66t-44 -52.5t-60 -21.5q-30 0 -30 30q0 18 10.5 57t24.5 82.5t28 84t20 60.5h-72l-11 -31q-12 29 -39.5 45.5t-58.5 16.5q-44 0 -83.5 -21.5t-69 -55.5t-47 -76.5 t-17.5 -84.5q0 -31 9 -60t26.5 -51t43.5 -35.5t60 -13.5q35 0 64 15.5t51 43.5q7 -63 71 -63q52 0 92 25t67.5 64t42 87t14.5 93zM540 313q0 -27 -8 -60.5t-24.5 -63t-41 -49.5t-56.5 -20q-19 0 -32.5 7.5t-22.5 19.5t-13.5 28t-4.5 33q0 28 10 58.5t28 56t43.5 42.5 t56.5 17q32 0 48.5 -19.5t16.5 -49.5z" />
<glyph unicode="A" horiz-adv-x="780" d="M777 0v24h-76l-250 690h-239v-24h109l-238 -666h-76v-24h291v20h-77l61 187h231l42 -187h-79v-20h301zM479 312h-162l71 245h1z" />
<glyph unicode="B" horiz-adv-x="600" d="M585 199q0 64 -32.5 112t-91.5 72q45 21 69 62t24 90t-17 83.5t-46.5 55.5t-68.5 30.5t-83 9.5h-317v-24h77v-666h-77v-24h332q47 0 89 11.5t73.5 36t50 62t18.5 89.5zM429 515q0 -45 -28.5 -65.5t-70.5 -20.5h-94v171h88q21 0 40 -4t33.5 -14t23 -26.5t8.5 -40.5z M449 215q0 -29 -10.5 -47.5t-28.5 -29.5t-41 -15t-47 -4h-87v198h87q25 0 48 -5t40.5 -17t28 -31.5t10.5 -48.5z" />
<glyph unicode="C" horiz-adv-x="760" d="M737 235h-27q-19 -30 -48 -53.5t-63.5 -40.5t-71.5 -26t-71 -9q-51 0 -104.5 19t-96.5 53t-70.5 81t-27.5 103q0 50 17.5 93.5t49 75t74.5 49.5t93 18q29 0 58 -7.5t55 -21.5t47.5 -34.5t36.5 -45.5h40v228h-22v-72q-44 45 -101.5 66.5t-119.5 21.5q-76 0 -142.5 -29.5 t-116 -80t-78 -118t-28.5 -142.5q0 -77 28.5 -145.5t78.5 -120t117.5 -81.5t145.5 -30q57 0 112 18.5t101.5 51.5t81 78.5t52.5 100.5z" />
<glyph unicode="D" horiz-adv-x="740" d="M711 355q0 80 -24.5 146t-70 113.5t-110.5 73.5t-145 26h-339v-24h78v-666h-78v-24h337q78 0 143 26t111.5 73t72 112.5t25.5 143.5zM575 355q0 -113 -60.5 -172.5t-171.5 -59.5h-107v470h109q116 0 173 -61.5t57 -176.5z" />
<glyph unicode="E" d="M551 0v216h-26v-97h-289v189h208v106h-208v178h289v-93h26v215h-529v-24h78v-666h-78v-24h529z" />
<glyph unicode="F" d="M555 499v215h-533v-24h78v-666h-78v-24h292v24h-78v280h207v105h-207v183h293v-93h26z" />
<glyph unicode="G" horiz-adv-x="780" d="M662 0v287h-325v-25h264q-13 -33 -34.5 -59t-48.5 -44t-59.5 -27.5t-67.5 -9.5q-50 0 -92.5 19t-74 51.5t-49.5 76t-18 92.5t18 92.5t50 75t74.5 50t92.5 18.5q57 0 105 -24t81 -69h58v210h-22v-66q-48 42 -104.5 63.5t-120.5 21.5q-78 0 -145 -29.5t-117 -80.5 t-78.5 -119t-28.5 -145t29 -145t79 -118.5t118 -80t145 -29.5q73 0 139.5 31t108.5 93v-110h23z" />
<glyph unicode="H" horiz-adv-x="740" d="M724 0v24h-77v666h77v24h-290v-24h77v-262h-275v262h77v24h-291v-24h78v-666h-78v-24h291v24h-77v268h275v-268h-77v-24h290z" />
<glyph unicode="I" horiz-adv-x="340" d="M313 0v24h-77v666h77v24h-291v-24h78v-666h-78v-24h291z" />
<glyph unicode="J" horiz-adv-x="540" d="M526 690v24h-291v-24h78v-458q0 -35 -2 -62.5t-13.5 -47.5t-34.5 -30.5t-65 -10.5q-20 0 -48 10.5t-53.5 27t-43.5 38t-19 44.5h-22v-9q-1 -48 16 -86t47.5 -64.5t71 -41t86.5 -14.5q55 0 96 18t67.5 49.5t39.5 75.5t13 95v466h77z" />
<glyph unicode="K" horiz-adv-x="720" d="M702 0v24h-63l-267 342l254 324h61v24h-294v-24h64l-221 -299v299h77v24h-291v-24h78v-666h-78v-24h291v24h-77v311l232 -311h-70v-24h304z" />
<glyph unicode="L" horiz-adv-x="560" d="M543 0v216h-26v-194h-281v668h77v24h-291v-24h78v-666h-78v-24h521z" />
<glyph unicode="M" horiz-adv-x="960" d="M942 0v24h-78v666h78v24h-268l-194 -504l-194 504h-268v-24h78v-666h-78v-24h297v24h-83v505l203 -529h96l197 529v-505h-77v-24h291z" />
<glyph unicode="N" horiz-adv-x="800" d="M775 690v24h-291v-24h78v-454l-340 478h-200v-24h77v-666h-77v-24h291v24h-78v446l336 -470h127v690h77z" />
<glyph unicode="O" horiz-adv-x="780" d="M769 363q0 76 -29.5 143t-80.5 117.5t-118.5 79.5t-143.5 29q-78 0 -146.5 -29t-120 -80t-81 -119.5t-29.5 -146.5q0 -77 29.5 -145t80.5 -118.5t119 -79.5t145 -29q78 0 146.5 30t119.5 81t80 120t29 147zM629 362q0 -49 -18 -93t-49.5 -77t-74.5 -52t-93 -19t-92.5 19 t-74 52t-49.5 76.5t-18 92.5t18.5 91.5t50.5 74.5t75 50.5t92 18.5q48 0 90.5 -18.5t74 -50.5t50 -74.5t18.5 -90.5z" />
<glyph unicode="P" horiz-adv-x="600" d="M585 481q0 64 -22 108.5t-59.5 72t-88.5 40t-108 12.5h-284v-24h77v-666h-77v-24h291v24h-78v223q39 0 76.5 -1t72.5 4t68 19t63 44q33 33 51 77t18 91zM448 481q0 -31 -10 -52t-28 -34t-42 -19t-51 -6h-81v220h75q26 0 51 -5.5t44 -18.5t30.5 -34t11.5 -51z" />
<glyph unicode="Q" horiz-adv-x="780" d="M629 362q0 -49 -18 -93t-49.5 -77t-74.5 -52t-93 -19t-92.5 19t-74 52t-49.5 76.5t-18 92.5t18.5 91.5t50.5 74.5t75 50.5t92 18.5q48 0 90.5 -18.5t74 -50.5t50 -74.5t18.5 -90.5zM695 -110l16 33l-121 120q85 56 132 136.5t47 183.5q0 76 -29.5 143t-80.5 117.5 t-118.5 79.5t-143.5 29q-78 0 -146.5 -29t-120 -80t-81 -119.5t-29.5 -146.5q0 -77 29.5 -145t80.5 -118.5t119 -79.5t145 -29q44 0 86.5 9.5t80.5 29.5z" />
<glyph unicode="R" horiz-adv-x="640" d="M628 0v24h-41l-151 232q40 3 73 23t56 50t35.5 67t12.5 75q0 61 -21 107t-58 76t-86.5 45t-106.5 15h-319v-24h77v-666h-77v-24h274v24h-61v297l216 -321h177zM477 466q0 -38 -14 -63.5t-37.5 -40.5t-53.5 -21.5t-63 -6.5h-74v258h102q30 0 55.5 -7.5t44 -23t29.5 -39.5 t11 -56z" />
<glyph unicode="S" horiz-adv-x="520" d="M496 210q0 64 -25.5 102t-63 60.5t-82 35t-82 26t-63 34t-25.5 58.5q0 22 13 38.5t32 28t41.5 17t40.5 5.5t39.5 -6.5t40 -19t31 -29.5t12.5 -38h42v192h-24v-40q-12 15 -31 25.5t-41 17t-44.5 9.5t-40.5 3q-42 0 -85.5 -15t-79 -42.5t-58.5 -65.5t-23 -83 q0 -64 25 -102.5t63 -61.5t82 -36.5t82 -28t63 -35t25 -58.5q0 -24 -13.5 -42.5t-34 -30.5t-44 -18.5t-43.5 -6.5q-22 0 -46 8t-44 22t-33 34.5t-13 44.5h-44v-212h28v47q13 -16 33 -27.5t43 -19t47 -11t44 -3.5q46 0 92 16.5t82.5 46t59 70.5t22.5 91z" />
<glyph unicode="T" horiz-adv-x="600" d="M582 489v225h-562v-225h28v104h185v-569h-78v-24h292v24h-78v569h185v-104h28z" />
<glyph unicode="U" horiz-adv-x="700" d="M686 690v24h-278v-24h65v-426q0 -30 -5.5 -57t-19 -47.5t-36.5 -33t-57 -12.5q-35 0 -58 12.5t-36.5 33t-19 47.5t-5.5 57v426h65v24h-278v-24h77v-440q0 -61 16.5 -110t48.5 -83t79.5 -52.5t110.5 -18.5q61 0 108.5 18t79.5 52t49 82t17 108v444h77z" />
<glyph unicode="V" horiz-adv-x="740" d="M732 690v24h-281v-24h69l-151 -502l-141 502h68v24h-289v-24h77l205 -690h149l218 690h76z" />
<glyph unicode="W" horiz-adv-x="1020" d="M1007 690v24h-290v-24h80l-96 -461l-137 485h-115l-129 -489l-101 465h78v24h-290v-24h71l171 -690h127l132 471l132 -471h129l159 690h79z" />
<glyph unicode="X" horiz-adv-x="740" d="M721 0v24h-73l-198 338l192 328h72v24h-295v-25h66l-115 -232l-115 232h66v25h-294v-24h73l188 -328l-199 -338h-70v-24h293v25h-71l129 243l128 -243h-70v-25h293z" />
<glyph unicode="Y" horiz-adv-x="680" d="M663 690v24h-275v-24h68l-119 -326l-120 326h66v24h-276v-24h72l189 -441v-225h-77v-24h291v24h-78v225l188 441h71z" />
<glyph unicode="Z" horiz-adv-x="560" d="M539 0v217h-25v-98h-332l342 492v103h-487v-217h31v98h292l-340 -488v-107h519z" />
<glyph unicode="[" horiz-adv-x="380" d="M339 -129v115h-161v613h161v115h-298v-843h298z" />
<glyph unicode="\" horiz-adv-x="620" d="M513 0l-304 714h-101l305 -714h100z" />
<glyph unicode="]" horiz-adv-x="380" d="M339 -129v843h-298v-115h161v-613h-161v-115h298z" />
<glyph unicode="^" horiz-adv-x="660" d="M622 174l-249 540h-88l-247 -540h91l199 443l203 -443h91z" />
<glyph unicode="_" horiz-adv-x="500" d="M500 -238v50h-500v-50h500z" />
<glyph unicode="`" horiz-adv-x="460" d="M388 689l-268 144l-49 -108l276 -125z" />
<glyph unicode="a" horiz-adv-x="660" d="M649 0v24h-67v486h67v24h-191v-76q-28 44 -71.5 67t-94.5 23q-59 0 -110 -22.5t-88.5 -61.5t-59.5 -90.5t-22 -109.5q0 -57 21.5 -107.5t58.5 -88.5t87 -60t107 -22q52 0 97.5 20.5t74.5 65.5v-72h191zM460 270q0 -34 -12.5 -64t-34.5 -52.5t-52 -35.5t-64 -13 q-32 0 -61 12.5t-51 34.5t-34.5 51t-12.5 61q0 33 12.5 63t34 52.5t51 36t63.5 13.5q33 0 62 -12.5t51 -34t35 -50.5t13 -62z" />
<glyph unicode="b" horiz-adv-x="660" d="M648 267q0 57 -21.5 107t-59 87.5t-87.5 59t-107 21.5q-51 0 -93.5 -21.5t-71.5 -63.5v257h-191v-24h69v-666h-69v-24h191v80q31 -44 78.5 -66t100.5 -22q55 0 102.5 23t83 61t55.5 87.5t20 103.5zM527 269q0 -33 -12.5 -62.5t-34 -52t-50.5 -36t-62 -13.5q-35 0 -65 13 t-52 35t-35 52t-13 65q0 33 13 62.5t35 51.5t51.5 34.5t62.5 12.5t62.5 -13t51.5 -35t35 -51.5t13 -62.5z" />
<glyph unicode="c" d="M559 180h-26q-12 -23 -33.5 -40.5t-48 -29.5t-54.5 -18t-52 -6q-35 0 -72.5 14t-68 39t-50.5 57.5t-20 70.5t13 71t37 58t56.5 39t71.5 14q24 0 52 -7t54.5 -19t49.5 -29t37 -38h34v178h-25v-51q-16 16 -46 29t-64 21t-67.5 12.5t-55.5 4.5q-57 0 -106 -23.5t-85.5 -62.5 t-57 -90.5t-20.5 -106.5q0 -58 22.5 -109t60.5 -89.5t89.5 -60.5t109.5 -22q44 0 86 14.5t78 40t62.5 61.5t38.5 78z" />
<glyph unicode="d" horiz-adv-x="660" d="M650 0v24h-69v690h-192v-24h70v-234q-31 41 -78 64t-98 23q-57 0 -106 -22t-86 -60t-58 -88t-21 -106t21.5 -105.5t59 -87.5t86.5 -60t105 -22q53 0 99 21.5t76 66.5v-80h191zM462 269q0 -34 -12.5 -64t-34.5 -52.5t-51.5 -35.5t-63.5 -13q-33 0 -62.5 13t-51 34.5 t-34.5 51t-13 62.5q0 34 12.5 64t34.5 52t52 35t64 13q33 0 62 -13t50.5 -34.5t34.5 -50.5t13 -62z" />
<glyph unicode="e" d="M563 264q0 59 -20.5 111t-57 91t-87 61.5t-110.5 22.5t-110.5 -22.5t-88 -61t-58.5 -90.5t-21 -111t22 -110t60 -88.5t89 -59t110 -21.5q41 0 79.5 12.5t71.5 35t59 54t42 69.5h-27q-13 -19 -33 -31.5t-43 -19.5t-47.5 -10t-45.5 -3q-29 0 -64.5 8t-67.5 23.5t-56.5 39.5 t-31.5 57h432q1 11 2.5 21.5t1.5 21.5zM450 255h-324q0 35 9.5 68.5t29 59.5t49 42t68.5 16t70 -15.5t52.5 -41t33.5 -59t12 -70.5z" />
<glyph unicode="f" horiz-adv-x="320" d="M293 707v29q-99 0 -153.5 -48.5t-53.5 -150.5h-69v-24h69v-486h-69v-24h261v24h-70v486h70v24h-70q0 21 1.5 50.5t10 56.5t25.5 45.5t48 17.5z" />
<glyph unicode="g" horiz-adv-x="660" d="M642 510v24h-181v-78q-30 47 -77 67t-101 20q-56 0 -105 -22.5t-86 -60t-58.5 -87.5t-21.5 -105q0 -56 21 -106t57.5 -88t85.5 -60t106 -22q54 0 98 21t73 68q0 -41 -4 -75.5t-33 -68.5q-11 -12 -30 -22.5t-41 -19t-44 -13t-38 -4.5q-18 0 -48.5 5.5t-61 15.5t-56 24 t-34.5 31h-21q10 -44 36 -76t60.5 -53t75.5 -31.5t83 -10.5q59 0 113 19.5t96 61.5q23 23 36.5 46.5t20 49t8.5 53t2 58.5v439h69zM462 270q0 -34 -12.5 -64t-34.5 -52.5t-51.5 -35.5t-63.5 -13t-64 13t-52 35t-34.5 52t-12.5 64q0 33 13 62.5t35 51.5t51.5 35t62.5 13 t62.5 -12.5t52 -34.5t35.5 -51.5t13 -62.5z" />
<glyph unicode="h" horiz-adv-x="640" d="M632 0v24h-69v274q0 46 -10.5 90.5t-33.5 79.5t-60 56.5t-91 21.5q-51 0 -92.5 -23.5t-67.5 -68.5v260h-191v-24h69v-666h-69v-24h260v24h-69v260q0 29 6.5 54.5t20.5 45t36.5 31t54.5 11.5q58 0 86.5 -35t28.5 -90v-277h-69v-24h260z" />
<glyph unicode="i" horiz-adv-x="300" d="M150 591q37 0 62.5 26t25.5 62q0 37 -25.5 63.5t-62.5 26.5t-62.5 -26.5t-25.5 -63.5q0 -36 25.5 -62t62.5 -26zM280 0v24h-69v510h-191v-24h69v-486h-70v-24h261z" />
<glyph unicode="j" horiz-adv-x="280" d="M220 8v526h-191v-24h69v-563q0 -24 -2 -46t-11 -39t-26 -28t-47 -12v-23q103 6 155.5 54.5t52.5 154.5zM150 591q37 0 62.5 26t25.5 62q0 37 -25.5 63.5t-62.5 26.5t-62.5 -26.5t-25.5 -63.5q0 -36 25.5 -62t62.5 -26z" />
<glyph unicode="k" horiz-adv-x="600" d="M582 0v24h-84l-156 254l147 232h65v24h-263v-22h55l-137 -217v419h-192v-24h70v-666h-70v-24h240v24h-48v230l127 -230h-45v-24h291z" />
<glyph unicode="l" horiz-adv-x="300" d="M282 0v24h-69v690h-191v-24h69v-666h-74v-24h265z" />
<glyph unicode="m" horiz-adv-x="980" d="M960 0v24h-69v292q0 23 -0.5 44.5t-4.5 41.5t-12.5 39.5t-24.5 37.5q-29 33 -69.5 50.5t-84.5 17.5q-55 0 -104 -30.5t-71 -81.5q-23 50 -66.5 81t-99.5 31q-51 0 -89.5 -25.5t-64.5 -67.5v80h-180v-24h69v-486h-69v-24h260v24h-69v255q0 28 5.5 54.5t18.5 47.5t35 33.5 t55 12.5q34 0 54.5 -13t31.5 -34t14.5 -48t3.5 -54v-254h-69v-24h260v24h-69v272q0 28 6.5 52t20.5 41.5t35.5 27.5t52.5 10t51 -10.5t31.5 -28.5t16 -42t4.5 -51v-271h-69v-24h260z" />
<glyph unicode="n" horiz-adv-x="640" d="M634 0v24h-69v299q0 46 -6.5 83.5t-38.5 73.5q-29 32 -70 49t-84 17q-49 0 -91.5 -21.5t-66.5 -66.5v76h-191v-24h69v-486h-69v-24h260v24h-69v253q0 31 5.5 58t19 47t37 32t58.5 12q62 0 88.5 -36.5t26.5 -93.5v-272h-69v-24h260z" />
<glyph unicode="o" d="M572 270q0 57 -22 108t-59.5 89.5t-88.5 60.5t-108 22q-58 0 -109.5 -22t-89.5 -60.5t-60.5 -89.5t-22.5 -109t22 -109.5t59.5 -90t88.5 -61t109 -22.5q59 0 110 22.5t89 61t60 90t22 110.5zM452 267q0 -33 -12.5 -62.5t-34.5 -51.5t-51.5 -34.5t-62.5 -12.5 q-34 0 -63 13t-50.5 35.5t-33.5 52.5t-12 63t13 62t35 51t51.5 34.5t62.5 12.5t62 -13t50 -35.5t33.5 -52t12.5 -62.5z" />
<glyph unicode="p" horiz-adv-x="660" d="M655 265q0 56 -21.5 106t-58 87.5t-86 59.5t-106.5 22q-54 0 -100 -22t-75 -68v84h-191v-24h68v-681h-68v-24h260v24h-69v246q32 -42 80.5 -62.5t100.5 -20.5q55 0 103.5 22t84.5 59.5t57 87t21 104.5zM529 265q0 -33 -13 -62t-34.5 -51t-51 -34.5t-62.5 -12.5 t-62.5 12.5t-51.5 34.5t-34.5 51.5t-12.5 62.5q0 34 13 63.5t35 51.5t52 34.5t64 12.5q33 0 62 -13t50 -35.5t33.5 -52t12.5 -62.5z" />
<glyph unicode="q" horiz-adv-x="660" d="M650 -195v24h-68v681h68v24h-191v-84q-29 46 -74.5 68t-99.5 22q-57 0 -106.5 -22t-86.5 -59.5t-58.5 -87.5t-21.5 -106q0 -55 20.5 -104.5t56.5 -87t84.5 -59.5t104.5 -22q52 0 100.5 20.5t80.5 62.5v-270h191zM460 266q0 -33 -12.5 -62.5t-34.5 -51.5t-51.5 -34.5 t-62.5 -12.5t-62 13t-50.5 34.5t-34.5 50.5t-13 62t12 62.5t33 52t50 35.5t62 13q34 0 64 -12.5t52 -34t35 -51.5t13 -64z" />
<glyph unicode="r" horiz-adv-x="380" d="M359 475v65q-51 -2 -94 -25.5t-66 -71.5v91h-182v-24h69v-486h-69v-24h260v24h-69v285q0 75 36.5 118.5t114.5 47.5z" />
<glyph unicode="s" horiz-adv-x="460" d="M447 154q0 52 -21.5 82.5t-53 48t-69 26.5t-69 18.5t-53 24t-21.5 42.5t21.5 42t46.5 14q12 0 35 -4t45.5 -12t40 -20t18.5 -27h48v145h-20v-37q-12 15 -36.5 24t-53 14.5t-56 7.5t-45.5 2q-36 0 -68.5 -11t-57.5 -31.5t-40 -50.5t-15 -68q0 -50 21 -79.5t53 -47.5 t69 -27.5t69 -19.5t53 -25.5t21 -43.5q0 -29 -22.5 -47.5t-50.5 -18.5q-16 0 -42 5t-51.5 15.5t-45 25t-21.5 34.5h-51v-155h19v44q14 -16 41 -27t58.5 -18t62 -10t50.5 -3q37 0 72 11t61 32.5t42 53t16 71.5z" />
<glyph unicode="t" horiz-adv-x="340" d="M315 0v24h-97v486h91v24h-91v180h-22l-100 -180h-84v-24h84v-510h219z" />
<glyph unicode="u" horiz-adv-x="640" d="M619 0v24h-69v510h-191v-24h69v-271q0 -28 -5.5 -53t-19 -44.5t-35 -31t-53.5 -11.5q-33 0 -54.5 12.5t-34 32.5t-17.5 46.5t-5 54.5v289h-191v-24h69v-301q0 -45 12 -85.5t36.5 -71t61 -48.5t85.5 -18q47 0 91 20.5t70 59.5v-66h181z" />
<glyph unicode="v" horiz-adv-x="600" d="M595 510v24h-246v-24h57l-105 -360h-1l-98 360h54v24h-249v-24h65l164 -510h128l168 510h63z" />
<glyph unicode="w" horiz-adv-x="880" d="M863 510v24h-252v-24h61l-82 -341h-1l-84 345h-140l-92 -345h-1l-77 341h59v24h-247v-24h67l128 -510h114l115 404l97 -404h118l146 510h71z" />
<glyph unicode="x" horiz-adv-x="620" d="M594 0v24h-62l-143 246l136 240h60v24h-243v-24h45l-81 -163l-82 163h45v24h-246v-24h60l138 -240l-141 -246h-63v-24h252v24h-42l79 171l78 -171h-42v-24h252z" />
<glyph unicode="y" horiz-adv-x="600" d="M600 510v24h-249v-24h52l-101 -351l-95 351h52v24h-252v-24h70l162 -503l-46 -178h-67v-24h260v24h-70l217 681h67z" />
<glyph unicode="z" horiz-adv-x="460" d="M448 0v173h-27v-59h-244l257 310v110h-410v-177h27v63h232l-271 -322v-98h436z" />
<glyph unicode="{" horiz-adv-x="320" d="M293 -129q-46 14 -62 40t-16 73v185q0 51 -17 82t-70 44q28 6 45 18t26.5 29t12.5 38.5t3 47.5v173q0 45 16.5 72t61.5 41h-22q-44 0 -73.5 -6.5t-48 -23t-26.5 -45t-8 -73.5v-164q0 -44 -15 -71.5t-64 -35.5q45 -11 62 -37.5t17 -70.5v-185q0 -38 9 -63.5t27.5 -40.5 t46 -21t63.5 -6h32z" />
<glyph unicode="|" horiz-adv-x="660" d="M376 -250v1000h-92v-1000h92z" />
<glyph unicode="}" horiz-adv-x="320" d="M293 295q-49 8 -64 35t-15 72v164q0 41 -7 69.5t-23.5 46t-44.5 25t-70 7.5l-32 -1q45 -13 61 -40t16 -72v-173q0 -26 3 -47.5t12.5 -38.5t26.5 -29t45 -18q-53 -13 -70 -44t-17 -82v-185q0 -46 -15.5 -72.5t-61.5 -40.5h31q36 0 63.5 6t46 21t27.5 40.5t9 63.5v185 q0 44 17 70.5t62 37.5z" />
<glyph unicode="~" horiz-adv-x="660" d="M611 402l-72 46q-8 -12 -17 -25t-20 -24.5t-24.5 -19t-29.5 -7.5q-24 0 -52 10.5t-59 23t-63.5 23t-64.5 10.5q-30 0 -55 -10.5t-45.5 -28t-37 -40t-31.5 -46.5l72 -47q9 14 18.5 29t21 27t26 20t33.5 8q25 0 53.5 -10.5t58.5 -23.5t61.5 -23.5t63.5 -10.5 q30 0 53.5 10.5t42.5 27t35 38t32 43.5z" />
<glyph unicode="&#xa1;" horiz-adv-x="200" d="M163 393v141h-126v-141h126zM163 -181v500h-126v-500h126z" />
<glyph unicode="&#xa2;" d="M559 188h-26q-12 -23 -33.5 -40.5t-48 -29.5t-54.5 -18t-52 -6q-35 0 -72.5 14t-68 39t-50.5 57.5t-20 70.5t13 71t37 58t56.5 39t71.5 14q24 0 52 -7t54.5 -19t49.5 -29t37 -38h34v178h-25v-51q-16 16 -46 29t-64 21t-67.5 12.5t-55.5 4.5q-57 0 -106 -23.5t-85.5 -62.5 t-57 -90.5t-20.5 -106.5q0 -51 17.5 -97.5t49 -83.5t74 -62t93.5 -34v-99h100v97l-15 1q39 5 75 21.5t66.5 41.5t53 57.5t33.5 70.5z" />
<glyph unicode="&#xa3;" d="M303 0q46 0 90.5 13t79 39.5t55.5 65t21 89.5q0 19 -6 37h-105q7 -35 -0.5 -61t-26 -43t-45.5 -26t-59 -9h-62q27 18 41.5 45.5t14.5 59.5q0 26 -11 48t-25 42h123l11 100h-183q-13 17 -20.5 37t-7.5 42q0 26 9.5 50.5t26 43.5t39.5 30.5t50 11.5q41 0 68 -25.5t26 -66.5 l-1 -7h22l22 198h-22l-5 -41q-23 28 -49 42t-63 14q-49 0 -94 -20.5t-79.5 -55t-55 -79.5t-20.5 -94q0 -42 20 -80h-67l-11 -100h124q17 -23 31.5 -47.5t14.5 -54.5q0 -36 -12.5 -55t-33.5 -27.5t-47.5 -9.5t-54.5 -1l-11 -105h288z" />
<glyph unicode="&#xa4;" horiz-adv-x="760" d="M640 271v69h-481q-1 6 -1.5 11.5t-0.5 10.5v12q0 7 1 13h482v69h-465q13 33 35.5 59.5t50.5 45t61 28t69 9.5q29 0 58 -7.5t55 -21.5t47.5 -34.5t36.5 -45.5h40v228h-22v-72q-44 45 -101.5 66.5t-119.5 21.5q-63 0 -120 -21t-103.5 -57.5t-80 -87.5t-49.5 -111h-66v-69 h55l-1 -24l1 -23h-55v-69h65q15 -62 49 -114t81.5 -90t106 -59.5t122.5 -21.5q59 0 106.5 19t84 53t63 79t43.5 98h-27q-34 -53 -92 -80.5t-119 -27.5q-37 0 -75.5 10.5t-74 30t-66 45.5t-49.5 58h456z" />
<glyph unicode="&#xa5;" d="M580 691v23h-240v-23h57l-105 -328l-106 328h57v23h-243v-23h64l85 -271h-120v-57h148l19 -43h-167v-57h195l8 -15v-224h-68v-24h256v24h-69v224l6 15h193v57h-165l21 43h144v57h-116l83 271h63z" />
<glyph unicode="&#xa6;" horiz-adv-x="660" d="M376 325v350h-92v-350h92zM376 -175v350h-92v-350h92z" />
<glyph unicode="&#xa7;" horiz-adv-x="460" d="M423 34q0 49 -26 81.5t-71 48.5q40 21 64.5 57t24.5 82q0 50 -19 80.5t-47.5 48.5t-61.5 28.5t-61.5 21.5t-47.5 26.5t-19 43.5q0 32 22.5 50t52.5 18q12 0 25 -4t23.5 -11t16.5 -17.5t5 -23.5v-7h102q0 38 -15 67t-40.5 49t-58 30.5t-67.5 10.5q-33 0 -64 -10.5 t-55 -30.5t-38.5 -48t-14.5 -63q0 -47 28.5 -75.5t69.5 -44.5q-47 -16 -75 -54t-28 -87q0 -54 20 -85t50.5 -49t65.5 -27.5t65.5 -20t50.5 -27t20 -47.5q0 -38 -27 -57t-62 -19q-36 0 -62.5 19.5t-24.5 57.5v10h-107q0 -44 15 -78.5t41.5 -58.5t63 -37t79.5 -13 q36 0 69.5 11.5t59.5 33t42 52t16 68.5zM310 299q0 -32 -24 -53t-55 -21q-32 0 -57 20t-25 54q0 33 24.5 54t56.5 21t56 -21t24 -54z" />
<glyph unicode="&#xa8;" horiz-adv-x="460" d="M384 585v129h-122v-129h122zM198 585v129h-122v-129h122z" />
<glyph unicode="&#xa9;" horiz-adv-x="820" d="M783 363q0 76 -29.5 143.5t-80.5 118t-118.5 79.5t-143.5 29q-77 0 -145 -29.5t-118.5 -80t-80 -118.5t-29.5 -145q0 -76 29 -144t79 -119t117 -81t144 -30q79 0 147.5 29.5t119.5 80.5t80 119.5t29 147.5zM732 357q0 -66 -25.5 -124t-69.5 -101.5t-102 -68.5t-124 -25 q-67 0 -125.5 25.5t-102.5 69.5t-69.5 102.5t-25.5 125.5q0 66 25.5 124t69 101.5t102 69t124.5 25.5q68 0 127 -25.5t102.5 -69t68.5 -103t25 -126.5zM606 291h-15q-10 -15 -27.5 -26t-37.5 -18.5t-41 -11t-38 -3.5q-25 0 -53 9.5t-52 27t-39.5 41t-15.5 51.5q0 27 9.5 51 t26.5 41.5t40.5 27.5t51.5 10q32 0 62 -16t47 -44h22v125h-12v-39q-24 24 -56 36t-66 12q-42 0 -78.5 -16.5t-63.5 -44.5t-43 -65t-16 -78q0 -42 16 -80t43.5 -66t64.5 -44.5t80 -16.5q31 0 61.5 10t56 28.5t44.5 43.5t29 55z" />
<glyph unicode="&#xaa;" horiz-adv-x="420" d="M396 403v24h-41v273h41v24h-120v-36q-19 24 -44 34.5t-55 10.5q-35 0 -64.5 -14t-52 -37.5t-35 -54.5t-12.5 -65t13 -64.5t35 -53.5t52 -36.5t65 -13.5q28 0 54 11t44 33v-35h120zM276 565q0 -39 -26.5 -66t-65.5 -27q-37 0 -63.5 26.5t-26.5 63.5q0 19 7 36t19.5 29.5 t29.5 20t36 7.5q37 0 63.5 -26.5t26.5 -63.5z" />
<glyph unicode="&#xab;" horiz-adv-x="360" d="M325 188l-62 74l62 74l-6 119l-122 -144v-91l122 -138zM165 185l-64 78l64 79l-6 115l-123 -142v-95l123 -143z" />
<glyph unicode="&#xac;" horiz-adv-x="660" d="M621 174v308h-582v-93h489v-215h93z" />
<glyph unicode="&#xad;" horiz-adv-x="320" d="M258 252v71h-256v-71h256z" />
<glyph unicode="&#xae;" horiz-adv-x="820" d="M783 359q0 77 -29 145t-79.5 119t-118.5 80.5t-145 29.5t-145 -29t-119 -79.5t-80.5 -118.5t-29.5 -145t29 -145t79 -119t118 -81t145 -30t145.5 29.5t119.5 80t80.5 118.5t29.5 145zM732 361q0 -66 -25 -124.5t-68.5 -102.5t-101.5 -70t-124 -26q-68 0 -127 25 t-102.5 68.5t-69 102.5t-25.5 127q0 66 25 124t68.5 102t101.5 69.5t124 25.5q67 0 126 -25t103 -68.5t69.5 -102t25.5 -125.5zM592 161v13h-23l-83 127q22 2 40 12.5t30.5 27t19.5 37.5t7 42q0 34 -11.5 59t-32 41.5t-47.5 24.5t-58 8h-176v-13h43v-366h-43v-13h151v13h-34 v163l119 -176h98zM509 417q0 -40 -27 -56.5t-62 -16.5h-45v142h57q32 0 54.5 -17t22.5 -52z" />
<glyph unicode="&#xaf;" horiz-adv-x="520" d="M455 637v98h-384v-98h384z" />
<glyph unicode="&#xb0;" horiz-adv-x="400" d="M350 583q0 31 -12 58t-32.5 47.5t-47.5 32.5t-58 12t-58 -12t-47.5 -32.5t-32.5 -47.5t-12 -58t12 -58.5t32 -47.5t47.5 -32t58.5 -12t58 12t47.5 32.5t32.5 47.5t12 58zM280 583q0 -35 -23 -57.5t-57 -22.5q-33 0 -56.5 23.5t-23.5 56.5q0 34 23 57t57 23t57 -23t23 -57 z" />
<glyph unicode="&#xb1;" horiz-adv-x="660" d="M584 404v92h-208v116h-92v-116h-208v-92h208v-118h92v118h208zM584 102v92h-508v-92h508z" />
<glyph unicode="&#xb2;" horiz-adv-x="348" d="M329 593q0 31 -12.5 56.5t-33.5 44t-48 29t-57 10.5q-33 0 -62 -11t-50.5 -30.5t-34 -47.5t-12.5 -62h84q-2 31 19 51.5t51 20.5q26 0 48.5 -16.5t22.5 -45.5q0 -26 -19 -45.5t-37 -35.5l-167 -149v-69h305v114h-26v-45h-169q22 18 55.5 43.5t65 55.5t54.5 63.5t23 68.5z " />
<glyph unicode="&#xb3;" horiz-adv-x="348" d="M335 422q0 38 -22.5 68.5t-57.5 42.5q26 11 40 36t14 52t-12 48t-31 35t-43.5 21.5t-48.5 7.5q-25 0 -49.5 -8t-44 -23t-32 -36.5t-12.5 -48.5h80q1 23 17.5 36t38.5 13q24 0 41.5 -13.5t17.5 -39.5q0 -20 -8.5 -31t-22 -16t-29.5 -6.5t-31 -1.5v-62q18 0 36.5 -2.5 t33.5 -10t24.5 -21.5t9.5 -37q0 -30 -23 -49.5t-52 -19.5q-27 0 -48 17t-26 44h-87q1 -33 16.5 -57.5t38.5 -41t52 -25t59 -8.5q28 0 57 9.5t52 27.5t37.5 43.5t14.5 56.5z" />
<glyph unicode="&#xb4;" horiz-adv-x="460" d="M389 730l-53 107l-265 -150l42 -87z" />
<glyph unicode="&#xb5;" horiz-adv-x="640" d="M623 0v24h-69v510h-191v-24h69v-272q0 -26 -7 -51t-21 -44.5t-35 -31.5t-50 -12q-34 0 -55.5 12t-34 32t-17 46.5t-4.5 55.5v289h-191v-24h69v-705h122v195q17 -8 35.5 -11t37.5 -3q47 0 91 20.5t70 59.5v-66h181z" />
<glyph unicode="&#xb6;" horiz-adv-x="540" d="M541 600v114h-320q-42 0 -79 -11t-65 -33t-44.5 -55.5t-16.5 -79.5q0 -38 14 -70t38 -55.5t56.5 -37.5t69.5 -15v-486h90v729h98v-729h90v729h69z" />
<glyph unicode="&#xb7;" horiz-adv-x="300" d="M213 288v141h-126v-141h126z" />
<glyph unicode="&#xb8;" horiz-adv-x="360" d="M291 -168q0 18 -6.5 36t-18 32.5t-28 23t-35.5 8.5h-10t-10 -1l28 69h-78l-48 -122l60 -25q14 16 34 16q16 0 26.5 -11.5t10.5 -27.5q0 -17 -10 -27t-27 -10q-14 0 -23 8.5t-13 21.5h-74q3 -44 33.5 -73.5t75.5 -29.5q49 0 81 31.5t32 80.5z" />
<glyph unicode="&#xb9;" horiz-adv-x="1000" d="M580 535q-2 -8 -4 -16.5t-2 -17.5q-2 2 -11.5 6t-12.5 4q-8 0 -16 -4t-8 -13q0 -8 4.5 -17t12.5 -13q-4 -4 -8.5 -6.5t-9.5 -5.5l-26 -1q-11 5 -19.5 8t-14 7.5t-8.5 12.5t-3 23q0 7 8 16t19 16.5t22.5 13t19.5 5.5q11 0 30.5 -4.5t26.5 -13.5zM579 311q0 -11 -8 -15 t-16 -6q1 16 8 36h16v-15zM547 325q-6 -8 -6.5 -17.5t-2.5 -19.5q-5 0 -9 1t-8 1q2 9 3.5 18.5t3.5 18.5q5 -1 9 -1q5 0 10 -1zM512 327q-3 -9 -4.5 -18.5t-2.5 -18.5h-15q1 9 1.5 18.5t-1.5 18.5h22zM475 293h-32l5 36q7 0 13.5 -1t13.5 1v-36zM434 330q-5 -15 -7 -35 l-8 -1q-11 0 -21 3q2 20 7 36q7 0 14.5 -0.5t14.5 -2.5zM389 331q-4 -5 -5 -12t-1 -13v-4l-10 -1q-14 0 -18.5 8.5t-9.5 20.5l8 1h36zM717 416q-13 -23 -43 -36t-56 -13q-7 0 -8.5 -5t-1.5 -11q0 -3 -2.5 -17.5t-6 -33.5t-7.5 -41t-7.5 -40.5t-6.5 -31t-3 -13.5v-6l-14 -32 l-14 -32l-3 -2q-5 3 -16 9.5t-23 14t-22 14.5t-12 11q-22 35 -50 65t-50 68q8 0 14.5 -1.5t14.5 -1.5l9 -4l5 2q35 -2 69 -3.5t69 -3.5q19 -1 31 14t12 32q0 5 -0.5 14t-7.5 9q-63 2 -125 4.5t-125 2.5q-7 11 -14.5 25t-15.5 22q-8 10 -20.5 16t-22.5 14q-17 17 -37 33.5 t-45 22.5v10l2 2q2 8 5 16.5t3 16.5v4q4 21 19.5 40.5t36 36t43 30.5t40.5 24l7 -2l5 6q13 2 26 2.5t27 -1.5q6 4 22 3.5t24 -0.5q29 0 51 -14t40 -34v-1l2 1q8 -9 17 -17q-12 -2 -31 -5.5t-37 -10.5t-31.5 -17.5t-13.5 -26.5l7 -8l6 3q7 16 19.5 24.5t27.5 13t31.5 7 t31.5 7.5q6 -8 9 -17t8 -17l-8 1l-3 4q-24 8 -50 8q-6 0 -18 -6.5t-24.5 -15.5t-22.5 -18t-11 -14q-2 -8 -2.5 -16.5t-0.5 -16.5q0 -9 9 -21t17 -15l3 -3q14 -3 28 -9h27q6 0 17 6t21.5 14.5t18.5 18t9 15.5q2 -4 3.5 -11.5t3.5 -15.5t4 -14t6 -6h6q0 2 1 5t1 5q0 6 -1 11.5 t-2 11.5h73q8 -4 16.5 -7.5t16.5 -8.5v-43zM24 -240h958q6 0 10 6q8 1 9 1t6 4q-22 13 -40.5 30t-36.5 35t-37 35.5t-40 32.5q-42 29 -82 61.5t-82 61.5q-14 8 -28 14t-28 13q-5 2 -13.5 8t-18 12t-18.5 11t-13 5l-11 6q16 27 29.5 63.5t13.5 68.5q0 4 3.5 23t7.5 40.5 t8 39.5t5 20q9 1 18.5 1.5t17.5 2.5l4 4q16 6 27.5 10t23.5 18v-87h-35v-10h128v10h-33v137l102 -137h-31v-10h134v10h-28l-118 151l112 143h27v10h-129v-10h28l-97 -132v132h33v10h-128v-10h35v-115q-24 14 -53 13t-55 -1q-4 5 -4 11q0 7 -2 14q-2 8 -1 15t0 14 q-2 6 -4.5 11t-4.5 10q14 8 27 8l6 3q10 3 19.5 3.5t20.5 2.5l9 7v6l-2 2q-3 0 -6 0.5t-6 0.5q-18 0 -36.5 -5t-35.5 -13q-11 11 -16 22t-19 21q5 3 14.5 9t15.5 7q9 5 23.5 13t20.5 16l-2 7l-6 2q-20 -7 -39.5 -19t-39.5 -23q-3 0 -7 5t-9.5 11.5t-13.5 12.5t-19 8l-3 3 l-10 3q3 3 11 10.5t16.5 16l15.5 15.5t7 9q-2 2 -4.5 3.5t-4.5 3.5q-17 -13 -31.5 -26t-27.5 -29q-14 2 -28.5 3t-28.5 1q3 25 0 49h-10q-2 -5 -2.5 -10t-0.5 -10v-16t-4 -16q-12 0 -24.5 -1.5t-24.5 -1.5q-5 0 -10.5 6t-11 13t-11 13t-8.5 6l-7 -4v-8l28 -34 q-16 -9 -31 -17.5t-29 -19.5q-3 3 -7.5 10t-9 13.5t-9 12t-7.5 5.5q-4 0 -6 -2l-2 -6l26 -45q-11 -10 -21.5 -19.5t-21.5 -17.5q-3 3 -10 6.5l-15 7.5t-16 7t-12 5q-4 0 -6 -2l-4 -4q2 -7 9 -11t15.5 -7t16.5 -6.5t13 -8.5q-3 -4 -7 -16t-7.5 -26t-6.5 -27.5t-5 -19.5 q-36 5 -70.5 12t-72.5 5l-9 5q-11 0 -11 -11v-738h22v3zM533 620q-2 0 -2 -2zM684 434q0 8 -8.5 18.5t-16.5 10.5q-6 0 -14 -5t-8 -12l6 -11h1q4 0 7.5 5t5.5 7q4 -2 6.5 -6t4.5 -8l-6 -10q-9 -6 -18 -8t-9 -18q0 -4 2 -9t7 -5l4 2h2l1 13q6 6 15 9q6 1 12 11.5t6 15.5z M378 574q0 7 -7.5 12t-17 8t-19.5 4.5t-14 1.5q-7 0 -17 -0.5t-19.5 -2t-18 -5.5t-12.5 -10l6 -10q14 5 25 8t25 3q19 0 33 -2t28 -17l6 2q2 4 2 8zM384 516q0 10 -5.5 19.5t-13.5 17t-18.5 12.5t-19.5 5l-4 -3q-12 0 -24 -4.5t-21.5 -13t-16 -19.5t-6.5 -23q0 -11 4.5 -23 t12.5 -22t18.5 -16.5t22.5 -6.5h16q22 10 38.5 30.5t16.5 46.5zM357 483q-11 -11 -16 -15.5t-19 -11.5q-20 0 -35.5 14.5t-15.5 34.5q0 11 6 19t15 14t19.5 10t19.5 7q5 0 13.5 -7t12.5 -12q-9 -4 -19 -9t-10 -18l10 -17q7 -2 12 -8z" />
<glyph unicode="&#xba;" horiz-adv-x="360" d="M350 569q0 34 -13.5 63.5t-36 52t-52.5 35.5t-64 13q-35 0 -65.5 -13t-53.5 -35.5t-36 -52.5t-13 -65q0 -34 13 -64.5t35.5 -53.5t52.5 -36.5t65 -13.5t65.5 13.5t53.5 36.5t36 54t13 66zM271 566q0 -37 -26 -63t-63 -26q-18 0 -34 7.5t-28 19.5t-18.5 28.5t-6.5 34.5 t7 34t19.5 28t28.5 19t34 7t34 -7t27.5 -19.5t18.5 -28.5t7 -34z" />
<glyph unicode="&#xbb;" horiz-adv-x="360" d="M325 220v95l-124 142l-5 -115l63 -79l-63 -78l5 -108zM163 220v91l-121 144l-6 -119l61 -74l-61 -74l6 -106z" />
<glyph unicode="&#xbc;" horiz-adv-x="870" d="M830 114v62h-70v252h-99l-200 -252v-62h214v-96h-54v-18h193v18h-54v96h70zM611 714h-98l-322 -714h100zM265 286v18h-55v410h-154v-18h68v-392h-54v-18h195zM675 176h-120l120 155v-155z" />
<glyph unicode="&#xbd;" horiz-adv-x="870" d="M831 300q0 31 -12.5 56.5t-33.5 44t-48 29t-57 10.5q-33 0 -62 -11t-50.5 -30.5t-34 -47.5t-12.5 -62h84q-2 31 19 51.5t51 20.5q26 0 48.5 -16.5t22.5 -45.5q0 -26 -19 -45.5t-37 -35.5l-167 -149v-69h305v114h-26v-45h-169q22 18 55.5 43.5t65 55.5t54.5 63.5t23 68.5z M621 714h-98l-322 -714h100zM276 286v18h-55v410h-154v-18h68v-392h-54v-18h195z" />
<glyph unicode="&#xbe;" horiz-adv-x="870" d="M850 114v62h-70v252h-99l-200 -252v-62h214v-86h-54v-28h193v28h-54v86h70zM646 714h-98l-322 -714h100zM337 422q0 38 -22.5 68.5t-57.5 42.5q26 11 40 36t14 52t-12 48t-31 35t-43.5 21.5t-48.5 7.5q-25 0 -49.5 -8t-44 -23t-32 -36.5t-12.5 -48.5h80q1 23 17.5 36 t38.5 13q24 0 41.5 -13.5t17.5 -39.5q0 -20 -8.5 -31t-22 -16t-29.5 -6.5t-31 -1.5v-62q18 0 36.5 -2.5t33.5 -10t24.5 -21.5t9.5 -37q0 -30 -23 -49.5t-52 -19.5q-27 0 -48 17t-26 44h-87q1 -33 16.5 -57.5t38.5 -41t52 -25t59 -8.5q28 0 57 9.5t52 27.5t37.5 43.5 t14.5 56.5zM695 176h-120l120 155v-155z" />
<glyph unicode="&#xbf;" horiz-adv-x="540" d="M36 43q0 -47 19 -89.5t51 -74.5t74.5 -51t89.5 -19q51 0 95 19.5t76.5 52.5t51 77.5t17.5 95.5h-129q0 -24 -8 -44.5t-22.5 -36.5t-34.5 -25t-45 -9q-21 0 -40 9t-33.5 23.5t-22.5 34t-8 40.5q0 26 12.5 46.5t31 39.5t40 39t40 44t31 55t12.5 72h-26q-5 -35 -27.5 -59.5 t-52.5 -43.5t-64 -36.5t-62.5 -39t-47 -50t-18.5 -70.5zM248 542v-141h126v141h-126z" />
<glyph unicode="&#xc0;" horiz-adv-x="780" d="M528 869l-268 144l-49 -108l276 -125zM777 0v24h-76l-250 690h-239v-24h109l-238 -666h-76v-24h291v20h-77l61 187h231l42 -187h-79v-20h301zM479 312h-162l71 245h1z" />
<glyph unicode="&#xc1;" horiz-adv-x="780" d="M529 910l-53 107l-265 -150l42 -87zM777 0v24h-76l-250 690h-239v-24h109l-238 -666h-76v-24h291v20h-77l61 187h231l42 -187h-79v-20h301zM479 312h-162l71 245h1z" />
<glyph unicode="&#xc2;" horiz-adv-x="780" d="M591 811l-173 168h-84l-173 -168h138l77 75l77 -75h138zM777 0v24h-76l-250 690h-239v-24h109l-238 -666h-76v-24h291v20h-77l61 187h231l42 -187h-79v-20h301zM479 312h-162l71 245h1z" />
<glyph unicode="&#xc3;" horiz-adv-x="780" d="M565 858l-59 81q-16 -14 -36 -20.5t-41 -6.5q-19 0 -37 4.5t-36 10t-36 10t-37 4.5q-26 0 -53.5 -10t-47.5 -27l64 -90q14 13 30.5 21t36.5 8q18 0 35 -4.5t34.5 -10.5t35 -10.5t35.5 -4.5q32 0 60.5 12.5t51.5 32.5zM777 0v24h-76l-250 690h-239v-24h109l-238 -666h-76 v-24h291v20h-77l61 187h231l42 -187h-79v-20h301zM479 312h-162l71 245h1z" />
<glyph unicode="&#xc4;" horiz-adv-x="780" d="M524 765v129h-122v-129h122zM338 765v129h-122v-129h122zM777 0v24h-76l-250 690h-239v-24h109l-238 -666h-76v-24h291v20h-77l61 187h231l42 -187h-79v-20h301zM479 312h-162l71 245h1z" />
<glyph unicode="&#xc5;" horiz-adv-x="780" d="M496 895q0 24 -9 45.5t-24.5 37.5t-37 25.5t-45.5 9.5t-45.5 -9t-37.5 -24.5t-25.5 -37t-9.5 -45.5q0 -25 9 -46.5t25 -37.5t37.5 -25.5t46.5 -9.5q24 0 45 9.5t37 25t25 37t9 45.5zM777 0v114h-76l-250 600h-239v-114h79l-208 -486h-76v-114h291v100h-77l41 107h251 l42 -107h-79v-100h301zM426 897q0 -20 -13.5 -34.5t-33.5 -14.5q-19 0 -33 13.5t-14 32.5q0 20 13.5 34.5t33.5 14.5q19 0 33 -13.5t14 -32.5zM479 312h-182l91 245h1z" />
<glyph unicode="&#xc6;" horiz-adv-x="980" d="M957 0v156h-26v-126h-291v280h209v103h-209v270h291v-164h26v195h-614v-24h75l-332 -666h-79v-24h289v26h-78l75 184h211v-184h-77v-26h530zM504 310h-150l149 322h1v-322z" />
<glyph unicode="&#xc7;" horiz-adv-x="760" d="M737 235h-27q-19 -30 -48 -53.5t-63.5 -40.5t-71.5 -26t-71 -9q-51 0 -104.5 19t-96.5 53t-70.5 81t-27.5 103q0 50 17.5 93.5t49 75t74.5 49.5t93 18q29 0 58 -7.5t55 -21.5t47.5 -34.5t36.5 -45.5h40v228h-22v-72q-44 45 -101.5 66.5t-119.5 21.5q-76 0 -142.5 -29.5 t-116 -80t-78 -118t-28.5 -142.5q0 -71 24 -134.5t67 -113.5t101 -83t127 -42l-44 -112l60 -25q14 16 34 16q16 0 26.5 -11.5t10.5 -27.5q0 -17 -10 -27t-27 -10q-14 0 -23.5 8.5t-12.5 21.5h-74q3 -44 33.5 -73.5t75.5 -29.5q49 0 81 31.5t32 80.5q0 21 -7 40t-19.5 32.5 t-30 21t-38.5 6.5l-13 -1l23 56q54 4 104.5 24t93 52.5t74.5 76t49 95.5z" />
<glyph unicode="&#xc8;" d="M448 869l-268 144l-49 -108l276 -125zM547 0v216h-26v-97h-289v189h208v106h-208v178h289v-93h26v215h-529v-24h78v-666h-78v-24h529z" />
<glyph unicode="&#xc9;" d="M449 910l-53 107l-265 -150l42 -87zM551 0v216h-26v-97h-289v189h208v106h-208v178h289v-93h26v215h-529v-24h78v-666h-78v-24h529z" />
<glyph unicode="&#xca;" d="M501 811l-173 168h-84l-173 -168h138l77 75l77 -75h138zM547 0v216h-26v-97h-289v189h208v106h-208v178h289v-93h26v215h-529v-24h78v-666h-78v-24h529z" />
<glyph unicode="&#xcb;" d="M444 765v129h-122v-129h122zM258 765v129h-122v-129h122zM547 0v216h-26v-97h-289v189h208v106h-208v178h289v-93h26v215h-529v-24h78v-666h-78v-24h529z" />
<glyph unicode="&#xcc;" horiz-adv-x="340" d="M328 869l-268 144l-49 -108l276 -125zM313 0v24h-77v666h77v24h-291v-24h78v-666h-78v-24h291z" />
<glyph unicode="&#xcd;" horiz-adv-x="340" d="M329 910l-53 107l-265 -150l42 -87zM313 0v24h-77v666h77v24h-291v-24h78v-666h-78v-24h291z" />
<glyph unicode="&#xce;" horiz-adv-x="340" d="M391 811l-173 168h-84l-173 -168h138l77 75l77 -75h138zM313 0v24h-77v666h77v24h-291v-24h78v-666h-78v-24h291z" />
<glyph unicode="&#xcf;" horiz-adv-x="340" d="M324 765v129h-122v-129h122zM138 765v129h-122v-129h122zM313 0v24h-77v666h77v24h-291v-24h78v-666h-78v-24h291z" />
<glyph unicode="&#xd0;" horiz-adv-x="1000" d="M580 505q-2 -8 -4 -16.5t-2 -16.5q-2 2 -11 6t-12 4q-7 0 -15 -4t-8 -13q0 -8 4.5 -16.5t12.5 -12.5q-5 -3 -9 -6t-9 -5l-25 -2q-11 6 -18.5 9t-13 7t-8 11.5t-2.5 22.5q0 7 7.5 15.5t18 16t22 12.5t18.5 5q5 0 13 -1t16 -3.5t15 -5.5t10 -7zM580 289q0 -10 -8 -14 t-16 -6q1 8 3 17t4 17h17v-14zM548 303q-5 -8 -6 -17.5t-3 -18.5q-4 0 -7.5 1t-8.5 1q2 9 3.5 18t3.5 18q5 -1 9 -1.5t9 -0.5zM716 410q0 -16 -10.5 -28.5t-25.5 -21t-32.5 -13t-30.5 -4.5q-7 0 -8.5 -4.5t-1.5 -10.5q0 -5 -5 -32t-10.5 -57t-10 -55t-5.5 -26v-6 q-7 -15 -14 -30.5t-14 -30.5l-2 -2q-5 3 -16 9t-22 13.5t-20.5 14t-11.5 10.5q-21 34 -48.5 63t-47.5 64q7 0 13.5 -1.5t13.5 -1.5l9 -3l5 1l132 -6q18 -1 30 13t12 31q0 5 -1 13.5t-8 8.5q-60 2 -119.5 4.5t-119.5 2.5q-7 11 -14 24t-15 21q-8 9 -20 15t-21 14 q-17 17 -36 32t-43 21v10l2 2q2 8 5 15.5t3 15.5v4q4 21 18.5 39.5t34 34.5t41 29.5t39.5 22.5l6 -2l5 6q13 2 25.5 2.5t25.5 -1.5q3 2 10 2.5t14 0.5h15h12q25 0 45.5 -14.5t35.5 -32.5l2 1q4 -5 7.5 -9t8.5 -7q-11 -2 -29 -6t-35.5 -10.5t-30.5 -16.5t-13 -25l6 -8l7 3 q7 16 19 23.5t26 12t30 7t30 7.5q6 -8 9 -16.5t8 -16.5l-8 2l-4 3q-22 8 -47 8q-6 0 -17.5 -6t-23.5 -14.5t-21.5 -17.5t-10.5 -14q-2 -8 -2.5 -16t-0.5 -16q0 -14 10 -21t18 -16q14 -3 26 -9h26q6 0 16.5 6t20.5 14t17.5 17t8.5 15q3 -4 4.5 -11.5l3 -15t3.5 -13t6 -5.5h6 q0 2 1 5t1 5q0 5 -1 10.5t-2 11.5h70q4 0 16.5 -7.5t16.5 -9.5q3 -11 3 -20zM515 305q-3 -9 -4 -18t-3 -18h-14q1 18 0 36h21zM480 272h-32l5 35q7 0 13.5 -1t13.5 0v-34zM440 308q-3 -8 -4 -17t-3 -17l-7 -1q-5 0 -10.5 0.5t-10.5 1.5q2 9 3 18t4 17h14t14 -2zM396 308 q-3 -5 -4 -11.5t-1 -11.5v-4l-9 -1q-14 0 -18 8t-9 20l7 1zM563 -231v10h-28l-118 151l112 143h17q7 -4 18 -9t16 -10q12 -3 19.5 -9.5t17.5 -12.5q10 -5 20 -8.5t20 -8.5q34 -20 62.5 -46t63.5 -44q27 -14 52 -37.5t48.5 -47.5t44 -44.5t37.5 -27.5q4 -2 7 -2q5 0 9 1t9 1 v3q-27 16 -47 36t-40.5 42t-45.5 44t-62 42q-31 16 -56.5 38.5t-54.5 42.5q-12 8 -25.5 13.5t-27.5 12.5q-5 3 -13.5 8.5t-17.5 11.5t-17 10.5t-12 4.5l-11 6q15 26 28.5 60.5t13.5 65.5q0 4 3 22.5t7 39t7.5 38t4.5 19.5q20 0 35 4l4 3q13 5 25.5 11t22 14.5t15 20 t5.5 28.5q0 25 -13 36t-32 15t-40.5 3t-37.5 -1q-4 5 -4 11q0 7 -2 13q-1 7 0 14t-1 14l-4 10l-4 10q13 8 26 8l5 3q10 2 19.5 2.5t18.5 2.5l9 7v6l-2 2l-11 1q-17 0 -35 -5t-34 -13q-10 11 -15.5 21.5t-18.5 19.5q5 4 14.5 9.5t14.5 6.5q8 5 22 12.5t20 15.5l-1 7l-6 2 q-20 -7 -38.5 -18.5t-37.5 -21.5q-3 0 -7 4.5t-9 10.5t-13 12t-18 8l-3 3l-10 3q3 3 10.5 10t16 15t15 14.5t6.5 8.5l-9 7q-31 -24 -56 -53q-14 3 -27.5 3.5t-27.5 1.5q3 23 0 46h-9q-4 -8 -4 -19v-16q0 -7 -3 -14q-12 -1 -24 -2.5t-24 -1.5q-4 0 -9.5 5.5t-11 12.5 t-10.5 13t-8 6l-6 -4v-7l26 -33q-14 -8 -28.5 -17t-28.5 -19q-3 3 -7 9.5t-8.5 13.5t-9 12t-7.5 5q-2 0 -6 -2l-1 -6l25 -43q-10 -9 -20 -18.5t-21 -17.5q-7 6 -25 13.5t-27 11.5q-3 1 -5 -1l-4 -4q2 -7 8.5 -11t14.5 -7l16 -6t13 -8q-3 -4 -7 -15.5t-7.5 -25t-6.5 -26.5 t-4 -19q-25 3 -51.5 10t-51.5 7q-3 0 -11 0.5t-17 0.5t-16 -2t-7 -7q0 -1 1 -2.5t1 -2.5q17 -2 34.5 -2.5t34.5 -3.5q19 -2 40.5 -7.5t39.5 -5.5h10l3 -3q14 -2 34.5 -15.5t40.5 -31t37 -36t25 -30.5q13 -23 24 -46t26 -45q18 -26 38.5 -49t39.5 -47q3 -3 4.5 -7t5.5 -8 q12 -11 28.5 -20.5t31.5 -18.5h-100v-10h28l-97 -132v132h33v10h-128v-10h35v-294h-35v-10h128v10h-33v137l102 -137h-31v-10h134zM535 586q-2 0 -2 -2zM680 408q0 3 -2.5 7.5t-6 9t-8 7.5t-7.5 3q-6 0 -13.5 -4.5t-7.5 -12.5l5 -10h1q4 0 7.5 5t5.5 7q4 -2 6.5 -5.5 t4.5 -7.5l-7 -10q-8 -6 -16.5 -8t-8.5 -17q0 -4 1.5 -9t6.5 -5l5 2h2v12q3 3 6.5 5.5t7.5 4.5q6 0 12 10.5t6 15.5zM387 542q0 6 -7 11t-16.5 8t-19 4.5t-13.5 1.5q-7 0 -16.5 -0.5t-19 -2.5t-17.5 -5.5t-11 -9.5l5 -9q13 4 23.5 7t24.5 3q18 0 31.5 -2t26.5 -16l7 2 q0 2 1 4t1 4zM392 486q0 9 -5 18.5t-13.5 17t-18 12t-18.5 4.5l-3 -3q-11 0 -23 -4.5t-21.5 -12.5t-15.5 -18t-6 -22q0 -11 4.5 -22.5t12 -21t18 -16t21.5 -6.5h15q21 10 37 29.5t16 44.5zM367 454q-11 -11 -16 -14.5t-19 -11.5q-18 0 -33.5 14t-15.5 34q0 11 6 18.5t15 13 t19 9t18 6.5q5 0 13 -6.5t13 -10.5q-10 -4 -19.5 -9.5t-9.5 -17.5l9 -16q9 -2 12 -8z" />
<glyph unicode="&#xd1;" horiz-adv-x="800" d="M595 858l-59 81q-16 -14 -36 -20.5t-41 -6.5q-19 0 -37 4.5t-36 10t-36 10t-37 4.5q-26 0 -53.5 -10t-47.5 -27l64 -90q14 13 30.5 21t36.5 8q18 0 35 -4.5t34.5 -10.5t35 -10.5t35.5 -4.5q32 0 60.5 12.5t51.5 32.5zM775 690v24h-291v-24h78v-454l-340 478h-200v-24h77 v-666h-77v-24h291v24h-78v446l336 -470h127v690h77z" />
<glyph unicode="&#xd2;" horiz-adv-x="780" d="M548 869l-268 144l-49 -108l276 -125zM769 363q0 76 -29.5 143t-80.5 117.5t-118.5 79.5t-143.5 29q-78 0 -146.5 -29t-120 -80t-81 -119.5t-29.5 -146.5q0 -77 29.5 -145t80.5 -118.5t119 -79.5t145 -29q78 0 146.5 30t119.5 81t80 120t29 147zM629 362q0 -49 -18 -93 t-49.5 -77t-74.5 -52t-93 -19t-92.5 19t-74 52t-49.5 76.5t-18 92.5t18.5 91.5t50.5 74.5t75 50.5t92 18.5q48 0 90.5 -18.5t74 -50.5t50 -74.5t18.5 -90.5z" />
<glyph unicode="&#xd3;" horiz-adv-x="780" d="M549 910l-53 107l-265 -150l42 -87zM769 363q0 76 -29.5 143t-80.5 117.5t-118.5 79.5t-143.5 29q-78 0 -146.5 -29t-120 -80t-81 -119.5t-29.5 -146.5q0 -77 29.5 -145t80.5 -118.5t119 -79.5t145 -29q78 0 146.5 30t119.5 81t80 120t29 147zM629 362q0 -49 -18 -93 t-49.5 -77t-74.5 -52t-93 -19t-92.5 19t-74 52t-49.5 76.5t-18 92.5t18.5 91.5t50.5 74.5t75 50.5t92 18.5q48 0 90.5 -18.5t74 -50.5t50 -74.5t18.5 -90.5z" />
<glyph unicode="&#xd4;" horiz-adv-x="780" d="M601 811l-173 168h-84l-173 -168h138l77 75l77 -75h138zM769 363q0 76 -29.5 143t-80.5 117.5t-118.5 79.5t-143.5 29q-78 0 -146.5 -29t-120 -80t-81 -119.5t-29.5 -146.5q0 -77 29.5 -145t80.5 -118.5t119 -79.5t145 -29q78 0 146.5 30t119.5 81t80 120t29 147z M629 362q0 -49 -18 -93t-49.5 -77t-74.5 -52t-93 -19t-92.5 19t-74 52t-49.5 76.5t-18 92.5t18.5 91.5t50.5 74.5t75 50.5t92 18.5q48 0 90.5 -18.5t74 -50.5t50 -74.5t18.5 -90.5z" />
<glyph unicode="&#xd5;" horiz-adv-x="780" d="M585 858l-59 81q-16 -14 -36 -20.5t-41 -6.5q-19 0 -37 4.5t-36 10t-36 10t-37 4.5q-26 0 -53.5 -10t-47.5 -27l64 -90q14 13 30.5 21t36.5 8q18 0 35 -4.5t34.5 -10.5t35 -10.5t35.5 -4.5q32 0 60.5 12.5t51.5 32.5zM769 363q0 76 -29.5 143t-80.5 117.5t-118.5 79.5 t-143.5 29q-78 0 -146.5 -29t-120 -80t-81 -119.5t-29.5 -146.5q0 -77 29.5 -145t80.5 -118.5t119 -79.5t145 -29q78 0 146.5 30t119.5 81t80 120t29 147zM629 362q0 -49 -18 -93t-49.5 -77t-74.5 -52t-93 -19t-92.5 19t-74 52t-49.5 76.5t-18 92.5t18.5 91.5t50.5 74.5 t75 50.5t92 18.5q48 0 90.5 -18.5t74 -50.5t50 -74.5t18.5 -90.5z" />
<glyph unicode="&#xd6;" horiz-adv-x="780" d="M544 765v129h-122v-129h122zM358 765v129h-122v-129h122zM769 363q0 76 -29.5 143t-80.5 117.5t-118.5 79.5t-143.5 29q-78 0 -146.5 -29t-120 -80t-81 -119.5t-29.5 -146.5q0 -77 29.5 -145t80.5 -118.5t119 -79.5t145 -29q78 0 146.5 30t119.5 81t80 120t29 147z M629 362q0 -49 -18 -93t-49.5 -77t-74.5 -52t-93 -19t-92.5 19t-74 52t-49.5 76.5t-18 92.5t18.5 91.5t50.5 74.5t75 50.5t92 18.5q48 0 90.5 -18.5t74 -50.5t50 -74.5t18.5 -90.5z" />
<glyph unicode="&#xd7;" horiz-adv-x="660" d="M569 184l-174 174l174 174l-65 65l-174 -174l-174 174l-65 -65l174 -174l-174 -174l65 -65l174 174l174 -174z" />
<glyph unicode="&#xd8;" horiz-adv-x="780" d="M765 355q0 152 -101 262l71 87l-76 60l-71 -87q-25 15 -47 25.5t-44.5 17t-47 10t-53.5 3.5q-78 0 -146.5 -29.5t-119 -80t-80 -119t-29.5 -146.5q0 -150 101 -258l-74 -91l75 -60l72 90q48 -26 92 -39.5t100 -13.5q77 0 146 28.5t120.5 78t81.5 117t30 145.5zM627 358 q0 -49 -18 -92t-49.5 -75.5t-74.5 -51t-92 -18.5q-31 0 -55.5 8t-52.5 21l290 356q26 -37 39 -69.5t13 -78.5zM501 567l-288 -354q-26 34 -40 67t-14 77q0 47 17.5 90.5t48.5 77t73 53.5t91 20q33 0 58 -8.5t54 -22.5z" />
<glyph unicode="&#xd9;" horiz-adv-x="700" d="M508 869l-268 144l-49 -108l276 -125zM686 690v24h-278v-24h65v-426q0 -30 -5.5 -57t-19 -47.5t-36.5 -33t-57 -12.5q-35 0 -58 12.5t-36.5 33t-19 47.5t-5.5 57v426h65v24h-278v-24h77v-440q0 -61 16.5 -110t48.5 -83t79.5 -52.5t110.5 -18.5q61 0 108.5 18t79.5 52 t49 82t17 108v444h77z" />
<glyph unicode="&#xda;" horiz-adv-x="700" d="M509 910l-53 107l-265 -150l42 -87zM686 690v24h-278v-24h65v-426q0 -30 -5.5 -57t-19 -47.5t-36.5 -33t-57 -12.5q-35 0 -58 12.5t-36.5 33t-19 47.5t-5.5 57v426h65v24h-278v-24h77v-440q0 -61 16.5 -110t48.5 -83t79.5 -52.5t110.5 -18.5q61 0 108.5 18t79.5 52t49 82 t17 108v444h77z" />
<glyph unicode="&#xdb;" horiz-adv-x="700" d="M571 811l-173 168h-84l-173 -168h138l77 75l77 -75h138zM686 690v24h-278v-24h65v-426q0 -30 -5.5 -57t-19 -47.5t-36.5 -33t-57 -12.5q-35 0 -58 12.5t-36.5 33t-19 47.5t-5.5 57v426h65v24h-278v-24h77v-440q0 -61 16.5 -110t48.5 -83t79.5 -52.5t110.5 -18.5 q61 0 108.5 18t79.5 52t49 82t17 108v444h77z" />
<glyph unicode="&#xdc;" horiz-adv-x="700" d="M514 765v129h-122v-129h122zM328 765v129h-122v-129h122zM686 690v24h-278v-24h65v-426q0 -30 -5.5 -57t-19 -47.5t-36.5 -33t-57 -12.5q-35 0 -58 12.5t-36.5 33t-19 47.5t-5.5 57v426h65v24h-278v-24h77v-440q0 -61 16.5 -110t48.5 -83t79.5 -52.5t110.5 -18.5 q61 0 108.5 18t79.5 52t49 82t17 108v444h77z" />
<glyph unicode="&#xdd;" horiz-adv-x="1000" d="M1007 -232v3q-7 4 -20.5 14.5t-27 23t-23.5 24.5t-10 20q0 3 2 9q-19 11 -38 20.5t-37 21.5q-13 9 -24 19.5t-25 18.5q-32 17 -59 41t-56 44q-14 8 -28 14t-28 13q-5 2 -14 8t-18.5 12t-18 11t-12.5 5l-11 6q16 26 29.5 62.5t13.5 67.5q0 4 3 23.5t7.5 41t8 40t5.5 20.5 q9 1 18.5 1.5t17.5 2.5l4 4q13 5 26 11t23.5 15t16.5 21.5t6 29.5q0 25 -13.5 37t-33.5 16t-42.5 3t-39.5 -1q-4 5 -4 11q0 7 -2 14q-2 8 -1 15t0 14q-2 6 -4.5 11t-4.5 10q14 8 27 8l6 3q10 2 19.5 3t20.5 3l9 7v6l-2 2q-3 0 -6 0.5t-6 0.5q-18 0 -36.5 -5t-35.5 -13 q-11 11 -16 22t-19 21q5 3 14.5 9t15.5 7q9 5 23.5 13t20.5 16l-2 7l-6 2q-20 -7 -39.5 -19t-39.5 -23q-3 0 -7 5t-9.5 11.5t-13.5 12.5t-19 8l-3 3l-10 3l11 11t16.5 16t15.5 15t7 9q-2 2 -4.5 3.5t-4.5 3.5q-17 -13 -31.5 -26t-27.5 -29q-14 2 -28.5 3t-28.5 1q3 25 0 49 h-10q-2 -5 -2.5 -10t-0.5 -10v-16t-4 -16q-12 0 -24.5 -1.5t-24.5 -1.5q-5 0 -10.5 6t-11 13t-11 13t-8.5 6l-7 -4v-8l28 -34q-16 -9 -31 -17.5t-29 -19.5q-3 3 -7.5 10t-9 13.5t-9 12t-7.5 5.5q-4 0 -6 -2l-2 -6l26 -45q-11 -10 -21.5 -19.5t-21.5 -17.5q-3 3 -10 6.5 l-15 7.5t-16 7t-12 5q-4 0 -6 -2l-4 -4q2 -7 9 -11t15.5 -7t16.5 -6t13 -9q-3 -4 -7 -16t-7.5 -26t-6.5 -27.5t-5 -19.5q-26 3 -53.5 10t-53.5 7q-3 0 -11.5 0.5t-18.5 0.5q-9 0 -16 -2t-7 -7q0 -1 1 -2.5t1 -3.5q18 -2 36.5 -2.5t35.5 -2.5q20 -3 42 -8.5t41 -5.5h10l4 -3 q15 -3 36 -16.5t42 -32t38.5 -37.5t25.5 -32q14 -23 25.5 -47.5t27.5 -47.5q18 -27 39.5 -50.5t41.5 -48.5q3 -4 4.5 -8t5.5 -8q9 -8 27.5 -19t37.5 -21t34.5 -18.5t18.5 -12.5q12 -3 20 -10t19 -13q10 -5 20.5 -8.5t20.5 -9.5q35 -21 65.5 -47.5t66.5 -46.5 q22 -11 40 -27.5t41 -27.5q11 -5 19.5 -11.5t18.5 -12.5q1 -8 10.5 -22t21.5 -28.5t24.5 -25t20.5 -10.5q5 0 9.5 1t9.5 1zM580 535q-2 -8 -4 -16.5t-2 -17.5q-2 2 -11.5 6t-12.5 4q-8 0 -16 -4t-8 -13q0 -8 4.5 -17t12.5 -13q-4 -4 -8.5 -6.5t-9.5 -5.5l-26 -1 q-11 5 -19.5 8t-14 7.5t-8.5 12.5t-3 23q0 7 8 16t19 16.5t22.5 13t19.5 5.5q11 0 30.5 -4.5t26.5 -13.5zM579 311q0 -11 -8 -15t-16 -6q1 16 8 36h16v-15zM547 325q-6 -8 -6.5 -17.5t-2.5 -19.5q-5 0 -9 1t-8 1q2 9 3.5 18.5t3.5 18.5q5 -1 9 -1q5 0 10 -1zM722 437 q0 -17 -11 -30t-26.5 -22t-33.5 -13.5t-32 -4.5q-4 0 -8.5 -13t-8 -33t-7.5 -44t-7.5 -45.5t-6.5 -37.5t-6 -20v-6l-14 -32l-14 -32l-3 -2q-5 3 -16 9.5t-23 14t-22 14.5t-12 11q-22 35 -50 65t-50 68q8 0 14.5 -1.5t14.5 -1.5l9 -4l5 2q35 -2 69 -3.5t69 -3.5q19 -1 31 14 t12 32q0 5 -0.5 14t-7.5 9q-63 2 -125 4.5t-125 2.5q-7 11 -14.5 25t-15.5 22q-8 10 -20.5 16t-22.5 14q-17 17 -37 33.5t-45 22.5v10l2 2q2 8 5 16.5t3 16.5v4q4 21 19.5 40.5t36 36t43 30.5t40.5 24l7 -2l5 6q13 2 26 2.5t27 -1.5q6 4 22 3.5t24 -0.5q29 0 51 -14t40 -34 l-2 -3l4 3q8 -9 17 -17q-12 -2 -31 -5.5t-37 -10.5t-31.5 -17.5t-13.5 -26.5l7 -8l6 3q7 16 19.5 24.5t27.5 13t31.5 7t31.5 7.5q6 -8 9 -17t8 -17l-8 1l-3 4q-24 8 -50 8q-6 0 -18 -6.5t-24.5 -15.5t-22.5 -18t-11 -14q-2 -8 -2.5 -16.5t-0.5 -16.5q0 -9 9 -21t17 -15l3 -3 q14 -3 28 -9h27q6 0 17 6t21.5 14.5t18.5 18t9 15.5q2 -4 3.5 -11.5t3.5 -15.5t4 -14t6 -6h6q0 2 1 5t1 5q0 6 -1 11.5t-2 11.5h73q5 0 17.5 -7.5l17.5 -10.5q3 -9 3 -20zM512 327q-3 -9 -4.5 -18.5t-2.5 -18.5h-15q1 9 1.5 18.5t-1.5 18.5h22zM475 293h-32l5 36 q7 0 13.5 -1t13.5 1v-36zM434 330q-5 -15 -7 -35l-8 -1q-11 0 -21 3q2 20 7 36q7 0 14.5 -0.5t14.5 -2.5zM389 331q-4 -5 -5 -12t-1 -13v-4l-10 -1q-14 0 -18.5 8.5t-9.5 20.5l8 1h36zM684 434q0 8 -8.5 18.5t-16.5 10.5q-6 0 -14 -5t-8 -12l6 -11h1q4 0 7.5 5t5.5 7 q4 -2 6.5 -6t4.5 -8l-6 -10q-9 -6 -18 -8t-9 -18q0 -4 2 -9t7 -5q0 2 2 2h4l1 13q6 6 15 9q6 1 12 11.5t6 15.5zM378 574q0 7 -7.5 12t-17 8t-19.5 4.5t-14 1.5q-7 0 -17 -0.5t-19.5 -2t-18 -5.5t-12.5 -10l6 -10q14 5 25 8t25 3q19 0 33 -2t28 -17l6 2q2 4 2 8zM384 516 q0 10 -5.5 19.5t-13.5 17t-18.5 12.5t-19.5 5l-4 -3q-12 0 -24 -4.5t-21.5 -13t-16 -19.5t-6.5 -23q0 -11 4.5 -23t12.5 -22t18.5 -16.5t22.5 -6.5h16q22 10 38.5 30.5t16.5 46.5zM357 483q-11 -11 -16 -15.5t-19 -11.5q-20 0 -35.5 14.5t-15.5 34.5q0 11 6 19t15 14 t19.5 10t19.5 7q5 0 13.5 -7t12.5 -12q-9 -4 -19 -9t-10 -18l10 -17q7 -2 12 -8z" />
<glyph unicode="&#xde;" horiz-adv-x="1000" d="M5 -232l1 3q7 4 20 14.5t26.5 23t23.5 24.5t10 20q0 6 -1 9q18 11 37.5 20.5t36.5 21.5q13 9 24 19.5t25 18.5q32 17 59 41t57 44q13 8 27.5 14t28.5 13q5 2 13.5 8t18 12t18 11t13.5 5l11 6q-16 26 -30 62.5t-14 67.5q0 4 -3 23.5t-7 41t-8 40t-5 20.5q-10 1 -19 1.5 t-18 2.5l-3 4q-14 5 -27 11t-23 15t-16 21.5t-6 29.5q0 25 13.5 37t33.5 16t42.5 3t39.5 -1q4 5 4 11q0 7 1 14q2 8 1 15t1 14q2 6 4 11l4 10q-13 8 -27 8l-5 3q-10 2 -20 3t-20 3l-9 7v6l2 2q3 0 6 0.5t5 0.5q18 0 37 -5t35 -13q11 11 16.5 22t19.5 21l-15 9t-15 7 q-9 5 -23.5 13t-21.5 16l2 7l6 2q20 -7 40 -19t39 -23q3 0 7 5t10 11.5t13.5 12.5t18.5 8l4 3l10 3q-3 3 -11.5 11l-17 16t-15.5 15t-7 9q4 4 10 7q17 -13 31 -26t28 -29q14 2 28 3t28 1q-1 13 -1 25t2 24h9q4 -8 4 -20v-16t3 -16q13 0 25.5 -1.5t24.5 -1.5q4 0 10 6 t11.5 13t11 13t8.5 6l7 -4v-8l-28 -34q15 -9 30.5 -17.5t29.5 -19.5q3 3 7.5 10t9 13.5t8.5 12t8 5.5q2 0 6 -2l2 -6l-26 -45q10 -10 20.5 -19.5t21.5 -17.5q7 6 25.5 14t28.5 12q3 0 5 -2l4 -4q-2 -7 -8.5 -11t-15 -7t-16.5 -6t-13 -9q3 -4 7 -16t7.5 -26t6 -27.5 t4.5 -19.5q26 3 54 10t54 7q3 0 11.5 0.5t17.5 0.5t16 -2t7 -7q0 -2 -2 -6q-17 -2 -35.5 -2.5t-35.5 -2.5q-20 -3 -42.5 -8.5t-41.5 -5.5h-10l-3 -3q-15 -3 -36.5 -16.5t-42.5 -32t-38.5 -37.5t-25.5 -32q-14 -23 -25 -47.5t-27 -47.5q-19 -27 -40 -50.5t-41 -48.5 q-3 -4 -5 -8t-5 -8q-9 -8 -27.5 -19t-37.5 -21t-34.5 -18.5t-18.5 -12.5q-13 -3 -20.5 -10t-18.5 -13q-10 -5 -20.5 -8.5t-20.5 -9.5q-35 -21 -65.5 -47.5t-66.5 -46.5q-23 -11 -41 -27.5t-41 -27.5q-10 -5 -19 -11.5t-18 -12.5q-1 -8 -10.5 -22t-22 -28.5t-25 -25 t-20.5 -10.5q-5 0 -9.5 1t-9.5 1zM433 535q2 -8 4 -16.5t2 -17.5q2 2 11.5 6t11.5 4q8 0 16.5 -4t8.5 -13q0 -8 -5 -17t-13 -13q5 -4 9.5 -6.5t9.5 -5.5l26 -1q11 5 19 8t13.5 7.5t8.5 12.5t3 23q0 7 -8 16t-19 16.5t-23 13t-19 5.5q-5 0 -13.5 -1t-17 -3.5t-15.5 -6 t-10 -7.5zM433 311q0 -11 8.5 -15t16.5 -6q-1 9 -3.5 18t-4.5 18h-17v-15zM466 325q6 -8 6.5 -17.5t2.5 -19.5q5 0 8.5 1t8.5 1q-2 9 -4 18.5t-3 18.5q-5 -1 -10 -1q-4 0 -9 -1zM291 437q0 -17 11 -30t26.5 -22t33.5 -13.5t32 -4.5q4 0 8 -13t8 -33t7.5 -44t7 -45.5 t6.5 -37.5t6 -20v-6q16 -33 29 -64l2 -2q5 3 16.5 9.5t23.5 14t22 14.5t12 11q10 18 23 34t26.5 31.5t26 32t23.5 35.5q-7 0 -14 -1.5t-14 -1.5l-9 -4l-5 2q-35 -2 -69 -3.5t-69 -3.5q-19 -1 -31.5 14t-12.5 32q0 5 1 14t8 9q63 2 124.5 4.5t124.5 2.5q8 11 15.5 25t15.5 22 q8 10 20.5 16t21.5 14q18 17 38 33.5t44 22.5v10l-2 2q-2 8 -5 16.5t-3 16.5l1 4q-5 21 -20.5 40.5t-35.5 36t-42.5 30.5t-40.5 24l-7 -2l-5 6q-14 2 -27 2.5t-26 -1.5q-7 4 -22.5 3.5t-23.5 -0.5q-29 0 -51 -14t-41 -34l3 -3l-5 3q-4 -5 -7.5 -9t-8.5 -8q12 -2 31 -5.5 t37 -10.5t31.5 -17.5t13.5 -26.5l-7 -8l-7 3q-7 16 -19.5 24.5t-27.5 13t-31 7t-31 7.5q-7 -8 -10 -17t-8 -17l8 1l4 4q11 4 24.5 6t25.5 2q6 0 18 -6.5t24.5 -15.5t22 -18t11.5 -14q3 -17 3 -33q0 -9 -9 -21t-17 -15l-4 -3q-14 -3 -27 -9h-27q-6 0 -17 6t-21.5 14.5 t-18.5 18t-9 15.5q-3 -4 -4.5 -11.5t-3 -15.5t-3.5 -14t-6 -6h-6q-1 2 -2 5t-1 5q0 6 1.5 11.5t2.5 11.5h-74q-4 0 -16.5 -7.5l-17.5 -10.5q-3 -9 -3 -20zM501 327q2 -9 3.5 -18.5t3.5 -18.5h14q-2 18 0 37h-21zM537 293h33l-5 36q-7 0 -14 -1t-14 1v-36zM579 330 q3 -8 4 -17t3 -18l7 -1q11 0 22 3q-2 9 -3 18t-4 18q-8 0 -15 -0.5t-14 -2.5zM624 331q7 -12 5 -25v-4l10 -1q15 0 19 8.5t9 20.5l-7 1h-36zM329 434q0 8 8 18.5t16 10.5q7 0 15 -5t8 -12l-6 -11h-1q-5 0 -8 5t-5 7q-4 -2 -7 -6t-5 -8l7 -10q9 -6 17.5 -8t8.5 -18 q0 -4 -1.5 -9t-6.5 -5q0 2 -3 2h-4l-1 13q-4 5 -14 9q-6 1 -12 11.5t-6 15.5zM634 574q0 7 7.5 12t17.5 8t19.5 4.5t13.5 1.5q7 0 17 -0.5t20 -2t18.5 -5.5t11.5 -10l-6 -10q-13 5 -24 8t-25 3q-19 0 -33.5 -2t-27.5 -17l-7 2q0 2 -1 4t-1 4zM629 516q0 20 18.5 37t38.5 17 l3 -3q12 0 24 -4.5t21.5 -13t16 -19.5t6.5 -23q0 -11 -4.5 -23t-12.5 -22t-18.5 -16.5t-22.5 -6.5h-15q-23 10 -39 30.5t-16 46.5zM655 483q11 -11 16 -15.5t20 -11.5q20 0 35.5 14.5t15.5 34.5q0 11 -6 19t-15 14t-19.5 10t-19.5 7q-6 0 -14 -7t-13 -12q10 -4 20 -9t10 -18 l-10 -17q-9 -2 -12 -8z" />
<glyph unicode="&#xdf;" horiz-adv-x="600" d="M581 197q0 36 -10 68t-29 57.5t-47.5 42.5t-64.5 23q43 17 64 55.5t21 83.5t-17 82.5t-46 65t-67.5 43t-82.5 15.5q-47 0 -91.5 -24.5t-73.5 -59.5q-34 -40 -44.5 -83.5t-10.5 -94.5v-447h-70v-24h192v466q0 24 4 49.5t15 47t30.5 35t50.5 13.5q19 0 35 -7.5t27.5 -20 t18 -29t6.5 -35.5q0 -26 -9 -44t-24 -29t-35.5 -16t-43.5 -5v-108q30 0 61.5 -3.5t58 -15.5t43.5 -35t17 -61q0 -23 -8.5 -42.5t-23.5 -33.5t-35 -22t-42 -8q-42 0 -78 21v-114q52 -19 102 -19q46 0 84 16.5t65.5 45t42.5 67.5t15 84z" />
<glyph unicode="&#xe0;" horiz-adv-x="660" d="M488 689l-268 144l-49 -108l276 -125zM649 0v24h-67v486h67v24h-191v-76q-28 44 -71.5 67t-94.5 23q-59 0 -110 -22.5t-88.5 -61.5t-59.5 -90.5t-22 -109.5q0 -57 21.5 -107.5t58.5 -88.5t87 -60t107 -22q52 0 97.5 20.5t74.5 65.5v-72h191zM460 270q0 -34 -12.5 -64 t-34.5 -52.5t-52 -35.5t-64 -13q-32 0 -61 12.5t-51 34.5t-34.5 51t-12.5 61q0 33 12.5 63t34 52.5t51 36t63.5 13.5q33 0 62 -12.5t51 -34t35 -50.5t13 -62z" />
<glyph unicode="&#xe1;" horiz-adv-x="660" d="M489 730l-53 107l-265 -150l42 -87zM649 0v24h-67v486h67v24h-191v-76q-28 44 -71.5 67t-94.5 23q-59 0 -110 -22.5t-88.5 -61.5t-59.5 -90.5t-22 -109.5q0 -57 21.5 -107.5t58.5 -88.5t87 -60t107 -22q52 0 97.5 20.5t74.5 65.5v-72h191zM460 270q0 -34 -12.5 -64 t-34.5 -52.5t-52 -35.5t-64 -13q-32 0 -61 12.5t-51 34.5t-34.5 51t-12.5 61q0 33 12.5 63t34 52.5t51 36t63.5 13.5q33 0 62 -12.5t51 -34t35 -50.5t13 -62z" />
<glyph unicode="&#xe2;" horiz-adv-x="660" d="M541 621l-173 168h-84l-173 -168h138l77 75l77 -75h138zM649 0v24h-67v486h67v24h-191v-76q-28 44 -71.5 67t-94.5 23q-59 0 -110 -22.5t-88.5 -61.5t-59.5 -90.5t-22 -109.5q0 -57 21.5 -107.5t58.5 -88.5t87 -60t107 -22q52 0 97.5 20.5t74.5 65.5v-72h191zM460 270 q0 -34 -12.5 -64t-34.5 -52.5t-52 -35.5t-64 -13q-32 0 -61 12.5t-51 34.5t-34.5 51t-12.5 61q0 33 12.5 63t34 52.5t51 36t63.5 13.5q33 0 62 -12.5t51 -34t35 -50.5t13 -62z" />
<glyph unicode="&#xe3;" horiz-adv-x="660" d="M515 678l-59 81q-16 -14 -36 -20.5t-41 -6.5q-19 0 -37 4.5t-36 10t-36 10t-37 4.5q-26 0 -53.5 -10t-47.5 -27l64 -90q14 13 30.5 21t36.5 8q18 0 35 -4.5t34.5 -10.5t35 -10.5t35.5 -4.5q32 0 60.5 12.5t51.5 32.5zM649 0v24h-67v486h67v24h-191v-76q-28 44 -71.5 67 t-94.5 23q-59 0 -110 -22.5t-88.5 -61.5t-59.5 -90.5t-22 -109.5q0 -57 21.5 -107.5t58.5 -88.5t87 -60t107 -22q52 0 97.5 20.5t74.5 65.5v-72h191zM460 270q0 -34 -12.5 -64t-34.5 -52.5t-52 -35.5t-64 -13q-32 0 -61 12.5t-51 34.5t-34.5 51t-12.5 61q0 33 12.5 63 t34 52.5t51 36t63.5 13.5q33 0 62 -12.5t51 -34t35 -50.5t13 -62z" />
<glyph unicode="&#xe4;" horiz-adv-x="660" d="M474 585v129h-122v-129h122zM288 585v129h-122v-129h122zM649 0v24h-67v486h67v24h-191v-76q-28 44 -71.5 67t-94.5 23q-59 0 -110 -22.5t-88.5 -61.5t-59.5 -90.5t-22 -109.5q0 -57 21.5 -107.5t58.5 -88.5t87 -60t107 -22q52 0 97.5 20.5t74.5 65.5v-72h191zM460 270 q0 -34 -12.5 -64t-34.5 -52.5t-52 -35.5t-64 -13q-32 0 -61 12.5t-51 34.5t-34.5 51t-12.5 61q0 33 12.5 63t34 52.5t51 36t63.5 13.5q33 0 62 -12.5t51 -34t35 -50.5t13 -62z" />
<glyph unicode="&#xe5;" horiz-adv-x="660" d="M426 715q0 24 -9 45.5t-24.5 37.5t-37 25.5t-45.5 9.5t-45.5 -9t-37.5 -24.5t-25.5 -37t-9.5 -45.5q0 -25 9 -46.5t25 -37.5t37.5 -25.5t46.5 -9.5q24 0 45 9.5t37 25t25 37t9 45.5zM356 717q0 -20 -13.5 -34.5t-33.5 -14.5q-19 0 -33 13.5t-14 32.5q0 20 13.5 34.5 t33.5 14.5q19 0 33 -13.5t14 -32.5zM649 0v24h-67v486h67v24h-191v-76q-28 44 -71.5 67t-94.5 23q-59 0 -110 -22.5t-88.5 -61.5t-59.5 -90.5t-22 -109.5q0 -57 21.5 -107.5t58.5 -88.5t87 -60t107 -22q52 0 97.5 20.5t74.5 65.5v-72h191zM460 270q0 -34 -12.5 -64 t-34.5 -52.5t-52 -35.5t-64 -13q-32 0 -61 12.5t-51 34.5t-34.5 51t-12.5 61q0 33 12.5 63t34 52.5t51 36t63.5 13.5q33 0 62 -12.5t51 -34t35 -50.5t13 -62z" />
<glyph unicode="&#xe6;" horiz-adv-x="1040" d="M1025 272q0 56 -21.5 106.5t-59 88.5t-87.5 60.5t-106 22.5q-110 0 -172 -91v75h-122v-68q-31 40 -75 62t-95 22q-56 0 -105.5 -22.5t-87 -61t-59.5 -88.5t-22 -105q0 -59 22 -111.5t60.5 -91.5t90 -61.5t111.5 -22.5q51 0 93 25.5t67 70.5v-82h122v80q26 -43 70.5 -68.5 t95.5 -25.5q43 0 82.5 12.5t73.5 35.5t60.5 55t43.5 71h-31q-31 -32 -77.5 -48.5t-90.5 -16.5q-29 0 -64.5 8t-67.5 24.5t-56 41t-30 57.5h434q2 11 2.5 23t0.5 23zM469 273q0 -36 -13 -67t-36 -53.5t-54 -35t-67 -12.5q-35 0 -65 13.5t-52 37t-34.5 54t-12.5 64.5 q0 33 14 62t37 51.5t53 35.5t62 13q33 0 63 -13t53.5 -35t37.5 -52t14 -63zM915 255h-324q0 35 10 68.5t29.5 59.5t48.5 42t68 16t70 -15.5t52.5 -41t33.5 -59t12 -70.5z" />
<glyph unicode="&#xe7;" d="M559 180h-136q-17 -35 -53.5 -54.5t-74.5 -19.5q-34 0 -63.5 12.5t-51 34t-34 51t-12.5 63.5q0 46 16 77.5t43 50.5t63 27t76 8q21 0 46 -4.5t49 -13.5t44.5 -23t33.5 -33h34v178h-25v-51q-15 16 -45 29t-64.5 21t-68 12.5t-55.5 4.5q-57 0 -106 -23.5t-85.5 -62.5 t-57 -90.5t-20.5 -106.5q0 -52 18 -98.5t49.5 -83.5t75 -61.5t94.5 -32.5l-44 -113l60 -25q14 16 34 16q17 0 27 -11.5t10 -27.5q0 -17 -10 -27t-27 -10q-14 0 -23 8.5t-13 21.5h-74q3 -44 33.5 -73.5t75.5 -29.5q49 0 81 31.5t32 80.5q0 17 -6 34.5t-17 32t-26.5 24 t-33.5 9.5h-13t-12 -1l24 58q39 4 76 20.5t68 41.5t54 58t34 71z" />
<glyph unicode="&#xe8;" d="M438 689l-268 144l-49 -108l276 -125zM563 264q0 59 -20.5 111t-57 91t-87 61.5t-110.5 22.5t-110.5 -22.5t-88 -61t-58.5 -90.5t-21 -111t22 -110t60 -88.5t89 -59t110 -21.5q41 0 79.5 12.5t71.5 35t59 54t42 69.5h-27q-13 -19 -33 -31.5t-43 -19.5t-47.5 -10t-45.5 -3 q-29 0 -64.5 8t-67.5 23.5t-56.5 39.5t-31.5 57h432q1 11 2.5 21.5t1.5 21.5zM450 255h-324q0 35 9.5 68.5t29 59.5t49 42t68.5 16t70 -15.5t52.5 -41t33.5 -59t12 -70.5z" />
<glyph unicode="&#xe9;" d="M449 730l-53 107l-265 -150l42 -87zM563 264q0 59 -20.5 111t-57 91t-87 61.5t-110.5 22.5t-110.5 -22.5t-88 -61t-58.5 -90.5t-21 -111t22 -110t60 -88.5t89 -59t110 -21.5q41 0 79.5 12.5t71.5 35t59 54t42 69.5h-27q-13 -19 -33 -31.5t-43 -19.5t-47.5 -10t-45.5 -3 q-29 0 -64.5 8t-67.5 23.5t-56.5 39.5t-31.5 57h432q1 11 2.5 21.5t1.5 21.5zM450 255h-324q0 35 9.5 68.5t29 59.5t49 42t68.5 16t70 -15.5t52.5 -41t33.5 -59t12 -70.5z" />
<glyph unicode="&#xea;" d="M501 621l-173 168h-84l-173 -168h138l77 75l77 -75h138zM563 264q0 59 -20.5 111t-57 91t-87 61.5t-110.5 22.5t-110.5 -22.5t-88 -61t-58.5 -90.5t-21 -111t22 -110t60 -88.5t89 -59t110 -21.5q41 0 79.5 12.5t71.5 35t59 54t42 69.5h-27q-13 -19 -33 -31.5t-43 -19.5 t-47.5 -10t-45.5 -3q-29 0 -64.5 8t-67.5 23.5t-56.5 39.5t-31.5 57h432q1 11 2.5 21.5t1.5 21.5zM450 255h-324q0 35 9.5 68.5t29 59.5t49 42t68.5 16t70 -15.5t52.5 -41t33.5 -59t12 -70.5z" />
<glyph unicode="&#xeb;" d="M434 585v129h-122v-129h122zM248 585v129h-122v-129h122zM563 264q0 59 -20.5 111t-57 91t-87 61.5t-110.5 22.5t-110.5 -22.5t-88 -61t-58.5 -90.5t-21 -111t22 -110t60 -88.5t89 -59t110 -21.5q41 0 79.5 12.5t71.5 35t59 54t42 69.5h-27q-13 -19 -33 -31.5t-43 -19.5 t-47.5 -10t-45.5 -3q-29 0 -64.5 8t-67.5 23.5t-56.5 39.5t-31.5 57h432q1 11 2.5 21.5t1.5 21.5zM450 255h-324q0 35 9.5 68.5t29 59.5t49 42t68.5 16t70 -15.5t52.5 -41t33.5 -59t12 -70.5z" />
<glyph unicode="&#xec;" horiz-adv-x="300" d="M308 689l-268 144l-49 -108l276 -125zM280 0v24h-69v510h-191v-24h69v-486h-70v-24h261z" />
<glyph unicode="&#xed;" horiz-adv-x="300" d="M309 730l-53 107l-265 -150l42 -87zM280 0v24h-69v510h-191v-24h69v-486h-70v-24h261z" />
<glyph unicode="&#xee;" horiz-adv-x="300" d="M361 621l-173 168h-84l-173 -168h138l77 75l77 -75h138zM280 0v24h-69v510h-191v-24h69v-486h-70v-24h261z" />
<glyph unicode="&#xef;" horiz-adv-x="300" d="M304 585v129h-122v-129h122zM118 585v129h-122v-129h122zM280 0v24h-69v510h-191v-24h69v-486h-70v-24h261z" />
<glyph unicode="&#xf0;" horiz-adv-x="1000" d="M570 456q-5 -2 -8.5 -6t-7.5 -8q-2 5 -5 10.5t-6 10.5l7 4l4 -4q5 1 6.5 0.5t0.5 -5.5l3 2zM580 505q-2 -8 -4 -16.5t-2 -16.5q-2 2 -11 6t-12 4q-7 0 -15 -4t-8 -13q0 -8 4.5 -16.5t12.5 -12.5q-5 -3 -9 -6t-9 -5l-25 -2q-11 6 -18.5 9t-13 7t-8 11.5t-2.5 22.5 q0 7 7.5 15.5t18 16t22 12.5t18.5 5q5 0 13 -1t16 -3.5t15 -5.5t10 -7zM580 289q0 -10 -8 -14t-16 -6q1 8 3 17t4 17h17v-14zM548 303q-5 -8 -6 -17.5t-3 -18.5q-4 0 -7.5 1t-8.5 1q2 9 3.5 18t3.5 18q5 -1 9 -1.5t9 -0.5zM515 305q-3 -9 -4 -18t-3 -18h-14q1 18 0 36h21z M480 272h-32l5 35q7 0 13.5 -1t13.5 0v-34zM440 308q-3 -8 -4 -17t-3 -17l-7 -1q-5 0 -10.5 0.5t-10.5 1.5q2 9 3 18t4 17h14t14 -2zM396 308q-3 -5 -4 -11.5t-1 -11.5v-4l-9 -1q-14 0 -18 8t-9 20l7 1zM315 373q-8 8 -18.5 13t-19.5 13q-17 17 -36 32t-43 21v10l2 2 q2 8 5 15.5t3 15.5v4q4 21 18.5 39.5t34 34.5t41 29.5t39.5 22.5l6 -2l5 6q13 2 25.5 2.5t25.5 -1.5q3 2 10 2.5t14 0.5h15h12q25 0 45.5 -14.5t35.5 -32.5l2 1q4 -5 7.5 -9t8.5 -7q-11 -2 -29 -6t-35.5 -10.5t-30.5 -16.5t-13 -25l6 -8l7 3q7 16 19 23.5t26 12t30 7t30 7.5 q6 -8 9 -16.5t8 -16.5l-8 2l-4 3q-22 8 -47 8q-6 0 -17.5 -6t-23.5 -14.5t-21.5 -17.5t-10.5 -14q-2 -8 -2.5 -16t-0.5 -16q0 -14 10 -21t18 -16q14 -3 26 -9h26q6 0 16.5 6t20.5 14t17.5 17t8.5 15q3 -4 4.5 -11.5l3 -15t3.5 -13t6 -5.5h6q0 2 1 5t1 5q0 5 -1 10.5t-2 11.5 h70q4 0 16.5 -7.5t16.5 -9.5q3 -11 3 -20q0 -16 -10.5 -28.5t-25.5 -21t-32.5 -13t-30.5 -4.5q-7 0 -8.5 -4.5t-1.5 -10.5q0 -5 -5 -32t-10.5 -57t-10 -55t-5.5 -26v-6q-7 -15 -14 -30.5t-14 -30.5l-2 -2q-5 3 -16 9t-22 13.5t-20.5 14t-11.5 10.5q-21 34 -48.5 63t-47.5 64 q7 0 13.5 -1.5t13.5 -1.5l9 -3l5 1l132 -6q18 -1 30 13t12 31q0 5 -1 13.5t-8 8.5q-59 2 -117 4.5t-117 2.5l53 69h27v10h-129v-10h28zM260 394q10 -11 22 -18.5t22 -18.5l-70 -95v132h26zM439 90v10h-28l-118 151l44 56q7 -18 23.5 -44.5t36 -53.5t38.5 -51t32 -36 q9 -8 26.5 -18t35.5 -20t33 -18t18 -12q10 -2 33 -15.5t53.5 -33t64.5 -42.5t66 -45.5t58.5 -40.5t42.5 -28q1 -8 10 -21.5t20.5 -27.5t23.5 -24t20 -10q5 0 9 1t9 1v3q-6 4 -19 13.5t-26 21.5t-22.5 23.5t-9.5 19.5q0 6 1 9q-18 11 -36 20t-35 21q-13 8 -23.5 18t-24.5 18 q-30 17 -56 39t-55 42q-12 8 -25.5 13.5t-27.5 12.5q-5 3 -13.5 8.5t-17.5 11.5t-17 10.5t-12 4.5l-11 6q15 26 28.5 60.5t13.5 64.5q0 4 3 22.5t7 39.5t7.5 38.5t4.5 19.5q20 0 35 4l4 3q13 5 25.5 11t22 14.5t15 20t5.5 28.5q0 25 -13 36t-32 15t-40.5 3t-37.5 -1 q-4 5 -4 11q0 7 -2 13q-1 7 0 14t-1 14l-4 10l-4 10q13 8 26 8l5 3q10 2 19.5 2.5t18.5 2.5l9 7v6l-2 2l-11 1q-17 0 -35 -5t-34 -13q-10 11 -15.5 21.5t-18.5 19.5q5 4 14.5 10t14.5 6q8 5 22 12.5t20 15.5l-1 7l-6 2q-20 -7 -38.5 -18.5t-37.5 -21.5q-3 0 -7 4.5t-9 10.5 t-13 12t-18 8l-3 3l-10 3l10.5 10.5t16 15t15 14t6.5 8.5q-3 4 -9 7q-31 -24 -56 -53q-14 3 -27.5 3.5t-27.5 1.5q3 23 0 46h-9q-4 -8 -4 -19v-16q0 -7 -3 -14q-12 -1 -24 -2.5t-24 -1.5q-4 0 -9.5 5.5t-11 12.5t-10.5 13t-8 6l-6 -4v-7l26 -33q-14 -8 -28.5 -17t-28.5 -19 q-3 3 -7 9.5t-8.5 13.5t-9 12t-7.5 5q-2 0 -6 -2l-1 -6l25 -43q-10 -9 -20 -18.5t-21 -17.5q-7 6 -25 13.5t-27 11.5q-3 1 -5 -1l-4 -4q2 -7 8.5 -11t14.5 -7l16 -6t13 -8q-3 -4 -7 -15.5t-7.5 -25t-6.5 -26.5t-4 -19q-25 3 -51.5 10t-51.5 7q-3 0 -11 0.5t-17 0.5t-16 -2 t-7 -7q0 -1 1 -2.5t1 -2.5q17 -2 34.5 -2.5t34.5 -3.5q19 -2 40.5 -7.5t39.5 -5.5h10l3 -3q17 -3 31.5 -12.5t26.5 -20.5h-111v-10h35v-294h-35v-10h128v10h-33v137l102 -137h-31v-10h134zM535 586q-2 0 -2 -2zM680 408q0 3 -2.5 7.5t-6 9t-8 7.5t-7.5 3q-6 0 -13.5 -4.5 t-7.5 -12.5l5 -10h1q4 0 7.5 5t5.5 7q4 -2 6.5 -5.5t4.5 -7.5l-7 -10q-8 -6 -16.5 -8t-8.5 -17q0 -4 1.5 -9t6.5 -5l5 2h2v12q3 3 6.5 5.5t7.5 4.5q6 0 12 10.5t6 15.5zM387 542q0 6 -7 11t-16.5 8t-19 4.5t-13.5 1.5q-7 0 -16.5 -0.5t-19 -2.5t-17.5 -5.5t-11 -9.5l5 -9 q13 4 23.5 7t24.5 3q18 0 31.5 -2t26.5 -16l7 2q0 2 1 4t1 4zM392 486q0 9 -5 18.5t-13.5 17t-18 12t-18.5 4.5l-3 -3q-11 0 -23 -4.5t-21.5 -12.5t-15.5 -18t-6 -22q0 -11 4.5 -22.5t12 -21t18 -16t21.5 -6.5h15q21 10 37 29.5t16 44.5zM377 484q-2 -5 -3 -10.5t-3 -10.5 q-5 9 -16 16q4 7 14 9l3 4zM367 454q-11 -11 -16 -14.5t-19 -11.5q-18 0 -33.5 14t-15.5 34q0 11 6 18.5t15 13t19 9t18 6.5q5 0 13 -6.5t13 -10.5q-10 -4 -19.5 -9.5t-9.5 -17.5l9 -16q9 -2 12 -8z" />
<glyph unicode="&#xf1;" horiz-adv-x="640" d="M515 678l-59 81q-16 -14 -36 -20.5t-41 -6.5q-19 0 -37 4.5t-36 10t-36 10t-37 4.5q-26 0 -53.5 -10t-47.5 -27l64 -90q14 13 30.5 21t36.5 8q18 0 35 -4.5t34.5 -10.5t35 -10.5t35.5 -4.5q32 0 60.5 12.5t51.5 32.5zM634 0v24h-69v299q0 46 -6.5 83.5t-38.5 73.5 q-29 32 -70 49t-84 17q-49 0 -91.5 -21.5t-66.5 -66.5v76h-191v-24h69v-486h-69v-24h260v24h-69v253q0 31 5.5 58t19 47t37 32t58.5 12q62 0 88.5 -36.5t26.5 -93.5v-272h-69v-24h260z" />
<glyph unicode="&#xf2;" d="M448 689l-268 144l-49 -108l276 -125zM572 270q0 57 -22 108t-59.5 89.5t-88.5 60.5t-108 22q-58 0 -109.5 -22t-89.5 -60.5t-60.5 -89.5t-22.5 -109t22 -109.5t59.5 -90t88.5 -61t109 -22.5q59 0 110 22.5t89 61t60 90t22 110.5zM452 267q0 -33 -12.5 -62.5t-34.5 -51.5 t-51.5 -34.5t-62.5 -12.5q-34 0 -63 13t-50.5 35.5t-33.5 52.5t-12 63t13 62t35 51t51.5 34.5t62.5 12.5t62 -13t50 -35.5t33.5 -52t12.5 -62.5z" />
<glyph unicode="&#xf3;" d="M449 730l-53 107l-265 -150l42 -87zM572 270q0 57 -22 108t-59.5 89.5t-88.5 60.5t-108 22q-58 0 -109.5 -22t-89.5 -60.5t-60.5 -89.5t-22.5 -109t22 -109.5t59.5 -90t88.5 -61t109 -22.5q59 0 110 22.5t89 61t60 90t22 110.5zM452 267q0 -33 -12.5 -62.5t-34.5 -51.5 t-51.5 -34.5t-62.5 -12.5q-34 0 -63 13t-50.5 35.5t-33.5 52.5t-12 63t13 62t35 51t51.5 34.5t62.5 12.5t62 -13t50 -35.5t33.5 -52t12.5 -62.5z" />
<glyph unicode="&#xf4;" d="M511 621l-173 168h-84l-173 -168h138l77 75l77 -75h138zM572 270q0 57 -22 108t-59.5 89.5t-88.5 60.5t-108 22q-58 0 -109.5 -22t-89.5 -60.5t-60.5 -89.5t-22.5 -109t22 -109.5t59.5 -90t88.5 -61t109 -22.5q59 0 110 22.5t89 61t60 90t22 110.5zM452 267 q0 -33 -12.5 -62.5t-34.5 -51.5t-51.5 -34.5t-62.5 -12.5q-34 0 -63 13t-50.5 35.5t-33.5 52.5t-12 63t13 62t35 51t51.5 34.5t62.5 12.5t62 -13t50 -35.5t33.5 -52t12.5 -62.5z" />
<glyph unicode="&#xf5;" d="M485 678l-59 81q-16 -14 -36 -20.5t-41 -6.5q-19 0 -37 4.5t-36 10t-36 10t-37 4.5q-26 0 -53.5 -10t-47.5 -27l64 -90q14 13 30.5 21t36.5 8q18 0 35 -4.5t34.5 -10.5t35 -10.5t35.5 -4.5q32 0 60.5 12.5t51.5 32.5zM572 270q0 57 -22 108t-59.5 89.5t-88.5 60.5 t-108 22q-58 0 -109.5 -22t-89.5 -60.5t-60.5 -89.5t-22.5 -109t22 -109.5t59.5 -90t88.5 -61t109 -22.5q59 0 110 22.5t89 61t60 90t22 110.5zM452 267q0 -33 -12.5 -62.5t-34.5 -51.5t-51.5 -34.5t-62.5 -12.5q-34 0 -63 13t-50.5 35.5t-33.5 52.5t-12 63t13 62t35 51 t51.5 34.5t62.5 12.5t62 -13t50 -35.5t33.5 -52t12.5 -62.5z" />
<glyph unicode="&#xf6;" d="M434 585v129h-122v-129h122zM248 585v129h-122v-129h122zM572 270q0 57 -22 108t-59.5 89.5t-88.5 60.5t-108 22q-58 0 -109.5 -22t-89.5 -60.5t-60.5 -89.5t-22.5 -109t22 -109.5t59.5 -90t88.5 -61t109 -22.5q59 0 110 22.5t89 61t60 90t22 110.5zM452 267 q0 -33 -12.5 -62.5t-34.5 -51.5t-51.5 -34.5t-62.5 -12.5q-34 0 -63 13t-50.5 35.5t-33.5 52.5t-12 63t13 62t35 51t51.5 34.5t62.5 12.5t62 -13t50 -35.5t33.5 -52t12.5 -62.5z" />
<glyph unicode="&#xf7;" horiz-adv-x="660" d="M376 467v109h-92v-109h92zM584 312v92h-508v-92h508zM376 140v109h-92v-109h92z" />
<glyph unicode="&#xf8;" horiz-adv-x="600" d="M581 277q0 54 -21.5 102.5t-58.5 87.5l50 66l-71 54l-50 -68q-30 17 -63.5 24t-67.5 7q-59 0 -111 -22t-91 -60.5t-62 -90.5t-23 -111q0 -54 21 -107.5t62 -89.5l-52 -71l69 -53l53 71q33 -14 65 -22t68 -8q61 0 112.5 23t89.5 62.5t59.5 92.5t21.5 113zM461 267 q0 -35 -12.5 -65t-35 -52t-52.5 -34t-65 -12q-14 0 -27.5 3.5t-26.5 8.5l183 247q16 -20 26 -45t10 -51zM356 418l-185 -250q-17 21 -27.5 47t-10.5 54q0 34 12.5 64t34.5 52t51.5 34.5t63.5 12.5q16 0 31 -4t30 -10z" />
<glyph unicode="&#xf9;" horiz-adv-x="640" d="M468 689l-268 144l-49 -108l276 -125zM619 0v24h-69v510h-191v-24h69v-271q0 -28 -5.5 -53t-19 -44.5t-35 -31t-53.5 -11.5q-33 0 -54.5 12.5t-34 32.5t-17.5 46.5t-5 54.5v289h-191v-24h69v-301q0 -45 12 -85.5t36.5 -71t61 -48.5t85.5 -18q47 0 91 20.5t70 59.5v-66 h181z" />
<glyph unicode="&#xfa;" horiz-adv-x="640" d="M469 730l-53 107l-265 -150l42 -87zM619 0v24h-69v510h-191v-24h69v-271q0 -28 -5.5 -53t-19 -44.5t-35 -31t-53.5 -11.5q-33 0 -54.5 12.5t-34 32.5t-17.5 46.5t-5 54.5v289h-191v-24h69v-301q0 -45 12 -85.5t36.5 -71t61 -48.5t85.5 -18q47 0 91 20.5t70 59.5v-66h181z " />
<glyph unicode="&#xfb;" horiz-adv-x="640" d="M521 621l-173 168h-84l-173 -168h138l77 75l77 -75h138zM619 0v24h-69v510h-191v-24h69v-271q0 -28 -5.5 -53t-19 -44.5t-35 -31t-53.5 -11.5q-33 0 -54.5 12.5t-34 32.5t-17.5 46.5t-5 54.5v289h-191v-24h69v-301q0 -45 12 -85.5t36.5 -71t61 -48.5t85.5 -18 q47 0 91 20.5t70 59.5v-66h181z" />
<glyph unicode="&#xfc;" horiz-adv-x="640" d="M464 585v129h-122v-129h122zM278 585v129h-122v-129h122zM619 0v24h-69v510h-191v-24h69v-271q0 -28 -5.5 -53t-19 -44.5t-35 -31t-53.5 -11.5q-33 0 -54.5 12.5t-34 32.5t-17.5 46.5t-5 54.5v289h-191v-24h69v-301q0 -45 12 -85.5t36.5 -71t61 -48.5t85.5 -18 q47 0 91 20.5t70 59.5v-66h181z" />
<glyph unicode="&#xfd;" horiz-adv-x="1000" d="M5 -232l1 3q7 4 20 14.5t26.5 23t23.5 24.5t10 20q0 6 -1 9q18 11 37.5 20.5t36.5 21.5q13 9 24 19.5t25 18.5q32 17 59 41t57 44q13 8 27.5 14t28.5 13q5 2 13.5 8t18 12t18 11t13.5 5l11 6q-16 26 -30 62.5t-14 67.5q0 4 -3 23.5t-7 41t-8 40t-5 20.5q-10 1 -19 1.5 t-18 2.5l-3 4q-14 5 -27 11t-23 15t-16 21.5t-6 29.5q0 25 13.5 37t33.5 16t42.5 3t39.5 -1q4 5 4 11q0 7 1 14q2 8 1 15t1 14q2 6 4 11l4 10q-13 8 -27 8l-5 3q-10 2 -20 3t-20 3l-9 7v6l2 2q3 0 6 0.5t5 0.5q18 0 37 -5t35 -13q11 11 16.5 22t19.5 21l-15 9t-15 7 q-9 5 -23.5 13t-21.5 16l2 7l6 2q20 -7 40 -19t39 -23q3 0 7 5t10 11.5t13.5 12.5t18.5 8l4 3l10 3q-3 3 -11.5 11l-17 16t-15.5 15t-7 9q4 4 10 7q17 -13 31 -26t28 -29q14 2 28 3t28 1q-1 13 -1 25t2 24h9q4 -8 4 -20v-16t3 -16q13 0 25.5 -1.5t24.5 -1.5q4 0 10 6 t11.5 13t11 13t8.5 6l7 -4v-8l-28 -34q15 -9 30.5 -17.5t29.5 -19.5q3 3 7.5 10t9 13.5t8.5 12t8 5.5q2 0 6 -2l2 -6l-26 -45q10 -10 20.5 -19.5t21.5 -17.5q7 6 25.5 14t28.5 12q3 0 5 -2l4 -4q-2 -7 -8.5 -11t-15 -7t-16.5 -6t-13 -9q3 -4 7 -16t7.5 -26t6 -27.5 t4.5 -19.5q26 3 54 10t54 7q3 0 11.5 0.5t17.5 0.5t16 -2t7 -7q0 -2 -2 -6q-17 -2 -35.5 -2.5t-35.5 -2.5q-20 -3 -42.5 -8.5t-41.5 -5.5h-10l-3 -3q-15 -3 -36.5 -16.5t-42.5 -32t-38.5 -37.5t-25.5 -32q-14 -23 -25 -47.5t-27 -47.5q-19 -27 -40 -50.5t-41 -48.5 q-3 -4 -5 -8t-5 -8q-9 -8 -27.5 -19t-37.5 -21t-34.5 -18.5t-18.5 -12.5q-13 -3 -20.5 -10t-18.5 -13q-10 -5 -20.5 -8.5t-20.5 -9.5q-35 -21 -65.5 -47.5t-66.5 -46.5q-23 -11 -41 -27.5t-41 -27.5q-10 -5 -19 -11.5t-18 -12.5q-1 -8 -10.5 -22t-22 -28.5t-25 -25 t-20.5 -10.5q-5 0 -9.5 1t-9.5 1zM433 535q2 -8 4 -16.5t2 -17.5q2 2 11.5 6t11.5 4q8 0 16.5 -4t8.5 -13q0 -8 -5 -17t-13 -13q5 -4 9.5 -6.5t9.5 -5.5l26 -1q11 5 19 8t13.5 7.5t8.5 12.5t3 23q0 7 -8 16t-19 16.5t-23 13t-19 5.5q-5 0 -13.5 -1t-17 -3.5t-15.5 -6 t-10 -7.5zM433 311q0 -11 8.5 -15t16.5 -6q-1 9 -3.5 18t-4.5 18h-17v-15zM466 325q6 -8 6.5 -17.5t2.5 -19.5q5 0 8.5 1t8.5 1q-2 9 -4 18.5t-3 18.5q-5 -1 -10 -1q-4 0 -9 -1zM291 437q0 -17 11 -30t26.5 -22t33.5 -13.5t32 -4.5q4 0 8 -13t8 -33t7.5 -44t7 -45.5 t6.5 -37.5t6 -20v-6q16 -33 29 -64l2 -2q5 3 16.5 9.5t23.5 14t22 14.5t12 11q10 18 23 34t26.5 31.5t26 32t23.5 35.5q-7 0 -14 -1.5t-14 -1.5l-9 -4l-5 2q-35 -2 -69 -3.5t-69 -3.5q-19 -1 -31.5 14t-12.5 32q0 5 1 14t8 9q63 2 124.5 4.5t124.5 2.5q8 11 15.5 25t15.5 22 q8 10 20.5 16t21.5 14q18 17 38 33.5t44 22.5v10l-2 2q-2 8 -5 16.5t-3 16.5l1 4q-5 21 -20.5 40.5t-35.5 36t-42.5 30.5t-40.5 24l-7 -2l-5 6q-14 2 -27 2.5t-26 -1.5q-7 4 -22.5 3.5t-23.5 -0.5q-29 0 -51 -14t-41 -34l3 -3l-5 3q-4 -5 -7.5 -9t-8.5 -8q12 -2 31 -5.5 t37 -10.5t31.5 -17.5t13.5 -26.5l-7 -8l-7 3q-7 16 -19.5 24.5t-27.5 13t-31 7t-31 7.5q-7 -8 -10 -17t-8 -17l8 1l4 4q11 4 24.5 6t25.5 2q6 0 18 -6.5t24.5 -15.5t22 -18t11.5 -14q3 -17 3 -33q0 -9 -9 -21t-17 -15l-4 -3q-14 -3 -27 -9h-27q-6 0 -17 6t-21.5 14.5 t-18.5 18t-9 15.5q-3 -4 -4.5 -11.5t-3 -15.5t-3.5 -14t-6 -6h-6q-1 2 -2 5t-1 5q0 6 1.5 11.5t2.5 11.5h-74q-4 0 -16.5 -7.5l-17.5 -10.5q-3 -9 -3 -20zM501 327q2 -9 3.5 -18.5t3.5 -18.5h14q-2 18 0 37h-21zM537 293h33l-5 36q-7 0 -14 -1t-14 1v-36zM579 330 q3 -8 4 -17t3 -18l7 -1q11 0 22 3q-2 9 -3 18t-4 18q-8 0 -15 -0.5t-14 -2.5zM624 331q7 -12 5 -25v-4l10 -1q15 0 19 8.5t9 20.5l-7 1h-36zM329 434q0 8 8 18.5t16 10.5q7 0 15 -5t8 -12l-6 -11h-1q-5 0 -8 5t-5 7q-4 -2 -7 -6t-5 -8l7 -10q9 -6 17.5 -8t8.5 -18 q0 -4 -1.5 -9t-6.5 -5q0 2 -3 2h-4l-1 13q-4 5 -14 9q-6 1 -12 11.5t-6 15.5zM634 574q0 7 7.5 12t17.5 8t19.5 4.5t13.5 1.5q7 0 17 -0.5t20 -2t18.5 -5.5t11.5 -10l-6 -10q-13 5 -24 8t-25 3q-19 0 -33.5 -2t-27.5 -17l-7 2q0 2 -1 4t-1 4zM629 516q0 20 18.5 37t38.5 17 l3 -3q12 0 24 -4.5t21.5 -13t16 -19.5t6.5 -23q0 -11 -4.5 -23t-12.5 -22t-18.5 -16.5t-22.5 -6.5h-15q-23 10 -39 30.5t-16 46.5zM655 483q11 -11 16 -15.5t20 -11.5q20 0 35.5 14.5t15.5 34.5q0 11 -6 19t-15 14t-19.5 10t-19.5 7q-6 0 -14 -7t-13 -12q10 -4 20 -9t10 -18 l-10 -17q-9 -2 -12 -8z" />
<glyph unicode="&#xfe;" horiz-adv-x="1000" d="M1007 -232v3q-7 4 -20.5 14.5t-27 23t-23.5 24.5t-10 20q0 3 2 9q-19 11 -38 20.5t-37 21.5q-13 9 -24 19.5t-25 18.5q-32 17 -59 41t-56 44q-14 8 -28 14t-28 13q-5 2 -14 8t-18.5 12t-18 11t-12.5 5l-11 6q16 26 29.5 62.5t13.5 67.5q0 4 3 23.5t7.5 41t8 40t5.5 20.5 q9 1 18.5 1.5t17.5 2.5l4 4q13 5 26 11t23.5 15t16.5 21.5t6 29.5q0 25 -13.5 37t-33.5 16t-42.5 3t-39.5 -1q-4 5 -4 11q0 7 -2 14q-2 8 -1 15t0 14q-2 6 -4.5 11t-4.5 10q14 8 27 8l6 3q10 2 19.5 3t20.5 3l9 7v6l-2 2q-3 0 -6 0.5t-6 0.5q-18 0 -36.5 -5t-35.5 -13 q-11 11 -16 22t-19 21q5 3 14.5 9t15.5 7q9 5 23.5 13t20.5 16l-2 7l-6 2q-20 -7 -39.5 -19t-39.5 -23q-3 0 -7 5t-9.5 11.5t-13.5 12.5t-19 8l-3 3l-10 3l11 11t16.5 16t15.5 15t7 9q-2 2 -4.5 3.5t-4.5 3.5q-17 -13 -31.5 -26t-27.5 -29q-14 2 -28.5 3t-28.5 1q3 25 0 49 h-10q-2 -5 -2.5 -10t-0.5 -10v-16t-4 -16q-12 0 -24.5 -1.5t-24.5 -1.5q-5 0 -10.5 6t-11 13t-11 13t-8.5 6l-7 -4v-8l28 -34q-16 -9 -31 -17.5t-29 -19.5q-3 3 -7.5 10t-9 13.5t-9 12t-7.5 5.5q-4 0 -6 -2l-2 -6l26 -45q-11 -10 -21.5 -19.5t-21.5 -17.5q-3 3 -10 6.5 l-15 7.5t-16 7t-12 5q-4 0 -6 -2l-4 -4q2 -7 9 -11t15.5 -7t16.5 -6t13 -9q-3 -4 -7 -16t-7.5 -26t-6.5 -27.5t-5 -19.5q-26 3 -53.5 10t-53.5 7q-3 0 -11.5 0.5t-18.5 0.5q-9 0 -16 -2t-7 -7q0 -1 1 -2.5t1 -3.5q18 -2 36.5 -2.5t35.5 -2.5q20 -3 42 -8.5t41 -5.5h10l4 -3 q15 -3 36 -16.5t42 -32t38.5 -37.5t25.5 -32q14 -23 25.5 -47.5t27.5 -47.5q18 -27 39.5 -50.5t41.5 -48.5q3 -4 4.5 -8t5.5 -8q9 -8 27.5 -19t37.5 -21t34.5 -18.5t18.5 -12.5q12 -3 20 -10t19 -13q10 -5 20.5 -8.5t20.5 -9.5q35 -21 65.5 -47.5t66.5 -46.5 q22 -11 40 -27.5t41 -27.5q11 -5 19.5 -11.5t18.5 -12.5q1 -8 10.5 -22t21.5 -28.5t24.5 -25t20.5 -10.5q5 0 9.5 1t9.5 1zM580 535q-2 -8 -4 -16.5t-2 -17.5q-2 2 -11.5 6t-12.5 4q-8 0 -16 -4t-8 -13q0 -8 4.5 -17t12.5 -13q-4 -4 -8.5 -6.5t-9.5 -5.5l-26 -1 q-11 5 -19.5 8t-14 7.5t-8.5 12.5t-3 23q0 7 8 16t19 16.5t22.5 13t19.5 5.5q11 0 30.5 -4.5t26.5 -13.5zM579 311q0 -11 -8 -15t-16 -6q1 16 8 36h16v-15zM547 325q-6 -8 -6.5 -17.5t-2.5 -19.5q-5 0 -9 1t-8 1q2 9 3.5 18.5t3.5 18.5q5 -1 9 -1q5 0 10 -1zM722 437 q0 -17 -11 -30t-26.5 -22t-33.5 -13.5t-32 -4.5q-4 0 -8.5 -13t-8 -33t-7.5 -44t-7.5 -45.5t-6.5 -37.5t-6 -20v-6l-14 -32l-14 -32l-3 -2q-5 3 -16 9.5t-23 14t-22 14.5t-12 11q-22 35 -50 65t-50 68q8 0 14.5 -1.5t14.5 -1.5l9 -4l5 2q35 -2 69 -3.5t69 -3.5q19 -1 31 14 t12 32q0 5 -0.5 14t-7.5 9q-63 2 -125 4.5t-125 2.5q-7 11 -14.5 25t-15.5 22q-8 10 -20.5 16t-22.5 14q-17 17 -37 33.5t-45 22.5v10l2 2q2 8 5 16.5t3 16.5v4q4 21 19.5 40.5t36 36t43 30.5t40.5 24l7 -2l5 6q13 2 26 2.5t27 -1.5q6 4 22 3.5t24 -0.5q29 0 51 -14t40 -34 l-2 -3l4 3q8 -9 17 -17q-12 -2 -31 -5.5t-37 -10.5t-31.5 -17.5t-13.5 -26.5l7 -8l6 3q7 16 19.5 24.5t27.5 13t31.5 7t31.5 7.5q6 -8 9 -17t8 -17l-8 1l-3 4q-24 8 -50 8q-6 0 -18 -6.5t-24.5 -15.5t-22.5 -18t-11 -14q-2 -8 -2.5 -16.5t-0.5 -16.5q0 -9 9 -21t17 -15l3 -3 q14 -3 28 -9h27q6 0 17 6t21.5 14.5t18.5 18t9 15.5q2 -4 3.5 -11.5t3.5 -15.5t4 -14t6 -6h6q0 2 1 5t1 5q0 6 -1 11.5t-2 11.5h73q5 0 17.5 -7.5l17.5 -10.5q3 -9 3 -20zM512 327q-3 -9 -4.5 -18.5t-2.5 -18.5h-15q1 9 1.5 18.5t-1.5 18.5h22zM475 293h-32l5 36 q7 0 13.5 -1t13.5 1v-36zM434 330q-5 -15 -7 -35l-8 -1q-11 0 -21 3q2 20 7 36q7 0 14.5 -0.5t14.5 -2.5zM389 331q-4 -5 -5 -12t-1 -13v-4l-10 -1q-14 0 -18.5 8.5t-9.5 20.5l8 1h36zM684 434q0 8 -8.5 18.5t-16.5 10.5q-6 0 -14 -5t-8 -12l6 -11h1q4 0 7.5 5t5.5 7 q4 -2 6.5 -6t4.5 -8l-6 -10q-9 -6 -18 -8t-9 -18q0 -4 2 -9t7 -5q0 2 2 2h4l1 13q6 6 15 9q6 1 12 11.5t6 15.5zM378 574q0 7 -7.5 12t-17 8t-19.5 4.5t-14 1.5q-7 0 -17 -0.5t-19.5 -2t-18 -5.5t-12.5 -10l6 -10q14 5 25 8t25 3q19 0 33 -2t28 -17l6 2q2 4 2 8zM384 516 q0 10 -5.5 19.5t-13.5 17t-18.5 12.5t-19.5 5l-4 -3q-12 0 -24 -4.5t-21.5 -13t-16 -19.5t-6.5 -23q0 -11 4.5 -23t12.5 -22t18.5 -16.5t22.5 -6.5h16q22 10 38.5 30.5t16.5 46.5zM357 483q-11 -11 -16 -15.5t-19 -11.5q-20 0 -35.5 14.5t-15.5 34.5q0 11 6 19t15 14 t19.5 10t19.5 7q5 0 13.5 -7t12.5 -12q-9 -4 -19 -9t-10 -18l10 -17q7 -2 12 -8z" />
<glyph unicode="&#xff;" horiz-adv-x="600" d="M454 585v129h-122v-129h122zM268 585v129h-122v-129h122zM600 420v114h-249v-114h52l-101 -261l-95 261h52v114h-252v-114h70l162 -413l-36 -88h-67v-114h260v114h-70l207 501h67z" />
<glyph unicode="&#x152;" horiz-adv-x="1100" d="M626 106v505q-89 122 -239 122q-76 0 -143 -30t-116.5 -81t-78.5 -119t-29 -143q0 -78 28.5 -146t78 -119t117 -80t146.5 -29q75 0 134 29t102 91zM619 357q0 -47 -18 -90t-49.5 -75t-73.5 -51t-90 -19t-90.5 18.5t-74 50.5t-49.5 74.5t-18 90.5q0 49 18 93t49.5 77 t74 52.5t92.5 19.5q49 0 91 -20t72.5 -53t48 -76.5t17.5 -91.5zM1077 0v216h-26v-97h-289v189h208v106h-208v178h289v-93h26v215h-529v-24h78v-666h-78v-24h529z" />
<glyph unicode="&#x153;" horiz-adv-x="1040" d="M1027 226q2 17 3.5 33t1.5 32q0 55 -24.5 102.5t-65 81.5t-91.5 53.5t-103 19.5q-67 0 -128 -28.5t-97 -86.5q-17 28 -41.5 50t-54 37t-62 22.5t-65.5 7.5q-59 0 -111 -21.5t-91 -59.5t-62 -89.5t-23 -110.5q0 -60 23 -111.5t62 -89.5t91.5 -60t111.5 -22q65 0 126 28.5 t96 85.5q38 -57 97 -85.5t126 -28.5q43 0 84 12.5t76 35.5t62 55.5t44 73.5h-29q-15 -17 -36 -29.5t-44.5 -21t-48 -13t-46.5 -4.5q-30 0 -65.5 8t-67.5 24.5t-56 41t-31 57.5h439zM464 269q0 -34 -13.5 -64t-36.5 -52t-53 -35t-64 -13t-64 12.5t-53 34.5t-36.5 52t-13.5 64 t13.5 63.5t36 52t52.5 35.5t64 13t64.5 -12.5t53.5 -34.5t36.5 -52t13.5 -64zM913 255h-324q0 35 9.5 68.5t29 59.5t49 42t68.5 16t70 -15.5t52.5 -41t33.5 -59t12 -70.5z" />
<glyph unicode="&#x178;" horiz-adv-x="680" d="M484 765v129h-122v-129h122zM298 765v129h-122v-129h122zM663 600v114h-275v-114h68l-119 -236l-120 236h66v114h-276v-114h72l189 -351v-135h-77v-114h291v114h-78v135l188 351h71z" />
<glyph unicode="&#x2c6;" d="M501 631l-173 168h-84l-173 -168h138l77 75l77 -75h138z" />
<glyph unicode="&#x2dc;" horiz-adv-x="520" d="M455 678l-59 81q-16 -14 -36 -20.5t-41 -6.5q-19 0 -37 4.5t-36 10t-36 10t-37 4.5q-26 0 -53.5 -10t-47.5 -27l64 -90q14 13 30.5 21t36.5 8q18 0 35 -4.5t34.5 -10.5t35 -10.5t35.5 -4.5q32 0 60.5 12.5t51.5 32.5z" />
<glyph unicode="&#x2000;" horiz-adv-x="508" />
<glyph unicode="&#x2001;" horiz-adv-x="1017" />
<glyph unicode="&#x2002;" horiz-adv-x="508" />
<glyph unicode="&#x2003;" horiz-adv-x="1017" />
<glyph unicode="&#x2004;" horiz-adv-x="339" />
<glyph unicode="&#x2005;" horiz-adv-x="254" />
<glyph unicode="&#x2006;" horiz-adv-x="169" />
<glyph unicode="&#x2007;" horiz-adv-x="169" />
<glyph unicode="&#x2008;" horiz-adv-x="127" />
<glyph unicode="&#x2009;" horiz-adv-x="203" />
<glyph unicode="&#x200a;" horiz-adv-x="56" />
<glyph unicode="&#x2010;" horiz-adv-x="320" d="M258 252v71h-256v-71h256z" />
<glyph unicode="&#x2011;" horiz-adv-x="320" d="M258 252v71h-256v-71h256z" />
<glyph unicode="&#x2012;" horiz-adv-x="320" d="M258 252v71h-256v-71h256z" />
<glyph unicode="&#x2013;" horiz-adv-x="500" d="M506 202v121h-512v-121h512z" />
<glyph unicode="&#x2014;" horiz-adv-x="1000" d="M1006 202v121h-1012v-121h1012z" />
<glyph unicode="&#x2018;" horiz-adv-x="200" d="M162 429v141h-54v23t3 25t10 20.5t21 8.5h10t10 -1v68h-26q-29 0 -48 -8.5t-30.5 -24t-16.5 -37t-5 -47.5v-168h126z" />
<glyph unicode="&#x2019;" horiz-adv-x="200" d="M162 553v161h-127v-141h55v-23t-3 -25t-10 -20.5t-21 -8.5h-10t-10 1v-68h19q62 0 84.5 33t22.5 91z" />
<glyph unicode="&#x201a;" horiz-adv-x="200" d="M162 -25v166h-126v-141h54q0 -18 -0.5 -32.5t-5 -24t-15.5 -14.5t-33 -5v-68h19q61 0 84 30.5t23 88.5z" />
<glyph unicode="&#x201c;" horiz-adv-x="380" d="M347 429v141h-54v22q0 14 3 26t10 20.5t21 8.5h10t10 -1v68h-26q-30 0 -50 -9.5t-31 -26t-15.5 -39t-4.5 -49.5v-161h127zM162 429v141h-54v22q0 14 3 26t10 20.5t21 8.5h10t10 -1v68h-19q-60 0 -84 -30t-24 -87v-168h127z" />
<glyph unicode="&#x201d;" horiz-adv-x="380" d="M347 553v161h-127v-141h55v-23t-3 -25t-10 -20.5t-21 -8.5h-10t-10 1v-68h19q62 0 84.5 33t22.5 91zM162 553v161h-127v-141h55v-23t-3 -25t-10 -20.5t-21 -8.5h-10t-10 1v-68h19q62 0 84.5 33t22.5 91z" />
<glyph unicode="&#x201e;" horiz-adv-x="380" d="M346 -25v166h-126v-141h55q0 -18 -0.5 -32t-5 -24t-15.5 -15t-33 -5v-68h19q60 0 83 31t23 88zM161 -27v168h-126v-141h55v-23t-3 -25t-10 -20.5t-21 -8.5h-10t-10 1v-68h19q60 0 83 30t23 87z" />
<glyph unicode="&#x2022;" horiz-adv-x="248" d="M201 285v171h-153v-171h153z" />
<glyph unicode="&#x2026;" horiz-adv-x="1000" d="M896 0v141h-126v-141h126zM563 0v141h-126v-141h126zM230 0v141h-126v-141h126z" />
<glyph unicode="&#x202f;" horiz-adv-x="203" />
<glyph unicode="&#x2039;" horiz-adv-x="200" d="M165 185l-64 78l64 79l-6 115l-123 -142v-95l123 -143z" />
<glyph unicode="&#x203a;" horiz-adv-x="200" d="M165 220v95l-124 142l-5 -115l63 -79l-63 -78l5 -108z" />
<glyph unicode="&#x205f;" horiz-adv-x="254" />
<glyph unicode="&#x2122;" horiz-adv-x="980" d="M380 590v123h-309v-123h16v57h101v-313h-43v-13h161v13h-43v313h102v-57h15zM909 321v13h-43v366h43v13h-148l-106 -277l-107 277h-147v-13h43v-366h-43v-13h163v13h-46v278l112 -291h53l108 291v-278h-42v-13h160z" />
<glyph unicode="&#xe000;" horiz-adv-x="535" d="M0 535h535v-535h-535v535z" />
</font>
</defs>
</svg>
