<?xml version="1.0" standalone="no"?>
<!DOCTYPE svg PUBLIC "-//W3C//DTD SVG 1.1//EN" "http://www.w3.org/Graphics/SVG/1.1/DTD/svg11.dtd" >
<svg xmlns="http://www.w3.org/2000/svg">
<metadata></metadata>
<defs>
<font id="ralewaymedium" horiz-adv-x="557" >
<font-face units-per-em="1000" ascent="800" descent="-200" />
<missing-glyph horiz-adv-x="251" />
<glyph unicode="&#xfb01;" horiz-adv-x="523" d="M28 392v69h71v72q0 84 50.5 145.5t142.5 61.5q89 0 164 -52l-38 -65q-46 41 -121 41q-54 0 -82 -38t-28 -90v-75h267v-461h-88v392h-179v-392h-88v392h-71z" />
<glyph unicode="&#xfb02;" horiz-adv-x="604" d="M28 392v69h71v79q0 93 49.5 146.5t142.5 53.5t142 -46t49 -122v-439q0 -23 14 -42t39 -19q7 0 15.5 1t16 3t13.5 4t10 3l4 1l15 -72q-1 -1 -16 -5.5t-40.5 -9t-47.5 -4.5q-51 0 -81 29t-30 71v460q0 45 -24 78t-78 33q-53 0 -79 -42t-26 -100v-61h103v-69h-103v-392h-88 v392h-71z" />
<glyph unicode="&#xfb03;" horiz-adv-x="763" d="M28 392v69h71v40q0 85 43 143t121 58q60 0 118 -27q53 65 150 65q84 0 165 -52l-38 -65q-47 41 -119 41q-56 0 -84 -38t-28 -90v-75h267v-461h-88v392h-179v-392h-88v392h-152v-392h-88v392h-71zM187 461h152v64q0 52 16 83q-27 18 -76 18q-47 0 -69.5 -37.5t-22.5 -84.5 v-43z" />
<glyph unicode="&#xfb04;" horiz-adv-x="846" d="M28 392v69h71v46q0 86 45 140.5t124 54.5q55 0 113 -27q50 65 153 65q92 0 141 -46t49 -122v-439q0 -23 14 -42t39 -19q11 0 25.5 3t24.5 6l10 3l14 -72q-1 -1 -15.5 -5.5t-40 -9t-47.5 -4.5q-51 0 -81.5 29t-30.5 71v460q0 45 -24 78t-77 33t-79 -41.5t-26 -100.5v-61 h102v-69h-102v-392h-88v392h-155v-392h-88v392h-71zM187 461h155v63q0 60 12 85q-26 17 -69 17q-49 0 -73.5 -33.5t-24.5 -82.5v-49z" />
<glyph horiz-adv-x="0" />
<glyph horiz-adv-x="333" />
<glyph horiz-adv-x="0" />
<glyph horiz-adv-x="0" />
<glyph unicode="&#xd;" horiz-adv-x="0" />
<glyph unicode=" "  horiz-adv-x="251" />
<glyph unicode="&#x09;" horiz-adv-x="251" />
<glyph unicode="&#xa0;" horiz-adv-x="251" />
<glyph unicode="!" horiz-adv-x="257" d="M85 0v124h88v-124h-88zM85 240v477h88v-477h-88z" />
<glyph unicode="&#x22;" horiz-adv-x="312" d="M61 574v144h76v-144h-76zM175 574v144h76v-144h-76z" />
<glyph unicode="#" horiz-adv-x="696" d="M39 201v68h129l43 178h-128v64h144l48 199h73l-49 -199h168l48 199h73l-49 -199h118v-64h-134l-43 -178h133v-68h-149l-49 -201h-73l50 201h-168l-49 -201h-73l50 201h-113zM240 269h168l43 178h-168z" />
<glyph unicode="$" horiz-adv-x="622" d="M36 93l43 76q32 -34 91 -61t127 -33v239l-15 4q-117 28 -168 67.5t-51 119.5q0 94 63 148.5t166 60.5v101h44v-101q125 -6 215 -80l-42 -73q-25 28 -74 49.5t-105 23.5v-237l13 -3q124 -28 182 -70.5t58 -132.5q0 -96 -68 -146t-179 -52v-100h-44v101q-146 9 -256 99z M156 519q0 -48 32 -72t109 -43v230q-141 -7 -141 -115zM330 74q75 0 116 27.5t41 80.5q0 49 -37.5 75.5t-119.5 48.5v-232z" />
<glyph unicode="%" horiz-adv-x="745" d="M43 574q0 61 45 103.5t109 42.5t109 -42.5t45 -103.5t-45 -103.5t-109 -42.5t-109 42.5t-45 103.5zM77 33l280 337l268 345l43 -37l-277 -335l-272 -348zM107 574q0 -40 26.5 -69t63.5 -29t63.5 29.5t26.5 68.5q0 40 -27 69t-63 29q-37 0 -63.5 -29.5t-26.5 -68.5z M394 136q0 61 45 103.5t109 42.5t109 -42.5t45 -103.5t-45 -103.5t-109 -42.5t-109 42.5t-45 103.5zM458 136q0 -40 26.5 -69t63.5 -29t63.5 29t26.5 69t-27 69t-63 29q-37 0 -63.5 -29.5t-26.5 -68.5z" />
<glyph unicode="&#x26;" horiz-adv-x="685" d="M46 188q0 64 37.5 112t103.5 95q-50 55 -70 91t-20 73q0 69 52.5 114.5t130.5 45.5q73 0 123 -40t50 -105q0 -56 -37 -98t-109 -89l181 -190q40 77 40 169h73q-1 -127 -61 -223l137 -143h-116l-74 77q-90 -87 -211 -87q-98 0 -164 56.5t-66 141.5zM131 187 q0 -58 45.5 -92.5t108.5 -34.5q89 0 154 68l-202 213q-106 -77 -106 -154zM178 561q0 -22 15.5 -46.5t61.5 -74.5q61 40 89 68.5t28 63.5t-26 57.5t-66 22.5q-44 0 -73 -26.5t-29 -64.5z" />
<glyph unicode="'" horiz-adv-x="186" d="M55 586v132h76v-132h-76z" />
<glyph unicode="(" horiz-adv-x="280" d="M41 346q0 94 36.5 188.5t105.5 209.5l68 -30q-47 -69 -87.5 -175.5t-40.5 -195.5q0 -153 126 -351l-65 -34q-143 213 -143 388z" />
<glyph unicode=")" horiz-adv-x="280" d="M29 714l68 30q69 -115 105.5 -209.5t36.5 -188.5q0 -175 -143 -388l-65 34q126 198 126 351q0 89 -40.5 195.5t-87.5 175.5z" />
<glyph unicode="*" horiz-adv-x="330" d="M59 625l13 42l70 -27l-3 74h51l-3 -74l70 27l13 -42l-69 -22l45 -65l-38 -25l-43 67l-44 -67l-37 25l44 65z" />
<glyph unicode="+" horiz-adv-x="420" d="M52 319v72h118v128h80v-128h118v-72h-118v-128h-80v128h-118z" />
<glyph unicode="," horiz-adv-x="214" d="M48 -16q25 0 25 24v104h73v-118q0 -39 -29.5 -57t-68.5 -18v65z" />
<glyph unicode="-" horiz-adv-x="421" d="M63 233v80h295v-80h-295z" />
<glyph unicode="." horiz-adv-x="200" d="M63 0v112h74v-112h-74z" />
<glyph unicode="/" horiz-adv-x="634" d="M29 0l479 710h99l-480 -710h-98z" />
<glyph unicode="0" horiz-adv-x="615" d="M55 293q0 132 71.5 218t181.5 86q109 0 181 -86t72 -218t-72 -217.5t-181 -85.5q-110 0 -181.5 85.5t-71.5 217.5zM143 293q0 -99 45.5 -160t119.5 -61q72 0 118 61t46 160t-46 160.5t-118 61.5q-74 0 -119.5 -61.5t-45.5 -160.5z" />
<glyph unicode="1" horiz-adv-x="447" d="M45 392v84q38 0 96 39t67 56h90v-491h127v-80h-359v80h142v390q-18 -25 -72 -51.5t-91 -26.5z" />
<glyph unicode="2" horiz-adv-x="544" d="M48 0q0 87 34 147t129 114q14 8 47.5 25t50 27t38 26t31 33.5t9.5 37.5q0 37 -32.5 65t-87.5 28q-87 0 -154 -81l-57 64q17 18 41 36t77 38.5t109 20.5q90 0 144.5 -46t54.5 -115q0 -36 -15.5 -66.5t-44.5 -54t-49 -35t-52 -27.5q-155 -76 -169 -157h341v-80h-445z" />
<glyph unicode="3" horiz-adv-x="543" d="M36 -38l59 59q49 -88 164 -88q70 0 109 32t39 93q0 64 -43 101t-123 37h-26v74h28q70 0 109.5 34t39.5 88q0 51 -35.5 78t-94.5 27q-112 0 -161 -89l-54 56q26 50 87.5 81t136.5 31q95 0 154.5 -49t59.5 -129q0 -61 -34.5 -106.5t-91.5 -55.5q64 -11 101.5 -59.5 t37.5 -118.5q0 -92 -65.5 -148.5t-173.5 -56.5q-75 0 -133 28.5t-90 80.5z" />
<glyph unicode="4" horiz-adv-x="549" d="M21 42v78l349 451h60v-449h88v-80h-88v-169h-88v169h-321zM112 122h239v313z" />
<glyph unicode="5" horiz-adv-x="552" d="M35 -17l55 48q28 -46 75 -74t100 -28q69 0 114.5 44t45.5 113q0 66 -44 108.5t-109 42.5q-92 0 -142 -73h-79l80 407h345v-81h-280l-43 -226q47 50 130 50q99 0 165.5 -64t66.5 -163q0 -104 -72 -170t-179 -66q-75 0 -136.5 36t-92.5 96z" />
<glyph unicode="6" horiz-adv-x="606" d="M52 296q0 205 71.5 312t194.5 107q69 0 125.5 -33.5t88.5 -92.5l-54 -53q-22 47 -65.5 74.5t-95.5 27.5q-83 0 -132 -73.5t-50 -204.5q22 52 71.5 83t111.5 31q103 0 174 -69.5t71 -169.5q0 -102 -73.5 -173.5t-180.5 -71.5q-116 0 -186.5 82t-70.5 224zM141 235 q0 -69 50 -119t119 -50t119 49.5t50 119.5q0 69 -50 118.5t-119 49.5q-70 0 -119.5 -49.5t-49.5 -118.5z" />
<glyph unicode="7" d="M43 502v81h504l-357 -710h-100l318 629h-365z" />
<glyph unicode="8" horiz-adv-x="599" d="M49 205q0 61 39.5 107.5t93.5 67.5q-47 20 -78 58.5t-31 85.5q0 85 69.5 135.5t156.5 50.5q88 0 157.5 -50t69.5 -135q0 -47 -31.5 -86t-79.5 -59q58 -22 96 -69.5t38 -109.5q0 -93 -73.5 -151t-178.5 -58q-106 0 -177 61.5t-71 151.5zM139 206q0 -60 49.5 -97.5 t111.5 -37.5t111 39t49 97q0 61 -50 98.5t-112 37.5q-63 0 -111 -38.5t-48 -98.5zM162 521q0 -50 42.5 -80t94.5 -30t94.5 30.5t42.5 81.5q0 48 -41 78t-97 30t-96 -30.5t-40 -79.5z" />
<glyph unicode="9" horiz-adv-x="589" d="M36 326q0 102 73.5 173.5t180.5 71.5q116 0 186.5 -82t70.5 -224q0 -205 -71.5 -312t-194.5 -107q-69 0 -125.5 33.5t-88.5 92.5l54 53q22 -47 65.5 -74.5t95.5 -27.5q83 0 132 73.5t50 204.5q-22 -52 -71.5 -83t-111.5 -31q-103 0 -174 69.5t-71 169.5zM120 326 q0 -69 50 -118.5t119 -49.5q70 0 119.5 49.5t49.5 118.5t-50 119t-119 50t-119 -49.5t-50 -119.5z" />
<glyph unicode=":" horiz-adv-x="211" d="M69 0v112h73v-112h-73zM69 406v112h73v-112h-73z" />
<glyph unicode=";" horiz-adv-x="223" d="M52 -16q25 0 25 24v104h73v-118q0 -39 -29.5 -57t-68.5 -18v65zM77 406v112h73v-112h-73z" />
<glyph unicode="&#x3c;" horiz-adv-x="507" d="M33 234v46l420 253v-94l-292 -180l292 -177v-98z" />
<glyph unicode="=" horiz-adv-x="440" d="M68 179v60h305v-60h-305zM68 313v60h305v-60h-305z" />
<glyph unicode="&#x3e;" horiz-adv-x="507" d="M54 -16v98l292 177l-292 180v94l420 -253v-46z" />
<glyph unicode="?" horiz-adv-x="482" d="M35 590q26 60 83.5 94.5t125.5 34.5q81 0 140 -50t59 -142q0 -36 -9.5 -64t-29.5 -49t-38 -33.5t-49 -29.5q-26 -14 -37.5 -21.5t-29 -24.5t-24.5 -40t-7 -54h-74q0 110 84 164q5 3 31.5 18.5t38.5 24.5t31 26.5t27 39t8 47.5q0 54 -36.5 84.5t-86.5 30.5q-48 0 -87 -27 t-61 -68zM147 0v116h74v-116h-74z" />
<glyph unicode="@" horiz-adv-x="829" d="M48 230q0 166 110.5 269.5t262.5 103.5q153 0 260 -105.5t107 -275.5q0 -18 -1.5 -37.5t-6 -49t-15 -54.5t-26 -47.5t-41.5 -36t-59 -13.5q-46 0 -64 24t-23 65q-67 -71 -170 -71q-71 0 -111.5 38t-40.5 98q0 72 55 105.5t132 33.5q63 0 123 -23q0 72 -26.5 110.5 t-94.5 38.5q-77 0 -138 -46l-20 49q77 51 166 51q45 0 77.5 -13t49.5 -32t27 -48.5t12.5 -54t2.5 -58.5v-119q0 -52 9.5 -78t41.5 -26q28 0 49 20.5t31 52.5t14.5 63t4.5 60q0 144 -93.5 241.5t-233.5 97.5q-139 0 -234 -94.5t-95 -238.5q0 -141 91.5 -238.5t230.5 -97.5 q73 0 154 38l14 -38q-80 -40 -169 -40q-151 0 -257 107t-106 269zM287 142q0 -38 27.5 -63t71.5 -25q46 0 92 22q61 28 61 95v37q-3 1 -24 7t-46.5 10.5t-52.5 4.5q-57 0 -93 -21t-36 -67z" />
<glyph unicode="A" horiz-adv-x="678" d="M11 0l292 710h74l291 -710h-96l-84 208h-298l-83 -208h-96zM208 278h260l-128 328z" />
<glyph unicode="B" horiz-adv-x="672" d="M85 0v710h353q72 0 117 -55t45 -126q0 -54 -27 -99t-75 -66q61 -18 96.5 -66.5t35.5 -114.5q0 -81 -60.5 -132t-147.5 -51h-337zM175 78h247q49 0 83 36t34 85q0 50 -32 86.5t-78 36.5h-254v-244zM175 395h226q47 0 78.5 34.5t31.5 83.5q0 51 -29.5 85t-74.5 34h-232 v-237z" />
<glyph unicode="C" horiz-adv-x="683" d="M40 360q0 65 23 128t65 113.5t107.5 81.5t142.5 31q92 0 161 -42t103 -113l-71 -46q-29 63 -82.5 91.5t-114.5 28.5q-112 0 -177.5 -84t-65.5 -193q0 -113 71 -197t175 -84q61 0 117.5 31.5t85.5 93.5l75 -41q-32 -76 -113.5 -120.5t-168.5 -44.5q-71 0 -134 32 t-106 83.5t-68 117.5t-25 133z" />
<glyph unicode="D" horiz-adv-x="718" d="M85 0v710h246q164 0 253.5 -100t89.5 -254q0 -162 -93.5 -259t-249.5 -97h-246zM175 80h156q119 0 185.5 77t66.5 199q0 123 -67 198.5t-185 75.5h-156v-550z" />
<glyph unicode="E" horiz-adv-x="610" d="M85 0v710h473v-80h-383v-230h333v-75h-333v-245h392v-80h-482z" />
<glyph unicode="F" horiz-adv-x="581" d="M85 0v710h469v-80h-379v-237h319v-75h-319v-318h-90z" />
<glyph unicode="G" horiz-adv-x="718" d="M41 357q0 146 95.5 252t235.5 106q194 0 271 -155l-69 -48q-31 60 -84 91t-120 31q-105 0 -171.5 -83t-66.5 -196q0 -115 71.5 -197t175.5 -82q116 0 209 112v98h-153v68h229v-354h-76v96q-94 -101 -216 -101q-91 0 -168 52.5t-120 135.5t-43 174z" />
<glyph unicode="H" horiz-adv-x="741" d="M85 0v710h90v-307h391v307h90v-710h-90v323h-391v-323h-90z" />
<glyph unicode="I" horiz-adv-x="260" d="M85 0v709h90v-709h-90z" />
<glyph unicode="J" horiz-adv-x="489" d="M16 33l23 73q52 -36 131 -36q40 0 67.5 12.5t44 33t25.5 57.5t12 76.5t3 99.5v360h90v-360q0 -72 -4.5 -121.5t-19 -98t-40.5 -77t-70.5 -46t-107.5 -17.5q-90 0 -154 44z" />
<glyph unicode="K" horiz-adv-x="649" d="M85 0v709h90v-392l366 393h97l-285 -313l301 -397h-98l-258 345l-123 -128v-217h-90z" />
<glyph unicode="L" horiz-adv-x="590" d="M85 0v710h90v-630h396v-80h-486z" />
<glyph unicode="M" horiz-adv-x="874" d="M85 0v710h95l257 -461l258 461h94v-710h-90v549l-236 -421h-51l-237 421v-549h-90z" />
<glyph unicode="N" horiz-adv-x="770" d="M85 0v710h70l440 -553v552h90v-709h-76l-434 542v-542h-90z" />
<glyph unicode="O" horiz-adv-x="751" d="M41 355q0 145 97.5 252.5t238.5 107.5q143 0 238 -110.5t95 -250.5q0 -145 -97 -252t-238 -107q-144 0 -239 109t-95 251zM132 355q0 -113 68.5 -196t175.5 -83q108 0 175.5 85t67.5 194q0 112 -69 195t-174 83q-108 0 -176 -84t-68 -194z" />
<glyph unicode="P" horiz-adv-x="621" d="M85 0v710h296q91 0 153 -69.5t62 -157.5q0 -91 -59 -159.5t-150 -68.5h-212v-255h-90zM175 335h207q54 0 88.5 43t34.5 105t-38 104.5t-91 42.5h-201v-295z" />
<glyph unicode="Q" horiz-adv-x="752" d="M41 355q0 145 97.5 252.5t238.5 107.5q143 0 238 -110.5t95 -250.5q0 -145 -96 -251l89 -103h-88l-50 58q-86 -63 -190 -63q-144 1 -239 109.5t-95 250.5zM132 355q0 -113 68.5 -196t175.5 -83q76 0 135 45l-95 111h88l54 -63q61 81 61 186q0 112 -69 195.5t-174 83.5 q-108 0 -176 -84.5t-68 -194.5z" />
<glyph unicode="R" horiz-adv-x="664" d="M85 0v710h304q91 0 153 -69.5t62 -157.5q0 -75 -41 -134.5t-108 -76.5l172 -272h-102l-162 255h-188v-255h-90zM175 335h215q54 0 88.5 44t34.5 104t-38.5 103.5t-90.5 43.5h-209v-295z" />
<glyph unicode="S" horiz-adv-x="613" d="M31 93l43 76q36 -38 104 -66.5t144 -28.5q77 0 118.5 27.5t41.5 80.5q0 55 -46 82t-159 54q-117 28 -168 67.5t-51 119.5q0 99 70.5 154.5t184.5 55.5q134 0 233 -81l-42 -73q-27 30 -80 52t-113 22q-160 0 -160 -116q0 -53 40.5 -77t146.5 -48q124 -28 182 -70.5 t58 -132.5q0 -98 -71 -148t-187 -50q-166 0 -289 100z" />
<glyph unicode="T" horiz-adv-x="616" d="M18 630v80h580v-80h-245v-630h-90v630h-245z" />
<glyph unicode="U" horiz-adv-x="753" d="M74 351v359h90v-359q0 -56 10.5 -102.5t34 -86.5t66.5 -63t101 -23q59 0 102.5 23.5t66.5 64t33.5 86.5t10.5 101v359h90v-359q0 -75 -17 -137.5t-52 -112.5t-94.5 -78t-138.5 -28q-82 0 -142.5 29.5t-94.5 81t-50 112.5t-16 133z" />
<glyph unicode="V" horiz-adv-x="676" d="M8 710h95l235 -597l234 597h95l-290 -710h-78z" />
<glyph unicode="W" horiz-adv-x="1048" d="M8 710h97l241 -606l121 293l-123 309h85l94 -247l95 247h85l-123 -309l122 -293l240 606h98l-297 -710h-78l-141 335l-142 -335h-78z" />
<glyph unicode="X" horiz-adv-x="635" d="M2 710h100l216 -296l216 296h99l-267 -360l259 -350h-99l-208 286l-208 -286h-100l259 350z" />
<glyph unicode="Y" horiz-adv-x="637" d="M4 710h99l215 -370l217 370h98l-270 -451v-259h-90v261z" />
<glyph unicode="Z" horiz-adv-x="624" d="M28 0v70l458 560h-449v80h554v-70l-450 -560h450v-80h-563z" />
<glyph unicode="[" horiz-adv-x="264" d="M80 -40v780h140v-72h-58v-636h58v-72h-140z" />
<glyph unicode="\" horiz-adv-x="590" d="M27 710h99l435 -710h-98z" />
<glyph unicode="]" horiz-adv-x="264" d="M44 32h58v636h-58v72h140v-780h-140v72z" />
<glyph unicode="^" horiz-adv-x="555" d="M43 303l198 407h74l197 -407h-75l-159 328l-162 -328h-73z" />
<glyph unicode="_" horiz-adv-x="405" d="M14 0h377v-80h-377v80z" />
<glyph unicode="`" horiz-adv-x="232" d="M48 730h87l59 -101l-57 -20z" />
<glyph unicode="a" d="M30 150q0 74 61.5 119t158.5 45q81 0 146 -26v42q0 64 -36.5 100.5t-101.5 36.5q-79 0 -166 -61l-29 57q101 68 205 68q100 0 158 -55.5t58 -154.5v-213q0 -31 28 -32v-76q-26 -4 -36 -4q-25 0 -45 13.5t-21 39.5l-2 37q-34 -46 -88.5 -71t-109.5 -25q-78 0 -129 46 t-51 114zM114 158q0 -42 32 -72t86 -30q41 0 81.5 17.5t63.5 44.5q19 22 19 41v77q-64 25 -132 25t-109 -28t-41 -75z" />
<glyph unicode="b" horiz-adv-x="621" d="M69 0v730h88v-312q73 113 193 113q103 0 168.5 -81t65.5 -191q0 -111 -71.5 -190t-175.5 -79q-60 0 -110.5 29.5t-79.5 78.5v-98h-78zM157 182q9 -48 58.5 -82t99.5 -34q77 0 128 58t51 135q0 79 -48.5 137.5t-122.5 58.5q-53 0 -97 -34.5t-69 -87.5v-151z" />
<glyph unicode="c" horiz-adv-x="554" d="M36 262q0 113 74 191t191 78q76 0 133.5 -34t86.5 -93l-86 -27q-20 37 -56 57.5t-80 20.5q-73 0 -123 -55t-50 -138q0 -82 51 -139t123 -57q45 0 86 24t53 57l86 -26q-24 -58 -84.5 -94.5t-138.5 -36.5q-115 0 -190.5 79.5t-75.5 192.5z" />
<glyph unicode="d" horiz-adv-x="631" d="M36 260q0 113 67.5 192t169.5 79q60 0 110.5 -31.5t80.5 -81.5v312h88v-622q0 -31 28 -32v-76q-28 -4 -35 -4q-29 0 -47.5 15.5t-19.5 37.5l-2 49q-31 -50 -82.5 -79t-108.5 -29q-107 0 -178 80t-71 190zM127 259q0 -79 52 -136t127 -57q49 0 99 35t59 82v150 q-19 51 -67.5 86.5t-98.5 35.5q-75 0 -123 -59t-48 -137z" />
<glyph unicode="e" horiz-adv-x="591" d="M36 261q0 112 75.5 191t191.5 79q115 0 188 -78.5t73 -187.5q0 -22 -2 -34h-433q6 -76 56.5 -125.5t119.5 -49.5q49 0 91 24t58 63l76 -21q-26 -59 -88 -95.5t-140 -36.5q-116 0 -191 79t-75 192zM127 296h354q-7 74 -57.5 121.5t-120.5 47.5t-120.5 -47.5t-55.5 -121.5z " />
<glyph unicode="f" horiz-adv-x="356" d="M28 392v69h71v72q0 96 43 151.5t117 55.5q64 0 115 -32l-22 -65q-32 22 -75 22t-66.5 -33.5t-23.5 -95.5v-75h139v-69h-139v-392h-88v392h-71z" />
<glyph unicode="g" horiz-adv-x="621" d="M37 260q0 113 68.5 192t173.5 79q119 0 195 -113v104h78v-516q0 -107 -75.5 -168t-190.5 -61q-158 0 -237 115l51 45q62 -92 186 -92q77 0 127.5 41.5t50.5 119.5v92q-29 -48 -79.5 -76t-106.5 -28q-104 0 -172.5 79.5t-68.5 186.5zM126 258q0 -79 52.5 -135.5 t126.5 -56.5q54 0 101 36t58 81v150q-21 53 -68 87.5t-99 34.5q-76 0 -123.5 -60t-47.5 -137z" />
<glyph unicode="h" horiz-adv-x="586" d="M69 0v730h88v-320q31 56 84.5 88.5t115.5 32.5q165 0 165 -219v-312h-88v292q0 160 -110 160q-53 0 -101.5 -39.5t-65.5 -97.5v-315h-88z" />
<glyph unicode="i" horiz-adv-x="226" d="M69 0v522h88v-522h-88zM69 620v110h88v-110h-88z" />
<glyph unicode="j" horiz-adv-x="226" d="M-125 -144l41 59q26 -23 69 -23q33 0 58.5 24.5t25.5 60.5v545h88v-539q0 -73 -48.5 -121t-113.5 -48q-74 0 -120 42zM69 620v110h88v-110h-88z" />
<glyph unicode="k" horiz-adv-x="536" d="M69 0v730h88v-480l268 271h97l-208 -216l218 -305h-95l-180 255l-100 -94v-161h-88z" />
<glyph unicode="l" horiz-adv-x="280" d="M71 103v627h88v-595q0 -29 15.5 -45.5t43.5 -16.5q25 0 54 12l14 -71q-51 -21 -105 -21q-51 0 -80.5 29t-29.5 81z" />
<glyph unicode="m" horiz-adv-x="920" d="M69 0v522h80v-112q32 58 83 89.5t115 31.5q63 0 103 -35t49 -92q70 127 199 127q158 0 158 -219v-312h-88v292q0 160 -105 160q-53 0 -96 -38.5t-61 -99.5v-314h-88v292q0 160 -104 160q-52 0 -95.5 -37.5t-61.5 -99.5v-315h-88z" />
<glyph unicode="n" horiz-adv-x="586" d="M69 0v522h80v-112q31 55 89.5 88t127.5 33q85 0 120.5 -58t35.5 -161v-312h-88v292q0 160 -103 160q-55 0 -105.5 -39.5t-68.5 -97.5v-315h-88z" />
<glyph unicode="o" horiz-adv-x="598" d="M36 260q0 112 74.5 191.5t188.5 79.5q115 0 189.5 -79.5t74.5 -191.5t-74.5 -191t-189.5 -79t-189 79t-74 191zM126 259q0 -81 50.5 -137t122.5 -56t123 56.5t51 138.5q0 81 -51 137.5t-123 56.5q-71 0 -122 -57t-51 -139z" />
<glyph unicode="p" horiz-adv-x="620" d="M69 -213v735h78v-98q31 49 81.5 78t108.5 29q105 0 176 -80.5t71 -189.5q0 -114 -66 -192.5t-168 -78.5q-62 0 -112 31t-81 82v-316h-88zM157 189q22 -53 68 -88t98 -35q75 0 123 58.5t48 136.5q0 80 -52 137t-127 57q-49 0 -99 -35t-59 -82v-149z" />
<glyph unicode="q" horiz-adv-x="620" d="M36 261q0 111 72 190.5t175 79.5q59 0 109.5 -29.5t80.5 -78.5v99h78v-623q0 -31 28 -32v-76q-19 -3 -42 -3q-31 0 -52.5 20t-21.5 50v245q-72 -113 -193 -113q-102 0 -168 80t-66 191zM126 259q0 -80 49.5 -136.5t124.5 -56.5q102 0 163 112v150q-9 50 -58.5 88.5 t-102.5 38.5q-75 0 -125.5 -59.5t-50.5 -136.5z" />
<glyph unicode="r" horiz-adv-x="362" d="M69 0v522h82v-121q28 56 72.5 90.5t92.5 34.5q22 0 29 -1v-80q-67 -2 -117 -34t-71 -89v-322h-88z" />
<glyph unicode="s" horiz-adv-x="493" d="M25 66l38 59q93 -70 189 -70q57 0 90.5 23t33.5 63q0 36 -31.5 53.5t-115.5 37.5q-102 25 -140.5 52t-38.5 85q0 76 56.5 119t143.5 43q117 0 196 -69l-40 -53q-65 58 -158 58q-51 0 -83 -21.5t-32 -64.5q0 -34 25 -49t98 -33q113 -27 159 -57t46 -93q0 -73 -56 -116 t-151 -43q-63 0 -124.5 20t-104.5 56z" />
<glyph unicode="t" horiz-adv-x="347" d="M24 453v69h71v174h88v-174h117v-69h-117v-324q1 -27 17.5 -41t41.5 -14q40 0 77 22l21 -70q-73 -33 -127 -33q-51 0 -84.5 27.5t-33.5 81.5v351h-71z" />
<glyph unicode="u" horiz-adv-x="603" d="M64 209v313h88v-296q0 -160 111 -160q55 0 102 35t70 94v327h88v-414q0 -31 28 -32v-76q-30 -4 -35 -4q-30 0 -47 14.5t-19 38.5l-3 63q-34 -58 -91.5 -90t-125.5 -32q-166 0 -166 219z" />
<glyph unicode="v" horiz-adv-x="534" d="M14 522h91l165 -445l166 445h84l-206 -522h-94z" />
<glyph unicode="w" horiz-adv-x="824" d="M13 522h84l180 -435l88 217l-90 217h73l64 -167l64 167h73l-89 -217l88 -217l179 435h85l-222 -522h-73l-105 255l-104 -255h-73z" />
<glyph unicode="x" horiz-adv-x="509" d="M10 0l196 260l-195 262h92l143 -192l8 -16l9 16l142 192h93l-195 -262l196 -260h-93l-143 191l-9 15l-8 -15l-143 -191h-93z" />
<glyph unicode="y" horiz-adv-x="543" d="M9 522h91l178 -443l162 443h84l-256 -659q-34 -88 -132 -88q-26 0 -44 5v77q27 -3 48 -3q20 0 37 26t53 120z" />
<glyph unicode="z" horiz-adv-x="487" d="M27 0v57l334 401h-325v64h419v-57l-332 -401h333v-64h-429z" />
<glyph unicode="{" horiz-adv-x="269" d="M49 329v64q19 0 30.5 19.5t11.5 37.5v260q0 16 7.5 23t15.5 7h112v-72h-55v-244q0 -38 -29 -64q29 -26 29 -64v-255h55v-72h-112q-23 0 -23 30v271q0 22 -12 39t-30 20z" />
<glyph unicode="|" horiz-adv-x="232" d="M78 -130v905h76v-905h-76z" />
<glyph unicode="}" horiz-adv-x="269" d="M44 -31v72h55v255q0 39 29 64q-29 26 -29 64v244h-55v72h112q4 0 8.5 -2t9.5 -9.5t5 -18.5v-260q0 -18 11.5 -37.5t30.5 -19.5v-64q-19 -3 -30.5 -20t-11.5 -39v-271q0 -15 -7.5 -22.5t-15.5 -7.5h-112z" />
<glyph unicode="~" horiz-adv-x="524" d="M62 237q0 8 6.5 24.5t19 37t37 35.5t54.5 15q33 0 85 -28.5t80 -28.5q23 0 40.5 12.5t23 23.5t5.5 16h52q0 -4 -3.5 -14.5t-13 -26.5t-22.5 -30.5t-35 -25t-48 -10.5q-36 0 -89 28t-76 28q-22 0 -38 -14.5t-21 -26t-5 -15.5h-52z" />
<glyph unicode="&#xa1;" horiz-adv-x="258" d="M85 -3v477h88v-477h-88zM85 590v124h88v-124h-88z" />
<glyph unicode="&#xa2;" horiz-adv-x="576" d="M45 258q0 105 64 182.5t170 89.5v115h44v-115q145 -4 207 -126l-85 -27q-39 70 -122 75v-384q39 3 77.5 25t48.5 54l86 -26q-24 -61 -88 -96t-124 -35v-110h-44v111q-100 8 -167 88.5t-67 178.5zM135 258q0 -67 41 -120.5t103 -65.5v377q-65 -8 -104.5 -64t-39.5 -127z " />
<glyph unicode="&#xa3;" horiz-adv-x="518" d="M54 56q64 60 91.5 107.5t27.5 96.5q0 24 -6 47h-113v68h87q-5 11 -20 39t-22 43t-14 39t-7 46q0 72 55.5 122.5t133.5 50.5q56 0 106.5 -28t82.5 -77l-49 -54q-24 39 -63 62.5t-79 23.5q-45 0 -75.5 -31t-30.5 -76q0 -24 9 -48.5t28.5 -59.5t27.5 -52h179v-68h-157 q4 -28 4 -43q0 -49 -22 -93.5t-76 -101.5q37 10 74 10q28 0 72.5 -9t67.5 -9q34 0 85 18l22 -67q-54 -27 -111 -27q-30 0 -85.5 12.5t-86.5 12.5q-55 0 -114 -18z" />
<glyph unicode="&#xa5;" horiz-adv-x="689" d="M30 710h98l215 -370l217 370h99l-204 -333h81v-60h-114l-34 -58v-28h149v-60h-149v-171h-90v171h-147v60h147v30l-32 56h-115v60h83z" />
<glyph unicode="&#xa6;" horiz-adv-x="236" d="M80 -130v403h76v-403h-76zM80 372v403h76v-403h-76z" />
<glyph unicode="&#xa7;" horiz-adv-x="518" d="M47 538q0 75 60.5 126t139.5 51q123 0 193 -104l-68 -32q-31 57 -120 57q-47 0 -81.5 -27t-34.5 -70q0 -88 117 -90q53 -1 97 -15t76 -51.5t32 -92.5q0 -57 -28 -89q43 -29 43 -104q0 -89 -65 -137t-143 -48q-116 0 -204 95l57 54q66 -65 144 -65q47 0 83.5 27t36.5 71 q0 31 -18.5 49.5t-40 23.5t-53.5 7q-92 5 -145.5 48.5t-53.5 118.5q0 50 24 82q-20 16 -34 46.5t-14 68.5zM157 330q0 -39 22.5 -60t50 -25.5t65 -9t53.5 -10.5q26 21 26 63q0 46 -36 67.5t-82 21.5t-77 13q-22 -22 -22 -60z" />
<glyph unicode="&#xa8;" horiz-adv-x="368" d="M66 624v102h74v-102h-74zM228 624v102h74v-102h-74z" />
<glyph unicode="&#xa9;" horiz-adv-x="839" d="M49 355q0 155 105 257.5t264 102.5q160 0 266.5 -102.5t106.5 -257.5t-106.5 -258.5t-266.5 -103.5q-159 0 -264 103.5t-105 258.5zM89 354q0 -138 94 -230.5t235 -92.5q142 0 237 90t95 232q0 139 -94.5 231.5t-237.5 92.5q-141 0 -235 -92.5t-94 -230.5zM187 355 q0 94 61.5 164.5t172.5 70.5q70 0 123.5 -30.5t77.5 -85.5l-85 -27q-31 67 -116 67q-67 0 -105.5 -47.5t-38.5 -111.5q0 -71 45.5 -114.5t100.5 -43.5q36 0 70.5 19t49.5 51l85 -26q-19 -46 -74 -83t-128 -37q-100 0 -169.5 66t-69.5 168z" />
<glyph unicode="&#xaa;" horiz-adv-x="437" d="M45 455q0 49 42 80.5t107 31.5q56 0 96 -17v25q0 40 -23.5 63t-65.5 23q-52 0 -113 -41l-23 45q70 46 142 46q73 0 113.5 -37.5t40.5 -106.5v-131q0 -23 21 -24v-62q-15 -3 -27 -3q-51 0 -53 39l-1 23q-51 -65 -137 -65q-50 0 -84.5 32t-34.5 79zM112 461 q0 -27 20.5 -45.5t51.5 -18.5q39 0 72.5 20.5t33.5 43.5v48q-34 15 -84 15q-42 0 -68 -17.5t-26 -45.5z" />
<glyph unicode="&#xab;" horiz-adv-x="599" d="M42 234v46l253 181v-74l-182 -128l182 -125v-74zM284 234v46l253 181v-74l-182 -128l182 -125v-74z" />
<glyph unicode="&#xac;" horiz-adv-x="597" d="M74 295v80h454v-255h-76v175h-378z" />
<glyph unicode="&#xad;" horiz-adv-x="580" d="M63 233v80h454v-80h-454z" />
<glyph unicode="&#xae;" horiz-adv-x="839" d="M49 355q0 155 105 257.5t265 102.5t266 -102.5t106 -257.5t-106 -258.5t-266 -103.5t-265 103.5t-105 258.5zM91 355q0 -139 93 -232t235 -93q141 0 235.5 91t94.5 233q0 138 -94 230.5t-236 92.5t-235 -92.5t-93 -229.5zM264 130v449h192q57 0 96.5 -44.5t39.5 -99.5 q0 -47 -27 -85t-69 -48l109 -172h-73l-102 162h-101v-162h-65zM329 349h124q35 0 55 24t20 62t-22 61.5t-56 23.5h-121v-171z" />
<glyph unicode="&#xaf;" horiz-adv-x="403" d="M56 654v58h292v-58h-292z" />
<glyph unicode="&#xb0;" horiz-adv-x="273" d="M47 637q0 37 25.5 62t63.5 25t63.5 -25t25.5 -62q0 -40 -25.5 -65.5t-63.5 -25.5t-63.5 26t-25.5 65zM94 635q0 -17 12.5 -29.5t29.5 -12.5t29.5 12.5t12.5 29.5q0 18 -12 30t-30 12t-30 -12t-12 -30z" />
<glyph unicode="&#xb1;" horiz-adv-x="464" d="M66 51v72h332v-72h-332zM66 332v72h126v136h80v-136h126v-72h-126v-136h-80v136h-126z" />
<glyph unicode="&#xb2;" horiz-adv-x="398" d="M35 320q0 77 29.5 119t97.5 69q8 3 26.5 10t28 10.5t24.5 10.5t23.5 13.5t17 15t12.5 19t4 22.5q0 30 -25 49t-72 19q-75 0 -126 -53l-36 39q16 21 60.5 44.5t109.5 23.5q73 0 112 -33.5t39 -89.5q0 -24 -10 -44t-22.5 -32.5t-34.5 -23.5t-35.5 -16t-35.5 -12 q-100 -33 -100 -106h231v-54h-318z" />
<glyph unicode="&#xb3;" horiz-adv-x="397" d="M34 400l32 38q3 -24 38.5 -46t86.5 -22q48 0 80 18t32 47q0 33 -40 50.5t-109 17.5h-23v51h23q135 0 135 62q0 29 -29.5 46.5t-70.5 17.5q-80 0 -115 -54l-37 43q19 29 61 45.5t91 16.5q68 0 113.5 -32t45.5 -80q0 -69 -92 -88q47 -7 75 -36t28 -68q0 -52 -48.5 -82.5 t-118.5 -30.5q-62 0 -105 23t-53 63z" />
<glyph unicode="&#xb4;" horiz-adv-x="232" d="M48 629l58 101h88l-88 -121z" />
<glyph unicode="&#xb5;" horiz-adv-x="610" d="M77 -212v734h88v-296q0 -160 113 -160q53 0 100.5 35t70.5 94v327h88v-414q0 -31 28 -32v-76q-30 -4 -36 -4q-28 0 -45.5 14.5t-19.5 38.5l-3 63q-25 -50 -78 -86t-110 -36q-85 0 -113 77v-279h-83z" />
<glyph unicode="&#xb6;" horiz-adv-x="615" d="M36 465q0 116 74.5 180.5t207.5 64.5h257v-68h-70v-722h-76v304h-67v-304h-76v304q-115 2 -182.5 66.5t-67.5 174.5zM111 467q0 -81 49.5 -125.5t125.5 -49.5v350q-84 -1 -129.5 -48t-45.5 -127zM362 292h67v350h-67v-350z" />
<glyph unicode="&#xb7;" horiz-adv-x="200" d="M63 245v124h74v-124h-74z" />
<glyph unicode="&#xb8;" horiz-adv-x="296" d="M22 -163l20 37q36 -19 88 -19q57 0 57 35t-51 35q-36 0 -80 -13l58 109l39 -14l-35 -55q14 5 36 5q36 0 57.5 -16.5t21.5 -47.5q0 -35 -28.5 -55t-81.5 -20q-52 0 -101 19z" />
<glyph unicode="&#xb9;" horiz-adv-x="280" d="M33 620v55q19 0 42.5 13.5t37.5 26.5t15 16h56v-356h74v-55h-210v55h80v294q-12 -15 -42.5 -32t-52.5 -17z" />
<glyph unicode="&#xba;" horiz-adv-x="447" d="M41 527q0 77 51 130.5t131 53.5t131 -53.5t51 -130.5q0 -75 -51 -129t-131 -54t-131 54t-51 129zM113 526q0 -51 32 -86t78 -35t78 35.5t32 87.5q0 51 -32 86t-78 35t-78 -35.5t-32 -87.5z" />
<glyph unicode="&#xbb;" horiz-adv-x="599" d="M62 60v74l182 125l-182 128v74l253 -181v-46zM304 60v74l182 125l-182 128v74l253 -181v-46z" />
<glyph unicode="&#xbc;" horiz-adv-x="861" d="M44 620v55q19 0 42.5 13.5t37.5 26.5t15 16h56v-356h74v-55h-210v55h80v294q-12 -15 -42.5 -32t-52.5 -17zM147 33l280 337l268 345l43 -37l-277 -335l-272 -348zM483 100v53l243 253h38v-252h59v-54h-59v-100h-55v100h-226zM540 154h171v180z" />
<glyph unicode="&#xbd;" horiz-adv-x="896" d="M47 620v55q19 0 42.5 13.5t37.5 26.5t15 16h56v-356h74v-55h-210v55h80v294q-12 -15 -42.5 -32t-52.5 -17zM113 33l280 337l268 345l43 -37l-277 -335l-272 -348zM540 0q0 77 28.5 119t94.5 69q8 3 29.5 11.5t31 12.5t26 12.5t24 16.5t13.5 20.5t6 26.5q0 31 -24 50 t-69 19q-73 0 -122 -54l-34 40q16 22 58.5 45t104.5 23q71 0 108.5 -33.5t37.5 -90.5q0 -30 -12 -52.5t-36 -37t-40 -21.5t-44 -16q-96 -32 -96 -106h229v-54h-314z" />
<glyph unicode="&#xbe;" horiz-adv-x="876" d="M43 400l32 38q3 -24 38.5 -46t86.5 -22q48 0 80 18t32 47q0 33 -40 50.5t-109 17.5h-23v51h23q135 0 135 62q0 29 -29.5 46.5t-70.5 17.5q-80 0 -115 -54l-37 43q19 29 61 45.5t91 16.5q68 0 113.5 -32t45.5 -80q0 -69 -92 -88q47 -7 75 -36t28 -68q0 -52 -48.5 -82.5 t-118.5 -30.5q-62 0 -105 23t-53 63zM181 33l280 337l268 345l43 -37l-277 -335l-272 -348zM493 100v53l243 253h38v-252h59v-54h-59v-100h-55v100h-226zM550 154h171v180z" />
<glyph unicode="&#xbf;" horiz-adv-x="475" d="M36 -21q0 36 9.5 64t29.5 49t38 33.5t49 29.5q26 14 37.5 21.5t29 24.5t24.5 40t7 54h74q0 -110 -84 -164q-5 -3 -31.5 -18.5t-38.5 -24.5t-31 -26.5t-27 -39t-8 -47.5q0 -54 36.5 -84.5t86.5 -30.5q48 0 87 27t61 68l59 -39q-26 -60 -83.5 -94.5t-125.5 -34.5 q-81 0 -140 50t-59 142zM258 390v116h74v-116h-74z" />
<glyph unicode="&#xc0;" horiz-adv-x="678" d="M11 0l292 710h74l291 -710h-96l-84 208h-298l-83 -208h-96zM208 278h260l-128 328zM236 917h87l59 -101l-57 -20z" />
<glyph unicode="&#xc1;" horiz-adv-x="678" d="M11 0l292 710h74l291 -710h-96l-84 208h-298l-83 -208h-96zM208 278h260l-128 328zM297 815l58 101h88l-88 -121z" />
<glyph unicode="&#xc2;" horiz-adv-x="678" d="M11 0l292 710h74l291 -710h-96l-84 208h-298l-83 -208h-96zM207 826l101 90h64l101 -90l-48 -24l-85 63l-85 -63zM208 278h260l-128 328z" />
<glyph unicode="&#xc3;" horiz-adv-x="678" d="M11 0l292 710h74l291 -710h-96l-84 208h-298l-83 -208h-96zM172 807q0 13 7.5 34.5t31.5 45t60 23.5q29 0 67 -21.5t62 -21.5q23 0 37 12.5t16.5 21.5t2.5 15h52q0 -25 -26 -64t-80 -39q-32 0 -71 21t-58 21q-20 0 -32 -12t-14.5 -21.5t-2.5 -14.5h-52zM208 278h260 l-128 328z" />
<glyph unicode="&#xc4;" horiz-adv-x="678" d="M11 0l292 710h74l291 -710h-96l-84 208h-298l-83 -208h-96zM208 278h260l-128 328zM222 811v102h74v-102h-74zM384 811v102h74v-102h-74z" />
<glyph unicode="&#xc5;" horiz-adv-x="678" d="M11 0l292 710h74l291 -710h-96l-84 208h-298l-83 -208h-96zM208 278h260l-128 328zM258 847q0 31 22.5 50t58.5 19t58.5 -19t22.5 -50t-22.5 -50t-58.5 -19t-58.5 19t-22.5 50zM299 847q0 -16 11.5 -27t28.5 -11q16 0 28.5 11t12.5 27q0 17 -11.5 27.5t-29.5 10.5 q-17 0 -28.5 -10.5t-11.5 -27.5z" />
<glyph unicode="&#xc6;" horiz-adv-x="988" d="M-5 0l453 710h488v-80h-375v-228h321v-80h-321v-242h384v-80h-473v208h-249l-130 -208h-98zM263 288h203v317z" />
<glyph unicode="&#xc7;" horiz-adv-x="684" d="M41 360q0 65 23 128t65 113.5t107.5 81.5t142.5 31q92 0 161 -42t103 -113l-71 -46q-29 63 -82.5 91.5t-114.5 28.5q-112 0 -177.5 -84t-65.5 -193q0 -113 71 -197t175 -84q61 0 117.5 31.5t85.5 93.5l75 -41q-30 -70 -102 -114t-154 -50l-27 -43q14 5 36 5 q36 0 57.5 -16.5t21.5 -47.5q0 -35 -28.5 -55t-81.5 -20q-52 0 -101 19l20 37q36 -19 88 -19q57 0 57 35t-51 35q-36 0 -80 -13l44 83q-134 8 -224 118.5t-90 246.5z" />
<glyph unicode="&#xc8;" horiz-adv-x="610" d="M85 0v710h473v-80h-383v-230h333v-75h-333v-245h392v-80h-482zM230 917h87l59 -101l-57 -20z" />
<glyph unicode="&#xc9;" horiz-adv-x="610" d="M85 0v710h473v-80h-383v-230h333v-75h-333v-245h392v-80h-482zM291 815l58 101h88l-88 -121z" />
<glyph unicode="&#xca;" horiz-adv-x="610" d="M85 0v710h473v-80h-383v-230h333v-75h-333v-245h392v-80h-482zM201 826l101 90h64l101 -90l-48 -24l-85 63l-85 -63z" />
<glyph unicode="&#xcb;" horiz-adv-x="610" d="M85 0v710h473v-80h-383v-230h333v-75h-333v-245h392v-80h-482zM216 811v102h74v-102h-74zM378 811v102h74v-102h-74z" />
<glyph unicode="&#xcc;" horiz-adv-x="260" d="M26 917h87l59 -101l-57 -20zM85 0v709h90v-709h-90z" />
<glyph unicode="&#xcd;" horiz-adv-x="260" d="M85 0v709h90v-709h-90zM87 815l58 101h88l-88 -121z" />
<glyph unicode="&#xce;" horiz-adv-x="260" d="M-3 826l101 90h64l101 -90l-48 -24l-85 63l-85 -63zM85 0v709h90v-709h-90z" />
<glyph unicode="&#xcf;" horiz-adv-x="260" d="M12 811v102h74v-102h-74zM85 0v709h90v-709h-90zM174 811v102h74v-102h-74z" />
<glyph unicode="&#xd0;" horiz-adv-x="723" d="M33 323v68h57v319h246q164 0 253.5 -100t89.5 -254q0 -162 -93.5 -259t-249.5 -97h-246v323h-57zM180 80h156q119 0 185.5 77t66.5 199q0 123 -67 198.5t-185 75.5h-156v-239h161v-68h-161v-243z" />
<glyph unicode="&#xd1;" horiz-adv-x="770" d="M85 0v710h70l440 -553v552h90v-709h-76l-434 542v-542h-90zM219 807q0 13 7.5 34.5t31.5 45t60 23.5q30 0 68 -21.5t61 -21.5t37 12.5t16.5 21.5t2.5 15h52q0 -25 -26 -64t-80 -39q-32 0 -71 21t-58 21q-20 0 -32 -12t-14.5 -21.5t-2.5 -14.5h-52z" />
<glyph unicode="&#xd2;" horiz-adv-x="751" d="M41 355q0 145 97.5 252.5t238.5 107.5q143 0 238 -110.5t95 -250.5q0 -145 -97 -252t-238 -107q-144 0 -239 109t-95 251zM132 355q0 -113 68.5 -196t175.5 -83q108 0 175.5 85t67.5 194q0 112 -69 195t-174 83q-108 0 -176 -84t-68 -194zM273 917h87l59 -101l-57 -20z " />
<glyph unicode="&#xd3;" horiz-adv-x="751" d="M41 355q0 145 97.5 252.5t238.5 107.5q143 0 238 -110.5t95 -250.5q0 -145 -97 -252t-238 -107q-144 0 -239 109t-95 251zM132 355q0 -113 68.5 -196t175.5 -83q108 0 175.5 85t67.5 194q0 112 -69 195t-174 83q-108 0 -176 -84t-68 -194zM334 815l58 101h88l-88 -121z " />
<glyph unicode="&#xd4;" horiz-adv-x="751" d="M41 355q0 145 97.5 252.5t238.5 107.5q143 0 238 -110.5t95 -250.5q0 -145 -97 -252t-238 -107q-144 0 -239 109t-95 251zM132 355q0 -113 68.5 -196t175.5 -83q108 0 175.5 85t67.5 194q0 112 -69 195t-174 83q-108 0 -176 -84t-68 -194zM244 826l101 90h64l101 -90 l-48 -24l-85 63l-85 -63z" />
<glyph unicode="&#xd5;" horiz-adv-x="751" d="M41 355q0 145 97.5 252.5t238.5 107.5q143 0 238 -110.5t95 -250.5q0 -145 -97 -252t-238 -107q-144 0 -239 109t-95 251zM132 355q0 -113 68.5 -196t175.5 -83q108 0 175.5 85t67.5 194q0 112 -69 195t-174 83q-108 0 -176 -84t-68 -194zM209 807q0 13 7.5 34.5t31.5 45 t60 23.5q30 0 68 -21.5t61 -21.5t37 12.5t16.5 21.5t2.5 15h52q0 -25 -26 -64t-80 -39q-32 0 -71 21t-58 21q-20 0 -32 -12t-14.5 -21.5t-2.5 -14.5h-52z" />
<glyph unicode="&#xd6;" horiz-adv-x="751" d="M41 355q0 145 97.5 252.5t238.5 107.5q143 0 238 -110.5t95 -250.5q0 -145 -97 -252t-238 -107q-144 0 -239 109t-95 251zM132 355q0 -113 68.5 -196t175.5 -83q108 0 175.5 85t67.5 194q0 112 -69 195t-174 83q-108 0 -176 -84t-68 -194zM259 811v102h74v-102h-74z M421 811v102h74v-102h-74z" />
<glyph unicode="&#xd7;" horiz-adv-x="467" d="M62 158l115 115l-113 114l56 55l113 -113l114 114l55 -56l-113 -114l116 -116l-56 -55l-116 116l-116 -116z" />
<glyph unicode="&#xd8;" horiz-adv-x="752" d="M41 355q0 145 97.5 252.5t238.5 107.5q88 0 161 -46l28 41h99l-62 -92q50 -53 78.5 -122.5t28.5 -141.5q0 -145 -97 -252t-238 -107q-90 0 -163 45l-27 -40h-98l61 91q-51 51 -79 120.5t-28 143.5zM132 355q0 -113 65 -192l295 437q-53 33 -116 33q-108 0 -176 -84 t-68 -194zM258 109q53 -33 118 -33q108 0 175.5 85t67.5 194t-65 190z" />
<glyph unicode="&#xd9;" horiz-adv-x="753" d="M74 351v359h90v-359q0 -56 10.5 -102.5t34 -86.5t66.5 -63t101 -23q59 0 102.5 23.5t66.5 64t33.5 86.5t10.5 101v359h90v-359q0 -75 -17 -137.5t-52 -112.5t-94.5 -78t-138.5 -28q-82 0 -142.5 29.5t-94.5 81t-50 112.5t-16 133zM273 917h87l59 -101l-57 -20z" />
<glyph unicode="&#xda;" horiz-adv-x="753" d="M74 351v359h90v-359q0 -56 10.5 -102.5t34 -86.5t66.5 -63t101 -23q59 0 102.5 23.5t66.5 64t33.5 86.5t10.5 101v359h90v-359q0 -75 -17 -137.5t-52 -112.5t-94.5 -78t-138.5 -28q-82 0 -142.5 29.5t-94.5 81t-50 112.5t-16 133zM334 815l58 101h88l-88 -121z" />
<glyph unicode="&#xdb;" horiz-adv-x="753" d="M74 351v359h90v-359q0 -56 10.5 -102.5t34 -86.5t66.5 -63t101 -23q59 0 102.5 23.5t66.5 64t33.5 86.5t10.5 101v359h90v-359q0 -75 -17 -137.5t-52 -112.5t-94.5 -78t-138.5 -28q-82 0 -142.5 29.5t-94.5 81t-50 112.5t-16 133zM244 826l101 90h64l101 -90l-48 -24 l-85 63l-85 -63z" />
<glyph unicode="&#xdc;" horiz-adv-x="753" d="M74 351v359h90v-359q0 -56 10.5 -102.5t34 -86.5t66.5 -63t101 -23q59 0 102.5 23.5t66.5 64t33.5 86.5t10.5 101v359h90v-359q0 -75 -17 -137.5t-52 -112.5t-94.5 -78t-138.5 -28q-82 0 -142.5 29.5t-94.5 81t-50 112.5t-16 133zM259 811v102h74v-102h-74zM421 811v102 h74v-102h-74z" />
<glyph unicode="&#xdd;" horiz-adv-x="637" d="M4 710h99l215 -370l217 370h98l-270 -451v-259h-90v261zM275 815l58 101h88l-88 -121z" />
<glyph unicode="&#xde;" horiz-adv-x="606" d="M85 0v710h90v-137h188q91 0 153 -69.5t62 -157.5q0 -92 -59 -160t-150 -68h-194v-118h-90zM175 198h190q54 0 88.5 44t34.5 104t-38 103.5t-91 43.5h-184v-295z" />
<glyph unicode="&#xdf;" horiz-adv-x="553" d="M69 0v517q0 87 58.5 142t148.5 55q81 0 135 -45t54 -116q0 -53 -29 -96.5t-71 -54.5q70 -15 110.5 -68t40.5 -126q0 -100 -76 -155t-201 -59v81q86 2 136 36t50 104q0 64 -41.5 103t-109.5 39h-19v80h18q48 0 78 28.5t30 74.5q0 48 -31 73t-77 25q-59 0 -89.5 -38.5 t-30.5 -96.5v-503h-84z" />
<glyph unicode="&#xe0;" d="M30 150q0 74 61.5 119t158.5 45q81 0 146 -26v42q0 64 -36.5 100.5t-101.5 36.5q-79 0 -166 -61l-29 57q101 68 205 68q100 0 158 -55.5t58 -154.5v-213q0 -31 28 -32v-76q-26 -4 -36 -4q-25 0 -45 13.5t-21 39.5l-2 37q-34 -46 -88.5 -71t-109.5 -25q-78 0 -129 46 t-51 114zM114 158q0 -42 32 -72t86 -30q41 0 81.5 17.5t63.5 44.5q19 22 19 41v77q-64 25 -132 25t-109 -28t-41 -75zM162 730h87l59 -101l-57 -20z" />
<glyph unicode="&#xe1;" d="M30 150q0 74 61.5 119t158.5 45q81 0 146 -26v42q0 64 -36.5 100.5t-101.5 36.5q-79 0 -166 -61l-29 57q101 68 205 68q100 0 158 -55.5t58 -154.5v-213q0 -31 28 -32v-76q-26 -4 -36 -4q-25 0 -45 13.5t-21 39.5l-2 37q-34 -46 -88.5 -71t-109.5 -25q-78 0 -129 46 t-51 114zM114 158q0 -42 32 -72t86 -30q41 0 81.5 17.5t63.5 44.5q19 22 19 41v77q-64 25 -132 25t-109 -28t-41 -75zM223 629l58 101h88l-88 -121z" />
<glyph unicode="&#xe2;" d="M30 150q0 74 61.5 119t158.5 45q81 0 146 -26v42q0 64 -36.5 100.5t-101.5 36.5q-79 0 -166 -61l-29 57q101 68 205 68q100 0 158 -55.5t58 -154.5v-213q0 -31 28 -32v-76q-26 -4 -36 -4q-25 0 -45 13.5t-21 39.5l-2 37q-34 -46 -88.5 -71t-109.5 -25q-78 0 -129 46 t-51 114zM114 158q0 -42 32 -72t86 -30q41 0 81.5 17.5t63.5 44.5q19 22 19 41v77q-64 25 -132 25t-109 -28t-41 -75zM133 640l101 90h64l101 -90l-48 -24l-85 63l-85 -63z" />
<glyph unicode="&#xe3;" d="M30 150q0 74 61.5 119t158.5 45q81 0 146 -26v42q0 64 -36.5 100.5t-101.5 36.5q-79 0 -166 -61l-29 57q101 68 205 68q100 0 158 -55.5t58 -154.5v-213q0 -31 28 -32v-76q-26 -4 -36 -4q-25 0 -45 13.5t-21 39.5l-2 37q-34 -46 -88.5 -71t-109.5 -25q-78 0 -129 46 t-51 114zM98 621q0 13 7.5 34.5t31.5 45t60 23.5q29 0 67 -21.5t62 -21.5q23 0 37 12.5t16.5 21.5t2.5 15h52q0 -25 -26 -64t-80 -39q-32 0 -71 21t-58 21q-20 0 -32 -12t-14.5 -21.5t-2.5 -14.5h-52zM114 158q0 -42 32 -72t86 -30q41 0 81.5 17.5t63.5 44.5q19 22 19 41v77 q-64 25 -132 25t-109 -28t-41 -75z" />
<glyph unicode="&#xe4;" d="M30 150q0 74 61.5 119t158.5 45q81 0 146 -26v42q0 64 -36.5 100.5t-101.5 36.5q-79 0 -166 -61l-29 57q101 68 205 68q100 0 158 -55.5t58 -154.5v-213q0 -31 28 -32v-76q-26 -4 -36 -4q-25 0 -45 13.5t-21 39.5l-2 37q-34 -46 -88.5 -71t-109.5 -25q-78 0 -129 46 t-51 114zM114 158q0 -42 32 -72t86 -30q41 0 81.5 17.5t63.5 44.5q19 22 19 41v77q-64 25 -132 25t-109 -28t-41 -75zM148 624v102h74v-102h-74zM310 624v102h74v-102h-74z" />
<glyph unicode="&#xe5;" d="M30 150q0 74 61.5 119t158.5 45q81 0 146 -26v42q0 64 -36.5 100.5t-101.5 36.5q-79 0 -166 -61l-29 57q101 68 205 68q100 0 158 -55.5t58 -154.5v-213q0 -31 28 -32v-76q-26 -4 -36 -4q-25 0 -45 13.5t-21 39.5l-2 37q-34 -46 -88.5 -71t-109.5 -25q-78 0 -129 46 t-51 114zM114 158q0 -42 32 -72t86 -30q41 0 81.5 17.5t63.5 44.5q19 22 19 41v77q-64 25 -132 25t-109 -28t-41 -75zM184 661q0 31 22.5 50t58.5 19t58.5 -19t22.5 -50t-22.5 -50t-58.5 -19t-58.5 19t-22.5 50zM225 661q0 -16 11.5 -27t28.5 -11q16 0 28.5 11t12.5 27 q0 17 -11.5 27.5t-29.5 10.5q-17 0 -28.5 -10.5t-11.5 -27.5z" />
<glyph unicode="&#xe6;" horiz-adv-x="934" d="M32 153q0 71 61 116t158 45q67 0 129 -20q4 42 14 66q-8 51 -43 79t-92 28q-78 0 -166 -61l-29 57q103 68 203 68q129 0 181 -95q73 95 195 95q116 0 190 -78.5t75 -191.5q0 -18 -2 -30h-443q6 -76 59 -125.5t127 -49.5q49 0 91 24t58 63l76 -21q-26 -59 -88 -95.5 t-140 -36.5q-69 0 -126 30.5t-92 82.5q-31 -56 -94 -84.5t-128 -28.5q-74 0 -124 47t-50 116zM115 160q0 -44 33 -74t81 -30q47 0 87.5 17.5t62.5 46.5q17 17 19 35q-16 32 -18 87q-57 19 -116 19q-66 0 -107.5 -28t-41.5 -73zM462 288h362q-6 78 -57 127.5t-125 49.5 t-124.5 -50t-55.5 -127z" />
<glyph unicode="&#xe7;" horiz-adv-x="556" d="M37 262q0 113 74 191t191 78q76 0 133.5 -34t86.5 -93l-86 -27q-20 37 -56 57.5t-80 20.5q-73 0 -123 -55t-50 -138q0 -82 51 -139t123 -57q45 0 86 24t53 57l86 -26q-22 -53 -76 -88.5t-124 -41.5l-25 -39q14 5 36 5q36 0 57.5 -16.5t21.5 -47.5q0 -35 -28.5 -55 t-81.5 -20q-52 0 -101 19l20 37q36 -19 88 -19q57 0 57 35t-51 35q-36 0 -80 -13l42 79q-107 8 -175.5 86t-68.5 185z" />
<glyph unicode="&#xe8;" horiz-adv-x="591" d="M36 261q0 112 75.5 191t191.5 79q115 0 188 -78.5t73 -187.5q0 -22 -2 -34h-433q6 -76 56.5 -125.5t119.5 -49.5q49 0 91 24t58 63l76 -21q-26 -59 -88 -95.5t-140 -36.5q-116 0 -191 79t-75 192zM127 296h354q-7 74 -57.5 121.5t-120.5 47.5t-120.5 -47.5t-55.5 -121.5z M195 730h87l59 -101l-57 -20z" />
<glyph unicode="&#xe9;" horiz-adv-x="591" d="M36 261q0 112 75.5 191t191.5 79q115 0 188 -78.5t73 -187.5q0 -22 -2 -34h-433q6 -76 56.5 -125.5t119.5 -49.5q49 0 91 24t58 63l76 -21q-26 -59 -88 -95.5t-140 -36.5q-116 0 -191 79t-75 192zM127 296h354q-7 74 -57.5 121.5t-120.5 47.5t-120.5 -47.5t-55.5 -121.5z M256 629l58 101h88l-88 -121z" />
<glyph unicode="&#xea;" horiz-adv-x="591" d="M36 261q0 112 75.5 191t191.5 79q115 0 188 -78.5t73 -187.5q0 -22 -2 -34h-433q6 -76 56.5 -125.5t119.5 -49.5q49 0 91 24t58 63l76 -21q-26 -59 -88 -95.5t-140 -36.5q-116 0 -191 79t-75 192zM127 296h354q-7 74 -57.5 121.5t-120.5 47.5t-120.5 -47.5t-55.5 -121.5z M166 640l101 90h64l101 -90l-48 -24l-85 63l-85 -63z" />
<glyph unicode="&#xeb;" horiz-adv-x="591" d="M36 261q0 112 75.5 191t191.5 79q115 0 188 -78.5t73 -187.5q0 -22 -2 -34h-433q6 -76 56.5 -125.5t119.5 -49.5q49 0 91 24t58 63l76 -21q-26 -59 -88 -95.5t-140 -36.5q-116 0 -191 79t-75 192zM127 296h354q-7 74 -57.5 121.5t-120.5 47.5t-120.5 -47.5t-55.5 -121.5z M181 624v102h74v-102h-74zM343 624v102h74v-102h-74z" />
<glyph unicode="&#xec;" horiz-adv-x="226" d="M9 730h87l59 -101l-57 -20zM69 0v522h88v-522h-88z" />
<glyph unicode="&#xed;" horiz-adv-x="226" d="M69 0v522h88v-522h-88zM70 629l58 101h88l-88 -121z" />
<glyph unicode="&#xee;" horiz-adv-x="226" d="M-20 640l101 90h64l101 -90l-48 -24l-85 63l-85 -63zM69 0v522h88v-522h-88z" />
<glyph unicode="&#xef;" horiz-adv-x="226" d="M-5 624v102h74v-102h-74zM69 0v522h88v-522h-88zM157 624v102h74v-102h-74z" />
<glyph unicode="&#xf0;" horiz-adv-x="606" d="M38 233q0 99 71.5 169.5t172.5 70.5q62 0 114 -28.5t79 -76.5q-22 131 -116 228l-107 -64l-27 37l99 59q-59 52 -148 102h124q51 -30 93 -68l84 51l27 -37l-78 -46q72 -76 105.5 -166.5t33.5 -173.5q0 -135 -78 -217.5t-191 -82.5q-106 0 -182 71t-76 172zM128 233 q0 -70 50 -118.5t121 -48.5q73 0 124.5 51t51.5 122q0 69 -50 115.5t-122 46.5q-73 0 -124 -49t-51 -119z" />
<glyph unicode="&#xf1;" horiz-adv-x="586" d="M69 0v522h80v-112q31 55 89.5 88t127.5 33q85 0 120.5 -58t35.5 -161v-312h-88v292q0 160 -103 160q-55 0 -105.5 -39.5t-68.5 -97.5v-315h-88zM133 621q0 13 7.5 34.5t31.5 45t60 23.5q30 0 68 -21.5t61 -21.5t37 12.5t16.5 21.5t2.5 15h52q0 -25 -26 -64t-80 -39 q-32 0 -71 21t-58 21q-20 0 -32 -12t-14.5 -21.5t-2.5 -14.5h-52z" />
<glyph unicode="&#xf2;" horiz-adv-x="598" d="M36 260q0 112 74.5 191.5t188.5 79.5q115 0 189.5 -79.5t74.5 -191.5t-74.5 -191t-189.5 -79t-189 79t-74 191zM126 259q0 -81 50.5 -137t122.5 -56t123 56.5t51 138.5q0 81 -51 137.5t-123 56.5q-71 0 -122 -57t-51 -139zM196 730h87l59 -101l-57 -20z" />
<glyph unicode="&#xf3;" horiz-adv-x="598" d="M36 260q0 112 74.5 191.5t188.5 79.5q115 0 189.5 -79.5t74.5 -191.5t-74.5 -191t-189.5 -79t-189 79t-74 191zM126 259q0 -81 50.5 -137t122.5 -56t123 56.5t51 138.5q0 81 -51 137.5t-123 56.5q-71 0 -122 -57t-51 -139zM256 629l58 101h88l-88 -121z" />
<glyph unicode="&#xf4;" horiz-adv-x="598" d="M36 260q0 112 74.5 191.5t188.5 79.5q115 0 189.5 -79.5t74.5 -191.5t-74.5 -191t-189.5 -79t-189 79t-74 191zM126 259q0 -81 50.5 -137t122.5 -56t123 56.5t51 138.5q0 81 -51 137.5t-123 56.5q-71 0 -122 -57t-51 -139zM166 640l101 90h64l101 -90l-48 -24l-85 63 l-85 -63z" />
<glyph unicode="&#xf5;" horiz-adv-x="598" d="M36 260q0 112 74.5 191.5t188.5 79.5q115 0 189.5 -79.5t74.5 -191.5t-74.5 -191t-189.5 -79t-189 79t-74 191zM126 259q0 -81 50.5 -137t122.5 -56t123 56.5t51 138.5q0 81 -51 137.5t-123 56.5q-71 0 -122 -57t-51 -139zM132 621q0 13 7.5 34.5t31.5 45t60 23.5 q29 0 67 -21.5t62 -21.5q23 0 37 12.5t16.5 21.5t2.5 15h52q0 -25 -26 -64t-80 -39q-32 0 -71 21t-58 21q-20 0 -32 -12t-14.5 -21.5t-2.5 -14.5h-52z" />
<glyph unicode="&#xf6;" horiz-adv-x="598" d="M36 260q0 112 74.5 191.5t188.5 79.5q115 0 189.5 -79.5t74.5 -191.5t-74.5 -191t-189.5 -79t-189 79t-74 191zM126 259q0 -81 50.5 -137t122.5 -56t123 56.5t51 138.5q0 81 -51 137.5t-123 56.5q-71 0 -122 -57t-51 -139zM181 624v102h74v-102h-74zM343 624v102h74v-102 h-74z" />
<glyph unicode="&#xf7;" horiz-adv-x="527" d="M62 251v72h403v-72h-403zM226 66v102h75v-102h-75zM226 405v102h75v-102h-75z" />
<glyph unicode="&#xf8;" horiz-adv-x="598" d="M36 260q0 112 74.5 191.5t188.5 79.5q76 0 138 -38l24 31h56l-45 -57q91 -81 91 -207q0 -112 -74.5 -191t-189.5 -79q-78 0 -140 39l-24 -31h-55l45 56q-89 79 -89 206zM126 259q0 -84 52 -139l211 307q-44 28 -90 28q-71 0 -122 -57t-51 -139zM208 94q40 -28 91 -28 q72 0 123 56.5t51 138.5q0 81 -53 139z" />
<glyph unicode="&#xf9;" horiz-adv-x="603" d="M64 209v313h88v-296q0 -160 111 -160q55 0 102 35t70 94v327h88v-414q0 -31 28 -32v-76q-30 -4 -35 -4q-30 0 -47 14.5t-19 38.5l-3 63q-34 -58 -91.5 -90t-125.5 -32q-166 0 -166 219zM189 730h87l59 -101l-57 -20z" />
<glyph unicode="&#xfa;" horiz-adv-x="603" d="M64 209v313h88v-296q0 -160 111 -160q55 0 102 35t70 94v327h88v-414q0 -31 28 -32v-76q-30 -4 -35 -4q-30 0 -47 14.5t-19 38.5l-3 63q-34 -58 -91.5 -90t-125.5 -32q-166 0 -166 219zM249 629l58 101h88l-88 -121z" />
<glyph unicode="&#xfb;" horiz-adv-x="603" d="M64 209v313h88v-296q0 -160 111 -160q55 0 102 35t70 94v327h88v-414q0 -31 28 -32v-76q-30 -4 -35 -4q-30 0 -47 14.5t-19 38.5l-3 63q-34 -58 -91.5 -90t-125.5 -32q-166 0 -166 219zM159 640l101 90h64l101 -90l-48 -24l-85 63l-85 -63z" />
<glyph unicode="&#xfc;" horiz-adv-x="603" d="M64 209v313h88v-296q0 -160 111 -160q55 0 102 35t70 94v327h88v-414q0 -31 28 -32v-76q-30 -4 -35 -4q-30 0 -47 14.5t-19 38.5l-3 63q-34 -58 -91.5 -90t-125.5 -32q-166 0 -166 219zM174 624v102h74v-102h-74zM336 624v102h74v-102h-74z" />
<glyph unicode="&#xfd;" horiz-adv-x="543" d="M9 522h91l178 -443l162 443h84l-256 -659q-34 -88 -132 -88q-26 0 -44 5v77q27 -3 48 -3q20 0 37 26t53 120zM235 629l58 101h88l-88 -121z" />
<glyph unicode="&#xfe;" horiz-adv-x="601" d="M69 -213v923h90v-261q60 85 158 85q110 0 179.5 -85.5t69.5 -191.5q-2 -110 -77 -192.5t-181 -82.5q-49 0 -89 22.5t-60 55.5v-273h-90zM159 173q0 -41 49 -76t98 -35q72 0 121 58.5t49 137.5q0 80 -46 138t-118 58q-97 0 -153 -110v-171z" />
<glyph unicode="&#xff;" horiz-adv-x="543" d="M9 522h91l178 -443l162 443h84l-256 -659q-34 -88 -132 -88q-26 0 -44 5v77q27 -3 48 -3q20 0 37 26t53 120zM160 624v102h74v-102h-74zM322 624v102h74v-102h-74z" />
<glyph unicode="&#x152;" horiz-adv-x="1139" d="M41 355q0 145 97.5 252.5t238.5 107.5q81 0 145.5 -45.5t99.5 -116.5v157h465v-80h-375v-228h321v-80h-321v-242h384v-80h-474v157q-35 -72 -101 -117t-145 -45q-144 0 -239.5 109t-95.5 251zM132 355q0 -113 68.5 -196t175.5 -83q108 0 175.5 84.5t67.5 195.5 q0 112 -69 195t-174 83q-108 0 -176 -84.5t-68 -194.5z" />
<glyph unicode="&#x153;" horiz-adv-x="1029" d="M36 259q0 116 75.5 194t187.5 78q73 0 131 -40.5t87 -111.5q31 73 88 112.5t133 39.5q112 0 183.5 -74t78.5 -196q0 -24 -1 -30h-433q6 -74 58.5 -125t124.5 -51q51 0 93 24.5t57 63.5l74 -21q-27 -59 -90 -95.5t-138 -36.5q-70 0 -130 40t-97 109q-78 -149 -220 -149 q-112 0 -187 77.5t-75 191.5zM126 258q0 -82 50 -137t123 -55t123.5 56t50.5 138t-50 138.5t-123 56.5t-123.5 -57.5t-50.5 -139.5zM564 288h351q-5 77 -56.5 127t-122.5 50t-119.5 -50t-52.5 -127z" />
<glyph unicode="&#x178;" horiz-adv-x="637" d="M4 710h99l215 -370l217 370h98l-270 -451v-259h-90v261zM200 811v102h74v-102h-74zM362 811v102h74v-102h-74z" />
<glyph unicode="&#x2c6;" horiz-adv-x="342" d="M38 640l101 90h64l101 -90l-48 -24l-85 63l-85 -63z" />
<glyph unicode="&#x2dc;" horiz-adv-x="415" d="M40 621q0 13 7.5 34.5t31.5 45t60 23.5q29 0 67.5 -21.5t61.5 -21.5t37 12.5t16.5 21.5t2.5 15h52q0 -25 -26 -64t-80 -39q-32 0 -71 21t-58 21q-20 0 -32 -12t-14.5 -21.5t-2.5 -14.5h-52z" />
<glyph unicode="&#x2000;" horiz-adv-x="458" />
<glyph unicode="&#x2001;" horiz-adv-x="917" />
<glyph unicode="&#x2002;" horiz-adv-x="458" />
<glyph unicode="&#x2003;" horiz-adv-x="917" />
<glyph unicode="&#x2004;" horiz-adv-x="305" />
<glyph unicode="&#x2005;" horiz-adv-x="229" />
<glyph unicode="&#x2006;" horiz-adv-x="152" />
<glyph unicode="&#x2007;" horiz-adv-x="152" />
<glyph unicode="&#x2008;" horiz-adv-x="114" />
<glyph unicode="&#x2009;" horiz-adv-x="183" />
<glyph unicode="&#x200a;" horiz-adv-x="50" />
<glyph unicode="&#x2010;" horiz-adv-x="421" d="M63 233v80h295v-80h-295z" />
<glyph unicode="&#x2011;" horiz-adv-x="421" d="M63 233v80h295v-80h-295z" />
<glyph unicode="&#x2012;" horiz-adv-x="421" d="M63 233v80h295v-80h-295z" />
<glyph unicode="&#x2013;" horiz-adv-x="580" d="M63 233v80h454v-80h-454z" />
<glyph unicode="&#x2014;" horiz-adv-x="909" d="M63 233v80h783v-80h-783z" />
<glyph unicode="&#x2018;" horiz-adv-x="212" d="M54 606v124h74v-110q0 -24 25 -24v-65q-40 0 -69.5 18t-29.5 57z" />
<glyph unicode="&#x2019;" horiz-adv-x="212" d="M50 665v65q40 0 69.5 -18t29.5 -57v-124h-74v110q0 24 -25 24z" />
<glyph unicode="&#x201a;" horiz-adv-x="214" d="M48 -16q25 0 25 24v104h73v-118q0 -39 -29.5 -57t-68.5 -18v65z" />
<glyph unicode="&#x201c;" horiz-adv-x="359" d="M54 606v124h74v-110q0 -24 25 -24v-65q-40 0 -69.5 18t-29.5 57zM202 606v124h74v-110q0 -24 25 -24v-65q-40 0 -69.5 18t-29.5 57z" />
<glyph unicode="&#x201d;" horiz-adv-x="360" d="M50 665v65q40 0 69.5 -18t29.5 -57v-124h-74v110q0 24 -25 24zM198 665v65q40 0 69.5 -18t29.5 -57v-124h-74v110q0 24 -25 24z" />
<glyph unicode="&#x201e;" horiz-adv-x="351" d="M48 -16q25 0 25 24v104h73v-118q0 -39 -29.5 -57t-68.5 -18v65zM185 -16q25 0 25 24v104h73v-118q0 -39 -29.5 -57t-68.5 -18v65z" />
<glyph unicode="&#x2022;" horiz-adv-x="357" d="M85 347q0 38 28 66t66 28q39 0 66.5 -28t27.5 -66q0 -39 -27.5 -66.5t-66.5 -27.5q-38 0 -66 27.5t-28 66.5z" />
<glyph unicode="&#x2026;" horiz-adv-x="501" d="M63 0v112h74v-112h-74zM214 0v112h73v-112h-73zM364 0v112h74v-112h-74z" />
<glyph unicode="&#x202f;" horiz-adv-x="183" />
<glyph unicode="&#x2039;" horiz-adv-x="357" d="M42 234v46l253 181v-74l-182 -128l182 -125v-74z" />
<glyph unicode="&#x203a;" horiz-adv-x="357" d="M62 60v74l182 125l-182 128v74l253 -181v-46z" />
<glyph unicode="&#x205f;" horiz-adv-x="229" />
<glyph unicode="&#x20ac;" horiz-adv-x="796" d="M34 259l22 52h78q-3 24 -3 59h-73l22 52h56q21 122 109.5 207t223.5 85q92 0 161 -42t103 -113l-71 -46q-29 63 -82.5 91.5t-114.5 28.5q-94 0 -156 -60.5t-81 -150.5h315l-22 -52h-299q0 -38 3 -59h283l-22 -52h-249q26 -81 88.5 -132.5t142.5 -51.5q61 0 117.5 31.5 t85.5 93.5l75 -41q-32 -76 -113.5 -120.5t-168.5 -44.5q-115 0 -201 76t-118 189h-111z" />
<glyph unicode="&#x2122;" horiz-adv-x="756" d="M59 652v60h250v-60h-95v-232h-60v232h-95zM355 420v290h85l77 -178l77 178h86v-290h-60v208l-78 -166h-49l-78 166v-208h-60z" />
<glyph unicode="&#xe000;" horiz-adv-x="520" d="M0 0v520h520v-520h-520z" />
</font>
</defs>
</svg>
