<?xml version="1.0" standalone="no"?>
<!DOCTYPE svg PUBLIC "-//W3C//DTD SVG 1.1//EN" "http://www.w3.org/Graphics/SVG/1.1/DTD/svg11.dtd" >
<svg xmlns="http://www.w3.org/2000/svg">
<metadata></metadata>
<defs>
<font id="latin_modern_sans10_oblique" horiz-adv-x="500" >
<font-face units-per-em="1000" ascent="806" descent="-194" />
<missing-glyph horiz-adv-x="333" />
<glyph unicode="&#xfb01;" horiz-adv-x="536" d="M101 0l82 386h-74l12 58h74l20 91q16 74 64.5 122t104.5 48q25 0 58 -11l-15 -68q-25 18 -56 18q-24 0 -46.5 -18t-31.5 -61l-26 -121h121l-12 -58h-118l-82 -386h-75zM378 0l94 444h75l-94 -444h-75zM504 612l18 83h83l-18 -83h-83z" />
<glyph unicode="&#xfb02;" horiz-adv-x="536" d="M101 0l82 386h-74l12 58h74l20 91q16 74 64.5 122t104.5 48q25 0 58 -11l-15 -67q-23 17 -56 17q-24 0 -46.5 -18t-31.5 -61l-26 -121h121l-12 -58h-118l-82 -386h-75zM378 0l148 694h75l-148 -694h-75z" />
<glyph unicode="&#xfb03;" horiz-adv-x="814" d="M101 0l82 386h-74l12 58h74l20 90q16 75 68.5 123t116.5 48q36 0 67 -11l-15 -67q-29 17 -66 17q-16 0 -32 -4.5t-35 -24t-26 -51.5l-26 -120h121l-12 -58h-118l-82 -386h-75zM379 0l114 535q16 74 64.5 122t104.5 48q32 0 58 -10l-15 -68q-23 17 -56 17q-24 0 -46.5 -18 t-31.5 -61l-26 -121h121l-12 -58h-118l-82 -386h-75zM656 0l94 444h75l-94 -444h-75zM782 612l18 83h83l-18 -83h-83z" />
<glyph unicode="&#xfb04;" horiz-adv-x="814" d="M101 0l82 386h-74l12 58h74l20 90q16 75 68.5 123t116.5 48q36 0 67 -11l-15 -67q-29 17 -66 17q-16 0 -32 -4.5t-35 -24t-26 -51.5l-26 -120h121l-12 -58h-118l-82 -386h-75zM379 0l114 535q16 74 64.5 122t104.5 48q25 0 58 -11l-15 -67q-23 17 -56 17q-24 0 -46.5 -18 t-31.5 -61l-26 -121h121l-12 -58h-118l-82 -386h-75zM656 0l148 694h75l-148 -694h-75z" />
<glyph horiz-adv-x="1000" />
<glyph horiz-adv-x="1000" />
<glyph unicode="&#xd;" horiz-adv-x="1000" />
<glyph unicode=" "  horiz-adv-x="333" />
<glyph unicode="&#x09;" horiz-adv-x="333" />
<glyph unicode="&#xa0;" horiz-adv-x="333" />
<glyph unicode="!" horiz-adv-x="319" d="M118 0l18 83h83l-18 -83h-83zM163 175q20 100 57 286.5t46 232.5h83l-110 -476l-9 -43h-67z" />
<glyph unicode="&#x22;" horiz-adv-x="434" d="M191 430l61 286h78l-61 -286h-78zM347 430l61 286h78l-61 -286h-78z" />
<glyph unicode="#" horiz-adv-x="833" d="M88 150q4 20 38 20h170l76 160h-212q-10 0 -16 0.5t-11 5.5t-3 14q5 20 38 20h225l143 300q13 24 28 24q8 0 12.5 -6t2.5 -14q-3 -13 -8 -18l-137 -286h188l143 300q13 24 28 24q8 0 12.5 -6t2.5 -14q-3 -13 -8 -18l-137 -286h159q10 0 15.5 -0.5t10 -5.5t2.5 -14 q-4 -20 -38 -20h-170l-76 -160h212q10 0 16 -0.5t11 -5.5t3 -14q-4 -20 -37 -20h-225l-144 -300q-11 -24 -27 -24q-10 0 -13.5 7.5t-1.5 16.5t7 14l138 286h-188l-144 -300q-11 -24 -27 -24q-10 0 -13.5 7.5t-1.5 16.5t7 14l138 286h-159q-10 0 -15.5 0.5t-10.5 5.5t-3 14z M337 170h188l76 160h-188z" />
<glyph unicode="$" d="M56 58l27 68q57 -62 149 -72l57 268q-39 10 -66.5 29t-40 40t-17.5 46t-4 42.5t4 33.5q14 65 68.5 120.5t136.5 69.5l10 47h58l-9 -46q74 -5 136 -55l-26 -66q-52 50 -124 57l-51 -241q76 -16 105.5 -75.5t14.5 -128.5q-15 -74 -73 -132.5t-134 -70.5l-10 -48h-58l10 46 q-91 9 -163 68zM241 526q-8 -35 8 -67.5t60 -44.5l48 224q-45 -10 -76.5 -41.5t-39.5 -70.5zM291 57q47 13 78 48.5t40 76.5q9 44 -9 79.5t-56 46.5z" />
<glyph unicode="%" horiz-adv-x="833" d="M168 -36l11 18l595 752q13 16 24 16q8 0 13 -6t3 -14q-2 -7 -12 -18l-594 -752q-11 -16 -24 -16q-8 0 -12.5 6t-3.5 14zM173 549q18 86 72 143.5t110 57.5q55 0 84 -57.5t10 -144.5q-18 -85 -71 -143t-108 -58t-85.5 57.5t-11.5 144.5zM247 548q-8 -39 -8 -67t4.5 -41.5 t14 -21.5t14.5 -9t11 -1q29 0 57 41t41 100q12 55 1 97.5t-40 42.5q-6 0 -12.5 -1.5t-18.5 -10t-22.5 -22.5t-22 -41.5t-19.5 -65.5zM530 146q18 86 72.5 143.5t110.5 57.5q54 0 83 -57.5t11 -144.5q-18 -85 -71.5 -143t-108.5 -58t-85 57.5t-12 144.5zM605 145 q-8 -39 -8 -67t4.5 -41.5t13.5 -21.5t14 -9t11 -1q29 0 57.5 41.5t40.5 99.5q13 55 2 97.5t-40 42.5q-6 0 -12.5 -1.5t-18.5 -10t-22.5 -22.5t-22 -41.5t-19.5 -65.5z" />
<glyph unicode="&#x26;" horiz-adv-x="758" d="M73 146q13 62 69 111q7 7 29 23l49.5 36t35.5 26l11 11q1 3 -1 10q-9 87 6 155q18 83 68 140.5t112 57.5q57 0 83 -48t13 -109q-10 -47 -57 -97t-140 -119q29 -109 109 -221q66 45 128 123q57 69 101 160l58 -18q-98 -198 -248 -308q44 -37 96 -37q58 0 119 18l-14 -67 q-64 -15 -120 -15q-85 0 -148 58q-116 -58 -212 -58q-78 0 -120 49.5t-27 118.5zM153 153q-9 -43 11.5 -77t70.5 -34q74 0 155 38q-8 10 -26 38t-44 79.5t-39 94.5q-2 -1 -22 -16t-37.5 -27.5t-17.5 -13.5q-41 -32 -51 -82zM340 404q63 48 97 84.5t42 71.5q1 15 3 36t-9 40 t-35 19q-27 0 -55 -26t-39 -77l-2 -8q-1 -9 -2.5 -18.5t-2.5 -24.5t-1.5 -29.5t0.5 -32.5t4 -35z" />
<glyph unicode="'" horiz-adv-x="278" d="M191 430l61 286h78l-61 -286h-78z" />
<glyph unicode="(" horiz-adv-x="389" d="M132 250q36 163 108 286q33 56 75 105t62.5 66.5t52.5 42.5h61q-106 -87 -175 -209q-71 -126 -106 -291q-20 -92 -22.5 -172t5 -129.5t26.5 -95t31 -63.5t29 -40h-61q-155 175 -86 500z" />
<glyph unicode=")" horiz-adv-x="389" d="M3 -250q108 89 175 209q71 126 106 291q20 92 22.5 172t-5 129.5t-26.5 95t-31 63.5t-29 40h61q155 -175 86 -500q-32 -158 -108 -286q-33 -56 -75 -105t-62.5 -66.5t-52.5 -42.5h-61z" />
<glyph unicode="*" d="M157 436q3 13 9.5 19t23.5 14l121 59q-30 18 -56.5 34t-37.5 22.5t-13 8.5q-12 9 -8 27q3 17 16 26.5t25 9.5t25 -11l83 -69q1 8 10 66t12 73q3 17 15.5 26t26.5 9q12 0 21.5 -8.5t5.5 -26.5q-7 -37 -38 -139l111 67q21 13 31 13q12 0 21 -9.5t6 -26.5q-3 -13 -9.5 -19 t-23.5 -14l-122 -59q29 -18 56.5 -34.5l37.5 -22.5t13 -8q12 -9 9 -27q-3 -17 -16.5 -26.5t-25.5 -9.5q-11 0 -29 16l-79 64q-14 -106 -22 -139q-3 -17 -15.5 -26t-26.5 -9q-12 0 -21 8.5t-6 26.5q3 15 19.5 73t18.5 66l-110 -67q-21 -13 -32 -13q-12 0 -20.5 9.5t-5.5 26.5 z" />
<glyph unicode="+" horiz-adv-x="778" d="M109 250q4 20 37 20h280l60 280q7 33 27 33t13 -33l-60 -280h279q10 0 15.5 -0.5t10.5 -5.5t3 -14q-4 -20 -37 -20h-279l-60 -280q-7 -33 -27 -33t-13 33l60 280h-280q-10 0 -15.5 0.5t-10.5 5.5t-3 14z" />
<glyph unicode="," horiz-adv-x="278" d="M70 -125l52 125h-25l18 83h83l-18 -82l-69 -126h-41z" />
<glyph unicode="-" horiz-adv-x="333" d="M52 193l12 58h265l-12 -58h-265z" />
<glyph unicode="." horiz-adv-x="278" d="M97 0l18 83h83l-18 -83h-83z" />
<glyph unicode="/" d="M7 -230q1 5 9 18l541 942q10 20 25 20q8 0 13 -6t3 -14q-1 -5 -9 -18l-541 -942q-10 -20 -25 -20q-8 0 -13 6t-3 14z" />
<glyph unicode="0" d="M97 101q-15 80 14 225q32 151 88 236q78 116 195 116q44 0 83.5 -23.5t56.5 -75.5q27 -89 -8 -253q-31 -151 -90 -238q-35 -52 -86 -81t-106 -29q-50 0 -91.5 28.5t-55.5 94.5zM169 149q3 -53 26.5 -81.5t62.5 -28.5q81 0 134 107q32 65 59 192q27 129 20 185 q-16 94 -91 94q-80 0 -133 -101q-30 -57 -55 -178q-27 -126 -23 -189z" />
<glyph unicode="1" d="M95 0l12 58h125l111 520q-57 -22 -136 -24l12 58q132 5 204 66h20l-132 -620h125l-12 -58h-329z" />
<glyph unicode="2" d="M50 0l14 64q181 150 242 195q48 40 72 62t51.5 61t35.5 79q14 62 -15.5 107.5t-96.5 45.5q-61 0 -99.5 -41t-72.5 -114q-10 19 -16 29.5t-14 25.5q82 164 229 164q96 0 141 -63t26 -152q-8 -39 -33.5 -76.5t-45.5 -56t-58 -50.5q-11 -9 -52.5 -39t-53.5 -39l-167 -132 h109q6 0 18 0.5t18 0.5h182l-15 -71h-399z" />
<glyph unicode="3" d="M59 82l24 60q22 -49 69 -76t101 -27q56 0 98.5 41t54.5 101q7 19 4.5 43.5t-9.5 46.5t-31.5 37.5t-62.5 15.5h-71l13 61q76 6 80 7q47 10 84 48.5t47 85.5q9 45 -15 69.5t-66 24.5q-48 0 -97 -28t-81 -78l-24 54q42 52 99.5 81t115.5 29q75 0 119 -44t31 -108 q-11 -50 -49 -96.5t-99 -75.5q53 -17 84 -63.5t17 -110.5q-17 -81 -90.5 -141.5t-162.5 -60.5q-124 0 -183 104z" />
<glyph unicode="4" d="M64 171l13 61l343 424h91l-90 -424h99l-13 -61h-99l-36 -171h-79l36 171h-265zM155 232h193l81 380q-8 -37 -98 -156t-176 -224z" />
<glyph unicode="5" d="M55 76l45 56q14 -41 51 -67t86 -26q8 0 18 1t34 10t43.5 24.5t40.5 49.5t31 81q17 83 -4.5 122t-62.5 39q-78 0 -129 -79h-66l78 369h335l-13 -64h-263l-44 -206q55 41 116 41q78 0 119.5 -65.5t21.5 -158.5q-20 -94 -98.5 -159.5t-168.5 -65.5q-59 0 -103 27t-67 71z " />
<glyph unicode="6" d="M110 322q34 157 134 256.5t209 99.5q55 0 102 -20l-13 -59q-48 21 -100 21q-72 0 -136.5 -62.5t-98.5 -178.5q84 83 186 83q70 0 101 -70.5t10 -169.5q-13 -58 -35.5 -97.5t-65.5 -78.5q-74 -68 -157 -68q-28 0 -52.5 8.5t-49.5 31t-36.5 61t-14.5 99t17 144.5zM174 219 q-2 -14 -2.5 -25.5t-1 -35.5t4.5 -42t14 -37t27 -29.5t43 -10.5q64 0 113 62q34 42 50 121q17 75 2 117q-20 62 -83 62q-59 0 -103.5 -47t-56.5 -107q-3 -8 -7 -28z" />
<glyph unicode="7" d="M150 -11q70 335 364 597h-121q-6 0 -18.5 -0.5t-18.5 -0.5h-190l15 71h415l-13 -65q-43 -39 -88 -91t-98 -128.5t-97 -176.5t-66 -206h-84z" />
<glyph unicode="8" d="M80 180q14 62 63 108.5t111 66.5q-57 20 -78.5 61.5t-12.5 86.5q15 71 82 123t149 52q80 0 125.5 -52t30.5 -123q-9 -45 -48.5 -86.5t-106.5 -61.5q53 -19 83.5 -65t16.5 -110q-17 -81 -90 -141.5t-161 -60.5q-86 0 -133.5 60t-30.5 142zM161 181q-14 -68 14 -105t83 -37 q52 0 97 36.5t59 105.5q15 71 -15.5 107t-80.5 36q-48 0 -94.5 -35.5t-62.5 -107.5zM233 503q-11 -52 15.5 -85t83.5 -33q55 0 96 32.5t52 85.5q11 50 -15 83.5t-84 33.5q-55 0 -96 -32.5t-52 -84.5z" />
<glyph unicode="9" d="M77 24l42 53q38 -38 95 -38q64 0 125 61.5t93 176.5q-85 -83 -187 -83q-70 0 -101 70.5t-10 169.5q22 107 103 177q78 67 160 67q28 0 52.5 -8.5t47.5 -32t35.5 -60.5t12.5 -99.5t-17 -142.5q-33 -158 -129.5 -257.5t-198.5 -99.5q-70 0 -123 46zM214 315q21 -60 83 -60 q57 0 102.5 46t58.5 110q4 14 4 24q4 24 5 50.5t-3 59.5t-24.5 54t-54.5 21q-61 0 -112 -57q-38 -43 -57 -129q-16 -79 -2 -119z" />
<glyph unicode=":" horiz-adv-x="278" d="M97 0l18 83h83l-18 -83h-83zM174 361l17 83h83l-17 -83h-83z" />
<glyph unicode=";" horiz-adv-x="278" d="M70 -125l52 125h-25l18 83h83l-18 -82l-69 -126h-41zM174 361l17 83h83l-17 -83h-83z" />
<glyph unicode="&#x3c;" horiz-adv-x="778" d="M136 250q3 13 24 22l609 261q15 7 20 7q8 0 13 -6t3 -14q-3 -12 -24 -22l-578 -248l472 -248q17 -9 15 -22q-2 -8 -9.5 -14t-15.5 -6q-5 0 -16 7l-499 261q-16 9 -14 22z" />
<glyph unicode="=" horiz-adv-x="778" d="M88 150q4 20 38 20h597q10 0 16 -0.5t11 -5.5t3 -14q-4 -20 -37 -20h-599q-10 0 -15.5 0.5t-10.5 5.5t-3 14zM130 350q5 20 38 20h599q10 0 15.5 -0.5t10 -5.5t2.5 -14q-4 -20 -38 -20h-597q-10 0 -16 0.5t-11 5.5t-3 14z" />
<glyph unicode="&#x3e;" horiz-adv-x="778" d="M79 -20q3 13 23 22l578 248l-472 248q-17 9 -14 22q4 20 24 20q5 0 16 -7l499 -261q17 -9 14 -22q-2 -14 -24 -22l-609 -261q-15 -7 -20 -7q-8 0 -12.5 6t-2.5 14z" />
<glyph unicode="?" horiz-adv-x="472" d="M180 0l18 83h83l-18 -83h-83zM195 652q88 53 179 53q102 0 136.5 -46.5t21.5 -108.5q-15 -73 -83 -120q-59 -43 -96.5 -95.5t-48.5 -105.5l-12 -54h-67l7 32q36 171 171 268q42 32 51 76q6 30 0 50t-23 28.5t-32.5 11.5t-37.5 3q-85 0 -157 -55z" />
<glyph unicode="@" horiz-adv-x="667" d="M130 347q32 150 153 254t254 104q224 0 150 -343q-14 -65 -43.5 -115t-64.5 -76t-67.5 -38.5t-60.5 -12.5q-75 0 -116.5 65.5t-20.5 161.5q20 96 89 161.5t144 65.5q44 0 79 -25q-14 95 -103 95q-101 0 -196 -85t-122 -212q-26 -123 30.5 -210t166.5 -87q73 0 152 31 q9 4 26 4h48q-41 -37 -104.5 -66.5t-137.5 -29.5q-136 0 -212 104t-44 254zM389 347q-15 -70 7 -118t67 -48t88 48t58 118t-7.5 118t-67.5 48t-87.5 -48t-57.5 -118z" />
<glyph unicode="A" horiz-adv-x="667" d="M28 0l409 694h88l113 -694h-92l-33 204h-291l-120 -204h-74zM255 260h248l-36 257q-11 84 -10 105h-1q-11 -28 -97 -181q-41 -71 -52 -90t-52 -91z" />
<glyph unicode="B" horiz-adv-x="667" d="M97 0l148 694h237q105 0 166 -52t46 -122q-12 -55 -68 -97t-132 -60q79 -13 124 -62t32 -113q-16 -75 -99.5 -131.5t-189.5 -56.5h-264zM192 56h153q81 0 146.5 38.5t77.5 94.5q13 59 -40 100t-134 41h-145zM263 391h116q97 0 161.5 39.5t74.5 88.5q11 50 -39.5 84.5 t-133.5 34.5h-126z" />
<glyph unicode="C" horiz-adv-x="639" d="M141 347q31 151 147.5 260t257.5 109q91 0 176 -35l-32 -81q-71 52 -158 52q-102 0 -189 -90t-113 -215q-14 -79 -3 -147t58.5 -113t119.5 -45q55 0 97 12t102 49l-9 -69q-61 -33 -102.5 -44.5t-102.5 -11.5q-94 0 -159 52t-88 136t-2 181z" />
<glyph unicode="D" horiz-adv-x="722" d="M96 0l148 694h262q128 0 195.5 -103.5t35.5 -249.5q-30 -142 -140.5 -241.5t-237.5 -99.5h-263zM194 56h153q106 0 191.5 79.5t112.5 205.5q28 131 -23 214t-157 83h-153z" />
<glyph unicode="E" horiz-adv-x="597" d="M94 0l147 691h446l-14 -65h-183q-6 0 -18 0.5t-18 0.5h-138l-50 -237h330l-13 -61h-330l-55 -259h209q6 0 18 0.5t18 0.5h126l-15 -71h-460z" />
<glyph unicode="F" horiz-adv-x="569" d="M94 0l147 691h432l-14 -65h-176q-6 0 -18 0.5t-18 0.5h-131l-53 -251h302l-13 -61h-302l-67 -315h-89z" />
<glyph unicode="G" horiz-adv-x="667" d="M141 347q32 152 148.5 260.5t255.5 108.5q44 0 81.5 -8t55.5 -16t51 -25l-32 -81q-67 66 -170 66q-101 0 -187.5 -89.5t-113.5 -215.5t21.5 -215.5t149.5 -89.5q64 0 133 20l38 176h-132l13 61h210l-58 -272q-111 -49 -219 -49q-135 0 -206.5 108t-38.5 261z" />
<glyph unicode="H" horiz-adv-x="708" d="M94 0l148 694h89l-65 -303h341l65 303h89l-148 -694h-89l70 330h-341l-70 -330h-89z" />
<glyph unicode="I" horiz-adv-x="278" d="M94 0l148 694h89l-148 -694h-89z" />
<glyph unicode="J" horiz-adv-x="472" d="M46 20l30 75q19 -27 50.5 -41.5t65.5 -14.5q41 0 71 14.5t44 37t19.5 36t7.5 25.5l116 542h86l-116 -545q-18 -82 -75 -126.5t-137 -44.5q-85 0 -162 42z" />
<glyph unicode="K" horiz-adv-x="694" d="M96 0l148 694h85l-79 -371l442 371h93l-327 -274l193 -420h-92l-168 364l-162 -137l-48 -227h-85z" />
<glyph unicode="L" horiz-adv-x="542" d="M94 0l148 694h89l-134 -630h49l267 2l-14 -66h-405z" />
<glyph unicode="M" horiz-adv-x="875" d="M100 0l148 694h113q17 -98 48.5 -286.5t35.5 -214.5q9 -66 11 -100h1q23 51 148 262l203 339h114l-148 -694h-78l132 620l-1 1q-2 -4 -68 -124q-17 -29 -282 -475h-73l-66 389q-28 174 -27 209h-1l-132 -620h-78z" />
<glyph unicode="N" horiz-adv-x="708" d="M96 0l148 694h124q20 -70 57 -196t66.5 -230t55.5 -197h1l133 623h78l-148 -694h-124q-20 70 -57 195.5t-67 230t-56 197.5h-1l-132 -623h-78z" />
<glyph unicode="O" horiz-adv-x="736" d="M129 345q34 155 148.5 263t242.5 108q126 0 195.5 -108t36.5 -263q-32 -155 -147.5 -261t-242.5 -106q-125 0 -195.5 105.5t-37.5 261.5zM222 360q-30 -140 16.5 -228.5t138.5 -88.5q90 0 175 88t115 229q28 130 -21 211t-140 81q-89 0 -173 -80.5t-111 -211.5z" />
<glyph unicode="P" horiz-adv-x="639" d="M96 0l148 694h249q101 0 156 -60t38 -142q-18 -84 -99 -143.5t-175 -59.5h-167l-61 -289h-89zM256 347h141q83 0 139.5 41.5t69.5 103.5q14 65 -26 105.5t-121 40.5h-141z" />
<glyph unicode="Q" horiz-adv-x="736" d="M129 345q34 155 148.5 263t242.5 108q126 0 195.5 -108t36.5 -263q-18 -87 -70.5 -169.5t-141.5 -142.5l85 -158h-103l-60 121q-49 -18 -100 -18q-125 0 -195.5 105.5t-37.5 261.5zM215 345q-28 -135 21 -219t141 -84q13 0 27.5 2t22.5 4l8 3l-71 143h89l57 -105 q124 95 156 256q29 135 -19 221t-141 86q-91 0 -176.5 -86t-114.5 -221z" />
<glyph unicode="R" horiz-adv-x="646" d="M96 0l148 694h241q106 0 167 -55.5t45 -130.5q-13 -61 -69.5 -110t-139.5 -72l129 -326h-89l-121 317h-158l-67 -317h-86zM262 378h144q85 0 141.5 37t68.5 93q12 55 -29 92.5t-125 37.5h-144z" />
<glyph unicode="S" horiz-adv-x="556" d="M54 47l32 81q79 -81 198 -81q65 0 114 40t60 92q12 57 -22 93q-17 18 -34 25.5t-79 23.5q-50 13 -78.5 26.5t-51.5 44.5q-42 57 -27 127q17 78 92.5 137.5t175.5 59.5t173 -50l-32 -80q-64 64 -156 64q-66 0 -113.5 -36t-57.5 -83q-10 -51 18 -79q18 -18 34 -25.5 t61 -18.5q72 -19 100.5 -33t53.5 -49q41 -58 24 -137q-18 -85 -95 -148t-174 -63q-121 0 -216 69z" />
<glyph unicode="T" horiz-adv-x="681" d="M168 623l14 65h608l-14 -65h-134q-6 0 -17.5 0.5t-17.5 0.5h-89l-133 -624h-89l133 624h-90q-6 0 -18.5 -0.5t-18.5 -0.5h-134z" />
<glyph unicode="U" horiz-adv-x="688" d="M144 233l98 461h89l-99 -462q-20 -95 17.5 -146.5t104.5 -51.5q68 0 129 52t81 146l99 462h78l-98 -461q-23 -108 -111.5 -181.5t-190.5 -73.5q-103 0 -162 73.5t-35 181.5z" />
<glyph unicode="V" horiz-adv-x="667" d="M162 694h93l77 -448q24 -143 23 -174h1q23 55 160 280l206 342h78l-421 -694h-92z" />
<glyph unicode="W" horiz-adv-x="944" d="M162 694h86l21 -282l11 -167q5 -154 3 -171h1q16 53 142 308l157 312h81l25 -341q8 -101 11 -171.5t2 -89.5l-1 -20h1q18 56 145 308l158 314h72l-351 -694h-87l-30 401q-12 161 -8 220h-1q-14 -43 -128 -274l-174 -347h-81z" />
<glyph unicode="X" horiz-adv-x="667" d="M14 0l347 366l-185 328h104l138 -261l244 261h96l-311 -328l205 -366h-104l-157 306l-281 -306h-96z" />
<glyph unicode="Y" horiz-adv-x="667" d="M151 694h105l136 -290q1 -1 24 -57q12 14 32.5 38.5t38 44.5t32.5 38l204 226h88l-376 -417l-59 -277h-86l59 278z" />
<glyph unicode="Z" horiz-adv-x="611" d="M56 0l9 43l511 590h-136q-6 0 -18.5 -0.5t-18.5 -0.5h-200l14 62h485l-9 -41l-510 -589h32l263 2h96l-14 -66h-504z" />
<glyph unicode="[" horiz-adv-x="289" d="M49 -250l212 1000h164l-13 -61h-92l-186 -878h92l-13 -61h-164z" />
<glyph unicode="\" d="M211 730q5 20 24 20q14 0 18 -22l140 -940l1 -18q-4 -20 -24 -20q-15 0 -17 22l-141 940z" />
<glyph unicode="]" horiz-adv-x="289" d="M-31 -250l13 61h92l186 878h-92l13 61h164l-212 -1000h-164z" />
<glyph unicode="^" horiz-adv-x="556" d="M119 584l317 160l249 -160l-17 -22l-245 123l-298 -123z" />
<glyph unicode="_" horiz-adv-x="667" d="M-35 -164l17 78h667l-17 -78h-667z" />
<glyph unicode="`" d="M257 694h78l97 -167h-61z" />
<glyph unicode="a" horiz-adv-x="481" d="M68 113q14 63 99.5 96.5t205.5 35.5l9 43q12 53 -7 83.5t-56 30.5q-80 0 -161 -50l8 66q84 43 166 43q70 0 107 -48.5t21 -123.5l-61 -289h-75l8 36q-71 -47 -176 -47q-31 0 -52 13.5t-28 32.5t-10 40.5t2 37.5zM140 115q-6 -30 18 -47.5t62 -17.5q47 0 82 19 q38 19 47 63l13 62q-207 -10 -222 -79z" />
<glyph unicode="b" horiz-adv-x="517" d="M82 0l148 694h75l-64 -298q85 59 174 59q69 0 101 -68.5t11 -163.5q-21 -99 -90 -166.5t-145 -67.5q-73 0 -122 57l-10 -46h-78zM184 114q21 -64 84 -64q55 0 109 42.5t72 130.5q19 87 -13 129t-85 42q-68 0 -120 -59z" />
<glyph unicode="c" horiz-adv-x="444" d="M83 222q20 94 96 166.5t175 72.5q46 0 76 -9t69 -34l-26 -65q-34 26 -62.5 35t-69.5 9q-73 0 -119 -52.5t-61 -121.5q-15 -74 13 -122t90 -48q87 0 168 54l-8 -67q-85 -51 -174 -51q-92 0 -139.5 69t-27.5 164z" />
<glyph unicode="d" horiz-adv-x="517" d="M83 222q21 97 87 165t140 68q79 0 134 -55l63 294h75l-148 -694h-78l11 52q-78 -63 -161 -63q-72 0 -108 67.5t-15 165.5zM161 221q-18 -86 13.5 -128.5t85.5 -42.5q41 0 80 28q39 30 46 61l42 200q-26 55 -85 55q-55 0 -109 -42t-73 -131z" />
<glyph unicode="e" horiz-adv-x="444" d="M83 226q20 97 94 166t157 69q90 0 122 -73q27 -61 5 -169h-309q-13 -73 19 -121t92 -48q83 0 164 56l-8 -65q-84 -52 -170 -52q-90 0 -138.5 69t-27.5 168zM168 274h247q5 64 -22.5 95t-71.5 31q-43 0 -86 -35t-67 -91z" />
<glyph unicode="f" horiz-adv-x="306" d="M101 0l82 386h-74l12 58h74l20 90q16 74 73.5 122.5t128.5 48.5q34 0 78 -11l-15 -67q-35 17 -77 17q-13 0 -26.5 -2.5t-32 -10t-32.5 -25t-19 -43.5l-26 -119h113l-12 -58h-110l-82 -386h-75z" />
<glyph unicode="g" d="M13 -71q5 25 25.5 53.5t60.5 49.5q-20 32 -10 76q9 44 47 85q-24 44 -12 99q14 68 71.5 115.5t122.5 47.5q56 0 88 -32q81 32 165 32l-3 -63q-40 3 -58 3q-12 0 -38 -2t-37 -2l-4 1q24 -44 12 -100q-14 -67 -71 -115t-124 -48q-51 0 -84 29q-15 -15 -19 -36 q-11 -53 47 -53h88q28 0 50.5 -3t61.5 -14t56.5 -42.5t7.5 -79.5q-12 -57 -85 -96.5t-166 -39.5q-92 0 -148 39.5t-44 95.5zM83 -71q-7 -34 32.5 -56t102.5 -22q62 0 111.5 22t56.5 55q5 24 -8.5 39.5t-40 21t-41 7t-31.5 1.5h-90q-26 0 -45 -8.5t-28.5 -22.5t-13 -21.5 t-5.5 -14.5v-1zM194 292q-12 -56 10 -81t57 -25q37 0 68.5 26t43.5 80t-9 80t-58 26q-34 0 -67 -25t-45 -81z" />
<glyph unicode="h" horiz-adv-x="517" d="M81 0l148 694h75l-67 -311q72 72 158 72q136 0 103 -157l-63 -298h-78l62 291q23 103 -75 103q-52 0 -86.5 -45t-46.5 -104l-52 -245h-78z" />
<glyph unicode="i" horiz-adv-x="239" d="M81 0l94 444h75l-94 -444h-75zM195 566l19 89h89l-19 -89h-89z" />
<glyph unicode="j" horiz-adv-x="267" d="M-97 -171l34 61q25 -31 67 -31q10 0 20.5 2t25.5 8.5t27 22.5t17 39l109 513h75l-107 -503q-14 -67 -60 -106.5t-96 -39.5q-61 0 -112 34zM215 566l19 89h89l-19 -89h-89z" />
<glyph unicode="k" horiz-adv-x="489" d="M84 0l148 694h72l-98 -458l247 208h90l-204 -172l132 -272h-82l-108 224l-98 -83l-30 -141h-69z" />
<glyph unicode="l" horiz-adv-x="239" d="M81 0l148 694h75l-148 -694h-75z" />
<glyph unicode="m" horiz-adv-x="794" d="M81 0l96 450h72l-16 -72q75 77 163 77q99 0 110 -82q74 82 167 82q138 0 103 -157l-63 -298h-78l62 291q4 19 4.5 33t-4.5 32t-24 28t-52 10q-51 0 -85.5 -45t-47.5 -104l-52 -245h-78l62 291q4 19 4.5 33t-4.5 32t-24 28t-52 10q-51 0 -85.5 -45t-47.5 -104l-52 -245 h-78z" />
<glyph unicode="n" horiz-adv-x="517" d="M81 0l96 450h72l-15 -71q9 11 25 24.5t56 32.5t80 19q136 0 103 -157l-63 -298h-78l62 291q23 103 -75 103q-52 0 -86.5 -45t-46.5 -104l-52 -245h-78z" />
<glyph unicode="o" d="M77 220q21 99 100 170t171 71q90 0 139.5 -70.5t28.5 -170.5q-21 -97 -99.5 -164t-169.5 -67q-89 0 -140 66.5t-30 164.5zM157 230q-18 -85 14 -131t89 -46q59 0 110.5 46.5t69.5 130.5q18 83 -15 126.5t-91 43.5q-56 0 -107.5 -43t-69.5 -127z" />
<glyph unicode="p" horiz-adv-x="517" d="M41 -194l135 638h75l-10 -49q83 60 177 60q70 0 99.5 -69t9.5 -163q-21 -100 -90 -167t-144 -67q-74 0 -123 57l-51 -240h-78zM188 132q-4 -19 3 -35q24 -47 76 -47q58 0 112.5 49t69.5 124q15 69 -14 118.5t-86 49.5q-67 0 -118 -58z" />
<glyph unicode="q" horiz-adv-x="517" d="M83 221q21 100 90.5 167t145.5 67q35 0 64.5 -15.5t40.5 -28.5t17 -24l15 68h75l-138 -649h-78l52 244q-80 -61 -164 -61q-71 0 -105.5 68t-14.5 164zM161 221q-15 -70 14 -120.5t86 -50.5q61 0 111 57q12 12 17 33l30 140q7 37 -11.5 74t-65.5 37q-57 0 -111 -48 t-70 -122z" />
<glyph unicode="r" horiz-adv-x="342" d="M82 0l96 450h70l-20 -91q84 95 196 96l-15 -67q-74 -2 -132.5 -50.5t-74.5 -123.5l-45 -214h-75z" />
<glyph unicode="s" horiz-adv-x="383" d="M35 33l26 68q65 -49 145 -49q94 0 109 69q4 19 -2 32.5t-21 21t-26.5 11t-29.5 7.5q-33 7 -45.5 10t-27 9.5t-27.5 17.5q-45 41 -33 100q7 31 22 55t36 37.5t40 22t41.5 11.5t32.5 4t22 1q74 0 137 -32l-26 -65q-55 38 -134 38q-85 0 -98 -62q-4 -18 1 -30t20 -19.5 t27.5 -11.5t37.5 -9q41 -8 62.5 -17t43.5 -33l4 -6q3 -5 6.5 -12t7 -19t4 -25t-2.5 -30q-15 -71 -71 -107q-49 -32 -122 -32q-79 0 -159 44z" />
<glyph unicode="t" horiz-adv-x="361" d="M101 386l12 58h87l27 127h69l-27 -127h141l-12 -58h-141l-53 -250q-17 -83 33 -83t97 33l4 -59q-82 -38 -154 -38q-82 0 -56 130l57 267h-84z" />
<glyph unicode="u" horiz-adv-x="517" d="M104 109l71 335h78l-70 -331q-8 -37 3 -53t60 -16q51 0 92 28.5t52 81.5l61 290h78l-94 -444h-75l10 48q-80 -59 -185 -59q-59 0 -76 30.5t-5 89.5z" />
<glyph unicode="v" horiz-adv-x="461" d="M108 444h78l42 -259q16 -89 14 -132h1q19 50 99 183l123 208h75l-266 -444h-88z" />
<glyph unicode="w" horiz-adv-x="683" d="M108 444h76l16 -173q13 -172 8 -216h1q17 56 91 201l97 188h70l20 -213q12 -136 8 -177h1q12 33 84 178l109 212h73l-231 -444h-88l-20 248q-8 90 -3 140h-1q-13 -48 -83 -182l-106 -206h-79z" />
<glyph unicode="x" horiz-adv-x="461" d="M0 0l243 229l-143 215h83l103 -165l169 165h82l-228 -215l151 -229h-83l-110 188l-185 -188h-82z" />
<glyph unicode="y" horiz-adv-x="461" d="M1 -197l8 65q36 -16 75 -16q10 0 16 2t20.5 15.5t32.5 40.5l55 90l-100 444h79l28 -125q42 -191 34 -262h1q18 69 215 387h75l-331 -535q-43 -69 -74.5 -91.5t-63.5 -22.5q-36 0 -70 8z" />
<glyph unicode="z" horiz-adv-x="435" d="M28 0l9 41l340 345h-78q-6 0 -18 -0.5t-18 -0.5h-139l12 59h358l-8 -39l-339 -344h85q6 0 18 0.5t18 0.5h147l-13 -62h-374z" />
<glyph unicode="{" d="M125 250q2 11 16 11q64 4 114 45q23 20 31 41.5t24 96.5l39 183q13 53 76.5 88t140.5 35q8 0 11 -0.5t5.5 -3t1.5 -7.5q-2 -9 -11 -11q-33 -2 -59 -10.5t-36 -15.5t-26 -20q-20 -18 -28.5 -39t-20.5 -80l-39 -180q-4 -17 -8.5 -29t-19 -34t-44.5 -40t-74 -30 q95 -28 94 -103q0 -6 -17 -91l-32 -150q-8 -39 -7 -48q1 -32 27 -57.5t80 -28.5q6 -1 8 -1.5t4 -2.5t1 -7q-2 -11 -22 -11q-84 0 -131 38q-30 25 -33.5 56.5t8.5 72.5l42 198q8 35 0 60.5t-27 38t-37 18.5t-37 7q-5 1 -6.5 1t-5 1t-2.5 3t0 6z" />
<glyph unicode="|" horiz-adv-x="278" d="M73 -217l198 934q7 33 27 33t13 -33l-198 -934q-7 -33 -27 -33t-13 33z" />
<glyph unicode="}" d="M21 -239q2 9 12 11q32 2 58 10.5t36 15.5t26 20q21 17 28.5 37.5t21.5 81.5l38 180q4 17 8.5 29t19 34t44.5 40t74 30q-95 28 -94 103q0 6 17 91l32 150q8 36 7 48q-1 32 -26.5 57.5t-79.5 28.5q-5 1 -6.5 1t-5 1t-2.5 3t0 6q2 11 22 11q84 0 131 -38q30 -25 33.5 -56.5 t-8.5 -72.5l-42 -198q-7 -35 0.5 -60.5t26.5 -38t37 -18.5t37 -7q5 -1 6.5 -1t5 -1t2.5 -3t0 -6q-2 -11 -16 -11q-64 -4 -114 -45q-23 -20 -31 -41.5t-24 -96.5l-39 -183q-12 -53 -76 -88t-141 -35q-7 0 -10 0.5t-6 3t-2 7.5z" />
<glyph unicode="~" horiz-adv-x="556" d="M45 210l63 44q24 17 64 35q45 18 77 18q27 0 53 -11t43 -24.5t42 -24.5t51 -11q69 0 168 71l11 -17l-64 -44q-24 -17 -64 -35q-43 -18 -77 -18q-41 0 -96 35.5t-93 35.5q-68 0 -168 -71z" />
<glyph unicode="&#xa0;" />
<glyph unicode="&#xa1;" horiz-adv-x="319" d="M77 -194l109 476l9 43h67q-20 -100 -56.5 -286.5t-45.5 -232.5h-83zM207 417l17 83h83l-17 -83h-83z" />
<glyph unicode="&#xa2;" horiz-adv-x="444" d="M83 222q18 83 80 151t146 84l11 51h64l-10 -47q36 -1 63 -10.5t62 -32.5l-26 -65q-52 40 -113 44l-73 -343q77 7 145 53l-8 -67q-75 -44 -150 -50l-12 -54h-64l13 57q-74 15 -109.5 80t-18.5 149zM161 223q-13 -61 4.5 -105t59.5 -59l70 331q-53 -15 -87.5 -63 t-46.5 -104z" />
<glyph unicode="&#xa3;" horiz-adv-x="667" d="M84 42q129 123 159 214q11 30 11 59h-120l14 64h99l-8 57q-1 99 75 178.5t173 79.5q81 0 124.5 -59.5t25.5 -143.5h-78q11 51 -14.5 88t-74.5 37q-60 0 -106.5 -50t-45.5 -113q0 -14 12 -74h151l-14 -64h-134q-3 -35 -15 -69q-22 -70 -86 -149q51 0 157 -27 q45 -14 84 -14q29 0 51 27.5t29 64.5h78q-14 -69 -64 -119.5t-111 -50.5q-43 0 -102 16q-53 14 -83.5 20t-72.5 3t-64 -25z" />
<glyph unicode="&#xa4;" horiz-adv-x="778" d="M156 15q-7 9 -1.5 17.5t19.5 19.5l90 75q-27 42 -22 90.5t24.5 87.5t49.5 69l-58 74q-19 24 -2 38q19 15 36 -9l59 -75q64 44 133 44q67 0 113 -44l90 74q28 23 40 9q7 -9 1.5 -17.5t-19.5 -19.5l-90 -74q27 -42 22.5 -90t-24.5 -88t-49 -69l58 -75q18 -23 1 -37t-35 9 l-59 74q-64 -44 -133 -44q-68 0 -114 44l-90 -74q-28 -23 -40 -9zM286 250q-14 -65 22.5 -110.5t100.5 -45.5t119 45.5t69 110.5t-22 110.5t-100 45.5q-65 0 -120.5 -46t-68.5 -110z" />
<glyph unicode="&#xa5;" horiz-adv-x="667" d="M143 149l13 64h179l14 65l-10 20h-165l14 64h121l-158 332h105l136 -290q6 -12 18 -42h19q88 103 90 106l204 226h88l-299 -332h121l-14 -64h-166l-18 -21l-14 -64h180l-13 -64h-180l-32 -149h-86l32 149h-179z" />
<glyph unicode="&#xa6;" horiz-adv-x="278" d="M73 -217l79 374q9 32 27 32q10 0 13.5 -10.5t-0.5 -21.5l-79 -374q-7 -33 -27 -33t-13 33zM192 343l79 374q7 33 27 33t13 -33l-79 -374q-3 -13 -10 -22.5t-17 -9.5q-19 0 -13 32z" />
<glyph unicode="&#xa7;" horiz-adv-x="528" d="M66 -41h78q-9 -43 17.5 -72t72.5 -29t85 31t48 75q13 61 -74 107l-91 46q-56 29 -86.5 76.5t-17.5 106.5q9 42 36.5 79.5t67.5 62.5q-24 44 -13 94q16 74 82.5 125t143.5 51t122.5 -49.5t30.5 -121.5h-78q9 43 -17.5 72t-72.5 29t-85 -31t-48 -75q-13 -61 74 -107l91 -46 q57 -29 87 -76.5t18 -106.5q-20 -89 -105 -143q24 -44 13 -93q-16 -74 -82.5 -125t-143.5 -51t-122.5 49.5t-30.5 121.5zM176 300q-14 -67 73 -112l91 -46q30 -16 51 -35q53 31 68 93q14 66 -74 112l-91 46q-29 16 -51 34q-54 -30 -67 -92z" />
<glyph unicode="&#xa8;" d="M258 571l17 80h80l-17 -80h-80zM404 571l17 80h80l-17 -80h-80z" />
<glyph unicode="&#xa9;" horiz-adv-x="694" d="M74 347q31 144 154 245.5t267 101.5t224 -101.5t49 -245.5t-154 -245.5t-267 -101.5t-224 101.5t-49 245.5zM112 347q-28 -128 43.5 -218.5t199.5 -90.5t237.5 90.5t137.5 218.5q27 128 -44.5 218.5t-199.5 90.5t-237.5 -90.5t-136.5 -218.5zM237 347q20 95 93 164 t162 69q60 0 110 -23l-19 -51q-47 33 -100 33q-64 0 -118.5 -56.5t-71.5 -135.5q-17 -76 12.5 -134t97.5 -58q62 0 125 39l-5 -44q-38 -21 -64.5 -28t-64.5 -7q-90 0 -133.5 69t-23.5 163z" />
<glyph unicode="&#xaa;" horiz-adv-x="372" d="M138 473q9 44 80.5 67.5t171.5 24.5l6 30q9 37 -8 58.5t-48 21.5q-68 0 -134 -35l5 46q68 30 138 30q59 0 91.5 -33.5t21.5 -86.5l-43 -202h-63l5 25q-58 -33 -146 -33q-49 0 -66.5 28.5t-10.5 58.5zM140 334q6 22 37 22h170q13 0 21 -6.5t6 -15.5q-2 -10 -13 -16.5 t-24 -6.5h-170q-14 0 -21.5 6.5t-5.5 16.5zM198 474q-4 -21 16.5 -33t52.5 -12q41 0 68 13q33 14 38 44l10 44q-176 -9 -185 -56z" />
<glyph unicode="&#xab;" d="M158 219l151 220h61l-134 -220l41 -219h-61zM325 219l151 220h61l-134 -220l41 -219h-61z" />
<glyph unicode="&#xac;" horiz-adv-x="778" d="M130 350q2 8 9.5 14t15.5 6h625q8 0 12.5 -6t2.5 -14l-42 -200q-4 -20 -24 -20q-8 0 -13 6t-3 14l38 180h-605q-8 0 -13 6t-3 14z" />
<glyph unicode="&#xad;" horiz-adv-x="333" d="M52 193l12 58h265l-12 -58h-265z" />
<glyph unicode="&#xae;" horiz-adv-x="694" d="M74 347q31 144 154 245.5t267 101.5t224 -101.5t49 -245.5t-154 -245.5t-267 -101.5t-224 101.5t-49 245.5zM112 347q-28 -128 43.5 -218.5t199.5 -90.5t237.5 90.5t137.5 218.5q27 128 -44.5 218.5t-199.5 90.5t-237.5 -90.5t-136.5 -218.5zM225 129l93 437h152 q67 0 106 -35t28 -82q-7 -38 -43.5 -69.5t-87.5 -45.5l80 -205h-56l-75 199h-100l-43 -199h-54zM330 367h91q54 0 89.5 23.5t42.5 58.5q8 34 -18 57.5t-79 23.5h-91z" />
<glyph unicode="&#xaf;" d="M193 579l14 64h361l-14 -64h-361z" />
<glyph unicode="&#xb0;" horiz-adv-x="375" d="M167 556q12 57 61.5 97.5t107.5 40.5q57 0 88.5 -40.5t19.5 -97.5q-12 -58 -61 -98.5t-106 -40.5q-58 0 -90 40.5t-20 98.5zM207 556q-9 -41 14 -70t64 -29t75.5 29t43.5 70q9 40 -13.5 69t-63.5 29t-76 -28.5t-44 -69.5z" />
<glyph unicode="&#xb1;" horiz-adv-x="778" d="M60 20q5 20 38 20h280l58 273h-280q-10 0 -15.5 0.5t-10.5 5.5t-3 14q4 20 37 20h280l60 280q7 33 27 33t13 -33l-60 -280h279q10 0 15.5 -0.5t10.5 -5.5t3 -14q-4 -20 -37 -20h-279l-58 -273h279q10 0 15.5 -0.5t10 -5.5t2.5 -14q-4 -20 -37 -20h-599q-10 0 -15.5 0.5 t-10.5 5.5t-3 14z" />
<glyph unicode="&#xb2;" horiz-adv-x="354" d="M102 310l8 38q125 88 170 117q23 17 30 22t25.5 20.5t25.5 25t16 24t12 29.5q8 38 -14 65t-71 27q-31 0 -55.5 -15t-37 -32.5t-27.5 -45.5q-1 1 -23 33q55 98 161 98q69 0 103 -37.5t23 -91.5q-5 -24 -23 -46.5t-30 -32t-41 -30.5q-5 -3 -35 -22t-39 -25 q-91 -63 -117 -79h235l-9 -42h-287z" />
<glyph unicode="&#xb3;" horiz-adv-x="359" d="M106 359l16 36q17 -29 51.5 -45.5t73.5 -16.5q41 0 70 24.5t37 60.5q4 11 1.5 26t-8 28.5t-24 22.5t-45.5 9h-51l8 37l58 4q34 6 59.5 29t31.5 51t-12.5 42.5t-48.5 14.5q-35 0 -69.5 -17t-56.5 -47l-19 32q63 66 153 66q54 0 87 -26t25 -65q-6 -30 -32.5 -57.5 t-69.5 -45.5q38 -11 61.5 -38.5t15.5 -65.5q-11 -49 -62 -85.5t-115 -36.5q-90 0 -135 63z" />
<glyph unicode="&#xb4;" d="M292 527l169 167h78l-186 -167h-61z" />
<glyph unicode="&#xb5;" horiz-adv-x="517" d="M40 -194l135 638h78l-70 -329q-4 -22 -4 -38t16 -24.5t51 -8.5q50 0 91 27.5t53 84.5l61 288h78l-94 -444h-75l10 48q-78 -59 -185 -59q-18 0 -28 2l-39 -185h-78z" />
<glyph unicode="&#xb6;" horiz-adv-x="611" d="M154 463q20 95 108 163t192 68h243q10 0 15.5 -0.5t10 -5.5t2.5 -14q-4 -20 -37 -20h-50l-173 -815q-7 -33 -27 -33t-13 33l173 815h-70l-173 -815q-7 -33 -27 -33t-13 33l83 391q-69 3 -128 27t-95.5 78t-20.5 128z" />
<glyph unicode="&#xb7;" horiz-adv-x="778" d="M412 306l18 83h83l-18 -83h-83z" />
<glyph unicode="&#xb8;" horiz-adv-x="444" d="M104 -192l110 168h61l-102 -168h-69z" />
<glyph unicode="&#xb9;" horiz-adv-x="369" d="M134 310l7 34h90l66 312q-37 -12 -97 -14l8 35q95 3 145 39h14l-79 -372h90l-7 -34h-237z" />
<glyph unicode="&#xba;" horiz-adv-x="419" d="M128 334q2 9 13 15.5t24 6.5h241q13 0 21 -6.5t6 -15.5q-2 -10 -13 -16.5t-24 -6.5h-241q-13 0 -21 6.5t-6 16.5zM141 548q15 69 79.5 118.5t141.5 49.5q75 0 119 -49t29 -119q-14 -68 -78.5 -115t-140.5 -47q-75 0 -119.5 46.5t-30.5 115.5zM209 555q-13 -60 15.5 -92 t76.5 -32q50 0 91 32.5t54 91.5q12 58 -16.5 88.5t-77.5 30.5q-46 0 -88.5 -30.5t-54.5 -88.5z" />
<glyph unicode="&#xbb;" d="M56 0l135 219l-42 220h61l59 -220l-152 -219h-61zM223 0l135 219l-42 220h61l59 -220l-152 -219h-61z" />
<glyph unicode="&#xbc;" horiz-adv-x="788" d="M134 310l7 34h90l66 312q-37 -12 -97 -14l8 35q95 3 145 39h14l-79 -372h90l-7 -34h-237zM214 20l539 654h47l-539 -654h-47zM427 103l8 36l236 255h65l-54 -255h71l-8 -36h-71l-22 -103h-57l22 103h-190zM491 139h139l48 228q-8 -34 -187 -228z" />
<glyph unicode="&#xbd;" horiz-adv-x="788" d="M134 310l7 34h90l66 312q-37 -12 -97 -14l8 35q95 3 145 39h14l-79 -372h90l-7 -34h-237zM174 20l539 654h47l-539 -654h-47zM436 0l8 38l105 75l65 42q33 24 50 37.5t35.5 37t23.5 47.5q8 37 -14.5 64t-70.5 27q-44 0 -71 -25t-49 -68q-9 17 -12 18q0 1 -1 2.5t-4 5 t-6 7.5q57 99 162 99q69 0 103 -37.5t22 -91.5q-5 -24 -22 -46t-31.5 -33.5t-40.5 -30.5q-8 -5 -37 -23t-37 -24l-117 -79h79q4 0 12.5 0.5t12.5 0.5h131l-9 -43h-287z" />
<glyph unicode="&#xbe;" horiz-adv-x="788" d="M136 359l16 36q17 -30 52 -46t74 -16q40 0 69 24.5t37 60.5q6 31 -9 58.5t-66 27.5h-52l8 37l58 4q34 6 59.5 29t31.5 51t-12 42.5t-49 14.5q-35 0 -69.5 -17t-56.5 -47l-18 32q61 66 152 66q54 0 87 -26t25 -65q-14 -66 -102 -103q38 -11 61.5 -38.5t15.5 -65.5 q-11 -49 -62 -85.5t-115 -36.5q-90 0 -135 63zM214 20l539 654h47l-539 -654h-47zM427 103l8 36l236 255h65l-54 -255h71l-8 -36h-71l-22 -103h-57l22 103h-190zM491 139h139l48 228q-8 -34 -187 -228z" />
<glyph unicode="&#xbf;" horiz-adv-x="472" d="M45 -50q15 71 75 120q101 84 125 198l12 57h67l-7 -32q-34 -164 -147 -266q-37 -31 -47 -79q-10 -49 6.5 -70.5t63.5 -21.5q92 0 180 55l10 -63q-102 -53 -204 -53q-87 0 -117.5 43.5t-16.5 111.5zM269 417l17 83h83l-17 -83h-83z" />
<glyph unicode="&#xc0;" horiz-adv-x="667" d="M28 0l409 694h88l113 -694h-92l-33 204h-291l-120 -204h-74zM255 260h248l-36 257q-11 84 -10 105h-1q-11 -28 -97 -181q-41 -71 -52 -90t-52 -91zM326 868h111l149 -122h-89z" />
<glyph unicode="&#xc1;" horiz-adv-x="667" d="M28 0l409 694h88l113 -694h-92l-33 204h-291l-120 -204h-74zM255 260h248l-36 257q-11 84 -10 105h-1q-11 -28 -97 -181q-41 -71 -52 -90t-52 -91zM396 746l201 122h111l-223 -122h-89z" />
<glyph unicode="&#xc2;" horiz-adv-x="667" d="M28 0l409 694h88l113 -694h-92l-33 204h-291l-120 -204h-74zM255 260h248l-36 257q-11 84 -10 105h-1q-11 -28 -97 -181q-41 -71 -52 -90t-52 -91zM333 736l155 134h60l97 -134h-59l-76 97l-118 -97h-59z" />
<glyph unicode="&#xc3;" horiz-adv-x="667" d="M28 0l409 694h88l113 -694h-92l-33 204h-291l-120 -204h-74zM255 260h248l-36 257q-11 84 -10 105h-1q-11 -28 -97 -181q-41 -71 -52 -90t-52 -91zM323 736q13 55 49.5 87t74.5 32q26 0 63.5 -29t58.5 -29q37 0 52 58h61q-13 -55 -49.5 -87t-74.5 -32q-26 0 -63.5 29 t-58.5 29q-37 0 -52 -58h-61z" />
<glyph unicode="&#xc4;" horiz-adv-x="667" d="M28 0l409 694h88l113 -694h-92l-33 204h-291l-120 -204h-74zM255 260h248l-36 257q-11 84 -10 105h-1q-11 -28 -97 -181q-41 -71 -52 -90t-52 -91zM362 736l17 80h80l-17 -80h-80zM536 736l17 80h80l-17 -80h-80z" />
<glyph unicode="&#xc5;" horiz-adv-x="667" d="M28 0l409 694h43q-47 0 -73.5 24.5t-19.5 60.5q8 33 45 58t84 25t73.5 -24.5t19.5 -60.5q-7 -33 -44 -58t-85 -25h45l113 -694h-92l-33 204h-291l-120 -204h-74zM255 260h248l-36 257q-11 84 -10 105h-1q-11 -28 -97 -181q-41 -71 -52 -90t-52 -91zM448 778 q-4 -17 6.5 -26t18.5 -10t17 -1q50 0 58 37q4 17 -6.5 26t-18.5 10t-17 1q-50 0 -58 -37z" />
<glyph unicode="&#xc6;" horiz-adv-x="861" d="M28 0l432 694h492l-14 -65h-153q-6 0 -18 0.5t-18 0.5h-108l-51 -239h270l-13 -61h-270l-55 -260h170q6 0 18 0.5t18 0.5h105l-15 -71h-399l47 222h-225l-138 -222h-75zM276 278h202l75 352h-58z" />
<glyph unicode="&#xc7;" horiz-adv-x="639" d="M141 347q31 151 147.5 260t257.5 109q91 0 176 -35l-32 -81q-71 52 -158 52q-102 0 -189 -90t-113 -215q-14 -79 -3 -147t58.5 -113t119.5 -45q55 0 97 12t102 49l-9 -69q-61 -33 -102.5 -44.5t-102.5 -11.5q-94 0 -159 52t-88 136t-2 181zM218 -214l109 168h61 l-101 -168h-69z" />
<glyph unicode="&#xc8;" horiz-adv-x="597" d="M94 0l147 691h446l-14 -65h-183q-6 0 -18 0.5t-18 0.5h-138l-50 -237h330l-13 -61h-330l-55 -259h209q6 0 18 0.5t18 0.5h126l-15 -71h-460zM292 868h111l149 -122h-89z" />
<glyph unicode="&#xc9;" horiz-adv-x="597" d="M94 0l147 691h446l-14 -65h-183q-6 0 -18 0.5t-18 0.5h-138l-50 -237h330l-13 -61h-330l-55 -259h209q6 0 18 0.5t18 0.5h126l-15 -71h-460zM362 746l201 122h111l-223 -122h-89z" />
<glyph unicode="&#xca;" horiz-adv-x="597" d="M94 0l147 691h446l-14 -65h-183q-6 0 -18 0.5t-18 0.5h-138l-50 -237h330l-13 -61h-330l-55 -259h209q6 0 18 0.5t18 0.5h126l-15 -71h-460zM299 736l155 134h60l97 -134h-59l-76 97l-118 -97h-59z" />
<glyph unicode="&#xcb;" horiz-adv-x="597" d="M94 0l147 691h446l-14 -65h-183q-6 0 -18 0.5t-18 0.5h-138l-50 -237h330l-13 -61h-330l-55 -259h209q6 0 18 0.5t18 0.5h126l-15 -71h-460zM328 736l17 80h80l-17 -80h-80zM502 736l17 80h80l-17 -80h-80z" />
<glyph unicode="&#xcc;" horiz-adv-x="278" d="M81 868h111l149 -122h-89zM94 0l148 694h89l-148 -694h-89z" />
<glyph unicode="&#xcd;" horiz-adv-x="278" d="M94 0l148 694h89l-148 -694h-89zM252 746l201 122h111l-223 -122h-89z" />
<glyph unicode="&#xce;" horiz-adv-x="278" d="M94 0l148 694h89l-148 -694h-89zM139 736l155 134h60l97 -134h-59l-76 97l-118 -97h-59z" />
<glyph unicode="&#xcf;" horiz-adv-x="278" d="M94 0l148 694h89l-148 -694h-89zM168 736l17 80h80l-17 -80h-80zM342 736l17 80h80l-17 -80h-80z" />
<glyph unicode="&#xd0;" horiz-adv-x="722" d="M85 315l14 64h78l67 315h262q128 0 195.5 -103.5t35.5 -249.5q-30 -142 -140.5 -241.5t-237.5 -99.5h-263l67 315h-78zM194 56h153q106 0 191.5 79.5t112.5 205.5q28 131 -23 214t-157 83h-153l-55 -259h101l-14 -64h-101z" />
<glyph unicode="&#xd1;" horiz-adv-x="708" d="M96 0l148 694h124q20 -70 57 -196t66.5 -230t55.5 -197h1l133 623h78l-148 -694h-124q-20 70 -57 195.5t-67 230t-56 197.5h-1l-132 -623h-78zM344 736q13 55 49.5 87t74.5 32q26 0 63.5 -29t58.5 -29q37 0 52 58h61q-13 -55 -49.5 -87t-74.5 -32q-26 0 -63.5 29 t-58.5 29q-37 0 -52 -58h-61z" />
<glyph unicode="&#xd2;" horiz-adv-x="736" d="M129 345q34 155 148.5 263t242.5 108q126 0 195.5 -108t36.5 -263q-32 -155 -147.5 -261t-242.5 -106q-125 0 -195.5 105.5t-37.5 261.5zM222 360q-30 -140 16.5 -228.5t138.5 -88.5q90 0 175 88t115 229q28 130 -21 211t-140 81q-89 0 -173 -80.5t-111 -211.5zM361 868 h111l149 -122h-89z" />
<glyph unicode="&#xd3;" horiz-adv-x="736" d="M129 345q34 155 148.5 263t242.5 108q126 0 195.5 -108t36.5 -263q-32 -155 -147.5 -261t-242.5 -106q-125 0 -195.5 105.5t-37.5 261.5zM222 360q-30 -140 16.5 -228.5t138.5 -88.5q90 0 175 88t115 229q28 130 -21 211t-140 81q-89 0 -173 -80.5t-111 -211.5zM431 746 l201 122h111l-223 -122h-89z" />
<glyph unicode="&#xd4;" horiz-adv-x="736" d="M129 345q34 155 148.5 263t242.5 108q126 0 195.5 -108t36.5 -263q-32 -155 -147.5 -261t-242.5 -106q-125 0 -195.5 105.5t-37.5 261.5zM222 360q-30 -140 16.5 -228.5t138.5 -88.5q90 0 175 88t115 229q28 130 -21 211t-140 81q-89 0 -173 -80.5t-111 -211.5zM368 736 l155 134h60l97 -134h-59l-76 97l-118 -97h-59z" />
<glyph unicode="&#xd5;" horiz-adv-x="736" d="M129 345q34 155 148.5 263t242.5 108q126 0 195.5 -108t36.5 -263q-32 -155 -147.5 -261t-242.5 -106q-125 0 -195.5 105.5t-37.5 261.5zM222 360q-30 -140 16.5 -228.5t138.5 -88.5q90 0 175 88t115 229q28 130 -21 211t-140 81q-89 0 -173 -80.5t-111 -211.5zM358 736 q13 55 49.5 87t74.5 32q26 0 63.5 -29t58.5 -29q37 0 52 58h61q-13 -55 -49.5 -87t-74.5 -32q-26 0 -63.5 29t-58.5 29q-37 0 -52 -58h-61z" />
<glyph unicode="&#xd6;" horiz-adv-x="736" d="M129 345q34 155 148.5 263t242.5 108q126 0 195.5 -108t36.5 -263q-32 -155 -147.5 -261t-242.5 -106q-125 0 -195.5 105.5t-37.5 261.5zM222 360q-30 -140 16.5 -228.5t138.5 -88.5q90 0 175 88t115 229q28 130 -21 211t-140 81q-89 0 -173 -80.5t-111 -211.5zM397 736 l17 80h80l-17 -80h-80zM571 736l17 80h80l-17 -80h-80z" />
<glyph unicode="&#xd7;" horiz-adv-x="778" d="M156 15q-7 9 -1.5 17.5t19.5 19.5l240 198l-156 198q-19 24 -2 38q19 15 36 -9l156 -198l239 197q28 23 40 9q7 -9 1.5 -17.5t-19.5 -19.5l-239 -198l156 -198q18 -23 1 -37t-35 9l-156 198l-240 -198q-28 -23 -40 -9z" />
<glyph unicode="&#xd8;" horiz-adv-x="778" d="M125 -33l70 90q-102 111 -66 288q33 154 154 262.5t258 108.5q74 0 144 -41l66 84l49 -32l-72 -90q42 -42 64.5 -118.5t1.5 -173.5q-33 -154 -153.5 -260.5t-257.5 -106.5q-78 0 -144 41l-66 -84zM214 345q-29 -140 29 -228l398 502q-53 36 -114 36q-100 0 -191.5 -84 t-121.5 -226zM284 74q51 -35 113 -35q100 0 191 82t121 224q31 144 -29 231z" />
<glyph unicode="&#xd9;" horiz-adv-x="688" d="M144 233l98 461h89l-99 -462q-20 -95 17.5 -146.5t104.5 -51.5q68 0 129 52t81 146l99 462h78l-98 -461q-23 -108 -111.5 -181.5t-190.5 -73.5q-103 0 -162 73.5t-35 181.5zM337 868h111l149 -122h-89z" />
<glyph unicode="&#xda;" horiz-adv-x="688" d="M144 233l98 461h89l-99 -462q-20 -95 17.5 -146.5t104.5 -51.5q68 0 129 52t81 146l99 462h78l-98 -461q-23 -108 -111.5 -181.5t-190.5 -73.5q-103 0 -162 73.5t-35 181.5zM407 746l201 122h111l-223 -122h-89z" />
<glyph unicode="&#xdb;" horiz-adv-x="688" d="M144 233l98 461h89l-99 -462q-20 -95 17.5 -146.5t104.5 -51.5q68 0 129 52t81 146l99 462h78l-98 -461q-23 -108 -111.5 -181.5t-190.5 -73.5q-103 0 -162 73.5t-35 181.5zM344 736l155 134h60l97 -134h-59l-76 97l-118 -97h-59z" />
<glyph unicode="&#xdc;" horiz-adv-x="688" d="M144 233l98 461h89l-99 -462q-20 -95 17.5 -146.5t104.5 -51.5q68 0 129 52t81 146l99 462h78l-98 -461q-23 -108 -111.5 -181.5t-190.5 -73.5q-103 0 -162 73.5t-35 181.5zM373 736l17 80h80l-17 -80h-80zM547 736l17 80h80l-17 -80h-80z" />
<glyph unicode="&#xdd;" horiz-adv-x="667" d="M151 694h105l136 -290q1 -1 24 -57q12 14 32.5 38.5t38 44.5t32.5 38l204 226h88l-376 -417l-59 -277h-86l59 278zM396 746l201 122h111l-223 -122h-89z" />
<glyph unicode="&#xde;" horiz-adv-x="639" d="M96 0l148 694h89l-31 -144h160q101 0 156.5 -60t37.5 -142q-18 -84 -99 -143.5t-174 -59.5h-167l-31 -145h-89zM225 202h141q83 0 139.5 41.5t69.5 103.5q14 65 -26 105.5t-121 40.5h-141z" />
<glyph unicode="&#xdf;" horiz-adv-x="481" d="M82 0l117 552q15 72 76.5 112.5t127.5 40.5q70 0 111.5 -42.5t28.5 -104.5q-9 -41 -42 -80.5t-86 -66.5q55 -39 72 -102.5t3 -129.5q-17 -81 -80.5 -135.5t-135.5 -54.5q-9 0 -18.5 1t-17.5 2.5l-16 3t-14 3.5t-10.5 4t-6.5 3.5t-2 2.5q6 11 19 32.5t14 23.5 q30 -15 64 -15q43 0 79 34.5t48 94.5q17 83 -14 142.5t-105 61.5l13 61q66 1 107.5 35.5t51.5 79.5q8 37 -13 61t-64 24q-12 0 -25 -2.5t-32.5 -11t-35 -29t-22.5 -50.5l-117 -551h-75z" />
<glyph unicode="&#xe0;" horiz-adv-x="481" d="M68 113q14 63 99.5 96.5t205.5 35.5l9 43q12 53 -7 83.5t-56 30.5q-80 0 -161 -50l8 66q84 43 166 43q70 0 107 -48.5t21 -123.5l-61 -289h-75l8 36q-71 -47 -176 -47q-31 0 -52 13.5t-28 32.5t-10 40.5t2 37.5zM140 115q-6 -30 18 -47.5t62 -17.5q47 0 82 19 q38 19 47 63l13 62q-207 -10 -222 -79zM247 694h78l97 -167h-61z" />
<glyph unicode="&#xe1;" horiz-adv-x="481" d="M68 113q14 63 99.5 96.5t205.5 35.5l9 43q12 53 -7 83.5t-56 30.5q-80 0 -161 -50l8 66q84 43 166 43q70 0 107 -48.5t21 -123.5l-61 -289h-75l8 36q-71 -47 -176 -47q-31 0 -52 13.5t-28 32.5t-10 40.5t2 37.5zM140 115q-6 -30 18 -47.5t62 -17.5q47 0 82 19 q38 19 47 63l13 62q-207 -10 -222 -79zM282 527l169 167h78l-186 -167h-61z" />
<glyph unicode="&#xe2;" horiz-adv-x="481" d="M68 113q14 63 99.5 96.5t205.5 35.5l9 43q12 53 -7 83.5t-56 30.5q-80 0 -161 -50l8 66q84 43 166 43q70 0 107 -48.5t21 -123.5l-61 -289h-75l8 36q-71 -47 -176 -47q-31 0 -52 13.5t-28 32.5t-10 40.5t2 37.5zM140 115q-6 -30 18 -47.5t62 -17.5q47 0 82 19 q38 19 47 63l13 62q-207 -10 -222 -79zM197 525l161 172h60l89 -172h-59l-70 123l-122 -123h-59z" />
<glyph unicode="&#xe3;" horiz-adv-x="481" d="M68 113q14 63 99.5 96.5t205.5 35.5l9 43q12 53 -7 83.5t-56 30.5q-80 0 -161 -50l8 66q84 43 166 43q70 0 107 -48.5t21 -123.5l-61 -289h-75l8 36q-71 -47 -176 -47q-31 0 -52 13.5t-28 32.5t-10 40.5t2 37.5zM140 115q-6 -30 18 -47.5t62 -17.5q47 0 82 19 q38 19 47 63l13 62q-207 -10 -222 -79zM191 551q13 55 49 87t74 32q26 0 64 -29t59 -29q37 0 51 58h61q-13 -55 -49 -87t-74 -32q-26 0 -64 29t-59 29q-37 0 -51 -58h-61z" />
<glyph unicode="&#xe4;" horiz-adv-x="481" d="M68 113q14 63 99.5 96.5t205.5 35.5l9 43q12 53 -7 83.5t-56 30.5q-80 0 -161 -50l8 66q84 43 166 43q70 0 107 -48.5t21 -123.5l-61 -289h-75l8 36q-71 -47 -176 -47q-31 0 -52 13.5t-28 32.5t-10 40.5t2 37.5zM140 115q-6 -30 18 -47.5t62 -17.5q47 0 82 19 q38 19 47 63l13 62q-207 -10 -222 -79zM248 571l17 80h80l-17 -80h-80zM394 571l17 80h80l-17 -80h-80z" />
<glyph unicode="&#xe5;" horiz-adv-x="481" d="M68 113q14 63 99.5 96.5t205.5 35.5l9 43q12 53 -7 83.5t-56 30.5q-80 0 -161 -50l8 66q84 43 166 43q70 0 107 -48.5t21 -123.5l-61 -289h-75l8 36q-71 -47 -176 -47q-31 0 -52 13.5t-28 32.5t-10 40.5t2 37.5zM140 115q-6 -30 18 -47.5t62 -17.5q47 0 82 19 q38 19 47 63l13 62q-207 -10 -222 -79zM257 602q7 33 44 58t85 25q47 0 73.5 -24.5t19.5 -60.5q-8 -33 -45 -58t-84 -25t-73.5 24.5t-19.5 60.5zM318 601q-4 -17 6.5 -26t18.5 -10t17 -1q50 0 58 37q4 17 -6.5 26t-18.5 10t-17 1q-50 0 -58 -37z" />
<glyph unicode="&#xe6;" horiz-adv-x="722" d="M71 114q26 119 304 133l8 41q11 54 -8 84t-55 30q-81 0 -162 -50l8 66q84 43 166 43q43 0 76.5 -20.5t48.5 -56.5q79 77 168 77q34 0 59 -12t38 -29t20 -43.5t8.5 -47t-1 -48t-4.5 -37.5l-5 -25h-293q-13 -77 19.5 -123t88.5 -46q77 0 150 56l-8 -65q-75 -52 -156 -52 q-97 0 -147 77q-22 -26 -57.5 -43t-74.5 -23.5t-61.5 -8.5t-41.5 -2q-34 0 -55.5 15t-27 35t-8 41.5t2.5 33.5zM143 115q-5 -28 17 -46.5t62 -18.5q13 0 26 1.5t38.5 7.5t43.5 23.5t24 44.5q2 8 10 64q-34 0 -74 -4t-90 -22.5t-57 -49.5zM463 274h229q3 39 -4 66t-21 39 t-27 16.5t-27 4.5q-41 0 -83 -34.5t-67 -91.5z" />
<glyph unicode="&#xe7;" horiz-adv-x="444" d="M83 222q20 94 96 166.5t175 72.5q46 0 76 -9t69 -34l-26 -65q-34 26 -62.5 35t-69.5 9q-73 0 -119 -52.5t-61 -121.5q-15 -74 13 -122t90 -48q87 0 168 54l-8 -67q-85 -51 -174 -51q-92 0 -139.5 69t-27.5 164zM111 -214l109 168h61l-101 -168h-69z" />
<glyph unicode="&#xe8;" horiz-adv-x="444" d="M83 226q20 97 94 166t157 69q90 0 122 -73q27 -61 5 -169h-309q-13 -73 19 -121t92 -48q83 0 164 56l-8 -65q-84 -52 -170 -52q-90 0 -138.5 69t-27.5 168zM168 274h247q5 64 -22.5 95t-71.5 31q-43 0 -86 -35t-67 -91zM229 694h78l97 -167h-61z" />
<glyph unicode="&#xe9;" horiz-adv-x="444" d="M83 226q20 97 94 166t157 69q90 0 122 -73q27 -61 5 -169h-309q-13 -73 19 -121t92 -48q83 0 164 56l-8 -65q-84 -52 -170 -52q-90 0 -138.5 69t-27.5 168zM168 274h247q5 64 -22.5 95t-71.5 31q-43 0 -86 -35t-67 -91zM264 527l169 167h78l-186 -167h-61z" />
<glyph unicode="&#xea;" horiz-adv-x="444" d="M83 226q20 97 94 166t157 69q90 0 122 -73q27 -61 5 -169h-309q-13 -73 19 -121t92 -48q83 0 164 56l-8 -65q-84 -52 -170 -52q-90 0 -138.5 69t-27.5 168zM168 274h247q5 64 -22.5 95t-71.5 31q-43 0 -86 -35t-67 -91zM179 525l161 172h60l89 -172h-59l-70 123 l-122 -123h-59z" />
<glyph unicode="&#xeb;" horiz-adv-x="444" d="M83 226q20 97 94 166t157 69q90 0 122 -73q27 -61 5 -169h-309q-13 -73 19 -121t92 -48q83 0 164 56l-8 -65q-84 -52 -170 -52q-90 0 -138.5 69t-27.5 168zM168 274h247q5 64 -22.5 95t-71.5 31q-43 0 -86 -35t-67 -91zM230 571l17 80h80l-17 -80h-80zM376 571l17 80h80 l-17 -80h-80z" />
<glyph unicode="&#xec;" horiz-adv-x="239" d="M81 0l94 444h75l-94 -444h-75zM93 694h78l97 -167h-61z" />
<glyph unicode="&#xed;" horiz-adv-x="239" d="M81 0l94 444h75l-94 -444h-75zM193 527l169 167h78l-186 -167h-61z" />
<glyph unicode="&#xee;" horiz-adv-x="239" d="M76 525l161 172h60l89 -172h-59l-70 123l-122 -123h-59zM81 0l94 444h75l-94 -444h-75z" />
<glyph unicode="&#xef;" horiz-adv-x="239" d="M81 0l94 444h75l-94 -444h-75zM127 571l17 80h80l-17 -80h-80zM273 571l17 80h80l-17 -80h-80z" />
<glyph unicode="&#xf0;" d="M77 220q21 99 100 170t171 71q76 0 125 -52q13 109 -8 167l-56 -41l-32 48l57 41q-27 21 -72 21l14 64q72 0 114 -44l62 46l32 -49l-63 -45q53 -121 -5 -397q-19 -89 -96 -160t-173 -71q-89 0 -140 66.5t-30 164.5zM157 230q-18 -85 14 -131t89 -46q59 0 110.5 46.5 t69.5 130.5q18 83 -15 126.5t-91 43.5q-56 0 -107.5 -43t-69.5 -127z" />
<glyph unicode="&#xf1;" horiz-adv-x="517" d="M81 0l96 450h72l-15 -71q9 11 25 24.5t56 32.5t80 19q136 0 103 -157l-63 -298h-78l62 291q23 103 -75 103q-52 0 -86.5 -45t-46.5 -104l-52 -245h-78zM209 551q13 55 49 87t74 32q26 0 64 -29t59 -29q37 0 51 58h61q-13 -55 -49 -87t-74 -32q-26 0 -64 29t-59 29 q-37 0 -51 -58h-61z" />
<glyph unicode="&#xf2;" d="M77 220q21 99 100 170t171 71q90 0 139.5 -70.5t28.5 -170.5q-21 -97 -99.5 -164t-169.5 -67q-89 0 -140 66.5t-30 164.5zM157 230q-18 -85 14 -131t89 -46q59 0 110.5 46.5t69.5 130.5q18 83 -15 126.5t-91 43.5q-56 0 -107.5 -43t-69.5 -127zM257 694h78l97 -167h-61z " />
<glyph unicode="&#xf3;" d="M77 220q21 99 100 170t171 71q90 0 139.5 -70.5t28.5 -170.5q-21 -97 -99.5 -164t-169.5 -67q-89 0 -140 66.5t-30 164.5zM157 230q-18 -85 14 -131t89 -46q59 0 110.5 46.5t69.5 130.5q18 83 -15 126.5t-91 43.5q-56 0 -107.5 -43t-69.5 -127zM292 527l169 167h78 l-186 -167h-61z" />
<glyph unicode="&#xf4;" d="M77 220q21 99 100 170t171 71q90 0 139.5 -70.5t28.5 -170.5q-21 -97 -99.5 -164t-169.5 -67q-89 0 -140 66.5t-30 164.5zM157 230q-18 -85 14 -131t89 -46q59 0 110.5 46.5t69.5 130.5q18 83 -15 126.5t-91 43.5q-56 0 -107.5 -43t-69.5 -127zM207 525l161 172h60 l89 -172h-59l-70 123l-122 -123h-59z" />
<glyph unicode="&#xf5;" d="M77 220q21 99 100 170t171 71q90 0 139.5 -70.5t28.5 -170.5q-21 -97 -99.5 -164t-169.5 -67q-89 0 -140 66.5t-30 164.5zM157 230q-18 -85 14 -131t89 -46q59 0 110.5 46.5t69.5 130.5q18 83 -15 126.5t-91 43.5q-56 0 -107.5 -43t-69.5 -127zM201 551q13 55 49 87 t74 32q26 0 64 -29t59 -29q37 0 51 58h61q-13 -55 -49 -87t-74 -32q-26 0 -64 29t-59 29q-37 0 -51 -58h-61z" />
<glyph unicode="&#xf6;" d="M77 220q21 99 100 170t171 71q90 0 139.5 -70.5t28.5 -170.5q-21 -97 -99.5 -164t-169.5 -67q-89 0 -140 66.5t-30 164.5zM157 230q-18 -85 14 -131t89 -46q59 0 110.5 46.5t69.5 130.5q18 83 -15 126.5t-91 43.5q-56 0 -107.5 -43t-69.5 -127zM258 571l17 80h80l-17 -80 h-80zM404 571l17 80h80l-17 -80h-80z" />
<glyph unicode="&#xf7;" horiz-adv-x="778" d="M109 250q4 20 37 20h599q10 0 15.5 -0.5t10.5 -5.5t3 -14q-4 -20 -38 -20h-597q-10 0 -16 0.5t-11 5.5t-3 14zM365 85l18 83h83l-18 -83h-83zM417 331l18 83h83l-18 -83h-83z" />
<glyph unicode="&#xf8;" d="M26 -82l95 123q-64 77 -42 179q21 99 100 170t169 71q44 0 84 -20l89 116l47 -30l-94 -121q64 -72 40 -186q-21 -97 -99.5 -164t-167.5 -67q-44 0 -82 19l-93 -120zM154 220q-17 -71 11 -121l224 288q-23 13 -54 13q-60 0 -111.5 -47.5t-69.5 -132.5zM207 61 q21 -11 53 -11q59 0 110 44t69 126q16 78 -10 127z" />
<glyph unicode="&#xf9;" horiz-adv-x="517" d="M104 109l71 335h78l-70 -331q-8 -37 3 -53t60 -16q51 0 92 28.5t52 81.5l61 290h78l-94 -444h-75l10 48q-80 -59 -185 -59q-59 0 -76 30.5t-5 89.5zM265 694h78l97 -167h-61z" />
<glyph unicode="&#xfa;" horiz-adv-x="517" d="M104 109l71 335h78l-70 -331q-8 -37 3 -53t60 -16q51 0 92 28.5t52 81.5l61 290h78l-94 -444h-75l10 48q-80 -59 -185 -59q-59 0 -76 30.5t-5 89.5zM300 527l169 167h78l-186 -167h-61z" />
<glyph unicode="&#xfb;" horiz-adv-x="517" d="M104 109l71 335h78l-70 -331q-8 -37 3 -53t60 -16q51 0 92 28.5t52 81.5l61 290h78l-94 -444h-75l10 48q-80 -59 -185 -59q-59 0 -76 30.5t-5 89.5zM215 525l161 172h60l89 -172h-59l-70 123l-122 -123h-59z" />
<glyph unicode="&#xfc;" horiz-adv-x="517" d="M104 109l71 335h78l-70 -331q-8 -37 3 -53t60 -16q51 0 92 28.5t52 81.5l61 290h78l-94 -444h-75l10 48q-80 -59 -185 -59q-59 0 -76 30.5t-5 89.5zM266 571l17 80h80l-17 -80h-80zM412 571l17 80h80l-17 -80h-80z" />
<glyph unicode="&#xfd;" horiz-adv-x="461" d="M1 -197l8 65q36 -16 75 -16q10 0 16 2t20.5 15.5t32.5 40.5l55 90l-100 444h79l28 -125q42 -191 34 -262h1q18 69 215 387h75l-331 -535q-43 -69 -74.5 -91.5t-63.5 -22.5q-36 0 -70 8zM273 527l169 167h78l-186 -167h-61z" />
<glyph unicode="&#xfe;" horiz-adv-x="517" d="M41 -194l189 888h75l-64 -299q83 60 177 60q70 0 99.5 -69t9.5 -163q-21 -100 -90 -167t-144 -67q-74 0 -123 57l-51 -240h-78zM184 114q21 -64 84 -64q55 0 109 42.5t72 130.5q19 87 -13 129t-85 42q-68 0 -120 -59z" />
<glyph unicode="&#xff;" horiz-adv-x="461" d="M1 -197l8 65q36 -16 75 -16q10 0 16 2t20.5 15.5t32.5 40.5l55 90l-100 444h79l28 -125q42 -191 34 -262h1q18 69 215 387h75l-331 -535q-43 -69 -74.5 -91.5t-63.5 -22.5q-36 0 -70 8zM239 571l17 80h80l-17 -80h-80zM385 571l17 80h80l-17 -80h-80z" />
<glyph unicode="&#x152;" horiz-adv-x="972" d="M101 345q33 156 155 263.5t254 107.5q29 0 79 -11q47 -11 78 -11h396l-14 -65h-182q-6 0 -18 0.5t-18 0.5h-138l-51 -239h329l-13 -61h-329l-55 -260h209q6 0 18 0.5t18 0.5h125l-15 -71h-410q-21 0 -82.5 -11t-83.5 -11q-131 0 -208 105.5t-44 261.5zM191 360 q-29 -133 23 -227t157 -94q58 0 83 21.5t42 70.5q11 33 49 209t42 220q4 51 -11.5 73t-73.5 22q-105 0 -195 -86t-116 -209z" />
<glyph unicode="&#x153;" horiz-adv-x="778" d="M78 225q21 98 98 167t163 69q107 0 153 -99q34 41 84.5 70t104.5 29q51 0 81 -24.5t37.5 -65t6 -77t-9.5 -75.5h-294q-13 -76 19 -122.5t90 -46.5q77 0 150 56l-8 -65q-75 -52 -157 -52q-56 0 -98.5 28t-61.5 73q-91 -101 -197 -101q-86 0 -134 68.5t-27 167.5zM151 230 q-18 -85 13 -132.5t88 -47.5q56 0 106 46.5t68 133.5q18 84 -13.5 127t-86.5 43q-57 0 -107.5 -44.5t-67.5 -125.5zM518 274h230q5 63 -17 94.5t-63 31.5q-42 0 -84.5 -35.5t-65.5 -90.5z" />
<glyph unicode="&#x178;" horiz-adv-x="667" d="M151 694h105l136 -290q1 -1 24 -57q12 14 32.5 38.5t38 44.5t32.5 38l204 226h88l-376 -417l-59 -277h-86l59 278zM362 736l17 80h80l-17 -80h-80zM536 736l17 80h80l-17 -80h-80z" />
<glyph unicode="&#x2c6;" d="M207 525l161 172h60l89 -172h-59l-70 123l-122 -123h-59z" />
<glyph unicode="&#x2dc;" d="M201 551q13 55 49 87t74 32q26 0 64 -29t59 -29q37 0 51 58h61q-13 -55 -49 -87t-74 -32q-26 0 -64 29t-59 29q-37 0 -51 -58h-61z" />
<glyph unicode="&#x2000;" horiz-adv-x="435" />
<glyph unicode="&#x2001;" horiz-adv-x="870" />
<glyph unicode="&#x2002;" horiz-adv-x="435" />
<glyph unicode="&#x2003;" horiz-adv-x="870" />
<glyph unicode="&#x2004;" horiz-adv-x="290" />
<glyph unicode="&#x2005;" horiz-adv-x="217" />
<glyph unicode="&#x2006;" horiz-adv-x="145" />
<glyph unicode="&#x2007;" horiz-adv-x="145" />
<glyph unicode="&#x2008;" horiz-adv-x="108" />
<glyph unicode="&#x2009;" horiz-adv-x="174" />
<glyph unicode="&#x200a;" horiz-adv-x="48" />
<glyph unicode="&#x2010;" horiz-adv-x="333" d="M52 193l12 58h265l-12 -58h-265z" />
<glyph unicode="&#x2011;" horiz-adv-x="333" d="M52 193l12 58h265l-12 -58h-265z" />
<glyph unicode="&#x2012;" horiz-adv-x="333" d="M52 193l12 58h265l-12 -58h-265z" />
<glyph unicode="&#x2013;" d="M52 244l13 61h499l-13 -61h-499z" />
<glyph unicode="&#x2014;" horiz-adv-x="1000" d="M52 244l13 61h999l-13 -61h-999z" />
<glyph unicode="&#x2018;" horiz-adv-x="278" d="M200 486l18 82l69 126h41l-52 -125h25l-18 -83h-83z" />
<glyph unicode="&#x2019;" horiz-adv-x="278" d="M200 486l52 125h-25l18 83h83l-18 -82l-69 -126h-41z" />
<glyph unicode="&#x201a;" horiz-adv-x="278" d="M71 -124l51 125h-25l18 83h83l-18 -82l-68 -126h-41z" />
<glyph unicode="&#x201c;" horiz-adv-x="472" d="M200 486l18 82l69 126h41l-52 -125h25l-18 -83h-83zM394 486l18 82l69 126h41l-52 -125h25l-18 -83h-83z" />
<glyph unicode="&#x201d;" horiz-adv-x="472" d="M201 486l52 125h-25l18 83h83l-18 -82l-69 -126h-41zM395 486l52 125h-25l18 83h83l-18 -82l-69 -126h-41z" />
<glyph unicode="&#x201e;" horiz-adv-x="472" d="M72 -124l51 125h-25l18 83h83l-18 -82l-68 -126h-41zM266 -124l51 125h-25l18 83h83l-18 -82l-68 -126h-41z" />
<glyph unicode="&#x2022;" horiz-adv-x="778" d="M272 121l61 286h286l-61 -286h-286z" />
<glyph unicode="&#x2026;" horiz-adv-x="626" d="M98 0l18 83h83l-18 -83h-83zM272 0l18 83h83l-18 -83h-83zM446 0l18 83h83l-18 -83h-83z" />
<glyph unicode="&#x202f;" horiz-adv-x="174" />
<glyph unicode="&#x2039;" horiz-adv-x="333" d="M158 219l151 220h61l-134 -220l41 -219h-61z" />
<glyph unicode="&#x203a;" horiz-adv-x="333" d="M56 0l135 219l-42 220h61l59 -220l-152 -219h-61z" />
<glyph unicode="&#x205f;" horiz-adv-x="217" />
<glyph unicode="&#x20ac;" horiz-adv-x="599" d="M105 255l22 56h63q8 48 16 72h-73l21 56h71q19 48 50 95t72.5 88.5t94.5 67.5t107 26q76 0 134 -34l-32 -83q-22 28 -48.5 40.5t-66.5 12.5q-78 0 -151 -89q-46 -56 -72 -124h276l-22 -56h-273q-8 -24 -16 -72h261l-22 -56h-244q-1 -53 11.5 -100t44 -80t77.5 -33 q21 0 37.5 1.5t31.5 5.5t29 11.5t28.5 18t32.5 25.5l-9 -70q-47 -34 -79.5 -45t-84.5 -11q-66 0 -114.5 40t-71 102t-20.5 135h-81z" />
<glyph unicode="&#x2122;" horiz-adv-x="933" d="M161 655l9 39h364l-9 -39h-80q-3 0 -10.5 0.5t-11.5 0.5h-53l-79 -374h-53l79 374h-54q-4 0 -11.5 -0.5t-10.5 -0.5h-80zM506 282l88 416h68q11 -58 29.5 -171t21.5 -130q5 -29 7 -60h1q10 23 88 158l121 203h69l-88 -416h-47l79 372h-1q-7 -16 -41 -74 q-10 -17 -168 -285h-44l-40 233q-17 101 -16 126h-1l-79 -372h-47z" />
<glyph unicode="&#xe000;" horiz-adv-x="445" d="M0 0v445h445v-445h-445z" />
</font>
</defs>
</svg>
