<?xml version="1.0" standalone="no"?>
<!DOCTYPE svg PUBLIC "-//W3C//DTD SVG 1.1//EN" "http://www.w3.org/Graphics/SVG/1.1/DTD/svg11.dtd" >
<svg xmlns="http://www.w3.org/2000/svg">
<metadata></metadata>
<defs>
<font id="finger_paintregular" horiz-adv-x="0" >
<font-face units-per-em="1000" ascent="800" descent="-200" />
<missing-glyph horiz-adv-x="350" />
<glyph horiz-adv-x="1000" />
<glyph horiz-adv-x="1000" />
<glyph unicode="&#xd;" horiz-adv-x="350" />
<glyph />
<glyph />
<glyph />
<glyph />
<glyph />
<glyph />
<glyph />
<glyph />
<glyph unicode="&#x9;" />
<glyph />
<glyph />
<glyph />
<glyph />
<glyph />
<glyph />
<glyph />
<glyph />
<glyph />
<glyph />
<glyph unicode=" "  horiz-adv-x="350" />
<glyph unicode="&#x09;" horiz-adv-x="350" />
<glyph unicode="&#xa0;" horiz-adv-x="350" />
<glyph unicode="!" horiz-adv-x="312" d="M70 283v27l11 1q-2 11 -3 21.5t-1 21.5q0 32 5 64.5t5 64.5q0 8 -0.5 15t-1.5 15h-6q-1 -38 -5 -74q-3 -31 -4 -63q0 64 4 128q4 68 9 138q13 24 13 50q3 -1 8 -1t9 0.5t8 0.5t7 -4.5t3 -7.5l-1 -10l11 -1q5 11 15 22.5t24 11.5q9 0 14.5 -6t8.5 -14.5t3.5 -17.5t0.5 -16 q0 -46 -4 -91t-9 -90.5t-9 -90.5t-4 -91q0 -11 4 -20.5t4 -20.5q0 -7 -4.5 -10.5t-10.5 -4.5l-8 28q-3 12 -4 25q0 -29 7 -54l-16 -4l4 -13q-8 -22 -29 -22q-13 0 -20 11.5t-10.5 28.5t-4 36.5t-0.5 35.5q0 35 1 69q2 31 2 62l-3 -50q-2 -29 -2 -58q0 -31 0.5 -61t3.5 -61 q-11 8 -16 21.5t-7 28.5t-2 30zM80 43q0 12 10 25.5t24.5 25.5t30.5 20t27 8h34q10 0 18.5 -4.5t18.5 -4.5l8 1l9 -5l1 -6l-1 -10q-18 4 -36.5 6.5t-37.5 4.5q18 -5 37 -7t36 -9l-3 -17h5l1 -9q0 -11 -3.5 -22.5t-7.5 -22.5q-7 5 -18 10.5t-19 5.5q-3 0 -7 -1.5t-6 -2.5 q12 0 25.5 -3t21.5 -15q-1 -5 -7 -11l-13 6v11l-9 -3l-17 3q-9 -2 -10 -9l3 -4q8 4 16 4q1 0 2 -1h1q-9 -1 -14 -5t-13 -12l-9 2l-3 -2q-8 5 -16 9t-16 9l3 3l-9 6q-6 0 -15.5 1t-19 3.5t-16 7.5t-6.5 14zM162 343q1 15 3 28l4 32q-3 -15 -5 -31q-2 -14 -2 -29zM222 7l1 -1z " />
<glyph unicode="&#x22;" horiz-adv-x="394" d="M50 380q3 7 4 14.5t1 15.5v10h11q-1 5 -1.5 10t-0.5 10q0 20 3.5 40t3.5 40q0 15 -3 30h-6q0 -43 -3 -83v72q0 25 1 50t6 50q6 8 11.5 16.5t5.5 18.5q3 -1 9 -1.5t11.5 -1.5t9.5 -3.5t4 -7.5q0 -4 -2 -8l10 -2q14 14 31 14q15 0 24 -6.5t9 -22.5q0 -32 -4 -63.5t-9 -62.5 t-9 -59.5t-4 -52.5q0 -3 0.5 -9t0.5 -13q0 -9 -2.5 -16t-10.5 -7q-3 0 -9 2q4 12 4 26v6q0 4 -1 7q-1 -10 -3.5 -19t-4.5 -18l-16 4q0 -4 -2.5 -7.5t-7.5 -3.5q-14 0 -23 8.5t-21 13.5q4 0 7 12.5t5 30t3 37t1 33.5v17q-1 -7 -2 -28t-3.5 -43t-6.5 -39.5t-10 -17.5 q-2 0 -5.5 2.5t-5.5 4.5zM55 425l1 8v-6zM56 433q0 5 0.5 9t1.5 9zM58 460q0 3 1 5q0 -2 -1 -4v-1zM147 422l6 37q-2 -8 -4 -15q-2 -10 -2 -18v-4zM206 395q3 5 4 12t1 14v8h11q-1 5 -1 8v9q0 18 3 36t3 37q0 13 -3 27h-6q0 -22 -2 -43.5t-3 -43.5l-1 51v9q0 37 6 70.5 t22 68.5q3 -1 8 -2l11 -2q6 -1 10 -3.5t4 -6.5q0 -3 -2 -7l10 -2q8 7 17 9t19 2q13 0 20 -9t7 -21q0 -11 -4 -40.5t-8.5 -63t-8.5 -63t-4 -39.5q0 -4 0.5 -9.5t0.5 -11.5q0 -8 -2.5 -15t-11.5 -7q-4 0 -8 2q2 8 2 15v16l-7 -28l-16 4l-8 -9q-10 0 -22 8.5t-21 13.5q3 2 5 16 q3 16 4.5 35t2.5 37t1 24q-2 -13 -3 -32t-3 -36t-5 -29.5t-8 -12.5q-9 0 -14 4zM211 434l2 20v-9q0 -4 -1 -9zM224 390q1 0 2 -1h-1zM303 432q1 0 1 4t1 6l8 42q-3 -11 -6.5 -23t-3.5 -23v-6z" />
<glyph unicode="#" horiz-adv-x="703" d="M50 472q0 11 10 17t24 9t27.5 3.5t21.5 0.5q25 0 30 13.5t5 34.5q0 29 7 57.5t7 57.5q2 -1 6 -1t8 1t8 1q8 0 11 -6.5t3 -13.5l-1 -11l10 -1q1 6 4.5 14.5t8.5 16t11 13t14 5.5q10 0 16 -8.5t8.5 -20.5t3 -24.5t0.5 -19.5q0 -25 -2 -49.5t-4 -49.5q14 1 26.5 1.5 t26.5 0.5q3 34 14.5 65.5t14.5 65.5l8 -3q2 0 5 0.5t5 0.5q7 0 11.5 -3t4.5 -12q0 -6 -2 -16l11 -1q2 6 6 13t9 13.5t11.5 11t13.5 4.5q8 0 13 -5t7.5 -12t3 -15t0.5 -14q0 -25 -3 -50t-10 -49q16 -1 43.5 -2t54.5 -3.5t47 -7t20 -11.5l-1 -6q-42 4 -84 6l-84 4 q42 -5 83.5 -7t83.5 -8l-1 -17h15q13 -8 13 -23q0 -11 -6 -18.5t-14 -13.5q-41 13 -91.5 15.5t-93.5 2.5l-1 -3q45 -3 89.5 -5.5t88.5 -15.5q-13 -10 -27 -10q-21 0 -42.5 3t-42.5 4v11q-11 -2 -21 -2h-47q-3 -30 -10.5 -61.5t-16.5 -60.5q13 -2 37 -4t47 -6t40.5 -8.5 t17.5 -10.5l-1 -6q-74 4 -147 15q36 -7 72.5 -11t73.5 -9l-1 -17l13 -1q11 -9 11 -22q0 -10 -5 -17.5t-12 -14.5q-41 12 -83 16l-84 8q40 -7 80.5 -12.5t79.5 -17.5q-12 -10 -25 -10q-19 0 -37.5 3.5t-37.5 5.5l1 11q-6 -1 -11.5 -1.5t-11.5 -0.5q-10 0 -20 1t-21 3l-1 -6 l54 -6l-55 4q-3 -15 -5.5 -41t-5.5 -51t-8 -43.5t-12 -18.5l-6 1q6 38 8 77q2 38 7 75q-7 -37 -10 -74q-3 -38 -10 -76q-6 2 -8 2q-10 0 -10 -16l-5 -9q3 1 9 1q8 0 14 -4t6 -13l-5 -10q2 -2 2 -3q0 -2 -4 -3.5t-9 -2.5t-9 -1.5t-5 -0.5q-19 0 -29 15l-2 1q-5 9 -8.5 18.5 t-8.5 18.5v27v7l-6 -23q-5 8 -6.5 17t-1.5 18q0 23 2.5 47t7.5 47l11 -1v11q0 6 1 12l-9 -4v4h-40q-1 -9 -4 -34.5t-8.5 -52.5t-13 -48t-17.5 -21l-1 3q0 21 6 41t6 41v6q-4 -23 -10 -45q-5 -23 -7 -46l-9 1l-7 -5q0 -12 8.5 -21t8.5 -15q0 -11 -8 -15.5t-17 -4.5 q-26 0 -35.5 20t-9.5 42q0 33 9 65t11 65q-6 -35 -17 -70.5t-11 -70.5l1 -6q-5 10 -8.5 20.5t-3.5 21.5q0 27 7 53.5t12 53.5l11 -1v25q-11 3 -21.5 4.5t-19 3.5t-13.5 7.5t-5 17.5q0 8 5.5 10.5t12.5 2.5h6v11q-12 5 -23.5 14.5t-11.5 23.5q0 10 7.5 16t17.5 8.5t21 3 t18 0.5q9 0 14 11t7 25.5t3 29t2 20.5l-20 -1q-16 6 -32 8t-33 2q1 2 1 6t-1 8t-1 8q0 10 7 11.5t14 1.5h6v11q-13 4 -27 13t-14 25zM143 293q6 1 9.5 12.5t5.5 26t3.5 28.5t1.5 19q-6 0 -9.5 -12t-5.5 -26.5t-3 -28.5t-2 -19zM240 173l29 -2l10 9h-20q-14 0 -19 -1l1 -3z M261 293q5 0 9 0.5t9 0.5t9.5 -0.5t9.5 -0.5l18 92h-39q-1 -9 -2 -21.5t-3 -26t-5 -25.5t-6 -19zM279 172l8 4v5q-8 0 -8 -9zM283 395q2 -2 2 -5l-1 -1l45 5l1 8q-9 -1 -23.5 -3t-23.5 -4zM302 293l7 -1q6 24 11 48t8 48q-5 -1 -9.5 -13.5t-8 -29t-5.5 -31.5t-3 -21z" />
<glyph unicode="$" horiz-adv-x="639" d="M50 601q0 47 21 78.5t54 50t74 26.5t80 8q7 0 13.5 11t12 25t9 27.5t5.5 19.5q4 -4 9 -4.5t9.5 -1t8 -3t3.5 -9.5q0 -8 -2.5 -16t-5.5 -16l10 -3q3 6 8.5 15t12 16.5t14.5 13t16 5.5q11 0 14 -10.5t3 -18.5q0 -17 -3.5 -32.5t-7.5 -31.5q18 -6 34 -10.5t32 -10t31 -13.5 t30 -20q-5 0 -6.5 -3.5t-2.5 -7.5t-2.5 -7.5t-6.5 -3.5q-19 8 -37.5 15t-37.5 13l-2 -10q9 -3 19.5 -9t20.5 -14t16.5 -17.5t6.5 -20.5q0 -6 -4 -11.5t-10 -6.5q-32 17 -57 22.5t-51 9.5q-8 -32 -13 -69t-10 -69q5 -1 10.5 -1.5t10.5 -0.5q41 0 79 -22t67 -55.5t46.5 -75 t17.5 -80.5q0 -51 -26.5 -87.5t-67 -59.5t-88.5 -34t-91 -11q0 -24 5.5 -47.5t5.5 -47.5q0 -7 -3 -14t-11 -7q-5 22 -9 42q-3 20 -5 40q0 -5 1 -17q1 -13 2.5 -27t3 -25t1.5 -13l-8 1l-9 -3l6 -24q0 -3 -0.5 -9.5t-2 -12.5t-4 -10.5t-7.5 -4.5q-17 0 -26.5 8.5t-14 22.5 t-6 30.5t-1.5 33.5v36q0 13 -1 21t-6 8q0 -30 1 -59.5t4 -59.5q-18 25 -21 55.5t-4 59.5q-8 -2 -20.5 -3t-26.5 -1q-15 0 -28.5 2t-18.5 10q2 4 16.5 5t31.5 2t31 2t15 6q-23 -2 -45 -3.5t-45 -1.5l4 10l-69 15l18 17l-16 18l31 12q7 -2 24 -3t37 -1t37.5 1.5t21.5 3.5l9 7 q-38 -3 -69 -3h-20q-9 0 -19 1q24 8 49 11.5t50 7.5q3 60 6.5 118.5t9.5 118.5q-32 11 -62.5 28.5t-54.5 41t-39 54t-15 67.5zM157 446q15 -9 38 -18.5t40 -15.5l1 8q-17 5 -40 13.5t-38 17.5zM172 605q0 -10 7 -20t17 -19t21.5 -16t19.5 -11q4 25 9 54.5t10 54.5l-68 -13 q-3 -8 -9.5 -16t-6.5 -14zM206 173l8 1q0 59 6 116.5t14 115.5l-9 3q-6 -60 -10 -118t-9 -118zM227 176h2q5 50 7 99q2 48 6 95q-7 -47 -10 -95q-2 -49 -5 -99zM299 189q9 31 9 63q1 30 5 60q-6 -30 -10 -59q-4 -32 -4 -64zM317 98q5 -1 8.5 -1.5t6.5 -0.5q13 0 23 3.5 t24 7.5zM320 170q19 3 37 7.5t36 9.5l-73 -15v-2zM321 193q19 5 38 9t38 9l10 -8q12 4 25 9.5t24.5 13t18.5 18.5t7 26t-9 36t-23 41t-31 34t-33 14q-11 0 -20.5 0.5t-20.5 1.5l-2 -9q22 0 43 -6q-12 0 -22 0.5t-21 1.5q-10 -48 -14 -95.5t-8 -95.5zM399 405 q19 -7 36.5 -21.5t31 -33.5t21.5 -40.5t8 -41.5q0 -17 -7.5 -29.5t-20.5 -22.5q17 5 24.5 21.5t7.5 32.5q0 19 -9 40.5t-23 40.5t-32.5 33.5t-36.5 20.5zM405 375q30 -14 50.5 -40t20.5 -64q0 -19 -14 -33q4 10 8 18t4 19q0 10 -6 24t-16 28.5t-22.5 27t-24.5 20.5zM492 145 q13 7 24 16.5t22 20.5l4 14q-8 -12 -23 -27.5t-27 -23.5zM552 205q9 14 13 31t4 34t-5 39q3 -20 3 -36q0 -17 -3.5 -33.5t-11.5 -34.5z" />
<glyph unicode="%" horiz-adv-x="824" d="M50 469q0 40 18 73l13 -7q2 21 6.5 42t13.5 38t25 28t42 11q15 0 29 -5t29 -5q21 0 42 4.5t42 7.5q94 12 191 12q56 0 111 -3.5t111 -8.5q2 -17 4.5 -33t2.5 -33q0 -46 -22 -89.5t-58 -84.5t-81 -79.5t-91 -74.5t-88 -68.5t-71 -62.5q-8 -8 -23.5 -26t-32.5 -36.5 t-32.5 -33.5t-23.5 -16l-6 6q38 43 74.5 86t82.5 77q-20 -11 -41.5 -30t-42.5 -41.5t-40 -45t-34 -40.5l-10 12q-5 -6 -16 -16.5t-23 -21t-24 -18t-19 -7.5q-4 0 -6.5 4t-2.5 7q0 35 34 78t86.5 91t115.5 98.5t121.5 100t105 97t64.5 88.5h-3q-29 -49 -70.5 -93t-88 -84 t-95.5 -77t-93 -72q-41 -32 -76.5 -69t-70.5 -74q25 46 58.5 82.5t72 69t78.5 63.5t78 64l7 -8q51 45 98.5 93.5t85.5 105.5q-69 0 -131 -2t-123 -8q39 -62 39 -132q0 -14 -1.5 -26.5t-2.5 -26.5q-39 -2 -77.5 -6.5t-77.5 -4.5q-31 0 -63.5 6.5t-59 21.5t-43.5 40t-17 62z M86 463q0 -11 5.5 -19.5t10.5 -19.5l9 7q-5 7 -8 15t-3 16t2 14.5t4 13.5l-19 -4l-1 -21v-2zM158 480q0 -2 1 -4.5t2 -4.5l10 -11q4 -4 12 -7t18 -5.5t19 -3.5t14 -1h16q9 0 17 1q-4 7 -11.5 17t-15.5 20t-16.5 18.5t-15.5 14.5q-9 -2 -17.5 -3t-16 -4t-12 -9t-4.5 -18z M345 546l5 -7q47 5 93 7.5t93 2.5h31q16 0 32 -1l4 8q-17 1 -35 1h-35q-48 0 -94.5 -2t-93.5 -9zM429 79q0 44 18 78t47.5 57t67.5 34.5t79 11.5l1 -20q32 -8 60 -24.5t47 -44.5l-9 -6q23 -32 23 -71q0 -36 -18 -60t-45.5 -38.5t-60 -21t-61.5 -6.5q-27 0 -53 4.5t-49 21.5 l-4 -4q21 -19 49 -25t56 -6q30 0 63.5 8t62.5 24.5t48 42t19 61.5q0 30 -12 59q6 -13 11 -27t5 -28q0 -36 -18.5 -63t-46.5 -45.5t-62.5 -27.5t-65.5 -9q-30 0 -57.5 7t-48.5 22.5t-33.5 39t-12.5 56.5zM434 368l8 6zM442 374q22 19 41 37q24 22 48 46q-23 -26 -47 -48 q-20 -17 -42 -35zM534 460q33 34 59 75q-7 -21 -25 -40.5t-34 -34.5zM547 344q27 23 56 50t53.5 58t40 66t15.5 74l-1 14q0 -33 -17.5 -70t-42.5 -72t-53.5 -66.5t-50.5 -53.5zM552 84q9 -5 18 -9t24 -4q16 0 34.5 7.5t28.5 18.5q0 20 -13 26t-29 6q-4 0 -7.5 -0.5 t-7.5 -0.5l-10 3q-11 -11 -22.5 -21.5t-15.5 -25.5zM563 571q5 0 10 -1q11 0 22.5 -0.5t21.5 -0.5h17l1 1zM602 548q5 0 6.5 1.5t3.5 6.5q-8 0 -10 -8zM605 220q36 0 72.5 -16.5t55.5 -48.5q-6 12 -18 24.5t-27 22.5t-31 16t-30 6q-5 0 -11 -1t-11 -2v-1zM618 -15 q23 3 46.5 11t42.5 22t31 34.5t12 47.5q0 8 -2 16t-5 16q2 -9 3.5 -16.5t1.5 -15.5q0 -25 -11.5 -45t-30.5 -34t-42 -23t-46 -13zM624 148q10 -7 21 -10.5t19 -10.5q-8 8 -17.5 12t-18.5 11zM624 548l4 -1l3 8q-5 0 -7 -7zM663 74q6 4 11 9.5t5 15.5q0 4 -2 10v-7 q0 -10 -4.5 -16.5t-9.5 -11.5z" />
<glyph unicode="&#x26;" horiz-adv-x="817" d="M50 112q0 45 15.5 81.5t38.5 66t49 54t48 46.5l-11 12q-23 22 -37.5 42t-24.5 39.5t-17.5 40t-15.5 44.5l-4 36q0 39 12.5 59.5t35.5 43.5q13 7 26.5 9t27.5 2q18 0 37.5 -2t40.5 -3q28 -14 57 -20.5t54.5 -16t45.5 -28t31 -56.5q1 -11 1 -18v-12q0 -26 -7 -50t-19 -46 t-27 -42t-30 -38q33 -37 70.5 -73t62.5 -81q58 43 94 69t56 40t29 19t13 5q3 0 5 -6q-42 -39 -90.5 -70.5t-95.5 -69.5l1 -2q46 37 94.5 67t90.5 68q0 -6 1 -9.5t9 -3.5q18 18 25.5 23t19.5 5q4 0 9.5 -1.5t5.5 -12.5q0 -23 -12 -41t-31.5 -34t-43 -30.5t-46.5 -29.5 l-63 -42q-2 -2 -8.5 -6.5t-6.5 -6.5l2 -2q51 33 103.5 67.5t101.5 78.5q-15 -20 -37.5 -42t-48 -43t-53 -40.5t-53.5 -34.5q19 -20 37 -39.5t38 -37.5q-5 0 -7 -3.5t-3.5 -7t-2.5 -7t-5 -3.5q-5 0 -25.5 14t-57.5 58l-8 -7q38 -48 61.5 -82t42.5 -53q4 -5 4.5 -7t0.5 -4 q0 -5 -6 -5h-4q-11 0 -28.5 9.5t-39 26t-45 38t-45.5 44.5q-29 -19 -56.5 -34t-63.5 -28l-9 6q-17 -5 -33.5 -11t-27.5 -6q-23 -4 -41 -6t-36 -2q-41 0 -66.5 8t-42.5 20.5t-27.5 29.5t-19.5 35q-5 17 -6 28.5t-1 22.5q0 40 15 74.5t37.5 64t49 54t49.5 44.5l-5 6l-36 -33 q-14 -13 -34 -33t-38 -46t-31 -58.5t-13 -70.5q0 -10 2 -24t7 -35q15 -29 32.5 -47.5t38 -29t44 -14.5t49.5 -4q17 0 40.5 3.5t46.5 7.5v-2q-8 -1 -18.5 -3t-22.5 -3.5t-23.5 -2.5t-20.5 -1q-68 0 -109 24.5t-58 69.5q-6 11 -8 26.5t-2 30.5zM73 112q0 -44 16 -70q1 -1 1 -2 q-8 14 -8 33q-5 16 -5.5 27t-0.5 20q0 34 13.5 65t34.5 59t46.5 52.5t48.5 44.5l-1 1q-16 -15 -40.5 -37t-48 -51t-40 -64.5t-16.5 -77.5zM90 40q16 -24 38 -36q24 -13 50 -17t47 -4q67 0 128.5 22t119.5 61l-1 2q-59 -39 -121.5 -60.5t-144.5 -21.5q-2 0 -21 2.5 t-41.5 11.5t-41.5 26q-7 6 -12 14zM145 107q0 -6 2 -13l1 -4q0 -11 7 -17.5t18 -11t24.5 -6t25.5 -1.5q45 0 83 10.5t74 29.5q-44 -21 -105 -33q-13 -2 -25 -4t-25 -2q-10 0 -23 1.5t-24.5 5t-19.5 10t-8 16.5l-1 5q-3 9 -3 17q0 38 24.5 73t64.5 70q-17 -14 -32.5 -29.5 t-28 -32.5t-20.5 -35t-9 -37v-12zM166 114q0 -4 1 -7.5t1 -7.5l1 -3q0 -7 10 -12.5t39 -7.5q13 0 28.5 2t42.5 5q14 0 30 5t32.5 12.5t31.5 16.5t28 17q-12 13 -27 31t-31.5 37.5t-34 38t-33.5 32.5q-24 -21 -45.5 -41t-38 -40t-26 -39.5t-9.5 -38.5zM216 567 q1 -35 23.5 -65t50.5 -58q0 2 2 2q19 23 29.5 42.5t13.5 42.5q-7 4 -31 11.5t-63 18.5q-4 1 -9 2.5t-6 2.5q-7 0 -10 1zM259 566q3 -2 3 -4t-1 -2q20 -5 39 -10.5t35 -13.5v4l-4 6q-17 8 -35 11.5t-37 8.5zM293 441l6 -6q23 27 36 51t13 52l-9 8q0 -3 -1 -3l-4 2 q2 -2 5 -7.5t3 -7.5t-1 -2t-2 1q0 -21 -16 -47q-2 -3 -6.5 -9t-10 -12.5t-9.5 -12t-4 -7.5z" />
<glyph unicode="'" horiz-adv-x="238" d="M50 456q3 7 4 14.5t1 15.5h10q-1 5 -1 14q0 18 3 34t3 35q0 6 -0.5 12t-2.5 12h-5q0 -23 -1 -51.5t-6 -49.5v53q0 42 4.5 78t24.5 74q3 -1 8 -2t10.5 -2.5t9.5 -4t4 -6.5q0 -2 -2 -6l11 -2q14 9 27 9q14 0 25 -6.5t11 -22.5q0 -41 -8 -82t-11 -79l-3 -9q-1 -3 -2 -7 t-1 -7t0.5 -8t0.5 -10q0 -9 -3 -17t-11 -8q-2 0 -4.5 1t-4.5 2q5 18 6 38q-2 -10 -5 -19t-6 -17l-15 5q-2 -8 -9 -8q-6 0 -11.5 3.5t-10 8t-9 8t-9.5 3.5q4 6 6 20t3 30t1.5 31t0.5 21q-1 -5 -2 -21.5t-3.5 -34t-5.5 -31.5t-8 -14zM68 454l4 -2l-2 -1v1zM147 491l1 2v-1 l5 33q-2 -9 -3 -17.5t-3 -16.5z" />
<glyph unicode="(" horiz-adv-x="464" d="M50 344q0 96 30 189t89 170q26 35 60.5 61t68.5 52q3 -5 10 -11.5t7 -11.5q0 -4 -4 -9.5t-10 -10.5t-11.5 -9.5t-8.5 -7.5l7 -8q14 9 30.5 16t33.5 7q6 0 13 -2.5t7 -10.5q0 -10 -14.5 -27t-36.5 -42t-48 -60t-48 -81t-36.5 -105t-14.5 -132q0 -44 7 -88t24 -85l2 -4 l-1 1q6 -26 24 -43.5t40.5 -29t47.5 -18.5t46 -12t34.5 -9t13.5 -10l-1 -4q-46 3 -91.5 14t-83.5 39q36 -29 81.5 -41t90.5 -17l-3 -11l10 -7h4q6 0 14 -0.5t14.5 -2.5t11.5 -6.5t5 -11.5q0 -14 -12 -21.5t-23 -11.5q-85 17 -146 35.5t-102.5 53.5t-66 93t-35.5 154 q7 -84 29.5 -143.5t62.5 -99.5t100 -63.5t142 -35.5q-22 -8 -44 -8q-51 0 -103 21t-90 53l7 8q-39 27 -62.5 69t-36 90t-16.5 98t-4 94q0 25 1 50t4 50l-5 2q-9 -56 -9 -112q0 -37 5.5 -82.5t17.5 -91.5t30 -87q17 -38 41 -64q-28 29 -46 67q-19 40 -31 84.5t-17 89.5t-5 87 zM161 237q2 -31 11 -68t25 -65q-2 6 -4.5 12t-5.5 11l1 -1q-12 26 -18 55q-6 28 -9 56z" />
<glyph unicode=")" horiz-adv-x="395" d="M0 -95q0 9 3.5 18t8.5 17q45 30 80.5 59.5t62 64t44.5 76t29 96.5q-11 -51 -28 -91.5t-42.5 -74t-59.5 -62t-79 -53.5q13 21 31 38l36 32q18 17 35.5 34t30.5 38l9 -6q37 69 54.5 148.5t17.5 157.5q0 22 -2 44t-7 43q0 -3 -2 -3q-3 0 -3 1q2 -22 3 -44q2 -22 2 -46 q0 -72 -14 -144q-13 -71 -45 -127q15 29 26 62q11 35 17.5 72t9 73t2.5 69q0 50 -9 103.5t-32 99t-61.5 77.5t-97.5 40q1 3 1 9v10q0 6 3 10t14 4q8 0 16.5 -2t16.5 -4l2 10q-6 2 -18 7t-24.5 12t-21.5 14.5t-9 15.5q0 7 6.5 11t15.5 5.5t18 2t14 0.5q50 0 91.5 -18.5 t74 -50.5t56 -73.5t39 -87t23 -92.5t7.5 -89q0 -40 -5.5 -88.5t-16.5 -97.5t-27.5 -94.5t-38.5 -79.5q-9 -14 -31.5 -41t-49 -54.5t-52.5 -49t-41 -22.5l-9 8q52 39 90.5 78.5t67 84.5t47.5 97.5t32 115.5q-15 -64 -33.5 -115.5t-46 -95.5t-66.5 -83t-93 -77l-9 14 q-6 -9 -19.5 -16t-24.5 -7q-19 0 -19 17zM164 119l1 2z" />
<glyph unicode="*" horiz-adv-x="724" d="M51 477q33 -4 60 -6t57 -5q-31 1 -59 4t-58 7zM51 484l6 102l10 2q2 0 5.5 -0.5t16.5 -0.5q7 0 16 0.5t22 0.5l-1 11q32 2 63.5 4t63.5 4q2 23 3.5 43t1.5 43v29q0 15 -1 35h122l5 -7l7 -1q0 -11 0.5 -25.5t2 -31t4 -33.5t7.5 -32q48 10 88 19t72 12q-37 -14 -75.5 -27 t-79.5 -21l2 -6q28 5 56.5 14.5t57 18.5t57.5 15.5t58 6.5q15 0 24 -2.5t9 -8.5t-10.5 -16t-35.5 -24q-28 -8 -45.5 -14t-17.5 -11t9 -10q-32 -10 -64.5 -17.5t-64.5 -13.5l6 -3q32 6 64 13.5t64 17.5q4 -4 4 -5q0 -5 -33.5 -17.5t-94.5 -24.5q13 -6 30 -15t29 -17l122 -79 l-151 -27q14 -48 21.5 -71t7.5 -37q0 -2 -1.5 -5t-5.5 -3q-8 0 -18.5 9.5t-22.5 25.5t-25 38t-25 48q-5 1 -15 5q20 -46 27 -67.5t7 -30.5q0 -7 -9 -7h-7q-9 0 -10 -7q-16 37 -31.5 73t-30.5 74l-8 7q-5 -18 -17.5 -40t-30.5 -42l-99 -106l-4 145v12q0 30 7 57q-5 1 -10 1.5 t-10 0.5l33 1q0 2 0.5 3t0.5 2q-32 4 -70 5t-71 6q-1 -1 -3 -1q-4 0 -7.5 1.5t-6.5 1.5zM53 500q5 25 7 39.5t3 22t1.5 9.5t1.5 3h-8zM159 487h9l34 -2q1 1 1 3q-5 1 -11 1h-10q-6 0 -12 -0.5t-11 -1.5zM166 580h10q4 0 7 -1q4 0 15.5 1t22.5 1.5t20 2t9 3.5q-9 -1 -23 -2 t-27.5 -2t-23.5 -2zM192 422l6 -4q0 11 3 22q2 4 2.5 10.5t2.5 11.5q-2 1 -6 1q-4 -11 -5 -20.5t-3 -20.5zM207 485q2 -1 7 -1q0 1 0.5 2t0.5 2h-4q-4 0 -4 -3z" />
<glyph unicode="+" horiz-adv-x="549" d="M50 375q0 10 6.5 16t16 9t20 3.5t17.5 0.5q19 0 37.5 -2t37.5 -2q4 0 8 0.5t8 0.5q-3 66 -3 131q6 12 8 25t2 26l7 -1q4 0 7.5 0.5t7.5 0.5q6 0 10 -2.5t4 -10.5l-1 -8h11q5 12 15 22t24 10q10 0 16.5 -13t10 -32.5t5 -43.5t2 -46.5t0.5 -40.5v-25q31 -4 61 -10.5 t61 -6.5q6 0 13 1t13 1q9 0 15.5 -4t6.5 -16q-40 2 -78 3q-27 1 -54 5q27 -4 54 -6q38 -3 77 -8q-1 -3 -1 -8q0 -6 1 -8h12q11 -9 11 -24q0 -17 -14 -31q-8 3 -33.5 6.5t-55.5 6.5t-57 5t-37 2q45 -5 89 -10.5t88 -16.5q-5 -5 -11 -8t-13 -3q-17 0 -33.5 2.5t-33.5 4.5v11 q-6 -1 -12 -1.5t-12 -0.5q-16 0 -31.5 2t-32.5 4q5 -5 13 -8q7 -2 13 -4l-26 2q-1 -20 -4 -41t-3 -41q0 -5 1.5 -14.5t1.5 -18.5t-3 -15.5t-12 -6.5q-3 17 -4 34.5t-1 34.5l-4 -69q-2 0 -4 0.5t-4 0.5t-4 -0.5t-4 -0.5v-13q-10 -13 -24 -13q-9 0 -16 4t-15 9q3 7 5 22 t2.5 33t1 35t0.5 29v32q-4 -36 -5.5 -72.5t-9.5 -72.5q-5 5 -9 10.5t-4 13.5q0 17 1.5 31.5t1.5 31.5l10 5q-2 11 -3 20.5t-1 20.5q0 3 0.5 6.5t0.5 7.5q-7 -10 -6.5 -20.5t-1.5 -21.5v42q-23 0 -47 1t-47 1q-21 11 -48 11q1 2 1 6q0 5 -1 9t-1 9q0 12 13 12l8 -1v11 q-11 5 -21.5 14.5t-10.5 23.5zM204 461q1 -2 1 -11.5t0.5 -20t1.5 -19t4 -8.5l-1 59h-6zM354 368l11 -2z" />
<glyph unicode="," horiz-adv-x="297" d="M10 -57q0 6 5 13t12 14t14 12.5t12 9.5l8 -8q7 10 19 20l24 21q12 11 21.5 21.5t11.5 21.5l-5 3q-10 -24 -34 -43.5t-43 -33.5q16 15 33.5 31t32 34t23.5 38.5t9 47.5q6 2 13 4t14 2q9 0 9 -12h10q7 11 17 19t24 8q16 0 21.5 -15.5t5.5 -28.5q0 -20 -5 -43t-14 -45 t-22 -41.5t-29 -31.5q-6 -4 -21 -17t-32 -27.5t-31 -25.5t-18 -11q-3 0 -8 2.5t-7 4.5q20 23 43 42t49 35q-26 -14 -50 -33t-45 -40l-14 9l-9 -6q-14 0 -25.5 9.5t-14.5 22.5q30 22 59.5 48.5t54.5 53.5q-29 -25 -57.5 -48.5t-59.5 -45.5z" />
<glyph unicode="-" horiz-adv-x="416" d="M40 343q0 17 14 23t31 6q11 0 21 -1t21 -1q16 0 31 2.5t30 2.5q9 0 25 -1t35 -3.5t37.5 -6t32.5 -8.5q7 0 14.5 1t13.5 1q10 0 12 -5.5t2 -11.5v-3q-30 0 -60 1q-26 2 -51 7q24 -6 51 -7q31 -2 60 -7q-2 -8 -2 -12q0 -1 0.5 -2t0.5 -2l9 -2q8 -9 8 -22q0 -16 -10 -31 l-4 2q-25 8 -59 11t-56 3q-8 0 -16 -0.5t-16 -0.5q37 -4 74.5 -6t72.5 -16q-9 -11 -17 -11q-12 2 -20.5 3t-19.5 2l-7 11q-5 -1 -10.5 -1.5t-10.5 -0.5q-20 0 -38.5 3.5t-37.5 3.5q-15 0 -33 -5q1 -1 1 -3v-2q8 0 16 0.5t16 0.5q24 0 47.5 -2t47.5 -5q-33 3 -67 3 q-33 0 -66 -1.5t-68 -1.5h-12q-8 5 -14.5 6.5t-11.5 3.5t-7.5 7t-2.5 18q0 5 2 8.5t7 3.5l6 10q-11 6 -16.5 16.5t-5.5 21.5zM244 348q2 -1 5 -2q-2 1 -5 2z" />
<glyph unicode="." horiz-adv-x="344" d="M50 56q0 5 1 6l32 32q0 -4 5 -6.5t8 -2.5q5 15 15 24t21 16.5t21 16.5t15 24q-1 1 -1 2q-2 2 -3 2l-75 -70q7 8 23 27t33 39t31.5 35t18.5 15l1 -1q8 -3 22.5 -5.5t21.5 -2.5t16 3q0 -6 6 -14t13 -16t13 -15.5t6 -11.5q0 -7 -5 -7h-3q0 -9 1.5 -31.5t1.5 -51.5 q0 -16 -10 -28t-23 -21t-26.5 -15t-20.5 -9q-6 0 -5 -6.5t-4 -6.5h-5q-3 0 -9 2.5t-13 6.5q1 3 10.5 15.5t20.5 27t21 27t13 15.5q-5 -3 -16 -14.5t-22.5 -25t-22 -25t-13.5 -14.5q-13 7 -18 7l-5 -4q-11 0 -23.5 4.5t-23 10.5t-18 12t-7.5 9v4q25 15 46 39t44 47 q-14 -9 -25 -20l-21 -21q-11 -11 -23.5 -21.5t-29.5 -18.5q-5 5 -7.5 8t-2.5 8z" />
<glyph unicode="/" horiz-adv-x="494" d="M50 -35q0 33 3.5 63.5t11.5 62.5l13 2q6 43 21.5 83.5t34.5 79t39.5 76.5t37.5 78l-6 2q-40 -76 -78 -152q-35 -72 -57 -152q14 60 38 117q26 61 56 120t63 116.5t63 115.5q14 26 29.5 49.5t26.5 49.5q6 -3 17.5 -6.5t11.5 -11.5q0 -6 -3.5 -14t-6.5 -14l10 -5 q8 12 21.5 27t29.5 15q10 0 14 -7.5t4 -15.5q0 -35 -20.5 -83.5t-52 -104.5t-67.5 -117t-67.5 -120.5t-52 -114.5t-20.5 -100q0 -5 0.5 -13t0.5 -19q0 -16 -3 -30.5t-14 -15.5l-4 7q1 33 3 66q2 31 7 61q-14 -66 -14 -133h-17l2 -22q-2 -8 -7 -17.5t-15 -9.5q-11 0 -19.5 9 t-13.5 17q0 108 25.5 201.5t73.5 189.5q-48 -88 -74.5 -183t-32.5 -195q-12 22 -12 48zM68 100l2 8z" />
<glyph unicode="0" horiz-adv-x="566" d="M50 287q0 66 18.5 128t56.5 116q1 -6 5 -7.5t7.5 -2.5t6.5 -2.5t3 -6.5q0 -3 -4 -12.5t-9 -21t-9.5 -21.5t-5.5 -13l9 -3q4 7 10.5 17t15 19t18 15t18.5 6q13 0 16 -5t3 -16q0 -12 -5.5 -34.5t-12.5 -51t-12.5 -59.5t-5.5 -59q0 -9 1 -29.5t3.5 -45.5t7 -51.5t11.5 -48.5 t17.5 -36t24.5 -14q27 0 49 17.5t40 45t31 62.5t22 69.5t13.5 65.5t4.5 51q0 37 -4 65.5t-16.5 49.5t-36.5 34.5t-63 19.5q-4 1 -18.5 3t-30 5.5t-28 8t-12.5 9.5q0 3 2 7q15 0 35 -2t41.5 -6.5t41.5 -10.5q13 -4 25 -9q-11 5 -23 9q-20 7 -41 12t-40.5 7.5t-35.5 2.5l-4 18 h-5q-17 0 -33 -6t-33 -6q-4 0 -8 2.5t-4 7.5q0 7 5 15.5t11.5 15.5t14.5 13t14 9q66 0 127 -11.5t107.5 -41t74 -79.5t27.5 -127q0 -74 -16 -148q-15 -69 -48 -130q33 58 49 121q18 69 18 141q0 62 -12 106.5t-38.5 76t-68 52t-100.5 34.5q-23 5 -45.5 10t-47.5 5q24 7 52 7 q39 0 79.5 -10t76 -29.5t63.5 -49t41 -68.5l-12 -3q14 -29 20 -60t6 -63q0 -39 -6.5 -85.5t-20.5 -93.5t-36 -91t-52.5 -77.5t-70 -54t-88.5 -20.5q-5 0 -11 0.5t-11 1.5l3 -6q6 -1 12.5 -1.5t12.5 -0.5q49 0 88.5 20.5t70 54.5t52.5 77.5t36 91t21 94.5t7 87q0 50 -12 98 q7 -26 11.5 -52.5t4.5 -52.5q0 -43 -7 -91t-21.5 -94.5t-37.5 -89.5t-55 -75.5t-74 -52t-94 -19.5q-40 0 -69 18t-48.5 47.5t-31.5 67t-18 77t-8 77t-2 66.5zM384 191q16 41 26 83q11 44 15 86q1 5 1.5 10.5t0.5 10.5q0 26 -9 50t-20 46q21 -53 21 -111q0 -45 -10 -90 q-10 -44 -25 -85z" />
<glyph unicode="1" horiz-adv-x="442" d="M10 413q0 25 26 49.5t67 51t91 57t98 68.5l88 -36q5 -13 8 -34t3 -35v-25q0 -22 -0.5 -43t-5.5 -43q-6 -31 -10 -75t-7 -92.5t-5.5 -96t-6.5 -85.5t-10 -61.5t-15 -23.5q-2 0 -6 2q5 20 10 42t5 42v24q-3 -26 -7 -52q-4 -27 -11 -53q-4 2 -10 2q-8 0 -10.5 -7t-5 -15.5 t-6.5 -15.5t-14 -7q-13 0 -18.5 12t-10.5 22q10 42 17 93t9 94q-2 -18 -4 -41t-5.5 -46.5t-8 -45.5t-11.5 -39q-5 11 -5.5 23.5t-0.5 24.5q0 15 2 35.5t4.5 42t5 42.5t3.5 36l8 9q0 3 -0.5 5t-0.5 4q0 3 0.5 6.5t0.5 9.5q0 31 3.5 64.5t8 67t8 66.5t3.5 65l-10 -8 q-5 -48 -10 -100q-4 -49 -7 -96l2 93q1 21 5.5 49.5t6.5 50.5q-8 -5 -22.5 -14t-33 -21t-38 -24.5t-36 -23.5t-28.5 -20t-15 -13q-4 8 -13.5 10.5t-10.5 11.5q3 8 9 15.5t12 13.5l-6 6q-6 -3 -15 -8.5t-18.5 -10t-19 -8t-16.5 -3.5q-10 4 -10 12zM276 216q4 29 5.5 57 t2.5 55t2 53q0 16 2 32q-6 -44 -8 -88q-2 -54 -4 -109zM343 189q5 50 8 99q3 48 9 96q-11 -51 -13 -98t-4 -97z" />
<glyph unicode="2" horiz-adv-x="455" d="M10 72l23 12q39 26 76.5 53.5t70 60t59 70t43.5 83.5l-3 6q12 24 17 44.5t5 41.5q0 35 -16 47t-41 12q-34 0 -59 -18.5t-42 -43.5q-5 8 -14.5 10.5t-9.5 10.5q0 11 11.5 22t18.5 17l-6 9q-4 -3 -16 -10.5t-25 -16t-24.5 -15t-15.5 -6.5q-12 0 -12 13q0 27 19 52.5 t46.5 45t59.5 31.5t59 12q40 0 74.5 -9t60.5 -29t41 -51.5t15 -75.5q0 -55 -21.5 -110t-56.5 -104t-79.5 -90.5t-90.5 -69.5q10 1 24.5 2t30.5 2t30.5 1.5t24.5 0.5q14 0 30 -3.5t27 -12.5l-2 -6q-29 3 -57 3q-13 0 -30.5 -0.5t-35.5 -1.5t-35.5 -2t-30.5 -2v-1 q10 0 25.5 0.5t32 1t31.5 1t26 0.5q18 0 35.5 -1.5t35.5 -3.5q-3 -5 -3 -8q0 -8 10.5 -10t23 -4.5t23 -6.5t10.5 -14q0 -6 -5 -11t-11.5 -9t-14.5 -7l-12 -5q-9 4 -21 6.5t-25.5 3.5t-26.5 1.5t-23 0.5q-47 0 -93.5 -2.5t-93.5 -4.5q11 -1 21 -1h22q29 0 58 1t58 1 q26 0 51.5 -2t51.5 -7q-15 -5 -46.5 -7.5t-66 -4t-66.5 -2t-50 -0.5l-8 11q-2 0 -3.5 -0.5t-3.5 -0.5q-4 0 -8 0.5t-9 0.5h-7q-3 0 -6 -2q-9 0 -17.5 1t-17.5 1zM18 57h3l24 12l-1 3q-6 -5 -13 -7t-13 -5v-3zM30 -33q2 0 11 -0.5t19 -1.5t18.5 -2.5t10.5 -2.5l-58 4zM38 94 q26 16 58.5 43.5t65 61t61.5 71.5t49 76q-15 -33 -41.5 -71t-59 -73.5t-67.5 -64.5t-66 -43zM53 78l5 -1q42 26 77.5 59t68.5 68q-35 -35 -72 -67t-79 -59zM148 79q8 4 21 10q19 9 38 31z" />
<glyph unicode="3" horiz-adv-x="482" d="M0 10q0 8 7 11.5t14 3.5t14 -0.5t14 -0.5q21 -15 47 -20.5t52 -5.5q18 0 50.5 5.5t63.5 17t54 29.5t23 42q0 18 -12.5 37t-30 37t-36.5 33q-17 13 -29 24q11 -11 28 -25q19 -15 35.5 -33t28.5 -37.5t12 -37.5q0 -23 -21.5 -39.5t-50.5 -27t-59 -15.5t-47 -5 q-25 0 -49.5 4.5t-46.5 16.5q6 1 12.5 1.5t12.5 0.5q23 0 42.5 -1.5t38.5 -1.5q21 0 42 4t46 16l16 -4q17 10 32.5 23t15.5 34q0 17 -19 40.5t-44 46.5t-50.5 43t-38.5 29l8 55q10 5 24 8t29 6.5t28 9.5t21 18l-6 3q-1 -3 -14.5 -7.5t-30.5 -10t-32.5 -10.5t-21.5 -8l1 -2 q0 -2 -3 -2l-1 1l-9 -68q15 -14 41 -33.5t51.5 -40.5t44.5 -42.5t19 -38.5q0 -7 -5 -13.5t-12.5 -12t-15.5 -10.5q-6 -4 -11 -6q4 2 10 6q8 5 15 10.5t12 12t5 12.5q0 19 -20.5 41t-47 43t-52.5 39.5t-37 30.5q3 19 3 28t1 25q3 1 3 10v12q28 12 52 19t44 17.5t36.5 28.5 t31.5 52q0 30 -28 47.5t-73 17.5q-14 0 -29.5 -4t-31.5 -9.5t-31.5 -11.5t-28.5 -10q-1 7 -5.5 12.5t-4.5 12.5q0 6 7 10.5t16.5 7.5t18.5 5t13 3l-3 12q-6 -2 -22.5 -3.5t-33.5 -1.5t-31 3.5t-14 13.5q0 14 26 26.5t59 22t64 15t41 5.5q35 0 73 -12.5t69.5 -35.5 t51.5 -54.5t20 -70.5v-4q-1 -29 -16.5 -53.5t-37.5 -44.5t-47.5 -35t-45.5 -24q27 -14 50 -34.5t39.5 -44.5t26 -50.5t9.5 -52.5q0 -57 -30.5 -93t-76 -56.5t-98 -28.5t-97.5 -8q-6 0 -21.5 1.5t-32 5t-29 9.5t-12.5 15l2 5q53 -19 111 -19q37 0 73 7.5t71 20.5 q-34 -11 -69.5 -18t-71.5 -7q-58 0 -108 19l7 11q-6 3 -14 8.5t-15.5 12.5t-12.5 14t-5 15zM319 -29q1 1 2 1q-1 -1 -2 -1zM324 -26q35 20 58 46q25 29 25 77q0 37 -18 68q-18 30 -43 55q26 -28 41 -63q16 -35 16 -76q0 -17 -8.5 -33.5t-21 -31t-27.5 -26.5q-12 -10 -22 -16 z" />
<glyph unicode="4" horiz-adv-x="525" d="M45 225q0 28 8 55t8 53q0 34 4.5 65.5t10.5 61.5t12.5 60t11.5 62l22 1q7 -2 9.5 -8t2.5 -12l-1 -14h9q2 6 6 14.5t9 16.5t11.5 13.5t14.5 5.5q9 0 14 -9t7 -20.5t2.5 -23t0.5 -17.5q0 -27 -3.5 -54t-8 -54t-8 -54t-3.5 -55q-8 -14 -9.5 -33t-1.5 -35q4 -2 19 -2 q9 0 18 0.5t13 0.5l6 -3q26 0 52 -1.5t52 -3.5q1 6 3.5 28t7 45t10 41.5t12.5 18.5q3 0 7 -2l-7 -50q6 26 13 50l15 -3q0 9 6.5 14.5t14.5 5.5q10 0 19.5 -5t16.5 -12q-6 -10 -11 -30t-9 -42t-7 -43t-5 -33l4 -1q5 32 12.5 72.5t21.5 70.5q2 -6 5.5 -11.5t3.5 -12.5 q0 -14 -5 -31.5t-7 -31.5l-12 3q0 -6 -1 -16t-2 -21.5t-2.5 -21.5t-1.5 -16l6 -4q0 5 1.5 14t3 19t3.5 19q1 7 2 13q-2 -16 -4 -33q-1 -18 -1 -34h20q6 -4 12.5 -10t6.5 -14q0 -11 -8.5 -18t-16.5 -15q-2 1 -7.5 1.5t-12 1.5t-12.5 1.5t-8 0.5v-9l31 -2q-6 -5 -10.5 -21 t-6.5 -34.5t-3.5 -36.5t-1.5 -25l-2 -36q-14 -23 -18 -48q-4 2 -10 2.5t-11.5 1.5t-9.5 3.5t-4 9.5q0 4 2 10l-9 3q-6 -10 -16 -17t-22 -7q-17 0 -21.5 12.5t-4.5 26.5q0 26 6.5 52.5t6.5 52.5l-1 42l-6 1l-5 11q-19 -2 -42.5 -4t-48.5 -2q-28 0 -55 4t-48.5 15t-35 30 t-13.5 50q0 22 4 44t6 44h-6q-3 -21 -8 -42.5t-5 -42.5q0 -18 7.5 -33.5t7.5 -29.5l6 -3q18 -13 30 -20.5t22 -11.5t19.5 -5.5t21.5 -1.5q9 0 21 0.5t29 0.5l8 -7q-27 0 -58.5 2t-58 12t-44.5 31.5t-18 59.5zM95 170q10 -9 19 -11t21 -5q-13 5 -21 6.5t-19 9.5zM151 153 q11 -2 22 -2.5t22 -0.5h22l3 -3l96 -2v2q-24 0 -48 3t-48 3h-69zM165 226q17 -4 33.5 -4.5t33.5 -2.5q-15 4 -32.5 5.5t-33.5 1.5h-1zM231 126h14q11 0 20.5 -0.5t19.5 -1.5l-48 -3zM232 219q8 -4 24 -5t34 -1h28q14 0 23 1zM353 233h1q3 8 3 14v9zM420 67q0 1 2 1t2 -1h2 q0 3 1.5 11.5t3.5 17.5t4 17.5t2 11.5l-9 -3q0 -3 -1.5 -10.5t-3 -15.5t-2.5 -16t-1 -12v-1z" />
<glyph unicode="5" horiz-adv-x="561" d="M20 20q0 8 9 12q22 -38 62 -58q40 -19 83 -21q-42 3 -79 22q-38 20 -57 59l12 4q-5 7 -9 14.5t-6 15.5q1 8 5 18.5t15 10.5q20 0 28.5 -12.5t20 -27t31.5 -27t64 -12.5q28 0 61.5 11t63 30.5t49.5 46t22 58.5q-5 -31 -24 -56.5t-46.5 -44t-59 -28.5t-60.5 -10 q-14 0 -30.5 1.5t-32 7t-27.5 15t-17 25.5q14 -3 25 -8t22 -9.5t23 -8t29 -3.5h15q7 0 15 2v-9q27 6 54.5 18.5t50.5 31t37.5 43t14.5 55.5q0 23 -11 44t-31 32l-3 -6q16 -8 26.5 -26t10.5 -36q0 -51 -29 -84q-24 -28 -61 -45q12 6 23 13q18 12 31.5 28t22 35t8.5 40 q0 36 -23 57t-55.5 33t-68.5 16.5t-63 7.5q-19 2 -34.5 4.5t-26.5 9.5t-17 20t-6 36q0 16 3.5 42.5t9 54t11.5 53.5t12 42q3 -5 8 -5t10 -0.5t8.5 -2.5t3.5 -11q0 -10 -3 -19.5t-6 -18.5l9 -3q5 9 9.5 17.5t10.5 16.5q-4 7 -4 14q0 11 6.5 19.5t7.5 19.5l13 -7l21 4 q21 0 41.5 1t42.5 3q-11 0 -24.5 -0.5t-26.5 -0.5h-34q-10 -2 -14 -2q-12 0 -16 8l6 12q22 0 31 1t17 2l3 -12q17 5 34.5 6t34.5 1t34.5 1t34.5 7v6q-68 -9 -135 -9q56 5 112 13q57 8 116 8q16 -12 39 -12l-1 -5q0 -4 0.5 -7.5t0.5 -8.5q0 -7 -2.5 -11t-12.5 -4v-9 q10 -6 16.5 -16.5t6.5 -22.5q0 -11 -10.5 -17.5t-26.5 -10.5t-35.5 -5t-38.5 -1q-18 0 -33 0.5t-24 0.5q-25 0 -51.5 -1t-52.5 -1q-17 0 -24 -10t-9.5 -25t-3 -32t-2.5 -30q12 -9 39 -11.5t59.5 -6.5t67 -13t63 -29.5t47 -56.5t18.5 -94q0 -56 -25.5 -103t-66.5 -80.5 t-93 -52t-104 -18.5q-18 0 -49 4.5t-61.5 15t-52.5 27t-22 40.5zM173 515l39 -5l5 5h-44zM227 -43q66 8 123 37.5t95 85.5q-39 -51 -96 -82.5t-122 -40.5zM276 61q1 0 2 1q-1 -1 -2 -1zM280 62q3 2 6 3q-3 -1 -6 -3zM281 520q6 -3 28 -3q16 0 32 1q9 0 15 1h-10q-11 1 -25 1 h-40z" />
<glyph unicode="6" horiz-adv-x="570" d="M50 226q0 63 24.5 122.5t64.5 112t91.5 95t105.5 71.5q8 -7 10 -13t2 -11t-6 -11.5t-14.5 -12.5t-16.5 -11t-11 -7l6 -9q17 9 35 15t37 6q4 0 14 -3t10 -10q-29 -22 -61.5 -50.5t-61.5 -56.5t-51 -53q-20 -23 -27 -37q8 8 22 11t25 7q38 -13 77 -28t73.5 -37t62 -51.5 t42.5 -71.5l3 -8l1 19q-14 38 -39.5 65.5t-58 48.5t-69 36t-71.5 27l16 1q34 0 69 -15t67 -38t58.5 -52.5t41.5 -57.5l-7 -27l-4 -16q2 -9 3 -18.5t1 -18.5q0 -50 -32 -88l2 -2q17 17 25 42t8 49q0 10 -0.5 18.5t-2.5 17.5q5 5 7 15.5t3 18.5q8 -17 12 -35t4 -36 q0 -44 -18 -77.5t-47 -56t-67 -34t-77 -11.5q-60 0 -111.5 19.5t-89 54.5t-59 84t-21.5 108zM77 112q16 -39 43 -67t62 -46t75 -26.5t81 -8.5q43 0 79 14t68 43l3 9q-12 -15 -29 -25q-18 -11 -38 -19t-40.5 -12t-39.5 -4q-41 0 -81 9t-74.5 27t-62 46t-43.5 66zM173 220 q0 -32 14 -57.5t37 -44.5t52.5 -29t60.5 -10q13 0 28.5 3t28.5 10.5t21.5 19t8.5 28.5q0 27 -12.5 46.5t-32 33.5t-41.5 24t-41.5 18.5t-32 15.5t-12.5 16q0 2 2 6q49 -14 95 -39q46 -24 77 -63q-29 40 -74 65t-92 40q3 4 3 9q0 7 -9.5 10.5t-21.5 7.5t-22.5 9.5t-11.5 17.5 q-13 -28 -19 -67.5t-6 -69.5zM255 -3q35 -14 77 -14t80 14.5t67 44.5l-4 3q-31 -32 -66.5 -45.5t-79.5 -13.5q-19 0 -38 3q-18 2 -36 8zM335 60l11 -1q51 0 84 36l21 33l-5 15q-1 -23 -11 -39t-25.5 -26t-35 -14t-39.5 -4z" />
<glyph unicode="7" horiz-adv-x="573" d="M20 514q0 9 13.5 14.5t35 8.5t49.5 4.5t57 1.5q30 0 62 -1t71 -2.5t87.5 -3.5t110.5 -4q10 -14 19.5 -31.5t17.5 -34t13 -29t7 -16.5q-47 -47 -94 -93t-92 -93.5t-85.5 -97t-73.5 -103.5q-12 -20 -20 -43t-14 -43.5t-12 -34t-14 -13.5q-2 0 -6 2q20 87 64 167 q-23 -38 -41 -79t-29 -85l-12 3q-3 0 -5.5 -8.5t-6 -19t-9 -19t-14.5 -8.5q-12 0 -16.5 13t-11.5 33l6 15q15 51 36 101t50 98q-29 -45 -53.5 -93.5t-41.5 -102.5q0 28 7.5 58t20 59t29 57.5t34.5 54.5l14 2q22 39 49.5 75t57.5 68.5t61 62.5t60 58q-3 0 -6 0.5t-6 0.5 l-63 -67q-41 -43 -82 -89q-34 -37 -65 -79q44 61 92 115q56 61 112 120q-39 2 -84.5 3.5t-116.5 1.5q-34 7 -66 9.5t-66 2.5q2 2 2 6q0 5 -1.5 9t-1.5 9t6.5 9t26.5 4q5 0 10 -0.5t12 -0.5v9q-39 7 -61.5 17.5t-22.5 21.5zM167 160l4 6zM171 166l8 12zM223 198l1 1 q35 42 76 87t78 85q-41 -41 -80 -83.5t-75 -89.5zM239 103q56 81 127 147q-24 -18 -42 -36t-32 -36t-27 -36.5t-26 -38.5zM474 503q5 -16 8.5 -33t6.5 -34l1 61l-5 12z" />
<glyph unicode="8" horiz-adv-x="617" d="M20 97q0 42 19.5 79.5t50 68.5t67 55.5t70.5 40.5q-27 29 -50 66t-23 81q0 26 11.5 48t29.5 39.5t41 30.5t46 21q3 -5 8.5 -9.5t6.5 -9.5q0 -5 -13.5 -12t-29 -18t-29 -27t-13.5 -40v-6l9 1q0 15 10.5 28.5t25 24.5t29.5 17.5t24 6.5q12 0 25 -5t21 -14q-9 -3 -24.5 -9 t-30 -14t-25.5 -19t-11 -24q0 -9 10.5 -25t24.5 -33t29 -31.5t23 -20.5q11 5 32.5 17t43 28t37.5 33t16 32q0 7 -4 11.5t-9.5 8t-10.5 8t-7 10.5l4 5q7 -3 15 -6.5t15 -8.5t11.5 -11.5t4.5 -14.5q0 -13 -9 -24.5t-16 -19.5q9 8 19 20t10 26q0 9 -5.5 16.5t-14 14.5t-18 12 t-16.5 8l-4 10q-6 2 -18.5 6.5t-24.5 10.5t-21.5 12t-9.5 12q0 10 13.5 13.5t20.5 4.5q4 1 8 1h8q25 0 52 -9t49 -25.5t36 -39.5t14 -50q0 -28 -14 -51.5t-35 -43t-46 -35.5t-47 -28l2 -2q23 13 49 28.5t47.5 35t36 43t14.5 53.5q0 24 -9.5 43.5t-24.5 35t-34.5 27 t-39.5 18.5q25 -2 47.5 -10.5t39.5 -24.5t27.5 -38t10.5 -49q0 -30 -14 -56t-35 -48t-46.5 -39.5t-49.5 -31.5q25 -19 50 -41t45 -48t32.5 -56.5t12.5 -64.5q0 -35 -15 -64.5t-40 -54.5t-57 -44.5t-65 -32.5t-65 -20t-58 -7q-45 0 -93 13.5t-87.5 39.5t-65.5 64t-26 87z M55 129q3 34 19 62.5t42 52.5t59 43t70 35l-4 6q-35 -17 -68 -36t-58.5 -42.5t-41.5 -53.5t-18 -67zM129 114q0 -28 12 -53q10 -20 26 -35q-16 15 -25 35q-11 26 -11 53q0 34 17 60t42.5 45.5t55.5 35t55 29.5q-27 -12 -57.5 -27t-56 -35t-42 -46.5t-16.5 -61.5zM145 111 q0 -29 12 -49.5t31 -33t42.5 -18t46.5 -5.5q38 0 75 12.5t66 35.5l1 5q-30 -21 -66 -32.5t-73 -11.5q-22 0 -44.5 5t-41 17t-30 31t-11.5 47q0 23 11 41.5t28.5 33t38 25.5t40.5 20q-20 -10 -40 -21t-37 -25t-27.5 -31.5t-10.5 -41.5q0 -28 11 -46.5t29 -30t40.5 -16 t44.5 -4.5q8 0 15 0.5t15 1.5q15 2 42 11t53 23t45 32t19 38q0 29 -18 52t-43 41t-50 32.5t-40 28.5q-24 -13 -54 -28.5t-57 -35.5t-45 -45.5t-18 -57.5zM167 26l5 -4zM173 22q1 -1 3 -2q-1 1 -3 2zM365 378l6 -4q14 8 30 18.5t27 20.5z" />
<glyph unicode="9" horiz-adv-x="599" d="M30 486q0 40 16.5 69t43.5 47.5t61.5 27t70.5 8.5q76 0 137 -25t103 -70.5t64.5 -109t22.5 -141.5q0 -46 -12.5 -83.5t-34.5 -69t-52 -58.5t-65 -51q-10 -7 -33 -23t-49 -32.5t-49.5 -29.5t-33.5 -14l-6 6q55 37 111.5 72t104.5 81q-49 -45 -105.5 -79t-113.5 -68l-6 15 q-5 -4 -13.5 -9.5t-18 -10t-19 -7.5t-15.5 -3q-14 0 -14 13q0 21 25 41t62 42t81 47.5t81 57t62 70t25 86.5q0 45 -17 89t-44 79q26 -37 41.5 -81t15.5 -89q0 -35 -15 -65t-39.5 -56.5t-56 -49t-64.5 -42t-64.5 -36.5t-57.5 -31q23 27 50 46t55 36.5t56 36t53 42.5l14 -2 q22 25 38.5 55.5t16.5 64.5q0 42 -10.5 86.5t-32.5 80.5t-56 59.5t-80 23.5v-6q43 -6 75.5 -28t54 -54.5t32.5 -73t11 -83.5q0 -30 -13 -57q-10 -21 -25 -40q14 19 24 40q12 27 12 58q0 49 -15 92t-42.5 75t-66.5 50.5t-87 18.5q-30 0 -52.5 -9.5t-22.5 -25.5 q0 -28 18 -49.5t47.5 -36.5t67.5 -22.5t77 -7.5v-6q0 -5 0.5 -8t0.5 -6q0 -10 -11 -12t-17 -2q-9 0 -18 1t-18 3l-3 -12q6 -2 23 -5.5t35.5 -9t33 -12.5t14.5 -14q0 -6 -9.5 -11t-21.5 -8t-23.5 -4.5t-15.5 -1.5q-48 0 -101 13.5t-97 41t-72.5 69t-28.5 97.5zM393 182l6 8z M455 114l7 8q-4 -4 -7 -8zM465 126q27 32 43 63q22 42 22 100q0 31 -7 65l4 -28q2 -17 2 -34q0 -54 -22 -101q-17 -35 -42 -65zM522 358v3v-3z" />
<glyph unicode=":" horiz-adv-x="317" d="M50 481q17 28 48 45.5t63 17.5q20 0 38.5 -6t38.5 -6q4 0 7.5 1t6.5 1q9 0 9 -13l-1 -7l-40 4q-20 2 -39 6q19 -7 39 -8t40 -8l-1 -16h5q1 -4 2 -8.5t1 -8.5q-1 -10 -4 -19.5t-4 -18.5q-8 8 -26.5 11t-29.5 3t-20 -3h7q17 0 34.5 -2.5t31.5 -15.5q-4 -8 -8 -11 q-10 4 -23 6v11q-10 -2 -15 -2t-10 0.5t-10 0.5q-8 0 -15 -1.5t-12 -6.5l2 -5l14 4q7 2 14 2q16 0 31 -3q-5 0 -19 -1t-28.5 -3.5t-25.5 -6.5t-11 -9q-11 8 -20 13t-17 16l3 4l-7 8q-7 0 -15.5 2.5t-16 7t-12.5 11t-5 14.5zM97 122q0 20 14 25.5t31 5.5q8 0 15 -0.5t13 -0.5 q4 0 13 -4t19 -8.5t19.5 -8.5t15.5 -4l10 1q6 -9 6 -20q-16 3 -31 7t-29 12q13 -10 29 -13.5t30 -10.5l-1 -16l4 -1q3 -9 3 -19q0 -16 -7 -35q-20 8 -35.5 13t-36.5 7q19 -6 36.5 -9.5t33.5 -17.5q-3 -6 -10 -11q-5 2 -10.5 4t-11.5 3v11q-2 0 -3.5 -0.5t-3.5 -0.5 q-13 0 -21 4.5t-20 4.5q-10 0 -14 -9q11 0 24 -3q12 -3 24 -5h-30q-13 0 -26 1t-23.5 4.5t-17 10t-6.5 17.5t4 18l3 -1v11q-6 8 -8 18t-2 20z" />
<glyph unicode=";" horiz-adv-x="314" d="M20 -131l19 36l10 -4q2 12 8 23l12 21q6 10 11 21t5 23q0 -1 -2 -1q-1 0 -3 2q-3 -19 -13 -35l-17 -29q6 13 13 34q8 23 16.5 46.5t16.5 41t13 17.5q8 0 16.5 -1.5t8.5 -6.5l-1 -4l11 -1q6 6 15.5 11t17.5 5q32 0 32 -32q0 -34 -7 -60.5t-19 -50.5t-27.5 -47t-31.5 -50 l-6 -1l-11 3q10 22 21 42t26 39q-17 -17 -29 -37.5t-22 -42.5l-16 5l-2 -6q-8 -2 -12 -2q-23 0 -41 18q5 4 13.5 18.5t17.5 32t16.5 33.5t10.5 23q-14 -26 -28.5 -52.5t-34.5 -49.5q-7 9 -7 18zM71 440q6 14 16 27.5t22.5 24.5t27 18t30.5 7q15 0 30 -5t30 -5q3 0 9 2 q6 -8 8 -18q-5 -1 -9 -1h-9q8 -2 14 -6.5t8 -14.5l4 1q12 -20 12 -44l-1 -10q-14 5 -28 5t-28 3l-15 -3q36 0 69 -12q-2 -8 -8 -13l-24 3l-2 10q-9 -3 -15 -3q-5 0 -9 1t-11 1l-12 -7l2 -5q13 4 24 4h8q4 0 9 -1q-25 -2 -45 -10l-1 -1l-7 9q-6 2 -17.5 5.5t-15.5 8.5l2 2 l-9 5q-3 0 -6.5 -0.5t-8.5 -0.5q-14 0 -29 4.5t-15 18.5zM185 497q5 -2 10 -3l10 -2z" />
<glyph unicode="&#x3c;" horiz-adv-x="717" d="M50 193q64 68 128 127t135.5 103t152.5 69.5t180 25.5v-7q0 -6 0.5 -10t0.5 -7q0 -5 -4.5 -7.5t-11.5 -4t-14 -2t-12 -0.5h-7l1 -11q6 0 17.5 -2.5t23 -7t19.5 -10.5t8 -15q0 -11 -20.5 -20t-47.5 -15.5t-52.5 -11t-34.5 -7.5q-60 -19 -112.5 -53.5t-104.5 -69.5 q40 -11 79 -22.5t78 -22.5q7 -2 27.5 -6t42 -9.5t38.5 -12.5t17 -14q0 -2 -2 -6q-75 20 -150 37.5t-150 39.5l-1 -1q75 -21 149 -39.5t149 -41.5l-5 -16q13 -2 29.5 -8.5t16.5 -22.5q0 -12 -15 -18.5t-24 -8.5q-52 24 -108 41t-113.5 30t-115 24t-113.5 23q54 -16 109 -29 t110 -26.5t109 -29t107 -36.5q-12 -3 -25 -3q-20 0 -39.5 4.5t-39 10.5t-38.5 13t-39 12l-9 12q-76 11 -149.5 32t-148.5 40q48 47 97 92t101 88q-2 0 -2 4q-59 -42 -110 -91t-100 -100q77 -18 152.5 -36t151.5 -38q-78 18 -155.5 36t-155.5 35zM97 209l4 -1q16 17 31 34 q9 9 17 18l-18 -18q-17 -16 -34 -33z" />
<glyph unicode="=" horiz-adv-x="634" d="M40 266q0 9 5 17t11 14q43 -2 85.5 -9t85.5 -7h6l61 1q-58 4 -116 6t-115 16q6 5 12.5 8t14.5 3q19 0 33 -2t33 -3l8 -11q8 1 16 1h17q29 0 59 -2.5t60 -2.5q28 0 51 4v6q-20 -1 -38.5 -1.5t-37.5 -0.5q-32 0 -62.5 1.5t-61.5 5.5q55 -3 111 -3t111.5 1.5t111.5 1.5 q28 -11 56 -11q-1 -3 -1 -8q0 -4 0.5 -7.5t0.5 -7.5q0 -7 -4.5 -10t-10.5 -3l-8 1v-11q12 -5 24 -15t12 -24q0 -12 -24 -18.5t-55.5 -9.5t-62.5 -3.5t-45 -0.5q-66 0 -131 10.5t-131 10.5q-5 0 -13.5 -1t-16.5 -1q-11 0 -18.5 3t-7.5 12l1 5q51 -2 100 -5q49 -2 98 -9 q-48 9 -97 11q-49 3 -100 8q0 2 0.5 4t0.5 4t-0.5 4.5t-0.5 4.5h-14q-13 8 -13 23zM73 483q0 12 22 19.5t53 11t65 4.5t57 1q31 -1 47.5 -1.5t38.5 -2.5q9 -1 29.5 -4t45.5 -6.5t52 -8t49 -9.5t36.5 -10.5t14.5 -10.5q0 -4 -2 -8q-48 14 -98 20t-100 14q24 -5 49 -8.5 t49.5 -7.5t49 -9t48.5 -14l-4 -16q8 0 13.5 -5.5t5.5 -13.5q0 -11 -7.5 -20.5t-16.5 -15.5q-23 11 -51 18t-58 11t-59 5.5t-54 1.5q26 -2 54 -3.5t56.5 -5.5t55 -11t49.5 -21q-11 -7 -21 -7q-18 0 -31 6t-30 8l-7 11q-38 0 -76.5 5.5t-76.5 5.5q-25 0 -45 -4l1 -5 q47 0 93 -2t92 -9q-35 4 -71 5.5t-72 1.5q-44 0 -87 -0.5t-87 -3.5q-8 3 -18 4t-18.5 3t-14.5 7.5t-6 18.5q0 9 8.5 10.5t14.5 1.5v11q-12 4 -25 13.5t-13 24.5z" />
<glyph unicode="&#x3e;" horiz-adv-x="678" d="M50 496q0 9 10 14t22.5 7.5t25.5 3t19 0.5q42 0 103 -8.5t124 -24.5t119 -38.5t87 -49.5q21 -19 36.5 -41.5t31.5 -45.5q-64 -37 -110 -53.5t-86.5 -26t-81.5 -19.5t-93 -33q-11 -5 -25.5 -14t-30 -18.5t-30 -17t-24.5 -7.5l-12 11q17 6 33 13t30 18q-15 -8 -31 -14 t-32 -11l-5 15l-14 -5q-10 -3 -12 -3q-9 0 -18 4.5t-9 15.5q0 14 8 22.5t20 13.5q25 10 49 22t48 24.5t48.5 23.5t50.5 18q-27 -5 -51 -16.5t-48 -24t-48.5 -24t-51.5 -15.5q32 35 77.5 55.5t89.5 37.5l3 -10q35 15 72.5 25t75.5 17l-10 4q-33 -11 -68 -18q-33 -6 -67 -16 q32 11 64 20q33 9 67 15q-14 6 -40 13.5t-57.5 15.5t-66 15.5t-66.5 13.5t-58.5 9.5t-41.5 3.5q0 2 0.5 3t0.5 3q0 8 -2 16q3 8 9.5 10.5t14.5 2.5q5 0 10 -0.5t10 -1.5l1 11q-6 1 -17.5 4.5t-23.5 8.5t-20.5 11.5t-8.5 14.5zM324 298l2 1q-1 0 -2 -1zM326 299q33 7 74 16.5 t70 20.5l-4 1zM338 228q38 8 76.5 15t76.5 21q-38 -11 -76.5 -17.5t-76.5 -18.5zM351 367l75 -28l12 3l-76 28z" />
<glyph unicode="?" horiz-adv-x="460" d="M50 591q0 21 23 38.5t53.5 31t62 21t49.5 7.5q40 0 71.5 -22t54 -56t34.5 -73.5t12 -74.5q0 -39 -11.5 -64t-30.5 -41t-43.5 -26.5t-49.5 -20.5t-49.5 -21.5t-43.5 -30.5q0 -6 -5.5 -17.5t-5.5 -21.5q0 -14 7 -25.5t7 -17.5q0 -11 -6 -17q-13 11 -18.5 27t-5.5 33v16 q0 7 1 13q-2 -9 -3 -19v-23q0 -14 6 -27.5t15 -22.5l-11 -12l10 -8q6 -4 12 -9t10.5 -10.5t4.5 -10.5q0 -12 -13.5 -16.5t-22.5 -4.5l-13 1q-66 52 -66 133q0 20 4 37t8 35q-4 -8 -7 -18t-5 -22t-3 -23.5t-1 -20.5q0 -32 12.5 -63t37.5 -53q-19 6 -32.5 19t-21.5 30 t-12 36.5t-4 37.5q0 23 6.5 53t19.5 50l9 -5q13 31 39.5 47.5t56.5 28t58.5 24t46.5 36.5l1 7q0 11 -3 22.5t-8 22.5q0 -3 -4 -3h-1q3 -9 5.5 -18.5t2.5 -18.5l-2 -11q-23 -23 -48.5 -32.5t-54.5 -21.5q24 12 52.5 25.5t47.5 32.5q0 15 -3.5 32.5t-10 34t-15.5 29t-19 16.5 v-1h-1l-13 -3q-22 -5 -50.5 -11t-46.5 -19q-2 7 -10 12t-8 12q0 6 10.5 13t15.5 9l-5 10q-16 -5 -31.5 -8t-32.5 -3q-6 0 -10.5 3.5t-4.5 10.5zM92 327q16 23 38 39t47 27q-24 -14 -46 -28q-22 -15 -39 -38zM105 -9q11 14 28 20.5t34 6.5q3 -2 9.5 -5.5t13.5 -6.5t13 -5.5 t9 -2.5t7 2l4 -11l-1 -9q-11 2 -21 5.5t-19 9.5q9 -8 19 -11.5t21 -8.5l-1 -17h2l1 -15q0 -9 -2 -19t-2 -20l-2 1q-4 6 -10.5 7t-11.5 5l-17 3q13 -5 22 -7.5t17 -15.5l-5 -11l-13 6l1 10q-2 -1 -5 -1q-6 0 -10.5 3t-9.5 3q-4 0 -6 -4t-2 -7l10 2q5 -1 9.5 -2t9.5 -3 q-3 0 -5.5 0.5t-5.5 0.5q-13 0 -30 -5l-5 10q-5 8 -8 15.5t-7 15.5l2 2q-3 7 -9 15l-11 15q-5 7 -9 14t-4 15zM168 278q8 9 24 18q18 9 38 16.5t39.5 14t31.5 11.5q-13 -3 -32.5 -9t-39 -14t-37.5 -18q-16 -9 -24 -19zM273 411l12 6l8 6q-4 -3 -8 -5q-6 -3 -12 -7z" />
<glyph unicode="@" horiz-adv-x="1056" d="M50 305v12q0 7 1 14l11 6q4 95 39.5 170t90 130.5t122 91.5t135.5 52l13 3q29 7 58 9t59 3q99 0 176 -33t130 -87.5t80.5 -125.5t27.5 -146q0 -88 -32.5 -164.5t-86.5 -139.5l4 4q3 3 5 3v-1l-2 -6l50 66q34 54 52.5 113.5t18.5 123.5q0 75 -19.5 134t-52 103t-75.5 75.5 t-90.5 50.5t-96 28t-92.5 9l-52 -4q-26 -2 -51 -7l-26 -5q-79 -20 -145.5 -58t-117.5 -92t-84 -121.5t-45 -145.5q14 105 64.5 186t123.5 136.5t162 84.5t180 29q47 0 93.5 -9t89 -27t80.5 -45.5t68 -64.5q45 -54 67.5 -120t22.5 -135q0 -70 -21 -130.5t-57 -121.5 q-2 -3 -14 -23t-34.5 -43t-54.5 -41.5t-74 -18.5q-39 0 -69 20.5t-47 42.5q-4 5 -13.5 21.5t-19.5 36.5t-17.5 40t-7.5 31q-8 -24 -28 -41.5t-45.5 -29t-53.5 -17.5t-53 -6q-23 0 -53.5 7.5t-59 26.5t-50 51t-25.5 81q-2 10 -2 16q0 11 1.5 21.5t3.5 20.5q3 13 14 37 t29.5 51t44 55.5t59 51.5t74 37.5t88.5 14.5q28 0 57.5 -11t50.5 -37q-7 4 -9 4q-3 0 -3 -3q0 -4 1 -6v-6q0 -9 -4 -9t-9.5 5t-16 10.5t-26 10.5t-38.5 5q-22 0 -47.5 -6t-56.5 -20l5 -10q43 20 82 20q29 0 46.5 -8.5t26.5 -20.5t12 -26t3 -26q0 -3 -1 -9t-3 -12.5t-4.5 -11 t-5.5 -4.5q-5 0 -11 20q-8 22 -15 32t-30 10q-26 0 -58.5 -15.5t-61.5 -40.5t-49.5 -56t-23.5 -62q0 -30 13 -47t53 -17q22 0 45.5 7t42.5 19t31 27.5t12 32.5q0 11 -4.5 22t-4.5 22l114 37q15 -30 27.5 -74.5t25.5 -86t28.5 -71.5t35.5 -32q16 0 38.5 24.5t43 62t34.5 82 t14 84.5q0 65 -23.5 117.5t-64.5 89t-96 56.5t-117 20q-98 0 -175.5 -33t-131 -87.5t-82 -124.5t-28.5 -144q0 -63 21.5 -121t65.5 -102l5 -5q22 -22 54.5 -38t67.5 -26.5t69 -16t61 -7.5q37 -3 61 -3.5t37.5 -1t18.5 -2t5 -4.5q0 -4 -9.5 -6t-22.5 -3t-26 -1h-19 q-63 0 -133 14.5t-127 46.5q56 -33 125 -49t144 -16q29 0 59 3q-5 -5 -5 -9q0 -5 5 -8q39 7 72.5 17t59.5 19.5t42 16t19 6.5q5 0 5 -5q0 -8 -7 -19q-21 -29 -50 -46.5t-62.5 -27t-69 -13t-68.5 -3.5q-22 0 -52.5 2t-65.5 7t-71.5 14.5t-70.5 24.5q61 -29 129 -42t136 -13 q23 0 45.5 1t45.5 5q-60 -18 -136 -18q-58 0 -119.5 13.5t-120.5 40.5q-64 29 -108 74t-71.5 97t-39.5 107t-12 103zM72 302q0 -81 22 -143.5t60 -110.5q-42 56 -61.5 124t-19.5 133q0 20 3.5 40t3.5 37q0 2 -0.5 3.5t-0.5 3.5v3q-1 0 -2 -10.5t-2 -25.5l-2 -30 q-1 -15 -1 -24zM111 490q23 50 56 92q35 43 77.5 77.5t91.5 59.5t101 41l13 3q32 8 66 12.5t68 4.5q68 0 130 -18q51 -15 94 -42q-46 30 -99 44q-63 18 -126 18q-29 0 -61.5 -2.5t-62.5 -11.5l-14 -3q-59 -12 -110 -38t-94 -62t-76 -81q-32 -44 -54 -94zM142 305 q0 -84 30 -148q-15 35 -22 73q-7 39 -7 72q0 97 38 172.5t100 127t140 78t158 26.5l-4 1q-89 0 -167.5 -30t-137.5 -83.5t-93.5 -127.5t-34.5 -161zM236 65q1 -1 3 -1l-1 1h-2zM808 720l16 -11z" />
<glyph unicode="A" horiz-adv-x="774" d="M20 -30q0 19 7 48.5t17.5 63.5t23.5 70.5t25 71.5q-11 7 -23.5 10t-27.5 5q3 4 3 10t1 12t4 10t11 4q2 0 12 -2v9q-16 8 -24.5 19t-8.5 22q0 24 46 24q13 0 26.5 -1.5t27.5 -3.5l46 105q15 34 32.5 70t41.5 71t54.5 66.5t70.5 56.5l15 6q28 -7 45.5 -11.5t28.5 -6.5 q10 -4 16 -5h-1l1 -3q0 -1 -1 -2l12 -21q65 -109 110 -226t77 -230q8 -25 19.5 -53.5t22 -54t17.5 -46t7 -29.5q0 -7 -3 -8.5t-8 -1.5q-26 65 -49 128q-23 62 -45 125q20 -63 42 -125q23 -63 46 -128h-7q-6 0 -8 -6q2 -2 5 -10.5t6 -18t5 -19.5t2 -15q0 -22 -13 -22 q-7 0 -11 3t-9 8l-10 10q-6 6 -15 12l-96 276q21 -65 41.5 -130t42.5 -128q-16 19 -29.5 46t-25 57t-21.5 61.5t-20 59.5q0 -2 0.5 -3.5t0.5 -3.5q0 -16 -10 -24l-9 -9l-6 3q-42 11 -89 14t-96 13q48 -10 94 -15.5t91 -20.5q-14 -9 -30 -9q-19 2 -37.5 6t-39.5 6q0 6 3 9 q-29 0 -57.5 6t-55.5 13.5t-52.5 14t-47.5 6.5q0 -3 -1 -3q26 -5 49 -14t52 -14q28 -7 54.5 -10t52.5 -8q-42 4 -85.5 12t-85.5 18l-47 12q-25 -64 -50.5 -125.5t-49.5 -124.5q-2 4 -6.5 4.5t-9 0.5t-8.5 2.5t-4 10.5t4 22.5t15 38.5q-2 2 -6.5 2.5t-6.5 0.5 q-20 -42 -38.5 -64.5t-29.5 -22.5q-12 0 -12 23zM267 323l17 -4q15 -4 29.5 -8.5t25.5 -9.5q22 -11 58 -17t70.5 -11.5t60 -12t25.5 -18.5l-122 14q11 -2 27 -4.5t32.5 -5.5t32.5 -5.5t27 -4.5q0 -3 -0.5 -5.5t-0.5 -4.5t2.5 -2.5t6 -1t6.5 -2.5q3 -1 6 -6l-20 53q2 0 6 1.5 t6 1.5q-33 83 -65.5 161t-71.5 150l-6 -6l15 -27q35 -64 63 -132t53 -140q-29 78 -62.5 155.5t-71.5 140.5l-4 -2q-34 -35 -63.5 -84t-55.5 -100zM333 481q2 0 1.5 -2.5t0.5 -2.5q2 0 12 14t23 32t25 34t17 21l-5 7q-21 -20 -39 -47t-35 -56zM389 623l2 -2l8 -21l-1 21 q-2 0 -4.5 1t-4.5 1zM410 587l6 -8l6 6l-5 7zM427 600l4 -6h1l-5 7v-1zM434 589q32 -54 59 -113q26 -58 49 -116q-19 58 -46 116q-28 59 -61 113h-1zM440 611q13 -3 18 -6t7 -3l1 3q1 0 -4 1t-8 2l2 4l-12 4zM522 593q36 -76 65 -154q31 -80 61 -163q-28 81 -59 160 q-29 78 -67 157z" />
<glyph unicode="B" horiz-adv-x="688" d="M10 609q0 11 20 22t51.5 20.5t69.5 17.5t73 14t63 9t39 3q51 0 97.5 -12.5t81.5 -39t55.5 -67.5t20.5 -97q0 -23 -7 -47.5t-21.5 -47t-37 -40.5t-53.5 -26q52 -7 89.5 -24t61 -41t34.5 -54t11 -64q0 -44 -17.5 -75t-46.5 -52t-66 -32.5t-77 -17.5t-79 -7.5t-71 -1.5 q-8 0 -30.5 1t-46.5 4t-42.5 8.5t-18.5 14.5l1 5q42 -7 84 -11.5t84 -4.5q32 0 63 4t62 10q-56 -10 -117 -10q-43 0 -85.5 4t-84.5 11l5 12l-2 7q-3 -1 -9 -1q-10 0 -23 4t-24.5 10t-19.5 14t-8 16q0 5 8 8t18.5 4.5t20.5 2.5t14 2l1 29v31l13 8q-3 17 -4 33.5t-1 33.5 q0 19 0.5 37.5t0.5 38.5q0 21 -2 42t-7 42h-6q1 -53 4 -104t2 -104q-5 76 -11.5 152t-6.5 154q0 23 2.5 46.5t5.5 46.5l-66 -17l1 3q-2 3 -5.5 11t-3.5 10q0 5 10.5 10.5t24 9.5t26 7t17.5 4l-3 12q-8 -2 -32.5 -4.5t-49.5 -2.5q-20 0 -35 3t-15 13zM168 59l7 -2q2 35 2 71 v71q0 20 -1 39q-1 18 -3 36v-52q1 -27 1 -54q0 -28 -1 -55t-5 -54zM179 545h9l7 16l-16 -2q0 -2 0.5 -3.5t0.5 -3.5t-0.5 -3.5t-0.5 -3.5zM242 44h4v7h-4v-7zM244 68h2v30q-1 -8 -1.5 -15t-0.5 -15zM246 181q1 16 3 32q2 19 3 39q-4 -19 -5 -38q-1 -16 -1 -33zM251 567 q2 -6 4.5 -25.5t5 -45.5t4.5 -56t3.5 -57.5t2.5 -49t1 -30.5q0 -53 -4 -105.5t-4 -105.5q0 -20 13.5 -25t29.5 -5q48 0 95 3.5t92 20.5l3 -12q20 10 35.5 24.5t15.5 38.5q0 27 -17 46.5t-41.5 31.5t-52 18t-48.5 6q-2 0 -8 -2.5t-9 -3.5q14 -1 35 -5t43 -10.5t42 -16.5 t33 -22q-19 15 -52 25q-34 10 -69.5 16t-65.5 9.5t-41 5.5l-5 111h2q26 0 54.5 9.5t52.5 27t40 42t16 53.5q0 28 -12 46t-31.5 28.5t-43.5 14t-47 3.5q-18 0 -36 -1.5t-36 -1.5zM265 41q17 -2 32.5 -3t32.5 -1q16 0 39.5 1.5t50 5.5t53 11t47.5 18t34.5 27t13.5 38 q0 12 -4 23t-11 21q5 -8 8.5 -17.5t3.5 -19.5q0 -34 -23 -54t-55.5 -30.5t-67.5 -13.5t-60 -3q-23 0 -46.5 1.5t-46.5 3.5zM347 345l17 -2q18 11 34.5 23t30.5 28q-5 0 -5 4q-31 -34 -77 -53zM416 250q30 -5 64 -19q29 -12 52 -28q-22 18 -52 31q-33 16 -63 16h-1zM502 89 l22 14q-9 -9 -22 -14zM510 -8q26 9 49 21t41 33q-19 -20 -42 -32t-48 -22zM527 177q16 -13 16 -31v-2q-3 18 -16 33zM535 122q0 2 1.5 5.5t3.5 5.5l-4 -13q-1 0 -1 2zM541 135l2 4v-1q0 -1 -2 -3zM569 270q9 -8 17 -16l14 -14q-6 9 -13 16q-7 8 -18 14zM602 48q16 16 25 40 q10 26 10 49v11q0 6 -1 11q0 -32 -6.5 -59.5t-27.5 -51.5z" />
<glyph unicode="C" horiz-adv-x="596" d="M45 385q0 66 18.5 134.5t56 124.5t93.5 91.5t131 35.5q34 0 64.5 -11t57.5 -29t50.5 -41t44.5 -47l-21 -18q-14 5 -26.5 15.5t-22.5 21.5l-6 -7q13 -15 24 -34.5t11 -40.5l-11 -18q-13 1 -32.5 15.5t-43 31t-48 30.5t-47.5 14q-30 0 -53.5 -15t-42.5 -39t-32.5 -55 t-22 -63t-13 -62.5t-4.5 -53.5q0 -39 12.5 -86t37 -87.5t60.5 -67.5t82 -27q21 0 43.5 4.5t40.5 15.5l8 -9q-38 -29 -87 -29q-48 0 -88 23q19 -13 42 -19q25 -7 50 -7q46 0 86 26l9 -13q10 11 25 21.5t31 12.5l15 -17q-2 -25 -19.5 -43.5t-43 -31t-54 -18.5t-51.5 -6 q-68 0 -122 32.5t-92 84t-60 114.5q-21 61 -24 120q2 -61 23 -123q22 -64 60 -116t93 -84.5t124 -32.5q38 0 74 12t67 33q-23 -35 -61 -50t-78 -15q-45 0 -83 12.5t-74 39.5l-4 16q-41 25 -70.5 62t-48 80t-27 90t-8.5 94q0 50 9.5 99.5t26.5 97.5q-4 0 -4 3 q-21 -46 -31 -95t-10 -100q0 -97 38 -186.5t113 -151.5q-39 30 -68.5 69t-48.5 83.5t-28.5 92.5t-9.5 97zM155 307q5 -58 34 -111q29 -52 76 -84q-47 33 -74 85q-28 53 -36 110z" />
<glyph unicode="D" horiz-adv-x="695" d="M60 623q14 18 26.5 37t24.5 39q36 9 75 17t77 8q105 0 179.5 -32.5t121.5 -92t69 -142t22 -181.5q0 -160 -88 -237.5t-246 -77.5q-6 0 -19 1.5t-18 7.5q28 4 64.5 9.5t73.5 13.5t70.5 20.5t55.5 31.5q-30 -20 -61.5 -31.5t-64 -17.5t-66.5 -9t-68 -7l3 11l-3 8 q-19 -3 -34.5 -6t-32.5 -3t-33 4l-1 -29l-22 -2q-8 5 -10 23t-2 44v24h-9q-1 -6 -4.5 -28t-9 -46.5t-13 -43.5t-16.5 -19q-8 0 -13 21t-7 48.5t-2.5 55t-0.5 40.5q0 69 2 136.5t2 135.5t-11 135.5t-11 133.5zM189 17q10 10 23 16.5t24 14.5q69 0 128.5 4t103.5 26t69.5 67.5 t25.5 128.5q0 41 -5.5 86.5t-20 89t-39.5 79.5q-23 34 -58 56q34 -23 56 -57q25 -37 38.5 -80t19 -88.5t5.5 -86.5q0 -55 -10 -91.5t-28 -59t-44.5 -34.5t-59 -17.5t-71.5 -8t-83 -5.5q35 15 75.5 20t78 13t67.5 27.5t45 64.5l12 4q4 20 5 35.5t1 35.5q0 62 -10 124.5 t-37 113t-75 82t-123 31.5q-28 0 -55.5 -3.5t-54.5 -9.5q2 -1 2 -3q0 -3 -1 -3q53 11 102 11q61 0 106 -21.5t74.5 -59t44 -87.5t15.5 -107q-8 58 -22 107.5t-41 85.5t-70 56.5t-109 20.5q-25 0 -50 -1t-49 -9q5 -62 9 -123t4 -123q0 -82 -6.5 -161.5t-11.5 -160.5zM536 238 q1 6 1 12v33v-2q1 -6 1 -14q0 -15 -2 -29zM536 294q1 -6 1 -11q0 6 -1 11zM608 467q14 -51 19.5 -102t5.5 -103q0 -26 -3 -53q-1 -3 -1 -6q6 33 6 68q0 49 -6.5 99t-20.5 97zM619 157q2 6 3 12q-1 -6 -3 -12z" />
<glyph unicode="E" horiz-adv-x="575" d="M61 399v21q0 58 3 118t18 127q-6 0 -6 6t6.5 17t16.5 21.5t22.5 18t24.5 7.5h238q37 -7 72.5 -12t74.5 -6l-1 -23q0 -6 -5.5 -9.5t-24.5 -3.5q-6 0 -14.5 0.5t-18.5 1.5v-9q41 -9 64.5 -22t23.5 -25q0 -14 -26.5 -17t-70.5 -3q-56 0 -119.5 0.5t-122.5 5.5h-17 q-5 -38 -7 -78t-3 -82q16 0 31.5 1.5t32.5 1.5q14 0 32.5 -2.5t39 -6.5t41 -9.5t37.5 -11.5q3 -1 7 -1h17q13 0 17.5 -4t4.5 -16q-17 0 -32 2t-29 4q14 -5 29 -7.5t32 -4.5q-2 -5 -2.5 -9t-0.5 -7q10 -2 13.5 -9.5t3.5 -16.5q0 -13 -5.5 -20.5t-5.5 -11.5q-39 14 -81 18 q-40 5 -82 9q38 -6 78 -11q42 -5 79 -22q-4 -4 -8 -7t-8 -3q-14 0 -27 3.5t-28 3.5v12q-5 -1 -14 -1q-25 0 -49 7t-49 7q-13 0 -25 -3v-4q32 -2 65.5 -6.5t68.5 -11.5q-32 5 -68.5 9t-68.5 4q-13 0 -24.5 -0.5t-22.5 -1.5q0 -21 1 -49t4 -54.5t7 -46.5t10 -26l9 -18 q12 -37 80 -37q15 0 36 4t42.5 9.5t41 9.5t33.5 4t16 -4t2 -11q-42 -5 -81 -15q-34 -9 -66 -14q32 5 65 12q39 9 79 14q-2 -6 -2 -8q0 -6 5 -10l14 2q6 1 12 1.5t11 2.5q18 -5 25.5 -11t7.5 -13q0 -13 -12.5 -18t-23.5 -16h-4q-29 0 -56 -4.5t-53.5 -9.5t-54 -9.5 t-56.5 -4.5h-14h-6q19 -2 41 -2q28 0 52.5 3t47.5 7t44.5 7t43.5 4q-16 -8 -39 -16t-51 -13.5t-58 -9t-59 -3.5q-20 0 -39 2t-41 13l-1 11q-14 5 -29.5 18.5t-28.5 28.5t-22 28t-9 17l-3 9q-9 19 -14.5 42t-8.5 46.5t-5 46.5t-3 43q-2 33 -3 66.5t-1 67.5t0.5 68.5t0.5 69.5 h-3q-5 -38 -5.5 -73t-0.5 -70v-39q0 -70 7.5 -146t38.5 -148q-23 39 -29 77.5t-11 71.5q-6 43 -8.5 83t-2.5 82zM90 324q1 -27 3 -55t7 -57q4 -24 9.5 -51.5t17 -54t31.5 -49.5q16 -19 42 -31q-30 16 -49 43q-22 34 -34.5 76t-18.5 89q-5 47 -8 90zM145 32q6 -6 14 -11 q11 -8 22 -15q-13 6 -23 14q-7 6 -13 12zM202 24l9 -4zM315 425q13 -6 30 -9t36 -5q-18 5 -34 7.5t-32 6.5z" />
<glyph unicode="F" horiz-adv-x="516" d="M60 603q0 19 1.5 36.5t1.5 37.5l25 2q11 0 12.5 -11.5t1.5 -18.5h13q2 13 9.5 28.5t21.5 20.5l-1 3l-9 -3q-10 5 -14.5 14.5t-4.5 20.5q0 5 2 10t2 10q23 0 45.5 3.5t45.5 3.5q25 0 49.5 -2.5t49.5 -4.5q-29 5 -58 6.5t-58 1.5q-18 0 -35.5 -0.5t-35.5 -1.5q8 13 23 18 t29 5h5l25 -1l4 -10q8 2 15 2h16q24 0 48 -3.5t50 -3.5h12q6 0 13 2l2 5q39 -2 79 -2q15 0 26.5 -6t25.5 -6v-23q0 -6 -2 -10.5t-7 -4.5l-6 1v-9q10 -7 17 -18t7 -23q0 -9 -4.5 -14t-11.5 -8t-15 -3.5t-15 -0.5q-63 0 -130 6.5t-133 17.5l-19 -5q1 -4 2.5 -18.5t3.5 -35 t4.5 -43.5t4.5 -42.5t3 -33t1 -14.5h40v-10q18 5 31 5q16 0 31 -3t33 -3q8 0 15.5 1t15.5 3v7q-15 -1 -30 -1.5t-30 -0.5q-10 0 -19.5 0.5t-18.5 1.5q42 0 82.5 3t82.5 3q17 0 31 -9t14 -28q0 -5 -2 -9t-7 -4l-6 1v-9q10 -8 16 -19.5t6 -23.5q0 -10 -9.5 -16t-23.5 -9.5 t-31.5 -4.5t-32.5 -1q-44 0 -81.5 7.5t-75.5 7.5q-6 0 -16 -2q3 -33 3 -67q0 -46 -3 -92.5t-3 -92.5q0 -7 1 -18t1 -22q0 -14 -3.5 -25t-16.5 -11v266q-3 -30 -3.5 -59.5t-0.5 -58.5v-104q0 -21 -2 -44l-15 3v-18q-4 -7 -10.5 -12.5t-14.5 -5.5q-10 0 -16 4.5t-9.5 11.5 t-4.5 15.5t-1 15.5q0 43 4 87t4 88q0 27 -3 54t-7 54q1 -42 2.5 -82.5t1.5 -81.5q0 -35 -2 -68.5t-8 -67.5q-13 16 -13 34q0 23 1.5 47t1.5 47h13q-6 33 -7 66l-2 67q-1 34 -3 67.5t-10 66.5l-6 -3q14 -118 15 -238q-3 96 -14 190q-11 100 -19 201q-2 5 -2.5 11.5t-0.5 12.5 zM169 688l3 -4q6 2 21.5 3t22.5 2h-24q-16 0 -23 -1zM201 455q17 0 33.5 -1.5t33.5 -1.5h9l40 1q-23 3 -46 3h-12h-12l-46 3v-4zM231 784q52 -2 105 -8q13 -1 25 -2q-33 0 -64 4q-33 4 -66 6zM240 386q11 -2 22 -3q8 -1 16 -3q-8 2 -15 4q-9 2 -20 2h-3zM278 380h5h-5z M361 774q2 0 5 -1v1h-5z" />
<glyph unicode="G" horiz-adv-x="741" d="M40 400q0 74 33.5 136.5t87.5 107.5t122.5 70.5t138.5 25.5q45 0 86.5 -12t83.5 -26q-5 -3 -5.5 -8t-1.5 -9.5t-3.5 -7.5t-10.5 -3q-13 0 -25.5 4t-23.5 9l-3 -13q7 -2 18.5 -8t23 -13.5t20 -16.5t8.5 -17q0 -12 -9.5 -14.5t-18.5 -2.5q-30 0 -60 9t-60 9q-54 0 -104 -15 t-88 -43.5t-61 -70t-23 -95.5q0 -55 27 -103.5t69.5 -85t95.5 -57.5t105 -21q4 0 12.5 0.5t18.5 0.5q14 0 25.5 -2.5t12.5 -10.5q-14 -2 -29 -4.5t-29 -2.5q-41 0 -85 11q47 -14 94 -14q11 0 23 1t23 3l10 -12q9 2 15 2.5t21 6.5q0 32 3 62.5t3 62.5v14q0 18 -2.5 38.5 t-14.5 32.5l-6 -3q10 -23 13 -49t3 -52q0 -43 -6 -83q3 33 3 66q0 7 -1.5 27.5t-4.5 42t-7.5 38.5t-9.5 17q-24 0 -48.5 4t-48.5 4h-5l-27 -1q0 3 -0.5 7t-0.5 8q0 8 3 15t14 7l12 -1v12q-14 4 -28.5 13t-14.5 26q0 12 13 19t30.5 10.5t34.5 4.5t26 1q91 0 137.5 -47 t46.5 -138q0 -60 -10 -119.5t-10 -119.5q0 -13 -3.5 -24t-19.5 -11l5 72l-9 -69q-3 0 -6 -0.5t-6 -0.5q-2 0 -3 0.5t-3 0.5v-15q-8 -15 -24 -15q-8 0 -19.5 6.5t-11.5 16.5q0 17 4 32.5t6 31.5l-4 -3l-12 -57q-12 17 -12 34q0 4 2 8q-19 -9 -38.5 -15t-40.5 -6 q-54 0 -101.5 14t-95.5 35l-5 13q-48 20 -88.5 54t-70 77.5t-46 93.5t-16.5 102q0 45 12.5 88t37.5 80l-6 3q-24 -37 -38.5 -79t-14.5 -87q0 -44 12 -88.5t34 -85.5t52 -76q30 -33 66 -57q-35 22 -66 54q-31 34 -53.5 74.5t-35.5 85t-13 86.5zM69 362q1 -6 1 -11q-1 5 -1 11 zM70 351q3 -15 6 -29q-3 14 -6 29zM76 322q14 -57 47 -103q43 -62 105 -104t137 -63t151 -21h6q10 0 19 2t16 11q-18 -1 -35.5 -4t-35.5 -3q-71 0 -141 23.5t-127.5 66t-98.5 102.5q-29 43 -43 93zM181 256q0 -10 13 -24t30 -27.5t33.5 -25t24.5 -15.5q-9 7 -23.5 18 t-29.5 24t-28.5 26.5t-19.5 25.5v-2zM585 106h2q2 23 6 44.5t4 44.5q0 14 -1 27t-4 27q0 -36 -1 -72t-6 -71zM658 111q5 27 8 55q4 29 6 58q-11 -28 -11 -55v-15q0 -21 -3 -43z" />
<glyph unicode="H" horiz-adv-x="691" d="M60 569q5 48 8.5 83t8.5 77q10 -1 22.5 -3t12.5 -16l-2 -17h13q2 6 5.5 14.5t8.5 16t11.5 13t14.5 5.5q10 0 15.5 -14.5t8.5 -37.5t4 -53.5t1 -61.5q0 -17 -0.5 -33t-0.5 -31q0 -20 0.5 -37.5t1.5 -31.5h53l8 -12q14 2 27 3t27 1q11 0 23 -0.5t23 -0.5q19 0 37.5 2 t37.5 7v6q-35 -5 -69 -6h-63q49 2 100 7q53 5 106 7q0 58 4 116t4 115l-1 21l25 2q4 0 6.5 -4.5t4.5 -10t3 -11t1 -7.5q3 3 7 9t8.5 12t8.5 10.5t6 4.5q17 0 27 -6t15.5 -16.5t7 -23.5t1.5 -26q0 -10 -0.5 -19.5t-0.5 -17.5v-125q0 -97 -11 -193.5t-11 -192.5 q0 -7 2.5 -25.5t2.5 -36.5q0 -14 -3 -23.5t-11 -9.5q-7 37 -9 76q0 -38 3 -76l-9 2q-2 -14 -8 -27t-22 -18q-8 2 -17.5 6.5t-14.5 12.5q0 35 -1.5 69.5t-1.5 69.5q0 54 3.5 108t3.5 108q-8 -86 -8 -171.5t-6 -171.5q-14 20 -16 45.5t-2 49.5l2 50l11 5q-3 28 -3 58 q0 35 3 68.5t5 68.5h-7l-10 -157l5 157q-27 0 -53 -5t-53 -5q-51 0 -101.5 2t-101.5 4q0 -56 -5.5 -110.5t-5.5 -109.5q0 -8 1.5 -20.5t1.5 -26.5q0 -13 -3 -23t-11 -13l-7 2l1 104q-2 -26 -3 -52t-1 -52q-3 1 -9 1q-7 0 -9 -1q1 -3 1 -8q0 -24 -24 -30q-9 4 -15 7t-10 8.5 t-6 13.5t-2 22v17l-5 -33q-8 8 -10 17t-2 19q0 25 2 49.5t2 49.5l8 5q-3 33 -3 66q0 32 1.5 65t1.5 66q0 23 -1 47t-5 47h-6q2 -40 3 -80t0 -80v-125q0 100 -5.5 200t-5.5 200zM92 280q1 -34 1 -69v-36q3 36 3 73q0 26 -1 51q-1 23 -3 47v-66zM193 347h61q-30 3 -60 3z M194 417h64q-3 0 -6 1q-9 1 -21 2t-22.5 2t-14.5 2v-7zM264 418q11 -2 21 -2h21q15 0 30.5 1t30.5 3h-20q-21 0 -41.5 -1t-41.5 -1zM590 149q2 32 4 66q3 35 7 69q-6 -34 -9 -69q-2 -33 -2 -66z" />
<glyph unicode="I" horiz-adv-x="273" d="M60 92q0 24 8 50t10 54l14 6q0 49 4 97.5t4 97.5q0 25 -1.5 49t-6.5 50h-6q6 -71 6 -136q0 -33 -2 -63q-2 -28 -7 -57q3 22 4 42q2 23 2 49q0 81 -6.5 164.5t-11.5 171.5v28q3 12 3.5 26t2.5 27t7.5 21.5t18.5 8.5l17 -5l6 -12h9q4 6 9 6q6 0 12 -4.5t14 -4.5 q15 0 21 -20.5t8 -51t2 -67t4 -68.5q3 -29 5.5 -58.5t2.5 -59.5t-2 -70t-5.5 -82.5t-8.5 -84.5t-11 -75t-14 -53.5t-16 -20.5q-2 0 -6 2q7 32 13.5 64t11.5 67q-7 -32 -14.5 -65.5t-16.5 -62.5q-4 4 -10 4q-2 0 -4.5 -5t-6.5 -11.5t-10 -11.5t-13 -5t-11 3t-6.5 7.5t-5 9.5 t-6.5 9l3 9q21 57 29 123.5t12 133.5q0 10 -1 19v15q-3 -74 -12 -148q-8 -76 -34 -140q-4 8 -6 14t-2 14zM83 236v4v-4zM177 219q4 34 7 62q4 30 6 68q-6 -20 -8.5 -36.5t-3 -31.5t-0.5 -31q0 -14 -1 -31z" />
<glyph unicode="J" horiz-adv-x="463" d="M-20 -12q0 10 12 13.5t19 3.5h19q24 -12 49 -24t53 -12q29 0 51 17t38 43.5t26.5 60.5t17.5 67.5t10 63.5q1 11 2 20q-1 -8 -2 -17q-4 -29 -11 -62.5t-17 -67t-25 -60.5t-35 -44t-47 -17q-25 0 -48.5 9.5t-43.5 22.5q23 0 44 -6t44 -6q20 0 31.5 8t22.5 23l14 -1 q22 42 36 93t22 105t11 107.5t3 100.5v31q0 16 -1 32l-3 -4q-2 -50 -4 -110.5t-8.5 -121.5t-20 -118t-38.5 -101q30 56 43 128.5t17.5 149.5t5.5 153.5t7 140.5q-56 6 -114.5 13t-114.5 7q0 10 -0.5 15t-0.5 10q0 9 14 11t20 2h2l23 -1v12q-6 1 -20.5 3.5t-30 7.5t-27 12 t-11.5 16t18.5 14t41.5 8t44 3.5t27 0.5q54 0 104 -5.5t105 -16.5l49 -70q-7 -36 -10 -88.5t-5 -113.5t-5.5 -127t-13 -129t-27 -120t-46.5 -100t-72.5 -68.5t-104.5 -25.5q-26 0 -55.5 9.5t-48.5 28.5l3 8q26 -13 53 -20.5t56 -7.5q34 0 67 14q-31 -11 -63 -11q-29 0 -55 8 t-52 20l7 12q-5 3 -14 8.5t-17 12t-14 14t-6 13.5z" />
<glyph unicode="K" horiz-adv-x="677" d="M60 -19l9 110h13q-1 10 -1.5 19.5t-0.5 19.5q0 54 8 108.5t8 108.5q0 11 -0.5 22t-1.5 22h-6q0 -66 -4 -130.5t-12 -130.5q12 150 12 301q0 31 -3.5 62.5t-3.5 62.5q0 23 4.5 44t4.5 44v11q0 6 -1 11q7 0 12.5 1.5t9.5 1.5q10 0 12 -10.5t2 -18.5v-4h13q1 6 3.5 15.5 t6.5 19t10.5 16t14.5 6.5q10 0 17.5 -18.5t12.5 -47t7.5 -63t3.5 -66t1.5 -56.5t0.5 -35v-51q53 61 118 122t128 112q24 19 45 35.5t41 40.5l22 -23q-5 -11 -12.5 -20.5t-15.5 -17.5l9 -6q6 5 15 11.5t19 12.5t20 10.5t18 4.5q12 0 12 -12q0 -24 -15 -45t-50 -51.5 t-92.5 -77t-142.5 -121.5q51 -8 93.5 -28t76.5 -50t60 -67.5t44 -79.5q4 -10 13 -27.5t17.5 -36.5t15 -36.5t6.5 -27.5q0 -5 -3 -11t-9 -8q-17 50 -35.5 98t-47.5 92q27 -45 44.5 -92.5t31.5 -97.5l-15 -3q2 -5 5.5 -15.5t3.5 -14.5q0 -8 -2.5 -20.5t-14.5 -12.5 q-11 0 -21 8t-17 16q-11 58 -32 112t-55 98q28 -39 45 -88.5t30 -109.5q-15 20 -25.5 43t-20 46.5t-19.5 46.5t-24 44l9 7q-28 32 -57 53t-61 34t-68 18t-77 5l-18 57l-1 -8q4 -10 9 -30t10 -29q34 0 67.5 -3t64.5 -13q19 -7 37 -16q-13 6 -26 11q-27 9 -57 12.5t-63 3.5 q-5 0 -10.5 -0.5t-10.5 -0.5l-5 -1q-6 11 -9.5 28t-8.5 30q-3 -21 -7 -55.5t-8.5 -71t-7.5 -70t-3 -52.5q0 -5 0.5 -15t0.5 -21q0 -15 -2.5 -27.5t-12.5 -12.5q-2 0 -6 2q1 13 1 27v14v24l-4 -65l-9 2l-9 -2v-18q-4 -7 -10.5 -13.5t-15.5 -6.5q-17 0 -23.5 15.5t-6.5 27.5 v28q1 12 1 24q-3 -13 -5 -27q-3 -16 -5 -33q-5 8 -7 19.5t-2 20.5zM79 1q1 1 1 2q-1 -1 -1 -2zM96 164q5 32 7 61q3 31 3 57q-3 -31 -5 -60q-2 -28 -5 -58zM165 108q5 32 8 65q4 32 9 63q-7 -31 -11 -63t-6 -65zM211 337l71 81l-3 4l-67 -70zM280 238q82 -11 133 -41 q-56 38 -133 41zM351 305q66 -18 119.5 -59t91.5 -97q-34 58 -90 99t-121 57zM394 183l10 -6zM406 176l6 -4l3 -2q-5 3 -9 6zM415 170q13 -8 24 -20q-11 11 -23 19zM448 141l4 -4zM452 137q3 -3 5 -6q-2 3 -5 6zM457 131q2 -1 3 -3q-2 1 -3 3z" />
<glyph unicode="L" horiz-adv-x="580" d="M61 369v113q0 27 0.5 53.5t1.5 53.5q1 31 5 60.5t4 61.5h4q7 0 12 1t8 1q10 0 12 -13t2 -20l-1 -21h12q1 6 3.5 19.5t7.5 27.5t11.5 24.5t15.5 10.5q10 0 15.5 -18t8.5 -42.5t3.5 -50t0.5 -40.5v-12q0 -115 2 -230t2 -230q0 -9 -0.5 -18.5t-0.5 -18.5q0 -5 0.5 -9t0.5 -9 h10q9 0 18 -0.5t18 -0.5q63 0 124.5 6.5t124.5 6.5h4q10 0 24 -2.5t14 -14.5v-2q-53 0 -104 -3.5t-104 -8.5q39 2 77.5 5t77.5 3q13 0 25 -0.5t25 -1.5l-4 -12q6 -1 16 -2.5t19.5 -5.5t16.5 -9.5t7 -13.5q0 -14 -13 -19.5t-24 -10.5q-15 5 -31.5 5.5t-32.5 0.5q-35 0 -69 -3 q-32 -3 -65 -6q24 1 46 2q25 1 50 1q22 0 43.5 -1t43.5 -5q-18 -8 -44.5 -12t-55 -6t-56.5 -2.5t-49 -1.5l-9 10q-22 -5 -44 -6.5t-45 -1.5q-24 0 -48 2t-47 6q-11 12 -22 23.5t-24 22.5q0 72 -3.5 142t-8.5 142h-6q3 -70 6.5 -140t5.5 -140v-5l-3 3v7q-5 90 -9.5 177.5 t-4.5 177.5zM81 0l46 -48q17 -5 35.5 -6.5t38.5 -1.5q12 0 23 1h19q-6 -1 -14 -1q-8 -1 -16 -1h-20q-12 0 -24.5 1t-24 2t-16.5 3q-3 3 -10 10.5t-15 15.5t-14.5 15.5t-7.5 9.5zM94 102q0 -23 3 -46t3 -46v-6q8 -8 15.5 -16t14.5 -17h7q22 0 43.5 -2.5t43.5 -2.5q23 0 45 2 q8 0 17 1h-7q-24 -1 -50 -1q-31 0 -58 2t-38 7l-30 29l-9 118v-22zM146 47q6 -2 18 -7.5t18 -6.5l-3 11l-11 -1zM194 39q5 -1 10.5 -1.5t11.5 -0.5q26 0 52 1t52 6q-32 -2 -63 -2t-63 -1v-2z" />
<glyph unicode="M" horiz-adv-x="898" d="M25 59q0 29 13.5 75t31.5 95.5t36.5 96.5t28.5 79q9 28 16.5 60.5t13 66t9.5 66.5t7 63q17 13 46.5 22t54.5 19q54 -44 93 -101t68 -129q18 27 33.5 60t28.5 68.5t25 70.5t24 65q25 8 52.5 12t54.5 9q27 -56 51 -107t44.5 -102.5t37 -105.5t29.5 -116q6 -32 15 -64.5 t16.5 -65.5t13 -66t5.5 -66q0 -3 -2.5 -8t-10.5 -6q-16 94 -35 186q-19 90 -47 179q25 -89 43 -177q19 -91 33 -185l-14 -8q2 -12 5 -25t3 -25q0 -3 -0.5 -12.5t-2 -19.5t-5 -17.5t-9.5 -7.5t-12.5 7.5t-12 18t-10 20t-6.5 14.5q-6 66 -20.5 147.5t-34.5 165t-45.5 162 t-53.5 138.5l-1 -5q32 -68 55 -139.5t40 -145t29 -148t21 -147.5q-21 46 -33.5 93.5t-22 95t-19 95.5t-23.5 97l7 20q-14 41 -28.5 81t-33.5 78l-4 -10q-11 -30 -28 -70t-40 -78t-51.5 -68t-62.5 -40q-21 13 -42.5 24.5t-43.5 23.5v6l40 -22q20 -11 40 -23l8 2 q43 25 69.5 50t45.5 55t33.5 67.5t33.5 85.5l-4 9l-4 -9l-17 -39q-10 -24 -24.5 -51.5t-32 -56t-35.5 -52t-37 -38t-36 -14.5l-66 34l-2 3q0 12 -4.5 26t-10.5 28t-13.5 27.5t-13.5 25.5l-7 4q13 -31 27 -56t14 -53l5 -6l-9 4v6q-18 35 -34.5 76.5t-33.5 76.5 q-10 -67 -25 -134t-38 -130q-20 -54 -48 -103.5t-47 -104.5l-8 6l-11 -2q-9 2 -9 12q0 8 3 19.5t7.5 23.5t9.5 23.5t8 18.5l-9 3q-3 -6 -14.5 -27t-25 -43t-26.5 -40t-20 -18q-5 3 -7 9.5t-2 11.5zM187 591l11 59l-7 -2l-2 -30q0 -10 -2 -27zM533 627l26 62h-4zM574 520 q10 21 18.5 42t16.5 42l-1 6zM582 702l13 -33l5 1l-12 32h-6zM629 618l4 -8l1 5l-3 7zM651 733l2 -11l21 -27zM677 689l11 -31l22 -46l3 2q-2 6 -7 16.5t-10.5 21.5t-10.5 21.5t-8 15.5z" />
<glyph unicode="N" horiz-adv-x="715" d="M60 509q0 53 7.5 105t24.5 103l110 21q5 -7 9 -12.5t9 -11.5q29 -42 50 -91.5t38 -103t32.5 -108t34.5 -106t44 -97.5t61 -82q4 29 7.5 77t8 103t9.5 110.5t12.5 101t18 74t24.5 28.5l6 -4q-21 -62 -28.5 -125t-11 -127t-8 -127.5t-19.5 -125.5l6 -3q1 9 2 18.5t3 18.5 q8 58 11.5 116.5t8 117.5t13 117t26.5 114l10 -7q6 4 11 18.5t12 30t17 28t25 12.5q8 0 9.5 -9.5t1.5 -18.5l-1 -7q-1 -6 -3 -15.5t-4.5 -20.5t-6.5 -20q-14 -44 -22.5 -87t-13.5 -86.5t-8 -87.5t-6 -89q4 41 7.5 86t9.5 90.5t15.5 89t26.5 81.5q-15 -96 -24.5 -191 t-15.5 -192l-12 -6q0 -61 -12 -116.5t-27 -114.5q-5 0 -11.5 -0.5t-12.5 -0.5q-5 0 -14 3t-19 7.5t-20.5 10t-17.5 10.5q-43 28 -77 69.5t-61 91.5t-48 105.5t-39.5 111.5t-35.5 109.5t-34 98.5l-6 -5q17 -50 33.5 -108.5t35 -119t42 -119.5t55 -110t73.5 -90.5t98 -61.5 q-48 13 -85.5 44.5t-68 74.5t-54 93.5t-42.5 102.5t-34 102t-28 91q0 -42 4.5 -82t4.5 -81q0 -69 4 -138.5t8 -138.5l-22 -4q-8 0 -12 13.5t-6 30.5t-2.5 32.5t-0.5 19.5h-12q0 -8 -0.5 -31.5t-3.5 -48.5t-9.5 -45t-18.5 -20q-8 0 -15 26.5t-14 70t-13 99t-10 112.5 t-6.5 111t-2.5 95zM301 236q12 -25 21 -46q14 -29 27.5 -53.5t28.5 -44t37 -37t52.5 -34t74.5 -35.5q11 36 20 72t14 74q-6 -36 -15.5 -70.5t-18.5 -69.5q-60 21 -97.5 46t-63 57t-45.5 72q-16 31 -35 69zM398 211q16 -37 41.5 -67.5t53.5 -57.5h3q-10 7 -25.5 27t-31 41.5 t-27.5 38.5t-14 18z" />
<glyph unicode="O" horiz-adv-x="740" d="M40 319q0 29 3 61.5t13 65.5t28.5 64.5t50.5 57.5q26 21 56.5 35.5t60.5 16.5q-3 -2 -3 -4q0 -4 4.5 -8.5t4.5 -9.5v-2q0 -4 -4.5 -6t-14.5 -5.5t-26 -10.5t-38 -21q6 -6 6 -9q19 10 35 14t30 4q29 0 42 -10t13 -15q0 -8 -12.5 -13t-29 -12.5t-34.5 -20t-28 -36.5 q-16 -24 -24.5 -60t-8.5 -73q0 -63 15 -115t42.5 -90t67 -59t89.5 -21q48 0 86.5 24t65.5 65.5t41 96t14 116.5q0 30 -3.5 59.5t-14 56.5t-29 51t-48.5 44q-38 20 -62 28.5t-24 16.5q0 3 4 7q50 -11 90 -36q37 -23 62 -60q-27 41 -61 63q-37 25 -88 39q5 5 5 9t-14.5 7 t-31.5 7t-31.5 10t-14.5 15q0 11 18 16t44 12q7 0 13.5 -2t11.5 -4q49 -9 93.5 -32t80 -59t59.5 -85.5t31 -111.5q-5 59 -26.5 107.5t-56 86.5t-80.5 64t-98 40q46 0 91.5 -18.5t83.5 -54t66 -87.5t40 -119q-2 0 -6 -1.5t-6 -1.5q9 -51 9 -99q0 -70 -21.5 -137t-62 -119.5 t-99.5 -85t-135 -32.5q-45 0 -88 13t-80 35q2 -2 2 -4t-5 -2q37 -24 80 -37q44 -14 90 -14q52 0 97 16t82 44t65 65q20 26 35 56q-13 -28 -30 -55q-24 -38 -59.5 -67t-81.5 -46.5t-104 -17.5h-13q-83 0 -144 37t-101 94.5t-59.5 128.5t-19.5 140zM203 -25q0 -1 1 -2 q0 1 -1 2zM532 101q26 27 42 62t23 75q-8 -38 -24 -73.5t-41 -63.5zM536 0q34 24 60 57q26 34 43.5 74t27 84.5t11.5 88.5q-1 -3 -2 -8q-5 -39 -14 -80.5t-25.5 -81.5t-41.5 -75q-25 -34 -59 -59zM563 502q1 -2 3 -4q-1 2 -3 4zM597 238q5 22 7.5 44.5t2.5 45.5q0 25 -3 51 q1 -11 1.5 -21t0.5 -21q0 -51 -9 -99zM653 107q2 3 3 6q-1 -3 -3 -6zM657 114l4 10zM661 124q1 3 3 7q-2 -4 -3 -7zM664 131q11 31 18.5 62t12.5 61v-4l-9 -49q-5 -18 -10 -35.5t-12 -34.5zM695 256q0 17 2 38q2 22 2 48v18q1 -8 1 -17v-17q0 -17 -2 -35q-1 -17 -3 -35z" />
<glyph unicode="P" horiz-adv-x="688" d="M60 562q0 45 23 70.5t57.5 38.5t74.5 16t74 3q69 0 135.5 -10t118.5 -39t83.5 -81.5t31.5 -136.5q0 -71 -21.5 -124t-60.5 -88t-94.5 -52.5t-123.5 -17.5q-3 0 -13 0.5t-21 2t-19.5 5t-8.5 9.5l3 7q17 -1 34 -1.5t34 -0.5q30 0 59.5 3t57.5 12t52 25q22 15 41 38 q-20 -23 -43 -38q-25 -16 -53.5 -24t-59 -10.5t-61.5 -2.5q-14 0 -29 0.5t-29 1.5l-1 19q-8 -1 -14 -1.5t-11 -0.5q-12 0 -22 3.5t-24 12.5v-21q0 -17 1 -33.5t4 -30.5q-5 -49 -7.5 -98t-1.5 -98l-23 -1q-5 0 -7.5 6.5t-4 16t-2 20.5t-0.5 20v20h-10q0 -6 -3 -26t-7.5 -42 t-11.5 -39.5t-16 -17.5q-7 0 -12 13.5t-8 30.5t-5 32.5t-2 20.5q-9 88 -9 176.5t-8 176.5q-3 30 -9 58.5t-12.5 57.5t-11 58t-4.5 61zM174 552q38 11 70 13t61 2h4q43 0 85 -2.5t75 -17t53.5 -45t20.5 -86.5q0 -17 -3 -32t-8 -30q4 14 6.5 28.5t2.5 29.5q0 38 -13 69t-42 56 l-7 4q-15 7 -37.5 11t-47.5 6.5t-50.5 3t-47.5 0.5h-28q-18 0 -41.5 -3t-40.5 -8q0 -25 4.5 -49.5t9.5 -48.5l11 -48q6 -24 8 -48l9 -125q7 5 15.5 8.5t22.5 3.5h5q22 -7 45.5 -8t46.5 -1q48 0 85.5 9t63.5 30.5t39.5 57t13.5 87.5q0 23 -7.5 50.5t-22.5 51.5t-38 40 q-22 16 -51 17q28 -3 50 -18t37 -38t22.5 -50.5t7.5 -53.5q0 -91 -44 -134t-135 -43q-22 0 -44 2l-44 4q33 8 67.5 9.5t66 7.5t57 22.5t41.5 55.5l9 -3q12 33 12 69q0 55 -18.5 88t-49.5 51t-72.5 23.5t-87.5 5.5q-34 0 -72 -2.5t-70 -13.5zM470 651q14 -5 27.5 -8.5 t27.5 -9.5q-25 13 -55 18zM526 632q10 -8 19 -13q10 -6 20 -16q-4 8 -18 17q-13 8 -21 12zM593 568q21 -33 31.5 -70.5t10.5 -76.5q0 -63 -25 -121q13 28 20 59q8 33 8 66q0 41 -11 75.5t-34 67.5z" />
<glyph unicode="Q" horiz-adv-x="751" d="M45 295q0 52 10.5 103t28 99.5t40.5 95t49 91.5q1 -5 5 -5.5t8.5 -1t7.5 -2t3 -7.5q0 -8 -4 -18.5t-9 -21.5t-10.5 -21.5t-9.5 -16.5l12 -7q4 7 14 23.5t23 33t26 29t23 12.5q11 -2 11 -10q0 -30 -16 -76t-35.5 -98.5t-35.5 -106.5t-16 -102q0 -32 7.5 -60.5t24 -49.5 t41.5 -33t60 -12q29 0 63.5 10t58.5 27l-50 61l27 18l19 -18l9 7q-2 5 -3 10.5t-1 11.5q0 14 5.5 25.5t19.5 11.5q7 0 15 -5.5t15.5 -13t13.5 -15.5t11 -13q22 27 41.5 59.5t33 67.5t21.5 71.5t8 72.5q0 43 -12 74t-34 53t-54 36t-71 22q-6 1 -23.5 3.5t-35.5 6t-32.5 7 t-14.5 7.5q0 2 2 6q33 0 70.5 -5t74 -17t67.5 -32q30 -18 51 -44q-20 28 -50 47q-31 20 -67.5 32.5t-74.5 18t-71 7.5q2 10 2 11q0 2 -2 4q-9 0 -21.5 -3.5t-26 -9t-26 -11t-20.5 -9.5q-8 5 -8 14q0 19 12 32.5t29 22.5t36 13.5t34 4.5q67 0 132 -18.5t116 -55t82 -92 t31 -130.5q0 -42 -12 -87.5t-31.5 -89.5t-44.5 -84t-51 -72l2 -1q30 34 55 74t44 83t29.5 88.5t10.5 92.5q0 76 -33 132t-86 93.5t-119.5 56t-133.5 18.5l-25 -1q38 11 73 11q44 0 92.5 -12.5t92.5 -36.5t79.5 -57.5t54.5 -75.5l-9 -6q15 -30 22 -63t7 -67q0 -47 -11 -93 t-30.5 -89.5t-45.5 -83t-57 -74.5l6 -6q54 68 88.5 137t51.5 155q-10 -82 -48 -156.5t-89 -138.5q29 -30 55 -67t46 -77.5t31.5 -84t11.5 -85.5q0 -5 -1 -15t-4 -20.5t-8 -18t-12 -8.5l-10 4q10 17 14 35.5t4 38.5q0 22 -6 45q1 -11 1.5 -21t0.5 -21q0 -20 -3.5 -38.5 t-13.5 -35.5l-15 9q-2 -6 -7 -11t-12 -5q-14 0 -23 12.5t-10 25.5q10 6 13 15.5t3 20.5q0 42 -20 83t-45 73q10 -16 21 -33.5t20 -36t15 -38t6 -38.5q0 -11 -4 -23t-15 -17l-7 15q2 5 4 11t2 12v9q0 3 -1 9l8 8q-12 23 -22.5 47.5t-23 47.5t-27.5 44.5t-36 38.5l-3 -6 q32 -36 60.5 -80t38.5 -92q-7 25 -19.5 49.5t-28 48t-33 45.5t-34.5 41q-23 -20 -45.5 -34t-46.5 -23t-51 -13t-60 -4q-61 0 -107.5 26t-78 68t-48 93.5t-16.5 102.5zM277 8q5 -1 10 -1h10q19 0 45.5 5.5t54 15t53.5 24t45 32.5l-5 5q-42 -31 -91.5 -53.5t-103.5 -22.5 l-18 1v-6zM624 447q4 16 7.5 33t3.5 36v5l-1 42q-6 -23 -6 -47v-8v-9q0 -25 -4 -52zM659 36q10 -25 21 -49q10 -23 19 -47q-8 25 -18 48q-10 24 -22 48z" />
<glyph unicode="R" horiz-adv-x="781" d="M30 710q0 12 26.5 23.5t67.5 20.5t90 16t94.5 12.5t81 8t49.5 2.5q72 0 130 -14.5t98.5 -47.5t62 -86.5t21.5 -131.5q0 -65 -24.5 -110.5t-65.5 -74t-94 -42t-110 -13.5q-16 0 -31.5 1t-31.5 2q11 -7 36.5 -19t57 -27t66 -31.5t62.5 -32t46 -29t18 -21.5l-5 -6 q-33 24 -68 42t-71.5 34t-73.5 31q-35 15 -70 35q34 -20 68 -35l71 -32q36 -16 70.5 -33.5t66.5 -41.5l-13 -12q7 -5 16.5 -13.5t18 -18.5t14.5 -20.5t6 -19.5q0 -13 -12 -13t-26 7t-25 11q-8 15 -28 30.5t-48 30.5t-60 29t-63 27.5t-58 25.5q-19 8 -33 16q29 -17 61 -31 q37 -17 74.5 -35t72.5 -38t64 -46q-29 8 -73 26.5t-89.5 41t-88 45.5t-68.5 40l7 9q-28 19 -57 44t-45 55q-11 -47 -13 -90t-2 -82q0 -14 7 -26.5t7 -23.5q0 -15 -14 -18q-8 19 -12 38t-6 38q0 -20 2 -39q3 -20 10 -40l-15 -6l9 -12q-2 -11 -8.5 -20.5t-19.5 -9.5 q-16 0 -25.5 17.5t-15 42t-7 50t-1.5 42.5q0 34 0.5 67t2.5 67q-5 -32 -5.5 -65t-0.5 -66q0 -35 4 -72t12 -71q-13 12 -19.5 27t-10 31.5t-5 33.5t-2.5 33l12 3q-4 15 -5 30.5t-1 31.5q0 35 5 68.5t5 68.5v12l-1 25h-6q-2 -48 -5.5 -96t-4.5 -97q-1 10 -1 19v19 q0 73 7.5 143.5t15.5 142.5q2 23 12 42.5t16 40.5q4 -3 10 -3.5t11 -1t9 -3.5t4 -10q0 -4 -1 -8l-2 -8l9 -3q7 11 18 21t25 10q11 0 16 -9t5 -19q0 -6 -1.5 -25t-4 -44t-5.5 -53.5t-5.5 -53.5t-4.5 -42.5t-2 -21.5l24 54q-3 -9 -5.5 -15t-4.5 -12t-5.5 -13t-9.5 -18v-14 l33 75q16 0 31.5 0.5t31.5 3.5l10 2q-22 0 -34.5 0.5t-23.5 2.5q40 0 79.5 1.5t80.5 1.5q36 0 71.5 2t64 14t46.5 37t18 71q0 47 -12 76t-34.5 45.5t-56.5 22t-77 5.5q-88 0 -177 -8t-174 -30q-2 8 -3 14.5t-5 11.5q0 6 11 11t25 8t26.5 5t16.5 3v12q-7 -1 -24 -2t-37 -1 q-27 0 -50 3.5t-23 14.5zM214 290q20 -26 40.5 -48.5t46.5 -42.5q-24 17 -48.5 41t-38.5 50zM222 304l2 2l25 58v3q-1 -3 -5.5 -12t-9 -19.5t-8.5 -19.5t-4 -12zM230 296q2 -5 6.5 -11.5t11.5 -13.5q-6 7 -10 14.5t-6 14.5zM252 367q40 -2 81.5 -2.5t85.5 -0.5q26 0 52 1.5 t50 6.5q-11 -2 -22 -2h-21q-12 0 -29 0.5t-37 1.5t-42 1.5t-43 0.5q-23 0 -42 -1t-33 -6zM344 388q25 -1 52 -2.5t55 -1.5q35 0 68.5 4.5t59.5 19t41.5 40t15.5 67.5q0 14 -2 27t-5 27h-6q6 -24 6 -49q0 -45 -16 -71t-43 -39.5t-63.5 -17t-77.5 -3.5q-20 0 -41.5 -0.5 t-43.5 -0.5zM348 195q3 -2 5 -3zM350 279q14 -11 32 -21l-29 21h-3zM362 298q20 -2 40 -3q19 -1 36 -2q-14 1 -28 3q-16 3 -32 3h-8q-4 0 -8 -1z" />
<glyph unicode="S" horiz-adv-x="710" d="M10 67q0 6 7 11t16.5 9t19 7t14.5 5q48 -6 96 -10t96 -4q18 0 50 0.5t70 3.5t77 9.5t71 18.5t52 30t20 45q0 22 -9.5 39.5t-25 31t-34.5 22.5q-7 4 -15 7q8 -4 15 -8q18 -10 32.5 -24.5t23.5 -32t9 -39.5q0 -24 -17.5 -40.5t-45 -27.5t-61 -17t-66.5 -9t-61 -3.5 t-44 -0.5q-51 0 -102.5 3.5t-102.5 8.5q18 5 36.5 7.5t37.5 2.5q32 0 63 -0.5t62 -0.5q37 0 73 1.5t74 7.5l3 -12q15 3 38 9.5t44.5 16.5t37 25t15.5 35q0 29 -21 51t-53.5 39.5t-73.5 30.5t-80.5 23t-74.5 18t-56 15v-6q21 -8 55 -16.5t73.5 -18.5t79.5 -22.5t72.5 -29.5 t53 -39t20.5 -50q0 -16 -15 -28t-35.5 -20.5t-41.5 -13.5t-32 -7q13 3 33.5 8.5t40 14.5t33.5 21.5t14 29.5q0 28 -22 47t-58 34t-82 27t-94.5 26t-94.5 32t-82 45t-58 64t-22 89q0 51 24.5 86.5t63 58t84.5 32.5t89 10q63 0 123.5 -18t114.5 -50q-6 -2 -7 -5.5t-1.5 -7.5 t-2 -7t-6.5 -3q-4 0 -15.5 3.5t-24.5 8t-25 8.5t-16 6l-3 -9q9 -4 23.5 -11.5t28 -18t23 -22.5t9.5 -24q0 -13 -12 -13q-15 0 -35.5 8t-45.5 17.5t-53.5 17.5t-57.5 8q-19 0 -44.5 -3.5t-49 -13t-39.5 -26t-16 -41.5q0 -23 21.5 -39t57 -29t80.5 -25t92.5 -26.5t92.5 -33.5 t80.5 -46t57 -64t21.5 -87q0 -49 -20 -83t-53 -56.5t-75 -35t-86.5 -19t-88 -8t-78.5 -1.5h-100q-9 0 -24.5 0.5t-30.5 2t-26 5.5t-11 10l1 5q41 -2 81 -3.5t81 -1.5h76q34 1 68 4l-34 -2h-41h-40q-94 0 -185 6q2 8 2 11q0 4 -2 8q-2 0 -5.5 -0.5t-8.5 -0.5q-11 0 -24.5 1 t-26 4t-21 8.5t-8.5 13.5zM553 51q18 6 35 14q19 8 36 28q-17 -15 -36 -25q-17 -9 -35 -17z" />
<glyph unicode="T" horiz-adv-x="673" d="M0 705q0 9 7 13.5t17 6.5t20 2.5t15 0.5q36 0 71.5 -4t71.5 -4q91 0 181 -3t181 -2q18 0 35.5 5t35.5 5q7 0 12.5 -4t5.5 -12q-27 -5 -55 -8q-25 -2 -51 -4q26 0 51 2q27 2 55 4v-19l18 3q8 -2 15 -7.5t7 -15.5q0 -9 -5 -17.5t-11 -14.5q-77 0 -153 -4.5t-152 -4.5 q13 -1 25.5 -2t26.5 0q46 0 91.5 1.5t91.5 1.5h30q15 0 31 -1q-14 -9 -29.5 -13t-31 -5.5t-32 -1.5t-32.5 -1l-9 12q-23 -4 -46 -5t-46 -1l-89 1l1 -9l167 1q-85 -5 -167 -6q1 -13 2 -25.5t3 -25.5l-12 -3q8 -34 11.5 -74.5t6.5 -82.5t8.5 -82.5t16.5 -73.5l3 3 q-6 34 -11 73.5t-9.5 81t-8.5 81.5q-3 38 -5 71q4 -53 12 -111q9 -59 19 -119.5t19.5 -119.5t17.5 -113q2 -17 5 -36.5t3 -39.5v-12q0 -7 -2 -13q-7 0 -13.5 -2.5t-13.5 -2.5q-11 0 -13.5 11t-2.5 19h-9q-1 -6 -3.5 -15.5t-7 -18.5t-11 -15t-14.5 -6q-10 0 -18 14t-14.5 36 t-11 48.5t-8 51t-6 44.5t-4.5 29q-10 42 -18.5 92t-14.5 101t-9.5 101.5t-3.5 94.5q0 7 0.5 13.5t0.5 13.5v6q0 4 -1 8q-59 1 -112 5.5t-118 12.5q1 6 1 13t1.5 13t5 10.5t12.5 4.5q6 0 14 -2l3 9q-12 5 -28 16t-16 26zM326 595q2 -29 5.5 -64t7.5 -71t8.5 -70.5t8.5 -63.5 q-3 28 -6.5 63t-6.5 71t-5.5 71t-2.5 64h-9zM330 600h5v9h-5v-9zM403 698q12 -2 23 -4q14 -3 31 -2q12 0 25.5 1.5t25.5 3.5h-55q-25 0 -50 1z" />
<glyph unicode="U" horiz-adv-x="779" d="M55 334q0 44 6.5 86.5t15.5 84.5t18 84.5t14 85.5h24q6 -2 8 -10t2 -13q0 -14 -2 -27t-4 -27h9q1 6 6.5 23.5t13 35.5t16.5 32.5t18 14.5q6 0 9 -7t4.5 -16t2 -18.5t0.5 -14.5q0 -41 -5.5 -80.5t-12.5 -79.5t-12.5 -80t-5.5 -80q0 -53 12 -97t38.5 -75.5t67 -49 t97.5 -17.5q61 0 102.5 30t67 76.5t36 102.5t10.5 107q0 42 -4 83t-4 83v3q0 9 2.5 24t14.5 15q2 0 3.5 -27.5t2.5 -62.5t1.5 -67t0.5 -41v-40q0 -19 -2 -39q5 26 5.5 51t0.5 51q0 43 -2 86l-4 86h19q-2 10 -2 30q0 18 4 35.5t17 17.5q6 0 12 -6t10.5 -14t8 -16.5t5.5 -12.5 q-4 -16 -5.5 -33t-1.5 -35q0 -39 1 -79.5t1 -75.5q0 -71 -10.5 -143.5t-39.5 -132.5t-82 -101.5t-137 -50.5q91 9 146 53.5t85 110t40 143.5t10 153q0 31 -1 62t-1 62v23q0 12 1 23q13 -31 15.5 -76t2.5 -85q0 -42 -1 -74.5t-7 -74.5l-10 -15q-8 -71 -30 -130t-61 -101.5 t-96 -66t-133 -23.5q-63 0 -123.5 17.5t-107.5 62.5l-2 -7q47 -46 106.5 -64t123.5 -18q72 0 127 22t95.5 61.5t66.5 94.5q25 53 39 118q-14 -67 -38 -121q-24 -56 -63 -96t-94 -61.5t-131 -21.5q-87 0 -149.5 27t-102.5 76t-59 117t-19 150zM451 73q14 3 28.5 8.5t27.5 13 t24 15.5t17 14q-14 -8 -37 -23t-60 -28z" />
<glyph unicode="V" horiz-adv-x="664" d="M20 637q7 4 12.5 7t10.5 3q6 0 11.5 -9t10.5 -20t8.5 -22t4.5 -14l9 6q-5 19 -8 38t-3 39v8q0 7 1.5 13.5t4.5 11.5t8 5q7 0 25 -30t40.5 -76t48 -101.5t49 -107t41.5 -91.5t26 -55q12 -24 23.5 -48.5t25.5 -48.5q44 97 72 200l56 206q3 10 9 42t14 66.5t17 61.5t18 27 l3 -1q-16 -69 -30 -136.5t-31 -135.5q19 66 34 133t34 133l9 -6q2 7 6.5 19.5t10.5 25t13.5 21.5t15.5 9q6 0 10.5 -7t6.5 -16t3 -18t1 -13q0 -2 -2.5 -8.5t-3.5 -9.5q-26 -86 -46.5 -173t-42 -173.5t-48.5 -171.5q-26 -83 -63 -164q37 79 64 162q28 85 51.5 171.5t45 173.5 t48.5 172q0 -39 -6 -77t-15 -76t-20 -75.5t-20 -74.5h-9q-23 -107 -57 -210q9 24 19 48t21 47l7 14q0 -5 -12 -37t-28.5 -74.5t-34.5 -87.5q-18 -43 -31 -73l28 80q-34 -82 -78 -163v-3q-21 0 -40.5 0.5t-40.5 3.5q-6 16 -14.5 35.5t-17 39.5t-17 39t-15.5 35l-4 -6 q-21 43 -45.5 87t-47.5 84.5t-42 74t-28 54.5q-24 52 -41 107t-35 110zM264 96q13 -22 23 -46.5t13 -49.5q-8 18 -18 45.5t-18 50.5zM300 -1q4 -6 13 -14.5t14 -16.5l-16 2q-2 5 -4.5 12.5t-6.5 16.5zM365 -30q10 1 19 1h34l24 50h4l-25 -53q-14 2 -28 2h-28zM415 211 q23 54 41 111q24 75 41 153q-20 -77 -43 -153q-17 -56 -39 -111zM442 22q2 4 6 13.5t10 22.5l-12 -36h-4z" />
<glyph unicode="W" horiz-adv-x="925" d="M20 607l25 3q5 -3 9 -14.5t5.5 -25.5t2.5 -27t1 -18l9 3q0 8 1 29.5t5 44t11.5 39.5t19.5 17q6 0 12.5 -31t15.5 -80.5t20 -112t26.5 -125t35.5 -120t46 -96.5q9 44 23.5 95.5t28.5 96t24.5 74.5t12.5 31l107 3q13 -9 24 -32.5t21 -54.5t19 -66.5t19 -69t21 -62t24 -45.5 l9 -1q15 0 30.5 19t31 48.5t29.5 65t25.5 69t19.5 61t12 40.5q4 15 8.5 41.5t9.5 57.5t10.5 62.5t11.5 57t13 42t15 16.5l5 -1q-30 -193 -86 -380q31 92 51.5 186t40.5 188l8 -8q1 7 6 25.5t11.5 38t14.5 34.5t16 15q6 0 10.5 -10t6.5 -23t3 -25.5t1 -16.5q0 -3 -3 -13 t-4 -14q-8 -34 -19.5 -94t-27.5 -131.5t-38 -145.5q-20 -71 -46 -131q27 60 49 130q23 74 40.5 144.5t30.5 130.5t21 94q0 -51 -8 -105.5t-21 -109.5t-29 -109t-31 -102l-15 -6q-9 -32 -25 -76t-40.5 -83.5t-57 -67t-73.5 -27.5q-31 0 -55.5 13.5t-44 36t-34 51.5t-26 60 t-20.5 62.5t-16 57.5q-2 -7 -4 -17q13 -43 26.5 -87t33 -81.5t49 -65t74.5 -36.5q-43 3 -73.5 28t-51.5 61.5t-34 78.5t-19 77q-3 -24 -9.5 -53t-16.5 -57.5t-23.5 -54t-31.5 -43.5l-85 -15q-43 24 -75.5 68.5t-57 101t-41 121t-27.5 127.5t-16.5 121.5t-6.5 102.5zM397 167 h6q1 7 2 13.5t3 13.5l-4 12q-2 -10 -3.5 -19.5t-3.5 -19.5zM423 238q4 -24 11.5 -53.5t17.5 -59.5t23.5 -58.5t31.5 -51t40.5 -36t50.5 -13.5q31 0 58.5 19.5t51.5 52.5q-26 -26 -52 -45t-58 -19q-26 0 -47.5 14.5t-39 38t-31 53t-24.5 58.5t-19 55.5t-14 44.5zM547 95 q3 -9 7 -19q5 -10 11.5 -19t14.5 -14.5t18 -5.5q16 0 31.5 14.5t29 35.5t24.5 44.5t19 42.5q-8 -18 -19.5 -41.5t-25 -43.5t-29 -34t-30.5 -14q-4 0 -10 2q-12 3 -24 19q-11 16 -17 33zM609 -56q34 6 62 25.5t50.5 46.5t38.5 59q9 17 17 34q-7 -18 -16 -37 q-16 -34 -38 -62.5t-50.5 -47t-63.5 -18.5zM777 109q2 6 4 10zM781 119q2 5 4 9q-2 -5 -4 -9zM785 128q1 4 3 7q-2 -3 -3 -7z" />
<glyph unicode="X" horiz-adv-x="725" d="M10 584q7 5 11 12.5t13 8.5q9 -4 17 -10.5t14 -13.5l6 9q-8 11 -14 25t-6 28q0 8 4 14.5t13 6.5q6 0 26 -13t47 -33t58.5 -44t60 -46t51 -39.5t31.5 -23.5q21 43 36.5 68.5t30.5 46t32 42t40 56.5q5 -8 15 -10.5t10 -12.5q0 -5 -6.5 -15.5t-8.5 -13.5l9 -6q11 10 24.5 19 t28.5 9q18 0 18 -18q0 -17 -16 -48.5t-37.5 -67.5t-42 -70t-29.5 -56q14 -11 39.5 -34.5t55.5 -54t61 -64.5t56 -66.5t41 -60t16 -43.5q0 -9 -10 -11q-14 26 -30 50q-15 22 -31 43q15 -21 28 -43q14 -24 27 -50l-16 -9l13 -21q0 -11 -3 -21.5t-17 -10.5q-9 0 -16.5 4 t-15.5 9q-24 60 -49.5 101t-54.5 72.5t-62.5 58.5t-73.5 60v-1q35 -28 69.5 -59.5t65 -67t54.5 -75t38 -83.5q-13 9 -25.5 25.5t-24.5 34.5l-24 37q-12 19 -24 32l10 9q-37 33 -72 67.5t-73 66.5l-4 -8q29 -24 56.5 -49.5t53.5 -53.5q-26 27 -54.5 51.5t-57.5 47.5 q-34 -63 -67.5 -125t-66.5 -125q-3 -7 -8 -22.5t-11 -31.5t-13 -28.5t-16 -12.5l-7 3q11 26 19 52.5t20 51.5q-13 -25 -23 -50.5t-22 -50.5q-5 10 -15 18.5t-22 8.5q-2 0 -13.5 -2t-14.5 -7l-5 3q9 5 16.5 18.5t13.5 27.5t10 25q4 10 6 11q0 1 -1 2q-2 1 -2 3v1 q-11 -21 -22.5 -40.5t-24.5 -38.5q-2 10 -2 15q0 16 8 30t13 29q11 17 19.5 37t16.5 39l10 -6q22 62 57 124.5t62 122.5l-8 5q-27 -58 -58 -122t-60 -121q28 58 54 116t52 117q-26 17 -54.5 35.5t-56 38t-53 40.5t-46.5 45q-17 20 -33 39.5t-34 37.5zM242 193l48 96 q-14 -23 -25.5 -47t-22.5 -49zM268 80v1v-1zM269 83q6 11 14 27q10 19 20 38.5t19 36.5q7 14 12 22q-37 -61 -65 -124zM273 363l16 -11l3 8l-16 9zM475 339q27 -28 54 -55t53 -56q-22 37 -50.5 60.5t-56.5 50.5z" />
<glyph unicode="Y" horiz-adv-x="654" d="M10 683q8 2 13 7.5t13 6.5q8 -3 14.5 -11t11.5 -16l9 6q-8 21 -8 40q0 8 3.5 19.5t14.5 11.5q12 0 31 -18.5t41.5 -47.5t45.5 -64.5t43 -68.5t34.5 -60.5t19.5 -39.5l17 11l6 -6q14 21 32 38.5t36.5 34.5t36 34.5t29.5 39.5l-6 3q-29 -37 -63 -70q-32 -30 -63 -62 q48 53 93 104q47 54 95 111l42 46q3 -2 7.5 -4t9.5 -4t8.5 -5t3.5 -7q0 -3 -2.5 -7.5t-4.5 -6.5l9 -6q17 15 38 15q11 0 17.5 -6t6.5 -17q0 -23 -16 -50.5t-41 -57t-54.5 -59t-57.5 -55.5t-49.5 -47.5t-30.5 -34.5q-4 -1 -10.5 -7t-14 -13t-15.5 -12.5t-15 -5.5l-12 4 q2 5 14 18t27 27t28 26t18 16q-13 -4 -27.5 -15.5t-28 -25t-24 -26.5t-13.5 -20q0 -29 -2 -67.5t-5.5 -79.5t-8.5 -81t-10.5 -71t-12 -50.5t-13.5 -19.5q-2 0 -6 2l10 72l10 66l-26 -138l-14 4q-2 -11 -9 -25t-20 -14q-11 0 -21 10.5t-10 21.5q0 5 5 31t11 58 q-5 -20 -10.5 -39t-11.5 -38q-7 14 -7 31q0 32 8.5 62.5t13.5 62.5h10q1 38 5 76.5t4 76.5q0 37 -8 72t-29 66l-6 -3q7 -12 13.5 -29.5t11.5 -36.5t8.5 -37.5t3.5 -31.5q0 -37 -2.5 -74t-10.5 -73q3 29 6 58.5t3 58.5q0 45 -11 85.5t-29 79t-41.5 74t-49.5 70.5 q-19 26 -31.5 53.5t-29.5 53.5zM219 177q4 20 7 40.5t3 41.5q0 38 -8 81q3 -33 3 -66q0 -24 -1.5 -48.5t-3.5 -48.5zM284 117v3v-3zM285 123q7 42 12 83q5 40 7 81q-4 -41 -9 -81q-5 -41 -10 -83zM303 431l2 -5q12 6 27.5 20t31.5 30.5t30.5 33.5t25.5 29q-31 -26 -57 -56.5 t-60 -51.5z" />
<glyph unicode="Z" horiz-adv-x="722" d="M20 52q11 25 26.5 43.5t34.5 34.5q54 46 101 99t91 108.5t88.5 111t94.5 105.5h-225q-63 0 -124 -6v2q0 6 -2 12.5t-2 8.5q0 7 11.5 11t26 6t28 2.5t17.5 0.5v9q-6 0 -27 2t-44 5.5t-41 10t-18 15.5q0 8 20.5 14.5t54.5 12t76.5 9t86.5 6t85.5 4t73.5 1.5q19 0 39.5 -3.5 t41 -7.5t40.5 -7.5t37 -3.5q6 -22 11.5 -51t10.5 -59q-26 -13 -62 -50t-77 -86t-85 -105t-86 -106.5t-79.5 -90t-65.5 -56.5q54 -11 108 -17.5t108 -11.5q14 -1 37 -1t48.5 -0.5t51.5 -1t46.5 -2.5t33.5 -5.5t13 -9.5l-1 -5q-80 2 -159 3.5t-159 9.5q78 -10 157 -12t158 -7 l-3 -18q2 0 4.5 0.5t6.5 0.5q10 0 24.5 -1.5t27.5 -5t22.5 -9t9.5 -12.5t-7.5 -11.5t-17 -7.5t-19.5 -5l-14 -4q-98 13 -197.5 14t-198.5 10q93 -11 185 -16.5t186 -13.5q-24 -6 -48.5 -8t-49.5 -2q-66 0 -127 5t-127 11l-9 12q-51 2 -108.5 11t-105.5 29q-9 20 -16.5 40 t-17.5 39zM24 55l3 -9l5 12q5 14 18.5 28t24.5 24q88 76 164.5 162t145.5 179l-12 5q-50 -61 -97.5 -122t-100.5 -119q-19 -21 -39 -39.5t-39.5 -37.5t-38 -39.5t-34.5 -43.5zM36 40l21 -53l3 -4q14 -8 31.5 -13.5t36.5 -8.5t38 -5q12 -1 25 -2q-31 5 -61 15q-35 12 -70 19 l-18 49q2 12 20.5 32.5t42 43.5t46 45t33.5 36q-9 -11 -32.5 -31t-48 -42.5t-43 -43t-18.5 -31.5zM53 -37l4 4q27 -12 55 -18q25 -6 51 -12q-26 5 -52 11q-29 7 -58 15zM157 34q32 -7 64 -12q31 -5 62 -8q-31 4 -60 11t-61 14z" />
<glyph unicode="[" horiz-adv-x="375" d="M50 21h10q-1 17 -1.5 33t-0.5 33q0 78 5 154.5t5 154.5q0 29 -1 56.5t-3 56.5l-4 -3l-2 2q0 -60 -2 -119q-2 -45 -4 -91q2 120 1 239q0 132 6 267q25 1 49 2.5t49 1.5q45 0 89.5 -5.5t89.5 -5.5l-2 -6q1 -4 2 -8.5t1 -8.5q0 -9 -10.5 -11t-15.5 -2l-31 1v-11q7 -1 21 -4 t28 -8t25 -12t11 -16q0 -11 -14 -15.5t-35.5 -6.5t-46 -2.5t-46 -2t-35.5 -6.5t-14 -15v-193q0 -112 -1.5 -223.5t-9.5 -224.5q26 3 51.5 8.5t51.5 5.5q5 0 16.5 -3.5t11.5 -8.5q0 -3 -15 -6t-36 -6t-44 -6q-20 -2 -34 -3q31 2 62 6q33 4 65 6l1 -16q10 2 21 2q15 0 29 -4.5 t14 -16.5q0 -11 -13.5 -19.5t-21.5 -13.5h-6q-48 0 -94.5 -7t-94.5 -7h-6l-52 1q2 90 6 179q5 85 5 171q-2 -87 -6 -171q-3 -89 -8 -180l34 -2q17 -1 34 -1q44 0 87 4.5t87 4.5q-19 -10 -41.5 -15.5t-46 -8.5t-47 -4t-44.5 -1q-20 0 -39.5 1t-39.5 2v108zM52 272v26v-26z M110 2l21 -5l-2 6zM141 128q0 -20 0.5 -41t0.5 -41v-26q3 59 5 117t6 117q-8 -32 -10 -63.5t-2 -62.5z" />
<glyph unicode="\" horiz-adv-x="490" d="M50 642q0 6 2 11.5t10 5.5q12 -38 29 -74.5t35.5 -72t37.5 -71.5l34 -66q-15 33 -32 66q-19 36 -37 71.5t-34.5 71.5t-27.5 75l16 5l-7 21q1 9 5.5 18t15.5 9q9 0 17 -4.5t15 -9.5q10 -41 28 -83.5t40 -84.5t46 -83q23 -39 44 -74q-20 36 -42 73q-23 39 -44.5 79 t-38 81.5t-23.5 83.5q11 -9 20.5 -25t18 -34t16 -36t14.5 -31l-9 -10q22 -34 41.5 -69t38.5 -70t38.5 -70t41.5 -69l5 3q-35 69 -75 134.5t-75 134.5q17 -32 40.5 -70t48.5 -80.5t49.5 -87t44 -88t31.5 -84.5t12 -76q0 -25 -3.5 -49.5t-6.5 -49.5q-3 1 -5.5 1.5t-5.5 0.5 t-6 -0.5t-5 -0.5q-5 0 -8.5 3t-3.5 14v4l1 19h-11q-2 -7 -5 -15.5t-8 -16.5t-12 -13.5t-15 -5.5q-12 0 -18.5 16.5t-9.5 38t-4 42.5t-2 29q-6 34 -27.5 84.5t-51 107t-61.5 115.5t-59.5 110t-45 90t-17.5 56zM198 375q1 -3 3 -5q-1 2 -3 5z" />
<glyph unicode="]" horiz-adv-x="416" d="M10 -32q0 6 5 11t12.5 8.5t14.5 6t12 4.5l96 -16q48 -8 97 -10l-1 3q-45 2 -87.5 11t-85.5 17q12 2 24 3.5t24 1.5q31 0 61.5 -3.5t60.5 -9.5q-9 24 -14 58.5t-8 71.5t-4 73t-1 62q0 78 4.5 156t4.5 156q0 19 -0.5 37t-1.5 37q-45 0 -89.5 5.5t-89.5 5.5v4q0 7 -1 11.5 t-1 7.5q0 9 12 11t21 2h4l24 -1v11q-7 1 -22 3.5t-30.5 7.5t-27 11.5t-11.5 15.5q0 11 25 17t57 9t62 3.5t39 0.5q35 0 70.5 -0.5t70.5 -1.5q5 -57 8.5 -113t3.5 -113q0 -86 -6.5 -171t-6.5 -171q0 -39 4 -77t9 -76.5t10.5 -76.5t7.5 -76q-23 -4 -45.5 -7.5t-45.5 -3.5 q-8 0 -25.5 0.5t-40.5 1.5t-47.5 3t-44.5 5.5t-33.5 8t-14.5 11.5l2 5q42 -5 83 -9q41 -5 82 -7q-41 3 -81 9t-81 12l5 11q-5 1 -16.5 4t-23 7.5t-20.5 10t-9 11.5zM219 246q0 -8 0.5 -29t2 -48.5t3.5 -57.5t5.5 -55t8.5 -42t12 -19q-10 52 -17 103.5t-7 104.5q0 66 2 130 t2 130h-5q-2 -54 -4.5 -108.5t-2.5 -108.5zM240 227q0 -8 0.5 -27.5t1.5 -45t2.5 -52.5t4.5 -50.5t7.5 -39t10.5 -17.5q-12 70 -19 140t-7 142q-1 -13 -1 -25v-25zM247 -25l3 -4l26 1zM317 169q0 -57 10.5 -113.5t15.5 -113.5q-5 63 -14.5 126t-10.5 127q-1 -7 -1 -13v-13z " />
<glyph unicode="^" horiz-adv-x="642" d="M50 510q0 9 9 25t23.5 35.5t32 40.5t34 41t30 36.5t20.5 26.5l117 181l80 -7q3 -37 9 -67.5t18 -60t32.5 -61t53.5 -69.5q5 -6 15 -14t20 -17t18.5 -17t10.5 -14l-4 -10q-27 15 -52 38t-47 50t-39 57q-16 28 -28 57q11 -29 27 -57q18 -30 39 -57.5t45.5 -51.5t50.5 -40 l-8 -14q11 -3 23 -11t12 -22t-14 -19t-25 -6q-36 18 -65.5 44t-53.5 57t-45 64.5t-41 67.5l-2 -4q35 -66 80 -127.5t110 -101.5q-22 0 -42.5 12t-38.5 29.5t-33.5 37.5t-27.5 36l8 7q-20 21 -35.5 44.5t-29.5 48.5l-3 -5q10 -22 22 -41l24 -38q-13 18 -25 37t-23 40 q-43 -68 -95 -126.5t-111 -113.5l-19 23l21 28l-8 8q-11 -8 -23 -13t-26 -5q-8 0 -14.5 4.5t-6.5 13.5zM283 642l3 -7l49 68l-4 7zM340 725l4 -8l2 3l-5 8z" />
<glyph unicode="_" horiz-adv-x="590" d="M50 -159q0 11 7 17.5t17.5 9.5t21.5 3.5t19 0.5q48 0 96.5 4.5t96.5 4.5q8 0 28 -1.5t45 -4t51.5 -6.5t48.5 -9t36.5 -11t14.5 -12q0 -3 -2 -9q-42 13 -85 19q-42 5 -84 12q41 -10 82 -16q43 -6 85 -20l-4 -16q8 0 12 -6t4 -13q0 -11 -7 -19.5t-15 -16.5q-12 7 -28.5 13 t-34.5 10.5t-36 6.5t-33 2h-5l-44 -1q22 -2 44.5 -2.5t45 -3.5t44 -10t40.5 -20l-17 -7q-14 0 -22 5t-22 7l-11 11q-29 0 -57 3.5t-57 3.5q-24 0 -46 -6v-6q-43 -2 -85 -5t-85 -6q-11 5 -23.5 7.5t-24.5 2.5q0 2 0.5 3.5t0.5 3.5q0 8 -2 18l13 11l7 -1v11q-11 5 -20.5 14.5 t-9.5 23.5zM304 -240q10 1 20 1h20q23 0 46 -1.5t46 -6.5q-32 4 -65 5.5t-67 1.5z" />
<glyph unicode="`" horiz-adv-x="273" d="M20 751q2 5 3 11.5t2 12.5q2 9 8 9q1 0 5 -2l4 10q-6 8 -9 18t-3 18q1 5 2 10.5t4 8.5q3 1 9 4t11 3q28 0 56 -17t52 -40.5t42.5 -48.5t27.5 -40q3 -6 11 -7t8 -7q0 -8 -4 -16q-22 11 -36.5 27.5t-28.5 39.5q11 -24 28 -42t34 -29q-2 -4 -3.5 -7.5t-2.5 -8.5q5 0 6 -4.5 t1 -9.5q0 -13 -6.5 -23.5t-14.5 -15.5l-4 3q-30 25 -53 46.5t-48 46.5q17 -23 41.5 -48t56.5 -52q-8 -5 -16 -5q-5 0 -11.5 4t-13 9.5t-12.5 11.5l-10 10l7 8q-14 7 -24 18t-18 22t-17 20.5t-21 14.5q0 -2 -4 -4q20 -15 36 -35q16 -19 36 -40q-14 14 -33 32q-21 20 -41 38 t-35.5 31t-21.5 15zM151 635q2 -2 4 -3q-2 1 -4 3z" />
<glyph unicode="a" horiz-adv-x="680" d="M80 507q0 5 12.5 14t35.5 17t55.5 15t72.5 7q77 0 132 -23.5t92.5 -62t61 -87.5t38 -98.5t21.5 -96t13 -80.5q0 -6 0.5 -12t0.5 -14q0 -29 -10.5 -50.5t-29 -36t-43 -22t-52.5 -7.5q-22 0 -57 1t-67 6q-21 5 -46 7.5t-51 8.5t-50.5 17t-44 33.5t-31 58.5t-11.5 91 q0 52 24 83.5t57.5 49t68.5 23t57 5.5q28 0 37 -4t9 -8q0 -3 -1 -5q-25 0 -64 -2t-75.5 -13t-62.5 -33.5t-26 -63.5q9 37 30.5 58.5t49.5 32t57.5 13t53.5 2.5h34q-4 -4 -4 -8t4 -7h39q16 -3 23 -10.5t7 -13.5q0 -9 -9 -16t-30 -14q-27 0 -40.5 1t-24.5 1q-30 0 -53 -3 t-39 -12t-24 -26t-8 -45q0 -41 9.5 -60.5t27 -28t42.5 -10.5t56 -9q18 -2 36 -2.5t36 -0.5h72q-50 3 -99.5 3.5t-89 8.5t-64 28t-24.5 61q0 33 8.5 50.5t23 26t34.5 10t43 1.5q28 0 57 -4q-23 -7 -46.5 -10t-43.5 -6.5t-34.5 -9t-19.5 -15.5v-45l-8 -4q4 -25 7.5 -37.5 t19.5 -19t51.5 -10.5t103.5 -13h72q19 0 22.5 1.5t4.5 1.5l-9 54q-2 20 -5 36t-8 34q-1 -3 -6 -3q5 -17 8.5 -36t6 -36t4 -29t3.5 -14l-6 -2q-2 -1 -6 -1h-6q-7 0 -16 1.5t-23 1.5h-33q-39 0 -72 4q-31 4 -54 10q23 -5 56 -8q35 -4 65 -4q13 0 27.5 0.5t31.5 0.5h33 q-3 3 -7 3h-2q-4 69 -18 132t-45 110.5t-81 76t-125 28.5q-21 0 -42 -3t-43 -8q2 2 2 4q0 5 -4 9.5t-4 9.5q0 6 12.5 11t53.5 11q-2 2 -2.5 6t-0.5 6q-54 0 -84 2.5t-30 14.5zM187 47q19 -17 46 -27q28 -11 57.5 -17t58.5 -8q29 -3 54 -3q-20 2 -40 7q-21 5 -37 9 q-17 4 -33.5 5.5t-34 4.5t-35.5 9.5t-36 19.5zM239 127l4 -2q-1 1 6 -6q6 -6 16 -9q-5 2 -15 5q-11 4 -11 12zM265 110h3h-3z" />
<glyph unicode="b" horiz-adv-x="646" d="M50 504q1 20 2.5 44t3 49.5t2.5 50.5t1 48q0 8 -0.5 15.5t-0.5 14.5q3 -3 6 -3q4 0 8.5 2.5t8.5 2.5q3 0 6 -3t5.5 -11t3.5 -23.5t1 -39.5h9q4 55 14.5 86t21.5 31q13 0 18.5 -32t8.5 -80.5t5 -106t8 -108.5q11 -59 18 -125.5t9 -129.5q0 -47 -1 -67t-3 -29v-27l34 3 q32 0 66 3.5t57 11.5q42 7 65.5 20.5t35.5 29.5t15 34t3 34q0 31 -4.5 59.5t-17.5 53t-38 45t-65 36.5q-44 17 -63.5 20t-19.5 12q0 1 2 7q42 -2 84 -20q39 -17 71 -43q-31 26 -69 43q-41 19 -83 23q3 4 3 10q0 3 -3 8h-17q-7 0 -15 -1t-13 -2q-24 2 -33.5 7t-9.5 12 q0 10 16.5 20t32.5 15h17q58 0 115 -20.5t102 -57.5t72.5 -88.5t27.5 -112.5q0 -65 -18 -108.5t-51 -71.5t-79 -43.5t-102 -25.5q35 3 78.5 13t82 35.5t64.5 71t26 119.5q0 91 -51 164t-152 110q-25 11 -51.5 17.5t-53.5 6.5q9 5 24 5.5t24 0.5q39 0 80.5 -16t78.5 -44 t65.5 -65.5t42.5 -79.5q-5 -2 -9 -8q8 -25 12 -49t4 -49q0 -28 -4.5 -56t-18 -55t-38 -51t-64.5 -43t-98 -31.5t-138 -16.5q-5 -3 -14 -3.5t-18 -0.5h-14q-15 0 -31 5.5t-29 19t-21 36t-8 56.5v11q-1 -4 -3 -4q-3 0 -3 2v-5q0 -18 2 -40.5t11.5 -42.5t30 -33.5t58.5 -13.5 q9 0 18.5 0.5t20.5 3.5q73 3 139.5 16t117.5 42.5t81 80.5t30 131q0 26 -4 53q1 -11 3 -21q2 -16 2 -32q0 -22 -2.5 -50t-13 -57t-30.5 -57t-56 -49q-37 -22 -76.5 -34.5t-75 -19t-64 -8t-42.5 -1.5h-12q-9 0 -18.5 -1.5t-20.5 -1.5h-5q-9 0 -22.5 2t-28 10t-26.5 25.5 t-17 49.5q-2 11 -3 22t-3 20q0 20 3 37.5t3 28.5v183zM430 369q2 -1 3 -3q-2 1 -3 3zM460 98q26 18 34.5 46t8.5 71q0 7 -1 13q0 5 -1 11v-11q1 -5 1 -10q0 -46 -11 -75t-31 -45zM589 281l1 -4zM590 273v3v-3z" />
<glyph unicode="c" horiz-adv-x="575" d="M50 217q0 63 23 118t61 95.5t87.5 64t102.5 23.5q9 2 22.5 2.5t22.5 0.5q32 -7 64.5 -17t64.5 -28q-4 -2 -5.5 -5.5t-2.5 -8t-3.5 -7.5t-8.5 -3q-5 0 -15 3t-28 9q-3 -3 -3 -9q24 -12 33 -27.5t9 -29.5q0 -7 -15 -12q-13 0 -40.5 5t-61.5 5q-15 0 -33 -1.5t-36 -6 t-34 -13t-26 -22.5q-12 -16 -22 -36t-18 -40.5t-12.5 -39.5t-4.5 -34q0 -14 13 -31.5t33.5 -33t47 -26.5t53.5 -11q13 0 31.5 4t38 9.5t38.5 9.5t32 4q12 0 15.5 -2.5t3.5 -9.5q-23 -8 -48 -16q-16 -5 -31 -10l31 8q24 7 48 15q0 -5 0.5 -9t5.5 -9l10 4q8 3 17 8 q20 0 27.5 -4t7.5 -12q0 -5 -1.5 -8.5t-4 -7t-6.5 -8.5t-8 -14q-44 -18 -90.5 -28t-94.5 -10q-44 0 -86 10t-77 32t-61.5 57.5t-40.5 85.5q3 -44 24 -75.5t52.5 -54t69.5 -36.5t73 -23q5 -1 14 -1q59 0 107 10t98 21q-16 -13 -38.5 -22.5t-49 -16t-55.5 -10t-58 -3.5h-11 q-5 0 -10 1l-7 13q-36 4 -75 18t-71.5 39.5t-54 62.5t-21.5 86q0 41 11 80t29 76q-1 -1 -3 -1q-3 0 -3 4q-18 -36 -30.5 -74.5t-12.5 -83.5q0 -48 22 -85t52.5 -62.5t62.5 -41.5q29 -14 48 -20q-31 9 -63 26q-34 18 -61.5 45.5t-45.5 64t-18 80.5zM162 173q8 -18 24 -34.5 t36.5 -29t43.5 -20.5q22 -8 44 -9q-20 2 -42 10q-23 8 -43.5 20.5t-37 28.5t-25.5 34zM238 1q2 -1 4 -1q-2 0 -4 1zM392 89q3 1 6 1q-3 0 -6 -1z" />
<glyph unicode="d" horiz-adv-x="658" d="M50 325q0 37 11.5 75.5t41.5 69.5t81 50.5t129 19.5q36 0 70 -2t69 -3q-4 -3 -4 -7q0 -5 2 -8.5t2 -7.5q0 -5 -7.5 -8.5t-31.5 -3.5q-8 0 -18.5 0.5t-23.5 1.5v-9q48 -7 77.5 -18.5t36.5 -20.5l2 -2l4 44q3 27 3 61q0 35 -2 69t-2 53q0 24 3 32t8 8q4 0 6.5 -17t4 -38.5 t1.5 -42.5v-29q0 -29 -1 -58.5t-3 -58.5q3 38 5 74.5t2 74.5q0 23 -1 45.5t-3 45.5q6 -6 9 -6q4 0 6 6q-1 8 -2 17q-1 8 -1 16v15q5 12 13 18.5t14 6.5q17 0 30 -37l-3 -21q2 -29 3 -56.5t1 -56.5q0 -60 -3.5 -120.5t-8.5 -122.5t-10 -127t-9 -135q0 -11 -0.5 -22.5 t-2.5 -25.5v-12q0 -3 -2 -8t-4 -7q-13 -15 -23.5 -22.5t-19.5 -11t-17 -4t-16 -1.5h6q3 0 11.5 1t19 3.5t20 7t13.5 12.5l9 18q6 11 7.5 23.5t2 25t0.5 24.5t2 23q3 63 8.5 126t10.5 127t9 129.5t4 133.5q0 21 -0.5 40.5t-1.5 37.5q3 -4 6 -12.5t6 -26.5q5 -11 6 -24t3 -27 q0 -68 -5 -131.5t-10 -126.5l-9 -3l-9 -171q0 -72 -6.5 -118.5t-11.5 -61.5v-3q-15 -15 -25.5 -22.5t-19.5 -11.5t-16.5 -4.5t-15.5 -0.5h-64q-23 3 -49 3q-4 -1 -9 -1h-4q-29 0 -61 7q-34 7 -69.5 29t-71.5 70q0 -2 -1 -3t-2 -3q33 -45 79.5 -74t100.5 -34h84 q12 -2 24.5 -2.5t27.5 -0.5t39.5 4t46.5 26q4 5 5.5 7.5t3.5 7.5l3 6q5 9 7.5 18.5t4.5 18.5q0 -11 -1.5 -19t-7.5 -24l-3 -3l-12 -18q-9 -9 -20 -14t-21 -7.5t-18.5 -3.5t-12.5 -2h-33q-13 0 -21.5 0.5t-13 1t-7.5 1.5h-30q-9 0 -18 -0.5t-19 -0.5q-47 0 -91.5 22.5 t-82 63.5t-66.5 97t-44 124q0 11 -1.5 21t-1.5 21zM170 343q0 -33 14 -74t37 -77.5t52.5 -62.5t61.5 -29h57q5 0 7.5 -0.5t7.5 -2.5h24q15 -3 30 -3q0 84 7.5 172.5t16.5 173.5q-13 -10 -69 -10q-33 -2 -74.5 -4t-78.5 -10.5t-63.5 -25.5t-29.5 -47zM478 91l1 -2q1 9 2 18.5 t1 19.5v3zM482 137q1 4 1 8t2 9v11q-1 -2 -1 -3.5t-1 -2.5l-1 -2v-20zM485 175q11 56 13 118t5 119q-5 -48 -7.5 -94.5t-7.5 -94.5q0 -11 -1.5 -22.5t-1.5 -25.5zM575 68q0 5 0.5 9.5t0.5 9.5q0 8 -1 15t0 13q0 11 1 22.5t3 24.5q-1 -30 -1 -56.5t-3 -37.5zM579 164 q0 20 1 40.5t3 37.5l-2 -43q0 -9 -0.5 -18t-1.5 -17zM584 252l4 61l2 -36q-2 -5 -3 -11.5t-3 -13.5z" />
<glyph unicode="e" horiz-adv-x="573" d="M50 235q0 66 22 131t69 120q60 55 131 84.5t137 29.5q21 0 43 -7t40 -21.5t29.5 -37.5t11.5 -56q0 -27 -13 -66t-38.5 -75.5t-63.5 -62t-88 -25.5h-33q-37 8 -67.5 18.5t-57.5 16.5q-4 -16 -4.5 -30.5t-0.5 -28.5q0 -29 6.5 -56.5t20.5 -50.5t35.5 -38.5t52.5 -19.5 q19 -4 33 -5t23.5 -1t14 -2.5t4.5 -9.5q-10 -3 -20.5 -4t-21.5 -1q-35 0 -63 11.5t-48 26.5q23 -23 55 -32.5t63 -9.5q17 0 35 3q-2 -6 -2 -7q0 -6 5 -8q4 1 14 5.5t20.5 9t20.5 8t14 3.5q5 0 9 -1.5t4 -11.5t-7 -24t-21 -28q-38 -13 -58 -14.5t-35 -2.5q-56 0 -101 21 t-77 57t-49.5 84.5t-17.5 103.5q0 32 6 66.5t18 68t31 62.5q18 29 43 52q-26 -21 -44 -50q-19 -29 -32 -62.5t-19 -69t-6 -68.5q0 -42 13.5 -89.5t43.5 -88t77.5 -67.5t115.5 -27q32 0 67 9q-38 -25 -85 -25q-38 0 -71.5 11.5t-62 32t-51.5 48.5t-39 60l9 8q-17 34 -24.5 68 t-7.5 69q0 51 14.5 98t38.5 89l24 33q6 11 17.5 22t25.5 21.5t29.5 19t29.5 15.5q36 18 72 32.5t84 21.5l-4 3q-92 -9 -156 -44.5t-104 -86.5t-58 -111.5t-18 -118.5q0 -31 5.5 -62.5t16.5 -62.5q-25 60 -25 127zM178 107q9 -17 24 -30l-14 16q-6 7 -10 14zM181 319l49 -15 q2 2 2.5 6t0.5 6l-47 17zM218 388q15 -3 29.5 -5.5t28.5 -4.5l22 -4q11 -2 20 -2q10 0 23.5 6.5t27 18.5t24 30t15.5 41l2 6q-14 0 -42 -7t-58 -18.5t-56 -27t-36 -33.5z" />
<glyph unicode="f" horiz-adv-x="520" d="M50 -182l6 24l12 15q22 26 39 50t29.5 50.5t22 57.5t17.5 72q-5 -24 -12.5 -49t-16.5 -48t-19.5 -42.5t-23.5 -32.5l-42 -52q8 24 20 44.5t25 43.5t25 51t20 67l9 1q8 54 10.5 106.5t2.5 107.5q0 39 -0.5 79t-1.5 82q-2 -1 -5 -1h-5q1 -53 3.5 -103t2.5 -99q0 -42 -4 -83 q-3 -39 -12 -78q8 35 10 71q3 37 3 75q0 52 -3 106t-4 111q-6 -1 -14 -1.5t-25 -0.5q-23 9 -45 9v4q0 4 -0.5 8.5t-0.5 9.5q0 12 11 12l8 11q-14 5 -21 16t-7 22q0 15 10 21t25 9q13 2 26 2h6q17 -1 31 1q4 39 13.5 82.5t28.5 85.5t49.5 79t75.5 63q43 26 89.5 31.5 t89.5 5.5h19q9 0 18 -1l1 -21q0 -4 -2 -7t-8.5 -4.5t-19.5 -2.5t-34 -1q0 -2 0.5 -5.5t2.5 -3.5q42 -3 63.5 -18t21.5 -23q0 -9 -19.5 -14t-48 -10.5t-61 -13.5t-58.5 -23q-82 -57 -94 -187q22 2 44.5 6t43.5 4q8 0 18 5t18 5q5 0 7.5 -2.5t7.5 -10.5q-24 -13 -46 -18 q10 2 22 4.5t24 7.5q2 -5 3 -9t3 -6q1 0 3 1q4 2 6 2q11 -4 16.5 -14t5.5 -20q0 -5 -0.5 -9.5t-3.5 -7.5q-45 -8 -87 -16.5t-90 -15.5v-1q43 3 86 12.5t88 11.5q-5 -12 -25.5 -20.5t-36.5 -8.5t-16 8q-24 -10 -48 -12l-48 -4v-8q24 4 47 7q20 2 41 6q-44 -10 -88 -16v-78 q-3 -51 -3 -104t-3 -105.5t-12 -104t-30 -100.5q-9 -27 -22 -54.5t-26.5 -50t-26 -36.5t-21.5 -14q-4 0 -6 5q16 23 34 48t32 54q11 28 19 54t15 54q-16 -59 -43 -110.5t-60 -93.5q-2 5 -5 7t-10 2l-18 -27q-20 -21 -32 -21q-8 0 -12 9t-4 24zM179 99l6 37q4 22 7.5 45.5 t3.5 47.5q0 38 -5 77q-4 36 -6 71q1 -33 2 -65q2 -35 2 -69q0 -37 -2.5 -72.5t-7.5 -70.5v-1zM237 37q17 71 21 142q5 69 5 136q-2 -67 -6 -135q-3 -69 -20 -143zM288 562q9 -3 21 -3q14 0 28.5 3t27.5 6q-20 -2 -38.5 -4t-38.5 -2zM373 476q3 1 7 2q-4 -1 -7 -2z" />
<glyph unicode="g" horiz-adv-x="625" d="M50 363v9q0 61 22 105.5t60.5 72.5t90.5 41.5t112 13.5q70 0 142 -19q-6 -2 -6 -7q0 -4 1.5 -7.5t1.5 -7.5v-2q-3 -5 -14 -5t-32 3t-59 8v-12q34 -4 58 -12.5t39 -18.5t21.5 -19t6.5 -15q0 -4 -4.5 -5.5t-9.5 -1.5q-11 0 -39.5 4t-71.5 4q-41 0 -77 -5t-62.5 -19 t-41.5 -39t-15 -65q0 -33 10.5 -63t26 -53t34.5 -36.5t37 -13.5q12 0 29.5 17t37 42t37.5 53t31 50l28 -8v2l-26 8l17 29l117 -36q0 -33 3.5 -67.5t8 -70.5t8 -73.5t3.5 -75.5q0 -51 -9 -103t-29.5 -99t-54 -87t-83.5 -66q-27 -18 -69.5 -33.5t-83.5 -17.5h-12 q-40 0 -67 8.5t-43 19t-22.5 20t-6.5 11.5q0 4 4 4q31 -23 67 -33t72 -10q61 0 113 24q50 24 90 60q-40 -35 -91 -58q-52 -23 -111 -23q-35 0 -68.5 10t-62.5 33q3 0 7 1.5t4 5.5l-8 7q-7 7 -16.5 18t-17 26t-7.5 32t13 17q10 0 23 -13t31 -28.5t43.5 -28.5t60.5 -13 q50 0 90 19.5t70 53.5q-29 -32 -67.5 -50t-87.5 -18q-30 0 -56.5 10t-42.5 27q17 -5 42.5 -11t55.5 -6q54 0 95.5 27.5t71.5 69.5l14 -2q23 40 32.5 85.5t9.5 95.5q0 34 -3 69t-8 71l-5 -7q5 -35 7.5 -68.5t2.5 -65.5q0 -40 -8 -79.5t-25 -72.5q17 35 24 74.5t7 84.5 q-5 26 -5 52t-2 52l-2 20q-7 -10 -21 -28t-33 -35.5t-42.5 -30.5t-49.5 -13l-25 -3q-53 0 -95 27t-72 68.5t-46 91t-16 95.5q-1 5 -1 8zM288 82l7 -3q30 4 55 17.5t44.5 31.5t34.5 37t26 33l-2 12q-9 -13 -21.5 -29t-23.5 -30q-10 -10 -22 -21.5t-26.5 -21t-32.5 -17 t-39 -9.5zM447 -107q17 36 27 79q11 44 11 90q0 23 -1.5 47t-3.5 48l-5 59l-5 -6q4 -39 7.5 -78t3.5 -78q0 -44 -9 -86q-9 -40 -25 -75zM475 -195q40 46 57 104q18 60 23 119v32q0 53 -4.5 103t-10.5 99q4 -46 9 -91.5t5 -93.5q0 -33 -3.5 -69.5t-12.5 -72.5t-25 -70 q-15 -32 -38 -60z" />
<glyph unicode="h" horiz-adv-x="607" d="M62 27q0 8 2 16t3 13q8 48 12.5 91t7.5 91q0 94 -4.5 170.5t-4.5 150.5q0 63 6 113t6 104q0 38 -3 77l23 4q3 0 6 -3.5t5 -14t3.5 -29t1.5 -47.5h12q2 68 9.5 108t18.5 40q10 0 17 -21.5t11.5 -57.5t7 -82t2.5 -95v-126q20 22 50.5 40t67.5 18q54 0 91.5 -26.5t62.5 -65 t38.5 -82t19.5 -76.5q5 -20 9.5 -45t7.5 -51t4.5 -52t1.5 -48q0 -3 -0.5 -16.5t-2.5 -28.5t-6 -27t-11 -12q-2 0 -3 1q2 23 3 45t1 45q0 53 -7 105q-6 48 -18 97q10 -44 15 -87q6 -46 6 -92q0 -55 -6 -107q-10 -4 -14.5 -19t-8.5 -32t-10.5 -30.5t-20.5 -13.5q-5 0 -8.5 6.5 t-6.5 16t-4.5 21t-1.5 21.5q0 7 2 12t4 12q4 24 5.5 48.5t1.5 50.5q0 30 -3 67t-10 75t-18 73.5t-27.5 63t-38.5 44t-50 16.5q-22 0 -39.5 -18.5t-31 -47t-23 -63t-16.5 -65.5v-5q6 31 15.5 63t24 59.5t34.5 47.5t47 26q24 0 43 -17t33.5 -44.5t25 -62t17 -68.5t9.5 -64.5 t3 -50.5q0 -32 -3 -63.5t-8 -61.5q-5 43 -7 90t-7 93t-15 90.5t-31 83.5l9 3q-9 17 -16.5 25t-14 12t-14.5 7.5t-18 12.5h-15q-34 0 -61 -64t-50 -180l-3 -63q6 41 15.5 93.5t23 99t32 78t43.5 31.5q11 0 26 -7t31 -28q-14 16 -28 24t-25 8l-7 -1q-20 0 -35 -25t-27.5 -64.5 t-21.5 -90t-17 -101t-14.5 -97t-13.5 -78.5q-3 -8 -3 -12q0 -3 2 -9l-119 19v4q-7 0 -7 12zM69 35q2 -16 3.5 -18.5t4.5 -4.5l92 -15q6 2 7.5 6t3.5 4l7 53l-16 -50l-3 -6q-17 1 -33 4q-14 2 -29.5 4.5t-27.5 4.5q-3 9 -3 13q0 1 0.5 2t0.5 2zM204 494q9 13 20.5 25.5 t25.5 22t32 15.5t41 6q45 0 80.5 -26t61.5 -64q-11 17 -23.5 33t-30.5 29q-20 14 -43 22.5t-48 8.5q-40 0 -69 -21.5t-47 -47.5v-3zM511 357l2 -7z" />
<glyph unicode="i" horiz-adv-x="326" d="M55 85q0 20 1 33.5t3 31.5l11 10q-1 5 -1 9v10q0 23 5 52.5t11.5 60t11.5 59t5 49.5l-12 3q-2 -24 -6 -54.5t-8.5 -63t-8.5 -64.5q-2 -17 -4 -32q2 28 5 60q5 46 10.5 91.5t10.5 89.5t10 81q0 15 7.5 32.5t10.5 36.5q6 -2 10 -2h7q10 0 13 -4.5t3 -12.5v-5l9 -3 q8 15 19 24t22 9q24 0 24 -51q0 -27 -5.5 -57.5t-5.5 -59.5v-13q0 -32 -7 -69.5t-15.5 -76t-15.5 -74.5t-7 -66q0 -7 1 -15t1 -15q0 -15 -5.5 -18.5t-13.5 -3.5q0 13 -1 32t-1 34q-2 -11 -2 -30t-2 -36h-15v-12q-9 -16 -24 -16q-7 0 -16 4t-14 9q4 28 7.5 65.5t6.5 75.5 t6 74.5t6 63.5q-5 -27 -9 -62t-8 -72t-8 -73.5t-7 -65.5q-15 10 -15 27zM61 165l2 22q-1 -12 -2 -22zM122 795q0 10 8.5 19.5t20 16.5t22.5 12t16 7q4 0 3 4.5t3 4.5l18 -6q-2 -5 -12.5 -16.5t-15.5 -16.5q7 5 16.5 15t14.5 15q5 -2 9 -4t6 -2l3 3q7 0 15.5 -3t15.5 -7 t12 -9t5 -8q-17 -10 -31 -26t-29 -31q9 6 16 13t14.5 14t16 14t19.5 13q3 -4 5.5 -7t2.5 -6l-23 -23q0 2 -3.5 4t-5.5 2q-3 -10 -10 -16t-14 -11t-14 -11t-10 -16v-2q0 -1 3 -1l50 47l-19 -19q-14 -14 -29.5 -28.5t-29 -25.5t-16.5 -11l-1 1q-7 2 -14.5 2t-15.5 1 q0 8 -2.5 17t-2.5 14t5 5q0 3 -3.5 9.5t-7.5 15t-7.5 18t-3.5 19.5z" />
<glyph unicode="j" horiz-adv-x="338" d="M-140 -145q0 17 5.5 22t8.5 5l5 -1q0 -16 1.5 -35.5t6 -39t13.5 -36.5t23 -28q-13 11 -21 28t-12.5 36.5t-6 38.5t-1.5 33h18v30q6 14 12 19t12 5q11 0 17 -9.5t13 -23.5l-1 -24q-1 -8 -1 -15q0 -65 26 -69q-9 3 -15 21t-6 46q0 15 3 29l23 -76q-1 0 3 1t7 4l9 -10 q63 37 93 101t30 160q0 39 -3 81l-3 -2q0 -56 -3.5 -106t-15 -92t-33.5 -74q-21 -31 -55 -51q34 22 55 53q21 32 32 69.5t14 78.5t3 81q0 21 -0.5 41.5t-0.5 40.5q0 32 1.5 62.5t1.5 64.5q0 33 -0.5 66t-0.5 65q4 10 8.5 29.5t10 39t10.5 34t9 14.5q8 0 16 -3t8 -16 q0 -6 -0.5 -11t-0.5 -13h9q11 32 23 45.5t23 13.5q16 0 16 -41v-8q0 -79 -5.5 -172t-5.5 -183q0 -15 0.5 -31t0.5 -32q0 -43 -5.5 -99t-24 -111.5t-53.5 -103.5t-94 -75q-17 -8 -35.5 -15t-41.5 -7q-41 0 -65.5 21t-38 47.5t-17.5 52t-4 34.5zM0 -206q14 2 27 10t26 17 q18 13 32 33t24 43t16.5 48t8.5 50q-11 -72 -42.5 -123.5t-91.5 -77.5zM47 -260q54 25 90 70.5t56 98.5q-23 -50 -58.5 -96.5t-87.5 -72.5zM115 778q0 8 7 19.5t17 23t20 20.5t16 12q18 3 36.5 13.5t29.5 10.5q2 -2 4.5 -6t4.5 -6q-5 -5 -11 -7.5t-13 -7.5l27 9q4 -8 12 -12 q14 -8 20.5 -23.5t12.5 -21.5q-19 0 -37 -9.5t-26 -17.5q12 6 26 13.5t37 7.5q0 -14 -18 -21l-9 9q-3 -7 -9.5 -10t-12.5 -5.5t-11 -6t-6 -11.5l3 -3q13 17 42 27l-57 -51l-12 -3q-4 3 -15 9t-12 12h-1q-3 0 -13.5 2.5t-22 7t-20.5 11.5t-9 15zM194 841q10 0 17 2q8 2 15 7 q-7 -2 -15.5 -4.5t-16.5 -4.5z" />
<glyph unicode="k" horiz-adv-x="590" d="M60 137q0 12 0.5 26t1.5 31l15 20q-1 14 -1 27v28q0 52 2 103.5t2 104.5v27q0 12 -1 23t-2 23.5t-3 27.5h-3q0 -17 0.5 -31t1 -27.5t0.5 -27.5v-30q0 -122 -9 -245q2 44 3 86.5t1 85.5q0 45 -1 87t-1.5 83.5t-1.5 84.5t-1 90q0 26 2 47t5.5 41.5t7 42.5t6.5 51l22 -1 q6 0 10.5 -4.5t4.5 -19.5q0 -5 -0.5 -10t-1.5 -12h10q8 30 20.5 46.5t23.5 16.5q14 0 19.5 -25.5t5.5 -73.5q0 -19 -0.5 -34t-1.5 -30t-1.5 -31.5t-0.5 -37.5q0 -26 1 -49t2.5 -45t2.5 -44.5t0 -47.5v-146q31 13 65.5 42t64.5 63t53 68t32 57q3 -4 8 -5l10 -2q5 -1 9 -3.5 t4 -8.5q0 -5 -2.5 -12.5t-9.5 -18.5l10 -7q16 22 32 35.5t27 13.5q15 0 15 -25q0 -33 -15.5 -65.5t-39.5 -61t-54.5 -53.5t-60.5 -43q54 -37 94 -87.5t63 -103.5q6 -10 15 -24t18 -29t15.5 -29.5t6.5 -24.5q0 -13 -4 -15t-9 -2q-14 40 -34 73q-18 31 -36 61q17 -31 34 -61 q18 -33 29 -73q-5 0 -9 -1t-7 -6q1 -5 2 -9q2 -9 5 -14q-4 -16 -10 -21.5t-13 -5.5q-8 0 -19.5 6.5t-15.5 10.5v10q-7 26 -21 54q-13 28 -30 56q16 -28 26 -57q11 -29 15 -56q-11 12 -20.5 28.5t-19.5 35t-20.5 37.5t-22.5 36q6 6 9 6q-41 48 -89 89t-112 57v-17 q29 -6 62 -21q-29 12 -60 16q-2 -29 -4 -56.5t-6 -53.5q0 -16 1 -36.5t1 -40.5q0 -56 -15 -56q-2 0 -6 2q1 16 1 31v97q-2 -31 -3 -62.5t-5 -61.5q-11 -7 -14.5 -15.5t-6.5 -15.5t-7 -11.5t-16 -4.5q-11 0 -18.5 9.5t-14.5 23.5l3 10q5 29 6.5 59.5t1.5 61.5q0 57 2.5 109 t6.5 106q0 25 -0.5 49t-0.5 47l-10 -215q-5 -55 -5 -111.5t-10 -101.5q-5 10 -7.5 20.5t-2.5 25.5q0 19 -0.5 34.5t-0.5 32.5zM243 277q37 -14 71 -42q35 -29 65 -65l-9 14q-22 35 -58 59q-34 23 -69 34zM262 239q25 -12 50.5 -31.5t46.5 -50.5q-19 22 -46 45.5t-51 36.5z M345 316q22 -19 45 -41q24 -23 45 -48q-17 31 -42 51q-23 19 -48 38z" />
<glyph unicode="l" horiz-adv-x="347" d="M50 219q0 7 0.5 18t1.5 22l2 23q1 12 2 21q-1 -15 -1.5 -37.5t-0.5 -33.5v-40q0 -8 0.5 -17t1.5 -17q-4 16 -5 31.5t-1 29.5zM56 304v3q1 1 1 2q0 -4 -1 -5zM57 229l17 175q5 45 7 90l-3 2q-8 -47 -13 -90q-5 -42 -8 -83v26q6 46 11 90.5t13 90.5t20.5 96t33.5 107 q28 38 33 75q3 0 6 -1t12 -1q6 0 10.5 -2.5t4.5 -10.5q0 -9 -6 -27q2 0 6 -1.5t6 -1.5q14 24 25.5 41t22.5 17q7 0 12.5 -8.5t4.5 -27.5q-2 -36 -11 -68t-20 -62t-21.5 -61t-15.5 -65q-6 -39 -12 -79.5t-11 -80.5t-9.5 -77t-6.5 -69q0 -29 9 -60q5 -8 9 -11.5t14 -3.5 q12 0 26.5 3t25.5 3q7 0 10 -2t5 -7q-14 -8 -30 -12t-30 -4h-14h-7q11 -2 28 -2q26 0 53 12q0 -9 6 -15q3 1 14 7t19 6q24 0 24 -20q0 -3 -2 -9t-10 -23q-6 0 -12 -6q-21 -8 -43.5 -13.5t-46.5 -5.5q-68 0 -102 39.5t-34 114.5q0 36 3 72q3 35 4 65q-3 -31 -7 -62 q-5 -33 -5 -69q0 -18 3.5 -46t17.5 -54.5t43 -46t80 -19.5q24 0 46.5 5.5t43.5 13.5q-14 -17 -37.5 -27t-55.5 -10q-41 0 -79.5 17t-58.5 57l6 11q-18 32 -20 57.5t-4 50.5zM144 209q0 -7 1 -15v7q0 5 1 11t2 11q0 23 3 45t5 45q-5 -23 -7.5 -45t-4.5 -45v-14z" />
<glyph unicode="m" horiz-adv-x="1048" d="M55 535l23 5q3 0 6.5 -5.5t6.5 -20.5t5 -42.5t4 -71.5q1 0 3 1q4 2 6 2q0 7 -0.5 14t-0.5 14q0 86 11.5 132.5t19.5 46.5q6 0 12.5 -26t12.5 -82q17 27 39 52t49.5 43.5t59.5 29.5t70 11q33 0 58 -14t44.5 -36.5t33 -51t23.5 -57t16.5 -55t11.5 -44.5q0 -2 1 -4.5t2 -4.5 q12 32 30 73.5t45 78.5t63.5 62.5t84.5 25.5q47 0 80 -25t55.5 -64t36 -86.5t20.5 -93t9 -83.5t2 -58q0 -32 -2.5 -47t-13.5 -15q-2 40 -3.5 81t-6 82.5t-12.5 81.5q-8 39 -21 77q25 -79 29 -158q5 -80 8 -158q-7 7 -11 7q-3 0 -4 -4v-30q0 -13 0.5 -27t2.5 -24 q-2 -41 -3.5 -58.5t-7.5 -22.5q-8 0 -14 9t-11.5 23t-10.5 31t-10 33v27q0 44 -0.5 92t-4 93.5t-11 86.5t-20 72.5t-32 49.5t-47.5 18q-23 0 -42 -12q-11 -7 -22 -18q11 10 23 17q19 12 41 12h4q25 0 42.5 -19.5t29 -51.5t17.5 -73t9.5 -85t4.5 -87.5t1 -79.5 q-6 28 -10 66.5t-8.5 80.5t-11 83t-16.5 73.5t-25 52.5t-37 20q-9 0 -16 -1.5t-18 -10.5l-10 5q-34 -30 -57 -80t-39 -107.5t-27 -117.5t-21 -111v-38q16 79 29.5 155.5t39.5 148.5q-20 -62 -31 -128t-25 -135q0 -7 -3 -19t-10 -36l-110 11l-7 12q0 33 -4.5 67t-4.5 66v27 q-5 39 -12 91.5t-18 99.5t-27 80t-40 33q-35 0 -72 -32.5t-62 -94.5q-12 -35 -16.5 -74t-7.5 -82t-5.5 -88.5t-9.5 -94.5q-2 -5 -3.5 -12t-2.5 -12h-123v81q-1 10 -2 24t-2.5 28.5t-2.5 28.5t-2 24q0 81 -6.5 162t-8.5 165zM340 511q3 1 5 1h1q0 -1 -3 -4q27 9 42 9 q19 -7 34 -31t25.5 -57.5t18 -72.5t11.5 -74.5t6 -63.5t2 -40q3 -30 5.5 -59t2.5 -58l8 37q-3 27 -5.5 69t-6.5 89t-11 95t-19.5 86.5t-31 62.5t-46.5 24q-9 0 -19 -4t-19 -9zM498 243q2 -16 2.5 -31t1.5 -28l3 -48l1 5q-1 14 -1 27v25zM582 367q0 -1 2 -9q2 -7 3 -9 q3 10 13 32.5t22 48t23 47.5q4 9 7 16q-3 -6 -8 -13q-11 -20 -24 -41.5t-24 -41.5t-14 -30zM599 155l2 -16q13 72 30 145q16 64 41 121q-1 -3 -2 -5q-5 -10 -9 -21q-20 -51 -35 -107.5t-27 -116.5zM654 496q2 3 3 6q-2 -2 -3 -6zM678 357q5 14 9 27q5 13 8 18q0 -2 -2 -8 q-2 -7 -8 -21zM774 590h1q16 -4 30 -4h21q-18 5 -34 5h-11q-7 0 -7 -1zM871 563q12 -8 24 -19q-5 6 -13 12q-6 4 -11 7z" />
<glyph unicode="n" horiz-adv-x="618" d="M60 64q0 5 3 12t3 15q3 24 4 34.5t1 18.5q0 42 -2.5 90.5t-5.5 93.5q0 14 -0.5 33t-2.5 30q3 35 5 69t2 69v25q0 13 -1 26q3 -3 6 -3q4 0 8.5 3t8.5 3q7 0 11.5 -15t4.5 -66h9q5 56 15.5 89t21.5 33q5 0 16 -21.5t11 -67.5l11 18q11 13 24.5 27t30.5 25t38 18.5t48 7.5 q52 0 90.5 -23.5t64.5 -61t42.5 -85t25.5 -96t12 -93.5t3 -77q0 -29 -3.5 -34.5t-12.5 -6.5q-2 77 -10 157t-38 155q27 -79 34.5 -155.5t7.5 -153.5q-6 3 -11 3q-4 0 -7 -3q0 -8 1 -17q1 -8 1 -16t1 -15q-6 -23 -12 -33t-11 -10q-6 0 -10 5.5t-7.5 13.5t-7 17.5t-9.5 18.5 q2 17 3 27.5t1 17.5q0 27 -1 65t-5.5 79.5t-14 83t-26 74t-41.5 53t-60 20.5q-24 0 -42.5 -16t-32 -41t-23.5 -54.5t-16 -56.5q9 28 18.5 57t23 53t31.5 39.5t42 15.5q31 0 53.5 -17t38 -44t25 -61.5t14.5 -70t6.5 -69t1.5 -57.5v-38t-2 -39q-9 38 -13.5 79.5t-9.5 82 t-12.5 78t-21.5 69.5l7 10q-10 23 -22.5 35.5t-24.5 18.5t-22 7t-13 1q-25 0 -44.5 -18t-34 -48.5t-25.5 -70.5t-19 -84t-14 -88.5t-10 -83.5h9q5 34 10.5 75t12 83.5t15.5 82.5t21.5 72t29.5 52q16 19 39 22q-22 -5 -37 -28q-16 -24 -28 -59t-21.5 -76.5t-17.5 -79.5 l-20 -146q-4 -14 -6 -25l-4 -21q-2 -10 -4 -21.5t-5 -26.5l-3 -12h-6l-101 34q-5 1 -7.5 3t-5.5 5zM181 500q14 29 39 59q24 28 64 42q-13 -4 -25 -8q-14 -5 -25 -16q-20 -17 -31.5 -36.5t-21.5 -39.5v-1zM336 517q17 -1 30 -7.5t25 -22.5l-10 9q-8 6 -18.5 9.5t-25.5 9.5z M340 611q32 -8 60 -17.5t53 -37.5q-17 23 -44.5 36t-54.5 18q-5 1 -14 1zM455 554q14 -17 26 -39t21 -39q-10 23 -19 42t-28 36z" />
<glyph unicode="o" horiz-adv-x="641" d="M40 242q0 51 13.5 100t41.5 90t72 70.5t106 41.5l-29 7q-21 5 -30 12t-9 12q0 8 17.5 17.5t39.5 9.5q1 -5 11 -5h2q6 0 8 -1q52 -16 103.5 -46.5t93 -73t67 -96.5t25.5 -116q0 -54 -21 -104t-58 -87q38 33 60.5 82.5t22.5 106.5q0 64 -27 119.5t-69 99.5t-93.5 75.5 t-100.5 48.5q38 0 77.5 -17t75.5 -44.5t66.5 -63t51.5 -72.5l-7 -10q20 -30 30.5 -65t10.5 -72q0 -71 -30.5 -124.5t-77 -89t-102 -53.5t-104.5 -18q-28 0 -56.5 6t-57.5 20v-6q28 -16 57.5 -22t58.5 -6q72 0 141.5 31.5t117.5 88.5q-46 -59 -114.5 -92t-142.5 -33 q-76 0 -123 29.5t-73.5 72.5t-35.5 91t-9 86zM164 227q0 -69 31 -104t86 -35q35 0 71.5 12t66 34t48 54t18.5 72q0 30 -10.5 60t-29 57.5t-44 51.5t-55.5 41q-29 16 -47.5 24.5t-26.5 16.5q-8 -4 -22.5 -9.5t-38.5 -16.5l6 -9q27 10 52 10t38.5 -7.5t13.5 -15.5 q0 -5 -11.5 -11t-29 -16.5t-38 -26.5t-38 -40.5t-29 -59.5t-11.5 -82zM270 535q0 -2 2.5 -5.5t4.5 -5.5l7 15l-9 4q-1 -2 -3 -4t-2 -4zM284 523q46 -15 88 -45q36 -27 66 -59q-29 34 -63 61q-39 32 -87 50zM436 125q18 12 30.5 29t20.5 34t12 31q3 13 5 21q-11 -26 -26 -58 t-42 -57zM438 419q3 -4 6 -7q-3 4 -6 7zM540 91q-1 0 5 10.5t14.5 25t16.5 30.5q7 12 10 21q-14 -43 -41 -82q-1 -2 -3 -4q-1 -1 -2 -1zM586 178q1 2 1 4q0 -2 -1 -4zM587 182q0 1 1 2q-1 -1 -1 -2zM587 336q5 -18 9 -36q5 -20 5 -42q0 -16 -2 -31.5t-7 -28.5q7 25 7 56 q0 23 -4 45q-3 19 -8 37z" />
<glyph unicode="p" horiz-adv-x="657" d="M30 468q0 10 18 17.5t46.5 12t62.5 6.5t66 2q35 0 75.5 -2t81.5 -10t79.5 -24.5t69.5 -46t51.5 -74t26.5 -108.5q0 -54 -23.5 -88.5t-56.5 -55.5t-68.5 -30t-58.5 -12q-23 -5 -53 -11.5t-51 -6.5q-23 0 -27 5t-4 13q45 2 90 7.5t90 19.5q-45 -11 -90 -16.5t-90 -7.5 q0 6 -1 12.5t-6 6.5q-10 0 -15.5 -32t-8 -76.5t-3 -91.5t-0.5 -78q0 -14 1.5 -29.5t1.5 -26.5q0 -10 -3 -17t-17 -7v126q-2 -32 -2.5 -63t-0.5 -63h-18v-8q0 -9 3 -13q-11 -19 -25 -19q-11 0 -16.5 6t-15.5 16l3 9q2 56 3 110.5t1 115.5q0 26 -1 51.5t-3 49.5v-110 q0 -55 -1.5 -109.5t-7.5 -107.5q-5 9 -9 18.5t-6 20.5q2 27 2.5 49.5t0.5 49.5l12 6q-3 21 -4 42.5t-1 42.5q0 23 0.5 44.5t0.5 44.5q0 28 -1.5 55.5t-6.5 55.5h-3q2 -42 3.5 -83t1.5 -82q0 -18 -1 -36l-1 -26q-2 96 -7 188q-4 98 -14 201l4 83q-11 1 -23 1h-23l-3 23 q0 5 7 9t28 4h10v12q-33 4 -51.5 14t-18.5 21zM138 280q2 2 4 17t3.5 32.5t3 33t3.5 18.5l-13 1zM216 382q8 -43 9.5 -93.5t6.5 -98.5l7 -63h14q35 0 80.5 4t85.5 15t67.5 31t27.5 52v8q0 10 -1.5 22t-8.5 23q1 -5 5 -20t4 -25q0 -31 -21.5 -50.5t-54 -31t-71 -16 t-73.5 -4.5h-20q-10 0 -20 1q14 11 36.5 15.5t47.5 7.5t49 6t41 10l6 -12q35 17 49.5 33.5t14.5 45.5q0 46 -25.5 81t-68.5 47l-3 -6q37 -14 64 -46t27 -77q0 -24 -11 -38q-10 -12 -32 -22q18 8 27 20q11 14 15 31q0 42 -20 71t-56 46.5t-86.5 25t-111.5 7.5zM443 179l5 2z " />
<glyph unicode="q" horiz-adv-x="612" d="M40 261q0 64 29 111.5t76.5 79t108 47t123.5 15.5h45q32 -9 61.5 -15t61.5 -15l-3 -16q0 -5 -3 -9t-15 -4q-6 0 -15 1t-21 4q0 -6 -3 -9q32 -13 48.5 -27t16.5 -25q0 -10 -13 -13q5 -10 5 -25q-2 -28 -5 -61.5t-3 -71.5q0 -54 10 -112t10 -118q0 -48 4 -96.5t4 -96.5 q0 -16 -1.5 -31t-1.5 -30q0 -12 1 -26t1 -26q0 -35 -13 -35q-2 0 -6 2q1 11 1 23v22q0 11 -1 22v19q-1 -21 -3 -42q-2 -22 -3 -44l-9 -4q-6 -5 -11 -13t-19 -8q-10 0 -19 2.5t-14 10.5q5 26 6.5 46.5t1.5 40.5q0 26 -1 53.5t-1 57.5v19q0 31 -4 63.5t-8 63.5q3 -53 7 -105.5 t4 -104.5q0 -32 -2.5 -63.5t-8.5 -61.5q-5 9 -8.5 18.5t-3.5 20.5q2 27 2.5 51.5t0.5 51.5l9 2q-8 48 -9.5 94.5t-4.5 94.5h-7q0 -5 2 -31t4.5 -56.5t4 -57t1.5 -31.5q-5 45 -8.5 88.5t-8.5 87.5q-40 4 -72 8.5t-73 13.5l-12 11q-39 6 -79 21t-72 42t-52 67.5t-20 96.5 q0 46 15 90.5t49 78.5l-3 3q-38 -34 -54 -80t-16 -92q0 -44 15 -80.5t41.5 -65.5t60.5 -50q33 -19 69 -31q-33 10 -66 26q-34 18 -61.5 46t-44.5 69t-17 98zM65 217q5 -35 20 -63q-15 28 -20 63zM88 149l1 -1q21 -33 51.5 -56.5t69 -39t79 -25.5t80.5 -16t74 -10l-3 9 q-28 2 -65 6t-77 12.5t-79.5 22.5t-72 37t-54.5 56q-2 3 -4 5zM150 196q6 -19 19 -34q15 -16 36 -28.5t47 -21.5q22 -7 45 -11q-22 4 -43 11q-25 9 -46 21.5t-37 28.5q-14 15 -21 34zM161 238q0 -32 22 -56t59 -40.5t85 -26t101 -11.5q-8 46 -11.5 99.5t-3.5 106.5 q8 20 13 43t9 43q-33 3 -67 3q-107 -7 -155 -45.5t-52 -115.5zM229 22q2 0 3 -1q-1 0 -3 1zM323 96q24 -5 50 -8t52 -7l-1 4q-25 2 -51 4.5t-50 6.5zM448 303h9q2 5 7.5 17.5t11.5 26t12 24.5t9 14h-14q-6 0 -14 1q2 -4 2 -9q0 -2 -3.5 -12.5t-7.5 -23t-7.5 -23.5t-4.5 -15z " />
<glyph unicode="r" horiz-adv-x="449" d="M50 535q7 3 13 5.5t11 2.5t11 -11.5t13 -47.5q2 0 6 1.5t6 1.5q-1 17 -5 36.5t-8 37.5t-7.5 32.5t-3.5 23.5q0 2 0.5 5t4.5 3q5 0 13 -11t17 -28t17.5 -36.5t15.5 -36.5q27 51 61.5 77.5t90.5 26.5q41 0 67 -9.5t40.5 -21t19.5 -21.5l6 -10q0 -6 -6 -8q-26 25 -59 38 t-68 13q-34 0 -51 -9q-16 -8 -34 -20q19 12 35 19q17 7 49 7q35 0 67 -13.5t55 -34.5q-5 -2 -8.5 -4.5t-3.5 -7.5q5 0 11 -6.5t11 -15.5t8.5 -18.5t3.5 -15.5q0 -17 -13 -17q-10 0 -24 7q-3 1 -12.5 11t-23.5 20.5t-32 19.5t-40 9q-18 0 -31.5 -7.5t-24.5 -20t-20 -28.5 l-13 -24q15 27 33 49q20 26 50 26q26 0 48 -11.5t36 -28.5q-17 7 -40 14t-44 7q-11 0 -19 -5t-13.5 -12.5t-10 -16.5t-9.5 -17l-13 -2q-17 -29 -27.5 -67.5t-10.5 -80.5q0 -25 2.5 -45t7.5 -41l12 -31l-2 29q-2 34 -4 60.5t-2 58.5q2 29 8 55q5 22 15 41q-12 -24 -16 -55 q-5 -34 -5 -72q0 -30 3 -57t7.5 -54t9.5 -55.5t8 -62.5l3 -19l6 -57l-25 -10q-10 -2 -22 -2h-29q-26 0 -36.5 -6t-12.5 -6l-4 18v18l-5 94q-2 27 -11 58t-14 63q-3 21 -5 40l-4 39q-2 20 -4.5 41t-7.5 45q0 6 0.5 12t0.5 12q0 31 -5 61t-14 59zM232 431l3 5z" />
<glyph unicode="s" horiz-adv-x="643" d="M45 434q0 43 17.5 79.5t46.5 64t66.5 43.5t77.5 17q38 0 72.5 -10.5t65.5 -27t59 -36.5t52 -40l-20 -20q-7 0 -21 8.5t-43 29.5l-6 -9q36 -29 52.5 -54t16.5 -39q-2 -8 -10 -8t-32 13t-54.5 29t-64.5 29t-62 13q-16 0 -32 -6t-29 -16.5t-21.5 -25.5t-8.5 -33 q0 -29 27 -39t71 -10q9 0 19.5 0.5t19.5 2.5q23 0 30.5 1.5t14.5 1.5q43 0 86 -6t77 -26t55 -57t21 -99q0 -43 -14.5 -85.5t-43.5 -76t-72 -54t-101 -20.5q-35 0 -82.5 13.5t-90 32t-72 38.5t-29.5 34q0 4 5 6q61 -45 124 -74q62 -27 127 -30q-32 2 -64 11 q-33 10 -65.5 24.5t-62 33t-56.5 37.5l15 13q-3 1 -11 7t-15.5 15t-13.5 19t-6 19q0 10 4 13t9 3t21 -7t39 -15q16 -5 38.5 -18t50.5 -27t61.5 -25t71.5 -11h11q6 0 14 2l11 -8q39 12 64 45.5t25 90.5q0 41 -19.5 56.5t-71.5 15.5q-32 0 -66.5 -4.5t-72.5 -4.5 q-17 0 -35 1.5t-37 6.5v-6q40 -10 79 -10q38 0 72.5 4.5t66.5 4.5q27 0 42.5 -5.5t23.5 -14.5t10.5 -21.5t2.5 -27.5q0 -47 -25 -80q-24 -31 -57 -39q37 13 58 45q22 34 22 76q0 30 -15.5 46t-53.5 16q-31 0 -70 -4t-83 -4q-27 0 -62.5 7t-67.5 26t-54 52.5t-22 87.5z M196 111q31 -21 69 -37.5t88 -16.5q67 0 106.5 41t39.5 110v10q-5 32 -21.5 52.5t-50.5 22.5q21 -4 34.5 -13t21 -21.5t10.5 -27.5t3 -31q-4 -66 -42 -103.5t-100 -37.5q-35 0 -77.5 14.5t-80.5 37.5zM390 85h2h-2zM403 -7q19 3 39.5 8.5t38.5 18.5q25 16 40 39t26 48 q-21 -42 -57.5 -74t-86.5 -40zM548 110q9 22 17.5 46.5t10.5 51.5q0 11 -4 21q-3 8 -5 17l1 -13q1 -8 1 -22q0 -27 -6 -52t-15 -49zM567 246v3v-3z" />
<glyph unicode="t" horiz-adv-x="477" d="M30 552q0 26 37 26q14 0 29 -2t30 -3q4 22 7.5 39.5t6.5 34t7 33t10 34.5q9 20 14 43.5t7 46.5l21 -1q5 0 8.5 -3t3.5 -14q0 -9 -3 -24l12 -3q8 27 19.5 44t22.5 17q17 0 21 -43v-18q0 -26 -3.5 -48.5t-8.5 -44.5t-10 -45t-9 -50q22 -3 43 -3q10 0 20 0.5t20 0.5t21 8 t20 8q8 0 12 -5t4 -11q-18 -5 -35.5 -10.5t-33.5 -10.5q16 2 34 7.5t38 10.5q0 -5 0.5 -9t2.5 -9q2 0 5 1q6 2 7 2q10 -5 13 -12.5t3 -16.5q0 -7 -2 -12.5t-2 -9.5q-9 0 -24.5 -3t-31 -7t-28 -8t-15.5 -6q26 4 48 9.5t48 5.5q-5 -9 -13 -14t-17.5 -7.5t-20.5 -4t-23 -4.5 l-7 9q-19 -7 -29 -8.5t-21 -1.5q-12 0 -24.5 0.5t-27.5 0.5q0 -5 -1 -8q23 0 39 0.5t39 4.5q-22 -4 -38.5 -6.5t-39.5 -2.5q-4 -23 -7 -45t-3 -43q0 -12 1 -28t2.5 -32.5t2.5 -31t1 -21.5v-60q5 -20 29 -30t69 -10h32q17 0 23.5 -3.5t6.5 -9.5q0 -5 -8 -5.5t-16 -0.5 q-29 0 -61 4q-30 4 -59 9q29 -7 61 -13q33 -5 64 -5h9q4 0 9 1q0 -5 0.5 -9t2.5 -9l8 2q3 1 7 1.5t6 2.5q32 -3 32 -22q0 -11 -6 -18t-15 -11t-20 -5.5t-21 -1.5q-35 0 -68.5 4.5t-65.5 9.5q28 -10 71 -16t87 -6q-11 -7 -26 -11t-31 -4l-72 9q-14 2 -21.5 4t-14.5 4.5 t-15.5 5.5t-23.5 7v11q-26 7 -42 24t-25 37t-12 40.5t-3 36.5q0 17 0.5 31.5t0.5 29.5q0 11 -0.5 28t-1.5 36t-1.5 39t-0.5 38q0 11 0.5 21t1.5 18h-10q-1 -7 -1 -16v-18q0 -29 1 -57.5t1.5 -52.5t1.5 -41.5t1 -25.5v-40v-8q-3 27 -6 77q-3 58 -3 128v18q0 11 0.5 21t2.5 15 l-34 2q-11 7 -22 11t-20 4v20q0 6 1.5 10.5t9.5 4.5q2 0 10 -2v12q-11 6 -18 16.5t-7 21.5zM116 193l1 -7zM126 367q0 -67 5 -121.5t14 -84.5q0 -9 -0.5 -12t-0.5 -5t2.5 -5t10.5 -8q-14 27 -15 53t-3 49l-9 152zM209 212q0 -26 3 -40q3 -12 12 -20q-5 6 -7 13q-1 8 -3 20 q-2 8 -2 17v49q-1 -10 -2 -19.5t-1 -19.5zM224 152q1 0 2 -1q-1 1 -2 1z" />
<glyph unicode="u" horiz-adv-x="655" d="M50 453q9 36 14 72t7 72q3 0 7 1t8 1q7 0 12.5 -8t5.5 -34v-9q0 -4 -1 -9h12q8 42 19 64t22 22q8 0 14.5 -22.5t6.5 -70.5q0 -35 -2 -71t-2 -74q0 -59 5.5 -107t21.5 -82t45.5 -52.5t76.5 -18.5q39 0 65 24t44 64t30.5 92.5t23.5 109.5q2 16 3 32t1 33v31q0 29 3 49 t17 23q0 -51 -3 -101q-2 -48 -8 -96q7 47 11 94q4 49 6 100q6 -4 10 -4t8 4v36q5 18 10 25.5t11 7.5t12 -6t12 -15l9 -21l-3 -18q-5 -49 -6 -105q-1 -55 -8 -111q8 55 13 108q5 55 10 108q5 -16 8 -34t4 -38q-5 -50 -9 -96t-11 -96l-13 -3q-5 -46 -21 -100t-46.5 -100 t-78.5 -76.5t-115 -30.5q-22 0 -46.5 3.5t-47.5 11t-44 19.5t-36 30l1 -2v-1l-1 -1l-3 1q6 -9 13 -16q-18 16 -33 37q-25 34 -40 81q-9 28 -14 57t-7 61.5t-2.5 70.5t-0.5 84zM147 62q11 -10 23 -18q-12 8 -23 18zM170 44l4 -2q24 -13 49.5 -20.5t48 -10.5t36.5 -3 q70 0 119 31t80.5 77.5t48.5 99.5q16 50 24 92q-7 -42 -22 -93q-17 -54 -48.5 -101t-79.5 -79t-116 -32q-38 0 -75 10t-69 31zM360 34q42 9 75 35q34 27 58 63t39.5 77t24.5 79q3 17 5 33l4 28q-6 -44 -20 -93q-14 -51 -39 -96.5t-63 -80.5q-36 -33 -84 -45zM403 140 q18 15 31.5 35t23.5 43q-11 -22 -24.5 -42t-30.5 -36zM566 349q0 2 1 5q-1 -3 -1 -5zM580 308l1 7z" />
<glyph unicode="v" horiz-adv-x="634" d="M20 500q7 2 11.5 7.5t11.5 5.5q5 0 9.5 -6t8 -13.5t6.5 -15.5t4 -11l12 3q-4 16 -6.5 31.5t-2.5 31.5q0 6 1.5 18.5t11.5 12.5q15 0 33 -27.5t35.5 -70.5t34.5 -94.5t31 -99.5t24.5 -86t14.5 -54q26 33 46 69t39.5 72.5t41 72t50.5 67.5q7 8 21.5 26t31 36.5t32.5 32.5 t26 14q5 0 9 -7q-38 -38 -75.5 -76t-65.5 -86q29 46 66.5 83.5t77.5 72.5l9 -12q6 9 22 20t27 11q8 0 12 -5t4 -13q0 -7 -2 -18t-6 -16q-5 -7 -12 -12q-33 -30 -62.5 -55.5t-55.5 -62.5l7 7q27 32 54.5 57t62.5 48q-19 -32 -43.5 -54.5t-49.5 -50.5q-12 -14 -20.5 -30.5 t-21.5 -29.5l-9 3q-19 -41 -39.5 -83.5t-44.5 -83t-53.5 -76.5t-66.5 -63q-3 -6 -12.5 -10.5t-14.5 -7.5l-63 28q-7 23 -15.5 49t-16.5 49l-5 -1l27 -97q1 -1 3.5 -2t10 -4.5t23 -10t42.5 -17.5q40 24 68 52q27 27 52 64q-11 -19 -23 -35q-12 -17 -26 -32t-31 -28.5 t-39 -25.5l-84 38q-23 90 -48 174.5t-52 170.5q-13 40 -22 78.5t-26 77.5zM289 136q36 50 65 105q30 57 62 112q-35 -54 -64 -110q-29 -55 -63 -107zM308 38q48 54 82.5 114t61.5 123v2q-17 -30 -33.5 -61.5t-33.5 -62t-36 -60t-41 -55.5zM371 82q1 2 3 4q-2 -2 -3 -4z M376 89q16 26 30 53l2 2q-1 -1 -1 -2q-14 -27 -31 -53zM409 147q2 3 3 6q-1 -3 -3 -6zM413 154l8 15zM421 169l8 16zM457 286q9 13 21 25.5t14 28.5q-10 -14 -18.5 -27.5t-16.5 -26.5z" />
<glyph unicode="w" horiz-adv-x="744" d="M10 455l4 -2q5 2 9.5 6t8.5 4q6 0 11 -10.5t8.5 -24t6 -26t3.5 -16.5l12 3q-2 22 -4 43.5t-2 43.5v10q0 7 1.5 15t4 14t7.5 6q12 0 27 -33t31 -80.5t31.5 -99.5t28.5 -91q3 -10 8.5 -23.5t10.5 -26.5t9.5 -23.5t5.5 -14.5q3 15 10 41.5t14.5 56t15 56t12.5 40.5 q8 1 15 1.5t13 0.5q20 0 36 -4.5t41 -14.5q7 -15 11 -38t6.5 -49t3 -53t0.5 -50v-40q41 60 71.5 122.5t60.5 127.5q3 7 10 24t16.5 38t20 44.5t20.5 42.5t18.5 31.5t13.5 12.5l6 -3q-16 -37 -31.5 -71t-31 -67t-30.5 -67.5t-30 -71.5l126 271l10 -9l5 3q2 7 7.5 20t13 26 t16 23t17.5 10q4 0 7 -4t4.5 -10t2.5 -11.5t1 -8.5l-3 -30q-22 -42 -52 -112.5t-66 -148.5q29 58 56.5 115t58.5 119q-10 -43 -23.5 -80.5t-30 -72.5t-34.5 -71t-36 -76l-17 -10q-17 -41 -35.5 -82.5t-44 -78.5t-59.5 -67t-80 -48q-15 9 -31 20t-32 18q0 1 -0.5 2t-0.5 3 q0 8 1.5 25.5t3.5 35.5t3.5 32.5t1.5 17.5l-6 -6q0 -7 -1.5 -20.5t-4 -28.5t-4 -29.5t-1.5 -23.5v-5l77 -47q29 3 61.5 34t62.5 73t54 85q21 37 33 61q-14 -30 -34 -69q-22 -43 -49.5 -83t-59.5 -69.5t-67 -35.5l-79 46q-2 4 -2 9q0 16 5 44t5 47v8q-5 -5 -15 -19 t-22.5 -28.5t-25 -25.5t-20.5 -11q-17 11 -32 23.5t-31 24.5q-7 31 -20.5 62t-28.5 61.5t-28 61.5t-18 64q-8 48 -24.5 96t-28.5 96zM182 21l1 -1q2 1 7 6.5t10 12t9 12.5t6 8l-2 1q-3 0 -7.5 -5.5t-9.5 -12t-9 -13t-5 -8.5zM244 95q1 3 6 17q5 16 11.5 36.5t14 43.5 t14 43.5t10.5 34t4 15.5v1l-11 -8h-4q-5 -21 -12 -44.5t-14 -47.5t-12.5 -47.5t-6.5 -43.5zM317 -48q0 -5 5.5 -10t13 -9.5t16 -8.5t13.5 -7l1 2q28 4 57.5 31t55.5 61.5t46.5 70t31.5 58.5l17 37q-21 -42 -43 -81q-24 -42 -49 -76t-51 -58t-51 -32l-18 -8l-41 28 q0 6 1.5 18.5t3 26.5t3 27t1.5 22q-1 -8 -3 -21.5t-4.5 -27t-4 -25.5t-1.5 -18zM327 65q0 -1 1 -3q0 2 -1 3zM327 71v3q1 3 1 6h-1v-9zM344 -3l10 -2l7 54zM364 -8q11 -2 22 -5t22 -3h4q-15 9 -34 9zM407 38q38 42 65 93.5t50 102.5q-25 -51 -51 -101t-64 -92v-3zM585 153 l4 8z" />
<glyph unicode="x" horiz-adv-x="568" d="M0 546l24 16q5 0 10.5 -5.5t13.5 -19.5l9 9q-8 19 -8 33q0 30 22 30q10 0 26.5 -15t37.5 -37t46 -45.5t53 -40.5l56 -48l61 102q8 4 18.5 12.5t21 18t21.5 20t20 18.5q2 -8 10 -12t8 -12q0 -9 -18 -24q6 -6 9 -6q19 10 36 10q13 0 21 -5.5t8 -16.5q0 -13 -15 -33t-36 -44 t-43 -50.5t-35 -52.5q18 -26 45.5 -57t53 -65.5t44 -71.5t18.5 -76q0 -16 -5.5 -18.5t-10.5 -2.5q-2 18 -5 36t-10 36l-9 18q-2 1 -6 5l12 -23q7 -18 9.5 -34.5t2.5 -34.5q-5 0 -9 -0.5t-6 -2.5v-18q-8 -19 -21 -19q-9 0 -18.5 7t-14.5 12v9q1 5 1 8v9q0 22 -13.5 52 t-33.5 59t-42 54.5t-38 40.5l-1 -2q21 -25 42.5 -50.5t39 -51t29 -51.5t11.5 -51v-9q0 -3 -1 -8q-9 6 -12.5 14.5t-5 16t-2 12.5t-4.5 5q-6 14 -11 22.5t-13 22.5l6 12q-25 24 -45.5 50t-43.5 55l-4 -4q23 -28 39 -49q16 -20 21 -28q-3 5 -17 19q-15 16 -46 54 q-38 -42 -68.5 -83.5t-57.5 -82.5q-7 -5 -11 -17.5t-8 -25.5t-9.5 -22.5t-15.5 -9.5q-4 0 -10 6q17 26 25.5 49.5t10.5 28.5q-14 -14 -20 -34.5t-19 -40.5q-2 2 -6 5.5t-9 3.5l-9 -18q-4 -2 -10 -2q-7 0 -12.5 5.5t-9.5 12.5t-6.5 13t-3.5 7l3 3q5 5 12 19t17.5 34t24.5 44 t33 50q20 27 40.5 56.5t40.5 54.5q-39 -44 -74 -94.5t-64 -100.5q-9 -20 -18 -35t-18 -22q-2 3 -2 12q0 7 4.5 20t12 28t17 30.5t19.5 29.5l9 -3q23 46 54 83t60 75l-7 5q-23 -29 -45.5 -59t-44.5 -62q21 32 42.5 62.5t44.5 60.5q-27 20 -52.5 37t-51.5 39t-53.5 53.5 t-57.5 80.5zM176 370q1 -1 7 -5.5t13.5 -9.5t13.5 -9.5t8 -5.5l3 4l-42 29zM180 126q14 14 26 34q11 19 25 37l-28 -32q-15 -16 -23 -39zM221 338l7 -5l4 4l-8 5zM366 177l1 -1zM378 321q18 -32 43 -63.5t50 -65.5q-23 34 -48 67t-45 62z" />
<glyph unicode="y" horiz-adv-x="597" d="M0 -294q0 8 5 12t11.5 6t13.5 3.5t12 3.5q8 -8 27.5 -12.5t37.5 -4.5q33 0 63 21.5t57.5 58.5t52.5 85t48 101h-1q-20 -44 -43 -90.5t-50 -85t-58.5 -63t-67.5 -24.5q-29 0 -57 17q15 5 28 5q4 0 14 -2q16 0 27 1t21 4.5t19 11t20 19.5l12 -3q29 38 54.5 82t50.5 89 l18 40l-9 2l-15 -36q-23 -45 -48 -88.5t-57 -79.5q35 43 64 96t53 110l-6 10q-5 23 -15 45q-7 17 -16 35q18 -43 25 -83q-10 3 -16.5 12.5t-12 22.5t-10 27t-11.5 28l5 9q-16 25 -34.5 62t-39 76t-41.5 76t-41 62l-3 -3l125 -225q-38 64 -81 130t-77 146q0 7 -2 18.5 t-4.5 24t-5.5 25t-6 22.5l26 8q5 0 9 -4.5t7 -18.5q5 0 9 8t8.5 18t10 18t14.5 8q13 0 23.5 -17.5t20 -42.5t20.5 -52.5t26 -47.5q16 -27 32.5 -53t30.5 -55q15 -40 39 -80.5t38 -84.5q24 80 38.5 142.5t22.5 124.5q11 32 19 72t8 78l22 -1q5 0 9 -4.5t4 -21.5 q0 -5 -0.5 -10.5t-1.5 -13.5h9q9 33 21 53t23 20q8 0 15.5 -17t7.5 -57q0 -67 -16 -145t-33 -154q-28 -102 -66 -196t-96 -191q-18 -27 -40.5 -56.5t-52 -53.5t-67 -39.5t-85.5 -15.5q-35 0 -47.5 9t-12.5 14q0 3 2 7q30 -10 64 -10q24 0 55.5 8.5t56.5 25.5 q-23 -12 -51.5 -21t-51.5 -9q-36 0 -70 9q0 7 -5.5 13t-12.5 11.5t-12.5 11.5t-5.5 14zM186 229q15 -29 31 -58q16 -27 30 -55l-4 11q-11 26 -25.5 51.5t-31.5 50.5zM240 -296q48 45 79.5 97.5t58.5 106.5q-29 -52 -60 -104.5t-78 -99.5zM267 241q1 -15 4.5 -25t8 -17.5 t9 -14t8.5 -15.5l-2 3zM303 159l33 -82l6 6zM337 71q2 -3 4 -5.5t3 -6.5l5 8l-5 12zM352 103q2 -8 4 -12q4 12 7 24l6 24l-6 3z" />
<glyph unicode="z" horiz-adv-x="685" d="M40 35v92q0 23 5.5 38t15.5 26q-8 -12 -13.5 -27t-5.5 -33v-94l31 -6q14 -3 28 -4t27 -1q14 0 25 0.5t22 0.5l77 -1l-76 -1h-11q-9 0 -19.5 -0.5t-22.5 -0.5q-11 0 -24 1t-27 4zM48 40v87q0 33 14.5 53.5t33.5 32.5t38 19t29 13l23 18q40 30 84 53t92 36l15 4 q22 11 47 19t47 20l-3 5q-25 -11 -50.5 -19t-43.5 -17l-15 -4q-50 -14 -95.5 -38t-82.5 -53l-20 -17h-4q-3 0 -8 -2l10 5q54 46 105.5 71.5t102.5 40.5q38 14 62 21.5t45 18.5q-39 9 -69 12.5t-56 3.5q-13 0 -25 -0.5t-24 -1.5q-7 1 -14 1h-13q-35 0 -67.5 -7t-61.5 -19 q0 7 -5.5 11.5t-5.5 11.5q0 6 13.5 15t50.5 17l-2 10q-34 -5 -59 -9t-42 -4q-11 0 -16.5 1t-7.5 7q0 2 1 4t1 4q20 20 49 35.5t64.5 26t75.5 16t82 5.5q31 0 69.5 -5t85.5 -13q10 -3 18 -5.5t17 -5.5t20 -7t27 -10q-1 1 13.5 -5t29.5 -22l-8 -120q-20 -18 -48 -35t-58 -31.5 t-59 -25t-52 -16.5q-23 -7 -42 -13.5t-36 -14.5t-34 -18t-35 -24q-13 -10 -21.5 -16t-14 -10t-9 -6t-6.5 -4l36 -3q42 -4 81 -8.5t79 -9.5q17 -2 20 -2.5t6 -0.5q82 -5 115 -7.5t33 -14.5q0 -4 -1 -5q-41 2 -79.5 7.5t-90.5 7.5q-20 3 -46.5 5.5t-55 4t-57 2.5t-53.5 1 q-23 0 -41 -0.5t-29 -2.5q27 0 64 -1t76 -2.5t76.5 -4t64.5 -6.5l35 -5q35 -5 65.5 -6t66.5 -5q-5 -5 -5 -10q0 -9 12 -8h7q11 0 29 -2q20 -8 28.5 -14.5t8.5 -12.5t-8 -11.5t-20 -8.5l-25 -7q-41 7 -78.5 9.5t-82.5 7.5l-26 3q-32 4 -63 7t-64 6l-106 8q-11 1 -24 1.5 t-27 0.5h-18q-9 0 -19 -1l-18 -1v77q0 31 15 48.5t33 26.5q9 5 18 8q-2 0 -4 -1q-15 -5 -29.5 -14.5t-25 -25.5t-10.5 -42l-1 -78h97l61 -4q47 -3 91.5 -8t88.5 -11l32 -5q38 -4 71 -8t68 -8q-14 -3 -30.5 -6t-36.5 -3q-19 0 -34 2t-35 4l-32 4q-35 5 -67 8.5t-69 7.5l-6 11 h-81q-5 0 -11 -0.5t-14 -0.5h-25q-13 0 -26 0.5t-28 2.5zM61 191q19 28 46 41.5t42 17.5l-8 -5l-21 -14q-12 -8 -28.5 -16t-30.5 -24zM142 216l8 2q17 6 22 15l6 4q18 14 37.5 29.5t40.5 28.5q-28 -14 -51 -34.5t-52 -38.5q-5 -3 -11 -6zM147 136l2 -1q5 3 19 11t30 17 t31 17.5t23 13.5q-5 -3 -14.5 -7.5t-19.5 -9.5t-18.5 -9.5t-11.5 -6.5q-14 0 -24.5 -10.5t-16.5 -14.5z" />
<glyph unicode="{" horiz-adv-x="408" d="M50 404q5 -1 9 -1h9q18 0 34.5 5t30.5 16l2 3q-22 47 -41.5 93t-19.5 100q0 46 15.5 83.5t43 64t66 40.5t84.5 14l-2 -5q1 -4 2.5 -9t1.5 -8q0 -5 -7.5 -9t-17.5 -6.5t-20 -4.5t-14 -3l3 -10q4 0 8 0.5t8 0.5q20 0 39 -6t27 -24q-1 -11 -19 -17t-39 -16.5t-38.5 -30.5 t-17.5 -60q0 -32 10 -54.5t21.5 -42.5t21.5 -41t10 -50q0 -15 -6.5 -27t-16.5 -22t-22.5 -17t-23.5 -12q1 -4 4 -7.5t6 -9.5t5.5 -15.5t2.5 -26.5q0 -24 -2.5 -47.5t-2.5 -47.5q0 -26 7 -54.5t22 -52.5t37.5 -39.5t53.5 -15.5h6q6 0 10 -2t4 -11l-1 -4q-48 0 -89 28 q-38 26 -58 66q18 -42 56 -69q41 -28 89 -31l-3 -13q4 -1 7.5 -2t7.5 -1q6 0 13 1t14 1q9 0 16 -3t12 -14q0 -14 -12.5 -23.5t-23.5 -14.5q-50 0 -97 16.5t-83 47t-57.5 74t-21.5 96.5q0 25 3.5 49t3.5 49q0 2 -2 7l-2 8q0 -29 -3 -58q-2 -29 -2 -56q0 -48 20 -91.5t53 -76 t76.5 -52.5t91.5 -21q-11 -5 -22.5 -6t-23.5 -1q-34 0 -65 14.5t-57 37.5t-45.5 52t-30.5 59l10 4q-8 18 -14.5 38t-6.5 40q0 30 2.5 60.5t2.5 60.5l-8 -26q0 16 -4.5 28t-21.5 12h-11zM88 194q0 5 0.5 10.5t1.5 10.5v-15q0 -26 2.5 -51.5t9.5 -48.5q-9 22 -11.5 46t-2.5 48 zM126 416l11 -4l4 3l4 10l-5 2q-4 -8 -14 -11zM188 254q3 21 3 43q0 5 -2 11q1 -4 1 -9v-11q0 -9 -0.5 -17.5t-1.5 -16.5z" />
<glyph unicode="|" horiz-adv-x="294" d="M50 -53q0 31 1.5 61t3.5 61h10q-1 11 -1.5 21t-0.5 20q0 73 12.5 144.5t20.5 143.5h-6q-16 -81 -24 -162q-7 -79 -11 -159q0 38 1 75q1 40 3 80q3 52 14.5 114.5t23.5 126.5t22 126.5t10 115.5q0 13 -3 25l12 4q6 2 12 2q11 0 13 -12.5t2 -20.5l11 1q1 6 2.5 17.5t5 22 t9 18.5t14.5 8q10 0 17.5 -12t11.5 -28t6 -32t2 -24q0 -49 -7.5 -108t-18 -119.5t-21.5 -119t-18 -106.5q-8 -55 -12.5 -109.5t-4.5 -110.5q0 -5 1 -18.5t1 -29.5q0 -18 -3 -33t-13 -15l-4 1v76q-1 -18 -2.5 -36.5t-3.5 -38.5l-9 2l-7 -2l2 -21q-2 -8 -7 -18t-16 -10 t-19.5 9t-13.5 18q0 59 3 117q4 56 6 114q-4 -54 -9 -107q-5 -55 -7 -110q-4 9 -7.5 18.5t-3.5 19.5zM79 193q0 -4 1 -9q2 20 2 40q1 18 3 35q-3 -13 -4 -26q-2 -15 -2 -30v-10zM146 83q2 35 5 69q3 37 8 74q-7 -37 -10 -74q-2 -34 -3 -69z" />
<glyph unicode="}" horiz-adv-x="389" d="M0 782q0 10 15 16t34.5 9t38 4t26.5 1q81 0 126 -39.5t45 -117.5q0 -36 -9.5 -55t-21.5 -34t-21.5 -31.5t-9.5 -46.5q0 -12 4 -24.5t15 -23t31 -18t53 -8.5l6 -96h-38q0 -23 7 -45t15.5 -43.5t15.5 -44.5t7 -47q0 -41 -15.5 -72t-41.5 -52t-60.5 -32t-72.5 -11 q-8 0 -17.5 2.5t-13.5 10.5l1 4q25 2 49 5q22 2 44 8q-21 -5 -43 -6q-23 -2 -47 -2l2 10l-2 7q-3 -1 -8 -1h-11q-16 0 -31.5 4t-15.5 18q0 13 14.5 21t24.5 12q23 -5 47 -5q19 0 38 3.5t34 12.5t24.5 23.5t9.5 36.5q0 24 -7 46.5t-15.5 44.5t-15.5 45t-7 48v8q0 4 1 9l-3 1 l-1 -15q0 -25 7.5 -48.5t16 -46.5t16 -46t7.5 -47q0 -23 -9 -35.5t-23.5 -19.5t-32 -8.5t-35.5 -1.5q-9 0 -18 0.5t-18 1.5q14 5 33.5 8t37.5 9t31 16.5t13 31.5h11l-9 42q-5 3 -12 23t-14 44t-12 45.5t-5 28.5v12q0 6 2 11l-6 3q-1 -5 -1.5 -11t-0.5 -11q0 -20 4.5 -39 t11 -37t13.5 -37q6 -17 11 -34q-6 18 -12 35l-14 36q-7 18 -11.5 36.5t-4.5 39.5v11q0 6 2 12q-38 20 -56.5 54t-18.5 76q0 11 6 32t14.5 43t18 41.5t17.5 27.5l1 7q0 24 -5.5 38.5t-15 22.5t-23.5 10.5t-31 2.5h-8l-46 -1v4q0 7 -1 11.5t-1 7.5q0 5 6.5 7.5t15 4t17.5 2 t14 0.5h5l-1 11q-7 1 -21.5 2.5t-29 5.5t-25.5 10t-11 16zM114 428q4 -12 14.5 -25t24 -25t28 -21.5t26.5 -14.5l2 8q-11 6 -25 15t-27.5 20t-23.5 23t-14 24l-1 -6zM282 338l42 -11v8z" />
<glyph unicode="~" horiz-adv-x="544" d="M30 264q0 35 13 70q11 14 28.5 28t54.5 14q40 0 68.5 -5t51 -13t40.5 -18t37 -19q41 -19 62 -19q9 8 12 21t4.5 25t4.5 21t12 9q2 0 8 -2q-3 -10 -4.5 -20t-3.5 -19q5 18 13 37q5 -4 13 -4l2 3q2 4 5.5 8t8 7.5t10.5 3.5q11 0 19 -8.5t13 -16.5q-5 -8 -8.5 -17t-5.5 -19 q-10 -36 -21 -58.5t-23.5 -35t-27 -17t-31.5 -4.5q-23 0 -49.5 4.5t-49.5 11.5q19 -7 42 -13t49 -6q39 0 61 16.5t34.5 39.5t19.5 48t15 42q7 -12 7 -22q0 -14 -10 -46t-33 -61l-9 7q-9 -14 -20.5 -21.5t-24 -11.5t-24 -5t-20.5 -1q-20 0 -35.5 4t-29.5 9l-14 5q-4 1 -7 2 t-7 3q-9 4 -19.5 10.5t-21 13.5t-21 12.5t-19.5 7.5l1 -3l-2 -2q10 -3 20.5 -10.5t22.5 -15.5t24.5 -15t25.5 -10l14 -5q15 -3 30 -6.5t35 -5.5q14 0 33.5 2t39.5 13q-17 -11 -34 -14t-30 -3q-36 0 -69 6t-61 25l-42 28q-11 5 -22 11.5t-22 6.5q-12 0 -17 -13.5t-5 -22.5 q-6 0 -12.5 -1t-12.5 -1q-11 0 -11 14q0 5 1 9l-11 1q-8 -18 -18 -30t-21 -12q-14 0 -20 14.5t-6 38.5zM330 299q12 -7 27 -11.5t26 -4.5q13 0 19 11q-9 -9 -25 -9q-22 3 -47 14zM448 210q2 2 6 4z" />
<glyph unicode="&#xa1;" horiz-adv-x="253" d="M50 519q0 6 8.5 14.5t20.5 17t23.5 14t17.5 5.5q13 0 25 -3t25 -3q2 0 5 1t5 2q6 -8 8 -18q-10 -2 -15 -2q14 -3 18 -20l3 1q5 -10 7 -22t2 -23v-10q-3 5 -17.5 6.5t-20.5 2.5l-13 -4q14 0 27 -1.5t24 -9.5q-1 -3 -1.5 -6.5t-2.5 -6.5q-4 2 -8 2t-8 1l-2 8h-24l-10 -7 l2 -5q4 3 9.5 4t10.5 1q2 0 3 -0.5t3 -0.5q-9 -2 -20 -6.5t-15 -9.5q-2 2 -4.5 3.5t-5.5 2.5h1q-8 5 -14.5 11t-12.5 13l2 1l-8 8q-3 1 -10.5 4t-15 7.5t-13.5 9t-6 7.5zM57 -114q4 81 10 160q7 81 12 163q13 24 15 52q4 -2 9.5 -1.5t11 0t9.5 -3t4 -8.5l-1 -11l11 -1 q5 12 15.5 22.5t24.5 10.5q9 0 14.5 -5.5t7.5 -13.5t2.5 -16.5t0.5 -15.5q0 -39 -2.5 -87.5t-7.5 -99t-12.5 -98.5t-16.5 -85q14 -10 17 -28q-4 -10 -13.5 -20t-17.5 -17l-67 -15l71 11q17 15 29 30q0 -21 -14 -38.5t-33.5 -32t-41.5 -26.5t-37 -23v57l12 10q8 63 11 126 q1 16 2 33l-2 -26q-2 -30 -7.5 -59t-15.5 -56v106h11q-1 7 -1.5 13t-0.5 13q0 36 7.5 72t7.5 73q0 8 -0.5 14.5t-1.5 14.5h-5q-2 -50 -7 -98zM85 -49q2 26 5 53q-3 -26 -5 -53zM96 -169l4 -2l5 6l-4 1zM136 552q4 -2 8 -3zM144 -180v-7l3 -1v7zM151 -106l13 82 q-6 -20 -8.5 -40.5t-4.5 -41.5z" />
<glyph unicode="&#xa2;" horiz-adv-x="577" d="M50 370q0 47 16 82t40.5 61t54 44t56.5 29.5t48 17.5t28 9q8 29 14 63.5t11 63.5q10 -2 21 -3t11 -15q0 -6 -1 -12t-3 -12l11 -2q3 6 7 14.5t10 16.5t13 13.5t15 5.5q13 0 16.5 -14.5t3.5 -23.5q0 -22 -4 -50t-9 -49q30 -6 61 -8t57 -18q-5 -2 -6.5 -5.5t-3 -8t-3.5 -7.5 t-7 -3q-11 0 -23 6t-23 9l-2 -10q13 -6 23.5 -17t10.5 -26q0 -8 -4.5 -13t-12.5 -5q-9 -4 -19 -4q-17 0 -32.5 1t-32.5 1q-8 -75 -22 -149t-23 -149l19 -1q5 0 9.5 0.5t9.5 0.5q6 0 11.5 -2.5t10.5 -11.5q-17 -6 -35 -6q-14 0 -27 3l-1 -3q18 -3 36 -3q8 0 15 0.5t14 4.5 l9 -16q2 3 7 10t10.5 14t11 12t9.5 5q13 0 18.5 -12.5t5.5 -23.5q0 -20 -11 -32.5t-27 -19t-34.5 -8.5t-33.5 -2q-9 0 -18.5 1t-18.5 2q1 -4 8.5 -6t16.5 -3t17 -1h12q19 0 37.5 5.5t33.5 16.5q-14 -17 -35 -28t-44 -11q-11 0 -22.5 2t-22.5 2q-10 0 -11 -19.5t-3 -44.5 t-8.5 -49t-26.5 -33l-9 3q14 35 22.5 72t11.5 75q-6 -37 -15 -73t-23 -71l-14 6q-2 -3 -5.5 -10.5t-8.5 -15t-10 -13t-9 -5.5q-6 0 -11 4.5t-8 11t-5 13.5t-3 12q16 38 28 77.5t16 81.5l-1 1q-7 -40 -17 -74t-28 -70l-1 12q0 32 10 66t15 66l10 -1l-6 4q-3 2 -5 5l2 11 q-34 11 -63.5 36t-51.5 57.5t-34.5 69.5t-12.5 72q0 48 20.5 82.5t52.5 66.5l-3 5q-31 -26 -55 -60.5t-24 -77.5q0 -42 12 -82q8 -29 23 -56q-14 23 -24 49q-15 36 -15 74zM78 354q5 -32 17 -64t30.5 -60t43.5 -50.5t57 -34.5q-30 15 -54.5 37t-43.5 49.5t-31.5 59 t-18.5 63.5zM90 245q5 -9 11 -17q-6 9 -11 17zM110 214q14 -19 31 -36t37 -32q-20 12 -38 30t-30 38zM163 330q2 -15 7 -29.5t15 -27.5q-7 14 -12 28t-10 29zM173 382q0 -36 16 -74.5t46 -59.5q3 27 7 58.5t8.5 63.5t9 63t8.5 58q-17 -6 -34 -13t-30.5 -19t-22 -30.5 t-8.5 -46.5zM227 145l7 -4q0 5 -7 5v-1zM234 221l30 -20l-28 23zM237 246l6 -4q8 50 18 109t12 110l-5 -1q-7 -49 -15 -107.5t-16 -106.5zM256 233l3 -2l10 92q-4 -23 -7 -45t-6 -45z" />
<glyph unicode="&#xa3;" horiz-adv-x="671" d="M10 101q0 25 9 42.5t24.5 28.5t35.5 16t43 5q27 0 53.5 -8.5t53.5 -8.5q6 7 10 15t11 18q8 10 10 27t2 29q0 16 -15 16q-10 0 -20 -1t-20 -1q-11 6 -23 6q-5 0 -13 -2q-2 7 -5.5 8t-3.5 9l15 11l-2 10q-14 4 -29 13t-15 26q17 14 35 24t42 10h3l31 -1q-4 22 -7 44t-3 45 q0 34 9 66.5t27.5 58t46.5 41t66 15.5t61.5 -10.5t40.5 -28.5t31 -41.5t32 -49.5q-8 -1 -12 -8t-12 -7q-4 0 -10.5 7t-13 16t-12 18t-7.5 13l-9 -7q4 -8 9.5 -21t11 -27t9 -27.5t3.5 -21.5q0 -5 -1.5 -10.5t-9.5 -5.5q-8 4 -23 23t-30.5 39t-28.5 36.5t-17 16.5 q-14 0 -21.5 -11.5t-11.5 -27t-4.5 -32t-0.5 -26.5q0 -23 5 -45l10 -44q32 -6 63 -11.5t63 -5.5q10 0 17.5 7t17.5 7q5 0 9 -4t6 -9q-19 -10 -39.5 -15.5t-41.5 -5.5q-17 0 -33 2q-11 2 -22 5q25 -8 50 -8q46 0 88 18l8 -15l10 6q14 -2 21 -12.5t7 -23.5l-1 -12 q-31 -8 -61.5 -18.5t-62.5 -10.5q-21 0 -41.5 1.5t-41.5 3.5q8 -6 23.5 -7t25.5 -1q39 0 78 5.5t77 17.5q-4 -12 -12 -19.5t-18 -12t-21.5 -6.5t-22.5 -3l-25 10q-13 -4 -25.5 -5t-25.5 -1q-14 0 -26.5 3.5t-26.5 3.5q0 -4 6 -6.5t15.5 -4t21.5 -2t23 -0.5q13 0 23 0.5 t14 0.5q-23 -3 -45 -3q-14 0 -29 1t-29 3q0 -32 -10.5 -61t-22.5 -58q29 -7 57.5 -13t57.5 -6q15 0 29 3t29 3l13 -8q-14 -11 -33 -13.5t-36 -2.5q-29 0 -57 3q-26 4 -52 10q28 -8 55 -12q30 -5 60 -5q17 0 34 2t31 13l9 -13q4 3 11 14t14.5 22t14 20t9.5 9q8 0 14.5 -12 t6.5 -19q0 -29 -12.5 -49t-32.5 -32t-45 -17.5t-50 -5.5q-50 0 -96.5 13t-94.5 27l-5 -5q50 -13 99 -27t101 -14q32 0 64 9t55 32q-22 -29 -55 -44t-69 -15q-56 0 -110 13.5t-107 30.5l-13 19q-18 -18 -45 -29.5t-51 -11.5q-34 0 -67 5t-66 12q-3 15 -7 30t-4 30zM29 101 q0 -11 2.5 -22t4.5 -22q3 -1 9 -2t13 -2.5t13.5 -3t9.5 -1.5q-13 5 -26 18t-13 37q0 4 -5 9t-5 10v2q-3 -12 -3 -23zM76 126l3 -6l76 -3l-3 3zM97 170q6 1 12 1h11q20 0 40 -3q16 -3 33 -6q-17 4 -32 7q-19 4 -39 4q-13 0 -25 -3zM233 174l9 -3q17 19 23 47t6 53 q-2 -2 -4 -2l-1 1q0 -24 -8.5 -51t-24.5 -45zM359 113q2 -1 3 -2q-1 1 -3 2z" />
<glyph unicode="&#xa4;" horiz-adv-x="738" d="M50 194q0 10 6.5 17.5t12.5 14.5l15 -1q4 12 13.5 20t20.5 14t22 12.5t19 15.5l-2 5q-22 -13 -42.5 -27.5t-38.5 -32.5q20 23 43 41t51 30q-8 26 -10.5 53.5t-2.5 55.5q0 26 6 52t14 51q-21 16 -41.5 33t-37.5 37q0 17 -9 27q6 5 12.5 11.5t14.5 8.5l7 -6l8 7 q0 14 13 29.5t28 15.5q7 0 12.5 -4.5t9.5 -10.5l9 -12q5 -6 11 -9q19 4 44 4q27 0 55.5 -5t56.5 -12.5t54.5 -16.5t49.5 -17l-3 -10q9 -2 19.5 -4.5t18.5 -8.5q11 25 34 42.5t51 17.5l8 -1l16 7q7 -7 10 -18q-17 -2 -33 -6.5t-32 -9.5q17 2 33 6.5t33 4.5q2 -18 9.5 -34.5 t9.5 -34.5l-11 4q-2 -1 -6 -1q-3 0 -5.5 0.5t-4.5 0.5q-8 0 -15 -8q6 2 11.5 4t11.5 2q7 0 13 -5t6 -12l-1 -4l-10 2l-5 10q-2 -4 -5.5 -5t-7.5 -1.5t-7 -2t-3 -6.5l5 -6q2 6 7.5 8t11.5 3q-9 -2 -14 -10t-9 -16q23 -33 33 -72.5t10 -79.5q0 -44 -16 -90q28 -30 38.5 -57.5 t10.5 -68.5q0 -11 -3 -20l5 -16q-9 -7 -17 -10q-3 12 -4 25t-1 26v20q-1 -7 -1.5 -13t-0.5 -12q0 -12 1 -23.5t1 -23.5l-16 -5l2 -5q-8 -8 -20 -12.5t-23 -4.5l-10 1q1 5 1.5 10t0.5 11q0 17 -3 37t-7 32q2 -14 3 -27.5t1 -27.5q0 -16 -3 -34q-11 2 -14 10t-3 17v7l11 7 q-3 6 -4 15t-1.5 18.5t-3 17t-9.5 10.5l-5 -2q9 -13 10.5 -29t1.5 -31q-5 34 -20 65q-66 -34 -138 -34q-48 0 -94.5 14.5t-83.5 45.5q-8 0 -20 -5t-24.5 -11.5t-24 -14t-18.5 -11.5l-16 4q7 13 16.5 22t24.5 12q-15 0 -26 -10.5t-19 -21.5l-16 5l-9 -6q-27 0 -45 18 q7 8 16.5 20t20.5 23.5t21.5 22t18.5 15.5q-25 -14 -44.5 -34.5t-37.5 -41.5zM149 542l29 -23l3 9q-14 13 -29 18zM228 633l11 -8q51 -4 101 -13q49 -9 96 -25q-50 17 -103 30q-54 14 -105 16zM281 424q0 -39 5 -69.5t19.5 -52t41 -32.5t70.5 -11q54 0 86 22.5t32 80.5 q0 27 -10 51.5t-30 43.5q-18 17 -44.5 30t-56 22.5t-59 15.5t-53.5 10q11 -5 19 -11t8 -13q0 -20 -13 -36l-9 6l-2 -8l6 -4q-8 -9 -9 -21.5t-1 -23.5zM301 548q34 -11 68 -20t69 -18q-34 12 -68 21t-69 17zM404 144l2 -6q38 0 75.5 7t70.5 26l-6 7q-32 -18 -68.5 -26 t-73.5 -8zM473 572l2 -1q13 -5 26 -11v2l-26 10h-2zM509 478q3 -2 8 -8.5t10.5 -15t9.5 -17.5q3 -5 4 -9q-1 4 -2 9q-3 9 -8 18t-10.5 15.5t-11.5 7.5zM547 408q2 -14 4 -27t2 -27v-7l1 21q0 10 -2 20t-5 20zM586 494q20 -32 30.5 -69t10.5 -75q0 -18 -3 -36q-2 -17 -7 -33 q7 17 9 35q3 19 3 39q0 14 -1.5 34.5t-6 41.5t-13 38t-22.5 25zM606 496q11 -12 18.5 -28.5t11.5 -35t5.5 -37t1.5 -34.5q0 -23 -3.5 -45.5t-11.5 -44.5l6 -6q9 22 12.5 45.5t3.5 46.5q0 38 -10 75.5t-31 69.5z" />
<glyph unicode="&#xa5;" horiz-adv-x="625" d="M50 605q8 3 11.5 11t12.5 8q16 -6 24 -23l9 7q-6 12 -10 25t-4 27q0 8 4.5 14.5t12.5 6.5q16 0 36 -18t40.5 -46.5t40 -63t36 -67t28.5 -59.5t16 -40q12 24 24 58.5t23 71.5t20 73t14 63q1 4 2.5 12.5t4 16.5t7 14t10.5 6l6 -3q-11 -34 -21 -78t-21.5 -90t-25.5 -89 q-14 -42 -30 -73q18 31 32 72q14 43 25.5 88.5t22.5 89.5t23 77l13 -6l3 1q2 9 7.5 18t16.5 9t18.5 -14t12.5 -22l-11 -32q7 15 15 26q2 -5 4 -10.5t2 -11.5q0 -8 -5 -26t-11.5 -38.5t-13.5 -39t-10 -27.5l-10 3q-8 -35 -21 -77.5t-32 -73.5l7 -1l7 15l-4 -15q22 -2 43.5 -6 t44.5 -4q6 0 13 1t15 1q10 0 17.5 -4t7.5 -16q-38 0 -75 2t-75 7l-1 -1q38 -5 77 -7.5t88 -8.5q9 -8 9 -20q0 -9 -4.5 -16t-9.5 -15q-38 5 -77.5 10.5t-77.5 5.5h-7l-43 -1q50 -4 100 -6t98 -16q-5 -5 -11 -8t-13 -3q-17 0 -33 2t-33 3v11q-8 -1 -15.5 -1.5t-15.5 -0.5 q-22 0 -43 2t-43 4l-6 -8q23 -1 45 -2q16 -1 32 -3q-16 1 -33 1h-47l-14 -24h35q31 0 62 -1t62 -5q10 -5 20.5 -10t21.5 -5q-1 -3 -1 -9t-0.5 -12t-3 -10t-8.5 -4q-3 0 -9 2l-1 -11q10 -6 15.5 -9t5.5 -14q0 -15 -11.5 -21t-24.5 -6q-20 0 -39 3.5t-39 3.5q-12 0 -23.5 -1 t-23.5 -1q-2 -20 -12 -44.5t-10 -44.5v-7q0 -9 -2.5 -12t-16.5 -3l4 34q-3 -10 -8 -21q-6 -12 -17 -12v-6q-12 -5 -22 -5q-8 0 -16.5 1.5t-16.5 6.5q6 10 9.5 25t5.5 31.5t3 32t1 27.5q-3 -12 -4.5 -27t-4 -30.5t-6.5 -30t-11 -25.5l-11 12q2 8 3.5 23.5t3.5 23.5l10 -1 q-1 3 -1 9q0 14 3.5 26.5t5.5 26.5l-8 1q-3 -26 -9 -49q0 3 1 10.5t1.5 15.5t1 14.5t0.5 8.5q-11 1 -21 3t-21 2q-5 0 -13 -1.5t-15 -1.5q-8 0 -12.5 3t-4.5 13q0 1 8 2t17 1l19 1q10 1 13 1q-14 1 -28.5 1t-28.5 2q1 2 1 6q0 5 -2 11l-10 -1q-6 5 -9 3.5t-3 6.5t3 15.5 t7 14.5q7 -3 21.5 -4t31 -1.5t32.5 -0.5t26 -2l2 3q-27 0 -54.5 2.5t-53.5 9.5q3 5 8.5 9t11.5 4l57 -3v-10q8 2 15 2h36l-5 6q-8 0 -15.5 0.5t-15.5 1.5h30l-17 22l-88 -1q-11 6 -24 8.5t-26 2.5q1 2 1 6q0 5 -1 9t-1 8q0 13 14 13l8 -1v11q-11 5 -21.5 14.5t-10.5 23.5 q0 8 7.5 10.5t18.5 2.5q10 0 19.5 -1t15.5 -1l35 -1q-5 21 -23 53t-41 64.5t-45.5 62t-36.5 46.5zM254 275l22 -30h12l-23 31zM302 241h10l21 35h-10zM317 241q9 0 17 -0.5t18 -0.5q7 0 13.5 1t12.5 3l-1 1q0 1 0.5 2t0.5 2h-56zM326 281h10l6 8l-11 1zM383 376h3 q7 13 13.5 30t12 35t10.5 35q4 16 9 30q-11 -29 -22 -65q-12 -37 -26 -65zM416 391q7 21 16 49q8 27 17 47q-8 -20 -15 -47q-8 -29 -18 -49zM418 276h14h-14z" />
<glyph unicode="&#xa6;" horiz-adv-x="254" d="M50 366q2 11 2.5 16t2.5 16l12 9q0 2 -0.5 5t-0.5 6q0 11 1.5 38t4 57t4 57t1.5 38l-1 15l-1 -1q-2 0 -4 2q-2 -14 -3.5 -44t-3.5 -63.5t-4 -63.5t-4 -44q2 24 4 64.5t4.5 84t6.5 83t11 63.5q15 10 21 28q6 -2 18.5 -5.5t13.5 -11.5l-3 -7l10 -3q13 8 27 8q13 0 24 -7 t11 -21q0 -26 -6.5 -67t-14 -84.5t-14 -84.5t-6.5 -67q0 -4 0.5 -8t0.5 -8q0 -6 -2.5 -10t-10.5 -4l-6 1q1 13 2 42t2.5 61t4.5 60t7 41q-5 -12 -9 -40q-3 -28 -5 -60.5t-3.5 -61.5t-4.5 -42l-16 1v-8q-10 -7 -23 -7q-19 0 -32 9q5 9 8 39t5 65.5t3 69.5t2 51 q-3 -18 -4.5 -49.5t-4 -65t-6.5 -63t-10 -43.5zM71 59v60q0 13 2 26q11 13 11 27q3 -1 10 -1q10 0 15 1l11 -8l-1 -4l11 -1q6 9 17 14t22 5t17 -9.5t8.5 -22t3 -25.5t0.5 -20v-41q0 -24 -1.5 -48.5t-4 -48t-6.5 -40.5l7 -19q-3 -4 -6.5 -7.5t-8.5 -5.5q-4 9 -7 19t-3 20 q0 26 6 52q-7 -17 -7 -37q0 -29 6 -56l-15 -7l3 -6q-6 -10 -16.5 -17t-22.5 -7l-11 1q0 18 -2 41.5t-4.5 49t-4.5 49.5q-2 20 -2 36q-1 -3 -1 -8v-21v-33q0 -29 2 -56.5t4 -56.5q-9 2 -14 9t-7.5 16t-3 18.5t-1.5 17.5l11 3q-4 8 -5 16.5t-1 17.5q0 6 0.5 19t1 27t1 27 t0.5 19q0 17 -4 30h-5l-1 -133q-1 14 -2 34t-1.5 42t-0.5 42z" />
<glyph unicode="&#xa7;" horiz-adv-x="527" d="M50 332q0 30 12 52t32 36t45.5 20.5t52.5 6.5q-24 13 -46.5 27.5t-40 33t-28 42t-10.5 53.5q0 37 16.5 66.5t43.5 50.5t60.5 32.5t67.5 11.5q29 0 66.5 -11.5t71.5 -29t57.5 -37t25.5 -34.5v-1q0 -5 -9.5 -8.5t-11.5 -5.5q-13 11 -25.5 21t-26.5 20l-6 -9q11 -9 19.5 -22 t8.5 -28q0 -8 -5.5 -15.5t-14.5 -8.5q-9 5 -31.5 12.5t-47 15t-47 13t-31.5 5.5q-20 0 -34.5 -10.5t-23.5 -27.5q0 -9 14 -19t34.5 -20.5t44.5 -21.5t44.5 -21.5t34.5 -20t15 -18.5q34 -40 46.5 -93.5t12.5 -104.5t-13.5 -99t-50.5 -85q22 -24 43 -51t21 -61 q0 -58 -30.5 -92t-75.5 -52t-97.5 -23.5t-96.5 -5.5q-9 0 -19 3t-15 11q15 4 30 5q14 1 27 3h-8q-11 0 -23 0.5t-23 0.5v17l-27 -1q-7 2 -16 7t-9 14q0 12 10 20.5t19 13.5q11 -1 29.5 -2t40.5 -1q31 0 64.5 3t62 11.5t47.5 24t20 41.5l-4 4q-4 -29 -21 -44.5t-40.5 -23 t-50 -9t-49.5 -1.5q-22 0 -43 1t-43 3q19 9 41 12.5t44.5 5t45 2.5t43.5 7l4 -10q17 6 33.5 15.5t18.5 26.5q-23 23 -52 49t-59.5 55t-60 60t-52.5 63t-37 64.5t-14 65.5zM124 496q17 -15 36.5 -26t39.5 -22l17 1q-23 13 -46 24.5t-44 27.5zM174 325q7 -25 20 -45t29 -37.5 t33.5 -34.5t32.5 -37l14 21l10 -5q8 20 11.5 41.5t3.5 43.5q0 41 -1.5 65.5t-11 41.5t-29.5 30.5t-56 33.5q2 -9 9 -15t16 -10t18.5 -7.5t16.5 -7.5q20 -24 26.5 -56.5t6.5 -61.5q0 -23 -3 -45.5t-14 -42.5q15 37 15 80q0 7 -2 26.5t-6.5 40.5t-10.5 37.5t-13 17.5 q-14 6 -27.5 13t-27.5 15q0 -6 -5.5 -9.5t-13 -5t-15.5 -2t-12 -0.5l2 -11q7 0 18.5 -1.5t23 -5.5t19.5 -10.5t8 -15.5t-11 -14.5t-25.5 -9.5t-28.5 -7.5t-20 -9.5zM178 121q17 -15 36 -34l39 -38q20 -19 39 -36t36 -27q-71 72 -146 140zM297 424l16 -17q17 -26 23.5 -61.5 t6.5 -65.5q0 -14 -1.5 -30t-5 -31.5t-10.5 -30t-18 -23.5l1 -2q22 21 30 55.5t8 63.5q0 14 -2 31t-6 34t-10.5 32.5t-14.5 27.5q-4 5 -8 9.5t-9 7.5zM391 49q2 -4 3 -7q-1 4 -3 7zM394 42q4 -7 6 -15q3 -10 14 -18v-8q0 -36 -13 -64q5 9 10 17q6 9 6 20v3l-1 32 q-7 10 -13 19q-4 7 -9 14zM398 403v1l5 -15q-2 8 -5 14z" />
<glyph unicode="&#xa8;" horiz-adv-x="443" d="M20 754q0 7 6.5 12t15 8.5t17.5 5t14 1.5q2 0 11.5 -2.5t21.5 -6t23.5 -6t17.5 -2.5q2 0 5 0.5t5 0.5q5 0 5 -11q0 -2 -0.5 -4.5t-0.5 -4.5q-13 3 -35 5.5t-36 8.5q7 -4 16.5 -6.5t19.5 -4t19 -3.5t15 -5q0 -4 -0.5 -8t-0.5 -8l3 -1q1 -4 1 -11q0 -9 -1.5 -17.5 t-3.5 -16.5l-2 -9l-1 2q-3 4 -14 9t-19 5q-2 0 -6.5 -0.5t-9.5 -0.5t-9.5 -0.5t-5.5 -0.5q6 -1 15.5 -1.5t19 -3t17.5 -6t11 -10.5q-4 -11 -5 -11l-5 3q-1 1 -4 2l-3 12q-2 -2 -7 -2q-2 0 -8 0.5t-12.5 1.5t-12 1.5t-8.5 0.5q-7 0 -11 -5q1 -2 1 -6q7 3 16 3q3 0 8.5 -0.5 t12.5 -1t12.5 -1.5t8.5 -2q-8 2 -13 2q-6 0 -15 -1t-19 -3l-19 -3q-9 -1 -15 -2h-4q-3 5 -6.5 7.5t-6.5 6.5t-4.5 9.5t-1.5 16.5q0 4 4 4l-1 11q-7 7 -11.5 22t-4.5 27zM253 742q0 17 7 22.5t18 5.5q5 0 10 -0.5t10 -0.5q8 0 12 2.5t13 2.5q3 0 12 -3t20 -7t22 -7t18 -3 q3 0 6 1t5 1q7 0 8 -6.5t1 -13.5h-11h-7q7 -2 11 -6q6 -5 6 -16h5q2 -5 3 -11.5t1 -12.5q0 -9 -1.5 -16t-3.5 -15l-3 2q-5 3 -14 5.5t-18 4.5t-17 3t-11 1q-5 0 -9 -0.5t-9 -0.5q20 -4 39.5 -5.5t38.5 -15.5v-3q0 -3 1 -5t1 -3l-1 -1q-6 2 -15.5 3t-15.5 3l-4 10 q-8 -2 -12 -2q-10 0 -20 3.5t-20 3.5q-5 0 -11 -2t-6 -8q5 1 9 1h10q10 0 19 -2l12 -2h-6h-12q-18 0 -30.5 -1t-31.5 -1h-6q-5 6 -8.5 7t-6 2t-3.5 5t-1 16q0 6 0.5 11t4.5 5l3 -1v11q-6 6 -9 17t-3 22zM346 750q8 -5 16 -7l4 -1q-2 1 -4 1q-7 3 -16 7zM363 649q3 -1 6 -1 q-3 0 -6 1z" />
<glyph unicode="&#xa9;" horiz-adv-x="1023" d="M50 426q0 63 26.5 122.5t71 105.5t103 74t122.5 28q20 0 40 -2.5t40 -7.5l6 9q-7 5 -16.5 6.5t-18.5 1.5h-54q-27 0 -53 -1l-8 5q1 11 12 20.5t25.5 16.5t29.5 11t24 4q81 0 156.5 -28.5t142.5 -71.5q-59 39 -123.5 67.5t-134.5 37.5q11 1 20 1h21q35 0 76.5 -13 t85.5 -34.5t87.5 -50t81.5 -60t69.5 -63.5t50.5 -60l-9 -6q30 -47 39.5 -101.5t9.5 -108.5q0 -90 -9.5 -154t-30.5 -108q-19 -39 -48 -64q23 20 41 44q37 49 47 127q0 -81 -36 -130.5t-91.5 -76t-123.5 -35t-132 -8.5q-26 0 -51 0.5t-50 5.5q24 -2 49.5 -3t51.5 -1 q65 0 129.5 9.5t117.5 36.5q19 10 35 22q-32 -22 -76 -34q-49 -14 -113.5 -18t-147.5 -4q-113 0 -203 34t-152.5 97.5t-96 154t-33.5 203.5zM173 441q0 -94 29 -174t98 -146q27 -26 58 -40.5t65 -21.5t69.5 -9t70.5 -2h90q75 0 117.5 16t63.5 48t26.5 80t5.5 113 q0 57 -9 112.5t-46 101.5q-22 27 -61 56.5t-83.5 56.5t-89.5 48.5t-78 32.5q0 -7 -3 -8.5t-8 -1.5q-31 0 -60 8.5t-60 8.5v-11q47 0 91.5 -22.5t75.5 -56.5l-15 -7q-34 1 -66.5 11.5t-66.5 10.5q-33 0 -71 -19t-69.5 -49t-52.5 -66t-21 -70zM281 -10q48 -27 101 -40.5 t107 -20.5q-54 2 -107 14t-101 41v6zM382 325q0 43 8.5 85t28.5 76t53.5 55t84.5 21q26 0 50.5 -8t45.5 -22.5t38 -34.5t27 -43q-5 -2 -12 -6.5t-12 -4.5q-8 0 -17 12t-14 17l-7 -7l9 -28l-12 -24l-11 -5l-7 2q-1 -1 -2 -1q-3 0 -3 1q-20 11 -39.5 20t-42.5 9 q-7 0 -13.5 -2.5t-8.5 -9.5l-1 -1q-4 -34 -12.5 -66.5t-8.5 -66.5q0 -8 2 -16t3 -19l10 -6q15 -9 46.5 -15.5t63.5 -12.5t56.5 -12t24.5 -14l-1 -5q-23 2 -51.5 3.5t-57 6t-54.5 13.5t-45 24q15 -17 41 -26.5t55.5 -14t59 -6.5t50.5 -5l-2 -16l21 -2q6 -3 11.5 -8.5 t5.5 -13.5q0 -11 -9 -19t-17 -13q-51 11 -103.5 16.5t-96.5 21.5t-74 50t-35 100q0 -42 13 -72t35.5 -49.5t52 -31t62.5 -18.5t67.5 -11.5t67.5 -11.5q-17 -9 -36 -9q-31 0 -61.5 6.5t-60.5 13.5l2 11q-78 10 -116.5 50t-38.5 120q0 33 3.5 65.5t8.5 64.5l-3 -2l-3 2 q-15 -57 -15 -116q0 -22 3.5 -39.5t9.5 -34t14 -32.5t17 -35q-14 8 -23 27t-14.5 41.5t-8 44.5t-2.5 37zM430 175q15 -13 31 -25q15 -10 32 -17q-18 6 -35 14q-18 10 -28 28zM462 744q73 -21 141 -54t129 -78q-61 49 -126.5 83.5t-143.5 48.5zM488 270q2 -11 6 -20zM493 133 q2 -1 4 -1q-2 0 -4 1zM593 -48l146 8q13 1 27 6zM806 551q5 -5 10.5 -11t11.5 -11l-2 4zM846 608q38 -38 60 -70t33 -66.5t14 -74.5t3 -92q0 -31 -1 -67t-7 -71t-18 -68q-11 -32 -31 -57q21 24 33 53q13 31 19 64t7 66.5t1 64.5q0 48 -2 92t-12.5 84t-33.5 75.5t-65 66.5z M875 151q9 43 11 87t2 88q0 28 -3 57q1 -17 1.5 -35t0.5 -35q0 -81 -12 -162z" />
<glyph unicode="&#xaa;" horiz-adv-x="451" d="M50 499q0 25 8 47.5t17 45.5q28 8 56.5 18.5t58.5 10.5q9 0 20 -2.5t16 -10.5q-35 -6 -71 -11t-70 -18l-10 -32q-4 -14 -4 -30q2 16 6 29q4 14 10 29q32 14 67 18.5t70 4.5v-17l25 2q7 -2 13.5 -6t9.5 -11q0 7 -2.5 22t-7.5 30t-12 26.5t-16 11.5h-43q-20 0 -39.5 -3 t-39.5 -5q-2 4 -2.5 7.5t-1.5 6.5q0 6 5 9t12 5t14 3t11 1l-2 10q-7 0 -18.5 1.5t-22 5t-18 10t-7.5 16.5q0 13 19 22t44 14.5t49.5 8t35.5 2.5q50 0 83 -25.5t52.5 -64t27.5 -84t8 -85.5q0 -42 -11.5 -74t-31.5 -68q-26 -4 -53 -6.5t-54 -2.5q-34 0 -69.5 6t-65 22 t-48 42.5t-18.5 68.5zM60 205q0 11 13.5 17.5t31.5 9.5t36.5 3.5t28.5 0.5q42 0 82.5 -10t82.5 -10q5 0 10.5 1t10.5 1q6 0 10 -4t4 -16q-30 2 -60.5 4t-59.5 10q29 -10 59 -12t60 -7q-1 -3 -1 -8q0 -6 1 -8h9q7 -10 7 -23q0 -8 -3 -16l-6 -16h-3q-16 0 -32 2q15 -3 30 -9 q-6 -8 -16 -11l-17 3q-5 1 -16 2l-12 11q-6 -1 -11.5 -1.5t-10.5 -0.5q-20 0 -39.5 3t-39.5 3q-5 0 -14.5 -1t-9.5 -8q31 -1 61.5 -1t61.5 -5q-35 3 -68 3q-35 0 -69 -1.5t-68 -1.5q-7 4 -13.5 5.5t-11 4t-7.5 7t-3 16.5q0 8 3.5 10.5t11.5 2.5v11q-23 13 -23 39zM74 472 q8 -29 26 -47q19 -19 44 -29.5t53 -14.5q26 -3 50 -3q-23 1 -48 5q-28 5 -53.5 15.5t-45.5 28.5q-18 18 -26 45zM126 514l15 4v-15l1 1q0 9 2.5 13t12.5 4l5 6q-10 -2 -17 -4q2 5 3 8.5t3 5.5l-5 -1q-3 -14 -8 -14t-12 -8zM141 497q0 -13 7 -21.5t17.5 -14t23 -7.5t22.5 -2 l67 4v1q-9 -1 -25.5 -1.5t-25.5 -0.5q-11 0 -24 2.5t-25.5 7.5t-22.5 13t-14 19zM152 501q4 -12 15.5 -18.5t25.5 -10t28.5 -4t25.5 -0.5h4q6 0 13 1.5t7 7.5q-7 0 -20 -1t-27 -1q-22 0 -41 4q-16 4 -20 16q3 -5 10 -8q9 -4 20 -6t22 -2.5t17 -0.5q14 0 29 3t15 22 q0 14 -0.5 27t-1.5 27q-4 -10 -12 -17t-16 -13l-20 2q-10 1 -21 1q-24 0 -39 -8q5 0 10 0.5t10 0.5q11 0 23 -1l24 -2q-14 -7 -39.5 -12.5t-41.5 -6.5zM230 137q35 -4 71 -6q13 -1 25 -3l-6 2q-26 8 -52 8h-3zM274 470h3q8 0 8 9l-9 -1zM277 482q10 0 10 13q0 11 -0.5 22.5 t-1.5 22.5l-6 -1q0 -14 -1 -28.5t-1 -28.5z" />
<glyph unicode="&#xab;" horiz-adv-x="661" d="M50 271q0 38 14.5 78t37.5 78.5t51 72.5t55 59q13 12 27 21t27 23q5 -6 13.5 -11t8.5 -13q0 -4 -6.5 -11.5t-8.5 -9.5l8 -7q9 5 18.5 9t20.5 4q10 0 17.5 -5t7.5 -16q0 -12 -13 -30.5t-32 -41.5t-41.5 -49.5t-41.5 -53t-32 -53t-13 -49.5q0 -21 18.5 -40.5t40.5 -36 t41 -30t19 -20.5l-4 -10q-20 11 -43 25t-43 31t-33.5 38.5t-13.5 47.5l-1 -8q0 -22 14.5 -42.5t34.5 -38.5t42.5 -32.5t39.5 -24.5l-8 -15q8 -2 14.5 -9.5t6.5 -15.5q0 -14 -11.5 -21t-22.5 -9q-20 19 -44 35.5t-47.5 33.5t-44.5 36.5t-34 43.5q12 -24 30.5 -44.5t40.5 -39 t44.5 -35t43.5 -32.5q-16 0 -32.5 7t-32 17.5t-29.5 22.5t-25 22l7 8q-34 26 -55 63t-21 80q0 38 16 74.5t33 69.5l-2 -1l-3 4q-21 -35 -36 -69.5t-15 -76.5q0 -30 10 -58q9 -28 26 -52q-18 23 -28 50q-11 27 -11 57zM221 232q20 35 38 68.5t45 63.5q21 22 52.5 48.5 t63.5 53t59.5 52t40.5 47.5q5 -5 15.5 -8t10.5 -11q0 -5 -4 -12t-7 -11l8 -6q10 8 23.5 16.5t26.5 8.5q7 0 12.5 -4t5.5 -12q0 -18 -12 -39t-31.5 -44t-43 -45.5t-47 -43.5t-44 -39t-32.5 -31q19 -16 33 -35.5t27 -40.5q4 -8 15.5 -20.5t23.5 -25t21 -22.5l10 -9l-1 -7 q-21 5 -37 16.5t-30 28.5q12 -18 28 -31t37 -19l-4 -13q8 -3 21.5 -11t13.5 -17q0 -11 -8 -19t-18 -12q-31 7 -54 19.5t-41.5 29t-34.5 37.5t-34 45q15 -23 30 -44t32.5 -39t38.5 -32t50 -21q-5 -2 -9.5 -3t-9.5 -1q-21 0 -40 9.5t-35 24t-29.5 31.5t-24.5 33l9 7 q-17 18 -27 30.5t-17.5 20.5t-13.5 13.5t-16.5 11t-26.5 11.5t-42 15q26 42 52 80t61 73l-4 4q-22 -19 -38.5 -38t-30 -38.5t-25.5 -41.5t-27 -47q34 -10 53.5 -15.5t33 -13.5t24.5 -22q10 -13 26 -37q-16 23 -27 35q-12 14 -26.5 21.5t-35 12.5t-53.5 14zM257 250l3 -1 l14 28q-5 -7 -9 -13.5t-8 -13.5zM284 242q16 -5 30.5 -12t27.5 -18q-16 14 -27 19.5t-31 10.5zM363 149q1 -2 3 -4q-2 2 -3 4zM387 269q5 -7 11 -13t11 -12l-21 26z" />
<glyph unicode="&#xac;" horiz-adv-x="533" d="M50 472q0 11 18.5 17.5t45 10t55 4.5t49.5 1q68 0 133 -5t132 -12l-1 -49q0 -17 -1.5 -45t-4 -55t-7 -46.5t-11.5 -19.5q-3 0 -7 2q7 44 9 92q-1 -22 -4 -44q-3 -23 -10 -46l-16 4q0 -8 -5.5 -13.5t-13.5 -5.5q-11 0 -20 7t-17 15q9 17 10.5 36.5t3.5 38.5 q-4 -17 -9 -34.5t-10 -34.5l-6 10q-3 5 -3 10q0 15 3.5 30t3.5 30h11l-7 10l-4 -6q-5 5 -18 6.5t-23 1.5q-54 0 -106.5 -1t-105.5 -4q-27 11 -53 11l1 6q0 5 -0.5 9t-0.5 8q0 7 4 9.5t18 2.5v11q-12 5 -22.5 14.5t-10.5 23.5zM299 384h88v8q-7 1 -23 1h-23q-23 0 -42 -4 l1 -1q0 -1 -0.5 -2t-0.5 -2zM413 474l24 -4q13 -2 27 -4q-2 -16 -2 -30q0 -10 -1 -22q2 13 4 24q2 15 4 31q-14 2 -30 3q-14 1 -26 2z" />
<glyph unicode="&#xad;" horiz-adv-x="416" d="M40 343q0 17 14 23t31 6q11 0 21 -1t21 -1q16 0 31 2.5t30 2.5q9 0 25 -1t35 -3.5t37.5 -6t32.5 -8.5q7 0 14.5 1t13.5 1q10 0 12 -5.5t2 -11.5v-3q-30 0 -60 1q-26 2 -51 7q24 -6 51 -7q31 -2 60 -7q-2 -8 -2 -12q0 -1 0.5 -2t0.5 -2l9 -2q8 -9 8 -22q0 -16 -10 -31 l-4 2q-25 8 -59 11t-56 3q-8 0 -16 -0.5t-16 -0.5q37 -4 74.5 -6t72.5 -16q-9 -11 -17 -11q-12 2 -20.5 3t-19.5 2l-7 11q-5 -1 -10.5 -1.5t-10.5 -0.5q-20 0 -38.5 3.5t-37.5 3.5q-15 0 -33 -5q1 -1 1 -3v-2q8 0 16 0.5t16 0.5q24 0 47.5 -2t47.5 -5q-33 3 -67 3 q-33 0 -66 -1.5t-68 -1.5h-12q-8 5 -14.5 6.5t-11.5 3.5t-7.5 7t-2.5 18q0 5 2 8.5t7 3.5l6 10q-11 6 -16.5 16.5t-5.5 21.5zM244 348q2 -1 5 -2q-2 1 -5 2z" />
<glyph unicode="&#xae;" horiz-adv-x="1130" d="M50 413q0 94 34 158t92 104t133 58t158 20l4 -22q-4 -6 -20 -10.5t-36 -7.5t-38.5 -5t-26.5 -3l2 -10q5 1 14 1h23q20 0 45 -1t46.5 -4t36 -8.5t14.5 -14.5q0 -5 -14 -9t-32 -7.5t-35 -5.5t-23 -3q-52 -8 -98 -22.5t-81 -41.5t-55.5 -68t-20.5 -101t21.5 -107.5 t57.5 -83.5t83.5 -61.5t100 -42t107 -24t103.5 -7.5q70 0 129 15t101.5 48t66.5 86t24 130q0 80 -27 134.5t-67.5 89.5t-88.5 55t-90.5 32t-73.5 19.5t-37 18.5l2 5q71 -11 141 -32t129 -63q-57 42 -125.5 65t-138.5 34l3 16q-7 1 -28.5 3t-44.5 6t-41 9.5t-18 12.5t11 12 t25.5 9t28.5 6t19 2q28 0 55.5 -3t54.5 -8l-73 15q64 0 137 -17t138.5 -50.5t116 -83.5t70.5 -116l-5 -14q17 -40 25.5 -82t8.5 -86q0 -99 -34.5 -170.5t-94 -118t-139 -68.5t-170.5 -22q-79 0 -154 18t-149 44l-3 -8q75 -25 151 -44t156 -19q94 0 174 23.5t139.5 71.5 t93.5 121q31 68 36 159q-4 -92 -36 -161q-35 -74 -95 -122.5t-142 -72t-176 -23.5q-68 0 -137 12t-133.5 37t-121 62t-98.5 87.5t-66 114t-24 140.5zM346 429q0 33 8 63.5t24.5 54.5t42.5 38.5t63 14.5q38 0 70 -15.5t55.5 -41.5t36.5 -60t13 -70q0 -18 -12.5 -34t-28.5 -26 q8 -8 35.5 -25t57.5 -35.5t54 -34.5t25 -22l-5 -7q-40 26 -80 50.5t-78 53.5q37 -29 76 -55t77 -52l-9 -12q4 -3 11 -9.5t14 -13.5t12 -14t5 -13q0 -10 -9 -12.5t-16 -2.5t-13.5 1t-13.5 3q-27 19 -59.5 39t-66.5 40.5t-67 41.5l-2 2q30 -21 61 -41q32 -20 62.5 -40 t54.5 -39q-26 6 -60 25t-68.5 42.5t-65.5 48t-52 42.5l-1 3l-9 7q14 -35 22.5 -68t20.5 -77h-9l-3 -7l-96 -13q-6 5 -14 24.5t-16.5 46t-17 57.5t-15 59t-10.5 50.5t-4 32.5zM459 435q0 -5 0.5 -10.5t1.5 -10.5l1 -2q0 -10 3 -19l4 1v18h4l2 -17l5 1l9 17l32 2l3 -12l27 5 q0 11 -5.5 27t-14.5 30.5t-20.5 25t-24.5 10.5q-10 0 -15.5 -8t-8 -18.5t-3 -21.5t-0.5 -18zM466 448q0 5 0.5 13t3 15t6.5 12t11 5q10 0 20 -8.5t18.5 -21t14 -25.5t5.5 -22l4 1l-5 -4q0 10 -5 22t-12.5 23t-17 19.5t-18.5 12.5l-13 -4q-2 -14 -4 -33.5t-2 -33.5v-3l1 -1 h-4q-3 16 -3 33zM480 514q17 0 32.5 -10t27.5 -25t19 -33t7 -34q0 -10 -7 -14t-14 -5q10 0 17.5 4.5t7.5 17.5q0 14 -7 31.5t-18 32.5t-25.5 25.5t-29.5 10.5zM490 415q2 5 6.5 9.5t10.5 4.5q3 0 7 -2l7 -11zM563 555q32 -25 53 -62t21 -78q0 -14 -12 -26.5t-23 -21.5 q15 6 26 19q11 14 11 28q0 41 -21.5 79t-54.5 62zM716 -9q78 9 141 35q64 28 109 74.5t69 111.5t24 148q0 69 -18.5 126.5t-53 104.5t-83.5 84.5t-110 64.5q57 -27 105 -65.5t83 -87t55 -106t20 -121.5q0 -79 -25 -143.5t-70.5 -112t-109.5 -76.5q-62 -28 -136 -37zM867 117 q32 15 55.5 43t39.5 62t23.5 71t7.5 69q0 14 -4 28q-4 13 -7 27q2 -15 3 -29q2 -14 2 -28q0 -72 -29 -134.5t-91 -108.5z" />
<glyph unicode="&#xaf;" horiz-adv-x="310" d="M20 764q0 17 11.5 22.5t25.5 5.5q9 0 17.5 -1t17.5 -1q11 0 22.5 2t22.5 2q7 0 19 -1t26 -3.5t29 -6.5t27 -10q2 -1 7.5 -2.5t7.5 -1.5q4 0 7.5 0.5t6.5 0.5q7 0 10 -3.5t3 -8.5q0 -2 -0.5 -4t-0.5 -4q-26 2 -52 6.5t-49 11.5q23 -10 49 -13.5t52 -10.5q-2 -10 -2 -16 l8 -1q5 -10 5 -20q0 -11 -3.5 -17.5t-6.5 -16.5q-27 12 -60 15.5t-60 5.5q29 -5 58.5 -8.5t57.5 -19.5q-4 -5 -6.5 -7.5t-7.5 -2.5q-8 0 -16.5 2.5t-17.5 4.5l-3 11q-3 -1 -7 -1h-6q-17 0 -33 4.5t-33 4.5q-13 0 -24 -4v-5q27 0 47 -2t46 -7q-23 2 -45 3t-46 1h-70 q-6 6 -11 7t-9 2.5t-6.5 5t-2.5 13.5q0 8 1.5 13.5t6.5 5.5q1 0 2 -0.5t3 -0.5v11q-8 6 -13 17t-5 22z" />
<glyph unicode="&#xb0;" horiz-adv-x="435" d="M50 679q0 70 40.5 114t103.5 66l9 -26v-6q7 2 12.5 2.5t12.5 0.5q21 0 41 -8t37.5 -21t32.5 -29t25 -32l-10 -6q23 -32 23 -72q0 -32 -13 -55t-34.5 -37.5t-49 -21t-55.5 -6.5q-29 0 -57.5 5.5t-54.5 20.5q0 -4 -3 -4q26 -19 55.5 -25t60.5 -6q32 0 60.5 9t50 26.5t34 43 t12.5 57.5v10q0 6 -1 11q3 -14 3 -26q0 -33 -13.5 -58.5t-36 -42.5t-51.5 -25.5t-59 -8.5q-35 0 -67 9t-56 27.5t-38 47t-14 66.5zM172 674q0 -10 8.5 -15.5t20.5 -8t23.5 -3t17.5 -0.5q8 0 18 4t10 15q0 22 -10.5 32t-23.5 15t-24.5 8t-13.5 11q-11 -12 -18.5 -26.5 t-7.5 -31.5zM188 818q30 -2 60.5 -13t55.5 -30t40.5 -45.5t15.5 -60.5q0 -27 -10 -47t-26.5 -33.5t-38 -21.5t-44.5 -12q21 1 43.5 9t39.5 22t28 33.5t11 44.5q0 34 -14.5 61t-37.5 47.5t-52.5 33.5t-59.5 19zM207 741q14 -2 29 -8t27 -15.5t20 -22.5t8 -29q0 -11 -7.5 -19 t-15.5 -10q10 0 17 9t7 20q0 15 -7.5 28t-19.5 23t-26 17.5t-27 10.5z" />
<glyph unicode="&#xb1;" horiz-adv-x="537" d="M30 82q0 9 5.5 14.5t13.5 8.5t17 4t16 1q85 0 164.5 -15t163.5 -28l10 -1q4 0 9.5 0.5t10.5 0.5q10 0 17.5 -3t7.5 -14v-3q-43 2 -85.5 7.5t-84.5 17.5q41 -15 83.5 -20t85.5 -10q-2 -4 -2 -8q0 -5 2 -9h11q11 -9 11 -24q0 -17 -14 -31q-14 6 -41.5 10.5t-59 8t-61 6 t-46.5 4.5q51 -9 101.5 -15t100.5 -21q-5 -4 -10.5 -7t-11.5 -3q-17 0 -29.5 3.5t-29.5 5.5l-9 10q-4 0 -7 -0.5t-7 -0.5q-37 0 -72 9.5t-71 9.5l-20 -1v-6q38 -2 75 -7l62 -9q-59 7 -118 10q-66 4 -132 9q-21 12 -46 12q1 2 1 6q0 5 -1 9t-1 8q0 13 13 13l8 -1v11 q-11 5 -20.5 14.5t-9.5 23.5zM137 321q0 10 5.5 16.5t13.5 10t17.5 4.5t18.5 1l36 -1q7 0 10 10t3.5 24.5t1.5 32t4.5 32t11 24.5t22.5 10l10 -17h11q6 11 16.5 17.5t22.5 6.5q9 0 14.5 -4.5t8.5 -11.5t3.5 -15.5t0.5 -15.5q0 -16 -2 -31.5t-2 -31.5q0 -12 10 -19t25.5 -11 t33 -6t33 -4.5t25.5 -7t10 -12.5q0 -4 -2 -8q-32 9 -66 12q-33 3 -66 8q32 -8 64 -12q34 -3 66 -13l-4 -16q7 0 10.5 -5.5t3.5 -11.5q0 -11 -5 -20.5t-13 -17.5q-8 7 -25 12t-37.5 8t-39.5 4t-30 1v-3q32 -2 65.5 -5.5t61.5 -22.5l-16 -8q-12 0 -23.5 3.5t-23.5 5.5v11 q-5 -1 -10 -1h-9q-12 0 -23.5 1t-22.5 3l-1 -6q7 -2 19.5 -3t19.5 -2l-39 1q-1 -13 -2.5 -25t-1.5 -25q0 -8 3 -14.5t3 -14.5q0 -7 -5.5 -9.5t-10.5 -3.5q-3 14 -5 28t-3 28l-1 -12q0 -11 1 -22.5t3 -22.5l-17 -4l3 -9q-5 -8 -13.5 -13.5t-18.5 -5.5q-9 0 -14.5 7t-8 17.5 t-3.5 22.5t-1 22q-1 -15 -1.5 -30t-0.5 -30q-11 6 -16.5 17.5t-5.5 23.5q0 6 1 9l4 25l8 5q-4 13 -4 30q-19 -2 -33 -2t-27 -1q-8 4 -15.5 5.5t-13.5 3.5t-9.5 7t-3.5 17q0 13 11 13l6 -1v11q-10 5 -18 15t-8 22zM336 -33q2 0 5 -1q-2 1 -5 1zM342 -34q4 0 8 -1q-4 1 -8 1z " />
<glyph unicode="&#xb2;" horiz-adv-x="523" d="M50 315l62 51l-58 -53l1 -3q31 24 71 56.5t77.5 69.5t68 76.5t41.5 77.5l-6 2q-11 -27 -32.5 -58t-47.5 -61t-54 -56t-52 -43q22 17 55.5 52t64.5 76.5t53.5 83t22.5 71.5l-46 10q-21 -7 -40 -24.5t-37 -28.5q-2 8 -7.5 12t-7.5 12q5 10 13 18t18 13l-6 8 q-11 -5 -22.5 -9t-23.5 -4q-9 0 -16 4.5t-7 12.5v9q19 38 56 64.5t81 26.5q28 0 57.5 -9t53.5 -26t39 -41.5t15 -56.5q0 -45 -9.5 -78t-26.5 -61t-40 -54.5t-49 -58.5q8 0 30 2.5t45 2.5q17 0 30 -3t13 -11l-1 -5q-34 0 -67 -1t-67 -2l-1 -1h99q17 0 34 -1l-3 -10l17 -7h11 q8 -4 14.5 -10t6.5 -15t-11.5 -17t-18.5 -13q-14 5 -29 5.5t-29 0.5q-16 0 -32 -1.5t-32 -2.5q28 -1 55.5 -2.5t55.5 -5.5q-22 -10 -46 -12.5t-47 -2.5l-84 1v10q-23 -5 -45.5 -6.5t-45.5 -1.5l-91 1l-5 -4q41 -1 81 -1h81q-25 -2 -50 -2h-112zM68 304h127q8 0 16 1l-1 1 q-25 4 -50 4.5t-51 0.5h-32zM95 325q21 15 44 29t40 35l-1 4q-20 -20 -41.5 -36t-41.5 -32zM182 397q7 0 18 11t22.5 25.5t21.5 28.5q8 12 13 18q-19 -20 -37 -41q-18 -22 -38 -42z" />
<glyph unicode="&#xb3;" horiz-adv-x="582" d="M50 347q0 7 5.5 11t13 6t15.5 2.5t13 0.5q19 -14 44.5 -23.5t53.5 -14.5t55.5 -7t50.5 -2q16 0 40 1.5t46.5 7.5t38 19t15.5 37q0 26 -14 45q-11 17 -30 27q41 -23 41 -74q0 -20 -14.5 -31.5t-34.5 -18t-41.5 -8.5t-35.5 -2q-54 0 -102 11t-97 34q25 0 48.5 -4t46.5 -8.5 t46 -8.5t49 -4h13q7 0 14 1l1 -10q9 1 25 3.5t31 8.5t26 14.5t11 21.5q0 26 -12.5 46t-32.5 33.5t-44 21t-47 8.5l-21 -7q23 0 49.5 -6t49 -18.5t37.5 -32t15 -46.5q0 -11 -12 -18t-20 -10q20 8 29 26q-3 33 -26 53t-54 30.5t-65 14t-60 3.5v93q5 -1 14 -1q31 0 55 19.5 t24 54.5q0 7 -5.5 16.5t-7.5 17.5q-14 8 -30 13.5t-33 5.5q-6 0 -14 -2l-14 6l-11 8q5 9 13.5 13.5t18.5 4.5l-1 11q-12 0 -24 -1.5t-22 -9.5q-8 -14 -17.5 -27t-19.5 -27q-7 0 -11 4t-6 10t-2.5 12.5t-0.5 11.5q0 25 12 43t30.5 29.5t41.5 17t44 5.5q37 0 70 -10.5 t58 -30.5t39 -50.5t14 -70.5q0 -11 -2.5 -24.5t-9.5 -27t-19.5 -25t-33.5 -18.5q33 -2 64 -16.5t55 -38t38.5 -53.5t14.5 -63q0 -44 -20 -73t-51 -46t-69 -23.5t-74 -6.5q-9 0 -29 1t-45.5 4t-53 6.5t-50 9.5t-37.5 13t-15 16l3 6q51 -17 99 -26.5t102 -9.5q35 0 74 4 t71.5 17.5t54 40.5t21.5 72q0 21 -5 42q-4 20 -13 38q8 -18 10 -36q3 -19 3 -40q0 -42 -19 -68.5t-49 -42t-66 -21t-69 -5.5q-57 0 -107 9.5t-103 29.5l6 16q-7 2 -15.5 5t-16.5 8t-13.5 11.5t-5.5 15.5zM392 460l2 -2zM394 458q2 0 3 -1q-2 1 -3 1z" />
<glyph unicode="&#xb4;" horiz-adv-x="335" d="M20 668q0 17 11.5 24t27.5 15l12 -6q11 11 24.5 18t27 13t26 13t23.5 19q-2 0 -2 4q-23 -15 -46 -27q-22 -12 -46 -25q37 22 73 45q37 23 85 48q3 -1 10 -1q13 0 24 6q2 -7 7 -15t5 -15t-9 -8l5 -10q13 -2 25 -14t12 -23q0 -14 -9.5 -22t-26.5 -14q-14 -7 -32.5 -18.5 t-40 -23.5t-45 -23t-48.5 -16q-6 -2 -12 -10t-11 -8t-9 3.5t-7 7.5q44 34 96 50q-26 -5 -51 -18.5t-48 -27.5q-2 4 -4.5 7.5t-5.5 5.5l-6 -5q-16 4 -25 17.5t-9 25.5l4 2q26 11 58.5 30t60.5 36q-30 -14 -59.5 -31t-64.5 -29z" />
<glyph unicode="&#xb5;" horiz-adv-x="573" d="M40 -330q0 40 5 79t10.5 78t10.5 78t5 79q0 19 -1 51t-1 71q0 30 1 70.5t4.5 84t10 86t16.5 76.5t24 56.5t34 25.5l69 10q0 -5 0.5 -11.5t0.5 -13.5q0 -29 -2 -63t-2 -56q0 -5 -1.5 -24t-3 -43.5t-2.5 -48.5t-1 -37q0 -26 11 -47.5t22 -21.5q16 0 31 6t28 16t25 21.5 t23 22.5v15q0 30 -2 78.5t-7 105.5l-3 38l13 1q5 23 23 37t42 14h2l48 -1q0 -17 2.5 -50t5 -68.5t5 -68.5t2.5 -50q0 -22 -5.5 -42.5t-15.5 -39.5v-11q11 23 19 45t8 48q0 10 -1.5 35.5t-3.5 54.5t-4 54.5t-2 35.5q2 -10 4 -35.5t4 -54.5t3 -54.5t1 -35.5q0 -26 -7.5 -49.5 t-20.5 -46.5q0 -32 2.5 -64t10.5 -64l-7 -11q-8 6 -13 21t-7 32.5t-2.5 34.5t-0.5 27l-3 -3v-14q0 -12 0.5 -26t2.5 -28t6 -26t12 -20l-13 -12q6 -4 17 -11t22.5 -15t20 -17t8.5 -16q0 -5 -4 -7.5t-10 -4t-12 -1.5h-9q-28 0 -47 12.5t-31 32t-18.5 43.5t-9.5 47l-6 -4 q4 -32 13.5 -62.5t35.5 -51.5q-29 16 -43.5 44t-20.5 59q-23 -15 -49.5 -25.5t-55.5 -10.5q-6 0 -12.5 1t-11.5 2h8h8q29 0 59 9.5t53 26.5l-1 7q-26 -13 -50 -24t-55 -11q-4 0 -12.5 1t-17 3t-16 5t-10.5 6v-9l20 -10q-12 0 -21 6q-2 -97 -13.5 -192t-43.5 -187l-11 5 q-2 -1 -5 -1q-12 0 -12 14q0 19 5.5 36.5t9.5 35.5l-10 2q-3 -10 -9.5 -27t-15.5 -33.5t-20 -28.5t-24 -12q-5 0 -6.5 6.5t-1.5 9.5zM198 70q12 -9 27.5 -13t30.5 -4q14 0 30.5 4.5t33 12t32 16t26.5 16.5l-1 3q-12 -8 -27 -16.5t-31.5 -16t-33.5 -12.5t-31 -5 q-15 0 -28.5 6t-27.5 9zM280 134q11 4 25 14q15 10 30.5 22t29.5 24.5t22 20.5v2q-9 -8 -22.5 -20.5t-29 -24.5t-30.5 -23q-14 -9 -25 -15zM365 428q0 -11 1 -37.5t2.5 -55.5t3 -55.5t3.5 -36.5l2 5q-1 10 -3 35t-3.5 53.5t-2.5 54t-1 35.5q0 17 8.5 36t26.5 27 q-19 -7 -28 -24.5t-9 -36.5zM375 86l1 -7l6 4l-1 7zM414 491q3 1 10 1q9 0 18.5 -1t19.5 -2q0 -13 -1 -25t-1 -24v-8q0 -4 1 -8q0 17 1 33.5t2 33.5q-10 1 -19.5 1.5t-19.5 0.5q-5 0 -11 -2zM465 412q1 -5 2.5 -26t2 -45t1 -45t0.5 -27q0 -12 -2.5 -24t-2.5 -24q3 8 5.5 19 t2.5 19q0 7 -0.5 29t-1.5 47.5t-2.5 47.5t-3.5 28z" />
<glyph unicode="&#xb6;" horiz-adv-x="527" d="M30 510q0 34 16 65.5t42.5 56t60 39t68.5 14.5q63 0 97.5 -37.5t34.5 -99.5q0 -27 -5.5 -52.5t-12.5 -51.5t-13.5 -51.5t-8.5 -52.5q-4 -47 -4.5 -92.5t-0.5 -91.5t8.5 -88t8.5 -86q0 -4 -3 -13t-8 -9q-4 0 -7 8q-2 5 -4 13v-6q1 -7 3 -14q-17 0 -17 -9t6 -13t12.5 -6.5 t12.5 -5.5t6 -10q0 -17 -16.5 -26.5t-30.5 -13.5q-10 12 -19 24t-19 23q-9 69 -16 138.5t-7 139.5q0 44 3 87t4 87q-7 -31 -8.5 -62t-1.5 -63q0 -79 4 -157t12 -156q-13 21 -20 48.5t-10 57.5t-3.5 59.5t-1.5 53.5l10 6q-6 52 -6 105q0 26 2 53t7 53q-5 0 -8 -10.5 t-4.5 -25.5t-2 -31t-0.5 -28v-17l1 -93q-2 33 -2 65v66q0 19 0.5 37.5t5.5 36.5q-32 0 -61.5 9t-52.5 26t-37 42.5t-14 58.5zM153 517q0 -5 0.5 -12.5t2.5 -15t6 -12.5t11 -5q2 0 2.5 0.5t2.5 0.5q9 -5 24 -5.5t25 -0.5q1 8 2 22.5t2 30t1.5 30t0.5 22.5l-6 11 q-32 0 -53 -16t-21 -45v-5zM231 467q6 0 9 12t4.5 27t1.5 28v18q0 10 -2 19t-5 18q-2 -2 -3 -2h-1q3 -11 3 -23q0 -7 -1 -20.5t-2 -28.5t-2 -28t-2 -20zM282 222q0 -33 1 -66t4 -65q-2 30 -3 59t-1 51q0 44 3.5 87t9.5 86q-9 -38 -11.5 -76t-2.5 -76zM340 18l2 81l9 5 q-3 22 -3 46q0 41 5 81t5 82q0 11 -0.5 21.5t-1.5 21.5h-6q-1 -57 -4 -113q-3 -51 -5 -104q0 86 5 170q5 88 5 178q0 25 5.5 48.5t5.5 48.5q2 -1 6 -1t8 1t8 1q10 0 12 -8t2 -16v-4h10q2 6 5.5 13.5t8.5 14t11 11.5t13 5q11 0 17.5 -12t9.5 -28t3.5 -33t0.5 -26 q0 -54 -4 -108.5t-9.5 -108.5t-9.5 -108t-4 -108q0 -10 2.5 -23t2.5 -25q0 -11 -4 -19t-17 -9l-2 29q0 -7 -3 -20t-13 -13q4 -6 8 -15t4 -18q0 -8 -5.5 -15t-14.5 -7q-25 0 -36 16t-11 39q0 69 3 138.5t5 138.5q-5 -60 -6 -120.5t-3 -120.5l-1 -1q-2 -10 -4 -19t-2 -19 q0 -13 3 -23q-7 12 -11.5 26.5t-4.5 28.5zM432 113l4 56q3 30 7 59q-6 -29 -9 -58q-2 -28 -2 -57z" />
<glyph unicode="&#xb7;" horiz-adv-x="375" d="M50 388q0 14 9 19l39 34q4 3 17.5 4t30.5 2.5t34.5 4.5t30.5 11q5 3 9.5 7t9.5 7q4 2 6 2q6 0 11.5 -6t10.5 -15q-15 -8 -25.5 -14.5t-20.5 -12.5t-20.5 -11.5t-26.5 -9.5q16 2 27 7t21 11t21 12t28 11q0 -5 3 -11q4 -8 9 -9l6 3q14 -9 26 -27q4 -8 7 -16t6 -14l2 -14 q-23 -2 -50.5 -13t-41.5 -19q-9 -5 -16.5 -11.5t-15.5 -13.5q29 15 57.5 30.5t64.5 15.5h5v-7q0 -12 -4 -13l-18 -7q-7 -3 -15 -8l-14 12q-8 -10 -20 -18q-12 -7 -25 -11.5t-25 -11.5q-9 -5 -16 -11.5t-12 -17.5q2 -2 2 -1.5t2 -4.5q13 11 25.5 20.5t26.5 17.5q24 13 51 23 q-5 -3 -9.5 -4.5t-9.5 -4.5q-18 -11 -26 -19t-15 -17t-18 -19.5t-35 -24.5q-5 1 -10 1.5t-9 0.5q-12 0 -22 -5q-2 8 -8 16.5t-8 16.5q-4 8 -4 11q0 6 10 10l-8 15q-11 2 -21 12t-17 22q-10 17 -16 33.5t-6 29.5z" />
<glyph unicode="&#xb8;" horiz-adv-x="369" d="M20 -208q0 14 29 35q14 -14 42 -19.5t76 -5.5q19 0 28 4q6 3 15 7q-18 -5 -32 -6q-18 -2 -44 -2q-19 0 -38 4.5t-39 21.5q10 5 18 5q16 0 22 -2t12 -3l4 -11h25q16 0 33 1t31 4t23 9.5t9 18.5q0 1 -5 4q0 -14 -15.5 -22t-46.5 -8h-16q-7 0 -15 1h17q29 0 43.5 4t20.5 9 t6.5 11t2.5 9q-2 23 -10 35.5t-17 20t-16.5 13t-7.5 14.5v2l58 38q31 -1 62 -21.5t47 -54.5q5 -10 6 -20.5t1 -24.5q0 -47 -18 -76t-45 -45.5t-59.5 -22.5t-61.5 -6q-22 0 -45.5 2t-43.5 6t-33 9.5t-13 12.5q0 3 3 8q21 -6 35.5 -10t28 -5.5t28.5 -1.5q14 -1 31 -1 q-32 2 -58 5q-27 4 -63 18q2 4 4 7.5t2 7.5q-5 0 -13 5.5t-8 15.5z" />
<glyph unicode="&#xb9;" horiz-adv-x="411" d="M50 650q0 13 13 24t33.5 20.5t44.5 18.5t47 18t41.5 19t26.5 22l105 -51l-1 -57q-3 -40 -10 -80.5t-14 -81.5t-12 -82t-5 -80q0 -5 0.5 -10.5t0.5 -11.5q0 -8 -2.5 -13t-10.5 -5l-5 1q3 68 9 135t17 134q-14 -66 -19 -133t-12 -134q-2 0 -5 0.5t-5 0.5q-4 0 -6 -1l-1 -18 q-4 -7 -9.5 -12t-13.5 -5q-10 0 -18 7t-13 15l30 333q-5 -39 -9 -80t-7.5 -82t-8.5 -82t-12 -80q-5 8 -8 17.5t-3 19.5q0 25 3.5 50.5t5.5 50.5h11q-1 7 -1 14v15q0 39 6 84t11 84l-9 -4q-4 -38 -8 -81.5t-7 -81.5q2 43 5 77q1 15 2 29t1.5 26t1.5 20t1 10l-123 -51 q-2 7 -7 12t-6 13q3 7 10.5 12t14.5 7l-5 10q-4 -1 -10 -1h-12q-15 0 -29 3.5t-14 15.5z" />
<glyph unicode="&#xba;" horiz-adv-x="456" d="M50 234q0 15 21.5 23.5t49 12.5t54 5t37.5 1q6 0 22.5 -1.5t37 -5t42.5 -7.5t40 -9t30 -10t12 -11q0 -2 -1 -5t-2 -5q-34 14 -70 19t-72 12q17 -5 35 -8l36 -6q18 -3 35 -8t34 -13l-6 -16l11 -13q0 -12 -8 -22t-16 -18q-19 12 -47 20.5t-51 8.5h-3l-37 -1q13 -1 32 -2 t38.5 -4t36 -9.5t25.5 -17.5l-13 -8q-11 0 -17 5t-16 7l-5 11q-5 -1 -14 -1q-18 0 -36.5 3t-36.5 3q-11 0 -20.5 -1t-19.5 -5v-5q14 1 27 1.5t27 0.5q12 0 24.5 -1t23.5 -3q-7 1 -14 1.5t-14 0.5q-38 0 -77 -5.5t-86 -5.5q-9 4 -16 5t-12.5 3t-8.5 7.5t-3 18.5q0 8 5 9.5 t11 1.5v10q-11 5 -18 15.5t-7 21.5zM64 567q0 36 6.5 77t23 75t46 56.5t74.5 22.5q20 0 44 -11q-25 10 -44 10q-43 0 -71 -22.5t-44.5 -56.5t-23.5 -73.5t-7 -73.5q0 -41 10 -81t37 -72l5 3q-26 34 -35 75.5t-9 83.5q0 33 5 69.5t19.5 67.5t40.5 51.5t67 20.5q31 0 58 -15 l17 4q22 -10 42 -27.5t35 -39.5t24 -47t9 -50q0 -6 -0.5 -12t-1.5 -12q5 -21 10 -42.5t5 -43.5q0 -31 -15.5 -58t-40 -46.5t-54.5 -31t-59 -11.5q-44 0 -76.5 18t-54 47.5t-32 67.5t-10.5 77zM103 679q6 17 16 33q10 18 25.5 31.5t36.5 22t48 8.5h2q-5 1 -11 1.5t-11 0.5 q-23 0 -40 -8.5t-30 -22.5t-22 -32q-9 -17 -14 -34zM170 633q2 8 4 20.5t6.5 24t12 19.5t19.5 8q15 0 28.5 -11t25.5 -26.5t22 -32t17 -27.5q-5 14 -14 31t-21 32t-27.5 25t-31.5 10q-11 0 -19 -8.5t-13 -20t-7 -24t-2 -20.5zM186 584q0 -12 2 -33.5t7.5 -41.5t16 -35 t27.5 -15q15 0 24.5 8t14.5 20t6.5 25t1.5 24t-2 22.5t-2 22.5q0 5 0.5 8.5t1.5 8.5q-5 11 -10 26t-13 28.5t-19 22.5t-26 9q-11 0 -17 -13t-9 -29.5t-3.5 -33.5t-0.5 -24zM301 739q25 -23 42.5 -54t28.5 -64l11 -11q-11 38 -31.5 70.5t-50.5 58.5z" />
<glyph unicode="&#xbb;" horiz-adv-x="714" d="M50 121q29 24 53.5 52.5t48 58.5t47 59.5t49.5 56.5q-27 -25 -50 -54l-46 -58q-23 -29 -47.5 -56.5t-54.5 -48.5q1 13 9.5 26.5t19 27t21.5 25.5t19 22l9 -6q24 40 55 74t65 66l-4 8q-29 -28 -56 -59q-26 -29 -51 -58l50 60q26 32 55 62q-7 18 -21 43.5t-30.5 51 t-33.5 49.5t-30 39l24 19l22 -18l8 7q-4 8 -6.5 17t-2.5 18q0 10 5 19t16 9q19 0 39.5 -17.5t40.5 -45.5t38.5 -62t34 -66.5t27 -60.5t16.5 -43q-60 -47 -107.5 -96.5t-98.5 -105.5q-5 -5 -12 -15.5t-14.5 -21t-15.5 -19t-15 -8.5l-11 7q22 23 41.5 48t39 49.5t40 48.5 t44.5 46q-25 -20 -46 -43.5t-40.5 -48t-39.5 -49.5t-42 -47l-12 11q-4 -5 -10 -10t-13 -5q-17 0 -22 14t-5 28zM246 124q0 12 7 26q29 6 65.5 22.5t73 37.5t69.5 44t55 43q-57 -46 -122 -82.5t-136 -54.5q7 12 20.5 21.5t29 17t31.5 14t28 13.5l6 -9q15 11 44 28t58.5 37 t51.5 41.5t22 40.5l-6 2q-5 -19 -24 -38t-43 -37t-50 -33q-25 -15 -43 -24q17 10 42 26q27 17 52.5 36.5t43.5 39t19 33.5q-29 42 -56 84t-46 89q7 2 13 6t13 4q8 0 14 -10.5t8 -15.5l9 6q-1 5 -2 10.5t-1 11.5q0 12 4.5 22t18.5 10q18 0 43.5 -26.5t49 -61.5t40 -70.5 t16.5 -53.5q0 -50 -29 -91t-71.5 -73.5t-91 -57.5t-87.5 -41q-7 -3 -17.5 -9t-21 -11.5t-20.5 -10t-17 -4.5q-11 0 -11 11q61 29 121 60.5t117 67.5q-60 -32 -118.5 -64.5t-121.5 -58.5l-7 15l-16 -8q-12 0 -19.5 6t-7.5 19zM248 377l3 -8l5 4l-3 6zM258 351l2 -6l3 13l-2 5 zM268 384l5 5l5 15l-6 -4z" />
<glyph unicode="&#xbc;" horiz-adv-x="960" d="M50 733q0 15 14.5 28t36 24t47 20.5t47.5 18t36.5 16t14.5 15.5l104 -108q-4 -39 -11 -79l-13 -80q-6 -40 -11 -80t-5 -79q0 -5 0.5 -11t0.5 -13q0 -8 -2.5 -14.5t-10.5 -6.5l-5 1q2 68 8 135t18 133q-16 -66 -20.5 -133t-11.5 -134l-16 1v-19q-4 -7 -10 -12t-14 -5 q-10 0 -18 7t-13 15q9 38 13.5 78.5t7 82t4 82.5t5.5 80q-11 -78 -16.5 -156.5t-20.5 -156.5q-10 17 -10 33q0 26 3 50.5t5 49.5l11 4q-1 6 -1 12v14q0 41 6 81t11 81l-9 -4q-4 -44 -8 -87l-8 -72q3 35 5 71q3 43 7 86q-30 -14 -62 -20.5t-61 -20.5q-2 8 -6.5 13t-6.5 13 q3 7 10.5 11.5t14.5 6.5l-5 10q-5 -1 -10 -1.5t-10 -0.5q-11 0 -20.5 4t-14.5 16zM177 9q0 10 5.5 18t10.5 16q25 0 50 14.5t48.5 37.5t45 52.5t39.5 59t32 56.5q13 24 21 42q-16 -33 -37 -70q-23 -41 -51.5 -79t-63.5 -66.5t-76 -37.5q21 25 48 43.5t49 44.5l12 -3 q45 70 88.5 140.5t68.5 151.5l-6 1q-26 -69 -60 -134q-31 -61 -72 -116q35 50 61 104q29 58 52.5 118t46.5 120.5t52 120.5q11 22 24 42t24 43q8 -1 17.5 -5t9.5 -15q0 -6 -3.5 -13t-5.5 -12l10 -4q8 13 21 23.5t30 10.5q10 0 13 -7.5t3 -15.5q0 -24 -11 -57t-26 -68.5 t-30.5 -69t-24.5 -58.5q-17 -47 -40 -98.5t-50.5 -102t-59.5 -96.5t-67 -82q-9 -9 -24.5 -25t-34 -31t-36.5 -26.5t-31 -11.5q-5 0 -10.5 2t-5.5 9q43 16 78.5 45t65 64t54.5 74.5t48 76.5q-23 -34 -48.5 -73t-55.5 -75t-65 -64.5t-77 -41.5l-5 16q-4 -2 -11 -5t-12 -3 q-9 0 -18.5 4.5t-9.5 15.5zM208 530v4v-4zM208 537q1 2 1 3q0 -1 -1 -3zM209 541v4v-4zM323 172l6 8zM588 99q0 54 14.5 102.5t36.5 97.5q21 21 33 48q3 -3 7.5 -4.5t9.5 -3t8.5 -4t3.5 -7.5q0 -4 -2.5 -9t-4.5 -8l30 1q3 3 9 8.5t11 5.5q11 0 17 -7t6 -18q0 -21 -8.5 -44 t-18.5 -48.5t-18.5 -52.5t-8.5 -56q18 -2 36 -3t36 -4q0 20 10.5 37t15.5 18l23 -7l-1 -4h11q6 8 16.5 12.5t20.5 4.5q17 0 23 -10t6 -25l-1 -80q-1 -23 -9 -44t-8 -44v-3q0 -11 4 -23q-7 -9 -15 -10q-2 9 -3 19t-1 20v37q0 6 1 12q-3 -13 -4 -30q-1 -19 -1 -33v-8l1 -19 l-16 -4l2 -7q-16 -19 -42 -19q-9 0 -11 18t-2 35v12l-2 -14q-3 -23 -3 -46q-11 4 -14.5 12.5t-3.5 18.5v5l1 22l10 3q0 2 -0.5 7t-1.5 10.5t-2.5 10t-3.5 4.5l-13 11q-11 -1 -20.5 -1.5t-18.5 -0.5q-30 0 -54.5 6t-41.5 21t-26.5 39.5t-9.5 60.5v18q0 10 1 19l-6 1 q-2 -11 -3 -21t-1 -21q0 -49 13.5 -74.5t37 -37t55.5 -13.5l28 -2h-25q-33 1 -58 11.5t-40 33.5t-15 68zM621 61q6 -24 22.5 -36t38 -16.5t44.5 -5.5t43 -2q-19 2 -41 4q-23 2 -44 7t-38 16.5t-25 32.5zM693 83q3 -3 11 -5.5t18 -3.5t19 -1.5t13 -0.5h10q6 0 11 1 q-20 2 -41 5t-41 5zM728 -14q20 -1 41 -2q-21 1 -41 2zM806 -41q2 7 2 18l-2 -20v2z" />
<glyph unicode="&#xbd;" horiz-adv-x="964" d="M50 712q0 15 13 26t33.5 19.5t45 15t47.5 12.5t41.5 11.5t26.5 13.5l99 -41q-5 -45 -12 -88.5t-14.5 -86.5t-12.5 -86.5t-5 -88.5q0 -4 0.5 -10t0.5 -12q0 -9 -2.5 -16t-10.5 -7l-5 1q2 68 7 129.5t17 127.5q-16 -65 -19.5 -127t-10.5 -129l-16 1v-19q-4 -7 -10 -12 t-14 -5q-10 0 -18 7t-13 15q9 40 13.5 80t6.5 80t3 80.5t5 80.5q-11 -78 -15.5 -155.5t-19.5 -155.5q-10 17 -10 33q0 26 3 50.5t5 49.5l11 4q-1 8 -2.5 11t-1.5 11q0 39 6.5 83t11.5 81l-9 -4q-4 -44 -7 -86q-3 -40 -8 -82q4 41 5 81q2 42 6 85q-30 -14 -62 -25t-61 -25 l-13 26q4 7 10.5 11.5t14.5 6.5l-5 10q-5 -1 -10.5 -1.5t-10.5 -0.5q-11 0 -20 4t-14 16zM169 -5q1 16 10.5 36.5t22 40.5t25.5 39.5t21 34.5l10 -6q13 31 38 66t55 71.5t61 75t54 77.5q0 -1 -2 -1q-3 0 -3 3q-49 -60 -95.5 -120t-89.5 -123q16 30 33 56t37 52q16 22 41 52 t53.5 64t57 71t51.5 72.5t37.5 68t14.5 57.5q4 -2 9 -2q4 0 8 1l8 2q9 -5 9 -16q0 -12 -3 -22l10 -2q3 5 7 15.5t10 21t12.5 18t13.5 7.5t11.5 -5.5t7 -12.5t3.5 -15t1 -12q0 -61 -28.5 -121.5t-70.5 -117t-89 -107.5t-84 -94q-9 -10 -24.5 -33t-34.5 -52.5t-39 -61.5 t-38 -58.5t-31 -44.5t-18 -20l-9 5q43 66 82 136t90 131l10 12q-18 -16 -43 -52t-51 -77.5t-50.5 -81.5t-41.5 -64l-13 9q-3 -10 -13.5 -19.5t-21.5 -9.5q-15 0 -18 13.5t-3 25.5v4q29 31 58.5 74t58 89t56.5 92t54 83q-30 -39 -57.5 -80.5t-54.5 -83.5t-55 -83t-60 -78z M553 40q21 14 53.5 40.5t64 57.5t55.5 63t29 56q-10 2 -22 4.5t-21 2.5t-20 -5t-22 -12t-21 -14.5t-18 -11.5q0 8 -6.5 12.5t-6.5 12.5t13 16t19 11l-6 9q-9 -3 -18 -5t-18 -2q-11 0 -19 4t-11 15l1 9q4 17 20.5 31t37.5 24t42.5 15.5t36.5 5.5q27 0 56 -7t53 -21.5 t39 -37.5t15 -55q0 -35 -12.5 -63.5t-32.5 -52.5t-46 -43.5t-54 -36.5q4 0 16.5 1.5t27 3t28 2.5t21.5 1q15 0 28.5 -3t18.5 -12q-18 -3 -36 -5t-36 -2l69 -3q-2 -6 -2 -7q0 -7 7 -9.5t15.5 -4.5t15.5 -5.5t7 -12.5q0 -12 -9.5 -19.5t-17.5 -13.5q-22 5 -44 5.5t-45 0.5 q-33 0 -67 -1l-60 -2h33h40q33 0 66.5 -2t65.5 -7q-11 -5 -21.5 -8.5t-21.5 -3.5h-114l-9 11q-45 -6 -91 -6h-52q-2 20 -5.5 40t-8.5 40zM567 -44l84 -2l-83 -2zM593 35q8 3 15 8.5t13 11.5l-1 4q-8 -6 -14.5 -10.5t-12.5 -13.5zM608 -21l39 -4l-1 3zM632 68q4 0 12.5 7.5 t18 16.5t17.5 18l2 2q-10 -9 -20 -17q-16 -13 -30 -27z" />
<glyph unicode="&#xbe;" horiz-adv-x="890" d="M50 454q0 11 12 18.5t24 9.5q36 -18 72 -25t76 -7q36 0 53 8.5t17 20.5q0 17 -8 26q-8 8 -18 13q15 -8 19 -19q4 -12 4 -23q0 -1 -5 -5t-14.5 -8.5t-22.5 -8t-29 -3.5q-33 0 -70 9.5t-63 24.5q9 3 21 3q26 0 54 -8t54 -8q3 0 6.5 0.5t6.5 0.5l1 -11q2 0 9.5 2t16 5t15 6 t6.5 5q0 23 -18 39.5t-41 20.5q-4 -2 -8 -3.5t-9 -3.5q27 -2 48.5 -18t21.5 -34q-4 -5 -11.5 -6t-15.5 -2q19 3 24 8q0 5 -3.5 12.5t-12.5 15t-23.5 13t-36.5 7.5h-39q-1 19 -1 30v29q0 3 1 6q18 0 37.5 14.5t19.5 50.5q-3 11 -10.5 15t-17.5 4q-15 0 -31 -5.5t-19 -5.5 q1 1 3 4q4 4 4 11q0 8 3 14.5t17 6.5l-1 11q-24 0 -33.5 -6t-14 -13.5t-9.5 -15.5t-18 -11q-4 0 -7.5 5.5t-3.5 25.5q0 27 12.5 43t30 24.5t36 11.5t30.5 3h9q15 0 39.5 -6.5t53.5 -35.5l4 -6q9 -9 18.5 -31t9.5 -47v-5q0 -6 -1.5 -15t-7.5 -18t-18.5 -17.5t-34.5 -14.5 q43 -5 69.5 -17.5t40 -28t18 -31t4.5 -25.5q0 -30 -13 -53t-35 -38.5t-49.5 -23.5t-55.5 -8q-23 0 -52.5 3t-56 8t-45 12t-18.5 15q0 4 3 7q20 -7 39.5 -11.5t39.5 -7.5q-41 8 -76 24q6 6 6 13q-20 11 -26 16.5t-6 14.5zM156 385l5 -1zM161 384q16 -3 28 -3l-18 2 q-5 0 -10 1zM206 72q0 15 5 31.5t12.5 33t17 32.5t17.5 30l16 7q18 39 42 71t50.5 62.5t53 60.5t49.5 64l-5 3q-24 -30 -49.5 -59.5t-50.5 -60t-50 -63.5q-24 -31 -46 -67q30 55 68 103q38 50 78.5 97t80 93t74.5 95q18 26 35.5 43t31.5 42q2 -4 6 -5.5t8.5 -3t8 -4 t3.5 -7.5t-2.5 -11.5t-10.5 -16.5l9 -5q18 17 31.5 24t23.5 7q6 -1 10.5 -5t4.5 -12q0 -15 -6 -31t-15 -32t-20.5 -32t-22.5 -31q-46 -60 -91 -118t-96 -108q-42 -41 -75 -87t-64 -94q-5 -8 -9 -20l-7 -24q-3 -12 -6.5 -21.5t-6.5 -12.5q-6 -7 -11 -7q-3 0 -7 2 q19 75 57 135.5t92 115.5q-54 -50 -93 -114t-61 -134q-8 4 -14 4q-4 -11 -9 -19q-5 -7 -10.5 -12.5t-10.5 -5.5q-10 0 -17 10t-12 21l4 11q28 88 76 165q45 70 103 141q-54 -63 -101 -133q-52 -78 -86 -171q-3 10 -3 23zM361 428q6 8 10 19t4 25l2 9q0 9 -3 19q-2 10 -6 21 q3 -11 3 -19q0 -6 -0.5 -11t-0.5 -10v-20q0 -20 -9 -33zM518 59q0 54 14.5 102.5t36.5 97.5q21 21 33 48q3 -3 7.5 -4.5t9.5 -3t8.5 -4t3.5 -7.5q0 -4 -2.5 -9t-4.5 -8l30 1q3 3 9 8.5t11 5.5q11 0 17 -7t6 -18q0 -21 -8.5 -44t-18.5 -48.5t-18.5 -52.5t-8.5 -56 q18 -2 36 -3t36 -4q0 20 10.5 37t15.5 18l23 -7l-1 -4h11q6 8 16.5 12.5t20.5 4.5q17 0 23 -10t6 -25l-1 -80q-1 -23 -9 -44t-8 -44v-3q0 -11 4 -23q-7 -9 -15 -10q-2 9 -3 19t-1 20v37q0 6 1 12q-3 -13 -4 -30q-1 -19 -1 -33v-8l1 -19l-16 -4l2 -7q-16 -19 -42 -19 q-9 0 -11 18t-2 35v12l-2 -14q-3 -23 -3 -46q-11 4 -14.5 12.5t-3.5 18.5v5l1 22l10 3q0 2 -0.5 7t-1.5 10.5t-2.5 10t-3.5 4.5l-13 11q-11 -1 -20.5 -1.5t-18.5 -0.5q-30 0 -54.5 6t-41.5 21t-26.5 39.5t-9.5 60.5v18q0 10 1 19l-6 1q-2 -11 -3 -21t-1 -21 q0 -49 13.5 -74.5t37 -37t55.5 -13.5l28 -2h-25q-33 1 -58 11.5t-40 33.5t-15 68zM551 21q6 -24 22.5 -35.5t38 -16t45 -5t44.5 -1.5q-20 2 -43 3.5t-44 6.5t-38 16t-25 32zM623 43q3 -3 11 -5.5t18 -3.5t19 -1.5t13 -0.5h10q6 0 11 1q-20 2 -41 5t-41 5zM658 -54 q20 -1 41 -2q-21 1 -41 2zM736 -81q2 7 2 18l-2 -20v2z" />
<glyph unicode="&#xbf;" horiz-adv-x="510" d="M50 -46q0 39 10.5 66t26 45.5t35 31t37 21t31 16t18.5 17.5q0 6 2 14.5t2 15.5q0 16 -12 25t-27 9l2 12q-2 6 -2 9q0 13 15 13q5 0 10.5 -2t10.5 -4l4 10q-6 4 -17 9t-21.5 10.5t-18 12.5t-8.5 16q3 6 9.5 9.5t15 6t16.5 3t13 0.5q27 0 51 -11.5t42 -31t29 -44t11 -50.5 q0 -40 -8 -66t-21.5 -43.5t-30 -28t-34 -19.5t-34.5 -19.5t-30 -27.5v-2l1 -2q0 -5 -2.5 -11t-2.5 -11q0 -18 6 -34q11 -6 28.5 -15t36.5 -18t36.5 -15t29.5 -6t22 5t18 11t15 11t13 5l11 -7q-23 -23 -43.5 -32.5t-52.5 -9.5l16 -1h4q24 0 43 12t36 26l11 -12q7 8 16.5 16 t20.5 8t15.5 -10t4.5 -19q0 -21 -20 -38t-47 -28.5t-55 -17.5t-44 -6t-31 5.5t-30 8.5q20 -8 37.5 -12.5t40.5 -4.5q41 0 76 18t66 43q-8 -20 -24 -35.5t-36 -25.5t-42 -15t-43 -5q-17 0 -32 3.5t-31 6.5l3 11q-27 4 -45.5 11.5t-34.5 17t-32 20t-37 20.5q-14 23 -25 47.5 t-11 53.5q0 27 4 48t13 38.5t24 33t37 32.5q-3 1 -3 3l1 2q-26 -16 -42 -34.5t-26 -37t-13.5 -37t-3.5 -34.5q0 -44 13.5 -75t37 -53t55.5 -36t69 -25q-36 8 -68 21q-33 14 -57.5 36t-39 53t-14.5 73zM102 -135q12 -20 33 -33q20 -12 40 -20q-20 10 -36 25t-37 28zM148 478 q20 39 62 39h10q7 -4 20.5 -11.5t21.5 -7.5q2 0 6 2q2 -5 3 -9.5t1 -9.5q-19 0 -38 13q7 -7 13.5 -9t11.5 -3.5t9 -6t6 -16.5h2q3 -8 6 -16.5t3 -17.5q0 -5 -1 -10t-3 -10q-17 14 -40 14l-10 -1q15 -4 24.5 -7.5t23.5 -12.5q-2 -8 -6 -12l-16 5v11q-8 -2 -9 -2q-6 0 -10 2.5 t-11 2.5q-9 0 -9 -10q11 0 19.5 -0.5t18.5 -3.5q-4 1 -8 1h-6q-11 0 -21.5 -1.5t-22.5 -1.5l-2 -1l-5 11l4 1q-5 8 -7 17t-4 17l2 -1q-2 7 -6.5 19t-13.5 12l-6 1q-3 3 -6.5 6t-5.5 7zM163 -91v-1q0 -2 5.5 -8.5t7.5 -7.5q-9 9 -13 17zM254 -142l3 -1l23 -6z" />
<glyph unicode="&#xc0;" horiz-adv-x="774" d="M20 -30q0 19 7 48.5t17.5 63.5t23.5 70.5t25 71.5q-11 7 -23.5 10t-27.5 5q3 4 3 10t1 12t4 10t11 4q2 0 12 -2v9q-16 8 -24.5 19t-8.5 22q0 24 46 24q13 0 26.5 -1.5t27.5 -3.5l46 105q15 34 32.5 70t41.5 71t54.5 66.5t70.5 56.5l15 6q28 -7 45.5 -11.5t28.5 -6.5 q10 -4 16 -5h-1l1 -3q0 -1 -1 -2l12 -21q65 -109 110 -226t77 -230q8 -25 19.5 -53.5t22 -54t17.5 -46t7 -29.5q0 -7 -3 -8.5t-8 -1.5q-26 65 -49 128q-23 62 -45 125q20 -63 42 -125q23 -63 46 -128h-7q-6 0 -8 -6q2 -2 5 -10.5t6 -18t5 -19.5t2 -15q0 -22 -13 -22 q-7 0 -11 3t-9 8l-10 10q-6 6 -15 12l-96 276q21 -65 41.5 -130t42.5 -128q-16 19 -29.5 46t-25 57t-21.5 61.5t-20 59.5q0 -2 0.5 -3.5t0.5 -3.5q0 -16 -10 -24l-9 -9l-6 3q-42 11 -89 14t-96 13q48 -10 94 -15.5t91 -20.5q-14 -9 -30 -9q-19 2 -37.5 6t-39.5 6q0 6 3 9 q-29 0 -57.5 6t-55.5 13.5t-52.5 14t-47.5 6.5q0 -3 -1 -3q26 -5 49 -14t52 -14q28 -7 54.5 -10t52.5 -8q-42 4 -85.5 12t-85.5 18l-47 12q-25 -64 -50.5 -125.5t-49.5 -124.5q-2 4 -6.5 4.5t-9 0.5t-8.5 2.5t-4 10.5t4 22.5t15 38.5q-2 2 -6.5 2.5t-6.5 0.5 q-20 -42 -38.5 -64.5t-29.5 -22.5q-12 0 -12 23zM267 323l17 -4q15 -4 29.5 -8.5t25.5 -9.5q22 -11 58 -17t70.5 -11.5t60 -12t25.5 -18.5l-122 14q11 -2 27 -4.5t32.5 -5.5t32.5 -5.5t27 -4.5q0 -3 -0.5 -5.5t-0.5 -4.5t2.5 -2.5t6 -1t6.5 -2.5q3 -1 6 -6l-20 53q2 0 6 1.5 t6 1.5q-33 83 -65.5 161t-71.5 150l-6 -6l15 -27q35 -64 63 -132t53 -140q-29 78 -62.5 155.5t-71.5 140.5l-4 -2q-34 -35 -63.5 -84t-55.5 -100zM310 882q2 5 3 11.5t2 12.5q2 9 8 9q1 0 5 -2l4 10q-6 8 -9 18t-3 18q1 5 2 10.5t4 8.5q3 1 9 4t11 3q28 0 56 -17t52 -40.5 t42.5 -48.5t27.5 -40q3 -6 11 -7t8 -7q0 -8 -4 -16q-22 11 -36.5 27.5t-28.5 39.5q11 -24 28 -42t34 -29q-2 -4 -3.5 -7.5t-2.5 -8.5q5 0 6 -4.5t1 -9.5q0 -13 -6.5 -23.5t-14.5 -15.5l-4 3q-30 25 -53 46.5t-48 46.5q17 -23 41.5 -48t56.5 -52q-8 -5 -16 -5q-5 0 -11.5 4 t-13 9.5t-12.5 11.5l-10 10l7 8q-14 7 -24 18t-18 22t-17 20.5t-21 14.5q0 -2 -4 -4q20 -15 36 -35q16 -19 36 -40q-14 14 -33 32q-21 20 -41 38t-35.5 31t-21.5 15zM333 481q2 0 1.5 -2.5t0.5 -2.5q2 0 12 14t23 32t25 34t17 21l-5 7q-21 -20 -39 -47t-35 -56zM389 623 l2 -2l8 -21l-1 21q-2 0 -4.5 1t-4.5 1zM410 587l6 -8l6 6l-5 7zM427 600l4 -6h1l-5 7v-1zM434 589q32 -54 59 -113q26 -58 49 -116q-19 58 -46 116q-28 59 -61 113h-1zM440 611q13 -3 18 -6t7 -3l1 3q1 0 -4 1t-8 2l2 4l-12 4zM441 766q2 -2 4 -3q-2 1 -4 3zM522 593 q36 -76 65 -154q31 -80 61 -163q-28 81 -59 160q-29 78 -67 157z" />
<glyph unicode="&#xc1;" horiz-adv-x="774" d="M20 -30q0 19 7 48.5t17.5 63.5t23.5 70.5t25 71.5q-11 7 -23.5 10t-27.5 5q3 4 3 10t1 12t4 10t11 4q2 0 12 -2v9q-16 8 -24.5 19t-8.5 22q0 24 46 24q13 0 26.5 -1.5t27.5 -3.5l46 105q15 34 32.5 70t41.5 71t54.5 66.5t70.5 56.5l15 6q28 -7 45.5 -11.5t28.5 -6.5 q10 -4 16 -5h-1l1 -3q0 -1 -1 -2l12 -21q65 -109 110 -226t77 -230q8 -25 19.5 -53.5t22 -54t17.5 -46t7 -29.5q0 -7 -3 -8.5t-8 -1.5q-26 65 -49 128q-23 62 -45 125q20 -63 42 -125q23 -63 46 -128h-7q-6 0 -8 -6q2 -2 5 -10.5t6 -18t5 -19.5t2 -15q0 -22 -13 -22 q-7 0 -11 3t-9 8l-10 10q-6 6 -15 12l-96 276q21 -65 41.5 -130t42.5 -128q-16 19 -29.5 46t-25 57t-21.5 61.5t-20 59.5q0 -2 0.5 -3.5t0.5 -3.5q0 -16 -10 -24l-9 -9l-6 3q-42 11 -89 14t-96 13q48 -10 94 -15.5t91 -20.5q-14 -9 -30 -9q-19 2 -37.5 6t-39.5 6q0 6 3 9 q-29 0 -57.5 6t-55.5 13.5t-52.5 14t-47.5 6.5q0 -3 -1 -3q26 -5 49 -14t52 -14q28 -7 54.5 -10t52.5 -8q-42 4 -85.5 12t-85.5 18l-47 12q-25 -64 -50.5 -125.5t-49.5 -124.5q-2 4 -6.5 4.5t-9 0.5t-8.5 2.5t-4 10.5t4 22.5t15 38.5q-2 2 -6.5 2.5t-6.5 0.5 q-20 -42 -38.5 -64.5t-29.5 -22.5q-12 0 -12 23zM239 809q0 17 11.5 24t27.5 15l12 -6q11 11 24.5 18t27 13t26 13t23.5 19q-2 0 -2 4q-23 -15 -46 -27q-22 -12 -46 -25q37 22 73 45q37 23 85 48q3 -1 10 -1q13 0 24 6q2 -7 7 -15t5 -15t-9 -8l5 -10q13 -2 25 -14t12 -23 q0 -14 -9.5 -22t-26.5 -14q-14 -7 -32.5 -18.5t-40 -23.5t-45 -23t-48.5 -16q-6 -2 -12 -10t-11 -8t-9 3.5t-7 7.5q44 34 96 50q-26 -5 -51 -18.5t-48 -27.5q-2 4 -4.5 7.5t-5.5 5.5l-6 -5q-16 4 -25 17.5t-9 25.5l4 2q26 11 58.5 30t60.5 36q-30 -14 -59.5 -31t-64.5 -29z M267 323l17 -4q15 -4 29.5 -8.5t25.5 -9.5q22 -11 58 -17t70.5 -11.5t60 -12t25.5 -18.5l-122 14q11 -2 27 -4.5t32.5 -5.5t32.5 -5.5t27 -4.5q0 -3 -0.5 -5.5t-0.5 -4.5t2.5 -2.5t6 -1t6.5 -2.5q3 -1 6 -6l-20 53q2 0 6 1.5t6 1.5q-33 83 -65.5 161t-71.5 150l-6 -6l15 -27 q35 -64 63 -132t53 -140q-29 78 -62.5 155.5t-71.5 140.5l-4 -2q-34 -35 -63.5 -84t-55.5 -100zM333 481q2 0 1.5 -2.5t0.5 -2.5q2 0 12 14t23 32t25 34t17 21l-5 7q-21 -20 -39 -47t-35 -56zM389 623l2 -2l8 -21l-1 21q-2 0 -4.5 1t-4.5 1zM410 587l6 -8l6 6l-5 7zM427 600 l4 -6h1l-5 7v-1zM434 589q32 -54 59 -113q26 -58 49 -116q-19 58 -46 116q-28 59 -61 113h-1zM440 611q13 -3 18 -6t7 -3l1 3q1 0 -4 1t-8 2l2 4l-12 4zM522 593q36 -76 65 -154q31 -80 61 -163q-28 81 -59 160q-29 78 -67 157z" />
<glyph unicode="&#xc2;" horiz-adv-x="774" d="M20 -30q0 19 7 48.5t17.5 63.5t23.5 70.5t25 71.5q-11 7 -23.5 10t-27.5 5q3 4 3 10t1 12t4 10t11 4q2 0 12 -2v9q-16 8 -24.5 19t-8.5 22q0 24 46 24q13 0 26.5 -1.5t27.5 -3.5l46 105q15 34 32.5 70t41.5 71t54.5 66.5t70.5 56.5l15 6q28 -7 45.5 -11.5t28.5 -6.5 q10 -4 16 -5h-1l1 -3q0 -1 -1 -2l12 -21q65 -109 110 -226t77 -230q8 -25 19.5 -53.5t22 -54t17.5 -46t7 -29.5q0 -7 -3 -8.5t-8 -1.5q-26 65 -49 128q-23 62 -45 125q20 -63 42 -125q23 -63 46 -128h-7q-6 0 -8 -6q2 -2 5 -10.5t6 -18t5 -19.5t2 -15q0 -22 -13 -22 q-7 0 -11 3t-9 8l-10 10q-6 6 -15 12l-96 276q21 -65 41.5 -130t42.5 -128q-16 19 -29.5 46t-25 57t-21.5 61.5t-20 59.5q0 -2 0.5 -3.5t0.5 -3.5q0 -16 -10 -24l-9 -9l-6 3q-42 11 -89 14t-96 13q48 -10 94 -15.5t91 -20.5q-14 -9 -30 -9q-19 2 -37.5 6t-39.5 6q0 6 3 9 q-29 0 -57.5 6t-55.5 13.5t-52.5 14t-47.5 6.5q0 -3 -1 -3q26 -5 49 -14t52 -14q28 -7 54.5 -10t52.5 -8q-42 4 -85.5 12t-85.5 18l-47 12q-25 -64 -50.5 -125.5t-49.5 -124.5q-2 4 -6.5 4.5t-9 0.5t-8.5 2.5t-4 10.5t4 22.5t15 38.5q-2 2 -6.5 2.5t-6.5 0.5 q-20 -42 -38.5 -64.5t-29.5 -22.5q-12 0 -12 23zM267 323l17 -4q15 -4 29.5 -8.5t25.5 -9.5q22 -11 58 -17t70.5 -11.5t60 -12t25.5 -18.5l-122 14q11 -2 27 -4.5t32.5 -5.5t32.5 -5.5t27 -4.5q0 -3 -0.5 -5.5t-0.5 -4.5t2.5 -2.5t6 -1t6.5 -2.5q3 -1 6 -6l-20 53q2 0 6 1.5 t6 1.5q-33 83 -65.5 161t-71.5 150l-6 -6l15 -27q35 -64 63 -132t53 -140q-29 78 -62.5 155.5t-71.5 140.5l-4 -2q-34 -35 -63.5 -84t-55.5 -100zM284 862q0 11 11.5 27t26 30.5t27.5 26t16 13.5l77 66q18 -29 30 -46t19.5 -27.5t12 -16.5t6.5 -12q4 -11 11 -26.5t13 -30 t10.5 -26.5t4.5 -16q0 -8 -7 -15q-23 20 -39 43t-24 52q5 -29 22 -54t37 -45l-6 -6q-3 -3 -5 -7q1 -1 3 -2t2.5 -1.5t2.5 -1.5q0 -20 -10.5 -28.5t-24.5 -13.5l-4 4q-21 27 -32 64t-27 69l-3 -3q7 -14 13.5 -32t13.5 -37t14 -36.5t16 -30.5q-3 -1 -8 -1q-7 0 -11.5 6t-8 15 t-7 18.5t-8.5 16.5l2 15q-4 3 -7.5 10t-6.5 15t-6 15.5t-6 12.5q-1 -1 -1.5 -2t-2.5 -2q3 -5 5.5 -12t5 -15t5 -15.5t4.5 -11.5q-3 4 -5 11l-6 14l-5 15q-2 8 -5 12q-18 -27 -33 -42t-21 -22q-5 6 -14.5 11t-9.5 12q0 5 7 11l-9 7q-5 -2 -9 -3t-8 -1q-15 0 -26.5 8t-11.5 21 zM333 481q2 0 1.5 -2.5t0.5 -2.5q2 0 12 14t23 32t25 34t17 21l-5 7q-21 -20 -39 -47t-35 -56zM389 623l2 -2l8 -21l-1 21q-2 0 -4.5 1t-4.5 1zM410 587l6 -8l6 6l-5 7zM427 600l4 -6h1l-5 7v-1zM434 589q32 -54 59 -113q26 -58 49 -116q-19 58 -46 116q-28 59 -61 113h-1z M440 611q13 -3 18 -6t7 -3l1 3q1 0 -4 1t-8 2l2 4l-12 4zM522 593q36 -76 65 -154q31 -80 61 -163q-28 81 -59 160q-29 78 -67 157z" />
<glyph unicode="&#xc3;" horiz-adv-x="774" d="M20 -30q0 19 7 48.5t17.5 63.5t23.5 70.5t25 71.5q-11 7 -23.5 10t-27.5 5q3 4 3 10t1 12t4 10t11 4q2 0 12 -2v9q-16 8 -24.5 19t-8.5 22q0 24 46 24q13 0 26.5 -1.5t27.5 -3.5l46 105q15 34 32.5 70t41.5 71t54.5 66.5t70.5 56.5l15 6q28 -7 45.5 -11.5t28.5 -6.5 q10 -4 16 -5h-1l1 -3q0 -1 -1 -2l12 -21q65 -109 110 -226t77 -230q8 -25 19.5 -53.5t22 -54t17.5 -46t7 -29.5q0 -7 -3 -8.5t-8 -1.5q-26 65 -49 128q-23 62 -45 125q20 -63 42 -125q23 -63 46 -128h-7q-6 0 -8 -6q2 -2 5 -10.5t6 -18t5 -19.5t2 -15q0 -22 -13 -22 q-7 0 -11 3t-9 8l-10 10q-6 6 -15 12l-96 276q21 -65 41.5 -130t42.5 -128q-16 19 -29.5 46t-25 57t-21.5 61.5t-20 59.5q0 -2 0.5 -3.5t0.5 -3.5q0 -16 -10 -24l-9 -9l-6 3q-42 11 -89 14t-96 13q48 -10 94 -15.5t91 -20.5q-14 -9 -30 -9q-19 2 -37.5 6t-39.5 6q0 6 3 9 q-29 0 -57.5 6t-55.5 13.5t-52.5 14t-47.5 6.5q0 -3 -1 -3q26 -5 49 -14t52 -14q28 -7 54.5 -10t52.5 -8q-42 4 -85.5 12t-85.5 18l-47 12q-25 -64 -50.5 -125.5t-49.5 -124.5q-2 4 -6.5 4.5t-9 0.5t-8.5 2.5t-4 10.5t4 22.5t15 38.5q-2 2 -6.5 2.5t-6.5 0.5 q-20 -42 -38.5 -64.5t-29.5 -22.5q-12 0 -12 23zM197 919l6 18q6 18 22 39.5t44 39.5t72 18q34 0 55 -16t32 -36.5t14.5 -40.5t3.5 -29q0 -15 -1.5 -29.5t-2.5 -21.5q0 -4 5 -4q13 0 21 16t13.5 35.5t9.5 36t9 16.5l7 -1q-3 -19 -10 -40.5t-16.5 -40t-19.5 -31t-18 -12.5 l-9 9q1 -3 4 -6.5t5 -3.5q9 0 19 11.5t20 29.5t18 40t12 43l11 -3q1 0 3.5 5t6.5 11t9.5 11t11.5 5q9 0 16 -7t14 -15q-8 -25 -12.5 -44t-13.5 -45q-3 -5 -10 -20t-21 -31t-35.5 -29t-52.5 -13q-25 0 -42.5 3.5t-29.5 15.5l-6 7q11 -21 35.5 -25t47.5 -4q27 0 49 13.5 t38.5 34.5t28 45t18.5 45l12 37q7 -16 7 -29q0 -24 -12.5 -50.5t-25.5 -49.5l-12 -1q-4 -9 -12 -19.5t-20.5 -19.5t-30.5 -15t-42 -6q-34 0 -55.5 9t-32.5 22l-5 8q-13 13 -15.5 30.5t-2.5 28.5v22q0 11 -1 16q-5 -8 -7 -16.5t-2 -30.5q0 -10 3.5 -23t15.5 -31l7 -8 q17 -20 41 -26.5t55 -6.5q11 0 22 2t18 3q-8 -3 -17 -4.5t-20 -2.5q-22 0 -38 2.5t-28 7t-21 11t-18 15.5l-5 6q-13 13 -16 31t-3 30q0 10 0.5 17.5t0.5 14.5q-12 -8 -22 -16.5t-19 -20.5l-23 22q0 9 13 21l-8 7q-9 -5 -17.5 -8.5t-16.5 -3.5q-13 0 -20.5 8.5t-7.5 16.5z M267 323l17 -4q15 -4 29.5 -8.5t25.5 -9.5q22 -11 58 -17t70.5 -11.5t60 -12t25.5 -18.5l-122 14q11 -2 27 -4.5t32.5 -5.5t32.5 -5.5t27 -4.5q0 -3 -0.5 -5.5t-0.5 -4.5t2.5 -2.5t6 -1t6.5 -2.5q3 -1 6 -6l-20 53q2 0 6 1.5t6 1.5q-33 83 -65.5 161t-71.5 150l-6 -6l15 -27 q35 -64 63 -132t53 -140q-29 78 -62.5 155.5t-71.5 140.5l-4 -2q-34 -35 -63.5 -84t-55.5 -100zM333 481q2 0 1.5 -2.5t0.5 -2.5q2 0 12 14t23 32t25 34t17 21l-5 7q-21 -20 -39 -47t-35 -56zM389 623l2 -2l8 -21l-1 21q-2 0 -4.5 1t-4.5 1zM410 587l6 -8l6 6l-5 7zM427 600 l4 -6h1l-5 7v-1zM434 589q32 -54 59 -113q26 -58 49 -116q-19 58 -46 116q-28 59 -61 113h-1zM440 611q13 -3 18 -6t7 -3l1 3q1 0 -4 1t-8 2l2 4l-12 4zM509 775q12 10 22 17t16 15q-13 -17 -38 -32zM522 593q36 -76 65 -154q31 -80 61 -163q-28 81 -59 160q-29 78 -67 157z " />
<glyph unicode="&#xc4;" horiz-adv-x="774" d="M20 -30q0 19 7 48.5t17.5 63.5t23.5 70.5t25 71.5q-11 7 -23.5 10t-27.5 5q3 4 3 10t1 12t4 10t11 4q2 0 12 -2v9q-16 8 -24.5 19t-8.5 22q0 24 46 24q13 0 26.5 -1.5t27.5 -3.5l46 105q15 34 32.5 70t41.5 71t54.5 66.5t70.5 56.5l15 6q28 -7 45.5 -11.5t28.5 -6.5 q10 -4 16 -5h-1l1 -3q0 -1 -1 -2l12 -21q65 -109 110 -226t77 -230q8 -25 19.5 -53.5t22 -54t17.5 -46t7 -29.5q0 -7 -3 -8.5t-8 -1.5q-26 65 -49 128q-23 62 -45 125q20 -63 42 -125q23 -63 46 -128h-7q-6 0 -8 -6q2 -2 5 -10.5t6 -18t5 -19.5t2 -15q0 -22 -13 -22 q-7 0 -11 3t-9 8l-10 10q-6 6 -15 12l-96 276q21 -65 41.5 -130t42.5 -128q-16 19 -29.5 46t-25 57t-21.5 61.5t-20 59.5q0 -2 0.5 -3.5t0.5 -3.5q0 -16 -10 -24l-9 -9l-6 3q-42 11 -89 14t-96 13q48 -10 94 -15.5t91 -20.5q-14 -9 -30 -9q-19 2 -37.5 6t-39.5 6q0 6 3 9 q-29 0 -57.5 6t-55.5 13.5t-52.5 14t-47.5 6.5q0 -3 -1 -3q26 -5 49 -14t52 -14q28 -7 54.5 -10t52.5 -8q-42 4 -85.5 12t-85.5 18l-47 12q-25 -64 -50.5 -125.5t-49.5 -124.5q-2 4 -6.5 4.5t-9 0.5t-8.5 2.5t-4 10.5t4 22.5t15 38.5q-2 2 -6.5 2.5t-6.5 0.5 q-20 -42 -38.5 -64.5t-29.5 -22.5q-12 0 -12 23zM205 855q0 7 6.5 12t15 8.5t17.5 5t14 1.5q2 0 11.5 -2.5t21.5 -6t23.5 -6t17.5 -2.5q2 0 5 0.5t5 0.5q5 0 5 -11q0 -2 -0.5 -4.5t-0.5 -4.5q-13 3 -35 5.5t-36 8.5q7 -4 16.5 -6.5t19.5 -4t19 -3.5t15 -5q0 -4 -0.5 -8 t-0.5 -8l3 -1q1 -4 1 -11q0 -9 -1.5 -17.5t-3.5 -16.5l-2 -9l-1 2q-3 4 -14 9t-19 5q-2 0 -6.5 -0.5t-9.5 -0.5t-9.5 -0.5t-5.5 -0.5q6 -1 15.5 -1.5t19 -3t17.5 -6t11 -10.5q-4 -11 -5 -11l-5 3q-1 1 -4 2l-3 12q-2 -2 -7 -2q-2 0 -8 0.5t-12.5 1.5t-12 1.5t-8.5 0.5 q-7 0 -11 -5q1 -2 1 -6q7 3 16 3q3 0 8.5 -0.5t12.5 -1t12.5 -1.5t8.5 -2q-8 2 -13 2q-6 0 -15 -1t-19 -3l-19 -3q-9 -1 -15 -2h-4q-3 5 -6.5 7.5t-6.5 6.5t-4.5 9.5t-1.5 16.5q0 4 4 4l-1 11q-7 7 -11.5 22t-4.5 27zM267 323l17 -4q15 -4 29.5 -8.5t25.5 -9.5 q22 -11 58 -17t70.5 -11.5t60 -12t25.5 -18.5l-122 14q11 -2 27 -4.5t32.5 -5.5t32.5 -5.5t27 -4.5q0 -3 -0.5 -5.5t-0.5 -4.5t2.5 -2.5t6 -1t6.5 -2.5q3 -1 6 -6l-20 53q2 0 6 1.5t6 1.5q-33 83 -65.5 161t-71.5 150l-6 -6l15 -27q35 -64 63 -132t53 -140 q-29 78 -62.5 155.5t-71.5 140.5l-4 -2q-34 -35 -63.5 -84t-55.5 -100zM333 481q2 0 1.5 -2.5t0.5 -2.5q2 0 12 14t23 32t25 34t17 21l-5 7q-21 -20 -39 -47t-35 -56zM389 623l2 -2l8 -21l-1 21q-2 0 -4.5 1t-4.5 1zM410 587l6 -8l6 6l-5 7zM427 600l4 -6h1l-5 7v-1z M434 589q32 -54 59 -113q26 -58 49 -116q-19 58 -46 116q-28 59 -61 113h-1zM438 843q0 17 7 22.5t18 5.5q5 0 10 -0.5t10 -0.5q8 0 12 2.5t13 2.5q3 0 12 -3t20 -7t22 -7t18 -3q3 0 6 1t5 1q7 0 8 -6.5t1 -13.5h-11h-7q7 -2 11 -6q6 -5 6 -16h5q2 -5 3 -11.5t1 -12.5 q0 -9 -1.5 -16t-3.5 -15l-3 2q-5 3 -14 5.5t-18 4.5t-17 3t-11 1q-5 0 -9 -0.5t-9 -0.5q20 -4 39.5 -5.5t38.5 -15.5v-3q0 -3 1 -5t1 -3l-1 -1q-6 2 -15.5 3t-15.5 3l-4 10q-8 -2 -12 -2q-10 0 -20 3.5t-20 3.5q-5 0 -11 -2t-6 -8q5 1 9 1h10q10 0 19 -2l12 -2h-6h-12 q-18 0 -30.5 -1t-31.5 -1h-6q-5 6 -8.5 7t-6 2t-3.5 5t-1 16q0 6 0.5 11t4.5 5l3 -1v11q-6 6 -9 17t-3 22zM440 611q13 -3 18 -6t7 -3l1 3q1 0 -4 1t-8 2l2 4l-12 4zM522 593q36 -76 65 -154q31 -80 61 -163q-28 81 -59 160q-29 78 -67 157zM531 851q8 -5 16 -7l4 -1 q-2 1 -4 1q-7 3 -16 7zM548 750q3 -1 6 -1q-3 0 -6 1z" />
<glyph unicode="&#xc5;" horiz-adv-x="774" d="M20 -30q0 19 7 48.5t17.5 63.5t23.5 70.5t25 71.5q-11 7 -23.5 10t-27.5 5q3 4 3 10t1 12t4 10t11 4q2 0 12 -2v9q-16 8 -24.5 19t-8.5 22q0 24 46 24q13 0 26.5 -1.5t27.5 -3.5l46 105q15 34 32.5 70t41.5 71t54.5 66.5t70.5 56.5l15 6q28 -7 45.5 -11.5t28.5 -6.5 q10 -4 16 -5h-1l1 -3q0 -1 -1 -2l12 -21q65 -109 110 -226t77 -230q8 -25 19.5 -53.5t22 -54t17.5 -46t7 -29.5q0 -7 -3 -8.5t-8 -1.5q-26 65 -49 128q-23 62 -45 125q20 -63 42 -125q23 -63 46 -128h-7q-6 0 -8 -6q2 -2 5 -10.5t6 -18t5 -19.5t2 -15q0 -22 -13 -22 q-7 0 -11 3t-9 8l-10 10q-6 6 -15 12l-96 276q21 -65 41.5 -130t42.5 -128q-16 19 -29.5 46t-25 57t-21.5 61.5t-20 59.5q0 -2 0.5 -3.5t0.5 -3.5q0 -16 -10 -24l-9 -9l-6 3q-42 11 -89 14t-96 13q48 -10 94 -15.5t91 -20.5q-14 -9 -30 -9q-19 2 -37.5 6t-39.5 6q0 6 3 9 q-29 0 -57.5 6t-55.5 13.5t-52.5 14t-47.5 6.5q0 -3 -1 -3q26 -5 49 -14t52 -14q28 -7 54.5 -10t52.5 -8q-42 4 -85.5 12t-85.5 18l-47 12q-25 -64 -50.5 -125.5t-49.5 -124.5q-2 4 -6.5 4.5t-9 0.5t-8.5 2.5t-4 10.5t4 22.5t15 38.5q-2 2 -6.5 2.5t-6.5 0.5 q-20 -42 -38.5 -64.5t-29.5 -22.5q-12 0 -12 23zM267 323l17 -4q15 -4 29.5 -8.5t25.5 -9.5q22 -11 58 -17t70.5 -11.5t60 -12t25.5 -18.5l-122 14q11 -2 27 -4.5t32.5 -5.5t32.5 -5.5t27 -4.5q0 -3 -0.5 -5.5t-0.5 -4.5t2.5 -2.5t6 -1t6.5 -2.5q3 -1 6 -6l-20 53q2 0 6 1.5 t6 1.5q-33 83 -65.5 161t-71.5 150l-6 -6l15 -27q35 -64 63 -132t53 -140q-29 78 -62.5 155.5t-71.5 140.5l-4 -2q-34 -35 -63.5 -84t-55.5 -100zM330 843q0 26 2.5 46t2.5 40l39 58l12 -1q16 -3 32.5 -3.5t34.5 -0.5l8 5q16 -4 29 -8t27 -9q9 -4 26.5 -12.5t35.5 -23.5 t31 -38t13 -55q0 -30 -15 -48.5t-29 -32.5l-1 -3q10 0 19.5 10t16.5 23.5t11.5 28.5t4.5 25q0 28 -13 51.5t-34 42t-47.5 32t-52.5 20.5h26q27 0 58 -19t52 -46l-2 -14q12 -12 19 -27t9 -37q0 -24 -6 -40t-14 -26.5t-17 -17t-15 -12.5l-14 -9q-15 -8 -27.5 -9.5t-25.5 -1.5 q-28 0 -52.5 1t-53.5 6l1 -2q0 -2 -2 -4q44 -10 88 -10h34q10 0 22.5 3t23.5 14q29 15 46.5 44.5t17.5 58.5q0 16 -5 30l-4 14q2 -6 5 -13q5 -14 5 -30q0 -32 -17 -63.5t-50 -46.5q-23 -13 -41 -16t-36 -3h-25q-25 0 -57 8t-71 40q-17 17 -21 41t-4 40zM333 481 q2 0 1.5 -2.5t0.5 -2.5q2 0 12 14t23 32t25 34t17 21l-5 7q-21 -20 -39 -47t-35 -56zM389 623l2 -2l8 -21l-1 21q-2 0 -4.5 1t-4.5 1zM410 587l6 -8l6 6l-5 7zM427 600l4 -6h1l-5 7v-1zM433 946l1 -11q13 -2 22 -10t9 -16q13 -2 29 -8t30.5 -15t24 -20t9.5 -23 q0 -8 -9 -12.5t-12 -9.5h5q18 12 18 22q0 11 -9 22.5t-23 21t-30 17t-30 11.5q3 6 3 12q-2 0 -6.5 3t-10 6.5t-9.5 6.5l-4 3h-8zM434 589q32 -54 59 -113q26 -58 49 -116q-19 58 -46 116q-28 59 -61 113h-1zM440 611q13 -3 18 -6t7 -3l1 3q1 0 -4 1t-8 2l2 4l-12 4zM451 870 q0 -7 0.5 -13.5t0.5 -7.5q2 -8 4.5 -13t7.5 -10l30 -3q13 2 21.5 5.5t13.5 6.5q6 4 9 7q0 12 -12 20.5t-26 14.5t-27 9q-12 4 -14 6l-4 -6q-4 0 -4 -16zM522 593q36 -76 65 -154q31 -80 61 -163q-28 81 -59 160q-29 78 -67 157zM532 819l14 -20v1q-2 5 -5.5 12t-8.5 7z M639 893l3 -7z" />
<glyph unicode="&#xc6;" horiz-adv-x="1051" d="M40 -30q0 19 7 48.5t17.5 63.5t23.5 70.5t25 71.5q-11 7 -23.5 10t-27.5 5q3 4 3 10t1 12t4 10t11 4q2 0 12 -2v9q-16 8 -24.5 19t-8.5 22q0 24 46 24q13 0 26.5 -1.5t27.5 -3.5l46 105q29 68 65.5 127t93.5 109l379 20q37 -7 72.5 -11.5t74.5 -6.5l-1 -23 q0 -6 -5.5 -9.5t-24.5 -3.5q-3 0 -21.5 0.5t-40.5 1.5t-41.5 2t-24.5 1v-9q53 -5 88.5 -11t56.5 -13t29.5 -13.5t8.5 -12.5q0 -11 -25 -11q-13 0 -31.5 1.5t-41.5 1.5l-211 2l-62 -8q31 -65 51 -126.5t40 -128.5q26 2 50.5 6t30.5 4h9q35 0 66.5 6t61.5 6q5 0 9 -0.5t9 -0.5 q3 0 7.5 1t15.5 5q4 1 11 1q12 0 16 -15q-16 -5 -32 -7q-14 -1 -27 -3h8q12 0 25 1t27 3v-4q0 -6 2 -12h2q8 0 13.5 -6.5t7.5 -14.5q1 -3 1 -9q0 -8 -2 -14.5t-2 -9.5v-1q-11 1 -22.5 1.5t-22.5 0.5q-29 0 -59 -2.5t-59 -7.5q22 2 46 3.5t48 1.5q17 0 33 -1t32 -3 q-6 -11 -13 -14q-14 -4 -27 -3.5t-28 -3.5l-3 11q-5 -2 -13 -4q-12 -3 -23 -3q-13 0 -26 2t-26 2t-23 -3q-12 -3 -24 -9l1 -4q32 6 65.5 5.5t68.5 1.5q-32 -3 -68 -4t-67 -9q-5 -2 -26.5 -1.5t-41.5 -0.5q0 -2 2 -6q8 -27 20 -57t23 -56q19 -9 54 -9q15 0 40.5 2.5t52.5 5.5 t51.5 5.5t38.5 2.5t16 -4t2 -11q-19 -3 -41 -5t-45 -4.5t-45 -4.5l-16 -2q7 1 15 1q22 2 44.5 3.5t44.5 3.5t40 5q-2 -6 -2 -8q0 -6 5 -10l14 2q6 1 12 1.5t11 2.5q18 -5 25.5 -11t7.5 -13q0 -13 -12.5 -18t-23.5 -16h-7q-58 0 -123.5 -8.5t-123.5 -8.5h-14h-6q19 -2 41 -2 q56 0 115 4.5t103 4.5q-16 -8 -44 -13.5t-61 -9.5t-68 -5.5t-64 -1.5h-17q-9 0 -17 2q2 -9 4 -17t2 -13q0 -22 -13 -22q-7 0 -11 3t-9 8l-10 10q-6 6 -15 12l-96 276q21 -65 41.5 -130t42.5 -128q-8 12 -20 39t-26 59.5t-27.5 66.5t-22.5 61q-8 -5 -24 -5q-20 0 -44.5 4.5 t-38.5 9.5h-194q0 -3 -1 -3q12 -2 19.5 -3t15.5 -1t20 0.5t33 0.5q33 -2 63 -3q29 -1 54 -6q-10 2 -20 2h-22q-12 0 -23.5 -0.5t-25.5 -0.5q-11 0 -22 0.5t-24 1.5l-78 5q-25 -64 -50.5 -128t-49.5 -127q-2 4 -6.5 4.5t-9 0.5t-8.5 2.5t-4 10.5t4 22.5t15 38.5 q-2 2 -6.5 2.5t-6.5 0.5q-20 -42 -38.5 -64.5t-29.5 -22.5q-12 0 -12 23zM287 323q24 -6 50.5 -8t54.5 -2q23 0 45 0.5t44 0.5h23q12 0 23 -1q-17 38 -27 69.5t-19.5 62t-22 63t-33.5 73.5l-6 -6l15 -27q17 -32 24.5 -48t12 -29.5t9.5 -31t17 -53.5q-15 39 -22 61t-14 39 t-16.5 35.5t-28.5 50.5q-18 -18 -32 -40.5t-28 -52.5t-30.5 -68.5t-38.5 -87.5zM343 481q2 0 1.5 -2.5t0.5 -2.5q7 14 17.5 31.5t21.5 34t21 29t15 17.5l-5 7q-21 -20 -40.5 -50t-31.5 -64zM346 239q34 -7 62 -8t52 -1t46 -1.5t43 -7.5q-2 3 -2.5 6.5t-1.5 6.5l-26 3 q-11 1 -21 1h-18q-20 0 -37.5 -0.5t-37.5 -0.5h-28q-14 0 -31 2zM406 289l128 7v1l-1 3zM423 667l29 -8q42 1 88.5 3t87.5 4t73 4t45 2h6q-2 1 -11 1h-22q-27 0 -68.5 -1t-84.5 -2t-80 -2t-56 -1h-7zM434 589q32 -54 49 -113t40 -119q-19 60 -37 119t-51 113h-1zM520 597 q15 -33 26 -66.5t20 -67.5t17.5 -68.5t19.5 -69.5l8 1q-20 68 -39 135.5t-52 135.5zM647 218q12 -38 20 -77.5t21 -77.5l12 13q-14 36 -26.5 71t-25.5 71h-1zM785 324q10 -2 17 -2q11 0 22.5 1.5t25.5 3.5q-17 0 -33 -1.5t-32 -1.5zM802 73q3 1 6 1q-3 0 -6 -1z" />
<glyph unicode="&#xc7;" horiz-adv-x="596" d="M45 385q0 66 18.5 134.5t56 124.5t93.5 91.5t131 35.5q34 0 64.5 -11t57.5 -29t50.5 -41t44.5 -47l-21 -18q-14 5 -26.5 15.5t-22.5 21.5l-6 -7q13 -15 24 -34.5t11 -40.5l-11 -18q-13 1 -32.5 15.5t-43 31t-48 30.5t-47.5 14q-30 0 -53.5 -15t-42.5 -39t-32.5 -55 t-22 -63t-13 -62.5t-4.5 -53.5q0 -39 12.5 -86t37 -87.5t60.5 -67.5t82 -27q21 0 43.5 4.5t40.5 15.5l8 -9q-38 -29 -87 -29q-48 0 -88 23q19 -13 42 -19q25 -7 50 -7q46 0 86 26l9 -13q10 11 25 21.5t31 12.5l15 -17q-2 -25 -19.5 -43.5t-43 -31t-54 -18.5t-51.5 -6 q-68 0 -122 32.5t-92 84t-60 114.5q-21 61 -24 120q2 -61 23 -123q22 -64 60 -116t93 -84.5t124 -32.5q38 0 74 12t67 33q-23 -35 -61 -50t-78 -15q-45 0 -83 12.5t-74 39.5l-4 16q-41 25 -70.5 62t-48 80t-27 90t-8.5 94q0 50 9.5 99.5t26.5 97.5q-4 0 -4 3 q-21 -46 -31 -95t-10 -100q0 -97 38 -186.5t113 -151.5q-39 30 -68.5 69t-48.5 83.5t-28.5 92.5t-9.5 97zM133 -216q0 14 29 35q14 -14 42 -19.5t76 -5.5q17 0 25 4q7 3 17 7q-18 -5 -34 -6q-17 -2 -41 -2q-19 0 -38 4.5t-39 21.5q10 5 18 5q16 0 22 -2t12 -3l4 -11h25 q16 0 33 1t31 4t23 9.5t9 18.5q0 1 -5 4q0 -14 -15.5 -22t-46.5 -8h-16q-7 0 -15 1h17q29 0 43.5 4t20.5 9t6.5 11t2.5 9q-2 23 -10 35.5t-17 20t-16.5 13t-7.5 14.5v2l58 38q31 -1 62 -21.5t47 -54.5q5 -10 6 -20.5t1 -24.5q0 -47 -18 -76t-45 -45.5t-59.5 -22.5t-61.5 -6 q-22 0 -45.5 2t-43.5 6t-33 9.5t-13 12.5q0 3 3 8q20 -6 34.5 -9.5t28 -5.5t28 -2.5t34.5 -0.5q-17 1 -32 2t-29 3.5t-29 6.5t-33 11q2 4 4 7.5t2 7.5q-5 0 -13 5.5t-8 15.5zM155 307q5 -58 34 -111q29 -52 76 -84q-47 33 -74 85q-28 53 -36 110z" />
<glyph unicode="&#xc8;" horiz-adv-x="575" d="M61 399v21q0 58 3 118t18 127q-6 0 -6 6t6.5 17t16.5 21.5t22.5 18t24.5 7.5h238q37 -7 72.5 -11.5t74.5 -6.5l-1 -23q0 -6 -5.5 -9.5t-24.5 -3.5q-6 0 -14.5 0.5t-18.5 1.5v-9q41 -9 64.5 -22t23.5 -25q0 -14 -26.5 -17t-70.5 -3q-56 0 -119.5 0.5t-122.5 5.5h-17 q-5 -38 -7 -78t-3 -82q16 0 31.5 1.5t32.5 1.5q14 0 32.5 -2.5t39 -6.5t41 -9.5t37.5 -11.5q3 -1 7 -1h17q13 0 17.5 -4t4.5 -16q-17 0 -32 2t-29 4q14 -5 29 -7.5t32 -4.5q-2 -5 -2.5 -9t-0.5 -7q10 -2 13.5 -9.5t3.5 -16.5q0 -13 -5.5 -20.5t-5.5 -11.5q-39 14 -81 18 q-40 5 -82 9q38 -6 78 -11q42 -5 79 -22q-4 -4 -8 -7t-8 -3q-14 0 -27 3.5t-28 3.5v12q-5 -1 -14 -1q-25 0 -49 7t-49 7q-13 0 -25 -3v-4q32 -2 65.5 -6.5t68.5 -11.5q-32 5 -68.5 9t-68.5 4q-13 0 -24.5 -0.5t-22.5 -1.5q0 -21 1 -49t4 -54.5t7 -46.5t10 -26l9 -18 q12 -37 80 -37q15 0 36 4t42.5 9.5t41 9.5t33.5 4t16 -4t2 -11q-42 -5 -81 -15q-34 -9 -66 -14q32 5 65 12q39 9 79 14q-2 -6 -2 -8q0 -6 5 -10l14 2q6 1 12 1.5t11 2.5q18 -5 25.5 -11t7.5 -13q0 -13 -12.5 -18t-23.5 -16h-4q-29 0 -56 -4.5t-53.5 -9.5t-54 -9.5 t-56.5 -4.5h-14h-6q19 -2 41 -2q28 0 52.5 3t47.5 7t44.5 7t43.5 3q-16 -8 -39 -15.5t-51 -13t-58 -9t-59 -3.5q-20 0 -39 2t-41 13l-1 11q-14 5 -29.5 18.5t-28.5 28.5t-22 28t-9 17l-3 9q-9 19 -14.5 42t-8.5 46.5t-5 46.5t-3 43q-2 33 -3 66.5t-1 67.5t0.5 68.5t0.5 69.5 h-3q-5 -38 -5.5 -73t-0.5 -70v-39q0 -70 7.5 -146t38.5 -148q-23 39 -29 77.5t-11 71.5q-6 43 -8.5 83t-2.5 82zM90 324q1 -27 3 -55t7 -57q4 -24 9.5 -51.5t17 -54t31.5 -49.5q16 -19 42 -32q-30 16 -49 44q-22 34 -34.5 76t-18.5 89q-5 47 -8 90zM145 32q6 -6 14 -11 q11 -8 22 -15q-13 6 -23 14q-7 6 -13 12zM171 931q2 5 3 11.5t2 12.5q2 9 8 9q1 0 5 -2l4 10q-6 8 -9 18t-3 18q1 5 2 10.5t4 8.5q3 1 9 4t11 3q28 0 56 -17t52 -40.5t42.5 -48.5t27.5 -40q3 -6 11 -7t8 -7q0 -8 -4 -16q-22 11 -36.5 27.5t-28.5 39.5q11 -24 28 -42t34 -29 q-2 -4 -3.5 -7.5t-2.5 -8.5q5 0 6 -4.5t1 -9.5q0 -13 -6.5 -23.5t-14.5 -15.5l-4 3q-30 25 -53 46.5t-48 46.5q17 -23 41.5 -48t56.5 -52q-8 -5 -16 -5q-5 0 -11.5 4t-13 9.5t-12.5 11.5l-10 10l7 8q-14 7 -24 18t-18 22t-17 20.5t-21 14.5q0 -2 -4 -4q20 -15 36 -35 q16 -19 36 -40q-14 14 -33 32q-21 20 -41 38t-35.5 31t-21.5 15zM202 24l9 -4zM302 815q2 -2 4 -3q-2 1 -4 3zM315 425q13 -6 30 -9t36 -5q-18 5 -34 7.5t-32 6.5z" />
<glyph unicode="&#xc9;" horiz-adv-x="575" d="M61 399v21q0 58 3 118t18 127q-6 0 -6 6t6.5 17t16.5 21.5t22.5 18t24.5 7.5h238q37 -7 72.5 -11.5t74.5 -6.5l-1 -23q0 -6 -5.5 -9.5t-24.5 -3.5q-6 0 -14.5 0.5t-18.5 1.5v-9q41 -9 64.5 -22t23.5 -25q0 -14 -26.5 -17t-70.5 -3q-56 0 -119.5 0.5t-122.5 5.5h-17 q-5 -38 -7 -78t-3 -82q16 0 31.5 1.5t32.5 1.5q14 0 32.5 -2.5t39 -6.5t41 -9.5t37.5 -11.5q3 -1 7 -1h17q13 0 17.5 -4t4.5 -16q-17 0 -32 2t-29 4q14 -5 29 -7.5t32 -4.5q-2 -5 -2.5 -9t-0.5 -7q10 -2 13.5 -9.5t3.5 -16.5q0 -13 -5.5 -20.5t-5.5 -11.5q-39 14 -81 18 q-40 5 -82 9q38 -6 78 -11q42 -5 79 -22q-4 -4 -8 -7t-8 -3q-14 0 -27 3.5t-28 3.5v12q-5 -1 -14 -1q-25 0 -49 7t-49 7q-13 0 -25 -3v-4q32 -2 65.5 -6.5t68.5 -11.5q-32 5 -68.5 9t-68.5 4q-13 0 -24.5 -0.5t-22.5 -1.5q0 -21 1 -49t4 -54.5t7 -46.5t10 -26l9 -18 q12 -37 80 -37q15 0 36 4t42.5 9.5t41 9.5t33.5 4t16 -4t2 -11q-42 -5 -81 -15q-34 -9 -66 -14q32 5 65 12q39 9 79 14q-2 -6 -2 -8q0 -6 5 -10l14 2q6 1 12 1.5t11 2.5q18 -5 25.5 -11t7.5 -13q0 -13 -12.5 -18t-23.5 -16h-4q-29 0 -56 -4.5t-53.5 -9.5t-54 -9.5 t-56.5 -4.5h-14h-6q19 -2 41 -2q28 0 52.5 3t47.5 7t44.5 7t43.5 3q-16 -8 -39 -15.5t-51 -13t-58 -9t-59 -3.5q-20 0 -39 2t-41 13l-1 11q-14 5 -29.5 18.5t-28.5 28.5t-22 28t-9 17l-3 9q-9 19 -14.5 42t-8.5 46.5t-5 46.5t-3 43q-2 33 -3 66.5t-1 67.5t0.5 68.5t0.5 69.5 h-3q-5 -38 -5.5 -73t-0.5 -70v-39q0 -70 7.5 -146t38.5 -148q-23 39 -29 77.5t-11 71.5q-6 43 -8.5 83t-2.5 82zM90 324q1 -27 3 -55t7 -57q4 -24 9.5 -51.5t17 -54t31.5 -49.5q16 -19 42 -32q-30 16 -49 44q-22 34 -34.5 76t-18.5 89q-5 47 -8 90zM140 858q0 17 11.5 24 t27.5 15l12 -6q11 11 24.5 18t27 13t26 13t23.5 19q-2 0 -2 4q-23 -15 -46 -27q-22 -12 -46 -25q37 22 73 45q37 23 85 48q3 -1 10 -1q13 0 24 6q2 -7 7 -15t5 -15t-9 -8l5 -10q13 -2 25 -14t12 -23q0 -14 -9.5 -22t-26.5 -14q-14 -7 -32.5 -18.5t-40 -23.5t-45 -23 t-48.5 -16q-6 -2 -12 -10t-11 -8t-9 3.5t-7 7.5q44 34 96 50q-26 -5 -51 -18.5t-48 -27.5q-2 4 -4.5 7.5t-5.5 5.5l-6 -5q-16 4 -25 17.5t-9 25.5l4 2q26 11 58.5 30t60.5 36q-30 -14 -59.5 -31t-64.5 -29zM145 32q6 -6 14 -11q11 -8 22 -15q-13 6 -23 14q-7 6 -13 12z M202 24l9 -4zM315 425q13 -6 30 -9t36 -5q-18 5 -34 7.5t-32 6.5z" />
<glyph unicode="&#xca;" horiz-adv-x="575" d="M61 399v21q0 58 3 118t18 127q-6 0 -6 6t6.5 17t16.5 21.5t22.5 18t24.5 7.5h238q37 -7 72.5 -11.5t74.5 -6.5l-1 -23q0 -6 -5.5 -9.5t-24.5 -3.5q-6 0 -14.5 0.5t-18.5 1.5v-9q41 -9 64.5 -22t23.5 -25q0 -14 -26.5 -17t-70.5 -3q-56 0 -119.5 0.5t-122.5 5.5h-17 q-5 -38 -7 -78t-3 -82q16 0 31.5 1.5t32.5 1.5q14 0 32.5 -2.5t39 -6.5t41 -9.5t37.5 -11.5q3 -1 7 -1h17q13 0 17.5 -4t4.5 -16q-17 0 -32 2t-29 4q14 -5 29 -7.5t32 -4.5q-2 -5 -2.5 -9t-0.5 -7q10 -2 13.5 -9.5t3.5 -16.5q0 -13 -5.5 -20.5t-5.5 -11.5q-39 14 -81 18 q-40 5 -82 9q38 -6 78 -11q42 -5 79 -22q-4 -4 -8 -7t-8 -3q-14 0 -27 3.5t-28 3.5v12q-5 -1 -14 -1q-25 0 -49 7t-49 7q-13 0 -25 -3v-4q32 -2 65.5 -6.5t68.5 -11.5q-32 5 -68.5 9t-68.5 4q-13 0 -24.5 -0.5t-22.5 -1.5q0 -21 1 -49t4 -54.5t7 -46.5t10 -26l9 -18 q12 -37 80 -37q15 0 36 4t42.5 9.5t41 9.5t33.5 4t16 -4t2 -11q-42 -5 -81 -15q-34 -9 -66 -14q32 5 65 12q39 9 79 14q-2 -6 -2 -8q0 -6 5 -10l14 2q6 1 12 1.5t11 2.5q18 -5 25.5 -11t7.5 -13q0 -13 -12.5 -18t-23.5 -16h-4q-29 0 -56 -4.5t-53.5 -9.5t-54 -9.5 t-56.5 -4.5h-14h-6q19 -2 41 -2q28 0 52.5 3t47.5 7t44.5 7t43.5 3q-16 -8 -39 -15.5t-51 -13t-58 -9t-59 -3.5q-20 0 -39 2t-41 13l-1 11q-14 5 -29.5 18.5t-28.5 28.5t-22 28t-9 17l-3 9q-9 19 -14.5 42t-8.5 46.5t-5 46.5t-3 43q-2 33 -3 66.5t-1 67.5t0.5 68.5t0.5 69.5 h-3q-5 -38 -5.5 -73t-0.5 -70v-39q0 -70 7.5 -146t38.5 -148q-23 39 -29 77.5t-11 71.5q-6 43 -8.5 83t-2.5 82zM90 324q1 -27 3 -55t7 -57q4 -24 9.5 -51.5t17 -54t31.5 -49.5q16 -19 42 -32q-30 16 -49 44q-22 34 -34.5 76t-18.5 89q-5 47 -8 90zM145 32q6 -6 14 -11 q11 -8 22 -15q-13 6 -23 14q-7 6 -13 12zM155 902q0 11 11.5 27t26 30.5t27.5 26t16 13.5l77 66q18 -29 30 -46t19.5 -27.5t12 -16.5t6.5 -12q4 -11 11 -26.5t13 -30t10.5 -26.5t4.5 -16q0 -8 -7 -15q-23 20 -39 43t-24 52q5 -29 22 -54t37 -45l-6 -6q-3 -3 -5 -7q1 -1 3 -2 t2.5 -1.5t2.5 -1.5q0 -20 -10.5 -28.5t-24.5 -13.5l-4 4q-21 27 -32 64t-27 69l-3 -3q7 -14 13.5 -32t13.5 -37t14 -36.5t16 -30.5q-3 -1 -8 -1q-7 0 -11.5 6t-8 15t-7 18.5t-8.5 16.5l2 15q-4 3 -7.5 10t-6.5 15t-6 15.5t-6 12.5q-1 -1 -1.5 -2t-2.5 -2q3 -5 5.5 -12t5 -15 t5 -15.5t4.5 -11.5q-3 4 -5 11l-6 14l-5 15q-2 8 -5 12q-18 -27 -33 -42t-21 -22q-5 6 -14.5 11t-9.5 12q0 5 7 11l-9 7q-5 -2 -9 -3t-8 -1q-15 0 -26.5 8t-11.5 21zM202 24l9 -4zM315 425q13 -6 30 -9t36 -5q-18 5 -34 7.5t-32 6.5z" />
</font>
</defs>
</svg>
