<?xml version="1.0" standalone="no"?>
<!DOCTYPE svg PUBLIC "-//W3C//DTD SVG 1.1//EN" "http://www.w3.org/Graphics/SVG/1.1/DTD/svg11.dtd" >
<svg xmlns="http://www.w3.org/2000/svg">
<metadata></metadata>
<defs>
<font id="kingthings_versalisregular" horiz-adv-x="1000" >
<font-face units-per-em="1000" ascent="800" descent="-200" />
<missing-glyph horiz-adv-x="432" />
<glyph />
<glyph />
<glyph unicode="&#xd;" horiz-adv-x="432" />
<glyph unicode=" "  horiz-adv-x="432" />
<glyph unicode="&#x09;" horiz-adv-x="432" />
<glyph unicode="&#xa0;" horiz-adv-x="432" />
<glyph unicode="&#x26;" />
<glyph unicode="0" horiz-adv-x="1280" d="M417 787q-92 -37 -93.5 -97t52.5 -101q25 -20 61.5 -35.5t203.5 -69.5q118 -38 152 -64q38 -29 16.5 -73t-6.5 -99q85 58 87 116t-47 97q-24 18 -57 31q-71 31 -201.5 71t-167.5 69q-40 31 -31.5 62.5t31.5 92.5zM389 1175q-92 -37 -93.5 -97t52.5 -101 q25 -20 61.5 -35.5t203.5 -69.5q118 -38 152 -64q38 -29 16.5 -73t-6.5 -99q85 58 87 116t-47 97q-24 18 -57 31q-71 31 -201.5 71t-167.5 69q-40 31 -31.5 62.5t31.5 92.5zM703 1168q-74 -146 -122.5 -153.5t-101.5 0.5q10 58 42 102t182 51zM676 1148l-94 -56l-159 -106 l6 -8l159 103zM39 536q103 127 152 125t98 -22q-21 -54 -61.5 -90.5t-188.5 -12.5zM70 550l104 35l176 72l-4 9l-176 -69zM53 1292q163 -10 189.5 -51.5t39.5 -93.5q-57 -14 -110 -1.5t-119 146.5zM82 1275l89 -64l159 -104l6 9l-158 105zM647 853q19 -163 -17.5 -196 t-85.5 -54q-23 53 -20.5 107.5t123.5 142.5zM635 821l-47 -98l-74 -175l9 -5l76 174zM836.5 102.5q8.5 -31.5 -31.5 -62.5q-37 -29 -167.5 -69t-201.5 -71q-33 -13 -57 -31q-49 -39 -47 -97t87 -116q15 55 -6.5 99t16.5 73q34 26 152 64q167 54 203.5 69.5t61.5 35.5 q54 41 52.5 101t-93.5 97q23 -61 31.5 -92.5zM818.5 -216.5q8.5 -31.5 -31.5 -62.5q-37 -29 -167.5 -69t-201.5 -71q-33 -13 -57 -31q-49 -39 -47 -97t87 -116q15 55 -6.5 99t16.5 73q34 26 152 64q167 54 203.5 69.5t61.5 35.5q54 41 52.5 101t-93.5 97q23 -61 31.5 -92.5z M1144 328q-74 -146 -122.5 -153.5t-101.5 0.5q10 58 42 102t182 51zM1117 308l-94 -56l-159 -106l6 -8l159 103zM539 240q161 -34 180.5 -79t24.5 -98q-58 -6 -108.5 14t-96.5 163zM566 218l78 -76l143 -126l7 8l-141 127zM1133 -129q-163 -22 -196.5 13.5t-56.5 84.5 q53 24 107.5 22.5t145.5 -120.5zM1101 -118l-100 46l-177 70l-4 -10l176 -72zM63 -48q162 25 196 -10t58 -84q-53 -25 -107 -24t-147 118zM95 -58l100 -44l178 -68l4 9l-176 70zM1114 631q-74 -146 -122.5 -153.5t-101.5 0.5q10 58 42 102t182 51zM1087 611l-94 -56 l-159 -106l6 -8l159 103z" />
<glyph unicode="1" />
<glyph unicode="2" />
<glyph unicode="3" />
<glyph unicode="4" />
<glyph unicode="5" />
<glyph unicode="6" />
<glyph unicode="7" />
<glyph unicode="8" />
<glyph unicode="9" />
<glyph unicode=";" />
<glyph unicode="A" horiz-adv-x="1061" d="M859.5 828.5q-67.5 -23.5 -148 -20.5t-224.5 45t-195.5 28t-79 -42.5t-25 -77t46 -58.5t67.5 10.5t23.5 64t-50.5 57.5q44 37 347 -57q-58 -169 -157 -370q-121 75 -188 57.5t-63 -77t62.5 -52t39.5 89.5q10 17 126 -55q-99 -178 -233 -328q-148 -13 -173 -41.5 t-26.5 -63.5t42.5 -56.5t83 21.5t-13 88q50 21 180.5 0t180.5 -45l24 45l-52 14q-71 133 29 351q101 -24 179 20q6 -204 -36 -359l-90 -29l15 -49q151 83 387 61q-34 -54 -7 -92.5t77 -23t56.5 56t-19 67.5t-141.5 26q-43 379 -33 756l32 11q15 -61 60 -59t54.5 43.5t-17 61 t-50 12.5t-91 -30.5zM282.5 793q25.5 -26 -2 -47t-48.5 2.5t2 47t48.5 -2.5zM836 777q-11 -366 31 -740q-122 9 -196 -15q55 413 6 748q82 -3 159 7zM662 425q-81 -50 -158 -27q82 195 140 320q24 -124 18 -293zM289.5 396q0.5 -31 -24 -29.5t-26 30.5t24 29.5t26 -30.5z M421 265q-65 -142 -8 -252q-100 27 -161 24q39 37 169 228zM986.5 816.5q15.5 -25.5 -10 -40t-39.5 10.5t10 40t39.5 -10.5zM112.5 -35.5q24.5 -32.5 -11 -54t-54 10.5t11 54t54 -10.5zM1023.5 -32q19.5 -33 -13 -51t-51 14t13 51t51 -14z" />
<glyph unicode="B" horiz-adv-x="869" d="M391.5 784.5q-97.5 -25.5 -154.5 -22.5t-112 26q44 17 42.5 58.5t-27.5 56t-53.5 8.5t-42 -35t0 -54.5t41 -41.5t54.5 -26t67 -19q18 -61 10 -299t-46 -400q-145 -15 -160 -75t37 -80.5t88 27.5q24 60 -29 84q105 21 252.5 0.5t218.5 -16.5t134.5 33t113 99t17 174.5 t-206.5 146.5q168 83 122.5 208.5t-157.5 149t-209.5 -2zM528 761q72 -91 54.5 -199.5t-74.5 -123.5q-30 -4 -79 -3q-7 190 10 323q46 14 89 3zM399 387q1 -224 27 -365q-132 20 -228 17q44 171 50 402t-12 290q84 -5 173 25q-11 -145 -10 -369zM693 693.5 q48 -66.5 40.5 -126t-75.5 -97.5t-106 -34q71 80 58.5 189.5t-55.5 144.5q90 -10 138 -76.5zM597.5 316q27.5 -83 12 -175t-53 -115t-95.5 -7q-31 190 -29 375q42 13 90 9t75.5 -87zM718.5 368q55.5 -34 87 -100t-31 -158t-197.5 -104q56 39 69.5 156t-62.5 246 q79 -6 134.5 -40zM142 861q8 -38 -29 -47q-41 -6 -48 34q-2 34 33 41q35 -3 44 -28zM114 -50q9 -38 -28 -47q-41 -6 -48 34q-3 34 32 42q36 -3 44 -29z" />
<glyph unicode="C" horiz-adv-x="1018" d="M869.5 1105q-55.5 -91 -82.5 -315q-51 -8 -205.5 22t-291.5 -36.5t-214 -215t-6 -290t191.5 -225t239.5 -73.5t273 60q13 -136 31.5 -198t53 -87.5t76 -11t44 60t-19 66t-61.5 15.5t-53 -56q-38 99 -45 417t21.5 540t82.5 323q27 -57 76 -46t49 66t-52 65t-107.5 -81z M997 1116q-15 -40 -57 -15q-16 35 14 50q45 3 43 -35zM784 756q-12 -46 -14 -181q-30 152 -159 209q131 -39 173 -28zM681 700.5q47 -61.5 62 -137.5t12 -270q-71 -198 -191 -250.5t-184 -3.5q-78 78 -81.5 305.5t43.5 329.5t169.5 95t169.5 -68.5zM365 772 q-89 -86 -99.5 -350.5t61.5 -371.5q-115 46 -207.5 208t2 317t243.5 197zM774 72q-50 -28 -206 -61q138 61 196 231q-1 -162 10 -170zM949 -187q8 -40 -29 -49q-40 -6 -48 36q-2 35 33 43q35 -2 44 -30z" />
<glyph unicode="D" horiz-adv-x="988" d="M670 755q50 -71 53.5 -341t-32.5 -372q107 63 182.5 210t-11 306.5t-192.5 196.5zM247 23q71 18 182 17q-41 343 -6 709q-75 -26 -155 -33q30 -334 -21 -693zM69 -65q-15 -9 -21 -33t10.5 -41.5t35.5 -19t35 12t16.5 34.5t-12 36.5t-31 17.5t-33.5 -7zM656 38 q33 137 33.5 332t-24.5 283.5t-57 114.5q-82 9 -146 -9q-30 -376 -2 -720q151 -27 196 -1zM71 826q25 13 10.5 35t-36 10t-10.5 -35t36 -10zM367.5 3.5q-72.5 -2.5 -146.5 -15t-88 -23.5q55 -31 45 -84.5t-51 -65t-72.5 4t-40 52.5t5 63t54.5 43t139 41q40 361 16 695 q-79 -4 -141 28t-79.5 65.5t-3.5 67.5t60.5 31t50 -53.5t-47.5 -58.5q79 -51 172.5 -42t176 35t156 24.5t164.5 -54t170.5 -206.5t17.5 -280t-159.5 -212.5t-211.5 -69.5t-186.5 14.5z" />
<glyph unicode="E" horiz-adv-x="922" d="M563 251q-56 136 -210 153q159 11 200 134q-26 -134 10 -287zM603 172q-26 65 -34 197t25 257l-36 10q-35 -208 -255 -216q-88 8 -177 -13q89 -27 177 -25q239 -15 254 -219zM862.5 1047.5q-37.5 -53.5 -85.5 -251.5q-51 -6 -205.5 23t-291.5 -37t-214 -214.5t-5.5 -290 t191.5 -225.5t239 -74t276 62q26 -177 55 -291t66.5 -145t79.5 -16t44.5 59.5t-18.5 65t-61.5 16t-53.5 -55.5q-36 107 -65 293t-29.5 391.5t17 375t71.5 269.5q27 -56 76 -45t49 66t-49 66.5t-86.5 -42zM966 1018q-14 -40 -56 -16q-17 36 13 51q45 3 43 -35zM774 762 q-11 -45 -13 -181q-31 152 -160 210q131 -39 173 -29zM671.5 708q47.5 -62 62 -138t11.5 -271q-71 -198 -191 -250t-184 -3q-74 68 -78.5 313.5t41.5 334t168.5 82.5t170 -68zM362 784q-96 -92 -106.5 -356t62.5 -377q-138 81 -218 225.5t3.5 284.5t258.5 223zM764 79 q-50 -28 -206 -61q138 61 196 230q-1 -161 10 -169zM983 -335q8 -40 -28 -49q-41 -6 -49 36q-2 35 33 43q36 -3 44 -30z" />
<glyph unicode="F" horiz-adv-x="751" d="M411 792q-226 5 -365 33l-1 -46l87 -12q15 -63 32 -352t-19 -385q-132 -31 -145 -109q-8 -58 43 -78q56 -11 88 29q22 84 -42 92q175 66 431 4l19 41q-47 19 -111 26q-44 105 -43 350q48 2 97 -51.5t83 -197.5q22 -38 53 -32t41 33.5t-1.5 47t-37.5 23t-37 -16.5 q-16 97 -17 202t38 188l-31 14q-103 -149 -188 -149q-6 228 12 313h122q127 -44 161 -212l45 2q-15 133 -3 235l38 9l-11 33q-112 -39 -338 -34zM357 759q-8 -112 -8 -373t40 -347q-115 12 -200 -4q27 105 11 382.5t-31 344.5q92 -9 188 -3zM697 591q-19 129 -129 174 q55 0 127 14q-8 -81 2 -188zM639.5 157.5q0.5 -15.5 -11.5 -22.5t-24 1t-11 23t12 20t22.5 -0.5t12 -21zM95 -112q-22 -24 -51 -6q-22 44 17 55q49 -2 34 -49zM537 312q-38 69 -97 103q63 19 97 65q-18 -76 0 -168z" />
<glyph unicode="G" horiz-adv-x="818" d="M683 791q-60 -10 -141.5 5t-128 11t-119 -33.5t-158.5 -131.5t-101.5 -221.5t85 -251t218 -161.5t224.5 28q1 -95 -29 -170q-204 -90 -247 -162t-39 -111t33 -55.5t56.5 -6.5t39.5 42t-12.5 61.5t-63.5 21.5q24 40 64.5 75t151 81.5t160.5 58.5t138 27l-6 38l-51 -9 q-10 34 -15.5 194.5t8.5 257.5q75 9 101 61l-29 11q-14 -30 -54 -33.5t-188.5 16.5t-182.5 1.5t-28.5 -58t36 -55t60.5 12.5t7 77l72 -7q7 -23 16.5 -91t1.5 -227q-61 -53 -134 -47q-63 34 -79.5 91t-21.5 290.5t33 300.5q11 48 83.5 42t108 -38.5t62 -71t40.5 -129.5l30 1 q9 182 42 285t77 175l-32 28q-52 -78 -88 -223zM677 755q-15 -59 -12 -139q-33 96 -107 139q73 -7 119 0zM295.5 420.5q3.5 -251.5 24.5 -306t36 -67.5q-89 15 -188.5 128t-90 226t93 217t160.5 132q-39 -78 -35.5 -329.5zM714 382q-13 -94 -7 -251t17 -211 q-96 -14 -146 -36q29 74 23.5 274t-24.5 243q59 -10 137 -19zM457 384q7 -31 -26 -40q-30 5 -36 31q-2 29 29 38q28 -2 33 -29zM341 -385q9 -24 -7 -41q-17 -10 -43 1q-19 36 8 49q28 7 42 -9z" />
<glyph unicode="H" horiz-adv-x="1051" d="M631 615q73 -57 97 -152t12.5 -267t-97.5 -332q116 104 207 216t92 219.5t-101.5 224.5t-209.5 91zM566 -307q-44 -6 -51 -41q-6 -63 51 -63q40 -5 50 41q8 55 -50 63zM414 759q-111 -9 -206 0q25 -367 -7 -719q88 -1 209 -29q-30 382 4 748zM90 829q13 10 17.5 22.5 t-6.5 27.5t-33.5 14t-29.5 -16.5t-1.5 -32.5t23 -21t30.5 6zM997.5 855.5q15.5 8.5 20.5 34t-10.5 43t-34.5 18.5t-34.5 -12.5t-16 -34.5t12 -37t30 -18t33 6.5zM435 558q71 74 179.5 96.5t214 -63.5t141.5 -221t-51.5 -252.5t-170.5 -196t-158 -124.5q-72 -57 -69 -92 q61 42 100 -0.5t17.5 -92.5t-61.5 -56t-72 22t-29.5 99t82 135.5t110 174t36 323.5t-110.5 296q-111 -13 -156 -102q-19 -109 5 -501q55 -13 110 3l6 -41q-64 -20 -215.5 17.5t-242.5 -19.5l-3 50q40 19 71 19q29 360 4 727q-107 12 -134 31t-33.5 44.5t6 51.5t33.5 38.5 t57 -4t39.5 -54.5t-26.5 -61q158 -24 304 -7.5t329.5 118.5t239.5 76t62 -66t-18 -75.5t-72.5 -31.5t-64 51.5t13.5 74.5q-19 5 -165.5 -75.5t-289.5 -107.5z" />
<glyph unicode="I" horiz-adv-x="508" d="M132 41q129 14 225 -2q-26 360 0 713q-92 -14 -214 3q28 -357 -11 -714zM219.5 786.5q166.5 -9.5 267.5 38.5l8 -33q-60 -30 -106 -32q-22 -361 3 -725q44 1 99 -19l-7 -38q-112 29 -256 26.5t-212 -28.5l-2 46q23 4 80 17q39 357 23 718q-56 7 -94 17l14 47 q16 -25 182.5 -34.5z" />
<glyph unicode="J" horiz-adv-x="641" d="M386 -52.5q102 186.5 210 136.5l8 41q-50 17 -78 5q-22 274 5 630l69 23l-7 42q-107 -47 -219 -31.5t-201 36.5t-122.5 -28.5t-6 -89t70 -32t51.5 53t-15 63.5q18 5 79 -14q47 -453 20 -967q-63 -164 -112 -180q35 43 8.5 86.5t-79.5 29.5t-53 -80.5t72 -78.5t135 78 t165 276.5zM273 772q125 -24 217 -14q-26 -354 -2 -638q-72 -14 -197 -258q23 466 -18 910zM63 -357.5q-13 7.5 -18 28t9 35t30 15.5t29 -10t14 -29t-10 -31t-26 -14.5t-28 6zM83.5 714q-16.5 9 -19 29.5t6.5 33.5t26.5 16.5t31 -9.5t12.5 -32.5t-9 -31t-20 -13.5t-28.5 7z " />
<glyph unicode="K" horiz-adv-x="1030" d="M670 751q8 -113 -55 -221q89 109 263 229q-119 -23 -208 -8zM618 421q120 -37 136.5 -201t-88.5 -394q32 61 123 138.5t147.5 148t40.5 156.5t-106.5 152t-252.5 0zM228 22q124 23 220 14q-29 339 0 714q-105 -6 -209 7q23 -368 -11 -735zM672 -260q-22 -12 -29 -44.5 t15 -56t49 -26t48 16t21.5 47t-16.5 50t-41.5 23.5t-46.5 -10zM42 76q-11 -6 -15.5 -23t7.5 -29t25.5 -13t24 8.5t11 24.5t-8 25.5t-21 11.5t-23.5 -5zM986 812l9 -39l-56 -9q-143 -94 -244 -187t-118 -136q164 83 291 18t142.5 -191.5t-53.5 -195.5t-173 -150.5 t-127 -152.5q81 31 126 -23.5t11 -112t-93 -50.5t-83 65t24 179t68.5 260t-23 219.5t-96 87t-124.5 -45.5q-2 -46 17 -312l70 -4l-7 -42q-181 20 -337 -18q-163 -24 -195 23t-10 86.5t64 32t51.5 -46t-21.5 -71.5q32 -5 86 15q39 376 23 749q-44 5 -83 18l7 39 q57 -21 198.5 -27t212.5 19l9 -33q-38 -17 -72 -20q-20 -347 -13 -357q183 135 165 360q-28 0 -62 13l10 39q98 -30 232 -23.5t174 24.5z" />
<glyph unicode="L" horiz-adv-x="806" d="M139 760q34 -379 -15 -727q-64 -3 -103 -37l22 -24q45 30 152 33.5t301 -25.5t280 5l7 53q-32 -32 -60 -32q-23 82 13.5 243.5t-33 216t-146 25.5t-92.5 -67.5t-12 -62t22.5 -42t40 -23.5t41 0t42.5 33t7 74.5t-74 44.5q62 35 125.5 2.5t56 -121.5t-78 -188.5 t-229.5 -110.5q-41 348 2 738q38 7 77 23l-11 37q-115 -35 -242.5 -32t-184.5 21l-9 -37q50 -14 101 -20zM370 764q-36 -378 -1 -727q-99 14 -208 3q47 341 12 717q81 -11 197 7zM574.5 358.5q-8.5 -31.5 -35 -33t-40.5 14t-13 36.5t23 33.5t48 -3.5t17.5 -47.5zM685 5 q-79 -8 -200 14q125 22 204 143q-15 -83 -4 -157z" />
<glyph unicode="M" horiz-adv-x="1169" d="M611 762q-7 86 -29 147q-24 -63 -33 -139q-21 30 -69 44.5t-135.5 -10t-188 -128.5t-123.5 -192t13 -179t134.5 -179.5t216.5 -114.5q-125 -15 -252 -96l30 -43q112 88 265.5 111t316 -2.5t301.5 -104.5l29 49q-152 67 -287 90q112 10 212.5 100.5t131 210t-19 212.5 t-119 162t-158.5 97.5t-148.5 15.5t-87.5 -51zM448 778q39 -130 46 -362t-28 -379q-106 10 -156 56q-41 121 -38.5 331t56.5 315q57 51 120 39zM864 737q36 -108 36 -342.5t-42 -320.5q-14 -27 -126 -33q-31 73 -31 368t35 361q54 10 128 -33zM583 680q51 67 100 70 q-21 -86 -21 -339t24 -372q-87 6 -168 5q14 140 9.5 372t-35.5 346q48 -23 91 -82zM234 421q-2 -227 39 -322q-126 85 -186.5 211.5t22 249.5t183.5 184q-56 -96 -58 -323zM1083 520.5q55 -134.5 -13.5 -263.5t-180.5 -178q54 74 50.5 314t-36.5 337q125 -75 180 -209.5z " />
<glyph unicode="N" horiz-adv-x="940" d="M-11 799q92 26 165 -27q10 -129 4.5 -385t-37.5 -339q-49 -2 -124 -34l31 -45q60 39 209.5 29.5t269.5 -50.5q78 -4 93.5 42t-2.5 73t-56 32t-59 -21t-11 -67q-36 8 -86 24q-22 88 -30 271.5t0 267.5q61 -89 88 -152.5t77 -172.5t125 -198t145 -117t147 39l-28 42 q-42 -59 -119 -33q-21 58 -11 382.5t31 405.5q43 2 86 24l-13 39q-231 -72 -420 7l-12 -35q39 -27 82 -34q16 -57 24 -248.5t-6 -255.5q-36 102 -65 163t-90.5 155t-114 149.5t-127.5 97t-176 14.5zM775 756q-24 -82 -33.5 -381.5t4.5 -366.5q-86 62 -165 204 q18 84 12.5 273.5t-19.5 269.5q97 -15 201 1zM321 611q-11 -97 -4 -299t22 -272q-104 14 -168 4q18 87 25.5 339.5t-4.5 366.5q85 -68 129 -139zM576.5 13q-7.5 -29 -32 -30.5t-36.5 13t-11 34t20.5 32t43 -3.5t16 -45z" />
<glyph unicode="O" horiz-adv-x="1013" d="M873 623q123 -126 93 -263.5t-135 -232t-192 -97.5q74 110 68 389t-80 343q123 -13 246 -139zM284 412q3 -227 88 -360q-158 35 -253.5 161t-55.5 270.5t292 264.5q-74 -109 -71 -336zM642.5 668q14.5 -48 21.5 -259.5t-22 -286.5t-43 -82q-45 -7 -88 26.5t-45 61.5 q56 -20 86 5.5t29 56.5t-16.5 56.5t-51.5 27.5t-57 -13.5t-29 -36.5t-9 -47t13 -68t76.5 -87t173 -20.5t221 148.5t108.5 264t-125.5 251.5t-256 132.5t-243 -5t-230.5 -121t-139.5 -215.5t45.5 -221t187 -174t259 -68.5q-57 26 -101.5 78t-68 193.5t-5.5 281t50 184.5 t113.5 44.5t107 -29.5t40 -77zM545 187.5q-8 -29.5 -33 -30.5t-38 13t-11.5 33.5t22 31.5t44.5 -3t16 -44.5z" />
<glyph unicode="P" horiz-adv-x="895" d="M307.5 780q-109.5 -42 -295.5 31l-15 -35q43 -33 108 -42q31 -163 26 -379t-17 -325q-59 -13 -105 -48l18 -25q216 94 456 16l19 27q-51 30 -110 33q-18 77 -19 161q71 -58 204.5 -23.5t218 146.5t69.5 197t-108 178t-216.5 111.5t-233 -23.5zM618 489.5 q-10 -282.5 -104.5 -284t-122 44.5t-10.5 116q35 -53 89.5 -37.5t51.5 78.5t-67 71t-92 -44q-6 242 14 323l48 11q203 4 193 -278.5zM327.5 369q10.5 -257 27.5 -328q-95 22 -204 -4q18 101 18 319t-26 372q94 -14 191 15q-17 -117 -6.5 -374zM825 550q37 -114 -53 -215 t-177 -127q51 108 62.5 254t-66.5 295q197 -93 234 -207zM487 394q-8 -30 -33.5 -31t-39 13.5t-12 34t22.5 31.5t45.5 -3t16.5 -45z" />
<glyph unicode="Q" horiz-adv-x="990" d="M632.5 656.5q28.5 -47.5 26 -250t-30 -275.5t-93.5 -79.5t-128.5 35.5t-84.5 178.5t6.5 281.5t61 178t94 34t91 -27t58 -75.5zM866 596.5q113 -133.5 50.5 -287.5t-277.5 -236q59 62 63 330.5t-93 349.5q144 -23 257 -156.5zM274 425q0 -223 57 -328q-251 81 -264 293 t285 350q-78 -92 -78 -315zM651 -17q266 -70 380 -75.5t161.5 -42t49.5 -100.5t-53 -111q-309 219 -538 329zM1352 -409q-26 26 -12 59q23 26 58 12q32 -22 16 -59q-25 -32 -62 -12zM396.5 794q-95.5 -16 -204 -101t-152 -199.5t29 -247.5t297.5 -213q-121 -33 -148 -118 l25 -20q54 76 159.5 102.5t282.5 -65t344.5 -218t259.5 -152.5t124.5 2t30 60.5t-21.5 52.5t-56.5 17.5t-53 -39.5t9.5 -70q-86 36 -108 56q63 48 57.5 134t-66.5 121.5t-151.5 42t-193 23.5t-226.5 60q336 154 337.5 353t-132 303t-241 118t-203 -2z" />
<glyph unicode="R" horiz-adv-x="954" d="M621 514q-10 -248 -104 -250t-121 44t-10 114q35 -52 88.5 -36.5t50.5 78t-66 70.5t-92 -44q-5 177 24 257l38 11q202 4 192 -244zM332.5 362q10.5 -255 27.5 -326q-94 23 -203 -3q16 100 17 316t-28 391q96 -16 201 14q-25 -137 -14.5 -392zM780 550.5 q35 -138.5 -39 -210.5t-161 -81q51 43 71 191.5t-57 295.5q151 -57 186 -195.5zM490.5 450.5q-8.5 -29.5 -33.5 -30.5t-38 13t-11.5 33.5t22 31.5t45 -3t16 -44.5zM457 204q280 -184 358 -200t123.5 -74.5t0 -135t-46.5 -109.5q-209 165 -435 519zM1015 -380q-16 33 8 60 q30 19 60 -6q23 -32 -4 -62q-34 -23 -64 8zM294 788.5q-127 -22.5 -311 26.5l-15 -35q42 -24 144 -36q30 -182 28 -396t-19 -322q-59 -13 -103 -43l17 -30q214 93 452 16l18 28q-50 29 -109 32q-17 76 -25 247q279 -429 418.5 -553.5t199 -140.5t90 -0.5t39 43t-3.5 53 t-46 36t-64.5 -18.5t-23.5 -68q-24 10 -55 36q0 39 46.5 113.5t15.5 148t-171 119t-356 197.5q34 -24 140 -6t175.5 94t52.5 178.5t-89.5 185t-195 100.5t-249.5 -4.5z" />
<glyph unicode="S" horiz-adv-x="702" d="M570 944q-26 -74 -36 -149q-51 -15 -110.5 1t-149 7t-156 -79.5t-61.5 -187t151.5 -194.5t185 -126.5t31 -91.5t-41.5 -53t-95.5 -1t-121 74.5t-89.5 175.5l-60 -17q37 -137 38.5 -249t-25.5 -129l40 -12q24 40 21 96q75 21 149 -3.5t185.5 -20t176.5 48t77.5 141.5 t-47.5 180.5t-161 128t-156.5 76t-66 73t20.5 86.5t75.5 41.5t95 -50.5t100.5 -185l40 7q-24 128 -17.5 225t41.5 183zM527 755q-11 -85 12 -168q-39 116 -107 164q47 4 95 4zM286 772q-73 -37 -79.5 -104.5t33.5 -101t107.5 -64t128.5 -60t119 -101t49.5 -158t-82 -131 t-212.5 -31.5q119 23 107.5 121.5t-114.5 156t-160 97.5t-79.5 102t10.5 149t172 125zM286 37q-155 35 -199 6q3 59 -23 223q55 -167 222 -229z" />
<glyph unicode="T" horiz-adv-x="767" d="M761 815q-156 -31 -396 -28.5t-352 26.5q15 -109 10 -200.5t0 -161t47 -95t83.5 3t39.5 70.5t-39.5 63.5t-91.5 -9.5q-15 60 45.5 146.5t135.5 108.5q21 -59 5.5 -345.5t-40.5 -361.5q-62 -12 -114 -50l23 -35q62 59 245 53t244 -52l21 43q-46 25 -119 42q-18 56 -22 364 t8 353q200 -73 226 -271q-48 45 -86 24t-44 -66t22 -67.5t58.5 -22t50.5 20.5t25.5 63t-2 156t16.5 228zM457 739q-12 -47 -9.5 -347.5t21.5 -355.5q-115 18 -222 4q23 74 38 360.5t-1 334.5q87 -3 173 4zM728 776q-18 -72 -9 -183q-56 126 -157 165q107 -4 166 18zM188 754 q-72 -55 -96.5 -79.5t-47.5 -99.5l9 89v95q54 -4 135 -5zM708 411q-8 -30 -33 -31t-38 13.5t-11.5 34.5t22 32t44.5 -3.5t16 -45.5zM152 415q-8 -30 -33 -31t-38 13.5t-11.5 34.5t22 32t44.5 -3.5t16 -45.5z" />
<glyph unicode="U" horiz-adv-x="1088" d="M813 743q-21 -67 -9 -359.5t36 -343.5q-142 10 -210 4q17 107 16.5 352.5t-19.5 340.5q84 -11 186 6zM276.5 561q-25.5 -74 -12 -264t124.5 -272q-116 -3 -243.5 129t-64.5 267t250 248q-29 -34 -54.5 -108zM515 798l-1 -50q40 -14 71 -10q23 -91 27 -319t-16 -277 q-66 -73 -117.5 -83.5t-76.5 5.5t-64.5 88t-37 252.5t75 263.5t113.5 78l1 56q-52 -9 -102 -11t-207 13q-79 21 -107 2.5t-39 -46.5t10.5 -60t54 -31.5t56 26t9.5 80.5q153 -29 258 -15q-118 -64 -242.5 -162.5t-154 -221t91 -252.5t257.5 -129t225 96l-5 -46 q-88 -39 -110 -87l33 -17q32 72 212.5 63.5t218 -10.5t61 2t50.5 33t14 74t-64 46.5t-67 -46t25 -73.5q-41 2 -85 7q-35 59 -46 363t16 356q71 14 109 46l-22 34q-60 -50 -213.5 -55t-211.5 17zM141 728q-8 -29 -32.5 -30t-37.5 13t-12 33t21.5 31t44.5 -3t16 -44zM1049 66 q-8 -29 -33 -30t-38 13t-11.5 33.5t22 31.5t44.5 -3.5t16 -44.5z" />
<glyph unicode="V" horiz-adv-x="993" d="M18 804v-40q65 -20 111 -19q40 -79 124 -362.5t86 -358.5q-65 -14 -84 -43l28 -20q36 21 116 36t220 -9q-7 -59 18.5 -120t79.5 -90t106.5 -9.5t59.5 78t-44.5 89t-104.5 -3t-35 -106.5q-56 49 -44.5 170t110.5 230.5t167 199t20 182.5t-133 137q78 1 143 11l-8 48 q-64 -19 -218 -18t-215 18l-5 -32q77 -33 143 -30q9 -41 4.5 -293t-32.5 -353q-37 52 -136 315.5t-105 333.5q37 8 86 27l-12 32q-201 -36 -446 0zM358 745q-1 -67 106 -351t157 -363q-122 24 -242 8q-14 87 -93.5 357t-121.5 349q70 -6 194 0zM766 743 q161 -106 164.5 -192.5t-112.5 -210t-138 -174.5q23 163 26.5 347.5t-11.5 228.5zM850.5 -160.5q-12.5 -43.5 -49.5 -45.5t-57 19t-17.5 50t33 47t67 -4.5t24 -66z" />
<glyph unicode="W" horiz-adv-x="1402" d="M1154 753q172 -96 174 -215t-67.5 -201t-177.5 -168q22 164 25.5 351t-11.5 232zM1253 -312.5q-12 -44.5 -49.5 -46t-57 19.5t-17 50.5t32.5 47.5t66.5 -4.5t24.5 -67zM363 750q-1 -68 105 -351.5t151 -361.5q-115 14 -207 -3q-15 88 -104.5 362.5t-132.5 353.5 q70 -6 188 0zM469 815v-41q37 -20 63 -19q40 -79 164 -466l195 132q-93 264 -99 334q37 9 86 28l-12 32q-201 -37 -397 0zM716 339q-107 337 -150 416q70 -6 195 0q-2 -68 91 -313zM910 294q63 -182 113 -262q-122 24 -241 7q-15 88 -26 148zM30 810v-41q65 -20 111 -19 q40 -79 134.5 -367t96.5 -364q-66 -14 -84 -44l27 -19q37 21 103 36t147.5 11.5t111.5 -19.5l16 38q-13 7 -37 10q-36 58 -50 109l470 351q-15 -293 -42 -394q-38 52 -108 249l-208 -148q22 -99 24 -175q-19 -4 -37 -17l8 -39q36 21 102.5 32.5t205.5 -12.5 q-17 -137 11.5 -238.5t85 -127.5t108.5 -6.5t59 79.5t-44.5 90.5t-103.5 -1t-35 -110.5q-64 81 -48.5 262.5t136 274.5t160 213t-1.5 203t-141 128q92 1 157 11l-8 49q-64 -19 -217.5 -18t-214.5 18l-6 -32q77 -34 144 -31q9 -42 14 -211l-484 -364q-9 17 -100 260t-98 313 q10 9 59 28l-12 32q-173 -36 -411 0z" />
<glyph unicode="X" horiz-adv-x="1099" d="M4 781q65 -15 128 -19q58 -56 285 -385q-173 -243 -272 -346q-52 -6 -95 -27l14 -36q34 27 177.5 31.5t237.5 -43.5l10 34q-38 21 -66 30q-45 98 -49 173t71 142q140 -197 182 -298q-50 -10 -84 -31l10 -35q57 28 225.5 36.5t314.5 -23.5l10 45q-61 13 -117 21 q-61 50 -199.5 209t-185.5 239q137 138 324 277q30 3 72 24l-18 40q-85 -42 -222 -40.5t-211 23.5l-8 -41l56 -15l28 -5q48 -39 35 -129q-25 -53 -78 -106q-141 201 -147 247q41 7 73 29l-19 23q-200 -63 -480 -10zM526.5 540.5q110.5 -164.5 238 -311t160.5 -181.5 q-161 9 -256 -8q-49 110 -236.5 381t-230.5 329q94 -2 182 8q32 -53 142.5 -217.5zM859 767q-102 -75 -167 -144q12 103 -19 133q88 -10 186 11zM387 23q-103 19 -185 9q68 77 144 189q-5 -121 41 -198z" />
<glyph unicode="Y" horiz-adv-x="951" d="M804 743q-21 -67 -9 -404.5t54 -442.5q-210 -89 -265 -149q51 105 52 500t-18 490q84 -11 186 6zM267.5 561q-25.5 -74 -12 -264t124.5 -272q-116 -3 -243.5 129t-64.5 267t250 248q-29 -34 -54.5 -108zM506 798l-1 -50q40 -14 71 -10q23 -91 27 -319t-16 -277 q-66 -73 -117.5 -83.5t-76.5 5.5t-64.5 88t-37 252.5t75 263.5t113.5 78l1 56q-52 -9 -102 -11t-207 13q-79 21 -107 2.5t-39 -46.5t10.5 -60t54 -31.5t56 26t9.5 80.5q153 -29 258 -15q-118 -64 -242.5 -162.5t-154 -221t91 -252.5t259.5 -128.5t223 95.5 q0 -133 -19.5 -260t-200.5 -221q1 44 -32.5 59.5t-58 4t-36 -26t-13.5 -37t7.5 -38t20 -25t35.5 -15.5t56.5 10.5t109.5 75t211 143.5t283 135l-12 39l-59 -22q-44 93 -55 442t16 401q71 14 109 46l-22 34q-60 -50 -213.5 -55t-211.5 17zM343 -406q-8 -29 -32.5 -30 t-37.5 13t-12 33t21.5 31t44.5 -3t16 -44zM132 728q-8 -29 -32.5 -30t-37.5 13t-12 33t21.5 31t44.5 -3t16 -44z" />
<glyph unicode="Z" horiz-adv-x="849" d="M74 878q26 -241 -13 -430l42 -11q27 103 136 201.5t247 100.5q-5 -60 -201 -358t-271 -355l16 -63q75 54 204 44.5t298.5 -29.5t272.5 22q-21 139 3.5 239.5t24.5 176.5t-26 109t-72.5 27t-60 -56.5t29.5 -82t79 4.5q-27 -130 -110 -217.5t-194 -168.5l-72 5 q11 70 168.5 368t219.5 366l-42 37q-145 -19 -342 -24.5t-291 20.5q2 22 -9 85zM730 755q-29 -44 -196 -335t-169 -374q-137 21 -258 4q55 61 241.5 348t196.5 336q109 15 185 21zM315 734q-131 -42 -203 -194q19 105 13 213q86 -27 190 -19zM761 30q-115 -31 -224 -3 q173 115 240 259q-34 -159 -16 -256zM783.5 464.5q-8.5 -29.5 -33.5 -30.5t-38 13t-11.5 33.5t22 31.5t45 -3t16 -44.5z" />
<glyph unicode="a" horiz-adv-x="1086" d="M859.5 828.5q-67.5 -23.5 -148 -20.5t-224.5 45t-195.5 28t-79 -42.5t-25 -77t46 -58.5t67.5 10.5t23.5 64t-50.5 57.5q44 37 347 -57q-58 -169 -157 -370q-121 75 -188 57.5t-63 -77t62.5 -52t39.5 89.5q10 17 126 -55q-99 -178 -233 -328q-148 -13 -173 -41.5 t-26.5 -63.5t42.5 -56.5t83 21.5t-13 88q50 21 180.5 0t180.5 -45l24 45l-52 14q-71 133 29 351q101 -24 179 20q6 -204 -36 -359l-90 -29l15 -49q151 83 387 61q-34 -54 -7 -92.5t77 -23t56.5 56t-19 67.5t-141.5 26q-43 379 -33 756l32 11q15 -61 60 -59t54.5 43.5t-17 61 t-50 12.5t-91 -30.5zM662 425q-81 -50 -158 -27q82 195 140 320q24 -124 18 -293z" />
<glyph unicode="b" horiz-adv-x="825" d="M376 784.5q-93 -25.5 -147 -22.5t-106 26q42 17 40.5 58.5t-26 56t-51 8.5t-40 -35t0 -54.5t39 -41.5t52 -26t63.5 -19q17 -61 9.5 -299t-43.5 -406q-138 -9 -152 -69t35 -80.5t83 27.5q23 60 -27 84q100 21 240 0.5t207 -16.5t127.5 33t107.5 99t16 174.5t-196 146.5 q160 83 116.5 208.5t-149.5 149t-199 -2zM513 761q61 -91 44.5 -199.5t-70.5 -123.5q-29 -4 -75 -3q-7 190 9 323q44 14 92 3zM571.5 316q26.5 -83 11.5 -175t-50.5 -115t-90.5 -7q-29 190 -28 375q40 13 85.5 9t72 -87z" />
<glyph unicode="c" horiz-adv-x="962" d="M802.5 1074.5q-52.5 -86.5 -78.5 -300.5q-49 -7 -196 21.5t-277.5 -35t-204 -205t-5.5 -276t182.5 -214t228 -70t259.5 56.5q13 -129 30.5 -188t50.5 -83.5t72.5 -10.5t42 57t-18 62.5t-59 15t-50.5 -53.5q-36 95 -42.5 397.5t20.5 514t78 307.5q26 -54 72.5 -43.5 t46.5 63t-49.5 62t-102 -77zM623 689q45 -59 59 -131t11 -257q-67 -189 -181.5 -239t-175.5 -3q-74 74 -77.5 291t41.5 314t161.5 90.5t161.5 -65.5z" />
<glyph unicode="d" horiz-adv-x="924" d="M626 38q33 137 33.5 332t-24.5 283.5t-57 114.5q-82 9 -146 -9q-30 -376 -2 -720q151 -27 196 -1zM337.5 3.5q-72.5 -2.5 -146.5 -15t-88 -23.5q55 -31 45 -84.5t-51 -65t-72.5 4t-40 52.5t5 63t54.5 43t139 41q40 361 16 695q-79 -4 -141 28t-79.5 65.5t-3.5 67.5 t60.5 31t50 -53.5t-47.5 -58.5q79 -51 172.5 -42t176 35t156 24.5t164.5 -54t170.5 -206.5t17.5 -280t-159.5 -212.5t-211.5 -69.5t-186.5 14.5z" />
<glyph unicode="e" horiz-adv-x="859" d="M567 180q-27 85 -24.5 198t15.5 234l-34 10q-33 -198 -243 -206q-84 8 -168 -12q84 -26 168 -24q228 -14 242 -209zM814 1014q-36 -51 -81 -240q-49 -6 -196 22t-277.5 -35t-204 -204.5t-5.5 -276t182.5 -214.5t228 -70.5t262.5 58.5q25 -168 52.5 -277t63.5 -138.5 t76 -15t42 57t-18 62t-58.5 15t-50.5 -52.5q-34 102 -62 279t-28.5 372.5t16.5 357t68 256.5q26 -53 72.5 -42.5t46.5 63t-46.5 63.5t-82.5 -40zM632 690q45 -59 59 -131t11 -258q-67 -189 -181.5 -238.5t-175.5 -2.5q-60 77 -63.5 306t34.5 312t154.5 77t161.5 -65z" />
<glyph unicode="f" horiz-adv-x="736" d="M407 792q-226 5 -365 33l-1 -46l87 -12q15 -63 32 -352t-19 -385q-132 -31 -145 -109q-8 -58 43 -78q56 -11 88 29q22 84 -42 92q175 66 431 4l19 41q-47 19 -111 26q-44 105 -43 350q48 2 97 -51.5t83 -197.5q22 -38 53 -32t41 33.5t-1.5 47t-37.5 23t-37 -16.5 q-16 97 -17 202t38 188l-31 14q-103 -149 -188 -149q-6 228 12 313h122q127 -44 161 -212l45 2q-15 133 -3 235l38 9l-11 33q-112 -39 -338 -34z" />
<glyph unicode="g" horiz-adv-x="849" d="M691 791q-60 -10 -141.5 5t-128 11t-119 -33.5t-158.5 -131.5t-101.5 -221.5t85 -251t218 -161.5t224.5 28q1 -95 -29 -170q-204 -90 -247 -162t-39 -111t33 -55.5t56.5 -6.5t39.5 42t-12.5 61.5t-63.5 21.5q24 40 64.5 75t151 81.5t160.5 58.5t138 27l-6 38l-51 -9 q-10 34 -15.5 194.5t8.5 257.5q75 9 101 61l-29 11q-14 -30 -54 -33.5t-188.5 16.5t-182.5 1.5t-28.5 -58t36 -55t60.5 12.5t7 77l72 -7q7 -23 16.5 -91t1.5 -227q-61 -53 -134 -47q-63 34 -79.5 91t-21.5 290.5t33 300.5q11 48 83.5 42t108 -38.5t62 -71t40.5 -129.5l30 1 q9 182 42 285t77 175l-32 28q-52 -78 -88 -223z" />
<glyph unicode="h" horiz-adv-x="1037" d="M425 558q71 74 179.5 96.5t214 -63.5t141.5 -221t-51.5 -252.5t-170.5 -196t-158 -124.5q-72 -57 -69 -92q61 42 100 -0.5t17.5 -92.5t-61.5 -56t-72 22t-29.5 99t82 135.5t110 174t36 323.5t-110.5 296q-111 -13 -156 -102q-19 -109 5 -501q55 -13 110 3l6 -41 q-64 -20 -215.5 17.5t-242.5 -19.5l-3 50q40 19 71 19q29 360 4 727q-107 12 -134 31t-33.5 44.5t6 51.5t33.5 38.5t57 -4t39.5 -54.5t-26.5 -61q158 -24 304 -7.5t329.5 118.5t239.5 76t62 -66t-18 -75.5t-72.5 -31.5t-64 51.5t13.5 74.5q-19 5 -165.5 -75.5t-289.5 -107.5 z" />
<glyph unicode="i" horiz-adv-x="500" d="M335 246zM222.5 786.5q166.5 -9.5 267.5 38.5l8 -33q-60 -30 -106 -32q-22 -361 3 -725q44 1 99 -19l-7 -38q-112 29 -256 26.5t-212 -28.5l-2 46q23 4 80 17q39 357 23 718q-56 7 -94 17l14 47q16 -25 182.5 -34.5z" />
<glyph unicode="j" horiz-adv-x="647" d="M384 -52.5q102 186.5 210 136.5l8 41q-50 17 -78 5q-22 274 5 630l69 23l-7 42q-107 -47 -219 -31.5t-201 36.5t-122.5 -28.5t-6 -89t70 -32t51.5 53t-15 63.5q18 5 79 -14q47 -453 20 -967q-63 -164 -112 -180q35 43 8.5 86.5t-79.5 29.5t-53 -80.5t72 -78.5t135 78 t165 276.5z" />
<glyph unicode="k" horiz-adv-x="1041" d="M986 812l9 -39l-56 -9q-143 -94 -244 -187t-118 -136q164 83 291 18t142.5 -191.5t-53.5 -195.5t-173 -150.5t-127 -152.5q81 31 126 -23.5t11 -112t-93 -50.5t-83 65t24 179t68.5 260t-23 219.5t-96 87t-124.5 -45.5q-2 -46 17 -312l70 -4l-7 -42q-181 20 -337 -18 q-163 -24 -195 23t-10 86.5t64 32t51.5 -46t-21.5 -71.5q32 -5 86 15q39 376 23 749q-44 5 -83 18l7 39q57 -21 198.5 -27t212.5 19l9 -33q-38 -17 -72 -20q-20 -347 -13 -357q183 135 165 360q-28 0 -62 13l10 39q98 -30 232 -23.5t174 24.5z" />
<glyph unicode="l" horiz-adv-x="786" d="M408 325zM137 760q34 -379 -15 -727q-64 -3 -103 -37l22 -24q45 30 152 33.5t301 -25.5t280 5l7 53q-32 -32 -60 -32q-23 82 13.5 243.5t-33 216t-146 25.5t-92.5 -67.5t-12 -62t22.5 -42t40 -23.5t41 0t42.5 33t7 74.5t-74 44.5q62 35 125.5 2.5t56 -121.5t-78 -188.5 t-229.5 -110.5q-41 348 2 738q38 7 77 23l-11 37q-115 -35 -242.5 -32t-184.5 21l-9 -37q50 -14 101 -20z" />
<glyph unicode="m" horiz-adv-x="1173" d="M612 762q-7 86 -29 147q-24 -63 -33 -139q-21 30 -69 44.5t-135.5 -10t-188 -128.5t-123.5 -192t13 -179t134.5 -179.5t216.5 -114.5q-125 -15 -252 -96l30 -43q112 88 265.5 111t316 -2.5t301.5 -104.5l29 49q-152 67 -287 90q112 10 212.5 100.5t131 210t-19 212.5 t-119 162t-158.5 97.5t-148.5 15.5t-87.5 -51zM449 778q39 -130 46 -362t-28 -379q-106 10 -156 56q-41 121 -38.5 331t56.5 315q57 51 120 39zM865 737q36 -108 36 -342.5t-42 -320.5q-14 -27 -126 -33q-31 73 -31 368t35 361q54 10 128 -33z" />
<glyph unicode="n" horiz-adv-x="951" d="M-5 799q92 26 165 -27q10 -129 4.5 -385t-37.5 -339q-49 -2 -124 -34l31 -45q60 39 209.5 29.5t269.5 -50.5q78 -4 93.5 42t-2.5 73t-56 32t-59 -21t-11 -67q-36 8 -86 24q-22 88 -30 271.5t0 267.5q61 -89 88 -152.5t77 -172.5t125 -198t145 -117t147 39l-28 42 q-42 -59 -119 -33q-21 58 -11 382.5t31 405.5q43 2 86 24l-13 39q-231 -72 -420 7l-12 -35q39 -27 82 -34q16 -57 24 -248.5t-6 -255.5q-36 102 -65 163t-90.5 155t-114 149.5t-127.5 97t-176 14.5z" />
<glyph unicode="o" horiz-adv-x="1026" d="M643.5 668q14.5 -48 21.5 -259.5t-22 -286.5t-43 -82q-45 -7 -88 26.5t-45 61.5q56 -20 86 5.5t29 56.5t-16.5 56.5t-51.5 27.5t-57 -13.5t-29 -36.5t-9 -47t13 -68t76.5 -87t173 -20.5t221 148.5t108.5 264t-125.5 251.5t-256 132.5t-243 -5t-230.5 -121t-139.5 -215.5 t45.5 -221t187 -174t259 -68.5q-57 26 -101.5 78t-68 193.5t-5.5 281t50 184.5t113.5 44.5t107 -29.5t40 -77z" />
<glyph unicode="p" horiz-adv-x="878" d="M310.5 780q-109.5 -42 -295.5 31l-15 -35q43 -33 108 -42q31 -163 26 -379t-17 -325q-59 -13 -105 -48l18 -25q216 94 456 16l19 27q-51 30 -110 33q-18 77 -19 161q71 -58 204.5 -23.5t218 146.5t69.5 197t-108 178t-216.5 111.5t-233 -23.5zM621 489.5 q-10 -282.5 -104.5 -284t-122 44.5t-10.5 116q35 -53 89.5 -37.5t51.5 78.5t-67 71t-92 -44q-6 242 14 323l48 11q203 4 193 -278.5z" />
<glyph unicode="q" horiz-adv-x="988" d="M628.5 656.5q28.5 -47.5 26 -250t-30 -275.5t-93.5 -79.5t-128.5 35.5t-84.5 178.5t6.5 281.5t61 178t94 34t91 -27t58 -75.5zM392.5 794q-95.5 -16 -204 -101t-152 -199.5t29 -247.5t297.5 -213q-121 -33 -148 -118l25 -20q54 76 159.5 102.5t282.5 -65t344.5 -218 t259.5 -152.5t124.5 2t30 60.5t-21.5 52.5t-56.5 17.5t-53 -39.5t9.5 -70q-86 36 -108 56q63 48 57.5 134t-66.5 121.5t-151.5 42t-193 23.5t-226.5 60q336 154 337.5 353t-132 303t-241 118t-203 -2z" />
<glyph unicode="r" horiz-adv-x="953" d="M623 514q-10 -248 -104 -250t-121 44t-10 114q35 -52 88.5 -36.5t50.5 78t-66 70.5t-92 -44q-5 177 24 257l38 11q202 4 192 -244zM296 788.5q-127 -22.5 -311 26.5l-15 -35q42 -24 144 -36q30 -182 28 -396t-19 -322q-59 -13 -103 -43l17 -30q214 93 452 16l18 28 q-50 29 -109 32q-17 76 -25 247q279 -429 418.5 -553.5t199 -140.5t90 -0.5t39 43t-3.5 53t-46 36t-64.5 -18.5t-23.5 -68q-24 10 -55 36q0 39 46.5 113.5t15.5 148t-171 119t-356 197.5q34 -24 140 -6t175.5 94t52.5 178.5t-89.5 185t-195 100.5t-249.5 -4.5z" />
<glyph unicode="s" horiz-adv-x="693" d="M570 944q-26 -74 -36 -149q-51 -15 -110.5 1t-149 7t-156 -79.5t-61.5 -187t151.5 -194.5t185 -126.5t31 -91.5t-41.5 -53t-95.5 -1t-121 74.5t-89.5 175.5l-60 -17q37 -137 38.5 -249t-25.5 -129l40 -12q24 40 21 96q75 21 149 -3.5t185.5 -20t176.5 48t77.5 141.5 t-47.5 180.5t-161 128t-156.5 76t-66 73t20.5 86.5t75.5 41.5t95 -50.5t100.5 -185l40 7q-24 128 -17.5 225t41.5 183z" />
<glyph unicode="t" horiz-adv-x="779" d="M766 815q-156 -31 -396 -28.5t-352 26.5q15 -109 10 -200.5t0 -161t47 -95t83.5 3t39.5 70.5t-39.5 63.5t-91.5 -9.5q-15 60 45.5 146.5t135.5 108.5q21 -59 5.5 -345.5t-40.5 -361.5q-62 -12 -114 -50l23 -35q62 59 245 53t244 -52l21 43q-46 25 -119 42q-18 56 -22 364 t8 353q200 -73 226 -271q-48 45 -86 24t-44 -66t22 -67.5t58.5 -22t50.5 20.5t25.5 63t-2 156t16.5 228z" />
<glyph unicode="u" horiz-adv-x="1070" d="M514 798l-1 -50q40 -14 71 -10q23 -91 27 -319t-16 -277q-66 -73 -117.5 -83.5t-76.5 5.5t-64.5 88t-37 252.5t75 263.5t113.5 78l1 56q-52 -9 -102 -11t-207 13q-79 21 -107 2.5t-39 -46.5t10.5 -60t54 -31.5t56 26t9.5 80.5q153 -29 258 -15q-118 -64 -242.5 -162.5 t-154 -221t91 -252.5t257.5 -129t225 96l-5 -46q-88 -39 -110 -87l33 -17q32 72 212.5 63.5t218 -10.5t61 2t50.5 33t14 74t-64 46.5t-67 -46t25 -73.5q-41 2 -85 7q-35 59 -46 363t16 356q71 14 109 46l-22 34q-60 -50 -213.5 -55t-211.5 17z" />
<glyph unicode="v" horiz-adv-x="970" d="M18 804v-40q65 -20 111 -19q40 -79 124 -362.5t86 -358.5q-65 -14 -84 -43l28 -20q36 21 116 36t220 -9q-7 -59 18.5 -120t79.5 -90t106.5 -9.5t59.5 78t-44.5 89t-104.5 -3t-35 -106.5q-56 49 -44.5 170t110.5 230.5t167 199t20 182.5t-133 137q78 1 143 11l-8 48 q-64 -19 -218 -18t-215 18l-5 -32q77 -33 143 -30q9 -41 4.5 -293t-32.5 -353q-37 52 -136 315.5t-105 333.5q37 8 86 27l-12 32q-201 -36 -446 0z" />
<glyph unicode="w" horiz-adv-x="1373" d="M462 815v-41q37 -20 63 -19q40 -79 164 -466l195 132q-93 264 -99 334q37 9 86 28l-12 32q-201 -37 -397 0zM23 810v-41q65 -20 111 -19q40 -79 134.5 -367t96.5 -364q-66 -14 -84 -44l27 -19q37 21 103 36t147.5 11.5t111.5 -19.5l16 38q-13 7 -37 10q-36 58 -50 109 l470 351q-15 -293 -42 -394q-38 52 -108 249l-208 -148q22 -99 24 -175q-19 -4 -37 -17l8 -39q36 21 102.5 32.5t205.5 -12.5q-17 -137 11.5 -238.5t85 -127.5t108.5 -6.5t59 79.5t-44.5 90.5t-103.5 -1t-35 -110.5q-64 81 -48.5 262.5t136 274.5t160 213t-1.5 203t-141 128 q92 1 157 11l-8 49q-64 -19 -217.5 -18t-214.5 18l-6 -32q77 -34 144 -31q9 -42 14 -211l-484 -364q-9 17 -100 260t-98 313q10 9 59 28l-12 32q-173 -36 -411 0z" />
<glyph unicode="x" horiz-adv-x="1096" d="M4 781q65 -15 128 -19q58 -56 285 -385q-173 -243 -272 -346q-52 -6 -95 -27l14 -36q34 27 177.5 31.5t237.5 -43.5l10 34q-38 21 -66 30q-45 98 -49 173t71 142q140 -197 182 -298q-50 -10 -84 -31l10 -35q57 28 225.5 36.5t314.5 -23.5l10 45q-61 13 -117 21 q-61 50 -199.5 209t-185.5 239q137 138 324 277q30 3 72 24l-18 40q-85 -42 -222 -40.5t-211 23.5l-8 -41l56 -15l28 -5q48 -39 35 -129q-25 -53 -78 -106q-141 201 -147 247q41 7 73 29l-19 23q-200 -63 -480 -10z" />
<glyph unicode="y" horiz-adv-x="934" d="M511 798l-1 -50q40 -14 71 -10q23 -91 27 -319t-16 -277q-66 -73 -117.5 -83.5t-76.5 5.5t-64.5 88t-37 252.5t75 263.5t113.5 78l1 56q-52 -9 -102 -11t-207 13q-79 21 -107 2.5t-39 -46.5t10.5 -60t54 -31.5t56 26t9.5 80.5q153 -29 258 -15q-118 -64 -242.5 -162.5 t-154 -221t91 -252.5t259.5 -128.5t223 95.5q0 -133 -19.5 -260t-200.5 -221q1 44 -32.5 59.5t-58 4t-36 -26t-13.5 -37t7.5 -38t20 -25t35.5 -15.5t56.5 10.5t109.5 75t211 143.5t283 135l-12 39l-59 -22q-44 93 -55 442t16 401q71 14 109 46l-22 34q-60 -50 -213.5 -55 t-211.5 17z" />
<glyph unicode="z" horiz-adv-x="851" d="M78 878q26 -241 -13 -430l42 -11q27 103 136 201.5t247 100.5q-5 -60 -201 -358t-271 -355l16 -63q75 54 204 44.5t298.5 -29.5t272.5 22q-21 139 3.5 239.5t24.5 176.5t-26 109t-72.5 27t-60 -56.5t29.5 -82t79 4.5q-27 -130 -110 -217.5t-194 -168.5l-72 5 q11 70 168.5 368t219.5 366l-42 37q-145 -19 -342 -24.5t-291 20.5q2 22 -9 85z" />
<glyph unicode="&#x2000;" horiz-adv-x="646" />
<glyph unicode="&#x2001;" horiz-adv-x="1292" />
<glyph unicode="&#x2002;" horiz-adv-x="646" />
<glyph unicode="&#x2003;" horiz-adv-x="1292" />
<glyph unicode="&#x2004;" horiz-adv-x="430" />
<glyph unicode="&#x2005;" horiz-adv-x="323" />
<glyph unicode="&#x2006;" horiz-adv-x="215" />
<glyph unicode="&#x2007;" horiz-adv-x="215" />
<glyph unicode="&#x2008;" horiz-adv-x="161" />
<glyph unicode="&#x2009;" horiz-adv-x="258" />
<glyph unicode="&#x200a;" horiz-adv-x="71" />
<glyph unicode="&#x202f;" horiz-adv-x="258" />
<glyph unicode="&#x205f;" horiz-adv-x="323" />
<glyph unicode="&#xe000;" horiz-adv-x="840" d="M0 840h840v-840h-840v840z" />
</font>
</defs>
</svg>
