<?xml version="1.0" standalone="no"?>
<!DOCTYPE svg PUBLIC "-//W3C//DTD SVG 1.1//EN" "http://www.w3.org/Graphics/SVG/1.1/DTD/svg11.dtd" >
<svg xmlns="http://www.w3.org/2000/svg">
<metadata></metadata>
<defs>
<font id="rosariobold_italic" horiz-adv-x="546" >
<font-face units-per-em="1000" ascent="800" descent="-200" />
<missing-glyph horiz-adv-x="200" />
<glyph horiz-adv-x="1000" />
<glyph horiz-adv-x="1000" />
<glyph unicode="&#xd;" horiz-adv-x="0" />
<glyph unicode=" "  horiz-adv-x="200" />
<glyph unicode="&#x09;" horiz-adv-x="200" />
<glyph unicode="&#xa0;" horiz-adv-x="200" />
<glyph unicode="!" horiz-adv-x="248" d="M13 62q0 30 22 52t52 22q31 0 53 -21.5t22 -52.5t-22 -52.5t-53 -21.5q-30 0 -52 21.5t-22 52.5zM67 222l36 466q2 18 9 26t24 8q12 0 80 -10q34 -5 34 -32q0 -10 -1 -13l-94 -458z" />
<glyph unicode="&#x22;" horiz-adv-x="327" d="M78 559l24 173h94l-24 -173q0 -1 -12.5 -26.5t-25.5 -53t-14 -30.5h-21q0 3 -3.5 19.5t-8 39t-6.5 34.5zM225 559l24 173h94l-24 -173q0 -1 -12.5 -26.5t-25.5 -53t-14 -30.5h-22q0 5 -10 57z" />
<glyph unicode="#" horiz-adv-x="578" d="M36 208v89h118l18 128h-110v89h122l29 218h89l-29 -218h94l29 218h89l-29 -218h102v-89h-114l-18 -128h106v-89h-118l-28 -208h-89l28 208h-94l-28 -208h-89l28 208h-106zM243 297h94l18 128h-94z" />
<glyph unicode="$" horiz-adv-x="408" d="M-8 29l52 82q62 -40 102 -40q33 0 56.5 18.5t23.5 54.5q0 23 -18.5 38.5t-45.5 26t-54 23t-45.5 38t-18.5 62.5q0 80 58 127t135 51l24 114h68l-44 -116q63 -8 100 -29l-50 -84q-39 34 -90 34q-28 0 -50.5 -15t-22.5 -45q0 -22 18.5 -36.5t45.5 -25t54 -23t45.5 -39 t18.5 -65.5q0 -79 -50 -133t-138 -60l-25 -112h-69l45 113q-73 7 -125 41z" />
<glyph unicode="%" horiz-adv-x="835" d="M57 465q0 63 20.5 118t67 92.5t111.5 37.5q42 0 69 -14h340l-424 -711h-67l393 657h-187q20 -37 20 -91q0 -100 -52 -175t-147 -75q-71 0 -107.5 44t-36.5 117zM161 463q0 -80 51 -80q32 0 52.5 34t26.5 69.5t6 68.5q0 79 -52 79q-32 0 -52 -33.5t-26 -69t-6 -68.5z M449 157q0 100 51.5 174t146.5 74q72 0 108 -43.5t36 -116.5q0 -100 -51.5 -174.5t-146.5 -74.5q-72 0 -108 44t-36 117zM552 155q0 -80 51 -80q32 0 52.5 34t26.5 69.5t6 68.5q0 79 -51 79q-32 0 -52.5 -33.5t-26.5 -69t-6 -68.5z" />
<glyph unicode="&#x26;" horiz-adv-x="731" d="M69 182q0 131 112 218q-21 39 -21 79q0 71 43 121.5t104 72t130 21.5q55 0 108 -20t87 -58l-60 -61q-25 25 -61.5 42.5t-68.5 17.5q-68 0 -116 -40t-48 -106q0 -12 1 -15q55 19 105 19q31 0 56 -6t45.5 -25t20.5 -50q0 -43 -47.5 -67.5t-95.5 -24.5q-70 0 -117 31 q-45 -61 -45 -134q0 -56 31 -85t87 -29q106 0 161 76q15 24 15 36q0 25 -28 25q-12 0 -21.5 -8t-11.5 -20h-78q0 51 33 75t86 24l126 -12q15 0 26.5 9.5t12.5 23.5h78q0 -110 -121 -110q-45 -109 -121.5 -161.5t-193.5 -52.5q-97 0 -155 49.5t-58 144.5zM312 389 q21 -18 47 -18q14 0 32.5 5t18.5 15q0 16 -31 16q-35 0 -67 -18z" />
<glyph unicode="'" horiz-adv-x="180" d="M78 559l24 173h94l-24 -173q0 -1 -12.5 -26.5t-25.5 -53t-14 -30.5h-21q0 3 -3.5 19.5t-8 39t-6.5 34.5z" />
<glyph unicode="(" horiz-adv-x="308" d="M26 222q0 271 245 521l89 -16q-112 -120 -167 -246.5t-55 -281.5q0 -166 108 -329l-93 -16q-127 174 -127 368z" />
<glyph unicode=")" horiz-adv-x="308" d="M-54 -130q111 117 166.5 244.5t55.5 282.5q0 166 -107 330l92 16q127 -174 127 -368q0 -143 -66.5 -276t-178.5 -245z" />
<glyph unicode="*" horiz-adv-x="465" d="M67 552l44 107l130 -74l-7 156h111l-47 -156l145 78l26 -108l-161 -27l99 -106l-98 -69l-52 141l-90 -138l-77 64l127 111z" />
<glyph unicode="+" horiz-adv-x="566" d="M26 204v88h205v205h88v-204h205v-88h-205v-205h-88v204h-205z" />
<glyph unicode="," horiz-adv-x="233" d="M-15 -93q56 50 56 77q0 6 -18 27.5t-18 47.5q0 34 23.5 57t55.5 23q35 0 56 -22t21 -55q0 -55 -43.5 -107.5t-99.5 -88.5z" />
<glyph unicode="-" horiz-adv-x="332" d="M42 210l13 95h221l-13 -95h-221z" />
<glyph unicode="." horiz-adv-x="230" d="M5 65q0 33 22.5 55.5t54.5 22.5t55 -23t23 -55t-22.5 -54.5t-55.5 -22.5q-32 0 -54.5 22.5t-22.5 54.5z" />
<glyph unicode="/" horiz-adv-x="331" d="M-8 0l269 732h94l-270 -732h-93z" />
<glyph unicode="0" horiz-adv-x="569" d="M26 197q0 147 77.5 230t207.5 83q105 0 160.5 -54.5t55.5 -154.5q0 -134 -70.5 -223.5t-214.5 -89.5q-104 0 -160 55t-56 154zM149 189q0 -120 104 -120q43 0 74 22t46.5 58.5t22.5 74.5t7 79q0 126 -103 126q-43 0 -74.5 -23.5t-47 -61.5t-22.5 -76.5t-7 -78.5z" />
<glyph unicode="1" horiz-adv-x="390" d="M9 0l13 99h103l36 279l-106 -29l-12 64l175 85h74l-52 -399h99l-13 -99h-317z" />
<glyph unicode="2" horiz-adv-x="470" d="M-2 0v54q46 45 133.5 135.5t104.5 107.5q40 40 40 76q0 23 -14 35.5t-36 12.5q-55 0 -127 -66l-49 64q109 93 221 93q60 0 102 -30t42 -87q0 -74 -68 -139q-26 -25 -54.5 -50t-68.5 -59t-56 -48h249l-40 -99h-379z" />
<glyph unicode="3" horiz-adv-x="478" d="M-48 -128q51 2 101.5 12t106 32.5t90 67.5t34.5 106q0 58 -59 58q-31 0 -68 -14l-25 72q60 27 115.5 80.5t55.5 107.5q0 34 -31 34q-42 0 -100 -49l-46 56q33 36 87.5 56t102.5 20q51 0 86.5 -21.5t35.5 -68.5q0 -57 -56.5 -111t-123.5 -87q22 2 30 2q60 0 95.5 -28.5 t35.5 -84.5q0 -77 -43.5 -138.5t-113 -97.5t-146.5 -55t-152 -19h-8z" />
<glyph unicode="4" horiz-adv-x="524" d="M-25 -1v58l330 441h124l-52 -399h99l-17 -100h-95l-24 -183h-119l24 183h-270zM117 99h141l30 230z" />
<glyph unicode="5" horiz-adv-x="381" d="M-27 -145q212 68 212 222q0 60 -52.5 113.5t-116.5 82.5l97 225h263l-33 -121h-178l-21 -50q73 -42 120 -104.5t47 -140.5q0 -62 -29 -114.5t-76 -87.5t-101.5 -57.5t-110.5 -29.5z" />
<glyph unicode="6" horiz-adv-x="532" d="M25 201q0 79 29 152t80 132t110.5 105t129.5 82q86 44 141 58l18 -65q-97 -35 -188.5 -111.5t-146.5 -169.5q59 37 115 37q80 0 128.5 -47.5t48.5 -127.5q0 -103 -72.5 -180.5t-184.5 -77.5q-97 0 -152.5 58.5t-55.5 154.5zM153 198q0 -53 21.5 -90t67.5 -37 q55 0 87 50.5t32 111.5q0 43 -21 72.5t-63 29.5q-59 0 -112 -53q-12 -48 -12 -84z" />
<glyph unicode="7" horiz-adv-x="437" d="M25 386l30 111h387v-63l-271 -623h-129l257 575h-274z" />
<glyph unicode="8" horiz-adv-x="492" d="M19 146q0 19 2.5 36t9 33t11 28t17 26.5t18.5 22t23 22.5t22.5 19.5t26 20.5t25.5 20q-42 42 -62 76t-20 82q0 90 62.5 145t145.5 55q71 0 118.5 -36.5t47.5 -102.5q0 -26 -6 -49.5t-11.5 -38t-23.5 -35t-24 -27t-32.5 -29t-31.5 -26.5l6 -7l6 -6q31 -34 45.5 -53 t28.5 -51.5t14 -68.5q0 -94 -65 -154t-170 -60q-77 0 -130 41.5t-53 116.5zM126 154q0 -38 21.5 -61.5t58.5 -23.5q43 0 73 34t30 78q0 9 -2.5 18.5t-5 17.5t-9 17.5t-10.5 15.5t-12.5 16t-12 14t-13 14t-11.5 12l-38 -30q-33 -26 -51 -54.5t-18 -67.5zM222 554 q0 -10 3 -20.5t5.5 -17t10.5 -17.5t10.5 -14t13.5 -15.5t12 -13.5q21 16 31 25.5t24 26t20.5 35t6.5 40.5q0 31 -14 50.5t-44 19.5q-17 0 -32.5 -8.5t-25.5 -23t-15.5 -32t-5.5 -35.5z" />
<glyph unicode="9" horiz-adv-x="519" d="M-23 -149q99 33 191.5 103.5t145.5 160.5q-59 -37 -115 -37q-80 0 -128.5 47.5t-48.5 126.5q0 109 78.5 184t179.5 75q96 0 151.5 -59t55.5 -155q0 -92 -43 -177.5t-114 -149.5t-157 -111t-179 -73zM152 266q0 -45 21 -73.5t63 -28.5q57 0 112 53q11 42 11 84 q0 53 -21.5 90t-67.5 37q-55 0 -86.5 -51.5t-31.5 -110.5z" />
<glyph unicode=":" horiz-adv-x="257" d="M15 65q0 33 22.5 55.5t54.5 22.5t55 -23t23 -55t-22.5 -54.5t-54.5 -22.5q-33 0 -55.5 22.5t-22.5 54.5zM60 354q0 32 22.5 54.5t54.5 22.5q33 0 55.5 -22.5t22.5 -54.5q0 -33 -22.5 -55.5t-54.5 -22.5t-55 23t-23 55z" />
<glyph unicode=";" horiz-adv-x="258" d="M-4 -93q56 50 56 77q0 6 -18 27.5t-18 47.5q0 34 23.5 57t55.5 23q35 0 56 -22t21 -55q0 -55 -43.5 -107.5t-99.5 -88.5zM59 354q0 32 22.5 54.5t55.5 22.5q32 0 54.5 -22.5t22.5 -54.5q0 -33 -22.5 -55.5t-54.5 -22.5t-55 23t-23 55z" />
<glyph unicode="&#x3c;" horiz-adv-x="592" d="M22 223v52l498 234v-90l-368 -170l368 -173v-88z" />
<glyph unicode="=" horiz-adv-x="648" d="M67 109v88h498v-88h-498zM67 302v88h498v-88h-498z" />
<glyph unicode="&#x3e;" horiz-adv-x="592" d="M56 -12v88l368 173l-368 170v90l498 -234v-52z" />
<glyph unicode="?" horiz-adv-x="404" d="M35 62q0 30 22 52t52 22t52.5 -22t22.5 -52t-22.5 -52t-52.5 -22t-52 22t-22 52zM50 350q0 44 25 76t60.5 51.5t71 36.5t60.5 40t25 54q0 19 -17.5 31t-36.5 12q-41 0 -91 -23l-25 84q72 20 126 20q66 0 116.5 -34t50.5 -97q0 -49 -26 -87t-62.5 -60t-73.5 -39t-63 -35 t-26 -39q0 -29 37.5 -40t74.5 -11h15l-26 -93q-52 3 -97 16.5t-81.5 49t-36.5 87.5z" />
<glyph unicode="@" horiz-adv-x="803" d="M29 192q0 79 29 155t80 137.5t129.5 99.5t170.5 38q141 0 237 -84t96 -227q0 -100 -54.5 -180t-141.5 -80q-77 0 -108 56q-20 -27 -52.5 -42t-61.5 -15q-63 0 -95.5 45t-32.5 111q0 82 57 158t148 76q54 0 86 -37l17 30h47q-18 -116 -19 -123q-19 -109 -19 -148 q0 -55 37 -55q56 0 92 62.5t36 141.5q0 119 -77 188t-192 69q-77 0 -143.5 -33t-109.5 -87t-67.5 -120.5t-24.5 -135.5q0 -117 73 -195t185 -78q42 0 84 12l15 -53q-45 -13 -99 -13q-140 0 -231 93.5t-91 233.5zM316 206q0 -93 54 -93q27 0 47 20t33.5 60.5t20 72.5t14.5 83 q-31 29 -61 29q-35 0 -61 -33t-36.5 -70.5t-10.5 -68.5z" />
<glyph unicode="A" horiz-adv-x="605" d="M-38 0l344 732h108l148 -732h-140l-41 210h-196l-99 -210h-124zM231 308h129q-5 27 -34 250q-8 -21 -40.5 -111t-54.5 -139z" />
<glyph unicode="B" horiz-adv-x="587" d="M26 0l90 671l-6 61h248q39 0 72.5 -6t65.5 -21t50 -44.5t18 -71.5q0 -71 -47.5 -125.5t-118.5 -64.5q66 -12 108 -58t42 -112q0 -110 -82.5 -169.5t-196.5 -59.5h-243zM171 99h102q62 0 100.5 39.5t38.5 100.5q0 53 -39 80.5t-95 27.5h-74zM217 446h97q47 0 78 33t31 80 q0 74 -87 74h-94z" />
<glyph unicode="C" horiz-adv-x="608" d="M37 293q0 117 44.5 219t135 168t209.5 66q59 0 121 -18t95 -53l-81 -92q-22 31 -62.5 48.5t-80.5 17.5q-60 0 -107.5 -31t-75 -81t-41.5 -105.5t-14 -111.5t14 -107t53 -91t97 -40q88 0 172 75l47 -95q-63 -38 -117.5 -56t-121.5 -18q-139 0 -213 82t-74 223z" />
<glyph unicode="D" horiz-adv-x="683" d="M26 0l90 671l-7 61h263q137 0 213.5 -79t76.5 -218q0 -116 -45.5 -214t-135.5 -159.5t-208 -61.5h-247zM171 99h110q61 0 108.5 29.5t75 78t41.5 103.5t14 113q0 92 -41 151t-129 59h-108z" />
<glyph unicode="E" horiz-adv-x="520" d="M26 0l90 671l-7 61h438l-13 -99h-293l-28 -207h224l-13 -99h-224l-30 -228h292l-13 -99h-423z" />
<glyph unicode="F" horiz-adv-x="472" d="M26 0l90 671l-6 61h407l-13 -99h-262l-28 -207h203l-13 -99h-203l-44 -327h-131z" />
<glyph unicode="G" horiz-adv-x="691" d="M37 284q0 124 45.5 227t139.5 168t220 65q65 0 131.5 -19.5t101.5 -59.5l-80 -82q-45 39 -78 53t-88 14q-64 0 -114.5 -31.5t-79 -82.5t-43 -109t-14.5 -119q0 -56 13 -103.5t50 -83.5t95 -36q67 0 114 46t56 109l8 62h-144l11 88h277q-39 -266 -49 -391h-68l-21 76 q-52 -45 -103 -65.5t-116 -20.5q-130 0 -197 81.5t-67 213.5z" />
<glyph unicode="H" horiz-adv-x="687" d="M26 0l90 671l-6 61h144l-41 -306h292l41 306h132l-98 -732h-132l44 327h-292l-43 -327h-131z" />
<glyph unicode="I" horiz-adv-x="263" d="M26 0l90 671l-6 61h144l-97 -732h-131z" />
<glyph unicode="J" horiz-adv-x="263" d="M-215 -186l62 83q32 -36 74 -36q88 0 111 186l84 624l-6 61h144l-86 -651q-6 -45 -9.5 -67.5t-12.5 -62t-19 -60t-28 -47.5t-40.5 -40.5t-56 -23.5t-75.5 -10q-78 0 -142 44z" />
<glyph unicode="K" horiz-adv-x="558" d="M26 0l90 671l-6 61h144l-47 -349l255 349h141l-258 -345l185 -387h-154l-169 377l-50 -377h-131z" />
<glyph unicode="L" horiz-adv-x="478" d="M26 0l90 671l-5 61h144l-84 -633h272l-13 -99h-404z" />
<glyph unicode="M" horiz-adv-x="843" d="M26 0l89 671l-5 61h192l92 -421q4 -18 6 -37t3 -46t2 -38q24 83 42 117l200 425h187l-98 -732h-131l66 496q2 14 7.5 39t6.5 33q-4 -8 -14.5 -33t-17.5 -39l-236 -497h-88l-109 497q-10 28 -14 72q-3 -61 -4 -72l-67 -496h-109z" />
<glyph unicode="N" horiz-adv-x="695" d="M26 0l89 671l-5 61h159l216 -439l29 -66q2 13 2 39t2 38l57 428h111l-99 -737h-107q-20 40 -121.5 248t-154.5 321q-3 -66 -3 -67l-67 -497h-108z" />
<glyph unicode="O" horiz-adv-x="731" d="M38 295q0 117 43.5 217.5t132.5 165.5t208 65q139 0 214 -82t75 -222q0 -117 -44.5 -218t-135 -166.5t-210.5 -65.5q-136 0 -209.5 84t-73.5 222zM178 298q0 -91 37 -152.5t122 -61.5q62 0 109.5 34.5t73 89t38 112t12.5 114.5q0 59 -13 104t-50 77.5t-96 32.5 q-61 0 -108.5 -34.5t-73.5 -89t-38.5 -112t-12.5 -114.5z" />
<glyph unicode="P" horiz-adv-x="549" d="M26 0l90 671l-6 61h221q98 0 161.5 -47t63.5 -144q0 -120 -79 -183.5t-204 -63.5h-77l-39 -294h-131zM210 391h80q59 0 93 43.5t34 103.5q0 46 -24 70.5t-70 24.5h-81z" />
<glyph unicode="Q" horiz-adv-x="730" d="M37 290q0 117 44 219t134.5 168.5t209.5 66.5q137 0 211 -86t74 -225q0 -127 -57.5 -238.5t-164.5 -167.5q74 -42 126.5 -68t132.5 -53.5t139 -27.5q48 0 180 35l24 -73q-54 -19 -85.5 -29t-78.5 -18.5t-92 -8.5q-53 0 -119.5 20t-113 42t-120.5 60t-104 52 q-17 9 -36 14.5t-44 11t-37 8.5q-223 53 -223 298zM178 297q0 -42 8 -77.5t25 -67t49.5 -49.5t76.5 -18q61 0 108 34t73.5 87.5t39.5 111.5t13 114q0 57 -13 103t-50.5 79.5t-95.5 33.5q-60 0 -107.5 -35t-73.5 -90t-39.5 -113t-13.5 -113z" />
<glyph unicode="R" horiz-adv-x="584" d="M26 0l90 671l-6 61h239q88 0 148.5 -46t60.5 -134q0 -74 -49 -130.5t-125 -74.5l166 -347h-148l-149 326h-52l-44 -326h-131zM214 424h60q145 0 145 125q0 40 -27.5 61.5t-68.5 21.5h-82z" />
<glyph unicode="S" horiz-adv-x="537" d="M-7 49l63 108q66 -73 157 -73q54 0 93.5 33.5t39.5 86.5q0 30 -19.5 55.5t-48.5 41.5t-63.5 37t-63.5 41.5t-48.5 55.5t-19.5 79q0 115 79 172.5t200 57.5q40 0 93.5 -17.5t82.5 -42.5l-59 -92q-24 24 -66 40t-77 16q-45 0 -77 -26.5t-32 -71.5q0 -29 19.5 -53.5 t48.5 -40t63 -36.5t63 -42t48.5 -57t19.5 -81q0 -113 -81 -182.5t-196 -69.5q-128 0 -219 61z" />
<glyph unicode="T" horiz-adv-x="543" d="M55 633l13 99h525l-14 -99h-195l-85 -633h-136l84 633h-192z" />
<glyph unicode="U" horiz-adv-x="667" d="M52 216q0 34 4 62l53 394l-7 60h149l-65 -489q-2 -18 -2 -27q0 -62 36 -97t98 -35q71 0 118 47t56 114l66 487h107l-61 -454q-19 -140 -92.5 -214.5t-220.5 -74.5q-114 0 -176.5 57t-62.5 170z" />
<glyph unicode="V" horiz-adv-x="586" d="M60 732h139l79 -418q2 -11 4.5 -36.5t3.5 -34.5l3 -43l16 52q18 57 31 85l181 395h124l-338 -733h-102z" />
<glyph unicode="W" horiz-adv-x="910" d="M66 732h137l53 -423q2 -11 3.5 -38.5t2.5 -40.5l3 -48l15 62q18 70 31 102l155 386h119l54 -425q3 -20 5 -78l2 -47l17 62q26 81 34 102l152 386h112l-284 -734h-134l-52 416l-3 63q-1 15 -1 49q-12 -42 -19 -62q-27 -86 -34 -103l-143 -363h-132z" />
<glyph unicode="X" horiz-adv-x="571" d="M-49 0l274 377l-154 355h151l98 -222l152 222h145l-246 -341l167 -391h-151l-113 260l-177 -260h-146z" />
<glyph unicode="Y" horiz-adv-x="544" d="M58 732h146l96 -260l171 260h130l-263 -405l-44 -327h-130l43 330z" />
<glyph unicode="Z" horiz-adv-x="547" d="M-14 0v82l394 551h-296l13 99h467v-73l-397 -560h330l-14 -99h-497z" />
<glyph unicode="[" horiz-adv-x="293" d="M5 -132l116 864h207l-8 -59h-94l-100 -746h94l-8 -59h-207z" />
<glyph unicode="\" horiz-adv-x="520" d="M86 732h93l270 -732h-94z" />
<glyph unicode="]" horiz-adv-x="293" d="M-36 -132l8 59h94l99 746h-93l7 59h207l-115 -864h-207z" />
<glyph unicode="^" horiz-adv-x="618" d="M48 0l235 498h52l235 -498h-91l-170 368l-173 -368h-88z" />
<glyph unicode="_" horiz-adv-x="704" d="M35 -143l13 96h508l-13 -96h-508z" />
<glyph unicode="`" horiz-adv-x="248" d="M4 755h145l109 -165h-103z" />
<glyph unicode="a" d="M16 197q0 78 30 148t93 117t146 47q28 0 62 -12.5t58 -37.5l23 41h63l-54 -370q-2 -14 -2 -21q0 -36 25 -36q17 0 48 12l17 -63q-47 -31 -106 -31q-30 0 -53 19.5t-29 48.5h-4q-53 -71 -146 -71q-85 0 -128 60.5t-43 148.5zM137 197q0 -126 73 -126q35 0 62.5 28t44.5 79 t27.5 98.5t18.5 110.5q-40 40 -86 40q-38 0 -67 -25.5t-44 -63.5t-22 -74.5t-7 -66.5z" />
<glyph unicode="b" horiz-adv-x="518" d="M17 40l90 673l-5 55h127l-41 -308q54 50 128 50q86 0 128.5 -56.5t42.5 -152.5q0 -78 -37 -148t-111 -117t-170 -47q-97 0 -152 51zM140 98q0 -27 42 -27q82 0 133 81.5t51 172.5q0 101 -71 101q-28 0 -62.5 -22t-58.5 -50l-33 -246q-1 -3 -1 -10z" />
<glyph unicode="c" horiz-adv-x="432" d="M16 197q0 130 76 221.5t199 91.5q36 0 77 -13.5t68 -34.5l-69 -79q-42 44 -90 44q-36 0 -63.5 -23t-42 -58t-22 -70t-7.5 -67q0 -58 22.5 -95.5t74.5 -37.5q53 0 110 45l37 -86q-89 -47 -170 -47q-90 0 -145 59.5t-55 149.5z" />
<glyph unicode="d" horiz-adv-x="561" d="M16 197q0 123 70 217.5t189 94.5q68 0 101 -32l31 237l-5 55h127l-92 -638q-2 -14 -2 -21q0 -36 25 -36q17 0 48 12l17 -64q-47 -31 -106 -31q-30 0 -53.5 19t-31.5 49q-53 -71 -147 -71q-85 0 -128 60.5t-43 148.5zM138 200q0 -129 73 -129q30 0 54 20.5t39 49.5 t27.5 75.5t19 83t13.5 87.5q-40 40 -86 40q-38 0 -67 -25t-44 -62.5t-22 -73.5t-7 -66z" />
<glyph unicode="e" horiz-adv-x="475" d="M15 201q0 52 18.5 105.5t52.5 99.5t88 75t119 29q67 0 110 -30t43 -86q0 -32 -14.5 -64t-47 -63.5t-95 -51.5t-147.5 -21q4 -57 32.5 -87.5t69.5 -30.5q64 0 144 61l42 -83q-22 -19 -53 -33q-68 -33 -145 -33q-95 0 -156 57t-61 156zM149 279q78 2 126 34.5t48 78.5 q0 34 -39 34q-33 0 -76 -37t-59 -110z" />
<glyph unicode="f" horiz-adv-x="335" d="M-161 -186l48 66q13 -12 34.5 -21.5t38.5 -9.5q67 0 85 116l61 449h-79l10 83h79q16 130 72.5 204.5t177.5 74.5q82 0 144 -43l-49 -79q-44 40 -98 40q-101 0 -132 -197h118l-11 -83h-118l-62 -461q-27 -183 -182 -183q-37 0 -77.5 11t-59.5 33z" />
<glyph unicode="g" horiz-adv-x="519" d="M-11 -174l56 81q8 -13 44 -35t70 -22q35 0 65.5 23t49.5 55.5t30 61.5t13 48h-4q-53 -50 -126 -50q-85 0 -128 60.5t-43 148.5q0 79 30 148.5t95 117t153 47.5q57 0 102 -20l98 31l-61 -455q-19 -135 -86 -215.5t-182 -80.5q-63 0 -109 18.5t-67 37.5zM138 200 q0 -129 73 -129q26 0 47.5 14t37 42.5t26.5 56.5t20 72.5t13.5 73t10.5 74.5q-46 22 -79 22q-39 0 -70 -25t-47 -62t-24 -73t-8 -66z" />
<glyph unicode="h" horiz-adv-x="497" d="M13 0l95 715l-4 54h126l-44 -319q79 61 145 61q62 0 91.5 -30.5t29.5 -93.5q0 -27 -3 -51l-38 -282l3 -54h-126l44 324q3 18 3 36q0 54 -50 54q-22 0 -57.5 -18t-52.5 -35l-48 -361h-114z" />
<glyph unicode="i" horiz-adv-x="224" d="M14 0l59 443l-3 54h124l-59 -442l3 -55h-124zM89 667q0 34 25 60.5t59 26.5q27 0 44.5 -19t17.5 -46q0 -34 -25 -61t-58 -27q-27 0 -45 19.5t-18 46.5z" />
<glyph unicode="j" horiz-adv-x="223" d="M-219 -188l55 80q30 -42 87 -42q67 0 90 155q2 7 2 10l58 429l-4 53h126l-63 -463q-5 -37 -8.5 -56.5t-11.5 -52t-16.5 -50.5t-23.5 -41t-34 -35t-47 -20.5t-62 -8.5q-79 0 -148 42zM87 667q0 33 25.5 60t58.5 27q27 0 45 -19t18 -46q0 -34 -25 -61t-58 -27 q-27 0 -45.5 19.5t-18.5 46.5z" />
<glyph unicode="k" horiz-adv-x="452" d="M13 0l95 715l-5 54h129l-67 -500l167 228h128l-179 -230l134 -267h-132l-120 255l-34 -255h-116z" />
<glyph unicode="l" horiz-adv-x="226" d="M13 0l95 715l-3 54h128l-96 -715l3 -54h-127z" />
<glyph unicode="m" horiz-adv-x="766" d="M16 0l48 356q3 28 3 58q0 57 -14 79l121 15q8 -24 8 -64q80 66 154 66q87 0 108 -73q76 73 164 73q114 0 114 -121q0 -29 -4 -50l-38 -286l3 -53h-124l44 332q2 18 2 28q0 28 -12 41t-41 13q-44 0 -103 -52l-48 -362h-115l45 335q2 16 2 24q0 55 -51 55q-24 0 -53 -16 t-50 -37l-49 -361h-114z" />
<glyph unicode="n" horiz-adv-x="501" d="M16 0l48 356q3 28 3 58q0 57 -14 79l121 15q8 -24 8 -64q78 67 153 67q62 0 91.5 -30.5t29.5 -93.5q0 -27 -3 -51l-38 -282l3 -54h-125l43 324q3 18 3 36q0 54 -50 54q-22 0 -57.5 -18t-52.5 -35l-49 -361h-114z" />
<glyph unicode="o" horiz-adv-x="514" d="M16 203q0 121 75 214t193 93q93 0 145.5 -60t52.5 -155q0 -78 -32 -147.5t-94.5 -114.5t-141.5 -45q-93 0 -145.5 60t-52.5 155zM141 197q0 -33 6 -59.5t26 -48t52 -21.5q38 0 65.5 25t41 64t19.5 76t6 72q0 123 -84 123q-36 0 -63 -24.5t-41 -62.5t-21 -74.5t-7 -69.5z " />
<glyph unicode="p" horiz-adv-x="526" d="M-14 -225l78 581q4 25 4 57q0 52 -13 79l117 15q9 -33 10 -60q23 28 62.5 45.5t77.5 17.5q85 0 128 -60.5t43 -148.5q0 -123 -70 -217.5t-189 -94.5q-68 0 -101 32l-25 -191l5 -55h-127zM145 111q40 -40 86 -40q30 0 55 17t40.5 42t26 57t14.5 59.5t4 50.5q0 129 -73 129 q-23 0 -42 -11t-33 -26t-25.5 -43.5t-18.5 -51t-14.5 -61t-11 -60.5t-8.5 -62z" />
<glyph unicode="q" horiz-adv-x="520" d="M16 197q0 78 30 148t93 117t146 47q72 0 121 -49l43 77h47l-93 -706l5 -55h-127l35 263q-54 -51 -129 -51q-85 0 -128 60.5t-43 148.5zM137 197q0 -126 73 -126q35 0 62.5 28t44.5 79t27.5 98.5t18.5 110.5q-40 40 -86 40q-38 0 -67 -25.5t-44 -63.5t-22 -74.5t-7 -66.5z " />
<glyph unicode="r" horiz-adv-x="333" d="M17 0l48 363q4 17 4 50q0 59 -16 84l122 10q10 -34 10 -76v-15q0 -9 -1 -14q32 43 78 74t93 31l-35 -119h-4q-75 0 -145 -92l-40 -296h-114z" />
<glyph unicode="s" horiz-adv-x="389" d="M-16 32l52 82q1 -1 10 -6.5t11 -7t10 -6.5t11.5 -6.5t11 -5t12 -5t11 -3.5t13 -2.5t12.5 -0.5q33 0 56.5 21t23.5 55q0 27 -28.5 47t-62 32t-62 41.5t-28.5 74.5q0 83 59.5 125.5t145.5 42.5q78 0 136 -31l-52 -84q-31 31 -89 31q-30 0 -51 -14.5t-21 -42.5 q0 -21 18.5 -36.5t45 -27t53 -26t45 -41.5t18.5 -66q0 -88 -61 -136t-148 -48q-82 0 -152 44z" />
<glyph unicode="t" horiz-adv-x="334" d="M25 414l11 83h69l19 136h127l-31 -136h115l-12 -83h-115l-36 -275q-2 -18 -2 -28q0 -39 33 -39q41 0 75 10l11 -69q-65 -23 -134 -23q-55 0 -79.5 23t-24.5 69q0 16 3 34l40 298h-69z" />
<glyph unicode="u" horiz-adv-x="526" d="M28 111q0 17 3 35l40 307l-5 44h127l-43 -328q-2 -18 -2 -27q0 -58 49 -58q31 0 56 23t40 61t23.5 71t13.5 68l19 146l-6 44h128l-54 -367q-2 -14 -2 -21q0 -36 25 -36q17 0 48 12l17 -63q-47 -31 -108 -31q-30 0 -53 19t-29 49h-4q-25 -32 -69.5 -51t-87.5 -19 q-126 0 -126 122z" />
<glyph unicode="v" horiz-adv-x="449" d="M28 497h122l53 -262q2 -9 10 -84q20 71 26 84l116 262h117l-232 -501h-106z" />
<glyph unicode="w" horiz-adv-x="676" d="M32 497h122l33 -231q2 -16 2 -48v-22q0 -15 -1 -23q12 55 24 85l101 239h112l33 -231q2 -14 2 -52v-22q0 -13 -1 -19l11 44q3 13 13 41l97 239h115l-219 -501h-99l-38 262q-2 16 -2 44v33l-6 -29q-5 -27 -11 -40l-115 -270h-99z" />
<glyph unicode="x" horiz-adv-x="450" d="M-46 0l207 264l-120 233h132l61 -132l95 132h129l-179 -230l134 -267h-133l-76 165l-120 -165h-130z" />
<glyph unicode="y" horiz-adv-x="452" d="M-173 -190l51 77q42 -37 88 -37q31 0 58 14.5t48.5 40.5t34.5 47t27 49l-105 496h122q48 -232 55 -276q1 -7 4 -75q19 64 24 75q23 54 127 276h112l-233 -500q-19 -40 -31.5 -63t-38 -58.5t-51.5 -55.5t-65.5 -35t-86.5 -15q-83 0 -140 40z" />
<glyph unicode="z" horiz-adv-x="427" d="M-17 0v61l270 353h-201l11 83h348v-62l-273 -351h239l-11 -84h-383z" />
<glyph unicode="{" horiz-adv-x="303" d="M19 266l8 61q33 0 51 26.5t22 62.5l20 153q10 78 50 124t112 46h56l-9 -62q-49 0 -69 -17t-26 -67l-22 -166q-11 -101 -69 -131q37 -24 37 -87q0 -22 -3 -43l-22 -166q-3 -22 -3 -38q0 -29 13.5 -37.5t52.5 -8.5h10l-9 -63h-43q-132 0 -132 128q0 21 3 43l22 159 q1 3 1 16q0 28 -12 47t-39 20z" />
<glyph unicode="|" horiz-adv-x="270" d="M87 -116v861h98v-861h-98z" />
<glyph unicode="}" horiz-adv-x="303" d="M-37 -147l8 62q54 0 70.5 14.5t24.5 70.5l22 166q10 99 69 130q-37 24 -37 87q0 23 3 44l22 166q2 10 2 15v15q0 30 -15 41.5t-54 11.5h-6l9 63h55q120 0 120 -129q0 -20 -3 -41l-21 -153q-1 -3 -1 -11v-12q0 -64 50 -65l-8 -61q-30 0 -49 -25t-23 -59l-21 -159 q-12 -84 -53.5 -127.5t-120.5 -43.5h-43z" />
<glyph unicode="~" horiz-adv-x="541" d="M22 244q19 45 57.5 77.5t81.5 32.5q47 0 115 -35t91 -35q47 0 84 73l60 -58q-25 -41 -65 -73t-79 -32q-40 0 -105.5 35t-100.5 35q-24 0 -44 -23t-32 -52z" />
<glyph unicode="&#xa1;" horiz-adv-x="249" d="M-6 -87q0 3 2 13l94 457l88 -12l-36 -467q-2 -18 -9 -26t-25 -8q-5 0 -79 11q-35 6 -35 32zM83 531q0 31 22 52.5t53 21.5q30 0 52 -22t22 -52q0 -31 -22 -52.5t-52 -21.5q-31 0 -53 21.5t-22 52.5z" />
<glyph unicode="&#xa2;" horiz-adv-x="465" d="M26 196q0 123 68.5 212t187.5 101l24 113h70l-41 -114q64 -8 111 -46l-67 -76q-44 39 -91 39q-44 0 -76.5 -39t-45.5 -86.5t-13 -90.5q0 -58 24 -97.5t77 -39.5q43 0 106 49l36 -86q-87 -47 -168 -47h-14l-26 -116h-69l47 123q-71 17 -105.5 70.5t-34.5 130.5z" />
<glyph unicode="&#xa3;" horiz-adv-x="563" d="M-7 0l14 100h88l32 242h-73l13 99h74l13 97q12 97 78 151.5t159 54.5q117 0 171 -115l-101 -54q-24 73 -84 73q-40 0 -64 -26.5t-29 -69.5l-15 -111h123l-13 -99h-124l-32 -242h279l-14 -100h-495z" />
<glyph unicode="&#xa4;" horiz-adv-x="580" d="M64 173l56 55q-25 47 -25 104t25 104l-56 57l69 69l52 -53q47 34 108 34t108 -34l53 53l69 -69l-57 -57q26 -50 26 -104q0 -53 -26 -103l57 -56l-69 -69l-52 51q-47 -34 -109 -34t-109 34l-51 -51zM190 332q0 -60 32 -93.5t71 -33.5q43 0 73.5 32.5t30.5 96.5 q0 53 -28 89t-75 36t-75.5 -36t-28.5 -91z" />
<glyph unicode="&#xa5;" horiz-adv-x="510" d="M20 162l7 49h161v5l-25 55h-129l7 49h101l-79 177h139l67 -165l109 165h117l-120 -177h95l-7 -49h-123l-37 -55v-5h153l-7 -49h-153l-21 -162h-115l21 162h-161z" />
<glyph unicode="&#xa6;" horiz-adv-x="270" d="M87 -116v353h98v-353h-98zM87 392v353h98v-353h-98z" />
<glyph unicode="&#xa7;" horiz-adv-x="457" d="M-41 -209l32 75q46 -17 66 -17q62 0 62 97q0 41 -3 91t-6 80t-10 94.5t-9 83.5q-11 112 -11 154q0 87 32.5 139.5t112.5 60.5q27 126 169 126q37 0 96 -21l-29 -78q-40 18 -71 18q-67 0 -67 -116q0 -56 14 -160q27 -270 27 -358q0 -70 -36 -112t-105 -51q-12 -63 -58 -95 t-111 -32q-53 0 -95 21zM185 453q0 -23 13 -166l16 -152q8 -85 11 -153q32 22 32 89q0 72 -17 244l-14 122q-7 69 -8 122q-33 -23 -33 -106z" />
<glyph unicode="&#xa8;" horiz-adv-x="276" d="M2 623q0 24 16.5 40.5t40.5 16.5t40.5 -16.5t16.5 -40.5t-16.5 -40.5t-40.5 -16.5t-40.5 16.5t-16.5 40.5zM162 623q0 23 17 40t40 17q24 0 41 -16.5t17 -40.5t-17 -40.5t-41 -16.5q-23 0 -40 17t-17 40z" />
<glyph unicode="&#xa9;" horiz-adv-x="624" d="M27 250q0 114 81.5 195.5t195.5 81.5t195.5 -81.5t81.5 -195.5t-81.5 -195.5t-195.5 -81.5t-195.5 81.5t-81.5 195.5zM67 250q0 -98 69.5 -167.5t167.5 -69.5t167.5 69.5t69.5 167.5t-69.5 167.5t-167.5 69.5t-167.5 -69.5t-69.5 -167.5zM148 216q0 87 53.5 146t139.5 59 q52 0 97 -35l-51 -56q-32 27 -61 27q-40 0 -62 -43.5t-22 -88.5q0 -82 63 -82q34 0 71 33l29 -64q-69 -32 -121 -32q-64 0 -100 35.5t-36 100.5z" />
<glyph unicode="&#xaa;" horiz-adv-x="413" d="M63 507q0 81 49 144.5t130 63.5q47 0 80 -33l15 27h42l-36 -246q-1 -3 -1 -14q0 -24 16 -24q11 0 32 8l12 -42q-35 -21 -71 -21q-20 0 -35 13t-19 33h-4q-37 -48 -96 -48q-56 0 -85 40t-29 99zM97 252l8 58h227l-8 -58h-227zM144 507q0 -83 48 -83q24 0 42.5 18.5 t29.5 53t17.5 65t12.5 73.5q-28 26 -57 26q-33 0 -55.5 -29.5t-30 -62t-7.5 -61.5z" />
<glyph unicode="&#xab;" horiz-adv-x="465" d="M34 332l176 172l75 -14l-141 -158l99 -159l-77 -11zM202 332l176 172l77 -14l-143 -158l101 -159l-79 -11z" />
<glyph unicode="&#xac;" horiz-adv-x="625" d="M52 267v83h498v-271h-86v188h-412z" />
<glyph unicode="&#xad;" horiz-adv-x="339" d="M52 210v95h221v-95h-221z" />
<glyph unicode="&#xae;" horiz-adv-x="497" d="M79 610q0 87 61.5 149t148.5 62t149 -62t62 -149t-62 -149t-149 -62t-148.5 62t-61.5 149zM114 610q0 -73 51.5 -124t123.5 -51t124 51.5t52 123.5t-52 123.5t-124 51.5t-123.5 -51t-51.5 -124zM188 497l33 235h93q74 0 74 -55q0 -52 -52 -73l59 -107h-72l-51 96h-11 l-13 -96h-60zM268 640h19q40 0 40 28q0 17 -27 17h-26z" />
<glyph unicode="&#xaf;" horiz-adv-x="276" d="M-28 595v64h330v-64h-330z" />
<glyph unicode="&#xb0;" horiz-adv-x="351" d="M69 593q0 60 42.5 102.5t102.5 42.5t103 -42.5t43 -102.5t-42.5 -102.5t-103.5 -42.5q-60 0 -102.5 42.5t-42.5 102.5zM136 593q0 -33 22.5 -57t55.5 -24t56 24t23 57t-23 57t-56 24t-55.5 -24t-22.5 -57z" />
<glyph unicode="&#xb1;" horiz-adv-x="609" d="M39 1v85h498v-85h-498zM39 266v85h205v146h88v-145h205v-85h-205v-147h-88v146h-205z" />
<glyph unicode="&#xb2;" horiz-adv-x="409" d="M49 438v51q78 61 135 115q136 132 136 201q0 23 -14.5 37t-37.5 14q-52 0 -126 -58l-33 66q20 16 54 35q66 36 135 36q66 0 100.5 -31.5t34.5 -80.5q0 -139 -225 -289l-1 -1h206l-38 -95h-326z" />
<glyph unicode="&#xb3;" horiz-adv-x="389" d="M50 494q116 6 182 40.5t66 86.5q0 51 -91 51q-6 0 -13.5 -0.5t-10.5 -0.5q-3 -1 -9 -1l-3 58q26 6 44 11.5t43 16.5t38 28.5t13 40.5q0 14 -12 22.5t-30 8.5q-65 0 -130 -50l-33 61q40 29 92 48.5t96 19.5q52 0 88 -19t36 -62q0 -83 -96 -116q88 -18 88 -96 q0 -21 -6.5 -44t-29 -54t-59 -55t-103.5 -42.5t-155 -21.5z" />
<glyph unicode="&#xb4;" horiz-adv-x="235" d="M21 590l132 165h145l-174 -165h-103z" />
<glyph unicode="&#xb5;" horiz-adv-x="572" d="M-2 -187l84 631l-3 53h125l-42 -311q-3 -18 -3 -37q0 -66 52 -66q56 0 106 47l42 314l-4 53h126l-48 -366q-2 -14 -2 -23q0 -29 18 -29q2 0 47 12l10 -73q-88 -27 -114 -27q-29 0 -46 18t-19 48q-64 -68 -126 -68q-33 0 -60 15l-26 -191h-117z" />
<glyph unicode="&#xb6;" horiz-adv-x="484" d="M-5 -136q0 51 38.5 89t89.5 38l-8 -54q-27 0 -46.5 -19t-19.5 -46q0 -21 14.5 -35t35.5 -14q24 0 42.5 17t21.5 40l69 498q-71 0 -117.5 44.5t-46.5 115.5q0 106 72.5 166t180.5 60h192l-8 -54h-56l-108 -773q-6 -45 -42.5 -78t-81.5 -33q-5 0 -19 2q-40 -59 -107 -59 q-42 0 -69 26.5t-27 68.5zM218 -120h4q24 0 43 17t22 40l108 773h-61z" />
<glyph unicode="&#xb7;" horiz-adv-x="233" d="M34 257q0 32 22 54t53 22q32 0 54 -22t22 -53q0 -32 -22 -54t-53 -22q-32 0 -54 22t-22 53z" />
<glyph unicode="&#xb8;" horiz-adv-x="229" d="M35 -158q16 2 23 3.5t22.5 5.5t23 12t7.5 19q0 12 -13 19t-44 17l65 95h76l-36 -55q50 -24 50 -70q0 -85 -158 -108z" />
<glyph unicode="&#xb9;" horiz-adv-x="399" d="M51 438l10 79h127l40 303l-124 -35l-15 70q13 4 57 19q61 21 122 50h81l-53 -407h102l-10 -79h-337z" />
<glyph unicode="&#xba;" horiz-adv-x="388" d="M68 508q0 84 50 145.5t132 61.5q65 0 100 -38.5t35 -103.5q0 -85 -50 -146t-133 -61q-64 0 -99 38.5t-35 103.5zM73 252l8 58h227l-8 -58h-227zM152 505q0 -84 59 -84q32 0 53.5 28.5t28.5 61t7 65.5q0 84 -58 84q-33 0 -54.5 -29t-28.5 -61.5t-7 -64.5z" />
<glyph unicode="&#xbb;" horiz-adv-x="463" d="M13 173l145 159l-98 158l80 14l128 -172l-180 -170zM182 173l144 159l-97 158l79 14l128 -172l-180 -170z" />
<glyph unicode="&#xbc;" horiz-adv-x="995" d="M46 246l10 79h126l40 303l-123 -35l-14 70q11 3 56 19q65 22 123 50h80l-54 -407h102l-10 -79h-336zM296 -27l399 780h80l-400 -780h-79zM554 101v52l259 333h107l-41 -306h68l-11 -79h-67l-13 -101h-108l13 101h-207zM666 180h105l16 117q3 18 10 52l6 26l3 11 q-21 -51 -61 -103z" />
<glyph unicode="&#xbd;" horiz-adv-x="1032" d="M43 246l10 79h126l40 303l-123 -35l-14 70q11 3 56 19q65 22 123 50h80l-54 -407h102l-10 -79h-336zM293 -27l399 780h80l-400 -780h-79zM610 0v52l10 8q53 43 104.5 89.5t102.5 110t51 101.5q0 23 -14.5 35.5t-38.5 12.5q-26 0 -61 -16t-62 -36l-33 69q97 71 192 71 q61 0 100 -28t39 -85q0 -73 -63.5 -147.5t-145.5 -130.5h182l-40 -106h-323z" />
<glyph unicode="&#xbe;" horiz-adv-x="951" d="M37 302q118 6 183 40t65 87q0 51 -90 51q-6 0 -13.5 -0.5t-10.5 -0.5q-3 -1 -9 -1l-3 58q26 6 43 11t42.5 16.5t39 29t13.5 39.5q0 15 -12 23.5t-31 8.5q-31 0 -67 -14.5t-62 -35.5l-33 61q39 29 91.5 48.5t97.5 19.5q51 0 86.5 -19t35.5 -61q0 -83 -94 -117 q86 -18 86 -96q0 -21 -6 -43.5t-28.5 -53.5t-58.5 -55t-103.5 -43t-155.5 -22zM252 -27l398 780h80l-399 -780h-79zM509 101v52l259 333h107l-41 -306h69l-11 -79h-68l-13 -101h-108l13 101h-207zM622 180h104l16 117q1 13 11 51l9 38q-25 -54 -62 -103z" />
<glyph unicode="&#xbf;" horiz-adv-x="408" d="M-10 -1q0 49 26 87t63 60t73.5 39t62.5 35t26 39q0 28 -35 39.5t-72 11.5h-20l26 93q52 -3 97 -16.5t81.5 -49t36.5 -87.5q0 -44 -25 -76t-60.5 -51.5t-71 -36.5t-60.5 -40t-25 -54q0 -19 17.5 -31t36.5 -12q47 0 91 23l25 -84q-72 -20 -126 -20q-66 0 -116.5 34 t-50.5 97zM221 538q0 30 22.5 52t52.5 22t52 -22t22 -52t-22 -52t-52 -22t-52.5 22t-22.5 52z" />
<glyph unicode="&#xc0;" horiz-adv-x="605" d="M-38 0l344 732h108l148 -732h-140l-41 210h-196l-99 -210h-124zM169 936h145l109 -165h-103zM231 308h129q-5 27 -34 250q-8 -21 -40.5 -111t-54.5 -139z" />
<glyph unicode="&#xc1;" horiz-adv-x="605" d="M-38 0l344 732h108l148 -732h-140l-41 210h-196l-99 -210h-124zM231 308h129q-5 27 -34 250q-8 -21 -40.5 -111t-54.5 -139zM294 771l132 165h145l-174 -165h-103z" />
<glyph unicode="&#xc2;" horiz-adv-x="605" d="M-38 0l344 732h108l148 -732h-140l-41 210h-196l-99 -210h-124zM214 771l116 145h98l79 -145h-78l-60 74l-79 -74h-76zM231 308h129q-5 27 -34 250q-8 -21 -40.5 -111t-54.5 -139z" />
<glyph unicode="&#xc3;" horiz-adv-x="605" d="M-38 0l344 732h108l148 -732h-140l-41 210h-196l-99 -210h-124zM180 795q14 21 32 38q42 38 98 38q30 0 70 -14t53 -14q3 0 6 0.5t6.5 1.5t6 2t6.5 3t6 3.5t6 4t6.5 4t6.5 4.5t6 4l46 -31q-48 -75 -121 -75q-30 0 -71.5 14.5t-60.5 14.5q-21 0 -52 -25zM231 308h129 q-7 38 -12.5 78t-12 94.5t-9.5 77.5q-8 -21 -40.5 -111t-54.5 -139z" />
<glyph unicode="&#xc4;" horiz-adv-x="605" d="M-38 0l344 732h108l148 -732h-140l-41 210h-196l-99 -210h-124zM223 820q0 24 16.5 40.5t40.5 16.5t40.5 -16.5t16.5 -40.5t-16.5 -40.5t-40.5 -16.5t-40.5 16.5t-16.5 40.5zM231 308h129q-5 27 -34 250q-8 -21 -40.5 -111t-54.5 -139zM383 820q0 23 17 40t40 17 q24 0 41 -16.5t17 -40.5t-17 -40.5t-41 -16.5q-23 0 -40 17t-17 40z" />
<glyph unicode="&#xc5;" horiz-adv-x="605" d="M-38 0l344 732h108l148 -732h-140l-41 210h-196l-99 -210h-124zM231 308h129q-5 27 -34 250q-8 -21 -40.5 -111t-54.5 -139zM264 870q0 44 31.5 75.5t75.5 31.5t76 -31.5t32 -75.5t-32 -75.5t-76 -31.5t-75.5 31.5t-31.5 75.5zM330 870q0 -17 12 -29t29 -12t28.5 12 t11.5 29t-12 28.5t-28 11.5q-17 0 -29 -11.5t-12 -28.5z" />
<glyph unicode="&#xc6;" horiz-adv-x="859" d="M-55 0l433 670l-5 62h514l-14 -99h-267l-29 -207h215l-14 -99h-215l-32 -228h267l-14 -99h-405l30 210h-205l-137 -210h-122zM268 308h154l44 325l-37 -71z" />
<glyph unicode="&#xc7;" horiz-adv-x="608" d="M37 293q0 117 44.5 219t135 168t209.5 66q59 0 121 -18t95 -53l-81 -92q-22 31 -62.5 48.5t-80.5 17.5q-60 0 -107.5 -31t-75 -81t-41.5 -105.5t-14 -111.5t14 -107t53 -91t97 -40q88 0 172 75l47 -95q-104 -63 -199 -72l-21 -32q50 -24 50 -70q0 -85 -158 -108l-16 62 q16 2 23 3.5t22.5 5.5t23 12t7.5 19q0 12 -13 19t-44 17l49 72q-122 12 -186 92t-64 211z" />
<glyph unicode="&#xc8;" horiz-adv-x="520" d="M26 0l90 671l-7 61h438l-13 -99h-293l-28 -207h224l-13 -99h-224l-30 -228h292l-13 -99h-423zM154 936h145l109 -165h-103z" />
<glyph unicode="&#xc9;" horiz-adv-x="520" d="M26 0l90 671l-7 61h438l-13 -99h-293l-28 -207h224l-13 -99h-224l-30 -228h292l-13 -99h-423zM285 771l132 165h145l-174 -165h-103z" />
<glyph unicode="&#xca;" horiz-adv-x="520" d="M26 0l90 671l-7 61h438l-13 -99h-293l-28 -207h224l-13 -99h-224l-30 -228h292l-13 -99h-423zM198 771l116 145h98l79 -145h-78l-60 74l-79 -74h-76z" />
<glyph unicode="&#xcb;" horiz-adv-x="520" d="M26 0l90 671l-7 61h438l-13 -99h-293l-28 -207h224l-13 -99h-224l-30 -228h292l-13 -99h-423zM206 821q0 24 16.5 40.5t40.5 16.5t40.5 -16.5t16.5 -40.5t-16.5 -40.5t-40.5 -16.5t-40.5 16.5t-16.5 40.5zM366 821q0 23 17 40t40 17q24 0 41 -16.5t17 -40.5t-17 -40.5 t-41 -16.5q-23 0 -40 17t-17 40z" />
<glyph unicode="&#xcc;" horiz-adv-x="263" d="M2 936h145l109 -165h-103zM26 0l90 671l-6 61h144l-97 -732h-131z" />
<glyph unicode="&#xcd;" horiz-adv-x="263" d="M26 0l90 671l-6 61h144l-97 -732h-131zM127 771l132 165h145l-174 -165h-103z" />
<glyph unicode="&#xce;" horiz-adv-x="263" d="M26 0l90 671l-6 61h144l-97 -732h-131zM46 771l116 145h98l79 -145h-78l-60 74l-79 -74h-76z" />
<glyph unicode="&#xcf;" horiz-adv-x="263" d="M26 0l90 671l-6 61h144l-97 -732h-131zM58 820q0 24 16.5 40.5t40.5 16.5t40.5 -16.5t16.5 -40.5t-16.5 -40.5t-40.5 -16.5t-40.5 16.5t-16.5 40.5zM218 820q0 23 17 40t40 17q24 0 41 -16.5t17 -40.5t-17 -40.5t-41 -16.5q-23 0 -40 17t-17 40z" />
<glyph unicode="&#xd0;" horiz-adv-x="699" d="M7 324l11 88h79l34 260q0 3 -3.5 30.5t-3.5 29.5h263q139 0 215 -80t76 -217q0 -94 -34.5 -185.5t-103.5 -154.5q-105 -95 -251 -95h-247l43 324h-78zM186 99h111q78 0 134 49.5t80.5 120.5t24.5 153q0 93 -41 152t-129 59h-109l-29 -221h143l-12 -88h-143z" />
<glyph unicode="&#xd1;" horiz-adv-x="695" d="M26 0l89 671l-5 61h159l216 -439l29 -66q2 13 2 39t2 38l57 428h111l-99 -737h-107q-20 40 -121.5 248t-154.5 321q-3 -66 -3 -67l-67 -497h-108zM246 794q14 21 32 38q42 38 98 38q30 0 70 -14t53 -14q4 0 8 0.5t8.5 2.5t7.5 3t8.5 5t7 5t8.5 5.5t8 5.5l46 -31 q-48 -75 -121 -75q-30 0 -71.5 14.5t-60.5 14.5q-21 0 -52 -25z" />
<glyph unicode="&#xd2;" horiz-adv-x="729" d="M37 295q0 117 43.5 217.5t132.5 165.5t208 65q139 0 214 -82t75 -222q0 -117 -44.5 -218t-135 -166.5t-210.5 -65.5q-136 0 -209.5 84t-73.5 222zM177 298q0 -91 37 -152.5t122 -61.5q62 0 109.5 34.5t73 89t38 112t12.5 114.5q0 59 -13 104t-50 77.5t-96 32.5 q-61 0 -108.5 -34.5t-73.5 -89t-38.5 -112t-12.5 -114.5zM239 936h145l109 -165h-103z" />
<glyph unicode="&#xd3;" horiz-adv-x="729" d="M37 295q0 117 43.5 217.5t132.5 165.5t208 65q139 0 214 -82t75 -222q0 -117 -44.5 -218t-135 -166.5t-210.5 -65.5q-136 0 -209.5 84t-73.5 222zM177 298q0 -91 37 -152.5t122 -61.5q62 0 109.5 34.5t73 89t38 112t12.5 114.5q0 59 -13 104t-50 77.5t-96 32.5 q-61 0 -108.5 -34.5t-73.5 -89t-38.5 -112t-12.5 -114.5zM380 771l132 165h145l-174 -165h-103z" />
<glyph unicode="&#xd4;" horiz-adv-x="729" d="M37 295q0 117 43.5 217.5t132.5 165.5t208 65q139 0 214 -82t75 -222q0 -117 -44.5 -218t-135 -166.5t-210.5 -65.5q-136 0 -209.5 84t-73.5 222zM177 298q0 -91 37 -152.5t122 -61.5q62 0 109.5 34.5t73 89t38 112t12.5 114.5q0 59 -13 104t-50 77.5t-96 32.5 q-61 0 -108.5 -34.5t-73.5 -89t-38.5 -112t-12.5 -114.5zM289 771l116 145h98l79 -145h-78l-60 74l-79 -74h-76z" />
<glyph unicode="&#xd5;" horiz-adv-x="729" d="M37 295q0 117 43.5 217.5t132.5 165.5t208 65q139 0 214 -82t75 -222q0 -117 -44.5 -218t-135 -166.5t-210.5 -65.5q-136 0 -209.5 84t-73.5 222zM177 298q0 -91 37 -152.5t122 -61.5q62 0 109.5 34.5t73 89t38 112t12.5 114.5q0 59 -13 104t-50 77.5t-96 32.5 q-61 0 -108.5 -34.5t-73.5 -89t-38.5 -112t-12.5 -114.5zM250 795q14 21 32 38q42 38 98 38q30 0 70 -14t53 -14q4 0 8 0.5t8.5 2.5t7.5 3t8.5 5t7 5t8.5 5.5t8 5.5l46 -31q-48 -75 -121 -75q-30 0 -71.5 14.5t-60.5 14.5q-21 0 -52 -25z" />
<glyph unicode="&#xd6;" horiz-adv-x="729" d="M37 295q0 117 43.5 217.5t132.5 165.5t208 65q139 0 214 -82t75 -222q0 -117 -44.5 -218t-135 -166.5t-210.5 -65.5q-136 0 -209.5 84t-73.5 222zM177 298q0 -91 37 -152.5t122 -61.5q62 0 109.5 34.5t73 89t38 112t12.5 114.5q0 59 -13 104t-50 77.5t-96 32.5 q-61 0 -108.5 -34.5t-73.5 -89t-38.5 -112t-12.5 -114.5zM303 820q0 24 16.5 40.5t40.5 16.5t40.5 -16.5t16.5 -40.5t-16.5 -40.5t-40.5 -16.5t-40.5 16.5t-16.5 40.5zM463 820q0 23 17 40t40 17q24 0 41 -16.5t17 -40.5t-17 -40.5t-41 -16.5q-23 0 -40 17t-17 40z" />
<glyph unicode="&#xd7;" horiz-adv-x="511" d="M41 104l145 144l-145 145l62 62l145 -144l145 144l62 -62l-145 -145l145 -144l-62 -62l-145 144l-145 -144z" />
<glyph unicode="&#xd8;" horiz-adv-x="731" d="M28 -11l74 95q-64 79 -64 211q0 117 43.5 217.5t132.5 165.5t208 65q99 0 164 -41l54 68l71 -55l-58 -74q58 -77 58 -202q0 -117 -44.5 -218t-135.5 -166.5t-211 -65.5q-86 0 -150 36l-71 -91zM178 298q0 -57 13 -100l323 412q-40 38 -103 38q-61 0 -108.5 -34.5 t-73.5 -89t-38.5 -112t-12.5 -114.5zM241 116q38 -32 96 -32q62 0 109.5 34.5t73 89t38 112t12.5 114.5q0 49 -10 89z" />
<glyph unicode="&#xd9;" horiz-adv-x="665" d="M51 216q0 34 4 62l53 394l-7 60h149l-65 -489q-2 -18 -2 -27q0 -62 36 -97t98 -35q71 0 118 47t56 114l66 487h107l-61 -454q-19 -140 -92.5 -214.5t-220.5 -74.5q-114 0 -176.5 57t-62.5 170zM212 936h145l109 -165h-103z" />
<glyph unicode="&#xda;" horiz-adv-x="665" d="M51 216q0 34 4 62l53 394l-7 60h149l-65 -489q-2 -18 -2 -27q0 -62 36 -97t98 -35q71 0 118 47t56 114l66 487h107l-61 -454q-19 -140 -92.5 -214.5t-220.5 -74.5q-114 0 -176.5 57t-62.5 170zM350 771l132 165h145l-174 -165h-103z" />
<glyph unicode="&#xdb;" horiz-adv-x="665" d="M51 216q0 34 4 62l53 394l-7 60h149l-65 -489q-2 -18 -2 -27q0 -62 36 -97t98 -35q71 0 118 47t56 114l66 487h107l-61 -454q-19 -140 -92.5 -214.5t-220.5 -74.5q-114 0 -176.5 57t-62.5 170zM260 771l116 145h98l79 -145h-78l-60 74l-79 -74h-76z" />
<glyph unicode="&#xdc;" horiz-adv-x="665" d="M51 216q0 34 4 62l53 394l-7 60h149l-65 -489q-2 -18 -2 -27q0 -62 36 -97t98 -35q71 0 118 47t56 114l66 487h107l-61 -454q-19 -140 -92.5 -214.5t-220.5 -74.5q-114 0 -176.5 57t-62.5 170zM275 823q0 24 16.5 40.5t40.5 16.5t40.5 -16.5t16.5 -40.5t-16.5 -40.5 t-40.5 -16.5t-40.5 16.5t-16.5 40.5zM435 823q0 23 17 40t40 17q24 0 41 -16.5t17 -40.5t-17 -40.5t-41 -16.5q-23 0 -40 17t-17 40z" />
<glyph unicode="&#xdd;" horiz-adv-x="563" d="M67 732h146l96 -260l171 260h130l-263 -405l-44 -327h-130l43 330zM291 772l132 165h145l-174 -165h-103z" />
<glyph unicode="&#xde;" d="M26 0l89 671q0 1 -2.5 29.5t-2.5 31.5h145l-15 -115h74q227 0 227 -180q0 -126 -83.5 -192t-199.5 -66h-78l-24 -179h-130zM194 276h80q56 0 91 41t35 105q0 96 -93 96h-81z" />
<glyph unicode="&#xdf;" horiz-adv-x="584" d="M-169 -185l47 84q39 -39 76 -39q39 0 58 20t27 76l61 450h-72l12 91h72l1 5q14 111 81 176.5t170 65.5q75 0 124.5 -35.5t49.5 -106.5q0 -44 -16 -76.5t-38.5 -49.5t-45 -28.5t-38.5 -21.5t-16 -21t16.5 -21t40 -21t47.5 -27t40.5 -45.5t16.5 -69.5q0 -100 -67.5 -166.5 t-167.5 -66.5q-62 0 -120 30l48 77q43 -17 72 -17q46 0 75.5 36.5t29.5 82.5q0 36 -26 60.5t-56.5 36t-56.5 32.5t-26 50q0 28 16.5 49.5t40 36.5t47 30.5t40 39.5t16.5 55q0 24 -17 42t-41 18q-100 0 -126 -183l-68 -506q-12 -89 -62.5 -138.5t-133.5 -49.5q-52 0 -98 22 q-22 12 -33 23z" />
<glyph unicode="&#xe0;" d="M16 197q0 78 30 148t93 117t146 47q28 0 62 -12.5t58 -37.5l23 41h63l-54 -370q-2 -14 -2 -21q0 -36 25 -36q17 0 48 12l17 -63q-47 -31 -106 -31q-30 0 -53 19.5t-29 48.5h-4q-53 -71 -146 -71q-85 0 -128 60.5t-43 148.5zM97 757h145l109 -165h-103zM137 197 q0 -126 73 -126q35 0 62.5 28t44.5 79t27.5 98.5t18.5 110.5q-40 40 -86 40q-38 0 -67 -25.5t-44 -63.5t-22 -74.5t-7 -66.5z" />
<glyph unicode="&#xe1;" d="M16 197q0 78 30 148t93 117t146 47q28 0 62 -12.5t58 -37.5l23 41h63l-54 -370q-2 -14 -2 -21q0 -36 25 -36q17 0 48 12l17 -63q-47 -31 -106 -31q-30 0 -53 19.5t-29 48.5h-4q-53 -71 -146 -71q-85 0 -128 60.5t-43 148.5zM137 197q0 -126 73 -126q35 0 62.5 28t44.5 79 t27.5 98.5t18.5 110.5q-40 40 -86 40q-38 0 -67 -25.5t-44 -63.5t-22 -74.5t-7 -66.5zM245 592l132 165h145l-174 -165h-103z" />
<glyph unicode="&#xe2;" d="M16 197q0 78 30 148t93 117t146 47q28 0 62 -12.5t58 -37.5l23 41h63l-54 -370q-2 -14 -2 -21q0 -36 25 -36q17 0 48 12l17 -63q-47 -31 -106 -31q-30 0 -53 19.5t-29 48.5h-4q-53 -71 -146 -71q-85 0 -128 60.5t-43 148.5zM137 197q0 -126 73 -126q35 0 62.5 28t44.5 79 t27.5 98.5t18.5 110.5q-40 40 -86 40q-38 0 -67 -25.5t-44 -63.5t-22 -74.5t-7 -66.5zM170 592l116 145h98l79 -145h-78l-60 74l-79 -74h-76z" />
<glyph unicode="&#xe3;" d="M16 197q0 78 30 148t93 117t146 47q28 0 62 -12.5t58 -37.5l23 41h63l-54 -370q-2 -14 -2 -21q0 -36 25 -36q17 0 48 12l17 -63q-47 -31 -106 -31q-30 0 -53 19.5t-29 48.5h-4q-53 -71 -146 -71q-85 0 -128 60.5t-43 148.5zM137 197q0 -126 73 -126q35 0 62.5 28t44.5 79 t27.5 98.5t18.5 110.5q-40 40 -86 40q-38 0 -67 -25.5t-44 -63.5t-22 -74.5t-7 -66.5zM143 609q14 21 32 38q42 38 98 38q30 0 70 -14t53 -14q3 0 7 0.5t7 1.5t7 3t6.5 3.5l7.5 4.5t7 4.5t7 5t7 4.5l46 -31q-48 -75 -121 -75q-30 0 -71.5 14.5t-60.5 14.5q-21 0 -52 -25z " />
<glyph unicode="&#xe4;" d="M16 197q0 78 30 148t93 117t146 47q28 0 62 -12.5t58 -37.5l23 41h63l-54 -370q-2 -14 -2 -21q0 -36 25 -36q17 0 48 12l17 -63q-47 -31 -106 -31q-30 0 -53 19.5t-29 48.5h-4q-53 -71 -146 -71q-85 0 -128 60.5t-43 148.5zM137 197q0 -126 73 -126q35 0 62.5 28t44.5 79 t27.5 98.5t18.5 110.5q-40 40 -86 40q-38 0 -67 -25.5t-44 -63.5t-22 -74.5t-7 -66.5zM167 633q0 24 16.5 40.5t40.5 16.5t40.5 -16.5t16.5 -40.5t-16.5 -40.5t-40.5 -16.5t-40.5 16.5t-16.5 40.5zM327 633q0 23 17 40t40 17q24 0 41 -16.5t17 -40.5t-17 -40.5t-41 -16.5 q-23 0 -40 17t-17 40z" />
<glyph unicode="&#xe5;" d="M16 197q0 78 30 148t93 117t146 47q28 0 62 -12.5t58 -37.5l23 41h63l-54 -370q-2 -14 -2 -21q0 -36 25 -36q17 0 48 12l17 -63q-47 -31 -106 -31q-30 0 -53 19.5t-29 48.5h-4q-53 -71 -146 -71q-85 0 -128 60.5t-43 148.5zM137 197q0 -126 73 -126q35 0 62.5 28t44.5 79 t27.5 98.5t18.5 110.5q-40 40 -86 40q-38 0 -67 -25.5t-44 -63.5t-22 -74.5t-7 -66.5zM220 669q0 44 31.5 75.5t75.5 31.5t76 -31.5t32 -75.5t-32 -75.5t-76 -31.5t-75.5 31.5t-31.5 75.5zM286 669q0 -17 12 -29t29 -12t29 12t12 29t-12.5 28.5t-28.5 11.5q-17 0 -29 -11.5 t-12 -28.5z" />
<glyph unicode="&#xe6;" horiz-adv-x="776" d="M16 197q0 78 30 148t93 117t146 47q103 0 153 -83q71 84 174 84q64 0 99.5 -29t35.5 -87q0 -32 -14.5 -64t-46.5 -63.5t-94.5 -51.5t-147.5 -21q4 -57 32 -87.5t69 -30.5q64 0 144 61l42 -83q-22 -19 -53 -33q-68 -33 -145 -33q-115 0 -170 84q-73 -84 -176 -84 q-85 0 -128 60.5t-43 148.5zM137 197q0 -126 73 -126q35 0 62.5 28t44.5 79t27.5 98.5t18.5 110.5q-40 40 -86 40q-38 0 -67 -25.5t-44 -63.5t-22 -74.5t-7 -66.5zM450 279q78 2 126 34.5t48 78.5q0 34 -39 34q-33 0 -76 -37t-59 -110z" />
<glyph unicode="&#xe7;" horiz-adv-x="432" d="M16 197q0 130 76 221.5t199 91.5q36 0 77 -13.5t68 -34.5l-69 -79q-42 44 -89 44q-36 0 -63.5 -22.5t-42.5 -58t-22 -70.5t-7 -67q0 -57 22.5 -95t73.5 -38q50 0 111 45l36 -86q-67 -36 -132 -45l-21 -32q50 -24 50 -70q0 -85 -158 -108l-16 62q16 2 23 3.5t22.5 5.5 t23 12t7.5 19q0 12 -13 19t-44 17l50 73q-74 12 -118 69.5t-44 136.5z" />
<glyph unicode="&#xe8;" horiz-adv-x="475" d="M15 201q0 52 18.5 105.5t52.5 99.5t88 75t119 29q67 0 110 -30t43 -86q0 -32 -14.5 -64t-47 -63.5t-95 -51.5t-147.5 -21q4 -57 32.5 -87.5t69.5 -30.5q64 0 144 61l42 -83q-22 -19 -53 -33q-68 -33 -145 -33q-95 0 -156 57t-61 156zM75 757h145l109 -165h-103zM149 279 q78 2 126 34.5t48 78.5q0 34 -39 34q-33 0 -76 -37t-59 -110z" />
<glyph unicode="&#xe9;" horiz-adv-x="475" d="M15 201q0 52 18.5 105.5t52.5 99.5t88 75t119 29q67 0 110 -30t43 -86q0 -32 -14.5 -64t-47 -63.5t-95 -51.5t-147.5 -21q4 -57 32.5 -87.5t69.5 -30.5q64 0 144 61l42 -83q-22 -19 -53 -33q-68 -33 -145 -33q-95 0 -156 57t-61 156zM149 279q78 2 126 34.5t48 78.5 q0 34 -39 34q-33 0 -76 -37t-59 -110zM234 592l132 165h145l-174 -165h-103z" />
<glyph unicode="&#xea;" horiz-adv-x="475" d="M15 201q0 52 18.5 105.5t52.5 99.5t88 75t119 29q67 0 110 -30t43 -86q0 -32 -14.5 -64t-47 -63.5t-95 -51.5t-147.5 -21q4 -57 32.5 -87.5t69.5 -30.5q64 0 144 61l42 -83q-22 -19 -53 -33q-68 -33 -145 -33q-95 0 -156 57t-61 156zM139 592l116 145h98l79 -145h-78 l-60 74l-79 -74h-76zM149 279q78 2 126 34.5t48 78.5q0 34 -39 34q-33 0 -76 -37t-59 -110z" />
<glyph unicode="&#xeb;" horiz-adv-x="475" d="M15 201q0 52 18.5 105.5t52.5 99.5t88 75t119 29q67 0 110 -30t43 -86q0 -32 -14.5 -64t-47 -63.5t-95 -51.5t-147.5 -21q4 -57 32.5 -87.5t69.5 -30.5q64 0 144 61l42 -83q-22 -19 -53 -33q-68 -33 -145 -33q-95 0 -156 57t-61 156zM147 633q0 24 16.5 40.5t40.5 16.5 t40.5 -16.5t16.5 -40.5t-16.5 -40.5t-40.5 -16.5t-40.5 16.5t-16.5 40.5zM149 279q78 2 126 34.5t48 78.5q0 34 -39 34q-33 0 -76 -37t-59 -110zM307 633q0 23 17 40t40 17q24 0 41 -16.5t17 -40.5t-17 -40.5t-41 -16.5q-23 0 -40 17t-17 40z" />
<glyph unicode="&#xec;" horiz-adv-x="224" d="M-44 757h145l109 -165h-103zM14 0l59 443l-3 54h125l-60 -442l3 -55h-124z" />
<glyph unicode="&#xed;" horiz-adv-x="224" d="M14 0l59 443l-3 54h124l-59 -442l3 -55h-124zM74 592l132 165h145l-174 -165h-103z" />
<glyph unicode="&#xee;" horiz-adv-x="224" d="M-6 592l116 145h98l79 -145h-78l-60 74l-79 -74h-76zM14 0l59 443l-3 54h124l-59 -442l3 -55h-124z" />
<glyph unicode="&#xef;" horiz-adv-x="224" d="M8 623q0 24 16.5 40.5t40.5 16.5t40.5 -16.5t16.5 -40.5t-16.5 -40.5t-40.5 -16.5t-40.5 16.5t-16.5 40.5zM13 0l60 443l-4 54h125l-59 -442l2 -55h-124zM168 623q0 23 17 40t40 17q24 0 41 -16.5t17 -40.5t-17 -40.5t-41 -16.5q-23 0 -40 17t-17 40z" />
<glyph unicode="&#xf0;" horiz-adv-x="516" d="M16 206q0 123 77 213.5t191 90.5q12 0 30 -2q-27 66 -54 111l-95 -51l-35 58l94 51l-42 54l91 52q9 -9 25 -29t21 -26l102 55l30 -60l-94 -51q126 -195 126 -365q0 -132 -74 -225t-194 -93q-94 0 -146.5 60.5t-52.5 156.5zM142 198q0 -126 84 -126q41 0 69 27t40.5 69 t17 75t4.5 63q0 122 -84 122q-39 0 -67 -28t-41 -69.5t-18 -74.5t-5 -58z" />
<glyph unicode="&#xf1;" horiz-adv-x="501" d="M16 0l48 356q3 28 3 58q0 57 -14 79l121 15q8 -24 8 -64q78 67 153 67q62 0 91.5 -30.5t29.5 -93.5q0 -27 -3 -51l-38 -282l3 -54h-125l43 324q3 12 3 36q0 54 -50 54q-22 0 -57.5 -18t-52.5 -35l-49 -361h-114zM105 609q14 21 32 38q42 38 98 38q30 0 70 -14t53 -14 q3 0 6 0.5t6.5 1.5t6 2t6.5 3t6 3.5t6 4t6.5 4t6.5 4.5t6 4l46 -31q-48 -75 -121 -75q-30 0 -71.5 14.5t-60.5 14.5q-23 0 -52 -25z" />
<glyph unicode="&#xf2;" horiz-adv-x="514" d="M16 203q0 121 75 214t193 93q93 0 145.5 -60t52.5 -155q0 -78 -32 -147.5t-94.5 -114.5t-141.5 -45q-93 0 -145.5 60t-52.5 155zM85 757h145l109 -165h-103zM141 197q0 -33 6 -59.5t26 -48t52 -21.5q38 0 65.5 25t41 64t19.5 76t6 72q0 123 -84 123q-36 0 -63 -24.5 t-41 -62.5t-21 -74.5t-7 -69.5z" />
<glyph unicode="&#xf3;" horiz-adv-x="514" d="M16 203q0 121 75 214t193 93q93 0 145.5 -60t52.5 -155q0 -78 -32 -147.5t-94.5 -114.5t-141.5 -45q-93 0 -145.5 60t-52.5 155zM141 197q0 -33 6 -59.5t26 -48t52 -21.5q38 0 65.5 25t41 64t19.5 76t6 72q0 123 -84 123q-36 0 -63 -24.5t-41 -62.5t-21 -74.5t-7 -69.5z M229 591l132 165h145l-174 -165h-103z" />
<glyph unicode="&#xf4;" horiz-adv-x="514" d="M16 203q0 121 75 214t193 93q93 0 145.5 -60t52.5 -155q0 -78 -32 -147.5t-94.5 -114.5t-141.5 -45q-93 0 -145.5 60t-52.5 155zM141 197q0 -33 6 -59.5t26 -48t52 -21.5q38 0 65.5 25t41 64t19.5 76t6 72q0 123 -84 123q-36 0 -63 -24.5t-41 -62.5t-21 -74.5t-7 -69.5z M154 591l116 145h98l79 -145h-78l-60 74l-79 -74h-76z" />
<glyph unicode="&#xf5;" horiz-adv-x="514" d="M16 203q0 121 75 214t193 93q93 0 145.5 -60t52.5 -155q0 -78 -32 -147.5t-94.5 -114.5t-141.5 -45q-93 0 -145.5 60t-52.5 155zM119 609q14 21 32 38q42 38 98 38q30 0 70 -14t53 -14q3 0 6 0.5t6.5 1.5t6 2t6.5 3t6 3.5t6 4t6.5 4t6.5 4.5t6 4l46 -31q-48 -75 -121 -75 q-30 0 -71.5 14.5t-60.5 14.5q-23 0 -52 -25zM141 197q0 -24 3.5 -44.5t12.5 -40.5t26 -32t42 -12q38 0 65.5 25t41 64t19.5 76t6 72q0 123 -84 123q-36 0 -63 -24.5t-41 -62.5t-21 -74.5t-7 -69.5z" />
<glyph unicode="&#xf6;" horiz-adv-x="514" d="M16 203q0 121 75 214t193 93q93 0 145.5 -60t52.5 -155q0 -78 -32 -147.5t-94.5 -114.5t-141.5 -45q-93 0 -145.5 60t-52.5 155zM141 197q0 -33 6 -59.5t26 -48t52 -21.5q38 0 65.5 25t41 64t19.5 76t6 72q0 123 -84 123q-36 0 -63 -24.5t-41 -62.5t-21 -74.5t-7 -69.5z M165 633q0 24 16.5 40.5t40.5 16.5t40.5 -16.5t16.5 -40.5t-16.5 -40.5t-40.5 -16.5t-40.5 16.5t-16.5 40.5zM325 633q0 23 17 40t40 17q24 0 41 -16.5t17 -40.5t-17 -40.5t-41 -16.5q-23 0 -40 17t-17 40z" />
<glyph unicode="&#xf7;" horiz-adv-x="571" d="M28 204v88h498v-88h-498zM200 66q0 32 22.5 54.5t55.5 22.5q32 0 54.5 -22.5t22.5 -54.5q0 -33 -22.5 -55.5t-54.5 -22.5t-55 23t-23 55zM200 431q0 32 22.5 55t54.5 23t54.5 -23t22.5 -55t-22.5 -54.5t-54.5 -22.5t-54.5 22.5t-22.5 54.5z" />
<glyph unicode="&#xf8;" horiz-adv-x="514" d="M-16 -29l72 93q-40 56 -40 139q0 121 75 214t193 93q55 0 99 -23l53 69l67 -44l-61 -79q40 -56 40 -138q0 -78 -32 -147.5t-94.5 -114.5t-141.5 -45q-57 0 -98 23l-65 -84zM141 175l182 235q-20 18 -50 18q-36 0 -63 -24.5t-41 -62.5t-21 -74.5t-7 -69.5v-22zM174 87 q21 -19 51 -19q38 0 65.5 25t41 64t19.5 76t6 72v18z" />
<glyph unicode="&#xf9;" horiz-adv-x="526" d="M28 111q0 17 3 35l40 307l-5 44h127l-43 -328q-2 -10 -2 -13v-14q0 -58 49 -58q31 0 56 23t40 61t23.5 71t13.5 68l19 146l-6 44h128l-54 -367q-2 -6 -2 -10v-11q0 -36 25 -36q17 0 48 12l17 -63q-47 -31 -108 -31q-30 0 -53 19t-29 49h-4q-25 -32 -69.5 -51t-87.5 -19 q-126 0 -126 122zM71 757h145l109 -165h-103z" />
<glyph unicode="&#xfa;" horiz-adv-x="526" d="M28 111q0 17 3 35l40 307l-5 44h127l-43 -328q-2 -18 -2 -27q0 -58 49 -58q31 0 56 23t40 61t23.5 71t13.5 68l19 146l-6 44h128l-54 -367q-2 -14 -2 -21q0 -36 25 -36q17 0 48 12l17 -63q-47 -31 -108 -31q-30 0 -53 19t-29 49h-4q-25 -32 -69.5 -51t-87.5 -19 q-126 0 -126 122zM227 591l132 165h145l-174 -165h-103z" />
<glyph unicode="&#xfb;" horiz-adv-x="526" d="M28 111q0 17 3 35l40 307l-5 44h127l-43 -328q-2 -18 -2 -27q0 -58 49 -58q31 0 56 23t40 61t23.5 71t13.5 68l19 146l-6 44h128l-54 -367q-2 -14 -2 -21q0 -36 25 -36q17 0 48 12l17 -63q-47 -31 -108 -31q-30 0 -53 19t-29 49h-4q-25 -32 -69.5 -51t-87.5 -19 q-126 0 -126 122zM130 591l116 145h98l79 -145h-78l-60 74l-79 -74h-76z" />
<glyph unicode="&#xfc;" horiz-adv-x="526" d="M28 111q0 17 3 35l40 307l-5 44h127l-43 -328q-2 -18 -2 -27q0 -58 49 -58q31 0 56 23t40 61t23.5 71t13.5 68l19 146l-6 44h128l-54 -367q-2 -14 -2 -21q0 -36 25 -36q17 0 48 12l17 -63q-47 -31 -108 -31q-30 0 -53 19t-29 49h-4q-25 -32 -69.5 -51t-87.5 -19 q-126 0 -126 122zM141 633q0 24 16.5 40.5t40.5 16.5t40.5 -16.5t16.5 -40.5t-16.5 -40.5t-40.5 -16.5t-40.5 16.5t-16.5 40.5zM301 633q0 23 17 40t40 17q24 0 41 -16.5t17 -40.5t-17 -40.5t-41 -16.5q-23 0 -40 17t-17 40z" />
<glyph unicode="&#xfd;" horiz-adv-x="452" d="M-173 -190l51 77q42 -37 88 -37q31 0 58 14.5t48.5 40.5t34.5 47t27 49l-105 496h122q48 -232 55 -276q1 -7 4 -75q19 64 24 75q23 54 127 276h112l-233 -500q-19 -40 -31.5 -63t-38 -58.5t-51.5 -55.5t-65.5 -35t-86.5 -15q-83 0 -140 40zM206 592l132 165h145 l-174 -165h-103z" />
<glyph unicode="&#xfe;" horiz-adv-x="521" d="M-16 -217l122 932q0 3 -1.5 27t-1.5 26h124l-41 -311q64 51 139 51q80 0 121 -61.5t41 -149.5q0 -127 -69 -218t-191 -91q-59 0 -98 30l-31 -235h-114zM151 172q0 -44 20 -73t63 -29q35 0 62 25.5t40 62.5t19 68.5t6 54.5q0 56 -21 95.5t-66 39.5q-51 0 -99 -48l-22 -163 q-2 -10 -2 -17v-16z" />
<glyph unicode="&#xff;" horiz-adv-x="452" d="M-173 -190l51 77q42 -37 88 -37q31 0 58 14.5t48.5 40.5t34.5 47t27 49l-105 496h122q48 -232 55 -276q1 -7 4 -75q19 64 24 75q23 54 127 276h112l-233 -500q-19 -40 -31.5 -63t-38 -58.5t-51.5 -55.5t-65.5 -35t-86.5 -15q-83 0 -140 40zM127 633q0 24 16.5 40.5 t40.5 16.5t40.5 -16.5t16.5 -40.5t-16.5 -40.5t-40.5 -16.5t-40.5 16.5t-16.5 40.5zM287 633q0 23 17 40t40 17q24 0 41 -16.5t17 -40.5t-17 -40.5t-41 -16.5q-23 0 -40 17t-17 40z" />
<glyph unicode="&#x152;" horiz-adv-x="1012" d="M38 295q0 117 43.5 217.5t132.5 165.5t208 65q115 0 185 -76l9 65h423l-13 -99h-293l-28 -207h224l-13 -99h-224l-30 -228h292l-13 -99h-423l9 68q-46 -44 -94.5 -61.5t-111.5 -17.5q-136 0 -209.5 84t-73.5 222zM178 298q0 -91 37 -152.5t122 -61.5q62 0 109.5 34.5 t73 89t38 112t12.5 114.5q0 59 -13 104t-50 77.5t-96 32.5q-61 0 -108.5 -34.5t-73.5 -89t-38.5 -112t-12.5 -114.5z" />
<glyph unicode="&#x153;" horiz-adv-x="811" d="M16 203q0 121 75 214t193 93q107 0 160 -79q79 79 185 79q67 0 110 -30t43 -86q0 -32 -14.5 -64t-46.5 -63.5t-94.5 -51.5t-147.5 -21q4 -57 32 -87.5t69 -30.5q64 0 144 61l42 -83q-22 -19 -53 -33q-68 -33 -145 -33q-115 0 -174 77q-74 -77 -180 -77q-93 0 -145.5 60 t-52.5 155zM141 197q0 -33 6 -59.5t26 -48t52 -21.5q38 0 65.5 25t41 64t19.5 76t6 72q0 123 -84 123q-36 0 -63 -24.5t-41 -62.5t-21 -74.5t-7 -69.5zM485 279q78 2 126 34.5t48 78.5q0 34 -39 34q-33 0 -76 -37t-59 -110z" />
<glyph unicode="&#x178;" horiz-adv-x="563" d="M67 732h146l96 -260l171 260h130l-263 -405l-44 -327h-130l43 330zM216 823q0 24 16.5 40.5t40.5 16.5t40.5 -16.5t16.5 -40.5t-16.5 -40.5t-40.5 -16.5t-40.5 16.5t-16.5 40.5zM376 823q0 23 17 40t40 17q24 0 41 -16.5t17 -40.5t-17 -40.5t-41 -16.5q-23 0 -40 17 t-17 40z" />
<glyph unicode="&#x2c6;" horiz-adv-x="254" d="M-18 588l116 145h98l79 -145h-78l-60 74l-79 -74h-76z" />
<glyph unicode="&#x2dc;" horiz-adv-x="272" d="M-42 608q14 21 32 38q42 38 98 38q30 0 70 -14t53 -14q4 0 8 0.5t8.5 2.5t7.5 3t8.5 5t7 5t8.5 5.5t8 5.5l46 -31q-48 -75 -121 -75q-30 0 -71.5 14.5t-60.5 14.5q-21 0 -52 -25z" />
<glyph unicode="&#x2000;" horiz-adv-x="488" />
<glyph unicode="&#x2001;" horiz-adv-x="977" />
<glyph unicode="&#x2002;" horiz-adv-x="488" />
<glyph unicode="&#x2003;" horiz-adv-x="977" />
<glyph unicode="&#x2004;" horiz-adv-x="325" />
<glyph unicode="&#x2005;" horiz-adv-x="244" />
<glyph unicode="&#x2006;" horiz-adv-x="162" />
<glyph unicode="&#x2007;" horiz-adv-x="162" />
<glyph unicode="&#x2008;" horiz-adv-x="122" />
<glyph unicode="&#x2009;" horiz-adv-x="195" />
<glyph unicode="&#x200a;" horiz-adv-x="54" />
<glyph unicode="&#x2010;" horiz-adv-x="332" d="M42 210l13 95h221l-13 -95h-221z" />
<glyph unicode="&#x2011;" horiz-adv-x="332" d="M42 210l13 95h221l-13 -95h-221z" />
<glyph unicode="&#x2012;" horiz-adv-x="332" d="M42 210l13 95h221l-13 -95h-221z" />
<glyph unicode="&#x2013;" horiz-adv-x="586" d="M41 211l14 94h476l-14 -94h-476z" />
<glyph unicode="&#x2014;" horiz-adv-x="936" d="M41 211l14 94h826l-14 -94h-826z" />
<glyph unicode="&#x2018;" horiz-adv-x="226" d="M65 544q0 55 42 107t99 87l35 -40q-17 -11 -36.5 -36t-19.5 -41q0 -6 18 -27.5t18 -47.5q0 -34 -23.5 -56.5t-55.5 -22.5q-33 0 -55 22t-22 55z" />
<glyph unicode="&#x2019;" horiz-adv-x="224" d="M68 506q19 16 37.5 39t18.5 39q0 6 -18 27.5t-18 47.5q0 33 24 56t55 23q35 0 56 -22t21 -55q0 -55 -42 -107t-99 -87z" />
<glyph unicode="&#x201a;" horiz-adv-x="233" d="M-15 -93q56 50 56 77q0 6 -18 27.5t-18 47.5q0 34 23.5 57t55.5 23q33 0 55 -22t22 -55q0 -55 -43.5 -107.5t-99.5 -88.5z" />
<glyph unicode="&#x201c;" horiz-adv-x="415" d="M64 544q0 55 42 107t99 87l35 -40q-17 -11 -36.5 -36t-19.5 -41q0 -6 18 -27.5t18 -47.5q0 -34 -23.5 -56.5t-55.5 -22.5q-33 0 -55 22t-22 55zM254 544q0 55 42 107t99 87l35 -40q-17 -11 -36.5 -36t-19.5 -41q0 -6 18 -27.5t18 -47.5q0 -34 -23.5 -56.5t-55.5 -22.5 q-33 0 -55 22t-22 55z" />
<glyph unicode="&#x201d;" horiz-adv-x="414" d="M68 506q19 16 37.5 39t18.5 39q0 6 -18 27.5t-18 47.5q0 33 24 56t55 23q35 0 56 -22t21 -55q0 -55 -42 -107t-99 -87zM258 506q19 16 37.5 39t18.5 39q0 6 -18 27.5t-18 47.5q0 33 24 56t55 23q35 0 56 -22t21 -55q0 -55 -42 -107t-99 -87z" />
<glyph unicode="&#x201e;" horiz-adv-x="423" d="M-15 -93q19 16 37.5 39t18.5 39q0 5 -18 27t-18 48q0 33 24 56t55 23q33 0 55 -22t22 -55q0 -55 -42 -107t-99 -87zM175 -93q19 16 37.5 39t18.5 39q0 5 -18 27t-18 48q0 33 24 56t55 23q33 0 55 -22t22 -55q0 -55 -42 -107t-99 -87z" />
<glyph unicode="&#x2022;" horiz-adv-x="425" d="M62 357q0 64 46 110t110 46q66 0 111 -45t45 -111t-45 -111t-110 -45q-66 0 -111.5 45t-45.5 111z" />
<glyph unicode="&#x2026;" horiz-adv-x="725" d="M5 65q0 33 22.5 55.5t54.5 22.5t55 -23t23 -55t-22.5 -54.5t-55.5 -22.5q-32 0 -54.5 22.5t-22.5 54.5zM253 65q0 32 22.5 55t54.5 23t54.5 -23t22.5 -55t-22.5 -54.5t-54.5 -22.5t-54.5 22.5t-22.5 54.5zM500 65q0 32 23 55t55 23t54.5 -22.5t22.5 -55.5 q0 -32 -22.5 -54.5t-54.5 -22.5q-33 0 -55.5 22.5t-22.5 54.5z" />
<glyph unicode="&#x202f;" horiz-adv-x="195" />
<glyph unicode="&#x2039;" horiz-adv-x="295" d="M34 332l176 172l75 -14l-141 -158l99 -159l-77 -11z" />
<glyph unicode="&#x203a;" horiz-adv-x="294" d="M13 173l145 159l-98 158l79 14l128 -172l-180 -170z" />
<glyph unicode="&#x205f;" horiz-adv-x="244" />
<glyph unicode="&#x20ac;" horiz-adv-x="526" d="M15 173l7 47h68q2 31 9 62h-69l6 47h76q33 88 100 134.5t159 46.5q79 0 137 -48l-67 -76q-44 39 -91 39q-36 0 -66.5 -28.5t-45.5 -67.5h161l-6 -47h-170q-8 -40 -8 -62h170l-7 -47h-161q6 -45 31.5 -73t68.5 -28q28 0 50 11.5t55 37.5l37 -86q-91 -47 -171 -47 q-86 0 -139 48t-60 137h-74z" />
<glyph unicode="&#x2122;" horiz-adv-x="577" d="M106 686l6 46h204l-6 -46h-73l-26 -189h-61l27 189h-71zM295 497l33 235h74l32 -136l71 136h73l-33 -235h-59l17 128q-2 -4 -68 -128h-36l-34 134l-18 -134h-52z" />
<glyph unicode="&#x25fc;" horiz-adv-x="495" d="M0 0v495h495v-495h-495z" />
<glyph unicode="&#xfb01;" horiz-adv-x="547" d="M-161 -186l48 66q13 -12 34.5 -21.5t38.5 -9.5q67 0 85 116l61 449h-79l10 83h79q8 62 23 109t42 87t72 61.5t106 21.5q20 0 43.5 -6.5t51 -21.5t50 -45.5t30.5 -71.5l-112 -31q0 34 -19 64t-50 30q-91 0 -122 -197h287l-59 -442l2 -55h-124l56 414h-173l-62 -461 q-27 -183 -182 -183q-37 0 -77.5 11t-59.5 33z" />
<glyph unicode="&#xfb02;" horiz-adv-x="551" d="M-161 -186l48 66q13 -12 34.5 -21.5t38.5 -9.5q67 0 85 116l61 449h-79l10 83h79q16 130 72.5 204.5t177.5 74.5q50 0 95 -31l97 24l-96 -715l3 -54h-127l82 617q1 3 1 8v8q0 61 -58 61q-101 0 -132 -197h118l-11 -83h-118l-62 -461q-27 -183 -182 -183q-37 0 -77.5 11 t-59.5 33z" />
</font>
</defs>
</svg>
