<?xml version="1.0" standalone="no"?>
<!DOCTYPE svg PUBLIC "-//W3C//DTD SVG 1.1//EN" "http://www.w3.org/Graphics/SVG/1.1/DTD/svg11.dtd" >
<svg xmlns="http://www.w3.org/2000/svg">
<metadata></metadata>
<defs>
<font id="little_trouble_girl_bvregular" horiz-adv-x="1066" >
<font-face units-per-em="2048" ascent="1638" descent="-410" />
<missing-glyph horiz-adv-x="493" />
<glyph horiz-adv-x="2048" />
<glyph horiz-adv-x="2048" />
<glyph unicode="&#xd;" horiz-adv-x="493" />
<glyph unicode=" "  horiz-adv-x="493" />
<glyph unicode="&#x09;" horiz-adv-x="493" />
<glyph unicode="&#xa0;" horiz-adv-x="493" />
<glyph unicode="!" horiz-adv-x="447" d="M148 383l132 37l120 961l-252 38v-1036zM221 146l-30 11l15 158l92 -42zM178 101l10 -24l-106 -89l-47 78zM180 142l-17 -27l-133 58l71 88zM197 73l29 13l92 -94l-96 -50zM243 111l-12 30l112 87l34 -99z" />
<glyph unicode="&#x22;" horiz-adv-x="646" d="M208 1063l75 432l-200 -15l25 -417h100zM519 1063l75 432l-201 -16l25 -416h101z" />
<glyph unicode="#" horiz-adv-x="1444" d="M1389 641l-325 -30l16 208l-3 224l285 11l24 167l-297 -42l15 203l-160 51l-11 -264l-205 -24l-215 -46l22 300l-165 63l9 -379l-176 -34l-167 -19l59 -67l278 15l11 -234l-14 -233l-167 -27l-162 -34l56 -70l276 18l13 -196l-4 -199l85 48l10 183l2 183l234 9l234 26 l4 -238l-2 -229l79 49l23 212l-3 212l322 9zM488 522l11 237l13 237l218 6l217 29l-7 -227l4 -222l-227 -44z" />
<glyph unicode="$" horiz-adv-x="779" d="M656 1347l98 -10l-75 -279l-14 -10l-237 196l-282 -150l99 -261l331 -87l155 -174l77 -188l-199 -347l-276 -46l-205 161l26 -136l-86 -2l3 279l47 -3l173 -189l287 120l9 257l-93 196l-315 101l-198 304l202 221l205 14l261 -125zM287 1402l123 29l46 -1501h-62z" />
<glyph unicode="%" horiz-adv-x="1171" d="M110 19l128 193l115 193l94 205l133 183l203 400l115 195l185 59l-128 -199l-118 -207l-122 -205l-131 -198l-352 -610zM207 1433l148 -46l73 -142l19 -160l-27 -141l-69 -122l-68 -56l-112 9l-90 46l-75 139l-17 158l28 141l62 128zM93 1116l5 -123l29 -118l91 -73 l84 57l41 228l-4 127l-37 121l-93 59l-101 -111zM939 669l149 -46l72 -141l19 -161l-26 -140l-69 -123l-68 -56l-112 10l-91 46l-74 138l-17 158l28 141l62 129zM825 352l6 -122l28 -118l91 -74l85 57l40 229l-4 127l-36 120l-93 60l-102 -111z" />
<glyph unicode="&#x26;" horiz-adv-x="975" d="M894 420l-151 151l-352 -201l267 71v-80l-56 -232l-339 110l-57 272l91 305l129 39l63 26l-134 36l-30 319l339 110l114 -151v-151l70 126l-199 294l-338 -8l-183 -118v-339l103 -161l-215 -312l50 -389l184 -118l408 15l130 367l30 -106l-50 -270l-276 -358l326 251 l101 226z" />
<glyph unicode="'" horiz-adv-x="233" d="M174 1063l75 432l-201 -15l26 -417h100z" />
<glyph unicode="(" horiz-adv-x="401" d="M414 1287l-324 -340l-93 -278v-386l139 -463l294 -325l-93 247l-170 309l-46 294l46 355l62 231z" />
<glyph unicode=")" horiz-adv-x="460" d="M24 1287l325 -340l92 -278v-386l-139 -463l-293 -325l93 247l169 309l47 294l-47 355l-61 231z" />
<glyph unicode="*" horiz-adv-x="377" d="M220 1226l-29 11l14 158l92 -42zM177 1181l10 -23l-105 -90l-47 78zM180 1222l-18 -26l-133 57l72 89zM197 1153l29 13l92 -94l-96 -49zM242 1192l-11 29l111 87l34 -99z" />
<glyph unicode="+" horiz-adv-x="855" d="M316 1213h242l-53 -448l355 77l31 -201l-371 47l57 -431l-224 -17l56 424l-429 -35v194l392 -35z" />
<glyph unicode="," horiz-adv-x="350" d="M62 178l244 11l-9 -197l-190 -207l-45 21l112 186l-90 10z" />
<glyph unicode="-" horiz-adv-x="768" d="M116 737l327 -26l354 57l7 -143l-680 -11z" />
<glyph unicode="." horiz-adv-x="361" d="M60 185l229 10l-10 -198h-115l-83 -15z" />
<glyph unicode="/" horiz-adv-x="721" d="M-36 -38l202 366l105 314l350 760h151l-54 -207l-236 -412l-164 -429l-177 -379z" />
<glyph unicode="0" horiz-adv-x="904" d="M441 1560l260 -107l128 -332l33 -377l-46 -331l-122 -286l-119 -132l-197 22l-159 108l-131 326l-29 371l49 331l108 301zM240 816l10 -287l50 -277l160 -173l148 134l71 537l-7 298l-64 283l-163 139l-178 -260z" />
<glyph unicode="1" horiz-adv-x="452" d="M35 1335l273 99l-10 -909l16 -473l88 37l7 -104l-377 1l3 91l100 -37l36 1044l-32 205l-104 -103v149z" />
<glyph unicode="2" horiz-adv-x="875" d="M182 1371l-89 -11l68 -291l13 -10l171 234l261 -121l-23 -358l-323 -393l-223 -303l12 -111l396 6l300 52l-23 -142l78 -2l-3 291l-42 -3l-309 -115l-248 37l112 211l360 298l130 298v335l-181 116l-259 20l-172 -203z" />
<glyph unicode="3" horiz-adv-x="844" d="M781 1266l-181 116l-334 8l-196 -290l69 -125v149l113 150l334 -109l-22 -358l-74 -100l-78 -5l-137 -37l62 -25l129 -18l59 -59l23 -359l-335 -109l-113 150v149l-69 -125l196 -290l334 8l181 116v335l-153 219l192 274v335z" />
<glyph unicode="4" horiz-adv-x="866" d="M850 486l-9 94l-131 -28l-53 752l100 67l-174 8l-232 -313l-267 -611l226 -2l279 6l-48 -409l-100 37l-3 -90l377 -2l-8 105l-88 -37l-9 329v94h140zM347 565l-101 -35l137 405l200 300l-6 -141l3 -561z" />
<glyph unicode="5" horiz-adv-x="779" d="M106 2l-89 11l68 291l13 11l172 -235l260 121l74 253l-100 211l-223 136l-248 37l31 348l12 223l594 -101l-24 142l79 2l-3 -290l-43 2l-308 116l-195 5v-347l418 -204l134 -82l62 -360l-246 -308l-260 -20l-171 203z" />
<glyph unicode="6" horiz-adv-x="796" d="M5 724l44 192l66 211l93 168l260 121l184 -138l7 123l69 -6l-52 -242l-29 1l-10 58l-208 128l-191 -204l-87 -293l76 82l190 83l199 -55l137 -169l47 -211l18 -213l-95 -234l-253 -146l-274 76l-134 183l-42 242zM175 441l28 -270l150 -93l192 36l91 196l21 214l-65 204 l-121 173l-208 -17l-110 -114z" />
<glyph unicode="7" horiz-adv-x="725" d="M670 1136l87 211l-424 -36l-300 -52l24 141l-79 3l3 -291l43 3l308 115l177 -7l-100 -385l-229 -769h-56v-75l335 -12l13 87h-67l29 236z" />
<glyph unicode="8" horiz-adv-x="904" d="M867 490l-131 270l137 227l-62 273l-99 125l-219 49l-309 -63l-124 -248l87 -248l99 -137l-156 -136l-42 -298l124 -211l186 -112l317 1l87 62l63 86zM486 1309l201 -36l99 -274l-167 -223l-149 -13l-140 62l-70 137l-20 236zM707 610l79 -182l-74 -236l-162 -124 l-186 63l-111 128l-22 194l131 257l89 5l42 10l41 -10l89 -5z" />
<glyph unicode="9" horiz-adv-x="907" d="M850 676l-45 -192l-66 -211l-93 -169l-260 -120l-184 137l-6 -123l-70 6l52 242h29l10 -59l208 -127l191 203l87 293l-76 -81l-190 -83l-199 54l-137 169l-47 211l-18 214l95 234l253 146l274 -77l134 -183l42 -241zM679 959l-28 269l-150 94l-192 -37l-91 -196l-21 -213 l65 -204l121 -173l208 17l110 113z" />
<glyph unicode=":" horiz-adv-x="357" d="M57 901l229 10l-10 -198h-115l-83 -15zM57 213l229 10l-10 -204l-115 7l-83 -16z" />
<glyph unicode=";" horiz-adv-x="361" d="M57 178l244 11l-9 -197l-200 -214l-45 21l122 193l-89 10zM59 901l229 10l-10 -198h-115l-83 -15z" />
<glyph unicode="&#x3c;" horiz-adv-x="903" d="M347 602l-228 194l212 210l236 192l226 214l3 -130l-490 -475l263 -219l264 -228l-7 -151z" />
<glyph unicode="=" horiz-adv-x="746" d="M104 727l326 -26l355 56l6 -142l-680 -12zM104 460l326 -27l355 57l6 -142l-680 -12z" />
<glyph unicode="&#x3e;" horiz-adv-x="794" d="M572 1019l228 -195l-212 -209l-236 -192l-226 -214l-3 130l490 474l-263 219l-264 229l7 151z" />
<glyph unicode="?" horiz-adv-x="832" d="M105 1008v151l114 152l339 -111l-23 -362l-270 -341l72 -123l50 163l236 125l132 301v339l-183 118l-339 8l-198 -294zM364 177l-30 11l14 158l93 -42zM320 132l10 -23l-105 -90l-47 78zM323 173l-17 -27l-133 58l71 88zM340 104l29 13l92 -94l-96 -50zM385 142l-11 30 l111 87l35 -99z" />
<glyph unicode="@" horiz-adv-x="1590" d="M610 771l-29 -9l-44 220l93 35l-5 -85l283 140l172 -113l72 -94l-21 -479l-72 -302l194 75l132 226l47 254l-132 453l-154 205l-204 87l-188 -13l-293 -91l-207 -207l-77 -471l30 -395l75 -237l166 -110l324 -135l245 57l321 94l207 217l-123 -245l-537 -207l-404 26 l-331 256l-94 509l-28 386l141 274l311 282l283 72l217 4l300 -81l208 -466l10 -499l-189 -321l-195 -70l-67 -10l-145 -4l41 179l-264 -163l-240 83l-43 187l105 241l171 141l225 57l142 -29l-37 225l-110 84l-199 -84l-80 -54zM1022 514l9 125l-160 38l-198 -92l-124 -248 l31 -138l245 44l165 164z" />
<glyph unicode="A" d="M945 79l-36 247l-72 255l-50 232l-172 708l-210 1l-49 -250l-37 -245l-55 -240l-27 -247l-115 -474l-68 -3l8 -60l175 -3l173 -11l4 65l-69 16l23 193l33 196l36 185l303 24l51 -203l24 -198l40 -189l-36 -16l-8 -55l209 -6l-3 82zM444 731l42 226l33 225l42 226l43 -231 l72 -219l45 -229z" />
<glyph unicode="B" horiz-adv-x="978" d="M47 1487l333 30l307 -56l193 -167l33 -257l-73 -168l-139 -119l105 -56l154 -174l7 -240l-154 -257l-253 -19l-249 2l-251 9l-9 125l113 -65l-8 233l8 233l3 232l12 232l-6 231l-13 224l-99 -46zM510 770l219 165l58 277l-152 218l-314 22l17 -229l-2 -224l17 -215z M346 96l298 14l131 112l30 172l-150 252l-312 44l7 -204l2 -202z" />
<glyph unicode="C" horiz-adv-x="954" d="M756 1208l44 -11l101 276l-106 13l-24 -93l-189 84l-239 -23l-169 -171l-70 -231l-24 -207l1 -207l37 -203l69 -193l95 -185l216 -69l215 39l136 139l74 179l14 80l-179 -275l-157 -53l-171 58l-90 169l-58 204l-30 210l1 213l69 197l120 217l229 21l101 -98z" />
<glyph unicode="D" horiz-adv-x="1008" d="M107 1510l207 5l198 -37l182 -90l146 -135l90 -185l6 -203l22 -228l-38 -225l-77 -211l-161 -153l-195 -38l-198 -16l-192 7l-5 102l107 -34l-7 224l17 225l-6 226l11 226l-1 225l-18 216l-82 -1zM375 67l39 -10l202 64l111 181l23 210l19 257l-19 257l-65 249l-139 114 l-156 48l1 -224l-12 -230l-2 -229l-5 -230l10 -230z" />
<glyph unicode="E" horiz-adv-x="923" d="M701 257l-141 -143l-209 -9l7 7l4 217l-8 217l-5 217l177 -8l175 -11l-8 89h-343l18 214l-15 207l17 206l195 -4l156 -132l71 -269l51 5v231l3 235l-764 -3l8 -70l92 3l-5 -226l2 -223l-20 -224l17 -222l-10 -222l2 -220h-80l-8 -78l255 16l253 -4l245 6l21 225l-15 226 h-37z" />
<glyph unicode="F" horiz-adv-x="945" d="M453 95l-85 -4l-14 213l18 217l-5 213l171 -9l166 13l1 70l-333 18l-18 196l19 208l-4 207l206 -12l163 -123l80 -263l58 -9l-13 236l-8 232l-257 -10l-253 12l-254 8l6 -85l85 3l-2 -221l4 -223l7 -223l-10 -223l4 -221l6 -225l-98 14l2 -78l184 -9l181 7z" />
<glyph unicode="G" horiz-adv-x="1107" d="M1025 11l6 214l-12 214l-8 204l-171 6l-175 14l-13 -134l277 58l-68 -229l-100 -201l-150 -83l-164 87l-103 161l-40 208l-29 208l2 211l55 199l112 225l243 25l96 -110l-19 -81l55 -16l117 283l-138 23l-15 -126l-191 102l-240 -17l-162 -176l-87 -226l-26 -208l-6 -210 l48 -204l83 -188l93 -183l210 -91l221 53l154 187l54 232l-8 -217l-33 -217z" />
<glyph unicode="H" horiz-adv-x="1006" d="M834 91l-3 227l8 222l-2 222l18 221l-14 223l8 219l95 -8l-2 93l-177 -1l-171 4l7 -90l72 4l-9 -215l15 -214l-4 -216l-184 -3l-183 7l3 219l17 212l-15 211l89 5l4 64l-171 1l-162 -2l-10 -80l78 11l-12 -225l15 -223l-6 -446l-13 -223l18 -223l-83 -4l-9 -63l189 1 l188 -8l-8 70l-102 15l-7 207l5 210l3 204l175 -1l163 -4l6 -205l4 -212l2 -209l-80 -3l-15 -81l196 17l181 8l11 72z" />
<glyph unicode="I" horiz-adv-x="534" d="M367 1438l106 -13l-4 98l-340 1l-7 -98l67 6l-2 -221l7 -223l-11 -669l6 -219l-83 5l-2 -87l194 -3l187 8l6 94l-126 -16l4 225l7 222l-5 222l15 222l-7 222z" />
<glyph unicode="J" horiz-adv-x="603" d="M239 1519l293 -24l105 24l9 -95h-119l-9 -141l-17 -197l-1 -694l-91 -272l-166 -60l-89 -25l-85 47h95l75 28l85 80l31 315l25 215l-21 217l9 274l-13 232l-101 -30zM50 110l-37 104l85 95l94 -19l29 -104l-85 85l-57 -47z" />
<glyph unicode="K" horiz-adv-x="1032" d="M874 84l-57 218l-29 220l-49 216l-70 210l-53 218l201 269l100 -4l6 98l-292 -19l1 -79l101 -4l-142 -176l-276 -367l23 281l-14 268l98 -9l-6 93l-335 -8l-11 -85l74 9l-1 -224l15 -222l-27 -224l27 -223l-10 -223l3 -223l-99 13l-1 -97l377 26l-3 59l-106 8l7 223 l-13 222l19 217l186 264l-13 -46l42 -226l55 -222l51 -225l67 -223l-126 8l-1 -109l197 2l189 13l7 92z" />
<glyph unicode="L" horiz-adv-x="867" d="M113 1517l174 -18l169 10l-4 -73l-87 -3l-17 -226l20 -227l-5 -228l-1 -225l-13 -225l-2 -222l180 23l132 127l80 192l25 207l64 -3l-22 -209l-14 -208v-213l-243 17l-236 -9l-238 -15l11 79l86 1l-4 229l15 227l6 227l-18 229l22 228l-8 224l-57 6z" />
<glyph unicode="M" horiz-adv-x="1241" d="M1107 1383l109 104l-89 15l-221 -35l-59 -191l-64 -199l-34 -208l-69 -197l-51 -186l-39 196l-61 204l-69 203l-46 208l-53 198l-225 -6l-102 13l104 -77l-7 -223l14 -225l7 -224l-14 -223l20 -222l1 -224l-120 9l16 -75l175 -26l180 -9l15 102l-84 5l-14 226l-1 229 l2 227l-1 227l8 232l70 -225l43 -226l66 -221l53 -205l54 -115l54 106l81 217l56 223l76 216l49 238v-244l-17 -228l12 -229l-17 -229l23 -230l-109 15l18 -75l174 -26l177 -4l-6 79l-52 11l-5 214l2 218l-14 217l10 218l-7 218z" />
<glyph unicode="N" horiz-adv-x="1044" d="M1014 1438l-2 86l-153 -20l-12 6l-1 13l-75 -22l-18 -93l96 14l2 -234l25 -469l-4 -232l8 -241l-102 215l-62 218l-105 202l-71 215l-97 202l-85 209l-196 12l-93 -17l80 -158l6 -246l21 -498l-26 -248l21 -249l-115 6l10 -90l191 6l195 -8l-14 107l-67 -6l-19 210 l21 215l3 213l-20 214l12 218l363 -766l71 -197l85 -187l78 -26l6 236l-17 238l-1 237l4 237v235l-14 236z" />
<glyph unicode="O" horiz-adv-x="904" d="M441 1560l260 -107l128 -332l33 -377l-46 -331l-122 -286l-119 -132l-197 22l-159 108l-131 326l-29 371l49 331l108 301zM240 816l10 -287l50 -277l160 -173l148 134l71 537l-7 298l-64 283l-163 139l-178 -260z" />
<glyph unicode="P" horiz-adv-x="1011" d="M122 118l108 -15l-6 355l-30 771l8 244l-114 -12l6 89l232 15l216 -15l247 -62l120 -135l34 -364l-12 -199l-113 -160l-256 -87l-166 53l-13 -125l1 -399l113 17l9 -105l-387 24zM382 1119l24 -197l-2 -273l182 -48l169 197l15 225l12 287l-246 145l-113 -25z" />
<glyph unicode="Q" horiz-adv-x="888" d="M677 49l92 -186l-61 -46l-93 -15l-53 213h7l113 121l114 264l44 405l-31 347l-121 306l-245 99l-212 -98l-102 -277l-46 -305l27 -442l123 -300l150 -100l137 -15l-13 -64l46 -247h201l108 216zM310 252l-48 255l-8 365l25 362l121 227l201 -116l60 -260l7 -274l-68 -596 l-93 -51v162l31 124l-108 -62l54 -237l-100 -56z" />
<glyph unicode="R" horiz-adv-x="1149" d="M1020 46l-239 570l45 25l95 172l10 145l-33 364l-120 135l-247 62l-216 15l-232 -15l-6 -89l114 12l-8 -244l30 -770l-2 -325h-108l15 -124l392 5l-9 105l-112 -17l-21 448l183 -8l128 43l204 -505l-65 4l-11 -86l284 11v62zM387 597l-12 292l-5 200l41 310l113 25 l247 -145l-12 -287l-15 -225l-179 -164z" />
<glyph unicode="S" horiz-adv-x="907" d="M758 1562l114 -16l-87 -420l-17 -16l-219 339l-156 -84l-165 -120l201 -370l322 -197l135 -259l-102 -329l-285 -109l-320 183l30 -205l-100 -3l4 420l54 -4l261 -263l171 56l62 175l-21 250l-164 171l-202 83l-169 231l-12 265l170 194l239 21l248 -232z" />
<glyph unicode="T" horiz-adv-x="1073" d="M979 1523h-279l1 -3l-633 4l-30 -617h45l95 401l166 137l-1 12l83 -6l-5 -452l15 -453l8 -449l-62 -1l-9 -83l340 22l3 62h-87l-32 900l-4 449l263 -147l98 -400h68z" />
<glyph unicode="U" horiz-adv-x="1077" d="M836 83l-362 -104l-263 153l-83 272l-24 447l2 560l-116 -27v116l212 -46l237 42l-8 -112l-107 6l-48 -534l65 -417l157 -318l209 24l114 155l1 397l-36 571l-143 -19v135l236 -51l253 51l-13 -113l-107 10l-55 -395l-36 -648z" />
<glyph unicode="V" horiz-adv-x="894" d="M376 850l-35 185l-33 195l-23 192l69 16l-4 65l-172 -11l-175 -3l-8 -60l67 -3l115 -473l27 -246l55 -239l37 -245l49 -249l209 1l222 958l71 234l36 246l72 -4l3 82l-208 -6l7 -55l36 -16l-39 -188l-24 -197l-51 -203l-19 -61l-45 -228l-72 -219l-43 -230l-42 226 l-32 223l-42 226z" />
<glyph unicode="W" horiz-adv-x="1406" d="M797 958l17 -83l7 -86l42 -227l32 -223l43 -226l42 231l72 218l45 229l19 60l51 203l24 197l40 188l-37 17l-7 54l208 6l-3 -82l-71 4l-37 -245l-70 -235l-48 -223l-175 -735l-209 -1l-49 250l-37 244l-30 130l-33 -143l-115 -480l-210 -1l-49 250l-37 244l-54 239 l-28 247l-114 473l-68 2l9 60l174 3l172 11l5 -65l-70 -16l23 -192l33 -195l36 -185l8 -86l41 -227l33 -223l42 -226l42 231l73 218l44 229l9 26l-18 162l-114 473l-68 2l8 60l175 3l172 11l4 -65l-69 -16l23 -192l17 -103l98 265l-34 40l14 60l173 -13l-33 -80h-60z" />
<glyph unicode="X" horiz-adv-x="1125" d="M657 757l92 293l103 240l99 165l59 11l7 51l-183 13l-13 -57l40 -1l-79 -150l-217 -503l-105 287l-108 221l-52 119l60 -5l-6 89l-322 -19v-63l79 -5l85 -160l182 -406l79 -197l-89 -239l-131 -232l-90 -175l-65 -8v-50l202 -13v57l-40 10l74 118l118 212l113 235 l91 -237l108 -229l65 -114l-55 -8l-19 -63h334l-6 63l-62 7l-81 173l-108 200l-83 209z" />
<glyph unicode="Y" horiz-adv-x="1065" d="M615 696l158 403l85 179l76 179l56 7l6 50l-207 15l-13 -57l40 -1l-68 -145l-69 -214l-138 -262l-102 253l-108 221l-52 119l60 -5l-6 89l-322 -19v-63l80 -5l84 -159l265 -584l21 -248l-15 -225v-209l-56 -6l-11 -68l310 3v57l-78 8v139l4 240l16 169z" />
<glyph unicode="Z" horiz-adv-x="1005" d="M828 234l6 -124l-200 -15l-324 -30l123 281l115 283l120 274l109 289l118 258h-192l-184 -32l-187 -17l-185 -18l-11 119l-95 -42l10 -79l1 1l13 -27l36 -187l85 33l1 80l262 31l215 15l-92 -231l-123 -323l-123 -293l-124 -231l-123 -293l167 9l197 8l196 29l192 12 l-4 -110l84 2l38 346z" />
<glyph unicode="[" horiz-adv-x="351" d="M361 1271l-355 -15l77 -1761h293v108l-185 -61l-93 1667l232 -46z" />
<glyph unicode="\" horiz-adv-x="845" d="M816 -38l-202 366l-105 314l-350 760h-152l54 -207l237 -412l164 -429l177 -379z" />
<glyph unicode="]" horiz-adv-x="455" d="M41 1271l355 -15l-77 -1761h-294v108l185 -61l93 1667l-232 -46z" />
<glyph unicode="^" horiz-adv-x="822" d="M0 815l398 595l142 -177l132 -202l142 -187l-133 -22l-113 231l-163 210l-153 -229l-113 -219h-139z" />
<glyph unicode="_" horiz-adv-x="1108" d="M-52 -24h1134v-44h-1134v44z" />
<glyph unicode="`" horiz-adv-x="214" d="M173 1316l-152 133l114 66l38 -76l57 -95z" />
<glyph unicode="a" horiz-adv-x="859" d="M182 733l-28 -9l-75 221l88 35l7 -85l265 141l190 -114l85 -94l46 -482l-29 -304l85 32l-20 -103l-66 -10l-145 -4l16 179l-243 -163l-253 83l-69 188l72 243l151 142l218 56l147 -28l-68 226l-123 85l-189 -85l-72 -54zM632 474l-8 126l-166 38l-187 -92l-89 -249 l51 -139l240 44l142 165z" />
<glyph unicode="b" horiz-adv-x="897" d="M51 1428l271 9l-22 -223l3 -277l167 53l255 -87l112 -159l12 -199l7 -182l-55 -171l-117 -147l-186 -44l-441 -2l5 116l107 -44l-20 235l20 523l-27 363l16 182l-99 -14zM334 52l109 19l246 144l-12 286l8 255l-192 166l-181 -47l1 -272l-24 -198z" />
<glyph unicode="c" horiz-adv-x="801" d="M658 960l-181 59l-182 -23l-138 -132l-78 -178l-13 -252l54 -209l187 -201l195 -32l196 108l88 249l-34 10l-100 -213l-156 -52l-228 186l-44 201l30 211l66 162l137 100l133 -39l79 -52l11 -91h39l13 257l-72 -6z" />
<glyph unicode="d" horiz-adv-x="891" d="M835 1355l-99 14l17 -182l-28 -363l21 -522l-21 -235l108 44l5 -116l-441 2l-187 43l-117 148l-54 171l6 182l13 198l112 160l255 87l166 -53l3 276l-21 224l270 -9zM605 401l-24 197l2 272l-182 48l-192 -166l8 -255l-1 -260l205 -155l140 -34z" />
<glyph unicode="e" horiz-adv-x="810" d="M306 217l250 -149l173 107l85 230l25 -6l-46 -204l-221 -198l-315 76l-123 176l-60 206l-21 211l99 241l210 147l178 -39l172 -89l91 -290l-285 -30l-282 -42l21 -171zM232 623l190 49l212 -6l-67 198l-233 52l-82 -137z" />
<glyph unicode="f" horiz-adv-x="769" d="M688 1164l43 1l21 264l-77 2l1 -126l-239 109l-169 -90l-130 -138l-8 -224l25 -284l9 -227l-20 -395l-75 25l-10 -88l370 -6l-4 105l-123 -36l4 385l-5 273l222 -1l-13 126l-223 -56l4 221l26 210l189 145l175 -133z" />
<glyph unicode="g" horiz-adv-x="930" d="M815 255l-61 -192l-73 -184l-108 -163l-273 -102l-176 154l-16 -124l-70 11l72 242l30 -3l4 -60l202 -146l210 191l100 266l-83 -77l-199 -69l-198 71l-125 182l-32 218l-1 218l115 230l268 128l235 -159l7 171l260 -1l7 -80l-112 25l-4 -251l24 -248zM664 555l-8 263 l-145 107l-196 -10l-108 -191l-39 -215l50 -212l109 -185l213 1l120 107z" />
<glyph unicode="h" horiz-adv-x="844" d="M8 1394l5 66l186 -20l214 19l-14 -76l-105 5l-10 -250l20 -255l256 103l134 -72l94 -178l-3 -202l-6 -202l-17 -200l13 -188l80 22v-75l-151 19l-175 -17l9 80l73 -18l27 190l-5 193l17 232l-56 257l-195 64l-115 -121l-25 -467l3 -237l116 19l2 -76l-344 1l4 71l70 -21 l23 1112l-32 222h-93z" />
<glyph unicode="i" horiz-adv-x="468" d="M65 1034l280 16l-33 -367l10 -614l93 38l2 -101l-349 -4l3 92l90 -38l20 475l-29 445l-88 -34zM231 1311l-30 11l14 158l93 -42zM187 1266l10 -23l-105 -90l-47 78zM190 1307l-17 -27l-133 58l71 88zM207 1238l29 13l92 -94l-96 -50zM252 1276l-11 30l111 87l34 -99z" />
<glyph unicode="j" horiz-adv-x="437" d="M69 1035l298 2l-14 -214l-18 -197v-640l-91 -274l-215 -77l-15 31l144 117l57 475l-22 218l9 276l-13 232l-101 -30zM231 1311l-29 11l14 158l92 -42zM188 1266l10 -23l-106 -90l-47 78zM191 1307l-18 -27l-133 58l72 88zM208 1238l29 13l91 -94l-95 -50zM253 1276 l-12 30l112 87l34 -99z" />
<glyph unicode="k" horiz-adv-x="1054" d="M50 988l10 54l254 3l-23 -117l13 -253l168 164l146 168l114 95l-79 10l12 44l137 -19l131 19l-8 -46l-96 -15l-104 -80l-160 -163l-139 -169l139 -173l156 -234l183 -201l104 -14v-51l-399 -5l-8 61h101l-154 149l-145 232l-112 114l-1 -241l9 -235l96 8l-9 -85l-327 -2 l21 99l46 -19l18 234v238l-9 237l-18 171l-72 12z" />
<glyph unicode="l" horiz-adv-x="487" d="M71 1438l290 11l-30 -899l16 -482l90 38l7 -107l-384 1l3 93l102 -38l37 1065l-33 260l-98 -34v92z" />
<glyph unicode="m" horiz-adv-x="1473" d="M1335 74l-13 254l-1 405l-92 259l-263 57l-198 -155l-65 105l-202 38l-162 -116l-16 131l-262 -25l-12 -80l137 11l18 -168v-348l-15 -349l-82 8l-10 -84h376v100l-110 -14l-12 237l9 519l193 95l132 -177l27 -370l-25 -406l-82 4l-6 -83l169 44l177 -47v86l-90 -20 l-11 425l-35 418l227 114l126 -178l27 -440l-21 -235l-83 4l-6 -82l346 -3v85z" />
<glyph unicode="n" horiz-adv-x="985" d="M49 1011l272 26l17 -132l220 132l210 -113l66 -201l19 -329l-2 -412l93 19v-85l-166 43l-192 -40l7 82l85 -4l38 394l-52 306l-125 235l-199 -95l-13 -329l28 -421l114 14v-100h-389l10 84l85 -8l44 292l-40 399v174l-142 -11z" />
<glyph unicode="o" horiz-adv-x="775" d="M440 1033l240 -92l105 -235l14 -259l-58 -222l-127 -186l-125 -52h-177l-145 85l-108 231l-11 255l61 221l115 198zM218 541l-4 -196l35 -192l143 -130l188 183l48 258l7 204l-48 196l-143 125l-183 -182z" />
<glyph unicode="p" horiz-adv-x="924" d="M37 -278l136 -68v256l-30 770l8 244l-114 -11l6 89l185 15l47 -77l170 62l247 -62l92 -124l61 -375l-12 -199l-112 -160l-256 -88l-167 54l-12 -126l30 -363l-263 24zM284 571l24 -197l-1 -273l182 -48l192 167l-8 255l12 287l-247 145l-113 -25z" />
<glyph unicode="q" horiz-adv-x="886" d="M853 -289l-263 -86l14 186l-3 277l-166 -54l-255 88l-112 159l-12 198l-6 182l54 170l117 148l319 52l110 -78l161 104l50 -108l-135 -46l30 -185l-34 -535l2 -280l-12 -176l143 125zM574 928l-112 25l-245 -144l11 -286l-8 -255l192 -166l181 48l-2 272l24 196z" />
<glyph unicode="r" horiz-adv-x="779" d="M656 1030l-1 -95l-120 114l-170 -57l-82 -164l28 213l-280 -16v-91l87 34l29 -444l-20 -473l-89 38l-3 -92l347 4l-2 100l-93 -37l-8 501l162 351l132 51l91 -96l11 -91h40l13 257z" />
<glyph unicode="s" horiz-adv-x="740" d="M619 1079l91 -11l-69 -296l-14 -10l-174 238l-214 -161l117 -262l196 -98l108 -182l-81 -232l-227 -76l-255 129l24 -144l-80 -2l4 295l43 -3l207 -185l186 162l-17 176l-131 121l-216 143l-27 242l135 137l191 15l197 -164z" />
<glyph unicode="t" horiz-adv-x="716" d="M638 278l38 -152l-151 -142l-237 38l-145 184l3 218l24 217l-12 216l-5 214l3 238l-142 47l321 29l-7 -91l-21 -269l341 19v-123l-342 33l-7 -355l5 -215l13 -229l160 -104l152 75zM610 325l-104 85l-114 -47l29 -180l132 38l-95 28l-18 104z" />
<glyph unicode="u" horiz-adv-x="1012" d="M964 25l-308 -27l-17 131l-219 -131l-209 113l-66 200l-19 327l2 411l-93 -19v85l169 -35l188 32l-7 -82l-84 4l-39 -392l52 -306l125 -233l198 94l13 328l-28 420l-113 -15l-1 100l188 -38l200 38l-10 -83l-84 7l-44 -290l40 -397v-174l166 -5v-63z" />
<glyph unicode="v" horiz-adv-x="1002" d="M12 995l7 67l158 -34l179 44l-1 -58l-75 -27l109 -221l67 -221l73 -219l87 -212l45 199l65 201l39 208l56 200l63 200l-54 17l35 47l75 -38l103 28v-58l-71 4l-43 -235l-67 -224l-73 -219l-64 -223l-69 -220l-195 1l-80 193l-65 200l-84 194l-64 201l-95 205h-61z" />
<glyph unicode="w" horiz-adv-x="1529" d="M895 705l44 -148l74 -220l97 -233l66 221l47 208l74 227l40 194l31 179l-54 17l7 32l97 -24l117 21l-8 -49l-63 5l-51 -237l-67 -223l-63 -216l-67 -214l-67 -254l-194 1l-91 215l-64 200l-17 39l-2 -6l-65 -223l-69 -220l-194 1l-81 193l-64 200l-85 194l-146 464h-61 l7 68l153 -34l184 43v-58l-76 -26l96 -280l67 -221l74 -219l87 -212l44 199l65 201l12 60l-13 31l-64 200l-80 235h-61l7 67l159 -30l178 40v-58l-75 -27l30 -122l3 13l47 -118l86 224l-74 21l34 60l80 -27l114 7l-20 -81l-74 7z" />
<glyph unicode="x" horiz-adv-x="939" d="M901 -61l-121 209l-95 185l-95 225l146 219l132 245l22 -16l19 53l-88 -15l-103 21l-2 -53l35 5l-108 -213l-130 -200l-95 204l-115 173l50 -3l9 53l-172 -12l-158 12l-5 -48l50 -2l138 -220l138 -240l-120 -240l-127 -230l-67 -4l-14 -60l166 13l164 -3l22 69l-55 -9 l97 198l85 214l97 -192l110 -174l43 -186l-59 -7l6 -51l169 43l103 -6l1 53z" />
<glyph unicode="y" horiz-adv-x="1016" d="M321 -348l16 31l338 -46l123 215l-15 243l-77 -95l-354 -30l-185 230l-30 478l16 164l-20 94l-78 -28l-6 75l185 -27l171 19l-3 -80l-75 11l-19 -98l6 -130l69 -580l307 -17l105 129l13 526l-30 258l-114 -28l-6 101l169 -46l154 62l20 -87l-72 15l23 -441l-20 -385 l3 -353l-60 -133l-169 -139zM352 -471l-108 47l77 215h46z" />
<glyph unicode="z" horiz-adv-x="916" d="M730 256l9 -115l-115 -30l-123 -20l-173 -18l118 223l75 177l89 177l112 207l125 193l-207 -15l-98 -3l-190 -35l-203 -13l-13 83l-104 -29l11 -55l1 1l14 -19l40 -172l94 23l-15 77l365 57l-68 -198l-96 -177l-84 -199l-131 -188l-122 -189l617 17l76 13l-4 -76l91 2 l43 313z" />
<glyph unicode="|" horiz-adv-x="321" d="M53 1390h202l-38 -695l25 -682l-13 -430l-164 25l25 720v645z" />
<glyph unicode="~" horiz-adv-x="920" d="M103 754l29 189l142 76l155 -60l214 -139l180 95l-19 133l86 -118l-100 -194l-183 -19l-216 116l-60 27l-124 27z" />
<glyph unicode="&#xa1;" horiz-adv-x="506" d="M368 593l-130 -42l-86 -965l252 -28zM288 828l29 -11l-8 -158l-94 39zM329 874l-11 23l103 93l49 -76zM328 833l16 27l136 -53l-69 -91zM309 901l-29 -13l-95 90l94 53zM265 861l12 -29l-108 -90l-38 97z" />
<glyph unicode="&#xa2;" horiz-adv-x="736" d="M718 324l-101 -213l-156 -52l-72 59l21 159l47 370l55 247l43 -12l79 -52l11 -92h40l13 258l-73 -7l-1 -63l-98 32l36 164l-105 19l-35 -158l-162 -20l-139 -133l-78 -178l-13 -252l55 -210l189 -202l-26 -158l95 -47l26 189l98 -16l196 109l89 249zM233 245l-44 201 l29 212l66 163l127 91l-106 -726z" />
<glyph unicode="&#xa3;" horiz-adv-x="969" d="M846 283l9 -129l-123 -90l-313 239l-80 3l-20 156l-26 192l173 17l19 109l-206 -23l-15 109l-59 162l70 227l123 89l189 -89l72 -57l-10 -100l29 -10l75 232l-89 37l-7 -89l-265 148l-190 -120l-125 -228l67 -327l-10 -1l-114 40v-129l145 -10l18 -88l22 -243l-71 3 l-67 -189l100 -183l66 -11l145 -4l-16 188l-8 69l74 -29q105 -70 124 -149q57 -78 208 -70l114 90l48 79zM232 15l-85 33l-13 165l66 30l12 -4z" />
<glyph unicode="&#xa4;" horiz-adv-x="912" d="M739 596l-19 203l-20 57l168 79l-142 156l-79 -135l-69 60l-151 19l-195 -52l-3 -4l-60 136l-140 -165l124 -61l-29 -35l-23 -213l58 -172l-108 -43l151 -179l44 143l50 -45l231 7l80 57l49 -152l158 126l-134 89zM492 445l-165 -5l-98 87l-41 125l16 152l78 92l139 37 l108 -14l67 -59l34 -96l13 -145l-48 -100z" />
<glyph unicode="&#xa5;" horiz-adv-x="956" d="M841 1540l-13 -57l41 -1l-80 -149l-75 -225l-146 -279l-102 287l-108 221l-52 120l60 -5l-6 88l-323 -19v-63l80 -4l85 -160l265 -585l10 -116l-221 29l-23 -114l186 -9l66 2l3 -41l-8 -126l-215 3v-113l163 28l46 -3l-1 -15v-209l-57 -6l-11 -68l311 3v57l-78 8v139 l2 83l227 -13l5 138l-230 -23l1 55l10 110l252 10l12 123l-263 -40l-11 106l158 404l157 354l60 12l6 51z" />
<glyph unicode="&#xa6;" horiz-adv-x="328" d="M81 884l-9 316l-13 202l202 -12l-25 -228l20 -379l-8 -113l-176 -13zM101 75l-17 355l164 -13l-7 -164l20 -670l-63 38l-101 -25z" />
<glyph unicode="&#xa7;" horiz-adv-x="828" d="M527 1299l219 -339l17 15l87 421l-114 16l-8 -239l-248 232l-239 -21l-170 -194l12 -236l53 -93l-124 -338l221 -282l171 -85l170 -76l53 -183l-165 -119l-156 -85l-219 339l-17 -15l-87 -421l114 -15l8 238l248 -232l239 21l170 194l-10 294l-34 45l34 411l-123 209 l-190 104l-180 48l-53 182l165 119zM477 713l218 -199l-25 -310l-41 54l-235 40l-278 244l54 260l13 -22z" />
<glyph unicode="&#xa8;" horiz-adv-x="796" d="M256 1366l-26 5l-5 122l80 -22zM225 1327l11 -17l-77 -80l-47 54zM223 1358l-12 -22l-115 28l49 76zM244 1308l23 13l85 -61l-73 -49zM277 1342l-12 21l82 79l39 -71zM606 1364l-25 5l-5 122l80 -22zM576 1325l10 -17l-77 -80l-47 54zM574 1356l-12 -22l-115 28l49 76z M595 1306l22 13l86 -61l-74 -49zM628 1340l-13 21l83 79l38 -71z" />
<glyph unicode="&#xa9;" horiz-adv-x="1369" d="M640 1385l447 -99l222 -298l63 -337l-75 -294l-204 -254l-202 -116l-338 23l-273 98l-228 292l-55 331l79 295l182 267zM153 727l30 -257l128 -248l390 -158l353 115l159 478l-24 266l-161 253l-398 129l-423 -228zM824 935l27 -7l60 166l-63 8l-15 -56l-113 50l-143 -14 l-101 -102l-42 -138l-15 -125v-124l23 -122l41 -116l57 -110l130 -42l129 23l81 84l45 107l8 48l-107 -164l-95 -33l-102 35l-54 102l-35 122l-18 126l1 128l41 118l72 130l138 13l60 -59z" />
<glyph unicode="&#xaa;" horiz-adv-x="721" d="M227 1310l-20 -7l-54 157l63 25l5 -60l189 100l134 -81l61 -67l33 -342l-21 -217l61 23l-15 -73l-47 -7l-103 -3l12 127l-173 -116l-180 59l-49 134l51 172l108 102l155 40l104 -20l-49 160l-87 61l-134 -61l-52 -38zM547 1126l-6 89l-118 27l-133 -66l-63 -176l36 -99 l171 31l101 118z" />
<glyph unicode="&#xab;" horiz-adv-x="1092" d="M694 697l-141 -134l133 -243l105 -199l206 -263l12 225l-253 432l171 236l133 149l3 235l-252 -233zM234 697l-141 -135l133 -243l104 -199l207 -263l12 225l-253 432l171 236l133 149l3 235l-252 -233z" />
<glyph unicode="&#xac;" horiz-adv-x="832" d="M24 681l124 -19l265 19l228 10l143 -29l-33 -152l26 -104l-3 -114l-152 -28l29 180l-38 142l-171 -19l-418 -19v133z" />
<glyph unicode="&#xad;" horiz-adv-x="768" d="M116 737l327 -26l354 57l7 -143l-680 -11z" />
<glyph unicode="&#xae;" horiz-adv-x="1467" d="M739 1382l446 -99l223 -298l62 -336l-74 -294l-204 -254l-203 -116l-337 22l-273 99l-228 292l-56 331l79 294l182 268zM252 724l30 -256l127 -248l390 -159l354 116l158 477l-24 266l-161 254l-398 128l-422 -227zM1041 302l-66 162l-43 133l68 96l7 119l-20 219l-72 80 l-148 37l-130 10l-139 -10l-4 -53l69 7l-5 -146l18 -462l-1 -195h-65l9 -74l235 2l-5 64l-68 -11l-10 221l7 56l101 -13l76 26l101 -198l10 -94l-39 2l18 -55l159 8l-18 74zM684 608l1 164l-15 118l25 187l68 15l148 -87l-7 -172l-10 -136l-114 -85z" />
<glyph unicode="&#xaf;" horiz-adv-x="768" d="M116 737l327 -26l354 57l7 -143l-680 -11z" />
<glyph unicode="&#xb0;" horiz-adv-x="398" d="M10 1366l126 164l189 -25l101 -190l-113 -151l-202 -25zM140 1214l147 18l83 110l-74 138l-138 19l-92 -120z" />
<glyph unicode="&#xb1;" horiz-adv-x="906" d="M110 116l327 -26l354 56l7 -142l-680 -11zM365 1221h242l-53 -447l356 77l30 -201l-370 46l56 -430l-224 -18l56 425l-429 -35v194l392 -35z" />
<glyph unicode="&#xb2;" horiz-adv-x="598" d="M208 1469l-50 -5l38 -132l7 -4l97 106l146 -55l-13 -162l-181 -178l-126 -136l7 -51l223 3l168 23l-13 -64l44 -1l-2 132l-23 -2l-174 -52l-139 17l63 96l202 134l73 135v152l-102 52l-145 9l-97 -92z" />
<glyph unicode="&#xb3;" horiz-adv-x="628" d="M583 1458l-112 54l-208 3l-122 -135l42 -58v70l71 69l208 -50l-14 -167l-46 -46l-49 -2l-85 -18l39 -11l80 -8l37 -28l14 -167l-208 -50l-71 70v69l-43 -58l122 -135l209 4l112 54v155l-95 102l119 127v156z" />
<glyph unicode="&#xb4;" horiz-adv-x="235" d="M100 1270l152 132l-114 67l-38 -76l-57 -95z" />
<glyph unicode="&#xb5;" horiz-adv-x="972" d="M791 124v174l-41 399l44 291l85 -8l10 84l-201 -38l-188 38v-100l114 14l28 -421l-13 -329l-199 -95l-125 235l-52 307l38 393l85 -4l7 82l-189 -31l-169 34v-85l93 19l-2 -412l19 -329l11 -379l19 -238l-76 10l10 -95l266 19l19 95l-86 -10l-9 370l122 -85l220 131 l17 -131l272 25l12 80z" />
<glyph unicode="&#xb6;" horiz-adv-x="1088" d="M706 1379l-370 30l-216 -139l-31 -355l77 -181l124 -174l183 -24v-206l-14 -713l154 -9l12 416l-25 661l32 565l182 4l30 -314v-625l-25 -697l164 -25l13 416l-26 661l34 588l119 2l31 149z" />
<glyph unicode="&#xb7;" horiz-adv-x="303" d="M70 849l229 10l-10 -197h-115l-83 -16z" />
<glyph unicode="&#xb8;" horiz-adv-x="337" d="M48 -208l30 -103l179 -11l16 123l-64 68l-85 26l-13 143l102 -13l-7 -89l116 -42l39 -150l-85 -142l-168 -16l-98 89z" />
<glyph unicode="&#xb9;" horiz-adv-x="433" d="M151 1482l192 49l-7 -452l11 -236l62 19l11 -46l-271 -6l2 45l71 -18l25 520l-23 102l-73 -51v74z" />
<glyph unicode="&#xba;" horiz-adv-x="665" d="M399 1542l174 -66l76 -167l10 -184l-42 -158l-92 -132l-90 -37h-129l-104 60l-79 164l-8 181l44 158l84 140zM238 1192l-2 -140l25 -136l103 -92l137 129l34 184l5 145l-34 140l-104 88l-133 -129z" />
<glyph unicode="&#xbb;" horiz-adv-x="1027" d="M458 697l140 -134l-132 -243l-105 -199l-207 -263l-11 225l253 432l-172 236l-133 149l-3 235l252 -233zM918 697l141 -135l-133 -243l-105 -199l-206 -263l-12 225l253 432l-171 236l-134 149l-3 235l253 -233z" />
<glyph unicode="&#xbc;" horiz-adv-x="1121" d="M76 19l128 193l115 193l93 205l134 183l203 400l115 195l185 59l-128 -199l-118 -207l-122 -205l-131 -198l-352 -610zM1060 267l-6 48l-80 -14l-33 385l61 35l-107 4l-142 -161l-165 -313l139 -1l172 3l-30 -209l-61 19l-2 -47h232l-5 53l-54 -19l-6 169l1 48h86z M750 307l-62 -17l84 207l123 154l-3 -72l2 -288zM49 1383l192 50l-7 -453l11 -236l62 19l12 -46l-272 -5l3 45l70 -19l25 520l-22 102l-74 -51v74z" />
<glyph unicode="&#xbd;" horiz-adv-x="1206" d="M54 12l128 193l115 192l93 205l134 184l202 400l115 194l185 60l-128 -200l-118 -206l-122 -205l-131 -199l-352 -610zM34 1383l192 50l-7 -453l11 -236l62 19l11 -46l-271 -5l2 45l71 -19l25 520l-23 102l-73 -51v74zM801 664l-50 -5l38 -132l7 -4l97 106l146 -55 l-13 -162l-181 -178l-126 -137l7 -50l222 3l169 23l-13 -64l44 -1l-2 132l-23 -2l-174 -52l-139 17l63 95l202 135l73 135v151l-102 53l-145 9l-97 -92z" />
<glyph unicode="&#xbe;" horiz-adv-x="1211" d="M166 19l128 193l115 193l93 205l134 183l203 400l115 195l185 59l-128 -199l-118 -207l-122 -205l-131 -198l-352 -610zM501 1320l-112 53l-208 4l-122 -135l42 -58v70l71 69l208 -50l-14 -167l-46 -46l-49 -3l-85 -17l39 -11l80 -8l37 -28l14 -167l-208 -50l-71 69v70 l-43 -58l122 -135l209 4l112 53v156l-95 102l119 127v156zM1150 267l-6 48l-80 -14l-33 385l61 35l-107 4l-142 -161l-165 -313l139 -1l172 3l-30 -209l-61 19l-2 -47h232l-5 53l-54 -19l-6 169l1 48h86zM840 307l-62 -17l84 207l123 154l-3 -72l1 -288z" />
<glyph unicode="&#xbf;" horiz-adv-x="682" d="M661 -64v-150l-114 -152l-339 110l23 363l270 341l-72 123l-51 -163l-235 -125l-132 -302v-339l183 -118l338 -8l199 294zM402 768l30 -12l-15 -157l-92 42zM445 813l-10 23l106 90l47 -79zM443 771l17 27l133 -57l-71 -89zM426 840l-29 -12l-92 93l96 50zM380 802 l12 -29l-112 -87l-34 98z" />
<glyph unicode="&#xc0;" d="M945 79l-36 247l-66 242l-56 251l-56 221l-116 481l-210 1l-49 -250l-37 -245l-55 -240l-27 -247l-115 -474l-68 -3l8 -60l175 -3l173 -11l4 65l-69 16l23 193l33 196l36 185l303 24l51 -203l24 -198l40 -189l-36 -16l-8 -55l209 -6l-3 82zM444 731l42 226l33 225l42 226 l43 -231l72 -219l45 -229zM523 1612l-151 132l113 67l38 -76l57 -95z" />
<glyph unicode="&#xc1;" d="M945 79l-36 247l-53 255l-63 232l-44 244l-76 222l-58 242l-210 1l-49 -250l-37 -245l-55 -240l-27 -247l-115 -474l-68 -3l8 -60l175 -3l173 -11l4 65l-69 16l23 193l33 196l36 185l303 24l51 -203l24 -198l40 -189l-36 -16l-8 -55l209 -6l-3 82zM444 731l42 226l33 225 l42 226l43 -231l72 -219l45 -229zM486 1615l152 133l-114 66l-38 -76l-57 -95z" />
<glyph unicode="&#xc2;" d="M945 79l-37 247l-65 248l-228 947l-210 1l-49 -250l-37 -245l-55 -240l-27 -247l-115 -474l-68 -3l8 -60l175 -3l173 -11l4 65l-69 16l23 193l33 196l36 185l303 24l51 -203l24 -198l40 -189l-37 -16l-7 -55l209 -6l-3 82zM444 731l42 226l33 225l42 226l43 -231l72 -219 l44 -229zM319 1610l88 86l59 71l108 -7l39 -57l118 -78l-88 -29l-118 128l-69 -57l-49 -71z" />
<glyph unicode="&#xc3;" d="M945 79l-36 247l-66 242l-50 238l-62 234l-116 481l-210 1l-49 -250l-37 -245l-55 -240l-27 -247l-115 -474l-68 -3l8 -60l175 -3l173 -11l4 65l-69 16l23 193l33 196l36 185l303 24l51 -203l24 -198l40 -189l-36 -16l-8 -55l209 -6l-3 82zM444 731l42 226l33 225l42 226 l43 -231l72 -219l45 -229zM287 1564l66 231l85 14l151 -150l95 27l58 134l8 -107l-57 -136l-104 -13l-123 81l-66 55z" />
<glyph unicode="&#xc4;" d="M945 79l-36 247l-56 243l-44 239l-78 232l-116 481l-210 1l-49 -250l-37 -245l-55 -240l-27 -247l-115 -474l-68 -3l8 -60l175 -3l173 -11l4 65l-69 16l23 193l33 196l36 185l303 24l51 -203l24 -198l40 -189l-36 -16l-8 -55l209 -6l-3 82zM444 731l42 226l33 225l42 226 l43 -231l72 -219l45 -229zM347 1727l-24 9l11 121l77 -32zM311 1693l8 -18l-87 -69l-39 60zM313 1724l-14 -20l-110 44l59 68zM328 1672l24 9l76 -72l-80 -38zM365 1701l-9 22l92 67l28 -76zM694 1676l-25 9l12 121l77 -32zM658 1642l8 -18l-87 -69l-39 60zM660 1674 l-14 -21l-110 44l59 68zM674 1621l25 9l75 -72l-79 -38zM712 1650l-10 23l93 66l28 -75z" />
<glyph unicode="&#xc5;" d="M945 79l-36 247l-66 255l-56 238l-56 221l-116 481l-210 1l-49 -250l-37 -245l-55 -240l-27 -247l-115 -474l-68 -3l8 -60l175 -3l173 -11l4 65l-69 16l23 193l33 196l36 185l303 24l51 -203l24 -198l40 -189l-36 -16l-8 -55l209 -6l-3 82zM444 731l42 226l33 225l42 226 l43 -231l72 -219l45 -229zM339 1731l103 120l155 -18l82 -139l-93 -110l-165 -19zM445 1620l120 13l68 81l-60 101l-113 13l-75 -87z" />
<glyph unicode="&#xc6;" horiz-adv-x="1683" d="M1600 458h-37l-100 -253l-141 -143l-209 -9l6 7l5 217l-9 217l-4 217l176 -8l176 -11l-8 89h-344l18 214l-15 207l18 205l195 -3l156 -132l70 -269l51 5v231l3 235l-259 -2l-281 -9l-224 8v-2h-113l-87 -239l-35 -214l-132 -250l-65 -236l-188 -453l-68 -3l-1 -57l175 -4 l170 -10l15 63l-67 15l52 184l64 187l64 178l299 22l12 -143l-11 -222l2 -210l-10 -4l-2 -6l-67 1l-9 -79l255 16l253 -3l246 5l21 225zM648 712l76 217l68 268l77 163l18 -144l28 -286l7 -177l-2 -22l2 -20z" />
<glyph unicode="&#xc7;" horiz-adv-x="954" d="M384 -217l30 -103l179 -11l16 123l-64 69l-85 25l-10 118l-168 53l-95 185l-69 193l-37 203l-1 207l24 207l70 231l169 171l239 23l189 -84l24 93l106 -13l-101 -276l-44 11l16 80l-101 98l-229 -21l-120 -217l-69 -197l-1 -213l30 -210l58 -204l90 -169l171 -58l157 53 l179 275l-14 -80l-74 -179l-136 -139l-166 -30l-5 -70l116 -42l39 -149l-85 -143l-168 -15l-98 88z" />
<glyph unicode="&#xc8;" horiz-adv-x="909" d="M688 186l-141 -143l-209 -9l6 7l5 216l-8 218l-5 217l177 -8l175 -11l-8 89h-343l17 213l-14 208l17 205l195 -3l156 -132l71 -269l51 4v231l3 236l-764 -3l8 -70l91 2l-4 -225l2 -223l-21 -224l18 -222l-10 -222l2 -220h-80l-8 -78l254 16l254 -4l245 6l21 225l-15 226 h-37zM479 1544l-151 133l113 66l38 -75l57 -95z" />
<glyph unicode="&#xc9;" horiz-adv-x="910" d="M691 174l-141 -144l-209 -9l6 7l5 217l-9 217l-4 218l177 -9l175 -11l-8 89l-343 1l17 213l-14 208l17 205l195 -3l156 -133l71 -268l51 4l-1 231l4 235l-764 -3l8 -69l91 2l-4 -226l2 -223l-21 -223l18 -223l-11 -221l3 -221l-80 1l-8 -78l254 15l254 -3l245 6l21 225 l-15 226l-37 -1zM492 1543l151 132l-113 67l-38 -76l-57 -95z" />
<glyph unicode="&#xca;" horiz-adv-x="918" d="M699 182l-141 -143l-209 -9l7 7l4 217l-8 217l-5 217l177 -8l175 -11l-8 89l-343 1l18 213l-15 207l17 206l195 -3l156 -133l71 -269l51 5v231l3 235l-764 -3l8 -69l92 2l-5 -226l2 -223l-20 -223l17 -223l-10 -222l2 -220l-80 1l-8 -78l255 15l501 -6l18 234l-15 225 h-37zM304 1578l89 85l58 71l108 -7l39 -57l118 -78l-88 -29l-118 129l-68 -57l-49 -72z" />
<glyph unicode="&#xcb;" horiz-adv-x="914" d="M694 205l-141 -143l-209 -10l6 7l5 217l-9 217l-4 218l177 -9l175 -11l-8 90h-344l18 213l-15 208l18 205l195 -3l156 -133l71 -268l51 4l-1 231l4 235l-765 -2l8 -70l92 2l-4 -226l2 -223l-21 -223l18 -223l-11 -221l2 -221l-79 1l-9 -78l255 16l254 -4l245 6l21 225 l-15 226h-38zM346 1709l-25 5l-5 121l80 -21zM316 1669l10 -16l-77 -80l-46 54zM314 1701l-12 -22l-115 28l49 76zM335 1651l22 13l86 -61l-74 -49zM368 1685l-13 21l83 79l38 -71zM697 1707l-25 5l-6 121l81 -21zM666 1668l11 -17l-77 -80l-47 54zM664 1699l-11 -22 l-116 28l50 76zM685 1649l23 13l85 -61l-73 -49zM718 1683l-12 21l82 79l39 -71z" />
<glyph unicode="&#xcc;" horiz-adv-x="539" d="M366 1384l106 -13l-4 99l-340 1l-7 -98l67 6l-2 -222l8 -223l-12 -669l6 -219l-83 6l-1 -88l193 -2l187 7l7 95l-127 -16l4 225l7 221l-5 223l15 221l-7 223zM315 1539l-152 132l114 67l38 -76l57 -95z" />
<glyph unicode="&#xcd;" horiz-adv-x="530" d="M358 1391l106 -14l-5 99l-340 1l-6 -98l67 6l-2 -222l7 -222l-11 -670l6 -218l-83 5l-2 -87l193 -3l188 8l6 94l-126 -16l4 225l7 222l-5 222l15 221l-7 223zM272 1594l151 132l-114 67l-37 -76l-57 -95z" />
<glyph unicode="&#xce;" horiz-adv-x="517" d="M349 1438l106 -13l-4 98l-340 1l-7 -98l67 6l-2 -221l8 -223l-12 -669l6 -219l-83 5l-1 -87l193 -3l187 8l6 94l-126 -16l4 225l7 222l-5 222l15 222l-7 222zM98 1644l88 85l59 72l107 -7l40 -57l117 -79l-88 -28l-118 128l-68 -57l-49 -71z" />
<glyph unicode="&#xcf;" horiz-adv-x="590" d="M386 1389l106 -13l-5 99l-340 1l-6 -98l67 6l-2 -222l7 -223l-11 -669l6 -219l-83 6l-2 -88l193 -2l188 7l6 95l-126 -17l4 225l7 222l-5 223l15 221l-7 223zM152 1715l-25 6l-5 121l80 -21zM122 1676l10 -16l-77 -81l-47 54zM120 1708l-12 -23l-115 29l49 75zM141 1657 l22 13l85 -60l-73 -49zM174 1692l-13 21l82 79l39 -72zM503 1713l-26 6l-5 121l80 -21zM472 1674l11 -16l-77 -81l-47 54zM470 1706l-12 -22l-115 28l49 75zM491 1655l23 13l85 -60l-73 -49zM524 1690l-12 21l82 79l39 -72z" />
<glyph unicode="&#xd0;" horiz-adv-x="985" d="M94 1399l206 5l198 -38l181 -90l146 -135l89 -184l7 -203l22 -227l-38 -224l-77 -211l-161 -152l-195 -39l-197 -16l-192 7l-5 102l108 -33l-7 223l16 225l-5 225l10 225l-1 225l-18 216l-81 -1zM361 -41l39 -11l201 65l111 180l23 209l19 256l-19 257l-65 249l-138 114 l-156 48l2 -224l-13 -229l-2 -229l-5 -229l10 -230zM43 720l152 -13h252l165 13l-38 -177l-164 38l-228 -25l-151 -13z" />
<glyph unicode="&#xd1;" horiz-adv-x="1044" d="M1014 1438l-2 86l-153 -20l-12 6l-1 13l-75 -22l-18 -93l96 14l2 -234l25 -469l-4 -232l8 -241l-102 215l-62 218l-105 202l-71 215l-97 202l-85 209l-196 12l-93 -17l80 -158l6 -246l21 -498l-26 -248l21 -249l-115 6l10 -90l191 6l195 -8l-14 107l-67 -6l-19 210 l21 215l3 213l-20 214l12 218l363 -766l71 -197l85 -187l78 -26l6 236l-17 238l-1 237l4 237v235l-14 236zM297 1565l66 231l85 14l151 -150l94 27l59 134l7 -107l-56 -136l-104 -13l-123 81l-66 55z" />
<glyph unicode="&#xd2;" horiz-adv-x="904" d="M441 1560l260 -107l128 -332l33 -377l-46 -331l-122 -286l-119 -132l-197 22l-159 108l-131 326l-29 371l49 331l108 301zM240 816l10 -287l50 -277l160 -173l148 134l71 537l-7 298l-64 283l-163 139l-178 -260zM460 1631l-152 133l114 66l38 -76l57 -94z" />
<glyph unicode="&#xd3;" horiz-adv-x="914" d="M436 1544l260 -107l128 -333l33 -377l-46 -330l-121 -287l-120 -132l-197 23l-159 108l-130 325l-30 371l49 331l109 302zM244 816l9 -287l50 -277l160 -173l148 134l72 537l-7 298l-64 283l-164 139l-178 -260zM421 1615l151 133l-113 66l-38 -75l-57 -95z" />
<glyph unicode="&#xd4;" horiz-adv-x="904" d="M441 1560l260 -107l128 -332l33 -377l-46 -331l-122 -286l-119 -132l-197 22l-159 108l-131 326l-29 371l49 331l108 301zM240 816l10 -287l50 -277l160 -173l148 134l71 537l-7 298l-64 283l-163 139l-178 -260zM249 1643l89 85l59 71l107 -7l40 -57l117 -78l-88 -29 l-118 129l-68 -57l-49 -72z" />
<glyph unicode="&#xd5;" horiz-adv-x="904" d="M441 1560l260 -107l128 -332l33 -377l-46 -331l-122 -286l-119 -132l-197 22l-159 108l-131 326l-29 371l49 331l108 301zM240 816l10 -287l50 -277l160 -173l148 134l71 537l-7 298l-64 283l-163 139l-178 -260zM202 1572l66 231l85 14l151 -150l95 28l58 133l8 -106 l-57 -136l-104 -14l-123 82l-66 54z" />
<glyph unicode="&#xd6;" horiz-adv-x="904" d="M441 1560l260 -107l128 -332l33 -377l-46 -331l-122 -286l-119 -132l-197 22l-159 108l-131 326l-29 371l49 331l108 301zM240 816l10 -287l50 -277l160 -173l148 134l71 537l-7 298l-64 283l-163 139l-178 -260zM270 1719l-25 5l-5 121l80 -21zM240 1679l10 -16l-77 -80 l-47 54zM237 1711l-11 -22l-115 28l49 76zM259 1661l22 13l85 -61l-73 -49zM292 1695l-13 21l82 79l39 -71zM621 1717l-26 5l-5 122l80 -22zM590 1678l11 -17l-77 -80l-47 54zM588 1709l-12 -22l-115 28l49 76zM609 1659l23 13l85 -61l-73 -49zM642 1693l-12 21l82 79 l38 -71z" />
<glyph unicode="&#xd7;" horiz-adv-x="901" d="M8 985l171 172l279 -354l197 305l164 -120l-295 -229l344 -264l-146 -171l-261 340l-278 -329l-137 138l302 252z" />
<glyph unicode="&#xd8;" horiz-adv-x="862" d="M748 1144l14 34l124 266l-114 9l-75 -176l-36 92l-260 108l-224 -107l-109 -301l-49 -331l30 -371l82 -206l-128 -265l133 19l57 117l145 -99l197 -22l120 132l121 286l46 331l-33 377zM210 445l-10 287l27 394l178 260l163 -139l41 -177l-55 -130l-124 -237l-135 -203 l-69 -142zM568 129l-148 -134l-160 175l47 96l159 262l126 251l42 100l5 -213z" />
<glyph unicode="&#xd9;" horiz-adv-x="1077" d="M836 83l-362 -104l-263 153l-83 272l-24 447l2 560l-116 -27v116l212 -46l237 42l-8 -112l-107 6l-48 -534l65 -417l157 -318l209 24l114 155l1 397l-36 571l-143 -19v135l236 -51l253 51l-13 -113l-107 10l-55 -395l-36 -648zM576 1561l-152 133l114 66l38 -75l56 -95z " />
<glyph unicode="&#xda;" horiz-adv-x="1077" d="M836 83l-362 -104l-263 153l-83 272l-24 447l2 560l-116 -27v116l212 -46l237 42l-8 -112l-107 6l-48 -534l65 -417l157 -318l209 24l114 155l1 397l-36 571l-143 -19v135l236 -51l253 51l-13 -113l-107 10l-55 -395l-36 -648zM532 1602l151 133l-114 66l-37 -75l-57 -95 z" />
<glyph unicode="&#xdb;" horiz-adv-x="1077" d="M836 83l-362 -104l-263 153l-83 272l-24 447l2 560l-116 -27v116l212 -46l237 42l-8 -112l-107 6l-48 -534l65 -417l157 -318l209 24l114 155l1 397l-36 571l-143 -19v135l236 -51l253 51l-13 -113l-107 10l-55 -395l-36 -648zM397 1598l88 85l59 72l108 -8l39 -57 l118 -78l-88 -28l-118 128l-69 -57l-49 -71z" />
<glyph unicode="&#xdc;" horiz-adv-x="1077" d="M836 83l-362 -104l-263 153l-83 272l-24 447l2 560l-116 -27v116l212 -46l237 42l-8 -112l-107 6l-48 -534l65 -417l157 -318l209 24l114 155l1 397l-36 571l-143 -19v135l236 -51l253 51l-13 -113l-107 10l-55 -395l-36 -648zM360 1702l-26 5l-5 122l80 -22zM329 1663 l11 -17l-77 -80l-47 54zM327 1695l-12 -23l-115 29l49 75zM348 1644l23 13l85 -61l-73 -48zM381 1678l-12 22l82 78l39 -71zM710 1700l-25 5l-5 122l80 -21zM680 1661l10 -16l-77 -81l-46 54zM678 1693l-12 -23l-115 29l49 75zM699 1642l22 13l86 -60l-74 -49zM732 1676 l-13 22l83 78l38 -71z" />
<glyph unicode="&#xdd;" horiz-adv-x="930" d="M615 696l158 403l157 353l60 12l6 50l-200 28l-13 -56l40 -2l-62 -164l-103 -208l-117 -269l-102 260l-108 221l-52 119l60 -5l-6 89l-322 -19v-63l80 -5l84 -159l265 -584l21 -248l-15 -225v-209l-56 -6l-11 -68l310 3v57l-78 8v139l4 240l16 169zM464 1580l151 133 l-114 66l-37 -76l-57 -94z" />
<glyph unicode="&#xde;" horiz-adv-x="991" d="M887 994l-156 78l-429 14l-2 215h114v114l-177 -13l-243 22l-6 -88l114 11l4 -142l30 -769v-373l-102 34l-12 -122l395 -12l-9 105l-112 -17l-1 254l285 20l271 82l147 250zM578 469l-282 -9l11 114l-4 397l368 6l157 -105l16 -225z" />
<glyph unicode="&#xdf;" horiz-adv-x="985" d="M946 247l-12 216l-130 202l-90 94l52 162l66 152l-38 257l-133 74l-306 55l-334 -30l15 -73l98 46l14 -223l6 -231l-12 -232l-4 -232l11 -199l-10 -267l-114 65l9 -125l288 -10l1 91h-2l5 188l-2 202l11 201l-25 312l2 223l-16 230l318 -46l57 -86l57 -161l-76 -190 l-104 -152l142 -133l104 -199l-45 -263l-40 -108l-123 -38l-209 67l247 -180l142 66l133 85z" />
<glyph unicode="&#xe0;" horiz-adv-x="861" d="M182 733l-28 -9l-75 221l88 35l7 -85l265 141l190 -114l85 -94l46 -482l-29 -304l85 32l-20 -103l-66 -10l-145 -4l16 179l-243 -163l-253 83l-69 188l72 243l151 142l218 56l147 -28l-68 226l-123 85l-189 -85l-72 -54zM632 474l-8 126l-166 38l-187 -92l-89 -249 l51 -139l240 44l142 165zM433 1110l-152 133l114 66l38 -76l57 -95z" />
<glyph unicode="&#xe1;" horiz-adv-x="861" d="M182 733l-28 -9l-75 221l88 35l7 -85l265 141l190 -114l85 -94l46 -482l-29 -304l85 32l-20 -103l-66 -10l-145 -4l16 179l-243 -163l-253 83l-69 188l72 243l151 142l218 56l147 -28l-68 226l-123 85l-189 -85l-72 -54zM632 474l-8 126l-166 38l-187 -92l-89 -249 l51 -139l240 44l142 165zM395 1104l151 132l-113 66l-38 -75l-57 -95z" />
<glyph unicode="&#xe2;" horiz-adv-x="861" d="M182 733l-28 -9l-75 221l88 35l7 -85l265 141l190 -114l85 -94l46 -482l-29 -304l85 32l-20 -103l-66 -10l-145 -4l16 179l-243 -163l-253 83l-69 188l72 243l151 142l218 56l147 -28l-68 226l-123 85l-189 -85l-72 -54zM632 474l-8 126l-166 38l-187 -92l-89 -249 l51 -139l240 44l142 165zM223 1117l88 86l59 71l108 -7l39 -57l117 -79l-88 -28l-117 128l-69 -57l-49 -71z" />
<glyph unicode="&#xe3;" horiz-adv-x="859" d="M182 733l-28 -9l-75 221l88 35l7 -85l265 141l190 -114l85 -94l46 -482l-29 -304l85 32l-20 -103l-66 -10l-145 -4l16 179l-243 -163l-253 83l-69 188l72 243l151 142l218 56l147 -28l-68 226l-123 85l-189 -85l-72 -54zM632 474l-8 126l-166 38l-187 -92l-89 -249 l51 -139l240 44l142 165zM188 1078l66 231l85 14l151 -150l95 27l58 134l8 -106l-57 -136l-104 -14l-122 82l-67 54z" />
<glyph unicode="&#xe4;" horiz-adv-x="861" d="M182 733l-28 -9l-75 221l88 35l7 -85l265 141l190 -114l85 -94l46 -482l-29 -304l85 32l-20 -103l-66 -10l-145 -4l16 179l-243 -163l-253 83l-69 188l72 243l151 142l218 56l147 -28l-68 226l-123 85l-189 -85l-72 -54zM632 474l-8 126l-166 38l-187 -92l-89 -249 l51 -139l240 44l142 165zM237 1235l-26 6l-5 121l80 -21zM206 1196l11 -16l-77 -81l-47 54zM204 1228l-12 -23l-115 29l49 75zM225 1177l23 13l85 -60l-73 -49zM258 1212l-12 21l82 79l38 -72zM587 1233l-25 6l-5 121l80 -21zM557 1194l10 -16l-77 -81l-47 54zM555 1226 l-12 -23l-115 29l49 75zM576 1175l22 13l85 -60l-73 -49zM609 1210l-13 21l82 79l39 -72z" />
<glyph unicode="&#xe5;" horiz-adv-x="861" d="M182 733l-28 -9l-75 221l88 35l7 -85l265 141l190 -114l85 -94l46 -482l-29 -304l85 32l-20 -103l-66 -10l-145 -4l16 179l-243 -163l-253 83l-69 188l72 243l151 142l218 56l147 -28l-68 226l-123 85l-189 -85l-72 -54zM632 474l-8 126l-166 38l-187 -92l-89 -249 l51 -139l240 44l142 165zM249 1264l103 120l155 -19l82 -138l-92 -111l-165 -18zM356 1153l120 13l67 81l-60 100l-112 14l-75 -87z" />
<glyph unicode="&#xe6;" horiz-adv-x="1402" d="M1410 456l-85 -230l-174 -107l-250 149l-49 176l-21 172l282 42l286 30l-92 291l-171 89l-179 39l-211 -147l-15 -38l-67 75l-190 114l-265 -141l-8 85l-88 -36l75 -221l28 10l-10 95l72 55l190 85l123 -86l65 -216l-3 -9l-141 28l-218 -57l-152 -143l-72 -243l69 -188 l254 -84l279 145l58 108l122 -175l316 -75l221 198l46 204zM529 257l-262 -26l-51 139l90 249l187 93l158 -36l15 -140l-16 -95zM847 831l82 137l233 -52l68 -198l-213 6l-190 -49z" />
<glyph unicode="&#xe7;" horiz-adv-x="801" d="M339 -205l30 -103l178 -11l16 123l-64 69l-85 25l-9 110l-98 16l-187 201l-54 209l13 252l78 178l138 132l182 23l181 -59l2 63l72 6l-13 -257h-39l-11 91l-79 52l-133 39l-137 -100l-66 -162l-30 -211l44 -201l228 -186l156 52l100 213l34 -10l-88 -249l-198 -108 l-3 -53l116 -42l39 -149l-86 -143l-167 -15l-98 88z" />
<glyph unicode="&#xe8;" horiz-adv-x="760" d="M257 217l249 -149l174 107l84 230l25 -6l-46 -204l-221 -198l-314 76l-123 176l-60 206l-22 211l99 241l210 147l178 -39l172 -89l91 -290l-285 -30l-281 -42l20 -171zM183 623l189 49l212 -6l-67 198l-233 52l-81 -137zM386 1110l-151 133l113 66l38 -76l57 -95z" />
<glyph unicode="&#xe9;" horiz-adv-x="760" d="M257 217l249 -149l174 107l84 230l25 -6l-46 -204l-221 -198l-314 76l-123 176l-60 206l-22 211l99 241l210 147l178 -39l172 -89l91 -290l-285 -30l-281 -42l20 -171zM183 623l189 49l212 -6l-67 198l-233 52l-81 -137zM348 1104l152 132l-114 66l-38 -75l-57 -95z" />
<glyph unicode="&#xea;" horiz-adv-x="760" d="M257 217l249 -149l174 107l84 230l25 -6l-46 -204l-221 -198l-314 76l-123 176l-60 206l-22 211l99 241l210 147l178 -39l172 -89l91 -290l-285 -30l-281 -42l20 -171zM183 623l189 49l212 -6l-67 198l-233 52l-81 -137zM176 1117l88 86l59 71l108 -7l39 -57l118 -79 l-88 -28l-118 128l-69 -57l-49 -71z" />
<glyph unicode="&#xeb;" horiz-adv-x="761" d="M257 217l249 -149l174 107l84 230l25 -6l-46 -204l-221 -198l-314 76l-123 176l-60 206l-22 211l99 241l210 147l178 -39l172 -89l91 -290l-285 -30l-281 -42l20 -171zM183 623l189 49l212 -6l-67 198l-233 52l-81 -137zM183 1283l-25 6l-6 121l81 -21zM152 1244l11 -16 l-77 -81l-47 55zM150 1276l-11 -22l-116 28l50 76zM171 1226l23 12l85 -60l-73 -49zM204 1260l-12 21l82 79l39 -71zM534 1281l-26 6l-5 121l80 -21zM503 1242l11 -16l-77 -81l-47 55zM501 1274l-12 -22l-115 28l49 76zM522 1224l23 12l85 -60l-74 -49zM555 1258l-12 21 l82 79l38 -71z" />
<glyph unicode="&#xec;" horiz-adv-x="434" d="M56 1034l281 16l-34 -367l10 -614l93 38l2 -101l-348 -4l2 92l90 -38l21 475l-30 445l-87 -34v92zM237 1110l-152 132l114 67l38 -76l56 -95z" />
<glyph unicode="&#xed;" horiz-adv-x="434" d="M56 1034l281 16l-34 -367l10 -614l93 38l2 -101l-348 -4l2 92l90 -38l21 475l-30 445l-87 -34v92zM212 1091l151 133l-113 66l-38 -76l-57 -94z" />
<glyph unicode="&#xee;" horiz-adv-x="465" d="M87 1034l281 16l-34 -367l10 -614l93 38l2 -101l-348 -4l2 92l90 -38l21 475l-30 445l-87 -34v92zM25 1134l88 85l59 72l107 -8l40 -57l117 -78l-88 -28l-118 128l-68 -57l-49 -71z" />
<glyph unicode="&#xef;" horiz-adv-x="529" d="M116 1034l281 16l-34 -367l10 -614l93 38l2 -101l-348 -4l2 92l91 -38l20 475l-30 445l-87 -34v92zM87 1254l-26 5l-5 122l80 -22zM56 1215l11 -17l-77 -80l-47 54zM54 1247l-12 -23l-115 29l49 75zM75 1196l23 13l85 -61l-73 -48zM108 1230l-12 22l82 78l38 -71z M437 1252l-25 5l-5 122l80 -22zM407 1213l10 -16l-77 -81l-47 54zM405 1245l-12 -23l-115 29l49 75zM426 1194l22 13l86 -60l-74 -49zM459 1228l-13 22l83 78l38 -71z" />
<glyph unicode="&#xf0;" horiz-adv-x="908" d="M852 470l-10 -280l-169 -228l-279 -78l-258 149l-96 314l18 217l48 215l139 172l203 55l193 -84l77 -83l-88 298l-194 207l-212 -130l-10 -59l-30 -1l-53 247l71 6l7 -126l187 141l264 -123l95 -172l67 -214l46 -196zM717 764l-112 116l-212 17l-123 -176l-67 -207 l22 -218l93 -275l195 -37l178 155l38 303zM514 1213l265 177l88 -101l-214 -101l-430 -215l-12 114z" />
<glyph unicode="&#xf1;" horiz-adv-x="984" d="M48 1011l272 26l16 -132l221 132l210 -113l65 -201l20 -329l-2 -412l93 19v-85l-167 43l-191 -40l6 82l85 -4l39 394l-52 306l-125 235l-199 -95l-13 -329l28 -421l114 14v-100h-389l10 84l85 -8l44 292l-41 399v174l-141 -11zM244 1129l66 231l85 13l151 -149l94 27 l59 133l8 -106l-57 -136l-104 -13l-123 81l-66 55z" />
<glyph unicode="&#xf2;" horiz-adv-x="726" d="M391 1033l240 -92l105 -235l15 -259l-59 -222l-127 -186l-125 -52h-177l-145 85l-108 231l-11 255l61 221l116 198zM169 541l-3 -196l34 -192l143 -130l188 183l48 258l7 204l-48 196l-143 125l-183 -182zM393 1110l-151 133l114 66l37 -76l57 -95z" />
<glyph unicode="&#xf3;" horiz-adv-x="727" d="M392 1033l240 -92l105 -235l15 -259l-59 -222l-127 -186l-125 -52h-177l-144 85l-109 231l-11 255l61 221l116 198zM170 541l-3 -196l34 -192l143 -130l188 183l48 258l7 204l-48 196l-142 125l-184 -182zM356 1104l152 132l-114 66l-38 -75l-57 -95z" />
<glyph unicode="&#xf4;" horiz-adv-x="727" d="M392 1033l240 -92l105 -235l15 -259l-59 -222l-127 -186l-125 -52h-177l-144 85l-109 231l-11 255l61 221l116 198zM170 541l-3 -196l34 -192l143 -130l188 183l48 258l7 204l-48 196l-142 125l-184 -182zM184 1117l89 86l58 71l108 -7l39 -57l118 -79l-88 -28l-118 128 l-68 -57l-49 -71z" />
<glyph unicode="&#xf5;" horiz-adv-x="726" d="M391 1033l240 -92l105 -235l15 -259l-59 -222l-127 -186l-125 -52h-177l-145 85l-108 231l-11 255l61 221l116 198zM169 541l-3 -196l34 -192l143 -130l188 183l48 258l7 204l-48 196l-143 125l-183 -182zM155 1090l66 231l85 14l151 -150l94 27l59 134l7 -107l-56 -136 l-104 -13l-123 81l-66 55z" />
<glyph unicode="&#xf6;" horiz-adv-x="829" d="M431 1033l240 -92l105 -235l14 -259l-58 -222l-127 -186l-125 -52h-177l-145 85l-108 231l-11 255l61 221l115 198zM209 541l-4 -196l35 -192l143 -130l188 183l48 258l6 204l-47 196l-143 125l-183 -182zM274 1240l-25 6l-5 121l80 -21zM244 1201l10 -16l-77 -81l-46 55 zM242 1233l-12 -22l-115 28l49 75zM263 1183l22 12l86 -60l-74 -49zM296 1217l-13 21l83 79l38 -71zM625 1238l-25 6l-6 121l81 -21zM594 1199l11 -16l-77 -81l-47 55zM592 1231l-11 -22l-116 28l50 76zM613 1181l23 12l85 -60l-73 -49zM646 1215l-12 21l82 79l39 -71z" />
<glyph unicode="&#xf7;" horiz-adv-x="768" d="M116 737l327 -26l354 57l7 -143l-680 -11zM334 1043l229 10l-10 -198h-115l-83 -15zM354 481l229 11l-10 -198h-115l-83 -15z" />
<glyph unicode="&#xf8;" horiz-adv-x="845" d="M726 836l7 9l95 181l-85 28l-70 -97l-16 35l-240 91l-215 -56l-116 -197l-61 -222l11 -254l87 -184l-92 -141l104 -10l54 78l100 -59h177l125 52l127 186l59 221l-15 259zM192 395l3 196l43 266l184 183l142 -125l20 -82l-107 -149l-162 -218l-106 -164zM557 256 l-188 -182l-121 109l143 207l152 190l67 93l-5 -158z" />
<glyph unicode="&#xf9;" horiz-adv-x="1016" d="M968 25l-307 -27l-17 131l-220 -131l-209 113l-65 200l-20 327l2 411l-92 -19v85l168 -35l188 32l-6 -82l-85 4l-38 -392l51 -306l125 -233l199 94l13 328l-29 420l-113 -15v100l187 -38l201 38l-10 -83l-85 7l-44 -290l41 -397v-174l165 -5v-63zM513 1139l-151 132 l114 67l37 -76l57 -95z" />
<glyph unicode="&#xfa;" horiz-adv-x="1016" d="M968 25l-307 -27l-17 131l-220 -131l-209 113l-65 200l-20 327l2 411l-92 -19v85l168 -35l188 32l-6 -82l-85 4l-38 -392l51 -306l125 -233l199 94l13 328l-29 420l-113 -15v100l187 -38l201 38l-10 -83l-85 7l-44 -290l41 -397v-174l165 -5v-63zM477 1148l151 133 l-113 66l-38 -76l-57 -94z" />
<glyph unicode="&#xfb;" horiz-adv-x="1016" d="M968 25l-307 -27l-17 131l-220 -131l-209 113l-65 200l-20 327l2 411l-92 -19v85l168 -35l188 32l-6 -82l-85 4l-38 -392l51 -306l125 -233l199 94l13 328l-29 420l-113 -15v100l187 -38l201 38l-10 -83l-85 7l-44 -290l41 -397v-174l165 -5v-63zM315 1181l89 86l58 71 l108 -7l39 -57l118 -79l-88 -28l-118 128l-68 -57l-49 -71z" />
<glyph unicode="&#xfc;" horiz-adv-x="1016" d="M968 25l-307 -27l-17 131l-220 -131l-209 113l-65 200l-20 327l2 411l-92 -19v85l168 -35l188 32l-6 -82l-85 4l-38 -392l51 -306l125 -233l199 94l13 328l-29 420l-113 -15v100l187 -38l201 38l-10 -83l-85 7l-44 -290l41 -397v-174l165 -5v-63zM323 1342l-25 6l-6 121 l81 -21zM292 1303l11 -16l-77 -81l-47 55zM290 1335l-11 -22l-116 28l50 76zM311 1285l23 12l85 -60l-73 -49zM344 1319l-12 21l82 79l39 -71zM674 1340l-26 6l-5 121l80 -21zM643 1301l11 -16l-78 -81l-46 55zM641 1333l-12 -22l-115 28l49 76zM662 1283l22 13l86 -61 l-74 -49zM695 1317l-13 21l83 79l38 -71z" />
<glyph unicode="&#xfd;" horiz-adv-x="999" d="M304 -348l15 31l339 -46l123 215l-15 243l-77 -95l-354 -30l-185 230l-30 478l16 164l-20 94l-78 -28l-6 75l185 -27l171 19l-3 -80l-75 11l-19 -98l6 -130l69 -580l307 -17l105 129l13 526l-30 258l-114 -28l-6 101l169 -46l154 62l20 -87l-72 15l23 -441l-20 -385 l3 -353l-60 -133l-169 -139zM335 -471l-108 47l77 215h46zM481 1124l152 133l-114 66l-38 -76l-57 -94z" />
<glyph unicode="&#xfe;" horiz-adv-x="781" d="M-18 1405l271 9l-21 -224l3 -276l166 53l255 -87l112 -160l13 -198l6 -183l-54 -170l-118 -148l-186 -43l-188 -3l-12 -316l113 38v-114h-360v101l95 -38v215l13 202l-10 219l21 523l-28 363l16 183l-99 -14zM265 28l109 19l246 145l-12 286l9 255l-193 166l-181 -48 l1 -272l-23 -197z" />
<glyph unicode="&#xff;" horiz-adv-x="999" d="M304 -348l15 31l339 -46l123 215l-15 243l-77 -95l-354 -30l-185 230l-30 478l16 164l-20 94l-78 -28l-6 75l185 -27l171 19l-3 -80l-75 11l-19 -98l6 -130l69 -580l307 -17l105 129l13 526l-30 258l-114 -28l-6 101l169 -46l154 62l20 -87l-72 15l23 -441l-20 -385 l3 -353l-60 -133l-169 -139zM335 -471l-108 47l77 215h46zM337 1265l-25 5l-5 121l80 -21zM307 1225l10 -16l-77 -80l-47 54zM305 1257l-12 -22l-115 28l49 76zM326 1207l22 13l85 -61l-73 -49zM359 1241l-13 21l82 79l39 -71zM688 1263l-26 5l-5 122l80 -22zM657 1224 l11 -17l-77 -80l-47 54zM655 1255l-11 -22l-116 28l50 76zM676 1205l23 13l85 -61l-73 -49zM709 1239l-12 21l82 79l39 -71z" />
<glyph unicode="&#x152;" horiz-adv-x="1506" d="M1416 470h-38l-100 -261l-131 -110l-210 -9l7 7l-5 186l-9 223l31 224l142 -7l175 -12l-8 92l-316 1l-14 161l4 59l-14 214l17 212l195 -3l156 -137l71 -277l51 4l-1 238l4 243l-513 -4l-132 21v-104l-238 90l-224 -104l-109 -294l-49 -323l30 -362l131 -317l159 -106 l120 -18l189 86l10 -67l377 21l259 -2l-2 202zM400 245l-51 270l-9 280l26 384l178 254l164 -136l47 -205l1 -109l-21 -231l17 -217l-44 -329l-148 -130z" />
<glyph unicode="&#x153;" horiz-adv-x="1397" d="M1401 370l-109 -220l-185 -88l-232 176l-30 180l-1 49l3 14l-4 28l-1 82l285 12l287 -2l-59 300l-162 107l-173 58l-225 -124l-43 -80l-56 105l-245 77l-211 -70l-103 -204l-47 -225l27 -254l123 -223l149 -76l177 11l122 60l74 125l48 -89l306 -109l241 173l68 199z M881 803l96 128l227 -77l45 -204l-210 28l-194 -28zM467 33l-151 120l-47 190l-8 196l26 268l171 193l151 -115l59 -194l2 -55l-1 -136l4 -22l-30 -251z" />
<glyph unicode="&#x178;" horiz-adv-x="930" d="M615 696l158 403l157 353l60 12l6 50l-208 20l-13 -57l40 -1l-54 -156l-96 -215l-124 -262l-102 260l-108 221l-52 119l60 -5l-6 89l-322 -19v-63l80 -5l84 -159l265 -584l21 -248l-15 -225v-209l-56 -6l-11 -68l310 3v57l-78 8v139l4 240l16 169zM378 1704l-26 6l-5 121 l80 -21zM347 1665l11 -16l-77 -81l-47 55zM345 1697l-12 -22l-115 28l49 76zM366 1647l23 12l85 -60l-73 -49zM399 1681l-12 21l82 79l38 -71zM728 1702l-25 6l-5 121l80 -21zM698 1663l10 -16l-77 -81l-47 55zM696 1695l-12 -22l-115 28l49 76zM717 1645l22 13l85 -61 l-73 -49zM750 1679l-13 21l82 79l39 -71z" />
<glyph unicode="&#x2c6;" horiz-adv-x="420" d="M450 1344l-88 85l-59 71l-108 -7l-39 -57l-118 -78l89 -29l117 129l69 -57l49 -72z" />
<glyph unicode="&#x2dc;" horiz-adv-x="602" d="M59 1189l66 231l85 14l151 -150l94 28l59 133l8 -106l-57 -136l-104 -14l-123 82l-66 54z" />
<glyph unicode="&#x2000;" horiz-adv-x="928" />
<glyph unicode="&#x2001;" horiz-adv-x="1857" />
<glyph unicode="&#x2002;" horiz-adv-x="928" />
<glyph unicode="&#x2003;" horiz-adv-x="1857" />
<glyph unicode="&#x2004;" horiz-adv-x="619" />
<glyph unicode="&#x2005;" horiz-adv-x="464" />
<glyph unicode="&#x2006;" horiz-adv-x="309" />
<glyph unicode="&#x2007;" horiz-adv-x="309" />
<glyph unicode="&#x2008;" horiz-adv-x="232" />
<glyph unicode="&#x2009;" horiz-adv-x="371" />
<glyph unicode="&#x200a;" horiz-adv-x="103" />
<glyph unicode="&#x2010;" horiz-adv-x="768" d="M116 737l327 -26l354 57l7 -143l-680 -11z" />
<glyph unicode="&#x2011;" horiz-adv-x="768" d="M116 737l327 -26l354 57l7 -143l-680 -11z" />
<glyph unicode="&#x2012;" horiz-adv-x="768" d="M116 737l327 -26l354 57l7 -143l-680 -11z" />
<glyph unicode="&#x2013;" horiz-adv-x="839" d="M79 737l326 -26l464 39l6 -142l-789 6z" />
<glyph unicode="&#x2014;" horiz-adv-x="932" d="M58 737l437 -35l467 48l7 -142l-903 6z" />
<glyph unicode="&#x2018;" horiz-adv-x="321" d="M252 1295l-244 -11l9 197l176 203l45 -20l-98 -183l89 -10z" />
<glyph unicode="&#x2019;" horiz-adv-x="306" d="M10 1550l244 -1l-19 -197l-181 -196l-43 23l101 179l-89 15z" />
<glyph unicode="&#x201a;" horiz-adv-x="350" d="M62 178l244 11l-9 -197l-212 -199l-45 20l134 179l-90 10z" />
<glyph unicode="&#x201c;" horiz-adv-x="683" d="M293 1295l-244 -11l9 197l179 189l45 -21l-101 -168l89 -10zM609 1323l-244 -12l9 198l179 189l45 -21l-101 -168l90 -10z" />
<glyph unicode="&#x201d;" horiz-adv-x="652" d="M358 1561l244 -1l-19 -197l-182 -194l-43 23l102 178l-89 15zM40 1550l245 -1l-20 -197l-181 -194l-44 23l102 177l-88 15z" />
<glyph unicode="&#x201e;" horiz-adv-x="694" d="M56 178l244 11l-9 -197l-181 -210l-45 21l103 189l-89 10zM389 196l244 11l-9 -198l-181 -209l-45 21l103 188l-89 11z" />
<glyph unicode="&#x2022;" horiz-adv-x="606" d="M365 726l-54 21l26 289l168 -77zM286 643l19 -42l-193 -165l-85 144zM291 719l-32 -49l-242 105l130 163zM322 593l53 23l167 -172l-174 -92zM405 663l-21 54l203 159l62 -181z" />
<glyph unicode="&#x2026;" horiz-adv-x="1035" d="M42 191l211 10l-10 -182h-105l-77 -15zM400 198l212 9l-10 -182h-106l-76 -14zM764 200l214 1l-12 -174h-106l-77 -15z" />
<glyph unicode="&#x202f;" horiz-adv-x="371" />
<glyph unicode="&#x2039;" horiz-adv-x="596" d="M197 697l-141 -135l133 -243l105 -199l206 -263l12 225l-253 432l171 236l134 149l3 235l-253 -233z" />
<glyph unicode="&#x203a;" horiz-adv-x="567" d="M458 697l140 -134l-132 -243l-105 -199l-207 -263l-11 225l253 432l-172 236l-133 149l-3 235l252 -233z" />
<glyph unicode="&#x205f;" horiz-adv-x="464" />
<glyph unicode="&#x2122;" horiz-adv-x="897" d="M423 1523h-115l1 -1l-262 1l-12 -150h18l40 97l68 34v3l34 -2l-2 -110l6 -110l3 -109h-25l-4 -21l140 6l2 15h-36l-14 219l-1 109l108 -36l41 -97h28zM835 1494l39 25l-32 4l-79 -9l-21 -46l-24 -49l-12 -50l-25 -48l-18 -45l-14 47l-22 50l-25 49l-17 51l-19 48l-81 -1 l-37 3l38 -19l-3 -54l5 -55l3 -54l-5 -54l7 -54v-55l-43 2l6 -18l63 -6l65 -3l5 25l-30 1l-5 56l-1 55l1 55v55l3 57l25 -55l16 -55l23 -53l20 -50l19 -28l19 25l30 53l20 55l27 52l18 58v-59l-6 -56l4 -56l-6 -55l8 -56l-39 4l6 -19l63 -6l64 -1l-2 19l-19 3l-2 52l1 53 l-5 53l4 53l-3 53z" />
<glyph unicode="&#xe000;" horiz-adv-x="1065" d="M0 1065h1065v-1065h-1065v1065z" />
</font>
</defs>
</svg>
