<?xml version="1.0" standalone="no"?>
<!DOCTYPE svg PUBLIC "-//W3C//DTD SVG 1.1//EN" "http://www.w3.org/Graphics/SVG/1.1/DTD/svg11.dtd" >
<svg xmlns="http://www.w3.org/2000/svg">
<metadata></metadata>
<defs>
<font id="orbitronregular" horiz-adv-x="828" >
<font-face units-per-em="1000" ascent="750" descent="-250" />
<missing-glyph horiz-adv-x="290" />
<glyph horiz-adv-x="1000" />
<glyph horiz-adv-x="1000" />
<glyph unicode="&#xd;" horiz-adv-x="1000" />
<glyph unicode=" "  horiz-adv-x="290" />
<glyph unicode="&#x09;" horiz-adv-x="290" />
<glyph unicode="&#xa0;" horiz-adv-x="290" />
<glyph unicode="!" horiz-adv-x="220" d="M58 0v108h108v-108h-108zM58 200v520h108v-520h-108z" />
<glyph unicode="&#x22;" horiz-adv-x="372" d="M59 557v162h108v-162h-108zM206 557v162h108v-162h-108z" />
<glyph unicode="#" horiz-adv-x="797" d="M32 164v108h125l58 178h-152v108h186l54 159h108l-54 -159h215l54 159h108l-54 -159h85v-108h-119l-58 -178h146v-108h-180l-50 -164h-108l50 164h-215l-50 -164h-108l50 164h-91zM265 272h215l58 178h-215z" />
<glyph unicode="$" horiz-adv-x="788" d="M34 130v42h108v-42q0 -9 6.5 -15.5t15.5 -6.5h176v198h-176q-54 0 -92 38t-38 92v154q0 54 38 92t92 38h176v108h108v-108h176q54 0 92 -38t38 -92v-42h-108v42q0 9 -6.5 15.5t-15.5 6.5h-176v-198h176q54 0 92 -38t38 -92v-154q0 -54 -38 -92t-92 -38h-176v-108h-108 v108h-176q-54 0 -92 38t-38 92zM142 436q0 -9 6.5 -15.5t15.5 -6.5h176v198h-176q-9 0 -15.5 -6.5t-6.5 -15.5v-154zM448 108h176q9 0 15.5 6.5t6.5 15.5v154q0 9 -6.5 15.5t-15.5 6.5h-176v-198z" />
<glyph unicode="%" horiz-adv-x="966" d="M48 510v80q0 54 38 92t92 38h90q54 0 92 -38t38 -92v-80q0 -54 -38 -92t-92 -38h-90q-54 0 -92 38t-38 92zM132 0v128l705 592h15v-128l-705 -592h-15zM136 490q0 -9 6.5 -15.5t15.5 -6.5h130q9 0 15.5 6.5t6.5 15.5v120q0 9 -6.5 15.5t-15.5 6.5h-130q-9 0 -15.5 -6.5 t-6.5 -15.5v-120zM566 129v80q0 54 38 92t92 38h90q54 0 92 -38t38 -92v-80q0 -54 -38 -92t-92 -38h-90q-54 0 -92 38t-38 92zM654 109q0 -9 6.5 -15.5t15.5 -6.5h130q9 0 15.5 6.5t6.5 15.5v120q0 9 -6.5 15.5t-15.5 6.5h-130q-9 0 -15.5 -6.5t-6.5 -15.5v-120z" />
<glyph unicode="&#x26;" horiz-adv-x="938" d="M53 130v204q0 25 18 50.5t47 25.5q-25 19 -25 76v104q0 54 38 92t92 38h390q48 0 85 -31t45 -77v-71h-108v48q0 9 -6.5 15.5t-15.5 6.5h-390q-9 0 -15.5 -6.5t-6.5 -15.5v-132l464 -234v123h108v-165l127 -74v-104l-137 78q-14 -36 -46.5 -58.5t-73.5 -22.5h-460 q-54 0 -92 38t-38 92zM161 130q0 -9 6.5 -15.5t15.5 -6.5h460q14 0 19 12l-468 236h-11q-9 0 -15.5 -6.5t-6.5 -15.5v-204z" />
<glyph unicode="'" horiz-adv-x="224" d="M59 557v162h108v-162h-108z" />
<glyph unicode="(" horiz-adv-x="277" d="M52 130v460q0 54 38 92t92 38h42v-108h-42q-9 0 -15.5 -6.5t-6.5 -15.5v-460q0 -9 6.5 -15.5t15.5 -6.5h42v-108h-42q-54 0 -92 38t-38 92z" />
<glyph unicode=")" horiz-adv-x="278" d="M56 0v108h42q9 0 15.5 6.5t6.5 15.5v460q0 9 -6.5 15.5t-15.5 6.5h-42v108h42q53 0 91.5 -38t38.5 -92v-460q0 -54 -38.5 -92t-91.5 -38h-42z" />
<glyph unicode="*" horiz-adv-x="491" d="M25 520l33 103l133 -44v140h108v-140l133 44l34 -103l-133 -43l82 -114l-87 -63l-83 113l-82 -113l-87 63l82 114z" />
<glyph unicode="+" horiz-adv-x="433" d="M17 242v108h144v145h108v-145h148v-108h-148v-147h-108v147h-144z" />
<glyph unicode="," horiz-adv-x="193" d="M54 108h108v-108q0 -48 -31 -84t-77 -44v236z" />
<glyph unicode="-" horiz-adv-x="517" d="M59 242v108h400v-108h-400z" />
<glyph unicode="." horiz-adv-x="214" d="M54 0v108h108v-108h-108z" />
<glyph unicode="/" horiz-adv-x="521" d="M6 0v128l495 592h15v-128l-495 -592h-15z" />
<glyph unicode="0" horiz-adv-x="834" d="M57 130v460q0 54 38 92t92 38h460q54 0 92 -38t38 -92v-460q0 -54 -38 -92t-92 -38h-460q-54 0 -92 38t-38 92zM165 219l468 393h-446q-9 0 -15.5 -6.5t-6.5 -15.5v-371zM201 108h446q9 0 15.5 6.5t6.5 15.5v371z" />
<glyph unicode="1" horiz-adv-x="391" d="M1 477l203 243h129v-720h-108v576l-83 -99h-141z" />
<glyph unicode="2" horiz-adv-x="830" d="M57 0v274q0 54 38 92t92 38h460q9 0 15.5 6.5t6.5 15.5v164q0 9 -6.5 15.5t-15.5 6.5h-460q-9 0 -15.5 -6.5t-6.5 -15.5v-42h-108v42q0 54 38 92t92 38h460q54 0 92 -38t38 -92v-164q0 -54 -38 -92t-92 -38h-460q-9 0 -15.5 -6.5t-6.5 -15.5v-144q0 -9 6.5 -15.5 t15.5 -6.5h590v-108h-720z" />
<glyph unicode="3" horiz-adv-x="826" d="M53 130v30h108v-30q0 -9 6.5 -15.5t15.5 -6.5h460q9 0 15.5 6.5t6.5 15.5v161q0 9 -6.5 15.5t-15.5 6.5h-460v108h430q9 0 15.5 6.5t6.5 15.5v147q0 9 -6.5 15.5t-15.5 6.5h-430q-9 0 -15.5 -6.5t-6.5 -15.5v-40h-108v40q0 54 38 92t92 38h430q54 0 92 -38t38 -92v-147 q0 -28 -13 -56q43 -38 43 -96v-161q0 -54 -38 -92t-92 -38h-460q-54 0 -92 38t-38 92z" />
<glyph unicode="4" horiz-adv-x="730" d="M6 183v108l476 429h108v-429h106v-108h-106v-183h-108v183h-476zM163 291h319v259z" />
<glyph unicode="5" horiz-adv-x="830" d="M57 130v42h108v-42q0 -9 6.5 -15.5t15.5 -6.5h460q9 0 15.5 6.5t6.5 15.5v164q0 9 -6.5 15.5t-15.5 6.5h-590v108h2q-2 14 -2 22v274h720v-108h-590q-9 0 -15.5 -6.5t-6.5 -15.5v-144q0 -9 6.5 -15.5t15.5 -6.5h460q54 0 92 -38t38 -92v-164q0 -54 -38 -92t-92 -38h-460 q-54 0 -92 38t-38 92z" />
<glyph unicode="6" horiz-adv-x="820" d="M57 130v460q0 54 38 92t92 38h470v-108h-470q-9 0 -15.5 -6.5t-6.5 -15.5v-144q0 -9 6.5 -15.5t15.5 -6.5h460q54 0 92 -38t38 -92v-164q0 -54 -38 -92t-92 -38h-460q-54 0 -92 38t-38 92zM165 130q0 -9 6.5 -15.5t15.5 -6.5h460q9 0 15.5 6.5t6.5 15.5v164 q0 9 -6.5 15.5t-15.5 6.5h-482v-186z" />
<glyph unicode="7" horiz-adv-x="660" d="M3 612v108h470q54 0 92 -38t38 -92v-590h-108v590q0 9 -6.5 15.5t-15.5 6.5h-470z" />
<glyph unicode="8" horiz-adv-x="834" d="M57 130v164q0 43 25 76q-25 33 -25 76v144q0 54 38 92t92 38h460q48 0 85 -31t45 -77v-166q0 -43 -25 -76q25 -33 25 -76v-164q0 -54 -38 -92t-92 -38h-460q-54 0 -92 38t-38 92zM165 130q0 -9 6.5 -15.5t15.5 -6.5h460q9 0 15.5 6.5t6.5 15.5v164q0 9 -6.5 15.5 t-15.5 6.5h-460q-9 0 -15.5 -6.5t-6.5 -15.5v-164zM165 435q0 -9 6.5 -15.5t15.5 -6.5h460q9 0 15.5 6.5t6.5 15.5v154q0 9 -6.5 15.5t-15.5 6.5h-460q-9 0 -15.5 -6.5t-6.5 -15.5v-154z" />
<glyph unicode="9" d="M51 426v164q0 54 38 92t92 38h460q54 0 92 -38t38 -92v-460q0 -54 -38 -92t-92 -38h-460q-48 0 -84 31t-44 77h588q9 0 15.5 6.5t6.5 15.5v144q0 9 -6.5 15.5t-15.5 6.5h-460q-54 0 -92 38t-38 92zM159 426q0 -9 6.5 -15.5t15.5 -6.5h482v186q0 9 -6.5 15.5t-15.5 6.5 h-460q-9 0 -15.5 -6.5t-6.5 -15.5v-164z" />
<glyph unicode=":" horiz-adv-x="214" d="M54 0v108h108v-108h-108zM54 480v108h108v-108h-108z" />
<glyph unicode=";" horiz-adv-x="193" d="M51 108h108v-108q0 -48 -31 -84t-77 -44v236zM51 480v108h108v-108h-108z" />
<glyph unicode="&#x3c;" horiz-adv-x="473" d="M5 242v108l411 237v-125l-289 -166l289 -167v-125z" />
<glyph unicode="=" horiz-adv-x="638" d="M59 143v108h520v-108h-520zM59 333v108h520v-108h-520z" />
<glyph unicode="&#x3e;" horiz-adv-x="475" d="M59 2v125l289 167l-289 166v125l411 -237v-108z" />
<glyph unicode="?" horiz-adv-x="678" d="M31 612v108h497q54 0 92 -38t38 -92v-184q0 -54 -38 -92t-92 -38h-259q-9 0 -15.5 -6.5t-6.5 -15.5v-55h-108v55q0 54 38 92t92 38h259q9 0 15.5 6.5t6.5 15.5v184q0 9 -6.5 15.5t-15.5 6.5h-497zM139 0v108h108v-108h-108z" />
<glyph unicode="@" horiz-adv-x="831" d="M57 130v460q0 54 38 92t92 38h460q54 0 92 -38t38 -92v-400h-405q-54 0 -92 38t-38 92v80q0 54 38 92t92 38h90q54 0 92 -38t38 -92v-122h77v312q0 9 -6.5 15.5t-15.5 6.5h-460q-9 0 -15.5 -6.5t-6.5 -15.5v-460q0 -9 6.5 -15.5t15.5 -6.5h590v-108h-590q-54 0 -92 38 t-38 92zM330 300q0 -9 6.5 -15.5t15.5 -6.5h152v142q0 9 -6.5 15.5t-15.5 6.5h-130q-9 0 -15.5 -6.5t-6.5 -15.5v-120z" />
<glyph unicode="A" horiz-adv-x="836" d="M58 0v590q0 54 38 92t92 38h460q54 0 92 -38t38 -92v-590h-108v252h-504v-252h-108zM166 360h504v230q0 9 -6.5 15.5t-15.5 6.5h-460q-9 0 -15.5 -6.5t-6.5 -15.5v-230z" />
<glyph unicode="B" horiz-adv-x="832" d="M59 0v720h560q54 0 92 -38t38 -92v-147q0 -28 -13 -56q43 -38 43 -96v-161q0 -54 -38 -92t-92 -38h-590zM167 130q0 -9 6.5 -15.5t15.5 -6.5h460q9 0 15.5 6.5t6.5 15.5v161q0 9 -6.5 15.5t-15.5 6.5h-460q-9 0 -15.5 -6.5t-6.5 -15.5v-161zM167 443q0 -9 6.5 -15.5 t15.5 -6.5h430q9 0 15.5 6.5t6.5 15.5v147q0 9 -6.5 15.5t-15.5 6.5h-430q-9 0 -15.5 -6.5t-6.5 -15.5v-147z" />
<glyph unicode="C" horiz-adv-x="822" d="M56 130v460q0 54 38 92t92 38h588v-108h-588q-9 0 -15.5 -6.5t-6.5 -15.5v-460q0 -9 6.5 -15.5t15.5 -6.5h588v-108h-588q-54 0 -92 38t-38 92z" />
<glyph unicode="D" horiz-adv-x="834" d="M58 0v720h590q54 0 92 -38t38 -92v-460q0 -54 -38 -92t-92 -38h-590zM166 130q0 -9 6.5 -15.5t15.5 -6.5h460q9 0 15.5 6.5t6.5 15.5v460q0 9 -6.5 15.5t-15.5 6.5h-460q-9 0 -15.5 -6.5t-6.5 -15.5v-460z" />
<glyph unicode="E" horiz-adv-x="766" d="M58 0v720h660v-108h-552v-198h444v-108h-444v-198h552v-108h-660z" />
<glyph unicode="F" horiz-adv-x="723" d="M58 0v720h660v-108h-552v-198h444v-108h-444v-306h-108z" />
<glyph unicode="G" horiz-adv-x="830" d="M56 130v460q0 54 38 92t92 38h460q54 0 92 -38t38 -92v-43h-108v43q0 9 -6.5 15.5t-15.5 6.5h-460q-9 0 -15.5 -6.5t-6.5 -15.5v-460q0 -9 6.5 -15.5t15.5 -6.5h460q9 0 15.5 6.5t6.5 15.5v156h-170v108h278v-264q0 -54 -38 -92t-92 -38h-460q-54 0 -92 38t-38 92z" />
<glyph unicode="H" horiz-adv-x="851" d="M57 0v720h108v-306h521v306h108v-720h-108v306h-521v-306h-108z" />
<glyph unicode="I" horiz-adv-x="220" d="M57 0v720h108v-720h-108z" />
<glyph unicode="J" horiz-adv-x="780" d="M4 130v70h108v-70q0 -9 6.5 -15.5t15.5 -6.5h460q9 0 15.5 6.5t6.5 15.5v590h108v-590q0 -54 -38 -92t-92 -38h-460q-54 0 -92 38t-38 92z" />
<glyph unicode="K" horiz-adv-x="797" d="M57 0v720h108v-306h200l257 306h128v-15l-289 -345l289 -345v-15h-128l-257 306h-200v-306h-108z" />
<glyph unicode="L" horiz-adv-x="779" d="M57 0v721h108v-613h612v-108h-720z" />
<glyph unicode="M" horiz-adv-x="928" d="M56 0v720h128l280 -333l279 333h129v-720h-108v576l-300 -357l-300 357v-576h-108z" />
<glyph unicode="N" horiz-adv-x="832" d="M56 0v720h128l484 -576v576h108v-720h-128l-484 576v-576h-108z" />
<glyph unicode="O" d="M54 130v460q0 54 38 92t92 38h460q54 0 92 -38t38 -92v-460q0 -54 -38 -92t-92 -38h-460q-54 0 -92 38t-38 92zM162 130q0 -9 6.5 -15.5t15.5 -6.5h460q9 0 15.5 6.5t6.5 15.5v460q0 9 -6.5 15.5t-15.5 6.5h-460q-9 0 -15.5 -6.5t-6.5 -15.5v-460z" />
<glyph unicode="P" horiz-adv-x="791" d="M56 0v719h590q54 0 92 -38.5t38 -91.5v-202q0 -53 -38 -91.5t-92 -38.5h-460q-8 0 -22 2v-259h-108zM164 387q0 -9 6.5 -15.5t15.5 -6.5h460q9 0 15.5 6.5t6.5 15.5v202q0 9 -6.5 15.5t-15.5 6.5h-460q-9 0 -15.5 -6.5t-6.5 -15.5v-202z" />
<glyph unicode="Q" horiz-adv-x="884" d="M54 130v460q0 54 38 92t92 38h460q54 0 92 -38t38 -92v-460q0 -8 -2 -22h92v-108h-680q-54 0 -92 38t-38 92zM162 130q0 -9 6.5 -15.5t15.5 -6.5h460q9 0 15.5 6.5t6.5 15.5v460q0 9 -6.5 15.5t-15.5 6.5h-460q-9 0 -15.5 -6.5t-6.5 -15.5v-460z" />
<glyph unicode="R" horiz-adv-x="825" d="M55 0v719h590q54 0 92 -38.5t38 -91.5v-202q0 -53 -38 -91.5t-92 -38.5h-73l203 -242v-15h-128l-216 257h-246q-8 0 -22 2v-259h-108zM163 387q0 -9 6.5 -15.5t15.5 -6.5h460q9 0 15.5 6.5t6.5 15.5v202q0 9 -6.5 15.5t-15.5 6.5h-460q-9 0 -15.5 -6.5t-6.5 -15.5v-202z " />
<glyph unicode="S" horiz-adv-x="822" d="M51 130v42h108v-42q0 -9 6.5 -15.5t15.5 -6.5h460q9 0 15.5 6.5t6.5 15.5v154q0 9 -6.5 15.5t-15.5 6.5h-460q-54 0 -92 38t-38 92v154q0 54 38 92t92 38h460q54 0 92 -38t38 -92v-42h-108v42q0 9 -6.5 15.5t-15.5 6.5h-460q-9 0 -15.5 -6.5t-6.5 -15.5v-154 q0 -9 6.5 -15.5t15.5 -6.5h460q54 0 92 -38t38 -92v-154q0 -54 -38 -92t-92 -38h-460q-54 0 -92 38t-38 92z" />
<glyph unicode="T" horiz-adv-x="759" d="M20 612v108h720v-108h-306v-612h-108v612h-306z" />
<glyph unicode="U" d="M54 130v590h108v-590q0 -9 6.5 -15.5t15.5 -6.5h460q9 0 15.5 6.5t6.5 15.5v590h108v-590q0 -54 -38 -92t-92 -38h-460q-54 0 -92 38t-38 92z" />
<glyph unicode="V" horiz-adv-x="1003" d="M35 720h125l345 -598l345 598h124l-415 -720h-108z" />
<glyph unicode="W" horiz-adv-x="1179" d="M35 720h115l191 -525l191 525h115l191 -525l191 525h115l-262 -720h-88l-205 561l-204 -561l-2 1l1 -1h-87z" />
<glyph unicode="X" horiz-adv-x="812" d="M46 0v15l289 345l-289 345v15h128l232 -276l232 276h128v-15l-290 -345l290 -345v-15h-128l-232 276l-232 -276h-128z" />
<glyph unicode="Y" horiz-adv-x="806" d="M17 720h127l259 -328l258 328h128l-332 -450v-270h-108v270z" />
<glyph unicode="Z" horiz-adv-x="821" d="M51 0v128l576 484h-576v108h720v-128l-576 -484h576v-108h-720z" />
<glyph unicode="[" horiz-adv-x="275" d="M54 0v720h172v-108h-64v-504h64v-108h-172z" />
<glyph unicode="\" horiz-adv-x="520" d="M5 592v128h15l495 -592v-128h-15z" />
<glyph unicode="]" horiz-adv-x="276" d="M51 0v108h64v504h-64v108h172v-720h-172z" />
<glyph unicode="_" d="M54 0h720v-108h-720v108z" />
<glyph unicode="`" horiz-adv-x="213" d="M32 989h108l40 -162h-108z" />
<glyph unicode="a" horiz-adv-x="694" d="M52 130v214h482v106q0 9 -6.5 15.5t-15.5 6.5h-460v108h460q54 0 92 -38t38 -92v-450h-460q-54 0 -92 38t-38 92zM160 130q0 -9 6.5 -15.5t15.5 -6.5h352v128h-374v-106z" />
<glyph unicode="b" horiz-adv-x="667" d="M54 0v770h108v-190h352q54 0 92 -38t38 -92v-320q0 -54 -38 -92t-92 -38h-460zM162 130q0 -9 6.5 -15.5t15.5 -6.5h330q9 0 15.5 6.5t6.5 15.5v320q0 9 -6.5 15.5t-15.5 6.5h-330q-9 0 -15.5 -6.5t-6.5 -15.5v-320z" />
<glyph unicode="c" horiz-adv-x="695" d="M51 130v320q0 54 38 92t92 38h458v-108h-458q-9 0 -15.5 -6.5t-6.5 -15.5v-320q0 -9 6.5 -15.5t15.5 -6.5h460v-108h-460q-54 0 -92 38t-38 92z" />
<glyph unicode="d" horiz-adv-x="667" d="M23 130v320q0 54 38 92t92 38h352v190h108v-770h-460q-54 0 -92 38t-38 92zM131 130q0 -9 6.5 -15.5t15.5 -6.5h330q9 0 15.5 6.5t6.5 15.5v320q0 9 -6.5 15.5t-15.5 6.5h-330q-9 0 -15.5 -6.5t-6.5 -15.5v-320z" />
<glyph unicode="e" horiz-adv-x="692" d="M51 130v320q0 54 38 92t92 38h330q54 0 92 -38t38 -92v-214h-482v-106q0 -9 6.5 -15.5t15.5 -6.5h460v-108h-460q-54 0 -92 38t-38 92zM159 344h374v106q0 9 -6.5 15.5t-15.5 6.5h-330q-9 0 -15.5 -6.5t-6.5 -15.5v-106z" />
<glyph unicode="f" horiz-adv-x="407" d="M53 0v640q0 54 38 92t92 38h216v-108h-216q-9 0 -15.5 -6.5t-6.5 -15.5v-60h238v-108h-238v-472h-108z" />
<glyph unicode="g" horiz-adv-x="683" d="M41 130v320q0 54 38 92t92 38h330q54 0 92 -38t38 -92v-550q0 -54 -38 -92t-92 -38h-358v108h358q9 0 15.5 6.5t6.5 15.5v100h-352q-54 0 -92 38t-38 92zM149 130q0 -9 6.5 -15.5t15.5 -6.5h330q9 0 15.5 6.5t6.5 15.5v320q0 9 -6.5 15.5t-15.5 6.5h-330q-9 0 -15.5 -6.5 t-6.5 -15.5v-320z" />
<glyph unicode="h" horiz-adv-x="668" d="M54 0v770h108v-190h352q53 0 91.5 -38t38.5 -92v-450h-108v450q0 9 -6.5 15.5t-15.5 6.5h-330q-9 0 -15.5 -6.5t-6.5 -15.5v-450h-108z" />
<glyph unicode="i" horiz-adv-x="208" d="M52 0v580h108v-580h-108zM52 662v108h108v-108h-108z" />
<glyph unicode="j" horiz-adv-x="239" d="M-187 -122h248q9 0 15.5 6.5t6.5 15.5v678h108v-678q0 -54 -38 -92t-92 -38h-248v108zM83 662v108h108v-108h-108z" />
<glyph unicode="k" horiz-adv-x="646" d="M54 0v770h108v-426h130l217 236h128v-15l-249 -275l249 -275v-15h-128l-217 236h-130v-236h-108z" />
<glyph unicode="l" horiz-adv-x="302" d="M52 130v640h108v-640q0 -9 6.5 -15.5t15.5 -6.5h108v-108h-108q-54 0 -92 38t-38 92z" />
<glyph unicode="m" horiz-adv-x="978" d="M54 0v580h741q54 0 92 -38t38 -92v-450h-107v450q0 9 -6.5 15.5t-16.5 6.5h-229q-9 0 -15.5 -6.5t-6.5 -15.5v-450h-108v450q0 9 -6.5 15.5t-15.5 6.5h-230q-9 0 -15.5 -6.5t-6.5 -15.5v-450h-108z" />
<glyph unicode="n" horiz-adv-x="696" d="M54 0v580h460q54 0 92 -38t38 -92v-450h-108v450q0 9 -6.5 15.5t-15.5 6.5h-330q-9 0 -15.5 -6.5t-6.5 -15.5v-450h-108z" />
<glyph unicode="o" horiz-adv-x="692" d="M51 130v320q0 54 38 92t92 38h330q54 0 92 -38t38 -92v-320q0 -54 -38 -92t-92 -38h-330q-54 0 -92 38t-38 92zM159 130q0 -9 6.5 -15.5t15.5 -6.5h330q9 0 15.5 6.5t6.5 15.5v320q0 9 -6.5 15.5t-15.5 6.5h-330q-9 0 -15.5 -6.5t-6.5 -15.5v-320z" />
<glyph unicode="p" horiz-adv-x="664" d="M54 -230v810h460q54 0 92 -38t38 -92v-320q0 -54 -38 -92t-92 -38h-352v-230h-108zM162 130q0 -9 6.5 -15.5t15.5 -6.5h330q9 0 15.5 6.5t6.5 15.5v320q0 9 -6.5 15.5t-15.5 6.5h-330q-9 0 -15.5 -6.5t-6.5 -15.5v-320z" />
<glyph unicode="q" horiz-adv-x="664" d="M20 130v320q0 54 38 92t92 38h460v-810h-108v230h-352q-54 0 -92 38t-38 92zM128 130q0 -9 6.5 -15.5t15.5 -6.5h330q9 0 15.5 6.5t6.5 15.5v320q0 9 -6.5 15.5t-15.5 6.5h-330q-9 0 -15.5 -6.5t-6.5 -15.5v-320z" />
<glyph unicode="r" horiz-adv-x="512" d="M52 0v450q0 54 38 92t92 38h324v-108h-324q-9 0 -15.5 -6.5t-6.5 -15.5v-450h-108z" />
<glyph unicode="s" horiz-adv-x="686" d="M48 130v22h108v-22q0 -9 6.5 -15.5t15.5 -6.5h330q9 0 15.5 6.5t6.5 15.5v84q0 9 -6.5 15.5t-15.5 6.5h-330q-54 0 -92 38t-38 92v84q0 54 38 92t92 38h330q54 0 92 -38t38 -92v-22h-108v22q0 9 -6.5 15.5t-15.5 6.5h-330q-9 0 -15.5 -6.5t-6.5 -15.5v-84q0 -9 6.5 -15.5 t15.5 -6.5h330q54 0 92 -38t38 -92v-84q0 -54 -38 -92t-92 -38h-330q-54 0 -92 38t-38 92z" />
<glyph unicode="t" horiz-adv-x="410" d="M53 130v640h108v-190h238v-108h-238v-342q0 -9 6.5 -15.5t15.5 -6.5h216v-108h-216q-54 0 -92 38t-38 92z" />
<glyph unicode="u" horiz-adv-x="695" d="M53 130v450h108v-450q0 -9 6.5 -15.5t15.5 -6.5h330q9 0 15.5 6.5t6.5 15.5v450h108v-450q0 -54 -38 -92t-92 -38h-330q-54 0 -92 38t-38 92z" />
<glyph unicode="v" horiz-adv-x="790" d="M21 580h125l249 -458l250 458h124l-320 -580h-108z" />
<glyph unicode="w" horiz-adv-x="1060" d="M35 580h115l157 -385l167 385h123l177 -385l147 385h115l-218 -580h-88l-195 431l-184 -431l-2 1l1 -1h-87z" />
<glyph unicode="x" horiz-adv-x="692" d="M46 0v15l229 280l-229 270v15h128l172 -201l172 201h128v-15l-230 -270l230 -280v-15h-128l-172 211l-172 -211h-128z" />
<glyph unicode="y" horiz-adv-x="685" d="M42 130v448h108v-448q0 -9 6.5 -15.5t15.5 -6.5h330q9 0 15.5 6.5t6.5 15.5v448h108v-678q0 -54 -38 -92t-92 -38h-358v108h358q9 0 15.5 6.5t6.5 15.5v100h-352q-54 0 -92 38t-38 92z" />
<glyph unicode="z" horiz-adv-x="698" d="M54 0v128l446 344h-446v108h590v-128l-446 -344h446v-108h-590z" />
<glyph unicode="{" horiz-adv-x="289" d="M23 312v108l44 25v145q0 54 38 92t92 38h42v-108h-42q-9 0 -15.5 -6.5t-6.5 -15.5v-169l-70 -55l70 -58v-178q0 -9 6.5 -15.5t15.5 -6.5h42v-108h-42q-54 0 -92 38t-38 92v156z" />
<glyph unicode="|" horiz-adv-x="214" d="M54 -109v937h108v-937h-108z" />
<glyph unicode="}" horiz-adv-x="289" d="M51 0v108h42q9 0 15.5 6.5t6.5 15.5v178l70 58l-70 55v169q0 9 -6.5 15.5t-15.5 6.5h-42v108h42q54 0 92 -38t38 -92v-145l44 -25v-108l-44 -26v-156q0 -54 -38 -92t-92 -38h-42z" />
<glyph unicode="~" horiz-adv-x="404" d="M24 277v75q33 14 74 14q39 0 102.5 -32t97.5 -36q39 0 78 26v-74q-42 -18 -78 -18q-35 0 -98 34t-102 34q-60 0 -74 -23z" />
<glyph unicode="&#xa1;" horiz-adv-x="210" d="M53 0v520h108v-520h-108zM53 612v108h108v-108h-108z" />
<glyph unicode="&#xa2;" horiz-adv-x="636" d="M33 130v330q0 54 38 92t92 38h111v128h108v-128h239v-108h-239v-374h239v-108h-239v-109h-108v109h-111q-54 0 -92 38t-38 92zM141 130q0 -9 6.5 -15.5t15.5 -6.5h111v374h-111q-9 0 -15.5 -6.5t-6.5 -15.5v-330z" />
<glyph unicode="&#xa3;" horiz-adv-x="734" d="M39 0v108h100v198h-100v108h100v176q0 54 38 92t92 38h288q54 0 92 -38t38 -92v-30h-108v30q0 9 -6.5 15.5t-15.5 6.5h-288q-9 0 -15.5 -6.5t-6.5 -15.5v-176h334v-108h-334v-198h440v-108h-648z" />
<glyph unicode="&#xa8;" horiz-adv-x="385" d="M54 827v108h108v-108h-108zM224 827v108h108v-108h-108z" />
<glyph unicode="&#xad;" horiz-adv-x="517" d="M59 242v108h400v-108h-400z" />
<glyph unicode="&#xb0;" horiz-adv-x="439" d="M45 510v80q0 54 38 92t92 38h90q54 0 92 -38t38 -92v-80q0 -54 -38 -92t-92 -38h-90q-54 0 -92 38t-38 92zM133 490q0 -9 6.5 -15.5t15.5 -6.5h130q9 0 15.5 6.5t6.5 15.5v120q0 9 -6.5 15.5t-15.5 6.5h-130q-9 0 -15.5 -6.5t-6.5 -15.5v-120z" />
<glyph unicode="&#xb4;" horiz-adv-x="213" d="M33 827l40 162h108l-40 -162h-108z" />
<glyph unicode="&#xb6;" horiz-adv-x="833" d="M56 387v202q0 53 38 91.5t92 38.5h590v-719h-108v257h-101v-257h-108v257h-273q-54 0 -92 38.5t-38 91.5zM164 387q0 -9 6.5 -15.5t15.5 -6.5h273v246h-273q-9 0 -15.5 -6.5t-6.5 -15.5v-202zM567 365h101v246h-101v-246z" />
<glyph unicode="&#xb8;" horiz-adv-x="213" d="M33 -162l40 162h108l-40 -162h-108z" />
<glyph unicode="&#xbf;" horiz-adv-x="675" d="M19 130v184q0 54 38 92t92 38h259q9 0 15.5 6.5t6.5 15.5v61h108v-61q0 -54 -38 -92t-92 -38h-259q-9 0 -15.5 -6.5t-6.5 -15.5v-184q0 -9 6.5 -15.5t15.5 -6.5h497v-108h-497q-54 0 -92 38t-38 92zM430 612v108h108v-108h-108z" />
<glyph unicode="&#xc0;" horiz-adv-x="836" d="M58 0v590q0 54 38 92t92 38h460q54 0 92 -38t38 -92v-590h-108v252h-504v-252h-108zM166 360h504v230q0 9 -6.5 15.5t-15.5 6.5h-460q-9 0 -15.5 -6.5t-6.5 -15.5v-230zM344 982h108l40 -162h-108z" />
<glyph unicode="&#xc1;" horiz-adv-x="836" d="M58 0v590q0 54 38 92t92 38h460q54 0 92 -38t38 -92v-590h-108v252h-504v-252h-108zM166 360h504v230q0 9 -6.5 15.5t-15.5 6.5h-460q-9 0 -15.5 -6.5t-6.5 -15.5v-230zM344 819l40 162h108l-40 -162h-108z" />
<glyph unicode="&#xc2;" horiz-adv-x="836" d="M58 0v590q0 54 38 92t92 38h460q54 0 92 -38t38 -92v-590h-108v252h-504v-252h-108zM166 360h504v230q0 9 -6.5 15.5t-15.5 6.5h-460q-9 0 -15.5 -6.5t-6.5 -15.5v-230zM296 819l85 141h74l85 -141h-75l-47 76l-48 -76h-74z" />
<glyph unicode="&#xc3;" horiz-adv-x="836" d="M58 0v590q0 54 38 92t92 38h460q54 0 92 -38t38 -92v-590h-108v252h-504v-252h-108zM166 360h504v230q0 9 -6.5 15.5t-15.5 6.5h-460q-9 0 -15.5 -6.5t-6.5 -15.5v-230zM242 869v75q33 14 74 14q39 0 102.5 -32t97.5 -36q39 0 78 26v-74q-42 -18 -78 -18q-35 0 -98 34 t-102 34q-60 0 -74 -23z" />
<glyph unicode="&#xc4;" horiz-adv-x="836" d="M58 0v590q0 54 38 92t92 38h460q54 0 92 -38t38 -92v-590h-108v252h-504v-252h-108zM166 360h504v230q0 9 -6.5 15.5t-15.5 6.5h-460q-9 0 -15.5 -6.5t-6.5 -15.5v-230zM279 810v108h108v-108h-108zM449 810v108h108v-108h-108z" />
<glyph unicode="&#xc5;" horiz-adv-x="836" d="M58 0v590q0 54 38 92t92 38h460q54 0 92 -38t38 -92v-590h-108v252h-504v-252h-108zM166 360h504v230q0 9 -6.5 15.5t-15.5 6.5h-460q-9 0 -15.5 -6.5t-6.5 -15.5v-230zM336 874v54q0 22 16 37.5t38 15.5h56q22 0 38 -15.5t16 -37.5v-54q0 -22 -16 -37.5t-38 -15.5h-56 q-22 0 -38 15.5t-16 37.5zM376 871q0 -10 9 -10h66q9 0 9 10v60q0 10 -9 10h-66q-9 0 -9 -10v-60z" />
<glyph unicode="&#xc6;" horiz-adv-x="1375" d="M54 0v590q0 54 38 92t92 38h1142v-108h-552v-198h444v-108h-444v-198h552v-108h-660v252h-504v-252h-108zM162 360h504v230q0 9 -6.5 15.5t-15.5 6.5h-460q-9 0 -15.5 -6.5t-6.5 -15.5v-230z" />
<glyph unicode="&#xc7;" horiz-adv-x="822" d="M56 130v460q0 54 38 92t92 38h588v-108h-588q-9 0 -15.5 -6.5t-6.5 -15.5v-460q0 -9 6.5 -15.5t15.5 -6.5h588v-108h-289l-40 -162h-108l40 162h-191q-54 0 -92 38t-38 92z" />
<glyph unicode="&#xc8;" horiz-adv-x="766" d="M58 0v720h660v-108h-552v-198h444v-108h-444v-198h552v-108h-660zM309 982h108l40 -162h-108z" />
<glyph unicode="&#xc9;" horiz-adv-x="766" d="M58 0v720h660v-108h-552v-198h444v-108h-444v-198h552v-108h-660zM309 820l40 162h108l-40 -162h-108z" />
<glyph unicode="&#xca;" horiz-adv-x="766" d="M58 0v720h660v-108h-552v-198h444v-108h-444v-198h552v-108h-660zM261 819l85 141h74l85 -141h-75l-47 76l-48 -76h-74z" />
<glyph unicode="&#xcb;" horiz-adv-x="766" d="M58 0v720h660v-108h-552v-198h444v-108h-444v-198h552v-108h-660zM244 820v108h108v-108h-108zM414 820v108h108v-108h-108z" />
<glyph unicode="&#xcc;" horiz-adv-x="220" d="M36 982h108l40 -162h-108zM57 0v720h108v-720h-108z" />
<glyph unicode="&#xcd;" horiz-adv-x="220" d="M36 820l40 162h108l-40 -162h-108zM57 0v720h108v-720h-108z" />
<glyph unicode="&#xce;" horiz-adv-x="220" d="M-12 819l85 141h74l85 -141h-75l-47 76l-48 -76h-74zM57 0v720h108v-720h-108z" />
<glyph unicode="&#xcf;" horiz-adv-x="220" d="M-29 820v108h108v-108h-108zM57 0v720h108v-720h-108zM141 820v108h108v-108h-108z" />
<glyph unicode="&#xd1;" horiz-adv-x="832" d="M56 0v720h128l484 -576v576h108v-720h-128l-484 576v-576h-108zM240 869v75q33 14 74 14q39 0 102.5 -32t97.5 -36q39 0 78 26v-74q-42 -18 -78 -18q-35 0 -98 34t-102 34q-60 0 -74 -23z" />
<glyph unicode="&#xd2;" d="M54 130v460q0 54 38 92t92 38h460q54 0 92 -38t38 -92v-460q0 -54 -38 -92t-92 -38h-460q-54 0 -92 38t-38 92zM162 130q0 -9 6.5 -15.5t15.5 -6.5h460q9 0 15.5 6.5t6.5 15.5v460q0 9 -6.5 15.5t-15.5 6.5h-460q-9 0 -15.5 -6.5t-6.5 -15.5v-460zM340 982h108l40 -162 h-108z" />
<glyph unicode="&#xd3;" d="M54 130v460q0 54 38 92t92 38h460q54 0 92 -38t38 -92v-460q0 -54 -38 -92t-92 -38h-460q-54 0 -92 38t-38 92zM162 130q0 -9 6.5 -15.5t15.5 -6.5h460q9 0 15.5 6.5t6.5 15.5v460q0 9 -6.5 15.5t-15.5 6.5h-460q-9 0 -15.5 -6.5t-6.5 -15.5v-460zM340 820l40 162h108 l-40 -162h-108z" />
<glyph unicode="&#xd4;" d="M54 130v460q0 54 38 92t92 38h460q54 0 92 -38t38 -92v-460q0 -54 -38 -92t-92 -38h-460q-54 0 -92 38t-38 92zM162 130q0 -9 6.5 -15.5t15.5 -6.5h460q9 0 15.5 6.5t6.5 15.5v460q0 9 -6.5 15.5t-15.5 6.5h-460q-9 0 -15.5 -6.5t-6.5 -15.5v-460zM292 819l85 141h74 l85 -141h-75l-47 76l-48 -76h-74z" />
<glyph unicode="&#xd5;" d="M54 130v460q0 54 38 92t92 38h460q54 0 92 -38t38 -92v-460q0 -54 -38 -92t-92 -38h-460q-54 0 -92 38t-38 92zM162 130q0 -9 6.5 -15.5t15.5 -6.5h460q9 0 15.5 6.5t6.5 15.5v460q0 9 -6.5 15.5t-15.5 6.5h-460q-9 0 -15.5 -6.5t-6.5 -15.5v-460zM238 869v75 q33 14 74 14q39 0 102.5 -32t97.5 -36q39 0 78 26v-74q-42 -18 -78 -18q-35 0 -98 34t-102 34q-60 0 -74 -23z" />
<glyph unicode="&#xd6;" d="M54 130v460q0 54 38 92t92 38h460q54 0 92 -38t38 -92v-460q0 -54 -38 -92t-92 -38h-460q-54 0 -92 38t-38 92zM162 130q0 -9 6.5 -15.5t15.5 -6.5h460q9 0 15.5 6.5t6.5 15.5v460q0 9 -6.5 15.5t-15.5 6.5h-460q-9 0 -15.5 -6.5t-6.5 -15.5v-460zM275 820v108h108v-108 h-108zM445 820v108h108v-108h-108z" />
<glyph unicode="&#xd7;" horiz-adv-x="546" d="M53 90v15l149 195l-149 195v15h128l92 -126l92 126h128v-15l-150 -195l150 -195v-15h-128l-92 126l-92 -126h-128z" />
<glyph unicode="&#xd9;" d="M54 130v590h108v-590q0 -9 6.5 -15.5t15.5 -6.5h460q9 0 15.5 6.5t6.5 15.5v590h108v-590q0 -54 -38 -92t-92 -38h-460q-54 0 -92 38t-38 92zM340 982h108l40 -162h-108z" />
<glyph unicode="&#xda;" d="M54 130v590h108v-590q0 -9 6.5 -15.5t15.5 -6.5h460q9 0 15.5 6.5t6.5 15.5v590h108v-590q0 -54 -38 -92t-92 -38h-460q-54 0 -92 38t-38 92zM340 820l40 162h108l-40 -162h-108z" />
<glyph unicode="&#xdb;" d="M54 130v590h108v-590q0 -9 6.5 -15.5t15.5 -6.5h460q9 0 15.5 6.5t6.5 15.5v590h108v-590q0 -54 -38 -92t-92 -38h-460q-54 0 -92 38t-38 92zM292 819l85 141h74l85 -141h-75l-47 76l-48 -76h-74z" />
<glyph unicode="&#xdc;" d="M54 130v590h108v-590q0 -9 6.5 -15.5t15.5 -6.5h460q9 0 15.5 6.5t6.5 15.5v590h108v-590q0 -54 -38 -92t-92 -38h-460q-54 0 -92 38t-38 92zM275 820v108h108v-108h-108zM445 820v108h108v-108h-108z" />
<glyph unicode="&#xdd;" horiz-adv-x="806" d="M17 720h127l259 -328l258 328h128l-332 -450v-270h-108v270zM329 820l40 162h108l-40 -162h-108z" />
<glyph unicode="&#xdf;" horiz-adv-x="833" d="M57 0v590q0 54 38 92t92 38h460q48 0 85 -31t45 -77v-166q0 -43 -25 -76q25 -33 25 -76v-164q0 -54 -38 -92t-92 -38h-374v108h374q9 0 15.5 6.5t6.5 15.5v164q0 9 -6.5 15.5t-15.5 6.5h-374v97h374q9 0 15.5 6.5t6.5 15.5v154q0 9 -6.5 15.5t-15.5 6.5h-460 q-9 0 -15.5 -6.5t-6.5 -15.5v-589h-108z" />
<glyph unicode="&#xe0;" horiz-adv-x="725" d="M52 130v214h482v106q0 9 -6.5 15.5t-15.5 6.5h-460v108h460q54 0 92 -38t38 -92v-450h-460q-54 0 -92 38t-38 92zM160 130q0 -9 6.5 -15.5t15.5 -6.5h352v128h-374v-106zM288 880h108l40 -162h-108z" />
<glyph unicode="&#xe1;" horiz-adv-x="725" d="M52 130v214h482v106q0 9 -6.5 15.5t-15.5 6.5h-460v108h460q54 0 92 -38t38 -92v-450h-460q-54 0 -92 38t-38 92zM160 130q0 -9 6.5 -15.5t15.5 -6.5h352v128h-374v-106zM288 718l40 162h108l-40 -162h-108z" />
<glyph unicode="&#xe2;" horiz-adv-x="725" d="M52 130v214h482v106q0 9 -6.5 15.5t-15.5 6.5h-460v108h460q54 0 92 -38t38 -92v-450h-460q-54 0 -92 38t-38 92zM160 130q0 -9 6.5 -15.5t15.5 -6.5h352v128h-374v-106zM240 718l85 141h74l85 -141h-75l-47 76l-48 -76h-74z" />
<glyph unicode="&#xe3;" horiz-adv-x="725" d="M52 130v214h482v106q0 9 -6.5 15.5t-15.5 6.5h-460v108h460q54 0 92 -38t38 -92v-450h-460q-54 0 -92 38t-38 92zM160 130q0 -9 6.5 -15.5t15.5 -6.5h352v128h-374v-106zM186 766v75q33 14 74 14q39 0 102.5 -32t97.5 -36q39 0 78 26v-74q-42 -18 -78 -18q-35 0 -98 34 t-102 34q-60 0 -74 -23z" />
<glyph unicode="&#xe4;" horiz-adv-x="725" d="M52 130v214h482v106q0 9 -6.5 15.5t-15.5 6.5h-460v108h460q54 0 92 -38t38 -92v-450h-460q-54 0 -92 38t-38 92zM160 130q0 -9 6.5 -15.5t15.5 -6.5h352v128h-374v-106zM223 718v108h108v-108h-108zM393 718v108h108v-108h-108z" />
<glyph unicode="&#xe5;" horiz-adv-x="725" d="M52 130v214h482v106q0 9 -6.5 15.5t-15.5 6.5h-460v108h460q54 0 92 -38t38 -92v-450h-460q-54 0 -92 38t-38 92zM160 130q0 -9 6.5 -15.5t15.5 -6.5h352v128h-374v-106zM280 771v54q0 22 16 37.5t38 15.5h56q22 0 38 -15.5t16 -37.5v-54q0 -22 -16 -37.5t-38 -15.5h-56 q-22 0 -38 15.5t-16 37.5zM320 768q0 -10 9 -10h66q9 0 9 10v60q0 10 -9 10h-66q-9 0 -9 -10v-60z" />
<glyph unicode="&#xe6;" horiz-adv-x="1178" d="M53 130v214h482v106q0 9 -6.5 15.5t-15.5 6.5h-460v108h942q54 0 92 -38t38 -92v-214h-482v-109q2 -19 22 -19h460v-108h-942q-54 0 -92 38t-38 92zM161 130q0 -9 6.5 -15.5t15.5 -6.5h352v128h-374v-106zM643 344h374v106q0 9 -6.5 15.5t-15.5 6.5h-330q-9 0 -15.5 -6.5 t-6.5 -15.5v-106z" />
<glyph unicode="&#xe7;" horiz-adv-x="693" d="M51 130v320q0 54 38 92t92 38h458v-108h-458q-9 0 -15.5 -6.5t-6.5 -15.5v-320q0 -9 6.5 -15.5t15.5 -6.5h460v-108h-221l-40 -162h-108l40 162h-131q-54 0 -92 38t-38 92z" />
<glyph unicode="&#xe8;" horiz-adv-x="638" d="M51 130v320q0 54 38 92t92 38h330q54 0 92 -38t38 -92v-214h-482v-106q0 -9 6.5 -15.5t15.5 -6.5h460v-108h-460q-54 0 -92 38t-38 92zM159 344h374v106q0 9 -6.5 15.5t-15.5 6.5h-330q-9 0 -15.5 -6.5t-6.5 -15.5v-106zM245 880h108l40 -162h-108z" />
<glyph unicode="&#xe9;" horiz-adv-x="638" d="M51 130v320q0 54 38 92t92 38h330q54 0 92 -38t38 -92v-214h-482v-106q0 -9 6.5 -15.5t15.5 -6.5h460v-108h-460q-54 0 -92 38t-38 92zM159 344h374v106q0 9 -6.5 15.5t-15.5 6.5h-330q-9 0 -15.5 -6.5t-6.5 -15.5v-106zM245 719l40 162h108l-40 -162h-108z" />
<glyph unicode="&#xea;" horiz-adv-x="638" d="M51 130v320q0 54 38 92t92 38h330q54 0 92 -38t38 -92v-214h-482v-106q0 -9 6.5 -15.5t15.5 -6.5h460v-108h-460q-54 0 -92 38t-38 92zM159 344h374v106q0 9 -6.5 15.5t-15.5 6.5h-330q-9 0 -15.5 -6.5t-6.5 -15.5v-106zM197 718l85 141h74l85 -141h-75l-47 76l-48 -76 h-74z" />
<glyph unicode="&#xeb;" horiz-adv-x="638" d="M51 130v320q0 54 38 92t92 38h330q54 0 92 -38t38 -92v-214h-482v-106q0 -9 6.5 -15.5t15.5 -6.5h460v-108h-460q-54 0 -92 38t-38 92zM159 344h374v106q0 9 -6.5 15.5t-15.5 6.5h-330q-9 0 -15.5 -6.5t-6.5 -15.5v-106zM180 718v108h108v-108h-108zM350 718v108h108 v-108h-108z" />
<glyph unicode="&#xec;" horiz-adv-x="214" d="M16 881h108l40 -162h-108zM56 0v580h108v-580h-108z" />
<glyph unicode="&#xed;" horiz-adv-x="214" d="M49 718l40 162h108l-40 -162h-108zM51 0v580h108v-580h-108z" />
<glyph unicode="&#xee;" horiz-adv-x="214" d="M-15 718l85 141h74l85 -141h-75l-47 76l-48 -76h-74zM51 0v580h108v-580h-108z" />
<glyph unicode="&#xef;" horiz-adv-x="214" d="M-32 720v108h108v-108h-108zM55 0v580h108v-580h-108zM138 720v108h108v-108h-108z" />
<glyph unicode="&#xf1;" horiz-adv-x="708" d="M54 0v580h460q54 0 92 -38t38 -92v-450h-108v450q0 9 -6.5 15.5t-15.5 6.5h-330q-9 0 -15.5 -6.5t-6.5 -15.5v-450h-108zM178 765v75q33 14 74 14q39 0 102.5 -32t97.5 -36q39 0 78 26v-74q-42 -18 -78 -18q-35 0 -98 34t-102 34q-60 0 -74 -23z" />
<glyph unicode="&#xf2;" horiz-adv-x="692" d="M51 130v320q0 54 38 92t92 38h330q54 0 92 -38t38 -92v-320q0 -54 -38 -92t-92 -38h-330q-54 0 -92 38t-38 92zM159 130q0 -9 6.5 -15.5t15.5 -6.5h330q9 0 15.5 6.5t6.5 15.5v320q0 9 -6.5 15.5t-15.5 6.5h-330q-9 0 -15.5 -6.5t-6.5 -15.5v-320zM272 881h108l40 -162 h-108z" />
<glyph unicode="&#xf3;" horiz-adv-x="692" d="M51 130v320q0 54 38 92t92 38h330q54 0 92 -38t38 -92v-320q0 -54 -38 -92t-92 -38h-330q-54 0 -92 38t-38 92zM159 130q0 -9 6.5 -15.5t15.5 -6.5h330q9 0 15.5 6.5t6.5 15.5v320q0 9 -6.5 15.5t-15.5 6.5h-330q-9 0 -15.5 -6.5t-6.5 -15.5v-320zM272 719l40 162h108 l-40 -162h-108z" />
<glyph unicode="&#xf4;" horiz-adv-x="692" d="M51 130v320q0 54 38 92t92 38h330q54 0 92 -38t38 -92v-320q0 -54 -38 -92t-92 -38h-330q-54 0 -92 38t-38 92zM159 130q0 -9 6.5 -15.5t15.5 -6.5h330q9 0 15.5 6.5t6.5 15.5v320q0 9 -6.5 15.5t-15.5 6.5h-330q-9 0 -15.5 -6.5t-6.5 -15.5v-320zM224 718l85 141h74 l85 -141h-75l-47 76l-48 -76h-74z" />
<glyph unicode="&#xf5;" horiz-adv-x="692" d="M51 130v320q0 54 38 92t92 38h330q54 0 92 -38t38 -92v-320q0 -54 -38 -92t-92 -38h-330q-54 0 -92 38t-38 92zM159 130q0 -9 6.5 -15.5t15.5 -6.5h330q9 0 15.5 6.5t6.5 15.5v320q0 9 -6.5 15.5t-15.5 6.5h-330q-9 0 -15.5 -6.5t-6.5 -15.5v-320zM170 765v75 q33 14 74 14q39 0 102.5 -32t97.5 -36q39 0 78 26v-74q-42 -18 -78 -18q-35 0 -98 34t-102 34q-60 0 -74 -23z" />
<glyph unicode="&#xf6;" horiz-adv-x="692" d="M51 130v320q0 54 38 92t92 38h330q54 0 92 -38t38 -92v-320q0 -54 -38 -92t-92 -38h-330q-54 0 -92 38t-38 92zM159 130q0 -9 6.5 -15.5t15.5 -6.5h330q9 0 15.5 6.5t6.5 15.5v320q0 9 -6.5 15.5t-15.5 6.5h-330q-9 0 -15.5 -6.5t-6.5 -15.5v-320zM207 720v108h108v-108 h-108zM377 720v108h108v-108h-108z" />
<glyph unicode="&#xf7;" horiz-adv-x="502" d="M18 242v108h480v-108h-480zM201 0v108h108v-108h-108zM201 480v108h108v-108h-108z" />
<glyph unicode="&#xf9;" horiz-adv-x="695" d="M53 130v450h108v-450q0 -9 6.5 -15.5t15.5 -6.5h330q9 0 15.5 6.5t6.5 15.5v450h108v-450q0 -54 -38 -92t-92 -38h-330q-54 0 -92 38t-38 92zM273 881h108l40 -162h-108z" />
<glyph unicode="&#xfa;" horiz-adv-x="695" d="M53 130v450h108v-450q0 -9 6.5 -15.5t15.5 -6.5h330q9 0 15.5 6.5t6.5 15.5v450h108v-450q0 -54 -38 -92t-92 -38h-330q-54 0 -92 38t-38 92zM273 719l40 162h108l-40 -162h-108z" />
<glyph unicode="&#xfb;" horiz-adv-x="695" d="M53 130v450h108v-450q0 -9 6.5 -15.5t15.5 -6.5h330q9 0 15.5 6.5t6.5 15.5v450h108v-450q0 -54 -38 -92t-92 -38h-330q-54 0 -92 38t-38 92zM225 719l85 141h74l85 -141h-75l-47 76l-48 -76h-74z" />
<glyph unicode="&#xfc;" horiz-adv-x="695" d="M53 130v450h108v-450q0 -9 6.5 -15.5t15.5 -6.5h330q9 0 15.5 6.5t6.5 15.5v450h108v-450q0 -54 -38 -92t-92 -38h-330q-54 0 -92 38t-38 92zM208 718v108h108v-108h-108zM378 718v108h108v-108h-108z" />
<glyph unicode="&#xfd;" horiz-adv-x="688" d="M42 130v448h108v-448q0 -9 6.5 -15.5t15.5 -6.5h330q9 0 15.5 6.5t6.5 15.5v448h108v-678q0 -54 -38 -92t-92 -38h-358v108h358q9 0 15.5 6.5t6.5 15.5v100h-352q-54 0 -92 38t-38 92zM270 719l40 162h108l-40 -162h-108z" />
<glyph unicode="&#xff;" horiz-adv-x="688" d="M42 130v448h108v-448q0 -9 6.5 -15.5t15.5 -6.5h330q9 0 15.5 6.5t6.5 15.5v448h108v-678q0 -54 -38 -92t-92 -38h-358v108h358q9 0 15.5 6.5t6.5 15.5v100h-352q-54 0 -92 38t-38 92zM205 720v108h108v-108h-108zM375 720v108h108v-108h-108z" />
<glyph unicode="&#x152;" horiz-adv-x="1374" d="M53 130v460q0 54 38 92t92 38h1142v-108h-552v-198h444v-108h-444v-198h552v-108h-1142q-54 0 -92 38t-38 92zM161 130q0 -9 6.5 -15.5t15.5 -6.5h460q9 0 15.5 6.5t6.5 15.5v460q0 9 -6.5 15.5t-15.5 6.5h-460q-9 0 -15.5 -6.5t-6.5 -15.5v-460z" />
<glyph unicode="&#x153;" horiz-adv-x="1177" d="M52 130v320q0 54 38 92t92 38h812q54 0 92 -38t38 -92v-214h-482v-106q0 -9 6.5 -15.5t15.5 -6.5h460v-108h-942q-54 0 -92 38t-38 92zM160 130q0 -9 6.5 -15.5t15.5 -6.5h330q9 0 15.5 6.5t6.5 15.5v320q0 9 -6.5 15.5t-15.5 6.5h-330q-9 0 -15.5 -6.5t-6.5 -15.5v-320z M642 344h374v106q0 9 -6.5 15.5t-15.5 6.5h-330q-9 0 -15.5 -6.5t-6.5 -15.5v-106z" />
<glyph unicode="&#x178;" horiz-adv-x="806" d="M17 720h127l259 -328l258 328h128l-332 -450v-270h-108v270zM264 820v108h108v-108h-108zM434 820v108h108v-108h-108z" />
<glyph unicode="&#x2c6;" horiz-adv-x="300" d="M28 826l85 141h74l85 -141h-75l-47 76l-48 -76h-74z" />
<glyph unicode="&#x2dc;" horiz-adv-x="403" d="M23 876v75q33 14 74 14q39 0 102.5 -32t97.5 -36q39 0 78 26v-74q-42 -18 -78 -18q-35 0 -98 34t-102 34q-60 0 -74 -23z" />
<glyph unicode="&#x2000;" horiz-adv-x="494" />
<glyph unicode="&#x2001;" horiz-adv-x="989" />
<glyph unicode="&#x2002;" horiz-adv-x="494" />
<glyph unicode="&#x2003;" horiz-adv-x="989" />
<glyph unicode="&#x2004;" horiz-adv-x="329" />
<glyph unicode="&#x2005;" horiz-adv-x="247" />
<glyph unicode="&#x2006;" horiz-adv-x="164" />
<glyph unicode="&#x2007;" horiz-adv-x="164" />
<glyph unicode="&#x2008;" horiz-adv-x="123" />
<glyph unicode="&#x2009;" horiz-adv-x="197" />
<glyph unicode="&#x200a;" horiz-adv-x="54" />
<glyph unicode="&#x2010;" horiz-adv-x="517" d="M59 242v108h400v-108h-400z" />
<glyph unicode="&#x2011;" horiz-adv-x="517" d="M59 242v108h400v-108h-400z" />
<glyph unicode="&#x2012;" horiz-adv-x="517" d="M59 242v108h400v-108h-400z" />
<glyph unicode="&#x2013;" horiz-adv-x="708" d="M54 241v108h600v-108h-600z" />
<glyph unicode="&#x2014;" horiz-adv-x="822" d="M54 241v108h714v-108h-714z" />
<glyph unicode="&#x2018;" horiz-adv-x="194" d="M34 484v108q0 48 31 84t77 44v-236h-108z" />
<glyph unicode="&#x2019;" horiz-adv-x="193" d="M54 484v236h108v-108q0 -48 -31 -84t-77 -44z" />
<glyph unicode="&#x201c;" horiz-adv-x="378" d="M46 484v108q0 48 31 84t77 44v-236h-108zM217 484v108q0 48 31 84t77 44v-236h-108z" />
<glyph unicode="&#x201d;" horiz-adv-x="378" d="M54 484v236h108v-108q0 -48 -31 -84t-77 -44zM225 484v236h108v-108q0 -48 -31 -84t-77 -44z" />
<glyph unicode="&#x2022;" horiz-adv-x="371" d="M131 350v20q0 42 42 42h23q43 0 43 -42v-20q0 -42 -43 -42h-23q-42 0 -42 42z" />
<glyph unicode="&#x2026;" horiz-adv-x="574" d="M54 0v108h108v-108h-108zM233 0v108h108v-108h-108zM412 0v108h108v-108h-108z" />
<glyph unicode="&#x202f;" horiz-adv-x="197" />
<glyph unicode="&#x205f;" horiz-adv-x="247" />
<glyph unicode="&#x20ac;" horiz-adv-x="799" d="M35 218v108h100v68h-100v108h100v88q0 54 38 92t92 38h488v-108h-488q-9 0 -15.5 -6.5t-6.5 -15.5v-88h402v-108h-402v-68h402v-108h-402v-88q0 -9 6.5 -15.5t15.5 -6.5h488v-108h-488q-54 0 -92 38t-38 92v88h-100z" />
<glyph unicode="&#xe000;" horiz-adv-x="580" d="M0 0v580h580v-580h-580z" />
</font>
</defs>
</svg>
