<?xml version="1.0" standalone="no"?>
<!DOCTYPE svg PUBLIC "-//W3C//DTD SVG 1.1//EN" "http://www.w3.org/Graphics/SVG/1.1/DTD/svg11.dtd" >
<svg xmlns="http://www.w3.org/2000/svg">
<metadata></metadata>
<defs>
<font id="exothinitalic" horiz-adv-x="545" >
<font-face units-per-em="1000" ascent="800" descent="-200" />
<missing-glyph horiz-adv-x="234" />
<glyph unicode="&#xfb01;" horiz-adv-x="550" d="M60 502l2 14l100 10l9 58q15 92 67.5 147t139.5 55q97 0 178 -19l-2 -13l-169 8q-73 3 -124.5 -41.5t-65.5 -136.5l-9 -58l370 -7l-83 -519h-24l80 502h-347l-80 -502h-24l80 502h-98z" />
<glyph unicode="&#xfb02;" horiz-adv-x="697" d="M92 507l2 14l100 10l8 53q14 89 62.5 145.5t133.5 56.5h239l-94 -594q-5 -32 -5.5 -58t2 -42.5t10 -29t13 -18.5t17 -10t15 -5t14.5 -2q65 -11 72 -11l-2 -13h-64q-64 0 -88 45.5t-8 143.5l91 570h-210q-64 0 -112 -44t-62 -134l-8 -53h147l-4 -24h-147l-80 -507h-24 l80 507h-98z" />
<glyph horiz-adv-x="0" />
<glyph unicode="&#xd;" horiz-adv-x="1000" />
<glyph unicode=" "  horiz-adv-x="234" />
<glyph unicode="&#x09;" horiz-adv-x="234" />
<glyph unicode="&#xa0;" horiz-adv-x="234" />
<glyph unicode="!" horiz-adv-x="236" d="M84 12l10 62q2 12 14 12h11q12 0 10 -12l-10 -62q-2 -12 -14 -12h-11q-12 0 -10 12zM124 196l80 535h22l-90 -535h-12z" />
<glyph unicode="&#x22;" horiz-adv-x="287" d="M108 531l14 134l11 67h25l-11 -67l-27 -134h-12zM208 531l14 134l11 67h25l-11 -67l-27 -134h-12z" />
<glyph unicode="#" horiz-adv-x="631" d="M56 250l4 12h179l64 205h-179l5 12h178l81 253h12l-81 -253h186l80 253h12l-80 -253h177l-4 -12h-178l-64 -206h177l-4 -12h-177l-79 -249h-12l79 249l-186 1l-79 -250h-12l79 250h-178zM251 262l185 -1l64 206h-185z" />
<glyph unicode="$" horiz-adv-x="574" d="M80 7l2 15q64 -6 224 -6q83 0 132 29.5t61 110.5l10 68q11 68 -15.5 95.5t-102.5 27.5h-102q-44 0 -76 9.5t-47 24.5t-23.5 34.5t-7 39.5t3.5 39l11 66q16 104 72 141t165 37l13 86h18l-13 -87q88 -5 175 -18l-2 -13l-192 9q-94 4 -145.5 -28.5t-66.5 -126.5l-11 -66 q-11 -70 22 -96.5t106 -26.5h104q92 0 120.5 -38.5t17.5 -108.5l-10 -68q-7 -43 -23.5 -74t-38 -48.5t-52 -27t-58.5 -12.5t-64 -2l-13 -80h-18l13 81q-142 5 -189 14z" />
<glyph unicode="%" horiz-adv-x="985" d="M115 474l21 133q10 66 42.5 95.5t105.5 29.5h101q71 0 94.5 -29.5t13.5 -95.5l-21 -133q-10 -67 -41.5 -96t-104.5 -29h-101q-72 0 -96 29.5t-14 95.5zM130 474q-10 -63 12 -86.5t83 -23.5h101q61 0 91 23t40 87l21 133q9 60 -11 85t-83 25h-101q-62 0 -92 -23t-40 -87z M225 0l554 732h21l-554 -732h-21zM545 128l21 133q10 67 41.5 96t104.5 29h101q72 0 96 -29.5t14 -95.5l-21 -133q-10 -67 -42 -96t-105 -29h-101q-71 0 -95 29.5t-14 95.5zM560 128q-10 -63 12 -86.5t82 -23.5h101q61 0 91.5 23t40.5 87l21 133q9 60 -11.5 85t-83.5 25 h-101q-62 0 -91.5 -23t-39.5 -87z" />
<glyph unicode="&#x26;" horiz-adv-x="688" d="M91 82q-44 77 -20 151.5t101 132.5l97 73l-49 85q-35 59 -28 101.5t35 66.5t72 34q74 16 288 -2l-2 -14h-213q-101 0 -139.5 -44t5.5 -128l227 -394l182 151l7 -8l-82 -84l-94 -78l74 -125h-24l-68 111l-82 -67q-43 -35 -97.5 -45t-106.5 11t-83 72zM109 97 q38 -64 112 -76.5t140 39.5l86 70l-166 289l-89 -66q-77 -58 -99 -123.5t16 -132.5z" />
<glyph unicode="'" horiz-adv-x="132" d="M90 531l14 134l11 67h25l-11 -67l-27 -134h-12z" />
<glyph unicode="(" horiz-adv-x="275" d="M126 396q12 77 41.5 159t63 144.5t65 114t52.5 78.5l21 28h25q-8 -11 -22 -30t-51.5 -79t-68 -120t-61.5 -144.5t-43 -160.5q-13 -91 -10 -171t17 -147t30 -115.5t29 -75.5l12 -27h-26q-3 5 -7 14t-16 39t-22 62.5t-20.5 83t-16 101.5t-4 116.5t11.5 129.5z" />
<glyph unicode=")" horiz-adv-x="276" d="M-13 -150l22 27.5t50.5 74.5t67.5 116t62.5 146.5t44.5 171.5q12 83 8.5 160t-17.5 145.5t-29.5 119t-27.5 79.5l-12 30h25q2 -6 6.5 -16t16 -42.5t21 -67t20 -85.5t16 -100.5t5 -110t-9.5 -116.5q-14 -88 -44 -175.5t-63 -149t-63.5 -110.5t-50.5 -73l-20 -24h-28z" />
<glyph unicode="*" horiz-adv-x="483" d="M139 592l2 14l143 4l-3 -24zM191 409l54 134l25 -4l-67 -134zM295 495l16 23l105 -83l-10 -11zM298 723l14 4l47 -123l-25 -11zM348 552l125 83l7 -12l-117 -90z" />
<glyph unicode="+" horiz-adv-x="524" d="M100 344l4 24h181l28 181h24l-28 -181h181l-4 -24h-181l-29 -181h-24l29 181h-181z" />
<glyph unicode="," horiz-adv-x="171" d="M60 -68l1 6q16 0 19 15l7 47h-6q-12 0 -10 13l10 62q2 13 14 13h10q12 0 10 -13l-18 -112q-2 -11 -6.5 -18.5t-9.5 -10t-9.5 -3t-8.5 -0.5z" />
<glyph unicode="-" horiz-adv-x="331" d="M60 278l4 24h284l-4 -24h-284z" />
<glyph unicode="." horiz-adv-x="172" d="M71 12l10 62q2 12 14 12h11q12 0 10 -12l-10 -62q-2 -12 -14 -12h-11q-12 0 -10 12z" />
<glyph unicode="/" horiz-adv-x="291" d="M8 -72l414 842h22l-414 -842h-22z" />
<glyph unicode="0" horiz-adv-x="649" d="M121 162l65 408q12 78 67 120t130 42h134q87 0 120 -44t22 -118l-65 -408q-26 -162 -193 -162h-134q-75 0 -117 39t-29 123zM145 162q-10 -68 23.5 -103t102.5 -35h134q144 0 165 138l65 408q21 138 -122 138h-134q-68 0 -113.5 -36.5t-55.5 -101.5z" />
<glyph unicode="1" horiz-adv-x="406" d="M134 625l4 15q44 0 101.5 23t92.5 46l35 23h22l-114 -732h-24l112 702q-39 -26 -102.5 -51.5t-126.5 -25.5z" />
<glyph unicode="2" horiz-adv-x="574" d="M47 0l4 23q2 1 40 28t55 39.5t60.5 45t69 53.5t67.5 55.5t68 60t58.5 59t51.5 60t34.5 55.5t19.5 53q17 101 -22.5 143t-130.5 42h-268l2 15q81 10 276 10q106 0 146 -56.5t23 -155.5q-30 -178 -509 -506h429l-4 -24h-470z" />
<glyph unicode="3" horiz-adv-x="579" d="M39 4l3 14h273q152 0 176 148l9 59q6 35 -5 61t-33.5 39.5t-45.5 19.5t-47 7l-212 7l2 14l214 6q64 1 114.5 33t59.5 92l10 69q11 70 -24.5 103.5t-101.5 33.5h-286l2 14q77 14 292 10q85 -1 119.5 -46.5t22.5 -118.5l-10 -69q-5 -30 -18.5 -54t-30 -38.5t-35.5 -24.5 t-33 -13.5t-25 -4.5q37 -6 72 -41.5t25 -103.5l-9 -59q-26 -168 -204 -168q-222 0 -274 11z" />
<glyph unicode="4" horiz-adv-x="572" d="M55 237l385 495h27l-383 -496h378l37 236l22 75h14l-49 -311h90l-2 -14l-92 -10l-33 -210h-24l33 210h-395z" />
<glyph unicode="5" horiz-adv-x="627" d="M79 6l2 14h297q58 0 108.5 39t61.5 109l15 95q23 144 -112 144h-153q-51 0 -97 -38t-53 -87h-24l93 450h423l-4 -24h-400l-71 -343q9 12 22.5 24.5t44.5 27t66 14.5h152q84 0 116.5 -44.5t20.5 -121.5l-16 -99q-8 -48 -30 -83.5t-51 -53t-56 -25.5t-53 -8q-232 0 -302 10 z" />
<glyph unicode="6" horiz-adv-x="635" d="M124 384q29 182 90.5 268t137.5 86q193 0 270 -9l-2 -15h-266q-45 0 -82.5 -33t-61.5 -86t-38.5 -102.5t-22.5 -98.5q96 11 276 11q94 0 126 -39t21 -107l-18 -111q-13 -81 -54.5 -115t-115.5 -34h-124q-43 0 -74 17.5t-53 61.5t-23 118t14 188zM147 380 q-57 -357 112 -357h119q131 0 151 123l17 106q12 74 -18 101t-99 27h-282z" />
<glyph unicode="7" horiz-adv-x="540" d="M134 708l4 24h438l12 -23l-350 -709h-28l350 708h-426z" />
<glyph unicode="8" horiz-adv-x="644" d="M121 154l15 99q8 52 45.5 82.5t72.5 30.5q-98 17 -79 140l10 65q15 94 63.5 130t133.5 36h116q169 0 141 -180l-10 -65q-7 -42 -38.5 -75.5t-72.5 -36.5q88 -26 72 -128l-15 -98q-6 -37 -21 -65.5t-33 -45t-41.5 -26.5t-44 -13.5t-41.5 -3.5h-115q-49 0 -83 12 t-48.5 30.5t-23 40t-6 40t2.5 31.5zM145 151q-11 -65 28.5 -96t109.5 -31h108q54 0 100.5 30.5t56.5 96.5l17 105q6 37 -2 60.5t-30 32.5t-37 11t-42 2h-133q-48 0 -99 -26t-60 -80zM198 494q-6 -36 2.5 -59.5t29.5 -33.5t41.5 -13t50.5 -3h129q67 0 107 34t46 75l11 68 q12 80 -18.5 115.5t-102.5 35.5h-114q-81 0 -121 -36t-51 -115z" />
<glyph unicode="9" horiz-adv-x="636" d="M100 3l2 15h266q46 0 83.5 33t61.5 86.5t38 102t22 98.5q-96 -11 -283 -11q-93 0 -122 40.5t-18 110.5l18 111q13 79 60 111.5t124 32.5h116q193 0 131 -394q-29 -181 -90.5 -263t-137.5 -82q-194 0 -271 9zM174 473q-6 -38 1 -63t26.5 -37t42 -16.5t54.5 -4.5h277 q57 357 -107 357h-120q-138 0 -157 -123z" />
<glyph unicode=":" horiz-adv-x="177" d="M76 12l10 62q2 12 14 12h11q12 0 10 -12l-10 -62q-2 -12 -14 -12h-11q-12 0 -10 12zM141 455l10 63q2 12 14 12h11q12 0 10 -12l-10 -63q-2 -11 -14 -11h-11q-12 0 -10 11z" />
<glyph unicode=";" horiz-adv-x="172" d="M60 -68l1 6q16 0 19 15l7 47h-6q-12 0 -10 13l10 62q2 13 14 13h10q12 0 10 -13l-18 -112q-2 -11 -6.5 -18.5t-9.5 -10t-9.5 -3t-8.5 -0.5zM141 455l10 63q2 12 14 12h11q12 0 10 -12l-10 -63q-2 -11 -14 -11h-11q-12 0 -10 11z" />
<glyph unicode="&#x3c;" horiz-adv-x="472" d="M99 345l3 20l376 192l-5 -26l-344 -177l286 -189l-3 -24z" />
<glyph unicode="=" horiz-adv-x="462" d="M53 212l4 24h427l-4 -24h-427zM94 471l4 24h427l-4 -24h-427z" />
<glyph unicode="&#x3e;" horiz-adv-x="473" d="M72 141l4 27l348 189l-290 177l4 23l314 -192l-3 -20z" />
<glyph unicode="?" horiz-adv-x="543" d="M125 715l2 14q88 10 248 10q112 1 151 -45.5t24 -139.5l-15 -101q-16 -100 -83 -135t-209 -21l-16 -102h-26l19 122h102q82 0 129 31.5t59 104.5l16 101q13 87 -22.5 124t-129.5 37h-249zM171 12l10 62q2 12 14 12h11q12 0 10 -12l-10 -62q-2 -12 -14 -12h-11 q-12 0 -10 12z" />
<glyph unicode="@" horiz-adv-x="901" d="M64 9l81 512q29 178 205 178h375q82 0 117.5 -46t22.5 -132l-53 -354q-2 -17 -5.5 -31t-15 -41t-28 -45t-48 -32.5t-72.5 -14.5h-29l2 60q-23 -25 -87 -45.5t-119 -21.5q-93 -2 -134.5 59t-17.5 220q39 252 215 269q63 6 126.5 -10.5t100.5 -51.5l-67 -456q134 0 155 141 l53 354q13 85 -18.5 119.5t-98.5 34.5h-374q-157 0 -181 -154l-81 -512q-12 -77 25 -120.5t104 -43.5h384l-2 -14q-50 -10 -290 -10h-98q-77 0 -118.5 53.5t-28.5 134.5zM280 254q-10 -59 -4.5 -100.5t14.5 -67.5t28.5 -40.5t38.5 -20t45 -5.5q132 -2 215 60l59 399 q-81 43 -193 40q-171 -6 -203 -265z" />
<glyph unicode="A" horiz-adv-x="643" d="M45 0l390 732h34l146 -732h-24l-51 253h-333l-134 -253h-28zM220 277h315l-86 432z" />
<glyph unicode="B" horiz-adv-x="590" d="M80 0l116 732h253q105 0 140.5 -44t21.5 -130q-11 -69 -58 -118.5t-98 -55.5q42 -10 78.5 -60.5t24.5 -126.5q-31 -197 -225 -197h-253zM108 25h229q169 0 198 179q11 69 -31.5 119t-111.5 48h-229zM167 395h229q70 0 122.5 43.5t67.5 116.5q17 86 -18 119.5t-123 33.5 h-229z" />
<glyph unicode="C" horiz-adv-x="564" d="M117 376q15 93 34 155t53 112t86 73.5t127 23.5q86 0 212 -24l-2 -14l-7 1q-7 1 -19.5 2t-28.5 2.5t-35.5 3t-39.5 2.5t-41.5 2t-40.5 1q-78 0 -128 -28.5t-87 -106t-59 -215.5q-55 -348 165 -348q47 0 100.5 3t83.5 6l30 3l-2 -14q-122 -22 -217 -22q-244 0 -184 382z " />
<glyph unicode="D" horiz-adv-x="658" d="M80 0l116 732h252q65 0 110 -25.5t67 -64t30.5 -91t5.5 -99.5t-12 -97q-14 -76 -38 -137t-60.5 -111.5t-90.5 -78.5t-121 -28h-259zM108 24h231q65 0 117.5 31.5t85.5 84t53.5 108t30.5 116.5q29 174 -19 259t-164 85h-227z" />
<glyph unicode="E" horiz-adv-x="561" d="M98 128l76 479q11 68 51.5 97.5t94.5 27.5l296 -10l-2 -14h-297q-102 0 -119 -106l-36 -227l358 -5l-2 -14l-360 -5l-36 -228q-10 -62 17 -82t79 -20h287l-2 -14l-289 -10q-60 -2 -94 26t-22 105z" />
<glyph unicode="F" horiz-adv-x="555" d="M80 0l94 598q12 79 50.5 107.5t96.5 26.5l296 -10l-2 -14h-299q-51 0 -79.5 -25t-37.5 -81l-36 -227l359 -5l-3 -14l-359 -5l-56 -351h-24z" />
<glyph unicode="G" horiz-adv-x="640" d="M125 377q11 69 22 116t32 97.5t49 80.5t72 49.5t102 19.5q39 0 116.5 -8.5t128.5 -18.5l-3 -19l-42 6q-43 5 -102.5 10.5t-101.5 5.5q-116 0 -168.5 -84t-80.5 -264q-33 -186 -2.5 -267.5t146.5 -81.5q35 0 96 12.5t105 24.5l44 13l46 295h-214l3 14q42 11 171 11 q32 0 68 -3l-61 -386h-14v54q-35 -17 -112 -38t-136 -21q-50 0 -86 12.5t-56 40t-30 59t-10 79.5t4.5 90t13.5 101z" />
<glyph unicode="H" horiz-adv-x="651" d="M85 0l116 732h24l-58 -366h440l58 366h24l-116 -732h-24l54 342h-440l-54 -342h-24z" />
<glyph unicode="I" horiz-adv-x="192" d="M90 0l116 732h24l-116 -732h-24z" />
<glyph unicode="J" horiz-adv-x="319" d="M38 21l6 14q195 -63 227 130l90 567h24l-90 -567q-16 -108 -75 -147q-36 -24 -91.5 -23t-90.5 26z" />
<glyph unicode="K" horiz-adv-x="528" d="M80 0l116 732h24l-56 -353h153l294 353h30l-302 -364l187 -368h-28l-181 355h-156l-56 -355h-25z" />
<glyph unicode="L" horiz-adv-x="547" d="M99 126l96 606h24l-96 -606q-10 -62 17.5 -82t78.5 -20h276l-4 -24h-271q-29 0 -50 4t-41.5 16t-28 39t-1.5 67z" />
<glyph unicode="M" horiz-adv-x="770" d="M71 0l197 732h34l105 -691l318 691h39l-32 -732h-25l32 701l-324 -701h-28l-103 696l-188 -696h-25z" />
<glyph unicode="N" horiz-adv-x="642" d="M80 0l116 732h25l330 -689l110 689h24l-116 -732h-24l-331 690l-110 -690h-24z" />
<glyph unicode="O" horiz-adv-x="684" d="M118 368q16 101 39.5 170t49.5 108t66.5 59.5t77.5 26t96 5.5q48 0 80 -4.5t62.5 -18.5t46.5 -40t26 -68t7 -104.5t-15 -147.5q-15 -96 -37 -161.5t-48 -104t-65.5 -59.5t-78.5 -27t-99 -6t-96.5 6.5t-69 28.5t-45 62.5t-13 108t15.5 166.5zM142 361q-14 -90 -15.5 -150 t9.5 -98.5t39 -58.5t63.5 -27t93.5 -7q55 0 92.5 7t72 27.5t58 58.5t42.5 98.5t33 149.5q15 96 14.5 161t-12 103t-41.5 57.5t-62.5 25t-86.5 5.5q-33 0 -54 -1.5t-47.5 -6t-44.5 -15t-39 -27t-36 -43t-30 -62.5t-27 -85.5t-22 -111.5z" />
<glyph unicode="P" horiz-adv-x="584" d="M75 0l116 732h276q22 0 40 -2.5t39 -9.5t33.5 -20.5t24.5 -36t11 -54.5t-4 -77q-8 -49 -21 -86t-31.5 -59t-35.5 -36t-41.5 -19.5t-40 -7t-39.5 -1.5q-34 0 -140.5 4t-109.5 6l-53 -333h-24zM154 347h252q33 0 59 7t51.5 26t43.5 57.5t26 95.5q4 39 4.5 66.5t-9 47 t-19.5 31.5t-28 18.5t-34 8.5t-37 2h-252z" />
<glyph unicode="Q" horiz-adv-x="690" d="M122 368q16 101 39.5 170t49.5 108t66.5 59.5t77.5 26t96 5.5q48 0 80 -4.5t62.5 -18.5t46.5 -40t26 -68t7.5 -104.5t-15.5 -147.5q-15 -96 -37 -161.5t-48 -104t-65.5 -59.5t-78.5 -27t-99 -6t-96.5 6.5t-69 28.5t-45 62.5t-13 108t15.5 166.5zM146 361 q-14 -90 -15 -150t9.5 -98.5t38.5 -58.5t63.5 -27t93.5 -7q55 0 92.5 7t72 27.5t58 58.5t42.5 98.5t33 149.5q15 96 14.5 161t-12 103t-41.5 57.5t-62.5 25t-86.5 5.5q-33 0 -54 -1.5t-47.5 -6t-44.5 -15t-39 -27t-36 -43t-30 -62.5t-27 -85.5t-22 -111.5zM319 -33h14 q8 -38 36.5 -57t62 -17t67.5 11l-4 -24q-40 -12 -78 -10.5t-67 27t-31 70.5z" />
<glyph unicode="R" horiz-adv-x="612" d="M75 0l116 732h276q22 0 40 -2.5t38.5 -10.5t33.5 -22t24.5 -36.5t12 -55t-4.5 -77.5q-11 -67 -31 -110.5t-49 -62.5t-52.5 -25t-58.5 -7l109 -323h-26l-109 323q-235 4 -242 10l-53 -333h-24zM154 347h252q34 0 59 6.5t50.5 25t43.5 57t27 96.5q4 39 4.5 66.5t-9 47 t-19.5 31.5t-28 18.5t-34 9t-37 2.5h-252z" />
<glyph unicode="S" horiz-adv-x="565" d="M79 7l2 15q65 -6 237 -6q37 0 65.5 5.5t55.5 20t45 43.5t24 71l10 68q10 65 -17 94t-101 29h-112q-56 0 -90.5 12.5t-47 33.5t-16 48.5t3.5 56.5l11 66q16 101 71 137.5t150 36.5q105 0 219 -19l-2 -13l-221 8q-83 3 -131 -32t-62 -122l-11 -66q-11 -73 20.5 -98 t107.5 -25h114q92 0 120.5 -40.5t17.5 -111.5l-10 -68q-8 -51 -29 -84.5t-53.5 -48.5t-63.5 -20.5t-74 -5.5q-42 0 -122 4.5t-111 10.5z" />
<glyph unicode="T" horiz-adv-x="631" d="M139 708l4 24h538l-4 -24h-260l-112 -708h-24l112 708h-254z" />
<glyph unicode="U" horiz-adv-x="681" d="M131 320l65 412h24l-65 -412q-7 -44 -10.5 -81t-1.5 -65.5t5 -50.5t12.5 -38t17.5 -27.5t24.5 -18.5t27.5 -11.5t33 -6t36 -2t40 -0.5q31 0 52.5 1.5t48.5 8.5t46 19t40 34t36 53.5t29 78t23 106.5l65 412h24l-65 -412q-8 -48 -17.5 -87.5t-21.5 -70t-24 -55t-28.5 -41.5 t-30 -29.5t-33.5 -20t-33.5 -12t-36 -6.5t-35.5 -2.5t-37 -0.5q-99 0 -136 15q-85 33 -86 173q0 58 12 137z" />
<glyph unicode="V" horiz-adv-x="668" d="M150 732h25l141 -706l377 706h27l-390 -732h-34z" />
<glyph unicode="W" horiz-adv-x="980" d="M150 732h24l142 -707l358 707h26l-150 -301l97 -407l359 708h26l-370 -732h-34l-96 396l-202 -396h-34z" />
<glyph unicode="X" horiz-adv-x="542" d="M38 0l275 365l-162 367h28l152 -344l265 344h31l-284 -369l163 -363h-28l-152 339l-257 -339h-31z" />
<glyph unicode="Y" horiz-adv-x="628" d="M150 732h27l156 -440l318 440h29l-338 -472l-41 -260h-24l41 260z" />
<glyph unicode="Z" horiz-adv-x="507" d="M35 0l4 24l539 684h-431l4 24h463l-4 -24l-539 -684h431l-4 -24h-463z" />
<glyph unicode="[" horiz-adv-x="265" d="M76 22l112 708q5 29 13.5 55t26 54.5t49.5 45.5t75 17h49l-3 -24h-50q-52 0 -88 -36t-48 -112l-112 -708q-11 -66 9.5 -107t79.5 -41h50l-4 -24h-50q-41 0 -67 18.5t-34 45t-11 56.5t3 52z" />
<glyph unicode="\" horiz-adv-x="432" d="M141 770h19l148 -842h-19z" />
<glyph unicode="]" horiz-adv-x="270" d="M-13 -150l4 24h50q58 0 91 41t44 107l112 708q12 76 -12 112t-76 36h-50l4 24h50q42 0 68.5 -18.5t34 -45t9.5 -56.5t-4 -52l-112 -708q-27 -172 -163 -172h-50z" />
<glyph unicode="^" horiz-adv-x="427" d="M134 531l153 130h21l98 -130h-17l-94 115l-143 -115h-18z" />
<glyph unicode="_" horiz-adv-x="648" d="M19 -1l4 24h604l-4 -24h-604z" />
<glyph unicode="`" horiz-adv-x="219" d="M125 664h26l100 -133h-14z" />
<glyph unicode="a" d="M90 279q12 66 31 114t39.5 74t49 43t49.5 22t51 9q56 7 122.5 -10t103.5 -52l-70 -479h-14l1 60q-31 -20 -93.5 -43.5t-113.5 -23.5q-37 0 -64 7.5t-52 26t-36 50.5t-14.5 82t10.5 120zM109 246q-17 -112 15 -171t114 -59q18 0 34.5 1.5t35.5 6t28.5 6t32 10.5t26.5 10.5 t30.5 13t27.5 11.5l58 401q-90 56 -202 41q-89 -12 -133.5 -70.5t-66.5 -200.5z" />
<glyph unicode="b" d="M60 0l124 785h22l-45 -286q48 18 108 29t98 11q185 0 139 -283q-8 -50 -23.5 -93t-41.5 -83t-67 -63t-93 -23q-48 0 -109.5 22.5t-79.5 42.5l-19 -59h-13zM95 73q100 -55 187 -55q69 0 124.5 61t75.5 184q9 77 6.5 126t-23.5 77t-45.5 38.5t-58.5 10.5q-81 0 -201 -30z " />
<glyph unicode="c" horiz-adv-x="491" d="M90 273q13 84 34.5 138.5t51 80.5t59.5 35t73 9q83 0 194 -26l-3 -14q-106 16 -195 16q-38 0 -64.5 -9t-52 -34.5t-44 -76.5t-30.5 -130q-12 -61 -9.5 -104t10 -70.5t26 -42.5t38.5 -20.5t48 -5.5q41 0 93 5.5t83 10.5l32 5l-2 -16q-102 -28 -210 -29q-32 0 -55.5 6.5 t-44.5 24t-30 49t-12 80.5t10 118z" />
<glyph unicode="d" horiz-adv-x="521" d="M89 271q43 268 228 268q37 0 93 -11t98 -29l45 286h22l-124 -785h-13l-1 59q-25 -20 -91.5 -42.5t-114.5 -22.5q-52 0 -86 26t-46.5 66.5t-16 89.5t6.5 95zM113 263q-20 -127 17 -186t108 -59q85 0 201 55l66 412q-110 30 -189 30q-35 0 -63.5 -10.5t-56.5 -36.5 t-49.5 -78t-33.5 -127z" />
<glyph unicode="e" horiz-adv-x="537" d="M87 278q9 54 17.5 87t26.5 70.5t43 58t66.5 34t98.5 13.5q101 0 150 -35t38 -118q-8 -62 -51 -100t-98.5 -49t-115.5 -11t-100.5 6.5t-55.5 12.5q-16 -120 6.5 -174.5t99.5 -55.5q82 -1 238 21l-3 -16q-106 -29 -233 -29q-94 0 -123 68.5t-4 216.5zM108 261q8 -1 21 -3.5 t52 -5.5t74.5 -3t80 7t78 21t58.5 42.5t30 68.5q9 70 -31.5 99.5t-123.5 29.5q-40 0 -71.5 -7t-53 -15.5t-39 -28.5t-27 -34t-19.5 -45.5t-13.5 -48.5t-11.5 -57q-3 -13 -4 -20z" />
<glyph unicode="f" horiz-adv-x="359" d="M92 507l2 14l89 10l15 99q0 1 3 19t4 22.5t5 21.5t8 23.5t10.5 20t15 19.5t20 14t26.5 11.5t33 4.5q93 3 141 -11l-2 -13h-142q-47 0 -67.5 -32.5t-30.5 -99.5l-15 -99h178l-4 -24h-178l-80 -507h-24l80 507h-87z" />
<glyph unicode="g" horiz-adv-x="532" d="M37 -248l2 14l226 -15q48 -4 97 33.5t61 111.5l21 133q-47 -18 -110.5 -28.5t-102.5 -10.5q-73 0 -110 39t-39 102t9 144q42 262 226 262q79 0 229 -13l-99 -628q-14 -87 -69 -131t-117 -37zM115 271q-21 -134 6 -195.5t113 -61.5q35 0 73 5.5t59.5 10.5t80.5 19l74 459 l-199 5q-84 2 -136 -62t-71 -180z" />
<glyph unicode="h" horiz-adv-x="540" d="M60 0l124 784h24l-50 -315q121 71 231 71q76 0 110.5 -50t23.5 -120l-59 -370h-24l59 370q10 65 -21 105.5t-96 40.5q-62 0 -111.5 -14t-114.5 -47l-72 -455h-24z" />
<glyph unicode="i" horiz-adv-x="144" d="M60 0l84 531h24l-84 -531h-24zM157 642l6 42q1 12 14 12h12q11 0 9 -12l-6 -42q-2 -12 -14 -12h-11q-12 0 -10 12z" />
<glyph unicode="j" horiz-adv-x="151" d="M28 -270l127 801h24l-85 -535q-27 -177 -53 -266h-13zM166 642l7 42q1 12 14 12h12q11 0 9 -12l-7 -42q-1 -12 -13 -12h-11q-13 0 -11 12z" />
<glyph unicode="k" horiz-adv-x="474" d="M60 0l124 782h24l-77 -485q77 0 138.5 21t100 57t62 74.5t36.5 81.5h25q-51 -184 -228 -239l172 -292h-28l-167 285q-65 -15 -114 -10l-44 -275h-24z" />
<glyph unicode="l" horiz-adv-x="313" d="M89 189l94 594h24l-94 -594q-5 -32 -5.5 -58t2 -42.5t10 -29t13 -18.5t17 -10t15 -5t14.5 -2q65 -11 72 -11l-2 -13h-65q-64 0 -87.5 45.5t-7.5 143.5z" />
<glyph unicode="m" horiz-adv-x="921" d="M60 0l84 531h14v-62q121 71 228 71q98 0 129 -82q47 31 120 56.5t130 25.5q76 0 112 -50t25 -120l-59 -370h-24l59 370q10 62 -21 104t-96 42q-100 0 -242 -70q10 -35 4 -76l-59 -370h-24l59 370q10 62 -21 104t-96 42q-62 0 -111.5 -14t-114.5 -47l-72 -455h-24z" />
<glyph unicode="n" horiz-adv-x="540" d="M60 0l84 531h14v-62q121 71 228 71q76 0 112 -50t25 -120l-59 -370h-24l59 370q10 62 -21 104t-96 42q-62 0 -111.5 -14t-114.5 -47l-72 -455h-24z" />
<glyph unicode="o" horiz-adv-x="560" d="M91 265q25 159 82.5 215t180.5 56q125 0 162 -68.5t13 -216.5q-23 -146 -79 -201t-182 -55q-128 0 -164 61t-13 209zM115 258q-8 -52 -9 -91t7 -65t20.5 -42.5t35 -25.5t46 -12t58.5 -3q52 0 86.5 9t65 34.5t49.5 73t31 122.5q13 65 8.5 110t-14 73t-33.5 44t-51 21.5 t-66 5.5q-51 0 -83 -7.5t-64 -32t-52.5 -77t-34.5 -137.5z" />
<glyph unicode="p" horiz-adv-x="527" d="M17 -270l127 797q64 10 227 10q92 0 127 -73.5t14 -202.5q-10 -64 -25 -110t-40.5 -84t-66 -57.5t-96.5 -19.5q-39 0 -96.5 10.5t-99.5 28.5l-47 -299h-24zM91 45q118 -31 195 -31q89 0 135 63t67 191q18 111 -10 178t-113 67h-200z" />
<glyph unicode="q" horiz-adv-x="552" d="M92 277q42 260 227 260q164 0 224 -10l-126 -797h-24l47 299q-47 -18 -108 -28.5t-100 -10.5q-73 0 -110 39.5t-39 103t9 144.5zM116 268q-21 -128 5.5 -191t115.5 -63q79 0 206 31l74 468h-201q-85 0 -133.5 -66.5t-66.5 -178.5z" />
<glyph unicode="r" horiz-adv-x="393" d="M60 0l84 531h12l1 -67q45 24 71.5 36t71.5 24.5t87 12.5q51 0 73 -8l-4 -23q-32 7 -73 7q-22 0 -43.5 -3t-35.5 -6t-38.5 -12t-33.5 -13t-39.5 -17.5t-38.5 -17.5l-70 -444h-24z" />
<glyph unicode="s" horiz-adv-x="504" d="M64 5l2 14h244q24 0 38 2t33.5 10t32 28.5t17.5 53.5l8 49q6 39 -16 64.5t-73 25.5h-131q-77 0 -104 22t-16 95l7 46q10 63 46 92t112 29q138 0 230 -9l-3 -14h-231q-62 0 -92 -24.5t-38 -79.5l-7 -46q-3 -16 -3 -28.5t2.5 -21.5t6 -15.5t11.5 -10.5t14.5 -6t19.5 -3.5 t22 -1.5h27h128q58 0 89.5 -32.5t22.5 -87.5l-8 -49q-5 -31 -16.5 -53t-24.5 -33.5t-34.5 -17.5t-36.5 -7t-39 -1q-148 0 -240 10z" />
<glyph unicode="t" horiz-adv-x="344" d="M92 508l3 16l85 8l31 148h16l-23 -148h175l-4 -24h-175l-51 -320q-5 -32 -5.5 -58t2 -42.5t10 -29t13 -18.5t17 -10t15 -5t14.5 -2q65 -11 72 -11l-2 -13h-63q-64 0 -88.5 45.5t-8.5 143.5l51 320h-84z" />
<glyph unicode="u" horiz-adv-x="539" d="M75 162l59 370h24l-59 -370q-10 -62 21 -104t96 -42q62 0 111.5 14t114.5 47l72 455h24l-84 -531h-14v62q-121 -71 -227 -71q-76 0 -112.5 50t-25.5 120z" />
<glyph unicode="v" horiz-adv-x="533" d="M94 531h24l128 -498l242 415q33 58 37 84h15q7 -26 -29 -92l-255 -440h-28z" />
<glyph unicode="w" horiz-adv-x="806" d="M94 531h24l127 -499l239 413q36 63 39 85h15q7 -25 -30 -92l-63 -109l77 -299l242 416q36 62 39 86h15q7 -25 -30 -92l-255 -440h-27l-78 300l-174 -300h-26z" />
<glyph unicode="x" horiz-adv-x="444" d="M24 0l234 266l-150 265h32l138 -243l214 243h32l-234 -265l150 -266h-32l-137 243l-215 -243h-32z" />
<glyph unicode="y" horiz-adv-x="536" d="M94 531h24l82 -415q6 -29 17.5 -49t24.5 -28t25 -11.5t20 -3.5l8 1l205 429q23 51 28 84h15q9 -31 -20 -92l-213 -445q-5 -11 -13.5 -29t-34 -64.5t-50 -82.5t-56.5 -65t-59 -29v14q20 0 46.5 26t50 63.5t44 75t32.5 64.5l13 26q-11 1 -23.5 4.5t-30 13.5t-31.5 34 t-21 58z" />
<glyph unicode="z" horiz-adv-x="449" d="M45 1l4 24l423 482h-362l4 24h396l-4 -24l-424 -482h348l-4 -24h-381z" />
<glyph unicode="{" horiz-adv-x="260" d="M67 380l4 27q92 8 102 73l38 243q13 83 55 131t134 48l-4 -23q-69 0 -108.5 -37.5t-53.5 -125.5l-37 -236q-6 -35 -32.5 -58t-61.5 -28q32 -5 51.5 -28.5t14.5 -54.5l-46 -289q-13 -83 15 -116t99 -33l-4 -23q-53 0 -85.5 17t-41.5 43t-11 58t5 61l44 278q6 34 -19 54.5 t-58 18.5z" />
<glyph unicode="|" horiz-adv-x="215" d="M74 -72l133 842h24l-133 -842h-24z" />
<glyph unicode="}" horiz-adv-x="258" d="M-13 -150l4 23q71 0 109 33t51 116l46 289q5 31 32 54.5t60 28.5q-33 5 -52.5 28t-13.5 58l37 236q14 89 -14 127t-96 38l4 21q159 0 129 -193l-36 -229q-3 -20 3.5 -34.5t20 -22.5t26.5 -11.5t28 -4.5l-4 -27q-32 2 -63.5 -18.5t-37.5 -54.5l-46 -290q-5 -35 -13.5 -60 t-28 -52t-56 -41t-89.5 -14z" />
<glyph unicode="~" horiz-adv-x="488" d="M140 572q75 58 115 58q20 0 60.5 -36.5t55.5 -36.5q7 0 15 1.5t14.5 3.5t15 6.5t13.5 7.5t14 9t12.5 8.5t12.5 9t10 7.5l5 -7q-26 -22 -39.5 -32t-34.5 -20t-41 -10q-22 0 -61 36.5t-54 36.5q-8 0 -15.5 -1t-16 -4.5t-14.5 -6t-15.5 -8.5t-14.5 -8.5t-17 -10.5t-16 -11z " />
<glyph unicode="&#xa1;" horiz-adv-x="239" d="M45 -270l90 536h12l-80 -536h-22zM141 387l11 63q2 10 13 10h12q12 0 10 -10l-11 -63q-2 -13 -14 -13h-11q-12 0 -10 13z" />
<glyph unicode="&#xa2;" horiz-adv-x="478" d="M80 273q9 59 22 103t30.5 72t36 46t44 27t48.5 12t55 3l13 82h18l-13 -83q78 -5 159 -25l-2 -14q-107 16 -196 16q-38 0 -64 -9t-51.5 -34.5t-44 -76.5t-30.5 -130q-12 -61 -9.5 -104t10 -70.5t25.5 -42.5t38 -20.5t48 -5.5q41 0 93 5.5t84 10.5l32 5l-3 -16 q-91 -25 -174 -28l-13 -78h-18l12 77q-31 -1 -54 3t-44.5 14.5t-34.5 30.5t-21 50.5t-7 75.5t11 104z" />
<glyph unicode="&#xa3;" horiz-adv-x="559" d="M50 0l2 14l74 10l51 326h-72l3 14l73 8l21 133q10 62 29 105.5t40.5 67t56 36t63.5 15.5t75 3l165 -9l-3 -14h-164q-45 0 -74 -3.5t-58.5 -15.5t-48 -34t-33.5 -59.5t-24 -91.5l-21 -133l290 -8l-3 -14h-291l-51 -326h369l-4 -24h-465z" />
<glyph unicode="&#xa4;" horiz-adv-x="469" d="M79 164l48 41q-32 51 -22 114q10 60 62 107l-40 46l10 9l39 -47q53 43 114 43q63 0 102 -39l53 44l9 -10l-53 -44q40 -48 29 -118q-10 -59 -58 -109l32 -38l-11 -9l-31 38q-56 -49 -118 -49q-71 0 -110 52l-47 -41zM119 314q-10 -64 25.5 -110t97.5 -46t113 46t61 110 q10 62 -27 105t-99 43q-61 0 -111 -43.5t-60 -104.5z" />
<glyph unicode="&#xa5;" horiz-adv-x="583" d="M106 198l2 14h196l15 95h-196l2 14h195l-176 411h27l165 -386l307 386h31l-328 -411h206l-2 -14h-207l-15 -95h207l-2 -14h-207l-31 -198h-24l31 198h-196z" />
<glyph unicode="&#xa6;" horiz-adv-x="217" d="M74 -72l52 328h24l-52 -328h-24zM153 429l54 341h24l-54 -341h-24z" />
<glyph unicode="&#xa7;" horiz-adv-x="559" d="M93 2l2 14h236q58 0 89 20.5t40 73.5l12 73q7 45 -9.5 58.5t-87.5 13.5h-149q-19 0 -29 0.5t-24.5 1.5t-22 3.5t-17 7.5t-13.5 12.5t-8 18.5t-3.5 25.5t3.5 33.5l9 65q11 75 70 85q-52 10 -42 82l11 72q20 122 150 122q150 0 242 -10l-2 -14h-244q-106 0 -122 -100 l-11 -70q-7 -44 15 -58t80 -14h149q81 0 103.5 -25t12.5 -84l-10 -62q-4 -24 -9 -39t-19 -28t-37 -15q22 -5 32 -18.5t9 -29.5t-3 -34l-12 -73q-5 -32 -17.5 -55t-26.5 -35t-35.5 -18.5t-37.5 -8t-40 -1.5q-141 0 -234 10zM136 353q-3 -16 -2.5 -28t1.5 -20t9 -13t11.5 -8 t19.5 -4t23.5 -1h31.5h149q74 0 93 11.5t27 63.5l10 62q8 49 -10.5 64t-85.5 15h-149q-28 0 -40.5 -0.5t-29 -4.5t-24 -12.5t-14.5 -24t-11 -39.5z" />
<glyph unicode="&#xa8;" horiz-adv-x="443" d="M141 582q3 17 21 17q17 0 14 -17q-6 -17 -20 -18q-8 0 -12 5.5t-3 12.5zM396 582q3 17 21 17q17 0 14 -17q-6 -17 -20 -18q-8 0 -12 5.5t-3 12.5z" />
<glyph unicode="&#xa9;" horiz-adv-x="867" d="M111 371q8 53 22 100.5t39 96.5t56.5 84.5t78.5 57.5t102 22h256q56 0 93.5 -27t54 -66t22 -92.5t2.5 -96t-10 -86.5q-25 -156 -97.5 -260t-179.5 -104h-256q-53 0 -92 25.5t-58 66.5t-30.5 90.5t-9 98t6.5 90.5zM125 368q-13 -59 -7 -121.5t23.5 -114.5t57.5 -85t96 -33 h257q89 0 161.5 93.5t99.5 260.5q13 98 8.5 175.5t-44.5 126t-112 48.5h-258q-96 0 -173 -81.5t-109 -268.5zM286 368q35 215 179 215q83 0 175 -17l-1 -9q-83 12 -176 12q-130 0 -163 -207q-16 -99 6.5 -150t91.5 -51q116 0 187 16l-2 -9q-78 -21 -187 -21q-67 0 -98 49 t-12 172z" />
<glyph unicode="&#xaa;" horiz-adv-x="337" d="M72 291l2 13h279l-2 -13h-279zM108 565q6 41 20 72t29.5 48t36 28t35 14.5t32.5 4.5q95 8 147 -49l-47 -302h-10l2 56q-23 -27 -59.5 -43.5t-73.5 -16.5q-54 0 -90.5 44t-21.5 144zM124 560q-12 -75 15 -121t84 -46q60 0 133 58l35 228q-10 14 -45.5 26t-76.5 11 q-121 -3 -145 -156z" />
<glyph unicode="&#xab;" horiz-adv-x="562" d="M106 354l237 204l15 -17l-218 -189l160 -191l-17 -16zM291 354l237 204l15 -17l-220 -188l164 -193l-19 -15z" />
<glyph unicode="&#xac;" horiz-adv-x="535" d="M90 281l4 24h397q-4 -29 -11 -73t-12 -73h-24l19 122h-373z" />
<glyph unicode="&#xad;" horiz-adv-x="361" d="M60 278l4 24h314l-4 -24h-314z" />
<glyph unicode="&#xae;" horiz-adv-x="867" d="M111 370q8 53 22 101t39 96.5t56.5 84t78.5 58t102 22.5h256q56 0 93.5 -27t54 -66t22 -92.5t2.5 -96t-10 -86.5q-25 -156 -97.5 -260t-179.5 -104h-256q-53 0 -92 25.5t-58 66t-30.5 90.5t-9 98t6.5 90zM125 368q-13 -59 -7 -121.5t22.5 -114.5t56.5 -85t96 -33h259 q89 0 161.5 93.5t99.5 260.5q13 98 8.5 175.5t-44 126t-111.5 48.5h-259q-96 0 -173 -81.5t-109 -268.5zM288 153l67 427h177q57 0 86.5 -28.5t17.5 -101.5q-4 -27 -14 -47t-19 -30.5t-25.5 -16.5t-25 -7.5t-25 -2t-19.5 -0.5l81 -193h-15l-81 192l-160 5l-31 -197h-14z M334 359h169q55 0 82.5 18.5t36.5 75.5q10 61 -12.5 87t-73.5 26h-169z" />
<glyph unicode="&#xaf;" horiz-adv-x="393" d="M134 531l2 15h252l-2 -15h-252z" />
<glyph unicode="&#xb0;" horiz-adv-x="355" d="M149 632q7 43 40.5 73t75.5 30t68 -30t19 -73t-39.5 -72.5t-74.5 -29.5t-69 30t-20 72zM163 632q-6 -37 16 -62.5t58 -25.5t65.5 25.5t35.5 62.5t-15.5 63t-57.5 26t-66 -26t-36 -63z" />
<glyph unicode="&#xb1;" horiz-adv-x="512" d="M69 137l4 24h386l-4 -24h-386zM112 411l4 24h181l29 181h24l-29 -181h181l-4 -24h-181l-28 -181h-24l28 181h-181z" />
<glyph unicode="&#xb2;" horiz-adv-x="397" d="M75 356l2 14q2 1 27 19t36.5 26t40 29.5t45.5 34.5t44 35.5t44 39t38 37.5t33.5 38.5t22.5 36t12 33.5q9 58 -11 89.5t-87 31.5h-177l1 10l1 1q59 7 184 7q69 0 94.5 -39.5t14.5 -103.5q-4 -23 -21 -51t-45 -57t-56 -55.5t-64 -54.5t-59 -45t-50.5 -37t-29.5 -21h272 l-3 -18h-309z" />
<glyph unicode="&#xb3;" horiz-adv-x="426" d="M76 363l1 7h175q64 0 95.5 22.5t40.5 82.5l3 23q6 42 -23.5 65.5t-72.5 24.5l-143 4l2 10l137 4q49 2 88.5 24.5t43.5 58.5l4 36q14 90 -90 90h-193l1 10q42 8 196 8q62 0 86.5 -31t17.5 -80l-6 -38q-5 -38 -38.5 -61.5t-58.5 -25.5q24 -5 49 -31t19 -67l-5 -30 q-9 -57 -42 -87t-103 -30q-134 0 -184 11z" />
<glyph unicode="&#xb4;" horiz-adv-x="197" d="M104 531l142 133h26l-154 -133h-14z" />
<glyph unicode="&#xb5;" horiz-adv-x="582" d="M47 -270q73 468 127 802h24l-59 -370q-10 -62 21 -104t96 -42q62 0 111.5 14t114.5 47l72 455h24l-84 -531h-14v62q-121 -71 -228 -71q-94 0 -127 77l-54 -339h-24z" />
<glyph unicode="&#xb6;" horiz-adv-x="559" d="M118 506l15 93q10 66 61.5 99.5t116.5 33.5h335l-4 -26h-69l-112 -706h-24l112 708h-164l-155 -978h-24l101 635q-15 -9 -56 -8q-74 0 -108.5 43.5t-24.5 105.5zM142 501q-6 -38 6 -64.5t34.5 -38t40 -15.5t32.5 -4h54l52 329h-54q-62 0 -102.5 -32.5t-48.5 -83.5z" />
<glyph unicode="&#xb7;" horiz-adv-x="281" d="M139 376l2 12q1 12 14 12h12q11 0 9 -12l-2 -12q-2 -12 -13 -12h-12q-12 0 -10 12z" />
<glyph unicode="&#xb8;" horiz-adv-x="271" d="M22 -173l1 7l34 5q33 5 49 12t31 33.5t22 78.5h17q-12 -77 -37 -106.5t-86 -29.5h-31z" />
<glyph unicode="&#xb9;" horiz-adv-x="276" d="M115 756l1 11q36 0 75.5 16.5t60.5 33.5l22 17h18l-76 -478h-18l71 451q-67 -51 -154 -51z" />
<glyph unicode="&#xba;" horiz-adv-x="367" d="M83 291l2 13h279l-2 -13h-279zM112 555q18 109 53 145.5t128 36.5q92 0 114.5 -40.5t4.5 -151.5q-16 -100 -50.5 -136t-126.5 -36q-91 0 -115 40.5t-8 141.5zM128 550q-15 -96 7 -128.5t103 -32.5q79 0 111 31t47 130q17 104 -3 137.5t-103 33.5q-81 0 -113 -32t-49 -139 z" />
<glyph unicode="&#xbb;" horiz-adv-x="559" d="M81 163l225 194l-157 185l18 16l172 -204l-243 -209zM266 163l226 193l-158 187l18 15l172 -204l-243 -209z" />
<glyph unicode="&#xbc;" horiz-adv-x="922" d="M115 656l1 11q36 0 75.5 16.5t60.5 33.5l22 17h18l-76 -478h-18l71 451q-67 -51 -154 -51zM210 0l508 770h20l-508 -770h-20zM503 177l237 298h22l-228 -289h261l19 121l17 48h9l-27 -169h59l-1 -8l-61 -11l-26 -166h-18l26 166h-287z" />
<glyph unicode="&#xbd;" horiz-adv-x="948" d="M115 656l1 11q36 0 75.5 16.5t60.5 33.5l22 17h18l-76 -478h-18l71 451q-67 -51 -154 -51zM164 0l508 770h20l-508 -770h-20zM544 1l2 14q2 1 27 19t36.5 26t40 29.5t45.5 34.5t44 35.5t44 39t38 37.5t33.5 38.5t22.5 36t12 33.5q9 58 -11 89.5t-87 31.5h-177l1 10l1 1 q59 7 184 7q131 0 109 -140q-3 -22 -18 -48t-34 -49.5t-48 -51t-52.5 -47.5t-55 -44.5t-49 -37t-41.5 -29t-25 -17.5h270l-3 -18h-309z" />
<glyph unicode="&#xbe;" horiz-adv-x="1032" d="M76 263l1 7h175q64 0 95.5 22.5t40.5 82.5l3 23q6 42 -23.5 65.5t-72.5 24.5l-143 4l2 10l137 4q49 2 88.5 24.5t43.5 58.5l4 36q14 90 -90 90h-193l1 10q42 8 196 8q62 0 86.5 -31t17.5 -80l-6 -38q-5 -38 -38.5 -61.5t-58.5 -25.5q24 -5 49 -31t19 -67l-5 -30 q-9 -57 -42 -87t-103 -30q-134 0 -184 11zM316 0l508 770h20l-508 -770h-20zM587 177l238 298h22l-230 -289h263l19 121l17 48h9l-27 -169h59l-1 -8l-61 -11l-26 -166h-18l26 166h-287z" />
<glyph unicode="&#xbf;" horiz-adv-x="541" d="M28 -80l16 100q15 96 83.5 132t207.5 22l16 102h26l-19 -122h-106q-81 0 -126.5 -31.5t-57.5 -104.5l-16 -102q-14 -89 20.5 -124.5t129.5 -35.5h251l-2 -14q-88 -10 -254 -10q-111 -2 -147.5 46.5t-21.5 141.5zM367 396l9 62q2 12 14 12h11q12 0 10 -12l-9 -62 q-2 -12 -14 -12h-12q-11 0 -9 12z" />
<glyph unicode="&#xc0;" horiz-adv-x="643" d="M45 0l390 732h34l146 -732h-24l-51 253h-333l-134 -253h-28zM220 277h315l-86 432zM343 930h26l100 -133h-14z" />
<glyph unicode="&#xc1;" horiz-adv-x="643" d="M45 0l390 732h34l146 -732h-24l-51 253h-333l-134 -253h-28zM220 277h315l-86 432zM455 797l142 133h26l-154 -133h-14z" />
<glyph unicode="&#xc2;" horiz-adv-x="643" d="M45 0l390 732h34l146 -732h-24l-51 253h-333l-134 -253h-28zM220 277h315l-86 432zM326 797l153 130h21l98 -130h-17l-94 115l-143 -115h-18z" />
<glyph unicode="&#xc3;" horiz-adv-x="643" d="M45 0l390 732h34l146 -732h-24l-51 253h-333l-134 -253h-28zM220 277h315l-86 432zM298 828q26 19 40 29t35.5 19.5t39.5 9.5q17 0 39 -18t43 -36.5t34 -18.5q7 0 13.5 1t13.5 3.5t12.5 5t13 6.5t12.5 7t12 8l10.5 7.5t10.5 8t9 6.5l5 -7q-19 -16 -29 -24t-26 -18.5 t-30.5 -15t-29.5 -4.5q-17 0 -39 18.5t-42 36.5t-34 18q-8 0 -15.5 -1t-16 -4.5t-14 -6t-15.5 -8.5t-15 -8.5t-16.5 -10.5t-16.5 -11z" />
<glyph unicode="&#xc4;" horiz-adv-x="643" d="M45 0l390 732h34l146 -732h-24l-51 253h-333l-134 -253h-28zM220 277h315l-86 432zM320 815q4 17 21 17t14 -17q-5 -17 -20 -18q-7 0 -11.5 5.5t-3.5 12.5zM575 815q4 17 21 17t14 -17q-5 -17 -20 -18q-7 0 -11.5 5.5t-3.5 12.5z" />
<glyph unicode="&#xc5;" horiz-adv-x="643" d="M45 0l390 732q-35 7 -54 35t-13 65q6 43 41 73t78 30q42 0 66 -30t18 -73q-6 -38 -35 -66.5t-67 -34.5l146 -731h-24l-51 253h-333l-134 -253h-28zM220 277h315l-86 432zM383 832q-6 -36 15.5 -61.5t58.5 -25.5q23 0 44.5 12t36.5 31.5t19 43.5q6 36 -15.5 62t-57.5 26 t-65.5 -26t-35.5 -62z" />
<glyph unicode="&#xc6;" horiz-adv-x="896" d="M30 0l469 590q65 82 89 102q51 44 132 40l265 -10l-2 -14h-267q-22 0 -38.5 -2.5t-27.5 -4.5t-19.5 -10t-13.5 -12t-8.5 -17.5t-5 -19t-4 -24.5t-3.5 -26l-35 -217l329 -5l-3 -14l-329 -5l-37 -228q-10 -62 17 -82t79 -20h257l-2 -14l-250 -10q-28 -1 -50 3t-43 15.5 t-29.5 38.5t-2.5 67l21 131h-259l-199 -252h-30zM279 276h243l60 381z" />
<glyph unicode="&#xc7;" horiz-adv-x="564" d="M117 376q15 93 34 155t53 112t86 73.5t127 23.5q86 0 212 -24l-2 -14l-7 1q-7 1 -19.5 2t-28.5 2.5t-35.5 3t-39.5 2.5t-41.5 2t-40.5 1q-78 0 -128 -28.5t-87 -106t-59 -215.5q-55 -348 165 -348q47 0 100.5 3t83.5 6l30 3l-2 -14q-122 -22 -217 -22q-244 0 -184 382z M194 -172l1 7l33 5q33 5 49 12t31 33.5t22 78.5h17q-12 -78 -37 -107t-85 -29h-31z" />
<glyph unicode="&#xc8;" horiz-adv-x="561" d="M98 128l76 479q11 68 51.5 97.5t94.5 27.5l296 -10l-2 -14h-297q-102 0 -119 -106l-36 -227l358 -5l-2 -14l-360 -5l-36 -228q-10 -62 17 -82t79 -20h287l-2 -14l-289 -10q-60 -2 -94 26t-22 105zM310 925h26l100 -133h-14z" />
<glyph unicode="&#xc9;" horiz-adv-x="561" d="M98 128l76 479q11 68 51.5 97.5t94.5 27.5l296 -10l-2 -14h-297q-102 0 -119 -106l-36 -227l358 -5l-2 -14l-360 -5l-36 -228q-10 -62 17 -82t79 -20h287l-2 -14l-289 -10q-60 -2 -94 26t-22 105zM408 792l142 133h26l-154 -133h-14z" />
<glyph unicode="&#xca;" horiz-adv-x="561" d="M98 128l76 479q11 68 51.5 97.5t94.5 27.5l296 -10l-2 -14h-297q-102 0 -119 -106l-36 -227l358 -5l-2 -14l-360 -5l-36 -228q-10 -62 17 -82t79 -20h287l-2 -14l-289 -10q-60 -2 -94 26t-22 105zM294 792l153 130h21l98 -130h-17l-94 115l-143 -115h-18z" />
<glyph unicode="&#xcb;" horiz-adv-x="561" d="M98 128l76 479q11 68 51.5 97.5t94.5 27.5l296 -10l-2 -14h-297q-102 0 -119 -106l-36 -227l358 -5l-2 -14l-360 -5l-36 -228q-10 -62 17 -82t79 -20h287l-2 -14l-289 -10q-60 -2 -94 26t-22 105zM283 843q3 17 21 17q17 0 14 -17q-6 -17 -20 -18q-8 0 -12 5.5t-3 12.5z M538 843q3 17 21 17q17 0 14 -17q-6 -17 -20 -18q-8 0 -12 5.5t-3 12.5z" />
<glyph unicode="&#xcc;" horiz-adv-x="192" d="M90 0l116 732h24l-116 -732h-24zM109 930h26l100 -133h-14z" />
<glyph unicode="&#xcd;" horiz-adv-x="192" d="M90 0l116 732h24l-116 -732h-24zM221 797l142 133h26l-154 -133h-14z" />
<glyph unicode="&#xce;" horiz-adv-x="192" d="M90 0l116 732h24l-116 -732h-24zM92 797l153 130h21l98 -130h-17l-94 115l-143 -115h-18z" />
<glyph unicode="&#xcf;" horiz-adv-x="192" d="M86 815q4 17 21 17t14 -17q-5 -17 -20 -18q-7 0 -11.5 5.5t-3.5 12.5zM90 0l116 732h24l-116 -732h-24zM341 815q4 17 21 17t14 -17q-5 -17 -20 -18q-7 0 -11.5 5.5t-3.5 12.5z" />
<glyph unicode="&#xd0;" horiz-adv-x="686" d="M72 366l2 14h65l56 352h252q65 0 110 -25.5t67 -64t30.5 -91t6 -99.5t-11.5 -97q-14 -76 -38 -137.5t-61 -111.5t-91 -78t-121 -28h-259l58 366h-65zM107 24h231q65 0 117.5 31.5t85.5 84t53.5 108t30.5 116.5q29 174 -19 259t-164 85h-227l-52 -328h159l-2 -14h-159z " />
<glyph unicode="&#xd1;" horiz-adv-x="642" d="M80 0l116 732h25l330 -689l110 689h24l-116 -732h-24l-331 690l-110 -690h-24zM287 828q25 19 39.5 29t36 19.5t39.5 9.5q16 0 38.5 -18t43.5 -36.5t34 -18.5q6 0 12.5 1t13.5 3.5t13 5t13 6.5t12 7t12.5 8t11 7.5t10.5 8t9 6.5l5 -7l-30 -24t-26 -18.5t-30 -15t-29 -4.5 q-14 0 -31 11.5t-30 25t-28 25t-26 11.5q-8 0 -15.5 -1t-16 -4.5t-14.5 -6t-16 -8.5t-14.5 -8.5t-16.5 -10.5t-16 -11z" />
<glyph unicode="&#xd2;" horiz-adv-x="684" d="M118 368q16 101 39.5 170t49.5 108t66.5 59.5t77.5 26t96 5.5q48 0 80 -4.5t62.5 -18.5t46.5 -40t26 -68t7.5 -104.5t-15.5 -147.5q-15 -96 -37 -161.5t-48 -104t-65.5 -59.5t-78.5 -27t-99 -6t-96.5 6.5t-69 28.5t-45 62.5t-13 108t15.5 166.5zM142 361 q-14 -90 -15 -150t9.5 -98.5t38.5 -58.5t63.5 -27t93.5 -7q55 0 92.5 7t72 27.5t58 58.5t42.5 98.5t33 149.5q15 96 14.5 161t-12 103t-41.5 57.5t-62.5 25t-86.5 5.5q-33 0 -54 -1.5t-47.5 -6t-44.5 -15t-39 -27t-36 -43t-30 -62.5t-27 -85.5t-22 -111.5zM338 930h26 l100 -133h-14z" />
<glyph unicode="&#xd3;" horiz-adv-x="684" d="M118 368q16 101 39.5 170t49.5 108t66.5 59.5t77.5 26t96 5.5q48 0 80 -4.5t62.5 -18.5t46.5 -40t26 -68t7.5 -104.5t-15.5 -147.5q-15 -96 -37 -161.5t-48 -104t-65.5 -59.5t-78.5 -27t-99 -6t-96.5 6.5t-69 28.5t-45 62.5t-13 108t15.5 166.5zM142 361 q-14 -90 -15 -150t9.5 -98.5t38.5 -58.5t63.5 -27t93.5 -7q55 0 92.5 7t72 27.5t58 58.5t42.5 98.5t33 149.5q15 96 14.5 161t-12 103t-41.5 57.5t-62.5 25t-86.5 5.5q-33 0 -54 -1.5t-47.5 -6t-44.5 -15t-39 -27t-36 -43t-30 -62.5t-27 -85.5t-22 -111.5zM450 797l142 133 h26l-154 -133h-14z" />
<glyph unicode="&#xd4;" horiz-adv-x="684" d="M118 368q16 101 39.5 170t49.5 108t66.5 59.5t77.5 26t96 5.5q48 0 80 -4.5t62.5 -18.5t46.5 -40t26 -68t7.5 -104.5t-15.5 -147.5q-15 -96 -37 -161.5t-48 -104t-65.5 -59.5t-78.5 -27t-99 -6t-96.5 6.5t-69 28.5t-45 62.5t-13 108t15.5 166.5zM142 361 q-14 -90 -15 -150t9.5 -98.5t38.5 -58.5t63.5 -27t93.5 -7q55 0 92.5 7t72 27.5t58 58.5t42.5 98.5t33 149.5q15 96 14.5 161t-12 103t-41.5 57.5t-62.5 25t-86.5 5.5q-33 0 -54 -1.5t-47.5 -6t-44.5 -15t-39 -27t-36 -43t-30 -62.5t-27 -85.5t-22 -111.5zM321 797l153 130 h21l98 -130h-17l-94 115l-143 -115h-18z" />
<glyph unicode="&#xd5;" horiz-adv-x="684" d="M118 368q16 101 39.5 170t49.5 108t66.5 59.5t77.5 26t96 5.5q48 0 80 -4.5t62.5 -18.5t46.5 -40t26 -68t7.5 -104.5t-15.5 -147.5q-15 -96 -37 -161.5t-48 -104t-65.5 -59.5t-78.5 -27t-99 -6t-96.5 6.5t-69 28.5t-45 62.5t-13 108t15.5 166.5zM142 361 q-14 -90 -15 -150t9.5 -98.5t38.5 -58.5t63.5 -27t93.5 -7q55 0 92.5 7t72 27.5t58 58.5t42.5 98.5t33 149.5q15 96 14.5 161t-12 103t-41.5 57.5t-62.5 25t-86.5 5.5q-33 0 -54 -1.5t-47.5 -6t-44.5 -15t-39 -27t-36 -43t-30 -62.5t-27 -85.5t-22 -111.5zM293 828 q18 14 29 22t27 17.5t30.5 14t28.5 4.5q16 0 38.5 -18t43 -36.5t34.5 -18.5q5 0 11.5 1t12 2.5t11.5 4.5t11.5 5.5t11.5 6t10.5 6.5t11 7.5t9.5 7t9 6.5l9 6l5 -7l-30 -24t-26 -18.5t-30 -15t-29 -4.5t-31.5 11.5t-29.5 25t-28.5 25t-25.5 11.5q-8 0 -16 -1t-16 -4.5t-14 -6 t-16 -8.5t-14.5 -8.5t-16.5 -10.5t-16 -11z" />
<glyph unicode="&#xd6;" horiz-adv-x="684" d="M118 368q16 101 39.5 170t49.5 108t66.5 59.5t77.5 26t96 5.5q48 0 80 -4.5t62.5 -18.5t46.5 -40t26 -68t7.5 -104.5t-15.5 -147.5q-15 -96 -37 -161.5t-48 -104t-65.5 -59.5t-78.5 -27t-99 -6t-96.5 6.5t-69 28.5t-45 62.5t-13 108t15.5 166.5zM142 361 q-14 -90 -15 -150t9.5 -98.5t38.5 -58.5t63.5 -27t93.5 -7q55 0 92.5 7t72 27.5t58 58.5t42.5 98.5t33 149.5q15 96 14.5 161t-12 103t-41.5 57.5t-62.5 25t-86.5 5.5q-33 0 -54 -1.5t-47.5 -6t-44.5 -15t-39 -27t-36 -43t-30 -62.5t-27 -85.5t-22 -111.5zM315 815 q3 17 21 17q17 0 13 -17q-5 -17 -19 -18q-8 0 -12.5 5.5t-2.5 12.5zM570 815q3 17 21 17q17 0 13 -17q-5 -17 -19 -18q-8 0 -12.5 5.5t-2.5 12.5z" />
<glyph unicode="&#xd7;" horiz-adv-x="443" d="M93 228l148 128l-107 128l17 15l108 -128l150 130l14 -17l-150 -130l108 -128l-18 -15l-107 128l-149 -128z" />
<glyph unicode="&#xd8;" horiz-adv-x="684" d="M85 0l47 59q-49 76 -14 305q11 73 26 128.5t31.5 95.5t39 67t44.5 43t53.5 25t60 11.5t69.5 2.5q72 0 118 -11t72 -44l40 50h18l-50 -62q51 -82 14 -316q-15 -96 -37 -161.5t-48 -104t-65.5 -59.5t-78.5 -27t-99 -6q-73 0 -116 10t-69 41l-38 -47h-18zM142 361 q-33 -211 8 -281l465 582q-23 32 -63.5 41.5t-109.5 9.5q-33 0 -54 -1.5t-47.5 -6t-44.5 -15t-39 -27t-36 -43t-30 -62.5t-27 -85.5t-22 -111.5zM158 68q22 -28 64.5 -38t112.5 -10q69 0 112.5 11.5t81 47.5t60.5 103.5t41 178.5q34 212 -7 288z" />
<glyph unicode="&#xd9;" horiz-adv-x="681" d="M131 320l65 412h24l-65 -412q-7 -44 -10.5 -81t-1.5 -65.5t5 -50.5t12.5 -38t17.5 -27.5t24.5 -18.5t27.5 -11.5t33 -6t36 -2t40 -0.5q31 0 52.5 1.5t48.5 8.5t46 19t40 34t36 53.5t29 78t23 106.5l65 412h24l-65 -412q-8 -48 -17.5 -87.5t-21.5 -70t-24 -55t-28.5 -41.5 t-30 -29.5t-33.5 -20t-33.5 -12t-36 -6.5t-35.5 -2.5t-37 -0.5q-99 0 -136 15q-85 33 -86 173q0 58 12 137zM341 930h26l100 -133h-14z" />
<glyph unicode="&#xda;" horiz-adv-x="681" d="M131 320l65 412h24l-65 -412q-7 -44 -10.5 -81t-1.5 -65.5t5 -50.5t12.5 -38t17.5 -27.5t24.5 -18.5t27.5 -11.5t33 -6t36 -2t40 -0.5q31 0 52.5 1.5t48.5 8.5t46 19t40 34t36 53.5t29 78t23 106.5l65 412h24l-65 -412q-8 -48 -17.5 -87.5t-21.5 -70t-24 -55t-28.5 -41.5 t-30 -29.5t-33.5 -20t-33.5 -12t-36 -6.5t-35.5 -2.5t-37 -0.5q-99 0 -136 15q-85 33 -86 173q0 58 12 137zM453 797l142 133h26l-154 -133h-14z" />
<glyph unicode="&#xdb;" horiz-adv-x="681" d="M131 320l65 412h24l-65 -412q-7 -44 -10.5 -81t-1.5 -65.5t5 -50.5t12.5 -38t17.5 -27.5t24.5 -18.5t27.5 -11.5t33 -6t36 -2t40 -0.5q31 0 52.5 1.5t48.5 8.5t46 19t40 34t36 53.5t29 78t23 106.5l65 412h24l-65 -412q-8 -48 -17.5 -87.5t-21.5 -70t-24 -55t-28.5 -41.5 t-30 -29.5t-33.5 -20t-33.5 -12t-36 -6.5t-35.5 -2.5t-37 -0.5q-99 0 -136 15q-85 33 -86 173q0 58 12 137zM324 797l153 130h21l98 -130h-17l-94 115l-143 -115h-18z" />
<glyph unicode="&#xdc;" horiz-adv-x="681" d="M131 320l65 412h24l-65 -412q-7 -44 -10.5 -81t-1.5 -65.5t5 -50.5t12.5 -38t17.5 -27.5t24.5 -18.5t27.5 -11.5t33 -6t36 -2t40 -0.5q31 0 52.5 1.5t48.5 8.5t46 19t40 34t36 53.5t29 78t23 106.5l65 412h24l-65 -412q-8 -48 -17.5 -87.5t-21.5 -70t-24 -55t-28.5 -41.5 t-30 -29.5t-33.5 -20t-33.5 -12t-36 -6.5t-35.5 -2.5t-37 -0.5q-99 0 -136 15q-85 33 -86 173q0 58 12 137zM318 815q3 17 21 17q17 0 13 -17q-5 -17 -19 -18q-8 0 -12.5 5.5t-2.5 12.5zM573 815q3 17 21 17q17 0 13 -17q-5 -17 -19 -18q-8 0 -12.5 5.5t-2.5 12.5z" />
<glyph unicode="&#xdd;" horiz-adv-x="628" d="M150 732h27l156 -440l318 440h29l-338 -472l-41 -260h-24l41 260zM418 797l142 133h26l-154 -133h-14z" />
<glyph unicode="&#xde;" horiz-adv-x="553" d="M60 0q19 122 57.5 364.5t57.5 364.5h24l-22 -141h217q26 0 48 -5.5t44.5 -19.5t35 -38.5t19 -62.5t-3.5 -91q-9 -59 -27.5 -101.5t-39 -65t-48.5 -35.5t-49 -16.5t-48 -3.5q-178 4 -216 10l-25 -159h-24zM111 173h217q75 0 121 46t64 158q10 48 3.5 82t-16.5 54 t-30.5 31.5t-38.5 15.5t-41 4h-217z" />
<glyph unicode="&#xdf;" horiz-adv-x="548" d="M60 0l90 566q14 93 75.5 152t162.5 59q71 0 116 -17.5t60.5 -45t14.5 -62t-19 -68.5t-44.5 -64t-56.5 -49q-22 -15 -54.5 -35t-46.5 -29t-26.5 -24.5t-15.5 -34.5q-5 -31 19 -46.5t61.5 -20.5t74 -11.5t60 -28.5t17.5 -63l-7 -49q-10 -67 -57 -102t-120 -35 q-101 0 -174 15l2 14q92 -5 173 -5q40 0 70 11.5t46.5 31t24.5 37t11 36.5l7 46q6 34 -18 51.5t-61 22.5t-74.5 11t-60.5 27t-17 61q2 10 5.5 19t6.5 16t12 15t15 13.5t21 15.5t24.5 16t32.5 20.5t38 23.5q28 18 57 53t41 67q28 70 -13 106.5t-146 36.5q-87 0 -143 -48.5 t-70 -138.5l-90 -566h-24z" />
<glyph unicode="&#xe0;" d="M90 279q12 66 31 114t39.5 74t49 43t49.5 22t51 9q56 7 122.5 -10t103.5 -52l-70 -479h-14l1 60q-31 -20 -93.5 -43.5t-113.5 -23.5q-37 0 -64 7.5t-52 26t-36 50.5t-14.5 82t10.5 120zM109 246q-17 -112 15 -171t114 -59q18 0 34.5 1.5t35.5 6t28.5 6t32 10.5t26.5 10.5 t30.5 13t27.5 11.5l58 401q-90 56 -202 41q-89 -12 -133.5 -70.5t-66.5 -200.5zM233 736h26l100 -133h-14z" />
<glyph unicode="&#xe1;" d="M90 279q12 66 31 114t39.5 74t49 43t49.5 22t51 9q56 7 122.5 -10t103.5 -52l-70 -479h-14l1 60q-31 -20 -93.5 -43.5t-113.5 -23.5q-37 0 -64 7.5t-52 26t-36 50.5t-14.5 82t10.5 120zM109 246q-17 -112 15 -171t114 -59q18 0 34.5 1.5t35.5 6t28.5 6t32 10.5t26.5 10.5 t30.5 13t27.5 11.5l58 401q-90 56 -202 41q-89 -12 -133.5 -70.5t-66.5 -200.5zM345 603l142 133h26l-154 -133h-14z" />
<glyph unicode="&#xe2;" d="M90 279q12 66 31 114t39.5 74t49 43t49.5 22t51 9q56 7 122.5 -10t103.5 -52l-70 -479h-14l1 60q-31 -20 -93.5 -43.5t-113.5 -23.5q-37 0 -64 7.5t-52 26t-36 50.5t-14.5 82t10.5 120zM109 246q-17 -112 15 -171t114 -59q18 0 34.5 1.5t35.5 6t28.5 6t32 10.5t26.5 10.5 t30.5 13t27.5 11.5l58 401q-90 56 -202 41q-89 -12 -133.5 -70.5t-66.5 -200.5zM216 603l153 130h21l98 -130h-17l-94 115l-143 -115h-18z" />
<glyph unicode="&#xe3;" d="M90 279q12 66 31 114t39.5 74t49 43t49.5 22t51 9q56 7 122.5 -10t103.5 -52l-70 -479h-14l1 60q-31 -20 -93.5 -43.5t-113.5 -23.5q-37 0 -64 7.5t-52 26t-36 50.5t-14.5 82t10.5 120zM109 246q-17 -112 15 -171t114 -59q18 0 34.5 1.5t35.5 6t28.5 6t32 10.5t26.5 10.5 t30.5 13t27.5 11.5l58 401q-90 56 -202 41q-89 -12 -133.5 -70.5t-66.5 -200.5zM188 634q19 14 30 22t27 17.5t30 14t28 4.5q17 0 39 -18.5t43 -36.5t34 -18q7 0 13.5 1t13.5 3.5t12.5 5t13 6.5t12 7l12 8t11 7.5t10.5 8t9 6.5l5 -7q-15 -13 -23 -19.5t-21.5 -16.5 t-23 -14.5t-22.5 -8t-25 -3.5q-14 0 -31 11.5t-30 25t-28 25t-26 11.5q-8 0 -15.5 -1t-16 -4.5t-14.5 -6t-15.5 -8.5t-14.5 -8.5t-16.5 -10.5t-16.5 -11z" />
<glyph unicode="&#xe4;" d="M90 279q12 66 31 114t39.5 74t49 43t49.5 22t51 9q56 7 122.5 -10t103.5 -52l-70 -479h-14l1 60q-31 -20 -93.5 -43.5t-113.5 -23.5q-37 0 -64 7.5t-52 26t-36 50.5t-14.5 82t10.5 120zM109 246q-17 -112 15 -171t114 -59q18 0 34.5 1.5t35.5 6t28.5 6t32 10.5t26.5 10.5 t30.5 13t27.5 11.5l58 401q-90 56 -202 41q-89 -12 -133.5 -70.5t-66.5 -200.5zM210 621q4 17 21 17t14 -17q-5 -17 -20 -18q-7 0 -11.5 5.5t-3.5 12.5zM465 621q4 17 21 17t14 -17q-5 -17 -20 -18q-7 0 -11.5 5.5t-3.5 12.5z" />
<glyph unicode="&#xe5;" d="M90 279q12 66 31 114t39.5 74t49 43t49.5 22t51 9q56 7 122.5 -10t103.5 -52l-70 -479h-14l1 60q-31 -20 -93.5 -43.5t-113.5 -23.5q-37 0 -64 7.5t-52 26t-36 50.5t-14.5 82t10.5 120zM109 246q-17 -112 15 -171t114 -59q18 0 34.5 1.5t35.5 6t28.5 6t32 10.5t26.5 10.5 t30.5 13t27.5 11.5l58 401q-90 56 -202 41q-89 -12 -133.5 -70.5t-66.5 -200.5zM267 705q7 43 42 73t77 30t66.5 -30t17.5 -73q-4 -28 -21.5 -51.5t-42.5 -37t-53 -13.5q-42 0 -67.5 29.5t-18.5 72.5zM282 705q-6 -36 16 -61.5t58 -25.5t65 25.5t35 61.5t-15.5 62t-57.5 26 t-65.5 -26t-35.5 -62z" />
<glyph unicode="&#xe6;" horiz-adv-x="963" d="M50 279q12 66 31.5 114t40 74t49.5 43t50 22t51 9q50 6 123 -13.5t115 -52.5q57 66 183 66q101 0 150 -35t38 -118q-8 -62 -51 -100t-98.5 -49t-115.5 -11t-100.5 6.5t-55.5 12.5q-10 -76 -4.5 -127t32.5 -76.5t80 -26.5q80 -1 236 21l-3 -16q-106 -29 -233 -29 q-101 0 -128 81q-4 -2 -27.5 -15t-35 -18.5t-36 -16.5t-43 -16.5t-43.5 -10t-49 -4.5q-37 0 -64 7.5t-52 26t-36 50.5t-14.5 82t10.5 120zM69 246q-17 -112 15 -171t114 -59q29 0 66.5 9.5t55 16t65.5 28t50 22.5q-14 65 6 186q21 121 57 183q-127 70 -229 56 q-89 -12 -133.5 -70.5t-66.5 -200.5zM462 261q8 -1 21 -3.5t52 -5.5t74.5 -3t80 7t78 21t58.5 42.5t30 68.5q9 70 -31.5 99.5t-124.5 29.5q-55 0 -94.5 -14t-61.5 -29t-39.5 -56t-23 -63.5t-17.5 -84.5q-1 -6 -2 -9z" />
<glyph unicode="&#xe7;" horiz-adv-x="494" d="M92 273q13 84 34.5 138.5t51 80.5t59.5 35t73 9q83 0 194 -26l-3 -14q-106 16 -195 16q-38 0 -64.5 -9t-52 -34.5t-44 -76.5t-30.5 -130q-12 -61 -9.5 -104t10 -70.5t26 -42.5t38.5 -20.5t48 -5.5q41 0 93 5.5t83 10.5l32 5l-2 -16q-102 -28 -210 -29q-32 0 -55.5 6.5 t-44.5 24t-30 49t-12 80.5t10 118zM114 -171l1 7l34 5q33 5 49 12t31 33.5t22 78.5h17q-12 -77 -37 -106.5t-86 -29.5h-31z" />
<glyph unicode="&#xe8;" horiz-adv-x="537" d="M87 278q9 54 17.5 87t26.5 70.5t43 58t66.5 34t98.5 13.5q101 0 150 -35t38 -118q-8 -62 -51 -100t-98.5 -49t-115.5 -11t-100.5 6.5t-55.5 12.5q-16 -120 6.5 -174.5t99.5 -55.5q82 -1 238 21l-3 -16q-106 -29 -233 -29q-94 0 -123 68.5t-4 216.5zM108 261q8 -1 21 -3.5 t52 -5.5t74.5 -3t80 7t78 21t58.5 42.5t30 68.5q9 70 -31.5 99.5t-123.5 29.5q-40 0 -71.5 -7t-53 -15.5t-39 -28.5t-27 -34t-19.5 -45.5t-13.5 -48.5t-11.5 -57q-3 -13 -4 -20zM230 734h26l100 -133h-14z" />
<glyph unicode="&#xe9;" horiz-adv-x="537" d="M87 278q9 54 17.5 87t26.5 70.5t43 58t66.5 34t98.5 13.5q101 0 150 -35t38 -118q-8 -62 -51 -100t-98.5 -49t-115.5 -11t-100.5 6.5t-55.5 12.5q-16 -120 6.5 -174.5t99.5 -55.5q82 -1 238 21l-3 -16q-106 -29 -233 -29q-94 0 -123 68.5t-4 216.5zM108 261q8 -1 21 -3.5 t52 -5.5t74.5 -3t80 7t78 21t58.5 42.5t30 68.5q9 70 -31.5 99.5t-123.5 29.5q-40 0 -71.5 -7t-53 -15.5t-39 -28.5t-27 -34t-19.5 -45.5t-13.5 -48.5t-11.5 -57q-3 -13 -4 -20zM342 601l142 133h26l-154 -133h-14z" />
<glyph unicode="&#xea;" horiz-adv-x="537" d="M87 278q9 54 17.5 87t26.5 70.5t43 58t66.5 34t98.5 13.5q101 0 150 -35t38 -118q-8 -62 -51 -100t-98.5 -49t-115.5 -11t-100.5 6.5t-55.5 12.5q-16 -120 6.5 -174.5t99.5 -55.5q82 -1 238 21l-3 -16q-106 -29 -233 -29q-94 0 -123 68.5t-4 216.5zM108 261q8 -1 21 -3.5 t52 -5.5t74.5 -3t80 7t78 21t58.5 42.5t30 68.5q9 70 -31.5 99.5t-123.5 29.5q-40 0 -71.5 -7t-53 -15.5t-39 -28.5t-27 -34t-19.5 -45.5t-13.5 -48.5t-11.5 -57q-3 -13 -4 -20zM213 601l153 130h21l98 -130h-17l-94 115l-143 -115h-18z" />
<glyph unicode="&#xeb;" horiz-adv-x="537" d="M87 278q9 54 17.5 87t26.5 70.5t43 58t66.5 34t98.5 13.5q101 0 150 -35t38 -118q-8 -62 -51 -100t-98.5 -49t-115.5 -11t-100.5 6.5t-55.5 12.5q-16 -120 6.5 -174.5t99.5 -55.5q82 -1 238 21l-3 -16q-106 -29 -233 -29q-94 0 -123 68.5t-4 216.5zM108 261q8 -1 21 -3.5 t52 -5.5t74.5 -3t80 7t78 21t58.5 42.5t30 68.5q9 70 -31.5 99.5t-123.5 29.5q-40 0 -71.5 -7t-53 -15.5t-39 -28.5t-27 -34t-19.5 -45.5t-13.5 -48.5t-11.5 -57q-3 -13 -4 -20zM207 619q3 17 21 17q17 0 13 -17q-5 -17 -19 -18q-8 0 -12.5 5.5t-2.5 12.5zM462 619 q3 17 21 17q17 0 13 -17q-5 -17 -19 -18q-8 0 -12.5 5.5t-2.5 12.5z" />
<glyph unicode="&#xec;" horiz-adv-x="165" d="M5 729h26l100 -133h-14zM60 0l84 531h24l-84 -531h-24z" />
<glyph unicode="&#xed;" horiz-adv-x="165" d="M60 0l84 531h24l-84 -531h-24zM117 596l142 133h26l-154 -133h-14z" />
<glyph unicode="&#xee;" horiz-adv-x="165" d="M-12 596l153 130h21l98 -130h-17l-94 115l-143 -115h-18zM60 0l84 531h24l-84 -531h-24z" />
<glyph unicode="&#xef;" horiz-adv-x="165" d="M-18 614q4 17 21 17t14 -17q-5 -17 -20 -18q-7 0 -11.5 5.5t-3.5 12.5zM60 0l84 531h24l-84 -531h-24zM237 614q4 17 21 17t14 -17q-5 -17 -20 -18q-7 0 -11.5 5.5t-3.5 12.5z" />
<glyph unicode="&#xf0;" horiz-adv-x="547" d="M80 270q21 133 71.5 197t148.5 64h70q57 0 90 -22.5t40 -43.5q-5 145 -67 219l-172 -64l-2 14l163 61q-67 66 -179 67l3 21q128 -1 201 -79l137 51l4 -14l-131 -48q100 -128 51 -435q-23 -141 -79 -199.5t-143 -58.5h-70q-99 0 -128.5 65t-7.5 205zM104 264 q-9 -75 -9 -122t18.5 -72.5t43 -34.5t63.5 -9h70q46 0 80.5 18t56.5 52.5t35.5 74.5t21.5 93q5 32 7 56.5t2 55t-7.5 52t-21 40.5t-38 29t-59.5 10h-70q-75 0 -123 -51t-70 -192z" />
<glyph unicode="&#xf1;" horiz-adv-x="540" d="M60 0l84 531h14v-62q121 71 228 71q76 0 112 -50t25 -120l-59 -370h-24l59 370q10 62 -21 104t-96 42q-62 0 -111.5 -14t-114.5 -47l-72 -455h-24zM193 631q25 19 39.5 29t36 19.5t39.5 9.5q17 0 39 -18.5t43 -36.5t34 -18q7 0 13.5 1t13 3.5t12.5 5t13.5 6.5t12 7l12 8 t11 7.5t10.5 8t9 6.5l5 -7q-25 -22 -38.5 -32t-35 -20t-41.5 -10q-14 0 -31 11.5t-30 25t-28 25t-26 11.5q-7 0 -14 -1t-13 -3t-13.5 -5.5t-13 -6t-13.5 -7.5t-13 -8t-14.5 -9.5t-14.5 -9.5z" />
<glyph unicode="&#xf2;" horiz-adv-x="560" d="M91 265q25 159 82.5 215t180.5 56q125 0 162 -68.5t13 -216.5q-23 -146 -79 -201t-182 -55q-128 0 -164 61t-13 209zM115 258q-8 -52 -9 -91t7 -65t20.5 -42.5t35 -25.5t46 -12t58.5 -3q52 0 86.5 9t65 34.5t49.5 73t31 122.5q13 65 8.5 110t-14 73t-33.5 44t-51 21.5 t-66 5.5q-51 0 -83 -7.5t-64 -32t-52.5 -77t-34.5 -137.5zM245 729h26l100 -133h-14z" />
<glyph unicode="&#xf3;" horiz-adv-x="560" d="M91 265q25 159 82.5 215t180.5 56q125 0 162 -68.5t13 -216.5q-23 -146 -79 -201t-182 -55q-128 0 -164 61t-13 209zM115 258q-8 -52 -9 -91t7 -65t20.5 -42.5t35 -25.5t46 -12t58.5 -3q52 0 86.5 9t65 34.5t49.5 73t31 122.5q13 65 8.5 110t-14 73t-33.5 44t-51 21.5 t-66 5.5q-51 0 -83 -7.5t-64 -32t-52.5 -77t-34.5 -137.5zM357 596l142 133h26l-154 -133h-14z" />
<glyph unicode="&#xf4;" horiz-adv-x="560" d="M91 265q25 159 82.5 215t180.5 56q125 0 162 -68.5t13 -216.5q-23 -146 -79 -201t-182 -55q-128 0 -164 61t-13 209zM115 258q-8 -52 -9 -91t7 -65t20.5 -42.5t35 -25.5t46 -12t58.5 -3q52 0 86.5 9t65 34.5t49.5 73t31 122.5q13 65 8.5 110t-14 73t-33.5 44t-51 21.5 t-66 5.5q-51 0 -83 -7.5t-64 -32t-52.5 -77t-34.5 -137.5zM228 596l153 130h21l98 -130h-17l-94 115l-143 -115h-18z" />
<glyph unicode="&#xf5;" horiz-adv-x="560" d="M91 265q25 159 82.5 215t180.5 56q125 0 162 -68.5t13 -216.5q-23 -146 -79 -201t-182 -55q-128 0 -164 61t-13 209zM115 258q-8 -52 -9 -91t7 -65t20.5 -42.5t35 -25.5t46 -12t58.5 -3q52 0 86.5 9t65 34.5t49.5 73t31 122.5q13 65 8.5 110t-14 73t-33.5 44t-51 21.5 t-66 5.5q-51 0 -83 -7.5t-64 -32t-52.5 -77t-34.5 -137.5zM200 627q25 19 39.5 29t35.5 19.5t40 9.5q16 0 38.5 -18.5t43 -36.5t34.5 -18q7 0 14.5 1.5t14 3.5t15.5 6.5t14 7.5t14 9t12 8.5t12 9t11 7.5l5 -7l-30 -24t-26 -18.5t-30 -15t-29 -4.5q-18 0 -40 18t-42 36.5 t-33 18.5q-8 0 -16 -1t-16 -4.5t-14 -6t-16 -8.5t-14.5 -8.5t-16.5 -10.5t-16 -11z" />
<glyph unicode="&#xf6;" horiz-adv-x="560" d="M91 265q25 159 82.5 215t180.5 56q125 0 162 -68.5t13 -216.5q-23 -146 -79 -201t-182 -55q-128 0 -164 61t-13 209zM115 258q-8 -52 -9 -91t7 -65t20.5 -42.5t35 -25.5t46 -12t58.5 -3q52 0 86.5 9t65 34.5t49.5 73t31 122.5q13 65 8.5 110t-14 73t-33.5 44t-51 21.5 t-66 5.5q-51 0 -83 -7.5t-64 -32t-52.5 -77t-34.5 -137.5zM222 614q3 17 21 17q17 0 13 -17q-5 -17 -19 -18q-8 0 -12.5 5.5t-2.5 12.5zM477 614q3 17 21 17q17 0 13 -17q-5 -17 -19 -18q-8 0 -12.5 5.5t-2.5 12.5z" />
<glyph unicode="&#xf7;" horiz-adv-x="556" d="M100 341l4 24h416l-4 -24h-416zM266 159l6 42q2 12 14 12h12q11 0 9 -12l-6 -42q-1 -12 -14 -12h-11q-12 0 -10 12zM319 494l6 43q1 12 14 12h12q11 0 9 -12l-6 -43q-1 -11 -14 -11h-11q-12 0 -10 11z" />
<glyph unicode="&#xf8;" horiz-adv-x="540" d="M51 0l45 50q-40 58 -14 219q25 158 82 212.5t181 54.5q104 0 147 -46l37 41h18l-47 -52q46 -64 20 -229q-23 -146 -77 -200t-179 -55q-117 0 -159 45l-36 -40h-18zM106 258q-22 -135 8 -187l362 400q-34 41 -135 41q-51 0 -83 -7.5t-64.5 -32.5t-53 -77.5t-34.5 -136.5z M122 59q32 -40 141 -40q52 0 86.5 8.5t65 33.5t50 73t31.5 124q23 146 -12 202z" />
<glyph unicode="&#xf9;" horiz-adv-x="539" d="M75 162l59 370h24l-59 -370q-10 -62 21 -104t96 -42q62 0 111.5 14t114.5 47l72 455h24l-84 -531h-14v62q-121 -71 -227 -71q-76 0 -112.5 50t-25.5 120zM227 729h26l100 -133h-14z" />
<glyph unicode="&#xfa;" horiz-adv-x="539" d="M75 162l59 370h24l-59 -370q-10 -62 21 -104t96 -42q62 0 111.5 14t114.5 47l72 455h24l-84 -531h-14v62q-121 -71 -227 -71q-76 0 -112.5 50t-25.5 120zM339 596l142 133h26l-154 -133h-14z" />
<glyph unicode="&#xfb;" horiz-adv-x="539" d="M75 162l59 370h24l-59 -370q-10 -62 21 -104t96 -42q62 0 111.5 14t114.5 47l72 455h24l-84 -531h-14v62q-121 -71 -227 -71q-76 0 -112.5 50t-25.5 120zM210 596l153 130h21l98 -130h-17l-94 115l-143 -115h-18z" />
<glyph unicode="&#xfc;" horiz-adv-x="539" d="M75 162l59 370h24l-59 -370q-10 -62 21 -104t96 -42q62 0 111.5 14t114.5 47l72 455h24l-84 -531h-14v62q-121 -71 -227 -71q-76 0 -112.5 50t-25.5 120zM204 614q4 17 21 17t14 -17q-5 -17 -20 -18q-7 0 -11.5 5.5t-3.5 12.5zM459 614q4 17 21 17t14 -17q-5 -17 -20 -18 q-7 0 -11.5 5.5t-3.5 12.5z" />
<glyph unicode="&#xfd;" horiz-adv-x="536" d="M94 531h24l82 -415q6 -29 17.5 -49t24.5 -28t25 -11.5t20 -3.5l8 1l205 429q23 51 28 84h15q9 -31 -20 -92l-213 -445q-5 -11 -13.5 -29t-34 -64.5t-50 -82.5t-56.5 -65t-59 -29v14q20 0 46.5 26t50 63.5t44 75t32.5 64.5l13 26q-11 1 -23.5 4.5t-30 13.5t-31.5 34 t-21 58zM315 591l142 133h26l-154 -133h-14z" />
<glyph unicode="&#xfe;" horiz-adv-x="531" d="M27 -270l167 1052h24l-50 -311q27 18 103.5 43.5t122.5 25.5q49 0 81 -25t44 -64.5t14.5 -90t-7.5 -101.5q-9 -59 -22.5 -101.5t-37 -83.5t-64 -62.5t-95.5 -21.5q-40 0 -104 10.5t-105 28.5l-47 -299h-24zM101 43q98 -29 210 -29q80 0 125 61t66 194q20 125 -11 186 t-101 61q-15 0 -30.5 -1.5t-34.5 -6t-31 -7.5t-35 -11t-31 -10.5t-33.5 -12t-28.5 -10.5z" />
<glyph unicode="&#xff;" horiz-adv-x="536" d="M94 531h24l82 -415q6 -29 17.5 -49t24.5 -28t25 -11.5t20 -3.5l8 1l205 429q23 51 28 84h15q9 -31 -20 -92l-213 -445q-5 -11 -13.5 -29t-34 -64.5t-50 -82.5t-56.5 -65t-59 -29v14q20 0 46.5 26t50 63.5t44 75t32.5 64.5l13 26q-11 1 -23.5 4.5t-30 13.5t-31.5 34 t-21 58zM185 642q3 17 21 17q17 0 14 -17q-6 -17 -20 -18q-8 0 -12 5.5t-3 12.5zM440 642q3 17 21 17q17 0 14 -17q-6 -17 -20 -18q-8 0 -12 5.5t-3 12.5z" />
<glyph unicode="&#x152;" horiz-adv-x="1025" d="M117 368q16 101 39.5 170t49.5 108t66.5 59.5t77.5 26t96 5.5q102 0 154 -29.5t65 -119.5q7 76 47.5 111t102.5 33l265 -10l-2 -14h-267q-102 0 -119 -106l-36 -227l328 -5l-2 -14l-330 -5l-36 -228q-10 -62 17 -82t79 -20h257l-2 -14l-259 -10q-61 -3 -95.5 28.5 t-19.5 107.5q-40 -84 -101 -110.5t-167 -26.5q-60 0 -96.5 6.5t-69 28.5t-45 62.5t-13 108t15.5 166.5zM141 361q-14 -90 -15 -150t9.5 -98.5t38.5 -58.5t63.5 -27t93.5 -7q55 0 92.5 7t72 27.5t58 58.5t42.5 98.5t33 149.5q15 96 14.5 161t-12 103t-41.5 57.5t-62.5 25 t-86.5 5.5q-33 0 -54 -1.5t-47.5 -6t-44.5 -15t-39 -27t-36 -43t-30 -62.5t-27 -85.5t-22 -111.5z" />
<glyph unicode="&#x153;" horiz-adv-x="966" d="M91 265q25 159 82.5 215t180.5 56q88 0 131.5 -34t51.5 -104q24 70 75.5 106t148.5 37q100 2 149.5 -34t38.5 -119q-8 -62 -51 -100t-98.5 -49t-115.5 -11t-100.5 6.5t-55.5 12.5q-19 -116 5.5 -172.5t100.5 -57.5q82 -1 238 21l-3 -16q-106 -29 -233 -29 q-66 0 -99.5 32.5t-38.5 101.5q-28 -72 -81.5 -102t-148.5 -30q-128 0 -164 61t-13 209zM115 258q-8 -52 -9 -91t7 -65t20.5 -42.5t35 -25.5t46 -12t58.5 -3q52 0 86.5 9t65 34.5t49.5 73t31 122.5q13 65 8.5 110t-14 73t-33.5 44t-51 21.5t-66 5.5q-51 0 -83 -7.5t-64 -32 t-52.5 -77t-34.5 -137.5zM531 261q10 -2 31.5 -4.5t68.5 -6.5t92 1.5t89.5 17.5t75 42.5t36.5 76.5q9 70 -31.5 99.5t-123.5 29.5q-64 0 -107 -15.5t-69 -50t-39.5 -78t-22.5 -112.5z" />
<glyph unicode="&#x178;" horiz-adv-x="628" d="M150 732h27l156 -440l318 440h29l-338 -472l-41 -260h-24l41 260zM283 815q4 17 21 17t14 -17q-5 -17 -20 -18q-7 0 -11.5 5.5t-3.5 12.5zM538 815q4 17 21 17t14 -17q-5 -17 -20 -18q-7 0 -11.5 5.5t-3.5 12.5z" />
<glyph unicode="&#x2c6;" horiz-adv-x="334" d="M66 531l153 130h21l98 -130h-17l-94 115l-143 -115h-18z" />
<glyph unicode="&#x2dc;" horiz-adv-x="496" d="M134 572q75 58 115 58q20 0 60.5 -36.5t55.5 -36.5q7 0 15 1.5t14.5 3.5t15 6.5t13.5 7.5t14 9t12.5 8.5t12.5 9t10 7.5l5 -7q-26 -22 -39.5 -32t-34.5 -20t-41 -10q-22 0 -61 36.5t-54 36.5q-8 0 -15.5 -1t-16 -4.5t-14.5 -6t-15.5 -8.5t-14.5 -8.5t-17 -10.5t-16 -11z " />
<glyph unicode="&#x2000;" horiz-adv-x="467" />
<glyph unicode="&#x2001;" horiz-adv-x="935" />
<glyph unicode="&#x2002;" horiz-adv-x="467" />
<glyph unicode="&#x2003;" horiz-adv-x="935" />
<glyph unicode="&#x2004;" horiz-adv-x="311" />
<glyph unicode="&#x2005;" horiz-adv-x="233" />
<glyph unicode="&#x2006;" horiz-adv-x="155" />
<glyph unicode="&#x2007;" horiz-adv-x="155" />
<glyph unicode="&#x2008;" horiz-adv-x="116" />
<glyph unicode="&#x2009;" horiz-adv-x="187" />
<glyph unicode="&#x200a;" horiz-adv-x="51" />
<glyph unicode="&#x2010;" horiz-adv-x="331" d="M60 278l4 24h284l-4 -24h-284z" />
<glyph unicode="&#x2011;" horiz-adv-x="331" d="M60 278l4 24h284l-4 -24h-284z" />
<glyph unicode="&#x2012;" horiz-adv-x="331" d="M60 278l4 24h284l-4 -24h-284z" />
<glyph unicode="&#x2013;" horiz-adv-x="432" d="M60 275l4 25h473l-4 -25h-473z" />
<glyph unicode="&#x2014;" horiz-adv-x="741" d="M59 277l4 25h696l-4 -25h-696z" />
<glyph unicode="&#x2018;" horiz-adv-x="169" d="M158 589l17 104q3 22 14 31.5t20 7.5l10 -1l-2 -7q-18 1 -22 -19l-5 -37h7q6 0 9.5 -4.5t2.5 -11.5l-10 -63q-2 -16 -17 -16h-12q-14 0 -12 16z" />
<glyph unicode="&#x2019;" horiz-adv-x="169" d="M158 574l1 7q19 -1 22 18l6 38h-7q-15 0 -13 15l12 64q2 16 17 16h11q15 0 13 -16l-18 -105q-3 -22 -14 -31t-21 -8z" />
<glyph unicode="&#x201a;" horiz-adv-x="169" d="M58 -64l1 7q19 -1 22 19l6 38h-7q-15 0 -13 15l10 63q3 17 18 17h11q15 0 12 -17l-16 -104q-4 -22 -15 -31.5t-20 -7.5z" />
<glyph unicode="&#x201c;" horiz-adv-x="255" d="M153 589l16 104q4 22 14.5 31.5t19.5 7.5l9 -1l-1 -7q-18 1 -21 -19l-6 -37h6q7 0 11 -4.5t3 -11.5l-10 -63q-3 -16 -19 -16h-11q-14 0 -11 16zM249 589l16 104q4 22 15 31.5t20 7.5l9 -1l-1 -7q-19 1 -22 -19l-6 -37h7q6 0 10 -4.5t3 -11.5l-10 -63q-3 -16 -18 -16h-11 q-15 0 -12 16z" />
<glyph unicode="&#x201d;" horiz-adv-x="254" d="M153 574l1 7q18 -1 21 18l6 38h-6q-15 0 -12 15l10 64q2 16 17 16h11q15 0 13 -16l-17 -105q-3 -22 -14 -31t-20 -8zM249 574l1 7q19 -1 22 18l6 38h-7q-15 0 -12 15l10 64q2 16 17 16h12q14 0 12 -16l-17 -105q-3 -22 -14 -31t-20 -8z" />
<glyph unicode="&#x201e;" horiz-adv-x="254" d="M53 -62l1 7q18 -1 21 19l6 38h-6q-15 0 -13 15l10 63q3 17 18 17h11q15 0 12 -17l-16 -104q-4 -22 -15 -31.5t-20 -7.5zM149 -62l1 7q19 -1 22 19l6 38h-7q-15 0 -13 15l10 63q3 17 18 17h12q14 0 11 -17l-16 -104q-4 -22 -15 -31.5t-20 -7.5z" />
<glyph unicode="&#x2022;" horiz-adv-x="337" d="M139 366l4 30q5 35 39 35h24q34 0 29 -35l-4 -30q-5 -32 -41 -32h-24q-32 0 -27 32z" />
<glyph unicode="&#x2026;" horiz-adv-x="734" d="M147 12l11 62q2 12 14 12h11q12 0 10 -12l-11 -62q-2 -12 -13 -12h-12q-12 0 -10 12zM419 12l11 62q2 12 14 12h12q11 0 9 -12l-11 -62q-2 -12 -13 -12h-11q-13 0 -11 12zM689 12l11 62q2 12 14 12h12q11 0 9 -12l-11 -62q-2 -12 -13 -12h-11q-13 0 -11 12z" />
<glyph unicode="&#x202f;" horiz-adv-x="187" />
<glyph unicode="&#x2039;" horiz-adv-x="277" d="M38 354l238 203l15 -16l-222 -189l164 -190l-17 -16z" />
<glyph unicode="&#x203a;" horiz-adv-x="375" d="M106 163l227 193l-159 187l16 14l174 -203l-244 -208z" />
<glyph unicode="&#x205f;" horiz-adv-x="233" />
<glyph unicode="&#x20ac;" horiz-adv-x="728" d="M70 272l2 14l89 3l22 141l-87 3l2 13l88 4q17 109 50 167q70 123 230 123q107 0 212 -20l-2 -14q-14 1 -37.5 3t-80 4.5t-93.5 2.5q-54 0 -96 -15.5t-68.5 -39t-45.5 -60t-28.5 -71t-16.5 -80.5l284 -3l-2 -14l-285 -3l-22 -141l283 -4l-2 -14h-48t-92.5 -0.5t-104 -1 t-40.5 -1.5q-20 -113 25.5 -180.5t145.5 -69.5q48 -1 103.5 2t86.5 6l31 4l-3 -15q-93 -21 -216 -21q-19 0 -37.5 2.5t-42 10t-42 20t-37.5 33t-28 49.5t-14 68.5t4 90.5z" />
<glyph unicode="&#x2122;" horiz-adv-x="629" d="M47 718l2 14h259l-2 -14h-122l-53 -335h-14l53 335h-123zM292 383l82 349h10l94 -327l185 327h12l-24 -349h-12l21 317l-179 -317h-10l-92 318l-74 -318h-13z" />
<glyph unicode="&#xe000;" horiz-adv-x="530" d="M0 0v530h530v-530h-530z" />
<glyph unicode="&#xfb03;" horiz-adv-x="962" d="M92 507l2 12l99 12l14 89q5 28 11 49t21.5 48.5t45.5 43t72 15.5q24 0 107 -17l-2 -14l-106 7q-50 3 -82 -29t-43 -103l-14 -89h337l8 53q15 92 68.5 147t140.5 55q95 0 176 -19l-2 -14l-171 8q-72 3 -123 -41t-65 -136l-8 -53l370 -7l-83 -524h-24l80 507h-347l-80 -507 h-24l80 507h-337l-80 -507h-24l80 507h-97z" />
<glyph unicode="&#xfb04;" horiz-adv-x="1104" d="M92 507l2 12l99 12l14 89q4 22 7.5 38t14.5 40.5t25.5 39.5t41 26.5t60.5 11.5q25 0 108 -17l-2 -14l-106 7q-50 3 -82 -29t-43 -103l-14 -89h333l8 58q14 88 62 143t129 54h244l-94 -594q-5 -32 -5.5 -58t2 -42.5t10 -29t13 -18.5t17 -10t15 -5t14.5 -2q66 -11 73 -11 l-3 -13h-67q-63 0 -86 45.5t-7 143.5l91 570h-215q-64 0 -109.5 -44t-59.5 -134l-8 -53h147l-4 -24h-147l-80 -507h-24l80 507h-333l-80 -507h-24l80 507h-97z" />
</font>
</defs>
</svg>
