<?xml version="1.0" standalone="no"?>
<!DOCTYPE svg PUBLIC "-//W3C//DTD SVG 1.1//EN" "http://www.w3.org/Graphics/SVG/1.1/DTD/svg11.dtd" >
<svg xmlns="http://www.w3.org/2000/svg">
<metadata></metadata>
<defs>
<font id="poilet_taperregular" horiz-adv-x="339" >
<font-face units-per-em="1000" ascent="800" descent="-200" />
<missing-glyph horiz-adv-x="500" />
<glyph horiz-adv-x="1000" />
<glyph horiz-adv-x="1000" />
<glyph unicode="&#xd;" horiz-adv-x="500" />
<glyph unicode=" "  horiz-adv-x="500" />
<glyph unicode="&#x09;" horiz-adv-x="500" />
<glyph unicode="&#xa0;" horiz-adv-x="500" />
<glyph unicode="!" horiz-adv-x="231" d="M130 264q0 -53 -33 -81q-2 2 -17 19q-11 12 -11 15q0 10 21 34q0 3 -3.5 9.5t-3.5 8.5q0 36 0 35q10 11 10 17q0 2 -7 23.5t-7 32.5t6 15q-1 2 -11 12q-8 7 -8 12q0 3 5.5 10.5t5.5 11.5q0 3 -5.5 15t-6.5 18q2 12 1 37q-1 4 -5.5 12t-4.5 11t24 53h13q9 -12 23 -35 q2 -5 1 -19q-3 -16 -2 -21q1 -6 7 -17.5t6 -14.5t-11 -14q11 -21 11 -35q0 -3 -5.5 -10.5t-5.5 -11.5q0 -3 3.5 -7.5t3.5 -6.5q0 -6 -2.5 -23.5t-1.5 -24.5q10 -52 10 -80zM122 94q0 -3 -6.5 -10t-8.5 -12q-3 -11 -12 -32q-51 2 -47 47q3 2 22 17q9 7 26 7q26 0 26 -17z" />
<glyph unicode="&#x22;" horiz-adv-x="335" d="M284 672q3 -13 -9 -37.5t-11 -35.5q-8 -8 -16 -27q-19 -22 -53 -69q-3 -19 -6 -37q-7 -36 -23 -36q-4 0 -7.5 1.5l-3.5 1.5q0 5 -1.5 19t-1.5 17q0 2 19.5 34.5t24.5 48.5l9 39q6 7 12 22q-1 11 2 32q8 5 20 16q3 8 7.5 16.5t14.5 8.5q2 0 23 -14zM178 651q-7 -5 -28 -39 l-27 -27q-1 -5 0 -10q-22 -24 -28 -50q-1 -2 -6 -43q-7 -9 -13 -30q-3 -11 -15 -11q-3 0 -5.5 1.5t-4.5 1.5q0 4 -3 15.5t-3 14.5t8 27q9 29 12 43t22 34q0 13 8 35q-5 28 -4 42q3 3 26 32q13 17 25 17q22 0 30 -18q1 -3 6 -35z" />
<glyph unicode="#" horiz-adv-x="645" d="M588 409q0 -3 -1.5 -8t-1.5 -8q-6 0 -20 2.5t-17 2.5q-10 -3 -25.5 -9t-25.5 -9q-3 0 -7 1t-7 1q-17 0 -29.5 -22.5t-12.5 -43.5q0 -6 1 -9q-17 -54 -17 -79q0 -18 11 -18q3 0 7 2.5t6 2.5q4 0 18 -5.5t17 -5.5t10 4t10 4q10 0 29.5 -13.5t19.5 -18.5q0 -17 -9.5 -31 t-23.5 -14q-12 0 -13 2q-4 9 -9 14q-33 -13 -42 -13q-3 0 -11 8q-6 -5 -16 -13q0 -17 -7.5 -54t-7.5 -54q0 -15 4 -27q-6 -33 -26 -33q-36 0 -36 44q0 3 6 21q3 9 7 19q5 23 -4 59q2 1 7.5 18t5.5 20q0 16 -78 29q-3 0 -4 -1.5t-5 -1.5q-3 0 -23 7t-23 7t-9.5 -4t-9.5 -4 t-8.5 4t-8.5 4q-8 0 -19 -12.5t-22 -24.5l6 -22q3 -15 0 -23q-7 -20 -16 -61q-12 -13 -20 -30q-11 1 -21 9q-13 10 -13 24q0 -3 11 40q10 4 12 8q19 62 19 72q0 20 -45 20q-3 0 -22.5 -4t-22.5 -4q-12 0 -22 8.5t-10 15.5q0 23 17 23q4 0 35.5 -4t35.5 -4q15 0 23 16 q2 10 5 20q4 15 16 25q-4 26 2 40q5 8 11 18t4 15q-6 7 -21 7q-4 0 -18 -2.5t-17 -2.5q-7 0 -23.5 11.5t-16.5 17.5q0 9 12 18q9 9 13 9t5 -1.5t5 -1.5q3 0 11 5.5t11 5.5q4 0 10.5 -4t9.5 -4q10 0 13 2t22 29q-1 4 -1 9q0 15 27 71q2 11 10 34q0 2 -5 16q-4 11 -1 16 q2 6 12.5 15.5t15.5 9.5q4 0 16 -12t16 -15q-3 -14 -6 -42q-10 -2 -12 -19v-26q-1 -7 -1 -10q-3 -9 -13 -28t-10 -22q0 -15 9 -15q3 0 4.5 1.5t4.5 1.5q4 0 16 -8t15 -8t23.5 9.5t24.5 9.5q2 0 8.5 -7t11.5 -7q10 0 12 12t4 14q16 5 31 11q22 8 26.5 16t4.5 35q0 7 -1 24v25 q0 68 24 68q9 0 21.5 -13.5t12.5 -22.5q0 -18 -25 -64q2 -11 -1 -24q-3 -17 -3 -22q0 -10 7 -19q24 8 25 8q5 0 57 -16q3 0 4 1.5t4 1.5q11 0 21 -17.5t10 -22.5zM396 356q0 16 -13.5 24t-27.5 8q-3 0 -22.5 -8t-22.5 -8q-4 0 -7.5 2.5t-6.5 2.5t-8.5 -5.5t-8.5 -5.5t-9 4 t-9 4t-8 -4t-8 -4q-4 0 -6 3t-5 3q2 0 -7 -5q3 -9 1 -17q-8 -10 -33 -29q-22 -15 -25 -23q23 -3 23 -20q0 -5 -2 -17t-2 -18q0 -16 11 -25q7 0 23.5 -3t18.5 -3q7 0 15 4t10 4q4 0 15 -5t14 -5t9 3.5t9 3.5t14 -6.5t14 -6.5q41 0 36 41q7 6 15 16q2 20 -4 30q7 33 7 65z" />
<glyph unicode="$" horiz-adv-x="360" d="M290 179q0 5 -12 -38q-8 -6 -23 -9q-21 -4 -24 -5.5t-12.5 -8.5t-13.5 -7t-6.5 1.5t-5.5 1.5q-8 0 -28 -15l-4 -45q0 -2 -4.5 -8.5t-4.5 -10.5q0 -3 8 -16.5t8 -16.5q0 -1 -11 -22t-12 -25q-7 -3 -11 -6q-3 3 -9 3q0 6 8 14q-27 26 -27 36q0 9 16 21q1 5 1 12 q0 8 -3.5 24.5t-3.5 24.5q0 6 2.5 9t11.5 9q-4 12 -18 12q-3 0 -9 -3t-9 -3q-13 0 -34 10q-25 11 -25 25q0 21 31 21q12 0 31 -12t17 -12q4 0 16 8t15 8t8 -4t8 -4t15 8t15 8q4 0 4.5 -1t3.5 -1q12 0 24 12q0 2 -4 7t-4 9q0 3 8 21.5t8 21.5q0 21 -36 37q-30 14 -46 14 q-3 0 -10 -2.5t-10 -2.5t-10.5 4t-10.5 4q2 0 -22 -8l-8 8q1 0 -16 0q-2 1 0 8q2 9 2 12t-6 9.5t-7 8.5q-6 12 -6 36q0 11 22 40q19 24 27 31q21 13 61 43q6 37 22 111q3 20 6 39q6 34 20 34q12 0 21.5 -11t9.5 -19v-12q-19 0 -25 -26q-2 -20 -5 -40q-2 -8 -11 -30 q-8 -17 -7 -31q4 -7 14 -9q6 -1 12 -1q3 -2 11 -8.5t11 -6.5t6 1t6 1q10 0 23 -7t13 -16q0 -10 -8 -16t-13 -6q-4 0 -24.5 4t-23.5 4q-12 0 -60 -18q-51 -20 -54 -29q-9 -25 -9 -26q0 -3 16 -17q20 -17 26 -24q65 5 135 -67q4 -4 5 -20q2 -22 3 -23q0 -4 7.5 -13t7.5 -14z " />
<glyph unicode="%" horiz-adv-x="608" d="M210 502q0 1 -4 -19q-2 -15 0 -31q-5 -9 -18 -29q-6 -3 -20 -11q-2 -10 -9.5 -22.5t-13.5 -12.5q-3 0 -12.5 4t-14.5 4q-3 0 -8 -1.5t-8 -1.5q-14 0 -33 33q-18 30 -18 43q0 17 10 53q9 27 17 54q18 24 50 64q4 0 17 3t19 3q17 -15 41 -68v-8q-3 -3 -11 -3 q0 -1 -1.5 -2.5t-1.5 -4.5t9.5 -23t9.5 -24zM527 168q0 -3 -5 -18.5t-5 -21.5q-6 -38 -14 -64q0 -16 -7 -43q-4 -7 -16.5 -14.5t-18.5 -7.5q-3 0 -17.5 8t-18.5 8q-3 0 -7 -1t-8 -1q-13 20 -37 62q0 3 3 9t3 7q2 7 -3.5 26t-5.5 34q0 29 0 23q15 16 9 45q12 16 38 46 q-4 6 -7 18q3 6 22.5 19.5t22.5 13.5q32 0 53 -30q19 -26 19 -54v-64zM447 521q0 -4 -13.5 -31.5t-16.5 -27.5t-5 1.5t-3 1.5q-14 -51 -47 -74q-4 -35 -24 -58q1 -11 -7.5 -27.5t-7.5 -28.5q-12 -14 -36 -37q0 -2 2.5 -9.5t1.5 -12.5q-11 -7 -30 -24q-4 -4 -8 -24.5 t-10 -25.5q-10 -4 -24 -16q-4 -14 -18 -45q-5 -4 -14 -14q-1 -4 -2 -10q-9 -8 -28 -25q-3 -7 -12 -21q-1 -1 -16 -8h-9q-6 14 -6 47q14 17 41 47q13 8 33 30q18 35 51 88q1 11 6 32q2 3 19 32q9 7 22 24q1 7 2 23q6 5 31 37q-1 1 -4 5t-4 6q8 10 21 32q2 4 -2 12q6 12 28 44 q-2 9 -1 26q7 8 20 22q8 12 17 23q14 18 29 18t24 -32zM178 513q0 21 -19 54q-9 1 -25 4q-10 -12 -24 -32l-8 -22q-9 -17 -22 -21q8 -30 16 -41q11 -14 33 -14q14 0 28 6q1 13 11 30t10 36zM495 179q0 2 -6 25.5t-6 33.5h-25q-29 -46 -37 -75q-2 -6 1 -17t3 -15 q-1 -2 -4.5 -7.5t-3.5 -8.5q0 -15 16 -15q23 0 42.5 24t19.5 55z" />
<glyph unicode="&#x26;" horiz-adv-x="588" d="M534 1q0 -12 -26 -23q-22 -8 -29 -8q-11 0 -32 8q-25 9 -34 21q-20 -4 -47 33q-9 13 -30 29q-8 -8 -26 -24q-3 3 -13 3q2 -11 -3 -27q-7 -7 -22.5 -14.5t-21.5 -7.5q-3 0 -5 1.5t-6 1.5q-3 0 -11 -8t-11 -8h-24q-3 0 -11.5 5.5t-11.5 5.5t-5.5 -1.5t-6.5 -1.5 q-23 0 -39 11t-33 23q-10 3 -27 15q1 7 -1 21q-3 7 -17 38q-12 24 -12 28q0 10 4 13t4 18v8q15 3 16 24l1 34q2 7 13 17.5t14 16.5q16 3 22 17q8 20 20 36q10 13 10 15q0 11 -14 38q-12 21 -17 27q-4 14 -4 24q0 14 10.5 39t10.5 47q0 11 -2 24q14 4 14 12q0 4 -3 9 q6 7 19 18q23 2 25 11q-2 7 -4 21q8 10 24 29q2 2 25 11t28 9q4 0 19 -20l14 -22q24 8 22 8q19 0 25 -27q22 -12 31 -89q0 -26 -20 -62.5t-18 -57.5q-6 -7 -18 -13l8 -24q-16 -5 -40 -15q-7 -5 -19 -23t-12 -28q0 -3 10.5 -20.5t12.5 -24.5q-1 -5 -2 -16q5 -4 12.5 -16 t11.5 -12q3 0 4 1t4 1q4 0 12 -8q22 11 39 9l34 30q17 12 42 12q17 0 21 -21q1 -14 1 -28l4.5 -4.5t3.5 -7.5q0 -8 -9 -17l-15 -15q-3 -11 -3 -36q0 -21 24.5 -39t44.5 -18q4 0 6.5 1t5.5 1q12 0 22.5 -13.5t10.5 -24.5zM306 514q0 6 -25 35.5t-38 29.5q-38 0 -38 -28 q0 -9 4 -21q-16 -7 -25 -29q-5 -13 -9 -26q-3 -5 -11 -14q-4 -4 -4 -15q0 -16 6 -26q9 -16 16 -39q10 -8 27 -20q17 10 33 42q14 28 29 30q0 12 1 14q6 5 20 31t14 36zM293 100q-9 3 -25 12q-5 3 -13 24q-21 6 -29 21q-20 34 -26 41q-3 4 -4.5 23.5t-13.5 27.5 q-11 -4 -27 -20t-24 -20q-6 -22 -20 -64q-2 -5 -7.5 -12.5t-5.5 -10.5t17 -31q16 -7 21 -22q3 -11 25 -11q2 0 13 5.5t13 5.5q3 0 8 -3t8 -3q4 0 10.5 1.5t9.5 1.5t7 2.5t7 2.5t5 -2.5t5 -2.5q7 0 18 11q16 16 28 23z" />
<glyph unicode="'" horiz-adv-x="114" d="M99 652q-4 -8 -10 -47q-5 -11 -15 -36q1 -5 5 -9q-8 -22 -8 -41q0 -13 13 -58q-1 -5 0 -29q0 -15 -10 -20q-3 1 -11 -1q-1 4 -8 13.5t-9 12.5q-2 23 -9 71q-3 15 7 41q-1 4 -6 19q-3 8 0 16q-15 24 -20 38q1 3 11 39q6 21 17 25q8 4 15 4q13 0 22 -13t16 -25z" />
<glyph unicode="(" horiz-adv-x="201" d="M167 677q2 -4 4 -38t0 -35l-9 -3q3 -16 -38 -54q-44 -41 -46 -56q4 -32 2 -62q1 -18 5 -55q-1 -18 -4 -52q2 -4 5 -15q-2 -12 -5 -38q0 -5 16.5 -28t15.5 -31q-1 -3 -5 -13.5t-4 -16.5q0 -5 33.5 -30.5t33.5 -37.5q-3 -7 -6 -22q2 -4 4 -11q-5 -13 -13 -41q1 -9 0 -27 q0 -2 -9 -19l-8 -6q-12 10 -29 40q4 24 13 70q1 5 -17.5 31.5t-18.5 34.5q0 15 -29.5 51t-29.5 48q0 4 9.5 21t9.5 23t-11 10t-11 10v14.5v17.5q0 3 3 21t3 23.5t8 19.5t8 22q-14 17 -28 35q0 4 13.5 2.5t13.5 5.5v9q0 7 14 26t15 33q-3 7 -8 22q-1 4 21 22.5t23 23.5 q2 21 5 41q6 29 23 29q13 0 28 -15z" />
<glyph unicode=")" horiz-adv-x="201" d="M23 2q-2 3 -4 37t0 36l9 3q-4 16 39 55t45 55q-4 31 -3 62q0 18 -5 54q2 19 5 52q-2 4 -5 15q2 12 5 38q0 6 -16.5 29t-15.5 31q1 3 5 13.5t4 15.5t-33.5 31t-33.5 38q2 7 6 22q-2 4 -4 11q5 13 12 40q0 9 1 28q0 2 9 18l8 6q12 -9 28 -39q-3 -25 -12 -70 q-1 -5 17.5 -31.5t18.5 -35.5q0 -15 29.5 -50.5t29.5 -47.5q0 -4 -9.5 -21.5t-9.5 -22.5q0 -6 11 -10.5t11 -9.5v-14.5v-18.5q0 -2 -3 -20t-3 -22q0 -8 -8 -21.5t-8 -22.5l28 -34q0 -5 -14 -3t-14 -5q0 -4 1 -9q0 -8 -14 -26.5t-16 -33.5q4 -7 9 -22q1 -3 -21 -21.5 t-23 -23.5q-2 -21 -5 -42q-7 -29 -23 -29q-13 0 -28 16z" />
<glyph unicode="*" horiz-adv-x="456" d="M173 448q-4 -1 -19 -5.5t-19 -4.5t-7 2t-4 2t-18.5 -6t-21.5 -6q-2 0 -11 1.5t-16 1.5q0 6 -2.5 15t-2.5 13q0 19 31 19q4 0 8.5 -3t5.5 -3q9 0 26.5 5t25.5 5q3 0 11 -1t11 -1q9 0 9 21q0 -6 -11 64q4 9 1 15q-4 8 -4 11q0 9 7 19q9 14 23 14q11 0 14 -28q2 -23 -1 -34 q-2 0 -3 -1q4 -12 2 -30q-3 -19 -2 -22q3 -5 7 -16h13q9 1 11 1t12.5 4.5t14.5 4.5q10 0 17.5 -7.5t13.5 -7.5q1 0 14.5 7t17.5 7q6 0 17 -9v-39l-2 -2l-1 -1q-3 -4 -10 -4q-2 0 -5.5 1t-6 1t-23 2t-23.5 2t-27 -2q-1 -7 4 -11t14 -14q2 -3 2.5 -11.5t2 -10.5t6.5 -7l14 -15 q10 -10 22 -24q3 -4 2 -9v-2q18 -1 17 -16q0 -4 1.5 -4.5t4.5 -4.5q4 -6 0 -13q-3 -4 -14 -20q-11 1 -35 3q-3 -3 -6.5 2t-3.5 9q1 5 2 9q-1 0 -2 1l-9 4q-13 6 -15 8q-12 18 -6 32q3 8 -4 18q-2 4 -2 8v1q-4 0 -14 2q-2 6 -2 9v6q-1 7 -8 11q-13 7 -12 14q-1 2 -3 3l-1 1 l-32 -37q-1 -1 -6 -25t-6.5 -28t-17.5 -27q-11 -3 -14 -2q-33 16 -33 33q0 31 31 50q1 1 20 13q4 8 15 22l9 10q4 5 6 7z" />
<glyph unicode="+" horiz-adv-x="456" d="M393 290q-6 -6 -9 -6t-5.5 1.5t-6.5 1.5q-3 0 -38.5 -13.5t-38.5 -13.5q-9 0 -27.5 18.5t-32.5 18.5q-3 0 -11 -5q-10 -8 -14 -10v-74q0 -3 12 -37t12 -37v-35q-6 -6 -8 -6q-33 0 -44.5 11t-11.5 42q0 19 1 20q1 5 17 40q-2 11 1 35q2 28 2 30q0 6 -6.5 13.5t-10.5 7.5 t-22.5 -6.5t-21.5 -6.5t-5.5 2.5t-6.5 2.5q-2 0 -21.5 -8t-23.5 -8q-2 0 -11 1.5t-14 1.5q0 6 -2.5 17.5t-2.5 14.5q0 18 29 18q2 0 7 -4t9 -4q3 0 29 7t29 7t12 -1.5t12 -1.5q16 0 16 36q0 -8 -11 85q3 12 0 22q-5 13 -5 14q0 9 8 23t20 14q11 0 12 -34q1 -27 -1 -37 q-3 -1 -6 -5q4 -11 4 -25q0 -8 -2 -28q-2 -15 0 -21l7 -26h19h14q3 0 15 7t15 7q9 0 17 -11t18 -11q3 0 16.5 13.5t16.5 13.5t12.5 -9.5t12.5 -9.5t5.5 1.5t6.5 1.5q5 0 13 -9v-46z" />
<glyph unicode="," horiz-adv-x="268" d="M162 204q0 -3 -5.5 -14t-6.5 -17q-2 -4 6 -20q2 -5 -7 -15v-2q0 -7 5 -12q-5 -3 -5 -6q1 -4 7 -13q1 -5 0 -9q-15 -34 -48 -94h-9q-1 2 -7.5 9.5t-6.5 10.5t3.5 7.5t3.5 6.5q3 19 9 35q5 13 5 15q0 5 -7 13q-1 6 10 16q-5 5 -3 24q-7 1 -20 5q-8 9 -26 29q-4 3 -4 17 q0 8 5.5 16.5t5.5 23.5q30 25 45 25q13 0 31.5 -21t18.5 -30z" />
<glyph unicode="-" horiz-adv-x="485" d="M402 306q-7 -11 -22 -32q1 -1 -5 -1q-3 0 -9.5 5.5t-9.5 5.5q-28 -16 -29 -16q-24 0 -34.5 12t-29.5 12q-3 0 -18 -6.5t-18 -6.5t-13 2.5t-13 2.5t-12 -6.5t-12 -6.5t-13 5q-1 -1 -4.5 -5.5t-6.5 -7.5q-2 1 -12 5.5t-13 4.5t-11.5 -4t-11.5 -4t-5 1.5t-6 1.5q-2 0 -11 -4 t-13 -4q-9 0 -23.5 11.5t-14.5 19.5q0 4 6.5 12t10.5 8t11 -3t10 -3q6 0 16 11q16 -8 15 -8q3 0 15 2.5t16 2.5q3 0 13 -5t13 -5q4 0 35 9t34 9q4 0 6 -1t5 -1t20.5 6.5t20.5 6.5t13 -4t14 -4q2 0 8 5t9 5l16 -8q6 14 13 14q4 0 10.5 -4t9.5 -4q4 0 4 1t3 1q5 0 23 -28z" />
<glyph unicode="." horiz-adv-x="236" d="M136 219q-7 -8 -21 -27q1 -16 -10 -35q-11 -7 -24 -14q-49 28 -41 93q3 4 10 6q11 2 12 3q27 12 34 12q8 0 14 -11q3 -8 8.5 -13.5t17.5 -13.5z" />
<glyph unicode="/" horiz-adv-x="265" d="M226 645q1 -4 -5 -37t-8.5 -34t-8.5 -2q-1 -57 -27 -95q6 -37 -7 -70q2 -6 2 -12t-2 -17.5t-2 -17.5q0 -8 2 -15q-8 -20 -26 -54q5 -6 11 -20q-9 -12 -24 -38q-3 -6 -1 -28t-3 -30q-9 -9 -20 -28q0 -16 -5 -53q-4 -6 -11 -20q0 -1 1 -5.5t1 -5.5q-8 -12 -21 -37 q-2 -9 -7 -27q0 -2 -13 -16l-9 -4q-10 12 -19 45q9 23 28 65q10 14 24 45q8 43 26 112q2 5 0 16q-3 13 -2 19q1 3 10 40q7 11 16 34q-1 -1 -5 25q4 7 21 51q-2 1 -6 3.5t-5 3.5q4 14 11 42q1 4 -5 11q3 15 16 57q0 3 -4.5 12t-3.5 14q5 10 13 31q7 18 14 37q11 25 26 25 q14 0 28 -22z" />
<glyph unicode="0" horiz-adv-x="491" d="M394 295q0 -3 -2 -13.5t-2 -14.5q2 -17 -3 -49q-5 -8 -11 -26q0 -15 -5 -45q-7 -9 -19 -30q-1 -6 -2 -18q-1 -4 -15 -28t-21 -24q-3 0 -7.5 4t-7.5 4t-5.5 -2.5t-6.5 -2.5q-3 0 -5.5 2.5t-6.5 2.5q-3 0 -5 -1t-5 -1q-6 0 -54 18q-3 0 -15.5 -2.5t-16.5 -2.5q-5 0 -43 33 q-42 37 -39 56q-13 16 -40 39q-4 24 -9 70q4 8 7 24q-1 24 -8 66l-10 31q0 1 13 21q0 4 1 13q13 22 30 66q8 15 19 43q5 16 9 32q10 27 27 27q3 0 14.5 -6.5t14.5 -6.5t20 6.5t20 6.5q17 0 71 -26q15 -6 43 -23q13 -23 35 -61q9 -10 23 -32q0 -18 3 -53q1 -3 4 -9.5t3 -9.5 q0 -4 -3 -23q-2 -16 0 -25q0 -4 5 -15.5t5 -14.5zM364 332q0 -5 -15 38q12 26 -2 41q-9 7 -19 21q1 10 -2 26q-18 21 -39 43q-7 1 -15 4.5t-15 22.5q-48 4 -84 0q-1 -38 -44 -46q-9 -10 -21 -31q-1 -10 -1 -20.5t-13 -17.5q0 -12 -6 -23.5t-6 -15.5q0 -1 3.5 -10t2.5 -33 v-80q6 -16 14 -43q51 -43 90 -88q4 0 13 -2t12 -2q4 0 19 8.5t21 14t30 26.5q3 7 10 17q27 9 42 42q2 13 7 40q-1 15 8.5 37t9.5 31z" />
<glyph unicode="1" horiz-adv-x="373" d="M359 -7q0 -17 -13 -17q-3 0 -6.5 2.5t-7.5 2.5q-3 0 -9.5 -7t-9.5 -9l-12 7q-6 1 -13 2q-10 2 -13 10q-9 -7 -27 -16q-11 13 -17 13q-3 0 -4.5 -1.5t-4.5 -1.5q1 0 -16 6.5t-30 6.5q-3 0 -31.5 -2.5t-31.5 -2.5q-17 0 -28 15q11 12 20 12q3 0 8 -1.5t8 -1.5q2 0 24.5 5.5 t33.5 5.5q6 9 22 28q0 1 -4 21q8 6 17 19q3 8 9 51.5t6 55.5q0 2 -6 29.5t-7 38.5l-3 82q0 11 7 20q0 24 -1 35t-1 23q0 3 10.5 44t10.5 45q0 12 -9 26q-14 -7 -38 -28q-1 -11 -7 -27q-10 -12 -42 -33q-47 -29 -54 -34q-11 3 -17 45q21 13 54 54q42 52 58 67 q-2 11 15.5 31.5t22.5 20.5q3 0 10 -4t10 -4t4.5 1.5t4.5 1.5q11 0 19 -25q7 -19 7 -26q0 -2 -5 -16.5t-5 -22.5q-7 -67 -7 -106q0 -3 3 -12t2 -12q-12 -25 -12 -32q0 -3 4.5 -8t4.5 -8q0 -7 2 -23.5t2 -18.5q0 -40 -11 -54v-127q6 -32 14 -92q8 -5 16 -5q35 0 45 -3 q29 -10 29 -46zM80 -7q-11 -12 -17 -15h-12q-6 6 -6 11q0 16 14 16q9 0 21 -12z" />
<glyph unicode="2" horiz-adv-x="432" d="M354 522q0 -1 -10 -22q-3 -5 1 -23q-12 -30 -27 -88q-6 -14 -5 -22q-19 -39 -70 -118q-6 7 -9 16q0 3 20 63q23 69 30 93q-1 7 -1 19q4 24 -4 31q16 20 16 36q0 4 -3.5 9.5t-3.5 7.5q0 18 -4 45q-5 9 -19.5 15t-19.5 6q-13 0 -58 -24q-3 0 -3 1v0q0 2 -3 2t-10 -8t-10 -8 t-5 1t-6 1q-3 0 -10.5 -8t-10.5 -8q-4 0 -6.5 1.5t-3.5 1.5q-2 -1 -7 -15q-4 -9 -15 -9q-12 0 -12 19q0 2 8 21.5t10 28.5q20 14 39 42q11 -1 38 16t34 17q3 0 5 -3t6 -3q2 0 10 7t12 7q16 0 49 -24q30 -21 33 -28q10 -26 16 -51q-2 -8 -1 -24q0 -2 5 -9.5t5 -11.5zM441 2 q3 -27 -8 -46.5t-35 -19.5q-4 0 -6 2.5t-5 2.5t-8 -4t-8 -4t-14 10t-16 13q-14 2 -29 4q-21 4 -24 24q-3 0 -9 -4t-9 -4t-6 2.5t-6 2.5q-4 0 -9 -2.5t-8 -2.5t-9.5 3.5t-9.5 3.5t-10.5 -5t-10.5 -5q-4 0 -6 1.5t-5 1.5t-13.5 -4t-14.5 -4q-3 0 -8.5 1t-8.5 1t-14 -9t-14 -9 t-16.5 4t-16.5 4t-11 -5.5t-12 -5.5q-3 0 -13.5 16.5t-10.5 19.5q0 -1 21 21q-4 9 -1 17q2 7 16 16q18 12 20 14q12 10 68 87q0 4 2 13q10 20 19 38.5t34 36.5h12q6 -6 6 -9q0 -15 -41.5 -75t-41.5 -83q0 -7 3 -13q-18 -17 -18 -18q0 -8 6.5 -14t11.5 -6q4 0 10 2.5t9 2.5 t39 -4t39 -4t14 6t16 8q4 -7 13 -19q5 2 13 15q3 6 18 11.5t21 5.5q2 0 9 -4t11 -4q5 0 21 16q19 -14 54 -40z" />
<glyph unicode="3" horiz-adv-x="549" d="M473 117q-6 -7 -10 -56q-19 -21 -53 -66q0 -7 -6 -19q-17 -6 -34 -13q-21 -10 -36 -22q-32 16 -56 16q-3 0 -32 -4t-32 -4q-11 0 -29 17t-23 17q-2 0 -9 -3.5t-11 -3.5q-3 0 -17 13t-17 13q-4 0 -4 -1v0q0 -2 -3 -2q-12 0 -40.5 34t-28.5 41q0 25 36 40q3 -3 25 -41 q17 -31 32 -31q3 0 4.5 1.5t4.5 1.5q55 -43 63 -43q11 0 18.5 8t13.5 8q3 0 9.5 -9.5t10.5 -9.5q3 0 8 4t8 4t21 -4t21 -4q17 0 38 18q18 15 28 32q31 23 31 32q0 3 -10.5 47t-10.5 47t5.5 12.5t5.5 12.5q0 4 -4.5 9t-5.5 7q-1 6 -2 18q-29 29 -42 37q-18 10 -42 10 q-3 0 -6 -1t-6 -1t-7 4t-8 4q-2 0 -8 -7t-9 -7t-11 4t-12 4q-2 0 -15 -5t-21 -5q-24 0 -31 20q-3 19 -7 38q9 3 24 11q2 5 7.5 16t30.5 14q2 2 12 24q8 18 15 18q3 0 3 -1.5t4 -1.5q7 0 13 17q7 23 9 25q14 9 35 34q14 37 14 62q0 32 -20 32q-4 0 -14 -8t-13 -8t-9.5 3 t-9.5 3t-15 -9.5t-16 -9.5q-3 0 -5 1.5t-5 1.5q-20 0 -43.5 -21.5l-23.5 -21.5q-3 0 -3 1v0q0 2 -3 2t-9 -4t-9 -4q-5 0 -12.5 8.5t-7.5 12.5q0 10 13 17q8 5 17 10q64 66 109 66q3 0 8 -1.5t8 -1.5q7 0 14 20.5t8 21.5q23 6 60 6q3 0 11 -9.5t12 -11.5q19 -8 27 -9 q6 -4 6 -14q0 -3 -4 -15q-3 -10 0 -28q-7 -4 -9 -17q-1 -8 -1 -17q-11 -37 -34 -70.5t-28 -52.5q-13 -14 -41 -43q-9 -8 3 -20q-15 -9 -24 -23q15 -10 46 -23q41 -9 62 -15q7 -9 22 -18q20 -13 21 -14q9 -14 19 -28q14 -18 34 -16q0 -6 4 -19t4 -16v-68z" />
<glyph unicode="4" horiz-adv-x="586" d="M516 280q-5 -13 -15 -38q-2 -5 -29.5 -22.5t-34.5 -17.5q-3 0 -22 7.5t-23 7.5q-18 0 -18 -57q-19 -20 -22 -42q-1 -4 2 -31q2 -32 2 -51q0 -63 -25 -63q-13 0 -27 27l7 14q-5 9 -16 26q0 10 7 10q5 0 13 -8q4 4 4 8q0 3 -5.5 22t-5.5 22q0 4 29 40q2 19 2 37q0 2 -3.5 9 t-2.5 9q9 21 18 49v17q7 0 -61 0q-82 0 -144 -37q-11 -6 -30 -6q-3 0 -10.5 5.5t-9.5 5.5q-3 0 -8.5 -5.5t-9.5 -5.5q-13 0 -22 22q-8 17 -8 27q5 5 2 14q6 13 6 27q1 0 2.5 1.5t5.5 1.5t9 -4t8 -4q10 0 15 15q-8 5 -24 16q5 13 20 40q-5 12 -3 38q2 2 7 13t5 14t-10 14v9 l6 6q21 -1 22.5 39.5t30.5 40.5q5 0 10 -5t5 -9v-94q0 -11 -4 -19q-2 -4 -11 -16t-9 -15t5.5 -10t5.5 -10q0 2 -16 -34q-1 -3 2 -23q1 -5 -2 -12.5t-3 -10.5q0 -24 20 -24q4 0 23 6.5t25 12.5q8 -8 13 -8q3 0 21 5t22 5q3 0 6.5 -2.5t6.5 -2.5t12 5.5t12 5.5t8 -3t8 -3 q5 0 9.5 6.5t16.5 7.5q16 29 16 67q0 12 -3 21q3 5 12 18q6 9 6 16q0 3 -9.5 41.5t-9.5 42.5q0 15 7 31.5t7 37.5q27 17 45 17q10 0 37 -19q-2 -40 -27.5 -120t-25.5 -112q0 -8 7.5 -15.5t15.5 -7.5q11 0 23 19h9q37 -32 70 -52zM380 245q0 3 -3 7q-2 0 -7 -3q0 -2 2 -5 t2 -4q0 1 3 2.5t3 2.5zM386 219l-9 10l-3 -3l9 -9z" />
<glyph unicode="5" horiz-adv-x="523" d="M394 576q0 -7 -11 -24.5t-16 -17.5q-46 0 -38 -1q-3 -2 -11 -10q-7 5 -11 16t-11 15q-8 1 -29 4t-24 3q-2 0 -6 -1.5t-7 -1.5t-13 8t-14 8q-3 0 -9 -5.5t-9 -7.5q-28 -12 -55 -16q0 -4 5 -4q-4 -20 -16 -57q0 -3 -6 -3q-25 0 -25 36v21q3 17 8 26q10 21 33 27 q53 15 48 15q3 0 5 -3t5 -3q4 0 19 13t18 19q24 -5 59 -5q3 0 7 4t6 4q4 0 21 -9.5t21 -9.5q3 0 8 1.5t8 1.5q13 0 26.5 -14t13.5 -29zM444 208q0 -5 -13 -24q1 -2 5.5 -6.5t4.5 -7.5q0 -19 -6 -48q-8 -40 -21 -40q-4 0 -4 1v0q0 2 -3 2q-16 0 -18 -13l-2 -21 q-8 -11 -23 -35q-7 0 -18 -5q-2 -20 -14 -20q-3 0 -7 1.5t-7 1.5q-9 0 -22 -8q-7 8 -11 10q-28 3 -34 3q-12 0 -13.5 -18.5t-24.5 -18.5q-16 0 -21.5 18.5t-19.5 18.5q2 0 -38 -23q-5 6 -27 20t-32.5 27.5t-18.5 13.5q-3 0 -2.5 -1.5t-2.5 -1.5q-5 0 -16 14t-11 19 q0 34 41 55q1 -1 13 -26q8 -18 25 -30q4 0 12 -1q3 -5 9 -9q15 -3 22 -14t20 -11q18 0 26 14q4 11 8 21q4 -1 12 -4.5t11 -3.5t8.5 2.5t7.5 2.5q6 0 13 -13q19 5 44 29l34 36q11 0 25 9q3 6 5 18q10 9 26 29q-10 18 -10 37q0 5 1 12t1 10q0 14 -24 14q-4 0 -6 -1.5t-5 -1.5 q-11 0 -11 11q0 1 1 5v6q0 18 -26 18q-3 0 -4 -1t-4 -1t-14 16q-14 19 -19 23q-29 22 -47 22q-16 0 -29 -13l-26 -26q-23 0 -26 -2q-19 -10 -24 -10q-13 0 -13 20q0 7 15 22q1 -1 1 5q0 4 -8 15t-8 23q0 10 4 23q0 1 -6 6.5t-6 9.5q0 24 3 37q2 6 16 28q17 0 20 -14 q0 -17 4 -45q18 -45 18 -43q0 -14 -10 -27q4 -4 9 -4q12 0 18 10t10 13q22 12 38 12q10 8 11 8q3 0 11 -8q20 13 28 13q18 0 41 -12q30 -15 85 -42q14 -7 31.5 -58.5t17.5 -72.5z" />
<glyph unicode="6" horiz-adv-x="504" d="M441 116q0 -25 -13 -45q-21 -31 -28 -49q-4 -8 -21 -9.5t-23 -8.5q-3 -10 -13 -25q-1 0 -27 -12q-1 -5 -6 -15q-42 10 -67 10q-2 0 -5 -4t-7 -4q-11 0 -63 30q-23 14 -63 58l-54 62q-2 8 -5 16q-4 13 -16 16q-6 22 -6 39q0 4 9 42q5 4 13 24q5 8 14 26q-2 7 -3 21 q0 2 17 64q2 10 -8 21q7 11 22 27q9 1 24 7q17 10 30 59q6 25 36 48q23 18 40.5 23t34.5 25.5t22 24t18 3.5q7 7 9 27q1 7 14 7t23 -10q11 1 11 12.5t9 11.5q26 0 53 -25q-2 -11 -20 -37q-20 -29 -29 -29q-3 0 -6 4t-6 4t-10.5 -6.5t-10.5 -6.5q-4 0 -8.5 2.5t-7.5 2.5 q-10 0 -49 -29q-4 0 -4.5 1.5t-3.5 1.5q-17 -16 -53 -33q-39 -43 -44 -50q-26 -33 -26 -58q0 -9 4 -18q-45 -26 -45 -91q0 -51 21 -51q3 0 23.5 12.5t28.5 15.5q7 0 21 2q5 7 16 14q54 9 72 9q3 0 26.5 -5t26.5 -5t9.5 2.5t9.5 2.5q10 0 33.5 -14t28 -21t6.5 -30 q9 -6 23 -24q-2 -8 -4 -24q1 -7 4 -21t3 -18zM367 142q0 57 -76 86q-23 -29 -28 -29q-3 0 -19 4t-19 4q-4 0 -16 -8t-15 -8q-4 0 -6.5 1.5t-5.5 1.5q-12 0 -65 -38q-4 -32 15 -60.5t47 -44.5q11 -4 22 -7q15 -5 18 -18q31 11 28 11q4 0 11.5 -4t10.5 -4q27 0 62.5 41.5 t35.5 71.5z" />
<glyph unicode="7" horiz-adv-x="476" d="M412 565q0 -3 -4 -18.5t-4 -22.5q-7 -3 -20 -16t-14 -18q1 -11 -1 -32q-7 -7 -20 -22q0 -44 2 -23q-2 -18 -18 -27q0 -6 -5.5 -17.5t-5.5 -14.5q0 -13 42.5 -30.5t42.5 -31.5q0 -16 -15.5 -25.5t-27.5 -9.5q-5 0 -15.5 13.5t-21.5 13.5q-6 0 -21.5 -11.5t-24.5 -9.5 q-4 -19 -7 -38q-6 -22 -21 -38q4 -24 -17 -78q-23 -59 -23 -88q-1 -3 -7 -3q-7 0 -30 17q6 14 15 57q7 33 16 37q0 39 24 101q1 2 6 6t5 8q0 3 -2.5 16t-2.5 19q-4 2 -16 2q-4 0 -31 -5t-30 -5q-17 0 -30 9q-16 11 -16 28q0 11 11 20t21 9q4 0 12 -10.5t11 -10.5t7 2.5 t7 2.5q4 0 6.5 -1t5.5 -1q4 0 14 5t13 5t10 -2.5t10 -2.5q9 0 28 25q-2 30 10.5 58t33.5 41q-11 26 -11 42q0 3 8 15t8 14q0 10 -42.5 30t-49.5 20q-2 0 -18.5 -3t-23.5 -4q-4 -5 -13 -14q-6 0 -17 -3t-14 -3t-6.5 2.5t-6.5 2.5q-4 0 -15.5 -4t-14.5 -4h-35q-7 0 -20.5 12 t-13.5 21q0 15 44 24q31 7 47 7q2 0 16.5 -6.5t17.5 -6.5q4 0 31.5 8t31.5 8q3 0 20 -5.5t20 -5.5q31 29 38 29q3 0 8 -1t9 -1q2 3 0 11q-1 6 8 10q18 -7 33 -18q12 -9 14 -9q3 0 6.5 3t6.5 3q7 0 11 -11q1 -7 3 -14q1 -1 9.5 -14t8.5 -18z" />
<glyph unicode="8" horiz-adv-x="525" d="M452 90q0 -28 -6 -39q-11 -8 -31 -27l-14 -24q-12 -19 -19 -19q-4 0 -7 2.5t-4 2.5q-2 -2 -2 -10q-3 -2 -16 -4q-3 -4 -11 -12q-11 -7 -37 -18q-30 -9 -58 -9q-20 0 -25 -3h-9q-2 8 -5.5 15t-13.5 7q-3 0 -7 -1.5t-8 -1.5q-12 0 -16.5 7.5t-8.5 13.5q-2 1 -17 4 q-6 6 -50 27q-34 16 -49 47q3 7 5 22q-2 18 -19 64q12 10 15 28l2 28q36 21 36 66q0 16 -5 30q4 3 33 3q13 0 31 43q9 26 18 51q-4 4 -28 16q-19 9 -27 21q-19 32 -19 58q0 3 3 14t4 14q-1 10 -1 27q3 3 20 9t26 20.5t7 23.5q11 6 29 21q23 2 75 10q47 7 50 7t13 -4t13 -4 q4 0 11 3.5t12 4.5q6 -10 12 -21q10 -16 18 -19q1 -7 -9.5 -26t-10.5 -26q-1 -13 -2 -40q-20 -30 -68 -82q4 -19 54 -73q1 -7 5.5 -18t29.5 -42q5 -13 20 -39q8 -4 23 -16q3 -4 1 -21q11 -12 25 -62q12 -42 12 -49zM306 506q0 17 -4 30q-1 3 -8 10t-7 11q0 9 5.5 12.5 t5.5 5.5q0 23 -37 23q-17 0 -23 -1q-17 -15 -27 -15q-3 0 -3.5 1t-4.5 1q-9 0 -29 -10t-24 -15q2 -9 3 -26q-20 -24 -20 -27q0 -4 3 -9t4 -7q-5 -15 -4 -19q7 -10 16 -29q8 -8 19 -20q5 3 15 3q9 0 16.5 -4t8.5 -4q33 0 49 17q9 8 36 55q10 18 10 17zM399 131q0 30 -7 48 q-9 24 -39 61q-8 0 -18 4q-8 13 -22 33q-11 14 -51 32q-30 14 -29 28q-28 -19 -73 -47q-1 -14 -21 -41q-24 -33 -27 -38q0 -1 -3 -26q-3 -19 -16 -27v-73q13 -16 35 -39q16 -6 45 -30q15 -3 13 -3q4 0 6.5 1t5.5 1q2 0 21.5 -8t25.5 -8q-1 0 12 10q30 3 90 21q13 4 26.5 8 t17.5 11q-11 10 -11 24q0 -3 9.5 13.5t9.5 44.5z" />
<glyph unicode="9" horiz-adv-x="496" d="M420 404q0 -19 -37 -40q0 -6 -3 -28q-2 -17 -1 -27q-6 1 -10 -11q-7 -22 -9 -26q2 -8 2 -16q0 -13 -7 -36q-7 -26 -8 -36q-15 -9 -21 -56q-13 -7 -13 -18v-20q-9 -2 -23 -13q-3 -9 -13 -29q2 -7 1 -18q-3 -10 -17 -28q-16 -21 -26 -21h-22v28q12 23 25 53q3 7 -1 22 q11 8 28 32q15 20 22 24q0 3 -2.5 12.5t-2.5 13.5q0 21 20 50t20 40q0 -8 -10 31q-9 -14 -31 -34q-11 -4 -21 -7q-17 -7 -21 -20q-11 0 -17 4q9 1 -73 1q-4 0 -6 2.5t-4 4.5q-13 -2 -58 34q-1 7 -5 18q-16 21 -30 48q-16 33 -25 46q6 4 19 16q-9 31 -7 35q1 3 17 21 q15 15 15 26q-2 6 -3 17q10 9 25 28q-9 13 -9 24q0 20 24 35q4 3 29 4q3 2 8 13q4 -1 12.5 -8.5t12.5 -7.5q3 0 3.5 2.5t4.5 2.5q3 0 21 -9t21 -9t5 2.5t6 2.5q2 0 22 -14t28 -15.5t21 -6.5q1 0 7 -8.5t9 -8.5q4 0 8 2.5t7 2.5t6.5 -4t6.5 -4q4 0 4.5 1.5t3.5 1.5 q7 0 32 -12l9 -21q11 -11 25 -35q-1 -9 -1 -26q0 -3 3.5 -14t3.5 -14zM298 459q-16 7 -29.5 25t-16.5 34q-1 0 -4.5 -1.5t-6.5 -1.5q-4 0 -16 13.5t-15 13.5q-57 -32 -73 -44q-10 -9 -27 -21q-5 -1 -14 -44q-8 -39 -8 -48q0 -1 2.5 -16t0.5 -20q9 -4 29 -28.5t22 -25.5 q14 -8 30 -8q3 0 29.5 6.5t29.5 6.5t7 -1.5t7 -1.5q9 0 10 5t6 7.5l11 5.5q10 5 11 13q4 15 4 30q0 4 -4.5 11t-5.5 10v25q0 23 3 32q9 8 18 23z" />
<glyph unicode=":" horiz-adv-x="235" d="M133 390q0 -32 -39 -32q-8 0 -24 9q-19 11 -19 22q0 10 11 20.5t20 10.5q3 0 20.5 -4.5t24.5 -4.5q6 -5 6 -21zM136 219q-7 -8 -21 -27q1 -16 -10 -35q-11 -7 -24 -14q-49 28 -41 93q3 4 10 6q11 2 12 3q27 12 34 12q8 0 14 -11q3 -8 8.5 -13.5t17.5 -13.5z" />
<glyph unicode=";" horiz-adv-x="268" d="M170 367q-18 -14 -30 -36q-7 -12 -23 -12q-4 0 -63 37q2 9 -6 25q28 17 41 39q7 13 35 13q18 0 26 -23q10 -28 20 -33v-10zM162 204q0 -3 -5.5 -14t-6.5 -17q-2 -4 6 -20q2 -5 -7 -15v-2q0 -7 5 -12q-5 -3 -5 -6q1 -4 7 -13q1 -5 0 -9q-15 -34 -48 -94h-9q-1 2 -7.5 9.5 t-6.5 10.5t3.5 7.5t3.5 6.5q3 19 9 35q5 13 5 15q0 5 -7 13q-1 6 10 16q-5 5 -3 24q-7 1 -20 5q-8 9 -26 29q-4 3 -4 17q0 8 5.5 16.5t5.5 23.5q30 25 45 25q13 0 31.5 -21t18.5 -30z" />
<glyph unicode="?" horiz-adv-x="447" d="M391 498q0 -3 -4.5 -13.5t-5.5 -15.5q-2 -18 -7 -51q-5 -5 -12 -16q-8 -50 -66 -110q-22 -23 -99 -87v-36q-1 -21 -21 -21q-10 0 -12 11q-1 7 -1 14q-3 8 -19 19q7 16 20 46q-1 5 -1 15q5 7 16 23q11 -5 16 -5q18 0 51.5 25t34.5 25q3 0 3 -1t3 -1q39 37 44 60q5 19 5 53 q0 1 3 5.5t3 7.5q-3 29 0 34q4 7 4 10t-12.5 21.5t-16.5 26.5q0 9 -4 27q-13 6 -26 11q-17 9 -18 23q-3 -4 -12 -14q-4 2 -10.5 9t-9.5 7q-9 0 -57 -16q-51 -18 -58 -27q-15 -17 -39 -65q-1 -2 0 -7q2 -7 2 -9q-21 -14 -26 -14q-4 0 -15.5 14t-11.5 17q0 7 19 45 q21 43 35 53q34 19 68 39q3 0 7 -1.5t7 -1.5q2 0 8 6t9 6q14 0 45 5q2 0 6.5 3.5t8.5 3.5q3 0 8.5 -4.5t8.5 -5.5q13 1 35 -2q13 -9 43 -24q6 -10 24 -23q0 -10 -1 -27q1 -7 9 -14q11 -10 12 -13q-1 -6 0 -18q7 -29 7 -22zM205 54q-4 0 -2 -13q0 -1 -2 -25q-9 -11 -20 -11 q-17 0 -34 10.5t-17 23.5t19.5 30.5t32.5 17.5q11 0 17 -12.5t6 -20.5z" />
<glyph unicode="@" horiz-adv-x="740" d="M691 408q0 -21 -20 -34q-26 -17 -32 -33q-2 -13 -10 -38q-5 -3 -14 -11q-4 -14 -23 -36q-31 -17 -51 -17q-2 0 -14.5 1t-15.5 1q1 0 -37 26q-10 3 -32 10q-7 3 -11.5 9t-11.5 6q-26 0 -21 -42q-5 1 -19.5 -16t-22.5 -17q-3 0 -26 4.5t-26 4.5h-19q-3 6 -3 16 q-37 6 -41 43q-10 4 -26 18q-21 18 -21 31q0 38 6 53q5 12 15 18.5t19 11.5q4 10 12 26q7 10 26 21q12 7 11 19q10 7 24 24q8 11 19 11q3 0 8.5 -4.5t7.5 -5.5q8 -1 17 -3t15 -12q6 -20 25 -58q24 -19 65 -64q8 -22 24 -58q26 6 52 11q32 10 48 33q-1 9 8.5 27t9.5 20 q0 8 -6 12q-10 5 -12 7q-2 29 -6 69q-7 2 -20 8q-4 7 -14 20q-6 1 -16 7q-31 36 -35 36q-3 0 -3 -1v0q0 -1 -3 -1t-11 7.5t-13 7.5q-3 0 -6.5 -1t-7.5 -1q-3 0 -9 4t-9 4q-4 0 -21.5 -5.5t-21.5 -5.5q-3 0 -7 4t-7 4q-4 0 -16.5 -5t-15.5 -5q-4 0 -26 3.5l-22 3.5 q-2 0 -48 -15q-3 0 -4.5 1t-4.5 1q-41 -23 -56 -50q-5 -8 -21 -16q-10 -5 -20 -11q0 -6 -2 -17q-31 -38 -31 -51q0 -2 1.5 -8.5t1.5 -12.5v-30q-12 -4 -19 -22.5t-7 -33.5q0 -11 14.5 -42t14.5 -46q0 -10 -5 -17q2 -16 8 -45q4 -13 27 -27q3 -7 15 -20q9 -6 55 -31 q6 -7 19 -19q5 -3 23 -3q3 0 8 1t8 1q4 0 43 -10.5t42 -10.5t16 2.5t16 2.5t13.5 -3t16.5 -3q1 -1 7 -9.5t10 -8.5q7 0 12.5 9t9.5 11q35 23 56 23q3 0 6.5 -3t6.5 -3q8 25 31 25q3 0 9 -1.5t10 -1.5q2 0 16.5 3t21.5 3q4 5 13 15h23q5 -17 5 -29q-12 -6 -33 -23 q-2 -3 -34 -22q-27 -15 -27 -34q-4 -6 -11 -6q-2 0 -6 1t-8 1q-7 0 -11 -4q-13 -15 -14 -17q-10 0 -17 14q-3 0 -7 -3t-7 -3q-14 0 -35.5 10.5t-27.5 10.5q-16 0 -28.5 -13t-25.5 -13l-15 12t-29 17q-11 -13 -19 -13q-88 45 -93 45q-3 0 -4.5 -1.5t-4.5 -1.5q-4 0 -37 24.5 t-42 34.5q-5 7 -52 83q-6 3 -17 11q1 14 -10.5 34t-11.5 34q0 8 7.5 25.5t11.5 21.5q10 0 26 5q-5 80 -2 93q0 1 -3 3t-3 6q0 20 2 25q9 24 16 49l-7 26q3 9 15 12q19 5 20 6q3 8 11 20q16 16 47 37q11 7 29.5 12.5t29.5 11.5q23 11 33 11q3 0 4.5 -2.5t4.5 -2.5 q5 0 22.5 13.5t26.5 13.5q3 0 5 -3q5 4 5 18h16q1 0 14.5 -11.5t34.5 -11.5q3 0 22.5 4t22.5 4q11 0 16 -8.5t8 -15.5q10 -3 44 -18q26 -12 30 -12q3 0 2.5 1.5t2.5 1.5q10 0 20 -7q6 -15 20 -22q10 -5 20 -9q2 -10 9 -26q20 -20 57 -64q3 -5 7 -33q0 -2 6 -8.5t6 -9.5z M394 327q0 3 -15 26.5t-19 33.5q0 12 -2 34q-1 9 -11 9q-3 0 -3 -1v0q0 -1 -4 -1q-3 0 -8.5 4t-8.5 4q-4 0 -15.5 -6t-14.5 -9q3 -9 4 -24q-3 -7 -13 -24t-10 -20q0 -4 8 -14.5t10 -13.5q1 -9 4 -22q3 -5 18 -13.5t22 -8.5q3 0 15.5 4.5t17.5 4.5q2 4 15 21q10 12 10 16z " />
<glyph unicode="A" horiz-adv-x="657" d="M609 25q-12 -7 -23 -14q-4 -3 -17 -3q-18 0 -25 26q-9 37 -8.5 40.5t-5 17t-4.5 19.5q0 38 -8 52q-5 3 -15 11q-1 10 5 27q-2 2 -10 2q-1 -7 -4 40q-13 8 -36 63q-18 -8 -17 -8q-3 0 -11 2.5t-11 2.5q-4 0 -7.5 -1t-7.5 -1q-7 0 -16 3q-13 4 -36 8q-3 1 -11 8t-11 7 t-7 -2.5t-7 -2.5t-33.5 2.5t-33.5 2.5t-9.5 -6.5t-9.5 -6.5t-11 5.5t-12 5.5q-3 0 -16 -18q-36 6 -70 -59q-6 -5 -17 -16q-10 -18 -28 -45q-7 0 -12 10q-9 16 -11 17q25 25 60 73q7 12 7 22q0 5 -2.5 11t-2.5 8q0 3 3 7q8 14 31 39q6 1 17 2q7 8 24 52q5 4 14 13 q23 40 58 115q4 2 14 10q-1 5 -1 16q2 2 33 40q-3 8 -4 24q8 2 24 9q3 2 10 10q5 5 10 5q21 0 35 -23q11 -18 11 -34q0 1 -11 -11v-10q0 -9 23 -66q19 -48 27 -66q-2 -1 -6 -5q-25 21 -53 67q-17 29 -42 29q-30 -29 -41 -55q-2 -6 -10.5 -7.5t-15.5 -2.5q-22 -34 -52 -97 q-10 -12 -24 -36q11 -7 26 -7q3 0 9.5 -1.5t9.5 -1.5t18 4t18 4t9.5 -1t9.5 -1t17 4t17 4q4 0 12 -6.5t12 -7.5q1 6 5 16q36 -5 39 -5t15.5 10.5t16.5 10.5q3 0 14 -5q4 5 2 16q-3 19 -3 20q6 6 8 6q7 0 15 -7q13 -11 18 -14q0 -7 2 -22q5 -5 12 -16q14 -56 34 -114 q31 -85 34 -96q8 -26 25 -36q10 -6 21 -12q-2 -52 4 -70z" />
<glyph unicode="B" horiz-adv-x="600" d="M534 120q0 -2 -1 -13.5t-1 -16.5q-30 -4 -78 -45q-61 -52 -74 -60q-40 -23 -38 -23q-3 0 -5.5 1.5t-6.5 1.5q-9 0 -34.5 -16t-45.5 -16q-32 0 -49 -2q-13 1 -40 -2q-5 -1 -11.5 -5t-8.5 -4h-31q-3 0 -23.5 9t-22.5 10l10 18q0 3 -5 15.5t-5 16.5q0 15 7 19q14 6 19 12 q1 8 5 26q0 1 -1.5 8t-1.5 12q0 16 16 16q18 0 29 -36q9 -27 9 -52q0 -11 -7 -17q-11 -7 -17 -18q17 -5 24 -5t29 1.5t34 1.5q3 0 18 4t18 4t5 -1.5t5 -1.5q22 0 85 32q53 27 67 38q21 16 34 50t30 39q0 3 -5.5 6.5t-7.5 5.5q4 10 6 26q-3 10 -30.5 42t-34.5 32q-3 0 -4 -1 t-4 -1t-12 8t-12 8t-4.5 -1.5t-4.5 -1.5t-7 4.5t-7 5.5q-39 9 -50 9q-3 0 -5.5 -1.5t-6.5 -1.5q-3 0 -20 6.5t-20 6.5q-12 0 -67 -14q-7 -6 -19 -19q-8 -3 -23 -11q-6 -23 -9 -80q-1 -20 -18 -22q0 -4 0 18q0 3 -6 19q-9 20 -13 36q-2 9 -8 29q-9 8 -20 24q-6 26 -6 41 q0 -2 14 28.5t11 55.5q-3 21 0 25q4 6 4 7q0 7 -7.5 27t-13.5 20q-3 0 -4.5 -1.5t-4.5 -1.5q-20 0 -20 32q0 14 11 20t24 12q2 1 12 15q9 11 17 11q3 0 8 -2.5t8 -2.5t10 6t9 6q12 -1 35 2q4 2 12.5 10t11.5 8t7.5 -2.5t8.5 -2.5q-3 0 24.5 12t54.5 12q3 0 26 -4t27 -4 q3 0 9.5 4t8.5 4q12 0 31 -20q13 -15 25 -29q-5 -6 -16 -19q9 -4 29 -13q-4 -17 -6 -59q-12 -15 -12 -25q-31 -17 -49 -40q-15 -17 -48 -35q-2 -2 -6 -9t-8 -7q-3 0 -2 1.5t-3 1.5q-3 0 -16.5 -12t-16.5 -12t-4.5 1.5t-4.5 1.5q-6 0 -12 -13q0 -9 9 -9q3 0 14.5 -1t14.5 -1 t12 2.5t12 2.5t27 -13t28 -13q2 0 8.5 4t9.5 4q4 0 18.5 -9.5t18.5 -11.5q16 -4 48 -18q10 -13 19 -27q19 -25 27 -25q3 0 3.5 1.5t4.5 1.5q11 0 18 -31q5 -22 5 -40zM340 470q0 4 -4.5 8t-5.5 7q0 9 -4 22q-16 22 -40 22q-3 0 -10.5 -4t-10.5 -4q-4 0 -8.5 3l-4.5 3 q-5 2 -26 -1q-18 -2 -27 5q1 -32 -17 -32q-3 0 -12 6.5t-12 6.5h-22q3 -9 -7 -24l-14 -22q-1 -14 -3 -37q1 -11 0.5 -15.5t-0.5 -3.5q0 -4 2.5 -30t3.5 -31q0 -15 19 -15q3 0 12.5 1.5t12.5 1.5q9 0 25 13t27 13q4 0 8 -1q5 3 29 19q5 19 40 36q2 11 9 15q10 1 25 13.5 t15 24.5z" />
<glyph unicode="C" horiz-adv-x="511" d="M481 591q0 -25 -11 -35q-2 0 -7.5 2.5t-9.5 2.5q-3 0 -5 -1t-5 -1q-15 0 -38 21q-26 23 -27 23q-9 0 -29 4q-1 1 -7.5 5.5t-10.5 4.5q-3 0 -22.5 -11.5t-24.5 -16.5q-4 0 -15.5 -3t-14.5 -3t-8 1t-8 1q-11 0 -17 -10q0 -4 -2 -12q-35 -14 -67 -48.5t-40 -69.5q2 -9 1 -26 q-5 -10 -13 -27q1 -15 -4.5 -22.5t-5.5 -15.5q0 -3 5.5 -17t5.5 -18q0 -2 -5.5 -8.5t-5.5 -9.5t10.5 -21t12.5 -25q-1 -10 2 -27q7 -2 19 -8q24 -19 17 -37q1 0 24 -3q5 -5 10.5 -10t10.5 -3q17 -23 22 -23q3 0 5 1.5t6 1.5q3 0 9.5 -3t10.5 -3q5 0 18 3t14 3q2 0 6.5 -4 t7.5 -4t10.5 4t10.5 4q4 0 27 -5.5t27 -5.5q3 0 11 4t11 4q9 0 18.5 -15.5t9.5 -19.5q0 -7 -17 -24q-5 6 -12 6q-3 0 -8.5 -5.5t-8.5 -5.5q-4 0 -14 2.5t-13 2.5q-18 0 -37 -16q-18 11 -19 11q-3 0 -14.5 -5.5t-14.5 -5.5q-6 0 -28 17t-23 17q-26 7 -85 36q-6 11 -18 27 q-14 10 -33 35q2 13 -1 40q-10 16 -19 48q-1 26 5 61q-12 17 -12 16q0 3 3.5 7t3.5 6t-2 26q-2 17 1 28q2 8 14 20q15 16 19 23q8 17 26 48q45 56 90 78q2 1 7.5 7t10.5 6q3 0 3 -1.5t3 -1.5q4 0 12 9.5t11 9.5t7.5 -3t7.5 -3q15 0 20 26q12 1 35 4q5 1 21 7q13 6 17 6 q-2 0 13 -6q2 4 3 15q1 4 13 4q13 0 15 -7q2 -10 7 -14q23 -2 47.5 -22t24.5 -47z" />
<glyph unicode="D" horiz-adv-x="552" d="M481 381q0 -20 -5.5 -25.5l-14.5 -14.5q1 -8 1 -24q-13 -15 -19.5 -45.5t-15.5 -40.5q-17 -10 -43 -39q-4 -9 -10 -13q-11 -10 -35 -24q-39 -15 -52 -26q-9 -10 -19 -19q-37 -28 -54 -26q-3 -3 -15 -25q-10 -17 -23.5 -19.5t-35.5 -6.5q-13 -6 -40 -17h-9q-3 0 -3 6 q0 7 10 18q9 8 18 17q-2 1 -2 5q0 6 7 23t7 21q0 5 -8 49q-8 50 -9 61q-1 2 -4.5 12.5t-3.5 17.5q0 3 3.5 11t1.5 11q-3 15 -7 32q-2 3 -10 9q0 4 7 19q-7 20 -9 82q0 29 -14 42q0 3 5 8.5t5 8.5q0 2 -9 26t-10 35q-6 7 -14 7q-3 0 -5 -1.5t-6 -1.5t-16 10.5t-12 14.5 q0 3 17 15q54 40 59 40q3 0 26.5 -10.5t26.5 -10.5t14.5 1t15.5 1q21 0 22.5 -8t22.5 -8q3 0 11 1.5t11 1.5q18 0 143 -57q1 -2 19 -16q8 -12 27 -30q8 -7 39 -20q3 -7 8 -19q6 -20 6 -59zM409 345q-14 6 -17 24l-2 26q-5 11 -13 32q-9 0 -15 10q7 8 7 14q-11 6 -20 23 t-14 22q-14 4 -41 15q-5 6 -16 14q-39 14 -51 14q-3 0 -6 -2.5t-4 -2.5q-2 2 -10 18q-1 0 -3 -1t-6 -1q-3 0 -13.5 5.5t-14.5 5.5q-3 0 -11.5 -3t-12.5 -3q1 0 -27 5q-1 -12 -4 -36t-3 -26q0 -3 5 -26q6 -26 7 -35q4 -31 4 -91q3 -3 7 -8q-1 9 -1 -24q5 -5 11 -15 q-3 -13 -6 -36q13 -6 13 -20v-22q6 -5 12 -13q-2 -21 -1 -59q13 -7 14 -15q1 -12 9 -36h24q64 49 129 97q79 70 70 150z" />
<glyph unicode="E" horiz-adv-x="540" d="M513 84q-4 -22 -27 -28q-37 -9 -44 -13q-9 14 -29 14q-4 0 -11 -1h-11q-24 0 -29 24h-7l-18 -2q-16 -3 -24 -2q-4 -2 -11 -15q-6 2 -15.5 5t-12.5 3t-16 -6.5t-16 -6.5t-8 4t-8 4t-18 -9.5t-18 -9.5l-24.5 1.5t-32.5 1.5q-4 0 -12 8l-16 -16q-17 2 -17 28q0 15 11 19 q21 7 28 14q3 20 3 23q0 24 -6 61q-6 30 -9 37q1 -4 6 13q-2 15 -9 43q0 1 7 11q-3 13 -7 25q-6 16 -23 16q-3 0 -7 -1.5t-8 -1.5q-6 0 -14.5 6t-8.5 10q0 3 1 9t1 9q6 6 9 6q4 0 4.5 -1.5t3.5 -1.5q5 0 19 4q18 4 22 9q-5 7 -5 17q0 9 4 28.5t4 28.5q0 14 -1 48t-1 52 q-5 2 -26 2q-3 0 -20 -6.5t-21 -6.5q-18 0 -18 20q0 7 6 12t11 5q3 0 4 -1t4 -1t23.5 8t24.5 8q3 0 6.5 -3t6.5 -3t8.5 4t8.5 4q4 0 14 -4t13 -4q2 0 8 3t9 3q4 0 17.5 -7t17.5 -7q3 0 6.5 4t6.5 4q-1 0 31.5 -5t48.5 -5h46h20q7 8 24 20q7 3 35.5 7t35.5 4q16 0 24 -12 t8 -23q0 -10 -4 -12q-10 -5 -12 -8q0 -2 2.5 -9t2.5 -9q-32 -20 -40 -20q-16 0 -21 13.5t-13 13.5q-3 0 -10.5 -4t-11.5 -4q-3 0 -15 6.5t-15 6.5t-5.5 -1t-6.5 -1q-3 0 -7.5 4t-7.5 4t-6.5 -3t-6.5 -3t-9 4t-9 4t-3 -1v0q0 -1 -3 -1t-6 4t-6 4t-20 -7t-20 -7t-12.5 6t-13 7 t-23.5 1q-24 0 -20 0q-12 -2 -23.5 -20t-11.5 -101q0 -3 6.5 -10t6.5 -9t-4 -17q-2 -12 0 -20q1 -4 19 -13.5t27 -9.5q3 0 4.5 1.5t4.5 1.5t16.5 -6.5t16.5 -6.5q1 0 20 6.5t24 6.5q3 0 7.5 -3t6.5 -3q3 7 11 19q2 0 10 -5.5t12 -5.5q2 0 5 1.5t7 1.5q53 0 53 -52 q0 -33 -33 -33q-3 0 -12 4t-12 4t-6.5 -1.5t-7.5 -1.5q-18 0 -37 17q-9 10 -19 21q-1 -1 -7 -6t-10 -5q-3 0 -12.5 6.5t-12.5 6.5t-18.5 -2.5t-18.5 -2.5t-10.5 2.5t-10.5 2.5q-15 0 -15 -22q0 -2 5 -23t5 -31q0 -4 -2.5 -16t-2.5 -15q0 -21 8 -58q10 -53 25 -53q3 0 7.5 3 t7.5 3t18 -9.5t18 -9.5h35q14 0 35.5 8l21.5 8q3 0 6.5 -1.5t6.5 -1.5t12.5 13.5t12.5 13.5q4 0 24 -4t23 -4t19.5 10.5t20.5 10.5q10 0 27 -8t20 -17q0 -9 1 -19.5t10 -20.5z" />
<glyph unicode="F" horiz-adv-x="392" d="M420 518q0 -4 -21 -15t-25 -22q-5 0 -8.5 1t-6.5 1t-7 -2.5t-6 -2.5q-3 0 -7 4t-8 4q-3 0 -21 -2.5t-21 -2.5q-10 0 -23.5 10.5t-27.5 10.5q-3 0 -15.5 -4t-16.5 -4q-3 0 -15.5 4t-16.5 4q-3 0 -11 -12q-12 -19 -16 -24q3 -12 -1 -32q-5 -24 -5 -29l3 -13q2 -11 0 -25 q-1 -5 0 -9q10 -12 10 -20q0 -5 -18 -24q9 -16 9 -42q1 -15 15 -15q2 0 10 5.5t12 5.5q3 0 6 -2.5t6 -2.5q4 0 8.5 4t7.5 4t14 -9.5t14 -9.5q1 0 20 5.5t24 5.5q4 0 16.5 -5.5t12.5 -9.5q0 -3 -11 -14q0 -6 8 -10q-4 -14 -14 -41q-14 8 -17 8t-8.5 -4t-9.5 -4q-3 0 -11 5 t-11 5q-1 0 -17.5 -4t-21.5 -4q-3 0 -13 9.5t-13 9.5q-10 0 -20 -18q-1 -4 7 -12q-4 -25 -1 -35q-10 -24 -10 -26q5 -37 5 -35q-1 -7 -5 -24.5t-4 -20.5q0 1 13 -40q0 -11 -10 -35q-11 -28 -21 -28h-12q-12 0 -21 33q0 1 10 14q-2 10 7.5 36l9.5 26q0 2 -5.5 16t-7.5 23 q7 6 7 19q0 16 -10 39q1 8 -1 24q-1 2 -17 18q0 7 -2 18q-8 6 -42 16q-23 7 -23 20q0 5 12.5 18t17.5 13q3 0 8.5 -4t10.5 -4q8 0 20 13q9 13 12 23q2 6 0 19q-3 19 -4 26q0 6 5 21t5 19q0 7 -6 21q1 3 -2.5 13.5t-3.5 12.5q0 4 3.5 17t3.5 21t-3 15q-12 4 -34 16q0 10 5 26 q6 21 15 21q3 0 17 -2.5t17 -2.5q4 0 36.5 6.5t35.5 6.5q-3 0 13 -8q6 6 14 13.5t16 7.5q2 0 8.5 -2.5t9.5 -2.5t10 2.5t10 2.5t8 -2.5t8 -2.5q4 0 13.5 5.5t13.5 5.5q3 0 5 -1.5t5 -1.5q4 0 16 9.5t15 9.5q65 0 65 -64z" />
<glyph unicode="G" horiz-adv-x="643" d="M673 308q-20 -22 -52 -45q-14 -1 -45 -7q-1 -1 -6 -4t-9 -3q-3 0 -15 4t-15 4q-13 0 -31 -66q-16 -57 -16 -68q0 -4 3 -4.5t4 -1.5q-3 -10 -3 -21q0 -16 8.5 -45.5t8.5 -43.5q0 -6 -13.5 -23t-16.5 -17q-15 0 -26 21q-10 18 -10 34q0 2 6.5 26t6.5 28q0 3 -1 10t-1 12 q-4 0 -12 1t-11 1q-4 0 -17 -8t-16 -8q-4 0 -8 1.5t-6 1.5q-15 -30 -32 -30q-3 0 -8.5 4t-8.5 4t-19.5 -8t-20.5 -8q-45 0 -69 9q-2 1 -10.5 12t-14.5 11q-4 0 -6.5 -1t-5.5 -1t-19.5 7.5t-23.5 9.5q-23 23 -56 63q-14 32 -40 88q4 12 6 24q-7 0 -7 6l5 3q-3 8 -4 26 q6 11 14 32q5 23 10 64q5 7 11 19v13q9 8 11 25l2 26q16 14 43 48q15 19 31 20q4 6 11 20q6 2 16 6q5 3 7 9.5t4 12.5q11 4 24 8t18 17q24 -7 25 -7q3 0 32 13t33 13q1 0 12 -11q1 1 7 6t10 5t9.5 -4t9.5 -4q3 0 10.5 2.5t10.5 2.5q9 0 12 -8q6 -13 8 -16q1 0 4.5 3t7.5 3 q3 0 15.5 -3t18.5 -3q3 -5 3 -22q0 -24 -9 -30q-18 -11 -27 -11q-2 0 -10.5 8t-12.5 8q-3 0 -4 -1.5t-5 -1.5q-3 0 -8 5.5t-8 5.5t-6.5 -3t-6.5 -3t-12 5.5t-12 5.5t-10 -6t-8 -7q-13 -6 -37 -6h-23q-3 0 -8.5 4t-7.5 4q-7 0 -28.5 -22t-28.5 -36q-10 -9 -25.5 -30.5 t-37.5 -59.5q-11 -33 -39 -101q1 -9 1 -26l-7 -11q0 -2 3 -9t2 -9q-4 -21 -2 -26q3 -7 22 -37q12 -14 40 -48q0 -5 6 -12q5 -3 23 -15q15 -10 19 -10q3 0 8.5 3t8.5 3q9 0 33.5 -8t27.5 -8q4 0 6 2.5t5 2.5t8 -4t8 -4q24 0 34 20t16 20q4 0 6 -1.5t5 -1.5q26 0 42 42 q-1 12 1 37q6 8 13 24v36q-17 13 -25 13q-4 0 -16 -7t-15 -7q-2 0 -8.5 3t-10.5 3q-3 0 -8.5 -3t-8.5 -3q-2 0 -7 3t-9 3q-10 0 -23.5 -3.5t-34.5 -8.5q-5 -1 -17.5 -10.5t-16.5 -9.5q-13 0 -27.5 12.5t-14.5 20.5q0 6 6 14.5t12 8.5q4 0 17 -4t17 -4q3 0 23 5t23 5 q4 0 6.5 -1t5.5 -1q1 0 20 5t21 5q3 0 7 -2.5t7 -2.5t27 13.5t27 13.5t9 -4t10 -4q3 0 7 4t7 4q4 0 10.5 -4t9.5 -4q10 0 13 6q7 15 11 19q9 1 30 6q1 0 5 -6.5t8 -6.5q3 0 27.5 7t28.5 7q2 0 16.5 -7t17.5 -7t10 3t10 3q20 0 35 -11v-42z" />
<glyph unicode="H" horiz-adv-x="607" d="M537 666q-8 -45 -26 -84q-6 -14 -5 -42q1 -31 -2 -43q-7 -25 -15 -50q-10 -35 -10 -51q0 -8 21 -47q0 -5 -7 -14q2 -4 2 -9q0 -13 -13.5 -28t-24.5 -19q8 -16 8 -15q0 -3 -5.5 -9t-6.5 -10q-3 -36 -10 -107q-1 -9 -7.5 -19.5t-12.5 -10.5q-13 0 -13 23l7 52.5t9 79.5 q-13 7 -37 19q-2 1 -12.5 12t-16.5 11q-3 0 -11.5 -7t-12.5 -7q-3 0 -11 3t-11 3q-4 0 -19 -4t-18 -4q-4 0 -15 6.5t-12 6.5q-3 0 -24.5 -8t-24.5 -8t-10.5 1.5t-11.5 1.5q-7 0 -14 -7v-29q0 -12 3 -48q5 -5 12 -16l-7 -20q7 -8 12.5 -16t5.5 -21q0 -11 -6 -21q-8 1 -27 -11 q-16 12 -35 41q3 7 4 18q-13 32 -13 30q0 5 7 14q0 5 -1 16q8 9 8 10q0 4 -11 21t-17 17q-4 0 -23 -2.5t-22 -2.5q-5 0 -15.5 9t-10.5 14q0 25 38 31q21 4 43 2q4 4 4 5q0 -4 -12 30q-1 4 2.5 13.5t3.5 11.5q-22 53 -28.5 87.5t-18.5 103.5q0 6 31 18q12 -21 17 -58.5 t1 -62.5q11 -16 18.5 -67t27.5 -78q12 1 41 7q26 6 29 6t6 -1.5t6 -1.5t11 4t12 4q3 0 11 -5t11 -5t57 18.5t85 18.5q4 0 3 -1.5t3 -1.5q8 0 16 32q9 42 12 47q-2 13 5 63q0 15 -3 43q8 9 10.5 33t16.5 37q-3 18 2 38q7 24 25 24z" />
<glyph unicode="I" horiz-adv-x="435" d="M378 597q0 -20 -11.5 -38t-31.5 -18q-4 0 -20 8t-19 8q-2 0 -12 -5q-13 -7 -20 -10q0 -20 -14 -32q3 -9 2 -29q-7 -6 -15 -18q3 -11 5 -37q0 -3 -5 -9.5t-5 -9.5q0 -35 1 -32q-41 -125 -45 -213q-3 -3 -7 -13q1 -14 1 -28q0 -20 -9 -41q14 -7 20 -7q3 0 8.5 3t8.5 3 q1 0 17 -8l11 10q11 -7 30 -22v-27q-8 -9 -15 -9q-4 0 -10 4t-9 4q-1 0 -17 -9.5t-19 -9.5t-29 4t-29 4q-13 0 -48 -6q-5 -1 -19 -8t-17 -7q-9 0 -32 16v13q10 8 28 27q4 -6 26 -6h40q2 1 6 5q-2 8 -1 24q6 14 28 32q1 3 -1.5 8t-2.5 6q-1 12 7 33q6 17 13 35q3 11 1 30 q-2 16 -3 33q0 6 3 22t4 21q7 20 15 65q-1 24 2 71q2 21 6 48q1 2 5.5 6.5t4.5 7.5t-7 12.5t-7 20.5q0 8 3 18q-24 10 -38 10q-3 0 -30 -16t-30 -16q-8 0 -17.5 11t-9.5 17q0 12 20 28q17 14 21 14q3 0 13 -4t13 -4t17 8t17 8q4 0 6.5 -3t5.5 -3q30 0 39 19q1 0 6 -2.5 t8 -2.5t8 2.5t8 2.5q4 0 6 -1.5t5 -1.5t11.5 4t11.5 4t7 -6q6 -9 7 -10q40 27 48 27q10 0 21 -17q10 -13 10 -18z" />
<glyph unicode="J" horiz-adv-x="491" d="M479 525q0 -64 -40 -64q-3 0 -6.5 1.5t-7.5 1.5q-9 0 -26 -21q-7 -9 -9 -34q-2 -37 -2.5 -40.5t-4 -9t-3.5 -8.5t5.5 -14.5t5.5 -14.5q0 -4 -6.5 -21t-6.5 -20t5 -10t5 -10t-4.5 -13t-5.5 -17q3 -8 4 -24q-5 -19 -6 -63q-1 -37 -9 -52q2 -8 2 -23q-7 -44 -29 -123 q-11 0 -22 1q-14 -1 -21 -7q-7 -9 -16 -20q-2 0 -16 -2q-13 -18 -20 -18q-4 0 -29 11t-29 11q-3 0 -7.5 -1.5t-7.5 -1.5q-7 0 -21 6q-17 8 -22 16q-3 4 -3.5 17.5t-6.5 22.5q-17 11 -44 42q0 16 -4 40q-3 7 -17 24q-11 14 -11 18q0 10 8.5 30.5t17.5 20.5q15 0 25 -32 q8 -23 8 -36q4 -10 13 -26q25 -34 60 -55q6 1 16 -2q10 -6 21 -28q3 1 14 7.5t15 6.5q2 0 5 -1.5t7 -1.5q8 0 28 20l24 24q-3 9 -5 18q-3 12 2.5 21t12.5 19.5t5 18.5q10 8 15 35q7 36 12 47t5 25q0 9 -3 25t-3 22q0 1 8 38.5t8 42.5q0 45 -15 71.5t-15 42.5v28q-4 5 -8 5 q-2 0 -8 -3t-10 -3t-10.5 1.5t-9.5 1.5q-15 0 -22.5 -6.5t-9.5 -6.5q-3 0 -8 2.5t-8 2.5t-10.5 -2.5t-10.5 -2.5q-4 0 -10.5 1t-9.5 1q-4 0 -22.5 -5t-21.5 -5q-4 0 -10.5 8t-6.5 13q0 7 14 19.5t19 12.5q1 0 12 -4t17 -4q7 0 16 4t12 4t9 -2.5t10 -2.5q3 0 12.5 5t12.5 5 t19 -2.5t19 -2.5q4 0 9.5 4.5t7.5 4.5q35 17 69 18l10 7q4 0 11.5 -2.5t11.5 -2.5q3 0 11.5 2.5t12.5 2.5q8 0 18 -10.5t10 -18.5z" />
<glyph unicode="K" horiz-adv-x="595" d="M542 214q0 -10 -14 -28q-3 0 -21 -7t-24 -7q-20 0 -35 33t-31 33q-3 0 -4 -1t-5 -1q-7 0 -22 6q-2 10 -13 25q-18 5 -51 20q-24 19 -77 54q-78 44 -92 44q-3 0 -4 -1.5t-4 -1.5q-1 0 -9 8q-3 0 -11 -7v-88q0 -6 7 -36q8 -33 13 -38q-5 -14 -3 -20q14 -48 16 -75 q1 -21 4 -27v-9q-31 -17 -37 -17q-8 0 -22.5 11.5t-14.5 18.5q0 1 7 12q17 52 17 64q0 3 -6 15t-7 16v48q0 36 -16 48q7 8 7 18q0 17 -22.5 52.5t-22.5 45.5q0 3 12 28.5t12 28.5v82q0 3 -8 17.5t-8 17.5q0 10 14 35q5 1 17 1q18 0 24 -9q-6 -26 -6 -74q0 -90 24 -90 q3 0 11 2.5t11 2.5q2 0 5 -2.5t7 -2.5q3 0 7.5 4t8.5 4q3 0 8.5 -3t7.5 -3q4 12 24 18q16 4 32 7q5 2 29 12q21 9 26 9q3 0 10 -1.5t10 -1.5q12 0 21 4q2 0 6 7.5t8 7.5q3 0 4.5 -1.5t4.5 -1.5t15 5.5t16 5.5q3 0 3.5 -1.5t4.5 -1.5q1 0 13 3.5t28 5.5q6 6 7 17v2q0 9 10 9 q23 0 45 -10q25 -14 25 -35q0 -23 -22 -34q-41 -18 -45 -22q-6 4 -19 14q-2 0 -19 -16q-5 5 -9 5q-3 0 -4 -1.5t-4 -1.5q-2 0 -18 16q-4 1 -12 -12q-7 -1 -13 -8.5t-11 -13.5q-17 5 -34 5q-6 0 -21 -5.5t-17 -5.5q-3 0 -9.5 4t-9.5 4t-13.5 -6.5t-14.5 -6.5q-3 0 -3.5 1.5 t-4.5 1.5q-3 0 -9 -6l-7 -7q-9 -2 -17 -4q-13 -4 -15 -16q11 1 29 -3q12 -10 35 -28q31 -20 47 -29q15 -3 48 -12q11 -7 32 -19q49 -20 45 -20q3 0 4.5 3t4.5 3q5 0 24 -11t26 -11q4 -12 8 -25q7 -17 18 -17q3 0 3 1t4 1q13 0 22 -8.5t9 -15.5z" />
<glyph unicode="L" horiz-adv-x="473" d="M460 145q-11 -12 -19 -12q-3 0 -4.5 1.5t-4.5 1.5t-8 -4t-8 -4t-5.5 1.5t-6.5 1.5q-3 0 -11 -5.5t-11 -5.5q-4 0 -4 1v0q0 2 -3 2q-9 0 -14 -11q-20 13 -55 13q-10 0 -32 -8t-35 -8q-3 0 -23.5 3t-24.5 3q-36 0 -59 -12q-3 -2 -14 -11t-14 -9t-8 2.5t-8 2.5t-7 -1.5 t-8 -1.5q-10 0 -17 20q-5 14 -5 22q0 6 8 24q0 4 -3 15.5t-3 14.5q0 19 19 34q-5 8 -5 22t6.5 40.5t6.5 32.5q0 3 -8 30.5t-8 30.5q0 22 13.5 31t17 20.5t3.5 32.5q0 3 -6.5 24t-6.5 24q0 -2 11 44q-6 12 -6 25q0 9 10.5 29.5t11.5 30.5q-1 15 3 45q7 20 26 20q21 0 21 -32 q0 -3 -2.5 -19t-1.5 -30q-3 -11 2 -35q-23 -43 -23 -54q0 -3 3.5 -9.5t3.5 -15.5q0 -4 -5 -21t-5 -21q7 -6 7 -13q0 -5 -5.5 -14.5t-5.5 -13.5q0 -3 5.5 -7t7 -6t1.5 -13q0 -15 -4 -22q-23 -45 -23 -64q0 5 7 -20q-2 -13 -1 -38q1 -4 8 -16.5t7 -15.5t-6.5 -20.5t-6.5 -20.5 q0 -9 18 -29q10 5 19 5q4 0 13 -2.5t12 -2.5t8 5t8 5q4 0 10 -4t9 -4q20 0 37.5 12t27.5 12q2 0 8 -2.5t9 -2.5q4 0 10 4t9 4t6 -1.5t6 -1.5q37 0 49.5 14.5t35.5 14.5q4 0 14.5 -7t19.5 -10q2 -1 6 -5v-35z" />
<glyph unicode="M" horiz-adv-x="769" d="M694 131q0 -3 -2 -7.5t-3 -7.5q1 -9 -1 -26q-2 -4 -16.5 -9.5t-21.5 -5.5q-9 0 -22 15v42q-1 19 -7 56q0 3 -4.5 8t-4.5 8q0 5 7.5 18t13.5 17l-9 69q-17 19 -25 53q-5 27 -10 53q-3 14 -8 43q-4 6 -10 21q-1 5 -11 61q0 1 -19 20q-39 -20 -78 -60q-33 -35 -49 -64 l-12 -8t-6 -11q-12 -1 -33 -31q-31 -42 -32 -43l-24 -26q-15 -15 -30 -15q-18 0 -27 14.5t-18 29.5q-5 7 1 37q-18 32 -54 80q-7 19 -15 38q-12 25 -32 25q-1 -4 1.5 -14.5t2.5 -12.5q0 -1 -12 -46q4 -8 4 -15q0 -10 -9 -26t-9 -23q1 10 1 -91q0 -2 -5 -9.5t-5 -11.5 q0 -3 4.5 -9.5t5.5 -8.5q0 -5 -2.5 -18.5t-2.5 -18.5q0 -2 7 -16q-1 2 -1 -22q0 -3 1.5 -9.5t1.5 -9t5 -7.5t5 -8q0 -11 -11 -40q-13 -34 -25 -34q-5 0 -16 9t-14 16q-1 3 4 32l-7 14q0 2 7 16t8 24q4 40 3 48q0 3 -3 16q-3 10 -1 16q8 30 8 61v50q0 8 3.5 26.5t3.5 21.5 t-8 17t-8 18q0 11 6 19q18 22 18 25q0 2 -5 8t-5 9q-1 31 -2 41q-3 31 -12 50q9 1 23 8q1 6 2 18q4 6 8 6q8 0 22 -13q7 8 12 8q15 0 20 -18q1 -3 5 -34q3 -20 14 -40q9 -16 18 -31q6 -16 20 -45q13 -10 36 -32q3 -9 14 -28q9 0 16.5 -9t7.5 -19q2 -2 7 -2q10 0 12 6 q2 10 6 14q23 18 46 35q32 26 42 48q6 3 15 9q58 65 51 87q6 2 20 11q4 12 22 36.5t21 24.5q4 0 4.5 -1t3.5 -1t16 5t16 5q19 0 19 -37q0 -10 -1.5 -24.5t-0.5 -15.5q2 -19 5 -37q5 -26 20 -46q-6 -17 -6 -19q0 -4 5 -13.5t6 -13.5q5 -45 57 -260q2 -8 17 -24q4 -50 4 -39z " />
<glyph unicode="N" horiz-adv-x="678" d="M601 615q0 -3 -11 -23.5t-15 -24.5q5 -29 1 -42q-1 -3 -5.5 -7.5t-4.5 -8.5q0 -3 5.5 -18.5t5.5 -18.5t-5.5 -18.5t-7.5 -24.5q-1 -13 0 -29q3 -21 3 -25q0 -18 -10 -34q6 -17 0 -42q-5 -7 -13 -22q-4 -16 -9 -50q3 -16 4 -43q-4 -17 -9 -50q1 -11 -2 -27q6 -11 6 -19 t-12.5 -14t-10.5 -18q-4 -3 -8 -3q-11 0 -22 26q0 2 4 14.5t2 24.5q8 11 6.5 31.5t2.5 25.5t11 15q1 5 -4 16l5 1q0 18 -11 28q1 1 8 17q5 12 5 17q-3 5 -7 13q12 14 12 29q0 5 -1.5 14.5t-2.5 13.5q4 4 12 9q1 2 -1.5 8.5t-2.5 8.5q0 7 3.5 25t3.5 26q0 6 -3 24 q-2 15 -1 24l6 21q1 5 -3 15q12 16 12 17q0 20 -10 37q4 4 10 14q0 9 -11.5 10t-13.5 8q1 -4 1 27q0 3 -2.5 7t-2.5 7l10 13q2 9 9 24q12 14 39 19l20 -30q15 -21 15 -38zM487 133q-4 -1 -9 -6q-13 4 -17 21q-6 28 -7 30l-50 28q-33 19 -49 37q-4 9 -15 26q-23 20 -63 64 q-28 45 -57 90q-40 59 -72 71q-1 -8 -6 -23q-6 -6 -17 -16v-9q0 -9 6 -15q7 -10 11 -18q-1 -4 0 -13q2 -11 2 -13q0 -37 -24 -70q1 -4 0 -13q0 -14 -4 -40q-6 -9 -12 -29q1 -11 1 -32q-4 -7 -4 -11q0 -2 6 -13.5t6 -17.5q1 -20 1 -22l-5 -3q0 -2 2.5 -9t1.5 -10 q-21 -24 -31 -24q-9 0 -18 72q0 22 4 59.5t4 53.5q0 2 4.5 7.5t4.5 8.5q7 30 7 49q0 5 -5.5 14t-5.5 27q0 1 1 8.5t1 12.5q-4 1 -12 8q6 19 6 46q29 20 29 50q0 7 -2 16q-6 31 -6 27q30 25 44 25q12 0 28 -17q6 -5 14 -21q0 -9 6 -24q16 -15 44 -48q5 -13 15 -34 q29 -39 73 -81l63 -72q37 -42 63 -50q5 -11 17 -32q3 -4 1 -19q9 -12 25 -37v-9z" />
<glyph unicode="O" horiz-adv-x="534" d="M452 379q0 -11 -29 -50q-6 -13 -23 -37q-16 -11 -46 -40q-1 -7 -7 -18q-15 -19 -49 -55q-8 -7 -21 -7h-30q-3 0 -16.5 8t-16.5 8t-7.5 -4t-8.5 -4q-3 0 -5 1.5t-6 1.5q-2 0 -7 -4t-8 -4q-4 0 -36 32q-2 0 -8 -5.5t-10 -5.5q-3 0 -9.5 8t-10.5 8q-3 0 -3 -2v0q0 -1 -3 -1 q-12 0 -37 46q-23 43 -23 49q0 2 5.5 13t5.5 14t-5.5 10.5t-5.5 11.5q0 3 3.5 13.5t3.5 14.5q5 73 34 147q2 1 15 3q9 16 20 16q3 0 7 -3t7 -3h42q2 0 12.5 4t13.5 4q4 0 9 -1.5t7 -1.5q12 1 37 0q2 0 8.5 -3.5t10.5 -3.5q3 0 10 1t10 1t15.5 -5t16.5 -5q3 0 4.5 1.5 t4.5 1.5q12 0 30 -16q30 -28 32 -29q6 -1 15 -7q2 -8 10 -23q27 -31 28 -54q1 -2 7.5 -12t6.5 -14zM380 369q0 16 -6 49q-5 13 -13 46q-3 4 -35 25t-41 21q-4 0 -10 -4t-9 -4q1 0 -31 16q-12 -11 -14 -11q-4 0 -9 4t-7 4q-4 0 -15 -5.5t-14 -5.5q-4 0 -8 3t-7 3l-23 -12v-29 q-31 -21 -40 -21q-3 0 -2.5 1.5t-2.5 1.5q-6 0 -5 -6q-4 -19 -12 -51q-1 -4 -6.5 -12.5t-5.5 -11.5q0 -8 6 -37t5 -33q12 -7 15 -18q3 -15 6 -19q14 -3 9 -3q3 0 4 1t4 1q-5 0 27 -18.5t63 -18.5q8 0 17 6.5t16 7.5q0 8 7 15q3 -2 8 -2q4 0 18.5 8t17.5 8q5 0 12 -8t9 -8 q16 0 45 52q27 49 27 65z" />
<glyph unicode="P" horiz-adv-x="532" d="M484 415q0 -19 -22 -62q-24 -48 -43 -48q-3 0 -6.5 1.5t-6.5 1.5q-17 0 -19 -20q-5 2 -9 2q-15 0 -22.5 -28.5t-28.5 -28.5q-1 0 -12 11q-2 -2 -13 -16q-5 -8 -12 -8q-3 0 -4.5 1.5t-4.5 1.5q-13 0 -56.5 -13.5t-45.5 -13.5t-13 11q-15 -18 -41 -18q-21 0 -25 -18 q2 -7 2 -14q0 -6 -3 -15t-3 -14q0 -2 3.5 -9t3.5 -9q-1 -10 -1 -17q0 -20 9 -34t9 -28q0 -22 -12 -47q-13 -30 -31 -30t-26 11q-1 3 4 15v14q1 11 12 18v44q-8 7 -10 11q7 53 7 48q0 3 -4.5 12.5t-5.5 16.5q0 2 3 9.5t3 9.5q-2 9 -2 26q-2 2 -15 13q-8 7 -8 11 q0 10 9.5 12.5t10.5 6.5q0 10 4 29q1 1 5.5 8t4.5 11q0 3 -4 8t-4 8q0 9 3 37q3 24 1 37q1 23 -5 72q-1 5 -12 15.5t-11 15.5q0 1 7 12q0 7 2 21q3 7 18.5 18.5t23.5 11.5q2 0 16.5 -6.5t19.5 -6.5q3 0 8 5.5t8 5.5q19 0 27 -11q2 0 7.5 4.5t7.5 5.5q33 6 43 6q3 0 5.5 -2.5 t6.5 -2.5l16.5 5t19.5 5q2 0 13 -2.5t14 -2.5q4 0 9 4t7 4q7 0 14 -13q10 -17 12 -19q27 11 40 11q3 0 15.5 -13.5t14.5 -13.5q3 0 3.5 1.5t3.5 1.5q6 0 13 -20t20 -20q17 0 18 -1q0 -2 -2.5 -7.5t-2.5 -8.5q0 -4 9.5 -15t9.5 -15zM372 377v12q1 14 -11 36q-1 0 -3 -3t-6 -3 q-5 0 -7 7q-3 22 -8 31q-9 16 -29 19q-3 9 -33.5 21.5t-41.5 12.5q-4 0 -13 -6.5t-13 -6.5q-3 0 -9 1t-9 1q-4 0 -22 -6q-21 -7 -28 -8q-8 -12 -25 -21q2 -4 2 -9q0 -6 -4.5 -16t-4.5 -13q0 -11 -2 -32q0 -2 -4.5 -8.5t-4.5 -9.5t15 -28q2 -3 2 -8q0 -4 -3 -14.5t-3 -15.5 q0 -12 11 -20q-3 -10 -3 -17q0 -6 3.5 -12t3.5 -10q0 -3 -8 -11l6 -7h17q3 0 37 9.5t37 9.5q4 0 5 -1.5t5 -1.5t10 6l7 7q14 1 46 15q34 24 48 41q9 -1 24 1q2 7 0 20q-3 16 -3 20q0 17 19 18z" />
<glyph unicode="Q" horiz-adv-x="748" d="M673 437q0 -9 -20 -55q-11 -10 -30 -30q-1 -4 -5 -13q-1 -2 -44 -42q-2 -2 -16 -4q-5 -4 -6 -17q-15 -9 -28 -26q5 -8 11 -23q5 -3 22 -13q14 -8 17 -8q4 0 4 1t3 1q9 0 39.5 -42t30.5 -49t-9 -32q-9 -9 -24 -9q-3 0 -13 3.5t-13 3.5t-5.5 -1t-6.5 -1q-8 0 -13 6 q0 7 -4 21q-4 8 -18.5 19t-19.5 18q-1 8 -5 22q-3 8 -19.5 20.5t-29.5 12.5q-15 0 -49 -13t-39 -13q-3 0 -10.5 2.5t-10.5 2.5q-4 0 -15 -6t-14 -7q-4 16 -23 16q-7 0 -19 -19q-2 2 -5.5 12t-7.5 10q-34 -16 -35 -16q-14 0 -24 -3q-4 7 -13 15q-30 12 -45 12q-3 0 -6.5 -1.5 t-6.5 -1.5q-14 0 -20 6q-12 10 -34 32q-4 4 1 32q-4 8 -18 28q-8 11 -8 23q0 2 -6 11.5t-6 14.5q0 7 7 12l-19 12q3 18 9 43q0 1 5 5.5t5 7.5q0 4 -5.5 11t-5.5 10q0 20 15 22.5t13 30.5q13 3 20 16.5t5 24.5q1 1 11 1q6 0 13.5 40t35.5 40q3 0 9 -5t7 -6q3 1 10 13 q5 9 14 6q-1 5 0 15q18 14 36 14q3 0 11 -2.5t12 -2.5q2 0 9 2.5t11 2.5q3 0 7 -2.5t7 -2.5t13.5 5t11.5 5q4 0 14.5 -2.5t13.5 -2.5q4 0 16 2.5t15 2.5q35 0 57.5 -12l22.5 -12q15 0 33 14q4 -4 14 -13q5 -1 18.5 -6t16.5 -5t6 1t6 1q10 0 30 -21t19 -21q4 0 4.5 1t3.5 1 q11 0 15 -13q2 -11 -1 -22q22 -19 22 -51q0 -17 -7 -34q10 -6 20 -12.5t10 -13.5zM598 462q0 4 -1.5 12.5t-1.5 12.5q-37 33 -50 71q0 9 -9 9q-3 0 -10 -1t-10 -1q-16 0 -25.5 12t-14.5 12q-3 0 -9.5 -3t-9.5 -3l-34 16t-43 16q-3 0 -13 -4t-13 -4l-20 7q-3 1 -31 1 q-9 0 -13 -16q-4 -19 -10 -23q-13 -2 -35 -10q-38 -28 -39 -28q-3 0 -4 1.5t-4 1.5q-21 -25 -67 -67q-1 -10 5 -20q0 -4 -9.5 -17.5t-9.5 -23.5q0 -7 3 -14q-1 -4 -8.5 -12.5t-7.5 -11.5q0 1 25 -44q18 -29 21 -66q4 -2 15 -12t14 -10q4 0 5 1.5t5 1.5q45 -30 58 -30 q4 0 37 4t36 4q4 0 15.5 -4t14.5 -4t19 12t19 12q4 0 6.5 -1t5.5 -1q6 0 21 6t18 8q-25 37 -24 46q-8 1 -19 4q-15 17 -40 41q-35 23 -52 43q0 5 -3 17t-3 14q0 15 20 15q17 0 23 -3q3 -6 18 -26q13 -16 13 -19q0 -7 -5 -12q3 -2 9 0q8 1 10 1q3 0 9 -8t7 -9q4 -4 29 -19 q18 -10 19 -19q1 0 3 1t6 1q11 0 37 -37q33 32 85 83q-1 15 -1 38q4 27 3 37q15 16 15 21z" />
<glyph unicode="R" horiz-adv-x="568" d="M521 91q0 -6 -6 -13t-11 -7t-19 -2.5t-17 -2.5q-16 0 -55 32q-38 29 -40 38q-6 20 -15 20q-4 0 -5 -1t-5 -1q-5 0 -31 14.5t-40 14.5q-3 0 -7.5 -3t-7.5 -3t-38 12t-38 12t-5 -1t-5 -1q-2 0 -35 10q-7 0 -9 -9q-6 -2 -20 -6q-8 -40 -8 -48q0 -1 9 -25q4 -11 4 -20 q0 -7 -3.5 -17t-3.5 -14q0 2 7 -22q-8 1 -8 -5q0 -3 6.5 -31.5t6.5 -29.5q0 -19 -9 -24q-18 -9 -32 -28q-8 5 -19 24t-11 25q0 4 10 17q12 17 15 24q6 12 6 25q0 12 -10 11h-19q0 4 -2.5 13.5t-2.5 12.5t11 28.5t13 33.5q2 12 2 28q0 25 -29 40q-3 30 16 41q16 8 31 16 q-4 14 -4 48q0 3 4 7.5t4 7.5q0 2 -5.5 27.5t-6.5 36.5q-25 21 -20 47q9 2 24 9q4 2 12.5 11.5t12.5 9.5q8 0 16 -8q2 1 6.5 5.5t8.5 4.5q3 0 45.5 -2.5t45.5 -2.5t14 4t14 4q2 0 18 -8q1 1 7.5 7t10.5 6q6 0 26 -13l28 -18q6 -1 21 -4q6 -2 28.5 -26.5t22.5 -33.5 q0 -16 -9 -44q-11 -36 -26 -36q-3 0 -9.5 4t-9.5 4q-11 0 -55 -31l-46 -32q-19 -8 -57 -19q5 -10 22 -11l27 -1q13 -11 40 -25q21 -4 56 -13q24 -9 39 -19q6 -3 20 -3q3 0 7 1t7 1t10.5 -8t10.5 -8t3 1.5t4 1.5q3 0 10.5 -9.5t10.5 -11.5l16 8q4 -4 14 -19q11 -19 11 -28z M354 381q-7 12 -17 27q-20 13 -40 25.5t-46 12.5q-19 0 -52 -5q-41 -6 -52 -7q-11 -27 -25 -79q1 -16 -1 -46q0 -2 -3.5 -6.5t-3.5 -8.5q0 -12 7 -27t19 -15h21q3 0 8 5.5t8 5.5t8.5 -1.5t8.5 -1.5q12 0 50 11q8 8 21 17q4 1 11 2q43 30 52 42q7 9 1 22q10 10 25 27z" />
<glyph unicode="S" horiz-adv-x="523" d="M449 586q0 -29 -51 -29q-19 0 -27.5 5t-18.5 23q-6 1 -18 7.5t-15 6.5q-2 0 -11 -7q-4 -1 -20.5 -6t-21.5 -5q-3 0 -14 5q-5 -15 -35 -46q-26 -27 -26 -44q0 -10 1 -12q13 -9 22 -21q1 -6 5 -16q7 -13 24 -13q3 0 7 3t7 3q6 0 13 -16q3 -8 7 -16q25 -24 31 -24q4 0 6 2.5 t5 2.5q17 0 55.5 -43.5t36.5 -66.5q-1 -8 6 -18.5t19 -9.5q5 -18 5 -27q0 -1 -2 -13.5t-1 -19.5q-18 -22 -38 -54q-8 -4 -22 -18q-1 -7 -7 -22q-10 -15 -29 -23q-1 -1 -18 -1q-5 -18 -53 -37q-3 0 -8.5 5t-8.5 5t-9 -2.5t-10 -2.5q-5 0 -26.5 9.5t-23.5 9.5q-3 0 -8 -1.5 t-9 -1.5q-1 1 -3 13q-2 8 -9 8q-3 0 -9 -2.5t-9 -2.5t-27 21t-27 21q-4 0 -3 -1t-3 -1t-9 14.5t-14 14.5q-4 0 -7.5 -1t-4.5 -1q1 4 1 13q-15 19 -15 41q0 17 1 19q2 6 12 14t15 8q2 0 9.5 -2t12.5 -1q1 -8 -1 -22q-3 -17 -3 -23q0 -16 12 -26q33 -27 37 -27q3 0 2.5 1.5 t2.5 1.5t19.5 -15t20.5 -15q3 0 5.5 1.5t6.5 1.5q3 0 22 -12t26 -12q2 0 7 4t9 4q3 0 8.5 -2.5t8.5 -2.5q9 0 23 12t27 12q5 6 37 35q23 19 28 36q2 7 -2.5 18t-4.5 13q0 7 10 11q0 2 -2.5 7.5t-2.5 9.5q0 5 3 9q-2 3 -12 15t-10 19q0 5 3 9q-13 14 -17 28q-11 5 -22 6 q-1 1 -6 8t-8 7l-13 -3q-5 6 0 15q-11 2 -26 5q-20 20 -48 34q-20 11 -23.5 22.5t-5 12.5t-14.5 8q-10 4 -9 13q-11 5 -31 19q4 4 4 13q0 7 -3.5 22t-3.5 20q0 1 12 18q-2 9 2 24q35 35 81 61q53 30 92 30q4 0 13 -8t13 -8q3 0 3.5 1.5t4.5 1.5q3 0 17.5 -5.5t18.5 -5.5 q3 0 4.5 1.5t4.5 1.5q10 0 30 -23.5t20 -27.5z" />
<glyph unicode="T" horiz-adv-x="580" d="M529 512q0 -16 -32 -29q-26 -11 -38 -11q-10 0 -23 11t-16 11t-7.5 -5.5t-8.5 -5.5q-3 0 -8.5 4t-8.5 4t-5.5 -2.5t-6.5 -2.5t-19.5 9.5t-16.5 11.5q-4 -1 -12.5 -7t-11.5 -6t-5 1t-6 1q-3 0 -12.5 -1.5t-13.5 -1.5q-15 -15 -15 -55q0 -3 7 -11t7 -11q0 -5 -5 -22 q-6 -22 -14 -27q0 -4 9 -11q2 -18 0 -36q15 -27 15 -65q0 -63 1 -66q-2 -6 -6 -11q5 -5 13 -15q0 -7 -4 -25q-3 -14 -1 -23q1 -2 7 -10t6 -11v-20q-40 -17 -49 -17l-41 25q1 10 9 25q-5 45 -1 66q6 6 15 17q1 2 -2 31q-1 15 10 65q0 2 -7 12q2 60 0 66q-1 3 2 10t3 9 q0 8 -3.5 24t-3.5 24v29q-3 4 -9 13q-7 14 -18 38q-21 4 -42 7q-35 5 -51 5q-3 0 -19.5 -3t-20.5 -3q-10 0 -20 22q-7 18 -7 24q0 21 12 21q2 0 5.5 -2.5t7.5 -2.5q3 0 8 2.5t9 2.5q0 -2 -1.5 -6t-1.5 -6q8 -7 14 -7q3 0 15.5 7t16.5 7q2 0 8.5 -5.5t10 -5.5t14.5 -1.5 t13 -1.5t17.5 4t18.5 4t11.5 -4t12.5 -4q3 0 12 4t12 4t31 -8t31 -8t10.5 4t11.5 4q8 0 19 -10q16 8 14 8q3 0 10.5 -7t10.5 -7q4 0 10 3t9 3q1 0 9 -8q4 4 13 12q3 0 13 3t14 3q26 0 47 -18q18 -17 18 -35z" />
<glyph unicode="U" horiz-adv-x="681" d="M604 456q-9 -19 -24 -30q1 -2 8 -37q-6 -3 -16 -11q7 -6 18 -21l-15 -16q5 -41 -15 -99q-6 -4 -17 -16q-7 -9 -7 -37q-12 -10 -24.5 -32.5t-24 -34t-36 -27.5t-30.5 -16q-3 0 -3 3v0q0 3 -3 3h-6l-2 -16q-2 -11 -11 -11q-3 0 -9 6.5t-9 6.5q-4 0 -6 -2q-5 -10 -8 -13.5 t-22 -6.5q-2 0 -9.5 -6t-10.5 -6q-4 0 -10.5 4t-9.5 4q-4 0 -27.5 -9.5t-27.5 -9.5q-13 0 -17.5 10.5t-7.5 10.5t-3 -2v0q0 -3 -4 -3q-3 0 -5.5 4t-6.5 4q-2 0 -6 -1.5t-8 -1.5q-9 0 -37.5 16.5t-31 25t-4.5 20.5q-6 3 -19 11q-2 4 2 21q-10 4 -21 16q5 17 1 30q-1 1 -9 17 q-7 12 -5 18q-10 15 -26 44q2 10 3 29q-1 7 -8 22t-7 18t6.5 53t6.5 53t-5.5 9t-5.5 10q0 13 17 21q21 10 22 12q4 68 36 68q16 0 16 -15q0 -4 -7.5 -35.5t-8.5 -33.5q-1 -12 -7.5 -29.5t-6.5 -22.5q0 -10 19 -36q-11 -16 -24 -65q0 -4 11.5 -32.5t17.5 -38.5q-2 -3 -10 -11 q0 2 7 -9q-1 -6 -1 -16q11 -10 19.5 -30t16.5 -25q7 -1 18 -4q7 -7 22 -20q2 -2 27 -10q18 -6 23 -22q12 2 17 -5q10 -12 12 -14q6 3 9 11q2 5 11 5q3 0 7.5 -1.5t8.5 -1.5q10 19 22 19q8 0 24 -10l66 42q43 28 56 58q12 6 25 26q3 35 20.5 75.5t17.5 38.5q-13 34 -13 39 q0 2 5.5 25.5t4.5 47.5q-2 9 -8 30q45 16 41 16q13 0 13 -10q-1 -18 0 -19q22 -12 29 -22z" />
<glyph unicode="V" horiz-adv-x="612" d="M556 599q0 -13 -36 -48l-38 -36q-3 -4 1 -28q0 -2 -24 -23q-2 -17 -8 -39q-6 -5 -17 -17q-6 -6 -5 -31q-19 -28 -38 -71q-13 -27 -26 -36q-2 -15 -10 -40q-7 -4 -17 -15q-3 -6 -29 -69q3 -7 4 -17q-3 -6 -17 -18t-22 -12q-4 0 -37 32.5t-34 40.5q1 12 1 38 q-1 9 -12.5 11.5t-13 4t-15.5 31.5q-1 3 2 8.5t3 8.5l-3.5 3t-3.5 7t4 11q-10 5 -29 15q-4 3 -14 21.5t-16 24.5q6 10 6 18q0 9 -9 18q-18 18 -20 19q-1 4 4 19q-13 11 -20 40q-6 25 -21 32q2 10 -10 31t-12 25t13.5 14.5t18.5 10.5q16 0 33 -46q8 -25 15 -50q7 -16 19 -45 q11 -16 29 -43q-2 -4 -2 -9q0 -14 20 -37q13 -15 26 -29q6 -13 22 -39q10 -8 19 -17q13 -12 11 -23q9 -14 38 -39q4 6 14 20q0 7 4 22q10 11 30 37q5 7 10 26q4 14 14 19q-1 8 21 45q3 16 10 43q8 5 20 21q5 12 6.5 36.5t5.5 35.5q6 4 17 13q2 25 -4 45q20 44 69 97 q3 0 9 -5.5t9 -5.5q1 0 21 5q0 -10 7 -19q-1 -7 -1 -12q0 -9 4 -18.5t4 -11.5z" />
<glyph unicode="W" horiz-adv-x="1008" d="M960 641q-4 -14 -14 -41q-2 -4 -23 -19q0 -16 -7 -47q-15 -16 -41 -48q-25 -43 -65 -128q-12 -17 -30 -50q-9 -20 -21 -64q4 -17 6 -48q-3 -11 -13 -29q-13 -21 -16 -27q-34 -1 -59.5 44t-51.5 46q2 11 -1 16q-48 96 -81 128q1 25 -29 64q-28 36 -56 71q-4 1 -11 -13 q-10 -18 -18 -26q0 -6 -2 -16q-4 -13 -26 -18q-5 -3 -6 -12q-22 -14 -26 -21q-13 -22 -28 -40q-8 -18 -26 -53q-14 -20 -34 -58q-24 -17 -24 -29q-1 -29 -14 -40q-7 -8 -23 -19q-13 -2 -35 -4q-2 -1 -8.5 -5.5t-10.5 -4.5q-3 0 -8.5 1.5t-7 3t-18.5 44.5q0 4 3 13 q-18 23 -18 24q0 4 5.5 11t5.5 11q0 5 -12.5 27t-19.5 31q-1 6 11 11q-7 34 -12 53q-2 4 -11 24q-7 14 -6 24q-14 25 -40 71q0 10 -4 27q-1 1 -8 7.5t-7 10.5q0 34 21 34q9 0 31 -12q-1 -9 -1 -26q0 -3 6 -9t5 -10q0 -13 7 -35q10 -32 11 -37q4 -17 16 -50q13 -10 35 -37 l24 -48q0 -7 -7 -22v-7q4 -2 13 -2h8q3 -4 6 -23q1 -12 16 -12q19 0 62 65l44 70q-1 4 2 17q1 8 -4 18q15 14 44 37q5 41 4 43q16 7 16 24q0 34 -2 26q19 25 18 37q72 33 71 33q-2 0 26 -15q4 -11 4 -40t11 -60q7 -5 19 -16q2 -7 7 -21q9 -7 23 -21q1 -3 26 -38 q7 -16 26 -47q18 -13 46 -38q15 -17 9 -32q7 0 21 2t16 2q3 0 6.5 -3t7.5 -3q20 0 43 44q20 39 19 49q11 6 14 13q14 35 39 88q6 5 14 15q11 28 28 80q6 6 15 16q8 18 26 50q13 7 26 7q10 0 23 -9z" />
<glyph unicode="X" horiz-adv-x="606" d="M537 -35q0 -1 -6.5 -11t-6.5 -21q-10 -3 -29 -3q-3 0 -11.5 7.5t-14.5 9.5q-1 7 -7 21q-6 4 -14 13q-7 18 -21 40q-6 4 -19 16q-6 7 -13 45q-15 20 -51 55q-18 -2 -29 11q-5 6 -16 30q-3 -1 -34 -15q-11 -5 -18 -18q-9 -16 -13 -20q-28 -20 -55 -40q-30 -23 -28 -37 q-11 -10 -36 -40q-1 -2 -4 -18q-3 -7 -14 -7q-10 0 -19 10t-9 18q0 10 3 14q8 11 17 22q9 4 26 14q23 23 67 65q20 17 48 54q1 2 13 10.5t12 12.5q0 20 -49 63q-1 10 -10.5 27t-16.5 22q-26 27 -67 58q-8 21 -25.5 28t-33.5 13v32q19 8 23 8q13 -16 39 -46q11 -4 30 -17 q33 -38 40 -45q25 -27 42 -34q9 -20 31 -35q30 -22 31 -23q6 2 21 21q1 8 5 19q17 18 33 26q-1 11 4 30l16 9l45 42q7 18 37 52q4 0 11 1l12 20q9 15 22 15q42 0 42 -27q0 -22 -59 -80q-3 3 -11 3q-2 -2 -2 -13q-10 1 -23 -6.5t-25 -14.5q0 -3 6 -13q-19 -17 -39 -41 q-26 -33 -23 -45q-3 2 -9 13q-4 -2 -13 -13t-9 -17q0 -7 5.5 -10.5t5.5 -6.5q0 -4 -9 -13q12 -9 39 -36q1 -5 7 -13q13 -9 27 -18q24 -18 26 -36q5 -5 15 -5q0 -13 34 -35q4 -5 10 -21q40 -13 40 -48q0 -7 -3 -13q10 -12 10 -15z" />
<glyph unicode="Y" horiz-adv-x="594" d="M564 637q-10 0 -27 -4q-8 -4 -17 -22q-10 -21 -13 -25q-8 -7 -28 -18q-24 -14 -33 -20q-13 -10 -38 -46q-2 -3 -30 -30q-22 -20 -22 -33q0 -4 3 -8q-6 -3 -19 -11l-22 -33q-8 -5 -20 -18q3 -5 7 -19q-7 2 -7 -5l5 -1q-1 1 -5 -15q0 -2 3.5 -9t3.5 -9q0 -5 -4 -32 q-2 -21 0 -34q1 -4 15 -43q11 -31 11 -61q0 -11 -11 -54q-6 -6 -9 -6t-15 1t-15.5 1t-12.5 16.5t-9 19.5t6 10t7 9q6 19 6 43l-1 3q-1 2 0 13q1 2 0 5v2q-12 20 -12 26q0 3 4 10t5 10q2 5 0 15q-3 13 -3 17q0 2 3.5 9t3.5 11q0 3 -9 46q-9 8 -28 26q1 4 1 11q-4 8 -21 15 t-19 9q-3 11 -13 31l-22 22q-20 25 -18 42q-42 37 -102 93q-1 9 -8.5 31.5t-7.5 25.5q0 15 12 15q1 0 24 -21q4 -1 11 -2q8 -12 26 -29q1 -13 68 -97q3 0 5 1t5 1t23 -16t24 -16q3 0 5 1.5t5 1.5l36 -27q0 -8 -10 -17q7 -7 14 -7q4 0 12.5 5.5t11.5 5.5t4.5 -1.5t4.5 -1.5 q8 0 19 17q13 22 14 23q15 10 42 30q9 6 12.5 17.5t4.5 13.5q8 8 18 27q32 13 34.5 39.5t18.5 30.5q6 15 11 30q9 25 17 25q3 0 8.5 -2.5t8.5 -2.5t8.5 2.5t8.5 2.5q2 0 9.5 -5.5t15.5 -5.5q0 -8 3 -26.5t3 -28.5z" />
<glyph unicode="Z" horiz-adv-x="589" d="M519 514q0 -18 -4 -22l-20 -14q-15 -12 -15.5 -20.5t-1.5 -15.5q-4 -6 -10 -6q-3 0 -4.5 1t-4.5 1t-10 -7q1 -1 6 -7t5 -10q0 -7 -26 -19q-14 -8 -29 -15q-7 -17 -5 -31q-38 -48 -50 -42q-5 -3 -5 -16q-2 -6 -16 -10q-18 -5 -19 -6q-8 -5 -21 -23.5t-14 -27.5 q-7 -2 -20 -11q-6 -13 -20 -35q-14 -13 -29 -25q-26 -24 -31 -38q-13 0 -19 -8.5t-12 -17.5q13 -20 37 -20q3 0 11 4t11 4t8 -3t8 -3q4 0 12 4t12 4l69 3q10 0 14 -6t8 -13q7 6 7 13v11q12 3 33 3q3 0 6.5 -4t6.5 -4t9 6.5t10 6.5q3 0 3.5 -1t4.5 -1q3 0 8.5 6t6.5 7 q2 -1 7.5 -6t8.5 -5q4 0 3 1.5t3 1.5q22 0 41 -20.5t19 -38.5q0 -7 -7 -23q-7 -19 -16 -19q-3 0 -6.5 2.5t-6.5 2.5q-4 0 -13 -5t-13 -5q-3 0 -8.5 2.5t-8.5 2.5t-9.5 -2.5t-10.5 -2.5q-3 0 -16.5 4t-16.5 4t-9.5 -1.5t-9.5 -1.5q-7 0 -15 19q-5 12 -9 24h-7q-6 -14 -14 -14 q-3 0 -5 2.5t-6 2.5q-2 0 -6.5 -2.5t-7.5 -2.5t-8.5 2.5t-8.5 2.5q-4 0 -8 -2.5t-7 -2.5q-5 0 -44 6.5t-54 6.5q-2 0 -21.5 -8t-24.5 -8q-3 0 -7 1.5t-7 1.5q-4 0 -16 -5t-15 -5q-8 0 -22.5 6.5t-14.5 14.5q0 18 26 48q23 26 36 32q26 13 40 16q18 14 18 39q25 20 69 63 q7 1 13 1q10 2 12 10q-2 9 -3 29q15 17 45 28q2 7 11 20q6 4 17 14q2 3 4 18q3 5 19 27q6 9 16 9q3 3 5 15q8 2 19 13q25 63 25 59q0 7 -7 13q-17 1 -49 12.5t-38 11.5q-3 0 -11 -4t-12 -4q-8 0 -22 -1t-18 -1q-2 0 -15 10h-29q-9 0 -22.5 -12t-15.5 -12q-6 0 -25 9 q-22 9 -32 18q-4 4 -4 19q0 11 15 18q12 6 25 6q3 0 29 -7t29 -7t7.5 4t7.5 4t9.5 -4t10.5 -4q2 0 8.5 4t9.5 4l8 -6.5t30 -6.5q18 0 30.5 8t18.5 8q2 0 6 -1.5t7 -1.5q10 0 17.5 11t14.5 11l16 -8q1 0 17 13q9 8 25 8q8 0 35 -34q16 2 27.5 -11.5t11.5 -30.5z" />
<glyph unicode="[" />
<glyph unicode="\" />
<glyph unicode="]" />
<glyph unicode="^" />
<glyph unicode="_" />
<glyph unicode="`" />
<glyph unicode="a" horiz-adv-x="657" d="M609 -45q-12 -7 -23 -14q-4 -3 -17 -3q-18 0 -25 26q-9 37 -8.5 40.5t-5 17t-4.5 19.5q0 38 -8 52q-5 3 -15 11q-1 10 5 27q-2 2 -10 2q-1 -7 -4 40q-13 8 -36 63q-18 -8 -17 -8q-3 0 -11 2.5t-11 2.5q-4 0 -7.5 -1t-7.5 -1q-7 0 -16 3q-13 4 -36 8q-3 1 -11 8t-11 7 t-7 -2.5t-7 -2.5t-33.5 2.5t-33.5 2.5t-9.5 -6.5t-9.5 -6.5t-11 5.5t-12 5.5q-3 0 -16 -18q-36 6 -70 -59q-6 -5 -17 -16q-10 -18 -28 -45q-7 0 -12 10q-9 16 -11 17q25 25 60 73q7 12 7 22q0 5 -2.5 11t-2.5 8q0 3 3 7q8 14 31 39q6 1 17 2q7 8 24 52q5 4 14 13 q23 40 58 115q4 2 14 10q-1 5 -1 16q2 2 33 40q-3 8 -4 24q8 2 24 9q3 2 10 10q5 5 10 5q21 0 35 -23q11 -18 11 -34q0 1 -11 -11v-10q0 -9 23 -66q19 -48 27 -66q-2 -1 -6 -5q-25 21 -53 67q-17 29 -42 29q-30 -29 -41 -55q-2 -6 -10.5 -7.5t-15.5 -2.5q-22 -34 -52 -97 q-10 -12 -24 -36q11 -7 26 -7q3 0 9.5 -1.5t9.5 -1.5t18 4t18 4t9.5 -1t9.5 -1t17 4t17 4q4 0 12 -6.5t12 -7.5q1 6 5 16q36 -5 39 -5t15.5 10.5t16.5 10.5q3 0 14 -5q4 5 2 16q-3 19 -3 20q6 6 8 6q7 0 15 -7q13 -11 18 -14q0 -7 2 -22q5 -5 12 -16q14 -56 34 -114 q31 -85 34 -96q8 -26 25 -36q10 -6 21 -12q-2 -52 4 -70z" />
<glyph unicode="b" horiz-adv-x="600" d="M534 160q0 -2 -1 -13.5t-1 -16.5q-30 -4 -78 -45q-61 -52 -74 -60q-40 -23 -38 -23q-3 0 -5.5 1.5t-6.5 1.5q-9 0 -34.5 -16t-45.5 -16q-32 0 -49 -2q-13 1 -40 -2q-5 -1 -11.5 -5t-8.5 -4h-31q-3 0 -23.5 9t-22.5 10l10 18q0 3 -5 15.5t-5 16.5q0 15 7 19q14 6 19 12 q1 8 5 26q0 1 -1.5 8t-1.5 12q0 16 16 16q18 0 29 -36q9 -27 9 -52q0 -11 -7 -17q-11 -7 -17 -18q17 -5 24 -5t29 1.5t34 1.5q3 0 18 4t18 4t5 -1.5t5 -1.5q22 0 85 32q53 27 67 38q21 16 34 50t30 39q0 3 -5.5 6.5t-7.5 5.5q4 10 6 26q-3 10 -30.5 42t-34.5 32q-3 0 -4 -1 t-4 -1t-12 8t-12 8t-4.5 -1.5t-4.5 -1.5t-7 4.5t-7 5.5q-39 9 -50 9q-3 0 -5.5 -1.5t-6.5 -1.5q-3 0 -20 6.5t-20 6.5q-12 0 -67 -14q-7 -6 -19 -19q-8 -3 -23 -11q-6 -23 -9 -80q-1 -20 -18 -22q0 -4 0 18q0 3 -6 19q-9 20 -13 36q-2 9 -8 29q-9 8 -20 24q-6 26 -6 41 q0 -2 14 28.5t11 55.5q-3 21 0 25q4 6 4 7q0 7 -7.5 27t-13.5 20q-3 0 -4.5 -1.5t-4.5 -1.5q-20 0 -20 32q0 14 11 20t24 12q2 1 12 15q9 11 17 11q3 0 8 -2.5t8 -2.5t10 6t9 6q12 -1 35 2q4 2 12.5 10t11.5 8t7.5 -2.5t8.5 -2.5q-3 0 24.5 12t54.5 12q3 0 26 -4t27 -4 q3 0 9.5 4t8.5 4q12 0 31 -20q13 -15 25 -29q-5 -6 -16 -19q9 -4 29 -13q-4 -17 -6 -59q-12 -15 -12 -25q-31 -17 -49 -40q-15 -17 -48 -35q-2 -2 -6 -9t-8 -7q-3 0 -2 1.5t-3 1.5q-3 0 -16.5 -12t-16.5 -12t-4.5 1.5t-4.5 1.5q-6 0 -12 -13q0 -9 9 -9q3 0 14.5 -1t14.5 -1 t12 2.5t12 2.5t27 -13t28 -13q2 0 8.5 4t9.5 4q4 0 18.5 -9.5t18.5 -11.5q16 -4 48 -18q10 -13 19 -27q19 -25 27 -25q3 0 3.5 1.5t4.5 1.5q11 0 18 -31q5 -22 5 -40zM340 510q0 4 -4.5 8t-5.5 7q0 9 -4 22q-16 22 -40 22q-3 0 -10.5 -4t-10.5 -4q-4 0 -8.5 3l-4.5 3 q-5 2 -26 -1q-18 -2 -27 5q1 -32 -17 -32q-3 0 -12 6.5t-12 6.5h-22q3 -9 -7 -24l-14 -22q-1 -14 -3 -37q1 -11 0.5 -15.5t-0.5 -3.5q0 -4 2.5 -30t3.5 -31q0 -15 19 -15q3 0 12.5 1.5t12.5 1.5q9 0 25 13t27 13q4 0 8 -1q5 3 29 19q5 19 40 36q2 11 9 15q10 1 25 13.5 t15 24.5z" />
<glyph unicode="c" horiz-adv-x="511" d="M481 521q0 -25 -11 -35q-2 0 -7.5 2.5t-9.5 2.5q-3 0 -5 -1t-5 -1q-15 0 -38 21q-26 23 -27 23q-9 0 -29 4q-1 1 -7.5 5.5t-10.5 4.5q-3 0 -22.5 -11.5t-24.5 -16.5q-4 0 -15.5 -3t-14.5 -3t-8 1t-8 1q-11 0 -17 -10q0 -4 -2 -12q-35 -14 -67 -48.5t-40 -69.5q2 -9 1 -26 q-5 -10 -13 -27q1 -15 -4.5 -22.5t-5.5 -15.5q0 -3 5.5 -17t5.5 -18q0 -2 -5.5 -8.5t-5.5 -9.5t10.5 -21t12.5 -25q-1 -10 2 -27q7 -2 19 -8q24 -19 17 -37q1 0 24 -3q5 -5 10.5 -10t10.5 -3q17 -23 22 -23q3 0 5 1.5t6 1.5q3 0 9.5 -3t10.5 -3q5 0 18 3t14 3q2 0 6.5 -4 t7.5 -4t10.5 4t10.5 4q4 0 27 -5.5t27 -5.5q3 0 11 4t11 4q9 0 18.5 -15.5t9.5 -19.5q0 -7 -17 -24q-5 6 -12 6q-3 0 -8.5 -5.5t-8.5 -5.5q-4 0 -14 2.5t-13 2.5q-18 0 -37 -16q-18 11 -19 11q-3 0 -14.5 -5.5t-14.5 -5.5q-6 0 -28 17t-23 17q-26 7 -85 36q-6 11 -18 27 q-14 10 -33 35q2 13 -1 40q-10 16 -19 48q-1 26 5 61q-12 17 -12 16q0 3 3.5 7t3.5 6t-2 26q-2 17 1 28q2 8 14 20q15 16 19 23q8 17 26 48q45 56 90 78q2 1 7.5 7t10.5 6q3 0 3 -1.5t3 -1.5q4 0 12 9.5t11 9.5t7.5 -3t7.5 -3q15 0 20 26q12 1 35 4q5 1 21 7q13 6 17 6 q-2 0 13 -6q2 4 3 15q1 4 13 4q13 0 15 -7q2 -10 7 -14q23 -2 47.5 -22t24.5 -47z" />
<glyph unicode="d" horiz-adv-x="552" d="M481 341q0 -20 -5.5 -25.5l-14.5 -14.5q1 -8 1 -24q-13 -15 -19.5 -45.5t-15.5 -40.5q-17 -10 -43 -39q-4 -9 -10 -13q-11 -10 -35 -24q-39 -15 -52 -26q-9 -10 -19 -19q-37 -28 -54 -26q-3 -3 -15 -25q-10 -17 -23.5 -19.5t-35.5 -6.5q-13 -6 -40 -17h-9q-3 0 -3 6 q0 7 10 18q9 8 18 17q-2 1 -2 5q0 6 7 23t7 21q0 5 -8 49q-8 50 -9 61q-1 2 -4.5 12.5t-3.5 17.5q0 3 3.5 11t1.5 11q-3 15 -7 32q-2 3 -10 9q0 4 7 19q-7 20 -9 82q0 29 -14 42q0 3 5 8.5t5 8.5q0 2 -9 26t-10 35q-6 7 -14 7q-3 0 -5 -1.5t-6 -1.5t-16 10.5t-12 14.5 q0 3 17 15q54 40 59 40q3 0 26.5 -10.5t26.5 -10.5t14.5 1t15.5 1q21 0 22.5 -8t22.5 -8q3 0 11 1.5t11 1.5q18 0 143 -57q1 -2 19 -16q8 -12 27 -30q8 -7 39 -20q3 -7 8 -19q6 -20 6 -59zM409 305q-14 6 -17 24l-2 26q-5 11 -13 32q-9 0 -15 10q7 8 7 14q-11 6 -20 23 t-14 22q-14 4 -41 15q-5 6 -16 14q-39 14 -51 14q-3 0 -6 -2.5t-4 -2.5q-2 2 -10 18q-1 0 -3 -1t-6 -1q-3 0 -13.5 5.5t-14.5 5.5q-3 0 -11.5 -3t-12.5 -3q1 0 -27 5q-1 -12 -4 -36t-3 -26q0 -3 5 -26q6 -26 7 -35q4 -31 4 -91q3 -3 7 -8q-1 9 -1 -24q5 -5 11 -15 q-3 -13 -6 -36q13 -6 13 -20v-22q6 -5 12 -13q-2 -21 -1 -59q13 -7 14 -15q1 -12 9 -36h24q64 49 129 97q79 70 70 150z" />
<glyph unicode="e" horiz-adv-x="540" d="M513 54q-4 -22 -27 -28q-37 -9 -44 -13q-9 14 -29 14q-4 0 -11 -1h-11q-24 0 -29 24h-7l-18 -2q-16 -3 -24 -2q-4 -2 -11 -15q-6 2 -15.5 5t-12.5 3t-16 -6.5t-16 -6.5t-8 4t-8 4t-18 -9.5t-18 -9.5l-24.5 1.5t-32.5 1.5q-4 0 -12 8l-16 -16q-17 2 -17 28q0 15 11 19 q21 7 28 14q3 20 3 23q0 24 -6 61q-6 30 -9 37q1 -4 6 13q-2 15 -9 43q0 1 7 11q-3 13 -7 25q-6 16 -23 16q-3 0 -7 -1.5t-8 -1.5q-6 0 -14.5 6t-8.5 10q0 3 1 9t1 9q6 6 9 6q4 0 4.5 -1.5t3.5 -1.5q5 0 19 4q18 4 22 9q-5 7 -5 17q0 9 4 28.5t4 28.5q0 14 -1 48t-1 52 q-5 2 -26 2q-3 0 -20 -6.5t-21 -6.5q-18 0 -18 20q0 7 6 12t11 5q3 0 4 -1t4 -1t23.5 8t24.5 8q3 0 6.5 -3t6.5 -3t8.5 4t8.5 4q4 0 14 -4t13 -4q2 0 8 3t9 3q4 0 17.5 -7t17.5 -7q3 0 6.5 4t6.5 4q-1 0 31.5 -5t48.5 -5h46h20q7 8 24 20q7 3 35.5 7t35.5 4q16 0 24 -12 t8 -23q0 -10 -4 -12q-10 -5 -12 -8q0 -2 2.5 -9t2.5 -9q-32 -20 -40 -20q-16 0 -21 13.5t-13 13.5q-3 0 -10.5 -4t-11.5 -4q-3 0 -15 6.5t-15 6.5t-5.5 -1t-6.5 -1q-3 0 -7.5 4t-7.5 4t-6.5 -3t-6.5 -3t-9 4t-9 4t-3 -1v0q0 -1 -3 -1t-6 4t-6 4t-20 -7t-20 -7t-12.5 6t-13 7 t-23.5 1q-24 0 -20 0q-12 -2 -23.5 -20t-11.5 -101q0 -3 6.5 -10t6.5 -9t-4 -17q-2 -12 0 -20q1 -4 19 -13.5t27 -9.5q3 0 4.5 1.5t4.5 1.5t16.5 -6.5t16.5 -6.5q1 0 20 6.5t24 6.5q3 0 7.5 -3t6.5 -3q3 7 11 19q2 0 10 -5.5t12 -5.5q2 0 5 1.5t7 1.5q53 0 53 -52 q0 -33 -33 -33q-3 0 -12 4t-12 4t-6.5 -1.5t-7.5 -1.5q-18 0 -37 17q-9 10 -19 21q-1 -1 -7 -6t-10 -5q-3 0 -12.5 6.5t-12.5 6.5t-18.5 -2.5t-18.5 -2.5t-10.5 2.5t-10.5 2.5q-15 0 -15 -22q0 -2 5 -23t5 -31q0 -4 -2.5 -16t-2.5 -15q0 -21 8 -58q10 -53 25 -53q3 0 7.5 3 t7.5 3t18 -9.5t18 -9.5h35q14 0 35.5 8l21.5 8q3 0 6.5 -1.5t6.5 -1.5t12.5 13.5t12.5 13.5q4 0 24 -4t23 -4t19.5 10.5t20.5 10.5q10 0 27 -8t20 -17q0 -9 1 -19.5t10 -20.5z" />
<glyph unicode="f" horiz-adv-x="392" d="M420 558q0 -4 -21 -15t-25 -22q-5 0 -8.5 1t-6.5 1t-7 -2.5t-6 -2.5q-3 0 -7 4t-8 4q-3 0 -21 -2.5t-21 -2.5q-10 0 -23.5 10.5t-27.5 10.5q-3 0 -15.5 -4t-16.5 -4q-3 0 -15.5 4t-16.5 4q-3 0 -11 -12q-12 -19 -16 -24q3 -12 -1 -32q-5 -24 -5 -29l3 -13q2 -11 0 -25 q-1 -5 0 -9q10 -12 10 -20q0 -5 -18 -24q9 -16 9 -42q1 -15 15 -15q2 0 10 5.5t12 5.5q3 0 6 -2.5t6 -2.5q4 0 8.5 4t7.5 4t14 -9.5t14 -9.5q1 0 20 5.5t24 5.5q4 0 16.5 -5.5t12.5 -9.5q0 -3 -11 -14q0 -6 8 -10q-4 -14 -14 -41q-14 8 -17 8t-8.5 -4t-9.5 -4q-3 0 -11 5 t-11 5q-1 0 -17.5 -4t-21.5 -4q-3 0 -13 9.5t-13 9.5q-10 0 -20 -18q-1 -4 7 -12q-4 -25 -1 -35q-10 -24 -10 -26q5 -37 5 -35q-1 -7 -5 -24.5t-4 -20.5q0 1 13 -40q0 -11 -10 -35q-11 -28 -21 -28h-12q-12 0 -21 33q0 1 10 14q-2 10 7.5 36l9.5 26q0 2 -5.5 16t-7.5 23 q7 6 7 19q0 16 -10 39q1 8 -1 24q-1 2 -17 18q0 7 -2 18q-8 6 -42 16q-23 7 -23 20q0 5 12.5 18t17.5 13q3 0 8.5 -4t10.5 -4q8 0 20 13q9 13 12 23q2 6 0 19q-3 19 -4 26q0 6 5 21t5 19q0 7 -6 21q1 3 -2.5 13.5t-3.5 12.5q0 4 3.5 17t3.5 21t-3 15q-12 4 -34 16q0 10 5 26 q6 21 15 21q3 0 17 -2.5t17 -2.5q4 0 36.5 6.5t35.5 6.5q-3 0 13 -8q6 6 14 13.5t16 7.5q2 0 8.5 -2.5t9.5 -2.5t10 2.5t10 2.5t8 -2.5t8 -2.5q4 0 13.5 5.5t13.5 5.5q3 0 5 -1.5t5 -1.5q4 0 16 9.5t15 9.5q65 0 65 -64z" />
<glyph unicode="g" horiz-adv-x="720" d="M673 258q-20 -22 -52 -45q-14 -1 -45 -7q-1 -1 -6 -4t-9 -3q-3 0 -15 4t-15 4q-13 0 -31 -66q-16 -57 -16 -68q0 -4 3 -4.5t4 -1.5q-3 -10 -3 -21q0 -16 8.5 -45.5t8.5 -43.5q0 -6 -13.5 -23t-16.5 -17q-15 0 -26 21q-10 18 -10 34q0 2 6.5 26t6.5 28q0 3 -1 10t-1 12 q-4 0 -12 1t-11 1q-4 0 -17 -8t-16 -8q-4 0 -8 1.5t-6 1.5q-15 -30 -32 -30q-3 0 -8.5 4t-8.5 4t-19.5 -8t-20.5 -8q-45 0 -69 9q-2 1 -10.5 12t-14.5 11q-4 0 -6.5 -1t-5.5 -1t-19.5 7.5t-23.5 9.5q-23 23 -56 63q-14 32 -40 88q4 12 6 24q-7 0 -7 6l5 3q-3 8 -4 26 q6 11 14 32q5 23 10 64q5 7 11 19v13q9 8 11 25l2 26q16 14 43 48q15 19 31 20q4 6 11 20q6 2 16 6q5 3 7 9.5t4 12.5q11 4 24 8t18 17q24 -7 25 -7q3 0 32 13t33 13q1 0 12 -11q1 1 7 6t10 5t9.5 -4t9.5 -4q3 0 10.5 2.5t10.5 2.5q9 0 12 -8q6 -13 8 -16q1 0 4.5 3t7.5 3 q3 0 15.5 -3t18.5 -3q3 -5 3 -22q0 -24 -9 -30q-18 -11 -27 -11q-2 0 -10.5 8t-12.5 8q-3 0 -4 -1.5t-5 -1.5q-3 0 -8 5.5t-8 5.5t-6.5 -3t-6.5 -3t-12 5.5t-12 5.5t-10 -6t-8 -7q-13 -6 -37 -6h-23q-3 0 -8.5 4t-7.5 4q-7 0 -28.5 -22t-28.5 -36q-10 -9 -25.5 -30.5 t-37.5 -59.5q-11 -33 -39 -101q1 -9 1 -26l-7 -11q0 -2 3 -9t2 -9q-4 -21 -2 -26q3 -7 22 -37q12 -14 40 -48q0 -5 6 -12q5 -3 23 -15q15 -10 19 -10q3 0 8.5 3t8.5 3q9 0 33.5 -8t27.5 -8q4 0 6 2.5t5 2.5t8 -4t8 -4q24 0 34 20t16 20q4 0 6 -1.5t5 -1.5q26 0 42 42 q-1 12 1 37q6 8 13 24v36q-17 13 -25 13q-4 0 -16 -7t-15 -7q-2 0 -8.5 3t-10.5 3q-3 0 -8.5 -3t-8.5 -3q-2 0 -7 3t-9 3q-10 0 -23.5 -3.5t-34.5 -8.5q-5 -1 -17.5 -10.5t-16.5 -9.5q-13 0 -27.5 12.5t-14.5 20.5q0 6 6 14.5t12 8.5q4 0 17 -4t17 -4q3 0 23 5t23 5 q4 0 6.5 -1t5.5 -1q1 0 20 5t21 5q3 0 7 -2.5t7 -2.5t27 13.5t27 13.5t9 -4t10 -4q3 0 7 4t7 4q4 0 10.5 -4t9.5 -4q10 0 13 6q7 15 11 19q9 1 30 6q1 0 5 -6.5t8 -6.5q3 0 27.5 7t28.5 7q2 0 16.5 -7t17.5 -7t10 3t10 3q20 0 35 -11v-42z" />
<glyph unicode="h" horiz-adv-x="607" d="M537 616q-8 -45 -26 -84q-6 -14 -5 -42q1 -31 -2 -43q-7 -25 -15 -50q-10 -35 -10 -51q0 -8 21 -47q0 -5 -7 -14q2 -4 2 -9q0 -13 -13.5 -28t-24.5 -19q8 -16 8 -15q0 -3 -5.5 -9t-6.5 -10q-3 -36 -10 -107q-1 -9 -7.5 -19.5t-12.5 -10.5q-13 0 -13 23l7 52.5t9 79.5 q-13 7 -37 19q-2 1 -12.5 12t-16.5 11q-3 0 -11.5 -7t-12.5 -7q-3 0 -11 3t-11 3q-4 0 -19 -4t-18 -4q-4 0 -15 6.5t-12 6.5q-3 0 -24.5 -8t-24.5 -8t-10.5 1.5t-11.5 1.5q-7 0 -14 -7v-29q0 -12 3 -48q5 -5 12 -16l-7 -20q7 -8 12.5 -16t5.5 -21q0 -11 -6 -21q-8 1 -27 -11 q-16 12 -35 41q3 7 4 18q-13 32 -13 30q0 5 7 14q0 5 -1 16q8 9 8 10q0 4 -11 21t-17 17q-4 0 -23 -2.5t-22 -2.5q-5 0 -15.5 9t-10.5 14q0 25 38 31q21 4 43 2q4 4 4 5q0 -4 -12 30q-1 4 2.5 13.5t3.5 11.5q-22 53 -28.5 87.5t-18.5 103.5q0 6 31 18q12 -21 17 -58.5 t1 -62.5q11 -16 18.5 -67t27.5 -78q12 1 41 7q26 6 29 6t6 -1.5t6 -1.5t11 4t12 4q3 0 11 -5t11 -5t57 18.5t85 18.5q4 0 3 -1.5t3 -1.5q8 0 16 32q9 42 12 47q-2 13 5 63q0 15 -3 43q8 9 10.5 33t16.5 37q-3 18 2 38q7 24 25 24z" />
<glyph unicode="i" horiz-adv-x="435" d="M378 547q0 -20 -11.5 -38t-31.5 -18q-4 0 -20 8t-19 8q-2 0 -12 -5q-13 -7 -20 -10q0 -20 -14 -32q3 -9 2 -29q-7 -6 -15 -18q3 -11 5 -37q0 -3 -5 -9.5t-5 -9.5q0 -35 1 -32q-41 -125 -45 -213q-3 -3 -7 -13q1 -14 1 -28q0 -20 -9 -41q14 -7 20 -7q3 0 8.5 3t8.5 3 q1 0 17 -8l11 10q11 -7 30 -22v-27q-8 -9 -15 -9q-4 0 -10 4t-9 4q-1 0 -17 -9.5t-19 -9.5t-29 4t-29 4q-13 0 -48 -6q-5 -1 -19 -8t-17 -7q-9 0 -32 16v13q10 8 28 27q4 -6 26 -6h40q2 1 6 5q-2 8 -1 24q6 14 28 32q1 3 -1.5 8t-2.5 6q-1 12 7 33q6 17 13 35q3 11 1 30 q-2 16 -3 33q0 6 3 22t4 21q7 20 15 65q-1 24 2 71q2 21 6 48q1 2 5.5 6.5t4.5 7.5t-7 12.5t-7 20.5q0 8 3 18q-24 10 -38 10q-3 0 -30 -16t-30 -16q-8 0 -17.5 11t-9.5 17q0 12 20 28q17 14 21 14q3 0 13 -4t13 -4t17 8t17 8q4 0 6.5 -3t5.5 -3q30 0 39 19q1 0 6 -2.5 t8 -2.5t8 2.5t8 2.5q4 0 6 -1.5t5 -1.5t11.5 4t11.5 4t7 -6q6 -9 7 -10q40 27 48 27q10 0 21 -17q10 -13 10 -18z" />
<glyph unicode="j" horiz-adv-x="491" d="M479 555q0 -64 -40 -64q-3 0 -6.5 1.5t-7.5 1.5q-9 0 -26 -21q-7 -9 -9 -34q-2 -37 -2.5 -40.5t-4 -9t-3.5 -8.5t5.5 -14.5t5.5 -14.5q0 -4 -6.5 -21t-6.5 -20t5 -10t5 -10t-4.5 -13t-5.5 -17q3 -8 4 -24q-5 -19 -6 -63q-1 -37 -9 -52q2 -8 2 -23q-7 -44 -29 -123 q-11 0 -22 1q-14 -1 -21 -7q-7 -9 -16 -20q-2 0 -16 -2q-13 -18 -20 -18q-4 0 -29 11t-29 11q-3 0 -7.5 -1.5t-7.5 -1.5q-7 0 -21 6q-17 8 -22 16q-3 4 -3.5 17.5t-6.5 22.5q-17 11 -44 42q0 16 -4 40q-3 7 -17 24q-11 14 -11 18q0 10 8.5 30.5t17.5 20.5q15 0 25 -32 q8 -23 8 -36q4 -10 13 -26q25 -34 60 -55q6 1 16 -2q10 -6 21 -28q3 1 14 7.5t15 6.5q2 0 5 -1.5t7 -1.5q8 0 28 20l24 24q-3 9 -5 18q-3 12 2.5 21t12.5 19.5t5 18.5q10 8 15 35q7 36 12 47t5 25q0 9 -3 25t-3 22q0 1 8 38.5t8 42.5q0 45 -15 71.5t-15 42.5v28q-4 5 -8 5 q-2 0 -8 -3t-10 -3t-10.5 1.5t-9.5 1.5q-15 0 -22.5 -6.5t-9.5 -6.5q-3 0 -8 2.5t-8 2.5t-10.5 -2.5t-10.5 -2.5q-4 0 -10.5 1t-9.5 1q-4 0 -22.5 -5t-21.5 -5q-4 0 -10.5 8t-6.5 13q0 7 14 19.5t19 12.5q1 0 12 -4t17 -4q7 0 16 4t12 4t9 -2.5t10 -2.5q3 0 12.5 5t12.5 5 t19 -2.5t19 -2.5q4 0 9.5 4.5t7.5 4.5q35 17 69 18l10 7q4 0 11.5 -2.5t11.5 -2.5q3 0 11.5 2.5t12.5 2.5q8 0 18 -10.5t10 -18.5z" />
<glyph unicode="k" horiz-adv-x="595" d="M542 124q0 -10 -14 -28q-3 0 -21 -7t-24 -7q-20 0 -35 33t-31 33q-3 0 -4 -1t-5 -1q-7 0 -22 6q-2 10 -13 25q-18 5 -51 20q-24 19 -77 54q-78 44 -92 44q-3 0 -4 -1.5t-4 -1.5q-1 0 -9 8q-3 0 -11 -7v-88q0 -6 7 -36q8 -33 13 -38q-5 -14 -3 -20q14 -48 16 -75 q1 -21 4 -27v-9q-31 -17 -37 -17q-8 0 -22.5 11.5t-14.5 18.5q0 1 7 12q17 52 17 64q0 3 -6 15t-7 16v48q0 36 -16 48q7 8 7 18q0 17 -22.5 52.5t-22.5 45.5q0 3 12 28.5t12 28.5v82q0 3 -8 17.5t-8 17.5q0 10 14 35q5 1 17 1q18 0 24 -9q-6 -26 -6 -74q0 -90 24 -90 q3 0 11 2.5t11 2.5q2 0 5 -2.5t7 -2.5q3 0 7.5 4t8.5 4q3 0 8.5 -3t7.5 -3q4 12 24 18q16 4 32 7q5 2 29 12q21 9 26 9q3 0 10 -1.5t10 -1.5q12 0 21 4q2 0 6 7.5t8 7.5q3 0 4.5 -1.5t4.5 -1.5t15 5.5t16 5.5q3 0 3.5 -1.5t4.5 -1.5q1 0 13 3.5t28 5.5q6 6 7 17v2q0 9 10 9 q23 0 45 -10q25 -14 25 -35q0 -23 -22 -34q-41 -18 -45 -22q-6 4 -19 14q-2 0 -19 -16q-5 5 -9 5q-3 0 -4 -1.5t-4 -1.5q-2 0 -18 16q-4 1 -12 -12q-7 -1 -13 -8.5t-11 -13.5q-17 5 -34 5q-6 0 -21 -5.5t-17 -5.5q-3 0 -9.5 4t-9.5 4t-13.5 -6.5t-14.5 -6.5q-3 0 -3.5 1.5 t-4.5 1.5q-3 0 -9 -6l-7 -7q-9 -2 -17 -4q-13 -4 -15 -16q11 1 29 -3q12 -10 35 -28q31 -20 47 -29q15 -3 48 -12q11 -7 32 -19q49 -20 45 -20q3 0 4.5 3t4.5 3q5 0 24 -11t26 -11q4 -12 8 -25q7 -17 18 -17q3 0 3 1t4 1q13 0 22 -8.5t9 -15.5z" />
<glyph unicode="l" horiz-adv-x="473" d="M460 75q-11 -12 -19 -12q-3 0 -4.5 1.5t-4.5 1.5t-8 -4t-8 -4t-5.5 1.5t-6.5 1.5q-3 0 -11 -5.5t-11 -5.5q-4 0 -4 1v0q0 2 -3 2q-9 0 -14 -11q-20 13 -55 13q-10 0 -32 -8t-35 -8q-3 0 -23.5 3t-24.5 3q-36 0 -59 -12q-3 -2 -14 -11t-14 -9t-8 2.5t-8 2.5t-7 -1.5 t-8 -1.5q-10 0 -17 20q-5 14 -5 22q0 6 8 24q0 4 -3 15.5t-3 14.5q0 19 19 34q-5 8 -5 22t6.5 40.5t6.5 32.5q0 3 -8 30.5t-8 30.5q0 22 13.5 31t17 20.5t3.5 32.5q0 3 -6.5 24t-6.5 24q0 -2 11 44q-6 12 -6 25q0 9 10.5 29.5t11.5 30.5q-1 15 3 45q7 20 26 20q21 0 21 -32 q0 -3 -2.5 -19t-1.5 -30q-3 -11 2 -35q-23 -43 -23 -54q0 -3 3.5 -9.5t3.5 -15.5q0 -4 -5 -21t-5 -21q7 -6 7 -13q0 -5 -5.5 -14.5t-5.5 -13.5q0 -3 5.5 -7t7 -6t1.5 -13q0 -15 -4 -22q-23 -45 -23 -64q0 5 7 -20q-2 -13 -1 -38q1 -4 8 -16.5t7 -15.5t-6.5 -20.5t-6.5 -20.5 q0 -9 18 -29q10 5 19 5q4 0 13 -2.5t12 -2.5t8 5t8 5q4 0 10 -4t9 -4q20 0 37.5 12t27.5 12q2 0 8 -2.5t9 -2.5q4 0 10 4t9 4t6 -1.5t6 -1.5q37 0 49.5 14.5t35.5 14.5q4 0 14.5 -7t19.5 -10q2 -1 6 -5v-35z" />
<glyph unicode="m" horiz-adv-x="769" d="M694 71q0 -3 -2 -7.5t-3 -7.5q1 -9 -1 -26q-2 -4 -16.5 -9.5t-21.5 -5.5q-9 0 -22 15v42q-1 19 -7 56q0 3 -4.5 8t-4.5 8q0 5 7.5 18t13.5 17l-9 69q-17 19 -25 53q-5 27 -10 53q-3 14 -8 43q-4 6 -10 21q-1 5 -11 61q0 1 -19 20q-39 -20 -78 -60q-33 -35 -49 -64l-12 -8 t-6 -11q-12 -1 -33 -31q-31 -42 -32 -43l-24 -26q-15 -15 -30 -15q-18 0 -27 14.5t-18 29.5q-5 7 1 37q-18 32 -54 80q-7 19 -15 38q-12 25 -32 25q-1 -4 1.5 -14.5t2.5 -12.5q0 -1 -12 -46q4 -8 4 -15q0 -10 -9 -26t-9 -23q1 10 1 -91q0 -2 -5 -9.5t-5 -11.5q0 -3 4.5 -9.5 t5.5 -8.5q0 -5 -2.5 -18.5t-2.5 -18.5q0 -2 7 -16q-1 2 -1 -22q0 -3 1.5 -9.5t1.5 -9t5 -7.5t5 -8q0 -11 -11 -40q-13 -34 -25 -34q-5 0 -16 9t-14 16q-1 3 4 32l-7 14q0 2 7 16t8 24q4 40 3 48q0 3 -3 16q-3 10 -1 16q8 30 8 61v50q0 8 3.5 26.5t3.5 21.5t-8 17t-8 18 q0 11 6 19q18 22 18 25q0 2 -5 8t-5 9q-1 31 -2 41q-3 31 -12 50q9 1 23 8q1 6 2 18q4 6 8 6q8 0 22 -13q7 8 12 8q15 0 20 -18q1 -3 5 -34q3 -20 14 -40q9 -16 18 -31q6 -16 20 -45q13 -10 36 -32q3 -9 14 -28q9 0 16.5 -9t7.5 -19q2 -2 7 -2q10 0 12 6q2 10 6 14 q23 18 46 35q32 26 42 48q6 3 15 9q58 65 51 87q6 2 20 11q4 12 22 36.5t21 24.5q4 0 4.5 -1t3.5 -1t16 5t16 5q19 0 19 -37q0 -10 -1.5 -24.5t-0.5 -15.5q2 -19 5 -37q5 -26 20 -46q-6 -17 -6 -19q0 -4 5 -13.5t6 -13.5q5 -45 57 -260q2 -8 17 -24q4 -50 4 -39z" />
<glyph unicode="n" horiz-adv-x="678" d="M601 535q0 -3 -11 -23.5t-15 -24.5q5 -29 1 -42q-1 -3 -5.5 -7.5t-4.5 -8.5q0 -3 5.5 -18.5t5.5 -18.5t-5.5 -18.5t-7.5 -24.5q-1 -13 0 -29q3 -21 3 -25q0 -18 -10 -34q6 -17 0 -42q-5 -7 -13 -22q-4 -16 -9 -50q3 -16 4 -43q-4 -17 -9 -50q1 -11 -2 -27q6 -11 6 -19 t-12.5 -14t-10.5 -18q-4 -3 -8 -3q-11 0 -22 26q0 2 4 14.5t2 24.5q8 11 6.5 31.5t2.5 25.5t11 15q1 5 -4 16l5 1q0 18 -11 28q1 1 8 17q5 12 5 17q-3 5 -7 13q12 14 12 29q0 5 -1.5 14.5t-2.5 13.5q4 4 12 9q1 2 -1.5 8.5t-2.5 8.5q0 7 3.5 25t3.5 26q0 6 -3 24 q-2 15 -1 24l6 21q1 5 -3 15q12 16 12 17q0 20 -10 37q4 4 10 14q0 9 -11.5 10t-13.5 8q1 -4 1 27q0 3 -2.5 7t-2.5 7l10 13q2 9 9 24q12 14 39 19l20 -30q15 -21 15 -38zM487 53q-4 -1 -9 -6q-13 4 -17 21q-6 28 -7 30l-50 28q-33 19 -49 37q-4 9 -15 26q-23 20 -63 64 q-28 45 -57 90q-40 59 -72 71q-1 -8 -6 -23q-6 -6 -17 -16v-9q0 -9 6 -15q7 -10 11 -18q-1 -4 0 -13q2 -11 2 -13q0 -37 -24 -70q1 -4 0 -13q0 -14 -4 -40q-6 -9 -12 -29q1 -11 1 -32q-4 -7 -4 -11q0 -2 6 -13.5t6 -17.5q1 -20 1 -22l-5 -3q0 -2 2.5 -9t1.5 -10 q-21 -24 -31 -24q-9 0 -18 72q0 22 4 59.5t4 53.5q0 2 4.5 7.5t4.5 8.5q7 30 7 49q0 5 -5.5 14t-5.5 27q0 1 1 8.5t1 12.5q-4 1 -12 8q6 19 6 46q29 20 29 50q0 7 -2 16q-6 31 -6 27q30 25 44 25q12 0 28 -17q6 -5 14 -21q0 -9 6 -24q16 -15 44 -48q5 -13 15 -34 q29 -39 73 -81l63 -72q37 -42 63 -50q5 -11 17 -32q3 -4 1 -19q9 -12 25 -37v-9z" />
<glyph unicode="o" horiz-adv-x="534" d="M452 289q0 -11 -29 -50q-6 -13 -23 -37q-16 -11 -46 -40q-1 -7 -7 -18q-15 -19 -49 -55q-8 -7 -21 -7h-30q-3 0 -16.5 8t-16.5 8t-7.5 -4t-8.5 -4q-3 0 -5 1.5t-6 1.5q-2 0 -7 -4t-8 -4q-4 0 -36 32q-2 0 -8 -5.5t-10 -5.5q-3 0 -9.5 8t-10.5 8q-3 0 -3 -2v0q0 -1 -3 -1 q-12 0 -37 46q-23 43 -23 49q0 2 5.5 13t5.5 14t-5.5 10.5t-5.5 11.5q0 3 3.5 13t3.5 15q5 73 34 147q2 1 15 3q9 16 20 16q3 0 7 -3t7 -3h42q2 0 12.5 4t13.5 4q4 0 9 -1.5t7 -1.5q12 1 37 0q2 0 8.5 -3.5t10.5 -3.5q3 0 10 1t10 1t15.5 -5t16.5 -5q3 0 4.5 1.5t4.5 1.5 q12 0 30 -16q30 -28 32 -29q6 -1 15 -7q2 -8 10 -23q27 -31 28 -54q1 -2 7.5 -12t6.5 -14zM380 279q0 16 -6 49q-5 13 -13 46q-3 4 -35 25t-41 21q-4 0 -10 -4t-9 -4q1 0 -31 16q-12 -11 -14 -11q-4 0 -9 4t-7 4q-4 0 -15 -5.5t-14 -5.5q-4 0 -8 3t-7 3l-23 -12v-29 q-31 -21 -40 -21q-3 0 -2.5 1.5t-2.5 1.5q-6 0 -5 -6q-4 -19 -12 -51q-1 -4 -6.5 -12.5t-5.5 -11.5q0 -8 6 -37t5 -33q12 -7 15 -18q3 -15 6 -19q14 -3 9 -3q3 0 4 1t4 1q-5 0 27 -18.5t63 -18.5q8 0 17 6.5t16 7.5q0 8 7 15q3 -2 8 -2q4 0 18.5 8t17.5 8q5 0 12 -8t9 -8 q16 0 45 52q27 49 27 65z" />
<glyph unicode="p" horiz-adv-x="532" d="M484 455q0 -19 -22 -62q-24 -48 -43 -48q-3 0 -6.5 1.5t-6.5 1.5q-17 0 -19 -20q-5 2 -9 2q-15 0 -22.5 -28.5t-28.5 -28.5q-1 0 -12 11q-2 -2 -13 -16q-5 -8 -12 -8q-3 0 -4.5 1.5t-4.5 1.5q-13 0 -56.5 -13.5t-45.5 -13.5t-13 11q-15 -18 -41 -18q-21 0 -25 -18 q2 -7 2 -14q0 -6 -3 -15t-3 -14q0 -2 3.5 -9t3.5 -9q-1 -10 -1 -17q0 -20 9 -34t9 -28q0 -22 -12 -47q-13 -30 -31 -30t-26 11q-1 3 4 15v14q1 11 12 18v44q-8 7 -10 11q7 53 7 48q0 3 -4.5 12.5t-5.5 16.5q0 2 3 9.5t3 9.5q-2 9 -2 26q-2 2 -15 13q-8 7 -8 11 q0 10 9.5 12.5t10.5 6.5q0 10 4 29q1 1 5.5 8t4.5 11q0 3 -4 8t-4 8q0 9 3 37q3 24 1 37q1 23 -5 72q-1 5 -12 15.5t-11 15.5q0 1 7 12q0 7 2 21q3 7 18.5 18.5t23.5 11.5q2 0 16.5 -6.5t19.5 -6.5q3 0 8 5.5t8 5.5q19 0 27 -11q2 0 7.5 4.5t7.5 5.5q33 6 43 6q3 0 5.5 -2.5 t6.5 -2.5l16.5 5t19.5 5q2 0 13 -2.5t14 -2.5q4 0 9 4t7 4q7 0 14 -13q10 -17 12 -19q27 11 40 11q3 0 15.5 -13.5t14.5 -13.5q3 0 3.5 1.5t3.5 1.5q6 0 13 -20t20 -20q17 0 18 -1q0 -2 -2.5 -7.5t-2.5 -8.5q0 -4 9.5 -15t9.5 -15zM372 417v12q1 14 -11 36q-1 0 -3 -3t-6 -3 q-5 0 -7 7q-3 22 -8 31q-9 16 -29 19q-3 9 -33.5 21.5t-41.5 12.5q-4 0 -13 -6.5t-13 -6.5q-3 0 -9 1t-9 1q-4 0 -22 -6q-21 -7 -28 -8q-8 -12 -25 -21q2 -4 2 -9q0 -6 -4.5 -16t-4.5 -13q0 -11 -2 -32q0 -2 -4.5 -8.5t-4.5 -9.5t15 -28q2 -3 2 -8q0 -4 -3 -14.5t-3 -15.5 q0 -12 11 -20q-3 -10 -3 -17q0 -6 3.5 -12t3.5 -10q0 -3 -8 -11l6 -7h17q3 0 37 9.5t37 9.5q4 0 5 -1.5t5 -1.5t10 6l7 7q14 1 46 15q34 24 48 41q9 -1 24 1q2 7 0 20q-3 16 -3 20q0 17 19 18z" />
<glyph unicode="q" horiz-adv-x="748" d="M673 337q0 -9 -20 -55q-11 -10 -30 -30q-1 -4 -5 -13q-1 -2 -44 -42q-2 -2 -16 -4q-5 -4 -6 -17q-15 -9 -28 -26q5 -8 11 -23q5 -3 22 -13q14 -8 17 -8q4 0 4 1t3 1q9 0 39.5 -42t30.5 -49t-9 -32q-9 -9 -24 -9q-3 0 -13 3.5t-13 3.5t-5.5 -1t-6.5 -1q-8 0 -13 6 q0 7 -4 21q-4 8 -18.5 19t-19.5 18q-1 8 -5 22q-3 8 -19.5 20.5t-29.5 12.5q-15 0 -49 -13t-39 -13q-3 0 -10.5 2.5t-10.5 2.5q-4 0 -15 -6t-14 -7q-4 16 -23 16q-7 0 -19 -19q-2 2 -5.5 12t-7.5 10q-34 -16 -35 -16q-14 0 -24 -3q-4 7 -13 15q-30 12 -45 12q-3 0 -6.5 -1.5 t-6.5 -1.5q-14 0 -20 6q-12 10 -34 32q-4 4 1 32q-4 8 -18 28q-8 11 -8 23q0 2 -6 11.5t-6 14.5q0 7 7 12l-19 12q3 18 9 43q0 1 5 5.5t5 7.5q0 4 -5.5 11t-5.5 10q0 20 15 22.5t13 30.5q13 3 20 16.5t5 24.5q1 1 11 1q6 0 13.5 40t35.5 40q3 0 9 -5t7 -6q3 1 10 13 q5 9 14 6q-1 5 0 15q18 14 36 14q3 0 11 -2.5t12 -2.5q2 0 9 2.5t11 2.5q3 0 7 -2.5t7 -2.5t13.5 5t11.5 5q4 0 14.5 -2.5t13.5 -2.5q4 0 16 2.5t15 2.5q35 0 57.5 -12l22.5 -12q15 0 33 14q4 -4 14 -13q5 -1 18.5 -6t16.5 -5t6 1t6 1q10 0 30 -21t19 -21q4 0 4.5 1t3.5 1 q11 0 15 -13q2 -11 -1 -22q22 -19 22 -51q0 -17 -7 -34q10 -6 20 -12.5t10 -13.5zM598 362q0 4 -1.5 12.5t-1.5 12.5q-37 33 -50 71q0 9 -9 9q-3 0 -10 -1t-10 -1q-16 0 -25.5 12t-14.5 12q-3 0 -9.5 -3t-9.5 -3l-34 16t-43 16q-3 0 -13 -4t-13 -4l-20 7q-3 1 -31 1 q-9 0 -13 -16q-4 -19 -10 -23q-13 -2 -35 -10q-38 -28 -39 -28q-3 0 -4 1.5t-4 1.5q-21 -25 -67 -67q-1 -10 5 -20q0 -4 -9.5 -17.5t-9.5 -23.5q0 -7 3 -14q-1 -4 -8.5 -12.5t-7.5 -11.5q0 1 25 -44q18 -29 21 -66q4 -2 15 -12t14 -10q4 0 5 1.5t5 1.5q45 -30 58 -30 q4 0 37 4t36 4q4 0 15.5 -4t14.5 -4t19 12t19 12q4 0 6.5 -1t5.5 -1q6 0 21 6t18 8q-25 37 -24 46q-8 1 -19 4q-15 17 -40 41q-35 23 -52 43q0 5 -3 17t-3 14q0 15 20 15q17 0 23 -3q3 -6 18 -26q13 -16 13 -19q0 -7 -5 -12q3 -2 9 0q8 1 10 1q3 0 9 -8t7 -9q4 -4 29 -19 q18 -10 19 -19q1 0 3 1t6 1q11 0 37 -37q33 32 85 83q-1 15 -1 38q4 27 3 37q15 16 15 21z" />
<glyph unicode="r" horiz-adv-x="568" d="M521 131q0 -6 -6 -13t-11 -7t-19 -2.5t-17 -2.5q-16 0 -55 32q-38 29 -40 38q-6 20 -15 20q-4 0 -5 -1t-5 -1q-5 0 -31 14.5t-40 14.5q-3 0 -7.5 -3t-7.5 -3t-38 12t-38 12t-5 -1t-5 -1q-2 0 -35 10q-7 0 -9 -9q-6 -2 -20 -6q-8 -40 -8 -48q0 -1 9 -25q4 -11 4 -20 q0 -7 -3.5 -17t-3.5 -14q0 2 7 -22q-8 1 -8 -5q0 -3 6.5 -31.5t6.5 -29.5q0 -19 -9 -24q-18 -9 -32 -28q-8 5 -19 24t-11 25q0 4 10 17q12 17 15 24q6 12 6 25q0 12 -10 11h-19q0 4 -2.5 13.5t-2.5 12.5t11 28.5t13 33.5q2 12 2 28q0 25 -29 40q-3 30 16 41q16 8 31 16 q-4 14 -4 48q0 3 4 7.5t4 7.5q0 2 -5.5 27.5t-6.5 36.5q-25 21 -20 47q9 2 24 9q4 2 12.5 11.5t12.5 9.5q8 0 16 -8q2 1 6.5 5.5t8.5 4.5q3 0 45.5 -2.5t45.5 -2.5t14 4t14 4q2 0 18 -8q1 1 7.5 7t10.5 6q6 0 26 -13l28 -18q6 -1 21 -4q6 -2 28.5 -26.5t22.5 -33.5 q0 -16 -9 -44q-11 -36 -26 -36q-3 0 -9.5 4t-9.5 4q-11 0 -55 -31l-46 -32q-19 -8 -57 -19q5 -10 22 -11l27 -1q13 -11 40 -25q21 -4 56 -13q24 -9 39 -19q6 -3 20 -3q3 0 7 1t7 1t10.5 -8t10.5 -8t3 1.5t4 1.5q3 0 10.5 -9.5t10.5 -11.5l16 8q4 -4 14 -19q11 -19 11 -28z M354 421q-7 12 -17 27q-20 13 -40 25.5t-46 12.5q-19 0 -52 -5q-41 -6 -52 -7q-11 -27 -25 -79q1 -16 -1 -46q0 -2 -3.5 -6.5t-3.5 -8.5q0 -12 7 -27t19 -15h21q3 0 8 5.5t8 5.5t8.5 -1.5t8.5 -1.5q12 0 50 11q8 8 21 17q4 1 11 2q43 30 52 42q7 9 1 22q10 10 25 27z" />
<glyph unicode="s" horiz-adv-x="523" d="M449 486q0 -29 -51 -29q-19 0 -27.5 5t-18.5 23q-6 1 -18 7.5t-15 6.5q-2 0 -11 -7q-4 -1 -20.5 -6t-21.5 -5q-3 0 -14 5q-5 -15 -35 -46q-26 -27 -26 -44q0 -10 1 -12q13 -9 22 -21q1 -6 5 -16q7 -13 24 -13q3 0 7 3t7 3q6 0 13 -16q3 -8 7 -16q25 -24 31 -24q4 0 6 2.5 t5 2.5q17 0 55.5 -43.5t36.5 -66.5q-1 -8 6 -18.5t19 -9.5q5 -18 5 -27q0 -1 -2 -13.5t-1 -19.5q-18 -22 -38 -54q-8 -4 -22 -18q-1 -7 -7 -22q-10 -15 -29 -23q-1 -1 -18 -1q-5 -18 -53 -37q-3 0 -8.5 5t-8.5 5t-9 -2.5t-10 -2.5q-5 0 -26.5 9.5t-23.5 9.5q-3 0 -8 -1.5 t-9 -1.5q-1 1 -3 13q-2 8 -9 8q-3 0 -9 -2.5t-9 -2.5t-27 21t-27 21q-4 0 -3 -1t-3 -1t-9 14.5t-14 14.5q-4 0 -7.5 -1t-4.5 -1q1 4 1 13q-15 19 -15 41q0 17 1 19q2 6 12 14t15 8q2 0 9.5 -2t12.5 -1q1 -8 -1 -22q-3 -17 -3 -23q0 -16 12 -26q33 -27 37 -27q3 0 2.5 1.5 t2.5 1.5t19.5 -15t20.5 -15q3 0 5.5 1.5t6.5 1.5q3 0 22 -12t26 -12q2 0 7 4t9 4q3 0 8.5 -2.5t8.5 -2.5q9 0 23 12t27 12q5 6 37 35q23 19 28 36q2 7 -2.5 18t-4.5 13q0 7 10 11q0 2 -2.5 7.5t-2.5 9.5q0 5 3 9q-2 3 -12 15t-10 19q0 5 3 9q-13 14 -17 28q-11 5 -22 6 q-1 1 -6 8t-8 7l-13 -3q-5 6 0 15q-11 2 -26 5q-20 20 -48 34q-20 11 -23.5 22.5t-5 12.5t-14.5 8q-10 4 -9 13q-11 5 -31 19q4 4 4 13q0 7 -3.5 22t-3.5 20q0 1 12 18q-2 9 2 24q35 35 81 61q53 30 92 30q4 0 13 -8t13 -8q3 0 3.5 1.5t4.5 1.5q3 0 17.5 -5.5t18.5 -5.5 q3 0 4.5 1.5t4.5 1.5q10 0 30 -23.5t20 -27.5z" />
<glyph unicode="t" horiz-adv-x="580" d="M529 462q0 -16 -32 -29q-26 -11 -38 -11q-10 0 -23 11t-16 11t-7.5 -5.5t-8.5 -5.5q-3 0 -8.5 4t-8.5 4t-5.5 -2.5t-6.5 -2.5t-19.5 9.5t-16.5 11.5q-4 -1 -12.5 -7t-11.5 -6t-5 1t-6 1q-3 0 -12.5 -1.5t-13.5 -1.5q-15 -15 -15 -55q0 -3 7 -11t7 -11q0 -5 -5 -22 q-6 -22 -14 -27q0 -4 9 -11q2 -18 0 -36q15 -27 15 -65q0 -63 1 -66q-2 -6 -6 -11q5 -5 13 -15q0 -7 -4 -25q-3 -14 -1 -23q1 -2 7 -10t6 -11v-20q-40 -17 -49 -17l-41 25q1 10 9 25q-5 45 -1 66q6 6 15 17q1 2 -2 31q-1 15 10 65q0 2 -7 12q2 60 0 66q-1 3 2 10t3 9 q0 8 -3.5 24t-3.5 24v29q-3 4 -9 13q-7 14 -18 38q-21 4 -42 7q-35 5 -51 5q-3 0 -19.5 -3t-20.5 -3q-10 0 -20 22q-7 18 -7 24q0 21 12 21q2 0 5.5 -2.5t7.5 -2.5q3 0 8 2.5t9 2.5q0 -2 -1.5 -6t-1.5 -6q8 -7 14 -7q3 0 15.5 7t16.5 7q2 0 8.5 -5.5t10 -5.5t14.5 -1.5 t13 -1.5t17.5 4t18.5 4t11.5 -4t12.5 -4q3 0 12 4t12 4t31 -8t31 -8t10.5 4t11.5 4q8 0 19 -10q16 8 14 8q3 0 10.5 -7t10.5 -7q4 0 10 3t9 3q1 0 9 -8q4 4 13 12q3 0 13 3t14 3q26 0 47 -18q18 -17 18 -35z" />
<glyph unicode="u" horiz-adv-x="681" d="M604 416q-9 -19 -24 -30q1 -2 8 -37q-6 -3 -16 -11q7 -6 18 -21l-15 -16q5 -41 -15 -99q-6 -4 -17 -16q-7 -9 -7 -37q-12 -10 -24.5 -32.5t-24 -34t-36 -27.5t-30.5 -16q-3 0 -3 3v0q0 3 -3 3h-6l-2 -16q-2 -11 -11 -11q-3 0 -9 6.5t-9 6.5q-4 0 -6 -2q-5 -10 -8 -13.5 t-22 -6.5q-2 0 -9.5 -6t-10.5 -6q-4 0 -10.5 4t-9.5 4q-4 0 -27.5 -9.5t-27.5 -9.5q-13 0 -17.5 10.5t-7.5 10.5t-3 -2v0q0 -3 -4 -3q-3 0 -5.5 4t-6.5 4q-2 0 -6 -1.5t-8 -1.5q-9 0 -37.5 16.5t-31 25t-4.5 20.5q-6 3 -19 11q-2 4 2 21q-10 4 -21 16q5 17 1 30q-1 1 -9 17 q-7 12 -5 18q-10 15 -26 44q2 10 3 29q-1 7 -8 22t-7 18t6.5 53t6.5 53t-5.5 9t-5.5 10q0 13 17 21q21 10 22 12q4 68 36 68q16 0 16 -15q0 -4 -7.5 -35.5t-8.5 -33.5q-1 -12 -7.5 -29.5t-6.5 -22.5q0 -10 19 -36q-11 -16 -24 -65q0 -4 11.5 -32.5t17.5 -38.5q-2 -3 -10 -11 q0 2 7 -9q-1 -6 -1 -16q11 -10 19.5 -30t16.5 -25q7 -1 18 -4q7 -7 22 -20q2 -2 27 -10q18 -6 23 -22q12 2 17 -5q10 -12 12 -14q6 3 9 11q2 5 11 5q3 0 7.5 -1.5t8.5 -1.5q10 19 22 19q8 0 24 -10l66 42q43 28 56 58q12 6 25 26q3 35 20.5 75.5t17.5 38.5q-13 34 -13 39 q0 2 5.5 25.5t4.5 47.5q-2 9 -8 30q45 16 41 16q13 0 13 -10q-1 -18 0 -19q22 -12 29 -22z" />
<glyph unicode="v" horiz-adv-x="612" d="M556 499q0 -13 -36 -48l-38 -36q-3 -4 1 -28q0 -2 -24 -23q-2 -17 -8 -39q-6 -5 -17 -17q-6 -6 -5 -31q-19 -28 -38 -71q-13 -27 -26 -36q-2 -15 -10 -40q-7 -4 -17 -15q-3 -6 -29 -69q3 -7 4 -17q-3 -6 -17 -18t-22 -12q-4 0 -37 32.5t-34 40.5q1 12 1 38 q-1 9 -12.5 11.5t-13 4t-15.5 31.5q-1 3 2 8.5t3 8.5l-3.5 3t-3.5 7t4 11q-10 5 -29 15q-4 3 -14 21.5t-16 24.5q6 10 6 18q0 9 -9 18q-18 18 -20 19q-1 4 4 19q-13 11 -20 40q-6 25 -21 32q2 10 -10 31t-12 25t13.5 14.5t18.5 10.5q16 0 33 -46q8 -25 15 -50q7 -16 19 -45 q11 -16 29 -43q-2 -4 -2 -9q0 -14 20 -37q13 -15 26 -29q6 -13 22 -39q10 -8 19 -17q13 -12 11 -23q9 -14 38 -39q4 6 14 20q0 7 4 22q10 11 30 37q5 7 10 26q4 14 14 19q-1 8 21 45q3 16 10 43q8 5 20 21q5 12 6.5 36.5t5.5 35.5q6 4 17 13q2 25 -4 45q20 44 69 97 q3 0 9 -5.5t9 -5.5q1 0 21 5q0 -10 7 -19q-1 -7 -1 -12q0 -9 4 -18.5t4 -11.5z" />
<glyph unicode="w" horiz-adv-x="1008" d="M960 541q-4 -14 -14 -41q-2 -4 -23 -19q0 -16 -7 -47q-15 -16 -41 -48q-25 -44 -65 -128q-12 -17 -30 -50q-9 -20 -21 -64q4 -17 6 -48q-3 -11 -13 -29q-13 -21 -16 -27q-34 -1 -59.5 44t-51.5 46q2 11 -1 16q-48 96 -81 128q1 25 -29 64q-28 36 -56 71q-4 1 -11 -13 q-10 -18 -18 -26q0 -6 -2 -16q-4 -13 -26 -18q-5 -3 -6 -12q-22 -14 -26 -21q-13 -22 -28 -40q-8 -18 -26 -53q-14 -20 -34 -58q-24 -17 -24 -29q-1 -29 -14 -40q-7 -8 -23 -19q-13 -2 -35 -4q-2 -1 -8.5 -5.5t-10.5 -4.5q-3 0 -8.5 1.5t-7 3t-18.5 44.5q0 4 3 13 q-18 23 -18 24q0 4 5.5 11t5.5 11q0 5 -12.5 27t-19.5 31q-1 6 11 11q-7 34 -12 53q-2 4 -11 24q-7 14 -6 24q-14 25 -40 71q0 10 -4 27q-1 1 -8 7.5t-7 10.5q0 34 21 34q9 0 31 -12q-1 -9 -1 -26q0 -3 6 -9t5 -10q0 -13 7 -35q10 -32 11 -37q4 -17 16 -50q13 -10 35 -37 l24 -48q0 -7 -7 -22v-7q4 -2 13 -2h8q3 -4 6 -23q1 -12 16 -12q19 0 62 65l44 70q-1 4 2 17q1 8 -4 18q15 14 44 37q5 41 4 43q16 7 16 24q0 34 -2 26q19 25 18 37q72 33 71 33q-2 0 26 -15q4 -11 4 -40t11 -60q7 -5 19 -16q2 -7 7 -21q9 -7 23 -21q1 -3 26 -38 q7 -16 26 -47q18 -13 46 -38q15 -17 9 -32q7 0 21 2t16 2q3 0 6.5 -3t7.5 -3q20 0 43 44q20 39 19 49q11 6 14 13q14 35 39 88q6 5 14 15q11 28 28 80q6 6 15 16q8 18 26 50q13 7 26 7q10 0 23 -9z" />
<glyph unicode="x" horiz-adv-x="606" d="M537 45q0 -1 -6.5 -11t-6.5 -21q-10 -3 -29 -3q-3 0 -11.5 7.5t-14.5 9.5q-1 7 -7 21q-6 4 -14 13q-7 18 -21 40q-6 4 -19 16q-6 7 -13 45q-15 20 -51 55q-18 -2 -29 11q-5 6 -16 30q-3 -1 -34 -15q-11 -5 -18 -18q-9 -16 -13 -20q-28 -20 -55 -40q-30 -23 -28 -37 q-11 -10 -36 -40q-1 -2 -4 -18q-3 -7 -14 -7q-10 0 -19 10t-9 18q0 10 3 14q8 11 17 22q9 4 26 14q23 23 67 65q20 17 48 54q1 2 13 10.5t12 12.5q0 20 -49 63q-1 10 -10.5 27t-16.5 22q-26 27 -67 58q-8 21 -25.5 28t-33.5 13v32q19 8 23 8q13 -16 39 -46q11 -4 30 -17 q33 -38 40 -45q25 -27 42 -34q9 -20 31 -35q30 -22 31 -23q6 2 21 21q1 8 5 19q17 18 33 26q-1 11 4 30l16 9l45 42q7 18 37 52q4 0 11 1l12 20q9 15 22 15q42 0 42 -27q0 -22 -59 -80q-3 3 -11 3q-2 -2 -2 -13q-10 1 -23 -6.5t-25 -14.5q0 -3 6 -13q-19 -17 -39 -41 q-26 -33 -23 -45q-3 2 -9 13q-4 -2 -13 -13t-9 -17q0 -7 5.5 -10.5t5.5 -6.5q0 -4 -9 -13q12 -9 39 -36q1 -5 7 -13q13 -9 27 -18q24 -18 26 -36q5 -5 15 -5q0 -13 34 -35q4 -5 10 -21q40 -13 40 -48q0 -7 -3 -13q10 -12 10 -15z" />
<glyph unicode="y" horiz-adv-x="594" d="M564 537q-10 0 -27 -4q-8 -4 -17 -22q-10 -21 -13 -25q-8 -7 -28 -18q-24 -14 -33 -20q-13 -10 -38 -46q-2 -3 -30 -30q-22 -20 -22 -33q0 -4 3 -8q-6 -3 -19 -11l-22 -33q-8 -5 -20 -18q3 -5 7 -19q-7 2 -7 -5l5 -1q-1 1 -5 -15q0 -2 3.5 -9t3.5 -9q0 -5 -4 -32 q-2 -21 0 -34q1 -4 15 -43q11 -31 11 -61q0 -11 -11 -54q-6 -6 -9 -6t-15 1t-15.5 1t-12.5 16.5t-9 19.5t6 10t7 9q6 19 6 43l-1 3q-1 2 0 13q1 2 0 5v2q-12 20 -12 26q0 3 4 10t5 10q2 5 0 15q-3 13 -3 17q0 2 3.5 9t3.5 11q0 3 -9 46q-9 8 -28 26q1 4 1 11q-4 8 -21 15 t-19 9q-3 11 -13 31l-22 22q-20 25 -18 42q-42 37 -102 93q-1 9 -8.5 31.5t-7.5 25.5q0 15 12 15q1 0 24 -21q4 -1 11 -2q8 -12 26 -29q1 -13 68 -97q3 0 5 1t5 1t23 -16t24 -16q3 0 5 1.5t5 1.5l36 -27q0 -8 -10 -17q7 -7 14 -7q4 0 12.5 5.5t11.5 5.5t4.5 -1.5t4.5 -1.5 q8 0 19 17q13 22 14 23q15 10 42 30q9 6 12.5 17.5t4.5 13.5q8 8 18 27q32 13 34.5 39.5t18.5 30.5q6 15 11 30q9 25 17 25q3 0 8.5 -2.5t8.5 -2.5t8.5 2.5t8.5 2.5q2 0 9.5 -5.5t15.5 -5.5q0 -8 3 -26.5t3 -28.5z" />
<glyph unicode="z" horiz-adv-x="589" d="M519 474q0 -18 -4 -22l-20 -14q-15 -12 -15.5 -20.5t-1.5 -15.5q-4 -6 -10 -6q-3 0 -4.5 1t-4.5 1t-10 -7q1 -1 6 -7t5 -10q0 -7 -26 -19q-14 -8 -29 -15q-7 -17 -5 -31q-38 -48 -50 -42q-5 -3 -5 -16q-2 -6 -16 -10q-18 -5 -19 -6q-8 -5 -21 -23.5t-14 -27.5 q-7 -2 -20 -11q-6 -13 -20 -35q-14 -13 -29 -25q-26 -24 -31 -38q-13 0 -19 -8.5t-12 -17.5q13 -20 37 -20q3 0 11 4t11 4t8 -3t8 -3q4 0 12 4t12 4l69 3q10 0 14 -6t8 -13q7 6 7 13v11q12 3 33 3q3 0 6.5 -4t6.5 -4t9 6.5t10 6.5q3 0 3.5 -1t4.5 -1q3 0 8.5 6t6.5 7 q2 -1 7.5 -6t8.5 -5q4 0 3 1.5t3 1.5q22 0 41 -20.5t19 -38.5q0 -7 -7 -23q-7 -19 -16 -19q-3 0 -6.5 2.5t-6.5 2.5q-4 0 -13 -5t-13 -5q-3 0 -8.5 2.5t-8.5 2.5t-9.5 -2.5t-10.5 -2.5q-3 0 -16.5 4t-16.5 4t-9.5 -1.5t-9.5 -1.5q-7 0 -15 19q-5 12 -9 24h-7q-6 -14 -14 -14 q-3 0 -5 2.5t-6 2.5q-2 0 -6.5 -2.5t-7.5 -2.5t-8.5 2.5t-8.5 2.5q-4 0 -8 -2.5t-7 -2.5q-5 0 -44 6.5t-54 6.5q-2 0 -21.5 -8t-24.5 -8q-3 0 -7 1.5t-7 1.5q-4 0 -16 -5t-15 -5q-8 0 -22.5 6.5t-14.5 14.5q0 18 26 48q23 26 36 32q26 13 40 16q18 14 18 39q25 20 69 63 q7 1 13 1q10 2 12 10q-2 9 -3 29q15 17 45 28q2 7 11 20q6 4 17 14q2 3 4 18q3 5 19 27q6 9 16 9q3 3 5 15q8 2 19 13q25 63 25 59q0 7 -7 13q-17 1 -49 12.5t-38 11.5q-3 0 -11 -4t-12 -4q-8 0 -22 -1t-18 -1q-2 0 -15 10h-29q-9 0 -22.5 -12t-15.5 -12q-6 0 -25 9 q-22 9 -32 18q-4 4 -4 19q0 11 15 18q12 6 25 6q3 0 29 -7t29 -7t7.5 4t7.5 4t9.5 -4t10.5 -4q2 0 8.5 4t9.5 4l8 -6.5t30 -6.5q18 0 30.5 8t18.5 8q2 0 6 -1.5t7 -1.5q10 0 17.5 11t14.5 11l16 -8q1 0 17 13q9 8 25 8q8 0 35 -34q16 2 27.5 -11.5t11.5 -30.5z" />
<glyph unicode="{" />
<glyph unicode="|" />
<glyph unicode="}" />
<glyph unicode="~" />
<glyph unicode="&#xad;" horiz-adv-x="485" d="M402 306q-7 -11 -22 -32q1 -1 -5 -1q-3 0 -9.5 5.5t-9.5 5.5q-28 -16 -29 -16q-24 0 -34.5 12t-29.5 12q-3 0 -18 -6.5t-18 -6.5t-13 2.5t-13 2.5t-12 -6.5t-12 -6.5t-13 5q-1 -1 -4.5 -5.5t-6.5 -7.5q-2 1 -12 5.5t-13 4.5t-11.5 -4t-11.5 -4t-5 1.5t-6 1.5q-2 0 -11 -4 t-13 -4q-9 0 -23.5 11.5t-14.5 19.5q0 4 6.5 12t10.5 8t11 -3t10 -3q6 0 16 11q16 -8 15 -8q3 0 15 2.5t16 2.5q3 0 13 -5t13 -5q4 0 35 9t34 9q4 0 6 -1t5 -1t20.5 6.5t20.5 6.5t13 -4t14 -4q2 0 8 5t9 5l16 -8q6 14 13 14q4 0 10.5 -4t9.5 -4q4 0 4 1t3 1q5 0 23 -28z" />
<glyph unicode="&#xc5;" horiz-adv-x="655" d="M609 -95q-12 -7 -23 -14q-4 -3 -17 -3q-18 0 -25 26q-9 37 -8.5 40.5t-5 17t-4.5 19.5q0 38 -8 52q-5 3 -15 11q-1 10 5 27q-2 2 -10 2q-1 -7 -4 40q-13 8 -36 63q-18 -8 -17 -8q-3 0 -11 2.5t-11 2.5q-4 0 -7.5 -1t-7.5 -1q-7 0 -16 3q-13 4 -36 8q-3 1 -11 8t-11 7 t-7 -2.5t-7 -2.5t-33.5 2.5t-33.5 2.5t-9.5 -6.5t-9.5 -6.5t-11 5.5t-12 5.5q-3 0 -16 -18q-36 6 -70 -59q-6 -5 -17 -16q-10 -18 -28 -45q-7 0 -12 10q-9 16 -11 17q25 25 60 73q7 12 7 22q0 5 -2.5 11t-2.5 8q0 3 3 7q8 14 31 39q6 1 17 2q7 8 24 52q5 4 14 13 q23 40 58 115q4 2 14 10q-1 5 -1 16q2 2 33 40q-3 8 -4 24q8 2 24 9q3 2 10 10q5 5 10 5q21 0 35 -23q11 -18 11 -34q0 1 -11 -11v-10q0 -9 23 -66q19 -48 27 -66q-2 -1 -6 -5q-25 21 -53 67q-17 29 -42 29q-30 -29 -41 -55q-2 -6 -10.5 -7.5t-15.5 -2.5q-22 -34 -52 -97 q-10 -12 -24 -36q11 -7 26 -7q3 0 9.5 -1.5t9.5 -1.5t18 4t18 4t9.5 -1t9.5 -1t17 4t17 4q4 0 12 -6.5t12 -7.5q1 6 5 16q36 -5 39 -5t15.5 10.5t16.5 10.5q3 0 14 -5q4 5 2 16q-3 19 -3 20q6 6 8 6q7 0 15 -7q13 -11 18 -14q0 -7 2 -22q5 -5 12 -16q14 -56 34 -114 q31 -85 34 -96q8 -26 25 -36q10 -6 21 -12q-2 -52 4 -70zM434 710q0 -21 -1 -24t-6.5 -12t-5.5 -13q0 -3 5.5 -10.5t5.5 -11.5q0 -12 -27 -18q-3 0 -5 1t-6 1l-12 -6.5t-31 -6.5q-14 0 -38 6q-16 19 -28.5 49t-12.5 46q0 24 18.5 54.5t37.5 30.5q16 0 26.5 -8t9.5 -8 q2 0 6.5 3t9.5 3q8 0 13 -17.5t11 -17.5q3 0 3.5 1.5t4.5 1.5q22 0 22 -44zM384 694q0 11 -14 31.5t-25 20.5q-21 0 -28 -49q0 -18 14.5 -30t33.5 -12q10 0 16 4z" />
<glyph unicode="&#xc6;" horiz-adv-x="692" d="M644 517q0 -13 -28 -28q-23 -12 -31 -12t-31 27q0 -1 -6 -8.5t-10 -7.5q-2 0 -13 3t-16 3q-3 5 -11 15q-41 -2 -43 -3q-14 -5 -14 -35q0 -3 5 -9t5 -10q1 -8 0 -23q-2 -18 -2 -24q0 -21 14 -29v-10q-11 -11 -11 -34q0 -6 12 -23.5t19 -17.5q3 0 11.5 10.5t12.5 10.5 q2 0 11 -5t13 -5q3 0 8 4.5t7 4.5q8 1 40 1q5 0 15.5 -16.5t10.5 -21.5q0 -10 -17 -29.5t-27 -19.5q-4 0 -14.5 9t-13.5 9t-14.5 -2.5t-14.5 -2.5q-4 0 -13 2.5t-13 2.5q-3 0 -6.5 -3t-5.5 -4q-6 0 -16 -2q-14 -6 -15 -16q-1 -6 1 -17q1 -14 1 -17q0 -1 -2.5 -4t-2.5 -7v-75 q0 3 4 -41q2 -32 -2 -49q5 -4 8 -4t6.5 2.5t7.5 2.5q3 0 9 -4t9 -4q1 0 20.5 12t32.5 12q23 0 55 -6q4 -12 12 -35q-27 -23 -60 -23q-4 0 -12 4t-34 4q-32 0 -49 -26.5t-22 -26.5q-3 0 -5.5 3t-6.5 3q-7 0 -12 -6q-17 12 -40 30q-1 2 -1 13q0 9 6 15.5t12 12.5q-1 7 -1 22 q5 4 14 13q14 50 11 74q0 19 4 48q1 3 6 12.5t5 13.5q-3 12 -1 18q2 9 2 11q0 27 -3 34q-7 3 -20 9q-4 5 -13 11q-13 4 -30 4q-16 0 -35 -4t-23 -4q-3 0 -21.5 6.5t-21.5 6.5t-10 -4t-10 -4t-13 4t-14 4q-11 0 -12 -8.5t-1 -15.5q-21 -14 -45 -53q-26 -42 -27 -42 q-34 -30 -42 -30q-9 0 -17 22q-6 17 -6 25q0 7 30 52q27 39 35 49q5 0 16 1q15 14 46 47q17 15 45 45q21 25 58 80q7 4 19 16q1 7 6.5 18.5t19.5 32.5q8 10 24 18.5t23 16.5q4 12 8 25q6 20 19 20l11 -3q1 6 5 16q12 0 49 -37q2 0 6 1.5t7 1.5t10 -4t10 -4t4 1t4 1 q4 0 9.5 -5t9.5 -5q3 0 17 9t17 9t12.5 -2.5t12.5 -2.5q15 0 30 8q28 -33 28 -48zM420 484q0 17 -18 17q-10 0 -15 -4q-13 -16 -54 -44q0 -17 -24 -43q-18 -20 -37 -40q-2 -7 -7.5 -16.5t-12.5 -17.5t-7 -16q0 -4 11 -15t15 -11t7 2.5t7 2.5q3 0 7.5 -2.5t7.5 -2.5t10 1.5 t10 1.5q6 0 17 -5.5t15 -5.5t9 2.5t9 2.5q3 0 6 -2.5t6 -2.5q5 0 16.5 15.5t12.5 22.5q2 11 -1 28q-2 21 -2 28q0 18 5 85q0 3 3.5 9.5t3.5 9.5z" />
<glyph unicode="&#xd8;" horiz-adv-x="708" d="M758 657q0 -11 -14 -30t-32 -23q-15 -20 -57 -67q-6 0 -18 -2q-4 -4 -5 -17q-6 -4 -20 -13q0 -7 -1 -19q-6 -7 -12 -23q-2 -13 4 -23q2 -6 -1 -12q-6 -10 -6 -12q0 -3 6.5 -7.5t6.5 -14.5q0 -19 -4 -31t-4 -41v-77q0 -11 -11.5 -16t-22.5 -9l-10 10q-13 -9 -12 -22 q1 -1 5 -4q0 1 7 2h9v-10q-19 -15 -39 -39q0 -2 5 -6.5t5 -7.5q0 -4 -8.5 -22.5t-11.5 -22.5q-9 -6 -25 -19q-5 -11 -20 -32q-3 1 -9.5 7t-10.5 6q-13 0 -13.5 -8t-5.5 -8q-2 0 -5.5 1.5t-7.5 1.5q-3 0 -16.5 -10.5t-16.5 -10.5q-7 0 -9 11.5t-19 11.5q-26 0 -27 -21h-19 q1 0 -17 12q-28 6 -56 13q-40 11 -55 34q-12 -16 -30 -22q-23 -8 -31 -14q-3 -2 -36 -41q-24 -27 -43 -27q-3 0 -10.5 1.5t-9.5 1.5q-6 6 -6 8q0 3 16 49q7 3 22 10q9 10 19 20q19 19 26 19q4 0 7.5 -1.5t7.5 -1.5q2 7 10.5 24t8.5 20q0 10 -12 31.5t-12 31.5q0 8 5 14 q-6 4 -15 18.5t-9 21.5q0 9 13 17q-1 -2 -2 17q-1 11 7 20q0 -1 -7 15q3 16 16 32q-8 19 -8 16q0 -1 17 34t18 54q11 20 32 56q12 24 23 48q17 32 39 38q7 29 14 29q3 0 7 -1t8 -1q3 0 13 4t13 4t9 -3t9 -3t15.5 4t16.5 4q3 0 25.5 -11.5t26.5 -11.5q3 0 10.5 2.5t10.5 2.5 t11.5 -8t12.5 -8t6 1t3 1q12 -37 82 -49q8 -20 32 -20q18 0 74 78.5t89 78.5q11 0 20 -11.5t9 -21.5zM516 482q-14 8 -34 13q-14 3 -19 11q-1 8 -4 22q-13 -3 -30 -3q-27 23 -55 46q-4 0 -14 -3.5t-14 -4.5q-8 2 -18 1q-29 -15 -32 -15t-13 11q-4 -11 -36 -36 q-35 -26 -41 -36q-14 -20 -30 -46q-5 -23 -17 -59q-7 -21 -7 -49q0 -4 3 -14t3 -18q0 -9 -6 -22.5t-6 -15.5q0 -10 7.5 -17.5t7.5 -9.5q0 -15 2 -38q9 -9 24 -27q20 -2 51 20l52 42q-6 11 -6 13q53 38 84 74q3 11 12 26q40 33 119 97q6 14 17 38zM574 332q0 8 -12 24t-14 20 q-4 16 -14 43q-24 -18 -68 -47q0 -3 -1 -9q-2 -2 -23 -17q1 -10 -13 -21q-10 -7 -19 -14l-8 -16q-11 -2 -18 -1q-11 -12 -24 -30q-15 -25 -74 -67q-44 -32 -44 -78q0 -9 13 -15.5t23 -6.5q4 0 12 5.5t10 5.5t13 -6.5t14 -6.5t6.5 2.5t6.5 2.5q4 0 10 -6t8 -7l8 8q4 -3 16 -3 q16 0 30.5 18.5t32.5 18.5q4 0 7.5 -1t4.5 -1q13 14 36 43q3 8 9 20q9 4 23 14q7 7 7 20q0 12 -11 39q11 7 27 35.5t26 33.5z" />
<glyph unicode="&#xe5;" horiz-adv-x="655" d="M609 -45q-12 -7 -23 -14q-4 -3 -17 -3q-18 0 -25 26q-9 37 -8.5 40.5t-5 17t-4.5 19.5q0 38 -8 52q-5 3 -15 11q-1 10 5 27q-2 2 -10 2q-1 -7 -4 40q-13 8 -36 63q-18 -8 -17 -8q-3 0 -11 2.5t-11 2.5q-4 0 -7.5 -1t-7.5 -1q-7 0 -16 3q-13 4 -36 8q-3 1 -11 8t-11 7 t-7 -2.5t-7 -2.5t-33.5 2.5t-33.5 2.5t-9.5 -6.5t-9.5 -6.5t-11 5.5t-12 5.5q-3 0 -16 -18q-36 6 -70 -59q-6 -5 -17 -16q-10 -18 -28 -45q-7 0 -12 10q-9 16 -11 17q25 25 60 73q7 12 7 22q0 5 -2.5 11t-2.5 8q0 3 3 7q8 14 31 39q6 1 17 2q7 8 24 52q5 4 14 13 q23 40 58 115q4 2 14 10q-1 5 -1 16q2 2 33 40q-3 8 -4 24q8 2 24 9q3 2 10 10q5 5 10 5q21 0 35 -23q11 -18 11 -34q0 1 -11 -11v-10q0 -9 23 -66q19 -48 27 -66q-2 -1 -6 -5q-25 21 -53 67q-17 29 -42 29q-30 -29 -41 -55q-2 -6 -10.5 -7.5t-15.5 -2.5q-22 -34 -52 -97 q-10 -12 -24 -36q11 -7 26 -7q3 0 9.5 -1.5t9.5 -1.5t18 4t18 4t9.5 -1t9.5 -1t17 4t17 4q4 0 12 -6.5t12 -7.5q1 6 5 16q36 -5 39 -5t15.5 10.5t16.5 10.5q3 0 14 -5q4 5 2 16q-3 19 -3 20q6 6 8 6q7 0 15 -7q13 -11 18 -14q0 -7 2 -22q5 -5 12 -16q14 -56 34 -114 q31 -85 34 -96q8 -26 25 -36q10 -6 21 -12q-2 -52 4 -70zM434 760q0 -21 -1 -24t-6.5 -12t-5.5 -13q0 -3 5.5 -10.5t5.5 -11.5q0 -12 -27 -18q-3 0 -5 1t-6 1l-12 -6.5t-31 -6.5q-14 0 -38 6q-16 19 -28.5 49t-12.5 46q0 24 18.5 54.5t37.5 30.5q16 0 26.5 -8t9.5 -8 q2 0 6.5 3t9.5 3q8 0 13 -17.5t11 -17.5q3 0 3.5 1.5t4.5 1.5q22 0 22 -44zM384 744q0 11 -14 31.5t-25 20.5q-21 0 -28 -49q0 -18 14.5 -30t33.5 -12q10 0 16 4z" />
<glyph unicode="&#xe6;" horiz-adv-x="692" d="M644 547q0 -13 -28 -28q-23 -12 -31 -12t-31 27q0 -1 -6 -8.5t-10 -7.5q-2 0 -13 3t-16 3q-3 5 -11 15q-41 -2 -43 -3q-14 -5 -14 -35q0 -3 5 -9t5 -10q1 -8 0 -23q-2 -18 -2 -24q0 -21 14 -29v-10q-11 -11 -11 -34q0 -6 12 -23.5t19 -17.5q3 0 11.5 10.5t12.5 10.5 q2 0 11 -5t13 -5q3 0 8 4.5t7 4.5q8 1 40 1q5 0 15.5 -16.5t10.5 -21.5q0 -10 -17 -29.5t-27 -19.5q-4 0 -14.5 9t-13.5 9t-14.5 -2.5t-14.5 -2.5q-4 0 -13 2.5t-13 2.5q-3 0 -6.5 -3t-5.5 -4q-6 0 -16 -2q-14 -6 -15 -16q-1 -6 1 -17q1 -14 1 -17q0 -1 -2.5 -4t-2.5 -7v-75 q0 3 4 -41q2 -32 -2 -49q5 -4 8 -4t6.5 2.5t7.5 2.5q3 0 9 -4t9 -4q1 0 20.5 12t32.5 12q23 0 55 -6q4 -12 12 -35q-27 -23 -60 -23q-4 0 -12 4t-34 4q-32 0 -49 -26.5t-22 -26.5q-3 0 -5.5 3t-6.5 3q-7 0 -12 -6q-17 12 -40 30q-1 2 -1 13q0 9 6 15.5t12 12.5q-1 7 -1 22 q5 4 14 13q14 50 11 74q0 19 4 48q1 3 6 12.5t5 13.5q-3 12 -1 18q2 9 2 11q0 27 -3 34q-7 3 -20 9q-4 5 -13 11q-13 4 -30 4q-16 0 -35 -4t-23 -4q-3 0 -21.5 6.5t-21.5 6.5t-10 -4t-10 -4t-13 4t-14 4q-11 0 -12 -8.5t-1 -15.5q-21 -14 -45 -53q-26 -42 -27 -42 q-34 -30 -42 -30q-9 0 -17 22q-6 17 -6 25q0 7 30 52q27 39 35 49q5 0 16 1q15 14 46 47q17 15 45 45q21 25 58 80q7 4 19 16q1 7 6.5 18.5t19.5 32.5q8 10 24 18.5t23 16.5q4 12 8 25q6 20 19 20l11 -3q1 6 5 16q12 0 49 -37q2 0 6 1.5t7 1.5t10 -4t10 -4t4 1t4 1 q4 0 9.5 -5t9.5 -5q3 0 17 9t17 9t12.5 -2.5t12.5 -2.5q15 0 30 8q28 -33 28 -48zM420 514q0 17 -18 17q-10 0 -15 -4q-13 -16 -54 -44q0 -17 -24 -43q-18 -20 -37 -40q-2 -7 -7.5 -16.5t-12.5 -17.5t-7 -16q0 -4 11 -15t15 -11t7 2.5t7 2.5q3 0 7.5 -2.5t7.5 -2.5t10 1.5 t10 1.5q6 0 17 -5.5t15 -5.5t9 2.5t9 2.5q3 0 6 -2.5t6 -2.5q5 0 16.5 15.5t12.5 22.5q2 11 -1 28q-2 21 -2 28q0 18 5 85q0 3 3.5 9.5t3.5 9.5z" />
<glyph unicode="&#xf8;" horiz-adv-x="708" d="M758 607q0 -11 -14 -30t-32 -23q-15 -20 -57 -67q-6 0 -18 -2q-4 -4 -5 -17q-6 -4 -20 -13q0 -7 -1 -19q-6 -7 -12 -23q-2 -13 4 -23q2 -6 -1 -12q-6 -10 -6 -12q0 -3 6.5 -7.5t6.5 -14.5q0 -19 -4 -31t-4 -41v-77q0 -11 -11.5 -16t-22.5 -9l-10 10q-13 -9 -12 -22 q1 -1 5 -4q0 1 7 2h9v-10q-19 -15 -39 -39q0 -2 5 -6.5t5 -7.5q0 -4 -8.5 -22.5t-11.5 -22.5q-9 -6 -25 -19q-5 -11 -20 -32q-3 1 -9.5 7t-10.5 6q-13 0 -13.5 -8t-5.5 -8q-2 0 -5.5 1.5t-7.5 1.5q-3 0 -16.5 -10.5t-16.5 -10.5q-7 0 -9 11.5t-19 11.5q-26 0 -27 -21h-19 q1 0 -17 12q-28 6 -56 13q-40 11 -55 34q-12 -16 -30 -22q-23 -8 -31 -14q-3 -2 -36 -41q-24 -27 -43 -27q-3 0 -10.5 1.5t-9.5 1.5q-6 6 -6 8q0 3 16 49q7 3 22 10q9 10 19 20q19 19 26 19q4 0 7.5 -1.5t7.5 -1.5q2 7 10.5 24t8.5 20q0 10 -12 31.5t-12 31.5q0 8 5 14 q-6 4 -15 18.5t-9 21.5q0 9 13 17q-1 -2 -2 17q-1 11 7 20q0 -1 -7 15q3 16 16 32q-8 19 -8 16q0 -1 17 34t18 54q11 20 32 56q12 24 23 48q17 32 39 38q7 29 14 29q3 0 7 -1t8 -1q3 0 13 4t13 4t9 -3t9 -3t15.5 4t16.5 4q3 0 25.5 -11.5t26.5 -11.5q3 0 10.5 2.5t10.5 2.5 t11.5 -8t12.5 -8t6 1t3 1q12 -37 82 -49q8 -20 32 -20q18 0 74 78.5t89 78.5q11 0 20 -11.5t9 -21.5zM516 432q-14 8 -34 13q-14 3 -19 11q-1 8 -4 22q-13 -3 -30 -3q-27 23 -55 46q-4 0 -14 -3.5t-14 -4.5q-8 2 -18 1q-29 -15 -32 -15t-13 11q-4 -11 -36 -36 q-35 -26 -41 -36q-14 -20 -30 -46q-5 -23 -17 -59q-7 -21 -7 -49q0 -4 3 -14t3 -18q0 -9 -6 -22.5t-6 -15.5q0 -10 7.5 -17.5t7.5 -9.5q0 -15 2 -38q9 -9 24 -27q20 -2 51 20l52 42q-6 11 -6 13q53 38 84 74q3 11 12 26q40 33 119 97q6 14 17 38zM574 282q0 8 -12 24t-14 20 q-4 16 -14 43q-24 -18 -68 -47q0 -3 -1 -9q-2 -2 -23 -17q1 -10 -13 -21q-10 -7 -19 -14l-8 -16q-11 -2 -18 -1q-11 -12 -24 -30q-15 -25 -74 -67q-44 -32 -44 -78q0 -9 13 -15.5t23 -6.5q4 0 12 5.5t10 5.5t13 -6.5t14 -6.5t6.5 2.5t6.5 2.5q4 0 10 -6t8 -7l8 8q4 -3 16 -3 q16 0 30.5 18.5t32.5 18.5q4 0 7.5 -1t4.5 -1q13 14 36 43q3 8 9 20q9 4 23 14q7 7 7 20q0 12 -11 39q11 7 27 35.5t26 33.5z" />
<glyph unicode="&#x2000;" horiz-adv-x="423" />
<glyph unicode="&#x2001;" horiz-adv-x="846" />
<glyph unicode="&#x2002;" horiz-adv-x="423" />
<glyph unicode="&#x2003;" horiz-adv-x="846" />
<glyph unicode="&#x2004;" horiz-adv-x="282" />
<glyph unicode="&#x2005;" horiz-adv-x="211" />
<glyph unicode="&#x2006;" horiz-adv-x="141" />
<glyph unicode="&#x2007;" horiz-adv-x="141" />
<glyph unicode="&#x2008;" horiz-adv-x="105" />
<glyph unicode="&#x2009;" horiz-adv-x="169" />
<glyph unicode="&#x200a;" horiz-adv-x="47" />
<glyph unicode="&#x2010;" horiz-adv-x="485" d="M402 306q-7 -11 -22 -32q1 -1 -5 -1q-3 0 -9.5 5.5t-9.5 5.5q-28 -16 -29 -16q-24 0 -34.5 12t-29.5 12q-3 0 -18 -6.5t-18 -6.5t-13 2.5t-13 2.5t-12 -6.5t-12 -6.5t-13 5q-1 -1 -4.5 -5.5t-6.5 -7.5q-2 1 -12 5.5t-13 4.5t-11.5 -4t-11.5 -4t-5 1.5t-6 1.5q-2 0 -11 -4 t-13 -4q-9 0 -23.5 11.5t-14.5 19.5q0 4 6.5 12t10.5 8t11 -3t10 -3q6 0 16 11q16 -8 15 -8q3 0 15 2.5t16 2.5q3 0 13 -5t13 -5q4 0 35 9t34 9q4 0 6 -1t5 -1t20.5 6.5t20.5 6.5t13 -4t14 -4q2 0 8 5t9 5l16 -8q6 14 13 14q4 0 10.5 -4t9.5 -4q4 0 4 1t3 1q5 0 23 -28z" />
<glyph unicode="&#x2011;" horiz-adv-x="485" d="M402 306q-7 -11 -22 -32q1 -1 -5 -1q-3 0 -9.5 5.5t-9.5 5.5q-28 -16 -29 -16q-24 0 -34.5 12t-29.5 12q-3 0 -18 -6.5t-18 -6.5t-13 2.5t-13 2.5t-12 -6.5t-12 -6.5t-13 5q-1 -1 -4.5 -5.5t-6.5 -7.5q-2 1 -12 5.5t-13 4.5t-11.5 -4t-11.5 -4t-5 1.5t-6 1.5q-2 0 -11 -4 t-13 -4q-9 0 -23.5 11.5t-14.5 19.5q0 4 6.5 12t10.5 8t11 -3t10 -3q6 0 16 11q16 -8 15 -8q3 0 15 2.5t16 2.5q3 0 13 -5t13 -5q4 0 35 9t34 9q4 0 6 -1t5 -1t20.5 6.5t20.5 6.5t13 -4t14 -4q2 0 8 5t9 5l16 -8q6 14 13 14q4 0 10.5 -4t9.5 -4q4 0 4 1t3 1q5 0 23 -28z" />
<glyph unicode="&#x2012;" horiz-adv-x="485" d="M402 306q-7 -11 -22 -32q1 -1 -5 -1q-3 0 -9.5 5.5t-9.5 5.5q-28 -16 -29 -16q-24 0 -34.5 12t-29.5 12q-3 0 -18 -6.5t-18 -6.5t-13 2.5t-13 2.5t-12 -6.5t-12 -6.5t-13 5q-1 -1 -4.5 -5.5t-6.5 -7.5q-2 1 -12 5.5t-13 4.5t-11.5 -4t-11.5 -4t-5 1.5t-6 1.5q-2 0 -11 -4 t-13 -4q-9 0 -23.5 11.5t-14.5 19.5q0 4 6.5 12t10.5 8t11 -3t10 -3q6 0 16 11q16 -8 15 -8q3 0 15 2.5t16 2.5q3 0 13 -5t13 -5q4 0 35 9t34 9q4 0 6 -1t5 -1t20.5 6.5t20.5 6.5t13 -4t14 -4q2 0 8 5t9 5l16 -8q6 14 13 14q4 0 10.5 -4t9.5 -4q4 0 4 1t3 1q5 0 23 -28z" />
<glyph unicode="&#x2013;" horiz-adv-x="615" d="M532 306q-9 -11 -30 -32q2 -1 -6 -1q-5 0 -13.5 5.5t-12.5 5.5q-38 -16 -39 -16q-33 0 -47 12t-40 12q-4 0 -24 -6.5t-24 -6.5q-5 0 -18.5 2.5t-17.5 2.5t-16 -6.5t-16 -6.5t-18 5l-5.5 -5.5t-8.5 -7.5l-16.5 5.5t-17.5 4.5t-15.5 -4t-15.5 -4t-7 1.5t-8 1.5q-3 0 -15 -4 t-18 -4q-12 0 -31.5 11.5t-19.5 19.5q0 4 9 12t14 8t14.5 -3t13.5 -3q8 0 22 11q22 -8 20 -8q4 0 20.5 2.5t21.5 2.5q4 0 17.5 -5t17.5 -5q6 0 47.5 9t46.5 9t7.5 -1t6.5 -1t28 6.5t28 6.5t17.5 -4t18.5 -4q3 0 11 5t12 5l22 -8q8 14 17 14q6 0 14.5 -4t12.5 -4q6 0 6 1t4 1 q7 0 31 -28z" />
<glyph unicode="&#x2014;" horiz-adv-x="1115" d="M1032 306q-19 -11 -59 -32q2 -1 -14 -1q-8 0 -25.5 5.5t-25.5 5.5q-76 -16 -79 -16q-65 0 -93 12t-80 12q-8 0 -48.5 -6.5t-48.5 -6.5t-35 2.5t-35 2.5t-32.5 -6.5t-32.5 -6.5t-35 5q-3 -1 -12.5 -5.5t-17.5 -7.5q-5 1 -32 5.5t-36 4.5q-8 0 -31 -4t-31 -4t-13.5 1.5 t-15.5 1.5q-6 0 -30 -4t-35 -4q-25 0 -64 11.5t-39 19.5q0 4 17.5 12t28.5 8t30 -3t27 -3q16 0 43 11q43 -8 40 -8q9 0 41 2.5t43 2.5q8 0 35 -5t36 -5q10 0 94 9t92 9q11 0 16.5 -1t13.5 -1t55 6.5t56 6.5q8 0 35 -4t38 -4q5 0 21 5t24 5l44 -8q16 14 35 14q11 0 28.5 -4 t25.5 -4q11 0 11 1t8 1q13 0 62 -28z" />
<glyph unicode="&#x2018;" horiz-adv-x="114" d="M99 652q-4 -8 -10 -47q-5 -11 -15 -36q1 -5 5 -9q-8 -22 -8 -41q0 -13 13 -58q-1 -5 0 -29q0 -15 -10 -20q-3 1 -11 -1q-1 4 -8 13.5t-9 12.5q-2 23 -9 71q-3 15 7 41q-1 4 -6 19q-3 8 0 16q-15 24 -20 38q1 3 11 39q6 21 17 25q8 4 15 4q13 0 22 -13t16 -25z" />
<glyph unicode="&#x2019;" horiz-adv-x="114" d="M99 652q-4 -8 -10 -47q-5 -11 -15 -36q1 -5 5 -9q-8 -22 -8 -41q0 -13 13 -58q-1 -5 0 -29q0 -15 -10 -20q-3 1 -11 -1q-1 4 -8 13.5t-9 12.5q-2 23 -9 71q-3 15 7 41q-1 4 -6 19q-3 8 0 16q-15 24 -20 38q1 3 11 39q6 21 17 25q8 4 15 4q13 0 22 -13t16 -25z" />
<glyph unicode="&#x201a;" horiz-adv-x="114" d="M99 652q-4 -8 -10 -47q-5 -11 -15 -36q1 -5 5 -9q-8 -22 -8 -41q0 -13 13 -58q-1 -5 0 -29q0 -15 -10 -20q-3 1 -11 -1q-1 4 -8 13.5t-9 12.5q-2 23 -9 71q-3 15 7 41q-1 4 -6 19q-3 8 0 16q-15 24 -20 38q1 3 11 39q6 21 17 25q8 4 15 4q13 0 22 -13t16 -25z" />
<glyph unicode="&#x201c;" horiz-adv-x="335" d="M284 672q3 -13 -9 -37.5t-11 -35.5q-8 -8 -16 -27q-19 -22 -53 -69q-3 -19 -6 -37q-7 -36 -23 -36q-4 0 -7.5 1.5l-3.5 1.5q0 5 -1.5 19t-1.5 17q0 2 19.5 34.5t24.5 48.5l9 39q6 7 12 22q-1 11 2 32q8 5 20 16q3 8 7.5 16.5t14.5 8.5q2 0 23 -14zM178 651q-7 -5 -28 -39 l-27 -27q-1 -5 0 -10q-22 -24 -28 -50q-1 -2 -6 -43q-7 -9 -13 -30q-3 -11 -15 -11q-3 0 -5.5 1.5t-4.5 1.5q0 4 -3 15.5t-3 14.5t8 27q9 29 12 43t22 34q0 13 8 35q-5 28 -4 42q3 3 26 32q13 17 25 17q22 0 30 -18q1 -3 6 -35z" />
<glyph unicode="&#x201d;" horiz-adv-x="335" d="M284 672q3 -13 -9 -37.5t-11 -35.5q-8 -8 -16 -27q-19 -22 -53 -69q-3 -19 -6 -37q-7 -36 -23 -36q-4 0 -7.5 1.5l-3.5 1.5q0 5 -1.5 19t-1.5 17q0 2 19.5 34.5t24.5 48.5l9 39q6 7 12 22q-1 11 2 32q8 5 20 16q3 8 7.5 16.5t14.5 8.5q2 0 23 -14zM178 651q-7 -5 -28 -39 l-27 -27q-1 -5 0 -10q-22 -24 -28 -50q-1 -2 -6 -43q-7 -9 -13 -30q-3 -11 -15 -11q-3 0 -5.5 1.5t-4.5 1.5q0 4 -3 15.5t-3 14.5t8 27q9 29 12 43t22 34q0 13 8 35q-5 28 -4 42q3 3 26 32q13 17 25 17q22 0 30 -18q1 -3 6 -35z" />
<glyph unicode="&#x201e;" horiz-adv-x="335" d="M284 672q3 -13 -9 -37.5t-11 -35.5q-8 -8 -16 -27q-19 -22 -53 -69q-3 -19 -6 -37q-7 -36 -23 -36q-4 0 -7.5 1.5l-3.5 1.5q0 5 -1.5 19t-1.5 17q0 2 19.5 34.5t24.5 48.5l9 39q6 7 12 22q-1 11 2 32q8 5 20 16q3 8 7.5 16.5t14.5 8.5q2 0 23 -14zM178 651q-7 -5 -28 -39 l-27 -27q-1 -5 0 -10q-22 -24 -28 -50q-1 -2 -6 -43q-7 -9 -13 -30q-3 -11 -15 -11q-3 0 -5.5 1.5t-4.5 1.5q0 4 -3 15.5t-3 14.5t8 27q9 29 12 43t22 34q0 13 8 35q-5 28 -4 42q3 3 26 32q13 17 25 17q22 0 30 -18q1 -3 6 -35z" />
<glyph unicode="&#x202f;" horiz-adv-x="169" />
<glyph unicode="&#x205f;" horiz-adv-x="211" />
<glyph unicode="&#xe000;" horiz-adv-x="570" d="M0 570h570v-570h-570v570z" />
</font>
</defs>
</svg>
