<?xml version="1.0" standalone="no"?>
<!DOCTYPE svg PUBLIC "-//W3C//DTD SVG 1.1//EN" "http://www.w3.org/Graphics/SVG/1.1/DTD/svg11.dtd" >
<svg xmlns="http://www.w3.org/2000/svg">
<metadata></metadata>
<defs>
<font id="jacques_francoisregular" horiz-adv-x="1065" >
<font-face units-per-em="2048" ascent="1638" descent="-410" />
<missing-glyph horiz-adv-x="532" />
<glyph horiz-adv-x="0" />
<glyph horiz-adv-x="0" />
<glyph unicode="&#xd;" horiz-adv-x="0" />
<glyph unicode=" "  horiz-adv-x="532" />
<glyph unicode="&#x09;" horiz-adv-x="532" />
<glyph unicode="&#xa0;" horiz-adv-x="532" />
<glyph unicode="!" horiz-adv-x="717" d="M231 1389q0 36 14.5 61t37 35.5t40.5 14t35 3.5q18 0 35.5 -3.5t40.5 -14t37 -35.5t14 -61q0 -69 -32.5 -363.5t-46.5 -536.5l-9 -141h-78l-6 141q-9 256 -45.5 550t-36.5 350zM233 96q0 52 36.5 88.5t88.5 36.5t88.5 -36.5t36.5 -88.5t-36.5 -88.5t-88.5 -36.5 t-88.5 36.5t-36.5 88.5z" />
<glyph unicode="&#x22;" horiz-adv-x="831" d="M143 1427q0 37 27.5 56.5t71.5 19.5q42 0 70 -19.5t28 -56.5l-59 -397h-76zM492 1427q0 37 27 56.5t71 19.5q42 0 70 -19.5t28 -56.5l-59 -397h-76z" />
<glyph unicode="#" d="M-80 412l14 98h273l78 471h-277l12 102h277l63 387h125l-63 -387h338l57 387h131l-63 -387h260l-17 -102h-262l-73 -471h264l-15 -98h-264l-65 -412h-123l65 412h-331l-70 -412h-125l61 412h-270zM336 510h332l69 471h-329z" />
<glyph unicode="$" d="M70 477q12 6 20 6q10 0 23 -6q15 -101 45 -179.5t67 -127t84.5 -80t92.5 -44t96 -13.5v641q-92 27 -158.5 60t-120.5 81.5t-81 117.5t-27 159q0 106 34.5 186t93 125.5t122.5 68.5t137 29v129h82v-129q150 -6 338 -90q-9 -58 -9 -139q0 -121 19 -201q-12 -4 -19 -4 q-6 0 -22 4q-33 167 -112 256.5t-195 102.5v-576q67 -19 120.5 -39.5t112 -56.5t97 -80t64 -110.5t25.5 -147.5q0 -102 -37.5 -186.5t-99.5 -138.5t-133.5 -86.5t-148.5 -43.5v-139h-82v133q-201 5 -412 115q4 102 4 147q0 116 -20 256zM279 1190q0 -43 1.5 -68t8 -59.5 t20.5 -57t37.5 -47.5t61.5 -44.5t90 -36.5v550q-105 -12 -162 -75.5t-57 -161.5zM580 39q107 20 165 98t58 193q0 128 -47.5 201.5t-175.5 117.5v-610z" />
<glyph unicode="%" horiz-adv-x="1966" d="M133 1124q0 157 109 267t264 110q156 0 266.5 -110.5t110.5 -266.5q0 -154 -110.5 -263t-266.5 -109q-155 0 -264 108.5t-109 263.5zM236 1122q0 -110 79.5 -191t188.5 -81q113 0 194.5 80.5t81.5 191.5q0 115 -81 196t-195 81q-110 0 -189 -81t-79 -196zM551 -61 l758 1620l88 -33l-758 -1624zM1083 344q0 157 109 267t264 110q156 0 266.5 -110.5t110.5 -266.5q0 -155 -110.5 -264t-266.5 -109q-155 0 -264 109t-109 264zM1186 342q0 -110 79.5 -191t188.5 -81q114 0 195.5 80.5t81.5 191.5q0 115 -81.5 195.5t-195.5 80.5 q-110 0 -189 -80.5t-79 -195.5z" />
<glyph unicode="&#x26;" horiz-adv-x="1544" d="M123 338q0 37 7.5 77t29.5 91.5t57 98.5t96 96.5t140 86.5q-48 47 -74.5 77t-54 71.5t-39 86t-11.5 99.5q0 126 97 212.5t237 86.5q135 0 213 -68t78 -204q0 -110 -62 -186t-182 -144q110 -111 182 -202t175 -240q145 223 159 395q3 12 3 31q0 26 -26 41t-87 22 q-4 16 -4 23q0 12 4 24q135 -6 176 -6q95 0 244 6q4 -12 4 -20q0 -5 -4 -27q-67 -8 -100.5 -30t-59.5 -64q-42 -65 -114 -201.5t-154 -255.5q13 -15 49.5 -64.5t60 -76.5t64 -52.5t82.5 -25.5q54 0 87.5 33.5t59.5 97.5q33 0 47 -12q-12 -51 -28.5 -89t-45.5 -76.5 t-78.5 -59.5t-115.5 -21q-27 0 -43.5 1.5t-50 12t-61.5 30t-66.5 60t-75.5 97.5q-69 -64 -133 -106.5t-119 -62t-94 -26t-82 -6.5q-84 0 -151.5 24t-110.5 61.5t-72 87t-41 98.5t-12 98zM317 387q0 -130 80 -199t205 -69q180 0 293 121q-88 143 -170 247.5t-215 243.5 q-81 -35 -137 -127t-56 -217zM449 1124q0 -130 153 -256q71 37 126.5 107.5t55.5 169.5q0 93 -48 139.5t-118 46.5q-81 0 -125 -59t-44 -148z" />
<glyph unicode="'" horiz-adv-x="483" d="M143 1427q0 37 27.5 56.5t71.5 19.5q42 0 70 -19.5t28 -56.5l-59 -397h-76z" />
<glyph unicode="(" horiz-adv-x="868" d="M184 604q0 45 4.5 95t19.5 126t39 150.5t68 164t101.5 171.5t144 168t191.5 157l32 -30q-2 -3 -16 -19.5t-31 -37.5t-50 -68.5t-71 -108.5q-65 -106 -109 -227t-61.5 -230.5t-23.5 -178.5t-6 -132q0 -457 200 -768q39 -61 72 -108.5t49 -67.5t31 -38t16 -19l-32 -31 q-105 71 -191.5 157t-144 168t-101.5 171.5t-68 164t-39 150.5t-19.5 126t-4.5 95z" />
<glyph unicode=")" horiz-adv-x="868" d="M84 -397l10 11q9 10 21.5 25.5t31.5 40.5t46.5 66t58.5 90q65 106 109 227t62 230t24 179t6 132t-6 132t-24 179t-62 230t-109 227q-31 49 -59.5 90.5t-47 66.5t-32.5 42l-21 25.5t-8 9.5l33 30q105 -71 191.5 -157t144 -168t101.5 -171.5t68 -164t38.5 -150.5t19 -126 t4.5 -95t-4.5 -95t-19 -126t-38.5 -150.5t-68 -164t-101.5 -171.5t-144 -168t-191.5 -157z" />
<glyph unicode="*" horiz-adv-x="995" d="M123 899q0 88 117 119l172 43q-2 8 -2 22q0 17 2 23l-172 43q-55 12 -86 42.5t-31 76.5q0 21 20 43t47 22q13 0 24.5 -1.5t19.5 -3.5t17.5 -6.5t14 -7t13 -10t11 -10t11 -11.5t10.5 -11l123 -127q16 16 41 22l-51 172q-10 38 -10 66q0 45 22 71.5t62 26.5q38 0 60 -28 t22 -74q0 -32 -9 -62l-53 -174q30 -13 39 -24l127 131q20 20 32 30t34.5 19.5t48.5 9.5q36 0 54.5 -20t18.5 -43q0 -44 -31.5 -75.5t-84.5 -43.5l-181 -43q5 -13 5 -23q0 -14 -2 -20l178 -45q116 -31 116 -113q0 -30 -18 -49.5t-55 -19.5q-31 0 -56.5 11.5t-58.5 45.5 l-129 131q-13 -13 -37 -20l53 -175q9 -26 9 -59q0 -47 -21.5 -77.5t-60.5 -30.5q-42 0 -63 28t-21 74q0 28 10 65l51 172q-22 4 -39 21l-125 -129q-60 -62 -98 -62t-64 17t-26 51z" />
<glyph unicode="+" horiz-adv-x="1464" d="M164 653v115h510v512h117v-512h509v-115h-509v-510h-117v510h-510z" />
<glyph unicode="," horiz-adv-x="578" d="M164 98q0 47 33.5 85t83.5 38q57 0 95 -32t38 -103q0 -94 -58.5 -194.5t-140.5 -153.5l-51 45q49 43 79 82t38.5 60t15.5 48l-4 7q-67 0 -98 29t-31 89z" />
<glyph unicode="-" horiz-adv-x="936" d="M164 412v125h608v-125h-608z" />
<glyph unicode="." horiz-adv-x="578" d="M164 96q0 52 36 88.5t89 36.5q52 0 88.5 -36.5t36.5 -88.5t-36.5 -88.5t-88.5 -36.5t-88.5 36.5t-36.5 88.5z" />
<glyph unicode="/" horiz-adv-x="1268" d="M164 -426l803 2046h137l-807 -2046h-133z" />
<glyph unicode="0" d="M29 475q0 137 66.5 253.5t182 184.5t252.5 68q209 0 357.5 -148.5t148.5 -357.5q0 -208 -148.5 -356t-357.5 -148q-102 0 -195 40t-160 107.5t-106.5 161t-39.5 195.5zM164 473q0 -151 107 -259t257 -108q155 0 264 108t109 259q0 155 -109 264t-264 109 q-150 0 -257 -109t-107 -264z" />
<glyph unicode="1" d="M254 16q0 5 4 25q36 5 56 8.5t54 14t51.5 29t18.5 44.5q4 99 4 240v196q0 142 -4 240q-1 26 -18.5 44.5t-51.5 29t-54 14t-56 8.5q-4 22 -4 25q0 6 4 22q132 -6 272 -6q143 0 275 6q6 -9 6 -22q0 -12 -6 -25q-21 -3 -31 -5t-33 -7t-36 -11.5t-28.5 -16.5t-23.5 -24 t-8 -32q-8 -169 -8 -338t8 -338q0 -18 8 -32t23.5 -24t28.5 -16.5t36 -11.5t33 -7t31 -5q6 -12 6 -25t-6 -22q-132 6 -275 6q-140 0 -272 -6q-4 16 -4 22z" />
<glyph unicode="2" d="M117 82l399 276q94 65 134 131t40 168q0 57 -17 99.5t-44 63.5t-53.5 30.5t-51.5 9.5q-102 0 -163.5 -47.5t-61.5 -134.5q0 -53 17 -97t34 -61l17 -18q-9 -34 -43 -37q-6 2 -16 6.5t-36 23.5t-46 43.5t-36 67.5t-16 94q0 92 53 157t136 94.5t186 29.5q168 0 265 -78 t97 -211q0 -63 -21 -117.5t-59 -95.5t-71 -67t-78 -54l-246 -151v-10h238q70 0 128 45.5t91 101.5q31 0 49 -14l-90 -330h-702q-22 15 -33 82z" />
<glyph unicode="3" d="M47 -225q0 61 37 100t92 39q65 0 103 -33.5t38 -101.5q0 -46 -31.5 -78.5t-62.5 -40.5q0 -11 17 -27t57.5 -30.5t93.5 -14.5q131 0 212 116t81 306q0 78 -20.5 134.5t-57 85.5t-76 42t-86.5 13q-67 0 -155 -35l-25 59l164 80q62 30 103.5 66.5t63 76.5t30 78t8.5 84 q0 66 -50 116t-128 50q-105 0 -157 -47t-52 -123q0 -101 39 -160q-13 -23 -39 -26q-111 71 -111 205q0 120 92 196t267 76q164 0 263 -68.5t99 -214.5q0 -98 -75 -181t-183 -116v-10q59 -5 110.5 -25.5t98.5 -60t74.5 -108.5t27.5 -160q0 -110 -49 -208.5t-125 -163.5 t-166.5 -102.5t-175.5 -37.5q-75 0 -136.5 18t-99.5 45.5t-64 62.5t-36 66t-10 58z" />
<glyph unicode="4" horiz-adv-x="1044" d="M8 59l733 922q43 0 64 -23v-770l264 -2q-29 -182 -29 -184l-235 -2v-438h-205v438h-565q-27 13 -27 59zM227 186h377v476z" />
<glyph unicode="5" d="M4 -238q0 57 37 95.5t98 38.5q57 0 93 -37t36 -95q0 -34 -21.5 -62t-42.5 -39l-22 -11q5 -9 16 -20.5t54 -26.5t104 -15q53 0 102 12.5t96.5 43t82.5 76.5t56.5 119t21.5 165q0 63 -17.5 111.5t-51 79.5t-74 52t-95.5 31.5t-106 14.5t-115 4q-23 5 -36.5 16.5t-26.5 40.5 q33 105 60.5 253.5t38.5 244.5l11 96h377q52 0 89 10t60 31.5t34.5 38t25.5 45.5q32 0 49 -14l-80 -307h-485l-43 -252q103 0 185 -12t157.5 -43.5t126 -81.5t80.5 -130.5t30 -187.5q0 -111 -45.5 -209t-120.5 -166t-173.5 -107.5t-202.5 -39.5q-99 0 -174 24t-114 62 t-57 76t-18 75z" />
<glyph unicode="6" d="M29 455q0 144 53.5 275t139.5 225t189.5 175t207 133t189.5 89t140 53l53 16l25 -39q-192 -93 -355 -218t-278 -275q127 0 228.5 -23.5t181 -74t123 -138t43.5 -207.5q0 -112 -40.5 -204.5t-107.5 -150.5t-148.5 -89t-166.5 -31q-60 0 -120 12t-126 45t-116 85 t-82.5 140.5t-32.5 201.5zM242 416q0 -179 69.5 -279t192.5 -100q31 0 60.5 9t63 36.5t58 70.5t41 118.5t16.5 174.5q-1 96 -19.5 162t-62.5 114t-119.5 71t-187.5 24q-46 -48 -79 -151t-33 -250z" />
<glyph unicode="7" d="M127 -342q0 35 24.5 85t48.5 83l25 33l594 895l-391 2q-27 0 -51 -5.5t-41 -12t-34.5 -21t-27 -22.5t-23 -28t-17.5 -26.5t-15 -28t-12 -22.5q-36 0 -57 24q24 64 41.5 168.5t19.5 173.5q16 25 39 25l49 -31h696q17 0 29 -17t14 -34l-673 -1022q-52 -74 -68 -117 q34 0 71.5 -33t37.5 -85q0 -48 -37.5 -82.5t-104.5 -34.5q-64 0 -100.5 35.5t-36.5 97.5z" />
<glyph unicode="8" d="M92 350q0 59 15 110.5t38.5 85.5t52.5 61.5t58 43t52.5 26t38.5 13.5l15 4v15q-5 1 -14 3.5t-34.5 13t-49 24.5t-52 40.5t-49 59t-34.5 81t-14 105.5q0 75 20 136.5t51 100.5t73.5 68.5t80.5 44t80 23t65 10.5t41 2q29 0 59 -3t71 -12.5t77 -24.5t73 -43t63 -65t42.5 -92 t16.5 -122q0 -55 -12.5 -104.5t-33 -84t-45 -63t-49 -46.5t-45 -30t-33.5 -17l-12 -5v-13q6 -1 16 -3t38.5 -12.5t54.5 -24.5t57.5 -40t54.5 -58.5t38.5 -81.5t15.5 -107q0 -83 -28 -151.5t-73.5 -113t-105.5 -75.5t-121.5 -44.5t-122.5 -13.5q-50 0 -105 12t-114 40.5 t-105 70.5t-76 108.5t-30 147.5zM307 350q0 -89 19.5 -153.5t53 -97.5t69 -47.5t75.5 -14.5q51 0 90.5 14.5t73.5 49.5t52 101.5t18 162.5q0 82 -19.5 142t-45 90t-62 48t-59.5 21.5t-48 3.5q-36 0 -71.5 -17t-69.5 -51.5t-55 -100t-21 -151.5zM330 1034q0 -76 14.5 -133 t35 -87.5t48.5 -49.5t50.5 -24t45.5 -5q55 0 94 31t58.5 82.5t28 103t8.5 107.5q0 140 -48 218.5t-143 78.5q-89 0 -140.5 -81.5t-51.5 -240.5z" />
<glyph unicode="9" d="M-20 -430q405 199 632 493q-101 0 -185.5 14t-158.5 47t-125 83.5t-80.5 126t-29.5 172.5q0 112 40.5 204.5t107 150.5t148 89t167.5 31q42 0 84 -6t90 -21t90.5 -38.5t82 -62t68 -87t45.5 -117.5t17 -151q0 -113 -33 -218.5t-89 -188t-129 -157t-153.5 -130t-160.5 -102 t-153 -77.5t-129 -53t-89 -32l-33 -9zM258 506q1 -96 20 -162t64 -113.5t121 -71t188 -24.5q46 46 77.5 150t31.5 252q0 179 -69.5 278.5t-192.5 99.5q-31 0 -60.5 -9t-63.5 -36.5t-58.5 -70.5t-41 -119t-16.5 -174z" />
<glyph unicode=":" horiz-adv-x="578" d="M164 96q0 52 36 88.5t89 36.5q52 0 88.5 -36.5t36.5 -88.5t-36.5 -88.5t-88.5 -36.5t-88.5 36.5t-36.5 88.5zM164 770q0 52 36 88.5t89 36.5q52 0 88.5 -36.5t36.5 -88.5q0 -51 -36.5 -88t-88.5 -37t-88.5 37t-36.5 88z" />
<glyph unicode=";" horiz-adv-x="578" d="M164 98q0 47 33.5 85t83.5 38q57 0 95 -32t38 -103q0 -94 -58.5 -194.5t-140.5 -153.5l-51 45q49 43 79 82t38.5 60t15.5 48l-4 7q-67 0 -98 29t-31 89zM164 770q0 52 36 88.5t89 36.5q52 0 88.5 -36.5t36.5 -88.5q0 -51 -36.5 -88t-88.5 -37t-88.5 37t-36.5 88z" />
<glyph unicode="&#x3c;" horiz-adv-x="1563" d="M164 713l1186 514l49 -109l-946 -403l946 -408l-49 -108z" />
<glyph unicode="=" horiz-adv-x="1464" d="M164 469v115h1136v-115h-1136zM164 838v114h1136v-114h-1136z" />
<glyph unicode="&#x3e;" horiz-adv-x="1563" d="M164 307l946 408l-946 403l49 109l1186 -514l-1186 -514z" />
<glyph unicode="?" horiz-adv-x="1030" d="M72 1235q0 46 25 92t73 86t127.5 65t177.5 25q123 0 221.5 -36t160 -112t61.5 -181q0 -45 -10 -87.5t-22 -73.5t-38.5 -65t-43.5 -53.5t-53.5 -49.5t-52.5 -41.5t-55 -39.5q-91 -65 -146 -146.5t-55 -158.5v-111h-77v141q0 124 33 194.5t122 152.5q34 31 57 56.5t52 70 t44 103.5t15 130q0 43 -10.5 82t-34 74.5t-67.5 56.5t-103 21q-105 0 -166 -39.5t-61 -75.5q61 -26 61 -92q0 -47 -31.5 -79t-80.5 -32q-58 0 -90.5 31.5t-32.5 91.5zM303 82q0 46 32.5 78.5t78.5 32.5t78 -32.5t32 -78.5t-32 -78.5t-78 -32.5t-78.5 32.5t-32.5 78.5z" />
<glyph unicode="@" horiz-adv-x="2038" d="M135 578q0 195 69 365t190 293t296 194t379 71q182 0 339 -62.5t264.5 -168t169 -248t61.5 -299.5q0 -120 -36.5 -222.5t-94.5 -170t-130.5 -116t-143.5 -70t-136 -21.5q-72 0 -134 29t-93 96q-104 -98 -248 -98q-57 0 -109 22t-94 63.5t-67 109.5t-25 153 q0 135 60.5 251t171.5 186.5t247 70.5q27 0 61.5 -9t82.5 -41t81 -82l129 95l54 2l-154 -484q-1 -4 -10.5 -38t-16 -65t-6.5 -52q0 -59 26 -85t64 -26q39 0 87.5 15.5t104.5 53.5t101.5 93t76 144t30.5 196q0 143 -53.5 269t-146.5 217t-226.5 143.5t-286.5 52.5 q-158 0 -293 -48.5t-228 -130t-159.5 -187.5t-97.5 -220.5t-31 -230.5q0 -124 37 -241.5t109 -217.5t169.5 -175.5t226 -118t271.5 -42.5q121 0 252.5 47.5t222.5 130.5l60 -100q-139 -102 -254 -144t-271 -42q-173 0 -326 49t-265 134t-193.5 198t-122.5 244t-41 268z M780 377q0 -64 35 -112t109 -48q114 0 196 113l125 440q-13 78 -63 127t-115 49q-85 0 -156.5 -91.5t-109.5 -256.5q-21 -95 -21 -221z" />
<glyph unicode="A" horiz-adv-x="1628" d="M31 16q0 13 4 25q208 24 237 102l430 1084l-22 59q57 38 79.5 82t31.5 117q15 11 32 14l547 -1366q10 -25 33 -42.5t57.5 -27t60 -14t62.5 -8.5q4 -16 4 -27q0 -12 -4 -22q-216 8 -323 8q-116 0 -336 -8q-4 12 -4 24q0 13 4 25q202 22 202 76q0 17 -4 35l-145 372 q-66 2 -178 2q-53 0 -275 -4l-153 -389v-12q0 -10 3.5 -19t12 -16t16.5 -12t22.5 -9.5t25 -7t29 -5.5t28.5 -4.5t29.5 -3.5t27.5 -3q4 -16 4 -27q0 -6 -4 -22q-224 8 -252 8q-54 0 -278 -8q-4 12 -4 24zM559 608q94 -4 240 -4q92 0 145 2l-190 492h-4z" />
<glyph unicode="B" horiz-adv-x="1481" d="M72 14q0 7 4 27q30 3 48 5t49.5 7t51 11.5t40.5 16.5t31.5 24t10.5 32q12 313 12 631q0 324 -10 559q-1 26 -22.5 44t-64.5 28t-69 13.5t-75 8.5q-4 18 -4 25q0 6 4 22q168 -6 350 -6q86 0 164 4t80 4q54 0 99.5 -2.5t103 -10.5t102.5 -22t90.5 -39t76 -59t49.5 -84 t19 -112q0 -183 -219 -275v-8q164 -30 274.5 -136t110.5 -271q0 -88 -31.5 -158.5t-80.5 -116.5t-123 -80t-144 -52t-160.5 -28.5t-154.5 -13t-143 -2.5q-271 0 -465 -6q-4 12 -4 20zM530 694l11 -626q67 0 119 2.5t114 12t108 25.5t92 44.5t75 67.5t47 96.5t18 129.5 q0 70 -23 125.5t-64.5 93t-101 62.5t-129 36t-151.5 11q-57 0 -115 -6v-74zM530 829q408 0 408 312q0 136 -84.5 200t-224.5 64q-31 0 -86 -6z" />
<glyph unicode="C" horiz-adv-x="1552" d="M133 729q0 123 26.5 229.5t72 184t107.5 140t130 103t143 67.5t144 38.5t135 11.5q112 0 211 -16t194.5 -38t157.5 -30q-12 -36 -12 -127q0 -178 53 -307q-6 -18 -37 -22q-25 55 -43 92t-50 91t-61.5 90t-74 76t-92 64t-111 40t-135.5 16q-91 0 -166.5 -30.5t-128.5 -84 t-92.5 -121.5t-62 -148.5t-33.5 -159.5t-11 -159q0 -104 21 -198t66.5 -176.5t112.5 -142.5t164.5 -95t215.5 -35q291 0 440 182q16 0 26.5 -9t10.5 -22q-62 -91 -163.5 -155t-203 -91.5t-196.5 -27.5q-66 0 -135 11t-144 38t-143 67t-130 102t-107.5 139t-72 183.5 t-26.5 229.5z" />
<glyph unicode="D" horiz-adv-x="1720" d="M72 14q0 7 4 27q30 3 48 5t49.5 7t51 11.5t40.5 16.5t31.5 24t10.5 32q12 313 12 631q0 324 -10 559q-1 26 -23 44.5t-63.5 28.5t-70 14.5t-74.5 8.5q-4 18 -4 25q0 6 4 22q224 -8 350 -8h8q250 8 307 8q93 0 175 -8t169.5 -29.5t158.5 -56t136 -91.5t109 -132t70 -180.5 t26 -233.5q-8 -123 -42.5 -226t-88 -178t-126.5 -134t-152.5 -96t-172 -61t-180 -34t-180.5 -10h-104q-271 0 -465 -6q-4 12 -4 20zM530 694q0 -162 11 -620q43 -2 123 -2q162 0 288 49.5t207 138.5t122.5 210.5t41.5 268.5q0 76 -12 149t-38 149t-72 140t-109.5 114.5 t-156 79t-204.5 28.5q-103 0 -188 -13v-59q-13 -340 -13 -633z" />
<glyph unicode="E" horiz-adv-x="1608" d="M72 14q0 7 4 27q46 4 74.5 8.5t70 14.5t63.5 28.5t23 44.5q12 313 12 631q0 324 -10 559q-1 26 -23 44.5t-63.5 28.5t-70 14.5t-74.5 8.5q-4 18 -4 25q0 6 4 22q224 -8 350 -8h115q743 5 835 8q13 -100 51 -189.5t97 -190.5q-8 -17 -35 -27q-36 68 -87 121t-128.5 100 t-193 77t-263.5 40h-276q-13 -422 -13 -637h285q29 0 54.5 4.5t47.5 16t39.5 22t35.5 32t30 36t29 44.5t26 47t27.5 53t28.5 54q31 -12 38 -26q-42 -74 -71 -164t-29 -150q0 -142 100 -313q-8 -16 -38 -27q-11 20 -30.5 57.5t-30.5 57.5t-30 51t-33.5 48t-37 38t-44.5 31.5 t-50.5 18t-61.5 7.5h-285v-8q0 -151 11 -633h319q148 10 263.5 40t193 77t128.5 100t87 121q27 -10 35 -26q-5 -10 -26 -48t-28 -51.5t-23.5 -47t-24.5 -54t-18.5 -51.5t-17 -60.5t-10.5 -60.5h-878q-271 0 -465 -6q-4 12 -4 20z" />
<glyph unicode="F" horiz-adv-x="1503" d="M72 14q0 7 4 27q30 3 48 5t49.5 7t51 11.5t40.5 16.5t31.5 24t10.5 32q12 313 12 631q0 324 -10 559q-1 26 -22.5 44t-64.5 28t-69 13.5t-75 8.5q-4 18 -4 25q0 6 4 22q168 -6 350 -6h115q73 1 252.5 1.5t307 1.5t253.5 5q8 -69 34 -143.5t50 -122t63 -114.5 q-8 -17 -35 -27q-36 68 -87 121t-128.5 100t-193 77t-262.5 40h-254q-13 -432 -13 -653h285q25 0 47 4.5t41.5 15.5t34 21.5t31 32t26.5 35.5t25 44.5t23 46.5t24.5 53t24.5 54q35 -15 38 -25q-59 -154 -59 -313q0 -158 59 -314q-7 -14 -38 -26q-61 147 -93 197 q-74 111 -184 112h-285q0 -215 11 -549q1 -26 23 -44.5t63.5 -28.5t70 -14.5t74.5 -8.5q4 -20 4 -27q0 -8 -4 -20q-170 6 -348 6q-180 0 -348 -6q-4 12 -4 20z" />
<glyph unicode="G" horiz-adv-x="1737" d="M133 729q0 127 27.5 235.5t73.5 186.5t109.5 140t132.5 101t145.5 64.5t145.5 36t136 10.5q112 0 213.5 -13.5t202.5 -33t160 -26.5q-15 -45 -15 -127q0 -136 49 -265q-6 -18 -36 -22q-32 71 -63 124.5t-81 111.5t-107 95t-140 61t-183 24q-108 0 -196 -44t-144.5 -115 t-95 -164.5t-54.5 -188t-16 -191.5q0 -96 17 -190.5t56.5 -187.5t97.5 -163t146.5 -113.5t196.5 -43.5q220 0 306 98v406q0 21 -17 37.5t-39 25.5t-58.5 16.5t-59.5 10.5t-58 6q-4 16 -4 24q0 7 4 23q226 -8 348 -8q124 0 348 8q5 -20 5 -23q0 -4 -5 -24q-35 -3 -58 -6 t-59.5 -10.5t-58 -16.5t-38.5 -25.5t-17 -37.5v-148q0 -190 45 -311q-165 -61 -293 -89t-291 -28q-97 0 -195 20t-205.5 75t-189 138t-135 222t-53.5 315z" />
<glyph unicode="H" horiz-adv-x="1765" d="M72 14q0 17 4 27q46 4 74.5 8.5t70 14.5t63.5 28.5t23 44.5q12 313 12 631q0 324 -10 559q-1 26 -23 44.5t-63.5 28.5t-70 14.5t-74.5 8.5q-4 18 -4 25q0 10 4 22q224 -8 348 -8t348 8q4 -16 4 -22q0 -7 -4 -25q-46 -4 -74.5 -8.5t-70 -14.5t-63.5 -28.5t-23 -44.5 q-13 -299 -13 -557q111 -4 336 -4q184 0 369 6q-4 373 -10 555q-1 26 -23 44.5t-64 28.5t-70.5 14.5t-74.5 8.5q-4 18 -4 25q0 6 4 22q226 -8 348 -8q123 0 349 8q4 -16 4 -22q0 -7 -4 -25q-46 -4 -74.5 -8.5t-70.5 -14.5t-64 -28.5t-23 -44.5q-10 -249 -10 -596 q0 -345 10 -594q1 -26 23 -44.5t64 -28.5t70.5 -14.5t74.5 -8.5q4 -16 4 -27q0 -8 -4 -20q-170 6 -349 6t-348 -6q-4 12 -4 20q0 17 4 27q46 4 75 8.5t71 14.5t64 28.5t22 44.5q8 357 10 541q-185 6 -369 6q-114 0 -336 -4q0 -213 11 -543q1 -26 23 -44.5t63.5 -28.5 t70 -14.5t74.5 -8.5q4 -20 4 -27q0 -8 -4 -20q-170 6 -348 6q-180 0 -348 -6q-4 12 -4 20z" />
<glyph unicode="I" horiz-adv-x="850" d="M72 14q0 17 4 27q30 3 48 5t49.5 7t51 11.5t40.5 16.5t31.5 24t10.5 32q12 313 12 631q0 324 -10 559q-1 26 -23 44.5t-63.5 28.5t-70 14.5t-74.5 8.5q-4 18 -4 25q0 10 4 22q224 -8 348 -8t348 8q4 -16 4 -22q0 -11 -4 -25q-46 -4 -74.5 -8.5t-70 -14.5t-63.5 -28.5 t-23 -44.5q-13 -340 -13 -633q0 -214 11 -557q1 -26 23 -44.5t63.5 -28.5t70 -14.5t74.5 -8.5q4 -12 4 -27q0 -8 -4 -20q-170 6 -348 6q-180 0 -348 -6q-4 12 -4 20z" />
<glyph unicode="J" horiz-adv-x="905" d="M-133 -293q0 83 44 128.5t116 45.5q59 0 101 -32t42 -95q0 -34 -17 -60.5t-37.5 -39t-37.5 -23t-17 -14.5q0 -38 29.5 -62t81.5 -24q56 0 94.5 21t63 59t37.5 106t17.5 145t4.5 193q0 988 -10 1272q-1 26 -23 44.5t-64 28.5t-70.5 14.5t-74.5 8.5q-4 18 -4 25q0 10 4 22 q226 -8 355 -8q122 0 348 8q4 -16 4 -22q0 -11 -4 -25q-46 -4 -75 -8.5t-71 -14.5t-64 -28.5t-22 -44.5q-1 -65 -2.5 -305t-3.5 -449q-2 -167 -5.5 -273.5t-14 -236t-29 -208t-50.5 -161t-77.5 -126.5t-111.5 -72t-152 -28q-145 0 -225 71t-80 168z" />
<glyph unicode="K" horiz-adv-x="1636" d="M72 14q0 17 4 27q30 3 48 5t49.5 7t51 11.5t40.5 16.5t31.5 24t10.5 32q12 313 12 631q0 324 -10 559q-1 26 -23 44.5t-63.5 28.5t-70 14.5t-74.5 8.5q-4 18 -4 25q0 10 4 22q224 -8 348 -8t348 8q4 -16 4 -22q0 -11 -4 -25q-46 -4 -74.5 -8.5t-70 -14.5t-63.5 -28.5 t-23 -44.5q-13 -296 -13 -547h29l567 547q13 19 13 29q0 19 -10.5 31.5t-38 19t-55 9.5t-81.5 7q-4 18 -4 25q0 6 4 22q226 -8 297 -8q49 0 275 8q4 -16 4 -22q0 -7 -4 -25q-43 -4 -68.5 -8t-65 -13.5t-75 -28t-68.5 -46.5l-516 -491l635 -646q160 -143 281 -149 q4 -16 4 -27q0 -12 -4 -22q-145 8 -320 8q-157 0 -379 -8q-4 12 -4 24q0 13 4 25q97 3 128.5 17.5t31.5 50.5q0 13 -7 25t-24.5 31.5t-21.5 24.5l-488 506l-39 -2q0 -214 11 -557q1 -26 23 -44.5t63.5 -28.5t70 -14.5t74.5 -8.5q4 -12 4 -27q0 -8 -4 -20q-170 6 -348 6 q-180 0 -348 -6q-4 12 -4 20z" />
<glyph unicode="L" horiz-adv-x="1597" d="M72 14q0 7 4 27q46 4 74.5 8.5t70 14.5t63.5 28.5t23 44.5q12 313 12 631q0 324 -10 559q-1 26 -23 44.5t-63.5 28.5t-70 14.5t-74.5 8.5q-4 18 -4 25q0 10 4 22q224 -8 348 -8t348 8q4 -16 4 -22q0 -7 -4 -25q-46 -4 -74.5 -8.5t-70 -14.5t-63.5 -28.5t-23 -44.5 q-13 -340 -13 -633q0 -151 11 -633h309q147 10 263 43t193.5 84.5t128 107t87.5 124.5q26 -10 34 -27q-41 -76 -63.5 -123t-49 -123.5t-34.5 -146.5h-868q-271 0 -465 -6q-4 12 -4 20z" />
<glyph unicode="M" horiz-adv-x="1909" d="M61 14q0 17 5 27q221 21 221 111q12 312 12 616q0 219 -6 465q-1 42 -5 70.5t-15 49.5t-23 33t-37 21.5t-48.5 14t-66.5 10.5q-4 8 -4 18q0 12 4 20q188 -8 473 -8l387 -1048h5l403 1048h115q124 0 350 8q4 -16 4 -22q0 -7 -4 -25q-36 -3 -58 -6t-58.5 -10t-58.5 -16.5 t-39 -26t-18 -37.5q-10 -235 -10 -559q0 -329 13 -631q1 -26 23 -44.5t63.5 -28.5t70 -14.5t74.5 -8.5q4 -16 4 -27q0 -8 -4 -20q-169 6 -348 6q-180 0 -348 -6q-4 12 -4 20q0 17 4 27q46 4 74.5 8.5t70 14.5t63.5 28.5t23 44.5q10 312 10 557q0 235 -10 535h-8l-457 -1204 h-10l-487 1228h-11q-8 -243 -8 -559q0 -232 10 -542q2 -91 221 -111q5 -17 5 -27t-5 -20q-159 6 -284 6q-80 0 -268 -6q-5 10 -5 20z" />
<glyph unicode="N" horiz-adv-x="1704" d="M61 14q0 17 5 27q221 21 221 111q12 312 12 616q0 330 -8 573q-84 73 -213 82q-6 13 -6 23q0 15 6 24q164 -8 414 -8q706 -895 811 -999l2 -2h8q4 192 4 309q0 231 -10 543q-2 90 -222 110q-4 22 -4 27q0 8 4 20q161 -6 285 -6q80 0 268 6q4 -12 4 -20q0 -16 -4 -27 q-219 -20 -221 -110q-12 -313 -12 -617q0 -465 10 -700l-18 -2l-994 1223h-10q-6 -260 -6 -523q0 -232 10 -542q2 -91 221 -111q5 -17 5 -27t-5 -20q-159 6 -284 6q-80 0 -268 -6q-5 10 -5 20z" />
<glyph unicode="O" horiz-adv-x="1782" d="M133 729q0 127 26.5 235.5t71.5 186.5t107.5 140t130 101t143.5 64.5t144 36t135 10.5t135 -10.5t144 -36t143.5 -64.5t130 -101t107.5 -140t71.5 -186.5t26.5 -235.5t-26.5 -235.5t-71.5 -186t-107.5 -139t-130 -100t-143.5 -64t-144 -35.5t-135 -10t-135 10t-144 35.5 t-143.5 64t-130 100t-107.5 139t-71.5 186t-26.5 235.5zM397 729q0 -97 15 -190.5t51.5 -187t91 -163.5t141.5 -113.5t195 -43.5t194.5 43.5t141.5 113.5t91 163.5t51 187t15 190.5q0 68 -7.5 135.5t-25 138t-43.5 132.5t-66 117t-89.5 94.5t-116.5 62.5t-145 23 q-91 0 -166.5 -30.5t-128.5 -84t-92.5 -121.5t-62 -148.5t-33.5 -159.5t-11 -159z" />
<glyph unicode="P" horiz-adv-x="1313" d="M72 14q0 17 4 27q46 4 74.5 8.5t70 14.5t63.5 28.5t23 44.5q8 257 8 541q0 72 -10 659q-3 23 -23.5 39.5t-59.5 25.5t-63.5 13t-68.5 8q-4 18 -4 25q0 6 4 22q26 -1 124 -4.5t151 -3.5q45 0 170 4t180 4q256 0 391 -119t135 -317q0 -188 -121 -307t-344 -119 q-134 0 -241 56q0 -244 6 -527q1 -26 23 -44.5t63.5 -28.5t70 -14.5t74.5 -8.5q4 -20 4 -27q0 -8 -4 -20q-170 6 -348 6q-180 0 -348 -6q-4 12 -4 20zM535 731q82 -37 163 -37q141 0 212 91t71 251q0 369 -365 369q-23 0 -75 -4q-6 -360 -6 -670z" />
<glyph unicode="Q" horiz-adv-x="1782" d="M133 729q0 127 26.5 235.5t71.5 186.5t107.5 140t130 101t143.5 64.5t144 36t135 10.5t135 -10.5t144 -36t143.5 -64.5t130 -101t107.5 -140t71.5 -186.5t26.5 -235.5q0 -143 -34 -262t-89 -199.5t-131.5 -141.5t-154.5 -94.5t-165 -51.5q25 -54 44 -88t60.5 -85 t91.5 -88.5t134 -80.5t192 -78q9 -12 9 -25q0 -16 -7 -22q-186 0 -349.5 48t-300.5 153.5t-214 258.5q-89 15 -170 46.5t-161.5 91.5t-139 142t-95 204.5t-36.5 271.5zM397 729q0 -97 15 -190.5t51.5 -187t91 -163.5t141.5 -113.5t195 -43.5t194.5 43.5t141.5 113.5 t91 163.5t51 187t15 190.5q0 68 -7.5 135.5t-25 138t-43.5 132.5t-66 117t-89.5 94.5t-116.5 62.5t-145 23q-91 0 -166.5 -30.5t-128.5 -84t-92.5 -121.5t-62 -148.5t-33.5 -159.5t-11 -159z" />
<glyph unicode="R" horiz-adv-x="1552" d="M72 14q0 17 4 27q30 3 48 5t49.5 7t51 11.5t40.5 16.5t31.5 24t10.5 32q12 313 12 631q0 324 -10 559q-1 26 -23 44.5t-63.5 28.5t-70 14.5t-74.5 8.5q-4 18 -4 25q0 6 4 22q216 -8 348 -8q50 0 161 4t171 4q222 0 349.5 -112t127.5 -291q0 -144 -85 -257.5t-232 -162.5 q67 -120 184 -272q113 -151 215.5 -237t220.5 -97q4 -16 4 -25q0 -10 -4 -22q-60 3 -128 4t-151.5 1t-128.5 1q-269 313 -432 616q-73 0 -168 23q0 -194 11 -502q1 -26 23 -44.5t63.5 -28.5t70 -14.5t74.5 -8.5q4 -20 4 -27q0 -8 -4 -20q-170 6 -348 6q-180 0 -348 -6 q-4 12 -4 20zM530 715q70 -23 142 -23q66 0 118.5 22.5t86.5 59.5t56.5 87t32 101t9.5 105q0 149 -81.5 243.5t-231.5 94.5q-74 0 -119 -4h-2q-11 -368 -11 -686z" />
<glyph unicode="S" horiz-adv-x="1284" d="M123 532q11 7 22 7q14 0 25 -7q21 -129 69.5 -228t111.5 -156.5t130.5 -86t136.5 -28.5q157 0 241.5 81.5t84.5 215.5q0 135 -62.5 203.5t-238.5 111.5q-220 55 -343.5 162.5t-123.5 284.5q0 93 30.5 166.5t79 118t113.5 74t128.5 41t129.5 11.5q198 0 412 -92 q-6 -59 -6 -123q0 -150 24 -241q-13 -5 -22 -5q-10 0 -25 5q-38 183 -139.5 284t-243.5 101q-139 0 -215.5 -66t-76.5 -176q0 -61 11 -101t45 -77.5t99 -66t170 -54.5q57 -14 99.5 -26t94 -33t89 -45t75 -59.5t61 -78.5t38 -101.5t14.5 -127.5q0 -92 -34 -169.5t-89 -130.5 t-127 -90t-146 -54t-147 -17q-222 0 -473 115q5 108 5 133q0 163 -27 325z" />
<glyph unicode="T" horiz-adv-x="1628" d="M10 1090q4 8 21.5 41t23.5 44.5t21.5 42.5t22.5 48t18.5 46.5t18 51.5t13 50.5t9.5 55.5q217 -8 655 -8t657 8q5 -43 15 -82.5t30.5 -87t29.5 -68t39 -78t34 -64.5q-8 -17 -35 -27q-29 54 -63 97.5t-88 86.5t-121.5 73.5t-164.5 53.5t-216 31q-10 -249 -10 -633 q0 -386 10 -635q1 -26 23 -44.5t63.5 -28.5t70 -14.5t74.5 -8.5q4 -20 4 -27q0 -8 -4 -20q-168 6 -348 6q-179 0 -348 -6q-4 12 -4 20q0 7 4 27q30 3 48 5t49.5 7t51 11.5t40.5 16.5t31.5 24t10.5 32q11 365 11 635q0 268 -11 633q-144 -8 -256.5 -39t-187.5 -80.5 t-123.5 -102.5t-83.5 -120q-27 10 -35 27z" />
<glyph unicode="U" horiz-adv-x="1767" d="M41 1448q0 6 4 22q169 -6 348 -6q180 0 348 6q4 -16 4 -22q0 -7 -4 -25q-30 -3 -48 -5t-49.5 -7t-51 -11.5t-40.5 -16.5t-31.5 -24t-10.5 -32q-4 -133 -4 -731q0 -285 95.5 -414t324.5 -129q231 0 356 140.5t125 402.5q0 477 -6 717q-2 90 -221 110q-4 22 -4 27q0 8 4 20 q159 -6 284 -6q80 0 269 6q4 -12 4 -20q0 -16 -4 -27q-217 -20 -222 -110q-10 -238 -10 -717q0 -146 -38 -260.5t-97 -183.5t-137.5 -114t-151.5 -62t-147 -17q-99 0 -178 11t-154 37.5t-130 74t-97 116.5t-63 169t-21 229v164q0 335 -11 567q-1 26 -23 44.5t-63.5 28.5 t-70 14.5t-74.5 8.5q-4 18 -4 25z" />
<glyph unicode="V" horiz-adv-x="1604" d="M0 1448q0 10 4 22q226 -8 356 -8q189 0 338 8q4 -16 4 -22q0 -11 -4 -25q-132 -4 -178.5 -19.5t-46.5 -53.5q0 -1 14 -50l416 -966h10l390 979q6 15 6 39q0 33 -36 47t-124 24q-4 22 -4 27q0 8 4 20q129 -6 233 -6q114 0 228 6q4 -12 4 -20q0 -16 -4 -27 q-75 -7 -124.5 -30.5t-76.5 -79.5l-541 -1342h-47l-581 1329q-46 105 -236 123q-4 18 -4 25z" />
<glyph unicode="W" horiz-adv-x="2144" d="M0 1448q0 10 4 22q214 -8 336 -8q117 0 258 8q4 -16 4 -22q0 -11 -4 -25q-87 -4 -119.5 -21.5t-32.5 -45.5q0 -8 2.5 -18.5t7 -21.5t5.5 -16l393 -966h10l195 520l-176 446q-42 108 -201 123q-4 18 -4 25q0 10 4 22q141 -8 313 -8q158 0 299 8q4 -16 4 -22q0 -11 -4 -25 q-121 -4 -156.5 -18.5t-35.5 -54.5q0 -1 14 -50l369 -966h10l365 979q6 15 6 39q0 32 -39 46.5t-127 24.5q-4 22 -4 27q0 8 4 20q123 -6 235 -6q109 0 215 6q4 -12 4 -20q0 -16 -4 -27q-71 -7 -117.5 -30t-72.5 -80l-508 -1342h-45l-301 762l-285 -762h-45l-549 1329 q-44 106 -223 123q-4 18 -4 25z" />
<glyph unicode="X" horiz-adv-x="1524" d="M20 14q0 17 5 27q159 15 229 111l414 561l-385 614q-22 29 -48.5 47.5t-60.5 28t-57 13t-66 7.5q-4 18 -4 25q0 10 4 22q226 -8 363 -8q166 0 317 8q4 -16 4 -22q0 -11 -4 -25q-112 -5 -158.5 -20.5t-46.5 -52.5q0 -18 27 -62l246 -391l297 416q10 17 10 41 q0 31 -39.5 45.5t-118.5 23.5q-4 22 -4 27q0 8 4 20q129 -6 234 -6q134 0 248 6q4 -12 4 -20q0 -16 -4 -27q-165 -15 -230 -110l-352 -492l420 -669q72 -96 252 -113q4 -16 4 -25q0 -10 -4 -22q-226 8 -373 8q-199 0 -348 -8q-4 16 -4 22q0 13 4 25q231 10 231 70 q0 25 -10 43l-305 485l-353 -483q-14 -22 -14 -43q0 -31 43.5 -46t124.5 -24q4 -20 4 -27q0 -8 -4 -20q-129 6 -244 6q-134 0 -247 -6q-5 15 -5 20z" />
<glyph unicode="Y" horiz-adv-x="1466" d="M0 1448q0 10 4 22q226 -8 363 -8q187 0 338 8q4 -16 4 -22q0 -11 -4 -25q-117 -5 -171.5 -21t-54.5 -52q0 -13 17 -45l307 -551h8l336 559q12 20 12 41q0 31 -39.5 45.5t-118.5 23.5q-4 22 -4 27q0 8 4 20q129 -6 234 -6q113 0 227 6q4 -12 4 -20q0 -16 -4 -27 q-73 -7 -123 -30t-86 -80l-415 -670q0 -216 10 -506q1 -26 23 -44.5t63.5 -28.5t70 -14.5t74.5 -8.5q4 -12 4 -27q0 -8 -4 -20q-168 6 -348 6q-179 0 -348 -6q-4 12 -4 20q0 17 4 27q46 4 74.5 8.5t70 14.5t63.5 28.5t23 44.5q10 251 13 506l-391 684q-39 49 -96 69t-136 27 q-4 18 -4 25z" />
<glyph unicode="Z" horiz-adv-x="1468" d="M57 33q469 656 951 1372q-122 -1 -214 -8t-171.5 -28t-134.5 -43t-122 -68.5t-113.5 -86t-129.5 -114.5q-28 0 -41 22q157 166 229 391q64 -1 334 -4.5t402 -3.5q100 0 200 8q33 -11 33 -45q-492 -695 -946 -1364h330q137 0 242.5 20.5t180.5 57t132.5 98t96 132.5 t73.5 170q29 -4 38 -21q-47 -122 -63 -245.5t-16 -272.5h-1063q-105 0 -213 -6q-15 15 -15 39z" />
<glyph unicode="[" horiz-adv-x="823" d="M246 -426v2046h495v-86h-297v-1874h297v-86h-495z" />
<glyph unicode="\" horiz-adv-x="1268" d="M164 1620h137l803 -2046h-133z" />
<glyph unicode="]" horiz-adv-x="823" d="M82 -340h297v1874h-297v86h496v-2046h-496v86z" />
<glyph unicode="^" horiz-adv-x="1227" d="M164 1055l448 450l451 -450h-182l-269 268l-268 -268h-180z" />
<glyph unicode="_" horiz-adv-x="1257" d="M0 -424h1257v-108h-1257v108z" />
<glyph unicode="`" horiz-adv-x="993" d="M287 1382q0 39 24 62.5t62 23.5q51 0 92 -47l242 -301l-29 -37l-283 177q-57 36 -71 49q-37 32 -37 73z" />
<glyph unicode="a" horiz-adv-x="1038" d="M133 158q0 67 22.5 113t84 86t151.5 71t242 70v139q0 101 -44.5 151t-119.5 50q-67 0 -112.5 -26.5t-55.5 -61.5q98 -15 98 -107q0 -42 -30 -74t-84 -32q-45 0 -80 31.5t-35 88.5q0 110 100.5 181t237.5 71q168 0 236.5 -67t68.5 -226v-415q0 -56 41 -56q33 0 84 80 q36 -3 49 -32q-7 -10 -24 -36t-25 -37t-25 -33.5t-27.5 -33.5t-28 -26t-32 -22.5t-33.5 -13t-38 -5.5q-50 0 -82.5 36t-38.5 111q-1 -1 -31 -29t-41.5 -37.5t-43 -33t-53.5 -33.5t-55 -19.5t-65 -9.5q-51 0 -90.5 14t-61.5 34t-36 46.5t-18.5 48.5t-4.5 44zM334 205 q0 -50 29.5 -78.5t72.5 -28.5q100 0 197 127v209q-92 -21 -152 -45.5t-91.5 -53.5t-43.5 -59.5t-12 -70.5z" />
<glyph unicode="b" horiz-adv-x="1161" d="M0 1415q0 7 4 23q191 18 338 82q28 -12 35 -27v-735q155 151 313 151q154 0 251 -114.5t97 -309.5q0 -73 -16 -143.5t-53 -138t-91 -118.5t-137 -82.5t-184 -31.5q-99 0 -193 33t-167 94q2 99 2 482q0 159 -1 433t-1 337q-56 33 -193 41q-4 16 -4 24zM377 680 q0 -324 4 -524q69 -119 211 -119q30 0 60.5 10t64.5 38t59.5 71t42.5 116t17 166q0 96 -25 171t-81 122t-136 47q-67 0 -116.5 -24.5t-100.5 -73.5z" />
<glyph unicode="c" horiz-adv-x="983" d="M123 424q0 217 133 351t332 134q140 0 228.5 -60.5t88.5 -154.5q0 -53 -35 -88t-86 -35q-54 0 -87 31.5t-33 73.5q0 76 77 96q-7 23 -45 47.5t-108 24.5q-36 0 -68 -8.5t-68.5 -35.5t-62 -71t-42.5 -122.5t-17 -182.5q0 -70 14.5 -127t45.5 -103t85 -72t127 -26 q46 0 87 12.5t66.5 26.5t55 42.5t39.5 41t33 41.5q24 -5 39 -22q-50 -134 -155 -200.5t-228 -66.5q-61 0 -119 15.5t-112.5 50.5t-95 86.5t-65 129t-24.5 171.5z" />
<glyph unicode="d" horiz-adv-x="1192" d="M123 403q0 69 16 138t53 136t91 118t137 82.5t184 31.5q75 0 176 -32q-2 190 -2 473q-57 33 -192 41q-4 16 -4 24q0 7 4 23q189 18 338 82q26 -11 34 -27q0 -1133 9 -1356q1 -26 15.5 -44.5t41.5 -28.5t45 -14.5t47 -8.5q4 -16 4 -25q0 -6 -4 -22q-35 2 -71.5 4t-57.5 3 t-39 1q-15 0 -34 -1t-52 -3t-65 -4q-5 2 -8.5 4.5t-5 4t-3.5 5t-3 4.5t-2.5 6.5t-2.5 6.5q4 24 4 108q-165 -162 -305 -162q-154 0 -251 116t-97 316zM326 442q0 -148 61.5 -244t179.5 -96q100 0 211 107q2 98 2 371v145q-69 119 -211 119q-30 0 -60 -9t-64 -36t-59.5 -69 t-42.5 -116.5t-17 -171.5z" />
<glyph unicode="e" horiz-adv-x="999" d="M123 424q0 211 129 348t317 137q83 0 144.5 -23.5t96 -63.5t51 -87.5t16.5 -101.5q0 -50 -17 -103h-545q-4 -60 -4 -96v-10q3 -149 87 -238.5t225 -89.5q38 0 71 8.5t54.5 19.5t44.5 32t33.5 33.5t28.5 38t24 32.5q24 -5 39 -22q-50 -134 -155 -200.5t-228 -66.5 q-61 0 -118.5 15.5t-111.5 50.5t-94 86.5t-64 129t-24 171.5zM326 598h360q10 38 10 66q0 78 -36 129t-115 51q-69 0 -130.5 -61t-88.5 -185z" />
<glyph unicode="f" horiz-adv-x="741" d="M72 16q0 5 4 25q33 4 53.5 8.5t52 14.5t47.5 28.5t17 44.5q4 99 4 443v208h-135q-6 16 -6 35q0 22 6 37h135v105q0 110 28.5 208.5t83 176.5t144 124t201.5 46q104 0 174.5 -52.5t70.5 -138.5q0 -53 -35 -92t-90 -39q-53 0 -84.5 26.5t-31.5 67.5q0 29 17.5 56t49.5 38 q-20 33 -48 42.5t-87 9.5q-92 0 -153.5 -66t-61.5 -174v-338h217q6 -15 6 -37q0 -19 -6 -35h-217q0 -495 8 -651q1 -26 20 -44.5t55 -28.5t62 -14.5t66 -8.5q4 -20 4 -27q0 -8 -4 -20q-132 6 -309 6q-122 0 -254 -6q-4 16 -4 22z" />
<glyph unicode="g" horiz-adv-x="1053" d="M123 582q0 58 27.5 116.5t74.5 105t115.5 76t144.5 29.5q70 0 115 -10.5t112 -36.5t126 -43q5 39 31 66.5t67 27.5q37 0 66.5 -31t29.5 -71q0 -41 -25.5 -70.5t-64.5 -29.5q-23 0 -46 8t-37.5 16.5t-42.5 28t-44 29.5l-4 -5q37 -33 56.5 -84.5t19.5 -107.5 q0 -158 -102 -253t-248 -95q-69 0 -129 10q-60 -38 -60 -94q0 -45 56.5 -65.5t193.5 -20.5q22 0 83 2t97 2q279 0 279 -229q0 -65 -38.5 -137t-105 -134.5t-167 -103.5t-211.5 -41q-175 0 -265 64.5t-90 160.5q0 67 49.5 134t147.5 120q-193 28 -193 150q0 58 43.5 109.5 t118.5 107.5q-102 57 -141 131t-39 168zM322 -266q0 -40 12 -76t38 -68t73.5 -50.5t111.5 -18.5q82 0 145.5 25.5t96.5 63.5t49 73.5t16 64.5q0 40 -7 67.5t-26.5 53t-60.5 38.5t-104 13q-34 0 -127 -4t-119 -4q-46 -32 -72 -79t-26 -99zM326 580q0 -267 159 -267 q76 0 116 66t40 219q0 70 -16 121.5t-41.5 77t-51 36.5t-51.5 11q-67 0 -111 -63t-44 -201z" />
<glyph unicode="h" horiz-adv-x="1225" d="M61 1415q0 10 5 23q190 18 337 82q27 -11 35 -27v-768q99 84 186 134t177 50q113 0 161 -64t50 -200l8 -508q1 -26 15.5 -44.5t41.5 -28.5t45 -14.5t47 -8.5q5 -25 5 -27q0 -5 -5 -20q-129 6 -235 6q-107 0 -236 -6q-4 16 -4 24q0 7 4 23q26 4 43.5 8.5t40 14.5t34 28.5 t11.5 44.5l2 475q0 181 -108 181q-101 0 -283 -131q4 -416 8 -525q1 -21 12.5 -37.5t25.5 -26t38 -17t37.5 -10t36.5 -5.5q6 -12 6 -25t-6 -22q-132 6 -256 6q-122 0 -254 -6q-4 16 -4 22q0 5 4 25q33 4 53.5 8.5t52 14.5t47.5 28.5t17 44.5q4 99 4 443q0 159 -1 433t-1 337 q-57 33 -192 41q-5 13 -5 24z" />
<glyph unicode="i" horiz-adv-x="674" d="M72 801q0 6 4 22q194 20 338 82q25 -10 35 -26q0 -519 8 -742q1 -26 15.5 -44.5t41.5 -28.5t45 -14.5t47 -8.5q6 -12 6 -25t-6 -22q-132 6 -256 6q-122 0 -254 -6q-4 16 -4 22q0 5 4 25q33 4 54 8.5t52 14.5t47 28.5t17 44.5q4 99 4 240q0 47 -1 160t-1 198 q-57 35 -192 41q-4 16 -4 25zM233 1241q0 51 36.5 87t86.5 36q51 0 87 -36t36 -87q0 -50 -36 -86.5t-87 -36.5q-50 0 -86.5 36.5t-36.5 86.5z" />
<glyph unicode="j" horiz-adv-x="631" d="M-123 -358q0 58 35 95.5t94 37.5q54 0 84.5 -29.5t30.5 -81.5q0 -36 -22.5 -65.5t-65.5 -36.5q13 -60 90 -60q65 0 96 59.5t31 202.5v373q-2 99 -2 240q0 47 -1 160t-1 198q-57 35 -193 41q-4 16 -4 25q0 6 4 22q196 20 338 82q27 -9 35 -26q0 -227 2 -501.5t2 -449.5 q0 -94 -14 -174t-47.5 -155t-98 -118.5t-155.5 -43.5q-104 0 -171 58.5t-67 146.5zM211 1241q0 51 36 87t87 36q50 0 86.5 -36t36.5 -87q0 -50 -36.5 -86.5t-86.5 -36.5q-51 0 -87 36.5t-36 86.5z" />
<glyph unicode="k" horiz-adv-x="1118" d="M61 1415q0 10 5 23q190 18 337 82q27 -11 35 -27q0 -645 2 -942h52l202 192q19 22 19 45q0 42 -95 52q-4 16 -4 22q0 9 4 25q130 -6 207 -6q84 0 213 6q4 -12 4 -21q0 -6 -4 -26q-89 -10 -147 -29.5t-105 -67.5l-159 -161l352 -445q60 -78 180 -96q4 -20 4 -27 q0 -8 -4 -20q-129 6 -233 6q-101 0 -230 -6q-4 16 -4 24q0 7 4 23q88 9 88 47q0 22 -22 49l-273 350h-49q0 -239 6 -350q0 -26 13.5 -44.5t40 -28.5t44 -14.5t46.5 -8.5q6 -12 6 -25t-6 -22q-132 6 -250 6q-122 0 -254 -6q-4 16 -4 22q0 5 4 25q33 4 53.5 8.5t52 14.5 t47.5 28.5t17 44.5q4 99 4 443q0 159 -1 433t-1 337q-57 33 -192 41q-5 13 -5 24z" />
<glyph unicode="l" horiz-adv-x="664" d="M61 1415q0 10 5 23q190 18 337 82q27 -11 35 -27q0 -1133 8 -1356q1 -21 12.5 -37.5t25.5 -26t38 -17t37.5 -10t36.5 -5.5q6 -12 6 -25t-6 -22q-132 6 -256 6q-122 0 -254 -6q-4 16 -4 22q0 5 4 25q33 4 53.5 8.5t52 14.5t47.5 28.5t17 44.5q4 99 4 443q0 159 -1 433 t-1 337q-57 33 -192 41q-5 13 -5 24z" />
<glyph unicode="m" horiz-adv-x="1780" d="M72 801q0 6 4 22q194 20 338 82q25 -10 35 -26v-158q47 43 79 69.5t78.5 57.5t93 46t95.5 15q98 0 146 -46.5t60 -145.5q51 46 81.5 71t79.5 58t96 48t96 15q113 0 161 -64t50 -200l10 -508q1 -26 15.5 -44.5t41.5 -28.5t45 -14.5t47 -8.5q5 -25 5 -27q0 -5 -5 -20 q-129 6 -237 6q-96 0 -225 -6q-5 20 -5 24q0 3 5 23q25 4 41.5 8.5t36.5 14.5t30 28.5t10 44.5l2 475q0 181 -108 181q-54 0 -117 -34t-151 -102v-12l8 -508q1 -26 15.5 -44.5t41.5 -28.5t45 -14.5t47 -8.5q4 -20 4 -27q0 -8 -4 -20q-129 6 -235 6q-97 0 -226 -6 q-4 16 -4 24q0 7 4 23q25 4 42 8.5t37 14.5t30 28.5t10 44.5l2 475q0 181 -108 181q-54 0 -114.5 -33t-151.5 -101q0 -293 8 -522q1 -26 14 -44.5t37.5 -28.5t42.5 -14.5t45 -8.5q6 -12 6 -25q0 -10 -6 -22q-132 6 -246 6q-122 0 -254 -6q-4 16 -4 22q0 5 4 25q33 4 54 8.5 t52 14.5t47 28.5t17 44.5q4 99 4 240q0 47 -1 160t-1 198q-57 35 -192 41q-4 16 -4 25z" />
<glyph unicode="n" horiz-adv-x="1241" d="M72 801q0 6 4 22q194 20 338 82q25 -10 35 -26v-158q97 85 186 136.5t180 51.5q114 0 161.5 -64t49.5 -200l10 -508q1 -26 15.5 -44.5t42 -28.5t45.5 -14.5t47 -8.5q4 -20 4 -27q0 -8 -4 -20q-129 6 -238 6q-106 0 -235 -6q-4 16 -4 24q0 7 4 23q26 4 43.5 8.5t40 14.5 t34 28.5t11.5 44.5l2 475q0 181 -109 181q-102 0 -286 -136q0 -291 8 -520q1 -26 15.5 -44.5t41.5 -28.5t45 -14.5t47 -8.5q6 -12 6 -25q0 -10 -6 -22q-132 6 -256 6q-122 0 -254 -6q-4 16 -4 22q0 5 4 25q33 4 54 8.5t52 14.5t47 28.5t17 44.5q4 99 4 240q0 47 -1 160 t-1 198q-57 35 -192 41q-4 16 -4 25z" />
<glyph unicode="o" horiz-adv-x="1106" d="M123 440q0 207 116 338t314 131t314 -131t116 -338t-116.5 -338t-313.5 -131t-313.5 131t-116.5 338zM330 440q0 -206 60.5 -304.5t162.5 -98.5t162.5 98.5t60.5 304.5t-60.5 305t-162.5 99t-162.5 -99t-60.5 -305z" />
<glyph unicode="p" horiz-adv-x="1167" d="M10 801q0 6 4 22q196 20 338 82q27 -9 35 -26v-117q154 147 309 147q154 0 251 -114.5t97 -309.5q0 -73 -16 -143.5t-52.5 -138t-90 -118.5t-135.5 -82.5t-181 -31.5q-92 0 -180 35q0 -272 6 -401q1 -21 17 -37.5t37 -26t57 -17t59.5 -10t61.5 -6.5q6 -12 6 -24t-6 -23 q-208 7 -338 7q-100 0 -254 -7q-4 18 -4 23q0 4 4 24q35 5 54 9t51 14.5t48 29t17 44.5q4 98 4 442q0 160 -1 393t-1 295q-57 35 -193 41q-4 16 -4 25zM387 164q59 -127 211 -127q30 0 60.5 10t64.5 38t59.5 71t42.5 116t17 166q0 96 -25 171t-81 122t-136 47 q-65 0 -114 -24t-99 -70v-520z" />
<glyph unicode="q" horiz-adv-x="1145" d="M123 403q0 69 16 138t53 136t91 118t137 82.5t184 31.5q63 0 176.5 -30t149.5 -35q22 -11 31 -35q0 -981 8 -1204q0 -18 6.5 -32t21 -24t26 -16.5t34 -12t31 -7t30.5 -5.5q6 -12 6 -24t-6 -23q-154 7 -256 7q-130 0 -315 -7q-4 18 -4 23q0 4 4 24q32 3 48 5t49 7.5 t51.5 12t40.5 16.5t32 24t10 32q4 98 4 442v103q-169 -179 -311 -179q-154 0 -251 116t-97 316zM326 442q0 -148 61.5 -244t179.5 -96q94 0 215 125q-2 197 -2 488q-70 129 -211 129q-30 0 -60 -9t-64 -36t-59.5 -69t-42.5 -116.5t-17 -171.5z" />
<glyph unicode="r" horiz-adv-x="899" d="M72 801q0 6 4 22q194 20 338 82q25 -10 35 -26v-172q37 70 110.5 136t153.5 66q60 0 97.5 -35.5t37.5 -97.5q0 -59 -35 -92t-88 -33q-49 0 -80.5 31.5t-34.5 83.5q-42 -18 -95.5 -80t-65.5 -123q0 -223 8 -426q1 -26 19 -44.5t53 -28.5t58 -14.5t60 -8.5q6 -12 6 -25 q0 -10 -6 -22q-150 6 -297 6q-122 0 -254 -6q-4 16 -4 22q0 5 4 25q33 4 54 8.5t52 14.5t47 28.5t17 44.5q4 99 4 240q0 47 -1 160t-1 198q-57 35 -192 41q-4 16 -4 25z" />
<glyph unicode="s" horiz-adv-x="897" d="M123 12q5 16 12.5 109t7.5 166q13 6 47 6q18 -58 37.5 -99t50 -79.5t74 -58t99.5 -19.5q87 0 136.5 45t49.5 102q0 43 -14 73t-62.5 63.5t-138.5 66.5q-56 20 -95 37t-80.5 42t-66.5 51.5t-41 63.5t-16 81q0 32 7.5 63.5t29 65.5t54 59.5t87 42t123.5 16.5q28 0 49.5 -3 t52 -10.5t33.5 -8.5q22 5 45.5 13t26.5 9h26q24 -144 62 -245q-12 -13 -39 -13q-83 100 -141.5 146.5t-132.5 46.5q-58 0 -102 -26t-44 -79q0 -67 53.5 -105t198.5 -97q67 -27 105.5 -45t77.5 -43t57.5 -51.5t30.5 -63.5t12 -86q0 -106 -97.5 -191.5t-234.5 -85.5 q-49 0 -88.5 8t-61 17t-57.5 27q-39 0 -115 -29q-13 8 -18 18z" />
<glyph unicode="t" horiz-adv-x="801" d="M82 811q0 1 4 23q48 24 73.5 39.5t65 44.5t72 68.5t63.5 92.5q10 4 23 4t27 -4v-219h303q6 -15 6 -37q0 -19 -6 -35h-303v-534q0 -158 145 -158q55 0 94.5 21t87.5 63q25 -3 33 -24q-44 -79 -130 -132t-189 -53q-242 0 -242 293v524h-123q-4 18 -4 23z" />
<glyph unicode="u" horiz-adv-x="1245" d="M55 864q0 7 4 23l72 -4t57 -3t39 -1q15 0 35 1t54.5 3t66.5 4q18 -6 29 -31q-1 -8 -3.5 -23.5t-4 -37t-1.5 -52.5l-2 -475q0 -180 109 -180q101 0 287 133q0 298 -9 522q0 18 -7 32t-21.5 24t-26 16.5t-33.5 12t-31 7t-30 5.5q-4 16 -4 24q0 7 4 23q35 -2 71.5 -4 t57.5 -3t39 -1q15 0 35 1t54.5 3t66.5 4q5 -3 8.5 -5.5t6 -6t3.5 -5t3 -7t3 -7.5q-8 -54 -8 -113q-6 -147 -6 -239q0 -48 2 -161t2 -198q57 -33 192 -41q5 -25 5 -26q0 -6 -5 -21q-189 -18 -338 -82q-26 11 -34 27v156q-100 -86 -188.5 -136.5t-178.5 -50.5 q-114 0 -161.5 64t-49.5 201l-8 507h-2q0 18 -6.5 32t-21 24t-26.5 16.5t-34 12t-31 7t-31 5.5q-4 16 -4 24z" />
<glyph unicode="v" horiz-adv-x="977" d="M-41 862q0 15 4 25q132 -6 266 -6q113 0 242 6q4 -16 4 -25q0 -6 -4 -22q-28 -2 -45.5 -4.5t-43.5 -8.5t-39 -18t-13 -29q0 -9 8 -37l182 -505h6l213 505q11 27 11 43q0 46 -115 54q-4 16 -4 22q0 9 4 25q117 -6 145 -6q84 0 213 6q4 -12 4 -21q0 -6 -4 -26 q-119 -5 -162 -97l-342 -772h-49l-303 772q-10 26 -29.5 44.5t-50 29t-47 14.5t-47.5 9q-4 8 -4 22z" />
<glyph unicode="w" horiz-adv-x="1485" d="M-41 862q0 15 4 25q126 -6 250 -6q90 0 213 6q4 -16 4 -25q0 -6 -4 -22q-24 -2 -40 -4.5t-36 -8.5t-30.5 -18t-10.5 -29q0 -9 8 -37l205 -510h4l183 402l-41 108q-10 26 -26 44.5t-39 28.5t-39.5 15t-41.5 9q-4 8 -4 22q0 15 4 25q126 -6 232 -6q104 0 227 6q4 -16 4 -25 q0 -6 -4 -22q-27 -2 -43 -4.5t-40.5 -8.5t-37 -18t-12.5 -29q0 -9 8 -37l184 -510h4l216 510q10 25 10 43q0 45 -109 54q-4 16 -4 22q0 9 4 25q111 -6 137 -6q80 0 203 6q4 -12 4 -21q0 -6 -4 -26q-116 -5 -153 -97l-336 -772h-47l-217 561l-254 -561h-48l-317 772 q-11 25 -30.5 43.5t-46.5 29t-44.5 15t-44.5 9.5q-4 8 -4 22z" />
<glyph unicode="x" horiz-adv-x="1010" d="M0 14q0 7 4 27q44 2 82 19t57.5 33.5t44.5 43.5l234 289l-229 317q-24 29 -46.5 48t-48 28.5t-38 12.5t-42.5 8q-4 8 -4 22q0 15 4 25q132 -6 256 -6q93 0 222 6q4 -16 4 -25q0 -6 -4 -22q-25 -2 -41.5 -4.5t-35.5 -8t-28.5 -16.5t-9.5 -27q0 -9 2.5 -17.5t6 -15 t3.5 -8.5l154 -215l162 215q22 31 22 43q0 51 -102 54q-4 16 -4 22q0 9 4 25q117 -6 145 -6q84 0 213 6q4 -12 4 -21q0 -6 -4 -26q-44 -2 -82 -19.5t-56.5 -33.5t-45.5 -44l-213 -272l241 -334q24 -29 46.5 -48t47.5 -28.5t38.5 -12.5t42.5 -7q4 -8 4 -23q0 -14 -4 -24 q-132 6 -256 6q-93 0 -222 -6q-4 16 -4 24q0 7 4 23q35 3 55.5 6t40 15.5t19.5 33.5t-12 41l-166 230l-182 -230q-23 -28 -23 -43q0 -50 102 -53q5 -13 5 -23q0 -11 -5 -24q-114 6 -145 6q-84 0 -213 -6q-4 12 -4 20z" />
<glyph unicode="y" horiz-adv-x="926" d="M-72 862q0 15 4 25q132 -6 267 -6q123 0 252 6q4 -16 4 -25q0 -6 -4 -22q-30 -2 -48 -4.5t-46.5 -8.5t-43 -18t-14.5 -29q0 -9 8 -37l203 -505h6l193 505q10 25 10 43q0 46 -115 54q-4 16 -4 22q0 9 4 25q117 -6 146 -6q84 0 213 6q4 -12 4 -21q0 -6 -4 -26 q-125 -5 -162 -97l-309 -739h2l-111 -291q-62 -162 -115.5 -219t-136.5 -57q-67 0 -111.5 40t-44.5 105q0 59 33 93t82 34q45 0 69.5 -27t24.5 -61q0 -48 -43 -76q5 -22 33 -22q32 0 60 36.5t73 155.5l111 285l-312 743q-11 25 -31 43.5t-48.5 29t-47.5 15t-47 9.5 q-4 8 -4 22z" />
<glyph unicode="z" horiz-adv-x="952" d="M82 35l524 790h-133q-226 0 -328 -207q-7 0 -24.5 7t-22.5 12l70 250q144 -8 307 -8q178 0 326 8q18 -19 18 -37l-516 -778h221q53 0 95.5 12.5t71 29.5t58.5 53.5t47.5 64.5t49.5 83q18 0 35 -8l-64 -313q-175 6 -350 6q-184 0 -358 -6q-19 11 -27 41z" />
<glyph unicode="{" horiz-adv-x="807" d="M102 559v90q49 7 88 25.5t64 42.5t43 58t27.5 64t14.5 69.5t6 65t1 60.5q0 22 -3 95t-3 102q0 36 1 58.5t4.5 56.5t11 56.5t21 52t33.5 49.5t49.5 42.5t67.5 38t89.5 29.5t113.5 22l14 -49q-35 -4 -67.5 -17t-63 -36t-49 -63.5t-18.5 -92.5q0 -33 8 -135.5t8 -169.5 q0 -31 -1.5 -55.5t-8.5 -64.5t-19.5 -73t-37 -74.5t-58 -75t-85.5 -67.5t-117 -59q65 -25 117 -59t85.5 -67.5t58 -74.5t37 -74t19.5 -73.5t8.5 -65t1.5 -55.5q0 -67 -8 -169.5t-8 -135.5q0 -52 18.5 -92t49 -63.5t63 -36.5t67.5 -17l-14 -49q-62 8 -113.5 22t-89.5 29.5 t-67.5 38t-49.5 42.5t-33.5 49.5t-21 52t-11 56.5t-4.5 56.5t-1 58.5q0 29 3 102t3 95q0 35 -1 60.5t-6 65t-14.5 69.5t-27.5 64t-43 58t-64 42.5t-88 25.5z" />
<glyph unicode="|" horiz-adv-x="444" d="M164 -477v2294h117v-2294h-117z" />
<glyph unicode="}" horiz-adv-x="807" d="M61 -379q35 4 68 17t63.5 36.5t49 63.5t18.5 92q0 33 -8 135.5t-8 169.5q0 31 1.5 55.5t8.5 65t19.5 73.5t37 74t58 74.5t85.5 67.5t117 59q-65 25 -117 59t-85.5 67.5t-58 75t-37 74.5t-19.5 73t-8.5 64.5t-1.5 55.5q0 67 8 169.5t8 135.5q0 52 -18.5 92.5t-49.5 63.5 t-63.5 36t-67.5 17l15 49q62 -8 113.5 -22t89.5 -29.5t67.5 -38t49.5 -42.5t33.5 -49.5t21 -52t11 -56.5t4.5 -56.5t1 -58.5q0 -29 -3 -102t-3 -95q0 -35 1 -60.5t6 -65t14.5 -69.5t27.5 -64t43 -58t64 -42.5t88 -25.5v-90q-49 -7 -88 -25.5t-64 -42.5t-43 -58t-27.5 -64 t-14.5 -69.5t-6 -65t-1 -60.5q0 -22 3 -95t3 -102q0 -36 -1 -58.5t-4.5 -56.5t-11 -56.5t-21 -52t-33.5 -49.5t-49.5 -42.5t-67.5 -38t-89.5 -29.5t-113.5 -22z" />
<glyph unicode="~" horiz-adv-x="1378" d="M164 401q13 35 29 68t47.5 77.5t67 77t89.5 55.5t115 23q114 0 287 -90q93 -45 155 -45q135 0 179 160h81q-32 -148 -128.5 -237t-215.5 -89q-83 0 -208 60q-17 8 -57.5 27t-62 28t-54.5 18t-60 9q-65 0 -107 -35.5t-77 -106.5h-80z" />
<glyph unicode="&#xa1;" horiz-adv-x="717" d="M231 86q0 69 33 363t47 536l8 141h78l6 -141q10 -255 46 -548.5t36 -350.5q0 -36 -14 -61t-37 -35.5t-40.5 -14.5t-35.5 -4q-17 0 -35 4t-40.5 14.5t-37 35.5t-14.5 61zM233 1378q0 52 36.5 88.5t88.5 36.5t88.5 -36.5t36.5 -88.5t-36.5 -88.5t-88.5 -36.5t-88.5 36.5 t-36.5 88.5z" />
<glyph unicode="&#xa2;" d="M154 424q0 196 106 325t277 154v148h77v-142q140 -2 231 -62.5t91 -152.5q0 -53 -35 -88t-86 -35q-54 0 -81 29.5t-27 73.5q0 81 65 98q-6 22 -48 46.5t-110 25.5v-752q50 0 94.5 13t72 27.5t58 43t41.5 42t33 42.5q26 -5 39 -22q-45 -121 -136 -187t-202 -78v-137h-77 v137q-74 5 -140 33.5t-122 81t-88.5 139t-32.5 197.5zM356 424q0 -118 44.5 -203.5t136.5 -114.5v728q-181 -58 -181 -410z" />
<glyph unicode="&#xa3;" d="M-63 14q0 7 4 27q39 4 63.5 8.5t61 14.5t55.5 28.5t20 44.5q11 286 11 563q-69 0 -203 -4v84q101 -6 203 -6v64q0 124 16.5 224.5t43.5 168.5t67.5 118.5t82 79.5t94 46t96 22.5t95.5 5.5q82 0 135 -9t106 -24t97 -22q-12 -58 -12 -125q0 -103 26 -217q-1 -5 -8.5 -7.5 t-20 -3.5t-14.5 -1q-52 160 -83 214q-54 95 -149 116q-35 8 -77 8q-57 0 -102.5 -17.5t-76.5 -46t-53.5 -74.5t-35 -92.5t-20 -112t-9.5 -121.5t-2 -130v-64q236 0 367 6v-84q-131 4 -367 4v-6q0 -282 8 -633h211q87 8 155.5 29t114 48.5t84 71t61.5 83t50 96.5 q4 -2 10.5 -3.5t10 -2.5t7 -3.5t5.5 -6.5q-81 -176 -102 -373h-607q-247 0 -415 -6q-4 12 -4 20z" />
<glyph unicode="&#xa4;" d="M49 293l148 147q-88 125 -88 256q0 141 88 254l-148 148l82 80l143 -148q119 86 258 86q150 0 254 -84l146 146l84 -80l-148 -146q86 -100 86 -256q0 -148 -88 -256l150 -147l-84 -80l-146 147q-55 -45 -123.5 -66.5t-130.5 -21.5q-130 0 -258 88l-143 -147zM223 696 q0 -129 90 -220t219 -91t219.5 91t90.5 220t-90 219.5t-220 90.5q-129 0 -219 -90.5t-90 -219.5z" />
<glyph unicode="&#xa5;" d="M-63 1448q0 10 4 22q212 -8 301 -8q150 0 293 8q4 -16 4 -22q0 -11 -4 -25q-106 -5 -148.5 -20.5t-42.5 -52.5q0 -17 10 -43l236 -553h12l256 559q12 20 12 41q0 32 -33.5 46.5t-105.5 22.5q-4 22 -4 27q0 8 4 20q123 -6 209 -6q78 0 184 6q4 -12 4 -20q0 -16 -4 -27 q-116 -12 -166 -110l-292 -596q129 0 258 6v-84q-198 4 -295 4v-123q147 0 295 6v-84q-198 4 -295 4q4 -200 8 -309q1 -26 21.5 -44.5t60 -28.5t67 -14.5t70.5 -8.5q4 -12 4 -27q0 -8 -4 -20q-159 6 -328 6q-166 0 -325 -6q-4 12 -4 20q0 17 4 27q43 4 70.5 8.5t67 14.5 t60 28.5t21.5 44.5q4 109 8 309q-95 0 -293 -4v84q149 -6 295 -6v123q-97 0 -295 -4v84q129 -6 262 -6l-274 610q-37 51 -78 70t-106 26q-4 18 -4 25z" />
<glyph unicode="&#xa6;" horiz-adv-x="444" d="M164 475h117v-952h-117v952zM164 864v953h117v-953h-117z" />
<glyph unicode="&#xa7;" horiz-adv-x="1233" d="M164 633q0 103 55.5 179.5t173.5 145.5q-33 39 -56 80.5t-31.5 76.5t-11.5 54.5t-3 34.5q0 131 91 215t247 84q149 0 246.5 -74.5t97.5 -173.5q0 -53 -29.5 -84.5t-91.5 -31.5q-44 0 -72 29t-28 71q0 33 16 60.5t43 39.5q-24 46 -72.5 69.5t-109.5 23.5 q-84 0 -141.5 -47.5t-57.5 -110.5q0 -126 135 -232l236 -188q50 -39 79 -63.5t70 -65.5t63 -75.5t39 -80t17 -92.5q0 -60 -22.5 -115.5t-60 -98t-74.5 -72.5t-78 -54q98 -102 98 -239q0 -132 -101.5 -229t-242.5 -97q-148 0 -241 74t-93 174q0 53 29.5 85t91.5 32 q43 0 71.5 -29.5t28.5 -71.5q0 -33 -16 -60.5t-43 -39.5q47 -92 172 -92q42 0 87.5 18t82.5 63t37 107q0 70 -42.5 127.5t-127.5 130.5l-283 236q-37 30 -63 56t-55 64.5t-44.5 86t-15.5 100.5zM301 717q0 -38 13 -72.5t41.5 -68t47.5 -51.5t58 -52l325 -280q144 86 144 210 q0 36 -14 70t-43.5 67.5t-55 57t-69.5 59.5l-297 250q-150 -80 -150 -190z" />
<glyph unicode="&#xa8;" horiz-adv-x="1124" d="M256 1239q0 50 35 84.5t86 34.5q49 0 84 -35t35 -84q0 -51 -35 -86t-84 -35q-51 0 -86 35t-35 86zM629 1239q0 49 34.5 84t84.5 35t85 -34.5t35 -84.5q0 -51 -35 -86t-85 -35t-84.5 35t-34.5 86z" />
<glyph unicode="&#xa9;" horiz-adv-x="1862" d="M102 791q0 168 65.5 321t176.5 264t265 176.5t323 65.5q168 0 321.5 -65.5t264 -176.5t176 -264t65.5 -321q0 -135 -41.5 -262t-118 -229t-178.5 -178.5t-228 -118.5t-261 -42t-262 42t-229 118.5t-178.5 178.5t-118.5 229t-42 262zM201 791q0 -157 60.5 -295t161 -233.5 t233.5 -150.5t276 -55q142 0 275 55.5t233.5 151t161.5 233.5t61 294q0 153 -61 290.5t-161.5 233t-233.5 151.5t-275 56q-143 0 -276 -55t-233.5 -150t-161 -232.5t-60.5 -293.5zM500 788q0 204 118 331.5t306 127.5q52 0 94 -4.5t65 -9.5t66.5 -16t73.5 -17q-2 -12 -2 -39 q0 -108 39 -225l-31 -10q-62 147 -136 206.5t-163 59.5q-50 0 -90 -17t-65.5 -43t-44.5 -64.5t-28 -72t-14.5 -76.5t-6.5 -68.5t-1 -55.5q0 -195 76 -286t209 -91q149 0 286 127l33 -31q-57 -61 -129 -101t-128 -53.5t-105 -13.5q-78 0 -142.5 19.5t-107 50.5t-75.5 73 t-50.5 82.5t-29 85t-14.5 75t-3 56.5z" />
<glyph unicode="&#xaa;" horiz-adv-x="819" d="M78 881q0 107 84.5 162.5t331.5 119.5v115q0 85 -38 126.5t-100 41.5q-55 0 -93 -22t-46 -52q82 -11 82 -88q0 -36 -25 -63t-69 -27q-38 0 -67 27t-29 75q0 91 81.5 150t200.5 59q139 0 195.5 -55t56.5 -188v-347q0 -45 35 -45q21 0 70 66q29 -3 40 -27 q-4 -6 -22.5 -33.5t-25 -36.5t-23.5 -30.5t-28 -30t-27.5 -20.5t-33 -16.5t-34.5 -4.5q-41 0 -67.5 29.5t-32.5 91.5q-29 -29 -45 -42.5t-50.5 -39.5t-71 -38.5t-75.5 -12.5q-53 0 -90 16.5t-54 43t-23.5 49.5t-6.5 47zM246 920q0 -43 23.5 -67t60.5 -24q82 0 164 107v174 q-101 -23 -157 -52.5t-73.5 -60.5t-17.5 -77z" />
<glyph unicode="&#xab;" horiz-adv-x="1114" d="M162 424l352 379l57 -45l-213 -334l213 -334l-57 -47zM541 424l352 379l57 -45l-211 -334l211 -334l-57 -47z" />
<glyph unicode="&#xac;" horiz-adv-x="1604" d="M164 414v112h1276v-354h-115v242h-1161z" />
<glyph unicode="&#xad;" horiz-adv-x="936" d="M164 412v125h608v-125h-608z" />
<glyph unicode="&#xae;" horiz-adv-x="1862" d="M102 791q0 168 65.5 321t176.5 264t265 176.5t323 65.5q168 0 321.5 -65.5t264 -176.5t176 -264t65.5 -321q0 -135 -41.5 -262t-118 -229t-178.5 -178.5t-228 -118.5t-261 -42t-262 42t-229 118.5t-178.5 178.5t-118.5 229t-42 262zM201 791q0 -157 60.5 -295t161 -233.5 t233.5 -150.5t276 -55q142 0 275 55.5t233.5 151t161.5 233.5t61 294q0 153 -61 290.5t-161.5 233t-233.5 151.5t-275 56q-143 0 -276 -55t-233.5 -150t-161 -232.5t-60.5 -293.5zM500 367q0 10 4 18q135 11 135 55q10 212 10 379q0 112 -8 334q-7 45 -135 55q-4 9 -4 19 q0 2 6 14q130 -4 215 -4q28 0 99 2t124 2q138 0 217.5 -67t79.5 -175q0 -85 -52 -154t-140 -100q24 -43 110 -159q67 -90 129 -142t133 -59q4 -8 4 -16q0 -9 -2 -17q-41 2 -133 2q-90 0 -131 -2q-133 153 -256 373q-60 0 -110 10q0 -143 6 -295q7 -45 137 -55q4 -8 4 -18 q0 -7 -4 -15q-136 4 -215 4q-87 0 -221 -4q0 1 -1 6.5t-1 8.5zM795 786q39 -12 100 -12q62 0 102.5 36t55 84t14.5 105q0 88 -44.5 143.5t-131.5 55.5q-70 0 -90 -2q-6 -185 -6 -410z" />
<glyph unicode="&#xaf;" horiz-adv-x="1106" d="M236 1163v123h634v-123h-634z" />
<glyph unicode="&#xb0;" horiz-adv-x="791" d="M164 1280q0 95 68.5 163t162.5 68t163 -68t69 -163q0 -96 -68.5 -162.5t-163.5 -66.5t-163 66.5t-68 162.5zM250 1280q0 -56 42 -100.5t103 -44.5q57 0 101.5 43.5t44.5 101.5q0 55 -40.5 100t-105.5 45q-67 0 -106 -46.5t-39 -98.5z" />
<glyph unicode="&#xb1;" horiz-adv-x="1464" d="M164 121v115h1136v-115h-1136zM164 735v115h510v410h117v-410h509v-115h-509v-407h-117v407h-510z" />
<glyph unicode="&#xb2;" horiz-adv-x="717" d="M57 797l269 217q68 55 96.5 107.5t28.5 140.5q0 78 -42 112.5t-98 34.5q-59 0 -91 -37t-32 -106q0 -42 13 -77t26 -49l13 -14q-7 -25 -33 -28q-4 2 -11.5 5.5t-26.5 18.5t-33 34t-26 53t-12 73q0 108 69 164.5t183 56.5q121 0 191.5 -61.5t70.5 -165.5q0 -37 -11.5 -73 t-27 -61t-41.5 -52t-43 -41.5t-43 -34.5l-184 -148v-8h156q51 0 98.5 41t71.5 86q22 0 35 -12l-50 -240h-491q-18 15 -25 64z" />
<glyph unicode="&#xb3;" horiz-adv-x="717" d="M66 858q0 37 23 65.5t61 28.5q100 0 100 -78q0 -24 -8 -36.5t-31 -26.5q6 -9 26.5 -18t49.5 -9q77 0 125.5 49t48.5 142q0 62 -36 89.5t-89 27.5q-41 0 -80 -17l-27 55l84 27q115 37 115 152q0 40 -32 70t-83 30q-60 0 -87 -30t-27 -70q0 -43 8 -68q-4 -7 -6.5 -10 t-11.5 -7t-25 -7q-28 34 -38.5 56t-10.5 50q0 81 61.5 130.5t192.5 49.5q98 0 165.5 -46t67.5 -128q0 -123 -143 -162v-2q76 -13 126 -57t50 -119q0 -79 -52.5 -141t-127 -92.5t-152.5 -30.5q-68 0 -117.5 13.5t-74 35.5t-35 43t-10.5 41z" />
<glyph unicode="&#xb4;" horiz-adv-x="1382" d="M481 1120l242 301q41 47 92 47q38 0 62 -23.5t24 -62.5q0 -41 -37 -73q-14 -13 -71 -49l-283 -177z" />
<glyph unicode="&#xb5;" horiz-adv-x="1245" d="M55 864q0 7 4 23l72 -4t57 -3t39 -1q15 0 35 1t54.5 3t66.5 4q18 -6 29 -31q-9 -126 -11 -539q0 -98 53 -159.5t113 -61.5q99 0 230 117q0 304 -9 530q0 18 -7 32t-21.5 24t-26 16.5t-33.5 12t-31 7t-30 5.5q-4 16 -4 24q0 7 4 23q35 -2 71.5 -4t57.5 -3t39 -1q15 0 35 1 t54.5 3t66.5 4q5 -3 8.5 -5.5t6 -6t3.5 -5t3 -7t3 -7.5q-14 -123 -14 -352q0 -48 2 -161t2 -198q57 -33 192 -41q5 -25 5 -26q0 -6 -5 -21q-189 -18 -338 -82q-26 11 -34 27v135q-68 -83 -128.5 -122.5t-150.5 -39.5q-79 0 -128.5 30t-76.5 114h-12q3 -115 23.5 -216 t38.5 -175t18 -129q0 -90 -36.5 -127t-80.5 -37q-47 0 -83 39t-36 116q0 65 18 154.5t37 216t21 277.5l-10 505h-2q0 18 -6.5 32t-21 24t-26.5 16.5t-34 12t-31 7t-31 5.5q-4 16 -4 24z" />
<glyph unicode="&#xb6;" horiz-adv-x="1331" d="M123 1198q0 305 369 305h655v-73h-129v-1887h-131v1887h-228v-1887h-133v1346q-35 0 -67.5 2.5t-74 10.5t-76.5 21.5t-70.5 37t-60 55t-39.5 78.5t-15 104z" />
<glyph unicode="&#xb7;" horiz-adv-x="578" d="M164 752q0 52 36.5 88.5t88.5 36.5t88.5 -36.5t36.5 -88.5t-36.5 -88.5t-88.5 -36.5q-53 0 -89 36.5t-36 88.5z" />
<glyph unicode="&#xb8;" horiz-adv-x="1055" d="M317 -334l27 31q45 -47 131 -47q50 0 79.5 26.5t29.5 67.5q0 40 -25.5 61t-71.5 21q-44 0 -96 -14l58 188h92l-37 -113q28 4 65 4q78 0 123 -37t45 -106q0 -72 -60.5 -124t-166.5 -52q-132 0 -193 94z" />
<glyph unicode="&#xb9;" horiz-adv-x="717" d="M145 752q0 8 5 18q28 4 43 6.5t41.5 10.5t39.5 22.5t13 34.5q2 74 2 258v74q0 110 -2 184q0 19 -12.5 33t-35 21.5t-40.5 11.5t-41 7q-6 1 -8 1q-5 10 -5 18t5 18q65 -4 206 -4q144 0 211 4q4 -4 4 -18q0 -12 -4 -18q-76 -13 -101 -34q-19 -16 -20 -40q-6 -141 -6 -258 t6 -258q1 -20 13 -34.5t35 -22.5t36 -10.5t37 -6.5q4 -6 4 -18q0 -15 -4 -19q-67 4 -211 4q-141 0 -206 -4q-5 10 -5 19z" />
<glyph unicode="&#xba;" horiz-adv-x="819" d="M53 1114q0 172 96.5 280.5t260.5 108.5t260 -108.5t96 -280.5t-96 -280.5t-260 -108.5t-260.5 108.5t-96.5 280.5zM225 1114q0 -171 50.5 -252.5t134.5 -81.5q85 0 135.5 81.5t50.5 252.5t-50.5 252.5t-135.5 81.5q-84 0 -134.5 -81.5t-50.5 -252.5z" />
<glyph unicode="&#xbb;" horiz-adv-x="1116" d="M164 90l213 334l-213 334l57 45l352 -379l-352 -381zM543 90l213 334l-213 334l59 45l350 -379l-350 -381z" />
<glyph unicode="&#xbc;" horiz-adv-x="1597" d="M152 752q0 6 4 18q28 4 43 6.5t41.5 10.5t39.5 22.5t13 34.5q2 74 2 184v148q0 110 -2 184q0 19 -12.5 33t-35 21.5t-40.5 11.5t-41 7q-6 1 -8 1q-4 12 -4 18t4 18q65 -4 206 -4q144 0 211 4q5 -4 5 -18q0 -12 -5 -18q-76 -13 -100 -33q-19 -17 -20 -41q-7 -165 -7 -258 q0 -94 7 -258q1 -20 12.5 -34.5t34.5 -22.5t36 -10.5t37 -6.5q5 -6 5 -18q0 -15 -5 -19q-67 4 -211 4q-141 0 -206 -4q-4 12 -4 19zM354 -111l738 1676l96 -25l-742 -1675zM846 201v43l426 493h63v-446h111v-90h-111v-201h-157v201h-332zM971 291h207v223z" />
<glyph unicode="&#xbd;" horiz-adv-x="1597" d="M152 752q0 6 4 18q28 4 43 6.5t41.5 10.5t39.5 22.5t13 34.5q2 74 2 184v148q0 110 -2 184q0 19 -12.5 33t-35 21.5t-40.5 11.5t-41 7q-6 1 -8 1q-4 12 -4 18t4 18q65 -4 206 -4q144 0 211 4q5 -4 5 -18q0 -12 -5 -18q-76 -13 -100 -33q-19 -17 -20 -41q-7 -165 -7 -258 q0 -94 7 -258q0 -20 11.5 -34.5t34.5 -22.5t36 -10.5t38 -6.5q5 -6 5 -18q0 -15 -5 -19q-67 4 -211 4q-141 0 -206 -4q-4 12 -4 19zM354 -111l738 1676l96 -25l-742 -1675zM913 63l269 218q68 55 96.5 107.5t28.5 139.5q0 78 -42 113t-98 35q-58 0 -90.5 -37.5t-32.5 -106.5 q0 -42 13 -76.5t26 -48.5l13 -14q-7 -25 -33 -28q-4 2 -11.5 5.5t-26.5 18.5t-33 34t-26 53t-12 73q0 108 69.5 164.5t182.5 56.5q121 0 191.5 -61.5t70.5 -165.5q0 -46 -15 -87t-44.5 -75.5t-50.5 -53.5t-55 -46l-185 -148v-8h156q51 0 98.5 41t71.5 86q22 0 35 -12 l-49 -240h-492q-16 13 -25 63z" />
<glyph unicode="&#xbe;" horiz-adv-x="1597" d="M88 858q0 36 23 65t61 29q100 0 100 -78q0 -24 -8 -36.5t-31 -26.5q19 -27 76 -27q78 0 126 49t48 142q0 62 -36 89.5t-89 27.5q-42 0 -79 -17l-27 55l84 27q115 37 115 152q0 40 -32 70t-83 30q-60 0 -87.5 -30t-27.5 -70q0 -43 8 -68q-4 -7 -6.5 -10t-11.5 -7t-25 -7 q-28 35 -38.5 56.5t-10.5 49.5q0 81 61.5 130.5t192.5 49.5q98 0 166 -46t68 -128q0 -58 -35.5 -100t-108.5 -62v-2q76 -13 126 -57t50 -119q0 -79 -52.5 -141t-127 -92.5t-151.5 -30.5q-68 0 -118 13.5t-74 35.5t-35 43t-11 41zM401 -111l738 1676l96 -25l-741 -1675z M868 201v43l426 493h64v-446h110v-90h-110v-201h-158v201h-332zM993 291h207v223z" />
<glyph unicode="&#xbf;" horiz-adv-x="1030" d="M102 301q0 40 6 76t20.5 68t27.5 57t38.5 53t41 44.5t47.5 41.5t46 35.5t48 34.5q91 65 146 146t55 159v110h77v-141q0 -124 -33 -194.5t-122 -151.5q-35 -32 -57.5 -57t-51.5 -70t-44 -103.5t-15 -129.5q0 -43 10.5 -82t34 -74.5t67.5 -56.5t103 -21q104 0 165.5 39.5 t61.5 75.5q-61 25 -61 92q0 47 31.5 78.5t80.5 31.5q58 0 90.5 -31t32.5 -91q0 -46 -25 -92.5t-73 -86.5t-127.5 -65t-177.5 -25q-123 0 -221.5 36.5t-160 112.5t-61.5 181zM496 1393q0 46 32 78t78 32t78.5 -32t32.5 -78q0 -47 -32.5 -79t-78.5 -32t-78 32.5t-32 78.5z" />
<glyph unicode="&#xc0;" horiz-adv-x="1628" d="M31 16q0 13 4 25q208 24 237 102l430 1084l-22 59q57 38 79.5 82t31.5 117q15 11 32 14l547 -1366q10 -25 33 -42.5t57.5 -27t60 -14t62.5 -8.5q4 -16 4 -27q0 -12 -4 -22q-216 8 -323 8q-116 0 -336 -8q-4 12 -4 24q0 13 4 25q202 22 202 76q0 17 -4 35l-145 372 q-66 2 -178 2q-53 0 -275 -4l-153 -389v-12q0 -10 3.5 -19t12 -16t16.5 -12t22.5 -9.5t25 -7t29 -5.5t28.5 -4.5t29.5 -3.5t27.5 -3q4 -16 4 -27q0 -6 -4 -22q-224 8 -252 8q-54 0 -278 -8q-4 12 -4 24zM492 1968q0 39 24 62.5t62 23.5q51 0 92 -47l242 -301l-29 -37 l-283 177q-57 36 -71 49q-37 32 -37 73zM559 608q94 -4 240 -4q92 0 145 2l-190 492h-4z" />
<glyph unicode="&#xc1;" horiz-adv-x="1628" d="M31 16q0 13 4 25q208 24 237 102l430 1084l-22 59q57 38 79.5 82t31.5 117q15 11 32 14l547 -1366q10 -25 33 -42.5t57.5 -27t60 -14t62.5 -8.5q4 -16 4 -27q0 -12 -4 -22q-216 8 -323 8q-116 0 -336 -8q-4 12 -4 24q0 13 4 25q202 22 202 76q0 17 -4 35l-145 372 q-66 2 -178 2q-53 0 -275 -4l-153 -389v-12q0 -10 3.5 -19t12 -16t16.5 -12t22.5 -9.5t25 -7t29 -5.5t28.5 -4.5t29.5 -3.5t27.5 -3q4 -16 4 -27q0 -6 -4 -22q-224 8 -252 8q-54 0 -278 -8q-4 12 -4 24zM559 608q94 -4 240 -4q92 0 145 2l-190 492h-4zM696 1706l242 301 q41 47 92 47q38 0 62 -23.5t24 -62.5q0 -41 -37 -73q-14 -13 -71 -49l-283 -177z" />
<glyph unicode="&#xc2;" horiz-adv-x="1628" d="M31 16q0 13 4 25q208 24 237 102l430 1084l-22 59q57 38 79.5 82t31.5 117q15 11 32 14l547 -1366q10 -25 33 -42.5t57.5 -27t60 -14t62.5 -8.5q4 -16 4 -27q0 -12 -4 -22q-216 8 -323 8q-116 0 -336 -8q-4 12 -4 24q0 13 4 25q202 22 202 76q0 17 -4 35l-145 372 q-66 2 -178 2q-53 0 -275 -4l-153 -389v-12q0 -10 3.5 -19t12 -16t16.5 -12t22.5 -9.5t25 -7t29 -5.5t28.5 -4.5t29.5 -3.5t27.5 -3q4 -16 4 -27q0 -6 -4 -22q-224 8 -252 8q-54 0 -278 -8q-4 12 -4 24zM490 1653l256 332h118l256 -332h-73l-242 178l-242 -178h-73zM559 608 q94 -4 240 -4q92 0 145 2l-190 492h-4z" />
<glyph unicode="&#xc3;" horiz-adv-x="1628" d="M31 16q0 13 4 25q208 24 237 102l430 1084l-22 59q57 38 79.5 82t31.5 117q15 11 32 14l547 -1366q10 -25 33 -42.5t57.5 -27t60 -14t62.5 -8.5q4 -16 4 -27q0 -12 -4 -22q-216 8 -323 8q-116 0 -336 -8q-4 12 -4 24q0 13 4 25q202 22 202 76q0 17 -4 35l-145 372 q-66 2 -178 2q-53 0 -275 -4l-153 -389v-12q0 -10 3.5 -19t12 -16t16.5 -12t22.5 -9.5t25 -7t29 -5.5t28.5 -4.5t29.5 -3.5t27.5 -3q4 -16 4 -27q0 -6 -4 -22q-224 8 -252 8q-54 0 -278 -8q-4 12 -4 24zM492 1714q80 201 215 201q48 0 152.5 -30.5t135.5 -30.5q33 0 62 18 t41 55h61q-65 -213 -223 -213q-19 0 -42.5 4t-40 8t-45 12t-40.5 11q-67 27 -109 27q-64 0 -112 -62h-55zM559 608q94 -4 240 -4q92 0 145 2l-190 492h-4z" />
<glyph unicode="&#xc4;" horiz-adv-x="1628" d="M31 16q0 13 4 25q208 24 237 102l430 1084l-22 59q57 38 79.5 82t31.5 117q15 11 32 14l547 -1366q10 -25 33 -42.5t57.5 -27t60 -14t62.5 -8.5q4 -16 4 -27q0 -12 -4 -22q-216 8 -323 8q-116 0 -336 -8q-4 12 -4 24q0 13 4 25q202 22 202 76q0 17 -4 35l-145 372 q-66 2 -178 2q-53 0 -275 -4l-153 -389v-12q0 -10 3.5 -19t12 -16t16.5 -12t22.5 -9.5t25 -7t29 -5.5t28.5 -4.5t29.5 -3.5t27.5 -3q4 -16 4 -27q0 -6 -4 -22q-224 8 -252 8q-54 0 -278 -8q-4 12 -4 24zM518 1825q0 50 35 84.5t86 34.5q49 0 84 -35t35 -84q0 -51 -35 -86 t-84 -35q-51 0 -86 35t-35 86zM559 608q94 -4 240 -4q92 0 145 2l-190 492h-4zM891 1825q0 49 34.5 84t84.5 35t85 -34.5t35 -84.5q0 -51 -35 -86t-85 -35t-84.5 35t-34.5 86z" />
<glyph unicode="&#xc5;" horiz-adv-x="1651" d="M31 16q0 13 4 25q208 24 237 102l430 1084l-22 59q57 38 79.5 82t31.5 117q15 11 32 14l547 -1366q10 -25 33 -42.5t57.5 -27t60 -14t62.5 -8.5q4 -16 4 -27q0 -12 -4 -22q-216 8 -323 8q-116 0 -336 -8q-4 12 -4 24q0 13 4 25q202 22 202 76q0 17 -4 35l-145 372 q-66 2 -178 2q-53 0 -275 -4l-153 -389v-12q0 -10 3.5 -19t12 -16t16.5 -12t22.5 -9.5t25 -7t29 -5.5t28.5 -4.5t29.5 -3.5t27.5 -3q4 -16 4 -27q0 -6 -4 -22q-224 8 -252 8q-54 0 -278 -8q-4 12 -4 24zM559 608q94 -4 240 -4q92 0 145 2l-190 492h-4zM621 1848 q0 93 62.5 147.5t139.5 54.5q79 0 142 -54.5t63 -147.5q0 -89 -58 -147t-147 -58q-87 0 -144.5 58t-57.5 147zM703 1846q0 -49 37.5 -85t82.5 -36q49 0 86 36.5t37 84.5q0 46 -35.5 84t-87.5 38q-49 0 -84.5 -36t-35.5 -86z" />
<glyph unicode="&#xc6;" horiz-adv-x="2298" d="M0 16q0 13 4 25q185 21 234 102l737 1250q-40 15 -166 30q-4 18 -4 25q0 6 4 22q226 -8 350 -8h115q72 1 248 1.5t298.5 1.5t247.5 5q13 -100 51 -189.5t97 -190.5q-8 -17 -35 -27q-36 68 -87 121t-128.5 100t-193 77t-263.5 40h-235q-12 -390 -12 -637h243q26 0 50 4.5 t43 11t38 20t32.5 24.5t29.5 32t26 35t25.5 41.5t23.5 43.5t24.5 48t25.5 49q31 -11 39 -26q-43 -74 -72 -163.5t-29 -150.5q0 -143 101 -313q-9 -16 -39 -27q-11 20 -30.5 57.5t-30.5 57.5t-30 51t-33.5 48t-37 38t-44.5 31.5t-50.5 18t-61.5 7.5h-243v-8q0 -195 10 -633 h278q148 10 263.5 40t193 77t128.5 100t87 121q27 -10 35 -26q-5 -10 -26 -48t-28 -51.5t-23.5 -47t-24.5 -54t-18.5 -51.5t-17 -60.5t-10.5 -60.5h-837q-272 0 -465 -6q-4 12 -4 20q0 7 4 27q46 4 74.5 8.5t70 14.5t63.5 28.5t23 44.5q10 327 13 565h-383l-326 -557 q-10 -25 -10 -32q0 -18 12 -30.5t38 -19.5t45.5 -10.5t57 -6.5t50.5 -5q4 -16 4 -27q0 -6 -4 -22q-226 8 -252 8q-53 0 -279 -8q-4 12 -4 24zM705 764h346v4q0 337 -11 567h-4z" />
<glyph unicode="&#xc7;" horiz-adv-x="1552" d="M133 729q0 123 26.5 229.5t72 184t107.5 140t130 103t143 67.5t144 38.5t135 11.5q87 0 171 -10.5t140 -23.5t127 -28.5t125 -21.5q-12 -36 -12 -127q0 -178 53 -307q-6 -18 -37 -22q-19 42 -33 71t-36.5 71.5t-42.5 72t-49.5 66t-58.5 61.5t-68 51t-80 41.5t-92 25 t-107 9.5q-78 0 -145 -23t-117 -62.5t-90 -94.5t-66 -117t-43.5 -132.5t-25 -138t-7.5 -135.5q0 -86 15 -166t45 -153t78 -132.5t111 -103.5t147.5 -68t183.5 -24q291 0 440 182q16 0 26.5 -9t10.5 -22q-57 -84 -149 -145.5t-185 -91t-186 -36.5l-24 -73q28 4 65 4 q78 0 123 -37t45 -106q0 -72 -60.5 -124t-166.5 -52q-132 0 -193 94l27 31q45 -47 131 -47q50 0 79.5 26.5t29.5 67.5q0 40 -25.5 61t-71.5 21q-44 0 -96 -14l46 149q-66 4 -132.5 18.5t-137 43.5t-133.5 70.5t-120 103t-98 137t-65 177t-24 218.5z" />
<glyph unicode="&#xc8;" horiz-adv-x="1608" d="M72 14q0 7 4 27q46 4 74.5 8.5t70 14.5t63.5 28.5t23 44.5q12 313 12 631q0 324 -10 559q-1 26 -23 44.5t-63.5 28.5t-70 14.5t-74.5 8.5q-4 18 -4 25q0 6 4 22q224 -8 350 -8h115q743 5 835 8q13 -100 51 -189.5t97 -190.5q-8 -17 -35 -27q-36 68 -87 121t-128.5 100 t-193 77t-263.5 40h-276q-13 -422 -13 -637h285q29 0 54.5 4.5t47.5 16t39.5 22t35.5 32t30 36t29 44.5t26 47t27.5 53t28.5 54q31 -12 38 -26q-42 -74 -71 -164t-29 -150q0 -142 100 -313q-8 -16 -38 -27q-11 20 -30.5 57.5t-30.5 57.5t-30 51t-33.5 48t-37 38t-44.5 31.5 t-50.5 18t-61.5 7.5h-285v-8q0 -151 11 -633h319q148 10 263.5 40t193 77t128.5 100t87 121q27 -10 35 -26q-5 -10 -26 -48t-28 -51.5t-23.5 -47t-24.5 -54t-18.5 -51.5t-17 -60.5t-10.5 -60.5h-878q-271 0 -465 -6q-4 12 -4 20zM451 1968q0 39 24 62.5t62 23.5q51 0 92 -47 l242 -301l-29 -37l-283 177q-57 36 -71 49q-37 32 -37 73z" />
<glyph unicode="&#xc9;" horiz-adv-x="1608" d="M72 14q0 7 4 27q46 4 74.5 8.5t70 14.5t63.5 28.5t23 44.5q12 313 12 631q0 324 -10 559q-1 26 -23 44.5t-63.5 28.5t-70 14.5t-74.5 8.5q-4 18 -4 25q0 6 4 22q224 -8 350 -8h115q743 5 835 8q13 -100 51 -189.5t97 -190.5q-8 -17 -35 -27q-36 68 -87 121t-128.5 100 t-193 77t-263.5 40h-276q-13 -422 -13 -637h285q29 0 54.5 4.5t47.5 16t39.5 22t35.5 32t30 36t29 44.5t26 47t27.5 53t28.5 54q31 -12 38 -26q-42 -74 -71 -164t-29 -150q0 -142 100 -313q-8 -16 -38 -27q-11 20 -30.5 57.5t-30.5 57.5t-30 51t-33.5 48t-37 38t-44.5 31.5 t-50.5 18t-61.5 7.5h-285v-8q0 -151 11 -633h319q148 10 263.5 40t193 77t128.5 100t87 121q27 -10 35 -26q-5 -10 -26 -48t-28 -51.5t-23.5 -47t-24.5 -54t-18.5 -51.5t-17 -60.5t-10.5 -60.5h-878q-271 0 -465 -6q-4 12 -4 20zM696 1706l242 301q41 47 92 47 q38 0 62 -23.5t24 -62.5q0 -41 -37 -73q-14 -13 -71 -49l-283 -177z" />
<glyph unicode="&#xca;" horiz-adv-x="1608" d="M72 14q0 7 4 27q46 4 74.5 8.5t70 14.5t63.5 28.5t23 44.5q12 313 12 631q0 324 -10 559q-1 26 -23 44.5t-63.5 28.5t-70 14.5t-74.5 8.5q-4 18 -4 25q0 6 4 22q224 -8 350 -8h115q743 5 835 8q13 -100 51 -189.5t97 -190.5q-8 -17 -35 -27q-36 68 -87 121t-128.5 100 t-193 77t-263.5 40h-276q-13 -422 -13 -637h285q29 0 54.5 4.5t47.5 16t39.5 22t35.5 32t30 36t29 44.5t26 47t27.5 53t28.5 54q31 -12 38 -26q-42 -74 -71 -164t-29 -150q0 -142 100 -313q-8 -16 -38 -27q-11 20 -30.5 57.5t-30.5 57.5t-30 51t-33.5 48t-37 38t-44.5 31.5 t-50.5 18t-61.5 7.5h-285v-8q0 -151 11 -633h319q148 10 263.5 40t193 77t128.5 100t87 121q27 -10 35 -26q-5 -10 -26 -48t-28 -51.5t-23.5 -47t-24.5 -54t-18.5 -51.5t-17 -60.5t-10.5 -60.5h-878q-271 0 -465 -6q-4 12 -4 20zM549 1653l256 332h118l256 -332h-73 l-242 178l-242 -178h-73z" />
<glyph unicode="&#xcb;" horiz-adv-x="1608" d="M72 14q0 7 4 27q46 4 74.5 8.5t70 14.5t63.5 28.5t23 44.5q12 313 12 631q0 324 -10 559q-1 26 -23 44.5t-63.5 28.5t-70 14.5t-74.5 8.5q-4 18 -4 25q0 6 4 22q224 -8 350 -8h115q743 5 835 8q13 -100 51 -189.5t97 -190.5q-8 -17 -35 -27q-36 68 -87 121t-128.5 100 t-193 77t-263.5 40h-276q-13 -422 -13 -637h285q29 0 54.5 4.5t47.5 16t39.5 22t35.5 32t30 36t29 44.5t26 47t27.5 53t28.5 54q31 -12 38 -26q-42 -74 -71 -164t-29 -150q0 -142 100 -313q-8 -16 -38 -27q-11 20 -30.5 57.5t-30.5 57.5t-30 51t-33.5 48t-37 38t-44.5 31.5 t-50.5 18t-61.5 7.5h-285v-8q0 -151 11 -633h319q148 10 263.5 40t193 77t128.5 100t87 121q27 -10 35 -26q-5 -10 -26 -48t-28 -51.5t-23.5 -47t-24.5 -54t-18.5 -51.5t-17 -60.5t-10.5 -60.5h-878q-271 0 -465 -6q-4 12 -4 20zM539 1825q0 50 35 84.5t86 34.5q49 0 84 -35 t35 -84q0 -51 -35 -86t-84 -35q-51 0 -86 35t-35 86zM912 1825q0 49 35 84t84 35q50 0 85 -34.5t35 -84.5q0 -51 -35 -86t-85 -35t-84.5 35t-34.5 86z" />
<glyph unicode="&#xcc;" horiz-adv-x="850" d="M72 14q0 17 4 27q30 3 48 5t49.5 7t51 11.5t40.5 16.5t31.5 24t10.5 32q12 313 12 631q0 324 -10 559q-1 26 -23 44.5t-63.5 28.5t-70 14.5t-74.5 8.5q-4 18 -4 25q0 10 4 22q224 -8 348 -8t348 8q4 -16 4 -22q0 -11 -4 -25q-46 -4 -74.5 -8.5t-70 -14.5t-63.5 -28.5 t-23 -44.5q-13 -340 -13 -633q0 -214 11 -557q1 -26 23 -44.5t63.5 -28.5t70 -14.5t74.5 -8.5q4 -12 4 -27q0 -8 -4 -20q-170 6 -348 6q-180 0 -348 -6q-4 12 -4 20zM154 1968q0 39 24 62.5t62 23.5q51 0 92 -47l242 -301l-29 -37l-283 177q-57 36 -71 49q-37 32 -37 73z " />
<glyph unicode="&#xcd;" horiz-adv-x="850" d="M72 14q0 17 4 27q30 3 48 5t49.5 7t51 11.5t40.5 16.5t31.5 24t10.5 32q12 313 12 631q0 324 -10 559q-1 26 -23 44.5t-63.5 28.5t-70 14.5t-74.5 8.5q-4 18 -4 25q0 10 4 22q224 -8 348 -8t348 8q4 -16 4 -22q0 -11 -4 -25q-46 -4 -74.5 -8.5t-70 -14.5t-63.5 -28.5 t-23 -44.5q-13 -340 -13 -633q0 -214 11 -557q1 -26 23 -44.5t63.5 -28.5t70 -14.5t74.5 -8.5q4 -12 4 -27q0 -8 -4 -20q-170 6 -348 6q-180 0 -348 -6q-4 12 -4 20zM276 1706l242 301q41 47 92 47q38 0 62 -23.5t24 -62.5q0 -41 -37 -73q-14 -13 -71 -49l-283 -177z" />
<glyph unicode="&#xce;" horiz-adv-x="850" d="M72 14q0 17 4 27q30 3 48 5t49.5 7t51 11.5t40.5 16.5t31.5 24t10.5 32q12 313 12 631q0 324 -10 559q-1 26 -23 44.5t-63.5 28.5t-70 14.5t-74.5 8.5q-4 18 -4 25q0 10 4 22q224 -8 348 -8t348 8q4 -16 4 -22q0 -11 -4 -25q-46 -4 -74.5 -8.5t-70 -14.5t-63.5 -28.5 t-23 -44.5q-13 -340 -13 -633q0 -214 11 -557q1 -26 23 -44.5t63.5 -28.5t70 -14.5t74.5 -8.5q4 -12 4 -27q0 -8 -4 -20q-170 6 -348 6q-180 0 -348 -6q-4 12 -4 20zM115 1653l256 332h118l256 -332h-73l-242 178l-242 -178h-73z" />
<glyph unicode="&#xcf;" horiz-adv-x="850" d="M72 14q0 17 4 27q30 3 48 5t49.5 7t51 11.5t40.5 16.5t31.5 24t10.5 32q12 313 12 631q0 324 -10 559q-1 26 -23 44.5t-63.5 28.5t-70 14.5t-74.5 8.5q-4 18 -4 25q0 10 4 22q224 -8 348 -8t348 8q4 -16 4 -22q0 -11 -4 -25q-46 -4 -74.5 -8.5t-70 -14.5t-63.5 -28.5 t-23 -44.5q-13 -340 -13 -633q0 -214 11 -557q1 -26 23 -44.5t63.5 -28.5t70 -14.5t74.5 -8.5q4 -12 4 -27q0 -8 -4 -20q-170 6 -348 6q-180 0 -348 -6q-4 12 -4 20zM119 1825q0 50 35 84.5t86 34.5q49 0 84 -35t35 -84q0 -51 -35 -86t-84 -35q-51 0 -86 35t-35 86z M492 1825q0 49 35 84t84 35q50 0 85 -34.5t35 -84.5q0 -51 -35 -86t-85 -35t-84.5 35t-34.5 86z" />
<glyph unicode="&#xd0;" horiz-adv-x="1720" d="M72 14q0 7 4 27q46 4 74.5 8.5t70 14.5t63.5 28.5t23 44.5q9 269 12 545q-81 0 -237 -4v96q77 -4 237 -8v2q0 324 -10 559q-1 26 -23 44.5t-63.5 28.5t-70 14.5t-74.5 8.5q-4 18 -4 25q0 6 4 22q224 -8 350 -8h8q250 8 307 8q93 0 175 -8t169.5 -29.5t158.5 -56 t136 -91.5t109 -132t70 -180.5t26 -233.5q-8 -123 -42.5 -226t-88 -178t-126.5 -134t-152.5 -96t-172 -61t-180 -34t-180.5 -10h-104q-271 0 -465 -6q-4 12 -4 20zM530 684q0 -213 11 -547v-63q43 -2 123 -2q162 0 288 49.5t207 138.5t122.5 210.5t41.5 268.5q0 76 -12 149 t-38 149t-72 140t-109.5 114.5t-156 79t-204.5 28.5q-103 0 -188 -13q-13 -398 -13 -620q189 0 338 8v-96q-336 6 -338 6z" />
<glyph unicode="&#xd1;" horiz-adv-x="1704" d="M61 14q0 17 5 27q221 21 221 111q12 312 12 616q0 330 -8 573q-84 73 -213 82q-6 13 -6 23q0 15 6 24q164 -8 414 -8q706 -895 811 -999l2 -2h8q4 192 4 309q0 231 -10 543q-2 90 -222 110q-4 22 -4 27q0 8 4 20q161 -6 285 -6q80 0 268 6q4 -12 4 -20q0 -16 -4 -27 q-219 -20 -221 -110q-12 -313 -12 -617q0 -465 10 -700l-18 -2l-994 1223h-10q-6 -260 -6 -523q0 -232 10 -542q2 -91 221 -111q5 -17 5 -27t-5 -20q-159 6 -284 6q-80 0 -268 -6q-5 10 -5 20zM519 1714q80 201 215 201q48 0 152.5 -30.5t135.5 -30.5q33 0 62 18t41 55h61 q-65 -213 -223 -213q-19 0 -42.5 4t-40 8t-45 12t-40.5 11q-67 27 -109 27q-64 0 -112 -62h-55z" />
<glyph unicode="&#xd2;" horiz-adv-x="1782" d="M133 729q0 127 26.5 235.5t71.5 186.5t107.5 140t130 101t143.5 64.5t144 36t135 10.5t135 -10.5t144 -36t143.5 -64.5t130 -101t107.5 -140t71.5 -186.5t26.5 -235.5t-26.5 -235.5t-71.5 -186t-107.5 -139t-130 -100t-143.5 -64t-144 -35.5t-135 -10t-135 10t-144 35.5 t-143.5 64t-130 100t-107.5 139t-71.5 186t-26.5 235.5zM397 729q0 -97 15 -190.5t51.5 -187t91 -163.5t141.5 -113.5t195 -43.5t194.5 43.5t141.5 113.5t91 163.5t51 187t15 190.5q0 68 -7.5 135.5t-25 138t-43.5 132.5t-66 117t-89.5 94.5t-116.5 62.5t-145 23 q-91 0 -166.5 -30.5t-128.5 -84t-92.5 -121.5t-62 -148.5t-33.5 -159.5t-11 -159zM578 1968q0 39 24 62.5t62 23.5q51 0 92 -47l242 -301l-29 -37l-283 177q-57 36 -71 49q-37 32 -37 73z" />
<glyph unicode="&#xd3;" horiz-adv-x="1782" d="M133 729q0 127 26.5 235.5t71.5 186.5t107.5 140t130 101t143.5 64.5t144 36t135 10.5t135 -10.5t144 -36t143.5 -64.5t130 -101t107.5 -140t71.5 -186.5t26.5 -235.5t-26.5 -235.5t-71.5 -186t-107.5 -139t-130 -100t-143.5 -64t-144 -35.5t-135 -10t-135 10t-144 35.5 t-143.5 64t-130 100t-107.5 139t-71.5 186t-26.5 235.5zM397 729q0 -97 15 -190.5t51.5 -187t91 -163.5t141.5 -113.5t195 -43.5t194.5 43.5t141.5 113.5t91 163.5t51 187t15 190.5q0 68 -7.5 135.5t-25 138t-43.5 132.5t-66 117t-89.5 94.5t-116.5 62.5t-145 23 q-91 0 -166.5 -30.5t-128.5 -84t-92.5 -121.5t-62 -148.5t-33.5 -159.5t-11 -159zM762 1706l242 301q41 47 92 47q38 0 62 -23.5t24 -62.5q0 -41 -37 -73q-14 -13 -71 -49l-283 -177z" />
<glyph unicode="&#xd4;" horiz-adv-x="1782" d="M133 729q0 127 26.5 235.5t71.5 186.5t107.5 140t130 101t143.5 64.5t144 36t135 10.5t135 -10.5t144 -36t143.5 -64.5t130 -101t107.5 -140t71.5 -186.5t26.5 -235.5t-26.5 -235.5t-71.5 -186t-107.5 -139t-130 -100t-143.5 -64t-144 -35.5t-135 -10t-135 10t-144 35.5 t-143.5 64t-130 100t-107.5 139t-71.5 186t-26.5 235.5zM397 729q0 -97 15 -190.5t51.5 -187t91 -163.5t141.5 -113.5t195 -43.5t194.5 43.5t141.5 113.5t91 163.5t51 187t15 190.5q0 68 -7.5 135.5t-25 138t-43.5 132.5t-66 117t-89.5 94.5t-116.5 62.5t-145 23 q-91 0 -166.5 -30.5t-128.5 -84t-92.5 -121.5t-62 -148.5t-33.5 -159.5t-11 -159zM580 1653l256 332h118l256 -332h-73l-242 178l-242 -178h-73z" />
<glyph unicode="&#xd5;" horiz-adv-x="1782" d="M133 729q0 127 26.5 235.5t71.5 186.5t107.5 140t130 101t143.5 64.5t144 36t135 10.5t135 -10.5t144 -36t143.5 -64.5t130 -101t107.5 -140t71.5 -186.5t26.5 -235.5t-26.5 -235.5t-71.5 -186t-107.5 -139t-130 -100t-143.5 -64t-144 -35.5t-135 -10t-135 10t-144 35.5 t-143.5 64t-130 100t-107.5 139t-71.5 186t-26.5 235.5zM397 729q0 -97 15 -190.5t51.5 -187t91 -163.5t141.5 -113.5t195 -43.5t194.5 43.5t141.5 113.5t91 163.5t51 187t15 190.5q0 68 -7.5 135.5t-25 138t-43.5 132.5t-66 117t-89.5 94.5t-116.5 62.5t-145 23 q-91 0 -166.5 -30.5t-128.5 -84t-92.5 -121.5t-62 -148.5t-33.5 -159.5t-11 -159zM562 1714q80 201 215 201q48 0 152.5 -30.5t135.5 -30.5q33 0 62 18t41 55h61q-65 -213 -223 -213q-19 0 -42.5 4t-40 8t-45 12t-40.5 11q-67 27 -109 27q-64 0 -112 -62h-55z" />
<glyph unicode="&#xd6;" horiz-adv-x="1782" d="M133 729q0 127 26.5 235.5t71.5 186.5t107.5 140t130 101t143.5 64.5t144 36t135 10.5t135 -10.5t144 -36t143.5 -64.5t130 -101t107.5 -140t71.5 -186.5t26.5 -235.5t-26.5 -235.5t-71.5 -186t-107.5 -139t-130 -100t-143.5 -64t-144 -35.5t-135 -10t-135 10t-144 35.5 t-143.5 64t-130 100t-107.5 139t-71.5 186t-26.5 235.5zM397 729q0 -97 15 -190.5t51.5 -187t91 -163.5t141.5 -113.5t195 -43.5t194.5 43.5t141.5 113.5t91 163.5t51 187t15 190.5q0 68 -7.5 135.5t-25 138t-43.5 132.5t-66 117t-89.5 94.5t-116.5 62.5t-145 23 q-91 0 -166.5 -30.5t-128.5 -84t-92.5 -121.5t-62 -148.5t-33.5 -159.5t-11 -159zM584 1825q0 50 35 84.5t86 34.5q49 0 84 -35t35 -84q0 -51 -35 -86t-84 -35q-51 0 -86 35t-35 86zM957 1825q0 49 34.5 84t84.5 35t85 -34.5t35 -84.5q0 -51 -35 -86t-85 -35t-84.5 35 t-34.5 86z" />
<glyph unicode="&#xd7;" horiz-adv-x="1464" d="M289 350l360 361l-360 362l82 80l360 -360l363 362l82 -82l-363 -362l361 -361l-80 -82l-363 361l-360 -361z" />
<glyph unicode="&#xd8;" horiz-adv-x="1782" d="M133 729q0 127 26.5 235.5t71.5 186.5t107.5 140t130 101t143.5 64.5t144 36t135 10.5q230 0 416 -108l161 225l88 -66l-159 -223q252 -206 252 -602q0 -127 -26.5 -235.5t-71.5 -186t-107.5 -139t-130 -100t-143.5 -64t-144 -35.5t-135 -10q-223 0 -408 100l-172 -241 l-88 65l170 238q-260 204 -260 608zM397 729q0 -270 103 -459l723 1006q-129 156 -332 156q-91 0 -166.5 -30.5t-128.5 -84t-92.5 -121.5t-62 -148.5t-33.5 -159.5t-11 -159zM567 174q126 -143 324 -143q108 0 194.5 43.5t141.5 113.5t91 163.5t51 187t15 190.5 q0 261 -98 449z" />
<glyph unicode="&#xd9;" horiz-adv-x="1767" d="M41 1448q0 6 4 22q169 -6 348 -6q180 0 348 6q4 -16 4 -22q0 -7 -4 -25q-30 -3 -48 -5t-49.5 -7t-51 -11.5t-40.5 -16.5t-31.5 -24t-10.5 -32q-4 -133 -4 -731q0 -285 95.5 -414t324.5 -129q231 0 356 140.5t125 402.5q0 477 -6 717q-2 90 -221 110q-4 22 -4 27q0 8 4 20 q159 -6 284 -6q80 0 269 6q4 -12 4 -20q0 -16 -4 -27q-217 -20 -222 -110q-10 -238 -10 -717q0 -146 -38 -260.5t-97 -183.5t-137.5 -114t-151.5 -62t-147 -17q-99 0 -178 11t-154 37.5t-130 74t-97 116.5t-63 169t-21 229v164q0 335 -11 567q-1 26 -23 44.5t-63.5 28.5 t-70 14.5t-74.5 8.5q-4 18 -4 25zM592 1968q0 39 24 62.5t62 23.5q51 0 92 -47l242 -301l-29 -37l-283 177q-57 36 -71 49q-37 32 -37 73z" />
<glyph unicode="&#xda;" horiz-adv-x="1767" d="M41 1448q0 6 4 22q169 -6 348 -6q180 0 348 6q4 -16 4 -22q0 -7 -4 -25q-30 -3 -48 -5t-49.5 -7t-51 -11.5t-40.5 -16.5t-31.5 -24t-10.5 -32q-4 -133 -4 -731q0 -285 95.5 -414t324.5 -129q231 0 356 140.5t125 402.5q0 477 -6 717q-2 90 -221 110q-4 22 -4 27q0 8 4 20 q159 -6 284 -6q80 0 269 6q4 -12 4 -20q0 -16 -4 -27q-217 -20 -222 -110q-10 -238 -10 -717q0 -146 -38 -260.5t-97 -183.5t-137.5 -114t-151.5 -62t-147 -17q-99 0 -178 11t-154 37.5t-130 74t-97 116.5t-63 169t-21 229v164q0 335 -11 567q-1 26 -23 44.5t-63.5 28.5 t-70 14.5t-74.5 8.5q-4 18 -4 25zM858 1706l242 301q41 47 92 47q38 0 62 -23.5t24 -62.5q0 -41 -37 -73q-14 -13 -71 -49l-283 -177z" />
<glyph unicode="&#xdb;" horiz-adv-x="1767" d="M41 1448q0 6 4 22q169 -6 348 -6q180 0 348 6q4 -16 4 -22q0 -7 -4 -25q-30 -3 -48 -5t-49.5 -7t-51 -11.5t-40.5 -16.5t-31.5 -24t-10.5 -32q-4 -133 -4 -731q0 -285 95.5 -414t324.5 -129q231 0 356 140.5t125 402.5q0 477 -6 717q-2 90 -221 110q-4 22 -4 27q0 8 4 20 q159 -6 284 -6q80 0 269 6q4 -12 4 -20q0 -16 -4 -27q-217 -20 -222 -110q-10 -238 -10 -717q0 -146 -38 -260.5t-97 -183.5t-137.5 -114t-151.5 -62t-147 -17q-99 0 -178 11t-154 37.5t-130 74t-97 116.5t-63 169t-21 229v164q0 335 -11 567q-1 26 -23 44.5t-63.5 28.5 t-70 14.5t-74.5 8.5q-4 18 -4 25zM650 1653l256 332h118l256 -332h-73l-242 178l-242 -178h-73z" />
<glyph unicode="&#xdc;" horiz-adv-x="1767" d="M41 1448q0 6 4 22q169 -6 348 -6q180 0 348 6q4 -16 4 -22q0 -7 -4 -25q-30 -3 -48 -5t-49.5 -7t-51 -11.5t-40.5 -16.5t-31.5 -24t-10.5 -32q-4 -133 -4 -731q0 -285 95.5 -414t324.5 -129q231 0 356 140.5t125 402.5q0 477 -6 717q-2 90 -221 110q-4 22 -4 27q0 8 4 20 q159 -6 284 -6q80 0 269 6q4 -12 4 -20q0 -16 -4 -27q-217 -20 -222 -110q-10 -238 -10 -717q0 -146 -38 -260.5t-97 -183.5t-137.5 -114t-151.5 -62t-147 -17q-99 0 -178 11t-154 37.5t-130 74t-97 116.5t-63 169t-21 229v164q0 335 -11 567q-1 26 -23 44.5t-63.5 28.5 t-70 14.5t-74.5 8.5q-4 18 -4 25zM659 1825q0 50 35 84.5t86 34.5q49 0 84 -35t35 -84q0 -51 -35 -86t-84 -35q-51 0 -86 35t-35 86zM1032 1825q0 49 35 84t84 35q50 0 85 -34.5t35 -84.5q0 -51 -35 -86t-85 -35t-84.5 35t-34.5 86z" />
<glyph unicode="&#xdd;" horiz-adv-x="1466" d="M0 1448q0 10 4 22q226 -8 363 -8q187 0 338 8q4 -16 4 -22q0 -11 -4 -25q-117 -5 -171.5 -21t-54.5 -52q0 -13 17 -45l307 -551h8l336 559q12 20 12 41q0 31 -39.5 45.5t-118.5 23.5q-4 22 -4 27q0 8 4 20q129 -6 234 -6q113 0 227 6q4 -12 4 -20q0 -16 -4 -27 q-73 -7 -123 -30t-86 -80l-415 -670q0 -216 10 -506q1 -26 23 -44.5t63.5 -28.5t70 -14.5t74.5 -8.5q4 -12 4 -27q0 -8 -4 -20q-168 6 -348 6q-179 0 -348 -6q-4 12 -4 20q0 17 4 27q46 4 74.5 8.5t70 14.5t63.5 28.5t23 44.5q10 251 13 506l-391 684q-39 49 -96 69t-136 27 q-4 18 -4 25zM706 1706l242 301q41 47 92 47q38 0 62 -23.5t24 -62.5q0 -41 -37 -73q-14 -13 -71 -49l-283 -177z" />
<glyph unicode="&#xde;" horiz-adv-x="1335" d="M72 14q0 17 4 27q46 4 74.5 8.5t70 14.5t63.5 28.5t23 44.5q12 313 12 631q0 324 -10 559q-1 26 -23 44.5t-63.5 28.5t-70 14.5t-74.5 8.5q-4 18 -4 25q0 10 4 22q224 -8 348 -8t348 8q4 -16 4 -22q0 -11 -4 -25q-30 -3 -48 -5t-49.5 -7t-51 -11.5t-40.5 -16.5t-31.5 -24 t-10.5 -32q-2 -25 -3 -54.5t-1.5 -65t-1.5 -54.5q93 41 264 41q207 0 329.5 -115t122.5 -307q0 -91 -29.5 -170t-86 -139.5t-146.5 -95.5t-203 -35q-151 0 -256 43q0 -9 3.5 -99.5t5.5 -138.5q1 -26 23 -44.5t63.5 -28.5t70 -14.5t74.5 -8.5q4 -12 4 -27q0 -8 -4 -20 q-170 6 -348 6q-180 0 -348 -6q-4 12 -4 20zM530 694q0 -168 2 -254q71 -22 179 -22q139 0 210.5 97t71.5 259q0 334 -272 334q-114 0 -186 -27q-5 -129 -5 -387z" />
<glyph unicode="&#xdf;" horiz-adv-x="1184" d="M61 16q0 8 5 25q33 4 53.5 8.5t51.5 14.5t47.5 28.5t17.5 44.5q4 99 4 443v542q0 102 29 178t70.5 116.5t97 65.5t97.5 31.5t84 6.5q63 0 122.5 -17t114.5 -53.5t88.5 -103.5t33.5 -156q0 -295 -248 -365v-8q161 -9 246.5 -114t85.5 -289q0 -79 -21 -156t-60 -142 t-102.5 -105t-140.5 -40q-100 0 -147 47.5t-47 110.5q0 53 28 76.5t66 23.5q35 0 61.5 -21t26.5 -58q0 -32 -12 -52.5t-43 -38.5q19 -26 61 -26q31 0 50.5 12.5t37.5 50t26.5 116.5t8.5 202q0 38 -2 68t-9.5 68.5t-20.5 68t-37 59.5t-56.5 49.5t-81.5 32t-110 12.5h-29v62 h24q61 0 106 20.5t71 53t41.5 81t20.5 95.5t5 106q0 30 -1.5 53t-6 56.5t-15.5 58.5t-27.5 48t-44 35.5t-63.5 12.5q-200 0 -200 -254v-291q0 -592 8 -772l8 -137h-115q-121 0 -253 -6q-5 13 -5 22z" />
<glyph unicode="&#xe0;" horiz-adv-x="1038" d="M133 158q0 67 22.5 113t84 86t151.5 71t242 70v139q0 101 -44.5 151t-119.5 50q-67 0 -112.5 -26.5t-55.5 -61.5q98 -15 98 -107q0 -42 -30 -74t-84 -32q-45 0 -80 31.5t-35 88.5q0 110 100.5 181t237.5 71q168 0 236.5 -67t68.5 -226v-415q0 -56 41 -56q33 0 84 80 q36 -3 49 -32q-7 -10 -24 -36t-25 -37t-25 -33.5t-27.5 -33.5t-28 -26t-32 -22.5t-33.5 -13t-38 -5.5q-50 0 -82.5 36t-38.5 111q-1 -1 -31 -29t-41.5 -37.5t-43 -33t-53.5 -33.5t-55 -19.5t-65 -9.5q-51 0 -90.5 14t-61.5 34t-36 46.5t-18.5 48.5t-4.5 44zM187 1382 q0 39 24 62.5t62 23.5q51 0 92 -47l242 -301l-29 -37l-283 177q-57 36 -71 49q-37 32 -37 73zM334 205q0 -50 29.5 -78.5t72.5 -28.5q100 0 197 127v209q-92 -21 -152 -45.5t-91.5 -53.5t-43.5 -59.5t-12 -70.5z" />
<glyph unicode="&#xe1;" horiz-adv-x="1038" d="M133 158q0 67 22.5 113t84 86t151.5 71t242 70v139q0 101 -44.5 151t-119.5 50q-67 0 -112.5 -26.5t-55.5 -61.5q98 -15 98 -107q0 -42 -30 -74t-84 -32q-45 0 -80 31.5t-35 88.5q0 110 100.5 181t237.5 71q168 0 236.5 -67t68.5 -226v-415q0 -56 41 -56q33 0 84 80 q36 -3 49 -32q-7 -10 -24 -36t-25 -37t-25 -33.5t-27.5 -33.5t-28 -26t-32 -22.5t-33.5 -13t-38 -5.5q-50 0 -82.5 36t-38.5 111q-1 -1 -31 -29t-41.5 -37.5t-43 -33t-53.5 -33.5t-55 -19.5t-65 -9.5q-51 0 -90.5 14t-61.5 34t-36 46.5t-18.5 48.5t-4.5 44zM334 205 q0 -50 29.5 -78.5t72.5 -28.5q100 0 197 127v209q-92 -21 -152 -45.5t-91.5 -53.5t-43.5 -59.5t-12 -70.5zM452 1120l242 301q41 47 92 47q38 0 62 -23.5t24 -62.5q0 -41 -37 -73q-14 -13 -71 -49l-283 -177z" />
<glyph unicode="&#xe2;" horiz-adv-x="1038" d="M133 158q0 67 22.5 113t84 86t151.5 71t242 70v139q0 101 -44.5 151t-119.5 50q-67 0 -112.5 -26.5t-55.5 -61.5q98 -15 98 -107q0 -42 -30 -74t-84 -32q-45 0 -80 31.5t-35 88.5q0 110 100.5 181t237.5 71q168 0 236.5 -67t68.5 -226v-415q0 -56 41 -56q33 0 84 80 q36 -3 49 -32q-7 -10 -24 -36t-25 -37t-25 -33.5t-27.5 -33.5t-28 -26t-32 -22.5t-33.5 -13t-38 -5.5q-50 0 -82.5 36t-38.5 111q-1 -1 -31 -29t-41.5 -37.5t-43 -33t-53.5 -33.5t-55 -19.5t-65 -9.5q-51 0 -90.5 14t-61.5 34t-36 46.5t-18.5 48.5t-4.5 44zM205 1067 l256 332h118l256 -332h-73l-242 178l-242 -178h-73zM334 205q0 -50 29.5 -78.5t72.5 -28.5q100 0 197 127v209q-92 -21 -152 -45.5t-91.5 -53.5t-43.5 -59.5t-12 -70.5z" />
<glyph unicode="&#xe3;" horiz-adv-x="1038" d="M133 158q0 67 22.5 113t84 86t151.5 71t242 70v139q0 101 -44.5 151t-119.5 50q-67 0 -112.5 -26.5t-55.5 -61.5q98 -15 98 -107q0 -42 -30 -74t-84 -32q-45 0 -80 31.5t-35 88.5q0 110 100.5 181t237.5 71q168 0 236.5 -67t68.5 -226v-415q0 -56 41 -56q33 0 84 80 q36 -3 49 -32q-7 -10 -24 -36t-25 -37t-25 -33.5t-27.5 -33.5t-28 -26t-32 -22.5t-33.5 -13t-38 -5.5q-50 0 -82.5 36t-38.5 111q-1 -1 -31 -29t-41.5 -37.5t-43 -33t-53.5 -33.5t-55 -19.5t-65 -9.5q-51 0 -90.5 14t-61.5 34t-36 46.5t-18.5 48.5t-4.5 44zM193 1128 q80 201 215 201q48 0 152.5 -30.5t135.5 -30.5q33 0 62 18t41 55h61q-65 -213 -223 -213q-19 0 -42.5 4t-40 8t-45 12t-40.5 11q-67 27 -109 27q-64 0 -112 -62h-55zM334 205q0 -50 29.5 -78.5t72.5 -28.5q100 0 197 127v209q-92 -21 -152 -45.5t-91.5 -53.5t-43.5 -59.5 t-12 -70.5z" />
<glyph unicode="&#xe4;" horiz-adv-x="1038" d="M133 158q0 67 22.5 113t84 86t151.5 71t242 70v139q0 101 -44.5 151t-119.5 50q-67 0 -112.5 -26.5t-55.5 -61.5q98 -15 98 -107q0 -42 -30 -74t-84 -32q-45 0 -80 31.5t-35 88.5q0 110 100.5 181t237.5 71q168 0 236.5 -67t68.5 -226v-415q0 -56 41 -56q33 0 84 80 q36 -3 49 -32q-7 -10 -24 -36t-25 -37t-25 -33.5t-27.5 -33.5t-28 -26t-32 -22.5t-33.5 -13t-38 -5.5q-50 0 -82.5 36t-38.5 111q-1 -1 -31 -29t-41.5 -37.5t-43 -33t-53.5 -33.5t-55 -19.5t-65 -9.5q-51 0 -90.5 14t-61.5 34t-36 46.5t-18.5 48.5t-4.5 44zM213 1239 q0 50 35 84.5t86 34.5q49 0 84 -35t35 -84q0 -51 -35 -86t-84 -35q-51 0 -86 35t-35 86zM334 205q0 -50 29.5 -78.5t72.5 -28.5q100 0 197 127v209q-92 -21 -152 -45.5t-91.5 -53.5t-43.5 -59.5t-12 -70.5zM586 1239q0 49 35 84t84 35q50 0 85 -34.5t35 -84.5q0 -51 -35 -86 t-85 -35t-84.5 35t-34.5 86z" />
<glyph unicode="&#xe5;" horiz-adv-x="1038" d="M133 158q0 67 22.5 113t84 86t151.5 71t242 70v139q0 101 -44.5 151t-119.5 50q-67 0 -112.5 -26.5t-55.5 -61.5q98 -15 98 -107q0 -42 -30 -74t-84 -32q-45 0 -80 31.5t-35 88.5q0 110 100.5 181t237.5 71q168 0 236.5 -67t68.5 -226v-415q0 -56 41 -56q33 0 84 80 q36 -3 49 -32q-7 -10 -24 -36t-25 -37t-25 -33.5t-27.5 -33.5t-28 -26t-32 -22.5t-33.5 -13t-38 -5.5q-50 0 -82.5 36t-38.5 111q-1 -1 -31 -29t-41.5 -37.5t-43 -33t-53.5 -33.5t-55 -19.5t-65 -9.5q-51 0 -90.5 14t-61.5 34t-36 46.5t-18.5 48.5t-4.5 44zM316 1262 q0 93 62.5 147.5t139.5 54.5q79 0 142 -54.5t63 -147.5q0 -89 -58 -147t-147 -58q-87 0 -144.5 58t-57.5 147zM334 205q0 -50 29.5 -78.5t72.5 -28.5q100 0 197 127v209q-92 -21 -152 -45.5t-91.5 -53.5t-43.5 -59.5t-12 -70.5zM398 1260q0 -49 37.5 -85t82.5 -36 q49 0 86 36.5t37 84.5q0 46 -35.5 84t-87.5 38q-49 0 -84.5 -36t-35.5 -86z" />
<glyph unicode="&#xe6;" horiz-adv-x="1501" d="M133 158q0 67 22.5 113t84 86t151.5 71t242 70v139q0 101 -44.5 151t-119.5 50q-67 0 -112.5 -26.5t-55.5 -61.5q98 -15 98 -107q0 -42 -30 -74t-84 -32q-45 0 -80 31.5t-35 88.5q0 109 98 180.5t240 71.5q109 0 174.5 -27.5t97.5 -88.5q111 107 267 116h24 q82 0 144 -23.5t96 -63.5t50.5 -87.5t16.5 -101.5q0 -53 -16 -103h-545q-4 -60 -4 -96v-10q3 -149 87 -238.5t224 -89.5q38 0 71.5 9t55 19.5t44.5 31.5t33 33.5t28.5 38.5t23.5 32q26 -5 39 -22q-49 -134 -154 -200.5t-229 -66.5q-100 0 -187 41.5t-142 126.5 q-47 -39 -70.5 -57.5t-63 -44.5t-69.5 -37.5t-71.5 -20t-88.5 -8.5q-51 0 -90.5 14t-61.5 34t-36 46.5t-18.5 48.5t-4.5 44zM334 205q0 -50 29.5 -78.5t72.5 -28.5q62 0 107.5 20.5t89.5 59.5v256q-92 -21 -152 -45.5t-91.5 -53.5t-43.5 -59.5t-12 -70.5zM827 598h361 q10 38 10 66q0 78 -36 129t-115 51q-69 0 -131 -61t-89 -185z" />
<glyph unicode="&#xe7;" horiz-adv-x="983" d="M123 424q0 108 36 199.5t98.5 154t148 97t182.5 34.5q140 0 228.5 -60.5t88.5 -154.5q0 -53 -35 -88t-86 -35q-54 0 -87 31.5t-33 73.5q0 76 77 96q-7 23 -45 47.5t-108 24.5q-25 0 -48 -4t-49.5 -16t-49 -31t-43.5 -51.5t-35.5 -75.5t-23.5 -105t-9 -137 q0 -39 4.5 -74.5t14.5 -68.5t25 -61t37 -51t49.5 -39t63.5 -25t78 -9q33 0 64 6.5t53 14.5t46.5 25t37 27t32.5 32.5t25.5 29.5t22.5 29q24 -5 39 -22q-23 -63 -60.5 -112t-83 -80.5t-95.5 -49.5t-104 -23l-28 -86q28 4 65 4q78 0 123 -37t45 -106q0 -72 -60.5 -124 t-166.5 -52q-132 0 -193 94l27 31q45 -47 131 -47q50 0 79.5 26.5t29.5 67.5q0 40 -25.5 61t-71.5 21q-44 0 -96 -14l50 162q-56 6 -108 25.5t-99 56t-82 87t-55.5 122.5t-20.5 159z" />
<glyph unicode="&#xe8;" horiz-adv-x="999" d="M123 424q0 211 129 348t317 137q83 0 144.5 -23.5t96 -63.5t51 -87.5t16.5 -101.5q0 -50 -17 -103h-545q-4 -60 -4 -96v-10q3 -149 87 -238.5t225 -89.5q38 0 71 8.5t54.5 19.5t44.5 32t33.5 33.5t28.5 38t24 32.5q24 -5 39 -22q-50 -134 -155 -200.5t-228 -66.5 q-61 0 -118.5 15.5t-111.5 50.5t-94 86.5t-64 129t-24 171.5zM228 1382q0 39 24 62.5t62 23.5q51 0 92 -47l242 -301l-29 -37l-283 177q-57 36 -71 49q-37 32 -37 73zM326 598h360q10 38 10 66q0 78 -36 129t-115 51q-69 0 -130.5 -61t-88.5 -185z" />
<glyph unicode="&#xe9;" horiz-adv-x="999" d="M123 424q0 211 129 348t317 137q83 0 144.5 -23.5t96 -63.5t51 -87.5t16.5 -101.5q0 -50 -17 -103h-545q-4 -60 -4 -96v-10q3 -149 87 -238.5t225 -89.5q38 0 71 8.5t54.5 19.5t44.5 32t33.5 33.5t28.5 38t24 32.5q24 -5 39 -22q-50 -134 -155 -200.5t-228 -66.5 q-61 0 -118.5 15.5t-111.5 50.5t-94 86.5t-64 129t-24 171.5zM326 598h360q10 38 10 66q0 78 -36 129t-115 51q-69 0 -130.5 -61t-88.5 -185zM454 1120l242 301q41 47 92 47q38 0 62 -23.5t24 -62.5q0 -41 -37 -73q-14 -13 -71 -49l-283 -177z" />
<glyph unicode="&#xea;" horiz-adv-x="999" d="M123 424q0 211 129 348t317 137q83 0 144.5 -23.5t96 -63.5t51 -87.5t16.5 -101.5q0 -50 -17 -103h-545q-4 -60 -4 -96v-10q3 -149 87 -238.5t225 -89.5q38 0 71 8.5t54.5 19.5t44.5 32t33.5 33.5t28.5 38t24 32.5q24 -5 39 -22q-50 -134 -155 -200.5t-228 -66.5 q-61 0 -118.5 15.5t-111.5 50.5t-94 86.5t-64 129t-24 171.5zM226 1067l256 332h118l256 -332h-73l-242 178l-242 -178h-73zM326 598h360q10 38 10 66q0 78 -36 129t-115 51q-69 0 -130.5 -61t-88.5 -185z" />
<glyph unicode="&#xeb;" horiz-adv-x="999" d="M123 424q0 211 129 348t317 137q83 0 144.5 -23.5t96 -63.5t51 -87.5t16.5 -101.5q0 -50 -17 -103h-545q-4 -60 -4 -96v-10q3 -149 87 -238.5t225 -89.5q38 0 71 8.5t54.5 19.5t44.5 32t33.5 33.5t28.5 38t24 32.5q24 -5 39 -22q-50 -134 -155 -200.5t-228 -66.5 q-61 0 -118.5 15.5t-111.5 50.5t-94 86.5t-64 129t-24 171.5zM215 1239q0 50 35 84.5t86 34.5q49 0 84 -35t35 -84q0 -51 -35 -86t-84 -35q-51 0 -86 35t-35 86zM326 598h360q10 38 10 66q0 78 -36 129t-115 51q-69 0 -130.5 -61t-88.5 -185zM588 1239q0 49 35 84t84 35 q50 0 85 -34.5t35 -84.5q0 -51 -35 -86t-85 -35t-84.5 35t-34.5 86z" />
<glyph unicode="&#xec;" horiz-adv-x="674" d="M-37 1382q0 39 24 62.5t62 23.5q51 0 92 -47l242 -301l-29 -37l-283 177q-57 36 -71 49q-37 32 -37 73zM72 801q0 6 4 22q194 20 338 82q25 -10 35 -26q0 -519 8 -742q1 -26 15.5 -44.5t41.5 -28.5t45 -14.5t47 -8.5q6 -12 6 -25t-6 -22q-132 6 -256 6q-122 0 -254 -6 q-4 16 -4 22q0 5 4 25q33 4 54 8.5t52 14.5t47 28.5t17 44.5q4 99 4 240q0 47 -1 160t-1 198q-57 35 -192 41q-4 16 -4 25z" />
<glyph unicode="&#xed;" horiz-adv-x="674" d="M72 801q0 6 4 22q194 20 338 82q25 -10 35 -26q0 -519 8 -742q1 -26 15.5 -44.5t41.5 -28.5t45 -14.5t47 -8.5q6 -12 6 -25t-6 -22q-132 6 -256 6q-122 0 -254 -6q-4 16 -4 22q0 5 4 25q33 4 54 8.5t52 14.5t47 28.5t17 44.5q4 99 4 240q0 47 -1 160t-1 198 q-57 35 -192 41q-4 16 -4 25zM188 1120l242 301q41 47 92 47q38 0 62 -23.5t24 -62.5q0 -41 -37 -73q-14 -13 -71 -49l-283 -177z" />
<glyph unicode="&#xee;" horiz-adv-x="674" d="M13 1067l256 332h118l256 -332h-73l-242 178l-242 -178h-73zM72 801q0 6 4 22q194 20 338 82q25 -10 35 -26q0 -519 8 -742q1 -26 15.5 -44.5t41.5 -28.5t45 -14.5t47 -8.5q6 -12 6 -25t-6 -22q-132 6 -256 6q-122 0 -254 -6q-4 16 -4 22q0 5 4 25q33 4 54 8.5t52 14.5 t47 28.5t17 44.5q4 99 4 240q0 47 -1 160t-1 198q-57 35 -192 41q-4 16 -4 25z" />
<glyph unicode="&#xef;" horiz-adv-x="674" d="M10 1239q0 50 35 84.5t86 34.5q49 0 84 -35t35 -84q0 -51 -35 -86t-84 -35q-51 0 -86 35t-35 86zM72 801q0 6 4 22q194 20 338 82q25 -10 35 -26q0 -519 8 -742q1 -26 15.5 -44.5t41.5 -28.5t45 -14.5t47 -8.5q6 -12 6 -25t-6 -22q-132 6 -256 6q-122 0 -254 -6 q-4 16 -4 22q0 5 4 25q33 4 54 8.5t52 14.5t47 28.5t17 44.5q4 99 4 240q0 47 -1 160t-1 198q-57 35 -192 41q-4 16 -4 25zM383 1239q0 49 34.5 84t84.5 35t85 -34.5t35 -84.5q0 -51 -35 -86t-85 -35t-84.5 35t-34.5 86z" />
<glyph unicode="&#xf0;" horiz-adv-x="1126" d="M123 440q0 59 12 119t42.5 124.5t77 113.5t123.5 80.5t173 31.5q52 0 103.5 -13t80.5 -34q-12 86 -59.5 186t-118.5 185l-166 -168l-59 63l164 160q-21 22 -45.5 43t-53.5 42t-47 33.5t-49.5 33t-36.5 24.5l31 52q156 -70 274 -156l160 156l62 -54l-152 -151 q107 -101 177.5 -206.5t105.5 -217.5t48 -214.5t13 -234.5q0 -101 -27.5 -182.5t-71.5 -133.5t-102.5 -87t-115.5 -49.5t-115 -14.5q-55 0 -110 13t-113.5 46.5t-103 84.5t-73 135t-28.5 190zM330 438q0 -48 3.5 -93t17 -104t36 -101.5t65 -72.5t99.5 -30q49 0 87.5 20 t62 55.5t39.5 75t23.5 89t10 86t2.5 75.5q0 210 -61.5 308t-163.5 98q-46 0 -83 -19t-60.5 -53t-39.5 -73.5t-24 -88t-11 -89t-3 -83.5z" />
<glyph unicode="&#xf1;" horiz-adv-x="1241" d="M72 801q0 6 4 22q194 20 338 82q25 -10 35 -26v-158q97 85 186 136.5t180 51.5q114 0 161.5 -64t49.5 -200l10 -508q1 -26 15.5 -44.5t42 -28.5t45.5 -14.5t47 -8.5q4 -20 4 -27q0 -8 -4 -20q-129 6 -238 6q-106 0 -235 -6q-4 16 -4 24q0 7 4 23q26 4 43.5 8.5t40 14.5 t34 28.5t11.5 44.5l2 475q0 181 -109 181q-102 0 -286 -136q0 -291 8 -520q1 -26 15.5 -44.5t41.5 -28.5t45 -14.5t47 -8.5q6 -12 6 -25q0 -10 -6 -22q-132 6 -256 6q-122 0 -254 -6q-4 16 -4 22q0 5 4 25q33 4 54 8.5t52 14.5t47 28.5t17 44.5q4 99 4 240q0 47 -1 160 t-1 198q-57 35 -192 41q-4 16 -4 25zM349 1128q80 201 215 201q48 0 152.5 -30.5t135.5 -30.5q33 0 62 18t41 55h61q-65 -213 -223 -213q-19 0 -42.5 4t-40 8t-45 12t-40.5 11q-67 27 -109 27q-64 0 -112 -62h-55z" />
<glyph unicode="&#xf2;" horiz-adv-x="1106" d="M123 440q0 207 116 338t314 131t314 -131t116 -338t-116.5 -338t-313.5 -131t-313.5 131t-116.5 338zM240 1382q0 39 24 62.5t62 23.5q51 0 92 -47l242 -301l-29 -37l-283 177q-57 36 -71 49q-37 32 -37 73zM330 440q0 -206 60.5 -304.5t162.5 -98.5t162.5 98.5 t60.5 304.5t-60.5 305t-162.5 99t-162.5 -99t-60.5 -305z" />
<glyph unicode="&#xf3;" horiz-adv-x="1106" d="M123 440q0 207 116 338t314 131t314 -131t116 -338t-116.5 -338t-313.5 -131t-313.5 131t-116.5 338zM330 440q0 -206 60.5 -304.5t162.5 -98.5t162.5 98.5t60.5 304.5t-60.5 305t-162.5 99t-162.5 -99t-60.5 -305zM446 1120l242 301q41 47 92 47q38 0 62 -23.5t24 -62.5 q0 -41 -37 -73q-14 -13 -71 -49l-283 -177z" />
<glyph unicode="&#xf4;" horiz-adv-x="1106" d="M123 440q0 207 116 338t314 131t314 -131t116 -338t-116.5 -338t-313.5 -131t-313.5 131t-116.5 338zM242 1067l256 332h118l256 -332h-73l-242 178l-242 -178h-73zM330 440q0 -206 60.5 -304.5t162.5 -98.5t162.5 98.5t60.5 304.5t-60.5 305t-162.5 99t-162.5 -99 t-60.5 -305z" />
<glyph unicode="&#xf5;" horiz-adv-x="1106" d="M123 440q0 207 116 338t314 131t314 -131t116 -338t-116.5 -338t-313.5 -131t-313.5 131t-116.5 338zM224 1128q80 201 215 201q48 0 152.5 -30.5t135.5 -30.5q33 0 62 18t41 55h61q-65 -213 -223 -213q-19 0 -42.5 4t-40 8t-45 12t-40.5 11q-67 27 -109 27 q-64 0 -112 -62h-55zM330 440q0 -206 60.5 -304.5t162.5 -98.5t162.5 98.5t60.5 304.5t-60.5 305t-162.5 99t-162.5 -99t-60.5 -305z" />
<glyph unicode="&#xf6;" horiz-adv-x="1106" d="M123 440q0 207 116 338t314 131t314 -131t116 -338t-116.5 -338t-313.5 -131t-313.5 131t-116.5 338zM252 1239q0 50 35 84.5t86 34.5q49 0 84 -35t35 -84q0 -51 -35 -86t-84 -35q-51 0 -86 35t-35 86zM330 440q0 -206 60.5 -304.5t162.5 -98.5t162.5 98.5t60.5 304.5 t-60.5 305t-162.5 99t-162.5 -99t-60.5 -305zM625 1239q0 49 34.5 84t84.5 35t85 -34.5t35 -84.5q0 -51 -35 -86t-85 -35t-84.5 35t-34.5 86z" />
<glyph unicode="&#xf7;" horiz-adv-x="1464" d="M164 653v115h1136v-115h-1136zM606 381q0 55 39 94t94 39q57 0 96 -38.5t39 -94.5t-39 -95.5t-96 -39.5q-55 0 -94 39.5t-39 95.5zM606 1042q0 56 39 96t94 40q57 0 96 -40t39 -96q0 -55 -39.5 -95t-95.5 -40q-55 0 -94 40t-39 95z" />
<glyph unicode="&#xf8;" horiz-adv-x="1106" d="M123 440q0 207 116 338t314 131q132 0 231 -61l103 141l76 -55l-107 -146q127 -129 127 -348q0 -207 -116.5 -338t-313.5 -131q-138 0 -242 68l-98 -137l-76 55l105 143q-119 128 -119 340zM330 440q0 -112 18 -192l365 502q-59 94 -160 94q-102 0 -162.5 -99t-60.5 -305 zM387 141q56 -104 166 -104q102 0 162.5 98.5t60.5 304.5q0 119 -22 205z" />
<glyph unicode="&#xf9;" horiz-adv-x="1245" d="M55 864q0 7 4 23l72 -4t57 -3t39 -1q15 0 35 1t54.5 3t66.5 4q18 -6 29 -31q-1 -8 -3.5 -23.5t-4 -37t-1.5 -52.5l-2 -475q0 -180 109 -180q101 0 287 133q0 298 -9 522q0 18 -7 32t-21.5 24t-26 16.5t-33.5 12t-31 7t-30 5.5q-4 16 -4 24q0 7 4 23q35 -2 71.5 -4 t57.5 -3t39 -1q15 0 35 1t54.5 3t66.5 4q5 -3 8.5 -5.5t6 -6t3.5 -5t3 -7t3 -7.5q-8 -54 -8 -113q-6 -147 -6 -239q0 -48 2 -161t2 -198q57 -33 192 -41q5 -25 5 -26q0 -6 -5 -21q-189 -18 -338 -82q-26 11 -34 27v156q-100 -86 -188.5 -136.5t-178.5 -50.5 q-114 0 -161.5 64t-49.5 201l-8 507h-2q0 18 -6.5 32t-21 24t-26.5 16.5t-34 12t-31 7t-31 5.5q-4 16 -4 24zM228 1382q0 39 24 62.5t62 23.5q51 0 92 -47l242 -301l-29 -37l-283 177q-57 36 -71 49q-37 32 -37 73z" />
<glyph unicode="&#xfa;" horiz-adv-x="1245" d="M55 864q0 7 4 23l72 -4t57 -3t39 -1q15 0 35 1t54.5 3t66.5 4q18 -6 29 -31q-1 -8 -3.5 -23.5t-4 -37t-1.5 -52.5l-2 -475q0 -180 109 -180q101 0 287 133q0 298 -9 522q0 18 -7 32t-21.5 24t-26 16.5t-33.5 12t-31 7t-30 5.5q-4 16 -4 24q0 7 4 23q35 -2 71.5 -4 t57.5 -3t39 -1q15 0 35 1t54.5 3t66.5 4q5 -3 8.5 -5.5t6 -6t3.5 -5t3 -7t3 -7.5q-8 -54 -8 -113q-6 -147 -6 -239q0 -48 2 -161t2 -198q57 -33 192 -41q5 -25 5 -26q0 -6 -5 -21q-189 -18 -338 -82q-26 11 -34 27v156q-100 -86 -188.5 -136.5t-178.5 -50.5 q-114 0 -161.5 64t-49.5 201l-8 507h-2q0 18 -6.5 32t-21 24t-26.5 16.5t-34 12t-31 7t-31 5.5q-4 16 -4 24zM495 1120l242 301q41 47 92 47q38 0 62 -23.5t24 -62.5q0 -41 -37 -73q-14 -13 -71 -49l-283 -177z" />
<glyph unicode="&#xfb;" horiz-adv-x="1245" d="M55 864q0 7 4 23l72 -4t57 -3t39 -1q15 0 35 1t54.5 3t66.5 4q18 -6 29 -31q-1 -8 -3.5 -23.5t-4 -37t-1.5 -52.5l-2 -475q0 -180 109 -180q101 0 287 133q0 298 -9 522q0 18 -7 32t-21.5 24t-26 16.5t-33.5 12t-31 7t-30 5.5q-4 16 -4 24q0 7 4 23q35 -2 71.5 -4 t57.5 -3t39 -1q15 0 35 1t54.5 3t66.5 4q5 -3 8.5 -5.5t6 -6t3.5 -5t3 -7t3 -7.5q-8 -54 -8 -113q-6 -147 -6 -239q0 -48 2 -161t2 -198q57 -33 192 -41q5 -25 5 -26q0 -6 -5 -21q-189 -18 -338 -82q-26 11 -34 27v156q-100 -86 -188.5 -136.5t-178.5 -50.5 q-114 0 -161.5 64t-49.5 201l-8 507h-2q0 18 -6.5 32t-21 24t-26.5 16.5t-34 12t-31 7t-31 5.5q-4 16 -4 24zM271 1067l256 332h118l256 -332h-73l-242 178l-242 -178h-73z" />
<glyph unicode="&#xfc;" horiz-adv-x="1245" d="M55 864q0 7 4 23l72 -4t57 -3t39 -1q15 0 35 1t54.5 3t66.5 4q18 -6 29 -31q-1 -8 -3.5 -23.5t-4 -37t-1.5 -52.5l-2 -475q0 -180 109 -180q101 0 287 133q0 298 -9 522q0 18 -7 32t-21.5 24t-26 16.5t-33.5 12t-31 7t-30 5.5q-4 16 -4 24q0 7 4 23q35 -2 71.5 -4 t57.5 -3t39 -1q15 0 35 1t54.5 3t66.5 4q5 -3 8.5 -5.5t6 -6t3.5 -5t3 -7t3 -7.5q-8 -54 -8 -113q-6 -147 -6 -239q0 -48 2 -161t2 -198q57 -33 192 -41q5 -25 5 -26q0 -6 -5 -21q-189 -18 -338 -82q-26 11 -34 27v156q-100 -86 -188.5 -136.5t-178.5 -50.5 q-114 0 -161.5 64t-49.5 201l-8 507h-2q0 18 -6.5 32t-21 24t-26.5 16.5t-34 12t-31 7t-31 5.5q-4 16 -4 24zM268 1239q0 50 35 84.5t86 34.5q49 0 84 -35t35 -84q0 -51 -35 -86t-84 -35q-51 0 -86 35t-35 86zM641 1239q0 49 34.5 84t84.5 35t85 -34.5t35 -84.5 q0 -51 -35 -86t-85 -35t-84.5 35t-34.5 86z" />
<glyph unicode="&#xfd;" horiz-adv-x="926" d="M-72 862q0 15 4 25q132 -6 267 -6q123 0 252 6q4 -16 4 -25q0 -6 -4 -22q-30 -2 -48 -4.5t-46.5 -8.5t-43 -18t-14.5 -29q0 -9 8 -37l203 -505h6l193 505q10 25 10 43q0 46 -115 54q-4 16 -4 22q0 9 4 25q117 -6 146 -6q84 0 213 6q4 -12 4 -21q0 -6 -4 -26 q-125 -5 -162 -97l-309 -739h2l-111 -291q-62 -162 -115.5 -219t-136.5 -57q-67 0 -111.5 40t-44.5 105q0 59 33 93t82 34q45 0 69.5 -27t24.5 -61q0 -48 -43 -76q5 -22 33 -22q32 0 60 36.5t73 155.5l111 285l-312 743q-11 25 -31 43.5t-48.5 29t-47.5 15t-47 9.5 q-4 8 -4 22zM418 1120l242 301q41 47 92 47q38 0 62 -23.5t24 -62.5q0 -41 -37 -73q-14 -13 -71 -49l-283 -177z" />
<glyph unicode="&#xfe;" horiz-adv-x="1167" d="M10 1415q0 7 4 23q191 18 338 82q27 -11 35 -27q0 -66 -1 -318t-1 -415q156 149 311 149q154 0 251 -114.5t97 -309.5q0 -73 -16 -143.5t-52.5 -138t-90 -118.5t-135.5 -82.5t-181 -31.5q-93 0 -184 35q3 -289 10 -401q0 -18 6.5 -32t21.5 -24t26.5 -16.5t34 -12t31 -7 t30.5 -5.5q6 -12 6 -24t-6 -23q-154 7 -256 7q-100 0 -254 -7q-4 18 -4 23q0 4 4 24q35 5 54 9t51 14.5t48 29t17 44.5q4 98 4 749q0 160 -1 546.5t-1 449.5q-56 33 -193 41q-4 16 -4 24zM385 162l2 4q59 -129 211 -129q30 0 60.5 10t64.5 38t59.5 71t42.5 116t17 166 q0 96 -25 171t-81 122t-136 47q-66 0 -115 -24t-100 -72v-520z" />
<glyph unicode="&#xff;" horiz-adv-x="926" d="M-72 862q0 15 4 25q132 -6 267 -6q123 0 252 6q4 -16 4 -25q0 -6 -4 -22q-30 -2 -48 -4.5t-46.5 -8.5t-43 -18t-14.5 -29q0 -9 8 -37l203 -505h6l193 505q10 25 10 43q0 46 -115 54q-4 16 -4 22q0 9 4 25q117 -6 146 -6q84 0 213 6q4 -12 4 -21q0 -6 -4 -26 q-125 -5 -162 -97l-309 -739h2l-111 -291q-62 -162 -115.5 -219t-136.5 -57q-67 0 -111.5 40t-44.5 105q0 59 33 93t82 34q45 0 69.5 -27t24.5 -61q0 -48 -43 -76q5 -22 33 -22q32 0 60 36.5t73 155.5l111 285l-312 743q-11 25 -31 43.5t-48.5 29t-47.5 15t-47 9.5 q-4 8 -4 22zM199 1239q0 50 35 84.5t86 34.5q49 0 84 -35t35 -84q0 -51 -35 -86t-84 -35q-51 0 -86 35t-35 86zM572 1239q0 49 35 84t84 35q50 0 85 -34.5t35 -84.5q0 -51 -35 -86t-85 -35t-84.5 35t-34.5 86z" />
<glyph unicode="&#x152;" horiz-adv-x="2423" d="M133 729q0 127 26.5 235.5t71.5 186.5t107.5 140t130 101t143.5 64.5t144 36t135 10.5q139 0 278 -41q82 1 312 1t411.5 1.5t300.5 5.5q13 -100 51 -189.5t97 -190.5q-8 -17 -35 -27q-36 68 -87 121t-128.5 100t-193 77t-263.5 40h-258q-10 -312 -10 -637h264 q26 0 50 4.5t43 11t38 20t32.5 24.5t29.5 32t26 35t25.5 41.5t23.5 43.5t24.5 48t25.5 49q31 -11 39 -26q-43 -74 -72 -163.5t-29 -150.5q0 -143 101 -313q-9 -16 -39 -27q-11 20 -30.5 57.5t-30.5 57.5t-30 51t-33.5 48t-37 38t-44.5 31.5t-50.5 18t-61.5 7.5h-264 q0 -329 10 -641h299q148 10 263.5 40t193 77t128.5 100t87 121q27 -10 35 -26q-5 -10 -26 -48t-28 -51.5t-23.5 -47t-24.5 -54t-18.5 -51.5t-17 -60.5t-10.5 -60.5h-1063q-139 -41 -280 -41q-67 0 -135 10t-144 35.5t-143.5 64t-130 100t-107.5 139t-71.5 186t-26.5 235.5z M397 729q0 -97 15 -190.5t51.5 -187t91 -163.5t141.5 -113.5t195 -43.5q144 0 254 69q10 342 10 668q0 364 -10 594q-120 70 -254 70q-91 0 -166.5 -30.5t-128.5 -84t-92.5 -121.5t-62 -148.5t-33.5 -159.5t-11 -159z" />
<glyph unicode="&#x153;" horiz-adv-x="1667" d="M123 440q0 207 116 338t314 131q220 0 330 -166q134 166 340 166q82 0 144 -23.5t96 -63.5t50.5 -87.5t16.5 -101.5q0 -55 -17 -103h-544q-4 -48 -4 -106q3 -149 86.5 -238.5t224.5 -89.5q38 0 71.5 9t55 19.5t44.5 31.5t33 33.5t28.5 38.5t23.5 32q26 -6 39 -22 q-50 -134 -155 -200.5t-228 -66.5q-93 0 -177 36t-143 110q-110 -146 -315 -146q-197 0 -313.5 131t-116.5 338zM330 440q0 -206 60.5 -304.5t162.5 -98.5q101 0 162 97.5t61 305.5q0 206 -60.5 305t-162.5 99t-162.5 -99t-60.5 -305zM979 598h360q11 36 11 66q0 78 -36 129 t-116 51q-69 0 -130.5 -61t-88.5 -185z" />
<glyph unicode="&#x2c6;" horiz-adv-x="1102" d="M236 1067l256 332h118l256 -332h-73l-242 178l-242 -178h-73z" />
<glyph unicode="&#x2dc;" horiz-adv-x="1139" d="M236 1128q80 201 215 201q48 0 152.5 -30.5t135.5 -30.5q33 0 62 18t41 55h61q-65 -213 -223 -213q-19 0 -42.5 4t-40 8t-45 12t-40.5 11q-67 27 -109 27q-64 0 -112 -62h-55z" />
<glyph unicode="&#x2000;" horiz-adv-x="1027" />
<glyph unicode="&#x2001;" horiz-adv-x="2054" />
<glyph unicode="&#x2002;" horiz-adv-x="1027" />
<glyph unicode="&#x2003;" horiz-adv-x="2054" />
<glyph unicode="&#x2004;" horiz-adv-x="684" />
<glyph unicode="&#x2005;" horiz-adv-x="513" />
<glyph unicode="&#x2006;" horiz-adv-x="342" />
<glyph unicode="&#x2007;" horiz-adv-x="342" />
<glyph unicode="&#x2008;" horiz-adv-x="256" />
<glyph unicode="&#x2009;" horiz-adv-x="410" />
<glyph unicode="&#x200a;" horiz-adv-x="114" />
<glyph unicode="&#x2010;" horiz-adv-x="936" d="M164 412v125h608v-125h-608z" />
<glyph unicode="&#x2011;" horiz-adv-x="936" d="M164 412v125h608v-125h-608z" />
<glyph unicode="&#x2012;" horiz-adv-x="936" d="M164 412v125h608v-125h-608z" />
<glyph unicode="&#x2013;" horiz-adv-x="1755" d="M164 412v114h1427v-114h-1427z" />
<glyph unicode="&#x2014;" horiz-adv-x="2439" d="M164 412v114h2111v-114h-2111z" />
<glyph unicode="&#x2018;" horiz-adv-x="618" d="M184 1155q0 94 58.5 194.5t140.5 153.5l51 -45q-49 -43 -79 -82t-38.5 -60t-15.5 -48l4 -6q67 0 98 -29t31 -90q0 -47 -33.5 -85t-83.5 -38q-57 0 -95 32t-38 103z" />
<glyph unicode="&#x2019;" horiz-adv-x="618" d="M184 1065q49 43 79.5 82.5t38.5 59.5t15 48l-4 7q-67 0 -98 29t-31 89q0 47 33.5 85t83.5 38q58 0 95.5 -32t37.5 -103q0 -93 -58.5 -193.5t-139.5 -154.5z" />
<glyph unicode="&#x201a;" horiz-adv-x="618" d="M184 98q0 47 33.5 85t83.5 38q58 0 95.5 -32t37.5 -103q0 -94 -58.5 -194.5t-139.5 -153.5l-52 45q49 43 79.5 82.5t38.5 59.5t15 48l-4 7q-67 0 -98 29t-31 89z" />
<glyph unicode="&#x201c;" horiz-adv-x="989" d="M184 1155q0 94 58.5 194.5t140.5 153.5l51 -45q-49 -43 -79 -82t-38.5 -60t-15.5 -48l4 -6q67 0 98 -29t31 -90q0 -47 -33.5 -85t-83.5 -38q-57 0 -95 32t-38 103zM555 1155q0 94 58.5 194.5t140.5 153.5l51 -45q-49 -43 -79.5 -82.5t-38.5 -59.5t-15 -48l4 -6 q67 0 98 -29t31 -90q0 -47 -33.5 -85t-83.5 -38q-57 0 -95 32t-38 103z" />
<glyph unicode="&#x201d;" horiz-adv-x="989" d="M184 1065q49 43 79.5 82.5t38.5 59.5t15 48l-4 7q-67 0 -98 29t-31 89q0 47 33.5 85t83.5 38q58 0 95.5 -32t37.5 -103q0 -93 -58.5 -193.5t-139.5 -154.5zM555 1065q49 43 79.5 82.5t38.5 59.5t15 48l-4 7q-67 0 -98 29t-31 89q0 47 33.5 85t83.5 38q57 0 95 -32 t38 -103q0 -94 -58.5 -194t-140.5 -154z" />
<glyph unicode="&#x201e;" horiz-adv-x="989" d="M184 98q0 47 33.5 85t83.5 38q58 0 95.5 -32t37.5 -103q0 -94 -58.5 -194.5t-139.5 -153.5l-52 45q49 43 79.5 82.5t38.5 59.5t15 48l-4 7q-67 0 -98 29t-31 89zM555 98q0 47 33.5 85t83.5 38q57 0 95 -32t38 -103q0 -94 -58.5 -194.5t-140.5 -153.5l-51 45 q49 43 79.5 82.5t38.5 59.5t15 48l-4 7q-67 0 -98 29t-31 89z" />
<glyph unicode="&#x2022;" horiz-adv-x="721" d="M164 729q0 83 56.5 140t139.5 57q82 0 139.5 -56.5t57.5 -140.5q0 -81 -57.5 -139t-139.5 -58q-83 0 -139.5 57.5t-56.5 139.5z" />
<glyph unicode="&#x202f;" horiz-adv-x="410" />
<glyph unicode="&#x2039;" horiz-adv-x="737" d="M164 424l352 379l57 -45l-208 -334l208 -334l-57 -47z" />
<glyph unicode="&#x203a;" horiz-adv-x="737" d="M164 90l209 334l-209 334l57 45l352 -379l-352 -381z" />
<glyph unicode="&#x205f;" horiz-adv-x="513" />
<glyph unicode="&#x20ac;" d="M-61 573l24 82q74 -4 117 -4q-2 23 -2 70v49h-139l24 82q74 -4 121 -4q13 144 57 259.5t102.5 187.5t131 120.5t139.5 68t131 19.5q78 0 131.5 -7t124 -24t94.5 -22q-16 -74 -16 -182q0 -90 14 -178q-20 -11 -51 -11q-17 60 -28 95.5t-27 78.5t-31 66.5t-36 48.5 t-45.5 37t-57 19.5t-72.5 7.5q-79 0 -144.5 -51.5t-108 -137.5t-68.5 -186.5t-35 -210.5h114q244 0 375 6l-24 -84q-131 4 -375 4h-94v-51q0 -49 2 -72h86q211 0 342 6l-25 -84q-131 4 -342 4h-57q10 -87 28.5 -160t49.5 -135.5t73 -105.5t100 -67.5t128 -24.5 q191 0 291 176q13 0 28 -7t15 -18q-42 -91 -115 -155.5t-144.5 -91.5t-136.5 -27t-129 17.5t-130.5 62.5t-119 112.5t-92 176t-53.5 245.5h-145z" />
<glyph unicode="&#xe000;" horiz-adv-x="885" d="M0 0v885h885v-885h-885z" />
</font>
</defs>
</svg>
