<?xml version="1.0" standalone="no"?>
<!DOCTYPE svg PUBLIC "-//W3C//DTD SVG 1.1//EN" "http://www.w3.org/Graphics/SVG/1.1/DTD/svg11.dtd" >
<svg xmlns="http://www.w3.org/2000/svg">
<metadata></metadata>
<defs>
<font id="noticenotice2" horiz-adv-x="890" >
<font-face units-per-em="1000" ascent="800" descent="-200" />
<missing-glyph horiz-adv-x="500" />
<glyph horiz-adv-x="800" />
<glyph horiz-adv-x="800" />
<glyph unicode="&#xd;" horiz-adv-x="800" />
<glyph unicode=" " />
<glyph unicode="!" d="M43 126v548q0 52 36.5 89t89.5 37h548q53 0 89.5 -37t36.5 -89v-548q0 -52 -36.5 -89t-89.5 -37h-548q-53 0 -89.5 37t-36.5 89zM243 533l54 60v-187h28v225h-28l-54 -64v-34zM247 140h456v366h-106v-50h-50v-50h-50v-50h-50v-50h-50v-50h-50v-50h-50v-50h-50v-16z" />
<glyph unicode="&#x22;" d="M43 126v548q0 52 36.5 89t89.5 37h548q53 0 89.5 -37t36.5 -89v-548q0 -52 -36.5 -89t-89.5 -37h-548q-53 0 -89.5 37t-36.5 89zM183 162h520v20h-16v21h-12v22h-37v280h49v12h16v16l-261 95l-259 -95v-16h15v-12h50v-280h-39v-22h-11v-21h-15v-20zM297 225v280h64v-280 h-64zM413 225v280h62v-280h-62zM530 225v280h59v-280h-59z" />
<glyph unicode="#" d="M43 126v548q0 52 36.5 89t89.5 37h548q53 0 89.5 -37t36.5 -89v-548q0 -52 -36.5 -89t-89.5 -37h-548q-53 0 -89.5 37t-36.5 89zM229 466q0 -29 19 -46.5t49 -17.5q33 0 54.5 20t21.5 50q0 44 -43 55q31 14 31 45q0 24 -18 42.5t-46 18.5q-27 0 -47.5 -18t-20.5 -46h25 q0 19 13 29.5t30 10.5q16 0 26 -10.5t10 -25.5q0 -18 -13.5 -28t-31.5 -10v-20h12q19 0 31.5 -12.5t12.5 -31.5q0 -20 -13.5 -33t-33.5 -13q-43 0 -43 41h-25zM247 140h456v366h-106v-50h-50v-50h-50v-50h-50v-50h-50v-50h-50v-50h-50v-50h-50v-16z" />
<glyph unicode="$" d="M43 126v548q0 52 36.5 89t89.5 37h548q53 0 89.5 -37t36.5 -89v-548q0 -52 -36.5 -89t-89.5 -37h-548q-53 0 -89.5 37t-36.5 89zM199 460h98v-54h28v54h16v25h-16v145h-22l-104 -145v-25zM226 485l71 98v-98h-71zM247 140h456v366h-106v-50h-50v-50h-50v-50h-50v-50h-50 v-50h-50v-50h-50v-50h-50v-16z" />
<glyph unicode="%" d="M43 126v548q0 52 36.5 89t89.5 37h548q53 0 89.5 -37t36.5 -89v-548q0 -52 -36.5 -89t-89.5 -37h-548q-53 0 -89.5 37t-36.5 89zM230 465q0 -29 18 -46t49 -17q33 0 54.5 23t21.5 57q0 32 -19.5 52.5t-49.5 20.5q-22 0 -42 -14l12 60h87v26h-108l-23 -119h26q14 23 40 23 q22 0 35 -14t13 -37q0 -25 -12.5 -39t-34.5 -14q-41 0 -41 38h-26zM247 140h456v366h-106v-50h-50v-50h-50v-50h-50v-50h-50v-50h-50v-50h-50v-50h-50v-16z" />
<glyph unicode="&#x26;" d="M43 126v548q0 52 36.5 89t89.5 37h548q53 0 89.5 -37t36.5 -89v-548q0 -52 -36.5 -89t-89.5 -37h-548q-53 0 -89.5 37t-36.5 89zM238 599h110q-32 -35 -55.5 -93.5t-23.5 -99.5h28q1 49 26.5 105t59.5 93v23h-145v-28zM247 140h456v366h-106v-50h-50v-50h-50v-50h-50v-50 h-50v-50h-50v-50h-50v-50h-50v-16z" />
<glyph unicode="'" d="M43 126v548q0 52 36.5 89t89.5 37h548q53 0 89.5 -37t36.5 -89v-548q0 -52 -36.5 -89t-89.5 -37h-548q-53 0 -89.5 37t-36.5 89zM113 140q0 -29 20 -49.5t50 -20.5h520q29 0 49.5 20.5t20.5 49.5v520q0 29 -20.5 49.5t-49.5 20.5h-520q-29 0 -49.5 -20.5t-20.5 -49.5 v-520zM183 162v20h15v21h11v22h39v280h-50v12h-15v16l259 95l261 -95v-16h-16v-12h-49v-280h37v-22h12v-21h16v-20h-520zM297 225h64v280h-64v-280zM413 225h62v280h-62v-280zM530 225h59v280h-59v-280z" />
<glyph unicode="(" d="M43 126v548q0 52 36.5 89t89.5 37h548q53 0 89.5 -37t36.5 -89v-548q0 -52 -36.5 -89t-89.5 -37h-548q-53 0 -89.5 37t-36.5 89zM231 555q0 -33 18.5 -53t46.5 -20q33 0 53 29v-5q0 -39 -14 -60t-38 -21q-37 0 -37 33h-25q0 -26 17.5 -41t44.5 -15q80 0 80 120 q0 109 -80 109q-30 0 -48 -21t-18 -55zM247 140h456v366h-106v-50h-50v-50h-50v-50h-50v-50h-50v-50h-50v-50h-50v-50h-50v-16zM256 555q0 24 11 38.5t30 14.5t33.5 -14.5t14.5 -37.5t-13 -36.5t-33 -13.5q-21 0 -32 13.5t-11 35.5z" />
<glyph unicode=")" d="M43 126v548q0 52 36.5 89t89.5 37h548q53 0 89.5 -37t36.5 -89v-548q0 -52 -36.5 -89t-89.5 -37h-548q-53 0 -89.5 37t-36.5 89zM247 140h456v366h-106v-50h-50v-50h-50v-50h-50v-50h-50v-50h-50v-50h-50v-50h-50v-16z" />
<glyph unicode="*" d="M43 126v548q0 52 36.5 89t89.5 37h548q53 0 89.5 -37t36.5 -89v-548q0 -52 -36.5 -89t-89.5 -37h-548q-53 0 -89.5 37t-36.5 89zM224 470q0 -30 20 -49t53 -19q32 0 52.5 19.5t20.5 48.5q0 43 -42 57q33 13 33 45q0 25 -17.5 42t-46.5 17t-47 -16.5t-18 -41.5 q0 -35 33 -46q-41 -11 -41 -57zM247 140h456v366h-106v-50h-50v-50h-50v-50h-50v-50h-50v-50h-50v-50h-50v-50h-50v-16zM252 470q0 20 12.5 33t32.5 13t32.5 -13.5t12.5 -32.5q0 -20 -12.5 -32.5t-32.5 -12.5t-32.5 13t-12.5 32zM260 573q0 15 10 25t26 10t26.5 -10.5 t10.5 -25.5t-9.5 -24.5t-26.5 -9.5t-27 10t-10 25z" />
<glyph unicode="+" d="M43 126v548q0 52 36.5 89t89.5 37h548q53 0 89.5 -37t36.5 -89v-548q0 -52 -36.5 -89t-89.5 -37h-548q-53 0 -89.5 37t-36.5 89zM183 140h468v71h-12v-59h-444v24l12 -12l261 31v180l-12 17v-186l-237 -29v445l237 -25v-189l12 17v183l-261 28l-12 -7v19h444v-52h12v64 h-468v-520zM471 400l145 -227h7v60h59v341h-59v53h-7z" />
<glyph unicode="," d="M43 126v548q0 52 36.5 89t89.5 37h548q53 0 89.5 -37t36.5 -89v-548q0 -52 -36.5 -89t-89.5 -37h-548q-53 0 -89.5 37t-36.5 89zM113 140q0 -29 20 -49.5t50 -20.5h520q29 0 49.5 20.5t20.5 49.5v520q0 29 -20.5 49.5t-49.5 20.5h-520q-29 0 -49.5 -20.5t-20.5 -49.5 v-520zM190 142v518h513v-518h-15v503h-483v-503h-15zM222 220v40h8v78l9 9l25 124q3 10 18 10h326q15 0 17 -10l26 -124l9 -9v-78h8v-40h-17v-78h-60v78h-292v-78h-60v78h-17zM250 353h391l-25 118h-342zM276 295q0 -10 6.5 -16.5t16.5 -6.5t16.5 6.5t6.5 16.5t-6.5 16 t-16.5 6t-16.5 -6t-6.5 -16zM568 295q0 -10 7 -16.5t16 -6.5q10 0 17 6.5t7 16.5t-6.5 16t-17.5 6q-9 0 -16 -6.5t-7 -15.5z" />
<glyph unicode="-" d="M43 126v548q0 52 36.5 89t89.5 37h548q53 0 89.5 -37t36.5 -89v-548q0 -52 -36.5 -89t-89.5 -37h-548q-53 0 -89.5 37t-36.5 89zM113 140q0 -29 20 -49.5t50 -20.5h520q29 0 49.5 20.5t20.5 49.5v520q0 29 -20.5 49.5t-49.5 20.5h-520q-29 0 -49.5 -20.5t-20.5 -49.5 v-520zM191 538v20q0 45 27.5 73.5t73.5 28.5h79q45 0 72.5 -29t27.5 -73v-105q-11 -11 -38 -32t-38 -33t-22 -40.5t-11 -67.5h-70q0 56 12.5 93.5t34 62t62.5 52.5v70q0 15 -9 23.5t-21 8.5h-79q-31 0 -31 -32v-20q0 -38 -33 -38h-5q-32 0 -32 38zM292 140v70h70v-70h-70z M576 140v70h70v-70h-70zM576 318v304q0 18 10.5 28t24.5 10t24.5 -10t10.5 -28v-305q0 -18 -10.5 -27.5t-24.5 -9.5q-15 0 -25 10t-10 28z" />
<glyph unicode="." d="M43 126v548q0 52 36.5 89t89.5 37h548q53 0 89.5 -37t36.5 -89v-548q0 -52 -36.5 -89t-89.5 -37h-548q-53 0 -89.5 37t-36.5 89zM113 140q0 -29 20 -49.5t50 -20.5h520q29 0 49.5 20.5t20.5 49.5v520q0 29 -20.5 49.5t-49.5 20.5h-520q-29 0 -49.5 -20.5t-20.5 -49.5 v-520zM190 142v164q0 13 9.5 22.5t22.5 9.5h168q14 0 23.5 -9t9.5 -23v-164h-58v80h27l-87 84l-83 -84h26v-80h-58zM190 350v16h233v-16h-233zM190 378v282h513v-518h-5v196h-261v-196h-5v236h-242zM353 419q0 -25 24 -25h276q24 0 24 24v185q0 25 -24 25h-276 q-24 0 -24 -26v-183zM450 142v34h58v-34h-58zM450 191v59h58v-59h-58zM450 263v59h58v-59h-58zM539 142v34h58v-34h-58zM539 191v59h58v-59h-58zM539 263v59h58v-59h-58zM626 142v34h58v-34h-58zM626 191v59h58v-59h-58zM626 263v59h58v-59h-58z" />
<glyph unicode="/" d="M43 126v548q0 52 36.5 89t89.5 37h548q53 0 89.5 -37t36.5 -89v-548q0 -52 -36.5 -89t-89.5 -37h-548q-53 0 -89.5 37t-36.5 89zM113 140q0 -29 20 -49.5t50 -20.5h520q29 0 49.5 20.5t20.5 49.5v520q0 29 -20.5 49.5t-49.5 20.5h-520q-29 0 -49.5 -20.5t-20.5 -49.5 v-520zM183 236v230l237 119q16 7 23 7q9 0 25 -8l237 -118v-230h-522zM193 252l237 99l-237 99v-198zM207 246h474l-237 99zM208 466h471l-220 110q-12 4 -16 4t-16 -4zM458 351l237 -99v198z" />
<glyph unicode="0" d="M43 126v548q0 52 36.5 89t89.5 37h548q53 0 89.5 -37t36.5 -89v-548q0 -52 -36.5 -89t-89.5 -37h-548q-53 0 -89.5 37t-36.5 89zM113 140q0 -29 20 -49.5t50 -20.5h520q29 0 49.5 20.5t20.5 49.5v520q0 29 -20.5 49.5t-49.5 20.5h-520q-29 0 -49.5 -20.5t-20.5 -49.5 v-520zM247 140v16h50v50h50v50h50v50h50v50h50v50h50v50h50v50h106v-366h-456z" />
<glyph unicode="1" d="M43 126v548q0 52 36.5 89t89.5 37h548q53 0 89.5 -37t36.5 -89v-548q0 -52 -36.5 -89t-89.5 -37h-548q-53 0 -89.5 37t-36.5 89zM113 140q0 -29 20 -49.5t50 -20.5h520q29 0 49.5 20.5t20.5 49.5v520q0 29 -20.5 49.5t-49.5 20.5h-520q-29 0 -49.5 -20.5t-20.5 -49.5 v-520zM243 533v34l54 64h28v-225h-28v187zM247 140v16h50v50h50v50h50v50h50v50h50v50h50v50h50v50h106v-366h-456z" />
<glyph unicode="2" d="M43 126v548q0 52 36.5 89t89.5 37h548q53 0 89.5 -37t36.5 -89v-548q0 -52 -36.5 -89t-89.5 -37h-548q-53 0 -89.5 37t-36.5 89zM113 140q0 -29 20 -49.5t50 -20.5h520q29 0 49.5 20.5t20.5 49.5v520q0 29 -20.5 49.5t-49.5 20.5h-520q-29 0 -49.5 -20.5t-20.5 -49.5 v-520zM225 406v29q12 22 51 54q64 52 64 80q0 16 -12.5 27.5t-30.5 11.5q-21 0 -34 -12.5t-13 -33.5h-25q0 32 19.5 50.5t52.5 18.5q32 0 51.5 -17.5t19.5 -44.5q-3 -24 -14.5 -40.5t-52.5 -52.5q-37 -31 -43 -42h110v-28h-143zM247 140v16h50v50h50v50h50v50h50v50h50v50 h50v50h50v50h106v-366h-456z" />
<glyph unicode="3" d="M43 126v548q0 52 36.5 89t89.5 37h548q53 0 89.5 -37t36.5 -89v-548q0 -52 -36.5 -89t-89.5 -37h-548q-53 0 -89.5 37t-36.5 89zM113 140q0 -29 20 -49.5t50 -20.5h520q29 0 49.5 20.5t20.5 49.5v520q0 29 -20.5 49.5t-49.5 20.5h-520q-29 0 -49.5 -20.5t-20.5 -49.5 v-520zM229 466h25q0 -41 43 -41q20 0 33.5 13t13.5 33q0 19 -12.5 31.5t-31.5 12.5h-12v20q18 0 31.5 10t13.5 28q0 15 -10 25.5t-26 10.5q-17 0 -30 -10.5t-13 -29.5h-25q0 28 20.5 46t47.5 18q28 0 46 -18.5t18 -42.5q0 -31 -31 -45q43 -11 43 -55q0 -30 -21.5 -50 t-54.5 -20q-30 0 -49 17.5t-19 46.5zM247 140v16h50v50h50v50h50v50h50v50h50v50h50v50h50v50h106v-366h-456z" />
<glyph unicode="4" d="M43 126v548q0 52 36.5 89t89.5 37h548q53 0 89.5 -37t36.5 -89v-548q0 -52 -36.5 -89t-89.5 -37h-548q-53 0 -89.5 37t-36.5 89zM113 140q0 -29 20 -49.5t50 -20.5h520q29 0 49.5 20.5t20.5 49.5v520q0 29 -20.5 49.5t-49.5 20.5h-520q-29 0 -49.5 -20.5t-20.5 -49.5 v-520zM199 460v25l104 145h22v-145h16v-25h-16v-54h-28v54h-98zM226 485h71v98zM247 140v16h50v50h50v50h50v50h50v50h50v50h50v50h50v50h106v-366h-456z" />
<glyph unicode="5" d="M43 126v548q0 52 36.5 89t89.5 37h548q53 0 89.5 -37t36.5 -89v-548q0 -52 -36.5 -89t-89.5 -37h-548q-53 0 -89.5 37t-36.5 89zM113 140q0 -29 20 -49.5t50 -20.5h520q29 0 49.5 20.5t20.5 49.5v520q0 29 -20.5 49.5t-49.5 20.5h-520q-29 0 -49.5 -20.5t-20.5 -49.5 v-520zM230 465h26q0 -38 41 -38q22 0 34.5 14t12.5 39q0 23 -13 37t-35 14q-26 0 -40 -23h-26l23 119h108v-26h-87l-12 -60q20 14 42 14q30 0 49.5 -20.5t19.5 -52.5q0 -34 -21.5 -57t-54.5 -23q-31 0 -49 17t-18 46zM247 140v16h50v50h50v50h50v50h50v50h50v50h50v50h50v50 h106v-366h-456z" />
<glyph unicode="6" d="M43 126v548q0 52 36.5 89t89.5 37h548q53 0 89.5 -37t36.5 -89v-548q0 -52 -36.5 -89t-89.5 -37h-548q-53 0 -89.5 37t-36.5 89zM113 140q0 -29 20 -49.5t50 -20.5h520q29 0 49.5 20.5t20.5 49.5v520q0 29 -20.5 49.5t-49.5 20.5h-520q-29 0 -49.5 -20.5t-20.5 -49.5 v-520zM220 510q0 65 24 95q20 26 53 26q26 0 45.5 -18t19.5 -40h-26q0 15 -12 25t-27 10q-11 0 -22 -8q-27 -20 -27 -79q18 30 54 30q28 0 47 -20.5t19 -52.5q0 -33 -20 -54.5t-51 -21.5q-77 0 -77 108zM247 140v16h50v50h50v50h50v50h50v50h50v50h50v50h50v50h106v-366 h-456zM252 478q0 -22 13 -37.5t32 -15.5q18 0 30.5 14.5t12.5 37.5t-12.5 36.5t-31.5 13.5t-31.5 -13.5t-12.5 -35.5z" />
<glyph unicode="7" d="M43 126v548q0 52 36.5 89t89.5 37h548q53 0 89.5 -37t36.5 -89v-548q0 -52 -36.5 -89t-89.5 -37h-548q-53 0 -89.5 37t-36.5 89zM113 140q0 -29 20 -49.5t50 -20.5h520q29 0 49.5 20.5t20.5 49.5v520q0 29 -20.5 49.5t-49.5 20.5h-520q-29 0 -49.5 -20.5t-20.5 -49.5 v-520zM238 599v28h145v-23q-34 -37 -59.5 -93t-26.5 -105h-28q0 41 23.5 99.5t55.5 93.5h-110zM247 140v16h50v50h50v50h50v50h50v50h50v50h50v50h50v50h106v-366h-456z" />
<glyph unicode="8" d="M43 126v548q0 52 36.5 89t89.5 37h548q53 0 89.5 -37t36.5 -89v-548q0 -52 -36.5 -89t-89.5 -37h-548q-53 0 -89.5 37t-36.5 89zM113 140q0 -29 20 -49.5t50 -20.5h520q29 0 49.5 20.5t20.5 49.5v520q0 29 -20.5 49.5t-49.5 20.5h-520q-29 0 -49.5 -20.5t-20.5 -49.5 v-520zM224 470q0 46 41 57q-33 11 -33 46q0 25 18 41.5t47 16.5t46.5 -17t17.5 -42q0 -32 -33 -45q42 -14 42 -57q0 -29 -20.5 -48.5t-52.5 -19.5q-33 0 -53 19t-20 49zM247 140v16h50v50h50v50h50v50h50v50h50v50h50v50h50v50h106v-366h-456zM252 470q0 -19 12.5 -32 t32.5 -13t32.5 12.5t12.5 32.5q0 19 -12.5 32.5t-32.5 13.5t-32.5 -13t-12.5 -33zM260 573q0 -15 10 -25t27 -10t26.5 9.5t9.5 24.5t-10.5 25.5t-26.5 10.5t-26 -10t-10 -25z" />
<glyph unicode="9" d="M43 126v548q0 52 36.5 89t89.5 37h548q53 0 89.5 -37t36.5 -89v-548q0 -52 -36.5 -89t-89.5 -37h-548q-53 0 -89.5 37t-36.5 89zM113 140q0 -29 20 -49.5t50 -20.5h520q29 0 49.5 20.5t20.5 49.5v520q0 29 -20.5 49.5t-49.5 20.5h-520q-29 0 -49.5 -20.5t-20.5 -49.5 v-520zM231 555q0 34 18 55t48 21q80 0 80 -109q0 -120 -80 -120q-27 0 -44.5 15t-17.5 41h25q0 -33 37 -33q24 0 38 21t14 60v5q-20 -29 -53 -29q-28 0 -46.5 20t-18.5 53zM247 140v16h50v50h50v50h50v50h50v50h50v50h50v50h50v50h106v-366h-456zM256 555q0 -22 11 -35.5 t32 -13.5q20 0 33 13.5t13 36.5t-14.5 37.5t-33.5 14.5t-30 -14.5t-11 -38.5z" />
<glyph unicode=":" d="M43 126v548q0 52 36.5 89t89.5 37h548q53 0 89.5 -37t36.5 -89v-548q0 -52 -36.5 -89t-89.5 -37h-548q-53 0 -89.5 37t-36.5 89zM193 215h234v42h-174q10 14 20 24.5t16.5 16t32.5 26.5q50 44 66 62q39 43 39 85t-30.5 70t-80.5 28q-51 0 -81 -26.5t-34 -75.5l45 -6 q0 33 18.5 52.5t50.5 19.5q29 0 48 -18t19 -43t-21.5 -52.5t-77.5 -74.5q-68 -56 -85 -100q-5 -13 -5 -25v-5zM459 300h153v-85h43v85h48v40h-48v228h-34l-162 -228v-40zM501 340l111 156v-156h-111z" />
<glyph unicode=";" d="M43 126v548q0 52 36.5 89t89.5 37h548q53 0 89.5 -37t36.5 -89v-548q0 -52 -36.5 -89t-89.5 -37h-548q-53 0 -89.5 37t-36.5 89zM113 140q0 -29 20 -49.5t50 -20.5h520q29 0 49.5 20.5t20.5 49.5v520q0 29 -20.5 49.5t-49.5 20.5h-520q-29 0 -49.5 -20.5t-20.5 -49.5 v-520zM193 215v5q0 12 5 25q17 44 85 100q56 47 77.5 74.5t21.5 52.5t-19 43t-48 18q-32 0 -50.5 -19.5t-18.5 -52.5l-45 6q4 49 34 75.5t81 26.5q50 0 80.5 -28t30.5 -70t-39 -85q-16 -18 -66 -62q-46 -37 -59 -54q-4 -5 -10 -13h174v-42h-234zM459 300v40l162 228h34v-228 h48v-40h-48v-85h-43v85h-153zM501 340h111v156z" />
<glyph unicode="&#x3c;" d="M43 126v548q0 52 36.5 89t89.5 37h548q53 0 89.5 -37t36.5 -89v-548q0 -52 -36.5 -89t-89.5 -37h-548q-53 0 -89.5 37t-36.5 89zM190 142h15v503h483v-503h15v518h-513v-518zM222 220h17v-78h60v78h292v-78h60v78h17v40h-8v78l-9 9l-26 124q-2 10 -17 10h-326 q-15 0 -18 -10l-25 -124l-9 -9v-78h-8v-40zM250 353l24 118h342l25 -118h-391zM276 295q0 10 6.5 16t16.5 6t16.5 -6t6.5 -16t-6.5 -16.5t-16.5 -6.5t-16.5 6.5t-6.5 16.5zM568 295q0 9 7 15.5t16 6.5q11 0 17.5 -6t6.5 -16t-7 -16.5t-17 -6.5q-9 0 -16 6.5t-7 16.5z" />
<glyph unicode="=" d="M43 126v548q0 52 36.5 89t89.5 37h548q53 0 89.5 -37t36.5 -89v-548q0 -52 -36.5 -89t-89.5 -37h-548q-53 0 -89.5 37t-36.5 89zM113 140q0 -29 20 -49.5t50 -20.5h520q29 0 49.5 20.5t20.5 49.5v520q0 29 -20.5 49.5t-49.5 20.5h-520q-29 0 -49.5 -20.5t-20.5 -49.5 v-520zM183 140v520h468v-64h-12v52h-444v-19l12 7l261 -28v-183l-12 -17v189l-237 25v-445l237 29v186l12 -17v-180l-261 -31l-12 12v-24h444v59h12v-71h-468zM471 400l145 227h7v-53h59v-341h-59v-60h-7z" />
<glyph unicode="&#x3e;" d="M43 126v548q0 52 36.5 89t89.5 37h548q53 0 89.5 -37t36.5 -89v-548q0 -52 -36.5 -89t-89.5 -37h-548q-53 0 -89.5 37t-36.5 89zM190 142h58v80h-26l83 84l87 -84h-27v-80h58v164q0 14 -9.5 23t-23.5 9h-168q-13 0 -22.5 -9.5t-9.5 -22.5v-164zM190 350h233v16h-233v-16z M190 378h242v-236h5v196h261v-196h5v518h-513v-282zM353 419v183q0 26 24 26h276q24 0 24 -25v-185q0 -24 -24 -24h-276q-24 0 -24 25zM450 142h58v34h-58v-34zM450 191h58v59h-58v-59zM450 263h58v59h-58v-59zM539 142h58v34h-58v-34zM539 191h58v59h-58v-59zM539 263h58 v59h-58v-59zM626 142h58v34h-58v-34zM626 191h58v59h-58v-59zM626 263h58v59h-58v-59z" />
<glyph unicode="?" d="M43 126v548q0 52 36.5 89t89.5 37h548q53 0 89.5 -37t36.5 -89v-548q0 -52 -36.5 -89t-89.5 -37h-548q-53 0 -89.5 37t-36.5 89zM183 236h522v230l-237 118q-16 8 -25 8q-7 0 -23 -7l-237 -119v-230zM193 252v198l237 -99zM207 246l237 99l237 -99h-474zM208 466l219 110 q12 4 16 4t16 -4l220 -110h-471zM458 351l237 99v-198z" />
<glyph unicode="@" d="M43 126v548q0 52 36.5 89t89.5 37h548q53 0 89.5 -37t36.5 -89v-548q0 -52 -36.5 -89t-89.5 -37h-548q-53 0 -89.5 37t-36.5 89zM225 406h143v28h-110q6 11 43 42q41 36 52.5 52.5t14.5 40.5q0 27 -19.5 44.5t-51.5 17.5q-33 0 -52.5 -18.5t-19.5 -50.5h25q0 21 13 33.5 t34 12.5q18 0 30.5 -11.5t12.5 -27.5q0 -28 -64 -80q-39 -32 -51 -54v-29zM247 140h456v366h-106v-50h-50v-50h-50v-50h-50v-50h-50v-50h-50v-50h-50v-50h-50v-16z" />
<glyph unicode="A" d="M43 126v548q0 52 36.5 89t89.5 37h548q53 0 89.5 -37t36.5 -89v-548q0 -52 -36.5 -89t-89.5 -37h-548q-53 0 -89.5 37t-36.5 89zM248 193h6v-53h61v53h256v-53h60v53h7v171l-11 194l-9 10h-350l-9 -10l-11 -194v-171zM258 364l10 184h170v-173l-10 -11h-170zM292 261 q0 10 6 16.5t16 6.5t16.5 -6.5t6.5 -16.5t-6.5 -16t-16.5 -6q-22 0 -22 22zM448 375v173h170l10 -184h-170zM549 261q0 10 6 16.5t16 6.5t16.5 -6.5t6.5 -16.5t-6.5 -16t-16.5 -6q-22 0 -22 22z" />
<glyph unicode="B" d="M43 126v548q0 52 36.5 89t89.5 37h548q53 0 89.5 -37t36.5 -89v-548q0 -52 -36.5 -89t-89.5 -37h-548q-53 0 -89.5 37t-36.5 89zM248 193h6v-53h61v53h256v-53h60v53h7v171l-11 194l-9 10h-121l133 87h26v5h-45v-5h3l-135 -87h-72l133 87h19v5h-38v-5h3l-135 -87h-121 l-9 -10l-11 -194v-171zM258 364l10 184h170v-173l-10 -11h-170zM292 261q0 10 6 16.5t16 6.5t16.5 -6.5t6.5 -16.5t-6.5 -16t-16.5 -6q-22 0 -22 22zM448 375v173h170l10 -184h-170zM549 261q0 10 6 16.5t16 6.5t16.5 -6.5t6.5 -16.5t-6.5 -16t-16.5 -6q-22 0 -22 22z" />
<glyph unicode="C" d="M43 126v548q0 52 36.5 89t89.5 37h548q53 0 89.5 -37t36.5 -89v-548q0 -52 -36.5 -89t-89.5 -37h-548q-53 0 -89.5 37t-36.5 89zM269 221q0 -31 25 -56t75 -25h34v64h80v-64h36q51 0 75.5 25t24.5 56v91q0 50 -15.5 107.5t-34.5 95.5q-33 24 -71 24v10h-10v106h31v5h-150 v-5h29v-106h-10v-10q-42 0 -69 -24q-20 -35 -35 -93t-15 -110v-91zM283 334q0 43 13 95q16 65 35 75h2v-170h-50zM338 241q0 8 5.5 14t13.5 6t14 -6t6 -14t-6 -14t-14 -6t-13.5 6t-5.5 14zM338 334v170h210v-170h-210zM403 549v106h80v-106h-80zM411 151l22 -11h21l20 11v15 l-35 -8h-28v-7zM411 171h28l35 8v5l-20 11h-21l-22 -11v-13zM509 241q0 8 5.5 14t13.5 6t14 -6t6 -14t-6 -14t-14 -6t-13.5 6t-5.5 14zM553 334v170h3q20 -10 36 -75q14 -56 14 -95h-53z" />
<glyph unicode="D" d="M43 126v548q0 52 36.5 89t89.5 37h548q53 0 89.5 -37t36.5 -89v-548q0 -52 -36.5 -89t-89.5 -37h-548q-53 0 -89.5 37t-36.5 89zM200 205q0 -27 19 -46t46 -19h130v80h90v-80h136q24 0 43.5 18.5t19.5 43.5v397q0 22 -19.5 41.5t-43.5 19.5h-356q-26 0 -45.5 -19.5 t-19.5 -42.5v-393zM237 300v297q0 12 8.5 21t19.5 9h356q11 0 17.5 -9t6.5 -21v-297q0 -11 -7 -19.5t-16 -8.5h-357q-11 0 -19.5 9t-8.5 19zM247 300q0 -6 5.5 -12t12.5 -6h356q6 0 10 6t4 12v297q0 20 -14 20h-356q-7 0 -12.5 -6t-5.5 -14v-297zM265 230q0 10 6 16.5 t16 6.5t16.5 -6.5t6.5 -16.5t-6.5 -16t-16.5 -6q-22 0 -22 22zM265 373v204q0 9 6 14.5t14 5.5h25q8 0 14 -5.5t6 -14.5v-204q0 -8 -6 -14t-14 -6h-25q-8 0 -14 6t-6 14zM314 203q0 17 15 17q7 0 11.5 -5t4.5 -12q0 -16 -16 -16q-15 0 -15 16zM345 335v242q0 7 6.5 13.5 t13.5 6.5h156q7 0 13.5 -6.5t6.5 -13.5v-242q0 -7 -6.5 -13.5t-13.5 -6.5h-156q-7 0 -13.5 6.5t-6.5 13.5zM409 159l22 -11h21l20 11v15l-35 -8h-28v-7zM409 179h28l35 8v5l-20 11h-21l-22 -11v-13zM541 203q0 17 15 17q7 0 11.5 -5t4.5 -12q0 -16 -16 -16q-15 0 -15 16z M556 373v204q0 9 6 14.5t14 5.5h25q8 0 14 -5.5t6 -14.5v-204q0 -8 -6 -14t-14 -6h-25q-8 0 -14 6t-6 14zM576 230q0 10 6 16.5t16 6.5t16.5 -6.5t6.5 -16.5t-6.5 -16t-16.5 -6q-22 0 -22 22z" />
<glyph unicode="E" d="M43 126v548q0 52 36.5 89t89.5 37h548q53 0 89.5 -37t36.5 -89v-548q0 -52 -36.5 -89t-89.5 -37h-548q-53 0 -89.5 37t-36.5 89zM183 231h20v-91h70v91h342v-91h70v91h20v48l-10 -1v92l-10 10l-30 146q-4 11 -20 11h-382q-17 0 -20 -11l-30 -146l-10 -10v-92h-10v-47z M216 387l28 139h400l28 -139h-456zM246 319q0 11 8 19t19 8t19 -8t8 -19t-8 -19t-19 -8t-19 8t-8 19zM273 551h342l-15 71h-312zM308 590v20h20v-20h-20zM328 570v20h20v-20h-20zM348 590v20h20v-20h-20zM368 570v20h20v-20h-20zM421 590q0 8 6 14t14 6t14 -6t6 -14t-6 -14 t-14 -6t-14 6t-6 14zM434 598h6v-16h2v16h6v2h-14v-2zM498 570v20h20v-20h-20zM518 590v20h20v-20h20v-20h-20v20h-20zM558 590v20h20v-20h-20zM588 319q0 11 8 19t19 8t19 -8t8 -19t-8 -19t-19 -8t-19 8t-8 19z" />
<glyph unicode="F" d="M43 0v121q2 -49 36.5 -84t84.5 -37h-121zM43 400v274q0 52 36.5 89t89.5 37h548q53 0 89.5 -37t36.5 -89v-548q0 -52 -36.5 -89t-89.5 -37h-274v70h-260q-13 0 -18 2l506 506q12 12 12 26q0 15 -11 25.5t-25 10.5t-24 -10l-508 -508q-2 5 -2 18v260h-70z" />
<glyph unicode="G" d="M43 126v548q0 52 36.5 89t89.5 37h548q53 0 89.5 -37t36.5 -89v-274h-70v-260q0 -13 -2 -18l-506 506q-12 12 -26 12q-15 0 -25.5 -11t-10.5 -25t10 -24l508 -508q-5 -2 -18 -2h-260v-70h-274q-53 0 -89.5 37t-36.5 89zM722 0q50 2 84.5 37t36.5 84v-121h-121z" />
<glyph unicode="H" d="M43 126v274h70v260q0 13 2 18l506 -506q12 -12 26 -12q15 0 25.5 11t10.5 25t-10 24l-508 508q5 2 18 2h260v70h274q53 0 89.5 -37t36.5 -89v-548q0 -52 -36.5 -89t-89.5 -37h-548q-53 0 -89.5 37t-36.5 89zM43 679v121h121q-50 -2 -84.5 -37t-36.5 -84z" />
<glyph unicode="I" d="M43 126v548q0 52 36.5 89t89.5 37h274v-70h260q13 0 18 -2l-506 -506q-12 -12 -12 -26q0 -15 11 -25.5t25 -10.5t24 10l508 508q2 -5 2 -18v-260h70v-274q0 -52 -36.5 -89t-89.5 -37h-548q-53 0 -89.5 37t-36.5 89zM722 800h121v-121q-2 49 -37 84t-84 37z" />
<glyph unicode="J" d="M43 126v548q0 52 36.5 89t89.5 37h548q53 0 89.5 -37t36.5 -89v-548q0 -52 -36.5 -89t-89.5 -37h-274q52 0 89 37l169 169q11 11 11 24q0 14 -11 25.5t-25 11.5t-25 -11l-159 -159q-11 -11 -14 -12v529q0 16 -10.5 25.5t-24.5 9.5t-24.5 -9.5t-10.5 -25.5v-529 q-3 1 -14 12l-159 159q-11 11 -25 11t-25 -11t-11 -25t11 -25l169 -169q36 -37 89 -37h-274q-53 0 -89.5 37t-36.5 89z" />
<glyph unicode="K" d="M43 126v548q0 52 36.5 89t89.5 37h274q-53 0 -89 -37l-169 -169q-11 -11 -11 -25t11 -25t25 -11t25 11l159 159q11 11 14 12v-529q0 -16 10.5 -25.5t24.5 -9.5t24.5 9.5t10.5 25.5v529q3 -1 14 -12l159 -159q11 -11 25 -11t25 11.5t11 25.5q0 13 -11 24l-169 169 q-37 37 -89 37h274q53 0 89.5 -37t36.5 -89v-548q0 -52 -36.5 -89t-89.5 -37h-548q-53 0 -89.5 37t-36.5 89z" />
<glyph unicode="L" d="M43 126v548q0 52 36.5 89t89.5 37h548q53 0 89.5 -37t36.5 -89v-274q0 53 -37 89l-169 169q-11 11 -25 11t-25 -11t-11 -25t11 -25l159 -159q11 -11 12 -14h-529q-16 0 -25.5 -10.5t-9.5 -24.5t9.5 -24.5t25.5 -10.5h529q-1 -3 -12 -14l-159 -159q-11 -11 -11 -25 t11.5 -25t25.5 -11q13 0 24 11l169 169q37 37 37 89v-274q0 -52 -36.5 -89t-89.5 -37h-548q-53 0 -89.5 37t-36.5 89z" />
<glyph unicode="M" d="M43 126v274v274q0 52 36.5 89t89.5 37h548q53 0 89.5 -37t36.5 -89v-548q0 -52 -36.5 -89t-89.5 -37h-548q-53 0 -89.5 37t-36.5 89zM43 400q0 -52 37 -89l169 -169q11 -11 24 -11q14 0 25.5 11t11.5 25t-11 25l-159 159q-11 11 -12 14h529q16 0 25.5 10.5t9.5 24.5 t-9.5 24.5t-25.5 10.5h-529q1 3 12 14l159 159q11 11 11 25t-11 25t-25 11t-25 -11l-169 -169q-37 -36 -37 -89z" />
<glyph unicode="N" d="M43 126v548q0 52 36.5 89t89.5 37h548q53 0 89.5 -37t36.5 -89v-548q0 -52 -36.5 -89t-89.5 -37h-548q-53 0 -89.5 37t-36.5 89zM183 338h199v-198h122v198h199v122h-199v200h-122v-200h-199v-122z" />
<glyph unicode="O" d="M43 126v548q0 52 36.5 89t89.5 37h548q53 0 89.5 -37t36.5 -89v-548q0 -52 -36.5 -89t-89.5 -37h-548q-53 0 -89.5 37t-36.5 89zM184 583q0 -56 63 -82v-292q-9 -11 -9 -28t10 -29t24 -12t24.5 12t10.5 29q0 15 -8 26v294q61 26 61 83q0 25 -14.5 46t-38.5 30v-60 l-34 -18l-35 19v59q-25 -10 -39.5 -31t-14.5 -46zM259 179q0 19 14 19t14 -19q0 -18 -14 -18t-14 18zM425 582l3 -3h85v-439h78v439h112v22q-64 26 -112 59h-163l-3 -3v-75z" />
<glyph unicode="P" d="M43 126v548q0 52 36.5 89t89.5 37h548q53 0 89.5 -37t36.5 -89v-548q0 -52 -36.5 -89t-89.5 -37h-548q-53 0 -89.5 37t-36.5 89zM183 173q24 0 43.5 -4t39 -10t32.5 -8v-11h295v11q13 2 31 8t36.5 10t42.5 4v7h-520v-7zM298 249q0 -21 14.5 -36t35.5 -15v-11h195v11 q20 0 35 15.5t15 35.5v29q14 -7 25 -7q18 0 32.5 26t14.5 55q0 48 -38 48q-24 0 -34 -6v37h-295v-182zM337 509q0 -24 11 -46l10 -10q-8 23 -8 49q0 20 7.5 56t7.5 53q0 19 -7 39l-10 10q6 -17 6 -40q0 -20 -8.5 -57t-8.5 -54zM437 499q0 -24 11 -46l10 -10q-8 23 -8 49 q0 20 7.5 56t7.5 53q0 19 -7 39l-10 10q6 -17 6 -40q0 -20 -8.5 -57t-8.5 -54zM530 509q0 -24 11 -46l10 -10q-8 23 -8 49q0 20 7.5 56t7.5 53q0 19 -7 39l-10 10q6 -17 6 -40q0 -20 -8.5 -57t-8.5 -54zM593 295v81q6 9 34 9q23 0 23 -34q0 -25 -11 -45t-21 -20q-18 0 -25 9 z" />
<glyph unicode="Q" d="M43 126v548q0 52 36.5 89t89.5 37h548q53 0 89.5 -37t36.5 -89v-548q0 -52 -36.5 -89t-89.5 -37h-548q-53 0 -89.5 37t-36.5 89zM183 216q0 -32 23 -54t55 -22t55 22t23 54q0 41 -36 65v234q36 24 36 65q0 33 -22.5 56.5t-54.5 23.5t-55.5 -24t-23.5 -56q0 -45 39 -66 v-232q-39 -21 -39 -66zM292 176q18 22 18 47q0 8 -2 12l5 1q3 -8 3 -14q0 -25 -17 -42zM292 626l1 2q26 -4 26 -37q0 -16 -7 -20q1 6 1 16q0 30 -21 39zM353 155q41 -15 90 -15q81 0 147 44t96 116h20v24h-12q12 34 12 75q0 108 -77.5 184.5t-185.5 76.5q-45 0 -90 -16v-11 q46 17 90 17q105 0 179 -73.5t74 -177.5q0 -41 -12 -75h-171v-24h162q-29 -67 -92 -108.5t-140 -41.5q-45 0 -90 16v-11zM363 220q0 -16 12 -27.5t29 -11.5t29.5 11.5t12.5 27.5t-12.5 28t-29.5 12t-29 -11.5t-12 -28.5zM363 576q0 -16 12 -27.5t29 -11.5t29.5 11.5 t12.5 27.5t-12.5 28t-29.5 12t-29 -11.5t-12 -28.5zM368 220q0 14 10.5 24.5t25.5 10.5t26 -10.5t11 -24.5t-11 -24t-26 -10t-25.5 10t-10.5 24zM368 576q0 14 10.5 24.5t25.5 10.5t26 -10.5t11 -24.5t-11 -24t-26 -10t-25.5 10t-10.5 24zM487 243q0 -16 12 -27.5t29 -11.5 t29.5 11.5t12.5 27.5t-12.5 28t-29.5 12t-29 -11.5t-12 -28.5zM487 555q0 -16 12 -27.5t29 -11.5t29.5 11.5t12.5 27.5t-12.5 28t-29.5 12t-29 -11.5t-12 -28.5zM492 243q0 14 10.5 24.5t25.5 10.5t26 -10.5t11 -24.5t-11 -24t-26 -10t-25.5 10t-10.5 24zM492 555 q0 14 10.5 24.5t25.5 10.5t26 -10.5t11 -24.5t-11 -24t-26 -10t-25.5 10t-10.5 24zM564 454q0 -16 12 -27.5t29 -11.5t29.5 11.5t12.5 27.5t-12.5 28t-29.5 12t-29 -11.5t-12 -28.5zM569 454q0 14 10.5 24.5t25.5 10.5t26 -10.5t11 -24.5t-11 -24t-26 -10t-25.5 10t-10.5 24 z" />
<glyph unicode="R" d="M43 126v548q0 52 36.5 89t89.5 37h548q53 0 89.5 -37t36.5 -89v-548q0 -52 -36.5 -89t-89.5 -37h-548q-53 0 -89.5 37t-36.5 89zM183 393l55 -65l110 88l-16 -276q28 7 58 7q21 0 63.5 -4.5t65.5 -4.5q25 0 38 2l-15 280l112 -91l49 64l-161 129h-46l-6 21h-37v3 q0 22 7 22q17 0 26 12.5t9 29.5q0 20 -12.5 34t-37.5 14q-46 0 -46 -48q0 -8 7 -8q8 0 8 8q0 17 6.5 25t24.5 8q35 0 35 -33q0 -28 -27 -28q-15 0 -15 -36v-3h-40l-7 -21h-43z" />
<glyph unicode="S" d="M43 126v548q0 52 36.5 89t89.5 37h548q53 0 89.5 -37t36.5 -89v-548q0 -52 -36.5 -89t-89.5 -37h-548q-53 0 -89.5 37t-36.5 89zM183 400l24 -25h12l10 -10l22 10h9l14 -10h12l11 10h8l6 -7l25 7l17 -10l22 10h10l12 -7l16 7l8 -10h5l9 10l6 -5l8 5l5 -6h9l9 6v-14h59 v-42q0 -10 8 -17.5t19 -7.5h120q11 0 19.5 7.5t8.5 17.5v158q0 10 -8.5 17t-19.5 7h-120q-11 0 -19 -7.5t-8 -16.5v-31h-59v-14h-253l-36 -22v-3h323v-7h-323zM639 400v50h31v-50h-31z" />
<glyph unicode="T" d="M43 126v548q0 52 36.5 89t89.5 37h548q53 0 89.5 -37t36.5 -89v-548q0 -52 -36.5 -89t-89.5 -37h-548q-53 0 -89.5 37t-36.5 89zM291 379q0 -61 43 -103.5t105 -42.5t105.5 42.5t43.5 103.5q0 46 -26.5 83t-68.5 53v20h-28v57h13q24 8 46 8q19 0 43 -8h21v49h-20 q-22 -11 -43 -11q-22 0 -47 11h-13v6h-52v-6h-15q-24 -11 -44 -11q-22 0 -46 11h-17v-49h17q26 8 47 8q22 0 44 -8h14v-57h-28v-20q-42 -16 -68 -53t-26 -83zM321 379q0 48 34.5 82.5t83.5 34.5t84 -34.5t35 -82.5t-35 -82t-84 -34t-83.5 34t-34.5 82zM413 165 q0 -10 8 -17.5t18 -7.5t18 7t8 17q0 11 -10 38t-16 27t-16 -26t-10 -38zM439 145l2 3q2 1 8 3.5t8.5 5t3.5 7.5h1q-1 -18 -23 -19z" />
<glyph unicode="U" d="M43 126v548q0 52 36.5 89t89.5 37h548q53 0 89.5 -37t36.5 -89v-548q0 -52 -36.5 -89t-89.5 -37h-548q-53 0 -89.5 37t-36.5 89zM183 174q0 -16 9 -25t21 -9h208q12 0 21 9t9 25t-9 25t-21 9h-208q-12 0 -21 -9t-9 -25zM198 251q0 -14 9 -23.5t21 -9.5h178q12 0 21 9 t9 24t-9 25t-21 10h-178q-12 0 -21 -10t-9 -25zM213 330q0 -14 9 -24t21 -10h148q12 0 21 9.5t9 23.5q0 15 -9 25t-21 10h-148q-12 0 -21 -10t-9 -24zM228 408q0 -15 9 -24.5t21 -9.5h118q12 0 21 9.5t9 24.5q0 14 -9 24t-21 10h-118q-11 0 -20.5 -10.5t-9.5 -23.5zM243 486 q0 -15 9 -24.5t21 -9.5h88q12 0 21 9.5t9 24.5q0 13 -9.5 23.5t-20.5 10.5h-88q-11 0 -20.5 -10.5t-9.5 -23.5zM251 596q0 -27 19.5 -46.5t46.5 -19.5t46.5 19.5t19.5 46.5t-19.5 46.5t-46.5 19.5t-46.5 -19.5t-19.5 -46.5zM446 265q0 -52 37.5 -88.5t90.5 -36.5q59 0 97 43 q-6 41 -26.5 59.5t-45.5 21.5t-49.5 6t-43 23t-21.5 62q-39 -37 -39 -90zM490 359q3 -42 21 -61t42.5 -22t49.5 -6t45.5 -22t26.5 -61q27 35 27 78q0 52 -37.5 88.5t-90.5 36.5q-48 0 -84 -31z" />
<glyph unicode="V" d="M43 126v548q0 52 36.5 89t89.5 37h548q53 0 89.5 -37t36.5 -89v-548q0 -52 -36.5 -89t-89.5 -37h-548q-53 0 -89.5 37t-36.5 89zM248 140h369v16h-127v275h32l17 7q7 -17 7 -45q0 -17 -7.5 -52.5t-7.5 -65.5q0 -39 13.5 -60t37.5 -21q47 0 47 77q0 35 -12 110.5 t-12 108.5q0 17 1 25l11 61l-13 14l2 1v8h-9l-30 34l-9 -9l21 -25h-33v39q0 10 -8 17t-17 7h-222q-8 0 -14.5 -7t-6.5 -15v-186q0 -8 6.5 -15.5t14.5 -7.5h35v-275h-86v-16zM314 469v156h197v-156h-197zM546 273q0 20 8 62t8 63q0 35 -16 62v110l35 12v-9q0 -20 12 -31 l-3 -19q-3 -9 -3 -24q0 -34 13 -114t13 -113q0 -62 -31 -62q-36 0 -36 63zM588 571q0 2 2 14l8 -13l-3 -20q-7 8 -7 19z" />
<glyph unicode="W" d="M43 126v548q0 52 36.5 89t89.5 37h548q53 0 89.5 -37t36.5 -89v-548q0 -52 -36.5 -89t-89.5 -37h-548q-53 0 -89.5 37t-36.5 89zM183 173q24 0 43.5 -4t39 -10t32.5 -8v-11h295v11q13 2 31 8t36.5 10t42.5 4v7h-520v-7zM183 230q0 -12 5 -12q19 0 48.5 74.5t41.5 129.5v3 q-14 0 -23 9q-24 -42 -48 -106.5t-24 -97.5zM257 438q10 -10 22 -10l1 4q4 12 12.5 46.5t15.5 50.5q1 3 19.5 8t22.5 18q16 51 35 92l-4 2q-26 -43 -38 -88l-7 2q8 35 40 89l-5 2q-18 -25 -45 -87l-6 2q10 35 45 89l-5 2q-33 -44 -49 -88l-5 2q10 36 47 89l-4 2 q-37 -45 -52 -88l-5 2q15 43 50 89l-3 2q-41 -45 -59 -98q0 -5 7 -16t7 -17q0 -3 -1 -5q-4 -12 -36 -96zM329 190q66 0 100 7q10 2 16 2q10 0 35.5 -4.5t41.5 -4.5h32l-94 323q-3 3 -8 3q-12 0 -17 -8q-3 -4 -7 -4q-2 0 -6.5 1t-7.5 1q-6 0 -10 -6zM339 200l68 293q3 5 6 5 q5 0 7 -5q38 -76 38 -164q0 -75 -31 -121q-30 -10 -61 -10q-9 0 -27 2zM424 493q24 0 32 17l86 -310h-20q-13 0 -37.5 4t-39.5 4q-7 0 -11 -1q26 61 26 125q0 76 -36 161zM517 643q0 -60 89 -211l2 -5q10 0 21 11q-11 30 -24.5 72.5t-21 64t-16.5 45t-16.5 35t-15.5 15.5 q-18 0 -18 -27zM609 423l1 -2q13 -57 41 -130t47 -73q5 0 5 12q0 32 -24.5 97.5t-47.5 106.5q-11 -11 -22 -11z" />
<glyph unicode="X" d="M43 126v548q0 52 36.5 89t89.5 37h548q53 0 89.5 -37t36.5 -89v-548q0 -52 -36.5 -89t-89.5 -37h-548q-53 0 -89.5 37t-36.5 89zM183 572l46 -354h17l-19 -78h19l41 78h127l32 -78h22l-15 78h19l15 101q19 3 19 30q0 13 -7 22.5t-19 9.5h-200l-20 125q-7 43 -24 54.5 t-53 11.5zM491 490q45 -5 83 -5v-330l-59 -7v-8h138v8l-60 7v330q37 0 84 5l-19 172h-146z" />
<glyph unicode="Y" d="M43 126v548q0 52 36.5 89t89.5 37h548q53 0 89.5 -37t36.5 -89v-548q0 -52 -36.5 -89t-89.5 -37h-548q-53 0 -89.5 37t-36.5 89zM183 448l57 55l310 -310l-52 -53h205v211l-54 -50l-306 306l54 53h-214v-212zM200 582q0 26 18.5 45t44.5 19t44.5 -19t18.5 -45t-18.5 -45 t-44.5 -19t-44.5 19t-18.5 45zM226 573h8q7 -30 35 -30q7 0 15 3v11q-7 -5 -16 -5q-21 0 -23 21h31l2 7h-34v7h35l2 7h-37q7 20 25 20q7 0 15 -5l2 9q-8 5 -17 5q-28 0 -36 -29h-6l-1 -7h7v-7h-6zM377 410v78h28q30 0 30 -23t-28 -23h-19v-32h-11zM388 451h18q18 0 18 14 t-18 14h-18v-28zM428 429h10l15 -44q0 1 1.5 4.5t2.5 5.5l12 34h10l-20 -59l-6 -12q-5 -8 -13 -8q-4 0 -6 1l-1 8h5q7 0 10 11q1 1 1 2zM471 345q0 21 7.5 29.5t23.5 8.5l22 1q-1 -7 -4.5 -8.5t-16.5 -1.5q-11 0 -16.5 -2.5t-7 -7t-1.5 -13.5q7 12 20 12q12 0 19.5 -8 t7.5 -21q0 -14 -7.5 -22t-19.5 -8q-15 0 -21 9t-6 32zM481 332q0 -19 17 -19q7 0 12 6t5 15q0 20 -17 20t-17 -22zM567 221q0 26 18.5 45t44.5 19t44.5 -19t18.5 -45t-18.5 -45t-44.5 -19t-44.5 19t-18.5 45zM608 205q0 -23 23 -23v-10h6v11q9 0 15.5 6.5t6.5 15.5 q0 19 -22 23v23q8 -2 10 -10l10 1q-3 16 -20 19v4h-6v-4q-21 -3 -21 -21q0 -16 21 -21v-27q-10 0 -13 14zM620 241q0 10 11 11v-23q-11 4 -11 12zM637 192v25q12 -4 12 -12q0 -5 -3.5 -9t-8.5 -4z" />
<glyph unicode="Z" d="M43 126v548q0 52 36.5 89t89.5 37h548q53 0 89.5 -37t36.5 -89v-548q0 -52 -36.5 -89t-89.5 -37h-548q-53 0 -89.5 37t-36.5 89zM183 140h520v408h-144v-98h97v-282h-473v-28zM203 187l5 -4h49l5 4v139l-5 4h-17v2h-1v12q0 4 -5 4t-5 -4v-12h-1v-2h-20l-5 -4v-139z M277 187l5 -4h40l5 4v182l-5 4h-13v1h-2v12q0 7 -6 7q-5 0 -5 -7v-12h-2v-1h-12l-5 -4v-182zM338 189l5 -5h214l5 5v126l-5 4h-78v2h-4q0 13 -7 18t-25 5t-24.5 -5t-6.5 -18h-5v-2h-64l-5 -4v-126zM419 321q0 9 4.5 12.5t19.5 3.5q16 0 20.5 -3.5t4.5 -12.5h-49zM566 484v57 h131v-57h-60l-9 39l-10 -39h-52zM572 525h3v3h115v-3h3v11h-121v-11z" />
<glyph unicode="[" d="M43 126v548q0 52 36.5 89t89.5 37h548q53 0 89.5 -37t36.5 -89v-548q0 -52 -36.5 -89t-89.5 -37h-548q-53 0 -89.5 37t-36.5 89zM113 140q0 -29 20 -49.5t50 -20.5h520q29 0 49.5 20.5t20.5 49.5v520q0 29 -20.5 49.5t-49.5 20.5h-520q-29 0 -49.5 -20.5t-20.5 -49.5 v-520zM183 634q0 9 13 9q10 0 28 -9q21 0 31 -10l118 -118l276 11v-31l-197 -59l154 -154l79 24l18 -21l-47 -36l37 -9l-3 -14h-64l-41 -55h-11v68l-162 162l-53 -230l-28 -1v312l-123 123q-25 25 -25 38z" />
<glyph unicode="\" d="M43 126v548q0 52 36.5 89t89.5 37h548q53 0 89.5 -37t36.5 -89v-548q0 -52 -36.5 -89t-89.5 -37h-548q-53 0 -89.5 37t-36.5 89zM113 140q0 -29 20 -49.5t50 -20.5h520q29 0 49.5 20.5t20.5 49.5v520q0 29 -20.5 49.5t-49.5 20.5h-520q-29 0 -49.5 -20.5t-20.5 -49.5 v-520zM183 557q0 8 10 8t10 -8l38 -50l449 -15l-54 -172h-306l-99 187l-32 43h-6q-10 0 -10 7zM248 497l87 -165h293l49 149zM270 181q0 17 12.5 29.5t30.5 12.5t30.5 -12.5t12.5 -29.5t-12.5 -29t-30.5 -12t-30.5 12t-12.5 29zM282 181q0 -13 9 -22t22 -9t22 9t9 22t-9 22 t-22 9t-22 -9t-9 -22zM372 194v14q48 51 111 51q54 0 104 -51v-14q-50 51 -104 51q-52 0 -111 -51zM604 181q0 17 12.5 29.5t30.5 12.5t30.5 -12.5t12.5 -29.5t-12.5 -29t-30.5 -12t-30.5 12t-12.5 29zM616 181q0 -13 9 -22t22 -9t22 9t9 22t-9 22t-22 9t-22 -9t-9 -22z" />
<glyph unicode="]" d="M43 126v548q0 52 36.5 89t89.5 37h548q53 0 89.5 -37t36.5 -89v-548q0 -52 -36.5 -89t-89.5 -37h-548q-53 0 -89.5 37t-36.5 89zM113 140q0 -29 20 -49.5t50 -20.5h520q29 0 49.5 20.5t20.5 49.5v520q0 29 -20.5 49.5t-49.5 20.5h-520q-29 0 -49.5 -20.5t-20.5 -49.5 v-520zM183 471h17l78 -217h425v-17h-435zM270 181q0 17 12.5 29.5t30.5 12.5t30.5 -12.5t12.5 -29.5t-12.5 -29t-30.5 -12t-30.5 12t-12.5 29zM282 181q0 -13 9 -22t22 -9t22 9t9 22t-9 22t-22 9t-22 -9t-9 -22zM289 270v139l5 4h20v2h1v12q0 4 5 4t5 -4v-12h1v-2h17l5 -4 v-139l-5 -4h-49zM363 270v182l5 4h12v1h2v12q0 7 5 7q6 0 6 -7v-12h2v-1h13l5 -4v-182l-5 -4h-40zM433 271v126l5 4h64v2h5q0 13 6.5 18t24.5 5t25 -5t7 -18h4v-2h78l5 -4v-126l-5 -5h-214zM514 403h49q0 9 -4.5 12.5t-20.5 3.5q-15 0 -19.5 -3.5t-4.5 -12.5zM604 181 q0 17 12.5 29.5t30.5 12.5t30.5 -12.5t12.5 -29.5t-12.5 -29t-30.5 -12t-30.5 12t-12.5 29zM616 181q0 -13 9 -22t22 -9t22 9t9 22t-9 22t-22 9t-22 -9t-9 -22z" />
<glyph unicode="^" d="M43 126v548q0 52 36.5 89t89.5 37h548q53 0 89.5 -37t36.5 -89v-548q0 -52 -36.5 -89t-89.5 -37h-548q-53 0 -89.5 37t-36.5 89zM220 510q0 -108 77 -108q31 0 51 21.5t20 54.5q0 32 -19 52.5t-47 20.5q-36 0 -54 -30q0 59 27 79q11 8 22 8q15 0 27 -10t12 -25h26 q0 22 -19.5 40t-45.5 18q-33 0 -53 -26q-24 -30 -24 -95zM247 140h456v366h-106v-50h-50v-50h-50v-50h-50v-50h-50v-50h-50v-50h-50v-50h-50v-16zM252 478q0 22 12.5 35.5t31.5 13.5t31.5 -13.5t12.5 -36.5t-12.5 -37.5t-30.5 -14.5q-19 0 -32 15.5t-13 37.5z" />
<glyph unicode="_" d="M43 126v548q0 52 36.5 89t89.5 37h548q53 0 89.5 -37t36.5 -89v-548q0 -52 -36.5 -89t-89.5 -37h-548q-53 0 -89.5 37t-36.5 89zM191 538q0 -38 32 -38h5q33 0 33 38v20q0 32 31 32h79q12 0 21 -8.5t9 -23.5v-70q-41 -28 -62.5 -52.5t-34 -62t-12.5 -93.5h70 q0 39 11 67.5t22 40.5t38 33t38 32v105q0 44 -27.5 73t-72.5 29h-79q-46 0 -73.5 -28.5t-27.5 -73.5v-20zM292 140h70v70h-70v-70zM576 140h70v70h-70v-70zM576 318q0 -18 10 -28t25 -10q14 0 24.5 9.5t10.5 27.5v305q0 18 -10.5 28t-24.5 10t-24.5 -10t-10.5 -28v-304z" />
<glyph unicode="`" d="M43 126v548q0 52 36.5 89t89.5 37h548q53 0 89.5 -37t36.5 -89v-548q0 -52 -36.5 -89t-89.5 -37h-548q-53 0 -89.5 37t-36.5 89zM113 140q0 -29 20 -49.5t50 -20.5h520q29 0 49.5 20.5t20.5 49.5v520q0 29 -20.5 49.5t-49.5 20.5h-520q-29 0 -49.5 -20.5t-20.5 -49.5 v-520zM183 140v15h36q-36 24 -36 81q0 53 32 85l310 310q29 29 66 29q38 0 67.5 -28t29.5 -68q0 -28 -18 -58h33v-12h-92l-326 -327h295v-12h-218v-15h-179zM195 237q0 -30 13 -52.5t38 -29.5h10v51h50v50h50v50h50v50h50v50h50v50h50v50h50l12 12h45q13 23 13 46 q0 36 -25.5 60t-59.5 24q-32 0 -59 -27l-306 -306q-31 -31 -31 -78z" />
<glyph unicode="a" d="M43 126v548q0 52 36.5 89t89.5 37h548q53 0 89.5 -37t36.5 -89v-548q0 -52 -36.5 -89t-89.5 -37h-548q-53 0 -89.5 37t-36.5 89zM113 140q0 -29 20 -49.5t50 -20.5h520q29 0 49.5 20.5t20.5 49.5v520q0 29 -20.5 49.5t-49.5 20.5h-520q-29 0 -49.5 -20.5t-20.5 -49.5 v-520zM248 193v171l11 194l9 10h350l9 -10l11 -194v-171h-7v-53h-60v53h-256v-53h-61v53h-6zM258 364h170l10 11v173h-170zM292 261q0 -22 22 -22q10 0 16.5 6t6.5 16t-6.5 16.5t-16.5 6.5t-16 -6.5t-6 -16.5zM448 375l10 -11h170l-10 184h-170v-173zM549 261q0 -22 22 -22 q10 0 16.5 6t6.5 16t-6.5 16.5t-16.5 6.5t-16 -6.5t-6 -16.5z" />
<glyph unicode="b" d="M43 126v548q0 52 36.5 89t89.5 37h548q53 0 89.5 -37t36.5 -89v-548q0 -52 -36.5 -89t-89.5 -37h-548q-53 0 -89.5 37t-36.5 89zM113 140q0 -29 20 -49.5t50 -20.5h520q29 0 49.5 20.5t20.5 49.5v520q0 29 -20.5 49.5t-49.5 20.5h-520q-29 0 -49.5 -20.5t-20.5 -49.5 v-520zM248 193v171l11 194l9 10h121l135 87h-3v5h38v-5h-19l-133 -87h72l135 87h-3v5h45v-5h-26l-133 -87h121l9 -10l11 -194v-171h-7v-53h-60v53h-256v-53h-61v53h-6zM258 364h170l10 11v173h-170zM292 261q0 -22 22 -22q10 0 16.5 6t6.5 16t-6.5 16.5t-16.5 6.5t-16 -6.5 t-6 -16.5zM448 375l10 -11h170l-10 184h-170v-173zM549 261q0 -22 22 -22q10 0 16.5 6t6.5 16t-6.5 16.5t-16.5 6.5t-16 -6.5t-6 -16.5z" />
<glyph unicode="c" d="M43 126v548q0 52 36.5 89t89.5 37h548q53 0 89.5 -37t36.5 -89v-548q0 -52 -36.5 -89t-89.5 -37h-548q-53 0 -89.5 37t-36.5 89zM113 140q0 -29 20 -49.5t50 -20.5h520q29 0 49.5 20.5t20.5 49.5v520q0 29 -20.5 49.5t-49.5 20.5h-520q-29 0 -49.5 -20.5t-20.5 -49.5 v-520zM269 221v91q0 52 15 110t35 93q27 24 69 24v10h10v106h-29v5h150v-5h-31v-106h10v-10q38 0 71 -24q19 -38 34.5 -95.5t15.5 -107.5v-91q0 -31 -24.5 -56t-75.5 -25h-36v64h-80v-64h-34q-50 0 -75 25t-25 56zM283 334h50v170h-2q-19 -10 -35 -75q-13 -52 -13 -95z M338 241q0 -8 5.5 -14t13.5 -6t14 6t6 14t-6 14t-14 6t-13.5 -6t-5.5 -14zM338 334h210v170h-210v-170zM403 549h80v106h-80v-106zM411 151v7h28l35 8v-15l-20 -11h-21zM411 171v13l22 11h21l20 -11v-5l-35 -8h-28zM509 241q0 -8 5.5 -14t13.5 -6t14 6t6 14t-6 14t-14 6 t-13.5 -6t-5.5 -14zM553 334h53q0 39 -14 95q-16 65 -36 75h-3v-170z" />
<glyph unicode="d" d="M43 126v548q0 52 36.5 89t89.5 37h548q53 0 89.5 -37t36.5 -89v-548q0 -52 -36.5 -89t-89.5 -37h-548q-53 0 -89.5 37t-36.5 89zM113 140q0 -29 20 -49.5t50 -20.5h520q29 0 49.5 20.5t20.5 49.5v520q0 29 -20.5 49.5t-49.5 20.5h-520q-29 0 -49.5 -20.5t-20.5 -49.5 v-520zM200 205v393q0 23 19.5 42.5t45.5 19.5h356q24 0 43.5 -19.5t19.5 -41.5v-397q0 -25 -19.5 -43.5t-43.5 -18.5h-136v80h-90v-80h-130q-27 0 -46 19t-19 46zM237 300q0 -10 8.5 -19t19.5 -9h357q9 0 16 8.5t7 19.5v297q0 12 -6.5 21t-17.5 9h-356q-11 0 -19.5 -9 t-8.5 -21v-297zM247 300v297q0 8 5.5 14t12.5 6h356q14 0 14 -20v-297q0 -6 -4 -12t-10 -6h-356q-7 0 -12.5 6t-5.5 12zM265 230q0 -22 22 -22q10 0 16.5 6t6.5 16t-6.5 16.5t-16.5 6.5t-16 -6.5t-6 -16.5zM265 373q0 -8 6 -14t14 -6h25q8 0 14 6t6 14v204q0 9 -6 14.5 t-14 5.5h-25q-8 0 -14 -5.5t-6 -14.5v-204zM314 203q0 -16 15 -16q16 0 16 16q0 7 -4.5 12t-11.5 5q-15 0 -15 -17zM345 335q0 -7 6.5 -13.5t13.5 -6.5h156q7 0 13.5 6.5t6.5 13.5v242q0 7 -6.5 13.5t-13.5 6.5h-156q-7 0 -13.5 -6.5t-6.5 -13.5v-242zM409 159v7h28l35 8 v-15l-20 -11h-21zM409 179v13l22 11h21l20 -11v-5l-35 -8h-28zM541 203q0 -16 15 -16q16 0 16 16q0 7 -4.5 12t-11.5 5q-15 0 -15 -17zM556 373q0 -8 6 -14t14 -6h25q8 0 14 6t6 14v204q0 9 -6 14.5t-14 5.5h-25q-8 0 -14 -5.5t-6 -14.5v-204zM576 230q0 -22 22 -22 q10 0 16.5 6t6.5 16t-6.5 16.5t-16.5 6.5t-16 -6.5t-6 -16.5z" />
<glyph unicode="e" d="M43 126v548q0 52 36.5 89t89.5 37h548q53 0 89.5 -37t36.5 -89v-548q0 -52 -36.5 -89t-89.5 -37h-548q-53 0 -89.5 37t-36.5 89zM113 140q0 -29 20 -49.5t50 -20.5h520q29 0 49.5 20.5t20.5 49.5v520q0 29 -20.5 49.5t-49.5 20.5h-520q-29 0 -49.5 -20.5t-20.5 -49.5 v-520zM183 231v47h10v92l10 10l30 146q3 11 20 11h382q16 0 20 -11l30 -146l10 -10v-92l10 1v-48h-20v-91h-70v91h-342v-91h-70v91h-20zM216 387h456l-28 139h-400zM246 319q0 -11 8 -19t19 -8t19 8t8 19t-8 19t-19 8t-19 -8t-8 -19zM273 551l15 71h312l15 -71h-342z M308 590h20v20h-20v-20zM328 570h20v20h20v20h-20v-20h-20v-20zM368 570h20v20h-20v-20zM421 590q0 -8 6 -14t14 -6t14 6t6 14t-6 14t-14 6t-14 -6t-6 -14zM434 598v2h14v-2h-6v-16h-2v16h-6zM498 570h20v20h-20v-20zM518 590h20v-20h20v20h-20v20h-20v-20zM558 590h20v20 h-20v-20zM588 319q0 -11 8 -19t19 -8t19 8t8 19t-8 19t-19 8t-19 -8t-8 -19z" />
<glyph unicode="f" d="M43 126v274h70v-260q0 -13 2 -18l508 508q10 10 24 10t25 -10.5t11 -25.5q0 -14 -12 -26l-506 -506q5 -2 18 -2h260v-70h-274q-53 0 -89.5 37t-36.5 89zM43 460v214q0 52 36.5 89t89.5 37h548q53 0 89.5 -37t36.5 -89v-548q0 -52 -36.5 -89t-89.5 -37h-214v70h200 q29 0 49.5 20.5t20.5 49.5v520q0 28 -23.5 48t-53.5 20h-525q-28 0 -43 -18.5t-15 -49.5v-200h-70z" />
<glyph unicode="g" d="M43 126v548q0 52 36.5 89t89.5 37h548q53 0 89.5 -37t36.5 -89v-214h-70v200q0 29 -20.5 49.5t-49.5 20.5h-520q-29 0 -49.5 -20.5t-20.5 -49.5v-520q0 -29 20.5 -49.5t49.5 -20.5h200v-70h-214q-53 0 -89.5 37t-36.5 89zM203 604q0 15 11 25.5t25 10.5t24 -10l508 -508 q2 5 2 18v260h70v-274q0 -52 -36.5 -89t-89.5 -37h-274v70h260q13 0 18 2l-506 506q-12 12 -12 26z" />
<glyph unicode="h" d="M43 126v214h70v-200q0 -29 20.5 -49.5t49.5 -20.5h520q29 0 49.5 20.5t20.5 49.5v520q0 29 -20.5 49.5t-49.5 20.5h-200v70h214q53 0 89.5 -37t36.5 -89v-548q0 -52 -36.5 -89t-89.5 -37h-548q-53 0 -89.5 37t-36.5 89zM43 400v274q0 52 36.5 89t89.5 37h274v-70h-260 q-13 0 -18 -2l506 -506q12 -12 12 -26q0 -15 -11 -25.5t-25 -10.5t-24 10l-508 508q-2 -5 -2 -18v-260h-70z" />
<glyph unicode="i" d="M43 126v548q0 52 36.5 89t89.5 37h214v-70h-200q-29 0 -49.5 -20.5t-20.5 -49.5v-520q0 -29 20.5 -49.5t49.5 -20.5h520q29 0 49.5 20.5t20.5 49.5v200h70v-214q0 -52 -36.5 -89t-89.5 -37h-548q-53 0 -89.5 37t-36.5 89zM203 196q0 14 12 26l506 506q-5 2 -18 2h-260v70 h274q53 0 89.5 -37t36.5 -89v-274h-70v260q0 13 -2 18l-508 -508q-10 -10 -24 -10t-25 10.5t-11 25.5z" />
<glyph unicode="j" d="M43 126v548q0 52 36.5 89t89.5 37h548q53 0 89.5 -37t36.5 -89v-548q0 -52 -36.5 -89t-89.5 -37h-156l70 70h72q29 0 49.5 20.5t20.5 49.5v520q0 29 -20.5 49.5t-49.5 20.5h-520q-29 0 -49.5 -20.5t-20.5 -49.5v-520q0 -29 20 -49.5t50 -20.5h72l70 -70h-156 q-53 0 -89.5 37t-36.5 89zM174 231q0 14 11 25t25 11t25 -11l159 -159q11 -11 14 -12v529q0 16 10.5 25.5t24.5 9.5t24.5 -9.5t10.5 -25.5v-529q3 1 14 12l159 159q11 11 25 11t25 -11.5t11 -25.5q0 -13 -11 -24l-169 -169q-37 -37 -89 -37q-53 0 -89 37l-169 169 q-11 11 -11 25z" />
<glyph unicode="k" d="M43 126v548q0 52 36.5 89t89.5 37h156l-70 -70h-72q-30 0 -50 -20.5t-20 -49.5v-520q0 -29 20.5 -49.5t49.5 -20.5h520q29 0 49.5 20.5t20.5 49.5v520q0 29 -20.5 49.5t-49.5 20.5h-72l-70 70h156q53 0 89.5 -37t36.5 -89v-548q0 -52 -36.5 -89t-89.5 -37h-548 q-53 0 -89.5 37t-36.5 89zM174 569q0 14 11 25l169 169q36 37 89 37q52 0 89 -37l169 -169q11 -11 11 -24q0 -14 -11 -25.5t-25 -11.5t-25 11l-159 159q-11 11 -14 12v-529q0 -16 -10.5 -25.5t-24.5 -9.5t-24.5 9.5t-10.5 25.5v529q-3 -1 -14 -12l-159 -159q-11 -11 -25 -11 t-25 11t-11 25z" />
<glyph unicode="l" d="M43 126v548q0 52 36.5 89t89.5 37h548q53 0 89.5 -37t36.5 -89v-156l-70 70v72q0 30 -20.5 50t-49.5 20h-520q-29 0 -49.5 -20.5t-20.5 -49.5v-520q0 -29 20.5 -49.5t49.5 -20.5h520q29 0 49.5 20.5t20.5 49.5v72l70 70v-156q0 -52 -36.5 -89t-89.5 -37h-548 q-53 0 -89.5 37t-36.5 89zM194 400q0 14 9.5 24.5t25.5 10.5h529q-1 3 -12 14l-159 159q-11 11 -11 25t11 25t25 11t25 -11l169 -169q37 -36 37 -89q0 -52 -37 -89l-169 -169q-11 -11 -24 -11q-14 0 -25.5 11t-11.5 25t11 25l159 159q11 11 12 14h-529q-16 0 -25.5 10.5 t-9.5 24.5z" />
<glyph unicode="m" d="M43 126v156l70 -70v-72q0 -29 20.5 -49.5t49.5 -20.5h520q29 0 49.5 20.5t20.5 49.5v520q0 29 -20.5 49.5t-49.5 20.5h-520q-29 0 -49.5 -20t-20.5 -50v-72l-70 -70v156q0 52 36.5 89t89.5 37h548q53 0 89.5 -37t36.5 -89v-548q0 -52 -36.5 -89t-89.5 -37h-548 q-53 0 -89.5 37t-36.5 89zM43 400q0 53 37 89l169 169q11 11 25 11t25 -11t11 -25t-11 -25l-159 -159q-11 -11 -12 -14h529q16 0 25.5 -10.5t9.5 -24.5t-9.5 -24.5t-25.5 -10.5h-529q1 -3 12 -14l159 -159q11 -11 11 -25t-11.5 -25t-25.5 -11q-13 0 -24 11l-169 169 q-37 37 -37 89z" />
<glyph unicode="n" d="M43 126v548q0 52 36.5 89t89.5 37h548q53 0 89.5 -37t36.5 -89v-548q0 -52 -36.5 -89t-89.5 -37h-548q-53 0 -89.5 37t-36.5 89zM113 140q0 -29 20 -49.5t50 -20.5h520q29 0 49.5 20.5t20.5 49.5v520q0 29 -20.5 49.5t-49.5 20.5h-520q-29 0 -49.5 -20.5t-20.5 -49.5 v-520zM183 338v122h199v200h122v-200h199v-122h-199v-198h-122v198h-199z" />
<glyph unicode="o" d="M43 126v548q0 52 36.5 89t89.5 37h548q53 0 89.5 -37t36.5 -89v-548q0 -52 -36.5 -89t-89.5 -37h-548q-53 0 -89.5 37t-36.5 89zM113 140q0 -29 20 -49.5t50 -20.5h520q29 0 49.5 20.5t20.5 49.5v520q0 29 -20.5 49.5t-49.5 20.5h-520q-29 0 -49.5 -20.5t-20.5 -49.5 v-520zM184 583q0 25 14.5 46t39.5 31v-59l35 -19l34 18v60q24 -9 38.5 -30t14.5 -46q0 -57 -61 -83v-294q8 -11 8 -26q0 -17 -10.5 -29t-24.5 -12t-24 12t-10 29t9 28v292q-63 26 -63 82zM259 179q0 -18 14 -18t14 18q0 19 -14 19t-14 -19zM425 582v75l3 3h163 q48 -33 112 -59v-22h-112v-439h-78v439h-85z" />
<glyph unicode="p" d="M43 126v548q0 52 36.5 89t89.5 37h548q53 0 89.5 -37t36.5 -89v-548q0 -52 -36.5 -89t-89.5 -37h-548q-53 0 -89.5 37t-36.5 89zM113 140q0 -29 20 -49.5t50 -20.5h520q29 0 49.5 20.5t20.5 49.5v520q0 29 -20.5 49.5t-49.5 20.5h-520q-29 0 -49.5 -20.5t-20.5 -49.5 v-520zM183 173v7h520v-7q-24 0 -42.5 -4t-36.5 -10t-31 -8v-11h-295v11q-13 2 -32.5 8t-39 10t-43.5 4zM298 249v182h295v-37q10 6 34 6q38 0 38 -48q0 -29 -14.5 -55t-32.5 -26q-11 0 -25 7v-29q0 -20 -15 -35.5t-35 -15.5v-11h-195v11q-21 0 -35.5 15t-14.5 36zM337 509 q0 17 8.5 54t8.5 57q0 23 -6 40l10 -10q7 -20 7 -39q0 -17 -7.5 -53t-7.5 -56q0 -26 8 -49l-10 10q-11 22 -11 46zM437 499q0 17 8.5 54t8.5 57q0 23 -6 40l10 -10q7 -20 7 -39q0 -17 -7.5 -53t-7.5 -56q0 -26 8 -49l-10 10q-11 22 -11 46zM530 509q0 17 8.5 54t8.5 57 q0 23 -6 40l10 -10q7 -20 7 -39q0 -17 -7.5 -53t-7.5 -56q0 -26 8 -49l-10 10q-11 22 -11 46zM593 295q7 -9 25 -9q10 0 21 20t11 45q0 34 -23 34q-28 0 -34 -9v-81z" />
<glyph unicode="q" d="M43 126v548q0 52 36.5 89t89.5 37h548q53 0 89.5 -37t36.5 -89v-548q0 -52 -36.5 -89t-89.5 -37h-548q-53 0 -89.5 37t-36.5 89zM113 140q0 -29 20 -49.5t50 -20.5h520q29 0 49.5 20.5t20.5 49.5v520q0 29 -20.5 49.5t-49.5 20.5h-520q-29 0 -49.5 -20.5t-20.5 -49.5 v-520zM183 216q0 45 39 66v232q-39 21 -39 66q0 32 23.5 56t55.5 24t54.5 -23.5t22.5 -56.5q0 -41 -36 -65v-234q36 -24 36 -65q0 -32 -23 -54t-55 -22t-55 22t-23 54zM292 176l7 4q17 17 17 42q0 6 -3 14l-5 -1q2 -4 2 -12q0 -25 -18 -47zM292 626q21 -9 21 -39 q0 -10 -1 -16q7 4 7 20q0 33 -26 37zM353 155v11q45 -16 90 -16q77 0 140 41.5t92 108.5h-162v24h171q12 34 12 75q0 104 -74 177.5t-179 73.5q-44 0 -90 -17v11q45 16 90 16q108 0 185.5 -76.5t77.5 -184.5q0 -41 -12 -75h12v-24h-20q-30 -72 -96 -116t-147 -44 q-49 0 -90 15zM363 220q0 17 12 28.5t29 11.5t29.5 -12t12.5 -28t-12.5 -27.5t-29.5 -11.5t-29 11.5t-12 27.5zM363 576q0 17 12 28.5t29 11.5t29.5 -12t12.5 -28t-12.5 -27.5t-29.5 -11.5t-29 11.5t-12 27.5zM368 220q0 -14 10.5 -24t25.5 -10t26 10t11 24t-11 24.5 t-26 10.5t-25.5 -10.5t-10.5 -24.5zM368 576q0 -14 10.5 -24t25.5 -10t26 10t11 24t-11 24.5t-26 10.5t-25.5 -10.5t-10.5 -24.5zM487 243q0 17 12 28.5t29 11.5t29.5 -12t12.5 -28t-12.5 -27.5t-29.5 -11.5t-29 11.5t-12 27.5zM487 555q0 17 12 28.5t29 11.5t29.5 -12 t12.5 -28t-12.5 -27.5t-29.5 -11.5t-29 11.5t-12 27.5zM492 243q0 -14 10.5 -24t25.5 -10t26 10t11 24t-11 24.5t-26 10.5t-25.5 -10.5t-10.5 -24.5zM492 555q0 -14 10.5 -24t25.5 -10t26 10t11 24t-11 24.5t-26 10.5t-25.5 -10.5t-10.5 -24.5zM564 454q0 17 12 28.5 t29 11.5t29.5 -12t12.5 -28t-12.5 -27.5t-29.5 -11.5t-29 11.5t-12 27.5zM569 454q0 -14 10.5 -24t25.5 -10t26 10t11 24t-11 24.5t-26 10.5t-25.5 -10.5t-10.5 -24.5z" />
<glyph unicode="r" d="M43 126v548q0 52 36.5 89t89.5 37h548q53 0 89.5 -37t36.5 -89v-548q0 -52 -36.5 -89t-89.5 -37h-548q-53 0 -89.5 37t-36.5 89zM113 140q0 -29 20 -49.5t50 -20.5h520q29 0 49.5 20.5t20.5 49.5v520q0 29 -20.5 49.5t-49.5 20.5h-520q-29 0 -49.5 -20.5t-20.5 -49.5 v-520zM183 393l165 129h43l7 21h40v3q0 36 15 36q27 0 27 28q0 33 -35 33q-18 0 -24.5 -8t-6.5 -25q0 -8 -8 -8q-7 0 -7 8q0 48 46 48q25 0 37.5 -14t12.5 -34q0 -17 -9 -29.5t-26 -12.5q-7 0 -7 -22v-3h37l6 -21h46l161 -129l-49 -64l-112 91l15 -280q-13 -2 -38 -2 q-23 0 -65.5 4.5t-63.5 4.5q-30 0 -58 -7l16 276l-110 -88z" />
<glyph unicode="s" d="M43 126v548q0 52 36.5 89t89.5 37h548q53 0 89.5 -37t36.5 -89v-548q0 -52 -36.5 -89t-89.5 -37h-548q-53 0 -89.5 37t-36.5 89zM113 140q0 -29 20 -49.5t50 -20.5h520q29 0 49.5 20.5t20.5 49.5v520q0 29 -20.5 49.5t-49.5 20.5h-520q-29 0 -49.5 -20.5t-20.5 -49.5 v-520zM183 400h323v7h-323v3l36 22h253v14h59v31q0 9 8 16.5t19 7.5h120q11 0 19.5 -7t8.5 -17v-158q0 -10 -8.5 -17.5t-19.5 -7.5h-120q-11 0 -19 7.5t-8 17.5v42h-59v14l-9 -6h-9l-5 6l-8 -5l-6 5l-9 -10h-5l-8 10l-16 -7l-12 7h-10l-22 -10l-17 10l-25 -7l-6 7h-8 l-11 -10h-12l-14 10h-9l-22 -10l-10 10h-12zM639 400h31v50h-31v-50z" />
<glyph unicode="t" d="M43 126v548q0 52 36.5 89t89.5 37h548q53 0 89.5 -37t36.5 -89v-548q0 -52 -36.5 -89t-89.5 -37h-548q-53 0 -89.5 37t-36.5 89zM113 140q0 -29 20 -49.5t50 -20.5h520q29 0 49.5 20.5t20.5 49.5v520q0 29 -20.5 49.5t-49.5 20.5h-520q-29 0 -49.5 -20.5t-20.5 -49.5 v-520zM291 379q0 46 26 83t68 53v20h28v57h-14q-22 8 -44 8q-21 0 -47 -8h-17v49h17q24 -11 46 -11q20 0 44 11h15v6h52v-6h13q25 -11 47 -11q21 0 43 11h20v-49h-21q-24 8 -43 8q-22 0 -46 -8h-13v-57h28v-20q42 -16 68.5 -53t26.5 -83q0 -61 -43.5 -103.5t-105.5 -42.5 t-105 42.5t-43 103.5zM321 379q0 -48 34.5 -82t83.5 -34t84 34t35 82t-35 82.5t-84 34.5t-83.5 -34.5t-34.5 -82.5zM413 165q0 12 10 38t16 26t16 -27t10 -38q0 -10 -8 -17t-18 -7t-18 7.5t-8 17.5zM439 145q22 1 23 19h-1q-1 -5 -3.5 -7.5t-8.5 -5t-8 -3.5z" />
<glyph unicode="u" d="M43 126v548q0 52 36.5 89t89.5 37h548q53 0 89.5 -37t36.5 -89v-548q0 -52 -36.5 -89t-89.5 -37h-548q-53 0 -89.5 37t-36.5 89zM113 140q0 -29 20 -49.5t50 -20.5h520q29 0 49.5 20.5t20.5 49.5v520q0 29 -20.5 49.5t-49.5 20.5h-520q-29 0 -49.5 -20.5t-20.5 -49.5 v-520zM183 174q0 16 9 25t21 9h208q12 0 21 -9t9 -25t-9 -25t-21 -9h-208q-12 0 -21 9t-9 25zM198 251q0 15 9 25t21 10h178q12 0 21 -10t9 -25t-9 -24t-21 -9h-178q-12 0 -21 9.5t-9 23.5zM213 330q0 14 9 24t21 10h148q12 0 21 -10t9 -25q0 -14 -9 -23.5t-21 -9.5h-148 q-12 0 -21 10t-9 24zM228 408q0 13 9.5 23.5t20.5 10.5h118q12 0 21 -10t9 -24q0 -15 -9 -24.5t-21 -9.5h-118q-12 0 -21 9.5t-9 24.5zM243 486q0 13 9.5 23.5t20.5 10.5h88q11 0 20.5 -10.5t9.5 -23.5q0 -15 -9 -24.5t-21 -9.5h-88q-12 0 -21 9.5t-9 24.5zM251 596 q0 27 19.5 46.5t46.5 19.5t46.5 -19.5t19.5 -46.5t-19.5 -46.5t-46.5 -19.5t-46.5 19.5t-19.5 46.5zM446 265q0 53 39 90q3 -42 21.5 -62t43 -23t49.5 -6t45.5 -21.5t26.5 -59.5q-38 -43 -97 -43q-53 0 -90.5 36.5t-37.5 88.5zM490 359q36 31 84 31q53 0 90.5 -36.5 t37.5 -88.5q0 -43 -27 -78q-6 42 -26.5 61t-45.5 22t-49.5 6t-42.5 22t-21 61z" />
<glyph unicode="v" d="M43 126v548q0 52 36.5 89t89.5 37h548q53 0 89.5 -37t36.5 -89v-548q0 -52 -36.5 -89t-89.5 -37h-548q-53 0 -89.5 37t-36.5 89zM113 140q0 -29 20 -49.5t50 -20.5h520q29 0 49.5 20.5t20.5 49.5v520q0 29 -20.5 49.5t-49.5 20.5h-520q-29 0 -49.5 -20.5t-20.5 -49.5 v-520zM248 140v16h86v275h-35q-8 0 -14.5 7.5t-6.5 15.5v186q0 8 6.5 15t14.5 7h222q9 0 17 -7t8 -17v-39h33l-21 25l9 9l30 -34h9v-8l-2 -1l13 -14l-11 -61q-1 -8 -1 -25q0 -33 12 -108.5t12 -110.5q0 -77 -47 -77q-24 0 -37.5 21t-13.5 60q0 30 7.5 65.5t7.5 52.5 q0 27 -7 45l-17 -7h-32v-275h127v-16h-369zM314 469h197v156h-197v-156zM546 273q0 -63 36 -63q31 0 31 62q0 33 -13 113t-13 114q0 15 3 24l3 19q-12 11 -12 31v9l-35 -12v-110q16 -27 16 -62q0 -21 -8 -63t-8 -62zM588 571q0 -11 7 -19l3 20l-8 13q-2 -12 -2 -14z" />
<glyph unicode="w" d="M43 126v548q0 52 36.5 89t89.5 37h548q53 0 89.5 -37t36.5 -89v-548q0 -52 -36.5 -89t-89.5 -37h-548q-53 0 -89.5 37t-36.5 89zM113 140q0 -29 20 -49.5t50 -20.5h520q29 0 49.5 20.5t20.5 49.5v520q0 29 -20.5 49.5t-49.5 20.5h-520q-29 0 -49.5 -20.5t-20.5 -49.5 v-520zM183 173v7h520v-7q-24 0 -42.5 -4t-36.5 -10t-31 -8v-11h-295v11q-13 2 -32.5 8t-39 10t-43.5 4zM183 230q0 32 24.5 97.5t47.5 106.5q9 -9 23 -9v-3q-7 -32 -22 -78t-35 -86t-33 -40q-5 0 -5 12zM257 438q32 84 36 96q1 2 1 5q0 6 -7 17t-7 16q18 53 59 98l3 -2 q-35 -46 -50 -89l5 -2q15 43 52 88l4 -2q-37 -53 -47 -89l5 -2q16 44 49 88l5 -2q-35 -54 -45 -89l6 -2q27 62 45 87l5 -2q-32 -54 -40 -89l7 -2q12 45 38 88l4 -2q-19 -41 -35 -92q-4 -13 -22.5 -18t-19.5 -8q-7 -16 -15.5 -50.5t-12.5 -46.5l-1 -4q-12 0 -22 10zM329 190 l75 310q4 6 10 6q3 0 7.5 -1t6.5 -1q4 0 7 4q5 8 17 8q5 0 8 -3l94 -323h-32q-16 0 -41.5 4.5t-35.5 4.5q-6 0 -16 -2q-34 -7 -100 -7zM339 200q18 -2 27 -2q31 0 61 10q31 46 31 121q0 88 -38 164q-2 5 -7 5q-3 0 -6 -5zM424 493q36 -85 36 -161q0 -64 -26 -125q4 1 11 1 q15 0 39.5 -4t37.5 -4h20l-86 310q-8 -17 -32 -17zM517 643q0 27 18 27q8 -4 15.5 -15.5t16.5 -35t16.5 -45t21 -64t24.5 -72.5q-11 -11 -21 -11l-2 5q-89 151 -89 211zM609 423q11 0 22 11q24 -42 48 -106.5t24 -97.5q0 -12 -5 -12q-19 0 -47 73t-41 130z" />
<glyph unicode="x" d="M43 126v548q0 52 36.5 89t89.5 37h548q53 0 89.5 -37t36.5 -89v-548q0 -52 -36.5 -89t-89.5 -37h-548q-53 0 -89.5 37t-36.5 89zM113 140q0 -29 20 -49.5t50 -20.5h520q29 0 49.5 20.5t20.5 49.5v520q0 29 -20.5 49.5t-49.5 20.5h-520q-29 0 -49.5 -20.5t-20.5 -49.5 v-520zM183 572q18 0 28.5 -1.5t21.5 -7.5t17 -20t10 -37l20 -125h200q12 0 19 -9.5t7 -22.5q0 -27 -19 -30l-15 -101h-19l15 -78h-22l-32 78h-127l-41 -78h-19l19 78h-17zM491 490l21 172h146l19 -172q-47 -5 -84 -5v-330l60 -7v-8h-138v8l59 7v330q-38 0 -83 5z" />
<glyph unicode="y" d="M43 126v548q0 52 36.5 89t89.5 37h548q53 0 89.5 -37t36.5 -89v-548q0 -52 -36.5 -89t-89.5 -37h-548q-53 0 -89.5 37t-36.5 89zM113 140q0 -29 20 -49.5t50 -20.5h520q29 0 49.5 20.5t20.5 49.5v520q0 29 -20.5 49.5t-49.5 20.5h-520q-29 0 -49.5 -20.5t-20.5 -49.5 v-520zM183 448v212h214l-54 -53l306 -306l54 50v-211h-205l52 53l-310 310zM200 582q0 -26 18.5 -45t44.5 -19t44.5 19t18.5 45t-18.5 45t-44.5 19t-44.5 -19t-18.5 -45zM226 573l1 7h6v7h-7l1 7h6q8 29 36 29q9 0 17 -5l-2 -9q-8 5 -15 5q-18 0 -25 -20h37l-2 -7h-35v-7h34 l-2 -7h-31q2 -21 23 -21q9 0 16 5v-11q-8 -3 -15 -3q-28 0 -35 30h-8zM377 410h11v32h19q28 0 28 23t-30 23h-28v-78zM388 451v28h18q18 0 18 -14t-18 -14h-18zM428 429l21 -57q0 -1 -1 -2q-1 -4 -2 -6t-3 -3.5t-5 -1.5h-5l1 -8q2 -1 6 -1q8 0 13 8l6 12l20 59h-10l-12 -34 q-1 -2 -2.5 -5.5t-1.5 -4.5l-15 44h-10zM471 345q0 -15 3 -24t8.5 -13t15.5 -4q12 0 19.5 8t7.5 22q0 13 -7.5 21t-19.5 8t-20 -12q0 13 4.5 18t20.5 5q13 0 16.5 1.5t4.5 8.5l-22 -1q-11 0 -17.5 -3.5t-10 -12t-3.5 -22.5zM481 332q0 22 17 22t17 -20q0 -9 -5 -15t-12 -6 q-17 0 -17 19zM567 221q0 -26 18.5 -45t44.5 -19q17 0 31.5 8.5t23 23.5t8.5 32q0 26 -18.5 45t-44.5 19t-44.5 -19t-18.5 -45zM608 205l10 1q3 -14 13 -14v27q-21 5 -21 21q0 18 21 21v4h6v-4q17 -3 20 -19l-10 -1q-2 8 -10 10v-23q22 -4 22 -23q0 -9 -6.5 -15.5 t-15.5 -6.5v-11h-6v10q-23 0 -23 23zM620 241q0 -8 11 -12v23q-11 -1 -11 -11zM637 192q5 0 8.5 4t3.5 9q0 7 -12 12v-25z" />
<glyph unicode="z" d="M43 126v548q0 52 36.5 89t89.5 37h548q53 0 89.5 -37t36.5 -89v-548q0 -52 -36.5 -89t-89.5 -37h-548q-53 0 -89.5 37t-36.5 89zM113 140q0 -29 20 -49.5t50 -20.5h520q29 0 49.5 20.5t20.5 49.5v520q0 29 -20.5 49.5t-49.5 20.5h-520q-29 0 -49.5 -20.5t-20.5 -49.5 v-520zM183 140v28h473v282h-97v98h144v-408h-520zM203 187v139l5 4h20v2h1v12q0 4 5 4t5 -4v-12h1v-2h17l5 -4v-139l-5 -4h-49zM277 187v182l5 4h12v1h2v12q0 7 5 7q6 0 6 -7v-12h2v-1h13l5 -4v-182l-5 -4h-40zM338 189v126l5 4h64v2h5q0 13 6.5 18t24.5 5t25 -5t7 -18h4v-2 h78l5 -4v-126l-5 -5h-214zM419 321h49q0 9 -4.5 12.5t-20.5 3.5q-15 0 -19.5 -3.5t-4.5 -12.5zM566 484h52l10 39l9 -39h60v57h-131v-57zM572 525v11h121v-11h-3v3h-115v-3h-3z" />
<glyph unicode="{" d="M43 126v548q0 52 36.5 89t89.5 37h548q53 0 89.5 -37t36.5 -89v-548q0 -52 -36.5 -89t-89.5 -37h-548q-53 0 -89.5 37t-36.5 89zM183 634q0 -13 25 -38l123 -123v-312l28 1l53 230l162 -162v-68h11l41 55h64l3 14l-37 9l47 36l-18 21l-79 -24l-154 154l197 59v31 l-276 -11l-118 118q-10 10 -31 10q-18 9 -28 9q-13 0 -13 -9z" />
<glyph unicode="|" d="M43 126v548q0 52 36.5 89t89.5 37h548q53 0 89.5 -37t36.5 -89v-548q0 -52 -36.5 -89t-89.5 -37h-548q-53 0 -89.5 37t-36.5 89zM183 557q0 -7 10 -7h6l32 -43l99 -187h306l54 172l-449 15l-38 50q0 8 -10 8t-10 -8zM248 497l429 -16l-49 -149h-293zM270 181 q0 -17 12.5 -29t30.5 -12t30.5 12t12.5 29t-12.5 29.5t-30.5 12.5t-30.5 -12.5t-12.5 -29.5zM282 181q0 13 9 22t22 9t22 -9t9 -22t-9 -22t-22 -9t-22 9t-9 22zM372 194q59 51 111 51q54 0 104 -51v14q-50 51 -104 51q-63 0 -111 -51v-14zM604 181q0 -17 12.5 -29t30.5 -12 t30.5 12t12.5 29t-12.5 29.5t-30.5 12.5t-30.5 -12.5t-12.5 -29.5zM616 181q0 13 9 22t22 9t22 -9t9 -22t-9 -22t-22 -9t-22 9t-9 22z" />
<glyph unicode="}" d="M43 126v548q0 52 36.5 89t89.5 37h548q53 0 89.5 -37t36.5 -89v-548q0 -52 -36.5 -89t-89.5 -37h-548q-53 0 -89.5 37t-36.5 89zM183 471l85 -234h435v17h-425l-78 217h-17zM270 181q0 -17 12.5 -29t30.5 -12t30.5 12t12.5 29t-12.5 29.5t-30.5 12.5t-30.5 -12.5 t-12.5 -29.5zM282 181q0 13 9 22t22 9t22 -9t9 -22t-9 -22t-22 -9t-22 9t-9 22zM289 270l5 -4h49l5 4v139l-5 4h-17v2h-1v12q0 4 -5 4t-5 -4v-12h-1v-2h-20l-5 -4v-139zM363 270l5 -4h40l5 4v182l-5 4h-13v1h-2v12q0 7 -6 7q-5 0 -5 -7v-12h-2v-1h-12l-5 -4v-182zM433 271 l5 -5h214l5 5v126l-5 4h-78v2h-4q0 13 -7 18t-25 5t-24.5 -5t-6.5 -18h-5v-2h-64l-5 -4v-126zM514 403q0 9 4.5 12.5t19.5 3.5q16 0 20.5 -3.5t4.5 -12.5h-49zM604 181q0 -17 12.5 -29t30.5 -12t30.5 12t12.5 29t-12.5 29.5t-30.5 12.5t-30.5 -12.5t-12.5 -29.5zM616 181 q0 13 9 22t22 9t22 -9t9 -22t-9 -22t-22 -9t-22 9t-9 22z" />
<glyph unicode="~" d="M43 126v548q0 52 36.5 89t89.5 37h548q53 0 89.5 -37t36.5 -89v-548q0 -52 -36.5 -89t-89.5 -37h-548q-53 0 -89.5 37t-36.5 89zM183 140h179v15h218v12h-295l326 327h92v12h-33q18 30 18 58q0 40 -29.5 68t-67.5 28q-37 0 -66 -29l-310 -310q-32 -32 -32 -85 q0 -57 36 -81h-36v-15zM195 237q0 47 31 78l306 306q27 27 59 27q34 0 59.5 -24t25.5 -60q0 -23 -13 -46h-45l-12 -12h-50v-50h-50v-50h-50v-50h-50v-50h-50v-50h-50v-50h-50v-51h-10q-25 7 -38 29.5t-13 52.5z" />
<glyph unicode="&#xa0;" />
<glyph unicode="&#xa6;" d="M43 126v548q0 52 36.5 89t89.5 37h548q53 0 89.5 -37t36.5 -89v-548q0 -52 -36.5 -89t-89.5 -37h-548q-53 0 -89.5 37t-36.5 89zM183 557q0 -7 10 -7h6l32 -43l99 -187h306l54 172l-449 15l-38 50q0 8 -10 8t-10 -8zM248 497l429 -16l-49 -149h-293zM270 181 q0 -17 12.5 -29t30.5 -12t30.5 12t12.5 29t-12.5 29.5t-30.5 12.5t-30.5 -12.5t-12.5 -29.5zM282 181q0 13 9 22t22 9t22 -9t9 -22t-9 -22t-22 -9t-22 9t-9 22zM372 194q59 51 111 51q54 0 104 -51v14q-50 51 -104 51q-63 0 -111 -51v-14zM604 181q0 -17 12.5 -29t30.5 -12 t30.5 12t12.5 29t-12.5 29.5t-30.5 12.5t-30.5 -12.5t-12.5 -29.5zM616 181q0 13 9 22t22 9t22 -9t9 -22t-9 -22t-22 -9t-22 9t-9 22z" />
<glyph unicode="&#xad;" d="M43 126v548q0 52 36.5 89t89.5 37h548q53 0 89.5 -37t36.5 -89v-548q0 -52 -36.5 -89t-89.5 -37h-548q-53 0 -89.5 37t-36.5 89zM113 140q0 -29 20 -49.5t50 -20.5h520q29 0 49.5 20.5t20.5 49.5v520q0 29 -20.5 49.5t-49.5 20.5h-520q-29 0 -49.5 -20.5t-20.5 -49.5 v-520zM191 538v20q0 45 27.5 73.5t73.5 28.5h79q45 0 72.5 -29t27.5 -73v-105q-11 -11 -38 -32t-38 -33t-22 -40.5t-11 -67.5h-70q0 56 12.5 93.5t34 62t62.5 52.5v70q0 15 -9 23.5t-21 8.5h-79q-31 0 -31 -32v-20q0 -38 -33 -38h-5q-32 0 -32 38zM292 140v70h70v-70h-70z M576 140v70h70v-70h-70zM576 318v304q0 18 10.5 28t24.5 10t24.5 -10t10.5 -28v-305q0 -18 -10.5 -27.5t-24.5 -9.5q-15 0 -25 10t-10 28z" />
<glyph unicode="&#x2000;" horiz-adv-x="400" />
<glyph unicode="&#x2001;" horiz-adv-x="800" />
<glyph unicode="&#x2002;" horiz-adv-x="400" />
<glyph unicode="&#x2003;" horiz-adv-x="800" />
<glyph unicode="&#x2004;" horiz-adv-x="266" />
<glyph unicode="&#x2005;" horiz-adv-x="200" />
<glyph unicode="&#x2006;" horiz-adv-x="133" />
<glyph unicode="&#x2007;" horiz-adv-x="133" />
<glyph unicode="&#x2008;" horiz-adv-x="100" />
<glyph unicode="&#x2009;" horiz-adv-x="160" />
<glyph unicode="&#x200a;" horiz-adv-x="44" />
<glyph unicode="&#x2010;" d="M43 126v548q0 52 36.5 89t89.5 37h548q53 0 89.5 -37t36.5 -89v-548q0 -52 -36.5 -89t-89.5 -37h-548q-53 0 -89.5 37t-36.5 89zM113 140q0 -29 20 -49.5t50 -20.5h520q29 0 49.5 20.5t20.5 49.5v520q0 29 -20.5 49.5t-49.5 20.5h-520q-29 0 -49.5 -20.5t-20.5 -49.5 v-520zM191 538v20q0 45 27.5 73.5t73.5 28.5h79q45 0 72.5 -29t27.5 -73v-105q-11 -11 -38 -32t-38 -33t-22 -40.5t-11 -67.5h-70q0 56 12.5 93.5t34 62t62.5 52.5v70q0 15 -9 23.5t-21 8.5h-79q-31 0 -31 -32v-20q0 -38 -33 -38h-5q-32 0 -32 38zM292 140v70h70v-70h-70z M576 140v70h70v-70h-70zM576 318v304q0 18 10.5 28t24.5 10t24.5 -10t10.5 -28v-305q0 -18 -10.5 -27.5t-24.5 -9.5q-15 0 -25 10t-10 28z" />
<glyph unicode="&#x2011;" d="M43 126v548q0 52 36.5 89t89.5 37h548q53 0 89.5 -37t36.5 -89v-548q0 -52 -36.5 -89t-89.5 -37h-548q-53 0 -89.5 37t-36.5 89zM113 140q0 -29 20 -49.5t50 -20.5h520q29 0 49.5 20.5t20.5 49.5v520q0 29 -20.5 49.5t-49.5 20.5h-520q-29 0 -49.5 -20.5t-20.5 -49.5 v-520zM191 538v20q0 45 27.5 73.5t73.5 28.5h79q45 0 72.5 -29t27.5 -73v-105q-11 -11 -38 -32t-38 -33t-22 -40.5t-11 -67.5h-70q0 56 12.5 93.5t34 62t62.5 52.5v70q0 15 -9 23.5t-21 8.5h-79q-31 0 -31 -32v-20q0 -38 -33 -38h-5q-32 0 -32 38zM292 140v70h70v-70h-70z M576 140v70h70v-70h-70zM576 318v304q0 18 10.5 28t24.5 10t24.5 -10t10.5 -28v-305q0 -18 -10.5 -27.5t-24.5 -9.5q-15 0 -25 10t-10 28z" />
<glyph unicode="&#x2012;" d="M43 126v548q0 52 36.5 89t89.5 37h548q53 0 89.5 -37t36.5 -89v-548q0 -52 -36.5 -89t-89.5 -37h-548q-53 0 -89.5 37t-36.5 89zM113 140q0 -29 20 -49.5t50 -20.5h520q29 0 49.5 20.5t20.5 49.5v520q0 29 -20.5 49.5t-49.5 20.5h-520q-29 0 -49.5 -20.5t-20.5 -49.5 v-520zM191 538v20q0 45 27.5 73.5t73.5 28.5h79q45 0 72.5 -29t27.5 -73v-105q-11 -11 -38 -32t-38 -33t-22 -40.5t-11 -67.5h-70q0 56 12.5 93.5t34 62t62.5 52.5v70q0 15 -9 23.5t-21 8.5h-79q-31 0 -31 -32v-20q0 -38 -33 -38h-5q-32 0 -32 38zM292 140v70h70v-70h-70z M576 140v70h70v-70h-70zM576 318v304q0 18 10.5 28t24.5 10t24.5 -10t10.5 -28v-305q0 -18 -10.5 -27.5t-24.5 -9.5q-15 0 -25 10t-10 28z" />
<glyph unicode="&#x2013;" horiz-adv-x="590" d="M43 126v548q0 52 23 89t56 37h342q33 0 56 -37t23 -89v-548q0 -52 -23 -89t-56 -37h-342q-33 0 -56 37t-23 89zM87 140q0 -29 12.5 -49.5t30.5 -20.5h326q18 0 30.5 20.5t12.5 49.5v520q0 29 -12.5 49.5t-30.5 20.5h-326q-18 0 -30.5 -20.5t-12.5 -49.5v-520zM136 538v20 q0 45 17 73.5t46 28.5h49q28 0 45 -29t17 -73v-105q-6 -11 -23 -32t-24 -33t-14 -40.5t-7 -67.5h-43q0 56 7.5 93.5t21 62t39.5 52.5v70q0 15 -5.5 23.5t-13.5 8.5h-49q-20 0 -20 -32v-20q0 -38 -20 -38h-3q-20 0 -20 38zM199 140v70h43v-70h-43zM376 140v70h44v-70h-44z M376 318v304q0 18 6.5 28t15.5 10t15.5 -10t6.5 -28v-305q0 -18 -6.5 -27.5t-15.5 -9.5t-15.5 10t-6.5 28z" />
<glyph unicode="&#x2014;" horiz-adv-x="1090" d="M43 126v548q0 52 45.5 89t111.5 37h686q66 0 111.5 -37t45.5 -89v-548q0 -52 -45.5 -89t-111.5 -37h-686q-66 0 -111.5 37t-45.5 89zM130 140q0 -29 25 -49.5t63 -20.5h650q36 0 62 20.5t26 49.5v520q0 29 -26 49.5t-62 20.5h-650q-36 0 -62 -20.5t-26 -49.5v-520z M228 538v20q0 45 34.5 73.5t91.5 28.5h99q56 0 90.5 -29t34.5 -73v-105q-14 -11 -47.5 -32t-47.5 -33t-27.5 -40.5t-13.5 -67.5h-88q0 56 16 93.5t42.5 62t77.5 52.5v70q0 15 -11 23.5t-26 8.5h-99q-38 0 -38 -32v-20q0 -38 -42 -38h-6q-40 0 -40 38zM354 140v70h88v-70h-88 zM709 140v70h88v-70h-88zM709 318v304q0 18 13.5 28t30.5 10t30.5 -10t13.5 -28v-305q0 -18 -13.5 -27.5t-30.5 -9.5q-19 0 -31.5 10t-12.5 28z" />
<glyph unicode="&#x201a;" d="M43 126v548q0 52 36.5 89t89.5 37h548q53 0 89.5 -37t36.5 -89v-548q0 -52 -36.5 -89t-89.5 -37h-548q-53 0 -89.5 37t-36.5 89zM113 140q0 -29 20 -49.5t50 -20.5h520q29 0 49.5 20.5t20.5 49.5v520q0 29 -20.5 49.5t-49.5 20.5h-520q-29 0 -49.5 -20.5t-20.5 -49.5 v-520zM190 142v518h513v-518h-15v503h-483v-503h-15zM222 220v40h8v78l9 9l25 124q3 10 18 10h326q15 0 17 -10l26 -124l9 -9v-78h8v-40h-17v-78h-60v78h-292v-78h-60v78h-17zM250 353h391l-25 118h-342zM276 295q0 -10 6.5 -16.5t16.5 -6.5t16.5 6.5t6.5 16.5t-6.5 16 t-16.5 6t-16.5 -6t-6.5 -16zM568 295q0 -10 7 -16.5t16 -6.5q10 0 17 6.5t7 16.5t-6.5 16t-17.5 6q-9 0 -16 -6.5t-7 -15.5z" />
<glyph unicode="&#x202f;" horiz-adv-x="160" />
<glyph unicode="&#x205f;" horiz-adv-x="200" />
<glyph unicode="&#xe000;" horiz-adv-x="800" d="M0 0v800h800v-800h-800z" />
</font>
</defs>
</svg>
