<?xml version="1.0" standalone="no"?>
<!DOCTYPE svg PUBLIC "-//W3C//DTD SVG 1.1//EN" "http://www.w3.org/Graphics/SVG/1.1/DTD/svg11.dtd" >
<svg xmlns="http://www.w3.org/2000/svg">
<metadata></metadata>
<defs>
<font id="oxygenbold_italic" horiz-adv-x="522" >
<font-face units-per-em="1000" ascent="800" descent="-200" />
<missing-glyph horiz-adv-x="197" />
<glyph horiz-adv-x="1000" />
<glyph horiz-adv-x="1000" />
<glyph unicode="&#xd;" horiz-adv-x="0" />
<glyph unicode=" "  horiz-adv-x="197" />
<glyph unicode="&#x09;" horiz-adv-x="197" />
<glyph unicode="&#xa0;" horiz-adv-x="197" />
<glyph unicode="!" horiz-adv-x="186" d="M28 68q4 32 30 55.5t57 23.5t49.5 -23.5t13.5 -55.5t-29.5 -55t-55.5 -23t-50 23t-15 55zM103 222l16 363l17 121h120l-17 -121l-82 -363h-54z" />
<glyph unicode="&#x22;" horiz-adv-x="300" d="M111 458l17 251h102l-35 -251h-84zM251 458l20 251h100l-36 -251h-84z" />
<glyph unicode="#" horiz-adv-x="494" d="M42 186l20 90h92l49 161h-88l20 90h95l61 183h91l-59 -183h73l58 183h92l-60 -183h67l-22 -89h-73l-53 -162h74l-22 -90h-79l-63 -197h-91l63 197h-71l-63 -197h-92l64 197h-83zM243 276h73l51 162h-73z" />
<glyph unicode="$" horiz-adv-x="574" d="M37 51l51 106q30 -23 80 -38t102 -17l28 202l-50 19q-34 12 -58.5 26.5t-47 37.5t-31.5 57t-3 77q13 91 82 143t167 57l11 79h48l-11 -78q125 -5 185 -56l-49 -98q-54 39 -152 43l-25 -184l30 -11q42 -16 68.5 -30t54.5 -38t38.5 -60.5t3.5 -84.5q-14 -97 -84 -150.5 t-173 -61.5l-12 -87h-48l12 86q-139 3 -217 61zM250 535q-6 -37 9.5 -56t48.5 -31l10 -4l23 167q-81 -9 -91 -76zM318 104q90 12 99 82q6 41 -13 62.5t-60 38.5z" />
<glyph unicode="%" horiz-adv-x="802" d="M90 515q12 83 65.5 138.5t130.5 55.5q81 0 119.5 -54t26.5 -138v-1q-12 -82 -68 -138t-135 -56q-78 0 -114.5 54.5t-24.5 138.5zM125 -20l529 726l2 2h105q-1 -2 -3 -4l-526 -724h-107zM182 515q-15 -108 60 -108q38 0 61.5 30t30.5 79q7 50 -8 79.5t-53 29.5t-61 -30 t-30 -80zM474 182v1q0 87 55 140t139 53q83 0 120 -53t25 -138q-12 -82 -65 -137.5t-129 -55.5q-79 0 -118 54t-27 136zM573 182q-7 -49 7.5 -77.5t52.5 -28.5q72 0 88 109q7 49 -8.5 78t-56.5 29t-58 -28t-25 -82z" />
<glyph unicode="&#x26;" horiz-adv-x="645" d="M47 199q10 74 57 123t122 88q-28 39 -40 72.5t-6 76.5q11 82 67 123.5t129 41.5q72 0 122 -39.5t39 -116.5q-9 -64 -53.5 -106t-114.5 -77l131 -174q43 45 79 104l73 -59q-41 -66 -94 -122l79 -107l-109 -35l-53 71q-106 -74 -217 -74q-46 0 -85 11.5t-71.5 35 t-47.5 65.5t-7 98zM166 211q-8 -61 23.5 -88.5t87.5 -27.5q67 0 137 47l-139 207q-97 -55 -109 -138zM285 555q-7 -49 34 -107q22 12 34 20t29 22t26 30.5t12 37.5q5 34 -10.5 51t-45.5 17q-69 0 -79 -71z" />
<glyph unicode="'" horiz-adv-x="159" d="M110 458l18 251h102l-35 -251h-85z" />
<glyph unicode="(" horiz-adv-x="292" d="M87 310q17 122 64.5 220t122.5 201h124q-6 -9 -16.5 -25t-37.5 -64.5t-49.5 -96t-44.5 -113t-30 -122.5q-12 -90 2.5 -195.5t35.5 -166.5l21 -60h-124q-45 104 -65 202t-3 220z" />
<glyph unicode=")" horiz-adv-x="290" d="M-19 -112q6 9 16.5 25t37.5 64.5t49.5 96.5t44.5 113.5t30 122.5q12 90 -2.5 195.5t-35.5 165.5l-21 60h124q46 -104 65.5 -201.5t2.5 -219.5q-17 -123 -64.5 -221t-122.5 -201h-124z" />
<glyph unicode="*" horiz-adv-x="481" d="M96 517l56 91l127 -72l13 169h98l-36 -169l148 72l30 -91l-163 -60l94 -146l-99 -59l-66 151l-109 -151l-82 59l135 146z" />
<glyph unicode="+" horiz-adv-x="544" d="M63 225l14 97h193l27 194h99l-27 -194h192l-14 -97h-193l-27 -195h-100l27 195h-191z" />
<glyph unicode="," horiz-adv-x="197" d="M-4 -149l90 258h113l-118 -258h-85z" />
<glyph unicode="-" horiz-adv-x="325" d="M62 211l14 95h261l-13 -95h-262z" />
<glyph unicode="." horiz-adv-x="198" d="M36 68q4 32 30.5 55.5t57.5 23.5t49.5 -23.5t13.5 -55.5q-4 -32 -29.5 -55t-56.5 -23t-50 23t-15 55z" />
<glyph unicode="/" horiz-adv-x="418" d="M12 -87l380 818h106l-382 -818h-104z" />
<glyph unicode="0" horiz-adv-x="598" d="M94 354q10 74 32.5 137.5t58.5 116.5t92 83.5t125 30.5q56 0 97.5 -20.5t64.5 -55.5t36.5 -82t12.5 -100t-7 -110q-10 -74 -32 -136.5t-58 -115t-91.5 -82.5t-125.5 -30t-117.5 30.5t-67.5 81.5t-26 116.5t6 135.5zM234 361h1v-3q-8 -65 -10 -121.5t20.5 -95t69.5 -38.5 q118 0 153 255q7 63 8.5 118.5t-21 93t-69.5 37.5q-36 0 -63 -20.5t-44 -58.5t-27 -77t-18 -90z" />
<glyph unicode="1" horiz-adv-x="320" d="M95 527l14 104l144 76h113l-99 -707h-130l81 581z" />
<glyph unicode="2" horiz-adv-x="464" d="M25 0l16 114l233 238q80 80 91 156q6 42 -18.5 70.5t-64.5 28.5q-75 0 -146 -59l-21 104q84 70 194 70q98 0 153 -57t41 -157q-7 -51 -38 -104.5t-58.5 -84.5t-68.5 -71l-151 -145h252l-24 -103h-390z" />
<glyph unicode="3" horiz-adv-x="480" d="M29 52l48 99q14 -15 38.5 -26t54 -16.5t58.5 -5.5q46 0 78 27.5t38 70.5q5 35 -3 58t-30.5 34.5t-50 15.5t-71.5 5h-26l15 108h26q79 0 122.5 20t51.5 75q2 16 -2 32t-14.5 29t-29.5 21t-44 8q-86 0 -153 -40l-20 100q76 55 202 55q98 0 151 -55.5t41 -140.5 q-5 -36 -21.5 -66t-44.5 -53t-65 -35q60 -16 87.5 -64.5t16.5 -115.5q-14 -97 -88.5 -149.5t-178.5 -52.5q-127 0 -186 62z" />
<glyph unicode="4" horiz-adv-x="568" d="M60 151l13 91l317 464h176l-63 -450h79l-21 -105h-73l-21 -151h-140l22 151h-289zM215 256h149l40 290z" />
<glyph unicode="5" horiz-adv-x="509" d="M53 59l52 99q7 -6 19.5 -15.5t48.5 -25.5t69 -16q59 0 92.5 35t41.5 93q8 57 -15 93t-72 36q-50 0 -89 -38l-82 16l69 370h363l-22 -108h-259l-29 -159q51 19 98 19q89 0 137 -64t33 -167q-15 -108 -83.5 -172.5t-177.5 -64.5q-47 0 -95.5 17t-73.5 35z" />
<glyph unicode="6" horiz-adv-x="552" d="M55 225q6 42 26 84t37.5 66t47.5 61l228 270h166l-231 -263q27 5 39 5q103 0 159 -62t42 -162q-15 -106 -96.5 -170t-191.5 -64q-114 0 -177.5 63.5t-48.5 171.5zM193 218q-8 -58 16.5 -90.5t79.5 -32.5q57 0 94 34t45 92q18 126 -101 126q-116 0 -134 -129z" />
<glyph unicode="7" horiz-adv-x="455" d="M96 0l291 601h-278l15 105h422l-11 -80l-308 -626h-131z" />
<glyph unicode="8" horiz-adv-x="519" d="M50 190q17 121 138 181q-93 56 -77 165q13 90 83.5 138t167.5 48q98 0 155 -48t44 -138q-16 -107 -117 -165q97 -60 80 -181q-14 -95 -88.5 -147.5t-176.5 -52.5t-162.5 52.5t-46.5 147.5zM176 196q-15 -102 97 -102t127 103q13 99 -93 131q-118 -33 -131 -132zM226 530 q-14 -98 91 -125q112 28 126 125q6 41 -21 64.5t-75 23.5t-81.5 -23.5t-39.5 -64.5z" />
<glyph unicode="9" horiz-adv-x="564" d="M99 488q15 106 96.5 170t191.5 64q114 0 177.5 -63.5t48.5 -171.5q-6 -42 -26 -84t-37.5 -66t-47.5 -61l-229 -276h-166l232 269q-27 -5 -39 -5q-103 0 -159 62t-42 162zM241 491q-18 -126 101 -126q115 0 133 129q8 58 -16.5 90.5t-79.5 32.5q-57 0 -93.5 -34t-44.5 -92 z" />
<glyph unicode=":" horiz-adv-x="208" d="M40 0l19 135h133l-19 -135h-133zM94 385l19 135h133l-19 -135h-133z" />
<glyph unicode=";" horiz-adv-x="197" d="M21 -159l65 278h113l-97 -278h-81zM103 385l19 135h133l-19 -135h-133z" />
<glyph unicode="&#x3c;" horiz-adv-x="491" d="M50 241l9 61l490 233l-15 -107l-341 -156l297 -151l-15 -107z" />
<glyph unicode="=" horiz-adv-x="537" d="M53 138l13 96h474l-14 -96h-473zM77 312l13 97h474l-14 -97h-473z" />
<glyph unicode="&#x3e;" horiz-adv-x="492" d="M21 19l16 107l340 148l-295 161l15 107l424 -240l-10 -63z" />
<glyph unicode="?" horiz-adv-x="410" d="M104 68q4 32 30 55.5t57 23.5t49.5 -23.5t13.5 -55.5t-29.5 -55t-55.5 -23t-50 23t-15 55zM114 668q89 54 187 54q69 0 119.5 -44t38.5 -126q-7 -49 -41 -97.5t-92 -114t-93 -119.5h-55q19 63 60 122.5t75 105.5t39 83q6 42 -15 67.5t-65 25.5q-70 0 -136 -42z" />
<glyph unicode="@" horiz-adv-x="750" d="M65 279q23 159 147 276q54 50 126.5 81.5t150.5 31.5q135 0 216 -91q90 -99 68 -248q-12 -85 -55.5 -150t-104.5 -98q-39 -21 -78 -21q-65 0 -82 60q-54 -52 -113 -52q-65 0 -95.5 47.5t-20.5 119.5q15 106 91.5 182t169.5 76q54 0 129 -29l10 -4l-4 -13 q-6 -18 -35 -99.5t-42 -124.5q-7 -26 -9 -40q-3 -21 2.5 -28.5t21.5 -7.5q46 0 80 56t44 128q16 118 -39 184t-166 66q-8 12 -29 12q-58 0 -180 -96h-2q-18 0 -60.5 -91t-47.5 -127q-20 -140 45 -222t197 -82q119 0 208 69l11 8l42 -62l-13 -10q-110 -92 -262 -92 q-81 0 -147 29.5t-106 77.5q-93 114 -68 284zM323 230q-10 -72 41 -72h4q29 2 53 23.5t44 65.5t30.5 74t26.5 84q-30 4 -48 4q-55 0 -98 -53.5t-53 -125.5z" />
<glyph unicode="A" horiz-adv-x="594" d="M-5 0l343 706h127l134 -706h-127l-42 217h-195l-101 -217h-139zM277 306h134l-32 239z" />
<glyph unicode="B" horiz-adv-x="604" d="M57 0l99 706h227q49 0 87 -4.5t71.5 -16.5t54.5 -32t30 -51.5t3 -74.5q-13 -90 -107 -144q103 -48 85 -176q-15 -107 -93.5 -157t-202.5 -50h-254zM210 99h96q74 0 114 24.5t49 88.5q9 65 -19.5 90.5t-101.5 25.5h-105zM256 425h104q60 0 92.5 18t38.5 64q9 63 -25 81 t-120 18h-64z" />
<glyph unicode="C" horiz-adv-x="584" d="M84 358q24 165 131 264.5t250 99.5q128 0 191 -69l-49 -103q-55 57 -149 57q-87 0 -151.5 -68t-80.5 -182q-17 -123 27.5 -188.5t132.5 -65.5q95 0 168 53l18 -104q-90 -62 -210 -62q-139 0 -220.5 99t-57.5 269z" />
<glyph unicode="D" horiz-adv-x="689" d="M57 0l99 706h180q96 0 168.5 -19.5t123.5 -60.5t71 -110.5t7 -164.5q-23 -168 -139 -259.5t-289 -91.5h-221zM212 109h91q110 0 178.5 62t84.5 178q19 136 -37.5 191.5t-195.5 55.5h-53z" />
<glyph unicode="E" horiz-adv-x="518" d="M57 0l99 706h431l-25 -107h-281l-25 -175h271l-15 -106h-271l-30 -211l306 -4l-20 -103h-440z" />
<glyph unicode="F" horiz-adv-x="477" d="M57 0l99 706h416l-24 -107h-268l-26 -182h259l-15 -106h-258l-44 -311h-139z" />
<glyph unicode="G" horiz-adv-x="653" d="M84 358q22 159 126 261.5t260 102.5q141 0 211 -69l-54 -95q-72 49 -164 49q-95 0 -157 -63.5t-80 -186.5q-16 -113 22.5 -183.5t132.5 -70.5q71 0 122 28l22 154h-141l19 101h257l-46 -330q-134 -66 -246 -66q-153 0 -230.5 100t-53.5 268z" />
<glyph unicode="H" horiz-adv-x="678" d="M57 0l99 706h139l-40 -289h289l40 289h140l-99 -706h-140l44 315h-288l-45 -315h-139z" />
<glyph unicode="I" horiz-adv-x="261" d="M63 0l99 706h140l-99 -706h-140z" />
<glyph unicode="J" horiz-adv-x="291" d="M-34 -148l7 105h37q50 0 69 22.5t28 83.5l90 643h140l-90 -638q-17 -121 -72.5 -168.5t-187.5 -47.5h-21z" />
<glyph unicode="K" horiz-adv-x="605" d="M57 0l99 706h139l-41 -294l271 294h165l-298 -322l227 -384h-161l-182 321l-40 -37l-40 -284h-139z" />
<glyph unicode="L" horiz-adv-x="462" d="M57 0l99 706h139l-84 -600h268l-23 -106h-399z" />
<glyph unicode="M" horiz-adv-x="796" d="M57 0l99 706h132l151 -445l274 445h129l-99 -706h-125l66 464l-220 -363h-98l-119 367l-66 -468h-124z" />
<glyph unicode="N" horiz-adv-x="666" d="M57 0l99 706h116l245 -476l66 476h128l-99 -706h-119l-242 476l-66 -476h-128z" />
<glyph unicode="O" horiz-adv-x="733" d="M83 355q24 170 132 268.5t254 98.5q147 0 226.5 -98.5t55.5 -268.5q-23 -169 -131 -267t-254 -98t-226 98t-57 267zM225 353q-16 -115 24 -182.5t134 -67.5t153.5 67.5t75.5 182.5q16 116 -23.5 185t-134.5 69q-94 0 -153.5 -69t-75.5 -185z" />
<glyph unicode="P" horiz-adv-x="557" d="M57 0l99 706h223q125 0 187.5 -54t47.5 -166q-33 -230 -285 -230q-62 0 -96 3l-37 -259h-139zM247 360q11 -1 74 -1q141 0 157 122q8 58 -21 88.5t-91 30.5h-85z" />
<glyph unicode="Q" horiz-adv-x="778" d="M83 355q24 170 132 268.5t254 98.5q147 0 226.5 -98.5t55.5 -268.5q-12 -84 -47 -153t-86 -115.5t-115 -71.5q37 -81 116 -171l-80 -73q-39 34 -76.5 97t-59.5 124q-18 -2 -37 -2q-146 0 -226 98t-57 267zM225 353q-16 -115 24 -182.5t134 -67.5t153.5 67.5t75.5 182.5 q11 76 -2 132t-53 89t-103 33q-94 0 -153.5 -69t-75.5 -185z" />
<glyph unicode="R" horiz-adv-x="601" d="M57 0l99 706h257q128 0 185 -42.5t41 -158.5q-20 -140 -147 -187q21 -31 49 -114l66 -204h-146l-48 168l-40 123q-6 1 -41 1h-94l-41 -292h-140zM252 395h121q64 0 96.5 25.5t40.5 82.5q7 50 -19.5 73.5t-85.5 23.5h-124z" />
<glyph unicode="S" horiz-adv-x="550" d="M37 51l51 106q32 -24 85.5 -39.5t108.5 -15.5q124 0 135 84q6 45 -16.5 66.5t-72.5 40.5l-80 30q-34 12 -58.5 26.5t-47 37.5t-31.5 57t-3 77q14 97 90 149t182 52q144 0 210 -56l-49 -98q-61 44 -176 44q-104 0 -115 -77q-6 -37 9.5 -56t48.5 -31l86 -32 q42 -16 68.5 -30t54.5 -38t38.5 -60.5t3.5 -84.5q-15 -104 -95 -158.5t-195 -54.5q-150 0 -232 61z" />
<glyph unicode="T" horiz-adv-x="499" d="M72 599l14 107h524l-15 -107h-192l-84 -599h-140l84 599h-191z" />
<glyph unicode="U" horiz-adv-x="640" d="M87 263l62 443h140l-61 -436q-13 -90 10.5 -129t97.5 -39q73 0 107.5 39t47.5 129l61 436h140l-62 -443q-39 -273 -310 -273q-136 0 -194 70t-39 203z" />
<glyph unicode="V" horiz-adv-x="603" d="M94 706h135l102 -531l242 531h135l-344 -706h-119z" />
<glyph unicode="W" horiz-adv-x="952" d="M93 706h134l57 -517l236 517h111l75 -522l218 522h134l-314 -706h-128l-68 519l-234 -519h-126z" />
<glyph unicode="X" horiz-adv-x="612" d="M-16 0l296 356l-174 350h152l118 -257l199 257h143l-281 -349l190 -357h-159l-126 256l-207 -256h-151z" />
<glyph unicode="Y" horiz-adv-x="567" d="M83 706h140l120 -295l202 295h138l-286 -420l-41 -286h-139l40 286z" />
<glyph unicode="Z" horiz-adv-x="550" d="M27 0l12 84l414 515h-327l15 107h495l-11 -78l-417 -522h340l-14 -106h-507z" />
<glyph unicode="[" horiz-adv-x="283" d="M44 -92l121 858h211l-12 -89h-72l-96 -680h72l-12 -89h-212z" />
<glyph unicode="\" horiz-adv-x="441" d="M116 713h102l201 -771h-102z" />
<glyph unicode="]" horiz-adv-x="280" d="M2 -92l13 89h72l96 680h-72l12 89h212l-121 -858h-212z" />
<glyph unicode="^" horiz-adv-x="536" d="M57 269l280 435h58l161 -435h-98l-109 313l-194 -313h-98z" />
<glyph unicode="_" horiz-adv-x="520" d="M11 -158l12 92h457l-13 -92h-456z" />
<glyph unicode="`" horiz-adv-x="221" d="M86 740h147l84 -166h-98q-26 33 -76 95t-57 71z" />
<glyph unicode="a" horiz-adv-x="479" d="M48 132q5 37 20 64t34 43.5t54.5 29t67.5 19t88 14.5l32 6l3 21q7 45 -2.5 62.5t-51.5 19.5q-59 0 -155 -32l-12 95q83 39 199 39q85 0 126.5 -40.5t30.5 -119.5l-49 -353h-102l-5 56q-40 -33 -74 -49.5t-76 -16.5q-66 0 -101.5 38.5t-26.5 103.5zM168 138q-4 -27 8 -43 t39 -16q29 0 49.5 9t52.5 30l16 112l-33 -6q-31 -5 -48.5 -9t-38 -13t-31.5 -25t-14 -39z" />
<glyph unicode="b" horiz-adv-x="554" d="M47 0l103 731h133l-42 -297q18 32 57 55t92 24q95 0 140 -75.5t29 -183.5q-16 -113 -83 -188.5t-156 -75.5q-49 0 -83 23t-47 60l-12 -73h-131zM213 250q-23 -158 85 -158q47 0 84.5 36.5t49.5 121.5q12 87 -15 124t-74 37q-46 0 -82 -38t-48 -123z" />
<glyph unicode="c" horiz-adv-x="411" d="M64 257q17 122 95 189t174 67q81 -1 127 -47l-31 -89q-41 34 -96 34q-52 0 -91.5 -39.5t-50.5 -119.5q-22 -162 99 -162q55 0 106 36l9 -90q-67 -46 -142 -46q-106 0 -161.5 68t-37.5 199z" />
<glyph unicode="d" horiz-adv-x="551" d="M64 254q16 110 82.5 184.5t163.5 74.5q99 0 124 -79l42 297h132l-103 -731h-129l7 73q-49 -83 -138 -83q-101 2 -149 76t-32 188zM191 250q-12 -84 15.5 -121t74.5 -37q106 0 129 158q12 85 -13.5 123t-71.5 38q-47 0 -84.5 -37t-49.5 -124z" />
<glyph unicode="e" horiz-adv-x="494" d="M63 251q16 113 89 187.5t180 74.5q102 0 145.5 -72t28.5 -179q0 -4 -6 -41h-310q-7 -65 21.5 -98t88.5 -33q77 0 137 42l25 -81q-80 -61 -183 -61q-121 0 -177 69.5t-39 191.5zM201 290h190q8 58 -10.5 89.5t-61.5 31.5q-36 0 -70 -28t-48 -93z" />
<glyph unicode="f" horiz-adv-x="304" d="M61 411l11 82h72l2 18q9 66 19.5 104.5t33.5 73.5t63 50.5t102 15.5h42l-5 -103h-38q-38 0 -54 -23.5t-25 -83.5l-8 -52h100l-12 -82h-99l-58 -411h-132l57 411h-71z" />
<glyph unicode="g" horiz-adv-x="555" d="M66 255q17 121 91 189.5t159 68.5q91 0 123 -71l8 51h132l-67 -471q-19 -140 -89.5 -200t-231.5 -60h-60l6 107h47q39 0 57.5 1t44 5.5t37 14t25 27t20.5 44.5t13 67l6 42q-55 -70 -141 -70q-92 0 -144.5 68.5t-35.5 186.5zM193 254q-10 -68 16.5 -110.5t76.5 -42.5 q48 0 85 41.5t47 111.5q0 1 0.5 3t0.5 3q9 70 -16.5 110t-73.5 41q-55 0 -90 -41.5t-46 -115.5z" />
<glyph unicode="h" horiz-adv-x="521" d="M45 0l103 731h118l-41 -295q79 77 160 77q73 0 111.5 -51t23.5 -161l-42 -301h-132l41 294q8 59 -1.5 88t-48.5 29q-35 0 -70 -24t-58 -58l-46 -329h-118z" />
<glyph unicode="i" horiz-adv-x="243" d="M57 0l72 519h133l-73 -519h-132zM142 608l16 114h133l-16 -114h-133z" />
<glyph unicode="j" horiz-adv-x="244" d="M-44 -196l2 102h24q47 0 63.5 20t24.5 83l71 510h132l-67 -479q-9 -65 -21 -104.5t-36 -71.5t-64.5 -46t-101.5 -14h-27zM154 608l16 114h132l-16 -114h-132z" />
<glyph unicode="k" horiz-adv-x="499" d="M45 0l103 731h132l-57 -409l194 197h158l-224 -213l185 -306h-174l-118 253l-35 -27l-31 -226h-133z" />
<glyph unicode="l" horiz-adv-x="294" d="M84 222l70 500l134 9l-74 -528q-10 -59 0 -82.5t55 -23.5l24 2l-8 -99q-25 -6 -67 -6q-68 0 -102.5 29.5t-37 80t5.5 118.5z" />
<glyph unicode="m" horiz-adv-x="801" d="M45 0l70 493h99l1 -69q30 37 75.5 62.5t92.5 26.5q93 0 113 -88q78 88 176 88q159 0 129 -210l-42 -303h-131l38 272q12 71 4.5 105t-44.5 34q-69 -2 -117 -78l-47 -333h-131l40 281q11 55 1.5 92.5t-50.5 37.5q-60 0 -112 -77l-46 -334h-119z" />
<glyph unicode="n" horiz-adv-x="535" d="M45 0q8 56 22 155.5t25.5 182t21.5 155.5h111l1 -69q81 90 178 89q81 -1 112.5 -58.5t18.5 -153.5l-42 -301h-133l40 285q4 35 5.5 63t-13 45.5t-47.5 17.5q-31 0 -65.5 -23.5t-54.5 -54.5l-47 -333h-133z" />
<glyph unicode="o" d="M63 250q16 118 87 190.5t183 72.5t162 -72t34 -191q-16 -116 -87 -188t-183 -72q-111 0 -161.5 72t-34.5 188zM190 250q-11 -77 12 -118t72 -41q48 0 82.5 41t45.5 118q11 78 -12 119.5t-71 41.5t-83 -41.5t-46 -119.5z" />
<glyph unicode="p" horiz-adv-x="553" d="M19 -200l97 693h120v-69q50 89 149 89q67 0 111 -39t58 -96.5t5 -124.5q-16 -112 -82 -187t-163 -76q-96 0 -126 74l-35 -250zM213 250q-12 -86 14.5 -122t75.5 -36q45 0 80.5 37.5t47.5 120.5q12 88 -14.5 124.5t-72.5 36.5t-82.5 -38t-48.5 -123z" />
<glyph unicode="q" horiz-adv-x="551" d="M64 253q15 105 81 182.5t166 77.5q99 0 125 -89l19 69h119l-95 -678l-134 -15l38 273q-29 -42 -63 -62.5t-87 -20.5q-97 1 -141 76t-28 187zM191 250q-12 -84 15.5 -121t74.5 -37q106 0 129 158q12 85 -13.5 123t-71.5 38q-47 0 -84.5 -37t-49.5 -124z" />
<glyph unicode="r" horiz-adv-x="297" d="M45 0q8 55 22 155.5t25.5 182.5t22.5 155h122v-71q28 37 55.5 54t67.5 17h12l-9 -105h-31q-59 0 -83.5 -30t-32.5 -90l-38 -268h-133z" />
<glyph unicode="s" horiz-adv-x="395" d="M30 43l35 87q23 -18 65 -29t78 -11q60 0 67 50q3 21 -4.5 31t-31.5 21l-63 28q-52 22 -77.5 55t-17.5 89q10 74 61.5 111.5t128.5 37.5q100 0 148 -42l-34 -88q-20 13 -56.5 22t-63.5 9q-69 0 -78 -41q-5 -24 4 -35t40 -23l69 -26q47 -18 75.5 -53.5t20.5 -87.5 q-10 -67 -56.5 -112t-123.5 -45q-128 0 -186 52z" />
<glyph unicode="t" horiz-adv-x="336" d="M44 410l19 83h71l62 215h100l-30 -215h109l-11 -83h-110l-28 -204q-11 -62 -1.5 -84.5t55.5 -22.5l38 3l-8 -102q-47 -6 -71 -6q-104 0 -132.5 50t-12.5 165l28 201h-78z" />
<glyph unicode="u" horiz-adv-x="516" d="M67 188l47 331h133l-47 -329q-14 -99 71 -99q84 0 98 99l46 329h132l-46 -331q-14 -98 -79.5 -148t-165.5 -50t-151.5 49.5t-37.5 148.5z" />
<glyph unicode="v" horiz-adv-x="461" d="M74 519h124l66 -374l147 374h123l-236 -519h-110z" />
<glyph unicode="w" horiz-adv-x="734" d="M74 519h133l32 -333l152 333h103l42 -331l140 331h129l-246 -519h-99l-41 374l-165 -374h-98z" />
<glyph unicode="x" horiz-adv-x="519" d="M12 0l209 263l-127 256h145l72 -179l127 179h138l-202 -254l135 -265h-149l-71 184l-134 -184h-143z" />
<glyph unicode="y" horiz-adv-x="449" d="M-5 -200l3 99h31h12q31 0 44 1.5t30 13t29.5 35t29.5 68.5l-109 502h120l68 -346l149 346h123l-260 -554q-46 -98 -92 -131.5t-121 -33.5h-57z" />
<glyph unicode="z" horiz-adv-x="408" d="M29 0l11 79l248 326h-191l12 88h337l-10 -71l-248 -330h208l-13 -92h-354z" />
<glyph unicode="{" horiz-adv-x="365" d="M62 257l16 116h44q30 0 43 23t20 75l19 140q11 77 58.5 109.5t127.5 32.5h46l-15 -106h-14q-40 0 -51.5 -16t-18.5 -68l-17 -117q-15 -111 -115 -131q46 -10 66.5 -40t12.5 -91l-17 -118q-9 -48 -1 -65.5t48 -17.5h14l-16 -107h-46q-80 0 -118 33t-27 110l20 140 q9 47 2 72.5t-37 25.5h-44z" />
<glyph unicode="|" horiz-adv-x="168" d="M14 -137l122 869h105l-122 -869h-105z" />
<glyph unicode="}" horiz-adv-x="365" d="M20 -124l15 107h14q40 0 51.5 15.5t18.5 67.5l17 118q15 111 115 131q-46 10 -66.5 40t-12.5 91l17 117q9 48 1 66t-48 18h-14l16 106h46q80 0 118 -32.5t27 -109.5l-20 -140q-9 -47 -2 -72.5t37 -25.5h44l-16 -116h-44q-30 0 -43 -23t-20 -75l-19 -140 q-20 -143 -186 -143h-46z" />
<glyph unicode="~" horiz-adv-x="647" d="M111 216l4 11q17 52 59.5 88t99.5 36q32 0 62.5 -11.5t61 -29.5t44.5 -23q11 -4 20 -4q44 0 69 64l2.5 5t2.5 5.5t1 4.5l78 -27l-5 -12q-21 -57 -61.5 -96t-99.5 -39q-44 0 -99.5 34t-86.5 35v-1h-1q-51 0 -75 -57l-5 -18z" />
<glyph unicode="&#xa1;" horiz-adv-x="345" d="M110 -188l78 556h97l-78 -556h-97zM171 407l18 130h123l-18 -130h-123z" />
<glyph unicode="&#xa2;" horiz-adv-x="471" d="M81 305q16 117 88.5 183.5t164.5 71.5l-15 -105q-42 -10 -71.5 -49t-39.5 -106q-19 -138 67 -159l-14 -102q-98 6 -147.5 73.5t-32.5 192.5zM242 -96l19 135q9 -1 19 -1q15 0 29 1l-19 -135h-48zM275 141l44 314q15 4 31 4q8 0 17 -1l-44 -319q-8 -1 -16 -1q-17 0 -32 3z M309 39l14 100q47 5 90 35l9 -90q-57 -39 -113 -45zM334 560l20 146h48l-21 -147q-14 2 -31 2q-8 0 -16 -1zM367 458l14 101q58 -7 96 -45l-31 -89q-32 26 -79 33z" />
<glyph unicode="&#xa3;" horiz-adv-x="509" d="M32 82l11 4q42 18 62 46t28 85l13 91h-85l13 93h85l6 41q12 86 38 145.5t81 97.5t137 38q113 0 159 -91l3 -9l-66 -69q-16 21 -28 33t-34 22.5t-48 10.5q-101 0 -121 -138l-11 -80h172l-13 -94h-172l-9 -62q-12 -90 -51 -144h300l-14 -102h-452z" />
<glyph unicode="&#xa4;" horiz-adv-x="403" d="M71 324q16 112 101 169l-49 133l46 18l43 -123q30 10 66 10q19 0 49 -6l59 120q14 -6 40 -18l-63 -127q79 -54 63 -173q-14 -99 -89 -158l49 -134l-43 -20l-44 133q-38 -16 -79 -16q-25 0 -43 3l-57 -120l-36 19l55 115q-85 53 -68 175zM141 325q-9 -65 12.5 -102 t75.5 -37q53 0 84.5 36t40.5 98q13 66 -9 106t-78 40q-53 0 -85 -38.5t-41 -102.5z" />
<glyph unicode="&#xa5;" horiz-adv-x="597" d="M83 706h140l120 -295l202 295h138l-236 -346h116l-11 -79h-156l-9 -62h156l-11 -79h-156l-20 -140h-139l20 140h-151l11 79h151l8 62h-150l11 79h109z" />
<glyph unicode="&#xa6;" horiz-adv-x="241" d="M50 -136l43 307h105l-43 -307h-105zM128 424l44 308h105l-44 -308h-105z" />
<glyph unicode="&#xa7;" horiz-adv-x="420" d="M37 0l18 131q72 -50 133 -50q43 0 68 13.5t28 35.5q3 23 -19 41t-55.5 32t-66.5 31.5t-53.5 49t-14.5 74.5q10 73 81 118q-42 44 -33 112q11 78 73 116t146 38q19 0 38.5 -3t26.5 -4.5t31.5 -10t25.5 -8.5l-16 -129q-3 1 -14 7.5t-15 8.5t-14.5 7t-17 7t-16.5 5t-20 4 t-21 1q-80 0 -85 -39q-4 -26 18 -45t55 -32.5t65.5 -29.5t52.5 -46.5t14 -74.5q-10 -68 -80 -120q47 -40 38 -108q-11 -81 -78 -123t-154 -42q-66 0 -139 33zM191 363q-3 -20 10 -36t27 -23.5t42 -19.5q57 34 62 70q2 12 -2 22t-14 17.5t-18.5 12t-25.5 12t-25 11.5 q-51 -30 -56 -66z" />
<glyph unicode="&#xa8;" horiz-adv-x="354" d="M114 601l18 130h98l-19 -130h-97zM310 601l18 130h98l-18 -130h-98z" />
<glyph unicode="&#xa9;" horiz-adv-x="765" d="M87 355q22 153 138 260t260 107q143 0 230.5 -107.5t65.5 -259.5t-138.5 -258.5t-259.5 -106.5q-144 0 -231 106t-65 259zM142 355q-18 -131 54 -223t194 -92q121 0 219.5 92t116.5 223t-54 223.5t-193 92.5q-122 0 -220.5 -92.5t-116.5 -223.5zM222 356q14 100 81 169 t155 69q82 0 130 -39l-27 -55q-49 33 -107 33q-63 0 -107.5 -52t-54.5 -126q-10 -73 18.5 -121.5t95.5 -48.5q57 0 115 33l12 -57q-59 -39 -140 -39q-88 0 -136.5 66t-34.5 168z" />
<glyph unicode="&#xaa;" horiz-adv-x="328" d="M90 466q3 21 10.5 38t15 28.5t24 21.5t24.5 15t31.5 10t30.5 6t35 4.5t33 4.5q2 31 -4 40.5t-31 9.5q-43 0 -72 -40l-13 -16l-41 59q50 79 140 79q56 0 86 -35t21 -98l-23 -156q-1 -10 -5 -62l-1 -16h-86l1 18q-35 -27 -75 -27h-2q-48 0 -77.5 31t-21.5 85zM179 467 q-4 -37 33 -37q51 0 71 85q-8 -1 -24.5 -3.5t-24 -3.5t-19.5 -4.5t-18 -7.5t-11.5 -11.5t-6.5 -17.5z" />
<glyph unicode="&#xab;" horiz-adv-x="430" d="M53 267l155 184h107l-154 -184l98 -184h-106zM216 267l158 184h105l-152 -184l96 -184h-103z" />
<glyph unicode="&#xac;" horiz-adv-x="647" d="M128 297l14 98h475l-39 -279h-95l26 181h-381z" />
<glyph unicode="&#xad;" horiz-adv-x="325" d="M62 211l14 95h261l-13 -95h-262z" />
<glyph unicode="&#xae;" horiz-adv-x="767" d="M87 355q22 153 139 260t261 107t231 -107t65 -260q-22 -152 -138.5 -258.5t-260.5 -106.5q-145 0 -232 106.5t-65 258.5zM142 355q-18 -131 54 -223t195 -92q122 0 220.5 92t116.5 223t-54.5 223.5t-194.5 92.5q-123 0 -221 -92.5t-116 -223.5zM262 127l65 463h142 q70 0 105.5 -29.5t26.5 -96.5q-7 -55 -32 -83t-77 -42q24 -49 82 -212h-79l-40 113l-30 91h-63l-29 -204h-71zM370 392h52q52 0 78 14t32 58q3 23 -1 37t-19 19.5t-29.5 7t-44.5 1.5h-48z" />
<glyph unicode="&#xaf;" horiz-adv-x="401" d="M138 652l11 79h318l-11 -79h-318z" />
<glyph unicode="&#xb0;" horiz-adv-x="387" d="M119 563q9 63 59 104.5t113 41.5t102 -40t30 -106q-9 -63 -59.5 -104.5t-113.5 -41.5t-101.5 42t-29.5 104zM203 564q-4 -27 12.5 -44t46.5 -17t51.5 17.5t25.5 43.5q4 25 -12 41.5t-43 18.5h-5q-30 0 -51 -17t-25 -43z" />
<glyph unicode="&#xb1;" horiz-adv-x="659" d="M87 0l14 97h191l25 181h-190l7 97h196l24 170h102l-24 -170h193l-13 -97h-191l-25 -181h192l-14 -97h-487z" />
<glyph unicode="&#xb2;" horiz-adv-x="369" d="M85 270l10 70q158 158 178 182q35 40 39 70q6 42 -37 42q-52 0 -105 -53l-38 69q2 4 19.5 19.5t56.5 34t79 18.5q65 0 100 -33.5t26 -94.5q-5 -32 -19 -61.5t-43 -59t-45.5 -44.5t-57 -44.5t-46.5 -34.5h168l-11 -80h-274z" />
<glyph unicode="&#xb3;" horiz-adv-x="362" d="M83 303l39 69q60 -29 99 -29q27 0 45 17t21 41q3 23 -9 40.5t-37 17.5h-58l10 74h58q54 0 61 52q7 55 -45 55q-9 0 -17.5 -1t-15 -2.5t-15.5 -5t-13.5 -5t-14 -6.5t-12 -6.5t-13 -7.5t-12.5 -7l-30 60q73 63 157 63q61 0 97.5 -30.5t27.5 -92.5q-9 -71 -73 -97 q60 -39 50 -110q-9 -67 -56 -100t-110 -33q-78 0 -134 44z" />
<glyph unicode="&#xb4;" horiz-adv-x="288" d="M180 574l104 187h147l-172 -187h-79z" />
<glyph unicode="&#xb6;" horiz-adv-x="572" d="M123 547q23 166 279 166h186l-12 -89h-37l-99 -696h-85l98 696h-65l-97 -696h-102l62 443q-70 7 -104.5 55t-23.5 121z" />
<glyph unicode="&#xb7;" horiz-adv-x="188" d="M64 226l19 132h125l-19 -132h-125z" />
<glyph unicode="&#xb8;" horiz-adv-x="268" d="M-2 -166l84 179h76l-54 -179h-106z" />
<glyph unicode="&#xb9;" horiz-adv-x="319" d="M90 270l12 83h61l36 254l-68 -12l13 82q35 9 95 29l76 9l-50 -362h61l-12 -83h-224z" />
<glyph unicode="&#xba;" horiz-adv-x="374" d="M96 539q12 84 65 135.5t130 51.5t114 -52t25 -136t-64 -136t-128 -52q-79 0 -116.5 51.5t-25.5 137.5zM187 539q-15 -107 63 -107q76 0 91 105q15 107 -63 107q-74 0 -90 -101z" />
<glyph unicode="&#xbb;" horiz-adv-x="530" d="M80 83l153 184l-98 184h105l103 -184l-157 -184h-106zM256 83l153 184l-97 184h105l99 -184l-155 -184h-105z" />
<glyph unicode="&#xbc;" horiz-adv-x="922" d="M147 285l16 107h52l14 106q6 43 11 80q-21 -9 -36 -14l-33 -13l17 111l16 5q38 12 74 34v2q3 0 6 3l1 -2l76 11l-46 -329h59l-14 -101h-213zM187 0l569 706h99q-2 -2 -2 -3l-562 -703h-104zM497 98l9 61l216 253h81l-32 -233h45l-4 -81h-54l-11 -80h-81l10 80h-179z M618 179h69l14 99z" />
<glyph unicode="&#xbd;" horiz-adv-x="869" d="M158 295l12 87h53l29 212q-30 -14 -69 -29l12 89l92 39l64 11l-46 -328h58l-11 -81h-194zM162 0l566 706h102q-2 -2 -2 -3l-565 -703h-101zM480 -12l10 70q10 8 58.5 41.5t78 56.5t59.5 57.5t34 63.5q2 18 -9.5 27.5t-36.5 9.5q-32 0 -51.5 -19t-40.5 -55l-56 60 q57 101 165 101q58 0 90 -31.5t25 -85.5q-3 -19 -9.5 -37t-13.5 -32t-21.5 -30t-23 -25.5t-27 -25t-25.5 -21t-27.5 -20.5t-24.5 -18h142l-12 -87h-284z" />
<glyph unicode="&#xbe;" horiz-adv-x="885" d="M125 346l51 72l11 -13q30 -34 65 -34q29 0 48 12t22 34q4 25 -15 35t-60 10q-1 0 -5.5 -0.5t-7.5 -0.5h-26l12 88h36q73 0 78 38q2 18 -7.5 26t-34.5 8q-39 0 -81 -35l-15 -11l-28 71l8 8q56 54 129 54q57 0 91 -32t26 -87v-1q-9 -51 -47 -82q39 -34 31 -92 q-9 -60 -55.5 -94t-108.5 -34q-72 0 -117 60zM162 -11l574 722v4h122q-2 -3 -7 -9.5t-7 -9.5l-559 -707h-123zM475 99l9 61l216 253h81l-33 -233h46l-4 -81h-54l-11 -80h-82l11 80h-179zM596 180h69l14 99z" />
<glyph unicode="&#xbf;" horiz-adv-x="520" d="M164 165q7 49 41 97.5t92 114t93 119.5h55q-19 -63 -60 -122.5t-75 -105.5t-39 -83q-6 -42 15 -67.5t65 -25.5q70 0 136 42l22 -85q-89 -54 -187 -54q-69 0 -119.5 44t-38.5 126zM369 649q5 32 29.5 55t55.5 23t50 -23t15 -55t-30 -55.5t-57 -23.5t-49.5 23.5t-13.5 55.5 z" />
<glyph unicode="&#xc0;" horiz-adv-x="634" d="M-5 0l343 706h127l134 -706h-127l-42 217h-195l-101 -217h-139zM262 947h147l84 -166h-98q-26 33 -76 95t-57 71zM277 306h134l-32 239z" />
<glyph unicode="&#xc1;" horiz-adv-x="634" d="M-5 0l343 706h127l134 -706h-127l-42 217h-195l-101 -217h-139zM277 306h134l-32 239zM405 781l104 187h147l-172 -187h-79z" />
<glyph unicode="&#xc2;" horiz-adv-x="634" d="M-5 0l343 706h127l134 -706h-127l-42 217h-195l-101 -217h-139zM262 781l146 187h91l93 -187h-88l-65 98l-91 -98h-86zM277 306h134l-32 239z" />
<glyph unicode="&#xc3;" horiz-adv-x="634" d="M-5 0l343 706h127l134 -706h-127l-42 217h-195l-101 -217h-139zM274 785q3 18 5 29.5t8.5 31t15.5 30.5t26 20t39 9q35 0 85 -19.5t58 -19.5q20 0 26 39h75q-15 -120 -94 -120q-30 0 -85.5 21.5t-57.5 21.5q-21 0 -27 -43h-74zM277 306h134l-32 239z" />
<glyph unicode="&#xc4;" horiz-adv-x="634" d="M-5 0l343 706h127l134 -706h-127l-42 217h-195l-101 -217h-139zM277 306h134l-32 239zM284 782l18 130h98l-19 -130h-97zM480 782l18 130h98l-18 -130h-98z" />
<glyph unicode="&#xc5;" horiz-adv-x="634" d="M-5 0l343 706h65q13 -3 27 -3t28 3h7l134 -706h-127l-42 217h-195l-101 -217h-139zM277 306h134l-32 239zM340 806q6 41 37 70.5t81 29.5t73 -29.5t17 -70.5q-3 -22 -14 -42.5t-31 -36t-45 -21.5h-55q-35 8 -51.5 36.5t-11.5 63.5zM396 806q-3 -22 7 -38t33 -16t38.5 16 t18.5 38t-8 38t-34 16t-37.5 -16t-17.5 -38z" />
<glyph unicode="&#xc6;" horiz-adv-x="878" d="M11 7l460 706h453l-14 -101h-300l-13 -195h267l-14 -101h-259v-5l-13 -202h271l-15 -102h-357l12 175h-246l-117 -175h-115zM304 284h190l24 333z" />
<glyph unicode="&#xc7;" horiz-adv-x="623" d="M84 358q24 165 131 264.5t250 99.5q128 0 191 -69l-49 -103q-28 28 -61 42.5t-88 14.5q-57 0 -106 -30t-82.5 -87t-43.5 -133q-17 -123 27.5 -188.5t132.5 -65.5q95 0 168 53l18 -104q-41 -28 -81 -42t-81 -18l-53 -175h-106l82 174q-62 5 -112.5 32.5t-85 73t-48.5 113 t-3 148.5z" />
<glyph unicode="&#xc8;" horiz-adv-x="551" d="M57 0l99 706h431l-25 -107h-281l-25 -175h271l-15 -106h-271l-30 -211l306 -4l-20 -103h-440zM198 947h147l84 -166h-98q-26 33 -76 95t-57 71z" />
<glyph unicode="&#xc9;" horiz-adv-x="551" d="M57 0l99 706h431l-25 -107h-281l-25 -175h271l-15 -106h-271l-30 -211l306 -4l-20 -103h-440zM340 781l104 187h147l-172 -187h-79z" />
<glyph unicode="&#xca;" horiz-adv-x="551" d="M57 0l99 706h431l-25 -107h-281l-25 -175h271l-15 -106h-271l-30 -211l306 -4l-20 -103h-440zM198 781l146 187h91l93 -187h-88l-65 98l-91 -98h-86z" />
<glyph unicode="&#xcb;" horiz-adv-x="551" d="M57 0l99 706h431l-25 -107h-281l-25 -175h271l-15 -106h-271l-30 -211l306 -4l-20 -103h-440zM219 782l18 130h98l-19 -130h-97zM415 782l18 130h98l-18 -130h-98z" />
<glyph unicode="&#xcc;" horiz-adv-x="276" d="M41 947h147l84 -166h-98q-26 33 -76 95t-57 71zM63 0l99 706h140l-99 -706h-140z" />
<glyph unicode="&#xcd;" horiz-adv-x="276" d="M63 0l99 706h140l-99 -706h-140zM183 781l104 187h147l-172 -187h-79z" />
<glyph unicode="&#xce;" horiz-adv-x="276" d="M41 781l146 187h91l93 -187h-88l-65 98l-91 -98h-86zM63 0l99 706h140l-99 -706h-140z" />
<glyph unicode="&#xcf;" horiz-adv-x="276" d="M63 0l99 706h140l-99 -706h-140zM63 782l18 130h98l-19 -130h-97zM259 782l18 130h98l-18 -130h-98z" />
<glyph unicode="&#xd0;" horiz-adv-x="710" d="M42 310l14 94h60l42 302h180q96 0 168.5 -19.5t123.5 -60.5t71 -110.5t7 -164.5q-23 -169 -139 -260t-288 -91h-222l43 310h-60zM214 109h91q111 0 179.5 62t84.5 178q19 136 -38 191.5t-197 55.5h-52l-27 -192h77l-13 -94h-77z" />
<glyph unicode="&#xd1;" horiz-adv-x="707" d="M57 0l99 706h116l245 -476l66 476h128l-99 -706h-119l-242 476l-66 -476h-128zM272 785q3 18 5 29.5t8.5 31t15.5 30.5t26 20t39 9q35 0 85 -19.5t58 -19.5q20 0 26 39h75q-15 -120 -94 -120q-30 0 -85.5 21.5t-57.5 21.5q-21 0 -27 -43h-74z" />
<glyph unicode="&#xd2;" horiz-adv-x="778" d="M83 355q24 170 132 268.5t254 98.5q147 0 226.5 -98.5t55.5 -268.5q-23 -169 -131 -267t-254 -98t-226 98t-57 267zM225 353q-16 -115 24 -182.5t134 -67.5t153.5 67.5t75.5 182.5q16 116 -23.5 185t-134.5 69q-94 0 -153.5 -69t-75.5 -185zM314 947h147l84 -166h-98 q-26 33 -76 95t-57 71z" />
<glyph unicode="&#xd3;" horiz-adv-x="778" d="M83 355q24 170 132 268.5t254 98.5q147 0 226.5 -98.5t55.5 -268.5q-23 -169 -131 -267t-254 -98t-226 98t-57 267zM225 353q-16 -115 24 -182.5t134 -67.5t153.5 67.5t75.5 182.5q16 116 -23.5 185t-134.5 69q-94 0 -153.5 -69t-75.5 -185zM456 781l104 187h147 l-172 -187h-79z" />
<glyph unicode="&#xd4;" horiz-adv-x="778" d="M83 355q24 170 132 268.5t254 98.5q147 0 226.5 -98.5t55.5 -268.5q-23 -169 -131 -267t-254 -98t-226 98t-57 267zM225 353q-16 -115 24 -182.5t134 -67.5t153.5 67.5t75.5 182.5q16 116 -23.5 185t-134.5 69q-94 0 -153.5 -69t-75.5 -185zM314 781l146 187h91l93 -187 h-88l-65 98l-91 -98h-86z" />
<glyph unicode="&#xd5;" horiz-adv-x="778" d="M83 355q24 170 132 268.5t254 98.5q147 0 226.5 -98.5t55.5 -268.5q-23 -169 -131 -267t-254 -98t-226 98t-57 267zM225 353q-16 -115 24 -182.5t134 -67.5t153.5 67.5t75.5 182.5q16 116 -23.5 185t-134.5 69q-94 0 -153.5 -69t-75.5 -185zM325 785q3 18 5 29.5t8.5 31 t15.5 30.5t26 20t39 9q35 0 85 -19.5t58 -19.5q20 0 26 39h75q-15 -120 -94 -120q-30 0 -85.5 21.5t-57.5 21.5q-21 0 -27 -43h-74z" />
<glyph unicode="&#xd6;" horiz-adv-x="778" d="M83 355q24 170 132 268.5t254 98.5q147 0 226.5 -98.5t55.5 -268.5q-23 -169 -131 -267t-254 -98t-226 98t-57 267zM225 353q-16 -115 24 -182.5t134 -67.5t153.5 67.5t75.5 182.5q16 116 -23.5 185t-134.5 69q-94 0 -153.5 -69t-75.5 -185zM336 782l18 130h98l-19 -130 h-97zM532 782l18 130h98l-18 -130h-98z" />
<glyph unicode="&#xd7;" horiz-adv-x="683" d="M169 136l149 137l-110 135l73 71l117 -135l155 135l54 -71l-149 -135q95 -115 111 -136l-73 -71l-118 135l-155 -135z" />
<glyph unicode="&#xd8;" horiz-adv-x="835" d="M83 355q12 85 47.5 155t87 116t116 71t135.5 25q60 0 111 -18l55 101l41 -19l-55 -100q77 -42 112 -127t18 -204q-23 -169 -131 -267t-254 -98q-62 0 -114 19l-60 -109l-37 21l57 106q-75 42 -110 126.5t-19 201.5zM225 353q-21 -149 49 -213l247 455q-29 12 -67 12 q-94 0 -153.5 -69t-75.5 -185zM310 117q32 -14 73 -14q94 0 153.5 67.5t75.5 182.5q22 156 -53 220z" />
<glyph unicode="&#xd9;" horiz-adv-x="678" d="M87 263l62 443h140l-61 -436q-13 -90 10.5 -129t97.5 -39q73 0 107.5 39t47.5 129l61 436h140l-62 -443q-39 -273 -310 -273q-136 0 -194 70t-39 203zM252 947h147l84 -166h-98q-26 33 -76 95t-57 71z" />
<glyph unicode="&#xda;" horiz-adv-x="678" d="M87 263l62 443h140l-61 -436q-13 -90 10.5 -129t97.5 -39q73 0 107.5 39t47.5 129l61 436h140l-62 -443q-39 -273 -310 -273q-136 0 -194 70t-39 203zM395 781l104 187h147l-172 -187h-79z" />
<glyph unicode="&#xdb;" horiz-adv-x="678" d="M87 263l62 443h140l-61 -436q-13 -90 10.5 -129t97.5 -39q73 0 107.5 39t47.5 129l61 436h140l-62 -443q-39 -273 -310 -273q-136 0 -194 70t-39 203zM252 781l146 187h91l93 -187h-88l-65 98l-91 -98h-86z" />
<glyph unicode="&#xdc;" horiz-adv-x="678" d="M87 263l62 443h140l-61 -436q-13 -90 10.5 -129t97.5 -39q73 0 107.5 39t47.5 129l61 436h140l-62 -443q-39 -273 -310 -273q-136 0 -194 70t-39 203zM274 782l18 130h98l-19 -130h-97zM470 782l18 130h98l-18 -130h-98z" />
<glyph unicode="&#xdd;" horiz-adv-x="606" d="M83 706h140l120 -295l202 295h138l-286 -420l-41 -286h-139l40 286zM413 781l104 187h147l-172 -187h-79z" />
<glyph unicode="&#xde;" horiz-adv-x="607" d="M86 7l98 696h111l-16 -118h123q77 0 132 -20.5t85.5 -70t19.5 -123.5q-14 -102 -95.5 -158t-190.5 -56h-135l-21 -150h-111zM233 261h142q61 0 101.5 30t48.5 86q9 61 -24.5 89t-103.5 28h-131z" />
<glyph unicode="&#xdf;" horiz-adv-x="567" d="M45 0l70 497q15 107 79 166t166 59q86 0 139.5 -43.5t41.5 -126.5q-4 -30 -19 -56t-40 -47.5t-43.5 -34.5t-48.5 -30q87 -47 112 -67q84 -64 72 -150q-12 -82 -73 -124.5t-151 -42.5h-119l26 92h92q34 0 55.5 20.5t26.5 56.5q4 27 -8.5 50.5t-27 35.5t-46.5 32.5 t-44 29.5q-34 25 -29 61q5 33 38 58q5 4 21 15.5t22.5 17t19 16.5t18 20t11.5 21.5t8 25.5q4 33 -14.5 51.5t-53.5 18.5q-49 0 -69 -32t-29 -100l-69 -490h-134z" />
<glyph unicode="&#xe0;" d="M48 132q5 37 20 64t34 43.5t54.5 29t67.5 19t88 14.5l32 6l3 21q7 45 -2.5 62.5t-51.5 19.5q-59 0 -155 -32l-12 95q83 39 199 39q85 0 126.5 -40.5t30.5 -119.5l-49 -353h-102l-5 56q-40 -33 -74 -49.5t-76 -16.5q-66 0 -101.5 38.5t-26.5 103.5zM168 138q-4 -27 8 -43 t39 -16q29 0 49.5 9t52.5 30l16 112l-33 -6q-31 -5 -48.5 -9t-38 -13t-31.5 -25t-14 -39zM174 764h147l84 -166h-98q-26 33 -76 95t-57 71z" />
<glyph unicode="&#xe1;" d="M48 132q5 37 20 64t34 43.5t54.5 29t67.5 19t88 14.5l32 6l3 21q7 45 -2.5 62.5t-51.5 19.5q-59 0 -155 -32l-12 95q83 39 199 39q85 0 126.5 -40.5t30.5 -119.5l-49 -353h-102l-5 56q-40 -33 -74 -49.5t-76 -16.5q-66 0 -101.5 38.5t-26.5 103.5zM168 138q-4 -27 8 -43 t39 -16q29 0 49.5 9t52.5 30l16 112l-33 -6q-31 -5 -48.5 -9t-38 -13t-31.5 -25t-14 -39zM317 598l104 187h147l-172 -187h-79z" />
<glyph unicode="&#xe2;" d="M48 132q5 37 20 64t34 43.5t54.5 29t67.5 19t88 14.5l32 6l3 21q7 45 -2.5 62.5t-51.5 19.5q-59 0 -155 -32l-12 95q83 39 199 39q85 0 126.5 -40.5t30.5 -119.5l-49 -353h-102l-5 56q-40 -33 -74 -49.5t-76 -16.5q-66 0 -101.5 38.5t-26.5 103.5zM168 138q-4 -27 8 -43 t39 -16q29 0 49.5 9t52.5 30l16 112l-33 -6q-31 -5 -48.5 -9t-38 -13t-31.5 -25t-14 -39zM174 598l146 187h91l93 -187h-88l-65 98l-91 -98h-86z" />
<glyph unicode="&#xe3;" d="M48 132q5 37 20 64t34 43.5t54.5 29t67.5 19t88 14.5l32 6l3 21q7 45 -2.5 62.5t-51.5 19.5q-59 0 -155 -32l-12 95q83 39 199 39q85 0 126.5 -40.5t30.5 -119.5l-49 -353h-102l-5 56q-40 -33 -74 -49.5t-76 -16.5q-66 0 -101.5 38.5t-26.5 103.5zM168 138q-4 -27 8 -43 t39 -16q29 0 49.5 9t52.5 30l16 112l-33 -6q-31 -5 -48.5 -9t-38 -13t-31.5 -25t-14 -39zM185 599q3 18 5 29.5t8.5 31t15.5 30.5t26 20t39 9q35 0 85 -19.5t58 -19.5q20 0 26 39h75q-15 -120 -94 -120q-30 0 -85.5 21.5t-57.5 21.5q-21 0 -27 -43h-74z" />
<glyph unicode="&#xe4;" d="M48 132q5 37 20 64t34 43.5t54.5 29t67.5 19t88 14.5l32 6l3 21q7 45 -2.5 62.5t-51.5 19.5q-59 0 -155 -32l-12 95q83 39 199 39q85 0 126.5 -40.5t30.5 -119.5l-49 -353h-102l-5 56q-40 -33 -74 -49.5t-76 -16.5q-66 0 -101.5 38.5t-26.5 103.5zM168 138q-4 -27 8 -43 t39 -16q29 0 49.5 9t52.5 30l16 112l-33 -6q-31 -5 -48.5 -9t-38 -13t-31.5 -25t-14 -39zM196 599l18 130h98l-19 -130h-97zM392 599l18 130h98l-18 -130h-98z" />
<glyph unicode="&#xe5;" d="M48 132q5 37 20 64t34 43.5t54.5 29t67.5 19t88 14.5l32 6l3 21q7 45 -2.5 62.5t-51.5 19.5q-59 0 -155 -32l-12 95q83 39 199 39q85 0 126.5 -40.5t30.5 -119.5l-49 -353h-102l-5 56q-40 -33 -74 -49.5t-76 -16.5q-66 0 -101.5 38.5t-26.5 103.5zM168 138q-4 -27 8 -43 t39 -16q29 0 49.5 9t52.5 30l16 112l-33 -6q-31 -5 -48.5 -9t-38 -13t-31.5 -25t-14 -39zM261 689q6 41 37 70.5t81 29.5t73 -29.5t17 -70.5q-6 -42 -37.5 -72.5t-80.5 -30.5t-72.5 31t-17.5 72zM317 689q-3 -22 7 -38t33 -16t38.5 16t18.5 38t-8 38t-34 16t-37.5 -16 t-17.5 -38z" />
<glyph unicode="&#xe6;" horiz-adv-x="732" d="M48 145q4 31 18 53t31 35.5t52.5 23.5t63.5 14.5t83 11.5l37 4l7 43q6 44 -7 64t-56 22q-44 0 -140 -32l-12 90q78 37 170 39q58 1 93 -20.5t43 -62.5q72 83 169 83q91 0 126 -68t20 -173q-4 -28 -73 -30q-23 -1 -220 -19q-7 -65 18 -98.5t79 -34.5q81 0 123 30l26 -81 q-69 -49 -168 -49q-115 0 -160 82q-80 -82 -194 -82q-69 0 -103.5 46t-25.5 109zM167 142q-8 -63 47 -63q56 0 119 58l-1 5l-2.5 12.5t-3 17.5t-1.5 19t1 18l-42 -6q-41 -6 -60 -10.5t-36.5 -17t-20.5 -33.5zM464 295l168 18q19 99 -50 99q-93 0 -118 -117z" />
<glyph unicode="&#xe7;" horiz-adv-x="461" d="M64 257q17 122 95 189t174 67q81 -1 127 -47l-31 -89q-41 34 -96 34q-52 0 -91.5 -39.5t-50.5 -119.5q-22 -162 99 -162q55 0 106 36l9 -90q-47 -32 -91 -41l-53 -177h-106l81 173q-94 9 -141.5 76.5t-30.5 189.5z" />
<glyph unicode="&#xe8;" horiz-adv-x="541" d="M63 251q16 113 89 187.5t180 74.5q102 0 145.5 -72t28.5 -179q0 -4 -6 -41h-310q-7 -65 21.5 -98t88.5 -33q77 0 137 42l25 -81q-80 -61 -183 -61q-121 0 -177 69.5t-39 191.5zM192 764h147l84 -166h-98q-26 33 -76 95t-57 71zM201 290h190q8 58 -10.5 89.5t-61.5 31.5 q-36 0 -70 -28t-48 -93z" />
<glyph unicode="&#xe9;" horiz-adv-x="541" d="M63 251q16 113 89 187.5t180 74.5q102 0 145.5 -72t28.5 -179q0 -4 -6 -41h-310q-7 -65 21.5 -98t88.5 -33q77 0 137 42l25 -81q-80 -61 -183 -61q-121 0 -177 69.5t-39 191.5zM201 290h190q8 58 -10.5 89.5t-61.5 31.5q-36 0 -70 -28t-48 -93zM230 574l104 187h147 l-172 -187h-79z" />
<glyph unicode="&#xea;" horiz-adv-x="541" d="M63 251q16 113 89 187.5t180 74.5q102 0 145.5 -72t28.5 -179q0 -4 -6 -41h-310q-7 -65 21.5 -98t88.5 -33q77 0 137 42l25 -81q-80 -61 -183 -61q-121 0 -177 69.5t-39 191.5zM171 553l146 187h91l93 -187h-88l-65 98l-91 -98h-86zM201 290h190q8 58 -10.5 89.5 t-61.5 31.5q-36 0 -70 -28t-48 -93z" />
<glyph unicode="&#xeb;" horiz-adv-x="541" d="M63 251q16 113 89 187.5t180 74.5q102 0 145.5 -72t28.5 -179q0 -4 -6 -41h-310q-7 -65 21.5 -98t88.5 -33q77 0 137 42l25 -81q-80 -61 -183 -61q-121 0 -177 69.5t-39 191.5zM200 601l18 130h98l-19 -130h-97zM201 290h190q8 58 -10.5 89.5t-61.5 31.5q-36 0 -70 -28 t-48 -93zM396 601l18 130h98l-18 -130h-98z" />
<glyph unicode="&#xec;" horiz-adv-x="286" d="M60 0l72 519h133l-73 -519h-132zM65 764h147l84 -166h-98q-26 33 -76 95t-57 71z" />
<glyph unicode="&#xed;" horiz-adv-x="286" d="M60 0l72 519h133l-73 -519h-132zM103 574l104 187h147l-172 -187h-79z" />
<glyph unicode="&#xee;" horiz-adv-x="286" d="M43 553l146 187h91l93 -187h-88l-65 98l-91 -98h-86zM60 0l72 519h133l-73 -519h-132z" />
<glyph unicode="&#xef;" horiz-adv-x="286" d="M60 0l72 519h133l-73 -519h-132zM72 601l18 130h98l-19 -130h-97zM268 601l18 130h98l-18 -130h-98z" />
<glyph unicode="&#xf0;" horiz-adv-x="537" d="M67 225q14 101 81 161.5t164 60.5l57 -8l-59 95l-108 -47l-18 89l81 34l-71 112h139l36 -65l115 51l17 -88l-88 -39q75 -111 106 -182q34 -81 22 -181q-16 -109 -87.5 -168t-180.5 -59q-105 0 -163 64t-43 170zM189 232q-9 -61 19.5 -98t83.5 -37t91 35.5t45 97.5 q9 64 -17.5 101t-83.5 37t-93 -36t-45 -100z" />
<glyph unicode="&#xf1;" horiz-adv-x="584" d="M45 0q8 56 22 155.5t25.5 182t21.5 155.5h111l1 -69q81 90 178 89q81 -1 112.5 -58.5t18.5 -153.5l-42 -301h-133l40 285q4 35 5.5 63t-13 45.5t-47.5 17.5q-31 0 -65.5 -23.5t-54.5 -54.5l-47 -333h-133zM192 599q3 18 5 29.5t8.5 31t15.5 30.5t26 20t39 9 q35 0 85 -19.5t58 -19.5q20 0 26 39h75q-15 -120 -94 -120q-30 0 -85.5 21.5t-57.5 21.5q-21 0 -27 -43h-74z" />
<glyph unicode="&#xf2;" horiz-adv-x="574" d="M63 250q16 118 87 190.5t183 72.5t162 -72t34 -191q-16 -116 -87 -188t-183 -72q-111 0 -161.5 72t-34.5 188zM190 250q-11 -77 12 -118t72 -41q48 0 82.5 41t45.5 118q11 78 -12 119.5t-71 41.5t-83 -41.5t-46 -119.5zM260 740h147l84 -166h-98q-26 33 -76 95t-57 71z " />
<glyph unicode="&#xf3;" horiz-adv-x="574" d="M63 250q16 118 87 190.5t183 72.5t162 -72t34 -191q-16 -116 -87 -188t-183 -72q-111 0 -161.5 72t-34.5 188zM190 250q-11 -77 12 -118t72 -41q48 0 82.5 41t45.5 118q11 78 -12 119.5t-71 41.5t-83 -41.5t-46 -119.5zM246 574l104 187h147l-172 -187h-79z" />
<glyph unicode="&#xf4;" horiz-adv-x="574" d="M63 250q16 118 87 190.5t183 72.5t162 -72t34 -191q-16 -116 -87 -188t-183 -72q-111 0 -161.5 72t-34.5 188zM187 553l146 187h91l93 -187h-88l-65 98l-91 -98h-86zM190 250q-11 -77 12 -118t72 -41q48 0 82.5 41t45.5 118q11 78 -12 119.5t-71 41.5t-83 -41.5 t-46 -119.5z" />
<glyph unicode="&#xf5;" horiz-adv-x="574" d="M63 250q16 118 87 190.5t183 72.5t162 -72t34 -191q-16 -116 -87 -188t-183 -72q-111 0 -161.5 72t-34.5 188zM190 250q-11 -77 12 -118t72 -41q48 0 82.5 41t45.5 118q11 78 -12 119.5t-71 41.5t-83 -41.5t-46 -119.5zM193 599q3 18 5 29.5t8.5 31t15.5 30.5t26 20t39 9 q35 0 85 -19.5t58 -19.5q20 0 26 39h75q-15 -120 -94 -120q-30 0 -85.5 21.5t-57.5 21.5q-21 0 -27 -43h-74z" />
<glyph unicode="&#xf6;" horiz-adv-x="574" d="M63 250q16 118 87 190.5t183 72.5t162 -72t34 -191q-16 -116 -87 -188t-183 -72q-111 0 -161.5 72t-34.5 188zM190 250q-11 -77 12 -118t72 -41q48 0 82.5 41t45.5 118q11 78 -12 119.5t-71 41.5t-83 -41.5t-46 -119.5zM216 601l18 130h98l-19 -130h-97zM412 601l18 130 h98l-18 -130h-98z" />
<glyph unicode="&#xf7;" horiz-adv-x="691" d="M125 225l13 97h505l-14 -97h-504zM278 10l19 132h142l-19 -132h-142zM333 399l19 132h142l-19 -132h-142z" />
<glyph unicode="&#xf8;" horiz-adv-x="552" d="M63 250q16 118 87 190.5t183 72.5q32 0 60 -7l61 118l25 -17l-57 -110q65 -26 92 -91t15 -156q-16 -116 -87 -188t-183 -72q-52 0 -92 17l-52 -99l-23 16l50 96q-50 31 -70 91t-9 139zM190 250q-11 -74 11 -115l141 273q-11 3 -23 3q-48 0 -83 -41.5t-46 -119.5zM220 110 q21 -19 54 -19q48 0 82.5 41t45.5 118q15 108 -33 145z" />
<glyph unicode="&#xf9;" horiz-adv-x="563" d="M67 188l47 331h133l-47 -329q-14 -99 71 -99q84 0 98 99l46 329h132l-46 -331q-14 -98 -79.5 -148t-165.5 -50t-151.5 49.5t-37.5 148.5zM254 740h147l84 -166h-98q-26 33 -76 95t-57 71z" />
<glyph unicode="&#xfa;" horiz-adv-x="563" d="M67 188l47 331h133l-47 -329q-14 -99 71 -99q84 0 98 99l46 329h132l-46 -331q-14 -98 -79.5 -148t-165.5 -50t-151.5 49.5t-37.5 148.5zM241 574l104 187h147l-172 -187h-79z" />
<glyph unicode="&#xfb;" horiz-adv-x="563" d="M67 188l47 331h133l-47 -329q-14 -99 71 -99q84 0 98 99l46 329h132l-46 -331q-14 -98 -79.5 -148t-165.5 -50t-151.5 49.5t-37.5 148.5zM181 553l146 187h91l93 -187h-88l-65 98l-91 -98h-86z" />
<glyph unicode="&#xfc;" horiz-adv-x="563" d="M67 188l47 331h133l-47 -329q-14 -99 71 -99q84 0 98 99l46 329h132l-46 -331q-14 -98 -79.5 -148t-165.5 -50t-151.5 49.5t-37.5 148.5zM211 601l18 130h98l-19 -130h-97zM407 601l18 130h98l-18 -130h-98z" />
<glyph unicode="&#xfd;" horiz-adv-x="526" d="M-5 -200l3 99h31h12q31 0 44 1.5t30 13t29.5 35t29.5 68.5l-109 502h120l68 -346l149 346h123l-260 -554q-46 -98 -92 -131.5t-121 -33.5h-57zM223 574l104 187h147l-172 -187h-79z" />
<glyph unicode="&#xfe;" horiz-adv-x="576" d="M45 -206l112 793l17 142h117l-38 -270q7 6 19 15.5t49 25t74 15.5q105 0 149.5 -75.5t27.5 -191.5q-16 -113 -78 -184.5t-164 -71.5q-42 0 -75.5 14.5t-46.5 29.5l-12 14l-36 -256h-115zM224 256q-11 -75 13.5 -117.5t86.5 -42.5q57 0 89.5 43.5t43.5 116.5 q10 72 -11.5 116t-77.5 44q-62 0 -98 -42.5t-46 -117.5z" />
<glyph unicode="&#xff;" horiz-adv-x="526" d="M-5 -200l3 99h31h12q31 0 44 1.5t30 13t29.5 35t29.5 68.5l-109 502h120l68 -346l149 346h123l-260 -554q-46 -98 -92 -131.5t-121 -33.5h-57zM192 601l18 130h98l-19 -130h-97zM388 601l18 130h98l-18 -130h-98z" />
<glyph unicode="&#x152;" horiz-adv-x="1052" d="M100 355q22 159 131 263t250 104q88 0 155 -51l6 37h448l-24 -108h-307l-25 -176h295l-15 -106h-295l-29 -208h330l-24 -108h-454l6 40q-80 -51 -170 -51q-141 0 -220.5 103.5t-57.5 260.5zM233 353q-14 -104 27.5 -178t134.5 -74q105 0 170 62l54 383q-49 66 -152 66 q-93 0 -156 -77t-78 -182z" />
<glyph unicode="&#x153;" horiz-adv-x="814" d="M65 249q17 116 85.5 190t181.5 74q109 0 155 -97q64 97 179 97q100 0 137 -71t21 -180l-6 -41h-299q-15 -131 106 -131q70 0 130 42l25 -81q-80 -61 -173 -61q-133 0 -169 91q-28 -41 -74.5 -66t-104.5 -25q-113 0 -161.5 73.5t-32.5 185.5zM192 249q-11 -77 12.5 -117.5 t70.5 -40.5q48 0 82.5 40t45.5 118q11 81 -12 121.5t-71 40.5t-82.5 -41.5t-45.5 -120.5zM530 292h179l1 4q16 115 -68 115q-36 0 -67 -27t-45 -92z" />
<glyph unicode="&#x178;" horiz-adv-x="606" d="M83 706h140l120 -295l202 295h138l-286 -420l-41 -286h-139l40 286zM292 782l18 130h98l-19 -130h-97zM488 782l18 130h98l-18 -130h-98z" />
<glyph unicode="&#x2c6;" horiz-adv-x="337" d="M89 553l146 187h91l93 -187h-88l-65 98l-91 -98h-86z" />
<glyph unicode="&#x2dc;" horiz-adv-x="340" d="M93 590q3 18 5 29.5t8.5 31t15.5 30.5t26 20t39 9q35 0 85 -19.5t58 -19.5q20 0 26 39h75q-15 -120 -94 -120q-30 0 -85.5 21.5t-57.5 21.5q-21 0 -27 -43h-74z" />
<glyph unicode="&#x2000;" horiz-adv-x="484" />
<glyph unicode="&#x2001;" horiz-adv-x="968" />
<glyph unicode="&#x2002;" horiz-adv-x="484" />
<glyph unicode="&#x2003;" horiz-adv-x="968" />
<glyph unicode="&#x2004;" horiz-adv-x="322" />
<glyph unicode="&#x2005;" horiz-adv-x="242" />
<glyph unicode="&#x2006;" horiz-adv-x="161" />
<glyph unicode="&#x2007;" horiz-adv-x="161" />
<glyph unicode="&#x2008;" horiz-adv-x="121" />
<glyph unicode="&#x2009;" horiz-adv-x="193" />
<glyph unicode="&#x200a;" horiz-adv-x="53" />
<glyph unicode="&#x2010;" horiz-adv-x="325" d="M62 211l14 95h261l-13 -95h-262z" />
<glyph unicode="&#x2011;" horiz-adv-x="325" d="M62 211l14 95h261l-13 -95h-262z" />
<glyph unicode="&#x2012;" horiz-adv-x="325" d="M62 211l14 95h261l-13 -95h-262z" />
<glyph unicode="&#x2013;" horiz-adv-x="554" d="M63 214l14 97h490l-14 -97h-490z" />
<glyph unicode="&#x2014;" horiz-adv-x="905" d="M27 214l14 97h906l-13 -97h-907z" />
<glyph unicode="&#x2018;" horiz-adv-x="195" d="M118 724h111l20 -244h-87z" />
<glyph unicode="&#x2019;" horiz-adv-x="196" d="M84 480l87 244h112l-113 -244h-86z" />
<glyph unicode="&#x201a;" horiz-adv-x="266" d="M33 -141l88 244h111l-112 -244h-87z" />
<glyph unicode="&#x201c;" horiz-adv-x="333" d="M118 724h112l14 -244h-82zM262 724h106l18 -244h-88z" />
<glyph unicode="&#x201d;" horiz-adv-x="466" d="M157 480l87 244h106l-105 -244h-88zM299 480l83 244h111l-113 -244h-81z" />
<glyph unicode="&#x201e;" horiz-adv-x="474" d="M57 -141l86 244h112l-114 -244h-84zM218 -141l90 244h108l-109 -244h-89z" />
<glyph unicode="&#x2022;" horiz-adv-x="482" d="M114 329q11 72 68 120.5t134 48.5q76 0 119 -46.5t32 -118.5q-11 -73 -67 -121t-134 -48q-77 0 -120 46.5t-32 118.5z" />
<glyph unicode="&#x2026;" horiz-adv-x="732" d="M65 -30l18 132h125l-19 -132h-124zM298 -30l18 132h133l-19 -132h-132zM538 -30l19 132h125l-19 -132h-125z" />
<glyph unicode="&#x202f;" horiz-adv-x="193" />
<glyph unicode="&#x2039;" horiz-adv-x="262" d="M53 267l154 184h105l-153 -184l98 -184h-105z" />
<glyph unicode="&#x203a;" horiz-adv-x="263" d="M27 83l152 184l-96 184h103l101 -184l-156 -184h-104z" />
<glyph unicode="&#x205f;" horiz-adv-x="242" />
<glyph unicode="&#x20ac;" horiz-adv-x="541" d="M66 241l27 96h41l5 34h-56l27 96h53q37 108 112.5 176.5t182.5 68.5q95 0 144 -67l-42 -137l-15 32q-33 72 -103 72q-107 0 -166 -144h251l-26 -97h-251l-4 -22v-7l-1 -5h249v-1l-1 -2l-25 -93h-226q2 -72 30 -111t93 -39q60 0 135 59l25 21l-18 -127q-78 -53 -165 -53 q-111 0 -161.5 69t-51.5 181h-63z" />
<glyph unicode="&#x2122;" horiz-adv-x="820" d="M118 635l11 78h301l-11 -78h-105l-42 -300h-86l42 300h-110zM398 335l54 378h109l54 -246l126 246h101l-53 -378h-82l33 237l-123 -237h-49l-51 233l-33 -233h-86z" />
<glyph unicode="&#xe000;" horiz-adv-x="520" d="M0 0v520h520v-520h-520z" />
<glyph unicode="&#xfb01;" horiz-adv-x="518" d="M64 437l12 82h71l3 16q7 47 14 76.5t21 60t35.5 46.5t56 26.5t83.5 10.5h30l-6 -103h-25q-38 0 -52 -19.5t-21 -70.5l-6 -43h260l-74 -519h-118l62 437h-142l-61 -437h-132l61 437h-72zM434 608l16 114h118l-16 -114h-118z" />
<glyph unicode="&#xfb02;" horiz-adv-x="622" d="M64 437l12 82h71l4 27q15 107 67.5 158.5t157.5 51.5q45 0 105.5 -6t98.5 -12l38 -7l-75 -528q-9 -63 1 -84.5t55 -21.5l25 2l-9 -99q-25 -6 -67 -6q-68 0 -102 29.5t-36.5 80t5.5 118.5l59 424q-44 9 -89 9q-52 0 -72 -21t-27 -72l-6 -43h95l-12 -82h-95l-61 -437h-132 l61 437h-72z" />
</font>
</defs>
</svg>
