<?xml version="1.0" standalone="no"?>
<!DOCTYPE svg PUBLIC "-//W3C//DTD SVG 1.1//EN" "http://www.w3.org/Graphics/SVG/1.1/DTD/svg11.dtd" >
<svg xmlns="http://www.w3.org/2000/svg">
<metadata></metadata>
<defs>
<font id="veggieburgerregular" horiz-adv-x="442" >
<font-face units-per-em="1000" ascent="820" descent="-180" />
<missing-glyph horiz-adv-x="195" />
<glyph unicode="&#xfb01;" horiz-adv-x="470" d="M10 396q0 10 7 17t17 7h65q2 96 48.5 164t135.5 68q64 0 112 -27t48 -60q0 -14 -10 -24.5t-25 -10.5q-18 0 -28 13.5t-6 33.5q-35 28 -91 28q-68 0 -101 -55t-35 -130h258q11 0 19 -6.5t8 -17.5v-379q0 -10 -7 -16.5t-17 -6.5t-17 6.5t-7 16.5v356h-237v-356 q0 -10 -7 -17t-17 -7t-17 7t-7 17v356h-65q-10 0 -17 6.5t-7 16.5z" />
<glyph unicode="&#xfb02;" horiz-adv-x="472" d="M9 396q0 10 7 17t17 7h67q1 99 48.5 166t139.5 67q17 0 40 -2.5t49 -7t36 -5.5q20 -4 20 -24v-597q0 -10 -7 -17t-17 -7t-17 7t-7 17v576q-74 12 -95 12q-74 0 -107.5 -52.5t-34.5 -132.5h140q10 0 17 -7t7 -17t-7 -16.5t-17 -6.5h-140v-355q0 -10 -7 -16.5t-17 -6.5 t-17 6.5t-7 16.5v355h-67q-10 0 -17 6.5t-7 16.5z" />
<glyph horiz-adv-x="1000" />
<glyph horiz-adv-x="1000" />
<glyph unicode="&#xd;" horiz-adv-x="1000" />
<glyph unicode=" "  horiz-adv-x="195" />
<glyph unicode="&#x09;" horiz-adv-x="195" />
<glyph unicode="&#xa0;" horiz-adv-x="195" />
<glyph unicode="!" horiz-adv-x="132" d="M40 27q0 14 10.5 24.5t24.5 10.5t24.5 -10.5t10.5 -24.5t-10.5 -24.5t-24.5 -10.5t-24.5 10.5t-10.5 24.5zM51 148v477q0 10 7 16.5t17 6.5t17 -6.5t7 -16.5v-477q0 -10 -7 -17t-17 -7t-17 7t-7 17z" />
<glyph unicode="&#x22;" horiz-adv-x="231" d="M29 484v144q0 10 7 17t17 7t17 -7t7 -17v-144q0 -10 -7 -17t-17 -7t-17 7t-7 17zM153 484v144q0 10 7 17t17 7t17 -7t7 -17v-144q0 -10 -7 -17t-17 -7t-17 7t-7 17z" />
<glyph unicode="#" horiz-adv-x="509" d="M10 375q0 11 7 17.5t17 6.5h89l33 94h-74q-10 0 -17 7t-7 17t7 17t17 7h90l32 91q5 16 22 16q10 0 17 -7t7 -17q0 -5 -1 -8l-26 -75h119l32 91q5 16 23 16q10 0 17 -7t7 -17q0 -2 -2 -8l-26 -75h78q10 0 17 -7t7 -17t-7 -17t-17 -7h-94l-32 -94h77q10 0 17 -6.5t7 -17.5 q0 -10 -7 -17t-17 -7h-94l-43 -124q-5 -17 -23 -17q-10 0 -17 7.5t-7 17.5q0 3 2 7l37 109h-119l-43 -124q-7 -17 -23 -17q-10 0 -17 7.5t-7 17.5q0 5 1 7l38 109h-73q-10 0 -17 7t-7 17zM174 402h120l32 93h-120z" />
<glyph unicode="$" horiz-adv-x="338" d="M15 174q-6 7 -5 17.5t9 16.5q20 14 34 -5q17 -23 49 -36.5t66 -13.5q43 0 68.5 20.5t25.5 48.5q0 69 -107 94q-55 13 -91.5 43t-36.5 77q0 46 31 74.5t77 34.5v79q0 10 7 17t17 7t16.5 -7t6.5 -17v-78q49 -3 101 -26q13 -6 13.5 -20t-9.5 -22.5t-23 -1.5q-54 23 -100 23 q-38 0 -63.5 -15.5t-25.5 -45.5q0 -56 90 -75q73 -16 109 -52.5t36 -84.5q0 -54 -37 -85.5t-91 -35.5v-88q0 -10 -6.5 -17t-16.5 -7t-17 7t-7 17v90q-79 13 -120 67z" />
<glyph unicode="%" horiz-adv-x="676" d="M19 408q0 50 29.5 107t79.5 97.5t101 40.5q42 0 65.5 -29t23.5 -72q0 -50 -29.5 -107t-79.5 -97.5t-101 -40.5q-42 0 -65.5 29t-23.5 72zM67 408q0 -53 41 -53q57 0 109.5 69t52.5 128q0 53 -41 53q-57 0 -109.5 -69t-52.5 -128zM96 17q0 7 5 14l430 607q7 10 19 10 q10 0 17 -7t7 -17q0 -9 -4 -14l-430 -607q-8 -10 -20 -10q-10 0 -17 7t-7 17zM359 91q0 50 29.5 107t79 97.5t100.5 40.5q42 0 65.5 -29t23.5 -72q0 -79 -66.5 -162.5t-143.5 -83.5q-42 0 -65 29t-23 73zM406 90q0 -53 41 -53q57 0 109.5 69.5t52.5 128.5q0 53 -41 53 q-57 0 -109.5 -69.5t-52.5 -128.5z" />
<glyph unicode="&#x26;" horiz-adv-x="452" d="M19 216q0 72 92 127q-40 23 -40 70q0 53 48.5 92t108.5 54v65q0 10 7 17t17 7t17 -7t7 -17v-55q55 7 116 4q10 -1 16.5 -8t6.5 -17q0 -8 -3 -13t-10.5 -7t-12.5 -2.5t-17 0t-16 0.5q-110 0 -173.5 -36t-63.5 -77q0 -24 23.5 -32.5t47.5 -3.5q69 18 192 34q13 2 20.5 -5.5 t7.5 -18.5q0 -20 -21 -23l-114 -16q-86 -13 -147 -50.5t-61 -79.5q0 -19 14.5 -32.5t38 -19t42.5 -7.5t37 -2q82 0 191 29q13 3 21.5 -5t8.5 -19q0 -19 -17 -23q-66 -17 -127 -25v-96q0 -10 -7 -17.5t-17 -7.5t-17 7.5t-7 17.5v92q-92 -6 -150.5 23t-58.5 83z" />
<glyph unicode="'" horiz-adv-x="108" d="M30 484v144q0 10 7 17t17 7t17 -7t7 -17v-144q0 -10 -7 -17t-17 -7t-17 7t-7 17z" />
<glyph unicode="(" horiz-adv-x="272" d="M10 265q0 120 58.5 233t154.5 194q6 6 15 6q10 0 17 -7t7 -17t-8 -18q-94 -91 -145 -184t-51 -207q0 -218 191 -340q13 -8 13 -21q0 -10 -7 -17t-17 -7q-3 0 -11 2q-102 53 -159.5 158t-57.5 225z" />
<glyph unicode=")" horiz-adv-x="272" d="M10 -97q0 10 8 18q94 91 145.5 184t51.5 207q0 217 -192 340q-13 8 -13 21q0 10 7.5 17t16.5 7q5 0 11 -3q103 -52 160.5 -157t57.5 -226q0 -119 -58.5 -232.5t-154.5 -193.5q-8 -6 -16 -6q-10 0 -17 6.5t-7 17.5z" />
<glyph unicode="*" horiz-adv-x="288" d="M10 536q0 10 7 18t17 8h63l-35 53q-4 8 -4 13q0 10 7 17t17 7q13 0 21 -11l41 -62l41 62q8 11 20 11q10 0 17 -7t7 -17q0 -8 -4 -13l-35 -53h64q10 0 17 -7t7 -17t-7 -17t-17 -7l-67 -1l38 -58q4 -5 4 -13q0 -10 -7 -17t-17 -7q-12 0 -20 11l-41 62l-41 -62 q-8 -11 -21 -11q-10 0 -17 7t-7 17q0 5 4 13l38 58l-66 -1q-10 0 -17 7t-7 17z" />
<glyph unicode="+" horiz-adv-x="481" d="M33 275q0 10 7 17t17 7h162v171q0 10 7 17t17 7t17 -7t7 -17v-171h157q10 0 17 -7t7 -17t-7 -17t-17 -7h-157v-166q0 -10 -7 -17t-17 -7t-17 7t-7 17v166h-162q-10 0 -17 7t-7 17z" />
<glyph unicode="," horiz-adv-x="122" d="M-1 -106q0 10 8 18q29 26 41 88q-18 8 -18 31q0 13 10.5 23.5t24.5 10.5q17 0 26.5 -12.5t9.5 -31.5q0 -31 -20 -78.5t-42 -66.5q-11 -10 -25.5 -4t-14.5 22z" />
<glyph unicode="-" horiz-adv-x="244" d="M20 250q0 10 7 17t17 7h156q10 0 17 -7t7 -17t-7 -17t-17 -7h-156q-10 0 -17 7t-7 17z" />
<glyph unicode="." horiz-adv-x="122" d="M30 30q0 14 10.5 24.5t24.5 10.5q15 0 25 -10.5t10 -24.5q0 -15 -10 -25.5t-25 -10.5q-14 0 -24.5 10.5t-10.5 25.5z" />
<glyph unicode="/" horiz-adv-x="490" d="M19 13q0 6 4 14l403 615q10 15 27 10t17 -23q0 -7 -3 -13l-404 -616q-9 -14 -26.5 -9.5t-17.5 22.5z" />
<glyph unicode="0" horiz-adv-x="681" d="M29 214q0 100 58.5 202.5t155.5 169.5t198 67q96 0 153 -63t57 -161q0 -100 -58.5 -202.5t-155 -170t-197.5 -67.5q-96 0 -153.5 63.5t-57.5 161.5zM77 214q0 -78 43 -127.5t120 -49.5q89 0 174.5 60.5t137.5 152t52 179.5q0 77 -43.5 126.5t-119.5 49.5 q-89 0 -174.5 -60.5t-137.5 -151.5t-52 -179z" />
<glyph unicode="1" horiz-adv-x="266" d="M26 507q0 11 8 17l135 119q6 6 15 6q10 0 17 -7t7 -17v-608q0 -10 -7 -17t-17 -7t-16.5 7t-6.5 17v555l-95 -83q-6 -6 -16 -6t-17 7t-7 17z" />
<glyph unicode="2" horiz-adv-x="481" d="M33 40q44 90 106.5 152.5t163.5 132.5q100 70 100 151q0 60 -47.5 94t-110.5 34q-77 0 -175 -57q-13 -7 -25 -0.5t-12 20.5q0 12 11 21q39 29 95 46.5t106 17.5q83 0 144.5 -47t61.5 -128q0 -106 -121 -191q-88 -61 -143.5 -113t-96.5 -125h328q10 0 17 -7t7 -17t-7 -17 t-17 -7h-365q-16 0 -22 14t2 26z" />
<glyph unicode="3" horiz-adv-x="512" d="M20 575q0 15 13 21q36 23 86 39t90 16q53 0 89 -29.5t36 -82.5q0 -50 -37 -90q78 -3 136 -45t58 -116q0 -79 -68.5 -147.5t-169 -107t-204.5 -43.5q-12 0 -19.5 6.5t-7.5 17.5q0 22 21 24q161 18 280.5 88t119.5 162q0 58 -49 85.5t-111 27.5q-37 0 -78.5 -7.5t-86 -19 t-57.5 -14.5q-10 -2 -18 5t-8 18q0 21 31 27l114 24q106 25 106 105q0 32 -21.5 48t-55.5 16q-57 0 -153 -49q-12 -6 -24 1t-12 20z" />
<glyph unicode="4" horiz-adv-x="551" d="M10 191q0 8 5 15l359 434q10 13 26 7.5t16 -22.5q0 -8 -5 -16l-327 -394h282v189q0 10 7 17t17 7t17 -7t7 -17v-189h100q10 0 17 -7t7 -17t-7 -17t-17 -7h-100v-150q0 -10 -7 -17t-17 -7t-17 7t-7 17v150h-332q-10 0 -17 7t-7 17z" />
<glyph unicode="5" horiz-adv-x="488" d="M10 13q0 22 21 24q153 17 266.5 87t113.5 163q0 58 -46 87.5t-107 29.5q-15 0 -32.5 -2t-29 -4t-32.5 -7.5t-28.5 -8l-31.5 -10.5t-29 -9q-12 -3 -21.5 4t-9.5 19v232q0 10 6.5 17t16.5 7h316q10 0 17 -7t7 -17t-7 -17t-17 -7h-292v-175q107 33 167 33q81 0 141 -43 t60 -121q0 -64 -42 -121t-105.5 -94.5t-136.5 -59.5t-138 -24q-12 0 -19.5 6.5t-7.5 17.5z" />
<glyph unicode="6" horiz-adv-x="576" d="M29 248q0 69 24 129t63.5 104t94.5 79t112.5 57t121.5 35q11 2 20 -5.5t9 -18.5q0 -20 -19 -23q-73 -17 -136 -44t-119.5 -68.5t-89.5 -104.5t-33 -140q0 -92 52 -151q-5 22 -5 46q0 106 85 198t190 92q67 0 107.5 -43.5t40.5 -110.5q0 -106 -86.5 -198t-191.5 -92 q-107 0 -173.5 75t-66.5 184zM169 144q0 -48 26.5 -77.5t73.5 -29.5q85 0 157.5 78.5t72.5 163.5q0 47 -27 76.5t-74 29.5q-84 0 -156.5 -78t-72.5 -163z" />
<glyph unicode="7" horiz-adv-x="514" d="M19 618q0 10 7 17t17 7h433q10 0 17 -7t7 -17q0 -8 -4 -13l-401 -601q-8 -11 -20 -11q-15 0 -21.5 13t1.5 24l377 564h-389q-10 0 -17 7t-7 17z" />
<glyph unicode="8" horiz-adv-x="607" d="M29 145q0 66 44 130.5t105 104.5q-37 10 -60.5 36.5t-23.5 64.5q0 72 71.5 121.5t146.5 49.5q54 0 94 -28t40 -80q0 -51 -45 -98q73 -3 124.5 -46t51.5 -115q0 -79 -58 -148.5t-140.5 -108t-160.5 -38.5q-77 0 -133 40t-56 115zM77 145q0 -54 41.5 -80.5t98.5 -26.5 q66 0 138 32.5t123 91t51 123.5q0 54 -42.5 85t-96.5 31q-62 0 -134.5 -35t-125.5 -96t-53 -125zM142 479q0 -29 27.5 -45.5t57.5 -16.5q61 0 116 38t55 91q0 29 -27 43.5t-59 14.5q-55 0 -112.5 -36.5t-57.5 -88.5z" />
<glyph unicode="9" horiz-adv-x="576" d="M29 364q0 106 86.5 197.5t191.5 91.5q108 0 174 -75t66 -184q0 -85 -35.5 -156t-97 -119t-132.5 -79.5t-152 -48.5q-11 -2 -19.5 5t-8.5 18q0 19 19 24q73 17 136 44t119.5 68.5t89.5 104t33 139.5q0 92 -53 151q6 -19 6 -46q0 -106 -85 -197.5t-190 -91.5 q-67 0 -107.5 43.5t-40.5 110.5zM77 364q0 -47 27 -76.5t73 -29.5q85 0 157.5 78t72.5 163q0 47 -27 76.5t-73 29.5q-85 0 -157.5 -78t-72.5 -163z" />
<glyph unicode=":" horiz-adv-x="122" d="M30 149q0 15 10.5 25t24.5 10q15 0 25.5 -10t10.5 -25q0 -14 -10.5 -24.5t-25.5 -10.5q-14 0 -24.5 10.5t-10.5 24.5zM30 329q0 15 10.5 25t24.5 10q15 0 25.5 -10t10.5 -25q0 -14 -10.5 -24.5t-25.5 -10.5q-14 0 -24.5 10.5t-10.5 24.5z" />
<glyph unicode=";" horiz-adv-x="122" d="M-1 13q0 10 8 18q29 26 41 88q-18 8 -18 31q0 14 10.5 24t23.5 10q18 0 27.5 -12.5t9.5 -31.5q0 -31 -20 -78.5t-42 -66.5q-12 -10 -26 -4t-14 22zM30 329q0 15 10.5 25t24.5 10q15 0 25.5 -10t10.5 -25q0 -14 -10.5 -24.5t-25.5 -10.5q-14 0 -24.5 10.5t-10.5 24.5z" />
<glyph unicode="&#x3c;" horiz-adv-x="414" d="M10 259q0 13 12 20l336 196q4 3 12 3q9 0 16.5 -6.5t7.5 -16.5q0 -14 -12 -21l-301 -175l301 -176q12 -7 12 -20q0 -11 -7 -17.5t-17 -6.5q-8 0 -12 3l-336 196q-12 7 -12 21z" />
<glyph unicode="=" horiz-adv-x="469" d="M10 161q0 10 7 17t17 7h314q10 0 17 -7t7 -17t-7 -17t-17 -7h-314q-10 0 -17 7t-7 17zM10 329q0 10 7 17t17 7h314q10 0 17 -7t7 -17t-7 -17t-17 -7h-314q-10 0 -17 7t-7 17z" />
<glyph unicode="&#x3e;" horiz-adv-x="414" d="M20 63q0 13 12 20l300 176l-300 175q-12 7 -12 21q0 10 7.5 16.5t16.5 6.5q6 0 12 -3l336 -196q12 -7 12 -20q0 -14 -12 -21l-336 -196q-6 -3 -12 -3q-10 0 -17 6.5t-7 17.5z" />
<glyph unicode="?" horiz-adv-x="455" d="M9 563q0 13 12 21q120 70 220 69q83 0 143 -45.5t60 -123.5q0 -60 -43.5 -115.5t-130.5 -85.5q-124 -42 -124 -108v-27q0 -10 -7 -17.5t-17 -7.5t-17 7.5t-7 17.5v27q0 100 156 154q72 24 107 67t35 89q0 59 -46.5 89.5t-108.5 30.5q-88 0 -196 -63q-5 -3 -12 -3 q-10 0 -17 7t-7 17zM87 27q0 15 10.5 25t24.5 10t24.5 -10t10.5 -25q0 -14 -10.5 -24.5t-24.5 -10.5t-24.5 10.5t-10.5 24.5z" />
<glyph unicode="@" horiz-adv-x="841" d="M15 270q0 115 63.5 203t169.5 133.5t237 45.5q84 0 151.5 -25t107.5 -65.5t61 -88.5t21 -98q0 -90 -48 -154.5t-132 -64.5q-46 0 -79.5 26t-43.5 70q-108 -94 -206 -94q-55 0 -88.5 31t-33.5 83q0 68 51.5 122t120.5 79.5t136 25.5q47 0 88 -8q12 -2 18 -12t3 -21 l-36 -116q-9 -30 -9 -55q0 -37 21 -60t58 -23q62 0 97 49.5t35 121.5q0 89 -76.5 159t-216.5 70q-62 0 -121.5 -12.5t-114 -40t-96 -66t-66 -94.5t-24.5 -122q0 -80 45.5 -134.5t110.5 -76.5t144 -22q128 0 233 58q14 7 25.5 0.5t11.5 -19.5q0 -16 -16 -24 q-108 -63 -254 -63q-68 0 -129 17t-111 50t-79 88.5t-29 126.5zM243 272q0 -32 20.5 -49t54.5 -17q94 0 203 110q3 20 8.5 41t15.5 50.5t13 39.5q-25 4 -55 4q-54 0 -111.5 -18.5t-103 -61.5t-45.5 -99z" />
<glyph unicode="A" horiz-adv-x="611" d="M17 18q0 7 1 10l262 605q8 17 26 17q16 0 25 -17l261 -606q2 -6 2 -9q0 -10 -7 -17t-17 -7q-16 0 -22 14l-92 214h-301l-93 -213q-5 -15 -22 -15q-10 0 -16.5 7t-6.5 17zM176 270h259l-129 300z" />
<glyph unicode="B" horiz-adv-x="587" d="M51 19v557q0 14 14 22q104 54 193 54q57 0 97 -29t40 -83t-42 -90q85 -3 147.5 -42.5t62.5 -115.5q0 -59 -40 -111t-99 -85.5t-128 -58t-127 -35.5t-96 -11q-8 0 -15 8.5t-7 19.5zM99 38q52 7 116.5 25t135 48t117.5 77.5t47 102.5q0 40 -30 67.5t-66.5 37t-75.5 9.5 q-109 0 -244 -61v-306zM99 391q61 27 120 41q4 1 27.5 5t28.5 6q27 9 49.5 38.5t22.5 58.5q0 34 -26.5 49t-62.5 15q-65 0 -159 -43v-170z" />
<glyph unicode="C" horiz-adv-x="552" d="M29 244q0 68 28 129.5t74.5 107t107 81.5t125 58t130.5 32q11 2 20 -5t9 -19q0 -19 -20 -23q-58 -9 -115.5 -28t-114 -50.5t-100 -71.5t-70 -95t-26.5 -117q0 -87 55.5 -146t141.5 -59q104 0 216 82q6 5 14 5q9 0 16.5 -7.5t7.5 -17.5q0 -12 -9 -18q-128 -93 -244 -93 q-106 0 -176 73.5t-70 181.5z" />
<glyph unicode="D" horiz-adv-x="601" d="M51 17v557q0 15 15 22q50 23 115.5 40t118.5 17q114 0 193 -66.5t79 -178.5q0 -85 -44.5 -159t-117.5 -124t-157 -83.5t-174 -48.5q-11 -2 -19.5 5.5t-8.5 18.5zM99 41q71 14 142 44t136 74.5t106 109.5t41 138q0 93 -65 145.5t-159 52.5q-87 0 -201 -47v-517z" />
<glyph unicode="E" horiz-adv-x="422" d="M51 24v594q0 10 7 17t17 7h290q10 0 17 -7t7 -17t-7 -17t-17 -7h-266v-173h247q10 0 17 -7t7 -17t-7 -17t-17 -7h-247v-325h270q10 0 17 -7t7 -17t-7 -17t-17 -7h-294q-10 0 -17 7t-7 17z" />
<glyph unicode="F" horiz-adv-x="425" d="M51 18v600q0 10 7 17t17 7h296q10 0 17 -7t7 -17t-7 -17t-17 -7h-272v-173h238q10 0 17 -7t7 -17t-7 -17t-17 -7h-238v-355q0 -10 -7 -17t-17 -7t-17 7t-7 17z" />
<glyph unicode="G" horiz-adv-x="576" d="M29 232q0 89 42 164.5t111.5 126t149.5 83.5t165 47q10 1 18 -4.5t10 -15.5q1 -10 -4.5 -18t-15.5 -10q-59 -9 -117 -28t-115 -51.5t-100 -74t-69.5 -99t-26.5 -122.5q0 -81 48.5 -137t127.5 -55q95 0 229 94v91h-166q-10 0 -17 7.5t-7 17.5t7 17t17 7h190q10 0 17 -7 t7 -17v-228q0 -10 -7 -17t-17 -7t-17 7t-7 17v61q-120 -90 -228 -92q-100 0 -162.5 70t-62.5 173z" />
<glyph unicode="H" horiz-adv-x="541" d="M51 18v606q0 10 7 17t17 7t17 -7t7 -17v-203h343v203q0 10 7 17t17 7t17 -7t7 -17v-606q0 -10 -7 -17t-17 -7t-17 7t-7 17v355h-343v-355q0 -10 -7 -17t-17 -7t-17 7t-7 17z" />
<glyph unicode="I" horiz-adv-x="150" d="M51 18v606q0 10 7 17t17 7t17 -7t7 -17v-606q0 -10 -7 -17t-17 -7t-17 7t-7 17z" />
<glyph unicode="J" horiz-adv-x="444" d="M12 69q0 11 7 17.5t17 6.5t17 -7q55 -49 122 -49q81 0 126 55.5t45 138.5v393q0 10 7 17t17 7t17 -7t7 -17v-393q0 -103 -59 -172.5t-160 -69.5q-43 0 -87 17t-70 47q-6 8 -6 16z" />
<glyph unicode="K" horiz-adv-x="496" d="M51 20v604q0 10 7 17t17 7t17 -7t7 -17v-246l288 264q7 7 17 7t17 -7t7 -17t-8 -18l-265 -243l315 -331q7 -7 7 -16q0 -10 -7 -17t-17 -7q-11 0 -18 7l-336 352v-332q0 -10 -6.5 -17t-17.5 -7q-10 0 -17 7t-7 17z" />
<glyph unicode="L" horiz-adv-x="403" d="M51 24v600q0 10 7 17t17 7t17 -7t7 -17v-576h270q10 0 17 -7t7 -17t-7 -17t-17 -7h-294q-10 0 -17 7t-7 17z" />
<glyph unicode="M" horiz-adv-x="717" d="M51 17v610q0 10 7 16.5t17 6.5q14 0 20 -10l264 -394l264 394q6 11 19 11q10 0 17 -7t7 -17v-610q0 -10 -7 -17t-17 -7t-17 7t-7 17v532l-239 -359q-8 -11 -20 -11q-14 0 -20 11l-240 359v-532q0 -10 -7 -17t-17 -7t-17 7t-7 17z" />
<glyph unicode="N" horiz-adv-x="551" d="M51 17v609q0 10 7 17t17 7q14 0 20 -11l357 -542v527q0 10 7 17t17 7t17 -7t7 -17v-607q0 -10 -7 -16.5t-17 -6.5q-12 0 -20 10l-357 543v-530q0 -10 -7 -16.5t-17 -6.5t-17 6.5t-7 16.5z" />
<glyph unicode="O" horiz-adv-x="624" d="M29 246q0 92 45 185.5t126.5 157.5t175.5 64q101 0 160 -75.5t59 -180.5q0 -92 -44.5 -185.5t-126.5 -158t-176 -64.5q-101 0 -160 76t-59 181zM77 245q0 -84 45 -146t126 -62t151.5 58t109 140.5t38.5 162.5q0 84 -45 145.5t-126 61.5t-151.5 -57.5t-109 -140 t-38.5 -162.5z" />
<glyph unicode="P" horiz-adv-x="500" d="M51 18v549q0 14 14 23q117 63 223 63q75 0 132 -41t57 -114q0 -60 -39 -111.5t-99.5 -84.5t-122 -53.5t-117.5 -27.5v-203q0 -10 -7 -17t-17 -7t-17 7t-7 17zM99 265q42 6 96 24.5t107.5 47.5t90 72t36.5 89q0 53 -43.5 80t-99.5 27q-88 0 -187 -52v-288z" />
<glyph unicode="Q" horiz-adv-x="624" d="M29 246q0 92 45 185.5t126.5 157.5t175.5 64q101 0 160 -75.5t59 -180.5q0 -66 -26 -137.5t-71 -131.5l145 -156q6 -6 6 -16q0 -11 -7 -17.5t-18 -6.5q-10 0 -16 8l-142 152q-100 -103 -218 -103q-101 0 -160 76t-59 181zM77 245q0 -84 45 -146t126 -62q103 0 186 90 l-64 69q-10 11 -5.5 24t16.5 16t24 -7l60 -65q82 111 82 234q0 84 -45 145.5t-126 61.5t-151.5 -57.5t-109 -140t-38.5 -162.5z" />
<glyph unicode="R" horiz-adv-x="506" d="M51 18v544q0 14 13 21q123 70 228 70q71 0 124 -38.5t53 -107.5q0 -57 -39 -102.5t-90 -68.5t-110 -35l244 -269q7 -7 7 -16q0 -10 -7 -17t-17 -7q-12 0 -18 8l-269 297q-7 9 -7 16q0 21 21 24q237 42 237 169q0 49 -39.5 73.5t-91.5 24.5q-83 0 -191 -56v-530 q0 -10 -7 -17t-17 -7t-17 7t-7 17z" />
<glyph unicode="S" horiz-adv-x="450" d="M23 75q0 16 14 22t26 -4q75 -56 158 -56q65 0 108.5 32.5t43.5 95.5q0 29 -14.5 56t-35 45.5t-51.5 36.5t-54 28t-53 22q-57 23 -96 62t-39 93q0 65 55.5 105t123.5 40q40 0 91 -13.5t81 -34.5q12 -7 12 -20q0 -14 -13.5 -21t-26.5 0q-75 41 -144 41q-48 0 -89.5 -26.5 t-41.5 -71.5q0 -65 104 -107q46 -18 81.5 -36.5t75 -47.5t61 -67.5t21.5 -83.5q0 -82 -57.5 -129t-143.5 -47q-48 0 -103 19t-86 50q-8 8 -8 17z" />
<glyph unicode="T" horiz-adv-x="510" d="M19 618q0 10 7 17t17 7h424q10 0 17 -7t7 -17t-7 -17t-17 -7h-188v-577q0 -10 -7 -17t-17 -7t-17 7t-7 17v577h-188q-10 0 -17 7t-7 17z" />
<glyph unicode="U" horiz-adv-x="546" d="M51 250v375q0 10 7 17t17 7t17 -7t7 -17v-375q0 -88 43.5 -150.5t130.5 -62.5t130.5 62.5t43.5 150.5v375q0 10 7 17t17 7t17 -7t7 -17v-375q0 -110 -57 -185.5t-165 -75.5t-165 75.5t-57 185.5z" />
<glyph unicode="V" horiz-adv-x="613" d="M19 626q0 10 7 17t17 7q17 0 22 -15l243 -563l240 562q7 15 22 15q10 0 17 -7t7 -17q0 -5 -2 -9l-259 -607q-6 -16 -25 -16q-18 0 -25 17l-262 607q-2 6 -2 9z" />
<glyph unicode="W" horiz-adv-x="901" d="M18 624q0 10 7 17t17 7q17 0 22 -14l243 -563l116 271l-117 273q-2 3 -2 9q0 10 7 17t17 7q15 0 22 -14l242 -563l244 563q5 14 22 14q10 0 17 -6.5t7 -16.5q0 -4 -2 -10l-263 -607q-6 -16 -25 -16q-18 0 -26 17l-117 272l-117 -273q-8 -16 -25 -16q-18 0 -26 17 l-261 606q-2 6 -2 9z" />
<glyph unicode="X" horiz-adv-x="568" d="M19 17q0 7 5 14l231 321l-186 258q-4 5 -4 14q0 10 6.5 17t16.5 7q12 0 20 -10l176 -245l177 246q8 10 19 10q10 0 17 -7t7 -17q0 -9 -4 -14l-187 -259l231 -321q5 -7 5 -14q0 -10 -7 -17t-17 -7q-12 0 -19 10l-222 308l-221 -308q-8 -10 -20 -10q-10 0 -17 7t-7 17z" />
<glyph unicode="Y" horiz-adv-x="537" d="M19 625q0 10 7 17t17 7q12 0 19 -10l210 -277l203 278q6 9 19 9q10 0 17 -7t7 -17q0 -7 -5 -14l-217 -296v-298q0 -10 -6.5 -17t-16.5 -7t-17 6.5t-7 16.5v298l-225 296q-5 8 -5 15z" />
<glyph unicode="Z" horiz-adv-x="479" d="M20 24q0 5 4 13l358 557h-301q-10 0 -17 7t-7 17t7 17t17 7h344q11 0 17.5 -7t6.5 -17q0 -7 -3 -13l-358 -557h351q10 0 17 -7t7 -17t-7 -17t-17 -7h-395q-10 0 -17 7t-7 17z" />
<glyph unicode="[" horiz-adv-x="228" d="M0 -127v831q0 10 7 17t17 7h175q10 0 17 -7t7 -17t-7 -17t-17 -7h-151v-783h151q10 0 17 -7t7 -17t-7 -17t-17 -7h-175q-10 0 -17 7t-7 17z" />
<glyph unicode="\" horiz-adv-x="496" d="M26 624q0 10 7 17t17 7q13 0 20 -11l396 -607q4 -5 4 -13q0 -10 -7 -17t-17 -7q-14 0 -20 11l-396 607q-4 4 -4 13z" />
<glyph unicode="]" horiz-adv-x="230" d="M8 -127q0 10 7 17t17 7h151v783h-151q-10 0 -17 7t-7 17t7 17t17 7h175q10 0 17 -7t7 -17v-831q0 -10 -7 -17t-17 -7h-175q-10 0 -17 7t-7 17z" />
<glyph unicode="^" horiz-adv-x="486" d="M23 289q0 7 3 12l196 336q7 12 21 12q13 0 20 -12l196 -336q4 -4 4 -12q0 -10 -7 -17t-17 -7q-14 0 -21 12l-175 301l-175 -301q-9 -12 -21 -12q-10 0 -17 7t-7 17z" />
<glyph unicode="_" horiz-adv-x="508" d="M-24 -93q0 10 7 17t17 7h508q10 0 17 -7t7 -17t-7 -16.5t-17 -6.5h-508q-10 0 -17 6.5t-7 16.5z" />
<glyph unicode="`" d="M141 628q0 14 12.5 20t22.5 -2l115 -80q10 -7 10 -18q0 -14 -12.5 -20.5t-22.5 1.5l-116 80q-9 6 -9 19z" />
<glyph unicode="a" horiz-adv-x="491" d="M19 91q0 44 28.5 80t70.5 57t96 35t98 19.5t82 6.5q-23 97 -154 97q-81 0 -152 -46q-12 -9 -25.5 -2.5t-13.5 21.5q0 11 10 19q29 26 82.5 40t99.5 14q98 0 152.5 -49t54.5 -145v-221q0 -10 -7 -17t-17 -7t-17 7t-7 17v68q-132 -96 -243 -96q-55 0 -96.5 25.5t-41.5 76.5 zM67 91q0 -29 28.5 -41.5t61.5 -12.5q114 0 243 103v105q-37 0 -87.5 -8t-108.5 -24t-97.5 -48t-39.5 -74z" />
<glyph unicode="b" horiz-adv-x="498" d="M38 19v606q0 10 7 17t17 7t17 -7t7 -17v-249q114 56 207 56q76 0 130.5 -40.5t54.5 -114.5q0 -63 -42 -117.5t-106.5 -88.5t-133 -54.5t-129.5 -24.5q-13 -1 -21 6.5t-8 20.5zM86 36q47 10 90.5 23t91 34.5t82.5 46.5t57.5 61t22.5 76q0 53 -41.5 79.5t-97.5 26.5 q-89 0 -205 -60v-287z" />
<glyph unicode="c" horiz-adv-x="489" d="M19 145q0 63 41 117t105 88t133 55t134 27q15 1 22 -10.5t2.5 -24t-19.5 -13.5q-44 -4 -91.5 -15.5t-97.5 -32t-89.5 -47t-65 -64.5t-25.5 -81q0 -53 43.5 -79.5t99.5 -26.5q91 0 213 65q14 7 25 -0.5t11 -20.5q0 -16 -13 -22q-133 -71 -237 -71q-78 0 -134.5 41 t-56.5 115z" />
<glyph unicode="d" horiz-adv-x="494" d="M19 137q0 66 38.5 121t100 89t124.5 55t126 30v193q0 10 7 17t17 7t17 -7t7 -17v-607q0 -10 -7 -17t-17 -7t-17 7t-7 17v58q-118 -87 -228 -87q-69 0 -115 40t-46 108zM67 137q0 -48 32 -73.5t81 -25.5q98 0 228 91v255q-52 -9 -106 -26.5t-109.5 -46t-90.5 -74.5 t-35 -100z" />
<glyph unicode="e" horiz-adv-x="506" d="M19 156q0 80 56 145.5t135 98t157 32.5q47 0 83.5 -21.5t36.5 -66.5q0 -39 -22.5 -70.5t-61.5 -51t-83 -33.5t-94 -20.5t-88 -9.5t-71 -3q0 -57 39 -88t98 -31q85 0 219 69q12 7 24 0t12 -20q0 -14 -13 -21q-50 -31 -119.5 -53.5t-122.5 -22.5q-80 0 -132.5 44.5 t-52.5 122.5zM73 199q142 0 254 42.5t112 102.5q0 22 -23 31t-49 9q-58 0 -117 -20t-108.5 -63.5t-68.5 -101.5z" />
<glyph unicode="f" horiz-adv-x="358" d="M10 397q0 10 7 17t17 7h66v5q0 111 58.5 173.5t165.5 45.5q20 -3 20 -23q0 -12 -7 -19.5t-20 -5.5q-85 14 -127 -34.5t-42 -136.5v-5h144q10 0 17 -7t7 -17t-7 -17t-17 -7h-144v-355q0 -10 -7 -17t-17 -7t-17 7t-7 17v355h-66q-10 0 -17 7t-7 17z" />
<glyph unicode="g" horiz-adv-x="581" d="M19 236q0 79 81 137.5t164 58.5q47 0 81 -21l76 78q6 7 16 7t17.5 -6.5t7.5 -17.5q0 -9 -7 -16l-75 -78q16 -23 16 -55q0 -45 -32 -89q80 4 138.5 -36.5t58.5 -118.5q0 -58 -36 -109t-90.5 -83t-117 -50.5t-118.5 -18.5q-64 0 -115.5 31t-51.5 91q0 36 19.5 63t51 41.5 t64.5 21.5t66 7q64 0 115 -13q19 -5 19 -24q0 -11 -9 -18t-20 -5q-60 12 -105 12q-21 0 -45 -4t-49.5 -12.5t-42 -26t-16.5 -41.5q0 -38 38.5 -56.5t80.5 -18.5q65 0 136 24.5t125 75.5t54 113q0 53 -40.5 80.5t-95.5 27.5q-9 0 -69 -6q-74 -54 -157 -54q-54 0 -93.5 28.5 t-39.5 80.5zM67 236q0 -32 25.5 -46.5t59.5 -14.5q60 0 128.5 45t68.5 103q0 31 -26 46t-59 15q-60 0 -128.5 -45t-68.5 -103z" />
<glyph unicode="h" horiz-adv-x="449" d="M38 17v607q0 10 7 17t17 7t17 -7t7 -17v-280q31 40 75 63.5t92 23.5q74 0 116 -51t42 -156v-207q0 -10 -7 -17t-17 -7t-17 7t-7 17v207q0 84 -28 121.5t-84 37.5q-53 0 -97 -34t-68 -85v-247q0 -10 -7 -17t-17 -7t-17 7t-7 17z" />
<glyph unicode="i" horiz-adv-x="124" d="M27 617q0 14 10.5 24.5t24.5 10.5q15 0 25 -10.5t10 -24.5t-10 -24.5t-25 -10.5q-14 0 -24.5 10.5t-10.5 24.5zM38 16v387q0 10 7 17t17 7t17 -7t7 -17v-387q0 -10 -7 -17t-17 -7t-17 7t-7 17z" />
<glyph unicode="j" horiz-adv-x="134" d="M-163 -143q0 12 9.5 19t21.5 4q28 -7 50 -7q64 0 97 41t33 107v382q0 10 7 17t17 7t17 -7t7 -17v-382q0 -86 -47 -141t-131 -55q-81 0 -81 32zM37 617q0 15 10 25.5t25 10.5q14 0 24.5 -10.5t10.5 -25.5q0 -14 -10.5 -24.5t-24.5 -10.5q-15 0 -25 10.5t-10 24.5z" />
<glyph unicode="k" horiz-adv-x="371" d="M38 17v608q0 10 7 17t17 7t17 -7t7 -17v-349l226 149q5 4 13 4q10 0 17 -7t7 -17q0 -13 -10 -20l-196 -127l208 -225q6 -6 6 -16t-7 -17t-17 -7t-17 7l-230 249v-231q0 -10 -7 -17t-17 -7t-17 6.5t-7 16.5z" />
<glyph unicode="l" horiz-adv-x="124" d="M38 18v607q0 10 7 17t17 7t17 -7t7 -17v-607q0 -10 -7 -17t-17 -7t-17 7t-7 17z" />
<glyph unicode="m" horiz-adv-x="752" d="M38 17v386q0 10 7 17.5t17 7.5t17 -7.5t7 -17.5v-59q67 87 156 87q110 0 143 -104q28 49 75 76.5t96 27.5q74 0 116 -51t42 -156v-207q0 -10 -7.5 -17t-17.5 -7t-17 7t-7 17v207q0 84 -27.5 121.5t-84.5 37.5q-50 0 -90.5 -32.5t-64.5 -83.5q2 -26 2 -43v-207 q0 -10 -7 -17t-17 -7t-17 7t-7 17v207q0 84 -28 121.5t-84 37.5q-51 0 -90.5 -33.5t-63.5 -85.5v-247q0 -10 -7 -17t-17 -7t-17 7t-7 17z" />
<glyph unicode="n" horiz-adv-x="449" d="M38 17v386q0 10 7 17.5t17 7.5t17 -7t7 -18v-59q31 40 75 63.5t92 23.5q74 0 116 -51t42 -156v-207q0 -10 -7 -17t-17 -7t-17 7t-7 17v207q0 84 -28 121.5t-84 37.5q-53 0 -97 -34t-68 -85v-247q0 -10 -7 -17t-17 -7t-17 7t-7 17z" />
<glyph unicode="o" horiz-adv-x="446" d="M19 146q0 67 36.5 133t99 109.5t130.5 43.5q66 0 104 -45t38 -112q0 -104 -81 -195t-184 -91q-66 0 -104.5 45.5t-38.5 111.5zM67 146q0 -46 24.5 -77.5t70.5 -31.5q82 0 149.5 77.5t67.5 160.5q0 46 -24.5 77.5t-69.5 31.5q-84 0 -151 -77.5t-67 -160.5z" />
<glyph unicode="p" horiz-adv-x="498" d="M38 -155v493q0 15 12 21q54 32 121 53t123 21q75 0 129.5 -39.5t54.5 -112.5q0 -59 -38 -111t-98 -86.5t-126 -56t-130 -29.5v-153q0 -10 -7 -17t-17 -7t-17 7t-7 17zM86 41q90 18 164.5 49t127 81.5t52.5 109.5q0 53 -41 78.5t-96 25.5q-92 0 -207 -61v-283z" />
<glyph unicode="q" horiz-adv-x="514" d="M19 136q0 67 44.5 124t112 92t138.5 55t133 24q13 1 21 -6.5t8 -20.5v-559q0 -10 -7 -17t-17 -7t-17 7t-7 17v235q-50 -39 -115.5 -65t-126.5 -26q-70 0 -118.5 39.5t-48.5 107.5zM67 136q0 -49 34.5 -73.5t85.5 -24.5q104 0 241 94v248q-169 -25 -265 -93.5t-96 -150.5z " />
<glyph unicode="r" horiz-adv-x="327" d="M38 18v385q0 10 7 17.5t17 7.5t17 -7.5t7 -17.5v-49q24 34 61 55.5t76 21.5q44 0 78 -22q13 -9 13 -22q0 -14 -12 -21.5t-27 0.5q-27 17 -52 17q-48 0 -84.5 -36t-52.5 -87v-242q0 -10 -7 -17t-17 -7t-17 7t-7 17z" />
<glyph unicode="s" horiz-adv-x="338" d="M15 59q-10 11 -4 23.5t19 14.5t23 -9q17 -22 49 -36t66 -14q43 0 68.5 20.5t25.5 48.5q0 69 -107 94q-55 13 -91.5 43t-36.5 77q0 52 39.5 81.5t93.5 29.5q63 0 123 -27q13 -6 13.5 -20t-9.5 -22.5t-23 -1.5q-54 23 -100 23q-39 0 -64 -15.5t-25 -45.5q0 -31 27 -49.5 t63 -25.5q73 -16 109 -52.5t36 -84.5q0 -57 -42 -89.5t-100 -32.5q-46 0 -87.5 19t-65.5 51z" />
<glyph unicode="t" horiz-adv-x="341" d="M10 397q0 10 7 17t17 7h65v152q0 10 7 17t17 7t17 -7t7 -17v-152h143q10 0 17 -7t7 -17t-7 -17t-17 -7h-143v-197q0 -71 27.5 -104t89.5 -33q6 0 18 1.5t18 1.5q10 0 17 -6t7 -15q0 -30 -59 -30q-166 0 -166 185v197h-65q-10 0 -17 7t-7 17z" />
<glyph unicode="u" horiz-adv-x="449" d="M38 197v207q0 10 7 17t17 7t17 -7t7 -17v-208q0 -83 27.5 -120.5t84.5 -37.5q52 0 96.5 34t67.5 85v247q0 10 7 17t17 7t17 -7t7 -17v-387q0 -10 -7 -17t-17 -7t-17 7t-7 17v60q-31 -40 -75 -63.5t-91 -23.5q-158 0 -158 207z" />
<glyph unicode="v" horiz-adv-x="432" d="M10 404q0 10 7 17t17 7q14 0 21 -14l162 -347l160 347q7 14 22 14q10 0 17 -7t7 -17q0 -4 -2 -10l-179 -388q-7 -15 -25 -15q-17 0 -25 16l-180 386q-2 4 -2 11z" />
<glyph unicode="w" horiz-adv-x="707" d="M10 403q0 10 7 17t17 7q14 0 21 -13l160 -340l115 338q7 16 23 16t23 -16l116 -338l160 340q7 14 22 14q10 0 17 -7t7 -17q0 -5 -3 -11l-181 -385q-8 -16 -25 -16q-19 0 -26 19l-110 320l-110 -320q-5 -18 -26 -18q-17 0 -25 15l-180 385q-2 3 -2 10z" />
<glyph unicode="x" horiz-adv-x="376" d="M16 17q0 9 4 14l137 196l-114 162q-4 5 -4 14q0 10 7 17t17 7q12 0 19 -10l105 -148l104 148q8 10 20 10q10 0 17 -7t7 -17q0 -7 -5 -14l-114 -162l139 -195q4 -8 4 -14q0 -10 -7 -17t-17 -7q-12 0 -19 10l-129 182l-128 -182q-6 -11 -20 -11q-10 0 -16.5 7t-6.5 17z" />
<glyph unicode="y" d="M-6 -150q0 9 6.5 16.5t16.5 7.5q5 0 7 -1q30 -8 49 -8q46 0 73.5 30t54.5 92l-189 407q-2 3 -2 10q0 10 7 17t17 7q15 0 21 -14l171 -368l159 366q7 15 22 15q10 0 17 -7t7 -17q0 -6 -2 -10l-184 -427q-34 -77 -74.5 -113t-95.5 -36q-30 0 -63 9q-18 6 -18 24z" />
<glyph unicode="z" horiz-adv-x="398" d="M19 24q0 9 6 15l272 334h-230q-10 0 -17 7t-7 17t7 17t17 7h280q10 0 17 -7t7 -17q0 -9 -6 -15l-271 -334h262q10 0 17 -7t7 -17t-7 -17t-17 -7h-313q-10 0 -17 7t-7 17z" />
<glyph unicode="{" horiz-adv-x="348" d="M0 289q0 7 6.5 14t13.5 7q42 0 69.5 16.5t27.5 53.5q0 20 -7 46q-21 90 -21 144q0 43 13 73t32 46t52 25t61 11t70 2q10 0 17 -6.5t7 -16.5t-6.5 -17t-17.5 -7h-31t-28 -1t-29 -2.5t-24.5 -5t-24 -9t-17.5 -14t-15 -19t-8 -26t-4 -33.5q0 -49 21 -133q8 -38 8 -57 q0 -71 -59 -91q59 -20 59 -91q0 -21 -8 -57q-21 -84 -21 -133q0 -18 4 -33.5t8 -26t15 -19t17.5 -14t24 -9t24.5 -5t29 -2.5t28 -1h31q11 0 17.5 -7t6.5 -17t-7 -17t-17 -7q-42 0 -70 2t-61 11t-52 25.5t-32 46.5t-13 73q0 54 21 144q28 116 -90 116q-7 0 -13.5 6.5 t-6.5 14.5z" />
<glyph unicode="|" horiz-adv-x="150" d="M51 18v606q0 10 7 17t17 7t17 -7t7 -17v-606q0 -10 -7 -17t-17 -7t-17 7t-7 17z" />
<glyph unicode="}" horiz-adv-x="351" d="M9 -125q0 10 7 17t17 7h9q29 0 44 0.5t39.5 3.5t37 10t26 18.5t19.5 31t6 46.5q0 50 -21 132q-7 33 -7 58q0 72 58 91q-58 18 -58 91q0 24 7 57q21 82 21 133q0 32 -10.5 53.5t-23.5 32.5t-40 16.5t-44.5 6t-53.5 0.5h-9q-10 0 -17 7t-7 17t7 17t17 7q42 0 70 -2t61 -11 t52.5 -25.5t32.5 -46.5t13 -72q0 -50 -22 -144q-7 -26 -7 -46q0 -37 27.5 -54t69.5 -17q7 0 13.5 -6.5t6.5 -13.5q0 -8 -6.5 -14.5t-13.5 -6.5q-118 0 -90 -116q22 -94 22 -145q0 -42 -13 -72t-32.5 -46.5t-52.5 -25.5t-61 -11t-70 -2q-10 0 -17 7t-7 17z" />
<glyph unicode="~" horiz-adv-x="574" d="M31 315q22 44 55.5 76t75.5 35q37 3 82 -17.5t88 -41.5t76 -19q21 1 41.5 14t29.5 22.5t29 33.5q15 18 33.5 5t5.5 -33q-24 -36 -60 -61t-75 -28q-53 -4 -134.5 38t-112.5 40q-7 -1 -13.5 -3t-11.5 -4t-11 -7t-9.5 -8t-9.5 -10t-8.5 -10t-8 -11.5t-7 -11t-7 -11.5 t-6.5 -10q-6 -11 -19 -13q-15 -1 -22 10.5t-1 24.5z" />
<glyph unicode="&#xa1;" horiz-adv-x="132" d="M40 613q0 15 10.5 25t24.5 10t24.5 -10t10.5 -25q0 -14 -10.5 -24.5t-24.5 -10.5t-24.5 10.5t-10.5 24.5zM51 18v477q0 10 7 17t17 7t17 -7t7 -17v-477q0 -10 -7 -17t-17 -7t-17 7t-7 17z" />
<glyph unicode="&#xa2;" horiz-adv-x="489" d="M19 277q0 77 56.5 136t147.5 98v113q0 10 7 16.5t17 6.5t17 -6.5t7 -16.5v-94q85 28 161 34q24 2 26 -21q2 -10 -4.5 -17.5t-16.5 -8.5q-56 -6 -116 -23t-119 -45.5t-96.5 -74t-37.5 -98.5q0 -52 43.5 -78.5t99.5 -26.5q94 0 213 65q14 7 25 -0.5t11 -21.5t-13 -21 q-93 -50 -176 -65v-112q0 -10 -7 -17t-17 -7t-17 7t-7 17v107q-4 -1 -13 -1q-78 0 -134.5 40.5t-56.5 114.5z" />
<glyph unicode="&#xa3;" horiz-adv-x="500" d="M10 365q0 11 7 17.5t17 6.5h61q-12 55 -12 77q0 186 211 186q96 0 170 -38q15 -7 15 -21q0 -13 -11 -20t-23 -2q-88 34 -152 34q-80 0 -121 -32t-41 -107q0 -25 13 -77h168q10 0 17 -7t7 -17t-7 -17t-17 -7h-155q3 -9 10.5 -32t10 -31.5t5 -26t2.5 -37.5q0 -77 -47 -166 h318q10 0 17 -7t7 -17t-7 -17t-17 -7h-360q-10 0 -17 7t-7 17q0 9 4 14q33 50 47 87.5t14 88.5q0 19 -3 36.5t-6 28t-10 30.5t-11 32h-73q-10 0 -17 7t-7 17z" />
<glyph unicode="&#xa5;" horiz-adv-x="537" d="M19 625q0 10 7 17t17 7q12 0 19 -10l210 -277l203 278q6 9 19 9q10 0 17 -7t7 -17q0 -7 -5 -14l-217 -296v-41h80q10 0 17 -7t7 -17t-7 -17t-17 -7h-80v-62h80q10 0 17 -7t7 -17t-7 -17t-17 -7h-80v-99q0 -10 -6.5 -17t-16.5 -7t-17 6.5t-7 16.5v100h-87q-10 0 -17 7 t-7 17t7 17t17 7h87v62h-87q-10 0 -17 7t-7 17t7 17t17 7h87v40l-225 296q-5 8 -5 15z" />
<glyph unicode="&#xa6;" horiz-adv-x="150" d="M51 17v221q0 10 7 17t17 7t17 -7t7 -17v-221q0 -10 -7 -17t-17 -7t-17 7t-7 17zM51 399v225q0 10 7 17t17 7t17 -7t7 -17v-225q0 -10 -7 -17t-17 -7t-17 7t-7 17z" />
<glyph unicode="&#xa7;" horiz-adv-x="312" d="M22 288q-2 79 55 131q-61 61 -46 132q8 37 35.5 64t64.5 35q92 17 159 -81q8 -12 0.5 -24t-19.5 -13t-21 10q-49 72 -110 61q-22 -5 -39.5 -22t-22.5 -40q-13 -60 58 -109q74 -51 114.5 -117t41.5 -132q2 -80 -55 -132q61 -61 46 -132q-8 -37 -36 -64.5t-65 -34.5 q-90 -17 -158 81q-5 8 -3 18t10 16q8 5 18 3t15 -10q49 -73 109 -60q23 5 40.5 21.5t22.5 39.5q13 60 -58 109q-74 52 -115 118t-41 132zM70 288q0 -53 34 -107t95 -99q45 37 45 101q-1 52 -35 106.5t-94 98.5q-47 -39 -45 -100z" />
<glyph unicode="&#xa8;" d="M100 592q0 14 10.5 24.5t24.5 10.5q15 0 25 -10.5t10 -24.5q0 -15 -10 -25.5t-25 -10.5q-14 0 -24.5 10.5t-10.5 25.5zM272 592q0 14 10 24.5t25 10.5q14 0 24.5 -10.5t10.5 -24.5q0 -15 -10.5 -25.5t-24.5 -10.5q-15 0 -25 10.5t-10 25.5z" />
<glyph unicode="&#xa9;" horiz-adv-x="852" d="M19 275q0 67 28.5 127.5t76.5 105t108.5 77.5t126 50t127.5 17q88 0 165 -31t129 -97.5t52 -156.5q0 -67 -28.5 -127.5t-76 -105.5t-108 -78t-126 -50t-128.5 -17q-87 0 -164 31t-129.5 98t-52.5 157zM67 274q0 -111 91 -174t207 -63q55 0 113.5 14.5t113.5 43.5t98 68 t69 92.5t26 112.5q0 75 -46 131t-112.5 81t-140.5 25q-55 0 -113.5 -14.5t-113 -43.5t-97.5 -68t-69 -92.5t-26 -112.5zM227 287q0 80 86 139.5t222 78.5q11 2 19 -5t8 -19q0 -19 -21 -23q-8 -2 -34.5 -6.5t-40.5 -7.5q-69 -18 -130 -59t-61 -98q0 -37 29.5 -55t68.5 -18 q61 0 155 46q12 6 23.5 -0.5t11.5 -20.5q0 -13 -13 -21q-36 -22 -86.5 -37t-91.5 -15q-59 0 -102 32t-43 89z" />
<glyph unicode="&#xaa;" horiz-adv-x="478" d="M24 462q0 77 121 131.5t277 58.5q11 1 19.5 -6.5t8.5 -19.5v-232q0 -10 -7 -17t-17 -7q-4 0 -7.5 1t-6 3t-4.5 3.5t-3 5.5t-2 6t-1 7.5v8v9v8.5q-107 -58 -220 -58q-25 0 -50.5 4.5t-50.5 15t-41 30.5t-16 48zM72 462q0 -27 37 -39t71 -12q97 0 222 56v135 q-151 -14 -240.5 -54.5t-89.5 -85.5z" />
<glyph unicode="&#xab;" horiz-adv-x="418" d="M16 225q-14 15 0 31l138 156q11 12 26.5 6t15.5 -22q0 -8 -6 -16l-124 -140l124 -139q6 -6 6 -16q0 -16 -16 -22t-26 6zM217 225q-14 15 0 31l138 156q11 12 26.5 6t15.5 -22q0 -8 -6 -16l-124 -140l124 -139q6 -6 6 -16q0 -16 -15.5 -22t-26.5 6z" />
<glyph unicode="&#xad;" horiz-adv-x="244" d="M20 250q0 10 7 17t17 7h156q10 0 17 -7t7 -17t-7 -17t-17 -7h-156q-10 0 -17 7t-7 17z" />
<glyph unicode="&#xae;" horiz-adv-x="852" d="M19 275q0 67 28.5 127.5t76.5 105t108.5 77.5t126 50t127.5 17q88 0 165 -31t129 -97.5t52 -156.5q0 -67 -28.5 -127.5t-76 -105.5t-108 -78t-126 -50t-128.5 -17q-87 0 -164 31t-129.5 98t-52.5 157zM67 274q0 -111 91 -174t207 -63q55 0 113.5 14.5t113.5 43.5t98 68 t69 92.5t26 112.5q0 75 -46 131t-112.5 81t-140.5 25q-55 0 -113.5 -14.5t-113 -43.5t-97.5 -68t-69 -92.5t-26 -112.5zM329 139v329q0 10 7 17t17 7t17 -7t7 -17v-38q29 49 81.5 66t108.5 1q10 -3 15 -11.5t2 -18.5q-2 -9 -11 -14t-18 -2q-81 22 -129.5 -28t-48.5 -134 v-150q0 -10 -7 -17t-17 -7t-17 7t-7 17z" />
<glyph unicode="&#xaf;" horiz-adv-x="427" d="M86 619q0 10 6.5 16.5t16.5 6.5h209q10 0 16.5 -6.5t6.5 -16.5q0 -9 -6.5 -16t-16.5 -7h-209q-10 0 -16.5 7t-6.5 16z" />
<glyph unicode="&#xb0;" horiz-adv-x="427" d="M70 539q0 48 42 80.5t92 32.5q41 0 72 -24t31 -64q0 -49 -41.5 -81t-91.5 -32q-42 0 -73 24t-31 64zM118 539q0 -20 17 -30t39 -10q29 0 57 18.5t28 46.5q0 20 -17 30.5t-38 10.5q-29 0 -57.5 -19t-28.5 -47z" />
<glyph unicode="&#xb2;" horiz-adv-x="380" d="M46 588q0 13 11 21q60 43 137 43q58 0 101 -33.5t43 -89.5q0 -74 -84 -133q-103 -70 -147 -144h210q10 0 17 -7t7 -17t-7 -17t-17 -7h-249q-15 0 -21.5 13t0.5 25q29 60 72.5 104.5t107.5 89.5q63 44 63 93q0 36 -29.5 56t-66.5 20q-46 0 -111 -37q-12 -7 -24.5 -0.5 t-12.5 20.5z" />
<glyph unicode="&#xb3;" horiz-adv-x="387" d="M26 594q0 14 13 21q61 37 120 37q38 0 64 -22t26 -60q0 -27 -15 -52q49 -6 83.5 -35t34.5 -77q0 -47 -31 -86.5t-78.5 -63t-96.5 -37t-92 -15.5q-11 -1 -18.5 5.5t-7.5 18.5q0 21 21 23q37 6 73 15.5t81.5 27t73 46.5t27.5 65q0 35 -29.5 50.5t-67.5 15.5q-30 0 -133 -24 q-38 -9 -38 21q0 19 27 25l76 18q32 8 37 12q25 18 25 47q0 34 -42 34q-26 0 -66 -17t-43 -17q-10 0 -17 7t-7 17z" />
<glyph unicode="&#xb4;" d="M141 548q0 12 9 18l116 80q4 4 12 4q10 0 16.5 -6.5t6.5 -15.5q0 -12 -10 -19l-115 -80q-5 -4 -13 -4q-9 0 -15.5 6.5t-6.5 16.5z" />
<glyph unicode="&#xb6;" horiz-adv-x="510" d="M19 499q0 73 54.5 112.5t129.5 39.5q111 0 244 -74q12 -7 12 -21v-539q0 -10 -7 -16.5t-17 -6.5t-17 6.5t-7 16.5v199q-79 12 -141 32v-231q0 -10 -6.5 -16.5t-16.5 -6.5t-17 6.5t-7 16.5v249q-83 36 -143.5 96t-60.5 137zM67 499q0 -56 47 -103.5t109 -76.5v283 q-6 1 -18 1q-56 0 -97 -25.5t-41 -78.5zM270 299q63 -23 141 -35v278q-77 40 -141 53v-296z" />
<glyph unicode="&#xb7;" horiz-adv-x="122" d="M30 313q0 15 10.5 25.5t24.5 10.5q15 0 25.5 -10.5t10.5 -25.5q0 -14 -10.5 -24.5t-25.5 -10.5q-14 0 -24.5 10.5t-10.5 24.5z" />
<glyph unicode="&#xb8;" d="M140 -144q0 21 19 24q76 16 76 58q0 25 -24 25q-2 0 -7.5 -1t-8.5 -1q-10 0 -17 7t-7 17q0 26 41 26q30 0 50.5 -21.5t20.5 -51.5q0 -44 -34 -70.5t-81 -34.5q-2 -1 -5 -1q-10 0 -16.5 7t-6.5 17z" />
<glyph unicode="&#xb9;" horiz-adv-x="255" d="M34 553q0 12 11 20l102 72q5 4 14 4q10 0 17 -6.5t7 -16.5v-395q0 -10 -7 -17t-17 -7t-17 7t-7 17v348q-2 -2 -11.5 -9t-18 -13t-19 -13t-18.5 -11t-12 -4q-10 0 -17 7t-7 17z" />
<glyph unicode="&#xba;" horiz-adv-x="438" d="M19 464q0 54 45.5 99.5t104.5 67.5t110 22q55 0 97.5 -26t42.5 -78q0 -54 -45.5 -99t-104.5 -67.5t-110 -22.5q-55 0 -97.5 26t-42.5 78zM67 465q0 -30 29 -43.5t63 -13.5q37 0 85 17t87.5 51t39.5 73q0 30 -29 43.5t-63 13.5q-62 0 -137 -42t-75 -99z" />
<glyph unicode="&#xbb;" horiz-adv-x="418" d="M21 396q0 16 15.5 22t26.5 -6l139 -156q6 -6 6 -15q0 -10 -6 -16l-138 -156q-11 -12 -26.5 -6t-15.5 22q0 10 6 16l124 139l-125 140q-6 10 -6 16zM222 396q0 16 16 22t26 -6l139 -156q6 -6 6 -15q0 -10 -6 -16l-139 -156q-10 -12 -25.5 -6t-15.5 22q0 10 6 16l124 139 l-125 140q-6 10 -6 16z" />
<glyph unicode="&#xbc;" horiz-adv-x="823" d="M25 553q0 12 10 19l102 73q5 4 14 4q10 0 17 -7t7 -17v-394q0 -10 -7 -17t-17 -7t-17 7t-7 17v348l-65 -46q-8 -4 -13 -4q-10 0 -17 7t-7 17zM93 32l501 608q10 13 26 7.5t16 -22.5q0 -8 -5 -15l-501 -608q-8 -9 -19 -9q-15 0 -21.5 14t3.5 25zM379 132q0 8 5 16l266 323 q8 9 19 9q10 0 17 -7t7 -17q0 -9 -6 -15l-234 -285h212v115q0 10 7 17t17 7t17 -7t7 -17v-115h63q10 0 17 -7t7 -17t-7 -17t-17 -7h-63v-90q0 -10 -7 -17t-17 -7t-17 7t-7 17v90h-263q-10 0 -16.5 7t-6.5 17z" />
<glyph unicode="&#xbd;" horiz-adv-x="836" d="M25 553q0 12 10 19l102 73q5 4 14 4q10 0 17 -7t7 -17v-394q0 -10 -7 -17t-17 -7t-17 7t-7 17v348l-65 -46q-8 -4 -13 -4q-10 0 -17 7t-7 17zM93 32l501 608q10 13 26 7.5t16 -22.5q0 -8 -5 -15l-501 -608q-8 -9 -19 -9q-15 0 -21.5 14t3.5 25zM511 24q0 10 3 14 q29 60 72.5 104.5t107.5 89.5q63 44 63 93q0 36 -29.5 56t-66.5 20q-46 0 -111 -37q-6 -3 -13 -3q-10 0 -17 7t-7 17q0 12 11 20q60 43 137 43q58 0 101 -33.5t43 -89.5q0 -73 -84 -132q-103 -72 -147 -145h210q10 0 17 -7t7 -17t-7 -17t-17 -7h-249q-10 0 -17 7t-7 17z" />
<glyph unicode="&#xbe;" horiz-adv-x="901" d="M26 594q0 14 13 21q61 37 120 37q38 0 64 -22t26 -60q0 -27 -15 -52q49 -6 83.5 -35t34.5 -77q0 -47 -31 -86.5t-78.5 -63t-96.5 -37t-92 -15.5q-11 -1 -18.5 5.5t-7.5 18.5q0 21 21 23q37 6 73 15.5t81.5 27t73 46.5t27.5 65q0 35 -29.5 50.5t-67.5 15.5q-30 0 -133 -24 q-38 -9 -38 21q0 19 27 25l76 18q32 8 37 12q25 18 25 47q0 34 -42 34q-26 0 -66 -17t-43 -17q-10 0 -17 7t-7 17zM171 32l501 608q10 13 26 7.5t16 -22.5q0 -8 -5 -15l-501 -608q-8 -9 -19 -9q-15 0 -21.5 14t3.5 25zM456 132q0 8 6 16l266 323q6 9 18 9q10 0 17 -7t7 -17 q0 -8 -5 -15l-234 -285h211v115q0 10 7 17t17 7t17 -6.5t7 -17.5v-115h64q10 0 17 -7t7 -17t-7 -17t-17 -7h-64v-90q0 -10 -7 -17t-17 -7t-17 7t-7 17v90h-262q-10 0 -17 7t-7 17z" />
<glyph unicode="&#xbf;" horiz-adv-x="455" d="M10 158q0 61 43.5 116.5t130.5 85.5q124 42 124 108v27q0 10 7 17t17 7t17 -7t7 -17v-27q0 -43 -34.5 -83.5t-121.5 -70.5q-72 -24 -107 -67.5t-35 -89.5q0 -58 47 -89t108 -31q87 0 196 63q8 4 15.5 3.5t12 -6.5t7 -12.5t-0.5 -14t-10 -11.5q-120 -70 -220 -70 q-83 0 -143 45.5t-60 123.5zM297 615q0 15 10.5 25t24.5 10t24.5 -10t10.5 -25q0 -14 -10.5 -24.5t-24.5 -10.5t-24.5 10.5t-10.5 24.5z" />
<glyph unicode="&#xc0;" horiz-adv-x="611" d="M17 18q0 7 2 10l262 605q7 17 25 17t25 -17l261 -606q2 -6 2 -9q0 -10 -7 -17t-17 -7q-16 0 -22 14l-92 214h-301l-92 -213q-7 -15 -22 -15q-10 0 -17 7t-7 17zM176 270h260l-130 300zM207 802q0 14 12.5 20t23.5 -2l115 -80q10 -7 10 -18q0 -14 -12.5 -20.5t-23.5 1.5 l-115 80q-10 7 -10 19z" />
<glyph unicode="&#xc1;" horiz-adv-x="611" d="M17 18q0 7 2 10l262 605q7 17 25 17t25 -17l261 -606q2 -6 2 -9q0 -10 -7 -17t-17 -7q-16 0 -22 14l-92 214h-301l-92 -213q-7 -15 -22 -15q-10 0 -17 7t-7 17zM176 270h260l-130 300zM255 720q0 12 10 19l115 80q5 4 13 4q10 0 16.5 -6.5t6.5 -16.5q0 -11 -10 -18 l-115 -80q-5 -4 -13 -4q-9 0 -16 6.5t-7 15.5z" />
<glyph unicode="&#xc2;" horiz-adv-x="611" d="M17 18q0 7 2 10l262 605q7 17 25 17t25 -17l261 -606q2 -6 2 -9q0 -10 -7 -17t-17 -7q-16 0 -22 14l-92 214h-301l-92 -213q-7 -15 -22 -15q-10 0 -17 7t-7 17zM161 727q0 12 10 19l121 78q4 4 12 4t12 -4l123 -79q11 -6 11 -19q0 -9 -6.5 -15.5t-16.5 -6.5q-6 0 -12 3 l-111 71l-108 -70q-5 -4 -12 -4q-10 0 -16.5 6.5t-6.5 16.5zM176 270h260l-130 300z" />
<glyph unicode="&#xc3;" horiz-adv-x="611" d="M17 18q0 7 2 10l262 605q7 17 25 17t25 -17l261 -606q2 -6 2 -9q0 -10 -7 -17t-17 -7q-16 0 -22 14l-92 214h-301l-92 -213q-7 -15 -22 -15q-10 0 -17 7t-7 17zM133 729q0 7 4 12q38 67 97 67q34 0 74.5 -24.5t66.5 -24.5q24 0 48 22t32 22q9 0 16 -6.5t7 -16.5 q0 -8 -6 -14q-40 -52 -97 -52q-37 0 -78 24t-62 24q-19 0 -35 -14t-26.5 -28t-17.5 -14q-10 0 -16.5 6.5t-6.5 16.5zM176 270h260l-130 300z" />
<glyph unicode="&#xc4;" horiz-adv-x="611" d="M17 18q0 7 2 10l262 605q7 17 25 17t25 -17l261 -606q2 -6 2 -9q0 -10 -7 -17t-17 -7q-16 0 -22 14l-92 214h-301l-92 -213q-7 -15 -22 -15q-10 0 -17 7t-7 17zM176 270h260l-130 300zM184 728q0 15 10.5 25t25.5 10q14 0 24.5 -10t10.5 -25q0 -14 -10.5 -24.5 t-24.5 -10.5q-15 0 -25.5 10.5t-10.5 24.5zM356 728q0 15 10.5 25t24.5 10t24.5 -10t10.5 -25q0 -14 -10.5 -24.5t-24.5 -10.5t-24.5 10.5t-10.5 24.5z" />
<glyph unicode="&#xc5;" horiz-adv-x="611" d="M17 18q0 7 2 10l250 579q-35 6 -58.5 29t-23.5 58q0 49 41.5 81t91.5 32q42 0 73 -24t31 -65q0 -36 -24 -63.5t-61 -40.5l253 -587q2 -6 2 -9q0 -10 -7 -17t-17 -7q-16 0 -22 14l-92 214h-301l-92 -213q-7 -15 -22 -15q-10 0 -17 7t-7 17zM176 270h260l-130 300zM235 694 q0 -20 17 -30.5t38 -10.5q29 0 57.5 18.5t28.5 46.5q0 20 -17 30.5t-39 10.5q-29 0 -57 -18.5t-28 -46.5z" />
<glyph unicode="&#xc6;" horiz-adv-x="798" d="M8 17q0 5 2 11l243 472q73 142 198 142h289q10 0 17 -7t7 -17t-7 -17t-17 -7h-265v-330h247q10 0 17 -7t7 -17t-7 -17t-17 -7h-247v-168h269q10 0 17 -7t7 -17t-7 -17t-17 -7h-293q-10 0 -17 7t-7 17v192h-266l-108 -210q-7 -13 -21 -13q-10 0 -17 7t-7 17zM186 264h241 v328q-78 -9 -131 -113z" />
<glyph unicode="&#xc7;" horiz-adv-x="552" d="M29 244q0 68 28 129t74.5 106.5t107 82t125 58.5t130.5 32q11 2 20 -5t9 -19q0 -19 -20 -23q-58 -9 -115.5 -28t-114 -50.5t-100 -71.5t-70 -95t-26.5 -117q0 -88 55.5 -146.5t142.5 -58.5q101 0 215 82q6 5 14 5q9 0 16.5 -7.5t7.5 -17.5q0 -12 -9 -18q-86 -63 -166 -82 q32 -21 32 -62q0 -44 -34 -70.5t-81 -34.5q-1 -1 -4 -1q-10 0 -17 7t-7 17q0 20 20 24q76 16 76 58q0 25 -24 25q-3 0 -8.5 -1t-8.5 -1q-10 0 -17 7t-7 17q0 1 0.5 2t0.5 2q-106 1 -175.5 74t-69.5 181z" />
<glyph unicode="&#xc8;" horiz-adv-x="422" d="M51 24v594q0 10 7 17t17 7h289q10 0 17 -7t7 -17t-7 -17t-17 -7h-265v-173h247q10 0 17 -7t7 -17t-7 -17t-17 -7h-247v-325h270q10 0 17 -7t7 -17t-7 -17t-17 -7h-294q-10 0 -17 7t-7 17zM120 802q0 14 12 20t23 -2l116 -80q9 -6 9 -18q0 -14 -12 -20.5t-23 1.5l-116 80 q-9 6 -9 19z" />
<glyph unicode="&#xc9;" horiz-adv-x="422" d="M51 24v594q0 10 7 17t17 7h289q10 0 17 -7t7 -17t-7 -17t-17 -7h-265v-173h247q10 0 17 -7t7 -17t-7 -17t-17 -7h-247v-325h270q10 0 17 -7t7 -17t-7 -17t-17 -7h-294q-10 0 -17 7t-7 17zM187 720q0 12 10 19l115 80q5 4 13 4q10 0 16.5 -6.5t6.5 -16.5q0 -11 -10 -18 l-115 -80q-5 -4 -13 -4q-9 0 -16 6.5t-7 15.5z" />
<glyph unicode="&#xca;" horiz-adv-x="422" d="M51 24v594q0 10 7 17t17 7h289q10 0 17 -7t7 -17t-7 -17t-17 -7h-265v-173h247q10 0 17 -7t7 -17t-7 -17t-17 -7h-247v-325h270q10 0 17 -7t7 -17t-7 -17t-17 -7h-294q-10 0 -17 7t-7 17zM83 727q0 13 11 19l120 78q5 4 12 4q8 0 13 -4l123 -79q10 -7 10 -19 q0 -9 -6.5 -15.5t-15.5 -6.5q-7 0 -13 3l-111 71l-108 -70q-4 -4 -12 -4q-10 0 -16.5 6.5t-6.5 16.5z" />
<glyph unicode="&#xcb;" horiz-adv-x="422" d="M51 24v594q0 10 7 17t17 7h289q10 0 17 -7t7 -17t-7 -17t-17 -7h-265v-173h247q10 0 17 -7t7 -17t-7 -17t-17 -7h-247v-325h270q10 0 17 -7t7 -17t-7 -17t-17 -7h-294q-10 0 -17 7t-7 17zM109 738q0 14 10.5 24.5t24.5 10.5q15 0 25 -10.5t10 -24.5t-10 -24.5t-25 -10.5 q-14 0 -24.5 10.5t-10.5 24.5zM281 738q0 14 10 24.5t25 10.5q14 0 24.5 -10.5t10.5 -24.5t-10.5 -24.5t-24.5 -10.5q-15 0 -25 10.5t-10 24.5z" />
<glyph unicode="&#xcc;" horiz-adv-x="150" d="M-10 802q0 14 12 20t23 -2l115 -80q10 -7 10 -18q0 -14 -12 -20.5t-23 1.5l-116 80q-9 6 -9 19zM51 18v606q0 10 7 17t17 7t17 -7t7 -17v-606q0 -10 -7 -17t-17 -7t-17 7t-7 17z" />
<glyph unicode="&#xcd;" horiz-adv-x="150" d="M22 720q0 12 10 19l115 80q5 4 13 4q10 0 16.5 -6.5t6.5 -16.5q0 -11 -10 -18l-115 -80q-5 -4 -13 -4q-9 0 -16 6.5t-7 15.5zM51 18v606q0 10 7 17t17 7t17 -7t7 -17v-606q0 -10 -7 -17t-17 -7t-17 7t-7 17z" />
<glyph unicode="&#xce;" horiz-adv-x="150" d="M-69 727q0 12 10 19l120 78q5 4 13 4q7 0 12 -4l123 -79q11 -6 11 -19q0 -9 -7 -15.5t-16 -6.5q-7 0 -12 3l-111 71l-108 -70q-5 -4 -13 -4q-9 0 -15.5 6.5t-6.5 16.5zM51 18v606q0 10 7 17t17 7t17 -7t7 -17v-606q0 -10 -7 -17t-17 -7t-17 7t-7 17z" />
<glyph unicode="&#xcf;" horiz-adv-x="150" d="M-46 738q0 14 10.5 24.5t24.5 10.5q15 0 25 -10.5t10 -24.5t-10 -24.5t-25 -10.5q-14 0 -24.5 10.5t-10.5 24.5zM51 18v606q0 10 7 17t17 7t17 -7t7 -17v-606q0 -10 -7 -17t-17 -7t-17 7t-7 17zM126 738q0 14 10 24.5t25 10.5q14 0 24.5 -10.5t10.5 -24.5t-10.5 -24.5 t-24.5 -10.5q-15 0 -25 10.5t-10 24.5z" />
<glyph unicode="&#xd0;" horiz-adv-x="645" d="M10 317q0 15 15 22l71 30v206q0 7 3 12t9 8.5t10.5 6t12.5 5.5t11 4q108 42 202 42q114 0 193 -66t79 -178q0 -72 -31.5 -135.5t-81 -108.5t-116 -80.5t-131.5 -57t-132 -33.5q-11 -2 -19.5 5.5t-8.5 18.5v299q-4 -1 -19 -8t-26.5 -11.5t-16.5 -4.5q-10 0 -17 7t-7 17z M144 44q56 11 112 30.5t113 52t100.5 72t71 94t27.5 115.5q0 93 -65 145t-159 52t-200 -46v-170q1 1 27 12t46 18.5t25 7.5q10 0 17 -7t7 -17q0 -17 -15 -22l-107 -44v-293z" />
<glyph unicode="&#xd1;" horiz-adv-x="551" d="M51 17v609q0 10 7 17t17 7q14 0 20 -11l357 -542v527q0 10 7 17t17 7t17 -7t7 -17v-607q0 -10 -7 -16.5t-17 -6.5q-12 0 -20 10l-357 543v-530q0 -10 -7 -16.5t-17 -6.5t-17 6.5t-7 16.5zM115 729q0 4 4 12q38 67 97 67q34 0 74.5 -24.5t66.5 -24.5q24 0 48 22t32 22 q9 0 16 -6.5t7 -16.5q0 -8 -6 -14q-40 -52 -97 -52q-37 0 -77.5 24t-61.5 24q-20 0 -36 -14t-26.5 -28t-17.5 -14q-9 0 -16 6.5t-7 16.5z" />
<glyph unicode="&#xd2;" horiz-adv-x="624" d="M29 246q0 92 45 185.5t126.5 157.5t175.5 64q101 0 160 -75.5t59 -180.5q0 -92 -44.5 -185.5t-126.5 -158t-176 -64.5q-101 0 -160 76t-59 181zM77 245q0 -84 45 -146t126 -62t151.5 58t109 140.5t38.5 162.5q0 84 -45 145.5t-126 61.5t-151.5 -57.5t-109 -140 t-38.5 -162.5zM294 802q0 14 12.5 20t23.5 -2l115 -80q10 -7 10 -18q0 -14 -12.5 -20.5t-23.5 1.5l-115 80q-10 7 -10 19z" />
<glyph unicode="&#xd3;" horiz-adv-x="624" d="M29 246q0 92 45 185.5t126.5 157.5t175.5 64q101 0 160 -75.5t59 -180.5q0 -92 -44.5 -185.5t-126.5 -158t-176 -64.5q-101 0 -160 76t-59 181zM77 245q0 -84 45 -146t126 -62t151.5 58t109 140.5t38.5 162.5q0 84 -45 145.5t-126 61.5t-151.5 -57.5t-109 -140 t-38.5 -162.5zM304 720q0 12 10 19l115 80q5 4 13 4q9 0 15.5 -6.5t6.5 -16.5q0 -12 -9 -18l-115 -80q-5 -4 -13 -4q-10 0 -16.5 6.5t-6.5 15.5z" />
<glyph unicode="&#xd4;" horiz-adv-x="624" d="M29 246q0 92 45 185.5t126.5 157.5t175.5 64q101 0 160 -75.5t59 -180.5q0 -92 -44.5 -185.5t-126.5 -158t-176 -64.5q-101 0 -160 76t-59 181zM77 245q0 -84 45 -146t126 -62t151.5 58t109 140.5t38.5 162.5q0 84 -45 145.5t-126 61.5t-151.5 -57.5t-109 -140 t-38.5 -162.5zM229 727q0 12 10 19l121 78q4 4 12 4t12 -4l123 -79q11 -6 11 -19q0 -9 -6.5 -15.5t-16.5 -6.5q-6 0 -12 3l-111 71l-108 -70q-5 -4 -13 -4q-9 0 -15.5 6.5t-6.5 16.5z" />
<glyph unicode="&#xd5;" horiz-adv-x="624" d="M29 246q0 92 45 185.5t126.5 157.5t175.5 64q101 0 160 -75.5t59 -180.5q0 -92 -44.5 -185.5t-126.5 -158t-176 -64.5q-101 0 -160 76t-59 181zM77 245q0 -84 45 -146t126 -62t151.5 58t109 140.5t38.5 162.5q0 84 -45 145.5t-126 61.5t-151.5 -57.5t-109 -140 t-38.5 -162.5zM203 729q0 6 3 12q40 67 98 67q34 0 74.5 -24.5t65.5 -24.5t48.5 22t31.5 22q10 0 16.5 -6.5t6.5 -16.5q0 -7 -5 -14q-42 -52 -97 -52q-38 0 -78.5 24t-61.5 24q-20 0 -35.5 -14t-26 -28t-18.5 -14q-9 0 -15.5 6.5t-6.5 16.5z" />
<glyph unicode="&#xd6;" horiz-adv-x="624" d="M29 246q0 92 45 185.5t126.5 157.5t175.5 64q101 0 160 -75.5t59 -180.5q0 -92 -44.5 -185.5t-126.5 -158t-176 -64.5q-101 0 -160 76t-59 181zM77 245q0 -84 45 -146t126 -62t151.5 58t109 140.5t38.5 162.5q0 84 -45 145.5t-126 61.5t-151.5 -57.5t-109 -140 t-38.5 -162.5zM249 738q0 14 10.5 24.5t25.5 10.5q14 0 24.5 -10.5t10.5 -24.5t-10.5 -24.5t-24.5 -10.5q-15 0 -25.5 10.5t-10.5 24.5zM421 738q0 14 10.5 24.5t24.5 10.5t24.5 -10.5t10.5 -24.5t-10.5 -24.5t-24.5 -10.5t-24.5 10.5t-10.5 24.5z" />
<glyph unicode="&#xd7;" d="M29 91q0 10 7 17l151 151l-131 131q-7 7 -7 17q0 16 15 22t26 -5l131 -131l131 131q11 11 26 5t15 -22q0 -10 -7 -17l-131 -131l151 -151q7 -7 7 -17q0 -16 -15 -22t-26 5l-151 151l-151 -151q-11 -11 -26 -5t-15 22z" />
<glyph unicode="&#xd8;" horiz-adv-x="625" d="M-37 -43q0 9 6 15l101 119q-40 66 -40 153q0 68 27 140.5t72 131.5t111 97t137 38q75 0 130 -45l84 99q11 12 26.5 6.5t15.5 -22.5q0 -9 -6 -15l-86 -102q55 -71 55 -176q0 -93 -44.5 -186t-126.5 -157t-176 -64q-89 0 -150 63l-94 -111q-11 -12 -26.5 -6.5t-15.5 22.5z M78 244q0 -65 25 -114l373 440q-42 33 -99 33q-81 0 -151.5 -57.5t-109 -139.5t-38.5 -162zM130 89q46 -52 119 -52q81 0 151.5 57.5t109 139.5t38.5 162q0 82 -39 138z" />
<glyph unicode="&#xd9;" horiz-adv-x="546" d="M51 250v375q0 10 7 17t17 7t17 -7t7 -17v-375q0 -88 43.5 -150.5t130.5 -62.5t130.5 62.5t43.5 150.5v375q0 10 7 17t17 7t17 -7t7 -17v-375q0 -110 -57 -185.5t-165 -75.5t-165 75.5t-57 185.5zM159 802q0 14 12.5 20t22.5 -2l115 -80q10 -7 10 -18q0 -14 -12.5 -20.5 t-23.5 1.5l-115 80q-9 6 -9 19z" />
<glyph unicode="&#xda;" horiz-adv-x="546" d="M51 250v375q0 10 7 17t17 7t17 -7t7 -17v-375q0 -88 43.5 -150.5t130.5 -62.5t130.5 62.5t43.5 150.5v375q0 10 7 17t17 7t17 -7t7 -17v-375q0 -110 -57 -185.5t-165 -75.5t-165 75.5t-57 185.5zM236 720q0 12 10 19l115 80q5 4 13 4q9 0 16 -6.5t7 -16.5q0 -11 -10 -18 l-115 -80q-5 -4 -13 -4q-10 0 -16.5 6.5t-6.5 15.5z" />
<glyph unicode="&#xdb;" horiz-adv-x="546" d="M51 250v375q0 10 7 17t17 7t17 -7t7 -17v-375q0 -88 43.5 -150.5t130.5 -62.5t130.5 62.5t43.5 150.5v375q0 10 7 17t17 7t17 -7t7 -17v-375q0 -110 -57 -185.5t-165 -75.5t-165 75.5t-57 185.5zM128 727q0 13 11 19l120 78q5 4 13 4q7 0 12 -4l123 -79q11 -6 11 -19 q0 -9 -7 -15.5t-16 -6.5q-7 0 -12 3l-111 71l-108 -70q-5 -4 -13 -4q-9 0 -16 6.5t-7 16.5z" />
<glyph unicode="&#xdc;" horiz-adv-x="546" d="M51 250v375q0 10 7 17t17 7t17 -7t7 -17v-375q0 -88 43.5 -150.5t130.5 -62.5t130.5 62.5t43.5 150.5v375q0 10 7 17t17 7t17 -7t7 -17v-375q0 -110 -57 -185.5t-165 -75.5t-165 75.5t-57 185.5zM152 738q0 14 10.5 24.5t24.5 10.5q15 0 25 -10.5t10 -24.5t-10 -24.5 t-25 -10.5q-14 0 -24.5 10.5t-10.5 24.5zM324 738q0 14 10 24.5t25 10.5q14 0 24.5 -10.5t10.5 -24.5t-10.5 -24.5t-24.5 -10.5q-15 0 -25 10.5t-10 24.5z" />
<glyph unicode="&#xdd;" horiz-adv-x="537" d="M19 625q0 10 7 17t17 7q12 0 19 -10l210 -277l203 278q6 9 19 9q10 0 17 -7t7 -17q0 -7 -5 -14l-217 -296v-298q0 -10 -6.5 -17t-16.5 -7t-17 6.5t-7 16.5v298l-225 296q-5 8 -5 15zM226 720q0 12 10 19l115 80q5 4 13 4q10 0 16.5 -6.5t6.5 -16.5q0 -11 -10 -18 l-115 -80q-5 -4 -13 -4q-10 0 -16.5 6.5t-6.5 15.5z" />
<glyph unicode="&#xde;" horiz-adv-x="506" d="M51 17v608q0 10 7 17t17 7t17 -7t7 -17v-96q104 44 189 44q76 0 132.5 -39.5t56.5 -112.5q0 -59 -39.5 -109.5t-100 -81.5t-122 -50t-116.5 -25v-138q0 -10 -7 -17t-17 -7t-17 7t-7 17zM99 198q35 5 75.5 15.5t86.5 30t82.5 44t61 59.5t24.5 74q0 53 -43.5 78.5 t-99.5 25.5q-84 0 -187 -49v-278z" />
<glyph unicode="&#xdf;" horiz-adv-x="654" d="M10 397q0 10 7 17t17 7h60q0 102 57 167t157 65q71 0 113 -30t42 -90q0 -28 -13.5 -51t-28 -34.5t-45.5 -31.5q-42 -30 -53 -44q14 -2 51 5q42 10 68 10q83 0 138.5 -40t55.5 -118q0 -69 -53 -126t-124.5 -85.5t-138.5 -28.5q-51 0 -86.5 27.5t-35.5 76.5q0 55 41.5 89 t97.5 34q85 0 85 -34q0 -12 -10 -19t-22 -4q-31 9 -52 9q-36 0 -64 -20t-28 -55q0 -29 21.5 -44t51.5 -15q53 0 114 23.5t108 70t47 101.5q0 58 -41.5 84t-106.5 26q-20 0 -54 -7.5t-54 -7.5q-61 0 -61 42q0 20 22.5 42.5t49.5 39t49.5 40t22.5 45.5q0 72 -107 72 q-78 0 -122 -51t-44 -133v-404q0 -10 -7 -17t-17 -7t-17 7t-7 17v356h-60q-10 0 -17 7t-7 17z" />
<glyph unicode="&#xe0;" horiz-adv-x="491" d="M19 91q0 44 28.5 80t70.5 57t96 35t98 19.5t82 6.5q-23 97 -154 97q-81 0 -152 -46q-12 -9 -25.5 -2.5t-13.5 21.5q0 11 10 19q29 26 82.5 40t99.5 14q98 0 152.5 -49t54.5 -145v-221q0 -10 -7 -17t-17 -7t-17 7t-7 17v68q-132 -96 -243 -96q-55 0 -96.5 25.5t-41.5 76.5 zM67 91q0 -29 28.5 -41.5t61.5 -12.5q114 0 243 103v105q-37 0 -87.5 -8t-108.5 -24t-97.5 -48t-39.5 -74zM141 628q0 14 12.5 20t22.5 -2l115 -80q10 -7 10 -18q0 -14 -12.5 -20.5t-22.5 1.5l-116 80q-9 6 -9 19z" />
<glyph unicode="&#xe1;" horiz-adv-x="491" d="M19 91q0 44 28.5 80t70.5 57t96 35t98 19.5t82 6.5q-23 97 -154 97q-81 0 -152 -46q-12 -9 -25.5 -2.5t-13.5 21.5q0 11 10 19q29 26 82.5 40t99.5 14q98 0 152.5 -49t54.5 -145v-221q0 -10 -7 -17t-17 -7t-17 7t-7 17v68q-132 -96 -243 -96q-55 0 -96.5 25.5t-41.5 76.5 zM67 91q0 -29 28.5 -41.5t61.5 -12.5q114 0 243 103v105q-37 0 -87.5 -8t-108.5 -24t-97.5 -48t-39.5 -74zM170 548q0 12 9 18l116 80q4 4 13 4t15.5 -6.5t6.5 -15.5q0 -13 -9 -19l-116 -80q-4 -4 -13 -4t-15.5 6.5t-6.5 16.5z" />
<glyph unicode="&#xe2;" horiz-adv-x="491" d="M19 91q0 44 28.5 80t70.5 57t96 35t98 19.5t82 6.5q-23 97 -154 97q-81 0 -152 -46q-12 -9 -25.5 -2.5t-13.5 21.5q0 11 10 19q29 26 82.5 40t99.5 14q98 0 152.5 -49t54.5 -145v-221q0 -10 -7 -17t-17 -7t-17 7t-7 17v68q-132 -96 -243 -96q-55 0 -96.5 25.5t-41.5 76.5 zM67 91q0 -29 28.5 -41.5t61.5 -12.5q114 0 243 103v105q-37 0 -87.5 -8t-108.5 -24t-97.5 -48t-39.5 -74zM96 550q0 12 10 19l121 79q6 4 12 4t12 -4l123 -79q11 -6 11 -19q0 -10 -6.5 -16.5t-16.5 -6.5q-8 0 -12 4l-111 71l-108 -71q-8 -4 -13 -4q-9 0 -15.5 7t-6.5 16z " />
<glyph unicode="&#xe3;" horiz-adv-x="491" d="M19 91q0 44 28.5 80t70.5 57t96 35t98 19.5t82 6.5q-23 97 -154 97q-81 0 -152 -46q-12 -9 -25.5 -2.5t-13.5 21.5q0 11 10 19q29 26 82.5 40t99.5 14q98 0 152.5 -49t54.5 -145v-221q0 -10 -7 -17t-17 -7t-17 7t-7 17v68q-132 -96 -243 -96q-55 0 -96.5 25.5t-41.5 76.5 zM67 91q0 -29 28.5 -41.5t61.5 -12.5q114 0 243 103v105q-37 0 -87.5 -8t-108.5 -24t-97.5 -48t-39.5 -74zM68 574q0 7 4 12q38 66 97 66q34 0 74.5 -24t66.5 -24q24 0 48 22t32 22q9 0 15.5 -6.5t6.5 -16.5q0 -7 -5 -15q-41 -52 -97 -52q-37 0 -78 24.5t-62 24.5 q-19 0 -35 -14t-26.5 -28t-17.5 -14q-10 0 -16.5 6.5t-6.5 16.5z" />
<glyph unicode="&#xe4;" horiz-adv-x="491" d="M19 91q0 44 28.5 80t70.5 57t96 35t98 19.5t82 6.5q-23 97 -154 97q-81 0 -152 -46q-12 -9 -25.5 -2.5t-13.5 21.5q0 11 10 19q29 26 82.5 40t99.5 14q98 0 152.5 -49t54.5 -145v-221q0 -10 -7 -17t-17 -7t-17 7t-7 17v68q-132 -96 -243 -96q-55 0 -96.5 25.5t-41.5 76.5 zM67 91q0 -29 28.5 -41.5t61.5 -12.5q114 0 243 103v105q-37 0 -87.5 -8t-108.5 -24t-97.5 -48t-39.5 -74zM119 592q0 14 10.5 24.5t25.5 10.5q14 0 24.5 -10.5t10.5 -24.5q0 -15 -10.5 -25.5t-24.5 -10.5q-15 0 -25.5 10.5t-10.5 25.5zM291 592q0 14 10.5 24.5t24.5 10.5 t24.5 -10.5t10.5 -24.5q0 -15 -10.5 -25.5t-24.5 -10.5t-24.5 10.5t-10.5 25.5z" />
<glyph unicode="&#xe5;" horiz-adv-x="491" d="M19 91q0 44 28.5 80t70.5 57t96 35t98 19.5t82 6.5q-23 97 -154 97q-81 0 -152 -46q-12 -9 -25.5 -2.5t-13.5 21.5q0 11 10 19q29 26 82.5 40t99.5 14q98 0 152.5 -49t54.5 -145v-221q0 -10 -7 -17t-17 -7t-17 7t-7 17v68q-132 -96 -243 -96q-55 0 -96.5 25.5t-41.5 76.5 zM67 91q0 -29 28.5 -41.5t61.5 -12.5q114 0 243 103v105q-37 0 -87.5 -8t-108.5 -24t-97.5 -48t-39.5 -74zM118 585q0 46 40 77t87 31q40 0 69.5 -23t29.5 -61q0 -46 -40 -77t-87 -31q-39 0 -69 23t-30 61zM164 585q0 -19 16.5 -28.5t36.5 -9.5q28 0 54.5 17.5t26.5 44.5 q0 19 -16 28.5t-37 9.5q-27 0 -54 -18t-27 -44z" />
<glyph unicode="&#xe6;" horiz-adv-x="850" d="M19 94q0 42 26 74t66.5 49t81.5 25.5t79 8.5q42 0 103 -9q18 43 51 77q-30 64 -135 64q-85 0 -219 -69q-6 -3 -12 -3q-10 0 -17 7t-7 17q0 13 13 21q50 32 117.5 53.5t123.5 21.5q54 0 101 -19t71 -60q48 37 114.5 58.5t128.5 21.5q49 0 87 -22t38 -67q0 -46 -37.5 -79 t-95.5 -48t-107.5 -21.5t-92.5 -6.5q-29 0 -89 4q-4 -22 -4 -35q0 -57 39.5 -88.5t97.5 -31.5q85 0 219 69q6 3 12 3q10 0 17 -7t7 -17q0 -12 -12 -21q-48 -32 -118 -53.5t-125 -21.5q-108 0 -159 78q-106 -78 -228 -78q-54 0 -94.5 27t-40.5 78zM67 95q0 -30 27 -44t60 -14 q111 0 209 75q-6 23 -6 46q0 18 3 38q-44 6 -87 6q-27 0 -59 -5t-66.5 -16.5t-57.5 -34t-23 -51.5zM426 239q36 -3 71 -3q28 0 69.5 4.5t93 15.5t87 33.5t35.5 53.5q0 22 -25 31.5t-51 9.5q-82 0 -163 -39t-117 -106z" />
<glyph unicode="&#xe7;" horiz-adv-x="489" d="M19 145q0 63 41 117t105 88t133 55t134 27q15 1 22 -10.5t2.5 -24t-19.5 -13.5q-44 -4 -91.5 -15.5t-97.5 -32t-89.5 -47t-65 -64.5t-25.5 -81q0 -53 43.5 -79.5t99.5 -26.5q91 0 213 65q14 7 25 -0.5t11 -20.5q0 -16 -13 -22q-83 -45 -156 -61q31 -21 31 -61 q0 -44 -34 -70.5t-81 -34.5q-1 -1 -4 -1q-10 0 -17 7t-7 17q0 20 20 24q75 16 75 58q0 25 -23 25q-3 0 -8.5 -1t-8.5 -1q-10 0 -17 7t-7 17q0 3 1 5l-1 -1q-78 0 -134.5 41t-56.5 115z" />
<glyph unicode="&#xe8;" horiz-adv-x="506" d="M19 156q0 80 56 145.5t135 98t157 32.5q47 0 83.5 -21.5t36.5 -66.5q0 -59 -60 -103t-150.5 -65t-191.5 -20h-18q0 -57 39 -88t98 -31q85 0 219 69q12 7 24 0t12 -20q0 -14 -13 -21q-50 -31 -119.5 -53.5t-122.5 -22.5q-80 0 -132.5 44.5t-52.5 122.5zM73 199 q142 0 254 42.5t112 102.5q0 22 -23 31t-49 9q-58 0 -117 -20t-108.5 -63.5t-68.5 -101.5zM209 628q0 14 12 20t23 -2l115 -80q10 -7 10 -18q0 -14 -12.5 -20.5t-23.5 1.5l-115 80q-9 6 -9 19z" />
<glyph unicode="&#xe9;" horiz-adv-x="506" d="M19 156q0 80 56 145.5t135 98t157 32.5q47 0 83.5 -21.5t36.5 -66.5q0 -59 -60 -103t-150.5 -65t-191.5 -20h-18q0 -57 39 -88t98 -31q85 0 219 69q12 7 24 0t12 -20q0 -14 -13 -21q-50 -31 -119.5 -53.5t-122.5 -22.5q-80 0 -132.5 44.5t-52.5 122.5zM73 199 q142 0 254 42.5t112 102.5q0 22 -23 31t-49 9q-58 0 -117 -20t-108.5 -63.5t-68.5 -101.5zM238 548q0 12 9 18l116 80q4 4 13 4t15.5 -6.5t6.5 -15.5q0 -13 -10 -19l-115 -80q-4 -4 -13 -4t-15.5 6.5t-6.5 16.5z" />
<glyph unicode="&#xea;" horiz-adv-x="506" d="M19 156q0 80 56 145.5t135 98t157 32.5q47 0 83.5 -21.5t36.5 -66.5q0 -59 -60 -103t-150.5 -65t-191.5 -20h-18q0 -57 39 -88t98 -31q85 0 219 69q12 7 24 0t12 -20q0 -14 -13 -21q-50 -31 -119.5 -53.5t-122.5 -22.5q-80 0 -132.5 44.5t-52.5 122.5zM73 199 q142 0 254 42.5t112 102.5q0 22 -23 31t-49 9q-58 0 -117 -20t-108.5 -63.5t-68.5 -101.5zM164 550q0 12 10 19l121 79q6 4 12 4q4 0 12 -4l123 -79q11 -6 11 -19q0 -10 -6.5 -16.5t-16.5 -6.5q-8 0 -12 4l-111 71l-108 -71q-8 -4 -13 -4q-9 0 -15.5 7t-6.5 16z" />
<glyph unicode="&#xeb;" horiz-adv-x="506" d="M19 156q0 80 56 145.5t135 98t157 32.5q47 0 83.5 -21.5t36.5 -66.5q0 -59 -60 -103t-150.5 -65t-191.5 -20h-18q0 -57 39 -88t98 -31q85 0 219 69q12 7 24 0t12 -20q0 -14 -13 -21q-50 -31 -119.5 -53.5t-122.5 -22.5q-80 0 -132.5 44.5t-52.5 122.5zM73 199 q142 0 254 42.5t112 102.5q0 22 -23 31t-49 9q-58 0 -117 -20t-108.5 -63.5t-68.5 -101.5zM187 592q0 14 10.5 24.5t24.5 10.5q15 0 25.5 -10.5t10.5 -24.5q0 -15 -10.5 -25.5t-25.5 -10.5q-14 0 -24.5 10.5t-10.5 25.5zM359 592q0 14 10.5 24.5t24.5 10.5t24.5 -10.5 t10.5 -24.5q0 -15 -10.5 -25.5t-24.5 -10.5t-24.5 10.5t-10.5 25.5z" />
<glyph unicode="&#xec;" horiz-adv-x="124" d="M-36 628q0 14 12 20t23 -2l116 -80q9 -6 9 -18q0 -14 -12 -20.5t-23 1.5l-116 80q-9 6 -9 19zM38 16v387q0 10 7 17t17 7t17 -7t7 -17v-387q0 -10 -7 -17t-17 -7t-17 7t-7 17z" />
<glyph unicode="&#xed;" horiz-adv-x="124" d="M0 548q0 11 10 18l115 80q5 4 13 4q9 0 16 -6.5t7 -15.5q0 -12 -10 -19l-115 -80q-5 -4 -13 -4q-10 0 -16.5 6.5t-6.5 16.5zM38 16v387q0 10 7 17t17 7t17 -7t7 -17v-387q0 -10 -7 -17t-17 -7t-17 7t-7 17z" />
<glyph unicode="&#xee;" horiz-adv-x="124" d="M-82 550q0 12 10 19l120 79q8 4 13 4q4 0 12 -4l123 -79q11 -6 11 -19q0 -10 -7 -16.5t-16 -6.5q-8 0 -12 4l-111 71l-108 -71q-8 -4 -13 -4q-9 0 -15.5 7t-6.5 16zM38 16v387q0 10 7 17t17 7t17 -7t7 -17v-387q0 -10 -7 -17t-17 -7t-17 7t-7 17z" />
<glyph unicode="&#xef;" horiz-adv-x="124" d="M-59 592q0 14 10.5 24.5t24.5 10.5q15 0 25.5 -10.5t10.5 -24.5q0 -15 -10.5 -25.5t-25.5 -10.5q-14 0 -24.5 10.5t-10.5 25.5zM38 16v387q0 10 7 17t17 7t17 -7t7 -17v-387q0 -10 -7 -17t-17 -7t-17 7t-7 17zM113 592q0 14 10.5 24.5t24.5 10.5t24.5 -10.5t10.5 -24.5 q0 -15 -10.5 -25.5t-24.5 -10.5t-24.5 10.5t-10.5 25.5z" />
<glyph unicode="&#xf0;" horiz-adv-x="503" d="M19 131q0 53 26.5 99.5t67.5 78.5t94.5 57t104 39t99.5 20q-31 97 -118 139l-68 -78q-7 -9 -18 -9q-16 0 -22 14.5t4 25.5l56 65q-48 14 -118 14q-10 0 -17 7t-7 17t7 17t17 7q85 0 152 -22l61 71q8 8 18 8t17 -7t7 -17q0 -9 -6 -16l-51 -59q149 -80 149 -290 q0 -137 -78.5 -233.5t-211.5 -96.5q-70 0 -117.5 40.5t-47.5 108.5zM67 131q0 -49 33.5 -75t83.5 -26q114 0 178 82.5t64 199.5q0 36 -6 72q-41 -6 -85 -18t-93 -33.5t-87 -49t-63 -67.5t-25 -85z" />
<glyph unicode="&#xf1;" horiz-adv-x="449" d="M38 17v386q0 10 7 17.5t17 7.5t17 -7t7 -18v-59q31 40 75 63.5t92 23.5q74 0 116 -51t42 -156v-207q0 -10 -7 -17t-17 -7t-17 7t-7 17v207q0 84 -28 121.5t-84 37.5q-53 0 -97 -34t-68 -85v-247q0 -10 -7 -17t-17 -7t-17 7t-7 17zM49 574q0 6 3 12q40 66 98 66 q34 0 74.5 -24t65.5 -24t48.5 22t31.5 22q10 0 16.5 -6.5t6.5 -16.5q0 -7 -5 -15q-43 -52 -97 -52q-38 0 -78.5 24.5t-61.5 24.5q-20 0 -35.5 -14t-26 -28t-18.5 -14q-9 0 -15.5 6.5t-6.5 16.5z" />
<glyph unicode="&#xf2;" horiz-adv-x="446" d="M19 146q0 67 36.5 133t99 109.5t130.5 43.5q66 0 104 -45t38 -112q0 -104 -81 -195t-184 -91q-66 0 -104.5 45.5t-38.5 111.5zM67 146q0 -46 24.5 -77.5t70.5 -31.5q82 0 149.5 77.5t67.5 160.5q0 46 -24.5 77.5t-69.5 31.5q-84 0 -151 -77.5t-67 -160.5zM160 628 q0 14 12.5 20t23.5 -2l115 -80q10 -7 10 -18q0 -14 -12.5 -20.5t-23.5 1.5l-115 80q-10 7 -10 19z" />
<glyph unicode="&#xf3;" horiz-adv-x="446" d="M19 146q0 67 36.5 133t99 109.5t130.5 43.5q66 0 104 -45t38 -112q0 -104 -81 -195t-184 -91q-66 0 -104.5 45.5t-38.5 111.5zM67 146q0 -46 24.5 -77.5t70.5 -31.5q82 0 149.5 77.5t67.5 160.5q0 46 -24.5 77.5t-69.5 31.5q-84 0 -151 -77.5t-67 -160.5zM238 548 q0 12 9 18l116 80q4 4 13 4t15.5 -6.5t6.5 -15.5q0 -13 -10 -19l-115 -80q-4 -4 -13 -4t-15.5 6.5t-6.5 16.5z" />
<glyph unicode="&#xf4;" horiz-adv-x="446" d="M19 146q0 67 36.5 133t99 109.5t130.5 43.5q66 0 104 -45t38 -112q0 -104 -81 -195t-184 -91q-66 0 -104.5 45.5t-38.5 111.5zM67 146q0 -46 24.5 -77.5t70.5 -31.5q82 0 149.5 77.5t67.5 160.5q0 46 -24.5 77.5t-69.5 31.5q-84 0 -151 -77.5t-67 -160.5zM125 550 q0 12 10 19l121 79q6 4 12 4t12 -4l124 -79q10 -7 10 -19q0 -10 -6.5 -16.5t-16.5 -6.5q-7 0 -12 4l-111 71l-108 -71q-8 -4 -12 -4q-10 0 -16.5 7t-6.5 16z" />
<glyph unicode="&#xf5;" horiz-adv-x="446" d="M19 146q0 67 36.5 133t99 109.5t130.5 43.5q66 0 104 -45t38 -112q0 -104 -81 -195t-184 -91q-66 0 -104.5 45.5t-38.5 111.5zM67 146q0 -46 24.5 -77.5t70.5 -31.5q82 0 149.5 77.5t67.5 160.5q0 46 -24.5 77.5t-69.5 31.5q-84 0 -151 -77.5t-67 -160.5zM88 574 q0 6 3 12q38 66 97 66q34 0 75 -24t66 -24q24 0 48 22t32 22q10 0 16.5 -6.5t6.5 -16.5q0 -7 -6 -15q-41 -52 -97 -52q-37 0 -77.5 24.5t-61.5 24.5q-20 0 -36 -14t-26.5 -28t-17.5 -14q-9 0 -15.5 6.5t-6.5 16.5z" />
<glyph unicode="&#xf6;" horiz-adv-x="446" d="M19 146q0 67 36.5 133t99 109.5t130.5 43.5q66 0 104 -45t38 -112q0 -104 -81 -195t-184 -91q-66 0 -104.5 45.5t-38.5 111.5zM67 146q0 -46 24.5 -77.5t70.5 -31.5q82 0 149.5 77.5t67.5 160.5q0 46 -24.5 77.5t-69.5 31.5q-84 0 -151 -77.5t-67 -160.5zM168 592 q0 14 10.5 24.5t24.5 10.5t24.5 -10.5t10.5 -24.5q0 -15 -10.5 -25.5t-24.5 -10.5t-24.5 10.5t-10.5 25.5zM339 592q0 14 10.5 24.5t25.5 10.5q14 0 24.5 -10.5t10.5 -24.5q0 -15 -10.5 -25.5t-24.5 -10.5q-15 0 -25.5 10.5t-10.5 25.5z" />
<glyph unicode="&#xf7;" horiz-adv-x="432" d="M35 273q0 10 7 17t17 7h314q10 0 17 -7t7 -17t-7 -17t-17 -7h-314q-10 0 -17 7t-7 17zM178 133q0 14 10 24.5t25 10.5q14 0 24.5 -10.5t10.5 -24.5t-10.5 -24.5t-24.5 -10.5q-15 0 -25 10.5t-10 24.5zM178 408q0 14 10 24.5t25 10.5q14 0 24.5 -10.5t10.5 -24.5 q0 -15 -10.5 -25t-24.5 -10q-15 0 -25 10t-10 25z" />
<glyph unicode="&#xf8;" horiz-adv-x="448" d="M-28 -49q0 9 6 15l67 79q-26 40 -26 95q0 104 82 200t184 96q41 0 76 -21l50 59q11 13 26.5 7.5t15.5 -22.5q0 -8 -5 -16l-52 -61q15 -15 23 -46t8 -57q0 -105 -81.5 -200.5t-183.5 -95.5q-48 0 -84 27l-64 -75q-10 -12 -26 -6.5t-16 22.5zM67 140q0 -33 11 -56l251 294 q-20 10 -44 10q-83 0 -150.5 -82t-67.5 -166zM109 46q23 -15 53 -15q82 0 149.5 82.5t67.5 165.5q0 39 -16 66z" />
<glyph unicode="&#xf9;" horiz-adv-x="449" d="M38 197v207q0 10 7 17t17 7t17 -7t7 -17v-208q0 -83 27.5 -120.5t84.5 -37.5q52 0 96.5 34t68.5 85v247q0 10 7 17t17 7t17 -7t7 -17v-387q0 -10 -7 -17t-17 -7t-17 7t-7 17v60q-31 -40 -75.5 -63.5t-91.5 -23.5q-74 0 -116 51t-42 156zM102 628q0 14 12 20t23 -2 l116 -80q9 -6 9 -18q0 -14 -12 -20.5t-23 1.5l-115 80q-10 6 -10 19z" />
<glyph unicode="&#xfa;" horiz-adv-x="449" d="M38 197v207q0 10 7 17t17 7t17 -7t7 -17v-208q0 -83 27.5 -120.5t84.5 -37.5q52 0 96.5 34t68.5 85v247q0 10 7 17t17 7t17 -7t7 -17v-387q0 -10 -7 -17t-17 -7t-17 7t-7 17v60q-31 -40 -75.5 -63.5t-91.5 -23.5q-74 0 -116 51t-42 156zM199 548q0 11 10 18l115 80 q5 4 13 4q9 0 15.5 -6.5t6.5 -15.5q0 -13 -9 -19l-116 -80q-4 -4 -12 -4q-10 0 -16.5 6.5t-6.5 16.5z" />
<glyph unicode="&#xfb;" horiz-adv-x="449" d="M38 197v207q0 10 7 17t17 7t17 -7t7 -17v-208q0 -83 27.5 -120.5t84.5 -37.5q52 0 96.5 34t68.5 85v247q0 10 7 17t17 7t17 -7t7 -17v-387q0 -10 -7 -17t-17 -7t-17 7t-7 17v60q-31 -40 -75.5 -63.5t-91.5 -23.5q-74 0 -116 51t-42 156zM80 550q0 12 10 19l121 79 q6 4 12 4t12 -4l124 -79q10 -7 10 -19q0 -10 -6.5 -16.5t-16.5 -6.5q-7 0 -12 4l-111 71l-108 -71q-8 -4 -12 -4q-10 0 -16.5 7t-6.5 16z" />
<glyph unicode="&#xfc;" horiz-adv-x="449" d="M38 197v207q0 10 7 17t17 7t17 -7t7 -17v-208q0 -83 27.5 -120.5t84.5 -37.5q52 0 96.5 34t68.5 85v247q0 10 7 17t17 7t17 -7t7 -17v-387q0 -10 -7 -17t-17 -7t-17 7t-7 17v60q-31 -40 -75.5 -63.5t-91.5 -23.5q-74 0 -116 51t-42 156zM119 592q0 14 10.5 24.5 t25.5 10.5q14 0 24.5 -10.5t10.5 -24.5q0 -15 -10.5 -25.5t-24.5 -10.5q-15 0 -25.5 10.5t-10.5 25.5zM291 592q0 14 10.5 24.5t24.5 10.5t24.5 -10.5t10.5 -24.5q0 -15 -10.5 -25.5t-24.5 -10.5t-24.5 10.5t-10.5 25.5z" />
<glyph unicode="&#xfd;" d="M-6 -150q0 12 9 19.5t22 3.5q69 -19 106.5 10t69.5 104l-189 407q-10 21 12 32q22 9 31 -12l172 -368l158 366q8 18 27.5 14t19.5 -23q0 -2 -2 -10l-185 -427q-43 -97 -97 -129.5t-136 -10.5q-18 6 -18 24zM170 548q0 12 9 18l116 80q4 4 13 4t15.5 -6.5t6.5 -15.5 q0 -13 -9 -19l-116 -80q-4 -4 -13 -4t-15.5 6.5t-6.5 16.5z" />
<glyph unicode="&#xfe;" horiz-adv-x="503" d="M38 -157v781q0 10 7 17t17 7t17 -7t7 -17v-248q114 55 208 55q75 0 129.5 -39.5t54.5 -111.5q0 -64 -40 -117.5t-103.5 -86.5t-126 -53.5t-122.5 -28.5v-151q0 -10 -7 -17t-17 -7t-17 7t-7 17zM86 38q49 8 103 26t111 46.5t93.5 73t36.5 96.5t-41 77.5t-96 25.5 q-92 0 -207 -61v-284z" />
<glyph unicode="&#xff;" d="M-6 -150q0 12 9 19.5t22 3.5q69 -19 106.5 10t69.5 104l-189 407q-10 21 12 32q22 9 31 -12l172 -368l158 366q8 18 27.5 14t19.5 -23q0 -2 -2 -10l-185 -427q-43 -97 -97 -129.5t-136 -10.5q-18 6 -18 24zM100 592q0 14 10.5 24.5t24.5 10.5q15 0 25 -10.5t10 -24.5 q0 -15 -10 -25.5t-25 -10.5q-14 0 -24.5 10.5t-10.5 25.5zM272 592q0 14 10 24.5t25 10.5q14 0 24.5 -10.5t10.5 -24.5q0 -15 -10.5 -25.5t-24.5 -10.5q-15 0 -25 10.5t-10 25.5z" />
<glyph unicode="&#x152;" horiz-adv-x="868" d="M29 244q0 93 44.5 186t126.5 157t176 64q54 0 99 -24q8 16 21 16h314q10 0 16.5 -7t6.5 -17t-6.5 -17t-16.5 -7h-292q69 -69 76 -175h197q10 0 17 -7t7 -17t-7 -16.5t-17 -6.5h-197q-7 -115 -74 -216v-109h294q10 0 17 -7t7 -17t-7 -17t-17 -7h-318q-10 0 -17 7t-7 17v74 q-102 -109 -224 -109q-102 0 -160.5 75t-58.5 180zM77 244q0 -85 45 -146t126 -61q79 0 150 56.5t110 137t39 157.5q0 56 -17 103t-57 79.5t-97 32.5q-81 0 -151.5 -57.5t-109 -139.5t-38.5 -162z" />
<glyph unicode="&#x153;" horiz-adv-x="769" d="M19 144q0 67 36.5 133.5t99 110t130.5 43.5q89 0 123 -64q45 29 105.5 46.5t114.5 17.5q47 0 84.5 -20.5t37.5 -63.5q0 -47 -39.5 -82t-100 -53t-111.5 -26.5t-95 -10.5q-21 -48 -56 -89q37 -49 117 -49q36 0 77.5 11.5t69.5 24t71 34.5q9 3 11 3q10 0 17 -7t7 -17 q0 -12 -12 -21q-50 -33 -117.5 -54.5t-123.5 -21.5q-99 0 -151 63q-72 -63 -152 -63q-66 0 -104.5 44t-38.5 111zM67 144q0 -47 24.5 -77t70.5 -30q82 0 149.5 81.5t67.5 165.5q0 45 -24 72t-70 27q-83 0 -150.5 -78t-67.5 -161zM420 224q31 2 71.5 9t91.5 20t85 37.5 t34 55.5q0 21 -23.5 29t-49.5 8q-51 0 -108 -17t-97 -46q3 -18 3 -37q0 -24 -7 -59z" />
<glyph unicode="&#x178;" horiz-adv-x="537" d="M19 625q0 10 7 17t17 7q12 0 19 -10l210 -277l203 278q6 9 19 9q10 0 17 -7t7 -17q0 -7 -5 -14l-217 -296v-298q0 -10 -6.5 -17t-16.5 -7t-17 6.5t-7 16.5v298l-225 296q-5 8 -5 15zM148 728q0 15 10.5 25t24.5 10t24.5 -10t10.5 -25q0 -14 -10.5 -24.5t-24.5 -10.5 t-24.5 10.5t-10.5 24.5zM319 728q0 15 10.5 25t25.5 10q14 0 24.5 -10t10.5 -25q0 -14 -10.5 -24.5t-24.5 -10.5q-15 0 -25.5 10.5t-10.5 24.5z" />
<glyph unicode="&#x2c6;" d="M76 550q0 13 11 19l120 79q8 4 12 4q5 0 13 -4l123 -79q10 -7 10 -19q0 -10 -6.5 -16.5t-15.5 -6.5q-8 0 -13 4l-111 71l-108 -71q-6 -4 -12 -4q-9 0 -16 7t-7 16z" />
<glyph unicode="&#x2dc;" d="M49 574q0 6 3 12q40 66 98 66q34 0 74.5 -24t65.5 -24t48.5 22t31.5 22q10 0 16.5 -6.5t6.5 -16.5q0 -7 -5 -15q-43 -52 -97 -52q-38 0 -78.5 24.5t-61.5 24.5q-20 0 -35.5 -14t-26 -28t-18.5 -14q-9 0 -15.5 6.5t-6.5 16.5z" />
<glyph unicode="&#x2000;" horiz-adv-x="414" />
<glyph unicode="&#x2001;" horiz-adv-x="828" />
<glyph unicode="&#x2002;" horiz-adv-x="414" />
<glyph unicode="&#x2003;" horiz-adv-x="828" />
<glyph unicode="&#x2004;" horiz-adv-x="276" />
<glyph unicode="&#x2005;" horiz-adv-x="207" />
<glyph unicode="&#x2006;" horiz-adv-x="138" />
<glyph unicode="&#x2007;" horiz-adv-x="138" />
<glyph unicode="&#x2008;" horiz-adv-x="103" />
<glyph unicode="&#x2009;" horiz-adv-x="165" />
<glyph unicode="&#x200a;" horiz-adv-x="46" />
<glyph unicode="&#x2010;" horiz-adv-x="244" d="M20 250q0 10 7 17t17 7h156q10 0 17 -7t7 -17t-7 -17t-17 -7h-156q-10 0 -17 7t-7 17z" />
<glyph unicode="&#x2011;" horiz-adv-x="244" d="M20 250q0 10 7 17t17 7h156q10 0 17 -7t7 -17t-7 -17t-17 -7h-156q-10 0 -17 7t-7 17z" />
<glyph unicode="&#x2012;" horiz-adv-x="244" d="M20 250q0 10 7 17t17 7h156q10 0 17 -7t7 -17t-7 -17t-17 -7h-156q-10 0 -17 7t-7 17z" />
<glyph unicode="&#x2013;" horiz-adv-x="439" d="M40 250q0 10 7 17t17 7h311q10 0 17 -7t7 -17t-7 -17t-17 -7h-311q-10 0 -17 7t-7 17z" />
<glyph unicode="&#x2014;" horiz-adv-x="578" d="M40 250q0 10 7 17t17 7h450q10 0 17 -7t7 -17t-7 -17t-17 -7h-450q-10 0 -17 7t-7 17z" />
<glyph unicode="&#x2018;" horiz-adv-x="135" d="M17 502q0 31 20 78.5t42 66.5q11 10 25.5 4t14.5 -22q0 -11 -9 -18q-13 -13 -24.5 -39.5t-15.5 -49.5q18 -8 18 -30q0 -14 -10.5 -24.5t-24.5 -10.5q-36 0 -36 45z" />
<glyph unicode="&#x2019;" horiz-adv-x="135" d="M17 481q0 10 8 18q26 25 41 88q-19 9 -19 31q0 14 11 24t24 10q18 0 27.5 -12.5t9.5 -31.5q0 -31 -20.5 -79t-42.5 -66q-11 -10 -25 -4t-14 22z" />
<glyph unicode="&#x201a;" horiz-adv-x="122" d="M-1 -106q0 10 8 18q29 26 41 88q-18 8 -18 31q0 14 10.5 24t23.5 10q18 0 27.5 -12.5t9.5 -31.5q0 -31 -20 -78.5t-42 -66.5q-12 -10 -26 -4t-14 22z" />
<glyph unicode="&#x201c;" horiz-adv-x="257" d="M17 502q0 31 20 78.5t42 66.5q11 10 25.5 4t14.5 -22q0 -11 -9 -18q-13 -13 -24.5 -39.5t-15.5 -49.5q18 -8 18 -30q0 -14 -10.5 -24.5t-24.5 -10.5q-36 0 -36 45zM141 502q0 31 20 78.5t42 66.5q11 10 25.5 4t14.5 -22q0 -12 -8 -18q-29 -26 -41 -89q18 -8 18 -30 q0 -14 -10.5 -24.5t-24.5 -10.5q-36 0 -36 45z" />
<glyph unicode="&#x201d;" horiz-adv-x="257" d="M17 481q0 10 8 18q26 25 41 88q-19 9 -19 31q0 14 11 24t24 10q18 0 27.5 -12.5t9.5 -31.5q0 -31 -20.5 -79t-42.5 -66q-11 -10 -25 -4t-14 22zM141 481q0 10 8 18q29 28 41 88q-18 10 -18 31q0 14 10.5 24t23.5 10q18 0 27.5 -12.5t9.5 -31.5q0 -31 -20.5 -79t-42.5 -66 q-11 -10 -25 -4t-14 22z" />
<glyph unicode="&#x201e;" horiz-adv-x="238" d="M-2 -108q0 10 8 18q27 26 41 88q-19 8 -19 31q0 13 11 23.5t24 10.5q18 0 27.5 -12.5t9.5 -32.5q0 -31 -20.5 -78t-42.5 -66q-11 -10 -25 -4t-14 22zM122 -108q0 10 8 18q13 13 25 39.5t16 48.5q-18 8 -18 31q0 13 10.5 23.5t23.5 10.5q18 0 27.5 -12.5t9.5 -32.5 q0 -31 -20 -78t-42 -66q-12 -10 -26 -4t-14 22z" />
<glyph unicode="&#x2022;" horiz-adv-x="239" d="M19 281q0 42 29.5 71.5t71.5 29.5q41 0 70.5 -29.5t29.5 -71.5q0 -41 -29.5 -70.5t-70.5 -29.5q-42 0 -71.5 29.5t-29.5 70.5z" />
<glyph unicode="&#x2026;" horiz-adv-x="367" d="M30 30q0 14 10.5 24.5t24.5 10.5q15 0 25.5 -10.5t10.5 -24.5q0 -15 -10.5 -25.5t-25.5 -10.5q-14 0 -24.5 10.5t-10.5 25.5zM153 30q0 14 10.5 24.5t24.5 10.5q15 0 25 -10.5t10 -24.5q0 -15 -10 -25.5t-25 -10.5q-14 0 -24.5 10.5t-10.5 25.5zM275 30q0 14 10.5 24.5 t24.5 10.5q15 0 25 -10.5t10 -24.5q0 -15 -10 -25.5t-25 -10.5q-14 0 -24.5 10.5t-10.5 25.5z" />
<glyph unicode="&#x202f;" horiz-adv-x="165" />
<glyph unicode="&#x2039;" horiz-adv-x="217" d="M16 225q-14 15 0 31l138 156q11 12 26.5 6t15.5 -22q0 -8 -6 -16l-124 -140l124 -139q6 -6 6 -16q0 -16 -16 -22t-26 6z" />
<glyph unicode="&#x203a;" horiz-adv-x="220" d="M21 396q0 16 15.5 22t26.5 -6l139 -156q6 -6 6 -15q0 -10 -6 -16l-138 -156q-11 -12 -26.5 -6t-15.5 22q0 10 6 16l124 139l-125 140q-6 10 -6 16z" />
<glyph unicode="&#x205f;" horiz-adv-x="207" />
<glyph unicode="&#x20ac;" horiz-adv-x="601" d="M15 226q0 10 7 17t17 7h39q0 27 7 62h-46q-10 0 -17 7t-7 17t7 17t17 7h61q47 117 173 194t270 98q11 2 19.5 -5t8.5 -19q0 -20 -20 -23q-124 -19 -238 -83t-161 -162h236q10 0 17 -7t7 -17t-7 -17t-17 -7h-253q-9 -28 -9 -62h262q10 0 17 -7t7 -17t-7 -17t-17 -7h-259 q16 -89 87 -134q63 -40 147.5 -26.5t175.5 78.5q5 5 13 5q10 0 17.5 -7.5t7.5 -17.5q0 -11 -10 -18q-104 -75 -202 -89t-175 35q-93 59 -109 174h-42q-10 0 -17 7t-7 17z" />
<glyph unicode="&#x2122;" horiz-adv-x="682" d="M10 618q0 10 7 17t17 7h172q10 0 17 -7t7 -17t-7 -17t-17 -7h-64v-162q0 -10 -7 -17t-17 -7t-17.5 7t-7.5 17v162h-59q-10 0 -17 7t-7 17zM265 432v197q0 10 7 17t17 7t17 -7t7 -17v-5q24 29 69 29q56 0 84 -45q30 45 84 45q50 0 78.5 -36t28.5 -88v-97q0 -10 -7 -17 t-17 -7t-17 7t-7 17v97q0 32 -14 54t-44 22q-47 0 -66 -47q2 -18 2 -29v-97q0 -10 -7 -17t-17 -7t-17 7t-7 17v97q0 33 -14.5 55t-46.5 22q-43 0 -65 -52v-122q0 -10 -7 -17t-17 -7t-17 7t-7 17z" />
<glyph unicode="&#xe000;" horiz-adv-x="425" d="M0 0v425h425v-425h-425z" />
</font>
</defs>
</svg>
