<?xml version="1.0" standalone="no"?>
<!DOCTYPE svg PUBLIC "-//W3C//DTD SVG 1.1//EN" "http://www.w3.org/Graphics/SVG/1.1/DTD/svg11.dtd" >
<svg xmlns="http://www.w3.org/2000/svg">
<metadata></metadata>
<defs>
<font id="yataghanregular" horiz-adv-x="518" >
<font-face units-per-em="1000" ascent="800" descent="-200" />
<missing-glyph horiz-adv-x="250" />
<glyph horiz-adv-x="1000" />
<glyph horiz-adv-x="1000" />
<glyph unicode="&#xd;" horiz-adv-x="1000" />
<glyph unicode=" "  horiz-adv-x="250" />
<glyph unicode="&#x09;" horiz-adv-x="250" />
<glyph unicode="&#xa0;" horiz-adv-x="250" />
<glyph unicode="!" horiz-adv-x="214" d="M182 923q-1 -8 -11 -19t-10 -22q0 -160 -4 -312q-1 -67 -7 -196q-5 -113 -5 -138.5t-33 -25.5q-30 1 -30 28.5t-7 137.5q-9 132 -11 194q-2 39 -3 189q0 103 -7 125q-5 17 -7 20t-13 14q-4 5 -4 10q0 7 12 16q4 4 31 5q8 1 20.5 -4t20.5 -4q6 0 16 4.5t19 3.5q14 0 33 -8 q1 -3 0 -18zM175 68q0 -22 -11 -41h-1q-2 0 -11.5 -8.5t-11.5 -9.5q-33 -18 -49 -18q-40 0 -40 43q0 5 16 40q-1 5 4 17q17 16 34 20q4 1 36 4q34 2 34 -47z" />
<glyph unicode="&#x22;" horiz-adv-x="298" d="M252 945q6 -1 6 -16q0 -22 -15 -92q-23 -113 -26 -130q-6 -1 -13.5 -6t-16.5 -3q-3 129 -26 221q-1 6 -1 11q0 23 34 23q14 0 58 -8zM132 945q6 -1 6 -16q0 -22 -15 -92q-23 -113 -26 -130q-6 -1 -13.5 -6t-16.5 -3q-3 129 -26 221q-1 6 -1 11q0 23 34 23q14 0 58 -8z " />
<glyph unicode="#" horiz-adv-x="638" d="M243 577q1 -99 -1 -199h176q-8 109 -15 199q-64 2 -84 2q-17 0 -76 -2zM230 825q10 -2 13 -207h156q-13 150 -21 181q-1 6 -1 11q0 23 34 23q14 0 59 -8q10 -2 13 -207h82l34 -31q1 -20 -12 -26q-5 -2 -18 3q-16 7 -23 7l-63 3q1 -97 -1 -196h83l34 -31q1 -20 -12 -26 q-5 -2 -18 3q-16 7 -23 7l-64 3q-4 -207 -14 -264q-7 0 -14.5 -5t-15.5 -3q-2 64 -17 274q-78 3 -102 3q-17 0 -77 -2q-4 -210 -14 -267q-7 0 -14.5 -5t-15.5 -3q-2 63 -17 273l-90 -4q-7 0 -21.5 -6t-19.5 -4q-14 6 -10 26l32 31h106q-8 106 -15 196l-72 -3q-7 0 -21.5 -6 t-19.5 -4q-14 6 -10 26l32 31h87q-13 150 -21 181q-1 6 -1 11q0 23 34 23q14 0 59 -8z" />
<glyph unicode="$" horiz-adv-x="415" d="M253 223q0 -91 -1 -165q36 78 36 95q0 14 -13 35q-11 17 -22 35zM187 483q-5 124 -10 197q-18 -10 -35 -45t-17 -55q0 -18 22 -47zM241 -199q-6 -1 -13.5 -6t-16.5 -3l-4 137q-65 -72 -123 -119l-13 21q0 7 46 53q58 58 88 99l-10 322q-52 58 -103 115q-52 63 -52 107 q0 56 40 116t95 82q-5 59 -8 74q-2 8 -2 15q0 19 21 19q3 0 48 -8q5 -1 10 -96q36 -13 72 -39q40 -29 40 -48q0 -16 -13 -58q-14 -46 -24 -46q-2 0 -24 42q-27 50 -48 77q3 -99 5 -256q42 -48 83 -96t41 -79q0 -94 -125 -247q-4 -142 -10 -178z" />
<glyph unicode="%" horiz-adv-x="681" d="M329 665q0 -88 -63 -165q-52 -63 -81 -63q-16 0 -51 31q-41 36 -66 81q-32 58 -28 116q13 173 145 173q76 0 114 -61q30 -47 30 -112zM245 741q-7 65 -60 65q-43 0 -56 -34q-3 -10 -9 -68q-1 -12 -1 -25q0 -66 22.5 -131.5t43.5 -65.5t43 62.5t22 130.5q0 25 -5 66z M541 825q18 -3 -373 -855l-23 20q83 212 144 371q147 382 161 438q9 34 42 34q5 0 49 -8zM641 197q0 -88 -63 -165q-52 -63 -81 -63q-16 0 -51 31q-41 36 -66 81q-32 58 -28 116q13 173 145 173q76 0 114 -61q30 -47 30 -112zM557 273q-7 65 -60 65q-43 0 -56 -34 q-3 -10 -9 -68q-1 -12 -1 -25q0 -66 22.5 -131.5t43.5 -65.5t43 62.5t22 130.5q0 25 -5 66z" />
<glyph unicode="&#x26;" horiz-adv-x="857" d="M238 418q-63 -65 -82 -148q-10 -45 -10 -148q0 -40 23 -74q29 -43 83 -43q16 0 50 -1q24 -1 38 0q19 2 42 9q50 15 124 87q-162 134 -268 318zM546 67q-38 -43 -127 -77q-62 -24 -137 -24q-242 0 -242 239q0 143 173 259q-17 31 -32 64q-35 74 -35 160q0 115 59 193 q65 86 177 86q34 0 104 -44q74 -46 74 -76q0 -24 -7 -57q-10 -40 -25 -46q-36 60 -79 106q-62 67 -106 67q-57 0 -88 -58q-26 -50 -26 -123q0 -67 20 -110q85 -180 133 -261q69 -119 159 -214q59 107 59 230q0 10 2 91q-19 -2 -36 -4t-16 -2q-7 0 -21.5 -6t-19.5 -4 q-14 6 -11 25l33 32h72q1 31 1 68q0 27 -5 31q-12 2 -28 9q-6 7 -6 20q1 11 17 18q27 12 28 13q59 43 85 43q5 0 7 -2q25 -26 20 -36q-24 -48 -21 -96q3 -38 3 -68h80l33 -32q2 -19 -12 -25q-5 -2 -19 4t-21 6q1 0 -19 2.5t-43 3.5q-1 -53 -13.5 -163t-104.5 -203 q74 -72 178 -152l-6 -27q-121 71 -211 140z" />
<glyph unicode="'" horiz-adv-x="178" d="M132 945q6 -1 6 -16q0 -22 -15 -92q-23 -113 -26 -130q-6 -1 -13.5 -6t-16.5 -3q-3 129 -26 221q-1 6 -1 11q0 23 34 23q14 0 58 -8z" />
<glyph unicode="(" horiz-adv-x="258" d="M258 -337q-5 -4 -9 -5v0q-5 1 -21 -2q-188 230 -188 693t188 694l6 -2v0q7 2 24 -5q-115 -223 -115 -686q0 -465 115 -687z" />
<glyph unicode=")" horiz-adv-x="258" d="M218 349q0 -463 -188 -693q-9 -2 -30 7q115 222 115 687q0 463 -115 686q7 5 15.5 5t14.5 2q188 -231 188 -694z" />
<glyph unicode="*" horiz-adv-x="437" d="M372 678l-2 -8v0q1 -6 -6 -22q-6 3 -121 69q-10 -73 -21 -130q-6 -1 -13.5 -6t-15.5 -3q0 7 -1 140q-68 -28 -123 -47q-9 3 -22 21q8 6 117 69q-67 35 -101 45q-23 7 -23 22q0 13 39 60q1 1 3 1q17 0 107 -67q-1 26 -6.5 63t-5.5 46q0 22 28 22q8 0 53 -8q12 -2 -2 -128 q55 35 78 58q12 11 22 11q14 0 25 -23q2 -5 16 -44q4 -12 -118 -65q53 -42 93 -76z" />
<glyph unicode="+" horiz-adv-x="494" d="M278 561q15 -2 13 -183h130l34 -31q1 -20 -12 -26q-5 -2 -18 4q-16 6 -23 6q1 0 -36 3q-42 3 -75 4q-3 -140 -15 -208q-7 0 -14.5 -5t-15.5 -3q-2 73 -19 217q-37 -1 -88 -4.5t-48 -3.5q-7 0 -21.5 -6t-19.5 -4q-14 6 -10 26l32 31h151q-5 38 -17 104q-9 52 -9 65 q0 22 27 22q9 0 54 -8z" />
<glyph unicode="," horiz-adv-x="256" d="M216 94q-16 -32 -55 -81q-46 -55 -91 -110q-4 1 -6 1v0q-7 -1 -24 6q28 52 55 103.5t39 95.5q5 19 21 19q24 0 61 -34z" />
<glyph unicode="-" horiz-adv-x="402" d="M360 385q3 -5 3 -11q0 -23 -15 -34q-2 -1 -4 -1q-4 0 -17 9t-20 9q7 0 -30 7.5t-75 7.5t-76 -7.5t-31 -7.5q-7 0 -20 -9t-17 -9q-2 0 -4 1q-14 11 -14 33q0 7 3 12l33 55h250z" />
<glyph unicode="." horiz-adv-x="203" d="M163 65q0 -22 -11 -41h-1q-1 0 -11 -8.5t-12 -9.5q-32 -18 -49 -18q-39 0 -39 43q0 6 15 40q0 5 5 17q16 16 33 20q4 1 37 4q33 2 33 -47z" />
<glyph unicode="/" horiz-adv-x="476" d="M436 825q18 -3 -374 -855l-22 20q82 212 144 371q146 382 161 438q8 34 41 34q5 0 50 -8z" />
<glyph unicode="0" horiz-adv-x="519" d="M480 408q0 -117 -50 -227q-39 -87 -98 -151q-51 -55 -72 -55t-75 58q-63 68 -101 155q-50 110 -44 220q19 326 220 326q115 0 174 -112q46 -89 46 -214zM370 485q-9 116 -16 141q-22 70 -94 70q-73 0 -95 -70q-8 -24 -17 -141q-1 -23 -1 -48q0 -133 36 -263 q37 -134 77 -134t76 127t36 263q0 29 -2 55z" />
<glyph unicode="1" horiz-adv-x="269" d="M239 13q0 -6 -12 -17q-1 -1 -31 -4q-14 -2 -34 3t-31 5q-12 0 -31.5 -4.5t-27.5 -3.5q-14 0 -33 8q-2 4 0 18q2 10 23.5 20t21.5 21q0 23 2 139q2 112 2 143q-1 48 -2 116q-2 61 -2 147q0 26 -5 30l-21 -1q-18 0 -18 9q0 6 5 11t10 9q17 20 35 33q57 42 75 42q4 0 7 -3 q24 -24 19 -34q-11 -22 -11 -96q0 -61 1 -154v-109q0 -253 10 -285q3 -11 18 -18q20 -10 25 -15t5 -10z" />
<glyph unicode="2" horiz-adv-x="496" d="M456 70q0 -35 -5 -48q-8 -23 -35 -23h-347l-12 -6l-17 61q297 336 297 521q0 111 -69 111q-41 0 -99 -62q-40 -44 -74 -100q-13 4 -23 43q-7 31 -7 53q0 29 69 72q66 41 98 41q106 0 152 -51q39 -43 39 -131q0 -31 -5 -70q-10 -96 -296 -445h167q37 0 67 38q19 23 39 69 q17 37 21 37q10 0 25 -51q15 -46 15 -59z" />
<glyph unicode="3" horiz-adv-x="446" d="M404 566q0 -130 -56 -213q-41 -61 -130 -115q6 -1 10 -3q62 -13 105 -35q105 -52 103 -138q-2 -69 -164 -203q-113 -94 -248 -178l-13 23q147 110 213 176q102 101 102 172q0 54 -58 92q-48 30 -89 30q-5 0 -25.5 -6.5t-27.5 -7.5l-14 22q6 12 14 21l-3 4 q116 84 151.5 151t35.5 207q0 117 -82 117q-37 0 -52 -6q-28 -10 -52 -46q-13 -21 -31 -62q-13 -30 -17 -30q-10 0 -25 51q-15 46 -15 59q0 35 5 49q9 23 35 23h121q135 0 165 -18q42 -26 42 -136z" />
<glyph unicode="4" horiz-adv-x="536" d="M507 -225q0 -6 -12 -17q-1 -1 -31 -5q-14 -2 -27 3q-16 5 -28 5t-31.5 -4.5t-27.5 -3.5q-14 0 -33 8q-2 5 0 18q2 10 23.5 20t21.5 21q0 25 2 180h-296l-28 14q13 26 25 58q30 77 50 171q37 169 37 247q0 30 -2 65h14q63 0 68 -29q3 -13 3 -33q0 -80 -46 -288 q-5 -29 -10.5 -58t-27.5 -90q-1 -4 66 -5q52 0 148 1l1 167q0 43 -2 168q-2 112 -2 200q0 27 -5 30q-10 2 -25 8q-8 9 -9 21q0 11 17 19l28 13q59 42 77 42q4 0 7 -2q24 -25 19 -35q-23 -46 -23 -96q0 -60 1 -207v-161v-165l71 2l6 -57h-76q2 -159 9 -182q4 -12 19 -19 q19 -10 24 -15t5 -9z" />
<glyph unicode="5" horiz-adv-x="471" d="M164 315l69 -11q213 -35 213 -183q0 -142 -223 -294q-93 -63 -223 -123l-14 21q106 75 182 144q183 167 183 281q0 112 -155 125l-59 5v0q-35 1 -81 36q-4 3 -4 34q0 64 16 186t29 157.5t106 28.5h186q26 0 35 -22q5 -14 5 -48q0 -13 -15 -60q-16 -51 -25 -51 q-4 0 -21 37q-21 46 -39 70q-31 37 -67 37h-54q-17 -4 -24 -16q-22 -99 -40 -327q4 -18 20 -27z" />
<glyph unicode="6" horiz-adv-x="519" d="M479 325q12 -341 -208 -351q-117 -5 -179 97q-58 95 -52 249q1 19 5 57v3q12 107 120 309q112 210 218 311l18 -26q-147 -214 -207 -396q27 7 57 7q115 1 177 -89q48 -70 51 -171zM386 170q1 42 1 77q0 156 -27 224q-31 79 -108 73q-51 -4 -72 -24q-41 -146 -38 -209 q5 -145 18 -196q28 -106 109 -98q55 5 86 49q29 41 31 104z" />
<glyph unicode="7" horiz-adv-x="472" d="M432 687q0 -96 -124 -451q-64 -184 -216 -495l-27 15q34 98 64 186q71 213 105 345q26 97 51.5 195t35.5 192q-1 9 -8 11h-107q-36 0 -66 -37q-19 -24 -40 -70q-17 -37 -21 -37q-9 0 -25 51q-14 47 -14 60q0 34 5 48q8 22 34 22l261 1q92 0 92 -36z" />
<glyph unicode="8" d="M479 168q0 -183 -220 -183q-219 0 -219 183q0 65 57 129q45 50 107 84q-54 31 -92 76q-48 56 -48 113q0 78 29 113q43 51 166 51t167 -51q29 -35 29 -113q0 -60 -47 -115q-37 -44 -92 -74q63 -32 107 -82q56 -63 56 -131zM346 642q-4 19 -12 31q-16 21 -20 24 q-15 10 -55 10q-41 0 -56 -10q-4 -2 -20 -24q-8 -11 -17 -64q-3 -17 -3 -36q0 -62 23 -112q26 -56 68 -60q3 1 5 1q3 0 6 -1q41 4 67 57q23 49 23 110q0 32 -9 74zM377 155q0 72 -34 135q-37 67 -84 67t-84 -70q-35 -66 -35 -136q0 -14 2 -26q3 -19 5 -37q4 -22 12 -35 q25 -37 100 -37t99 37q8 13 12 34q7 41 7 68z" />
<glyph unicode="9" horiz-adv-x="517" d="M314 142q63 139 63 315q0 72 -26 139q-34 89 -96 89q-58 0 -94 -83q-26 -60 -30 -129q-7 -114 52 -237q55 -112 95 -112q28 0 36 18zM469 336q-18 -108 -131 -307q-119 -210 -227 -308l-16 26q120 166 185 310q-17 6 -42 20q-110 83 -156 176q-42 85 -42 206 q0 101 59 184q65 91 163 91t158 -89q57 -85 57 -215q0 -47 -8 -94z" />
<glyph unicode=":" horiz-adv-x="203" d="M163 65q0 -22 -11 -41h-1q-1 0 -11 -8.5t-12 -9.5q-32 -18 -49 -18q-39 0 -39 43q0 6 15 40q0 5 5 17q16 16 33 20q4 1 37 4q33 2 33 -47zM163 425q0 -22 -11 -41h-1q-1 0 -11 -8.5t-12 -9.5q-32 -18 -49 -18q-39 0 -39 43q0 6 15 40q0 5 5 17q16 16 33 20q4 1 37 4 q33 2 33 -47z" />
<glyph unicode=";" horiz-adv-x="208" d="M168 425q0 -22 -11 -41h-1q-2 0 -11.5 -8.5t-11.5 -9.5q-33 -18 -49 -18q-40 0 -40 43q0 6 16 40q-1 5 5 17q16 16 33 20q4 1 36 4q34 2 34 -47zM149 94q-16 -32 -56 -81q-45 -55 -91 -110q-3 1 -6 1v0q-7 -1 -24 6q28 52 55.5 103.5t39.5 95.5q5 19 21 19q23 0 61 -34z " />
<glyph unicode="&#x3c;" horiz-adv-x="475" d="M435 572q-1 -7 -47 -42q-75 -57 -243 -179l280 -235l-43 -20l-342 255q268 183 276 212q9 36 43 36q13 0 35 -5q30 -8 32 -8q12 -2 9 -14z" />
<glyph unicode="=" horiz-adv-x="494" d="M455 347q1 -20 -12 -26q-5 -2 -18 4q-16 6 -23 6q6 0 -55 4t-100 4q-38 0 -100 -4t-56 -4q-7 0 -21.5 -6t-19.5 -4q-14 6 -10 26l32 31h349zM455 203q1 -20 -12 -26q-5 -2 -18 4q-16 6 -23 6q6 0 -55 4t-100 4q-38 0 -100 -4t-56 -4q-7 0 -21.5 -6t-19.5 -4q-14 6 -10 26 l32 31h349z" />
<glyph unicode="&#x3e;" horiz-adv-x="500" d="M460 364l-362 -256l-56 5l297 249q-270 153 -288 176q-11 16 -11 28q0 21 29 25q15 1 66 -5q9 -1 325 -222z" />
<glyph unicode="?" horiz-adv-x="472" d="M432 766q0 -63 -51 -134l-96 -122q-51 -74 -51 -144.5t-14 -155.5h-26q-26 182 -26 242q0 50 40 106q37 48 75 96q40 61 40 125q0 86 -26 116q-18 21 -62 21q-35 0 -73 -48q-25 -30 -55 -88q-25 -47 -28 -47q-13 0 -27 48q-12 43 -12 64q0 31 60.5 76t93.5 45 q96 0 165 -57q73 -58 73 -143zM269 68q0 -22 -10 -41h-2q-1 0 -10.5 -8.5t-11.5 -9.5q-33 -18 -50 -18q-39 0 -39 43q0 5 15 40q0 5 5 17q16 16 34 20q3 1 36 4q33 2 33 -47z" />
<glyph unicode="@" horiz-adv-x="803" d="M755 316q-11 -98 -52 -218q-46 -14 -94 -30q-4 -2 -21 -4q-10 -2 -25 3t-24 5q-8 0 -21.5 -4.5t-21.5 -3.5q-9 0 -23 8v18q0 7 2 18t2 23v59q-124 -134 -184 -134q-68 0 -93 67q-14 39 -14 113q0 142 77 247q83 115 229 141q12 5 28 5q33 0 43 -11q25 -25 19 -36 q-9 -19 -9 -60v-94q1 -33 1 -49q0 -219 9 -251q4 -10 19 -10q13 0 29 6q12 83 34 278q3 32 3 60q0 264 -223 251q-124 -7 -205 -90q-92 -94 -106 -264q-4 -46 -4 -87q0 -148 49 -227q37 -59 101 -78q17 -5 81 -10q128 -11 338 107l13 -22q-209 -144 -343 -137q-89 5 -130 18 q-100 30 -152 119q-69 118 -47 334q16 165 117 267q106 109 279 117q33 2 58 2v0q156 0 215 -79q75 -99 46 -367zM480 379q0 52 -1.5 56t-1.5 87q0 57 -8 61q-6 2 -16 0q-171 -97 -171 -325q0 -35 12 -81q17 -63 45 -63q37 0 139 134q2 100 2 131z" />
<glyph unicode="A" horiz-adv-x="600" d="M435 277v112q0 101 -53 293t-78 192q-26 0 -79.5 -192t-55.5 -293l-1 -112h267zM585 5q-4 -8 -33 -9q-8 0 -27.5 4.5t-31.5 4.5t-31.5 -5t-33.5 -4q-12 0 -31 5q-12 10 -12 17q0 5 5 10t25 14q14 7 18 19q7 23 5 62q-3 72 -3 67v32q-30 9 -33 9q7 0 -33.5 4t-82.5 4 t-84 -4q-38 -4 -35 -4v0v-34q-1 -31 1 -69q2 -41 2 -64q0 -11 21.5 -21t23.5 -20q2 -14 0 -18q-4 -8 -33 -9q-8 0 -27.5 4.5t-31.5 4.5q-11 0 -31 -5t-33 -4q-13 0 -32 5q-12 10 -12 17q0 5 5 10t25 14q15 7 18 19q9 28 10 136l3 200q1 117 53 260q41 115 102 213 q54 89 73 89t73 -89q60 -98 102 -213q51 -143 53 -260l2 -201q0 -29 3 -67.5t3 -64.5q0 -11 21.5 -21t23.5 -20q2 -14 0 -18z" />
<glyph unicode="B" horiz-adv-x="571" d="M190 0h-118q-14 0 -33 8q-2 4 0 18q2 10 23.5 20t21.5 21q0 24 2 204q2 169 2 208q0 374 -10 405q-4 12 -18 19q-20 10 -25 15t-5 10q0 7 12 16q1 1 31 5h124h7h47q253 0 253 -205q0 -117 -152 -212q83 -25 118 -61q61 -62 61 -151q0 -117 -93 -220q-51 -57 -109 -79 q-54 -21 -139 -21zM225 31q33 8 55 26l46 44q47 46 73 126q23 70 23 141q0 75 -24 97q-16 15 -49 28q-23 6 -38 5q-12 -1 -29 -6q-30 -16 -68 -34l-15 13q27 20 46 36q50 42 72 73q75 105 75 235q0 35 -23 63q-31 37 -87 37q-30 0 -67 -2q-2 -2 -19 -13q-11 -8 -11 -18 q0 -23 -2 -199q-2 -166 -2 -204q0 -383 10 -414q6 -19 34 -34z" />
<glyph unicode="C" horiz-adv-x="501" d="M501 847q0 -23 -9 -59q-10 -44 -23 -44q-2 0 -35 45q-40 54 -69 83q-46 45 -80 45q-69 0 -105 -94q-26 -69 -26 -149q0 -170 8 -241q16 -133 70 -249q29 -60 95 -151l60 -78l-18 -27q-177 142 -252 275q-77 138 -77 324q0 143 47 260q74 180 237 180q34 0 104 -44 q73 -47 73 -76z" />
<glyph unicode="D" horiz-adv-x="602" d="M205 905q-20 -12 -20 -23q0 -23 -2 -199q-2 -166 -2 -204q0 -383 10 -414q4 -13 22 -25q78 28 127 86q16 18 54 82q54 92 54 490q0 74 -26 131q-35 76 -104 76h-113zM169 0h-97q-14 0 -33 8q-2 4 0 18q2 10 23.5 20t21.5 21q0 24 2 204q2 169 2 208q0 374 -10 405 q-4 12 -18 19q-20 10 -25 15t-5 10q0 7 12 16q1 1 31 5h110q23 0 59 -1.5t44 -1.5q163 0 232 -158q44 -100 44 -237q0 -117 -34 -231.5t-81 -166.5q-76 -85 -101 -105q-57 -45 -126 -48q-11 -1 -51 0z" />
<glyph unicode="E" horiz-adv-x="530" d="M491 70q0 -35 -5 -48q-9 -23 -35 -23h-252h-3h-124q-14 0 -33 8q-2 4 0 18q2 10 23.5 20t21.5 21q0 23 2 204q2 169 2 208q0 374 -10 405q-4 12 -19 19q-19 10 -24 15t-5 10q0 7 12 16q1 1 31 5h108v1h268q26 0 34 -22q5 -14 5 -49q0 -12 -14 -59q-16 -51 -25 -51 q-4 0 -21 37q-21 46 -40 70q-30 37 -66 37h-107q-2 -2 -18 -13q-12 -8 -12 -18q0 -23 -1 -145q-2 -153 -2 -194h209l36 -40q2 -9 -3 -19t-10 -13t-20 4.5t-23 7.5q7 0 -32 5.5t-80 5.5q-34 0 -78 -6v-9q0 -383 10 -414q3 -10 26 -28h107q36 0 67 38q18 23 39 69q17 37 21 37 q9 0 25 -51q15 -46 15 -59z" />
<glyph unicode="F" horiz-adv-x="488" d="M229 13q0 -6 -12 -17q-3 -2 -21 -4q-14 -2 -34 3t-31 5q-12 0 -31.5 -4.5t-27.5 -3.5q-14 0 -33 8q-2 4 0 18q2 10 23.5 20t21.5 21q0 23 2 203q2 170 2 208q0 383 -10 414q-4 12 -18 19q-20 10 -25 15t-5 10q0 7 12 16q1 1 31 5h376q26 0 34 -22q5 -14 5 -49 q0 -12 -14 -59q-16 -51 -25 -51q-4 0 -21 37q-21 46 -40 70q-30 37 -66 37h-108q-1 -1 -18 -13q-11 -7 -11 -17q0 29 -3 -340h209l36 -40q2 -9 -3 -19t-10 -13t-20 4.5t-23 7.5q7 0 -32 5.5t-80 5.5q-34 0 -78 -6v-20q0 -379 10 -411q4 -12 13 -18q17 -12 21 -16t4 -9z" />
<glyph unicode="G" horiz-adv-x="576" d="M322 62q33 -33 57 -33q25 0 29 42v64v2v-2q0 1 1 13q0 242 -14 289q-4 12 -50 19q-49 8 -56 15q-4 4 -4 8l10.5 17t30.5 17q9 0 31 -5t33 -6t31 -5t34 -3q12 0 31 4t28 4t22 -8q3 -4 0 -18q-1 -10 -17.5 -20t-16.5 -21q0 -25 -2 -143t-2 -149q0 -117 -67 -219 q-54 -82 -166 -172l-17 27q1 8 57 61q64 58 87 113q-166 75 -259 223.5t-93 350.5q0 143 47 260q74 180 237 180q34 0 104 -44q73 -47 73 -76q0 -23 -9 -59q-10 -44 -23 -44q-2 0 -35 45q-40 54 -69 83q-46 45 -80 45q-69 0 -105 -94q-26 -69 -26 -149v-72q-1 -49 -1 -73 q0 -211 79 -345q49 -81 90 -122z" />
<glyph unicode="H" horiz-adv-x="629" d="M239 13q0 -6 -12 -17q-1 -1 -31 -4q-14 -2 -34 3t-31 5q-12 0 -31.5 -4.5t-27.5 -3.5q-14 0 -33 8q-2 4 0 18q2 10 23.5 20t21.5 21q0 23 2 203q2 170 2 208q0 383 -10 414q-4 12 -19 19q-19 10 -24 15t-5 10q0 7 12 16q1 2 31 5q14 2 33.5 -3t31.5 -5t31.5 4.5t27.5 3.5 q14 0 33 -8q2 -4 0 -18q-2 -10 -23.5 -20t-21.5 -21q0 -23 -1 -144q-2 -156 -2 -196h266q0 311 -10 342q-4 12 -19 19q-19 10 -24 15t-5 10q0 7 12 16q1 2 31 5q14 2 33.5 -3t31.5 -5t31.5 4.5t27.5 3.5q14 0 33 -8q2 -4 0 -18q-2 -10 -23.5 -20t-21.5 -21q0 -23 -2 -204 q-2 -169 -2 -208q0 -382 10 -414q3 -11 18 -18q20 -10 25 -15t5 -10q0 -6 -12 -17q-1 -1 -31 -4q-14 -2 -34 3t-31 5q-12 0 -31.5 -4.5t-27.5 -3.5q-14 0 -33 8q-2 4 0 18q2 10 23.5 20t21.5 21q0 25 2 203.5t2 207.5v11q-8 3 -13 3q7 0 -35.5 5t-86.5 5q-43 0 -86.5 -5 t-36.5 -5q-4 0 -9 -2v-12q0 -382 10 -414q3 -11 18 -18q20 -10 25 -15t5 -10z" />
<glyph unicode="I" horiz-adv-x="269" d="M239 13q0 -6 -12 -17q-1 -1 -31 -4q-14 -2 -34 3t-31 5q-12 0 -31.5 -4.5t-27.5 -3.5q-14 0 -33 8q-2 4 0 18q2 10 23.5 20t21.5 21q0 23 2 203q2 170 2 208q0 383 -10 414q-4 12 -18 19q-20 10 -25 15t-5 10q0 7 12 16q1 2 31 5q14 2 33.5 -3t31.5 -5t31.5 4.5t27.5 3.5 q14 0 33 -8q2 -4 0 -18q-2 -10 -23.5 -20t-21.5 -21q0 -23 -2 -204q-2 -169 -2 -208q0 -382 10 -414q3 -11 18 -18q20 -10 25 -15t5 -10z" />
<glyph unicode="J" horiz-adv-x="297" d="M267 923q-1 -10 -23 -20t-22 -21q0 -31 -1 -204q-2 -198 -2 -208q-1 -49 -1 -147q0 -197 -52 -310q-59 -125 -226 -260l-19 26q25 35 49 70q55 79 79 131q54 117 69 250q9 73 9 240q0 378 -11 414q-4 12 -19 19q-20 10 -25 15t-5 10q0 7 12 16q2 2 32 5q13 2 33 -3t32 -5 q11 0 32 4q18 5 26 4q15 0 33 -8q2 -4 0 -18z" />
<glyph unicode="K" horiz-adv-x="558" d="M267 527q55 40 94 81q94 96 96 178q0 29 3 49.5t3 46.5q0 11 21.5 21t22.5 20q3 14 0 18q-4 8 -32 8q-8 1 -27.5 -3.5t-31.5 -4.5t-31.5 5t-33.5 3q-12 0 -32 -5q-12 -9 -12 -16q0 -5 5 -10t25 -15q15 -7 19 -19q8 -25 8 -105q0 -75 -51 -140q-34 -44 -132 -127 q1 46 2 207q2 139 2 163q0 11 21.5 21t23.5 20q2 14 0 18q-5 8 -33 8q-8 1 -27.5 -3.5t-31.5 -4.5t-31.5 5t-33.5 3q-12 0 -31 -5q-12 -9 -12 -16q0 -5 5 -10t25 -15q14 -7 18 -19q10 -30 10 -414q0 -38 -2 -208q-2 -180 -2 -203q0 -11 -21.5 -21t-23.5 -20q-2 -14 0 -18 q4 -8 33 -8q8 -1 27.5 3.5t31.5 4.5q20 -6 65 -8q12 -1 31 4q12 11 12 17q0 5 -5 10t-25 15q-15 7 -18 18q-10 31 -10 414v2q19 11 39 23q12 4 19 3q3 0 21 -10q3 -2 31.5 -32t31.5 -34q36 -47 46 -108q4 -32 3 -112q-1 -102 25 -161q36 -83 139 -139q5 1 10.5 6.5t8.5 7.5 q-1 1 -10 9q-61 60 -76 136q-7 34 -5 141q1 83 -20 132q-28 67 -107 125q-41 30 -70 68z" />
<glyph unicode="L" horiz-adv-x="522" d="M492 70q0 -35 -5 -48q-8 -23 -35 -23h-250h-5h-124q-12 -1 -31 5q-12 9 -12 16q0 5 5 10t24 15q15 7 19 19q9 30 10 414q0 38 -2 208q-2 180 -2 203q0 11 -21.5 21t-23.5 20q-2 14 0 18q4 8 33 8q8 1 27.5 -3.5t31.5 -4.5q20 6 65 8q12 1 31 -4q12 -10 12 -17 q0 -5 -5 -10t-25 -15q-15 -7 -18 -18q-10 -31 -10 -411q0 -39 2 -210q2 -182 2 -205q0 -10 11 -17l18 -13h111q36 0 67 38q19 23 39 69q17 37 21 37q10 0 25 -51q15 -46 15 -59z" />
<glyph unicode="M" horiz-adv-x="785" d="M239 13q0 -6 -12 -17q-1 -1 -31 -4q-14 -2 -34 3t-31 5q-12 0 -31.5 -4.5t-27.5 -3.5q-14 0 -33 8q-2 4 0 18q2 10 23.5 20t21.5 21q0 23 2 203q2 170 2 208q0 383 -10 414q-4 12 -18 19q-20 10 -25 15t-5 10q0 7 12 16q6 5 31 5q9 -3 29 -8q13 -2 27.5 3.5t21.5 4.5 q9 0 23 -8q1 -4 1 -9q48 -38 93 -138q96 -215 124 -340q29 125 125 340q45 100 93 138q-1 5 1 9q4 8 23 8q7 1 21.5 -4.5t27.5 -3.5q5 1 13.5 4.5t15.5 3.5q25 0 31 -5q12 -9 12 -16q0 -5 -5 -10t-25 -15q-15 -7 -18 -19q-10 -30 -10 -414q0 -38 2 -208q2 -180 2 -203 q0 -11 21.5 -21t23.5 -20q2 -14 0 -18q-5 -8 -33 -8q-8 -1 -27.5 3.5t-31.5 4.5t-31.5 -5t-33.5 -3q-12 -1 -31 4q-12 10 -12 17q0 5 5 10t24 15q15 7 19 18q9 31 10 414q0 101 -3 307q-4 21 -10 24q-5 2 -20 -21q-10 -20 -40 -108q-59 -169 -75 -225q-33 -114 -39 -208 q-4 -51 -1 -102q-4 -1 -24 5q-20 -6 -24 -5q4 59 -2 127q-8 88 -40 196q-13 43 -72 212q-14 41 -41 110q-15 21 -19 19q-6 -3 -11 -27q-2 -213 -2 -304q0 -382 10 -414q3 -11 18 -18q20 -10 25 -15t5 -10z" />
<glyph unicode="N" horiz-adv-x="642" d="M239 13q0 -6 -12 -17q-1 -1 -31 -4q-14 -2 -34 3t-31 5q-12 0 -31.5 -4.5t-27.5 -3.5q-14 0 -33 8q-2 4 0 18q2 10 23.5 20t21.5 21q0 23 2 203q2 170 2 208q0 383 -10 414q-4 12 -18 19q-20 10 -25 15t-5 10q0 7 12 16q6 5 31 5q9 -3 29 -8q13 -2 32.5 3.5t26.5 4.5 l22 -7q36 -40 110 -153q115 -175 168 -322q0 386 -10 417q-3 12 -18 19q-20 10 -25 15t-5 10q0 7 12 16q1 2 31 5q14 2 34 -3t31 -5q12 0 31.5 4.5t27.5 3.5q14 0 33 -8q2 -4 0 -18q-2 -10 -23.5 -20t-21.5 -21q0 -23 -2 -204q-2 -169 -2 -208q0 -382 10 -414q4 -11 19 -18 q19 -10 24 -15t5 -10q0 -6 -12 -17q-1 -1 -31 -4q-14 -2 -34 3t-31 5q-12 0 -31.5 -4.5t-27.5 -3.5q-14 0 -33 8q-2 4 0 18q2 10 23.5 20t21.5 21q0 40 2 245q-52 220 -245 490q-17 18 -21 16q-5 -3 -9 -33q-3 -250 -3 -307q0 -382 10 -414q3 -11 18 -18q20 -10 25 -15 t5 -10z" />
<glyph unicode="O" horiz-adv-x="581" d="M541 532q0 -154 -55 -297q-44 -113 -111 -196q-58 -71 -85 -71q-26 0 -84 75q-67 87 -111 201q-55 143 -55 288q0 201 42 300q58 138 208 138q151 0 209 -138q42 -99 42 -300zM421 732q-5 54 -16 88q-18 53 -34 71q-26 28 -81 28t-81 -28q-17 -18 -34 -70 q-12 -35 -16 -89q-4 -46 -7 -92q-2 -37 -2 -80q0 -180 37 -334q42 -174 103 -174q62 0 103 165q37 150 37 332q0 75 -9 183z" />
<glyph unicode="P" horiz-adv-x="497" d="M239 13q0 -6 -12 -17q-1 -1 -31 -4q-14 -2 -34 3t-31 5q-12 0 -31.5 -4.5t-27.5 -3.5q-14 0 -33 8q-2 4 0 18q2 10 23.5 20t21.5 21q0 23 2 203q2 170 2 208q0 383 -10 414q-4 12 -18 19q-20 10 -25 15t-5 10q0 7 12 16q1 1 31 5h124h7h41q242 0 242 -239q0 -99 -72 -180 q-61 -70 -205 -153l-14 15q26 25 43 43q48 50 69 85q72 117 72 273q0 40 -22 74q-29 43 -83 43q-30 0 -67 -3q-23 -16 -23 -25q0 -23 -2 -205q-2 -171 -2 -210q0 -379 10 -411q3 -11 18 -18q20 -10 25 -15t5 -10z" />
<glyph unicode="Q" horiz-adv-x="581" d="M504 -227l-14 -21q-111 89 -232 229q-140 160 -154 239l2 -2q-66 155 -66 314q0 201 42 300q58 138 208 138q151 0 209 -138q42 -99 42 -300q0 -172 -68 -328q-53 -122 -126 -197q12 -27 35 -68q20 -33 40 -62q47 -69 82 -104zM421 732q-5 54 -16 88q-18 53 -34 71 q-26 28 -81 28t-81 -28q-17 -18 -34 -70q-12 -35 -16 -89q-4 -46 -7 -92q-2 -37 -2 -80q0 -180 37 -334q42 -174 103 -174q62 0 103 165q37 150 37 332q0 75 -9 183z" />
<glyph unicode="R" horiz-adv-x="535" d="M239 13q0 -6 -12 -17q-1 -1 -31 -4q-14 -2 -34 3t-31 5q-12 0 -31.5 -4.5t-27.5 -3.5q-14 0 -33 8q-2 4 0 18q2 10 23.5 20t21.5 21q0 23 2 203q2 170 2 208q0 383 -10 414q-4 12 -18 19q-20 10 -25 15t-5 10q0 7 12 16q1 1 31 5h124h7h41q242 0 242 -239 q0 -138 -150 -251q75 -50 104 -120q24 -56 23 -137q-2 -107 5 -141q15 -76 76 -136q3 -3 10 -9q-4 -7 -19 -14q-103 56 -139 139q-26 59 -25 161q1 78 -4 112q-10 60 -45 108q-8 6 -14 8q-6 1 -16 -2q-36 -24 -83 -51l-14 15q26 25 43 43q48 50 69 85q72 117 72 273 q0 40 -22 74q-29 43 -83 43q-30 0 -67 -3q-23 -16 -23 -25q0 -23 -2 -205q-2 -171 -2 -210q0 -379 10 -411q3 -11 18 -18q20 -10 25 -15t5 -10z" />
<glyph unicode="S" horiz-adv-x="470" d="M440 297q0 -115 -132 -297q-111 -154 -230 -250l-17 27q0 9 75 85q91 91 138 157q74 105 74 187q0 70 -83 167q-76 82 -153 164q-82 94 -82 156q0 92 68 180q72 93 160 93q35 0 105 -44q74 -47 74 -77q0 -21 -13 -64q-14 -48 -27 -48q-3 0 -34 48q-38 57 -66 88 q-45 47 -80 47q-33 0 -67 -54q-30 -49 -30 -83q0 -64 83 -165l154 -172q83 -95 83 -145z" />
<glyph unicode="T" horiz-adv-x="547" d="M378 13q0 -6 -12 -17q-1 -1 -31 -4q-14 -2 -34 3t-31 5q-12 0 -31.5 -4.5t-27.5 -3.5q-14 0 -33 8q-2 4 0 18q2 10 23.5 20t21.5 21q0 23 2 203q2 170 2 208q0 383 -10 414q-3 10 -27 28h-23q-36 0 -67 -37q-19 -24 -39 -70q-17 -37 -21 -37q-10 0 -25 51q-15 47 -15 59 q0 35 5 49q9 22 35 22h468q26 0 34 -22q5 -14 5 -49q0 -12 -14 -59q-16 -51 -25 -51q-4 0 -21 37q-21 46 -40 70q-30 37 -67 37h-27q0 -1 -18 -13q-11 -7 -11 -17q0 -23 -2 -205q-2 -171 -2 -210q0 -379 10 -411q4 -11 19 -18q19 -10 24 -15t5 -10z" />
<glyph unicode="U" horiz-adv-x="629" d="M599 923q-1 -10 -22.5 -20t-21.5 -21q0 -26 -3 -64.5t-3 -67.5l-3 -442q0 -115 -52 -200q-39 -65 -102 -104q-47 -29 -74 -29q-26 0 -73 29q-63 39 -102 104q-52 85 -53 200l-2 441q0 63 -1 70q-1 41 -9 65q-4 12 -18 19q-20 10 -25 15t-5 10q0 7 12 16q1 2 31 5 q14 2 33.5 -3t31.5 -5t31.5 4.5t27.5 3.5q14 0 33 -8q2 -4 0 -18q-2 -10 -23.5 -20t-21.5 -21q0 -24 -2 -63.5t-2 -69.5l3 -432q1 -155 55 -228q36 -49 79 -49q42 0 77 49q51 72 54 228l8 432q2 98 -9 135q-4 12 -19 19q-20 10 -25 15t-5 10q0 7 12 16q2 2 32 5q13 2 33 -3 t32 -5q11 0 32 4q18 5 27 4q14 0 32 -8q3 -4 0 -18z" />
<glyph unicode="V" horiz-adv-x="600" d="M585 923q-2 -10 -23.5 -20t-21.5 -21q0 -26 -3 -65t-3 -67l-2 -202q-2 -117 -53 -263q-42 -117 -102 -219q-54 -91 -73 -91t-73 91q-60 102 -102 219q-52 146 -53 263l-3 201v70q-2 41 -10 65q-3 12 -18 19q-20 10 -25 15t-5 10q0 7 12 16q2 2 32 5q13 2 33 -3t31 -5 q12 0 31.5 4.5t27.5 3.5q14 0 33 -8q2 -4 0 -18q-2 -10 -23.5 -20t-21.5 -21q0 -23 -2 -62.5t-1 -70.5l2 -192q2 -103 55.5 -310t79.5 -207q25 0 78 207.5t53 309.5v199q0 -5 3 67q2 38 -5 61q-3 12 -18 19q-20 10 -25 15t-5 10q0 7 12 16q2 2 31 5q14 2 34 -3t31 -5 q12 0 31.5 4.5t27.5 3.5q14 0 33 -8q2 -4 0 -18z" />
<glyph unicode="W" horiz-adv-x="876" d="M442 301q-37 -123 -92 -229q-51 -97 -70 -97t-67 91q-53 101 -90 219q-46 146 -47 263l-3 201v70q-2 41 -10 65q-3 12 -18 19q-20 10 -25 15t-5 10q0 7 12 16q2 2 32 5q13 2 33 -3t31 -5q12 0 31.5 4.5t27.5 3.5q14 0 33 -8q2 -4 0 -18q-2 -10 -23.5 -20t-21.5 -21 q0 -23 -2 -62.5t-1 -70.5l2 -192q2 -108 43 -310q43 -207 68 -207q24 0 66 207q41 203 41 310v199q0 -5 3 67q2 38 -5 61q-3 12 -18 19q-20 10 -25 15t-5 10q0 7 12 16q2 2 31 5q3 0 9 1q10 0 27.5 -4.5t28.5 -4.5q12 0 31 4t27 4h3q14 0 33 -8q2 -4 0 -18q-2 -10 -23.5 -20 t-21.5 -21q0 -23 -2 -62.5t-1 -70.5l2 -192q2 -108 43 -310q43 -207 68 -207q24 0 66 207q41 203 41 310v199q0 -5 3 67q2 38 -5 61q-3 12 -18 19q-20 10 -25 15t-5 10q0 7 12 16q1 2 31 5q14 2 34 -3t31 -5q12 0 31.5 4.5t27.5 3.5q14 0 33 -8q2 -4 0 -18q-2 -10 -23.5 -20 t-21.5 -21q0 -26 -3 -65t-3 -67l-2 -202q-2 -117 -47 -263q-37 -118 -90 -219q-49 -91 -67 -91q-19 0 -70 97q-55 106 -92 229z" />
<glyph unicode="X" horiz-adv-x="579" d="M277 435q-66 -68 -84 -149q-11 -47 -11 -156q0 -30 1.5 -38t1.5 -33q0 -11 21.5 -21t23.5 -20q2 -14 0 -18q-5 -8 -33 -8q-8 -1 -27.5 3.5t-31.5 4.5t-31.5 -5t-33.5 -3q-12 -1 -31 4q-12 10 -12 17q0 5 5 10t24 15q15 7 19 18q9 31 9 82q0 94 38 176q44 98 133 154 q2 5 2 10q0 3 -1 6q-105 62 -143 139q-28 59 -28 156q0 74 -9 105q-4 12 -19 19q-20 10 -25 15t-5 10q0 7 12 16q2 2 32 5q13 2 33 -3t32 -5q11 0 30.5 4.5t27.5 3.5q15 0 33 -8q2 -4 0 -18q-1 -10 -23 -20t-22 -21q0 -25 -1.5 -46t-1.5 -51q0 -101 11 -141q19 -62 87 -129 q2 -1 7 -8.5t7 -7.5q4 7 13 16q69 66 87 126q12 38 12 138q0 80 -8 105q-3 12 -18 19q-20 10 -25 15t-5 10q0 7 12 16q2 2 31 5q14 2 34 -3t31 -5q12 0 31.5 4.5t27.5 3.5q14 0 33 -8q2 -4 0 -18q-2 -10 -23.5 -20t-21.5 -21q0 -25 -3 -45.5t-3 -50.5q0 -82 -37 -157 q-45 -89 -133 -145q-3 -4 -3 -8t3 -8q102 -63 140 -158q27 -67 27 -179q0 -30 3 -38.5t3 -33.5q0 -11 21.5 -21t22.5 -20q3 -14 0 -18q-4 -8 -32 -8q-9 -1 -28 3.5t-31 4.5t-32 -5t-33 -3q-12 -1 -32 4q-12 10 -12 17q0 5 5 10t25 15q15 7 19 18q8 27 9 35v39q0 109 -11 155 q-19 80 -83 148q-5 9 -16 18q-3 0 -8.5 -7.5t-8.5 -8.5z" />
<glyph unicode="Y" horiz-adv-x="520" d="M366 386q2 2 -6.5 -8.5t-23.5 -30.5q-31 -42 -31 -69q0 -190 9 -222q4 -11 19 -18q20 -10 25 -15t5 -10q0 -7 -12 -17q-1 0 -32 -4q-13 -2 -33 3t-32 5t-31 -4.5t-28 -3.5q-14 0 -32 8q-2 4 0 18q1 10 22.5 20t21.5 21q0 39 3 219q0 22 -21 63q-132 144 -132 339l1 97 q0 78 -10 107q-3 12 -18 19q-20 10 -25 15t-5 10q0 7 12 16q2 2 32 5q13 2 33 -3t31 -5q12 0 31.5 4.5t27.5 3.5q14 0 33 -8q2 -4 0 -18q-2 -10 -23.5 -20t-21.5 -21q0 -26 -1.5 -47t-1.5 -50l-1 -60q-1 -122 42 -252q40 -121 68 -121t66 101q43 112 43 230q0 21 -2 42l8 54 q0 80 -8 105q-3 12 -18 19q-20 10 -25 15t-5 10q0 7 12 16q2 2 31 5q14 2 34 -3t31 -5q12 0 31.5 4.5t27.5 3.5q14 0 33 -8q2 -4 0 -18q-2 -10 -23.5 -20t-21.5 -21t-5 -104l-5 -98q-7 -157 -95 -288z" />
<glyph unicode="Z" horiz-adv-x="479" d="M439 72q0 -33 -4 -47q-9 -24 -35 -24h-321q-39 0 -39 19q0 76 64 260q17 46 130 340q78 204 97 290h-113q-38 0 -69 -41q-17 -22 -41 -75q-13 -28 -17 -28q-7 0 -23 48.5t-16 61.5q0 33 4 46q9 25 35 25h297q41 0 39 -19q-12 -126 -133 -439q-136 -350 -158 -451h136 q39 0 70 41q17 22 41 75q13 28 17 28q7 0 23 -48.5t16 -61.5z" />
<glyph unicode="[" horiz-adv-x="349" d="M349 -320q0 -7 -12 -17q-2 -2 -21 -5h-244q-9 0 -23 8q-2 4 0 18q2 10 18.5 20t16.5 21q0 22 2 375q2 331 2 379q0 467 -10 498q-4 13 -14 19q-17 12 -20.5 16t-3.5 9q0 7 12 16q3 3 21 5h244q9 0 23 -8q6 -12 0 -18q-26 -26 -95 -30q-60 -3 -60 -11q0 -23 -2 -246 q-2 -209 -2 -250q0 -725 10 -756q3 -11 73 -19q74 -8 79.5 -14t5.5 -10z" />
<glyph unicode="\" horiz-adv-x="547" d="M508 12l-26 -9q-111 212 -196 370q-202 379 -236 424q-10 13 -10 21q0 15 30 15q13 0 58 -6q19 -2 380 -815z" />
<glyph unicode="]" horiz-adv-x="349" d="M310 -322q0 -7 -12 -17q-3 -2 -22 -5h-244q-9 0 -22 8q-2 3 0 18q3 36 77 36v0q10 0 37 -1q21 -1 29 0q11 1 11 6q0 22 2 376q2 332 2 380q0 467 -10 498q-3 12 -73 19q-74 8 -79.5 14t-5.5 11q0 7 12 16q3 3 22 5h243q9 0 23 -8q2 -4 0 -18q-2 -10 -18.5 -20t-16.5 -21 q0 -23 -2 -246q-1 -209 -1 -250q0 -727 9 -758q4 -12 14 -19q17 -12 21 -16t4 -8z" />
<glyph unicode="^" horiz-adv-x="511" d="M471 818l-23 -37q-41 23 -98 66q-84 64 -94 71q-62 -49 -193 -137l-23 37q36 26 88 73q67 61 85 76q26 0 81 4q110 -106 177 -153z" />
<glyph unicode="_" horiz-adv-x="763" d="M720 -59q4 -5 4 -12q0 -21 -16 -33q-2 -1 -4 -1q-4 0 -16.5 9t-19.5 9q6 0 -121 7.5t-165 7.5t-165.5 -7.5t-121.5 -7.5q-7 0 -19.5 -9t-17.5 -9q-2 0 -4 1q-14 11 -14 33q0 7 4 12l32 55h611z" />
<glyph unicode="`" horiz-adv-x="365" d="M326 707l-30 -9q-69 45 -121 83q-122 93 -133 138q-2 8 -2 15q0 19 21 19q3 0 48 -8q18 -3 217 -238z" />
<glyph unicode="a" d="M336 124q-126 -140 -190 -140q-68 0 -92 67q-14 39 -14 113q0 140 69 241q76 111 215 141q-3 33 -6 67t-25 55q-14 14 -19 18q-11 7 -26 10q-27 5 -59 -36q-20 -26 -47 -79q-22 -43 -24 -43q-10 0 -23 46q-13 42 -13 58q0 23 56 57q52 33 80 35q23 2 100 0 q118 -3 118 -225q0 15 -1 -129q-2 -123 -1 -199q2 -107 7 -125q3 -11 18 -18q19 -10 24 -15t5 -10q0 -6 -12 -17q-2 -1 -30 -4q-11 -2 -26 3t-25 5q-8 0 -21 -4.5t-22 -3.5q-9 0 -22 8v18q1 7 3.5 18t2.5 23v65zM328 522q-193 -95 -193 -336q0 -35 13 -81q17 -63 45 -63 q38 0 144 140l-1 148q0 126 -8 192z" />
<glyph unicode="b" horiz-adv-x="533" d="M193 923q-23 -46 -23 -96q0 -63 1 -273q47 61 95 109q72 71 111 71q74 0 101 -87q15 -51 15 -149q0 -186 -78 -320q-86 -148 -243 -183q-2 -2 -17 -3q-11 -2 -26 3t-25 5q-7 0 -20 -4.5t-22 -3.5q-14 0 -32 8q-3 4 0 18q1 10 22.5 20t21.5 21q0 22 2 197q2 171 2 202 q0 43 -2 169q-2 112 -2 200q0 26 -4 30q-11 2 -26 8q-8 9 -8 21q-1 11 16 19q14 6 28 13q59 42 86 42q5 0 8 -2q24 -25 19 -35zM191 41q3 -1 7 0q191 127 191 428q0 47 -14 107q-18 83 -49 83q-41 0 -154 -181v-20q0 -370 9 -402q5 -14 10 -15zM215 52l-12 -9q6 3 12 9z" />
<glyph unicode="c" horiz-adv-x="415" d="M395 642q0 -16 -13 -58q-15 -46 -24 -46q-3 0 -24 41q-27 49 -47 76q-32 41 -59 41q-82 0 -82 -178q0 -115 9 -183q13 -100 51 -193q19 -46 62 -116q20 -30 39 -61l-14 -20q-136 109 -194 211q-59 107 -59 250q0 108 36 194q57 134 182 134q26 0 81.5 -34.5t55.5 -57.5z " />
<glyph unicode="d" horiz-adv-x="523" d="M372 -7v0h-1q-7 -2 -13 -1q-9 0 -22 8q-136 32 -217 145q-79 110 -79 261q0 125 46 215q58 113 172 113q53 0 81 -3l-1 96q0 26 -4 30q-11 2 -26 8q-8 9 -8 21q-1 11 16 19q14 6 28 13q59 42 86 42q5 0 8 -2q24 -25 19 -35q-23 -46 -23 -96q0 -60 1 -206.5t1 -162.5 q0 -370 9 -402q4 -11 19 -18q20 -10 25 -15t5 -10q0 -6 -12 -17q-3 -2 -32 -4q-10 -1 -25 3.5t-24 4.5q-3 0 -29 -7zM316 56q23 -11 31 -4q2 1 3 8q0 29 -4 198q-4 173 -4 200q-1 71 -3 222q-22 16 -111 16q-82 0 -82 -178q0 -164 34 -268q40 -122 136 -194z" />
<glyph unicode="e" horiz-adv-x="448" d="M170 238q57 46 103 108q55 73 55 120q0 53 -31 135q-37 95 -79 95q-82 0 -82 -178q0 -134 34 -280zM418 520q0 -72 -83 -176q-70 -88 -155 -150q8 -27 15.5 -53t54.5 -103q23 -36 46 -73l-14 -20q-136 109 -193 211q-59 106 -59 250q0 115 44 209q57 119 160 119 q79 0 133 -65q51 -63 51 -149z" />
<glyph unicode="f" horiz-adv-x="378" d="M319 688q2 -20 -12 -26q-5 -2 -18 4q-16 6 -23 6q3 0 -23 3t-54 5l-1 -222q0 -370 9 -402q4 -11 18 -18q20 -10 25 -15t5 -10q0 -6 -12 -17q-1 0 -31 -4q-14 -2 -34 3t-32 5t-31.5 -4.5t-27.5 -3.5q-14 0 -32 8q-3 4 0 18q1 10 22.5 20t21.5 21q0 22 2 197q2 171 2 202 v219q-6 -1 -41 -5q-7 0 -21.5 -6t-19.5 -4q-15 6 -11 26l32 31h61v31q0 69 56.5 138.5t123.5 69.5q26 0 81 -35t55 -58q0 -16 -13 -58q-14 -46 -23 -46q-2 0 -24 41q-27 50 -47 76q-32 41 -59 41q-24 0 -40 -40q-13 -32 -13 -63v-97h96z" />
<glyph unicode="g" horiz-adv-x="495" d="M523 -54q0 -67 -87 -157q-57 -60 -180 -154q-129 -99 -155 -125l-21 15q95 86 189 172q139 135 139 190q0 54 -59 54q-41 0 -101.5 -28t-68.5 -28q-13 32 -13 31q0 24 78 146q-15 -1 -37 -20t-39 -19l-8 1q-56 52 -91 180q-29 109 -29 204t40 191q49 120 129 120 q49 0 77 -16q32 -22 63 -45q26 60 81 110l10 5h9q42 -28 35 -48q-2 -4 -42 -59q-34 -46 -34 -80q0 -28 8.5 -97.5t8.5 -97.5q0 -157 -85 -308q-11 -19 -40.5 -55.5t-33.5 -41.5q90 30 124 30q48 0 83 -13q50 -18 50 -57zM335 368q0 73 -33 176q-41 127 -96 127 q-46 0 -62 -49q-8 -27 -8 -88q0 -146 14 -221q26 -137 103 -182q6 -4 13 -4q38 0 56 105q13 69 13 136z" />
<glyph unicode="h" horiz-adv-x="521" d="M481 509q0 -463 -188 -694q-10 -1 -31 7q115 223 115 566q0 101 -3 131q-11 98 -51 137q-4 4 -9 4q-37 0 -142 -163v-39q0 -370 9 -402q4 -11 19 -18q20 -10 25 -15t5 -10q0 -6 -12 -17q-2 -1 -32 -4q-14 -2 -32 3q-21 5 -33 5t-31.5 -4.5t-27.5 -3.5q-14 0 -32 8 q-3 4 0 18q1 10 22.5 20t21.5 21q0 22 2 197q2 171 2 202q0 43 -2 169q-2 112 -2 200q0 26 -4 30q-11 2 -26 8q-8 9 -8 21q-1 11 16 19q14 6 28 13q59 42 86 42q5 0 8 -2q24 -25 19 -35q-23 -46 -23 -96q0 -63 1 -258q133 165 194 165q116 0 116 -225z" />
<glyph unicode="i" horiz-adv-x="260" d="M180 919q0 -21 -11 -41h-1q-2 0 -11.5 -8.5t-11.5 -9.5q-33 -18 -49 -18q-40 0 -40 44q0 5 16 39q-1 6 5 17q16 16 33 21q4 0 36 3q34 3 34 -47zM231 14q0 -7 -13 -18q-1 0 -31 -4q-14 -2 -34 3t-32 5t-31.5 -4.5t-27.5 -3.5q-14 0 -32 8q-3 4 0 18q1 10 23.5 20t22.5 21 q0 22 1 133q1 106 1 138q0 45 -1 113q-1 57 -1 144q0 28 -5 31q-11 1 -27 7q-8 8 -7 22q0 11 17 18q27 12 28 13q59 43 84 43q6 0 8 -2q25 -25 19 -36q-23 -46 -23 -96q0 -60 1.5 -151t1.5 -106q0 -242 9 -274q4 -11 19 -18q20 -10 25 -15t5 -9z" />
<glyph unicode="j" horiz-adv-x="231" d="M181 919q0 -21 -11 -41h-1q-1 0 -11 -8.5t-12 -9.5q-32 -18 -49 -18q-39 0 -39 44q0 5 15 39q0 6 5 17q16 16 33 21q4 0 37 3t33 -47zM191 683q-22 -44 -22 -96q0 -83 3.5 -133.5t3.5 -104.5q0 -463 -188 -693q-3 1 -6 1v0q-7 -1 -24 6q115 222 115 565q0 15 2 157t2 202 q0 25 -9 31q-10 1 -25 7q-9 9 -9 22q0 11 17 18q27 12 28 13q60 43 85 43q5 0 8 -2q24 -25 19 -36z" />
<glyph unicode="k" horiz-adv-x="499" d="M230 13q0 -6 -12 -17q-2 -1 -32 -4q-14 -2 -32 3q-21 5 -33 5t-31.5 -4.5t-27.5 -3.5q-14 0 -32 8q-3 4 0 18q1 10 22.5 20t21.5 21q0 22 2 197q2 171 2 202q0 43 -2 169q-2 112 -2 200q0 26 -4 30q-11 1 -26 8q-8 9 -8 21q-1 11 16 19q14 6 28 13q59 42 86 42q5 0 8 -2 q24 -25 19 -35q-23 -46 -23 -96q0 -60 1 -206.5t1 -162.5q0 1 0 -37q-1 -22 -1 -63q167 93 167 229q0 28 -4 31q-8 2 -18 7q-7 11 -7 22q0 9 14 17q20 13 21 14q19 17 47 30.5t44 13.5q7 0 10 -3q25 -25 19 -36q-31 -63 -31 -96q0 -98 -189 -240q55 -75 96 -131 q98 -136 105 -160q4 -11 28.5 -19t30 -13.5t5.5 -9.5q0 -7 -13 -18q-4 -3 -30 -4q-8 -1 -18 3t-16 5q-13 1 -32.5 -4t-26.5 -4q-9 0 -23 8q1 6 0 18q0 7 -6 18t-6 23q0 45 -166 260q0 -231 9 -263q4 -11 19 -18q20 -10 25 -15t5 -10z" />
<glyph unicode="l" horiz-adv-x="259" d="M230 13q0 -6 -12 -17q-2 -1 -32 -4q-14 -2 -32 3q-21 5 -33 5t-31.5 -4.5t-27.5 -3.5q-14 0 -32 8q-3 4 0 18q1 10 22.5 20t21.5 21q0 22 2 197q2 171 2 202q0 43 -2 169q-2 112 -2 200q0 26 -4 30q-11 2 -26 8q-8 9 -8 21q-1 11 16 19q14 6 28 13q59 42 86 42q5 0 8 -2 q24 -25 19 -35q-23 -46 -23 -96q0 -60 1 -206.5t1 -162.5q0 -370 9 -402q4 -11 19 -18q20 -10 25 -15t5 -10z" />
<glyph unicode="m" horiz-adv-x="838" d="M538 13q0 -7 -12 -17q-2 -1 -32 -4q-10 -1 -25 3.5t-24 4.5q-8 0 -21 -4.5t-22 -3.5q-9 0 -22 8v18q1 7 2 18t1 23q0 24 2 133q1 103 1 138q0 270 -58 326q-4 4 -9 4q-39 0 -148 -170q2 -177 2 -160q0 -242 9 -274q4 -11 19 -18q20 -10 25 -15t5 -9q0 -7 -13 -18 q-1 0 -31 -4q-14 -2 -34 3t-32 5t-31.5 -4.5t-27.5 -3.5q-14 0 -32 8q-3 4 0 18q1 10 23.5 20t22.5 21q0 22 1 133q1 106 1 138q0 45 -1 113q-1 57 -1 144q0 28 -5 31q-11 1 -27 7q-8 8 -7 22q0 11 17 18q27 12 28 13q59 43 84 43q6 0 8 -2q25 -25 19 -36q-23 -47 -23 -96 v-24q136 171 198 171q104 0 115 -171q136 171 199 171q116 0 116 -225q0 -463 -188 -694q-10 -1 -32 7q116 223 116 566q0 101 -4 131q-10 98 -50 137q-4 4 -9 4q-38 0 -146 -169q-5 -405 5 -435q3 -11 18 -18q20 -10 25 -15t5 -10z" />
<glyph unicode="n" horiz-adv-x="523" d="M484 509q0 -463 -189 -694q-10 -1 -31 7q115 223 115 566q0 101 -3 131q-10 98 -51 137q-3 4 -8 4q-39 0 -146 -168q0 -28 1 -95q1 -49 1 -67q0 -242 9 -274q4 -11 19 -18q20 -10 25 -15t5 -9q0 -7 -13 -18q-1 0 -31 -4q-14 -2 -34 3t-32 5t-31.5 -4.5t-27.5 -3.5 q-14 0 -32 8q-3 4 0 18q1 10 23.5 20t22.5 21q0 22 1 133q1 106 1 138q0 45 -1 113q-1 57 -1 144q0 28 -5 31q-11 1 -27 7q-8 8 -7 22q0 11 17 18q27 12 28 13q59 43 84 43q6 0 8 -2q25 -25 19 -36q-23 -47 -23 -96v-22q135 169 197 169q117 0 117 -225z" />
<glyph unicode="o" horiz-adv-x="499" d="M470 408q0 -117 -50 -227q-39 -87 -98 -151q-51 -55 -72 -55t-75 58q-63 68 -101 155q-50 110 -44 220q19 326 220 326q115 0 174 -112q46 -89 46 -214zM360 485q-9 116 -16 141q-22 70 -94 70q-73 0 -95 -70q-8 -24 -17 -141q-1 -23 -1 -48q0 -133 36 -263 q37 -134 77 -134t76 127t36 263q0 29 -2 55z" />
<glyph unicode="p" horiz-adv-x="533" d="M172 25q217 124 217 444q0 47 -14 107q-18 83 -49 83q-41 0 -155 -183l1 -256v-195zM493 498q0 -186 -78 -320q-86 -148 -243 -183q2 -155 9 -177q4 -12 19 -19q20 -10 25 -15t5 -9q0 -7 -12 -17q-2 -1 -32 -5q-14 -2 -32 3q-21 5 -33 5t-31.5 -4.5t-27.5 -3.5 q-14 0 -32 8q-3 5 0 18q1 10 22.5 20t21.5 21q0 22 2 198q2 170 2 202q0 43 -2 168q-2 112 -2 200q0 27 -4 30q-11 2 -26 8q-8 9 -8 21q0 11 16 19l28 13q59 42 86 42q5 0 8 -2q24 -25 19 -35q-23 -46 -23 -96v-36q47 61 95 110q73 72 112 72q74 0 101 -87q15 -51 15 -149z " />
<glyph unicode="q" horiz-adv-x="536" d="M40 406q0 125 46 215q58 113 172 113q15 0 47.5 -15.5t57.5 -35.5q55 39 80 39q6 0 8 -3q24 -25 19 -35q-22 -46 -22 -96v-247q1 -187 1 -202q0 -269 87 -382q-4 -3 -8 -3v0q-6 0 -22 -2q-116 96 -148 245q-144 28 -231 141t-87 268zM340 40q9 -4 10 -3q2 2 4 8l1 175 q0 43 -2 169q-1 112 -1 199q0 25 -11 33q-3 2 -8 10q-3 2 -9 9q-52 56 -96 56q-82 0 -82 -178q0 -173 39 -280q45 -126 155 -198z" />
<glyph unicode="r" horiz-adv-x="406" d="M231 14q0 -7 -13 -18q-1 0 -31 -4q-14 -2 -34 3t-32 5t-31.5 -4.5t-27.5 -3.5q-14 0 -32 8q-3 4 0 18q1 10 23.5 20t22.5 21q0 22 1 133q1 106 1 138q0 45 -1 113q-1 57 -1 144q0 28 -5 31q-11 1 -27 7q-8 8 -7 22q0 11 17 18q27 12 28 13q59 43 84 43q6 0 8 -2 q25 -25 19 -36q-23 -46 -23 -96v-5q69 152 123 152q22 0 67.5 -34.5t45.5 -57.5q0 -13 -19.5 -58.5t-27.5 -45.5q-2 0 -15 38q-16 46 -30 69q-22 36 -44 31q-20 -5 -50 -65q-25 -52 -49 -104q0 -35 1 -104q1 -55 1 -73q0 -242 9 -274q4 -11 19 -18q20 -10 25 -15t5 -9z" />
<glyph unicode="s" horiz-adv-x="395" d="M366 226q0 -87 -109 -226q-87 -112 -183 -190l-13 21q0 7 53 60q64 65 97 112q51 76 51 139q0 52 -60 130l-112 132q-60 75 -60 123q0 69 55 136q58 71 126 71q26 0 80.5 -34.5t54.5 -57.5q0 -16 -13 -58q-14 -46 -24 -46q-2 0 -24 41q-26 49 -47 76q-32 41 -58 41 q-41 0 -41 -104q0 -49 59 -126q54 -65 109 -130q59 -72 59 -110z" />
<glyph unicode="t" horiz-adv-x="339" d="M329 688q2 -20 -12 -26q-5 -2 -18 4q-16 6 -23 6q2 0 -21 3t-48 4q0 -56 2 -173q1 -100 1 -118q0 -343 115 -566q-5 -4 -9 -5v0q-5 1 -21 -2q-188 230 -188 694q0 54 1 89q3 48 3 80q-18 -2 -34 -4t-15 -2q-7 0 -21.5 -6t-19.5 -4q-15 6 -11 26l32 31h69l1 27q0 28 -5 32 q-11 1 -27 7q-8 8 -7 21q0 11 17 19q26 12 28 13q59 43 84 43q6 0 8 -3q24 -25 19 -36q-23 -46 -23 -96v-27h90z" />
<glyph unicode="u" horiz-adv-x="548" d="M364 88q-25 -44 -62 -78q-41 -38 -74 -38q-32 0 -61 24q-60 50 -81 152q-11 54 -15 177q-3 78 -3 184q0 8 -1 25t-1 25q0 6 2 17.5t2 17.5q0 22 -20 28.5t-20 24.5q0 10 18 19l28 12q65 43 84 43q7 0 17 -13.5t10 -21.5v-3q-23 -66 -23 -96q0 -49 2 -147.5t2 -147.5 q0 -88 1 -100q3 -63 17 -96q25 -57 78 -59q10 0 40 30q34 34 61 78l2 198q0 49 -2 107q-1 52 -1 137q0 28 -5 31q-10 1 -26 7q-8 9 -8 22q0 11 17 18q27 12 28 13q60 43 85 43q5 0 7 -2q25 -25 19 -36q-21 -44 -21 -96v-144q1 -84 1 -100q0 -255 10 -287q3 -11 18 -18 q20 -10 25 -15t5 -9q0 -7 -13 -18q-2 -1 -31 -4q-10 -2 -25 3t-24 5q-8 0 -21 -4.5t-22 -3.5q-9 0 -23 8v18q0 7 2 18t2 23v29z" />
<glyph unicode="v" horiz-adv-x="513" d="M486 683q-24 -48 -20 -96q3 -45 2 -77l-2 -70q-4 -108 -50 -226q-36 -95 -89 -171q-46 -68 -65 -68t-66 68q-52 76 -89 171q-46 118 -49 226l-3 69v78q1 28 -5 31q-10 1 -25 7q-9 9 -9 22q1 11 18 18q26 11 28 13q58 43 85 43q5 0 8 -2q24 -25 19 -36q-23 -46 -23 -96 v-102q0 -126 43 -288q41 -157 68 -157t66 152q40 159 40 293v102q0 28 -4 31q-11 1 -26 7q-9 9 -8 22q0 11 17 18q25 12 27 13q58 43 85 43q5 0 8 -2q24 -25 19 -36z" />
<glyph unicode="w" horiz-adv-x="761" d="M385 144q-35 -72 -73 -123q-36 -47 -50 -46q-28 2 -75 69q-49 73 -84 171q-42 115 -45 225l-3 69v78q-1 15 -5 31q-10 1 -25 7q-9 9 -9 22q0 11 18 18q27 12 28 13q61 43 85 43q5 0 8 -2q24 -25 19 -36q-23 -46 -23 -96v-102q0 -126 43 -288q41 -157 68 -157q17 0 42 49 q28 55 46 139q-41 110 -45 212l-2 69v78q-1 15 -5 31q-10 1 -25 7q-9 9 -9 22q0 11 17 18q28 12 29 13q61 43 85 43q5 0 8 -2q24 -25 19 -36q-23 -46 -23 -96v-102q0 -126 42 -288q41 -157 68 -157q28 0 66 152q41 159 41 293v102q0 28 -5 31q-10 1 -25 7q-9 9 -9 22 q0 11 17 18q27 12 28 13q60 43 85 43q5 0 8 -2q24 -25 19 -36q-24 -48 -21 -96q3 -45 3 -77l-3 -70q-3 -108 -49 -226q-36 -95 -89 -171q-46 -68 -66 -68q-14 0 -50 46q-39 51 -74 123z" />
<glyph unicode="x" d="M260 332q-76 -68 -92 -125q-7 -26 -7 -137q0 -7 2 -25q1 -12 0 -22t-9 -27q-4 -3 -21 -4q-8 -1 -21 3.5t-21 4.5q-13 -5 -43 -8q-14 0 -32 8q-2 5 0 18q2 10 23.5 20t21.5 21q0 198 178 298q-118 64 -147 105q-25 36 -25 125q0 19 -5 31l-25 7l-9 22q0 12 56 42.5 t72 30.5q17 0 30 -37q-24 -49 -24 -96q0 -95 7 -111q11 -26 92 -96q81 70 93 96q7 17 7 111q0 27 -1 31l-27 7q-7 19 -7 22q0 12 55.5 42.5t70.5 30.5q18 0 30 -37q-19 -40 -22 -61v-35q0 -75 -38 -125t-140 -106q112 -63 147 -136q25 -51 25 -161q3 -12 18 -19 q20 -10 25 -14.5t5 -9.5q0 -6 -13 -16q-2 -2 -31 -5q-9 -1 -24 4t-25 5q-5 -1 -14 -5t-18 -4t-22 9v16q0 9 2 23.5t2 26.5q0 111 -7 137q-16 57 -92 125z" />
<glyph unicode="y" d="M491 682q-23 -45 -23 -95v-101q0 -195 -58 -433q-66 -273 -169 -398q-9 -2 -31 7q60 115 111 342q-78 15 -168 87q-62 51 -83 170q-15 82 -15 246q0 -3 -2 38q-1 25 2 42q4 24 -5 31q-9 0 -25 7q-9 7 -9 21t15.5 20t30.5 12q75 43 86 43q4 0 7 -3q24 -25 19 -36 q-23 -46 -23 -95q0 -60 2 -123t2 -78q0 -154 17 -195q48 -111 142 -148q12 1 18 11q40 194 40 334q0 3 -1 55.5t-1 84.5q0 46 2 59q4 24 -5 31q-9 0 -25 7q-9 7 -9 21t15.5 20t30.5 12q75 43 86 43q4 0 6 -3q25 -25 20 -36z" />
<glyph unicode="z" horiz-adv-x="429" d="M388 38q0 -68 -162 -191q-80 -61 -249 -166l-14 23q185 138 214 164q102 91 102 160q0 35 -59 57q-46 17 -89 17q-4 0 -25 -6.5t-27 -7.5l-15 22q88 173 130 273q66 156 98 299h-101q-36 0 -66 -38q-19 -23 -40 -69q-17 -37 -21 -37q-9 0 -25 51q-14 46 -14 59q0 35 5 48 q8 23 34 23h268q24 0 31 -2q15 -3 15 -17q0 -101 -74 -276q-63 -147 -138 -261q83 0 141 -23q81 -32 81 -102z" />
<glyph unicode="{" horiz-adv-x="304" d="M304 1022q-1 -7 -33 -37q-38 -38 -58 -71q-31 -53 -31 -116v-169q-1 -170 -1 -168q0 -54 -15 -71.5t-32 -34.5q16 -20 32 -39q13 -22 13 -77q0 -10 1 -169q1 -145 1 -168q0 -63 31 -116q19 -34 57 -72q32 -31 32 -38l-13 -20q-95 76 -140 135q-65 84 -65 171 q0 43 1.5 150t1.5 166q0 27 -46 74q16 15 32 32t16 36q0 60 -1.5 167t-1.5 151q0 86 65 170q45 58 140 135z" />
<glyph unicode="|" horiz-adv-x="187" d="M139 827q8 -1 8 -174q0 -223 -12 -641l-50 -9q3 123 3 255q0 487 -39 539q-9 12 -9 20q0 16 37 16q17 0 62 -6z" />
<glyph unicode="}" horiz-adv-x="304" d="M264 352q-47 -47 -47 -74q0 -59 2 -166t2 -150q0 -87 -65 -171q-45 -59 -140 -135l-14 20q1 7 32 38q38 38 58 72q30 53 30 116q0 23 2 168q1 159 1 169q0 55 13 77q16 19 31 39q-16 17 -31.5 34.5t-15.5 71.5q0 -2 0 168q-1 144 -1 169q0 63 -31 116q-19 33 -58 71 q-31 30 -32 37l13 21q96 -77 140 -135q65 -84 65 -170q0 -44 -1 -151t-1 -167q0 -19 16 -36t32 -32z" />
<glyph unicode="~" horiz-adv-x="549" d="M509 913q-33 -60 -78 -111q-59 -65 -98 -65q-23 0 -77 65t-73 65q-45 0 -100 -77q-8 -18 -25 -36l-18 16q33 60 79 111q58 65 97 65q29 0 79.5 -65t70.5 -65q40 0 94 77q11 18 31 37z" />
<glyph unicode="&#xa1;" horiz-adv-x="214" d="M172 923q-1 -7 -6 -18t-5 -23q0 -23 -2 -204q-2 -169 -2 -208q0 -27 -1 -114q-1 -94 -1 -120.5t-43 -25.5q-40 2 -40 28t-4 115.5t-4 116.5q0 383 -10 414q-1 3 -1 5v0q-1 2 0 15q0 6 -9 14q-4 5 -4 10q0 7 12 16q5 4 21 5q8 1 20.5 -4t20.5 -4q6 0 16 4.5t19 3.5 q9 0 23 -8q1 -3 0 -18zM175 68q0 -22 -11 -41h-1q-2 0 -11.5 -8.5t-11.5 -9.5q-33 -18 -49 -18q-40 0 -40 43q0 5 16 40q-1 5 4 17q17 16 34 20q4 1 36 4q34 2 34 -47z" />
<glyph unicode="&#xa2;" horiz-adv-x="434" d="M208 137q-3 397 -9 553q-53 -27 -53 -172q0 -119 9 -184q12 -100 51 -192zM258 825q5 -1 7 -91q32 -6 79 -37q51 -34 51 -55q0 -16 -13 -58q-15 -46 -24 -46q-2 0 -31 54q-34 61 -61 85q3 -280 -10 -631q8 -13 51 -81l-14 -20q-21 17 -39 32q-7 -141 -13 -176 q-6 -1 -13.5 -6t-16.5 -3q0 22 -2 226q-89 87 -129 177.5t-40 210.5q0 90 27 169q40 120 130 150q-3 59 -6 74q-2 8 -2 15q0 19 21 19q3 0 48 -8z" />
<glyph unicode="&#xa3;" horiz-adv-x="537" d="M477 882q0 -16 -13 -58q-14 -46 -24 -46q-2 0 -25 41q-28 49 -49 76q-33 41 -60 41q-51 1 -60 -67l-2 -110l-12 -196h189l34 -32q1 -19 -12 -25q-5 -2 -18 4q-16 6 -23 6q5 0 -55.5 4t-99.5 4h-19l-2 -105h195l34 -32q1 -19 -12 -25q-5 -2 -18 4q-16 6 -23 6q5 0 -55.5 4 t-99.5 4q-1 0 -25 -1l1 -268q1 -45 -23 -75h130q37 0 67 38q19 23 39 69q17 37 21 37q10 0 25 -51q15 -46 15 -59q0 -35 -5 -48q-8 -23 -35 -23h-405l4 37h17q46 8 45 43q0 161 2 295l-29 -2q-7 0 -21.5 -6t-19.5 -4q-14 6 -10 25l32 32h50q1 53 3 99l-34 -2q-7 0 -21.5 -6 t-19.5 -4q-14 6 -10 25l32 32h56q3 49 7 84q12 112 14 122q16 89 54 139q50 67 137 66q26 0 81.5 -34.5t55.5 -57.5z" />
<glyph unicode="&#xa4;" horiz-adv-x="521" d="M455 272q1 -19 -12 -25q-5 -2 -18 3q-16 6 -23 6q4 0 -52 4q-59 4 -97 5q14 -62 40 -123q19 -46 61 -116q20 -30 39 -61l-14 -20q-193 155 -236 315l-52 -4q-7 0 -21.5 -5.5t-19.5 -3.5q-14 6 -10 25l32 31h62q-8 47 -8 100l-35 -3q-7 0 -21.5 -5.5t-19.5 -3.5 q-14 6 -10 25l32 31h56q8 109 48 182q58 105 168 105q27 0 82 -34.5t55 -57.5q0 -16 -13 -58q-14 -46 -24 -46q-2 0 -24 41q-26 49 -47 76q-32 41 -59 41q-81 0 -81 -178v-71h188l34 -31q1 -19 -12 -25q-5 -2 -18 3q-16 6 -23 6q8 0 -54 4.5t-101 4.5h-12q3 -58 11 -106h1 h174z" />
<glyph unicode="&#xa5;" horiz-adv-x="579" d="M495 167q2 -20 -12 -26q-5 -2 -19 4t-21 6q1 0 -35 3q-40 2 -72 4q2 -84 8 -102q4 -11 18 -18q20 -10 25 -15t5 -10q0 -7 -12 -17q-1 0 -31 -4q-14 -2 -34 3t-31 5q-12 0 -31.5 -4.5t-27.5 -3.5q-14 0 -33 8q-2 4 0 18q2 10 23.5 20t21.5 21q0 23 1 99q-32 -2 -72 -5 q-35 -2 -34 -2q-7 0 -21.5 -6t-19.5 -4q-14 6 -11 26l33 31h126l1 80q0 10 -4 24q-32 -2 -71 -5q-34 -2 -33 -2q-7 0 -21.5 -6t-19.5 -4q-14 6 -11 26l33 31h105q-131 144 -131 338v97q0 78 -9 107q-4 12 -18 19q-20 10 -25 15t-5 10q0 7 12 16q1 2 31 5q14 2 33.5 -3 t31.5 -5t31.5 4.5t27.5 3.5q14 0 33 -8q2 -4 0 -18q-2 -10 -23.5 -20t-21.5 -21q0 -26 -2 -47t-2 -50v-60q-1 -122 42 -252q39 -121 68 -121q28 0 66 101q42 112 42 230q0 21 -1 42l8 54q0 80 -8 105q-4 12 -19 19q-20 10 -25 15t-5 10q0 7 12 16q2 2 32 5q13 2 33 -3t32 -5 t31 4.5t28 3.5q14 0 32 -8q3 -4 0 -18q-1 -10 -22.5 -20t-21.5 -21t-5 -104l-5 -98q-8 -157 -96 -288q-4 -5 -5 -9v1v0q-1 -2 -5 -7q-8 -11 -23 -30l-4 -5h100l33 -31q2 -20 -12 -26q-5 -2 -19 4t-21 6q1 0 -33 2q-39 3 -70 5q-6 -14 -6 -24q0 -34 1 -80h127z" />
<glyph unicode="&#xa6;" horiz-adv-x="199" d="M140 827q9 -1 9 -88q0 -115 -13 -333l-66 -9q-2 93 -4 167q-6 177 -15 233q-6 33 48 33q16 0 41 -3zM145 241q0 -114 -12 -326l-49 -9l-20 418q24 7 52 7q11 0 20 -1t9 -89z" />
<glyph unicode="&#xa7;" horiz-adv-x="420" d="M256 306q43 60 43 128q0 15 -7 32q-58 93 -100 93t-42 -92q0 -53 106 -161zM380 504q0 -80 -111 -211q57 -58 77 -82q34 -43 34 -70q0 -77 -110 -201q-88 -100 -185 -168l-14 18q1 6 54 53q65 58 98 100q53 68 53 123q0 47 -62 116q-56 59 -113 118q-61 67 -61 109 q0 53 44.5 108.5t104.5 71.5q-85 76 -101 94q-48 52 -48 89q0 61 56 121q59 64 127 64q27 0 82.5 -31t55.5 -52q0 -13 -14 -51q-14 -42 -24 -42q-2 0 -24 37q-27 44 -48 68q-32 36 -59 36q-42 0 -42 -93q0 -42 60 -111q55 -58 111 -116q59 -64 59 -98z" />
<glyph unicode="&#xa8;" horiz-adv-x="407" d="M163 905q0 -22 -11 -41h-1q-1 0 -11 -8.5t-12 -9.5q-32 -18 -49 -18q-39 0 -39 43q0 6 15 40q0 5 5 17q16 16 33 20q4 1 37 4q33 2 33 -47zM367 905q0 -22 -11 -41h-1q-1 0 -11 -8.5t-12 -9.5q-32 -18 -49 -18q-39 0 -39 43q0 6 15 40q0 5 5 17q16 16 33 20q4 1 37 4 q33 2 33 -47z" />
<glyph unicode="&#xa9;" horiz-adv-x="593" d="M553 535q0 -103 -47 -216q-42 -101 -104 -172t-106 -71q-41 0 -103 70.5t-105 170.5q-48 114 -48 218q0 111 71 198q76 93 185 93q110 0 186 -93q71 -87 71 -198zM504 533q0 94 -56 168q-61 81 -150 82q-90 0 -152 -81q-56 -75 -56 -169q0 -96 42 -201q35 -89 87 -154 q49 -62 79 -62q28 0 78.5 66.5t86.5 156.5q41 105 41 194zM399 673q0 -11 -9 -41t-16 -30q2 0 -30.5 53.5t-57.5 53.5q-56 0 -56 -120q0 -157 41 -257q17 -40 69 -120l-10 -14q-93 75 -132 144q-40 73 -40 170q0 73 25 132q38 92 123 92q18 0 55.5 -24t37.5 -39z" />
<glyph unicode="&#xaa;" horiz-adv-x="228" d="M185 697q-7 -5 -19 -1q-7 2 -11 1q-6 -2 -10 -2q-5 0 -11 5q-2 4 0 13v3q1 3 1 15q-38 -39 -56 -39q-39 0 -39 65q0 46 23 82t68 48q1 11 -4 27q0 2 -7 7.5t-10 6.5q-9 2 -23.5 -25.5t-16.5 -27.5q-4 0 -10.5 17t-6.5 23q0 10 21 23q17 11 27 12q8 1 33 0q43 -1 43 -79 q0 -2 -1 -28v-48q0 -66 2 -73l9 -9q8 -7 -2 -16zM135 812q0 37 -2 56q-53 -31 -53 -104q0 -43 14 -43q10 0 41 43v48z" />
<glyph unicode="&#xab;" horiz-adv-x="536" d="M317 453q-1 -7 -34 -40q-52 -55 -169 -172l195 -226l-30 -20l-239 245q188 176 193 205q7 34 31 34q9 0 24 -5q21 -7 22 -8q8 -2 7 -13zM497 453q-1 -7 -34 -40q-52 -55 -169 -172l195 -226l-30 -20l-239 245q188 176 193 205q7 34 31 34q9 0 24 -5q21 -7 22 -8 q8 -2 7 -13z" />
<glyph unicode="&#xac;" horiz-adv-x="739" d="M609 272q-208 7 -242 7q-37 0 -159.5 -4t-116.5 -4q-7 0 -21.5 -6t-19.5 -4q-14 6 -10 26l32 31l614 -9q13 -2 13 -85q0 -91 -15 -178q-7 0 -14.5 -5t-15.5 -3q-2 56 -17 123q-14 56 -28 111z" />
<glyph unicode="&#xad;" horiz-adv-x="402" d="M360 385q3 -5 3 -11q0 -23 -15 -34q-2 -1 -4 -1q-4 0 -17 9t-20 9q7 0 -30 7.5t-75 7.5t-76 -7.5t-31 -7.5q-7 0 -20 -9t-17 -9q-2 0 -4 1q-14 11 -14 33q0 7 3 12l33 55h250z" />
<glyph unicode="&#xae;" horiz-adv-x="593" d="M553 535q0 -103 -47 -216q-42 -101 -104 -172t-106 -71q-41 0 -103 70.5t-105 170.5q-48 114 -48 218q0 111 71 198q76 93 185 93q110 0 186 -93q71 -87 71 -198zM285 273q4 -4 -4 -13q-1 -1 -10 -2q-10 2 -32 4q-6 0 -15.5 -2t-13.5 -2t-11 4q-1 3 0 9q1 5 9 10t8 10 q0 11 1 100q1 82 1 101q0 188 -5 203q-2 6 -6 9q-9 6 -10 7q-6 6 3 13q2 2 11 3h60q1 0 4 -1q8 1 20 1q118 0 118 -117q0 -68 -73 -123q63 -42 62 -126q0 -46 1 -56q3 -31 18 -54q83 149 83 282q0 94 -56 168q-61 81 -150 82q-90 0 -152 -81q-56 -75 -56 -169q0 -96 42 -201 q35 -89 87 -154q49 -62 79 -62q41 0 112 116q-54 42 -53 129q1 74 -24 108q-4 3 -7 3q-3 1 -8 -1q-17 -11 -40 -24l-7 7q19 18 55 62q35 58 35 134q0 20 -11 36q-14 21 -40 21q-15 0 -33 -1q-12 -8 -12 -12v-101q-1 -83 -1 -102q0 -186 4 -201q2 -6 7 -9q8 -6 10 -8z" />
<glyph unicode="&#xaf;" horiz-adv-x="398" d="M359 928q1 -20 -12 -26q-5 -2 -18 4q-16 6 -23 6q6 0 -31 4t-76 4q-38 0 -76 -4t-32 -4q-7 0 -21.5 -6t-19.5 -4q-14 6 -10 26l32 31h253z" />
<glyph unicode="&#xb0;" horiz-adv-x="377" d="M337 822q0 -50 -49.5 -98t-99.5 -48t-99 48t-49 98q0 51 43.5 87.5t104.5 36.5q62 0 105.5 -36.5t43.5 -87.5zM288 821q0 81 -98 81q-47 0 -73.5 -21.5t-26.5 -59.5t32 -72t68 -34q35 0 66.5 33.5t31.5 72.5z" />
<glyph unicode="&#xb1;" horiz-adv-x="506" d="M290 561q15 -2 13 -183h130l34 -31q1 -20 -12 -26q-5 -2 -18 4q-16 6 -23 6q1 0 -36 3q-42 3 -75 4q-3 -140 -15 -208q-7 0 -14.5 -5t-15.5 -3q-2 73 -19 217q-37 -1 -88 -4.5t-48 -3.5q-7 0 -21.5 -6t-19.5 -4q-14 6 -10 26l32 31h151q-5 38 -17 104q-9 52 -9 65 q0 22 27 22q9 0 54 -8zM455 23q2 -20 -12 -26q-5 -2 -18 4q-16 6 -23 6q6 0 -55 4t-100 4q-38 0 -100 -4t-56 -4q-7 0 -21.5 -6t-19.5 -4q-14 6 -10 26l32 31h349z" />
<glyph unicode="&#xb2;" horiz-adv-x="350" d="M300 437q0 -42 -24 -42h-209l-6 -4l-11 36q178 202 178 313q0 67 -41 67q-44 0 -104 -98q-8 3 -13 26q-5 19 -5 32q0 17 42 43q39 25 58 25q115 0 115 -110q0 -18 -3 -42q-6 -57 -178 -266h101q30 0 53.5 43t22.5 43q6 0 15 -29t9 -37z" />
<glyph unicode="&#xb3;" horiz-adv-x="355" d="M286 740q0 -78 -34 -128q-24 -37 -77 -69q3 -1 5 -2q127 -27 125 -103q-1 -42 -98 -122q-68 -57 -149 -107l-8 13q88 67 128 106q61 61 61 103q0 33 -35 55q-28 19 -53 19q-3 0 -15.5 -4t-16.5 -5l-9 14q5 7 9 12l-2 2q70 51 91 91t21 124q0 70 -49 70q-22 0 -31 -3 q-23 -8 -41 -45.5t-19 -37.5q-6 0 -15 29t-9 37q0 43 24 43h73q80 0 99 -11q25 -15 25 -81z" />
<glyph unicode="&#xb4;" horiz-adv-x="378" d="M337 922q18 -4 -274 -215l-23 13q83 73 219 199q19 18 32 18q6 0 20.5 -6.5t25.5 -8.5z" />
<glyph unicode="&#xb5;" horiz-adv-x="574" d="M371 88q-25 -44 -61 -78q-42 -38 -75 -38t-61 24l-2 2q2 -158 9 -180q4 -12 19 -19q20 -10 25 -15t5 -9q0 -7 -12 -17q-1 -1 -32 -5q-14 -2 -32 3q-21 5 -33 5t-31.5 -4.5t-27.5 -3.5q-14 0 -32 8q-3 5 0 18q1 10 22.5 20t21.5 21q0 22 2 198q2 170 2 202q-1 94 -3 312 v10.5v9.5q0 28 -1 21v15q0 27 -5 29.5t-15 8.5l-1 2q-6 1 -11.5 5.5t-5.5 13.5q0 11 15 18.5t29 13.5q59 42 86 42q6 0 8 -2l2 -2q18 -15 18 -31q1 -3 0 -3q-22 -66 -22 -96q0 -49 1.5 -147.5t1.5 -147.5q0 -88 1 -100q3 -63 17 -96q25 -57 78 -59q10 0 40 30q34 34 61 78 l3 198q-1 49 -2 107q-2 52 -2 137q0 28 -5 31q-10 1 -25 7q-9 9 -9 22q0 11 17 18q27 12 28 13q60 43 85 43q5 0 7 -2q25 -25 20 -36q-22 -44 -22 -96q0 -60 1 -144v-100q0 -226 10 -287q18 -111 57 -155l-22 -22q-25 11 -47 30q-54 44 -83 118q-12 28 -12 61z" />
<glyph unicode="&#xb6;" horiz-adv-x="743" d="M474 911q-7 -5 -14.5 -10.5t-10.5 -16.5q-10 -30 -10 -414q0 -38 2 -208q2 -180 2 -203q0 -11 21.5 -21t23.5 -20q2 -14 0 -18q-5 -8 -33 -8q-8 -1 -27.5 3.5t-31.5 4.5t-31.5 -5t-33.5 -3q-12 -1 -31 4q-12 10 -12 17q0 5 5 10t24 15q15 7 19 18q9 31 10 411 q0 39 -2 210q-2 182 -2 205q0 9 -9 15.5t-18 12.5h-63q-54 0 -83 -43q-23 -34 -23 -74q0 -155 72 -273q29 -47 113 -128l-14 -15q-144 83 -206 153q-71 81 -71 180q0 239 242 239h388q12 1 31 -5q12 -9 12 -16q0 -5 -5 -10t-25 -15q-15 -7 -18 -19q-10 -30 -10 -414 q0 -38 2 -208q2 -180 2 -203q0 -11 21.5 -21t23.5 -20q2 -14 0 -18q-5 -8 -33 -8q-8 -1 -27.5 3.5t-31.5 4.5t-31.5 -5t-33.5 -3q-3 0 -1 0q3 1 0 4q-12 10 -12 17q0 5 4 10q9 9 10 15l4 18q9 31 10 411q0 39 -2 210q-2 182 -2 205q0 10 -10 16.5t-19 12.5h-55z" />
<glyph unicode="&#xb8;" horiz-adv-x="202" d="M143 -116q-18 -43 -162 -69l6 29q24 6 42 12q44 14 50 28q4 8 4 18q0 16 -16.5 46.5t-16.5 44.5q0 8 3 16q13 29 29 60l38 -16q-6 -14 -17 -38q-3 -6 -3 -12v0q0 -11 30 -53q26 -36 13 -66z" />
<glyph unicode="&#xb9;" horiz-adv-x="217" d="M167 399q7 -6 -4 -16q-1 0 -19 -2q-12 2 -39 5q-7 0 -19 -3t-16 -2q-9 0 -20 5q-1 2 0 10q1 6 14 12t13 13q0 14 1 82t1 87q0 29 -1 70q-1 36 -1 88q0 16 -3 18h-13q-11 -1 -11 5q0 1 10 12.5t20 18.5q35 26 45 26q9 0 13.5 -9t2.5 -14q-7 -13 -7 -57q0 -36 1 -92v-66 q0 -152 6 -171q2 -7 12.5 -12t13.5 -8z" />
<glyph unicode="&#xba;" horiz-adv-x="230" d="M115 689q-16 0 -45 44q-33 51 -30 105q6 112 75 112q40 0 61 -40q15 -30 15 -73q0 -57 -32 -106q-27 -42 -44 -42zM145 887q-4 41 -30 41t-29 -41q-1 -9 -2 -25q-3 -43 9 -92.5t22 -49.5q11 0 23 48.5t8 93.5q0 8 -1 25z" />
<glyph unicode="&#xbb;" horiz-adv-x="519" d="M479 249l-224 -251l-34 6l183 243q-166 150 -177 173q-7 15 -7 27q0 20 17 24q10 1 42 -5q5 -1 200 -217zM299 249l-224 -251l-34 6l183 243q-166 150 -177 173q-7 15 -7 27q0 20 17 24q10 1 42 -5q5 -1 200 -217z" />
<glyph unicode="&#xbc;" horiz-adv-x="553" d="M446 825q18 -3 -373 -855l-23 20q83 212 144 371q147 382 161 438q9 34 41 34q6 0 50 -8zM178 399q6 -6 -5 -16q-1 0 -19 -2q-12 2 -39 5q-7 0 -18.5 -3t-16.5 -2q-8 0 -20 5q-1 2 0 10q1 6 14 12t13 13q0 14 1.5 82t0.5 87q0 29 -1 70q-1 36 -1 88q0 16 -3 18h-13 q-10 -1 -10 5q0 1 9.5 12.5t20.5 18.5q34 26 45 26q9 0 13.5 -9t1.5 -14q-6 -13 -6 -57v-92q1 -57 1 -66q0 -152 5 -171q3 -7 11 -11q12 -6 16 -9zM501 -129q6 -6 -4 -16q-1 0 -19 -3q-9 3 -33 5q-7 0 -19 -2.5t-16 -2.5q-9 0 -20 5q-1 3 0 11q1 6 14 12t13 13q0 15 1 108 h-177l-18 8q8 16 16 35q18 46 30 103q22 101 22 148q0 18 -2 38h9q38 0 41 -17q1 -8 1 -19q0 -50 -27 -173q-1 -14 -23 -89q32 -2 128 -2l1 99q0 26 -1 102q-1 67 -1 120q0 15 -3 18q-6 1 -15 5q-5 5 -5 12q0 6 10 11l16 8q36 26 46 26q9 0 14 -9t2 -14q-14 -28 -14 -57 q0 -37 1 -124v-98v-98l43 1l3 -34h-45q1 -96 5 -110q2 -7 12.5 -12t13.5 -8z" />
<glyph unicode="&#xbd;" horiz-adv-x="574" d="M447 825q17 -3 -374 -855l-23 20q83 212 144 371q147 382 161 438q9 34 42 34q5 0 50 -8zM167 399q7 -6 -4 -16q-1 0 -19 -2q-12 2 -39 5q-7 0 -19 -3t-16 -2q-9 0 -20 5q-1 2 0 10q1 6 14 12t13 13q0 14 1 82t1 87q0 29 -1 70q-1 36 -1 88q0 16 -3 18h-13q-11 -1 -11 5 q0 1 10 12.5t20 18.5q35 26 45 26q9 0 13.5 -9t2.5 -14q-7 -13 -7 -57q0 -36 1 -92v-66q0 -152 6 -171q2 -7 12.5 -12t13.5 -8zM524 37q0 -42 -24 -42h-209l-7 -4l-10 36q178 202 178 313q0 67 -41 67q-45 0 -104 -98q-8 3 -14 26q-4 19 -4 32q0 17 40.5 42.5t59.5 25.5 q114 0 114 -110q0 -18 -2 -42q-6 -57 -178 -266h100q30 0 54 43t23 43q5 0 14.5 -29t9.5 -37z" />
<glyph unicode="&#xbe;" horiz-adv-x="687" d="M580 825q18 -3 -374 -855l-22 20q83 212 144 371q147 382 161 438q9 34 41 34q6 0 50 -8zM635 -129q6 -6 -4 -16q-1 0 -19 -3q-9 3 -33 5q-7 0 -19 -2.5t-17 -2.5q-8 0 -19 5q-2 3 0 11q1 6 14 12t13 13q0 15 1 108h-178l-17 8q8 16 16 35q17 46 30 103q22 101 22 148 q0 18 -2 38h9q38 0 41 -17q1 -8 1 -19q0 -50 -27 -173q-1 -14 -23 -89q32 -2 128 -2l1 99q0 26 -1 102q-1 67 -1 120q0 15 -3 18q-6 1 -16 5q-5 5 -5 12q0 6 10 11l17 8q35 26 46 26q9 0 13.5 -9t2.5 -14q-14 -28 -14 -57q0 -37 1 -124v-98v-98l42 1l4 -34h-46q2 -96 6 -110 q2 -7 12.5 -12t13.5 -8zM286 740q0 -78 -34 -128q-24 -37 -77 -69q3 -1 5 -2q127 -27 125 -103q-1 -42 -98 -122q-68 -57 -149 -107l-8 13q88 67 128 106q61 61 61 103q0 33 -35 55q-28 19 -53 19q-3 0 -15.5 -4t-16.5 -5l-9 14q5 7 9 12l-2 2q70 51 91 91t21 124 q0 70 -49 70q-22 0 -31 -3q-23 -8 -41 -45.5t-19 -37.5q-6 0 -15 29t-9 37q0 43 24 43h73q80 0 99 -11q25 -15 25 -81z" />
<glyph unicode="&#xbf;" horiz-adv-x="472" d="M432 766q0 -63 -51 -134l-96 -122q-51 -74 -51 -144.5t-14 -155.5h-26q-26 182 -26 242q0 50 40 106q37 48 75 96q40 61 40 125q0 86 -26 116q-18 21 -62 21q-35 0 -73 -48q-25 -30 -55 -88q-25 -47 -28 -47q-13 0 -27 48q-12 43 -12 64q0 31 60.5 76t93.5 45 q96 0 165 -57q73 -58 73 -143zM269 68q0 -22 -10 -41h-2q-1 0 -10.5 -8.5t-11.5 -9.5q-33 -18 -50 -18q-39 0 -39 43q0 5 15 40q0 5 5 17q16 16 34 20q3 1 36 4q33 2 33 -47z" />
<glyph unicode="&#xc0;" horiz-adv-x="600" d="M15 0zM435 277v112q0 101 -53 293t-78 192q-26 0 -79.5 -192t-55.5 -293l-1 -112h267zM585 5q-4 -8 -33 -9q-8 0 -27.5 4.5t-31.5 4.5t-31.5 -5t-33.5 -4q-12 0 -31 5q-12 10 -12 17q0 5 5 10t25 14q14 7 18 19q7 23 5 62q-3 72 -3 67v32q-30 9 -33 9q7 0 -33.5 4 t-82.5 4t-84 -4q-38 -4 -35 -4v0v-34q-1 -31 1 -69q2 -41 2 -64q0 -11 21.5 -21t23.5 -20q2 -14 0 -18q-4 -8 -33 -9q-8 0 -27.5 4.5t-31.5 4.5q-11 0 -31 -5t-33 -4q-13 0 -32 5q-12 10 -12 17q0 5 5 10t25 14q15 7 18 19q9 28 10 136l3 200q1 117 53 260q41 115 102 213 q54 89 73 89t73 -89q60 -98 102 -213q51 -143 53 -260l2 -201q0 -29 3 -67.5t3 -64.5q0 -11 21.5 -21t23.5 -20q2 -14 0 -18zM458 995l-30 -9q-69 45 -121 83q-122 93 -133 138q-2 8 -2 15q0 19 21 19q3 0 48 -8q18 -3 217 -238z" />
<glyph unicode="&#xc1;" horiz-adv-x="600" d="M15 0zM435 277v112q0 101 -53 293t-78 192q-26 0 -79.5 -192t-55.5 -293l-1 -112h267zM585 5q-4 -8 -33 -9q-8 0 -27.5 4.5t-31.5 4.5t-31.5 -5t-33.5 -4q-12 0 -31 5q-12 10 -12 17q0 5 5 10t25 14q14 7 18 19q7 23 5 62q-3 72 -3 67v32q-30 9 -33 9q7 0 -33.5 4 t-82.5 4t-84 -4q-38 -4 -35 -4v0v-34q-1 -31 1 -69q2 -41 2 -64q0 -11 21.5 -21t23.5 -20q2 -14 0 -18q-4 -8 -33 -9q-8 0 -27.5 4.5t-31.5 4.5q-11 0 -31 -5t-33 -4q-13 0 -32 5q-12 10 -12 17q0 5 5 10t25 14q15 7 18 19q9 28 10 136l3 200q1 117 53 260q41 115 102 213 q54 89 73 89t73 -89q60 -98 102 -213q51 -143 53 -260l2 -201q0 -29 3 -67.5t3 -64.5q0 -11 21.5 -21t23.5 -20q2 -14 0 -18zM437 1205q18 -4 -274 -215l-23 13q83 73 219 199q19 18 32 18q6 0 20.5 -6.5t25.5 -8.5z" />
<glyph unicode="&#xc2;" horiz-adv-x="600" d="M15 0zM435 277v112q0 101 -53 293t-78 192q-26 0 -79.5 -192t-55.5 -293l-1 -112h267zM585 5q-4 -8 -33 -9q-8 0 -27.5 4.5t-31.5 4.5t-31.5 -5t-33.5 -4q-12 0 -31 5q-12 10 -12 17q0 5 5 10t25 14q14 7 18 19q7 23 5 62q-3 72 -3 67v32q-30 9 -33 9q7 0 -33.5 4 t-82.5 4t-84 -4q-38 -4 -35 -4v0v-34q-1 -31 1 -69q2 -41 2 -64q0 -11 21.5 -21t23.5 -20q2 -14 0 -18q-4 -8 -33 -9q-8 0 -27.5 4.5t-31.5 4.5q-11 0 -31 -5t-33 -4q-13 0 -32 5q-12 10 -12 17q0 5 5 10t25 14q15 7 18 19q9 28 10 136l3 200q1 117 53 260q41 115 102 213 q54 89 73 89t73 -89q60 -98 102 -213q51 -143 53 -260l2 -201q0 -29 3 -67.5t3 -64.5q0 -11 21.5 -21t23.5 -20q2 -14 0 -18zM431.5 1053.5q13.5 -40.5 13.5 -59.5q0 -9 -3 -9q-5 0 -33 39q-35 48 -54 66.5t-53 49.5q-16 -15 -52 -49q-18 -19 -54 -67q-28 -39 -33 -39 q-3 0 -3 9q0 18 13 57q14 43 31 70q25 41 94 95q22 -16 41 -30q44 -36 61.5 -64t31 -68.5z" />
<glyph unicode="&#xc3;" horiz-adv-x="600" d="M15 0zM435 277v112q0 101 -53 293t-78 192q-26 0 -79.5 -192t-55.5 -293l-1 -112h267zM585 5q-4 -8 -33 -9q-8 0 -27.5 4.5t-31.5 4.5t-31.5 -5t-33.5 -4q-12 0 -31 5q-12 10 -12 17q0 5 5 10t25 14q14 7 18 19q7 23 5 62q-3 72 -3 67v32q-30 9 -33 9q7 0 -33.5 4 t-82.5 4t-84 -4q-38 -4 -35 -4v0v-34q-1 -31 1 -69q2 -41 2 -64q0 -11 21.5 -21t23.5 -20q2 -14 0 -18q-4 -8 -33 -9q-8 0 -27.5 4.5t-31.5 4.5q-11 0 -31 -5t-33 -4q-13 0 -32 5q-12 10 -12 17q0 5 5 10t25 14q15 7 18 19q9 28 10 136l3 200q1 117 53 260q41 115 102 213 q54 89 73 89t73 -89q60 -98 102 -213q51 -143 53 -260l2 -201q0 -29 3 -67.5t3 -64.5q0 -11 21.5 -21t23.5 -20q2 -14 0 -18zM538 1158q-33 -60 -78 -111q-59 -65 -98 -65q-23 0 -77 65t-73 65q-45 0 -100 -77q-8 -18 -25 -36l-18 16q33 60 79 111q58 65 97 65 q29 0 79.5 -65t70.5 -65q40 0 94 77q11 18 31 37z" />
<glyph unicode="&#xc4;" horiz-adv-x="600" d="M15 0zM435 277v112q0 101 -53 293t-78 192q-26 0 -79.5 -192t-55.5 -293l-1 -112h267zM585 5q-4 -8 -33 -9q-8 0 -27.5 4.5t-31.5 4.5t-31.5 -5t-33.5 -4q-12 0 -31 5q-12 10 -12 17q0 5 5 10t25 14q14 7 18 19q7 23 5 62q-3 72 -3 67v32q-30 9 -33 9q7 0 -33.5 4 t-82.5 4t-84 -4q-38 -4 -35 -4v0v-34q-1 -31 1 -69q2 -41 2 -64q0 -11 21.5 -21t23.5 -20q2 -14 0 -18q-4 -8 -33 -9q-8 0 -27.5 4.5t-31.5 4.5q-11 0 -31 -5t-33 -4q-13 0 -32 5q-12 10 -12 17q0 5 5 10t25 14q15 7 18 19q9 28 10 136l3 200q1 117 53 260q41 115 102 213 q54 89 73 89t73 -89q60 -98 102 -213q51 -143 53 -260l2 -201q0 -29 3 -67.5t3 -64.5q0 -11 21.5 -21t23.5 -20q2 -14 0 -18zM260 1096q0 -22 -11 -41h-1q-1 0 -11 -8.5t-12 -9.5q-32 -18 -49 -18q-39 0 -39 43q0 6 15 40q0 5 5 17q16 16 33 20q4 1 37 4q33 2 33 -47z M464 1096q0 -22 -11 -41h-1q-1 0 -11 -8.5t-12 -9.5q-32 -18 -49 -18q-39 0 -39 43q0 6 15 40q0 5 5 17q16 16 33 20q4 1 37 4q33 2 33 -47z" />
<glyph unicode="&#xc5;" horiz-adv-x="600" d="M15 0zM435 277v112q0 101 -53 293t-78 192q-26 0 -79.5 -192t-55.5 -293l-1 -112h267zM585 5q-4 -8 -33 -9q-8 0 -27.5 4.5t-31.5 4.5t-31.5 -5t-33.5 -4q-12 0 -31 5q-12 10 -12 17q0 5 5 10t25 14q14 7 18 19q7 23 5 62q-3 72 -3 67v32q-30 9 -33 9q7 0 -33.5 4 t-82.5 4t-84 -4q-38 -4 -35 -4v0v-34q-1 -31 1 -69q2 -41 2 -64q0 -11 21.5 -21t23.5 -20q2 -14 0 -18q-4 -8 -33 -9q-8 0 -27.5 4.5t-31.5 4.5q-11 0 -31 -5t-33 -4q-13 0 -32 5q-12 10 -12 17q0 5 5 10t25 14q15 7 18 19q9 28 10 136l3 200q1 117 53 260q41 115 102 213 q54 89 73 89t73 -89q60 -98 102 -213q51 -143 53 -260l2 -201q0 -29 3 -67.5t3 -64.5q0 -11 21.5 -21t23.5 -20q2 -14 0 -18zM448 1061q0 -50 -49.5 -98t-99.5 -48t-99 48t-49 98q0 51 43.5 87.5t104.5 36.5q62 0 105.5 -36.5t43.5 -87.5zM399 1060q0 81 -98 81 q-47 0 -73.5 -21.5t-26.5 -59.5t32 -72t68 -34q35 0 66.5 33.5t31.5 72.5z" />
<glyph unicode="&#xc6;" horiz-adv-x="890" d="M182 277h256l11 -9v121q0 101 -52.5 293t-78.5 192t-79.5 -192t-54.5 -293zM449 222q-30 9 -32 9q7 0 -34 4t-83 4t-82 -4t-36 -4v0l-1 -34q0 -31 2 -69q2 -41 2 -64q0 -11 21.5 -21t23.5 -20q2 -14 0 -18q-5 -8 -33 -9q-8 0 -27.5 4.5t-31.5 4.5t-31.5 -5t-33.5 -4 q-12 0 -31 5q-12 10 -12 17q0 5 5 10t24 14q15 7 19 19q9 28 10 136l2 200q2 117 53 260q42 115 102 213q54 89 73 89q4 0 10 -5h481q26 0 34 -23q5 -13 5 -48q0 -12 -14 -59q-16 -51 -25 -51q-4 0 -21 37q-21 46 -40 69q-30 38 -66 38h-322q46 -62 90 -156q53 -112 78 -219 h223l36 -40q2 -9 -3 -19t-10 -13t-20 4.5t-23 7.5q7 0 -32 5.5t-80 5.5q-35 0 -81 -6q8 -47 8 -90l3 -201q0 -29 2.5 -67.5t2.5 -64.5q0 -10 9 -16l18 -12h103q36 0 67 38q18 23 39 69q17 37 21 37q9 0 25 -51q15 -46 15 -59q0 -35 -5 -48q-9 -23 -35 -23h-229q-6 -2 -16 -3 q-6 0 -22 3q-12 3 -36 6q-12 0 -32 -5t-33 -4q-13 0 -32 5q-12 10 -12 17q0 5 5 10t25 14q15 7 19 19q7 23 5 62q-4 72 -4 67v32z" />
<glyph unicode="&#xc7;" horiz-adv-x="501" d="M40 0zM501 847q0 -23 -9 -59q-10 -44 -23 -44q-2 0 -35 45q-40 54 -69 83q-46 45 -80 45q-69 0 -105 -94q-26 -69 -26 -149q0 -170 8 -241q16 -133 70 -249q29 -60 95 -151l60 -78l-18 -27q-177 142 -252 275q-77 138 -77 324q0 143 47 260q74 180 237 180q34 0 104 -44 q73 -47 73 -76zM289 -129q-18 -43 -162 -69l6 29q24 6 42 12q44 14 50 28q4 8 4 18q0 16 -16.5 46.5t-16.5 44.5q0 8 3 16q13 29 29 60l38 -16q-6 -14 -17 -38q-3 -6 -3 -12v0q0 -11 30 -53q26 -36 13 -66z" />
<glyph unicode="&#xc8;" horiz-adv-x="530" d="M30 0zM491 70q0 -35 -5 -48q-9 -23 -35 -23h-252h-3h-124q-14 0 -33 8q-2 4 0 18q2 10 23.5 20t21.5 21q0 23 2 204q2 169 2 208q0 374 -10 405q-4 12 -19 19q-19 10 -24 15t-5 10q0 7 12 16q1 1 31 5h108v1h268q26 0 34 -22q5 -14 5 -49q0 -12 -14 -59q-16 -51 -25 -51 q-4 0 -21 37q-21 46 -40 70q-30 37 -66 37h-107q-2 -2 -18 -13q-12 -8 -12 -18q0 -23 -1 -145q-2 -153 -2 -194h209l36 -40q2 -9 -3 -19t-10 -13t-20 4.5t-23 7.5q7 0 -32 5.5t-80 5.5q-34 0 -78 -6v-9q0 -383 10 -414q3 -10 26 -28h107q36 0 67 38q18 23 39 69q17 37 21 37 q9 0 25 -51q15 -46 15 -59zM408 995l-30 -9q-69 45 -121 83q-122 93 -133 138q-2 8 -2 15q0 19 21 19q3 0 48 -8q18 -3 217 -238z" />
<glyph unicode="&#xc9;" horiz-adv-x="530" d="M30 0zM491 70q0 -35 -5 -48q-9 -23 -35 -23h-252h-3h-124q-14 0 -33 8q-2 4 0 18q2 10 23.5 20t21.5 21q0 23 2 204q2 169 2 208q0 374 -10 405q-4 12 -19 19q-19 10 -24 15t-5 10q0 7 12 16q1 1 31 5h108v1h268q26 0 34 -22q5 -14 5 -49q0 -12 -14 -59q-16 -51 -25 -51 q-4 0 -21 37q-21 46 -40 70q-30 37 -66 37h-107q-2 -2 -18 -13q-12 -8 -12 -18q0 -23 -1 -145q-2 -153 -2 -194h209l36 -40q2 -9 -3 -19t-10 -13t-20 4.5t-23 7.5q7 0 -32 5.5t-80 5.5q-34 0 -78 -6v-9q0 -383 10 -414q3 -10 26 -28h107q36 0 67 38q18 23 39 69q17 37 21 37 q9 0 25 -51q15 -46 15 -59zM427 1205q18 -4 -274 -215l-23 13q83 73 219 199q19 18 32 18q6 0 20.5 -6.5t25.5 -8.5z" />
<glyph unicode="&#xca;" horiz-adv-x="530" d="M30 0zM491 70q0 -35 -5 -48q-9 -23 -35 -23h-252h-3h-124q-14 0 -33 8q-2 4 0 18q2 10 23.5 20t21.5 21q0 23 2 204q2 169 2 208q0 374 -10 405q-4 12 -19 19q-19 10 -24 15t-5 10q0 7 12 16q1 1 31 5h108v1h268q26 0 34 -22q5 -14 5 -49q0 -12 -14 -59q-16 -51 -25 -51 q-4 0 -21 37q-21 46 -40 70q-30 37 -66 37h-107q-2 -2 -18 -13q-12 -8 -12 -18q0 -23 -1 -145q-2 -153 -2 -194h209l36 -40q2 -9 -3 -19t-10 -13t-20 4.5t-23 7.5q7 0 -32 5.5t-80 5.5q-34 0 -78 -6v-9q0 -383 10 -414q3 -10 26 -28h107q36 0 67 38q18 23 39 69q17 37 21 37 q9 0 25 -51q15 -46 15 -59zM401.5 1053.5q13.5 -40.5 13.5 -59.5q0 -9 -3 -9q-5 0 -33 39q-35 48 -54 66.5t-53 49.5q-16 -15 -52 -49q-18 -19 -54 -67q-28 -39 -33 -39q-3 0 -3 9q0 18 13 57q14 43 31 70q25 41 94 95q22 -16 41 -30q44 -36 61.5 -64t31 -68.5z" />
<glyph unicode="&#xcb;" horiz-adv-x="530" d="M30 0zM491 70q0 -35 -5 -48q-9 -23 -35 -23h-252h-3h-124q-14 0 -33 8q-2 4 0 18q2 10 23.5 20t21.5 21q0 23 2 204q2 169 2 208q0 374 -10 405q-4 12 -19 19q-19 10 -24 15t-5 10q0 7 12 16q1 1 31 5h108v1h268q26 0 34 -22q5 -14 5 -49q0 -12 -14 -59q-16 -51 -25 -51 q-4 0 -21 37q-21 46 -40 70q-30 37 -66 37h-107q-2 -2 -18 -13q-12 -8 -12 -18q0 -23 -1 -145q-2 -153 -2 -194h209l36 -40q2 -9 -3 -19t-10 -13t-20 4.5t-23 7.5q7 0 -32 5.5t-80 5.5q-34 0 -78 -6v-9q0 -383 10 -414q3 -10 26 -28h107q36 0 67 38q18 23 39 69q17 37 21 37 q9 0 25 -51q15 -46 15 -59zM230 1096q0 -22 -11 -41h-1q-1 0 -11 -8.5t-12 -9.5q-32 -18 -49 -18q-39 0 -39 43q0 6 15 40q0 5 5 17q16 16 33 20q4 1 37 4q33 2 33 -47zM434 1096q0 -22 -11 -41h-1q-1 0 -11 -8.5t-12 -9.5q-32 -18 -49 -18q-39 0 -39 43q0 6 15 40q0 5 5 17 q16 16 33 20q4 1 37 4q33 2 33 -47z" />
<glyph unicode="&#xcc;" horiz-adv-x="269" d="M0 0zM239 13q0 -6 -12 -17q-1 -1 -31 -4q-14 -2 -34 3t-31 5q-12 0 -31.5 -4.5t-27.5 -3.5q-14 0 -33 8q-2 4 0 18q2 10 23.5 20t21.5 21q0 23 2 203q2 170 2 208q0 383 -10 414q-4 12 -18 19q-20 10 -25 15t-5 10q0 7 12 16q1 2 31 5q14 2 33.5 -3t31.5 -5t31.5 4.5 t27.5 3.5q14 0 33 -8q2 -4 0 -18q-2 -10 -23.5 -20t-21.5 -21q0 -23 -2 -204q-2 -169 -2 -208q0 -382 10 -414q3 -11 18 -18q20 -10 25 -15t5 -10zM278 995l-30 -9q-69 45 -121 83q-122 93 -133 138q-2 8 -2 15q0 19 21 19q3 0 48 -8q18 -3 217 -238z" />
<glyph unicode="&#xcd;" horiz-adv-x="269" d="M0 0zM239 13q0 -6 -12 -17q-1 -1 -31 -4q-14 -2 -34 3t-31 5q-12 0 -31.5 -4.5t-27.5 -3.5q-14 0 -33 8q-2 4 0 18q2 10 23.5 20t21.5 21q0 23 2 203q2 170 2 208q0 383 -10 414q-4 12 -18 19q-20 10 -25 15t-5 10q0 7 12 16q1 2 31 5q14 2 33.5 -3t31.5 -5t31.5 4.5 t27.5 3.5q14 0 33 -8q2 -4 0 -18q-2 -10 -23.5 -20t-21.5 -21q0 -23 -2 -204q-2 -169 -2 -208q0 -382 10 -414q3 -11 18 -18q20 -10 25 -15t5 -10zM287 1205q18 -4 -274 -215l-23 13q83 73 219 199q19 18 32 18q6 0 20.5 -6.5t25.5 -8.5z" />
<glyph unicode="&#xce;" horiz-adv-x="269" d="M0 0zM239 13q0 -6 -12 -17q-1 -1 -31 -4q-14 -2 -34 3t-31 5q-12 0 -31.5 -4.5t-27.5 -3.5q-14 0 -33 8q-2 4 0 18q2 10 23.5 20t21.5 21q0 23 2 203q2 170 2 208q0 383 -10 414q-4 12 -18 19q-20 10 -25 15t-5 10q0 7 12 16q1 2 31 5q14 2 33.5 -3t31.5 -5t31.5 4.5 t27.5 3.5q14 0 33 -8q2 -4 0 -18q-2 -10 -23.5 -20t-21.5 -21q0 -23 -2 -204q-2 -169 -2 -208q0 -382 10 -414q3 -11 18 -18q20 -10 25 -15t5 -10zM261.5 1053.5q13.5 -40.5 13.5 -59.5q0 -9 -3 -9q-5 0 -33 39q-35 48 -54 66.5t-53 49.5q-16 -15 -52 -49q-18 -19 -54 -67 q-28 -39 -33 -39q-3 0 -3 9q0 18 13 57q14 43 31 70q25 41 94 95q22 -16 41 -30q44 -36 61.5 -64t31 -68.5z" />
<glyph unicode="&#xcf;" horiz-adv-x="269" d="M0 0zM239 13q0 -6 -12 -17q-1 -1 -31 -4q-14 -2 -34 3t-31 5q-12 0 -31.5 -4.5t-27.5 -3.5q-14 0 -33 8q-2 4 0 18q2 10 23.5 20t21.5 21q0 23 2 203q2 170 2 208q0 383 -10 414q-4 12 -18 19q-20 10 -25 15t-5 10q0 7 12 16q1 2 31 5q14 2 33.5 -3t31.5 -5t31.5 4.5 t27.5 3.5q14 0 33 -8q2 -4 0 -18q-2 -10 -23.5 -20t-21.5 -21q0 -23 -2 -204q-2 -169 -2 -208q0 -382 10 -414q3 -11 18 -18q20 -10 25 -15t5 -10zM90 1096q0 -22 -11 -41h-1q-1 0 -11 -8.5t-12 -9.5q-32 -18 -49 -18q-39 0 -39 43q0 6 15 40q0 5 5 17q16 16 33 20q4 1 37 4 q33 2 33 -47zM294 1096q0 -22 -11 -41h-1q-1 0 -11 -8.5t-12 -9.5q-32 -18 -49 -18q-39 0 -39 43q0 6 15 40q0 5 5 17q16 16 33 20q4 1 37 4q33 2 33 -47z" />
<glyph unicode="&#xd0;" horiz-adv-x="602" d="M87 440l1 39q0 374 -10 405q-4 12 -18 19q-20 10 -25 15t-5 10q0 7 12 16q1 1 31 5h110q23 0 59 -1.5t44 -1.5q163 0 232 -158q44 -100 44 -237q0 -117 -34 -231.5t-81 -166.5q-76 -85 -101 -105q-57 -45 -126 -48q-11 -1 -51 0h-97q-14 0 -33 8q-2 4 0 18q2 10 23.5 20 t21.5 21q0 2 3 303q-23 -3 -43.5 -8t-18.5 -5q-7 0 -20 -9t-17 -9q-2 0 -4 1q-14 11 -14 33q0 7 3 12l33 55h81zM290 385q3 -5 3 -11q0 -23 -15 -34q-2 -1 -4 -1q-4 0 -17 9t-20 9q1 0 -17 4.5t-39 7.5q0 -273 10 -304q4 -13 22 -25q78 28 127 86q16 18 54 82q54 92 54 490 q0 74 -26 131q-35 76 -104 76h-113q-20 -12 -20 -23q0 -26 -2 -199q-2 -180 -2 -204v-39h75z" />
<glyph unicode="&#xd1;" horiz-adv-x="642" d="M30 0zM239 13q0 -6 -12 -17q-1 -1 -31 -4q-14 -2 -34 3t-31 5q-12 0 -31.5 -4.5t-27.5 -3.5q-14 0 -33 8q-2 4 0 18q2 10 23.5 20t21.5 21q0 23 2 203q2 170 2 208q0 383 -10 414q-4 12 -18 19q-20 10 -25 15t-5 10q0 7 12 16q6 5 31 5q9 -3 29 -8q13 -2 32.5 3.5 t26.5 4.5l22 -7q36 -40 110 -153q115 -175 168 -322q0 386 -10 417q-3 12 -18 19q-20 10 -25 15t-5 10q0 7 12 16q1 2 31 5q14 2 34 -3t31 -5q12 0 31.5 4.5t27.5 3.5q14 0 33 -8q2 -4 0 -18q-2 -10 -23.5 -20t-21.5 -21q0 -23 -2 -204q-2 -169 -2 -208q0 -382 10 -414 q4 -11 19 -18q19 -10 24 -15t5 -10q0 -6 -12 -17q-1 -1 -31 -4q-14 -2 -34 3t-31 5q-12 0 -31.5 -4.5t-27.5 -3.5q-14 0 -33 8q-2 4 0 18q2 10 23.5 20t21.5 21q0 40 2 245q-52 220 -245 490q-17 18 -21 16q-5 -3 -9 -33q-3 -250 -3 -307q0 -382 10 -414q3 -11 18 -18 q20 -10 25 -15t5 -10zM568 1158q-33 -60 -78 -111q-59 -65 -98 -65q-23 0 -77 65t-73 65q-45 0 -100 -77q-8 -18 -25 -36l-18 16q33 60 79 111q58 65 97 65q29 0 79.5 -65t70.5 -65q40 0 94 77q11 18 31 37z" />
<glyph unicode="&#xd2;" horiz-adv-x="581" d="M40 0zM541 532q0 -154 -55 -297q-44 -113 -111 -196q-58 -71 -85 -71q-26 0 -84 75q-67 87 -111 201q-55 143 -55 288q0 201 42 300q58 138 208 138q151 0 209 -138q42 -99 42 -300zM421 732q-5 54 -16 88q-18 53 -34 71q-26 28 -81 28t-81 -28q-17 -18 -34 -70 q-12 -35 -16 -89q-4 -46 -7 -92q-2 -37 -2 -80q0 -180 37 -334q42 -174 103 -174q62 0 103 165q37 150 37 332q0 75 -9 183zM428 995l-30 -9q-69 45 -121 83q-122 93 -133 138q-2 8 -2 15q0 19 21 19q3 0 48 -8q18 -3 217 -238z" />
<glyph unicode="&#xd3;" horiz-adv-x="581" d="M40 0zM541 532q0 -154 -55 -297q-44 -113 -111 -196q-58 -71 -85 -71q-26 0 -84 75q-67 87 -111 201q-55 143 -55 288q0 201 42 300q58 138 208 138q151 0 209 -138q42 -99 42 -300zM421 732q-5 54 -16 88q-18 53 -34 71q-26 28 -81 28t-81 -28q-17 -18 -34 -70 q-12 -35 -16 -89q-4 -46 -7 -92q-2 -37 -2 -80q0 -180 37 -334q42 -174 103 -174q62 0 103 165q37 150 37 332q0 75 -9 183zM427 1205q18 -4 -274 -215l-23 13q83 73 219 199q19 18 32 18q6 0 20.5 -6.5t25.5 -8.5z" />
<glyph unicode="&#xd4;" horiz-adv-x="581" d="M40 0zM541 532q0 -154 -55 -297q-44 -113 -111 -196q-58 -71 -85 -71q-26 0 -84 75q-67 87 -111 201q-55 143 -55 288q0 201 42 300q58 138 208 138q151 0 209 -138q42 -99 42 -300zM421 732q-5 54 -16 88q-18 53 -34 71q-26 28 -81 28t-81 -28q-17 -18 -34 -70 q-12 -35 -16 -89q-4 -46 -7 -92q-2 -37 -2 -80q0 -180 37 -334q42 -174 103 -174q62 0 103 165q37 150 37 332q0 75 -9 183zM421.5 1053.5q13.5 -40.5 13.5 -59.5q0 -9 -3 -9q-5 0 -33 39q-35 48 -54 66.5t-53 49.5q-16 -15 -52 -49q-18 -19 -54 -67q-28 -39 -33 -39 q-3 0 -3 9q0 18 13 57q14 43 31 70q25 41 94 95q22 -16 41 -30q44 -36 61.5 -64t31 -68.5z" />
<glyph unicode="&#xd5;" horiz-adv-x="581" d="M40 0zM541 532q0 -154 -55 -297q-44 -113 -111 -196q-58 -71 -85 -71q-26 0 -84 75q-67 87 -111 201q-55 143 -55 288q0 201 42 300q58 138 208 138q151 0 209 -138q42 -99 42 -300zM421 732q-5 54 -16 88q-18 53 -34 71q-26 28 -81 28t-81 -28q-17 -18 -34 -70 q-12 -35 -16 -89q-4 -46 -7 -92q-2 -37 -2 -80q0 -180 37 -334q42 -174 103 -174q62 0 103 165q37 150 37 332q0 75 -9 183zM528 1178q-33 -60 -78 -111q-59 -65 -98 -65q-23 0 -77 65t-73 65q-45 0 -100 -77q-8 -18 -25 -36l-18 16q33 60 79 111q58 65 97 65q29 0 79.5 -65 t70.5 -65q40 0 94 77q11 18 31 37z" />
<glyph unicode="&#xd6;" horiz-adv-x="581" d="M40 0zM541 532q0 -154 -55 -297q-44 -113 -111 -196q-58 -71 -85 -71q-26 0 -84 75q-67 87 -111 201q-55 143 -55 288q0 201 42 300q58 138 208 138q151 0 209 -138q42 -99 42 -300zM421 732q-5 54 -16 88q-18 53 -34 71q-26 28 -81 28t-81 -28q-17 -18 -34 -70 q-12 -35 -16 -89q-4 -46 -7 -92q-2 -37 -2 -80q0 -180 37 -334q42 -174 103 -174q62 0 103 165q37 150 37 332q0 75 -9 183zM260 1096q0 -22 -11 -41h-1q-1 0 -11 -8.5t-12 -9.5q-32 -18 -49 -18q-39 0 -39 43q0 6 15 40q0 5 5 17q16 16 33 20q4 1 37 4q33 2 33 -47z M464 1096q0 -22 -11 -41h-1q-1 0 -11 -8.5t-12 -9.5q-32 -18 -49 -18q-39 0 -39 43q0 6 15 40q0 5 5 17q16 16 33 20q4 1 37 4q33 2 33 -47z" />
<glyph unicode="&#xd7;" horiz-adv-x="437" d="M372 678l-2 -8v0q1 -6 -6 -22q-6 3 -121 69q-10 -73 -21 -130q-6 -1 -13.5 -6t-15.5 -3q0 7 -1 140q-68 -28 -123 -47q-9 3 -22 21q8 6 117 69q-67 35 -101 45q-23 7 -23 22q0 13 39 60q1 1 3 1q17 0 107 -67q-1 26 -6.5 63t-5.5 46q0 22 28 22q8 0 53 -8q12 -2 -2 -128 q55 35 78 58q12 11 22 11q14 0 25 -23q2 -5 16 -44q4 -12 -118 -65q53 -42 93 -76z" />
<glyph unicode="&#xd8;" horiz-adv-x="661" d="M620 983q10 -2 -85 -180q31 -95 31 -271q0 -154 -56 -297q-43 -113 -111 -196q-57 -71 -84 -71q-19 0 -61 47q-47 52 -88 129l-93 -163l-33 23l97 199q-73 163 -73 329q0 201 42 300q58 138 209 138q98 0 156 -57q11 26 15 39q13 40 61 40q8 0 73 -9zM430 819l-1 1 q-16 52 -33 71q-26 28 -81 28t-81 -28q-17 -18 -35 -70q-11 -35 -16 -89l-6 -92q-3 -37 -3 -81q0 -118 19 -239q162 335 237 499zM452 640l-1 9q-98 -176 -239 -425q42 -172 103 -172q62 0 103 167q37 151 37 334q0 46 -3 87z" />
<glyph unicode="&#xd9;" horiz-adv-x="629" d="M30 0zM599 923q-1 -10 -22.5 -20t-21.5 -21q0 -26 -3 -64.5t-3 -67.5l-3 -442q0 -115 -52 -200q-39 -65 -102 -104q-47 -29 -74 -29q-26 0 -73 29q-63 39 -102 104q-52 85 -53 200l-2 441q0 63 -1 70q-1 41 -9 65q-4 12 -18 19q-20 10 -25 15t-5 10q0 7 12 16q1 2 31 5 q14 2 33.5 -3t31.5 -5t31.5 4.5t27.5 3.5q14 0 33 -8q2 -4 0 -18q-2 -10 -23.5 -20t-21.5 -21q0 -24 -2 -63.5t-2 -69.5l3 -432q1 -155 55 -228q36 -49 79 -49q42 0 77 49q51 72 54 228l8 432q2 98 -9 135q-4 12 -19 19q-20 10 -25 15t-5 10q0 7 12 16q2 2 32 5q13 2 33 -3 t32 -5q11 0 32 4q18 5 27 4q14 0 32 -8q3 -4 0 -18zM448 995l-30 -9q-69 45 -121 83q-122 93 -133 138q-2 8 -2 15q0 19 21 19q3 0 48 -8q18 -3 217 -238z" />
<glyph unicode="&#xda;" horiz-adv-x="629" d="M30 0zM599 923q-1 -10 -22.5 -20t-21.5 -21q0 -26 -3 -64.5t-3 -67.5l-3 -442q0 -115 -52 -200q-39 -65 -102 -104q-47 -29 -74 -29q-26 0 -73 29q-63 39 -102 104q-52 85 -53 200l-2 441q0 63 -1 70q-1 41 -9 65q-4 12 -18 19q-20 10 -25 15t-5 10q0 7 12 16q1 2 31 5 q14 2 33.5 -3t31.5 -5t31.5 4.5t27.5 3.5q14 0 33 -8q2 -4 0 -18q-2 -10 -23.5 -20t-21.5 -21q0 -24 -2 -63.5t-2 -69.5l3 -432q1 -155 55 -228q36 -49 79 -49q42 0 77 49q51 72 54 228l8 432q2 98 -9 135q-4 12 -19 19q-20 10 -25 15t-5 10q0 7 12 16q2 2 32 5q13 2 33 -3 t32 -5q11 0 32 4q18 5 27 4q14 0 32 -8q3 -4 0 -18zM467 1205q18 -4 -274 -215l-23 13q83 73 219 199q19 18 32 18q6 0 20.5 -6.5t25.5 -8.5z" />
<glyph unicode="&#xdb;" horiz-adv-x="629" d="M30 0zM599 923q-1 -10 -22.5 -20t-21.5 -21q0 -26 -3 -64.5t-3 -67.5l-3 -442q0 -115 -52 -200q-39 -65 -102 -104q-47 -29 -74 -29q-26 0 -73 29q-63 39 -102 104q-52 85 -53 200l-2 441q0 63 -1 70q-1 41 -9 65q-4 12 -18 19q-20 10 -25 15t-5 10q0 7 12 16q1 2 31 5 q14 2 33.5 -3t31.5 -5t31.5 4.5t27.5 3.5q14 0 33 -8q2 -4 0 -18q-2 -10 -23.5 -20t-21.5 -21q0 -24 -2 -63.5t-2 -69.5l3 -432q1 -155 55 -228q36 -49 79 -49q42 0 77 49q51 72 54 228l8 432q2 98 -9 135q-4 12 -19 19q-20 10 -25 15t-5 10q0 7 12 16q2 2 32 5q13 2 33 -3 t32 -5q11 0 32 4q18 5 27 4q14 0 32 -8q3 -4 0 -18zM446.5 1053.5q13.5 -40.5 13.5 -59.5q0 -9 -3 -9q-5 0 -33 39q-35 48 -54 66.5t-53 49.5q-16 -15 -52 -49q-18 -19 -54 -67q-28 -39 -33 -39q-3 0 -3 9q0 18 13 57q14 43 31 70q25 41 94 95q22 -16 41 -30 q44 -36 61.5 -64t31 -68.5z" />
<glyph unicode="&#xdc;" horiz-adv-x="629" d="M30 0zM599 923q-1 -10 -22.5 -20t-21.5 -21q0 -26 -3 -64.5t-3 -67.5l-3 -442q0 -115 -52 -200q-39 -65 -102 -104q-47 -29 -74 -29q-26 0 -73 29q-63 39 -102 104q-52 85 -53 200l-2 441q0 63 -1 70q-1 41 -9 65q-4 12 -18 19q-20 10 -25 15t-5 10q0 7 12 16q1 2 31 5 q14 2 33.5 -3t31.5 -5t31.5 4.5t27.5 3.5q14 0 33 -8q2 -4 0 -18q-2 -10 -23.5 -20t-21.5 -21q0 -24 -2 -63.5t-2 -69.5l3 -432q1 -155 55 -228q36 -49 79 -49q42 0 77 49q51 72 54 228l8 432q2 98 -9 135q-4 12 -19 19q-20 10 -25 15t-5 10q0 7 12 16q2 2 32 5q13 2 33 -3 t32 -5q11 0 32 4q18 5 27 4q14 0 32 -8q3 -4 0 -18zM280 1096q0 -22 -11 -41h-1q-1 0 -11 -8.5t-12 -9.5q-32 -18 -49 -18q-39 0 -39 43q0 6 15 40q0 5 5 17q16 16 33 20q4 1 37 4q33 2 33 -47zM484 1096q0 -22 -11 -41h-1q-1 0 -11 -8.5t-12 -9.5q-32 -18 -49 -18 q-39 0 -39 43q0 6 15 40q0 5 5 17q16 16 33 20q4 1 37 4q33 2 33 -47z" />
<glyph unicode="&#xdd;" horiz-adv-x="520" d="M0 0zM366 386q2 2 -6.5 -8.5t-23.5 -30.5q-31 -42 -31 -69q0 -190 9 -222q4 -11 19 -18q20 -10 25 -15t5 -10q0 -7 -12 -17q-1 0 -32 -4q-13 -2 -33 3t-32 5t-31 -4.5t-28 -3.5q-14 0 -32 8q-2 4 0 18q1 10 22.5 20t21.5 21q0 39 3 219q0 22 -21 63q-132 144 -132 339 l1 97q0 78 -10 107q-3 12 -18 19q-20 10 -25 15t-5 10q0 7 12 16q2 2 32 5q13 2 33 -3t31 -5q12 0 31.5 4.5t27.5 3.5q14 0 33 -8q2 -4 0 -18q-2 -10 -23.5 -20t-21.5 -21q0 -26 -1.5 -47t-1.5 -50l-1 -60q-1 -122 42 -252q40 -121 68 -121t66 101q43 112 43 230q0 21 -2 42 l8 54q0 80 -8 105q-3 12 -18 19q-20 10 -25 15t-5 10q0 7 12 16q2 2 31 5q14 2 34 -3t31 -5q12 0 31.5 4.5t27.5 3.5q14 0 33 -8q2 -4 0 -18q-2 -10 -23.5 -20t-21.5 -21t-5 -104l-5 -98q-7 -157 -95 -288zM427 1205q18 -4 -274 -215l-23 13q83 73 219 199q19 18 32 18 q6 0 20.5 -6.5t25.5 -8.5z" />
<glyph unicode="&#xde;" horiz-adv-x="497" d="M239 13q0 -6 -12 -17q-1 -1 -31 -4q-14 -2 -34 3t-31 5q-12 0 -31.5 -4.5t-27.5 -3.5q-14 0 -33 8q-2 4 0 18q2 10 23.5 20t21.5 21q0 23 2 203q2 170 2 208q0 383 -10 414q-4 12 -18 19q-20 10 -25 15t-5 10q0 7 12 16q1 2 31 5q14 2 33.5 -3t31.5 -5t31.5 4.5t27.5 3.5 q14 0 33 -8q2 -4 0 -18q-2 -10 -23.5 -20t-21.5 -21q0 -23 -1 -127q9 -3 20 -6h41q242 0 242 -239q0 -99 -72 -180q-61 -70 -205 -153l-14 15q26 25 43 43q48 50 69 85q72 117 72 273q0 40 -22 74q-29 43 -83 43q-71 0 -92 -5q-2 -203 -2 -235q0 -382 10 -414q3 -11 18 -18 q20 -10 25 -15t5 -10z" />
<glyph unicode="&#xdf;" horiz-adv-x="568" d="M568 226q0 -87 -109 -226q-87 -112 -183 -190l-13 21q0 7 53 60q64 65 97 112q51 76 51 139q0 52 -60 105l-112 86q-60 50 -60 98q0 39 24 72q15 21 57.5 58.5t61.5 61.5q24 29 24 79q0 16 -3.5 54t-3.5 59q0 35 -23 63q-31 37 -87 37q-30 0 -67 -2q-2 -2 -19 -13 q-11 -8 -11 -18q0 -23 -2 -199q-2 -166 -2 -204q0 -383 10 -414q4 -12 13 -19q17 -12 21 -16t4 -8q0 -7 -12 -17q-2 -2 -21 -5h-124q-14 0 -33 8q-2 4 0 18q2 10 23.5 20t21.5 21q0 24 2 204q2 169 2 208q0 374 -10 405q-4 12 -18 19q-20 10 -25 15t-5 10q0 7 12 16 q1 1 31 5h124h7h47q253 0 253 -205q0 -48 -117 -162q-46 -63 -46 -86q0 -49 59 -101q54 -42 109 -84q59 -47 59 -85z" />
<glyph unicode="&#xe0;" d="M40 0zM336 124q-126 -140 -190 -140q-68 0 -92 67q-14 39 -14 113q0 140 69 241q76 111 215 141q-3 33 -6 67t-25 55q-14 14 -19 18q-11 7 -26 10q-27 5 -59 -36q-20 -26 -47 -79q-22 -43 -24 -43q-10 0 -23 46q-13 42 -13 58q0 23 56 57q52 33 80 35q23 2 100 0 q118 -3 118 -225q0 15 -1 -129q-2 -123 -1 -199q2 -107 7 -125q3 -11 18 -18q19 -10 24 -15t5 -10q0 -6 -12 -17q-2 -1 -30 -4q-11 -2 -26 3t-25 5q-8 0 -21 -4.5t-22 -3.5q-9 0 -22 8v18q1 7 3.5 18t2.5 23v65zM328 522q-193 -95 -193 -336q0 -35 13 -81q17 -63 45 -63 q38 0 144 140l-1 148q0 126 -8 192zM388 775l-30 -9q-69 45 -121 83q-122 93 -133 138q-2 8 -2 15q0 19 21 19q3 0 48 -8q18 -3 217 -238z" />
<glyph unicode="&#xe1;" d="M40 0zM336 124q-126 -140 -190 -140q-68 0 -92 67q-14 39 -14 113q0 140 69 241q76 111 215 141q-3 33 -6 67t-25 55q-14 14 -19 18q-11 7 -26 10q-27 5 -59 -36q-20 -26 -47 -79q-22 -43 -24 -43q-10 0 -23 46q-13 42 -13 58q0 23 56 57q52 33 80 35q23 2 100 0 q118 -3 118 -225q0 15 -1 -129q-2 -123 -1 -199q2 -107 7 -125q3 -11 18 -18q19 -10 24 -15t5 -10q0 -6 -12 -17q-2 -1 -30 -4q-11 -2 -26 3t-25 5q-8 0 -21 -4.5t-22 -3.5q-9 0 -22 8v18q1 7 3.5 18t2.5 23v65zM328 522q-193 -95 -193 -336q0 -35 13 -81q17 -63 45 -63 q38 0 144 140l-1 148q0 126 -8 192zM427 995q18 -4 -274 -215l-23 13q83 73 219 199q19 18 32 18q6 0 20.5 -6.5t25.5 -8.5z" />
<glyph unicode="&#xe2;" d="M40 0zM336 124q-126 -140 -190 -140q-68 0 -92 67q-14 39 -14 113q0 140 69 241q76 111 215 141q-3 33 -6 67t-25 55q-14 14 -19 18q-11 7 -26 10q-27 5 -59 -36q-20 -26 -47 -79q-22 -43 -24 -43q-10 0 -23 46q-13 42 -13 58q0 23 56 57q52 33 80 35q23 2 100 0 q118 -3 118 -225q0 15 -1 -129q-2 -123 -1 -199q2 -107 7 -125q3 -11 18 -18q19 -10 24 -15t5 -10q0 -6 -12 -17q-2 -1 -30 -4q-11 -2 -26 3t-25 5q-8 0 -21 -4.5t-22 -3.5q-9 0 -22 8v18q1 7 3.5 18t2.5 23v65zM328 522q-193 -95 -193 -336q0 -35 13 -81q17 -63 45 -63 q38 0 144 140l-1 148q0 126 -8 192zM381.5 833.5q13.5 -40.5 13.5 -59.5q0 -9 -3 -9q-5 0 -33 39q-35 48 -54 66.5t-53 49.5q-16 -15 -52 -49q-18 -19 -54 -67q-28 -39 -33 -39q-3 0 -3 9q0 18 13 57q14 43 31 70q25 41 94 95q22 -16 41 -30q44 -36 61.5 -64t31 -68.5z" />
<glyph unicode="&#xe3;" d="M336 124q-126 -140 -190 -140q-68 0 -92 67q-14 39 -14 113q0 140 69 241q76 111 215 141q-3 33 -6 67t-25 55q-14 14 -19 18q-11 7 -26 10q-27 5 -59 -36q-20 -26 -47 -79q-22 -43 -24 -43q-10 0 -23 46q-13 42 -13 58q0 23 56 57q52 33 80 35q23 2 100 0 q118 -3 118 -225q0 15 -1 -129q-2 -123 -1 -199q2 -107 7 -125q3 -11 18 -18q19 -10 24 -15t5 -10q0 -6 -12 -17q-2 -1 -30 -4q-11 -2 -26 3t-25 5q-8 0 -21 -4.5t-22 -3.5q-9 0 -22 8v18q1 7 3.5 18t2.5 23v65zM328 522q-193 -95 -193 -336q0 -35 13 -81q17 -63 45 -63 q38 0 144 140l-1 148q0 126 -8 192zM462 927q-28 -51 -67 -94q-49 -56 -82 -56q-20 0 -66 55.5t-62 55.5q-38 0 -85 -66q-7 -15 -21 -31l-16 15q29 50 68 94q49 55 82 55q24 0 67 -55t61 -55q33 0 80 65q9 15 26 31z" />
<glyph unicode="&#xe4;" d="M40 0zM336 124q-126 -140 -190 -140q-68 0 -92 67q-14 39 -14 113q0 140 69 241q76 111 215 141q-3 33 -6 67t-25 55q-14 14 -19 18q-11 7 -26 10q-27 5 -59 -36q-20 -26 -47 -79q-22 -43 -24 -43q-10 0 -23 46q-13 42 -13 58q0 23 56 57q52 33 80 35q23 2 100 0 q118 -3 118 -225q0 15 -1 -129q-2 -123 -1 -199q2 -107 7 -125q3 -11 18 -18q19 -10 24 -15t5 -10q0 -6 -12 -17q-2 -1 -30 -4q-11 -2 -26 3t-25 5q-8 0 -21 -4.5t-22 -3.5q-9 0 -22 8v18q1 7 3.5 18t2.5 23v65zM328 522q-193 -95 -193 -336q0 -35 13 -81q17 -63 45 -63 q38 0 144 140l-1 148q0 126 -8 192zM230 856q0 -22 -11 -41h-1q-1 0 -11 -8.5t-12 -9.5q-32 -18 -49 -18q-39 0 -39 43q0 6 15 40q0 5 5 17q16 16 33 20q4 1 37 4q33 2 33 -47zM434 856q0 -22 -11 -41h-1q-1 0 -11 -8.5t-12 -9.5q-32 -18 -49 -18q-39 0 -39 43q0 6 15 40 q0 5 5 17q16 16 33 20q4 1 37 4q33 2 33 -47z" />
<glyph unicode="&#xe5;" d="M40 0zM336 124q-126 -140 -190 -140q-68 0 -92 67q-14 39 -14 113q0 140 69 241q76 111 215 141q-3 33 -6 67t-25 55q-14 14 -19 18q-11 7 -26 10q-27 5 -59 -36q-20 -26 -47 -79q-22 -43 -24 -43q-10 0 -23 46q-13 42 -13 58q0 23 56 57q52 33 80 35q23 2 100 0 q118 -3 118 -225q0 15 -1 -129q-2 -123 -1 -199q2 -107 7 -125q3 -11 18 -18q19 -10 24 -15t5 -10q0 -6 -12 -17q-2 -1 -30 -4q-11 -2 -26 3t-25 5q-8 0 -21 -4.5t-22 -3.5q-9 0 -22 8v18q1 7 3.5 18t2.5 23v65zM328 522q-193 -95 -193 -336q0 -35 13 -81q17 -63 45 -63 q38 0 144 140l-1 148q0 126 -8 192zM405 843q0 -50 -49.5 -98t-99.5 -48t-99 48t-49 98q0 51 43.5 87.5t104.5 36.5q62 0 105.5 -36.5t43.5 -87.5zM356 842q0 81 -98 81q-47 0 -73.5 -21.5t-26.5 -59.5t32 -72t68 -34q35 0 66.5 33.5t31.5 72.5z" />
<glyph unicode="&#xe6;" horiz-adv-x="764" d="M472 257q163 156 163 209t-32 135q-37 95 -79 95q-81 0 -81 -178q0 -125 29 -261zM337 366l-1 17q1 -9 1 -17zM326 521q-191 -95 -191 -335q0 -35 13 -81q17 -63 45 -63q38 0 157 104l35 30q-35 71 -45 155v0q-2 8 -4 52q-3 87 -10 138zM359 105q-169 -121 -213 -121 q-68 0 -92 67q-14 39 -14 113q0 139 69 241q75 111 214 141q-14 84 -42 114q-3 9 -8 16q-11 17 -25 20q-27 5 -59 -36q-20 -26 -47 -79q-22 -43 -24 -43q-10 0 -23 46q-13 42 -13 58q0 23 56 57q52 33 80 35q23 2 100 0q56 -1 86 -78q54 78 136 78q79 0 132 -64t53 -150 q0 -54 -79 -151q-64 -78 -162 -165q8 -32 17 -60.5t56 -105.5q23 -36 45 -73l-14 -20q-125 100 -182 193q-1 0 -47 -33z" />
<glyph unicode="&#xe7;" horiz-adv-x="415" d="M40 0zM395 642q0 -16 -13 -58q-15 -46 -24 -46q-3 0 -24 41q-27 49 -47 76q-32 41 -59 41q-82 0 -82 -178q0 -115 9 -183q13 -100 51 -193q19 -46 62 -116q20 -30 39 -61l-14 -20q-136 109 -194 211q-59 107 -59 250q0 108 36 194q57 134 182 134q26 0 81.5 -34.5 t55.5 -57.5zM239 -129q-18 -43 -162 -69l6 29q24 6 42 12q44 14 50 28q4 8 4 18q0 16 -16.5 46.5t-16.5 44.5q0 8 3 16q13 29 29 60l38 -16q-6 -14 -17 -38q-3 -6 -3 -12v0q0 -11 30 -53q26 -36 13 -66z" />
<glyph unicode="&#xe8;" horiz-adv-x="448" d="M30 0zM170 238q57 46 103 108q55 73 55 120q0 53 -31 135q-37 95 -79 95q-82 0 -82 -178q0 -134 34 -280zM418 520q0 -72 -83 -176q-70 -88 -155 -150q8 -27 15.5 -53t54.5 -103q23 -36 46 -73l-14 -20q-136 109 -193 211q-59 106 -59 250q0 115 44 209q57 119 160 119 q79 0 133 -65q51 -63 51 -149zM368 775l-30 -9q-69 45 -121 83q-122 93 -133 138q-2 8 -2 15q0 19 21 19q3 0 48 -8q18 -3 217 -238z" />
<glyph unicode="&#xe9;" horiz-adv-x="448" d="M30 0zM170 238q57 46 103 108q55 73 55 120q0 53 -31 135q-37 95 -79 95q-82 0 -82 -178q0 -134 34 -280zM418 520q0 -72 -83 -176q-70 -88 -155 -150q8 -27 15.5 -53t54.5 -103q23 -36 46 -73l-14 -20q-136 109 -193 211q-59 106 -59 250q0 115 44 209q57 119 160 119 q79 0 133 -65q51 -63 51 -149zM377 995q18 -4 -274 -215l-23 13q83 73 219 199q19 18 32 18q6 0 20.5 -6.5t25.5 -8.5z" />
<glyph unicode="&#xea;" horiz-adv-x="448" d="M30 0zM170 238q57 46 103 108q55 73 55 120q0 53 -31 135q-37 95 -79 95q-82 0 -82 -178q0 -134 34 -280zM418 520q0 -72 -83 -176q-70 -88 -155 -150q8 -27 15.5 -53t54.5 -103q23 -36 46 -73l-14 -20q-136 109 -193 211q-59 106 -59 250q0 115 44 209q57 119 160 119 q79 0 133 -65q51 -63 51 -149zM361.5 833.5q13.5 -40.5 13.5 -59.5q0 -9 -3 -9q-5 0 -33 39q-35 48 -54 66.5t-53 49.5q-16 -15 -52 -49q-18 -19 -54 -67q-28 -39 -33 -39q-3 0 -3 9q0 18 13 57q14 43 31 70q25 41 94 95q22 -16 41 -30q44 -36 61.5 -64t31 -68.5z" />
<glyph unicode="&#xeb;" horiz-adv-x="448" d="M30 0zM170 238q57 46 103 108q55 73 55 120q0 53 -31 135q-37 95 -79 95q-82 0 -82 -178q0 -134 34 -280zM418 520q0 -72 -83 -176q-70 -88 -155 -150q8 -27 15.5 -53t54.5 -103q23 -36 46 -73l-14 -20q-136 109 -193 211q-59 106 -59 250q0 115 44 209q57 119 160 119 q79 0 133 -65q51 -63 51 -149zM190 856q0 -22 -11 -41h-1q-1 0 -11 -8.5t-12 -9.5q-32 -18 -49 -18q-39 0 -39 43q0 6 15 40q0 5 5 17q16 16 33 20q4 1 37 4q33 2 33 -47zM394 856q0 -22 -11 -41h-1q-1 0 -11 -8.5t-12 -9.5q-32 -18 -49 -18q-39 0 -39 43q0 6 15 40 q0 5 5 17q16 16 33 20q4 1 37 4q33 2 33 -47z" />
<glyph unicode="&#xec;" horiz-adv-x="260" d="M0 0zM231 14q0 -7 -13 -18q-1 0 -31 -4q-14 -2 -34 3t-32 5t-31.5 -4.5t-27.5 -3.5q-14 0 -32 8q-3 4 0 18q1 10 23.5 20t22.5 21q0 22 1 133q1 106 1 138q0 45 -1 113q-1 57 -1 144q0 28 -5 31q-11 1 -27 7q-8 8 -7 22q0 11 17 18q27 12 28 13q59 43 84 43q6 0 8 -2 q25 -25 19 -36q-23 -46 -23 -96q0 -60 1.5 -151t1.5 -106q0 -242 9 -274q4 -11 19 -18q20 -10 25 -15t5 -9zM278 775l-30 -9q-69 45 -121 83q-122 93 -133 138q-2 8 -2 15q0 19 21 19q3 0 48 -8q18 -3 217 -238z" />
<glyph unicode="&#xed;" horiz-adv-x="260" d="M0 0zM231 14q0 -7 -13 -18q-1 0 -31 -4q-14 -2 -34 3t-32 5t-31.5 -4.5t-27.5 -3.5q-14 0 -32 8q-3 4 0 18q1 10 23.5 20t22.5 21q0 22 1 133q1 106 1 138q0 45 -1 113q-1 57 -1 144q0 28 -5 31q-11 1 -27 7q-8 8 -7 22q0 11 17 18q27 12 28 13q59 43 84 43q6 0 8 -2 q25 -25 19 -36q-23 -46 -23 -96q0 -60 1.5 -151t1.5 -106q0 -242 9 -274q4 -11 19 -18q20 -10 25 -15t5 -9zM277 995q18 -4 -274 -215l-23 13q83 73 219 199q19 18 32 18q6 0 20.5 -6.5t25.5 -8.5z" />
<glyph unicode="&#xee;" horiz-adv-x="260" d="M0 0zM231 14q0 -7 -13 -18q-1 0 -31 -4q-14 -2 -34 3t-32 5t-31.5 -4.5t-27.5 -3.5q-14 0 -32 8q-3 4 0 18q1 10 23.5 20t22.5 21q0 22 1 133q1 106 1 138q0 45 -1 113q-1 57 -1 144q0 28 -5 31q-11 1 -27 7q-8 8 -7 22q0 11 17 18q27 12 28 13q59 43 84 43q6 0 8 -2 q25 -25 19 -36q-23 -46 -23 -96q0 -60 1.5 -151t1.5 -106q0 -242 9 -274q4 -11 19 -18q20 -10 25 -15t5 -9zM261.5 833.5q13.5 -40.5 13.5 -59.5q0 -9 -3 -9q-5 0 -33 39q-35 48 -54 66.5t-53 49.5q-16 -15 -52 -49q-18 -19 -54 -67q-28 -39 -33 -39q-3 0 -3 9q0 18 13 57 q14 43 31 70q25 41 94 95q22 -16 41 -30q44 -36 61.5 -64t31 -68.5z" />
<glyph unicode="&#xef;" horiz-adv-x="260" d="M0 0zM231 14q0 -7 -13 -18q-1 0 -31 -4q-14 -2 -34 3t-32 5t-31.5 -4.5t-27.5 -3.5q-14 0 -32 8q-3 4 0 18q1 10 23.5 20t22.5 21q0 22 1 133q1 106 1 138q0 45 -1 113q-1 57 -1 144q0 28 -5 31q-11 1 -27 7q-8 8 -7 22q0 11 17 18q27 12 28 13q59 43 84 43q6 0 8 -2 q25 -25 19 -36q-23 -46 -23 -96q0 -60 1.5 -151t1.5 -106q0 -242 9 -274q4 -11 19 -18q20 -10 25 -15t5 -9zM90 856q0 -22 -11 -41h-1q-1 0 -11 -8.5t-12 -9.5q-32 -18 -49 -18q-39 0 -39 43q0 6 15 40q0 5 5 17q16 16 33 20q4 1 37 4q33 2 33 -47zM294 856q0 -22 -11 -41 h-1q-1 0 -11 -8.5t-12 -9.5q-32 -18 -49 -18q-39 0 -39 43q0 6 15 40q0 5 5 17q16 16 33 20q4 1 37 4q33 2 33 -47z" />
<glyph unicode="&#xf0;" horiz-adv-x="468" d="M428 310q0 -116 -44 -210q-57 -119 -160 -119q-79 0 -131.5 64t-52.5 151q0 71 83 176q70 87 155 149q-4 22 -29 85q-26 -24 -54 -49q-6 -4 -12.5 -20t-12.5 -16q-8 1 -20 10q-15 11 -13 22l9 47l78 49q-7 13 -62 101l14 20q58 -46 100 -88l83 51l46 -12q12 -3 15 -21 q2 -15 -0.5 -22t-18.5 -6q-19 2 -25 -2q-15 -4 -66 -26q118 -140 118 -334zM322 197q0 134 -34 280q-57 -46 -103 -107q-55 -73 -55 -120q0 -54 31 -136q37 -95 79 -95q82 0 82 178z" />
<glyph unicode="&#xf1;" horiz-adv-x="523" d="M484 509q0 -463 -189 -694q-10 -1 -31 7q115 223 115 566q0 101 -3 131q-10 98 -51 137q-3 4 -8 4q-39 0 -146 -168q0 -28 1 -95q1 -49 1 -67q0 -242 9 -274q4 -11 19 -18q20 -10 25 -15t5 -9q0 -7 -13 -18q-1 0 -31 -4q-14 -2 -34 3t-32 5t-31.5 -4.5t-27.5 -3.5 q-14 0 -32 8q-3 4 0 18q1 10 23.5 20t22.5 21q0 22 1 133q1 106 1 138q0 45 -1 113q-1 57 -1 144q0 28 -5 31q-11 1 -27 7q-8 8 -7 22q0 11 17 18q27 12 28 13q59 43 84 43q6 0 8 -2q25 -25 19 -36q-23 -47 -23 -96v-22q135 169 197 169q117 0 117 -225zM462 927 q-28 -51 -67 -94q-49 -56 -82 -56q-20 0 -66 55.5t-62 55.5q-38 0 -85 -66q-7 -15 -21 -31l-16 15q29 50 68 94q49 55 82 55q24 0 67 -55t61 -55q33 0 80 65q9 15 26 31z" />
<glyph unicode="&#xf2;" horiz-adv-x="499" d="M30 0zM470 408q0 -117 -50 -227q-39 -87 -98 -151q-51 -55 -72 -55t-75 58q-63 68 -101 155q-50 110 -44 220q19 326 220 326q115 0 174 -112q46 -89 46 -214zM360 485q-9 116 -16 141q-22 70 -94 70q-73 0 -95 -70q-8 -24 -17 -141q-1 -23 -1 -48q0 -133 36 -263 q37 -134 77 -134t76 127t36 263q0 29 -2 55zM388 775l-30 -9q-69 45 -121 83q-122 93 -133 138q-2 8 -2 15q0 19 21 19q3 0 48 -8q18 -3 217 -238z" />
<glyph unicode="&#xf3;" horiz-adv-x="499" d="M30 0zM470 408q0 -117 -50 -227q-39 -87 -98 -151q-51 -55 -72 -55t-75 58q-63 68 -101 155q-50 110 -44 220q19 326 220 326q115 0 174 -112q46 -89 46 -214zM360 485q-9 116 -16 141q-22 70 -94 70q-73 0 -95 -70q-8 -24 -17 -141q-1 -23 -1 -48q0 -133 36 -263 q37 -134 77 -134t76 127t36 263q0 29 -2 55zM407 995q18 -4 -274 -215l-23 13q83 73 219 199q19 18 32 18q6 0 20.5 -6.5t25.5 -8.5z" />
<glyph unicode="&#xf4;" horiz-adv-x="499" d="M30 0zM470 408q0 -117 -50 -227q-39 -87 -98 -151q-51 -55 -72 -55t-75 58q-63 68 -101 155q-50 110 -44 220q19 326 220 326q115 0 174 -112q46 -89 46 -214zM360 485q-9 116 -16 141q-22 70 -94 70q-73 0 -95 -70q-8 -24 -17 -141q-1 -23 -1 -48q0 -133 36 -263 q37 -134 77 -134t76 127t36 263q0 29 -2 55zM381.5 833.5q13.5 -40.5 13.5 -59.5q0 -9 -3 -9q-5 0 -33 39q-35 48 -54 66.5t-53 49.5q-16 -15 -52 -49q-18 -19 -54 -67q-28 -39 -33 -39q-3 0 -3 9q0 18 13 57q14 43 31 70q25 41 94 95q22 -16 41 -30q44 -36 61.5 -64 t31 -68.5z" />
<glyph unicode="&#xf5;" horiz-adv-x="499" d="M470 408q0 -117 -50 -228q-39 -86 -98 -150q-51 -55 -72 -55t-75 58q-63 68 -101 155q-50 110 -44 220q19 326 220 326q115 0 174 -112q46 -89 46 -214zM360 485q-9 116 -16 141q-22 70 -94 70q-73 0 -95 -70q-8 -24 -17 -141q-1 -23 -1 -48q0 -133 36 -263 q37 -134 77 -134t76 127t36 263q0 29 -2 55zM452 927q-28 -51 -67 -94q-49 -56 -82 -56q-20 0 -66 55.5t-62 55.5q-38 0 -85 -66q-7 -15 -21 -31l-16 15q29 50 68 94q49 55 82 55q24 0 67 -55t61 -55q33 0 80 65q9 15 26 31z" />
<glyph unicode="&#xf6;" horiz-adv-x="499" d="M30 0zM470 408q0 -117 -50 -227q-39 -87 -98 -151q-51 -55 -72 -55t-75 58q-63 68 -101 155q-50 110 -44 220q19 326 220 326q115 0 174 -112q46 -89 46 -214zM360 485q-9 116 -16 141q-22 70 -94 70q-73 0 -95 -70q-8 -24 -17 -141q-1 -23 -1 -48q0 -133 36 -263 q37 -134 77 -134t76 127t36 263q0 29 -2 55zM220 856q0 -22 -11 -41h-1q-1 0 -11 -8.5t-12 -9.5q-32 -18 -49 -18q-39 0 -39 43q0 6 15 40q0 5 5 17q16 16 33 20q4 1 37 4q33 2 33 -47zM424 856q0 -22 -11 -41h-1q-1 0 -11 -8.5t-12 -9.5q-32 -18 -49 -18q-39 0 -39 43 q0 6 15 40q0 5 5 17q16 16 33 20q4 1 37 4q33 2 33 -47z" />
<glyph unicode="&#xf7;" horiz-adv-x="494" d="M455 227q1 -20 -12 -26q-5 -2 -18 4q-16 6 -23 6q6 0 -55 4t-100 4q-38 0 -100 -4t-56 -4q-7 0 -21.5 -6t-19.5 -4q-14 6 -10 26l32 31h349zM311 113q0 -22 -11 -41h-1q-2 0 -11.5 -8.5t-11.5 -9.5q-33 -18 -49 -18q-40 0 -40 43q0 6 16 40q-1 5 5 17q16 16 33 20 q4 1 36 4q34 2 34 -47zM311 401q0 -22 -11 -41h-1q-2 0 -11.5 -8.5t-11.5 -9.5q-33 -18 -49 -18q-40 0 -40 43q0 6 16 40q-1 5 5 17q16 16 33 20q4 1 36 4q34 2 34 -47z" />
<glyph unicode="&#xf8;" horiz-adv-x="519" d="M468 825q7 -1 -62 -161q74 -91 74 -256q0 -117 -50 -227q-39 -87 -98 -151q-51 -55 -72 -55q-13 0 -45 28q-36 32 -70 79l-51 -112l-22 20l49 127q-89 143 -81 291q19 326 220 326q49 0 88 -20q23 65 28 85q9 34 42 34q5 0 50 -8zM331 668q-25 28 -71 28q-73 0 -95 -70 q-8 -24 -17 -141q-1 -23 -1 -48q0 -95 21 -200q110 284 163 431zM365 568q-71 -161 -180 -401q36 -127 75 -127q40 0 76 127t36 263q0 63 -7 138z" />
<glyph unicode="&#xf9;" horiz-adv-x="548" d="M30 0zM364 88q-25 -44 -62 -78q-41 -38 -74 -38q-32 0 -61 24q-60 50 -81 152q-11 54 -15 177q-3 78 -3 184q0 8 -1 25t-1 25q0 6 2 17.5t2 17.5q0 22 -20 28.5t-20 24.5q0 10 18 19l28 12q65 43 84 43q7 0 17 -13.5t10 -21.5v-3q-23 -66 -23 -96q0 -49 2 -147.5 t2 -147.5q0 -88 1 -100q3 -63 17 -96q25 -57 78 -59q10 0 40 30q34 34 61 78l2 198q0 49 -2 107q-1 52 -1 137q0 28 -5 31q-10 1 -26 7q-8 9 -8 22q0 11 17 18q27 12 28 13q60 43 85 43q5 0 7 -2q25 -25 19 -36q-21 -44 -21 -96v-144q1 -84 1 -100q0 -255 10 -287 q3 -11 18 -18q20 -10 25 -15t5 -9q0 -7 -13 -18q-2 -1 -31 -4q-10 -2 -25 3t-24 5q-8 0 -21 -4.5t-22 -3.5q-9 0 -23 8v18q0 7 2 18t2 23v29zM388 775l-30 -9q-69 45 -121 83q-122 93 -133 138q-2 8 -2 15q0 19 21 19q3 0 48 -8q18 -3 217 -238z" />
<glyph unicode="&#xfa;" horiz-adv-x="548" d="M30 0zM364 88q-25 -44 -62 -78q-41 -38 -74 -38q-32 0 -61 24q-60 50 -81 152q-11 54 -15 177q-3 78 -3 184q0 8 -1 25t-1 25q0 6 2 17.5t2 17.5q0 22 -20 28.5t-20 24.5q0 10 18 19l28 12q65 43 84 43q7 0 17 -13.5t10 -21.5v-3q-23 -66 -23 -96q0 -49 2 -147.5 t2 -147.5q0 -88 1 -100q3 -63 17 -96q25 -57 78 -59q10 0 40 30q34 34 61 78l2 198q0 49 -2 107q-1 52 -1 137q0 28 -5 31q-10 1 -26 7q-8 9 -8 22q0 11 17 18q27 12 28 13q60 43 85 43q5 0 7 -2q25 -25 19 -36q-21 -44 -21 -96v-144q1 -84 1 -100q0 -255 10 -287 q3 -11 18 -18q20 -10 25 -15t5 -9q0 -7 -13 -18q-2 -1 -31 -4q-10 -2 -25 3t-24 5q-8 0 -21 -4.5t-22 -3.5q-9 0 -23 8v18q0 7 2 18t2 23v29zM427 995q18 -4 -274 -215l-23 13q83 73 219 199q19 18 32 18q6 0 20.5 -6.5t25.5 -8.5z" />
<glyph unicode="&#xfb;" horiz-adv-x="548" d="M30 0zM364 88q-25 -44 -62 -78q-41 -38 -74 -38q-32 0 -61 24q-60 50 -81 152q-11 54 -15 177q-3 78 -3 184q0 8 -1 25t-1 25q0 6 2 17.5t2 17.5q0 22 -20 28.5t-20 24.5q0 10 18 19l28 12q65 43 84 43q7 0 17 -13.5t10 -21.5v-3q-23 -66 -23 -96q0 -49 2 -147.5 t2 -147.5q0 -88 1 -100q3 -63 17 -96q25 -57 78 -59q10 0 40 30q34 34 61 78l2 198q0 49 -2 107q-1 52 -1 137q0 28 -5 31q-10 1 -26 7q-8 9 -8 22q0 11 17 18q27 12 28 13q60 43 85 43q5 0 7 -2q25 -25 19 -36q-21 -44 -21 -96v-144q1 -84 1 -100q0 -255 10 -287 q3 -11 18 -18q20 -10 25 -15t5 -9q0 -7 -13 -18q-2 -1 -31 -4q-10 -2 -25 3t-24 5q-8 0 -21 -4.5t-22 -3.5q-9 0 -23 8v18q0 7 2 18t2 23v29zM391.5 833.5q13.5 -40.5 13.5 -59.5q0 -9 -3 -9q-5 0 -33 39q-35 48 -54 66.5t-53 49.5q-16 -15 -52 -49q-18 -19 -54 -67 q-28 -39 -33 -39q-3 0 -3 9q0 18 13 57q14 43 31 70q25 41 94 95q22 -16 41 -30q44 -36 61.5 -64t31 -68.5z" />
<glyph unicode="&#xfc;" horiz-adv-x="548" d="M30 0zM364 88q-25 -44 -62 -78q-41 -38 -74 -38q-32 0 -61 24q-60 50 -81 152q-11 54 -15 177q-3 78 -3 184q0 8 -1 25t-1 25q0 6 2 17.5t2 17.5q0 22 -20 28.5t-20 24.5q0 10 18 19l28 12q65 43 84 43q7 0 17 -13.5t10 -21.5v-3q-23 -66 -23 -96q0 -49 2 -147.5 t2 -147.5q0 -88 1 -100q3 -63 17 -96q25 -57 78 -59q10 0 40 30q34 34 61 78l2 198q0 49 -2 107q-1 52 -1 137q0 28 -5 31q-10 1 -26 7q-8 9 -8 22q0 11 17 18q27 12 28 13q60 43 85 43q5 0 7 -2q25 -25 19 -36q-21 -44 -21 -96v-144q1 -84 1 -100q0 -255 10 -287 q3 -11 18 -18q20 -10 25 -15t5 -9q0 -7 -13 -18q-2 -1 -31 -4q-10 -2 -25 3t-24 5q-8 0 -21 -4.5t-22 -3.5q-9 0 -23 8v18q0 7 2 18t2 23v29zM220 856q0 -22 -11 -41h-1q-1 0 -11 -8.5t-12 -9.5q-32 -18 -49 -18q-39 0 -39 43q0 6 15 40q0 5 5 17q16 16 33 20q4 1 37 4 q33 2 33 -47zM424 856q0 -22 -11 -41h-1q-1 0 -11 -8.5t-12 -9.5q-32 -18 -49 -18q-39 0 -39 43q0 6 15 40q0 5 5 17q16 16 33 20q4 1 37 4q33 2 33 -47z" />
<glyph unicode="&#xfd;" d="M16 0zM491 682q-23 -45 -23 -95v-101q0 -195 -58 -433q-66 -273 -169 -398q-9 -2 -31 7q60 115 111 342q-78 15 -168 87q-62 51 -83 170q-15 82 -15 246q0 -3 -2 38q-1 25 2 42q4 24 -5 31q-9 0 -25 7q-9 7 -9 21t15.5 20t30.5 12q75 43 86 43q4 0 7 -3q24 -25 19 -36 q-23 -46 -23 -95q0 -60 2 -123t2 -78q0 -154 17 -195q48 -111 142 -148q12 1 18 11q40 194 40 334q0 3 -1 55.5t-1 84.5q0 46 2 59q4 24 -5 31q-9 0 -25 7q-9 7 -9 21t15.5 20t30.5 12q75 43 86 43q4 0 6 -3q25 -25 20 -36zM417 995q18 -4 -274 -215l-23 13q83 73 219 199 q19 18 32 18q6 0 20.5 -6.5t25.5 -8.5z" />
<glyph unicode="&#xfe;" horiz-adv-x="533" d="M172 25q217 124 217 444q0 47 -14 107q-18 83 -49 83q-41 0 -155 -183l1 -256v-195zM493 498q0 -186 -78 -320q-86 -148 -243 -183q1 -53 3.5 -61.5t5.5 -15.5q4 -12 19 -19q20 -10 25 -15t5 -9q0 -7 -12 -17q-2 -1 -32 -5q-14 -2 -32 3q-21 5 -33 5t-31.5 -4.5 t-27.5 -3.5q-14 0 -32 8q-3 5 0 18q1 10 22.5 20t21.5 21q0 23 2 148q2 120 2 152q0 35 -2 218q-2 160 -2 250q0 27 -4 30q-11 2 -26 8q-8 9 -8 21q0 11 16 19l28 13q59 42 86 42q5 0 8 -2q24 -25 19 -35q-23 -46 -23 -96v-136q47 61 95 110q73 72 112 72q74 0 101 -87 q15 -51 15 -149z" />
<glyph unicode="&#xff;" d="M16 0zM491 682q-23 -45 -23 -95v-101q0 -195 -58 -433q-66 -273 -169 -398q-9 -2 -31 7q60 115 111 342q-78 15 -168 87q-62 51 -83 170q-15 82 -15 246q0 -3 -2 38q-1 25 2 42q4 24 -5 31q-9 0 -25 7q-9 7 -9 21t15.5 20t30.5 12q75 43 86 43q4 0 7 -3q24 -25 19 -36 q-23 -46 -23 -95q0 -60 2 -123t2 -78q0 -154 17 -195q48 -111 142 -148q12 1 18 11q40 194 40 334q0 3 -1 55.5t-1 84.5q0 46 2 59q4 24 -5 31q-9 0 -25 7q-9 7 -9 21t15.5 20t30.5 12q75 43 86 43q4 0 6 -3q25 -25 20 -36zM230 856q0 -22 -11 -41h-1q-1 0 -11 -8.5 t-12 -9.5q-32 -18 -49 -18q-39 0 -39 43q0 6 15 40q0 5 5 17q16 16 33 20q4 1 37 4q33 2 33 -47zM434 856q0 -22 -11 -41h-1q-1 0 -11 -8.5t-12 -9.5q-32 -18 -49 -18q-39 0 -39 43q0 6 15 40q0 5 5 17q16 16 33 20q4 1 37 4q33 2 33 -47z" />
<glyph unicode="&#x131;" horiz-adv-x="260" d="M231 14q0 -7 -13 -18q-1 0 -31 -4q-14 -2 -34 3t-32 5t-31.5 -4.5t-27.5 -3.5q-14 0 -32 8q-3 4 0 18q1 10 23.5 20t22.5 21q0 22 1 133q1 106 1 138q0 45 -1 113q-1 57 -1 144q0 28 -5 31q-11 1 -27 7q-8 8 -7 22q0 11 17 18q27 12 28 13q59 43 84 43q6 0 8 -2 q25 -25 19 -36q-23 -46 -23 -96q0 -60 1.5 -151t1.5 -106q0 -242 9 -274q4 -11 19 -18q20 -10 25 -15t5 -9z" />
<glyph unicode="&#x152;" horiz-adv-x="889" d="M850 70q0 -35 -5 -48q-9 -23 -35 -23h-507v3q-8 -4 -13 -4q-26 0 -84 73q-67 84 -111 194q-55 138 -55 277q0 194 42 289q58 133 208 133q26 0 50 -4h468q26 0 34 -23q5 -13 5 -48q0 -12 -14 -59q-16 -51 -25 -51q-4 0 -21 37q-21 46 -40 69q-30 38 -66 38h-251 q65 -49 92 -160q19 -83 19 -221h209l35 -40q3 -9 -2 -19t-10 -13t-20 4.5t-23 7.5q7 0 -32.5 5.5t-79.5 5.5q-35 0 -79 -6q-10 -147 -75 -281q-51 -104 -117 -170h336q36 0 66 38q19 23 40 69q17 37 21 37q9 0 25 -51q15 -46 15 -59zM421 735q-5 52 -16 85q-18 51 -34 68 q-26 27 -81 27t-81 -27q-17 -17 -34 -68q-12 -33 -16 -85q-4 -44 -7 -89q-2 -35 -2 -77q0 -173 37 -322q42 -168 103 -168q62 0 103 160q37 144 37 319q0 73 -9 177z" />
<glyph unicode="&#x153;" horiz-adv-x="804" d="M515 238q57 46 104 108q55 73 55 120q0 53 -32 135q-37 95 -78 95q-82 0 -82 -178q0 -134 33 -280zM426 172q-39 -83 -97 -145q-48 -52 -69 -52t-75 58q-63 68 -101 155q-50 110 -44 220q19 326 220 326q110 0 168 -102q56 102 151 102q79 0 132 -64t53 -150 q0 -72 -84 -176q-70 -88 -154 -150q7 -27 15 -53t55 -103q23 -36 46 -73l-15 -20q-145 116 -201 227zM370 485q-9 116 -16 141q-22 70 -94 70q-73 0 -95 -70q-8 -24 -17 -141q-1 -23 -1 -48q0 -133 36 -263q37 -134 77 -134t76 127t36 263q0 29 -2 55z" />
<glyph unicode="&#x178;" horiz-adv-x="520" d="M0 0zM366 386q2 2 -6.5 -8.5t-23.5 -30.5q-31 -42 -31 -69q0 -190 9 -222q4 -11 19 -18q20 -10 25 -15t5 -10q0 -7 -12 -17q-1 0 -32 -4q-13 -2 -33 3t-32 5t-31 -4.5t-28 -3.5q-14 0 -32 8q-2 4 0 18q1 10 22.5 20t21.5 21q0 39 3 219q0 22 -21 63q-132 144 -132 339 l1 97q0 78 -10 107q-3 12 -18 19q-20 10 -25 15t-5 10q0 7 12 16q2 2 32 5q13 2 33 -3t31 -5q12 0 31.5 4.5t27.5 3.5q14 0 33 -8q2 -4 0 -18q-2 -10 -23.5 -20t-21.5 -21q0 -26 -1.5 -47t-1.5 -50l-1 -60q-1 -122 42 -252q40 -121 68 -121t66 101q43 112 43 230q0 21 -2 42 l8 54q0 80 -8 105q-3 12 -18 19q-20 10 -25 15t-5 10q0 7 12 16q2 2 31 5q14 2 34 -3t31 -5q12 0 31.5 4.5t27.5 3.5q14 0 33 -8q2 -4 0 -18q-2 -10 -23.5 -20t-21.5 -21t-5 -104l-5 -98q-7 -157 -95 -288zM220 1096q0 -22 -11 -41h-1q-1 0 -11 -8.5t-12 -9.5 q-32 -18 -49 -18q-39 0 -39 43q0 6 15 40q0 5 5 17q16 16 33 20q4 1 37 4q33 2 33 -47zM424 1096q0 -22 -11 -41h-1q-1 0 -11 -8.5t-12 -9.5q-32 -18 -49 -18q-39 0 -39 43q0 6 15 40q0 5 5 17q16 16 33 20q4 1 37 4q33 2 33 -47z" />
<glyph unicode="&#x2c6;" horiz-adv-x="265" d="M262.5 843.5q13.5 -40.5 13.5 -59.5q0 -9 -3 -9q-5 0 -33 39q-35 48 -54 66.5t-53 49.5q-16 -15 -52 -49q-18 -19 -54 -67q-28 -39 -33 -39q-3 0 -3 9q0 18 13 57q14 43 31 70q25 41 94 95q22 -16 41 -30q44 -36 61.5 -64t31 -68.5z" />
<glyph unicode="&#x2dc;" horiz-adv-x="549" d="M509 913q-33 -60 -78 -111q-59 -65 -98 -65q-23 0 -77 65t-73 65q-45 0 -100 -77q-8 -18 -25 -36l-18 16q33 60 79 111q58 65 97 65q29 0 79.5 -65t70.5 -65q40 0 94 77q11 18 31 37z" />
<glyph unicode="&#x2000;" horiz-adv-x="620" />
<glyph unicode="&#x2001;" horiz-adv-x="1241" />
<glyph unicode="&#x2002;" horiz-adv-x="620" />
<glyph unicode="&#x2003;" horiz-adv-x="1241" />
<glyph unicode="&#x2004;" horiz-adv-x="413" />
<glyph unicode="&#x2005;" horiz-adv-x="310" />
<glyph unicode="&#x2006;" horiz-adv-x="206" />
<glyph unicode="&#x2007;" horiz-adv-x="206" />
<glyph unicode="&#x2008;" horiz-adv-x="155" />
<glyph unicode="&#x2009;" horiz-adv-x="248" />
<glyph unicode="&#x200a;" horiz-adv-x="68" />
<glyph unicode="&#x2010;" horiz-adv-x="402" d="M360 385q3 -5 3 -11q0 -23 -15 -34q-2 -1 -4 -1q-4 0 -17 9t-20 9q7 0 -30 7.5t-75 7.5t-76 -7.5t-31 -7.5q-7 0 -20 -9t-17 -9q-2 0 -4 1q-14 11 -14 33q0 7 3 12l33 55h250z" />
<glyph unicode="&#x2011;" horiz-adv-x="402" d="M360 385q3 -5 3 -11q0 -23 -15 -34q-2 -1 -4 -1q-4 0 -17 9t-20 9q7 0 -30 7.5t-75 7.5t-76 -7.5t-31 -7.5q-7 0 -20 -9t-17 -9q-2 0 -4 1q-14 11 -14 33q0 7 3 12l33 55h250z" />
<glyph unicode="&#x2012;" horiz-adv-x="402" d="M360 385q3 -5 3 -11q0 -23 -15 -34q-2 -1 -4 -1q-4 0 -17 9t-20 9q7 0 -30 7.5t-75 7.5t-76 -7.5t-31 -7.5q-7 0 -20 -9t-17 -9q-2 0 -4 1q-14 11 -14 33q0 7 3 12l33 55h250z" />
<glyph unicode="&#x2013;" horiz-adv-x="522" d="M480 385q3 -5 3 -11q0 -23 -15 -34q-2 -1 -4 -1q-4 0 -17 9t-20 9q7 0 -60 7.5t-105 7.5t-106 -7.5t-61 -7.5q-7 0 -19.5 -9t-17.5 -9q-2 0 -4 1q-14 11 -14 33q0 7 4 12l32 55h370z" />
<glyph unicode="&#x2014;" horiz-adv-x="762" d="M720 385q3 -5 3 -11q0 -23 -15 -34q-2 -1 -4 -1q-4 0 -17 9t-20 9q7 0 -120 7.5t-165 7.5t-166 -7.5t-121 -7.5q-7 0 -19.5 -9t-17.5 -9q-2 0 -4 1q-14 11 -14 33q0 7 4 12l32 55h610z" />
<glyph unicode="&#x2018;" horiz-adv-x="229" d="M189 950q-21 -56 -40.5 -110.5t-25.5 -100.5q-3 -22 -23 -22q-23 0 -60 25q11 34 43 89q38 61 75 122q9 2 31 -3z" />
<glyph unicode="&#x2019;" horiz-adv-x="229" d="M189 923q-11 -34 -44 -88q-37 -61 -75 -122q-8 -3 -30 3l40 110t25 101q3 22 23 22q23 0 61 -26z" />
<glyph unicode="&#x201a;" horiz-adv-x="256" d="M216 94q-16 -32 -55 -81q-46 -55 -91 -110q-4 1 -6 1v0q-7 -1 -24 6q28 52 55 103.5t39 95.5q5 19 21 19q24 0 61 -34z" />
<glyph unicode="&#x201c;" horiz-adv-x="349" d="M309 950q-21 -56 -40.5 -110.5t-25.5 -100.5q-3 -22 -23 -22q-23 0 -60 25q11 34 43 89q38 61 75 122q9 2 31 -3zM189 950q-21 -56 -40.5 -110.5t-25.5 -100.5q-3 -22 -23 -22q-23 0 -60 25q11 34 43 89q38 61 75 122q9 2 31 -3z" />
<glyph unicode="&#x201d;" horiz-adv-x="349" d="M309 923q-11 -34 -44 -88q-37 -61 -75 -122q-8 -3 -30 3l40 110t25 101q3 22 23 22q23 0 61 -26zM189 923q-11 -34 -44 -88q-37 -61 -75 -122q-8 -3 -30 3l40 110t25 101q3 22 23 22q23 0 61 -26z" />
<glyph unicode="&#x201e;" horiz-adv-x="436" d="M396 94q-16 -32 -55 -81q-46 -55 -91 -110q-4 1 -6 1v0q-7 -1 -24 6q28 52 55 103.5t39 95.5q5 19 21 19q24 0 61 -34zM216 94q-16 -32 -55 -81q-46 -55 -91 -110q-4 1 -6 1v0q-7 -1 -24 6q28 52 55 103.5t39 95.5q5 19 21 19q24 0 61 -34z" />
<glyph unicode="&#x2022;" horiz-adv-x="323" d="M283 425q0 -52 -46 -94.5t-98 -42.5q-45 0 -72 29t-27 74q0 15 6 30t12 29q29 81 119 81q48 0 77 -29t29 -77z" />
<glyph unicode="&#x2026;" horiz-adv-x="611" d="M163 65q0 -22 -11 -41h-1q-1 0 -11 -8.5t-12 -9.5q-32 -18 -49 -18q-39 0 -39 43q0 6 15 40q0 5 5 17q16 16 33 20q4 1 37 4q33 2 33 -47zM367 65q0 -22 -11 -41h-1q-1 0 -11 -8.5t-12 -9.5q-32 -18 -49 -18q-39 0 -39 43q0 6 15 40q0 5 5 17q16 16 33 20q4 1 37 4 q33 2 33 -47zM571 65q0 -22 -11 -41h-1q-1 0 -11 -8.5t-12 -9.5q-32 -18 -49 -18q-39 0 -39 43q0 6 15 40q0 5 5 17q16 16 33 20q4 1 37 4q33 2 33 -47z" />
<glyph unicode="&#x202f;" horiz-adv-x="248" />
<glyph unicode="&#x2039;" horiz-adv-x="356" d="M317 453q-1 -7 -34 -40q-52 -55 -169 -172l195 -226l-30 -20l-239 245q188 176 193 205q7 34 31 34q9 0 24 -5q21 -7 22 -8q8 -2 7 -13z" />
<glyph unicode="&#x203a;" horiz-adv-x="339" d="M299 249l-224 -251l-34 6l183 243q-166 150 -177 173q-7 15 -7 27q0 20 17 24q10 1 42 -5q5 -1 200 -217z" />
<glyph unicode="&#x205f;" horiz-adv-x="310" />
<glyph unicode="&#x2122;" horiz-adv-x="436" d="M253 693q2 -2 -2 -8q-1 0 -6 -1q-4 0 -9.5 1t-8.5 1q-6 -1 -17 -2q-5 0 -6 2t0 5q0 3 5 6t5 6v57q1 47 1 58q0 106 -3 115l-9 9q-5 5 2 8q2 1 6 1q1 0 3.5 -1t4.5 -1q5 1 16 2q7 -2 7 -5q13 -10 26 -38q22 -50 32 -92q9 42 31 92q13 28 26 38q0 3 7 5q5 -1 16 -2 q15 1 9 2q2 0 6 -1q5 -4 2 -8q-4 -1 -10 -9q-2 -9 -2 -115v-58q1 -51 1 -55.5t4.5 -7.5t4.5 -6q1 -3 0 -5t-6 -2q-2 0 -7.5 1t-9.5 1q-5 -1 -18 -2q-2 0 -6 1q-5 5 -2 8q4 2 10 9q2 9 2 116v68q-1 6 -3 7q-1 1 -5 -6t-9 -19q-30 -66 -34 -125l-1 -7q-1 -13 0 -28q-1 0 -6 1 q-6 -1 -7 -1q1 15 0 28l-1 7q-4 59 -34 125q-2 6 -8 20q-5 6 -6 5q-2 -1 -3 -7v-68q0 -107 2 -116q3 -2 10 -9zM141 693q2 -2 -2 -8q-1 0 -6 -1q-4 0 -9.5 1t-8.5 1t-8.5 -1t-8.5 -1q-5 0 -6 2t0 5t5.5 6t4.5 6v57q1 47 1 58q0 106 -3 115q-1 3 -7 8h-7q-14 0 -25 -20 t-10 -20q-3 0 -7 13.5t-4 16.5q0 20 11 20h130q11 0 11 -20q0 -3 -4 -16.5t-7 -13.5l-10.5 20t-24.5 20h-8l-8 -9q0 -6 -1 -57v-58q0 -106 3 -115z" />
<glyph unicode="&#xe000;" horiz-adv-x="720" d="M0 720h720v-720h-720v720z" />
<glyph horiz-adv-x="98" d="M0 0z" />
</font>
</defs>
</svg>
