<?xml version="1.0" standalone="no"?>
<!DOCTYPE svg PUBLIC "-//W3C//DTD SVG 1.1//EN" "http://www.w3.org/Graphics/SVG/1.1/DTD/svg11.dtd" >
<svg xmlns="http://www.w3.org/2000/svg">
<metadata></metadata>
<defs>
<font id="amaranthregular" horiz-adv-x="506" >
<font-face units-per-em="1000" ascent="750" descent="-250" />
<missing-glyph horiz-adv-x="220" />
<glyph horiz-adv-x="1000" />
<glyph horiz-adv-x="1000" />
<glyph unicode="&#xd;" horiz-adv-x="1000" />
<glyph unicode=" "  horiz-adv-x="220" />
<glyph unicode="&#x09;" horiz-adv-x="220" />
<glyph unicode="&#xa0;" horiz-adv-x="220" />
<glyph unicode="!" horiz-adv-x="330" d="M56 59q0 35 22.5 59.5t59.5 24.5q34 0 51.5 -18.5t17.5 -51.5q0 -35 -23 -59.5t-60 -24.5q-33 0 -50.5 19t-17.5 51zM107 220l84 449h124l-112 -449h-96z" />
<glyph unicode="&#x22;" horiz-adv-x="386" d="M80 426l39 243h93l-54 -243h-78zM244 426l39 243h93l-54 -243h-78z" />
<glyph unicode="#" horiz-adv-x="619" d="M20 144l25 77h98l48 155h-105l26 78h104l43 136h83l-43 -136h114l44 136h82l-43 -136h93l-25 -78h-93l-48 -155h100l-26 -77h-98l-45 -144h-82l45 144h-115l-45 -144h-83l45 144h-99zM225 221h115l49 155h-115z" />
<glyph unicode="$" horiz-adv-x="531" d="M10 130l84 45q37 -74 106 -74q109 0 109 83q0 55 -59 91l-70 43q-41 25 -59 57t-18 79q0 65 45.5 108.5t122.5 53.5l15 78h79l-15 -78q95 -12 121 -94l-85 -46l-5 10q-5 10 -7 13t-9 11t-13.5 11.5t-18 6.5t-25.5 3q-39 0 -62.5 -18t-23.5 -46q0 -47 46 -76l75 -46 q82 -52 82 -137q0 -82 -52.5 -133.5t-136.5 -62.5l-18 -95h-78l17 96q-53 10 -92 40.5t-55 76.5z" />
<glyph unicode="%" horiz-adv-x="846" d="M55 351q0 104 51.5 172t140.5 68q63 0 91 -34.5t28 -86.5q0 -102 -51.5 -170.5t-140.5 -68.5q-63 0 -91 34t-28 86zM153 346q0 -45 32 -45q34 0 58.5 58t24.5 116q0 46 -34 46t-57.5 -58t-23.5 -117zM173 0l375 587h100l-376 -587h-99zM460 117q0 104 51.5 172t140.5 68 q62 0 90.5 -34.5t28.5 -86.5q0 -102 -51.5 -170.5t-140.5 -68.5q-63 0 -91 33.5t-28 86.5zM558 112q0 -25 7.5 -35t24.5 -10q34 0 58.5 58t24.5 116q0 46 -34 46t-57.5 -58t-23.5 -117z" />
<glyph unicode="&#x26;" horiz-adv-x="554" d="M5 141q0 81 37 133.5t109 91.5q-8 24 -8 54q0 73 50.5 124t144.5 51q46 0 73.5 -21.5t48.5 -60.5l-70 -51q-19 40 -60 40q-35 0 -54 -20.5t-19 -52.5q0 -77 116 -213q28 35 66 91l73 -49q-35 -67 -73 -117q48 -52 75 -79l-65 -67q-11 12 -24 24.5t-28.5 28l-24.5 24.5 q-91 -78 -208 -78q-70 0 -114.5 40t-44.5 107zM125 167q0 -33 20 -54t57 -21q47 0 102 50q-82 85 -119 148q-60 -55 -60 -123z" />
<glyph unicode="'" horiz-adv-x="222" d="M80 426l39 243h93l-54 -243h-78z" />
<glyph unicode="(" horiz-adv-x="375" d="M55 137q0 172 80.5 331.5t222.5 257.5l47 -68q-112 -84 -176 -223.5t-64 -287.5q0 -96 28 -164t64 -106l-68 -61q-48 41 -91 127t-43 194z" />
<glyph unicode=")" horiz-adv-x="365" d="M-40 -116q113 84 176.5 223t63.5 288q0 96 -28 164t-64 106l69 61q48 -41 90.5 -127t42.5 -194q0 -171 -80 -331t-222 -258z" />
<glyph unicode="*" horiz-adv-x="427" d="M80 526l33 78l98 -42l16 117l87 -9l-30 -108l111 44l22 -81l-123 -35l61 -96l-76 -48l-52 102l-78 -99l-64 56l91 87z" />
<glyph unicode="+" horiz-adv-x="517" d="M55 255l17 87h143l29 153h92l-29 -153h144l-16 -87h-145l-30 -159h-91l30 159h-144z" />
<glyph unicode="," horiz-adv-x="248" d="M-60 -92q90 60 90 148q0 40 -3 66q22 18 68 18q53 0 53 -54q0 -68 -55 -135t-120 -98z" />
<glyph unicode="-" horiz-adv-x="370" d="M40 274l17 83h273l-16 -83h-274z" />
<glyph unicode="." horiz-adv-x="231" d="M-5 59q0 35 22.5 59.5t58.5 24.5q70 0 70 -70q0 -35 -23 -59.5t-60 -24.5q-33 0 -50.5 19t-17.5 51z" />
<glyph unicode="/" horiz-adv-x="401" d="M-79 -126l466 855h115l-469 -855h-112z" />
<glyph unicode="0" horiz-adv-x="573" d="M40 179q0 124 33.5 225t105.5 165.5t172 64.5q90 0 136 -49.5t46 -142.5q0 -123 -33.5 -224.5t-105.5 -166t-172 -64.5q-90 0 -136 49.5t-46 142.5zM162 197q0 -123 76 -123q53 0 93.5 54.5t60 133t19.5 162.5q0 123 -76 123q-53 0 -93.5 -54.5t-60 -133t-19.5 -162.5z " />
<glyph unicode="1" horiz-adv-x="376" d="M30 504q45 13 72.5 23t69.5 35.5t83 63.5h86l-121 -626h-116l96 492q-79 -53 -136 -70z" />
<glyph unicode="2" horiz-adv-x="499" d="M-5 0v91l161 152q113 107 140 141q37 49 37 98q0 64 -59 64q-35 0 -66 -11t-84 -38l-32 80q114 56 204 56q79 0 121 -35t42 -98q0 -31 -10 -61.5t-22.5 -52.5t-41.5 -55t-48.5 -51.5t-62.5 -59.5q-11 -11 -17 -16l-122 -113h263l-18 -91h-385z" />
<glyph unicode="3" horiz-adv-x="486" d="M-25 44l41 85q48 -26 78 -37t68 -11q56 0 92.5 36t36.5 99q0 37 -17.5 60t-50.5 23q-32 0 -97 -12l-16 78q16 6 44.5 15t43.5 14.5t37 14.5t33.5 16.5t24 18.5t17.5 24t5 28q0 19 -14 34.5t-38 15.5q-34 0 -63 -10.5t-83 -38.5l-33 80q64 31 106 44t97 13q78 0 113.5 -34 t35.5 -88q0 -49 -29.5 -90t-94.5 -55q50 -16 74.5 -55t24.5 -84q0 -101 -69 -167.5t-192 -66.5q-94 0 -175 50z" />
<glyph unicode="4" horiz-adv-x="522" d="M16 175v65l248 394h113l-237 -372h150l39 204l121 21l-44 -225h81l-17 -87h-81l-34 -175h-115l33 175h-257z" />
<glyph unicode="5" horiz-adv-x="482" d="M-10 44l42 85q48 -26 78 -37t68 -11q129 0 129 135q0 99 -76 99q-49 0 -126 -28l-39 35l89 304h311l-17 -91h-215l-47 -151q34 20 76 20q83 0 123 -53t40 -124q0 -114 -66.5 -173.5t-194.5 -59.5q-92 0 -175 50z" />
<glyph unicode="6" horiz-adv-x="517" d="M41 178q0 94 18.5 173.5t56 144t101.5 101.5t148 37q61 0 112 -27l-33 -79q-41 18 -100 18q-64 0 -105.5 -54.5t-60.5 -142.5q64 64 143 64t114.5 -41t35.5 -106q0 -125 -69 -202t-180 -77q-90 0 -135.5 49.5t-45.5 141.5zM162 197q0 -123 76 -123q55 0 87 50.5t32 121.5 q0 81 -74 81q-56 0 -117 -46q-4 -37 -4 -84z" />
<glyph unicode="7" horiz-adv-x="433" d="M16 0l286 535h-241l-18 91h399v-72l-297 -554h-129z" />
<glyph unicode="8" d="M20 118q0 128 154 211q-73 49 -73 115q0 82 62 136t162 54q71 0 113.5 -33.5t42.5 -87.5q0 -62 -35.5 -104t-94.5 -75q40 -25 64.5 -65.5t24.5 -83.5q0 -87 -72.5 -142t-169.5 -55q-81 0 -129.5 33.5t-48.5 96.5zM138 132q0 -28 22 -46.5t60 -18.5q40 0 69.5 30.5 t29.5 74.5q0 55 -65 114q-116 -66 -116 -154zM216 458q0 -51 54 -82q43 21 68.5 48.5t25.5 70.5q0 60 -59 60q-41 0 -65 -26t-24 -71z" />
<glyph unicode="9" horiz-adv-x="518" d="M41 14l33 79q40 -18 99 -18q64 0 105.5 54.5t61.5 142.5q-66 -64 -143 -64q-79 0 -114.5 41t-35.5 106q0 125 69 202t180 77q90 0 135.5 -50t45.5 -142q0 -74 -11 -140t-36 -124t-62.5 -100t-92 -66.5t-122.5 -24.5q-61 0 -112 27zM161 375q0 -81 74 -81q33 0 66 16 t49 29q5 48 5 85q0 123 -75 123q-55 0 -87 -50.5t-32 -121.5z" />
<glyph unicode=":" horiz-adv-x="300" d="M35 59q0 35 22.5 59.5t58.5 24.5q70 0 70 -70q0 -35 -23 -59.5t-60 -24.5q-33 0 -50.5 19t-17.5 51zM104 413q0 36 22.5 60.5t58.5 24.5q70 0 70 -71q0 -34 -23 -58.5t-60 -24.5q-33 0 -50.5 19t-17.5 50z" />
<glyph unicode=";" horiz-adv-x="302" d="M-31 -92q90 60 90 148q0 40 -3 66q22 18 68 18q53 0 53 -54q0 -68 -55 -135t-119 -98zM91 413q0 36 22 60.5t59 24.5q69 0 69 -71q0 -34 -22.5 -58.5t-59.5 -24.5q-34 0 -51 19t-17 50z" />
<glyph unicode="&#x3c;" horiz-adv-x="447" d="M25 258v77l364 166l32 -87l-203 -88q-39 -17 -64 -25q35 -15 56 -27l173 -91l-55 -92z" />
<glyph unicode="=" horiz-adv-x="523" d="M60 173l18 88h350l-17 -88h-351zM94 348l18 88h350l-17 -88h-351z" />
<glyph unicode="&#x3e;" horiz-adv-x="447" d="M25 177l204 88q39 17 64 25q-35 15 -56 27l-174 92l56 92l302 -168v-77l-363 -165z" />
<glyph unicode="?" horiz-adv-x="443" d="M50 59q0 35 22.5 59.5t59.5 24.5q34 0 51.5 -18.5t17.5 -51.5q0 -35 -23 -59.5t-60 -24.5q-33 0 -50.5 19t-17.5 51zM102 626q114 50 183 50q79 0 120.5 -35t41.5 -97q0 -32 -8 -59t-27 -51.5t-32 -38t-40.5 -37.5t-36.5 -32q-76 -71 -107 -140l-78 23q9 46 43 96t69 84 t63.5 72t28.5 64q0 64 -68 64q-15 0 -31.5 -4.5t-27 -9t-31 -14.5t-29.5 -14z" />
<glyph unicode="@" horiz-adv-x="849" d="M20 98q0 160 72 280t187 179t253 59q125 0 206 -67t81 -193q0 -84 -26.5 -165.5t-81 -139t-123.5 -57.5q-78 0 -78 105q0 16 9 72l-17 -39q-60 -138 -180 -138q-64 0 -96.5 44t-32.5 107q0 134 73 222.5t200 88.5q53 0 107 -22l61 -4l-33 -191q-17 -94 -17 -122 q0 -44 25 -44q47 0 86 94.5t39 166.5q0 204 -227 204q-79 0 -151.5 -29t-128.5 -81.5t-89 -134t-33 -178.5q0 -99 48.5 -149.5t167.5 -50.5q34 0 76.5 9.5t67.5 18.5l25 9l19 -67q-105 -47 -202 -47q-59 0 -108 13t-90.5 42t-65 81t-23.5 124zM311 146q0 -70 47 -70 q42 0 84 78.5t59 158.5l13 61q-19 9 -51 9q-52 0 -88 -39t-50 -90.5t-14 -107.5z" />
<glyph unicode="A" horiz-adv-x="570" d="M-39 19l365 650h91l128 -669h-122l-29 180h-224l-95 -188zM211 263h171q-19 119 -35 266q-73 -141 -136 -266z" />
<glyph unicode="B" horiz-adv-x="550" d="M15 0l130 673l92 -8q46 10 97 10q200 0 200 -146q0 -117 -124 -176q88 -37 88 -134q0 -101 -82.5 -160.5t-210.5 -59.5h-43.5t-45 0.5t-38.5 0.5h-29.5h-12.5h-21zM146 79h50q81 0 129 34.5t48 92.5q0 48 -25 73t-88 25h-71zM206 389h40q86 0 125 32t39 84q0 90 -106 90 q-36 0 -59 -4z" />
<glyph unicode="C" horiz-adv-x="502" d="M40 208q0 92 22.5 176t65 151t111.5 107t154 40q117 0 135 -104l-89 -40q-14 57 -65 57t-92 -36t-65 -92.5t-36.5 -118.5t-12.5 -122q0 -152 126 -152q61 0 125 23l18 -76q-77 -34 -177 -34q-220 0 -220 221z" />
<glyph unicode="D" horiz-adv-x="647" d="M15 0l130 673l89 -7q74 16 153 16q220 0 220 -221q0 -105 -20.5 -186t-67 -145t-127.5 -98t-195 -34h-46t-42.5 0.5t-34 1t-24.5 0.5h-9h-26zM147 88h70q72 0 124.5 29.5t81.5 81t42.5 112.5t13.5 133q0 151 -126 151q-67 0 -110 -14z" />
<glyph unicode="E" d="M15 0l130 669h385l-17 -84h-269l-37 -192h217l-18 -83h-215l-44 -226h277v-84h-409z" />
<glyph unicode="F" horiz-adv-x="467" d="M15 0l130 669h385l-17 -84h-269l-38 -201h218l-18 -83h-217l-58 -301h-116z" />
<glyph unicode="G" horiz-adv-x="594" d="M36 -162l41 89q6 -3 30.5 -13.5t37 -15.5t34 -12.5t40 -10.5t36.5 -3q45 0 79.5 24t42.5 59l27 128q-29 -45 -77.5 -70.5t-105.5 -25.5q-87 0 -134 58t-47 163q0 74 14 142t44 129t73.5 106t107 71t139.5 26q112 0 136 -98l-88 -40q-6 16 -12.5 25t-24 17.5t-44.5 8.5 q-55 0 -98.5 -36t-68.5 -93t-37.5 -118.5t-12.5 -121.5q0 -69 25 -110.5t77 -41.5q45 0 89.5 42t56.5 105l21 107h113l-70 -365q-16 -80 -80 -132.5t-158 -52.5q-86 0 -206 60z" />
<glyph unicode="H" horiz-adv-x="647" d="M5 0l130 669h115l-54 -276h266l54 276h115l-130 -669h-115l60 310h-265l-61 -310h-115z" />
<glyph unicode="I" horiz-adv-x="276" d="M15 0l130 669h116l-130 -669h-116z" />
<glyph unicode="J" horiz-adv-x="277" d="M-115 -147q63 29 92.5 64.5t41.5 95.5l128 656h115l-125 -644q-11 -54 -29 -92.5t-48 -66.5t-58.5 -46t-77.5 -43z" />
<glyph unicode="K" horiz-adv-x="561" d="M15 0l130 669h117l-130 -669h-117zM213 366l3 7q91 33 172.5 107.5t81.5 140.5q0 15 -6 35l104 23q13 -25 13 -60q0 -47 -24.5 -94.5t-62 -84t-76 -63.5t-71.5 -40q19 -81 77.5 -197t122.5 -192l-96 -51q-92 119 -138.5 216t-99.5 253z" />
<glyph unicode="L" horiz-adv-x="420" d="M20 0l130 669h116l-115 -585h239v-84h-370z" />
<glyph unicode="M" horiz-adv-x="812" d="M10 14l161 655h94l83 -413q16 -92 19 -113q7 12 19 35.5t22.5 42.5t19.5 35l243 413h93l-75 -669h-118l38 255q7 48 36 191q-67 -131 -103 -188l-156 -258h-81l-57 255q-3 14 -36 190q-21 -152 -29 -187l-57 -261z" />
<glyph unicode="N" horiz-adv-x="658" d="M15 14l124 655h90l157 -340q10 -22 31 -71t28 -65q9 81 18 133l64 348l111 -18l-124 -657h-89l-161 344q-19 39 -57 133q-8 -87 -17 -135l-64 -345z" />
<glyph unicode="O" horiz-adv-x="668" d="M40 208q0 93 23 176.5t66.5 150.5t115.5 107t163 40q220 0 220 -221q0 -93 -23 -176.5t-66.5 -150.5t-115.5 -107t-163 -40q-220 0 -220 221zM168 226q0 -152 126 -152q51 0 92 36t65 92.5t36.5 119t12.5 122.5q0 151 -126 151q-51 0 -92 -36t-65 -92.5t-36.5 -118.5 t-12.5 -122z" />
<glyph unicode="P" horiz-adv-x="545" d="M15 0l130 673l93 -8q46 10 97 10q199 0 199 -146q0 -121 -81 -192t-205 -71q-42 0 -66 2l-51 -268h-116zM199 354h25q93 0 139.5 39.5t46.5 111.5q0 90 -106 90q-36 0 -59 -4z" />
<glyph unicode="Q" horiz-adv-x="666" d="M55 349q0 58 24.5 117t68.5 107t111.5 78.5t146.5 30.5q220 0 220 -221q0 -105 -35 -202.5t-93 -168.5t-134 -115.5t-156 -49.5q30 -86 123 -86q78 0 199 75l38 -88q-126 -84 -247 -84q-90 0 -151.5 46.5t-78.5 148.5l34 66q23 -5 44 -5q82 0 158.5 62t123.5 166t47 218 q0 151 -126 151q-79 0 -133 -77t-54 -163q0 -47 19.5 -66t65.5 -25l-9 -84q-10 -3 -37 -3q-70 0 -119.5 46.5t-49.5 125.5z" />
<glyph unicode="R" horiz-adv-x="556" d="M15 0l130 673l93 -8q46 10 97 10q199 0 199 -146q0 -94 -52 -149t-142 -74q23 -78 82.5 -181t122.5 -178l-94 -50q-88 112 -130 194t-85 207q-31 0 -48 1l-57 -299h-116zM204 379h20q94 0 140 28.5t46 97.5q0 90 -106 90q-36 0 -59 -4z" />
<glyph unicode="S" horiz-adv-x="500" d="M-15 44l50 88q97 -58 153 -58q58 0 91.5 26.5t33.5 78.5q0 33 -15 55.5t-48 46.5l-75 56q-49 35 -71 70t-22 91q0 86 63 135t162 49q80 0 115 -33.5t48 -85.5l-84 -39l-6 16q-7 15 -10.5 20t-12.5 16t-21.5 15t-28.5 4q-40 0 -68 -24t-28 -59q0 -33 14.5 -52.5 t47.5 -43.5l80 -59q88 -66 88 -164q0 -97 -74 -152t-175 -55q-46 0 -90 11t-63.5 20t-53.5 27z" />
<glyph unicode="T" horiz-adv-x="455" d="M55 585v84h469l-18 -84h-169l-113 -585h-116l114 585h-167z" />
<glyph unicode="U" horiz-adv-x="652" d="M45 177q0 33 8 73l81 419h116l-80 -410q-6 -33 -6 -59q0 -60 30.5 -93t84.5 -33q63 0 104.5 50t57.5 135l80 410h116l-81 -419q-22 -115 -96.5 -186.5t-209.5 -71.5q-107 0 -156 50t-49 135z" />
<glyph unicode="V" horiz-adv-x="570" d="M35 669h123l60 -369q13 -84 20 -139q23 46 71 139l196 377l115 -27l-365 -650h-92z" />
<glyph unicode="W" horiz-adv-x="839" d="M45 669h123l25 -370q3 -40 3 -125q20 59 52 125l173 370h102l30 -369q4 -59 4 -122q40 98 51 122l176 377l115 -27l-338 -650h-92l-35 366q-4 47 -6 119q-25 -71 -46 -115l-181 -370h-92z" />
<glyph unicode="X" horiz-adv-x="569" d="M-40 19l266 348l-132 302h124l71 -163q4 -9 13 -32.5t14 -35.5q22 35 46 67l128 174l103 -36l-225 -295l142 -348h-125l-80 200q-14 34 -28 76q-28 -43 -53 -76l-152 -208z" />
<glyph unicode="Y" horiz-adv-x="459" d="M40 669h118l66 -259q72 171 224 275l70 -56q-114 -109 -156 -163q-107 -136 -127 -320q-5 -51 -5 -108v-38h-115v40q0 128 44 235z" />
<glyph unicode="Z" horiz-adv-x="517" d="M-10 0v62l370 523q-2 0 -15.5 -0.5t-17.5 -0.5h-226l16 85h405v-63l-372 -523q8 0 24.5 0.5t26.5 0.5h235v-84h-446z" />
<glyph unicode="[" horiz-adv-x="375" d="M30 -186l173 906h222l-17 -88h-116l-141 -730h118l-16 -88h-223z" />
<glyph unicode="\" horiz-adv-x="404" d="M100 729h105l149 -855h-106z" />
<glyph unicode="]" horiz-adv-x="395" d="M-60 -186l17 88h116l139 730h-116l16 88h223l-173 -906h-222z" />
<glyph unicode="^" horiz-adv-x="521" d="M45 328l234 342h81l106 -362l-107 -13l-47 194q-4 13 -15 75q-15 -42 -37 -76l-129 -205z" />
<glyph unicode="_" horiz-adv-x="484" d="M-14 -162l14 82h484l-15 -82h-483z" />
<glyph unicode="`" horiz-adv-x="479" d="M132 709q26 40 77 61q20 -44 54.5 -91t59.5 -73l25 -25l-48 -45q-14 9 -36 24t-67.5 60.5t-64.5 88.5z" />
<glyph unicode="a" horiz-adv-x="528" d="M30 157q0 147 75 244t206 97q64 0 119 -24l63 -4l-45 -233q-10 -53 -10 -93q0 -64 36 -118l-90 -36q-34 39 -34 99q0 19 7 80l-17 -40q-60 -137 -177 -137q-67 0 -100 48t-33 117zM149 153q0 -42 12.5 -60.5t38.5 -18.5q46 0 91.5 88.5t64.5 179.5l14 69q-20 10 -57 10 q-43 0 -76 -25t-51.5 -66t-27.5 -86t-9 -91z" />
<glyph unicode="b" horiz-adv-x="514" d="M25 41l130 664l113 20l-31 -167q-10 -53 -45 -162q57 102 159 102q67 0 100 -48t33 -117q0 -147 -75 -244t-206 -97q-43 0 -87.5 12t-67.5 24zM144 78q26 -9 57 -9q42 0 75 25.5t51.5 66t28 85.5t9.5 91q0 43 -12.5 61t-38.5 18q-46 0 -91.5 -85t-67.5 -197z" />
<glyph unicode="c" horiz-adv-x="407" d="M30 156q0 147 74.5 246.5t204.5 99.5q92 0 117 -96l-83 -36q-1 2 -4.5 10.5t-5 11t-5 9t-7 8.5t-8.5 6t-12 5t-15 1q-41 0 -73.5 -44.5t-48 -104.5t-15.5 -119q0 -83 71 -83q16 0 44.5 7t49.5 13l20 7l24 -72q-79 -36 -161 -36q-88 0 -127.5 47.5t-39.5 119.5z" />
<glyph unicode="d" horiz-adv-x="516" d="M30 157q0 147 75 244t206 97q38 0 76 -9l42 216l113 20l-94 -487q-10 -53 -10 -94q0 -64 36 -118l-90 -36q-34 39 -34 99q0 19 7 80l-17 -40q-60 -137 -177 -137q-67 0 -100 48t-33 117zM149 153q0 -42 12.5 -60.5t38.5 -18.5q46 0 91.5 88.5t64.5 179.5l14 69 q-20 10 -57 10q-43 0 -76 -25t-51.5 -66t-27.5 -86t-9 -91z" />
<glyph unicode="e" horiz-adv-x="458" d="M30 156q0 148 74.5 247t204.5 99q144 0 144 -108q0 -86 -85 -142.5t-220 -63.5q-1 -12 -1 -35q0 -83 73 -83q23 0 61 10t65 20l26 11l23 -72q-101 -50 -198 -50q-88 0 -127.5 47.5t-39.5 119.5zM160 260q83 5 131.5 41t48.5 75q0 49 -54 49q-44 0 -76.5 -47t-49.5 -118z " />
<glyph unicode="f" horiz-adv-x="336" d="M-100 -147q70 32 103 65.5t45 94.5l77 396h-87v81h111q-22 32 -22 86q0 70 52.5 108t131.5 38q52 0 79.5 -25t40.5 -71l-83 -36q-14 51 -50 51q-66 0 -66 -74q0 -39 11 -77h117l-13 -81h-113l-75 -384q-10 -53 -29 -91.5t-51.5 -67.5t-60.5 -46t-79 -43z" />
<glyph unicode="g" horiz-adv-x="528" d="M30 157q0 147 75 244t206 97q59 0 123 -24l58 -4q-55 -251 -55 -324q0 -34 8 -88.5t8 -84.5q0 -105 -54.5 -150t-157.5 -45q-80 0 -205 60l39 84q2 -1 30.5 -13t39 -15.5t33.5 -11.5t41.5 -11t35.5 -3q45 0 72 29.5t27 73.5q0 7 -2 43.5t-2 75.5q0 9 1.5 22t3.5 30.5 t3 28.5l-19 -42q-60 -137 -176 -137q-67 0 -100 48t-33 117zM149 153q0 -79 50 -79q49 0 97.5 99t70.5 221l3 17q-29 10 -57 10q-43 0 -76 -25t-51.5 -66t-27.5 -86t-9 -91z" />
<glyph unicode="h" horiz-adv-x="541" d="M25 0l138 705l113 20l-31 -167q-16 -83 -57 -197q58 137 186 137q64 0 95.5 -32t31.5 -90q0 -56 -32.5 -150t-32.5 -130q0 -61 8 -96h-111q-4 22 -4 60q0 54 29 152t29 139q0 57 -54 57q-51 0 -99.5 -79.5t-65.5 -168.5l-31 -160h-112z" />
<glyph unicode="i" horiz-adv-x="273" d="M35 79q0 14 3 29l76 382h110l-72 -372q-2 -12 -2 -16q0 -25 17 -25q35 0 51 8v-72q-37 -18 -90 -18q-44 0 -68.5 22.5t-24.5 61.5zM127 645q0 32 20.5 54t53.5 22q62 0 62 -65q0 -30 -20.5 -52t-53.5 -22q-31 0 -46.5 17.5t-15.5 45.5z" />
<glyph unicode="j" horiz-adv-x="243" d="M-130 -147q70 32 103 65.5t45 94.5l94 477h109l-92 -465q-20 -99 -70 -148.5t-150 -99.5zM129 645q0 32 20 54t53 22q62 0 62 -65q0 -31 -20.5 -52.5t-53.5 -21.5q-61 0 -61 63z" />
<glyph unicode="k" horiz-adv-x="530" d="M25 0l138 705l113 20l-31 -168q-4 -19 -11.5 -46.5t-18.5 -64t-16 -54.5q66 106 167 106q60 0 97 -29.5t37 -85.5q0 -34 -14.5 -63.5t-35.5 -48t-42.5 -32t-35.5 -19.5l-15 -6q24 -77 60.5 -137.5t96.5 -129.5l-89 -50q-137 126 -193 343l1 10q13 3 33 10.5t49 21.5 t48.5 35.5t19.5 46.5q0 53 -50 53q-33 0 -62 -27t-49.5 -69.5t-33.5 -83.5t-21 -81l-30 -156h-112z" />
<glyph unicode="l" horiz-adv-x="278" d="M30 79q0 14 3 28l117 598l113 20l-116 -607q-2 -12 -2 -16q0 -25 27 -25q32 0 56 8v-72q-43 -18 -105 -18q-46 0 -69.5 22.5t-23.5 61.5z" />
<glyph unicode="m" horiz-adv-x="812" d="M35 0l51 252q11 54 11 99q0 71 -25 113l91 36q26 -31 26 -85q0 -2 -9 -92l15 38q27 67 71 102t99 35q57 0 88.5 -30.5t33.5 -83.5q56 114 159 114q62 0 94 -32.5t32 -89.5q0 -56 -32.5 -150t-32.5 -130q0 -56 9 -96h-112q-4 22 -4 60q0 54 29 152t29 139q0 57 -48 57 q-43 0 -87 -71.5t-60 -154.5l-35 -182h-112l50 252q12 58 12 99q0 57 -48 57q-43 0 -87.5 -71.5t-60.5 -155.5l-35 -181h-112z" />
<glyph unicode="n" horiz-adv-x="551" d="M35 0l51 252q11 54 11 99q0 71 -25 113l91 36q26 -31 26 -85q0 -12 -9 -94l17 40q60 137 187 137q64 0 95.5 -32t31.5 -90q0 -56 -32.5 -150t-32.5 -130q0 -55 8 -96h-111q-4 22 -4 60q0 54 29 152t29 139q0 57 -54 57q-51 0 -99.5 -79.5t-65.5 -169.5l-31 -159h-112z " />
<glyph unicode="o" d="M30 156q0 148 74.5 247t204.5 99q88 0 127.5 -47.5t39.5 -119.5q0 -149 -74 -247.5t-205 -98.5q-88 0 -127.5 47.5t-39.5 119.5zM149 149q0 -83 71 -83q41 0 74 47t48 109t15 120q0 83 -71 83q-41 0 -74 -46.5t-48 -108.5t-15 -121z" />
<glyph unicode="p" horiz-adv-x="535" d="M-5 -222l92 474q11 54 11 99q0 71 -25 113l91 36q26 -31 26 -85q0 -31 -8 -84l13 29q60 138 177 138q67 0 100 -48t33 -117q0 -147 -75 -244t-206 -97q-35 0 -76 9l-40 -203zM163 79q29 -10 59 -10q42 0 75 25.5t51.5 66t28 85.5t9.5 91q0 43 -12.5 61t-38.5 18 q-95 0 -167 -315z" />
<glyph unicode="q" horiz-adv-x="518" d="M30 157q0 147 75 244t206 97q59 0 123 -24l59 -4l-6 -22l-131 -650l-112 -20l30 154q9 49 42 151q-55 -91 -153 -91q-67 0 -100 48t-33 117zM149 153q0 -42 12.5 -60.5t38.5 -18.5q43 0 88.5 77.5t64.5 179.5l15 81q-28 9 -55 9q-43 0 -76 -25t-51.5 -66t-27.5 -86 t-9 -91z" />
<glyph unicode="r" horiz-adv-x="378" d="M35 0l51 252q11 54 11 99q0 71 -25 113l91 36q26 -31 26 -85q0 -2 -9 -95q21 92 55.5 135.5t89.5 43.5q61 0 88 -41l-58 -93q-30 32 -64 32q-26 0 -52 -44.5t-44 -107.5l-48 -245h-112z" />
<glyph unicode="s" horiz-adv-x="415" d="M-5 37l44 79q73 -46 123 -46q36 0 55.5 16t19.5 41q0 31 -16 48.5t-45 33.5l-25 13q-23 12 -36.5 22t-29 38.5t-15.5 68.5q0 66 49 108.5t138 42.5q58 0 91 -26.5t41 -68.5l-83 -33q-1 3 -4 10.5t-4.5 11t-4.5 9.5t-6.5 8.5t-9 6t-12.5 5t-16 1.5q-31 0 -47 -17.5 t-16 -40.5q0 -43 54 -72l29 -16q41 -22 62 -50t21 -84q0 -68 -50.5 -112.5t-142.5 -44.5q-38 0 -79 12t-63 24z" />
<glyph unicode="t" horiz-adv-x="363" d="M50 409v81h100l44 125l95 21l-29 -146h112l-14 -81h-114l-56 -295q-2 -12 -2 -15q0 -14 8.5 -19.5t29.5 -5.5q16 0 37.5 4t34.5 8l13 5v-75q-56 -24 -127 -24q-111 0 -111 84q0 13 3 28l61 305h-85z" />
<glyph unicode="u" horiz-adv-x="546" d="M35 114q0 54 33 148.5t33 140.5q0 49 -6 70l95 24q19 -39 19 -101q0 -47 -30 -130.5t-30 -126.5q0 -57 54 -57q51 0 99.5 79.5t65.5 169.5l31 159h112l-53 -252q-11 -54 -11 -93q0 -65 37 -119l-91 -36q-34 39 -34 99q0 21 7 80l-17 -40q-60 -137 -187 -137 q-64 0 -95.5 32t-31.5 90z" />
<glyph unicode="v" horiz-adv-x="525" d="M45 106q0 29 9 83l58 301h109l-57 -298q-7 -42 -7 -60q0 -28 14.5 -45t40.5 -17q44 0 86.5 54.5t67.5 132t25 146.5q0 49 -6 70l96 24q19 -39 19 -101q0 -98 -39 -193t-104 -150q-39 -33 -80.5 -47t-102.5 -14q-129 0 -129 114z" />
<glyph unicode="w" horiz-adv-x="765" d="M45 106q0 29 9 83l58 301h109l-57 -298q-7 -42 -7 -60q0 -28 14.5 -45t40.5 -17q43 0 79 55.5t54 131t18 146.5q0 49 -6 70l96 24q19 -39 19 -101q0 -148 -75 -264q-1 -28 13.5 -45t40.5 -17q44 0 86.5 54.5t68 132t25.5 146.5q0 49 -6 70l96 24q18 -40 18 -101 q0 -98 -38.5 -194t-103.5 -150q-71 -60 -174 -60q-74 0 -104 57q-70 -57 -142 -57q-132 0 -132 114z" />
<glyph unicode="x" horiz-adv-x="468" d="M-55 0l232 261l-112 229h118l48 -97q11 -23 30 -68q31 30 61 69q24 34 24 50q0 13 -4 29l95 24q11 -18 11 -49q0 -35 -24 -72q-31 -48 -119 -129l110 -247h-119l-60 129l-18 43q-30 -43 -42 -56l-103 -116h-128z" />
<glyph unicode="y" horiz-adv-x="546" d="M35 114q0 54 32.5 148.5t32.5 140.5q0 47 -5 70l95 24q19 -39 19 -101q0 -47 -30 -130.5t-30 -126.5q0 -57 54 -57q50 0 99 79.5t66 169.5l31 159h112q-65 -276 -65 -344q0 -34 8 -88.5t8 -84.5q0 -105 -54.5 -150t-157.5 -45q-80 0 -205 60l39 84q2 -1 30.5 -13 t39 -15.5t33.5 -11.5t41.5 -11t35.5 -3q45 0 72 29.5t27 73.5q0 7 -2 43.5t-2 75.5q0 14 4 46.5t4 34.5l-19 -42q-58 -137 -186 -137q-64 0 -95.5 32t-31.5 90z" />
<glyph unicode="z" horiz-adv-x="399" d="M-20 0v70l279 340q-57 -3 -121 -3h-71v83h322v-68l-273 -341q24 2 32 2q22 0 63 -4t59 -4q47 0 90 26l25 -84q-50 -31 -114 -31q-40 0 -116.5 7t-117.5 7h-57z" />
<glyph unicode="{" horiz-adv-x="370" d="M25 -94q0 7 8 39l45 171q6 20 6 34q0 65 -54 74v78q39 8 67.5 34.5t34.5 69.5l25 203q7 52 49.5 83.5t108.5 31.5q28 0 68 -8l-17 -90q-29 11 -48 11q-24 0 -37.5 -14t-15.5 -30l-20 -173q-6 -51 -31 -89.5t-84 -68.5q65 -32 65 -84q0 -24 -11 -68l-43 -167 q-2 -10 -2 -13q0 -17 11 -27t28 -10q18 0 50 10l-18 -89q-36 -6 -65 -6q-120 0 -120 98z" />
<glyph unicode="|" horiz-adv-x="329" d="M20 -126l167 855h102l-167 -855h-102z" />
<glyph unicode="}" horiz-adv-x="368" d="M-70 -184l17 90q29 -11 48 -11q24 0 37.5 14t15.5 30l20 173q6 51 31 89.5t84 68.5q-65 32 -65 84q0 24 11 68l43 167q2 10 2 13q0 17 -11 27t-28 10q-18 0 -50 -10l18 89q36 6 65 6q120 0 120 -98q0 -7 -8 -39l-45 -171q-6 -20 -6 -34q0 -66 54 -75v-77 q-39 -8 -67.5 -34.5t-34.5 -69.5l-25 -203q-7 -52 -49.5 -83.5t-108.5 -31.5q-28 0 -68 8z" />
<glyph unicode="~" horiz-adv-x="503" d="M45 306q66 85 139 85q40 0 80 -30t68 -30q18 0 32.5 6t23.5 13t30 27l40 -45q-67 -84 -139 -84q-39 0 -79.5 30t-68.5 30q-6 0 -11 -0.5t-9.5 -1t-9 -2.5t-7.5 -3t-8 -4.5t-7 -4.5t-8 -6.5t-7.5 -7t-9 -8t-9.5 -8.5z" />
<glyph unicode="&#xa1;" horiz-adv-x="330" d="M16 -182l112 449h96l-84 -449h-124zM124 414q0 35 23 59.5t60 24.5q33 0 50.5 -19t17.5 -51q0 -35 -22.5 -59.5t-59.5 -24.5q-34 0 -51.5 18.5t-17.5 51.5z" />
<glyph unicode="&#xa2;" horiz-adv-x="520" d="M55 164q0 132 63 222.5t163 104.5l14 88h76l-14 -87q90 -2 113 -87l-84 -37q-1 2 -5 12.5t-6 13.5t-6.5 10t-10 10t-12.5 4l-53 -337q33 5 82 37l31 -72q-42 -39 -125 -47l-18 -116h-76l18 115q-79 5 -114.5 51.5t-35.5 114.5zM174 161q0 -66 44 -79l50 328 q-48 -23 -71 -94.5t-23 -154.5z" />
<glyph unicode="&#xa3;" horiz-adv-x="594" d="M40 65q7 4 17.5 12t26 28.5t21.5 45.5l26 101h-64l18 90h71l23 87q26 97 88.5 152t158.5 55q140 0 153 -119l-85 -38q-6 23 -11.5 36t-22.5 24.5t-45 11.5q-86 0 -118 -114l-28 -95h177l-32 -90h-172l-11 -40q-25 -84 -75 -136q37 7 71 7q22 0 62.5 -4t58.5 -4 q47 0 90 26l25 -84q-50 -31 -114 -31q-43 0 -125.5 7t-127.5 7q-10 0 -34 -2z" />
<glyph unicode="&#xa4;" horiz-adv-x="649" d="M10 59l100 81q-20 38 -20 88q0 118 81 196l-70 86l75 53l62 -92q59 27 117 27q62 0 105 -26l97 91l57 -64l-101 -81q21 -37 21 -88q0 -121 -82 -196l72 -86l-76 -53l-63 92q-54 -27 -116 -27t-106 26l-96 -91zM175 248q0 -113 108 -113q66 0 116 52t50 123 q0 113 -108 113q-66 0 -116 -52t-50 -123z" />
<glyph unicode="&#xa5;" horiz-adv-x="544" d="M45 103l17 88h114l12 62h-114l18 88h75l-101 285h115l79 -274l194 282l90 -44l-184 -249h79l-17 -88h-119l-12 -62h119l-17 -88h-119l-19 -103h-115l19 103h-114z" />
<glyph unicode="&#xa6;" horiz-adv-x="327" d="M20 -126l72 374h102l-73 -374h-101zM113 353l73 376h101l-72 -376h-102z" />
<glyph unicode="&#xa7;" horiz-adv-x="508" d="M30 213q0 67 40 112t96 68q-21 36 -21 75q0 72 56.5 123.5t136.5 51.5q57 0 100 -38l-45 -72q-32 26 -65 26q-31 0 -49 -17t-18 -48q0 -25 20 -50.5t48 -48.5t56 -48t48 -59.5t20 -73.5q0 -68 -40.5 -113t-97.5 -67q22 -39 22 -75q0 -72 -56 -123.5t-136 -51.5 q-57 0 -100 38l45 72q32 -26 65 -26q31 0 49 17t18 48q0 25 -20 50.5t-48 48.5t-56 48t-48 59.5t-20 73.5zM146 245q0 -19 12.5 -40t25.5 -34.5t41.5 -39.5t40.5 -37q71 25 71 88q0 19 -12.5 39.5t-26 34t-41.5 39t-41 37.5q-70 -24 -70 -87z" />
<glyph unicode="&#xa8;" horiz-adv-x="478" d="M83 621q0 28 18 48t47 20q57 0 57 -59q0 -27 -18.5 -46.5t-47.5 -19.5q-56 0 -56 57zM272 621q0 28 18 48t48 20q56 0 56 -59q0 -27 -18.5 -46.5t-47.5 -19.5q-56 0 -56 57z" />
<glyph unicode="&#xa9;" horiz-adv-x="757" d="M35 261q0 183 116 304t296 121q127 0 201 -73t74 -194q0 -182 -116.5 -303.5t-296.5 -121.5q-126 0 -200 73.5t-74 193.5zM120 285q0 -101 53.5 -159.5t152.5 -58.5q120 0 214.5 93.5t94.5 235.5q0 100 -53 158t-153 58q-75 0 -145.5 -40t-117 -116.5t-46.5 -170.5z M232 273q0 111 57.5 191.5t154.5 80.5q29 0 50.5 -15t28.5 -34l-56 -49q-15 25 -46 25q-43 0 -69.5 -58.5t-26.5 -121.5q0 -79 54 -79q33 0 61 15l18 -61q-55 -24 -105 -24q-121 0 -121 130z" />
<glyph unicode="&#xaa;" horiz-adv-x="414" d="M60 429q0 102 52.5 169t143.5 67q42 0 82 -16l50 -2l-32 -167q-7 -36 -7 -59q0 -40 30 -84l-79 -31q-29 33 -29 76q0 5 1 28q-16 -48 -48 -74.5t-66 -26.5q-49 0 -73.5 34.5t-24.5 85.5zM158 427q0 -44 25 -44q33 0 61 55.5t38 112.5l7 39q-11 5 -31 5q-50 0 -75 -52 t-25 -116z" />
<glyph unicode="&#xab;" horiz-adv-x="571" d="M35 245q40 44 101 98.5t102 86.5l40 33l46 -58l-158 -161q9 -14 48.5 -78.5t56.5 -91.5l-61 -47q-115 120 -175 218zM248 245q40 44 100 98.5t100 86.5l41 33l47 -58l-159 -161l106 -170l-61 -47q-114 120 -174 218z" />
<glyph unicode="&#xac;" horiz-adv-x="515" d="M50 308l17 87h397l-39 -213h-83l23 126h-315z" />
<glyph unicode="&#xad;" horiz-adv-x="380" d="M45 278l17 82h273l-16 -82h-274z" />
<glyph unicode="&#xae;" horiz-adv-x="580" d="M75 402q0 116 77 200t199 84q85 0 134.5 -49t49.5 -131q0 -116 -77 -200t-199 -84q-85 0 -134.5 49t-49.5 131zM140 417q0 -61 36.5 -99.5t95.5 -38.5q80 0 139 64t59 148q0 61 -35.5 99.5t-96.5 38.5q-80 0 -139 -64t-59 -148zM200 325l49 258l34 -5q3 0 18 1.5t21 1.5 q76 0 76 -56q0 -50 -62 -79q12 -45 50 -102l-40 -28q-30 48 -55 118q-6 -1 -19 -1l-20 -108h-52zM276 463q68 0 68 53q0 14 -10 23.5t-26 9.5l-15 1z" />
<glyph unicode="&#xaf;" horiz-adv-x="479" d="M77 599l13 83h312l-13 -83h-312z" />
<glyph unicode="&#xb0;" horiz-adv-x="249" d="M50 575q0 57 39 100t99 43q41 0 65.5 -25t24.5 -65q0 -57 -39 -100t-98 -43q-42 0 -66.5 25t-24.5 65zM112 585q0 -43 41 -43q28 0 45.5 22.5t17.5 52.5q0 44 -40 44q-28 0 -46 -22.5t-18 -53.5z" />
<glyph unicode="&#xb1;" horiz-adv-x="561" d="M55 32l17 88h143l26 135h-143l17 87h142l30 153h91l-29 -153h147l-17 -87h-147l-25 -135h144l-16 -88h-380z" />
<glyph unicode="&#xb2;" horiz-adv-x="326" d="M30 315v73l99 85q49 41 65 60t16 39q0 26 -22 26q-8 0 -18.5 -3t-17 -5.5t-24.5 -11.5t-25 -12l-24 69q71 34 121 34q47 0 76.5 -21.5t29.5 -58.5q0 -23 -8 -43.5t-28.5 -43.5t-35 -36t-49.5 -42l-43 -36h123l-14 -73h-221z" />
<glyph unicode="&#xb3;" horiz-adv-x="335" d="M30 345l30 60q55 -29 81 -29q25 0 42 16.5t17 46.5q0 33 -28 33q-17 0 -50 -6l-21 60q13 4 33 9t31.5 8.5t23.5 8.5t17.5 13.5t5.5 19.5q0 14 -18 14q-20 0 -81 -33l-29 68q70 35 122 35q47 0 72.5 -22t25.5 -53q0 -25 -18 -47t-53 -31q58 -19 58 -72q0 -56 -43.5 -94 t-114.5 -38q-52 0 -103 33z" />
<glyph unicode="&#xb4;" horiz-adv-x="479" d="M121 587q95 126 175 183q50 -34 62 -69q-34 -22 -81.5 -63.5t-78.5 -71.5l-31 -31z" />
<glyph unicode="&#xb5;" horiz-adv-x="561" d="M-15 -222l137 712h110l-62 -320q-3 -15 -3 -26q0 -31 15 -46.5t36 -15.5q50 0 99 79.5t66 169.5l31 159h111l-53 -252q-11 -54 -11 -93q0 -65 37 -119l-90 -36q-35 40 -35 99q0 1 7 80l-17 -39q-30 -69 -62.5 -103.5t-87.5 -34.5q-25 0 -47 13.5t-31 34.5 q-1 -57 -11 -108l-26 -134z" />
<glyph unicode="&#xb6;" horiz-adv-x="552" d="M60 411q0 115 71.5 184t193.5 74l-78 -414q-93 0 -140 41t-47 115zM145 -147q70 32 103.5 65.5t44.5 94.5l124 656h115l-123 -645q-8 -42 -24.5 -76t-34 -56.5t-48.5 -45t-54 -35.5t-64 -34z" />
<glyph unicode="&#xb7;" horiz-adv-x="241" d="M45 311q0 35 22.5 59.5t59.5 24.5q34 0 51.5 -18.5t17.5 -51.5q0 -35 -23 -59.5t-59 -24.5q-34 0 -51.5 19t-17.5 51z" />
<glyph unicode="&#xb8;" horiz-adv-x="480" d="M131 -191l29 55q36 -23 67 -23q49 0 49 27q0 13 -11 22.5t-24 14.5t-24 15.5t-11 25.5q0 18 25 57h64q-15 -15 -15 -36q0 -9 11.5 -18.5t25.5 -16.5t25.5 -21t11.5 -32q0 -51 -36.5 -74.5t-90.5 -23.5t-96 28z" />
<glyph unicode="&#xb9;" horiz-adv-x="262" d="M40 599q75 20 126 67h66l-65 -350h-86l47 251q-36 -27 -59 -34z" />
<glyph unicode="&#xba;" horiz-adv-x="416" d="M60 428q0 104 52 172t143 68q64 0 92.5 -34.5t28.5 -86.5q0 -102 -52 -170.5t-143 -68.5q-64 0 -92.5 34t-28.5 86zM158 423q0 -45 38 -45q36 0 59 57t23 117q0 46 -39 46q-36 0 -58.5 -57t-22.5 -118z" />
<glyph unicode="&#xbb;" horiz-adv-x="571" d="M36 85l157 160l-105 171l61 47q115 -120 175 -218q-40 -44 -100.5 -98.5t-101.5 -86.5l-40 -33zM247 85l158 160q-54 88 -104 171l60 47q115 -120 175 -218q-40 -44 -100.5 -98.5t-101.5 -86.5l-40 -33z" />
<glyph unicode="&#xbc;" horiz-adv-x="789" d="M81 518q75 20 126 67h66l-65 -350h-86l47 251q-36 -27 -59 -34zM115 0l375 587h100l-376 -587h-99zM412 84v55l119 212h95l-114 -191h67l31 99l73 16l-22 -115h42l-16 -76h-40l-15 -84h-87l17 84h-150z" />
<glyph unicode="&#xbd;" horiz-adv-x="788" d="M81 518q75 20 126 67h66l-65 -350h-86l47 251q-36 -27 -59 -34zM116 0l375 587h100l-376 -587h-99zM436 0v73l99 85q49 41 65 60t16 39q0 26 -23 26q-7 0 -13.5 -1.5t-15.5 -5t-15 -6t-19.5 -9.5t-20.5 -10l-25 69q71 34 122 34q47 0 76 -21.5t29 -58.5q0 -23 -8 -43.5 t-28.5 -43.5t-35 -36t-49.5 -42l-43 -36h124l-14 -73h-221z" />
<glyph unicode="&#xbe;" horiz-adv-x="847" d="M56 265l30 61q55 -29 81 -29q25 0 41.5 16.5t16.5 45.5q0 33 -27 33q-22 0 -50 -5l-21 59q13 4 33 9t31 8.5t23 9t17.5 13.5t5.5 19q0 14 -17 14q-20 0 -81 -33l-29 68q70 35 122 35q47 0 72.5 -21.5t25.5 -53.5q0 -25 -18 -47t-53 -31q58 -19 58 -72q0 -56 -43.5 -94 t-114.5 -38q-52 0 -103 33zM172 0l375 587h101l-376 -587h-100zM470 84v55l119 212h94l-114 -191h68l31 99l72 16l-22 -115h42l-16 -76h-40l-15 -84h-86l16 84h-149z" />
<glyph unicode="&#xbf;" horiz-adv-x="444" d="M-4 -58q0 32 8 59t27 51.5t32 38t40.5 37.5t36.5 32q76 71 107 140l78 -23q-7 -38 -31 -77.5t-52 -71t-55.5 -61t-46 -57t-18.5 -49.5q0 -64 67 -64q15 0 32 4.5t26.5 8.5t31.5 15t29 14l33 -79q-114 -50 -183 -50q-78 0 -120 35t-42 97zM243 413q0 35 22.5 59.5 t59.5 24.5q33 0 50.5 -19t17.5 -51q0 -35 -22.5 -59.5t-58.5 -24.5q-69 0 -69 70z" />
<glyph unicode="&#xc0;" horiz-adv-x="570" d="M-40 19l365 650h92l128 -669h-123l-28 180h-225l-94 -188zM172 843q17 45 61 78q29 -39 73.5 -77.5t74.5 -57.5l30 -20l-36 -54q-16 5 -41 15t-79.5 44t-82.5 72zM210 263h171q-18 120 -34 266q-114 -220 -137 -266z" />
<glyph unicode="&#xc1;" horiz-adv-x="570" d="M-40 19l365 650h92l128 -669h-123l-28 180h-225l-94 -188zM210 263h171q-18 120 -34 266q-114 -220 -137 -266zM330 771q115 108 204 150q43 -42 50 -79q-37 -16 -92 -48t-91 -56l-36 -25z" />
<glyph unicode="&#xc2;" horiz-adv-x="570" d="M-40 19l365 650h92l128 -669h-123l-28 180h-225l-94 -188zM197 763q125 108 215 150q31 -36 70.5 -74.5t63.5 -59.5l24 -21l-36 -55q-78 35 -143 94l-159 -92zM210 263h171q-18 120 -34 266q-114 -220 -137 -266z" />
<glyph unicode="&#xc3;" horiz-adv-x="570" d="M-40 19l365 650h92l128 -669h-123l-28 180h-225l-94 -188zM210 263h171q-18 120 -34 266q-114 -220 -137 -266zM228 756l16 80q39 24 85 24q25 0 76.5 -10.5t75.5 -10.5q21 0 42 3.5t32 7.5l11 4l-16 -80q-39 -24 -86 -24q-24 0 -75.5 10.5t-76.5 10.5q-20 0 -41 -3.5 t-32 -7.5z" />
<glyph unicode="&#xc4;" horiz-adv-x="570" d="M-40 19l365 650h92l128 -669h-123l-28 180h-225l-94 -188zM210 263h171q-18 120 -34 266q-114 -220 -137 -266zM241 792q0 28 17.5 48t47.5 20q56 0 56 -59q0 -27 -18 -46.5t-48 -19.5q-55 0 -55 57zM430 792q0 28 17.5 48t47.5 20q56 0 56 -59q0 -27 -18 -46.5 t-48 -19.5q-55 0 -55 57z" />
<glyph unicode="&#xc5;" horiz-adv-x="570" d="M-40 19l347 617q-25 22 -25 60q0 50 33.5 87t84.5 37q36 0 57 -21.5t21 -56.5q0 -69 -55 -105l122 -637h-123l-28 180h-225l-94 -188zM210 263h171q-18 120 -34 266q-114 -220 -137 -266zM336 705q0 -16 9 -26t25 -10q23 0 38.5 18.5t15.5 45.5q0 16 -9.5 26t-25.5 10 q-24 0 -38.5 -19.5t-14.5 -44.5z" />
<glyph unicode="&#xc6;" horiz-adv-x="808" d="M-45 20l445 649h432l-17 -84h-249l-37 -192h197l-18 -83h-195l-44 -226h257v-84h-388l36 185h-175l-126 -198zM254 269h136l61 316h-4l-5 -9q-5 -8 -13 -22t-19.5 -34t-27 -45.5t-33 -54t-39.5 -64t-45 -70.5z" />
<glyph unicode="&#xc7;" horiz-adv-x="502" d="M40 208q0 92 22.5 176t65 151t111.5 107t154 40q117 0 135 -104l-89 -40q-14 57 -65 57t-92 -36t-65 -92.5t-36.5 -118.5t-12.5 -122q0 -152 126 -152q61 0 125 23l18 -76q-68 -29 -144 -33q-5 -10 -5 -21q0 -9 11.5 -18.5t25.5 -16.5t25.5 -21t11.5 -32 q0 -51 -36.5 -74.5t-90.5 -23.5q-53 0 -95 28l29 55q33 -23 67 -23q48 0 48 27q0 13 -11 22.5t-23.5 14.5t-23.5 15.5t-11 25.5t16 42q-191 14 -191 220z" />
<glyph unicode="&#xc8;" d="M15 0l130 669h385l-17 -84h-269l-37 -192h217l-18 -83h-215l-44 -226h277v-84h-409zM129 843q17 45 61 78q29 -39 73.5 -77.5t74.5 -57.5l30 -20l-36 -54q-16 5 -40.5 15t-79.5 44t-83 72z" />
<glyph unicode="&#xc9;" d="M15 0l130 669h385l-17 -84h-269l-37 -192h217l-18 -83h-215l-44 -226h277v-84h-409zM287 771q116 108 205 150q43 -42 49 -79q-37 -16 -91.5 -48t-90.5 -56l-36 -25z" />
<glyph unicode="&#xca;" d="M15 0l130 669h385l-17 -84h-269l-37 -192h217l-18 -83h-215l-44 -226h277v-84h-409zM154 763q126 108 215 150q31 -36 71 -74.5t64 -59.5l24 -21l-37 -55q-78 35 -142 94l-159 -92z" />
<glyph unicode="&#xcb;" d="M15 0l130 669h385l-17 -84h-269l-37 -192h217l-18 -83h-215l-44 -226h277v-84h-409zM198 792q0 28 18 48t47 20q57 0 57 -59q0 -27 -18.5 -46.5t-48.5 -19.5q-55 0 -55 57zM387 792q0 28 18 48t47 20q57 0 57 -59q0 -27 -18.5 -46.5t-48.5 -19.5q-55 0 -55 57z" />
<glyph unicode="&#xcc;" horiz-adv-x="276" d="M1 843q17 45 61 78q29 -39 73.5 -77.5t74.5 -57.5l30 -20l-36 -54q-16 5 -40.5 15t-79.5 44t-83 72zM15 0l130 669h116l-130 -669h-116z" />
<glyph unicode="&#xcd;" horiz-adv-x="276" d="M15 0l130 669h116l-130 -669h-116zM159 771q116 108 205 150q43 -42 49 -79q-37 -16 -91.5 -48t-90.5 -56l-36 -25z" />
<glyph unicode="&#xce;" horiz-adv-x="276" d="M15 0l130 669h116l-130 -669h-116zM26 763q126 108 215 150q31 -36 70.5 -74.5t63.5 -59.5l24 -21l-36 -55q-78 35 -142 94q-34 -18 -74 -41t-63 -37l-22 -14z" />
<glyph unicode="&#xcf;" horiz-adv-x="276" d="M15 0l130 669h116l-130 -669h-116zM70 792q0 28 18 48t47 20q57 0 57 -59q0 -27 -18.5 -46.5t-48.5 -19.5q-55 0 -55 57zM259 792q0 28 18 48t47 20q57 0 57 -59q0 -27 -18.5 -46.5t-48.5 -19.5q-55 0 -55 57z" />
<glyph unicode="&#xd0;" horiz-adv-x="647" d="M6 304l17 87h67l55 282l89 -7q74 16 153 16q219 0 219 -221q0 -105 -20.5 -186t-66.5 -145t-127.5 -98t-194.5 -34h-46t-42.5 0.5t-34 1t-24.5 0.5h-9h-26l58 304h-67zM147 88h70q72 0 124.5 29.5t81.5 81t42.5 112.5t13.5 133q0 151 -126 151q-67 0 -110 -14l-37 -190 h174l-16 -87h-175z" />
<glyph unicode="&#xd1;" horiz-adv-x="658" d="M15 14l124 655h90l157 -340q10 -22 31 -71t28 -65q9 81 18 133l64 348l111 -18l-124 -657h-89l-161 344q-19 39 -57 133q-8 -87 -17 -135l-64 -345zM245 756l16 80q39 24 86 24q24 0 75.5 -10.5t76.5 -10.5q20 0 41 3.5t32 7.5l11 4l-16 -80q-39 -24 -85 -24 q-24 0 -76 10.5t-76 10.5q-20 0 -41.5 -3.5t-32.5 -7.5z" />
<glyph unicode="&#xd2;" horiz-adv-x="668" d="M40 208q0 93 23 176.5t66.5 150.5t115.5 107t163 40q220 0 220 -221q0 -93 -23 -176.5t-66.5 -150.5t-115.5 -107t-163 -40q-220 0 -220 221zM168 226q0 -152 126 -152q51 0 92 36t65 92.5t36.5 119t12.5 122.5q0 151 -126 151q-51 0 -92 -36t-65 -92.5t-36.5 -118.5 t-12.5 -122zM198 843q16 45 61 78q29 -39 73.5 -77.5t74.5 -57.5l30 -20l-37 -54q-16 5 -40.5 15t-79 44t-82.5 72z" />
<glyph unicode="&#xd3;" horiz-adv-x="668" d="M40 208q0 93 23 176.5t66.5 150.5t115.5 107t163 40q220 0 220 -221q0 -93 -23 -176.5t-66.5 -150.5t-115.5 -107t-163 -40q-220 0 -220 221zM168 226q0 -152 126 -152q51 0 92 36t65 92.5t36.5 119t12.5 122.5q0 151 -126 151q-51 0 -92 -36t-65 -92.5t-36.5 -118.5 t-12.5 -122zM355 771q116 108 205 150q43 -42 50 -79q-37 -16 -92 -48t-91 -56l-36 -25z" />
<glyph unicode="&#xd4;" horiz-adv-x="668" d="M40 208q0 93 23 176.5t66.5 150.5t115.5 107t163 40q220 0 220 -221q0 -93 -23 -176.5t-66.5 -150.5t-115.5 -107t-163 -40q-220 0 -220 221zM168 226q0 -152 126 -152q51 0 92 36t65 92.5t36.5 119t12.5 122.5q0 151 -126 151q-51 0 -92 -36t-65 -92.5t-36.5 -118.5 t-12.5 -122zM222 763q126 108 216 150q31 -36 70.5 -74.5t63.5 -59.5l24 -21l-37 -55q-78 35 -142 94l-159 -92z" />
<glyph unicode="&#xd5;" horiz-adv-x="668" d="M40 208q0 93 23 176.5t66.5 150.5t115.5 107t163 40q220 0 220 -221q0 -93 -23 -176.5t-66.5 -150.5t-115.5 -107t-163 -40q-220 0 -220 221zM168 226q0 -152 126 -152q51 0 92 36t65 92.5t36.5 119t12.5 122.5q0 151 -126 151q-51 0 -92 -36t-65 -92.5t-36.5 -118.5 t-12.5 -122zM253 756l16 80q39 24 86 24q24 0 75.5 -10.5t76.5 -10.5q20 0 41 3.5t32 7.5l11 4l-15 -80q-40 -24 -86 -24q-24 0 -75.5 10.5t-76.5 10.5q-20 0 -41.5 -3.5t-32.5 -7.5z" />
<glyph unicode="&#xd6;" horiz-adv-x="668" d="M40 208q0 93 23 176.5t66.5 150.5t115.5 107t163 40q220 0 220 -221q0 -93 -23 -176.5t-66.5 -150.5t-115.5 -107t-163 -40q-220 0 -220 221zM168 226q0 -152 126 -152q51 0 92 36t65 92.5t36.5 119t12.5 122.5q0 151 -126 151q-51 0 -92 -36t-65 -92.5t-36.5 -118.5 t-12.5 -122zM266 792q0 28 18 48t47 20q57 0 57 -59q0 -27 -18.5 -46.5t-48.5 -19.5q-55 0 -55 57zM455 792q0 28 18 48t48 20q56 0 56 -59q0 -27 -18.5 -46.5t-47.5 -19.5q-56 0 -56 57z" />
<glyph unicode="&#xd7;" horiz-adv-x="510" d="M40 165l157 135l-103 130l73 60l101 -129l151 131l51 -66l-150 -131l106 -135l-73 -59l-104 132l-157 -134z" />
<glyph unicode="&#xd8;" horiz-adv-x="668" d="M40 208q0 93 23 176.5t66.5 150.5t115.5 107t163 40q33 0 70 -7l39 67l85 -46l-36 -62q62 -56 62 -173q0 -93 -23 -176.5t-66.5 -150.5t-115.5 -107t-163 -40q-33 0 -70 7l-39 -67l-85 46l36 62q-62 53 -62 173zM168 147l262 446q-21 4 -56 4q-51 0 -92 -36.5t-65 -93 t-36.5 -119.5t-12.5 -123v-78zM238 76q21 -4 56 -4q51 0 92 36.5t65 93.5t36.5 120.5t12.5 123.5l-1 76z" />
<glyph unicode="&#xd9;" horiz-adv-x="652" d="M45 177q0 33 8 73l81 419h116l-80 -410q-6 -33 -6 -59q0 -60 30.5 -93t84.5 -33q63 0 104.5 50t57.5 135l80 410h116l-81 -419q-22 -115 -96.5 -186.5t-209.5 -71.5q-107 0 -156 50t-49 135zM189 843q16 45 61 78q29 -39 73.5 -77.5t74.5 -57.5l30 -20l-37 -54 q-16 5 -40.5 15t-79 44t-82.5 72z" />
<glyph unicode="&#xda;" horiz-adv-x="652" d="M45 177q0 33 8 73l81 419h116l-80 -410q-6 -33 -6 -59q0 -60 30.5 -93t84.5 -33q63 0 104.5 50t57.5 135l80 410h116l-81 -419q-22 -115 -96.5 -186.5t-209.5 -71.5q-107 0 -156 50t-49 135zM346 771q116 108 205 150q43 -42 50 -79q-37 -16 -92 -48t-91 -56l-36 -25z " />
<glyph unicode="&#xdb;" horiz-adv-x="652" d="M45 177q0 33 8 73l81 419h116l-80 -410q-6 -33 -6 -59q0 -60 30.5 -93t84.5 -33q63 0 104.5 50t57.5 135l80 410h116l-81 -419q-22 -115 -96.5 -186.5t-209.5 -71.5q-107 0 -156 50t-49 135zM213 763q126 108 216 150q31 -36 70.5 -74.5t63.5 -59.5l24 -21l-37 -55 q-78 35 -142 94l-159 -92z" />
<glyph unicode="&#xdc;" horiz-adv-x="652" d="M45 177q0 33 8 73l81 419h116l-80 -410q-6 -33 -6 -59q0 -60 30.5 -93t84.5 -33q63 0 104.5 50t57.5 135l80 410h116l-81 -419q-22 -115 -96.5 -186.5t-209.5 -71.5q-107 0 -156 50t-49 135zM257 792q0 28 18 48t47 20q57 0 57 -59q0 -27 -18.5 -46.5t-48.5 -19.5 q-55 0 -55 57zM446 792q0 28 18 48t48 20q56 0 56 -59q0 -27 -18.5 -46.5t-47.5 -19.5q-56 0 -56 57z" />
<glyph unicode="&#xdd;" horiz-adv-x="459" d="M40 669h118l66 -259q72 171 224 275l70 -56q-114 -109 -156 -163q-107 -136 -127 -320q-5 -51 -5 -108v-38h-115v40q0 128 44 235zM240 771q116 108 205 150q43 -42 49 -79q-37 -16 -91.5 -48t-90.5 -56l-36 -25z" />
<glyph unicode="&#xde;" horiz-adv-x="534" d="M15 0l126 669h115l-24 -123q52 5 82 5q100 0 149.5 -41.5t49.5 -115.5q0 -117 -82.5 -187t-216.5 -70h-58l-26 -137h-115zM171 225h67q67 0 108 42.5t41 106.5q0 92 -104 92q-30 0 -67 -7z" />
<glyph unicode="&#xdf;" horiz-adv-x="531" d="M-130 -147q70 32 103.5 65.5t44.5 94.5l89 466q21 108 86 175t186 67q74 0 110.5 -30t36.5 -80q0 -36 -15.5 -66t-37.5 -49t-44.5 -35t-38 -34t-15.5 -38q0 -23 17.5 -45.5t38 -38.5t38 -46t17.5 -66q0 -86 -59.5 -143t-152.5 -57q-61 0 -111 35l40 77q41 -26 88 -26 q38 0 58.5 22.5t20.5 58.5q0 21 -10.5 38.5t-26 32t-31 30.5t-26 39.5t-10.5 53.5q0 37 15 66.5t37 49t44 36.5t37 36.5t15 41.5q0 55 -69 55q-96 0 -126 -153l-91 -462q-10 -52 -29 -90.5t-51 -67t-61 -46.5t-79 -43z" />
<glyph unicode="&#xe0;" horiz-adv-x="528" d="M30 157q0 147 75 244t206 97q64 0 119 -24l63 -4l-45 -233q-10 -53 -10 -93q0 -64 36 -118l-90 -36q-34 39 -34 99q0 19 7 80l-17 -40q-60 -137 -177 -137q-67 0 -100 48t-33 117zM134 709q26 40 77 61q20 -44 54.5 -91t59.5 -73l25 -25l-48 -45q-14 9 -36 24t-67.5 60.5 t-64.5 88.5zM149 153q0 -42 12.5 -60.5t38.5 -18.5q46 0 91.5 88.5t64.5 179.5l14 69q-20 10 -57 10q-43 0 -76 -25t-51.5 -66t-27.5 -86t-9 -91z" />
<glyph unicode="&#xe1;" horiz-adv-x="528" d="M30 157q0 147 75 244t206 97q64 0 119 -24l63 -4l-45 -233q-10 -53 -10 -93q0 -64 36 -118l-90 -36q-34 39 -34 99q0 19 7 80l-17 -40q-60 -137 -177 -137q-67 0 -100 48t-33 117zM149 153q0 -42 12.5 -60.5t38.5 -18.5q46 0 91.5 88.5t64.5 179.5l14 69q-20 10 -57 10 q-43 0 -76 -25t-51.5 -66t-27.5 -86t-9 -91zM271 587q94 126 175 183q49 -34 62 -69q-34 -22 -82 -63.5t-79 -71.5l-31 -31z" />
<glyph unicode="&#xe2;" horiz-adv-x="528" d="M30 157q0 147 75 244t206 97q64 0 119 -24l63 -4l-45 -233q-10 -53 -10 -93q0 -64 36 -118l-90 -36q-34 39 -34 99q0 19 7 80l-17 -40q-60 -137 -177 -137q-67 0 -100 48t-33 117zM149 153q0 -42 12.5 -60.5t38.5 -18.5q46 0 91.5 88.5t64.5 179.5l14 69q-20 10 -57 10 q-43 0 -76 -25t-51.5 -66t-27.5 -86t-9 -91zM152 591q119 131 199 187q26 -39 60.5 -86.5t56.5 -75.5l22 -27l-48 -45q-65 39 -117 96l-123 -97z" />
<glyph unicode="&#xe3;" horiz-adv-x="528" d="M30 157q0 147 75 244t206 97q64 0 119 -24l63 -4l-45 -233q-10 -53 -10 -93q0 -64 36 -118l-90 -36q-34 39 -34 99q0 19 7 80l-17 -40q-60 -137 -177 -137q-67 0 -100 48t-33 117zM149 153q0 -42 12.5 -60.5t38.5 -18.5q46 0 91.5 88.5t64.5 179.5l14 69q-20 10 -57 10 q-43 0 -76 -25t-51.5 -66t-27.5 -86t-9 -91zM172 589l15 74q36 23 80 23q24 0 73 -10t72 -10q20 0 40 3.5t30 6.5l10 4l-15 -74q-37 -23 -80 -23q-23 0 -73 10t-73 10q-20 0 -39.5 -3.5t-29.5 -7.5z" />
<glyph unicode="&#xe4;" horiz-adv-x="528" d="M30 157q0 147 75 244t206 97q64 0 119 -24l63 -4l-45 -233q-10 -53 -10 -93q0 -64 36 -118l-90 -36q-34 39 -34 99q0 19 7 80l-17 -40q-60 -137 -177 -137q-67 0 -100 48t-33 117zM149 153q0 -42 12.5 -60.5t38.5 -18.5q46 0 91.5 88.5t64.5 179.5l14 69q-20 10 -57 10 q-43 0 -76 -25t-51.5 -66t-27.5 -86t-9 -91zM175 621q0 28 18 48t48 20q56 0 56 -59q0 -27 -18 -46.5t-48 -19.5q-56 0 -56 57zM365 621q0 28 17.5 48t47.5 20q56 0 56 -59q0 -27 -18 -46.5t-48 -19.5q-55 0 -55 57z" />
<glyph unicode="&#xe5;" horiz-adv-x="520" d="M64 157q0 147 75 244t206 97q64 0 119 -24l62 -4l-45 -233q-10 -53 -10 -93q0 -62 37 -118l-91 -36q-34 39 -34 99q0 10 8 80l-18 -40q-60 -137 -176 -137q-67 0 -100 48t-33 117zM183 153q0 -42 12.5 -60.5t38.5 -18.5q31 0 65 47.5t57 106.5t34 114l14 69 q-20 10 -57 10q-43 0 -76 -25t-51.5 -66t-27.5 -86t-9 -91zM288 620q0 50 33.5 87t84.5 37q36 0 57 -21.5t21 -55.5q0 -50 -33.5 -87t-85.5 -37q-35 0 -56 21.5t-21 55.5zM342 629q0 -16 9 -26t25 -10q23 0 38.5 19t15.5 46q0 16 -9.5 26t-25.5 10q-24 0 -38.5 -19.5 t-14.5 -45.5z" />
<glyph unicode="&#xe6;" horiz-adv-x="753" d="M30 157q0 147 75 244t206 97q39 0 80.5 -11t67.5 -29q63 44 146 44q144 0 144 -108q0 -85 -83.5 -141.5t-216.5 -64.5q-6 -30 -6 -35q0 -83 72 -83q24 0 62 10t65 20l26 11l23 -72q-101 -50 -198 -50q-138 0 -163 121q-58 -118 -167 -118q-67 0 -100 48t-33 117zM149 153 q0 -42 12.5 -60.5t38.5 -18.5q46 0 91.5 88.5t64.5 179.5l14 69q-20 10 -57 10q-43 0 -76 -25t-51.5 -66t-27.5 -86t-9 -91zM457 260q82 5 130.5 41t48.5 75q0 49 -54 49q-43 0 -76.5 -48.5t-48.5 -116.5z" />
<glyph unicode="&#xe7;" horiz-adv-x="407" d="M30 156q0 147 74.5 246.5t204.5 99.5q92 0 117 -96l-83 -36q-1 2 -4.5 10.5t-5 11t-5 9t-7 8.5t-8.5 6t-12 5t-15 1q-41 0 -73.5 -44.5t-48 -104.5t-15.5 -119q0 -83 71 -83q16 0 44 6.5t48 13t22 7.5l24 -72q-46 -23 -117 -33q-7 -13 -7 -25q0 -9 11.5 -18.5t25.5 -16.5 t25.5 -21t11.5 -32q0 -51 -36.5 -74.5t-90.5 -23.5q-53 0 -95 28l29 55q33 -23 67 -23q48 0 48 27q0 13 -11 22.5t-23.5 14.5t-23.5 15.5t-11 25.5q0 16 17 44q-78 5 -113 51.5t-35 114.5z" />
<glyph unicode="&#xe8;" horiz-adv-x="458" d="M30 156q0 148 74.5 247t204.5 99q144 0 144 -108q0 -86 -85 -142.5t-220 -63.5q-1 -12 -1 -35q0 -83 73 -83q23 0 61 10t65 20l26 11l23 -72q-101 -50 -198 -50q-88 0 -127.5 47.5t-39.5 119.5zM135 713q26 40 77 61q20 -44 54.5 -91t59.5 -73l25 -25l-48 -45 q-14 9 -36 24t-67.5 60.5t-64.5 88.5zM160 260q83 5 131.5 41t48.5 75q0 49 -54 49q-44 0 -76.5 -47t-49.5 -118z" />
<glyph unicode="&#xe9;" horiz-adv-x="458" d="M30 156q0 148 74.5 247t204.5 99q144 0 144 -108q0 -86 -85 -142.5t-220 -63.5q-1 -12 -1 -35q0 -83 73 -83q23 0 61 10t65 20l26 11l23 -72q-101 -50 -198 -50q-88 0 -127.5 47.5t-39.5 119.5zM160 260q83 5 131.5 41t48.5 75q0 49 -54 49q-44 0 -76.5 -47t-49.5 -118z M266 591q94 126 174 183q50 -34 62 -69q-33 -22 -81 -63.5t-79 -71.5l-31 -31z" />
<glyph unicode="&#xea;" horiz-adv-x="458" d="M30 156q0 148 74.5 247t204.5 99q144 0 144 -108q0 -86 -85 -142.5t-220 -63.5q-1 -12 -1 -35q0 -83 73 -83q23 0 61 10t65 20l26 11l23 -72q-101 -50 -198 -50q-88 0 -127.5 47.5t-39.5 119.5zM152 595q119 131 200 187q25 -39 59.5 -86.5t56.5 -75.5l22 -27l-48 -45 q-64 39 -116 96l-123 -97zM160 260q83 5 131.5 41t48.5 75q0 49 -54 49q-44 0 -76.5 -47t-49.5 -118z" />
<glyph unicode="&#xeb;" horiz-adv-x="458" d="M30 156q0 148 74.5 247t204.5 99q144 0 144 -108q0 -86 -85 -142.5t-220 -63.5q-1 -12 -1 -35q0 -83 73 -83q23 0 61 10t65 20l26 11l23 -72q-101 -50 -198 -50q-88 0 -127.5 47.5t-39.5 119.5zM160 260q83 5 131.5 41t48.5 75q0 49 -54 49q-44 0 -76.5 -47t-49.5 -118z M176 625q0 28 18 48t47 20q57 0 57 -59q0 -27 -18.5 -46.5t-48.5 -19.5q-55 0 -55 57zM365 625q0 28 18 48t48 20q56 0 56 -59q0 -27 -18.5 -46.5t-47.5 -19.5q-56 0 -56 57z" />
<glyph unicode="&#xec;" horiz-adv-x="274" d="M35 79q0 14 3 29l76 382h110l-72 -372q-2 -12 -2 -16q0 -25 17 -25q10 0 23 2t20 4l8 2v-72q-37 -18 -90 -18q-44 0 -68.5 22.5t-24.5 61.5zM47 720q31 29 82 50l93 -198l-52 -36q-80 86 -123 184z" />
<glyph unicode="&#xed;" horiz-adv-x="274" d="M35 79q0 14 3 29l76 382h110l-72 -372q-2 -12 -2 -16q0 -25 17 -25q10 0 23 2t20 4l8 2v-72q-37 -18 -90 -18q-44 0 -68.5 22.5t-24.5 61.5zM122 572q7 15 19 38.5t49.5 76.5t75.5 83q48 -18 69 -62q-29 -23 -69 -66t-66 -75l-25 -32z" />
<glyph unicode="&#xee;" horiz-adv-x="274" d="M35 79q0 14 3 29l76 382h110l-72 -372q-2 -12 -2 -16q0 -25 17 -25q10 0 23 2t20 4l8 2v-72q-37 -18 -90 -18q-44 0 -68.5 22.5t-24.5 61.5zM42 567q99 123 180 195q24 -42 47 -92t35 -78l11 -29l-52 -35q-34 37 -69 87q-22 -20 -48.5 -42t-41.5 -34l-16 -12z" />
<glyph unicode="&#xef;" horiz-adv-x="274" d="M35 79q0 14 3 29l76 382h110l-72 -372q-2 -12 -2 -16q0 -25 17 -25q10 0 23 2t20 4l8 2v-72q-37 -18 -90 -18q-44 0 -68.5 22.5t-24.5 61.5zM61 640q0 25 16.5 43t43.5 18q54 0 54 -54q0 -25 -17.5 -43.5t-44.5 -18.5q-52 0 -52 55zM225 640q0 24 17 42.5t44 18.5 q54 0 54 -54q0 -25 -17.5 -43.5t-43.5 -18.5q-54 0 -54 55z" />
<glyph unicode="&#xf0;" horiz-adv-x="529" d="M30 156q0 148 75 247t205 99q34 0 80 -26q-9 33 -31 80l-115 -33l-18 71l89 22l-50 47l67 63q56 -40 85 -85l111 28l16 -71l-93 -20q34 -80 34 -197q0 -67 -15 -132.5t-47 -125.5t-90.5 -97t-135.5 -37q-88 0 -127.5 47.5t-39.5 119.5zM149 149q0 -83 71 -83q41 0 74 47 t48 109t15 120q0 83 -71 83q-41 0 -74 -46.5t-48 -108.5t-15 -121z" />
<glyph unicode="&#xf1;" horiz-adv-x="551" d="M36 0l51 252q11 54 11 99q0 71 -25 113l91 36q26 -31 26 -85q0 -12 -9 -94l17 40q60 137 186 137q64 0 95.5 -32t31.5 -90q0 -56 -32.5 -150t-32.5 -130q0 -56 9 -96h-112q-4 22 -4 60q0 54 29.5 152t29.5 139q0 57 -54 57q-51 0 -100 -80t-66 -169l-31 -159h-111z M234 589l14 74q37 23 81 23q23 0 72 -10t73 -10q20 0 40 3.5t30 6.5l10 4l-15 -74q-37 -23 -81 -23q-24 0 -73 10t-72 10q-20 0 -39.5 -3.5t-29.5 -7.5z" />
<glyph unicode="&#xf2;" d="M30 156q0 148 74.5 247t204.5 99q88 0 127.5 -47.5t39.5 -119.5q0 -149 -74 -247.5t-205 -98.5q-88 0 -127.5 47.5t-39.5 119.5zM134 713q26 40 77 61q20 -44 54.5 -91t59.5 -73l25 -25l-48 -45q-14 9 -36 24t-67.5 60.5t-64.5 88.5zM149 149q0 -83 71 -83q41 0 74 47 t48 109t15 120q0 83 -71 83q-41 0 -74 -46.5t-48 -108.5t-15 -121z" />
<glyph unicode="&#xf3;" d="M30 156q0 148 74.5 247t204.5 99q88 0 127.5 -47.5t39.5 -119.5q0 -149 -74 -247.5t-205 -98.5q-88 0 -127.5 47.5t-39.5 119.5zM149 149q0 -83 71 -83q41 0 74 47t48 109t15 120q0 83 -71 83q-41 0 -74 -46.5t-48 -108.5t-15 -121zM271 591q94 126 174 183 q50 -34 63 -69q-34 -22 -82 -63.5t-79 -71.5l-31 -31z" />
<glyph unicode="&#xf4;" d="M30 156q0 148 74.5 247t204.5 99q88 0 127.5 -47.5t39.5 -119.5q0 -149 -74 -247.5t-205 -98.5q-88 0 -127.5 47.5t-39.5 119.5zM149 149q0 -83 71 -83q41 0 74 47t48 109t15 120q0 83 -71 83q-41 0 -74 -46.5t-48 -108.5t-15 -121zM152 595q118 131 199 187 q25 -39 59.5 -86.5t56.5 -75.5l22 -27l-48 -45q-64 39 -116 96l-123 -97z" />
<glyph unicode="&#xf5;" d="M30 156q0 148 74.5 247t204.5 99q88 0 127.5 -47.5t39.5 -119.5q0 -149 -74 -247.5t-205 -98.5q-88 0 -127.5 47.5t-39.5 119.5zM149 149q0 -83 71 -83q41 0 74 47t48 109t15 120q0 83 -71 83q-41 0 -74 -46.5t-48 -108.5t-15 -121zM172 593l14 74q37 23 81 23 q23 0 72 -10t73 -10q20 0 40 3.5t30 6.5l10 4l-15 -74q-37 -23 -81 -23q-24 0 -73 10t-72 10q-20 0 -39.5 -3.5t-29.5 -7.5z" />
<glyph unicode="&#xf6;" d="M30 156q0 148 74.5 247t204.5 99q88 0 127.5 -47.5t39.5 -119.5q0 -149 -74 -247.5t-205 -98.5q-88 0 -127.5 47.5t-39.5 119.5zM149 149q0 -83 71 -83q41 0 74 47t48 109t15 120q0 83 -71 83q-41 0 -74 -46.5t-48 -108.5t-15 -121zM175 625q0 28 18 48t47 20 q57 0 57 -59q0 -27 -18.5 -46.5t-48.5 -19.5q-55 0 -55 57zM364 625q0 28 18 48t48 20q56 0 56 -59q0 -27 -18.5 -46.5t-47.5 -19.5q-56 0 -56 57z" />
<glyph unicode="&#xf7;" horiz-adv-x="525" d="M56 254l17 88h386l-15 -88h-388zM167 124q0 28 17 46.5t46 18.5q53 0 53 -54q0 -27 -17.5 -45.5t-45.5 -18.5q-26 0 -39.5 14.5t-13.5 38.5zM229 454q0 27 17.5 46t46.5 19q52 0 52 -54q0 -27 -17 -45.5t-45 -18.5q-54 0 -54 53z" />
<glyph unicode="&#xf8;" d="M30 156q0 148 74.5 247t204.5 99q32 0 61 -8l40 60l64 -43l-38 -57q40 -43 40 -119q0 -149 -74 -247.5t-205 -98.5q-33 0 -62 8l-39 -60l-64 43l37 57q-39 43 -39 119zM144 149l180 274q-17 4 -38 4q-41 0 -75 -47t-50.5 -109.5t-16.5 -121.5zM181 67q21 -3 39 -3 q41 0 75 47t50.5 109.5t16.5 120.5z" />
<glyph unicode="&#xf9;" horiz-adv-x="546" d="M35 114q0 54 33 148.5t33 140.5q0 49 -6 70l95 24q19 -39 19 -101q0 -47 -30 -130.5t-30 -126.5q0 -57 54 -57q51 0 99.5 79.5t65.5 169.5l31 159h112l-53 -252q-11 -54 -11 -93q0 -65 37 -119l-91 -36q-34 39 -34 99q0 21 7 80l-17 -40q-60 -137 -187 -137 q-64 0 -95.5 32t-31.5 90zM142 709q26 40 77 61q20 -44 54.5 -91t59.5 -73l25 -25l-48 -45q-14 9 -36 24t-67.5 60.5t-64.5 88.5z" />
<glyph unicode="&#xfa;" horiz-adv-x="546" d="M35 114q0 54 33 148.5t33 140.5q0 49 -6 70l95 24q19 -39 19 -101q0 -47 -30 -130.5t-30 -126.5q0 -57 54 -57q51 0 99.5 79.5t65.5 169.5l31 159h112l-53 -252q-11 -54 -11 -93q0 -65 37 -119l-91 -36q-34 39 -34 99q0 21 7 80l-17 -40q-60 -137 -187 -137 q-64 0 -95.5 32t-31.5 90zM279 587q94 126 174 183q50 -34 63 -69q-34 -22 -82 -63.5t-79 -71.5l-31 -31z" />
<glyph unicode="&#xfb;" horiz-adv-x="546" d="M35 114q0 54 33 148.5t33 140.5q0 49 -6 70l95 24q19 -39 19 -101q0 -47 -30 -130.5t-30 -126.5q0 -57 54 -57q51 0 99.5 79.5t65.5 169.5l31 159h112l-53 -252q-11 -54 -11 -93q0 -65 37 -119l-91 -36q-34 39 -34 99q0 21 7 80l-17 -40q-60 -137 -187 -137 q-64 0 -95.5 32t-31.5 90zM160 591q118 131 199 187q26 -39 60.5 -86.5t56.5 -75.5l21 -27l-48 -45q-64 39 -116 96l-123 -97z" />
<glyph unicode="&#xfc;" horiz-adv-x="546" d="M35 114q0 54 33 148.5t33 140.5q0 49 -6 70l95 24q19 -39 19 -101q0 -47 -30 -130.5t-30 -126.5q0 -57 54 -57q51 0 99.5 79.5t65.5 169.5l31 159h112l-53 -252q-11 -54 -11 -93q0 -65 37 -119l-91 -36q-34 39 -34 99q0 21 7 80l-17 -40q-60 -137 -187 -137 q-64 0 -95.5 32t-31.5 90zM183 621q0 28 18 48t48 20q56 0 56 -59q0 -27 -18.5 -46.5t-47.5 -19.5q-56 0 -56 57zM372 621q0 28 18 48t48 20q56 0 56 -59q0 -27 -18.5 -46.5t-47.5 -19.5q-56 0 -56 57z" />
<glyph unicode="&#xfd;" horiz-adv-x="546" d="M35 114q0 54 32.5 148.5t32.5 140.5q0 47 -5 70l95 24q19 -39 19 -101q0 -47 -30 -130.5t-30 -126.5q0 -57 54 -57q50 0 99 79.5t66 169.5l31 159h112q-65 -276 -65 -344q0 -34 8 -88.5t8 -84.5q0 -105 -54.5 -150t-157.5 -45q-80 0 -205 60l39 84q2 -1 30.5 -13 t39 -15.5t33.5 -11.5t41.5 -11t35.5 -3q45 0 72 29.5t27 73.5q0 7 -2 43.5t-2 75.5q0 14 4 46.5t4 34.5l-19 -42q-58 -137 -186 -137q-64 0 -95.5 32t-31.5 90zM279 587q94 126 175 183q49 -34 62 -69q-34 -22 -82 -63.5t-79 -71.5l-31 -31z" />
<glyph unicode="&#xfe;" horiz-adv-x="525" d="M-15 -222l180 927l113 20l-31 -169q-10 -53 -46 -162q59 104 161 104q67 0 100 -48t33 -117q0 -147 -75 -244t-206 -97q-35 0 -76 9l-40 -203zM153 79q29 -10 59 -10q42 0 75 25.5t51.5 66t28 85.5t9.5 91q0 43 -12.5 61t-38.5 18q-47 0 -91 -92t-76 -224z" />
<glyph unicode="&#xff;" horiz-adv-x="546" d="M35 114q0 54 32.5 148.5t32.5 140.5q0 47 -5 70l95 24q19 -39 19 -101q0 -47 -30 -130.5t-30 -126.5q0 -57 54 -57q50 0 99 79.5t66 169.5l31 159h112q-65 -276 -65 -344q0 -34 8 -88.5t8 -84.5q0 -105 -54.5 -150t-157.5 -45q-80 0 -205 60l39 84q2 -1 30.5 -13 t39 -15.5t33.5 -11.5t41.5 -11t35.5 -3q45 0 72 29.5t27 73.5q0 7 -2 43.5t-2 75.5q0 14 4 46.5t4 34.5l-19 -42q-58 -137 -186 -137q-64 0 -95.5 32t-31.5 90zM183 621q0 28 18 48t48 20q56 0 56 -59q0 -27 -18.5 -46.5t-47.5 -19.5q-56 0 -56 57zM372 621q0 28 18 48 t48 20q56 0 56 -59q0 -27 -18.5 -46.5t-47.5 -19.5q-56 0 -56 57z" />
<glyph unicode="&#x152;" horiz-adv-x="816" d="M40 208q0 93 22.5 176t66.5 149.5t116 106t163 39.5q40 0 72 -10h361l-18 -84h-248l-37 -192h197l-18 -83h-195l-44 -226h257v-84h-385q-46 -13 -90 -13q-220 0 -220 221zM168 226q0 -152 126 -152q35 0 68 9l99 503q-56 9 -87 9q-51 0 -92 -36t-65 -92.5t-36.5 -118.5 t-12.5 -122z" />
<glyph unicode="&#x153;" horiz-adv-x="769" d="M30 156q0 148 74.5 247t204.5 99q104 0 133 -77q69 77 179 77q144 0 144 -108q0 -86 -85 -142.5t-220 -63.5q-1 -12 -1 -35q0 -83 73 -83q23 0 61 10t65 20l26 11l23 -72q-101 -50 -198 -50q-104 0 -135 75q-67 -75 -177 -75q-88 0 -127.5 47.5t-39.5 119.5zM149 149 q0 -83 71 -83q41 0 74 47t48 109t15 120q0 83 -71 83q-41 0 -74 -46.5t-48 -108.5t-15 -121zM472 260q83 5 131.5 41t48.5 75q0 49 -54 49q-44 0 -76.5 -47t-49.5 -118z" />
<glyph unicode="&#x178;" horiz-adv-x="459" d="M40 669h118l66 -259q72 171 224 275l70 -56q-114 -109 -156 -163q-107 -136 -127 -320q-5 -51 -5 -108v-38h-115v40q0 128 44 235zM151 792q0 28 18 48t48 20q56 0 56 -59q0 -27 -18.5 -46.5t-47.5 -19.5q-56 0 -56 57zM340 792q0 28 18 48t48 20q56 0 56 -59 q0 -27 -18.5 -46.5t-47.5 -19.5q-56 0 -56 57z" />
<glyph unicode="&#x2c6;" horiz-adv-x="479" d="M68 583q119 131 199 187q26 -39 60.5 -86.5t56.5 -75.5l22 -27l-48 -45q-64 39 -116 96l-124 -97z" />
<glyph unicode="&#x2dc;" horiz-adv-x="480" d="M80 589l15 74q37 23 81 23q24 0 73 -10t72 -10q20 0 39.5 3.5t29.5 6.5l10 4l-14 -74q-37 -23 -81 -23q-23 0 -72 10t-73 10q-20 0 -40 -3.5t-30 -7.5z" />
<glyph unicode="&#x2000;" horiz-adv-x="460" />
<glyph unicode="&#x2001;" horiz-adv-x="921" />
<glyph unicode="&#x2002;" horiz-adv-x="460" />
<glyph unicode="&#x2003;" horiz-adv-x="921" />
<glyph unicode="&#x2004;" horiz-adv-x="307" />
<glyph unicode="&#x2005;" horiz-adv-x="230" />
<glyph unicode="&#x2006;" horiz-adv-x="153" />
<glyph unicode="&#x2007;" horiz-adv-x="153" />
<glyph unicode="&#x2008;" horiz-adv-x="115" />
<glyph unicode="&#x2009;" horiz-adv-x="184" />
<glyph unicode="&#x200a;" horiz-adv-x="51" />
<glyph unicode="&#x2010;" horiz-adv-x="370" d="M40 274l17 83h273l-16 -83h-274z" />
<glyph unicode="&#x2011;" horiz-adv-x="370" d="M40 274l17 83h273l-16 -83h-274z" />
<glyph unicode="&#x2012;" horiz-adv-x="370" d="M40 274l17 83h273l-16 -83h-274z" />
<glyph unicode="&#x2013;" horiz-adv-x="485" d="M-16 278l16 82h485l-16 -82h-485z" />
<glyph unicode="&#x2014;" horiz-adv-x="677" d="M-16 278l16 82h677l-16 -82h-677z" />
<glyph unicode="&#x2018;" horiz-adv-x="249" d="M85 487q0 68 55 135t119 98l33 -55q-90 -60 -90 -149q0 -40 3 -65q-21 -18 -67 -18q-53 0 -53 54z" />
<glyph unicode="&#x2019;" horiz-adv-x="249" d="M86 494q90 60 90 148q0 40 -3 66q22 18 68 18q53 0 53 -54q0 -68 -55.5 -135.5t-119.5 -97.5z" />
<glyph unicode="&#x201a;" horiz-adv-x="299" d="M-14 -92q90 60 90 148q0 40 -3 66q22 18 68 18q53 0 53 -54q0 -68 -55 -135t-120 -98z" />
<glyph unicode="&#x201c;" horiz-adv-x="443" d="M85 487q0 68 55 135t119 98l33 -55q-90 -60 -90 -149q0 -40 3 -65q-21 -18 -67 -18q-53 0 -53 54zM278 487q0 68 55 135t119 98l34 -55q-90 -60 -90 -149q0 -40 3 -65q-22 -18 -68 -18q-53 0 -53 54z" />
<glyph unicode="&#x201d;" horiz-adv-x="443" d="M85 494q90 60 90 148q0 40 -3 66q22 18 68 18q53 0 53 -54q0 -68 -55.5 -135.5t-119.5 -97.5zM278 494q90 60 90 148q0 49 -2 66q21 18 67 18q53 0 53 -54q0 -68 -55 -135.5t-119 -97.5z" />
<glyph unicode="&#x201e;" horiz-adv-x="443" d="M-44 -92q90 60 90 148q0 40 -3 66q22 18 68 18q53 0 53 -54q0 -68 -55 -135t-119 -98zM149 -92q91 60 91 148q0 40 -3 66q21 18 67 18q53 0 53 -54q0 -68 -55 -135t-119 -98z" />
<glyph unicode="&#x2022;" horiz-adv-x="297" d="M41 302q0 49 30.5 82.5t81.5 33.5q47 0 71 -25.5t24 -71.5q0 -48 -31 -81t-83 -33q-46 0 -69.5 25.5t-23.5 69.5z" />
<glyph unicode="&#x202f;" horiz-adv-x="184" />
<glyph unicode="&#x2039;" horiz-adv-x="359" d="M35 245q40 44 101 98.5t102 86.5l40 33l46 -58l-158 -161q9 -14 48.5 -78.5t56.5 -91.5l-61 -47q-115 120 -175 218z" />
<glyph unicode="&#x203a;" horiz-adv-x="359" d="M36 85l157 160q-54 88 -104 171l60 47q116 -120 176 -218q-40 -44 -101 -98.5t-102 -86.5l-40 -33z" />
<glyph unicode="&#x205f;" horiz-adv-x="230" />
<glyph unicode="&#x20ac;" horiz-adv-x="560" d="M25 186l17 87h52q3 33 10 63h-50l17 87h61q40 98 111 159t171 61t131 -88l-76 -49q-15 27 -33 38.5t-49 11.5q-88 0 -143 -133h208l-30 -87h-207q-9 -40 -11 -63h195l-30 -87h-164q9 -51 34.5 -81.5t67.5 -30.5q61 0 119 26l20 -70q-85 -36 -176 -36q-80 0 -126.5 49.5 t-52.5 142.5h-66z" />
<glyph unicode="&#xe000;" horiz-adv-x="495" d="M0 0v495h495v-495h-495z" />
</font>
</defs>
</svg>
