<?xml version="1.0" standalone="no"?>
<!DOCTYPE svg PUBLIC "-//W3C//DTD SVG 1.1//EN" "http://www.w3.org/Graphics/SVG/1.1/DTD/svg11.dtd" >
<svg xmlns="http://www.w3.org/2000/svg">
<metadata></metadata>
<defs>
<font id="learning_curve_proregular" horiz-adv-x="378" >
<font-face units-per-em="1000" ascent="750" descent="-250" />
<missing-glyph horiz-adv-x="266" />
<glyph unicode="&#xfb01;" horiz-adv-x="360" d="M-67 -210q-4 18 5 57q11 45 53 149l71 163q-8 -1 -11 6t2 13q9 10 22 23q1 2 3.5 4.5t4.5 5t3 5.5q6 12 13 28l15 36q70 174 115 276q19 41 51 50q32 10 53 -15q21 -24 7 -69q-15 -44 -61 -107q-29 -41 -93 -121q-58 -67 -67 -77l-9 -10q-6 -7 -8 -13q-19 -42 -55 -126 q4 9 24 9q40 0 72 15q42 21 96 85q3 3 4 3q15 18 44 51.5t35 39.5l22 26q5 7 12 6q14 -4 3 -24q-1 -2 -1 -3q-37 -68 -62 -130q-14 -32 -20 -58q-3 -13 -2 -24q0 -12 4 -12q4 -1 16 5q6 3 11.5 7t11 8.5t9.5 8t9.5 9.5t8.5 9t9.5 10t8.5 9q20 22 38 44q1 1 3.5 4t4 5 t4.5 4.5t5.5 4t5 1t5.5 -2.5q8 -7 -2 -21l-18 -20q-34 -40 -53 -59q-27 -27 -46 -38q-27 -16 -42 -8q-31 15 -4 91q13 36 38 90l-45 -53l-5 -4q-49 -58 -94 -81q-36 -20 -83 -20q-6 0 -9 1q-1 -1 -1 -4q-2 -6 1 -34q1 -7 6 -45t6 -52.5t-0.5 -42.5t-8.5 -49 q-10 -32 -32 -54.5t-51 -23.5q-42 0 -52 39zM-44 -181q-4 -19 2 -31q6 -11 19.5 -13t23.5 3q28 12 40.5 43t12.5 67q1 27 -5 75t-7 60q-3 17 0 35q-34 -78 -49 -118q-1 -3 -7.5 -18.5t-8.5 -20.5t-6.5 -18t-6.5 -21.5t-4.5 -20t-3.5 -22.5zM133 267q107 127 155 201 q19 31 29 56q7 13 6 33t-16 27q-14 6 -28 -2.5t-23 -22.5q-6 -9 -17 -36l-16 -38q-7 -17 -20 -48.5t-18 -43.5zM404 437q-16 9 -6 29t27 12q16 -9 6 -29t-27 -12z" />
<glyph unicode="&#xfb02;" horiz-adv-x="386" d="M-67 -210q-4 18 5 57q11 45 53 149l71 163q-8 -1 -11 6t2 13q9 10 22 23q1 2 5.5 7t5.5 8q6 12 13 28l15 36q70 174 115 276q19 41 51 50q32 10 53 -15q21 -24 7 -69q-15 -44 -61 -107q-29 -41 -93 -121q-58 -67 -67 -77l-9 -10q-6 -7 -8 -13q-19 -42 -55 -126q4 9 24 9 q40 0 72 15q42 21 96 85q13 13 16 17l24 31q3 3 5.5 6t6 7.5t5.5 6.5q7 10 7 11q1 2 2.5 5.5t2.5 5.5q15 41 28 70q37 94 79 179q22 42 39 61q34 41 62 26q16 -8 18.5 -29t-5.5 -35q-5 -15 -25 -48q-27 -45 -76 -110q-33 -45 -101 -133q-4 -4 -7 -10q-4 -12 -13 -36.5 t-15 -44.5t-9 -40q-4 -29 3 -45q3 -7 8 -10.5t12 -2.5t13.5 4t15 9.5t15 12t15 14l13 13t10.5 11.5l7 7l31 34q1 1 5 6t6.5 7.5t6.5 5.5t7.5 2.5t6.5 -4.5q5 -8 -3 -18q-16 -19 -17 -20l-33 -35q-29 -33 -55 -52q-28 -20 -47 -19q-21 0 -32 16.5t-12 39.5q-1 30 20 95 q-7 -8 -19 -24q-2 -2 -6 -4q-54 -63 -97 -85q-36 -20 -83 -20q-6 0 -9 1q-1 -1 -1 -4q-2 -6 1 -34q1 -7 6 -45t6 -52.5t-0.5 -42.5t-8.5 -49q-10 -32 -32 -54.5t-51 -23.5q-42 0 -52 39zM-44 -181q-4 -19 2 -31q6 -11 19.5 -13t23.5 3q28 12 40.5 43t12.5 67q1 27 -5 75 t-7 60q-3 17 0 35q-34 -78 -49 -118q-1 -3 -7.5 -18.5t-8.5 -20.5t-6.5 -18t-6.5 -21.5t-4.5 -20t-3.5 -22.5zM133 267q107 127 155 201q19 31 29 56q7 13 6 33t-16 27q-14 6 -28 -2.5t-23 -22.5q-6 -9 -17 -36l-16 -38q-7 -17 -20 -48.5t-18 -43.5zM352 317q62 82 91 123 q47 69 62 99q2 5 4 13t3 16t-3.5 12.5t-13.5 2.5q-20 -8 -42 -46q-15 -23 -31 -58q-20 -39 -40 -87z" />
<glyph horiz-adv-x="1000" />
<glyph horiz-adv-x="1000" />
<glyph unicode="&#xd;" horiz-adv-x="1000" />
<glyph unicode=" "  horiz-adv-x="266" />
<glyph unicode="&#x09;" horiz-adv-x="266" />
<glyph unicode="&#xa0;" horiz-adv-x="266" />
<glyph unicode="!" horiz-adv-x="500" d="M125 62q0 19 19 19q8 0 13 -5.5t5 -13.5t-5 -13t-13 -5t-13.5 5t-5.5 13zM192 219q5 11 10.5 23.5t11.5 27.5t10 24q107 249 117 272l9 21q7 16 17 11q12 -5 1 -26q-5 -13 -17 -39q-94 -222 -138 -322q-2 -7 -8.5 -7.5t-11 4t-1.5 11.5z" />
<glyph unicode="&#x22;" horiz-adv-x="210" d="M214 512q3 6 8 17.5t6 13.5q4 8 10.5 22t12.5 26l11 22q4 6 10 6.5t9.5 -4.5t0.5 -11q0 -2 -1 -3l-11 -24q-3 -6 -9 -18.5t-8 -16.5l-14 -30l-4 -8l-1 -1q-1 -5 -8 -7q-6 0 -11 5t-1 11zM279 517l12 26l4.5 9t4 9t4 8.5t4.5 8.5l13 29l3 6l3 4q7 6 14.5 0t3.5 -13 q-1 -1 -1 -3q-10 -19 -28 -59l-19 -38v-1q-3 -5 -8 -7q-9 0 -12 7t2 14z" />
<glyph unicode="#" horiz-adv-x="483" d="M23 324h89l1 2q6 15 24 54q18 40 29 64l5 12h-79q-10 2 -9.5 12.5t11.5 10.5h87l1 1q23 54 31 70q18 39 24 54q6 12 15 9q6 -2 8 -10q0 -3 -3 -9.5l-3 -6.5q-40 -90 -43 -95q-1 -5 -5 -13h130l1 1q23 54 31 70q18 39 24 54q6 12 15 9q6 -2 8 -10q0 -3 -3 -9.5l-3 -6.5 q-12 -26 -29 -65l-14 -30q-1 -5 -5 -13h77q11 0 11.5 -10.5t-9.5 -12.5h-89l-1 -2q-6 -15 -24 -54q-32 -71 -34 -76h79q9 -2 9 -12.5t-11 -10.5h-87l-1 -1q-23 -54 -31 -70l-15 -33l-9 -22l-1 -2l-2 -3q-5 -5 -11.5 -3t-8.5 9q0 4 6 16q30 71 43 96q1 5 5 13h-130l-1 -1 q-23 -54 -31 -70l-15 -33l-9 -22l-1 -2l-2 -3q-5 -5 -11.5 -3t-8.5 9q0 4 6 16q30 71 43 96q1 5 5 13h-77q-7 0 -10 5t-0.5 10.5t8.5 7.5zM137 324h130q1 1 1 2q6 15 24 54q18 40 29 64l5 12h-130q-2 -4 -5.5 -12.5t-4.5 -10.5q-15 -32 -31 -69l-13 -29q-1 -2 -2.5 -6 t-2.5 -5z" />
<glyph unicode="$" horiz-adv-x="312" d="M29 291q0 7 5 12q7 3 12.5 0t5.5 -11q0 -32 35 -51l1 2q7 16 22 54q4 9 16.5 38t18.5 45q0 1 -1 2l-12 14q-13 13 -19 24q-18 26 -20 58q0 39 27.5 66t67.5 23q9 0 18 -3q1 0 3 -0.5t3.5 -1t4 -1t3.5 -0.5q2 5 8 18.5t8 21.5q6 12 17 6q7 -4 5 -11q0 -1 -0.5 -2.5 l-0.5 -1.5q-4 -8 -17 -41q36 -21 47 -71q2 -6 0 -11.5t-8 -5.5q-7 -1 -12 5l-2 7q0 1 -0.5 3.5t-0.5 3.5q-6 18 -11 27q-8 13 -21 22l-1 -1q-4 -7 -5 -14q-12 -26 -28 -66q-16 -39 -24 -58q-2 -4 -2 -6q-1 0 0 -1l12 -15q27 -31 37 -52q13 -25 9 -51t-21 -40 q-17 -16 -46 -20.5t-57 3.5q-2 0 -6 2q-1 0 -1 -1q-2 -4 -2 -5l-8 -18q0 -7 -5.5 -11.5t-11.5 -2.5t-8 10q0 2 2 6t2 6l8 18q0 1 2 5v1q-49 28 -49 71zM108 233q32 -12 64 -1t36 39q6 28 -24 63q-4 6 -12.5 16.5t-9.5 11.5q-1 0 -1 -1l-7 -18q-2 -4 -4.5 -9.5t-5 -12 t-4.5 -10.5q-17 -39 -27 -66zM119 458q6 -20 36 -54l1 2v2q7 15 23 55q17 40 27 65l5 12q-15 5 -38 5q-29 -3 -47 -29t-7 -58z" />
<glyph unicode="%" horiz-adv-x="470" d="M39 464q10 36 25 62q29 58 74 79q22 12 44 6q26 -7 36.5 -36.5t7.5 -67.5q1 0 3 0.5t3 0.5q94 16 143 87l8 13q2 2 2 4q1 1 1 2l2 2q2 2 3 2q1 1 2 1l2 1h3q1 -1 2 -1q2 0 6 -4l0.5 -1.5t0.5 -2.5v-4q0 -1 -5 -11l-15 -27q-11 -19 -25 -43l-15 -27q-3 -4 -5.5 -9 t-6 -10.5t-5.5 -9.5q-12 -20 -17 -31q-7 -11 -19 -33l-20 -33l-19 -35q-18 -30 -20 -35l-20 -34q-2 -3 -9 -15t-10 -19q-18 -33 -36 -62q-11 -20 -43 -76l-11 -19q-1 -2 -8 -14l-5 -10q-7 -10 -13 -10t-9.5 6t0.5 11l2 4q3 7 7.5 14.5t10 16.5t8.5 14q54 97 66 116q2 3 9 15 t10 19l20 34q2 5 20 35q19 35 37 66l18 31q10 18 16 27l13 24l12 20q6 10 8 15l6 10l2 3q-51 -33 -111 -41h-2v-2q-1 -2 -1 -5q-2 -6 -2 -9q-4 -12 -5 -18l-13 -31q-27 -60 -70 -89q-22 -13 -40 -14q-31 0 -46.5 26t-14 58.5t7.5 63.5zM54 393q0 -23 11 -40t31 -14 q37 7 74 66q17 29 26 61l4 17h-10q-38 2 -62 18q-26 22 -23 46q-41 -52 -50 -120q-2 -23 -1 -34zM132 570q-14 -36 10 -50q17 -15 61 -15q8 42 -10 69.5t-55 5.5q-1 -1 -2 -1q0 -1 -1 -1v-1zM260 50q-19 19 -21.5 55t5.5 68t21 57q29 62 71 87q23 13 40 12q40 0 54 -49 q15 -59 -15 -131q-15 -35 -30 -55q-34 -51 -77 -60q-31 -4 -48 16zM262 143q-5 -59 18 -82q26 -19 61 16q21 20 36 45q52 90 29 158q-6 15 -14 21q-16 13 -42 -1q-35 -23 -58.5 -65t-29.5 -92z" />
<glyph unicode="&#x26;" horiz-adv-x="361" d="M4 46q-12 15 -14 34.5t3 37t15 34.5q25 47 86 98q27 24 107 84q2 0 0 2v2l-2 10q-7 46 -7 77q-3 80 23 125q14 25 40 44t56 17q30 0 52 -21t31 -49q3 -15 3 -31q-4 -38 -38 -75q-37 -40 -107 -92l-16 -11l-8 -6l-1 -1v-1v-3l0.5 -1.5t0.5 -2.5q18 -78 29 -111l21 -66 q29 23 55 46l48 43l17 18l11 13l3 5q0 1 1 2l3 6q8 4 13 0q4 -3 5 -6.5t-1 -8t-3.5 -7.5t-5.5 -7.5l-4 -4.5q-7 -9 -36 -38q-25 -23 -50 -44l-27 -23q-4 -2 -10 -7.5t-8 -6.5q-1 0 -1 -1q-1 0 -1 -1q3 -8 6 -16.5t5.5 -15.5t6.5 -16t6 -16l6 -13q0 -1 0.5 -4t0 -4.5 t-1.5 -3.5t-3 -4q-11 -5 -17 7l-6 14q-8 19 -22 57q-73 -52 -109 -67q-72 -25 -116 -12q-25 7 -39 22zM13 76q10 -26 46 -32t67 5q43 11 110 59l20 15q1 0 1.5 0.5l0.5 0.5l1 0.5t0 1.5q-4 16 -16.5 52t-17.5 56q-8 30 -19 76q-1 -2 -5 -4q-6 -5 -33 -25t-37.5 -28.5 t-30.5 -25.5t-33.5 -32t-25.5 -32q-37 -47 -28 -87zM222 349l44 33q32 25 54 46q40 37 50 64q12 30 -4 59.5t-45 35.5q-17 4 -34 -2t-28 -15.5t-19 -22.5q-41 -55 -18 -198z" />
<glyph unicode="'" horiz-adv-x="215" d="M226 512q3 6 8 17.5t6 13.5q4 8 10.5 22t12.5 26l11 22q4 6 10 6.5t9.5 -4.5t0.5 -11q0 -2 -1 -3l-11 -24q-3 -6 -9 -18.5t-8 -16.5l-14 -30l-4 -8l-1 -1q-1 -5 -8 -7q-6 0 -11 5t-1 11z" />
<glyph unicode="(" horiz-adv-x="350" d="M45 -98q0 116 49 257q16 48 26 72q10 26 28 65q28 64 61 119l33 53q36 52 68 87l34 33q35 31 64 42q15 7 29 8q9 1 17 -2.5t3 -12.5q-3 -7 -10 -7q-25 0 -51 -17q-27 -16 -52.5 -41.5t-41.5 -46t-39 -54.5q-13 -18 -66 -110l-30 -62q-65 -142 -89 -276q-11 -58 -11 -116 q0 -98 46 -114q3 -1 8 -2t6 -1q11 0 13 -8.5t-8 -13.5h-7q-43 0 -68 59q-12 39 -12 89z" />
<glyph unicode=")" horiz-adv-x="415" d="M-26 -227h7q7 0 13 3q22 4 61 35q39 33 101 117q64 91 124 237q41 109 63 211q14 68 11 117q0 95 -43 116l-14 3h-7l-6 3q-5 6 -2 13t10 7q60 0 80 -88q4 -21 4 -47q3 -55 -9 -115q-15 -82 -34 -137q-27 -98 -82 -202l-31 -59q-16 -29 -33 -53q-55 -94 -134 -153 q-44 -31 -76 -31q-8 0 -11.5 5t-1 10.5t9.5 7.5z" />
<glyph unicode="*" horiz-adv-x="411" d="M45 333q46 31 82 54q37 24 55 36l9 6l-18.5 18.5t-21.5 21t-19 18.5l-9 9q-2 2 -4 8q0 7 6.5 10.5t12.5 -1.5q5 -5 15 -14.5t12 -11.5l40 -40q3 8 22 49q24 55 28 64q1 5 9 7q6 0 10.5 -5t0.5 -11q0 -3 -5 -11q-5 -15 -14 -32l-15 -34q-3 -10 -7 -16q5 3 15.5 9.5 t11.5 7.5q31 21 63 42l26 17q9 6 10 7q10 5 16 -4t-3 -15q-17 -11 -50 -33q-34 -21 -64 -42q-29 -19 -32 -21l32 -32l34 -34q5 0 5 -9q2 -7 -6 -10.5t-13 1.5q-1 3 -4 4l-49 49l-13 13h-1l-7 -17q-5 -11 -14.5 -34t-15.5 -34l-10 -24q-2 -2 -2 -4q-3 -7 -10 -7 q-6 0 -9.5 4.5t-1.5 11.5q1 1 1 2q17 38 18 41q19 43 22 50q-24 -16 -32 -21q-34 -23 -64 -43l-23 -15l-6 -3l-1 -1q-6 -4 -11 -0.5t-5.5 9t4.5 10.5z" />
<glyph unicode="+" horiz-adv-x="384" d="M39 267q-11 0 -11.5 11.5t11.5 11.5h138q2 5 6 14.5t5 11.5l13 35q17 40 27 65q2 11 8 17t16 -1q3 -7 2 -11l-1 -1q-4 -12 -20 -51q-17 -41 -27 -67l-5 -12h134q5 0 8.5 -4t2.5 -8q0 -4 -3.5 -7.5t-7.5 -3.5h-141h-2q0 -1 -0.5 -2.5t-1.5 -2.5l-10 -26q-12 -28 -14 -35 l-14 -35l-10 -23l-0.5 -1.5t-0.5 -2.5q-3 -6 -10 -7q-6 0 -9.5 4.5t-1.5 11.5l1 1q2 6 4.5 12t5.5 13.5t5 11.5q4 13 14 37l13 31q1 5 5 13h-129z" />
<glyph unicode="," horiz-adv-x="233" d="M102 -20q2 4 7 10.5t7 10.5q5 6 15.5 22.5t7.5 18.5q-8 6 -9 10q-4 10 2.5 18t16.5 7q15 -1 18 -20v-4q-2 -20 -29 -61l-16 -23q-4 -5 -10.5 -4.5t-9.5 5t0 10.5z" />
<glyph unicode="-" horiz-adv-x="436" d="M121 262q0 8 7 11h217q7 0 10 -5.5t0.5 -11t-10.5 -5.5h-206q-18 0 -18 11z" />
<glyph unicode="." horiz-adv-x="139" d="M85 73q0 9 6.5 15.5t15.5 6.5q10 0 16.5 -6.5t6.5 -15.5q0 -10 -6.5 -16.5t-16.5 -6.5q-9 0 -15.5 6.5t-6.5 16.5z" />
<glyph unicode="/" horiz-adv-x="351" d="M-37 47v12q0 1 3 1h24h8q4 13 13 35t11 26q14 34 39.5 96.5t34.5 85.5q99 242 115 283h-222v23h390q1 0 1 -11.5v-11.5h-129h-16q-4 -12 -13 -34.5t-11 -26.5q-14 -34 -39.5 -96.5t-34.5 -85.5q-99 -242 -115 -283h331q2 -23 0 -23h-389q-1 0 -1 10z" />
<glyph unicode="0" horiz-adv-x="357" d="M29 219q11 93 57 189q40 83 93 136q54 52 103 52q30 0 50.5 -20.5t29 -46.5t10.5 -56q5 -86 -29 -189q-32 -95 -81 -162q-49 -68 -101 -93q-31 -13 -54 -10q-28 4 -46.5 25t-25 49.5t-9 62.5t2.5 63zM49 182q-3 -44 7.5 -83t36.5 -52q23 -13 57 2q49 22 100 95 q50 75 78 167l12 46q10 52 10 95q0 46 -14.5 81.5t-47.5 39.5q-23 3 -51 -13q-49 -28 -99 -105q-51 -79 -74 -174q-14 -55 -15 -99z" />
<glyph unicode="1" horiz-adv-x="258" d="M9 40q2 6 4 9l18 47q50 120 78 190q99 246 115 286q-6 -4 -37 -19q-7 -3 -13.5 1t-3.5 12q1 4 12 10l45 22l13 7q7 3 13 -2t3 -12q-123 -300 -180 -446q-30 -72 -44 -108l-1 -2q-4 -9 -13.5 -6.5t-8.5 11.5z" />
<glyph unicode="2" horiz-adv-x="422" d="M-11 43q-13 12 -9.5 27t16.5 25q42 35 126 7q7 -2 15 6q8 4 12 7l26 17q36 28 53 43q52 48 89 109q46 82 56 164q3 28 -2.5 54t-21.5 49.5t-42 33.5q-28 11 -57.5 5t-54.5 -22.5t-43 -38.5q-28 -34 -27 -63q0 -8 2 -12q5 -9 2 -14q-2 -4 -7 -5.5t-9 1.5q-9 7 -10.5 22 t2 28.5t9.5 25.5q17 33 51.5 61t78.5 38.5t87 -13.5q34 -20 50.5 -57t14.5 -80q-2 -72 -49 -169q-62 -119 -193 -200l28.5 -9.5t31 -10t28 -7t31.5 -3.5q43 -2 67 22q6 6 11 5q4 0 7 -2.5t3 -6.5q1 -6 -5 -12q-11 -11 -24.5 -17.5t-25.5 -9.5t-30 -2t-28.5 2t-30.5 6.5 t-27.5 8t-28 10t-23.5 8.5q-2 0 -7 1t-7 0q-39 -22 -71 -32q-46 -14 -64 0zM2 62q7 -8 33 -1q28 8 62 25q-53 12 -82 -5q-5 -3 -11 -9t-2 -10z" />
<glyph unicode="3" horiz-adv-x="404" d="M-39 122q7 9 16 4q2 -2 3.5 -4.5t2 -6t1.5 -4.5q15 -37 69 -53q73 -23 147 4q79 30 112 110q10 22 14 44.5t0 46t-18 38.5l-10 9q-2 2 -8 -0.5t-13.5 -7t-8.5 -5.5q-54 -24 -90 -17q-15 2 -22 14t3 28q18 23 60 29q42 7 73 -10q7 -2 19 10q81 66 92 148q9 51 -24 81 q-24 21 -67 21q-63 2 -119 -35q-19 -11 -26 -23q-1 -2 -1.5 -6t-1 -7t-2.5 -5.5t-5 -3.5q-9 -3 -12.5 4.5t-1.5 16.5q7 28 55 53q93 48 168 19q37 -16 53 -53q16 -41 0 -93q-25 -84 -104 -143q11 -10 20 -23q37 -60 -9 -155q-32 -62 -95.5 -96t-147.5 -23q-99 15 -121 77 q-4 12 -1 17zM178 303q11 -4 33 0q31 4 62 22q-20 8 -44 5.5t-43 -14.5q-2 -1 -3.5 -2.5t-4.5 -4t-2.5 -3.5t2.5 -3z" />
<glyph unicode="4" horiz-adv-x="381" d="M31 317q78 64 269 225l58 48q1 1 5.5 5t8 6.5t8 4.5t8 0.5t5.5 -6.5q1 -2 1 -6q0 -2 -2 -6.5t-3 -6.5q-3 -6 -13 -31q-18 -40 -40 -94l-58 -137q22 0 33 1q10 0 15 1q7 0 11.5 -0.5t7.5 -4t1 -10.5q-1 -4 -5.5 -6t-12 -3t-13 -1t-14.5 0.5t-12 0.5q-1 0 -3 -0.5t-5 -0.5 h-6h-5h-2q0 -1 -1 -1q-14 -34 -49 -117.5t-55 -128.5q0 -1 -0.5 -2l-0.5 -1q-3 -7 -9 -7.5t-10 4.5t-2 11q8 19 23 54l18 42l61 145q-55 -1 -165 -1h-41q-10 0 -11.5 8.5t5.5 14.5zM65 316q62 0 188 2q32 76 40 94l61 146l-32 -27q-104 -88 -157 -131z" />
<glyph unicode="5" horiz-adv-x="393" d="M14 93q-15 33 3 61q8 13 13 14t9.5 -1.5t4.5 -7.5q0 -3 -1.5 -6.5t-4 -7t-3.5 -5.5q-9 -17 -1 -36q9 -26 45 -41q45 -16 85.5 -4.5t75.5 43.5q71 63 85 153q7 51 -11 85q-17 31 -53 41q-23 8 -50.5 5t-50.5 -11t-43 -19q-9 -5 -14.5 1.5t-0.5 15.5q113 190 130 219 q7 12 14 12h172q11 0 11 -11.5t-11 -11.5h-164q-2 0 -5 -5q-6 -10 -12.5 -21t-15 -25t-12.5 -21l-70 -118q117 46 178 -19q56 -57 20 -163q-31 -90 -103 -141q-85 -60 -166 -25q-40 17 -54 50z" />
<glyph unicode="6" horiz-adv-x="340" d="M27 88q-29 59 5 162q43 133 157 253q53 58 111 99q6 4 11.5 0.5t5.5 -9t-5 -10.5q-5 -4 -14.5 -11.5t-11.5 -9.5q-124 -100 -193 -229q33 24 70 31.5t77 -5.5q42 -18 59 -61.5t9 -92t-32 -90.5q-43 -78 -117 -91q-41 -8 -78 9.5t-54 54.5zM49 93q19 -36 61.5 -46t83.5 13 q35 19 62.5 64t32 95.5t-23.5 93.5q-22 26 -55.5 30.5t-64.5 -7t-56 -33.5q-11 -11 -20 -23q-5 -7 -14 -31q-35 -102 -6 -156z" />
<glyph unicode="7" horiz-adv-x="329" d="M73 47q2 6 12 23q4 8 121 245q109 220 129 259h-214q-20 0 -21 10q-1 9 4.5 11t15.5 2h224q16 0 19 -7q2 -6 -3 -15l-57 -115q-40 -83 -91 -183q-12 -25 -35 -71t-42 -83.5t-35 -71.5l-6 -12q0 -1 -1 -2q-4 -6 -9.5 -6t-9.5 5t-1 11z" />
<glyph unicode="8" horiz-adv-x="328" d="M-3 70q-16 28 0 77q15 41 44 80q16 23 57 60q13 12 39 34q28 23 32 26q2 1 -3 11q-57 121 -13 184q41 61 131 68q73 3 106 -30q15 -17 10 -29q8 -9 -3 -30q-6 -11 -23 -30q-28 -30 -124 -108l-42 -34q-9 -6 -7 -10l7 -11q5 -9 20 -34.5t23 -42t16.5 -41t7.5 -48 t-12 -46.5q-31 -66 -123 -83q-44 -10 -86 -1t-57 38zM12 106q-1 -22 12.5 -35.5t36 -16.5t42 -2.5t38.5 4.5q28 6 51 18.5t40 34.5t19 50q5 41 -18 80l-20 35q-11 18 -31 54q-3 -2 -20 -16t-21 -17.5t-19 -16.5t-20.5 -18.5l-17.5 -17.5t-18.5 -20.5t-15 -20t-14.5 -23.5 q-24 -44 -24 -72zM181 542q-52 -58 8 -179q103 84 126 103q40 37 47 45q19 22 19 31q0 3 1 4t-1 3q-2 1 -2 2q-7 28 -59 35q-25 4 -50 0.5t-48.5 -15t-40.5 -29.5z" />
<glyph unicode="9" horiz-adv-x="293" d="M45 53q1 1 6 7q111 111 189 231q-31 -22 -65.5 -25t-67.5 19q-24 18 -34 47t-8.5 57t10.5 58q28 94 98 134l16 8q47 17 85.5 3.5t53.5 -48.5q28 -61 -12 -160q-23 -58 -76 -134q-62 -91 -162 -195l-15 -15q-6 -6 -14 -1t-4 14zM87 377q2 -47 31 -72q23 -20 50.5 -17 t49 14.5t38.5 29.5q28 29 47 81q28 86 0 130q-10 16 -24.5 24.5t-30.5 9t-33 -3.5t-31.5 -12.5t-26.5 -19.5q-33 -30 -52 -74.5t-18 -89.5z" />
<glyph unicode=":" horiz-adv-x="292" d="M160 88q0 10 8 18t18 8q12 0 20 -7.5t8 -18.5q0 -12 -8 -20t-20 -8q-11 0 -18.5 8t-7.5 20zM289 403q0 11 8 19.5t19 8.5t19 -8.5t8 -19.5t-8 -19t-19 -8t-19 8t-8 19z" />
<glyph unicode=";" horiz-adv-x="418" d="M77 -24l17 25q6 7 16 23l2 3q1 3 3 6.5l4 7t3 6.5t0 3q-10 8 -11 12q-5 12 3 22t20 8q18 -2 21 -23v-5q-1 -14 -7.5 -29t-13 -25t-18 -25.5t-15.5 -21.5q-7 -11 -18.5 -5t-5.5 18zM226 341q0 9 7 15t16 6t16 -6t7 -15q0 -10 -7 -16.5t-16 -6.5t-16 6.5t-7 16.5z" />
<glyph unicode="&#x3c;" horiz-adv-x="316" d="M1 37v21q0 2 2 2h312v-21q0 -2 -2 -2h-312zM1 297v16q0 7 2 7h158v-19q0 -4 -2 -4h-158zM1 586v21q0 2 2 2h312v-21q0 -2 -2 -2h-312z" />
<glyph unicode="=" horiz-adv-x="387" d="M28 271q0 7 7 11h255q14 0 11 -16q-3 -6 -11 -6h-244q-18 0 -18 11zM69 361q0 7 7 11h256q7 0 9.5 -5.5t0 -11t-9.5 -5.5h-245q-18 0 -18 11z" />
<glyph unicode="&#x3e;" horiz-adv-x="316" d="M1 37v21q0 2 2 2h312v-21q0 -2 -2 -2h-312zM1 297v16q0 7 2 7h158v-19q0 -4 -2 -4h-158zM1 586v21q0 2 2 2h312v-21q0 -2 -2 -2h-312z" />
<glyph unicode="?" horiz-adv-x="490" d="M125 59q0 7 5.5 12.5t12.5 5.5q8 0 13.5 -5t5.5 -13q0 -19 -19 -19q-8 0 -13 5.5t-5 13.5zM199 433q-25 -4 -4 47q5 12 9 18q21 40 55.5 70t75.5 38q49 9 84 -12q34 -20 42 -59q10 -54 -19.5 -107t-74.5 -93q-15 -14 -46 -38t-53.5 -45.5t-38.5 -45.5q-4 -6 -10 -5 t-8.5 6.5t0.5 12.5q25 38 89 89.5t85 76.5q54 63 55 124q2 36 -22 57q-31 26 -80 17q-39 -8 -71.5 -39.5t-50.5 -72.5q-5 -15 -8 -26q0 -10 -9 -13z" />
<glyph unicode="@" horiz-adv-x="617" d="M18 72q0 61 30 136q23 60 84 132q62 67 142 109q69 34 132 43q57 6 101.5 -6.5t70 -48.5t19.5 -93q-7 -64 -50 -144q-2 -3 -8 -13t-9 -14q-2 -5 -14 -21q-23 -34 -43 -55q-24 -28 -39 -39q-33 -30 -66 -30q-53 7 -31 96q-21 -29 -43 -51q-25 -26 -51 -37q-33 -14 -57 -3 q-39 19 -26 84q7 27 22 56q54 90 141 126q36 14 73 14q11 0 22 -3q3 0 9 -2h1l1 -1l1 -1q2 -1 3 -3.5t2 -3.5q0 -1 -0.5 -2.5l-0.5 -1.5v-2q-1 -1 -1 -2l-4 -8q-52 -91 -73 -175q-5 -28 -3 -37q0 -10 5.5 -15.5t14.5 -4.5q13 0 30 11q6 3 11.5 7.5t10 8.5t10.5 10l9.5 9.5 t9.5 11t8.5 10t9 11t8.5 10.5q22 31 30 43.5t24 40.5t24.5 53t13.5 53q12 66 -18 100q-24 27 -70.5 36.5t-94.5 -0.5q-60 -11 -130 -51q-59 -39 -94 -73q-54 -54 -86.5 -118t-38.5 -147q0 -192 141 -209q41 -2 69 9q21 4 21 -9q-2 -8 -8 -11q-60 -19 -110 -7q-51 13 -85 53 q-38 52 -49 126q-2 29 -1 43zM180 101q-2 -24 5 -37q18 -28 71 5q31 25 72 80q24 37 28 44q2 4 7.5 13.5t7.5 13.5l2 4l2 2l0.5 0.5t0.5 1.5l1 1.5t1 2.5q16 35 28 57q-1 1 -4 1q-17 2 -33 0t-31 -8.5t-24.5 -11.5t-24.5 -14q-28 -20 -50 -45q-50 -53 -59 -110z" />
<glyph unicode="A" horiz-adv-x="486" d="M33 229q18 82 75 164q106 156 258 202q48 14 88 15q51 0 76 -11q22 -11 23 -19q0 -9 -6 -12l-36 -86q-48 -112 -71 -168q-4 -10 -15 -35t-17 -38.5t-14.5 -34t-15 -39t-12.5 -37.5q-5 -16 -7 -28t-2.5 -28.5t8.5 -23.5t28 -3q20 4 52 30q38 33 94 100q4 5 10.5 4t8.5 -7 t-8 -19l-29 -34q-37 -42 -72 -69q-32 -24 -59 -28q-18 -2 -33 6t-20 25q-8 24 4 67q8 31 32 93q-43 -58 -82 -96q-77 -75 -143 -86q-42 -7 -72 13q-35 23 -46 76.5t3 106.5zM49 142q4 -35 22 -60.5t50 -27.5q25 -1 50 8q51 19 115 83q56 59 99 126q34 50 44 76q20 46 97 229 l-5 2q-5 2 -11 3.5t-7 1.5q-19 4 -44 4q-70 0 -144 -37q-73 -35 -133 -100q-71 -76 -108 -167q-31 -75 -25 -141z" />
<glyph unicode="B" horiz-adv-x="469" d="M25 33q0 3 2 9l13 31q48 116 73 174q13 32 37.5 90t32.5 79q40 97 47 117q8 20 5 32q-4 13 -24 17q-31 5 -67 -8.5t-49 -35.5q-1 -1 -3 -7t-5 -8t-8 -2t-7 4q-9 10 9 33q11 13 29 24t39.5 17t42.5 7q46 0 61 -26q6 -10 5.5 -23t-3 -19.5t-8.5 -22.5t-33 -83 q61 93 113 136q68 56 125 36q11 -3 21 -11q20 -14 27.5 -38.5t5.5 -48.5t-10 -48q-28 -79 -106 -129q54 -8 78 -54q23 -42 12 -100q-14 -81 -83 -124q-45 -27 -102.5 -32t-108.5 14q-24 8 -41.5 23t-11.5 36q3 10 11.5 17t16.5 -4q3 -6 -5 -16q-9 -13 19 -27q50 -29 124 -20 q26 3 50.5 11t46 24t35.5 37q15 22 22.5 51t6 56t-15 49.5t-38.5 31.5q-20 6 -38 6q-16 0 -23 -3l-22 -9q-32 -10 -49 -13q-10 -2 -14 5q-7 14 23 23q14 6 21 8l22 6q14 2 19 5q81 40 118 110q11 20 17 43t3 48.5t-19 40.5q-39 35 -101 -5q-46 -29 -103 -106 q-46 -64 -95 -160q-30 -59 -53 -113q-44 -106 -65 -157q-4 -8 -12 -7t-10 9z" />
<glyph unicode="C" horiz-adv-x="359" d="M27 203q15 140 114 271q51 64 107 100q32 20 61 28q42 14 73 4q45 -15 49 -72q6 -72 -46 -128q-3 -4 -10.5 -10.5t-17 -12.5t-17 -7t-11.5 7q-2 6 1 10t11.5 7.5t9.5 4.5q42 33 54 87q9 37 -1 64q-22 56 -114 15q-57 -25 -111 -86q-51 -59 -84 -129q-34 -70 -44 -139 q-9 -76 13 -122q15 -31 46 -46q32 -16 81 -14q35 2 67.5 15t62 37t47.5 42.5t44 48.5q8 8 16 0t1 -16l-13 -13q-51 -58 -94 -88q-66 -48 -142 -48q-87 0 -126 55q-34 50 -27 135z" />
<glyph unicode="D" horiz-adv-x="560" d="M41 27q-24 18 -12.5 43.5t35.5 29.5q13 2 37 -4l24 -7l12 -5q9 -4 10 -2q3 5 6 10.5t6.5 12t5.5 10.5q25 52 73 180t83 193q19 38 40 63q17 20 26 15q4 -2 5.5 -7.5t-1.5 -9.5l-10 -9q-19 -21 -38 -58q-13 -24 -25 -49t-24.5 -57t-20 -50.5t-22.5 -58.5t-20 -53 q-3 -8 -11 -27.5t-12.5 -30.5t-11.5 -27t-14 -29.5t-14 -26.5q87 -28 151 -22q79 5 137.5 57t91.5 125q46 101 28 190q-16 81 -82 126q-55 37 -144 35q-60 -1 -111.5 -21t-70.5 -62q-7 -21 -3 -31q0 -1 3 -5t3 -7q-2 -11 -12 -11q-9 1 -13.5 10.5t-4.5 18.5q-1 17 7 34 q19 43 67 66.5t106 28.5q59 5 110 -5q73 -18 117 -69q55 -65 55 -158t-53 -186q-45 -77 -114 -121q-102 -64 -250 -22q-24 8 -28 9q-2 1 -8 -5q-13 -15 -39 -24q-42 -15 -70 3zM47 56q1 -13 24 -16q23 -1 51 12q8 6 11 10q-44 15 -56 16q-11 2 -21 -5t-9 -17z" />
<glyph unicode="E" horiz-adv-x="394" d="M24 88q-11 43 5 86.5t49 76.5q56 59 149 84q-26 41 -31.5 91t13 95.5t58.5 68.5q29 16 67 17.5t69.5 -13.5t38.5 -44q4 -12 -2 -17q-9 -7 -16 1q-2 2 -3.5 8t-2.5 8q-9 22 -47 31q-43 11 -80 -5q-35 -14 -55 -52.5t-18.5 -87t26.5 -87.5q5 -8 8 -8q8 2 12 2q4 1 12.5 2 t9.5 1q71 0 75 -34q3 -20 -17.5 -26.5t-41.5 -3.5q-26 5 -41 18q-9 5 -18 16l-22 -6q-89 -27 -141 -89q-18 -23 -28.5 -50.5t-8.5 -59.5t23 -57q37 -46 119 -36q68 9 134 47q77 44 127 112q5 7 13 3.5t7 -11.5q-1 -4 -8 -14l-11 -13q-65 -78 -161 -120q-37 -16 -75 -23.5 t-77.5 -2.5t-67.5 26q-30 23 -42 66zM269 321q21 -16 48 -18q21 2 21 8q-4 8 -19 10q-21 5 -50 0z" />
<glyph unicode="F" horiz-adv-x="360" d="M26 92q-1 5 2.5 9t8.5 4q8 0 12 -11q12 -33 49.5 -50.5t80.5 -1.5q13 5 24 14.5t18.5 18.5t16 24.5t12 24.5t11.5 28t11 26l39 100q-33 -2 -65 0l-28 3q-2 0 -5.5 1t-6 1.5t-5 2.5t-3.5 4q-3 6 1 11.5t10 4.5l24 -4q20 -2 59 -2q4 0 13 0.5t14 0.5q4 9 26.5 67t36.5 88 q32 74 58 100q-19 3 -81.5 14.5t-96.5 13.5q-50 2 -70 -11q-25 -18 -22 -43q2 -21 21 -29q12 -6 5 -18q-4 -8 -12 -3q-18 7 -28 24.5t-8 37.5q3 30 30 48q30 20 81 16q34 -1 85 -10t89.5 -16t87 -6t88.5 16l25 10q9 5 15 -5q3 -3 1.5 -6l-2.5 -5t-4.5 -4t-6 -3t-6.5 -2.5 t-5 -2.5q-50 -21 -120 -21q-8 1 -25 1q-8 3 -11 0q-1 -3 -6 -5t-14 -14q-14 -16 -34 -56q-31 -65 -72 -174q26 2 51 6l32 7q5 1 9 -2.5t4 -8.5q1 -4 -2 -7t-9 -5t-11 -3t-12 -2t-9 -1q-24 -5 -49 -6q-12 0 -13 -1q-1 -5 -5 -13l-9 -24q-24 -64 -38 -95q-26 -62 -37 -78 q-21 -34 -60 -49q-36 -15 -77.5 -4.5t-65.5 41.5q-15 21 -17 34z" />
<glyph unicode="G" horiz-adv-x="687" d="M25 25q0 4 2 6.5t3.5 3t6.5 1.5t6 1q11 2 31 12q31 18 86 67q51 48 101 106q112 126 181 243q-33 12 -45 40q-19 39 8 85q5 9 12.5 17.5t16 15t19.5 9.5t22 1q22 -5 31 -22q8 -17 4 -41q-6 -37 -34 -90q15 -1 45 -1q110 7 167 38q14 7 21 14q1 1 3 3.5t3.5 3.5t4 2.5 t4.5 1t5 -2.5q7 -5 2 -29q-19 -96 -67 -205q-68 -154 -164 -225q141 -21 240 100q4 5 10.5 4t8.5 -7q3 -8 -13 -24q-109 -126 -266 -91q-7 2 -9 0l-11 -6q-30 -17 -68 -22t-76 8q-22 8 -39 26t-24 40q-7 18 -2 31q5 15 29 13q17 0 38 -7q18 -6 44.5 -17.5t50.5 -21.5t47 -15 q10 -5 19 3l14 9q74 58 131 171q55 110 82 227q-64 -37 -179 -44q-34 -2 -51 0l-12 2q0 -1 -1.5 -3t-2.5 -4l-8 -13q-90 -150 -235 -299q-58 -58 -97 -87q-48 -35 -76 -39q-19 -2 -19 11zM271 129q0 -16 18 -41q40 -47 121 -28q6 2 32 12q-24 8 -56 21q-7 3 -21.5 9t-23 10 t-21.5 8.5t-24 6.5q-7 3 -17 3q-5 0 -8 -1zM413 539q-1 -39 40 -54q26 48 33 81q7 27 -3 38q-12 15 -35 2q-16 -10 -25.5 -29t-9.5 -38z" />
<glyph unicode="H" horiz-adv-x="510" d="M27 49q2 4 2 6l36 86q33 81 101 243l52 131q0 1 3 8t4 9.5t3 9t1.5 10t-2 8.5t-4.5 8q-10 10 -32 10q-23 1 -47 -7t-40 -21q-16 -10 -20 -25q-1 -7 -7.5 -8.5t-11 3t-2.5 11.5q4 16 19 31q31 26 71 34q52 12 80 -7q29 -20 14 -61q-9 -27 -21 -54q-31 -79 -74 -182 q44 22 150 18q22 -1 31.5 -1t28.5 1.5t33.5 5.5t27.5 11q24 13 35 41q8 18 16.5 38t19 44.5l16.5 38.5q17 41 47 111q3 6 9 8t11 -4q4 -5 0 -15q-3 -6 -29 -66q-13 -30 -27 -64.5t-31.5 -75.5t-27.5 -64q-23 -52 -46 -117q-18 -50 -25 -75q-9 -38 -5 -54q6 -21 32 -17 q25 5 57 31q32 27 88 91q8 9 17 -2q5 -7 -1 -14l-12 -14q-5 -6 -18 -20t-20.5 -22t-19 -19t-22.5 -19.5t-22 -15.5q-34 -20 -57 -18q-30 0 -41 26q-7 21 1 62q6 35 26 86q7 20 38 98q-17 -9 -41 -13.5t-37.5 -5t-51 0t-45.5 0.5q-27 0 -45.5 -2t-41.5 -11.5t-35 -27.5 q-2 -4 -18 -38q-7 -18 -21 -52q-2 -6 -20 -49.5t-28 -66.5q-3 -7 -9.5 -7.5t-10.5 4.5t-1 11z" />
<glyph unicode="I" horiz-adv-x="325" d="M-40 109q0 17 7.5 35t20.5 11q9 -7 3 -16q-11 -18 -8 -39t18 -36q19 -19 47 -22.5t53 4t49 22.5q19 12 40 30l11 10q3 3 3 5l-0.5 2t-0.5 3q-1 7 -1 22q-4 90 30 215q19 78 50 139q32 66 66 92q22 20 50.5 16.5t36.5 -34.5q10 -38 -9 -111q-18 -66 -56 -143 q-60 -123 -139 -206q-4 -4 -3 -6q0 -1 0.5 -2.5t0.5 -2.5q2 -8 2 -11q11 -33 26 -38l7 -2q6 -1 8 -4q7 -9 -2 -16q-7 -6 -25 2q-27 14 -37 57q-79 -72 -150 -68q-39 2 -69 28t-29 64zM225 133q62 67 114 168q40 79 60 146q10 34 14 61q7 44 -3 63q-9 19 -38 5 q-17 -10 -32 -30q-30 -39 -59 -113q-27 -70 -43 -151q-17 -83 -13 -149z" />
<glyph unicode="J" horiz-adv-x="393" d="M33 -202q-15 32 1 73q14 35 52 73q67 61 156 106l36 16q17 7 19 10l9 22q57 138 76 188q42 110 58 166q15 52 1 83q-11 23 -34 35t-48.5 12.5t-52.5 -8t-47 -24.5q-57 -44 -69 -133q-10 -64 7 -147q22 -99 71 -182q3 -5 2 -11q-1 -7 -9 -8t-12 6l-10 18q-29 55 -48 112.5 t-27 133t17 135.5q31 83 98 114q67 32 128 7q38 -17 54 -51q18 -39 2 -94q-38 -127 -137 -362q80 38 115 84q5 7 14 4.5t7 -12.5q-1 -5 -11 -15q-3 -4 -12 -13q-24 -24 -54 -42q-7 -5 -20.5 -12t-16.5 -9l-21 -9q-12 -5 -14 -9l-32 -75q-39 -94 -73 -141q-50 -69 -110 -74 q-47 -4 -65 33zM57 -199q9 -11 23.5 -13t27 1.5t25.5 10.5q43 23 78 86q29 50 73 158q-108 -51 -168 -103q-43 -39 -58 -73q-20 -43 -1 -67z" />
<glyph unicode="K" horiz-adv-x="445" d="M26 31q-3 5 6 22l38 92q64 152 95 228l57 138q1 2 5 11.5t5.5 14t3 12t0.5 13.5q-5 29 -66 19q-56 -13 -74 -41q-2 -2 -3.5 -7t-2.5 -7q-7 -9 -16 -3q-12 9 5 32q21 27 65 42q50 17 84 4q16 -6 24 -19.5t6 -29.5q-1 -7 -3 -15.5t-4.5 -14t-6 -15t-5.5 -14.5 q-37 -92 -72 -173q25 8 49 19t51 28.5t40.5 26.5t44.5 31q59 44 112 91q49 43 69 69q3 4 8.5 4.5t9.5 -3.5q4 -7 -1 -16l-15 -17q-62 -67 -167 -144q-79 -58 -138 -87q18 -4 32.5 -15.5t23.5 -27t13 -34.5q5 -21 12.5 -64.5t12.5 -64.5q5 -22 11 -34q6 -16 13 -21 q15 -13 50 9q10 7 20 16t20 20t17.5 19.5t18.5 21.5t17 20q10 13 15 14q9 1 12 -6.5t-3 -13.5q-5 -6 -17 -20.5t-18.5 -22.5t-17 -19.5t-20.5 -21t-20 -17.5q-36 -30 -65 -26q-15 2 -25.5 11.5t-17.5 26.5t-10 28.5t-7 32.5q-1 3 -1 5l-12 66q-7 39 -10 47q-10 30 -35.5 43 t-61.5 3l-19 -8q-4 -1 -6 -6q-7 -16 -20 -46.5t-15 -36.5l-67 -161l-3 -8q-3 -7 -10.5 -7t-10.5 7z" />
<glyph unicode="L" horiz-adv-x="542" d="M33 130q19 37 65 45t81 -8q21 -6 46 -20l23 -13q1 -1 6 6l6 10q24 37 43 80t44.5 112t33.5 89q-59 -11 -123.5 -4.5t-102.5 32.5q-18 13 -25 29q-8 19 -1 27q8 9 17 0q2 -3 2.5 -9.5t1.5 -8.5q15 -32 98 -46q44 -7 97 -2l27 3l13 2q1 0 3 0.5t3 0.5q3 7 18 38.5t22 43.5 t22 33.5t31.5 33.5t37.5 19q41 14 64 -6q24 -20 12 -59q-21 -65 -128 -105q-25 -9 -49 -15l-14 -3l-4 -12q-4 -7 -10 -23l-38 -100q-50 -124 -87 -179q48 -30 73 -44q50 -27 91 -27q41 1 74 30q22 17 64 68l25 29q7 8 15 1.5t3 -14.5q-2 -3 -5.5 -7t-4.5 -5l-37 -44 q-22 -24 -36 -37.5t-40.5 -27.5t-54.5 -15q-16 -1 -33 2.5t-29 7t-31.5 13.5t-26.5 14t-29 18.5t-26 16.5q-5 2 -6 1.5t-4 -4.5l-7 -9l-16 -17q-55 -55 -122 -53q-44 0 -66 32q-26 37 -6 80zM50 112q-6 -20 2 -39t26 -27q34 -15 84 7q36 14 74 62q-77 48 -131 39 q-43 -7 -55 -42zM418 461q110 28 148 82q21 33 9 52q-14 24 -62 0q-17 -9 -31 -23t-26.5 -36t-19 -35t-18.5 -40z" />
<glyph unicode="M" horiz-adv-x="674" d="M27 26q-2 6 -2 8t3 8.5t3 7.5l66 158q84 198 124 299q16 39 15 50q-2 31 -62 22q-55 -10 -76 -39q-1 -2 -4.5 -9.5t-7.5 -10.5t-10 0q-16 6 2 31q18 27 63 43q25 9 52 9.5t47 -12t19 -38.5q-1 -14 -11 -38l-17 -43q19 28 42 54q76 87 144 79q24 -3 37.5 -18.5t16 -38.5 t1 -43t-6.5 -42q70 103 143 132q45 20 75 4q45 -25 18 -124q-13 -42 -37 -95q-12 -30 -37 -88t-37 -87q-20 -50 -28 -76q-12 -34 -12 -55q0 -14 9.5 -21t22.5 -4q23 5 59 37q22 21 60 63l18 20q6 6 8.5 8t7.5 2t9 -6q1 -3 1 -4.5t-1.5 -4.5t-2.5 -4.5t-3.5 -4l-3.5 -3.5 q-56 -64 -86 -89q-36 -32 -65 -37q-16 -2 -30.5 5t-20.5 21q-7 16 -3 38q3 20 15 58q18 52 58.5 145t52.5 124q24 55 31 93q7 44 -5 61q-17 24 -66 3q-52 -21 -108 -91q-37 -47 -70 -109q-12 -22 -23 -46.5t-25 -57.5t-20 -47q-35 -89 -78 -187l-7 -17q-6 -11 -12 -10 q-16 0 -5 28l35 82q54 130 82 195q5 12 17.5 40t19 43.5t14 39.5t11.5 45q4 25 4.5 49t-13.5 40t-41 11q-49 -7 -109 -75q-38 -45 -74 -107.5t-57 -111.5t-54.5 -129.5t-51.5 -121.5l-3 -8q-2 -6 -8.5 -7.5t-11.5 4.5z" />
<glyph unicode="N" horiz-adv-x="428" d="M26 35q0 4 3.5 11t3.5 8q8 18 57 136q9 23 54.5 130.5t68.5 165.5q21 55 22 57q6 22 -8 32q-12 7 -36 7q-28 -2 -56 -13.5t-40 -31.5q-5 -13 -6 -14q-9 -9 -17 1q-4 5 0 16q13 32 57 49q16 8 36 12t40 3.5t35 -10.5t18 -28q4 -17 -5 -40l-16 -40q40 56 85 88 q21 15 45.5 25.5t52.5 8.5t40 -27q12 -24 6 -64q-5 -35 -27 -96q-15 -40 -35 -88t-42 -99t-37 -88q-15 -46 -17 -65q-3 -15 6 -22.5t23 -4.5q23 3 56 32q25 21 90 93q7 8 15.5 0.5t1.5 -15.5q-9 -10 -19.5 -21.5t-23 -25t-19.5 -21.5q-38 -36 -60 -49q-37 -22 -62 -14 q-27 8 -30 33q-2 18 5 46q5 20 13.5 43.5t13 34.5t19 43.5t15.5 35.5q63 147 79 197q36 117 -17 120q-31 1 -70 -24q-27 -17 -54 -48q-45 -47 -82 -114q-18 -28 -24 -44l-41 -97q-31 -74 -38 -92q-53 -126 -55 -132l-3 -6q-4 -8 -13 -6t-8 12z" />
<glyph unicode="O" d="M31 252q16 94 66 190q39 74 89 119q73 68 146 61q17 0 22 -7q4 -8 -1 -13.5t-14 -2.5q-2 0 -4.5 0.5t-3.5 0.5q-26 3 -58 -10q-102 -39 -170 -187q-45 -99 -53 -180q-5 -31 -1 -64.5t14 -61t33 -43.5t54 -14q65 5 126 74q48 51 86 135q34 73 51 152q-49 -6 -81 35 q-27 40 -14 88.5t47 66.5q29 15 52 -3q43 -32 25 -153q37 19 61 56q9 12 14 28q1 3 1.5 10t2.5 11t7 5q18 2 12 -29q-14 -50 -71 -92q-12 -8 -28 -15q-3 -2 -4 -6l-9 -36q-18 -74 -55 -150q-41 -79 -90 -129q-63 -63 -129 -70q-46 -3 -76 22q-22 19 -38 53q-24 63 -9 159z M344 529q-17 -46 5 -77q25 -37 69 -26q9 52 6 91q-5 49 -26 57q-17 7 -32 -9t-22 -36z" />
<glyph unicode="P" horiz-adv-x="328" d="M27 32q-3 5 1 12q16 39 46.5 113t36.5 88l71 169q29 67 48 119q8 20 7 30q-3 16 -21 20q-40 11 -89 -16q-21 -11 -29 -24q-2 -2 -5.5 -9t-6 -9t-10.5 0q-12 7 3 32q37 46 108 51q48 2 65 -22q14 -20 -2 -65l-33 -81q56 86 108 131q73 65 125 31q43 -30 21 -118 q-19 -83 -80 -159q-59 -76 -133 -105q-28 -13 -57 -14q-29 -4 -47 10q-7 5 -10.5 14.5t2.5 17.5q8 8 17 -1q1 -2 1.5 -5.5t1.5 -5.5q8 -13 40 -7q61 8 122 62q73 64 107 155q15 38 19 71q4 44 -12 62q-22 25 -66 1q-21 -12 -45 -34q-47 -44 -93 -116q-44 -65 -81 -140 q-15 -32 -43 -98q-43 -100 -66 -159q-3 -6 -10 -7t-11 6z" />
<glyph unicode="Q" horiz-adv-x="422" d="M30 44q-9 14 -0.5 27.5t23.5 20.5q31 14 77 7l26 -6l11 -3l11 -4q7 -2 10 0q30 20 53 39q132 113 174 270q30 114 -14 169q-26 30 -64 35q-42 4 -84 -21q-58 -34 -97 -99t-51 -145q-10 -64 3 -99q8 -18 18 -17q10 2 13 -7t-6 -14q-8 -4 -23 2q-42 19 -29 124q8 76 41 141 t83 108q86 70 161 43q37 -13 58.5 -46.5t24.5 -74.5q3 -37 -10 -96q-9 -40 -29 -86q-66 -147 -198 -236q63 -21 92 -21q64 0 115 55q24 25 54 64q5 6 12.5 3.5t7.5 -10.5q0 -6 -8 -14l-11 -14q-2 -2 -13 -15t-14.5 -16.5t-14 -14.5t-15.5 -15.5t-15.5 -12.5t-18.5 -12 t-18.5 -9t-21.5 -7q-43 -10 -98 5q-51 16 -58 18q-63 -38 -106 -36q-39 0 -51 20zM49 56q7 -10 36 -10q27 0 73 23q-55 16 -88 6h-1q-26 -10 -20 -19z" />
<glyph unicode="R" horiz-adv-x="498" d="M25 37q0 2 3 8q87 209 88 213q3 6 9 22.5t11 24.5q4 7 11 26l10 25q46 108 67 163q0 1 2.5 5.5t3 6.5t2.5 6.5t2.5 7t1.5 7t0.5 7t-0.5 6t-2 6.5t-4 5q-9 8 -34 10q-53 0 -86 -30q-12 -9 -19 -25q-1 -5 -6.5 -6.5t-9.5 0.5q-8 4 -4 15q4 16 20 30q25 23 71 34 q51 12 79 -8q28 -21 13 -63q-3 -9 -7 -19t-7.5 -18t-8 -19.5t-7.5 -18.5q49 74 87 107q52 47 102 44q38 -2 57 -34q13 -23 15 -55q3 -71 -45 -141q-50 -74 -138 -109q-69 -28 -127 -17q15 -69 66 -127q48 -53 101 -68q36 -10 72 0.5t65 36.5q12 11 23.5 24t26.5 31.5 t21 25.5q5 6 12.5 3t6.5 -11q0 -3 -7 -12q-50 -63 -78 -86q-31 -25 -68.5 -34.5t-74.5 -0.5q-56 13 -100.5 58.5t-72.5 105.5q-15 38 -18 62q-2 11 2 15q1 2 3 3t4 1t3.5 -0.5l4.5 -1.5t4 -1q9 -3 19 -3q23 -2 56 3q82 16 144 76t71 141q3 22 -0.5 42.5t-18 36.5t-38.5 14 q-49 -4 -98 -59q-9 -10 -18 -20.5t-18 -23t-15.5 -21t-16 -24t-14.5 -23t-15 -25.5t-13 -23.5t-14.5 -26t-13.5 -24.5q-17 -31 -41 -91t-32 -77q-2 -6 -20 -49.5t-28 -66.5q-3 -8 -12.5 -6.5t-9.5 10.5z" />
<glyph unicode="S" horiz-adv-x="460" d="M27 42q38 56 107.5 163.5t99.5 152.5q36 53 43 65q1 4 0 7.5t-3.5 9.5t-2.5 8q-13 48 5.5 92.5t52.5 69.5q27 20 51 13q21 -7 23.5 -29.5t-10.5 -41.5q-4 -7 -13 -19t-11 -16q-26 -36 -56 -81l-9 -13q-1 -2 -0.5 -3l2 -4t1.5 -4l10 -21q10 -20 53 -94q12 -20 20 -35.5 t16.5 -37.5t12 -40t2 -39.5t-8.5 -40.5q62 22 101 73q3 4 8.5 4.5t8.5 -3.5q7 -8 -4 -21q-39 -49 -106 -75l-20 -6q-2 -1 -4 -3t-4.5 -6t-3.5 -5q-40 -47 -119 -61q-34 -5 -60 -1q-41 7 -41 34q0 13 7 22t17 14t26.5 7.5t28.5 3t30.5 1t26.5 1.5q26 1 52 6l15 3q11 3 12 4 q28 48 5 114q-13 37 -50.5 99.5t-49.5 89.5q-65 -99 -198 -303l-43 -65q-3 -7 -10 -7q-7 -1 -10.5 5.5t0.5 12.5zM195 28q10 -7 32 -7q19 -1 44 4q59 12 91 42q-29 -5 -114 -9q-30 -2 -43 -8q-8 -3 -12.5 -9.5t2.5 -12.5zM288 487q0 -21 6 -39q2 4 8 12q36 54 55 80 q20 28 23 35q7 26 -10 27q-21 2 -47 -28q-35 -42 -35 -87z" />
<glyph unicode="T" horiz-adv-x="240" d="M26 535q3 26 27 45q25 20 76 22q31 1 63 -2t76.5 -11t62.5 -10q45 -7 76 -6q51 4 79 20q9 5 15 -3.5t-2 -15.5q-37 -26 -119 -23q-4 0 -30 3q-2 0 -6.5 0.5t-7.5 0.5q-2 2 -4.5 0t-3 -2.5t-2 -3.5t-2.5 -4q-5 -8 -34 -75q-5 -14 -29 -71q-74 -178 -121 -289l-28 -66 q-3 -7 -10 -7.5t-10 5.5q-3 5 0 13q15 34 42.5 100t32.5 77q85 205 89 214l23 54q17 43 28 60l-100 15q-53 8 -87 4q-43 -2 -62 -25q-13 -17 -8 -34t21 -25q13 -4 15 -10q2 -12 -10 -14q-6 -1 -18 6q-37 17 -32 58z" />
<glyph unicode="U" horiz-adv-x="510" d="M29 540q12 29 64 49q44 17 82 14q44 -2 54 -29q6 -15 -2 -38q-2 -8 -11 -35q-15 -40 -66 -158t-71 -187q-10 -36 -13 -65q-3 -38 16 -45q19 -6 46 5q17 6 54 32q56 45 101.5 104.5t96.5 144.5q87 140 122 214l11 25q4 10 10 11q11 2 13 -9q0 -3 -6 -19q-2 -4 -14.5 -32 t-18.5 -44q-6 -14 -42 -97t-77 -182q-23 -61 -28 -78q-20 -67 11 -76q30 -10 56 1t53 34q28 23 94 98q4 4 10 3t8 -6q3 -7 -3 -14l-18 -20q-3 -4 -11.5 -13t-12 -13t-11.5 -12.5t-12.5 -13l-12 -12t-13.5 -12t-13 -10.5t-14.5 -10.5t-14.5 -8.5q-22 -13 -48.5 -16.5 t-48.5 6.5t-27 34q-4 21 3 51q5 23 21 69q9 23 80 184q-35 -58 -49 -81t-43.5 -65.5t-56.5 -73.5q-56 -63 -102 -94q-60 -39 -101 -25q-47 17 -21 119q14 56 66 182q8 18 25 58t30 70.5t23 59.5q1 3 4.5 14t5.5 18.5t1 16t-8 11.5q-13 7 -30 7q-42 0 -83 -19 q-24 -11 -34 -25q-5 -5 -5 -12q0 -11 -11 -11q-7 0 -9.5 5t-1.5 10.5t3 10.5z" />
<glyph unicode="V" horiz-adv-x="357" d="M27 510q-4 6 0 16q4 15 20 27q23 20 60 32q25 8 49 9.5t45 -8t26 -31.5q7 -25 -13 -72q-1 -3 -2 -4q-9 -22 -71 -159q-59 -135 -80 -202q-9 -34 -10 -48q0 -21 7 -25q8 -6 26 1q14 5 42 22q23 15 54 40q64 51 128 122q73 80 123 160q45 72 68 136q9 27 13 43q3 16 1 22 q-7 12 -2 17t10.5 2.5t9.5 -8t5 -10.5v-12q0 -11 -9 -40q-19 -61 -63 -139q-43 -75 -104 -145q-40 -49 -103 -110q-59 -56 -110 -91q-24 -16 -48 -26q-22 -9 -38 -8q-17 1 -24.5 15t-6.5 32q1 37 29 115q22 59 74 173l44 97l17 41q11 29 12 40q2 22 -12 31.5t-36.5 6.5 t-42.5 -9t-33 -13q-29 -17 -34 -32q-2 -11 -5 -13q-12 -6 -16 5z" />
<glyph unicode="W" horiz-adv-x="627" d="M25 533q0 6 6 14q8 12 23 22q27 22 65 31q29 9 58.5 3.5t40.5 -26.5q14 -24 -3 -69q-18 -51 -59 -149t-59 -148q-29 -82 -35 -121q-2 -24 2 -32q9 -18 44 -3q7 3 14 7t12.5 7.5t12.5 8.5t12 8.5t12 10t11 10t11 10.5l10 10l11 11l10 10q58 60 119 140l17 21l8 11 q2 3 7 17q42 116 79 180q20 38 36 55q12 18 27 18q10 0 16.5 -7t7.5 -17q2 -18 -13 -50q-23 -50 -94 -146l-32 -43q-5 -5 -15 -25l-8 -24q-19 -58 -28 -100q-11 -49 -11 -83q0 -43 22 -43q20 0 48 16q81 47 179 152q19 21 58 76q26 36 54 80q55 86 75 137q11 27 12 46 q0 12 -6 19q-8 7 -1 16q8 6 15 0.5t10 -14.5q5 -11 3 -27q-3 -31 -24 -76q-37 -81 -126 -202q-32 -44 -45 -60q-54 -63 -122 -117q-54 -45 -96 -61q-22 -8 -41 -7q-32 4 -36 44q-4 29 6 84q8 44 25 101q-103 -128 -175 -187q-32 -24 -50 -34q-29 -15 -52 -11q-41 7 -32 71 q6 41 40 134q18 50 56.5 143t54.5 134q1 2 3.5 9.5t3.5 11t2.5 10.5t1.5 11.5t-1.5 10t-5.5 9.5q-13 14 -41 12q-31 0 -60.5 -14.5t-45.5 -35.5q-7 -9 -11 -10q-5 -1 -9 2t-4 8zM420 390q44 60 71 104q15 24 22 42q9 27 4 31q-8 -3 -17 -17q-42 -68 -80 -160z" />
<glyph unicode="X" horiz-adv-x="489" d="M26 33q-1 7 7 13q19 12 45 36q44 42 122 132l69 83q1 1 19 22q2 3 0 12q0 2 -0.5 6.5t-0.5 6.5q-4 76 -18 146q-2 10 -2.5 13.5t-2.5 14t-3.5 15l-4.5 13.5t-6 13.5t-7.5 11t-9.5 9t-11 5t-13.5 1.5t-15.5 -4q-25 -9 -47.5 -31t-35.5 -47q-7 -18 -6 -25q3 -11 2 -13 q-4 -11 -15 -7q-12 5 -9 27q3 31 33 65q29 36 68 52q46 17 71 -12q18 -20 28 -58q15 -55 28 -188q104 127 123 149q65 77 90 99q20 20 28 16q11 -4 7 -14q-1 -2 -16 -14l-18 -18q-40 -41 -114 -131l-69 -84q-18 -21 -19 -22q0 -1 -8 -11q-1 -1 -1 -11l5 -49q11 -117 30 -165 q12 -30 28 -37q30 -13 69 18q22 17 70 74l27 32q6 8 14.5 2.5t4.5 -14.5q-3 -5 -11 -13l-35 -43q-36 -40 -58 -57q-35 -25 -62 -25q-32 0 -50 23q-15 19 -26 57q-14 53 -27 182q-79 -95 -118 -138q-74 -82 -113 -113q-15 -12 -21 -14q-5 -1 -9.5 1.5t-4.5 7.5z" />
<glyph unicode="Y" horiz-adv-x="422" d="M27 -215q-9 33 26 76q20 25 63 49q11 7 90 49l48 25q6 3 8 8q38 57 102 192q43 94 78 178q-66 -109 -119 -175q-49 -61 -87 -96q-53 -50 -96 -61q-32 -9 -54 3.5t-26 39.5q-2 22 5 55q9 37 28 83q11 28 35.5 86t42.5 104t33 88q12 33 21 64q6 18 -7 26q-8 5 -28 7 q-40 1 -84 -19q-22 -9 -34 -24q-6 -6 -6 -12q0 -11 -10 -12t-12 8.5t2 16.5q6 13 23 28q33 25 82 33q46 10 75 -4q15 -9 20 -21q6 -13 0 -36q-15 -54 -54 -150q-5 -14 -11.5 -29t-12.5 -30t-11.5 -29t-12.5 -30t-12 -29q-36 -87 -45 -126q-5 -20 -5 -36q0 -20 8 -28 q16 -15 50 -4q24 8 56 33q26 20 61 57q56 60 119 156q58 89 101 169q34 61 50 100q1 1 2.5 5t2.5 6t3.5 5.5t5 3t6.5 -0.5q12 -4 3 -23q-82 -198 -119 -285q-72 -166 -132 -269l6 3q59 38 131 118q30 35 34 40q10 9 12 10q13 2 13 -11q0 -4 -7 -13q-11 -13 -22 -25 q-84 -98 -163 -146l-25 -14q-1 -1 -2 -2.5t-2 -3.5t-2 -3l-6 -10q-65 -111 -110 -158q-36 -39 -71 -44q-20 -2 -36.5 6.5t-21.5 27.5zM52 -184q-9 -24 3 -36q7 -6 16 -7.5t18 1.5t17.5 7.5t14.5 10.5q23 21 45.5 50t36 50t35.5 58q-73 -38 -93 -49q-50 -28 -69 -49 q-17 -17 -24 -36z" />
<glyph unicode="Z" horiz-adv-x="428" d="M33 -185q14 33 54 65q18 16 41 31.5t41 26t47 26.5t44 25q3 2 9 5.5t11 6t9 5.5q3 2 3 6l3 12q5 24 -0.5 47t-17.5 39t-29 25q-4 2 -10 -2q-53 -24 -99 -28q-58 -6 -67 24q-5 17 9.5 29t33.5 17q28 8 60.5 6.5t54.5 -11.5l10 -4l5 -3q149 89 201 235q19 45 12.5 91.5 t-41.5 69.5q-34 22 -82 19q-52 -3 -100.5 -28.5t-67.5 -65.5q-6 -10 -7 -17l-3 -18q-7 -10 -17 -3q-4 4 -4 12q0 26 25 59q39 50 109 72q102 32 165 -15q33 -25 43.5 -67.5t-0.5 -81.5q-20 -83 -81 -161q-54 -71 -130 -114q60 -45 50 -126q47 31 87 69l46 48l23 27 q13 19 23 11q3 -3 4 -6t-1 -6.5t-3.5 -6t-5 -6.5t-4.5 -5l-24 -28q-67 -76 -140 -120l-8 -6l-4 -2q0 -1 -0.5 -3t-0.5 -3q-2 -8 -8 -22q-34 -81 -91 -134q-29 -27 -66 -50q-48 -27 -75 -29q-23 0 -34 11q-18 18 -2 52zM56 -191q-2 -4 -4 -8.5t-3 -9.5t0.5 -9.5t6.5 -5.5 q10 -3 24 1q14 3 40 17q109 58 160 181q-15 -9 -44 -25t-46.5 -26.5t-41 -26t-41.5 -30.5q-38 -30 -51 -58zM95 134q8 -10 37 -7q39 3 86 23q-34 11 -66 8q-23 0 -44 -9q-17 -11 -13 -15z" />
<glyph unicode="[" horiz-adv-x="355" d="M-2 -222q0 1 4 15q2 4 4 10l6 13l7 18l9 20l9 24q2 5 5.5 14t5.5 12q12 28 24 58q13 32 27 66l15 35q10 24 14 36l15 36q3 7 16 37q30 75 60 146l28 68q10 25 13 31q12 31 24 58q10 26 19 48q9 20 15 36l6 13q0 1 1.5 4t2.5 5.5t1 4.5q1 0 1 1q3 7 10 7h57q25 0 37 -1h17 q11 0 11 -11t-11 -11h-103l-1 -1q0 -1 -1 -2q-10 -27 -15 -36q-1 -4 -8 -20l-9 -23q-2 -4 -6 -13.5t-5 -12.5q-12 -27 -24 -59q-14 -33 -28 -67q-8 -19 -45 -110q-20 -48 -63 -151q-15 -38 -29 -72t-27 -65l-12 -29q-8 -18 -11 -27q-4 -8 -10 -24l-9 -21l-7 -18l-6 -14 q-2 -6 -4 -9q0 -3 -2 -5h24q8 0 23 -0.5t23 -0.5h28q7 -3 7 -11q0 -11 -14 -11h-108q-9 0 -11 9z" />
<glyph unicode="\" horiz-adv-x="316" d="M1 37v21q0 2 2 2h312v-21q0 -2 -2 -2h-312zM1 297v16q0 7 2 7h158v-19q0 -4 -2 -4h-158zM1 586v21q0 2 2 2h312v-21q0 -2 -2 -2h-312z" />
<glyph unicode="]" horiz-adv-x="387" d="M-52 -209h104v1q0 2 1 2q10 27 15 36q3 9 8 20q8 21 20 49q12 27 24 59q14 33 28 67q15 36 30 73q16 38 31 76q16 39 31 75q16 39 31 74q14 36 28 68q13 33 25 62q8 18 11 27q4 8 10 24q10 23 16 38l6 14q3 9 6 15h-95q-6 0 -10 7q-2 8 3 13q6 2 8 2h111q6 0 11 -9 q0 -5 -2 -8q0 -3 -3 -9.5l-3 -6.5q-18 -41 -21 -52l-21 -49l-11 -28q-3 -6 -13 -31l-13 -32q-10 -22 -14 -34l-15 -34q-4 -12 -14 -36q-15 -37 -31 -74q-8 -19 -45 -110l-15 -35q-8 -24 -28 -68q-13 -33 -25 -62q-8 -18 -11 -27q-12 -28 -20 -48q-7 -16 -8 -20l-7 -16 q-5 -12 -5 -13q-6 -9 -6 -14l-1 -1q-1 -7 -10 -7h-111q-10 0 -10.5 11t10.5 11z" />
<glyph unicode="^" horiz-adv-x="316" d="M1 37v21q0 2 2 2h312v-21q0 -2 -2 -2h-312zM1 297v16q0 7 2 7h158v-19q0 -4 -2 -4h-158zM1 586v21q0 2 2 2h312v-21q0 -2 -2 -2h-312z" />
<glyph unicode="_" horiz-adv-x="379" d="M-8 -4v22q0 1 1 1h387v-23h-388z" />
<glyph unicode="`" horiz-adv-x="165" d="M45 566q-8 7 -2 15.5t16 2.5q56 -44 59 -46q6 -6 6 -11q0 -7 -6.5 -10t-11.5 2q-15 10 -33 26q-5 3 -14 10.5t-14 10.5z" />
<glyph unicode="a" horiz-adv-x="324" d="M25 94q1 32 23 72q20 41 62 79q81 77 168 67q12 -2 18 -4q5 -1 6.5 -4.5t0.5 -8t-2 -8t-4 -9t-3 -6.5q-26 -60 -53 -102q-17 -35 -24 -70q-4 -21 1.5 -36.5t24.5 -11.5q12 2 28 14q11 9 22 19.5t23 23.5t19 21t21.5 25.5t19.5 22.5q6 6 13.5 2t5.5 -12q0 -1 -7 -11 q-9 -10 -29.5 -34.5t-37 -41t-33.5 -30.5q-39 -33 -70 -18q-32 14 -23 70q-35 -44 -69 -62q-46 -22 -76 -2q-25 17 -25 55zM60 141q-6 -15 -9.5 -31t-0.5 -32.5t16 -22.5q13 -5 35 1q26 7 56 37q22 22 50 65q5 6 11 20l9 19q14 36 48 92q-79 10 -157 -68q-40 -38 -58 -80z " />
<glyph unicode="b" horiz-adv-x="319" d="M56 181l15 18l30 36l17 18q2 4 8 10q13 38 40 101q42 100 72 155q29 54 53 74q17 15 36 14q19 -3 28 -18.5t5 -39.5q-6 -29 -30 -66q-19 -32 -55 -78q-18 -22 -38 -46.5t-46.5 -55t-39.5 -45.5q-7 -9 -8 -13l-4 -12q-2 -4 -4.5 -12t-3.5 -11q-16 -49 -20 -78 q-7 -48 6 -67q10 -14 29.5 -14t35.5 10q32 18 61 65q-28 22 -33 66.5t14 80.5q4 8 10.5 14.5t14.5 12t16.5 6.5t17.5 -3q28 -15 23 -72q-4 -42 -33 -97q23 -9 46 0q24 12 52 44q4 5 11.5 3t8.5 -9q0 -3 -0.5 -5.5t-3 -5t-4 -4.5t-4.5 -4.5t-4 -3.5q-14 -14 -24 -22 t-28.5 -15t-37.5 -4q-5 0 -20 5q-3 1 -5 -2l-18 -25q-30 -39 -64 -52q-42 -16 -71 10q-26 22 -20 74q2 36 19 87l-25 -29q-11 -13 -16 -14q-9 -1 -12 6.5t3 12.5zM170 315l36 41q52 61 81 103q24 34 36 57q16 28 16 46q2 11 -5.5 18t-17.5 3q-6 -2 -16 -12q-18 -18 -37 -54 q-31 -54 -79 -168zM232 215q-2 -47 22 -70q26 53 30 91v7.5t-0.5 8t-1 9t-1.5 8.5t-3 7.5t-4 4.5t-6 1.5t-8 -2.5q-24 -14 -28 -65z" />
<glyph unicode="c" horiz-adv-x="237" d="M35 111q5 71 70 143q39 41 66 46q34 5 46 -29q2 -6 3.5 -13t-1.5 -12.5t-11 -4.5q-8 2 -10 16q-2 10 -8 16q-10 10 -29 -1q-12 -6 -36 -30q-31 -34 -50 -72q-17 -33 -18 -65q-2 -38 22 -48q30 -12 80 11q11 5 21 10.5t21.5 14.5t18 14t19.5 18l16.5 16.5t18.5 19.5t16 17 q4 4 10.5 2.5t8.5 -7.5t-7 -15l-38 -40q-76 -74 -143 -85q-49 -8 -71 18q-19 23 -15 60z" />
<glyph unicode="d" horiz-adv-x="315" d="M39 150q19 40 58 81q76 79 158 77q6 0 16 -2q7 -1 8.5 -7.5t-2.5 -11t-11 -3.5l-2 0.5t-3 0.5q-39 4 -80 -18q-33 -16 -62 -45q-41 -43 -59 -81q-5 -9 -8 -21t-4 -24.5t3.5 -23t14.5 -13.5q14 -7 39 1q61 21 114 111q35 59 77 155q26 57 60 141l18 43q1 1 3 6.5t3.5 8.5 t4.5 8t5.5 5h7.5q11 -5 6 -15q-74 -179 -109 -255q-4 -10 -15.5 -36t-17.5 -40.5t-14.5 -36.5t-13.5 -41q-5 -20 -5 -37q0 -16 5 -21q12 -11 43 20q19 17 53 57l36 44q6 7 14 3t6 -13q0 -1 -13 -17q-30 -37 -55 -65q-35 -37 -53 -47q-31 -17 -49 5q-17 22 -3 77 q-32 -48 -80 -72q-48 -25 -78 -9q-28 13 -29 50t13 61z" />
<glyph unicode="e" horiz-adv-x="213" d="M40 142q19 80 78 134q29 27 56 32q12 2 23.5 0.5t21 -8.5t13.5 -18q12 -42 -50 -85q-42 -25 -96 -39l-12 -3q-1 0 -3 -0.5t-3 -0.5l-0.5 -2t-1.5 -2q-8 -26 -8 -50q2 -23 11 -33q12 -10 25 -10q22 -2 55 13q42 24 98 85l18 22q7 9 16 2q8 -7 -5 -25l-24 -27 q-18 -20 -32 -33t-36.5 -30t-46.5 -25t-47 -5q-35 5 -48 34q-12 27 -2 74zM78 180q81 20 116 57q14 14 17 29q1 12 -8 17t-22 3q-26 -2 -57 -35q-27 -30 -46 -71z" />
<glyph unicode="f" horiz-adv-x="188" d="M-67 -210q-4 18 5 57q11 45 53 149l71 163q-8 -1 -11 6t2 13q9 10 22 23q1 2 3.5 4.5t4.5 5t3 5.5q6 12 13 28l15 36q70 174 115 276q19 41 51 50q32 10 53 -15q21 -24 7 -69q-15 -44 -61 -107q-29 -41 -93 -121q-58 -67 -67 -77l-9 -10q-6 -7 -8 -13q-19 -42 -55 -126 q4 9 24 9q40 0 72 15q42 21 96 85q8 10 17 1q6 -8 -1 -17q-54 -64 -98 -86q-36 -20 -83 -20q-6 0 -9 1q-1 -1 -1 -4q-2 -6 1 -34q1 -7 6 -45t6 -52.5t-0.5 -42.5t-8.5 -49q-10 -32 -32 -54.5t-51 -23.5q-42 0 -52 39zM-44 -181q-4 -19 2 -31q6 -11 19.5 -13t23.5 3 q28 12 40.5 43t12.5 67q1 27 -5 75t-7 60q-3 17 0 35q-34 -78 -49 -118q-1 -3 -7.5 -18.5t-8.5 -20.5t-6.5 -18t-6.5 -21.5t-4.5 -20t-3.5 -22.5zM133 267q107 127 155 201q19 31 29 56q7 13 6 33t-16 27q-14 6 -28 -2.5t-23 -22.5q-6 -9 -17 -36l-16 -38q-7 -17 -20 -48.5 t-18 -43.5z" />
<glyph unicode="g" horiz-adv-x="261" d="M-22 -197q-3 24 8 56q32 98 158 177l30 20q1 1 5 8l15 36l-7 -8q-39 -45 -72 -56q-49 -16 -73 11q-20 21 -14 61q5 36 33 78q38 59 99.5 97t125.5 28q18 -3 19 -12q1 -5 -8 -23q-17 -38 -48.5 -110.5t-36.5 -82.5q58 44 101 94q4 5 10.5 4t8.5 -6t-1 -11q-3 -5 -13 -15 l-11 -13q-40 -40 -88 -76l-22 -15q-4 -3 -7 -11l-25 -57q-52 -117 -64 -139q-19 -37 -36 -58q-19 -22 -39 -25q-21 -3 -33.5 11.5t-14.5 36.5zM0 -187q-2 -25 11 -34q17 -11 42 22q17 23 39 70q19 38 44 97l23 51q-47 -30 -66 -47q-74 -61 -91 -137q-2 -14 -2 -22zM61 141 q-7 -16 -10 -31.5t0 -32t17 -22.5q25 -9 59 12q23 15 49 46q20 23 45 63q33 59 57 113q-78 13 -159 -68q-39 -39 -58 -80z" />
<glyph unicode="h" horiz-adv-x="342" d="M52 49q6 17 20 51l48 122l-51 -58q-5 -6 -11.5 -5t-8.5 7t3 12q57 66 84 96q10 12 24 44q33 81 66 152l35 70q27 48 50 60q20 11 38.5 1.5t19.5 -32.5q2 -25 -31 -81q-36 -58 -108 -141l-51 -58q-10 -12 -17.5 -25.5t-16.5 -38t-11 -28.5q47 59 84 85q49 37 84 16 q13 -8 18.5 -20.5t1 -31.5t-7 -29t-13.5 -34l-11 -24q-20 -43 -25 -59q-10 -31 -8 -41q2 -7 7.5 -7.5t13.5 3.5t13 7.5t9 7.5q25 20 95 105q5 6 12 3t7 -11q-1 -4 -15 -22q-3 -4 -32 -37q-56 -65 -88 -77q-21 -8 -34 7t-10 37q2 13 7 27.5t9 24t11.5 26.5t10.5 24 q28 66 25 86q-3 23 -32 18q-20 -3 -48 -27q-93 -80 -146 -213q-1 -1 -2 -4.5t-1.5 -5t-1.5 -4t-2 -3t-2.5 -1.5t-3.5 -1t-5 1q-12 5 -2 26zM193 340q90 102 126 161q28 46 28 64q0 9 -5.5 15t-13.5 3q-16 -5 -33 -30q-19 -29 -41 -78q-9 -18 -61 -135z" />
<glyph unicode="i" horiz-adv-x="172" d="M51 175q16 19 47.5 55t35.5 41l22 26q5 7 12 6q14 -4 3 -24q-1 -2 -1 -3q-37 -68 -62 -130q-14 -32 -20 -58q-3 -13 -2 -24q0 -12 4 -12q4 -1 16 5q7 4 13.5 9t11.5 8.5t12.5 11l10 10t11 12t9.5 10.5q20 22 38 44q1 1 3.5 4t4 5t4.5 4.5t5.5 4t5 1t5.5 -2.5q8 -7 -2 -21 l-18 -20q-34 -40 -53 -59q-27 -27 -46 -38q-27 -16 -42 -8q-31 15 -4 91q13 36 38 90l-45 -53q-5 -6 -11.5 -4.5t-8.5 7t3 12.5zM216 437q-16 9 -6 29t27 12q16 -9 6 -29t-27 -12z" />
<glyph unicode="j" horiz-adv-x="148" d="M-140 -198q2 59 70 127q28 28 72 65l48 40q4 4 12 23q35 84 72 179q-8 -9 -16.5 -19.5t-19 -22.5t-16.5 -19l-11 -12q-5 -6 -13 -3t-7 11q1 6 15 20l31 36q40 46 59 69l2.5 2.5t3 2.5t2.5 1q5 2 10 -1.5t5 -9.5q0 -2 -2 -6l-15 -41q-46 -116 -70 -174q57 51 108 108 q7 7 15 0.5t3 -14.5q-1 -2 -16 -17l-14 -15q-42 -42 -51 -50q-36 -36 -60 -54l-5 -5q-62 -149 -112 -226q-29 -45 -58 -47q-20 -1 -31 15t-11 37zM-117 -209q4 -21 19 -18q14 2 29 22q22 29 48 81q30 60 54 115l-8 -7q-46 -40 -68 -61q-39 -36 -58 -72q-20 -35 -16 -60z M209 429q-10 7 -10 18.5t10 19.5t21 2q6 -3 8 -9.5t0 -12.5t-6 -11.5t-10.5 -7.5t-12.5 1z" />
<glyph unicode="k" horiz-adv-x="314" d="M48 41q13 32 68 173q-26 -30 -41 -45q-10 -12 -17 -11t-8.5 8.5t3.5 11.5q25 25 71 79l19 21q9 24 30 72l35 82q30 67 55 112q16 30 34 47q29 25 53 11q15 -9 18 -29t-5 -35q-4 -12 -25 -46q-31 -47 -97 -130q-10 -13 -71 -86l-7 -8q-1 -2 -2.5 -6t-2.5 -5l-20 -49 q42 53 82 78q14 9 28 14t30.5 2t25.5 -17q10 -23 3 -43.5t-24 -37.5q-40 -41 -126 -60q1 -4 8 -24t11 -28.5t13.5 -20t20.5 -15.5q21 -7 44 6q20 12 47 41q23 24 63 72q4 5 11.5 2.5t8.5 -9.5q0 -4 -7 -13q-24 -30 -57 -65q-18 -19 -31 -30.5t-35 -21.5t-42 -6q-9 2 -16.5 6 t-13.5 8.5t-11.5 13t-9 13.5t-8 16.5t-6 15.5t-6 17t-5.5 15q0 1 -1.5 4t-2 4.5t-1 4.5t0 4.5t1.5 3.5t3 4q7 5 24 5l22 6q80 24 100 67q9 17 4 30q-6 16 -33 7q-45 -16 -97 -82q-54 -67 -88 -164l-2 -3q-5 -7 -9 -5q-15 3 -9 18zM191 336q29 35 31 37q78 99 106 146 q23 38 17 56q-6 13 -22 6q-12 -5 -29 -28q-16 -25 -42 -79q-15 -31 -61 -138z" />
<glyph unicode="l" horiz-adv-x="198" d="M51 167q-1 3 1 7.5t4 7t6 7t5 5.5l24 31q3 3 5.5 6t6 7.5t5.5 6.5q7 10 7 11q1 2 2.5 5.5t2.5 5.5q15 41 28 70q37 94 79 179q22 42 39 61q34 41 62 26q16 -8 18.5 -29t-5.5 -35q-5 -15 -25 -48q-27 -45 -76 -110q-33 -45 -101 -133q-4 -4 -7 -10q-4 -12 -13 -36.5 t-15 -44.5t-9 -40q-4 -29 3 -45q3 -7 8 -10.5t12 -2.5t13.5 4t15 9.5t15 12t15 14l13 13t10.5 11.5l7 7l31 34q1 1 5 6t6.5 7.5t6.5 5.5t7.5 2.5t6.5 -4.5q5 -8 -3 -18q-16 -19 -17 -20l-33 -35q-29 -33 -55 -52q-28 -20 -47 -19q-21 0 -32 16.5t-12 39.5q-1 30 20 95 q-7 -8 -19 -24q-4 -6 -11.5 -5.5t-9.5 8.5zM164 317q62 82 91 123q47 69 62 99q2 5 4 13t3 16t-3.5 12.5t-13.5 2.5q-20 -8 -42 -46q-15 -23 -31 -58q-20 -39 -40 -87z" />
<glyph unicode="m" horiz-adv-x="590" d="M54 179q5 6 11 12.5t10.5 12t11 13t10.5 12.5q3 4 10.5 12.5t12 13l11 11t13 12t13.5 9.5q33 25 54 5q23 -21 6 -82q31 43 57 66q33 29 57 31q65 3 37 -126q41 55 79 87t70 36q24 2 35 -8q11 -11 11 -29q0 -9 -1.5 -18t-5 -19.5t-5.5 -16t-7.5 -18.5t-6.5 -16 q-29 -67 -34 -84q-7 -21 -5 -30q1 -10 17 -8q19 4 50 33q23 22 53 57l21 26q13 15 21 9q2 -2 3.5 -4t1 -4t-0.5 -4t-2 -4.5t-3 -3.5t-3.5 -4l-2.5 -3q-2 -2 -13.5 -16.5t-14.5 -18.5t-13.5 -16t-16.5 -17.5t-15 -14.5t-18 -15.5t-18 -11.5q-10 -6 -20.5 -9t-22 -1.5 t-18.5 9.5q-16 19 1 66q6 18 16.5 41.5t20 46t15.5 41.5q6 18 5 30q-2 24 -42 7q-24 -11 -57 -42q-40 -40 -80 -100l-11 -17q-2 -4 -9 -22t-17 -41l-2 -3.5t-3.5 -6t-4 -6t-4.5 -5.5t-5 -3.5t-6 -0.5t-6 4q-10 10 10 46l11 21q11 19 12 22q30 90 27 134q-2 28 -19 28 q-7 0 -17 -4q-20 -9 -39 -30q-33 -33 -81 -109q-41 -72 -47 -83l-3 -6q-2 -6 -4 -9t-6 -8t-7 -3.5l-9 4.5q-4 6 0 14l13 27q3 7 17.5 37t21.5 46q18 42 23 65q11 38 -1 50q-6 6 -16 0q-7 -3 -13.5 -7.5t-13.5 -11t-10.5 -10.5t-11.5 -12.5t-10 -11.5q-45 -51 -48 -55 q-6 -8 -12 -8q-8 1 -10 8t3 12z" />
<glyph unicode="n" horiz-adv-x="424" d="M53 175q1 2 2.5 4.5l1.5 2.5l30 38q25 28 45 46q26 24 47 31q7 2 14 1.5t13 -3t11 -8t7 -13.5q4 -15 0 -37q-4 -21 -14 -48q19 26 31 40.5t32.5 33t41.5 29.5q45 24 70 4q20 -16 5 -68q-4 -12 -9.5 -26t-11.5 -26.5t-11.5 -25.5t-11 -27t-9.5 -27q-7 -21 -6 -30 q2 -22 43 1q12 8 24 17.5t23 22.5t18.5 22.5t20 26t18.5 23.5q4 5 11.5 4t8.5 -8q0 -2 -5 -13q-2 -5 -13 -18q-34 -43 -48 -57q-39 -39 -67 -49q-15 -7 -33 -2.5t-22 21.5q-3 13 2 33q3 15 15 43q4 10 11.5 27.5t13.5 32t11 27.5q8 20 11 36q2 17 -2 22q-7 7 -25 2 q-9 -1 -23 -9q-42 -22 -92 -90q-36 -49 -69 -107l-3.5 -7t-4.5 -9.5t-6 -10.5t-7 -8.5t-7.5 -5t-8.5 0.5q-10 4 -5 14l8 18q34 68 49 103q0 1 7.5 18.5t9.5 23.5t5 20t3 26q2 13 -6 19q-7 4 -20 -3q-38 -25 -88 -86l-15 -20q-8 -10 -15 -7q-5 1 -7 6t1 9z" />
<glyph unicode="o" horiz-adv-x="289" d="M43 136q17 90 102 160q1 1 5 4t7 4.5t6 1.5q11 -2 11 -12q0 -3 -1.5 -5.5t-3 -3.5l-4.5 -3t-4 -3q-59 -40 -85 -111q-14 -36 -13 -63q1 -21 13 -35.5t32 -11.5q39 5 79 49q-16 15 -22 39.5t-3.5 47t9.5 46.5q14 46 38 62q16 12 33.5 9t26.5 -20q21 -37 1 -92 q-14 -44 -48 -86q45 -17 95 38l21 22q9 13 18 5q3 -2 3.5 -5t0.5 -5.5t-2 -5.5t-3.5 -4.5t-4 -4.5t-3.5 -4l-27 -27q-12 -10 -20.5 -16t-23.5 -13t-28 -6.5t-32 4.5q-6 2 -9 4l-9 -9q-38 -40 -77 -49q-22 -5 -41.5 2.5t-29.5 26.5q-14 27 -7 70zM185 203q-8 -54 17 -79 q59 77 54 134q-2 24 -13 30q-12 5 -26 -9q-24 -26 -32 -76z" />
<glyph unicode="p" horiz-adv-x="336" d="M-54 -205q0 4 5 14q13 28 35.5 80.5t27.5 64.5l117 278q-38 -42 -56 -64q-11 -13 -20 -3q-7 7 1 16l54 62q17 18 49 56q6 7 14.5 1.5t4.5 -13.5q-5 -13 -18 -43t-19 -47q50 63 98 93q47 30 70 14q19 -12 17 -50q-1 -34 -17 -74q-34 -86 -99 -130q91 24 178 127 q6 8 14.5 1.5t3.5 -14.5q-4 -7 -14.5 -17.5t-14.5 -16.5q-40 -43 -92 -73t-108 -35q-26 -3 -55 2l-16 3q-7 2 -8 8.5t3 11t11 2.5q10 -3 20 -3q22 0 48 13q41 21 72.5 64.5t44.5 94.5q15 39 4 63q-6 13 -29 1q-23 -10 -47 -30q-58 -49 -106 -124q-13 -20 -22 -39 q-1 -1 -3 -5l-3 -6q-3 -6 -14 -33q-14 -34 -77 -179q-20 -48 -31 -71q-4 -12 -12 -12q-11 2 -11 12z" />
<glyph unicode="q" horiz-adv-x="294" d="M38 147q17 40 54 80q63 66 132 81q41 9 70 1q4 -1 6 -3t2.5 -4.5l1 -5t-1 -6t-2.5 -5.5t-2.5 -6t-2.5 -5l-31 -71q-24 -53 -70 -159q53 24 98 75l57 62q5 5 11 3t7.5 -7.5t-2.5 -11.5l-3 -3l-3.5 -3.5t-3 -3.5t-3.5 -3q-4 -5 -13.5 -15.5t-14.5 -16t-13.5 -15t-15 -16 t-14.5 -14t-16.5 -14t-16.5 -12.5q-8 -7 -17 -11l-9 -5l-2 -1q-6 -2 -5 -4q5 -18 5 -45q0 -90 -29 -165q-17 -43 -43 -60q-30 -19 -54 1q-26 22 -11 78q4 15 8.5 29.5t12 31.5t11.5 26.5t14 30.5t13 28q10 22 52 118q-65 -80 -124 -70q-24 4 -34.5 24t-9 44t11.5 48zM60 141 q-6 -16 -9.5 -31.5t-0.5 -32t16 -22.5q22 -10 59 11q25 15 50 47q52 61 102 176q-81 10 -159 -68q-39 -39 -58 -80zM101 -183q-4 -28 6 -39q9 -10 20 -5.5t19 13t13 17.5q33 55 39 173q0 40 -10 56q-5 -10 -12.5 -28t-10.5 -25q-4 -10 -22 -47t-27.5 -62.5t-14.5 -52.5z" />
<glyph unicode="r" horiz-adv-x="258" d="M54 160q-3 2 -5 4.5t-1 5.5t2 5.5t4 5.5t5 5.5t5 5t4 3.5q20 21 58 65l32 39l15 17q5 7 13 3.5t7 -11.5q0 -3 -2 -7t-4.5 -7.5t-4 -8t-1.5 -8.5q-1 -4 0 -5t5 -2q7 -1 13 -0.5t13 0t12 -2.5q36 -13 1 -72q-4 -7 -8.5 -14.5t-10 -16.5t-8.5 -14q-34 -58 -38 -77 q-3 -23 8 -26q6 -2 20 6q19 12 55 50l69 77q5 5 11 3.5t7.5 -7t-2.5 -11.5q-6 -8 -13.5 -16.5t-17 -18.5t-14.5 -16q-35 -41 -61 -63q-29 -25 -48 -27q-20 -2 -30 14t-7 35q4 28 42 88l27 45q14 28 13 37q-1 4 -29 4q-25 2 -31 18q-14 -18 -69 -80l-19 -20q-9 -9 -17 -5z " />
<glyph unicode="s" horiz-adv-x="243" d="M-19 86q0 12 10 12q5 1 18 -12q32 -32 75 -38q64 -11 64 105q0 10 -1.5 44.5t-0.5 53.5q-30 -37 -61 -70l-18 -19q-6 -9 -14 -1q-4 3 -5 6.5t1.5 7.5t4.5 6.5t7 6.5l5 5l90 105l12 14q7 7 15 1.5t4 -13.5q-1 -3 -6 -8t-6 -9q-7 -17 -8 -40.5t1 -54t2 -45.5q0 -57 -17 -85 q43 16 85 55q33 30 56 63q7 9 16 2.5t3 -15.5q-49 -62 -85 -88q-83 -64 -159 -47q-40 9 -74 41q-13 10 -14 17z" />
<glyph unicode="t" horiz-adv-x="217" d="M54 161q-10 7 5 24q46 61 74 111h-45q-7 0 -10.5 5t-0.5 11t16 6h53l10 21q19 37 51 115q3 8 11.5 7t9.5 -10q0 -3 -6 -19l-15 -38q-14 -32 -31 -76h69q1 0 5 0.5t7 0t6 -0.5t5.5 -1.5t3.5 -4.5q3 -6 -1 -11t-10 -5h-94q-1 0 -2 -2.5t-2.5 -6t-2.5 -6.5t-1 -4 q-37 -94 -46 -147q-7 -41 1 -57q5 -12 17.5 -13.5t24 3t20.5 11.5q6 4 11 8.5t10.5 10l9.5 9.5t10 11l9 10.5t9.5 11.5t8.5 11l26 31q4 5 10.5 3.5t8.5 -7.5q2 -5 -4 -13q-18 -21 -19 -22q-4 -4 -13 -15.5t-14 -17.5t-13 -15t-15.5 -16.5t-15.5 -13.5q-39 -31 -73 -21 q-65 16 -7 184q1 3 2 5q-13 -19 -41 -57q-14 -17 -22 -10z" />
<glyph unicode="u" horiz-adv-x="348" d="M54 160q-12 8 4 24l20 25q42 54 61 81l2 3l3 4.5t3 3.5t4 2.5t4.5 -0.5t5.5 -3q6 -6 0 -16q-27 -66 -34 -82q-23 -49 -33 -80q-8 -21 -10 -35q-4 -14 -1 -24q5 -11 14.5 -11t24 9t24 16.5t13.5 11.5q39 37 87 105q40 58 65 103q5 9 12 9q9 0 11 -9q0 -1 -3 -13 q-7 -15 -19 -45q-6 -16 -21 -51.5t-22 -54.5q-17 -45 -19 -64q-3 -12 2 -16q4 -2 14 1l11 5q19 11 58 47q36 36 64 71q11 11 19 -2q3 -7 -3 -15q-40 -47 -73 -78q-29 -29 -53 -42q-42 -22 -57 3q-9 15 0 50q7 29 31 85q-53 -75 -99 -115q-34 -28 -62 -32q-16 -2 -27.5 6 t-14.5 23q-3 21 9 58q6 19 34 87l-24 -31q-1 -1 -4 -5t-4 -5t-5 -4t-6 -2t-6 2z" />
<glyph unicode="v" horiz-adv-x="403" d="M53 177l14 18q53 59 55 61q34 34 52 41q10 3 18.5 1.5t15.5 -8.5t8 -17q1 -15 -6 -35q-7 -25 -27 -68t-25 -57q-8 -18 -11 -34t2 -21q9 -10 29 2q19 9 41 29q47 40 95 100q28 34 40 52l16 23q1 1 3.5 6.5t3.5 7t5 6t6 3.5t7 -1q11 -5 4 -16l-12 -22q-12 -20 -21 -42 q-16 -34 -15 -57q1 -12 10 -17.5t21 -3.5q16 3 34 17q17 13 38 33q7 6 14 1t5 -13q-1 -2 -10 -11l-12 -11q-71 -62 -110 -26q-18 18 -10 56q-51 -63 -87 -94q-28 -24 -44 -33q-19 -14 -45.5 -13.5t-30.5 27.5q-3 26 19 77q4 9 18 38.5t20 46.5q0 1 2 5.5t3.5 8.5t3.5 10 t3 11t1 9.5t-2 7t-6 2.5q-8 0 -17 -9q-12 -8 -25 -21l-50 -55q-2 -4 -7.5 -9.5t-5.5 -6.5q-11 -13 -14 -16q-8 -5 -14.5 2.5t0.5 14.5z" />
<glyph unicode="w" horiz-adv-x="485" d="M55 180l24 28q40 47 61 80q1 1 3 4.5t3 4.5l4 4t4.5 2.5t5.5 -0.5q11 -5 6 -17l-18 -42q-5 -13 -15.5 -36t-17 -37.5t-14 -36t-12.5 -40.5q-9 -40 8 -40q7 -1 21 3q15 6 41 28q19 17 44 47q39 47 81 114q16 25 29 47q4 8 7 11q9 6 16 -3q2 -7 1 -10.5t-5.5 -11t-5.5 -9.5 q-43 -80 -61 -143q-19 -65 5 -71q15 -5 32 3q31 12 60 48q25 30 51 77q8 14 11 21l10 23l22 42q8 18 10 22q2 6 5 9q8 7 16 -1q5 -5 -3 -23q-1 -2 -5 -11t-7 -14l-21 -44q-12 -24 -16 -45q-4 -17 5 -27.5t25 -7.5q16 2 34 17q14 10 39 33q5 5 11.5 2.5t6.5 -9.5 q0 -3 -1.5 -6.5t-3 -5t-5 -4.5t-4.5 -4q-25 -24 -45 -34q-23 -16 -50.5 -10t-33.5 33q-26 -43 -56 -71q-31 -31 -64 -36q-23 -4 -38 5t-19 28q-6 31 15 90q-45 -61 -85 -94q-37 -31 -65 -31q-15 0 -25.5 8.5t-11.5 23.5q-3 19 10 59q15 44 34 86l-23 -28l-13 -14 q-6 -8 -12 -8q-8 2 -9.5 9.5t4.5 12.5z" />
<glyph unicode="x" horiz-adv-x="363" d="M52 176q4 5 9 11t10.5 12t9.5 11l33 39q40 45 70 52q18 4 31 -2t19.5 -17t10.5 -29.5t5 -30.5t1 -28q88 69 134 104q1 1 5 3.5t5 3t5 2t6 -1.5q4 -2 5 -7t-2 -10q-2 -3 -9 -7.5t-8 -5.5q-6 -4 -80 -62q-3 -2 -18 -14t-23 -18l-12 -9q-1 -1 -3 -2q-5 -4 -5 -6v-22 q0 -5 0.5 -13t0.5 -14t1 -13.5t2 -13t3 -11.5t5 -10q16 -24 55 4q30 20 69 69l31 37q4 5 10 4t9 -6q3 -7 -3 -14l-17 -21q-38 -46 -60 -67q-39 -37 -71 -38q-20 -1 -33 9.5t-17.5 32t-5.5 34.5t-1 36q-58 -46 -86 -70q-33 -31 -39 -38q-5 -7 -10 -8q-11 -2 -13 10 q-1 4 11 19q18 18 56 50q49 40 62 51l10 8q9 6 9 9l-2 47q-4 50 -27 55q-13 1 -30 -10q-18 -12 -34 -29.5t-34.5 -40.5t-29.5 -35q-9 -9 -17 -5q-10 8 -3 16z" />
<glyph unicode="y" horiz-adv-x="381" d="M50 167q-1 3 0 5.5t2 4.5t3.5 4.5l3.5 3.5l16 19q42 49 54 61l3 3q8 8 12.5 12t13 10.5t15.5 8.5t16 1.5t18 -5.5q14 -11 14 -31q2 -26 -21 -90q-24 -60 -29 -86q-2 -20 1 -26q4 -5 19 -2q17 5 42 26q40 36 98 113q30 42 44 64q6 10 10 15q6 10 12 10q6 1 9 -5t1 -12 l-85 -211q63 58 112 117q4 4 9.5 4t8.5 -5q5 -7 -7 -21l-37 -42q-47 -49 -82 -79l-20 -18q-3 -3 -11 -21q-1 -4 -8 -20q-14 -43 -51 -122q-20 -42 -41 -64q-28 -32 -60 -33q-21 -1 -34 13t-13 35q1 44 53 100q25 27 74 65l41 33l20 18q7 5 11 14q40 100 61 150 q-57 -78 -101 -115q-31 -27 -58 -32q-8 -2 -16 0t-13 6.5t-8.5 11.5t-3.5 15q-1 13 5 39l16 48q23 60 28 87q4 17 -0.5 27.5t-19.5 4.5q-4 -2 -8 -5t-8.5 -7t-7.5 -6q-3 -3 -12.5 -13t-14.5 -16q-51 -60 -55 -65q-4 -6 -12 -5.5t-9 8.5zM114 -213q9 -16 34 -5q13 4 25 16 q21 20 40 60q9 18 17.5 37.5t19.5 47.5t16 39q-8 -7 -31 -24.5t-38.5 -31t-29.5 -27.5q-34 -34 -48 -66q-14 -30 -5 -46z" />
<glyph unicode="z" horiz-adv-x="305" d="M-8 -183q14 38 56 78q23 23 72 57.5t67 49.5l10 8q4 3 6 11q12 35 -1 48q-5 7 -7 5l-22 -14q-50 -31 -77 -22q-17 6 -17.5 20.5t11.5 26.5q20 21 49.5 25.5t55.5 -8.5q34 28 54 52q38 49 36 83q-1 22 -18.5 33t-41.5 10q-9 0 -18 -2t-18 -6.5t-15.5 -7t-16.5 -11 t-14 -11.5t-14.5 -14t-12.5 -13t-13.5 -15l-11.5 -13l-13 -14q-11 -13 -15 -14q-9 -1 -12 6.5t2 13.5l16 18q2 2 13.5 14.5t15 16.5t13.5 14.5t16 15.5t15.5 12.5t18.5 12.5t18 9q43 17 80 7q20 -6 33.5 -21.5t15.5 -36.5q3 -36 -26 -80q-26 -39 -68 -72q19 -20 16 -48 q59 62 99 105l23 26q13 13 21 6q8 -8 -2 -19l-120 -129l-25 -25l-6 -5q-2 -4 -2 -6l-5 -10q-21 -56 -53 -114q-24 -45 -44 -73q-22 -31 -47 -44q-31 -16 -57 -5q-36 18 -20 69zM13 -191q-5 -13 -1.5 -27t19.5 -16q38 -3 78 61q29 42 74 143q-11 -8 -26.5 -19t-28 -19.5 t-26.5 -19t-26.5 -21.5t-23.5 -23q-31 -32 -39 -59zM100 62q-1 -2 1 -2.5t4 -0.5q9 -1 30 6q18 8 40 23q-15 5 -29.5 1.5t-26 -10.5t-19.5 -17z" />
<glyph unicode="{" horiz-adv-x="297" d="M-28 -142q13 46 50 127l28 58q30 68 34 78q4 12 5 19q0 8 -1 10q-10 12 -23 15q-1 0 -3 0.5t-4 0.5q-14 0 -14 10q-1 4 2 7v3l1 1q0 1 1 1v2q5 5 11 4h2q8 0 14 3q24 5 37 18q5 5 6 7q15 17 24 49q12 30 34 103t43.5 120.5t55.5 81.5q40 34 89 34q29 -4 33 -9 q4 -7 -1 -13t-12 -4q-21 9 -53 -2q-50 -16 -83 -81q-22 -43 -50 -133t-40 -120q-16 -41 -39 -56q-15 -9 -29 -14q19 -13 19 -21q4 -10 0 -29q-7 -27 -19.5 -54.5t-28.5 -59.5t-24 -51q-14 -28 -27 -62q-21 -54 -21 -81q-6 -47 46 -47q4 0 13.5 1.5t13.5 1.5q10 0 11 -10 t-8 -12q-1 0 -2 -0.5l-1 -0.5q-12 -2 -17 -2q-14 -2 -28 0.5t-25.5 9.5t-16.5 17q-17 22 -3 80z" />
<glyph unicode="|" horiz-adv-x="376" d="M33 -180q1 1 1 3q2 5 8 18q5 13 14 34q8 20 20 47q11 28 23 57l14 32q12 32 28 68q37 89 45 109q12 30 16 37q15 38 30 73q15 36 29 69l13 33q6 13 13 31l12 29q2 4 6 13.5t5 12.5q11 26 19 44q1 4 6 14.5t6 16.5q2 3 4 8t3 7v1q2 6 8.5 7t11 -4t1.5 -11v-1q-2 -4 -2 -5 q-2 -3 -4 -9q-5 -11 -13 -30q-7 -18 -18 -43l-10 -26l-12 -28q-2 -6 -7 -16.5t-6 -14.5q-12 -31 -28 -66q-4 -12 -14 -36l-30 -72q-2 -6 -5 -12.5l-6 -13t-5 -11.5q-30 -76 -60 -144q-14 -35 -27 -66q-4 -11 -11 -26.5t-13 -29.5t-10 -27l-18 -42l-6 -15q-2 -4 -4.5 -10.5 t-4.5 -9.5q0 -1 -0.5 -2t-0.5 -2q-4 -7 -11 -7q-6 0 -9 5.5t-1 10.5z" />
<glyph unicode="}" horiz-adv-x="449" d="M-67 -233q2 7 9 9q2 1 5 0t5 -1q6 -2 11 -2q44 -3 71 21t50 65q22 41 48 124l21 67q8 27 21 62q11 28 24 42q10 15 43 28q-13 8 -19 21q-3 10 1 29q3 17 15 44q8 17 27.5 58t29.5 64q29 59 45 118q3 24 3 25q3 23 -10 34.5t-38 11.5q-10 0 -21 -3h-5q-10 0 -10.5 10 t8.5 12q3 0 10 1.5t10 1.5q33 4 54.5 -11t24.5 -45q1 -15 -5 -45q-8 -31 -20 -60q-13 -36 -45.5 -103t-45.5 -101q-10 -22 -7 -33q0 -1 0.5 -1.5l0.5 -0.5q15 -15 31 -15q7 2 11 -4t2 -15l-0.5 -1t-1.5 -2.5t-2.5 -3t-4.5 -2t-7 -0.5q-8 0 -35 -10l-15 -9q-13 -13 -18 -25 q-6 -9 -11.5 -23t-8 -21.5t-8.5 -27.5t-7 -23l-20 -66q-25 -74 -50 -122q-18 -30 -37 -50q-42 -39 -91 -39q-38 0 -38 17z" />
<glyph unicode="~" horiz-adv-x="44" d="M-13 44q-1 5 4 12q5 6 103 121q11 12 18 5q8 -8 -1 -19q-8 -10 -17 -20.5t-17.5 -21t-16.5 -20t-18 -20.5t-17 -20l-18 -22q-3 -3 -7.5 -4t-8 1.5t-4.5 7.5z" />
<glyph unicode="&#xa1;" d="M76 -113q5 13 17 39q94 222 138 322q4 12 15 6q10 -4 6 -14q-7 -14 -18.5 -42t-13.5 -33q-107 -249 -117 -272l-9 -21q-7 -16 -17 -11q-12 5 -1 26zM282 397q0 7 5 12.5t13 5.5t13.5 -5t5.5 -13t-5.5 -13.5t-13.5 -5.5t-13 5.5t-5 13.5z" />
<glyph unicode="&#xa2;" horiz-adv-x="309" d="M22 63l7 19q2 5 13.5 33t18.5 42v1q-5 3 -5 4q-2 1 -6 5q-21 17 -28 49t0 69q25 116 106 180q28 23 54 32l13 5q1 0 3.5 0.5t3.5 0.5q3 0 3 1q0 3 2 5q11 27 27 66l8 18q2 6 8.5 7.5t10.5 -3.5q4 -4 2 -12l-0.5 -0.5t-0.5 -1.5q-1 -3 -4.5 -11.5t-5.5 -13.5 q-18 -43 -23 -53q39 -6 57 -35q5 -6 4 -13t-9 -9t-11 5l-8 12q-15 17 -35 17q-3 0 -4 1h-3v-1q-1 -2 -3 -7t-3 -7l-8 -21l-12 -27q-12 -32 -28 -68q-15 -38 -30 -73q-15 -37 -27 -63l-9 -24q-5 -8 -9 -21q21 -3 50 10q27 12 53 38l13 13q5 7 13 3t6 -12q0 -4 -5 -9 q-3 -2 -4 -4q-53 -56 -110 -62q-12 0 -18 1l-7 1q-3 -7 -8.5 -21t-6.5 -16q-18 -43 -24 -58l-1 -1q-4 -7 -11 -6q-6 0 -8.5 5t-0.5 10zM49 300q-23 -90 21 -121q0 1 4 10.5t6 13.5q1 4 3 8.5l4 9t3 7.5q12 29 28 66q15 38 30 73q15 38 27 65l10 24l6 16l3 6q-41 -14 -79 -57 q-51 -54 -66 -121z" />
<glyph unicode="&#xa3;" horiz-adv-x="473" d="M-9 30q-1 4 -0.5 7t3.5 5.5t4 3l6 3l5 2.5q19 12 43 50q33 51 57 114q14 33 24 64h-72q-7 0 -9 8t4 12q2 2 7 2h77l1 2q0 1 0.5 2.5t0.5 2.5q4 13 10.5 40t10.5 39q11 34 21 57q8 22 23 45q13 22 25 34q21 27 50 40q25 13 58.5 13t59.5 -12q24 -11 41 -32q18 -26 18 -53 q1 -30 -15 -60l-9 -13q-7 -7 -12 -7q-7 0 -10 8t4 12q20 26 20 55.5t-22 52.5q-36 34 -93 26q-32 -8 -53.5 -26.5t-42.5 -48.5q-26 -47 -45 -109l-8 -33q-5 -20 -10 -35h102q10 0 10.5 -11t-10.5 -11h-109l-1 -5q-2 -5 -8 -23l-24 -62q-30 -70 -61 -114l10 3q22 4 34 5 q42 0 111 -23q13 -3 37 -11l34 -7q20 -2 29 0l12 3q6 3 11 -1t5 -9t-5 -9q-7 -7 -35 -7q-17 0 -33 3l-36 9q-10 3 -32 10t-35.5 11t-34.5 6.5t-41 0.5q-52 -6 -79 -33q-2 -2 -4 -2h-8q-8 0 -11 6z" />
<glyph unicode="&#xa4;" horiz-adv-x="316" d="M1 37v21q0 2 2 2h312v-21q0 -2 -2 -2h-312zM1 297v16q0 7 2 7h158v-19q0 -4 -2 -4h-158zM1 586v21q0 2 2 2h312v-21q0 -2 -2 -2h-312z" />
<glyph unicode="&#xa5;" horiz-adv-x="414" d="M24 228q3 6 9 6h75l1 2q0 1 2 5q5 13 18 41h-89q-11 2 -10 12.5t11 10.5h96v1q0 8 -1 12q0 4 -0.5 11.5t-0.5 11.5l-2 31l-2 36q-2 26 -2 39l-3 40q0 12 -2 38l-2 32q0 5 -0.5 13.5t-0.5 12.5q-1 5 -1 16q-1 1 -1 4q0 11 11 11.5t12 -10.5v-3q0 -2 0.5 -8t0.5 -9l2 -30 l2 -39l3 -43l2 -45l3 -41q0 -10 2 -34q0 -3 0.5 -11t0.5 -12q3 4 10 12t8 9q9 11 33 40t36 45q14 16 28 34q28 34 53 63q21 27 39 48l11 13q3 6 10 7.5t11 -5.5q5 -6 -1 -12q0 -1 -1 -1q-4 -6 -7 -9q-9 -12 -30 -37q-20 -23 -45 -54l-25 -30q-5 -7 -14.5 -18.5t-10.5 -12.5 q-27 -32 -47 -57q-22 -27 -35 -43l-10 -12l-4 -4h76q8 0 10 -8q1 -3 0 -6.5t-4 -6t-6 -2.5h-89q-1 0 -1 -2l-3 -5q-5 -13 -18 -41h103q11 0 11 -11.5t-11 -11.5h-112q-1 0 -1 -1q-1 -1 -1 -2t-0.5 -1.5t-0.5 -1.5q-8 -17 -24 -55q-37 -83 -41 -95q-5 -10 -5 -11 q-5 -5 -12.5 -3.5t-8.5 8.5q0 2 2 8l7 17q5 10 13 30q16 37 31 71q9 21 11 26l5 10h-64q-6 0 -10.5 5.5t0.5 11.5z" />
<glyph unicode="&#xa6;" horiz-adv-x="376" d="M32 -185q0 2 1 4.5t1 3.5l152 365q0 1 1 3t1 3l1 1q0 1 0.5 2.5l0.5 1.5l96 228q0 3 1 4l12 29q2 3 4.5 10t3.5 10l27 64q0 2 3 6.5t3 6.5q0 1 -0.5 2.5t-0.5 2.5q0 3 6 9q5 11 11 13q13 0 13 -15v-1q-4 -7 -6 -14l-65 -154q0 -1 -0.5 -2.5l-0.5 -1.5l-28 -66 q0 -3 -8 -21l-36 -87q-2 -4 -2 -6l-10 -22q-2 -3 -4 -9l-111 -268q0 -1 -1.5 -4.5t-3 -6l-1.5 -2.5l-7 -18q-15 -26 -15 -36l-6 -15q-2 -4 -4.5 -10.5t-4.5 -9.5q0 -2 -1 -3.5t-1 -2.5q-4 -4 -7 -4l-3 -1q-11 0 -11 11z" />
<glyph unicode="&#xa7;" horiz-adv-x="420" d="M-121 -64q0 11 7 11q5 2 10 -0.5t5 -7.5q1 -2 0 -5v-2q-2 -10 -2 -14q-2 -45 24 -73t68 -40q36 -8 70 -0.5t54 27.5q8 6 17 20q26 39 23 83q-3 40 -30 95q-6 14 -30 56l-36 61q-37 64 -31 129q6 69 50 116l22 20l12 9l7 3v9q6 71 57 122q49 49 101 43q33 -2 58.5 -14.5 t42 -34t23.5 -50.5q5 -16 7 -39l2 -19v-9q0 -4 -1 -6q0 -11 -12 -6q-10 3 -10 10q0 37 -8 63q-8 35 -34 56.5t-66 25.5q-15 2 -26 -1q-40 -4 -72 -47q-45 -55 -39 -122q1 -15 3.5 -28.5t9 -28t10.5 -22.5t13 -24t12 -21q42 -70 61 -115q21 -55 18 -97q-5 -41 -25 -69 q-15 -27 -42 -42q-12 -7 -22 -11q-1 0 -2 -1h-1v-5q3 -35 -7 -64q-22 -66 -78 -86q-48 -21 -102 -8q-42 7 -71.5 33.5t-39.5 65.5q-5 24 0 54zM50 257q0 -28 10 -60q8 -20 16 -34l15 -26q23 -38 33 -55t25.5 -50.5t22.5 -63.5l10 4q15 8 26 18q19 16 29.5 44.5t8.5 61.5 q-3 43 -32 95q-4 9 -9 18.5t-11.5 21t-9.5 17.5l-34 58q-24 38 -31 92q-45 -29 -63 -93q-6 -22 -6 -48z" />
<glyph unicode="&#xa8;" horiz-adv-x="197" d="M60 703q15 12 28.5 2t9.5 -26q-7 -13 -21 -15q-15 0 -21 13.5t4 25.5zM115 679q15 12 28.5 2t9.5 -26q-7 -13 -21 -15q-15 0 -21 13.5t4 25.5z" />
<glyph unicode="&#xa9;" horiz-adv-x="591" d="M21 210q-3 69 21 125t65 111q75 93 183 138q57 20 103 20q65 0 110 -31.5t64 -84.5q10 -26 12.5 -55.5t-1 -56.5t-11.5 -54.5t-17.5 -49.5t-20.5 -42q-78 -132 -216 -189q-57 -20 -103 -20q-69 0 -115 34.5t-64 91.5q-10 30 -10 63zM45 186q15 -98 101 -132 q27 -10 59 -10q69 -4 154 44q131 82 184 226q19 71 15 113q-5 50 -29 87t-64 52q-39 16 -81 14.5t-82 -15.5q-12 -5 -51 -23q-67 -42 -115 -96t-74 -125t-17 -135zM167 261q13 107 98 186q18 15 42 28t51 10.5t37 -25.5q8 -29 2 -51.5t-21 -40.5q-8 -9 -19 -16q-4 -2 -5 -2 q-4 -2 -6 -2q-8 -2 -11.5 5t1.5 13q1 2 6 4q3 1 4 2q18 10 28 40q4 14 3 24q0 12 -6.5 20t-18.5 8q-23 0 -47 -16q-46 -27 -73 -76q-16 -25 -25 -49q-8 -19 -13 -41t-5 -45t11 -41t32 -23q9 -3 29 -3q48 3 93 48l27 29q6 6 12.5 2.5t6.5 -10.5q0 -4 -4.5 -9t-4.5 -6l-14 -14 q-66 -72 -139 -61q-26 3 -45 19q-30 27 -26 93z" />
<glyph unicode="&#xaa;" horiz-adv-x="324" d="M25 94q1 32 23 72q20 41 62 79q81 77 168 67q12 -2 18 -4q5 -1 6.5 -4.5t0.5 -8t-2 -8t-4 -9t-3 -6.5q-26 -60 -53 -102q-17 -35 -24 -70q-4 -21 1.5 -36.5t24.5 -11.5q12 2 28 14q11 9 22 19.5t23 23.5t19 21t21.5 25.5t19.5 22.5q6 6 13.5 2t5.5 -12q0 -1 -7 -11 q-9 -10 -29.5 -34.5t-37 -41t-33.5 -30.5q-39 -33 -70 -18q-32 14 -23 70q-35 -44 -69 -62q-46 -22 -76 -2q-25 17 -25 55zM34 -18q0 8 7 11h255q7 0 10 -5.5t0.5 -11t-10.5 -5.5h-244q-18 0 -18 11zM60 141q-6 -15 -9.5 -31t-0.5 -32.5t16 -22.5q13 -5 35 1q26 7 56 37 q22 22 50 65q5 6 11 20l9 19q14 36 48 92q-79 10 -157 -68q-40 -38 -58 -80z" />
<glyph unicode="&#xab;" horiz-adv-x="243" d="M35 171q0 1 6 11l37 49q13 16 23 32q23 31 37 49q4 4 8 4q12 0 12 -12q0 -3 -7 -13q-39 -51 -83 -112q-6 -8 -10 -12l1 -2l7 -63q2 -26 4 -39l3 -24q0 -15 -12 -15q-5 0 -7.5 3t-3 10t-1.5 9q-1 13 -11 105q0 2 -1 6.5t-1.5 8t-0.5 5.5zM114 169q0 4 3 9l11 13 q12 18 19 26l46 62q3 3 11 16t13 17q4 4 8 4q10 0 12 -10q0 -4 -2 -8q-32 -42 -97 -130q-1 -1 -1 -2q0 -4 6 -47l4 -40q2 -33 5 -41v-2q0 -13 -12 -13q-9 0 -11 11v4q-7 62 -14 126q0 3 -1 5z" />
<glyph unicode="&#xac;" horiz-adv-x="316" d="M1 37v21q0 2 2 2h312v-21q0 -2 -2 -2h-312zM1 297v16q0 7 2 7h158v-19q0 -4 -2 -4h-158zM1 586v21q0 2 2 2h312v-21q0 -2 -2 -2h-312z" />
<glyph unicode="&#xad;" horiz-adv-x="436" d="M121 262q0 8 7 11h217q7 0 10 -5.5t0.5 -11t-10.5 -5.5h-206q-18 0 -18 11z" />
<glyph unicode="&#xae;" horiz-adv-x="575" d="M8 210q-3 69 21 125t65 111q75 93 183 138q57 20 103 20q65 0 110 -31.5t64 -84.5q10 -26 12.5 -55.5t-1 -56.5t-11.5 -54.5t-17.5 -49.5t-20.5 -42q-78 -132 -216 -189q-57 -20 -103 -20q-69 0 -115 34.5t-64 91.5q-10 30 -10 63zM32 186q15 -98 101 -132q27 -10 59 -10 q69 -4 154 44q131 82 184 226q19 71 15 113q-5 50 -29 87t-64 52q-39 16 -81 14.5t-82 -15.5q-12 -5 -51 -23q-140 -87 -189 -221q-26 -71 -17 -135zM151 170q4 10 22 53q14 34 24 60l8 18q3 3 3 7v2q2 2 2 4q2 2 2 4q10 24 40 97q2 5 5.5 14.5t5.5 13.5q2 9 -1 12 q-2 1 -6 2l-4 1q-44 0 -57 -26q0 -5 -6 -7t-11 1q-12 12 10 34q23 20 55 20q14 2 25.5 -3.5t16.5 -16.5q4 -13 -2 -28q1 0 1 1q24 29 50 41q29 14 51 2q17 -12 21 -35t-1.5 -45.5t-16.5 -41.5q-18 -27 -44 -47q-28 -18 -55 -25q-28 -7 -46 -5q7 -34 38 -65q47 -47 94 -26 q19 10 40 34l20 25q7 7 14 1.5t5 -14.5q-2 -3 -4.5 -5.5t-5 -6t-4.5 -5.5l-12 -14q-44 -48 -92 -43q-28 2 -51.5 20.5t-39.5 42.5q-19 26 -26 56q-3 -9 -11 -27q-11 -24 -27 -64l-9 -23q0 -1 -1 -1q-2 -7 -9 -7q-6 -1 -10 4.5t-1 10.5zM230 303q1 -1 2 -1t5 -2q3 0 5 -1 q51 -4 93 30q26 20 40 49q12 26 11 48q0 27 -16 32q-18 6 -43 -14q-27 -22 -62 -78q-26 -46 -30 -55q-5 -7 -5 -8z" />
<glyph unicode="&#xaf;" horiz-adv-x="363" d="M35 558q0 8 7 11h255q7 0 10 -5.5t0.5 -11t-10.5 -5.5h-244q-18 0 -18 11z" />
<glyph unicode="&#xb0;" horiz-adv-x="196" d="M50 554q13 26 43 26q25 0 40.5 -21.5t5.5 -45.5q-9 -27 -39.5 -30.5t-46.5 20.5q-18 24 -3 51zM71 516q9 -12 22 -12q18 0 25 16t-5 29q-16 18 -35.5 3t-6.5 -36z" />
<glyph unicode="&#xb1;" horiz-adv-x="150" d="M-197 -188q5 39 40 81q24 30 70 72q48 43 59 53q1 1 6 4.5t8 6.5t4 6q41 104 79 200q-7 -8 -31 -33.5t-38 -39.5q-3 -3 -6.5 -3.5t-6.5 1.5t-4.5 4.5t-1.5 6.5t3 7q7 7 52 55q40 44 52 57q8 6 12 23l39 95q41 99 56 130q16 31 39 52.5t50 9.5q19 -9 23 -32t-6 -40 q-11 -24 -30 -52q-37 -54 -108 -136q-38 -44 -47 -54q-3 -4 -11 -21q-14 -36 -79 -200q35 32 62 60l30 34q1 1 3.5 4t4 5.5t4 5t5 3.5t5.5 1t6 -2q8 -7 1 -18q-9 -11 -45 -50q-32 -34 -59 -58l-36 -32l-21 -50q-43 -103 -73 -152q-11 -20 -18.5 -31t-24 -24t-34.5 -11 q-21 3 -29 22t-4 40zM-175 -192q-2 -19 4 -29q8 -12 25 -2q9 4 24 24q13 19 27 46q26 49 64 138q-83 -73 -116 -116q-24 -31 -28 -61zM137 345q55 62 89 107q44 59 55 86q11 24 -1 37q-14 15 -38 -7q-17 -17 -37 -61t-68 -162z" />
<glyph unicode="&#xb2;" horiz-adv-x="216" d="M25 362l3 2l14 7q106 53 120 143q6 36 -18 49q-13 6 -27.5 3t-26.5 -14.5t-14 -24.5v-4v-2q7 -9 -4 -15q-13 -6 -17 8q-4 11 1 25q8 21 27.5 36t44.5 15q32 0 47 -25.5t8 -61.5q-15 -80 -95 -131q2 -1 6 -1q30 -5 35 -5q9 0 14 2q3 0 10 6q7 4 12.5 -2t2.5 -13 q-6 -9 -17.5 -12t-21 -2.5t-27.5 3t-24 2.5q-23 2 -36 -6q-1 0 -2.5 -0.5l-1.5 -0.5q-2 0 -2 -1q-6 -3 -11 1t-5 10t5 9z" />
<glyph unicode="&#xb3;" horiz-adv-x="236" d="M16 374q-4 6 -0.5 13t10.5 6q6 0 10 -7q0 -3 2 -5q0 -2 3 -5q18 -18 50 -14.5t49 20.5q9 8 16.5 23t7 31.5t-15.5 22.5q-1 0 -2 0.5l-1 0.5h-2q-2 0 -3 -1q-2 0 -5 -0.5t-4 -0.5q-8 -1 -15 -1t-12.5 4t-6.5 11q-1 5 2 10.5t9 2.5q4 0 7 -3l2 -2q1 -1 4 -1q35 0 63 37 q21 30 3 48q-11 8 -26 8q-18 0 -33 -6l-11 -6q-4 -2 -5 -4v2q-2 -7 -6.5 -10.5t-12.5 0.5q-7 4 -2 16q3 7 10.5 13t17.5 9.5t20.5 5.5t20.5 2q22 0 39.5 -12t17.5 -34q1 -12 -6 -30q-14 -29 -42 -46q15 -15 15.5 -38t-9.5 -42t-24 -31q-18 -15 -42.5 -20.5t-53.5 2.5 q-31 10 -39 31zM116 479q2 -2 2 -8q1 2 1 5q0 1 -1 1q0 2 -2 2z" />
<glyph unicode="&#xb4;" horiz-adv-x="172" d="M44 649q0 5 6 11q3 2 59 46q12 9 16 -4q4 -10 -5 -16q-1 -1 -10.5 -8t-14.5 -11q-18 -16 -33 -26q-5 -5 -11.5 -2t-6.5 10z" />
<glyph unicode="&#xb6;" horiz-adv-x="316" d="M1 37v21q0 2 2 2h312v-21q0 -2 -2 -2h-312zM1 297v16q0 7 2 7h158v-19q0 -4 -2 -4h-158zM1 586v21q0 2 2 2h312v-21q0 -2 -2 -2h-312z" />
<glyph unicode="&#xb7;" horiz-adv-x="139" d="M85 300q0 9 6.5 15.5t15.5 6.5q10 0 16.5 -6.5t6.5 -15.5q0 -10 -6.5 -16.5t-16.5 -6.5q-9 0 -15.5 6.5t-6.5 16.5z" />
<glyph unicode="&#xb8;" horiz-adv-x="190" d="M33 -85q1 -1 4 -1q1 -1 3 -1q3 0 18 3q21 8 47 24l22 18q12 11 20 23q4 8 4 13q0 10 -10 10q-6 2 -12 0q-16 -2 -31 -6q-22 -9 -22 9q0 3 2 6t5 6.5t4 4.5l46 56l7 10q10 10 17 6q5 -2 6 -8.5t-4 -9.5q-7 -11 -22.5 -29.5t-18.5 -22.5q56 6 56 -31q0 -22 -25 -47 q-23 -23 -46 -35q-22 -15 -49 -21q-14 -2 -21 0q-7 0 -10.5 6t-0.5 11.5t11 5.5z" />
<glyph unicode="&#xb9;" horiz-adv-x="164" d="M29 348q0 1 0.5 2.5t0.5 2.5l9 20q11 28 27 67q15 39 27 68q2 5 6.5 15.5t6.5 16.5h-1l-1 -1q-6 -2 -12 4q-7 13 12 21l16 8q2 2 5 2h2h2q2 0 7 -3q0 -1 2 -3q2 -5 0 -10q-4 -8 -16 -38t-27 -68l-15 -37q-5 -11 -13 -33q-13 -32 -17 -41q0 -9 -10 -9q-6 -2 -10 3.5 t-1 12.5z" />
<glyph unicode="&#xba;" horiz-adv-x="289" d="M12 -13q0 7 7 11h255q7 0 10 -5.5t0.5 -11t-10.5 -5.5h-244q-18 0 -18 11zM43 136q17 90 102 160q1 1 5 4t7 4.5t6 1.5q11 -2 11 -12q0 -3 -1.5 -5.5t-3 -3.5l-4.5 -3t-4 -3q-59 -40 -85 -111q-14 -36 -13 -63q1 -21 13 -35.5t32 -11.5q39 5 79 49q-16 15 -22 39.5 t-3.5 47t9.5 46.5q14 46 38 62q16 12 33.5 9t26.5 -20q21 -37 1 -92q-14 -44 -48 -86q45 -17 95 38l21 22q9 13 18 5q3 -2 3.5 -5t0.5 -5.5t-2 -5.5t-3.5 -4.5t-4 -4.5t-3.5 -4l-27 -27q-12 -10 -20.5 -16t-23.5 -13t-28 -6.5t-32 4.5q-6 2 -9 4l-9 -9q-38 -40 -77 -49 q-22 -5 -41.5 2.5t-29.5 26.5q-14 27 -7 70zM185 203q-8 -54 17 -79q59 77 54 134q-2 24 -13 30q-12 5 -26 -9q-24 -26 -32 -76z" />
<glyph unicode="&#xbb;" horiz-adv-x="204" d="M-9 48q0 1 5 9q13 18 39 56q25 37 38 55q0 1 3 4q-2 6 -2 8q-7 26 -18 69l-9 35q-11 32 6 32q6 0 8.5 -3.5t5 -13.5l2.5 -10l8 -34q12 -39 18 -69l4 -13q2 -5 -2 -9q-3 -4 -24 -36l-22 -32q-2 -3 -22 -31l-15 -21q-8 -14 -18 -9q-8 4 -5 13zM68 44q3 5 9.5 14.5t7.5 10.5 q20 30 44 64q3 4 7.5 10.5t8.5 12t7 10.5q1 1 0 2v2q-2 6 -7 26q-10 40 -20 76l-6 23q-2 7 2 12t10 4q7 0 9 -8l5 -17l8 -33q4 -12 10 -38l9 -32q2 -10 4 -15q0 -4 -6 -16q-13 -18 -37 -53l-22 -32q-3 -4 -10.5 -15t-11.5 -16q-3 -6 -9.5 -6.5t-10.5 3.5t-1 11z" />
<glyph unicode="&#xbc;" horiz-adv-x="506" d="M-22 52q0 3 4 9q1 0 1 1q3 2 5 5l9 8l11 12q14 13 32 31q11 10 23 22l21.5 21.5l22.5 22.5l22 22q27 26 54 53l28 27l28 28t57 56q3 3 8.5 9t10.5 10.5t9 8.5l27 27q14 12 26 26l26 24q24 25 45 45q21 22 38 37l36 36l5 6l2 1q5 7 12 3t7 -11q0 -3 -1.5 -6t-3 -4t-5 -4 l-3.5 -3l-23 -23l-16 -16q-17 -17 -39 -38q-56 -56 -72 -71q-13 -14 -82 -81l-29 -29l-28 -28q-28 -27 -56 -55l-27 -26q-4 -4 -8 -8.5t-9.5 -9.5t-8.5 -8q-25 -25 -47 -46l-40 -40l-16 -16l-14 -13l-11 -11l-11 -11v-1q-5 -5 -12.5 -2t-7.5 10zM111 340q0 1 0.5 2.5 t0.5 2.5l9 20q11 28 27 67q15 39 27 68q2 5 6.5 15.5t6.5 16.5q-1 0 -1.5 -0.5l-0.5 -0.5q-6 -2 -12 4q-7 13 12 21l16 8q2 2 5 2h2h2q2 0 7 -3q0 -1 2 -3q2 -5 0 -10q-4 -8 -16 -38t-27 -68l-15 -37q-5 -11 -13 -33q-13 -32 -17 -41q0 -3 -3.5 -6t-6.5 -3q-6 -2 -10 3.5 t-1 12.5zM267 168q5 3 14 11t14 12q27 24 58 49q32 27 51 42l10 9l4 2q5 2 8 -1q5 0 6 -6t-1 -10q-8 -17 -25 -59q-18 -40 -20 -46h16q6 0 9 -6.5t-1 -11.5l-5 -4h-6q-6 -1 -17 -1h-5q0 -1 -1 -1q0 -2 -2 -6q-12 -26 -28 -65l-11 -27q-6 -11 -11 -11q-6 0 -10 4.5t-2 11.5 l1 1q1 2 2.5 5.5t1.5 4.5q14 32 28 66l7 16h-79q-8 0 -10 7.5t4 13.5zM304 169q4 0 13.5 0.5t14.5 0.5h30q5 11 23 55l8 19q-17 -13 -50 -42l-27 -23q-8 -6 -12 -10z" />
<glyph unicode="&#xbd;" horiz-adv-x="512" d="M-22 52q0 3 4 9q1 0 1 1q3 2 5 5l9 8l11 12q14 13 32 31q11 10 23 22l21.5 21.5l22.5 22.5l22 22q27 26 54 53l28 27l28 28t57 56q3 3 8.5 9t10.5 10.5t9 8.5l27 27q14 12 26 26l26 24q24 25 45 45q21 22 38 37l36 36l5 6l2 1q5 7 12 3t7 -11q0 -3 -1.5 -6t-3 -4t-5 -4 l-3.5 -3l-23 -23l-16 -16q-17 -17 -39 -38q-56 -56 -72 -71q-13 -14 -82 -81l-29 -29l-28 -28q-28 -27 -56 -55l-27 -26q-4 -4 -8 -8.5t-9.5 -9.5t-8.5 -8q-25 -25 -47 -46l-40 -40l-16 -16l-14 -13l-11 -11l-11 -11v-1q-5 -5 -12.5 -2t-7.5 10zM120 353q0 1 0.5 2.5 t0.5 2.5l9 20q11 28 27 67q15 39 27 68q2 5 6.5 15.5t6.5 16.5q-1 0 -1.5 -0.5l-0.5 -0.5q-6 -2 -12 4q-7 13 12 21l16 8q2 2 5 2h2h2q2 0 7 -3q0 -1 2 -3q2 -5 0 -10q-4 -8 -16 -38t-27 -68l-15 -37q-5 -11 -13 -33q-13 -32 -17 -41q0 -3 -3.5 -6t-6.5 -3q-6 -2 -10 3.5 t-1 12.5zM286 65l3 2l14 7q106 53 120 143q6 36 -18 49q-18 11 -41.5 -2.5t-26.5 -33.5v-4v-2q7 -9 -4 -15q-13 -4 -17 8q-4 11 1 25q8 21 27.5 36t44.5 15q32 0 47 -25.5t8 -61.5q-15 -80 -95 -131q2 -1 6 -1q30 -5 35 -5q9 0 14 2q2 0 10 6q7 4 12.5 -2t2.5 -13 q-5 -7 -12.5 -10.5t-18 -4t-19 0.5t-21.5 2.5t-19 2.5q-23 2 -36 -6q-1 0 -2.5 -0.5l-1.5 -0.5q-2 0 -2 -1q-6 -3 -11 1t-5 10t5 9z" />
<glyph unicode="&#xbe;" horiz-adv-x="545" d="M-3 52q0 3 4 9q1 0 1 1q3 2 5 5l9 8l11 12q14 13 32 31q11 10 23 22l21.5 21.5l22.5 22.5l22 22q27 26 54 53l28 27l28 28t57 56l28 28l27 27q14 12 26 26l26 24q24 25 45 45q21 22 38 37l36 36l5 6l2 1q5 7 12 3t7 -11q-1 -7 -13 -17l-23 -23l-16 -16q-17 -17 -39 -38 q-56 -56 -72 -71q-13 -14 -82 -81l-29 -29l-28 -28q-28 -27 -56 -55l-27 -26q-4 -4 -8 -8.5t-9.5 -9.5t-8.5 -8q-25 -25 -47 -46l-40 -40l-16 -16l-14 -13q-1 -2 -3 -3.5t-4.5 -4l-3.5 -3.5l-11 -11v-1q-5 -5 -12.5 -2t-7.5 10zM43 351q-4 6 -0.5 13t10.5 6q6 0 10 -7 q0 -3 2 -5q0 -2 3 -5q18 -18 50 -14.5t49 20.5q9 8 16.5 23t7 31.5t-15.5 22.5q-1 0 -2 0.5l-1 0.5h-2q-2 0 -3 -1q-2 0 -5 -0.5t-4 -0.5q-13 -2 -23 1t-11 13q-1 5 2 10.5t9 2.5q4 0 7 -3l2 -2q1 -1 4 -1q35 0 63 37q21 30 3 48q-11 8 -26 8q-18 0 -33 -6l-11 -6 q-4 -2 -5 -4v2q-2 -7 -6.5 -10.5t-12.5 0.5q-7 4 -2 16q3 7 10.5 13t17.5 9.5t20.5 5.5t20.5 2q22 0 39.5 -12t17.5 -34q1 -12 -6 -30q-14 -29 -42 -46q15 -15 15.5 -38t-9.5 -42t-24 -31q-18 -15 -42.5 -20.5t-53.5 2.5q-31 10 -39 31zM143 456q2 -2 2 -8q1 2 1 5q0 1 -1 1 q0 2 -2 2zM298 171q5 3 14 11t14 12q27 24 58 49q32 27 51 42l10 9l4 2q5 2 8 -1q5 0 6 -6t-1 -10q-8 -17 -25 -59q-18 -40 -20 -46h16q6 0 9 -6t-1 -12l-5 -4h-6q-6 -1 -17 -1h-5q0 -1 -1 -1q0 -2 -2 -6q-12 -26 -28 -65l-11 -27q-6 -11 -11 -11q-6 0 -10 4.5t-2 11.5l1 1 q1 2 2.5 5.5t1.5 4.5q14 32 28 66l7 16h-79q-8 0 -10 7.5t4 13.5zM335 172q4 0 13.5 0.5t14.5 0.5h30q5 11 23 55l8 19q-17 -13 -50 -42l-27 -23q-8 -6 -12 -10z" />
<glyph unicode="&#xbf;" horiz-adv-x="425" d="M49 -44q-10 54 19.5 107t74.5 93q15 14 46 38t53.5 45.5t38.5 45.5q4 6 10 5t8.5 -6.5t-0.5 -12.5q-25 -38 -89 -89.5t-85 -76.5q-54 -63 -55 -124q-2 -36 22 -57q31 -26 80 -17q39 8 71.5 39.5t50.5 72.5q5 15 8 26q0 10 9 13q25 4 4 -47q-5 -12 -9 -18 q-21 -40 -55.5 -70t-75.5 -38q-49 -9 -84 12q-34 20 -42 59zM348 432q0 8 5.5 13.5t13.5 5.5t13 -5.5t5 -13.5t-5 -13t-13 -5t-13.5 5t-5.5 13z" />
<glyph unicode="&#xc0;" horiz-adv-x="486" d="M33 229q18 82 75 164q106 156 258 202q48 14 88 15q51 0 76 -11q22 -11 23 -19q0 -9 -6 -12l-36 -86q-48 -112 -71 -168q-4 -10 -15 -35t-17 -38.5t-14.5 -34t-15 -39t-12.5 -37.5q-5 -16 -7 -28t-2.5 -28.5t8.5 -23.5t28 -3q20 4 52 30q38 33 94 100q4 5 10.5 4t8.5 -7 t-8 -19l-29 -34q-37 -42 -72 -69q-32 -24 -59 -28q-18 -2 -33 6t-20 25q-8 24 4 67q8 31 32 93q-43 -58 -82 -96q-77 -75 -143 -86q-42 -7 -72 13q-35 23 -46 76.5t3 106.5zM49 142q4 -35 22 -60.5t50 -27.5q25 -1 50 8q51 19 115 83q56 59 99 126q34 50 44 76q20 46 97 229 l-5 2q-5 2 -11 3.5t-7 1.5q-19 4 -44 4q-70 0 -144 -37q-73 -35 -133 -100q-71 -76 -108 -167q-31 -75 -25 -141zM474 695q-8 7 -2 15.5t16 2.5q56 -44 59 -46q6 -6 6 -11q0 -7 -6.5 -10t-11.5 2q-15 10 -33 26q-5 3 -14 10.5t-14 10.5z" />
<glyph unicode="&#xc1;" horiz-adv-x="486" d="M33 229q18 82 75 164q106 156 258 202q48 14 88 15q51 0 76 -11q22 -11 23 -19q0 -9 -6 -12l-36 -86q-48 -112 -71 -168q-4 -10 -15 -35t-17 -38.5t-14.5 -34t-15 -39t-12.5 -37.5q-5 -16 -7 -28t-2.5 -28.5t8.5 -23.5t28 -3q20 4 52 30q38 33 94 100q4 5 10.5 4t8.5 -7 t-8 -19l-29 -34q-37 -42 -72 -69q-32 -24 -59 -28q-18 -2 -33 6t-20 25q-8 24 4 67q8 31 32 93q-43 -58 -82 -96q-77 -75 -143 -86q-42 -7 -72 13q-35 23 -46 76.5t3 106.5zM49 142q4 -35 22 -60.5t50 -27.5q25 -1 50 8q51 19 115 83q56 59 99 126q34 50 44 76q20 46 97 229 l-5 2q-5 2 -11 3.5t-7 1.5q-19 4 -44 4q-70 0 -144 -37q-73 -35 -133 -100q-71 -76 -108 -167q-31 -75 -25 -141zM493 644q0 5 6 11q3 2 59 46q12 9 16 -4q4 -10 -5 -16q-1 -1 -10.5 -8t-14.5 -11q-18 -16 -33 -26q-5 -5 -11.5 -2t-6.5 10z" />
<glyph unicode="&#xc2;" horiz-adv-x="486" d="M33 229q18 82 75 164q106 156 258 202q48 14 88 15q51 0 76 -11q22 -11 23 -19q0 -9 -6 -12l-36 -86q-48 -112 -71 -168q-4 -10 -15 -35t-17 -38.5t-14.5 -34t-15 -39t-12.5 -37.5q-5 -16 -7 -28t-2.5 -28.5t8.5 -23.5t28 -3q20 4 52 30q38 33 94 100q4 5 10.5 4t8.5 -7 t-8 -19l-29 -34q-37 -42 -72 -69q-32 -24 -59 -28q-18 -2 -33 6t-20 25q-8 24 4 67q8 31 32 93q-43 -58 -82 -96q-77 -75 -143 -86q-42 -7 -72 13q-35 23 -46 76.5t3 106.5zM49 142q4 -35 22 -60.5t50 -27.5q25 -1 50 8q51 19 115 83q56 59 99 126q34 50 44 76q20 46 97 229 l-5 2q-5 2 -11 3.5t-7 1.5q-19 4 -44 4q-70 0 -144 -37q-73 -35 -133 -100q-71 -76 -108 -167q-31 -75 -25 -141zM476 693l1 1l2 1l10 5q12 5 34 16l11 5q11 6 17 -4q1 -1 1 -2q3 -4 8.5 -14t9.5 -15l14 -23q3 -6 0 -11.5t-9 -5.5q-12 0 -12 9q-3 5 -12 18.5t-13 21.5 q-1 1 -1 2h-2q-2 -1 -4.5 -3t-3.5 -2q-13 -5 -22 -10q-10 -4 -20 -9q-8 0 -12 7t3 13z" />
<glyph unicode="&#xc3;" horiz-adv-x="486" d="M33 229q18 82 75 164q106 156 258 202q48 14 88 15q51 0 76 -11q22 -11 23 -19q0 -9 -6 -12l-36 -86q-48 -112 -71 -168q-4 -10 -15 -35t-17 -38.5t-14.5 -34t-15 -39t-12.5 -37.5q-5 -16 -7 -28t-2.5 -28.5t8.5 -23.5t28 -3q20 4 52 30q38 33 94 100q4 5 10.5 4t8.5 -7 t-8 -19l-29 -34q-37 -42 -72 -69q-32 -24 -59 -28q-18 -2 -33 6t-20 25q-8 24 4 67q8 31 32 93q-43 -58 -82 -96q-77 -75 -143 -86q-42 -7 -72 13q-35 23 -46 76.5t3 106.5zM49 142q4 -35 22 -60.5t50 -27.5q25 -1 50 8q51 19 115 83q56 59 99 126q34 50 44 76q20 46 97 229 l-5 2q-5 2 -11 3.5t-7 1.5q-19 4 -44 4q-70 0 -144 -37q-73 -35 -133 -100q-71 -76 -108 -167q-31 -75 -25 -141zM470 691q7 17 22 24t33 -5q9 -9 12 -21q1 -2 3 -9.5t3.5 -13t4.5 -11.5t6.5 -6.5t9.5 1.5q6 3 18 18q2 3 3 4l3 6q15 7 19 -10q-5 -12 -13 -20q-6 -10 -19 -18 t-25 -4q-5 1 -8.5 3.5t-6.5 6t-5 6.5t-4 8.5t-3 8.5t-2.5 9t-2.5 9q-1 1 -2.5 6.5t-3.5 8.5t-5 3h-5l-3 -2l-8 -9q-7 -11 -9 -17q-4 -8 -10 -8t-8.5 4t-1.5 9.5t3 10.5t5 8z" />
<glyph unicode="&#xc4;" horiz-adv-x="486" d="M33 229q18 82 75 164q106 156 258 202q48 14 88 15q51 0 76 -11q22 -11 23 -19q0 -9 -6 -12l-36 -86q-48 -112 -71 -168q-4 -10 -15 -35t-17 -38.5t-14.5 -34t-15 -39t-12.5 -37.5q-5 -16 -7 -28t-2.5 -28.5t8.5 -23.5t28 -3q20 4 52 30q38 33 94 100q4 5 10.5 4t8.5 -7 t-8 -19l-29 -34q-37 -42 -72 -69q-32 -24 -59 -28q-18 -2 -33 6t-20 25q-8 24 4 67q8 31 32 93q-43 -58 -82 -96q-77 -75 -143 -86q-42 -7 -72 13q-35 23 -46 76.5t3 106.5zM49 142q4 -35 22 -60.5t50 -27.5q25 -1 50 8q51 19 115 83q56 59 99 126q34 50 44 76q20 46 97 229 l-5 2q-5 2 -11 3.5t-7 1.5q-19 4 -44 4q-70 0 -144 -37q-73 -35 -133 -100q-71 -76 -108 -167q-31 -75 -25 -141zM507 685q15 12 28.5 2t9.5 -26q-7 -13 -21 -15q-15 0 -21 13.5t4 25.5zM562 661q15 12 28.5 2t9.5 -26q-7 -13 -21 -15q-15 0 -21 13.5t4 25.5z" />
<glyph unicode="&#xc5;" horiz-adv-x="486" d="M33 229q18 82 75 164q106 156 258 202q48 14 88 15q51 0 76 -11q22 -11 23 -19q0 -9 -6 -12l-36 -86q-48 -112 -71 -168q-4 -10 -15 -35t-17 -38.5t-14.5 -34t-15 -39t-12.5 -37.5q-5 -16 -7 -28t-2.5 -28.5t8.5 -23.5t28 -3q20 4 52 30q38 33 94 100q4 5 10.5 4t8.5 -7 t-8 -19l-29 -34q-37 -42 -72 -69q-32 -24 -59 -28q-18 -2 -33 6t-20 25q-8 24 4 67q8 31 32 93q-43 -58 -82 -96q-77 -75 -143 -86q-42 -7 -72 13q-35 23 -46 76.5t3 106.5zM49 142q4 -35 22 -60.5t50 -27.5q25 -1 50 8q51 19 115 83q56 59 99 126q34 50 44 76q20 46 97 229 l-5 2q-5 2 -11 3.5t-7 1.5q-19 4 -44 4q-70 0 -144 -37q-73 -35 -133 -100q-71 -76 -108 -167q-31 -75 -25 -141zM491 676q13 26 43 26q25 0 40.5 -21.5t5.5 -45.5q-9 -27 -39.5 -30.5t-46.5 20.5q-18 24 -3 51zM512 638q9 -12 22 -12q18 0 25 16t-5 29q-16 18 -35.5 3 t-6.5 -36z" />
<glyph unicode="&#xc6;" horiz-adv-x="880" d="M33 229q18 82 75 164q106 156 258 202q48 14 88 15q51 0 76 -11q22 -11 23 -19q0 -9 -6 -12l-36 -86q-48 -112 -71 -168q-5 -10 -13.5 -29.5t-13.5 -31t-12.5 -29.5t-12.5 -31.5t-11 -30t-11 -32.5t-7 -28t-2.5 -28.5t8.5 -23.5t28 -3q20 4 52 30q29 25 61 62 q7 61 58 112q56 59 149 84q-26 41 -31.5 91t13 95.5t58.5 68.5q29 16 67 17.5t69.5 -13.5t38.5 -44q4 -12 -2 -17q-9 -7 -16 1q-2 2 -2.5 4.5t-1.5 6t-2 5.5q-9 22 -47 31q-43 11 -80 -5q-35 -14 -55 -52.5t-18.5 -87t26.5 -87.5q5 -8 8 -8q8 2 12 2q4 1 12.5 2t9.5 1 q71 0 75 -34q3 -20 -17.5 -26.5t-41.5 -3.5q-26 5 -41 18q-9 5 -18 16l-22 -6q-55 -17 -101.5 -51t-65.5 -81q4 4 10 2.5t8 -6.5q2 -6 -8 -19l-22 -25q-2 -46 24 -76q37 -46 119 -36q68 9 134 47q77 44 127 112q5 7 13 3.5t7 -11.5q-1 -4 -8 -14l-11 -13q-65 -78 -161 -120 q-37 -16 -75 -23.5t-77.5 -2.5t-67.5 26q-37 28 -46 83q-34 -35 -57 -53q-32 -24 -59 -28q-18 -2 -33 6t-20 25q-8 24 4 67q8 31 32 93q-43 -58 -82 -96q-77 -75 -143 -86q-42 -7 -72 13q-35 23 -46 76.5t3 106.5zM49 142q4 -35 22 -60.5t50 -27.5q25 -1 50 8q51 19 115 83 q55 59 99 126q34 50 44 76q20 46 97 229l-5 2t-11 3.5t-7 1.5q-19 4 -44 4q-70 0 -144 -37q-73 -35 -133 -100q-71 -76 -108 -167q-31 -75 -25 -141zM755 321q21 -17 48 -18q21 2 21 8q-4 8 -19 10q-21 5 -50 0z" />
<glyph unicode="&#xc7;" horiz-adv-x="359" d="M27 203q15 140 114 271q51 64 107 100q32 20 61 28q42 14 73 4q11 -4 20 -11t15 -16.5t9.5 -21t4.5 -23.5q3 -33 -9.5 -68t-36.5 -60q-3 -4 -10.5 -10.5t-17 -12.5t-17 -7t-11.5 7q-2 5 0.5 9t5.5 5.5t8.5 4t7.5 3.5q42 33 54 87q9 37 -1 64q-22 56 -114 15 q-57 -25 -111 -86q-51 -59 -84 -129q-34 -70 -44 -139q-9 -76 13 -122q15 -31 46 -46q32 -16 81 -14q35 2 67.5 15t62 37t47.5 42.5t44 48.5q8 8 16 0t1 -16l-13 -13q-49 -56 -99.5 -92.5t-112.5 -42.5l-1 -1q-7 -11 -22.5 -29.5t-18.5 -22.5q56 6 56 -31q0 -22 -25 -47 q-23 -23 -46 -35q-22 -15 -49 -21q-14 -2 -21 0q-7 0 -10.5 5.5t-0.5 11.5t11 6q1 -1 4 -1q1 -1 3 -1q3 0 18 3q21 8 47 24l22 18q12 11 20 23q4 8 4 13q0 10 -10 10q-6 1 -12 0q-16 -2 -31 -6q-22 -9 -22 9q0 3 2 6t5 6.5t4 4.5l23 28q6 9 21 26q-84 2 -121 55 q-34 50 -27 135z" />
<glyph unicode="&#xc8;" horiz-adv-x="394" d="M24 88q-11 43 5 86.5t49 76.5q56 59 149 84q-26 41 -31.5 91t13 95.5t58.5 68.5q29 16 67 17.5t69.5 -13.5t38.5 -44q4 -12 -2 -17q-9 -7 -16 1q-2 2 -3.5 8t-2.5 8q-9 22 -47 31q-43 11 -80 -5q-35 -14 -55 -52.5t-18.5 -87t26.5 -87.5q5 -8 8 -8q8 2 12 2q4 1 12.5 2 t9.5 1q71 0 75 -34q3 -20 -17.5 -26.5t-41.5 -3.5q-26 5 -41 18q-9 5 -18 16l-22 -6q-89 -27 -141 -89q-18 -23 -28.5 -50.5t-8.5 -59.5t23 -57q37 -46 119 -36q68 9 134 47q77 44 127 112q5 7 13 3.5t7 -11.5q-1 -4 -8 -14l-11 -13q-65 -78 -161 -120q-37 -16 -75 -23.5 t-77.5 -2.5t-67.5 26q-30 23 -42 66zM269 321q21 -16 48 -18q21 2 21 8q-4 8 -19 10q-21 5 -50 0zM383 674q-8 7 -2 15.5t16 2.5q56 -44 59 -46q6 -6 6 -11q0 -7 -6.5 -10t-11.5 2q-15 10 -33 26q-5 3 -14 10.5t-14 10.5z" />
<glyph unicode="&#xc9;" horiz-adv-x="394" d="M24 88q-11 43 5 86.5t49 76.5q56 59 149 84q-26 41 -31.5 91t13 95.5t58.5 68.5q29 16 67 17.5t69.5 -13.5t38.5 -44q4 -12 -2 -17q-9 -7 -16 1q-2 2 -3.5 8t-2.5 8q-9 22 -47 31q-43 11 -80 -5q-35 -14 -55 -52.5t-18.5 -87t26.5 -87.5q5 -8 8 -8q8 2 12 2q4 1 12.5 2 t9.5 1q71 0 75 -34q3 -20 -17.5 -26.5t-41.5 -3.5q-26 5 -41 18q-9 5 -18 16l-22 -6q-89 -27 -141 -89q-18 -23 -28.5 -50.5t-8.5 -59.5t23 -57q37 -46 119 -36q68 9 134 47q77 44 127 112q5 7 13 3.5t7 -11.5q-1 -4 -8 -14l-11 -13q-65 -78 -161 -120q-37 -16 -75 -23.5 t-77.5 -2.5t-67.5 26q-30 23 -42 66zM269 321q21 -16 48 -18q21 2 21 8q-4 8 -19 10q-21 5 -50 0zM380 631q0 5 6 11q3 2 59 46q12 9 16 -4q4 -10 -5 -16q-1 -1 -10.5 -8t-14.5 -11q-18 -16 -33 -26q-5 -5 -11.5 -2t-6.5 10z" />
<glyph unicode="&#xca;" horiz-adv-x="394" d="M24 88q-11 43 5 86.5t49 76.5q56 59 149 84q-26 41 -31.5 91t13 95.5t58.5 68.5q29 16 67 17.5t69.5 -13.5t38.5 -44q4 -12 -2 -17q-9 -7 -16 1q-2 2 -3.5 8t-2.5 8q-9 22 -47 31q-43 11 -80 -5q-35 -14 -55 -52.5t-18.5 -87t26.5 -87.5q5 -8 8 -8q8 2 12 2q4 1 12.5 2 t9.5 1q71 0 75 -34q3 -20 -17.5 -26.5t-41.5 -3.5q-26 5 -41 18q-9 5 -18 16l-22 -6q-89 -27 -141 -89q-18 -23 -28.5 -50.5t-8.5 -59.5t23 -57q37 -46 119 -36q68 9 134 47q77 44 127 112q5 7 13 3.5t7 -11.5q-1 -4 -8 -14l-11 -13q-65 -78 -161 -120q-37 -16 -75 -23.5 t-77.5 -2.5t-67.5 26q-30 23 -42 66zM269 321q21 -16 48 -18q21 2 21 8q-4 8 -19 10q-21 5 -50 0zM364 659l1 1l2 1l10 5q12 5 34 16l11 5q11 6 17 -4q1 -1 1 -2q3 -4 8.5 -14t9.5 -15l14 -23q2 -4 1 -8t-3.5 -6.5t-6.5 -2.5t-8 3t-4 6q-3 5 -8 12.5t-9.5 14.5t-7.5 13 q-1 1 -1 2h-2q-2 -1 -4.5 -3t-3.5 -2q-13 -5 -22 -10q-10 -4 -20 -9q-8 0 -12 7t3 13z" />
<glyph unicode="&#xcb;" horiz-adv-x="394" d="M24 88q-11 43 5 86.5t49 76.5q56 59 149 84q-26 41 -31.5 91t13 95.5t58.5 68.5q29 16 67 17.5t69.5 -13.5t38.5 -44q4 -12 -2 -17q-9 -7 -16 1q-2 2 -3.5 8t-2.5 8q-9 22 -47 31q-43 11 -80 -5q-35 -14 -55 -52.5t-18.5 -87t26.5 -87.5q5 -8 8 -8q8 2 12 2q4 1 12.5 2 t9.5 1q71 0 75 -34q3 -20 -17.5 -26.5t-41.5 -3.5q-26 5 -41 18q-9 5 -18 16l-22 -6q-89 -27 -141 -89q-18 -23 -28.5 -50.5t-8.5 -59.5t23 -57q37 -46 119 -36q68 9 134 47q77 44 127 112q5 7 13 3.5t7 -11.5q-1 -4 -8 -14l-11 -13q-65 -78 -161 -120q-37 -16 -75 -23.5 t-77.5 -2.5t-67.5 26q-30 23 -42 66zM269 321q21 -16 48 -18q21 2 21 8q-4 8 -19 10q-21 5 -50 0zM373 675q15 12 28.5 2t9.5 -26q-7 -13 -21 -15q-15 0 -21 13.5t4 25.5zM428 651q15 12 28.5 2t9.5 -26q-7 -13 -21 -15q-15 0 -21 13.5t4 25.5z" />
<glyph unicode="&#xcc;" horiz-adv-x="325" d="M-40 109q0 17 7.5 35t20.5 11q9 -7 3 -16q-11 -18 -8 -39t18 -36q19 -19 47 -22.5t53 4t49 22.5q19 12 40 30l11 10q3 3 3 5l-0.5 2t-0.5 3q-1 7 -1 22q-4 90 30 215q19 78 50 139q32 66 66 92q22 20 50.5 16.5t36.5 -34.5q10 -38 -9 -111q-18 -66 -56 -143 q-60 -123 -139 -206q-4 -4 -3 -6q0 -1 0.5 -2.5t0.5 -2.5q2 -8 2 -11q11 -33 26 -38l7 -2q6 -1 8 -4q7 -9 -2 -16q-7 -6 -25 2q-27 14 -37 57q-79 -72 -150 -68q-39 2 -69 28t-29 64zM225 133q62 67 114 168q40 79 60 146q10 34 14 61q7 44 -3 63q-9 19 -38 5 q-17 -10 -32 -30q-30 -39 -59 -113q-27 -70 -43 -151q-17 -83 -13 -149zM371 670q-8 7 -2 15.5t16 2.5q56 -44 59 -46q6 -6 6 -11q0 -7 -6.5 -10t-11.5 2q-15 10 -33 26q-5 3 -14 10.5t-14 10.5z" />
<glyph unicode="&#xcd;" horiz-adv-x="325" d="M-40 109q0 17 7.5 35t20.5 11q9 -7 3 -16q-11 -18 -8 -39t18 -36q19 -19 47 -22.5t53 4t49 22.5q19 12 40 30l11 10q3 3 3 5l-0.5 2t-0.5 3q-1 7 -1 22q-4 90 30 215q19 78 50 139q32 66 66 92q22 20 50.5 16.5t36.5 -34.5q10 -38 -9 -111q-18 -66 -56 -143 q-60 -123 -139 -206q-4 -4 -3 -6q0 -1 0.5 -2.5t0.5 -2.5q2 -8 2 -11q11 -33 26 -38l7 -2q6 -1 8 -4q7 -9 -2 -16q-7 -6 -25 2q-27 14 -37 57q-79 -72 -150 -68q-39 2 -69 28t-29 64zM225 133q62 67 114 168q40 79 60 146q10 34 14 61q7 44 -3 63q-9 19 -38 5 q-17 -10 -32 -30q-30 -39 -59 -113q-27 -70 -43 -151q-17 -83 -13 -149zM379 636q0 5 6 11q3 2 59 46q12 9 16 -4q4 -10 -5 -16q-6 -4 -26.5 -21t-31.5 -24q-5 -5 -11.5 -2t-6.5 10z" />
<glyph unicode="&#xce;" horiz-adv-x="325" d="M-40 109q0 17 7.5 35t20.5 11q9 -7 3 -16q-11 -18 -8 -39t18 -36q19 -19 47 -22.5t53 4t49 22.5q19 12 40 30l11 10q3 3 3 5l-0.5 2t-0.5 3q-1 7 -1 22q-4 90 30 215q19 78 50 139q32 66 66 92q22 20 50.5 16.5t36.5 -34.5q10 -38 -9 -111q-18 -66 -56 -143 q-60 -123 -139 -206q-4 -4 -3 -6q0 -1 0.5 -2.5t0.5 -2.5q2 -8 2 -11q11 -33 26 -38l7 -2q6 -1 8 -4q7 -9 -2 -16q-7 -6 -25 2q-27 14 -37 57q-79 -72 -150 -68q-39 2 -69 28t-29 64zM225 133q62 67 114 168q40 79 60 146q10 34 14 61q7 44 -3 63q-9 19 -38 5 q-17 -10 -32 -30q-30 -39 -59 -113q-27 -70 -43 -151q-17 -83 -13 -149zM368 661l1 1l2 1l10 5q12 5 34 16l11 5q11 6 17 -4q1 -1 1 -2q3 -4 8.5 -14t9.5 -15l14 -23q3 -6 0 -11.5t-9 -5.5q-4 0 -8 3t-4 6q-3 5 -12 18.5t-13 21.5q-1 1 -1 2h-2q-2 -1 -4.5 -3t-3.5 -2 q-13 -5 -22 -10q-10 -4 -20 -9q-8 0 -12 7t3 13z" />
<glyph unicode="&#xcf;" horiz-adv-x="325" d="M-40 109q0 17 7.5 35t20.5 11q9 -7 3 -16q-11 -18 -8 -39t18 -36q19 -19 47 -22.5t53 4t49 22.5q19 12 40 30l11 10q3 3 3 5l-0.5 2t-0.5 3q-1 7 -1 22q-4 90 30 215q19 78 50 139q32 66 66 92q22 20 50.5 16.5t36.5 -34.5q10 -38 -9 -111q-18 -66 -56 -143 q-60 -123 -139 -206q-4 -4 -3 -6q0 -1 0.5 -2.5t0.5 -2.5q2 -8 2 -11q11 -33 26 -38l7 -2q6 -1 8 -4q7 -9 -2 -16q-7 -6 -25 2q-27 14 -37 57q-79 -72 -150 -68q-39 2 -69 28t-29 64zM225 133q62 67 114 168q40 79 60 146q10 34 14 61q7 44 -3 63q-9 19 -38 5 q-17 -10 -32 -30q-30 -39 -59 -113q-27 -70 -43 -151q-17 -83 -13 -149zM394 683q15 12 28.5 2t9.5 -26q-7 -13 -21 -15q-15 0 -21 13.5t4 25.5zM449 659q15 12 28.5 2t9.5 -26q-7 -13 -21 -15q-15 0 -21 13.5t4 25.5z" />
<glyph unicode="&#xd0;" horiz-adv-x="560" d="M41 27q-24 18 -12.5 43.5t35.5 29.5q13 2 37 -4l24 -7l12 -5q9 -4 10 -2q3 5 6 10.5t6.5 12t5.5 10.5q29 60 71 176h-74q-18 0 -18 11q0 7 7 11h93q45 115 77 175q19 38 40 63q17 20 26 15q4 -2 5.5 -7.5t-1.5 -9.5l-10 -9q-19 -21 -38 -58q-22 -41 -38 -80l-37 -89h138 q7 0 10 -5.5t0.5 -11t-10.5 -5.5h-146q-4 -10 -13.5 -36.5t-15.5 -40.5q-3 -8 -11 -27.5t-12.5 -30.5t-11.5 -27t-14 -29.5t-14 -26.5q87 -28 151 -22q79 5 137.5 57t91.5 125q46 101 28 190q-16 81 -82 126q-55 37 -144 35q-60 -1 -111.5 -21t-70.5 -62q-7 -21 -3 -31 q0 -1 3 -5t3 -7q-2 -11 -12 -11q-9 1 -13.5 10.5t-4.5 18.5q-1 17 7 34q19 43 67 66.5t106 28.5q59 5 110 -5q73 -18 117 -69q55 -65 55 -158t-53 -186q-45 -77 -114 -121q-102 -64 -250 -22q-24 8 -28 9q-2 1 -8 -5q-13 -15 -39 -24q-42 -15 -70 3zM47 56q1 -13 24 -16 q23 -1 51 12q8 6 11 10q-44 15 -56 16q-11 2 -21 -5t-9 -17z" />
<glyph unicode="&#xd1;" horiz-adv-x="428" d="M26 35q0 4 3.5 11t3.5 8q8 18 57 136q9 23 54.5 130.5t68.5 165.5q21 55 22 57q6 22 -8 32q-12 7 -36 7q-28 -2 -56 -13.5t-40 -31.5q-5 -13 -6 -14q-9 -9 -17 1q-4 5 0 16q13 32 57 49q16 8 36 12t40 3.5t35 -10.5t18 -28q4 -17 -5 -40l-16 -40q40 56 85 88 q21 15 45.5 25.5t52.5 8.5t40 -27q12 -24 6 -64q-5 -35 -27 -96q-15 -40 -35 -88t-42 -99t-37 -88q-15 -46 -17 -65q-3 -15 6 -22.5t23 -4.5q23 3 56 32q25 21 90 93q7 8 15.5 0.5t1.5 -15.5q-9 -10 -19.5 -21.5t-23 -25t-19.5 -21.5q-38 -36 -60 -49q-37 -22 -62 -14 q-27 8 -30 33q-2 18 5 46q5 20 13.5 43.5t13 34.5t19 43.5t15.5 35.5q63 147 79 197q36 117 -17 120q-31 1 -70 -24q-27 -17 -54 -48q-45 -47 -82 -114q-18 -28 -24 -44l-41 -97q-31 -74 -38 -92q-53 -126 -55 -132l-3 -6q-4 -8 -13 -6t-8 12zM372 688q7 17 22 24t33 -5 q9 -9 12 -21l4.5 -16t9.5 -22t13 -1q6 3 18 18q2 3 3 4l3 6q15 7 19 -10q-5 -12 -13 -20q-4 -6 -10.5 -12t-16 -9.5t-17.5 -0.5q-4 1 -7.5 3t-6 4.5t-5 6t-3.5 6.5t-3 7.5t-2.5 7.5t-2 8t-2.5 8q-1 1 -2.5 6.5t-3.5 8.5t-5 3h-5l-3 -2l-8 -9q-7 -11 -9 -17q-4 -8 -10 -8 t-8.5 4t-1.5 9.5t3 10.5t5 8z" />
<glyph unicode="&#xd2;" d="M31 252q16 94 66 190q39 74 89 119q73 68 146 61q17 0 22 -7q4 -8 -1 -13.5t-14 -2.5q-2 0 -4.5 0.5t-3.5 0.5q-26 3 -58 -10q-102 -39 -170 -187q-45 -99 -53 -180q-5 -31 -1 -64.5t14 -61t33 -43.5t54 -14q65 5 126 74q48 51 86 135q34 73 51 152q-49 -6 -81 35 q-27 40 -14 88.5t47 66.5q29 15 52 -3q43 -32 25 -153q37 19 61 56q9 12 14 28q1 3 1.5 10t2.5 11t7 5q18 2 12 -29q-14 -50 -71 -92q-12 -8 -28 -15q-3 -2 -4 -6l-9 -36q-18 -74 -55 -150q-41 -79 -90 -129q-63 -63 -129 -70q-46 -3 -76 22q-22 19 -38 53q-24 63 -9 159z M344 529q-17 -46 5 -77q25 -37 69 -26q9 52 6 91q-5 49 -26 57q-17 7 -32 -9t-22 -36zM388 689q-8 7 -2 15.5t16 2.5q56 -44 59 -46q6 -6 6 -11q0 -7 -6.5 -10t-11.5 2q-15 10 -33 26q-3 2 -7 5t-7 5.5t-7 5.5t-7 5z" />
<glyph unicode="&#xd3;" d="M31 252q16 94 66 190q39 74 89 119q73 68 146 61q17 0 22 -7q4 -8 -1 -13.5t-14 -2.5q-2 0 -4.5 0.5t-3.5 0.5q-26 3 -58 -10q-102 -39 -170 -187q-45 -99 -53 -180q-5 -31 -1 -64.5t14 -61t33 -43.5t54 -14q65 5 126 74q48 51 86 135q34 73 51 152q-49 -6 -81 35 q-27 40 -14 88.5t47 66.5q29 15 52 -3q43 -32 25 -153q37 19 61 56q9 12 14 28q1 3 1.5 10t2.5 11t7 5q18 2 12 -29q-14 -50 -71 -92q-12 -8 -28 -15q-3 -2 -4 -6l-9 -36q-18 -74 -55 -150q-41 -79 -90 -129q-63 -63 -129 -70q-46 -3 -76 22q-22 19 -38 53q-24 63 -9 159z M344 529q-17 -46 5 -77q25 -37 69 -26q9 52 6 91q-5 49 -26 57q-17 7 -32 -9t-22 -36zM372 656q0 5 6 11q3 2 59 46q12 9 16 -4q4 -10 -5 -16q-6 -4 -26.5 -21t-31.5 -24q-5 -5 -11.5 -2t-6.5 10z" />
<glyph unicode="&#xd4;" d="M31 252q16 94 66 190q39 74 89 119q73 68 146 61q17 0 22 -7q4 -8 -1 -13.5t-14 -2.5q-2 0 -4.5 0.5t-3.5 0.5q-26 3 -58 -10q-102 -39 -170 -187q-45 -99 -53 -180q-5 -31 -1 -64.5t14 -61t33 -43.5t54 -14q65 5 126 74q48 51 86 135q34 73 51 152q-49 -6 -81 35 q-27 40 -14 88.5t47 66.5q29 15 52 -3q43 -32 25 -153q37 19 61 56q9 12 14 28q1 3 1.5 10t2.5 11t7 5q18 2 12 -29q-14 -50 -71 -92q-12 -8 -28 -15q-3 -2 -4 -6l-9 -36q-18 -74 -55 -150q-41 -79 -90 -129q-63 -63 -129 -70q-46 -3 -76 22q-22 19 -38 53q-24 63 -9 159z M344 529q-17 -46 5 -77q25 -37 69 -26q9 52 6 91q-5 49 -26 57q-17 7 -32 -9t-22 -36zM363 671l1 1l2 1l10 5q12 5 34 16l11 5q11 6 17 -4q1 -1 1 -2q3 -4 8.5 -14t9.5 -15l14 -23q2 -4 1 -8t-3.5 -6.5t-6.5 -2.5t-8 3t-4 6q-3 5 -12 18.5t-13 21.5q-1 1 -1 2h-2 q-2 -1 -4.5 -3t-3.5 -2q-13 -5 -22 -10q-10 -4 -20 -9q-8 0 -12 7t3 13z" />
<glyph unicode="&#xd5;" d="M31 252q16 94 66 190q39 74 89 119q73 68 146 61q17 0 22 -7q4 -8 -1 -13.5t-14 -2.5q-2 0 -4.5 0.5t-3.5 0.5q-26 3 -58 -10q-102 -39 -170 -187q-45 -99 -53 -180q-5 -31 -1 -64.5t14 -61t33 -43.5t54 -14q65 5 126 74q48 51 86 135q34 73 51 152q-49 -6 -81 35 q-27 40 -14 88.5t47 66.5q29 15 52 -3q43 -32 25 -153q37 19 61 56q9 12 14 28q1 3 1.5 10t2.5 11t7 5q18 2 12 -29q-14 -50 -71 -92q-12 -8 -28 -15q-3 -2 -4 -6l-9 -36q-18 -74 -55 -150q-41 -79 -90 -129q-63 -63 -129 -70q-46 -3 -76 22q-22 19 -38 53q-24 63 -9 159z M344 529q-17 -46 5 -77q25 -37 69 -26q9 52 6 91q-5 49 -26 57q-17 7 -32 -9t-22 -36zM368 687q7 17 22 24t33 -5q9 -9 12 -21l4.5 -16t9.5 -22t13 -1q6 3 18 18q2 3 3 4l3 6q15 7 19 -10q-5 -12 -13 -20q-6 -10 -19 -18t-25 -4q-4 1 -7.5 3t-6 4.5t-5 6t-3.5 6.5t-3 7.5 t-2.5 7.5t-2 8t-2.5 8q-1 1 -2.5 6.5t-3.5 8.5t-5 3h-5l-3 -2l-8 -9q-7 -11 -9 -17q-4 -8 -10 -8q-5 0 -7.5 2.5t-2.5 6.5t1 8.5t3 8.5t4 6z" />
<glyph unicode="&#xd6;" d="M31 252q16 94 66 190q39 74 89 119q73 68 146 61q17 0 22 -7q4 -8 -1 -13.5t-14 -2.5q-2 0 -4.5 0.5t-3.5 0.5q-26 3 -58 -10q-102 -39 -170 -187q-45 -99 -53 -180q-5 -31 -1 -64.5t14 -61t33 -43.5t54 -14q65 5 126 74q48 51 86 135q34 73 51 152q-49 -6 -81 35 q-27 40 -14 88.5t47 66.5q29 15 52 -3q43 -32 25 -153q37 19 61 56q9 12 14 28q1 3 1.5 10t2.5 11t7 5q18 2 12 -29q-14 -50 -71 -92q-12 -8 -28 -15q-3 -2 -4 -6l-9 -36q-18 -74 -55 -150q-41 -79 -90 -129q-63 -63 -129 -70q-46 -3 -76 22q-22 19 -38 53q-24 63 -9 159z M344 529q-17 -46 5 -77q25 -37 69 -26q9 52 6 91q-5 49 -26 57q-17 7 -32 -9t-22 -36zM383 693q15 12 28.5 2t9.5 -26q-7 -13 -21 -15q-15 0 -21 13.5t4 25.5zM438 669q15 12 28.5 2t9.5 -26q-7 -13 -21 -15q-15 0 -21 13.5t4 25.5z" />
<glyph unicode="&#xd7;" horiz-adv-x="384" d="M45 226q-7 9 3 15q10 8 34.5 23.5t35.5 24.5q34 22 47 31q2 0 2 1q-2 4 -2 5l-6 27q-4 24 -8 37q-8 43 -12 62q0 11 3 15q13 7 18 -7v-1q2 -8 2 -9l6 -31q1 -3 9 -38l6 -33l4 -13l18 12q10 6 30 20q56 37 59 39q5 4 10.5 1t7.5 -8q0 -5 -1.5 -7.5t-5.5 -5.5t-5 -4 q-16 -10 -24 -16q-10 -6 -26 -17t-30 -20t-26 -17l-2 -2v-4q2 -6 6 -27.5t8 -32.5l7 -38l3 -15t4 -16l3 -13q0 -14 -15 -14q-6 7 -7 8v2l-5 20l-7 33q-2 9 -4.5 23.5t-5 26t-5.5 21.5q0 3 -1 7t-1 6q-7 -5 -33 -22t-39 -27l-28 -18l-11 -8q-4 -2 -9.5 -1t-6.5 5z" />
<glyph unicode="&#xd8;" d="M31 252q16 94 66 190q39 74 89 119q73 68 146 61q17 0 22 -7q4 -8 -1 -13.5t-14 -2.5q-2 0 -4.5 0.5t-3.5 0.5q-26 3 -58 -10q-102 -39 -170 -187q-45 -99 -53 -180q-5 -31 -1 -64.5t14 -61t33 -43.5t54 -14q65 5 126 74q48 51 86 135q34 73 51 152q-49 -6 -81 35 q-27 40 -14 88.5t47 66.5q29 15 52 -3q43 -32 25 -153q37 19 61 56q9 12 14 28q1 3 1.5 10t2.5 11t7 5q18 2 12 -29q-14 -50 -71 -92q-12 -8 -28 -15q-3 -2 -4 -6l-9 -36q-18 -74 -55 -150q-41 -79 -90 -129q-63 -63 -129 -70q-46 -3 -76 22q-22 19 -38 53q-24 63 -9 159z M95 200l5 4l12 8q9 8 21 15q25 18 58 43q71 52 81 58q10 8 30 22q29 21 43 31q9 7 15 7q9 -3 8.5 -9.5t-6.5 -12.5l-12 -9q-12 -8 -22 -16l-28 -19q-22 -17 -72 -52.5t-70 -51.5l-25 -17l-16 -12q-1 -1 -3 -2.5t-3.5 -2.5t-2.5 -1q-8 0 -12.5 5t-0.5 12zM344 529 q-17 -46 5 -77q25 -37 69 -26q9 52 6 91q-5 49 -26 57q-17 7 -32 -9t-22 -36z" />
<glyph unicode="&#xd9;" horiz-adv-x="510" d="M29 540q12 29 64 49q44 17 82 14q44 -2 54 -29q6 -15 -2 -38q-2 -8 -11 -35q-15 -40 -66 -158t-71 -187q-10 -36 -13 -65q-3 -38 16 -45q19 -6 46 5q17 6 54 32q56 45 101.5 104.5t96.5 144.5q87 140 122 214l11 25q4 10 10 11q11 2 13 -9q0 -3 -6 -19q-2 -4 -14.5 -32 t-18.5 -44q-6 -14 -42 -97t-77 -182q-23 -61 -28 -78q-20 -67 11 -76q30 -10 56 1t53 34q28 23 94 98q4 4 10 3t8 -6q3 -7 -3 -14l-18 -20q-3 -4 -11.5 -13t-12 -13t-11.5 -12.5t-12.5 -13l-12 -12t-13.5 -12t-13 -10.5t-14.5 -10.5t-14.5 -8.5q-22 -13 -48.5 -16.5 t-48.5 6.5t-27 34q-4 21 3 51q5 23 21 69q9 23 80 184q-35 -58 -49 -81t-43.5 -65.5t-56.5 -73.5q-56 -63 -102 -94q-60 -39 -101 -25q-47 17 -21 119q14 56 66 182q8 18 25 58t30 70.5t23 59.5q1 3 4.5 14t5.5 18.5t1 16t-8 11.5q-13 7 -30 7q-42 0 -83 -19 q-24 -11 -34 -25q-5 -5 -5 -12q0 -11 -11 -11q-7 0 -9.5 5t-1.5 10.5t3 10.5zM331 680q-8 7 -2 15.5t16 2.5q56 -44 59 -46q6 -6 6 -11q0 -7 -6.5 -10t-11.5 2q-15 10 -33 26q-5 3 -14 10.5t-14 10.5z" />
<glyph unicode="&#xda;" horiz-adv-x="510" d="M29 540q12 29 64 49q44 17 82 14q44 -2 54 -29q6 -15 -2 -38q-2 -8 -11 -35q-15 -40 -66 -158t-71 -187q-10 -36 -13 -65q-3 -38 16 -45q19 -6 46 5q17 6 54 32q56 45 101.5 104.5t96.5 144.5q87 140 122 214l11 25q4 10 10 11q11 2 13 -9q0 -3 -6 -19q-2 -4 -14.5 -32 t-18.5 -44q-6 -14 -42 -97t-77 -182q-23 -61 -28 -78q-20 -67 11 -76q30 -10 56 1t53 34q28 23 94 98q4 4 10 3t8 -6q3 -7 -3 -14l-18 -20q-3 -4 -11.5 -13t-12 -13t-11.5 -12.5t-12.5 -13l-12 -12t-13.5 -12t-13 -10.5t-14.5 -10.5t-14.5 -8.5q-22 -13 -48.5 -16.5 t-48.5 6.5t-27 34q-4 21 3 51q5 23 21 69q9 23 80 184q-35 -58 -49 -81t-43.5 -65.5t-56.5 -73.5q-56 -63 -102 -94q-60 -39 -101 -25q-47 17 -21 119q14 56 66 182q8 18 25 58t30 70.5t23 59.5q1 3 4.5 14t5.5 18.5t1 16t-8 11.5q-13 7 -30 7q-42 0 -83 -19 q-24 -11 -34 -25q-5 -5 -5 -12q0 -11 -11 -11q-7 0 -9.5 5t-1.5 10.5t3 10.5zM325 637q0 5 6 11q3 2 59 46q12 9 16 -4q4 -10 -5 -16q-1 -1 -10.5 -8t-14.5 -11q-18 -16 -33 -26q-5 -5 -11.5 -2t-6.5 10z" />
<glyph unicode="&#xdb;" horiz-adv-x="510" d="M29 540q12 29 64 49q44 17 82 14q44 -2 54 -29q6 -15 -2 -38q-2 -8 -11 -35q-15 -40 -66 -158t-71 -187q-10 -36 -13 -65q-3 -38 16 -45q19 -6 46 5q17 6 54 32q56 45 101.5 104.5t96.5 144.5q87 140 122 214l11 25q4 10 10 11q11 2 13 -9q0 -3 -6 -19q-2 -4 -14.5 -32 t-18.5 -44q-6 -14 -42 -97t-77 -182q-23 -61 -28 -78q-20 -67 11 -76q30 -10 56 1t53 34q28 23 94 98q4 4 10 3t8 -6q3 -7 -3 -14l-18 -20q-3 -4 -11.5 -13t-12 -13t-11.5 -12.5t-12.5 -13l-12 -12t-13.5 -12t-13 -10.5t-14.5 -10.5t-14.5 -8.5q-22 -13 -48.5 -16.5 t-48.5 6.5t-27 34q-4 21 3 51q5 23 21 69q9 23 80 184q-35 -58 -49 -81t-43.5 -65.5t-56.5 -73.5q-56 -63 -102 -94q-60 -39 -101 -25q-47 17 -21 119q14 56 66 182q8 18 25 58t30 70.5t23 59.5q1 3 4.5 14t5.5 18.5t1 16t-8 11.5q-13 7 -30 7q-42 0 -83 -19 q-24 -11 -34 -25q-5 -5 -5 -12q0 -11 -11 -11q-7 0 -9.5 5t-1.5 10.5t3 10.5zM316 661l1 1l2 1l10 5q12 5 34 16l11 5q11 6 17 -4q1 -1 1 -2q3 -4 8.5 -14t9.5 -15l14 -23q3 -6 0 -11.5t-9 -5.5q-4 0 -8 3t-4 6q-3 5 -12 18.5t-13 21.5q-1 1 -1 2h-2q-2 -1 -4.5 -3t-3.5 -2 q-13 -5 -22 -10q-10 -4 -20 -9q-8 0 -12 7t3 13z" />
<glyph unicode="&#xdc;" horiz-adv-x="510" d="M29 540q12 29 64 49q44 17 82 14q44 -2 54 -29q6 -15 -2 -38q-2 -8 -11 -35q-15 -40 -66 -158t-71 -187q-10 -36 -13 -65q-3 -38 16 -45q19 -6 46 5q17 6 54 32q56 45 101.5 104.5t96.5 144.5q87 140 122 214l11 25q4 10 10 11q11 2 13 -9q0 -3 -6 -19q-2 -4 -14.5 -32 t-18.5 -44q-6 -14 -42 -97t-77 -182q-23 -61 -28 -78q-20 -67 11 -76q30 -10 56 1t53 34q28 23 94 98q4 4 10 3t8 -6q3 -7 -3 -14l-18 -20q-3 -4 -11.5 -13t-12 -13t-11.5 -12.5t-12.5 -13l-12 -12t-13.5 -12t-13 -10.5t-14.5 -10.5t-14.5 -8.5q-22 -13 -48.5 -16.5 t-48.5 6.5t-27 34q-4 21 3 51q5 23 21 69q9 23 80 184q-35 -58 -49 -81t-43.5 -65.5t-56.5 -73.5q-56 -63 -102 -94q-60 -39 -101 -25q-47 17 -21 119q14 56 66 182q8 18 25 58t30 70.5t23 59.5q1 3 4.5 14t5.5 18.5t1 16t-8 11.5q-13 7 -30 7q-42 0 -83 -19 q-24 -11 -34 -25q-5 -5 -5 -12q0 -11 -11 -11q-7 0 -9.5 5t-1.5 10.5t3 10.5zM346 687q15 12 28.5 2t9.5 -26q-7 -13 -21 -15q-15 0 -21 13.5t4 25.5zM401 663q15 12 28.5 2t9.5 -26q-7 -13 -21 -15q-15 0 -21 13.5t4 25.5z" />
<glyph unicode="&#xdd;" horiz-adv-x="422" d="M27 -215q-9 33 26 76q20 25 63 49q11 7 90 49l48 25q6 3 8 8q38 57 102 192q43 94 78 178q-66 -109 -119 -175q-49 -61 -87 -96q-53 -50 -96 -61q-32 -9 -54 3.5t-26 39.5q-2 22 5 55q9 37 28 83q11 28 35.5 86t42.5 104t33 88q12 33 21 64q6 18 -7 26q-8 5 -28 7 q-40 1 -84 -19q-22 -9 -34 -24q-6 -6 -6 -12q0 -11 -10 -12t-12 8.5t2 16.5q6 13 23 28q33 25 82 33q46 10 75 -4q15 -9 20 -21q6 -13 0 -36q-15 -54 -54 -150q-5 -14 -11.5 -29t-12.5 -30t-11.5 -29t-12.5 -30t-12 -29q-36 -87 -45 -126q-5 -20 -5 -36q0 -20 8 -28 q16 -15 50 -4q24 8 56 33q26 20 61 57q56 60 119 156q58 89 101 169q34 61 50 100q1 1 2.5 5t2.5 6t3.5 5.5t5 3t6.5 -0.5q12 -4 3 -23q-82 -198 -119 -285q-72 -166 -132 -269l6 3q59 38 131 118q30 35 34 40q10 9 12 10q13 2 13 -11q0 -4 -7 -13q-11 -13 -22 -25 q-84 -98 -163 -146l-25 -14q-1 -1 -2 -2.5t-2 -3.5t-2 -3l-6 -10q-65 -111 -110 -158q-36 -39 -71 -44q-20 -2 -36.5 6.5t-21.5 27.5zM52 -184q-9 -24 3 -36q7 -6 16 -7.5t18 1.5t17.5 7.5t14.5 10.5q23 21 45.5 50t36 50t35.5 58q-73 -38 -93 -49q-50 -28 -69 -49 q-17 -17 -24 -36zM344 629q0 5 6 11q3 2 59 46q12 9 16 -4q4 -10 -5 -16q-1 -1 -10.5 -8t-14.5 -11q-18 -16 -33 -26q-5 -5 -11.5 -2t-6.5 10z" />
<glyph unicode="&#xde;" horiz-adv-x="333" d="M7 42q0 1 2 5l9 21q8 22 13 32q27 67 41 99q4 7 5 13l21 48q8 21 26 63q26 62 48 116q23 56 35 85q0 2 5 16t4 22q0 6 -3 11l-8 7q-8 4 -26 6q-11 0 -35 -4q-58 -16 -71 -46q0 -1 -0.5 -2.5t-1.5 -2.5q0 -5 -6 -7t-11 1q-8 8 0 24q24 42 95 57q58 9 79 -16q13 -16 10 -44 l-3.5 -10.5t-3.5 -11.5q-14 -32 -41 -100l-28 -69q38 53 80 90q52 45 97 48q39 2 63 -21.5t20 -64.5q-3 -53 -46 -116q-41 -56 -94 -90q-45 -30 -91 -39q-20 -3 -37 -2q-20 0 -34 10q-12 6 -14 20q-3 14 10 16q11 -1 12 -11q0 -5 7 -8.5t14 -3.5q13 -3 32 1q69 11 134 71 q29 29 46 55q42 58 39 112q-3 24 -19.5 37.5t-43.5 11.5q-32 -3 -73 -36q-14 -11 -38 -35l-36 -44q-45 -56 -89 -150l-6 -12l-2 -6l-2 -2q0 -1 -1 -1q0 -1 -0.5 -2.5l-0.5 -1.5q-4 -9 -17 -41t-21 -49l-13 -33l-9 -21q-9 -17 -20 -8q-6 4 -2 13z" />
<glyph unicode="&#xdf;" horiz-adv-x="339" d="M19 46q-4 6 -2 12.5t11 6.5q3 0 7 -2q71 -24 119 -8q39 11 64 44t30 78q6 35 0 69.5t-22 55.5q-13 22 -9 41q3 9 13 23q15 14 54 58q20 26 35 56q14 26 15 56t-17 55q-14 14 -24 10q-7 -2 -10.5 -6.5t-8 -15.5t-5.5 -12q-16 -51 -44 -116l-23 -55l-22 -47 q-17 -40 -40 -76q-16 -32 -34 -56q-17 -25 -30 -43l-15 -21q-6 -6 -12.5 -4t-8.5 10q0 3 1.5 6t3.5 5.5t3 4.5q10 12 14 18q33 46 48 72l18 32q17 32 20 38l21 43q8 17 22 51q14 30 24 58l26 67l6 18q19 58 55 52q26 -3 42 -34q13 -22 13 -51q0 -57 -52 -124 q-13 -17 -33 -38l-20 -21q-9 -9 -13 -18q-1 -7 2 -17q5 -9 13 -22q16 -37 18 -82.5t-13 -86.5q-22 -62 -75 -87l28 3q38 8 69 22q36 18 80 70q16 20 23 30q0 1 8 11q7 5 13 0.5t4 -11.5q0 -5 -7 -12q-21 -33 -57 -69q-28 -24 -44 -34q-20 -10 -30 -13q-44 -18 -100 -21 q-31 0 -47 2q-12 0 -22 3q-1 0 -2 1q-1 0 -2 1h-1l-1 1h-3q-16 0 -49 9l-18 6q-4 2 -7 4z" />
<glyph unicode="&#xe0;" horiz-adv-x="324" d="M25 94q1 32 23 72q20 41 62 79q81 77 168 67q12 -2 18 -4q5 -1 6.5 -4.5t0.5 -8t-2 -8t-4 -9t-3 -6.5q-26 -60 -53 -102q-17 -35 -24 -70q-4 -21 1.5 -36.5t24.5 -11.5q12 2 28 14q11 9 22 19.5t23 23.5t19 21t21.5 25.5t19.5 22.5q6 6 13.5 2t5.5 -12q0 -1 -7 -11 q-9 -10 -29.5 -34.5t-37 -41t-33.5 -30.5q-39 -33 -70 -18q-32 14 -23 70q-35 -44 -69 -62q-46 -22 -76 -2q-25 17 -25 55zM60 141q-6 -15 -9.5 -31t-0.5 -32.5t16 -22.5q13 -5 35 1q26 7 56 37q22 22 50 65q5 6 11 20l9 19q14 36 48 92q-79 10 -157 -68q-40 -38 -58 -80z M220 387q-8 7 -2 15.5t16 2.5q56 -44 59 -46q6 -6 6 -11q0 -7 -6.5 -10t-11.5 2q-15 10 -33 26q-5 3 -14 10.5t-14 10.5z" />
<glyph unicode="&#xe1;" horiz-adv-x="324" d="M25 94q1 32 23 72q20 41 62 79q81 77 168 67q12 -2 18 -4q5 -1 6.5 -4.5t0.5 -8t-2 -8t-4 -9t-3 -6.5q-26 -60 -53 -102q-17 -35 -24 -70q-4 -21 1.5 -36.5t24.5 -11.5q12 2 28 14q11 9 22 19.5t23 23.5t19 21t21.5 25.5t19.5 22.5q6 6 13.5 2t5.5 -12q0 -1 -7 -11 q-9 -10 -29.5 -34.5t-37 -41t-33.5 -30.5q-39 -33 -70 -18q-32 14 -23 70q-35 -44 -69 -62q-46 -22 -76 -2q-25 17 -25 55zM60 141q-6 -15 -9.5 -31t-0.5 -32.5t16 -22.5q13 -5 35 1q26 7 56 37q22 22 50 65q5 6 11 20l9 19q14 36 48 92q-79 10 -157 -68q-40 -38 -58 -80z M225 350q0 5 6 11q3 2 59 46q12 9 16 -4q4 -10 -5 -16q-3 -2 -7.5 -6t-9 -7t-8.5 -6q-18 -16 -33 -26q-5 -5 -11.5 -2t-6.5 10z" />
<glyph unicode="&#xe2;" horiz-adv-x="324" d="M25 94q1 32 23 72q20 41 62 79q81 77 168 67q12 -2 18 -4q5 -1 6.5 -4.5t0.5 -8t-2 -8t-4 -9t-3 -6.5q-26 -60 -53 -102q-17 -35 -24 -70q-4 -21 1.5 -36.5t24.5 -11.5q12 2 28 14q11 9 22 19.5t23 23.5t19 21t21.5 25.5t19.5 22.5q6 6 13.5 2t5.5 -12q0 -1 -7 -11 q-9 -10 -29.5 -34.5t-37 -41t-33.5 -30.5q-39 -33 -70 -18q-32 14 -23 70q-35 -44 -69 -62q-46 -22 -76 -2q-25 17 -25 55zM60 141q-6 -15 -9.5 -31t-0.5 -32.5t16 -22.5q13 -5 35 1q26 7 56 37q22 22 50 65q5 6 11 20l9 19q14 36 48 92q-79 10 -157 -68q-40 -38 -58 -80z M232 383q0 1 1.5 1.5l1.5 0.5l10 5q12 5 34 16l11 5q11 6 17 -4q1 -1 1 -2q3 -4 8.5 -14t9.5 -15l14 -23q3 -6 0 -11.5t-9 -5.5q-2 0 -4 0.5t-4 2t-3 3t-1 3.5q-3 5 -12 18.5t-13 21.5q-1 1 -1 2h-2q-2 -1 -4.5 -3t-3.5 -2q-13 -5 -22 -10q-10 -4 -20 -9q-8 0 -12 7t3 13z " />
<glyph unicode="&#xe3;" horiz-adv-x="324" d="M25 94q1 32 23 72q20 41 62 79q81 77 168 67q12 -2 18 -4q5 -1 6.5 -4.5t0.5 -8t-2 -8t-4 -9t-3 -6.5q-26 -60 -53 -102q-17 -35 -24 -70q-4 -21 1.5 -36.5t24.5 -11.5q12 2 28 14q11 9 22 19.5t23 23.5t19 21t21.5 25.5t19.5 22.5q6 6 13.5 2t5.5 -12q0 -1 -7 -11 q-9 -10 -29.5 -34.5t-37 -41t-33.5 -30.5q-39 -33 -70 -18q-32 14 -23 70q-35 -44 -69 -62q-46 -22 -76 -2q-25 17 -25 55zM60 141q-6 -15 -9.5 -31t-0.5 -32.5t16 -22.5q13 -5 35 1q26 7 56 37q22 22 50 65q5 6 11 20l9 19q14 36 48 92q-79 10 -157 -68q-40 -38 -58 -80z M245 387q7 17 22 24t33 -5q9 -9 12 -21l4.5 -16t9.5 -22t13 -1q6 3 18 18q2 3 3 4l3 6q15 7 19 -10q-5 -12 -13 -20q-6 -10 -19 -18t-25 -4q-5 1 -8.5 3.5t-6.5 6t-5 6.5t-4 8.5t-3 8.5t-2.5 9t-2.5 9q-1 1 -2 4.5t-2 6.5t-3 5t-4 2h-5l-3 -2l-8 -9q-7 -11 -9 -17 q-4 -8 -10 -8t-8.5 4t-1.5 9.5t3 10.5t5 8z" />
<glyph unicode="&#xe4;" horiz-adv-x="324" d="M25 94q1 32 23 72q20 41 62 79q81 77 168 67q12 -2 18 -4q5 -1 6.5 -4.5t0.5 -8t-2 -8t-4 -9t-3 -6.5q-26 -60 -53 -102q-17 -35 -24 -70q-4 -21 1.5 -36.5t24.5 -11.5q12 2 28 14q11 9 22 19.5t23 23.5t19 21t21.5 25.5t19.5 22.5q6 6 13.5 2t5.5 -12q0 -1 -7 -11 q-9 -10 -29.5 -34.5t-37 -41t-33.5 -30.5q-39 -33 -70 -18q-32 14 -23 70q-35 -44 -69 -62q-46 -22 -76 -2q-25 17 -25 55zM60 141q-6 -15 -9.5 -31t-0.5 -32.5t16 -22.5q13 -5 35 1q26 7 56 37q22 22 50 65q5 6 11 20l9 19q14 36 48 92q-79 10 -157 -68q-40 -38 -58 -80z M264 392q15 12 28.5 2t9.5 -26q-7 -13 -21 -15q-15 0 -21 13.5t4 25.5zM319 368q15 12 28.5 2t9.5 -26q-7 -13 -21 -15q-15 0 -21 13.5t4 25.5z" />
<glyph unicode="&#xe5;" horiz-adv-x="324" d="M25 94q1 32 23 72q20 41 62 79q81 77 168 67q12 -2 18 -4q5 -1 6.5 -4.5t0.5 -8t-2 -8t-4 -9t-3 -6.5q-26 -60 -53 -102q-17 -35 -24 -70q-4 -21 1.5 -36.5t24.5 -11.5q12 2 28 14q11 9 22 19.5t23 23.5t19 21t21.5 25.5t19.5 22.5q6 6 13.5 2t5.5 -12q0 -1 -7 -11 q-9 -10 -29.5 -34.5t-37 -41t-33.5 -30.5q-39 -33 -70 -18q-32 14 -23 70q-35 -44 -69 -62q-46 -22 -76 -2q-25 17 -25 55zM60 141q-6 -15 -9.5 -31t-0.5 -32.5t16 -22.5q13 -5 35 1q26 7 56 37q22 22 50 65q5 6 11 20l9 19q14 36 48 92q-79 10 -157 -68q-40 -38 -58 -80z M268 382q13 26 43 26q25 0 40.5 -21.5t5.5 -45.5q-9 -27 -39.5 -30.5t-46.5 20.5q-18 24 -3 51zM289 344q9 -12 22 -12q18 0 25 16t-5 29q-16 18 -35.5 3t-6.5 -36z" />
<glyph unicode="&#xe6;" horiz-adv-x="537" d="M25 94q1 32 23 72q20 41 62 79q81 77 168 67q12 -2 18 -4q5 -1 6.5 -4.5t0.5 -8t-2 -8t-4 -9t-3 -6.5q-26 -60 -53 -102q-17 -35 -24 -70q-1 -12 -1 -24t7 -19.5t20 -4.5q12 2 28 14q11 9 22 19t22.5 23t18.5 21t21.5 25t19.5 23q21 57 67 99q29 27 56 32q19 3 35.5 -3 t22.5 -23q12 -42 -50 -85q-42 -25 -96 -39l-12 -3q-1 0 -3 -0.5t-3 -0.5l-0.5 -2t-1.5 -2q-8 -26 -8 -50q2 -23 11 -33q12 -10 25 -10q22 -2 55 13q42 24 98 85l18 22q7 9 16 2q8 -7 -5 -25l-24 -27q-18 -20 -32 -33t-36.5 -30t-46.5 -25t-47 -5q-35 5 -48 34q-10 23 -5 59 q-2 -2 -2 -3q-50 -56 -71 -73q-39 -33 -70 -18q-32 14 -23 70q-35 -44 -69 -62q-46 -22 -76 -2q-25 17 -25 55zM60 141q-6 -15 -9.5 -31t-0.5 -32.5t16 -22.5q13 -5 35 1q26 7 56 37q22 22 50 65q5 6 11 20l9 19q14 36 48 92q-79 10 -157 -68q-40 -38 -58 -80zM402 180 q81 20 116 57q14 14 17 29q1 12 -8 17t-22 3q-26 -2 -57 -35q-27 -30 -46 -71z" />
<glyph unicode="&#xe7;" horiz-adv-x="237" d="M35 111q5 71 70 143q39 41 66 46q34 5 46 -29q2 -6 3.5 -13t-1.5 -12.5t-11 -4.5q-8 2 -10 16q-2 10 -8 16q-10 10 -29 -1q-12 -6 -36 -30q-31 -34 -50 -72q-17 -33 -18 -65q-2 -38 22 -48q30 -12 80 11q11 5 21 10.5t21.5 14.5t18 14t19.5 18l16.5 16.5t18.5 19.5t16 17 q4 4 10.5 2.5t8.5 -7.5t-7 -15l-38 -40q-47 -46 -82 -64q-2 -3 -3 -3q-7 -11 -22.5 -29.5t-18.5 -22.5q56 6 56 -31q0 -22 -25 -47q-23 -23 -46 -35q-22 -15 -49 -21q-14 -2 -21 0q-7 0 -10.5 5.5t-0.5 11.5t11 6q1 -1 4 -1q1 -1 3 -1q3 0 18 3q21 8 47 24l22 18 q12 11 20 23q4 8 4 13q0 10 -10 10q-6 1 -12 0q-17 -2 -31 -6q-22 -9 -22 9q0 3 2 6t5 6.5t4 4.5l23 28l9 12q-60 -20 -89 14q-19 23 -15 60z" />
<glyph unicode="&#xe8;" horiz-adv-x="213" d="M40 142q19 80 78 134q29 27 56 32q12 2 23.5 0.5t21 -8.5t13.5 -18q12 -42 -50 -85q-42 -25 -96 -39l-12 -3q-1 0 -3 -0.5t-3 -0.5l-0.5 -2t-1.5 -2q-8 -26 -8 -50q2 -23 11 -33q12 -10 25 -10q22 -2 55 13q42 24 98 85l18 22q7 9 16 2q8 -7 -5 -25l-24 -27 q-18 -20 -32 -33t-36.5 -30t-46.5 -25t-47 -5q-35 5 -48 34q-12 27 -2 74zM78 180q81 20 116 57q14 14 17 29q1 12 -8 17t-22 3q-26 -2 -57 -35q-27 -30 -46 -71zM158 375q-8 7 -2 15.5t16 2.5q56 -44 59 -46q6 -6 6 -11q0 -7 -6.5 -10t-11.5 2q-15 10 -33 26q-5 3 -14 10.5 t-14 10.5z" />
<glyph unicode="&#xe9;" horiz-adv-x="213" d="M40 142q19 80 78 134q29 27 56 32q12 2 23.5 0.5t21 -8.5t13.5 -18q12 -42 -50 -85q-42 -25 -96 -39l-12 -3q-1 0 -3 -0.5t-3 -0.5l-0.5 -2t-1.5 -2q-8 -26 -8 -50q2 -23 11 -33q12 -10 25 -10q22 -2 55 13q42 24 98 85l18 22q7 9 16 2q8 -7 -5 -25l-24 -27 q-18 -20 -32 -33t-36.5 -30t-46.5 -25t-47 -5q-35 5 -48 34q-12 27 -2 74zM78 180q81 20 116 57q14 14 17 29q1 12 -8 17t-22 3q-26 -2 -57 -35q-27 -30 -46 -71zM173 334q0 5 6 11q3 2 59 46q12 9 16 -4q4 -10 -5 -16q-1 -1 -10.5 -8t-14.5 -11q-18 -16 -33 -26 q-5 -5 -11.5 -2t-6.5 10z" />
<glyph unicode="&#xea;" horiz-adv-x="213" d="M40 142q19 80 78 134q29 27 56 32q12 2 23.5 0.5t21 -8.5t13.5 -18q12 -42 -50 -85q-42 -25 -96 -39l-12 -3q-1 0 -3 -0.5t-3 -0.5l-0.5 -2t-1.5 -2q-8 -26 -8 -50q2 -23 11 -33q12 -10 25 -10q22 -2 55 13q42 24 98 85l18 22q7 9 16 2q8 -7 -5 -25l-24 -27 q-18 -20 -32 -33t-36.5 -30t-46.5 -25t-47 -5q-35 5 -48 34q-12 27 -2 74zM78 180q81 20 116 57q14 14 17 29q1 12 -8 17t-22 3q-26 -2 -57 -35q-27 -30 -46 -71zM158 356q0 1 1.5 1.5l1.5 0.5l10 5q12 5 34 16l11 5q11 6 17 -4q1 -1 1 -2q3 -4 8.5 -14t9.5 -15l14 -23 q3 -6 0 -11.5t-9 -5.5q-3 0 -5.5 1t-4.5 3.5t-2 4.5q-3 5 -8 12.5t-9.5 14.5t-7.5 13q-1 1 -1 2h-2q-2 -1 -4.5 -3t-3.5 -2q-13 -5 -22 -10q-10 -4 -20 -9q-8 0 -12 7t3 13z" />
<glyph unicode="&#xeb;" horiz-adv-x="213" d="M40 142q19 80 78 134q29 27 56 32q12 2 23.5 0.5t21 -8.5t13.5 -18q12 -42 -50 -85q-42 -25 -96 -39l-12 -3q-1 0 -3 -0.5t-3 -0.5l-0.5 -2t-1.5 -2q-8 -26 -8 -50q2 -23 11 -33q12 -10 25 -10q22 -2 55 13q42 24 98 85l18 22q7 9 16 2q8 -7 -5 -25l-24 -27 q-18 -20 -32 -33t-36.5 -30t-46.5 -25t-47 -5q-35 5 -48 34q-12 27 -2 74zM78 180q81 20 116 57q14 14 17 29q1 12 -8 17t-22 3q-26 -2 -57 -35q-27 -30 -46 -71zM186 380q15 12 28.5 2t9.5 -26q-7 -13 -21 -15q-15 0 -21 13.5t4 25.5zM241 356q15 12 28.5 2t9.5 -26 q-7 -13 -21 -15q-15 0 -21 13.5t4 25.5z" />
<glyph unicode="&#xec;" horiz-adv-x="172" d="M51 175q16 19 47.5 55t35.5 41l22 26q5 7 12 6q14 -4 3 -24q-1 -2 -1 -3q-37 -68 -62 -130q-14 -32 -20 -58q-3 -13 -2 -24q0 -12 4 -12q4 -1 16 5q7 4 13.5 9t11.5 8.5t12.5 11l10 10t11 12t9.5 10.5q20 22 38 44q1 1 3.5 4t4 5t4.5 4.5t5.5 4t5 1t5.5 -2.5q8 -7 -2 -21 l-18 -20q-34 -40 -53 -59q-27 -27 -46 -38q-27 -16 -42 -8q-31 15 -4 91q13 36 38 90l-45 -53q-5 -6 -11.5 -4.5t-8.5 7t3 12.5zM125 397q-8 7 -2 15.5t16 2.5q56 -44 59 -46q6 -6 6 -11q0 -7 -6.5 -10t-11.5 2q-15 10 -33 26q-4 3 -9 7t-10 7.5t-9 6.5z" />
<glyph unicode="&#xed;" horiz-adv-x="172" d="M51 175q16 19 47.5 55t35.5 41l22 26q5 7 12 6q14 -4 3 -24q-1 -2 -1 -3q-37 -68 -62 -130q-14 -32 -20 -58q-3 -13 -2 -24q0 -12 4 -12q4 -1 16 5q7 4 13.5 9t11.5 8.5t12.5 11l10 10t11 12t9.5 10.5q20 22 38 44q1 1 3.5 4t4 5t4.5 4.5t5.5 4t5 1t5.5 -2.5q8 -7 -2 -21 l-18 -20q-34 -40 -53 -59q-27 -27 -46 -38q-27 -16 -42 -8q-31 15 -4 91q13 36 38 90l-45 -53q-5 -6 -11.5 -4.5t-8.5 7t3 12.5zM147 350q0 5 6 11q3 2 59 46q12 9 16 -4q4 -10 -5 -16q-6 -4 -26.5 -21t-31.5 -24q-5 -5 -11.5 -2t-6.5 10z" />
<glyph unicode="&#xee;" horiz-adv-x="172" d="M51 175q16 19 47.5 55t35.5 41l22 26q5 7 12 6q14 -4 3 -24q-1 -2 -1 -3q-37 -68 -62 -130q-14 -32 -20 -58q-3 -13 -2 -24q0 -12 4 -12q4 -1 16 5q7 4 13.5 9t11.5 8.5t12.5 11l10 10t11 12t9.5 10.5q20 22 38 44q1 1 3.5 4t4 5t4.5 4.5t5.5 4t5 1t5.5 -2.5q8 -7 -2 -21 l-18 -20q-34 -40 -53 -59q-27 -27 -46 -38q-27 -16 -42 -8q-31 15 -4 91q13 36 38 90l-45 -53q-5 -6 -11.5 -4.5t-8.5 7t3 12.5zM147 378q0 1 1.5 1.5l1.5 0.5l10 5q12 5 34 16l11 5q11 6 17 -4q1 -1 1 -2q3 -4 8.5 -14t9.5 -15l14 -23q3 -6 0 -11.5t-9 -5.5q-3 0 -5.5 1 t-4.5 3.5t-2 4.5q-3 5 -8 12.5t-9.5 14.5t-7.5 13q-1 1 -1 2h-2q-2 -1 -4.5 -3t-3.5 -2q-13 -5 -22 -10q-10 -4 -20 -9q-8 0 -12 7t3 13z" />
<glyph unicode="&#xef;" horiz-adv-x="172" d="M51 175q16 19 47.5 55t35.5 41l22 26q5 7 12 6q14 -4 3 -24q-1 -2 -1 -3q-37 -68 -62 -130q-14 -32 -20 -58q-3 -13 -2 -24q0 -12 4 -12q4 -1 16 5q7 4 13.5 9t11.5 8.5t12.5 11l10 10t11 12t9.5 10.5q20 22 38 44q1 1 3.5 4t4 5t4.5 4.5t5.5 4t5 1t5.5 -2.5q8 -7 -2 -21 l-18 -20q-34 -40 -53 -59q-27 -27 -46 -38q-27 -16 -42 -8q-31 15 -4 91q13 36 38 90l-45 -53q-5 -6 -11.5 -4.5t-8.5 7t3 12.5zM161 397q15 12 28.5 2t9.5 -26q-7 -13 -21 -15q-15 0 -21 13.5t4 25.5zM216 373q15 12 28.5 2t9.5 -26q-7 -13 -21 -15q-15 0 -21 13.5t4 25.5z " />
<glyph unicode="&#xf0;" horiz-adv-x="315" d="M39 150q19 40 58 81q76 79 158 77q6 0 16 -2q7 -1 8.5 -7.5t-2.5 -11t-11 -3.5l-2 0.5t-3 0.5q-39 4 -80 -18q-33 -16 -62 -45q-41 -43 -59 -81q-5 -9 -8 -21t-4 -24.5t3.5 -23t14.5 -13.5q14 -7 39 1q61 21 114 111q35 59 77 155l38 88h-108q-18 0 -18 11q0 7 7 11h128 q11 26 31 74q1 1 3 6.5t3.5 8.5t4.5 8t5.5 5h7.5q11 -5 6 -15l-36 -87h102q11 0 11.5 -11t-11.5 -11h-111q-42 -98 -64 -146q-4 -10 -15.5 -36t-17.5 -40.5t-14.5 -36.5t-13.5 -41q-5 -20 -5 -37q0 -16 5 -21q12 -11 43 20q19 17 53 57l36 44q6 7 14 3t6 -13q0 -1 -13 -17 q-30 -37 -55 -65q-35 -37 -53 -47q-31 -17 -49 5q-17 22 -3 77q-32 -48 -80 -72q-48 -25 -78 -9q-28 13 -29 50t13 61z" />
<glyph unicode="&#xf1;" horiz-adv-x="424" d="M53 175q1 2 2.5 4.5l1.5 2.5l30 38q25 28 45 46q26 24 47 31q7 2 14 1.5t13 -3t11 -8t7 -13.5q4 -15 0 -37q-4 -21 -14 -48q19 26 31 40.5t32.5 33t41.5 29.5q45 24 70 4q20 -16 5 -68q-4 -12 -9.5 -26t-11.5 -26.5t-11.5 -25.5t-11 -27t-9.5 -27q-7 -21 -6 -30 q2 -22 43 1q12 8 24 17.5t23 22.5t18.5 22.5t20 26t18.5 23.5q4 5 11.5 4t8.5 -8q0 -2 -5 -13q-2 -5 -13 -18q-34 -43 -48 -57q-39 -39 -67 -49q-15 -7 -33 -2.5t-22 21.5q-3 13 2 33q3 15 15 43q4 10 11.5 27.5t13.5 32t11 27.5q8 20 11 36q2 17 -2 22q-7 7 -25 2 q-9 -1 -23 -9q-42 -22 -92 -90q-36 -49 -69 -107l-3.5 -7t-4.5 -9.5t-6 -10.5t-7 -8.5t-7.5 -5t-8.5 0.5q-10 4 -5 14l8 18q34 68 49 103q0 1 7.5 18.5t9.5 23.5t5 20t3 26q2 13 -6 19q-7 4 -20 -3q-38 -25 -88 -86l-15 -20q-8 -10 -15 -7q-5 1 -7 6t1 9zM258 399 q7 17 22 24t33 -5q9 -9 12 -21l4.5 -16t9.5 -22t13 -1q6 3 18 18q2 3 3 4l3 6q15 7 19 -10q-5 -12 -13 -20q-6 -10 -19 -18t-25 -4q-5 1 -9.5 4.5t-7 6.5t-5.5 9.5t-4 9.5t-3 11t-3 10q-1 1 -2.5 6.5t-3.5 8.5t-5 3h-5l-3 -2l-8 -9q-7 -11 -9 -17q-4 -8 -10 -8t-8.5 4 t-1.5 9.5t3 10.5t5 8z" />
<glyph unicode="&#xf2;" horiz-adv-x="289" d="M43 136q17 90 102 160q1 1 5 4t7 4.5t6 1.5q11 -2 11 -12q0 -3 -1.5 -5.5t-3 -3.5l-4.5 -3t-4 -3q-59 -40 -85 -111q-14 -36 -13 -63q1 -21 13 -35.5t32 -11.5q39 5 79 49q-16 15 -22 39.5t-3.5 47t9.5 46.5q14 46 38 62q16 12 33.5 9t26.5 -20q21 -37 1 -92 q-14 -44 -48 -86q45 -17 95 38l21 22q9 13 18 5q3 -2 3.5 -5t0.5 -5.5t-2 -5.5t-3.5 -4.5t-4 -4.5t-3.5 -4l-27 -27q-12 -10 -20.5 -16t-23.5 -13t-28 -6.5t-32 4.5q-6 2 -9 4l-9 -9q-38 -40 -77 -49q-22 -5 -41.5 2.5t-29.5 26.5q-14 27 -7 70zM185 203q-8 -54 17 -79 q59 77 54 134q-2 24 -13 30q-12 5 -26 -9q-24 -26 -32 -76zM193 387q-8 7 -2 15.5t16 2.5q56 -44 59 -46q6 -6 6 -11q0 -7 -6.5 -10t-11.5 2q-15 10 -33 26q-5 3 -14 10.5t-14 10.5z" />
<glyph unicode="&#xf3;" horiz-adv-x="289" d="M43 136q17 90 102 160q1 1 5 4t7 4.5t6 1.5q11 -2 11 -12q0 -3 -1.5 -5.5t-3 -3.5l-4.5 -3t-4 -3q-59 -40 -85 -111q-14 -36 -13 -63q1 -21 13 -35.5t32 -11.5q39 5 79 49q-16 15 -22 39.5t-3.5 47t9.5 46.5q14 46 38 62q16 12 33.5 9t26.5 -20q21 -37 1 -92 q-14 -44 -48 -86q45 -17 95 38l21 22q9 13 18 5q3 -2 3.5 -5t0.5 -5.5t-2 -5.5t-3.5 -4.5t-4 -4.5t-3.5 -4l-27 -27q-12 -10 -20.5 -16t-23.5 -13t-28 -6.5t-32 4.5q-6 2 -9 4l-9 -9q-38 -40 -77 -49q-22 -5 -41.5 2.5t-29.5 26.5q-14 27 -7 70zM185 203q-8 -54 17 -79 q59 77 54 134q-2 24 -13 30q-12 5 -26 -9q-24 -26 -32 -76zM188 338q0 5 6 11q3 2 59 46q12 9 16 -4q4 -10 -5 -16q-1 -1 -10.5 -8t-14.5 -11q-18 -16 -33 -26q-5 -5 -11.5 -2t-6.5 10z" />
<glyph unicode="&#xf4;" horiz-adv-x="289" d="M43 136q17 90 102 160q1 1 5 4t7 4.5t6 1.5q11 -2 11 -12q0 -3 -1.5 -5.5t-3 -3.5l-4.5 -3t-4 -3q-59 -40 -85 -111q-14 -36 -13 -63q1 -21 13 -35.5t32 -11.5q39 5 79 49q-16 15 -22 39.5t-3.5 47t9.5 46.5q14 46 38 62q16 12 33.5 9t26.5 -20q21 -37 1 -92 q-14 -44 -48 -86q45 -17 95 38l21 22q9 13 18 5q3 -2 3.5 -5t0.5 -5.5t-2 -5.5t-3.5 -4.5t-4 -4.5t-3.5 -4l-27 -27q-12 -10 -20.5 -16t-23.5 -13t-28 -6.5t-32 4.5q-6 2 -9 4l-9 -9q-38 -40 -77 -49q-22 -5 -41.5 2.5t-29.5 26.5q-14 27 -7 70zM185 203q-8 -54 17 -79 q59 77 54 134q-2 24 -13 30q-12 5 -26 -9q-24 -26 -32 -76zM185 378q0 1 1.5 1.5l1.5 0.5l10 5q12 5 34 16l11 5q11 6 17 -4q1 -1 1 -2q3 -4 8.5 -14t9.5 -15l14 -23q3 -6 0 -11.5t-9 -5.5q-2 0 -4 0.5t-4 2t-3 3t-1 3.5q-3 5 -8 12.5t-9.5 14.5t-7.5 13q-1 1 -1 2h-2 q-2 -1 -4.5 -3t-3.5 -2q-13 -5 -22 -10q-10 -4 -20 -9q-8 0 -12 7t3 13z" />
<glyph unicode="&#xf5;" horiz-adv-x="289" d="M43 136q17 90 102 160q1 1 5 4t7 4.5t6 1.5q11 -2 11 -12q0 -3 -1.5 -5.5t-3 -3.5l-4.5 -3t-4 -3q-59 -40 -85 -111q-14 -36 -13 -63q1 -21 13 -35.5t32 -11.5q39 5 79 49q-16 15 -22 39.5t-3.5 47t9.5 46.5q14 46 38 62q16 12 33.5 9t26.5 -20q21 -37 1 -92 q-14 -44 -48 -86q45 -17 95 38l21 22q9 13 18 5q3 -2 3.5 -5t0.5 -5.5t-2 -5.5t-3.5 -4.5t-4 -4.5t-3.5 -4l-27 -27q-12 -10 -20.5 -16t-23.5 -13t-28 -6.5t-32 4.5q-6 2 -9 4l-9 -9q-38 -40 -77 -49q-22 -5 -41.5 2.5t-29.5 26.5q-14 27 -7 70zM185 203q-8 -54 17 -79 q59 77 54 134q-2 24 -13 30q-12 5 -26 -9q-24 -26 -32 -76zM194 389q7 17 22 24t33 -5q9 -9 12 -21q1 -2 3 -9.5t3.5 -13t4.5 -11.5t6.5 -6.5t9.5 1.5q6 3 18 18q2 3 3 4l3 6q15 7 19 -10q-5 -12 -13 -20q-6 -10 -19 -18t-25 -4q-5 1 -9.5 4.5t-7 6.5t-5.5 9.5t-4 9.5t-3 11 t-3 10q-1 1 -1.5 3l-1 4t-1.5 4t-2 3.5t-2.5 2.5t-2.5 1h-5l-3 -2l-8 -9q-7 -11 -9 -17q-4 -8 -10 -8t-8.5 4t-1.5 9.5t3 10.5t5 8z" />
<glyph unicode="&#xf6;" horiz-adv-x="289" d="M43 136q17 90 102 160q1 1 5 4t7 4.5t6 1.5q11 -2 11 -12q0 -3 -1.5 -5.5t-3 -3.5l-4.5 -3t-4 -3q-59 -40 -85 -111q-14 -36 -13 -63q1 -21 13 -35.5t32 -11.5q39 5 79 49q-16 15 -22 39.5t-3.5 47t9.5 46.5q14 46 38 62q16 12 33.5 9t26.5 -20q21 -37 1 -92 q-14 -44 -48 -86q45 -17 95 38l21 22q9 13 18 5q3 -2 3.5 -5t0.5 -5.5t-2 -5.5t-3.5 -4.5t-4 -4.5t-3.5 -4l-27 -27q-12 -10 -20.5 -16t-23.5 -13t-28 -6.5t-32 4.5q-6 2 -9 4l-9 -9q-38 -40 -77 -49q-22 -5 -41.5 2.5t-29.5 26.5q-14 27 -7 70zM185 203q-8 -54 17 -79 q59 77 54 134q-2 24 -13 30q-12 5 -26 -9q-24 -26 -32 -76zM208 386q15 12 28.5 2t9.5 -26q-7 -13 -21 -15q-15 0 -21 13.5t4 25.5zM263 362q15 12 28.5 2t9.5 -26q-7 -13 -21 -15q-15 0 -21 13.5t4 25.5z" />
<glyph unicode="&#xf7;" horiz-adv-x="363" d="M35 271q0 7 7 11h255q7 0 10 -5.5t0.5 -11t-10.5 -5.5h-244q-18 0 -18 11zM150 219q14 12 29 2t9 -26q-6 -15 -21 -15t-21 13.5t4 25.5zM157 357q15 12 28.5 2t9.5 -26q-7 -13 -21 -15q-15 0 -21 13.5t4 25.5z" />
<glyph unicode="&#xf8;" horiz-adv-x="289" d="M43 136q17 90 102 160q1 1 5 4t7 4.5t6 1.5q11 -2 11 -12q0 -3 -1.5 -5.5t-3 -3.5l-4.5 -3t-4 -3q-59 -40 -85 -111q-12 -27 -13 -51l10 7q9 8 21 15q25 18 58 43l9 6q1 24 10 52q14 46 38 62q16 12 33.5 9t26.5 -20q21 -37 1 -92q-14 -44 -48 -86q45 -17 95 38l21 22 q9 13 18 5q3 -2 3.5 -5t0.5 -5.5t-2 -5.5t-3.5 -4.5t-4 -4.5t-3.5 -4l-27 -27q-12 -10 -20.5 -16t-23.5 -13t-28 -6.5t-32 4.5q-6 2 -9 4l-9 -9q-38 -40 -77 -49q-22 -5 -41.5 2.5t-29.5 26.5q-14 27 -7 70zM64 95q2 -12 7 -20.5t15 -13.5t22 -3q39 5 79 49q-21 18 -26 55 l-12 -10q-20 -14 -30 -22l-25 -17l-16 -12l-9 -6h-5zM183 176q0 -34 19 -52q45 59 53 104q-21 -14 -28 -20l-28 -19zM185 206q12 8 41 29l18 13l5 4l7 3v3q-2 24 -13 30q-12 5 -26 -9q-24 -24 -32 -73z" />
<glyph unicode="&#xf9;" horiz-adv-x="348" d="M54 160q-12 8 4 24l20 25q42 54 61 81l2 3l3 4.5t3 3.5t4 2.5t4.5 -0.5t5.5 -3q6 -6 0 -16q-27 -66 -34 -82q-23 -49 -33 -80q-8 -21 -10 -35q-4 -14 -1 -24q5 -11 14.5 -11t24 9t24 16.5t13.5 11.5q39 37 87 105q40 58 65 103q5 9 12 9q9 0 11 -9q0 -1 -3 -13 q-7 -15 -19 -45q-6 -16 -21 -51.5t-22 -54.5q-17 -45 -19 -64q-3 -12 2 -16q4 -2 14 1l11 5q19 11 58 47q36 36 64 71q11 11 19 -2q3 -7 -3 -15q-40 -47 -73 -78q-29 -29 -53 -42q-42 -22 -57 3q-9 15 0 50q7 29 31 85q-53 -75 -99 -115q-34 -28 -62 -32q-16 -2 -27.5 6 t-14.5 23q-3 21 9 58q6 19 34 87l-24 -31q-1 -1 -4 -5t-4 -5t-5 -4t-6 -2t-6 2zM194 375q-8 7 -2 15.5t16 2.5q56 -44 59 -46q6 -6 6 -11q0 -7 -6.5 -10t-11.5 2q-15 10 -33 26q-5 3 -14 10.5t-14 10.5z" />
<glyph unicode="&#xfa;" horiz-adv-x="348" d="M54 160q-12 8 4 24l20 25q42 54 61 81l2 3l3 4.5t3 3.5t4 2.5t4.5 -0.5t5.5 -3q6 -6 0 -16q-27 -66 -34 -82q-23 -49 -33 -80q-8 -21 -10 -35q-4 -14 -1 -24q5 -11 14.5 -11t24 9t24 16.5t13.5 11.5q39 37 87 105q40 58 65 103q5 9 12 9q9 0 11 -9q0 -1 -3 -13 q-7 -15 -19 -45q-6 -16 -21 -51.5t-22 -54.5q-17 -45 -19 -64q-3 -12 2 -16q4 -2 14 1l11 5q19 11 58 47q36 36 64 71q11 11 19 -2q3 -7 -3 -15q-40 -47 -73 -78q-29 -29 -53 -42q-42 -22 -57 3q-9 15 0 50q7 29 31 85q-53 -75 -99 -115q-34 -28 -62 -32q-16 -2 -27.5 6 t-14.5 23q-3 21 9 58q6 19 34 87l-24 -31q-1 -1 -4 -5t-4 -5t-5 -4t-6 -2t-6 2zM196 338q0 5 6 11q3 2 59 46q12 9 16 -4q4 -10 -5 -16q-1 -1 -10.5 -8t-14.5 -11q-18 -16 -33 -26q-5 -5 -11.5 -2t-6.5 10z" />
<glyph unicode="&#xfb;" horiz-adv-x="348" d="M54 160q-12 8 4 24l20 25q42 54 61 81l2 3l3 4.5t3 3.5t4 2.5t4.5 -0.5t5.5 -3q6 -6 0 -16q-27 -66 -34 -82q-23 -49 -33 -80q-8 -21 -10 -35q-4 -14 -1 -24q5 -11 14.5 -11t24 9t24 16.5t13.5 11.5q39 37 87 105q40 58 65 103q5 9 12 9q9 0 11 -9q0 -1 -3 -13 q-7 -15 -19 -45q-6 -16 -21 -51.5t-22 -54.5q-17 -45 -19 -64q-3 -12 2 -16q4 -2 14 1l11 5q19 11 58 47q36 36 64 71q11 11 19 -2q3 -7 -3 -15q-40 -47 -73 -78q-29 -29 -53 -42q-42 -22 -57 3q-9 15 0 50q7 29 31 85q-53 -75 -99 -115q-34 -28 -62 -32q-16 -2 -27.5 6 t-14.5 23q-3 21 9 58q6 19 34 87l-24 -31q-1 -1 -4 -5t-4 -5t-5 -4t-6 -2t-6 2zM185 384q0 1 1.5 1.5l1.5 0.5l10 5q12 5 34 16l11 5q11 6 17 -4q1 -1 1 -2q2 -4 5.5 -9t6.5 -10.5t6 -9.5l14 -23q3 -6 0 -11.5t-9 -5.5q-2 0 -4 0.5t-4 2t-3 3t-1 3.5q-3 5 -12 18.5t-13 21.5 q-1 1 -1 2h-2q-2 -1 -4.5 -3t-3.5 -2q-13 -5 -22 -10q-10 -4 -20 -9q-8 0 -12 7t3 13z" />
<glyph unicode="&#xfc;" horiz-adv-x="348" d="M54 160q-12 8 4 24l20 25q42 54 61 81l2 3l3 4.5t3 3.5t4 2.5t4.5 -0.5t5.5 -3q6 -6 0 -16q-27 -66 -34 -82q-23 -49 -33 -80q-8 -21 -10 -35q-4 -14 -1 -24q5 -11 14.5 -11t24 9t24 16.5t13.5 11.5q39 37 87 105q40 58 65 103q5 9 12 9q9 0 11 -9q0 -1 -3 -13 q-7 -15 -19 -45q-6 -16 -21 -51.5t-22 -54.5q-17 -45 -19 -64q-3 -12 2 -16q4 -2 14 1l11 5q19 11 58 47q36 36 64 71q11 11 19 -2q3 -7 -3 -15q-40 -47 -73 -78q-29 -29 -53 -42q-42 -22 -57 3q-9 15 0 50q7 29 31 85q-53 -75 -99 -115q-34 -28 -62 -32q-16 -2 -27.5 6 t-14.5 23q-3 21 9 58q6 19 34 87l-24 -31q-1 -1 -4 -5t-4 -5t-5 -4t-6 -2t-6 2zM206 390q15 12 28.5 2t9.5 -26q-7 -13 -21 -15q-15 0 -21 13.5t4 25.5zM261 366q15 12 28.5 2t9.5 -26q-7 -13 -21 -15q-15 0 -21 13.5t4 25.5z" />
<glyph unicode="&#xfd;" horiz-adv-x="381" d="M50 167q-1 3 0 5.5t2 4.5t3.5 4.5l3.5 3.5l16 19q42 49 54 61l3 3q8 8 12.5 12t13 10.5t15.5 8.5t16 1.5t18 -5.5q14 -11 14 -31q2 -26 -21 -90q-24 -60 -29 -86q-2 -20 1 -26q4 -5 19 -2q17 5 42 26q40 36 98 113q30 42 44 64q6 10 10 15q6 10 12 10q6 1 9 -5t1 -12 l-85 -211q63 58 112 117q4 4 9.5 4t8.5 -5q5 -7 -7 -21l-37 -42q-47 -49 -82 -79l-20 -18q-3 -3 -11 -21q-1 -4 -8 -20q-14 -43 -51 -122q-20 -42 -41 -64q-28 -32 -60 -33q-21 -1 -34 13t-13 35q1 44 53 100q25 27 74 65l41 33l20 18q7 5 11 14q40 100 61 150 q-57 -78 -101 -115q-31 -27 -58 -32q-8 -2 -16 0t-13 6.5t-8.5 11.5t-3.5 15q-1 13 5 39l16 48q23 60 28 87q4 17 -0.5 27.5t-19.5 4.5q-4 -2 -8 -5t-8.5 -7t-7.5 -6q-3 -3 -12.5 -13t-14.5 -16q-51 -60 -55 -65q-4 -6 -12 -5.5t-9 8.5zM114 -213q9 -16 34 -5q13 4 25 16 q21 20 40 60q9 18 17.5 37.5t19.5 47.5t16 39q-8 -7 -31 -24.5t-38.5 -31t-29.5 -27.5q-34 -34 -48 -66q-14 -30 -5 -46zM252 318q0 5 6 11q3 2 59 46q12 9 16 -4q4 -10 -5 -16q-1 -1 -10.5 -8t-14.5 -11q-18 -16 -33 -26q-5 -5 -11.5 -2t-6.5 10z" />
<glyph unicode="&#xfe;" horiz-adv-x="328" d="M-63 -216q0 2 2 6q0 3 2 5q19 44 45 104q72 169 78 185q10 22 28 68l27 67l-4 -4l-42 -48q-8 -8 -11 -8q-7 -1 -11.5 5.5t1.5 12.5q5 6 35 41l29 32q3 4 8 9.5t10 10.5t8 10l2 2v1q1 0 1 2q9 23 43 100q16 38 25 56l21 47l19 38q28 50 47 65q21 17 44 9t23 -33 q2 -16 -4 -29l-7 -17q-16 -33 -63 -99q-20 -26 -40 -49l-11 -13q-4 -4 -7.5 -8t-8 -9.5t-7.5 -8.5q-44 -51 -49 -57q-1 0 -1 -1l-5 -5l-1 -2q-4 -9 -13.5 -33.5t-15.5 -37.5l15 17q49 58 94 85q24 14 40 15q22 4 31 -11t9 -41q-1 -29 -13 -60q-18 -60 -58 -109 q-22 -27 -42 -41q36 7 62 22q43 29 88 81q14 14 20 22l2 1q7 5 13.5 -0.5t3.5 -11.5l-3 -6q-9 -9 -30 -31.5t-32 -33t-33 -27.5t-41 -25t-47 -13.5t-59 -3.5q-18 0 -40 5q-2 0 -4 0.5t-3 0.5q-6 2 -9.5 6.5t-0.5 10.5q5 7 12 6q3 0 7 -2q3 0 9 -2h13q10 -1 22 2q38 7 79 59 q44 64 58 126q4 20 4 31q0 23 -10 23q-8 2 -24 -5q-16 -8 -32 -20l-38 -33q-43 -43 -76 -94l-17 -28l-8 -15q-3 -6 -5 -8v-1q-1 -1 -1 -2t-0.5 -2t-0.5 -2q-3 -7 -8.5 -20.5t-7.5 -19.5q-1 -1 -1 -3q-2 -4 -4 -5q-11 -27 -40 -93t-43 -103l-23 -52l-3 -6q-6 -10 -16 -8 q-6 3 -6 11zM191 336q8 10 24.5 28.5t26.5 30t23.5 29t23.5 32.5q38 51 52 87q5 9 3.5 23.5t-12.5 14.5q-18 0 -39 -31q-1 -2 -25 -44q-19 -40 -47 -101z" />
<glyph unicode="&#xff;" horiz-adv-x="381" d="M50 167q-1 3 0 5.5t2 4.5t3.5 4.5l3.5 3.5l16 19q42 49 54 61l3 3q8 8 12.5 12t13 10.5t15.5 8.5t16 1.5t18 -5.5q14 -11 14 -31q2 -26 -21 -90q-24 -60 -29 -86q-2 -20 1 -26q4 -5 19 -2q17 5 42 26q40 36 98 113q30 42 44 64q6 10 10 15q6 10 12 10q6 1 9 -5t1 -12 l-85 -211q63 58 112 117q4 4 9.5 4t8.5 -5q5 -7 -7 -21l-37 -42q-47 -49 -82 -79l-20 -18q-3 -3 -11 -21q-1 -4 -8 -20q-14 -43 -51 -122q-20 -42 -41 -64q-28 -32 -60 -33q-21 -1 -34 13t-13 35q1 44 53 100q25 27 74 65l41 33l20 18q7 5 11 14q40 100 61 150 q-57 -78 -101 -115q-31 -27 -58 -32q-8 -2 -16 0t-13 6.5t-8.5 11.5t-3.5 15q-1 13 5 39l16 48q23 60 28 87q4 17 -0.5 27.5t-19.5 4.5q-4 -2 -8 -5t-8.5 -7t-7.5 -6q-3 -3 -12.5 -13t-14.5 -16q-51 -60 -55 -65q-4 -6 -12 -5.5t-9 8.5zM114 -213q9 -16 34 -5q13 4 25 16 q21 20 40 60q9 18 17.5 37.5t19.5 47.5t16 39q-8 -7 -31 -24.5t-38.5 -31t-29.5 -27.5q-34 -34 -48 -66q-14 -30 -5 -46zM264 364q15 12 28.5 2t9.5 -26q-7 -13 -21 -15q-15 0 -21 13.5t4 25.5zM319 340q15 12 28.5 2t9.5 -26q-7 -13 -21 -15q-15 0 -21 13.5t4 25.5z" />
<glyph unicode="&#x152;" horiz-adv-x="772" d="M31 252q16 94 66 190q39 74 89 119q73 68 146 61q17 0 22 -7q4 -8 -1 -13.5t-14 -2.5q-2 0 -4.5 0.5t-3.5 0.5q-26 3 -58 -10q-102 -39 -170 -187q-45 -99 -53 -180q-5 -31 -1 -64.5t14 -61t33 -43.5t54 -14q65 5 126 74q48 51 86 135q34 73 51 152q-49 -6 -81 35 q-27 40 -14 88.5t47 66.5q29 15 52 -3q43 -32 25 -153q37 19 61 56q9 12 14 28q1 3 1.5 10t2.5 11t7 5q18 2 12 -29q-14 -50 -71 -92q-12 -8 -28 -15q-3 -2 -4 -6l-9 -36q-18 -74 -55 -150q-41 -79 -90 -129q-63 -63 -129 -70q-46 -3 -76 22q-22 19 -38 53q-24 63 -9 159z M344 529q-17 -46 5 -77q25 -37 69 -26q9 52 6 91q-5 49 -26 57q-17 7 -32 -9t-22 -36zM402 88q-11 43 5 86.5t49 76.5q56 59 149 84q-26 41 -31.5 91t13 95.5t58.5 68.5q29 16 67 17.5t69.5 -13.5t38.5 -44q4 -12 -2 -17q-9 -7 -16 1q-2 2 -2.5 4.5t-1.5 6t-2 5.5 q-9 22 -47 31q-43 11 -80 -5q-35 -14 -55 -52.5t-18.5 -87t26.5 -87.5q5 -8 8 -8q8 2 12 2q4 1 12.5 2t9.5 1q71 0 75 -34q3 -20 -17.5 -26.5t-41.5 -3.5q-26 5 -41 18q-9 5 -18 16l-22 -6q-89 -27 -141 -89q-18 -23 -28.5 -50.5t-8.5 -59.5t23 -57q37 -46 119 -36 q68 9 134 47q77 44 127 112q5 7 13 3.5t7 -11.5q-1 -4 -8 -14l-11 -13q-65 -78 -161 -120q-37 -16 -75 -23.5t-77.5 -2.5t-67.5 26q-30 23 -42 66zM647 321q21 -16 48 -18q21 2 21 8q-4 8 -19 10q-21 5 -50 0z" />
<glyph unicode="&#x153;" horiz-adv-x="502" d="M43 136q17 90 102 160q1 1 5 4t7 4.5t6 1.5q11 -2 11 -12q-2 -7 -13 -15q-59 -40 -85 -111q-14 -36 -13 -63q1 -21 13 -35.5t32 -11.5q39 5 79 49q-13 11 -19.5 28t-6.5 35t2.5 35.5t7.5 34.5q14 46 38 62q16 12 33.5 9t26.5 -20q21 -37 1 -92q-14 -44 -48 -86 q45 -17 95 38l21 22q0 1 1 1q21 58 68 102q29 27 56 32q19 3 35.5 -3t22.5 -23q12 -42 -50 -85q-42 -25 -96 -39l-12 -3q-1 0 -3 -0.5t-3 -0.5l-0.5 -2t-1.5 -2q-8 -26 -8 -50q2 -23 11 -33q12 -10 25 -10q22 -2 55 13q42 24 98 85l18 22q7 9 16 2q8 -7 -5 -25l-24 -27 q-18 -20 -32 -33t-36.5 -30t-46.5 -25t-47 -5q-35 5 -48 34q-10 25 -5 60q-55 -55 -110 -37q-6 2 -9 4l-9 -9q-38 -40 -77 -49q-22 -5 -41.5 2.5t-29.5 26.5q-14 27 -7 70zM185 203q-8 -54 17 -79q59 77 54 134q-2 24 -13 30q-12 5 -26 -9q-24 -26 -32 -76zM367 180 q81 20 116 57q14 14 17 29q1 12 -8 17t-22 3q-26 -2 -57 -35q-27 -30 -46 -71z" />
<glyph unicode="&#x178;" horiz-adv-x="422" d="M27 -215q-9 33 26 76q20 25 63 49q11 7 90 49l48 25q6 3 8 8q38 57 102 192q43 94 78 178q-66 -109 -119 -175q-49 -61 -87 -96q-53 -50 -96 -61q-32 -9 -54 3.5t-26 39.5q-2 22 5 55q9 37 28 83q11 28 35.5 86t42.5 104t33 88q12 33 21 64q6 18 -7 26q-8 5 -28 7 q-40 1 -84 -19q-22 -9 -34 -24q-6 -6 -6 -12q0 -11 -10 -12t-12 8.5t2 16.5q6 13 23 28q33 25 82 33q46 10 75 -4q15 -9 20 -21q6 -13 0 -36q-15 -54 -54 -150q-5 -14 -11.5 -29t-12.5 -30t-11.5 -29t-12.5 -30t-12 -29q-36 -87 -45 -126q-5 -20 -5 -36q0 -20 8 -28 q16 -15 50 -4q24 8 56 33q26 20 61 57q56 60 119 156q58 89 101 169q34 61 50 100q1 1 2.5 5t2.5 6t3.5 5.5t5 3t6.5 -0.5q12 -4 3 -23q-82 -198 -119 -285q-72 -166 -132 -269l6 3q59 38 131 118q30 35 34 40q10 9 12 10q13 2 13 -11q0 -4 -7 -13q-11 -13 -22 -25 q-84 -98 -163 -146l-25 -14q-1 -1 -2 -2.5t-2 -3.5t-2 -3l-6 -10q-65 -111 -110 -158q-36 -39 -71 -44q-20 -2 -36.5 6.5t-21.5 27.5zM52 -184q-9 -24 3 -36q7 -6 16 -7.5t18 1.5t17.5 7.5t14.5 10.5q23 21 45.5 50t36 50t35.5 58q-73 -38 -93 -49q-50 -28 -69 -49 q-17 -17 -24 -36zM342 690q15 12 28.5 2t9.5 -26q-7 -13 -21 -15q-15 0 -21 13.5t4 25.5zM397 666q15 12 28.5 2t9.5 -26q-7 -13 -21 -15q-15 0 -21 13.5t4 25.5z" />
<glyph unicode="&#x2c6;" horiz-adv-x="204" d="M55 689l1 1l2 1l10 5q12 5 34 16l11 5q11 6 17 -4q1 -1 1 -2q3 -4 8.5 -14t9.5 -15l14 -23q3 -6 0 -11.5t-9 -5.5q-12 0 -12 9q-3 5 -12 18.5t-13 21.5q-1 1 -1 2h-2q-2 -1 -4.5 -3t-3.5 -2q-13 -5 -22 -10q-10 -4 -20 -9q-8 0 -12 7t3 13z" />
<glyph unicode="&#x2dc;" horiz-adv-x="227" d="M54 696q7 17 22 24t33 -5q9 -9 12 -21q1 -2 3 -9.5t3.5 -13t4.5 -11.5t6.5 -6.5t9.5 1.5q6 3 18 18q2 3 3 4l3 6q15 7 19 -10q-5 -12 -13 -20q-6 -10 -19 -18t-25 -4q-5 1 -9.5 4.5t-7 6.5t-5.5 9.5t-4 9.5t-3 11t-3 10q-1 1 -2.5 6.5t-3.5 8.5t-5 3h-5l-3 -2l-8 -9 q-7 -11 -9 -17q-4 -8 -10 -8t-8.5 4t-1.5 9.5t3 10.5t5 8z" />
<glyph unicode="&#x2000;" horiz-adv-x="361" />
<glyph unicode="&#x2001;" horiz-adv-x="723" />
<glyph unicode="&#x2002;" horiz-adv-x="361" />
<glyph unicode="&#x2003;" horiz-adv-x="723" />
<glyph unicode="&#x2004;" horiz-adv-x="241" />
<glyph unicode="&#x2005;" horiz-adv-x="180" />
<glyph unicode="&#x2006;" horiz-adv-x="120" />
<glyph unicode="&#x2007;" horiz-adv-x="120" />
<glyph unicode="&#x2008;" horiz-adv-x="90" />
<glyph unicode="&#x2009;" horiz-adv-x="144" />
<glyph unicode="&#x200a;" horiz-adv-x="40" />
<glyph unicode="&#x2010;" horiz-adv-x="436" d="M121 262q0 8 7 11h217q7 0 10 -5.5t0.5 -11t-10.5 -5.5h-206q-18 0 -18 11z" />
<glyph unicode="&#x2011;" horiz-adv-x="436" d="M121 262q0 8 7 11h217q7 0 10 -5.5t0.5 -11t-10.5 -5.5h-206q-18 0 -18 11z" />
<glyph unicode="&#x2012;" horiz-adv-x="436" d="M121 262q0 8 7 11h217q7 0 10 -5.5t0.5 -11t-10.5 -5.5h-206q-18 0 -18 11z" />
<glyph unicode="&#x2013;" horiz-adv-x="363" d="M35 271q0 7 7 11h255q7 0 10 -5.5t0.5 -11t-10.5 -5.5h-244q-18 0 -18 11z" />
<glyph unicode="&#x2014;" horiz-adv-x="408" d="M35 271q0 7 7 11h315q7 0 10 -5.5t0.5 -11t-10.5 -5.5h-304q-18 0 -18 11z" />
<glyph unicode="&#x2018;" horiz-adv-x="230" d="M77 454v6q1 14 7.5 29t13 25t18 25.5t15.5 21.5q7 11 18.5 5t5.5 -18l-17 -25q-6 -7 -16 -23l-2 -3q-1 -3 -3 -6.5l-4 -7t-3 -6.5t0 -3q10 -8 11 -12q5 -12 -3 -22t-20 -8q-19 2 -21 22z" />
<glyph unicode="&#x2019;" horiz-adv-x="230" d="M79 451l17 25q6 7 16 23l2 3q1 3 3 6.5l4 7t3 6.5t0 3q-10 8 -11 12q-5 12 3 22t20 8q18 -2 21 -24v-4q-1 -14 -7.5 -29t-13 -25t-18 -25.5t-15.5 -21.5q-7 -11 -18.5 -5t-5.5 18z" />
<glyph unicode="&#x201a;" horiz-adv-x="230" d="M77 -24l17 25q6 7 16 23l2 3q1 3 3 6.5l4 7t3 6.5t0 3q-10 8 -11 12q-5 12 3 22t20 8q18 -2 21 -24v-4q-1 -14 -7.5 -29t-13 -25t-18 -25.5t-15.5 -21.5q-7 -11 -18.5 -5t-5.5 18z" />
<glyph unicode="&#x201c;" horiz-adv-x="286" d="M58 461v6q1 14 7.5 29t13 25t18 25.5t15.5 21.5q7 11 18.5 5t5.5 -18l-17 -25q-6 -7 -16 -23l-1 -3q-2 -3 -4 -6.5l-4 -7t-3 -6.5t0 -3q10 -8 11 -12q5 -12 -3 -22t-20 -8q-19 2 -21 22zM155 463v4q1 14 7.5 29t13 25t18 25.5t15.5 21.5q7 11 18.5 5t5.5 -18l-17 -25 q-6 -7 -16 -23l-2 -3q-1 -3 -3 -6.5l-4 -7t-3 -6.5t0 -3q10 -8 11 -12q5 -12 -3 -22t-20 -8q-18 2 -21 24z" />
<glyph unicode="&#x201d;" horiz-adv-x="286" d="M60 458l17 25q6 7 16 23l1 3q2 3 4 6.5l4 7t3 6.5t0 3q-10 8 -11 12q-5 12 3 22t20 8q18 -2 21 -23v-5q-1 -14 -7.5 -29t-13 -25t-18 -25.5t-15.5 -21.5q-7 -11 -18.5 -5t-5.5 18zM157 458l17 25q6 7 16 23l2 3q1 3 3 6.5l4 7t3 6.5t0 3q-10 8 -11 12q-5 12 3 22t20 8 q18 -2 21 -23v-5q-1 -14 -7.5 -29t-13 -25t-18 -25.5t-15.5 -21.5q-7 -11 -18.5 -5t-5.5 18z" />
<glyph unicode="&#x201e;" horiz-adv-x="286" d="M77 -24l17 25q6 7 16 23l2 3q1 3 3 6.5l4 7t3 6.5t0 3q-10 8 -11 12q-5 12 3 22t20 8q18 -2 21 -23v-5q-1 -14 -7.5 -29t-13 -25t-18 -25.5t-15.5 -21.5q-7 -11 -18.5 -5t-5.5 18zM174 -24l17 25q6 7 16 23l1 3q2 3 4 6.5l4 7t3 6.5t0 3q-10 8 -11 12q-5 12 3 22t20 8 q18 -2 21 -23v-5q-1 -14 -7.5 -29t-13 -25t-18 -25.5t-15.5 -21.5q-7 -11 -18.5 -5t-5.5 18z" />
<glyph unicode="&#x2022;" horiz-adv-x="196" d="M55 364q13 26 43 26q25 0 40.5 -21.5t5.5 -45.5q-9 -27 -39.5 -30.5t-46.5 20.5q-18 24 -3 51z" />
<glyph unicode="&#x2026;" horiz-adv-x="391" d="M85 73q0 9 6.5 15.5t15.5 6.5q10 0 16.5 -6.5t6.5 -15.5q0 -10 -6.5 -16.5t-16.5 -6.5q-9 0 -15.5 6.5t-6.5 16.5zM198 73q0 9 6.5 15.5t15.5 6.5q10 0 16.5 -6.5t6.5 -15.5q0 -10 -6.5 -16.5t-16.5 -6.5q-9 0 -15.5 6.5t-6.5 16.5zM303 73q0 9 6.5 15.5t15.5 6.5 q10 0 16.5 -6.5t6.5 -15.5q0 -10 -6.5 -16.5t-16.5 -6.5q-9 0 -15.5 6.5t-6.5 16.5z" />
<glyph unicode="&#x202f;" horiz-adv-x="144" />
<glyph unicode="&#x2039;" horiz-adv-x="144" d="M29 168q-1 4 5 14q6 8 19 25t23 30t18 26q6 8 18.5 24.5t18.5 24.5q4 4 8 4q7 0 10.5 -7t-1.5 -12q-2 -3 -5 -7t-5.5 -7t-5.5 -7t-5 -7q-23 -31 -47 -63l-19 -27q-6 -8 -10 -12l1 -2l2 -24l5 -39q2 -26 4 -39l3 -24q0 -15 -12 -15q-6 0 -10 7q0 1 -0.5 3t-0.5 3q0 6 -1 9 l-3 32l-5 39l-3 34q-2 12 -2 17z" />
<glyph unicode="&#x203a;" horiz-adv-x="125" d="M-9 48q0 1 5 9q13 18 39 56q25 37 38 55q0 1 3 4q-2 6 -2 8q-7 26 -18 69l-9 35q-11 32 6 32q6 0 8.5 -3.5t5 -13.5l2.5 -10l8 -34q12 -39 18 -69l4 -13q2 -5 -2 -9q-3 -4 -24 -36l-22 -32q-2 -3 -22 -31l-15 -21q-8 -14 -18 -9q-8 4 -5 13z" />
<glyph unicode="&#x205f;" horiz-adv-x="180" />
<glyph unicode="&#x20ac;" horiz-adv-x="447" d="M20 299q-6 0 -9.5 5.5t-0.5 11t10 5.5h93q1 0 1 1q10 29 13 37h-58q-8 0 -12 2q-5 5 -2.5 12.5t9.5 7.5h72q2 3 2 4l7 16l17 33q38 68 84 112q51 48 96 48q60 0 82 -75l4 -15q2 -9 -7.5 -13t-14.5 6q0 9 -7 25q-19 54 -68 48q-22 -4 -46 -21q-69 -47 -124 -168h97 q7 -3 8 -10q0 -12 -14 -12h-100q-1 0 -1 -1q-8 -20 -14 -37h75q7 -2 9 -9t-5 -11q-3 -2 -9 -2h-76q-1 0 -1 -1l-3 -10l-4 -19q-9 -34 -12 -72q-4 -38 0 -64q1 -16 4.5 -30.5t10 -27.5t17 -22.5t23.5 -12.5q12 -3 23 0q21 4 42 18t31 24.5t29 32.5q4 4 6 4q7 3 11.5 -3 t1.5 -13l-5 -7q-53 -62 -104 -77q-41 -11 -69 13t-37 63q-8 27 -8 61q-3 62 20 143h-87z" />
<glyph unicode="&#x2122;" horiz-adv-x="243" d="M25 470q0 2 1 3q16 43 29 75l6 16h-20q-4 0 -4 3q-2 3 2 6t7 3h51q6 0 4 -6q-1 -4 -8 -6h-19q-1 1 -1 0q-1 0 -1 -1q-4 -13 -14.5 -38.5t-14.5 -37.5l-5 -11q-5 -9 -9 -9t-4 3zM83 469q0 2 1 3v1l9 24q10 24 14 36l12 30l3 7l2 4q3 3 7 3q2 0 3 -2t0 -3v-23 q0 -7 -0.5 -20t-0.5 -19v-20q2 2 63 83q2 4 7 4t3 -6q-4 -9 -20 -52l-13 -33l-4 -11l-3 -6q-3 -3 -6 -3q-4 0 -4 3v4q2 4 4 10q3 6 7.5 18t6.5 17l8 21l-17 -22q-21 -29 -23 -32l-9 -12l-3 -3q-1 -3 -6 -3q-4 0 -4 4v6q1 21 1 62q0 -1 -0.5 -2l-0.5 -1q-12 -32 -24 -61 q0 -2 -1 -4t-3 -3.5t-4 -1.5q-4 0 -5 3z" />
<glyph unicode="&#xe000;" horiz-adv-x="305" d="M0 0v305h305v-305h-305z" />
</font>
</defs>
</svg>
