<?xml version="1.0" standalone="no"?>
<!DOCTYPE svg PUBLIC "-//W3C//DTD SVG 1.1//EN" "http://www.w3.org/Graphics/SVG/1.1/DTD/svg11.dtd" >
<svg xmlns="http://www.w3.org/2000/svg">
<metadata></metadata>
<defs>
<font id="sinkin_sans700_bold" horiz-adv-x="770" >
<font-face units-per-em="1000" ascent="810" descent="-190" />
<missing-glyph horiz-adv-x="310" />
<glyph horiz-adv-x="1000" />
<glyph horiz-adv-x="1000" />
<glyph horiz-adv-x="333" />
<glyph unicode="&#x9;" horiz-adv-x="1000" />
<glyph unicode="&#xa;" horiz-adv-x="1000" />
<glyph unicode="&#xd;" horiz-adv-x="1000" />
<glyph horiz-adv-x="1000" />
<glyph horiz-adv-x="1000" />
<glyph horiz-adv-x="1000" />
<glyph horiz-adv-x="1000" />
<glyph horiz-adv-x="1000" />
<glyph horiz-adv-x="1000" />
<glyph horiz-adv-x="1000" />
<glyph unicode=" "  horiz-adv-x="310" />
<glyph unicode="&#x09;" horiz-adv-x="310" />
<glyph unicode="&#xa0;" horiz-adv-x="310" />
<glyph unicode="!" horiz-adv-x="337" d="M71 810h195l-33 -579h-130zM76 89q0 45 24.5 72t68.5 27t68.5 -27t24.5 -72t-24.5 -72t-68.5 -27q-45 0 -69 27t-24 72z" />
<glyph unicode="&#x22;" horiz-adv-x="487" d="M55 840h155l-25 -324h-105zM277 840h155l-25 -324h-105z" />
<glyph unicode="#" horiz-adv-x="799" d="M30 194v131h137l-5 15l35 130l12 16l-102 -1v131h137l-5 15l48 179h139l-47 -180l-12 -14h177l-4 16l47 178h140l-48 -179l-12 -15h102v-131l-138 1l6 -16l-34 -129l-13 -16h102v-131l-137 1l4 -16l-47 -179h-140l47 180l13 15h-178l5 -16l-47 -179h-140l47 179l13 16z M290 325h177l-4 15l34 130l12 16h-178l5 -16l-34 -130z" />
<glyph unicode="$" horiz-adv-x="801" d="M55 123l116 110q87 -78 168 -93l-8 18v140l9 15q-3 1 -12 3t-12 3q-54 14 -92 29t-73 39t-53 58.5t-18 79.5q0 83 68.5 144t190.5 74l-8 15v81h151v-82l-8 -17q72 -11 129.5 -41.5t116.5 -91.5l-117 -113q-63 70 -131 91l10 -20v-117l-9 -13q6 -2 18 -5t13 -3 q113 -27 170 -83.5t57 -133.5q0 -86 -66.5 -149.5t-191.5 -74.5l9 -15v-81h-151v82l9 15q-166 21 -285 136zM252 531q0 -39 87 -61l-8 17v88l9 18q-41 -4 -64.5 -24t-23.5 -38zM474 136q47 8 68 26.5t21 38.5q0 21 -21 42t-68 35l8 -19v-106z" />
<glyph unicode="%" horiz-adv-x="1001" d="M30 589q0 98 52 165t148 67q97 0 148.5 -66.5t51.5 -165.5t-51 -163.5t-149 -64.5t-149 64.5t-51 163.5zM163 589q0 -107 67 -107t67 107q0 59 -16.5 85t-50.5 26q-67 0 -67 -111zM288 -10l296 830h129l-295 -830h-130zM571 217q0 99 52 165.5t148 66.5q97 0 148.5 -66.5 t51.5 -165.5t-51 -163t-149 -64t-149 64.5t-51 162.5zM704 217q0 -106 67 -106t67 106q0 112 -67 112t-67 -112z" />
<glyph unicode="&#x26;" horiz-adv-x="858" d="M55 225q0 134 184 231q-19 6 -38 34q-3 5 -9 14t-7 11q-26 50 -26 92q0 88 68 149.5t163 61.5t163.5 -61t68.5 -149q0 -70 -38.5 -117t-111.5 -86l17 -7l105 -113l10 -23q3 8 2.5 26.5t-1.5 27.5h169v-41q0 -34 -14 -73t-38 -68l16 -4l120 -131h-208l-28 31v17l-2 -1 q-90 -58 -229 -58q-92 0 -166.5 25.5t-122 80t-47.5 131.5zM228 225q0 -39 40.5 -62.5t122.5 -24.5q82 0 123 25l-21 7l-148 160l-3 17l-32 -20q-24 -14 -39 -25.5t-29 -32t-14 -44.5zM322 605q0 -5 1.5 -10.5t3 -10t5 -10.5t6 -9.5t7.5 -9.5t7.5 -8.5t8 -9t6.5 -7.5l3 -17 q33 15 52 28.5t28 29t9 35.5q0 25 -19.5 43t-48.5 18q-30 0 -49.5 -18t-19.5 -44z" />
<glyph unicode="'" horiz-adv-x="265" d="M55 840h155l-25 -324h-105z" />
<glyph unicode="(" horiz-adv-x="354" d="M40 358q0 275 153 549h150q-135 -271 -135 -536q0 -300 136 -562h-150q-81 145 -117.5 276t-36.5 273z" />
<glyph unicode=")" horiz-adv-x="354" d="M10 -191q135 260 135 562q0 267 -135 536h150q154 -273 154 -549q0 -142 -36.5 -273t-117.5 -276h-150z" />
<glyph unicode="*" horiz-adv-x="583" d="M55 614l137 24l-113 80l64 81l104 -92l-7 138h103l-7 -139l103 93l65 -81l-114 -81l138 -24l-23 -100l-134 38l67 -122l-94 -45l-53 128l-54 -128l-93 45l67 121l-133 -37z" />
<glyph unicode="+" horiz-adv-x="710" d="M90 333v144h203l-9 16v197h142v-197l-9 -16h203v-144h-203l9 -16v-197h-142v197l9 16h-203z" />
<glyph unicode="," horiz-adv-x="316" d="M60 90q0 46 24 73.5t69 27.5t69 -27.5t24 -73.5q0 -29 -15 -63l-91 -217l-80 34l54 128l25 20q-38 3 -58.5 30t-20.5 68z" />
<glyph unicode="-" horiz-adv-x="425" d="M30 264v143h365v-143h-365z" />
<glyph unicode="." horiz-adv-x="316" d="M60 91q0 46 24 73.5t69 27.5t69 -27.5t24 -73.5q0 -45 -24.5 -73t-68.5 -28q-45 0 -69 27.5t-24 73.5z" />
<glyph unicode="/" horiz-adv-x="308" d="M-70 -50l298 910h150l-298 -910h-150z" />
<glyph unicode="0" horiz-adv-x="830" d="M55 400q0 184 95 302t265 118q172 0 266 -117.5t94 -302.5q0 -184 -92.5 -297t-267.5 -113t-267.5 113t-92.5 297zM227 400q0 -258 187 -258q190 0 190 258q0 268 -189 268q-94 0 -141 -70.5t-47 -197.5z" />
<glyph unicode="1" horiz-adv-x="479" d="M20 594l218 216h141v-810h-170l1 512l8 82h-2l-47 -65l-44 -44z" />
<glyph unicode="2" horiz-adv-x="755" d="M55 163q-1 96 55.5 169t172.5 110l110 35q77 24 106.5 49t29.5 57q0 36 -33.5 61t-104.5 25q-121 0 -215 -110l-119 116q72 76 152 110.5t177 34.5q152 0 233 -69t81 -169q0 -172 -232 -247l-129 -41q-109 -34 -114 -127l-16 -16h490v-151h-642z" />
<glyph unicode="3" horiz-adv-x="788" d="M55 132l116 114q101 -105 223 -105q78 0 122.5 31t44.5 72q0 44 -38 71.5t-117 31.5l-147 4v143q115 2 142 4q143 11 143 91q0 34 -36 57t-114 23q-126 0 -216 -97l-118 115q134 133 334 133q158 0 240.5 -64t82.5 -161q0 -53 -34.5 -99.5t-87.5 -69.5v-2 q58 -15 98 -66.5t40 -117.5q0 -103 -86.5 -176.5t-252.5 -73.5q-103 0 -183 33.5t-156 108.5z" />
<glyph unicode="4" horiz-adv-x="795" d="M40 174v113l477 523h133v-468l-8 -17h113v-151h-113l8 -17v-157h-170v158l9 16h-449zM270 325h219l-9 17v150l3 70h-2l-45 -63l-104 -118l-62 -54v-2z" />
<glyph unicode="5" horiz-adv-x="792" d="M55 142l117 114q53 -64 102.5 -90t112.5 -26q91 0 134 40t43 95t-41.5 96t-125.5 41q-67 0 -117.5 -22.5t-99.5 -74.5l-104 102l50 393h553v-151h-420l13 -16l-10 -71l-15 -44l1 -1q58 36 149 36q162 0 251 -83.5t89 -204.5q0 -120 -89.5 -203t-260.5 -83 q-109 0 -185.5 35t-146.5 118z" />
<glyph unicode="6" horiz-adv-x="822" d="M55 401q4 192 109 305.5t269 113.5q184 0 298 -115l-117 -117q-74 81 -181 81q-77 0 -128.5 -44t-70.5 -125h2q80 63 190 63q161 0 252 -83.5t89 -204.5q-2 -75 -39 -138t-118 -105.5t-194 -42.5q-178 0 -271 113.5t-90 298.5zM246 274q-1 -51 43 -92.5t129 -41.5 q81 0 129 42.5t49 93.5t-43 93.5t-129 42.5q-82 0 -129.5 -43.5t-48.5 -94.5z" />
<glyph unicode="7" horiz-adv-x="735" d="M30 658v152h675v-119l-228 -273q-81 -97 -81 -255v-163h-170v168q0 106 27 184.5t87 153.5l74 90l63 60v2h-447z" />
<glyph unicode="8" horiz-adv-x="827" d="M55 244q0 61 40.5 112t100.5 76v2q-46 19 -79 60t-33 95q0 99 83.5 165t243.5 66t246.5 -66t86.5 -165q0 -51 -34.5 -92.5t-82.5 -62.5v-2q58 -19 101.5 -71t43.5 -117q0 -102 -96 -178t-262 -76q-167 0 -263 75.5t-96 178.5zM228 246q0 -35 46 -70t139 -35t139.5 35 t46.5 70q0 41 -48.5 75t-137.5 34t-137 -34t-48 -75zM257 583q0 -29 38 -58.5t118 -29.5t118.5 29.5t38.5 58.5q0 31 -34.5 58t-121.5 27t-122 -27t-35 -58z" />
<glyph unicode="9" horiz-adv-x="822" d="M55 534q2 75 39 138t118 105.5t193 42.5q179 0 272 -113.5t90 -298.5q-4 -191 -108 -305t-268 -114q-188 0 -303 116l118 117q74 -82 184 -82q77 0 128.5 44t70.5 125h-2q-84 -62 -191 -62q-162 0 -252.5 83t-88.5 204zM226 533q-1 -51 43 -93t129 -42q82 0 129.5 43.5 t48.5 93.5q1 51 -43 92.5t-129 41.5q-81 0 -129 -42.5t-49 -93.5z" />
<glyph unicode=":" horiz-adv-x="326" d="M70 91q0 46 24 73.5t69 27.5t69 -27.5t24 -73.5q0 -45 -24.5 -73t-68.5 -28q-45 0 -69 27.5t-24 73.5zM70 516q0 46 24 73.5t69 27.5t69 -27.5t24 -73.5q0 -45 -24.5 -73t-68.5 -28q-45 0 -69 27.5t-24 73.5z" />
<glyph unicode=";" horiz-adv-x="326" d="M70 90q0 46 24 73.5t69 27.5t69 -27.5t24 -73.5q0 -29 -15 -63l-91 -217l-80 34l54 128l25 20q-38 3 -58.5 30t-20.5 68zM70 516q0 46 24 73.5t69 27.5t69 -27.5t24 -73.5q0 -45 -24.5 -73t-68.5 -28q-45 0 -69 27.5t-24 73.5z" />
<glyph unicode="&#x3c;" horiz-adv-x="561" d="M55 402l312 323l104 -104l-162 -168l-60 -48l32 -26q30 -26 61.5 -57t69.5 -69.5t59 -59.5l-104 -104z" />
<glyph unicode="=" horiz-adv-x="705" d="M90 213v142h525v-142h-525zM90 455v143h525v-143h-525z" />
<glyph unicode="&#x3e;" horiz-adv-x="561" d="M90 193l162 164l59 47q-25 21 -77 68l-144 149l104 104l312 -323l-313 -313z" />
<glyph unicode="?" horiz-adv-x="719" d="M55 683q131 137 316 137q121 0 207 -61t86 -159q0 -75 -46.5 -122.5t-127.5 -80.5q-2 -2 -16.5 -6.5t-15.5 -6.5q-40 -16 -53.5 -38.5t-13.5 -73.5v-41h-164v52q0 99 41 152.5t129 87.5q1 2 11 4.5t11 3.5q38 14 55 29.5t17 39.5q0 30 -37 51.5t-83 21.5 q-114 0 -193 -101zM217 89q0 45 24 72t68 27q45 0 69 -27t24 -72t-24.5 -72t-68.5 -27t-68 27t-24 72z" />
<glyph unicode="@" horiz-adv-x="990" d="M70 418q0 116 60.5 215t161 155.5t215.5 56.5q168 0 290.5 -117t122.5 -285q0 -67 -26.5 -131t-83 -110.5t-130.5 -46.5q-70 0 -111 58h-2q-64 -59 -151 -59q-89 0 -136.5 61t-47.5 145q0 107 74.5 193.5t186.5 86.5q29 0 57 -11t42 -28h1l8 29h122l-69 -261 q-10 -40 -10 -69q0 -18 12.5 -29.5t32.5 -11.5q60 0 91.5 55.5t31.5 126.5q0 125 -89.5 216.5t-213.5 91.5q-136 0 -234 -98.5t-98 -235.5q0 -145 96 -244.5t238 -99.5q93 0 187 64l73 -70q-122 -91 -255 -91q-191 0 -318.5 126t-127.5 318zM358 373q0 -110 76 -110 q55 0 88.5 54t33.5 123q0 96 -70 96q-53 0 -90.5 -52.5t-37.5 -110.5z" />
<glyph unicode="A" horiz-adv-x="959" d="M15 0l390 810h150l389 -810h-186l-85 178l10 15h-407l10 -15l-84 -178h-187zM353 335h254l-17 16l-84 176l-25 74l-2 -1l-25 -73l-84 -176z" />
<glyph unicode="B" horiz-adv-x="862" d="M90 0v810h409q134 0 208.5 -67.5t74.5 -166.5q0 -103 -76 -154v-1q50 -18 80.5 -64.5t30.5 -111.5q0 -115 -82.5 -180t-227.5 -65h-417zM244 152h263q77 0 107 24.5t30 70.5q0 98 -137 98h-263l16 -16v-161zM244 487h245q120 0 120 87q0 84 -120 84h-245l16 -16v-140z " />
<glyph unicode="C" horiz-adv-x="860" d="M55 400q0 187 115 303t320 116q213 0 339 -142l-117 -117q-79 108 -222 108q-132 0 -197 -73t-65 -195q0 -119 63.5 -189t197.5 -70q144 0 226 107l115 -114q-134 -145 -341 -145q-209 0 -321.5 112t-112.5 299z" />
<glyph unicode="D" horiz-adv-x="898" d="M90 0v810h344q409 0 409 -405t-405 -405h-348zM244 152h184q76 0 126 18t74.5 55t33 78t8.5 102q0 60 -9 101.5t-34 78t-75.5 55t-127.5 18.5h-180l16 -16v-474z" />
<glyph unicode="E" horiz-adv-x="830" d="M90 0v810h670v-152h-516l16 -16v-145l-16 -16h468v-152h-468l16 -16v-145l-16 -16h516v-152h-670z" />
<glyph unicode="F" d="M90 0v810h650v-152h-496l16 -15v-164l-16 -16l447 -1v-151h-447l16 -16v-295h-170z" />
<glyph unicode="G" horiz-adv-x="960" d="M55 398q0 192 116.5 307t321.5 115q214 0 335 -125l-117 -118q-79 92 -218 92q-133 0 -199 -70t-66 -201q0 -257 259 -257q93 0 154 48.5t69 124.5l17 16h-281v151h424v-482h-147v77q-36 -38 -101 -62t-135 -24q-203 0 -317.5 110t-114.5 298z" />
<glyph unicode="H" horiz-adv-x="920" d="M90 0v810h170v-313l-16 -16h432l-16 16v313h170v-810h-170v313l16 16h-432l16 -16v-313h-170z" />
<glyph unicode="I" horiz-adv-x="360" d="M95 0v810h170v-810h-170z" />
<glyph unicode="J" horiz-adv-x="688" d="M0 124l115 115q32 -45 76 -71t86 -26q67 0 111.5 36.5t44.5 122.5v509h170v-504q0 -68 -18 -122.5t-48 -90t-72.5 -59.5t-89 -34t-99.5 -10q-166 0 -276 134z" />
<glyph unicode="K" horiz-adv-x="894" d="M90 0v810h170v-810h-170zM269 409l375 400h237l-392 -401q0 -1 1 -2q13 -11 114 -112.5t196 -197.5l94 -96h-238z" />
<glyph unicode="L" horiz-adv-x="728" d="M90 0v810h170v-643l-15 -15h468v-152h-623z" />
<glyph unicode="M" horiz-adv-x="1050" d="M90 -1v811h140l259 -449l35 -85h2l34 85l260 449h140v-811h-170v466h-2l-36 -86l-225 -390h-4l-225 390l-36 85h-2v-465h-170z" />
<glyph unicode="N" horiz-adv-x="920" d="M90 0v810h143l369 -446l56 -92h2v538h170v-810h-143l-365 446l-60 95h-2v-541h-170z" />
<glyph unicode="O" horiz-adv-x="944" d="M55 400q0 187 109 303.5t308 116.5q200 0 308.5 -116.5t108.5 -303.5q0 -185 -109.5 -297.5t-307.5 -112.5q-200 0 -308.5 112t-108.5 298zM228 400q0 -119 60 -188.5t184 -69.5q125 0 184.5 69t59.5 189q0 122 -60 195t-184 73t-184 -72.5t-60 -195.5z" />
<glyph unicode="P" horiz-adv-x="847" d="M90 0v810h407q142 0 223.5 -72.5t81.5 -190.5q0 -114 -82.5 -189t-222.5 -75h-253l16 -15v-268h-170zM244 435h253q68 0 100 30t32 82q0 111 -132 111h-253l16 -15v-192z" />
<glyph unicode="Q" horiz-adv-x="945" d="M55 399q0 187 109 304t308 117q200 0 308.5 -116.5t108.5 -304.5q0 -177 -96 -283l108 -109l-102 -103l-126 126q-88 -40 -201 -40q-200 0 -308.5 111.5t-108.5 297.5zM228 399q0 -120 60 -189.5t184 -69.5q52 0 71 6l15 -1l-92 93l102 102l114 -113v21q34 59 34 151 q0 122 -60 195.5t-184 73.5t-184 -73t-60 -196z" />
<glyph unicode="R" horiz-adv-x="885" d="M90 0v810h392q130 0 220 -65t90 -188q0 -62 -40.5 -116.5t-97.5 -80.5v-2q50 -22 82 -84l144 -274h-191l-111 214q-25 48 -64.5 69.5t-108.5 21.5h-161l16 -15v-290h-170zM244 450h228q73 0 110 29.5t37 73.5q0 105 -137 105h-238l16 -15v-177z" />
<glyph unicode="S" horiz-adv-x="845" d="M50 133l118 118q122 -110 273 -110q93 0 137 25t44 62q0 60 -129 92q-60 13 -150 37q-61 16 -104.5 33t-84.5 43t-62.5 64.5t-21.5 87.5q0 101 93.5 168t261.5 67q217 0 353 -139l-119 -118q-43 49 -105 77.5t-131 28.5q-91 0 -135.5 -23.5t-44.5 -56.5q0 -26 35.5 -45 t132.5 -43q81 -22 131 -33q124 -30 188.5 -92t64.5 -145q0 -102 -91.5 -171.5t-268.5 -69.5q-236 0 -385 143z" />
<glyph unicode="T" d="M20 658v152h730v-152h-289l9 -16v-642h-170v642l9 16h-289z" />
<glyph unicode="U" horiz-adv-x="932" d="M85 373v437h170v-436q0 -118 49 -175t162 -57q112 0 161.5 57t49.5 175v436h170v-437q0 -185 -95 -284t-285 -99q-191 0 -286.5 98.5t-95.5 284.5z" />
<glyph unicode="V" horiz-adv-x="915" d="M15 810h189l228 -520l25 -81h2l26 81l228 520h187l-367 -810h-151z" />
<glyph unicode="W" horiz-adv-x="1139" d="M25 810h180l132 -474l17 -86h2l16 86l134 474h128l134 -474l17 -84h2l16 84l133 474h178l-236 -810h-182l-111 394l-17 90h-2l-17 -90l-111 -394h-177z" />
<glyph unicode="X" horiz-adv-x="896" d="M20 0l322 405l-322 405h214l170 -215l44 -70h2l42 70l170 215h212l-320 -404l322 -406h-215l-169 216l-44 72h-2l-43 -72l-170 -216h-213z" />
<glyph unicode="Y" horiz-adv-x="928" d="M15 810h213l188 -255l47 -80h2l47 80l189 255h212l-363 -476v-334h-171v334z" />
<glyph unicode="Z" horiz-adv-x="860" d="M60 0v120l422 468l79 68v2h-491v152h725v-119l-422 -470l-73 -67v-2h500v-152h-740z" />
<glyph unicode="[" horiz-adv-x="334" d="M60 -190v1097h254v-135h-111v-827h111v-135h-254z" />
<glyph unicode="\" horiz-adv-x="388" d="M-30 860h150l298 -910h-150z" />
<glyph unicode="]" horiz-adv-x="335" d="M20 -55h112v827h-112v135h255v-1097h-255v135z" />
<glyph unicode="^" horiz-adv-x="762" d="M75 415l248 395h116l248 -395h-181l-101 167l-23 52h-2l-23 -52l-101 -167h-181z" />
<glyph unicode="_" horiz-adv-x="688" d="M-10 -65h708v-130h-708v130z" />
<glyph unicode="`" horiz-adv-x="745" d="M222 881l96 96l186 -216l-66 -66z" />
<glyph unicode="a" horiz-adv-x="758" d="M50 196q0 210 421 210q50 0 56 -1l-17 16q-3 39 -36.5 59.5t-90.5 20.5q-105 0 -185 -53l-103 104q123 87 290 87q134 0 214.5 -62t80.5 -186v-392h-167v36h-2q-70 -46 -176 -46q-51 0 -97.5 10t-90.5 32t-70.5 64.5t-26.5 100.5zM216 194q0 -33 36 -49.5t89 -16.5 q172 0 172 69v60l16 16q-6 1 -38 1t-53.5 -0.5t-58.5 -2.5t-61.5 -7.5t-50 -13.5t-38.5 -22.5t-13 -33.5z" />
<glyph unicode="b" horiz-adv-x="791" d="M83 -1v841h167v-259h2q27 27 74 43t101 16q153 0 233.5 -90t80.5 -236t-81 -235t-233 -89q-114 0 -175 55h-2v-46h-167zM241 314q0 -180 167 -180q166 0 166 180q0 182 -167 182q-166 0 -166 -182z" />
<glyph unicode="c" horiz-adv-x="679" d="M50 311q0 142 90.5 235.5t248.5 93.5q161 0 260 -99l-110 -110q-62 65 -149 65q-83 0 -128 -51.5t-45 -134.5q0 -80 42 -128.5t129 -48.5q86 0 155 68l109 -109q-108 -102 -265 -102q-164 0 -250.5 90t-86.5 231z" />
<glyph unicode="d" horiz-adv-x="791" d="M50 314q0 147 80 236.5t234 89.5q53 0 100.5 -16t74.5 -43h2v259h167v-841h-167v46h-2q-61 -55 -176 -55q-152 0 -232.5 89t-80.5 235zM217 314q0 -180 166 -180t166 180q0 182 -166 182t-166 -182z" />
<glyph unicode="e" d="M50 310q0 146 90 238t247 92q161 0 247 -92.5t86 -237.5q0 -33 -4 -60h-503l15 -16q18 -49 61.5 -77.5t106.5 -28.5q91 0 164 60l101 -102q-111 -96 -265 -96q-168 0 -257 89.5t-89 230.5zM215 384h342l-16 16q-36 103 -154 103q-115 0 -157 -103z" />
<glyph unicode="f" horiz-adv-x="488" d="M28 496v133h98l-8 16q0 92 64 146.5t169 54.5q73 0 119 -17v-134q-46 17 -95 17q-89 0 -89 -67l-10 -16h194v-133h-193l8 -16v-480h-167v481l8 15h-98z" />
<glyph unicode="g" horiz-adv-x="791" d="M50 336q0 131 85.5 217.5t238.5 86.5q46 0 93 -15t72 -38h2v43h167v-562q0 -136 -82.5 -209.5t-240.5 -73.5q-166 0 -300 91l112 112q88 -60 188 -60q76 0 116 35.5t40 98.5v18h-2q-65 -48 -164 -48q-157 0 -241 83t-84 221zM217 334q0 -74 42.5 -116t123.5 -42 q166 0 166 158q0 75 -42 119t-124 44t-124 -44.5t-42 -118.5z" />
<glyph unicode="h" horiz-adv-x="788" d="M83 0v840h167v-257h2q29 26 77.5 41t97.5 15q136 0 210 -69t74 -184l-1 -386h-166v368q0 61 -28 93.5t-111 32.5q-70 0 -112.5 -35t-42.5 -98v-361h-167z" />
<glyph unicode="i" horiz-adv-x="332" d="M77 764q0 40 25 66t65 26q39 0 64.5 -26.5t25.5 -65.5t-25.5 -65.5t-64.5 -26.5q-40 0 -65 26t-25 66zM83 0v630h167v-630h-167z" />
<glyph unicode="j" horiz-adv-x="337" d="M-58 -190l1 142q47 -25 94 -25q24 0 37.5 13.5t13.5 38.5v651h167v-656q0 -95 -51 -142t-147 -47q-51 0 -115 25zM81 764q0 39 25.5 65.5t64.5 26.5q40 0 65 -26t25 -66q0 -39 -25.5 -65.5t-64.5 -26.5q-40 0 -65 26t-25 66z" />
<glyph unicode="k" horiz-adv-x="774" d="M83 0v840h167v-840h-167zM260 320l295 310h208l-304 -308v-2l315 -320h-214z" />
<glyph unicode="l" horiz-adv-x="332" d="M83 0v840h167v-840h-167z" />
<glyph unicode="m" horiz-adv-x="1065" d="M83 0v631h167v-45h2q59 54 145 54q53 0 97 -24.5t67 -64.5h2q31 40 79.5 64.5t101.5 24.5q121 0 182 -71t61 -201v-368h-168v347q0 84 -18.5 116.5t-73.5 32.5q-51 0 -80 -34t-29 -89l1 -373h-168v369q0 70 -19.5 98.5t-72.5 28.5q-48 0 -78.5 -34t-30.5 -90v-372h-167z " />
<glyph unicode="n" horiz-adv-x="788" d="M83 0v631h167v-55h2q71 64 182 64q127 0 202 -66t75 -183l-1 -391h-166v375q0 63 -27.5 92t-111.5 29q-71 0 -113 -33.5t-42 -94.5v-368h-167z" />
<glyph unicode="o" d="M50 315q0 144 86.5 234.5t247.5 90.5q163 0 249.5 -90.5t86.5 -234.5q0 -143 -87 -234t-248 -91q-162 0 -248.5 90.5t-86.5 234.5zM217 315q0 -84 42 -133t126 -49q85 0 126.5 48.5t41.5 133.5q0 84 -41.5 132.5t-126.5 48.5t-126.5 -48t-41.5 -133z" />
<glyph unicode="p" horiz-adv-x="791" d="M83 -211v841h167v-46h2q61 55 175 55q152 0 233 -89t81 -235t-80.5 -236t-233.5 -90q-54 0 -101 16t-74 43h-2v-259h-167zM241 314q0 -180 166 -180q167 0 167 180q0 182 -166 182q-167 0 -167 -182z" />
<glyph unicode="q" horiz-adv-x="791" d="M50 316q0 145 80.5 234t232.5 89q115 0 176 -55h2v46h167v-841h-167v259h-2q-27 -27 -74.5 -43t-100.5 -16q-154 0 -234 90t-80 237zM217 314q0 -180 166 -180t166 180q0 182 -166 182t-166 -182z" />
<glyph unicode="r" horiz-adv-x="490" d="M83 0v630h167v-84h2q57 91 183 91h37v-152h-50q-88 0 -130 -42t-42 -131v-312h-167z" />
<glyph unicode="s" horiz-adv-x="701" d="M50 108l107 108q39 -42 93 -65t109 -23q65 0 94.5 16t29.5 37q0 17 -16 29.5t-66 24.5q-7 1 -56.5 14t-56.5 15q-46 12 -80.5 25t-68.5 34.5t-52 53.5t-18 73q0 84 76 136.5t207 52.5q175 0 283 -105l-104 -103q-73 71 -178 71q-43 0 -71 -9t-36.5 -19.5t-8.5 -21.5 q0 -18 23.5 -28.5t87.5 -26.5q34 -8 101 -27q102 -25 152 -68.5t50 -113.5q0 -85 -75 -142t-214 -57q-174 0 -312 119z" />
<glyph unicode="t" horiz-adv-x="542" d="M28 496v134h92l-8 15v75l167 89v-164l-9 -15h195v-134h-195l9 -15v-269q0 -38 17 -58.5t46 -20.5q47 0 93 50l98 -98q-96 -95 -206 -95q-215 0 -215 222v269l8 15h-92z" />
<glyph unicode="u" horiz-adv-x="780" d="M78 246v384h167v-375q0 -60 30.5 -90.5t103.5 -30.5q70 0 111 33.5t41 94.5v368h167v-631h-167v55h-2q-64 -64 -175 -64q-139 0 -208 68t-68 188z" />
<glyph unicode="v" horiz-adv-x="730" d="M9 630h185l138 -338l31 -95h2l31 95l140 338h185l-281 -630h-151z" />
<glyph unicode="w" horiz-adv-x="967" d="M13 630h176l87 -312l18 -106h2l20 106l98 312h139l99 -312l20 -107h2l18 107l87 312h175l-196 -630h-170l-84 285l-19 104h-2l-21 -104l-84 -285h-171z" />
<glyph unicode="x" horiz-adv-x="738" d="M18 0l249 316l-247 314h209l102 -134l37 -66h2l37 66l104 134h206l-246 -314l249 -316h-208l-112 144l-31 56h-2l-30 -56l-112 -144h-207z" />
<glyph unicode="y" horiz-adv-x="771" d="M14 630h184l165 -351l32 -94h2l28 94l149 351h184l-306 -689q-32 -71 -88.5 -113.5t-128.5 -42.5q-80 0 -155 37v151q86 -45 139 -45q58 0 94 86z" />
<glyph unicode="z" horiz-adv-x="712" d="M55 0v112l295 314l74 56v2h-362v145h592v-108l-298 -313l-77 -61v-2h378v-145h-602z" />
<glyph unicode="{" horiz-adv-x="392" d="M40 302v114q40 7 56.5 27.5t16.5 57.5v231q0 163 126 179l143 3v-129h-42q-57 0 -71.5 -13.5t-14.5 -64.5v-204q0 -55 -13.5 -87t-51.5 -57q44 -27 54.5 -55t10.5 -90v-203q0 -51 14.5 -64.5t71.5 -13.5h42v-129q-122 0 -143 3q-126 16 -126 179v221q0 42 -15 65t-58 30z " />
<glyph unicode="|" horiz-adv-x="379" d="M115 -50v910h149v-910h-149z" />
<glyph unicode="}" horiz-adv-x="392" d="M10 -67h43q56 0 70.5 13.5t14.5 64.5v203q0 62 10.5 90t54.5 55q-38 25 -51.5 57t-13.5 87v204q0 51 -14 64.5t-71 13.5h-43v129q123 0 144 -3q125 -16 125 -179v-231q0 -37 16.5 -57.5t56.5 -27.5v-114q-43 -7 -58 -30t-15 -65v-221q0 -163 -125 -179l-144 -3v129z" />
<glyph unicode="~" horiz-adv-x="635" d="M30 298q19 62 67.5 99.5t114.5 37.5q28 0 58 -11.5t66.5 -33t48.5 -27.5q25 -11 44 -11q63 0 89 90l87 -89q-20 -62 -68.5 -98.5t-113.5 -36.5q-29 0 -58.5 11.5t-66 32.5t-48.5 27q-25 11 -45 11q-62 0 -88 -90z" />
<glyph horiz-adv-x="1000" />
<glyph unicode="&#xa1;" horiz-adv-x="339" d="M72 0l32 579h130l32 -579h-194zM76 721q0 44 24.5 71.5t68.5 27.5q45 0 69.5 -27.5t24.5 -71.5t-25 -72t-69 -28q-45 0 -69 27.5t-24 72.5z" />
<glyph unicode="&#xa2;" horiz-adv-x="679" d="M50 400q0 143 90 236t227 97l-5 16l15 71h138l-17 -81l-11 -16q95 -26 162 -90l-110 -109q-36 37 -83 52l6 -17l-63 -317l-11 -15q47 0 81.5 14.5t73.5 50.5l108 -109q-113 -103 -264 -103q-19 0 -30 1l7 -14l-15 -77h-138l19 98l14 13q-94 34 -144 113t-50 186zM215 400 q0 -93 59 -139l-4 20l55 283l13 16q-62 -16 -92.5 -65t-30.5 -115z" />
<glyph unicode="&#xa3;" horiz-adv-x="783" d="M55 0v134q72 33 98.5 68.5t15.5 110.5l6 17h-103v150h64l-11 16q-11 55 -11 82q0 123 80.5 182.5t221.5 59.5q180 0 297 -136l-115 -115q-80 101 -186 101q-125 0 -125 -87q0 -36 12 -87l-6 -16h247v-150h-213l11 -17q11 -105 -43 -159v-2h405v-152h-645z" />
<glyph unicode="&#xa4;" horiz-adv-x="650" d="M55 583l92 89l70 -69q49 27 108 27q57 0 107 -27l71 69l92 -89l-70 -73q27 -51 27 -107q0 -59 -27 -109l68 -70l-90 -90l-71 69q-50 -26 -107 -26q-58 0 -109 27l-70 -69l-90 90l69 71q-27 50 -27 107t28 107zM231 403q0 -39 27.5 -66.5t66.5 -27.5q40 0 67.5 27t27.5 67 t-27.5 68t-67.5 28t-67 -28t-27 -68z" />
<glyph unicode="&#xa5;" horiz-adv-x="948" d="M25 810h213l189 -258l46 -82h2l45 82l191 258h212l-254 -332l-19 -16l137 2v-129l-232 -1l5 -11v-45l-5 -10h232v-129h-235l8 -16v-123h-171v123l8 16h-234v129h232l-6 11v46l7 10h-233v129h134l-18 15z" />
<glyph unicode="&#xa6;" horiz-adv-x="356" d="M104 -50v409h148v-409h-148zM104 450v410h148v-410h-148z" />
<glyph unicode="&#xa7;" horiz-adv-x="713" d="M49 361q0 96 106 178q-36 47 -36 96q0 37 14.5 68t39 52t57.5 36t68.5 21.5t72.5 6.5q154 0 286 -134l-110 -107q-82 96 -176 96q-39 0 -57.5 -12t-18.5 -28q0 -12 10 -24t28.5 -25t30.5 -19.5t31 -16.5q11 -6 34 -17.5t34 -17.5q35 -19 56 -30.5t53.5 -35t50.5 -44.5 t32 -51t14 -63q0 -98 -95 -178q43 -51 43 -116q0 -51 -21.5 -90t-57.5 -61.5t-78.5 -34t-88.5 -11.5q-84 0 -156 29.5t-143 95.5l114 112q84 -90 185 -90q69 0 69 48q0 15 -14 32q-22 23 -57 45t-84.5 47t-69.5 37q-75 42 -120.5 89.5t-45.5 116.5zM218 370q0 -37 74 -79 l160 -87q47 39 47 72q0 10 -4.5 19.5t-10 16t-16.5 14.5t-17 12t-18.5 11t-15.5 9l-149 84q-50 -43 -50 -72z" />
<glyph unicode="&#xa8;" horiz-adv-x="745" d="M156 789q0 37 19.5 59.5t55.5 22.5q37 0 56.5 -22.5t19.5 -59.5q0 -36 -20 -59t-56 -23t-55.5 22.5t-19.5 59.5zM409 789q0 37 19.5 59.5t55.5 22.5q37 0 56.5 -22.5t19.5 -59.5q0 -36 -20 -59t-56 -23t-55.5 22.5t-19.5 59.5z" />
<glyph unicode="&#xa9;" horiz-adv-x="970" d="M53 401q0 179 126.5 305.5t305.5 126.5t305.5 -126.5t126.5 -305.5t-126.5 -306.5t-305.5 -127.5t-305.5 127.5t-126.5 306.5zM156 401q0 -137 97 -237.5t232 -100.5t232 100.5t97 237.5q0 136 -97.5 236.5t-231.5 100.5t-231.5 -100.5t-97.5 -236.5zM232 396 q0 120 67 198.5t184 78.5q122 0 198 -82l-75 -78q-51 55 -123 55q-69 -1 -106 -48.5t-37 -123.5q0 -74 35 -118.5t107 -44.5t129 61l76 -76q-84 -91 -205 -91q-122 0 -186 75t-64 194z" />
<glyph unicode="&#xaa;" horiz-adv-x="492" d="M30 525q0 147 285 144h25q-10 12 -10 13q-3 44 -89 44q-74 0 -124 -42l-72 69q87 67 197 67q37 0 69.5 -8t62 -25t46.5 -49.5t17 -76.5v-268h-107v23q-44 -29 -110 -29q-34 0 -65 7t-60.5 21.5t-47 43t-17.5 66.5zM137 525q0 -20 23 -31t61 -11q109 0 109 42v40l11 12 h-22q-23 0 -36 -0.5t-38.5 -1.5t-41 -4.5t-32.5 -9t-25.5 -14.5t-8.5 -22z" />
<glyph unicode="&#xab;" horiz-adv-x="773" d="M55 255l233 229l103 -104l-93 -94l-44 -32l44 -30l93 -94l-103 -104zM382 255l233 229l103 -104l-93 -94l-44 -32l44 -30l93 -94l-103 -104z" />
<glyph unicode="&#xac;" horiz-adv-x="583" d="M30 235v135h523v-320h-147v185h-376z" />
<glyph unicode="&#xad;" horiz-adv-x="425" d="M30 264v143h365v-143h-365z" />
<glyph unicode="&#xae;" horiz-adv-x="970" d="M53 401q0 179 126.5 305.5t305.5 126.5t305.5 -126.5t126.5 -305.5t-126.5 -306.5t-305.5 -127.5t-305.5 127.5t-126.5 306.5zM156 400q0 -136 97 -236.5t232 -100.5t232 100.5t97 236.5t-97.5 237t-231.5 101t-231.5 -101t-97.5 -237zM292 162v476h208q69 0 117.5 -39 t48.5 -113q0 -35 -24 -68.5t-54 -45.5q27 -14 43 -48l72 -162h-116l-55 127q-11 26 -25.5 36t-46.5 10h-71l6 -14v-159h-103zM389 438h115q57 0 57 48q0 50 -61 50h-111l6 -14v-70z" />
<glyph unicode="&#xaf;" horiz-adv-x="752" d="M194 737v105h406v-105h-406z" />
<glyph unicode="&#xb0;" horiz-adv-x="446" d="M30 622q0 87 46.5 142t133.5 55q88 0 134.5 -54.5t46.5 -142.5q0 -86 -47 -141.5t-134 -55.5t-133.5 55t-46.5 142zM131 622q0 -44 20 -69t59 -25q79 0 79 94q0 95 -79 95t-79 -95z" />
<glyph unicode="&#xb1;" horiz-adv-x="710" d="M90 16v144h530v-144h-530zM90 429v144h203l-9 16v197h142v-197l-9 -16h203v-144h-203l9 -16v-197h-142v197l9 16h-203z" />
<glyph unicode="&#xb2;" horiz-adv-x="466" d="M55 725q80 90 185 90q82 0 126.5 -39.5t44.5 -96.5q0 -99 -126 -139l-64 -22q-38 -12 -45 -44q0 -1 -1.5 -3l-3 -4t-1.5 -3h240v-103h-349v93q0 54 30.5 99t92.5 66l54 18q58 18 58 42q0 32 -57 32q-63 0 -108 -61z" />
<glyph unicode="&#xb3;" horiz-adv-x="501" d="M55 443l78 74q30 -33 56 -46t63 -13q31 0 50.5 8.5t25 17t5.5 15.5q0 43 -71 49l-85 2v94q68 2 82 3q27 3 42.5 12t19 16t3.5 14q0 28 -71 28q-38 0 -64.5 -11t-53.5 -42l-76 71q47 47 91.5 66t103.5 19q88 0 136 -36.5t48 -94.5q0 -22 -15 -47.5t-36 -39.5l1 -1 q58 -36 58 -100q0 -63 -55.5 -104.5t-138.5 -41.5q-118 0 -197 88z" />
<glyph unicode="&#xb4;" horiz-adv-x="755" d="M249 761l185 216l97 -96l-217 -186z" />
<glyph unicode="&#xb5;" horiz-adv-x="748" d="M83 -210v840h167v-371q0 -61 32 -93t85 -32q64 0 97 33t33 95v368h169v-636h-169v36l-1 -1q-59 -45 -137 -45q-66 0 -120 40l-1 -1v-233h-155z" />
<glyph unicode="&#xb6;" d="M0 543q0 110 84.5 188.5t202.5 78.5h413v-147h-76l8 -16v-828h-160v827l8 17h-78l9 -16v-828h-161v452q-1 0 -1.5 4t-1.5 4q-107 14 -177 88t-70 176z" />
<glyph unicode="&#xb7;" horiz-adv-x="316" d="M60 406q0 45 24 72.5t69 27.5t69 -27.5t24 -72.5t-24.5 -73t-68.5 -28q-45 0 -69 27.5t-24 73.5z" />
<glyph unicode="&#xb8;" horiz-adv-x="765" d="M296 -164l74 73q28 27 4 51l-44 44h104l32 -31q25 -25 25.5 -53t-26.5 -56l-98 -98z" />
<glyph unicode="&#xb9;" horiz-adv-x="331" d="M30 691l128 119h98v-455h-113v274l9 49q-14 -17 -35 -46l-13 -13z" />
<glyph unicode="&#xba;" horiz-adv-x="519" d="M30 604q0 95 56 155.5t161 60.5t161 -60t56 -156t-56.5 -156.5t-160.5 -60.5q-105 0 -161 60.5t-56 156.5zM137 604q0 -57 27.5 -89t82.5 -32t82.5 32t27.5 89q0 56 -27.5 88t-82.5 32q-110 0 -110 -120z" />
<glyph unicode="&#xbb;" horiz-adv-x="773" d="M55 130l92 94q29 20 45 30l-45 32l-92 94l103 104l233 -229l-233 -229zM382 130l92 94q29 20 45 30l-45 32l-92 94l103 104l233 -229l-233 -229z" />
<glyph unicode="&#xbc;" horiz-adv-x="872" d="M30 691l128 119h98v-455h-113v274l9 49q-14 -17 -35 -46l-13 -13zM176 -10l297 830h119l-297 -830h-119zM423 92v78l249 284h96v-248l-3 -10h52v-104h-53l3 -11l1 -82h-114v81l3 12h-234zM570 195h87l-4 9l1 89l-16 -25l-45 -52z" />
<glyph unicode="&#xbd;" horiz-adv-x="897" d="M30 691l128 119h98v-455h-113v274l9 49q-14 -17 -35 -46l-13 -13zM177 -10l297 830h120l-297 -830h-120zM487 363q79 91 184 91q82 0 126.5 -39.5t44.5 -96.5q0 -99 -125 -140l-64 -21q-39 -13 -45 -45q0 -3 -6 -9h240v-104h-349v94q0 53 30.5 98t92.5 66l54 18 q35 12 46.5 21.5t11.5 21.5q0 32 -57 32q-63 0 -108 -62z" />
<glyph unicode="&#xbe;" horiz-adv-x="1025" d="M55 443l78 74q30 -33 56 -46t63 -13q31 0 50.5 8.5t25 17t5.5 15.5q0 43 -71 49l-85 2v94q68 2 82 3q27 3 42.5 12t19 16t3.5 14q0 28 -71 28q-38 0 -64.5 -11t-53.5 -42l-76 71q47 47 91.5 66t103.5 19q88 0 136 -36.5t48 -94.5q0 -22 -15 -47.5t-36 -39.5l1 -1 q58 -36 58 -100q0 -63 -55.5 -104.5t-138.5 -41.5q-118 0 -197 88zM328 -10l297 830h120l-297 -830h-120zM575 92v78l250 284h96v-248l-3 -10h52v-104h-53l3 -11l1 -82h-114v81l3 12h-235zM723 195h87l-4 9l1 89l-16 -25l-45 -52z" />
<glyph unicode="&#xbf;" horiz-adv-x="719" d="M55 209q0 76 46.5 123t127.5 80q2 2 16.5 7t15.5 6q40 16 53.5 39t13.5 74v41h164v-52q0 -99 -41 -153t-129 -87q-1 -2 -11 -4.5t-11 -3.5q-38 -15 -55 -30.5t-17 -38.5q0 -30 37 -51.5t83 -21.5q113 0 193 100l123 -111q-130 -136 -316 -136q-121 0 -207 60.5t-86 158.5 zM317 721q0 45 24 72t68 27q45 0 69 -27t24 -72t-24 -72.5t-68 -27.5q-45 0 -69 27t-24 73z" />
<glyph unicode="&#xc0;" horiz-adv-x="959" d="M15 0l390 810h150l389 -810h-186l-85 178l10 15h-407l10 -15l-84 -178h-187zM348 1059l96 96l186 -217l-65 -65zM353 335h254l-17 16l-84 176l-25 74l-2 -1l-25 -73l-84 -176z" />
<glyph unicode="&#xc1;" horiz-adv-x="959" d="M15 0l390 810h150l389 -810h-186l-85 178l10 15h-407l10 -15l-84 -178h-187zM336 939l186 217l96 -97l-217 -186zM353 335h254l-17 16l-84 176l-25 74l-2 -1l-25 -73l-84 -176z" />
<glyph unicode="&#xc2;" horiz-adv-x="959" d="M15 0l390 810h150l389 -810h-186l-85 178l10 15h-407l10 -15l-84 -178h-187zM278 935l202 200h2l200 -200l-63 -63l-139 114l-139 -114zM353 335h254l-17 16l-84 176l-25 74l-2 -1l-25 -73l-84 -176z" />
<glyph unicode="&#xc3;" horiz-adv-x="959" d="M15 0l390 810h150l389 -810h-186l-85 178l10 15h-407l10 -15l-84 -178h-187zM236 937q15 51 57 87.5t95 36.5q27 0 53 -10t58 -29t43 -24q23 -10 39 -10q60 0 81 78l68 -68q-18 -56 -60.5 -89.5t-94.5 -33.5q-46 0 -108 38q-57 34 -85 34q-56 0 -79 -77zM353 335h254 l-17 16l-84 176l-25 74l-2 -1l-25 -73l-84 -176z" />
<glyph unicode="&#xc4;" horiz-adv-x="959" d="M15 0l390 810h150l389 -810h-186l-85 178l10 15h-407l10 -15l-84 -178h-187zM278 982q0 36 19.5 59t55.5 23q37 0 56.5 -22.5t19.5 -59.5t-20 -59.5t-56 -22.5t-55.5 22.5t-19.5 59.5zM353 335h254l-17 16l-84 176l-25 74l-2 -1l-25 -73l-84 -176zM531 982q0 36 19.5 59 t55.5 23q37 0 56.5 -22.5t19.5 -59.5t-20 -59.5t-56 -22.5t-55.5 22.5t-19.5 59.5z" />
<glyph unicode="&#xc5;" horiz-adv-x="959" d="M15 0l390 810h150l389 -810h-186l-85 178l10 15h-407l10 -15l-84 -178h-187zM353 335h254l-17 16l-84 176l-25 74l-2 -1l-25 -73l-84 -176zM358 1000q0 56 31.5 91t90.5 35t90.5 -35t31.5 -91q0 -55 -31.5 -90t-90.5 -35t-90.5 35t-31.5 90zM439 1000q0 -45 41 -45 q42 0 42 45q0 46 -42 46q-41 0 -41 -46z" />
<glyph unicode="&#xc6;" horiz-adv-x="1160" d="M15 0l390 810h685v-152h-388l8 -16v-145l-11 -16h343v-152h-343l11 -16v-145l-11 -16h391v-152h-550l-1 171l10 16h-272l5 -17l-81 -170h-186zM352 339h198l-10 16v287l9 16h-52l7 -16l-136 -289z" />
<glyph unicode="&#xc7;" horiz-adv-x="860" d="M55 400q0 187 115 303t320 116q213 0 339 -142l-117 -117q-79 108 -222 108q-132 0 -197 -73t-65 -195q0 -119 63.5 -189t197.5 -70q144 0 226 107l115 -114q-122 -133 -308 -143l17 -16q26 -24 26.5 -54t-26.5 -57l-98 -99l-71 71l73 73q26 26 5 47l-38 38 q-172 21 -263.5 129.5t-91.5 276.5z" />
<glyph unicode="&#xc8;" horiz-adv-x="830" d="M90 0v810h670v-152h-516l16 -16v-145l-16 -16h468v-152h-468l16 -16v-145l-16 -16h516v-152h-670zM272 1061l96 96l186 -217l-65 -65z" />
<glyph unicode="&#xc9;" horiz-adv-x="830" d="M90 0v810h670v-152h-516l16 -16v-145l-16 -16h468v-152h-468l16 -16v-145l-16 -16h516v-152h-670zM315 939l186 217l96 -96l-217 -186z" />
<glyph unicode="&#xca;" horiz-adv-x="830" d="M90 0v810h670v-152h-516l16 -16v-145l-16 -16h468v-152h-468l16 -16v-145l-16 -16h516v-152h-670zM231 935l202 200h2l200 -200l-63 -63l-139 114l-139 -114z" />
<glyph unicode="&#xcb;" horiz-adv-x="830" d="M90 0v810h670v-152h-516l16 -16v-145l-16 -16h468v-152h-468l16 -16v-145l-16 -16h516v-152h-670zM230 982q0 37 19.5 59.5t55.5 22.5q37 0 56.5 -22.5t19.5 -59.5q0 -36 -20 -58.5t-56 -22.5t-55.5 22t-19.5 59zM483 982q0 37 19.5 59.5t55.5 22.5q37 0 56.5 -22.5 t19.5 -59.5q0 -36 -20 -58.5t-56 -22.5t-55.5 22t-19.5 59z" />
<glyph unicode="&#xcc;" horiz-adv-x="360" d="M19 1061l96 96l186 -217l-65 -65zM95 0v810h170v-810h-170z" />
<glyph unicode="&#xcd;" horiz-adv-x="360" d="M50 939l186 217l97 -97l-217 -186zM95 0v810h170v-810h-170z" />
<glyph unicode="&#xce;" horiz-adv-x="360" d="M-23 935l202 200h2l200 -200l-62 -63l-140 114l-139 -114zM95 0v810h170v-810h-170z" />
<glyph unicode="&#xcf;" horiz-adv-x="360" d="M-21 981q0 37 19.5 59.5t55.5 22.5q37 0 56.5 -22.5t19.5 -59.5q0 -36 -20 -58.5t-55 -22.5q-36 0 -56 22.5t-20 58.5zM95 0v810h170v-810h-170zM232 981q0 37 19.5 59.5t55.5 22.5q37 0 56.5 -22.5t19.5 -59.5q0 -36 -20 -58.5t-55 -22.5q-36 0 -56 22.5t-20 58.5z" />
<glyph unicode="&#xd0;" horiz-adv-x="898" d="M25 329v152h74l-9 16v313h344q409 0 409 -405t-405 -405h-348v313l9 16h-74zM251 152h177q76 0 126 18t74.5 55t33 78t8.5 102q0 60 -9 101.5t-34 78.5t-75.5 55.5t-127.5 18.5h-173l9 -27v-135l-9 -16h204v-152h-204l9 -16v-134z" />
<glyph unicode="&#xd1;" horiz-adv-x="920" d="M90 0v810h143l369 -446l56 -92h2v538h170v-810h-143l-365 446l-60 95h-2v-541h-170zM211 938q14 51 56.5 87.5t95.5 36.5q26 0 53 -10.5t57.5 -28.5t43.5 -24q23 -10 38 -10q62 0 82 77l67 -68q-17 -56 -59.5 -89t-94.5 -33q-26 0 -51.5 10t-57.5 28.5t-43 23.5 q-25 10 -41 10q-56 0 -80 -77z" />
<glyph unicode="&#xd2;" horiz-adv-x="944" d="M55 400q0 187 109 303.5t308 116.5q200 0 308.5 -116.5t108.5 -303.5q0 -185 -109.5 -297.5t-307.5 -112.5q-200 0 -308.5 112t-108.5 298zM228 400q0 -119 60 -188.5t184 -69.5q125 0 184.5 69t59.5 189q0 122 -60 195t-184 73t-184 -72.5t-60 -195.5zM314 1061l97 96 l185 -217l-65 -65z" />
<glyph unicode="&#xd3;" horiz-adv-x="944" d="M55 400q0 187 109 303.5t308 116.5q200 0 308.5 -116.5t108.5 -303.5q0 -185 -109.5 -297.5t-307.5 -112.5q-200 0 -308.5 112t-108.5 298zM228 400q0 -119 60 -188.5t184 -69.5q125 0 184.5 69t59.5 189q0 122 -60 195t-184 73t-184 -72.5t-60 -195.5zM347 939l186 217 l96 -96l-217 -186z" />
<glyph unicode="&#xd4;" horiz-adv-x="944" d="M55 400q0 187 109 303.5t308 116.5q200 0 308.5 -116.5t108.5 -303.5q0 -185 -109.5 -297.5t-307.5 -112.5q-200 0 -308.5 112t-108.5 298zM228 400q0 -119 60 -188.5t184 -69.5q125 0 184.5 69t59.5 189q0 122 -60 195t-184 73t-184 -72.5t-60 -195.5zM270 935l202 200 h2l200 -200l-62 -63l-140 114l-139 -114z" />
<glyph unicode="&#xd5;" horiz-adv-x="944" d="M55 400q0 187 109 303.5t308 116.5q200 0 308.5 -116.5t108.5 -303.5q0 -185 -109.5 -297.5t-307.5 -112.5q-200 0 -308.5 112t-108.5 298zM219 937q14 51 56.5 87.5t95.5 36.5q27 0 53.5 -10.5t57 -28.5t43.5 -24q23 -10 38 -10q61 0 82 78l67 -68q-17 -56 -59.5 -89.5 t-94.5 -33.5q-46 0 -108 38q-57 34 -85 34q-56 0 -80 -77zM228 400q0 -119 60 -188.5t184 -69.5q125 0 184.5 69t59.5 189q0 122 -60 195t-184 73t-184 -72.5t-60 -195.5z" />
<glyph unicode="&#xd6;" horiz-adv-x="944" d="M55 400q0 187 109 303.5t308 116.5q200 0 308.5 -116.5t108.5 -303.5q0 -185 -109.5 -297.5t-307.5 -112.5q-200 0 -308.5 112t-108.5 298zM228 400q0 -119 60 -188.5t184 -69.5q125 0 184.5 69t59.5 189q0 122 -60 195t-184 73t-184 -72.5t-60 -195.5zM270 982 q0 36 19.5 59t55.5 23q37 0 56.5 -22.5t19.5 -59.5t-20 -59.5t-56 -22.5t-55.5 22.5t-19.5 59.5zM523 982q0 36 19.5 59t55.5 23q37 0 56.5 -22.5t19.5 -59.5t-20 -59.5t-56 -22.5t-55.5 22.5t-19.5 59.5z" />
<glyph unicode="&#xd7;" horiz-adv-x="665" d="M75 246l163 159l-163 159l99 98l158 -162l159 162l99 -98l-163 -159l163 -159l-99 -98l-158 162l-159 -162z" />
<glyph unicode="&#xd8;" horiz-adv-x="944" d="M55 400q0 187 109 304t308 117q81 0 155 -23v17l31 51l99 -59l-26 -44l-13 -8q171 -115 171 -355q0 -186 -110 -299t-307 -113q-110 0 -187 33l2 -18l-49 -85l-100 59l48 82l16 7q-72 56 -109.5 142.5t-37.5 191.5zM228 400q0 -116 59 -187l1 21l243 416l15 9 q-29 10 -74 10q-124 0 -184 -73t-60 -196zM369 159q40 -18 103 -18q125 0 184.5 69.5t59.5 189.5q0 151 -81 216v-17l-251 -430z" />
<glyph unicode="&#xd9;" horiz-adv-x="932" d="M85 373v437h170v-436q0 -118 49 -175t162 -57q112 0 161.5 57t49.5 175v436h170v-437q0 -185 -95 -284t-285 -99q-191 0 -286.5 98.5t-95.5 284.5zM308 1061l97 96l185 -217l-65 -65z" />
<glyph unicode="&#xda;" horiz-adv-x="932" d="M85 373v437h170v-436q0 -118 49 -175t162 -57q112 0 161.5 57t49.5 175v436h170v-437q0 -185 -95 -284t-285 -99q-191 0 -286.5 98.5t-95.5 284.5zM331 939l186 217l96 -97l-217 -186z" />
<glyph unicode="&#xdb;" horiz-adv-x="932" d="M85 373v437h170v-436q0 -118 49 -175t162 -57q112 0 161.5 57t49.5 175v436h170v-437q0 -185 -95 -284t-285 -99q-191 0 -286.5 98.5t-95.5 284.5zM262 935l200 200h2l202 -200l-63 -63l-139 114l-139 -114z" />
<glyph unicode="&#xdc;" horiz-adv-x="932" d="M85 373v437h170v-436q0 -118 49 -175t162 -57q112 0 161.5 57t49.5 175v436h170v-437q0 -185 -95 -284t-285 -99q-191 0 -286.5 98.5t-95.5 284.5zM264 982q0 36 19.5 59t55.5 23q37 0 56.5 -22.5t19.5 -59.5t-20 -59.5t-55 -22.5q-37 0 -56.5 22.5t-19.5 59.5zM517 982 q0 36 19.5 59t55.5 23q37 0 56.5 -22.5t19.5 -59.5t-20 -59.5t-55 -22.5q-37 0 -56.5 22.5t-19.5 59.5z" />
<glyph unicode="&#xdd;" horiz-adv-x="938" d="M15 810h213l195 -259l45 -77h2l44 77l197 259h212l-368 -476v-334h-171v334zM345 938l186 217l96 -96l-216 -186z" />
<glyph unicode="&#xde;" horiz-adv-x="847" d="M90 0v810h169v-127l-16 -16h254q142 0 223.5 -72.5t81.5 -190.5q0 -114 -82.5 -188.5t-222.5 -74.5h-253l16 -16v-125h-170zM244 292h253q68 0 100 30t32 82q0 112 -132 112h-253l16 -17v-190z" />
<glyph unicode="&#xdf;" horiz-adv-x="732" d="M72 -1l1 625q0 115 73.5 168t190.5 53q133 0 213 -63.5t80 -171.5q0 -44 -23 -84.5t-61 -62.5v-2q61 -18 102.5 -74.5t41.5 -132.5q0 -115 -80 -190t-203 -75q-80 0 -139 22v158q66 -30 130 -30q58 0 91.5 30t33.5 84t-36 87t-95 33h-122v148l85 -1q107 -1 107 85 q0 41 -35 66t-91 25q-55 0 -75.5 -21.5t-20.5 -74.5v-601h-168z" />
<glyph unicode="&#xe0;" horiz-adv-x="758" d="M50 196q0 210 421 210q50 0 56 -1l-17 16q-3 39 -36.5 59.5t-90.5 20.5q-105 0 -185 -53l-103 104q123 87 290 87q134 0 214.5 -62t80.5 -186v-392h-167v36h-2q-70 -46 -176 -46q-51 0 -97.5 10t-90.5 32t-70.5 64.5t-26.5 100.5zM216 194q0 -33 36 -49.5t89 -16.5 q172 0 172 69v60l16 16q-6 1 -38 1t-53.5 -0.5t-58.5 -2.5t-61.5 -7.5t-50 -13.5t-38.5 -22.5t-13 -33.5zM229 881l96 96l186 -216l-66 -66z" />
<glyph unicode="&#xe1;" horiz-adv-x="758" d="M50 196q0 210 421 210q50 0 56 -1l-17 16q-3 39 -36.5 59.5t-90.5 20.5q-105 0 -185 -53l-103 104q123 87 290 87q134 0 214.5 -62t80.5 -186v-392h-167v36h-2q-70 -46 -176 -46q-51 0 -97.5 10t-90.5 32t-70.5 64.5t-26.5 100.5zM216 194q0 -33 36 -49.5t89 -16.5 q172 0 172 69v60l16 16q-6 1 -38 1t-53.5 -0.5t-58.5 -2.5t-61.5 -7.5t-50 -13.5t-38.5 -22.5t-13 -33.5zM257 761l186 216l96 -96l-217 -186z" />
<glyph unicode="&#xe2;" horiz-adv-x="758" d="M50 196q0 210 421 210q50 0 56 -1l-17 16q-3 39 -36.5 59.5t-90.5 20.5q-105 0 -185 -53l-103 104q123 87 290 87q134 0 214.5 -62t80.5 -186v-392h-167v36h-2q-70 -46 -176 -46q-51 0 -97.5 10t-90.5 32t-70.5 64.5t-26.5 100.5zM163 759l202 200h2l201 -200l-63 -63 l-140 114l-139 -114zM216 194q0 -33 36 -49.5t89 -16.5q172 0 172 69v60l16 16q-6 1 -38 1t-53.5 -0.5t-58.5 -2.5t-61.5 -7.5t-50 -13.5t-38.5 -22.5t-13 -33.5z" />
<glyph unicode="&#xe3;" horiz-adv-x="758" d="M50 196q0 210 421 210q50 0 56 -1l-17 16q-3 39 -36.5 59.5t-90.5 20.5q-105 0 -185 -53l-103 104q123 87 290 87q134 0 214.5 -62t80.5 -186v-392h-167v36h-2q-70 -46 -176 -46q-51 0 -97.5 10t-90.5 32t-70.5 64.5t-26.5 100.5zM121 774q14 51 56.5 87.5t95.5 36.5 q45 0 110 -38q52 -35 83 -35q60 0 81 78l68 -68q-18 -56 -60.5 -89.5t-94.5 -33.5q-46 0 -108 38q-57 34 -85 34q-56 0 -79 -77zM216 194q0 -17 10.5 -30t28 -20.5t39.5 -11.5t47 -4t49 2t55 8.5t49.5 21.5t18.5 37v60l16 16q-6 1 -38 1h-39t-42.5 -1t-47 -3.5t-43.5 -6 t-41 -9.5t-32 -14t-22.5 -20t-7.5 -26z" />
<glyph unicode="&#xe4;" horiz-adv-x="758" d="M50 196q0 210 421 210q50 0 56 -1l-17 16q-3 39 -36.5 59.5t-90.5 20.5q-105 0 -185 -53l-103 104q123 87 290 87q134 0 214.5 -62t80.5 -186v-392h-167v36h-2q-70 -46 -176 -46q-51 0 -97.5 10t-90.5 32t-70.5 64.5t-26.5 100.5zM164 789q0 37 19.5 59.5t55.5 22.5 q37 0 56.5 -22.5t19.5 -59.5q0 -36 -20 -59t-56 -23t-55.5 22.5t-19.5 59.5zM216 194q0 -33 36 -49.5t89 -16.5q172 0 172 69v60l16 16q-6 1 -38 1t-53.5 -0.5t-58.5 -2.5t-61.5 -7.5t-50 -13.5t-38.5 -22.5t-13 -33.5zM417 789q0 37 19.5 59.5t55.5 22.5q37 0 56.5 -22.5 t19.5 -59.5q0 -36 -20 -59t-56 -23t-55.5 22.5t-19.5 59.5z" />
<glyph unicode="&#xe5;" horiz-adv-x="758" d="M50 196q0 210 421 210q50 0 56 -1l-17 16q-3 39 -36.5 59.5t-90.5 20.5q-105 0 -185 -53l-103 104q123 87 290 87q134 0 214.5 -62t80.5 -186v-392h-167v36h-2q-70 -46 -176 -46q-51 0 -97.5 10t-90.5 32t-70.5 64.5t-26.5 100.5zM216 194q0 -33 36 -49.5t89 -16.5 q172 0 172 69v60l16 16q-6 1 -38 1t-53.5 -0.5t-58.5 -2.5t-61.5 -7.5t-50 -13.5t-38.5 -22.5t-13 -33.5zM261 820q0 56 31 90.5t90 34.5t90.5 -34.5t31.5 -90.5q0 -55 -31.5 -90t-89.5 -35q-59 0 -90.5 34.5t-31.5 90.5zM341 820q0 -45 42 -45q41 0 41 45q0 46 -41 46 q-42 0 -42 -46z" />
<glyph unicode="&#xe6;" horiz-adv-x="1189" d="M50 198q0 210 411 210l55 -1l-16 17q-4 80 -124 80q-109 0 -183 -60l-102 102q121 93 282 93q153 0 228 -103l2 1q35 46 93 74.5t126 28.5q148 0 232.5 -95.5t84.5 -234.5q0 -8 -4 -65h-476l15 -16q37 -100 152 -100q87 0 162 66l102 -99q-114 -105 -264 -105 q-130 0 -230 94l-1 -1q-80 -95 -253 -95q-55 0 -104 11t-92.5 34t-69.5 65.5t-26 98.5zM218 196q0 -64 124 -64q163 0 163 70v55l14 18h-32q-35 0 -53 -0.5t-56.5 -2t-61 -7t-48 -13.5t-38 -22.5t-12.5 -33.5zM659 385h323l-14 16q-39 101 -146 101q-108 0 -148 -101z" />
<glyph unicode="&#xe7;" horiz-adv-x="679" d="M50 311q0 142 90.5 235.5t248.5 93.5q161 0 260 -99l-110 -110q-62 65 -149 65q-83 0 -128 -51.5t-45 -134.5q0 -80 42 -128.5t129 -48.5q86 0 155 68l109 -109q-95 -90 -230 -101l17 -16q26 -24 26.5 -54t-26.5 -57l-98 -99l-71 71l73 73q28 28 6 48l-38 39 q-128 20 -194.5 106t-66.5 209z" />
<glyph unicode="&#xe8;" d="M50 310q0 146 90 238t247 92q161 0 247 -92.5t86 -237.5q0 -33 -4 -60h-503l15 -16q18 -49 61.5 -77.5t106.5 -28.5q91 0 164 60l101 -102q-111 -96 -265 -96q-168 0 -257 89.5t-89 230.5zM215 384h342l-16 16q-36 103 -154 103q-115 0 -157 -103zM225 881l96 96 l186 -216l-66 -66z" />
<glyph unicode="&#xe9;" d="M50 310q0 146 90 238t247 92q161 0 247 -92.5t86 -237.5q0 -33 -4 -60h-503l15 -16q18 -49 61.5 -77.5t106.5 -28.5q91 0 164 60l101 -102q-111 -96 -265 -96q-168 0 -257 89.5t-89 230.5zM215 384h342l-16 16q-36 103 -154 103q-115 0 -157 -103zM256 761l186 216 l96 -96l-217 -186z" />
<glyph unicode="&#xea;" d="M50 310q0 146 90 238t247 92q161 0 247 -92.5t86 -237.5q0 -33 -4 -60h-503l15 -16q18 -49 61.5 -77.5t106.5 -28.5q91 0 164 60l101 -102q-111 -96 -265 -96q-168 0 -257 89.5t-89 230.5zM183 759l202 200h2l201 -200l-63 -63l-140 114l-139 -114zM215 384h342l-16 16 q-36 103 -154 103q-115 0 -157 -103z" />
<glyph unicode="&#xeb;" d="M50 310q0 146 90 238t247 92q161 0 247 -92.5t86 -237.5q0 -33 -4 -60h-503l15 -16q18 -49 61.5 -77.5t106.5 -28.5q91 0 164 60l101 -102q-111 -96 -265 -96q-168 0 -257 89.5t-89 230.5zM180 789q0 37 19.5 59.5t56.5 22.5q36 0 55.5 -22.5t19.5 -59.5q0 -36 -20 -59 t-55 -23q-36 0 -56 22.5t-20 59.5zM215 384h342l-16 16q-36 103 -154 103q-115 0 -157 -103zM433 789q0 37 19.5 59.5t56.5 22.5q36 0 55.5 -22.5t19.5 -59.5q0 -36 -20 -59t-55 -23q-36 0 -56 22.5t-20 59.5z" />
<glyph unicode="&#xec;" horiz-adv-x="332" d="M10 881l96 96l186 -216l-66 -66zM83 0v630h167v-630h-167z" />
<glyph unicode="&#xed;" horiz-adv-x="332" d="M29 761l186 216l96 -96l-217 -186zM83 0v630h167v-630h-167z" />
<glyph unicode="&#xee;" horiz-adv-x="332" d="M-36 759l202 200h2l201 -200l-63 -63l-140 114l-139 -114zM83 0v630h167v-630h-167z" />
<glyph unicode="&#xef;" horiz-adv-x="332" d="M-36 789q0 37 19.5 59.5t55.5 22.5q37 0 56.5 -22.5t19.5 -59.5q0 -36 -20 -59t-56 -23t-55.5 22.5t-19.5 59.5zM83 0v630h167v-630h-167zM217 789q0 37 19.5 59.5t55.5 22.5q37 0 56.5 -22.5t19.5 -59.5q0 -36 -20 -59t-56 -23t-55.5 22.5t-19.5 59.5z" />
<glyph unicode="&#xf0;" horiz-adv-x="693" d="M43 296q0 126 71 208.5t198 89.5q27 0 45 -3l-41 60l-3 10l-84 -40l-59 95l79 40l-8 8l-53 82h178l14 -20l4 -10l73 36l61 -94l-73 -38l9 -7l127 -192q62 -95 62 -225q0 -134 -79 -220t-222 -86t-221 85.5t-78 220.5zM195 290q0 -75 37.5 -116t110.5 -41t110 40.5 t37 116.5q0 38 -9.5 69t-27.5 53.5t-46.5 35t-64.5 12.5q-72 0 -109.5 -46t-37.5 -124z" />
<glyph unicode="&#xf1;" horiz-adv-x="788" d="M83 0v631h167v-55h2q71 64 182 64q127 0 202 -66t75 -183l-1 -391h-166v375q0 63 -27.5 92t-111.5 29q-71 0 -113 -33.5t-42 -94.5v-368h-167zM147 774q15 51 57.5 87.5t95.5 36.5q46 0 109 -38q53 -35 83 -35q61 0 82 78l67 -68q-18 -57 -60 -90t-95 -33q-44 0 -108 38 q-53 34 -84 34q-56 0 -80 -77z" />
<glyph unicode="&#xf2;" d="M50 315q0 144 86.5 234.5t247.5 90.5q163 0 249.5 -90.5t86.5 -234.5q0 -143 -87 -234t-248 -91q-162 0 -248.5 90.5t-86.5 234.5zM217 315q0 -84 42 -133t126 -49q85 0 126.5 48.5t41.5 133.5q0 84 -41.5 132.5t-126.5 48.5t-126.5 -48t-41.5 -133zM217 881l96 96 l186 -216l-65 -66z" />
<glyph unicode="&#xf3;" d="M50 315q0 144 86.5 234.5t247.5 90.5q163 0 249.5 -90.5t86.5 -234.5q0 -143 -87 -234t-248 -91q-162 0 -248.5 90.5t-86.5 234.5zM217 315q0 -84 42 -133t126 -49q85 0 126.5 48.5t41.5 133.5q0 84 -41.5 132.5t-126.5 48.5t-126.5 -48t-41.5 -133zM258 761l185 216 l97 -96l-217 -186z" />
<glyph unicode="&#xf4;" d="M50 315q0 144 86.5 234.5t247.5 90.5q163 0 249.5 -90.5t86.5 -234.5q0 -143 -87 -234t-248 -91q-162 0 -248.5 90.5t-86.5 234.5zM181 759l202 200h2l200 -200l-63 -63l-139 114l-139 -114zM217 315q0 -84 42 -133t126 -49q85 0 126.5 48.5t41.5 133.5q0 84 -41.5 132.5 t-126.5 48.5t-126.5 -48t-41.5 -133z" />
<glyph unicode="&#xf5;" d="M50 315q0 144 86.5 234.5t247.5 90.5q163 0 249.5 -90.5t86.5 -234.5q0 -143 -87 -234t-248 -91q-162 0 -248.5 90.5t-86.5 234.5zM130 774q15 51 57.5 87.5t95.5 36.5q46 0 109 -38q53 -35 83 -35q61 0 82 78l67 -68q-9 -28 -24.5 -51t-35.5 -39t-44.5 -24.5t-50.5 -8.5 q-44 0 -108 38q-53 34 -84 34q-56 0 -80 -77zM217 315q0 -84 42 -133t126 -49q85 0 126.5 48.5t41.5 133.5q0 84 -41.5 132.5t-126.5 48.5t-126.5 -48t-41.5 -133z" />
<glyph unicode="&#xf6;" d="M50 315q0 144 86.5 234.5t247.5 90.5q163 0 249.5 -90.5t86.5 -234.5q0 -143 -87 -234t-248 -91q-162 0 -248.5 90.5t-86.5 234.5zM183 789q0 36 19.5 59t55.5 23t56 -22.5t20 -59.5t-20 -59.5t-56 -22.5t-55.5 22.5t-19.5 59.5zM217 315q0 -84 42 -133t126 -49 q85 0 126.5 48.5t41.5 133.5q0 84 -41.5 132.5t-126.5 48.5t-126.5 -48t-41.5 -133zM436 789q0 36 19.5 59t55.5 23t56 -22.5t20 -59.5t-20 -59.5t-56 -22.5t-55.5 22.5t-19.5 59.5z" />
<glyph unicode="&#xf7;" horiz-adv-x="700" d="M85 333v145h530v-145h-530zM262 163q0 43 22.5 68.5t63.5 25.5q42 0 64.5 -25.5t22.5 -68.5q0 -44 -22.5 -69.5t-64.5 -25.5t-64 25.5t-22 69.5zM262 647q0 44 22.5 69.5t63.5 25.5q42 0 64.5 -25.5t22.5 -69.5q0 -43 -22.5 -68.5t-64.5 -25.5t-64 25.5t-22 68.5z" />
<glyph unicode="&#xf8;" horiz-adv-x="720" d="M50 315q0 144 79.5 234.5t229.5 90.5q76 0 130 -24l2 20l36 63l94 -53l-38 -63l-15 -9q102 -94 102 -259q0 -144 -79.5 -235t-228.5 -91q-76 0 -130 22v-21l-38 -63l-92 55l37 62l16 11q-51 43 -78 112t-27 148zM206 315q0 -78 33 -120l4 24l151 257l18 12q-21 8 -52 8 q-78 0 -116 -47.5t-38 -133.5zM311 142q16 -8 49 -8q78 0 116 47.5t38 133.5q0 74 -30 120l-4 -26l-149 -251z" />
<glyph unicode="&#xf9;" horiz-adv-x="780" d="M78 246v384h167v-375q0 -60 30.5 -90.5t103.5 -30.5q70 0 111 33.5t41 94.5v368h167v-631h-167v55h-2q-64 -64 -175 -64q-139 0 -208 68t-68 188zM222 881l96 96l186 -216l-65 -66z" />
<glyph unicode="&#xfa;" horiz-adv-x="780" d="M78 246v384h167v-375q0 -60 30.5 -90.5t103.5 -30.5q70 0 111 33.5t41 94.5v368h167v-631h-167v55h-2q-64 -64 -175 -64q-139 0 -208 68t-68 188zM264 761l186 216l96 -96l-217 -186z" />
<glyph unicode="&#xfb;" horiz-adv-x="780" d="M78 246v384h167v-375q0 -60 30.5 -90.5t103.5 -30.5q70 0 111 33.5t41 94.5v368h167v-631h-167v55h-2q-64 -64 -175 -64q-139 0 -208 68t-68 188zM182 759l202 200h2l201 -200l-63 -63l-140 114l-139 -114z" />
<glyph unicode="&#xfc;" horiz-adv-x="780" d="M78 246v384h167v-375q0 -60 30.5 -90.5t103.5 -30.5q70 0 111 33.5t41 94.5v368h167v-631h-167v55h-2q-64 -64 -175 -64q-139 0 -208 68t-68 188zM185 789q0 37 19.5 59.5t56.5 22.5q36 0 55.5 -22.5t19.5 -59.5q0 -36 -20 -59t-55 -23q-36 0 -56 22.5t-20 59.5zM438 789 q0 37 19.5 59.5t56.5 22.5q36 0 55.5 -22.5t19.5 -59.5q0 -36 -20 -59t-55 -23q-36 0 -56 22.5t-20 59.5z" />
<glyph unicode="&#xfd;" horiz-adv-x="771" d="M14 630h184l168 -362l29 -85h2l27 85l150 362h184l-305 -689q-32 -71 -88.5 -113.5t-128.5 -42.5q-81 0 -156 37v151q86 -45 139 -45q29 0 51.5 16t42.5 64zM256 761l185 216l97 -96l-217 -186z" />
<glyph unicode="&#xfe;" horiz-adv-x="791" d="M83 -210v1050h167v-246h1q57 45 160 45q162 0 246 -88.5t84 -236.5q0 -149 -83.5 -236.5t-246.5 -87.5q-55 0 -94 9.5t-73 36.5v-1q3 -12 4.5 -73.5t1.5 -116.5v-55h-167zM241 314q0 -88 39 -132t127 -44t127.5 44.5t39.5 131.5t-39.5 132t-126.5 45q-167 0 -167 -177z " />
<glyph unicode="&#xff;" horiz-adv-x="771" d="M14 630h184l165 -351l32 -94h2l28 94l149 351h184l-306 -689q-32 -71 -88.5 -113.5t-128.5 -42.5q-80 0 -155 37v151q86 -45 139 -45q58 0 94 86zM178 789q0 37 19.5 59.5t56.5 22.5q36 0 55.5 -22.5t19.5 -59.5q0 -36 -20 -59t-55 -23q-36 0 -56 22.5t-20 59.5zM431 789 q0 37 19.5 59.5t56.5 22.5q36 0 55.5 -22.5t19.5 -59.5q0 -36 -20 -59t-55 -23q-36 0 -56 22.5t-20 59.5z" />
<glyph unicode="&#x152;" horiz-adv-x="1167" d="M55 400q0 89 21.5 164.5t63 133t108.5 90t152 32.5q104 0 162 -55v46h535v-152h-372l8 -17l-1 -146l-8 -15h335v-152h-335l8 -17v-143l-8 -18h373v-152h-535v47q-62 -56 -162 -56q-168 0 -256.5 113.5t-88.5 296.5zM228 400q0 -122 44.5 -190t127.5 -68t127.5 68 t44.5 190q0 124 -45 196t-127 72t-127 -71t-45 -197z" />
<glyph unicode="&#x153;" horiz-adv-x="1214" d="M50 315q0 145 82 235t242 90q142 0 229 -87q96 87 228 87q161 0 247 -92t86 -237q0 -34 -4 -61h-504l16 -16q18 -49 61.5 -77.5t106.5 -28.5q90 0 164 61l101 -102q-110 -97 -266 -97q-147 0 -239 85q-82 -85 -225 -85q-161 0 -243 90t-82 235zM214 315q0 -182 161 -182 q158 0 158 182q0 181 -158 181q-161 0 -161 -181zM657 384h342l-16 16q-36 103 -154 103q-115 0 -157 -103z" />
<glyph unicode="&#x178;" horiz-adv-x="928" d="M15 810h213l188 -255l47 -80h2l47 80l189 255h212l-363 -476v-334h-171v334zM258 982q0 36 19.5 59t55.5 23q37 0 56.5 -22.5t19.5 -59.5t-20 -59.5t-55 -22.5q-37 0 -56.5 22.5t-19.5 59.5zM511 982q0 36 19.5 59t55.5 23q37 0 56.5 -22.5t19.5 -59.5t-20 -59.5 t-55 -22.5q-37 0 -56.5 22.5t-19.5 59.5z" />
<glyph unicode="&#x2c6;" horiz-adv-x="764" d="M178 759l202 200h2l201 -200l-63 -63l-140 114l-139 -114z" />
<glyph unicode="&#x2dc;" horiz-adv-x="764" d="M122 774q15 51 57.5 87.5t95.5 36.5q46 0 109 -38q53 -35 83 -35q61 0 82 78l67 -68q-18 -57 -60 -90t-95 -33q-44 0 -108 38q-53 34 -84 34q-56 0 -80 -77z" />
<glyph unicode="&#x2000;" horiz-adv-x="578" />
<glyph unicode="&#x2001;" horiz-adv-x="1157" />
<glyph unicode="&#x2002;" horiz-adv-x="578" />
<glyph unicode="&#x2003;" horiz-adv-x="1157" />
<glyph unicode="&#x2004;" horiz-adv-x="385" />
<glyph unicode="&#x2005;" horiz-adv-x="289" />
<glyph unicode="&#x2006;" horiz-adv-x="192" />
<glyph unicode="&#x2007;" horiz-adv-x="192" />
<glyph unicode="&#x2008;" horiz-adv-x="144" />
<glyph unicode="&#x2009;" horiz-adv-x="231" />
<glyph unicode="&#x200a;" horiz-adv-x="64" />
<glyph unicode="&#x2010;" horiz-adv-x="425" d="M30 264v143h365v-143h-365z" />
<glyph unicode="&#x2011;" horiz-adv-x="425" d="M30 264v143h365v-143h-365z" />
<glyph unicode="&#x2012;" horiz-adv-x="425" d="M30 264v143h365v-143h-365z" />
<glyph unicode="&#x2013;" horiz-adv-x="664" d="M30 264v143h604v-143h-604z" />
<glyph unicode="&#x2014;" horiz-adv-x="939" d="M30 264v143h879v-143h-879z" />
<glyph unicode="&#x2018;" horiz-adv-x="257" d="M45 574q0 28 13 58l82 195l72 -31l-48 -115l-23 -18q34 -3 52.5 -27.5t18.5 -61.5q0 -41 -21.5 -66t-61.5 -25t-62 25t-22 66z" />
<glyph unicode="&#x2019;" horiz-adv-x="257" d="M45 507l49 116l22 18q-34 2 -52.5 26.5t-18.5 61.5q0 41 22 66t62 25t61.5 -25t21.5 -66q0 -27 -13 -57l-82 -196z" />
<glyph unicode="&#x201a;" horiz-adv-x="257" d="M45 78q0 41 22 65.5t62 24.5t61.5 -24.5t21.5 -65.5q0 -28 -13 -58l-82 -195l-72 31l49 115l22 18q-34 3 -52.5 27.5t-18.5 61.5z" />
<glyph unicode="&#x201c;" horiz-adv-x="464" d="M45 574q0 28 13 58l82 195l72 -31l-48 -115l-23 -18q34 -3 52.5 -27.5t18.5 -61.5q0 -41 -21.5 -66t-61.5 -25t-62 25t-22 66zM252 574q0 23 13 58l82 195l72 -31l-48 -115l-23 -18q34 -3 52.5 -27.5t18.5 -61.5q0 -41 -21.5 -66t-61.5 -25t-62 25t-22 66z" />
<glyph unicode="&#x201d;" horiz-adv-x="464" d="M45 507l49 116l22 18q-34 2 -52.5 26.5t-18.5 61.5q0 41 22 66t62 25t61.5 -25t21.5 -66q0 -27 -13 -57l-82 -196zM252 507l49 116l22 18q-34 2 -52.5 26.5t-18.5 61.5q0 41 22 66t62 25t61.5 -25t21.5 -66q0 -27 -13 -57l-82 -196z" />
<glyph unicode="&#x201e;" horiz-adv-x="464" d="M45 78q0 41 22 65.5t62 24.5t61.5 -24.5t21.5 -65.5q0 -28 -13 -58l-82 -195l-72 31l49 115l22 18q-34 3 -52.5 27.5t-18.5 61.5zM252 78q0 41 22 65.5t62 24.5t61.5 -24.5t21.5 -65.5q0 -28 -13 -58l-82 -195l-72 31l49 115l22 18q-34 3 -52.5 27.5t-18.5 61.5z" />
<glyph unicode="&#x2022;" horiz-adv-x="439" d="M0 405q0 72 51 123t124 51q72 0 123 -51t51 -123q0 -73 -51 -124t-123 -51q-73 0 -124 51t-51 124z" />
<glyph unicode="&#x2026;" horiz-adv-x="876" d="M60 85q0 43 23 69.5t65 26.5t65 -26t23 -70q0 -42 -23 -68.5t-65 -26.5t-65 26t-23 69zM345 85q0 43 23 69.5t65 26.5t65 -26t23 -70q0 -42 -23 -68.5t-65 -26.5t-65 26t-23 69zM630 85q0 43 23 69.5t65 26.5t65 -26t23 -70q0 -42 -23 -68.5t-65 -26.5t-65 26t-23 69z " />
<glyph unicode="&#x202f;" horiz-adv-x="231" />
<glyph unicode="&#x2039;" horiz-adv-x="446" d="M55 255l233 229l103 -104l-93 -94l-44 -32l44 -30l93 -94l-103 -104z" />
<glyph unicode="&#x203a;" horiz-adv-x="446" d="M55 130l92 94q29 20 45 30l-45 32l-92 94l103 104l233 -229l-233 -229z" />
<glyph unicode="&#x205f;" horiz-adv-x="289" />
<glyph unicode="&#x20ac;" horiz-adv-x="755" d="M40 257v119h68l-10 10v14v7.5v10.5v7l11 9h-69v119h90l-8 14q37 118 119 185.5t197 67.5q174 0 267 -134l-107 -109q-51 94 -156 94q-98 0 -149 -103l-20 -15h249v-119h-275l9 -9v-39l-10 -10h276v-119h-253l20 -15q50 -103 149 -103q103 0 157 96l107 -109 q-96 -136 -264 -136q-119 0 -202 68t-116 184l8 15h-88z" />
<glyph unicode="&#x2122;" horiz-adv-x="877" d="M23 735v74h372v-74h-151l6 -12v-319h-82v318l6 13h-151zM433 404v405h73q24 -46 69.5 -130.5t57.5 -106.5l16 -42l16 42l129 237h71v-405h-83v228l-11 -27l-119 -206h-7l-121 207l-9 26v-228h-82z" />
<glyph unicode="&#x25fc;" horiz-adv-x="630" d="M0 0v630h630v-630h-630z" />
<glyph unicode="&#xfb01;" horiz-adv-x="815" d="M28 496v133h98l-8 16q0 93 64.5 147t168.5 54q69 0 119 -17v-134q-46 17 -95 17q-41 0 -65.5 -16t-23.5 -51l-10 -16l456 1v-630h-167v496h-288l8 -16v-480h-167v481l8 15h-98zM559 764q0 39 25.5 65.5t64.5 26.5q40 0 65 -26t25 -66q0 -39 -25.5 -65.5t-64.5 -26.5 q-40 0 -65 26t-25 66z" />
<glyph unicode="&#xfb02;" horiz-adv-x="805" d="M28 496v133h98l-8 16q0 92 63.5 143t169.5 51l371 1v-840h-167v709q-14 0 -64.5 1.5t-75.5 1.5t-40 -2q-89 0 -89 -65l-10 -16h189v-133h-188l8 -16v-480h-167v481l8 15h-98z" />
</font>
</defs>
</svg>
