<?xml version="1.0" standalone="no"?>
<!DOCTYPE svg PUBLIC "-//W3C//DTD SVG 1.1//EN" "http://www.w3.org/Graphics/SVG/1.1/DTD/svg11.dtd" >
<svg xmlns="http://www.w3.org/2000/svg">
<metadata></metadata>
<defs>
<font id="bpdotsdiamondlight" horiz-adv-x="600" >
<font-face units-per-em="1000" ascent="800" descent="-200" />
<missing-glyph horiz-adv-x="500" />
<glyph horiz-adv-x="1000" />
<glyph horiz-adv-x="1000" />
<glyph unicode="&#xd;" horiz-adv-x="1000" />
<glyph unicode=" " />
<glyph unicode="!" d="M227 26q17 19 25 28l27 -28l-27 -25zM227 128q17 19 25 28l27 -28l-27 -25zM227 331l25 27l27 -27l-27 -25zM227 433l25 26l27 -26l-27 -26zM227 534l25 27l27 -27l-27 -25zM227 636l25 26l27 -26l-27 -26z" />
<glyph unicode="&#x22;" d="M125 433l25 26l27 -26l-27 -26zM226 534l26 27l26 -27l-26 -25zM226 636l26 26l26 -26l-26 -26zM328 433l25 26l27 -26l-27 -26zM430 534l26 27l26 -27l-26 -25zM430 636l26 26l26 -26l-26 -26z" />
<glyph unicode="#" d="M24 230l25 26l26 -26l-26 -26zM24 433l25 26l26 -26l-26 -26zM125 26q4 4 26 28l26 -28l-26 -25zM125 128q4 4 26 28l26 -28l-26 -25zM125 230l26 26l26 -26l-26 -26zM125 331l26 27l26 -27l-26 -25zM125 433l26 26l26 -26l-26 -26zM125 534l26 27l26 -27l-26 -25z M125 636l26 26l26 -26l-26 -26zM227 230l25 26l27 -26l-27 -26zM227 433l25 26l27 -26l-27 -26zM328 26q4 4 26 28l26 -28l-26 -25zM328 128q4 4 26 28l26 -28l-26 -25zM328 230l26 26l26 -26l-26 -26zM328 331l26 27l26 -27l-26 -25zM328 433l26 26l26 -26l-26 -26z M328 534l26 27l26 -27l-26 -25zM328 636l26 26l26 -26l-26 -26zM430 230l25 26l27 -26l-27 -26zM430 433l25 26l27 -26l-27 -26z" />
<glyph unicode="$" d="M24 26q6 7 13 14.5t12 13.5l26 -28l-26 -25zM24 331l25 27l26 -27l-26 -25zM125 26q4 4 26 28l26 -28l-26 -25zM125 230l26 26l26 -26l-26 -26zM125 433l26 26l26 -26l-26 -26zM227 26q17 19 25 28l27 -28l-27 -25zM227 -75q4 5 11.5 13t13.5 14l27 -27l-27 -26zM227 128 q17 19 25 28l27 -28l-27 -25zM227 230l25 26l27 -26l-27 -26zM227 331l25 27l27 -27l-27 -25zM227 433l25 26l27 -26l-27 -26zM227 534l25 27l27 -27l-27 -25zM328 26q4 4 26 28l26 -28l-26 -25zM328 230l26 26l26 -26l-26 -26zM328 433l26 26l26 -26l-26 -26zM430 128 q10 10 25 28l27 -28l-27 -25zM430 433l25 26l27 -26l-27 -26z" />
<glyph unicode="%" d="M24 26q10 10 25 28l27 -28l-27 -25zM24 128q10 10 25 28l27 -28l-27 -25zM24 534l25 27l27 -27l-27 -25zM24 636l25 26l27 -26l-27 -26zM126 230l25 26l26 -26l-26 -26zM126 331l25 27l26 -27l-26 -25zM126 534l25 27l26 -27l-26 -25zM126 636l25 26l26 -26l-26 -26z M227 26q10 10 25 28l27 -28l-27 -25zM227 128q10 10 25 28l27 -28l-27 -25zM227 433l25 26l27 -26l-27 -26zM329 26q6 7 13 14.5t12 13.5l26 -28l-26 -25zM329 128q6 7 13 14.5t12 13.5l26 -28l-26 -25zM329 534l25 27l26 -27l-26 -25zM329 636l25 26l26 -26l-26 -26z" />
<glyph unicode="&#x26;" d="M24 128q6 7 13 14.5t12 13.5l26 -28l-26 -25zM24 230l25 26l26 -26l-26 -26zM24 433l25 26l26 -26l-26 -26zM24 534l25 27l26 -27l-26 -25zM125 26q4 4 26 28l26 -28l-26 -25zM125 331l26 27l26 -27l-26 -25zM125 636l26 26l26 -26l-26 -26zM227 26q17 19 25 28l27 -28 l-27 -25zM227 331l25 27l27 -27l-27 -25zM227 636l25 26l27 -26l-27 -26zM328 128q4 4 26 28l26 -28l-26 -25zM328 230l26 26l26 -26l-26 -26zM328 331l26 27l26 -27l-26 -25zM430 331l25 27l27 -27l-27 -25z" />
<glyph unicode="'" d="M226 434l26 26l26 -26l-26 -26zM328 534l25 27l27 -27l-27 -25zM328 637l25 26l27 -26l-27 -26z" />
<glyph unicode="(" d="M226 128q4 4 26 28l26 -28l-26 -25zM226 230l26 26l26 -26l-26 -26zM226 331l26 27l26 -27l-26 -25zM226 433l26 26l26 -26l-26 -26zM226 534l26 27l26 -27l-26 -25zM328 26q10 10 25 28l27 -28l-27 -25zM328 636l25 26l27 -26l-27 -26z" />
<glyph unicode=")" d="M226 26q4 4 26 28l26 -28l-26 -25zM226 636l26 26l26 -26l-26 -26zM328 128q10 10 25 28l27 -28l-27 -25zM328 230l25 26l27 -26l-27 -26zM328 331l25 27l27 -27l-27 -25zM328 433l25 26l27 -26l-27 -26zM328 534l25 27l27 -27l-27 -25z" />
<glyph unicode="*" d="M24 433l26 26l26 -26l-26 -26zM24 636l26 26l26 -26l-26 -26zM126 534l25 27l27 -27l-27 -25zM227 433l26 26l26 -26l-26 -26zM227 636l26 26l26 -26l-26 -26z" />
<glyph unicode="+" d="M24 230l25 26l26 -26l-26 -26zM125 230l26 26l26 -26l-26 -26zM227 26q17 19 25 28l27 -28l-27 -25zM227 128q17 19 25 28l27 -28l-27 -25zM227 230l25 26l27 -26l-27 -26zM227 331l25 27l27 -27l-27 -25zM227 433l25 26l27 -26l-27 -26zM328 230l26 26l26 -26l-26 -26z M430 230l25 26l27 -26l-27 -26z" />
<glyph unicode="," d="M126 -75q24 26 25 27l26 -27l-26 -26zM227 26q10 10 25 28l27 -28l-27 -25zM227 128q10 10 25 28l27 -28l-27 -25z" />
<glyph unicode="-" d="M125 230l26 26l26 -26l-26 -26zM227 230l25 26l27 -26l-27 -26zM328 230l26 26l26 -26l-26 -26z" />
<glyph unicode="." d="M227 26q17 19 25 28l27 -28l-27 -25zM227 128q17 19 25 28l27 -28l-27 -25z" />
<glyph unicode="/" d="M125 26q17 19 25 28l27 -28l-27 -25zM125 128q17 19 25 28l27 -28l-27 -25zM226 230l26 26l26 -26l-26 -26zM226 331l26 27l26 -27l-26 -25zM328 433l25 26l27 -26l-27 -26zM429 534l26 27l26 -27l-26 -25zM429 636l26 26l26 -26l-26 -26z" />
<glyph unicode="0" d="M24 128q6 7 13 14.5t12 13.5l26 -28l-26 -25zM24 230l25 26l26 -26l-26 -26zM24 331l25 27l26 -27l-26 -25zM125 26q4 4 26 28l26 -28l-26 -25zM125 128q4 4 26 28l26 -28l-26 -25zM125 433l26 26l26 -26l-26 -26zM227 26q17 19 25 28l27 -28l-27 -25zM227 230l25 26 l27 -26l-27 -26zM227 433l25 26l27 -26l-27 -26zM328 26q4 4 26 28l26 -28l-26 -25zM328 331l26 27l26 -27l-26 -25zM328 433l26 26l26 -26l-26 -26zM430 128q10 10 25 28l27 -28l-27 -25zM430 230l25 26l27 -26l-27 -26zM430 331l25 27l27 -27l-27 -25z" />
<glyph unicode="1" d="M24 26q6 7 13 14.5t12 13.5l26 -28l-26 -25zM24 433l25 26l26 -26l-26 -26zM125 26q4 4 26 28l26 -28l-26 -25zM125 433l26 26l26 -26l-26 -26zM227 26q17 19 25 28l27 -28l-27 -25zM227 128q17 19 25 28l27 -28l-27 -25zM227 230l25 26l27 -26l-27 -26zM227 331l25 27 l27 -27l-27 -25zM227 433l25 26l27 -26l-27 -26zM328 26q4 4 26 28l26 -28l-26 -25zM430 26q10 10 25 28l27 -28l-27 -25z" />
<glyph unicode="2" d="M24 26q6 7 13 14.5t12 13.5l26 -28l-26 -25zM24 331l25 27l26 -27l-26 -25zM125 26q4 4 26 28l26 -28l-26 -25zM125 128q4 4 26 28l26 -28l-26 -25zM125 433l26 26l26 -26l-26 -26zM227 26q17 19 25 28l27 -28l-27 -25zM227 230l25 26l27 -26l-27 -26zM227 433l25 26 l27 -26l-27 -26zM328 26q4 4 26 28l26 -28l-26 -25zM328 230l26 26l26 -26l-26 -26zM328 433l26 26l26 -26l-26 -26zM430 26q10 10 25 28l27 -28l-27 -25zM430 331l25 27l27 -27l-27 -25z" />
<glyph unicode="3" d="M24 -75q24 26 25 27l26 -27l-26 -26zM24 331l25 27l26 -27l-26 -25zM125 128q4 4 26 28l26 -28l-26 -25zM125 -177q4 4 26 28l26 -28l-26 -25zM125 433l26 26l26 -26l-26 -26zM227 128q17 19 25 28l27 -28l-27 -25zM227 -177q17 19 25 28l27 -28l-27 -25zM227 433l25 26 l27 -26l-27 -26zM328 128q4 4 26 28l26 -28l-26 -25zM328 -177q4 4 26 28l26 -28l-26 -25zM328 433l26 26l26 -26l-26 -26zM430 26q10 10 25 28l27 -28l-27 -25zM430 -75q5 5 25 27l27 -27l-27 -26zM430 230l25 26l27 -26l-27 -26zM430 331l25 27l27 -27l-27 -25z" />
<glyph unicode="4" d="M24 26q6 7 13 14.5t12 13.5l26 -28l-26 -25zM24 128q6 7 13 14.5t12 13.5l26 -28l-26 -25zM125 26q4 4 26 28l26 -28l-26 -25zM125 230l26 26l26 -26l-26 -26zM227 26q17 19 25 28l27 -28l-27 -25zM227 331l25 27l27 -27l-27 -25zM328 26q4 4 26 28l26 -28l-26 -25z M328 -75q7 7 14 14.5t12 12.5l26 -27l-26 -26zM328 128q4 4 26 28l26 -28l-26 -25zM328 -177q4 4 26 28l26 -28l-26 -25zM328 230l26 26l26 -26l-26 -26zM328 331l26 27l26 -27l-26 -25zM328 433l26 26l26 -26l-26 -26zM430 26q10 10 25 28l27 -28l-27 -25z" />
<glyph unicode="5" d="M24 128q6 7 13 14.5t12 13.5l26 -28l-26 -25zM24 -177q6 7 13 14.5t12 13.5l26 -28l-26 -25zM24 230l25 26l26 -26l-26 -26zM24 331l25 27l26 -27l-26 -25zM24 433l25 26l26 -26l-26 -26zM125 128q4 4 26 28l26 -28l-26 -25zM125 -177q4 4 26 28l26 -28l-26 -25zM125 433 l26 26l26 -26l-26 -26zM227 128q17 19 25 28l27 -28l-27 -25zM227 -177q17 19 25 28l27 -28l-27 -25zM227 433l25 26l27 -26l-27 -26zM328 128q4 4 26 28l26 -28l-26 -25zM328 -177q4 4 26 28l26 -28l-26 -25zM328 433l26 26l26 -26l-26 -26zM430 26q10 10 25 28l27 -28 l-27 -25zM430 -75q5 5 25 27l27 -27l-27 -26zM430 433l25 26l27 -26l-27 -26z" />
<glyph unicode="6" d="M24 128q6 7 13 14.5t12 13.5l26 -28l-26 -25zM24 230l25 26l26 -26l-26 -26zM24 331l25 27l26 -27l-26 -25zM24 433l25 26l26 -26l-26 -26zM125 26q4 4 26 28l26 -28l-26 -25zM125 331l26 27l26 -27l-26 -25zM125 534l26 27l26 -27l-26 -25zM227 26q17 19 25 28l27 -28 l-27 -25zM227 331l25 27l27 -27l-27 -25zM227 636l25 26l27 -26l-27 -26zM328 26q4 4 26 28l26 -28l-26 -25zM328 331l26 27l26 -27l-26 -25zM328 636l26 26l26 -26l-26 -26zM430 128q10 10 25 28l27 -28l-27 -25zM430 230l25 26l27 -26l-27 -26z" />
<glyph unicode="7" d="M24 433l25 26l26 -26l-26 -26zM125 26q4 4 26 28l26 -28l-26 -25zM125 -75q7 7 14 14.5t12 12.5l26 -27l-26 -26zM125 -177q4 4 26 28l26 -28l-26 -25zM125 433l26 26l26 -26l-26 -26zM227 128q17 19 25 28l27 -28l-27 -25zM227 433l25 26l27 -26l-27 -26zM328 230l26 26 l26 -26l-26 -26zM328 433l26 26l26 -26l-26 -26zM430 331l25 27l27 -27l-27 -25zM430 433l25 26l27 -26l-27 -26z" />
<glyph unicode="8" d="M24 128q6 7 13 14.5t12 13.5l26 -28l-26 -25zM24 230l25 26l26 -26l-26 -26zM24 433l25 26l26 -26l-26 -26zM24 534l25 27l26 -27l-26 -25zM125 26q4 4 26 28l26 -28l-26 -25zM125 331l26 27l26 -27l-26 -25zM125 636l26 26l26 -26l-26 -26zM227 26q17 19 25 28l27 -28 l-27 -25zM227 331l25 27l27 -27l-27 -25zM227 636l25 26l27 -26l-27 -26zM328 26q4 4 26 28l26 -28l-26 -25zM328 331l26 27l26 -27l-26 -25zM328 636l26 26l26 -26l-26 -26zM430 128q10 10 25 28l27 -28l-27 -25zM430 230l25 26l27 -26l-27 -26zM430 433l25 26l27 -26 l-27 -26zM430 534l25 27l27 -27l-27 -25z" />
<glyph unicode="9" d="M24 230l25 26l26 -26l-26 -26zM24 331l25 27l26 -27l-26 -25zM125 128q4 4 26 28l26 -28l-26 -25zM125 -177q4 4 26 28l26 -28l-26 -25zM125 433l26 26l26 -26l-26 -26zM227 128q17 19 25 28l27 -28l-27 -25zM227 -177q17 19 25 28l27 -28l-27 -25zM227 433l25 26l27 -26 l-27 -26zM328 -75q7 7 14 14.5t12 12.5l26 -27l-26 -26zM328 128q4 4 26 28l26 -28l-26 -25zM328 433l26 26l26 -26l-26 -26zM430 26q10 10 25 28l27 -28l-27 -25zM430 128q10 10 25 28l27 -28l-27 -25zM430 230l25 26l27 -26l-27 -26zM430 331l25 27l27 -27l-27 -25z" />
<glyph unicode=":" d="M227 26q17 19 25 28l27 -28l-27 -25zM227 128q17 19 25 28l27 -28l-27 -25zM227 331l25 27l27 -27l-27 -25zM227 433l25 26l27 -26l-27 -26z" />
<glyph unicode=";" d="M126 -75q24 26 25 27l26 -27l-26 -26zM227 26q10 10 25 28l27 -28l-27 -25zM227 128q10 10 25 28l27 -28l-27 -25zM227 331l25 27l27 -27l-27 -25zM227 433l25 26l27 -26l-27 -26z" />
<glyph unicode="&#x3c;" d="M125 230l26 26l26 -26l-26 -26zM227 128q17 19 25 28l27 -28l-27 -25zM227 331l25 27l27 -27l-27 -25zM328 26q4 4 26 28l26 -28l-26 -25zM328 433l26 26l26 -26l-26 -26z" />
<glyph unicode="=" d="M24 128q6 7 13 14.5t12 13.5l26 -28l-26 -25zM24 331l25 27l26 -27l-26 -25zM125 128q4 4 26 28l26 -28l-26 -25zM125 331l26 27l26 -27l-26 -25zM227 128q17 19 25 28l27 -28l-27 -25zM227 331l25 27l27 -27l-27 -25zM328 128q4 4 26 28l26 -28l-26 -25zM328 331l26 27 l26 -27l-26 -25zM430 128q10 10 25 28l27 -28l-27 -25zM430 331l25 27l27 -27l-27 -25z" />
<glyph unicode="&#x3e;" d="M226 26q10 10 25 28l27 -28l-27 -25zM226 433l25 26l27 -26l-27 -26zM328 128q6 7 13 14.5t12 13.5l26 -28l-26 -25zM328 331l25 27l26 -27l-26 -25zM429 230l25 26l27 -26l-27 -26z" />
<glyph unicode="?" d="M24 534l25 27l26 -27l-26 -25zM125 636l26 26l26 -26l-26 -26zM227 26q17 19 25 28l27 -28l-27 -25zM227 128q17 19 25 28l27 -28l-27 -25zM227 331l25 27l27 -27l-27 -25zM227 636l25 26l27 -26l-27 -26zM328 331l26 27l26 -27l-26 -25zM328 636l26 26l26 -26l-26 -26z M430 433l25 26l27 -26l-27 -26zM430 534l25 27l27 -27l-27 -25z" />
<glyph unicode="@" d="M24 128q6 7 13 14.5t12 13.5l26 -28l-26 -25zM24 230l25 26l26 -26l-26 -26zM24 331l25 27l26 -27l-26 -25zM24 433l25 26l26 -26l-26 -26zM24 534l25 27l26 -27l-26 -25zM125 26q4 4 26 28l26 -28l-26 -25zM125 230l26 26l26 -26l-26 -26zM125 331l26 27l26 -27l-26 -25 zM125 636l26 26l26 -26l-26 -26zM227 26q17 19 25 28l27 -28l-27 -25zM227 230l25 26l27 -26l-27 -26zM227 433l25 26l27 -26l-27 -26zM227 636l25 26l27 -26l-27 -26zM328 26q4 4 26 28l26 -28l-26 -25zM328 230l26 26l26 -26l-26 -26zM328 331l26 27l26 -27l-26 -25z M328 433l26 26l26 -26l-26 -26zM328 636l26 26l26 -26l-26 -26zM430 26q10 10 25 28l27 -28l-27 -25zM430 230l25 26l27 -26l-27 -26zM430 331l25 27l27 -27l-27 -25zM430 433l25 26l27 -26l-27 -26zM430 534l25 27l27 -27l-27 -25z" />
<glyph unicode="A" d="M23 27l26 27l27 -27l-27 -26zM23 128l26 27l27 -27l-27 -26zM23 229l26 27l27 -27l-27 -26zM23 330l26 27l27 -27l-27 -26zM23 431l26 27l27 -27q-10 -11 -27 -25zM23 531l26 28l27 -28q-9 -9 -27 -24zM125 229q11 10 25 27l27 -27l-27 -26zM125 633l25 26l27 -26 l-27 -26zM226 229q15 15 25 27l27 -27l-27 -26zM226 633l25 26l27 -26l-27 -26zM327 229l26 27l26 -27l-26 -26zM327 633l26 26l26 -26l-26 -26zM428 27l26 27l26 -27l-26 -26zM428 128l26 27l26 -27l-26 -26zM428 229l26 27l26 -27l-26 -26zM428 330l26 27l26 -27l-26 -26z M428 431l26 27l26 -27l-26 -25zM428 531l26 28l26 -28l-26 -24z" />
<glyph unicode="B" d="M23 27l26 27l27 -27l-27 -26zM23 128l26 27l27 -27l-27 -26zM23 229l26 27l27 -27l-27 -26zM23 330l26 27l27 -27l-27 -26zM23 431l26 27l27 -27q-10 -11 -27 -25zM23 531l26 28l27 -28q-9 -9 -27 -24zM23 633l26 26l27 -26l-27 -26zM125 27q5 5 25 27l27 -27l-27 -26z M125 330q11 10 25 27l27 -27l-27 -26zM125 633l25 26l27 -26l-27 -26zM226 27q4 5 11.5 13t13.5 14l27 -27l-27 -26zM226 330q15 15 25 27l27 -27l-27 -26zM226 633l25 26l27 -26l-27 -26zM327 27l26 27l26 -27l-26 -26zM327 330l26 27l26 -27l-26 -26zM327 633l26 26 l26 -26l-26 -26zM428 128l26 27l26 -27l-26 -26zM428 229l26 27l26 -27l-26 -26zM428 431l26 27l26 -27l-26 -25zM428 531l26 28l26 -28l-26 -24z" />
<glyph unicode="C" d="M23 128l26 27l27 -27l-27 -26zM23 229l26 27l27 -27l-27 -26zM23 330l26 27l27 -27l-27 -26zM23 431l26 27l27 -27q-10 -11 -27 -25zM23 531l26 28l27 -28q-9 -9 -27 -24zM125 27q5 5 25 27l27 -27l-27 -26zM125 633l25 26l27 -26l-27 -26zM226 27q4 5 11.5 13t13.5 14 l27 -27l-27 -26zM226 633l25 26l27 -26l-27 -26zM327 27l26 27l26 -27l-26 -26zM327 633l26 26l26 -26l-26 -26zM428 128l26 27l26 -27l-26 -26zM428 531l26 28l26 -28l-26 -24z" />
<glyph unicode="D" d="M23 27l26 27l27 -27l-27 -26zM23 128l26 27l27 -27l-27 -26zM23 229l26 27l27 -27l-27 -26zM23 330l26 27l27 -27l-27 -26zM23 431l26 27l27 -27q-10 -11 -27 -25zM23 531l26 28l27 -28q-9 -9 -27 -24zM23 633l26 26l27 -26l-27 -26zM125 27q5 5 25 27l27 -27l-27 -26z M125 633l25 26l27 -26l-27 -26zM226 27q4 5 11.5 13t13.5 14l27 -27l-27 -26zM226 633l25 26l27 -26l-27 -26zM327 27l26 27l26 -27l-26 -26zM327 633l26 26l26 -26l-26 -26zM428 128l26 27l26 -27l-26 -26zM428 229l26 27l26 -27l-26 -26zM428 330l26 27l26 -27l-26 -26z M428 431l26 27l26 -27l-26 -25zM428 531l26 28l26 -28l-26 -24z" />
<glyph unicode="E" d="M23 27l26 27l27 -27l-27 -26zM23 128l26 27l27 -27l-27 -26zM23 229l26 27l27 -27l-27 -26zM23 330l26 27l27 -27l-27 -26zM23 431l26 27l27 -27q-10 -11 -27 -25zM23 531l26 28l27 -28q-9 -9 -27 -24zM23 633l26 26l27 -26l-27 -26zM125 27q5 5 25 27l27 -27l-27 -26z M125 330q11 10 25 27l27 -27l-27 -26zM125 633l25 26l27 -26l-27 -26zM226 27q4 5 11.5 13t13.5 14l27 -27l-27 -26zM226 330q15 15 25 27l27 -27l-27 -26zM226 633l25 26l27 -26l-27 -26zM327 27l26 27l26 -27l-26 -26zM327 330l26 27l26 -27l-26 -26zM327 633l26 26 l26 -26l-26 -26zM428 27l26 27l26 -27l-26 -26zM428 633l26 26l26 -26l-26 -26z" />
<glyph unicode="F" d="M23 27l26 27l27 -27l-27 -26zM23 128l26 27l27 -27l-27 -26zM23 229l26 27l27 -27l-27 -26zM23 330l26 27l27 -27l-27 -26zM23 431l26 27l27 -27q-10 -11 -27 -25zM23 531l26 28l27 -28q-9 -9 -27 -24zM23 633l26 26l27 -26l-27 -26zM125 330q11 10 25 27l27 -27l-27 -26 zM125 633l25 26l27 -26l-27 -26zM226 330q15 15 25 27l27 -27l-27 -26zM226 633l25 26l27 -26l-27 -26zM327 330l26 27l26 -27l-26 -26zM327 633l26 26l26 -26l-26 -26zM428 633l26 26l26 -26l-26 -26z" />
<glyph unicode="G" d="M23 128l26 27l27 -27l-27 -26zM23 229l26 27l27 -27l-27 -26zM23 330l26 27l27 -27l-27 -26zM23 431l26 27l27 -27q-10 -11 -27 -25zM23 531l26 28l27 -28q-9 -9 -27 -24zM125 27q5 5 25 27l27 -27l-27 -26zM125 633l25 26l27 -26l-27 -26zM226 27q4 5 11.5 13t13.5 14 l27 -27l-27 -26zM226 633l25 26l27 -26l-27 -26zM327 27l26 27l26 -27l-26 -26zM327 229l26 27l26 -27l-26 -26zM327 633l26 26l26 -26l-26 -26zM428 27l26 27l26 -27l-26 -26zM428 128l26 27l26 -27l-26 -26zM428 229l26 27l26 -27l-26 -26zM428 531l26 28l26 -28l-26 -24z " />
<glyph unicode="H" d="M23 27l26 27l27 -27l-27 -26zM23 128l26 27l27 -27l-27 -26zM23 229l26 27l27 -27l-27 -26zM23 330l26 27l27 -27l-27 -26zM23 431l26 27l27 -27q-10 -11 -27 -25zM23 531l26 28l27 -28q-9 -9 -27 -24zM23 633l26 26l27 -26l-27 -26zM125 330q11 10 25 27l27 -27l-27 -26 zM226 330q15 15 25 27l27 -27l-27 -26zM327 330l26 27l26 -27l-26 -26zM428 27l26 27l26 -27l-26 -26zM428 128l26 27l26 -27l-26 -26zM428 229l26 27l26 -27l-26 -26zM428 330l26 27l26 -27l-26 -26zM428 431l26 27l26 -27l-26 -25zM428 531l26 28l26 -28l-26 -24zM428 633 l26 26l26 -26l-26 -26z" />
<glyph unicode="I" d="M23 27l26 27l27 -27l-27 -26zM23 633l26 26l27 -26l-27 -26zM125 27q5 5 25 27l27 -27l-27 -26zM125 633l25 26l27 -26l-27 -26zM226 27q4 5 11.5 13t13.5 14l27 -27l-27 -26zM226 128q5 5 25 27l27 -27l-27 -26zM226 229q15 15 25 27l27 -27l-27 -26zM226 330 q15 15 25 27l27 -27l-27 -26zM226 431q15 15 25 27l27 -27q-5 -5 -27 -25zM226 531q17 19 25 28l27 -28q-7 -7 -14.5 -13.5t-12.5 -10.5zM226 633l25 26l27 -26l-27 -26zM327 27l26 27l26 -27l-26 -26zM327 633l26 26l26 -26l-26 -26zM428 27l26 27l26 -27l-26 -26zM428 633 l26 26l26 -26l-26 -26z" />
<glyph unicode="J" d="M24 128q3 3 25 27l27 -27l-27 -26zM24 633l25 26l27 -26l-27 -26zM125 27l26 27l26 -27l-26 -26zM125 633l26 26l26 -26l-26 -26zM226 27l26 27l26 -27l-26 -26zM226 633l26 26l26 -26l-26 -26zM327 128l26 27l27 -27l-27 -26zM327 229l26 27l27 -27l-27 -26zM327 330 l26 27l27 -27l-27 -26zM327 431l26 27l27 -27q-5 -5 -27 -25zM327 531l26 28l27 -28q-7 -7 -14.5 -13.5t-12.5 -10.5zM327 633l26 26l27 -26l-27 -26z" />
<glyph unicode="K" d="M23 27l26 27l27 -27l-27 -26zM23 128l26 27l27 -27l-27 -26zM23 229l26 27l27 -27l-27 -26zM23 330l26 27l27 -27l-27 -26zM23 431l26 27l27 -27q-10 -11 -27 -25zM23 531l26 28l27 -28q-9 -9 -27 -24zM23 633l26 26l27 -26l-27 -26zM125 330q11 10 25 27l27 -27l-27 -26 zM226 330q15 15 25 27l27 -27l-27 -26zM327 229l26 27l26 -27l-26 -26zM327 431l26 27l26 -27l-26 -25zM428 27l26 27l26 -27l-26 -26zM428 128l26 27l26 -27l-26 -26zM428 531l26 28l26 -28l-26 -24zM428 633l26 26l26 -26l-26 -26z" />
<glyph unicode="L" d="M23 27l26 27l27 -27l-27 -26zM23 128l26 27l27 -27l-27 -26zM23 229l26 27l27 -27l-27 -26zM23 330l26 27l27 -27l-27 -26zM23 431l26 27l27 -27q-10 -11 -27 -25zM23 531l26 28l27 -28q-9 -9 -27 -24zM23 633l26 26l27 -26l-27 -26zM125 27q5 5 25 27l27 -27l-27 -26z M226 27q4 5 11.5 13t13.5 14l27 -27l-27 -26zM327 27l26 27l26 -27l-26 -26zM428 27l26 27l26 -27l-26 -26z" />
<glyph unicode="M" d="M23 27l26 27l27 -27l-27 -26zM23 128l26 27l27 -27l-27 -26zM23 229l26 27l27 -27l-27 -26zM23 330l26 27l27 -27l-27 -26zM23 431l26 27l27 -27q-10 -11 -27 -25zM23 531l26 28l27 -28q-9 -9 -27 -24zM23 633l26 26l27 -26l-27 -26zM125 431q11 10 25 27l27 -27 q-3 -3 -27 -25zM125 531q10 10 25 28l27 -28q-7 -7 -15.5 -14t-11.5 -10zM226 229q15 15 25 27l27 -27l-27 -26zM226 330q15 15 25 27l27 -27l-27 -26zM327 431l26 27l26 -27l-26 -25zM327 531l26 28l26 -28l-26 -24zM428 27l26 27l26 -27l-26 -26zM428 128l26 27l26 -27 l-26 -26zM428 229l26 27l26 -27l-26 -26zM428 330l26 27l26 -27l-26 -26zM428 431l26 27l26 -27l-26 -25zM428 531l26 28l26 -28l-26 -24zM428 633l26 26l26 -26l-26 -26z" />
<glyph unicode="N" d="M23 27l26 27l27 -27l-27 -26zM23 128l26 27l27 -27l-27 -26zM23 229l26 27l27 -27l-27 -26zM23 330l26 27l27 -27l-27 -26zM23 431l26 27l27 -27q-10 -11 -27 -25zM23 531l26 28l27 -28q-9 -9 -27 -24zM23 633l26 26l27 -26l-27 -26zM125 531q10 10 25 28l27 -28 q-7 -7 -15.5 -14t-11.5 -10zM226 330q15 15 25 27l27 -27l-27 -26zM226 431q15 15 25 27l27 -27q-5 -5 -27 -25zM327 229l26 27l26 -27l-26 -26zM428 27l26 27l26 -27l-26 -26zM428 128l26 27l26 -27l-26 -26zM428 229l26 27l26 -27l-26 -26zM428 330l26 27l26 -27l-26 -26z M428 431l26 27l26 -27l-26 -25zM428 531l26 28l26 -28l-26 -24zM428 633l26 26l26 -26l-26 -26z" />
<glyph unicode="O" d="M23 128l26 27l27 -27l-27 -26zM23 229l26 27l27 -27l-27 -26zM23 330l26 27l27 -27l-27 -26zM23 431l26 27l27 -27q-10 -11 -27 -25zM23 531l26 28l27 -28q-9 -9 -27 -24zM125 27q5 5 25 27l27 -27l-27 -26zM125 633l25 26l27 -26l-27 -26zM226 27q4 5 11.5 13t13.5 14 l27 -27l-27 -26zM226 633l25 26l27 -26l-27 -26zM327 27l26 27l26 -27l-26 -26zM327 633l26 26l26 -26l-26 -26zM428 128l26 27l26 -27l-26 -26zM428 229l26 27l26 -27l-26 -26zM428 330l26 27l26 -27l-26 -26zM428 431l26 27l26 -27l-26 -25zM428 531l26 28l26 -28l-26 -24 z" />
<glyph unicode="P" d="M23 27l26 27l27 -27l-27 -26zM23 128l26 27l27 -27l-27 -26zM23 229l26 27l27 -27l-27 -26zM23 330l26 27l27 -27l-27 -26zM23 431l26 27l27 -27q-10 -11 -27 -25zM23 531l26 28l27 -28q-9 -9 -27 -24zM23 633l26 26l27 -26l-27 -26zM125 229q11 10 25 27l27 -27l-27 -26 zM125 633l25 26l27 -26l-27 -26zM226 229q15 15 25 27l27 -27l-27 -26zM226 633l25 26l27 -26l-27 -26zM327 229l26 27l26 -27l-26 -26zM327 633l26 26l26 -26l-26 -26zM428 330l26 27l26 -27l-26 -26zM428 431l26 27l26 -27l-26 -25zM428 531l26 28l26 -28l-26 -24z" />
<glyph unicode="Q" d="M23 128l26 27l27 -27l-27 -26zM23 229l26 27l27 -27l-27 -26zM23 330l26 27l27 -27l-27 -26zM23 431l26 27l27 -27q-10 -11 -27 -25zM23 531l26 28l27 -28q-9 -9 -27 -24zM125 27q5 5 25 27l27 -27l-27 -26zM125 633l25 26l27 -26l-27 -26zM226 27q4 5 11.5 13t13.5 14 l27 -27l-27 -26zM226 -74l25 26l27 -26l-27 -26zM226 128q5 5 25 27l27 -27l-27 -26zM226 633l25 26l27 -26l-27 -26zM327 27l26 27l26 -27l-26 -26zM327 -175l26 26l26 -26l-26 -26zM327 633l26 26l26 -26l-26 -26zM428 128l26 27l26 -27l-26 -26zM428 229l26 27l26 -27 l-26 -26zM428 330l26 27l26 -27l-26 -26zM428 431l26 27l26 -27l-26 -25zM428 531l26 28l26 -28l-26 -24z" />
<glyph unicode="R" d="M23 27l26 27l27 -27l-27 -26zM23 128l26 27l27 -27l-27 -26zM23 229l26 27l27 -27l-27 -26zM23 330l26 27l27 -27l-27 -26zM23 431l26 27l27 -27q-10 -11 -27 -25zM23 531l26 28l27 -28q-9 -9 -27 -24zM23 633l26 26l27 -26l-27 -26zM125 330q11 10 25 27l27 -27l-27 -26 zM125 633l25 26l27 -26l-27 -26zM226 330q15 15 25 27l27 -27l-27 -26zM226 633l25 26l27 -26l-27 -26zM327 229l26 27l26 -27l-26 -26zM327 330l26 27l26 -27l-26 -26zM327 633l26 26l26 -26l-26 -26zM428 27l26 27l26 -27l-26 -26zM428 128l26 27l26 -27l-26 -26zM428 431 l26 27l26 -27l-26 -25zM428 531l26 28l26 -28l-26 -24z" />
<glyph unicode="S" d="M23 27l26 27l27 -27l-27 -26zM23 431l26 27l27 -27q-10 -11 -27 -25zM23 531l26 28l27 -28q-9 -9 -27 -24zM125 27q5 5 25 27l27 -27l-27 -26zM125 330q11 10 25 27l27 -27l-27 -26zM125 633l25 26l27 -26l-27 -26zM226 27q4 5 11.5 13t13.5 14l27 -27l-27 -26zM226 330 q15 15 25 27l27 -27l-27 -26zM226 633l25 26l27 -26l-27 -26zM327 27l26 27l26 -27l-26 -26zM327 330l26 27l26 -27l-26 -26zM327 633l26 26l26 -26l-26 -26zM428 128l26 27l26 -27l-26 -26zM428 229l26 27l26 -27l-26 -26zM428 633l26 26l26 -26l-26 -26z" />
<glyph unicode="T" d="M23 633l26 26l27 -26l-27 -26zM125 633l25 26l27 -26l-27 -26zM226 27q4 5 11.5 13t13.5 14l27 -27l-27 -26zM226 128q5 5 25 27l27 -27l-27 -26zM226 229q15 15 25 27l27 -27l-27 -26zM226 330q15 15 25 27l27 -27l-27 -26zM226 431q15 15 25 27l27 -27q-5 -5 -27 -25z M226 531q17 19 25 28l27 -28q-7 -7 -14.5 -13.5t-12.5 -10.5zM226 633l25 26l27 -26l-27 -26zM327 633l26 26l26 -26l-26 -26zM428 633l26 26l26 -26l-26 -26z" />
<glyph unicode="U" d="M23 128l26 27l27 -27l-27 -26zM23 229l26 27l27 -27l-27 -26zM23 330l26 27l27 -27l-27 -26zM23 431l26 27l27 -27q-10 -11 -27 -25zM23 531l26 28l27 -28q-9 -9 -27 -24zM23 633l26 26l27 -26l-27 -26zM125 27q5 5 25 27l27 -27l-27 -26zM226 27q4 5 11.5 13t13.5 14 l27 -27l-27 -26zM327 27l26 27l26 -27l-26 -26zM428 128l26 27l26 -27l-26 -26zM428 229l26 27l26 -27l-26 -26zM428 330l26 27l26 -27l-26 -26zM428 431l26 27l26 -27l-26 -25zM428 531l26 28l26 -28l-26 -24zM428 633l26 26l26 -26l-26 -26z" />
<glyph unicode="V" d="M23 330l26 27l27 -27l-27 -26zM23 431l26 27l27 -27q-10 -11 -27 -25zM23 531l26 28l27 -28q-9 -9 -27 -24zM23 633l26 26l27 -26l-27 -26zM125 128q3 3 25 27l27 -27l-27 -26zM125 229q11 10 25 27l27 -27l-27 -26zM226 27q4 5 11.5 13t13.5 14l27 -27l-27 -26zM327 128 l26 27l26 -27l-26 -26zM327 229l26 27l26 -27l-26 -26zM428 330l26 27l26 -27l-26 -26zM428 431l26 27l26 -27l-26 -25zM428 531l26 28l26 -28l-26 -24zM428 633l26 26l26 -26l-26 -26z" />
<glyph unicode="W" d="M23 229l26 27l27 -27l-27 -26zM23 330l26 27l27 -27l-27 -26zM23 431l26 27l27 -27q-10 -11 -27 -25zM23 531l26 28l27 -28q-9 -9 -27 -24zM23 633l26 26l27 -26l-27 -26zM125 27q5 5 25 27l27 -27l-27 -26zM125 128q3 3 25 27l27 -27l-27 -26zM226 229q15 15 25 27 l27 -27l-27 -26zM226 330q15 15 25 27l27 -27l-27 -26zM226 431q15 15 25 27l27 -27q-5 -5 -27 -25zM226 531q17 19 25 28l27 -28q-7 -7 -14.5 -13.5t-12.5 -10.5zM327 27l26 27l26 -27l-26 -26zM327 128l26 27l26 -27l-26 -26zM428 229l26 27l26 -27l-26 -26zM428 330 l26 27l26 -27l-26 -26zM428 431l26 27l26 -27l-26 -25zM428 531l26 28l26 -28l-26 -24zM428 633l26 26l26 -26l-26 -26z" />
<glyph unicode="X" d="M23 27l26 27l27 -27l-27 -26zM23 128l26 27l27 -27l-27 -26zM23 531l26 28l27 -28q-9 -9 -27 -24zM23 633l26 26l27 -26l-27 -26zM125 229q11 10 25 27l27 -27l-27 -26zM125 431q11 10 25 27l27 -27q-3 -3 -27 -25zM226 330q15 15 25 27l27 -27l-27 -26zM327 229l26 27 l26 -27l-26 -26zM327 431l26 27l26 -27l-26 -25zM428 27l26 27l26 -27l-26 -26zM428 128l26 27l26 -27l-26 -26zM428 531l26 28l26 -28l-26 -24zM428 633l26 26l26 -26l-26 -26z" />
<glyph unicode="Y" d="M23 431l26 27l27 -27q-10 -11 -27 -25zM23 531l26 28l27 -28q-9 -9 -27 -24zM23 633l26 26l27 -26l-27 -26zM125 330q11 10 25 27l27 -27l-27 -26zM226 27q4 5 11.5 13t13.5 14l27 -27l-27 -26zM226 128q5 5 25 27l27 -27l-27 -26zM226 229q15 15 25 27l27 -27l-27 -26z M327 330l26 27l26 -27l-26 -26zM428 431l26 27l26 -27l-26 -25zM428 531l26 28l26 -28l-26 -24zM428 633l26 26l26 -26l-26 -26z" />
<glyph unicode="Z" d="M23 27l26 27l27 -27l-27 -26zM23 128l26 27l27 -27l-27 -26zM23 633l26 26l27 -26l-27 -26zM125 27q5 5 25 27l27 -27l-27 -26zM125 229q11 10 25 27l27 -27l-27 -26zM125 633l25 26l27 -26l-27 -26zM226 27q4 5 11.5 13t13.5 14l27 -27l-27 -26zM226 330q15 15 25 27 l27 -27l-27 -26zM226 633l25 26l27 -26l-27 -26zM327 27l26 27l26 -27l-26 -26zM327 431l26 27l26 -27l-26 -25zM327 633l26 26l26 -26l-26 -26zM428 27l26 27l26 -27l-26 -26zM428 531l26 28l26 -28l-26 -24zM428 633l26 26l26 -26l-26 -26z" />
<glyph unicode="[" d="M226 26q4 4 26 28l26 -28l-26 -25zM226 128q4 4 26 28l26 -28l-26 -25zM226 230l26 26l26 -26l-26 -26zM226 331l26 27l26 -27l-26 -25zM226 433l26 26l26 -26l-26 -26zM226 534l26 27l26 -27l-26 -25zM226 636l26 26l26 -26l-26 -26zM328 26q10 10 25 28l27 -28l-27 -25 zM328 636l25 26l27 -26l-27 -26z" />
<glyph unicode="\" d="M125 534l25 27l27 -27l-27 -25zM125 636l25 26l27 -26l-27 -26zM226 433l26 26l26 -26l-26 -26zM328 230l25 26l27 -26l-27 -26zM328 331l25 27l27 -27l-27 -25zM429 26q4 4 26 28l26 -28l-26 -25zM429 128q4 4 26 28l26 -28l-26 -25z" />
<glyph unicode="]" d="M226 26q4 4 26 28l26 -28l-26 -25zM226 636l26 26l26 -26l-26 -26zM328 26q10 10 25 28l27 -28l-27 -25zM328 128q10 10 25 28l27 -28l-27 -25zM328 230l25 26l27 -26l-27 -26zM328 331l25 27l27 -27l-27 -25zM328 433l25 26l27 -26l-27 -26zM328 534l25 27l27 -27 l-27 -25zM328 636l25 26l27 -26l-27 -26z" />
<glyph unicode="^" d="M125 636l26 26l26 -26l-26 -26zM227 737l25 27l27 -27l-27 -25zM328 636l26 26l26 -26l-26 -26z" />
<glyph unicode="_" d="M24 26q6 7 13 14.5t12 13.5l26 -28l-26 -25zM125 26q4 4 26 28l26 -28l-26 -25zM227 26q17 19 25 28l27 -28l-27 -25zM328 26q4 4 26 28l26 -28l-26 -25zM430 26q10 10 25 28l27 -28l-27 -25z" />
<glyph unicode="`" d="M24 737l26 27l26 -27l-26 -25zM126 636l25 26l27 -26l-27 -26zM227 636l26 26l26 -26l-26 -26z" />
<glyph unicode="a" d="M24 128q6 7 13 14.5t12 13.5l26 -28l-26 -25zM125 26q4 4 26 28l26 -28l-26 -25zM125 230l26 26l26 -26l-26 -26zM125 433l26 26l26 -26l-26 -26zM227 26q17 19 25 28l27 -28l-27 -25zM227 230l25 26l27 -26l-27 -26zM227 433l25 26l27 -26l-27 -26zM328 26q4 4 26 28 l26 -28l-26 -25zM328 230l26 26l26 -26l-26 -26zM328 433l26 26l26 -26l-26 -26zM430 26q10 10 25 28l27 -28l-27 -25zM430 128q10 10 25 28l27 -28l-27 -25zM430 230l25 26l27 -26l-27 -26zM430 331l25 27l27 -27l-27 -25z" />
<glyph unicode="b" d="M24 26q6 7 13 14.5t12 13.5l26 -28l-26 -25zM24 128q6 7 13 14.5t12 13.5l26 -28l-26 -25zM24 230l25 26l26 -26l-26 -26zM24 331l25 27l26 -27l-26 -25zM24 433l25 26l26 -26l-26 -26zM24 534l25 27l26 -27l-26 -25zM24 636l25 26l26 -26l-26 -26zM125 26q4 4 26 28 l26 -28l-26 -25zM125 331l26 27l26 -27l-26 -25zM227 26q17 19 25 28l27 -28l-27 -25zM227 433l25 26l27 -26l-27 -26zM328 26q4 4 26 28l26 -28l-26 -25zM328 433l26 26l26 -26l-26 -26zM430 128q10 10 25 28l27 -28l-27 -25zM430 230l25 26l27 -26l-27 -26zM430 331l25 27 l27 -27l-27 -25z" />
<glyph unicode="c" d="M24 128q6 7 13 14.5t12 13.5l26 -28l-26 -25zM24 230l25 26l26 -26l-26 -26zM24 331l25 27l26 -27l-26 -25zM125 26q4 4 26 28l26 -28l-26 -25zM125 433l26 26l26 -26l-26 -26zM227 26q17 19 25 28l27 -28l-27 -25zM227 433l25 26l27 -26l-27 -26zM328 26q4 4 26 28 l26 -28l-26 -25zM328 433l26 26l26 -26l-26 -26zM430 128q10 10 25 28l27 -28l-27 -25zM430 331l25 27l27 -27l-27 -25z" />
<glyph unicode="d" d="M24 128q6 7 13 14.5t12 13.5l26 -28l-26 -25zM24 230l25 26l26 -26l-26 -26zM24 331l25 27l26 -27l-26 -25zM125 26q4 4 26 28l26 -28l-26 -25zM125 433l26 26l26 -26l-26 -26zM227 26q17 19 25 28l27 -28l-27 -25zM227 433l25 26l27 -26l-27 -26zM328 128q4 4 26 28 l26 -28l-26 -25zM328 433l26 26l26 -26l-26 -26zM430 26q10 10 25 28l27 -28l-27 -25zM430 128q10 10 25 28l27 -28l-27 -25zM430 230l25 26l27 -26l-27 -26zM430 331l25 27l27 -27l-27 -25zM430 433l25 26l27 -26l-27 -26zM430 534l25 27l27 -27l-27 -25zM430 636l25 26 l27 -26l-27 -26z" />
<glyph unicode="e" d="M24 128q6 7 13 14.5t12 13.5l26 -28l-26 -25zM24 230l25 26l26 -26l-26 -26zM24 331l25 27l26 -27l-26 -25zM125 26q4 4 26 28l26 -28l-26 -25zM125 230l26 26l26 -26l-26 -26zM125 433l26 26l26 -26l-26 -26zM227 26q17 19 25 28l27 -28l-27 -25zM227 230l25 26l27 -26 l-27 -26zM227 433l25 26l27 -26l-27 -26zM328 26q4 4 26 28l26 -28l-26 -25zM328 230l26 26l26 -26l-26 -26zM328 433l26 26l26 -26l-26 -26zM430 26q10 10 25 28l27 -28l-27 -25zM430 230l25 26l27 -26l-27 -26zM430 331l25 27l27 -27l-27 -25z" />
<glyph unicode="f" d="M24 26q6 7 13 14.5t12 13.5l26 -28l-26 -25zM125 26q4 4 26 28l26 -28l-26 -25zM125 433l26 26l26 -26l-26 -26zM227 26q17 19 25 28l27 -28l-27 -25zM227 128q17 19 25 28l27 -28l-27 -25zM227 230l25 26l27 -26l-27 -26zM227 331l25 27l27 -27l-27 -25zM227 433l25 26 l27 -26l-27 -26zM227 534l25 27l27 -27l-27 -25zM328 26q4 4 26 28l26 -28l-26 -25zM328 433l26 26l26 -26l-26 -26zM328 636l26 26l26 -26l-26 -26zM430 26q10 10 25 28l27 -28l-27 -25zM430 433l25 26l27 -26l-27 -26zM430 636l25 26l27 -26l-27 -26z" />
<glyph unicode="g" d="M24 128q6 7 13 14.5t12 13.5l26 -28l-26 -25zM24 230l25 26l26 -26l-26 -26zM24 331l25 27l26 -27l-26 -25zM125 26q4 4 26 28l26 -28l-26 -25zM125 -177q4 4 26 28l26 -28l-26 -25zM125 433l26 26l26 -26l-26 -26zM227 26q17 19 25 28l27 -28l-27 -25zM227 -177 q17 19 25 28l27 -28l-27 -25zM227 433l25 26l27 -26l-27 -26zM328 128q4 4 26 28l26 -28l-26 -25zM328 -177q4 4 26 28l26 -28l-26 -25zM328 433l26 26l26 -26l-26 -26zM430 26q10 10 25 28l27 -28l-27 -25zM430 -75q5 5 25 27l27 -27l-27 -26zM430 128q10 10 25 28l27 -28 l-27 -25zM430 230l25 26l27 -26l-27 -26zM430 331l25 27l27 -27l-27 -25zM430 433l25 26l27 -26l-27 -26z" />
<glyph unicode="h" d="M24 26q6 7 13 14.5t12 13.5l26 -28l-26 -25zM24 128q6 7 13 14.5t12 13.5l26 -28l-26 -25zM24 230l25 26l26 -26l-26 -26zM24 331l25 27l26 -27l-26 -25zM24 433l25 26l26 -26l-26 -26zM24 534l25 27l26 -27l-26 -25zM24 636l25 26l26 -26l-26 -26zM125 433l26 26l26 -26 l-26 -26zM227 433l25 26l27 -26l-27 -26zM328 433l26 26l26 -26l-26 -26zM430 26q10 10 25 28l27 -28l-27 -25zM430 128q10 10 25 28l27 -28l-27 -25zM430 230l25 26l27 -26l-27 -26zM430 331l25 27l27 -27l-27 -25z" />
<glyph unicode="i" d="M24 26q6 7 13 14.5t12 13.5l26 -28l-26 -25zM24 433l25 26l26 -26l-26 -26zM125 26q4 4 26 28l26 -28l-26 -25zM125 433l26 26l26 -26l-26 -26zM227 26q17 19 25 28l27 -28l-27 -25zM227 128q17 19 25 28l27 -28l-27 -25zM227 230l25 26l27 -26l-27 -26zM227 331l25 27 l27 -27l-27 -25zM227 433l25 26l27 -26l-27 -26zM227 636l25 26l27 -26l-27 -26zM328 26q4 4 26 28l26 -28l-26 -25zM430 26q10 10 25 28l27 -28l-27 -25z" />
<glyph unicode="j" d="M24 -75q24 26 25 27l26 -27l-26 -26zM125 -177q4 4 26 28l26 -28l-26 -25zM125 433l26 26l26 -26l-26 -26zM227 -177q17 19 25 28l27 -28l-27 -25zM227 433l25 26l27 -26l-27 -26zM328 -177q4 4 26 28l26 -28l-26 -25zM328 433l26 26l26 -26l-26 -26zM430 26q10 10 25 28 l27 -28l-27 -25zM430 -75q5 5 25 27l27 -27l-27 -26zM430 128q10 10 25 28l27 -28l-27 -25zM430 230l25 26l27 -26l-27 -26zM430 331l25 27l27 -27l-27 -25zM430 433l25 26l27 -26l-27 -26zM430 636l25 26l27 -26l-27 -26z" />
<glyph unicode="k" d="M24 26q6 7 13 14.5t12 13.5l26 -28l-26 -25zM24 128q6 7 13 14.5t12 13.5l26 -28l-26 -25zM24 230l25 26l26 -26l-26 -26zM24 331l25 27l26 -27l-26 -25zM24 433l25 26l26 -26l-26 -26zM24 534l25 27l26 -27l-26 -25zM24 636l25 26l26 -26l-26 -26zM125 230l26 26l26 -26 l-26 -26zM227 230l25 26l27 -26l-27 -26zM328 128q4 4 26 28l26 -28l-26 -25zM328 331l26 27l26 -27l-26 -25zM328 433l26 26l26 -26l-26 -26zM430 26q10 10 25 28l27 -28l-27 -25z" />
<glyph unicode="l" d="M24 26q6 7 13 14.5t12 13.5l26 -28l-26 -25zM24 636l25 26l26 -26l-26 -26zM125 26q4 4 26 28l26 -28l-26 -25zM125 636l26 26l26 -26l-26 -26zM227 26q17 19 25 28l27 -28l-27 -25zM227 128q17 19 25 28l27 -28l-27 -25zM227 230l25 26l27 -26l-27 -26zM227 331l25 27 l27 -27l-27 -25zM227 433l25 26l27 -26l-27 -26zM227 534l25 27l27 -27l-27 -25zM227 636l25 26l27 -26l-27 -26zM328 26q4 4 26 28l26 -28l-26 -25zM430 26q10 10 25 28l27 -28l-27 -25z" />
<glyph unicode="m" d="M24 26q6 7 13 14.5t12 13.5l26 -28l-26 -25zM24 128q6 7 13 14.5t12 13.5l26 -28l-26 -25zM24 230l25 26l26 -26l-26 -26zM24 331l25 27l26 -27l-26 -25zM24 433l25 26l26 -26l-26 -26zM125 331l26 27l26 -27l-26 -25zM227 26q17 19 25 28l27 -28l-27 -25zM227 128 q17 19 25 28l27 -28l-27 -25zM227 230l25 26l27 -26l-27 -26zM227 331l25 27l27 -27l-27 -25zM227 433l25 26l27 -26l-27 -26zM328 331l26 27l26 -27l-26 -25zM430 26q10 10 25 28l27 -28l-27 -25zM430 128q10 10 25 28l27 -28l-27 -25zM430 230l25 26l27 -26l-27 -26z M430 331l25 27l27 -27l-27 -25zM430 433l25 26l27 -26l-27 -26z" />
<glyph unicode="n" d="M24 26q6 7 13 14.5t12 13.5l26 -28l-26 -25zM24 128q6 7 13 14.5t12 13.5l26 -28l-26 -25zM24 230l25 26l26 -26l-26 -26zM24 331l25 27l26 -27l-26 -25zM24 433l25 26l26 -26l-26 -26zM125 331l26 27l26 -27l-26 -25zM227 433l25 26l27 -26l-27 -26zM328 433l26 26 l26 -26l-26 -26zM430 26q10 10 25 28l27 -28l-27 -25zM430 128q10 10 25 28l27 -28l-27 -25zM430 230l25 26l27 -26l-27 -26zM430 331l25 27l27 -27l-27 -25z" />
<glyph unicode="o" d="M24 128q6 7 13 14.5t12 13.5l26 -28l-26 -25zM24 230l25 26l26 -26l-26 -26zM24 331l25 27l26 -27l-26 -25zM125 26q4 4 26 28l26 -28l-26 -25zM125 433l26 26l26 -26l-26 -26zM227 26q17 19 25 28l27 -28l-27 -25zM227 433l25 26l27 -26l-27 -26zM328 26q4 4 26 28 l26 -28l-26 -25zM328 433l26 26l26 -26l-26 -26zM430 128q10 10 25 28l27 -28l-27 -25zM430 230l25 26l27 -26l-27 -26zM430 331l25 27l27 -27l-27 -25z" />
<glyph unicode="p" d="M24 26q6 7 13 14.5t12 13.5l26 -28l-26 -25zM24 -75q24 26 25 27l26 -27l-26 -26zM24 128q6 7 13 14.5t12 13.5l26 -28l-26 -25zM24 -177q6 7 13 14.5t12 13.5l26 -28l-26 -25zM24 230l25 26l26 -26l-26 -26zM24 331l25 27l26 -27l-26 -25zM24 433l25 26l26 -26l-26 -26z M125 26q4 4 26 28l26 -28l-26 -25zM125 331l26 27l26 -27l-26 -25zM227 26q17 19 25 28l27 -28l-27 -25zM227 433l25 26l27 -26l-27 -26zM328 26q4 4 26 28l26 -28l-26 -25zM328 433l26 26l26 -26l-26 -26zM430 128q10 10 25 28l27 -28l-27 -25zM430 230l25 26l27 -26 l-27 -26zM430 331l25 27l27 -27l-27 -25z" />
<glyph unicode="q" d="M24 128q6 7 13 14.5t12 13.5l26 -28l-26 -25zM24 230l25 26l26 -26l-26 -26zM24 331l25 27l26 -27l-26 -25zM125 26q4 4 26 28l26 -28l-26 -25zM125 433l26 26l26 -26l-26 -26zM227 26q17 19 25 28l27 -28l-27 -25zM227 433l25 26l27 -26l-27 -26zM328 128q4 4 26 28 l26 -28l-26 -25zM328 433l26 26l26 -26l-26 -26zM430 26q10 10 25 28l27 -28l-27 -25zM430 -75q5 5 25 27l27 -27l-27 -26zM430 128q10 10 25 28l27 -28l-27 -25zM430 -177q10 10 25 28l27 -28l-27 -25zM430 230l25 26l27 -26l-27 -26zM430 331l25 27l27 -27l-27 -25z M430 433l25 26l27 -26l-27 -26z" />
<glyph unicode="r" d="M24 26q6 7 13 14.5t12 13.5l26 -28l-26 -25zM24 433l25 26l26 -26l-26 -26zM125 26q4 4 26 28l26 -28l-26 -25zM125 128q4 4 26 28l26 -28l-26 -25zM125 230l26 26l26 -26l-26 -26zM125 331l26 27l26 -27l-26 -25zM125 433l26 26l26 -26l-26 -26zM227 26q17 19 25 28 l27 -28l-27 -25zM227 331l25 27l27 -27l-27 -25zM328 26q4 4 26 28l26 -28l-26 -25zM328 433l26 26l26 -26l-26 -26zM430 433l25 26l27 -26l-27 -26z" />
<glyph unicode="s" d="M24 26q6 7 13 14.5t12 13.5l26 -28l-26 -25zM24 331l25 27l26 -27l-26 -25zM125 26q4 4 26 28l26 -28l-26 -25zM125 230l26 26l26 -26l-26 -26zM125 433l26 26l26 -26l-26 -26zM227 26q17 19 25 28l27 -28l-27 -25zM227 230l25 26l27 -26l-27 -26zM227 433l25 26l27 -26 l-27 -26zM328 26q4 4 26 28l26 -28l-26 -25zM328 230l26 26l26 -26l-26 -26zM328 433l26 26l26 -26l-26 -26zM430 128q10 10 25 28l27 -28l-27 -25zM430 433l25 26l27 -26l-27 -26z" />
<glyph unicode="t" d="M24 433l25 26l26 -26l-26 -26zM125 433l26 26l26 -26l-26 -26zM227 128q17 19 25 28l27 -28l-27 -25zM227 230l25 26l27 -26l-27 -26zM227 331l25 27l27 -27l-27 -25zM227 433l25 26l27 -26l-27 -26zM227 534l25 27l27 -27l-27 -25zM328 26q4 4 26 28l26 -28l-26 -25z M328 433l26 26l26 -26l-26 -26zM430 26q10 10 25 28l27 -28l-27 -25zM430 433l25 26l27 -26l-27 -26z" />
<glyph unicode="u" d="M24 128q6 7 13 14.5t12 13.5l26 -28l-26 -25zM24 230l25 26l26 -26l-26 -26zM24 331l25 27l26 -27l-26 -25zM24 433l25 26l26 -26l-26 -26zM125 26q4 4 26 28l26 -28l-26 -25zM227 26q17 19 25 28l27 -28l-27 -25zM328 128q4 4 26 28l26 -28l-26 -25zM430 26q10 10 25 28 l27 -28l-27 -25zM430 128q10 10 25 28l27 -28l-27 -25zM430 230l25 26l27 -26l-27 -26zM430 331l25 27l27 -27l-27 -25zM430 433l25 26l27 -26l-27 -26z" />
<glyph unicode="v" d="M24 331l25 27l26 -27l-26 -25zM24 433l25 26l26 -26l-26 -26zM125 128q4 4 26 28l26 -28l-26 -25zM125 230l26 26l26 -26l-26 -26zM227 26q17 19 25 28l27 -28l-27 -25zM328 128q4 4 26 28l26 -28l-26 -25zM328 230l26 26l26 -26l-26 -26zM430 331l25 27l27 -27l-27 -25z M430 433l25 26l27 -26l-27 -26z" />
<glyph unicode="w" d="M24 230l25 26l26 -26l-26 -26zM24 331l25 27l26 -27l-26 -25zM24 433l25 26l26 -26l-26 -26zM125 26q4 4 26 28l26 -28l-26 -25zM125 128q4 4 26 28l26 -28l-26 -25zM227 230l25 26l27 -26l-27 -26zM227 331l25 27l27 -27l-27 -25zM328 26q4 4 26 28l26 -28l-26 -25z M328 128q4 4 26 28l26 -28l-26 -25zM430 230l25 26l27 -26l-27 -26zM430 331l25 27l27 -27l-27 -25zM430 433l25 26l27 -26l-27 -26z" />
<glyph unicode="x" d="M24 26q6 7 13 14.5t12 13.5l26 -28l-26 -25zM24 128q6 7 13 14.5t12 13.5l26 -28l-26 -25zM24 331l25 27l26 -27l-26 -25zM24 433l25 26l26 -26l-26 -26zM125 230l26 26l26 -26l-26 -26zM227 230l25 26l27 -26l-27 -26zM328 230l26 26l26 -26l-26 -26zM430 26 q10 10 25 28l27 -28l-27 -25zM430 128q10 10 25 28l27 -28l-27 -25zM430 331l25 27l27 -27l-27 -25zM430 433l25 26l27 -26l-27 -26z" />
<glyph unicode="y" d="M24 -177q6 7 13 14.5t12 13.5l26 -28l-26 -25zM24 331l25 27l26 -27l-26 -25zM24 433l25 26l26 -26l-26 -26zM125 128q4 4 26 28l26 -28l-26 -25zM125 -177q4 4 26 28l26 -28l-26 -25zM125 230l26 26l26 -26l-26 -26zM227 26q17 19 25 28l27 -28l-27 -25zM227 -75 q4 5 11.5 13t13.5 14l27 -27l-27 -26zM328 128q4 4 26 28l26 -28l-26 -25zM328 230l26 26l26 -26l-26 -26zM430 331l25 27l27 -27l-27 -25zM430 433l25 26l27 -26l-27 -26z" />
<glyph unicode="z" d="M24 26q6 7 13 14.5t12 13.5l26 -28l-26 -25zM24 433l25 26l26 -26l-26 -26zM125 26q4 4 26 28l26 -28l-26 -25zM125 128q4 4 26 28l26 -28l-26 -25zM125 433l26 26l26 -26l-26 -26zM227 26q17 19 25 28l27 -28l-27 -25zM227 230l25 26l27 -26l-27 -26zM227 433l25 26 l27 -26l-27 -26zM328 26q4 4 26 28l26 -28l-26 -25zM328 331l26 27l26 -27l-26 -25zM328 433l26 26l26 -26l-26 -26zM430 26q10 10 25 28l27 -28l-27 -25zM430 433l25 26l27 -26l-27 -26z" />
<glyph unicode="{" d="M125 331l26 27l26 -27l-26 -25zM227 128q17 19 25 28l27 -28l-27 -25zM227 230l25 26l27 -26l-27 -26zM227 433l25 26l27 -26l-27 -26zM227 534l25 27l27 -27l-27 -25zM328 26q4 4 26 28l26 -28l-26 -25zM328 636l26 26l26 -26l-26 -26z" />
<glyph unicode="|" d="M227 26q17 19 25 28l27 -28l-27 -25zM227 128q17 19 25 28l27 -28l-27 -25zM227 230l25 26l27 -26l-27 -26zM227 331l25 27l27 -27l-27 -25zM227 433l25 26l27 -26l-27 -26zM227 534l25 27l27 -27l-27 -25zM227 636l25 26l27 -26l-27 -26z" />
<glyph unicode="}" d="M226 26q10 10 25 28l27 -28l-27 -25zM226 636l25 26l27 -26l-27 -26zM328 128q6 7 13 14.5t12 13.5l26 -28l-26 -25zM328 230l25 26l26 -26l-26 -26zM328 433l25 26l26 -26l-26 -26zM328 534l25 27l26 -27l-26 -25zM429 331l25 27l27 -27l-27 -25z" />
<glyph unicode="~" d="M24 331l25 27l26 -27l-26 -25zM125 433l26 26l26 -26l-26 -26zM227 331l25 27l27 -27l-27 -25zM328 230l26 26l26 -26l-26 -26zM430 331l25 27l27 -27l-27 -25z" />
<glyph unicode="&#xa0;" />
<glyph unicode="&#xa1;" d="M277 39l25 26l27 -26l-27 -26zM277 141l25 25l27 -25l-27 -27zM277 242l25 26l27 -26l-27 -26zM277 344l25 25l27 -25l-27 -27zM277 547l25 25l27 -25l-27 -28q-8 9 -25 28zM277 649l25 25l27 -25l-27 -28q-8 9 -25 28z" />
<glyph unicode="&#xa2;" d="M24 128q6 7 13 14.5t12 13.5l26 -28l-26 -25zM24 230l25 26l26 -26l-26 -26zM24 331l25 27l26 -27l-26 -25zM125 26q4 4 26 28l26 -28l-26 -25zM125 433l26 26l26 -26l-26 -26zM227 26q17 19 25 28l27 -28l-27 -25zM227 -75q4 5 11.5 13t13.5 14l27 -27l-27 -26zM227 128 q17 19 25 28l27 -28l-27 -25zM227 230l25 26l27 -26l-27 -26zM227 331l25 27l27 -27l-27 -25zM227 433l25 26l27 -26l-27 -26zM227 534l25 27l27 -27l-27 -25zM328 26q4 4 26 28l26 -28l-26 -25zM328 433l26 26l26 -26l-26 -26zM430 128q10 10 25 28l27 -28l-27 -25z M430 331l25 27l27 -27l-27 -25z" />
<glyph unicode="&#xa3;" d="M24 26q6 7 13 14.5t12 13.5l26 -28l-26 -25zM24 331l25 27l26 -27l-26 -25zM125 26q4 4 26 28l26 -28l-26 -25zM125 128q4 4 26 28l26 -28l-26 -25zM125 230l26 26l26 -26l-26 -26zM125 331l26 27l26 -27l-26 -25zM125 433l26 26l26 -26l-26 -26zM125 534l26 27l26 -27 l-26 -25zM227 26q17 19 25 28l27 -28l-27 -25zM227 331l25 27l27 -27l-27 -25zM227 636l25 26l27 -26l-27 -26zM328 26q4 4 26 28l26 -28l-26 -25zM328 331l26 27l26 -27l-26 -25zM328 636l26 26l26 -26l-26 -26zM430 26q10 10 25 28l27 -28l-27 -25zM430 534l25 27l27 -27 l-27 -25z" />
<glyph unicode="&#xa4;" d="M24 26q6 7 13 14.5t12 13.5l26 -28l-26 -25zM24 433l25 26l26 -26l-26 -26zM125 128q4 4 26 28l26 -28l-26 -25zM125 230l26 26l26 -26l-26 -26zM125 331l26 27l26 -27l-26 -25zM227 128q17 19 25 28l27 -28l-27 -25zM227 331l25 27l27 -27l-27 -25zM328 128q4 4 26 28 l26 -28l-26 -25zM328 230l26 26l26 -26l-26 -26zM328 331l26 27l26 -27l-26 -25zM430 26q10 10 25 28l27 -28l-27 -25zM430 433l25 26l27 -26l-27 -26z" />
<glyph unicode="&#xa5;" d="M24 230l25 26l26 -26l-26 -26zM24 534l25 27l26 -27l-26 -25zM24 636l25 26l26 -26l-26 -26zM125 230l26 26l26 -26l-26 -26zM125 433l26 26l26 -26l-26 -26zM227 26q17 19 25 28l27 -28l-27 -25zM227 128q17 19 25 28l27 -28l-27 -25zM227 230l25 26l27 -26l-27 -26z M227 331l25 27l27 -27l-27 -25zM328 230l26 26l26 -26l-26 -26zM328 433l26 26l26 -26l-26 -26zM430 230l25 26l27 -26l-27 -26zM430 534l25 27l27 -27l-27 -25zM430 636l25 26l27 -26l-27 -26z" />
<glyph unicode="&#xa6;" d="M227 26q17 19 25 28l27 -28l-27 -25zM227 128q17 19 25 28l27 -28l-27 -25zM227 230l25 26l27 -26l-27 -26zM227 433l25 26l27 -26l-27 -26zM227 534l25 27l27 -27l-27 -25zM227 636l25 26l27 -26l-27 -26z" />
<glyph unicode="&#xa7;" d="M125 26q17 19 25 28l27 -28l-27 -25zM125 331l25 27l27 -27l-27 -25zM125 534l25 27l27 -27l-27 -25zM226 26q4 4 26 28l26 -28l-26 -25zM226 230l26 26l26 -26l-26 -26zM226 433l26 26l26 -26l-26 -26zM226 636l26 26l26 -26l-26 -26zM328 26q10 10 25 28l27 -28 l-27 -25zM328 230l25 26l27 -26l-27 -26zM328 433l25 26l27 -26l-27 -26zM328 636l25 26l27 -26l-27 -26zM429 128q4 4 26 28l26 -28l-26 -25zM429 331l26 27l26 -27l-26 -25zM429 636l26 26l26 -26l-26 -26z" />
<glyph unicode="&#xa8;" d="M24 636l25 26l26 -26l-26 -26zM24 737l25 27l26 -27l-26 -25zM430 636l25 26l27 -26l-27 -26zM430 737l25 27l27 -27l-27 -25z" />
<glyph unicode="&#xa9;" d="M24 128q6 7 13 14.5t12 13.5l26 -28l-26 -25zM24 230l25 26l26 -26l-26 -26zM24 331l25 27l26 -27l-26 -25zM125 26q4 4 26 28l26 -28l-26 -25zM125 230l26 26l26 -26l-26 -26zM125 433l26 26l26 -26l-26 -26zM227 26q17 19 25 28l27 -28l-27 -25zM227 128q17 19 25 28 l27 -28l-27 -25zM227 331l25 27l27 -27l-27 -25zM227 433l25 26l27 -26l-27 -26zM328 26q4 4 26 28l26 -28l-26 -25zM328 433l26 26l26 -26l-26 -26zM430 128q10 10 25 28l27 -28l-27 -25zM430 230l25 26l27 -26l-27 -26zM430 331l25 27l27 -27l-27 -25z" />
<glyph unicode="&#xaa;" d="M24 433l26 26l26 -26l-26 -26zM126 331l25 27l27 -27l-27 -25zM126 433l25 26l27 -26l-27 -26zM126 636l25 26l27 -26l-27 -26zM227 331l26 27l26 -27l-26 -25zM227 433l26 26l26 -26l-26 -26zM227 534l26 27l26 -27l-26 -25z" />
<glyph unicode="&#xab;" d="M24 230l25 26l26 -26l-26 -26zM125 128q4 4 26 28l26 -28l-26 -25zM125 331l26 27l26 -27l-26 -25zM227 26q17 19 25 28l27 -28l-27 -25zM227 230l25 26l27 -26l-27 -26zM227 433l25 26l27 -26l-27 -26zM328 128q4 4 26 28l26 -28l-26 -25zM328 331l26 27l26 -27l-26 -25 zM430 26q10 10 25 28l27 -28l-27 -25zM430 433l25 26l27 -26l-27 -26z" />
<glyph unicode="&#xac;" d="M24 230l25 26l26 -26l-26 -26zM125 230l26 26l26 -26l-26 -26zM227 230l25 26l27 -26l-27 -26zM328 230l26 26l26 -26l-26 -26zM430 26q10 10 25 28l27 -28l-27 -25zM430 128q10 10 25 28l27 -28l-27 -25zM430 230l25 26l27 -26l-27 -26z" />
<glyph unicode="&#xad;" d="M125 230l26 26l26 -26l-26 -26zM227 230l25 26l27 -26l-27 -26zM328 230l26 26l26 -26l-26 -26z" />
<glyph unicode="&#xae;" d="M24 331l25 27l26 -27l-26 -25zM24 433l25 26l26 -26l-26 -26zM24 534l25 27l26 -27l-26 -25zM125 230l26 26l26 -26l-26 -26zM125 636l26 26l26 -26l-26 -26zM227 230l25 26l27 -26l-27 -26zM227 433l25 26l27 -26l-27 -26zM227 534l25 27l27 -27l-27 -25zM227 636l25 26 l27 -26l-27 -26zM328 230l26 26l26 -26l-26 -26zM328 331l26 27l26 -27l-26 -25zM328 534l26 27l26 -27l-26 -25zM328 636l26 26l26 -26l-26 -26zM430 331l25 27l27 -27l-27 -25zM430 433l25 26l27 -26l-27 -26zM430 534l25 27l27 -27l-27 -25z" />
<glyph unicode="&#xaf;" d="M125 636l26 26l26 -26l-26 -26zM227 636l25 26l27 -26l-27 -26zM328 636l26 26l26 -26l-26 -26z" />
<glyph unicode="&#xb0;" d="M24 534l26 27l26 -27l-26 -25zM126 433l25 26l27 -26l-27 -26zM126 636l25 26l27 -26l-27 -26zM227 534l26 27l26 -27l-26 -25z" />
<glyph unicode="&#xb1;" d="M24 26q6 7 13 14.5t12 13.5l26 -28l-26 -25zM24 331l25 27l26 -27l-26 -25zM125 26q4 4 26 28l26 -28l-26 -25zM125 331l26 27l26 -27l-26 -25zM227 26q17 19 25 28l27 -28l-27 -25zM227 230l25 26l27 -26l-27 -26zM227 331l25 27l27 -27l-27 -25zM227 433l25 26l27 -26 l-27 -26zM328 26q4 4 26 28l26 -28l-26 -25zM328 331l26 27l26 -27l-26 -25zM430 26q10 10 25 28l27 -28l-27 -25zM430 331l25 27l27 -27l-27 -25z" />
<glyph unicode="&#xb2;" d="M25 331l25 27l27 -27l-27 -25zM25 433l25 26l27 -26l-27 -26zM25 636l25 26l27 -26l-27 -26zM126 331l26 27l26 -27l-26 -25zM126 534l26 27l26 -27l-26 -25z" />
<glyph unicode="&#xb3;" d="M25 331l25 27l27 -27l-27 -25zM25 636l25 26l27 -26l-27 -26zM126 331l26 27l26 -27l-26 -25zM126 433l26 26l26 -26l-26 -26zM126 534l26 27l26 -27l-26 -25z" />
<glyph unicode="&#xb4;" d="M125 636l26 26l26 -26l-26 -26zM227 636l25 26l27 -26l-27 -26zM328 737l26 27l26 -27l-26 -25z" />
<glyph unicode="&#xb5;" d="M24 26q6 7 13 14.5t12 13.5l26 -28l-26 -25zM24 -75q24 26 25 27l26 -27l-26 -26zM24 128q6 7 13 14.5t12 13.5l26 -28l-26 -25zM24 -177q6 7 13 14.5t12 13.5l26 -28l-26 -25zM24 230l25 26l26 -26l-26 -26zM24 331l25 27l26 -27l-26 -25zM24 433l25 26l26 -26l-26 -26z M125 26q4 4 26 28l26 -28l-26 -25zM227 26q17 19 25 28l27 -28l-27 -25zM328 128q4 4 26 28l26 -28l-26 -25zM430 26q10 10 25 28l27 -28l-27 -25zM430 128q10 10 25 28l27 -28l-27 -25zM430 230l25 26l27 -26l-27 -26zM430 331l25 27l27 -27l-27 -25zM430 433l25 26l27 -26 l-27 -26z" />
<glyph unicode="&#xb6;" d="M24 433l25 26l26 -26l-26 -26zM24 534l25 27l26 -27l-26 -25zM125 331l26 27l26 -27l-26 -25zM125 433l26 26l26 -26l-26 -26zM125 534l26 27l26 -27l-26 -25zM125 636l26 26l26 -26l-26 -26zM227 26q17 19 25 28l27 -28l-27 -25zM227 128q17 19 25 28l27 -28l-27 -25z M227 230l25 26l27 -26l-27 -26zM227 331l25 27l27 -27l-27 -25zM227 433l25 26l27 -26l-27 -26zM227 534l25 27l27 -27l-27 -25zM227 636l25 26l27 -26l-27 -26zM430 26q10 10 25 28l27 -28l-27 -25zM430 128q10 10 25 28l27 -28l-27 -25zM430 230l25 26l27 -26l-27 -26z M430 331l25 27l27 -27l-27 -25zM430 433l25 26l27 -26l-27 -26zM430 534l25 27l27 -27l-27 -25zM430 636l25 26l27 -26l-27 -26z" />
<glyph unicode="&#xb7;" d="M126 230l25 26l27 -26l-27 -26zM126 331l25 27l27 -27l-27 -25z" />
<glyph unicode="&#xb8;" d="M126 -177q6 7 13 14.5t12 13.5l26 -28l-26 -25zM227 -75q5 5 25 27l27 -27l-27 -26z" />
<glyph unicode="&#xb9;" d="M24 331l26 27l26 -27l-26 -25zM24 636l26 26l26 -26l-26 -26zM126 331l25 27l27 -27l-27 -25zM126 433l25 26l27 -26l-27 -26zM126 534l25 27l27 -27l-27 -25zM126 636l25 26l27 -26l-27 -26zM227 331l26 27l26 -27l-26 -25z" />
<glyph unicode="&#xba;" d="M24 534l26 27l26 -27l-26 -25zM126 433l25 26l27 -26l-27 -26zM126 636l25 26l27 -26l-27 -26zM227 534l26 27l26 -27l-26 -25z" />
<glyph unicode="&#xbb;" d="M24 26q6 7 13 14.5t12 13.5l26 -28l-26 -25zM24 433l25 26l26 -26l-26 -26zM125 128q4 4 26 28l26 -28l-26 -25zM125 331l26 27l26 -27l-26 -25zM227 26q17 19 25 28l27 -28l-27 -25zM227 230l25 26l27 -26l-27 -26zM227 433l25 26l27 -26l-27 -26zM328 128q4 4 26 28 l26 -28l-26 -25zM328 331l26 27l26 -27l-26 -25zM430 230l25 26l27 -26l-27 -26z" />
<glyph unicode="&#xbc;" d="M23 636l26 26l26 -26l-26 -26zM125 26q17 19 25 28l27 -28l-27 -25zM125 128q17 19 25 28l27 -28l-27 -25zM125 433l25 26l27 -26l-27 -26zM125 534l25 27l27 -27l-27 -25zM125 636l25 26l27 -26l-27 -26zM226 230l26 26l26 -26l-26 -26zM226 331l26 27l26 -27l-26 -25z M328 433l25 26l27 -26l-27 -26zM429 230l26 26l26 -26l-26 -26zM429 534l26 27l26 -27l-26 -25zM429 636l26 26l26 -26l-26 -26zM531 26q10 10 25 28l27 -28l-27 -25zM531 128q10 10 25 28l27 -28l-27 -25zM531 230l25 26l27 -26l-27 -26zM531 331l25 27l27 -27l-27 -25z " />
<glyph unicode="&#xbd;" d="M23 636l26 26l26 -26l-26 -26zM125 26q17 19 25 28l27 -28l-27 -25zM125 128q17 19 25 28l27 -28l-27 -25zM125 433l25 26l27 -26l-27 -26zM125 534l25 27l27 -27l-27 -25zM125 636l25 26l27 -26l-27 -26zM226 230l26 26l26 -26l-26 -26zM226 331l26 27l26 -27l-26 -25z M328 433l25 26l27 -26l-27 -26zM429 26q4 4 26 28l26 -28l-26 -25zM429 128q4 4 26 28l26 -28l-26 -25zM429 331l26 27l26 -27l-26 -25zM429 534l26 27l26 -27l-26 -25zM429 636l26 26l26 -26l-26 -26zM531 26q10 10 25 28l27 -28l-27 -25zM531 230l25 26l27 -26l-27 -26z " />
<glyph unicode="&#xbe;" d="M23 331l26 27l26 -27l-26 -25zM23 636l26 26l26 -26l-26 -26zM125 26q17 19 25 28l27 -28l-27 -25zM125 128q17 19 25 28l27 -28l-27 -25zM125 331l25 27l27 -27l-27 -25zM125 433l25 26l27 -26l-27 -26zM125 534l25 27l27 -27l-27 -25zM226 230l26 26l26 -26l-26 -26z M226 331l26 27l26 -27l-26 -25zM328 433l25 26l27 -26l-27 -26zM429 230l26 26l26 -26l-26 -26zM429 534l26 27l26 -27l-26 -25zM429 636l26 26l26 -26l-26 -26zM531 26q10 10 25 28l27 -28l-27 -25zM531 128q10 10 25 28l27 -28l-27 -25zM531 230l25 26l27 -26l-27 -26z M531 331l25 27l27 -27l-27 -25z" />
<glyph unicode="&#xbf;" d="M43 141l27 25l25 -25l-25 -27zM43 242l27 26l25 -26l-25 -26zM145 39l26 26l26 -26l-26 -26zM145 344l26 25l26 -25l-26 -27zM246 39l27 26l25 -26l-25 -26zM246 344l27 25l25 -25l-25 -27zM246 547l27 25l25 -25q-17 -19 -25 -28zM246 649l27 25l25 -25q-17 -19 -25 -28 zM348 39l26 26l26 -26l-26 -26zM450 141l26 25l25 -25l-25 -27z" />
<glyph unicode="&#xc0;" d="M73 27l26 27l27 -27l-27 -26zM73 128l26 27l27 -27l-27 -26zM73 229l26 27l27 -27l-27 -26zM73 330l26 27l27 -27l-27 -26zM73 431l26 27l27 -27q-10 -11 -27 -25zM73 531l26 28l27 -28q-9 -9 -27 -24zM174 962l26 27l26 -27l-26 -25zM175 229q11 10 25 27l27 -27 l-27 -26zM175 633l25 26l27 -26l-27 -26zM276 229q15 15 25 27l27 -27l-27 -26zM276 633l25 26l27 -26l-27 -26zM276 861l25 26l27 -26l-27 -26zM377 229l26 27l26 -27l-26 -26zM377 633l26 26l26 -26l-26 -26zM377 861l26 26l26 -26l-26 -26zM478 27l26 27l26 -27l-26 -26z M478 128l26 27l26 -27l-26 -26zM478 229l26 27l26 -27l-26 -26zM478 330l26 27l26 -27l-26 -26zM478 431l26 27l26 -27l-26 -25zM478 531l26 28l26 -28l-26 -24z" />
<glyph unicode="&#xc1;" d="M73 27l26 27l27 -27l-27 -26zM73 128l26 27l27 -27l-27 -26zM73 229l26 27l27 -27l-27 -26zM73 330l26 27l27 -27l-27 -26zM73 431l26 27l27 -27q-10 -11 -27 -25zM73 531l26 28l27 -28q-9 -9 -27 -24zM175 229q11 10 25 27l27 -27l-27 -26zM175 633l25 26l27 -26 l-27 -26zM175 861l26 26l26 -26l-26 -26zM276 229q15 15 25 27l27 -27l-27 -26zM276 633l25 26l27 -26l-27 -26zM277 861l25 26l27 -26l-27 -26zM377 229l26 27l26 -27l-26 -26zM377 633l26 26l26 -26l-26 -26zM378 962l26 27l26 -27l-26 -25zM478 27l26 27l26 -27l-26 -26z M478 128l26 27l26 -27l-26 -26zM478 229l26 27l26 -27l-26 -26zM478 330l26 27l26 -27l-26 -26zM478 431l26 27l26 -27l-26 -25zM478 531l26 28l26 -28l-26 -24z" />
<glyph unicode="&#xc2;" d="M73 27l26 27l27 -27l-27 -26zM73 128l26 27l27 -27l-27 -26zM73 229l26 27l27 -27l-27 -26zM73 330l26 27l27 -27l-27 -26zM73 431l26 27l27 -27q-10 -11 -27 -25zM73 531l26 28l27 -28q-9 -9 -27 -24zM175 229q11 10 25 27l27 -27l-27 -26zM175 633l25 26l27 -26 l-27 -26zM175 861l26 26l26 -26l-26 -26zM276 229q15 15 25 27l27 -27l-27 -26zM276 633l25 26l27 -26l-27 -26zM277 962l25 27l27 -27l-27 -25zM377 229l26 27l26 -27l-26 -26zM377 633l26 26l26 -26l-26 -26zM378 861l26 26l26 -26l-26 -26zM478 27l26 27l26 -27l-26 -26z M478 128l26 27l26 -27l-26 -26zM478 229l26 27l26 -27l-26 -26zM478 330l26 27l26 -27l-26 -26zM478 431l26 27l26 -27l-26 -25zM478 531l26 28l26 -28l-26 -24z" />
<glyph unicode="&#xc3;" d="M73 27l26 27l27 -27l-27 -26zM73 128l26 27l27 -27l-27 -26zM73 229l26 27l27 -27l-27 -26zM73 330l26 27l27 -27l-27 -26zM73 431l26 27l27 -27q-10 -11 -27 -25zM73 531l26 28l27 -28q-9 -9 -27 -24zM74 861l25 26l26 -26l-26 -26zM175 229q11 10 25 27l27 -27l-27 -26 zM175 633l25 26l27 -26l-27 -26zM175 962l26 27l26 -27l-26 -25zM276 229q15 15 25 27l27 -27l-27 -26zM276 633l25 26l27 -26l-27 -26zM277 861l25 26l27 -26l-27 -26zM377 229l26 27l26 -27l-26 -26zM377 633l26 26l26 -26l-26 -26zM378 861l26 26l26 -26l-26 -26zM478 27 l26 27l26 -27l-26 -26zM478 128l26 27l26 -27l-26 -26zM478 229l26 27l26 -27l-26 -26zM478 330l26 27l26 -27l-26 -26zM478 431l26 27l26 -27l-26 -25zM478 531l26 28l26 -28l-26 -24zM480 962l25 27l27 -27l-27 -25z" />
<glyph unicode="&#xc4;" d="M73 27l26 27l27 -27l-27 -26zM73 128l26 27l27 -27l-27 -26zM73 229l26 27l27 -27l-27 -26zM73 330l26 27l27 -27l-27 -26zM73 431l26 27l27 -27q-10 -11 -27 -25zM73 531l26 28l27 -28q-9 -9 -27 -24zM74 861l25 26l26 -26l-26 -26zM74 962l25 27l26 -27l-26 -25z M175 229q11 10 25 27l27 -27l-27 -26zM175 633l25 26l27 -26l-27 -26zM276 229q15 15 25 27l27 -27l-27 -26zM276 633l25 26l27 -26l-27 -26zM377 229l26 27l26 -27l-26 -26zM377 633l26 26l26 -26l-26 -26zM478 27l26 27l26 -27l-26 -26zM478 128l26 27l26 -27l-26 -26z M478 229l26 27l26 -27l-26 -26zM478 330l26 27l26 -27l-26 -26zM478 431l26 27l26 -27l-26 -25zM478 531l26 28l26 -28l-26 -24zM480 861l25 26l27 -26l-27 -26zM480 962l25 27l27 -27l-27 -25z" />
<glyph unicode="&#xc5;" d="M73 27l26 27l27 -27l-27 -26zM73 128l26 27l27 -27l-27 -26zM73 229l26 27l27 -27l-27 -26zM73 330l26 27l27 -27l-27 -26zM73 431l26 27l27 -27q-10 -11 -27 -25zM73 531l26 28l27 -28q-9 -9 -27 -24zM175 229q11 10 25 27l27 -27l-27 -26zM175 633l25 26l27 -26 l-27 -26zM175 962l26 27l26 -27l-26 -25zM276 229q15 15 25 27l27 -27l-27 -26zM276 633l25 26l27 -26l-27 -26zM277 861l25 26l27 -26l-27 -26zM277 1064l25 26l27 -26l-27 -25zM377 229l26 27l26 -27l-26 -26zM377 633l26 26l26 -26l-26 -26zM378 962l26 27l26 -27 l-26 -25zM478 27l26 27l26 -27l-26 -26zM478 128l26 27l26 -27l-26 -26zM478 229l26 27l26 -27l-26 -26zM478 330l26 27l26 -27l-26 -26zM478 431l26 27l26 -27l-26 -25zM478 531l26 28l26 -28l-26 -24z" />
<glyph unicode="&#xc6;" d="M23 27l26 27l27 -27l-27 -26zM23 128l26 27l27 -27l-27 -26zM23 229l26 27l27 -27l-27 -26zM23 330l26 27l27 -27l-27 -26zM23 431l26 27l27 -27q-10 -11 -27 -25zM23 531l26 28l27 -28q-9 -9 -27 -24zM125 229q11 10 25 27l27 -27l-27 -26zM125 633l25 26l27 -26 l-27 -26zM226 27q4 5 11.5 13t13.5 14l27 -27l-27 -26zM226 128q5 5 25 27l27 -27l-27 -26zM226 229q15 15 25 27l27 -27l-27 -26zM226 330q15 15 25 27l27 -27l-27 -26zM226 431q15 15 25 27l27 -27q-5 -5 -27 -25zM226 531q17 19 25 28l27 -28q-7 -7 -14.5 -13.5 t-12.5 -10.5zM226 633l25 26l27 -26l-27 -26zM327 27l26 27l26 -27l-26 -26zM327 330l26 27l26 -27l-26 -26zM327 633l26 26l26 -26l-26 -26zM428 27l26 27l26 -27l-26 -26zM428 633l26 26l26 -26l-26 -26z" />
<glyph unicode="&#xc7;" d="M73 128l26 27l27 -27l-27 -26zM73 229l26 27l27 -27l-27 -26zM73 330l26 27l27 -27l-27 -26zM73 431l26 27l27 -27q-10 -11 -27 -25zM73 531l26 28l27 -28q-9 -9 -27 -24zM175 27q5 5 25 27l27 -27l-27 -26zM175 633l25 26l27 -26l-27 -26zM176 -177q6 7 13 14.5t12 13.5 l26 -28l-26 -25zM276 27q5 5 12 13t13 14l27 -27l-27 -26zM276 633l25 26l27 -26l-27 -26zM277 -75q5 5 25 27l27 -27l-27 -26zM377 27l26 27l26 -27l-26 -26zM377 633l26 26l26 -26l-26 -26zM478 128l26 27l26 -27l-26 -26zM478 531l26 28l26 -28l-26 -24z" />
<glyph unicode="&#xc8;" d="M73 27l26 27l27 -27l-27 -26zM73 128l26 27l27 -27l-27 -26zM73 229l26 27l27 -27l-27 -26zM73 330l26 27l27 -27l-27 -26zM73 431l26 27l27 -27q-10 -11 -27 -25zM73 531l26 28l27 -28q-9 -9 -27 -24zM73 633l26 26l27 -26l-27 -26zM174 962l26 27l26 -27l-26 -25z M175 27q5 5 25 27l27 -27l-27 -26zM175 330q11 10 25 27l27 -27l-27 -26zM175 633l25 26l27 -26l-27 -26zM276 27q5 5 12 13t13 14l27 -27l-27 -26zM276 330q15 15 25 27l27 -27l-27 -26zM276 633l25 26l27 -26l-27 -26zM276 861l25 26l27 -26l-27 -26zM377 27l26 27l26 -27 l-26 -26zM377 330l26 27l26 -27l-26 -26zM377 633l26 26l26 -26l-26 -26zM377 861l26 26l26 -26l-26 -26zM478 27l26 27l26 -27l-26 -26zM478 633l26 26l26 -26l-26 -26z" />
<glyph unicode="&#xc9;" d="M73 27l26 27l27 -27l-27 -26zM73 128l26 27l27 -27l-27 -26zM73 229l26 27l27 -27l-27 -26zM73 330l26 27l27 -27l-27 -26zM73 431l26 27l27 -27q-10 -11 -27 -25zM73 531l26 28l27 -28q-9 -9 -27 -24zM73 633l26 26l27 -26l-27 -26zM175 27q5 5 25 27l27 -27l-27 -26z M175 330q11 10 25 27l27 -27l-27 -26zM175 633l25 26l27 -26l-27 -26zM175 861l26 26l26 -26l-26 -26zM276 27q5 5 12 13t13 14l27 -27l-27 -26zM276 330q15 15 25 27l27 -27l-27 -26zM276 633l25 26l27 -26l-27 -26zM277 861l25 26l27 -26l-27 -26zM377 27l26 27l26 -27 l-26 -26zM377 330l26 27l26 -27l-26 -26zM377 633l26 26l26 -26l-26 -26zM378 962l26 27l26 -27l-26 -25zM478 27l26 27l26 -27l-26 -26zM478 633l26 26l26 -26l-26 -26z" />
<glyph unicode="&#xca;" d="M73 27l26 27l27 -27l-27 -26zM73 128l26 27l27 -27l-27 -26zM73 229l26 27l27 -27l-27 -26zM73 330l26 27l27 -27l-27 -26zM73 431l26 27l27 -27q-10 -11 -27 -25zM73 531l26 28l27 -28q-9 -9 -27 -24zM73 633l26 26l27 -26l-27 -26zM175 27q5 5 25 27l27 -27l-27 -26z M175 330q11 10 25 27l27 -27l-27 -26zM175 633l25 26l27 -26l-27 -26zM175 861l26 26l26 -26l-26 -26zM276 27q5 5 12 13t13 14l27 -27l-27 -26zM276 330q15 15 25 27l27 -27l-27 -26zM276 633l25 26l27 -26l-27 -26zM277 962l25 27l27 -27l-27 -25zM377 27l26 27l26 -27 l-26 -26zM377 330l26 27l26 -27l-26 -26zM377 633l26 26l26 -26l-26 -26zM378 861l26 26l26 -26l-26 -26zM478 27l26 27l26 -27l-26 -26zM478 633l26 26l26 -26l-26 -26z" />
<glyph unicode="&#xcb;" d="M73 27l26 27l27 -27l-27 -26zM73 128l26 27l27 -27l-27 -26zM73 229l26 27l27 -27l-27 -26zM73 330l26 27l27 -27l-27 -26zM73 431l26 27l27 -27q-10 -11 -27 -25zM73 531l26 28l27 -28q-9 -9 -27 -24zM73 633l26 26l27 -26l-27 -26zM74 861l25 26l26 -26l-26 -26z M74 962l25 27l26 -27l-26 -25zM175 27q5 5 25 27l27 -27l-27 -26zM175 330q11 10 25 27l27 -27l-27 -26zM175 633l25 26l27 -26l-27 -26zM276 27q5 5 12 13t13 14l27 -27l-27 -26zM276 330q15 15 25 27l27 -27l-27 -26zM276 633l25 26l27 -26l-27 -26zM377 27l26 27l26 -27 l-26 -26zM377 330l26 27l26 -27l-26 -26zM377 633l26 26l26 -26l-26 -26zM478 27l26 27l26 -27l-26 -26zM478 633l26 26l26 -26l-26 -26zM480 861l25 26l27 -26l-27 -26zM480 962l25 27l27 -27l-27 -25z" />
<glyph unicode="&#xcc;" d="M73 27l26 27l27 -27l-27 -26zM73 633l26 26l27 -26l-27 -26zM174 962l26 27l26 -27l-26 -25zM175 27q5 5 25 27l27 -27l-27 -26zM175 633l25 26l27 -26l-27 -26zM276 27q5 5 12 13t13 14l27 -27l-27 -26zM276 128q5 5 25 27l27 -27l-27 -26zM276 229q15 15 25 27l27 -27 l-27 -26zM276 330q15 15 25 27l27 -27l-27 -26zM276 431q15 15 25 27l27 -27q-5 -5 -27 -25zM276 531q17 19 25 28l27 -28q-7 -7 -14.5 -13.5t-12.5 -10.5zM276 633l25 26l27 -26l-27 -26zM276 861l25 26l27 -26l-27 -26zM377 27l26 27l26 -27l-26 -26zM377 633l26 26 l26 -26l-26 -26zM377 861l26 26l26 -26l-26 -26zM478 27l26 27l26 -27l-26 -26zM478 633l26 26l26 -26l-26 -26z" />
<glyph unicode="&#xcd;" d="M73 27l26 27l27 -27l-27 -26zM73 633l26 26l27 -26l-27 -26zM175 27q5 5 25 27l27 -27l-27 -26zM175 633l25 26l27 -26l-27 -26zM175 861l26 26l26 -26l-26 -26zM276 27q5 5 12 13t13 14l27 -27l-27 -26zM276 128q5 5 25 27l27 -27l-27 -26zM276 229q15 15 25 27l27 -27 l-27 -26zM276 330q15 15 25 27l27 -27l-27 -26zM276 431q15 15 25 27l27 -27q-5 -5 -27 -25zM276 531q17 19 25 28l27 -28q-7 -7 -14.5 -13.5t-12.5 -10.5zM276 633l25 26l27 -26l-27 -26zM277 861l25 26l27 -26l-27 -26zM377 27l26 27l26 -27l-26 -26zM377 633l26 26 l26 -26l-26 -26zM378 962l26 27l26 -27l-26 -25zM478 27l26 27l26 -27l-26 -26zM478 633l26 26l26 -26l-26 -26z" />
<glyph unicode="&#xce;" d="M73 27l26 27l27 -27l-27 -26zM73 633l26 26l27 -26l-27 -26zM175 27q5 5 25 27l27 -27l-27 -26zM175 633l25 26l27 -26l-27 -26zM175 861l26 26l26 -26l-26 -26zM276 27q5 5 12 13t13 14l27 -27l-27 -26zM276 128q5 5 25 27l27 -27l-27 -26zM276 229q15 15 25 27l27 -27 l-27 -26zM276 330q15 15 25 27l27 -27l-27 -26zM276 431q15 15 25 27l27 -27q-5 -5 -27 -25zM276 531q17 19 25 28l27 -28q-7 -7 -14.5 -13.5t-12.5 -10.5zM276 633l25 26l27 -26l-27 -26zM277 962l25 27l27 -27l-27 -25zM377 27l26 27l26 -27l-26 -26zM377 633l26 26 l26 -26l-26 -26zM378 861l26 26l26 -26l-26 -26zM478 27l26 27l26 -27l-26 -26zM478 633l26 26l26 -26l-26 -26z" />
<glyph unicode="&#xcf;" d="M73 27l26 27l27 -27l-27 -26zM73 633l26 26l27 -26l-27 -26zM74 861l25 26l26 -26l-26 -26zM74 962l25 27l26 -27l-26 -25zM175 27q5 5 25 27l27 -27l-27 -26zM175 633l25 26l27 -26l-27 -26zM276 27q5 5 12 13t13 14l27 -27l-27 -26zM276 128q5 5 25 27l27 -27l-27 -26z M276 229q15 15 25 27l27 -27l-27 -26zM276 330q15 15 25 27l27 -27l-27 -26zM276 431q15 15 25 27l27 -27q-5 -5 -27 -25zM276 531q17 19 25 28l27 -28q-7 -7 -14.5 -13.5t-12.5 -10.5zM276 633l25 26l27 -26l-27 -26zM377 27l26 27l26 -27l-26 -26zM377 633l26 26l26 -26 l-26 -26zM478 27l26 27l26 -27l-26 -26zM478 633l26 26l26 -26l-26 -26zM480 861l25 26l27 -26l-27 -26zM480 962l25 27l27 -27l-27 -25z" />
<glyph unicode="&#xd0;" d="M23 330l26 27l27 -27l-27 -26zM125 27q5 5 25 27l27 -27l-27 -26zM125 128q3 3 25 27l27 -27l-27 -26zM125 229q11 10 25 27l27 -27l-27 -26zM125 330q11 10 25 27l27 -27l-27 -26zM125 431q11 10 25 27l27 -27q-3 -3 -27 -25zM125 531q10 10 25 28l27 -28 q-7 -7 -15.5 -14t-11.5 -10zM125 633l25 26l27 -26l-27 -26zM226 27q4 5 11.5 13t13.5 14l27 -27l-27 -26zM226 330q15 15 25 27l27 -27l-27 -26zM226 633l25 26l27 -26l-27 -26zM327 27l26 27l26 -27l-26 -26zM327 633l26 26l26 -26l-26 -26zM428 128l26 27l26 -27l-26 -26 zM428 229l26 27l26 -27l-26 -26zM428 330l26 27l26 -27l-26 -26zM428 431l26 27l26 -27l-26 -25zM428 531l26 28l26 -28l-26 -24z" />
<glyph unicode="&#xd1;" d="M73 27l26 27l27 -27l-27 -26zM73 128l26 27l27 -27l-27 -26zM73 229l26 27l27 -27l-27 -26zM73 330l26 27l27 -27l-27 -26zM73 431l26 27l27 -27q-10 -11 -27 -25zM73 531l26 28l27 -28q-9 -9 -27 -24zM73 633l26 26l27 -26l-27 -26zM74 861l25 26l26 -26l-26 -26z M175 531q10 10 25 28l27 -28q-7 -7 -15.5 -14t-11.5 -10zM175 962l26 27l26 -27l-26 -25zM276 330q15 15 25 27l27 -27l-27 -26zM276 431q15 15 25 27l27 -27q-5 -5 -27 -25zM277 861l25 26l27 -26l-27 -26zM377 229l26 27l26 -27l-26 -26zM378 861l26 26l26 -26l-26 -26z M478 27l26 27l26 -27l-26 -26zM478 128l26 27l26 -27l-26 -26zM478 229l26 27l26 -27l-26 -26zM478 330l26 27l26 -27l-26 -26zM478 431l26 27l26 -27l-26 -25zM478 531l26 28l26 -28l-26 -24zM478 633l26 26l26 -26l-26 -26zM480 962l25 27l27 -27l-27 -25z" />
<glyph unicode="&#xd2;" d="M73 128l26 27l27 -27l-27 -26zM73 229l26 27l27 -27l-27 -26zM73 330l26 27l27 -27l-27 -26zM73 431l26 27l27 -27q-10 -11 -27 -25zM73 531l26 28l27 -28q-9 -9 -27 -24zM174 962l26 27l26 -27l-26 -25zM175 27q5 5 25 27l27 -27l-27 -26zM175 633l25 26l27 -26l-27 -26 zM276 27q5 5 12 13t13 14l27 -27l-27 -26zM276 633l25 26l27 -26l-27 -26zM276 861l25 26l27 -26l-27 -26zM377 27l26 27l26 -27l-26 -26zM377 633l26 26l26 -26l-26 -26zM377 861l26 26l26 -26l-26 -26zM478 128l26 27l26 -27l-26 -26zM478 229l26 27l26 -27l-26 -26z M478 330l26 27l26 -27l-26 -26zM478 431l26 27l26 -27l-26 -25zM478 531l26 28l26 -28l-26 -24z" />
<glyph unicode="&#xd3;" d="M73 128l26 27l27 -27l-27 -26zM73 229l26 27l27 -27l-27 -26zM73 330l26 27l27 -27l-27 -26zM73 431l26 27l27 -27q-10 -11 -27 -25zM73 531l26 28l27 -28q-9 -9 -27 -24zM175 27q5 5 25 27l27 -27l-27 -26zM175 633l25 26l27 -26l-27 -26zM175 861l26 26l26 -26l-26 -26 zM276 27q5 5 12 13t13 14l27 -27l-27 -26zM276 633l25 26l27 -26l-27 -26zM277 861l25 26l27 -26l-27 -26zM377 27l26 27l26 -27l-26 -26zM377 633l26 26l26 -26l-26 -26zM378 962l26 27l26 -27l-26 -25zM478 128l26 27l26 -27l-26 -26zM478 229l26 27l26 -27l-26 -26z M478 330l26 27l26 -27l-26 -26zM478 431l26 27l26 -27l-26 -25zM478 531l26 28l26 -28l-26 -24z" />
<glyph unicode="&#xd4;" d="M73 128l26 27l27 -27l-27 -26zM73 229l26 27l27 -27l-27 -26zM73 330l26 27l27 -27l-27 -26zM73 431l26 27l27 -27q-10 -11 -27 -25zM73 531l26 28l27 -28q-9 -9 -27 -24zM175 27q5 5 25 27l27 -27l-27 -26zM175 633l25 26l27 -26l-27 -26zM175 861l26 26l26 -26l-26 -26 zM276 27q5 5 12 13t13 14l27 -27l-27 -26zM276 633l25 26l27 -26l-27 -26zM277 962l25 27l27 -27l-27 -25zM377 27l26 27l26 -27l-26 -26zM377 633l26 26l26 -26l-26 -26zM378 861l26 26l26 -26l-26 -26zM478 128l26 27l26 -27l-26 -26zM478 229l26 27l26 -27l-26 -26z M478 330l26 27l26 -27l-26 -26zM478 431l26 27l26 -27l-26 -25zM478 531l26 28l26 -28l-26 -24z" />
<glyph unicode="&#xd5;" d="M73 128l26 27l27 -27l-27 -26zM73 229l26 27l27 -27l-27 -26zM73 330l26 27l27 -27l-27 -26zM73 431l26 27l27 -27q-10 -11 -27 -25zM73 531l26 28l27 -28q-9 -9 -27 -24zM74 861l25 26l26 -26l-26 -26zM175 27q5 5 25 27l27 -27l-27 -26zM175 633l25 26l27 -26l-27 -26z M175 962l26 27l26 -27l-26 -25zM276 27q5 5 12 13t13 14l27 -27l-27 -26zM276 633l25 26l27 -26l-27 -26zM277 861l25 26l27 -26l-27 -26zM377 27l26 27l26 -27l-26 -26zM377 633l26 26l26 -26l-26 -26zM378 861l26 26l26 -26l-26 -26zM478 128l26 27l26 -27l-26 -26z M478 229l26 27l26 -27l-26 -26zM478 330l26 27l26 -27l-26 -26zM478 431l26 27l26 -27l-26 -25zM478 531l26 28l26 -28l-26 -24zM480 962l25 27l27 -27l-27 -25z" />
<glyph unicode="&#xd6;" d="M73 128l26 27l27 -27l-27 -26zM73 229l26 27l27 -27l-27 -26zM73 330l26 27l27 -27l-27 -26zM73 431l26 27l27 -27q-10 -11 -27 -25zM73 531l26 28l27 -28q-9 -9 -27 -24zM74 861l25 26l26 -26l-26 -26zM74 962l25 27l26 -27l-26 -25zM175 27q5 5 25 27l27 -27l-27 -26z M175 633l25 26l27 -26l-27 -26zM276 27q5 5 12 13t13 14l27 -27l-27 -26zM276 633l25 26l27 -26l-27 -26zM377 27l26 27l26 -27l-26 -26zM377 633l26 26l26 -26l-26 -26zM478 128l26 27l26 -27l-26 -26zM478 229l26 27l26 -27l-26 -26zM478 330l26 27l26 -27l-26 -26z M478 431l26 27l26 -27l-26 -25zM478 531l26 28l26 -28l-26 -24zM480 861l25 26l27 -26l-27 -26zM480 962l25 27l27 -27l-27 -25z" />
<glyph unicode="&#xd7;" d="M24 26q6 7 13 14.5t12 13.5l26 -28l-26 -25zM24 433l25 26l26 -26l-26 -26zM125 128q4 4 26 28l26 -28l-26 -25zM125 331l26 27l26 -27l-26 -25zM227 230l25 26l27 -26l-27 -26zM328 128q4 4 26 28l26 -28l-26 -25zM328 331l26 27l26 -27l-26 -25zM430 26q10 10 25 28 l27 -28l-27 -25zM430 433l25 26l27 -26l-27 -26z" />
<glyph unicode="&#xd8;" d="M23 128l26 27l27 -27l-27 -26zM23 229l26 27l27 -27l-27 -26zM23 330l26 27l27 -27l-27 -26zM23 431l26 27l27 -27q-10 -11 -27 -25zM23 531l26 28l27 -28q-9 -9 -27 -24zM125 27q5 5 25 27l27 -27l-27 -26zM125 633l25 26l27 -26l-27 -26zM126 128l26 27l27 -27l-27 -26 zM226 27q4 5 11.5 13t13.5 14l27 -27l-27 -26zM226 633l25 26l27 -26l-27 -26zM227 229q15 15 25 27l27 -27l-27 -26zM227 330q15 15 25 27l27 -27l-27 -26zM227 431q15 15 25 27l27 -27q-3 -3 -27 -25zM327 27l26 27l26 -27l-26 -26zM327 531l26 28l26 -28l-26 -24z M327 633l26 26l26 -26l-26 -26zM428 128l26 27l26 -27l-26 -26zM428 229l26 27l26 -27l-26 -26zM428 330l26 27l26 -27l-26 -26zM428 431l26 27l26 -27l-26 -25zM428 531l26 28l26 -28l-26 -24z" />
<glyph unicode="&#xd9;" d="M73 128l26 27l27 -27l-27 -26zM73 229l26 27l27 -27l-27 -26zM73 330l26 27l27 -27l-27 -26zM73 431l26 27l27 -27q-10 -11 -27 -25zM73 531l26 28l27 -28q-9 -9 -27 -24zM73 633l26 26l27 -26l-27 -26zM174 962l26 27l26 -27l-26 -25zM175 27q5 5 25 27l27 -27l-27 -26z M276 27q5 5 12 13t13 14l27 -27l-27 -26zM276 861l25 26l27 -26l-27 -26zM377 27l26 27l26 -27l-26 -26zM377 861l26 26l26 -26l-26 -26zM478 128l26 27l26 -27l-26 -26zM478 229l26 27l26 -27l-26 -26zM478 330l26 27l26 -27l-26 -26zM478 431l26 27l26 -27l-26 -25z M478 531l26 28l26 -28l-26 -24zM478 633l26 26l26 -26l-26 -26z" />
<glyph unicode="&#xda;" d="M73 128l26 27l27 -27l-27 -26zM73 229l26 27l27 -27l-27 -26zM73 330l26 27l27 -27l-27 -26zM73 431l26 27l27 -27q-10 -11 -27 -25zM73 531l26 28l27 -28q-9 -9 -27 -24zM73 633l26 26l27 -26l-27 -26zM175 27q5 5 25 27l27 -27l-27 -26zM175 861l26 26l26 -26l-26 -26z M276 27q5 5 12 13t13 14l27 -27l-27 -26zM277 861l25 26l27 -26l-27 -26zM377 27l26 27l26 -27l-26 -26zM378 962l26 27l26 -27l-26 -25zM478 128l26 27l26 -27l-26 -26zM478 229l26 27l26 -27l-26 -26zM478 330l26 27l26 -27l-26 -26zM478 431l26 27l26 -27l-26 -25z M478 531l26 28l26 -28l-26 -24zM478 633l26 26l26 -26l-26 -26z" />
<glyph unicode="&#xdb;" d="M73 128l26 27l27 -27l-27 -26zM73 229l26 27l27 -27l-27 -26zM73 330l26 27l27 -27l-27 -26zM73 431l26 27l27 -27q-10 -11 -27 -25zM73 531l26 28l27 -28q-9 -9 -27 -24zM73 633l26 26l27 -26l-27 -26zM175 27q5 5 25 27l27 -27l-27 -26zM175 861l26 26l26 -26l-26 -26z M276 27q5 5 12 13t13 14l27 -27l-27 -26zM277 962l25 27l27 -27l-27 -25zM377 27l26 27l26 -27l-26 -26zM378 861l26 26l26 -26l-26 -26zM478 128l26 27l26 -27l-26 -26zM478 229l26 27l26 -27l-26 -26zM478 330l26 27l26 -27l-26 -26zM478 431l26 27l26 -27l-26 -25z M478 531l26 28l26 -28l-26 -24zM478 633l26 26l26 -26l-26 -26z" />
<glyph unicode="&#xdc;" d="M73 128l26 27l27 -27l-27 -26zM73 229l26 27l27 -27l-27 -26zM73 330l26 27l27 -27l-27 -26zM73 431l26 27l27 -27q-10 -11 -27 -25zM73 531l26 28l27 -28q-9 -9 -27 -24zM73 633l26 26l27 -26l-27 -26zM74 861l25 26l26 -26l-26 -26zM74 962l25 27l26 -27l-26 -25z M175 27q5 5 25 27l27 -27l-27 -26zM276 27q5 5 12 13t13 14l27 -27l-27 -26zM377 27l26 27l26 -27l-26 -26zM478 128l26 27l26 -27l-26 -26zM478 229l26 27l26 -27l-26 -26zM478 330l26 27l26 -27l-26 -26zM478 431l26 27l26 -27l-26 -25zM478 531l26 28l26 -28l-26 -24z M478 633l26 26l26 -26l-26 -26zM480 861l25 26l27 -26l-27 -26zM480 962l25 27l27 -27l-27 -25z" />
<glyph unicode="&#xdd;" d="M73 431l26 27l27 -27q-10 -11 -27 -25zM73 531l26 28l27 -28q-9 -9 -27 -24zM73 633l26 26l27 -26l-27 -26zM175 330q11 10 25 27l27 -27l-27 -26zM175 861l26 26l26 -26l-26 -26zM276 27q5 5 12 13t13 14l27 -27l-27 -26zM276 128q5 5 25 27l27 -27l-27 -26zM276 229 q15 15 25 27l27 -27l-27 -26zM277 861l25 26l27 -26l-27 -26zM377 330l26 27l26 -27l-26 -26zM378 962l26 27l26 -27l-26 -25zM478 431l26 27l26 -27l-26 -25zM478 531l26 28l26 -28l-26 -24zM478 633l26 26l26 -26l-26 -26z" />
<glyph unicode="&#xde;" d="M23 27l26 27l27 -27l-27 -26zM23 128l26 27l27 -27l-27 -26zM23 229l26 27l27 -27l-27 -26zM23 330l26 27l27 -27l-27 -26zM23 431l26 27l27 -27q-10 -11 -27 -25zM23 531l26 28l27 -28q-9 -9 -27 -24zM23 633l26 26l27 -26l-27 -26zM125 229q11 10 25 27l27 -27l-27 -26 zM125 531q10 10 25 28l27 -28q-7 -7 -15.5 -14t-11.5 -10zM226 229q15 15 25 27l27 -27l-27 -26zM226 531q17 19 25 28l27 -28q-7 -7 -14.5 -13.5t-12.5 -10.5zM327 229l26 27l26 -27l-26 -26zM327 531l26 28l26 -28l-26 -24zM428 330l26 27l26 -27l-26 -26zM428 431l26 27 l26 -27l-26 -25z" />
<glyph unicode="&#xdf;" d="M24 26q6 7 13 14.5t12 13.5l26 -28l-26 -25zM24 128q6 7 13 14.5t12 13.5l26 -28l-26 -25zM24 230l25 26l26 -26l-26 -26zM24 331l25 27l26 -27l-26 -25zM24 433l25 26l26 -26l-26 -26zM125 534l26 27l26 -27l-26 -25zM227 26q17 19 25 28l27 -28l-27 -25zM227 331l25 27 l27 -27l-27 -25zM227 636l25 26l27 -26l-27 -26zM328 26q4 4 26 28l26 -28l-26 -25zM328 230l26 26l26 -26l-26 -26zM328 433l26 26l26 -26l-26 -26zM328 534l26 27l26 -27l-26 -25zM430 128q10 10 25 28l27 -28l-27 -25z" />
<glyph unicode="&#xe0;" d="M74 128q6 7 13 14.5t12 13.5l26 -28l-26 -25zM174 737l26 27l26 -27l-26 -25zM175 26q4 4 26 28l26 -28l-26 -25zM175 230l26 26l26 -26l-26 -26zM175 433l26 26l26 -26l-26 -26zM276 636l25 26l27 -26l-27 -26zM277 26q17 19 25 28l27 -28l-27 -25zM277 230l25 26 l27 -26l-27 -26zM277 433l25 26l27 -26l-27 -26zM377 636l26 26l26 -26l-26 -26zM378 26q4 4 26 28l26 -28l-26 -25zM378 230l26 26l26 -26l-26 -26zM378 433l26 26l26 -26l-26 -26zM480 26q10 10 25 28l27 -28l-27 -25zM480 128q10 10 25 28l27 -28l-27 -25zM480 230l25 26 l27 -26l-27 -26zM480 331l25 27l27 -27l-27 -25z" />
<glyph unicode="&#xe1;" d="M74 128q6 7 13 14.5t12 13.5l26 -28l-26 -25zM175 26q4 4 26 28l26 -28l-26 -25zM175 230l26 26l26 -26l-26 -26zM175 433l26 26l26 -26l-26 -26zM175 636l26 26l26 -26l-26 -26zM277 26q17 19 25 28l27 -28l-27 -25zM277 230l25 26l27 -26l-27 -26zM277 433l25 26 l27 -26l-27 -26zM277 636l25 26l27 -26l-27 -26zM378 26q4 4 26 28l26 -28l-26 -25zM378 230l26 26l26 -26l-26 -26zM378 433l26 26l26 -26l-26 -26zM378 737l26 27l26 -27l-26 -25zM480 26q10 10 25 28l27 -28l-27 -25zM480 128q10 10 25 28l27 -28l-27 -25zM480 230l25 26 l27 -26l-27 -26zM480 331l25 27l27 -27l-27 -25z" />
<glyph unicode="&#xe2;" d="M74 128q6 7 13 14.5t12 13.5l26 -28l-26 -25zM175 26q4 4 26 28l26 -28l-26 -25zM175 230l26 26l26 -26l-26 -26zM175 433l26 26l26 -26l-26 -26zM277 26q17 19 25 28l27 -28l-27 -25zM277 230l25 26l27 -26l-27 -26zM277 433l25 26l27 -26l-27 -26zM378 26q4 4 26 28 l26 -28l-26 -25zM378 230l26 26l26 -26l-26 -26zM378 433l26 26l26 -26l-26 -26zM480 26q10 10 25 28l27 -28l-27 -25zM480 128q10 10 25 28l27 -28l-27 -25zM480 230l25 26l27 -26l-27 -26zM480 331l25 27l27 -27l-27 -25z" />
<glyph unicode="&#xe3;" d="M74 128q6 7 13 14.5t12 13.5l26 -28l-26 -25zM74 636l25 26l26 -26l-26 -26zM175 26q4 4 26 28l26 -28l-26 -25zM175 230l26 26l26 -26l-26 -26zM175 433l26 26l26 -26l-26 -26zM175 737l26 27l26 -27l-26 -25zM277 26q17 19 25 28l27 -28l-27 -25zM277 230l25 26l27 -26 l-27 -26zM277 433l25 26l27 -26l-27 -26zM277 636l25 26l27 -26l-27 -26zM378 26q4 4 26 28l26 -28l-26 -25zM378 230l26 26l26 -26l-26 -26zM378 433l26 26l26 -26l-26 -26zM378 636l26 26l26 -26l-26 -26zM480 26q10 10 25 28l27 -28l-27 -25zM480 128q10 10 25 28l27 -28 l-27 -25zM480 230l25 26l27 -26l-27 -26zM480 331l25 27l27 -27l-27 -25zM480 737l25 27l27 -27l-27 -25z" />
<glyph unicode="&#xe4;" d="M74 128q6 7 13 14.5t12 13.5l26 -28l-26 -25zM74 636l25 26l26 -26l-26 -26zM74 737l25 27l26 -27l-26 -25zM175 26q4 4 26 28l26 -28l-26 -25zM175 230l26 26l26 -26l-26 -26zM175 433l26 26l26 -26l-26 -26zM277 26q17 19 25 28l27 -28l-27 -25zM277 230l25 26l27 -26 l-27 -26zM277 433l25 26l27 -26l-27 -26zM378 26q4 4 26 28l26 -28l-26 -25zM378 230l26 26l26 -26l-26 -26zM378 433l26 26l26 -26l-26 -26zM480 26q10 10 25 28l27 -28l-27 -25zM480 128q10 10 25 28l27 -28l-27 -25zM480 230l25 26l27 -26l-27 -26zM480 331l25 27l27 -27 l-27 -25zM480 636l25 26l27 -26l-27 -26zM480 737l25 27l27 -27l-27 -25z" />
<glyph unicode="&#xe5;" d="M74 128q6 7 13 14.5t12 13.5l26 -28l-26 -25zM175 26q4 4 26 28l26 -28l-26 -25zM175 230l26 26l26 -26l-26 -26zM175 433l26 26l26 -26l-26 -26zM175 737l26 27l26 -27l-26 -25zM277 26q17 19 25 28l27 -28l-27 -25zM277 230l25 26l27 -26l-27 -26zM277 433l25 26 l27 -26l-27 -26zM277 636l25 26l27 -26l-27 -26zM277 839l25 26l27 -26l-27 -25zM378 26q4 4 26 28l26 -28l-26 -25zM378 230l26 26l26 -26l-26 -26zM378 433l26 26l26 -26l-26 -26zM378 737l26 27l26 -27l-26 -25zM480 26q10 10 25 28l27 -28l-27 -25zM480 128q10 10 25 28 l27 -28l-27 -25zM480 230l25 26l27 -26l-27 -26zM480 331l25 27l27 -27l-27 -25z" />
<glyph unicode="&#xe6;" d="M24 128q6 7 13 14.5t12 13.5l26 -28l-26 -25zM125 26q4 4 26 28l26 -28l-26 -25zM125 230l26 26l26 -26l-26 -26zM125 433l26 26l26 -26l-26 -26zM227 26q17 19 25 28l27 -28l-27 -25zM227 128q17 19 25 28l27 -28l-27 -25zM227 230l25 26l27 -26l-27 -26zM227 331l25 27 l27 -27l-27 -25zM328 26q4 4 26 28l26 -28l-26 -25zM328 230l26 26l26 -26l-26 -26zM328 433l26 26l26 -26l-26 -26zM430 26q10 10 25 28l27 -28l-27 -25zM430 331l25 27l27 -27l-27 -25z" />
<glyph unicode="&#xe7;" d="M74 128q6 7 13 14.5t12 13.5l26 -28l-26 -25zM74 230l25 26l26 -26l-26 -26zM74 331l25 27l26 -27l-26 -25zM175 26q4 4 26 28l26 -28l-26 -25zM175 433l26 26l26 -26l-26 -26zM176 -177q6 7 13 14.5t12 13.5l26 -28l-26 -25zM277 26q17 19 25 28l27 -28l-27 -25z M277 -75q5 5 25 27l27 -27l-27 -26zM277 433l25 26l27 -26l-27 -26zM378 26q4 4 26 28l26 -28l-26 -25zM378 433l26 26l26 -26l-26 -26zM480 128q10 10 25 28l27 -28l-27 -25zM480 331l25 27l27 -27l-27 -25z" />
<glyph unicode="&#xe8;" d="M74 128q6 7 13 14.5t12 13.5l26 -28l-26 -25zM74 230l25 26l26 -26l-26 -26zM74 331l25 27l26 -27l-26 -25zM174 737l26 27l26 -27l-26 -25zM175 26q4 4 26 28l26 -28l-26 -25zM175 230l26 26l26 -26l-26 -26zM175 433l26 26l26 -26l-26 -26zM276 636l25 26l27 -26 l-27 -26zM277 26q17 19 25 28l27 -28l-27 -25zM277 230l25 26l27 -26l-27 -26zM277 433l25 26l27 -26l-27 -26zM377 636l26 26l26 -26l-26 -26zM378 26q4 4 26 28l26 -28l-26 -25zM378 230l26 26l26 -26l-26 -26zM378 433l26 26l26 -26l-26 -26zM480 26q10 10 25 28l27 -28 l-27 -25zM480 230l25 26l27 -26l-27 -26zM480 331l25 27l27 -27l-27 -25z" />
<glyph unicode="&#xe9;" d="M74 128q6 7 13 14.5t12 13.5l26 -28l-26 -25zM74 230l25 26l26 -26l-26 -26zM74 331l25 27l26 -27l-26 -25zM175 26q4 4 26 28l26 -28l-26 -25zM175 230l26 26l26 -26l-26 -26zM175 433l26 26l26 -26l-26 -26zM175 636l26 26l26 -26l-26 -26zM277 26q17 19 25 28l27 -28 l-27 -25zM277 230l25 26l27 -26l-27 -26zM277 433l25 26l27 -26l-27 -26zM277 636l25 26l27 -26l-27 -26zM378 26q4 4 26 28l26 -28l-26 -25zM378 230l26 26l26 -26l-26 -26zM378 433l26 26l26 -26l-26 -26zM378 737l26 27l26 -27l-26 -25zM480 26q10 10 25 28l27 -28 l-27 -25zM480 230l25 26l27 -26l-27 -26zM480 331l25 27l27 -27l-27 -25z" />
<glyph unicode="&#xea;" d="M74 128q6 7 13 14.5t12 13.5l26 -28l-26 -25zM74 230l25 26l26 -26l-26 -26zM74 331l25 27l26 -27l-26 -25zM175 26q4 4 26 28l26 -28l-26 -25zM175 230l26 26l26 -26l-26 -26zM175 433l26 26l26 -26l-26 -26zM175 636l26 26l26 -26l-26 -26zM277 26q17 19 25 28l27 -28 l-27 -25zM277 230l25 26l27 -26l-27 -26zM277 433l25 26l27 -26l-27 -26zM277 737l25 27l27 -27l-27 -25zM378 26q4 4 26 28l26 -28l-26 -25zM378 230l26 26l26 -26l-26 -26zM378 433l26 26l26 -26l-26 -26zM378 636l26 26l26 -26l-26 -26zM480 26q10 10 25 28l27 -28 l-27 -25zM480 230l25 26l27 -26l-27 -26zM480 331l25 27l27 -27l-27 -25z" />
<glyph unicode="&#xeb;" d="M74 128q6 7 13 14.5t12 13.5l26 -28l-26 -25zM74 230l25 26l26 -26l-26 -26zM74 331l25 27l26 -27l-26 -25zM74 636l25 26l26 -26l-26 -26zM74 737l25 27l26 -27l-26 -25zM175 26q4 4 26 28l26 -28l-26 -25zM175 230l26 26l26 -26l-26 -26zM175 433l26 26l26 -26l-26 -26 zM277 26q17 19 25 28l27 -28l-27 -25zM277 230l25 26l27 -26l-27 -26zM277 433l25 26l27 -26l-27 -26zM378 26q4 4 26 28l26 -28l-26 -25zM378 230l26 26l26 -26l-26 -26zM378 433l26 26l26 -26l-26 -26zM480 26q10 10 25 28l27 -28l-27 -25zM480 230l25 26l27 -26l-27 -26z M480 331l25 27l27 -27l-27 -25zM480 636l25 26l27 -26l-27 -26zM480 737l25 27l27 -27l-27 -25z" />
<glyph unicode="&#xec;" d="M24 26q6 7 13 14.5t12 13.5l26 -28l-26 -25zM24 433l25 26l26 -26l-26 -26zM125 26q4 4 26 28l26 -28l-26 -25zM125 433l26 26l26 -26l-26 -26zM125 737l26 27l26 -27l-26 -25zM227 26q17 19 25 28l27 -28l-27 -25zM227 128q17 19 25 28l27 -28l-27 -25zM227 230l25 26 l27 -26l-27 -26zM227 331l25 27l27 -27l-27 -25zM227 433l25 26l27 -26l-27 -26zM227 636l25 26l27 -26l-27 -26zM328 26q4 4 26 28l26 -28l-26 -25zM328 636l26 26l26 -26l-26 -26zM430 26q10 10 25 28l27 -28l-27 -25z" />
<glyph unicode="&#xed;" d="M24 26q6 7 13 14.5t12 13.5l26 -28l-26 -25zM24 433l25 26l26 -26l-26 -26zM125 26q4 4 26 28l26 -28l-26 -25zM125 433l26 26l26 -26l-26 -26zM125 636l26 26l26 -26l-26 -26zM227 26q17 19 25 28l27 -28l-27 -25zM227 128q17 19 25 28l27 -28l-27 -25zM227 230l25 26 l27 -26l-27 -26zM227 331l25 27l27 -27l-27 -25zM227 433l25 26l27 -26l-27 -26zM227 636l25 26l27 -26l-27 -26zM328 26q4 4 26 28l26 -28l-26 -25zM328 737l26 27l26 -27l-26 -25zM430 26q10 10 25 28l27 -28l-27 -25z" />
<glyph unicode="&#xee;" d="M24 26q6 7 13 14.5t12 13.5l26 -28l-26 -25zM24 433l25 26l26 -26l-26 -26zM125 26q4 4 26 28l26 -28l-26 -25zM125 433l26 26l26 -26l-26 -26zM125 636l26 26l26 -26l-26 -26zM227 26q17 19 25 28l27 -28l-27 -25zM227 128q17 19 25 28l27 -28l-27 -25zM227 230l25 26 l27 -26l-27 -26zM227 331l25 27l27 -27l-27 -25zM227 433l25 26l27 -26l-27 -26zM227 737l25 27l27 -27l-27 -25zM328 26q4 4 26 28l26 -28l-26 -25zM328 636l26 26l26 -26l-26 -26zM430 26q10 10 25 28l27 -28l-27 -25z" />
<glyph unicode="&#xef;" d="M24 26q6 7 13 14.5t12 13.5l26 -28l-26 -25zM24 433l25 26l26 -26l-26 -26zM24 636l25 26l26 -26l-26 -26zM24 737l25 27l26 -27l-26 -25zM125 26q4 4 26 28l26 -28l-26 -25zM125 433l26 26l26 -26l-26 -26zM227 26q17 19 25 28l27 -28l-27 -25zM227 128q17 19 25 28 l27 -28l-27 -25zM227 230l25 26l27 -26l-27 -26zM227 331l25 27l27 -27l-27 -25zM227 433l25 26l27 -26l-27 -26zM328 26q4 4 26 28l26 -28l-26 -25zM430 26q10 10 25 28l27 -28l-27 -25zM430 636l25 26l27 -26l-27 -26zM430 737l25 27l27 -27l-27 -25z" />
<glyph unicode="&#xf0;" d="M24 128q6 7 13 14.5t12 13.5l26 -28l-26 -25zM24 230l25 26l26 -26l-26 -26zM125 331l26 27l26 -27l-26 -25zM125 636l26 26l26 -26l-26 -26zM126 26q4 4 26 28l26 -28l-26 -25zM227 26q17 19 25 28l27 -28l-27 -25zM227 331l25 27l27 -27l-27 -25zM227 433l25 26l27 -26 l-27 -26zM227 636l25 26l27 -26l-27 -26zM327 26q4 4 26 28l26 -28l-26 -25zM328 331l26 27l26 -27l-26 -25zM328 534l26 27l26 -27l-26 -25zM430 128q10 10 25 28l27 -28l-27 -25zM430 230l25 26l27 -26l-27 -26zM430 331l25 27l27 -27l-27 -25zM430 433l25 26l27 -26 l-27 -26zM430 636l25 26l27 -26l-27 -26z" />
<glyph unicode="&#xf1;" d="M74 26q6 7 13 14.5t12 13.5l26 -28l-26 -25zM74 128q6 7 13 14.5t12 13.5l26 -28l-26 -25zM74 230l25 26l26 -26l-26 -26zM74 331l25 27l26 -27l-26 -25zM74 433l25 26l26 -26l-26 -26zM74 636l25 26l26 -26l-26 -26zM175 331l26 27l26 -27l-26 -25zM175 737l26 27 l26 -27l-26 -25zM277 433l25 26l27 -26l-27 -26zM277 636l25 26l27 -26l-27 -26zM378 433l26 26l26 -26l-26 -26zM378 636l26 26l26 -26l-26 -26zM480 26q10 10 25 28l27 -28l-27 -25zM480 128q10 10 25 28l27 -28l-27 -25zM480 230l25 26l27 -26l-27 -26zM480 331l25 27 l27 -27l-27 -25zM480 737l25 27l27 -27l-27 -25z" />
<glyph unicode="&#xf2;" d="M74 128q6 7 13 14.5t12 13.5l26 -28l-26 -25zM74 230l25 26l26 -26l-26 -26zM74 331l25 27l26 -27l-26 -25zM174 737l26 27l26 -27l-26 -25zM175 26q4 4 26 28l26 -28l-26 -25zM175 433l26 26l26 -26l-26 -26zM276 636l25 26l27 -26l-27 -26zM277 26q17 19 25 28l27 -28 l-27 -25zM277 433l25 26l27 -26l-27 -26zM377 636l26 26l26 -26l-26 -26zM378 26q4 4 26 28l26 -28l-26 -25zM378 433l26 26l26 -26l-26 -26zM480 128q10 10 25 28l27 -28l-27 -25zM480 230l25 26l27 -26l-27 -26zM480 331l25 27l27 -27l-27 -25z" />
<glyph unicode="&#xf3;" d="M74 128q6 7 13 14.5t12 13.5l26 -28l-26 -25zM74 230l25 26l26 -26l-26 -26zM74 331l25 27l26 -27l-26 -25zM175 26q4 4 26 28l26 -28l-26 -25zM175 433l26 26l26 -26l-26 -26zM175 636l26 26l26 -26l-26 -26zM277 26q17 19 25 28l27 -28l-27 -25zM277 433l25 26l27 -26 l-27 -26zM277 636l25 26l27 -26l-27 -26zM378 26q4 4 26 28l26 -28l-26 -25zM378 433l26 26l26 -26l-26 -26zM378 737l26 27l26 -27l-26 -25zM480 128q10 10 25 28l27 -28l-27 -25zM480 230l25 26l27 -26l-27 -26zM480 331l25 27l27 -27l-27 -25z" />
<glyph unicode="&#xf4;" d="M74 128q6 7 13 14.5t12 13.5l26 -28l-26 -25zM74 230l25 26l26 -26l-26 -26zM74 331l25 27l26 -27l-26 -25zM175 26q4 4 26 28l26 -28l-26 -25zM175 433l26 26l26 -26l-26 -26zM175 636l26 26l26 -26l-26 -26zM277 26q17 19 25 28l27 -28l-27 -25zM277 433l25 26l27 -26 l-27 -26zM277 737l25 27l27 -27l-27 -25zM378 26q4 4 26 28l26 -28l-26 -25zM378 433l26 26l26 -26l-26 -26zM378 636l26 26l26 -26l-26 -26zM480 128q10 10 25 28l27 -28l-27 -25zM480 230l25 26l27 -26l-27 -26zM480 331l25 27l27 -27l-27 -25z" />
<glyph unicode="&#xf5;" d="M74 128q6 7 13 14.5t12 13.5l26 -28l-26 -25zM74 230l25 26l26 -26l-26 -26zM74 331l25 27l26 -27l-26 -25zM74 636l25 26l26 -26l-26 -26zM175 26q4 4 26 28l26 -28l-26 -25zM175 433l26 26l26 -26l-26 -26zM175 737l26 27l26 -27l-26 -25zM277 26q17 19 25 28l27 -28 l-27 -25zM277 433l25 26l27 -26l-27 -26zM277 636l25 26l27 -26l-27 -26zM378 26q4 4 26 28l26 -28l-26 -25zM378 433l26 26l26 -26l-26 -26zM378 636l26 26l26 -26l-26 -26zM480 128q10 10 25 28l27 -28l-27 -25zM480 230l25 26l27 -26l-27 -26zM480 331l25 27l27 -27 l-27 -25zM480 737l25 27l27 -27l-27 -25z" />
<glyph unicode="&#xf6;" d="M74 128q6 7 13 14.5t12 13.5l26 -28l-26 -25zM74 230l25 26l26 -26l-26 -26zM74 331l25 27l26 -27l-26 -25zM74 636l25 26l26 -26l-26 -26zM74 737l25 27l26 -27l-26 -25zM175 26q4 4 26 28l26 -28l-26 -25zM175 433l26 26l26 -26l-26 -26zM277 26q17 19 25 28l27 -28 l-27 -25zM277 433l25 26l27 -26l-27 -26zM378 26q4 4 26 28l26 -28l-26 -25zM378 433l26 26l26 -26l-26 -26zM480 128q10 10 25 28l27 -28l-27 -25zM480 230l25 26l27 -26l-27 -26zM480 331l25 27l27 -27l-27 -25zM480 636l25 26l27 -26l-27 -26zM480 737l25 27l27 -27 l-27 -25z" />
<glyph unicode="&#xf7;" d="M24 230l25 26l26 -26l-26 -26zM125 230l26 26l26 -26l-26 -26zM227 26q17 19 25 28l27 -28l-27 -25zM227 230l25 26l27 -26l-27 -26zM227 433l25 26l27 -26l-27 -26zM328 230l26 26l26 -26l-26 -26zM430 230l25 26l27 -26l-27 -26z" />
<glyph unicode="&#xf8;" d="M24 128q6 7 13 14.5t12 13.5l26 -28l-26 -25zM24 230l25 26l26 -26l-26 -26zM24 331l25 27l26 -27l-26 -25zM25 -75q24 26 25 27l26 -27l-26 -26zM125 26q4 4 26 28l26 -28l-26 -25zM125 128q4 4 26 28l26 -28l-26 -25zM125 433l26 26l26 -26l-26 -26zM227 26 q17 19 25 28l27 -28l-27 -25zM227 230l25 26l27 -26l-27 -26zM227 433l25 26l27 -26l-27 -26zM328 26q4 4 26 28l26 -28l-26 -25zM328 331l26 27l26 -27l-26 -25zM328 433l26 26l26 -26l-26 -26zM430 128q10 10 25 28l27 -28l-27 -25zM430 230l25 26l27 -26l-27 -26z M430 331l25 27l27 -27l-27 -25zM430 534l25 27l27 -27l-27 -25z" />
<glyph unicode="&#xf9;" d="M74 128q6 7 13 14.5t12 13.5l26 -28l-26 -25zM74 230l25 26l26 -26l-26 -26zM74 331l25 27l26 -27l-26 -25zM74 433l25 26l26 -26l-26 -26zM174 737l26 27l26 -27l-26 -25zM175 26q4 4 26 28l26 -28l-26 -25zM276 636l25 26l27 -26l-27 -26zM277 26q17 19 25 28l27 -28 l-27 -25zM377 636l26 26l26 -26l-26 -26zM378 128q4 4 26 28l26 -28l-26 -25zM480 26q10 10 25 28l27 -28l-27 -25zM480 128q10 10 25 28l27 -28l-27 -25zM480 230l25 26l27 -26l-27 -26zM480 331l25 27l27 -27l-27 -25zM480 433l25 26l27 -26l-27 -26z" />
<glyph unicode="&#xfa;" d="M74 128q6 7 13 14.5t12 13.5l26 -28l-26 -25zM74 230l25 26l26 -26l-26 -26zM74 331l25 27l26 -27l-26 -25zM74 433l25 26l26 -26l-26 -26zM175 26q4 4 26 28l26 -28l-26 -25zM175 636l26 26l26 -26l-26 -26zM277 26q17 19 25 28l27 -28l-27 -25zM277 636l25 26l27 -26 l-27 -26zM378 128q4 4 26 28l26 -28l-26 -25zM378 737l26 27l26 -27l-26 -25zM480 26q10 10 25 28l27 -28l-27 -25zM480 128q10 10 25 28l27 -28l-27 -25zM480 230l25 26l27 -26l-27 -26zM480 331l25 27l27 -27l-27 -25zM480 433l25 26l27 -26l-27 -26z" />
<glyph unicode="&#xfb;" d="M74 128q6 7 13 14.5t12 13.5l26 -28l-26 -25zM74 230l25 26l26 -26l-26 -26zM74 331l25 27l26 -27l-26 -25zM74 433l25 26l26 -26l-26 -26zM175 26q4 4 26 28l26 -28l-26 -25zM175 636l26 26l26 -26l-26 -26zM277 26q17 19 25 28l27 -28l-27 -25zM277 737l25 27l27 -27 l-27 -25zM378 128q4 4 26 28l26 -28l-26 -25zM378 636l26 26l26 -26l-26 -26zM480 26q10 10 25 28l27 -28l-27 -25zM480 128q10 10 25 28l27 -28l-27 -25zM480 230l25 26l27 -26l-27 -26zM480 331l25 27l27 -27l-27 -25zM480 433l25 26l27 -26l-27 -26z" />
<glyph unicode="&#xfc;" d="M74 128q6 7 13 14.5t12 13.5l26 -28l-26 -25zM74 230l25 26l26 -26l-26 -26zM74 331l25 27l26 -27l-26 -25zM74 433l25 26l26 -26l-26 -26zM74 636l25 26l26 -26l-26 -26zM74 737l25 27l26 -27l-26 -25zM175 26q4 4 26 28l26 -28l-26 -25zM277 26q17 19 25 28l27 -28 l-27 -25zM378 128q4 4 26 28l26 -28l-26 -25zM480 26q10 10 25 28l27 -28l-27 -25zM480 128q10 10 25 28l27 -28l-27 -25zM480 230l25 26l27 -26l-27 -26zM480 331l25 27l27 -27l-27 -25zM480 433l25 26l27 -26l-27 -26zM480 636l25 26l27 -26l-27 -26zM480 737l25 27 l27 -27l-27 -25z" />
<glyph unicode="&#xfd;" d="M74 -177q6 7 13 14.5t12 13.5l26 -28l-26 -25zM74 331l25 27l26 -27l-26 -25zM74 433l25 26l26 -26l-26 -26zM175 128q4 4 26 28l26 -28l-26 -25zM175 -177q4 4 26 28l26 -28l-26 -25zM175 230l26 26l26 -26l-26 -26zM175 636l26 26l26 -26l-26 -26zM277 26q17 19 25 28 l27 -28l-27 -25zM277 -75q5 5 12 13t13 14l27 -27l-27 -26zM277 636l25 26l27 -26l-27 -26zM378 128q4 4 26 28l26 -28l-26 -25zM378 230l26 26l26 -26l-26 -26zM378 737l26 27l26 -27l-26 -25zM480 331l25 27l27 -27l-27 -25zM480 433l25 26l27 -26l-27 -26z" />
<glyph unicode="&#xfe;" d="M24 26q6 7 13 14.5t12 13.5l26 -28l-26 -25zM24 -75q24 26 25 27l26 -27l-26 -26zM24 128q6 7 13 14.5t12 13.5l26 -28l-26 -25zM24 -177q6 7 13 14.5t12 13.5l26 -28l-26 -25zM24 230l25 26l26 -26l-26 -26zM24 331l25 27l26 -27l-26 -25zM24 433l25 26l26 -26l-26 -26z M24 534l25 27l26 -27l-26 -25zM24 636l25 26l26 -26l-26 -26zM125 26q4 4 26 28l26 -28l-26 -25zM125 433l26 26l26 -26l-26 -26zM227 26q17 19 25 28l27 -28l-27 -25zM227 433l25 26l27 -26l-27 -26zM328 26q4 4 26 28l26 -28l-26 -25zM328 433l26 26l26 -26l-26 -26z M430 128q10 10 25 28l27 -28l-27 -25zM430 230l25 26l27 -26l-27 -26zM430 331l25 27l27 -27l-27 -25z" />
<glyph unicode="&#xff;" d="M74 -177q6 7 13 14.5t12 13.5l26 -28l-26 -25zM74 331l25 27l26 -27l-26 -25zM74 433l25 26l26 -26l-26 -26zM74 636l25 26l26 -26l-26 -26zM74 737l25 27l26 -27l-26 -25zM175 128q4 4 26 28l26 -28l-26 -25zM175 -177q4 4 26 28l26 -28l-26 -25zM175 230l26 26l26 -26 l-26 -26zM277 26q17 19 25 28l27 -28l-27 -25zM277 -75q5 5 12 13t13 14l27 -27l-27 -26zM378 128q4 4 26 28l26 -28l-26 -25zM378 230l26 26l26 -26l-26 -26zM480 331l25 27l27 -27l-27 -25zM480 433l25 26l27 -26l-27 -26zM480 636l25 26l27 -26l-27 -26zM480 737l25 27 l27 -27l-27 -25z" />
<glyph unicode="&#x152;" d="M23 128l26 27l27 -27l-27 -26zM23 229l26 27l27 -27l-27 -26zM23 330l26 27l27 -27l-27 -26zM23 431l26 27l27 -27q-10 -11 -27 -25zM23 531l26 28l27 -28q-9 -9 -27 -24zM125 27q5 5 25 27l27 -27l-27 -26zM125 633l25 26l27 -26l-27 -26zM226 27q4 5 11.5 13t13.5 14 l27 -27l-27 -26zM226 128q5 5 25 27l27 -27l-27 -26zM226 229q15 15 25 27l27 -27l-27 -26zM226 330q15 15 25 27l27 -27l-27 -26zM226 431q15 15 25 27l27 -27q-5 -5 -27 -25zM226 531q17 19 25 28l27 -28q-7 -7 -14.5 -13.5t-12.5 -10.5zM226 633l25 26l27 -26l-27 -26z M327 27l26 27l26 -27l-26 -26zM327 330l26 27l26 -27l-26 -26zM327 633l26 26l26 -26l-26 -26zM428 27l26 27l26 -27l-26 -26zM428 633l26 26l26 -26l-26 -26z" />
<glyph unicode="&#x153;" d="M24 128q6 7 13 14.5t12 13.5l26 -28l-26 -25zM24 230l25 26l26 -26l-26 -26zM24 331l25 27l26 -27l-26 -25zM125 26q4 4 26 28l26 -28l-26 -25zM125 433l26 26l26 -26l-26 -26zM227 128q17 19 25 28l27 -28l-27 -25zM227 230l25 26l27 -26l-27 -26zM227 331l25 27l27 -27 l-27 -25zM328 26q4 4 26 28l26 -28l-26 -25zM328 230l26 26l26 -26l-26 -26zM328 433l26 26l26 -26l-26 -26zM430 26q10 10 25 28l27 -28l-27 -25zM430 230l25 26l27 -26l-27 -26zM430 331l25 27l27 -27l-27 -25z" />
<glyph unicode="&#x178;" d="M73 431l26 27l27 -27q-10 -11 -27 -25zM73 531l26 28l27 -28q-9 -9 -27 -24zM73 633l26 26l27 -26l-27 -26zM74 861l25 26l26 -26l-26 -26zM74 962l25 27l26 -27l-26 -25zM175 330q11 10 25 27l27 -27l-27 -26zM276 27q5 5 12 13t13 14l27 -27l-27 -26zM276 128 q5 5 25 27l27 -27l-27 -26zM276 229q15 15 25 27l27 -27l-27 -26zM377 330l26 27l26 -27l-26 -26zM478 431l26 27l26 -27l-26 -25zM478 531l26 28l26 -28l-26 -24zM478 633l26 26l26 -26l-26 -26zM480 861l25 26l27 -26l-27 -26zM480 962l25 27l27 -27l-27 -25z" />
<glyph unicode="&#x2c6;" d="M125 636l26 26l26 -26l-26 -26zM227 737l25 27l27 -27l-27 -25zM328 636l26 26l26 -26l-26 -26z" />
<glyph unicode="&#x2dc;" d="M24 636l25 26l26 -26l-26 -26zM125 737l26 27l26 -27l-26 -25zM227 636l25 26l27 -26l-27 -26zM328 636l26 26l26 -26l-26 -26zM430 737l25 27l27 -27l-27 -25z" />
<glyph unicode="&#x2000;" horiz-adv-x="545" />
<glyph unicode="&#x2001;" horiz-adv-x="1090" />
<glyph unicode="&#x2002;" horiz-adv-x="545" />
<glyph unicode="&#x2003;" horiz-adv-x="1090" />
<glyph unicode="&#x2004;" horiz-adv-x="363" />
<glyph unicode="&#x2005;" horiz-adv-x="272" />
<glyph unicode="&#x2006;" horiz-adv-x="181" />
<glyph unicode="&#x2007;" horiz-adv-x="181" />
<glyph unicode="&#x2008;" horiz-adv-x="136" />
<glyph unicode="&#x2009;" horiz-adv-x="218" />
<glyph unicode="&#x200a;" horiz-adv-x="60" />
<glyph unicode="&#x2010;" d="M125 230l26 26l26 -26l-26 -26zM227 230l25 26l27 -26l-27 -26zM328 230l26 26l26 -26l-26 -26z" />
<glyph unicode="&#x2011;" d="M125 230l26 26l26 -26l-26 -26zM227 230l25 26l27 -26l-27 -26zM328 230l26 26l26 -26l-26 -26z" />
<glyph unicode="&#x2012;" d="M125 230l26 26l26 -26l-26 -26zM227 230l25 26l27 -26l-27 -26zM328 230l26 26l26 -26l-26 -26z" />
<glyph unicode="&#x2013;" d="M125 230l26 26l26 -26l-26 -26zM227 230l25 26l27 -26l-27 -26zM328 230l26 26l26 -26l-26 -26z" />
<glyph unicode="&#x2014;" d="M24 230l25 26l26 -26l-26 -26zM125 230l26 26l26 -26l-26 -26zM227 230l25 26l27 -26l-27 -26zM328 230l26 26l26 -26l-26 -26zM430 230l25 26l27 -26l-27 -26z" />
<glyph unicode="&#x2018;" d="M226 433l26 26l26 -26l-26 -26zM226 534l26 27l26 -27l-26 -25zM328 636l25 26l27 -26l-27 -26z" />
<glyph unicode="&#x2019;" d="M226 433l26 26l26 -26l-26 -26zM328 534l25 27l27 -27l-27 -25zM328 636l25 26l27 -26l-27 -26z" />
<glyph unicode="&#x201a;" d="M226 -75q7 7 14 14.5t12 12.5l26 -27l-26 -26zM328 26q10 10 25 28l27 -28l-27 -25zM328 128q10 10 25 28l27 -28l-27 -25z" />
<glyph unicode="&#x201c;" d="M125 433l25 26l27 -26l-27 -26zM125 534l25 27l27 -27l-27 -25zM226 636l26 26l26 -26l-26 -26zM328 433l25 26l27 -26l-27 -26zM328 534l25 27l27 -27l-27 -25zM429 636l26 26l26 -26l-26 -26z" />
<glyph unicode="&#x201d;" d="M125 433l25 26l27 -26l-27 -26zM226 534l26 27l26 -27l-26 -25zM226 636l26 26l26 -26l-26 -26zM328 433l25 26l27 -26l-27 -26zM429 534l26 27l26 -27l-26 -25zM429 636l26 26l26 -26l-26 -26z" />
<glyph unicode="&#x201e;" d="M125 -75q4 5 11.5 13t13.5 14l27 -27l-27 -26zM226 26q4 4 26 28l26 -28l-26 -25zM226 128q4 4 26 28l26 -28l-26 -25zM328 -75q5 5 25 27l27 -27l-27 -26zM429 26q4 4 26 28l26 -28l-26 -25zM429 128q4 4 26 28l26 -28l-26 -25z" />
<glyph unicode="&#x2022;" d="M24 230l26 26l26 -26l-26 -26zM24 331l26 27l26 -27l-26 -25zM24 433l26 26l26 -26l-26 -26zM126 230l25 26l27 -26l-27 -26zM126 331l25 27l27 -27l-27 -25zM126 433l25 26l27 -26l-27 -26zM227 230l26 26l26 -26l-26 -26zM227 331l26 27l26 -27l-26 -25zM227 433l26 26 l26 -26l-26 -26z" />
<glyph unicode="&#x2026;" d="M24 26q6 7 13 14.5t12 13.5l26 -28l-26 -25zM24 128q6 7 13 14.5t12 13.5l26 -28l-26 -25zM227 26q17 19 25 28l27 -28l-27 -25zM227 128q17 19 25 28l27 -28l-27 -25zM430 26q10 10 25 28l27 -28l-27 -25zM430 128q10 10 25 28l27 -28l-27 -25z" />
<glyph unicode="&#x202f;" horiz-adv-x="218" />
<glyph unicode="&#x2039;" d="M125 230l26 26l26 -26l-26 -26zM227 128q17 19 25 28l27 -28l-27 -25zM227 331l25 27l27 -27l-27 -25zM328 26q4 4 26 28l26 -28l-26 -25zM328 433l26 26l26 -26l-26 -26z" />
<glyph unicode="&#x203a;" d="M226 26q10 10 25 28l27 -28l-27 -25zM226 433l25 26l27 -26l-27 -26zM328 128q6 7 13 14.5t12 13.5l26 -28l-26 -25zM328 331l25 27l26 -27l-26 -25zM429 230l25 26l27 -26l-27 -26z" />
<glyph unicode="&#x205f;" horiz-adv-x="272" />
<glyph unicode="&#x20ac;" d="M24 230l25 26l26 -26l-26 -26zM24 433l25 26l26 -26l-26 -26zM125 128q4 4 26 28l26 -28l-26 -25zM125 230l26 26l26 -26l-26 -26zM125 331l26 27l26 -27l-26 -25zM125 433l26 26l26 -26l-26 -26zM125 534l26 27l26 -27l-26 -25zM227 26q17 19 25 28l27 -28l-27 -25z M227 230l25 26l27 -26l-27 -26zM227 433l25 26l27 -26l-27 -26zM227 636l25 26l27 -26l-27 -26zM328 26q4 4 26 28l26 -28l-26 -25zM328 433l26 26l26 -26l-26 -26zM328 636l26 26l26 -26l-26 -26zM430 26q10 10 25 28l27 -28l-27 -25zM430 636l25 26l27 -26l-27 -26z" />
<glyph unicode="&#x2122;" d="M23 636l26 26l26 -26l-26 -26zM125 433l25 26l27 -26l-27 -26zM125 534l25 27l27 -27l-27 -25zM125 636l25 26l27 -26l-27 -26zM226 636l26 26l26 -26l-26 -26zM328 433l25 26l27 -26l-27 -26zM328 534l25 27l27 -27l-27 -25zM328 636l25 26l27 -26l-27 -26zM429 534 l26 27l26 -27l-26 -25zM531 433l25 26l27 -26l-27 -26zM531 534l25 27l27 -27l-27 -25zM531 636l25 26l27 -26l-27 -26z" />
<glyph unicode="&#xe000;" horiz-adv-x="460" d="M0 0v460h460v-460h-460z" />
</font>
</defs>
</svg>
