<?xml version="1.0" standalone="no"?>
<!DOCTYPE svg PUBLIC "-//W3C//DTD SVG 1.1//EN" "http://www.w3.org/Graphics/SVG/1.1/DTD/svg11.dtd" >
<svg xmlns="http://www.w3.org/2000/svg">
<metadata></metadata>
<defs>
<font id="panefresco_800wtregular" horiz-adv-x="530" >
<font-face units-per-em="1000" ascent="750" descent="-250" />
<missing-glyph horiz-adv-x="235" />
<glyph horiz-adv-x="1000" />
<glyph horiz-adv-x="1000" />
<glyph unicode="&#xd;" horiz-adv-x="235" />
<glyph unicode=" "  horiz-adv-x="235" />
<glyph unicode="&#x09;" horiz-adv-x="235" />
<glyph unicode="&#xa0;" horiz-adv-x="235" />
<glyph unicode="!" d="M209 149h123l1 -149h-123zM208 700h125l-4 -449h-117z" />
<glyph unicode="&#x22;" horiz-adv-x="340" d="M200 452l-2 240h110l-4 -240h-104zM37 452l-2 240h111l-4 -240h-105z" />
<glyph unicode="#" d="M424 170l1 -170h-100l-1 170h-121l1 -170h-100l-1 170h-101v96h101v130h-101v96h101v170h100v-170h121v170h100v-170h101v-96h-101v-130h101v-96h-101zM324 396h-121v-130h121v130z" />
<glyph unicode="$" d="M471 553q-28 3 -58 6q-26 2 -56.5 4t-58.5 3v-178q34 -15 69.5 -32.5t63.5 -41t46 -55.5t18 -77q0 -39 -9 -73t-31.5 -59.5t-60 -41t-95.5 -18.5l1 -110l-51 7l-1 102q-51 2 -103.5 8.5t-87.5 14.5l7 97q17 -2 39.5 -4.5t47 -4.5t50 -3.5t47.5 -2.5v202q-1 1 -4 2.5 t-4 1.5q-34 15 -68.5 32t-62 39t-44.5 51.5t-17 70.5q0 36 10.5 67t34 54.5t61.5 38.5t94 19v118h50v-118q43 -2 88 -9l90 -14zM380 181q0 30 -23 52t-58 39v-176q34 5 57.5 25.5t23.5 59.5zM162 493q0 -28 24.5 -47t61.5 -36v156q-41 -4 -63.5 -22.5t-22.5 -50.5z" />
<glyph unicode="%" d="M405 289q63 0 92.5 -38t29.5 -105t-29.5 -105.5t-92.5 -38.5t-92 38.5t-29 105.5t29 105t92 38zM423 696l59 -39l-367 -648l-60 39zM370 146q0 -38 6.5 -56t28.5 -18q23 0 29.5 18t6.5 56t-6.5 55t-29.5 17q-22 0 -28.5 -17t-6.5 -55zM127 701q63 0 92 -38t29 -105 q0 -66 -29 -105t-92 -39t-92 39t-29 106q0 66 29 104t92 38zM91 559q0 -38 6.5 -56.5t29.5 -18.5q22 0 29 18t7 56t-7 55.5t-29 17.5t-29 -17t-7 -55z" />
<glyph unicode="&#x26;" horiz-adv-x="700" d="M322 710q96 0 145 -43.5t49 -125.5q0 -35 -8 -62t-25 -50t-43 -44.5t-63 -45.5l100 -101q3 9 6.5 25t7.5 33.5t7 34.5t4 29l111 -2q-3 -24 -8.5 -50.5t-12 -52t-13.5 -49t-13 -40.5l117 -110l-69 -77l-108 97q-26 -24 -50.5 -42t-52 -30t-59 -18t-71.5 -6 q-112 0 -174.5 57t-62.5 163q0 39 10.5 69.5t30 55.5t45.5 44.5t58 34.5q-15 20 -25 36t-16 32.5t-8 35t-2 42.5q0 75 51.5 117.5t141.5 42.5zM277 87q22 0 41 3t36 10.5t33 18.5t33 28l-170 178q-44 -20 -70 -51t-26 -73q0 -54 33 -84t90 -30zM244 534q0 -32 10 -55t34 -49 l19 -19q24 14 41.5 26.5t29 26t17 29.5t5.5 36q0 39 -19.5 56.5t-58.5 17.5q-37 0 -57.5 -16.5t-20.5 -52.5z" />
<glyph unicode="'" horiz-adv-x="100" d="M-10 692h110l-5 -242h-103z" />
<glyph unicode="(" horiz-adv-x="260" d="M235 750q-27 -76 -48 -154q-18 -67 -32.5 -145.5t-14.5 -149.5q0 -70 14.5 -145t32.5 -138q21 -73 48 -143h-124q-28 66 -49 138q-18 61 -33 137t-15 151q0 37 4 76.5t11 78t15.5 75t17.5 69.5q21 77 49 150h124z" />
<glyph unicode=")" horiz-adv-x="260" d="M138 750q27 -70 48 -145q18 -64 33.5 -141.5t15.5 -152.5t-15.5 -152.5t-33.5 -140.5q-21 -74 -48 -143h-123q26 72 47 148q17 65 32 141.5t15 146.5q0 71 -15 148t-33 142q-21 76 -47 149h124z" />
<glyph unicode="*" d="M323 503l39 -122l-65 -19l-41 122l-104 -79l-42 53l106 78l-103 75l41 56l101 -72l41 120l66 -22l-38 -124h125v-66h-126z" />
<glyph unicode="+" horiz-adv-x="506" d="M2 335h198v197h104v-197h200v-104h-200v-199h-104v199h-198v104z" />
<glyph unicode="," horiz-adv-x="170" d="M54 127h123l-59 -250h-113z" />
<glyph unicode="-" horiz-adv-x="440" d="M67 337h304v-112h-304v112z" />
<glyph unicode="." horiz-adv-x="248" d="M55 149h123l1 -149h-123z" />
<glyph unicode="/" d="M341 716l115 -38l-281 -697l-115 37z" />
<glyph unicode="0" d="M263 672q60 0 107 -18t79.5 -59.5t49 -108t16.5 -162.5q0 -94 -17 -158t-49 -103.5t-79 -56.5t-107 -17t-106.5 17t-79 56t-49.5 103t-17 159q0 96 17 162.5t49 108t79 59.5t107 18zM264 559q-34 0 -58 -11.5t-39.5 -38.5t-22.5 -72t-7 -113q0 -66 7.5 -109.5t23 -68.5 t39.5 -35t57 -10t56.5 10t39 35t22.5 68.5t7 109.5q0 68 -7 113t-22 72t-38.5 38.5t-57.5 11.5z" />
<glyph unicode="1" d="M253 660h110l1 -660h-118l-1 523l-151 -99l-55 94z" />
<glyph unicode="2" d="M53 0l-1 108l155 156q32 32 57.5 59t43 51t27 47.5t9.5 49.5q0 46 -28.5 65t-91.5 19q-26 0 -54.5 -3t-51.5 -6l-54 -8l-8 108q30 7 63 13q28 5 63 9t70 4q111 0 162 -46t51 -139q0 -38 -7.5 -69t-24 -60t-42.5 -59.5t-63 -67.5l-119 -118h269l1 -113h-426z" />
<glyph unicode="3" d="M55 646q33 7 66 13q29 5 63 9t66 4q63 0 106 -11t69.5 -33t38 -56t11.5 -79q0 -31 -8 -53.5t-20 -39.5t-27 -29t-30 -22q22 -11 40 -22.5t31 -29t20 -41.5t7 -60q0 -103 -52 -155t-170 -52q-38 0 -77 3t-71 8q-38 5 -72 12l12 106q32 -4 65 -8q29 -3 62.5 -5t64.5 -2 q117 0 117 90q0 47 -31 66t-78 20h-134v107h133q18 0 35 7.5t30.5 20t22 29t8.5 33.5q0 45 -29 63.5t-82 18.5q-31 0 -62 -2.5t-57 -5.5q-30 -4 -57 -7l-11 103v0z" />
<glyph unicode="4" d="M319 105h-296v96l172 459h130l-168 -442h162v203h118v-203h68v-113h-68v-113h-118v113z" />
<glyph unicode="5" d="M470 661v-113h-291l-16 -153q19 7 39 12q17 5 36.5 8.5t36.5 3.5q105 0 161 -47.5t56 -155.5q0 -110 -58.5 -168.5t-165.5 -58.5q-39 0 -79.5 4.5t-73.5 10.5q-39 7 -76 16l13 105q37 -7 74 -12q32 -5 68.5 -8.5t68.5 -3.5q48 0 78 29t30 80q0 53 -29.5 76t-78.5 23 q-25 0 -46.5 -3.5t-38.5 -8.5q-19 -5 -35 -11l-91 19l21 356h397z" />
<glyph unicode="6" d="M476 544q-29 3 -60 7q-26 2 -58 4.5t-64 2.5q-75 0 -111.5 -43t-36.5 -125l14 4.5t34.5 10t45 10.5t45.5 5q112 0 168.5 -51t56.5 -160q0 -110 -63 -165t-175 -55q-129 0 -188 88t-59 252q0 96 19 161.5t54 106t84.5 58t111.5 17.5q32 0 65 -3t62 -7q33 -4 65 -10z M275 312q-23 -2 -46 -5t-42 -8q-22 -5 -42 -11q0 -39 7 -73.5t22 -60t39 -40.5t59 -15q57 0 87 26.5t30 83.5q0 54 -30 78.5t-84 24.5z" />
<glyph unicode="7" d="M50 661h418v-139l-244 -538l-109 31l232 509v24h-297v113z" />
<glyph unicode="8" d="M267 672q53 0 97.5 -11.5t76.5 -34t50 -56t18 -76.5q0 -30 -4.5 -52t-14 -39t-26 -31t-40.5 -30q22 -15 39.5 -30t30 -34t19 -42.5t6.5 -56.5q0 -53 -20 -89t-54.5 -58.5t-80 -32.5t-97.5 -10q-51 0 -96.5 8.5t-79.5 29t-53.5 55t-19.5 86.5q0 36 6.5 61.5t18.5 45.5 t29.5 35.5t39.5 31.5q-23 16 -39 31.5t-25.5 33t-14 39t-4.5 49.5q0 43 17 76t48 55.5t75 34t98 11.5zM267 101q59 0 92.5 23t33.5 72q0 35 -21.5 55.5t-57.5 32.5h-93q-38 -13 -57.5 -34t-19.5 -56q0 -48 32.5 -70.5t90.5 -22.5zM269 559q-54 0 -84 -18.5t-30 -63.5 q0 -32 17 -52t49 -37h93q33 17 51 37t18 52q0 45 -29.5 63.5t-84.5 18.5z" />
<glyph unicode="9" d="M54 114q28 -4 59 -7q26 -3 58.5 -5t64.5 -2q76 0 112.5 45t36.5 123l-14 -4t-35.5 -9t-46 -9.5t-45.5 -4.5q-107 0 -165.5 51.5t-58.5 158.5q0 54 17 95t48.5 69t75 42.5t97.5 14.5q129 0 188.5 -86t59.5 -254q0 -98 -18.5 -163.5t-53.5 -105.5t-85 -57t-113 -17 q-32 0 -65.5 2.5t-62.5 6.5q-33 4 -65 10zM254 348q22 0 45 3.5t43 8.5q23 5 44 13q0 40 -7.5 74.5t-23.5 59.5t-40 39.5t-57 14.5q-54 0 -85 -28t-31 -82t29 -78.5t83 -24.5z" />
<glyph unicode=":" horiz-adv-x="212" d="M42 449h124v-149h-124v149zM42 149h124l1 -149h-124z" />
<glyph unicode=";" horiz-adv-x="227" d="M67 143h124l-75 -258h-105zM59 449h123v-149h-123v149z" />
<glyph unicode="&#x3c;" d="M174 310l235 -134v-120q-35 18 -79.5 43t-91.5 51.5t-93 52t-83 45.5v120l347 191v-120z" />
<glyph unicode="=" d="M24 439h469v-104h-469v104zM24 232h469v-104h-469v104z" />
<glyph unicode="&#x3e;" d="M62 439v120l347 -191v-120q-38 -20 -83.5 -45.5t-92.5 -52t-91.5 -51.5t-79.5 -43v120l235 134z" />
<glyph unicode="?" horiz-adv-x="386" d="M395 523q0 -45 -13.5 -77.5t-33.5 -57t-43.5 -42.5t-43.5 -34.5t-33.5 -32.5t-13.5 -35v-38h-123v41q0 33 13.5 57.5t33 44t43 36t43 34.5t33 39.5t13.5 50.5q0 22 -4 37.5t-15 26t-30.5 15.5t-50.5 5q-19 0 -45 -3t-49 -7q-28 -4 -57 -10l-14 112q33 8 65 14 q27 5 56 9.5t49 4.5q57 0 98.5 -10t68.5 -32.5t40 -58.5t13 -89zM91 149h123l1 -149h-123z" />
<glyph unicode="@" horiz-adv-x="985" d="M940 288q0 -87 -12.5 -144.5t-36.5 -91.5t-58.5 -48t-79.5 -14t-75 10.5t-50 36.5q-14 -7 -33 -15t-40 -15t-43 -11.5t-43 -4.5q-41 0 -75 12t-58 40.5t-37.5 77t-13.5 121.5q0 61 8.5 110.5t30.5 84.5t59.5 53.5t96.5 18.5q13 0 30 -3.5t33 -8.5q18 -5 38 -11v14h114 v-200q0 -69 2.5 -109t9.5 -60t18 -25.5t28 -5.5q18 0 31.5 6.5t22.5 26.5t13.5 57t4.5 98v18q0 84 -18.5 143t-57.5 96t-100 54t-146 17q-173 0 -259 -87.5t-86 -267.5q0 -98 19 -165.5t60 -110.5t107 -62t159 -19q15 0 39 1t47 3q27 2 57 5l5 -110q-29 -3 -56 -5 q-23 -2 -48.5 -3.5t-43.5 -1.5q-111 0 -197 22.5t-144.5 76.5t-88.5 144t-30 225q0 121 32.5 209t92.5 145t145 84.5t190 27.5q223 0 330 -107.5t107 -314.5v-17zM477 103q29 0 59 8t53 16q-5 25 -6.5 56t-1.5 69v136l-28 6q-12 2 -25.5 4.5t-23.5 2.5q-32 0 -52.5 -8 t-31.5 -26.5t-15 -49t-4 -75.5q0 -42 5.5 -68.5t15.5 -42.5t24 -22t31 -6z" />
<glyph unicode="A" horiz-adv-x="605" d="M165 584q12 46 48.5 77t104.5 31h96l163 -692h-116l-39 136h-238l-32 -136h-124zM323 588q-20 1 -31.5 -12.5t-15.5 -33.5l-67 -295h190z" />
<glyph unicode="B" horiz-adv-x="609" d="M336 692q47 0 86 -10t66.5 -31t42.5 -54t15 -79q0 -69 -19 -104.5t-61 -58.5q23 -9 41 -22t30 -32t18 -45t6 -61q0 -52 -15 -89t-43 -60.5t-68.5 -34.5t-90.5 -11h-267l-1 692h260zM192 295v-187h145q50 0 76.5 21t26.5 75q0 27 -8.5 44.5t-23 28t-33.5 14.5t-40 4h-143z M192 584v-183h141q49 0 70.5 24.5t21.5 72.5q0 46 -23.5 66t-71.5 20h-138z" />
<glyph unicode="C" horiz-adv-x="535" d="M496 14q-34 -8 -68 -13q-29 -5 -64 -8.5t-64 -3.5q-78 0 -128 22.5t-78.5 67t-39.5 111t-11 155.5q0 94 12.5 162t42.5 111.5t79 64t123 20.5q32 0 67 -4.5t64 -9.5q33 -6 66 -13l-4 -103q-33 3 -66 7q-28 3 -58 5.5t-53 2.5q-45 0 -74.5 -12t-47 -40t-24 -75t-6.5 -116 q0 -66 6 -112t22.5 -74.5t47 -41.5t80.5 -13q20 0 49.5 2.5t57.5 5.5q32 4 66 8z" />
<glyph unicode="D" horiz-adv-x="631" d="M77 0l-1 692h233q84 0 138 -21.5t85 -63.5t43 -104.5t12 -144.5q0 -83 -11 -149.5t-41 -113t-84 -71t-141 -24.5h-233zM466 358q0 53 -5.5 94.5t-22 70t-47.5 43t-82 14.5h-117v-468h117q51 0 82 18.5t47.5 51t22 77.5t5.5 99z" />
<glyph unicode="E" horiz-adv-x="557" d="M504 0h-217q-47 0 -87.5 13t-70 38.5t-46 63t-15.5 87.5q1 36 7 61t18 42.5t30.5 29t42.5 20.5q-18 13 -32.5 27.5t-24.5 33.5t-15.5 44t-3.5 59q1 46 18 78.5t46 53.5t68 31t83 10h198v-109h-195q-41 0 -68.5 -20t-28.5 -65q-1 -46 23.5 -73.5t66.5 -27.5h141v-106h-145 q-18 0 -37 -4t-34.5 -14.5t-26 -28t-10.5 -43.5q-1 -25 6.5 -42.5t21 -28t32 -15.5t40.5 -5h214z" />
<glyph unicode="F" horiz-adv-x="543" d="M76 692h432v-112h-316v-223h256v-111h-256l1 -246h-116z" />
<glyph unicode="G" horiz-adv-x="599" d="M342 370h200q0 -60 2.5 -123.5t-4.5 -117.5t-28.5 -90.5t-68.5 -41.5q-32 -4 -65.5 -6t-59.5 -2q-113 0 -173 51.5t-82 148.5q-8 35 -11.5 76t-3.5 88q0 90 14 156t45.5 109t82.5 64t124 21q36 0 76.5 -4t74.5 -9q40 -5 78 -12q-1 -26 -1.5 -52t-2.5 -52l-72 8 q-31 3 -67.5 5.5t-67.5 2.5q-46 0 -77 -12.5t-49.5 -41.5t-26.5 -75.5t-8 -113.5q0 -83 12 -137q14 -58 47 -84t98 -26q12 0 25 1t24 2q10 1 19 3t15 10t10 24t4 45v82h-83v103z" />
<glyph unicode="H" horiz-adv-x="674" d="M479 295h-286l1 -295h-117l-1 692h117v-284h286v284h118l1 -692h-118z" />
<glyph unicode="I" horiz-adv-x="268" d="M74 692h118l1 -692h-118z" />
<glyph unicode="J" horiz-adv-x="312" d="M235 692v-150t0.5 -138.5t0.5 -139.5v-151q0 -57 -12 -93t-37 -56.5t-64 -27.5t-93 -7v110q23 0 39.5 3t27.5 12t16 25t5 42v571h117v0z" />
<glyph unicode="K" horiz-adv-x="594" d="M528 692q1 -53 -1 -105.5t-13.5 -100t-37.5 -87.5t-73 -68l162 -331h-132l-137 290l-52 -9l-46 -4l1 -277h-118l-2 692h118l1 -303l34 3q62 12 98.5 39.5t54.5 67t22.5 88.5t1.5 105h119z" />
<glyph unicode="L" horiz-adv-x="496" d="M77 0l-1 692h117v-579h268l1 -113h-385z" />
<glyph unicode="M" horiz-adv-x="849" d="M79 560q1 28 6.5 52.5t18 42t33 27.5t52.5 9h84l149 -531l114 404q15 59 44.5 92.5t79.5 34.5h106l1 -691h-115l-1 554q-7 -1 -12.5 -10t-10.5 -24l-112 -390q-15 -51 -33 -75t-38 -26h-79l-153 527q-8 0 -9.5 -10t-3.5 -26l2 -520h-121z" />
<glyph unicode="N" horiz-adv-x="698" d="M79 692h94q22 0 42.5 -4t38.5 -15.5t33.5 -32.5t26.5 -54l158 -434q11 -29 24 -29l1 569h119l1 -692h-92q-99 3 -137 100l-164 438q-6 17 -11.5 24.5t-13.5 7.5l2 -570h-120z" />
<glyph unicode="O" horiz-adv-x="646" d="M322 102q48 0 78.5 14.5t48.5 44t24.5 74.5t6.5 106q0 60 -7 106.5t-24.5 78t-48 48t-78.5 16.5t-78.5 -16.5t-48 -48t-24.5 -78t-7 -106.5t6.5 -105t24.5 -75t48.5 -44.5t78.5 -14.5zM322 -11q-80 0 -134 22.5t-86 66.5t-45.5 110t-13.5 153t13.5 154.5t45.5 113.5 t86 70t134 24t133.5 -24t86 -70t46 -113.5t13.5 -154.5q0 -88 -13.5 -154t-46 -110t-86 -66t-133.5 -22z" />
<glyph unicode="P" horiz-adv-x="597" d="M193 209l1 -209h-117l-1 692h251q235 0 235 -235q0 -118 -58.5 -183t-176.5 -65h-134zM326 322q60 0 88 36t28 99q0 122 -116 122h-133v-257h133z" />
<glyph unicode="Q" horiz-adv-x="646" d="M592 -229q-41 7 -72 29t-56 52t-45.5 66.5t-39.5 74.5q-13 -2 -28 -3t-30 -1q-77 0 -129.5 24t-84.5 70t-46 113t-14 154q0 86 14 152t46 110.5t84.5 67.5t129.5 23q78 0 130.5 -25t85 -72.5t46 -116t13.5 -154.5q1 -114 -25.5 -191t-86.5 -118q13 -25 26 -50.5t29 -47 t35.5 -36.5t44.5 -18zM322 98q44 0 73.5 14.5t46.5 44t24 75.5t7 109q0 62 -7 109.5t-24.5 79t-46.5 47.5t-73 16t-73.5 -16t-46.5 -47.5t-24 -78.5t-7 -110q0 -62 7 -108t24.5 -76t46.5 -44.5t73 -14.5z" />
<glyph unicode="R" horiz-adv-x="617" d="M347 236h-154l1 -236h-117l-1 692h261q119 0 176.5 -52t57.5 -171q0 -78 -27.5 -125.5t-81.5 -73.5l110 -270h-129zM450 467q0 113 -113 113h-144v-232h146q61 0 86 32.5t25 86.5z" />
<glyph unicode="S" horiz-adv-x="531" d="M472 574q-38 4 -75 8q-32 3 -67 5.5t-64 2.5q-51 0 -79.5 -17.5t-28.5 -53.5q0 -18 11 -33t29 -27.5t41.5 -24t49.5 -23.5q37 -16 74 -34t67 -42.5t49 -58.5t19 -82q0 -42 -13 -79.5t-41 -65.5t-70.5 -44t-102.5 -16q-28 0 -58.5 2t-60 6t-56 8t-46.5 9l10 104 q19 -3 46 -5.5t55.5 -5t57 -4t51.5 -1.5q21 0 41 4.5t35 15t24 27.5t9 41q0 22 -12 40t-32 32.5t-45.5 27t-53.5 24.5q-35 16 -70 33.5t-63 41t-45.5 54.5t-17.5 74q0 40 12.5 74t40 59t72.5 39.5t111 14.5q48 0 101.5 -8.5t104.5 -16.5z" />
<glyph unicode="T" horiz-adv-x="484" d="M-8 692h499v-113h-190l1 -579h-118l-1 579h-191v113z" />
<glyph unicode="U" horiz-adv-x="639" d="M183 223q0 -34 9.5 -56.5t27.5 -36t42.5 -19t54.5 -5.5q31 0 56 6t43 19.5t28 36t10 55.5v469h118v-469q0 -62 -16.5 -106t-49 -72t-80 -41t-109.5 -13t-109 13t-78.5 41t-48 72t-16.5 106v469h118v-469v0z" />
<glyph unicode="V" horiz-adv-x="606" d="M578 691l-139 -583q-15 -56 -54 -81.5t-100 -26.5h-93l-165 691h120l132 -584q18 2 30.5 14.5t19.5 39.5l119 530h130z" />
<glyph unicode="W" horiz-adv-x="927" d="M154 691l107 -584q22 -1 25 36l87 443q8 46 28 71.5t57 23.5h70l113 -574q13 -2 18 9t7 28l100 547h128l-121 -601q-18 -92 -125 -90h-86l-99 523l-81 -432q-8 -49 -38 -70t-79 -21h-91l-143 691h123z" />
<glyph unicode="X" horiz-adv-x="581" d="M284 434l139 258h136l-191 -349l192 -343h-125l-140 254l-139 -254h-136l193 343l-194 349h125z" />
<glyph unicode="Y" horiz-adv-x="565" d="M343 0h-118l-1 296l-212 396h124l139 -265l138 265h138l-209 -397z" />
<glyph unicode="Z" horiz-adv-x="570" d="M64 691h437q16 -42 1 -90.5t-46 -101.5l-224 -346q-9 -14 -12.5 -24t-3.5 -17h288l1 -112h-437q-12 45 -1 92t45 100l225 347q20 23 16 41h-289v111z" />
<glyph unicode="[" horiz-adv-x="300" d="M270 637h-121v-648h121v-112h-238l-1 872h239v-112z" />
<glyph unicode="\" horiz-adv-x="544" d="M360 -29l-315 698l115 53l314 -701z" />
<glyph unicode="]" horiz-adv-x="300" d="M31 749h239l-1 -872h-238v112h122v648h-122v112z" />
<glyph unicode="^" d="M264 547l-120 -230h-120l179 343h120l181 -343h-121z" />
<glyph unicode="_" horiz-adv-x="520" d="M454 5v-104h-428v104h428z" />
<glyph unicode="`" horiz-adv-x="257" d="M267 674l-33 -90l-246 81l35 101z" />
<glyph unicode="a" horiz-adv-x="526" d="M434 129q4 -18 19 -29t38 -15q-2 -24 -3 -48t-3 -47q-52 2 -84 13t-49 34q-21 -18 -55 -32.5t-74 -14.5q-71 0 -112 37t-56 101q-16 70 -13 138t27 122t70 87.5t116 33.5q28 0 50.5 -3.5t40.5 -8.5l88 13v-381zM214 91q17 0 34.5 6t33 15.5t27 20.5t17.5 20v124 q1 32 0 62.5t-1 63.5h-8q-11 2 -23.5 4t-24.5 2q-37 0 -63 -23.5t-41 -61t-17.5 -84.5t8.5 -95q5 -24 20 -39t38 -15z" />
<glyph unicode="b" horiz-adv-x="544" d="M190 463q26 18 56.5 31t62.5 13q40 0 69.5 -14.5t50 -39.5t32 -57.5t16.5 -69.5q9 -60 3 -120.5t-30 -108.5t-67.5 -78.5t-110.5 -30.5q-23 0 -56.5 2.5t-65.5 4.5q-37 3 -76 6v704h116v-242zM313 406q-14 0 -31.5 -5.5t-34.5 -14.5t-32.5 -19.5t-25.5 -19.5l1 -253 q20 -3 39 -5t29 -2q38 0 63 22t39 57.5t17 79t-4 87.5q-3 28 -17.5 50.5t-42.5 22.5z" />
<glyph unicode="c" horiz-adv-x="436" d="M390 65q-13 -15 -32.5 -28.5t-42 -24t-46.5 -16.5t-46 -6q-42 0 -72 14.5t-50.5 39t-32.5 57.5t-17 70q-9 60 -3 120.5t29.5 108.5t67 78.5t111.5 30.5q29 0 66.5 -6t69.5 -17l-3 -98q-5 3 -20.5 6.5t-34 6t-36.5 4.5t-27 2q-38 0 -63 -21.5t-39 -56t-17 -78t3 -86.5 q4 -27 18.5 -49.5t42.5 -22.5q16 0 35.5 6.5t37 16.5t31.5 21.5t20 20.5z" />
<glyph unicode="d" horiz-adv-x="548" d="M470 0h-117l-1 48q-10 -11 -26.5 -21.5t-34.5 -18.5t-36.5 -13t-32.5 -5q-39 0 -68.5 14.5t-50 39t-33 57.5t-17.5 70q-9 60 -3 120.5t29.5 108.5t67 78.5t111.5 30.5q20 0 44 -3.5t50 -9.5v205h117zM217 91q16 0 36.5 8t40 19.5t35.5 24.5t22 22v234q-21 5 -44.5 8 t-34.5 3q-38 0 -63 -22.5t-39 -57.5t-17 -79.5t4 -87.5q3 -27 17.5 -49.5t42.5 -22.5z" />
<glyph unicode="e" horiz-adv-x="507" d="M437 49q-10 -8 -28 -18.5t-41.5 -19.5t-51.5 -15t-59 -6q-86 0 -132.5 42t-63.5 116q-5 25 -8 52.5t-2 54.5q1 64 19 112t47.5 79.5t66 47t75.5 15.5q75 0 122 -37t60 -92q8 -32 1.5 -66.5t-31.5 -66.5q-22 -27 -54 -44.5t-67 -27.5t-68 -14.5t-56 -5.5q2 -13 7 -25 t14.5 -21t24 -14.5t36.5 -5.5q21 0 44 7t45.5 17t42 22t31.5 22zM272 410q-20 0 -39.5 -10.5t-35 -30.5t-26 -49.5t-11.5 -68.5q30 3 64.5 10.5t62.5 21.5t43 36t8 54q-8 37 -66 37z" />
<glyph unicode="f" horiz-adv-x="340" d="M76 398h-53v101h52v30q0 101 35.5 143.5t108.5 42.5q13 0 30.5 -2t34.5 -4q19 -3 39 -5l-2 -96q-13 1 -25 2q-11 1 -24 2t-25 1q-32 0 -43.5 -21.5t-11.5 -63.5l-1 -29h125l1 -101h-125l-1 -398h-116z" />
<glyph unicode="g" horiz-adv-x="531" d="M259 -239q-27 0 -53 2t-47 5q-25 4 -47 8l5 99q21 -2 41 -4q17 -2 36 -3t33 -1q60 0 90 36t30 105v14t-1 15q-5 -5 -17.5 -13t-28.5 -15.5t-33.5 -13.5t-32.5 -6q-47 0 -82.5 18.5t-59 51.5t-35.5 78t-12 98q0 58 12 108.5t38 87.5t67.5 58t100.5 21q21 0 55 -2t66 -4 q38 -3 79 -5v-172t0.5 -123t0.5 -83.5t0.5 -54t0.5 -35v-24.5q0 -127 -50 -186.5t-156 -59.5zM265 409q-27 0 -48 -16.5t-34.5 -43t-20.5 -58t-7 -61.5q0 -66 18 -102t66 -36q15 0 32.5 6.5t33 15.5t27 18t15.5 14v257q-16 1 -31 3q-13 1 -27 2t-24 1z" />
<glyph unicode="h" horiz-adv-x="562" d="M76 0l-2 710h116v-249q19 19 56.5 34t77.5 15q49 0 81 -16.5t50.5 -48.5t25.5 -78.5t7 -105.5l1 -261h-116l-1 262q0 31 -2 57t-9 45.5t-21 30.5t-38 11q-32 0 -60.5 -13t-51.5 -33l2 -360h-116z" />
<glyph unicode="i" horiz-adv-x="257" d="M71 499h114l1 -499h-114zM71 701h114v-121h-114v121z" />
<glyph unicode="j" horiz-adv-x="263" d="M77 499h114v-494q0 -50 -8 -85.5t-27.5 -62.5t-53 -50t-84.5 -49l-50 95q33 20 54 35t33.5 31t17 36t4.5 51v493zM77 708h114v-121h-114v121z" />
<glyph unicode="k" horiz-adv-x="511" d="M77 0q-2 177 -1.5 352t0.5 353h116q0 -101 -0.5 -200.5t0.5 -199.5l21 3q69 16 101 68t37 123h121q-5 -156 -115 -239l145 -260h-124l-121 208q-8 -3 -17 -5.5t-17 -4.5l-32 -6l2 -192h-116z" />
<glyph unicode="l" horiz-adv-x="259" d="M72 706h114l1 -706h-114z" />
<glyph unicode="m" horiz-adv-x="853" d="M79 0l-2 499h116v-63q10 13 24.5 26.5t31.5 24t35 17t36 6.5q38 0 71.5 -14t53.5 -46q13 10 32.5 20.5t41 19.5t45 14.5t45.5 5.5q92 0 130.5 -62.5t39.5 -186.5l1 -261h-116l-1 256q0 34 -2.5 61.5t-10 47t-22 30t-39.5 10.5q-36 0 -62 -15.5t-43 -32.5q1 -3 1.5 -12 t1 -22.5t1 -30t0.5 -33.5l1 -259h-116l-2 257q0 35 -2.5 62.5t-10 46.5t-22.5 29t-39 10q-16 0 -31 -7t-28.5 -18t-25 -24t-19.5 -25l2 -331h-116z" />
<glyph unicode="n" horiz-adv-x="563" d="M78 0l-1 499h116v-55q11 12 27 23.5t34.5 21t38.5 15.5t40 6q46 0 76.5 -16.5t48.5 -48.5t25 -78.5t7 -105.5l1 -261h-116l-2 260v58t-4.5 46t-17 30t-36.5 11q-36 0 -69 -20t-53 -46l1 -339h-116z" />
<glyph unicode="o" horiz-adv-x="529" d="M264 510q63 0 105 -20.5t67.5 -56.5t36.5 -84.5t11 -104.5t-10.5 -103t-36 -80.5t-67.5 -52.5t-106 -19t-106.5 21.5t-67.5 58.5t-35.5 87t-10.5 107q0 56 10 101.5t35.5 78t68 50t106.5 17.5zM264 90q32 0 52 12t31 34t14.5 52t3.5 65t-4.5 64t-16 49.5t-31 31.5 t-49.5 11q-31 0 -51 -11.5t-31.5 -32t-16 -49.5t-4.5 -65t4 -66t15.5 -51t31.5 -32.5t52 -11.5z" />
<glyph unicode="p" horiz-adv-x="545" d="M77 499h116v-39q27 19 58.5 33t64.5 14q40 0 69.5 -14.5t50 -39.5t32.5 -58t17 -70q9 -60 3 -120t-30 -108.5t-68 -78.5t-111 -30q-18 0 -40 2.5t-46 7.5v-212h-116v713zM320 406q-15 0 -33 -6t-36 -15.5t-33.5 -20.5t-24.5 -21v-248q21 -4 41.5 -6t30.5 -2q38 0 63 22 t39 57.5t17 79t-4 87.5q-3 28 -17.5 50.5t-42.5 22.5z" />
<glyph unicode="q" horiz-adv-x="536" d="M346 -214v251q-30 -20 -63 -33.5t-60 -13.5q-51 0 -86 19.5t-56 54t-30.5 81t-9.5 99.5q0 54 13 102t39.5 84.5t66.5 57.5t95 21q18 0 45.5 -1.5t56.5 -3.5t57.5 -4.5t49.5 -3.5v-710h-118zM215 91q15 0 33.5 6.5t37 17t35 22t26.5 22.5l1 240q-21 4 -44.5 7t-34.5 3 q-29 0 -52 -15t-38.5 -40t-24 -59t-8.5 -71q0 -22 2.5 -45.5t10 -43t21 -32t35.5 -12.5z" />
<glyph unicode="r" horiz-adv-x="359" d="M71 499h117v-72q9 10 20.5 22t29 24t40.5 22t54 16l-1 -125q-34 -6 -57 -15t-39 -18.5t-27 -20t-21 -20.5l2 -312h-116z" />
<glyph unicode="s" horiz-adv-x="494" d="M425 393q-35 3 -68 7q-29 3 -59 5.5t-52 2.5q-36 0 -57 -11.5t-21 -31.5q0 -22 26.5 -36t74.5 -28q33 -10 64 -21.5t55 -29.5t38.5 -44t14.5 -64q0 -31 -10 -58.5t-33 -48.5t-60.5 -33t-93.5 -12q-24 0 -56.5 3t-61.5 7q-34 4 -69 10l5 98q36 -5 70 -9q29 -3 60 -5.5 t52 -2.5q36 0 59 14t23 37q0 13 -9 22.5t-24 17.5t-35.5 14.5t-43.5 13.5q-24 7 -52.5 19t-53 30.5t-40.5 44t-16 60.5q0 29 11.5 55.5t35.5 47t61.5 32.5t90.5 12q21 0 46 -2.5t49.5 -6.5t45.5 -8t35 -8z" />
<glyph unicode="t" horiz-adv-x="354" d="M195 396v-204q0 -26 1 -44t6 -29.5t15.5 -16.5t29.5 -5h24.5t26.5 1l30 2l5 -98q-20 -4 -38 -7q-16 -3 -33.5 -5t-30.5 -2q-43 0 -72 9t-46 31t-24.5 58t-7.5 90v220h-63v103h63v145h114v-145h135v-103h-135z" />
<glyph unicode="u" horiz-adv-x="560" d="M482 499l1 -499h-116l-1 51q-10 -10 -26 -21t-35 -20t-40 -15t-40 -6q-79 0 -117.5 59.5t-37.5 189.5v261h117v-260q0 -78 10.5 -113t48.5 -35q16 0 34.5 7.5t35.5 18t31 22.5t20 21l-2 339h117z" />
<glyph unicode="v" horiz-adv-x="483" d="M132 499l92 -402q26 3 32 38l85 364h123l-100 -400q-14 -46 -44 -72.5t-91 -26.5h-86l-126 499h115z" />
<glyph unicode="w" horiz-adv-x="752" d="M127 499l71 -395q22 2 32 35l65 280q15 70 61 71h76l86 -386q12 0 19 9t10 23l67 363h119l-81 -405q-20 -91 -130 -94h-78l-71 331l-48 -233q-20 -96 -120 -98h-88l-101 499h111z" />
<glyph unicode="x" horiz-adv-x="465" d="M131 499l94 -168l95 168h127l-143 -250l144 -249h-116l-96 167l-93 -167h-127l141 249l-142 250h116z" />
<glyph unicode="y" horiz-adv-x="484" d="M124 499l86 -334q15 -47 35 -53l100 387h119l-127 -494q-13 -51 -29 -86t-42 -62.5t-65.5 -50.5t-98.5 -49l-31 105q40 19 65 32.5t40.5 27.5t24.5 32t16 47q-30 5 -60.5 35.5t-42.5 81.5l-99 381h109z" />
<glyph unicode="z" horiz-adv-x="478" d="M57 499h359q11 -35 4.5 -72.5t-38.5 -79.5l-187 -244h224l1 -103h-358q-11 35 -3.5 74t37.5 82l184 240h-223v103z" />
<glyph unicode="{" horiz-adv-x="328" d="M237 171q0 -12 -1 -26.5t-2.5 -30.5t-2.5 -31t-1 -28q0 -19 3.5 -32t12.5 -22t26 -14t44 -7l-1 -112q-108 4 -158 44t-50 129q0 15 1 32t2.5 33.5t2.5 31.5t1 24q0 37 -19.5 61.5t-76.5 40.5v96q58 14 77 36.5t19 59.5q0 10 -1 26.5t-2.5 34.5t-2.5 35.5t-1 31.5 q0 48 12 80.5t37.5 53t65 30t93.5 11.5l1 -112q-27 -2 -44 -6t-26 -12.5t-12.5 -21t-3.5 -31.5q0 -12 1 -29.5t2.5 -35.5t2.5 -34.5t1 -27.5q0 -30 -5.5 -52t-17.5 -37.5t-31 -26.5t-46 -20q55 -18 77.5 -49.5t22.5 -92.5z" />
<glyph unicode="|" d="M200 740h118v-936h-118v936z" />
<glyph unicode="}" horiz-adv-x="328" d="M97 171q0 61 22.5 92.5t77.5 49.5q-27 9 -46 20t-31 26.5t-17.5 37.5t-5.5 52q0 11 1 27.5t2.5 34.5t2.5 35.5t1 29.5q0 19 -3.5 31.5t-12.5 21t-26 12.5t-44 6l1 112q54 -2 93 -11.5t64.5 -30t38 -53t12.5 -80.5q0 -14 -1 -31.5t-2.5 -35.5t-2.5 -34.5t-1 -26.5 q0 -37 19 -59.5t77 -36.5v-96q-57 -16 -76.5 -40.5t-19.5 -61.5q0 -9 1 -24t2.5 -31.5t2.5 -33.5t1 -32q0 -90 -49.5 -129.5t-157.5 -43.5l-2 112q27 2 44 7t26 14t12.5 22t3.5 32q0 13 -1 28t-2.5 31t-2.5 30.5t-1 26.5z" />
<glyph unicode="~" d="M469 277q-15 -16 -33 -27q-15 -10 -35.5 -18t-44.5 -8q-20 0 -45.5 7t-50.5 16t-47.5 16t-37.5 7q-17 0 -36 -6.5t-35 -14.5q-18 -10 -36 -21l-9 107q16 15 35 27q17 10 39 18.5t48 8.5q20 0 44 -7t48.5 -16t47 -16t40.5 -7q14 0 31.5 6t32.5 14q18 9 36 21z" />
<glyph unicode="&#xa1;" d="M332 350h-123v149h123v-149zM333 -201h-125l4 449h117z" />
<glyph unicode="&#xa2;" horiz-adv-x="437" d="M201 31q-44 3 -77.5 16.5t-56.5 39.5t-35 66t-12 96q0 109 48.5 161t132.5 58v107h96v-111q16 -2 31 -3.5t27 -3.5q14 -2 27 -3l-3 -99q-24 1 -47 2q-20 1 -40.5 1.5t-34.5 0.5q-33 0 -56 -5t-37.5 -17.5t-20.5 -34t-6 -53.5t6 -53t20.5 -33.5t38 -17.5t58.5 -5 q14 0 34.5 0.5t39.5 1.5q22 1 45 3l4 -99l-28 -4q-12 -2 -27 -3.5t-30 -3.5v-112h-97v108z" />
<glyph unicode="&#xa3;" d="M450 568q-23 2 -46 5q-20 2 -42.5 3.5t-40.5 1.5q-34 0 -48 -19.5t-14 -69.5v-59h159v-100h-159v-231h134l72 16l18 -97l-81 -17l-332 -1l-1 99h78v231h-65v100h65v65q0 57 13.5 93t37 56.5t54.5 28t66 7.5q20 0 43 -2.5t43 -4.5q23 -4 46 -7v-98z" />
<glyph unicode="&#xa4;" d="M354 84q-42 -23 -90 -23t-90 23l-72 -73l-79 79l73 72q-23 42 -23 90t23 90l-73 72l79 79l72 -73q42 23 90 23t90 -23l72 73l79 -79l-73 -72q23 -42 23 -90t-23 -90l73 -72l-79 -79zM203 191q25 -26 61 -26t61 26q26 25 26 61t-26 61q-25 26 -61 26t-61 -26 q-26 -25 -26 -61t26 -61z" />
<glyph unicode="&#xa5;" horiz-adv-x="540" d="M47 395h108l-155 265h131l139 -231l138 231h131l-153 -265h105v-96h-159l-2 -18v-33h161v-96h-161l1 -152h-118l-1 152h-165v96h165v33l-3 18h-162v96z" />
<glyph unicode="&#xa6;" d="M317 750v-409h-117v409h117zM317 211v-407h-117v407h117z" />
<glyph unicode="&#xa7;" d="M448 528q-32 3 -62 7q-26 3 -52.5 5.5t-44.5 2.5q-61 0 -83 -16.5t-22 -57.5q0 -32 32 -46t106 -30q42 -10 71.5 -20.5t48 -27t27 -40.5t8.5 -61q0 -18 -4.5 -37.5t-11 -37.5t-15 -34t-17.5 -28q9 -8 16 -17t12 -21t7.5 -28.5t2.5 -39.5q0 -94 -50 -136t-158 -42 q-26 0 -57.5 3t-59.5 7q-33 4 -66 11l11 93q31 -4 61 -8q26 -3 54 -5t49 -2q54 0 80.5 16.5t26.5 54.5q0 18 -7.5 29t-24 19.5t-44 15.5t-67.5 16q-42 10 -72 21.5t-49.5 28.5t-29 42t-9.5 62q0 19 6 39.5t15.5 38t20.5 31.5t20 22q-22 16 -33 40t-11 69q0 91 54 133t155 42 q26 0 56 -3.5t56 -7.5q30 -4 60 -10zM269 301q-20 5 -40.5 9t-36.5 9q-2 -3 -6 -11t-7.5 -18t-6 -21.5t-2.5 -21.5q0 -18 4 -29.5t13 -19t24 -12.5t37 -10q29 -8 52 -14.5t41 -13.5q6 8 13 32.5t7 47.5q0 32 -20 46t-72 27z" />
<glyph unicode="&#xa8;" horiz-adv-x="257" d="M-24 730h108v-118h-108v118zM186 730h109v-118h-109v118z" />
<glyph unicode="&#xa9;" d="M8 433q0 56 19.5 105t53.5 85t81 57t102 21q57 0 104.5 -21.5t81 -58.5t52 -85t18.5 -102q0 -56 -18.5 -104.5t-52.5 -84.5t-81.5 -56.5t-105.5 -20.5q-54 0 -100.5 20.5t-80.5 56.5t-53.5 84.5t-19.5 103.5zM65 434q0 -43 15 -81t41.5 -66t62.5 -44.5t79 -16.5 q44 0 81 16.5t63.5 44.5t41.5 66t15 81t-15 81.5t-42 67t-63.5 45t-79.5 16.5t-79.5 -16.5t-63 -45t-41.5 -67t-15 -81.5zM341 287q-9 -2 -20 -4q-10 -2 -24 -3t-31 -1q-69 0 -98 37.5t-29 121.5q0 75 29 112.5t98 37.5q17 0 31 -1t24 -2q11 -2 21 -3l-1 -91q-10 1 -21 3 q-10 1 -23.5 2t-30.5 1q-23 0 -30.5 -18t-7.5 -41q0 -26 8.5 -46.5t29.5 -20.5q17 0 30.5 0.5t23.5 1.5q11 1 21 3v-89z" />
<glyph unicode="&#xaa;" horiz-adv-x="518" d="M345 437q4 -12 12.5 -16.5t24.5 -6.5l-2 -28q-19 1 -30.5 6t-23.5 16q-19 -7 -39 -11q-17 -5 -38 -8t-42 -3q-31 0 -50.5 21.5t-19.5 58.5q0 70 75 76l102 7v23q0 33 -12.5 44t-39.5 11q-13 0 -30.5 -1t-34.5 -3q-19 -2 -39 -3l-2 31q20 2 39 4q17 2 35 3t32 1 q43 0 63 -20t20 -68v-134zM217 514q-26 -2 -36.5 -13.5t-10.5 -36.5q0 -46 40 -46q17 0 35.5 2.5t33.5 5.5q18 4 35 9v85z" />
<glyph unicode="&#xab;" horiz-adv-x="642" d="M187 246l114 -92v-116l-212 164v84l212 157v-116zM454 246l115 -92v-116l-212 164v84l212 157v-116z" />
<glyph unicode="&#xac;" d="M475 361v-261h-111v150h-313v111h424z" />
<glyph unicode="&#xad;" horiz-adv-x="440" d="M67 337h304v-112h-304v112z" />
<glyph unicode="&#xae;" d="M-6 434q0 57 18.5 108t53 89t84.5 60.5t114 22.5q63 0 114 -22t87 -60t55.5 -89t19.5 -109q0 -57 -19.5 -108t-55.5 -89.5t-87 -61t-114 -22.5q-64 0 -114 22.5t-84.5 60.5t-53 89.5t-18.5 108.5zM49 434q0 -46 16.5 -87t45.5 -72t68.5 -49t84.5 -18t84.5 18t68.5 49 t46 72t17 87q0 48 -17 89t-46.5 71.5t-68.5 48t-84 17.5q-46 0 -85.5 -17.5t-68 -48t-45 -71.5t-16.5 -89zM263 383h-36v-107h-83v315h119q58 0 90 -22t32 -78q0 -38 -9 -59.5t-33 -37.5l49 -118h-90zM226 446h38q40 0 40 40q0 41 -44 41h-34v-81z" />
<glyph unicode="&#xaf;" horiz-adv-x="257" d="M-24 725h314v-99h-314v99z" />
<glyph unicode="&#xb0;" d="M96 564q0 66 40.5 106.5t106.5 40.5t106.5 -40.5t40.5 -106.5t-40.5 -106t-106.5 -40t-106.5 40t-40.5 106zM163 564q0 -36 22 -58.5t58 -22.5t59 22.5t23 58.5t-23 59t-59 23t-58 -23t-22 -59z" />
<glyph unicode="&#xb1;" d="M23 410h190v122h104v-122h193v-104h-193v-117h-104v117h-190v104zM510 144v-104h-487v104h487z" />
<glyph unicode="&#xb2;" horiz-adv-x="265" d="M16 478v79l78 68q25 21 36 35.5t11 29.5q0 13 -10.5 17.5t-30.5 4.5q-9 0 -22.5 -1t-25.5 -3q-15 -2 -30 -3l-4 86q20 2 40 5q17 2 36.5 3.5t36.5 1.5q59 0 83 -23t24 -74q0 -35 -14 -58t-44 -47l-45 -38h105v-83h-224z" />
<glyph unicode="&#xb3;" horiz-adv-x="265" d="M25 791q20 2 38 5q16 2 34 3.5t34 1.5q116 0 116 -88q0 -29 -11 -46.5t-22 -24.5q19 -8 29 -23.5t10 -50.5q0 -51 -30 -76t-84 -25q-19 0 -39.5 1t-37.5 3q-20 2 -41 5l5 81q16 -2 34 -4q14 -2 31 -2.5t31 -0.5q20 0 28 6t8 19q0 14 -8.5 18.5t-24.5 4.5h-66v75h65 q11 0 18.5 6.5t7.5 17.5q0 21 -33 21q-15 0 -30 -1t-28 -2q-15 -2 -29 -3l-5 79v0z" />
<glyph unicode="&#xb4;" horiz-adv-x="268" d="M250 767l39 -108l-248 -80l-35 95z" />
<glyph unicode="&#xb6;" d="M378 611h-80l1 -611h-98l-1 315h-7q-42 0 -76 14t-58.5 39t-38 60.5t-13.5 77.5t14 78t38.5 61.5t59 40t76.5 14.5h330v-89h-48l1 -611h-99z" />
<glyph unicode="&#xb7;" horiz-adv-x="248" d="M55 369h123v-149h-123v149z" />
<glyph unicode="&#xb8;" horiz-adv-x="833" d="M565 -127q0 -55 -28.5 -80.5t-76.5 -25.5q-34 0 -62 5q-15 2 -29 5l4 68q9 -1 19 -1q8 -1 17.5 -1h17.5q40 0 40 30q0 15 -10 20.5t-30 5.5h-30v102h49v-42q29 0 51 -3.5t37 -13t23 -26t8 -43.5z" />
<glyph unicode="&#xb9;" horiz-adv-x="265" d="M124 790h84v-312h-92v211l-54 -37l-42 65z" />
<glyph unicode="&#xba;" horiz-adv-x="526" d="M258 659q57 0 85 -32t28 -103t-28 -104.5t-85 -33.5t-86 33.5t-29 104.5t29 103t86 32zM258 418q43 0 61 24.5t18 81.5t-18 80t-61 23t-62 -23t-19 -80t19 -81.5t62 -24.5z" />
<glyph unicode="&#xbb;" horiz-adv-x="642" d="M339 327v116l212 -157v-84l-212 -164v116l114 92zM71 327v116l212 -157v-84l-212 -164v116l115 92z" />
<glyph unicode="&#xbf;" horiz-adv-x="386" d="M5 -24q0 44 13.5 77t33.5 57.5t43.5 42.5t43.5 34.5t33.5 32t13.5 35.5v38h123v-41q0 -34 -13.5 -58t-33 -43.5t-43 -36t-43 -34.5t-33 -39.5t-13.5 -50.5q0 -22 4 -37.5t15 -26t30.5 -15.5t50.5 -5q19 0 44.5 3t49.5 7q27 4 57 10l14 -112q-33 -8 -65 -14 q-27 -5 -56 -9.5t-49 -4.5q-57 0 -98 10t-68 32.5t-40.5 58.5t-13.5 89zM309 350h-123v149h123v-149z" />
<glyph unicode="&#xc0;" horiz-adv-x="604" d="M190 692h231l164 -692h-118l-39 136h-251l-33 -136h-118zM202 249h203l-77 335h-47zM427 856l-35 -96l-247 81l38 107z" />
<glyph unicode="&#xc1;" horiz-adv-x="604" d="M190 692h231l164 -692h-118l-39 136h-251l-33 -136h-118zM202 249h203l-77 335h-47zM405 967l39 -108l-248 -80l-35 95z" />
<glyph unicode="&#xc2;" horiz-adv-x="604" d="M190 692h231l164 -692h-118l-39 136h-251l-33 -136h-118zM202 249h203l-77 335h-47zM255 948h92l130 -164h-123l-52 69l-53 -69h-123z" />
<glyph unicode="&#xc3;" horiz-adv-x="604" d="M191 692h230l164 -692h-118l-39 136h-251l-33 -136h-118zM202 249h203l-77 335h-47zM471 853q-15 -17 -32 -30q-14 -11 -32 -20t-36 -9q-19 0 -40 7t-41 16t-38 16t-30 7q-10 0 -23.5 -6.5t-25.5 -14.5q-14 -9 -29 -20l-25 86q16 17 33 30q14 11 32 20.5t37 9.5 q21 0 42.5 -7t41 -15.5t36 -15.5t27.5 -7q9 0 22 6t26 14q14 9 30 20z" />
<glyph unicode="&#xc4;" horiz-adv-x="604" d="M191 692h230l164 -692h-118l-39 136h-251l-33 -136h-118zM202 249h203l-77 335h-47zM165 930h110v-118h-110v118zM376 930h109v-118h-109v118z" />
<glyph unicode="&#xc5;" horiz-adv-x="604" d="M445 728q0 -19 -5 -34.5t-13 -28.5l158 -665h-118l-39 136h-251l-33 -136h-118l157 665q-17 26 -17 63q0 29 11 51t29.5 37t44 23t54.5 8t54.5 -8t44.5 -23t30 -37t11 -51zM202 249h203l-77 335h-47zM255 728q0 -28 28 -36h44q29 8 29 36q0 18 -14 28.5t-37 10.5 t-36.5 -10.5t-13.5 -28.5z" />
<glyph unicode="&#xc6;" horiz-adv-x="898" d="M427 136h-225l-38 -136h-119l197 692h617v-112h-316v-172h256v-112h-256v-184h316l1 -112h-432zM231 249h196l1 331h-103z" />
<glyph unicode="&#xc7;" horiz-adv-x="537" d="M428 -127q0 -55 -28.5 -80.5t-76.5 -25.5q-34 0 -62 5q-15 2 -29 5l4 68q9 -1 19 -1q8 -1 17.5 -1h17.5q40 0 40 30q0 15 -10 20.5t-30 5.5h-30v92q-66 5 -108 30t-66 69.5t-33.5 108t-9.5 146.5q0 94 12.5 162t42.5 111.5t79 64t123 20.5q32 0 67 -4.5t64 -9.5 q33 -6 66 -13l-4 -103q-33 3 -66 7q-28 3 -58 5.5t-53 2.5q-45 0 -74.5 -12t-47 -40t-24 -75t-6.5 -116q0 -66 6 -112t22.5 -74.5t47 -41.5t80.5 -13q20 0 49.5 2.5t57.5 5.5q32 4 66 8l3 -106q-31 -7 -64 -12q-28 -5 -61 -8.5t-62 -4.5v-30q29 0 51 -3.5t37 -13t23 -26 t8 -43.5z" />
<glyph unicode="&#xc8;" horiz-adv-x="557" d="M76 692h432v-112h-316v-181h256v-110h-256v-177h316l1 -112h-432zM430 856l-35 -96l-247 81l38 107z" />
<glyph unicode="&#xc9;" horiz-adv-x="557" d="M504 0h-217q-47 0 -87.5 13t-70 38.5t-46 63t-15.5 87.5q1 36 7 61t18 42.5t30.5 29t42.5 20.5q-18 13 -32.5 27.5t-24.5 33.5t-15.5 44t-3.5 59q1 46 18 78.5t46 53.5t68 31t83 10h198v-109h-195q-41 0 -68.5 -20t-28.5 -65q-1 -46 23.5 -73.5t66.5 -27.5h141v-106h-145 q-18 0 -37 -4t-34.5 -14.5t-26 -28t-10.5 -43.5q-1 -25 6.5 -42.5t21 -28t32 -15.5t40.5 -5h214zM460 917l39 -108l-248 -80l-34 95z" />
<glyph unicode="&#xca;" horiz-adv-x="572" d="M80 692h432v-112h-316v-181h256v-110h-256v-177h316l1 -112h-432zM262 948h92l130 -164h-123l-52 69l-53 -69h-123z" />
<glyph unicode="&#xcb;" horiz-adv-x="572" d="M80 692h432v-112h-316v-181h256v-110h-256v-177h316l1 -112h-432zM146 930h109v-118h-109v118zM357 930h109v-118h-109v118z" />
<glyph unicode="&#xcc;" horiz-adv-x="268" d="M74 692h118l1 -692h-118zM250 856l-35 -96l-246 81l37 107z" />
<glyph unicode="&#xcd;" horiz-adv-x="268" d="M74 692h118l1 -692h-118zM243 957l38 -108l-247 -80l-34 95z" />
<glyph unicode="&#xce;" horiz-adv-x="268" d="M74 692h118l1 -692h-118zM81 934h104l132 -144h-129l-54 53l-53 -53h-131z" />
<glyph unicode="&#xcf;" horiz-adv-x="268" d="M74 692h118l1 -692h-118zM-28 921h108v-118h-108v118zM188 921h109v-118h-109v118z" />
<glyph unicode="&#xd0;" horiz-adv-x="631" d="M17 400h59v292h233q84 0 138 -21.5t85 -63.5t43 -104.5t12 -144.5q0 -83 -11 -149.5t-41 -113t-84 -71t-141 -24.5h-233l-1 288h-59v112zM466 358q0 53 -5.5 94.5t-22 70t-47.5 43t-82 14.5h-117v-180h137v-112h-137v-176h117q51 0 82 18.5t47.5 51t22 77.5t5.5 99z" />
<glyph unicode="&#xd1;" horiz-adv-x="687" d="M67 692h190l220 -546h17v546h118l1 -692h-185l-226 546h-18l1 -546h-117zM509 853q-15 -17 -32 -30q-14 -11 -32 -20t-36 -9q-19 0 -40 7t-41 16t-38 16t-30 7q-11 0 -24 -6.5t-25 -14.5q-14 -9 -29 -20l-25 86q16 17 33 30q14 11 32 20.5t37 9.5q21 0 42.5 -7t41 -15.5 t36 -15.5t27.5 -7q9 0 22 6t26 14q14 9 30 20z" />
<glyph unicode="&#xd2;" horiz-adv-x="656" d="M327 102q48 0 78.5 14.5t48.5 44t24.5 74.5t6.5 106q0 60 -7 106.5t-24.5 78t-48 48t-78.5 16.5t-78.5 -16.5t-48 -48t-24.5 -78t-7 -106.5t6.5 -105t24.5 -75t48.5 -44.5t78.5 -14.5zM327 -11q-80 0 -134 22.5t-86 66.5t-45.5 110t-13.5 153t13.5 154.5t45.5 113.5 t86 70t134 24t133.5 -24t86 -70t46 -113.5t13.5 -154.5q0 -88 -13.5 -154t-46 -110t-86 -66t-133.5 -22zM455 856l-35 -96l-247 81l38 107z" />
<glyph unicode="&#xd3;" horiz-adv-x="656" d="M327 102q48 0 78.5 14.5t48.5 44t24.5 74.5t6.5 106q0 60 -7 106.5t-24.5 78t-48 48t-78.5 16.5t-78.5 -16.5t-48 -48t-24.5 -78t-7 -106.5t6.5 -105t24.5 -75t48.5 -44.5t78.5 -14.5zM327 -11q-80 0 -134 22.5t-86 66.5t-45.5 110t-13.5 153t13.5 154.5t45.5 113.5 t86 70t134 24t133.5 -24t86 -70t46 -113.5t13.5 -154.5q0 -88 -13.5 -154t-46 -110t-86 -66t-133.5 -22zM418 967l39 -108l-248 -80l-35 95z" />
<glyph unicode="&#xd4;" horiz-adv-x="656" d="M327 102q48 0 78.5 14.5t48.5 44t24.5 74.5t6.5 106q0 60 -7 106.5t-24.5 78t-48 48t-78.5 16.5t-78.5 -16.5t-48 -48t-24.5 -78t-7 -106.5t6.5 -105t24.5 -75t48.5 -44.5t78.5 -14.5zM327 -11q-80 0 -134 22.5t-86 66.5t-45.5 110t-13.5 153t13.5 154.5t45.5 113.5 t86 70t134 24t133.5 -24t86 -70t46 -113.5t13.5 -154.5q0 -88 -13.5 -154t-46 -110t-86 -66t-133.5 -22zM279 948h92l130 -164h-123l-52 69l-53 -69h-123z" />
<glyph unicode="&#xd5;" horiz-adv-x="656" d="M327 102q48 0 78.5 14.5t48.5 44t24.5 74.5t6.5 106q0 60 -7 106.5t-24.5 78t-48 48t-78.5 16.5t-78.5 -16.5t-48.5 -48t-24.5 -78t-6.5 -106.5t6.5 -105t24.5 -75t48.5 -44.5t78.5 -14.5zM327 -11q-80 0 -134 22.5t-86 66.5t-45.5 110t-13.5 153t13.5 154.5t45.5 113.5 t86 70t134 24t133.5 -24t86 -70t46 -113.5t13.5 -154.5q0 -88 -13.5 -154t-46 -110t-86 -66t-133.5 -22zM495 853q-15 -17 -32 -30q-14 -11 -32 -20t-36 -9q-19 0 -40 7t-41 16t-38 16t-30 7q-11 0 -24 -6.5t-25 -14.5q-14 -9 -29 -20l-25 86q16 17 33 30q14 11 32 20.5 t37 9.5q21 0 42.5 -7t41 -15.5t36 -15.5t27.5 -7q9 0 22 6t26 14q14 9 30 20z" />
<glyph unicode="&#xd6;" horiz-adv-x="656" d="M327 102q48 0 78.5 14.5t48.5 44t24.5 74.5t6.5 106q0 60 -7 106.5t-24.5 78t-48 48t-78.5 16.5t-78.5 -16.5t-48.5 -48t-24.5 -78t-6.5 -106.5t6.5 -105t24.5 -75t48.5 -44.5t78.5 -14.5zM327 -11q-80 0 -134 22.5t-86 66.5t-45.5 110t-13.5 153t13.5 154.5t45.5 113.5 t86 70t134 24t133.5 -24t86 -70t46 -113.5t13.5 -154.5q0 -88 -13.5 -154t-46 -110t-86 -66t-133.5 -22zM162 930h110v-118h-110v118zM373 930h110v-118h-110v118z" />
<glyph unicode="&#xd7;" horiz-adv-x="591" d="M420 362l179 181l75 -74l-179 -181l179 -181l-75 -73l-179 180l-178 -180l-74 73l178 181l-178 181l74 74z" />
<glyph unicode="&#xd8;" horiz-adv-x="646" d="M322 -11q-27 0 -50.5 2.5t-44.5 7.5l-58 -124l-104 46l61 130q-46 44 -64.5 116t-18.5 174q0 87 13.5 154.5t45.5 113.5t86 70t134 24q29 0 54 -3.5t48 -9.5l56 120l106 -40l-64 -138q43 -46 61 -118.5t18 -172.5q0 -88 -13.5 -154t-46 -110t-86 -66t-133.5 -22zM164 341 q0 -52 4.5 -92.5t17.5 -69.5l188 404q-11 3 -24.5 5t-27.5 2q-48 0 -78.5 -16.5t-48 -48t-24.5 -78t-7 -106.5zM322 102q48 0 78.5 14.5t48.5 44t24.5 74.5t6.5 106q0 49 -4.5 88.5t-15.5 70.5l-183 -394q17 -4 45 -4z" />
<glyph unicode="&#xd9;" horiz-adv-x="639" d="M183 223q0 -34 9.5 -56.5t27.5 -36t42.5 -19t54.5 -5.5q31 0 56 6t43 19.5t28 36t10 55.5v469h118v-469q0 -62 -16.5 -106t-49 -72t-80 -41t-109.5 -13t-109 13t-78.5 41t-48 72t-16.5 106v469h118v-469zM328 856l-35 -96l-247 81l38 107z" />
<glyph unicode="&#xda;" horiz-adv-x="642" d="M187 223q0 -34 9.5 -56.5t27.5 -36t42.5 -19t54.5 -5.5q31 0 56 6t43 19.5t28 36t10 55.5v469h118v-469q0 -62 -16.5 -106t-49 -72t-80 -41t-109.5 -13t-109 13t-78.5 41t-48 72t-16.5 106v469h118v-469zM415 967l39 -108l-248 -80l-35 95z" />
<glyph unicode="&#xdb;" horiz-adv-x="642" d="M187 223q0 -34 9.5 -56.5t27.5 -36t42.5 -19t54.5 -5.5q31 0 56 6t43 19.5t28 36t10 55.5v469h118v-469q0 -62 -16.5 -106t-49 -72t-80 -41t-109.5 -13t-109 13t-78.5 41t-48 72t-16.5 106v469h118v-469zM276 948h92l130 -164h-123l-52 69l-53 -69h-123z" />
<glyph unicode="&#xdc;" horiz-adv-x="642" d="M187 223q0 -34 9.5 -56.5t27.5 -36t42.5 -19t54.5 -5.5q31 0 56 6t43 19.5t28 36t10 55.5v469h118v-469q0 -62 -16.5 -106t-49 -72t-80 -41t-109.5 -13t-109 13t-78.5 41t-48 72t-16.5 106v469h118v-469zM187 930h109v-118h-109v118zM398 930h109v-118h-109v118z" />
<glyph unicode="&#xdd;" horiz-adv-x="540" d="M331 0h-118l-1 296l-212 396h131l139 -265l138 265h131l-209 -397zM348 967l39 -108l-248 -80l-35 95z" />
<glyph unicode="&#xde;" horiz-adv-x="547" d="M287 220q60 0 89 36.5t29 99.5t-29 92t-89 29h-132v-257h132zM155 106l1 -106h-118l-1 692h118v-103h133q237 0 237 -233q0 -118 -59.5 -184t-177.5 -66h-133z" />
<glyph unicode="&#xdf;" horiz-adv-x="620" d="M74 0l-1 530q0 103 54 144.5t165 41.5q115 0 166.5 -34t51.5 -117q0 -28 -5.5 -48t-16.5 -34.5t-27.5 -25.5t-38.5 -20q-37 -16 -49 -24.5t-12 -21.5q0 -7 2.5 -13t12 -13.5t27.5 -17.5t50 -25q34 -17 58 -31t39 -29.5t22 -35.5t7 -47q0 -54 -12.5 -90.5t-40.5 -58 t-73.5 -30.5t-111.5 -9q-14 0 -33 3t-36 7q-20 4 -41 10l4 90q26 -1 47 -2q18 -1 35 -1.5t24 -0.5q67 0 93.5 15.5t26.5 50.5q0 9 -3.5 16.5t-13.5 16t-29.5 19t-50.5 25.5q-35 16 -58 30.5t-37 30.5t-20 35t-6 43q0 46 19.5 71t59.5 42q22 9 36 17t21.5 15.5t10 15.5 t2.5 17q0 32 -24.5 43.5t-75.5 11.5q-48 0 -76.5 -18t-28.5 -69l1 -525h-114z" />
<glyph unicode="&#xe0;" horiz-adv-x="526" d="M434 129q4 -18 19 -29t38 -15q-2 -24 -3 -48t-3 -47q-52 2 -84 13t-49 34q-21 -18 -55 -32.5t-74 -14.5q-71 0 -112 37t-56 101q-16 70 -13 138t27 122t70 87.5t116 33.5q28 0 50.5 -3.5t40.5 -8.5l88 13v-381zM214 91q17 0 34.5 6t33 15.5t27 20.5t17.5 20v124 q1 32 0 62.5t-1 63.5h-8q-11 2 -23.5 4t-24.5 2q-37 0 -63 -23.5t-41 -61t-17.5 -84.5t8.5 -95q5 -24 20 -39t38 -15zM354 674l-33 -90l-247 81l36 101z" />
<glyph unicode="&#xe1;" horiz-adv-x="526" d="M434 129q4 -18 19 -29t38 -15q-2 -24 -3 -48t-3 -47q-52 2 -84 13t-49 34q-21 -18 -55 -32.5t-74 -14.5q-71 0 -112 37t-56 101q-16 70 -13 138t27 122t70 87.5t116 33.5q28 0 50.5 -3.5t40.5 -8.5l88 13v-381zM214 91q17 0 34.5 6t33 15.5t27 20.5t17.5 20v124 q1 32 0 62.5t-1 63.5h-8q-11 2 -23.5 4t-24.5 2q-37 0 -63 -23.5t-41 -61t-17.5 -84.5t8.5 -95q5 -24 20 -39t38 -15zM372 767l39 -108l-248 -80l-34 95z" />
<glyph unicode="&#xe2;" horiz-adv-x="526" d="M434 129q4 -18 19 -29t38 -15q-2 -24 -3 -48t-3 -47q-52 2 -84 13t-49 34q-21 -18 -55 -32.5t-74 -14.5q-71 0 -112 37t-56 101q-16 70 -13 138t27 122t70 87.5t116 33.5q28 0 50.5 -3.5t40.5 -8.5l88 13v-381zM214 91q17 0 34.5 6t33 15.5t27 20.5t17.5 20v124 q1 32 0 62.5t-1 63.5h-8q-11 2 -23.5 4t-24.5 2q-37 0 -63 -23.5t-41 -61t-17.5 -84.5t8.5 -95q5 -24 20 -39t38 -15zM211 748h92l130 -164h-123l-52 69l-53 -69h-122z" />
<glyph unicode="&#xe3;" horiz-adv-x="526" d="M434 129q4 -18 19 -29t38 -15q-2 -24 -3 -48t-3 -47q-52 2 -84 13t-49 34q-21 -18 -55 -32.5t-74 -14.5q-71 0 -112 37t-56 101q-16 70 -13 138t27 122t70 87.5t116 33.5q28 0 50.5 -3.5t40.5 -8.5l88 13v-381zM214 91q17 0 34.5 6t33 15.5t27 20.5t17.5 20v124 q1 32 0 62.5t-1 63.5h-8q-11 2 -23.5 4t-24.5 2q-37 0 -63 -23.5t-41 -61t-17.5 -84.5t8.5 -95q5 -24 20 -39t38 -15zM442 653q-15 -17 -32 -30q-14 -11 -32 -20t-36 -9q-19 0 -40 7t-41 16t-38 16t-30 7q-10 0 -23 -6.5t-25 -14.5q-14 -9 -29 -20l-25 86q15 17 32 30 q14 11 32 20.5t37 9.5q21 0 42.5 -7t41 -15.5t36 -15.5t27.5 -7q9 0 22 6t26 14q14 9 30 20z" />
<glyph unicode="&#xe4;" horiz-adv-x="526" d="M434 129q4 -18 19 -29t38 -15q-2 -24 -3 -48t-3 -47q-52 2 -84 13t-49 34q-21 -18 -55 -32.5t-74 -14.5q-71 0 -112 37t-56 101q-16 70 -13 138t27 122t70 87.5t116 33.5q28 0 50.5 -3.5t40.5 -8.5l88 13v-381zM214 91q17 0 34.5 6t33 15.5t27 20.5t17.5 20v124 q1 32 0 62.5t-1 63.5h-8q-11 2 -23.5 4t-24.5 2q-37 0 -63 -23.5t-41 -61t-17.5 -84.5t8.5 -95q5 -24 20 -39t38 -15zM301 730h109v-118h-109v118zM91 730h108v-118h-108v118z" />
<glyph unicode="&#xe5;" horiz-adv-x="526" d="M434 129q4 -18 19 -29t38 -15q-2 -24 -3 -48t-3 -47q-52 2 -84 13t-49 34q-21 -18 -55 -32.5t-74 -14.5q-71 0 -112 37t-56 101q-16 70 -13 138t27 122t70 87.5t116 33.5q28 0 50.5 -3.5t40.5 -8.5l88 13v-381zM214 91q17 0 34.5 6t33 15.5t27 20.5t17.5 20v124 q1 32 0 62.5t-1 63.5h-8q-11 2 -23.5 4t-24.5 2q-37 0 -63 -23.5t-41 -61t-17.5 -84.5t8.5 -95q5 -24 20 -39t38 -15zM156 664q0 24 8.5 44.5t24 35.5t36 24t44.5 9t44.5 -9t35.5 -24t23.5 -35.5t8.5 -44.5t-8.5 -44.5t-23.5 -35.5t-35.5 -23.5t-44.5 -8.5t-44.5 8.5 t-36 23.5t-24 35.5t-8.5 44.5zM233 664q0 -16 10 -26.5t27 -10.5q15 0 25.5 10.5t10.5 26.5t-10.5 26.5t-25.5 10.5q-17 0 -27 -10.5t-10 -26.5z" />
<glyph unicode="&#xe6;" horiz-adv-x="828" d="M568 93q30 0 62.5 1t59.5 3q32 2 63 5l2 -89q-34 -7 -69 -12q-30 -5 -66 -8.5t-69 -3.5q-101 0 -151 50l-26 -12q-10 -5 -28 -11.5t-41 -12.5t-51 -10t-58 -4q-72 0 -108 42.5t-36 117.5q0 42 11.5 70t34 45.5t55.5 26t75 11.5l115 9v30q0 29 -17 44.5t-45 15.5 t-61.5 -1.5t-62.5 -3.5q-34 -3 -69 -5l-4 100q37 6 74 10q31 4 66 7t63 3q91 0 131 -49q26 25 61.5 37t79.5 12q107 0 159.5 -55.5t52.5 -172.5l-8 -82h-306q1 -55 25.5 -81.5t85.5 -26.5zM218 87q19 0 41.5 3.5t41.5 7.5t32.5 7.5t14.5 3.5q-6 51 -6 113l-109 -6 q-32 -2 -49 -17t-17 -47q0 -65 51 -65zM658 290q0 66 -22.5 92.5t-76.5 26.5t-78 -28t-24 -91h201z" />
<glyph unicode="&#xe7;" horiz-adv-x="436" d="M390 65q-12 -14 -30 -26.5t-38.5 -22.5t-42.5 -16.5t-42 -8.5v-32q58 -1 88.5 -22.5t30.5 -63.5q0 -55 -28.5 -80.5t-76.5 -25.5q-34 0 -62 5q-15 2 -29 5l4 68q9 -1 19 -1q8 -1 17.5 -1h17.5q40 0 40 30q0 15 -10 20.5t-30 5.5h-30l-1 94q-32 6 -55.5 22t-40 39.5 t-26.5 53.5t-14 63q-9 60 -3 120.5t29.5 108.5t67 78.5t111.5 30.5q29 0 66.5 -6t69.5 -17l-3 -98q-5 3 -20.5 6.5t-34 6t-36.5 4.5t-27 2q-38 0 -63 -21.5t-39 -56t-17 -78t3 -86.5q4 -27 18.5 -49.5t42.5 -22.5q16 0 35.5 6.5t37 16.5t31.5 21.5t20 20.5z" />
<glyph unicode="&#xe8;" horiz-adv-x="507" d="M437 49q-10 -8 -28 -18.5t-41.5 -19.5t-51.5 -15t-59 -6q-86 0 -132.5 42t-63.5 116q-5 25 -8 52.5t-2 54.5q1 64 19 112t47.5 79.5t66 47t75.5 15.5q75 0 122 -37t60 -92q8 -32 1.5 -66.5t-31.5 -66.5q-22 -27 -54 -44.5t-67 -27.5t-68 -14.5t-56 -5.5q2 -13 7 -25 t14.5 -21t24 -14.5t36.5 -5.5q21 0 44 7t45.5 17t42 22t31.5 22zM272 410q-20 0 -39.5 -10.5t-35 -30.5t-26 -49.5t-11.5 -68.5q30 3 64.5 10.5t62.5 21.5t43 36t8 54q-8 37 -66 37zM372 674l-33 -90l-247 81l36 101z" />
<glyph unicode="&#xe9;" horiz-adv-x="507" d="M437 49q-10 -8 -28 -18.5t-41.5 -19.5t-51.5 -15t-59 -6q-86 0 -132.5 42t-63.5 116q-5 25 -8 52.5t-2 54.5q1 64 19 112t47.5 79.5t66 47t75.5 15.5q75 0 122 -37t60 -92q8 -32 1.5 -66.5t-31.5 -66.5q-22 -27 -54 -44.5t-67 -27.5t-68 -14.5t-56 -5.5q2 -13 7 -25 t14.5 -21t24 -14.5t36.5 -5.5q21 0 44 7t45.5 17t42 22t31.5 22zM272 410q-20 0 -39.5 -10.5t-35 -30.5t-26 -49.5t-11.5 -68.5q30 3 64.5 10.5t62.5 21.5t43 36t8 54q-8 37 -66 37zM413 767l39 -108l-248 -80l-34 95z" />
<glyph unicode="&#xea;" horiz-adv-x="507" d="M437 49q-10 -8 -28 -18.5t-41.5 -19.5t-51.5 -15t-59 -6q-86 0 -132.5 42t-63.5 116q-5 25 -8 52.5t-2 54.5q1 64 19 112t47.5 79.5t66 47t75.5 15.5q75 0 122 -37t60 -92q8 -32 1.5 -66.5t-31.5 -66.5q-22 -27 -54 -44.5t-67 -27.5t-68 -14.5t-56 -5.5q2 -13 7 -25 t14.5 -21t24 -14.5t36.5 -5.5q21 0 44 7t45.5 17t42 22t31.5 22zM272 410q-20 0 -39.5 -10.5t-35 -30.5t-26 -49.5t-11.5 -68.5q30 3 64.5 10.5t62.5 21.5t43 36t8 54q-8 37 -66 37zM215 748h92l130 -164h-123l-52 69l-53 -69h-122z" />
<glyph unicode="&#xeb;" horiz-adv-x="507" d="M437 49q-10 -8 -28 -18.5t-41.5 -19.5t-51.5 -15t-59 -6q-86 0 -132.5 42t-63.5 116q-5 25 -8 52.5t-2 54.5q1 64 19 112t47.5 79.5t66 47t75.5 15.5q75 0 122 -37t60 -92q8 -32 1.5 -66.5t-31.5 -66.5q-22 -27 -54 -44.5t-67 -27.5t-68 -14.5t-56 -5.5q2 -13 7 -25 t14.5 -21t24 -14.5t36.5 -5.5q21 0 44 7t45.5 17t42 22t31.5 22zM272 410q-20 0 -39.5 -10.5t-35 -30.5t-26 -49.5t-11.5 -68.5q30 3 64.5 10.5t62.5 21.5t43 36t8 54q-8 37 -66 37zM101 730h108v-118h-108v118zM311 730h109v-118h-109v118z" />
<glyph unicode="&#xec;" horiz-adv-x="261" d="M75 499h114l1 -499h-114zM262 674l-33 -90l-246 81l35 101z" />
<glyph unicode="&#xed;" horiz-adv-x="261" d="M253 767l39 -108l-248 -80l-35 95zM75 499h114l1 -499h-114z" />
<glyph unicode="&#xee;" horiz-adv-x="267" d="M75 499h114l1 -499h-114zM81 748h92l130 -164h-123l-52 69l-53 -69h-122z" />
<glyph unicode="&#xef;" horiz-adv-x="261" d="M-31 730h108v-118h-108v118zM178 730h110v-118h-110v118zM75 499h114l1 -499h-114z" />
<glyph unicode="&#xf0;" d="M105 551l56 43q-20 5 -41.5 8.5t-45.5 8.5l17 97q49 -6 92.5 -14.5t81.5 -20.5l97 74l47 -67l-57 -43q75 -42 114 -111t39 -177q0 -185 -57.5 -271.5t-189.5 -86.5q-112 0 -171.5 60.5t-59.5 178.5q0 47 15.5 85t43.5 64.5t68 41t88 14.5q26 0 51.5 -4.5t45.5 -9.5 q23 -6 43 -13q-2 27 -9.5 49.5t-22 42t-37.5 35t-56 29.5l-105 -79zM249 335q-24 0 -42.5 -8.5t-31 -23t-19.5 -33.5t-7 -40q0 -60 25.5 -96.5t83.5 -36.5q63 0 93.5 49t31.5 162q-19 7 -40 13q-19 5 -43 9.5t-51 4.5z" />
<glyph unicode="&#xf1;" horiz-adv-x="574" d="M82 0l-1 499h114v-25q22 10 46 18q20 7 43.5 13t44.5 6q52 0 86 -15.5t53.5 -46.5t27 -78t7.5 -110l1 -261h-114l-1 260q0 36 -3 63t-12 45t-25 27t-42 9q-17 0 -36.5 -3.5t-36.5 -8.5q-20 -5 -39 -11l1 -381h-114zM465 653q-15 -17 -32 -30q-14 -11 -32 -20t-36 -9 q-19 0 -40 7t-41 16t-38 16t-30 7q-11 0 -24 -6.5t-25 -14.5q-14 -9 -29 -20l-25 86q16 17 33 30q14 11 32 20.5t37 9.5q21 0 42.5 -7t41 -15.5t36 -15.5t27.5 -7q9 0 22 6t26 14q14 9 30 20z" />
<glyph unicode="&#xf2;" horiz-adv-x="529" d="M264 511q62 0 105 -18t69.5 -52t38 -81.5t11.5 -107.5t-11 -109t-36.5 -83t-69 -52.5t-107.5 -18.5q-65 0 -108 18t-69 52t-37 83t-11 110q0 60 11.5 108t37.5 81.5t69.5 51.5t106.5 18zM264 92q33 0 54 10t33 30t16.5 50t4.5 70q0 79 -23.5 117t-84.5 38 q-64 0 -86.5 -37.5t-22.5 -117.5q0 -41 4.5 -71t16.5 -49.5t33.5 -29.5t54.5 -10zM405 674l-33 -90l-247 81l36 101z" />
<glyph unicode="&#xf3;" horiz-adv-x="529" d="M264 511q62 0 105 -18t69.5 -52t38 -81.5t11.5 -107.5t-11 -109t-36.5 -83t-69 -52.5t-107.5 -18.5q-65 0 -108 18t-69 52t-37 83t-11 110q0 60 11.5 108t37.5 81.5t69.5 51.5t106.5 18zM264 92q33 0 54 10t33 30t16.5 50t4.5 70q0 79 -23.5 117t-84.5 38 q-64 0 -86.5 -37.5t-22.5 -117.5q0 -41 4.5 -71t16.5 -49.5t33.5 -29.5t54.5 -10zM355 767l39 -108l-248 -80l-35 95z" />
<glyph unicode="&#xf4;" horiz-adv-x="529" d="M264 511q62 0 105 -18t69.5 -52t38 -81.5t11.5 -107.5t-11 -109t-36.5 -83t-69 -52.5t-107.5 -18.5q-65 0 -108 18t-69 52t-37 83t-11 110q0 60 11.5 108t37.5 81.5t69.5 51.5t106.5 18zM264 92q33 0 54 10t33 30t16.5 50t4.5 70q0 79 -23.5 117t-84.5 38 q-64 0 -86.5 -37.5t-22.5 -117.5q0 -41 4.5 -71t16.5 -49.5t33.5 -29.5t54.5 -10zM212 748h92l130 -164h-123l-52 69l-53 -69h-123z" />
<glyph unicode="&#xf5;" horiz-adv-x="529" d="M264 511q62 0 105 -18t69.5 -52t38 -81.5t11.5 -107.5t-11 -109t-36.5 -83t-69 -52.5t-107.5 -18.5q-65 0 -108 18t-69 52t-37 83t-11 110q0 60 11.5 108t37.5 81.5t69.5 51.5t106.5 18zM264 92q33 0 54 10t33 30t16.5 50t4.5 70q0 79 -23.5 117t-84.5 38 q-64 0 -86.5 -37.5t-22.5 -117.5q0 -41 4.5 -71t16.5 -49.5t33.5 -29.5t54.5 -10zM435 653q-14 -17 -31 -30q-14 -11 -32 -20t-37 -9q-18 0 -39 7t-41.5 16t-38 16t-29.5 7q-11 0 -24 -6.5t-25 -14.5q-14 -9 -29 -20l-26 86q16 17 33 30q14 11 32 20.5t37 9.5q21 0 43 -7 t41.5 -15.5t35.5 -15.5t27 -7q9 0 22.5 6t25.5 14q14 9 30 20z" />
<glyph unicode="&#xf6;" horiz-adv-x="529" d="M264 511q62 0 105 -18t69.5 -52t38 -81.5t11.5 -107.5t-11 -109t-36.5 -83t-69 -52.5t-107.5 -18.5q-65 0 -108 18t-69 52t-37 83t-11 110q0 60 11.5 108t37.5 81.5t69.5 51.5t106.5 18zM264 92q33 0 54 10t33 30t16.5 50t4.5 70q0 79 -23.5 117t-84.5 38 q-64 0 -86.5 -37.5t-22.5 -117.5q0 -41 4.5 -71t16.5 -49.5t33.5 -29.5t54.5 -10zM102 730h109v-118h-109v118zM313 730h109v-118h-109v118z" />
<glyph unicode="&#xf7;" d="M43 393h413v-113h-413v113zM196 186h114v-121h-114v121zM196 607h114v-121h-114v121z" />
<glyph unicode="&#xf8;" horiz-adv-x="529" d="M264 511q33 0 62 -6l40 102l71 -27l-42 -101q51 -31 72 -89t21 -138q0 -60 -11 -109t-36.5 -83t-69 -52.5t-107.5 -18.5q-37 0 -67 6l-43 -104l-70 26l44 104q-50 32 -69.5 91t-19.5 140q0 60 11.5 108t37.5 81.5t69.5 51.5t106.5 18zM264 92q33 0 54 10t33 30t16.5 50 t4.5 70q0 41 -5.5 70t-19.5 49l-112 -277q7 -1 14 -1.5t15 -0.5zM264 407q-64 0 -86.5 -37.5t-22.5 -117.5q0 -42 4.5 -72t17.5 -50l109 275q-5 1 -10.5 1.5t-11.5 0.5z" />
<glyph unicode="&#xf9;" horiz-adv-x="560" d="M382 673l-40 -103l-245 89l42 107zM485 499l1 -499h-114l-1 25q-23 -10 -46 -18q-20 -7 -43 -12.5t-43 -5.5q-54 0 -88 14.5t-52.5 44.5t-25.5 77t-7 113v261h114v-260q0 -40 2 -68t10.5 -45.5t24.5 -25.5t45 -8q17 0 35.5 3t35.5 8q19 5 38 12v384h114z" />
<glyph unicode="&#xfa;" horiz-adv-x="560" d="M485 499l1 -499h-114l-1 25q-23 -10 -46 -18q-20 -7 -43 -12.5t-43 -5.5q-54 0 -88 14.5t-52.5 44.5t-25.5 77t-7 113v261h114v-260q0 -40 2 -68t10.5 -45.5t24.5 -25.5t45 -8q17 0 35.5 3t35.5 8q19 5 38 12v384h114zM369 767l39 -108l-248 -80l-35 95z" />
<glyph unicode="&#xfb;" horiz-adv-x="560" d="M485 499l1 -499h-114l-1 25q-23 -10 -46 -18q-20 -7 -43 -12.5t-43 -5.5q-54 0 -88 14.5t-52.5 44.5t-25.5 77t-7 113v261h114v-260q0 -40 2 -68t10.5 -45.5t24.5 -25.5t45 -8q17 0 35.5 3t35.5 8q19 5 38 12v384h114zM210 748h92l130 -164h-123l-52 69l-53 -69h-123z " />
<glyph unicode="&#xfc;" horiz-adv-x="560" d="M485 499l1 -499h-114l-1 25q-23 -10 -46 -18q-20 -7 -43 -12.5t-43 -5.5q-54 0 -88 14.5t-52.5 44.5t-25.5 77t-7 113v261h114v-260q0 -40 2 -68t10.5 -45.5t24.5 -25.5t45 -8q17 0 35.5 3t35.5 8q19 5 38 12v384h114zM120 730h109v-118h-109v118zM331 730h109v-118h-109 v118z" />
<glyph unicode="&#xfd;" horiz-adv-x="484" d="M124 499l86 -334q15 -47 35 -53l100 387h119l-127 -494q-13 -51 -29 -86t-42 -62.5t-65.5 -50.5t-98.5 -49l-31 105q40 19 65 32.5t40.5 27.5t24.5 32t16 47q-30 5 -60.5 35.5t-42.5 81.5l-99 381h109zM344 767l39 -108l-248 -80l-34 95z" />
<glyph unicode="&#xfe;" horiz-adv-x="538" d="M271 92q40 0 65 9t39.5 28.5t19.5 51t5 75.5q0 83 -23 116t-71 33q-17 0 -35.5 -2.5t-34.5 -4.5q-18 -4 -36 -7v-294q15 -2 28 -3q11 -1 23 -1.5t20 -0.5zM321 511q51 0 88 -13.5t60.5 -44t35 -79t11.5 -118.5q0 -78 -13.5 -129.5t-42.5 -82t-75.5 -43t-113.5 -12.5 q-14 0 -33 1l-38 2v-206h-114v920h114v-222q20 7 41 13q18 5 39 9.5t41 4.5z" />
<glyph unicode="&#xff;" horiz-adv-x="484" d="M124 499l86 -334q15 -47 35 -53l100 387h119l-127 -494q-13 -51 -29 -86t-42 -62.5t-65.5 -50.5t-98.5 -49l-31 105q40 19 65 32.5t40.5 27.5t24.5 32t16 47q-30 5 -60.5 35.5t-42.5 81.5l-99 381h109zM82 730h108v-118h-108v118zM292 730h109v-118h-109v118z" />
<glyph unicode="&#x152;" horiz-adv-x="944" d="M448 0q-29 -5 -64 -8t-63 -3q-80 0 -130.5 22t-80 66.5t-40.5 111.5t-11 156q0 95 13 163t44 111.5t81 63.5t124 20q28 0 62.5 -3t62.5 -8h430v-113h-314v-171h254v-112h-254v-183h314l1 -113h-429zM340 104q8 0 21 0.5t27.5 1.5t29.5 2.5t28 2.5v470q-13 1 -28 2.5 t-30 2.5t-28.5 1.5t-22.5 0.5q-46 0 -76 -11.5t-48 -39.5t-25.5 -75t-7.5 -117q0 -67 6.5 -113t24 -74.5t48.5 -41t81 -12.5z" />
<glyph unicode="&#x153;" horiz-adv-x="876" d="M617 93q30 0 62.5 1t59.5 3q32 2 62 5l2 -89q-33 -7 -68 -12q-30 -5 -66 -8.5t-69 -3.5q-107 0 -156 59q-26 -29 -64.5 -44t-97.5 -15q-65 0 -108 18t-69 52t-37 83t-11 110q0 60 11.5 108t38 81.5t69.5 51.5t106 18q116 0 167 -68q27 35 67 51.5t92 16.5 q107 0 159.5 -55.5t52.5 -172.5l-8 -82h-306q1 -55 25.5 -81.5t85.5 -26.5zM282 92q33 0 54 10t33 30t16.5 50t4.5 70q0 79 -23 117t-85 38q-63 0 -85.5 -37.5t-22.5 -117.5q0 -41 4.5 -71t16.5 -49.5t33 -29.5t54 -10zM707 290q0 66 -22.5 92.5t-76.5 26.5t-78.5 -28.5 t-24.5 -90.5h202z" />
<glyph unicode="&#x178;" horiz-adv-x="565" d="M343 0h-118l-1 296l-212 396h131l139 -265l138 265h131l-209 -397zM121 921h109v-118h-109v118zM338 921h109v-118h-109v118z" />
<glyph unicode="&#x2c6;" horiz-adv-x="257" d="M92 748h92l130 -164h-123l-52 69l-53 -69h-122z" />
<glyph unicode="&#x2dc;" horiz-adv-x="257" d="M316 653q-15 -17 -32 -30q-14 -11 -32 -20t-36 -9q-19 0 -40 7t-41 16t-38 16t-30 7q-10 0 -23 -6.5t-25 -14.5q-14 -9 -29 -20l-25 86q15 17 32 30q14 11 32 20.5t37 9.5q21 0 42.5 -7t41 -15.5t36 -15.5t27.5 -7q9 0 22 6t26 14q14 9 30 20z" />
<glyph unicode="&#x2000;" horiz-adv-x="483" />
<glyph unicode="&#x2001;" horiz-adv-x="967" />
<glyph unicode="&#x2002;" horiz-adv-x="483" />
<glyph unicode="&#x2003;" horiz-adv-x="967" />
<glyph unicode="&#x2004;" horiz-adv-x="322" />
<glyph unicode="&#x2005;" horiz-adv-x="241" />
<glyph unicode="&#x2006;" horiz-adv-x="161" />
<glyph unicode="&#x2007;" horiz-adv-x="161" />
<glyph unicode="&#x2008;" horiz-adv-x="120" />
<glyph unicode="&#x2009;" horiz-adv-x="193" />
<glyph unicode="&#x200a;" horiz-adv-x="53" />
<glyph unicode="&#x2010;" horiz-adv-x="440" d="M67 337h304v-112h-304v112z" />
<glyph unicode="&#x2011;" horiz-adv-x="440" d="M67 337h304v-112h-304v112z" />
<glyph unicode="&#x2012;" horiz-adv-x="440" d="M67 337h304v-112h-304v112z" />
<glyph unicode="&#x2013;" horiz-adv-x="500" d="M499 325v-104h-499v104h499z" />
<glyph unicode="&#x2014;" horiz-adv-x="1000" d="M999 325v-104h-999v104h999z" />
<glyph unicode="&#x2018;" horiz-adv-x="170" d="M106 486h-116l55 238h108z" />
<glyph unicode="&#x2019;" horiz-adv-x="170" d="M61 723h117l-56 -238h-108z" />
<glyph unicode="&#x201a;" horiz-adv-x="213" d="M123 -121h-116l55 238h108z" />
<glyph unicode="&#x201c;" horiz-adv-x="480" d="M368 485h-117l56 238h108zM201 485h-117l56 238h108z" />
<glyph unicode="&#x201d;" horiz-adv-x="482" d="M130 723h117l-56 -238h-108zM297 723h117l-56 -238h-108z" />
<glyph unicode="&#x201e;" horiz-adv-x="432" d="M330 -121h-117l56 238h108zM123 -121h-116l55 238h108z" />
<glyph unicode="&#x2022;" d="M143 384h242v-282h-242v282z" />
<glyph unicode="&#x2026;" horiz-adv-x="744" d="M64 149h123l1 -149h-123zM318 149h124l1 -149h-124zM573 149h123l1 -149h-123z" />
<glyph unicode="&#x202f;" horiz-adv-x="193" />
<glyph unicode="&#x2039;" horiz-adv-x="372" d="M173 246l114 -92v-116l-211 164v84l211 157v-116z" />
<glyph unicode="&#x203a;" horiz-adv-x="372" d="M83 335v116l212 -157v-84l-212 -164v116l114 92z" />
<glyph unicode="&#x205f;" horiz-adv-x="241" />
<glyph unicode="&#x20ac;" horiz-adv-x="580" d="M115 455q7 59 23.5 100.5t45.5 67.5t72 38t103 12q32 0 64 -3t58 -7q30 -4 56 -9l-4 -104q-29 1 -57 3q-24 2 -51.5 3t-49.5 1q-33 0 -56.5 -5t-39.5 -17t-26 -32t-15 -49h229v-89h-237v-74h237v-90h-228q5 -27 15 -45.5t26 -30t40 -16.5t58 -5q20 0 47 1t51 3q28 2 57 4 l3 -106q-29 -5 -59 -9q-26 -3 -57.5 -5.5t-60.5 -2.5q-63 0 -106 12.5t-71.5 38.5t-44 66t-22.5 95h-61v90h55v74h-55v90h61z" />
<glyph unicode="&#x2122;" d="M6 639h200v-69h-49v-238h-77v238h-74v69zM233 639h92l50 -174l53 174h92v-308h-72v191l-45 -172h-51l-47 172v-191h-72v308z" />
<glyph unicode="&#xe000;" horiz-adv-x="500" d="M0 500h500v-500h-500v500z" />
</font>
</defs>
</svg>
