<?xml version="1.0" standalone="no"?>
<!DOCTYPE svg PUBLIC "-//W3C//DTD SVG 1.1//EN" "http://www.w3.org/Graphics/SVG/1.1/DTD/svg11.dtd" >
<svg xmlns="http://www.w3.org/2000/svg">
<metadata></metadata>
<defs>
<font id="bpdotsunicaseverticalbold" horiz-adv-x="600" >
<font-face units-per-em="1000" ascent="800" descent="-200" />
<missing-glyph horiz-adv-x="500" />
<glyph horiz-adv-x="1000" />
<glyph horiz-adv-x="1000" />
<glyph unicode="&#xd;" horiz-adv-x="1000" />
<glyph unicode=" " />
<glyph unicode="!" d="M206 0v97h50v-97h-50zM206 189v286h50v-286h-50z" />
<glyph unicode="&#x22;" d="M186 283v98h50v-98h-50zM280 378v191h50v-191h-50zM375 283v98h50v-98h-50zM469 378v191h50v-191h-50z" />
<glyph unicode="#" d="M17 94v98h50v-98h-50zM17 283v98h50v-98h-50zM111 0v475h50v-475h-50zM206 94v98h50v-98h-50zM206 283v98h50v-98h-50zM300 0v475h50v-475h-50zM395 94v98h50v-98h-50zM395 283v98h50v-98h-50z" />
<glyph unicode="$" d="M17 0v97h50v-97h-50zM17 283v98h50v-98h-50zM111 0v97h50v-97h-50zM111 189v97h50v-97h-50zM111 378v97h50v-97h-50zM206 -94v663h50v-663h-50zM300 0v97h50v-97h-50zM300 189v97h50v-97h-50zM300 378v97h50v-97h-50zM395 94v98h50v-98h-50zM395 378v97h50v-97h-50z" />
<glyph unicode="%" d="M16 0v97h50v-97h-50zM16 283v192h50v-192h-50zM110 94v381h50v-381h-50zM204 0v192h51v-192h-51zM204 283v98h51v-98h-51zM299 0v192h50v-192h-50zM299 378v97h50v-97h-50z" />
<glyph unicode="&#x26;" d="M17 94v98h50v-98h-50zM17 283v98h50v-98h-50zM111 0v97h50v-97h-50zM111 189v97h50v-97h-50zM111 378v97h50v-97h-50zM206 0v97h50v-97h-50zM206 189v97h50v-97h-50zM206 378v97h50v-97h-50zM300 94v192h50v-192h-50zM395 189v97h50v-97h-50z" />
<glyph unicode="'" d="M280 283v98h50v-98h-50zM375 378v191h50v-191h-50z" />
<glyph unicode="(" d="M207 0v475h50v-475h-50zM302 3h50v-97h-50v97zM302 472v97h50v-97h-50z" />
<glyph unicode=")" d="M207 3h50v-97h-50v97zM207 472v97h50v-97h-50zM302 0v475h50v-475h-50z" />
<glyph unicode="*" d="M14 283v98h50v-98h-50zM14 472v97h50v-97h-50zM109 378v97h50v-97h-50zM203 283v98h50v-98h-50zM203 472v97h50v-97h-50z" />
<glyph unicode="+" d="M17 189v97h50v-97h-50zM111 189v97h50v-97h-50zM206 0v475h50v-475h-50zM300 189v97h50v-97h-50zM395 189v97h50v-97h-50z" />
<glyph unicode="," d="M110 3h50v-97h-50v97zM204 0v192h51v-192h-51z" />
<glyph unicode="-" d="M111 189v97h50v-97h-50zM206 189v97h50v-97h-50zM300 189v97h50v-97h-50z" />
<glyph unicode="." d="M206 0v192h50v-192h-50z" />
<glyph unicode="/" d="M113 -94v191h50v-191h-50zM207 94v98h50v-98h-50zM302 189v192h50v-192h-50zM396 378v191h50v-191h-50z" />
<glyph unicode="0" d="M17 94v287h50v-287h-50zM111 0v192h50v-192h-50zM111 378v97h50v-97h-50zM206 0v97h50v-97h-50zM206 189v97h50v-97h-50zM206 378v97h50v-97h-50zM300 0v97h50v-97h-50zM300 283v192h50v-192h-50zM395 94v287h50v-287h-50z" />
<glyph unicode="1" d="M17 0v97h50v-97h-50zM17 378v97h50v-97h-50zM111 0v97h50v-97h-50zM111 378v97h50v-97h-50zM206 0v475h50v-475h-50zM300 0v97h50v-97h-50zM395 0v97h50v-97h-50z" />
<glyph unicode="2" d="M17 0v97h50v-97h-50zM17 283v98h50v-98h-50zM111 0v192h50v-192h-50zM111 378v97h50v-97h-50zM206 0v97h50v-97h-50zM206 189v97h50v-97h-50zM206 378v97h50v-97h-50zM300 0v97h50v-97h-50zM300 189v97h50v-97h-50zM300 378v97h50v-97h-50zM395 0v97h50v-97h-50zM395 283 v98h50v-98h-50z" />
<glyph unicode="3" d="M17 0v97h50v-97h-50zM17 378v97h50v-97h-50zM111 0v97h50v-97h-50zM111 189v97h50v-97h-50zM111 378v97h50v-97h-50zM206 0v97h50v-97h-50zM206 189v97h50v-97h-50zM206 378v97h50v-97h-50zM300 0v97h50v-97h-50zM300 189v97h50v-97h-50zM300 378v97h50v-97h-50zM395 94 v98h50v-98h-50zM395 283v98h50v-98h-50z" />
<glyph unicode="4" d="M17 94v98h50v-98h-50zM111 94v192h50v-192h-50zM206 94v98h50v-98h-50zM206 283v98h50v-98h-50zM300 0v475h50v-475h-50zM395 94v98h50v-98h-50z" />
<glyph unicode="5" d="M17 0v97h50v-97h-50zM17 189v286h50v-286h-50zM111 0v97h50v-97h-50zM111 189v97h50v-97h-50zM111 378v97h50v-97h-50zM206 0v97h50v-97h-50zM206 189v97h50v-97h-50zM206 378v97h50v-97h-50zM300 0v97h50v-97h-50zM300 189v97h50v-97h-50zM300 378v97h50v-97h-50z M395 94v98h50v-98h-50zM395 378v97h50v-97h-50z" />
<glyph unicode="6" d="M17 94v287h50v-287h-50zM111 0v97h50v-97h-50zM111 189v97h50v-97h-50zM111 378v97h50v-97h-50zM206 0v97h50v-97h-50zM206 189v97h50v-97h-50zM206 378v97h50v-97h-50zM300 0v97h50v-97h-50zM300 189v97h50v-97h-50zM300 378v97h50v-97h-50zM395 94v98h50v-98h-50z" />
<glyph unicode="7" d="M17 378v97h50v-97h-50zM111 0v97h50v-97h-50zM111 378v97h50v-97h-50zM206 94v98h50v-98h-50zM206 378v97h50v-97h-50zM300 189v97h50v-97h-50zM300 378v97h50v-97h-50zM395 283v192h50v-192h-50z" />
<glyph unicode="8" d="M17 94v98h50v-98h-50zM17 283v98h50v-98h-50zM111 0v97h50v-97h-50zM111 189v97h50v-97h-50zM111 378v97h50v-97h-50zM206 0v97h50v-97h-50zM206 189v97h50v-97h-50zM206 378v97h50v-97h-50zM300 0v97h50v-97h-50zM300 189v97h50v-97h-50zM300 378v97h50v-97h-50zM395 94 v98h50v-98h-50zM395 283v98h50v-98h-50z" />
<glyph unicode="9" d="M17 283v98h50v-98h-50zM111 0v97h50v-97h-50zM111 189v97h50v-97h-50zM111 378v97h50v-97h-50zM206 0v97h50v-97h-50zM206 189v97h50v-97h-50zM206 378v97h50v-97h-50zM300 0v97h50v-97h-50zM300 189v97h50v-97h-50zM300 378v97h50v-97h-50zM395 94v287h50v-287h-50z" />
<glyph unicode=":" d="M206 0v192h50v-192h-50zM206 283v192h50v-192h-50z" />
<glyph unicode=";" d="M110 3h50v-97h-50v97zM204 0v192h51v-192h-51zM204 283v192h51v-192h-51z" />
<glyph unicode="&#x3c;" d="M111 189v97h50v-97h-50zM206 94v98h50v-98h-50zM206 283v98h50v-98h-50zM300 0v97h50v-97h-50zM300 378v97h50v-97h-50z" />
<glyph unicode="=" d="M17 94v98h50v-98h-50zM17 283v98h50v-98h-50zM111 94v98h50v-98h-50zM111 283v98h50v-98h-50zM206 94v98h50v-98h-50zM206 283v98h50v-98h-50zM300 94v98h50v-98h-50zM300 283v98h50v-98h-50zM395 94v98h50v-98h-50zM395 283v98h50v-98h-50z" />
<glyph unicode="&#x3e;" d="M209 0v97h50v-97h-50zM209 378v97h50v-97h-50zM303 94v98h50v-98h-50zM303 283v98h50v-98h-50zM398 189v97h50v-97h-50z" />
<glyph unicode="?" d="M17 283v98h50v-98h-50zM111 378v97h50v-97h-50zM206 0v97h50v-97h-50zM206 189v97h50v-97h-50zM206 378v97h50v-97h-50zM300 189v97h50v-97h-50zM300 378v97h50v-97h-50zM395 283v98h50v-98h-50z" />
<glyph unicode="@" d="M17 0v475h50v-475h-50zM111 3h50v-97h-50v97zM111 94v192h50v-192h-50zM111 472v97h50v-97h-50zM206 3h50v-97h-50v97zM206 94v98h50v-98h-50zM206 283v98h50v-98h-50zM206 472v97h50v-97h-50zM300 3h50v-97h-50v97zM300 94v287h50v-287h-50zM300 472v97h50v-97h-50z M395 3h50v-97h-50v97zM395 94v381h50v-381h-50z" />
<glyph unicode="A" d="M15 0v387h51v-387h-51zM111 192v99h51v-99h-51zM111 385v99h51v-99h-51zM207 192v99h51v-99h-51zM207 385v99h51v-99h-51zM304 192v99h51v-99h-51zM304 385v99h51v-99h-51zM400 0v387h51v-387h-51z" />
<glyph unicode="B" d="M15 0v484h51v-484h-51zM111 0v99h51v-99h-51zM111 192v99h51v-99h-51zM111 385v99h51v-99h-51zM207 0v99h51v-99h-51zM207 192v99h51v-99h-51zM207 385v99h51v-99h-51zM304 0v99h51v-99h-51zM304 192v99h51v-99h-51zM304 385v99h51v-99h-51zM400 96v99h51v-99h-51z M400 288v99h51v-99h-51z" />
<glyph unicode="C" d="M15 96v291h51v-291h-51zM111 0v99h51v-99h-51zM111 385v99h51v-99h-51zM207 0v99h51v-99h-51zM207 385v99h51v-99h-51zM304 0v99h51v-99h-51zM304 385v99h51v-99h-51zM400 0v99h51v-99h-51zM400 385v99h51v-99h-51z" />
<glyph unicode="D" d="M15 0v484h51v-484h-51zM111 0v99h51v-99h-51zM111 385v99h51v-99h-51zM207 0v99h51v-99h-51zM207 385v99h51v-99h-51zM304 0v99h51v-99h-51zM304 385v99h51v-99h-51zM400 96v291h51v-291h-51z" />
<glyph unicode="E" d="M15 0v484h51v-484h-51zM111 0v99h51v-99h-51zM111 192v99h51v-99h-51zM111 385v99h51v-99h-51zM207 0v99h51v-99h-51zM207 192v99h51v-99h-51zM207 385v99h51v-99h-51zM304 0v99h51v-99h-51zM304 192v99h51v-99h-51zM304 385v99h51v-99h-51zM400 0v99h51v-99h-51z M400 385v99h51v-99h-51z" />
<glyph unicode="F" d="M15 0v484h51v-484h-51zM111 192v99h51v-99h-51zM111 385v99h51v-99h-51zM207 192v99h51v-99h-51zM207 385v99h51v-99h-51zM304 192v99h51v-99h-51zM304 385v99h51v-99h-51zM400 385v99h51v-99h-51z" />
<glyph unicode="G" d="M15 96v291h51v-291h-51zM111 0v99h51v-99h-51zM111 385v99h51v-99h-51zM207 0v99h51v-99h-51zM207 385v99h51v-99h-51zM304 0v99h51v-99h-51zM304 192v99h51v-99h-51zM304 385v99h51v-99h-51zM400 0v291h51v-291h-51zM400 385v99h51v-99h-51z" />
<glyph unicode="H" d="M15 0v484h51v-484h-51zM111 192v99h51v-99h-51zM207 192v99h51v-99h-51zM304 192v99h51v-99h-51zM400 0v484h51v-484h-51z" />
<glyph unicode="I" d="M15 0v99h51v-99h-51zM15 385v99h51v-99h-51zM111 0v99h51v-99h-51zM111 385v99h51v-99h-51zM207 0v484h51v-484h-51zM304 0v99h51v-99h-51zM304 385v99h51v-99h-51zM400 0v99h51v-99h-51zM400 385v99h51v-99h-51z" />
<glyph unicode="J" d="M14 96v99h51v-99h-51zM14 385v99h51v-99h-51zM110 0v99h51v-99h-51zM110 385v99h51v-99h-51zM206 0v99h51v-99h-51zM206 385v99h51v-99h-51zM303 96v388h51v-388h-51z" />
<glyph unicode="K" d="M15 0v484h51v-484h-51zM111 192v99h51v-99h-51zM207 192v99h51v-99h-51zM304 192v99h51v-99h-51zM400 0v195h51v-195h-51zM400 288v196h51v-196h-51z" />
<glyph unicode="L" d="M15 0v484h51v-484h-51zM111 0v99h51v-99h-51zM207 0v99h51v-99h-51zM304 0v99h51v-99h-51zM400 0v99h51v-99h-51z" />
<glyph unicode="M" d="M15 0v484h51v-484h-51zM111 288v99h51v-99h-51zM207 96v195h51v-195h-51zM304 288v99h51v-99h-51zM400 0v484h51v-484h-51z" />
<glyph unicode="N" d="M15 0v484h51v-484h-51zM111 288v99h51v-99h-51zM207 192v99h51v-99h-51zM304 96v99h51v-99h-51zM400 0v484h51v-484h-51z" />
<glyph unicode="O" d="M15 96v291h51v-291h-51zM111 0v99h51v-99h-51zM111 385v99h51v-99h-51zM207 0v99h51v-99h-51zM207 385v99h51v-99h-51zM304 0v99h51v-99h-51zM304 385v99h51v-99h-51zM400 96v291h51v-291h-51z" />
<glyph unicode="P" d="M15 0v484h51v-484h-51zM111 192v99h51v-99h-51zM111 385v99h51v-99h-51zM207 192v99h51v-99h-51zM207 385v99h51v-99h-51zM304 192v99h51v-99h-51zM304 385v99h51v-99h-51zM400 288v99h51v-99h-51z" />
<glyph unicode="Q" d="M15 96v291h51v-291h-51zM111 0v99h51v-99h-51zM111 385v99h51v-99h-51zM207 -96v291h51v-291h-51zM207 385v99h51v-99h-51zM304 0v99h51v-99h-51zM304 -93h51v-99h-51v99zM304 385v99h51v-99h-51zM400 96v291h51v-291h-51z" />
<glyph unicode="R" d="M15 0v484h51v-484h-51zM111 192v99h51v-99h-51zM111 385v99h51v-99h-51zM207 192v99h51v-99h-51zM207 385v99h51v-99h-51zM304 96v195h51v-195h-51zM304 385v99h51v-99h-51zM400 0v99h51v-99h-51zM400 288v99h51v-99h-51z" />
<glyph unicode="S" d="M15 0v99h51v-99h-51zM15 288v99h51v-99h-51zM111 0v99h51v-99h-51zM111 192v99h51v-99h-51zM111 385v99h51v-99h-51zM207 0v99h51v-99h-51zM207 192v99h51v-99h-51zM207 385v99h51v-99h-51zM304 0v99h51v-99h-51zM304 192v99h51v-99h-51zM304 385v99h51v-99h-51zM400 96 v99h51v-99h-51zM400 385v99h51v-99h-51z" />
<glyph unicode="T" d="M15 385v99h51v-99h-51zM111 385v99h51v-99h-51zM207 0v484h51v-484h-51zM304 385v99h51v-99h-51zM400 385v99h51v-99h-51z" />
<glyph unicode="U" d="M15 96v388h51v-388h-51zM111 0v99h51v-99h-51zM207 0v99h51v-99h-51zM304 0v99h51v-99h-51zM400 96v388h51v-388h-51z" />
<glyph unicode="V" d="M15 192v292h51v-292h-51zM111 96v99h51v-99h-51zM207 0v99h51v-99h-51zM304 96v99h51v-99h-51zM400 192v292h51v-292h-51z" />
<glyph unicode="W" d="M15 96v388h51v-388h-51zM111 0v99h51v-99h-51zM207 96v291h51v-291h-51zM304 0v99h51v-99h-51zM400 96v388h51v-388h-51z" />
<glyph unicode="X" d="M15 0v195h51v-195h-51zM15 288v196h51v-196h-51zM111 192v99h51v-99h-51zM207 192v99h51v-99h-51zM304 192v99h51v-99h-51zM400 0v195h51v-195h-51zM400 288v196h51v-196h-51z" />
<glyph unicode="Y" d="M15 288v196h51v-196h-51zM111 192v99h51v-99h-51zM207 0v195h51v-195h-51zM304 192v99h51v-99h-51zM400 288v196h51v-196h-51z" />
<glyph unicode="Z" d="M15 0v99h51v-99h-51zM15 385v99h51v-99h-51zM111 0v195h51v-195h-51zM111 385v99h51v-99h-51zM207 0v99h51v-99h-51zM207 192v99h51v-99h-51zM207 385v99h51v-99h-51zM304 0v99h51v-99h-51zM304 288v196h51v-196h-51zM400 0v99h51v-99h-51zM400 385v99h51v-99h-51z" />
<glyph unicode="[" d="M207 -94v663h50v-663h-50zM302 3h50v-97h-50v97zM302 472v97h50v-97h-50z" />
<glyph unicode="\" d="M113 378v191h50v-191h-50zM207 189v192h50v-192h-50zM302 94v98h50v-98h-50zM396 -94v191h50v-191h-50z" />
<glyph unicode="]" d="M207 3h50v-97h-50v97zM207 472v97h50v-97h-50zM302 -94v663h50v-663h-50z" />
<glyph unicode="^" d="M111 567v97h50v-97h-50zM206 661v97h50v-97h-50zM300 567v97h50v-97h-50z" />
<glyph unicode="_" d="M17 0v97h50v-97h-50zM111 0v97h50v-97h-50zM206 0v97h50v-97h-50zM300 0v97h50v-97h-50zM395 0v97h50v-97h-50z" />
<glyph unicode="`" d="M14 661v97h50v-97h-50zM109 567v97h50v-97h-50zM203 567v97h50v-97h-50z" />
<glyph unicode="a" d="M17 94v98h50v-98h-50zM111 0v97h50v-97h-50zM111 189v97h50v-97h-50zM111 378v97h50v-97h-50zM206 0v97h50v-97h-50zM206 189v97h50v-97h-50zM206 378v97h50v-97h-50zM300 0v97h50v-97h-50zM300 189v97h50v-97h-50zM300 378v97h50v-97h-50zM395 0v381h50v-381h-50z" />
<glyph unicode="b" d="M17 0v475h50v-475h-50zM111 0v97h50v-97h-50zM111 189v97h50v-97h-50zM111 378v97h50v-97h-50zM206 0v97h50v-97h-50zM206 189v97h50v-97h-50zM206 378v97h50v-97h-50zM300 0v97h50v-97h-50zM300 189v97h50v-97h-50zM300 378v97h50v-97h-50zM395 94v98h50v-98h-50z M395 283v98h50v-98h-50z" />
<glyph unicode="c" d="M17 94v287h50v-287h-50zM111 0v97h50v-97h-50zM111 378v97h50v-97h-50zM206 0v97h50v-97h-50zM206 378v97h50v-97h-50zM300 0v97h50v-97h-50zM300 378v97h50v-97h-50zM395 94v98h50v-98h-50zM395 283v98h50v-98h-50z" />
<glyph unicode="d" d="M17 0v475h50v-475h-50zM111 0v97h50v-97h-50zM111 378v97h50v-97h-50zM206 0v97h50v-97h-50zM206 378v97h50v-97h-50zM300 0v97h50v-97h-50zM300 378v97h50v-97h-50zM395 94v287h50v-287h-50z" />
<glyph unicode="e" d="M17 94v287h50v-287h-50zM111 0v97h50v-97h-50zM111 189v97h50v-97h-50zM111 378v97h50v-97h-50zM206 0v97h50v-97h-50zM206 189v97h50v-97h-50zM206 378v97h50v-97h-50zM300 0v97h50v-97h-50zM300 189v97h50v-97h-50zM300 378v97h50v-97h-50zM395 0v97h50v-97h-50z M395 189v192h50v-192h-50z" />
<glyph unicode="f" d="M17 0v475h50v-475h-50zM111 189v97h50v-97h-50zM111 378v97h50v-97h-50zM206 189v97h50v-97h-50zM206 378v97h50v-97h-50zM300 189v97h50v-97h-50zM300 378v97h50v-97h-50zM395 378v97h50v-97h-50z" />
<glyph unicode="g" d="M17 94v287h50v-287h-50zM111 0v97h50v-97h-50zM111 378v97h50v-97h-50zM206 0v97h50v-97h-50zM206 378v97h50v-97h-50zM300 0v97h50v-97h-50zM300 189v97h50v-97h-50zM300 378v97h50v-97h-50zM395 0v286h50v-286h-50zM395 378v97h50v-97h-50z" />
<glyph unicode="h" d="M17 0v475h50v-475h-50zM111 189v97h50v-97h-50zM206 189v97h50v-97h-50zM300 189v97h50v-97h-50zM395 0v475h50v-475h-50z" />
<glyph unicode="i" d="M17 0v97h50v-97h-50zM17 378v97h50v-97h-50zM111 0v97h50v-97h-50zM111 378v97h50v-97h-50zM206 0v475h50v-475h-50zM206 567v97h50v-97h-50zM300 0v97h50v-97h-50zM395 0v97h50v-97h-50z" />
<glyph unicode="j" d="M113 94v98h50v-98h-50zM113 378v97h50v-97h-50zM207 0v97h50v-97h-50zM207 378v97h50v-97h-50zM302 0v97h50v-97h-50zM302 378v97h50v-97h-50zM396 94v381h50v-381h-50z" />
<glyph unicode="k" d="M17 0v475h50v-475h-50zM111 189v97h50v-97h-50zM206 189v97h50v-97h-50zM300 189v97h50v-97h-50zM395 0v192h50v-192h-50zM395 283v192h50v-192h-50z" />
<glyph unicode="l" d="M17 0v475h50v-475h-50zM111 0v97h50v-97h-50zM206 0v97h50v-97h-50zM300 0v97h50v-97h-50zM395 0v97h50v-97h-50z" />
<glyph unicode="m" d="M17 0v475h50v-475h-50zM111 283v98h50v-98h-50zM206 0v475h50v-475h-50zM300 283v98h50v-98h-50zM395 0v475h50v-475h-50z" />
<glyph unicode="n" d="M17 0v475h50v-475h-50zM111 283v98h50v-98h-50zM206 378v97h50v-97h-50zM300 378v97h50v-97h-50zM395 0v381h50v-381h-50z" />
<glyph unicode="o" d="M17 94v287h50v-287h-50zM111 0v97h50v-97h-50zM111 378v97h50v-97h-50zM206 0v97h50v-97h-50zM206 378v97h50v-97h-50zM300 0v97h50v-97h-50zM300 378v97h50v-97h-50zM395 94v287h50v-287h-50z" />
<glyph unicode="p" d="M17 0v475h50v-475h-50zM111 189v97h50v-97h-50zM111 378v97h50v-97h-50zM206 189v97h50v-97h-50zM206 378v97h50v-97h-50zM300 189v97h50v-97h-50zM300 378v97h50v-97h-50zM395 283v98h50v-98h-50z" />
<glyph unicode="q" d="M17 94v287h50v-287h-50zM111 0v97h50v-97h-50zM111 378v97h50v-97h-50zM206 -94v286h50v-286h-50zM206 378v97h50v-97h-50zM300 0v97h50v-97h-50zM300 -92h50v-97h-50v97zM300 378v97h50v-97h-50zM395 94v287h50v-287h-50z" />
<glyph unicode="r" d="M17 0v97h50v-97h-50zM17 378v97h50v-97h-50zM111 0v475h50v-475h-50zM206 0v97h50v-97h-50zM206 283v98h50v-98h-50zM300 0v97h50v-97h-50zM300 378v97h50v-97h-50zM395 378v97h50v-97h-50z" />
<glyph unicode="s" d="M17 0v97h50v-97h-50zM17 283v98h50v-98h-50zM111 0v97h50v-97h-50zM111 189v97h50v-97h-50zM111 378v97h50v-97h-50zM206 0v97h50v-97h-50zM206 189v97h50v-97h-50zM206 378v97h50v-97h-50zM300 0v97h50v-97h-50zM300 189v97h50v-97h-50zM300 378v97h50v-97h-50zM395 94 v98h50v-98h-50zM395 378v97h50v-97h-50z" />
<glyph unicode="t" d="M17 378v97h50v-97h-50zM111 378v97h50v-97h-50zM206 0v475h50v-475h-50zM300 378v97h50v-97h-50zM395 378v97h50v-97h-50z" />
<glyph unicode="u" d="M17 94v381h50v-381h-50zM111 0v97h50v-97h-50zM206 0v97h50v-97h-50zM300 94v98h50v-98h-50zM395 0v475h50v-475h-50z" />
<glyph unicode="v" d="M17 283v192h50v-192h-50zM111 94v192h50v-192h-50zM206 0v97h50v-97h-50zM300 94v192h50v-192h-50zM395 283v192h50v-192h-50z" />
<glyph unicode="w" d="M17 189v286h50v-286h-50zM111 0v192h50v-192h-50zM206 189v192h50v-192h-50zM300 0v192h50v-192h-50zM395 189v286h50v-286h-50z" />
<glyph unicode="x" d="M17 0v192h50v-192h-50zM17 283v192h50v-192h-50zM111 189v97h50v-97h-50zM206 189v97h50v-97h-50zM300 189v97h50v-97h-50zM395 0v192h50v-192h-50zM395 283v192h50v-192h-50z" />
<glyph unicode="y" d="M17 283v192h50v-192h-50zM111 189v97h50v-97h-50zM206 0v192h50v-192h-50zM300 189v97h50v-97h-50zM395 283v192h50v-192h-50z" />
<glyph unicode="z" d="M17 0v97h50v-97h-50zM17 378v97h50v-97h-50zM111 0v192h50v-192h-50zM111 378v97h50v-97h-50zM206 0v97h50v-97h-50zM206 189v97h50v-97h-50zM206 378v97h50v-97h-50zM300 0v97h50v-97h-50zM300 283v192h50v-192h-50zM395 0v97h50v-97h-50zM395 378v97h50v-97h-50z" />
<glyph unicode="{" d="M111 189v97h50v-97h-50zM206 0v192h50v-192h-50zM206 283v192h50v-192h-50zM300 3h50v-97h-50v97zM300 472v97h50v-97h-50z" />
<glyph unicode="|" d="M206 -94v663h50v-663h-50z" />
<glyph unicode="}" d="M111 3h50v-97h-50v97zM111 472v97h50v-97h-50zM206 0v192h50v-192h-50zM206 283v192h50v-192h-50zM300 189v97h50v-97h-50z" />
<glyph unicode="~" d="M17 283v98h50v-98h-50zM111 378v97h50v-97h-50zM206 283v98h50v-98h-50zM300 189v97h50v-97h-50zM395 283v98h50v-98h-50z" />
<glyph unicode="&#xa0;" />
<glyph unicode="&#xa1;" d="M206 1v286h50v-286h-50zM206 379v97h50v-97h-50z" />
<glyph unicode="&#xa2;" d="M17 94v287h50v-287h-50zM111 0v97h50v-97h-50zM111 378v97h50v-97h-50zM206 -94v663h50v-663h-50zM300 0v97h50v-97h-50zM300 378v97h50v-97h-50zM395 94v98h50v-98h-50zM395 283v98h50v-98h-50z" />
<glyph unicode="&#xa3;" d="M17 0v97h50v-97h-50zM17 189v97h50v-97h-50zM111 0v381h50v-381h-50zM206 0v97h50v-97h-50zM206 189v97h50v-97h-50zM206 378v97h50v-97h-50zM300 0v97h50v-97h-50zM300 189v97h50v-97h-50zM300 378v97h50v-97h-50zM395 0v97h50v-97h-50z" />
<glyph unicode="&#xa4;" d="M17 0v97h50v-97h-50zM17 378v97h50v-97h-50zM111 94v287h50v-287h-50zM206 94v98h50v-98h-50zM206 283v98h50v-98h-50zM300 94v287h50v-287h-50zM395 0v97h50v-97h-50zM395 378v97h50v-97h-50z" />
<glyph unicode="&#xa5;" d="M17 94v98h50v-98h-50zM17 378v97h50v-97h-50zM111 94v98h50v-98h-50zM111 283v98h50v-98h-50zM206 0v286h50v-286h-50zM300 94v98h50v-98h-50zM300 283v98h50v-98h-50zM395 94v98h50v-98h-50zM395 378v97h50v-97h-50z" />
<glyph unicode="&#xa6;" d="M206 0v192h50v-192h-50zM206 283v192h50v-192h-50z" />
<glyph unicode="&#xa7;" d="M113 0v97h50v-97h-50zM113 283v98h50v-98h-50zM113 472v97h50v-97h-50zM207 0v97h50v-97h-50zM207 189v97h50v-97h-50zM207 378v97h50v-97h-50zM207 567v97h50v-97h-50zM302 0v97h50v-97h-50zM302 189v97h50v-97h-50zM302 378v97h50v-97h-50zM302 567v97h50v-97h-50z M396 94v98h50v-98h-50zM396 283v98h50v-98h-50zM396 567v97h50v-97h-50z" />
<glyph unicode="&#xa8;" d="M17 567v191h50v-191h-50zM395 567v191h50v-191h-50z" />
<glyph unicode="&#xa9;" d="M17 94v287h50v-287h-50zM111 0v97h50v-97h-50zM111 189v97h50v-97h-50zM111 378v97h50v-97h-50zM206 0v192h50v-192h-50zM206 283v192h50v-192h-50zM300 0v97h50v-97h-50zM300 378v97h50v-97h-50zM395 94v287h50v-287h-50z" />
<glyph unicode="&#xaa;" d="M14 283v98h50v-98h-50zM109 189v192h50v-192h-50zM109 472v97h50v-97h-50zM203 189v286h50v-286h-50z" />
<glyph unicode="&#xab;" d="M17 189v97h50v-97h-50zM111 94v98h50v-98h-50zM111 283v98h50v-98h-50zM206 0v97h50v-97h-50zM206 189v97h50v-97h-50zM206 378v97h50v-97h-50zM300 94v98h50v-98h-50zM300 283v98h50v-98h-50zM395 0v97h50v-97h-50zM395 378v97h50v-97h-50z" />
<glyph unicode="&#xac;" d="M17 189v97h50v-97h-50zM111 189v97h50v-97h-50zM206 189v97h50v-97h-50zM300 189v97h50v-97h-50zM395 0v286h50v-286h-50z" />
<glyph unicode="&#xad;" d="M111 189v97h50v-97h-50zM206 189v97h50v-97h-50zM300 189v97h50v-97h-50z" />
<glyph unicode="&#xae;" d="M17 189v286h50v-286h-50zM111 94v98h50v-98h-50zM111 472v97h50v-97h-50zM206 94v98h50v-98h-50zM206 283v286h50v-286h-50zM300 94v192h50v-192h-50zM300 378v191h50v-191h-50zM395 189v286h50v-286h-50z" />
<glyph unicode="&#xaf;" d="M111 567v97h50v-97h-50zM206 567v97h50v-97h-50zM300 567v97h50v-97h-50z" />
<glyph unicode="&#xb0;" d="M14 378v97h50v-97h-50zM109 283v98h50v-98h-50zM109 472v97h50v-97h-50zM203 378v97h50v-97h-50z" />
<glyph unicode="&#xb1;" d="M17 0v97h50v-97h-50zM17 283v98h50v-98h-50zM111 0v97h50v-97h-50zM111 283v98h50v-98h-50zM206 0v97h50v-97h-50zM206 189v286h50v-286h-50zM300 0v97h50v-97h-50zM300 283v98h50v-98h-50zM395 0v97h50v-97h-50zM395 283v98h50v-98h-50z" />
<glyph unicode="&#xb2;" d="M13 189v192h50v-192h-50zM13 472v97h50v-97h-50zM107 189v97h50v-97h-50zM107 378v97h50v-97h-50z" />
<glyph unicode="&#xb3;" d="M13 189v97h50v-97h-50zM13 472v97h50v-97h-50zM107 189v286h50v-286h-50z" />
<glyph unicode="&#xb4;" d="M111 567v97h50v-97h-50zM206 567v97h50v-97h-50zM300 661v97h50v-97h-50z" />
<glyph unicode="&#xb5;" d="M17 0v475h50v-475h-50zM111 283v98h50v-98h-50zM206 94v192h50v-192h-50zM300 283v98h50v-98h-50zM395 0v475h50v-475h-50z" />
<glyph unicode="&#xb6;" d="M17 283v98h50v-98h-50zM111 189v286h50v-286h-50zM206 0v475h50v-475h-50zM395 0v475h50v-475h-50z" />
<glyph unicode="&#xb7;" d="M109 189v192h50v-192h-50z" />
<glyph unicode="&#xb8;" d="M110 -92h50v-97h-50v97zM204 3h51v-97h-51v97z" />
<glyph unicode="&#xb9;" d="M14 189v97h50v-97h-50zM14 472v97h50v-97h-50zM109 189v380h50v-380h-50zM203 189v97h50v-97h-50z" />
<glyph unicode="&#xba;" d="M14 378v97h50v-97h-50zM109 283v98h50v-98h-50zM109 472v97h50v-97h-50zM203 378v97h50v-97h-50z" />
<glyph unicode="&#xbb;" d="M17 0v97h50v-97h-50zM17 378v97h50v-97h-50zM111 94v98h50v-98h-50zM111 283v98h50v-98h-50zM206 0v97h50v-97h-50zM206 189v97h50v-97h-50zM206 378v97h50v-97h-50zM300 94v98h50v-98h-50zM300 283v98h50v-98h-50zM395 189v97h50v-97h-50z" />
<glyph unicode="&#xbc;" d="M18 378v97h50v-97h-50zM113 0v97h50v-97h-50zM113 189v286h50v-286h-50zM207 94v192h50v-192h-50zM302 283v192h50v-192h-50zM396 189v97h50v-97h-50zM491 0v381h50v-381h-50z" />
<glyph unicode="&#xbd;" d="M18 378v97h50v-97h-50zM113 0v97h50v-97h-50zM113 189v286h50v-286h-50zM207 94v192h50v-192h-50zM302 283v192h50v-192h-50zM396 0v192h50v-192h-50zM396 283v98h50v-98h-50zM491 0v97h50v-97h-50zM491 189v97h50v-97h-50z" />
<glyph unicode="&#xbe;" d="M18 94v98h50v-98h-50zM18 378v97h50v-97h-50zM113 0v97h50v-97h-50zM113 189v192h50v-192h-50zM207 94v192h50v-192h-50zM302 283v192h50v-192h-50zM396 189v97h50v-97h-50zM491 0v381h50v-381h-50z" />
<glyph unicode="&#xbf;" d="M90 95v98h50v-98h-50zM184 1v97h50v-97h-50zM184 190v97h50v-97h-50zM279 1v97h50v-97h-50zM279 190v97h50v-97h-50zM279 379v97h50v-97h-50zM373 1v97h50v-97h-50zM468 95v98h50v-98h-50z" />
<glyph unicode="&#xc0;" d="M15 0v387h51v-387h-51zM111 192v99h51v-99h-51zM111 385v99h51v-99h-51zM111 673v99h51v-99h-51zM207 192v99h51v-99h-51zM207 385v99h51v-99h-51zM207 577v99h51v-99h-51zM304 192v99h51v-99h-51zM304 385v99h51v-99h-51zM304 577v99h51v-99h-51zM400 0v387h51v-387h-51 z" />
<glyph unicode="&#xc1;" d="M15 0v387h51v-387h-51zM111 192v99h51v-99h-51zM111 385v99h51v-99h-51zM111 577v99h51v-99h-51zM207 192v99h51v-99h-51zM207 385v99h51v-99h-51zM207 577v99h51v-99h-51zM304 192v99h51v-99h-51zM304 385v99h51v-99h-51zM304 673v99h51v-99h-51zM400 0v387h51v-387h-51 z" />
<glyph unicode="&#xc2;" d="M15 0v387h51v-387h-51zM111 192v99h51v-99h-51zM111 385v99h51v-99h-51zM111 577v99h51v-99h-51zM207 192v99h51v-99h-51zM207 385v99h51v-99h-51zM207 673v99h51v-99h-51zM304 192v99h51v-99h-51zM304 385v99h51v-99h-51zM304 577v99h51v-99h-51zM400 0v387h51v-387h-51 z" />
<glyph unicode="&#xc3;" d="M15 0v387h51v-387h-51zM15 577v99h51v-99h-51zM111 192v99h51v-99h-51zM111 385v99h51v-99h-51zM111 673v99h51v-99h-51zM207 192v99h51v-99h-51zM207 385v99h51v-99h-51zM207 577v99h51v-99h-51zM304 192v99h51v-99h-51zM304 385v99h51v-99h-51zM304 577v99h51v-99h-51z M400 0v387h51v-387h-51zM400 673v99h51v-99h-51z" />
<glyph unicode="&#xc4;" d="M15 0v387h51v-387h-51zM15 577v195h51v-195h-51zM111 192v99h51v-99h-51zM111 385v99h51v-99h-51zM207 192v99h51v-99h-51zM207 385v99h51v-99h-51zM304 192v99h51v-99h-51zM304 385v99h51v-99h-51zM400 0v387h51v-387h-51zM400 577v195h51v-195h-51z" />
<glyph unicode="&#xc5;" d="M15 0v387h51v-387h-51zM111 192v99h51v-99h-51zM111 385v99h51v-99h-51zM111 673v99h51v-99h-51zM207 192v99h51v-99h-51zM207 385v99h51v-99h-51zM207 577v99h51v-99h-51zM207 769v99h51v-99h-51zM304 192v99h51v-99h-51zM304 385v99h51v-99h-51zM304 673v99h51v-99h-51 zM400 0v387h51v-387h-51z" />
<glyph unicode="&#xc6;" d="M15 0v387h51v-387h-51zM111 96v99h51v-99h-51zM111 385v99h51v-99h-51zM207 0v484h51v-484h-51zM304 0v99h51v-99h-51zM304 192v99h51v-99h-51zM304 385v99h51v-99h-51zM400 0v99h51v-99h-51zM400 385v99h51v-99h-51z" />
<glyph unicode="&#xc7;" d="M15 96v291h51v-291h-51zM111 0v99h51v-99h-51zM111 -93h51v-99h-51v99zM111 385v99h51v-99h-51zM207 -96v195h51v-195h-51zM207 385v99h51v-99h-51zM304 0v99h51v-99h-51zM304 385v99h51v-99h-51zM400 0v99h51v-99h-51zM400 385v99h51v-99h-51z" />
<glyph unicode="&#xc8;" d="M15 0v484h51v-484h-51zM111 0v99h51v-99h-51zM111 192v99h51v-99h-51zM111 385v99h51v-99h-51zM111 673v99h51v-99h-51zM207 0v99h51v-99h-51zM207 192v99h51v-99h-51zM207 385v99h51v-99h-51zM207 577v99h51v-99h-51zM304 0v99h51v-99h-51zM304 192v99h51v-99h-51z M304 385v99h51v-99h-51zM304 577v99h51v-99h-51zM400 0v99h51v-99h-51zM400 385v99h51v-99h-51z" />
<glyph unicode="&#xc9;" d="M15 0v484h51v-484h-51zM111 0v99h51v-99h-51zM111 192v99h51v-99h-51zM111 385v99h51v-99h-51zM111 577v99h51v-99h-51zM207 0v99h51v-99h-51zM207 192v99h51v-99h-51zM207 385v99h51v-99h-51zM207 577v99h51v-99h-51zM304 0v99h51v-99h-51zM304 192v99h51v-99h-51z M304 385v99h51v-99h-51zM304 673v99h51v-99h-51zM400 0v99h51v-99h-51zM400 385v99h51v-99h-51z" />
<glyph unicode="&#xca;" d="M15 0v484h51v-484h-51zM111 0v99h51v-99h-51zM111 192v99h51v-99h-51zM111 385v99h51v-99h-51zM111 577v99h51v-99h-51zM207 0v99h51v-99h-51zM207 192v99h51v-99h-51zM207 385v99h51v-99h-51zM207 673v99h51v-99h-51zM304 0v99h51v-99h-51zM304 192v99h51v-99h-51z M304 385v99h51v-99h-51zM304 577v99h51v-99h-51zM400 0v99h51v-99h-51zM400 385v99h51v-99h-51z" />
<glyph unicode="&#xcb;" d="M15 0v484h51v-484h-51zM15 577v195h51v-195h-51zM111 0v99h51v-99h-51zM111 192v99h51v-99h-51zM111 385v99h51v-99h-51zM207 0v99h51v-99h-51zM207 192v99h51v-99h-51zM207 385v99h51v-99h-51zM304 0v99h51v-99h-51zM304 192v99h51v-99h-51zM304 385v99h51v-99h-51z M400 0v99h51v-99h-51zM400 385v99h51v-99h-51zM400 577v195h51v-195h-51z" />
<glyph unicode="&#xcc;" d="M15 0v99h51v-99h-51zM15 385v99h51v-99h-51zM111 0v99h51v-99h-51zM111 385v99h51v-99h-51zM111 673v99h51v-99h-51zM207 0v484h51v-484h-51zM207 577v99h51v-99h-51zM304 0v99h51v-99h-51zM304 385v99h51v-99h-51zM304 577v99h51v-99h-51zM400 0v99h51v-99h-51zM400 385 v99h51v-99h-51z" />
<glyph unicode="&#xcd;" d="M15 0v99h51v-99h-51zM15 385v99h51v-99h-51zM111 0v99h51v-99h-51zM111 385v99h51v-99h-51zM111 577v99h51v-99h-51zM207 0v484h51v-484h-51zM207 577v99h51v-99h-51zM304 0v99h51v-99h-51zM304 385v99h51v-99h-51zM304 673v99h51v-99h-51zM400 0v99h51v-99h-51zM400 385 v99h51v-99h-51z" />
<glyph unicode="&#xce;" d="M15 0v99h51v-99h-51zM15 385v99h51v-99h-51zM111 0v99h51v-99h-51zM111 385v99h51v-99h-51zM111 577v99h51v-99h-51zM207 0v484h51v-484h-51zM207 673v99h51v-99h-51zM304 0v99h51v-99h-51zM304 385v99h51v-99h-51zM304 577v99h51v-99h-51zM400 0v99h51v-99h-51zM400 385 v99h51v-99h-51z" />
<glyph unicode="&#xcf;" d="M15 0v99h51v-99h-51zM15 385v99h51v-99h-51zM15 577v195h51v-195h-51zM111 0v99h51v-99h-51zM111 385v99h51v-99h-51zM207 0v484h51v-484h-51zM304 0v99h51v-99h-51zM304 385v99h51v-99h-51zM400 0v99h51v-99h-51zM400 385v99h51v-99h-51zM400 577v195h51v-195h-51z" />
<glyph unicode="&#xd0;" d="M15 192v99h51v-99h-51zM111 0v484h51v-484h-51zM207 0v99h51v-99h-51zM207 192v99h51v-99h-51zM207 385v99h51v-99h-51zM304 0v99h51v-99h-51zM304 385v99h51v-99h-51zM400 96v291h51v-291h-51z" />
<glyph unicode="&#xd1;" d="M15 0v484h51v-484h-51zM15 577v99h51v-99h-51zM111 288v99h51v-99h-51zM111 673v99h51v-99h-51zM207 192v99h51v-99h-51zM207 577v99h51v-99h-51zM304 96v99h51v-99h-51zM304 577v99h51v-99h-51zM400 0v484h51v-484h-51zM400 673v99h51v-99h-51z" />
<glyph unicode="&#xd2;" d="M15 96v291h51v-291h-51zM111 0v99h51v-99h-51zM111 385v99h51v-99h-51zM111 673v99h51v-99h-51zM207 0v99h51v-99h-51zM207 385v99h51v-99h-51zM207 577v99h51v-99h-51zM304 0v99h51v-99h-51zM304 385v99h51v-99h-51zM304 577v99h51v-99h-51zM400 96v291h51v-291h-51z " />
<glyph unicode="&#xd3;" d="M15 96v291h51v-291h-51zM111 0v99h51v-99h-51zM111 385v99h51v-99h-51zM111 577v99h51v-99h-51zM207 0v99h51v-99h-51zM207 385v99h51v-99h-51zM207 577v99h51v-99h-51zM304 0v99h51v-99h-51zM304 385v99h51v-99h-51zM304 673v99h51v-99h-51zM400 96v291h51v-291h-51z " />
<glyph unicode="&#xd4;" d="M15 96v291h51v-291h-51zM111 0v99h51v-99h-51zM111 385v99h51v-99h-51zM111 577v99h51v-99h-51zM207 0v99h51v-99h-51zM207 385v99h51v-99h-51zM207 673v99h51v-99h-51zM304 0v99h51v-99h-51zM304 385v99h51v-99h-51zM304 577v99h51v-99h-51zM400 96v291h51v-291h-51z " />
<glyph unicode="&#xd5;" d="M15 96v291h51v-291h-51zM15 577v99h51v-99h-51zM111 0v99h51v-99h-51zM111 385v99h51v-99h-51zM111 673v99h51v-99h-51zM207 0v99h51v-99h-51zM207 385v99h51v-99h-51zM207 577v99h51v-99h-51zM304 0v99h51v-99h-51zM304 385v99h51v-99h-51zM304 577v99h51v-99h-51z M400 96v291h51v-291h-51zM400 673v99h51v-99h-51z" />
<glyph unicode="&#xd6;" d="M15 96v291h51v-291h-51zM15 577v195h51v-195h-51zM111 0v99h51v-99h-51zM111 385v99h51v-99h-51zM207 0v99h51v-99h-51zM207 385v99h51v-99h-51zM304 0v99h51v-99h-51zM304 385v99h51v-99h-51zM400 96v291h51v-291h-51zM400 577v195h51v-195h-51z" />
<glyph unicode="&#xd7;" d="M17 0v97h50v-97h-50zM17 378v97h50v-97h-50zM111 94v98h50v-98h-50zM111 283v98h50v-98h-50zM206 189v97h50v-97h-50zM300 94v98h50v-98h-50zM300 283v98h50v-98h-50zM395 0v97h50v-97h-50zM395 378v97h50v-97h-50z" />
<glyph unicode="&#xd8;" d="M15 96v291h51v-291h-51zM111 0v99h2v96h51v-99h-2v-96h-51zM111 385v99h48v24h24v24h53v-24h24v-51h-24v-24h-53v24h-21v-72h-51zM207 0v99h51v-99h-51zM209 192v195h51v-195h-51zM304 0v99h51v-99h-51zM304 385v99h2v96h50v-99h-1v-96h-51zM400 96v291h51v-291h-51z" />
<glyph unicode="&#xd9;" d="M15 96v388h51v-388h-51zM111 0v99h51v-99h-51zM111 673v99h51v-99h-51zM207 0v99h51v-99h-51zM207 577v99h51v-99h-51zM304 0v99h51v-99h-51zM304 577v99h51v-99h-51zM400 96v388h51v-388h-51z" />
<glyph unicode="&#xda;" d="M15 96v388h51v-388h-51zM111 0v99h51v-99h-51zM111 577v99h51v-99h-51zM207 0v99h51v-99h-51zM207 577v99h51v-99h-51zM304 0v99h51v-99h-51zM304 673v99h51v-99h-51zM400 96v388h51v-388h-51z" />
<glyph unicode="&#xdb;" d="M15 96v388h51v-388h-51zM111 0v99h51v-99h-51zM111 577v99h51v-99h-51zM207 0v99h51v-99h-51zM207 673v99h51v-99h-51zM304 0v99h51v-99h-51zM304 577v99h51v-99h-51zM400 96v388h51v-388h-51z" />
<glyph unicode="&#xdc;" d="M15 96v388h51v-388h-51zM15 577v195h51v-195h-51zM111 0v99h51v-99h-51zM207 0v99h51v-99h-51zM304 0v99h51v-99h-51zM400 96v388h51v-388h-51zM400 577v195h51v-195h-51z" />
<glyph unicode="&#xdd;" d="M15 288v196h51v-196h-51zM111 192v99h51v-99h-51zM111 577v99h51v-99h-51zM207 0v195h51v-195h-51zM207 577v99h51v-99h-51zM304 192v99h51v-99h-51zM304 673v99h51v-99h-51zM400 288v196h51v-196h-51z" />
<glyph unicode="&#xde;" d="M15 0v484h51v-484h-51zM111 96v99h51v-99h-51zM111 288v99h51v-99h-51zM207 96v99h51v-99h-51zM207 288v99h51v-99h-51zM304 96v99h51v-99h-51zM304 288v99h51v-99h-51zM400 192v99h51v-99h-51z" />
<glyph unicode="&#xdf;" d="M16 0v381h50v-381h-50zM110 378v97h50v-97h-50zM204 0v97h51v-97h-51zM204 189v97h51v-97h-51zM204 378v97h51v-97h-51zM299 94v98h50v-98h-50zM299 283v98h50v-98h-50z" />
<glyph unicode="&#xe0;" d="M17 94v98h50v-98h-50zM111 0v97h50v-97h-50zM111 189v97h50v-97h-50zM111 378v97h50v-97h-50zM111 661v97h50v-97h-50zM206 0v97h50v-97h-50zM206 189v97h50v-97h-50zM206 378v97h50v-97h-50zM206 567v97h50v-97h-50zM300 0v97h50v-97h-50zM300 189v97h50v-97h-50z M300 378v97h50v-97h-50zM300 567v97h50v-97h-50zM395 0v381h50v-381h-50z" />
<glyph unicode="&#xe1;" d="M17 94v98h50v-98h-50zM111 0v97h50v-97h-50zM111 189v97h50v-97h-50zM111 378v97h50v-97h-50zM111 567v97h50v-97h-50zM206 0v97h50v-97h-50zM206 189v97h50v-97h-50zM206 378v97h50v-97h-50zM206 567v97h50v-97h-50zM300 0v97h50v-97h-50zM300 189v97h50v-97h-50z M300 378v97h50v-97h-50zM300 661v97h50v-97h-50zM395 0v381h50v-381h-50z" />
<glyph unicode="&#xe2;" d="M17 94v98h50v-98h-50zM111 0v97h50v-97h-50zM111 189v97h50v-97h-50zM111 378v97h50v-97h-50zM206 0v97h50v-97h-50zM206 189v97h50v-97h-50zM206 378v97h50v-97h-50zM300 0v97h50v-97h-50zM300 189v97h50v-97h-50zM300 378v97h50v-97h-50zM395 0v381h50v-381h-50z" />
<glyph unicode="&#xe3;" d="M17 94v98h50v-98h-50zM17 567v97h50v-97h-50zM111 0v97h50v-97h-50zM111 189v97h50v-97h-50zM111 378v97h50v-97h-50zM111 661v97h50v-97h-50zM206 0v97h50v-97h-50zM206 189v97h50v-97h-50zM206 378v97h50v-97h-50zM206 567v97h50v-97h-50zM300 0v97h50v-97h-50z M300 189v97h50v-97h-50zM300 378v97h50v-97h-50zM300 567v97h50v-97h-50zM395 0v381h50v-381h-50zM395 661v97h50v-97h-50z" />
<glyph unicode="&#xe4;" d="M17 94v98h50v-98h-50zM17 567v191h50v-191h-50zM111 0v97h50v-97h-50zM111 189v97h50v-97h-50zM111 378v97h50v-97h-50zM206 0v97h50v-97h-50zM206 189v97h50v-97h-50zM206 378v97h50v-97h-50zM300 0v97h50v-97h-50zM300 189v97h50v-97h-50zM300 378v97h50v-97h-50z M395 0v381h50v-381h-50zM395 567v191h50v-191h-50z" />
<glyph unicode="&#xe5;" d="M17 94v98h50v-98h-50zM111 0v97h50v-97h-50zM111 189v97h50v-97h-50zM111 378v97h50v-97h-50zM111 661v97h50v-97h-50zM206 0v97h50v-97h-50zM206 189v97h50v-97h-50zM206 378v97h50v-97h-50zM206 567v97h50v-97h-50zM206 755v98h50v-98h-50zM300 0v97h50v-97h-50z M300 189v97h50v-97h-50zM300 378v97h50v-97h-50zM300 661v97h50v-97h-50zM395 0v381h50v-381h-50z" />
<glyph unicode="&#xe6;" d="M17 94v98h50v-98h-50zM111 0v97h50v-97h-50zM111 189v97h50v-97h-50zM111 378v97h50v-97h-50zM206 0v381h50v-381h-50zM300 0v97h50v-97h-50zM300 189v97h50v-97h-50zM300 378v97h50v-97h-50zM395 0v97h50v-97h-50zM395 283v98h50v-98h-50z" />
<glyph unicode="&#xe7;" d="M17 94v287h50v-287h-50zM111 0v97h50v-97h-50zM111 -92h50v-97h-50v97zM111 378v97h50v-97h-50zM206 -94v191h50v-191h-50zM206 378v97h50v-97h-50zM300 0v97h50v-97h-50zM300 378v97h50v-97h-50zM395 94v98h50v-98h-50zM395 283v98h50v-98h-50z" />
<glyph unicode="&#xe8;" d="M17 94v287h50v-287h-50zM111 0v97h50v-97h-50zM111 189v97h50v-97h-50zM111 378v97h50v-97h-50zM111 661v97h50v-97h-50zM206 0v97h50v-97h-50zM206 189v97h50v-97h-50zM206 378v97h50v-97h-50zM206 567v97h50v-97h-50zM300 0v97h50v-97h-50zM300 189v97h50v-97h-50z M300 378v97h50v-97h-50zM300 567v97h50v-97h-50zM395 0v97h50v-97h-50zM395 189v192h50v-192h-50z" />
<glyph unicode="&#xe9;" d="M17 94v287h50v-287h-50zM111 0v97h50v-97h-50zM111 189v97h50v-97h-50zM111 378v97h50v-97h-50zM111 567v97h50v-97h-50zM206 0v97h50v-97h-50zM206 189v97h50v-97h-50zM206 378v97h50v-97h-50zM206 567v97h50v-97h-50zM300 0v97h50v-97h-50zM300 189v97h50v-97h-50z M300 378v97h50v-97h-50zM300 661v97h50v-97h-50zM395 0v97h50v-97h-50zM395 189v192h50v-192h-50z" />
<glyph unicode="&#xea;" d="M17 94v287h50v-287h-50zM111 0v97h50v-97h-50zM111 189v97h50v-97h-50zM111 378v97h50v-97h-50zM111 567v97h50v-97h-50zM206 0v97h50v-97h-50zM206 189v97h50v-97h-50zM206 378v97h50v-97h-50zM206 661v97h50v-97h-50zM300 0v97h50v-97h-50zM300 189v97h50v-97h-50z M300 378v97h50v-97h-50zM300 567v97h50v-97h-50zM395 0v97h50v-97h-50zM395 189v192h50v-192h-50z" />
<glyph unicode="&#xeb;" d="M17 94v287h50v-287h-50zM17 567v191h50v-191h-50zM111 0v97h50v-97h-50zM111 189v97h50v-97h-50zM111 378v97h50v-97h-50zM206 0v97h50v-97h-50zM206 189v97h50v-97h-50zM206 378v97h50v-97h-50zM300 0v97h50v-97h-50zM300 189v97h50v-97h-50zM300 378v97h50v-97h-50z M395 0v97h50v-97h-50zM395 189v192h50v-192h-50zM395 567v191h50v-191h-50z" />
<glyph unicode="&#xec;" d="M17 0v97h50v-97h-50zM17 378v97h50v-97h-50zM111 0v97h50v-97h-50zM111 378v97h50v-97h-50zM111 661v97h50v-97h-50zM206 0v475h50v-475h-50zM206 567v97h50v-97h-50zM300 0v97h50v-97h-50zM300 567v97h50v-97h-50zM395 0v97h50v-97h-50z" />
<glyph unicode="&#xed;" d="M17 0v97h50v-97h-50zM17 378v97h50v-97h-50zM111 0v97h50v-97h-50zM111 378v97h50v-97h-50zM111 567v97h50v-97h-50zM206 0v475h50v-475h-50zM206 567v97h50v-97h-50zM300 0v97h50v-97h-50zM300 661v97h50v-97h-50zM395 0v97h50v-97h-50z" />
<glyph unicode="&#xee;" d="M17 0v97h50v-97h-50zM17 378v97h50v-97h-50zM111 0v97h50v-97h-50zM111 378v97h50v-97h-50zM111 567v97h50v-97h-50zM206 0v475h50v-475h-50zM206 661v97h50v-97h-50zM300 0v97h50v-97h-50zM300 567v97h50v-97h-50zM395 0v97h50v-97h-50z" />
<glyph unicode="&#xef;" d="M17 0v97h50v-97h-50zM17 378v97h50v-97h-50zM17 567v191h50v-191h-50zM111 0v97h50v-97h-50zM111 378v97h50v-97h-50zM206 0v475h50v-475h-50zM300 0v97h50v-97h-50zM395 0v97h50v-97h-50zM395 567v191h50v-191h-50z" />
<glyph unicode="&#xf0;" d="M90 94v98h50v-98h-50zM184 0v97h50v-97h-50zM184 189v97h50v-97h-50zM184 378v97h50v-97h-50zM279 0v97h50v-97h-50zM279 189v97h50v-97h-50zM279 378v97h50v-97h-50zM373 0v97h50v-97h-50zM373 189v192h50v-192h-50zM468 94v192h50v-192h-50zM468 378v97h50v-97h-50z " />
<glyph unicode="&#xf1;" d="M17 0v475h50v-475h-50zM17 567v97h50v-97h-50zM111 283v98h50v-98h-50zM111 661v97h50v-97h-50zM206 378v97h50v-97h-50zM206 567v97h50v-97h-50zM300 378v97h50v-97h-50zM300 567v97h50v-97h-50zM395 0v381h50v-381h-50zM395 661v97h50v-97h-50z" />
<glyph unicode="&#xf2;" d="M17 94v287h50v-287h-50zM111 0v97h50v-97h-50zM111 378v97h50v-97h-50zM111 661v97h50v-97h-50zM206 0v97h50v-97h-50zM206 378v97h50v-97h-50zM206 567v97h50v-97h-50zM300 0v97h50v-97h-50zM300 378v97h50v-97h-50zM300 567v97h50v-97h-50zM395 94v287h50v-287h-50z " />
<glyph unicode="&#xf3;" d="M17 94v287h50v-287h-50zM111 0v97h50v-97h-50zM111 378v97h50v-97h-50zM111 567v97h50v-97h-50zM206 0v97h50v-97h-50zM206 378v97h50v-97h-50zM206 567v97h50v-97h-50zM300 0v97h50v-97h-50zM300 378v97h50v-97h-50zM300 661v97h50v-97h-50zM395 94v287h50v-287h-50z " />
<glyph unicode="&#xf4;" d="M17 94v287h50v-287h-50zM111 0v97h50v-97h-50zM111 378v97h50v-97h-50zM111 567v97h50v-97h-50zM206 0v97h50v-97h-50zM206 378v97h50v-97h-50zM206 661v97h50v-97h-50zM300 0v97h50v-97h-50zM300 378v97h50v-97h-50zM300 567v97h50v-97h-50zM395 94v287h50v-287h-50z " />
<glyph unicode="&#xf5;" d="M17 94v287h50v-287h-50zM17 567v97h50v-97h-50zM111 0v97h50v-97h-50zM111 378v97h50v-97h-50zM111 661v97h50v-97h-50zM206 0v97h50v-97h-50zM206 378v97h50v-97h-50zM206 567v97h50v-97h-50zM300 0v97h50v-97h-50zM300 378v97h50v-97h-50zM300 567v97h50v-97h-50z M395 94v287h50v-287h-50zM395 661v97h50v-97h-50z" />
<glyph unicode="&#xf6;" d="M17 94v287h50v-287h-50zM17 567v191h50v-191h-50zM111 0v97h50v-97h-50zM111 378v97h50v-97h-50zM206 0v97h50v-97h-50zM206 378v97h50v-97h-50zM300 0v97h50v-97h-50zM300 378v97h50v-97h-50zM395 94v287h50v-287h-50zM395 567v191h50v-191h-50z" />
<glyph unicode="&#xf7;" d="M17 189v97h50v-97h-50zM111 189v97h50v-97h-50zM206 0v97h50v-97h-50zM206 189v97h50v-97h-50zM206 378v97h50v-97h-50zM300 189v97h50v-97h-50zM395 189v97h50v-97h-50z" />
<glyph unicode="&#xf8;" d="M17 94v287h50v-287h-50zM18 3h50v-97h-50v97zM111 0v192h50v-192h-50zM111 378v97h50v-97h-50zM206 0v97h50v-97h-50zM206 189v97h50v-97h-50zM206 378v97h50v-97h-50zM300 0v97h50v-97h-50zM300 283v192h50v-192h-50zM395 94v287h50v-287h-50zM395 472v97h50v-97h-50z " />
<glyph unicode="&#xf9;" d="M17 94v381h50v-381h-50zM111 0v97h50v-97h-50zM111 661v97h50v-97h-50zM206 0v97h50v-97h-50zM206 567v97h50v-97h-50zM300 94v98h50v-98h-50zM300 567v97h50v-97h-50zM395 0v475h50v-475h-50z" />
<glyph unicode="&#xfa;" d="M17 94v381h50v-381h-50zM111 0v97h50v-97h-50zM111 567v97h50v-97h-50zM206 0v97h50v-97h-50zM206 567v97h50v-97h-50zM300 94v98h50v-98h-50zM300 661v97h50v-97h-50zM395 0v475h50v-475h-50z" />
<glyph unicode="&#xfb;" d="M17 94v381h50v-381h-50zM111 0v97h50v-97h-50zM111 567v97h50v-97h-50zM206 0v97h50v-97h-50zM206 661v97h50v-97h-50zM300 94v98h50v-98h-50zM300 567v97h50v-97h-50zM395 0v475h50v-475h-50z" />
<glyph unicode="&#xfc;" d="M17 94v381h50v-381h-50zM17 567v191h50v-191h-50zM111 0v97h50v-97h-50zM206 0v97h50v-97h-50zM300 94v98h50v-98h-50zM395 0v475h50v-475h-50zM395 567v191h50v-191h-50z" />
<glyph unicode="&#xfd;" d="M17 283v192h50v-192h-50zM111 189v97h50v-97h-50zM111 567v97h50v-97h-50zM206 0v192h50v-192h-50zM206 567v97h50v-97h-50zM300 189v97h50v-97h-50zM300 661v97h50v-97h-50zM395 283v192h50v-192h-50z" />
<glyph unicode="&#xfe;" d="M17 0v475h50v-475h-50zM111 94v98h50v-98h-50zM111 283v98h50v-98h-50zM206 94v98h50v-98h-50zM206 283v98h50v-98h-50zM300 94v98h50v-98h-50zM300 283v98h50v-98h-50zM395 189v97h50v-97h-50z" />
<glyph unicode="&#xff;" d="M17 283v192h50v-192h-50zM17 567v191h50v-191h-50zM111 189v97h50v-97h-50zM206 0v192h50v-192h-50zM300 189v97h50v-97h-50zM395 283v192h50v-192h-50zM395 567v191h50v-191h-50z" />
<glyph unicode="&#x152;" d="M15 96v291h51v-291h-51zM111 0v99h51v-99h-51zM111 385v99h51v-99h-51zM207 0v484h51v-484h-51zM304 0v99h51v-99h-51zM304 192v99h51v-99h-51zM304 385v99h51v-99h-51zM400 0v99h51v-99h-51zM400 385v99h51v-99h-51z" />
<glyph unicode="&#x153;" d="M17 94v287h50v-287h-50zM111 0v97h50v-97h-50zM111 378v97h50v-97h-50zM206 94v287h50v-287h-50zM300 0v97h50v-97h-50zM300 189v97h50v-97h-50zM300 378v97h50v-97h-50zM395 0v97h50v-97h-50zM395 189v192h50v-192h-50z" />
<glyph unicode="&#x178;" d="M15 288v196h51v-196h-51zM15 577v195h51v-195h-51zM111 192v99h51v-99h-51zM207 0v195h51v-195h-51zM304 192v99h51v-99h-51zM400 288v196h51v-196h-51zM400 577v195h51v-195h-51z" />
<glyph unicode="&#x2c6;" d="M111 567v97h50v-97h-50zM206 661v97h50v-97h-50zM300 567v97h50v-97h-50z" />
<glyph unicode="&#x2dc;" d="M17 567v97h50v-97h-50zM111 661v97h50v-97h-50zM206 567v97h50v-97h-50zM300 567v97h50v-97h-50zM395 661v97h50v-97h-50z" />
<glyph unicode="&#x2000;" horiz-adv-x="434" />
<glyph unicode="&#x2001;" horiz-adv-x="868" />
<glyph unicode="&#x2002;" horiz-adv-x="434" />
<glyph unicode="&#x2003;" horiz-adv-x="868" />
<glyph unicode="&#x2004;" horiz-adv-x="289" />
<glyph unicode="&#x2005;" horiz-adv-x="217" />
<glyph unicode="&#x2006;" horiz-adv-x="144" />
<glyph unicode="&#x2007;" horiz-adv-x="144" />
<glyph unicode="&#x2008;" horiz-adv-x="108" />
<glyph unicode="&#x2009;" horiz-adv-x="173" />
<glyph unicode="&#x200a;" horiz-adv-x="48" />
<glyph unicode="&#x2010;" d="M111 189v97h50v-97h-50zM206 189v97h50v-97h-50zM300 189v97h50v-97h-50z" />
<glyph unicode="&#x2011;" d="M111 189v97h50v-97h-50zM206 189v97h50v-97h-50zM300 189v97h50v-97h-50z" />
<glyph unicode="&#x2012;" d="M111 189v97h50v-97h-50zM206 189v97h50v-97h-50zM300 189v97h50v-97h-50z" />
<glyph unicode="&#x2013;" d="M111 189v97h50v-97h-50zM206 189v97h50v-97h-50zM300 189v97h50v-97h-50z" />
<glyph unicode="&#x2014;" d="M17 189v97h50v-97h-50zM111 189v97h50v-97h-50zM206 189v97h50v-97h-50zM300 189v97h50v-97h-50zM395 189v97h50v-97h-50z" />
<glyph unicode="&#x2018;" d="M207 283v192h50v-192h-50zM302 472v97h50v-97h-50z" />
<glyph unicode="&#x2019;" d="M207 283v98h50v-98h-50zM302 378v191h50v-191h-50z" />
<glyph unicode="&#x201a;" d="M207 3h50v-97h-50v97zM302 0v192h50v-192h-50z" />
<glyph unicode="&#x201c;" d="M113 283v192h50v-192h-50zM207 472v97h50v-97h-50zM302 283v192h50v-192h-50zM396 472v97h50v-97h-50z" />
<glyph unicode="&#x201d;" d="M113 283v98h50v-98h-50zM207 378v191h50v-191h-50zM302 283v98h50v-98h-50zM396 378v191h50v-191h-50z" />
<glyph unicode="&#x201e;" d="M113 3h50v-97h-50v97zM207 0v192h50v-192h-50zM302 3h50v-97h-50v97zM396 0v192h50v-192h-50z" />
<glyph unicode="&#x2022;" d="M14 189v286h50v-286h-50zM109 189v286h50v-286h-50zM203 189v286h50v-286h-50z" />
<glyph unicode="&#x2026;" d="M17 0v192h50v-192h-50zM206 0v192h50v-192h-50zM395 0v192h50v-192h-50z" />
<glyph unicode="&#x202f;" horiz-adv-x="173" />
<glyph unicode="&#x2039;" d="M111 189v97h50v-97h-50zM206 94v98h50v-98h-50zM206 283v98h50v-98h-50zM300 0v97h50v-97h-50zM300 378v97h50v-97h-50z" />
<glyph unicode="&#x203a;" d="M209 0v97h50v-97h-50zM209 378v97h50v-97h-50zM303 94v98h50v-98h-50zM303 283v98h50v-98h-50zM398 189v97h50v-97h-50z" />
<glyph unicode="&#x205f;" horiz-adv-x="217" />
<glyph unicode="&#x20ac;" d="M17 189v97h50v-97h-50zM111 94v287h50v-287h-50zM206 0v97h50v-97h-50zM206 189v97h50v-97h-50zM206 378v97h50v-97h-50zM300 0v97h50v-97h-50zM300 189v97h50v-97h-50zM300 378v97h50v-97h-50zM395 0v97h50v-97h-50zM395 378v97h50v-97h-50z" />
<glyph unicode="&#x2122;" d="M18 472v97h50v-97h-50zM113 283v286h50v-286h-50zM207 472v97h50v-97h-50zM302 283v286h50v-286h-50zM396 378v97h50v-97h-50zM491 283v286h50v-286h-50z" />
<glyph unicode="&#xe000;" horiz-adv-x="475" d="M0 0v475h475v-475h-475z" />
</font>
</defs>
</svg>
