<?xml version="1.0" standalone="no"?>
<!DOCTYPE svg PUBLIC "-//W3C//DTD SVG 1.1//EN" "http://www.w3.org/Graphics/SVG/1.1/DTD/svg11.dtd" >
<svg xmlns="http://www.w3.org/2000/svg">
<metadata></metadata>
<defs>
<font id="walkway_oblique_boldregular" horiz-adv-x="525" >
<font-face units-per-em="1000" ascent="800" descent="-200" />
<missing-glyph horiz-adv-x="354" />
<glyph horiz-adv-x="1000" />
<glyph horiz-adv-x="1000" />
<glyph unicode="&#xd;" horiz-adv-x="354" />
<glyph unicode=" "  horiz-adv-x="354" />
<glyph unicode="&#x09;" horiz-adv-x="354" />
<glyph unicode="&#xa0;" horiz-adv-x="354" />
<glyph unicode="!" horiz-adv-x="194" d="M107 166l109 512h51l-109 -512h-51zM97 0q-26 0 -21 25l13 62q6 24 32 24q25 0 19 -24l-13 -62q-5 -25 -30 -25z" />
<glyph unicode="&#x22;" horiz-adv-x="292" d="M319 547q-26 0 -21 22l17 82q5 21 31 21q25 0 20 -21l-17 -82q-5 -22 -30 -22zM203 547q-25 0 -20 22l17 82q5 21 30 21q26 0 21 -21l-17 -82q-5 -22 -31 -22z" />
<glyph unicode="#" horiz-adv-x="531" d="M535 350h-90l-33 -71h89l-20 -45h-89l-35 -73h-52l35 73h-89l-35 -73h-52l35 73h-89l20 45h89l34 71h-91l24 45h88l34 73h52l-34 -73h89l33 73h52l-33 -73h89zM305 350l-34 -71h89l33 71h-88z" />
<glyph unicode="$" horiz-adv-x="642" d="M413 -10l-13 -60h-51l11 53q-17 -1 -34 -1q-32 0 -61 4l-12 -56h-51l14 63q-156 38 -155 170q0 26 7 56l5 24h51l-5 -21q-5 -26 -5 -48q0 -102 112 -132l64 303q-142 37 -142 135q0 16 4 33q30 142 211 176l14 64h51l-12 -58q20 1 43 1q28 0 53 -2l12 59h51l-14 -66 q139 -33 139 -160q0 -27 -7 -59h-50q4 21 4 40q0 103 -96 130l-61 -284q77 -20 109 -41q50 -35 50 -97q0 -21 -5 -45q-15 -74 -87 -124q-61 -43 -144 -57zM501 646q-24 3 -52 3q-23 0 -43 -2l-56 -263l92 -18zM353 639q-129 -29 -150 -126q-2 -11 -2 -22q0 -66 100 -95z M589 247q-24 31 -109 57l-57 -266q149 30 171 136q11 51 -5 73zM431 315l-92 19l-64 -301q28 -3 62 -3q17 0 34 1z" />
<glyph unicode="%" horiz-adv-x="750" d="M166 -1h-62l642 679h61zM556 -19q-117 0 -119 111q0 30 8 69q40 185 190 185q117 0 116 -116q0 -30 -8 -69q-38 -180 -187 -180zM252 294q-118 0 -117 115q0 29 8 65q39 184 188 184q118 0 118 -115q0 -31 -8 -69q-39 -180 -189 -180zM624 299q-97 0 -127 -138 q-6 -30 -6 -53q0 -80 76 -80q96 0 124 133q7 32 7 57q0 81 -74 81zM320 611q-96 0 -125 -137q-6 -29 -7 -52q0 -81 75 -81q97 0 126 133q6 31 6 55q0 82 -75 82z" />
<glyph unicode="&#x26;" horiz-adv-x="603" d="M507 99q-109 -115 -243 -115q-76 0 -133 32q-70 39 -70 108q0 95 102 172q52 39 154 86q-84 50 -84 128q0 16 4 34q13 63 73 100q55 34 123 34q59 0 97 -23q47 -27 47 -82q0 -14 -4 -31q-20 -96 -233 -197q-107 -51 -143 -78q-84 -63 -84 -132q0 -52 54 -81 q44 -23 101 -23q130 0 214 108q46 60 64 141h51l-64 -299h-51zM425 631q-47 0 -85 -21q-43 -24 -53 -67q-2 -13 -2 -25q0 -68 88 -110q151 75 151 153q0 36 -33 55q-27 15 -66 15z" />
<glyph unicode="'" horiz-adv-x="175" d="M203 547q-25 0 -20 22l17 82q5 21 30 21q26 0 21 -21l-17 -82q-5 -22 -31 -22z" />
<glyph unicode="(" horiz-adv-x="233" d="M150 -168q-54 123 -54 266q0 89 20 185q54 253 226 451h57q-179 -203 -232 -451q-19 -90 -19 -174q0 -148 59 -277h-57z" />
<glyph unicode=")" horiz-adv-x="233" d="M6 -168h-57q183 203 236 451q19 87 19 169q0 151 -63 282h57q57 -121 58 -265q1 -88 -20 -186q-54 -255 -230 -451z" />
<glyph unicode="*" horiz-adv-x="340" d="M202 624h2l57 -30l12 55q5 23 31 23q25 0 20 -23l-12 -55l68 28q7 3 14 3q13 0 20 -9q1 -7 0 -13q-3 -14 -18 -20l-62 -25l51 -27q13 -7 11 -20q-5 -22 -30 -22q-9 0 -14 3l-55 29l-12 -55q-5 -23 -30 -23q-26 0 -21 23l12 55l-67 -29q-7 -3 -15 -3q-25 0 -20 22 q2 13 19 20l63 27l-53 26q-13 7 -11 19q5 22 30 22q5 0 10 -1z" />
<glyph unicode="+" horiz-adv-x="560" d="M353 228l-34 -161h-51l34 161h-191l10 46h191l34 159h51l-34 -159h192l-10 -46h-192z" />
<glyph unicode="," horiz-adv-x="262" d="M119 -74q-9 -17 -28 -17q-26 0 -22 21l4 8l71 132q11 21 33 16q19 -5 16 -21q-1 -3 -4 -7z" />
<glyph unicode="-" horiz-adv-x="350" d="M90 254l4 20h287l-4 -20h-287z" />
<glyph unicode="." horiz-adv-x="209" d="M105 -2q-26 0 -22 20l10 47q4 20 30 20q25 0 21 -20l-10 -47q-4 -20 -29 -20z" />
<glyph unicode="/" horiz-adv-x="350" d="M32 0h-54l497 694h54z" />
<glyph unicode="0" horiz-adv-x="584" d="M495 60q-58 -50 -103 -63q-31 -9 -102 -9q-119 0 -175 73q-37 48 -37 118q0 32 8 68l34 164q25 117 110.5 188.5t205.5 71.5q95 0 152 -49t57 -142q0 -32 -8 -69l-34 -164q-25 -116 -108 -187zM586 411q7 31 7 58q0 75 -46 115t-122 40q-98 0 -165.5 -58.5t-88.5 -154.5 l-34 -164q-7 -30 -7 -57q0 -74 48 -116q45 -39 121 -39q97 0 164.5 58.5t88.5 153.5z" />
<glyph unicode="1" horiz-adv-x="413" d="M274 0l122 573l-157 -106h-78l260 179h41l-137 -646h-51z" />
<glyph unicode="2" horiz-adv-x="584" d="M43 0q41 189 270 308q40 20 157 80q96 49 108 104q2 14 2 26q0 92 -147 92q-197 0 -239 -195h-51q52 242 294 242q79 0 129 -25q66 -32 66 -103q0 -18 -5 -39q-18 -85 -202 -176q-54 -26 -135 -70q-151 -94 -182 -197h456l-10 -47h-511z" />
<glyph unicode="3" horiz-adv-x="584" d="M295 -11q-96 0 -157 36q-73 45 -73 134q0 25 6 54l5 24h51l-7 -37q-4 -19 -4 -35q0 -68 62 -102q50 -27 123 -27q84 0 149 33q79 39 95 113q4 19 4 35q0 106 -168 106h-61l10 47h62q179 0 205 122q2 12 2 23q0 53 -59 77q-43 18 -104 18q-209 0 -248 -184h-51 q49 231 306 231q81 0 135 -24q74 -34 74 -106q0 -16 -4 -35q-23 -107 -135 -144q87 -33 87 -120q0 -21 -5 -46q-21 -95 -114 -148q-81 -45 -186 -45z" />
<glyph unicode="4" horiz-adv-x="584" d="M480 215l-46 -215h-51l46 215h-374l315 432h54l-281 -385h296l82 386l50 -3l-81 -383h129l-10 -47h-129z" />
<glyph unicode="5" horiz-adv-x="584" d="M286 -11q-222 0 -222 168q0 32 8 69h51q-7 -31 -7 -57q0 -133 181 -133q93 0 160.5 46.5t86.5 135.5q5 23 5 43q0 71 -58 108q-49 31 -125 31q-124 0 -206 -95h-50l88 341h458l-10 -47h-408l-55 -216q82 64 197 64q92 0 152 -41q70 -46 70 -134q0 -25 -6 -53 q-24 -110 -112 -172q-83 -58 -198 -58z" />
<glyph unicode="6" horiz-adv-x="584" d="M578 426q5 28 5 52q0 66 -48 100q-42 31 -112 31q-85 0 -146 -42q-64 -45 -82 -126l-22 -96q81 72 207 72q85 0 140 -38q62 -43 62 -124q0 -24 -6 -51q-21 -100 -105 -157q-77 -53 -183 -53q-86 0 -140 37q-63 42 -63 123q0 23 5 50l3 11q1 3 2 8l47 220q22 101 106 157 q79 53 186 53q87 0 140 -38q61 -43 61 -126q0 -29 -7 -63h-50zM499 329q-30 30 -60 38q-20 6 -70 6q-85 0 -146 -42q-65 -46 -83 -127q-4 -22 -4 -41q0 -63 51 -97q43 -29 111 -29q84 0 147.5 43.5t80.5 123.5q5 22 5 42q0 50 -32 83z" />
<glyph unicode="7" horiz-adv-x="584" d="M221 0h-54l433 599h-422l10 47h500z" />
<glyph unicode="8" horiz-adv-x="601" d="M299 -11q-95 0 -156 30q-81 40 -81 125q0 20 5 44q27 128 171 168q-76 34 -76 100q0 14 3 29q20 92 103 136q70 36 173 36q83 0 136 -25q70 -34 70 -108q0 -18 -4 -39q-19 -88 -129 -129q104 -34 104 -127q0 -20 -4 -43q-23 -104 -119 -155q-79 -42 -196 -42zM431 610 q-188 0 -215 -126q-2 -9 -2 -17q0 -48 64 -73q47 -18 104 -18q68 0 126 24q72 30 84 86q4 15 4 29q0 95 -165 95zM372 329q-224 0 -254 -142q-4 -18 -4 -33q0 -118 195 -118q93 0 157 31q79 38 97 120q3 17 3 32q0 110 -194 110z" />
<glyph unicode="9" horiz-adv-x="584" d="M628 433l-51 -239q-21 -100 -106 -157q-79 -52 -185 -52q-88 0 -141 37q-60 42 -60 126q0 29 7 62h50q-6 -29 -6 -53q0 -66 48 -100q42 -29 112 -29q83 0 145 43q66 46 84 125l25 115q-80 -71 -206 -71q-85 0 -140 37q-63 42 -63 123q0 23 6 50q21 100 105 158 q78 54 184 54q85 0 140 -38q62 -43 62 -124q0 -23 -5 -50l-3 -11q-2 -4 -2 -6zM556 575q-31 30 -60 38q-20 6 -70 6q-86 0 -147 -42q-65 -46 -82 -127q-5 -22 -5 -41q0 -63 51 -97q43 -29 111 -29q85 0 146 42q66 45 83 125q4 22 4 41q0 51 -31 84z" />
<glyph unicode=":" horiz-adv-x="244" d="M198 355q-26 0 -20 24l13 61q5 25 31 25q25 0 20 -24l-13 -62q-6 -24 -31 -24zM123 -2q-26 0 -21 25l13 61q5 24 31 24q25 0 20 -24l-13 -61q-5 -25 -30 -25z" />
<glyph unicode=";" horiz-adv-x="251" d="M218 354q-26 0 -20 25l13 61q5 25 31 25q25 0 20 -25l-13 -61q-6 -25 -31 -25zM114 -72q-10 -19 -28 -19q-27 0 -22 23q0 2 3 9l75 147q11 23 33 17q19 -5 16 -22q-1 -4 -4 -8z" />
<glyph unicode="&#x3c;" horiz-adv-x="535" d="M80 220l8 41l498 177l-10 -49l-418 -149l354 -149l-10 -49z" />
<glyph unicode="=" horiz-adv-x="630" d="M93 271l9 42h560l-9 -42h-560zM70 167l9 42h560l-9 -42h-560z" />
<glyph unicode="&#x3e;" horiz-adv-x="535" d="M42 42l10 49l418 149l-354 149l10 49l422 -177l-8 -41z" />
<glyph unicode="?" d="M459 359q-82 -56 -108 -90q-18 -22 -27 -66l-8 -37h-52l7 32q21 99 142 182q62 42 82 62q41 39 51 86q3 13 3 25q0 52 -51 76q-38 18 -96 18q-92 0 -146.5 -42.5t-83.5 -131.5l-42 26q68 195 283 195q73 0 125 -28q63 -36 63 -103q0 -108 -142 -204zM254 0q-25 0 -20 25 l13 62q6 24 31 24q26 0 20 -24l-13 -62q-5 -25 -31 -25z" />
<glyph unicode="@" horiz-adv-x="840" d="M593 203q-85 -78 -200 -79q-102 -1 -139 70q-16 31 -16 69q0 21 5 44q24 114 107 186.5t198 73.5q117 2 146 -75l27 75h48l-131 -372q1 -3 -1 -7h4q21 0 55 23q29 20 47 40q90 102 90 200q0 79 -59 132q-73 66 -196 66q-146 0 -260 -83q-118 -86 -148 -226q-7 -36 -7 -68 q0 -93 63 -156q80 -81 220 -81q90 0 179 38q93 40 147 107h59q-66 -86 -173 -138.5t-216 -52.5q-165 0 -258 94q-75 75 -75 184q0 37 8 78q34 157 171 256q131 94 296 94q121 0 204 -55q98 -64 98 -179q0 -30 -7 -63q-21 -98 -105 -183q-77 -77 -151 -77q-36 0 -36 31 q0 14 6 34zM590 519q-16 5 -58 4q-89 -1 -155.5 -62.5t-85.5 -151.5q-5 -21 -5 -40q0 -102 119 -101q79 1 147 53q65 51 92 128q14 39 14 74q0 40 -22 65t-46 31z" />
<glyph unicode="A" horiz-adv-x="636" d="M598 0l-52 213h-362l-144 -213h-58l462 678h47l163 -678h-56zM452 604l-236 -343h319z" />
<glyph unicode="B" horiz-adv-x="642" d="M359 0h-325l144 678h338q78 0 130 -29q63 -36 63 -108q0 -19 -5 -41q-20 -97 -140 -144q101 -31 101 -123q0 -21 -5 -44q-21 -98 -113 -148q-78 -41 -188 -41zM504 631h-285l-54 -255h284q74 0 128 29q63 34 77 100q3 14 3 27q0 54 -53 79q-40 20 -100 20zM437 329h-282 l-60 -282h286q82 0 142 31q72 38 87 110q4 17 3 31q0 110 -176 110z" />
<glyph unicode="C" horiz-adv-x="719" d="M758 528q-52 110 -220 110q-144 0 -247 -80.5t-132 -219.5q-9 -43 -9 -81q1 -107 72 -164q66 -53 178 -53q161 0 269 112l38 -28q-128 -131 -316 -131q-164 0 -241 92q-53 64 -53 160q0 41 10 89q35 163 154 257t287 94q195 0 259 -130z" />
<glyph unicode="D" horiz-adv-x="680" d="M277 0h-235l144 678h273q277 0 277 -237q0 -47 -12 -103q-35 -165 -158 -254q-117 -84 -289 -84zM448 631h-221l-124 -584h187q151 0 249 72q103 75 134 219q11 51 11 93q0 200 -236 200z" />
<glyph unicode="E" horiz-adv-x="564" d="M42 0l144 678h516l-10 -47h-466l-54 -255h413l-10 -46h-413l-60 -283h471l-10 -47h-521z" />
<glyph unicode="F" horiz-adv-x="505" d="M226 631l-54 -255h368l-10 -46h-368l-70 -330h-50l144 678h480l-10 -47h-430z" />
<glyph unicode="G" horiz-adv-x="758" d="M624 56q-105 -63 -234 -63q-136 0 -217 58q-93 66 -93 195q0 42 11 91q34 163 154 256q117 92 285 92q279 0 279 -239h-52q-3 192 -236 192q-146 0 -247.5 -79.5t-131.5 -220.5q-9 -44 -9 -81q0 -112 79 -168q70 -49 188 -49q113 0 205 57q101 63 124 169l3 18h-291 l10 47h340q-4 -33 -8 -53q-31 -145 -159 -222z" />
<glyph unicode="H" horiz-adv-x="680" d="M587 0l70 330h-494l-70 -330h-51l144 678h51l-64 -302h494l64 302h51l-144 -678h-51z" />
<glyph unicode="I" horiz-adv-x="134" d="M42 0l144 678h51l-144 -678h-51z" />
<glyph unicode="J" horiz-adv-x="486" d="M222 -7q-185 0 -185 146q0 14 2 29h52q-2 -12 -2 -23q0 -105 139 -105q91 0 137.5 36.5t65.5 125.5l101 476h51l-102 -482q-43 -203 -259 -203z" />
<glyph unicode="K" horiz-adv-x="670" d="M616 0l-302 357l-168 -110l-53 -247h-51l144 678h51l-79 -371l578 371h81l-456 -292l326 -386h-71z" />
<glyph unicode="L" horiz-adv-x="505" d="M42 0l144 678h51l-134 -631h428l-10 -47h-479z" />
<glyph unicode="M" horiz-adv-x="819" d="M725 0l124 582l-419 -582h-41l-172 582l-124 -582h-51l144 678h58l180 -609l439 609h57l-144 -678h-51z" />
<glyph unicode="N" horiz-adv-x="680" d="M585 0l-364 602l-128 -602h-51l144 678h53q71 -122 182 -301q138 -221 183 -298l127 599h51l-144 -678h-53z" />
<glyph unicode="O" horiz-adv-x="757" d="M661 86q-80 -64 -144 -81q-42 -12 -139 -12q-133 0 -211 59q-86 66 -86 193q0 43 11 94q34 161 151 250q113 86 279 86q132 0 211 -56q88 -64 88 -189q0 -42 -10 -91q-34 -160 -150 -253zM630 619q-32 9 -118 9q-144 0 -240 -74q-99 -76 -129 -215q-9 -43 -9 -80 q0 -109 73 -167q67 -52 181 -52q145 0 243.5 78.5t128.5 220.5q9 42 9 79q0 82 -45 134t-94 67z" />
<glyph unicode="P" horiz-adv-x="621" d="M409 296h-253l-63 -296h-51l144 678h315q212 0 212 -142q0 -24 -6 -52q-21 -96 -113 -146q-78 -42 -185 -42zM497 631h-270l-61 -288h271q76 0 135 33q68 39 83 108q4 21 4 39q0 108 -162 108z" />
<glyph unicode="Q" horiz-adv-x="757" d="M501 7q26 -26 74 -26h107l-10 -47h-107q-85 0 -122 61q-32 -4 -66 -4q-132 0 -210 60q-86 66 -86 192q0 44 11 95q34 161 149 249t281 88q132 0 211 -57q88 -64 88 -189q0 -42 -10 -91q-27 -126 -106 -211q-81 -88 -204 -120zM630 619q-32 9 -118 9q-144 0 -240 -74 q-100 -77 -129 -216q-9 -42 -9 -79q0 -76 38 -129q27 44 74.5 69.5t99.5 25.5q55 0 94 -29q43 -33 43 -86q0 -9 -2.5 -24.5t-2.5 -23.5q0 -7 1 -14q112 25 184.5 101t96.5 189q9 43 9 80q0 82 -45 134t-94 67zM433 101q0 38 -28.5 58t-68.5 20q-42 0 -79 -22 q-40 -24 -53 -62q67 -57 183 -57q22 0 43 2q-2 8 -2 16q0 7 2.5 22t2.5 23z" />
<glyph unicode="R" horiz-adv-x="642" d="M562 331q77 -33 77 -114q0 -21 -5 -45l-37 -172h-51l36 170q4 17 4 32q0 101 -162 101h-267l-64 -303h-51l144 678h327q205 0 205 -132q1 -21 -5 -46q-26 -124 -151 -169zM505 631h-278l-59 -279h262q84 0 144 32q72 38 88 113q3 18 3 34q0 100 -160 100z" />
<glyph unicode="S" horiz-adv-x="642" d="M329 -7q-108 0 -177 33q-90 44 -90 141q0 24 6 52l5 24h51l-5 -20q-5 -25 -5 -46q1 -137 226 -137q89 0 153 26q86 35 101 109q4 17 4 31q0 59 -86 86q-23 7 -135 32q-124 27 -164 50q-65 37 -65 104q0 16 4 33q37 174 305 174q242 0 242 -163q0 -26 -6 -55h-50 q4 23 4 42q0 80 -65 109q-43 20 -135 20q-217 0 -244 -127q-3 -13 -3 -24q0 -52 64 -80q31 -14 109 -28q133 -25 173 -41q103 -41 103 -124q0 -20 -4 -42q-20 -94 -128 -142q-82 -37 -188 -37z" />
<glyph unicode="T" horiz-adv-x="545" d="M432 631l-134 -631h-51l134 631h-259l10 47h569l-10 -47h-259z" />
<glyph unicode="U" horiz-adv-x="664" d="M331 -7q-244 0 -244 182q0 37 9 81l90 422h51l-90 -422q-7 -35 -7 -64q0 -152 201 -152q238 0 283 213l90 425h51l-90 -424q-55 -261 -344 -261z" />
<glyph unicode="V" horiz-adv-x="628" d="M340 0h-43l-163 678h54l146 -606l395 606h54z" />
<glyph unicode="W" horiz-adv-x="970" d="M689 0h-43l-82 364l-232 -364h-43l-152 678h54l136 -604l223 353l-56 251h54l136 -605l383 605h53z" />
<glyph unicode="X" horiz-adv-x="604" d="M570 0l-200 311l-335 -311h-65l374 349l-215 329h67l190 -292l316 292h66l-355 -330l222 -348h-65z" />
<glyph unicode="Y" horiz-adv-x="626" d="M409 328l-70 -328h-51l70 328l-247 350h66l215 -304l346 304h65z" />
<glyph unicode="Z" horiz-adv-x="626" d="M22 0l10 45l631 586h-478l10 47h546l-9 -44l-632 -587h515l-10 -47h-583z" />
<glyph unicode="[" horiz-adv-x="233" d="M50 -168l192 902h148l-10 -48h-97l-172 -806h97l-10 -48h-148z" />
<glyph unicode="\" horiz-adv-x="350" d="M320 0l-204 694h54l204 -694h-54z" />
<glyph unicode="]" horiz-adv-x="233" d="M110 -168h-147l10 48h96l8 32l164 774h-96l10 48h148z" />
<glyph unicode="^" horiz-adv-x="298" d="M312 511l-39 82l-73 -82h-56l120 135h38l70 -135h-60z" />
<glyph unicode="_" d="M-40 -119l10 48h555l-10 -48h-555z" />
<glyph unicode="`" horiz-adv-x="193" d="M283 533q-7 -4 -15 -4q-10 0 -19 7l-71 72q-29 31 -26 45q1 8 14 14q20 13 35 -3l92 -100q6 -6 4 -14q-2 -10 -14 -17z" />
<glyph unicode="a" horiz-adv-x="564" d="M463 -1l18 88q-87 -98 -223 -98q-117 0 -168 74q-32 47 -32 112q0 32 8 68q24 116 106 186.5t198 70.5q134 0 179 -95l20 93h51l-106 -499h-51zM355 453q-92 0 -156 -59t-83 -151q-7 -31 -7 -58q0 -72 42 -110.5t116 -38.5q92 0 160 58t88 149q7 33 7 62q0 74 -45 111 t-122 37z" />
<glyph unicode="b" horiz-adv-x="564" d="M290 -10q-129 0 -177 98l-19 -88h-51l144 678h51l-56 -265q85 95 219 95q93 0 147 -49t54 -139q0 -34 -9 -74q-24 -117 -104 -185q-82 -71 -199 -71zM395 460q-101 0 -164.5 -57.5t-84.5 -158.5q-6 -28 -6 -54q0 -72 47 -113q44 -40 119 -40q93 0 157 60q61 57 81 150 q7 34 7 63q0 73 -41 111.5t-115 38.5z" />
<glyph unicode="c" d="M272 -11q-94 0 -150 45q-61 48 -61 138q0 30 7 64q26 121 113 192.5t210 71.5q174 0 184 -152l-52 -23q-7 128 -144 128q-100 0 -169.5 -59t-90.5 -158q-6 -29 -6 -54q0 -73 48 -111q44 -35 120 -35q157 0 214 140l44 -21q-75 -166 -267 -166z" />
<glyph unicode="d" horiz-adv-x="564" d="M463 0l19 88q-88 -99 -224 -99q-117 0 -167 75q-32 47 -32 113q0 33 8 70q24 116 106 188t199 72q134 0 179 -95l56 266h51l-144 -678h-51zM357 460q-92 0 -156.5 -60.5t-83.5 -152.5q-7 -32 -7 -59q0 -72 41.5 -112t115.5 -40q91 0 160 60t89 151q7 34 7 63 q0 74 -44.5 112t-121.5 38z" />
<glyph unicode="e" d="M109 226q-4 -26 -4 -49q0 -141 165 -141q145 0 216 119h52q-87 -166 -280 -166q-95 0 -147 43q-57 46 -57 136q0 35 9 75q24 115 108 186t200 71q92 0 148 -43q62 -47 62 -135q0 -28 -7 -60l-8 -35zM361 453q-86 0 -150 -48.5t-91 -131.5h400q3 19 3 37q0 70 -46 108 q-43 35 -116 35z" />
<glyph unicode="f" horiz-adv-x="267" d="M239 477l-6 -32h111l-11 -48h-111l-84 -398h-51l84 398h-72l11 48h72l6 32q41 189 295 189l-10 -46q-203 0 -234 -143z" />
<glyph unicode="g" horiz-adv-x="545" d="M228 -179q-188 0 -188 137q0 19 3 39h51q-1 -12 -1 -23q0 -106 146 -106q186 0 219 156l14 64q-87 -88 -215 -88q-90 0 -142 47q-55 48 -55 135q0 31 8 66q24 114 105.5 183t196.5 69q126 0 170 -90l17 79h51l-99 -466q-43 -202 -281 -202zM358 453q-89 0 -154.5 -58 t-84.5 -146q-6 -30 -6 -56q0 -69 40.5 -107.5t111.5 -38.5q91 0 156 54.5t84 144.5q6 28 6 53q0 54 -26 95q-40 59 -127 59z" />
<glyph unicode="h" d="M429 0l69 324q4 19 4 36q0 100 -129 100q-84 0 -143 -50t-77 -132l-59 -278h-51l144 678h51l-53 -249q75 79 197 79q73 0 119 -30q55 -35 55 -103q0 -20 -5 -42l-71 -333h-51z" />
<glyph unicode="i" horiz-adv-x="136" d="M190 577q-16 0 -20 20l15 70q13 20 28 20q12 0 23 -18l-16 -74q-17 -18 -30 -18zM43 0l105 496h51l-105 -496h-51z" />
<glyph unicode="j" horiz-adv-x="136" d="M190 577q-16 0 -20 19l15 71q13 20 28 20q12 0 23 -18l-16 -75q-17 -17 -30 -17zM-201 -179l10 47q203 0 237 158l99 469h51l-100 -470q-43 -204 -297 -204z" />
<glyph unicode="k" horiz-adv-x="532" d="M464 0l-200 272l-129 -79l-41 -193h-51l144 678h51l-90 -426l395 245l89 -2l-321 -194l222 -301h-69z" />
<glyph unicode="l" horiz-adv-x="136" d="M43 0l144 678h51l-144 -678h-51z" />
<glyph unicode="m" horiz-adv-x="817" d="M722 0l68 319q5 24 5 44q0 90 -107 90q-71 0 -122.5 -39.5t-66.5 -107.5l-65 -306h-51l68 319q5 24 5 44q-1 90 -110 90q-74 0 -128 -54q-50 -49 -66 -125l-58 -274h-51l104 489h51l-14 -64q72 75 182 75q113 0 139 -86q68 86 191 86q154 0 153 -121q0 -23 -6 -51 l-70 -328h-51z" />
<glyph unicode="n" d="M429 0l68 319q4 19 4 36q0 98 -130 98q-83 0 -142 -48.5t-77 -130.5l-58 -274h-51l104 489h51l-14 -67q74 78 196 78q73 0 119 -29q55 -34 55 -102q0 -19 -4 -41l-70 -328h-51z" />
<glyph unicode="o" horiz-adv-x="545" d="M270 -11q-95 0 -151 48q-60 50 -60 142q0 30 7 65q25 116 110.5 186t203.5 70q95 0 151 -47q61 -50 61 -141q0 -32 -8 -68q-25 -116 -110.5 -185.5t-203.5 -69.5zM448 446q-22 7 -79 7q-97 0 -164.5 -56.5t-87.5 -152.5q-6 -30 -6 -56q0 -74 48 -114q45 -38 122 -38 q96 0 164 56.5t88 151.5q6 30 6 56q0 56 -29 95.5t-62 50.5z" />
<glyph unicode="p" horiz-adv-x="564" d="M289 -18q-133 0 -178 96l-53 -246h-51l140 657h51l-18 -85q86 96 218 96q94 0 147 -46q56 -49 56 -139q0 -34 -8 -72q-26 -119 -104 -188q-81 -73 -200 -73zM394 453q-94 0 -161 -58t-87 -151q-8 -36 -8 -66q0 -149 165 -149q94 0 159 61q60 57 80 152q7 31 7 59 q0 71 -41 111.5t-114 40.5z" />
<glyph unicode="q" horiz-adv-x="564" d="M426 -168l52 242q-82 -92 -224 -92q-112 0 -163 77q-33 49 -33 115q0 32 8 69q24 113 106.5 185t195.5 72q135 0 180 -96l18 85h51l-140 -657h-51zM431 446q-22 7 -78 7q-91 0 -156 -62q-61 -57 -81 -149q-6 -31 -6 -58q0 -52 24 -91q39 -64 130 -64q100 0 166 58 q63 56 84 155q7 30 7 56q0 56 -29 96.5t-61 51.5z" />
<glyph unicode="r" horiz-adv-x="318" d="M136 196l-42 -196h-51l104 489h51l-18 -83q21 23 47 41q77 53 186 53l-10 -47q-213 0 -267 -257z" />
<glyph unicode="s" horiz-adv-x="486" d="M246 -13q-188 0 -187 142q0 27 7 58h53q-6 -26 -6 -48q0 -103 145 -103q147 0 166 93q2 7 2 14q0 48 -84 69q-9 2 -97 16q-125 20 -125 103q0 12 3 27q15 69 81 108q59 35 134 35q184 0 183 -129q0 -22 -5 -49h-54q4 22 4 40q0 89 -133 89q-54 0 -96 -21q-51 -26 -61 -73 q-1 -7 -1 -14q0 -48 83 -63q25 -5 102 -19q121 -22 121 -104q0 -14 -4 -29q-16 -75 -87 -112q-59 -30 -144 -30z" />
<glyph unicode="t" horiz-adv-x="263" d="M245 420l-89 -420h-49l87 420h-99l10 47h99l32 147h51l-32 -147h101l-10 -47h-101z" />
<glyph unicode="u" d="M429 -1l14 68q-75 -78 -195 -78q-76 0 -121 29q-53 35 -53 106q0 22 5 47l68 317h51l-67 -316q-5 -21 -5 -39q0 -97 132 -97q179 0 219 188l56 264h51l-104 -489h-51z" />
<glyph unicode="v" horiz-adv-x="471" d="M268 0h-46l-132 488h59l109 -423l276 423h56z" />
<glyph unicode="w" horiz-adv-x="771" d="M560 0h-47l-66 267l-171 -267h-46l-121 488h58l99 -421l166 263l-40 158h59l98 -421l266 421h55z" />
<glyph unicode="x" horiz-adv-x="467" d="M430 0l-151 216l-242 -216h-66l284 253l-159 235h66l132 -200l222 200h64l-259 -235l175 -253h-66z" />
<glyph unicode="y" d="M203 -179q-187 0 -187 137q0 19 3 39h51q-1 -12 -1 -23q0 -106 146 -106q186 0 219 156l8 37q-76 -79 -196 -79q-75 0 -120 30q-53 36 -53 106q0 23 5 48l69 322h51l-69 -321q-4 -23 -4 -42q1 -96 131 -96q179 0 220 191l57 268h51l-99 -465q-43 -202 -282 -202z" />
<glyph unicode="z" horiz-adv-x="473" d="M13 0l9 42l445 399h-331l10 47h401l-9 -41l-445 -400h377l-10 -47h-447z" />
<glyph unicode="{" horiz-adv-x="350" d="M207 -168q-74 0 -74 69q0 17 4 38l47 221q12 56 1 73q-7 11 -54 33l7 35q28 11 68 32q19 18 30 73l47 221q23 107 116 107h26l-10 -48h-25q-29 0 -44 -25q-8 -14 -17 -58l-42 -199q-14 -66 -42 -95q-13 -13 -40 -26q22 -13 29 -25q16 -28 1 -96l-42 -198q-9 -45 -7 -59 q3 -25 32 -25h25l-10 -48h-26z" />
<glyph unicode="|" horiz-adv-x="233" d="M84 -32l157 738h51l-157 -738h-51z" />
<glyph unicode="}" horiz-adv-x="350" d="M258 233q-19 -18 -31 -73l-47 -221q-23 -107 -116 -107h-26l10 48h25q30 0 44 25q8 14 17 59l42 198q15 68 43 96q12 12 39 25q-21 13 -28 26q-16 29 -2 95l42 199q9 44 7 58q-3 25 -32 25h-25l10 48h26q75 0 75 -69q0 -17 -5 -38l-47 -221q-13 -61 3 -76q12 -11 51 -29 l-7 -35q-29 -11 -68 -33z" />
<glyph unicode="~" horiz-adv-x="548" d="M455 351q-33 0 -109 30q-71 28 -91 28q-54 0 -79 -59h-62q41 104 152 104q32 0 105 -29.5t93 -29.5q56 0 80 61h62q-20 -53 -61.5 -79t-89.5 -26z" />
<glyph unicode="&#xa0;" />
<glyph unicode="&#xa1;" horiz-adv-x="194" d="M198 472q-26 0 -21 24l14 62q5 25 31 25q25 0 20 -25l-14 -62q-5 -24 -30 -24zM51 -95l109 512h51l-109 -512h-51z" />
<glyph unicode="&#xa2;" d="M271 -12q-63 0 -108 20l-33 -44h-54l50 67q-65 52 -65 141q0 30 7 64q26 122 113 194.5t211 72.5q35 0 65 -8l41 56h54l-52 -72q69 -37 75 -130l-52 -23q-4 81 -53 110l-276 -385q35 -16 86 -16q158 0 215 141l44 -21q-75 -167 -268 -167zM380 456q-101 0 -170 -60 t-91 -160q-6 -29 -6 -54q0 -67 43 -107l270 376q-21 5 -46 5z" />
<glyph unicode="&#xa3;" horiz-adv-x="584" d="M198 242q-5 -27 -5 -51q0 -75 46 -115.5t123 -40.5q94 0 176 68l31 -31q-101 -84 -216 -84q-96 0 -152 48q-60 51 -60 144q0 29 6 62h-77l18 47h69l16 74h-54l21 48h43q25 117 110.5 188.5t205.5 71.5q115 0 179 -83l-44 -33q-52 69 -146 69q-98 0 -165.5 -58.5 t-88.5 -154.5v0h298l-21 -48h-287l-16 -74h272l-18 -47h-264z" />
<glyph unicode="&#xa4;" horiz-adv-x="584" d="M522 191l-84 84q-48 -27 -103 -27q-56 0 -92 28l-120 -85l-31 30l121 86q-17 25 -17 55q0 61 53 107l-86 87l44 30l84 -86q48 26 102 26q55 0 91 -26l122 86l30 -30l-121 -86q17 -26 17 -56q0 -60 -51 -108l84 -85zM384 481q-46 0 -84 -24q-41 -26 -51 -69q-2 -10 -2 -19 q0 -36 32 -58q27 -18 65 -18q47 0 85 24q42 27 51 70q2 10 2 20q0 37 -32 57q-27 17 -66 17z" />
<glyph unicode="&#xa5;" horiz-adv-x="645" d="M419 328l-8 -36h212l-10 -47h-212l-16 -74h212l-10 -48h-212l-26 -123h-51l26 123h-212l10 48h212l16 74h-212l10 47h212l8 36l-247 350h66l215 -304l346 304h65z" />
<glyph unicode="&#xa6;" horiz-adv-x="233" d="M168 364l71 332h51l-71 -332h-51zM86 -23l71 332h51l-71 -332h-51z" />
<glyph unicode="&#xa7;" horiz-adv-x="584" d="M435 145q58 -29 58 -84q0 -12 -2 -25q-15 -68 -81 -108q-60 -36 -134 -36q-181 0 -181 129q0 22 6 49h51q-5 -22 -5 -40q0 -91 134 -91q56 0 98 22q50 25 61 75q2 9 2 17q0 47 -65 60l-149 30q-37 12 -63 41t-26 66q0 15 5 31q25 86 118 116q-58 29 -58 84q0 12 3 26 q14 68 81 108q60 36 133 36q182 0 182 -129q0 -23 -6 -50h-51q5 22 5 41q0 91 -134 91q-54 0 -98 -22q-51 -27 -61 -75q-2 -8 -2 -15q0 -35 41 -52q18 -8 120 -29q48 -4 84 -23q60 -30 60 -87q0 -13 -3 -28q-20 -95 -123 -128zM359 366q-120 0 -158 -69q-6 -15 -6 -32 q0 -46 52 -70q40 -18 92 -18q59 0 102 19q54 25 66 75q-3 95 -148 95z" />
<glyph unicode="&#xa8;" horiz-adv-x="214" d="M281 547q-25 0 -20 20l8 38q4 19 29 19q26 0 22 -19l-8 -38q-5 -20 -31 -20zM166 547q-26 0 -21 20l8 38q4 19 30 19q25 0 21 -19l-8 -38q-5 -20 -30 -20z" />
<glyph unicode="&#xa9;" horiz-adv-x="560" d="M335 236q-87 0 -147 41q-69 46 -69 129q0 23 5 47q21 98 112 160q87 59 190 59q86 0 147 -43q68 -48 68 -130q0 -22 -5 -45q-20 -98 -111 -160q-86 -58 -190 -58zM418 624q-82 0 -151 -45q-73 -48 -90 -125q-3 -18 -3 -35q0 -64 54 -102q48 -34 115 -34q82 0 150 45 q74 48 90 125q4 18 4 35q0 64 -54 102q-49 34 -115 34zM358 308q-56 0 -93 26q-41 29 -41 83q0 16 4 34q14 66 67 103q50 36 119 36q121 0 116 -118h-54q0 70 -73 70q-45 0 -79 -24t-43 -67q-3 -12 -3 -23q0 -72 91 -72q61 0 99 73h56q-64 -121 -166 -121z" />
<glyph unicode="&#xaa;" horiz-adv-x="378" d="M371 348l7 32q-50 -38 -118 -38q-59 0 -94.5 30.5t-35.5 87.5q0 19 4 40q16 72 68.5 115t126.5 43q68 0 100 -36l8 35h53l-66 -309h-53zM360 607q-12 4 -43 4q-50 0 -84.5 -30.5t-45.5 -80.5q-3 -17 -3 -31q0 -80 86 -80q49 0 86 31.5t47 79.5q4 17 4 32q0 29 -14.5 49.5 t-32.5 25.5z" />
<glyph unicode="&#xab;" horiz-adv-x="391" d="M227 258l6 31l204 116l-11 -53l-135 -78l101 -79l-10 -50zM111 258l6 31l204 116l-11 -53l-135 -78l101 -79l-10 -50z" />
<glyph unicode="&#xac;" horiz-adv-x="602" d="M532 134l27 126h-470l9 42h521l-36 -168h-51z" />
<glyph unicode="&#xad;" horiz-adv-x="350" d="M90 254l4 20h287l-4 -20h-287z" />
<glyph unicode="&#xae;" horiz-adv-x="543" d="M324 236q-86 0 -146 42q-69 47 -69 129q0 22 5 46q21 98 112 160q87 59 190 59q85 0 146 -42q69 -48 69 -130q0 -22 -6 -46q-21 -100 -111 -161q-84 -57 -190 -57zM407 624q-83 0 -150 -45q-73 -48 -90 -125q-4 -19 -4 -36q0 -66 54 -103q47 -32 116 -32q83 0 150 45 q73 48 89 125q11 53 -8.5 92.5t-66.5 60.5q-41 18 -90 18zM469 447q18 -19 11 -54l-17 -77h-54l16 76q7 31 -38 31h-73l-23 -107h-53l58 270h129q85 0 84 -59q0 -51 -40 -80zM414 537h-76l-14 -65h71q51 0 59 34q6 31 -40 31z" />
<glyph unicode="&#xaf;" horiz-adv-x="313" d="M147 597l4 19h274l-4 -19h-274z" />
<glyph unicode="&#xb0;" horiz-adv-x="420" d="M292 385q-55 0 -94 26q-45 30 -45 82q0 75 74 125q56 37 121 37q55 0 94 -26q46 -30 46 -82q0 -12 -3 -26q-13 -61 -73 -100q-55 -36 -120 -36zM340 611q-46 0 -83 -23q-42 -25 -51 -67q-2 -10 -2 -18q0 -36 32 -56q27 -18 65 -18q47 0 84 23q41 25 51 68q2 10 2 19 q0 36 -33 56q-27 16 -65 16z" />
<glyph unicode="&#xb1;" horiz-adv-x="630" d="M388 226l-35 -164h-51l35 164h-191l10 46h191l34 161h51l-34 -161h192l-10 -46h-192zM98 -3l10 47h434l-10 -47h-434z" />
<glyph unicode="&#xb2;" horiz-adv-x="392" d="M75 256q26 120 170 193l121 61q51 27 51 57q0 47 -88 47q-116 0 -141 -114h-54q35 162 201 162q137 0 137 -83q0 -12 -3 -26q-11 -52 -96 -92l-97 -46q-106 -51 -134 -112h293l-10 -47h-350z" />
<glyph unicode="&#xb3;" horiz-adv-x="426" d="M272 252q-66 0 -108 22q-54 28 -54 87q0 15 4 32l5 24h55l-7 -33q-2 -8 -2 -16q0 -37 40 -55q31 -13 73 -13q49 0 86 15q49 20 58 60q2 9 2 16q-1 56 -102 56h-51l10 48h52q120 0 120 72q0 47 -99 47q-125 0 -148 -108h-54q33 156 211 156q54 0 93 -16q52 -23 52 -70 q0 -9 -2 -20q-12 -58 -69 -85q42 -23 42 -69q0 -13 -3 -27q-14 -62 -79 -95q-55 -28 -125 -28z" />
<glyph unicode="&#xb4;" horiz-adv-x="212" d="M183 536q-9 -7 -22 -7q-27 0 -22 20q1 8 11 15l134 101q11 8 23 8q26 0 22 -21q-2 -9 -12 -16z" />
<glyph unicode="&#xb5;" d="M318 -15q-24 -3 -49 -3q-121 0 -162 78l-49 -231h-51l140 659h51l-57 -268q-7 -32 -7 -59q0 -132 145 -132q156 0 186 139l68 320h51l-69 -321q-24 -114 -122 -159q-15 -7 -17 -19q-7 -33 74 -33l-11 -51q-45 0 -77 12q-46 18 -46 55q0 6 2 13z" />
<glyph unicode="&#xb6;" horiz-adv-x="496" d="M370 -133l162 764h-56l-162 -764h-51l79 371q-84 -1 -141 43q-62 48 -62 129q0 23 5 48q21 99 114 162q86 59 191 59q4 0 8 -1h136l-172 -811h-51z" />
<glyph unicode="&#xb7;" horiz-adv-x="209" d="M179 280q-26 0 -22 21l10 46q4 20 30 20q25 0 21 -20l-10 -46q-4 -21 -29 -21z" />
<glyph unicode="&#xb8;" horiz-adv-x="259" d="M86 -174q-39 0 -108 19l33 40q50 -16 81 -16q66 0 73 30q3 18 -42 21q-27 2 -55 -9l6 26l24 72h50l-12 -46q85 0 85 -51q0 -7 -2 -16q-15 -70 -133 -70z" />
<glyph unicode="&#xb9;" horiz-adv-x="287" d="M223 260l69 323l-103 -54h-94l227 124h41l-84 -393h-56z" />
<glyph unicode="&#xba;" horiz-adv-x="413" d="M279 350q-61 0 -100 28q-45 31 -45 90q0 16 4 35q15 72 76 114q57 39 133 39q62 0 101 -28q46 -31 46 -89q0 -17 -4 -36q-15 -72 -77 -114q-57 -39 -134 -39zM337 614q-55 0 -97 -29.5t-53 -81.5q-3 -14 -3 -27q0 -42 32 -65q29 -19 73 -19q57 0 97 28q44 29 55 83 q3 15 3 28q0 42 -34 64q-29 19 -73 19z" />
<glyph unicode="&#xbb;" horiz-adv-x="381" d="M203 145l10 50l135 79l-101 78l11 53l154 -116l-6 -31zM87 145l10 50l135 79l-101 78l11 53l154 -116l-6 -31z" />
<glyph unicode="&#xbc;" horiz-adv-x="816" d="M707 131l-28 -131h-50l28 131h-274l228 279h56l-192 -234h191l50 235l50 -2l-50 -233h92l-9 -45h-92zM231 0h-54l496 694h54zM245 252l71 336l-106 -58h-86l217 123h40l-85 -401h-51z" />
<glyph unicode="&#xbd;" horiz-adv-x="803" d="M423 0q29 128 180 202l98 48q58 28 64 56q2 8 2 14q0 50 -90 50q-118 0 -144 -119h-49q36 163 198 163q134 0 134 -84q0 -12 -3 -26q-11 -50 -88 -88q-20 -10 -100 -51q-115 -59 -140 -121h292l-9 -44h-345zM220 0h-54l497 694h54zM234 252l71 336l-105 -58h-87l217 123 h40l-85 -401h-51z" />
<glyph unicode="&#xbe;" horiz-adv-x="906" d="M798 131l-28 -131h-50l28 131h-274l229 279h56l-193 -234h191l50 235l50 -2l-50 -233h92l-9 -45h-92zM322 0h-54l497 694h54zM281 244q-158 0 -159 104q0 18 4 38l5 23h49l-7 -31q-2 -9 -2 -18q0 -38 42 -57q31 -14 74 -14q51 0 89 16q50 21 59 63q2 10 2 18 q0 60 -104 60h-48l9 44h49q124 0 124 77q0 50 -102 50q-127 0 -150 -111h-49q34 155 207 155q144 0 144 -85q0 -11 -2 -22q-13 -59 -76 -87q48 -25 48 -74q0 -12 -3 -25q-13 -61 -78 -95q-56 -29 -125 -29z" />
<glyph unicode="&#xbf;" d="M360 488q-25 0 -20 24l13 62q5 25 30 25q26 0 21 -25l-13 -62q-5 -24 -31 -24zM226 -95q-75 0 -126 28q-64 35 -64 104q0 86 83 156q40 31 119 93q64 52 76 111l8 37h52l-7 -33q-21 -99 -142 -182q-61 -41 -82 -61q-42 -40 -52 -86q-3 -13 -3 -25q0 -52 52 -76 q39 -19 97 -19q92 0 146 43t82 133l42 -29q-68 -194 -281 -194z" />
<glyph unicode="&#xc0;" horiz-adv-x="676" d="M560 695q-22 -12 -33 4l-89 119q-6 8 -5 17q3 11 15 18q9 6 17 6q10 0 17 -10l89 -118q7 -8 5 -18q-3 -11 -16 -18zM618 0l-51 215h-362l-145 -215h-58l463 684h47l162 -684h-56zM474 610l-237 -347h319z" />
<glyph unicode="&#xc1;" horiz-adv-x="676" d="M452 701q-10 -9 -22 -9q-26 0 -21 24q2 10 11 17l139 118q12 10 22 10q25 0 20 -24q-2 -10 -11 -17zM618 0l-51 215h-362l-145 -215h-58l463 684h47l162 -684h-56zM474 610l-237 -347h319z" />
<glyph unicode="&#xc2;" horiz-adv-x="676" d="M563 687l-56 103l-100 -103h-58l152 160h37l87 -160h-62zM618 0l-51 215h-362l-145 -215h-58l463 684h47l162 -684h-56zM473 609l-236 -346h319z" />
<glyph unicode="&#xc3;" horiz-adv-x="676" d="M564 701q-21 0 -70 28q-44 25 -55 25q-33 0 -50 -66l-40 30q7 35 36.5 59t65.5 24q19 0 68 -28q45 -25 55 -25q34 0 51 64l41 -26q-11 -40 -40.5 -62.5t-61.5 -22.5zM618 0l-51 215h-362l-145 -215h-58l463 683h47l162 -683h-56zM473 608l-236 -346h319z" />
<glyph unicode="&#xc4;" horiz-adv-x="676" d="M546 696q-25 0 -20 25l12 53q5 25 30 25q26 0 21 -25l-12 -53q-5 -25 -31 -25zM431 696q-26 0 -21 25l12 53q5 25 31 25q25 0 20 -25l-12 -53q-5 -25 -30 -25zM618 0l-51 215h-362l-145 -215h-58l463 682h47l162 -682h-56zM473 608l-236 -346h319z" />
<glyph unicode="&#xc5;" horiz-adv-x="676" d="M488 703q-31 0 -54 17.5t-23 48.5q0 49 43 80q33 24 71 24q32 0 54.5 -17.5t22.5 -48.5q0 -49 -43 -80q-32 -24 -71 -24zM618 0l-51 216h-362l-145 -216h-58l464 685h47l161 -685h-56zM514 823q-40 0 -48 -35q-1 -6 -1 -11q1 -25 34 -25q50 0 50 46q0 25 -35 25zM474 610 l-237 -347h319z" />
<glyph unicode="&#xc6;" horiz-adv-x="1077" d="M575 0l70 330h-253l-373 -330h-65l767 678h464l-10 -47h-414l-54 -254h46v-1h315l-10 -46h-361l-59 -283h418l-10 -47h-471zM446 377h209l50 227z" />
<glyph unicode="&#xc7;" horiz-adv-x="719" d="M758 527q-53 110 -221 110q-144 0 -246.5 -81t-132.5 -221q-9 -43 -9 -80q0 -108 71 -166q66 -54 178 -54q161 0 270 112l38 -27q-129 -133 -317 -133q-164 0 -240 93q-54 65 -53 163q0 41 10 88q35 163 154.5 258.5t287.5 95.5q195 0 259 -131zM337 -174q-39 0 -109 21 l35 44q50 -17 81 -17q65 0 72 34q5 20 -39 24q-28 3 -56 -10l7 29l25 81h51l-13 -52q83 0 83 -56q0 -9 -2 -20q-17 -78 -135 -78z" />
<glyph unicode="&#xc8;" horiz-adv-x="564" d="M501 686q-22 -14 -35 4l-88 118q-6 8 -4 18t13 17t19 7q9 0 17 -10l88 -118q6 -7 4 -17q-3 -12 -14 -19zM42 0l145 684h516l-10 -48h-466l-54 -256h413l-10 -47h-413l-61 -285h471l-10 -48h-521z" />
<glyph unicode="&#xc9;" horiz-adv-x="564" d="M392 690q-11 -9 -22 -9q-26 0 -21 24q2 10 10 17l140 118q10 9 20 9q27 0 22 -24q-1 -9 -11 -17zM42 0l145 684h516l-10 -48h-466l-54 -256h413l-10 -47h-413l-61 -285h471l-10 -48h-521z" />
<glyph unicode="&#xca;" horiz-adv-x="564" d="M506 697l-56 103l-100 -103h-58l152 160h37l88 -160h-63zM42 0l145 684h516l-10 -47h-466l-54 -257h413l-10 -47h-413l-61 -285h471l-10 -48h-521z" />
<glyph unicode="&#xcb;" horiz-adv-x="564" d="M490 704q-26 0 -21 25l11 53q6 25 32 25q25 0 19 -25l-11 -53q-5 -25 -30 -25zM374 704q-25 0 -20 25l11 53q6 25 31 25q26 0 20 -25l-11 -53q-5 -25 -31 -25zM42 0l145 683h516l-10 -48h-466l-54 -256h413l-10 -46h-413l-61 -286h471l-10 -47h-521z" />
<glyph unicode="&#xcc;" horiz-adv-x="134" d="M289 701q-22 -13 -35 4l-88 118q-6 8 -4 17q2 11 15 19q21 14 35 -4l88 -118q5 -7 3 -17q-3 -12 -14 -19zM42 0l145 684h51l-145 -684h-51z" />
<glyph unicode="&#xcd;" horiz-adv-x="134" d="M179 701q-10 -9 -22 -9q-27 0 -22 24q2 9 12 17l138 118q12 10 23 10q26 0 21 -24q-2 -9 -12 -17zM42 0l145 684h51l-145 -684h-51z" />
<glyph unicode="&#xce;" horiz-adv-x="134" d="M291 693l-56 103l-102 -103h-57l152 160h37l88 -160h-62zM42 0l145 684h51l-145 -684h-51z" />
<glyph unicode="&#xcf;" horiz-adv-x="134" d="M276 711q-25 0 -19 26l11 53q5 24 30 24q26 0 21 -24l-11 -53q-6 -26 -32 -26zM161 711q-27 0 -21 26l11 53q5 24 32 24q25 0 20 -24l-11 -53q-6 -26 -31 -26zM42 0l145 683h51l-145 -683h-51z" />
<glyph unicode="&#xd0;" horiz-adv-x="680" d="M277 0h-235l67 316h-37l10 48h37l67 314h273q277 0 277 -237q0 -47 -12 -103q-35 -165 -158 -254q-117 -84 -289 -84zM448 631h-221l-57 -267h198l-10 -48h-198l-57 -269h187q151 0 249 72q103 75 134 219q11 51 11 93q0 200 -236 200z" />
<glyph unicode="&#xd1;" horiz-adv-x="680" d="M556 695q-21 0 -70 28q-45 25 -55 25q-33 0 -50 -66l-41 30q8 34 37.5 58.5t64.5 24.5q20 0 69 -28q44 -25 55 -25q33 0 50 63l42 -24q-11 -40 -40.5 -63t-61.5 -23zM585 0l-363 606l-129 -606h-51l145 682h53q70 -123 182 -303q137 -221 182 -300l128 603h51l-145 -682 h-53z" />
<glyph unicode="&#xd2;" horiz-adv-x="757" d="M600 699q-21 -12 -34 4l-88 118q-6 10 -4 19q4 21 31 21q12 0 18 -8l88 -118q6 -7 4 -17q-3 -12 -15 -19zM661 87q-80 -65 -144 -82q-42 -12 -139 -12q-134 0 -212 61q-85 67 -84 195q0 43 11 93q34 162 149 250.5t282 88.5q132 0 210 -57q88 -65 88 -190q0 -43 -10 -92 q-35 -162 -151 -255zM631 625q-32 9 -117 9q-145 0 -243 -76t-127 -216q-10 -44 -10 -81q0 -110 73 -167q67 -53 181 -53q145 0 243.5 79.5t129.5 221.5q9 45 9 83q0 81 -45 133t-94 67z" />
<glyph unicode="&#xd3;" horiz-adv-x="757" d="M490 706q-12 -8 -21 -8q-26 0 -21 23q2 10 12 17l138 119q19 17 37 4q10 -7 7 -18q-2 -10 -12 -18zM661 87q-80 -65 -144 -82q-42 -12 -139 -12q-134 0 -212 61q-85 67 -84 195q0 43 11 93q34 162 149 250.5t282 88.5q132 0 210 -57q88 -65 88 -190q0 -43 -10 -92 q-35 -162 -151 -255zM631 625q-32 9 -117 9q-145 0 -243 -76t-127 -216q-10 -44 -10 -81q0 -110 73 -167q67 -53 181 -53q145 0 243.5 79.5t129.5 221.5q9 45 9 83q0 81 -45 133t-94 67z" />
<glyph unicode="&#xd4;" horiz-adv-x="757" d="M606 705l-57 102l-101 -102h-57l151 159h36l89 -159h-61zM661 87q-80 -65 -144 -82q-42 -12 -139 -12q-134 0 -212 61q-85 67 -84 195q0 43 11 93q34 162 149 250.5t282 88.5q132 0 210 -57q88 -65 88 -190q0 -43 -10 -92q-35 -162 -151 -255zM631 625q-32 9 -117 9 q-145 0 -243 -76t-127 -216q-10 -44 -10 -81q0 -110 73 -167q67 -53 181 -53q145 0 243.5 79.5t129.5 221.5q9 45 9 83q0 81 -45 133t-94 67z" />
<glyph unicode="&#xd5;" horiz-adv-x="757" d="M600 716q-19 0 -69 28q-44 25 -55 25q-32 0 -52 -66l-38 30q7 34 37 58.5t64 24.5q20 0 69 -28q45 -25 54 -25q35 0 52 64l41 -26q-13 -40 -42 -62.5t-61 -22.5zM661 87q-80 -65 -144 -82q-42 -12 -139 -12q-133 0 -210 60q-86 66 -86 192q0 44 10 96q35 162 150 250.5 t282 88.5q132 0 210 -57q88 -65 88 -190q0 -43 -11 -92q-34 -161 -150 -254zM631 624q-32 9 -117 9q-145 0 -243 -76t-128 -216q-9 -43 -9 -81q0 -109 73 -167q67 -52 181 -52q145 0 243.5 79t128.5 221q10 44 10 82q0 82 -45 134t-94 67z" />
<glyph unicode="&#xd6;" horiz-adv-x="757" d="M588 711q-26 0 -20 26l11 53q5 24 31 24q25 0 20 -24l-11 -53q-6 -26 -31 -26zM472 711q-25 0 -19 26l11 53q5 24 30 24q26 0 21 -24l-11 -53q-6 -26 -32 -26zM661 87q-80 -65 -144 -82q-42 -12 -139 -12q-133 0 -210 60q-86 66 -86 192q0 44 10 96q35 162 150 250.5 t282 88.5q132 0 210 -57q88 -65 88 -190q0 -43 -11 -92q-34 -161 -150 -254zM631 623q-32 9 -118 9q-144 0 -242 -75.5t-128 -215.5q-9 -43 -9 -81q0 -109 73 -167q67 -52 181 -52q145 0 243.5 79t128.5 221q10 44 10 81q0 83 -45 134.5t-94 66.5z" />
<glyph unicode="&#xd7;" horiz-adv-x="490" d="M404 109l-112 111l-159 -109l-30 30l158 111l-111 109l44 31l111 -110l158 110l32 -32l-158 -108l112 -113z" />
<glyph unicode="&#xd8;" horiz-adv-x="757" d="M661 85q-80 -64 -144 -81q-42 -12 -140 -12q-76 0 -132 20l-30 -41h-54l42 59q-121 66 -121 220q0 42 10 89q34 161 151 250q113 87 280 87q75 0 131 -17l33 45h54l-45 -62q125 -66 125 -212q0 -42 -10 -91q-34 -161 -150 -254zM664 598l-387 -542q47 -17 110 -17 q145 0 244 79t129 221q9 44 9 81q0 126 -105 178zM513 629q-144 0 -241 -74q-99 -77 -129 -216q-9 -41 -9 -77q0 -58 25 -108q27 -53 76 -79l388 540q-48 14 -110 14z" />
<glyph unicode="&#xd9;" horiz-adv-x="664" d="M552 691q-18 -11 -34 3l-89 120q-6 8 -4 17q2 12 18 20q19 10 32 -6l88 -117q6 -8 4 -18q-2 -11 -15 -19zM331 -7q-244 0 -244 182q0 38 10 83l90 426h51l-90 -425q-7 -35 -7 -65q0 -153 200 -153q238 0 283 214l91 429h51l-91 -428q-55 -263 -344 -263z" />
<glyph unicode="&#xda;" horiz-adv-x="664" d="M442 697q-9 -8 -22 -8q-26 0 -21 23q2 10 12 18l138 117q12 10 23 10q26 0 21 -24q-2 -9 -12 -17zM331 -7q-244 0 -244 182q0 38 10 83l90 426h51l-90 -425q-7 -35 -7 -65q0 -153 200 -153q238 0 283 214l91 429h51l-91 -428q-55 -263 -344 -263z" />
<glyph unicode="&#xdb;" horiz-adv-x="664" d="M558 695l-58 103l-100 -103h-58l152 160h37l88 -160h-61zM331 -7q-244 0 -244 182q0 38 10 83l90 426h51l-90 -425q-7 -35 -7 -65q0 -153 200 -153q238 0 283 214l91 429h51l-91 -428q-55 -263 -344 -263z" />
<glyph unicode="&#xdc;" horiz-adv-x="664" d="M541 711q-26 0 -20 26l11 53q5 24 31 24q25 0 20 -24l-11 -53q-6 -26 -31 -26zM425 711q-25 0 -19 26l11 53q5 24 30 24q26 0 21 -24l-11 -53q-6 -26 -32 -26zM331 -7q-244 0 -244 182q0 37 10 82l90 426h51l-90 -425q-8 -35 -8 -65q0 -152 201 -152q238 0 283 213 l91 429h51l-91 -428q-55 -262 -344 -262z" />
<glyph unicode="&#xdd;" horiz-adv-x="657" d="M441 701q-11 -9 -22 -9q-26 0 -21 24q2 10 11 17l139 118q12 10 23 10q26 0 21 -24q-2 -9 -12 -17zM425 331l-70 -331h-51l70 331l-246 353h66l215 -306l346 306h65z" />
<glyph unicode="&#xde;" horiz-adv-x="425" d="M271 168h-141l-36 -168h-51l144 678h51l-31 -147h142q118 0 118 -115q0 -31 -8 -69q-38 -179 -188 -179zM338 483h-141l-58 -270l142 1q98 1 126 133q6 31 6 55q0 81 -75 81z" />
<glyph unicode="&#xdf;" horiz-adv-x="505" d="M191 -30l10 47q243 0 282 187q5 23 5 43q0 77 -69 114q-54 29 -139 29l10 48q106 0 148 15q63 22 76 84q4 16 4 30q0 50 -52 67q-30 9 -94 9q-141 0 -170 -134l-108 -510h-51l83 391h-35l10 49h35q9 40 24 96q41 155 224 155q187 0 187 -109q0 -18 -5 -39 q-24 -101 -124 -130q36 -18 63 -57q34 -49 34 -106q0 -22 -5 -45q-49 -234 -343 -234z" />
<glyph unicode="&#xe0;" horiz-adv-x="552" d="M433 510q-20 -12 -33 4l-89 117q-6 8 -4 18q2 11 15 18q8 6 16 6q11 0 19 -10l88 -117q6 -7 3 -17q-2 -12 -15 -19zM463 0l19 88q-88 -99 -224 -99q-117 0 -167 75q-32 47 -32 113q0 33 8 70q24 116 106 188t199 72q134 0 178 -96l20 94h51l-107 -505h-51zM357 460 q-92 0 -156.5 -60.5t-83.5 -152.5q-7 -32 -7 -60q0 -72 41.5 -111.5t115.5 -39.5q91 0 160 60t89 151q7 34 7 63q0 74 -44.5 112t-121.5 38z" />
<glyph unicode="&#xe1;" horiz-adv-x="552" d="M335 514q-11 -8 -20 -8q-26 0 -22 23q2 9 12 17l138 117q12 10 23 10q25 0 20 -23q-2 -11 -11 -18zM475 0l19 88q-88 -99 -224 -99q-117 0 -167 75q-32 47 -32 113q0 33 8 70q24 116 106 188t199 72q134 0 178 -96l20 94h51l-107 -505h-51zM369 460q-92 0 -156.5 -60.5 t-83.5 -152.5q-7 -32 -7 -60q0 -72 41.5 -111.5t115.5 -39.5q91 0 160 60t89 151q7 34 7 63q0 74 -44.5 112t-121.5 38z" />
<glyph unicode="&#xe2;" horiz-adv-x="552" d="M452 517l-58 100l-100 -100h-57l150 157h36l90 -157h-61zM475 0l19 88q-88 -99 -224 -99q-117 0 -167 75q-32 47 -32 113q0 33 8 70q24 116 106 188t199 72q134 0 178 -96l20 94h51l-107 -505h-51zM369 460q-92 0 -156.5 -60.5t-83.5 -152.5q-7 -32 -7 -60 q0 -72 41.5 -111.5t115.5 -39.5q91 0 160 60t89 151q7 34 7 63q0 74 -44.5 112t-121.5 38z" />
<glyph unicode="&#xe3;" horiz-adv-x="552" d="M445 527q-20 0 -68 26t-56 26q-32 0 -52 -65l-38 30q7 34 37 58t64 24q19 0 69 -28q43 -24 54 -24q35 0 51 63l42 -26q-14 -40 -42.5 -62t-60.5 -22zM475 0l19 88q-88 -99 -224 -99q-116 0 -167 75q-33 47 -33 113q0 32 8 69q25 116 105 187q84 73 201 73q134 0 178 -96 l20 94h51l-107 -504h-51zM369 459q-91 0 -158 -63q-63 -59 -83 -150q-6 -32 -6 -59q0 -72 41.5 -111.5t115.5 -39.5q92 0 160.5 59t87.5 151q7 34 7 63q0 74 -44 112t-121 38z" />
<glyph unicode="&#xe4;" horiz-adv-x="552" d="M446 522q-26 0 -21 25l12 53q5 24 31 24q25 0 20 -24l-12 -53q-5 -25 -30 -25zM330 522q-25 0 -20 25l12 53q5 24 30 24q26 0 21 -24l-12 -53q-5 -25 -31 -25zM475 -1l19 89q-88 -99 -224 -99q-116 0 -167 75q-33 47 -33 113q0 32 8 69q25 115 107 187.5t199 72.5 q134 0 178 -96l20 94h51l-107 -505h-51zM369 459q-91 0 -158 -63q-63 -59 -83 -150q-6 -32 -6 -59q0 -72 41.5 -111.5t115.5 -39.5q92 0 160.5 59t87.5 151q7 34 7 63q0 74 -44 112t-121 38z" />
<glyph unicode="&#xe5;" horiz-adv-x="552" d="M383 531q-32 0 -55 17.5t-23 48.5q0 49 42 80q33 23 72 23q31 0 53.5 -18t22.5 -48q0 -49 -42 -79q-32 -24 -70 -24zM475 0l19 88q-88 -99 -224 -99q-117 0 -167 75q-32 47 -32 113q0 33 8 70q24 117 104 188q84 73 201 73q134 0 179 -96l20 94h51l-108 -506h-51z M408 651q-50 0 -49 -46q0 -25 34 -25q40 0 48 35q1 6 1 11q0 25 -34 25zM369 461q-91 0 -158 -63q-63 -59 -82 -151q-7 -32 -7 -59q0 -72 41.5 -112t115.5 -40q91 0 160 60t89 151q7 34 7 64q0 150 -166 150z" />
<glyph unicode="&#xe6;" horiz-adv-x="984" d="M562 226l-2 -9q-6 -29 -6 -54q0 -127 168 -127q145 0 216 119h52q-88 -166 -280 -166q-134 0 -181 82l-15 -72h-51l18 88q-87 -98 -223 -98q-117 0 -168 74q-32 47 -32 112q0 32 8 68q24 116 106 186.5t198 70.5q134 0 179 -95l20 93h51l-20 -94q95 96 222 96 q92 0 148 -43q62 -47 62 -135q0 -28 -7 -60l-8 -35zM812 453q-83 0 -153 -50t-87 -130v0h399q3 19 3 37q0 70 -46 108q-43 35 -116 35zM355 453q-92 0 -156 -59t-83 -151q-7 -31 -7 -58q0 -72 42 -110.5t116 -38.5q92 0 160 58t88 149q7 33 7 62q0 74 -45 111t-122 37z" />
<glyph unicode="&#xe7;" d="M270 -18q-94 0 -150 45q-60 49 -60 140q0 30 7 65q26 123 113 195.5t211 72.5q80 0 127 -37q52 -40 56 -117l-52 -24q-6 131 -143 131q-100 0 -170 -60.5t-91 -160.5q-6 -30 -6 -55q0 -73 47 -112q44 -36 120 -36q158 0 215 142l44 -21q-37 -82 -107 -125t-161 -43z M296 -22q83 0 83 -55q0 -9 -2 -19q-17 -78 -135 -78q-38 0 -108 21l33 44q52 -18 82 -18q66 0 73 34q4 20 -41 24q-27 3 -55 -10l6 29l27 80h50z" />
<glyph unicode="&#xe8;" d="M443 510q-19 -10 -33 4l-90 118q-6 8 -4 18q5 21 32 21q13 0 18 -7l89 -118q6 -8 4 -17q-2 -12 -16 -19zM110 229q-5 -27 -5 -50q0 -143 165 -143q145 0 216 121h52q-87 -168 -280 -168q-95 0 -147 44q-56 46 -56 137q0 35 9 77q24 115 108 187.5t201 72.5q92 0 147 -43 q62 -48 62 -136q0 -29 -7 -62l-8 -36zM363 460q-87 0 -151 -49.5t-91 -133.5h400q3 20 3 38q0 71 -46 109q-42 36 -115 36z" />
<glyph unicode="&#xe9;" d="M475 634l-141 -118q-12 -8 -21 -8q-26 0 -21 23q2 9 11 17l138 117q20 16 38 4q7 -8 5 -18q-1 -7 -9 -17zM110 229q-5 -27 -5 -50q0 -143 165 -143q145 0 216 121h52q-87 -168 -280 -168q-95 0 -147 44q-56 46 -56 137q0 35 9 77q24 115 108 187.5t201 72.5q92 0 147 -43 q62 -48 62 -136q0 -29 -7 -62l-8 -36zM363 460q-87 0 -151 -49.5t-91 -133.5h400q3 20 3 38q0 71 -46 109q-42 36 -115 36z" />
<glyph unicode="&#xea;" d="M450 517l-58 100l-100 -100h-58l152 157h37l88 -157h-61zM110 229q-5 -27 -5 -50q0 -143 165 -143q145 0 216 121h52q-87 -168 -280 -168q-95 0 -147 44q-56 46 -56 137q0 35 9 77q24 115 108 187.5t201 72.5q92 0 147 -43q62 -48 62 -136q0 -29 -7 -62l-8 -36zM363 460 q-87 0 -151 -49.5t-91 -133.5h400q3 20 3 38q0 71 -46 109q-42 36 -115 36z" />
<glyph unicode="&#xeb;" d="M432 522q-25 0 -20 25l12 53q5 24 30 24q26 0 21 -24l-12 -53q-5 -25 -31 -25zM317 522q-26 0 -21 25l12 53q5 24 31 24q25 0 20 -24l-12 -53q-5 -25 -30 -25zM110 229q-5 -27 -5 -50q0 -143 165 -143q145 0 216 120h52q-87 -167 -280 -167q-204 0 -204 180q0 35 9 77 q25 115 109 187.5t201 72.5q91 0 147 -44q61 -47 61 -135q0 -29 -7 -62l-7 -35zM363 459q-88 0 -151.5 -49.5t-90.5 -133.5h400q3 20 3 38q0 71 -44.5 108t-116.5 37z" />
<glyph unicode="&#xec;" horiz-adv-x="136" d="M248 510q-19 -10 -33 4l-89 117q-6 8 -4 18q2 11 15 18q8 6 16 6q10 0 18 -10l89 -117q6 -8 4 -17q-2 -12 -16 -19zM43 0l105 496h51l-105 -496h-51z" />
<glyph unicode="&#xed;" horiz-adv-x="136" d="M140 511q-11 -9 -22 -9q-26 0 -21 23q2 10 10 17l139 118q11 9 22 9q25 0 20 -24q-2 -10 -11 -17zM43 0l105 496h51l-105 -496h-51z" />
<glyph unicode="&#xee;" horiz-adv-x="136" d="M251 517l-51 99l-95 -99h-58l146 157h37l82 -157h-61zM43 0l105 496h51l-105 -496h-51z" />
<glyph unicode="&#xef;" horiz-adv-x="136" d="M240 522q-25 0 -20 26l12 52q5 24 30 24q26 0 21 -24l-12 -52q-5 -26 -31 -26zM125 522q-26 0 -21 26l12 52q5 24 31 24q25 0 20 -24l-12 -52q-5 -26 -30 -26zM43 0l105 494h51l-105 -494h-51z" />
<glyph unicode="&#xf0;" horiz-adv-x="564" d="M463 0l19 88q-88 -99 -224 -99q-117 0 -167 75q-32 47 -32 113q0 33 8 70q24 116 106 188t199 72q134 0 179 -95l31 149h-332l10 48h332l15 69h51l-144 -678h-51zM357 460q-92 0 -156.5 -60.5t-83.5 -152.5q-7 -32 -7 -59q0 -72 41.5 -112t115.5 -40q91 0 160 60t89 151 q7 34 7 63q0 74 -44.5 112t-121.5 38z" />
<glyph unicode="&#xf1;" d="M446 527q-20 0 -68 26t-57 26q-33 0 -50 -65l-40 30q7 33 37.5 57.5t63.5 24.5q19 0 69 -28q43 -24 55 -24q34 0 50 63l42 -26q-11 -39 -40.5 -61.5t-61.5 -22.5zM429 0l69 323q4 19 4 36q0 100 -129 100q-84 0 -143.5 -50t-76.5 -132l-59 -277h-51l105 494h51l-14 -67 q75 79 197 79q73 0 119 -29q54 -34 54 -103q0 -20 -4 -42l-71 -332h-51z" />
<glyph unicode="&#xf2;" horiz-adv-x="545" d="M453 510q-20 -12 -33 4l-89 117q-6 8 -4 18q2 11 15 18q8 6 16 6q11 0 19 -10l88 -117q6 -7 3 -17q-2 -12 -15 -19zM270 -11q-95 0 -153 49.5t-58 142.5q0 31 8 67q25 117 110.5 188t204.5 71q95 0 151 -48q59 -51 59 -143q0 -32 -7 -68q-25 -117 -110.5 -188t-204.5 -71 zM450 453q-22 7 -79 7q-97 0 -165 -58t-88 -154q-7 -30 -7 -57q0 -74 48 -116q45 -39 122 -39q96 0 164 58.5t89 153.5q6 31 6 57q0 57 -29 97t-61 51z" />
<glyph unicode="&#xf3;" horiz-adv-x="545" d="M343 510q-9 -8 -20 -8q-27 0 -22 24q2 9 10 16l139 118q11 9 23 9q26 0 21 -24q-2 -9 -12 -17zM270 -11q-95 0 -153 49.5t-58 142.5q0 31 8 67q25 117 110.5 188t204.5 71q95 0 151 -48q59 -51 59 -143q0 -32 -7 -68q-25 -117 -110.5 -188t-204.5 -71zM450 453 q-22 7 -79 7q-97 0 -165 -58t-88 -154q-7 -30 -7 -57q0 -74 48 -116q45 -39 122 -39q96 0 164 58.5t89 153.5q6 31 6 57q0 57 -29 97t-61 51z" />
<glyph unicode="&#xf4;" horiz-adv-x="545" d="M461 517l-58 100l-101 -100h-58l152 157h36l90 -157h-61zM270 -11q-95 0 -153 49.5t-58 142.5q0 31 8 67q25 117 110.5 188t204.5 71q95 0 151 -48q59 -51 59 -143q0 -32 -7 -68q-25 -117 -110.5 -188t-204.5 -71zM450 453q-22 7 -79 7q-97 0 -165 -58t-88 -154 q-7 -30 -7 -57q0 -74 48 -116q45 -39 122 -39q96 0 164 58.5t89 153.5q6 31 6 58q0 57 -29 96.5t-61 50.5z" />
<glyph unicode="&#xf5;" horiz-adv-x="545" d="M453 527q-22 0 -69.5 26t-54.5 26q-34 0 -51 -65l-40 30q7 35 36.5 58.5t65.5 23.5q18 0 68 -28q43 -24 55 -24q31 0 53 63l39 -26q-13 -39 -41.5 -61.5t-60.5 -22.5zM270 -11q-119 0 -175 73q-36 48 -36 117q0 32 8 68q24 117 110 188t205 71q94 0 151 -48 q59 -51 59 -143q0 -32 -7 -68q-25 -117 -110.5 -187.5t-204.5 -70.5zM449 452q-21 7 -78 7q-98 0 -165.5 -58t-87.5 -154q-7 -30 -7 -57q0 -74 48 -115q45 -39 122 -39q96 0 164 58t89 153q6 31 6 58q0 57 -29 96.5t-62 50.5z" />
<glyph unicode="&#xf6;" horiz-adv-x="545" d="M442 522q-26 0 -21 25l12 53q5 24 31 24q25 0 20 -24l-12 -53q-5 -25 -30 -25zM326 522q-25 0 -20 25l12 53q5 24 30 24q26 0 21 -24l-12 -53q-5 -25 -31 -25zM270 -11q-119 0 -175 73q-36 48 -36 117q0 32 8 68q24 116 110 187.5t205 71.5q94 0 151 -48q59 -51 59 -143 q0 -32 -7 -68q-25 -117 -110.5 -187.5t-204.5 -70.5zM449 452q-21 7 -78 7q-97 0 -165 -58t-88 -154q-7 -30 -7 -57q0 -74 48 -115q45 -39 122 -39q96 0 164 58t89 153q6 31 6 57q0 57 -29 97t-62 51z" />
<glyph unicode="&#xf7;" horiz-adv-x="592" d="M358 291q-25 0 -20 24l13 60q5 23 30 23q26 0 21 -23l-13 -60q-5 -24 -31 -24zM81 217l10 46h507l-10 -46h-507zM312 74q-25 0 -20 24l12 59q6 25 31 25q26 0 20 -25l-12 -59q-5 -24 -31 -24z" />
<glyph unicode="&#xf8;" horiz-adv-x="545" d="M269 -13q-55 0 -96 15l-35 -49h-54l50 70q-76 53 -76 152q0 32 8 69q25 116 110.5 187t204.5 71q50 0 88 -12l44 59h54l-56 -80q81 -52 81 -155q0 -33 -8 -70q-25 -116 -110.5 -186.5t-204.5 -70.5zM478 426l-273 -380q31 -12 75 -12q96 0 164.5 57.5t88.5 152.5 q6 28 6 54q0 85 -61 128zM370 455q-98 0 -165.5 -57.5t-87.5 -153.5q-6 -30 -6 -55q0 -77 54 -121l273 378q-30 9 -68 9z" />
<glyph unicode="&#xf9;" d="M443 506q-22 -12 -34 4l-89 118q-6 8 -4 17q2 10 14 17q8 7 16 7q11 0 19 -10l89 -117q6 -8 4 -18q-2 -11 -15 -18zM429 0l14 68q-75 -79 -195 -79q-76 0 -121 30q-53 36 -53 107q0 22 6 48l68 322h51l-68 -321q-4 -22 -5 -40q0 -99 132 -99q88 0 146 53q54 49 73 138 l57 269h51l-105 -496h-51z" />
<glyph unicode="&#xfa;" d="M335 514q-9 -8 -21 -8q-26 0 -22 23q3 10 11 17l138 117q12 10 23 10q26 0 21 -24q-2 -10 -12 -18zM429 0l14 68q-75 -79 -195 -79q-76 0 -121 30q-53 36 -53 107q0 22 6 48l68 322h51l-68 -321q-4 -22 -5 -40q0 -99 132 -99q88 0 146 53q55 50 73 139l57 268h51 l-105 -496h-51z" />
<glyph unicode="&#xfb;" d="M450 517l-58 100l-100 -100h-58l152 157h37l88 -157h-61zM429 0l14 68q-75 -79 -195 -79q-76 0 -121 30q-53 36 -53 107q0 22 6 48l68 322h51l-68 -321q-4 -22 -5 -40q0 -99 132 -99q88 0 146 53q55 50 73 139l57 268h51l-105 -496h-51z" />
<glyph unicode="&#xfc;" d="M431 522q-25 0 -20 25l12 53q5 24 30 24q26 0 21 -24l-12 -53q-5 -25 -31 -25zM316 522q-26 0 -21 25l12 53q5 24 31 24q25 0 20 -24l-12 -53q-5 -25 -30 -25zM429 -1l14 69q-75 -79 -195 -79q-75 0 -121 30q-53 36 -53 106q0 23 6 48l68 321h51l-68 -320q-5 -22 -5 -40 q0 -98 132 -98q179 0 219 191l57 267h51l-105 -495h-51z" />
<glyph unicode="&#xfd;" horiz-adv-x="506" d="M466 634l-142 -120q-11 -7 -20 -7q-10 0 -17 7t-5 17q2 9 12 16l138 118q20 17 38 4q7 -8 5 -18q-1 -7 -9 -17zM203 -179q-187 0 -187 138q0 19 4 40h51q-2 -12 -2 -24q0 -106 146 -106q186 0 220 157l7 37q-76 -80 -196 -80q-75 0 -120 31q-52 36 -52 107q0 23 5 49 l69 324h51l-69 -323q-4 -22 -4 -41q0 -99 131 -99q89 0 146 53q55 50 74 140l57 270h51l-100 -469q-43 -204 -282 -204z" />
<glyph unicode="&#xfe;" horiz-adv-x="564" d="M290 -16q-133 0 -179 96l-53 -248h-51l180 846h51l-57 -268q87 96 219 96q93 0 147.5 -48t54.5 -139q0 -34 -9 -73q-25 -118 -103 -189q-82 -73 -200 -73zM396 459q-95 0 -162 -58.5t-87 -152.5q-8 -37 -8 -68q0 -149 165 -149q93 0 158 62q61 58 81 152q7 32 7 60 q0 72 -41 113t-113 41z" />
<glyph unicode="&#xff;" horiz-adv-x="510" d="M424 521q-25 0 -20 26l12 53q5 24 30 24q26 0 21 -23l-12 -54q-5 -26 -31 -26zM309 521q-26 0 -21 26l12 53q5 24 31 24q25 0 20 -23l-12 -54q-5 -26 -30 -26zM203 -179q-187 0 -187 138q0 19 4 40h51q-2 -13 -2 -24q0 -107 146 -107q186 0 219 157l8 37 q-76 -79 -196 -79q-75 0 -120 30q-53 36 -53 107q0 23 6 49l69 324h51l-69 -323q-5 -22 -5 -41q0 -99 131 -99q90 0 147 53q54 50 73 140l58 270h51l-100 -469q-43 -203 -282 -203z" />
<glyph unicode="&#x152;" horiz-adv-x="1010" d="M471 0q-43 -8 -90 -8q-166 0 -243 93q-54 65 -54 161q0 43 11 91q34 162 150.5 254t282.5 92q34 0 65 -5h532l-10 -47h-394q104 -71 104 -203q0 -25 -4 -52h209l-10 -46h-207q-44 -192 -210 -283h394l-10 -47h-516zM636 617l-51 -241h185q2 20 2 38q0 154 -136 203z M575 330l-58 -272q64 21 117 63q99 79 128 209h-187zM589 630q-33 6 -71 6q-144 0 -243 -79t-129 -220q-10 -43 -10 -81q0 -109 74 -166q67 -52 181 -52q38 0 74 7z" />
<glyph unicode="&#x153;" horiz-adv-x="1052" d="M606 226q-4 -26 -4 -49q0 -141 165 -141q145 0 216 119h52q-88 -166 -280 -166q-174 0 -200 134q-95 -134 -261 -134q-95 0 -151 48q-60 50 -60 142q0 30 7 65q25 116 110.5 186t203.5 70q78 0 130 -32q59 -37 76 -108q25 37 60 67q86 73 197 73q92 0 148 -43 q62 -47 62 -135q0 -28 -7 -60l-8 -35zM857 453q-84 0 -149.5 -49.5t-90.5 -130.5h399q3 19 3 37q0 70 -46 108q-43 35 -116 35zM472 446q-22 7 -79 7q-97 0 -164.5 -56.5t-87.5 -152.5q-6 -30 -6 -56q0 -74 48 -114q45 -38 122 -38q96 0 164 56.5t88 151.5q6 30 6 56 q0 56 -29 95.5t-62 50.5z" />
<glyph unicode="&#x178;" horiz-adv-x="663" d="M545 711q-25 0 -19 26l11 53q5 24 30 24q26 0 21 -24l-11 -53q-6 -26 -32 -26zM430 711q-26 0 -20 26l11 53q5 24 31 24q25 0 20 -24l-11 -53q-6 -26 -31 -26zM428 330l-70 -330h-51l70 330l-247 353h67l215 -306l346 306h65z" />
<glyph unicode="&#x2c6;" horiz-adv-x="259" d="M322 540l-61 85l-97 -85h-58l147 134h35l96 -134h-62z" />
<glyph unicode="&#x2dc;" horiz-adv-x="366" d="M367 551q-18 0 -70 21q-45 18 -57 18q-32 0 -46 -48l-42 22q6 27 38 46q29 17 59 17q19 0 71 -21q44 -18 55 -18q35 0 48 47l43 -20q-12 -30 -39.5 -47t-59.5 -17z" />
<glyph unicode="&#x2000;" horiz-adv-x="436" />
<glyph unicode="&#x2001;" horiz-adv-x="873" />
<glyph unicode="&#x2002;" horiz-adv-x="436" />
<glyph unicode="&#x2003;" horiz-adv-x="873" />
<glyph unicode="&#x2004;" horiz-adv-x="291" />
<glyph unicode="&#x2005;" horiz-adv-x="218" />
<glyph unicode="&#x2006;" horiz-adv-x="145" />
<glyph unicode="&#x2007;" horiz-adv-x="145" />
<glyph unicode="&#x2008;" horiz-adv-x="109" />
<glyph unicode="&#x2009;" horiz-adv-x="174" />
<glyph unicode="&#x200a;" horiz-adv-x="48" />
<glyph unicode="&#x2010;" horiz-adv-x="350" d="M90 254l4 20h287l-4 -20h-287z" />
<glyph unicode="&#x2011;" horiz-adv-x="350" d="M90 254l4 20h287l-4 -20h-287z" />
<glyph unicode="&#x2012;" horiz-adv-x="350" d="M90 254l4 20h287l-4 -20h-287z" />
<glyph unicode="&#x2013;" horiz-adv-x="495" d="M39 254l4 20h523l-4 -20h-523z" />
<glyph unicode="&#x2014;" horiz-adv-x="894" d="M39 254l4 20h922l-4 -20h-922z" />
<glyph unicode="&#x2018;" horiz-adv-x="175" d="M203 517q-9 -16 -28 -16q-26 0 -21 21q1 3 3 7l70 132q9 16 28 16q27 0 22 -21q0 -3 -3 -7z" />
<glyph unicode="&#x2019;" horiz-adv-x="175" d="M204 517q-9 -16 -29 -16q-26 0 -21 20q1 4 3 8l71 132q12 21 34 16q19 -5 15 -21q0 -3 -3 -7z" />
<glyph unicode="&#x201a;" horiz-adv-x="292" d="M116 -74q-9 -17 -28 -17q-26 0 -22 21l4 8l71 132q11 21 33 16q19 -5 16 -21q-1 -3 -4 -7z" />
<glyph unicode="&#x201c;" horiz-adv-x="267" d="M308 517q-9 -16 -28 -16q-26 0 -21 21q1 3 3 7l70 132q9 16 28 16q27 0 22 -21q0 -3 -3 -7zM203 517q-9 -16 -28 -16q-26 0 -21 21q1 3 3 7l70 132q9 16 28 16q27 0 22 -21q0 -3 -3 -7z" />
<glyph unicode="&#x201d;" horiz-adv-x="276" d="M309 517q-9 -16 -29 -16q-26 0 -21 20q1 4 3 8l71 132q12 21 34 16q19 -5 15 -21q0 -3 -3 -7zM204 517q-9 -16 -29 -16q-26 0 -21 20q1 4 3 8l71 132q12 21 34 16q19 -5 15 -21q0 -3 -3 -7z" />
<glyph unicode="&#x201e;" horiz-adv-x="351" d="M221 -74q-9 -17 -28 -17q-26 0 -22 21l4 8l71 132q11 21 33 16q19 -5 16 -21q-1 -3 -4 -7zM116 -74q-9 -17 -28 -17q-26 0 -22 21l4 8l71 132q11 21 33 16q19 -5 16 -21q-1 -3 -4 -7z" />
<glyph unicode="&#x2022;" horiz-adv-x="292" d="M174 250q-19 0 -43 4q-36 6 -33 18l22 106q3 11 40 18q25 4 46 4q19 0 43 -4q36 -6 33 -18l-22 -106q-3 -11 -40 -18q-25 -4 -46 -4z" />
<glyph unicode="&#x2026;" horiz-adv-x="638" d="M524 -2q-26 0 -22 20l10 47q4 20 30 20q25 0 21 -20l-10 -47q-4 -20 -29 -20zM335 -2q-26 0 -22 20l10 47q4 20 30 20q25 0 21 -20l-10 -47q-4 -20 -29 -20zM146 -2q-26 0 -22 20l10 47q4 20 30 20q25 0 21 -20l-10 -47q-4 -20 -29 -20z" />
<glyph unicode="&#x202f;" horiz-adv-x="174" />
<glyph unicode="&#x2039;" horiz-adv-x="294" d="M111 258l6 31l204 116l-11 -53l-135 -78l101 -79l-10 -50z" />
<glyph unicode="&#x203a;" horiz-adv-x="294" d="M87 145l10 50l135 79l-101 78l11 53l154 -116l-6 -31z" />
<glyph unicode="&#x205f;" horiz-adv-x="218" />
<glyph unicode="&#x2122;" horiz-adv-x="789" d="M770 347l51 241l-184 -241h-41l-87 246q-20 -98 -51 -246h-55l61 290h-88l-61 -290h-55l61 290h-148l10 47h353l95 -265l205 265h61l-71 -337h-56z" />
<glyph unicode="&#xe000;" horiz-adv-x="490" d="M0 490h490v-490h-490v490z" />
</font>
</defs>
</svg>
