<?xml version="1.0" standalone="no"?>
<!DOCTYPE svg PUBLIC "-//W3C//DTD SVG 1.1//EN" "http://www.w3.org/Graphics/SVG/1.1/DTD/svg11.dtd" >
<svg xmlns="http://www.w3.org/2000/svg">
<metadata></metadata>
<defs>
<font id="kameronregular" horiz-adv-x="1142" >
<font-face units-per-em="2048" ascent="1638" descent="-410" />
<missing-glyph horiz-adv-x="534" />
<glyph horiz-adv-x="2048" />
<glyph horiz-adv-x="2048" />
<glyph unicode="&#xd;" horiz-adv-x="682" />
<glyph unicode=" "  horiz-adv-x="534" />
<glyph unicode="&#x09;" horiz-adv-x="534" />
<glyph unicode="&#xa0;" horiz-adv-x="534" />
<glyph unicode="!" horiz-adv-x="596" d="M288 172q28 0 48.5 -7.5t33.5 -20t19 -28.5t6 -34q0 -36 -24.5 -63.5t-82.5 -27.5t-83 26.5t-25 64.5q0 18 6 34t19 28.5t33.5 20t49.5 7.5zM379 1290q0 -2 0.5 -21.5t0.5 -43.5v-44v-22q0 -5 -2 -40.5t-5.5 -90t-7.5 -123.5t-9 -140t-9.5 -140t-8.5 -123.5t-6.5 -90 t-3.5 -40.5h-71q-1 5 -3.5 40.5t-6.5 90t-8 123t-8.5 140t-9 140.5t-7.5 123.5t-5 90.5t-2 41v21v44t0.5 43.5t0.5 21.5h171z" />
<glyph unicode="&#x22;" horiz-adv-x="628" d="M430 880q-7 52 -16 106.5t-17.5 108.5t-14 106.5t-5.5 101.5q0 24 7.5 42.5t20 30.5t28 18.5t31.5 6.5q30 0 54.5 -23t24.5 -71q0 -95 -16 -198.5t-36 -228.5h-61zM173 880q-7 52 -16 106.5t-17.5 108.5t-14 106.5t-5.5 101.5q0 24 7.5 42.5t20 30.5t28 18.5t31.5 6.5 q30 0 54.5 -23t24.5 -71q0 -95 -16 -198.5t-36 -228.5h-61z" />
<glyph unicode="#" horiz-adv-x="1471" d="M654 980h329l126 427h127l-124 -427h232l-21 -116h-246l-87 -320h294l-23 -118h-305l-127 -424h-129l126 424h-327l-126 -424h-128l127 424h-244l22 118h253l88 320h-304l23 116h316l124 427h130zM620 864l-88 -320h330l88 320h-330z" />
<glyph unicode="$" horiz-adv-x="1110" d="M609 1408v-130q100 -9 187.5 -36.5t166.5 -75.5l1 -209h-116q0 54 -12.5 95t-41 68.5t-74 43t-111.5 20.5v-464q111 -27 188.5 -63t126 -82t70.5 -102.5t22 -124.5q0 -75 -27.5 -138t-80 -110t-128 -75.5t-172.5 -35.5v-173h-94v173q-262 11 -400 120v222h117 q4 -63 21 -108.5t50.5 -76t85.5 -46.5t126 -19v523q-186 44 -281 133t-95 217q0 69 25.5 126t74.5 98.5t119 66.5t159 31v132h93zM516 1186q-109 -11 -170.5 -66.5t-61.5 -146.5q0 -84 55.5 -137.5t176.5 -89.5v440zM608 82q60 6 108.5 25t82 50.5t52 75t18.5 97.5 q0 89 -62.5 153t-198.5 95v-496z" />
<glyph unicode="%" horiz-adv-x="1715" d="M382 1315q71 0 126.5 -24t93.5 -69t57.5 -110t19.5 -148q0 -172 -78 -263t-224 -91q-143 0 -220.5 91.5t-77.5 261.5q0 168 78.5 260t224.5 92zM1362 1304l-900 -1318h-109l900 1318h109zM377 1243q-167 0 -167 -283q0 -138 42.5 -208t127.5 -70q84 0 128 70t44 209 q0 144 -43 213t-132 69zM1339 685q144 0 220 -92t76 -266q0 -165 -78.5 -256t-224.5 -91q-143 0 -220 91t-77 261q0 169 78.5 261t225.5 92zM1333 613q-85 0 -127 -71.5t-42 -212.5q0 -137 43 -206.5t128 -69.5t129 69t44 207q0 145 -43 214.5t-132 69.5z" />
<glyph unicode="&#x26;" horiz-adv-x="1540" d="M1226 1126v-231h240v-95h-238v-495q0 -51 1 -91.5t9.5 -69.5t27.5 -44.5t54 -15.5q15 0 28.5 5.5t24 18.5t17 33.5t6.5 50.5l92 9q0 -59 -16.5 -101t-44.5 -69.5t-65 -40.5t-78 -13q-78 0 -124 27.5t-69 78.5q-108 -52 -220.5 -77.5t-221.5 -25.5q-131 0 -231 38 t-168.5 101.5t-103.5 145.5t-35 170q0 59 16.5 118.5t49.5 116t83.5 107t118.5 91.5q-33 50 -48.5 98.5t-15.5 95.5q0 64 28 120t80 98t126 66t166 24q94 0 169.5 -18t133.5 -47l13 -180l-91 -10q-3 42 -20 72t-45 49.5t-63.5 28.5t-74.5 9q-71 0 -124.5 -17.5t-89.5 -48.5 t-54.5 -72.5t-18.5 -90.5q0 -71 38 -150h590q0 5 1 17t2.5 27.5t3 34t3.5 36.5q4 42 9 93zM479 800q-53 -33 -92 -75t-65 -88.5t-39 -96t-13 -98.5q0 -69 25 -132t75.5 -112t125.5 -78t174 -29q89 0 188.5 24t205.5 76q-2 24 -3 53t-1 58v498h-581z" />
<glyph unicode="'" horiz-adv-x="405" d="M173 880q-7 52 -16 106.5t-17.5 108.5t-14 106.5t-5.5 101.5q0 24 7.5 42.5t20 30.5t28 18.5t31.5 6.5q30 0 54.5 -23t24.5 -71q0 -95 -16 -198.5t-36 -228.5h-61z" />
<glyph unicode="(" horiz-adv-x="700" d="M640 1247q-160 -138 -237 -326t-77 -438q0 -125 18.5 -233.5t56.5 -203t97 -176.5t140 -154l-77 -54q-114 72 -191.5 166.5t-125 201t-68.5 220t-21 223.5q0 120 21.5 238.5t69.5 227t126 201.5t191 162z" />
<glyph unicode=")" horiz-adv-x="700" d="M148 1302q108 -75 183.5 -168.5t123 -198.5t69 -217t21.5 -225q0 -117 -21 -234.5t-69 -225.5t-126.5 -203t-193.5 -168l-78 54q163 142 240 331.5t77 442.5q0 124 -19 232t-58 202.5t-98.5 177t-141.5 155.5q23 11 45.5 22.5t45.5 22.5z" />
<glyph unicode="*" horiz-adv-x="946" d="M407 551q18 38 27.5 81t12.5 108q-45 -33 -76.5 -66t-55.5 -77l-109 -83l-80 114l118 71q42 8 84.5 26.5t97.5 52.5q-56 35 -98 52.5t-84 24.5l-118 72l80 114l109 -83q24 -43 56 -76t76 -64q-3 62 -13 105.5t-27 81.5l-7 135h142l-8 -134q-23 -45 -31.5 -88t-11.5 -96 q52 38 83 70t52 66l110 83l80 -114l-118 -72q-54 -6 -98.5 -25.5t-94.5 -51.5q49 -32 94.5 -52t99.5 -27l117 -71l-80 -114l-110 83q-21 35 -51.5 67t-83.5 71q2 -53 11 -97t32 -88l8 -135h-135v136z" />
<glyph unicode="+" horiz-adv-x="1536" d="M830 680h508v-120h-508v-502h-123v502h-510v120h510v501h123v-501z" />
<glyph unicode="," horiz-adv-x="560" d="M401 190l-40 -191q-18 -87 -56 -150.5t-100 -90.5l-58 54q36 25 50 73.5t22 118.5l-67 5l23 181h226z" />
<glyph unicode="-" horiz-adv-x="759" d="M682 526v-146h-606v146h606z" />
<glyph unicode="." horiz-adv-x="560" d="M271 172q28 0 48.5 -7.5t34 -20t19.5 -28.5t6 -34q0 -36 -25 -63.5t-83 -27.5t-82.5 26.5t-24.5 64.5q0 18 6 34t19 28.5t33 20t49 7.5z" />
<glyph unicode="/" horiz-adv-x="559" d="M583 1304l-497 -1409h-124l497 1409h124z" />
<glyph unicode="0" d="M571 1315q233 0 353.5 -168.5t120.5 -500.5q0 -333 -122.5 -501t-351.5 -168q-233 0 -354 169t-121 500q0 328 121 498.5t354 170.5zM571 1214q-307 0 -307 -565q0 -139 17.5 -245t54.5 -177.5t95.5 -108t139.5 -36.5q160 0 233.5 145t73.5 420q0 286 -76.5 426.5 t-230.5 140.5z" />
<glyph unicode="1" d="M672 1258v-1104q0 -17 2 -27.5t14.5 -17t39.5 -9t76 -2.5h66v-98h-63h-64t-70 0.5t-81 1.5q-51 0 -89.5 -0.5t-71.5 -0.5t-64 -0.5t-66 -0.5v98h101q40 0 62 4.5t32 12.5t12 19t2 23v994q-60 -30 -120.5 -51t-119.5 -34v124q77 14 151 40t149 63z" />
<glyph unicode="2" d="M130 0q-1 10 -1 21v22q0 135 39.5 232t107.5 172.5t158.5 139t193.5 131.5q47 31 82 60.5t58 61t34.5 67.5t11.5 80q0 52 -19 94t-53.5 71.5t-82.5 45.5t-105 16q-81 0 -135 -18t-86 -52t-46 -84t-14 -113l-114 3v245q37 29 80 51.5t94.5 37.5t113 22.5t135.5 7.5 q94 0 167.5 -23t124 -67.5t77 -108.5t26.5 -145q0 -75 -24 -129.5t-72 -102.5t-121 -97.5t-171 -114.5q-90 -60 -149 -115t-93.5 -106t-48.5 -98.5t-14 -91.5h520q25 0 38.5 9.5t20 38t8 81t1.5 137.5h105v-381h-847z" />
<glyph unicode="3" d="M237 387q0 -152 77.5 -225.5t229.5 -73.5q55 0 107 16t92.5 49t65.5 84t25 120q0 78 -29.5 130t-79.5 83.5t-116 45t-138 13.5v108q72 1 130.5 17.5t100 48t64 77.5t22.5 107q0 51 -18.5 93.5t-53 72.5t-82.5 46.5t-106 16.5q-69 0 -117 -17.5t-78 -51t-43.5 -82 t-13.5 -111.5l-117 2l1 252q75 54 169.5 80.5t204.5 26.5q97 0 173.5 -22.5t130 -65.5t81.5 -104t28 -139q0 -113 -61 -186.5t-185 -105.5q65 -13 119.5 -38.5t94.5 -66.5t62 -98.5t22 -133.5q0 -88 -32.5 -158t-93 -119t-147 -75t-195.5 -26q-93 0 -169 26.5t-131 78.5 t-85 128.5t-31 175.5z" />
<glyph unicode="4" d="M828 1297v-809h217v-105h-217v-227q0 -18 1.5 -30t11.5 -19.5t31 -11t60 -3.5h53v-92q-50 0 -118.5 1t-149.5 1q-39 0 -69.5 -0.5t-56.5 -0.5t-50 -0.5t-51 -0.5v92h65q42 0 67 2.5t37.5 8t16.5 15t4 24.5v241h-564q-5 36 -11 68t-15 62l557 784h181zM203 486h478v684h-2 z" />
<glyph unicode="5" d="M848 1095q0 29 -0.5 45t-2.5 23.5t-7 8.5t-14 1h-486l-1.5 -31.5t-4 -79.5t-5 -104t-4.5 -104.5t-3.5 -81.5t-1.5 -35q60 48 130.5 71.5t148.5 23.5q95 0 172.5 -29.5t132 -84t84.5 -132t30 -172.5q0 -112 -38.5 -194.5t-104.5 -136.5t-155.5 -80t-191.5 -26 q-88 0 -170 21.5t-154 63.5l-21 256l103 1q10 -119 73 -180t197 -61q65 0 119.5 21.5t93.5 63.5t61 104t22 142q0 72 -20.5 130t-58.5 98.5t-91.5 62.5t-120.5 22q-92 0 -159.5 -35.5t-118.5 -106.5l-78 26v684h748v-235h-103v40z" />
<glyph unicode="6" d="M626 1315q68 0 124 -9t102 -24t83.5 -35t67.5 -42l2 -194l-101 -2q-2 106 -66 157.5t-211 51.5q-91 0 -155 -35.5t-104.5 -104t-59 -169t-18.5 -229.5q66 78 153 117.5t187 39.5q93 0 169 -30t130 -85t83.5 -131t29.5 -169q0 -101 -31.5 -183t-90.5 -140t-142.5 -89.5 t-187.5 -31.5q-113 0 -199 37.5t-145 115.5t-89 197t-30 281q0 151 26 280.5t85 224t154 148t234 53.5zM596 730q-75 0 -143.5 -34t-122.5 -97q-34 -71 -34 -164q0 -83 21 -149t60 -112t94 -70.5t123 -24.5q64 0 116.5 22t90 64t57.5 103t20 139q0 70 -17.5 129t-52.5 102 t-88 67.5t-124 24.5z" />
<glyph unicode="7" d="M156 1290h855v-137q-106 -141 -187.5 -288.5t-141 -294.5t-96.5 -290.5t-54 -278.5h-174q19 134 58.5 282.5t102 300.5t149.5 302t201 288h-438q-60 0 -93.5 -2.5t-49.5 -8.5t-19 -16.5t-3 -26.5v-164h-110v334z" />
<glyph unicode="8" d="M737 685q154 -38 230.5 -124.5t76.5 -214.5q0 -84 -32 -152.5t-93 -116.5t-150 -74t-203 -26q-110 0 -197 25.5t-147.5 73t-92.5 115.5t-32 153q0 128 76.5 213.5t224.5 124.5q-123 32 -190 112t-67 190q0 78 30 139t85.5 104t134.5 65.5t177 22.5q100 0 180.5 -22.5 t137 -65t86.5 -103.5t30 -137q0 -113 -67 -189.5t-198 -112.5zM574 82q69 0 127.5 18t101.5 51.5t67 82.5t24 112q0 49 -18.5 94.5t-58.5 83t-101.5 65.5t-147.5 43q-155 -25 -234.5 -96t-79.5 -187q0 -60 21.5 -109.5t62 -84.5t100 -54t136.5 -19zM574 1215q-63 0 -115 -15 t-88.5 -43.5t-57 -69.5t-20.5 -92q0 -100 72 -166t209 -91q134 26 204 89.5t70 163.5q0 60 -23.5 102.5t-62 69.5t-88 39.5t-100.5 12.5z" />
<glyph unicode="9" d="M553 1213q-65 0 -117.5 -22t-89.5 -65t-57 -105t-20 -142q0 -67 17.5 -124.5t53 -100t87.5 -67t121 -24.5q55 0 103.5 16.5t88 48.5t68.5 79t45 107q0 92 -19 166t-57 125.5t-94 79.5t-130 28zM531 -23q-122 0 -213 32.5t-146 93.5l-1 178l118 2q3 -55 16 -94t40 -64.5 t70 -37.5t106 -12q94 0 158.5 35t104.5 103t57.5 168t17.5 230q-63 -77 -150.5 -116t-190.5 -39q-94 0 -170 30t-129.5 84.5t-82.5 131t-29 169.5q0 103 31.5 185t90 140t141.5 89t186 31q112 0 198.5 -38t145 -116t88.5 -198t30 -283q0 -150 -25.5 -279t-83 -223.5 t-150.5 -148t-228 -53.5z" />
<glyph unicode=":" horiz-adv-x="571" d="M284 882q57 0 82 -27t25 -63t-24.5 -63t-82.5 -27t-82.5 26t-24.5 64q0 36 25 63t82 27zM284 172q57 0 82 -27t25 -63t-24.5 -63.5t-82.5 -27.5t-82.5 26.5t-24.5 64.5q0 18 6 34t19 28.5t33 20t49 7.5z" />
<glyph unicode=";" horiz-adv-x="571" d="M398 190l-40 -191q-18 -87 -56 -150.5t-100 -90.5l-58 54q37 25 50.5 73.5t22.5 118.5l-68 5l23 181h226zM286 882q56 0 81.5 -27t25.5 -63t-24.5 -63t-82.5 -27t-83 26t-25 64q0 36 25 63t83 27z" />
<glyph unicode="&#x3c;" horiz-adv-x="1536" d="M378 619l955 -380v-132l-1131 460v107l1131 460v-132z" />
<glyph unicode="=" horiz-adv-x="1536" d="M1338 769h-1141v121h1141v-121zM1338 352h-1141v121h1141v-121z" />
<glyph unicode="&#x3e;" horiz-adv-x="1536" d="M1333 567l-1131 -460v132l956 380l-956 383v132l1131 -460v-107z" />
<glyph unicode="?" horiz-adv-x="980" d="M492 364h-113q-1 2 -2 18t-2 34.5t-1.5 33.5t-0.5 17q0 55 15.5 95.5t41 71.5t58 55t67 46t67 45t58 51.5t41 65.5t15.5 87q0 52 -19.5 94.5t-55 73t-85 47t-109.5 16.5q-136 0 -198.5 -66t-63.5 -201h-116l5 252q76 55 171.5 85t205.5 30q101 0 181 -22t136 -62.5 t86 -97.5t30 -128q0 -80 -25 -135t-64 -95t-86 -71t-91.5 -65t-80.5 -76t-53 -103zM440 172q28 0 48.5 -7.5t34 -20t19.5 -28.5t6 -34q0 -36 -25 -63.5t-83 -27.5t-82.5 26.5t-24.5 64.5q0 18 6 34t19 28.5t33 20t49 7.5z" />
<glyph unicode="@" horiz-adv-x="1809" d="M1233 60q-77 0 -120 37.5t-43 117.5q0 8 0.5 16.5t1.5 17.5q-1 0 -1.5 0.5t-1.5 0.5q-132 -189 -316 -189q-69 0 -126 27t-98 76t-63.5 117t-22.5 149q0 59 15 123.5t44 127t71 119.5t96.5 100t120.5 68.5t143 25.5q95 0 159 -43.5t100 -138.5l42 166h138l-153 -627 q-3 -18 -7.5 -37t-8.5 -37.5t-7 -35.5t-3 -30q0 -80 70 -80q33 0 75 16.5t85 48.5q52 39 95 91t74 116.5t48 141t17 164.5q0 118 -41.5 228t-124.5 194.5t-208 135t-293 50.5q-182 0 -332.5 -62t-258 -172t-166.5 -260t-59 -327q0 -164 58 -299t162 -231t249 -149t319 -53 q175 0 334.5 57.5t295.5 187.5l74 -19q-65 -68 -142.5 -123t-167.5 -93t-190.5 -58.5t-209.5 -20.5q-201 0 -364.5 60.5t-280 169t-180 258.5t-63.5 328q0 116 29 226t83.5 207t134 178.5t181 140t223 91t261.5 32.5q184 0 324.5 -55.5t234.5 -150t142 -219.5t48 -264 q0 -90 -20.5 -172t-56 -153t-83 -128.5t-103 -98.5t-115 -63t-118.5 -22zM1143 697q0 50 -14.5 92.5t-41 73.5t-63.5 48.5t-82 17.5q-54 0 -101.5 -27t-87 -71.5t-70.5 -101.5t-52.5 -117t-33 -119t-11.5 -106q0 -118 53 -184t144 -66q51 0 98 26.5t87 70.5t72.5 101.5 t55 119.5t35 124.5t12.5 117.5z" />
<glyph unicode="A" horiz-adv-x="1383" d="M810 1290l17 -45t45 -119t64.5 -168.5t74 -194t74 -194.5t65.5 -170.5t47 -123t19 -50.5q18 -47 29.5 -72.5t28.5 -37.5t46.5 -14.5t83.5 -2.5v-98q-56 0 -111 1t-114 1h-62h-62t-68 -0.5t-81 -1.5q0 8 -0.5 24.5t-0.5 32.5v39q46 0 75 0.5t46 3t23.5 8t6.5 15.5 q-2 5 -3 13t-4 19l-106 318h-523q-1 -2 -9 -25.5t-20 -58t-26 -74.5t-26.5 -74.5t-20.5 -58t-8 -24.5q-10 -25 -10 -36q0 -19 20.5 -23t68.5 -4h72v-95q-56 0 -111.5 1t-112.5 1h-57.5h-56.5t-61.5 -0.5t-72.5 -1.5v99q50 1 78.5 2t44.5 8t24.5 21t18.5 41q1 3 12.5 32.5 t30 77.5t42.5 111.5t51.5 134.5t56 145.5t55.5 145.5t51.5 134.5t43 111.5t29.5 77.5t12 32.5l40 116h231zM458 574h448l-224 622z" />
<glyph unicode="B" horiz-adv-x="1238" d="M578 1290q143 0 240.5 -21.5t157 -62.5t85 -101.5t25.5 -139.5q0 -216 -230 -288q143 -32 215 -113t72 -209q0 -73 -24 -137.5t-81 -113t-151 -76.5t-233 -28h-596v99h63q41 0 63 5.5t32.5 15.5t12 23.5t1.5 29.5v951q0 20 -4 33t-21.5 20.5t-52 10.5t-94.5 3v99h520z M412 718h202q71 0 126 16.5t92 47.5t56 74.5t19 97.5q0 48 -16 89.5t-52 72.5t-94.5 48.5t-142.5 17.5h-190v-464zM412 109h212q171 0 252 66t81 181q0 69 -23 118.5t-72 82t-125.5 47.5t-183.5 15h-141v-510z" />
<glyph unicode="C" horiz-adv-x="1413" d="M792 91q103 0 181 16.5t131 56t80 105t28 163.5l116 -20l-10 -260q-60 -52 -126.5 -86t-136 -54t-141 -28t-141.5 -8q-162 0 -284.5 48t-205.5 135.5t-125 210.5t-42 273q0 153 48 276.5t135 211.5t208.5 135.5t269.5 47.5q113 0 213 -36t174 -101l11 99h125v-359l-116 2 q-6 69 -36.5 122t-81 88.5t-120 53.5t-154.5 18q-110 0 -198.5 -39t-151 -111t-96.5 -174.5t-34 -229.5q0 -129 34 -232t96.5 -175t151 -110.5t198.5 -38.5z" />
<glyph unicode="D" horiz-adv-x="1477" d="M566 1290q400 0 602 -155.5t202 -475.5q0 -166 -46.5 -289.5t-143.5 -205.5t-246.5 -123t-356.5 -41h-527v99h65q42 0 64.5 6t33 17.5t12.5 29t2 40.5v39.5t-0.5 104t-0.5 147v168.5v457q0 30 -7 46.5t-26.5 25t-54 10.5t-88.5 2v98h516zM409 111h205q135 0 239.5 31 t176 97t108.5 169t37 247q0 134 -36.5 233t-107.5 164t-175.5 97t-240.5 32h-206v-1070z" />
<glyph unicode="E" horiz-adv-x="1219" d="M1125 1288v-326h-113v48q0 62 -4.5 95.5t-13.5 49t-22.5 18t-31.5 2.5h-531v-462h345q10 0 17 1.5t12 11t8.5 31.5t6.5 64h80v-322h-80q-3 41 -7 63.5t-10 33t-14 12.5t-19 2h-339v-498h540q23 0 36.5 9.5t20 35.5t8.5 72t2 119h112v-348h-1081v99h115q24 0 37 7t19 19 t7 26.5t1 29.5v915q0 24 -0.5 41.5t-6 29.5t-19 18t-38.5 6h-107v97h1070z" />
<glyph unicode="F" horiz-adv-x="1106" d="M1094 1290v-330h-111v41q0 66 -4 101.5t-13.5 52t-25 19t-37.5 2.5h-494v-462h287q8 0 15.5 -0.5t14.5 -0.5q12 0 21 2.5t15 11.5t9.5 25.5t4.5 45.5h71v-271h-71q-1 31 -6 48t-15 25t-24 9.5t-33 1.5h-289v-445q0 -25 7 -38.5t22 -20t40 -7.5t61 -1h54v-99h-60.5h-61 t-67.5 0.5t-79 1.5q-46 0 -82.5 -0.5t-69 -0.5t-63.5 -0.5t-64 -0.5v99h117q22 0 35 5t19 15t7.5 25t1.5 35v922q0 25 -0.5 42.5t-6.5 28t-19 15t-37 4.5h-111v99h1042z" />
<glyph unicode="G" horiz-adv-x="1529" d="M1299 918h-118q-9 67 -39 119.5t-79.5 88.5t-117 55t-150.5 19q-115 0 -206.5 -38.5t-155.5 -110t-98 -173.5t-34 -230q0 -130 34.5 -233t99.5 -174.5t158.5 -109.5t212.5 -38q186 0 281 54.5t95 167.5v132q0 20 -3 30.5t-15.5 15.5t-38.5 5.5t-71 0.5h-125v105 q33 0 65.5 -0.5t70 -0.5t81 -0.5t97.5 -0.5q19 0 46 0.5t55.5 0.5t56 0.5t48.5 0.5q0 -2 -1 -17.5t-1.5 -34t-1.5 -34t-1 -17.5q-45 -1 -70 -3.5t-37 -8.5t-14.5 -15.5t-2.5 -25.5q0 -54 -5.5 -130.5t-10.5 -157.5q-55 -56 -116.5 -92t-125 -56.5t-127.5 -28t-124 -7.5 q-174 0 -306 47.5t-221.5 135t-134.5 211t-45 275.5q0 148 49 271.5t136 212t207 137.5t262 49q119 0 223.5 -34.5t182.5 -109.5l10 103h125v-356z" />
<glyph unicode="H" horiz-adv-x="1489" d="M60 1290q33 0 70 -0.5t76 -0.5t78 -0.5t75 -0.5q4 0 31 0.5t62 0.5t70.5 0.5t57.5 0.5v-99h-48q-46 0 -70.5 -3.5t-36 -12t-13.5 -22.5t-2 -35v-393h669v401q0 24 -5.5 37.5t-20 19.5t-38 7t-59.5 1h-48v99q73 -2 144 -2h135q4 0 33 0.5t67.5 0.5t78 0.5t63.5 0.5v-99 h-47q-45 0 -69.5 -3.5t-36 -11.5t-13.5 -20t-2 -30v-943q0 -8 -0.5 -15.5t-0.5 -14.5q0 -14 3.5 -24t16 -17t36.5 -10t66 -3h47v-99q-33 0 -65 0.5t-65.5 0.5t-70.5 0.5t-82 0.5q-38 0 -70 -0.5t-60.5 -0.5t-54.5 -0.5t-53 -0.5v99h48q45 0 70 5.5t37 16t14 25t2 33.5v439 h-669v-445q0 -29 5 -44t18.5 -22t37.5 -7.5t61 -0.5h48v-99q-28 0 -54 0.5t-53.5 0.5t-59.5 0.5t-71 0.5q-45 0 -82.5 -0.5t-70.5 -0.5t-64.5 -0.5t-64.5 -0.5v99h47q45 0 70 6t36 16.5t13 24.5t2 31v952q0 17 -2 29t-13.5 19.5t-36 10.5t-69.5 3h-47v99z" />
<glyph unicode="I" horiz-adv-x="656" d="M68 1290q47 -2 82 -2.5t70 -0.5q88 0 148.5 0.5t102 1t69 1t51.5 0.5v-99h-49q-45 0 -70 -5t-36.5 -14.5t-13.5 -22.5t-2 -28v-959q0 -19 2 -31t13 -19t36 -10t71 -3h49v-99q-31 0 -59.5 0.5t-59 0.5t-65.5 0.5t-79 0.5q-80 0 -140.5 -1t-119.5 -1v99h48q46 0 70.5 5 t36 14.5t13.5 22.5t2 28v945q0 22 -2.5 37t-14 24t-36 12.5t-69.5 3.5h-48v99z" />
<glyph unicode="J" horiz-adv-x="763" d="M198 1290q27 0 54.5 -0.5t60.5 -1t73 -1t93 -0.5q4 0 32.5 0.5t66.5 1t78.5 1t67.5 0.5v-99h-84q-36 0 -55.5 -6.5t-28.5 -17.5t-10.5 -25.5t-1.5 -30.5v-833q0 -134 -13.5 -229.5t-52.5 -156.5t-111 -90t-189 -29q-57 0 -105.5 7t-92.5 20v242q1 0 16.5 -2t33.5 -4 t33.5 -3.5t16.5 -1.5q6 -40 14.5 -66.5t22 -42t32.5 -22t45 -6.5q58 6 91.5 33.5t50.5 72.5t21 106t4 134v870q0 19 -1.5 34t-10.5 25.5t-29 16t-57 5.5h-102v99h37z" />
<glyph unicode="K" horiz-adv-x="1294" d="M864 1133q36 33 36 44t-20 12.5t-53 1.5h-51v99q33 -2 76.5 -2.5t86.5 -0.5q23 0 45 0.5t42 0.5l222 2v-99q-24 0 -42.5 0.5t-33.5 0.5q-25 0 -43 -3.5t-38.5 -14.5t-48 -33t-70.5 -59l-425 -376l525 -551q21 -23 38 -34.5t38 -16t50.5 -5t76.5 -0.5v-99q-53 0 -121.5 1 t-143.5 1q-35 0 -71 -0.5t-70 -0.5t-64.5 -0.5t-54.5 -0.5v99h108q26 0 38 1t12 8q0 6 -7.5 16t-24.5 28l-445 471l-66 -55v-404q0 -18 1.5 -30.5t13 -20t36 -11t70.5 -3.5h50v-99q-53 0 -120 1t-142 1q-69 0 -139.5 -1t-121.5 -1v99h49q45 0 69.5 5.5t36 14.5t13.5 21.5 t2 26.5v949q0 21 -2.5 35t-14 23t-36 13t-68.5 4h-49v99q51 -2 99.5 -3t96.5 -1q15 0 29.5 0.5t29.5 0.5h24t48 0.5t60.5 1t61.5 1t50 0.5h26v-99h-52q-45 0 -69.5 -6t-36 -15.5t-13.5 -22.5t-2 -28v-432z" />
<glyph unicode="L" horiz-adv-x="1088" d="M56 1290q67 -3 148 -3h191.5t200.5 3v-99h-71q-41 0 -63 -7t-32.5 -18.5t-12.5 -27t-2 -32.5v-992h455q24 0 37 22t19 64t7 102.5t1 137.5h115v-440h-993v99h51q47 0 72.5 7t37 20t13.5 29.5t2 36.5v903q0 8 0.5 16t0.5 16q0 15 -3.5 27t-16.5 20t-38 12.5t-68 4.5h-51 v99z" />
<glyph unicode="M" horiz-adv-x="1766" d="M59 1290q60 -2 125.5 -2h119.5q5 0 31.5 0.5t57.5 0.5t58.5 0.5t34.5 0.5l396 -1078q1 5 18.5 52.5t45 123t62.5 170t71.5 193t71.5 193t63 170t45.5 123.5t19.5 53h21t40 -0.5t48.5 -1t48.5 -1t39 -0.5h20h53.5t57 0.5t55.5 1t50 1.5v-99h-62q-39 0 -60.5 -4.5 t-31.5 -13t-12 -21.5t-2 -30v-934q0 -32 4.5 -50t16.5 -26.5t33.5 -10.5t55.5 -2h61v-99q-35 0 -67.5 0.5t-67 0.5t-73.5 0.5t-87 0.5q-37 0 -65.5 -0.5t-52.5 -0.5t-46.5 -0.5t-47.5 -0.5v99h60q40 0 62.5 6.5t33 18.5t12.5 28.5t2 36.5v1011l-91 -238l-362 -962h-113 q-37 95 -76 199t-78.5 210.5t-79.5 213t-78 207.5t-73 194t-66 172v-1015q0 -29 3.5 -45.5t14.5 -24.5t32 -10t56 -2h60v-99q-26 0 -49 0.5t-48.5 0.5t-54.5 0.5t-66 0.5q-40 0 -74 -0.5t-64.5 -0.5t-59.5 -0.5t-59 -0.5v99h62q45 0 67.5 5t32 15t10 26t0.5 38l1 936 q0 25 -6 39.5t-18.5 21.5t-33 9t-49.5 2h-59v99z" />
<glyph unicode="N" horiz-adv-x="1441" d="M44 1290h12h31h41.5t43.5 -0.5t38 -0.5h24h45t51.5 0.5t52.5 0.5h47l666 -1103h2v932q0 26 -6 40.5t-20 21.5t-38.5 8.5t-61.5 1.5h-52v99q79 0 133 -1.5t98 -1.5h19h32.5t41 0.5t44.5 0.5q52 1 115 2v-99h-63q-39 0 -60.5 -4.5t-31.5 -13.5t-12 -22t-2 -30v-21.5 t-0.5 -61t-0.5 -94.5v-120v-543q0 -147 1 -291h-194l-688 1134h-2v-949q0 -28 5.5 -43.5t19.5 -22.5t38.5 -8.5t63.5 -1.5h54v-99q-27 0 -52 0.5t-51.5 0.5t-56.5 0.5t-68 0.5q-41 0 -75.5 -0.5t-66 -0.5t-62 -0.5t-61.5 -0.5v99h64q42 0 65 4t33.5 14t12 25.5t1.5 38.5v928 q0 30 -4 46.5t-15.5 24.5t-33 9.5t-56.5 1.5h-62v22t0.5 27t0.5 27.5v22.5z" />
<glyph unicode="O" horiz-adv-x="1528" d="M765 1315q151 0 273.5 -48.5t208 -136.5t132 -211t46.5 -273q0 -149 -46 -272t-131 -211.5t-206 -137.5t-270 -49q-155 0 -278.5 48t-210 135.5t-132.5 211t-46 275.5q0 150 46 273.5t131.5 211t208 136t274.5 48.5zM764 1202q-108 0 -194 -39t-145.5 -111t-91.5 -175 t-32 -230q0 -128 32 -231t92 -175t146 -110.5t193 -38.5q108 0 193.5 38.5t145.5 110.5t92 174.5t32 230.5q0 129 -32 232t-92 175t-145.5 110.5t-193.5 38.5z" />
<glyph unicode="P" horiz-adv-x="1166" d="M644 1290q123 0 212 -27t147 -76t86 -117.5t28 -150.5t-26 -149.5t-82.5 -116t-146 -75.5t-216.5 -27h-232v-375q0 -28 6 -43.5t21 -23t39 -9t60 -1.5h51v-99q-27 0 -52 0.5t-51.5 0.5t-57 0.5t-69.5 0.5q-92 0 -164 -1t-142 -1v99h52q46 0 71 5.5t37 15.5t14 25t2 35 v946q0 23 -6 36t-24.5 19.5t-53.5 8t-92 1.5v99h589zM414 654h191q169 0 250.5 64.5t81.5 197.5q0 65 -18 115t-57 84t-101 51.5t-151 17.5h-196v-530z" />
<glyph unicode="Q" horiz-adv-x="1528" d="M764 92q107 0 192.5 39t145.5 111.5t92.5 175.5t32.5 230q0 128 -32.5 230.5t-92.5 174.5t-145.5 110.5t-192.5 38.5q-108 0 -194 -39.5t-145.5 -111.5t-91.5 -174t-32 -228t31.5 -229t91.5 -175.5t146 -112.5t194 -40zM1244 -279q-66 5 -119.5 19.5t-100 33.5t-89 41.5 t-85.5 44.5t-89.5 41.5t-102.5 33.5q-23 0 -45.5 -6.5t-40.5 -19.5q-8 10 -14.5 19t-14.5 19q23 20 53 28t62 11q-132 20 -235 75t-173.5 139.5t-107.5 197t-37 247.5q0 150 46 273.5t132 211.5t208.5 136.5t275.5 48.5q150 0 272 -48.5t207.5 -136.5t132 -211.5 t46.5 -272.5q0 -135 -39 -250t-112 -202t-176 -141t-231 -68q2 -1 4.5 -2t4.5 -1q54 -22 100.5 -46t96.5 -46t109 -40t138 -27l-34 -104q-11 1 -21 1t-21 1z" />
<glyph unicode="R" horiz-adv-x="1327" d="M1009 349q15 -66 28 -114t28 -78.5t34 -45.5t47 -15q15 0 30 3.5t27 14t19.5 29.5t7.5 49l101 9q0 -104 -57 -164.5t-161 -60.5q-73 0 -120 30t-79 84t-55.5 129t-48.5 166q-18 65 -48 116t-58 92q-30 11 -70 16t-91 5h-132v-463q0 -20 6 -30.5t20.5 -15t39 -5.5t60.5 -1 h52v-99h-59h-59.5t-65 0.5t-75.5 1.5q-44 0 -82 -0.5t-72 -0.5t-66 -0.5t-64 -0.5v99h50q50 0 77 4t39.5 12t14.5 20t2 28v964q0 23 -4 36t-22 19t-54.5 7.5t-102.5 1.5v99h551q109 0 203.5 -13.5t163.5 -50t108.5 -101.5t39.5 -167q0 -120 -73.5 -200t-209.5 -109 q30 -23 56 -48.5t49 -60t41.5 -81t33.5 -110.5zM411 711h218q81 0 138.5 13t93.5 41t53 73t17 109q0 73 -24 119t-70.5 71.5t-114.5 35t-156 9.5h-155v-471z" />
<glyph unicode="S" horiz-adv-x="1135" d="M986 941h-117q-1 11 -1.5 21t-0.5 20q-2 52 -25 94t-64.5 71t-98.5 45t-127 16q-63 0 -113.5 -15.5t-85.5 -43.5t-53.5 -66.5t-18.5 -83.5q0 -48 19 -83t52 -62t78.5 -47.5t98.5 -39t112 -37.5t119 -41q62 -24 113.5 -54.5t88.5 -71.5t57.5 -93.5t20.5 -120.5 q0 -79 -30.5 -147t-86 -118.5t-134 -79t-174.5 -28.5q-135 0 -232.5 37.5t-150.5 103.5v-117h-132v408h120q0 -72 19 -131t60 -101t105.5 -65t155.5 -23q66 0 121 17t94.5 48.5t61.5 76t22 99.5q0 72 -39 117.5t-103 77.5t-145.5 57.5t-165.5 57.5q-74 28 -130 60.5 t-93.5 72.5t-56.5 90t-19 113q0 71 28 133t81 107.5t129 72t172 26.5q49 0 94.5 -5t88 -17.5t82.5 -34t80 -55.5v83q24 0 58 -0.5t66 -0.5v-343z" />
<glyph unicode="T" horiz-adv-x="1221" d="M47 1290l23.5 -0.5t61 -0.5t83.5 -0.5t90.5 -0.5h82h59.5h386q34 0 79.5 0.5t92.5 0.5t91.5 0.5t78.5 0.5v-386h-106v206q0 21 -3 34t-18.5 20t-48.5 9.5t-93 2.5h-202v-1019q0 -17 2 -28t14 -17.5t37 -9.5t71 -3h56v-99h-57h-58.5t-65 0.5t-76.5 1.5h-22t-43.5 -0.5 t-56 -0.5t-61 -0.5t-57.5 -0.5h-45v99h55q47 0 72.5 5.5t37 15t13.5 22t2 26.5v1008h-217q-56 0 -87 -3.5t-46 -10t-18 -17t-3 -24.5v-50.5t0.5 -56.5t0.5 -57.5v-52.5h-105v386z" />
<glyph unicode="U" horiz-adv-x="1351" d="M24 1290q69 -2 147.5 -2h151.5h106t110 2v-99h-47q-45 0 -70 -5t-36.5 -13.5t-13.5 -20t-2 -24.5v-633q0 -104 15.5 -180t53 -125t100.5 -72.5t158 -23.5q102 0 165 26t97.5 76.5t46.5 123.5t12 167v636q0 19 -2 32t-14 21t-38 11.5t-75 3.5h-48v99q35 -2 77.5 -2h85.5 q30 0 56 0.5t60.5 0.5t83 0.5t123.5 0.5v-99h-51q-43 0 -65.5 -5.5t-33 -14.5t-12 -20t-1.5 -23v-635q0 -131 -25.5 -228.5t-82.5 -161.5t-148.5 -95.5t-222.5 -31.5q-143 0 -238.5 32t-152.5 96.5t-81 160.5t-24 225v644q0 16 -2 26.5t-13 17.5t-34.5 10t-65.5 3h-50v99z " />
<glyph unicode="V" horiz-adv-x="1342" d="M335 1088q0 -2 10.5 -28.5t28 -71.5t40.5 -104.5t49 -126t53.5 -136.5t53.5 -136.5t49 -126t40.5 -104t28 -71.5t10.5 -28l341 930q9 25 14.5 42t5.5 29q0 24 -24 29.5t-79 5.5h-62v99q52 -1 98 -2q39 -1 77 -1h55q55 0 113.5 1t118.5 2v-99q-34 0 -57.5 -2t-42 -10.5 t-33 -25.5t-29.5 -47.5t-32.5 -76t-41.5 -110.5l-348 -932h-178l-433 1086q-17 41 -28.5 64.5t-29 35.5t-44.5 15t-73 3v99q36 -2 79 -3t79 -1h37t48.5 0.5t55 1t56.5 0.5q65 1 137 2v-99q-40 0 -69.5 -0.5t-49 -5t-29 -14t-9.5 -26.5q0 -22 14 -57z" />
<glyph unicode="W" horiz-adv-x="1906" d="M163 1055q-14 49 -24 76.5t-26.5 41t-44 16t-77.5 2.5q-1 22 -1 41v58q59 -1 109 -2q21 0 43 -0.5t41.5 -0.5h35h24.5q43 0 102 1.5t130 1.5v-99q-42 0 -72 -1.5t-49 -7t-27.5 -17t-8.5 -30.5q0 -14 4 -30.5t10 -39.5q29 -105 60.5 -222t63.5 -236t63.5 -236t60.5 -222 l286 1126h188l306 -1128l247 924q6 23 10 40t5 31q0 16 -7.5 26t-26.5 15t-50 6.5t-77 1.5v99q73 0 133 -1t102 -1h108.5t115.5 2v-99q-46 0 -74 -2.5t-46.5 -15t-31 -39t-26.5 -74.5q-1 -3 -14 -48.5t-33.5 -118.5t-46.5 -165t-54 -189.5t-54.5 -191.5t-48.5 -170.5 t-36.5 -127.5t-17.5 -62h-180l-300 1154l-299 -1154h-186z" />
<glyph unicode="X" horiz-adv-x="1406" d="M33 1290q43 -2 80.5 -2.5l75 -1t78 -0.5h90.5q45 0 98.5 2t110.5 2v-99h-56q-47 0 -70.5 -4t-23.5 -22q0 -13 13 -34t38 -53l236 -311q0 1 13 19t34.5 47t48.5 65.5t54.5 74t52.5 72.5t43 61q17 25 27.5 39.5t10.5 19.5q0 7 -7.5 12t-25.5 8t-47.5 4.5t-74.5 1.5v99 q6 0 26 -0.5t46.5 -1.5t57 -1.5t57.5 -0.5q45 0 85 0.5t78.5 1t77 1.5t79.5 1l-1 -96q-51 0 -85 -3t-57.5 -12t-40 -24.5t-32.5 -40.5l-14.5 -19.5t-38 -50.5t-53.5 -70.5t-61 -81.5l-166 -222l318 -413q37 -49 62.5 -80t52.5 -48.5t62 -24t91 -6.5v-98q-32 0 -62 0.5 t-61.5 0.5t-67 0.5t-78.5 0.5q-44 0 -81 -0.5t-70 -0.5t-64.5 -0.5t-64.5 -0.5q0 24 -0.5 48.5t-0.5 49.5q80 0 116 8.5t36 32.5q0 16 -17 41.5t-43 60.5l-236 311l-224 -304q-34 -46 -51.5 -73.5t-17.5 -43.5q0 -25 39.5 -29t123.5 -4v-98q-11 0 -44.5 0.5t-76.5 0.5 t-88 0.5t-78 0.5q-34 0 -63 -0.5t-56.5 -0.5t-56 -0.5t-61.5 -0.5v99q40 0 69 2t54.5 13t52 35t61.5 69l329 430l-299 392q-43 56 -69 86.5t-51 45t-56.5 17t-85.5 2.5v99z" />
<glyph unicode="Y" horiz-adv-x="1259" d="M-7 1290q29 -2 66.5 -2.5t68.5 -0.5q42 0 82 0.5t84.5 1t96 1t117.5 0.5v-99h-38q-66 0 -95 -3.5t-29 -23.5q2 -14 14 -36.5t32 -54.5q1 -2 20.5 -32.5t47.5 -75.5t60.5 -96.5t60.5 -96.5t47 -75.5t20 -32.5l255 403q23 37 36 60t13 37q0 20 -36.5 23.5t-120.5 3.5v99 q58 -1 110 -1q22 0 45 -0.5t43.5 -0.5h37h27.5h97.5t109.5 2v-99q-45 0 -71 -1.5t-42.5 -9t-29.5 -23.5t-32 -44q-23 -34 -58.5 -87.5t-76 -115t-81.5 -124t-74.5 -114t-55.5 -86t-25 -38.5v-385q0 -20 3.5 -32.5t16.5 -19.5t38.5 -9.5t70.5 -2.5h54v-99h-125t-149 2 q-77 0 -144.5 -1t-122.5 -1v99h53q48 0 74 4.5t37.5 13t13.5 19.5t2 25v389q-2 3 -17 26.5t-39 60t-53.5 82t-60 93t-60 93t-53.5 82t-39 60t-17 26.5q-27 43 -44.5 66.5t-37.5 35t-48.5 14t-77.5 2.5q0 25 -0.5 50t-0.5 49z" />
<glyph unicode="Z" horiz-adv-x="1147" d="M1061 1288v-136l-809 -1042h655q24 0 37.5 10t20.5 38t8.5 76.5t1.5 126.5h113v-361h-1029v134l809 1045h-508q-53 0 -85 -1t-49 -7.5t-22 -20.5t-5 -39v-165h-111v342h973z" />
<glyph unicode="[" horiz-adv-x="695" d="M645 1290v-112h-281v-1357h280v-113h-446v1582h447z" />
<glyph unicode="\" horiz-adv-x="559" d="M99 1304l497 -1409h-124l-497 1409h124z" />
<glyph unicode="]" horiz-adv-x="695" d="M496 1290v-1582h-448v113h282v1357h-282v112h448z" />
<glyph unicode="^" horiz-adv-x="1700" d="M1386 850l-98 -24l-439 437l-441 -437l-95 24l482 553h134z" />
<glyph unicode="_" horiz-adv-x="1024" d="M1030 -361h-1036v110h1036v-110z" />
<glyph unicode="`" horiz-adv-x="853" d="M582 1029h-83q-23 20 -54 44.5t-65 51t-68 53.5t-61 53.5t-44.5 50t-19.5 42.5q0 16 22 27t52 11q27 0 53.5 -9t37.5 -23z" />
<glyph unicode="a" horiz-adv-x="1060" d="M896 224q0 -52 3.5 -79.5t13.5 -40t28.5 -14t48.5 -1.5h45v-89q-79 0 -156.5 -1t-144.5 -3v137q-60 -77 -142.5 -115.5t-192.5 -38.5q-72 0 -130 20.5t-99 56.5t-63.5 86t-22.5 110q0 64 26 116.5t76 89.5t121.5 57.5t163.5 20.5q63 0 127 -9.5t130 -26.5v144 q0 91 -60.5 139t-185.5 48q-105 0 -164.5 -40.5t-79.5 -125.5l-92 11l13 176q64 29 149.5 47.5t192.5 18.5q106 0 181 -19t122.5 -58t69.5 -99.5t22 -142.5v-375zM509 452q-60 0 -108 -13.5t-81.5 -38.5t-51.5 -61t-18 -82q0 -41 14.5 -72.5t41 -53.5t63.5 -35t81 -12 q48 -1 97.5 14.5t89.5 44t65.5 72t25.5 104.5v98q-60 17 -114 26t-105 9z" />
<glyph unicode="b" horiz-adv-x="1215" d="M691 -21q-113 0 -197.5 43t-144.5 130l-1 -156q-32 1 -75.5 1.5t-87.5 1t-82.5 1t-60.5 0.5v89q55 0 85 4t43.5 13t16 22t2.5 31v989q0 20 -9 30.5t-27.5 15.5t-46.5 6t-65 2v91q87 0 166 1t151 3l2 -540q57 77 140 119t189 42q99 0 180 -34t138.5 -96t89 -147.5 t31.5 -193.5q0 -105 -31 -191t-88 -147.5t-138 -95.5t-180 -34zM655 814q-71 0 -127.5 -26t-96 -71.5t-60.5 -114t-21 -154.5q0 -85 21 -152t60 -114t95 -72.5t127 -25.5q69 0 125 26t95.5 74.5t60.5 116t21 152.5q0 84 -21.5 149t-60.5 113t-94.5 73.5t-123.5 25.5z" />
<glyph unicode="c" horiz-adv-x="1011" d="M912 576h-98q-5 121 -71.5 179.5t-183.5 58.5q-71 0 -127 -25.5t-94.5 -72.5t-59 -115t-20.5 -153q0 -86 21 -150.5t60.5 -113t95.5 -74.5t126 -26q100 0 167.5 49t94.5 147l117 -20q-16 -69 -50.5 -122.5t-85.5 -86.5t-117 -52.5t-145 -19.5q-105 0 -190 33.5t-145 91.5 t-93 144.5t-33 192.5q0 100 32 186.5t90.5 150.5t139 102t178.5 38q40 0 79 -5t74.5 -17t66 -33t54.5 -52l25 79q4 0 17.5 -0.5t28.5 -0.5t28.5 -0.5t17.5 -0.5v-312z" />
<glyph unicode="d" horiz-adv-x="1198" d="M1015 128q0 -13 6.5 -21t23 -12t45 -5t72.5 -1v-89q-78 0 -156.5 -1t-149.5 -3v21v46t-0.5 51.5t-1.5 37.5q-57 -85 -142.5 -129t-197.5 -44q-98 0 -178.5 33.5t-137.5 94.5t-88 147t-31 191q0 107 31.5 194.5t89.5 148.5t138.5 95.5t178.5 34.5q108 0 191 -42.5 t137 -120.5l2 408q0 15 -8.5 22.5t-28 11.5t-50.5 4.5t-75 0.5v91q88 0 172.5 1t157.5 3v-1169zM549 814q-67 0 -122 -26.5t-94.5 -73t-61 -114.5t-21.5 -152q0 -83 21.5 -149.5t60.5 -115t95 -74t125 -25.5q70 0 126 25t95 73.5t59.5 114.5t20.5 149q0 84 -22 152 t-62 115.5t-96 74t-124 26.5z" />
<glyph unicode="e" horiz-adv-x="1099" d="M961 417h-708q1 -80 25 -141t68 -103.5t105.5 -65.5t136.5 -23q105 0 182 43t119 133l121 -19q-46 -127 -161.5 -194.5t-283.5 -67.5q-113 0 -203 34t-152.5 96t-95.5 145.5t-33 190.5q0 108 34 194.5t96 148.5t149.5 96t194.5 34q108 0 194 -32.5t146 -94.5t92.5 -151 t33.5 -205zM859 507q-12 151 -90 229t-212 78q-63 0 -115 -21.5t-91 -60t-63.5 -94.5t-33.5 -131h605z" />
<glyph unicode="f" horiz-adv-x="610" d="M722 1096l-80 -8q-10 63 -42.5 96.5t-89.5 33.5q-49 0 -77 -16.5t-41.5 -48.5t-17 -79.5t-3.5 -108.5v-70h217v-89h-217v-651q0 -25 10 -38.5t31 -19.5t53 -7t76 -1v-89q-44 0 -89 1q-39 0 -85 0.5t-89 0.5q-35 0 -73 -0.5t-70 -0.5q-38 -1 -74 -1v89q51 0 79.5 3 t42 10.5t16.5 21t3 33.5v649h-150v89h150v116q0 160 76.5 232t218.5 72q60 0 118.5 -8.5t106.5 -25.5v-185z" />
<glyph unicode="g" horiz-adv-x="1189" d="M558 814q-68 0 -124 -25.5t-95.5 -72.5t-61 -115.5t-21.5 -149.5t21.5 -145.5t61 -110.5t95.5 -70.5t126 -24.5q69 0 125 26t95.5 73t61.5 113t22 147q0 78 -22 143.5t-62 113t-96.5 73t-125.5 25.5zM871 899q45 -2 89 -3.5t89 -1.5q39 0 68.5 0.5t58.5 0.5v-89 q-55 0 -85.5 -3.5t-45 -12t-17.5 -23t-3 -37.5v-668q0 -140 -33.5 -234t-96 -150.5t-152 -80t-202.5 -23.5q-106 0 -201 22.5t-177 69.5l8 210q2 -1 17 -1h23.5t24.5 1q13 0 27 1q9 -60 31.5 -99t58 -62t83 -32.5t106.5 -9.5q63 0 120.5 16.5t101 52.5t69.5 94t26 142v184 q-57 -80 -143.5 -121.5t-195.5 -41.5q-99 0 -179.5 32.5t-138 91.5t-89 142.5t-31.5 185.5q0 103 32.5 189t90.5 147.5t139 95.5t179 34q112 0 199 -46.5t149 -136.5v164z" />
<glyph unicode="h" horiz-adv-x="1170" d="M833 532q0 73 -7.5 127t-28 88.5t-56 50.5t-92.5 16q-54 0 -100.5 -17t-83 -43.5t-63.5 -56t-43 -55.5v-510q0 -16 7 -25t24 -13t46.5 -4.5t74.5 -0.5v-89h-56h-56t-61 0.5t-70 1.5q-35 0 -65 -0.5t-57.5 -0.5t-53.5 -0.5t-53 -0.5v89q56 0 87 2.5t45.5 8t17.5 15t3 23.5 v1025q0 15 -10.5 23.5t-30 12t-46.5 4t-60 0.5v90q18 0 37.5 -0.5t45.5 -0.5q55 0 112 1.5t118 3.5q0 -58 0.5 -125t0.5 -136.5v-137v-125.5q72 75 159.5 110t193.5 35q93 0 150 -29t88 -86.5t41.5 -143.5t10.5 -201v-309q0 -23 7 -35t23.5 -17.5t43.5 -6.5t68 -1v-89h-52.5 h-52.5t-57.5 0.5t-66.5 1.5q-72 0 -125.5 -1t-107.5 -1v89q44 1 73 3t46.5 7.5t24.5 16.5t7 30v386z" />
<glyph unicode="i" horiz-adv-x="559" d="M268 1315q50 0 79 -24.5t29 -67.5q0 -44 -28.5 -69.5t-79.5 -25.5q-50 0 -78 25t-28 70q0 43 28 67.5t78 24.5zM373 156q0 -24 8 -37.5t26 -20t46.5 -8t69.5 -1.5v-89q-26 0 -70 0.5t-88 0.5t-78 0.5t-40 0.5q-57 0 -100.5 -1t-89.5 -1v89q54 0 84 3t44.5 10t17 19.5 t2.5 32.5v616q0 14 -7.5 21t-24.5 10.5t-44.5 4t-66.5 0.5v89q85 0 160 1t151 4v-744z" />
<glyph unicode="j" horiz-adv-x="546" d="M381 84q0 -71 -2 -135.5t-12 -119t-29.5 -98.5t-54 -74.5t-87.5 -47t-128 -16.5q-43 0 -84.5 4t-82.5 15v178q18 -2 38 -2.5t39 -0.5q8 -57 26.5 -77.5t54.5 -20.5q54 0 85 23t46 71.5t18.5 123.5t3.5 179v663q0 20 -8 31.5t-25 16.5t-45.5 7t-68.5 2v89h163t153 5v-816z M274 1315q51 0 79.5 -24t28.5 -68q0 -45 -29 -70t-79 -25q-51 0 -79 25t-28 70q0 43 28.5 67.5t78.5 24.5z" />
<glyph unicode="k" horiz-adv-x="1093" d="M40 89q42 1 71.5 2.5t48 8t26.5 20t8 37.5v996q0 19 -9 28.5t-27.5 14t-46.5 5.5t-66 1v90h96t78.5 0.5t70.5 1.5t71 2v-800l270 203q101 72 101 93q0 5 -8 8t-21.5 4.5t-32 1.5h-38.5l3 89q52 -1 92.5 -1.5t74.5 -0.5q56 0 114.5 0.5t135.5 1.5v-89q-41 0 -64 -1 t-44.5 -10t-50.5 -29t-81 -59l-281 -208l390 -359q36 -33 64.5 -42.5t61.5 -9.5q11 0 22 0.5t25 0.5v-89q-49 0 -97 1t-104 1q-37 0 -68.5 -0.5t-61.5 -0.5t-59.5 -0.5t-60.5 -0.5v89q53 0 75.5 2t22.5 14q0 11 -14.5 26.5t-38.5 37.5l-284 261l-43 -28l-1 -246q0 -21 6 -34 t23 -20.5t47.5 -10t80.5 -2.5v-89h-105.5t-122.5 2q-5 0 -35.5 -0.5t-69.5 -0.5t-79.5 -0.5t-64.5 -0.5v89z" />
<glyph unicode="l" horiz-adv-x="550" d="M358 159q0 -25 9.5 -39t29 -21t48 -8.5t67.5 -1.5v-89h-55h-55.5t-59.5 0.5t-68 1.5q-36 0 -67 -0.5t-59 -0.5t-54 -0.5t-53 -0.5v20t-0.5 24.5t-0.5 24.5v20q57 0 87.5 5t44.5 15t16.5 25t2.5 36v982q0 18 -9.5 28t-28.5 14.5t-46 5.5t-62 2v90q79 0 153 1t160 3v-1137z " />
<glyph unicode="m" horiz-adv-x="1781" d="M816 533q0 66 -6.5 118.5t-25.5 89.5t-54 55t-92 18q-48 0 -86 -13t-70 -35t-60.5 -50t-59.5 -62v-421q0 -57 -0.5 -87t13 -42.5t45 -13.5t91.5 -1v-89h-51h-52t-57 0.5t-66 1.5q-73 0 -129 -1t-112 -1v89q55 0 85 3.5t44 10t16.5 17t2.5 25.5v615q0 16 -7.5 25.5 t-24.5 14t-44.5 5.5t-66.5 1v89q20 0 39.5 -0.5t47.5 -0.5q54 0 107.5 1.5t107.5 3.5v-148q67 79 156 122t196 45q89 0 158.5 -44t104.5 -128q73 82 163 127t192 45q91 -2 147.5 -32t87 -84t41 -130t11.5 -170v-367q0 -17 7 -25.5t23.5 -12.5t43.5 -4.5t67 -1.5v-91 q-56 0 -111.5 1t-127.5 1q-35 0 -64 -0.5t-55 -0.5t-51 -0.5t-51 -0.5v91q43 1 72 2.5t46 7t24.5 16t7.5 30.5v386q0 71 -7 124t-26.5 88.5t-54.5 52t-91 16.5q-49 0 -88 -15.5t-72 -38t-60.5 -50t-50.5 -58.5q-2 -36 -3 -73t-1 -76v-365q0 -18 6.5 -27.5t22 -14t43 -5.5 t69.5 -2v-89h-49h-49.5t-54.5 0.5t-64 1.5q-37 0 -68.5 -0.5t-60.5 -0.5t-56.5 -0.5t-55.5 -0.5v89q42 1 70.5 2.5t46 7t24.5 16.5t7 29v389z" />
<glyph unicode="n" horiz-adv-x="1162" d="M35 89q56 0 87 2t46 8t18 16t3 26v632q0 12 -6.5 19t-23 10t-45 3.5t-74.5 0.5v89q89 0 164 1t147 4v-141q68 77 156.5 117.5t188.5 41.5q146 -1 224 -79.5t78 -248.5v-460q0 -16 7 -24t23.5 -11.5t43.5 -4t66 -1.5v-89h-47.5h-49t-54 0.5t-63.5 1.5q-73 0 -131 -1 t-116 -1v89q57 0 88 2t45 7.5t16.5 14t2.5 22.5v397q0 67 -7.5 121.5t-28 89.5t-56 52.5t-91.5 18.5q-54 -1 -99 -18t-80.5 -41.5t-62 -52t-45.5 -51.5q-3 -74 -3 -152v-363q0 -18 8.5 -27.5t27 -14t47 -5t69.5 -0.5v-89h-51h-51.5t-57 0.5t-66.5 1.5q-75 0 -133 -1t-114 -1 v89z" />
<glyph unicode="o" horiz-adv-x="1115" d="M557 918q105 0 193 -33t151.5 -95t98.5 -150t35 -193q0 -101 -35 -188.5t-98 -149.5t-151 -96t-194 -34t-193.5 33.5t-150.5 96t-97.5 150t-34.5 188.5q0 105 35 192.5t98 150t150.5 95.5t192.5 33zM557 814q-70 0 -126 -26t-95.5 -73t-60.5 -115.5t-21 -151.5 q0 -78 21.5 -146.5t61 -117t95.5 -74.5t125 -26t125 26t96 74.5t61.5 117t21.5 146.5q0 82 -21.5 151t-61 116t-96 73t-125.5 26z" />
<glyph unicode="p" horiz-adv-x="1194" d="M631 806q-69 0 -124.5 -25t-94 -71t-59.5 -112.5t-21 -148.5q0 -84 21.5 -152t61 -114.5t96 -72.5t126.5 -26t126 25t95.5 71t60.5 113.5t21 153.5q0 83 -21.5 149.5t-61.5 113t-97.5 71.5t-128.5 25zM22 -314q55 1 85.5 4.5t45 11t17.5 18.5t3 28v1016q0 16 -8.5 24.5 t-25.5 12t-44 4.5t-63 1v89h151t149 5l2 -165q51 85 139 132.5t203 47.5q97 0 177 -33.5t137 -94.5t88.5 -145.5t31.5 -187.5q0 -109 -31.5 -195t-88.5 -149t-137.5 -97t-178.5 -34q-110 0 -193 41t-138 119l-2 -395q0 -22 6 -33.5t21 -17t40.5 -6.5t63.5 -1h35v-90 q-9 0 -30 0.5t-47 0.5h-54h-52.5h-41.5h-21h-21h-40.5h-51h-53t-45.5 -0.5t-28 -0.5v90z" />
<glyph unicode="q" horiz-adv-x="1194" d="M864 447q0 82 -21 148.5t-59.5 117.5t-94 76t-124.5 25q-71 0 -128 -25t-97 -74.5t-61.5 -118t-21.5 -152.5q0 -85 21.5 -149.5t61 -112t95.5 -73t125 -25.5t125.5 26.5t96 71.5t61 113t21.5 152zM690 -314h38q47 0 72.5 2t37.5 8.5t14.5 18.5t2.5 32l-2 392 q-109 -160 -330 -160q-98 0 -178.5 34t-137.5 97t-88 148.5t-31 194.5q0 103 31 190t88 147.5t137 94t178 33.5q112 0 199 -48t142 -133l1 163q74 -5 151 -5h156v-89q-59 1 -87 -4.5t-42 -14.5t-16.5 -22.5t-2.5 -31.5v-983q0 -22 3.5 -34.5t18.5 -18.5t45.5 -8t84.5 -3v-90 q-10 0 -32 0.5t-49 0.5h-56h-53.5h-42h-21.5h-20.5h-39.5h-49.5h-50.5t-43.5 -0.5t-27.5 -0.5v90z" />
<glyph unicode="r" horiz-adv-x="822" d="M793 707h-60q-20 48 -50 65.5t-82 17.5q-49 0 -90 -23t-71 -65.5t-46.5 -102t-17.5 -132.5q-1 -1 -1 -24.5t-0.5 -58.5t-0.5 -75.5v-76.5v-60.5v-26.5q0 -21 8.5 -32.5t28.5 -17t53 -6t81 -0.5v-89q-32 0 -61.5 0.5t-61.5 0.5t-67.5 0.5t-78.5 0.5q-37 0 -67 -0.5 t-56.5 -0.5t-51.5 -0.5t-52 -0.5v89q57 0 88.5 2.5t46.5 9.5t17.5 20t2.5 33v606q0 17 -5.5 26.5t-22 14t-46 5t-76.5 0.5v89q11 0 34.5 -0.5t46.5 -0.5h59q42 0 84.5 2t87.5 3v-182q48 94 133.5 147.5t202.5 53.5q44 0 91 -6v-205z" />
<glyph unicode="s" horiz-adv-x="927" d="M800 618h-94q-4 100 -66.5 154.5t-180.5 54.5q-50 0 -87 -12t-62 -32t-37 -46.5t-12 -54.5q0 -31 16.5 -54.5t46.5 -41.5t71.5 -32t91.5 -27q81 -21 146.5 -44t111 -54.5t70.5 -76t25 -109.5q0 -64 -26 -113t-73.5 -82.5t-114.5 -51t-149 -17.5q-104 0 -173 25t-113 79 l-10 -83q-23 1 -44 1.5t-44 -1.5v297h97q6 -116 75 -169.5t189 -53.5q51 0 93.5 10.5t72.5 28.5t47 44t17 62q0 39 -23.5 66t-63 47.5t-92 36t-110.5 32.5q-71 22 -124.5 45.5t-89.5 53.5t-54 70t-18 94q0 52 22.5 98t64.5 81.5t101.5 55t133.5 19.5q82 0 155 -23.5 t118 -70.5q0 1 3.5 11.5t7.5 23.5q4 15 10 36q18 -1 34 -1q14 0 25.5 0.5t15.5 0.5v-277z" />
<glyph unicode="t" horiz-adv-x="655" d="M344 1148v-253h240v-89h-239v-501q0 -51 1 -91.5t9.5 -69.5t27.5 -44.5t55 -15.5q14 0 28 5.5t24.5 18.5t17 33.5t6.5 50.5l91 9q0 -59 -16.5 -101t-44 -68.5t-64.5 -39.5t-78 -13q-70 0 -113.5 23t-68 63.5t-33.5 99.5t-9 131v510h-164v79q25 1 56 3.5t59 4.5l66 6 q1 7 3 25.5t4 43t5 51t5 49t3.5 38t1.5 16.5z" />
<glyph unicode="u" horiz-adv-x="1170" d="M472 -21q-95 0 -152 29t-87.5 85.5t-40 139t-9.5 189.5v317q0 25 -4.5 39t-19.5 20t-43.5 7t-75.5 1v87h82t74.5 0.5t74 2t80.5 3.5v-528q0 -63 5.5 -117t24 -92t53 -58t92.5 -20q54 0 99.5 11.5t82.5 33t65 51.5t47 62q2 37 2 73.5v74.5v344q0 27 -4.5 41.5t-20 21.5 t-44.5 8t-78 1v87q76 0 155.5 1t159.5 6v-760q0 -18 5 -28.5t20.5 -15.5t43.5 -6t74 -1v-89q-90 0 -163 -1t-141 -3v134q-69 -76 -160 -113.5t-197 -37.5z" />
<glyph unicode="v" horiz-adv-x="1094" d="M161 712q-16 37 -26.5 56t-25 27.5t-37 9.5t-61.5 1l-1 89q52 0 103 -1t98 -1t107.5 1t135.5 1l-1 -89q-81 0 -111 -6.5t-31 -31.5q1 -14 8 -33.5t18 -48.5q14 -35 31 -79.5t36 -92t38 -96t37 -93.5q42 -106 86 -218q1 3 11 28t25.5 65t35 90t39.5 102.5t39.5 102.5 t35 89.5t25.5 66t11 28.5q11 27 17 48.5t8 36.5q-1 13 -8.5 21.5t-23.5 13t-42 6t-64 1.5v89q51 0 95.5 -1.5t91.5 -1.5q54 0 109.5 1.5t112.5 1.5v-89q-32 0 -53 -2t-35.5 -8.5t-25 -18t-20 -31.5t-21 -49.5t-28.5 -70.5l-265 -638h-166z" />
<glyph unicode="w" horiz-adv-x="1597" d="M14 895q51 -1 100.5 -1.5t89.5 -0.5q36 0 88.5 1t114.5 1v-89h-75q-23 0 -30.5 -7.5t-7.5 -28.5q0 -20 5 -45.5t12.5 -53.5t16.5 -57t18 -56q11 -36 25.5 -81.5t29.5 -93.5t29 -94.5t25 -83.5t18 -60.5t8 -26.5q18 60 33 111q6 22 12.5 43.5t12.5 40.5t10.5 33.5 t7.5 22.5l149 453h210l126 -393q4 -15 10.5 -36.5t14 -46.5t15 -52.5t15.5 -53.5q18 -62 37 -129q53 177 95 318q18 60 35.5 119t31 105t22.5 76t11 33q2 7 3 11.5t2 9.5q-2 16 -27.5 19.5t-91.5 3.5v89q42 0 85.5 -1t85.5 -1q50 0 98.5 1t98.5 1v-89q-45 0 -68 -3.5 t-37.5 -21t-26.5 -55t-34 -105.5l-207 -633h-174l-237 762l-238 -762h-176l-237 711q-13 38 -21.5 59t-21 31.5t-33.5 13.5t-58 3v89z" />
<glyph unicode="x" horiz-adv-x="1101" d="M48 895q4 0 27.5 -0.5t55 -0.5t63.5 -0.5t53 -0.5h47t45 0.5t48.5 1t55.5 0.5l2 -74q-56 -1 -79 -5.5t-23 -17.5q0 -14 14 -29.5t34 -38.5l167 -191l131 156q30 36 49 60.5t19 39.5t-20.5 20.5t-68.5 5.5l1 74q49 0 91 -1t80 -1q47 0 92.5 0.5t106.5 1.5v-89h-27 q-34 0 -53 -2.5t-36 -15t-39.5 -39t-63.5 -77.5q-20 -24 -50 -59.5t-58 -68.5q-33 -39 -67 -79q71 -81 128 -145q24 -27 48 -53.5t42.5 -47.5t30.5 -36t14 -16q26 -30 41.5 -45.5t30.5 -23t34 -8.5t53 -1v-89q-41 0 -84.5 1t-104.5 1q-5 0 -28 -0.5t-52.5 -0.5t-59 -0.5 t-46.5 -0.5v74q58 0 77 19q-11 17 -26 38.5t-33 44.5t-37 47t-38 46q-44 52 -93 107q-59 -70 -107 -125q-20 -24 -39.5 -46.5t-35 -41t-25.5 -30.5t-11 -13q-2 -8 -2 -10q0 -17 22.5 -25.5t76.5 -10.5l-1 -74q-4 0 -26 0.5t-51.5 1t-61.5 0.5h-56q-30 0 -54.5 -0.5 t-46.5 -0.5t-43 -0.5t-45 -0.5v89h47q19 0 33 3.5t27 12t27 23.5t33 38q1 2 12.5 16.5t28.5 35t38.5 46.5t43.5 52q52 62 116 139l-237 273q-26 30 -41.5 45.5t-30.5 23t-34 8.5t-51 1v89z" />
<glyph unicode="y" horiz-adv-x="1060" d="M161 -272q26 -4 50 -8q20 -3 41 -5t35 -2q21 0 39.5 9t37 29.5t38 54t41.5 82.5l38 100q-91 197 -165 355q-32 67 -62.5 133t-55.5 122.5t-42 93t-21 44.5q-11 24 -20 37.5t-20.5 21t-29 9.5t-46.5 2h-36v89q57 0 112.5 -1t104.5 -1q47 0 106.5 1t134.5 1v-89h-88 q-27 0 -42.5 -9.5t-16.5 -33.5q1 -20 9 -45t19.5 -51.5t24 -53t23.5 -50.5l191 -408q40 101 80 199q17 42 35 86.5l36 89t34.5 86.5t30.5 76q9 22 14 38t6 30q-1 15 -6.5 24t-20.5 14t-43 6.5t-73 1.5v89q52 0 100.5 -1t96.5 -1q53 0 109 1t114 1v-89q-43 0 -67.5 -3 t-39.5 -13.5t-25 -30t-25 -52.5l-345 -814q-36 -85 -68 -142t-65 -91.5t-69.5 -49t-82.5 -14.5q-22 0 -45 4t-43 9q-23 5 -45 13z" />
<glyph unicode="z" horiz-adv-x="975" d="M881 894v-119l-622 -678h452q28 0 46 1.5t29 11t15.5 31t4.5 61.5v53q0 20 -0.5 36.5t-0.5 17.5h87v-309h-810v120l622 677h-439q-25 0 -39 -8.5t-21 -30t-8.5 -59.5t-1.5 -98h-86v293h772z" />
<glyph unicode="{" horiz-adv-x="860" d="M704 -332q-89 0 -153 16.5t-104.5 57t-59.5 109t-19 171.5v192q0 68 -11.5 118.5t-39 85t-73 53.5t-112.5 22v103q68 3 113.5 21.5t72.5 53.5t38.5 87t11.5 123v186q0 100 18.5 168t59 109.5t104 59t153.5 17.5q4 0 11.5 -0.5t12.5 -1.5v-94q-65 -1 -106 -11.5t-65 -39.5 t-33 -82t-9 -139q-1 -125 -7 -211.5t-29.5 -145.5t-71 -94.5t-131.5 -56.5q69 -18 115 -47.5t73.5 -76t39 -112t11.5 -156.5q0 -84 1.5 -145t8.5 -104.5t20 -70.5t37 -42.5t59.5 -21.5t86.5 -7v-93q-5 -1 -11.5 -1h-11.5z" />
<glyph unicode="|" horiz-adv-x="1038" d="M586 -448h-133v1890h133v-1890z" />
<glyph unicode="}" horiz-adv-x="860" d="M492 885q0 -72 11 -124.5t38 -88t72.5 -54.5t114.5 -22v-103q-68 -3 -113 -22t-72.5 -54t-39 -86t-11.5 -120v-137q0 -117 -15.5 -195.5t-54.5 -125t-104 -66t-164 -19.5h-10.5t-10.5 1v93q66 1 107 12t64 41t31.5 84.5t9.5 143.5q1 118 7 202.5t29.5 143t71 95.5 t131.5 60q-74 20 -120.5 51.5t-72.5 81t-35.5 120t-10.5 166.5q-1 77 -3 134t-9 97t-20.5 65t-37 39.5t-58.5 20t-84 6.5v95q4 1 10.5 1h11.5q88 0 152 -17.5t105 -58t60.5 -107t19.5 -165.5v-188z" />
<glyph unicode="~" horiz-adv-x="1528" d="M1375 640q-98 -69 -178.5 -100.5t-158.5 -31.5q-45 0 -89 10t-95 28q-56 19 -105.5 38.5t-94.5 34.5t-84.5 24.5t-75.5 9.5q-38 0 -74 -7.5t-76 -24.5t-86 -44.5t-103 -67.5v137q97 66 180.5 98.5t160.5 32.5q30 0 60 -4.5t62.5 -13t69.5 -21.5t82 -30 q83 -32 148.5 -53.5t119.5 -21.5q36 0 72 7.5t76 24t86.5 43.5t102.5 66v-134z" />
<glyph unicode="&#xa1;" horiz-adv-x="596" d="M180 0zM288 172q28 0 48.5 -7.5t33.5 -20t19 -28.5t6 -34q0 -36 -24.5 -63.5t-82.5 -27.5t-83 26.5t-25 64.5q0 18 6 34t19 28.5t33.5 20t49.5 7.5zM379 1290q0 -2 0.5 -21.5t0.5 -43.5v-44v-22q0 -5 -2 -40.5t-5.5 -90t-7.5 -123.5t-9 -140t-9.5 -140t-8.5 -123.5 t-6.5 -90t-3.5 -40.5h-71q-1 5 -3.5 40.5t-6.5 90t-8 123t-8.5 140t-9 140.5t-7.5 123.5t-5 90.5t-2 41v21v44t0.5 43.5t0.5 21.5h171z" />
<glyph unicode="&#xa2;" horiz-adv-x="1122" d="M514 -27q-99 6 -178.5 42.5t-136 98t-87 145.5t-30.5 186q0 99 32 184t89.5 148t136.5 100t174 40v176h92v-179q64 -8 115 -29.5t89 -67.5l25 78h97v-319h-106q-3 116 -70.5 176t-185.5 60q-71 0 -127 -25t-95 -71.5t-59.5 -113.5t-20.5 -151q0 -85 21.5 -153t61 -116 t95.5 -74t125 -26q100 0 168 53t97 151l126 -25q-16 -63 -48 -114t-77.5 -87.5t-103.5 -58t-127 -26.5v-176h-92v174z" />
<glyph unicode="&#xa3;" horiz-adv-x="1135" d="M1064 306q-1 -77 -19 -137t-50.5 -101t-78.5 -63t-103 -22q-71 0 -145 38.5t-156 121.5q-41 -77 -100.5 -118.5t-130.5 -41.5q-43 0 -78.5 14t-61.5 38.5t-40.5 59t-14.5 75.5q0 39 15 72.5t42.5 58t65.5 38.5t83 14q41 0 76.5 -11.5t78.5 -39.5q1 8 1.5 17t0.5 19 q0 70 -20.5 147t-50.5 143h-271v99h232q-27 55 -45.5 100.5t-30 85.5t-16.5 75t-5 69q0 73 26.5 132.5t75.5 101.5t118 64.5t154 22.5q175 0 270.5 -85t99.5 -244l-131 -6q-5 111 -66.5 170.5t-167.5 59.5q-50 0 -91 -15t-71 -41.5t-46.5 -64t-16.5 -82.5q0 -51 24 -135 t77 -208h276v-99h-242q24 -63 34 -117t10 -105q0 -47 -6 -85.5t-16 -79.5q40 -34 74 -61t64 -45.5t59 -28.5t59 -10q73 0 108.5 52t40.5 167zM427 210q-29 29 -64.5 45.5t-69.5 16.5q-47 0 -77.5 -29t-30.5 -74q0 -42 26.5 -67.5t65.5 -25.5q50 0 87 31.5t63 102.5z" />
<glyph unicode="&#xa4;" horiz-adv-x="1303" d="M389 1104q67 47 129 68.5t134 21.5t135 -21.5t129 -68.5l169 166l78 -79l-168 -164q44 -55 66.5 -120t22.5 -136q0 -28 -5 -60.5t-15.5 -66t-27.5 -66.5t-41 -63l168 -163l-78 -79l-168 164q-61 -44 -126.5 -65.5t-140.5 -21.5q-74 0 -137.5 21t-123.5 65l-167 -163 l-80 79l166 162q-46 62 -67.5 124t-21.5 134q0 70 21.5 131.5t67.5 124.5l-166 163l80 79zM970 773q0 63 -25 119.5t-68.5 98.5t-101 66.5t-123.5 24.5t-124 -24.5t-101 -66.5t-68 -98.5t-25 -119.5q0 -65 25 -121.5t68 -99t101 -67t124 -24.5q65 0 123 24.5t101.5 67 t68.5 99.5t25 121z" />
<glyph unicode="&#xa5;" horiz-adv-x="1169" d="M-6 1290q32 -2 65.5 -2.5t82.5 -0.5q45 0 85 0.5t82 1t90 1t108 0.5v-99h-35q-66 0 -95.5 -3.5t-29.5 -23.5q0 -14 11.5 -35t33.5 -56l256 -412l254 402q23 38 36.5 62t13.5 38q0 19 -28 23.5t-94 4.5h-34v99q46 -1 82.5 -1.5t67 -0.5h57.5h54h105.5t102.5 2v-99 q-46 0 -72 -1.5t-42.5 -9t-29 -23.5t-31.5 -44q-11 -17 -28 -42t-36.5 -55t-41 -62t-41.5 -63h261v-91h-322l-77 -117h399v-93h-453q-8 -12 -13.5 -22t-10.5 -18q-5 -9 -9 -17v-374q0 -20 4 -32t17.5 -18t39.5 -8t70 -2h52v-99h-125t-149 2q-41 0 -76.5 -0.5t-67.5 -0.5 t-61.5 -0.5t-59.5 -0.5v99h51q47 0 73 3.5t38.5 10.5t15 18t2.5 26v378l-32 55h-443v93h389l-76 117h-313v91h254l-118 183q-27 42 -44.5 66t-37.5 35t-48.5 13.5t-78.5 2.5v99z" />
<glyph unicode="&#xa6;" horiz-adv-x="1038" d="M586 724h-133v733h133v-733zM586 -203h-133v732h133v-732z" />
<glyph unicode="&#xa7;" horiz-adv-x="997" d="M495 1316q71 0 134.5 -17.5t111.5 -56t76.5 -99t29.5 -147.5h-106q-10 228 -246 228q-49 0 -89.5 -12t-70 -34.5t-45.5 -55t-16 -72.5q0 -41 13 -70t43.5 -54.5t80.5 -50t124 -54.5q89 -36 160.5 -71.5t122 -77.5t77.5 -94.5t27 -122.5q0 -78 -43.5 -143.5t-126.5 -115.5 q120 -84 120 -227q0 -69 -25.5 -124t-73.5 -93t-117 -58.5t-156 -20.5q-105 0 -196 24.5t-160 73.5l-2 198h104q1 -99 60.5 -151t193.5 -52q52 0 94 13t71 37t45 57t16 73q0 39 -20 72t-56.5 61.5t-87 54t-111.5 50.5q-82 33 -151 66.5t-118.5 74t-77.5 92t-28 122.5 q0 76 40 139t129 126q-119 81 -119 227q0 65 26 117.5t74 90t116.5 57.5t152.5 20zM324 757q-60 -57 -83.5 -102t-23.5 -87q0 -59 39 -103t102.5 -80.5t145 -70t166.5 -70.5q58 44 85 91t27 99q0 55 -30 94.5t-88.5 74.5t-144 70.5t-195.5 83.5z" />
<glyph unicode="&#xa8;" horiz-adv-x="853" d="M613 1274q42 0 67 -24t25 -65q0 -40 -25 -64.5t-68 -24.5q-42 0 -66.5 25t-24.5 65t25 64t67 24zM240 1274q42 0 66.5 -23.5t24.5 -65.5q0 -40 -24.5 -64.5t-67.5 -24.5q-42 0 -66.5 25t-24.5 65t25 64t67 24z" />
<glyph unicode="&#xa9;" horiz-adv-x="1666" d="M834 1402q103 0 197.5 -26.5t176 -74t147.5 -113.5t113.5 -145.5t73 -170.5t25.5 -187q0 -98 -26.5 -189t-74 -170.5t-115 -145t-149 -112.5t-175 -72.5t-194.5 -25.5t-195 25.5t-175.5 72.5t-148.5 112.5t-115 145t-74 170.5t-26 189t26.5 189.5t74 171t115 145.5 t149 112.5t175.5 72.5t195 26zM1470 685q0 131 -51 245.5t-138 199.5t-202.5 134t-245.5 49q-133 0 -249.5 -50.5t-203 -136.5t-136.5 -200t-50 -241q0 -130 51 -244t138 -198.5t203 -133.5t246 -49q88 0 170 23t153 64t129 98.5t99.5 127t64 148.5t22.5 164zM1163 829 l-78 -13q-34 106 -96.5 158.5t-151.5 52.5q-60 0 -108 -22.5t-81.5 -65t-52 -105t-18.5 -141.5q0 -83 18 -148.5t52 -111t82.5 -69.5t109.5 -24q80 0 147.5 42t115.5 140l70 -28q-26 -64 -63.5 -108.5t-83 -72.5t-96 -40.5t-102.5 -12.5q-86 0 -158 33t-125 90t-82.5 133.5 t-29.5 162.5q0 83 29 158t82.5 132t129 90.5t167.5 33.5q41 0 77 -10t64.5 -26t50 -36t33.5 -39l10 110l88 -8v-255z" />
<glyph unicode="&#xaa;" horiz-adv-x="1060" d="M84 0zM896 224q0 -52 3.5 -79.5t13.5 -40t28.5 -14t48.5 -1.5h45v-89q-79 0 -156.5 -1t-144.5 -3v137q-60 -77 -142.5 -115.5t-192.5 -38.5q-72 0 -130 20.5t-99 56.5t-63.5 86t-22.5 110q0 64 26 116.5t76 89.5t121.5 57.5t163.5 20.5q63 0 127 -9.5t130 -26.5v144 q0 91 -60.5 139t-185.5 48q-105 0 -164.5 -40.5t-79.5 -125.5l-92 11l13 176q64 29 149.5 47.5t192.5 18.5q106 0 181 -19t122.5 -58t69.5 -99.5t22 -142.5v-375zM509 452q-60 0 -108 -13.5t-81.5 -38.5t-51.5 -61t-18 -82q0 -41 14.5 -72.5t41 -53.5t63.5 -35t81 -12 q48 -1 97.5 14.5t89.5 44t65.5 72t25.5 104.5v98q-60 17 -114 26t-105 9z" />
<glyph unicode="&#xab;" horiz-adv-x="1003" d="M516 841l-270 -392l270 -390h-167l-267 390l267 392h167zM940 841l-271 -392l271 -390h-167l-257 390l257 392h167z" />
<glyph unicode="&#xac;" horiz-adv-x="1536" d="M1338 349h-121v422h-1020v121h1141v-543z" />
<glyph unicode="&#xad;" horiz-adv-x="741" d="M75 541h589v-138h-589v138z" />
<glyph unicode="&#xae;" horiz-adv-x="1666" d="M1193 376v-62h-96q-33 0 -56 13t-38.5 33.5t-25.5 46.5t-17.5 52.5t-13.5 50t-14 40.5q-29 61 -78.5 84t-129.5 23h-48v-265q0 -13 13 -20.5t51 -11.5v-62h-252v62q38 5 51.5 14t13.5 25v606q0 18 -12.5 29t-52.5 17v30h295q82 0 150.5 -9.5t117.5 -32.5t76.5 -62.5 t27.5 -100.5q0 -79 -64.5 -133t-189.5 -72q66 -21 107 -54t64 -96q6 -15 12 -39.5t16 -48t24 -40.5t35 -17h34zM676 721q22 0 50 -0.5t51 -0.5q123 0 182 36.5t59 114.5q0 75 -51 109.5t-162 34.5q-20 0 -42 -0.5t-42 -0.5h-45v-293zM834 1402q105 0 200 -26.5t176.5 -74.5 t147.5 -114.5t112.5 -146t71.5 -170t25 -186.5q0 -97 -26.5 -188t-74.5 -170.5t-115 -145t-149 -112t-176 -72.5t-196 -26q-100 0 -193.5 26t-174.5 72.5t-148 112t-115 145t-74 170.5t-26 189t26.5 189.5t74 171.5t114.5 145.5t149 112.5t175.5 72.5t195.5 25.5zM1470 685 q0 134 -52 249t-140 199t-203 132t-242 48q-88 0 -169.5 -23t-152.5 -64t-129.5 -98.5t-100 -127.5t-64.5 -150t-23 -165q0 -87 23 -167t65 -149.5t100.5 -126.5t129.5 -97.5t152 -62.5t168 -22q89 0 170.5 23t152.5 64t129 98.5t99.5 127t64 148.5t22.5 164z" />
<glyph unicode="&#xaf;" horiz-adv-x="682" d="M-11 1274h705v-75h-705v75z" />
<glyph unicode="&#xb0;" horiz-adv-x="743" d="M372 1398q61 0 114 -22.5t93 -61.5t63 -91t23 -111t-23 -111t-63 -91t-93.5 -61.5t-114.5 -22.5t-114 22.5t-92.5 61t-62.5 90.5t-23 112t23 112t62.5 90.5t93 61t114.5 22.5zM572 1112q0 33 -14 68t-40 63.5t-63 46.5t-83 18q-43 0 -80 -16t-64 -43t-42.5 -62.5 t-15.5 -74.5t15 -74.5t42 -63t64 -43.5t81 -16q40 0 76.5 15.5t64 42t43.5 62.5t16 77z" />
<glyph unicode="&#xb1;" horiz-adv-x="1536" d="M830 846h508v-120h-508v-398h-123v398h-510v120h510v398h123v-398zM1338 5h-1141v119h1141v-119z" />
<glyph unicode="&#xb2;" d="M130 0q-1 7 -1 14.5v15.5q0 94 27.5 161t74.5 119t110 96t134 91q33 22 57 42.5t39.5 42.5t23.5 47t8 55q0 36 -13 65t-37 49.5t-57 31.5t-73 11q-56 0 -93 -12.5t-59.5 -36t-32 -58t-9.5 -78.5l-79 2v170q51 41 120.5 61.5t172.5 20.5q131 0 202 -62.5t71 -175.5 q0 -52 -16.5 -89.5t-49.5 -71t-83.5 -68t-118.5 -79.5q-63 -42 -104 -80t-65 -73.5t-33.5 -68t-9.5 -62.5h360q17 0 26.5 6.5t14 26.5t6 56t1.5 95h72v-264h-586z" />
<glyph unicode="&#xb3;" d="M200 263q0 -106 54 -157.5t160 -51.5q38 0 74.5 11t65 34.5t46 59t17.5 83.5q0 54 -20.5 90.5t-55.5 58.5t-81 31.5t-97 9.5v75q50 1 91 12.5t70 33.5t45 54t16 75q0 36 -13 65.5t-37 50.5t-57.5 32.5t-74.5 11.5q-96 0 -135.5 -48t-40.5 -135l-81 1v176q53 38 119 56.5 t142 18.5q68 0 121.5 -16t91 -45.5t57 -72.5t19.5 -97q0 -160 -172 -204q45 -9 83.5 -27t66 -46.5t43 -68.5t15.5 -93q0 -62 -22.5 -110.5t-65 -83t-103 -52.5t-136.5 -18q-65 0 -118 18.5t-91 54.5t-59.5 89.5t-21.5 122.5z" />
<glyph unicode="&#xb4;" horiz-adv-x="853" d="M457 1271q12 16 27.5 31t33 26.5t36 18.5t36.5 7q26 0 44 -9.5t18 -25.5q0 -14 -15 -28l-283 -262h-84z" />
<glyph unicode="&#xb5;" horiz-adv-x="1145" d="M233 -413q-28 0 -52 23t-24 69q0 57 4.5 137.5t9.5 171.5t9 188t4 187l-1 375q0 25 -4.5 39t-19.5 20t-43.5 7t-75.5 1v88h82t74.5 0.5t74 2t80.5 3.5v-528q0 -63 5.5 -114.5t24 -88t53 -56.5t92.5 -20q54 0 99.5 11.5t82.5 31.5t65 47.5t47 59.5q1 1 1 19t0.5 44.5 t0.5 57.5v58v45v20v247q0 27 -4.5 41.5t-20 21.5t-44.5 8t-78 1v88q76 0 155.5 1t159.5 6v-760q0 -18 5 -28.5t20.5 -15.5t43.5 -6t74 -1v-89q-90 0 -163 -1t-141 -3v134q-69 -76 -160 -113t-197 -37q-52 0 -90.5 8.5t-67.5 25.5q2 -59 3 -125t1 -121q0 -50 -4 -84.5 t-14 -56t-26.5 -31t-40.5 -9.5z" />
<glyph unicode="&#xb6;" horiz-adv-x="1214" d="M985 1284v-1497h-125v1497h-218v-1497h-126v860q-105 2 -184.5 32t-133 81t-81 119.5t-27.5 148.5q0 89 33 158.5t94 117.5t145.5 73t188.5 25h591v-118h-157z" />
<glyph unicode="&#xb7;" horiz-adv-x="560" d="M271 894q28 0 48.5 -7.5t34 -20t19.5 -28.5t6 -34q0 -36 -25 -63.5t-83 -27.5t-82.5 26.5t-24.5 64.5q0 18 6 34t19 28.5t33 20t49 7.5z" />
<glyph unicode="&#xb8;" horiz-adv-x="853" d="M451 -6l-6 -90q1 0 8.5 0.5t12.5 0.5q41 0 74 -12t56 -33t35.5 -50.5t12.5 -64.5q0 -42 -17.5 -74t-50 -53t-78 -31.5t-102.5 -10.5q-41 0 -84.5 6.5t-100.5 26.5l19 71q42 -16 79 -23t69 -7q66 0 101 23t35 71q0 42 -32.5 61t-93.5 21h-9.5t-9.5 -1l14 169h68z" />
<glyph unicode="&#xb9;" d="M549 872v-765q0 -12 1.5 -19.5t10 -12t27 -6t52.5 -1.5h46v-68h-44h-44t-48.5 0.5t-56.5 0.5h-62t-49.5 -0.5t-44 -0.5h-46.5v68h71q28 0 43 3t22 8.5t8 13t1 16.5v689q-42 -21 -83.5 -35.5t-82.5 -23.5v86q54 10 105 28t103 43z" />
<glyph unicode="&#xba;" horiz-adv-x="771" d="M384 1311q75 0 136.5 -22t105.5 -62.5t68 -97t24 -126.5t-24 -127t-67.5 -97.5t-104.5 -62.5t-136 -22t-136.5 22t-105 62.5t-67.5 97.5t-24 127t23.5 126.5t67 97t104.5 62.5t136 22zM386 1243q-98 0 -154 -64t-56 -176q0 -56 14.5 -100t42 -75.5t66.5 -48t87 -16.5 t86.5 17t65.5 48t41.5 75.5t14.5 100.5q0 111 -55.5 175t-152.5 64z" />
<glyph unicode="&#xbb;" horiz-adv-x="1003" d="M249 841l257 -392l-257 -390h-167l271 390l-271 392h167zM673 841l267 -392l-267 -390h-167l270 390l-270 392h167z" />
<glyph unicode="&#xbc;" horiz-adv-x="2064" d="M270 0zM549 1267v-765q0 -12 1.5 -19.5t10 -12t27 -6t52.5 -1.5h46v-68h-44h-44t-48.5 0.5t-56.5 0.5h-62t-49.5 -0.5t-44 -0.5h-46.5v68h71q28 0 43 3t22 8.5t8 13t1 16.5v689q-42 -21 -83.5 -35.5t-82.5 -23.5v86q54 10 105 28t103 43zM1307 1304l-497 -1409h-124 l497 1409h124zM1693 896v-559h150v-73h-150v-156q0 -12 1 -20.5t8 -14t21 -7.5t41 -2h37v-64q-34 0 -81 0.5t-104 0.5h-48.5t-39.5 -0.5t-34.5 -0.5h-34.5v64h45q29 0 46 1.5t26 5.5t11.5 10.5t2.5 16.5v166h-389q-6 49 -18 90l385 542h125zM1261 336h330v472h-1z" />
<glyph unicode="&#xbd;" horiz-adv-x="2064" d="M270 0zM549 1267v-765q0 -12 1.5 -19.5t10 -12t27 -6t52.5 -1.5h46v-68h-44h-44t-48.5 0.5t-56.5 0.5h-62t-49.5 -0.5t-44 -0.5h-46.5v68h71q28 0 43 3t22 8.5t8 13t1 16.5v689q-42 -21 -83.5 -35.5t-82.5 -23.5v86q54 10 105 28t103 43zM1281 1304l-497 -1409h-124 l497 1409h124zM1223 0q-1 7 -1 14.5v15.5q0 94 27.5 161t74.5 119t110 96t134 91q33 22 57 42.5t39.5 42.5t23.5 47t8 55q0 36 -13 65t-37 49.5t-57 31.5t-73 11q-56 0 -93 -12.5t-59.5 -36t-32 -58t-9.5 -78.5l-79 2v170q51 41 120.5 61.5t172.5 20.5q131 0 202 -62.5 t71 -175.5q0 -52 -16.5 -89.5t-49.5 -71t-83.5 -68t-118.5 -79.5q-63 -42 -104 -80t-65 -73.5t-33.5 -68t-9.5 -62.5h360q17 0 26.5 6.5t14 26.5t6 56t1.5 95h72v-264h-586z" />
<glyph unicode="&#xbe;" horiz-adv-x="2064" d="M115 0zM200 658q0 -106 54 -157.5t160 -51.5q38 0 74.5 11t65 34.5t46 59t17.5 83.5q0 54 -20.5 90.5t-55.5 58.5t-81 31.5t-97 9.5v75q50 1 91 12.5t70 33.5t45 54t16 75q0 36 -13 65.5t-37 50.5t-57.5 32.5t-74.5 11.5q-96 0 -135.5 -48t-40.5 -135l-81 1v176 q53 38 119 56.5t142 18.5q68 0 121.5 -16t91 -45.5t57 -72.5t19.5 -97q0 -160 -172 -204q45 -9 83.5 -27t66 -46.5t43 -68.5t15.5 -93q0 -62 -22.5 -110.5t-65 -83t-103 -52.5t-136.5 -18q-65 0 -118 18.5t-91 54.5t-59.5 89.5t-21.5 122.5zM1307 1304l-497 -1409h-124 l497 1409h124zM1693 896v-559h150v-73h-150v-156q0 -12 1 -20.5t8 -14t21 -7.5t41 -2h37v-64q-34 0 -81 0.5t-104 0.5h-48.5t-39.5 -0.5t-34.5 -0.5h-34.5v64h45q29 0 46 1.5t26 5.5t11.5 10.5t2.5 16.5v166h-389q-6 49 -18 90l385 542h125zM1261 336h330v472h-1z" />
<glyph unicode="&#xbf;" horiz-adv-x="980" d="M89 0zM492 364h-113q-1 2 -2 18t-2 34.5t-1.5 33.5t-0.5 17q0 55 15.5 95.5t41 71.5t58 55t67 46t67 45t58 51.5t41 65.5t15.5 87q0 52 -19.5 94.5t-55 73t-85 47t-109.5 16.5q-136 0 -198.5 -66t-63.5 -201h-116l5 252q76 55 171.5 85t205.5 30q101 0 181 -22t136 -62.5 t86 -97.5t30 -128q0 -80 -25 -135t-64 -95t-86 -71t-91.5 -65t-80.5 -76t-53 -103zM440 172q28 0 48.5 -7.5t34 -20t19.5 -28.5t6 -34q0 -36 -25 -63.5t-83 -27.5t-82.5 26.5t-24.5 64.5q0 18 6 34t19 28.5t33 20t49 7.5z" />
<glyph unicode="&#xc0;" horiz-adv-x="1383" d="M0 0zM810 1290l17 -45t45 -119t64.5 -168.5t74 -194t74 -194.5t65.5 -170.5t47 -123t19 -50.5q18 -47 29.5 -72.5t28.5 -37.5t46.5 -14.5t83.5 -2.5v-98q-56 0 -111 1t-114 1h-62h-62t-68 -0.5t-81 -1.5q0 8 -0.5 24.5t-0.5 32.5v39q46 0 75 0.5t46 3t23.5 8t6.5 15.5 q-2 5 -3 13t-4 19l-106 318h-523q-1 -2 -9 -25.5t-20 -58t-26 -74.5t-26.5 -74.5t-20.5 -58t-8 -24.5q-10 -25 -10 -36q0 -19 20.5 -23t68.5 -4h72v-95q-56 0 -111.5 1t-112.5 1h-57.5h-56.5t-61.5 -0.5t-72.5 -1.5v99q50 1 78.5 2t44.5 8t24.5 21t18.5 41q1 3 12.5 32.5 t30 77.5t42.5 111.5t51.5 134.5t56 145.5t55.5 145.5t51.5 134.5t43 111.5t29.5 77.5t12 32.5l40 116h231zM458 574h448l-224 622zM889 1424h-83q-23 20 -54 44.5t-65 51t-68 53.5t-61 53.5t-44.5 50t-19.5 42.5q0 16 22 27t52 11q27 0 53.5 -9t37.5 -23z" />
<glyph unicode="&#xc1;" horiz-adv-x="1383" d="M0 0zM810 1290l17 -45t45 -119t64.5 -168.5t74 -194t74 -194.5t65.5 -170.5t47 -123t19 -50.5q18 -47 29.5 -72.5t28.5 -37.5t46.5 -14.5t83.5 -2.5v-98q-56 0 -111 1t-114 1h-62h-62t-68 -0.5t-81 -1.5q0 8 -0.5 24.5t-0.5 32.5v39q46 0 75 0.5t46 3t23.5 8t6.5 15.5 q-2 5 -3 13t-4 19l-106 318h-523q-1 -2 -9 -25.5t-20 -58t-26 -74.5t-26.5 -74.5t-20.5 -58t-8 -24.5q-10 -25 -10 -36q0 -19 20.5 -23t68.5 -4h72v-95q-56 0 -111.5 1t-112.5 1h-57.5h-56.5t-61.5 -0.5t-72.5 -1.5v99q50 1 78.5 2t44.5 8t24.5 21t18.5 41q1 3 12.5 32.5 t30 77.5t42.5 111.5t51.5 134.5t56 145.5t55.5 145.5t51.5 134.5t43 111.5t29.5 77.5t12 32.5l40 116h231zM458 574h448l-224 622zM685 1666q12 16 27.5 31t33 26.5t36 18.5t36.5 7q26 0 44 -9.5t18 -25.5q0 -14 -15 -28l-283 -262h-84z" />
<glyph unicode="&#xc2;" horiz-adv-x="1383" d="M0 0zM810 1290l17 -45t45 -119t64.5 -168.5t74 -194t74 -194.5t65.5 -170.5t47 -123t19 -50.5q18 -47 29.5 -72.5t28.5 -37.5t46.5 -14.5t83.5 -2.5v-98q-56 0 -111 1t-114 1h-62h-62t-68 -0.5t-81 -1.5q0 8 -0.5 24.5t-0.5 32.5v39q46 0 75 0.5t46 3t23.5 8t6.5 15.5 q-2 5 -3 13t-4 19l-106 318h-523q-1 -2 -9 -25.5t-20 -58t-26 -74.5t-26.5 -74.5t-20.5 -58t-8 -24.5q-10 -25 -10 -36q0 -19 20.5 -23t68.5 -4h72v-95q-56 0 -111.5 1t-112.5 1h-57.5h-56.5t-61.5 -0.5t-72.5 -1.5v99q50 1 78.5 2t44.5 8t24.5 21t18.5 41q1 3 12.5 32.5 t30 77.5t42.5 111.5t51.5 134.5t56 145.5t55.5 145.5t51.5 134.5t43 111.5t29.5 77.5t12 32.5l40 116h231zM458 574h448l-224 622zM755 1745l239 -317h-86l-220 195l-216 -195h-83l230 317h136z" />
<glyph unicode="&#xc3;" horiz-adv-x="1383" d="M0 0zM810 1290l17 -45t45 -119t64.5 -168.5t74 -194t74 -194.5t65.5 -170.5t47 -123t19 -50.5q18 -47 29.5 -72.5t28.5 -37.5t46.5 -14.5t83.5 -2.5v-98q-56 0 -111 1t-114 1h-62h-62t-68 -0.5t-81 -1.5q0 8 -0.5 24.5t-0.5 32.5v39q46 0 75 0.5t46 3t23.5 8t6.5 15.5 q-2 5 -3 13t-4 19l-106 318h-523q-1 -2 -9 -25.5t-20 -58t-26 -74.5t-26.5 -74.5t-20.5 -58t-8 -24.5q-10 -25 -10 -36q0 -19 20.5 -23t68.5 -4h72v-95q-56 0 -111.5 1t-112.5 1h-57.5h-56.5t-61.5 -0.5t-72.5 -1.5v99q50 1 78.5 2t44.5 8t24.5 21t18.5 41q1 3 12.5 32.5 t30 77.5t42.5 111.5t51.5 134.5t56 145.5t55.5 145.5t51.5 134.5t43 111.5t29.5 77.5t12 32.5l40 116h231zM458 574h448l-224 622zM1009 1690q-19 -95 -70.5 -147t-126.5 -52q-32 0 -67 11.5t-70 25t-68 25t-61 11.5q-39 0 -64 -21.5t-41 -68.5h-66q47 202 192 202 q33 0 68 -11.5t70 -25.5t68.5 -25.5t65.5 -11.5q73 0 105 88h65z" />
<glyph unicode="&#xc4;" horiz-adv-x="1383" d="M0 0zM810 1290l17 -45t45 -119t64.5 -168.5t74 -194t74 -194.5t65.5 -170.5t47 -123t19 -50.5q18 -47 29.5 -72.5t28.5 -37.5t46.5 -14.5t83.5 -2.5v-98q-56 0 -111 1t-114 1h-62h-62t-68 -0.5t-81 -1.5q0 8 -0.5 24.5t-0.5 32.5v39q46 0 75 0.5t46 3t23.5 8t6.5 15.5 q-2 5 -3 13t-4 19l-106 318h-523q-1 -2 -9 -25.5t-20 -58t-26 -74.5t-26.5 -74.5t-20.5 -58t-8 -24.5q-10 -25 -10 -36q0 -19 20.5 -23t68.5 -4h72v-95q-56 0 -111.5 1t-112.5 1h-57.5h-56.5t-61.5 -0.5t-72.5 -1.5v99q50 1 78.5 2t44.5 8t24.5 21t18.5 41q1 3 12.5 32.5 t30 77.5t42.5 111.5t51.5 134.5t56 145.5t55.5 145.5t51.5 134.5t43 111.5t29.5 77.5t12 32.5l40 116h231zM458 574h448l-224 622zM878 1669q42 0 67 -24t25 -65q0 -40 -25 -64.5t-68 -24.5q-42 0 -66.5 25t-24.5 65t25 64t67 24zM505 1669q42 0 66.5 -23.5t24.5 -65.5 q0 -40 -24.5 -64.5t-67.5 -24.5q-42 0 -66.5 25t-24.5 65t25 64t67 24z" />
<glyph unicode="&#xc5;" horiz-adv-x="1383" d="M0 0zM810 1290l17 -45t45 -119t64.5 -168.5t74 -194t74 -194.5t65.5 -170.5t47 -123t19 -50.5q18 -47 29.5 -72.5t28.5 -37.5t46.5 -14.5t83.5 -2.5v-98q-56 0 -111 1t-114 1h-62h-62t-68 -0.5t-81 -1.5q0 8 -0.5 24.5t-0.5 32.5v39q46 0 75 0.5t46 3t23.5 8t6.5 15.5 q-2 5 -3 13t-4 19l-106 318h-523q-1 -2 -9 -25.5t-20 -58t-26 -74.5t-26.5 -74.5t-20.5 -58t-8 -24.5q-10 -25 -10 -36q0 -19 20.5 -23t68.5 -4h72v-95q-56 0 -111.5 1t-112.5 1h-57.5h-56.5t-61.5 -0.5t-72.5 -1.5v99q50 1 78.5 2t44.5 8t24.5 21t18.5 41q1 3 12.5 32.5 t30 77.5t42.5 111.5t51.5 134.5t56 145.5t55.5 145.5t51.5 134.5t43 111.5t29.5 77.5t12 32.5l40 116h231zM458 574h448l-224 622zM691 1823q46 0 86 -16.5t69.5 -45t46.5 -67.5t17 -83q0 -45 -17 -84.5t-47 -68.5t-70 -45.5t-85 -16.5q-46 0 -85.5 16.5t-69 45.5 t-46.5 68.5t-17 84.5t17 83.5t46.5 67t69.5 45t85 16.5zM691 1740q-28 0 -52.5 -10t-42.5 -27.5t-28 -41t-10 -50.5q0 -28 10 -52t28 -42t42 -28t53 -10q28 0 52.5 10t42.5 28t28.5 42t10.5 52q0 27 -10.5 50.5t-28.5 41t-42.5 27.5t-52.5 10z" />
<glyph unicode="&#xc6;" horiz-adv-x="1897" d="M623 1070l138 220h1043v-328h-114v49q0 63 -4 97.5t-12 50.5t-22 18.5t-33 2.5h-534v-467h348q9 0 17 1.5t14.5 9t10 24.5t3.5 49h80v-271h-80q0 32 -4 49t-10.5 25t-16 9.5t-19.5 1.5h-343v-497h556q19 0 29.5 6t16 29.5t7 70t1.5 128.5h112v-348h-1108v99h64 q52 0 80.5 4.5t41.5 12t15.5 17.5t2.5 21v383h-452l-182 -316q-17 -30 -28.5 -51t-11.5 -36q0 -19 20 -27t72 -8h57v-99q-35 1 -62.5 1.5t-52 0.5h-46.5h-46h-56.5h-57t-62.5 -0.5t-73 -1.5v99q43 0 68 3.5t44.5 18t38.5 43.5t50 80zM511 642h391v541h-67z" />
<glyph unicode="&#xc7;" horiz-adv-x="1413" d="M116 0zM792 91q103 0 181 16.5t131 56t80 105t28 163.5l116 -20l-10 -260q-60 -52 -126.5 -86t-136 -54t-141 -28t-141.5 -8q-162 0 -284.5 48t-205.5 135.5t-125 210.5t-42 273q0 153 48 276.5t135 211.5t208.5 135.5t269.5 47.5q113 0 213 -36t174 -101l11 99h125v-359 l-116 2q-6 69 -36.5 122t-81 88.5t-120 53.5t-154.5 18q-110 0 -198.5 -39t-151 -111t-96.5 -174.5t-34 -229.5q0 -129 34 -232t96.5 -175t151 -110.5t198.5 -38.5zM730 -6l-6 -90q1 0 8.5 0.5t12.5 0.5q41 0 74 -12t56 -33t35.5 -50.5t12.5 -64.5q0 -42 -17.5 -74t-50 -53 t-78 -31.5t-102.5 -10.5q-41 0 -84.5 6.5t-100.5 26.5l19 71q42 -16 79 -23t69 -7q66 0 101 23t35 71q0 42 -32.5 61t-93.5 21h-9.5t-9.5 -1l14 169h68z" />
<glyph unicode="&#xc8;" horiz-adv-x="1219" d="M47 0zM1125 1288v-326h-113v48q0 62 -4.5 95.5t-13.5 49t-22.5 18t-31.5 2.5h-531v-462h345q10 0 17 1.5t12 11t8.5 31.5t6.5 64h80v-322h-80q-3 41 -7 63.5t-10 33t-14 12.5t-19 2h-339v-498h540q23 0 36.5 9.5t20 35.5t8.5 72t2 119h112v-348h-1081v99h115q24 0 37 7 t19 19t7 26.5t1 29.5v915q0 24 -0.5 41.5t-6 29.5t-19 18t-38.5 6h-107v97h1070zM807 1424h-83q-23 20 -54 44.5t-65 51t-68 53.5t-61 53.5t-44.5 50t-19.5 42.5q0 16 22 27t52 11q27 0 53.5 -9t37.5 -23z" />
<glyph unicode="&#xc9;" horiz-adv-x="1219" d="M47 0zM604 1666q12 16 27.5 31t33 26.5t36 18.5t36.5 7q26 0 44 -9.5t18 -25.5q0 -14 -15 -28l-283 -262h-84zM1125 1288v-326h-113v48q0 62 -4.5 95.5t-13.5 49t-22.5 18t-31.5 2.5h-531v-462h345q10 0 17 1.5t12 11t8.5 31.5t6.5 64h80v-322h-80q-3 41 -7 63.5t-10 33 t-14 12.5t-19 2h-339v-498h540q23 0 36.5 9.5t20 35.5t8.5 72t2 119h112v-348h-1081v99h115q24 0 37 7t19 19t7 26.5t1 29.5v915q0 24 -0.5 41.5t-6 29.5t-19 18t-38.5 6h-107v97h1070z" />
<glyph unicode="&#xca;" horiz-adv-x="1219" d="M47 0zM673 1745l239 -317h-86l-220 195l-216 -195h-83l230 317h136zM1125 1288v-326h-113v48q0 62 -4.5 95.5t-13.5 49t-22.5 18t-31.5 2.5h-531v-462h345q10 0 17 1.5t12 11t8.5 31.5t6.5 64h80v-322h-80q-3 41 -7 63.5t-10 33t-14 12.5t-19 2h-339v-498h540 q23 0 36.5 9.5t20 35.5t8.5 72t2 119h112v-348h-1081v99h115q24 0 37 7t19 19t7 26.5t1 29.5v915q0 24 -0.5 41.5t-6 29.5t-19 18t-38.5 6h-107v97h1070z" />
<glyph unicode="&#xcb;" horiz-adv-x="1219" d="M47 0zM796 1669q42 0 67 -24t25 -65q0 -40 -25 -64.5t-68 -24.5q-42 0 -66.5 25t-24.5 65t25 64t67 24zM423 1669q42 0 66.5 -23.5t24.5 -65.5q0 -40 -24.5 -64.5t-67.5 -24.5q-42 0 -66.5 25t-24.5 65t25 64t67 24zM1125 1288v-326h-113v48q0 62 -4.5 95.5t-13.5 49 t-22.5 18t-31.5 2.5h-531v-462h345q10 0 17 1.5t12 11t8.5 31.5t6.5 64h80v-322h-80q-3 41 -7 63.5t-10 33t-14 12.5t-19 2h-339v-498h540q23 0 36.5 9.5t20 35.5t8.5 72t2 119h112v-348h-1081v99h115q24 0 37 7t19 19t7 26.5t1 29.5v915q0 24 -0.5 41.5t-6 29.5t-19 18 t-38.5 6h-107v97h1070z" />
<glyph unicode="&#xcc;" horiz-adv-x="656" d="M68 0zM68 1290q47 -2 82 -2.5t70 -0.5q88 0 148.5 0.5t102 1t69 1t51.5 0.5v-99h-49q-45 0 -70 -5t-36.5 -14.5t-13.5 -22.5t-2 -28v-959q0 -19 2 -31t13 -19t36 -10t71 -3h49v-99q-31 0 -59.5 0.5t-59 0.5t-65.5 0.5t-79 0.5q-80 0 -140.5 -1t-119.5 -1v99h48 q46 0 70.5 5t36 14.5t13.5 22.5t2 28v945q0 22 -2.5 37t-14 24t-36 12.5t-69.5 3.5h-48v99zM528 1424h-83q-23 20 -54 44.5t-65 51t-68 53.5t-61 53.5t-44.5 50t-19.5 42.5q0 16 22 27t52 11q27 0 53.5 -9t37.5 -23z" />
<glyph unicode="&#xcd;" horiz-adv-x="656" d="M68 0zM68 1290q47 -2 82 -2.5t70 -0.5q88 0 148.5 0.5t102 1t69 1t51.5 0.5v-99h-49q-45 0 -70 -5t-36.5 -14.5t-13.5 -22.5t-2 -28v-959q0 -19 2 -31t13 -19t36 -10t71 -3h49v-99q-31 0 -59.5 0.5t-59 0.5t-65.5 0.5t-79 0.5q-80 0 -140.5 -1t-119.5 -1v99h48 q46 0 70.5 5t36 14.5t13.5 22.5t2 28v945q0 22 -2.5 37t-14 24t-36 12.5t-69.5 3.5h-48v99zM324 1666q12 16 27.5 31t33 26.5t36 18.5t36.5 7q26 0 44 -9.5t18 -25.5q0 -14 -15 -28l-283 -262h-84z" />
<glyph unicode="&#xce;" horiz-adv-x="656" d="M28 0zM68 1290q47 -2 82 -2.5t70 -0.5q88 0 148.5 0.5t102 1t69 1t51.5 0.5v-99h-49q-45 0 -70 -5t-36.5 -14.5t-13.5 -22.5t-2 -28v-959q0 -19 2 -31t13 -19t36 -10t71 -3h49v-99q-31 0 -59.5 0.5t-59 0.5t-65.5 0.5t-79 0.5q-80 0 -140.5 -1t-119.5 -1v99h48 q46 0 70.5 5t36 14.5t13.5 22.5t2 28v945q0 22 -2.5 37t-14 24t-36 12.5t-69.5 3.5h-48v99zM394 1745l239 -317h-86l-220 195l-216 -195h-83l230 317h136z" />
<glyph unicode="&#xcf;" horiz-adv-x="656" d="M52 0zM68 1290q47 -2 82 -2.5t70 -0.5q88 0 148.5 0.5t102 1t69 1t51.5 0.5v-99h-49q-45 0 -70 -5t-36.5 -14.5t-13.5 -22.5t-2 -28v-959q0 -19 2 -31t13 -19t36 -10t71 -3h49v-99q-31 0 -59.5 0.5t-59 0.5t-65.5 0.5t-79 0.5q-80 0 -140.5 -1t-119.5 -1v99h48 q46 0 70.5 5t36 14.5t13.5 22.5t2 28v945q0 22 -2.5 37t-14 24t-36 12.5t-69.5 3.5h-48v99zM517 1669q42 0 67 -24t25 -65q0 -40 -25 -64.5t-68 -24.5q-42 0 -66.5 25t-24.5 65t25 64t67 24zM144 1669q42 0 66.5 -23.5t24.5 -65.5q0 -40 -24.5 -64.5t-67.5 -24.5 q-42 0 -66.5 25t-24.5 65t25 64t67 24z" />
<glyph unicode="&#xd0;" horiz-adv-x="1477" d="M566 1290q400 0 602 -155.5t202 -475.5q0 -166 -46.5 -289.5t-143.5 -205.5t-246.5 -123t-356.5 -41h-527v99h65q42 0 64.5 6t33 17.5t12 29t1.5 40.5v916q0 30 -7 46.5t-26.5 25t-54 10.5t-88.5 2v98h516zM409 111h205q135 0 239.5 31t176 97t108.5 169t37 247 q0 134 -36.5 233t-107.5 164t-175.5 97t-240.5 32h-206v-1070zM656 731v-146h-606v146h606z" />
<glyph unicode="&#xd1;" horiz-adv-x="1441" d="M38 0zM44 1290h12h31h41.5t43.5 -0.5t38 -0.5h24h45t51.5 0.5t52.5 0.5h47l666 -1103h2v932q0 26 -6 40.5t-20 21.5t-38.5 8.5t-61.5 1.5h-52v99q79 0 133 -1.5t98 -1.5h19h32.5t41 0.5t44.5 0.5q52 1 115 2v-99h-63q-39 0 -60.5 -4.5t-31.5 -13.5t-12 -22t-2 -30v-21.5 t-0.5 -61t-0.5 -94.5v-120v-543q0 -147 1 -291h-194l-688 1134h-2v-949q0 -28 5.5 -43.5t19.5 -22.5t38.5 -8.5t63.5 -1.5h54v-99q-27 0 -52 0.5t-51.5 0.5t-56.5 0.5t-68 0.5q-41 0 -75.5 -0.5t-66 -0.5t-62 -0.5t-61.5 -0.5v99h64q42 0 65 4t33.5 14t12 25.5t1.5 38.5v928 q0 30 -4 46.5t-15.5 24.5t-33 9.5t-56.5 1.5h-62v22t0.5 27t0.5 27.5v22.5zM1037 1690q-19 -95 -70.5 -147t-126.5 -52q-32 0 -67 11.5t-70 25t-68 25t-61 11.5q-39 0 -64 -21.5t-41 -68.5h-66q47 202 192 202q33 0 68 -11.5t70 -25.5t68.5 -25.5t65.5 -11.5q73 0 105 88h65 z" />
<glyph unicode="&#xd2;" horiz-adv-x="1528" d="M105 0zM765 1315q151 0 273.5 -48.5t208 -136.5t132 -211t46.5 -273q0 -149 -46 -272t-131 -211.5t-206 -137.5t-270 -49q-155 0 -278.5 48t-210 135.5t-132.5 211t-46 275.5q0 150 46 273.5t131.5 211t208 136t274.5 48.5zM764 1202q-108 0 -194 -39t-145.5 -111 t-91.5 -175t-32 -230q0 -128 32 -231t92 -175t146 -110.5t193 -38.5q108 0 193.5 38.5t145.5 110.5t92 174.5t32 230.5q0 129 -32 232t-92 175t-145.5 110.5t-193.5 38.5zM961 1424h-83q-23 20 -54 44.5t-65 51t-68 53.5t-61 53.5t-44.5 50t-19.5 42.5q0 16 22 27t52 11 q27 0 53.5 -9t37.5 -23z" />
<glyph unicode="&#xd3;" horiz-adv-x="1528" d="M105 0zM758 1666q12 16 27.5 31t33 26.5t36 18.5t36.5 7q26 0 44 -9.5t18 -25.5q0 -14 -15 -28l-283 -262h-84zM765 1315q151 0 273.5 -48.5t208 -136.5t132 -211t46.5 -273q0 -149 -46 -272t-131 -211.5t-206 -137.5t-270 -49q-155 0 -278.5 48t-210 135.5t-132.5 211 t-46 275.5q0 150 46 273.5t131.5 211t208 136t274.5 48.5zM764 1202q-108 0 -194 -39t-145.5 -111t-91.5 -175t-32 -230q0 -128 32 -231t92 -175t146 -110.5t193 -38.5q108 0 193.5 38.5t145.5 110.5t92 174.5t32 230.5q0 129 -32 232t-92 175t-145.5 110.5t-193.5 38.5z " />
<glyph unicode="&#xd4;" horiz-adv-x="1528" d="M105 0zM828 1745l239 -317h-86l-220 195l-216 -195h-83l230 317h136zM765 1315q151 0 273.5 -48.5t208 -136.5t132 -211t46.5 -273q0 -149 -46 -272t-131 -211.5t-206 -137.5t-270 -49q-155 0 -278.5 48t-210 135.5t-132.5 211t-46 275.5q0 150 46 273.5t131.5 211 t208 136t274.5 48.5zM764 1202q-108 0 -194 -39t-145.5 -111t-91.5 -175t-32 -230q0 -128 32 -231t92 -175t146 -110.5t193 -38.5q108 0 193.5 38.5t145.5 110.5t92 174.5t32 230.5q0 129 -32 232t-92 175t-145.5 110.5t-193.5 38.5z" />
<glyph unicode="&#xd5;" horiz-adv-x="1528" d="M105 0zM765 1315q151 0 273.5 -48.5t208 -136.5t132 -211t46.5 -273q0 -149 -46 -272t-131 -211.5t-206 -137.5t-270 -49q-155 0 -278.5 48t-210 135.5t-132.5 211t-46 275.5q0 150 46 273.5t131.5 211t208 136t274.5 48.5zM764 1202q-108 0 -194 -39t-145.5 -111 t-91.5 -175t-32 -230q0 -128 32 -231t92 -175t146 -110.5t193 -38.5q108 0 193.5 38.5t145.5 110.5t92 174.5t32 230.5q0 129 -32 232t-92 175t-145.5 110.5t-193.5 38.5zM1081 1690q-19 -95 -70.5 -147t-126.5 -52q-32 0 -67 11.5t-70 25t-68 25t-61 11.5q-39 0 -64 -21.5 t-41 -68.5h-66q47 202 192 202q33 0 68 -11.5t70 -25.5t68.5 -25.5t65.5 -11.5q73 0 105 88h65z" />
<glyph unicode="&#xd6;" horiz-adv-x="1528" d="M105 0zM951 1669q42 0 67 -24t25 -65q0 -40 -25 -64.5t-68 -24.5q-42 0 -66.5 25t-24.5 65t25 64t67 24zM578 1669q42 0 66.5 -23.5t24.5 -65.5q0 -40 -24.5 -64.5t-67.5 -24.5q-42 0 -66.5 25t-24.5 65t25 64t67 24zM765 1315q151 0 273.5 -48.5t208 -136.5t132 -211 t46.5 -273q0 -149 -46 -272t-131 -211.5t-206 -137.5t-270 -49q-155 0 -278.5 48t-210 135.5t-132.5 211t-46 275.5q0 150 46 273.5t131.5 211t208 136t274.5 48.5zM764 1202q-108 0 -194 -39t-145.5 -111t-91.5 -175t-32 -230q0 -128 32 -231t92 -175t146 -110.5t193 -38.5 q108 0 193.5 38.5t145.5 110.5t92 174.5t32 230.5q0 129 -32 232t-92 175t-145.5 110.5t-193.5 38.5z" />
<glyph unicode="&#xd7;" horiz-adv-x="1537" d="M1212 1136l87 -84l-441 -433l441 -429l-87 -85l-441 431l-444 -431l-85 85l442 429l-441 433l84 84l443 -433z" />
<glyph unicode="&#xd8;" horiz-adv-x="1528" d="M1375 1318l-143 -177q193 -173 193 -495q0 -142 -42.5 -264.5t-126 -212.5t-207 -141.5t-284.5 -51.5q-65 0 -119.5 6.5t-102 20.5t-90.5 35t-83 51l-129 -161l-95 27l151 191q-98 96 -145 217.5t-47 279.5q0 143 43 266t127 213t207 141.5t283 51.5q60 0 112.5 -6.5 t100.5 -21t93.5 -37t90.5 -53.5l118 148zM1072 1091q-34 31 -68.5 52.5t-71.5 35t-77.5 19.5t-87.5 6q-110 0 -197 -38.5t-148 -111t-93 -176.5t-32 -235q0 -55 6 -103t19 -92.5t34 -85t51 -80.5zM462 201q117 -111 301 -111q123 0 211.5 45.5t145.5 122t84.5 178 t27.5 214.5q0 112 -26.5 201.5t-77.5 158.5z" />
<glyph unicode="&#xd9;" horiz-adv-x="1351" d="M24 0zM24 1290q69 -2 147.5 -2h151.5h106t110 2v-99h-47q-45 0 -70 -5t-36.5 -13.5t-13.5 -20t-2 -24.5v-633q0 -104 15.5 -180t53 -125t100.5 -72.5t158 -23.5q102 0 165 26t97.5 76.5t46.5 123.5t12 167v636q0 19 -2 32t-14 21t-38 11.5t-75 3.5h-48v99q35 -2 77.5 -2 h85.5q30 0 56 0.5t60.5 0.5t83 0.5t123.5 0.5v-99h-51q-43 0 -65.5 -5.5t-33 -14.5t-12 -20t-1.5 -23v-635q0 -131 -25.5 -228.5t-82.5 -161.5t-148.5 -95.5t-222.5 -31.5q-143 0 -238.5 32t-152.5 96.5t-81 160.5t-24 225v644q0 16 -2 26.5t-13 17.5t-34.5 10t-65.5 3h-50 v99zM872 1424h-83q-23 20 -54 44.5t-65 51t-68 53.5t-61 53.5t-44.5 50t-19.5 42.5q0 16 22 27t52 11q27 0 53.5 -9t37.5 -23z" />
<glyph unicode="&#xda;" horiz-adv-x="1351" d="M24 0zM669 1666q12 16 27.5 31t33 26.5t36 18.5t36.5 7q26 0 44 -9.5t18 -25.5q0 -14 -15 -28l-283 -262h-84zM24 1290q69 -2 147.5 -2h151.5h106t110 2v-99h-47q-45 0 -70 -5t-36.5 -13.5t-13.5 -20t-2 -24.5v-633q0 -104 15.5 -180t53 -125t100.5 -72.5t158 -23.5 q102 0 165 26t97.5 76.5t46.5 123.5t12 167v636q0 19 -2 32t-14 21t-38 11.5t-75 3.5h-48v99q35 -2 77.5 -2h85.5q30 0 56 0.5t60.5 0.5t83 0.5t123.5 0.5v-99h-51q-43 0 -65.5 -5.5t-33 -14.5t-12 -20t-1.5 -23v-635q0 -131 -25.5 -228.5t-82.5 -161.5t-148.5 -95.5 t-222.5 -31.5q-143 0 -238.5 32t-152.5 96.5t-81 160.5t-24 225v644q0 16 -2 26.5t-13 17.5t-34.5 10t-65.5 3h-50v99z" />
<glyph unicode="&#xdb;" horiz-adv-x="1351" d="M24 0zM739 1745l239 -317h-86l-220 195l-216 -195h-83l230 317h136zM24 1290q69 -2 147.5 -2h151.5h106t110 2v-99h-47q-45 0 -70 -5t-36.5 -13.5t-13.5 -20t-2 -24.5v-633q0 -104 15.5 -180t53 -125t100.5 -72.5t158 -23.5q102 0 165 26t97.5 76.5t46.5 123.5t12 167 v636q0 19 -2 32t-14 21t-38 11.5t-75 3.5h-48v99q35 -2 77.5 -2h85.5q30 0 56 0.5t60.5 0.5t83 0.5t123.5 0.5v-99h-51q-43 0 -65.5 -5.5t-33 -14.5t-12 -20t-1.5 -23v-635q0 -131 -25.5 -228.5t-82.5 -161.5t-148.5 -95.5t-222.5 -31.5q-143 0 -238.5 32t-152.5 96.5 t-81 160.5t-24 225v644q0 16 -2 26.5t-13 17.5t-34.5 10t-65.5 3h-50v99z" />
<glyph unicode="&#xdc;" horiz-adv-x="1351" d="M24 0zM862 1669q42 0 67 -24t25 -65q0 -40 -25 -64.5t-68 -24.5q-42 0 -66.5 25t-24.5 65t25 64t67 24zM489 1669q42 0 66.5 -23.5t24.5 -65.5q0 -40 -24.5 -64.5t-67.5 -24.5q-42 0 -66.5 25t-24.5 65t25 64t67 24zM24 1290q69 -2 147.5 -2h151.5h106t110 2v-99h-47 q-45 0 -70 -5t-36.5 -13.5t-13.5 -20t-2 -24.5v-633q0 -104 15.5 -180t53 -125t100.5 -72.5t158 -23.5q102 0 165 26t97.5 76.5t46.5 123.5t12 167v636q0 19 -2 32t-14 21t-38 11.5t-75 3.5h-48v99q35 -2 77.5 -2h85.5q30 0 56 0.5t60.5 0.5t83 0.5t123.5 0.5v-99h-51 q-43 0 -65.5 -5.5t-33 -14.5t-12 -20t-1.5 -23v-635q0 -131 -25.5 -228.5t-82.5 -161.5t-148.5 -95.5t-222.5 -31.5q-143 0 -238.5 32t-152.5 96.5t-81 160.5t-24 225v644q0 16 -2 26.5t-13 17.5t-34.5 10t-65.5 3h-50v99z" />
<glyph unicode="&#xdd;" horiz-adv-x="1259" d="M0 0zM-7 1290q29 -2 66.5 -2.5t68.5 -0.5q42 0 82 0.5t84.5 1t96 1t117.5 0.5v-99h-38q-66 0 -95 -3.5t-29 -23.5q2 -14 14 -36.5t32 -54.5q1 -2 20.5 -32.5t47.5 -75.5t60.5 -96.5t60.5 -96.5t47 -75.5t20 -32.5l255 403q23 37 36 60t13 37q0 20 -36.5 23.5t-120.5 3.5 v99q58 -1 110 -1q22 0 45 -0.5t43.5 -0.5h37h27.5h97.5t109.5 2v-99q-45 0 -71 -1.5t-42.5 -9t-29.5 -23.5t-32 -44q-23 -34 -58.5 -87.5t-76 -115t-81.5 -124t-74.5 -114t-55.5 -86t-25 -38.5v-385q0 -20 3.5 -32.5t16.5 -19.5t38.5 -9.5t70.5 -2.5h54v-99h-125t-149 2 q-77 0 -144.5 -1t-122.5 -1v99h53q48 0 74 4.5t37.5 13t13.5 19.5t2 25v389q-2 3 -17 26.5t-39 60t-53.5 82t-60 93t-60 93t-53.5 82t-39 60t-17 26.5q-27 43 -44.5 66.5t-37.5 35t-48.5 14t-77.5 2.5q0 25 -0.5 50t-0.5 49zM625 1666q12 16 27.5 31t33 26.5t36 18.5t36.5 7 q26 0 44 -9.5t18 -25.5q0 -14 -15 -28l-283 -262h-84z" />
<glyph unicode="&#xde;" horiz-adv-x="1174" d="M57 1290q31 0 68.5 -0.5t76.5 -0.5t79 -0.5t76 -0.5h117.5t118.5 2v-85h-49q-30 0 -54 -1t-40.5 -6t-25 -14.5t-8.5 -27.5v-124h233q121 0 209.5 -27.5t146.5 -76.5t86 -117t28 -148q0 -88 -27 -157t-87 -116.5t-155 -72.5t-231 -25h-203v-144q0 -20 2 -32t14 -19t38 -9 t74 -2h49v-86h-53h-54.5t-60.5 0.5t-71 1.5q-47 0 -86 -0.5t-74 -0.5t-68.5 -0.5t-68.5 -0.5v86h49q48 0 74 6.5t38 17t14 23.5t2 25v1008q0 22 -30 30.5t-94 8.5h-53v85zM416 396h190q90 0 153 18t103 51.5t58.5 82.5t18.5 111q0 132 -79 198.5t-248 66.5h-196v-528z" />
<glyph unicode="&#xdf;" horiz-adv-x="1217" d="M827 741q151 -20 230.5 -114t79.5 -251q0 -92 -25.5 -165t-74 -125t-119 -79.5t-159.5 -27.5q-45 0 -101 10v91q13 -3 29.5 -4t33.5 -1q46 1 89.5 18t77.5 52.5t55 90.5t21 132q0 74 -17.5 133t-58 100.5t-106.5 64t-164 23.5v90q66 3 111 20t73 45.5t40 69t12 91.5 q0 49 -17 88.5t-48.5 67.5t-76.5 43t-101 15q-54 0 -99.5 -13t-79 -44.5t-52.5 -84t-19 -132.5v-787q0 -22 6.5 -34.5t23 -18.5t44.5 -8t71 -2v-95q-26 0 -49 0.5t-48 0.5t-53 0.5t-63 0.5q-39 0 -72 -0.5t-63 -0.5t-58.5 -0.5t-57.5 -0.5v95q57 0 87.5 2.5t44.5 9.5 t16.5 19.5t2.5 32.5v698q0 111 19 196.5t67 143.5t129 88t205 30q96 0 171.5 -21t128 -61.5t80 -99t27.5 -134.5q0 -98 -50.5 -162t-147.5 -96h5z" />
<glyph unicode="&#xe0;" horiz-adv-x="1060" d="M84 0zM896 224q0 -52 3.5 -79.5t13.5 -40t28.5 -14t48.5 -1.5h45v-89q-79 0 -156.5 -1t-144.5 -3v137q-60 -77 -142.5 -115.5t-192.5 -38.5q-72 0 -130 20.5t-99 56.5t-63.5 86t-22.5 110q0 64 26 116.5t76 89.5t121.5 57.5t163.5 20.5q63 0 127 -9.5t130 -26.5v144 q0 91 -60.5 139t-185.5 48q-105 0 -164.5 -40.5t-79.5 -125.5l-92 11l13 176q64 29 149.5 47.5t192.5 18.5q106 0 181 -19t122.5 -58t69.5 -99.5t22 -142.5v-375zM509 452q-60 0 -108 -13.5t-81.5 -38.5t-51.5 -61t-18 -82q0 -41 14.5 -72.5t41 -53.5t63.5 -35t81 -12 q48 -1 97.5 14.5t89.5 44t65.5 72t25.5 104.5v98q-60 17 -114 26t-105 9zM727 1029h-83q-23 20 -54 44.5t-65 51t-68 53.5t-61 53.5t-44.5 50t-19.5 42.5q0 16 22 27t52 11q27 0 53.5 -9t37.5 -23z" />
<glyph unicode="&#xe1;" horiz-adv-x="1060" d="M84 0zM896 224q0 -52 3.5 -79.5t13.5 -40t28.5 -14t48.5 -1.5h45v-89q-79 0 -156.5 -1t-144.5 -3v137q-60 -77 -142.5 -115.5t-192.5 -38.5q-72 0 -130 20.5t-99 56.5t-63.5 86t-22.5 110q0 64 26 116.5t76 89.5t121.5 57.5t163.5 20.5q63 0 127 -9.5t130 -26.5v144 q0 91 -60.5 139t-185.5 48q-105 0 -164.5 -40.5t-79.5 -125.5l-92 11l13 176q64 29 149.5 47.5t192.5 18.5q106 0 181 -19t122.5 -58t69.5 -99.5t22 -142.5v-375zM509 452q-60 0 -108 -13.5t-81.5 -38.5t-51.5 -61t-18 -82q0 -41 14.5 -72.5t41 -53.5t63.5 -35t81 -12 q48 -1 97.5 14.5t89.5 44t65.5 72t25.5 104.5v98q-60 17 -114 26t-105 9zM524 1271q12 16 27.5 31t33 26.5t36 18.5t36.5 7q26 0 44 -9.5t18 -25.5q0 -14 -15 -28l-283 -262h-84z" />
<glyph unicode="&#xe2;" horiz-adv-x="1060" d="M84 0zM896 224q0 -52 3.5 -79.5t13.5 -40t28.5 -14t48.5 -1.5h45v-89q-79 0 -156.5 -1t-144.5 -3v137q-60 -77 -142.5 -115.5t-192.5 -38.5q-72 0 -130 20.5t-99 56.5t-63.5 86t-22.5 110q0 64 26 116.5t76 89.5t121.5 57.5t163.5 20.5q63 0 127 -9.5t130 -26.5v144 q0 91 -60.5 139t-185.5 48q-105 0 -164.5 -40.5t-79.5 -125.5l-92 11l13 176q64 29 149.5 47.5t192.5 18.5q106 0 181 -19t122.5 -58t69.5 -99.5t22 -142.5v-375zM509 452q-60 0 -108 -13.5t-81.5 -38.5t-51.5 -61t-18 -82q0 -41 14.5 -72.5t41 -53.5t63.5 -35t81 -12 q48 -1 97.5 14.5t89.5 44t65.5 72t25.5 104.5v98q-60 17 -114 26t-105 9zM593 1350l239 -317h-86l-220 195l-216 -195h-83l230 317h136z" />
<glyph unicode="&#xe3;" horiz-adv-x="1060" d="M84 0zM896 224q0 -52 3.5 -79.5t13.5 -40t28.5 -14t48.5 -1.5h45v-89q-79 0 -156.5 -1t-144.5 -3v137q-60 -77 -142.5 -115.5t-192.5 -38.5q-72 0 -130 20.5t-99 56.5t-63.5 86t-22.5 110q0 64 26 116.5t76 89.5t121.5 57.5t163.5 20.5q63 0 127 -9.5t130 -26.5v144 q0 91 -60.5 139t-185.5 48q-105 0 -164.5 -40.5t-79.5 -125.5l-92 11l13 176q64 29 149.5 47.5t192.5 18.5q106 0 181 -19t122.5 -58t69.5 -99.5t22 -142.5v-375zM509 452q-60 0 -108 -13.5t-81.5 -38.5t-51.5 -61t-18 -82q0 -41 14.5 -72.5t41 -53.5t63.5 -35t81 -12 q48 -1 97.5 14.5t89.5 44t65.5 72t25.5 104.5v98q-60 17 -114 26t-105 9zM847 1295q-19 -95 -70.5 -147t-126.5 -52q-32 0 -67 11.5t-70 25t-68 25t-61 11.5q-39 0 -64 -21.5t-41 -68.5h-66q47 202 192 202q33 0 68 -11.5t70 -25.5t68.5 -25.5t65.5 -11.5q73 0 105 88h65z " />
<glyph unicode="&#xe4;" horiz-adv-x="1060" d="M84 0zM896 224q0 -52 3.5 -79.5t13.5 -40t28.5 -14t48.5 -1.5h45v-89q-79 0 -156.5 -1t-144.5 -3v137q-60 -77 -142.5 -115.5t-192.5 -38.5q-72 0 -130 20.5t-99 56.5t-63.5 86t-22.5 110q0 64 26 116.5t76 89.5t121.5 57.5t163.5 20.5q63 0 127 -9.5t130 -26.5v144 q0 91 -60.5 139t-185.5 48q-105 0 -164.5 -40.5t-79.5 -125.5l-92 11l13 176q64 29 149.5 47.5t192.5 18.5q106 0 181 -19t122.5 -58t69.5 -99.5t22 -142.5v-375zM509 452q-60 0 -108 -13.5t-81.5 -38.5t-51.5 -61t-18 -82q0 -41 14.5 -72.5t41 -53.5t63.5 -35t81 -12 q48 -1 97.5 14.5t89.5 44t65.5 72t25.5 104.5v98q-60 17 -114 26t-105 9zM716 1274q42 0 67 -24t25 -65q0 -40 -25 -64.5t-68 -24.5q-42 0 -66.5 25t-24.5 65t25 64t67 24zM343 1274q42 0 66.5 -23.5t24.5 -65.5q0 -40 -24.5 -64.5t-67.5 -24.5q-42 0 -66.5 25t-24.5 65 t25 64t67 24z" />
<glyph unicode="&#xe5;" horiz-adv-x="1060" d="M84 0zM896 224q0 -52 3.5 -79.5t13.5 -40t28.5 -14t48.5 -1.5h45v-89q-79 0 -156.5 -1t-144.5 -3v137q-60 -77 -142.5 -115.5t-192.5 -38.5q-72 0 -130 20.5t-99 56.5t-63.5 86t-22.5 110q0 64 26 116.5t76 89.5t121.5 57.5t163.5 20.5q63 0 127 -9.5t130 -26.5v144 q0 91 -60.5 139t-185.5 48q-105 0 -164.5 -40.5t-79.5 -125.5l-92 11l13 176q64 29 149.5 47.5t192.5 18.5q106 0 181 -19t122.5 -58t69.5 -99.5t22 -142.5v-375zM509 452q-60 0 -108 -13.5t-81.5 -38.5t-51.5 -61t-18 -82q0 -41 14.5 -72.5t41 -53.5t63.5 -35t81 -12 q48 -1 97.5 14.5t89.5 44t65.5 72t25.5 104.5v98q-60 17 -114 26t-105 9zM529 1428q46 0 86 -16.5t69.5 -45t46.5 -67.5t17 -83q0 -45 -17 -84.5t-47 -68.5t-70 -45.5t-85 -16.5q-46 0 -85.5 16.5t-69 45.5t-46.5 68.5t-17 84.5t17 83.5t46.5 67t69.5 45t85 16.5zM529 1345 q-28 0 -52.5 -10t-42.5 -27.5t-28 -41t-10 -50.5q0 -28 10 -52t28 -42t42 -28t53 -10q28 0 52.5 10t42.5 28t28.5 42t10.5 52q0 27 -10.5 50.5t-28.5 41t-42.5 27.5t-52.5 10z" />
<glyph unicode="&#xe6;" horiz-adv-x="1721" d="M814 171q-42 -54 -88 -90.5t-97 -59.5t-107.5 -33t-119.5 -10q-71 0 -129 20t-100 56t-65 86t-23 111q0 64 26.5 116t76 89t121.5 57.5t163 20.5q123 0 257 -35v146q0 94 -59 142.5t-186 48.5q-107 0 -166.5 -40.5t-77.5 -126.5l-99 11l15 176q151 66 347 66 q137 0 222.5 -38t124.5 -116q60 72 148 113t197 41q106 0 189.5 -33t140.5 -95.5t87.5 -153t31.5 -205.5l-62 -19h-681q1 -80 24.5 -144t66 -109.5t102.5 -70t134 -24.5q98 0 170 47t113 138l122 -19q-45 -127 -155.5 -194.5t-272.5 -67.5q-132 0 -231.5 51.5t-159.5 147.5z M729 415q-60 16 -115 25t-106 9q-59 0 -106.5 -13t-81 -38t-51.5 -61.5t-18 -82.5q0 -41 14.5 -74.5t41 -57.5t63.5 -37.5t81 -13.5q49 0 98.5 15.5t89.5 46.5t65 78t25 110v94zM1481 506q-13 154 -84.5 237t-200.5 83q-125 0 -201.5 -83t-93.5 -237h580z" />
<glyph unicode="&#xe7;" horiz-adv-x="1011" d="M81 0zM912 576h-98q-5 121 -71.5 179.5t-183.5 58.5q-71 0 -127 -25.5t-94.5 -72.5t-59 -115t-20.5 -153q0 -86 21 -150.5t60.5 -113t95.5 -74.5t126 -26q100 0 167.5 49t94.5 147l117 -20q-16 -69 -50.5 -122.5t-85.5 -86.5t-117 -52.5t-145 -19.5q-105 0 -190 33.5 t-145 91.5t-93 144.5t-33 192.5q0 100 32 186.5t90.5 150.5t139 102t178.5 38q40 0 79 -5t74.5 -17t66 -33t54.5 -52l25 79q4 0 17.5 -0.5t28.5 -0.5t28.5 -0.5t17.5 -0.5v-312zM529 -6l-6 -90q1 0 8.5 0.5t12.5 0.5q41 0 74 -12t56 -33t35.5 -50.5t12.5 -64.5 q0 -42 -17.5 -74t-50 -53t-78 -31.5t-102.5 -10.5q-41 0 -84.5 6.5t-100.5 26.5l19 71q42 -16 79 -23t69 -7q66 0 101 23t35 71q0 42 -32.5 61t-93.5 21h-9.5t-9.5 -1l14 169h68z" />
<glyph unicode="&#xe8;" horiz-adv-x="1099" d="M81 0zM961 417h-708q1 -80 25 -141t68 -103.5t105.5 -65.5t136.5 -23q105 0 182 43t119 133l121 -19q-46 -127 -161.5 -194.5t-283.5 -67.5q-113 0 -203 34t-152.5 96t-95.5 145.5t-33 190.5q0 108 34 194.5t96 148.5t149.5 96t194.5 34q108 0 194 -32.5t146 -94.5 t92.5 -151t33.5 -205zM859 507q-12 151 -90 229t-212 78q-63 0 -115 -21.5t-91 -60t-63.5 -94.5t-33.5 -131h605zM746 1029h-83q-23 20 -54 44.5t-65 51t-68 53.5t-61 53.5t-44.5 50t-19.5 42.5q0 16 22 27t52 11q27 0 53.5 -9t37.5 -23z" />
<glyph unicode="&#xe9;" horiz-adv-x="1099" d="M81 0zM543 1271q12 16 27.5 31t33 26.5t36 18.5t36.5 7q26 0 44 -9.5t18 -25.5q0 -14 -15 -28l-283 -262h-84zM961 417h-708q1 -80 25 -141t68 -103.5t105.5 -65.5t136.5 -23q105 0 182 43t119 133l121 -19q-46 -127 -161.5 -194.5t-283.5 -67.5q-113 0 -203 34 t-152.5 96t-95.5 145.5t-33 190.5q0 108 34 194.5t96 148.5t149.5 96t194.5 34q108 0 194 -32.5t146 -94.5t92.5 -151t33.5 -205zM859 507q-12 151 -90 229t-212 78q-63 0 -115 -21.5t-91 -60t-63.5 -94.5t-33.5 -131h605z" />
<glyph unicode="&#xea;" horiz-adv-x="1099" d="M81 0zM613 1350l239 -317h-86l-220 195l-216 -195h-83l230 317h136zM961 417h-708q1 -80 25 -141t68 -103.5t105.5 -65.5t136.5 -23q105 0 182 43t119 133l121 -19q-46 -127 -161.5 -194.5t-283.5 -67.5q-113 0 -203 34t-152.5 96t-95.5 145.5t-33 190.5q0 108 34 194.5 t96 148.5t149.5 96t194.5 34q108 0 194 -32.5t146 -94.5t92.5 -151t33.5 -205zM859 507q-12 151 -90 229t-212 78q-63 0 -115 -21.5t-91 -60t-63.5 -94.5t-33.5 -131h605z" />
<glyph unicode="&#xeb;" horiz-adv-x="1099" d="M81 0zM736 1274q42 0 67 -24t25 -65q0 -40 -25 -64.5t-68 -24.5q-42 0 -66.5 25t-24.5 65t25 64t67 24zM363 1274q42 0 66.5 -23.5t24.5 -65.5q0 -40 -24.5 -64.5t-67.5 -24.5q-42 0 -66.5 25t-24.5 65t25 64t67 24zM961 417h-708q1 -80 25 -141t68 -103.5t105.5 -65.5 t136.5 -23q105 0 182 43t119 133l121 -19q-46 -127 -161.5 -194.5t-283.5 -67.5q-113 0 -203 34t-152.5 96t-95.5 145.5t-33 190.5q0 108 34 194.5t96 148.5t149.5 96t194.5 34q108 0 194 -32.5t146 -94.5t92.5 -151t33.5 -205zM859 507q-12 151 -90 229t-212 78 q-63 0 -115 -21.5t-91 -60t-63.5 -94.5t-33.5 -131h605z" />
<glyph unicode="&#xec;" horiz-adv-x="559" d="M57 0zM373 152q0 -22 8 -34.5t26 -18.5t46.5 -7t69.5 -1v-91q-26 0 -70 0.5t-88 0.5t-78 0.5t-40 0.5q-57 0 -100.5 -1t-89.5 -1v91q54 0 84 3t44.5 10t17 19.5t2.5 32.5v613q0 14 -7.5 21t-24.5 10.5t-44.5 4t-66.5 1.5v89q85 0 160 1t151 4v-748zM479 1029h-83 q-23 20 -54 44.5t-65 51t-68 53.5t-61 53.5t-44.5 50t-19.5 42.5q0 16 22 27t52 11q27 0 53.5 -9t37.5 -23z" />
<glyph unicode="&#xed;" horiz-adv-x="559" d="M57 0zM275 1271q12 16 27.5 31t33 26.5t36 18.5t36.5 7q26 0 44 -9.5t18 -25.5q0 -14 -15 -28l-283 -262h-84zM373 152q0 -22 8 -34.5t26 -18.5t46.5 -7t69.5 -1v-91q-26 0 -70 0.5t-88 0.5t-78 0.5t-40 0.5q-57 0 -100.5 -1t-89.5 -1v91q54 0 84 3t44.5 10t17 19.5 t2.5 32.5v613q0 14 -7.5 21t-24.5 10.5t-44.5 4t-66.5 1.5v89q85 0 160 1t151 4v-748z" />
<glyph unicode="&#xee;" horiz-adv-x="559" d="M0 0zM346 1350l239 -317h-86l-220 195l-216 -195h-83l230 317h136zM373 152q0 -22 8 -34.5t26 -18.5t46.5 -7t69.5 -1v-91q-26 0 -70 0.5t-88 0.5t-78 0.5t-40 0.5q-57 0 -100.5 -1t-89.5 -1v91q54 0 84 3t44.5 10t17 19.5t2.5 32.5v613q0 14 -7.5 21t-24.5 10.5t-44.5 4 t-66.5 1.5v89q85 0 160 1t151 4v-748z" />
<glyph unicode="&#xef;" horiz-adv-x="559" d="M3 0zM468 1274q42 0 67 -24t25 -65q0 -40 -25 -64.5t-68 -24.5q-42 0 -66.5 25t-24.5 65t25 64t67 24zM95 1274q42 0 66.5 -23.5t24.5 -65.5q0 -40 -24.5 -64.5t-67.5 -24.5q-42 0 -66.5 25t-24.5 65t25 64t67 24zM373 152q0 -22 8 -34.5t26 -18.5t46.5 -7t69.5 -1v-91 q-26 0 -70 0.5t-88 0.5t-78 0.5t-40 0.5q-57 0 -100.5 -1t-89.5 -1v91q54 0 84 3t44.5 10t17 19.5t2.5 32.5v613q0 14 -7.5 21t-24.5 10.5t-44.5 4t-66.5 1.5v89q85 0 160 1t151 4v-748z" />
<glyph unicode="&#xf0;" horiz-adv-x="1127" d="M767 846q-14 28 -30.5 58t-38 61.5t-50 64t-65.5 65.5l-265 -118l-57 61l263 116q-38 35 -78.5 68.5t-87.5 66.5l148 28q38 -23 78 -49.5t76 -56.5l240 105l57 -59l-237 -104q74 -80 133 -160t100 -160.5t63 -162t22 -165.5q0 -129 -32.5 -228.5t-93.5 -167t-148 -102.5 t-195 -35q-110 0 -199.5 33.5t-152.5 95.5t-97 150t-34 197q0 104 34 191t94 149.5t143.5 97.5t182.5 35q63 0 120.5 -20.5t104.5 -56.5q0 2 2 2zM259 447q0 -85 21.5 -153.5t61 -117t95 -74.5t124.5 -26t125.5 26.5t96 76t61 121t21.5 161.5q0 78 -20.5 143.5t-59 113 t-95 74.5t-128.5 27q-70 0 -126 -26t-95.5 -74t-60.5 -117t-21 -155z" />
<glyph unicode="&#xf1;" horiz-adv-x="1162" d="M35 0zM35 89q56 0 87 2t46 8t18 16t3 26v632q0 12 -6.5 19t-23 10t-45 3.5t-74.5 0.5v89q89 0 164 1t147 4v-141q68 77 156.5 117.5t188.5 41.5q146 -1 224 -79.5t78 -248.5v-460q0 -16 7 -24t23.5 -11.5t43.5 -4t66 -1.5v-89h-47.5h-49t-54 0.5t-63.5 1.5q-73 0 -131 -1 t-116 -1v89q57 0 88 2t45 7.5t16.5 14t2.5 22.5v397q0 67 -7.5 121.5t-28 89.5t-56 52.5t-91.5 18.5q-54 -1 -99 -18t-80.5 -41.5t-62 -52t-45.5 -51.5q-3 -74 -3 -152v-363q0 -18 8.5 -27.5t27 -14t47 -5t69.5 -0.5v-89h-51h-51.5t-57 0.5t-66.5 1.5q-75 0 -133 -1t-114 -1 v89zM897 1295q-19 -95 -70.5 -147t-126.5 -52q-32 0 -67 11.5t-70 25t-68 25t-61 11.5q-39 0 -64 -21.5t-41 -68.5h-66q47 202 192 202q33 0 68 -11.5t70 -25.5t68.5 -25.5t65.5 -11.5q73 0 105 88h65z" />
<glyph unicode="&#xf2;" horiz-adv-x="1115" d="M81 0zM557 918q105 0 193 -33t151.5 -95t98.5 -150t35 -193q0 -101 -35 -188.5t-98 -149.5t-151 -96t-194 -34t-193.5 33.5t-150.5 96t-97.5 150t-34.5 188.5q0 105 35 192.5t98 150t150.5 95.5t192.5 33zM557 814q-70 0 -126 -26t-95.5 -73t-60.5 -115.5t-21 -151.5 q0 -78 21.5 -146.5t61 -117t95.5 -74.5t125 -26t125 26t96 74.5t61.5 117t21.5 146.5q0 82 -21.5 151t-61 116t-96 73t-125.5 26zM755 1029h-83q-23 20 -54 44.5t-65 51t-68 53.5t-61 53.5t-44.5 50t-19.5 42.5q0 16 22 27t52 11q27 0 53.5 -9t37.5 -23z" />
<glyph unicode="&#xf3;" horiz-adv-x="1115" d="M81 0zM552 1271q12 16 27.5 31t33 26.5t36 18.5t36.5 7q26 0 44 -9.5t18 -25.5q0 -14 -15 -28l-283 -262h-84zM557 918q105 0 193 -33t151.5 -95t98.5 -150t35 -193q0 -101 -35 -188.5t-98 -149.5t-151 -96t-194 -34t-193.5 33.5t-150.5 96t-97.5 150t-34.5 188.5 q0 105 35 192.5t98 150t150.5 95.5t192.5 33zM557 814q-70 0 -126 -26t-95.5 -73t-60.5 -115.5t-21 -151.5q0 -78 21.5 -146.5t61 -117t95.5 -74.5t125 -26t125 26t96 74.5t61.5 117t21.5 146.5q0 82 -21.5 151t-61 116t-96 73t-125.5 26z" />
<glyph unicode="&#xf4;" horiz-adv-x="1115" d="M81 0zM621 1350l239 -317h-86l-220 195l-216 -195h-83l230 317h136zM557 918q105 0 193 -33t151.5 -95t98.5 -150t35 -193q0 -101 -35 -188.5t-98 -149.5t-151 -96t-194 -34t-193.5 33.5t-150.5 96t-97.5 150t-34.5 188.5q0 105 35 192.5t98 150t150.5 95.5t192.5 33z M557 814q-70 0 -126 -26t-95.5 -73t-60.5 -115.5t-21 -151.5q0 -78 21.5 -146.5t61 -117t95.5 -74.5t125 -26t125 26t96 74.5t61.5 117t21.5 146.5q0 82 -21.5 151t-61 116t-96 73t-125.5 26z" />
<glyph unicode="&#xf5;" horiz-adv-x="1115" d="M81 0zM557 918q105 0 193 -33t151.5 -95t98.5 -150t35 -193q0 -101 -35 -188.5t-98 -149.5t-151 -96t-194 -34t-193.5 33.5t-150.5 96t-97.5 150t-34.5 188.5q0 105 35 192.5t98 150t150.5 95.5t192.5 33zM557 814q-70 0 -126 -26t-95.5 -73t-60.5 -115.5t-21 -151.5 q0 -78 21.5 -146.5t61 -117t95.5 -74.5t125 -26t125 26t96 74.5t61.5 117t21.5 146.5q0 82 -21.5 151t-61 116t-96 73t-125.5 26zM875 1295q-19 -95 -70.5 -147t-126.5 -52q-32 0 -67 11.5t-70 25t-68 25t-61 11.5q-39 0 -64 -21.5t-41 -68.5h-66q47 202 192 202 q33 0 68 -11.5t70 -25.5t68.5 -25.5t65.5 -11.5q73 0 105 88h65z" />
<glyph unicode="&#xf6;" horiz-adv-x="1115" d="M81 0zM744 1274q42 0 67 -24t25 -65q0 -40 -25 -64.5t-68 -24.5q-42 0 -66.5 25t-24.5 65t25 64t67 24zM371 1274q42 0 66.5 -23.5t24.5 -65.5q0 -40 -24.5 -64.5t-67.5 -24.5q-42 0 -66.5 25t-24.5 65t25 64t67 24zM557 918q105 0 193 -33t151.5 -95t98.5 -150t35 -193 q0 -101 -35 -188.5t-98 -149.5t-151 -96t-194 -34t-193.5 33.5t-150.5 96t-97.5 150t-34.5 188.5q0 105 35 192.5t98 150t150.5 95.5t192.5 33zM557 814q-70 0 -126 -26t-95.5 -73t-60.5 -115.5t-21 -151.5q0 -78 21.5 -146.5t61 -117t95.5 -74.5t125 -26t125 26t96 74.5 t61.5 117t21.5 146.5q0 82 -21.5 151t-61 116t-96 73t-125.5 26z" />
<glyph unicode="&#xf7;" horiz-adv-x="1537" d="M768 1096q21 0 39 -8t31.5 -21t21 -31t7.5 -37q0 -41 -29 -68.5t-70 -27.5q-21 0 -39 7.5t-31.5 20.5t-21 30.5t-7.5 37.5q0 19 8 37t21.5 31t31.5 21t38 8zM1338 561h-1141v120h1141v-120zM768 339q20 0 38 -8t31.5 -21.5t21.5 -31.5t8 -37q0 -20 -8 -37t-21.5 -30.5 t-31.5 -21t-38 -7.5q-21 0 -39 7.5t-31.5 20.5t-21 30.5t-7.5 37.5t8 38t21.5 31.5t31.5 21t38 7.5z" />
<glyph unicode="&#xf8;" horiz-adv-x="1115" d="M1043 972l-144 -177q137 -129 137 -349q0 -106 -34 -193t-96.5 -149.5t-150 -97t-193.5 -34.5q-78 0 -149.5 19.5t-131.5 57.5l-128 -159l-85 26l148 183q-66 65 -100 153.5t-34 196.5q0 105 34 192.5t96.5 149.5t149.5 96.5t193 34.5q81 0 150 -20t129 -58l126 152z M753 750q-38 36 -88 54.5t-106 18.5q-70 0 -126.5 -26t-96.5 -74t-61.5 -116t-21.5 -151q0 -139 60 -242zM363 143q42 -35 91 -52.5t105 -17.5q69 0 125.5 26.5t96.5 75t62 117t22 152.5q0 72 -16 132.5t-45 105.5z" />
<glyph unicode="&#xf9;" horiz-adv-x="1170" d="M40 0zM472 -21q-95 0 -152 29t-87.5 85.5t-40 139t-9.5 189.5v317q0 25 -4.5 39t-19.5 20t-43.5 7t-75.5 1v87h82t74.5 0.5t74 2t80.5 3.5v-528q0 -63 5.5 -117t24 -92t53 -58t92.5 -20q54 0 99.5 11.5t82.5 33t65 51.5t47 62q2 37 2 73.5v74.5v344q0 27 -4.5 41.5 t-20 21.5t-44.5 8t-78 1v87q76 0 155.5 1t159.5 6v-760q0 -18 5 -28.5t20.5 -15.5t43.5 -6t74 -1v-89q-90 0 -163 -1t-141 -3v134q-69 -76 -160 -113.5t-197 -37.5zM782 1029h-83q-23 20 -54 44.5t-65 51t-68 53.5t-61 53.5t-44.5 50t-19.5 42.5q0 16 22 27t52 11 q27 0 53.5 -9t37.5 -23z" />
<glyph unicode="&#xfa;" horiz-adv-x="1170" d="M40 0zM579 1271q12 16 27.5 31t33 26.5t36 18.5t36.5 7q26 0 44 -9.5t18 -25.5q0 -14 -15 -28l-283 -262h-84zM472 -21q-95 0 -152 29t-87.5 85.5t-40 139t-9.5 189.5v317q0 25 -4.5 39t-19.5 20t-43.5 7t-75.5 1v87h82t74.5 0.5t74 2t80.5 3.5v-528q0 -63 5.5 -117 t24 -92t53 -58t92.5 -20q54 0 99.5 11.5t82.5 33t65 51.5t47 62q2 37 2 73.5v74.5v344q0 27 -4.5 41.5t-20 21.5t-44.5 8t-78 1v87q76 0 155.5 1t159.5 6v-760q0 -18 5 -28.5t20.5 -15.5t43.5 -6t74 -1v-89q-90 0 -163 -1t-141 -3v134q-69 -76 -160 -113.5t-197 -37.5z" />
<glyph unicode="&#xfb;" horiz-adv-x="1170" d="M40 0zM648 1350l239 -317h-86l-220 195l-216 -195h-83l230 317h136zM472 -21q-95 0 -152 29t-87.5 85.5t-40 139t-9.5 189.5v317q0 25 -4.5 39t-19.5 20t-43.5 7t-75.5 1v87h82t74.5 0.5t74 2t80.5 3.5v-528q0 -63 5.5 -117t24 -92t53 -58t92.5 -20q54 0 99.5 11.5 t82.5 33t65 51.5t47 62q2 37 2 73.5v74.5v344q0 27 -4.5 41.5t-20 21.5t-44.5 8t-78 1v87q76 0 155.5 1t159.5 6v-760q0 -18 5 -28.5t20.5 -15.5t43.5 -6t74 -1v-89q-90 0 -163 -1t-141 -3v134q-69 -76 -160 -113.5t-197 -37.5z" />
<glyph unicode="&#xfc;" horiz-adv-x="1170" d="M40 0zM771 1274q42 0 67 -24t25 -65q0 -40 -25 -64.5t-68 -24.5q-42 0 -66.5 25t-24.5 65t25 64t67 24zM398 1274q42 0 66.5 -23.5t24.5 -65.5q0 -40 -24.5 -64.5t-67.5 -24.5q-42 0 -66.5 25t-24.5 65t25 64t67 24zM472 -21q-95 0 -152 29t-87.5 85.5t-40 139 t-9.5 189.5v317q0 25 -4.5 39t-19.5 20t-43.5 7t-75.5 1v87h82t74.5 0.5t74 2t80.5 3.5v-528q0 -63 5.5 -117t24 -92t53 -58t92.5 -20q54 0 99.5 11.5t82.5 33t65 51.5t47 62q2 37 2 73.5v74.5v344q0 27 -4.5 41.5t-20 21.5t-44.5 8t-78 1v87q76 0 155.5 1t159.5 6v-760 q0 -18 5 -28.5t20.5 -15.5t43.5 -6t74 -1v-89q-90 0 -163 -1t-141 -3v134q-69 -76 -160 -113.5t-197 -37.5z" />
<glyph unicode="&#xfd;" horiz-adv-x="1060" d="M0 0zM161 -272q26 -4 50 -8q20 -3 41 -5t35 -2q21 0 39.5 9t37 29.5t38 54t41.5 82.5l38 100q-91 197 -165 355q-32 67 -62.5 133t-55.5 122.5t-42 93t-21 44.5q-11 24 -20 37.5t-20.5 21t-29 9.5t-46.5 2h-36v89q57 0 112.5 -1t104.5 -1q47 0 106.5 1t134.5 1v-89h-88 q-27 0 -42.5 -9.5t-16.5 -33.5q1 -20 9 -45t19.5 -51.5t24 -53t23.5 -50.5l191 -408q40 101 80 199q17 42 35 86.5l36 89t34.5 86.5t30.5 76q9 22 14 38t6 30q-1 15 -6.5 24t-20.5 14t-43 6.5t-73 1.5v89q52 0 100.5 -1t96.5 -1q53 0 109 1t114 1v-89q-43 0 -67.5 -3 t-39.5 -13.5t-25 -30t-25 -52.5l-345 -814q-36 -85 -68 -142t-65 -91.5t-69.5 -49t-82.5 -14.5q-22 0 -45 4t-43 9q-23 5 -45 13zM523 1271q12 16 27.5 31t33 26.5t36 18.5t36.5 7q26 0 44 -9.5t18 -25.5q0 -14 -15 -28l-283 -262h-84z" />
<glyph unicode="&#xfe;" horiz-adv-x="1188" d="M337 746q51 79 137 124t195 45q97 0 177 -33.5t137.5 -94.5t89 -146t31.5 -188q0 -109 -31.5 -197.5t-88.5 -151.5t-137.5 -97t-178.5 -34q-220 0 -331 166l-2 -368q0 -24 2 -40.5t12.5 -26.5t33.5 -14t65 -4h52v-90q-65 1 -118 2q-23 0 -45 0.5t-40 1t-31 1t-16 0.5 t-14 -0.5t-28 -1t-38 -1t-42 -0.5q-50 -1 -112 -2v90q57 0 87.5 4t45 13t16.5 24t2 37v1365q0 17 -2 30.5t-15.5 23t-42.5 14.5t-83 5v90h95q54 0 108 1t108 3zM624 806q-69 0 -124 -25t-94 -71t-60 -112.5t-21 -148.5q0 -84 21.5 -152t61.5 -116t96.5 -74t126.5 -26 q69 0 125 25t95.5 72t61 115t21.5 154q0 83 -21.5 149.5t-62 113t-97.5 71.5t-129 25z" />
<glyph unicode="&#xff;" horiz-adv-x="1060" d="M0 0zM161 -272q26 -4 50 -8q20 -3 41 -5t35 -2q21 0 39.5 9t37 29.5t38 54t41.5 82.5l38 100q-91 197 -165 355q-32 67 -62.5 133t-55.5 122.5t-42 93t-21 44.5q-11 24 -20 37.5t-20.5 21t-29 9.5t-46.5 2h-36v89q57 0 112.5 -1t104.5 -1q47 0 106.5 1t134.5 1v-89h-88 q-27 0 -42.5 -9.5t-16.5 -33.5q1 -20 9 -45t19.5 -51.5t24 -53t23.5 -50.5l191 -408q40 101 80 199q17 42 35 86.5l36 89t34.5 86.5t30.5 76q9 22 14 38t6 30q-1 15 -6.5 24t-20.5 14t-43 6.5t-73 1.5v89q52 0 100.5 -1t96.5 -1q53 0 109 1t114 1v-89q-43 0 -67.5 -3 t-39.5 -13.5t-25 -30t-25 -52.5l-345 -814q-36 -85 -68 -142t-65 -91.5t-69.5 -49t-82.5 -14.5q-22 0 -45 4t-43 9q-23 5 -45 13zM716 1274q42 0 67 -24t25 -65q0 -40 -25 -64.5t-68 -24.5q-42 0 -66.5 25t-24.5 65t25 64t67 24zM343 1274q42 0 66.5 -23.5t24.5 -65.5 q0 -40 -24.5 -64.5t-67.5 -24.5q-42 0 -66.5 25t-24.5 65t25 64t67 24z" />
<glyph unicode="&#x131;" horiz-adv-x="559" d="M373 152q0 -22 8 -34.5t26 -18.5t46.5 -7t69.5 -1v-91q-26 0 -70 0.5t-88 0.5t-78 0.5t-40 0.5q-57 0 -100.5 -1t-89.5 -1v91q54 0 84 3t44.5 10t17 19.5t2.5 32.5v613q0 14 -7.5 21t-24.5 10.5t-44.5 4t-66.5 1.5v89q85 0 160 1t151 4v-748z" />
<glyph unicode="&#x152;" horiz-adv-x="2035" d="M1925 1290v-326h-112q0 80 -1 123.5t-6 64t-15.5 24.5t-29.5 4h-551v-465h352q10 0 19 1.5t16 11t11 30t4 58.5h68v-323h-68q0 45 -4 69t-10.5 35.5t-15.5 13t-19 1.5h-353v-498h545q23 0 35.5 5.5t18.5 28.5t7.5 69.5t1.5 129.5h111v-347h-1026q-113 0 -216 14 t-192 45.5t-161.5 81.5t-123.5 122t-79 167t-28 217q0 157 47 277t138 201.5t225 123t308 41.5h1104zM851 1180q-156 0 -262.5 -39t-172 -110t-94 -169.5t-28.5 -216.5q0 -155 45 -257.5t126 -163.5t193.5 -86.5t246.5 -25.5h123v1068h-177z" />
<glyph unicode="&#x153;" horiz-adv-x="1833" d="M923 165q-51 -91 -151 -142t-229 -51q-111 0 -197.5 34.5t-145.5 97t-89.5 150t-30.5 194.5q0 111 32.5 198.5t93 149t146 94t191.5 32.5q131 0 230.5 -53t153.5 -150q60 98 159 150.5t224 52.5q96 0 178 -30.5t142.5 -92.5t94.5 -157t34 -225h-750q0 -83 23 -147.5 t65 -108.5t102 -67.5t134 -23.5q215 0 292 183l123 -19q-47 -128 -154.5 -195t-275.5 -67q-136 0 -234 47t-161 146zM252 454q0 -181 76 -279.5t216 -98.5q62 0 115.5 21t93.5 65.5t62.5 114t22.5 167.5q0 88 -19.5 157.5t-57 117.5t-92 73.5t-123.5 25.5q-65 0 -119 -23 t-93 -69t-60.5 -114t-21.5 -158zM1597 507q-3 73 -24.5 132.5t-58 101t-88.5 64t-117 22.5q-63 0 -116.5 -22.5t-93 -64.5t-63.5 -101t-28 -132h589z" />
<glyph unicode="&#x178;" horiz-adv-x="1259" d="M0 0zM-7 1290q29 -2 66.5 -2.5t68.5 -0.5q42 0 82 0.5t84.5 1t96 1t117.5 0.5v-99h-38q-66 0 -95 -3.5t-29 -23.5q2 -14 14 -36.5t32 -54.5q1 -2 20.5 -32.5t47.5 -75.5t60.5 -96.5t60.5 -96.5t47 -75.5t20 -32.5l255 403q23 37 36 60t13 37q0 20 -36.5 23.5t-120.5 3.5 v99q58 -1 110 -1q22 0 45 -0.5t43.5 -0.5h37h27.5h97.5t109.5 2v-99q-45 0 -71 -1.5t-42.5 -9t-29.5 -23.5t-32 -44q-23 -34 -58.5 -87.5t-76 -115t-81.5 -124t-74.5 -114t-55.5 -86t-25 -38.5v-385q0 -20 3.5 -32.5t16.5 -19.5t38.5 -9.5t70.5 -2.5h54v-99h-125t-149 2 q-77 0 -144.5 -1t-122.5 -1v99h53q48 0 74 4.5t37.5 13t13.5 19.5t2 25v389q-2 3 -17 26.5t-39 60t-53.5 82t-60 93t-60 93t-53.5 82t-39 60t-17 26.5q-27 43 -44.5 66.5t-37.5 35t-48.5 14t-77.5 2.5q0 25 -0.5 50t-0.5 49zM815 1669q42 0 67 -24t25 -65q0 -40 -25 -64.5 t-68 -24.5q-42 0 -66.5 25t-24.5 65t25 64t67 24zM442 1669q42 0 66.5 -23.5t24.5 -65.5q0 -40 -24.5 -64.5t-67.5 -24.5q-42 0 -66.5 25t-24.5 65t25 64t67 24z" />
<glyph unicode="&#x2c6;" horiz-adv-x="853" d="M490 1350l239 -317h-86l-220 195l-216 -195h-83l230 317h136z" />
<glyph unicode="&#x2da;" horiz-adv-x="853" d="M426 1428q46 0 86 -16.5t69.5 -45t46.5 -67.5t17 -83q0 -45 -17 -84.5t-47 -68.5t-70 -45.5t-85 -16.5q-46 0 -85.5 16.5t-69 45.5t-46.5 68.5t-17 84.5t17 83.5t46.5 67t69.5 45t85 16.5zM426 1345q-28 0 -52.5 -10t-42.5 -27.5t-28 -41t-10 -50.5q0 -28 10 -52t28 -42 t42 -28t53 -10q28 0 52.5 10t42.5 28t28.5 42t10.5 52q0 27 -10.5 50.5t-28.5 41t-42.5 27.5t-52.5 10z" />
<glyph unicode="&#x2dc;" horiz-adv-x="853" d="M743 1295q-19 -95 -70.5 -147t-126.5 -52q-32 0 -67 11.5t-70 25t-68 25t-61 11.5q-39 0 -64 -21.5t-41 -68.5h-66q47 202 192 202q33 0 68 -11.5t70 -25.5t68.5 -25.5t65.5 -11.5q73 0 105 88h65z" />
<glyph unicode="&#x2000;" horiz-adv-x="911" />
<glyph unicode="&#x2001;" horiz-adv-x="1823" />
<glyph unicode="&#x2002;" horiz-adv-x="911" />
<glyph unicode="&#x2003;" horiz-adv-x="1823" />
<glyph unicode="&#x2004;" horiz-adv-x="607" />
<glyph unicode="&#x2005;" horiz-adv-x="455" />
<glyph unicode="&#x2006;" horiz-adv-x="303" />
<glyph unicode="&#x2007;" horiz-adv-x="303" />
<glyph unicode="&#x2008;" horiz-adv-x="227" />
<glyph unicode="&#x2009;" horiz-adv-x="364" />
<glyph unicode="&#x200a;" horiz-adv-x="101" />
<glyph unicode="&#x2010;" horiz-adv-x="759" d="M682 526v-146h-606v146h606z" />
<glyph unicode="&#x2011;" horiz-adv-x="759" d="M682 526v-146h-606v146h606z" />
<glyph unicode="&#x2012;" horiz-adv-x="759" d="M682 526v-146h-606v146h606z" />
<glyph unicode="&#x2013;" horiz-adv-x="1024" d="M1030 541v-128h-1036v128h1036z" />
<glyph unicode="&#x2014;" horiz-adv-x="2048" d="M2054 541v-128h-2060v128h2060z" />
<glyph unicode="&#x2018;" horiz-adv-x="560" d="M192 1172q0 50 13.5 78.5t38.5 42t61 17t81 4.5v-77q-23 -1 -35.5 -8t-18.5 -18t-7 -26t-1 -31q0 -13 0.5 -34t1 -40.5t1 -34t0.5 -15.5l75 3q0 -4 3 -29.5t6.5 -55.5t6.5 -55.5t3 -29.5h-186q-13 75 -28 155t-15 154z" />
<glyph unicode="&#x2019;" horiz-adv-x="560" d="M421 1005q0 -50 -13.5 -78.5t-38.5 -42t-61 -17t-81 -4.5v77q22 1 34.5 7.5t18.5 18t7.5 26t1.5 31.5q0 13 -0.5 34t-1 40.5t-1 34t-0.5 15.5l-75 -3q0 4 -3 29.5t-6.5 55.5t-6.5 55.5t-3 29.5h186q13 -75 28 -155t15 -154z" />
<glyph unicode="&#x201a;" horiz-adv-x="560" d="M421 -139q0 -50 -13.5 -78.5t-38.5 -42t-61 -17t-81 -4.5v77q22 1 34.5 7.5t18.5 18t7.5 26t1.5 31.5q0 13 -0.5 34t-1 40.5t-1 34t-0.5 15.5l-75 -3q0 4 -3 29.5t-6.5 55.5t-6.5 55.5t-3 29.5h186q13 -75 28 -155t15 -154z" />
<glyph unicode="&#x201c;" horiz-adv-x="766" d="M471 1172q0 50 13.5 78.5t38.5 42t61 17t81 4.5v-77q-23 -1 -35.5 -8t-18.5 -18t-7 -26t-1 -31q0 -13 0.5 -34t1 -40.5t1 -34t0.5 -15.5l75 3q0 -4 3 -29.5t6.5 -55.5t6.5 -55.5t3 -29.5h-186q-13 75 -28 155t-15 154zM177 1172q0 50 13.5 78.5t38.5 42t61 17t81 4.5v-77 q-23 -1 -35.5 -8t-18.5 -18t-7 -26t-1 -31q0 -13 0.5 -34t1 -40.5t1 -34t0.5 -15.5l75 3q0 -4 3 -29.5t6.5 -55.5t6.5 -55.5t3 -29.5h-186q-13 75 -28 155t-15 154z" />
<glyph unicode="&#x201d;" horiz-adv-x="766" d="M406 1005q0 -50 -13.5 -78.5t-38.5 -42t-61 -17t-81 -4.5v77q22 1 34.5 7.5t18.5 18t7.5 26t1.5 31.5q0 13 -0.5 34t-1 40.5t-1 34t-0.5 15.5l-75 -3q0 4 -3 29.5t-6.5 55.5t-6.5 55.5t-3 29.5h186q13 -75 28 -155t15 -154zM700 1005q0 -50 -13.5 -78.5t-38.5 -42 t-61 -17t-81 -4.5v77q22 1 34.5 7.5t18.5 18t7.5 26t1.5 31.5q0 13 -0.5 34t-1 40.5t-1 34t-0.5 15.5l-75 -3q0 4 -3 29.5t-6.5 55.5t-6.5 55.5t-3 29.5h186q13 -75 28 -155t15 -154z" />
<glyph unicode="&#x201e;" horiz-adv-x="766" d="M406 -139q0 -50 -13.5 -78.5t-38.5 -42t-61 -17t-81 -4.5v77q22 1 34.5 7.5t18.5 18t7.5 26t1.5 31.5q0 13 -0.5 34t-1 40.5t-1 34t-0.5 15.5l-75 -3q0 4 -3 29.5t-6.5 55.5t-6.5 55.5t-3 29.5h186q13 -75 28 -155t15 -154zM700 -139q0 -50 -13.5 -78.5t-38.5 -42 t-61 -17t-81 -4.5v77q22 1 34.5 7.5t18.5 18t7.5 26t1.5 31.5q0 13 -0.5 34t-1 40.5t-1 34t-0.5 15.5l-75 -3q0 4 -3 29.5t-6.5 55.5t-6.5 55.5t-3 29.5h186q13 -75 28 -155t15 -154z" />
<glyph unicode="&#x2022;" horiz-adv-x="1125" d="M282 714q0 56 22 105.5t60.5 86t89.5 58t108 21.5t107.5 -21.5t88.5 -58.5t60 -86.5t22 -104.5q0 -56 -22 -105.5t-60.5 -86.5t-89 -59t-107.5 -22q-58 0 -108.5 21.5t-88.5 59t-60 87t-22 105.5z" />
<glyph unicode="&#x2026;" horiz-adv-x="1680" d="M271 172q28 0 48.5 -7.5t34 -20t19.5 -28.5t6 -34q0 -36 -25 -63.5t-83 -27.5t-82.5 26.5t-24.5 64.5q0 18 6 34t19 28.5t33 20t49 7.5zM831 172q28 0 48.5 -7.5t34 -20t19.5 -28.5t6 -34q0 -36 -25 -63.5t-83 -27.5t-82.5 26.5t-24.5 64.5q0 18 6 34t19 28.5t33 20 t49 7.5zM1391 172q28 0 48.5 -7.5t34 -20t19.5 -28.5t6 -34q0 -36 -25 -63.5t-83 -27.5t-82.5 26.5t-24.5 64.5q0 18 6 34t19 28.5t33 20t49 7.5z" />
<glyph unicode="&#x202f;" horiz-adv-x="364" />
<glyph unicode="&#x2039;" horiz-adv-x="556" d="M507 841l-278 -391l278 -391h-166l-276 391l276 391h166z" />
<glyph unicode="&#x203a;" horiz-adv-x="556" d="M222 841l267 -392l-267 -390h-167l271 390l-271 392h167z" />
<glyph unicode="&#x205f;" horiz-adv-x="455" />
<glyph unicode="&#x2074;" d="M600 896v-559h150v-73h-150v-156q0 -12 1 -20.5t8 -14t21 -7.5t41 -2h37v-64q-34 0 -81 0.5t-104 0.5h-48.5t-39.5 -0.5t-34.5 -0.5h-34.5v64h45q29 0 46 1.5t26 5.5t11.5 10.5t2.5 16.5v166h-389q-6 49 -18 90l385 542h125zM168 336h330v472h-1z" />
<glyph unicode="&#x20ac;" horiz-adv-x="1140" d="M1063 306q-25 -65 -59.5 -123.5t-83 -103t-113 -70.5t-150.5 -26q-123 0 -210.5 47.5t-146 124t-91 172.5t-44.5 194h-139v91h131q-1 15 -2 32t-1 31q0 19 0.5 37t2.5 36h-131v93h139q24 133 70 237t113 174.5t153.5 107.5t190.5 37q93 0 186 -30t181 -92l-30 -205 l-71 -10q-17 58 -46.5 101.5t-67 72.5t-81 43t-89.5 14q-65 0 -122.5 -29t-104 -85.5t-80 -140.5t-51.5 -195h398v-93h-407q0 -17 -1 -33t-1 -33v-34.5t2 -35.5h407v-91h-396q6 -45 18 -94t31 -96.5t45 -90.5t60.5 -75.5t78.5 -51.5t99 -19q61 0 107 21.5t80.5 57.5 t60.5 82.5t48 96.5z" />
<glyph unicode="&#x2122;" horiz-adv-x="1800" d="M784 1248h-34q0 45 -12.5 60t-25.5 15h-152v-541q0 -4 1 -9t7.5 -9t21 -7t40.5 -3v-34h-252v34q26 0 40.5 2.5t21 6.5t7.5 9t1 11v540h-154q-13 0 -25.5 -15t-12.5 -60h-29v131h557v-131zM1220 882h2l172 497h202v-44q-23 0 -35 -3t-17.5 -7.5t-6.5 -10t-1 -11.5v-504 q0 -6 1 -12t6.5 -10.5t18 -7t35.5 -2.5v-47h-220v47q21 0 33 2t17.5 6t7 10t1.5 13v498h-2l-200 -576h-51l-194 576h-2v-504q0 -6 1 -10.5t8 -8t21 -5t40 -1.5v-47h-227v47q30 0 46 2.5t23.5 7t8.5 10t1 12.5v509q0 3 -1 7t-7.5 8t-21 6.5t-40.5 2.5v47h215z" />
<glyph unicode="&#xe000;" horiz-adv-x="895" d="M0 895h895v-895h-895v895z" />
<glyph unicode="&#xfb01;" horiz-adv-x="1203" d="M722 1096l-80 -8q-10 63 -42.5 96.5t-89.5 33.5q-49 0 -77 -16.5t-41.5 -48.5t-17 -79.5t-3.5 -108.5v-70h372v-89h-372v-649q0 -25 10 -38.5t31 -19.5t53 -7t76 -1v-91q-44 0 -89 1q-39 0 -85 0.5t-89 0.5q-35 0 -73 -0.5t-70 -0.5q-38 -1 -74 -1v91q51 0 79.5 3 t42 10.5t16.5 21t3 33.5v647h-150v89h150v116q0 160 76.5 232t218.5 72q60 0 118.5 -8.5t106.5 -25.5v-185zM912 1315q50 0 79 -24.5t29 -67.5q0 -44 -28.5 -69.5t-79.5 -25.5q-50 0 -78 25t-28 70q0 43 28 67.5t78 24.5zM1017 158q0 -24 8 -37.5t26 -20t46.5 -8t69.5 -1.5 v-91q-26 0 -70 0.5t-88 0.5t-78 0.5t-40 0.5q-57 0 -100.5 -1t-89.5 -1v91q54 0 84 3t44.5 10t17 19.5t2.5 32.5v613q0 14 -7.5 21t-24.5 10.5t-44.5 4t-66.5 1.5v89q85 0 160 1t151 4v-742z" />
<glyph unicode="&#xfb02;" horiz-adv-x="1222" d="M52 0zM722 1096l-80 -8q-10 63 -42.5 96.5t-89.5 33.5q-49 0 -77 -16.5t-41.5 -48.5t-17 -79.5t-3.5 -108.5v-70h217v-89h-217v-651q0 -25 10 -38.5t31 -19.5t53 -7t76 -1v-89q-44 0 -89 1q-39 0 -85 0.5t-89 0.5q-35 0 -73 -0.5t-70 -0.5q-38 -1 -74 -1v89q51 0 79.5 3 t42 10.5t16.5 21t3 33.5v649h-150v89h150v116q0 160 76.5 232t218.5 72q60 0 118.5 -8.5t106.5 -25.5v-185zM1030 159q0 -25 9.5 -39t29 -21t48 -8.5t67.5 -1.5v-89h-55h-55.5t-59.5 0.5t-68 1.5q-36 0 -67 -0.5t-59 -0.5t-54 -0.5t-53 -0.5v20t-0.5 24.5t-0.5 24.5v20 q57 0 87.5 5t44.5 15t16.5 25t2.5 36v982q0 18 -9.5 28t-28.5 14.5t-46 5.5t-62 2v90q79 0 153 1t160 3v-1137z" />
<glyph horiz-adv-x="1222" d="M0 0z" />
</font>
</defs>
</svg>
