<?xml version="1.0" standalone="no"?>
<!DOCTYPE svg PUBLIC "-//W3C//DTD SVG 1.1//EN" "http://www.w3.org/Graphics/SVG/1.1/DTD/svg11.dtd" >
<svg xmlns="http://www.w3.org/2000/svg">
<metadata></metadata>
<defs>
<font id="volkhovregular" horiz-adv-x="593" >
<font-face units-per-em="1000" ascent="800" descent="-200" />
<missing-glyph horiz-adv-x="231" />
<glyph horiz-adv-x="1000" />
<glyph horiz-adv-x="1000" />
<glyph unicode="&#xd;" horiz-adv-x="0" />
<glyph unicode=" "  horiz-adv-x="231" />
<glyph unicode="&#x09;" horiz-adv-x="231" />
<glyph unicode="&#xa0;" horiz-adv-x="231" />
<glyph unicode="!" horiz-adv-x="284" d="M74 54q0 28 20 48t48 20t47.5 -20t19.5 -48q0 -27 -20 -47.5t-47 -20.5q-28 0 -48 20.5t-20 47.5zM79 700h126l-20 -492h-86z" />
<glyph unicode="&#x22;" horiz-adv-x="363" d="M42 715h106l-30 -235h-46zM215 715h106l-30 -235h-46z" />
<glyph unicode="#" horiz-adv-x="590" d="M46 201v64h93l36 191h-103v64h116l36 195h66l-37 -195h134l37 195h66l-38 -195h93v-64h-104l-37 -191h114v-64h-126l-37 -201h-65l37 201h-134l-38 -201h-65l38 201h-82zM204 265h135l37 191h-136z" />
<glyph unicode="$" horiz-adv-x="598" d="M60 32v184h46l51 -153q48 -15 114 -15v268q-43 17 -75 34t-64.5 42.5t-50 61.5t-17.5 80q0 78 57 125.5t150 54.5v63h65v-63q91 -4 169 -30v-184h-46l-48 146q-38 7 -75 8v-239q108 -41 160 -93.5t54 -126.5q0 -92 -59.5 -144.5t-154.5 -62.5v-71h-65v68q-114 1 -211 47z M172 548q0 -35 25.5 -60.5t73.5 -46.5v210q-46 -6 -72.5 -35.5t-26.5 -67.5zM336 53q101 23 101 116q0 40 -25.5 67t-75.5 52v-235z" />
<glyph unicode="%" horiz-adv-x="759" d="M40 543q0 36 10 67.5t29.5 55t47.5 36.5t64 13t63.5 -13.5t46.5 -37t29 -54.5t10 -67t-10 -67.5t-28.5 -55t-46.5 -37t-64 -13.5q-71 0 -111 49t-40 124zM129 543q0 -134 62 -134q61 0 61 134q0 132 -61 132q-62 0 -62 -132zM169 0l357 715h70l-356 -715h-71zM419 158 q0 36 10 67.5t29.5 54.5t47 36.5t63.5 13.5q35 0 63 -13.5t47.5 -36.5t29.5 -54.5t10 -67.5t-10 -68t-29.5 -55t-47 -36.5t-63.5 -13.5q-70 0 -110 49t-40 124zM508 158q0 -134 61 -134q62 0 62 134q0 132 -62 132q-61 0 -61 -132z" />
<glyph unicode="&#x26;" horiz-adv-x="767" d="M51 166q0 121 157 204q-95 103 -95 190q0 77 56.5 116t139.5 39q81 0 138 -40t57 -112q0 -113 -154 -192l163 -162q24 53 34 114l-60 22v45h205v-45l-86 -22q-11 -85 -47 -157l101 -97l100 -24v-45h-170l-86 82q-87 -97 -220 -97q-99 0 -166 46.5t-67 134.5zM164 166 q0 -49 32 -85t93 -36q103 0 171 80l-207 198q-89 -71 -89 -157zM221 561q0 -24 12.5 -51t42.5 -59t32 -34q38 23 62.5 62t24.5 83q0 45 -25 70.5t-63 25.5q-35 0 -60.5 -25.5t-25.5 -71.5z" />
<glyph unicode="'" horiz-adv-x="200" d="M42 715h116l-30 -235h-56z" />
<glyph unicode="(" horiz-adv-x="332" d="M34 250q0 176 77 321.5t198 227.5l24 -29q-95 -92 -147.5 -230t-52.5 -290q0 -153 52 -291t148 -229l-24 -29q-121 81 -198 226.5t-77 322.5z" />
<glyph unicode=")" horiz-adv-x="332" d="M-1 -270q96 91 148 229t52 291q0 152 -52.5 290t-147.5 230l24 29q121 -82 198 -227.5t77 -321.5q0 -177 -77 -322.5t-198 -226.5z" />
<glyph unicode="*" horiz-adv-x="471" d="M44 591l26 79l141 -66l-18 156h84l-18 -156l142 65l26 -78l-153 -34l106 -114l-67 -49l-78 135l-76 -136l-69 51l106 114z" />
<glyph unicode="+" horiz-adv-x="543" d="M42 323v67h195v195h67v-195h197v-67h-197v-196h-67v196h-195z" />
<glyph unicode="," horiz-adv-x="238" d="M19 -140q60 63 90 138l-66 51q0 33 22.5 54.5t50.5 21.5q35 0 55 -21t20 -62q0 -50 -45 -116t-90 -99z" />
<glyph unicode="-" horiz-adv-x="343" d="M62 235v77h219v-77h-219z" />
<glyph unicode="." horiz-adv-x="228" d="M46 53q0 28 20 47.5t48 19.5t47.5 -19.5t19.5 -47.5q0 -27 -20 -47.5t-47 -20.5q-28 0 -48 20.5t-20 47.5z" />
<glyph unicode="/" horiz-adv-x="444" d="M29 0l311 700h76l-310 -700h-77z" />
<glyph unicode="0" horiz-adv-x="632" d="M51 350q0 161 71.5 263t193.5 102t193.5 -101.5t71.5 -263.5q0 -160 -71.5 -262.5t-193.5 -102.5t-193.5 102.5t-71.5 262.5zM179 350q0 -128 36 -217t101 -89t101 89t36 217t-36 217t-101 89t-101 -89t-36 -217z" />
<glyph unicode="1" horiz-adv-x="407" d="M25 589l211 111h47v-638l85 -19v-43h-322v43l115 20v536l-120 -51z" />
<glyph unicode="2" horiz-adv-x="538" d="M29 0v60l86 92q30 33 70 84t70 98.5t51.5 101.5t21.5 98q0 60 -29.5 96t-79.5 36l-118 -108q-54 40 -57 107q97 50 212 50q86 0 142.5 -41.5t56.5 -122.5q0 -58 -27.5 -121.5t-78 -126.5t-93 -108t-99.5 -98h239l54 108h44l-28 -205h-437z" />
<glyph unicode="3" horiz-adv-x="539" d="M20 26l21 49q77 -28 151 -28q78 0 125 40t47 104q0 69 -54 109t-154 40v56q79 1 125.5 43t46.5 107q0 54 -32 88t-83 34l-112 -102q-18 12 -35 43t-18 58q39 23 89.5 35.5t101.5 12.5q110 0 162.5 -45t52.5 -117q0 -57 -40.5 -104.5t-113.5 -70.5q94 -14 142.5 -64.5 t48.5 -120.5q0 -99 -77.5 -153.5t-190.5 -54.5q-110 0 -203 41z" />
<glyph unicode="4" horiz-adv-x="568" d="M8 138v43l385 519h49v-492h79v-70h-79v-153h-107v153h-327zM116 208h219v292z" />
<glyph unicode="5" horiz-adv-x="528" d="M22 27l22 47q63 -28 129 -28q80 0 131.5 46t51.5 132q0 68 -41 112.5t-122 44.5q-35 0 -95 -13l-22 13l29 319h297l42 40l40 -18l-46 -118h-276l-15 -171q51 13 103 13q57 0 102.5 -19.5t73 -51t41.5 -68.5t14 -75q0 -113 -82.5 -180t-193.5 -67q-112 0 -181 41z" />
<glyph unicode="6" horiz-adv-x="569" d="M52 300q0 177 110 296t299 119l-1 -58q-119 -1 -193.5 -79.5t-94.5 -202.5q67 61 155 61q99 0 153.5 -63t54.5 -159q0 -97 -60 -163t-170 -66q-122 0 -187.5 86.5t-65.5 228.5zM165 291q0 -108 35 -179.5t99 -71.5q50 0 81 47.5t31 109.5q0 70 -34 115t-95 45 q-63 0 -117 -39v-27z" />
<glyph unicode="7" horiz-adv-x="476" d="M25 495l28 205h422v-44q-98 -150 -159 -320t-78 -336h-120q18 143 93.5 316.5t152.5 286.5h-244l-51 -108h-44z" />
<glyph unicode="8" horiz-adv-x="591" d="M66 169q0 109 143 197q-59 40 -92 82.5t-33 101.5q0 78 62.5 121.5t148.5 43.5q85 0 145.5 -42t60.5 -117q0 -94 -108 -171q63 -41 98.5 -88.5t35.5 -116.5q0 -90 -71 -142.5t-163 -52.5q-90 0 -158.5 49.5t-68.5 134.5zM167 169q0 -60 37 -93.5t88 -33.5q49 0 84.5 32 t35.5 88q0 28 -11 51.5t-37 46t-45.5 36t-57.5 37.5q-48 -36 -71 -80.5t-23 -83.5zM198 565q0 -19 9 -37.5t19 -31t33.5 -29.5t36.5 -25l45 -26q30 29 45 66t15 66q0 51 -31 79.5t-76 28.5q-39 0 -67.5 -24.5t-28.5 -66.5z" />
<glyph unicode="9" horiz-adv-x="569" d="M34 485q0 98 60 164t170 66q122 0 187.5 -86.5t65.5 -228.5q0 -177 -109.5 -296t-299.5 -119v58q120 1 194.5 79.5t94.5 202.5q-67 -61 -155 -61q-99 0 -153.5 62.5t-54.5 158.5zM158 502q0 -69 34 -114t95 -45q65 0 117 38v28q0 108 -35 179.5t-99 71.5q-50 0 -81 -47.5 t-31 -110.5z" />
<glyph unicode=":" horiz-adv-x="260" d="M62 53q0 28 20 47.5t48 19.5t47.5 -19.5t19.5 -47.5q0 -27 -20 -47.5t-47 -20.5q-28 0 -48 20.5t-20 47.5zM62 393q0 28 20 47.5t48 19.5t47.5 -19.5t19.5 -47.5q0 -27 -20 -47.5t-47 -20.5q-28 0 -48 20.5t-20 47.5z" />
<glyph unicode=";" horiz-adv-x="275" d="M40 -140q60 63 90 138l-66 51q0 33 22.5 54.5t50.5 21.5q35 0 55 -21t20 -62q0 -50 -45 -116t-90 -99zM68 393q0 28 20 47.5t48 19.5t47.5 -19.5t19.5 -47.5q0 -27 -20 -47.5t-47 -20.5q-28 0 -48 20.5t-20 47.5z" />
<glyph unicode="&#x3c;" horiz-adv-x="540" d="M38 330v55l429 231v-77l-335 -182l335 -180v-77z" />
<glyph unicode="=" horiz-adv-x="597" d="M69 241v67h459v-67h-459zM69 406v67h459v-67h-459z" />
<glyph unicode="&#x3e;" horiz-adv-x="540" d="M73 99v77l335 182l-335 180v77l429 -230v-55z" />
<glyph unicode="?" horiz-adv-x="491" d="M35 667q41 22 94 35t106 13q98 0 151 -45.5t53 -125.5q0 -39 -13 -73t-44.5 -68.5t-56.5 -56.5t-75 -61l-15 -93h-51l-15 122q67 63 105 119.5t38 114.5q0 55 -30.5 85t-81.5 30l-118 -93q-42 36 -47 97zM141 53q0 28 20 48t48 20t47.5 -20t19.5 -48q0 -27 -20 -47.5 t-47 -20.5q-28 0 -48 20.5t-20 47.5z" />
<glyph unicode="@" horiz-adv-x="909" d="M53 287q0 184 126.5 306t317.5 122q165 0 268 -88t103 -225q0 -66 -31 -126.5t-78 -100.5t-103 -61t-105 -15q-49 7 -49 43l5 40q-70 -83 -155 -83q-41 0 -70 30t-29 92q0 130 81 222t194 92q81 0 152 -39l-88 -341q89 -1 151 76t62 179q0 108 -87 180t-219 72 q-146 0 -250.5 -106.5t-104.5 -269.5q0 -83 29 -149t79 -107t112.5 -62.5t133.5 -21.5q97 0 186 37l20 -34q-101 -59 -232 -59q-79 0 -152.5 24.5t-134 71.5t-96.5 125t-36 176zM351 240q0 -36 12.5 -56.5t35.5 -20.5q30 0 66.5 31.5t64.5 75.5l57 218q-21 7 -43 7 q-79 0 -136 -80.5t-57 -174.5z" />
<glyph unicode="A" horiz-adv-x="717" d="M-10 0v46l94 22l243 637h72l228 -638l92 -21v-46h-294v46l74 17l-48 135h-245l-52 -132l88 -20v-46h-252zM228 257h201l-98 273z" />
<glyph unicode="B" horiz-adv-x="679" d="M44 0v46l92 22v564l-92 22v46h287q244 0 244 -170q0 -55 -32.5 -96t-88.5 -59v-2q82 -15 126.5 -61t44.5 -115q0 -90 -67 -143.5t-181 -53.5h-333zM259 61h87q73 0 113 35t40 101q0 61 -41.5 98t-116.5 37h-82v-271zM259 395h57q58 0 95.5 33.5t37.5 92.5q0 60 -37.5 89 t-101.5 29h-51v-244z" />
<glyph unicode="C" horiz-adv-x="671" d="M51 350q0 177 90.5 271t271.5 94q116 0 195 -35v-189h-46l-46 148q-39 9 -90 9q-249 0 -249 -298t229 -298q34 0 61 2t49 6l58 158h46l-7 -189q-14 -8 -40 -16t-56.5 -14t-63 -10t-59.5 -4q-169 0 -256 94t-87 271z" />
<glyph unicode="D" horiz-adv-x="749" d="M44 0v46l92 22v564l-92 22v46h260q184 0 289.5 -88t105.5 -262q0 -157 -109 -253.5t-286 -96.5h-260zM259 67h40q133 0 203.5 67t70.5 216q0 138 -72.5 210.5t-201.5 72.5h-40v-566z" />
<glyph unicode="E" horiz-adv-x="641" d="M44 0v46l92 22v564l-92 22v46h521v-205h-47l-43 138l-216 8v-257l216 19v-89l-216 18v-273l235 8l51 149h47l-8 -216h-540z" />
<glyph unicode="F" horiz-adv-x="590" d="M44 0v46l92 22v564l-92 22v46h516v-205h-46l-42 138l-213 8v-256l216 18v-89l-216 17v-263l112 -22v-46h-327z" />
<glyph unicode="G" horiz-adv-x="726" d="M51 350q0 174 97.5 269.5t280.5 95.5q116 0 194 -34v-190h-46l-47 149q-50 8 -84 8q-128 0 -198.5 -76t-70.5 -222q0 -147 64 -222.5t185 -75.5q44 0 79 7v209l-114 21v35h311v-35l-74 -21v-234q-92 -49 -215 -49q-176 0 -269 95t-93 270z" />
<glyph unicode="H" horiz-adv-x="827" d="M44 0v46l92 22v564l-92 22v46h307v-46l-92 -22v-245h309v245l-92 22v46h307v-46l-92 -22v-564l92 -22v-46h-307v46l92 22v252h-309v-252l92 -22v-46h-307z" />
<glyph unicode="I" horiz-adv-x="395" d="M44 0v46l93 22v564l-93 22v46h307v-46l-92 -22v-564l92 -22v-46h-307z" />
<glyph unicode="J" horiz-adv-x="375" d="M8 -112q120 87 120 262v482l-92 22v46h307v-46l-92 -22v-482q0 -103 -64.5 -186.5t-143.5 -117.5z" />
<glyph unicode="K" horiz-adv-x="723" d="M44 0v46l92 17v574l-92 17v46h307v-46l-92 -17v-574l92 -17v-46h-307zM281 359l247 278l-72 17v46h240v-46l-89 -22l-215 -239l235 -315l95 -32v-46h-193z" />
<glyph unicode="L" horiz-adv-x="618" d="M44 0v46l92 22v564l-92 22v46h307v-46l-92 -22v-565h235l54 149h46l-10 -216h-540z" />
<glyph unicode="M" horiz-adv-x="1010" d="M30 0v46l95 23l32 564l-88 21l1 46h214l225 -522l227 522h206v-46l-90 -21l34 -565l96 -22v-46h-304v46l88 21l-27 474l-237 -546h-44l-240 547l-25 -475l89 -21v-46h-252z" />
<glyph unicode="N" horiz-adv-x="822" d="M44 0v46l92 22v564l-92 22v46h162l417 -495v427l-92 22v46h257v-46l-92 -22v-632h-60l-430 507v-439l92 -22v-46h-254z" />
<glyph unicode="O" horiz-adv-x="771" d="M51 353q0 75 20 140.5t61 115t104.5 78t149.5 28.5q81 0 143 -27t105 -75t65 -115t22 -147q0 -81 -21.5 -148t-64 -115.5t-105 -75.5t-144.5 -27q-87 0 -150.5 29t-104.5 78.5t-60.5 116.5t-19.5 144zM179 350q0 -143 55.5 -224.5t151.5 -81.5t151.5 81.5t55.5 224.5 q0 135 -52.5 220.5t-154.5 85.5t-154.5 -85.5t-52.5 -220.5z" />
<glyph unicode="P" horiz-adv-x="634" d="M44 0v46l92 22v564l-92 22v46h266q294 0 294 -219q0 -111 -76.5 -165.5t-201.5 -54.5q-35 0 -67 5v-198l122 -22v-46h-337zM259 328q15 -2 30 -3t29 -1q34 0 63.5 10t51 30t33.5 49t12 68q0 78 -46.5 117t-121.5 39h-51v-309z" />
<glyph unicode="Q" horiz-adv-x="767" d="M51 350q0 160 84 262.5t249 102.5t248.5 -102.5t83.5 -262.5q0 -77 -20 -142t-59 -115.5t-104 -79.5q-15 -6 -31 -11q36 -45 99 -68q70 -26 157 -26h24l-12 -43q-46 -5 -70 -6t-42 -1q-58 1 -109 11t-96 43q-40 29 -66 73h-3q-85 0 -149.5 28.5t-104 79t-59.5 115.5 t-20 142zM179 350q0 -143 55.5 -225.5t151.5 -82.5q108 0 155 82.5t47 225.5q0 137 -52.5 221.5t-149.5 84.5q-102 0 -154.5 -85.5t-52.5 -220.5z" />
<glyph unicode="R" horiz-adv-x="697" d="M44 0v46l92 22v564l-92 22v46h283q54 0 99 -8.5t87.5 -29t67 -61t24.5 -97.5q0 -133 -138 -180l139 -257l88 -22v-45h-182l-165 309h-88v-241l92 -22v-46h-307zM259 369h58q73 0 117.5 36t44.5 101q0 64 -44 97.5t-118 33.5h-58v-268z" />
<glyph unicode="S" horiz-adv-x="589" d="M61 540q0 83 66 129t171 46q112 0 205 -23l-5 -192h-45l-50 144q-42 8 -85 8q-69 0 -108.5 -27t-39.5 -75q0 -41 35.5 -68.5t123.5 -64.5q47 -19 77.5 -35.5t65.5 -43.5t52.5 -65t17.5 -85q0 -100 -74 -154q-68 -49 -169 -49h-4q-28 0 -92.5 5t-139.5 27v197h46l51 -150 q42 -13 98 -13q78 0 126 27.5t48 86.5q0 45 -43 78t-126 69q-114 49 -158 95t-44 133z" />
<glyph unicode="T" horiz-adv-x="655" d="M30 488v212h595v-212h-47l-45 145l-144 8v-573l92 -22v-46h-307v46l92 22v573l-145 -8l-44 -145h-47z" />
<glyph unicode="U" horiz-adv-x="790" d="M22 654v46h307v-46l-92 -22v-370q0 -100 49.5 -150t133.5 -50q83 0 134 50.5t51 149.5v370l-93 22v46h256v-46l-92 -22v-370q0 -66 -20.5 -118t-57.5 -87t-88.5 -53.5t-112.5 -18.5q-62 0 -114 18t-89.5 53.5t-58.5 87t-21 118.5v370z" />
<glyph unicode="V" horiz-adv-x="702" d="M-7 654v46h303v-46l-82 -17l170 -480l160 475l-79 22v46h241v-46l-92 -22l-220 -639h-79l-233 639z" />
<glyph unicode="W" horiz-adv-x="1025" d="M-11 654v46h300v-46l-84 -18l143 -454l144 518h85l167 -516l118 448l-81 22v46h242v-46l-92 -22l-170 -639h-79l-174 522l-147 -522h-77l-208 640z" />
<glyph unicode="X" horiz-adv-x="732" d="M11 654v46h291v-46l-64 -15l151 -214l152 209l-69 20v46h241v-46l-92 -22l-192 -263l215 -304l82 -19v-46h-291v46l64 13l-159 227l-154 -220l70 -20v-46h-242v46l92 22l197 272l-203 291z" />
<glyph unicode="Y" horiz-adv-x="695" d="M-9 654v46h288v-46l-65 -13l165 -243l148 236l-74 20v46h245v-46l-92 -22l-194 -309v-255l92 -22v-46h-307v46l92 22v252l-217 314z" />
<glyph unicode="Z" horiz-adv-x="643" d="M51 0v62l391 579l-298 -8l-43 -143h-46v210h532v-62l-388 -576l298 5l49 149h46l-6 -216h-535z" />
<glyph unicode="[" horiz-adv-x="333" d="M86 -128v888h228v-55h-114v-778h114v-55h-228z" />
<glyph unicode="\" horiz-adv-x="444" d="M28 700l310 -700h77l-311 700h-76z" />
<glyph unicode="]" horiz-adv-x="333" d="M19 -73h114v778h-114v55h228v-888h-228v55z" />
<glyph unicode="^" horiz-adv-x="574" d="M51 267l210 448h50l211 -448h-75l-162 356l-160 -356h-74z" />
<glyph unicode="_" horiz-adv-x="755" d="M148 -78h459v-64h-459v64z" />
<glyph unicode="`" horiz-adv-x="221" d="M-44 716q35 43 94 53l101 -178l-42 -29z" />
<glyph unicode="a" horiz-adv-x="552" d="M35 124q0 173 307 173v35q0 87 -24.5 110.5t-76.5 23.5l-117 -100q-24 15 -40.5 42.5t-17.5 58.5q42 23 92 35.5t99 12.5q205 0 205 -172v-278h78v-33q-23 -22 -51 -34.5t-55 -12.5q-59 0 -87 51q-67 -51 -151 -51q-66 0 -113.5 35t-47.5 104zM161 128q0 -37 24.5 -55 t62.5 -18q55 0 94 34v157q-90 0 -135.5 -32.5t-45.5 -85.5z" />
<glyph unicode="b" d="M-11 719v43l160 38h44v-332q65 47 142 47q93 0 154 -64t61 -182q0 -130 -83.5 -207t-205.5 -77q-101 0 -187 51v683h-85zM193 48q28 -7 59 -7q77 0 125.5 57.5t48.5 166.5q0 87 -38 131t-98 44q-43 0 -97 -26v-366z" />
<glyph unicode="c" horiz-adv-x="490" d="M43 248q0 119 72.5 193t175.5 74q89 0 160 -42q-1 -34 -20 -62.5t-43 -41.5l-96 91h-6q-51 -9 -86 -64.5t-35 -145.5q0 -103 47.5 -151t125.5 -48q61 0 112 28l17 -49q-84 -45 -171 -45q-108 0 -180.5 69.5t-72.5 193.5z" />
<glyph unicode="d" horiz-adv-x="617" d="M43 232q0 135 83 209t201 74q42 0 73 -9v213h-85v43l160 38h45v-735h78v-33l-16 -13q-10 -8 -37.5 -21t-53.5 -13q-11 0 -21.5 2.5t-18.5 6.5t-15 9.5t-11.5 10.5t-9 11t-6.5 10t-5 9l-2 4q-60 -63 -148 -63q-87 0 -149 63.5t-62 183.5zM166 236q0 -86 38.5 -131 t91.5 -45q56 0 104 37v353q-31 10 -64 10q-76 0 -123 -57t-47 -167z" />
<glyph unicode="e" horiz-adv-x="536" d="M42 256q0 110 63 184.5t174 74.5q58 0 101.5 -21.5t69 -59.5t37.5 -85t12 -102h-338q7 -82 55 -139.5t131 -57.5q53 0 115 23l17 -47q-93 -41 -177 -41q-121 0 -190.5 79t-69.5 192zM161 296l214 16q-3 60 -28 104t-71 44q-50 0 -81.5 -47t-33.5 -117z" />
<glyph unicode="f" horiz-adv-x="416" d="M32 0v43l85 20v383h-84v47l84 6v75q0 241 194 241q42 0 86.5 -8.5t67.5 -16.5l23 -8q-1 -34 -18.5 -60t-42.5 -39l-98 77q-42 0 -67.5 -39.5t-25.5 -146.5v-67l152 11v-72h-152v-383l133 -20v-43h-337z" />
<glyph unicode="g" horiz-adv-x="610" d="M18 -152q0 86 103 136q-30 16 -52 42.5t-26 58.5l116 101q-48 22 -74.5 61t-26.5 87q0 72 65 122.5t165 50.5q89 0 152 -41l155 59q12 -24 12 -53q0 -24 -4 -41h-121q38 -44 38 -97q0 -74 -62.5 -123.5t-169.5 -49.5q-37 0 -70 6l-58 -68q15 -23 44.5 -32.5t98.5 -9.5h65 q91 0 143.5 -38t52.5 -114t-80.5 -134t-215.5 -58q-250 0 -250 135zM140 -135q0 -49 38 -73t100 -24q88 0 141 32t53 78q0 40 -30 58.5t-101 18.5h-163q-38 -45 -38 -90zM173 334q0 -54 29 -86.5t86 -32.5q55 0 86 32.5t31 86.5t-30 87.5t-87 33.5q-55 0 -85 -33.5 t-30 -87.5z" />
<glyph unicode="h" horiz-adv-x="652" d="M21 0v43l85 20v656h-85v43l160 38h45v-348q76 63 161 63q78 0 123 -44t45 -113v-295l85 -20v-43h-269v43l65 20v277q0 102 -87 102q-59 0 -123 -46v-333l65 -20v-43h-270z" />
<glyph unicode="i" horiz-adv-x="346" d="M36 0v43l85 20v356h-85v43l160 38h44v-437l85 -20v-43h-289zM109 652q0 31 21.5 52.5t52.5 21.5t52.5 -21t21.5 -53q0 -31 -21.5 -52.5t-52.5 -21.5t-52.5 21.5t-21.5 52.5z" />
<glyph unicode="j" horiz-adv-x="303" d="M-15 -260q121 85 121 260v419h-85v43l160 38h44v-500q0 -53 -17.5 -101t-47 -88t-67 -70t-76.5 -47zM94 652q0 31 21.5 52.5t52.5 21.5t52.5 -21t21.5 -53q0 -31 -21.5 -52.5t-52.5 -21.5t-52.5 21.5t-21.5 52.5z" />
<glyph unicode="k" horiz-adv-x="616" d="M21 0v43l85 20v656h-85v43l160 38h45v-737l65 -20v-43h-270zM243 241l183 199l-67 17v43h226v-43l-88 -20l-139 -152l165 -223l82 -19v-43h-186z" />
<glyph unicode="l" horiz-adv-x="332" d="M21 0v43l85 20v656h-85v43l160 38h45v-737l85 -20v-43h-290z" />
<glyph unicode="m" horiz-adv-x="986" d="M36 0v43l85 20v356h-85v43l160 38h44v-45q77 60 158 60q103 0 146 -76q88 76 179 76q77 0 121.5 -44t44.5 -113v-295l85 -20v-43h-269v43l65 20v282q0 47 -22.5 72t-63.5 25q-59 0 -123 -46q4 -24 4 -38v-295l65 -20v-43h-250v43l65 20v282q0 47 -22.5 72t-63.5 25 q-56 0 -119 -42v-337l65 -20v-43h-269z" />
<glyph unicode="n" horiz-adv-x="667" d="M36 0v43l85 20v356h-85v43l160 38h45v-48q76 63 161 63q78 0 123 -44t45 -113v-295l85 -20v-43h-269v43l65 20v277q0 102 -87 102q-59 0 -123 -46v-333l65 -20v-43h-270z" />
<glyph unicode="o" d="M42 251q0 115 72.5 189.5t182.5 74.5t182 -74.5t72 -189.5q0 -116 -72 -191t-182 -75t-182.5 75t-72.5 191zM168 251q0 -95 33.5 -153t95.5 -58t95.5 58.5t33.5 152.5q0 95 -33.5 152t-95.5 57t-95.5 -57t-33.5 -152z" />
<glyph unicode="p" horiz-adv-x="625" d="M21 -257l85 20v656h-85v43l160 38h45v-46q61 61 150 61q85 0 145.5 -63t60.5 -183q0 -135 -83 -209.5t-201 -74.5q-41 0 -72 8v-230l105 -20v-43h-310v43zM226 50q30 -10 63 -10q75 0 122 58t47 167q0 84 -36.5 126.5t-93.5 42.5q-56 0 -102 -35v-349z" />
<glyph unicode="q" d="M43 232q0 135 85 209t204 74q104 0 187 -51v-701l85 -20v-43h-310v43l105 20v279q-54 -57 -145 -57q-86 0 -148.5 63t-62.5 184zM166 236q0 -83 39 -126.5t97 -43.5q52 0 97 31v355q-32 8 -58 8q-80 0 -127.5 -57.5t-47.5 -166.5z" />
<glyph unicode="r" horiz-adv-x="452" d="M36 0v43l85 20v356h-85v43l160 38h44v-62q81 77 188 77q6 -19 6 -42q0 -37 -9 -66l-127 11q-30 -14 -58 -34v-321l105 -20v-43h-309z" />
<glyph unicode="s" horiz-adv-x="479" d="M49 8v143h46l38 -105q35 -6 78 -6q64 0 90.5 16.5t26.5 56.5q0 31 -29 51.5t-100 48.5q-67 28 -104 66.5t-37 97.5q0 67 56.5 102.5t147.5 35.5q79 0 143 -19v-136h-42l-33 94q-29 8 -68 8q-54 0 -75.5 -16.5t-21.5 -49.5q0 -19 14 -34t31.5 -24.5t56.5 -26.5 q91 -38 130.5 -76.5t39.5 -99.5q0 -73 -59 -111.5t-154 -38.5q-94 0 -175 23z" />
<glyph unicode="t" horiz-adv-x="375" d="M35 440v30l142 121h30v-97l144 6v-60h-144v-306q0 -89 71 -89q30 0 72 18l17 -46q-62 -32 -128 -32q-72 0 -111.5 34.5t-39.5 119.5v301h-53z" />
<glyph unicode="u" horiz-adv-x="647" d="M13 457v43h204v-345q0 -100 86 -100q68 0 128 51v331l-65 20v43h184v-435h78v-33q-24 -21 -53.5 -34t-58.5 -13q-23 0 -40.5 8.5t-26.5 21.5t-13 21.5t-5 14.5q-79 -66 -170 -66q-80 0 -121.5 43t-41.5 114v295z" />
<glyph unicode="v" horiz-adv-x="575" d="M2 457v43h266v-43l-71 -16l124 -293l116 290l-70 19v43h207v-43l-80 -22l-175 -442h-60l-190 445z" />
<glyph unicode="w" horiz-adv-x="821" d="M3 457v43h258v-43l-67 -17l98 -273l113 333h71l116 -328l91 265l-82 20v43h217v-43l-77 -20l-148 -444h-64l-121 340l-115 -340h-63l-164 446z" />
<glyph unicode="x" horiz-adv-x="628" d="M16 0v43l81 18l156 186l-148 191l-82 19v43h280v-43l-62 -12l98 -128l99 123l-69 17v43h221v-43l-82 -20l-136 -163l164 -212l84 -19v-43h-280v43l64 10l-117 150l-120 -144l65 -16v-43h-216z" />
<glyph unicode="y" horiz-adv-x="601" d="M1 457v43h273v-43l-77 -15l142 -317l120 312l-80 20v43h221v-43l-79 -21l-283 -735q-45 0 -67.5 13t-34.5 32l143 227l-210 465z" />
<glyph unicode="z" horiz-adv-x="510" d="M39 0v50l279 396h-181l-48 -101h-36l11 155h399v-49l-279 -396h187l52 111h39l-10 -166h-413z" />
<glyph unicode="{" horiz-adv-x="378" d="M11 293v47q56 3 87 26t31 79v172q0 69 36.5 106t107.5 37h86v-48h-30q-43 0 -62.5 -26t-19.5 -79v-166q0 -105 -111 -123v-1q111 -19 111 -124v-168q0 -105 82 -105h30v-48h-86q-69 0 -106.5 39t-37.5 105v171q0 58 -30.5 81t-87.5 25z" />
<glyph unicode="|" horiz-adv-x="235" d="M85 -240v1000h65v-1000h-65z" />
<glyph unicode="}" horiz-adv-x="377" d="M19 -80h30q44 0 63 26t19 79v168q0 105 111 124v1q-111 18 -111 123v166q0 53 -19 79t-63 26h-30v48h86q71 0 107.5 -37t36.5 -106v-172q0 -56 31 -79t87 -26v-47q-57 -2 -87.5 -25t-30.5 -81v-171q0 -64 -46.5 -104t-117.5 -40h-66v48z" />
<glyph unicode="~" horiz-adv-x="549" d="M49 282q18 162 130 162q27 0 57 -16t52 -34.5t48 -34.5t46 -16q48 0 61 101l63 -12q-20 -163 -129 -163q-33 0 -71 25l-72 51q-34 25 -59 25q-27 0 -42.5 -23.5t-20.5 -77.5z" />
<glyph unicode="&#xa1;" horiz-adv-x="267" d="M67 447q0 -28 20 -48t48 -20t47.5 20t19.5 48q0 27 -20 47.5t-47 20.5q-28 0 -48 -20.5t-20 -47.5zM72 -199h126l-20 492h-86z" />
<glyph unicode="&#xa2;" horiz-adv-x="512" d="M48 250q0 112 57 180.5t152 81.5v136h65v-134q78 -4 144 -41q0 -27 -17 -58.5t-41 -46.5l-86 91v-409q67 -1 133 18l12 -49q-73 -30 -145 -34v-125h-65v128q-93 14 -151 83t-58 179zM170 250q0 -138 87 -182v378q-87 -40 -87 -196z" />
<glyph unicode="&#xa3;" horiz-adv-x="559" d="M49 0v55q144 106 144 212q0 27 -14 66h-122v47l98 6q-4 8 -32 60q-5 9 -20.5 46t-15.5 72q0 78 58.5 114.5t145.5 36.5q117 0 212 -50q-2 -30 -18 -60.5t-40 -46.5l-116 108q-58 0 -86.5 -33.5t-28.5 -87.5q0 -12 2.5 -25.5t5 -23.5t9.5 -26.5t10 -23.5q22 -47 24 -51 l148 10l-11 -72h-115q9 -30 9 -59q0 -89 -106 -177h225l53 108h44l-28 -205h-435z" />
<glyph unicode="&#xa4;" horiz-adv-x="609" d="M64 546l54 54l67 -68q57 37 120 37q61 0 119 -38l68 68l53 -54l-67 -67q38 -60 38 -119q0 -62 -38 -120l67 -67l-53 -53l-67 66q-56 -37 -120 -37q-65 0 -120 37l-66 -67l-54 54l67 67q-38 56 -38 120q0 61 37 119zM173 359q0 -55 38.5 -93.5t93.5 -38.5q54 0 93 38.5 t39 93.5q0 54 -39 92.5t-93 38.5q-55 0 -93.5 -38.5t-38.5 -92.5z" />
<glyph unicode="&#xa5;" horiz-adv-x="770" d="M31 654v46h288v-46l-65 -13l165 -243l148 236l-74 20v46h245v-46l-92 -22l-163 -258l142 7l-10 -71h-163v-54l173 10l-10 -73h-163v-125l92 -22v-46h-307v46l92 22v125h-170v47l170 10v60h-170v46l140 8l-187 270z" />
<glyph unicode="&#xa6;" horiz-adv-x="241" d="M88 160h65v-400h-65v400zM88 360v400h65v-400h-65z" />
<glyph unicode="&#xa7;" horiz-adv-x="534" d="M62 359q0 75 81 118q-76 51 -76 135q0 68 57 107.5t143 39.5q92 0 167 -26v-157h-41l-41 122q-37 7 -64 7q-55 0 -87 -22t-32 -58q0 -41 29.5 -65.5t87.5 -47.5q35 -14 56 -23.5t50.5 -27.5t46.5 -36.5t29.5 -46t12.5 -59.5q0 -77 -68 -125q62 -50 62 -122 q0 -74 -62.5 -114.5t-157.5 -40.5q-96 0 -176 40v156h40l43 -127q38 -12 70 -12q133 0 133 91q0 36 -29.5 60.5t-94.5 50.5q-84 33 -131.5 75.5t-47.5 107.5zM147 372q0 -21 9.5 -37.5t31 -30t38.5 -21t49 -19.5q58 -22 88 -38q25 28 25 72q0 43 -33 70t-104 55 q-57 24 -59 25q-45 -28 -45 -76z" />
<glyph unicode="&#xa8;" horiz-adv-x="400" d="M32 667q0 27 19 46t47 19q27 0 46 -19t19 -46q0 -28 -19 -47t-46 -19q-29 0 -47 19q-19 18 -19 47zM232 667q0 27 19 46t47 19q27 0 46 -19t19 -46q0 -28 -19 -47t-46 -19q-29 0 -47 19q-19 18 -19 47z" />
<glyph unicode="&#xa9;" horiz-adv-x="831" d="M48 357q0 76 29 143t79 117t117 79t143 29q75 0 142 -29.5t117 -79.5t79 -117t29 -142t-29 -141.5t-78.5 -116.5t-116.5 -79.5t-143 -29.5t-143 29t-117 79t-79 116.5t-29 142.5zM108 357q0 -64 24 -120t66 -98t98 -66t120 -24q63 0 119 24.5t98 66.5t66.5 98t24.5 119 q0 64 -24.5 120.5t-66.5 98.5t-98 66t-119 24q-64 0 -120 -24t-98 -66t-66 -98.5t-24 -120.5zM218 357q0 106 54.5 162.5t163.5 56.5q64 0 113 -23v-111h-35l-26 84q-15 2 -26 3t-19 1q-142 0 -142 -173q0 -172 140 -172q12 0 21 0.5t16 1.5l45 91h33l-15 -111 q-56 -29 -115 -29q-102 0 -155 56.5t-53 162.5z" />
<glyph unicode="&#xaa;" horiz-adv-x="392" d="M42 479q0 105 188 105v21q0 41 -12.5 60t-46.5 19l-67 -67q-15 8 -28.5 29.5t-15.5 40.5q53 28 122 28q131 0 131 -104v-166h41v-22q-25 -29 -65 -29q-36 0 -56 32q-36 -32 -89 -32q-39 0 -70.5 21.5t-31.5 63.5zM128 481q0 -18 13 -30.5t36 -12.5q33 0 53 22v91 q-42 -1 -72 -17.5t-30 -52.5z" />
<glyph unicode="&#xab;" horiz-adv-x="477" d="M48 254v32l153 174h55l-91 -190l91 -190h-55zM244 256v28l118 157h49l-61 -171l61 -171h-49z" />
<glyph unicode="&#xac;" horiz-adv-x="557" d="M55 326v65h429v-268h-65v203h-364z" />
<glyph unicode="&#xad;" horiz-adv-x="402" d="M71 317v80h260v-80h-260z" />
<glyph unicode="&#xae;" horiz-adv-x="831" d="M48 357q0 76 29 143t79 117t117 79t143 29q75 0 142 -29.5t117 -79.5t79 -117t29 -142t-29 -141.5t-78.5 -116.5t-116.5 -79.5t-143 -29.5t-143 29t-117 79t-79 116.5t-29 142.5zM107 357q0 -63 24 -119t66 -98t98.5 -66.5t120.5 -24.5t120 24.5t97.5 66.5t65.5 98 t24 119t-24.5 119.5t-66 98.5t-97.5 66.5t-119 24.5q-64 0 -120 -24.5t-98 -66.5t-66.5 -98t-24.5 -120zM227 150v28l56 13v338l-56 13v28h170q167 0 167 -116q0 -45 -26 -74t-71 -38l93 -152l53 -13v-27h-113l-104 185h-40v-144l56 -13v-28h-185zM356 372h35q45 0 71 21.5 t26 60.5q0 38 -26 58t-71 20h-35v-160z" />
<glyph unicode="&#xaf;" horiz-adv-x="459" d="M0 636v64h459v-64h-459z" />
<glyph unicode="&#xb0;" horiz-adv-x="369" d="M38 609q0 60 42.5 103t103.5 43q60 0 103.5 -43.5t43.5 -102.5q0 -61 -43.5 -104t-103.5 -43q-61 0 -103.5 43t-42.5 104zM101 609q0 -34 24.5 -59t58.5 -25t59 25t25 59t-25 58.5t-59 24.5t-58.5 -24.5t-24.5 -58.5z" />
<glyph unicode="&#xb1;" horiz-adv-x="557" d="M54 0v67h449v-67h-449zM54 323v67h185v195h67v-195h197v-67h-197v-196h-67v196h-185z" />
<glyph unicode="&#xb2;" horiz-adv-x="384" d="M46 285v36q21 18 44 43t56.5 66.5t55 90.5t21.5 92q0 63 -57 63l-62 -77q-19 10 -33.5 33.5t-16.5 46.5q62 31 138 31q52 0 86.5 -23.5t34.5 -75.5q0 -115 -175 -257h139l30 61h30l-18 -130h-273z" />
<glyph unicode="&#xb3;" horiz-adv-x="384" d="M38 301l14 36q47 -18 98 -18q46 0 74.5 22.5t28.5 59.5q0 40 -33 62.5t-96 22.5v37q49 0 78 27t29 62q0 26 -19 44.5t-51 22.5l-59 -73q-16 11 -30.5 33t-15.5 42q49 29 121 29q71 0 107 -27t36 -70q0 -33 -25.5 -60t-71.5 -41q60 -9 90 -38.5t30 -72.5q0 -61 -49.5 -93 t-126.5 -32q-68 0 -129 25z" />
<glyph unicode="&#xb4;" horiz-adv-x="234" d="M18 588l104 182q58 -10 93 -53l-154 -158z" />
<glyph unicode="&#xb6;" horiz-adv-x="638" d="M36 582q0 178 225 178h326v-43l-85 -20v-809h-72v804h-89v-804h-72v498q-233 -3 -233 196z" />
<glyph unicode="&#xb7;" horiz-adv-x="258" d="M52 299q0 33 24 55t53 22t53 -22t24 -55q0 -34 -24 -55.5t-53 -21.5q-28 0 -52.5 21.5t-24.5 55.5z" />
<glyph unicode="&#xb8;" horiz-adv-x="343" d="M60 -173q38 -8 62 -8q29 0 45.5 14.5t16.5 39.5q0 53 -73 58l21 78h53l-11 -43q50 -2 77.5 -27t27.5 -65q0 -53 -37.5 -83.5t-104.5 -30.5q-24 0 -77 11v56z" />
<glyph unicode="&#xb9;" horiz-adv-x="308" d="M43 640l132 70h41v-383l52 -12v-30h-212v30l72 12v317l-76 -33z" />
<glyph unicode="&#xba;" horiz-adv-x="390" d="M40 556q0 34 10.5 63.5t30.5 50.5t49 33t65 12t65 -12t49 -33t30.5 -50.5t10.5 -63.5q0 -35 -10.5 -64.5t-30.5 -51.5t-49 -34t-65 -12t-65 12t-49 34t-30.5 51.5t-10.5 64.5zM126 556q0 -57 17.5 -92t51.5 -35t52 35t18 92t-18 91t-52 34t-51.5 -34t-17.5 -91z" />
<glyph unicode="&#xbb;" horiz-adv-x="477" d="M66 99l61 171l-61 171h49l118 -157v-28l-118 -157h-49zM221 80l91 190l-91 190h55l153 -174v-32l-153 -174h-55z" />
<glyph unicode="&#xbc;" horiz-adv-x="768" d="M43 640l132 70h41v-383l52 -12v-30h-212v30l72 12v317l-76 -33zM191 0l357 715h70l-356 -715h-71zM391 86v34l237 305h48v-292h49v-47h-49v-85h-80v85h-205zM462 133h133v170z" />
<glyph unicode="&#xbd;" horiz-adv-x="837" d="M43 640l132 70h41v-383l52 -12v-30h-212v30l72 12v317l-76 -33zM192 0l357 715h70l-356 -715h-71zM504 0v36q21 18 44 43t56.5 66.5t55 90.5t21.5 92q0 63 -57 63l-62 -77q-19 10 -33.5 33.5t-16.5 46.5q62 31 138 31q52 0 86.5 -23.5t34.5 -75.5q0 -115 -175 -257h139 l30 61h30l-18 -130h-273z" />
<glyph unicode="&#xbe;" horiz-adv-x="820" d="M40 301l14 36q47 -18 98 -18q46 0 74.5 22.5t28.5 59.5q0 40 -33 62.5t-96 22.5v37q49 0 78 27t29 62q0 26 -19 44.5t-51 22.5l-59 -73q-16 11 -30.5 33t-15.5 42q49 29 121 29q71 0 107 -27t36 -70q0 -33 -25.5 -60t-71.5 -41q60 -9 90 -38.5t30 -72.5q0 -61 -49.5 -93 t-126.5 -32q-68 0 -129 25zM243 0l357 715h70l-356 -715h-71zM442 86v34l237 305h48v-292h49v-47h-49v-85h-80v85h-205zM513 133h133v170z" />
<glyph unicode="&#xbf;" horiz-adv-x="481" d="M46 -44q0 39 13 73t44.5 68.5t56.5 56.5t75 61l15 93h51l15 -122q-67 -63 -105 -119.5t-38 -114.5q0 -55 30.5 -85t81.5 -30l118 93q42 -36 47 -97q-41 -22 -94 -35t-106 -13q-98 0 -151 45.5t-53 125.5zM209 447q0 27 20 47.5t47 20.5q28 0 48 -20.5t20 -47.5 q0 -28 -20 -48t-48 -20t-47.5 20t-19.5 48z" />
<glyph unicode="&#xc0;" horiz-adv-x="717" d="M-10 0v46l94 22l243 637h72l228 -638l92 -21v-46h-294v46l74 17l-48 135h-245l-52 -132l88 -20v-46h-252zM193 826q13 26 35.5 48t47.5 30l158 -137l-27 -32zM228 257h201l-98 273z" />
<glyph unicode="&#xc1;" horiz-adv-x="717" d="M-10 0v46l94 22l243 637h72l228 -638l92 -21v-46h-294v46l74 17l-48 135h-245l-52 -132l88 -20v-46h-252zM228 257h201l-98 273zM262 767l158 137q50 -17 83 -78l-214 -91z" />
<glyph unicode="&#xc2;" horiz-adv-x="717" d="M-10 0v46l94 22l243 637h72l228 -638l92 -21v-46h-294v46l74 17l-48 135h-245l-52 -132l88 -20v-46h-252zM183 758l135 146h84l130 -146l-50 -23l-122 92l-131 -93zM228 257h201l-98 273z" />
<glyph unicode="&#xc3;" horiz-adv-x="717" d="M-10 0v46l94 22l243 637h72l228 -638l92 -21v-46h-294v46l74 17l-48 135h-245l-52 -132l88 -20v-46h-252zM178 814q28 44 55.5 66t68.5 25q36 0 73.5 -28.5t63.5 -28.5q31 0 79 42l30 -29q-16 -35 -49 -64t-74 -29q-29 0 -65.5 28.5t-72.5 28.5q-26 0 -78 -42zM228 257 h201l-98 273z" />
<glyph unicode="&#xc4;" horiz-adv-x="717" d="M-10 0v46l94 22l243 637h72l228 -638l92 -21v-46h-294v46l74 17l-48 135h-245l-52 -132l88 -20v-46h-252zM188 823q0 28 19 46.5t46 18.5t46 -19t19 -46q0 -28 -19 -47t-46 -19t-46 19t-19 47zM228 257h201l-98 273zM402 823q0 27 19 46t47 19q27 0 46 -19t19 -46 q0 -28 -19 -47t-46 -19t-46.5 19t-19.5 47z" />
<glyph unicode="&#xc5;" horiz-adv-x="718" d="M-9 0v46l94 22l228 599q-13 7 -26 19q-32 32 -32 78t33 77.5t76 31.5t76 -31.5t33 -77.5t-33 -78q-13 -12 -27 -19l215 -600l92 -21v-46h-294v46l74 17l-48 135h-245l-52 -132l88 -20v-46h-252zM229 257h201l-98 273zM309 764q0 -23 16 -39t39 -16t39 16t16 39 q0 22 -16.5 38.5t-38.5 16.5t-38.5 -16.5t-16.5 -38.5z" />
<glyph unicode="&#xc6;" horiz-adv-x="1040" d="M-11 0v46l92 22l452 632h434v-205h-46l-43 138h-222v-250l221 20v-89l-221 19v-266h222l73 149h46l-30 -216h-526v46l92 22v169h-247l-121 -170l89 -21v-46h-265zM331 301h202v283z" />
<glyph unicode="&#xc7;" horiz-adv-x="671" d="M51 350q0 177 90.5 271t271.5 94q116 0 195 -35v-189h-46l-46 148q-39 9 -90 9q-249 0 -249 -298t229 -298q34 0 61 2t49 6l58 158h46l-7 -189q-14 -8 -40 -16t-56.5 -14t-63.5 -10q-24 -3 -44 -4l-10 -39q50 -2 77.5 -27t27.5 -65q0 -53 -37.5 -83.5t-104.5 -30.5 q-24 0 -77 11v56q38 -8 62 -8q29 0 45.5 14.5t16.5 39.5q0 53 -73 58l20 76q-141 9 -218 92q-87 94 -87 271z" />
<glyph unicode="&#xc8;" horiz-adv-x="641" d="M44 0v46l92 22v564l-92 22v46h521v-205h-47l-43 138l-216 8v-257l216 19v-89l-216 18v-273l235 8l51 149h47l-8 -216h-540zM164 826q13 26 35.5 48t47.5 30l158 -137l-27 -32z" />
<glyph unicode="&#xc9;" horiz-adv-x="641" d="M44 0v46l92 22v564l-92 22v46h521v-205h-47l-43 138l-216 8v-257l216 19v-89l-216 18v-273l235 8l51 149h47l-8 -216h-540zM262 767l158 137q50 -17 83 -78l-214 -91z" />
<glyph unicode="&#xca;" horiz-adv-x="641" d="M44 0v46l92 22v564l-92 22v46h521v-205h-47l-43 138l-216 8v-257l216 19v-89l-216 18v-273l235 8l51 149h47l-8 -216h-540zM163 767l135 146h84l130 -146l-50 -23l-122 92l-131 -93z" />
<glyph unicode="&#xcb;" horiz-adv-x="641" d="M44 0v46l92 22v564l-92 22v46h521v-205h-47l-43 138l-216 8v-257l216 19v-89l-216 18v-273l235 8l51 149h47l-8 -216h-540zM178 827q0 28 19 46.5t46 18.5t46 -19t19 -46q0 -28 -19 -47t-46 -19t-46 19t-19 47zM392 827q0 27 19 46t47 19q27 0 46 -19t19 -46 q0 -28 -19 -47t-46 -19t-46.5 19t-19.5 47z" />
<glyph unicode="&#xcc;" horiz-adv-x="395" d="M-1 826q13 26 35.5 48t47.5 30l158 -137l-27 -32zM44 0v46l93 22v564l-93 22v46h307v-46l-92 -22v-564l92 -22v-46h-307z" />
<glyph unicode="&#xcd;" horiz-adv-x="395" d="M44 0v46l93 22v564l-93 22v46h307v-46l-92 -22v-564l92 -22v-46h-307zM131 767l158 137q50 -17 83 -78l-214 -91z" />
<glyph unicode="&#xce;" horiz-adv-x="395" d="M23 767l135 146h84l130 -146l-50 -23l-122 92l-131 -93zM44 0v46l93 22v564l-93 22v46h307v-46l-92 -22v-564l92 -22v-46h-307z" />
<glyph unicode="&#xcf;" horiz-adv-x="395" d="M33 827q0 28 19 46.5t46 18.5t46 -19t19 -46q0 -28 -19 -47t-46 -19t-46 19t-19 47zM44 0v46l93 22v564l-93 22v46h307v-46l-92 -22v-564l92 -22v-46h-307zM247 827q0 27 19 46t47 19q27 0 46 -19t19 -46q0 -28 -19 -47t-46 -19t-46.5 19t-19.5 47z" />
<glyph unicode="&#xd0;" horiz-adv-x="749" d="M44 0v46l92 22v261h-92v46h92v257l-92 22v46h260q91 0 164.5 -22t124.5 -66t78.5 -109.5t27.5 -152.5t-27.5 -153t-78.5 -109.5t-124 -65.5t-165 -22h-260zM259 67h40q54 0 103.5 14.5t87.5 48t60.5 87.5t22.5 133t-22.5 133t-60.5 87.5t-87.5 48t-103.5 14.5h-40v-258 h153v-46h-153v-262z" />
<glyph unicode="&#xd1;" horiz-adv-x="822" d="M44 0v46l92 22v564l-92 22v46h162l417 -495v427l-92 22v46h257v-46l-92 -22v-632h-60l-430 507v-439l92 -22v-46h-254zM225 809q28 44 55.5 66t68.5 25q36 0 73.5 -28.5t63.5 -28.5q31 0 79 42l30 -29q-16 -35 -49 -64t-74 -29q-29 0 -65.5 28.5t-72.5 28.5 q-26 0 -78 -42z" />
<glyph unicode="&#xd2;" horiz-adv-x="771" d="M51 353q0 75 20 140.5t61 115t104.5 78t149.5 28.5q81 0 143 -27t105 -75t65 -115t22 -147q0 -81 -21.5 -148t-64 -115.5t-105 -75.5t-144.5 -27q-87 0 -150.5 29t-104.5 78.5t-60.5 116.5t-19.5 144zM179 350q0 -143 55.5 -224.5t151.5 -81.5t151.5 81.5t55.5 224.5 q0 135 -52.5 220.5t-154.5 85.5t-154.5 -85.5t-52.5 -220.5zM246 826q13 26 35.5 48t47.5 30l158 -137l-27 -32z" />
<glyph unicode="&#xd3;" horiz-adv-x="771" d="M51 353q0 75 20 140.5t61 115t104.5 78t149.5 28.5q81 0 143 -27t105 -75t65 -115t22 -147q0 -81 -21.5 -148t-64 -115.5t-105 -75.5t-144.5 -27q-87 0 -150.5 29t-104.5 78.5t-60.5 116.5t-19.5 144zM179 350q0 -143 55.5 -224.5t151.5 -81.5t151.5 81.5t55.5 224.5 q0 135 -52.5 220.5t-154.5 85.5t-154.5 -85.5t-52.5 -220.5zM314 767l158 137q50 -17 83 -78l-214 -91z" />
<glyph unicode="&#xd4;" horiz-adv-x="771" d="M51 353q0 75 20 140.5t61 115t104.5 78t149.5 28.5q81 0 143 -27t105 -75t65 -115t22 -147q0 -81 -21.5 -148t-64 -115.5t-105 -75.5t-144.5 -27q-87 0 -150.5 29t-104.5 78.5t-60.5 116.5t-19.5 144zM179 350q0 -143 55.5 -224.5t151.5 -81.5t151.5 81.5t55.5 224.5 q0 135 -52.5 220.5t-154.5 85.5t-154.5 -85.5t-52.5 -220.5zM211 767l135 146h84l130 -146l-50 -23l-122 92l-131 -93z" />
<glyph unicode="&#xd5;" horiz-adv-x="771" d="M51 353q0 75 20 140.5t61 115t104.5 78t149.5 28.5q81 0 143 -27t105 -75t65 -115t22 -147q0 -81 -21.5 -148t-64 -115.5t-105 -75.5t-144.5 -27q-87 0 -150.5 29t-104.5 78.5t-60.5 116.5t-19.5 144zM179 350q0 -143 55.5 -224.5t151.5 -81.5t151.5 81.5t55.5 224.5 q0 135 -52.5 220.5t-154.5 85.5t-154.5 -85.5t-52.5 -220.5zM201 823q28 44 55.5 66t68.5 25q36 0 73.5 -28.5t63.5 -28.5q31 0 79 42l30 -29q-16 -35 -49 -64t-74 -29q-29 0 -65.5 28.5t-72.5 28.5q-26 0 -78 -42z" />
<glyph unicode="&#xd6;" horiz-adv-x="771" d="M51 353q0 75 20 140.5t61 115t104.5 78t149.5 28.5q81 0 143 -27t105 -75t65 -115t22 -147q0 -81 -21.5 -148t-64 -115.5t-105 -75.5t-144.5 -27q-87 0 -150.5 29t-104.5 78.5t-60.5 116.5t-19.5 144zM179 350q0 -143 55.5 -224.5t151.5 -81.5t151.5 81.5t55.5 224.5 q0 135 -52.5 220.5t-154.5 85.5t-154.5 -85.5t-52.5 -220.5zM221 827q0 28 19 46.5t46 18.5t46 -19t19 -46q0 -28 -19 -47t-46 -19t-46 19t-19 47zM435 827q0 27 19 46t47 19q27 0 46 -19t19 -46q0 -28 -19 -47t-46 -19t-46.5 19t-19.5 47z" />
<glyph unicode="&#xd7;" horiz-adv-x="549" d="M59 190l168 167l-168 168l48 47l167 -167l169 168l47 -48l-168 -168l168 -168l-47 -47l-168 168l-168 -167z" />
<glyph unicode="&#xd8;" horiz-adv-x="771" d="M51 350q0 77 20 142t60 115.5t105.5 79t149.5 28.5q80 0 141 -26l27 50h64l-41 -76q71 -46 107.5 -128.5t36.5 -184.5q0 -160 -85 -262.5t-250 -102.5q-83 0 -150 28l-27 -53h-65l42 82q-67 47 -101 127.5t-34 180.5zM179 350q0 -138 54 -220l259 493q-46 33 -106 33 q-102 0 -154.5 -85.5t-52.5 -220.5zM273 83q45 -39 113 -39q102 0 154.5 85.5t52.5 220.5q0 144 -60 230z" />
<glyph unicode="&#xd9;" horiz-adv-x="790" d="M22 654v46h307v-46l-92 -22v-370q0 -100 49.5 -150t133.5 -50q83 0 134 50.5t51 149.5v370l-93 22v46h256v-46l-92 -22v-370q0 -66 -20.5 -118t-57.5 -87t-88.5 -53.5t-112.5 -18.5q-62 0 -114 18t-89.5 53.5t-58.5 87t-21 118.5v370zM218 826q13 26 35.5 48t47.5 30 l158 -137l-27 -32z" />
<glyph unicode="&#xda;" horiz-adv-x="790" d="M22 654v46h307v-46l-92 -22v-370q0 -100 49.5 -150t133.5 -50q83 0 134 50.5t51 149.5v370l-93 22v46h256v-46l-92 -22v-370q0 -66 -20.5 -118t-57.5 -87t-88.5 -53.5t-112.5 -18.5q-62 0 -114 18t-89.5 53.5t-58.5 87t-21 118.5v370zM346 767l158 137q50 -17 83 -78 l-214 -91z" />
<glyph unicode="&#xdb;" horiz-adv-x="790" d="M22 654v46h307v-46l-92 -22v-370q0 -100 49.5 -150t133.5 -50q83 0 134 50.5t51 149.5v370l-93 22v46h256v-46l-92 -22v-370q0 -66 -20.5 -118t-57.5 -87t-88.5 -53.5t-112.5 -18.5q-62 0 -114 18t-89.5 53.5t-58.5 87t-21 118.5v370zM247 767l135 146h84l130 -146 l-50 -23l-122 92l-131 -93z" />
<glyph unicode="&#xdc;" horiz-adv-x="790" d="M22 654v46h307v-46l-92 -22v-370q0 -100 49.5 -150t133.5 -50q83 0 134 50.5t51 149.5v370l-93 22v46h256v-46l-92 -22v-370q0 -66 -20.5 -118t-57.5 -87t-88.5 -53.5t-112.5 -18.5q-62 0 -114 18t-89.5 53.5t-58.5 87t-21 118.5v370zM252 827q0 28 19 46.5t46 18.5 t46 -19t19 -46q0 -28 -19 -47t-46 -19t-46 19t-19 47zM466 827q0 27 19 46t47 19q27 0 46 -19t19 -46q0 -28 -19 -47t-46 -19t-46.5 19t-19.5 47z" />
<glyph unicode="&#xdd;" horiz-adv-x="695" d="M-9 654v46h288v-46l-65 -13l165 -243l148 236l-74 20v46h245v-46l-92 -22l-194 -309v-255l92 -22v-46h-307v46l92 22v252l-217 314zM283 767l158 137q50 -17 83 -78l-214 -91z" />
<glyph unicode="&#xde;" horiz-adv-x="634" d="M44 0v46l92 22v564l-92 22v46h307v-46l-92 -22v-86h68q278 0 278 -196q0 -198 -278 -198h-68v-84l92 -22v-46h-307zM259 212h53q75 0 121 35t46 103q0 133 -167 133h-53v-271z" />
<glyph unicode="&#xdf;" horiz-adv-x="665" d="M21 0v43l85 20v475q0 101 57 161.5t168 60.5q115 0 174.5 -60.5t59.5 -161.5v-72h-96q-93 0 -93 -69q0 -30 25.5 -51.5t79.5 -43.5q75 -30 116 -69.5t41 -103.5q0 -68 -55.5 -106t-144.5 -38q-75 0 -150 23v143h46l42 -109q20 -2 27 -2q121 0 121 78q0 18 -7 32 t-27.5 26.5t-34.5 19.5t-50 22q-127 52 -127 159q0 65 46 103.5t122 38.5v24q0 162 -107 162q-51 0 -82.5 -40.5t-31.5 -126.5v-538h-204z" />
<glyph unicode="&#xe0;" horiz-adv-x="552" d="M35 124q0 173 307 173v35q0 87 -24.5 110.5t-76.5 23.5l-117 -100q-24 15 -40.5 42.5t-17.5 58.5q42 23 92 35.5t99 12.5q205 0 205 -172v-278h78v-33q-23 -22 -51 -34.5t-55 -12.5q-59 0 -87 51q-67 -51 -151 -51q-66 0 -113.5 35t-47.5 104zM104 716q35 43 94 53 l101 -178l-42 -29zM161 128q0 -37 24.5 -55t62.5 -18q55 0 94 34v157q-90 0 -135.5 -32.5t-45.5 -85.5z" />
<glyph unicode="&#xe1;" horiz-adv-x="552" d="M35 124q0 173 307 173v35q0 87 -24.5 110.5t-76.5 23.5l-117 -100q-24 15 -40.5 42.5t-17.5 58.5q42 23 92 35.5t99 12.5q205 0 205 -172v-278h78v-33q-23 -22 -51 -34.5t-55 -12.5q-59 0 -87 51q-67 -51 -151 -51q-66 0 -113.5 35t-47.5 104zM161 128q0 -37 24.5 -55 t62.5 -18q55 0 94 34v157q-90 0 -135.5 -32.5t-45.5 -85.5zM229 588l104 182q58 -10 93 -53l-154 -158z" />
<glyph unicode="&#xe2;" horiz-adv-x="552" d="M35 124q0 173 307 173v35q0 87 -24.5 110.5t-76.5 23.5l-117 -100q-24 15 -40.5 42.5t-17.5 58.5q42 23 92 35.5t99 12.5q205 0 205 -172v-278h78v-33q-23 -22 -51 -34.5t-55 -12.5q-59 0 -87 51q-67 -51 -151 -51q-66 0 -113.5 35t-47.5 104zM112 581l115 185h84 l117 -185l-46 -24l-113 127l-112 -127zM161 128q0 -37 24.5 -55t62.5 -18q55 0 94 34v157q-90 0 -135.5 -32.5t-45.5 -85.5z" />
<glyph unicode="&#xe3;" horiz-adv-x="552" d="M35 124q0 173 307 173v35q0 87 -24.5 110.5t-76.5 23.5l-117 -100q-24 15 -40.5 42.5t-17.5 58.5q42 23 92 35.5t99 12.5q205 0 205 -172v-278h78v-33q-23 -22 -51 -34.5t-55 -12.5q-59 0 -87 51q-67 -51 -151 -51q-66 0 -113.5 35t-47.5 104zM82 643q29 41 65 65.5 t69 24.5q40 0 71.5 -27t59.5 -27q42 0 89 40l31 -27q-27 -42 -62 -66t-71 -24q-40 0 -72.5 27t-59.5 27q-35 0 -89 -41zM161 128q0 -37 24.5 -55t62.5 -18q55 0 94 34v157q-90 0 -135.5 -32.5t-45.5 -85.5z" />
<glyph unicode="&#xe4;" horiz-adv-x="552" d="M35 124q0 173 307 173v35q0 87 -24.5 110.5t-76.5 23.5l-117 -100q-24 15 -40.5 42.5t-17.5 58.5q42 23 92 35.5t99 12.5q205 0 205 -172v-278h78v-33q-23 -22 -51 -34.5t-55 -12.5q-59 0 -87 51q-67 -51 -151 -51q-66 0 -113.5 35t-47.5 104zM109 667q0 27 19 46t47 19 q27 0 46 -19t19 -46q0 -28 -19 -47t-46 -19q-29 0 -47 19q-19 18 -19 47zM161 128q0 -37 24.5 -55t62.5 -18q55 0 94 34v157q-90 0 -135.5 -32.5t-45.5 -85.5zM309 667q0 27 19 46t47 19q27 0 46 -19t19 -46q0 -28 -19 -47t-46 -19q-29 0 -47 19q-19 18 -19 47z" />
<glyph unicode="&#xe5;" horiz-adv-x="552" d="M35 124q0 173 307 173v35q0 87 -24.5 110.5t-76.5 23.5l-117 -100q-24 15 -40.5 42.5t-17.5 58.5q42 23 92 35.5t99 12.5q205 0 205 -172v-278h78v-33q-23 -22 -51 -34.5t-55 -12.5q-59 0 -87 51q-67 -51 -151 -51q-66 0 -113.5 35t-47.5 104zM161 128q0 -37 24.5 -55 t62.5 -18q55 0 94 34v157q-90 0 -135.5 -32.5t-45.5 -85.5zM171 671q0 46 33 77.5t76 31.5t76 -31.5t33 -77.5t-33 -77.5t-76 -31.5q-44 0 -76.5 31.5t-32.5 77.5zM225 671q0 -23 16 -39t39 -16t39 16t16 39q0 22 -16.5 38.5t-38.5 16.5t-38.5 -16.5t-16.5 -38.5z" />
<glyph unicode="&#xe6;" horiz-adv-x="833" d="M34 124q0 173 305 173v35q0 69 -20.5 102.5t-84.5 33.5l-112 -102q-22 18 -37 46t-16 55q8 5 23 13t62.5 21.5t95.5 13.5q123 0 170 -66q64 66 161 66q112 0 163.5 -75t51.5 -193h-337q6 -84 54 -140.5t131 -56.5q53 0 115 23l15 -47q-93 -41 -175 -41q-58 0 -118 24 t-94 79l-8 -11q-5 -7 -23 -25t-39 -31.5t-55.5 -24.5t-72.5 -11q-63 0 -109 35t-46 104zM160 128q0 -34 19 -55t52 -21q65 0 104 58l4 6v130q-89 0 -134 -34t-45 -84zM459 293l214 14q-2 40 -9.5 71.5t-29 56t-54.5 25.5q-53 0 -84.5 -47.5t-36.5 -119.5z" />
<glyph unicode="&#xe7;" horiz-adv-x="490" d="M43 248q0 119 72.5 193t175.5 74q89 0 160 -42q-1 -34 -20 -62.5t-43 -41.5l-96 91h-6q-51 -9 -86 -64.5t-35 -145.5q0 -103 47.5 -151t125.5 -48q61 0 112 28l17 -49q-84 -45 -171 -45h-7l-5 -19q50 -2 77.5 -27t27.5 -65q0 -53 -37.5 -83.5t-104.5 -30.5q-24 0 -77 11 v56q38 -8 62 -8q29 0 45.5 14.5t16.5 39.5q0 53 -73 58l16 60q-70 14 -122 63q-72 70 -72 194z" />
<glyph unicode="&#xe8;" horiz-adv-x="536" d="M42 256q0 110 63 184.5t174 74.5q58 0 101.5 -21.5t69 -59.5t37.5 -85t12 -102h-338q7 -82 55 -139.5t131 -57.5q53 0 115 23l17 -47q-93 -41 -177 -41q-121 0 -190.5 79t-69.5 192zM133 716q35 43 94 53l101 -178l-42 -29zM161 296l214 16q-3 60 -28 104t-71 44 q-50 0 -81.5 -47t-33.5 -117z" />
<glyph unicode="&#xe9;" horiz-adv-x="536" d="M42 256q0 110 63 184.5t174 74.5q58 0 101.5 -21.5t69 -59.5t37.5 -85t12 -102h-338q7 -82 55 -139.5t131 -57.5q53 0 115 23l17 -47q-93 -41 -177 -41q-121 0 -190.5 79t-69.5 192zM161 296l214 16q-3 60 -28 104t-71 44q-50 0 -81.5 -47t-33.5 -117zM258 588l104 182 q58 -10 93 -53l-154 -158z" />
<glyph unicode="&#xea;" horiz-adv-x="536" d="M42 256q0 110 63 184.5t174 74.5q58 0 101.5 -21.5t69 -59.5t37.5 -85t12 -102h-338q7 -82 55 -139.5t131 -57.5q53 0 115 23l17 -47q-93 -41 -177 -41q-121 0 -190.5 79t-69.5 192zM122 581l115 185h84l117 -185l-46 -24l-113 127l-112 -127zM161 296l214 16 q-3 60 -28 104t-71 44q-50 0 -81.5 -47t-33.5 -117z" />
<glyph unicode="&#xeb;" horiz-adv-x="536" d="M42 256q0 110 63 184.5t174 74.5q58 0 101.5 -21.5t69 -59.5t37.5 -85t12 -102h-338q7 -82 55 -139.5t131 -57.5q53 0 115 23l17 -47q-93 -41 -177 -41q-121 0 -190.5 79t-69.5 192zM114 667q0 27 19 46t47 19q27 0 46 -19t19 -46q0 -28 -19 -47t-46 -19q-29 0 -47 19 q-19 18 -19 47zM161 296l214 16q-3 60 -28 104t-71 44q-50 0 -81.5 -47t-33.5 -117zM314 667q0 27 19 46t47 19q27 0 46 -19t19 -46q0 -28 -19 -47t-46 -19q-29 0 -47 19q-19 18 -19 47z" />
<glyph unicode="&#xec;" horiz-adv-x="347" d="M10 716q35 43 94 53l101 -178l-42 -29zM36 0v43l85 20v356h-85v43l160 38h45v-437l85 -20v-43h-290z" />
<glyph unicode="&#xed;" horiz-adv-x="347" d="M36 0v43l85 20v356h-85v43l160 38h45v-437l85 -20v-43h-290zM130 588l104 182q58 -10 93 -53l-154 -158z" />
<glyph unicode="&#xee;" horiz-adv-x="347" d="M10 581l115 185h84l117 -185l-46 -24l-113 127l-112 -127zM36 0v43l85 20v356h-85v43l160 38h45v-437l85 -20v-43h-290z" />
<glyph unicode="&#xef;" horiz-adv-x="347" d="M17 667q0 27 19 46t47 19q27 0 46 -19t19 -46q0 -28 -19 -47t-46 -19q-29 0 -47 19q-19 18 -19 47zM36 0v43l85 20v356h-85v43l160 38h45v-437l85 -20v-43h-290zM217 667q0 27 19 46t47 19q27 0 46 -19t19 -46q0 -28 -19 -47t-46 -19q-29 0 -47 19q-19 18 -19 47z" />
<glyph unicode="&#xf0;" horiz-adv-x="615" d="M45 240q0 102 60 170t161 68q86 0 146 -52q-15 111 -93 184l-142 -87v68l92 56q-54 34 -122 45v65q110 -11 197 -64l118 73v-69l-66 -40q152 -124 152 -347q0 -69 -13 -125.5t-42 -103t-81 -72t-124 -25.5q-124 0 -183.5 69.5t-59.5 186.5zM171 236q0 -53 11.5 -96 t39.5 -72t70 -29q128 0 128 235q0 20 -5 98q-49 36 -103 36q-63 0 -102 -42t-39 -130z" />
<glyph unicode="&#xf1;" horiz-adv-x="667" d="M36 0v43l85 20v356h-85v43l160 38h45v-48q76 63 161 63q78 0 123 -44t45 -113v-295l85 -20v-43h-269v43l65 20v277q0 102 -87 102q-59 0 -123 -46v-333l65 -20v-43h-270zM149 643q29 41 65 65.5t69 24.5q40 0 71.5 -27t59.5 -27q42 0 89 40l31 -27q-27 -42 -62 -66 t-71 -24q-40 0 -72.5 27t-59.5 27q-35 0 -89 -41z" />
<glyph unicode="&#xf2;" d="M42 251q0 115 72.5 189.5t182.5 74.5t182 -74.5t72 -189.5q0 -116 -72 -191t-182 -75t-182.5 75t-72.5 191zM155 716q35 43 94 53l101 -178l-42 -29zM168 251q0 -95 33.5 -153t95.5 -58t95.5 58.5t33.5 152.5q0 95 -33.5 152t-95.5 57t-95.5 -57t-33.5 -152z" />
<glyph unicode="&#xf3;" d="M42 251q0 115 72.5 189.5t182.5 74.5t182 -74.5t72 -189.5q0 -116 -72 -191t-182 -75t-182.5 75t-72.5 191zM168 251q0 -95 33.5 -153t95.5 -58t95.5 58.5t33.5 152.5q0 95 -33.5 152t-95.5 57t-95.5 -57t-33.5 -152zM271 588l104 182q58 -10 93 -53l-154 -158z" />
<glyph unicode="&#xf4;" d="M42 251q0 115 72.5 189.5t182.5 74.5t182 -74.5t72 -189.5q0 -116 -72 -191t-182 -75t-182.5 75t-72.5 191zM139 581l115 185h84l117 -185l-46 -24l-113 127l-112 -127zM168 251q0 -95 33.5 -153t95.5 -58t95.5 58.5t33.5 152.5q0 95 -33.5 152t-95.5 57t-95.5 -57 t-33.5 -152z" />
<glyph unicode="&#xf5;" d="M42 251q0 115 72.5 189.5t182.5 74.5t182 -74.5t72 -189.5q0 -116 -72 -191t-182 -75t-182.5 75t-72.5 191zM104 643q29 41 65 65.5t69 24.5q40 0 71.5 -27t59.5 -27q42 0 89 40l31 -27q-27 -42 -62 -66t-71 -24q-40 0 -72.5 27t-59.5 27q-35 0 -89 -41zM168 251 q0 -95 33.5 -153t95.5 -58t95.5 58.5t33.5 152.5q0 95 -33.5 152t-95.5 57t-95.5 -57t-33.5 -152z" />
<glyph unicode="&#xf6;" d="M42 251q0 115 72.5 189.5t182.5 74.5t182 -74.5t72 -189.5q0 -116 -72 -191t-182 -75t-182.5 75t-72.5 191zM131 667q0 27 19 46t47 19q27 0 46 -19t19 -46q0 -28 -19 -47t-46 -19q-29 0 -47 19q-19 18 -19 47zM168 251q0 -95 33.5 -153t95.5 -58t95.5 58.5t33.5 152.5 q0 95 -33.5 152t-95.5 57t-95.5 -57t-33.5 -152zM331 667q0 27 19 46t47 19q27 0 46 -19t19 -46q0 -28 -19 -47t-46 -19q-29 0 -47 19q-19 18 -19 47z" />
<glyph unicode="&#xf7;" horiz-adv-x="543" d="M47 323v67h450v-67h-450zM204 187q0 28 20 47.5t48 19.5t47.5 -19.5t19.5 -47.5q0 -27 -20 -47.5t-47 -20.5q-28 0 -48 20.5t-20 47.5zM204 526q0 28 20 47.5t48 19.5t47.5 -19.5t19.5 -47.5q0 -27 -20 -47.5t-47 -20.5q-28 0 -48 20.5t-20 47.5z" />
<glyph unicode="&#xf8;" d="M42 251q0 116 72.5 190t182.5 74q56 0 108 -22l41 76h56l-55 -100q104 -75 104 -218q0 -116 -72 -191t-182 -75q-55 0 -103 20l-42 -76h-57l55 100q-108 77 -108 222zM168 251q0 -86 27 -140l175 320q-31 29 -73 29q-62 0 -95.5 -57t-33.5 -152zM227 66q29 -26 70 -26 q62 0 95.5 58t33.5 153q0 79 -25 134z" />
<glyph unicode="&#xf9;" horiz-adv-x="647" d="M13 457v43h204v-345q0 -100 86 -100q68 0 128 51v331l-65 20v43h184v-435h78v-33q-24 -21 -53.5 -34t-58.5 -13q-23 0 -40.5 8.5t-26.5 21.5t-13 21.5t-5 14.5q-79 -66 -170 -66q-80 0 -121.5 43t-41.5 114v295zM176 716q35 43 94 53l101 -178l-42 -29z" />
<glyph unicode="&#xfa;" horiz-adv-x="647" d="M13 457v43h204v-345q0 -100 86 -100q68 0 128 51v331l-65 20v43h184v-435h78v-33q-24 -21 -53.5 -34t-58.5 -13q-23 0 -40.5 8.5t-26.5 21.5t-13 21.5t-5 14.5q-79 -66 -170 -66q-80 0 -121.5 43t-41.5 114v295zM267 588l104 182q58 -10 93 -53l-154 -158z" />
<glyph unicode="&#xfb;" horiz-adv-x="647" d="M13 457v43h204v-345q0 -100 86 -100q68 0 128 51v331l-65 20v43h184v-435h78v-33q-24 -21 -53.5 -34t-58.5 -13q-23 0 -40.5 8.5t-26.5 21.5t-13 21.5t-5 14.5q-79 -66 -170 -66q-80 0 -121.5 43t-41.5 114v295zM160 581l115 185h84l117 -185l-46 -24l-113 127l-112 -127 z" />
<glyph unicode="&#xfc;" horiz-adv-x="647" d="M13 457v43h204v-345q0 -100 86 -100q68 0 128 51v331l-65 20v43h184v-435h78v-33q-24 -21 -53.5 -34t-58.5 -13q-23 0 -40.5 8.5t-26.5 21.5t-13 21.5t-5 14.5q-79 -66 -170 -66q-80 0 -121.5 43t-41.5 114v295zM157 667q0 27 19 46t47 19q27 0 46 -19t19 -46 q0 -28 -19 -47t-46 -19q-29 0 -47 19q-19 18 -19 47zM357 667q0 27 19 46t47 19q27 0 46 -19t19 -46q0 -28 -19 -47t-46 -19q-29 0 -47 19q-19 18 -19 47z" />
<glyph unicode="&#xfd;" horiz-adv-x="601" d="M1 457v43h273v-43l-77 -15l142 -317l120 312l-80 20v43h221v-43l-79 -21l-283 -735q-45 0 -67.5 13t-34.5 32l143 227l-210 465zM259 588l104 182q58 -10 93 -53l-154 -158z" />
<glyph unicode="&#xfe;" horiz-adv-x="587" d="M-7 -232l85 20v931h-85v43l160 38h42v-326q60 41 132 41q93 0 155 -62.5t62 -184.5q0 -136 -80 -209.5t-199 -73.5q-39 0 -70 8v-205l105 -20v-43h-307v43zM195 48q27 -8 61 -8q75 0 118.5 57.5t43.5 166.5q0 84 -36 130t-98 46q-43 0 -89 -22v-370z" />
<glyph unicode="&#xff;" horiz-adv-x="601" d="M1 457v43h273v-43l-77 -15l142 -317l120 312l-80 20v43h221v-43l-79 -21l-283 -735q-45 0 -67.5 13t-34.5 32l143 227l-210 465zM154 667q0 27 19 46t47 19q27 0 46 -19t19 -46q0 -28 -19 -47t-46 -19q-29 0 -47 19q-19 18 -19 47zM354 667q0 27 19 46t47 19q27 0 46 -19 t19 -46q0 -28 -19 -47t-46 -19q-29 0 -47 19q-19 18 -19 47z" />
<glyph unicode="&#x152;" horiz-adv-x="1093" d="M51 350q0 77 20 142t60 115.5t105.5 79t149.5 28.5q130 0 210 -109v94h424v-205h-46l-42 138h-225v-250l223 20v-89l-223 19v-266h224l73 149h46l-30 -216h-424v93q-79 -108 -210 -108q-112 0 -189 50t-111.5 130.5t-34.5 184.5zM179 350q0 -65 13.5 -121t39.5 -97 t65 -64.5t89 -23.5t90 23.5t68.5 64.5t43.5 95.5t15 117.5q0 68 -14.5 125t-42 98.5t-68 64.5t-92.5 23q-51 0 -89.5 -23t-65 -64t-39.5 -97t-13 -122z" />
<glyph unicode="&#x153;" horiz-adv-x="923" d="M42 250q0 58 19 106.5t52.5 84t79.5 55t101 19.5q122 0 194 -95q65 95 184 95q59 0 100 -22t66 -58.5t36 -85t11 -102.5h-332q4 -42 16.5 -78t35 -62.5t55 -41.5t75.5 -15q52 0 115 23l15 -47q-94 -41 -175 -41q-130 0 -199 99q-71 -99 -197 -99q-55 0 -101 19.5 t-79.5 55t-52.5 84t-19 106.5zM167 250q0 -97 32 -153.5t95 -56.5q31 0 55 15t40 42.5t24 66.5t8 86q0 97 -32 153.5t-95 56.5t-95 -56.5t-32 -153.5zM553 295l212 17q-1 28 -7 54.5t-17.5 47t-29 33t-39.5 13.5q-52 0 -82.5 -46.5t-36.5 -118.5z" />
<glyph unicode="&#x2c6;" horiz-adv-x="351" d="M18 581l115 185h84l117 -185l-46 -24l-113 127l-112 -127z" />
<glyph unicode="&#x2dc;" horiz-adv-x="416" d="M11 643q29 41 65 65.5t69 24.5q40 0 71.5 -27t59.5 -27q42 0 89 40l31 -27q-27 -42 -62 -66t-71 -24q-40 0 -72.5 27t-59.5 27q-35 0 -89 -41z" />
<glyph unicode="&#x2000;" horiz-adv-x="457" />
<glyph unicode="&#x2001;" horiz-adv-x="914" />
<glyph unicode="&#x2002;" horiz-adv-x="457" />
<glyph unicode="&#x2003;" horiz-adv-x="914" />
<glyph unicode="&#x2004;" horiz-adv-x="304" />
<glyph unicode="&#x2005;" horiz-adv-x="228" />
<glyph unicode="&#x2006;" horiz-adv-x="152" />
<glyph unicode="&#x2007;" horiz-adv-x="152" />
<glyph unicode="&#x2008;" horiz-adv-x="114" />
<glyph unicode="&#x2009;" horiz-adv-x="182" />
<glyph unicode="&#x200a;" horiz-adv-x="50" />
<glyph unicode="&#x2010;" horiz-adv-x="343" d="M62 235v77h219v-77h-219z" />
<glyph unicode="&#x2011;" horiz-adv-x="343" d="M62 235v77h219v-77h-219z" />
<glyph unicode="&#x2012;" horiz-adv-x="343" d="M62 235v77h219v-77h-219z" />
<glyph unicode="&#x2013;" horiz-adv-x="656" d="M72 241v64h510v-64h-510z" />
<glyph unicode="&#x2014;" horiz-adv-x="1156" d="M72 241v64h1010v-64h-1010z" />
<glyph unicode="&#x2018;" horiz-adv-x="238" d="M41 527q0 50 45 116t90 99l37 -33q-60 -63 -90 -138l66 -51q0 -33 -22.5 -54.5t-50.5 -21.5q-35 0 -55 21t-20 62z" />
<glyph unicode="&#x2019;" horiz-adv-x="240" d="M38 456q60 63 90 138l-66 51q0 33 22.5 54.5t50.5 21.5q35 0 55 -21t20 -62q0 -50 -45 -116t-90 -99z" />
<glyph unicode="&#x201a;" horiz-adv-x="238" d="M19 -140q60 63 90 138l-66 51q0 33 22.5 54.5t50.5 21.5q35 0 55 -21t20 -62q0 -50 -45 -116t-90 -99z" />
<glyph unicode="&#x201c;" horiz-adv-x="417" d="M41 529q0 50 45 116t90 99l37 -33q-60 -63 -90 -138l66 -51q0 -33 -22.5 -54.5t-50.5 -21.5q-35 0 -55 21t-20 62zM221 529q0 50 45 116t90 99l37 -33q-60 -63 -90 -138l66 -51q0 -33 -22.5 -54.5t-50.5 -21.5q-35 0 -55 21t-20 62z" />
<glyph unicode="&#x201d;" horiz-adv-x="421" d="M38 456q60 63 90 138l-66 51q0 33 22.5 54.5t50.5 21.5q35 0 55 -21t20 -62q0 -50 -45 -116t-90 -99zM219 456q60 63 90 138l-66 51q0 33 22.5 54.5t50.5 21.5q35 0 55 -21t20 -62q0 -50 -45 -116t-90 -99z" />
<glyph unicode="&#x201e;" horiz-adv-x="419" d="M19 -140q60 63 90 138l-66 51q0 33 22.5 54.5t50.5 21.5q35 0 55 -21t20 -62q0 -50 -45 -116t-90 -99zM199 -140q60 63 90 138l-66 51q0 33 22.5 54.5t50.5 21.5q35 0 55 -21t20 -62q0 -50 -45 -116t-90 -99z" />
<glyph unicode="&#x2022;" horiz-adv-x="442" d="M71 357q0 66 46.5 108t103.5 42t103.5 -43t46.5 -107t-46.5 -107t-103.5 -43q-55 0 -102.5 42t-47.5 108z" />
<glyph unicode="&#x202f;" horiz-adv-x="182" />
<glyph unicode="&#x2039;" horiz-adv-x="304" d="M46 254v32l163 184l45 -20l-91 -180l91 -180l-45 -20z" />
<glyph unicode="&#x203a;" horiz-adv-x="304" d="M50 90l91 180l-91 180l45 20l163 -184v-32l-163 -184z" />
<glyph unicode="&#x205f;" horiz-adv-x="228" />
<glyph unicode="&#x20ac;" horiz-adv-x="687" d="M47 240v48l59 3q-3 29 -3 59q0 22 1 32h-57v47l61 4q39 282 328 282q100 0 184 -39v-185h-45l-46 149q-42 8 -83 8q-180 0 -211 -209l268 16l-25 -73h-248q-1 -10 -1 -32q0 -36 2 -52l224 14l-25 -72h-192q34 -188 191 -188q45 0 80 8l77 158h46l-26 -184 q-85 -49 -182 -49q-130 0 -208.5 66.5t-102.5 188.5h-66z" />
<glyph unicode="&#x25fc;" horiz-adv-x="500" d="M0 0v500h500v-500h-500z" />
</font>
</defs>
</svg>
