<?xml version="1.0" standalone="no"?>
<!DOCTYPE svg PUBLIC "-//W3C//DTD SVG 1.1//EN" "http://www.w3.org/Graphics/SVG/1.1/DTD/svg11.dtd" >
<svg xmlns="http://www.w3.org/2000/svg">
<metadata></metadata>
<defs>
<font id="zero__zero_isregular" horiz-adv-x="1139" >
<font-face units-per-em="2048" ascent="1638" descent="-410" />
<missing-glyph horiz-adv-x="569" />
<glyph horiz-adv-x="2048" />
<glyph horiz-adv-x="2048" />
<glyph unicode="&#xd;" horiz-adv-x="569" />
<glyph unicode=" "  horiz-adv-x="569" />
<glyph unicode="&#x09;" horiz-adv-x="569" />
<glyph unicode="&#xa0;" horiz-adv-x="569" />
<glyph unicode="!" horiz-adv-x="557" d="M617 1607h20l10 -47v-9h-10l-20 19v37zM307 1579q130 0 130 -84v-19l10 -581l10 -9v-9l-10 -38v-206l-10 -56l10 -47v-28q-71 -57 -80 -140l-220 -28l-10 9l20 159l-30 169l20 37q-60 555 -110 824zM-83 1523v-10q0 -15 -70 -28l10 -9v-66l-20 -18q-23 65 -40 65 q0 50 120 66zM417 175l20 -38l10 -355q-57 -19 -250 -19l-20 28v356l20 18h50zM557 -330v-29h-60v19z" />
<glyph unicode="&#x22;" horiz-adv-x="727" />
<glyph unicode="#" />
<glyph unicode="$" />
<glyph unicode="%" horiz-adv-x="1821" />
<glyph unicode="&#x26;" horiz-adv-x="953" d="M481 1506h20q60 0 60 -40l-10 -130l30 -260l-10 -10h-10q-57 50 -100 50h-50q-82 0 -110 -110v-40q0 -130 140 -130l170 10q280 -106 280 -330v-10l-10 -90q40 -47 40 -190v-50q0 -411 -70 -470h-60q-70 0 -70 120l-10 10q0 20 -30 20q-140 -70 -270 -70q-238 0 -390 190 l30 690l70 60q-31 0 -60 50l20 560q146 170 400 170zM541 696l-10 -150v-10l-10 -10v-10l-100 10q-140 0 -140 -150v-60q18 -150 140 -150q162 0 190 210l-60 320h-10z" />
<glyph unicode="'" horiz-adv-x="352" d="M283 1579l23 -10v-20l16 -190v-10l-86 -270h-16q-156 0 -156 90l-31 360l23 40h117zM327 1069h46l16 -20l-8 -10h-39l-15 20v10z" />
<glyph unicode="(" horiz-adv-x="682" />
<glyph unicode=")" horiz-adv-x="682" />
<glyph unicode="*" horiz-adv-x="797" />
<glyph unicode="+" horiz-adv-x="1196" />
<glyph unicode="," horiz-adv-x="569" />
<glyph unicode="-" horiz-adv-x="682" />
<glyph unicode="." horiz-adv-x="476" d="M94 -227l-19 39l24 355q66 14 280 -3l20 -30l-35 -354l-25 -17l-55 5z" />
<glyph unicode="/" horiz-adv-x="569" />
<glyph unicode="0" horiz-adv-x="1097" d="M-14 1669l390 -30v-20h-160q-30 -60 -90 -60q-74 0 -100 -20l10 -10v-10q-37 0 -60 -190h-20v140l10 10l-10 10v10l10 30l-10 50v30q7 60 30 60zM816 1609h310l50 -50l-10 -10v-10l10 -10v-10q-38 -180 -60 -180h-10l-10 100h10l-10 30l10 30l-10 10h-10v-40h-10 q-60 120 -260 120v20zM556 1509q309 0 440 -490q33 0 60 -220q-30 -6 -30 -70l10 -350l-10 -110l10 -50q-178 -429 -460 -429h-40q-490 101 -490 979q0 285 80 360q54 213 250 330q99 50 180 50zM56 1489h10v-40h-30v20zM1276 1159q40 -10 40 -40q-91 -157 -160 -210h-10 q-50 40 -50 90q146 160 180 160zM376 959l10 -80l-10 -110l30 -240v-140q60 -160 150 -160q130 0 160 180v70l-40 130l40 40v150q0 163 -100 310l-60 20h-30q-82 0 -150 -170zM1166 239l10 -10v-80l-10 -10l10 -10v-90l10 -59l-20 -50l10 -10v-10l-10 -10l10 -30h10 q20 109 20 339v30h20l-10 -50l10 -50h-10l30 -219h-10l10 -10v-40q-90 -70 -90 -150l10 -10v-10q-10 -90 -70 -90q0 -30 -20 -30h-40q-50 50 -170 50l-10 -10h-10q-216 40 -450 40h-290l-30 -30q-150 23 -150 50v10q27 0 60 399h20v-80l10 -89l-10 -50l10 -10h10l10 10v159 h30q0 -27 30 -59l-10 -100q50 -7 50 -30l-20 -20h-60l-30 20l-20 -60h40l70 -20v-20h-60l-20 -20q30 0 30 -20l70 10l540 -30l30 10l180 -10h100v10l-40 60q110 24 110 60l-10 30q80 28 80 50l20 20l-10 40l20 269l-10 10l10 10h10z" />
<glyph unicode="1" horiz-adv-x="698" d="M45 1736l300 -10h310l30 -32v-41l-20 -21l-20 42h-40v-21h-20q-20 0 -20 31l-50 -10v20l-250 -10q0 -24 -120 -42l-90 -94l-20 84h-20l10 -11v-31h-30q0 21 -30 21l-30 52zM845 1579q130 0 130 -31l-80 -21l10 -11v-10l-10 -11h-20v32h-90l-70 -11q0 21 -30 21v32z M325 1527h240l30 -21l-10 -105v-63l-10 -324l20 -377v-74l10 -115q-20 -41 -20 -115v-544l-20 -21h-10l-70 10l-90 -10h-100l-10 10h-10l-20 984l-10 11h-130q-40 0 -50 377q230 84 230 356z" />
<glyph unicode="2" horiz-adv-x="1087" d="M1007 1578l10 -10v-52l-20 -20q-13 51 -140 51h-10v21h60zM557 1527q292 0 400 -309l60 -196l-10 -72q0 -45 50 -93q-19 -146 -90 -248q-45 -155 -160 -247q-229 -80 -270 -165v-20q104 -145 130 -145l280 21q18 -9 40 -237l-700 -41l-30 -10l-190 10l-10 10l-10 -10h-30 v21q50 0 50 51l10 93l-50 113v10q120 87 120 155q23 116 390 443q150 123 150 227l-10 196h10l130 10v21q-190 151 -190 226q-24 41 -80 41l-40 42h-40v-21l50 -10l-10 -72v-11l40 -51l-10 -31l80 -52q0 -17 -140 -41q-75 -134 -100 -134l-280 -41h-30v21q130 546 490 546z M1087 1341v-75l-56 50l28 25h28zM217 671q-100 -58 -100 -103l-60 -62h-20l-70 52q201 113 250 113zM67 321v-10l-100 -93h-10v31q49 72 110 72z" />
<glyph unicode="3" horiz-adv-x="975" d="M78 1563l70 -10v-10l-20 -20h-120l-90 -70v-10l10 -10l-20 -50l10 -40l-10 -10h-10l-10 10v10l-10 200l10 10h190zM488 1513h40q248 0 360 -240l60 -190q0 -52 -50 -80l10 -70l-30 -310q70 -176 70 -390l-60 -90q-139 -349 -440 -349q-273 0 -420 299v40l260 260 q20 0 20 -60q47 -150 130 -150h30q105 0 150 170v10q0 149 -200 170l-40 260q0 90 200 130q60 66 60 110q0 130 -130 130q-89 0 -160 -110h-150q-180 0 -180 30q162 430 470 430zM-82 1313l10 -10v-10l-10 -10h-10l-10 10v10l10 10h10zM-232 813h20v-60h-20v60zM-122 -66 l10 -10v-20h-10l-20 20l10 10h10zM-142 -126h20l40 -60v-20h-10q-50 25 -50 80zM-92 -226h20l10 -30l-10 -10h-10zM1018 -236l10 -10v-70l-10 -10l10 -10v-20l-40 -40h-30l-10 10h-10q0 -30 -20 -30h-10v20q-44 0 -60 40v10l50 10h100l-20 20q16 80 40 80z" />
<glyph unicode="4" horiz-adv-x="1064" d="M6 1593l120 -20v-20h-20q-110 0 -110 30zM-174 1553h90q130 0 130 -60l-10 -30h120v-10l-20 -20h-90l-10 -50v-70q0 -30 -60 -30v-10l60 -10v-30h-90l-20 20v10l10 10l-10 10v100l-10 60l10 30q-7 60 -100 60v20zM756 1553q20 0 20 -30l-10 -40l10 -10v-10 q-37 -163 -110 -250q0 -108 -270 -540v-30h200v310l20 20h310l30 -20l-20 -310l10 -10l50 10l30 -20l-10 -200v-180q0 -20 -100 -40v-20l-10 -190l10 -60l-10 -30l10 -30l-10 -10v-10l10 -40q-38 -40 -130 -40h-220l-10 10h-10l30 340q-10 100 -30 100l-460 10h-40l-10 10 h-10l10 300v70q0 25 170 270q130 265 200 670h350zM1096 1493l40 -20l-10 -100v-110l-10 -40l10 -30l-10 -10v-10l10 -10l-10 -70h-20q0 110 -70 110l-10 10v20h70q0 20 -40 20v20q40 0 40 20q-87 140 -190 140l-10 10v20zM986 1003h20l20 -20v-10h-10l-30 10v20zM1156 -87 v-10l-20 -20h-20q0 15 40 30z" />
<glyph unicode="5" horiz-adv-x="919" d="M1018 1670h10v-50l-20 20zM978 1550q60 -10 60 -30l-20 -20l-40 30v20zM658 1540l130 -110l-10 -100l10 -140l-30 -20l-200 10l-50 -90h-10l-10 10q-130 0 -130 -40l-10 -60l20 -50l180 10q175 0 300 -290q27 0 40 -380q-87 -500 -480 -500h-20q-241 0 -400 320h-20v10 q0 18 280 300h10l60 -170q54 -70 120 -70q129 0 150 230v20q-52 200 -150 200q0 -50 -330 -60h-20l-30 30v270l-10 40l10 40v130l10 30l-10 50v340l30 30h20l360 -10zM808 1040l60 -10v-50h-20q0 30 -40 30v30zM938 -180l10 -130l-40 -20l-10 10h-10l-40 -10l-130 10v20h10 q190 0 190 120h20zM-212 -320h20v-10l70 10h120l60 -10l50 10h40l40 -10l40 10h30v-20l-460 -30q-40 15 -40 30q0 20 30 20z" />
<glyph unicode="6" horiz-adv-x="1092" d="M1037 1680l10 -10v-10l-20 -20h-478v20l99 10h20zM-69 1660h259l40 -10l10 10l119 -10h120v-21h-259l-40 -10l-10 10l-140 -20l-69 10l-20 -40l10 -10v-10l-10 -41l10 -91l-10 -50h-20q0 169 -40 212zM499 1518h80q315 0 408 -354q20 -45 20 -131v-21l-10 -10v-10 l-219 10h-60q-33 0 -40 142q-39 50 -159 50h-10q-150 0 -150 -202q0 -155 220 -192q438 -126 438 -273q24 0 40 -162v-101q0 -347 -379 -465l-159 -20q-260 0 -299 141q-190 568 -190 728v71l40 223v131l-10 41q0 285 339 394zM349 375v-61q0 -160 190 -182q189 30 189 182 v11q0 212 -159 212h-30q-134 0 -180 -121zM-139 355h30l20 -20l-10 -10h-10l-30 10v20zM1007 -211h50v-30h-50v30zM1097 -211l20 -20l-10 -10h-10l-20 20l10 10h10zM-119 -252l10 -10v-10l-10 -10h-10l-10 10v10l10 10h10zM-89 -292l10 -10v-10l-20 -21l-10 11v10z" />
<glyph unicode="7" horiz-adv-x="869" d="M798 1702v-10l10 10h10q120 -23 120 -50l-20 -20h-50q-32 40 -80 40l-10 10v10l10 10h10zM798 1542l20 -20l-10 -220v-50l10 -50l10 10h20v-10q0 -49 -190 -460q-160 -353 -160 -680l-150 -220v-10h120l20 -20v-10l-20 -20h-240l-200 -10l-20 60v90q276 755 460 1050 q23 80 100 170v20h-100l-60 -10l-10 10l-340 -20l-20 80v30l-10 270l10 10l260 -10zM28 762q50 0 90 -50v-20h-70l-40 40v10z" />
<glyph unicode="8" horiz-adv-x="1060" d="M226 1685l50 -10h60v-20h-120v10l10 10v10zM1006 1685h130l20 -20v-70l-30 -30q-60 10 -60 30l10 10v10l10 -10h20v10l-20 20l-10 -10h-10q-53 30 -210 30v20zM546 1545q336 0 450 -320l30 -210q-46 -161 -110 -260q100 -196 100 -400v-20q0 -415 -300 -530l-120 -30h-40 l-160 20h-40q-20 0 -20 -30h-30q-190 372 -190 720q-33 0 -70 -30h-20q-82 0 -120 160l10 10l140 -20v10q1 16 140 90l30 80q-190 169 -190 350q0 215 180 360q15 -40 30 -40q119 90 300 90zM316 1075q27 -170 150 -170q210 25 210 100l10 50v30q0 150 -190 150h-20 q-160 -25 -160 -160zM26 865l10 -10v-10l-60 -40q0 -20 30 -20v-20l-70 10h-70v10q0 36 150 70zM66 595v-30q10 -30 60 -30v60l-20 20zM376 415q29 -260 170 -260q160 24 160 240v10q0 145 -130 190l-60 10q-140 -37 -140 -190zM156 -315h40v-20h-40v20zM1016 -385l10 -10 v-10l-20 -20l-10 10v10z" />
<glyph unicode="9" d="M38 1524l10 -10v-20l-50 -10v30zM1108 1484q70 -14 70 -40l-10 -30h-20q0 33 -60 40v10zM488 1464h120q333 0 460 -360l20 -180l-50 -360l10 -80l-20 -100v-140q0 -20 -50 -20q-97 -380 -250 -380h-10q-149 96 -240 130l-10 -10l30 -160l-10 -10h-40q-225 0 -350 320 l-40 180l300 50q61 -210 180 -210q102 0 150 150q0 80 -150 80q-278 0 -360 170q-140 226 -140 390q0 187 110 370q151 170 340 170zM1018 1404h30l20 -20l-10 -10h-20l-20 20v10zM378 944q22 -3 60 -180q48 -40 140 -50q150 28 150 150q20 45 20 130q-52 120 -190 120 q-180 -27 -180 -170zM-2 644l10 -10v-20l-20 -20h-10v30zM-22 564h30v-10l-20 -20l-10 10v20zM1138 474h10l50 -40l-10 -170v-90l-10 -50h-20v150l-10 10l10 10v120l10 10v10l-30 30v10zM1178 104v-10l-10 -30l10 -60l-10 -10l10 -10l-10 -220v-80l-20 -20h-10l-100 30v20 l100 -20l-10 10l20 390l10 10h20zM-52 -176q70 -10 70 -30l-10 -10h-50l-20 20l10 10v10z" />
<glyph unicode=":" horiz-adv-x="569" />
<glyph unicode=";" horiz-adv-x="569" />
<glyph unicode="&#x3c;" horiz-adv-x="1196" />
<glyph unicode="=" horiz-adv-x="1196" />
<glyph unicode="&#x3e;" horiz-adv-x="1196" />
<glyph unicode="?" horiz-adv-x="1001" d="M-166 1661h19l10 -48v-9h-10l-19 19v38zM1008 1651h9l29 -28v-39l-19 -19l-38 39v28zM449 1642q38 -15 38 -29l-19 -19h-28l-19 19zM-61 1632l9 -9l28 9l66 -9v-19l-47 -10h-66l-19 19zM440 1536h57q287 0 416 -392q38 0 57 -58v-19h-10l10 -67v-10q0 -201 -171 -412 q0 -51 -113 -86q-29 -62 -29 -125v-38q0 -29 -302 -115q-29 36 -38 220q0 248 198 393q114 45 114 96l-9 48l9 48q-43 153 -142 153q-101 0 -151 -134l9 -9q-9 -106 -28 -106l-256 -19h-9q-19 0 -29 77q0 217 171 440q142 115 246 115zM1036 1469l19 -76l-28 -29l-29 29v38z M260 224l57 -10v-19l-48 -10l-9 10v29zM90 -226l18 -20q-18 0 -18 -48l-48 10v10zM250 -226l10 -10v-10l-10 -9h-9l-9 9v10l9 10h9zM426 -239l-25 32l-34 310q62 19 274 29l23 -24l24 -310l-21 -17l-55 -3z" />
<glyph unicode="@" horiz-adv-x="2079" />
<glyph unicode="A" horiz-adv-x="1120" d="M-153 1638l20 -20l-10 -10h-40l-20 20l10 10h40zM27 1618l200 -40v-10l-10 -10l-190 20l-90 -30v-10q50 -7 50 -30l-30 -10l-70 30q-60 0 -60 -60l10 -10h30l30 20l10 -10v-50q0 -20 -60 -40v-10l80 -280l10 10h10l10 -10v-10l-20 -20l40 -210h-10q-25 0 -130 460 q-50 103 -50 210v10q0 20 190 60q0 17 50 30zM407 1548h90l10 -10l10 10l160 -20l30 10q53 -40 150 -50l10 -10v-20q0 -20 -30 -20l-50 30q-20 0 -20 -30q160 -661 210 -750l180 -750q20 0 20 -120v-20l-20 -20l-50 10q0 -40 -40 -40v-10h60l30 20l30 -30v-10l-60 -10 l-150 10v20h60v10q-37 0 -60 40l-30 10l-20 -20q-10 30 -60 30h-40l-10 -10h-10l10 -10v-10l-20 -30l50 -10h30v-20l-490 -20q0 18 -90 30v10l80 60l-10 50v80q0 20 50 20q80 72 80 100q-70 0 -70 20q4 46 140 110v10h-40l-140 -70l-60 -70v-140q0 -33 30 -70q0 -23 -80 -50 v-60h-10l-40 70h-80l-40 10l-40 -10h-90q-20 0 -20 30q70 247 160 720l-10 10h-10l-40 -40q-20 17 -90 270l10 10h30q30 0 30 -70q36 0 50 -140q56 0 130 350q70 180 120 420q48 190 70 190zM-33 1438h20q50 -29 50 -60h10l10 10h10l10 -10v-10l-30 -10l10 -30 q-10 -60 -30 -60h-10l10 50q-17 0 -60 70q-30 0 -30 20zM17 1248l10 -10v-60h-20l-10 50zM497 1168q0 -32 -100 -50v-20h50l90 40v20zM437 638q0 -24 100 -30q80 6 80 30l-80 350h-20q-20 0 -80 -350zM1077 868l10 -10v-10l-10 -10h-10l-10 10v10l10 10h10zM737 508l20 -30 l30 10v30zM437 488l-20 -30l10 -10h20l20 20v10zM477 458h30v30zM337 428q-24 -32 -30 -90l20 -40q95 0 220 90v10zM977 388l-30 -50v-10l40 50v10h-10zM897 268v-20q23 0 30 50zM617 208l20 -20h50v-10q-50 -180 -170 -180l-10 -10v-20h40q60 -6 60 -30l-40 -40h-10l-60 30 l-20 -20l10 -50v-20l-40 -50v-20l10 10h10l80 -10l140 20l50 -10q22 151 60 190l-10 50v20q0 27 70 130l-10 10h-10q-17 -45 -60 -70q-17 0 -50 120l-10 10zM857 218v-30h40v10l-20 20h-20zM947 -2v-10l10 -10v-10l-50 -20v-10l70 -10l10 10v10q-13 47 -40 50zM637 -102 l70 -60q-50 -16 -50 -50h-20l-20 20q0 20 40 20l-50 60l10 10h20zM-33 -212q80 -10 80 -30l-30 -20h-40l-20 20v10l10 10v10zM-193 -242l110 -10v-20l-50 -10h-60l-20 20z" />
<glyph unicode="B" horiz-adv-x="1146" d="M-399 1698h20l110 -20h160v-10l-20 -20h-230q-51 0 -60 30zM91 1678h20q15 0 30 -40l10 10h30l20 -20l-30 -10l-10 10h-10l-60 -20l-50 10l-60 -10v-110h-20v40l-10 40q14 70 30 70h120l-10 10v20zM361 1648l60 -10v-20h-50l-20 20zM1131 1648q30 -40 30 -120l-20 -230 h-20v10q0 200 -70 200v10l10 50l-30 10q0 -50 -20 -50h-10l-20 20v10q0 20 30 20v10q-119 0 -130 40v10h80l40 -10q45 20 130 20zM1061 1598l20 -20l10 10v20zM101 1548l220 -10h200l110 10q420 -148 420 -500v-20q0 -225 -160 -320h-10v-20q136 0 210 -290v-70 q0 -386 -330 -510l-190 -30l-70 10q-30 0 -30 -30l-10 -10h-10l-10 10l-10 -10l-50 10h-230l-90 -10l-30 10l-30 -10q-90 27 -90 40l10 10v10l10 -10h20v20l10 160l-10 30l10 30h20v-190q0 -53 40 -70h10q20 133 20 400v270l-20 20h-70v20l20 20l60 -20l10 10v10l-10 10 l30 210v10q0 20 -30 20l-130 -10v20l20 20h120l20 20v160l10 160l-10 160v130q0 85 30 120zM301 1288v-30q0 -59 100 -80h10v30l-50 10v10l70 70l-50 10h-60zM511 1128v-20q150 -68 150 -90v-10l-70 -10h-90q-52 0 -60 30v60h-20l-10 -50v-50q6 -150 100 -150l10 -10h70 q160 0 160 200q0 100 -80 100h-160zM-399 938l10 -10v-10l-10 -10h-10l-10 10v10l10 10h10zM161 828v-10l60 10l80 -40l10 10h70v30h-50l-70 40q-100 -20 -100 -40zM-209 828h30l40 -40l-20 -20h-10l-40 50v10zM-39 698h20v-30h-20v30zM451 488l20 -140v-170q0 -18 90 -40 q200 29 200 180v10q-18 210 -150 210h-30q-130 0 -130 -50zM911 338v-30h20v30h-20zM951 238v-50l20 20v50zM-29 198l10 -10v-50h-20l-10 50l10 10h10zM281 58v-30h20v10zM-249 -192h80v-20h-80v20z" />
<glyph unicode="C" horiz-adv-x="1070" d="M-53 1647l250 -20v-20h-190v-10l10 -30h-10q-20 0 -20 30l-10 10h-20v-50q0 -20 30 -20v-30l-20 -60h-10l10 -10l-10 -80l10 -10l-10 -50v-90l-10 -60l10 -10v-10l-10 -90v-50l-20 -20h-10v590q0 52 30 90zM977 1627h130l20 -20l10 10h10q50 0 50 -20l-100 -140l-60 60 l-20 -20h-20v10l30 50l-120 40v20zM297 1547l220 -10h80q32 -28 180 -70q150 -62 210 -220l50 -210l-120 -20l-130 10l-30 -10q-31 5 -80 100q-37 30 -70 30h-40q-190 -240 -190 -370l-20 -280l40 -20l40 10l10 -10h10l-10 -70v-80q23 -160 120 -160q66 18 130 110h50l10 50 v30q0 70 -40 70l-110 30v20h10q180 0 180 -160q0 -40 20 -40h190l20 -20v-10q0 -159 -200 -370q-217 -130 -310 -130l-50 10l-40 -10v20q30 0 30 20v10q-237 0 -370 440q-30 116 -30 240v110q0 514 230 790v10l-10 120zM1357 1507l10 -10v-10q0 -17 -70 -30l-10 10v10 q37 30 70 30zM1157 1367h70l20 -20l-100 -800l-30 -20l-20 90l20 540v60l10 10l-10 10v90zM727 1317l-10 -80l10 -70q20 0 20 60h10q-12 90 -30 90zM767 857h10v-30l-80 -60q0 -30 -20 -30l-20 40l-100 -20v10q0 20 190 70zM1297 637l10 -10v-10l-10 -10h-10l-10 10v10 l10 10h10zM197 507l40 -20l40 10v20l-50 10h-10zM1097 467l280 -60v-20l-220 30v-20q0 -20 60 -20v-10l10 10h10l60 -30q-10 -70 -30 -70h-30l-50 40l-30 -10v10l10 10q0 30 -30 30v10l10 10q0 60 -70 60l-10 10v10zM-93 337q20 0 30 -120h-10l10 -10v-10l-10 -310h-10 l-10 10h-10l10 40l-10 230zM1057 -153h20l10 -60h220l20 -20l-10 -10h-220q-56 -39 -100 -40v-10q40 0 40 -50h-180l-70 10v10q0 20 30 20l10 10v10l-20 30v10h160q90 0 90 90z" />
<glyph unicode="D" horiz-adv-x="1135" d="M0 1610h49l1 -10q-58 -35 -55 -133h-20q-2 63 -54 112q5 31 79 31zM179 1610h80l32 -31q-20 0 -19 -30l11 -31l181 -20l99 10q325 0 467 -480q55 -130 67 -470l1 -10l-9 -41l11 -10v-10q-37 -360 -132 -510q-142 -225 -302 -225l11 -10v-11l50 11l30 -11l1 -20h-140 l-40 -10l-60 10l-1 20h70l-1 21q-61 4 -141 17t-150 13h-120q-120 0 -120 21l-7 1582l-14 102l28 41l181 -10l9 10q-1 35 -71 51zM699 1610h50l21 -20l1 -21h-70zM650 1590h30l1 -21h-30zM-146 1487l11 -10v-10q1 -17 -69 -31l-10 11l-1 10q36 30 69 30zM409 1069l5 -133 l19 -255l-15 -143h10l11 -11h10l148 31l23 -61q1 -28 -99 -41h-80l-8 -51q43 -266 169 -266h20q147 0 155 429l-8 225q-3 74 -33 92l-128 -72l-10 11l-1 10q40 0 113 194q-47 92 -103 92q-199 -16 -198 -51zM-174 599l11 -10v-10l-9 -11h-10l-11 11v10l9 10h10zM273 405 l1 -41l11 -10v-10l30 10l-23 71zM1192 160h20l16 -173l6 -153q18 -113 54 -113v-10q1 -20 -29 -20l-10 -11v-10l21 -20l-29 -11q-423 62 -423 82l-1 10h30l288 51h20q37 85 33 215l-4 112zM1262 139l11 -10v-10l-19 -20l-10 10l-1 10zM46 -238l101 -20l1 -21l-70 -10l-31 31 zM396 -248l21 -21l1 -10h-70l-1 21zM-42 -289h40l50 -10l1 -21h-69l-21 21zM329 -309l10 -11l10 11h110v-21l-69 -10h-170l-50 -10l-21 30l10 11h170z" />
<glyph unicode="E" horiz-adv-x="1024" d="M82 1598v-20l-47 -10l-9 10v10l9 10h47zM968 1588l9 -10h9l-9 -140l19 -350l-37 -20q-323 30 -323 80h-10q-89 -30 -157 -30h-27q-47 0 -56 -150v-10q0 -70 65 -70l221 10l19 -30v-360l-46 -60l-37 10l-148 -20l-28 30h-18l-37 -200v-50l18 -20h28l222 -10l9 10l46 -10 l162 4l37 30h55l37 -30l55 10l28 -30l-9 -50h-19l-9 50h-55l-19 -110l9 -30q0 -170 -46 -170l-55 -10l-9 30l9 100l-9 10h-10q-7 -188 -27 -220l-162 6h-148l-276 -10v10l-28 -10q-194 43 -194 60q18 0 28 80l-10 10v10q19 40 19 110v40l-19 80v20l19 30v20l-28 40l19 50 l-19 100q37 0 37 670v90q0 20 28 20l-19 330l10 10h304l194 40q48 0 83 -30h46q0 30 19 30zM322 1258l9 -50q66 0 83 50l-9 30h-65q-18 0 -18 -30zM672 1248v-30l19 20v10h-19zM275 728l-9 -80l19 -30q102 39 110 60zM972 322h37l19 -20v-10h-9l-47 10v20zM1065 -18l9 -10 v-10l-9 -40l9 -10v-10q-12 -50 -28 -50v20l10 10l-10 10v70zM1037 -198q28 -10 28 -60v-30l-9 -10l9 -10v-60l-19 -20h-120v30h46l65 10v50q0 50 -28 50v20zM35 -342h10l27 -10v-20h-18l-19 20v10zM100 -352h37v-20h-37v20zM797 -358h19v-20h-37zM852 -358h47v-30h-28 l-19 20v10z" />
<glyph unicode="F" horiz-adv-x="932" d="M1108 1690l20 -20l-20 -20l-20 20zM148 1560q420 -6 420 -40v-80l-10 -50l80 -30q90 20 580 40l20 -20l-10 -10q60 -10 60 -30v-20l-20 -30q0 -20 40 -20v-20l-50 -10q-53 20 -350 40l-10 -10v-110l-30 -30l-120 10h-20v-10l-260 20l-20 -70l10 -40l-10 -110v-40l20 -20 h40l200 10l10 -10v-400l-40 -40q0 20 -30 20l-190 10l-10 -10v-480l-10 -40l20 -140l-10 -10h-360l10 370v300l-60 20q30 410 50 410t20 50v60l-10 50l50 30q-50 56 -50 140q-90 22 -90 130l-10 170q0 50 150 50zM908 1350v-30l20 -20h70l20 20zM1148 1330l-10 -30h60 l-30 30h-20zM1228 1330v-40h30v10l-10 30h-20zM1248 1150l10 -60l-10 -60v-10l20 -30l-10 -10h-70l-130 -10l-80 10l-10 -10h-10l-80 20v10l20 20h10l10 -10l10 10h10l10 -10l10 10h90l40 -10l40 10h90l-20 30q0 75 50 100zM718 1020l10 -10v-10l-10 -10h-10l-10 10v10 l10 10h10zM298 700l-10 -50l20 -30l60 30v10q-16 40 -70 40zM958 590l30 -30v-10l-20 -20l-30 30v10zM1288 460l20 -20v-100h-20v120zM958 350l10 -10v-10l-10 -10h-10l-10 10v10l10 10h10zM1048 260l10 -10v-10l-90 -70l-20 20v10q55 60 100 60zM738 140l10 -10v-30 l-300 -460h-20l-30 10v20q36 16 180 350q129 120 160 120zM1298 -20l10 -10v-30h-10l-20 20zM8 -190l40 -30q-30 0 -30 -30h-20l10 10v10l-20 20zM898 -240l10 -10v-20l-20 -20h-20l-10 10h-10l-10 -10v-10q30 0 30 -20l-50 -50l-30 40l20 20v20q-40 0 -40 20v10h100z M968 -300l10 -10v-10l-10 -10h-10l-10 10v10l10 10h10zM898 -310l30 -30l-30 -20l-20 40l10 10h10zM678 -320q26 -20 100 -20q0 -20 -30 -20l-40 10l-30 -10l-20 30l10 10h10z" />
<glyph unicode="G" horiz-adv-x="1125" d="M-66 1677l52 -10h221v-21h-31l-11 10l-10 -10h-21l-11 10l-53 -20l-31 10l-11 -10l-21 20l-21 -20h-41l-21 20l10 11v10zM1133 1677q0 -31 42 -31l10 -10v-10l-42 -31l11 -31l-11 -72l11 -41l-11 -113v-123h-21v41l-10 51h10l-21 113l11 175v20l-242 21l-42 -10l-42 10 v20l126 11h147zM239 1667h31v-21h-31v21zM723 1646h31v-20h-31v20zM1248 1502l11 -10v-10l-21 -21l-11 11v10zM-161 1369v-41h32v10l-10 31h-22zM1122 1184h21v-51h-21v51zM1122 1092h21q0 -76 -31 -82h-11v10q21 24 21 72zM1007 866h31v-21h-31v21zM-97 476l21 -21v-102 h-21v123zM-87 -16l11 -11v-31h-11l-21 21zM-118 -170q52 -7 52 -52l273 -41v-20q-113 0 -336 -83l-21 21l11 62l-11 10v10zM62 693q-23 86 -23 111v62q0 234 95 431h-127l-20 21v82l31 31h210q217 102 347 102q347 0 463 -503v-10l-52 -10h-85l-42 10q-60 0 -105 -82 l-10 -10h-32l-63 164q-55 41 -116 41h-10q-114 0 -169 -226q16 -85 42 -113v-31l-21 -31v-61l11 -41l-11 -72v-62q0 -359 64 -359l52 -20q187 0 242 318l-31 20h-158v11l10 123l-10 72q10 71 31 71h463q42 -16 42 -71v-52l11 -164q-18 -51 -53 -51l-10 -103q31 0 31 -20 l-10 -267l10 -257h11l52 11v-21q-10 -31 -63 -31v11l-10 -11h-63l-74 11v20q42 0 42 21q-99 113 -147 113q-146 -103 -274 -103h-73q-291 0 -400 359l-11 92v10l21 21h127v10q-89 269 -128 408l-98 -25l20 -120l-30 -20h-260l-120 10v20h10l300 20h60v60l10 10v10l-10 10 l-280 -30l-10 10v10q100 30 170 80q90 22 90 50l-10 50l40 20v80l30 30l10 -10l-10 -50v-20l10 -40l-10 -40v-20l20 -80l50 10h11z" />
<glyph unicode="H" horiz-adv-x="1205" d="M539 1654v-10l30 10l230 -10v-20l-250 -10v-10q30 0 30 -20v-10h-30l-70 10v20h40v10h-150l-20 20l10 10h110zM939 1654h170q20 0 30 -80h-30l-10 10h-10l10 10v20l-70 10h-110v10zM1179 1594h140v-10l-20 -20h-20l-100 10v20zM89 1554l260 -20l50 10l20 -30v-50 l-10 -240l10 -10v-10q-20 -50 -16 -243l20 -20h300v20h10l-10 10v60l-14 173l10 10l-20 160l10 80l-10 60l10 10h400q30 0 30 -100l10 -400l-80 -40l60 -360l-20 -210l30 -190v-10l-10 -10l10 -10v-320q0 -130 -140 -130l-240 10l-20 30v20l30 30h70q53 0 90 80v10l-30 40 q58 0 90 130h-10l-210 -190l-20 20v30l10 120l-20 200l30 20l-10 100l4 107l10 10v10l-10 10h-130q-25 0 -30 40q-184 0 -250 -180l-34 -97q40 0 40 -190l-10 -60l20 -150l-120 -50v-90l10 -10v-10l-10 -10h-30q-74 0 -170 230l20 60v10h-10q0 -40 -30 -40l-10 30 q40 761 40 1370v150q0 20 30 20zM343 791q0 -30 -30 -30l-20 -110l20 -90h20q0 50 40 50v100l-10 10l10 10v60h-30zM213 671l-10 -10v-100l30 30v60zM-41 454h30l-30 -30h-20v10zM909 354l-10 -60h40l20 20q-15 40 -30 40h-20zM69 34q30 0 30 70q90 105 90 140v60h-20 q-34 -19 -100 -270zM569 294q30 0 30 -60l40 -70l-50 -30l-50 30l20 30l-10 50v20zM999 104h10q70 0 70 60h-10q-70 -42 -70 -60zM569 -86h20v-70h-20v70zM569 -316l40 -20l50 10l30 -50l80 10l20 -20h130v-20l-50 -10l-50 10l-130 -10l-30 10l-60 -10h-20l-30 30v50z" />
<glyph unicode="I" horiz-adv-x="757" d="M635 1680l40 -70l-10 -10h-60l10 40l-10 30l10 10h20zM125 1640l110 -20l10 10h10l10 -10h10l30 10l90 -10h10l100 10l10 -10v-10l-10 -10h-100q-340 -14 -340 -40h-10v10l10 10v10l-10 30h10q60 7 60 20zM205 1570l50 -10h10l200 -10l50 10l10 -10l50 10h50l30 -20 q-10 -340 -40 -340h-90l-30 -30v-80l-10 -160l10 -160v-90q40 -5 40 -30v-500q0 -20 70 -20q33 0 40 -320q-13 -50 -30 -50h-160l-180 20l-140 -10l-30 40v40q0 151 -20 240q70 25 70 80v200l-10 40l20 60v20h-10l10 100v160q0 85 20 130l-10 90l40 230v10q-30 0 -30 20v270 l10 10l-10 10v20zM735 460h100v-20q-60 0 -60 -30h-40l-50 20v20zM305 80v-30h30l-10 30h-20zM45 -290q129 -30 350 -30h110v-10l-20 -20h-290l-150 40v20z" />
<glyph unicode="J" horiz-adv-x="1079" d="M23 1702l10 -10v-10l-10 -10h-10l-10 10v10l10 10h10zM423 1692l170 -10v-20l-60 -10v-20h20v-20l-50 -10l-30 10l-50 -20l-30 40l10 10v10l-10 30zM993 1692l50 -10v-10q0 -20 -50 -20q0 -60 -30 -60l-20 30l10 30h-10l-30 10l-10 -10l-50 10h-80v20h80zM1113 1632 l30 -10l10 10h10q67 -10 90 -50q30 0 30 -20v-20l-30 20h-10l20 -30q0 -23 -50 -30v90h-30l-120 10v20zM633 1512h320q50 0 60 -440q-50 0 -50 -80v-270l-10 -10l10 -10v-10l-10 -90l30 -100v-290l10 -90q-90 -137 -90 -220v-60l-30 -30q-130 0 -180 -20q-340 0 -440 70 q-84 92 -150 220q-60 0 -60 30v110q0 85 20 130l60 -10l270 10q20 -16 20 -110q33 -87 60 -90h40q100 22 100 60l-10 140l10 270l-10 10v10l10 10v10l-10 120l10 280v30l-10 10v10l-50 -10h-60l-30 30l10 140l-10 210l20 20l50 -10h70zM123 1302l10 -10v-10l-10 -10h-10 l-10 10v10l10 10h10zM43 792l10 -10v-10l-10 -10h-10l-10 10v10l10 10h10zM483 652l20 -20l-10 -10h-10l-20 20l10 10h10zM1153 -198l10 -10q-10 -70 -30 -70h-10l-20 20v10z" />
<glyph unicode="K" horiz-adv-x="1057" d="M1159 1670l50 -10l1 -40h-40v-20q1 -20 41 -20v-10l-20 -20h-30l-50 10v20h20l-2 70q0 20 30 20zM881 1570h20l31 -30l-296 -700q133 -150 134 -190v-10h-30v-10q1 -44 208 -400q14 -147 148 -390v-10q1 -23 -69 -30q0 -26 -29 -60l50 -10h30l150 10l11 -30l-30 -40 l-10 10l-10 -10h-10q-50 30 -170 30l-40 -10l-10 10v10l29 40l-10 10h-220l-20 -20l130 -10l1 -20l-130 -20l-40 10l-130 -10l-31 30l30 20h10v-20h70q74 0 80 30q-72 113 -212 570q0 36 -63 150l-11 50h-30v-10l11 -40l-18 -90l16 -270l-10 -10l-64 -13l-9 -50l1 -50 q0 -20 30 -20l44 33l20 -30q4 -160 -36 -160l-320 -40l-20 30l-5 260q-2 71 17 110q-21 400 -38 400l9 50l-12 110l29 50l-1 40l9 80l-11 30l5 260l-7 340l19 20h210l120 10l10 -10l1 -10l-11 -460l-20 -20l1 -30h10v20h20l10 -10h10l10 10l-1 10l-20 40q234 439 260 450h10 l101 -10q57 6 89 30zM1021 1550h10q31 -10 32 -60v-10l-10 -10l10 -10l1 -20l-10 -10l10 -10l-9 -40l14 -190l1 -60q4 -70 21 -70l-23 -350q45 0 72 -60q1 -50 -19 -50l10 -10v-20q-29 -34 -37 -150l-39 -40q-7 70 -51 70l-1 10l20 30q-3 160 -93 160l-62 70l60 10l100 -10 l10 10v10l-52 110l-1 20l9 40l-21 60l39 40l-21 50q0 33 39 90l2 370zM281 1070l-10 -10l1 -20h50l-1 20zM404 910l1 -20h30l-1 20h-30zM472 550v-10l20 -20h10v30h-30zM1066 350l10 -10v-10l-10 -10h-10l-10 10v10l10 10h10z" />
<glyph unicode="L" horiz-adv-x="929" d="M853 1682l-10 -70h70v10l-10 30l10 10h10l20 -20q0 30 20 30l20 -20h-10l10 -10v-50l-20 -20h-30l-30 10l-50 -10h-30q-110 0 -110 30q60 13 60 30l-10 30h30l30 -20v10l-10 10v10l10 10h30zM63 1662l50 -10h90v-20h-150v10l10 10v10zM423 1652h160q30 -10 30 -60 l-10 -30h-10q-60 60 -160 60h-160v20zM973 1552l10 -10v-90l10 -90q-15 -40 -30 -40q-23 0 -30 50l20 20v140zM43 1532l100 -10h230l80 -20l-10 -400v-240l20 -180l-10 -10v-10l40 -300l-10 -10q10 -100 30 -100h110l50 -10l60 10h110l20 -20v-300l10 -60l-20 -40l-250 10 h-100q0 -40 -30 -40h-150l-230 -20l-20 80v80q3 50 20 50q-18 0 -40 990l10 10h10q52 -86 70 -190l50 -10l10 10v10q0 160 -60 160q-30 0 -30 20v250q0 168 -80 260v10l10 10v10zM873 1462l20 -20l-20 -20l-20 20zM843 1372h20l20 -20l-20 -20h-20l-20 20zM833 1302l10 -10 v-10h-30zM573 1222h20v-160h-20v160zM573 1022h20v-220l10 -60q-10 -110 -30 -110l-10 10l10 70v310zM873 842l10 -10v-10l-10 -10h-10l-10 10v10l10 10h10zM973 792l20 -20l-10 -40q40 0 40 -20l-20 -20l-50 50v30zM893 712l10 -10v-10l-10 -10h-10l-10 10v10l10 10h10z M983 612l10 -10v-10l-10 -10h-10l-10 10v10l10 10h10zM113 582l20 -220l-20 -20q40 -190 90 -190h10l-70 440h-10l-10 -10h-10zM653 102q0 -50 -40 -50l-30 -40l10 -10h10l50 10l10 -10l10 60l-10 40h-10zM193 32v-40h40v40l-20 20zM133 -318l50 -10h130l300 10l250 -10 l10 -10v-10l-20 -20l-40 10l-60 -10l-260 10h-350l-20 20l10 10v10z" />
<glyph unicode="M" horiz-adv-x="1312" d="M796 1703l10 -10v-10l-10 -10h-10l-10 10v10l10 10h10zM936 1663h100v-20l-100 -10h-20v10zM1066 1663h180l20 -20v-40l-20 -20h-10q0 50 -20 50h-130l-20 20v10zM1506 1603v-20l-80 -10l-10 10v10l10 10h80zM-134 -227h10l10 10l70 -10h150v10q-60 33 -60 100l10 260 l-10 30l10 40l-10 60l10 10v10q-10 76 -30 100q-23 -12 -46 -19l2 29h44l20 20v260l20 30v130l-10 50l10 40l-20 590l10 10h20l350 10l10 -10l-10 -100q17 -300 60 -300l340 -30v10q90 302 100 406h170l150 10l20 -20l-10 -130l10 -1396l10 -180l-30 -30l-170 10h-20 q-35 0 -70 -40l-90 -10h-20l-20 20v10l60 10v20h-10l10 200v10l-10 420q58 33 80 70v100q53 110 90 110v80l-60 10l10 70v70h-20l-10 -100v-20l20 -30q-70 -145 -70 -210h-20v50h-10q-30 -6 -30 -80v-10q30 0 30 -20q-60 0 -60 -50q-150 -664 -190 -720l-30 -20 q-70 0 -70 40q-26 0 -110 390q-60 157 -90 330h-30l30 -680l-10 -10h-80l-70 10l-10 -10v-20h160l20 -20v-20l-40 -10l-100 10l-160 -20l-30 -30h-30v10l10 30l-10 10h-160l-20 20v38l31 -5zM856 1563l-9 -39l-41 -1l-10 10v10zM776 1533q0 -27 -150 -50v20q82 30 150 30z M-124 1173v-250h10l10 50v130l-10 70h-10zM496 1053q0 -80 100 -400l-10 -10v-10l10 -10l-10 -70v-100l10 -70h-10q28 -210 90 -210v30q-30 38 -30 90l10 10l-30 90v10l20 20q37 -133 60 -140v10q-22 178 -50 250l154 523h-20v10l-10 -10h-180zM1056 943v-10h40v30h-20z M1306 353h10q22 0 140 -420l30 -100l-30 -20h-80l-30 30v100q0 134 -40 410zM946 243l-10 -10v-20l20 -20l10 40l-10 10h-10zM726 223l-10 -10l20 -50h20q0 52 -30 60zM-104 113h10l20 -20l-10 -40l10 -30l-10 -10h-10l-10 10h-10l10 50v40zM-104 -17h30v-30l-20 -20l-10 10 v40zM1366 -207h100l20 -20l-10 -10h-60l-50 10v20z" />
<glyph unicode="N" horiz-adv-x="1145" d="M86 1556l75 -11h194q86 0 86 -62l11 -42l-11 -72v-146l22 -114q0 -21 -32 -21q0 -70 258 -447h22l-11 52h11l-11 10v32l11 62l-11 10v11l11 93l-11 73l11 31l-11 11l11 62l11 416l32 41l215 -21l97 11l22 -21l-11 -364v-571l11 -42l-11 -41v-333l-21 -31q0 -44 75 -166 l-11 -52v-93l-32 -32h-280q-25 0 -119 332l-237 427l11 10v10q-57 64 -97 281l22 21l-44 135h-10l-11 -115l32 -62l-11 -52l54 -384h-10l10 -11v-83q43 0 43 -166q33 -95 44 -353l-11 -10l-54 10h-11l-32 -21l-97 83q0 -93 -86 -93h-76l-32 31l-22 405l87 31q0 37 -87 62 l-10 11v322q0 121 -22 166l11 114v73l-11 42l11 10v11l-11 83l11 52l-11 52l11 31l-11 41q24 247 54 271zM797 496v-42l22 -21v63h-22zM269 80l-11 -11v-10l22 -21l32 11zM269 -3v-21h22v-10l32 10v11l-22 20zM-43 -242q24 0 32 -52l-11 -10h-11l-32 31v10zM215 -367h43 l11 -10l11 10h21v-20h-86v20zM97 -398h21l22 -20l-11 -11h-32v31z" />
<glyph unicode="O" horiz-adv-x="1157" d="M1196 1665l10 -31q-6 -92 -31 -92h-11q-42 61 -147 61h-10l21 -20h84v-10l-21 -31l52 -41l21 20h11l21 -20v-31q0 -185 -32 -185l-63 164q0 48 -105 93q-26 0 -31 41l-305 41v21zM608 1562q176 0 357 -226q147 -292 147 -606q0 -727 -168 -802q-138 -144 -336 -144v10 l-10 -10h-105q-114 0 -294 196q-116 0 -116 174q-42 162 -73 504q21 0 21 30q21 563 157 628q67 138 284 205q136 0 136 41zM230 1316v-21h42q21 0 32 72l-11 10h-10q-21 0 -21 -51zM1143 1264q42 -15 42 -31v-246l-21 -21l-10 10v11l10 10l-10 10v93l-21 154zM337 488 q0 -357 234 -357h12q209 92 209 335l-12 446q-49 66 -49 178q-121 111 -185 111q-120 0 -160 -345zM545 10v-20l21 -21h11v21l-21 20h-11zM1164 0h21v-10l11 -175l-11 -10h-10l-21 113h10l-10 10v21zM1185 -206l21 -51l-21 -123l-157 10h-126l-21 21l10 10v10l-84 21v20h74 l10 31q113 0 294 51zM115 -349l10 -11v-10l-10 -10h-11l-10 10v10l10 11h11z" />
<glyph unicode="P" horiz-adv-x="1078" d="M1012 1599h80l30 -20l-10 -60l10 -110l-10 -40l10 -40l-10 -30l10 -60v-30l-20 -20l-10 30l-20 250l10 80h-10l-230 20v20zM-108 1589l70 -10h40v-20l-50 -10q-70 10 -70 30zM472 1569h50q24 -20 180 -40q191 -90 260 -250l10 10h20v-30h-20v-10q60 -126 60 -320v-10 q0 -401 -290 -510l-90 -10h-70q0 -50 -30 -50h-20l-100 30l-20 -40q30 -35 30 -300v-190q0 -60 -40 -60l-300 -20q-40 10 -40 40q-6 470 -30 470l10 40l-20 340q18 0 50 60l-10 30l10 120q-30 198 -30 340v150q0 180 40 180l300 20v-10l10 -30q80 21 80 50zM358 1212 l-11 -12v-12q8 -168 33 -168l-11 -107q0 -216 220 -216q132 72 132 263q0 171 -132 252l-154 -24zM272 579v-50h10l20 20v30h-30zM332 -281h50v-20l-100 -10v20zM392 -341l10 -10v-10l-30 -10l-360 -30h-60l-20 20v10l20 20v-10l10 10l150 -10z" />
<glyph unicode="Q" horiz-adv-x="1134" d="M1030 1708q120 0 120 -120l10 -30l-20 -50l10 -70l-20 -240h-20v40h-10l-10 -50v-340l-40 -40q14 -140 40 -140l-10 -50v-340h10l30 20h20l20 -20v-10q0 -54 -40 -70l-10 10h-10q-94 0 -180 -180q-43 -60 -70 -60v-20q10 -30 60 -30h70q27 -16 100 -320q-86 -30 -170 -30 q-261 0 -390 270q-186 0 -320 180q-150 244 -150 550v110q0 402 140 620q126 240 370 240h30l80 -20l150 30q14 -1 60 -130q56 0 130 -300h10v70l-10 100l30 20h30q20 0 20 -30h20l-10 120l-60 10v30h60q0 142 -70 180l-10 -10l-50 10q-120 -27 -150 -50h-10v10l60 70 q-90 0 -90 20l10 10h120zM-50 1688l200 -10h80l160 10l30 -10v-10l-30 -30h-40l-160 20h-10q-42 -30 -140 -30l-20 20h-20l-40 -20l-40 30zM540 1678h200v-20l-60 -20l-60 20h-80v20zM150 1568h10l20 -20v-10l-20 -20h-20l-20 20zM20 1528h30l20 -20h-20l-30 10v10z M580 1428v-20h20l20 20h-40zM330 1388v-10h60v10h-60zM380 898q40 0 40 -20v-120q0 -142 -30 -340q27 -210 190 -210q130 89 130 200v20l-20 120l70 40q-133 610 -200 610q-180 -64 -180 -300zM-50 1168h20v-30h-20v30zM1000 1068v-20l20 -20l10 30l-10 30zM890 858v-30h10 l20 20l-10 10h-20zM230 828v-20l20 -20h20v10zM600 58v-20h30l170 110v20h-10q-186 -75 -190 -110zM1120 48h20v-90h-20v90zM-40 38l10 -10h10l-10 -100v-100l210 -20v-10q0 -20 -30 -20q-187 0 -220 30l20 160l-10 60l10 10h10zM500 -32h10l20 20h-10z" />
<glyph unicode="R" horiz-adv-x="1007" d="M368 1791l20 -20v-20l-100 10h-90l-90 -10q-80 10 -80 30l10 10h330zM1088 1571l10 -10v-310h-10q-30 0 -30 210v20q0 30 -120 40l-10 -10l-160 20v20zM58 1531l100 -10l210 10l240 -40q340 -147 340 -490l-10 -80l10 -10v-10q-63 -214 -150 -250q-40 -15 -40 -30v-10 q160 -134 160 -400q30 0 40 -419l-10 -10h-160q-26 0 -170 329q0 113 -70 250q-40 60 -150 60l-30 -40l30 -649l-30 -10q-350 24 -350 50l-10 60v70q0 20 30 20v20l10 89l-10 30l10 10l-10 40l10 100q0 75 -50 110l20 190q-20 5 -40 50l70 80v180l10 170l-10 120l10 50 l-10 90v210l-10 50zM1078 1201h20v-30h-20v30zM368 1101v-170l10 -60l-10 -50v-30l30 -30h50q110 0 170 140h10q0 260 -220 260q-40 -10 -40 -60zM1078 1141h20l20 -240l-10 -140h-20l-10 250v130zM1088 661h20v-30h-20v30zM1108 621l10 -10v-240l10 -100l-40 -20l-50 10v20 h60v150l-10 70h10l-10 10v10l10 60l-10 30l10 10h10zM548 231h20l20 -20v-10l-20 -20l-40 30zM58 -538l20 -20l-20 -20h-10l-20 20z" />
<glyph unicode="S" horiz-adv-x="1074" d="M-68 1654l460 -20v-20h-80l-40 -10l-10 10l-70 -10h-230l-30 -30v-60l10 -50h-10l10 -10v-10l-20 -230h-20v60l-10 110q20 39 20 110v50l10 10l-20 80zM1051 1644l50 -10h60l10 -10h10l-10 -200v-70h-20l-10 50v180l-50 10l-430 20v20h330zM502 1634h40v-20h-40v20z M922 1584h50l20 -20v-10h-90v10zM462 1504h70q303 0 430 -300l20 -170l-20 -20l-270 20l-10 -10q0 130 -190 160q-127 0 -150 -160v-80h10q316 0 630 -330l10 30q0 128 -150 230q41 29 110 30q70 0 70 -70l10 -80l-10 -80q13 -253 40 -300l-20 -70l10 -30h-10l10 -10 l-10 -70v-120q0 -25 -90 -50q-158 -240 -470 -240q-374 0 -490 360l-20 110l10 10h40q193 0 290 20q44 -150 210 -150h10q100 0 100 230l20 110l-40 30h-10l-170 -30h-70q-210 52 -210 150v100q-110 90 -110 310v80q0 197 240 350q116 40 180 40zM1082 1334h10v-40h-10 l-20 20zM1072 1164h20v-40h-20v40zM242 984v-30h30v30h-30zM-98 824h20q0 -60 40 -60v-20q-51 0 -60 30v50zM592 -66v-10h70v10l-30 10zM1042 -76h20q24 0 30 -100l-10 -10v-10l10 -40q0 -22 -110 -40q0 -30 -30 -30l-110 40q-50 0 -50 20l10 10h90l170 10v60l-10 50h-50 l-20 20zM-88 -166q17 0 30 -70h10l270 -10v-20h-10q-84 0 -170 -30q-160 17 -160 50q7 80 30 80z" />
<glyph unicode="T" horiz-adv-x="1017" d="M67 1737h100l110 -10l50 10v-10l10 10h10l60 -10l10 10h10l10 -10h10l60 10l20 -20h250l450 10l20 -20l-20 -150l30 -30v-20q-20 -16 -20 -110l-10 -10h-10l-30 140l20 20v50l-20 30l10 40l-70 20l-20 -60l-10 10l-10 -10h-10q-20 0 -20 30l-10 10h-10q-50 0 -50 -20 l-240 40l-40 -10l-50 20l-70 -10v10l-10 -10h-190l-270 -10l-50 -60h-20l-10 70v20zM937 1687v-10l40 -10l10 10v10h-50zM47 1537l350 -10h90l40 10l40 -10h120l270 10l20 -30l-10 -180l10 -210l-10 -10h-30l-200 10l-10 -10v-10l10 -500l10 -10v-10l-10 -40l10 -10v-10 l-10 -40l20 -100l-20 -210l10 -110l-10 -170v-40l10 -50l170 10h120q20 0 20 30q0 263 -40 350l20 20v10l-30 30h-130v20l200 20l10 -10v-340l-10 -40l10 -30l-10 -30l10 -70l-10 -40l30 -100l-10 -10h-10q-20 110 -100 110l-480 30l-120 -10l-30 60q0 98 30 140l-30 30v50 q40 23 40 90l10 10l-20 40l20 210l-40 150l30 120l-10 150h-50l-40 30l10 100v50l-10 50q-223 -13 -240 -60v-10q0 -20 100 -60v-30h-30l-70 40v-10l-170 90l220 60l30 -10l220 20q23 -23 30 -130h10q0 120 60 120q0 36 140 50l10 10v20l-80 10q-130 -32 -470 -40l-20 30 l10 100l-10 270v20l10 10v10zM-23 997l-10 -10v-10l50 -30l30 10q0 26 -70 40zM1217 877h20v-30h-20v30zM1247 767h10v-60h-10l-20 20v20zM-53 707q68 -16 180 -110v-20q-10 -27 -150 -130l-10 10h-10l10 100v50q0 36 -40 90l10 10h10zM927 607q60 -24 60 -40v-30l-60 -60 h-10l20 80l-30 30zM637 397v-10l60 10v40h-20zM-13 427h10l20 -20v-10h-10l-20 20v10zM517 287h-20v50h-10q-36 0 -60 -200l20 -60h10q71 0 130 130l-20 60v10q3 50 20 50l-10 30zM-63 -93h10v-40h-10l-20 20zM-53 -243l10 -10v-20l-20 -20l-10 10v20zM267 -423l10 -10v-10 l-10 -10h-20v10z" />
<glyph unicode="U" horiz-adv-x="1148" d="M944 1650l10 -10l20 -20l120 10h60l20 -20v-40q-64 22 -220 30l-40 -10l-100 10l-50 -40l-20 20v20l30 30h40zM64 1520h330l20 -20v-260l-30 -60l10 -10l-10 -50v-600q0 -370 180 -370h40q160 0 160 370l-20 290v80q10 68 30 70l-20 490l10 10h250q20 0 20 -30l-10 -290 q0 -72 60 -110v-70h10l10 100l-10 30q0 65 60 90h10l10 -50l-40 -510l-20 -20l20 -80q0 -30 -40 -30l-10 -50l10 -50h10l10 10h10l10 -10v-10l-10 -70h-10l-10 10h-10l-10 -40l10 -10q0 -270 -270 -450q-168 -60 -230 -60q-334 0 -450 250q-70 110 -70 250l-30 30l10 240v10 l30 30l-30 590q18 18 260 50l10 10v20q-290 43 -290 80l10 50v130zM-106 1330l70 -20v-10q0 -20 -50 -20l-10 -10v-160q0 -20 -30 -20q0 -91 30 -210l-10 -10h-20v40l-20 80l10 10q0 100 -70 100v20l30 10l-10 50v10l10 50l-20 20v20q0 15 90 50zM-116 850h20v-30h-20v30z M-86 740h10v-60h-10l-20 20v20zM1174 -70h10v-50h-10l-10 10h-10l-30 -50q20 0 20 -30l-20 -50h40l10 50v30h20v-20l10 -70q-90 -26 -90 -40l10 -60l-10 -40l10 -30l-20 -40l-60 20l-10 -10h-30q-150 24 -150 40v10q19 46 40 50h160l20 20v20q0 20 -60 20v10l-10 -10h-10 l-80 20v20q190 0 190 80q0 90 30 90l10 -10h10zM14 -130h20q0 -110 50 -110l150 -20v-30l-110 -20h-60q-52 0 -60 30v80z" />
<glyph unicode="V" horiz-adv-x="992" d="M620 1587h47v-19l-66 -20v20zM298 1548q46 0 66 -197q29 -50 161 -839l10 -10h18q38 0 57 345l95 691h151l95 10l66 -59v-10q-76 -873 -237 -1441q0 -181 -94 -196q0 -89 -47 -89q-237 32 -237 69q-138 641 -246 641q-35 39 -66 39v10l9 10v10l67 -10h56l19 20l-198 809 q-47 117 -47 167l18 20h199zM14 532l29 -10v-20h-132v20h9zM52 88h19l28 -20h57v-10q0 -24 -104 -39l-9 10v9l-208 -19l-10 10v9z" />
<glyph unicode="W" horiz-adv-x="1419" d="M540 1626h110l20 -20l-10 -10h-70l-50 10v20zM770 1626h130l20 -20l-10 -10h-160v10zM1040 1576h20v-20h-40zM80 1566q780 -228 780 -250l-10 -10q-317 99 -440 100l-10 -10l10 -10v-30l-60 90h-20l-10 -40l40 -180l-10 -40l50 -140l10 -110q-21 -4 -40 -50q34 0 50 -220 q20 0 30 -120h20q14 130 60 130h20v10l-20 60v40q23 200 100 200l220 70h30q37 0 90 -320v-10h-10q-38 30 0 -10q50 -25 90 -210h20l10 40l10 350l-10 10v10q20 60 20 260v40l30 190l-10 50v20l10 10v10l310 -20l30 10l20 -20q-38 -199 -70 -1050q-34 -470 -90 -470v-30 l30 -120q0 -20 -110 -30l-30 10l-400 -20l-20 30l20 260l-10 30l10 10v10l-110 400l-10 10h-20q-30 -57 -70 -340q-28 -54 -30 -110l60 -170v-10q0 -22 -90 -50l10 -40q0 -26 -50 -50q-240 0 -240 50q-200 599 -200 870l10 10q-40 374 -140 850v20l20 20h60zM1000 1556h20 v-40l-20 20v20zM410 1356q26 0 40 -80q-26 0 -40 80zM990 1276h30v-20l-50 -10v10zM460 1266l20 -20v-10h-20v30zM920 1246h30v-20q-376 -114 -380 -130l-10 -10v-10l-90 10q0 42 260 90q39 28 190 70zM310 1136l-10 -30l10 -50l-10 -10l10 -10h10l10 90l-10 10h-10z M160 1066h20l30 10l-20 20zM130 1006v-10q100 17 100 40l-10 10h-10q-80 -24 -80 -40zM270 776h-60q0 -30 -20 -30q22 -80 80 -80l60 -10l40 20l-10 10v10l10 10v10l-70 80zM1250 706h50v20h-30zM580 556l-30 10v-10q30 -90 80 -90l-20 110zM340 516l-30 -100v-70 q0 -87 70 -130h10v160l10 10q0 83 -60 130z" />
<glyph unicode="X" horiz-adv-x="1024" d="M-199 1576q0 -20 30 -20l10 -10v-10l-10 -10h-10q-80 6 -80 30zM31 1526q300 -20 300 -60q152 -377 180 -390l140 410l390 30l20 -40q-118 -205 -360 -810q0 -38 90 -160q40 -130 200 -330l-10 -100l90 -219l-230 -110h-60q-200 367 -200 479l-50 40q-52 -35 -140 -319 q-54 -131 -80 -140l-280 -10l-20 100q180 378 330 759q-215 363 -330 850zM-169 1486l10 -10v-10l-30 -10v-40q0 -54 -40 -70l-30 120zM-199 1076h20q7 -50 50 -50v-20q-25 0 -30 -40l10 -10l-10 -10h-10q-30 6 -30 80l10 10v10zM-119 976l10 -10v-50h-10l-20 20v20z M-99 916l30 -80l-10 -10l20 -20q-26 -140 -50 -140q-34 0 -50 120l20 30l-10 10v50zM1071 766l10 -10v-10l-10 -10h-10l-10 10v10l10 10h10zM1201 396l10 -10v-10l-10 -10h-10l-10 10v10l10 10h10zM1111 36h20l20 -59h-20zM611 -233l10 -10v-10l-10 -10h-10l-10 10v10l10 10 h10zM941 -403l10 -10v-10l-10 -10h-10l-10 10v10l10 10h10z" />
<glyph unicode="Y" horiz-adv-x="894" d="M-146 1632h10v-20l-20 -20l-10 10v10zM134 1552h250l30 -20l-10 -50v-10q30 0 30 -20v-60l-10 -10l10 -10v-10l-10 -40l130 -510h40q0 90 -30 170l130 500q40 0 40 20q200 -20 200 -40l-170 -560l-10 -10l10 -40q-80 -290 -100 -290q-30 6 -30 80h-20v-180 q2 -100 20 -100l-10 -50q0 -131 40 -190l-10 -200l10 -120l-30 -20q-380 14 -380 30l10 220v140l10 40l-50 80q60 30 60 100v20l-120 510q-23 192 -240 540v20l20 20q160 -7 160 -20l30 10v60zM-56 942q80 -10 80 -30q-70 0 -70 -60l-10 -100q0 -197 80 -250q90 -70 90 -120 h-10q13 -88 40 -120l-10 -10h-30q-16 2 -90 150l-120 130l-10 40l40 130l-10 10v10l10 30l-10 100q0 46 30 90zM284 902v-20h10l50 10v10l-20 20h-20zM394 522l10 -10h10q68 0 100 50l-30 10q-90 -18 -90 -50zM924 192v-50h-20v30zM444 62v-20l20 -20h30v50l-20 20z M514 -368l50 -10v-20h-30l-20 20v10zM674 -368v-30h-20l-20 20l10 10h30z" />
<glyph unicode="Z" horiz-adv-x="911" d="M-72 1550v-29h-27v-49l18 -176h-9l-18 -19q23 0 36 -137h18v20h18v-49l26 -39v-20h-9q-17 0 -17 29h-9l-18 -58h18l44 10q72 -221 72 -313h-9q-17 10 -89 254l-9 10h-27v-20q48 0 62 -195q16 0 27 -88l-9 -9h-9q-30 65 -71 97h-9l-9 -146l9 -59l-9 -29l62 10h18v-20 q-161 -27 -161 -117q-27 0 -27 -29l-9 -10h-18l-9 49v29h-9l-135 -19v9q0 20 162 69q45 130 90 351l-18 68l9 39l-27 30l45 341l-45 166q0 39 81 49zM35 1540l719 -10h107l36 10q36 -14 36 -29v-59q0 -84 -45 -244h9q45 -2 45 -29q0 -49 -54 -49q-367 -426 -458 -810 l-54 -127l27 -19l90 10h72l171 9l9 -9h9l53 9h27l27 -29l-9 -253v-10l-9 -39l9 -39v-49h-18l-314 -19l-9 9v10l-242 10h-216l-18 19l9 302l-18 30v9q95 400 413 869l-36 39l90 88v20l-449 -10l-9 10v58l9 68l-9 88v166zM556 1316v-20l18 -19h9l45 9l18 -58l81 78l-9 10 l-9 -10l-45 10l-9 -10l-45 10h-54zM915 1013h18l18 -136q-9 -98 -27 -98h-9l-9 146zM852 330l45 -10l54 10h27l18 -49v-10l-18 -19h-9q0 49 -90 49h-18l-27 -20h-9v10q14 39 27 39zM-225 281v-49h-18v30zM-261 184q207 -54 207 -88l-9 -10q-216 51 -216 78zM556 8 q-198 26 -198 49l-9 -10h-9l-125 29l-36 -10q1 -21 90 -58l27 10l152 -58l45 -98q135 0 135 68l-36 20v29l54 10q12 -69 27 -69q143 0 143 79l9 28v59l-54 29q-34 -29 -170 -58zM942 -197h18l18 -19l-9 -10h-45v10zM-63 -236l53 -19v-20l-44 -10l-27 30z" />
<glyph unicode="[" horiz-adv-x="569" />
<glyph unicode="\" horiz-adv-x="569" />
<glyph unicode="]" horiz-adv-x="569" />
<glyph unicode="^" horiz-adv-x="961" />
<glyph unicode="_" />
<glyph unicode="`" horiz-adv-x="682" />
<glyph unicode="a" horiz-adv-x="1153" d="M471 1771h20l20 -20l-10 -10h-10l-20 20v10zM881 1641h20q204 -40 220 -70l-30 -10q-184 39 -210 80zM261 1621h10v-20l-30 -30v30zM-499 1611h120l10 -10l10 10h70q160 0 160 -30l-10 -10h-120l-150 10l-100 -10l-10 10v10zM-89 1611h10l30 -30l-10 -10h-40l-20 20z M41 1601l20 -20l-10 -10h-60l-20 20l10 10h60zM501 1581q310 -84 310 -110q67 -340 100 -340l10 -40l50 10q40 -17 40 -70v-20l-10 -40l10 -30h-10l10 -10v-20q30 -530 100 -530l-10 -40l130 -460l20 -90l-10 -10h-440l-100 -10l20 -30h-40q-250 43 -250 90v10l30 10 l110 -20l60 10l180 -10h60q-23 370 -60 370l-150 -10h-130q-110 0 -110 -50l-70 -220l20 -50l-10 -10l20 -20v-10q-30 0 -30 -20v-10l10 -10v-10l-140 -70v-10q-110 0 -110 110l-90 20v-10l-50 -40l-10 10h-10l20 60h-10l-60 30l20 100h-10q-25 0 -70 40h-10l-100 -10 l60 -110v-10l-20 -20h-10l-10 50l-10 -10h-20v10l10 10v10q-100 30 -100 70h-20l-10 -50v-10q80 0 80 -30h-10l10 -10v-20q-20 0 -20 30l-50 -10v-20q80 -6 80 -30v-10q-150 24 -150 60v30l60 170l380 -90q140 345 220 670q71 108 140 440q27 24 80 260q61 190 80 190z M1331 1421h10l90 -20v-10l-20 -20h-20zM1121 1391l20 -20l-10 -10h-10l-20 20l10 10h10zM601 1211v-20h40l-20 20h-20zM1141 1151h350l20 -20v-280l10 -60l-10 -50l10 -10v-10l-10 -10v-10l10 -80l-10 -10l10 -50v-150h20v-10l-20 -20h-90q-190 0 -220 -30l-20 20v20l170 20 l-10 10l10 120l-30 170l10 10h10q48 0 60 -90l-20 -130q30 -10 30 -60v-10l-10 -10v-10h70v380l-20 30l10 10h10l-10 70v110l-10 10v10l-70 -10h-10l-20 20v10q0 20 30 20l10 10v10l-50 10h-100l-20 -20l-50 10h-60v-20h-20v20q-80 26 -80 40v10zM1411 1091v-10l60 -20v10 l-20 20h-40zM-359 1011l10 -10v-10l-10 -10h-10l-10 10v10l10 10h10zM621 871l-80 -280q114 -50 160 -50l10 10v10l-60 310h-30zM-459 691l20 -40l-10 -10h-10l-20 30zM-449 601l10 -10v-10l-10 -10h-10l-10 10v10l10 10h10zM561 501v-40l20 -20h30l10 50l-10 10h-50z M1291 471l10 -10v-10l-10 -10h-10l-10 10v10l10 10h10zM-349 61v-30l30 -20h40v20q-60 0 -60 30h-10zM-479 -259q260 0 260 -40l-10 -10h-80q-210 0 -210 30zM-159 -279h50v-20h-50v20zM1401 -279h20l20 -20l-10 -10h-30v30zM591 -399h20l20 -20h-40v20zM751 -449h30l20 -20 h-50v20z" />
<glyph unicode="b" horiz-adv-x="1108" d="M1122 1680h110l20 -20v-10l-10 -50l20 -20l-20 -20h-160q-74 0 -80 30v10l100 10l20 -20h60l30 30v10l-120 20l-60 -10l-10 10h-10l-10 -10l-70 10h-110v20zM-448 1620q0 -30 130 -30h160v-10l-20 -20h-290l-20 20zM-138 1530h30l20 -20q-29 -4 -70 -50h-10l-30 10v30 q10 30 60 30zM62 1530l70 -10h200l90 -10l80 20h100q356 0 430 -410v-50q0 -223 -170 -340q210 -111 210 -330v-90q0 -307 -280 -439l-270 -80l-10 10h-10l-60 -10l-10 10h-10l-10 -10l-80 10l-100 -10v10l-60 -20q-130 12 -130 40v20q28 150 90 150h10q-90 68 -90 429h-10 l10 70v1020l10 10v10zM1222 1490l20 -20l-10 -120v-220l20 -30l-20 -60h-20v240l-10 90l10 10v10l-20 80zM-388 1420h10l90 -20v-10l-20 -20h-20zM402 1100q0 -240 80 -240l80 -10q160 18 160 150v80q0 115 -150 140q-149 0 -170 -120zM-308 1090v-10l60 -20v10l-20 20h-40z M1212 970h20v-210h-20v210zM1212 680h20v-30h-20v30zM372 360v-60q40 -95 140 -130q20 0 20 -60l80 40q0 40 50 40q80 74 80 150q0 230 -180 230q-170 0 -170 -160q-17 0 -20 -50zM892 550v-30l20 -20l40 10l40 -10l10 10v20q-50 0 -50 40h-20zM1222 500q20 -45 20 -130v-50 l-10 -100h-20l-10 50v210zM-428 470l10 -10v-10l-10 -10h-10l-10 10v10l10 10h10zM202 360q0 -23 50 -30v30h-50zM132 250q50 -29 50 -60h10q74 0 80 30v10l-20 30l10 30h-10q-36 0 -80 40h-10q-30 -6 -30 -80zM742 260l30 -10l80 20v10l-20 20l-10 -10l-20 20h-20zM872 290 v-60l-20 -30q50 0 50 -20l120 40q0 80 -120 80zM-158 300l10 -10l-10 -10v-10l20 -60v-10h-20l-20 20v60zM962 270l20 -20l-10 -10h-30l-20 20l10 10h30zM-138 180h50l20 -20v-10h-90v10zM722 170v-20l50 10v10h-50zM322 140l-10 -10v-10l20 -20h10v20zM402 100v-10h30v20z M672 80l-20 -40v-30l60 -10v10l10 10v10l60 -20l10 50q-39 20 -110 20h-10zM712 -9q0 -20 -30 -20v-10q0 -18 50 -30l20 30q0 15 -40 30zM1162 -149l10 -10v-20q-10 -30 -60 -30l-10 10v30zM-318 -279h20l20 -20l-10 -10h-30v30z" />
<glyph unicode="c" horiz-adv-x="1129" d="M-12 1684l152 -11v-20h-102l-50 -11l-10 11l-10 -11l-10 11v10q0 21 30 21zM1052 1673h71l50 -51h11l10 51l20 -20v-52l-10 -10v-11l30 -20h102v-21l-51 -11l-132 11l-30 -11l-71 21v11h20v10l-71 72h-10v-20l-61 20h-30v21zM-32 1632q120 -60 131 -104q0 -20 -30 -20 l-31 10v-31q57 0 122 -52h30v-10l-81 -72q-71 -114 -101 -114v-11q0 -18 112 -41v10q26 135 131 135l31 31l-51 -10h-10l-10 10h-10q131 186 334 186h51q74 0 81 -31l-10 -10v-11l71 11q314 -131 314 -548q0 -21 -71 -21v-10l-51 10h-182q-17 0 -51 165q-61 62 -101 62h-31 q-172 0 -172 -382l-10 -62q0 -306 111 -362q16 0 31 -104l-21 -72l71 -21q183 0 183 279l30 21l10 -10h11l40 10l-10 10v42q40 33 40 83l11 10h30l71 -145q91 -12 91 -31v-52q0 -402 -284 -558l11 -10v-10l-11 -32q39 -31 92 -31v-31h-132l-51 11v20q51 0 51 63h-10 l-142 -21h-71q-316 0 -436 341l-40 217l20 93l-20 290l20 20l71 -10h50l21 21q-102 115 -102 258v155h-91q-21 0 -50 83l-20 21v83q0 19 80 62l10 10v52h-70l-20 20v114zM464 1446v-21h10q48 0 173 62v10h-11q-52 0 -172 -51zM-52 -2q192 -41 192 -62q0 -31 -202 -52l-11 11 v82zM1062 -147h30l21 -20l-10 -11h-21l-20 21v10zM-73 -230h21v-20l253 -11v-20l-51 -11h-192l-31 31v31zM1092 -250h11l20 -21v-10l-20 -21h-122l-20 21l10 10v10l71 -10h20z" />
<glyph unicode="d" horiz-adv-x="1070" d="M122 1731q82 -7 82 -32q0 -21 -103 -41l-20 52zM1016 1710l11 -11v-10l-11 -11v-10l-102 10h-31v21h20l11 -10zM986 1626v-10l30 10q144 -34 144 -62l-20 -21h-10l-31 21h-41l-11 -94h-20q0 94 -113 104h-196v10l21 21h10zM112 1605h61q31 0 31 -73l52 -10h82l185 31 q382 0 463 -542q23 0 30 -303q0 -510 -113 -730q-137 -219 -390 -219l-113 21l-93 -10l-236 10l-11 10v11l-10 615l21 636l-11 63l21 449zM1119 1230l21 -32v-31l-41 42zM410 1042v-167l-21 -657q67 -63 113 -63q134 0 175 261l-10 63l20 271l-82 407q-35 31 -103 31 q-92 0 -92 -146zM1160 645l21 -20v-11h-21l-20 21l10 10h10zM1088 61h21l31 -31v-52h-10l-52 52zM1078 -189l21 -31v-21l-31 -31h-185v21q195 23 195 62zM71 -251q46 -32 123 -42l10 10h11q61 -13 61 -31l10 11h21l31 -32q0 -31 -41 -31l-11 10h-10l-10 -10q-206 0 -206 63 l-10 41l10 11h11zM1130 -283l30 -31v-21q-7 -31 -102 -52l-155 21v21h113l-10 52h31l10 -52h62z" />
<glyph unicode="e" horiz-adv-x="913" d="M851 1727l30 -30v-60l-80 40v20q24 0 50 30zM101 1687l40 -10v-20l-80 -10l-10 10v20zM411 1677h30v-10l-20 -20l-10 10v20zM-49 1667h30v-20q-40 0 -40 -20v-10l10 -50h-30v20q0 74 30 80zM91 1537h210l80 -20l210 10h10l40 10l10 -10l70 10h100l20 -20v-30l20 -360 l-40 -20l-70 10h-50l-60 -10l-10 10l-100 -10h-80q-17 0 -40 -120l-40 -30v-60l20 -20l350 20l10 -10v-10l20 -370q-42 -30 -160 -30l-190 10q-40 -10 -40 -60l10 -50l-10 -110v-100l20 -20h440l20 -20v-310l-30 -30h-120l-650 -20l-10 10l20 920q18 26 30 220l-10 60h10 l-10 10l10 120v10l-30 400zM-79 -453l20 -20l-10 -10h-10l-20 20l10 10h10zM211 -493h30l-20 -20l-10 10v10z" />
<glyph unicode="f" horiz-adv-x="983" d="M1035 1631l40 -10v-20h-30l-20 20zM1205 1611l10 -10v-20h-10l-20 20l10 10h10zM895 1571l50 -410q23 0 40 140l10 10h10q20 -39 20 -110v-130q-10 -30 -60 -30l-40 110l-560 -30v-10l20 -50l-10 -170l10 -10h10l360 10l20 -80l10 10h40l30 -30v-20q-10 -30 -60 -30h-30 v-120q0 -20 -120 -50q-77 0 -250 -230l-20 -50v-10l20 -30v-10l-10 -60l30 -100v-140l10 -140q-13 -50 -30 -50l-300 -10l-30 70l10 100l-30 1050l30 190v30l-20 330l40 20q716 20 800 40zM1165 -59h-20q-60 0 -60 40h-10l-10 -170l10 -30l-10 -10h-50l20 100l-20 190v10 q-33 0 -70 30h-30q0 -30 -20 -30h-20v30q-90 0 -90 -150l-10 -70h-10l10 -10v-20h-20v40l-10 -10h-10v20h20v30q-79 160 -180 160v20q170 0 170 60v10h20q0 -60 20 -60h130l60 10l10 -10l50 10h20l10 -10h10l-10 -50v-10l30 -30l20 20l92 -37l1 -30zM775 771v-10h30l30 30 l-10 10h-20zM735 341h20l10 -100v-10h-20l-10 50v60zM-85 -149h30q20 0 20 -30l60 -180l-10 -10h-50l-30 30l30 50v10h-10q0 -30 -50 -30h-10l-30 30q20 130 50 130zM1045 -249q0 -22 60 -70l-10 -10v-10q-80 10 -80 30q6 60 30 60zM115 -279l70 -10v-20l-100 -10h-10v10 q0 25 40 30zM695 -270l40 -40l60 10l10 -10v-70q-6 -30 -80 -30h-110l-60 10l-10 -10l-50 10h-240l-110 10l-40 -10l-20 30l10 10l50 -10l540 20h40v10q-50 0 -50 60l10 10h10z" />
<glyph unicode="g" horiz-adv-x="1057" d="M103 1611l10 -10v-20h-10l-19 20l10 10h9zM1332 1561l20 -19l-10 -10h-69l-20 20l10 9h69zM113 32l10 10v10l-10 59q143 0 179 69l69 20l10 10v39l-30 59l-39 -19l-139 49l-50 -30h-39q-30 0 -30 178v89l20 315l-20 40q33 199 79 306q145 286 436 286q367 0 486 -355 q-27 -257 -50 -257h-29q-248 20 -248 59q0 168 -169 168q-158 -31 -158 -207l-30 -128l10 -10l-10 -119v-88q0 -301 99 -425l70 -19h19l70 9q0 -21 -99 -49q0 -305 99 -305h59v-10q0 -26 -148 -40q-178 0 -337 178q0 38 -80 88l-21 28zM1005 1473h10q60 -10 60 -30l-20 -20 l-50 40v10zM559 683l298 -10h99q39 0 39 -276v-10l-10 -49q30 0 30 -40l-40 -344v-148l-19 -20h-159q-65 0 -89 39l10 50v295l-60 10v20q30 36 50 128l-10 10h-129l-20 20v79l-10 207zM123 496l60 -69h109l29 29v10q-52 0 -109 59l-59 10q-15 0 -30 -39zM361 141l20 -20 l10 10v10h-30zM817 -273l20 -20v-10h-40v10zM866 -293h70v-20h-70v20z" />
<glyph unicode="h" horiz-adv-x="1064" d="M1070 1713l10 -10v-10l-10 -10h-10l10 -10v-10l-30 -30l-20 20zM980 1573l20 -60h-10l10 -10l-10 -50v-300q0 -345 30 -410l-10 -959l-10 -10q-350 20 -350 40l30 729l-10 10h-40l-90 -10l-100 10h-20q-20 0 -20 -60h-10l10 -120l-10 -609l-10 -10h-290l-30 20l20 889 l10 90l-10 10v10l10 40v20q-60 0 -60 650q13 60 30 60h320q20 0 20 -30l-20 -300l10 -350l10 -10h100l170 -10l10 10q-10 522 -30 700l10 10h100zM-210 1563h80l50 -10v-20l-120 -10h-10l-20 20zM1160 1543h60l20 -20l-10 -10l-70 10v20z" />
<glyph unicode="i" horiz-adv-x="659" d="M108 1540l440 -10l20 -20v-160l10 -200q-80 -20 -80 -40v-270l50 -630q20 0 20 -50v-30q0 -14 -80 -40l-30 10l-50 -10l-70 10q-150 -10 -150 -40l10 -10h160l200 10l10 -10v-249l-10 -10v-10l-270 10h-140q-25 0 -30 40l-20 219l10 10h10l-10 50v90q0 20 100 30v50 l-40 640l10 220h-70l-20 20v360zM378 1010l-10 -10v-10l10 -30l-30 -140h20v20h30v-10l-10 -10v-10l60 -60h10l10 120v10l-20 20l10 50v10q-47 0 -80 50zM-227 1724h159l29 -26l-14 -14h-101l-73 14v26zM105 1724h188l29 -26l-15 -14h-231v14zM495 1658h29v-26h-58z M437 1632h29v-53l-29 26v27zM1070 1160q26 0 40 -80q-26 0 -40 80zM103 366h30v-20l-50 -10v10zM1120 1070l20 -20v-10h-20v30zM857 -170h30v-20q-376 -114 -380 -130l-10 -10v-10l-90 10q0 42 260 90q39 28 190 70zM970 940l-10 -30l10 -50l-10 -10l10 -10h10l10 90l-10 10 h-10zM820 870h20l30 10l-20 20zM790 810v-10q100 17 100 40l-10 10h-10q-80 -24 -80 -40zM-177 -9h-60q0 -30 -20 -30q22 -80 80 -80l60 -10l40 20l-10 10v10l10 10v10l-70 80zM722 1292l-30 10v-10q30 -90 80 -90l-20 110zM699 1699l-30 -100v-70q0 -87 70 -130h10v160 l10 10q0 83 -60 130z" />
<glyph unicode="j" horiz-adv-x="1077" d="M378 1726l10 10h10l10 -10v-10l-10 -11h-10l-10 11v10zM-72 1674l20 -20l-20 -21l-20 21zM-12 1654l10 -11v-10l-10 -10h-10l-10 10v10l10 11h10zM368 1561l50 -10v-21h-10l-90 -10l-10 10h-10l-10 -10l-50 10l-40 -10l-40 31l10 10h200zM688 1551l30 -21l250 -10l10 10 h10l40 -31v-62l-10 -154q21 -31 110 -31l30 -31l-10 -10h-10q-50 0 -50 20q-70 0 -70 -82v-670q0 -31 -60 -31l20 -196q0 -327 -250 -433l-200 -41q-342 0 -470 309l-20 123v52l10 10v11l200 -11h80q20 0 40 -92q60 -62 130 -62h10q79 0 170 92l20 -20h30v10q-20 24 -20 72 l-10 73l-20 20l10 175v361q0 362 -30 629zM108 1468l10 -10v-10l-20 -21l-10 10v11zM88 1406h30v-51l-20 -21l-10 11v61zM108 1303l10 -10v-21h-30v11zM108 1252l10 -11v-10l-10 -10h-10l-10 10v10l10 11h10zM108 1211l10 -11v-10l-20 -21l-10 11v10zM108 1149l10 -11v-10 l-10 -10h-10l-10 10v10l10 11h10zM308 1149h20l20 -21l-10 -10h-10l-20 20v11zM108 1087l10 -11v-10l-10 -10h-10l-10 10v10l10 11h10zM-162 272h20l10 -10h10q-15 -41 -30 -41h-10v51zM768 200l10 -10v-10l-20 -73l10 -41q-40 0 -80 -123l90 -31q100 51 100 154l-10 31 l10 62v72h-50q-60 -6 -60 -31zM558 87v-11q15 -41 30 -41v21h10l-10 31h-30zM998 -315q22 -62 60 -62v-20h-20v10l-90 -10q-84 0 -170 31v20h10q131 0 210 31z" />
<glyph unicode="k" horiz-adv-x="996" d="M1220 1614h30l-20 -20l-10 10v10zM70 1534l280 -20l80 10l20 -30l-20 -390l10 -30h10l260 440l40 10h190l20 -20v-10q-60 -140 -360 -620v-10q0 -35 220 -450l160 -380l-10 -159v-90q0 -52 -30 -60h-250q-34 0 -50 190q-160 563 -190 609h-10q-60 0 -60 -60l50 -639 l-60 -20h-190l-40 -10q-40 10 -40 40l-30 619v240l10 40l-10 10l10 120l-20 660zM1260 1374l20 -20l-10 -10h-30v10zM-100 1354l20 -40q-20 -60 -40 -60h-10v70zM-140 1234h10l20 -20v-10h-30v30zM1020 1154h10q30 0 30 -150l10 -10h10q2 40 20 40l-30 70l30 20h10 q0 -54 60 -60v-10l-10 -10h-10l-10 10h-10l-50 -130l10 -40l-20 -20l30 -50l50 10l20 -60l-60 -20l-30 10l-30 -20l10 -120l-10 -120l10 -80l-10 -10h-50l-20 20q15 0 40 110q0 220 -60 220v20q0 36 40 80v50l-10 40q19 46 40 50l-20 60q0 20 30 20l-20 30v50zM430 664v-10 l20 -20h10v30h-30zM1150 -435l10 -10v-10l-10 -10h-10l-10 10v10l10 10h10z" />
<glyph unicode="l" horiz-adv-x="871" d="M630 1435l-80 -40l-30 10q-28 -71 -90 -460l-70 -260l-10 -10l-30 -80h10q90 0 90 -50l10 -10l-10 -50v-120l-10 -40l10 -10l-20 -230l50 -10l40 10l10 -10l190 20h60q70 0 70 -90v-119q0 -110 -30 -110h-190l-10 10l-10 -10l-50 10l-240 -10h-200l-30 20l20 439l-10 630 q50 371 50 520l-10 60q13 60 30 60l350 10q12 -60 100 -60q19 3 37 6l12 -32q-5 3 -9 6zM775 1208l-7 6h-75l-150 6v11h7l233 6l15 -17l-8 -17h30l60 -12h38l142 -11l8 6v5l37 -5h45v-12h-67v-28l-38 -35l53 -63q-12 -23 -23 -23l8 -5v-6l-23 -17h-82q-22 0 -60 80h-30v11 q52 0 52 29l8 6h7l30 -18l53 6v6q-60 7 -60 34l-23 -5q-52 0 -52 34l-8 -6h-22l-8 6l-7 -6h-23l-7 6h-8q-21 0 -30 -126q36 -57 180 -97l38 -6l22 6l8 -6q-13 -80 -38 -80l-22 -51h7l30 5h8l15 -11l-45 -12l-15 12h-8q0 -34 -45 -57l-45 5l-97 -11l-90 11h-38l-15 12v6 q23 0 23 17l7 5h23l15 -11l45 34l37 12h8l67 -52l8 6h7l-7 29l45 28l7 -6v6l-30 29l8 6v17l-23 -12l-7 6v11h30v6q0 12 -23 12v17h23v28q-30 0 -53 -74l-22 -17q-30 0 -83 74v6l8 6q-68 60 -68 74l38 57q-28 45 -69 65l-8 19q129 17 129 30zM300 1555h40v-20h-40v20z M100 1545h100v-20h-100v20zM400 1545h30v-20h-30v20zM1110 1295q0 -30 -40 -30v-20l90 -70l30 20q0 100 -80 100zM1000 1083v-70h10l10 50zM1220 975l20 -20l-10 -10h-10l-20 20l10 10h10zM1110 725v-10l-30 -30h-10v30zM810 695h20q0 -80 70 -140q-41 -70 -100 -70 q-200 35 -200 60q43 20 160 20q50 77 50 130zM1050 695q20 0 20 -30l30 -10l-10 -10v-20l20 -30l-20 -20l-70 100v10l10 10h20zM1080 365h20v-210h-10l-40 30l20 20v50q0 20 -30 20l-10 10v10l10 10q0 20 40 20v40zM1070 -284h10l10 -50l-10 -10h-10v60z" />
<glyph unicode="m" horiz-adv-x="1391" d="M1275 1717l10 -10v-10l-10 -10h-10l-10 10v10l10 10h10zM735 1707q60 -50 140 -60q0 -30 50 -30v-20l-70 -10l-110 30l-60 -130h-20v20q32 200 70 200zM1395 1677v-30h-50v20zM1185 1657l20 -20v-40l-20 -20l-10 10v10q-27 0 -80 -50l-70 20l-30 -10l-30 60h10l50 -10z M85 1647h50v-20h-50v20zM145 1547h300q45 0 100 -580l10 -10q7 -70 30 -70l10 10h10q0 -160 40 -200v-20l-20 -30v-10l10 -10v-10l60 20q20 -23 30 -110h20l30 20h10l-30 -230l10 -40l-10 -120l50 -330l-10 -30h-20l-30 30l-70 -10h-10l-100 30l-50 50l-170 770h-10l-20 -20 l20 -400l-10 -30q30 -167 30 -300l-10 -10h-10l-140 40l-10 -10v-10q12 -19 230 -90v-20l-120 10l-30 -30l20 -20l-40 -20l-230 -20v40l10 10v10l70 -10h70q0 20 -100 20v10l-10 -10h-10l-10 10h-10q20 243 20 800v70l20 70q-7 80 -20 80q30 37 30 260l-10 390l30 10v10h-20 v20q47 0 70 20zM1115 1467h70q30 -10 30 -60v-230q110 -106 110 -130l-10 -210l10 -10v-10l-10 -10l30 -450v-550q0 -22 -70 -40l-230 20h-80l-20 20v220l10 90l-10 100v240l10 10l-10 10l10 270v30l-10 150l-50 -10l10 -40l-80 -210h-10q-77 145 -150 150l-20 50l10 10h30 l40 -30h10l10 50q0 17 -100 60l-20 -20v10q88 284 280 400q57 0 90 110zM-165 1037l20 -20l-10 -10h-10l-20 20l10 10h10zM-85 867l110 -10v-20h-30q-73 0 -80 -30l10 -340l-10 -290h-20v410l-10 70h10l-10 30l10 30l-10 60v60zM275 747l10 -30h20q20 0 20 30l-10 30 l-30 -30h-10zM-85 -83l10 -10v-140l10 -50l-10 -10l50 -10l10 10l100 -10h180q130 0 130 -30q-33 -30 -170 -30h-20l-10 10l-10 -10l-290 20l-10 10v10l10 10v10l-10 10l10 70v120zM435 -173q370 -80 370 -110l-10 -10h-10q-350 80 -350 110v10zM615 -303q120 -12 120 -40 v-10l-130 20v10l10 10v10z" />
<glyph unicode="n" horiz-adv-x="1105" d="M135 1660h30v-20h-30v20zM-185 1640v-30h-50v20zM-55 1640l30 -30l-10 -10h-10q-50 12 -50 30l10 10h30zM265 1640h10l20 -20v-10h-20zM-15 1580h10v-30l-30 -40l20 -80l-50 -50q0 30 -30 30l-10 10v10l30 50v20h-10l-80 -20q101 100 150 100zM335 1530 q174 -347 240 -670q0 -47 100 -230q38 -90 70 -90v220l-10 60l10 10l-10 200v300l-10 40l10 10v10l-10 90q7 50 30 50h240l10 -10h10l-10 -360l20 -350h-10l10 -10v-70q50 -3 50 -30l-10 -120l10 -30l-10 -40v-20l10 -30l-10 -50v-120l10 -500q-21 -24 -140 -50l-20 20h-50 l-170 -50h-30q-59 0 -200 480l-110 310h-30l-10 -40l10 -340v-290l10 -50l-30 -20h-120l-100 -10l-20 20l20 570l-20 390v160l-10 40q10 120 30 120q-10 390 -40 390l-30 -10l-10 10v10q50 20 50 60h60l80 10l80 -10zM-55 880l10 -10v-10l-20 -20l-10 10v10zM705 350 l40 -140h20l10 50v70q0 73 -30 80h-10q-30 -10 -30 -60zM1055 -370l10 -10v-10l-30 -20h-20z" />
<glyph unicode="o" horiz-adv-x="1053" d="M1113 1736l80 -10v-200l-20 -20q-63 0 -80 110h-10q10 120 30 120zM1133 1596v-10l10 -10v-10l-10 -10h10l10 10v30h-20zM-17 1546l140 -10v-20l-120 -10h-20l-20 20zM513 1506l30 -20l10 10h90q275 0 360 -380l10 -80l-20 -130q80 -10 80 -30v-10q0 -20 -60 -40l-10 -30 l-10 -200l20 -40q0 -621 -380 -760l-90 -10q-289 0 -440 460q-60 169 -60 410q0 374 100 610q108 169 350 240h20zM1073 1486q50 -3 50 -20l-20 -70l10 -10h10q-30 -48 -30 -90h-20v100q0 41 -60 80l10 10h50zM-27 1446h20v-50l-10 -10l20 -40l-10 -10h-20v110zM583 1166 q0 -24 -130 -100q-60 -96 -60 -140l10 -70l-20 -190l10 -30l-20 -70q0 -410 180 -410q100 0 150 210l-10 70v100l10 300q-110 10 -110 30t100 30v80q-18 190 -110 190zM823 996v-40h20l40 30l80 -30h10l-10 10v10l10 40l-40 20h-20q-77 0 -90 -40zM-27 1036h10l30 -30 l-10 -30h-30l-20 40zM783 916v-20h30v40h-10zM1083 16h20v-30h-20v30zM-27 -84h10l20 -20q0 -20 -30 -20q49 -39 50 -90l-20 -40l10 -40l-10 -10l40 -20l110 10l40 -10l10 10l170 -10h270v-20h-30l-600 -30l-70 40l10 100v130zM1103 -104l20 -20l30 10v-10q0 -210 -70 -210 l-20 -20l-50 10l-10 -10l10 -10v-30l-100 -10h-40q-20 0 -20 40h-30l-110 20h-50v10q0 27 420 60l-10 40l10 50l-10 60z" />
<glyph unicode="p" horiz-adv-x="955" d="M1065 1696l9 -10v-9l-9 -10h-10l-9 10v9l9 10h10zM998 1686q19 -19 29 -133l-10 -9h-56l-48 9l10 48q-76 17 -76 38l-9 -10h-57v10q19 47 217 47zM81 1572h171l104 -9l75 9l29 -28l9 9h113q175 0 284 -247q47 -109 47 -276v-67q0 -363 -340 -495q-170 0 -170 -57 q-19 -152 -19 -504v-172l-19 -19h-9q-68 58 -104 58h-189l-19 19v95l9 9l-9 10v28l9 38l-9 67l9 285l-9 371v58l19 28l-10 219l10 57l-19 276q9 238 37 238zM1017 1448l10 -9v-10l-10 -9h-19v9zM337 1163v-29l19 -66l-10 -10l19 -181v-38q9 -28 57 -28q170 37 170 162v76 q-16 190 -123 190h-9q-123 0 -123 -76zM-136 915h29l9 -38l-9 -9h-10l-19 19v28zM1008 468v-19q-13 -38 -85 -38h-29v19zM649 439l28 -28l-9 -10h-10q-47 13 -47 29l9 9h29zM-126 -217h9l10 -9l9 9h10l19 -19l-10 -10h-9q-38 15 -38 29zM954 -199l25 -20l-12 -10h-13l-26 20 l13 10h13z" />
<glyph unicode="q" horiz-adv-x="1099" d="M895 1636h10l78 -28l127 19l20 -66l-20 -28l10 -9v-19l-19 -19h-10v28l10 10v9q-23 19 -118 19l-29 28h-98l-10 9l-10 -9h-118v19h49q128 0 128 37zM-26 1589l10 -9l68 9h176v-19h-19q-95 0 -138 -46l-49 9l-28 -66l9 -28h-9l-10 -9h-10q-20 35 -30 140zM532 1552h69 q211 0 382 -309q88 -266 88 -441v-121q-39 -33 -39 -66v-56q0 -377 -225 -608v-10q24 -19 127 -19l10 -9v-9l-10 -57l10 -9q-20 -272 -49 -272h-10q-194 0 -343 225q-500 102 -500 702v47l20 19l-10 140v38q0 215 29 215l39 10h177l49 9q-31 35 -216 94l-10 9v9 q80 306 245 413q128 56 167 56zM365 662l10 -113v-37l20 -19l-10 -65v-28q30 -225 167 -225h29q137 121 137 365q0 163 -39 431q49 9 49 37q-31 197 -137 197h-20q-117 0 -157 -234q-32 0 -49 -309zM1091 896h29v-9l-19 -19l-10 9v19zM1101 830h19v-84l-19 -19l-10 10v28z M-26 -21v-57h-20v38zM1101 -68h19v-56h-19v56zM-26 -153l10 -9v-9l-20 -19l-10 9v10zM1061 -162h59q0 -21 -49 -28l-10 9v19zM81 -190l20 -19l-20 -18l-19 28l9 9h10zM101 -246h10v-10l-10 -9v-9h10l156 18l10 -9v-9l-157 -38l-39 38v9z" />
<glyph unicode="r" horiz-adv-x="1083" d="M85 277l-8 217l-20 110l30 20l-20 250l10 60v210q0 18 -90 30v10q0 24 80 40v40q0 87 70 300l270 -20l60 10q184 -30 295 -22h10q182 -8 255 -258l20 -220q0 -306 -200 -470v-20q97 -195 160 -670q0 -60 80 -140l-10 -10h-10q-390 -10 -390 30q-40 76 -40 150h10l-50 390 l10 50l-30 40q-180 -6 -180 -40v-70l10 -60l-10 -30l10 -10l-10 -70v-60l10 -60l-10 -40l10 -30l-10 -50l10 -110l-30 -20h-250l-30 -20l-30 100l10 90l-10 10v10l20 290q0 23 -2 43zM1147 1514h60l10 -10l10 10h10l20 -20v-60l-10 -10l10 -10v-180l10 -40l-20 -100h-20 q0 56 -50 210l30 40h20v140l-80 10v20zM387 1134l-50 20l-30 -10v-20l10 -40l-10 -30h30q20 0 30 60h20l20 -110l-10 -110q48 -50 110 -50h50q129 0 150 240v40q-15 110 -50 110q-260 -15 -260 -60zM847 1164l-10 -10v-10l10 -10h10l10 10v10l-10 10h-10zM1207 1014h30 l20 -20v-210q0 -70 -20 -70l20 -110l-10 -60v-20l10 -40q0 -40 -70 -40q-10 -40 -40 -40q-99 41 -100 60q30 0 30 40h10q40 -30 120 -30l10 10v10l-10 10l-10 -10h-30l-20 20q0 43 50 100l20 -20l10 110h-10l-10 -10h-10l-10 10v10l10 40l-10 30l20 20l-20 110v80zM317 954 l-10 -70v-50l20 -20l10 30l-10 110h-10zM697 834v-10q62 -110 130 -110l40 10q0 70 -120 120l-20 20zM677 374v-10l50 -10h10v10l-20 20zM1137 374h20v-60h-20v60zM1187 134l20 -20v-60l-20 -20q-40 15 -40 30v30zM1177 -226l20 -20l-10 -10h-20l-20 20l10 10h20zM87 -335 h40l120 -30l10 10h20v-10l200 10h10q260 0 260 -30l-50 -20l-70 10h-60l-330 10l-140 -10l-50 20v20z" />
<glyph unicode="s" horiz-adv-x="1074" d="M1179 1577v-20h-20v-20l20 -20l-10 -100v-90l-10 -10l10 -10v-170l50 10l10 -10v-10q-31 0 -80 -200l-20 -20l10 -10l-20 -110l10 -30l-10 -80h-20l-20 110q23 0 30 130q-17 20 -140 30v20l180 20q0 20 -30 20v10l20 20q-13 305 -30 350l20 20q-34 0 -50 70q-30 0 -70 50 h-50v10l20 20h20q130 0 180 20zM489 1537l10 -10l50 10h90q0 -60 40 -60q280 -186 280 -450v-10q-13 -40 -90 -40h-210l-90 120l-70 20h-20q-140 -35 -140 -130q0 -103 170 -140q257 0 370 -190q70 -57 140 -350l10 -10v-40q0 -293 -290 -440q-82 -40 -210 -40h-70 q-225 52 -350 220q-80 175 -80 230l20 20h160l170 10q55 -90 140 -90h40q90 0 120 130q0 180 -300 180q-139 40 -300 260h-10l-60 -10l-20 30v40l-10 180q10 70 30 70l10 -10q74 304 240 420q123 80 230 80zM-11 1527h100l50 -10v-20q-150 -14 -150 -60h-20l-10 50v10z M929 1407l10 -10v-20h-30v10zM-31 557q10 -60 90 -60v-20h-60l-50 -10l-40 50q20 40 60 40zM1089 277l20 -20v-30h-20v10l10 10l-10 10v20zM-61 237h40v-20h-40v20zM1109 -153l20 -30l-30 -30h-130v10q1 14 140 50zM-71 -203h10q97 -30 170 -30h10v-20l-100 -10h-70l-20 20 v40z" />
<glyph unicode="t" horiz-adv-x="964" d="M89 1517l185 -20l106 10h59l388 -10l10 -10v-39l-29 -178h10l87 10l20 -29q0 -128 19 -178l-10 -10h-58l-214 -10v-29l49 -355q-20 -45 -20 -129v-207q49 0 49 -20v-39l19 -463q0 -20 -408 -30l-9 10v99l-10 335l19 29l-29 641l29 109v20l-29 29l-223 -19 q-117 41 -117 59q49 0 68 148l-10 29l29 10v50l-9 167zM516 1320v-10l20 -20h10v30h-30zM837 -317v-30h-136v20h19zM196 -337h9l10 -10l49 10h107l19 -20l-10 -10h-29l-146 -10l-9 10v30z" />
<glyph unicode="u" horiz-adv-x="1080" d="M353 1741h10l60 -68v-10h-10q-45 49 -130 49l-70 -10v19zM-46 1673h20v-20l-100 -19l30 -39l10 10h20v-19l-10 -39l10 -39h-10l-20 20h10q-67 87 -120 87v-10l-10 -10l10 -9v-20h-20q0 25 -40 29l-11 10v19q0 29 231 49zM383 1566l20 -19l-10 -58l20 -619l-50 -291l10 -9 v-49l-10 -10l10 -9v-29q0 -329 151 -329h10q180 0 180 513l-20 232l10 10l10 29h10l-90 600l10 9h130q220 0 220 -48q30 -437 70 -561q0 -29 -40 -29l10 -242v-58l-20 -242q9 -53 60 -97l-80 -126l20 -29l-20 -58h10l30 19l20 -29v-9l-40 -58h-20q-10 67 -30 67h-20l10 -9 v-10l-10 -10v-9l40 -68v-29l-20 -19q-24 0 -30 68l10 9l-60 20q-18 0 -30 -87h-10l-20 19q-181 -136 -290 -136q-368 0 -471 561l-10 39l10 223v164l-20 29l20 252l-20 493l30 20h210zM-156 1489l20 -58l-20 -19l-10 58q-20 0 -20 -29l-10 -10h-10l-50 39v9h50zM-146 1053 h20l-10 -9l10 -10v-29h-20v48zM-156 986h10q23 0 30 -78h-20v-19q30 0 30 -48h-50v145zM-106 831l10 -10v-10l-10 -9l10 -10v-77l-30 -39h30l50 10v-29q-74 -8 -100 -29h-10v67l-10 58q0 51 60 78zM884 492v-19q74 19 120 87l-10 10zM1134 550v-10l-20 -19l-20 19l10 10h30z M554 -40l30 -38h10l-10 67h-10q-20 0 -20 -29zM363 -98h10q71 10 71 29v10h-21zM83 -224q130 -22 130 -38l-120 -29v9l-10 -9h-10l-20 19q13 48 30 48zM1084 -224h20l10 -48l-40 -39h-30l-10 10l-10 -10h-10l-90 20h-60v19l200 10z" />
<glyph unicode="v" horiz-adv-x="1111" d="M-26 1592v-10q0 -20 -30 -20l-10 -30l-10 10h-10l-90 -20l-10 10v10q37 30 160 50zM104 1582q13 -50 30 -50h60l100 10q77 -151 110 -280l-10 -110q0 -89 60 -160l60 -360l-60 -20l-10 10l-30 -10q6 -60 30 -60l70 30l40 -30h20q140 441 140 830v100q0 25 40 30l130 -10 l210 20l10 -10v-20q0 -439 -350 -1330q-52 -235 -130 -430q-80 7 -80 20l-10 -10h-30l-40 10l-40 -10q-59 0 -70 200q-130 601 -220 850q-69 0 -160 410l40 30l-70 30v20h20v10l-10 250h30zM1204 1572l10 -10v-10l-20 -20h-30l-50 10v20zM224 1102v-30l10 -70q20 0 20 30 l-10 70h-20zM264 1002v-70h10l20 20l-20 20l10 50zM514 352v-30l20 -20l10 10l10 30h10l-10 30h-20zM1174 352h10l30 -30v-30l-20 -20h-100l-30 -30l-100 20v10q0 17 120 40q53 40 90 40zM104 -128l10 -10v-10l-10 -10h-10l-10 10v10l10 10h10z" />
<glyph unicode="w" horiz-adv-x="1305" d="M945 1657l70 -10l-20 -20h-50l-20 20l10 10h10zM1145 1637l120 -10h100l50 10l10 -10v-40l-40 -80v-120l-10 -100h-20v70q0 160 -30 160h-140v20h10l170 20q0 24 -220 60v20zM45 1527h80l50 -10v-250q20 3 70 240l10 10h10q36 0 60 -320l30 -30v-50q10 -280 50 -280 l-10 -80q0 -79 40 -170l-10 -10v-10l10 -40l-10 -10v-10l30 -40l10 10h10l-10 70q45 500 80 500h110l70 10q27 -23 80 -330q32 0 120 -440l10 -10v-10h10q34 0 40 180q-30 7 -30 80l-30 710v260l30 30h30v-30l270 -10l10 -10v-10l-20 -340v-60q0 -90 60 -90 q-70 -537 -190 -1069q-176 -130 -270 -130h-10l-20 20l10 90h-10q-50 0 -50 50q-26 379 -60 379q-18 0 -120 -409q-36 0 -50 -60h-20v-10l-70 10h-20l-180 -70h-20q-30 10 -30 60v50q0 122 -30 219l20 20q-44 390 -70 390l-70 -60h-10v-150l10 -70l-20 -20v-90q0 -20 40 -20 v-10l-60 -40h-10v20h-50l-110 -10l-30 10v20l150 10h10l20 20v70l-20 20h-70v20q80 10 80 30v20l-10 150l-40 10v10l20 30v10h-150v20q200 0 200 60l10 120h20l10 -70v-70q0 -23 80 -30l20 30q-46 280 -90 280l10 30l-60 370l70 40l-50 230zM1335 1227h20v-10l-40 -190h-20 q3 70 20 70l-10 30zM1345 907h10v-30l-20 -20l-10 10v20zM285 707q0 -42 40 -110h10q23 0 30 50q-23 60 -40 60h-40zM15 -12h10v-30l-10 -10l10 -10v-90l-10 -70l50 -10v-20q-40 0 -40 -20v-10l50 -10h240l60 -10l50 10h120l20 -20l-20 -20l-220 10l-320 -10l-10 30l10 10 v10q-15 40 -30 40q14 230 40 230zM1195 -292h30l20 -20q-90 -8 -90 -50l-40 10q-75 -40 -270 -40l-30 30v10h20v-10q325 33 360 70z" />
<glyph unicode="x" horiz-adv-x="1118" d="M315 1636h70v-20l-70 -10v30zM1165 1626l10 -10v-10l-60 -30l-70 20v20h50zM755 1616h10l180 -90l170 -50v-20q-23 0 -50 -110l-50 -110l30 -110l-180 -380v-20l100 -200l10 -40l-20 -30l90 -290q0 -64 130 -330l-10 -10h-350q-60 82 -210 590q-15 40 -30 40 q-85 -105 -110 -200l10 -10v-10l-110 -420l-10 -10h-360l-10 10h-10q90 340 260 690q90 128 90 180q-57 0 -110 200q-44 58 -90 270q-14 0 -40 130q-16 83 -80 130v60l10 10l30 10v10l50 -10l220 10l20 -30l10 10h20l30 -20l-10 -30q0 -171 110 -510h20q57 24 220 620 l-10 50zM925 1426v-60q30 10 30 60h-30zM885 1316v-30l20 -20l40 40q0 20 -30 20zM-15 1256l20 -70q-16 0 -30 -60l20 -190l-50 -60q0 -61 -50 -110l20 -20l50 10l10 -10v-10q-30 -23 -30 -100l-10 -10h-10q0 60 -30 60l-90 -280h10q170 -42 170 -70l-10 -10h-10 q-190 24 -190 60v10q120 561 170 620l-10 40q28 200 50 200zM855 1196v-30h10l20 20l-10 10h-20zM-125 1096l10 -10v-30l-120 -20h-10v10q0 24 120 50zM535 736v-10l10 -50h-10l-10 10h-10l-10 -10v-30q108 0 170 80v10l-30 10l-30 -10v10l-20 20h-30zM605 626l-20 -20 l-30 10l-10 -10v-20l50 -10l100 30v30h-10l-40 -10l-10 10zM75 636h20v-30h-20v30zM375 336v-50l10 -10v-10l40 30v10q0 23 -50 30zM-125 46h10l-110 -210h40v10l-10 10v10l10 10h10l60 -60l-20 -20h-110l-10 10h-10q0 71 140 240zM625 -164l10 -10v-20l-100 -10h-20v10 q0 23 110 30zM505 -284v-30l-20 -20h-80v20z" />
<glyph unicode="y" horiz-adv-x="972" d="M523 1636l70 -20v-20l-60 20l-30 -10v10zM323 1606q150 -486 150 -590q0 -20 -100 -50v-20h40l40 10l120 -40q0 30 20 30h10v-10l-10 -30q54 -58 160 -90v10q-60 23 -60 40l10 10v10l-10 10h-10l-40 -10q-7 60 -40 60v10q8 87 30 90l-10 50q110 460 140 460 q220 -60 220 -90q-90 -196 -90 -290l110 50l20 -20q0 -81 -140 -250q0 -25 -100 -160v-10l20 -30l-30 -80l10 -130h-10l10 -10v-20q-80 -108 -80 -140v-570q-10 -30 -60 -30h-200q-110 0 -110 30v150l-10 240l10 120q0 56 -60 110q-80 292 -130 410l10 90l-30 30l10 30 l-160 500q224 120 350 120zM-87 966h30l100 -10v-20l-100 -20h-30l-20 20v10zM-57 306h20l40 -110l50 10h60v-10q-44 -80 -170 -80l-10 10v20q3 100 20 100l-10 10v50z" />
<glyph unicode="z" horiz-adv-x="995" d="M1017 1758l9 10h19v-10l-19 -20l-9 10v10zM960 1537l18 -30v-130l-9 -50q56 0 65 -80v-80q0 -16 -56 -40v-100l-46 -120l9 -10q-46 -6 -46 -50q-87 -106 -317 -530l-158 -230v-10h18v-10l56 10l401 10l9 -10v-169l9 -100h19v20h19v-20l-19 -20h-261l-102 10l-10 -10h-9 l-93 10l-363 -20l-37 30v299q0 41 65 110q0 49 214 460q139 289 261 430v30h-10l-270 -20l-28 -20h-139l-112 -10v30h47l-28 120v30l9 10l-9 10v190l18 30l75 -10q290 0 810 40zM988 807h18q65 -29 168 -120v-10h-19l-46 10l-9 -10v-10l9 -70l-9 -40l9 -10v-10l-56 -180 l9 -30l-9 -10l-9 10h-19q0 -33 -84 -110l-9 10v10l9 70l-9 10v10q0 50 46 50l28 110q-18 0 -28 60l38 60l-10 10l19 140q0 20 -28 20l-9 10v20z" />
<glyph unicode="{" horiz-adv-x="684" />
<glyph unicode="|" horiz-adv-x="1161" d="M24 1592v-10q0 -20 -30 -20l-10 -30l-10 10h-10l-90 -20l-10 10v10q37 30 160 50zM154 1582q13 -50 30 -50h60l100 10q77 -151 110 -280l-10 -110q0 -89 60 -160l60 -360l-60 -20l-10 10l-30 -10q6 -60 30 -60l70 30l40 -30h20q140 441 140 830v100q0 25 40 30l130 -10 l210 20l10 -10v-20q0 -439 -350 -1330q-52 -235 -130 -430q-80 7 -80 20l-10 -10h-30l-40 10l-40 -10q-59 0 -70 200q-130 601 -220 850q-69 0 -160 410l40 30l-70 30v20h20v10l-10 250h30zM1254 1572l10 -10v-10l-20 -20h-30l-50 10v20zM274 1102v-30l10 -70q20 0 20 30 l-10 70h-20zM314 1002v-70h10l20 20l-20 20l10 50zM564 352v-30l20 -20l10 10l10 30h10l-10 30h-20zM1224 352h10l30 -30v-30l-20 -20h-100l-30 -30l-100 20v10q0 17 120 40q53 40 90 40zM154 -128l10 -10v-10l-10 -10h-10l-10 10v10l10 10h10z" />
<glyph unicode="}" horiz-adv-x="684" />
<glyph unicode="~" horiz-adv-x="1196" />
<glyph unicode="&#xa1;" horiz-adv-x="682" />
<glyph unicode="&#xa2;" />
<glyph unicode="&#xa3;" />
<glyph unicode="&#xa4;" />
<glyph unicode="&#xa5;" />
<glyph unicode="&#xa6;" horiz-adv-x="532" />
<glyph unicode="&#xa7;" />
<glyph unicode="&#xa8;" horiz-adv-x="682" />
<glyph unicode="&#xa9;" horiz-adv-x="1509" />
<glyph unicode="&#xaa;" horiz-adv-x="758" />
<glyph unicode="&#xab;" />
<glyph unicode="&#xac;" horiz-adv-x="1196" />
<glyph unicode="&#xad;" horiz-adv-x="682" />
<glyph unicode="&#xae;" horiz-adv-x="1509" />
<glyph unicode="&#xaf;" horiz-adv-x="1131" />
<glyph unicode="&#xb0;" horiz-adv-x="819" />
<glyph unicode="&#xb1;" horiz-adv-x="1124" />
<glyph unicode="&#xb2;" horiz-adv-x="682" />
<glyph unicode="&#xb3;" horiz-adv-x="682" />
<glyph unicode="&#xb4;" horiz-adv-x="682" />
<glyph unicode="&#xb5;" horiz-adv-x="1180" />
<glyph unicode="&#xb6;" horiz-adv-x="1100" />
<glyph unicode="&#xb7;" horiz-adv-x="569" />
<glyph unicode="&#xb8;" horiz-adv-x="682" />
<glyph unicode="&#xb9;" horiz-adv-x="682" />
<glyph unicode="&#xba;" horiz-adv-x="748" />
<glyph unicode="&#xbb;" />
<glyph unicode="&#xbc;" horiz-adv-x="1708" />
<glyph unicode="&#xbd;" horiz-adv-x="1708" />
<glyph unicode="&#xbe;" horiz-adv-x="1708" />
<glyph unicode="&#xbf;" horiz-adv-x="1251" />
<glyph unicode="&#xc0;" horiz-adv-x="1366" />
<glyph unicode="&#xc1;" horiz-adv-x="1366" />
<glyph unicode="&#xc2;" horiz-adv-x="1366" />
<glyph unicode="&#xc3;" horiz-adv-x="1366" />
<glyph unicode="&#xc4;" horiz-adv-x="1366" />
<glyph unicode="&#xc5;" horiz-adv-x="1366" />
<glyph unicode="&#xc6;" horiz-adv-x="2048" />
<glyph unicode="&#xc7;" horiz-adv-x="1479" />
<glyph unicode="&#xc8;" horiz-adv-x="1366" />
<glyph unicode="&#xc9;" horiz-adv-x="1366" />
<glyph unicode="&#xca;" horiz-adv-x="1366" />
<glyph unicode="&#xcb;" horiz-adv-x="1366" />
<glyph unicode="&#xcc;" horiz-adv-x="569" />
<glyph unicode="&#xcd;" horiz-adv-x="569" />
<glyph unicode="&#xce;" horiz-adv-x="569" />
<glyph unicode="&#xcf;" horiz-adv-x="569" />
<glyph unicode="&#xd0;" horiz-adv-x="1479" />
<glyph unicode="&#xd1;" horiz-adv-x="1479" />
<glyph unicode="&#xd2;" horiz-adv-x="1593" />
<glyph unicode="&#xd3;" horiz-adv-x="1593" />
<glyph unicode="&#xd4;" horiz-adv-x="1593" />
<glyph unicode="&#xd5;" horiz-adv-x="1593" />
<glyph unicode="&#xd6;" horiz-adv-x="1593" />
<glyph unicode="&#xd7;" horiz-adv-x="1196" />
<glyph unicode="&#xd8;" horiz-adv-x="1593" />
<glyph unicode="&#xd9;" horiz-adv-x="1479" />
<glyph unicode="&#xda;" horiz-adv-x="1479" />
<glyph unicode="&#xdb;" horiz-adv-x="1479" />
<glyph unicode="&#xdc;" horiz-adv-x="1479" />
<glyph unicode="&#xdd;" horiz-adv-x="1366" />
<glyph unicode="&#xde;" horiz-adv-x="1366" />
<glyph unicode="&#xdf;" horiz-adv-x="1251" />
<glyph unicode="&#xe0;" />
<glyph unicode="&#xe1;" />
<glyph unicode="&#xe2;" />
<glyph unicode="&#xe3;" />
<glyph unicode="&#xe4;" />
<glyph unicode="&#xe5;" />
<glyph unicode="&#xe6;" horiz-adv-x="1821" />
<glyph unicode="&#xe7;" horiz-adv-x="1024" />
<glyph unicode="&#xe8;" />
<glyph unicode="&#xe9;" />
<glyph unicode="&#xea;" />
<glyph unicode="&#xeb;" />
<glyph unicode="&#xec;" horiz-adv-x="569" />
<glyph unicode="&#xed;" horiz-adv-x="569" />
<glyph unicode="&#xee;" horiz-adv-x="569" />
<glyph unicode="&#xef;" horiz-adv-x="569" />
<glyph unicode="&#xf0;" />
<glyph unicode="&#xf1;" />
<glyph unicode="&#xf2;" />
<glyph unicode="&#xf3;" />
<glyph unicode="&#xf4;" />
<glyph unicode="&#xf5;" />
<glyph unicode="&#xf6;" />
<glyph unicode="&#xf7;" horiz-adv-x="1124" />
<glyph unicode="&#xf8;" horiz-adv-x="1251" />
<glyph unicode="&#xf9;" />
<glyph unicode="&#xfa;" />
<glyph unicode="&#xfb;" />
<glyph unicode="&#xfc;" />
<glyph unicode="&#xfd;" horiz-adv-x="1024" />
<glyph unicode="&#xfe;" />
<glyph unicode="&#xff;" horiz-adv-x="1024" />
<glyph unicode="&#x152;" horiz-adv-x="2048" />
<glyph unicode="&#x153;" horiz-adv-x="1933" />
<glyph unicode="&#x178;" horiz-adv-x="1366" />
<glyph unicode="&#x2c6;" horiz-adv-x="682" />
<glyph unicode="&#x2dc;" horiz-adv-x="682" />
<glyph unicode="&#x2000;" horiz-adv-x="895" />
<glyph unicode="&#x2001;" horiz-adv-x="1791" />
<glyph unicode="&#x2002;" horiz-adv-x="895" />
<glyph unicode="&#x2003;" horiz-adv-x="1791" />
<glyph unicode="&#x2004;" horiz-adv-x="597" />
<glyph unicode="&#x2005;" horiz-adv-x="447" />
<glyph unicode="&#x2006;" horiz-adv-x="298" />
<glyph unicode="&#x2007;" horiz-adv-x="298" />
<glyph unicode="&#x2008;" horiz-adv-x="223" />
<glyph unicode="&#x2009;" horiz-adv-x="358" />
<glyph unicode="&#x200a;" horiz-adv-x="99" />
<glyph unicode="&#x2010;" horiz-adv-x="682" />
<glyph unicode="&#x2011;" horiz-adv-x="682" />
<glyph unicode="&#x2012;" horiz-adv-x="682" />
<glyph unicode="&#x2013;" />
<glyph unicode="&#x2014;" horiz-adv-x="2048" />
<glyph unicode="&#x2018;" horiz-adv-x="455" />
<glyph unicode="&#x2019;" horiz-adv-x="455" />
<glyph unicode="&#x201a;" horiz-adv-x="455" />
<glyph unicode="&#x201c;" horiz-adv-x="682" />
<glyph unicode="&#x201d;" horiz-adv-x="682" />
<glyph unicode="&#x201e;" horiz-adv-x="682" />
<glyph unicode="&#x2022;" horiz-adv-x="717" />
<glyph unicode="&#x2026;" horiz-adv-x="2048" />
<glyph unicode="&#x202f;" horiz-adv-x="358" />
<glyph unicode="&#x2039;" horiz-adv-x="682" />
<glyph unicode="&#x203a;" horiz-adv-x="682" />
<glyph unicode="&#x205f;" horiz-adv-x="447" />
<glyph unicode="&#x20ac;" />
<glyph unicode="&#x2122;" horiz-adv-x="2048" />
<glyph unicode="&#xe000;" horiz-adv-x="1635" d="M0 1635h1635v-1635h-1635v1635z" />
</font>
</defs>
</svg>
