<?xml version="1.0" standalone="no"?>
<!DOCTYPE svg PUBLIC "-//W3C//DTD SVG 1.1//EN" "http://www.w3.org/Graphics/SVG/1.1/DTD/svg11.dtd" >
<svg xmlns="http://www.w3.org/2000/svg">
<metadata></metadata>
<defs>
<font id="economicaitalic" horiz-adv-x="410" >
<font-face units-per-em="1000" ascent="800" descent="-200" />
<missing-glyph horiz-adv-x="190" />
<glyph unicode="&#xfb01;" horiz-adv-x="411" d="M50 -200l105 658l8 25h-53l9 54h53v25l2 16q7 44 10 61.5t12.5 40.5t17.5 29t29.5 14t45 8.5t66.5 0.5h101l-7 -50h-101h-41.5t-27 -4.5t-19 -8t-10.5 -19t-9 -28t-7 -44.5l-2 -16l-8 -25h152q27 0 36 -3.5t9 -15.5q0 -9 -3 -27l-77 -491q-20 0 -28 0.5t-15.5 2t-9.5 5.5 t-2 11q0 9 3 27l69 437h-144v-25l-95 -601q-7 -43 -16 -50t-53 -7z" />
<glyph unicode="&#xfb02;" horiz-adv-x="405" d="M49 -200l105 658l8 25h-53l9 54h53v25l2 16q7 44 10 61.5t12.5 40.5t17.5 29t29.5 14t45 8.5t66.5 0.5h42q20 0 28 -0.5t15.5 -2t9.5 -5.5t2 -11q0 -9 -3 -27l-108 -686q-20 0 -28 0.5t-15.5 2t-9.5 5.5t-2 11q0 9 3 27l101 636h-42h-41.5t-27 -4.5t-19 -8t-10.5 -19 t-9 -28t-7 -44.5l-2 -16l-8 -25h69l-9 -54h-70v-25l-95 -601q-7 -43 -16 -50t-53 -7z" />
<glyph unicode="&#xfb03;" horiz-adv-x="574" d="M-72 -200l7 44q39 0 62.5 8.5t37.5 31.5t20 46.5t13 69.5l70 453l10 30h-54l9 54h53v30l2 11q5 31 8 46.5t9 35.5t14.5 29t21.5 19.5t32.5 14t45.5 6t62 2.5l-7 -47q-78 0 -96 -15.5t-30 -90.5l-11 -41h139v30l2 11q5 31 8 46.5t9 35.5t14.5 29t21.5 19.5t32.5 14t45.5 6 t62 2.5h82l-8 -47h-81q-78 0 -96 -15.5t-30 -90.5l-11 -41h90l-9 -54h-91v-30l-72 -453q-5 -29 -8 -44t-10 -40.5t-15 -38.5t-23 -30.5t-33.5 -26t-46 -14.5t-61.5 -6l7 44q39 0 62.5 8.5t37.5 31.5t20 46.5t13 69.5l70 453l10 30h-141v-30l-72 -453q-5 -29 -8 -44 t-10 -40.5t-15 -38.5t-23 -30.5t-33.5 -26t-46 -14.5t-61.5 -6zM444 15q0 9 82 522q35 0 45 -2.5t10 -15.5q0 -4 -4 -28l-78 -495q-20 0 -28 0.5t-15.5 2t-9.5 5.5t-2 11z" />
<glyph unicode="&#xfb04;" horiz-adv-x="562" d="M-72 -200l7 44q39 0 62.5 8.5t37.5 31.5t20 46.5t13 69.5l70 453l10 30h-54l9 54h53v30l2 11q5 31 8 46.5t9 35.5t14.5 29t21.5 19.5t32.5 14t45.5 6t62 2.5l-7 -47q-78 0 -96 -15.5t-30 -90.5l-11 -41h137v30l2 11q5 31 8 46.5t9 35.5t14.5 29t21.5 19.5t32.5 14t45.5 6 t62 2.5h33q20 0 27.5 -0.5t15.5 -2t10 -5.5t2 -12t-112 -715q-20 0 -28 0.5t-15.5 2t-9.5 5.5t-2 11q0 9 104 669h-33q-77 0 -95 -15.5t-30 -90.5l-11 -41h90l-9 -54h-91v-30l-72 -453q-5 -29 -8 -44t-10 -40.5t-15 -38.5t-23 -30.5t-33.5 -26t-46 -14.5t-61.5 -6l7 44 q39 0 62.5 8.5t37.5 31.5t20 46.5t13 69.5l70 453l10 30h-139v-30l-72 -453q-5 -29 -8 -44t-10 -40.5t-15 -38.5t-23 -30.5t-33.5 -26t-46 -14.5t-61.5 -6z" />
<glyph horiz-adv-x="1000" />
<glyph horiz-adv-x="1000" />
<glyph unicode="&#xd;" horiz-adv-x="1000" />
<glyph unicode=" "  horiz-adv-x="190" />
<glyph unicode="&#x09;" horiz-adv-x="190" />
<glyph unicode="&#xa0;" horiz-adv-x="190" />
<glyph unicode="!" horiz-adv-x="161" d="M40 41q0 20 16.5 36.5t37.5 16.5q17 0 28 -11t11 -28q0 -21 -16 -36t-36 -15q-18 0 -29.5 10.5t-11.5 26.5zM93 188l85 492q4 26 12.5 34.5t29.5 8.5l35 -2l-96 -491q-6 -29 -11 -36.5t-24 -7.5z" />
<glyph unicode="&#x22;" horiz-adv-x="332" d="M140 530q29 64 29 106q0 18 -5.5 33t-5.5 17q0 18 17.5 32t35.5 14q17 0 28 -11t11 -29q0 -13 -18.5 -59.5t-37 -87t-19.5 -40.5zM284 530q29 64 29 106q0 18 -5.5 33t-5.5 17q0 18 17.5 32t35.5 14q17 0 28 -11t11 -29q0 -13 -18.5 -59.5t-37 -87t-19.5 -40.5z" />
<glyph unicode="#" horiz-adv-x="655" d="M40 0l133 239h-114l10 63h139l80 142h-153l10 63h179l125 225h68l-125 -225h145l125 225h68l-125 -225h109l-10 -63h-135l-80 -142h149l-10 -63h-174l-133 -239h-68l133 239h-145l-133 -239h-68zM276 302h145l80 142h-145z" />
<glyph unicode="$" horiz-adv-x="392" d="M76 10l7 46q8 -1 50 -5.5t64 -4.5q24 0 39.5 7t24 23.5t12 30.5t7.5 40q1 9 2 13v6q0 21 -24.5 48t-53.5 50.5t-53.5 57.5t-24.5 67q0 144 133 154l14 88q29 0 36.5 -2.5t7.5 -15.5q0 -4 -1.5 -13.5t-1.5 -14.5l-6 -48l62 -9q-8 -45 -42 -45q-5 0 -15 2l-34 6 q-54 0 -73.5 -24.5t-19.5 -65.5q0 -22 25.5 -50t56.5 -51.5t56.5 -56t25.5 -63.5q0 -8 -1 -12q-5 -30 -8 -45.5t-12 -41.5t-21 -40t-33 -27t-49 -18l-20 -117q-28 0 -36 2.5t-8 14.5q0 3 4 29l9 68q-11 1 -99 17z" />
<glyph unicode="%" horiz-adv-x="611" d="M114 0l409 732h68l-409 -732h-68zM131 498q0 106 32 172t95 66q43 0 61 -14.5t18 -60.5q0 -105 -34.5 -175.5t-95.5 -70.5q-40 0 -58 17.5t-18 65.5zM184 580q0 -2 -1 -6q-4 -20 -5.5 -33.5t-1 -34.5t10 -32t28.5 -11q22 0 38 20.5t23 52.5t10 58.5t3 50.5q0 29 -9 36 t-30 7q-19 0 -28 -4.5t-19.5 -28.5t-18.5 -75zM360 76q0 106 32 172t95 66q43 0 61 -14.5t18 -60.5q0 -105 -34.5 -175.5t-95.5 -70.5q-40 0 -58 17.5t-18 65.5zM407 89q0 -29 9 -38.5t28 -9.5q23 0 39 20t23 52t9.5 58.5t2.5 51.5q0 29 -8.5 36t-29.5 7q-32 0 -52.5 -54 t-20.5 -123z" />
<glyph unicode="&#x26;" horiz-adv-x="536" d="M74 143q0 86 35 152t87 102q-18 15 -25.5 23t-15.5 26.5t-8 43.5q0 61 17 105t44.5 66t55 31t56.5 9l118 -9l-3 -15t-1.5 -10.5t-3.5 -8t-4 -4.5t-7 -3t-8.5 -2t-13 -2t-16.5 -2h-70q-101 0 -101 -160q0 -40 18 -50t62 -10l-10 -59q-56 0 -98.5 -57t-42.5 -151 q0 -109 107 -109q126 0 152 158l22 134l7 25h-53l9 54h53v25l7 44q21 0 29.5 -0.5t17 -2.5t10.5 -6.5t2 -13.5q0 -3 -2 -23l-8 -23h81q-5 -36 -14 -45t-45 -9h-30v-25l-22 -134q-18 -108 -71.5 -161t-153.5 -53q-85 0 -124 37t-39 113z" />
<glyph unicode="'" horiz-adv-x="165" d="M115 530q46 101 46 145q0 24 15 40.5t38 16.5q17 0 28 -11t11 -29q0 -14 -25 -60.5t-50 -86.5t-28 -40z" />
<glyph unicode="(" horiz-adv-x="248" d="M64 41q0 81 13 195t40 242t79 215.5t118 87.5q21 0 45 -9q-6 -35 -13.5 -41t-44.5 -6q-46 0 -89.5 -150.5t-65.5 -310.5t-22 -238q0 -46 12.5 -67.5t42.5 -21.5q29 0 37.5 -3t8.5 -15q0 -3 -4 -29q-88 0 -122.5 34.5t-34.5 116.5z" />
<glyph unicode=")" horiz-adv-x="249" d="M4 -110q5 35 12.5 41t44.5 6q46 0 87.5 150.5t61 308.5t19.5 237q0 47 -12.5 69.5t-41.5 22.5t-37.5 2.5t-8.5 14.5q0 4 4 30q87 0 121 -36.5t34 -120.5q0 -63 -6 -146.5t-23 -189.5t-42.5 -192.5t-69 -146.5t-97.5 -60q-23 0 -46 10z" />
<glyph unicode="*" horiz-adv-x="302" d="M121 587l9 46h86l-38 73l48 26l28 -78l50 77l40 -26l-58 -67h85l-8 -46h-87l40 -72l-49 -25l-28 78l-50 -76l-40 25l58 65h-86z" />
<glyph unicode="+" horiz-adv-x="243" d="M62 300l8 51h85v25l13 66h51l-13 -66l-8 -25h86l-8 -51h-86v-25l-13 -67h-51l13 67l8 25h-85z" />
<glyph unicode="," horiz-adv-x="154" d="M16 -96q14 24 22.5 40t12 31.5t4 21t0 23t-0.5 23.5q0 19 17 33.5t36 14.5q35 0 35 -31q0 -20 -45 -97t-51 -77z" />
<glyph unicode="-" horiz-adv-x="336" d="M107 300l8 51h214l-8 -51h-214z" />
<glyph unicode="." horiz-adv-x="177" d="M49 39q0 20 16.5 36t37.5 16q17 0 28 -10.5t11 -27.5q0 -21 -16.5 -37t-36.5 -16q-17 0 -28.5 11t-11.5 28z" />
<glyph unicode="/" horiz-adv-x="372" d="M-22 -200l440 932h64l-441 -932h-63z" />
<glyph unicode="0" d="M60 124q0 88 12.5 186t37.5 196t73 162t110 64q64 0 90 -30.5t26 -97.5q0 -88 -12.5 -186.5t-38 -197t-73.5 -163t-109 -64.5q-64 0 -90 31.5t-26 99.5zM126 151q0 -47 14 -69.5t47 -22.5q46 0 84 103.5t55 219.5t17 195q0 46 -14 68t-46 22q-48 0 -86 -103t-54.5 -218 t-16.5 -195z" />
<glyph unicode="1" d="M60 0l9 57h93l97 610l-64 -10l8 53l65 10h5q19 0 26.5 -0.5t15 -2t9.5 -5.5t2 -11q0 -9 -3 -27l-97 -617h67q34 0 44 -3.5t10 -18.5q0 -7 -4 -35h-283z" />
<glyph unicode="2" d="M60 0l36 229q6 38 33 77t62 71t70 63t61.5 65.5t31.5 67.5q5 40 5 43q0 29 -20.5 44t-74.5 15h-50q-30 0 -38 2.5t-8 15.5q0 3 4 29l107 10q87 0 119.5 -22t32.5 -69q0 -25 -9 -75q-8 -50 -48.5 -102t-85 -89t-83.5 -79.5t-44 -74.5l-23 -139l-7 -25h211l-9 -57h-273z " />
<glyph unicode="3" d="M60 10l8 49q7 -1 44 -5.5t58 -4.5q59 0 76.5 33t37.5 159q16 108 16 131q0 35 -15 47t-54 12h-49l135 236h-152l9 53h239l-135 -237q49 -4 68.5 -23t19.5 -63q0 -32 -16 -137q-24 -154 -40 -193q-22 -53 -72 -67q-27 -7 -72 -7q-16 0 -33.5 2.5t-39.5 7.5t-33 7z" />
<glyph unicode="4" d="M10 248l275 472h74l-63 -395l-8 -25h44l-8 -52h-44v-25l-35 -223h-2q-19 0 -27 0.5t-15.5 2t-9.5 5.5t-2 11q0 9 3 27l28 177l8 25h-218zM110 300h126v25l47 295h-8z" />
<glyph unicode="5" d="M60 0l7 46h104q34 0 60.5 32t41 83t21.5 105t7 106q0 35 -15 47t-54 12h-103l46 289h239l-9 -53h-180v-25l-21 -133l-8 -25h76q53 0 73.5 -20t20.5 -68q0 -56 -7 -118.5t-23 -131.5t-49 -113.5t-79 -44.5q-35 0 -148 12z" />
<glyph unicode="6" d="M84 297q12 74 20 118t21 101.5t27 90.5t34.5 65t47 46t59.5 14l119 -10q-5 -35 -13 -41t-45 -6h-70q-36 0 -54.5 -41.5t-49.5 -167.5l63 25q72 0 99 -19t27 -72q0 -400 -203 -400q-25 0 -44 6.5t-30 19.5t-19 27.5t-10 36.5t-2.5 39.5t3 44t6.5 43.5t7.5 43t6.5 37z M168 415q-1 -16 -7.5 -46.5t-13 -62.5t-13.5 -69t-9 -68.5t0.5 -58t14.5 -42t34 -15.5q34 0 60.5 32t41 82.5t21.5 104.5t7 107q0 35 -15 47t-54 12z" />
<glyph unicode="7" d="M90 0l302 667h-207l9 53h276l-9 -53l-307 -667h-64z" />
<glyph unicode="8" d="M60 143q0 87 34.5 153t86.5 101q-45 36 -45 113q0 53 15 102.5t54 88.5t96 39q107 0 107 -124q0 -81 -29 -141.5t-68 -86.5q59 -50 59 -138q0 -56 -18.5 -112.5t-63.5 -100.5t-106 -44q-59 0 -90.5 38t-31.5 112zM123 146q0 -97 68 -97q48 0 82 55.5t34 150.5 q0 52 -19 81.5t-47 29.5q-43 0 -80.5 -61t-37.5 -159zM198 497q0 -39 13 -55.5t40 -16.5q28 0 48 20t29 52.5t13 61.5t4 58q0 38 -13 52.5t-40 14.5q-29 0 -49 -19t-29 -50.5t-12.5 -59.5t-3.5 -58z" />
<glyph unicode="9" d="M60 10l8 47h120q34 0 61 51.5t55 166.5l-65 -34q-73 0 -99.5 19t-26.5 71q0 401 203 401q60 0 83 -20t23 -75q0 -44 -24 -202q-10 -66 -16.5 -102t-17.5 -89.5t-21.5 -83t-27 -65t-35 -53t-44.5 -30t-57 -12.5zM178 353q0 -35 14.5 -47t54.5 -12l69 32q17 80 30.5 173.5 t13.5 124.5q0 32 -11.5 43.5t-40.5 11.5q-34 0 -60.5 -32t-41 -82.5t-21.5 -104.5t-7 -107z" />
<glyph unicode=":" horiz-adv-x="181" d="M47 39q0 20 16.5 36t37.5 16q17 0 28 -10.5t11 -27.5q0 -21 -16.5 -37t-36.5 -16q-17 0 -28.5 11t-11.5 28zM124 485q0 20 17 36t38 16q17 0 27.5 -10.5t10.5 -27.5q0 -21 -16.5 -37t-36.5 -16q-17 0 -28.5 11t-11.5 28z" />
<glyph unicode=";" horiz-adv-x="153" d="M16 -96q14 24 22.5 40t12 31.5t4 21t0 23t-0.5 23.5q0 19 17 33.5t36 14.5q35 0 35 -31q0 -20 -45 -97t-51 -77zM118 485q0 20 17 36t38 16q17 0 27.5 -10.5t10.5 -27.5q0 -21 -16.5 -37t-36.5 -16q-17 0 -28.5 11t-11.5 28z" />
<glyph unicode="&#x3c;" horiz-adv-x="237" d="M55 288l4 26l169 223h54l-176 -236l101 -244h-55z" />
<glyph unicode="=" horiz-adv-x="363" d="M99 247l8 51h273l-8 -51h-273zM115 351l8 51h273l-8 -51h-273z" />
<glyph unicode="&#x3e;" horiz-adv-x="236" d="M47 57l177 244l-100 236h54l97 -223l-4 -26l-169 -231h-55z" />
<glyph unicode="?" horiz-adv-x="339" d="M66 39q0 20 16.5 36t37.5 16q17 0 28 -10.5t11 -27.5q0 -21 -16.5 -37t-36.5 -16q-17 0 -28.5 11t-11.5 28zM106 198l5 31q7 43 32.5 84t56.5 73.5t61.5 66t51 74t20.5 84.5q0 32 -21.5 48t-78.5 16h-40q-29 0 -37.5 2.5t-8.5 15.5q0 3 4 29l97 10q87 0 119 -22t32 -69 q0 -17 -8 -71q-8 -51 -42.5 -102.5t-71.5 -87t-70 -77.5t-38 -74l-5 -31h-58z" />
<glyph unicode="@" horiz-adv-x="556" d="M79 112q0 58 36 287q10 67 37 96.5t108 35.5q248 13 256 13q40 0 56 -16t16 -47q0 -16 -3 -34l-25 -157q-5 -33 -8 -48.5t-10 -34t-15.5 -25.5t-25 -14.5t-37.5 -9t-54 -1.5q-35 0 -46.5 7.5t-15.5 24.5l-67 -37q-37 0 -49 6.5t-12 32.5q0 24 11 92l6 36q14 83 149 83h46 l-27 -173l-10 -19h24q52 0 64.5 13t20.5 65l26 165q0 2 0.5 5.5t0.5 4.5q0 26 -30 26q-3 0 -251 -16q-24 -1 -39 -7t-22.5 -17.5t-10 -20.5t-5.5 -27q-34 -220 -34 -271q0 -49 14 -71t47 -22h181q30 0 39 -3.5t9 -17.5q0 -4 -4 -32h-236q-60 0 -85 30t-25 98zM275 216 q0 -10 5 -12l77 32v11l16 103q-75 0 -79 -20l-12 -66q-7 -34 -7 -48z" />
<glyph unicode="A" horiz-adv-x="435" d="M27 13v2q-1 4 50 137q105 269 220 568h64l49 -720h-5q-45 0 -53 6t-10 40l-13 199h-152l-92 -245h-5q-33 0 -43 2t-10 11zM195 300h136l-13 25v267h-19l-91 -267z" />
<glyph unicode="B" horiz-adv-x="435" d="M75 0l114 722l105 10q89 0 122 -26t33 -79q0 -74 -17.5 -142t-45.5 -90q40 -25 40 -95q0 -54 -3 -91.5t-16 -82.5t-36.5 -72t-67.5 -45t-106 -16zM141 50h65q42 0 71.5 14.5t45.5 35.5t25 56t11 64t2 72q0 38 -20.5 54t-74.5 16h-75v-25l-42 -262zM200 419h35 q40 0 67.5 8.5t43.5 22t24 40t10 51.5t2 67q0 37 -22.5 52t-84.5 15h-35v-25l-32 -206z" />
<glyph unicode="C" horiz-adv-x="377" d="M98 154q0 63 6 133.5t23.5 155.5t44 149.5t73.5 105.5t106 34l97 -20q-7 -44 -45 -44q-2 0 -6 0.5t-6 0.5l-49 6q-47 7 -84 -50t-56.5 -145t-29 -168t-9.5 -138q0 -57 18.5 -87t63.5 -30q23 0 55.5 4.5t46.5 5.5l-9 -57q-11 -2 -46 -9.5t-58 -7.5q-75 0 -105.5 41 t-30.5 120z" />
<glyph unicode="D" horiz-adv-x="472" d="M75 0l114 722l162 10q75 0 106 -40.5t31 -117.5q0 -62 -6 -131t-23 -152t-43 -147t-71.5 -107.5t-103.5 -43.5q-5 0 -166 7zM141 50h102q47 0 84.5 57.5t57 143t29 165.5t9.5 143q0 57 -18.5 86.5t-62.5 29.5h-102v-25l-91 -575z" />
<glyph unicode="E" horiz-adv-x="385" d="M75 0l114 720h263l-9 -53h-201v-25l-31 -199l-8 -25h187l-9 -57h-187v-25l-41 -254l-7 -25h211l-9 -57h-273z" />
<glyph unicode="F" horiz-adv-x="375" d="M79 19q0 9 3 27l107 674h263l-9 -53h-201v-25l-31 -199l-8 -25h187l-9 -57h-187v-25l-53 -336h-8q-19 0 -27 0.5t-15.5 2t-9.5 5.5t-2 11z" />
<glyph unicode="G" horiz-adv-x="446" d="M108 154q0 61 5.5 129.5t21.5 151t41 147t68.5 108t99.5 43.5l134 -21q-7 -44 -45 -44l-90 7q-45 0 -80.5 -59.5t-53.5 -146.5t-27.5 -165.5t-9.5 -135.5q0 -58 18.5 -88t62.5 -30q16 0 47.5 5t35.5 5v25l35 222q7 43 14 50.5t41 7.5h17l-56 -355q-15 -2 -45 -7 t-53.5 -7.5t-44.5 -2.5q-75 0 -105.5 41t-30.5 120z" />
<glyph unicode="H" horiz-adv-x="457" d="M75 0l114 720h4q19 0 26.5 -0.5t15 -2t9.5 -5.5t2 -11q0 -9 -39 -258l-8 -25h191v25l44 277h4q19 0 26.5 -0.5t15 -2t9.5 -5.5t2 -11q0 -9 -109 -701h-4q-20 0 -27.5 0.5t-15 2t-9.5 5.5t-2 11q0 9 49 317l8 25h-191v-25l-46 -290q-5 -34 -13.5 -40t-51.5 -6h-4z" />
<glyph unicode="I" horiz-adv-x="213" d="M79 19q0 9 110 701h5q19 0 26.5 -0.5t15 -2t9.5 -5.5t2 -11q0 -9 -109 -701h-5q-19 0 -27 0.5t-15.5 2t-9.5 5.5t-2 11z" />
<glyph unicode="J" horiz-adv-x="246" d="M-8 -150q15 0 28 3t23.5 11t19.5 15.5t17 23t13.5 27t11.5 33.5t9.5 36.5t9 43.5t8.5 45.5t8 50.5l92 581h5q19 0 26.5 -0.5t15 -2t9.5 -5.5t2 -11q0 -9 -87 -562q-8 -52 -14 -84t-15.5 -72.5t-19.5 -64t-25.5 -49t-34 -39t-44.5 -22t-58 -8.5v50z" />
<glyph unicode="K" horiz-adv-x="412" d="M75 0l114 720h4q19 0 26.5 -0.5t15 -2t9.5 -5.5t2 -11q0 -9 -102 -655q-5 -34 -13.5 -40t-51.5 -6h-4zM208 363l206 357h4q31 0 41 -1.5t10 -8.5v-1q0 -4 -35 -66q-75 -132 -158 -280l99 -363h-4q-47 0 -60 6.5t-24 39.5z" />
<glyph unicode="L" horiz-adv-x="361" d="M75 0l114 720h8q19 0 26.5 -0.5t15 -2t9.5 -5.5t2 -11q0 -9 -97 -619l-7 -25h129q19 0 26.5 -0.5t15 -2t9.5 -5.5t2 -11l-4 -38h-249z" />
<glyph unicode="M" horiz-adv-x="584" d="M70 0l114 720h5q43 0 52.5 -6t19.5 -40l84 -274h15l200 320h5q19 0 26.5 -0.5t15 -2t9.5 -5.5t2 -11q0 -9 -109 -701h-4q-20 0 -28 0.5t-15.5 2t-9.5 5.5t-2 12q0 9 87 558h-5l-7 -18l-131 -213l-31 -46h-52q-19 49 -49 147.5t-34 111.5v18h-5l-84 -532q-5 -34 -13.5 -40 t-51.5 -6h-4z" />
<glyph unicode="N" horiz-adv-x="455" d="M70 0l114 720h5q43 0 51.5 -6t14.5 -40l88 -486v-27h5l89 559h4q19 0 26.5 -0.5t15 -2t9.5 -5.5t2 -11q0 -9 -109 -701h-4q-43 0 -52 6t-16 40l-90 475v27h-5l-79 -502q-5 -34 -13.5 -40t-51.5 -6h-4z" />
<glyph unicode="O" horiz-adv-x="481" d="M102 168q0 94 14 188.5t42.5 181t80 140.5t117.5 54q74 0 105.5 -40.5t31.5 -129.5q0 -94 -14.5 -189.5t-43 -183t-79.5 -142t-117 -54.5q-74 0 -105.5 42.5t-31.5 132.5zM170 181q0 -66 18 -98.5t60 -32.5q43 0 78 53.5t55.5 133.5t31.5 161t11 147t-18 98t-59 32 q-42 0 -77.5 -53.5t-56.5 -133.5t-32 -161t-11 -146z" />
<glyph unicode="P" horiz-adv-x="459" d="M75 0l114 722l135 10q95 0 129.5 -26t34.5 -81q0 -53 -3 -88.5t-16 -76t-36.5 -63.5t-66 -39t-103.5 -16h-75v-25l-43 -271q-5 -34 -14 -40t-51 -6h-5zM197 399h75q50 0 81 15t45.5 46.5t19 64t4.5 83.5q0 37 -22.5 52t-84.5 15h-75v-25l-35 -226z" />
<glyph unicode="Q" horiz-adv-x="468" d="M75 -123l3 17q3 21 9 25l113 78q-52 10 -75 52t-23 121q0 94 14.5 188.5t43.5 180t80 139.5t116 54q73 0 104.5 -42t31.5 -132q0 -64 -12.5 -154.5t-34.5 -182.5t-60.5 -155.5t-83.5 -63.5l-128 -79q27 -2 165.5 -20t176.5 -18q12 0 17 1l12 -2l-3 -19q-4 -27 -12 -31.5 t-52 -4.5q-30 0 -186 23.5t-191 23.5q-3 0 -7 -0.5t-5 -0.5zM167 186q0 -136 81 -136q43 0 79.5 53t57 132t32 160t11.5 147q0 67 -19 100t-62 33q-44 0 -80 -52.5t-57 -130.5t-32 -158.5t-11 -147.5z" />
<glyph unicode="R" horiz-adv-x="453" d="M75 0l114 722l115 10q83 0 114 -25t31 -78q0 -45 -7 -91t-22 -93t-45 -75.5t-71 -26.5l112 -343h-4q-51 0 -62 5.5t-21 40.5l-88 296h-53v-25l-43 -271h1q-5 -34 -13.5 -40t-51.5 -6h-6zM197 399h55q42 0 69 17t39.5 50t17 66t4.5 81q0 34 -18.5 48t-68.5 14h-51 q-8 -49 -22 -139.5t-17 -111.5z" />
<glyph unicode="S" horiz-adv-x="391" d="M39 13l8 56l145 -10q41 0 68.5 14t40.5 40.5t18 54t5 63.5q0 31 -31 70.5t-68 73t-68 80.5t-31 91q0 95 39 141t151 45l103 -20q-4 -25 -12.5 -33.5t-24.5 -8.5q-2 0 -6.5 0.5t-6.5 0.5l-55 6q-70 0 -96 -30.5t-26 -87.5q0 -35 31 -74.5t68 -70.5t68 -74.5t31 -86.5 q0 -259 -210 -260z" />
<glyph unicode="T" horiz-adv-x="333" d="M130 667l9 53h283l-9 -53h-113v-25l-94 -596q-5 -34 -13.5 -40t-51.5 -6h-8l101 642l8 25h-112z" />
<glyph unicode="U" horiz-adv-x="468" d="M101 114q0 34 13 121.5t76 484.5h7q19 0 26.5 -0.5t15 -2t9.5 -5.5t2 -11q0 -9 -3 -27q-17 -109 -41 -262q-40 -252 -39 -282q0 -42 16.5 -61t58.5 -19q49 0 73 37q35 54 75 281q17 98 57 352h7q19 0 26.5 -0.5t15 -2t9.5 -5.5t2 -11q0 -9 -3 -27q-71 -457 -113 -569 t-158 -112q-74 0 -103 29t-29 92z" />
<glyph unicode="V" horiz-adv-x="414" d="M92 80v640h10q40 0 47 -6t7 -40v-547h13l223 593h15q25 0 31.5 -1.5t6.5 -9.5v-4v-1l-3 -10q-56 -147 -228 -614q-22 -60 -31 -70t-39 -10q-2 0 -5.5 0.5t-12 5t-15.5 12t-12.5 24t-6.5 38.5z" />
<glyph unicode="W" horiz-adv-x="572" d="M80 80v640h12q36 0 41.5 -5.5t6.5 -40.5l5 -546h17l122 338l25 54h57l22 -55v-337h16l196 592h33q29 0 29 -17q0 -19 -213 -623q-21 -60 -29.5 -70t-38.5 -10q-2 0 -5.5 0.5t-12 5t-15.5 12t-12.5 24t-6.5 38.5v329h-13l-117 -329q-22 -61 -30 -70.5t-38 -9.5 q-2 0 -5.5 0.5t-12 5t-15.5 12t-12.5 24t-5.5 38.5z" />
<glyph unicode="X" horiz-adv-x="383" d="M25 0l188 356l-64 364h23q32 0 39 -6t13 -40l35 -253h19l136 299h27q28 0 28 -12q0 -20 -180 -352l66 -356h-21q-34 0 -40.5 5.5t-12.5 40.5l-34 237h-19l-113 -237q-17 -34 -26 -40t-41 -6h-23z" />
<glyph unicode="Y" horiz-adv-x="375" d="M139 720h15q38 0 45.5 -5.5t13.5 -40.5l43 -242h5l147 288h27q27 0 27 -11q0 -20 -187 -362l-54 -347h-5q-20 0 -27.5 0.5t-15 2t-9.5 5.5t-2 11q0 9 50 328z" />
<glyph unicode="Z" horiz-adv-x="370" d="M37 0l9 57l323 610h-217q7 40 13.5 46.5t41.5 6.5h240l-9 -53l-326 -610h158q34 0 44 -3.5t10 -18.5q0 -7 -4 -35h-283z" />
<glyph unicode="[" horiz-adv-x="201" d="M52 -53q0 3 130 825h80q31 0 40 -2.5t9 -14.5q0 -3 -4 -29h-80l-118 -750h27q31 0 40 -2.5t9 -14.5q0 -3 -4 -29h-80q-31 0 -40 2.5t-9 14.5z" />
<glyph unicode="\" horiz-adv-x="372" d="M120 732h64l147 -932h-64z" />
<glyph unicode="]" horiz-adv-x="204" d="M-3 -70q5 34 12.5 40t47.5 6h27l118 750h-80q6 35 13.5 40.5t47.5 5.5h80l-126 -796q-5 -34 -13 -40t-48 -6h-79z" />
<glyph unicode="^" horiz-adv-x="411" d="M134 607l8 55l165 70h26l144 -71l-8 -54l-156 76z" />
<glyph unicode="_" horiz-adv-x="613" d="M59 -1l8 51h492l-8 -51h-492z" />
<glyph unicode="`" horiz-adv-x="172" d="M120 701l8 7q27 24 35 24q11 0 38 -33l56 -76l-41 -36z" />
<glyph unicode="a" horiz-adv-x="368" d="M64 94q0 56 8 126t25.5 148t53 130t82.5 52q15 0 32 -6q21 -7 47 -15t38 -12t24.5 -9.5t17 -10.5t4.5 -12q0 -4 -75 -485q-35 0 -46 3.5t-9 17.5l9 66l-116 -94q-59 0 -77 22t-18 79zM125 113q0 -38 7 -49.5t37 -11.5l118 86v25l45 277l8 25q-86 28 -101 28 q-38 0 -66 -84t-38 -166.5t-10 -129.5z" />
<glyph unicode="b" horiz-adv-x="373" d="M55 0l115 732q20 0 27.5 -0.5t15 -2t9.5 -5.5t2 -12q0 -9 -25 -168h74q63 0 87.5 -25t24.5 -82q0 -55 -8 -124t-25 -146t-51 -128.5t-79 -51.5q-18 0 -101 66q-6 -40 -14.5 -46.5t-51.5 -6.5zM123 92q84 -51 92 -51q34 0 60.5 80.5t37.5 163t11 131.5q0 38 -13 56.5 t-43 18.5h-87l5 -19l-55 -355z" />
<glyph unicode="c" horiz-adv-x="304" d="M71 96q0 55 7.5 124t24.5 147t51.5 130.5t80.5 52.5q10 0 113 -19q-8 -45 -42 -45q-12 0 -34 5t-32 5q-35 0 -61.5 -83t-36.5 -165.5t-10 -130.5q0 -38 12.5 -54.5t43.5 -16.5l88 10l-7 -46l-90 -17q-60 0 -84 24t-24 79z" />
<glyph unicode="d" horiz-adv-x="388" d="M71 94q0 56 8 126t25.5 148t53 130t82.5 52l105 -6l30 188q19 0 27 -0.5t15.5 -2t9.5 -5.5t2 -11q0 -9 -3 -27l-108 -686q-19 0 -26.5 0.5t-15.5 2t-10 5.5t-2 12q0 5 4 33l-89 -60q-60 0 -84 23.5t-24 77.5zM132 113q0 -36 13 -51.5t44 -15.5l89 45v25l55 350l8 25 l-95 2q-38 0 -66 -84t-38 -166.5t-10 -129.5z" />
<glyph unicode="e" horiz-adv-x="353" d="M71 95q0 37 20 168q8 48 11.5 70t11 57t13.5 50t16 37.5t21.5 31t27.5 19t36.5 13.5t46.5 3q53 0 73.5 -22.5t20.5 -69.5q0 -22 -3.5 -45.5t-14 -60t-38.5 -60t-69 -23.5h-99v-25q-15 -90 -15 -124q0 -36 14.5 -51t51.5 -15q61 0 119 13l-8 -51q-79 -17 -120 -17 q-66 0 -91 23t-25 79zM160 317h76q22 0 38 14t23 34.5t10 36.5t3 28q0 61 -44 61q-22 0 -38 -7t-25 -16.5t-16 -32t-10.5 -39.5t-8.5 -54z" />
<glyph unicode="f" horiz-adv-x="231" d="M-72 -200l7 44q39 0 62.5 8.5t37.5 31.5t20 46.5t13 69.5l70 453l10 30h-54l9 54h53v30l2 11q5 31 8 46.5t9 35.5t14.5 29t21.5 19.5t32.5 14t45.5 6t62 2.5l-7 -47q-78 0 -96 -15.5t-30 -90.5l-11 -41h90l-9 -54h-91v-30l-72 -453q-5 -29 -8 -44t-10 -40.5t-15 -38.5 t-23 -30.5t-33.5 -26t-46 -14.5t-61.5 -6z" />
<glyph unicode="g" horiz-adv-x="373" d="M62 -182l3 29l96 7q55 0 68.5 14.5t23.5 74.5q1 4 1 7t1 6l14 83l-84 -46q-64 0 -89.5 26t-25.5 87q0 44 4.5 97t17 115.5t31 112.5t49 83.5t68.5 33.5l108 -11q34 0 44 -2.5t10 -15.5q0 -3 -92 -587q-12 -76 -41.5 -104t-115.5 -28h-45q-30 0 -38 2.5t-8 15.5zM131 129 q0 -44 15 -63.5t50 -19.5l86 45l-2 25l55 350l9 25l-93 2q-38 0 -67.5 -76t-41 -155.5t-11.5 -132.5z" />
<glyph unicode="h" horiz-adv-x="395" d="M65 0l115 732q20 0 27.5 -0.5t15 -2t9.5 -5.5t2 -11q0 -9 -25 -169h95q55 0 77 -23.5t22 -76.5q0 -45 -63 -444q-20 0 -28 0.5t-15.5 2t-9.5 5.5t-2 11q56 363 56 397q0 39 -10 57t-36 18h-97v-25l-67 -420q-5 -34 -13.5 -40t-52.5 -6z" />
<glyph unicode="i" horiz-adv-x="188" d="M61 15q0 9 82 522q35 0 45 -2.5t10 -15.5q0 -4 -4 -28l-78 -495q-20 0 -28 0.5t-15.5 2t-9.5 5.5t-2 11zM152 668q0 20 14 36t35 16q33 0 33 -38q0 -21 -14 -37t-34 -16q-34 0 -34 39z" />
<glyph unicode="j" horiz-adv-x="193" d="M-80 -200l7 44q39 0 62.5 8.5t37.5 32t19.5 46t13.5 69.5l85 537q34 0 43.5 -2.5t9.5 -14.5q0 -3 -81 -520q-5 -33 -9 -51.5t-12.5 -46t-21.5 -42.5t-33 -30.5t-50.5 -22.5t-70.5 -7zM151 668q0 21 14.5 36.5t35.5 15.5q33 0 33 -38q0 -21 -14 -37t-34 -16q-17 0 -26 11 t-9 28z" />
<glyph unicode="k" horiz-adv-x="355" d="M69 19q0 9 111 713q20 0 28 -0.5t15.5 -2t9.5 -5.5t2 -11q0 -9 -111 -713q-20 0 -28 0.5t-15.5 2t-9.5 5.5t-2 11zM193 293l159 244h61l-160 -244l93 -293h-65z" />
<glyph unicode="l" horiz-adv-x="185" d="M63 15q0 9 112 717q20 0 27.5 -0.5t15.5 -2t10 -5.5t2 -12q0 -9 -112 -716q-20 0 -28 0.5t-15.5 2t-9.5 5.5t-2 11z" />
<glyph unicode="m" horiz-adv-x="583" d="M44 19q0 9 3 27l78 491q37 0 46.5 -2t9.5 -12q0 -2 -1.5 -9.5t-3 -16t-1.5 -11.5q24 23 54.5 40.5t45.5 17.5q39 0 67 -18t28 -49q83 67 118 67q61 0 83.5 -15.5t22.5 -66.5q0 -40 -66 -462h-13h-11.5t-9 0.5t-8 1t-5.5 2t-4.5 4t-2.5 6t-1.5 8t1 10.5t1.5 14 q57 362 57 392q0 32 -11.5 42.5t-41.5 10.5q-10 0 -27 -9t-40.5 -25t-34.5 -22v-25l-64 -410h-9q-31 0 -39 6.5t-3 39.5q11 72 22.5 145.5t16.5 104.5t9.5 62t5.5 44.5t1 24.5q0 33 -11.5 48.5t-39.5 15.5q-9 0 -26 -9t-41.5 -25t-35.5 -22v-25l-64 -410q-20 0 -28 0.5 t-15.5 2t-9.5 5.5t-2 11z" />
<glyph unicode="n" horiz-adv-x="390" d="M67 46l78 491q37 0 46.5 -2t9.5 -12q0 -7 -4 -35q11 6 33 22t38 25t27 9q60 0 82.5 -17.5t22.5 -69.5q0 -46 -65 -457h-10q-31 0 -39 6.5t-3 39.5q57 362 57 392q0 31 -11 42t-39 11q-8 0 -25.5 -9t-42.5 -24t-37 -21v-25l-66 -412h-10q-31 0 -39 6.5t-3 39.5z" />
<glyph unicode="o" horiz-adv-x="374" d="M72 98q0 78 9 149.5t30 141.5t62.5 112.5t99.5 42.5q63 0 88 -23.5t25 -78.5q0 -76 -9.5 -148.5t-30.5 -143.5t-62.5 -114t-98.5 -43q-64 0 -88.5 24t-24.5 81zM133 117q0 -38 13.5 -54.5t47.5 -16.5t61 43.5t41.5 107t21.5 122t7 102.5q0 38 -13.5 54t-47.5 16t-61 -42 t-41.5 -104t-21.5 -121.5t-7 -106.5z" />
<glyph unicode="p" horiz-adv-x="400" d="M20 -181q0 9 3 27l110 691l139 7q61 0 85.5 -28t24.5 -90q0 -58 -8.5 -126.5t-26 -142t-53 -122t-81.5 -48.5q-19 0 -101 52l-38 -239q-20 0 -27.5 0.5t-15 2t-9.5 5.5t-2 11zM116 91q80 -50 90 -50q36 0 64 74t39 152.5t11 132.5q0 57 -10 74t-52 17h-78v-25 q-34 -222 -55 -350z" />
<glyph unicode="q" horiz-adv-x="385" d="M74 106q0 44 4.5 97t17 115.5t31 112.5t49 83.5t68.5 33.5l108 -11q34 0 44 -2.5t10 -15.5q0 -3 -113 -719h-9q-31 0 -39 6.5t-3 39.5l31 193l-84 -46q-64 0 -89.5 26t-25.5 87zM135 129q0 -44 15 -63.5t50 -19.5l86 45l-2 25l57 350l9 25l-95 2q-38 0 -67.5 -76 t-41 -155.5t-11.5 -132.5z" />
<glyph unicode="r" horiz-adv-x="269" d="M44 19q0 9 3 27l78 491q37 0 46.5 -2t9.5 -12q0 -2 -2 -16l-4 -25q9 5 21.5 14.5t21.5 17.5t21.5 15.5t23 11.5t24 3.5t27.5 -7.5q-6 -35 -13 -40.5t-45 -5.5q-6 -5 -40 -27.5t-54 -40.5v-25l-63 -398q-20 0 -28 0.5t-15.5 2t-9.5 5.5t-2 11z" />
<glyph unicode="s" horiz-adv-x="319" d="M52 4l6 53q14 0 56 -3.5t63 -2.5q31 1 51.5 40.5t18.5 88.5q-1 17 -16.5 36.5t-37.5 37.5t-44 38t-37.5 46t-16.5 53q0 10 1 16q3 29 6 44t11.5 36t22 31t38.5 18.5t60 9.5l93 -11q-5 -44 -40 -46q-5 0 -15 2l-40 4q-83 -3 -79 -86q1 -24 25 -52t53 -50.5t53.5 -53 t25.5 -58.5q1 -45 -11.5 -88.5t-46 -78t-82.5 -35.5q-17 0 -36.5 1.5t-45 5t-36.5 4.5z" />
<glyph unicode="t" horiz-adv-x="229" d="M74 72q0 35 19 156l36 230l8 25h-43l9 54h43l4 35l6 44q20 0 28 -0.5t15.5 -2t9.5 -5.5t2 -11q0 -9 -3 -27l-11 -33h92q-6 -37 -14 -45.5t-43 -8.5h-44v-25l-36 -230q-19 -123 -18 -140q0 -42 29 -42h68l-7 -46l-70 -5q-45 0 -62.5 17t-17.5 60z" />
<glyph unicode="u" horiz-adv-x="395" d="M66 95q0 45 21 176l43 266q35 0 45 -2.5t10 -15.5q0 -4 -4 -28l-34 -218q-19 -125 -19 -157q0 -70 46 -70l108 65v25l64 401q35 0 45 -2.5t10 -15.5q0 -4 -4 -28l-77 -491q-36 0 -46 2.5t-10 14.5l6 42l-101 -66q-57 0 -80 23.5t-23 78.5z" />
<glyph unicode="v" horiz-adv-x="327" d="M105 537q43 0 50.5 -6t7.5 -40l8 -411h13l155 457q51 0 54 -6q1 -3 0 -7l-154 -444q-21 -60 -29.5 -70t-38.5 -10q-2 0 -5.5 0.5t-12 5t-15.5 12t-12.5 24t-6.5 38.5z" />
<glyph unicode="w" horiz-adv-x="533" d="M105 537q43 0 51 -6t8 -40l2 -411h8l127 372q11 31 40 31q32 0 39 -4.5t7 -26.5v-372h8l151 457h23.5t13.5 -1.5t9 -4t2 -7.5q0 -2 3 0q3 4 2 -1q-4 -28 -150 -443q-21 -59 -29.5 -69.5t-34.5 -10.5q-2 0 -5.5 0.5t-12.5 5t-16 12t-12.5 24t-5.5 38.5l1 317h-7l-101 -317 q-19 -58 -27 -69t-31 -11q-2 0 -5.5 0.5t-12 5t-15.5 12t-12.5 24t-6.5 38.5z" />
<glyph unicode="x" horiz-adv-x="318" d="M22 10q0 2 18 36l126 246l-50 245q42 0 51 -5.5t17 -38.5l25 -146h12l88 190h21.5t13.5 -1t9.5 -3t2.5 -6v-2q6 -14 -119 -244l61 -281h-57l-44 226h-12l-113 -226q-30 0 -40 1.5t-10 8.5z" />
<glyph unicode="y" horiz-adv-x="317" d="M-5 -200l6 47q55 0 87.5 42.5t32.5 101.5q0 33 -16 546q43 0 50.5 -6t8.5 -40l4 -421h13l147 467h24t14.5 -1.5t9.5 -4t2 -7.5q0 -1 -0.5 -3t-0.5 -4q-7 -51 -178 -517q-4 -10 -13.5 -37.5t-13.5 -37.5t-14.5 -32.5t-19 -31.5t-23.5 -24t-31 -21t-39 -11t-50 -5z" />
<glyph unicode="z" horiz-adv-x="333" d="M40 0l8 53l251 430h-163q7 40 13.5 47t41.5 7h185l-9 -54l-260 -430h136q35 0 44.5 -3t9.5 -18q0 -4 -4 -32h-253z" />
<glyph unicode="{" horiz-adv-x="240" d="M70 343l4 26l95 155l40 248h80q31 0 40 -2.5t9 -14.5q0 -3 -4 -29h-80l-32 -202l-101 -168l48 -167l-33 -213h27q31 0 40 -2.5t9 -14.5q0 -3 -4 -29h-80q-31 0 -40 2.5t-9 14.5q0 3 4 29l33 213z" />
<glyph unicode="|" horiz-adv-x="190" d="M36 -181q0 9 3 27l140 886q20 0 27.5 -0.5t15.5 -2t10 -5.5t2 -12q0 -10 -3 -26l-140 -886q-20 0 -28 0.5t-15.5 2t-9.5 5.5t-2 11z" />
<glyph unicode="}" horiz-adv-x="239" d="M8 -70q6 34 13.5 40t47.5 6h27l33 213l102 167l-49 168l32 202h-80q6 35 13.5 40.5t47.5 5.5h80l-40 -248l47 -155l-4 -26l-96 -154l-33 -213q-5 -34 -13 -40t-48 -6h-80z" />
<glyph unicode="~" horiz-adv-x="377" d="M96 308l4 21q5 23 12 26.5t51 3.5q27 0 86 -5.5t83 -5.5q20 0 33 3l13 -2l-4 -21q-5 -23 -12 -26.5t-51 -3.5q-27 0 -87.5 5t-83.5 5q-15 0 -31 -2z" />
<glyph unicode="&#xa1;" horiz-adv-x="162" d="M3 -178l98 491q7 36 13.5 41t49.5 5l-87 -491q-6 -33 -17.5 -39.5t-56.5 -6.5zM112 490q0 21 16.5 36.5t37.5 15.5q17 0 28 -10.5t11 -27.5v-7q-3 -19 -18.5 -32.5t-34.5 -13.5q-17 0 -28.5 11t-11.5 28z" />
<glyph unicode="&#xa2;" horiz-adv-x="344" d="M56 98q0 44 19 163q25 155 41 197q26 65 85 80q14 4 31 5l14 91q30 0 38 -2.5t8 -15.5q0 -10 -3 -28l-8 -46l88 -5q-6 -35 -13 -40.5t-45 -5.5h-59q-58 0 -77.5 -43t-40.5 -177q-18 -115 -18 -149q0 -40 15 -58t51 -18q21 0 62.5 4.5t47.5 5.5l-7 -46l-90 -15l-18 -113 q-30 0 -38 2.5t-8 15.5q0 8 3 28l11 66q-50 5 -69.5 29.5t-19.5 74.5z" />
<glyph unicode="&#xa3;" horiz-adv-x="381" d="M27 221l3 21q3 22 11.5 26t52.5 4q6 0 44 -2l-4 14l45 278q19 0 26.5 -0.5t15 -2t9.5 -5.5t2 -11q0 -9 -3 -27l-38 -239l-8 -13q39 -3 70 -3q21 0 35 3l13 -2l-3 -21q-3 -22 -11.5 -26t-52.5 -4q-12 0 -58 2l3 -12l-19 -120l-8 -25h129q19 0 27 -0.5t15.5 -2t9.5 -5.5 t2 -12q0 -10 -3 -26l-2 -11h-241l33 206l9 13q-38 3 -60 3q-16 0 -32 -2z" />
<glyph unicode="&#xa4;" horiz-adv-x="486" d="M119 231q0 9 33 38l40 34q-16 29 -16 59q0 49 37 88l-53 75q27 24 35 24q9 0 32 -27l29 -35q37 21 75 21q41 0 71 -24l85 65q19 -24 19 -30q-1 -13 -32 -38l-41 -34q11 -24 11 -50q0 -49 -35 -92l53 -75q-27 -24 -36 -24q-12 1 -32 27l-28 35l1 1q-38 -22 -77 -22 q-38 0 -66 19l-86 -65q-19 22 -19 30zM230 365q0 -28 19 -46.5t49 -18.5q35 0 63.5 26.5t28.5 63.5q0 27 -19.5 46t-47.5 19q-36 0 -64.5 -26.5t-28.5 -63.5z" />
<glyph unicode="&#xa5;" horiz-adv-x="402" d="M77 90l3 21q3 22 11.5 26t52.5 4q9 0 51 -2l-3 10l4 22l6 12q-40 3 -66 3q-15 0 -31 -2l-13 2l3 21q3 22 11 26t53 4q7 0 53 -2l-2 28l-91 274h15q32 0 39.5 -5.5t19.5 -40.5l53 -158h12l126 204h15q25 0 33.5 -1.5t8.5 -7.5v-1q0 -6 -101 -158q-43 -64 -71 -106l-11 -34 q39 -3 63 -3q21 0 36 3l12 -2l-3 -21q-3 -22 -11.5 -26t-52.5 -4q-10 0 -50 2l2 -10l-4 -26l-5 -9q36 -3 61 -3q21 0 36 3l12 -2l-3 -21q-3 -22 -11.5 -26t-52.5 -4q-11 0 -51 2l3 -11l-11 -71h-5q-33 0 -41.5 2.5t-8.5 15.5q0 10 3 28l5 31l6 10q-41 3 -66 3q-14 0 -32 -2z " />
<glyph unicode="&#xa6;" horiz-adv-x="176" d="M32 -178q0 4 4 28l57 364q20 0 28.5 -0.5t17 -2.5t10.5 -6.5t2 -12.5q0 -4 -2 -24l-58 -364q-38 0 -48.5 2.5t-10.5 15.5zM114 340q0 4 4 28l57 364q21 0 29 -0.5t16.5 -2.5t10.5 -6.5t2 -12.5q0 -4 -2 -24l-58 -364q-38 0 -48.5 2.5t-10.5 15.5z" />
<glyph unicode="&#xa7;" horiz-adv-x="326" d="M37 20l7 46q13 -2 38 -8t45 -9t39 -3q26 0 42.5 8t26 27.5t13 33.5t8.5 45v5q0 20 -25 48.5t-54.5 54.5t-54.5 62t-25 69q0 92 51 124q-20 32 -20 60q0 5 2 17q6 37 11 54t20 38.5t45.5 30t78.5 8.5l93 -14q-8 -47 -45 -47q-5 0 -13 2l-40 6q-54 0 -73 -20t-19 -59 q0 -23 25.5 -52.5t55.5 -55t55.5 -60t25.5 -65.5q0 -36 -12 -76.5t-32 -64.5q13 -24 13 -47q0 -2 -0.5 -6t-0.5 -6q-4 -23 -6 -35.5t-8 -34t-13 -33.5t-19 -27.5t-27.5 -23.5t-38 -13.5t-50.5 -5.5q-19 0 -39 4.5t-43.5 12t-36.5 10.5zM157 410q0 -19 14.5 -39t51 -53.5 t46.5 -44.5q18 38 18 79q0 17 -12.5 34.5t-47 50t-43.5 41.5q-19 -12 -26 -60q-1 -3 -1 -8z" />
<glyph unicode="&#xa8;" horiz-adv-x="341" d="M158 668q0 21 17.5 36.5t37.5 15.5q17 0 27.5 -11t10.5 -27q0 -21 -16.5 -37t-36.5 -16q-17 0 -28.5 11t-11.5 28zM301 668q0 21 17.5 36.5t37.5 15.5q16 0 27 -11t11 -27q0 -21 -16.5 -37t-36.5 -16q-17 0 -28.5 11t-11.5 28z" />
<glyph unicode="&#xa9;" horiz-adv-x="653" d="M83 244q0 85 43.5 164.5t122 130.5t170.5 51q108 0 175 -69.5t67 -175.5q0 -136 -99 -225.5t-236 -89.5q-112 0 -177.5 55.5t-65.5 158.5zM135 253q0 -84 53 -128t146 -44q115 0 195 72t80 185q0 87 -54.5 144t-143.5 57q-110 0 -193 -86t-83 -200zM265 234q0 37 6 72.5 t19 70.5t38.5 56.5t59.5 21.5q5 0 83 -5q-4 -27 -9 -31.5t-29 -4.5h-43q-36 0 -58 -53.5t-22 -113.5q0 -51 34 -51l88 10l-7 -42l-88 -13q-40 0 -56 21.5t-16 61.5z" />
<glyph unicode="&#xaa;" horiz-adv-x="271" d="M117 427q0 16 12 95q12 75 134 75l7 46q3 13 3 25q0 24 -39 24h-35q-21 0 -26.5 1.5t-5.5 10.5q0 2 2 20l72 9q43 0 59 -11.5t16 -36.5q0 -2 -5 -42l-39 -249q-25 0 -31.5 2t-6.5 12q0 3 2 21l-63 -40q-24 0 -33.5 1.5t-16 9.5t-6.5 27zM163 448q0 -12 3.5 -14t15.5 -2 l56 30l14 88q-38 0 -57 -5t-22 -22q-10 -57 -10 -75z" />
<glyph unicode="&#xab;" horiz-adv-x="323" d="M80 289l4 26l96 155h54l-103 -168l50 -167h-55zM193 289l4 26l96 155h54l-103 -168l50 -167h-55z" />
<glyph unicode="&#xac;" horiz-adv-x="356" d="M76 302l9 53h266l-13 -80q-7 -40 -13.5 -46.5t-40.5 -6.5l12 80h-220z" />
<glyph unicode="&#xad;" horiz-adv-x="336" d="M107 300l8 51h214l-8 -51h-214z" />
<glyph unicode="&#xae;" horiz-adv-x="653" d="M83 244q0 28 4 51q20 123 115 209t217 86q108 0 175 -69.5t67 -175.5q0 -139 -100.5 -242t-234.5 -103q-109 0 -176 69t-67 175zM135 253q0 -88 55 -145t144 -57q112 0 193.5 85.5t81.5 201.5q0 87 -54.5 144t-143.5 57q-100 0 -178 -71t-95 -173q-3 -21 -3 -42zM268 152 l48 308l72 5q46 0 66 -14t20 -49q0 -30 -1.5 -46t-8.5 -36t-24 -29t-45 -9l45 -130q-31 0 -39.5 4.5t-15.5 21.5l-35 103h-14l-18 -100q-4 -22 -10.5 -25.5t-39.5 -3.5zM342 322h28q40 0 49 11.5t9 61.5q0 15 -10 21.5t-36 6.5h-28v-5l-8 -83z" />
<glyph unicode="&#xaf;" horiz-adv-x="336" d="M165 669l9 51h214l-9 -51h-214z" />
<glyph unicode="&#xb0;" horiz-adv-x="348" d="M134 580q0 62 48 106.5t107 44.5q49 0 81.5 -32t32.5 -79q0 -59 -48 -104.5t-107 -45.5q-49 0 -81.5 31.5t-32.5 78.5zM189 588q0 -29 18.5 -47t48.5 -18q34 0 63.5 26t29.5 62q0 28 -20 47.5t-48 19.5q-36 0 -64 -26.5t-28 -63.5z" />
<glyph unicode="&#xb1;" horiz-adv-x="279" d="M66 216l8 51h214l-8 -51h-214zM96 408l8 51h85v25l13 66h51l-13 -66l-8 -25h86l-8 -51h-86v-25l-13 -67h-51l13 67l8 25h-85z" />
<glyph unicode="&#xb2;" horiz-adv-x="270" d="M130 423l16 97q4 24 23.5 44.5t40.5 32.5t38 31t17 41t-30 22h-31h-4q-11 0 -15.5 0.5t-7 3.5t-2.5 9q0 8 3 26l66 5q41 -1 56.5 -13t15.5 -36q0 -16 -3 -34q-5 -29 -32.5 -53t-55.5 -44t-32 -38l-8 -50h100l-7 -44h-148z" />
<glyph unicode="&#xb3;" horiz-adv-x="256" d="M132 425l6 41q53 -5 64 -5q18 0 23.5 12.5t12.5 61.5q6 36 6 51q0 12 -4.5 16t-15.5 4h-35l55 82h-71l7 44h137l-67 -94q25 -7 34 -16.5t9 -28.5q0 -13 -7 -58q-11 -72 -27 -95t-63 -23q-8 0 -64 8z" />
<glyph unicode="&#xb4;" horiz-adv-x="173" d="M111 623l80 76q2 2 7 6q32 27 40 27q9 0 36 -31l-134 -114z" />
<glyph unicode="&#xb5;" horiz-adv-x="380" d="M29 -193l116 732q20 0 28 -0.5t15.5 -2t9.5 -5.5t2 -11q0 -9 -3 -27l-62 -386l-9 -22l94 -37q20 0 35.5 5.5t27 21.5t19 30t15 46t11.5 53.5t11 67.5l35 221q5 35 13.5 40.5t52.5 5.5l-42 -266q-8 -53 -12.5 -79t-13 -62t-16.5 -52.5t-21 -36.5t-30 -28t-40 -14t-53 -6 l-94 39v-30l-24 -151q-5 -34 -13.5 -40t-51.5 -6z" />
<glyph unicode="&#xb6;" horiz-adv-x="510" d="M123 580q0 62 47 106t106 45h319l-10 -63h-109l2 -19l-102 -649h-63l102 649l8 19h-99l2 -19l-102 -649h-63l74 470q-48 1 -80 32.5t-32 77.5z" />
<glyph unicode="&#xb7;" horiz-adv-x="176" d="M89 294q0 21 17 36.5t37 15.5q17 0 28 -10.5t11 -27.5q0 -21 -16.5 -37t-36.5 -16q-17 0 -28.5 11t-11.5 28z" />
<glyph unicode="&#xb8;" horiz-adv-x="177" d="M-13 -109h87l18 109h46l-18 -109q-5 -30 -13.5 -38t-38.5 -8h-35q-40 0 -45.5 5.5t-0.5 40.5z" />
<glyph unicode="&#xb9;" horiz-adv-x="184" d="M146 676l7 46l35 11h28q18 0 23.5 -2t5.5 -12q0 -1 -4 -29l-43 -267h-49l42 264z" />
<glyph unicode="&#xba;" horiz-adv-x="282" d="M123 463q0 34 11 105q18 109 38 136.5t78 27.5q43 0 59 -12t16 -53q0 -30 -11 -99q-17 -111 -39.5 -144t-78.5 -33q-40 0 -56.5 15t-16.5 57zM170 481q0 -24 8 -31.5t27 -7.5q28 0 39 20.5t24 103.5q9 57 9 81q0 23 -7.5 28.5t-27.5 5.5t-28.5 -5t-16.5 -29t-17 -81 q-10 -67 -10 -85z" />
<glyph unicode="&#xbb;" horiz-adv-x="323" d="M71 135l102 167l-49 168h54l46 -155l-4 -26l-94 -154h-55zM184 135l102 167l-49 168h54l46 -155l-4 -26l-94 -154h-55z" />
<glyph unicode="&#xbc;" horiz-adv-x="277" d="M28 75l149 231h48l-28 -178l-8 -15h28l-6 -38h-28l3 -18l-9 -57h-40l9 57l7 18h-125zM93 342l7 47h203l-7 -47h-203zM94 113h65l-2 15l16 101zM184 676l7 46l36 11h28q18 0 23.5 -2t5.5 -12q0 -1 -4 -29l-43 -267h-49l42 264z" />
<glyph unicode="&#xbd;" horiz-adv-x="302" d="M85 0l15 97q4 26 32 50t55.5 45.5t30.5 39.5q1 5 1 14q0 22 -30 22h-31h-4q-11 0 -15.5 0.5t-7 3.5t-2.5 9q0 8 3 26l66 5q41 -1 56.5 -13t15.5 -36q0 -16 -3 -34q-5 -29 -32.5 -53t-55.5 -44t-32 -38l-8 -50h100l-6 -44h-148zM113 342l7 47h203l-7 -47h-203zM202 676 l7 46l35 11h28q18 0 23.5 -2t5.5 -12q0 -1 -4 -29l-43 -267h-49l42 264z" />
<glyph unicode="&#xbe;" horiz-adv-x="282" d="M32 75l149 231h48l-28 -178l-8 -15h28l-6 -38h-28l3 -18l-9 -57h-40l9 57l7 18h-125zM93 342l7 47h203l-7 -47h-203zM98 113h65l-2 15l16 101zM132 425l6 41q53 -5 64 -5q18 0 23.5 12.5t12.5 61.5q6 36 6 51q0 12 -4.5 16t-15.5 4h-35l55 82h-71l7 44h137l-67 -94 q25 -8 34 -17t9 -28q0 -13 -7 -58q-11 -72 -27 -95t-63 -23q-8 0 -64 8z" />
<glyph unicode="&#xbf;" horiz-adv-x="339" d="M25 -99q0 17 8 71q8 51 42.5 102.5t71.5 87t70 77.5t38 74l5 31h58l-5 -31q-7 -43 -32.5 -84t-56.5 -73.5t-61.5 -66t-51 -74t-20.5 -84.5q0 -32 21.5 -48t78.5 -16h40q29 0 37.5 -2.5t8.5 -15.5q0 -3 -4 -29l-97 -10q-87 0 -119 22t-32 69zM265 489q0 21 16.5 37 t36.5 16q17 0 28.5 -11t11.5 -28q0 -20 -16.5 -36t-37.5 -16q-17 0 -28 10.5t-11 27.5z" />
<glyph unicode="&#xc0;" horiz-adv-x="435" d="M27 13v2q-1 4 50 137q105 269 220 568h64l49 -720h-5q-45 0 -53 6t-10 40l-13 199h-152l-92 -245h-5q-33 0 -43 2t-10 11zM195 300h136l-13 25v267h-19l-91 -267zM212 896l8 7q27 24 35 24q11 0 38 -33l56 -76l-41 -36z" />
<glyph unicode="&#xc1;" horiz-adv-x="435" d="M27 13v2q-1 4 50 137q105 269 220 568h64l49 -720h-5q-45 0 -53 6t-10 40l-13 199h-152l-92 -245h-5q-33 0 -43 2t-10 11zM195 300h136l-13 25v267h-19l-91 -267zM323 818l80 76q2 2 7 6q32 27 40 27q9 0 36 -31l-134 -114z" />
<glyph unicode="&#xc2;" horiz-adv-x="435" d="M27 13v2q-1 4 50 137q105 269 220 568h64l49 -720h-5q-45 0 -53 6t-10 40l-13 199h-152l-92 -245h-5q-33 0 -43 2t-10 11zM195 300h136l-13 25v267h-19l-91 -267zM227 812l9 55l113 60h26l96 -61l-9 -54l-107 66z" />
<glyph unicode="&#xc3;" horiz-adv-x="435" d="M27 13v2q-1 4 50 137q105 269 220 568h64l49 -720h-5q-45 0 -53 6t-10 40l-13 199h-152l-92 -245h-5q-33 0 -43 2t-10 11zM195 300h136l-13 25v267h-19l-91 -267zM238 796l4 21q5 23 12.5 26.5t51.5 3.5q23 0 61.5 -2t54.5 -2q27 0 47 4l12 -2l-3 -21q-3 -22 -11.5 -26 t-52.5 -4q-23 0 -62 1.5t-54 1.5q-33 0 -47 -3z" />
<glyph unicode="&#xc4;" horiz-adv-x="435" d="M27 13v2q-1 4 50 137q105 269 220 568h64l49 -720h-5q-45 0 -53 6t-10 40l-13 199h-152l-92 -245h-5q-33 0 -43 2t-10 11zM195 300h136l-13 25v267h-19l-91 -267zM232 862q0 21 17.5 36.5t37.5 15.5q17 0 27.5 -11t10.5 -27q0 -21 -16.5 -37t-36.5 -16q-17 0 -28.5 11 t-11.5 28zM375 862q0 21 17.5 36.5t37.5 15.5q16 0 27 -11t11 -27q0 -21 -16.5 -37t-36.5 -16q-17 0 -28.5 11t-11.5 28z" />
<glyph unicode="&#xc5;" horiz-adv-x="435" d="M27 13v2q-1 4 50 137q105 269 220 568h64l49 -720h-5q-45 0 -53 6t-10 40l-13 199h-152l-92 -245h-5q-33 0 -43 2t-10 11zM195 300h136l-13 25v267h-19l-91 -267zM260 821q0 36 29.5 64.5t67.5 28.5q30 0 50.5 -19.5t20.5 -48.5q0 -38 -30 -66.5t-67 -28.5q-31 0 -51 20 t-20 50zM302 827q0 -15 10 -25t26 -10q19 0 33 14.5t14 33.5q0 14 -9.5 23.5t-24.5 9.5q-18 0 -33.5 -14t-15.5 -32z" />
<glyph unicode="&#xc6;" horiz-adv-x="629" d="M51 13q-1 6 10 33l250 674h383l-9 -53h-211v-25l-31 -199l-8 -25h197l-9 -57h-197v-25l-41 -254l-7 -25h221l-9 -57h-283l34 220l8 25h-148l-92 -245h-5q-33 0 -43 2t-10 11zM219 300h139v25l54 342h-67l-113 -342z" />
<glyph unicode="&#xc7;" horiz-adv-x="377" d="M98 154q0 63 6 133.5t23.5 155.5t44 149.5t73.5 105.5t106 34l97 -20q-7 -44 -45 -44q-2 0 -6 0.5t-6 0.5l-49 6q-47 7 -84 -50t-56.5 -145t-29 -168t-9.5 -138q0 -57 18.5 -87t63.5 -30q23 0 55.5 4.5t46.5 5.5l-9 -57q-14 -2 -39.5 -7.5t-40.5 -7.5l-17 -104 q-5 -30 -13.5 -38t-38.5 -8h-35q-40 0 -45.5 5.5t-0.5 40.5h87l17 103q-63 6 -88.5 46.5t-25.5 113.5z" />
<glyph unicode="&#xc8;" horiz-adv-x="385" d="M75 0l114 720h263l-9 -53h-201v-25l-31 -199l-8 -25h187l-9 -57h-187v-25l-41 -254l-7 -25h211l-9 -57h-273zM269 896l8 7q27 24 35 24q11 0 38 -33l56 -76l-41 -36z" />
<glyph unicode="&#xc9;" horiz-adv-x="385" d="M75 0l114 720h263l-9 -53h-201v-25l-31 -199l-8 -25h187l-9 -57h-187v-25l-41 -254l-7 -25h211l-9 -57h-273zM314 818l80 76q2 2 7 6q32 27 40 27q9 0 36 -31l-134 -114z" />
<glyph unicode="&#xca;" horiz-adv-x="385" d="M75 0l114 720h263l-9 -53h-201v-25l-31 -199l-8 -25h187l-9 -57h-187v-25l-41 -254l-7 -25h211l-9 -57h-273zM214 812l9 55l113 60h26l96 -61l-9 -54l-107 66z" />
<glyph unicode="&#xcb;" horiz-adv-x="385" d="M75 0l114 720h263l-9 -53h-201v-25l-31 -199l-8 -25h187l-9 -57h-187v-25l-41 -254l-7 -25h211l-9 -57h-273zM233 863q0 21 17.5 36.5t37.5 15.5q16 0 27 -10.5t11 -27.5q0 -21 -16.5 -37t-36.5 -16q-17 0 -28.5 11t-11.5 28zM376 863q0 21 17.5 36.5t37.5 15.5 q17 0 27.5 -10.5t10.5 -27.5q0 -21 -16.5 -37t-36.5 -16q-17 0 -28.5 11t-11.5 28z" />
<glyph unicode="&#xcc;" horiz-adv-x="213" d="M79 19q0 9 110 701h5q19 0 26.5 -0.5t15 -2t9.5 -5.5t2 -11q0 -9 -109 -701h-5q-19 0 -27 0.5t-15.5 2t-9.5 5.5t-2 11zM157 896l8 7q27 24 35 24q11 0 38 -33l56 -76l-41 -36z" />
<glyph unicode="&#xcd;" horiz-adv-x="213" d="M79 19q0 9 110 701h5q19 0 26.5 -0.5t15 -2t9.5 -5.5t2 -11q0 -9 -109 -701h-5q-19 0 -27 0.5t-15.5 2t-9.5 5.5t-2 11zM215 818l80 76q2 2 7 6q32 27 40 27q9 0 36 -31l-134 -114z" />
<glyph unicode="&#xce;" horiz-adv-x="213" d="M79 19q0 9 110 701h5q19 0 26.5 -0.5t15 -2t9.5 -5.5t2 -11q0 -9 -109 -701h-5q-19 0 -27 0.5t-15.5 2t-9.5 5.5t-2 11zM119 812l9 55l113 60h26l96 -61l-9 -54l-107 66z" />
<glyph unicode="&#xcf;" horiz-adv-x="213" d="M79 19q0 9 110 701h5q19 0 26.5 -0.5t15 -2t9.5 -5.5t2 -11q0 -9 -109 -701h-5q-19 0 -27 0.5t-15.5 2t-9.5 5.5t-2 11zM126 863q0 21 17.5 36.5t37.5 15.5q17 0 27.5 -10.5t10.5 -27.5q0 -21 -16.5 -37t-36.5 -16q-17 0 -28.5 11t-11.5 28zM269 863q0 21 17.5 36.5 t37.5 15.5q16 0 27 -10.5t11 -27.5q0 -21 -16.5 -37t-36.5 -16q-17 0 -28.5 11t-11.5 28z" />
<glyph unicode="&#xd0;" horiz-adv-x="463" d="M60 0l114 722l182 10q75 0 106 -40.5t31 -117.5q0 -52 -24 -208q-9 -57 -14 -86.5t-15.5 -76.5t-20.5 -71.5t-27.5 -55.5t-38 -46t-49.5 -26t-65 -11zM125 50h123q20 0 36.5 6t30 20t23.5 28t19.5 40.5t15 45.5t12.5 55t10.5 57.5t10.5 63.5q22 136 22 193t-18.5 86.5 t-62.5 29.5h-127l3 -39l-29 -182l-10 -34h128l-8 -51h-129v-38l-40 -253z" />
<glyph unicode="&#xd1;" horiz-adv-x="455" d="M70 0l114 720h5q43 0 51.5 -6t14.5 -40l88 -486v-27h5l89 559h4q19 0 26.5 -0.5t15 -2t9.5 -5.5t2 -11q0 -9 -109 -701h-4q-43 0 -52 6t-16 40l-90 475v27h-5l-79 -502q-5 -34 -13.5 -40t-51.5 -6h-4zM238 796l4 21q5 23 12.5 26.5t51.5 3.5q23 0 61.5 -2t54.5 -2 q27 0 47 4l12 -2l-3 -21q-3 -22 -11.5 -26t-52.5 -4q-23 0 -62 1.5t-54 1.5q-33 0 -47 -3z" />
<glyph unicode="&#xd2;" horiz-adv-x="481" d="M102 168q0 94 14 188.5t42.5 181t80 140.5t117.5 54q74 0 105.5 -40.5t31.5 -129.5q0 -94 -14.5 -189.5t-43 -183t-79.5 -142t-117 -54.5q-74 0 -105.5 42.5t-31.5 132.5zM170 181q0 -66 18 -98.5t60 -32.5q43 0 78 53.5t55.5 133.5t31.5 161t11 147t-18 98t-59 32 q-42 0 -77.5 -53.5t-56.5 -133.5t-32 -161t-11 -146zM287 896l8 7q27 24 35 24q11 0 38 -33l56 -76l-41 -36z" />
<glyph unicode="&#xd3;" horiz-adv-x="481" d="M102 168q0 94 14 188.5t42.5 181t80 140.5t117.5 54q74 0 105.5 -40.5t31.5 -129.5q0 -94 -14.5 -189.5t-43 -183t-79.5 -142t-117 -54.5q-74 0 -105.5 42.5t-31.5 132.5zM170 181q0 -66 18 -98.5t60 -32.5q43 0 78 53.5t55.5 133.5t31.5 161t11 147t-18 98t-59 32 q-42 0 -77.5 -53.5t-56.5 -133.5t-32 -161t-11 -146zM321 818l80 76q2 2 7 6q32 27 40 27q9 0 36 -31l-134 -114z" />
<glyph unicode="&#xd4;" horiz-adv-x="481" d="M102 168q0 94 14 188.5t42.5 181t80 140.5t117.5 54q74 0 105.5 -40.5t31.5 -129.5q0 -94 -14.5 -189.5t-43 -183t-79.5 -142t-117 -54.5q-74 0 -105.5 42.5t-31.5 132.5zM170 181q0 -66 18 -98.5t60 -32.5q43 0 78 53.5t55.5 133.5t31.5 161t11 147t-18 98t-59 32 q-42 0 -77.5 -53.5t-56.5 -133.5t-32 -161t-11 -146zM265 812l9 55l113 60h26l96 -61l-9 -54l-107 66z" />
<glyph unicode="&#xd5;" horiz-adv-x="481" d="M102 168q0 94 14 188.5t42.5 181t80 140.5t117.5 54q74 0 105.5 -40.5t31.5 -129.5q0 -94 -14.5 -189.5t-43 -183t-79.5 -142t-117 -54.5q-74 0 -105.5 42.5t-31.5 132.5zM170 181q0 -66 18 -98.5t60 -32.5q43 0 78 53.5t55.5 133.5t31.5 161t11 147t-18 98t-59 32 q-42 0 -77.5 -53.5t-56.5 -133.5t-32 -161t-11 -146zM261 852l4 21q5 23 12 26.5t52 3.5q23 0 61.5 -2t54.5 -2q27 0 47 4l12 -2l-3 -21q-3 -22 -11.5 -26t-52.5 -4q-23 0 -62 1.5t-54 1.5q-33 0 -47 -3z" />
<glyph unicode="&#xd6;" horiz-adv-x="481" d="M102 168q0 94 14 188.5t42.5 181t80 140.5t117.5 54q74 0 105.5 -40.5t31.5 -129.5q0 -94 -14.5 -189.5t-43 -183t-79.5 -142t-117 -54.5q-74 0 -105.5 42.5t-31.5 132.5zM170 181q0 -66 18 -98.5t60 -32.5q43 0 78 53.5t55.5 133.5t31.5 161t11 147t-18 98t-59 32 q-42 0 -77.5 -53.5t-56.5 -133.5t-32 -161t-11 -146zM260 863q0 21 17.5 36.5t37.5 15.5q17 0 27.5 -10.5t10.5 -27.5q0 -21 -16.5 -37t-36.5 -16q-17 0 -28.5 11t-11.5 28zM403 863q0 21 17.5 36.5t37.5 15.5q16 0 27 -10.5t11 -27.5q0 -21 -16.5 -37t-36.5 -16 q-17 0 -28.5 11t-11.5 28z" />
<glyph unicode="&#xd7;" horiz-adv-x="271" d="M75 263l67 68l-18 17l-37 56l36 36l37 -56l12 -23l68 68l31 -42l-68 -68l17 -17l39 -57l-37 -36l-38 57l-12 23l-67 -67z" />
<glyph unicode="&#xd8;" horiz-adv-x="476" d="M65 -50l61 109q-18 39 -18 109q0 76 20 198q32 201 81 283.5t153 82.5q27 0 48 -6l44 76h68l-59 -105q36 -40 36 -135q0 -64 -20 -196q-32 -202 -81 -287.5t-153 -85.5q-48 0 -78 18l-34 -61h-68zM173 188q0 -138 81 -138q64 0 100.5 77.5t61.5 237.5q17 105 17 173 q0 137 -80 137q-63 0 -100 -75.5t-62 -233.5q-18 -115 -18 -178z" />
<glyph unicode="&#xd9;" horiz-adv-x="468" d="M101 114q0 34 13 121.5t76 484.5h7q19 0 26.5 -0.5t15 -2t9.5 -5.5t2 -11q0 -9 -3 -27q-17 -109 -41 -262q-40 -252 -39 -282q0 -42 16.5 -61t58.5 -19q49 0 73 37q35 54 75 281q17 98 57 352h7q19 0 26.5 -0.5t15 -2t9.5 -5.5t2 -11q0 -9 -3 -27q-71 -457 -113 -569 t-158 -112q-74 0 -103 29t-29 92zM290 896l8 7q27 24 35 24q11 0 38 -33l56 -76l-41 -36z" />
<glyph unicode="&#xda;" horiz-adv-x="468" d="M101 114q0 34 13 121.5t76 484.5h7q19 0 26.5 -0.5t15 -2t9.5 -5.5t2 -11q0 -9 -3 -27q-17 -109 -41 -262q-40 -252 -39 -282q0 -42 16.5 -61t58.5 -19q49 0 73 37q35 54 75 281q17 98 57 352h7q19 0 26.5 -0.5t15 -2t9.5 -5.5t2 -11q0 -9 -3 -27q-71 -457 -113 -569 t-158 -112q-74 0 -103 29t-29 92zM324 818l80 76q2 2 7 6q32 27 40 27q9 0 36 -31l-134 -114z" />
<glyph unicode="&#xdb;" horiz-adv-x="468" d="M101 114q0 34 13 121.5t76 484.5h7q19 0 26.5 -0.5t15 -2t9.5 -5.5t2 -11q0 -9 -3 -27q-17 -109 -41 -262q-40 -252 -39 -282q0 -42 16.5 -61t58.5 -19q49 0 73 37q35 54 75 281q17 98 57 352h7q19 0 26.5 -0.5t15 -2t9.5 -5.5t2 -11q0 -9 -3 -27q-71 -457 -113 -569 t-158 -112q-74 0 -103 29t-29 92zM250 812l9 55l113 60h26l96 -61l-9 -54l-107 66z" />
<glyph unicode="&#xdc;" horiz-adv-x="468" d="M101 114q0 34 13 121.5t76 484.5h7q19 0 26.5 -0.5t15 -2t9.5 -5.5t2 -11q0 -9 -3 -27q-17 -109 -41 -262q-40 -252 -39 -282q0 -42 16.5 -61t58.5 -19q49 0 73 37q35 54 75 281q17 98 57 352h7q19 0 26.5 -0.5t15 -2t9.5 -5.5t2 -11q0 -9 -3 -27q-71 -457 -113 -569 t-158 -112q-74 0 -103 29t-29 92zM259 863q0 21 17.5 36.5t37.5 15.5q16 0 27 -10.5t11 -27.5q0 -21 -16.5 -37t-36.5 -16q-17 0 -28.5 11t-11.5 28zM402 863q0 21 17.5 36.5t37.5 15.5q17 0 27.5 -10.5t10.5 -27.5q0 -21 -16.5 -37t-36.5 -16q-17 0 -28.5 11t-11.5 28z" />
<glyph unicode="&#xdd;" horiz-adv-x="375" d="M139 720h15q38 0 45.5 -5.5t13.5 -40.5l43 -242h5l147 288h27q27 0 27 -11q0 -20 -187 -362l-54 -347h-5q-20 0 -27.5 0.5t-15 2t-9.5 5.5t-2 11q0 9 50 328zM307 818l80 76q2 2 7 6q32 27 40 27q9 0 36 -31l-134 -114z" />
<glyph unicode="&#xde;" horiz-adv-x="395" d="M32 -181q0 9 3 27l134 844q5 34 13 40t52 6l-25 -159l104 27q62 0 87 -27.5t25 -86.5q0 -45 -20 -174q-8 -47 -12 -71.5t-12 -62t-14.5 -56.5t-17.5 -45t-23 -38.5t-29 -26t-38 -18.5t-47 -5l-88 46l-38 -239q-20 0 -27.5 0.5t-15 2t-9.5 5.5t-2 11zM128 91l91 -45 q20 0 36 8t28 27t20.5 37.5t16.5 55t12.5 62.5t12.5 75q1 4 1 6q18 108 18 150t-14.5 63t-49.5 21l-102 -25v-25l-61 -385z" />
<glyph unicode="&#xdf;" horiz-adv-x="524" d="M59 0l92 577q5 29 6.5 39.5t6 31t7 26t9 18.5t11.5 15.5t16 10t21 7.5t27.5 3t34.5 3h43h53q5 0 12.5 -0.5t27 -4t34.5 -10t27 -20t12 -32.5q0 -2 -0.5 -5t-0.5 -5q-10 -63 -18 -97t-21 -49.5t-23.5 -18.5t-35.5 -3q-55 0 -55 -86q0 -22 25.5 -50t55.5 -51t55.5 -58.5 t25.5 -71.5q0 -11 -1 -17q-4 -23 -6 -35t-8 -31.5t-12.5 -30.5t-18.5 -24.5t-27.5 -20.5t-38 -12t-50.5 -5l-122 7l8 53h125q24 0 39.5 6.5t23.5 22.5t11 28.5t7 38.5l2 11v7q0 21 -24 48.5t-53.5 50.5t-53.5 56.5t-24 66.5q0 60 27 105.5t87 45.5q10 0 15 3.5t12 26.5 t15 71v6q0 32 -68 32h-47q-72 0 -86 -12.5t-26 -89.5l-83 -519q-7 -43 -16.5 -50.5t-54.5 -7.5z" />
<glyph unicode="&#xe0;" horiz-adv-x="352" d="M29 94q0 56 8 126t25.5 148t53 130t82.5 52q16 0 32 -6q21 -7 47 -15t38 -12t24.5 -9.5t17 -10.5t4.5 -12q0 -4 -75 -485q-35 0 -46 3.5t-9 17.5l9 66l-116 -94q-59 0 -77 22t-18 79zM90 113q0 -38 7 -49.5t37 -11.5l118 86v25l45 277l8 25q-86 28 -101 28q-38 0 -66 -84 t-38 -166.5t-10 -129.5zM222 707l8 7q27 24 35 24q11 0 38 -33l56 -76l-41 -36z" />
<glyph unicode="&#xe1;" horiz-adv-x="352" d="M29 94q0 56 8 126t25.5 148t53 130t82.5 52q16 0 32 -6q21 -7 47 -15t38 -12t24.5 -9.5t17 -10.5t4.5 -12q0 -4 -75 -485q-35 0 -46 3.5t-9 17.5l9 66l-116 -94q-59 0 -77 22t-18 79zM90 113q0 -38 7 -49.5t37 -11.5l118 86v25l45 277l8 25q-86 28 -101 28q-38 0 -66 -84 t-38 -166.5t-10 -129.5zM238 629l80 76q2 2 7 6q32 27 40 27q9 0 36 -31l-134 -114z" />
<glyph unicode="&#xe2;" horiz-adv-x="352" d="M29 94q0 56 8 126t25.5 148t53 130t82.5 52q16 0 32 -6q21 -7 47 -15t38 -12t24.5 -9.5t17 -10.5t4.5 -12q0 -4 -75 -485q-35 0 -46 3.5t-9 17.5l9 66l-116 -94q-59 0 -77 22t-18 79zM90 113q0 -38 7 -49.5t37 -11.5l118 86v25l45 277l8 25q-86 28 -101 28q-38 0 -66 -84 t-38 -166.5t-10 -129.5zM149 627l9 55l113 60h26l96 -61l-9 -54l-107 66z" />
<glyph unicode="&#xe3;" horiz-adv-x="352" d="M29 94q0 56 8 126t25.5 148t53 130t82.5 52q16 0 32 -6q21 -7 47 -15t38 -12t24.5 -9.5t17 -10.5t4.5 -12q0 -4 -75 -485q-35 0 -46 3.5t-9 17.5l9 66l-116 -94q-59 0 -77 22t-18 79zM90 113q0 -38 7 -49.5t37 -11.5l118 86v25l45 277l8 25q-86 28 -101 28q-38 0 -66 -84 t-38 -166.5t-10 -129.5zM147 641l4 21q5 23 12 26.5t52 3.5q23 0 61.5 -2t54.5 -2q27 0 47 4l12 -2l-3 -21q-3 -22 -11.5 -26t-52.5 -4q-23 0 -62 1.5t-54 1.5q-33 0 -47 -3z" />
<glyph unicode="&#xe4;" horiz-adv-x="352" d="M29 94q0 56 8 126t25.5 148t53 130t82.5 52q16 0 32 -6q21 -7 47 -15t38 -12t24.5 -9.5t17 -10.5t4.5 -12q0 -4 -75 -485q-35 0 -46 3.5t-9 17.5l9 66l-116 -94q-59 0 -77 22t-18 79zM90 113q0 -38 7 -49.5t37 -11.5l118 86v25l45 277l8 25q-86 28 -101 28q-38 0 -66 -84 t-38 -166.5t-10 -129.5zM174 659q0 21 17.5 36.5t37.5 15.5q17 0 27.5 -10.5t10.5 -27.5q0 -21 -16.5 -37t-36.5 -16q-17 0 -28.5 11t-11.5 28zM317 659q0 21 17.5 36.5t37.5 15.5q16 0 27 -10.5t11 -27.5q0 -21 -16.5 -37t-36.5 -16q-17 0 -28.5 11t-11.5 28z" />
<glyph unicode="&#xe5;" horiz-adv-x="352" d="M29 94q0 56 8 126t25.5 148t53 130t82.5 52q16 0 32 -6q21 -7 47 -15t38 -12t24.5 -9.5t17 -10.5t4.5 -12q0 -4 -75 -485q-35 0 -46 3.5t-9 17.5l9 66l-116 -94q-59 0 -77 22t-18 79zM90 113q0 -38 7 -49.5t37 -11.5l118 86v25l45 277l8 25q-86 28 -101 28q-38 0 -66 -84 t-38 -166.5t-10 -129.5zM183 656q0 36 29.5 64.5t67.5 28.5q30 0 50.5 -19.5t20.5 -48.5q0 -38 -30 -66.5t-67 -28.5q-31 0 -51 20t-20 50zM225 662q0 -15 10 -25t26 -10q19 0 33 14.5t14 33.5q0 14 -9.5 23.5t-24.5 9.5q-18 0 -33.5 -14t-15.5 -32z" />
<glyph unicode="&#xe6;" horiz-adv-x="588" d="M74 57q0 34 22 168q17 107 202 107h4v25l9 58q1 7 4.5 23t3.5 23q0 30 -49 30q-65 -9 -68 -9q-30 0 -30 30q0 3 2 15l105 17q70 0 90 -31q37 31 81 31q64 0 88 -21.5t24 -69.5q0 -29 -13 -118l-4 -59h-200v-25q-18 -115 -18 -146t10 -45t34 -14q54 0 141 13l-8 -49 q-89 -17 -142 -17q-46 0 -61 13.5t-24 50.5l-134 -64q-39 0 -54 14t-15 50zM131 71q0 -25 20 -25l109 47l25 158l8 25h-4q-60 0 -95 -8.5t-39 -34.5q-5 -32 -11.5 -71.5t-9.5 -59t-3 -31.5zM360 330h134l2 45q5 37 5 56q0 32 -13.5 46t-46.5 14q-13 0 -23 -2.5t-17 -12 t-11.5 -16.5t-8.5 -27.5t-6 -33t-7 -44.5z" />
<glyph unicode="&#xe7;" horiz-adv-x="335" d="M46 -109h87l17 104q-43 4 -61 28t-18 73q0 55 7.5 124t24.5 147t51.5 130.5t80.5 52.5q10 0 113 -19q-8 -45 -42 -45q-12 0 -34 5t-32 5q-35 0 -61.5 -83t-36.5 -165.5t-10 -130.5q0 -38 12.5 -54.5t43.5 -16.5l88 10l-7 -46l-73 -13l-17 -106q-5 -30 -13.5 -38t-38.5 -8 h-35q-40 0 -45.5 5.5t-0.5 40.5z" />
<glyph unicode="&#xe8;" horiz-adv-x="353" d="M71 95q0 37 20 168q8 48 11.5 70t11 57t13.5 50t16 37.5t21.5 31t27.5 19t36.5 13.5t46.5 3q53 0 73.5 -22.5t20.5 -69.5q0 -22 -3.5 -45.5t-14 -60t-38.5 -60t-69 -23.5h-99v-25q-15 -90 -15 -124q0 -36 14.5 -51t51.5 -15q61 0 119 13l-8 -51q-79 -17 -120 -17 q-66 0 -91 23t-25 79zM160 317h76q22 0 38 14t23 34.5t10 36.5t3 28q0 61 -44 61q-22 0 -38 -7t-25 -16.5t-16 -32t-10.5 -39.5t-8.5 -54zM208 709l8 7q27 24 35 24q11 0 38 -33l56 -76l-41 -36z" />
<glyph unicode="&#xe9;" horiz-adv-x="353" d="M71 95q0 37 20 168q8 48 11.5 70t11 57t13.5 50t16 37.5t21.5 31t27.5 19t36.5 13.5t46.5 3q53 0 73.5 -22.5t20.5 -69.5q0 -22 -3.5 -45.5t-14 -60t-38.5 -60t-69 -23.5h-99v-25q-15 -90 -15 -124q0 -36 14.5 -51t51.5 -15q61 0 119 13l-8 -51q-79 -17 -120 -17 q-66 0 -91 23t-25 79zM160 317h76q22 0 38 14t23 34.5t10 36.5t3 28q0 61 -44 61q-22 0 -38 -7t-25 -16.5t-16 -32t-10.5 -39.5t-8.5 -54zM242 631l80 76q2 2 7 6q32 27 40 27q9 0 36 -31l-134 -114z" />
<glyph unicode="&#xea;" horiz-adv-x="353" d="M71 95q0 37 20 168q8 48 11.5 70t11 57t13.5 50t16 37.5t21.5 31t27.5 19t36.5 13.5t46.5 3q53 0 73.5 -22.5t20.5 -69.5q0 -22 -3.5 -45.5t-14 -60t-38.5 -60t-69 -23.5h-99v-25q-15 -90 -15 -124q0 -36 14.5 -51t51.5 -15q61 0 119 13l-8 -51q-79 -17 -120 -17 q-66 0 -91 23t-25 79zM160 317h76q22 0 38 14t23 34.5t10 36.5t3 28q0 61 -44 61q-22 0 -38 -7t-25 -16.5t-16 -32t-10.5 -39.5t-8.5 -54zM163 629l9 55l113 60h26l96 -61l-9 -54l-107 66z" />
<glyph unicode="&#xeb;" horiz-adv-x="353" d="M71 95q0 37 20 168q8 48 11.5 70t11 57t13.5 50t16 37.5t21.5 31t27.5 19t36.5 13.5t46.5 3q53 0 73.5 -22.5t20.5 -69.5q0 -22 -3.5 -45.5t-14 -60t-38.5 -60t-69 -23.5h-99v-25q-15 -90 -15 -124q0 -36 14.5 -51t51.5 -15q61 0 119 13l-8 -51q-79 -17 -120 -17 q-66 0 -91 23t-25 79zM160 317h76q22 0 38 14t23 34.5t10 36.5t3 28q0 61 -44 61q-22 0 -38 -7t-25 -16.5t-16 -32t-10.5 -39.5t-8.5 -54zM170 661q0 21 17.5 36.5t37.5 15.5q17 0 27.5 -10.5t10.5 -27.5q0 -21 -16.5 -37t-36.5 -16q-17 0 -28.5 11t-11.5 28zM313 661 q0 21 17.5 36.5t37.5 15.5q16 0 27 -10.5t11 -27.5q0 -21 -16.5 -37t-36.5 -16q-17 0 -28.5 11t-11.5 28z" />
<glyph unicode="&#xec;" horiz-adv-x="211" d="M75 15q0 9 3 27l79 495q35 0 45 -2.5t10 -15.5q0 -4 -4 -28l-78 -495q-20 0 -28 0.5t-15.5 2t-9.5 5.5t-2 11zM119 711l8 7q27 24 35 24q11 0 38 -33l56 -76l-41 -36z" />
<glyph unicode="&#xed;" horiz-adv-x="220" d="M78 15q0 9 3 27l79 495q35 0 45 -2.5t10 -15.5q0 -4 -4 -28l-78 -495q-20 0 -28 0.5t-15.5 2t-9.5 5.5t-2 11zM159 631l80 76q2 2 7 6q32 27 40 27q9 0 36 -31l-134 -114z" />
<glyph unicode="&#xee;" horiz-adv-x="246" d="M93 15q0 9 3 27l79 495q35 0 45 -2.5t10 -15.5q0 -4 -4 -28l-78 -495q-20 0 -28 0.5t-15.5 2t-9.5 5.5t-2 11zM104 625l9 55l113 60h26l96 -61l-9 -54l-107 66z" />
<glyph unicode="&#xef;" horiz-adv-x="260" d="M111 15q0 9 3 27l79 495q35 0 45 -2.5t10 -15.5q0 -4 -4 -28l-78 -495q-20 0 -28 0.5t-15.5 2t-9.5 5.5t-2 11zM124 661q0 21 17.5 36.5t37.5 15.5q17 0 27.5 -10.5t10.5 -27.5q0 -21 -16.5 -37t-36.5 -16q-17 0 -28.5 11t-11.5 28zM267 661q0 21 17.5 36.5t37.5 15.5 q16 0 27 -10.5t11 -27.5q0 -21 -16.5 -37t-36.5 -16q-17 0 -28.5 11t-11.5 28z" />
<glyph unicode="&#xf0;" horiz-adv-x="376" d="M50 94q0 38 19 154q7 42 10 61t9 49t10.5 41.5t12 30.5t16 25.5t20.5 16t27.5 12t34.5 5t44 2.5l75 -34q3 47 3 82q0 71 -16.5 103.5t-54.5 32.5l9 57q72 0 102 -45t30 -132q0 -70 -29 -258q-9 -55 -14 -84t-12.5 -65.5t-14 -53t-17.5 -37.5t-22.5 -28.5t-29 -16 t-38 -10.5t-48.5 -2q-72 0 -99 20t-27 74zM115 114q0 -35 15 -48t54 -13q63 0 81 39t44 205l15 109l-79 32q-59 0 -76 -31.5t-37 -158.5q-17 -105 -17 -134z" />
<glyph unicode="&#xf1;" horiz-adv-x="390" d="M67 46l78 491q37 0 46.5 -2t9.5 -12q0 -7 -4 -35q11 6 33 22t38 25t27 9q60 0 82.5 -17.5t22.5 -69.5q0 -46 -65 -457h-10q-31 0 -39 6.5t-3 39.5q57 362 57 392q0 31 -11 42t-39 11q-8 0 -25.5 -9t-42.5 -24t-37 -21v-25l-66 -412h-10q-31 0 -39 6.5t-3 39.5zM185 641 l4 21q5 23 12 26.5t52 3.5q23 0 61.5 -2t54.5 -2q27 0 47 4l12 -2l-3 -21q-3 -22 -11.5 -26t-52.5 -4q-23 0 -62 1.5t-54 1.5q-33 0 -47 -3z" />
<glyph unicode="&#xf2;" horiz-adv-x="374" d="M72 98q0 78 9 149.5t30 141.5t62.5 112.5t99.5 42.5q63 0 88 -23.5t25 -78.5q0 -76 -9.5 -148.5t-30.5 -143.5t-62.5 -114t-98.5 -43q-64 0 -88.5 24t-24.5 81zM133 117q0 -38 13.5 -54.5t47.5 -16.5t61 43.5t41.5 107t21.5 122t7 102.5q0 38 -13.5 54t-47.5 16t-61 -42 t-41.5 -104t-21.5 -121.5t-7 -106.5zM225 713l8 7q27 24 35 24q11 0 38 -33l56 -76l-41 -36z" />
<glyph unicode="&#xf3;" horiz-adv-x="374" d="M72 98q0 78 9 149.5t30 141.5t62.5 112.5t99.5 42.5q63 0 88 -23.5t25 -78.5q0 -76 -9.5 -148.5t-30.5 -143.5t-62.5 -114t-98.5 -43q-64 0 -88.5 24t-24.5 81zM133 117q0 -38 13.5 -54.5t47.5 -16.5t61 43.5t41.5 107t21.5 122t7 102.5q0 38 -13.5 54t-47.5 16t-61 -42 t-41.5 -104t-21.5 -121.5t-7 -106.5zM243 635l80 76q2 2 7 6q32 27 40 27q9 0 36 -31l-134 -114z" />
<glyph unicode="&#xf4;" horiz-adv-x="374" d="M72 98q0 78 9 149.5t30 141.5t62.5 112.5t99.5 42.5q63 0 88 -23.5t25 -78.5q0 -76 -9.5 -148.5t-30.5 -143.5t-62.5 -114t-98.5 -43q-64 0 -88.5 24t-24.5 81zM133 117q0 -38 13.5 -54.5t47.5 -16.5t61 43.5t41.5 107t21.5 122t7 102.5q0 38 -13.5 54t-47.5 16t-61 -42 t-41.5 -104t-21.5 -121.5t-7 -106.5zM168 629l9 55l113 60h26l96 -61l-9 -54l-107 66z" />
<glyph unicode="&#xf5;" horiz-adv-x="374" d="M72 98q0 78 9 149.5t30 141.5t62.5 112.5t99.5 42.5q63 0 88 -23.5t25 -78.5q0 -76 -9.5 -148.5t-30.5 -143.5t-62.5 -114t-98.5 -43q-64 0 -88.5 24t-24.5 81zM133 117q0 -38 13.5 -54.5t47.5 -16.5t61 43.5t41.5 107t21.5 122t7 102.5q0 38 -13.5 54t-47.5 16t-61 -42 t-41.5 -104t-21.5 -121.5t-7 -106.5zM179 647l3 21q3 22 11.5 26t52.5 4q28 0 72 -5.5t61 -5.5q15 0 29 3l12 -2l-3 -21q-3 -22 -11.5 -26t-52.5 -4q-28 0 -72.5 5t-61.5 5q-11 0 -27 -2z" />
<glyph unicode="&#xf6;" horiz-adv-x="374" d="M72 98q0 78 9 149.5t30 141.5t62.5 112.5t99.5 42.5q63 0 88 -23.5t25 -78.5q0 -76 -9.5 -148.5t-30.5 -143.5t-62.5 -114t-98.5 -43q-64 0 -88.5 24t-24.5 81zM133 117q0 -38 13.5 -54.5t47.5 -16.5t61 43.5t41.5 107t21.5 122t7 102.5q0 38 -13.5 54t-47.5 16t-61 -42 t-41.5 -104t-21.5 -121.5t-7 -106.5zM175 659q0 21 17.5 36.5t37.5 15.5q16 0 27 -10.5t11 -27.5q0 -21 -16.5 -37t-36.5 -16q-17 0 -28.5 11t-11.5 28zM318 659q0 21 17.5 36.5t37.5 15.5q17 0 27.5 -10.5t10.5 -27.5q0 -21 -16.5 -37t-36.5 -16q-17 0 -28.5 11t-11.5 28z " />
<glyph unicode="&#xf7;" horiz-adv-x="275" d="M73 270l8 51h214l-8 -51h-214zM91 39q0 20 16.5 36t37.5 16q17 0 28 -10.5t11 -27.5q0 -21 -16.5 -37t-36.5 -16q-17 0 -28.5 11t-11.5 28zM168 485q0 20 17 36t38 16q17 0 27.5 -10.5t10.5 -27.5q0 -21 -16.5 -37t-36.5 -16q-17 0 -28.5 11t-11.5 28z" />
<glyph unicode="&#xf8;" horiz-adv-x="400" d="M37 -94l65 117q-19 23 -19 75q0 40 20 173q7 43 10.5 62.5t9.5 51.5t11 46t12.5 35.5t16 30l20.5 20.5t26.5 16t33 7.5t41.5 3.5q22 0 38 -3l55 97h68l-69 -122q20 -23 20 -75q1 -34 -20 -170q-7 -43 -10 -62t-9.5 -52t-11 -46.5t-12.5 -36t-16 -31.5t-20 -21.5 t-26.5 -17t-33 -8t-41.5 -3.5q-15 0 -41 4l-50 -91h-68zM144 117q0 -38 13.5 -54.5t47.5 -16.5q52 0 71 40.5t38 161.5q22 143 22 173q0 38 -13.5 54t-47.5 16q-23 0 -39 -8.5t-26 -20t-19 -43t-13.5 -56.5t-13.5 -81q-20 -122 -20 -165z" />
<glyph unicode="&#xf9;" horiz-adv-x="385" d="M76 95q0 45 21 176l43 266q35 0 45 -2.5t10 -15.5q0 -4 -4 -28l-34 -218q-19 -125 -19 -157q0 -70 46 -70l108 65v25l64 401q35 0 45 -2.5t10 -15.5q0 -4 -4 -28l-77 -491q-36 0 -46 2.5t-10 14.5l6 42l-101 -66q-57 0 -80 23.5t-23 78.5zM223 705l8 7q27 24 35 24 q11 0 38 -33l56 -76l-41 -36z" />
<glyph unicode="&#xfa;" horiz-adv-x="385" d="M76 95q0 45 21 176l43 266q35 0 45 -2.5t10 -15.5q0 -4 -4 -28l-34 -218q-19 -125 -19 -157q0 -70 46 -70l108 65v25l64 401q35 0 45 -2.5t10 -15.5q0 -4 -4 -28l-77 -491q-36 0 -46 2.5t-10 14.5l6 42l-101 -66q-57 0 -80 23.5t-23 78.5zM247 635l80 76q2 2 7 6 q32 27 40 27q9 0 36 -31l-134 -114z" />
<glyph unicode="&#xfb;" horiz-adv-x="385" d="M76 95q0 45 21 176l43 266q35 0 45 -2.5t10 -15.5q0 -4 -4 -28l-34 -218q-19 -125 -19 -157q0 -70 46 -70l108 65v25l64 401q35 0 45 -2.5t10 -15.5q0 -4 -4 -28l-77 -491q-36 0 -46 2.5t-10 14.5l6 42l-101 -66q-57 0 -80 23.5t-23 78.5zM175 627l9 55l113 60h26l96 -61 l-9 -54l-107 66z" />
<glyph unicode="&#xfc;" horiz-adv-x="385" d="M76 95q0 45 21 176l43 266q35 0 45 -2.5t10 -15.5q0 -4 -4 -28l-34 -218q-19 -125 -19 -157q0 -70 46 -70l108 65v25l64 401q35 0 45 -2.5t10 -15.5q0 -4 -4 -28l-77 -491q-36 0 -46 2.5t-10 14.5l6 42l-101 -66q-57 0 -80 23.5t-23 78.5zM183 657q0 21 17.5 36.5 t37.5 15.5q16 0 27 -10.5t11 -27.5q0 -21 -16.5 -37t-36.5 -16q-17 0 -28.5 11t-11.5 28zM326 657q0 21 17.5 36.5t37.5 15.5q17 0 27.5 -10.5t10.5 -27.5q0 -21 -16.5 -37t-36.5 -16q-17 0 -28.5 11t-11.5 28z" />
<glyph unicode="&#xfd;" horiz-adv-x="317" d="M-5 -200l6 47q55 0 87.5 42.5t32.5 101.5q0 33 -16 546q43 0 50.5 -6t8.5 -40l4 -421h13l147 467h24t14.5 -1.5t9.5 -4t2 -7.5q0 -1 -0.5 -3t-0.5 -4q-7 -51 -178 -517q-4 -10 -13.5 -37.5t-13.5 -37.5t-14.5 -32.5t-19 -31.5t-23.5 -24t-31 -21t-39 -11t-50 -5zM198 639 l80 76q2 2 7 6q32 27 40 27q9 0 36 -31l-134 -114z" />
<glyph unicode="&#xfe;" horiz-adv-x="386" d="M28 -200q22 137 46.5 293t54 345t46.5 294q19 0 27 -0.5t15.5 -2t9.5 -5.5t2 -12q0 -10 -3 -26l-27 -170l89 28q68 0 94.5 -25.5t26.5 -84.5q0 -46 -19 -167q-6 -39 -9 -56.5t-9 -47.5t-9.5 -43t-10.5 -34.5t-13.5 -30t-16.5 -22.5t-21 -19t-25.5 -11t-32 -8t-38.5 -2 l-79 60l-32 -200q-7 -40 -15 -46.5t-51 -6.5zM132 90l81 -44q57 0 76.5 42t40.5 174q1 3 1 5q17 111 17 144q0 41 -15 60.5t-50 19.5l-92 -24z" />
<glyph unicode="&#xff;" horiz-adv-x="317" d="M-5 -200l6 47q55 0 87.5 42.5t32.5 101.5q0 33 -16 546q43 0 50.5 -6t8.5 -40l4 -421h13l147 467h24t14.5 -1.5t9.5 -4t2 -7.5q0 -1 -0.5 -3t-0.5 -4q-7 -51 -178 -517q-4 -10 -13.5 -37.5t-13.5 -37.5t-14.5 -32.5t-19 -31.5t-23.5 -24t-31 -21t-39 -11t-50 -5zM150 659 q0 21 17.5 36.5t37.5 15.5q17 0 27.5 -10.5t10.5 -27.5q0 -21 -16.5 -37t-36.5 -16q-17 0 -28.5 11t-11.5 28zM293 659q0 21 17.5 36.5t37.5 15.5q16 0 27 -10.5t11 -27.5q0 -21 -16.5 -37t-36.5 -16q-17 0 -28.5 11t-11.5 28z" />
<glyph unicode="&#x152;" horiz-adv-x="653" d="M85 141q0 58 27 225q30 186 52 244q33 86 103 110q36 12 89 12l90 -12h283l-9 -53h-218v-25l-31 -199l-8 -25h204l-9 -57h-203v-25l-41 -254l-7 -25h227l-9 -57h-293l-93 -7q-86 0 -120 35t-34 113zM152 167q0 -60 21.5 -88.5t74.5 -28.5l93 7l96 606l-90 12 q-18 0 -33.5 -2.5t-28.5 -11t-23 -15t-19.5 -23.5t-15.5 -27.5t-13 -35.5t-11 -39t-10 -47t-9 -50.5t-9 -57.5q-23 -142 -23 -199z" />
<glyph unicode="&#x153;" horiz-adv-x="628" d="M78 102q0 40 20 169q8 47 12 69.5t11 56t13 49t16.5 36t22.5 29t29 18t38 12.5t49 3q86 0 109 -40q21 22 47.5 31t73.5 9q56 0 78.5 -23t22.5 -71q0 -32 -15 -128l-4 -60h-220v-29q-15 -87 -15 -121q0 -36 16 -51t58 -15q59 0 121 13l-8 -49q-78 -17 -122 -17 q-47 0 -70 10t-37 34q-37 -44 -123 -44q-69 0 -96 25.5t-27 83.5zM139 123q0 -41 16 -59t55 -18q60 0 80.5 44.5t41.5 180.5q18 113 18 145q0 40 -15.5 57.5t-54.5 17.5q-22 0 -37.5 -4t-28 -19t-19.5 -26.5t-14.5 -44t-11.5 -53.5t-12 -73q-18 -115 -18 -148zM396 317h155 l3 50q9 58 9 76q0 26 -11.5 37t-41.5 11q-25 0 -42.5 -6.5t-27.5 -15.5t-17 -30.5t-10 -38t-8 -51.5q0 -3 -0.5 -5.5t-0.5 -4.5z" />
<glyph unicode="&#x178;" horiz-adv-x="375" d="M139 720h15q38 0 45.5 -5.5t13.5 -40.5l43 -242h5l147 288h27q27 0 27 -11q0 -20 -187 -362l-54 -347h-5q-20 0 -27.5 0.5t-15 2t-9.5 5.5t-2 11q0 9 50 328zM220 851q0 21 17.5 36.5t37.5 15.5q17 0 27.5 -10.5t10.5 -27.5q0 -21 -16.5 -37t-36.5 -16q-17 0 -28.5 11 t-11.5 28zM363 851q0 21 17.5 36.5t37.5 15.5q16 0 27 -10.5t11 -27.5q0 -21 -16.5 -37t-36.5 -16q-17 0 -28.5 11t-11.5 28z" />
<glyph unicode="&#x2c6;" horiz-adv-x="352" d="M155 617l9 55l113 60h26l96 -61l-9 -54l-107 66z" />
<glyph unicode="&#x2dc;" horiz-adv-x="377" d="M173 669l4 21q5 23 12 26.5t52 3.5q23 0 61.5 -2t54.5 -2q27 0 47 4l12 -2l-3 -21q-3 -22 -11.5 -26t-52.5 -4q-23 0 -62 1.5t-54 1.5q-33 0 -47 -3z" />
<glyph unicode="&#x2000;" horiz-adv-x="463" />
<glyph unicode="&#x2001;" horiz-adv-x="927" />
<glyph unicode="&#x2002;" horiz-adv-x="463" />
<glyph unicode="&#x2003;" horiz-adv-x="927" />
<glyph unicode="&#x2004;" horiz-adv-x="309" />
<glyph unicode="&#x2005;" horiz-adv-x="231" />
<glyph unicode="&#x2006;" horiz-adv-x="154" />
<glyph unicode="&#x2007;" horiz-adv-x="154" />
<glyph unicode="&#x2008;" horiz-adv-x="115" />
<glyph unicode="&#x2009;" horiz-adv-x="185" />
<glyph unicode="&#x200a;" horiz-adv-x="51" />
<glyph unicode="&#x2010;" horiz-adv-x="336" d="M107 300l8 51h214l-8 -51h-214z" />
<glyph unicode="&#x2011;" horiz-adv-x="336" d="M107 300l8 51h214l-8 -51h-214z" />
<glyph unicode="&#x2012;" horiz-adv-x="336" d="M107 300l8 51h214l-8 -51h-214z" />
<glyph unicode="&#x2013;" horiz-adv-x="395" d="M107 300l8 51h273l-8 -51h-273z" />
<glyph unicode="&#x2014;" horiz-adv-x="613" d="M107 300l8 51h492l-8 -51h-492z" />
<glyph unicode="&#x2018;" horiz-adv-x="166" d="M109 544q0 14 25 60.5t50 87t28 40.5l35 -25q-45 -102 -45 -145q0 -23 -15.5 -40t-38.5 -17q-17 0 -28 11t-11 28z" />
<glyph unicode="&#x2019;" horiz-adv-x="164" d="M113 530q46 101 46 145q0 24 15 40.5t38 16.5q17 0 28 -11t11 -29q0 -14 -25 -60.5t-50 -86.5t-28 -40z" />
<glyph unicode="&#x201a;" horiz-adv-x="164" d="M12 -111q19 43 29.5 74.5t12.5 44t3 24.5t1 14q3 19 18.5 32t34.5 13q17 0 28 -11t11 -27q0 -19 -48 -104t-55 -85z" />
<glyph unicode="&#x201c;" horiz-adv-x="343" d="M127 544q0 14 25 60.5t50 87t28 40.5l35 -25q-45 -102 -45 -145q0 -23 -15.5 -40t-38.5 -17q-17 0 -28 11t-11 28zM271 544q0 14 25 60.5t50 87t28 40.5l35 -25q-45 -102 -45 -145q0 -23 -15.5 -40t-38.5 -17q-17 0 -28 11t-11 28z" />
<glyph unicode="&#x201d;" horiz-adv-x="343" d="M129 530q46 101 46 145q0 24 15 40.5t38 16.5q17 0 28 -11t11 -29q0 -14 -25 -60.5t-50 -86.5t-28 -40zM273 530q46 101 46 145q0 24 15 40.5t38 16.5q17 0 28 -11t11 -29q0 -14 -25 -60.5t-50 -86.5t-28 -40z" />
<glyph unicode="&#x201e;" horiz-adv-x="345" d="M28 -111q19 43 29.5 74.5t12.5 44t3 24.5t1 14q3 19 18.5 32t34.5 13q17 0 28 -11t11 -27q0 -19 -48 -104t-55 -85zM174 -111q19 43 29.5 74.5t12.5 44t3 24.5t1 14q3 19 18.5 32t34.5 13q17 0 28 -11t11 -27q0 -19 -48 -104t-55 -85z" />
<glyph unicode="&#x2022;" horiz-adv-x="222" d="M88 290q0 33 25 56t56 23q25 0 42 -16.5t17 -41.5q0 -30 -25.5 -54.5t-55.5 -24.5q-25 0 -42 17t-17 41z" />
<glyph unicode="&#x2026;" horiz-adv-x="489" d="M62 39q0 21 17 36.5t37 15.5q17 0 28 -10.5t11 -27.5q0 -21 -16.5 -37t-36.5 -16q-17 0 -28.5 11t-11.5 28zM208 39q0 21 17 36.5t37 15.5q17 0 28 -10.5t11 -27.5q0 -21 -16.5 -37t-36.5 -16q-17 0 -28.5 11t-11.5 28zM348 39q0 21 17 36.5t37 15.5q17 0 28 -10.5 t11 -27.5q0 -21 -16.5 -37t-36.5 -16q-17 0 -28.5 11t-11.5 28z" />
<glyph unicode="&#x202f;" horiz-adv-x="185" />
<glyph unicode="&#x2039;" horiz-adv-x="185" d="M63 289l4 26l96 155h54l-103 -168l50 -167h-55z" />
<glyph unicode="&#x203a;" horiz-adv-x="185" d="M63 135l102 167l-49 168h54l46 -155l-4 -26l-94 -154h-55z" />
<glyph unicode="&#x205f;" horiz-adv-x="231" />
<glyph unicode="&#x20ac;" horiz-adv-x="394" d="M61 204l3 21q3 22 11.5 26t52.5 4h20l-2 12l4 26l5 9q-12 1 -33 1q-22 0 -30 -2l-13 2l4 21q5 23 12 26.5t52 3.5h17l-2 15q19 99 50.5 137.5t108.5 38.5l98 -7q-6 -34 -13.5 -40t-44.5 -6h-49q-41 0 -60 -27.5t-33 -98.5l-8 -16q89 -7 102 -7q20 0 35 3l13 -2l-3 -21 q-3 -22 -11.5 -26t-52.5 -4q-34 0 -89 5l2 -10l-4 -25l-6 -13q70 -6 97 -6q21 0 36 3l12 -2l-3 -21q-3 -22 -11.5 -26t-52.5 -4q-20 0 -86 4l2 -12q-6 -54 -6 -68q0 -37 13 -54t44 -17h99l-7 -46l-100 -7q-61 0 -84.5 24t-23.5 80q0 35 8 93l7 12q-14 1 -36 1q-23 0 -32 -2z " />
<glyph unicode="&#x2122;" horiz-adv-x="540" d="M154 685l7 47h151l-7 -47h-56v-18l-47 -295h-45l47 295l5 18h-55zM288 372l57 360h43l53 -160h8l102 160h43l-57 -360h-43l44 278l-76 -128h-50l-37 128l-44 -278h-43z" />
<glyph unicode="&#xe000;" horiz-adv-x="535" d="M0 0v535h535v-535h-535z" />
</font>
</defs>
</svg>
