<?xml version="1.0" standalone="no"?>
<!DOCTYPE svg PUBLIC "-//W3C//DTD SVG 1.1//EN" "http://www.w3.org/Graphics/SVG/1.1/DTD/svg11.dtd" >
<svg xmlns="http://www.w3.org/2000/svg">
<metadata></metadata>
<defs>
<font id="heavy_dataregular" horiz-adv-x="1099" >
<font-face units-per-em="2048" ascent="1638" descent="-410" />
<missing-glyph horiz-adv-x="569" />
<glyph horiz-adv-x="2048" />
<glyph horiz-adv-x="2048" />
<glyph unicode="&#xd;" horiz-adv-x="569" />
<glyph unicode=" "  horiz-adv-x="569" />
<glyph unicode="&#x09;" horiz-adv-x="569" />
<glyph unicode="&#xa0;" horiz-adv-x="569" />
<glyph unicode="!" horiz-adv-x="898" d="M701 601q-8 -99 -95 -100h-205q-100 0 -100 99l-1 504q0 100 100 100h209q87 -1 95 -101zM650 104q-8 -99 -100 -100l-100 -1q-100 0 -100 99l-1 99q0 100 100 100l105 -1q88 0 96 -100v-96z" />
<glyph unicode="&#x22;" horiz-adv-x="585" d="M378 953q-51 7 -51 85l-1 182q0 86 51 86h53q51 0 51 -85v-186q0 -75 -52 -82h-51zM149 952q-51 7 -51 85l-1 183q0 85 51 85l53 1q51 0 51 -85v-186q-1 -75 -52 -82z" />
<glyph unicode="#" horiz-adv-x="1139" />
<glyph unicode="$" horiz-adv-x="1300" d="M1000 702q100 0 100 -98v-408q0 -100 -100 -100h-594q-104 1 -102 100q1 100 100 100h295v206l-401 -1q-95 0 -98 98l-1 405q0 100 100 100l694 -1q97 -8 101 -100q-1 -100 -101 -100l-393 -1l3 -201zM747 -197q-8 -99 -100 -101q-100 0 -100 99v133q0 99 100 99 q91 -1 99 -100zM747 1269q-8 -99 -99 -100q-100 0 -100 99l-1 132q0 100 100 100q92 -1 100 -101v-130z" />
<glyph unicode="%" horiz-adv-x="1821" />
<glyph unicode="&#x26;" horiz-adv-x="1366" />
<glyph unicode="'" horiz-adv-x="351" d="M149 952q-51 7 -51 85l-1 183q0 85 51 85l53 1q51 0 51 -85v-186q-1 -75 -52 -82z" />
<glyph unicode="(" horiz-adv-x="682" />
<glyph unicode=")" horiz-adv-x="682" />
<glyph unicode="*" horiz-adv-x="797" />
<glyph unicode="+" horiz-adv-x="1196" />
<glyph unicode="," horiz-adv-x="698" d="M300 -1q-100 0 -100 99l-1 203q0 100 100 100l105 -1q88 0 96 -100l-1 -415q0 -75 -52 -82h-93q-51 7 -51 55q-3 73 16.5 106.5t-19.5 34.5z" />
<glyph unicode="-" horiz-adv-x="698" d="M199 501q-99 6 -100 67l-1 68q0 67 99 67l303 1q100 0 100 -67v-70q-1 -59 -101 -65z" />
<glyph unicode="." horiz-adv-x="698" d="M500 99q-8 -99 -99 -99l-101 -1q-100 0 -100 99l-1 203q0 100 100 100l105 -1q88 0 96 -100v-201z" />
<glyph unicode="/" horiz-adv-x="569" />
<glyph unicode="0" d="M307 1003v-602h493v601zM900 1207q100 0 100 -100v-1009q0 -98 -100 -98h-702q-99 0 -98 98l-1 1010q0 100 100 100zM655 602q-8 -99 -100 -101q-100 0 -100 99l-1 203q0 100 100 100q92 -1 100 -101z" />
<glyph unicode="1" horiz-adv-x="999" d="M202 0q-102 1 -102 95v4q1 100 100 100h101l-1 804h-98q-102 1 -102 95v4q1 100 100 100h174q12 2 26 2h205q87 -1 95 -101l1 -903h98q99 0 100 -100v-4q0 -94 -102 -95z" />
<glyph unicode="2" d="M307 399l-3 -201l589 -1q100 0 101 -100q-4 -92 -101 -100l-694 -1q-100 0 -100 100l1 605q3 98 98 98l602 -1v206h-400q-99 0 -100 100q-2 99 102 100h498q100 0 100 -100v-608q0 -98 -100 -98z" />
<glyph unicode="3" d="M400 497q-100 0 -100 103q0 100 100 100h204v307l-401 2q-102 -2 -101 96v4q0 95 98 95h701q100 0 100 -100l-1 -1003q0 -100 -100 -100l-699 -1q-100 0 -100 105q0 95 100 95h600v296z" />
<glyph unicode="4" d="M998 102q0 -103 -100 -103q-97 1 -96 104l1 199l-303 1l-300 -2q-100 0 -100 99v696q0 102 98 102h203q94 0 94 -98v-601h304v405q0 99 100 99t100 -100z" />
<glyph unicode="5" d="M598 402l-400 -1q-95 0 -98 98l-1 605q0 100 100 100l694 -1q97 -8 101 -100q-1 -100 -101 -100l-397 -1l4 -402l400 1q100 0 100 -98v-105l-209 -340q-31 -58 -79 -58h-511q-102 1 -102 96v4q1 100 100 100h277z" />
<glyph unicode="6" d="M902 698q98 0 98 -102l-2 -494q0 -103 -100 -103l-698 1q-100 0 -100 99v1000q0 100 100 100h597q102 0 102 -99t-102 -98l-296 3v-305zM299 503l1 -304h501v302z" />
<glyph unicode="7" d="M701 798h-499q-100 0 -101 98v206q2 92 102 100h698q99 -8 100 -99v-207q0 -31 -16 -58v-3l-608 -821q-37 -42 -78 -42q-33 0 -69 26q-80 59 -21 139z" />
<glyph unicode="8" d="M499 700h300v301l-300 -1v-300zM101 500q0 198 197 198q-198 2 -198 203v195q0 102 98 102l701 1q100 0 100 -100v-400q-2 -198 -203 -201q201 -1 203 -200v-199q0 -99 -100 -99h-203q-8 0 -16 1l-479 -2q-100 0 -100 103v398zM296 498l2 -299h301v300z" />
<glyph unicode="9" d="M198 500q-98 0 -98 102l2 494q0 103 100 103l698 -1q100 0 100 -99v-1000q0 -100 -100 -100l-597 1q-102 -1 -102 98t102 98l296 1v305zM800 699v300h-501v-302z" />
<glyph unicode=":" horiz-adv-x="698" d="M500 99q-8 -99 -99 -99l-101 -1q-100 0 -100 99l-1 203q0 100 100 100l105 -1q88 0 96 -100v-201zM500 701q-8 -99 -99 -100l-101 -1q-100 0 -100 99l-1 203q0 100 100 100h105q88 -1 96 -101v-200z" />
<glyph unicode=";" horiz-adv-x="569" />
<glyph unicode="&#x3c;" horiz-adv-x="1196" />
<glyph unicode="=" horiz-adv-x="1196" />
<glyph unicode="&#x3e;" horiz-adv-x="1196" />
<glyph unicode="?" horiz-adv-x="1199" d="M407 600l-3 -97q-4 -92 -105 -101q-100 0 -100 100l1 199q3 98 98 98l401 -1v206l-299 1q-99 0 -100 100q-2 99 102 100l598 -1q100 0 100 -100v-403q0 -98 -100 -98zM450 104q-8 -99 -100 -100l-100 -1q-100 0 -100 99l-1 99q0 100 100 100l105 -1q88 0 96 -100v-96z " />
<glyph unicode="@" horiz-adv-x="2079" />
<glyph unicode="A" horiz-adv-x="1101" d="M75 4q-49 0 -49 50q0 17 6 28l-1 1l205 857l34 143l10 41q19 78 89 78q8 0 17 -1v1h328v-1q9 1 17 1q70 0 89 -78l10 -41l246 -999q3 -12 3 -33q0 -50 -50 -50h-262q-9 -1 -17 -1q-70 0 -89 78l-211 862h-1l-202 -860q-19 -78 -89 -78zM555 100q-8 -99 -100 -100 q-100 0 -100 98l-1 203q0 100 100 100q92 -1 100 -101z" />
<glyph unicode="B" d="M600 1000l-300 1v-301h300v300zM782 697l120 1q98 0 98 -102l-2 -494q0 -103 -100 -103l-479 2q-8 -1 -16 -1h-203q-100 0 -100 99v1000q0 100 100 100l484 -1q98 0 98 -102v-399zM500 499v-300h301l2 299z" />
<glyph unicode="C" d="M900 100q-8 -100 -95 -100h-606q-100 0 -100 100l1 1012q0 96 98 96h702q100 0 100 -98v-203q0 -95 -100 -97q-101 1 -101 95v95l-299 1l1 -801h297q98 0 102 -100z" />
<glyph unicode="D" d="M452 1003l-151 -1l2 -801h157l200 395zM526 0h-326q-100 0 -100 99v1004q0 100 100 100l398 1v-2h91q48 0 79 -58l231 -442q26 -51 26 -101q0 -52 -27 -103l-224 -443q-31 -56 -80 -56h-155q-6 0 -13 1z" />
<glyph unicode="E" d="M897 707q100 0 100 -103q0 -100 -100 -100h-597v-307l598 -2q102 2 101 -96q2 -99 -98 -99h-701q-100 0 -100 100l1 505q-1 100 99 101l1 397q0 100 100 100l599 1q100 0 100 -105q0 -95 -100 -95h-299v-296z" />
<glyph unicode="F" d="M500 499l3 -395q0 -104 -100 -104h-203q-100 0 -100 99v1004q0 100 100 100l701 1q98 0 98 -96v-6q0 -96 -101 -94l-598 -2v-306h597q100 0 100 -100q0 -104 -100 -104z" />
<glyph unicode="G" d="M697 1008h-396l-2 -605l501 -3v200l-198 2q-101 1 -100.5 101.5t101.5 100.5l196 -2l101 1q100 -2 100 -97v-608q0 -98 -100 -98q-101 0 -100 104v96q-100 -200 -250 -200h-352q-98 0 -98 96l-1 1012q0 100 100 100h505q87 0 95 -100q-4 -100 -102 -100z" />
<glyph unicode="H" d="M698 1198h203q98 0 98 -102l-1 -994q0 -103 -100 -103q-97 1 -96 104l1 395l-303 1v-399q0 -99 -100 -99l-200 -1q-100 0 -100 99v1000q0 100 100 100t100 -99v-400h304v400q0 98 94 98z" />
<glyph unicode="I" horiz-adv-x="798" d="M601 99q-8 -99 -95 -100h-205q-100 0 -100 99l-1 1006q0 100 100 100h209q87 -1 95 -101z" />
<glyph unicode="J" horiz-adv-x="799" d="M300 1103q12 100 99 101l205 4q100 0 100 -100l-2 -815q1 -293 -302 -293h-301q-99 0 -99 98q-1 106 99 108h102q102 0 103 91z" />
<glyph unicode="K" horiz-adv-x="1130" d="M626 498l-126 1l3 -395q0 -104 -100 -104h-203q-100 0 -100 99v1004q0 100 100 100l203 1q98 0 98 -102l-1 -397l133 1l240 459q31 58 79 58q26 0 56 -16q61 -32 61 -86q0 -24 -12 -53l-244 -472l241 -473q12 -29 12 -53q0 -54 -61 -86q-30 -15 -55 -15q-49 0 -80 57z " />
<glyph unicode="L" d="M500 206l299 -3v100q0 94 101 95q100 -2 100 -97v-203q0 -98 -100 -98h-702q-98 0 -98 96l-1 1012q0 100 100 100h205q87 -1 95 -101z" />
<glyph unicode="M" horiz-adv-x="1342" d="M876 270q-25 -65 -107 -65v1q-81 0 -106 65l-164 441v-611q-8 -100 -96 -101h-204q-100 0 -100 100l1 1012q0 96 98 96h270v-3q52 -5 85 -63l216 -574l217 573q18 51 72 63l79 1q101 -3 101 -97v-1010q0 -98 -100 -98t-101 92v611z" />
<glyph unicode="N" horiz-adv-x="1200" d="M300 940v-848q-1 -92 -101 -92t-100 98v1010q0 94 101 97l146 -1q57 0 93 -63l261 -691v657q8 100 96 101h204q100 0 100 -100l-1 -1012q0 -96 -98 -96h-270q-82 0 -107 65z" />
<glyph unicode="O" d="M307 802v-602h493v601zM900 1207q100 0 100 -100v-1009q0 -98 -100 -98h-702q-99 0 -98 98l-1 1010q0 100 100 100z" />
<glyph unicode="P" d="M602 1007l-302 -1v-306h300zM997 599q0 -103 -100 -103l-397 3l3 -395q0 -104 -100 -104h-203q-100 0 -100 99v1004q0 100 100 100l701 1q98 0 98 -102z" />
<glyph unicode="Q" d="M800 202v601h-493v-602zM579 1l-380 -1q-100 0 -100 100l1 1010q-1 98 98 98h702q100 0 100 -98v-1009q0 -100 -100 -100h-86l73 -144q12 -29 12 -53q0 -54 -61 -86q-30 -15 -55 -15q-49 0 -80 57z" />
<glyph unicode="R" d="M601 1008l-301 -2v-306h300zM570 498l-70 1l3 -395q0 -104 -100 -104h-203q-100 0 -100 99v1004q0 100 100 100l701 1q98 0 98 -102l-2 -503q0 -103 -100 -103l-93 1l181 -351q40 -93 -49 -139q-88 -46 -135 42z" />
<glyph unicode="S" d="M900 802q100 0 100 -98v-608q0 -100 -100 -100h-594q-104 1 -102 100q1 100 100 100h496v206l-602 -1q-95 0 -98 98l-1 605q0 100 100 100l694 -1q97 -8 101 -100q-1 -100 -101 -100l-589 -1l3 -201z" />
<glyph unicode="T" horiz-adv-x="999" d="M604 100q-8 -100 -108 -100t-100 100l1 708h-245q-102 0 -102 92v212q0 96 98 96h702q100 0 100 -98v-15q0 -90 -101 -90h-245v-905z" />
<glyph unicode="U" d="M307 1108v-708h493v707q0 100 100 100t100 -100v-1009q0 -98 -100 -98h-702q-99 0 -98 98l-1 1010q0 100 100 100t108 -100z" />
<glyph unicode="V" horiz-adv-x="1101" d="M1030 1198q49 0 49 -50q0 -17 -6 -28l1 -1l-205 -857l-34 -143l-10 -41q-19 -78 -89 -78q-8 0 -17 1v-1h-328v1q-9 -1 -17 -1q-70 0 -89 78l-10 41l-246 999q-3 12 -3 33q0 50 50 50h262q9 1 17 1q70 0 89 -78l211 -862h1l202 860q19 78 89 78z" />
<glyph unicode="W" horiz-adv-x="1459" d="M840 594l-80 -332l-34 -143l-10 -41q-15 -61 -61 -74v-4h-264v1q-9 -1 -17 -1q-70 0 -89 78l-10 41l-246 999q-3 12 -3 33q0 50 50 50h262q9 1 17 1q70 0 89 -78l156 -637l131 560l18 75q18 73 81 78h19q63 -5 81 -78l18 -75l128 -547l146 622q19 78 89 78l83 -2 q49 0 49 -50q0 -17 -6 -28l1 -1l-205 -857l-34 -143l-10 -41q-14 -58 -56 -73v-5h-114v5q-42 15 -56 73l-10 41l-34 143z" />
<glyph unicode="X" d="M660 742l174 410q31 57 80 57q25 0 55 -15q61 -32 61 -86q0 -24 -12 -53l-224 -531l223 -370q12 -29 12 -53q0 -54 -60 -86q-30 -16 -56 -16l-160 1q-48 0 -79 58l-244 398l-179 -401q-31 -57 -80 -57q-25 0 -55 15q-61 32 -61 86q0 24 12 53l236 514l-235 381 q-12 29 -12 53q0 54 61 86q30 16 56 16l160 3q48 0 79 -58z" />
<glyph unicode="Y" d="M348 515l-281 532q-12 29 -12 53q0 54 61 86q30 16 56 16l160 3q48 0 79 -58l202 -405l220 410q31 57 80 57q25 0 55 -15q61 -32 61 -86q0 -24 -12 -53l-268 -527l-1 -429q-8 -99 -95 -100h-205q-100 0 -100 99v417z" />
<glyph unicode="Z" d="M416 403h483q100 0 101 -98v-206q-2 -92 -102 -100h-698q-99 8 -100 99v207q0 46 35 82l542 615h-477q-99 8 -100 99q0 100 99 100h668l45 1q66 -6 85 -74q4 -13 4 -27q0 -19 -9 -40q-5 -14 -15 -25q-1 -3 -3 -5z" />
<glyph unicode="[" horiz-adv-x="569" />
<glyph unicode="\" horiz-adv-x="569" />
<glyph unicode="]" horiz-adv-x="569" />
<glyph unicode="^" horiz-adv-x="961" />
<glyph unicode="_" horiz-adv-x="1139" />
<glyph unicode="`" d="M723 1629q58 -19 58 -67l-2 -19q0 -26 -16 -59q-32 -68 -86 -79q-11 -2 -23 -2q-14 0 -30 3l-287 112q-58 19 -58 67l-2 18q0 26 16 59q32 66 86 78q11 2 23 2q14 0 30 -3z" />
<glyph unicode="a" horiz-adv-x="1101" d="M75 4q-49 0 -49 50q0 17 6 28l-1 1l205 857l34 143l10 41q19 78 89 78q8 0 17 -1v1h328v-1q9 1 17 1q70 0 89 -78l10 -41l246 -999q3 -12 3 -33q0 -50 -50 -50h-262q-9 -1 -17 -1q-70 0 -89 78l-211 862h-1l-202 -860q-19 -78 -89 -78zM555 100q-8 -99 -100 -100 q-100 0 -100 98l-1 203q0 100 100 100q92 -1 100 -101z" />
<glyph unicode="b" d="M600 1000l-300 1v-301h300v300zM782 697l120 1q98 0 98 -102l-2 -494q0 -103 -100 -103l-479 2q-8 -1 -16 -1h-203q-100 0 -100 99v1000q0 100 100 100l484 -1q98 0 98 -102v-399zM500 499v-300h301l2 299z" />
<glyph unicode="c" d="M900 100q-8 -100 -95 -100h-606q-100 0 -100 100l1 1012q0 96 98 96h702q100 0 100 -98v-203q0 -95 -100 -97q-101 1 -101 95v95l-299 1l1 -801h297q98 0 102 -100z" />
<glyph unicode="d" d="M452 1003l-151 -1l2 -801h157l200 395zM526 0h-326q-100 0 -100 99v1004q0 100 100 100l398 1v-2h91q48 0 79 -58l231 -442q26 -51 26 -101q0 -52 -27 -103l-224 -443q-31 -56 -80 -56h-155q-6 0 -13 1z" />
<glyph unicode="e" d="M897 707q100 0 100 -103q0 -100 -100 -100h-597v-307l598 -2q102 2 101 -96q2 -99 -98 -99h-701q-100 0 -100 100l1 505q-1 100 99 101l1 397q0 100 100 100l599 1q100 0 100 -105q0 -95 -100 -95h-299v-296z" />
<glyph unicode="f" d="M500 499l3 -395q0 -104 -100 -104h-203q-100 0 -100 99v1004q0 100 100 100l701 1q98 0 98 -96v-6q0 -96 -101 -94l-598 -2v-306h597q100 0 100 -100q0 -104 -100 -104z" />
<glyph unicode="g" d="M697 1008h-396l-2 -605l501 -3v200l-198 2q-101 1 -100.5 101.5t101.5 100.5l196 -2l101 1q100 -2 100 -97v-608q0 -98 -100 -98q-101 0 -100 104v96q-100 -200 -250 -200h-352q-98 0 -98 96l-1 1012q0 100 100 100h505q87 0 95 -100q-4 -100 -102 -100z" />
<glyph unicode="h" d="M698 1198h203q98 0 98 -102l-1 -994q0 -103 -100 -103q-97 1 -96 104l1 395l-303 1v-399q0 -99 -100 -99l-200 -1q-100 0 -100 99v1000q0 100 100 100t100 -99v-400h304v400q0 98 94 98z" />
<glyph unicode="i" horiz-adv-x="798" d="M601 99q-8 -99 -95 -100h-205q-100 0 -100 99l-1 1006q0 100 100 100h209q87 -1 95 -101z" />
<glyph unicode="j" horiz-adv-x="799" d="M300 1103q12 100 99 101l205 4q100 0 100 -100l-2 -815q1 -293 -302 -293h-301q-99 0 -99 98q-1 106 99 108h102q102 0 103 91z" />
<glyph unicode="k" horiz-adv-x="1130" d="M626 498l-126 1l3 -395q0 -104 -100 -104h-203q-100 0 -100 99v1004q0 100 100 100l203 1q98 0 98 -102l-1 -397l133 1l240 459q31 58 79 58q26 0 56 -16q61 -32 61 -86q0 -24 -12 -53l-244 -472l241 -473q12 -29 12 -53q0 -54 -61 -86q-30 -15 -55 -15q-49 0 -80 57z " />
<glyph unicode="l" d="M500 206l299 -3v100q0 94 101 95q100 -2 100 -97v-203q0 -98 -100 -98h-702q-98 0 -98 96l-1 1012q0 100 100 100h205q87 -1 95 -101z" />
<glyph unicode="m" horiz-adv-x="1342" d="M876 270q-25 -65 -107 -65v1q-81 0 -106 65l-164 441v-611q-8 -100 -96 -101h-204q-100 0 -100 100l1 1012q0 96 98 96h270v-3q52 -5 85 -63l216 -574l217 573q18 51 72 63l79 1q101 -3 101 -97v-1010q0 -98 -100 -98t-101 92v611z" />
<glyph unicode="n" horiz-adv-x="1200" d="M300 940v-848q-1 -92 -101 -92t-100 98v1010q0 94 101 97l146 -1q57 0 93 -63l261 -691v657q8 100 96 101h204q100 0 100 -100l-1 -1012q0 -96 -98 -96h-270q-82 0 -107 65z" />
<glyph unicode="o" d="M307 802v-602h493v601zM900 1207q100 0 100 -100v-1009q0 -98 -100 -98h-702q-99 0 -98 98l-1 1010q0 100 100 100z" />
<glyph unicode="p" d="M602 1007l-302 -1v-306h300zM997 599q0 -103 -100 -103l-397 3l3 -395q0 -104 -100 -104h-203q-100 0 -100 99v1004q0 100 100 100l701 1q98 0 98 -102z" />
<glyph unicode="q" d="M800 202v601h-493v-602zM579 1l-380 -1q-100 0 -100 100l1 1010q-1 98 98 98h702q100 0 100 -98v-1009q0 -100 -100 -100h-86l73 -144q12 -29 12 -53q0 -54 -61 -86q-30 -15 -55 -15q-49 0 -80 57z" />
<glyph unicode="r" d="M601 1008l-301 -2v-306h300zM570 498l-70 1l3 -395q0 -104 -100 -104h-203q-100 0 -100 99v1004q0 100 100 100l701 1q98 0 98 -102l-2 -503q0 -103 -100 -103l-93 1l181 -351q40 -93 -49 -139q-88 -46 -135 42z" />
<glyph unicode="s" d="M900 802q100 0 100 -98v-608q0 -100 -100 -100h-594q-104 1 -102 100q1 100 100 100h496v206l-602 -1q-95 0 -98 98l-1 605q0 100 100 100l694 -1q97 -8 101 -100q-1 -100 -101 -100l-589 -1l3 -201z" />
<glyph unicode="t" horiz-adv-x="999" d="M604 100q-8 -100 -108 -100t-100 100l1 708h-245q-102 0 -102 92v212q0 96 98 96h702q100 0 100 -98v-15q0 -90 -101 -90h-245v-905z" />
<glyph unicode="u" d="M307 1108v-708h493v707q0 100 100 100t100 -100v-1009q0 -98 -100 -98h-702q-99 0 -98 98l-1 1010q0 100 100 100t108 -100z" />
<glyph unicode="v" horiz-adv-x="1101" d="M1030 1198q49 0 49 -50q0 -17 -6 -28l1 -1l-205 -857l-34 -143l-10 -41q-19 -78 -89 -78q-8 0 -17 1v-1h-328v1q-9 -1 -17 -1q-70 0 -89 78l-10 41l-246 999q-3 12 -3 33q0 50 50 50h262q9 1 17 1q70 0 89 -78l211 -862h1l202 860q19 78 89 78z" />
<glyph unicode="w" horiz-adv-x="1459" d="M840 594l-80 -332l-34 -143l-10 -41q-15 -61 -61 -74v-4h-264v1q-9 -1 -17 -1q-70 0 -89 78l-10 41l-246 999q-3 12 -3 33q0 50 50 50h262q9 1 17 1q70 0 89 -78l156 -637l131 560l18 75q18 73 81 78h19q63 -5 81 -78l18 -75l128 -547l146 622q19 78 89 78l83 -2 q49 0 49 -50q0 -17 -6 -28l1 -1l-205 -857l-34 -143l-10 -41q-14 -58 -56 -73v-5h-114v5q-42 15 -56 73l-10 41l-34 143z" />
<glyph unicode="x" d="M660 742l174 410q31 57 80 57q25 0 55 -15q61 -32 61 -86q0 -24 -12 -53l-224 -531l223 -370q12 -29 12 -53q0 -54 -60 -86q-30 -16 -56 -16l-160 1q-48 0 -79 58l-244 398l-179 -401q-31 -57 -80 -57q-25 0 -55 15q-61 32 -61 86q0 24 12 53l236 514l-235 381 q-12 29 -12 53q0 54 61 86q30 16 56 16l160 3q48 0 79 -58z" />
<glyph unicode="y" d="M348 515l-281 532q-12 29 -12 53q0 54 61 86q30 16 56 16l160 3q48 0 79 -58l202 -405l220 410q31 57 80 57q25 0 55 -15q61 -32 61 -86q0 -24 -12 -53l-268 -527l-1 -429q-8 -99 -95 -100h-205q-100 0 -100 99v417z" />
<glyph unicode="z" d="M416 403h483q100 0 101 -98v-206q-2 -92 -102 -100h-698q-99 8 -100 99v207q0 46 35 82l542 615h-477q-99 8 -100 99q0 100 99 100h668l45 1q66 -6 85 -74q4 -13 4 -27q0 -19 -9 -40q-5 -14 -15 -25q-1 -3 -3 -5z" />
<glyph unicode="{" horiz-adv-x="684" />
<glyph unicode="|" horiz-adv-x="532" />
<glyph unicode="}" horiz-adv-x="684" />
<glyph unicode="~" horiz-adv-x="1196" />
<glyph unicode="&#xa1;" horiz-adv-x="899" d="M604 104q-8 -100 -95 -101h-209q-100 0 -100 100l1 504q0 99 100 99h205q87 -1 95 -100zM550 1007q-8 -100 -96 -100l-105 -1q-100 0 -100 100l1 99q0 99 100 99l100 -1q92 -1 100 -100v-96z" />
<glyph unicode="&#xa2;" horiz-adv-x="1139" />
<glyph unicode="&#xa3;" horiz-adv-x="1139" />
<glyph unicode="&#xa5;" horiz-adv-x="1139" />
<glyph unicode="&#xa6;" horiz-adv-x="532" />
<glyph unicode="&#xa7;" horiz-adv-x="1139" />
<glyph unicode="&#xa8;" d="M899 1566q-7 -66 -85 -67h-86q-86 0 -86 66v69q0 67 85 67h89q75 0 82 -67zM456 1566q-7 -67 -85 -67l-86 -1q-85 0 -85 67l-1 69q0 67 85 67l90 -1q75 0 81 -67z" />
<glyph unicode="&#xa9;" horiz-adv-x="1509" />
<glyph unicode="&#xaa;" horiz-adv-x="758" />
<glyph unicode="&#xab;" horiz-adv-x="1139" />
<glyph unicode="&#xac;" horiz-adv-x="1196" />
<glyph unicode="&#xad;" horiz-adv-x="698" d="M199 501q-99 6 -100 67l-1 68q0 67 99 67l303 1q100 0 100 -67v-70q-1 -59 -101 -65z" />
<glyph unicode="&#xae;" horiz-adv-x="1509" />
<glyph unicode="&#xb0;" horiz-adv-x="819" />
<glyph unicode="&#xb1;" horiz-adv-x="1124" />
<glyph unicode="&#xb2;" horiz-adv-x="682" />
<glyph unicode="&#xb3;" horiz-adv-x="682" />
<glyph unicode="&#xb4;" d="M626 1739q16 3 30 3q12 0 23 -2q54 -12 86 -78q16 -33 16 -59l-2 -18q0 -48 -58 -67l-287 -112q-16 -3 -30 -3q-12 0 -23 2q-54 11 -86 79q-16 33 -16 59l-2 19q0 48 58 67z" />
<glyph unicode="&#xb5;" horiz-adv-x="1180" />
<glyph unicode="&#xb6;" horiz-adv-x="1100" />
<glyph unicode="&#xb7;" horiz-adv-x="569" />
<glyph unicode="&#xb8;" d="M571 -14l-68 -93h93q48 0 48 -47v-51l-101 -165q-15 -28 -38 -28h-88q-50 1 -50 47v2q1 48 49 48h33l59 97h-93q-48 0 -48 48v51l61 91h143z" />
<glyph unicode="&#xb9;" horiz-adv-x="682" />
<glyph unicode="&#xba;" horiz-adv-x="748" />
<glyph unicode="&#xbb;" horiz-adv-x="1139" />
<glyph unicode="&#xbc;" horiz-adv-x="1708" />
<glyph unicode="&#xbd;" horiz-adv-x="1708" />
<glyph unicode="&#xbe;" horiz-adv-x="1708" />
<glyph unicode="&#xbf;" horiz-adv-x="1200" d="M789 600l2 102q4 92 105 101q100 0 100 -100l-1 -200q-3 -98 -98 -98l-402 1v-206h300q99 0 100 -100q2 -99 -102 -100h-598q-100 0 -100 100v403q0 98 100 98zM749 1104q8 99 99 100l101 1q100 0 100 -99l1 -99q0 -100 -100 -100l-105 1q-88 0 -96 100v96z" />
<glyph unicode="&#xc0;" horiz-adv-x="1101" d="M78 4q-49 0 -49 50q0 17 6 28l-1 1l205 857l34 143l10 41q19 78 89 78q8 0 17 -1v1h328v-1q9 1 17 1q70 0 89 -78l10 -41l246 -999q3 -12 3 -33q0 -50 -50 -50h-262q-9 -1 -17 -1q-70 0 -89 78l-211 862h-1l-202 -860q-19 -78 -89 -78zM558 100q-8 -99 -100 -100 q-100 0 -100 98l-1 203q0 100 100 100q92 -1 100 -101zM693 1629q58 -19 58 -67l-2 -19q0 -26 -16 -59q-32 -68 -86 -79q-11 -2 -23 -2q-14 0 -30 3l-287 112q-58 19 -58 67l-2 18q0 26 16 59q32 66 86 78q11 2 23 2q14 0 30 -3z" />
<glyph unicode="&#xc1;" horiz-adv-x="1101" d="M75 4q-49 0 -49 50q0 17 6 28l-1 1l205 857l34 143l10 41q19 78 89 78q8 0 17 -1v1h328v-1q9 1 17 1q70 0 89 -78l10 -41l246 -999q3 -12 3 -33q0 -50 -50 -50h-262q-9 -1 -17 -1q-70 0 -89 78l-211 862h-1l-202 -860q-19 -78 -89 -78zM555 100q-8 -99 -100 -100 q-100 0 -100 98l-1 203q0 100 100 100q92 -1 100 -101zM699 1738q16 3 30 3q12 0 23 -2q54 -12 86 -78q16 -33 16 -59l-2 -18q0 -48 -58 -67l-287 -112q-16 -3 -30 -3q-12 0 -23 2q-54 11 -86 79q-16 33 -16 59l-2 19q0 48 58 67z" />
<glyph unicode="&#xc2;" horiz-adv-x="1101" d="M75 4q-49 0 -49 50q0 17 6 28l-1 1l205 857l34 143l10 41q19 78 89 78q8 0 17 -1v1h328v-1q9 1 17 1q70 0 89 -78l10 -41l246 -999q3 -12 3 -33q0 -50 -50 -50h-262q-9 -1 -17 -1q-70 0 -89 78l-211 862h-1l-202 -860q-19 -78 -89 -78zM555 100q-8 -99 -100 -100 q-100 0 -100 98l-1 203q0 100 100 100q92 -1 100 -101zM344 1303q-28 0 -28 29q0 10 3 16v1l50 204l20 83l6 23q11 45 51 45h10v0h189v0h9q41 0 52 -45l5 -23l72 -284q2 -7 2 -19q0 -29 -29 -29h-151q-5 -1 -9 -1q-41 0 -52 45l-51 205h-1l-49 -206q-11 -45 -51 -45z" />
<glyph unicode="&#xc3;" horiz-adv-x="1101" d="M75 4q-49 0 -49 50q0 17 6 28l-1 1l205 857l34 143l10 41q19 78 89 78q8 0 17 -1v1h328v-1q9 1 17 1q70 0 89 -78l10 -41l246 -999q3 -12 3 -33q0 -50 -50 -50h-262q-9 -1 -17 -1q-70 0 -89 78l-211 862h-1l-202 -860q-19 -78 -89 -78zM555 100q-8 -99 -100 -100 q-100 0 -100 98l-1 203q0 100 100 100q92 -1 100 -101zM539 1303h-7q-40 0 -51 45l-52 205h-1l-49 -206q-11 -45 -51 -45l-48 1q-28 0 -28 29q0 10 3 16v1l51 204l19 82l6 24q11 45 51 45q5 0 10 -1v1h168v-1q5 1 10 1q8 0 14 -2l8 1q40 0 51 -45l52 -205l49 206 q11 45 52 45l47 -1q29 0 29 -29q0 -10 -4 -16l1 -1l-51 -204l-20 -83l-5 -23q-11 -45 -52 -45h-187q-8 0 -15 1z" />
<glyph unicode="&#xc4;" horiz-adv-x="1101" d="M75 4q-49 0 -49 50q0 17 6 28l-1 1l205 857l34 143l10 41q19 78 89 78q8 0 17 -1v1h328v-1q9 1 17 1q70 0 89 -78l10 -41l246 -999q3 -12 3 -33q0 -50 -50 -50h-262q-9 -1 -17 -1q-70 0 -89 78l-211 862h-1l-202 -860q-19 -78 -89 -78zM555 100q-8 -99 -100 -100 q-100 0 -100 98l-1 203q0 100 100 100q92 -1 100 -101zM904 1566q-7 -66 -85 -66l-86 -1q-85 0 -85 66l-1 69q0 67 85 67h90q75 0 81 -67zM461 1566q-7 -66 -85 -67h-86q-85 0 -85 66l-1 69q0 67 86 67h89q75 -1 82 -68v-67z" />
<glyph unicode="&#xc5;" horiz-adv-x="1366" />
<glyph unicode="&#xc6;" horiz-adv-x="2048" />
<glyph unicode="&#xc7;" d="M900 100q-8 -100 -95 -100h-606q-100 0 -100 100l1 1012q0 96 98 96h702q100 0 100 -98v-203q0 -95 -100 -97q-101 1 -101 95v95l-299 1l1 -801h297q98 0 102 -100zM607 -14l-68 -93h93q48 0 48 -47v-51l-101 -165q-15 -28 -38 -28h-88q-50 1 -50 47v1q1 49 49 49l33 -1 l59 98h-93q-48 0 -48 48v51l61 91h143z" />
<glyph unicode="&#xc8;" d="M897 707q100 0 100 -103q0 -100 -100 -100h-597v-307l598 -2q102 2 101 -96q2 -99 -98 -99h-701q-100 0 -100 100l1 505q-1 100 99 101l1 397q0 100 100 100l599 1q100 0 100 -105q0 -95 -100 -95h-299v-296zM757 1629q58 -19 58 -67l-2 -19q0 -26 -16 -59 q-32 -68 -86 -79q-11 -2 -23 -2q-14 0 -30 3l-287 112q-58 19 -58 67l-2 18q0 26 16 59q32 66 86 78q11 2 23 2q14 0 30 -3z" />
<glyph unicode="&#xc9;" d="M897 707q100 0 100 -103q0 -100 -100 -100h-597v-307l598 -2q102 2 101 -96q2 -99 -98 -99h-701q-100 0 -100 100l1 505q-1 100 99 101l1 397q0 100 100 100l599 1q100 0 100 -105q0 -95 -100 -95h-299v-296zM745 1738q16 3 30 3q12 0 23 -2q54 -12 86 -78q16 -33 16 -59 l-2 -18q0 -48 -58 -67l-287 -112q-16 -3 -30 -3q-12 0 -23 2q-54 11 -86 79q-16 33 -16 59l-2 19q0 48 58 67z" />
<glyph unicode="&#xca;" d="M897 707q100 0 100 -103q0 -100 -100 -100h-597v-307l598 -2q102 2 101 -96q2 -99 -98 -99h-701q-100 0 -100 100l1 505q-1 100 99 101l1 397q0 100 100 100l599 1q100 0 100 -105q0 -95 -100 -95h-299v-296zM422 1303q-28 0 -28 29q0 9 4 16h-1l51 205l19 82l6 24 q11 45 51 45q5 0 10 -1v1h189v-1q5 1 10 1q40 0 51 -45l6 -24l72 -284q2 -7 2 -19q0 -29 -29 -29h-151h-10q-40 0 -51 45l-52 205h-1l-49 -206q-11 -45 -51 -45z" />
<glyph unicode="&#xcb;" d="M897 707q100 0 100 -103q0 -100 -100 -100h-597v-307l598 -2q102 2 101 -96q2 -99 -98 -99h-701q-100 0 -100 100l1 505q-1 100 99 101l1 397q0 100 100 100l599 1q100 0 100 -105q0 -95 -100 -95h-299v-296zM928 1566q-7 -66 -85 -67h-86q-86 0 -86 66v69q0 67 85 67h89 q75 0 82 -67zM485 1566q-7 -67 -85 -67l-86 -1q-85 0 -85 67l-1 69q0 67 85 67l90 -1q75 0 81 -67z" />
<glyph unicode="&#xcc;" horiz-adv-x="798" d="M602 99q-8 -99 -95 -100h-205q-100 0 -100 99l-1 1006q0 100 100 100h209q87 -1 95 -101zM523 1629q58 -19 58 -67l-2 -19q0 -26 -16 -59q-32 -68 -86 -79q-11 -2 -23 -2q-14 0 -30 3l-287 112q-58 19 -58 67l-2 18q0 26 16 59q32 66 86 78q11 2 23 2q14 0 30 -3z" />
<glyph unicode="&#xcd;" horiz-adv-x="798" d="M601 99q-8 -99 -95 -100h-205q-100 0 -100 99l-1 1006q0 100 100 100h209q87 -1 95 -101zM601 1739q16 3 30 3q12 0 23 -2q54 -12 86 -78q16 -33 16 -59l-2 -18q0 -48 -58 -67l-287 -112q-16 -3 -30 -3q-12 0 -23 2q-54 11 -86 79q-16 33 -16 59l-2 19q0 48 58 67z" />
<glyph unicode="&#xce;" horiz-adv-x="798" d="M601 99q-8 -99 -95 -100h-205q-100 0 -100 99l-1 1006q0 100 100 100h209q87 -1 95 -101zM237 1303q-22 0 -22 29q0 10 3 16l-1 1l41 204l15 82l5 24q9 45 41 45q4 0 8 -1v1h151v-1q4 1 8 1q32 0 41 -45l4 -24l58 -284q1 -6 1 -19q0 -28 -23 -28h-120q-5 -1 -8 -1 q-32 0 -41 45l-42 205v0l-39 -206q-9 -45 -41 -45z" />
<glyph unicode="&#xcf;" horiz-adv-x="798" d="M601 99q-8 -99 -95 -100h-205q-100 0 -100 99l-1 1006q0 100 100 100h209q87 -1 95 -101zM749 1566q-7 -66 -85 -67h-86q-86 0 -86 66v69q0 67 85 67h89q75 0 82 -67zM306 1566q-7 -67 -85 -67l-86 -1q-85 0 -85 67l-1 69q0 67 85 67l90 -1q75 0 81 -67z" />
<glyph unicode="&#xd0;" horiz-adv-x="1479" />
<glyph unicode="&#xd1;" horiz-adv-x="1200" d="M300 940v-848q-1 -92 -101 -92t-100 98v1010q0 94 101 97l146 -1q57 0 93 -63l261 -691v657q8 100 96 101h204q100 0 100 -100l-1 -1012q0 -96 -98 -96h-270q-82 0 -107 65zM594 1303h-8q-40 0 -51 45l-52 205h-1l-49 -206q-11 -45 -51 -45l-48 1q-28 0 -28 29q0 10 3 16 v1l51 204l19 82l6 24q11 45 51 45q5 0 10 -1v1h169v-1q5 1 10 1q8 0 14 -2l8 1q40 0 51 -45l52 -205l49 206q11 45 52 45l47 -1q29 0 29 -29q0 -10 -4 -16l1 -1l-51 -204l-20 -83l-5 -23q-11 -45 -52 -45h-188q-7 0 -14 1z" />
<glyph unicode="&#xd2;" d="M307 802v-602h493v601zM900 1207q100 0 100 -100v-1009q0 -98 -100 -98h-702q-99 0 -98 98l-1 1010q0 100 100 100zM698 1628q58 -19 58 -67l-2 -19q0 -26 -16 -59q-32 -68 -86 -79q-11 -2 -23 -2q-14 0 -30 3l-287 112q-58 19 -58 67l-2 18q0 26 16 59q32 66 86 78 q11 2 23 2q14 0 30 -3z" />
<glyph unicode="&#xd3;" d="M307 802v-602h493v601zM900 1207q100 0 100 -100v-1009q0 -98 -100 -98h-702q-99 0 -98 98l-1 1010q0 100 100 100zM733 1739q16 3 30 3q12 0 23 -2q54 -12 86 -78q16 -33 16 -59l-2 -18q0 -48 -58 -67l-287 -112q-16 -3 -30 -3q-12 0 -23 2q-54 11 -86 79q-16 33 -16 59 l-2 19q0 48 58 67z" />
<glyph unicode="&#xd4;" d="M307 802v-602h493v601zM900 1207q100 0 100 -100v-1009q0 -98 -100 -98h-702q-99 0 -98 98l-1 1010q0 100 100 100zM344 1303q-29 0 -29 29q0 10 4 16l-1 1l51 204l20 82l5 24q11 45 52 45q4 0 9 -1v1h189v-1q6 1 10 1q40 0 51 -45l6 -24l72 -283q2 -7 2 -19 q0 -29 -29 -29h-151q-5 -1 -10 -1q-40 0 -51 45l-52 205v0l-49 -206q-11 -45 -51 -45z" />
<glyph unicode="&#xd5;" d="M307 802v-602h493v601zM900 1207q100 0 100 -100v-1009q0 -98 -100 -98h-702q-99 0 -98 98l-1 1010q0 100 100 100zM538 1304q-4 -1 -8 -1q-40 0 -51 45l-52 205h-1l-49 -206q-11 -45 -51 -45l-48 1q-28 0 -28 29q0 10 3 16v1l51 204l19 82l6 24q11 45 51 45q5 0 10 -1v1 h168v-1q5 1 10 1q8 0 15 -1h7q40 0 51 -45l52 -205l49 206q11 45 52 45l47 -1q29 0 29 -29q0 -10 -4 -16l1 -1l-51 -204l-20 -83l-5 -23q-11 -45 -52 -45h-187q-8 0 -14 2z" />
<glyph unicode="&#xd6;" d="M307 802v-602h493v601zM900 1207q100 0 100 -100v-1009q0 -98 -100 -98h-702q-99 0 -98 98l-1 1010q0 100 100 100zM899 1566q-7 -66 -85 -67h-86q-85 0 -85 66l-1 69q0 67 85 67h90q75 0 82 -67v-68zM456 1566q-7 -67 -85 -67l-86 -1q-85 0 -85 67l-1 69q0 67 86 67 l89 -1q75 0 82 -67v-67z" />
<glyph unicode="&#xd7;" horiz-adv-x="1196" />
<glyph unicode="&#xd8;" horiz-adv-x="1593" />
<glyph unicode="&#xd9;" d="M307 1108v-708h493v707q0 100 100 100t100 -100v-1009q0 -98 -100 -98h-702q-99 0 -98 98l-1 1010q0 100 100 100t108 -100zM673 1628q58 -19 58 -67l-2 -19q0 -26 -16 -59q-32 -68 -86 -79q-11 -2 -23 -2q-14 0 -30 3l-287 112q-58 19 -58 67l-2 18q0 26 16 59 q32 66 86 78q11 2 23 2q14 0 30 -3z" />
<glyph unicode="&#xda;" d="M307 1108v-708h493v707q0 100 100 100t100 -100v-1009q0 -98 -100 -98h-702q-99 0 -98 98l-1 1010q0 100 100 100t108 -100zM784 1738q16 3 30 3q12 0 23 -2q54 -12 86 -78q16 -33 16 -59l-2 -18q0 -48 -58 -67l-287 -112q-16 -3 -30 -3q-12 0 -23 2q-54 11 -86 79 q-16 33 -16 59l-2 19q0 48 58 67z" />
<glyph unicode="&#xdb;" d="M307 1108v-708h493v707q0 100 100 100t100 -100v-1009q0 -98 -100 -98h-702q-99 0 -98 98l-1 1010q0 100 100 100t108 -100zM342 1304q-29 0 -29 28q0 10 4 17h-1l51 205l20 82l5 24q11 44 52 44h9v0h189v0h10q40 0 51 -44l6 -24l72 -284q2 -7 2 -19q0 -29 -29 -29h-151 h-10q-40 0 -51 45l-52 205v0l-49 -207q-11 -45 -52 -45z" />
<glyph unicode="&#xdc;" d="M307 1108v-708h493v707q0 100 100 100t100 -100v-1009q0 -98 -100 -98h-702q-99 0 -98 98l-1 1010q0 100 100 100t108 -100zM899 1566q-7 -66 -85 -67h-86q-85 0 -85 66l-1 69q0 67 85 67h90q75 0 82 -67v-68zM456 1566q-7 -67 -85 -67l-86 -1q-85 0 -85 67l-1 69 q0 67 86 67l89 -1q75 0 82 -67v-67z" />
<glyph unicode="&#xdd;" horiz-adv-x="1366" />
<glyph unicode="&#xde;" horiz-adv-x="1366" />
<glyph unicode="&#xdf;" d="M554 808h-246l-3 -709q0 -99 -96 -99q-100 0 -108 100l1 1010q0 98 100 98h598q98 0 98 -96v-132q-6 -153 -59 -204l-129 -175h191q100 0 100 -98v-105l-209 -340q-31 -58 -79 -58h-181q-102 1 -102 96v4q1 100 100 100l68 -1l122 202h-191q-100 0 -100 98v105z" />
<glyph unicode="&#xe0;" horiz-adv-x="1101" d="M29 0zM78 4q-49 0 -49 50q0 17 6 28l-1 1l205 857l34 143l10 41q19 78 89 78q8 0 17 -1v1h328v-1q9 1 17 1q70 0 89 -78l10 -41l246 -999q3 -12 3 -33q0 -50 -50 -50h-262q-9 -1 -17 -1q-70 0 -89 78l-211 862h-1l-202 -860q-19 -78 -89 -78zM558 100q-8 -99 -100 -100 q-100 0 -100 98l-1 203q0 100 100 100q92 -1 100 -101zM693 1629q58 -19 58 -67l-2 -19q0 -26 -16 -59q-32 -68 -86 -79q-11 -2 -23 -2q-14 0 -30 3l-287 112q-58 19 -58 67l-2 18q0 26 16 59q32 66 86 78q11 2 23 2q14 0 30 -3z" />
<glyph unicode="&#xe1;" horiz-adv-x="1101" d="M26 0zM75 4q-49 0 -49 50q0 17 6 28l-1 1l205 857l34 143l10 41q19 78 89 78q8 0 17 -1v1h328v-1q9 1 17 1q70 0 89 -78l10 -41l246 -999q3 -12 3 -33q0 -50 -50 -50h-262q-9 -1 -17 -1q-70 0 -89 78l-211 862h-1l-202 -860q-19 -78 -89 -78zM555 100q-8 -99 -100 -100 q-100 0 -100 98l-1 203q0 100 100 100q92 -1 100 -101zM699 1739q16 3 30 3q12 0 23 -2q54 -12 86 -78q16 -33 16 -59l-2 -18q0 -48 -58 -67l-287 -112q-16 -3 -30 -3q-12 0 -23 2q-54 11 -86 79q-16 33 -16 59l-2 19q0 48 58 67z" />
<glyph unicode="&#xe2;" horiz-adv-x="1101" d="M26 0zM75 4q-49 0 -49 50q0 17 6 28l-1 1l205 857l34 143l10 41q19 78 89 78q8 0 17 -1v1h328v-1q9 1 17 1q70 0 89 -78l10 -41l246 -999q3 -12 3 -33q0 -50 -50 -50h-262q-9 -1 -17 -1q-70 0 -89 78l-211 862h-1l-202 -860q-19 -78 -89 -78zM555 100q-8 -99 -100 -100 q-100 0 -100 98l-1 203q0 100 100 100q92 -1 100 -101zM344 1303q-28 0 -28 29q0 10 3 16v1l51 204l19 82l6 24q11 45 51 45q5 0 10 -1v1h189v-1q5 1 10 1q40 0 51 -45l6 -24l72 -283q1 -7 1 -19q0 -29 -28 -29h-151q-5 -1 -10 -1q-40 0 -51 45l-52 205h-1l-49 -206 q-11 -45 -51 -45z" />
<glyph unicode="&#xe3;" horiz-adv-x="1101" d="M26 0zM75 4q-49 0 -49 50q0 17 6 28l-1 1l205 857l34 143l10 41q19 78 89 78q8 0 17 -1v1h328v-1q9 1 17 1q70 0 89 -78l10 -41l246 -999q3 -12 3 -33q0 -50 -50 -50h-262q-9 -1 -17 -1q-70 0 -89 78l-211 862h-1l-202 -860q-19 -78 -89 -78zM555 100q-8 -99 -100 -100 q-100 0 -100 98l-1 203q0 100 100 100q92 -1 100 -101zM540 1304q-4 -1 -8 -1q-40 0 -51 45l-52 205h-1l-49 -206q-11 -45 -51 -45l-48 1q-28 0 -28 29q0 10 3 16v1l51 204l19 82l6 24q11 45 51 45q5 0 10 -1v1h169v-1q5 1 10 1q7 0 14 -1h8q40 0 51 -45l52 -205l49 206 q11 45 52 45l47 -1q29 0 29 -29q0 -10 -4 -16l1 -1l-51 -204l-20 -83l-5 -23q-11 -45 -52 -45h-188q-8 0 -14 2z" />
<glyph unicode="&#xe4;" horiz-adv-x="1101" d="M26 0zM75 4q-49 0 -49 50q0 17 6 28l-1 1l205 857l34 143l10 41q19 78 89 78q8 0 17 -1v1h328v-1q9 1 17 1q70 0 89 -78l10 -41l246 -999q3 -12 3 -33q0 -50 -50 -50h-262q-9 -1 -17 -1q-70 0 -89 78l-211 862h-1l-202 -860q-19 -78 -89 -78zM555 100q-8 -99 -100 -100 q-100 0 -100 98l-1 203q0 100 100 100q92 -1 100 -101zM904 1566q-7 -66 -85 -67h-86q-86 0 -86 66v69q0 67 85 67h89q75 0 82 -67zM461 1566q-7 -67 -85 -67l-86 -1q-85 0 -85 67l-1 69q0 67 85 67l90 -1q75 0 81 -67z" />
<glyph unicode="&#xe5;" horiz-adv-x="1139" />
<glyph unicode="&#xe6;" horiz-adv-x="1821" />
<glyph unicode="&#xe7;" d="M99 0zM900 100q-8 -100 -95 -100h-606q-100 0 -100 100l1 1012q0 96 98 96h702q100 0 100 -98v-203q0 -95 -100 -97q-101 1 -101 95v95l-299 1l1 -801h297q98 0 102 -100zM607 -14l-68 -93h93q48 0 48 -47v-51l-101 -165q-15 -28 -38 -28h-88q-50 1 -50 47v2q1 48 49 48 h33l59 97h-93q-48 0 -48 48v51l61 91h143z" />
<glyph unicode="&#xe8;" d="M100 0zM897 707q100 0 100 -103q0 -100 -100 -100h-597v-307l598 -2q102 2 101 -96q2 -99 -98 -99h-701q-100 0 -100 100l1 505q-1 100 99 101l1 397q0 100 100 100l599 1q100 0 100 -105q0 -95 -100 -95h-299v-296zM757 1629q58 -19 58 -67l-2 -19q0 -26 -16 -59 q-32 -68 -86 -79q-11 -2 -23 -2q-14 0 -30 3l-287 112q-58 19 -58 67l-2 18q0 26 16 59q32 66 86 78q11 2 23 2q14 0 30 -3z" />
<glyph unicode="&#xe9;" d="M100 0zM897 707q100 0 100 -103q0 -100 -100 -100h-597v-307l598 -2q102 2 101 -96q2 -99 -98 -99h-701q-100 0 -100 100l1 505q-1 100 99 101l1 397q0 100 100 100l599 1q100 0 100 -105q0 -95 -100 -95h-299v-296zM745 1739q16 3 30 3q12 0 23 -2q54 -12 86 -78 q16 -33 16 -59l-2 -18q0 -48 -58 -67l-287 -112q-16 -3 -30 -3q-12 0 -23 2q-54 11 -86 79q-16 33 -16 59l-2 19q0 48 58 67z" />
<glyph unicode="&#xea;" d="M100 0zM897 707q100 0 100 -103q0 -100 -100 -100h-597v-307l598 -2q102 2 101 -96q2 -99 -98 -99h-701q-100 0 -100 100l1 505q-1 100 99 101l1 397q0 100 100 100l599 1q100 0 100 -105q0 -95 -100 -95h-299v-296zM422 1303q-28 0 -28 29q0 10 3 16v1l51 204l19 82 l6 24q11 45 51 45q5 0 10 -1v1h189v-1q5 1 10 1q40 0 51 -45l6 -24l72 -283q1 -7 1 -19q0 -29 -28 -29h-151q-5 -1 -10 -1q-40 0 -51 45l-52 205h-1l-49 -206q-11 -45 -51 -45z" />
<glyph unicode="&#xeb;" d="M100 0zM897 707q100 0 100 -103q0 -100 -100 -100h-597v-307l598 -2q102 2 101 -96q2 -99 -98 -99h-701q-100 0 -100 100l1 505q-1 100 99 101l1 397q0 100 100 100l599 1q100 0 100 -105q0 -95 -100 -95h-299v-296zM928 1566q-7 -66 -85 -67h-86q-86 0 -86 66v69 q0 67 85 67h89q75 0 82 -67zM485 1566q-7 -67 -85 -67l-86 -1q-85 0 -85 67l-1 69q0 67 85 67l90 -1q75 0 81 -67z" />
<glyph unicode="&#xec;" horiz-adv-x="798" d="M77 0zM602 99q-8 -99 -95 -100h-205q-100 0 -100 99l-1 1006q0 100 100 100h209q87 -1 95 -101zM523 1629q58 -19 58 -67l-2 -19q0 -26 -16 -59q-32 -68 -86 -79q-11 -2 -23 -2q-14 0 -30 3l-287 112q-58 19 -58 67l-2 18q0 26 16 59q32 66 86 78q11 2 23 2q14 0 30 -3z " />
<glyph unicode="&#xed;" horiz-adv-x="798" d="M200 0zM601 99q-8 -99 -95 -100h-205q-100 0 -100 99l-1 1006q0 100 100 100h209q87 -1 95 -101zM602 1739q16 3 30 3q12 0 23 -2q54 -12 86 -78q16 -33 16 -59l-2 -18q0 -48 -58 -67l-287 -112q-16 -3 -30 -3q-12 0 -23 2q-54 11 -86 79q-16 33 -16 59l-2 19q0 48 58 67 z" />
<glyph unicode="&#xee;" horiz-adv-x="798" d="M200 0zM601 99q-8 -99 -95 -100h-205q-100 0 -100 99l-1 1006q0 100 100 100h209q87 -1 95 -101zM246.996 1303q-22.4004 0 -22.4004 29q0 10 2.40039 16v1l40.7988 204l15.2002 82l4.7998 24q8.7998 45 40.7998 45q4 0 8 -1v1h151.197v-1q4 1 8 1q31.999 0 40.7988 -45 l4.80078 -24l57.5986 -283q0.799805 -7 0.799805 -19q0 -29 -22.3994 -29h-120.798q-4 -1 -8 -1q-32 0 -40.7998 45l-41.5996 205h-0.799805l-39.1992 -206q-8.7998 -45 -40.7988 -45z" />
<glyph unicode="&#xef;" horiz-adv-x="798" d="M49 0zM601 99q-8 -99 -95 -100h-205q-100 0 -100 99l-1 1006q0 100 100 100h209q87 -1 95 -101zM749 1566q-7 -66 -85 -67h-86q-86 0 -86 66v69q0 67 85 67h89q75 0 82 -67zM306 1566q-7 -67 -85 -67l-86 -1q-85 0 -85 67l-1 69q0 67 85 67l90 -1q75 0 81 -67z" />
<glyph unicode="&#xf0;" horiz-adv-x="1139" />
<glyph unicode="&#xf1;" horiz-adv-x="1200" d="M99 0zM300 940v-848q-1 -92 -101 -92t-100 98v1010q0 94 101 97l146 -1q57 0 93 -63l261 -691v657q8 100 96 101h204q100 0 100 -100l-1 -1012q0 -96 -98 -96h-270q-82 0 -107 65zM595 1304q-4 -1 -8 -1q-40 0 -51 45l-52 205h-1l-49 -206q-11 -45 -51 -45l-48 1 q-28 0 -28 29q0 10 3 16v1l51 204l19 82l6 24q11 45 51 45q5 0 10 -1v1h169v-1q5 1 10 1q7 0 14 -1h8q40 0 51 -45l52 -205l49 206q11 45 52 45l47 -1q29 0 29 -29q0 -10 -4 -16l1 -1l-51 -204l-20 -83l-5 -23q-11 -45 -52 -45h-188q-8 0 -14 2z" />
<glyph unicode="&#xf2;" d="M99 0zM307 802v-602h493v601zM900 1207q100 0 100 -100v-1009q0 -98 -100 -98h-702q-99 0 -98 98l-1 1010q0 100 100 100zM698 1629q58 -19 58 -67l-2 -19q0 -26 -16 -59q-32 -68 -86 -79q-11 -2 -23 -2q-14 0 -30 3l-287 112q-58 19 -58 67l-2 18q0 26 16 59 q32 66 86 78q11 2 23 2q14 0 30 -3z" />
<glyph unicode="&#xf3;" d="M99 0zM307 802v-602h493v601zM900 1207q100 0 100 -100v-1009q0 -98 -100 -98h-702q-99 0 -98 98l-1 1010q0 100 100 100zM733 1739q16 3 30 3q12 0 23 -2q54 -12 86 -78q16 -33 16 -59l-2 -18q0 -48 -58 -67l-287 -112q-16 -3 -30 -3q-12 0 -23 2q-54 11 -86 79 q-16 33 -16 59l-2 19q0 48 58 67z" />
<glyph unicode="&#xf4;" d="M99 0zM307 802v-602h493v601zM900 1207q100 0 100 -100v-1009q0 -98 -100 -98h-702q-99 0 -98 98l-1 1010q0 100 100 100zM344 1303q-28 0 -28 29q0 10 3 16v1l51 204l19 82l6 24q11 45 51 45q5 0 10 -1v1h189v-1q5 1 10 1q40 0 51 -45l6 -24l72 -283q1 -7 1 -19 q0 -29 -28 -29h-151q-5 -1 -10 -1q-40 0 -51 45l-52 205h-1l-49 -206q-11 -45 -51 -45z" />
<glyph unicode="&#xf5;" d="M99 0zM307 802v-602h493v601zM900 1207q100 0 100 -100v-1009q0 -98 -100 -98h-702q-99 0 -98 98l-1 1010q0 100 100 100zM538 1304q-4 -1 -8 -1q-40 0 -51 45l-52 205h-1l-49 -206q-11 -45 -51 -45l-48 1q-28 0 -28 29q0 10 3 16v1l51 204l19 82l6 24q11 45 51 45 q5 0 10 -1v1h169v-1q5 1 10 1q7 0 14 -1h8q40 0 51 -45l52 -205l49 206q11 45 52 45l47 -1q29 0 29 -29q0 -10 -4 -16l1 -1l-51 -204l-20 -83l-5 -23q-11 -45 -52 -45h-188q-8 0 -14 2z" />
<glyph unicode="&#xf6;" d="M99 0zM307 802v-602h493v601zM900 1207q100 0 100 -100v-1009q0 -98 -100 -98h-702q-99 0 -98 98l-1 1010q0 100 100 100zM899 1566q-7 -66 -85 -67h-86q-86 0 -86 66v69q0 67 85 67h89q75 0 82 -67zM456 1566q-7 -67 -85 -67l-86 -1q-85 0 -85 67l-1 69q0 67 85 67 l90 -1q75 0 81 -67z" />
<glyph unicode="&#xf7;" horiz-adv-x="1124" />
<glyph unicode="&#xf8;" horiz-adv-x="1251" />
<glyph unicode="&#xf9;" d="M99 0zM307 1108v-708h493v707q0 100 100 100t100 -100v-1009q0 -98 -100 -98h-702q-99 0 -98 98l-1 1010q0 100 100 100t108 -100zM674 1629q58 -19 58 -67l-2 -19q0 -26 -16 -59q-32 -68 -86 -79q-11 -2 -23 -2q-14 0 -30 3l-287 112q-58 19 -58 67l-2 18q0 26 16 59 q32 66 86 78q11 2 23 2q14 0 30 -3z" />
<glyph unicode="&#xfa;" d="M99 0zM307 1108v-708h493v707q0 100 100 100t100 -100v-1009q0 -98 -100 -98h-702q-99 0 -98 98l-1 1010q0 100 100 100t108 -100zM784 1739q16 3 30 3q12 0 23 -2q54 -12 86 -78q16 -33 16 -59l-2 -18q0 -48 -58 -67l-287 -112q-16 -3 -30 -3q-12 0 -23 2q-54 11 -86 79 q-16 33 -16 59l-2 19q0 48 58 67z" />
<glyph unicode="&#xfb;" d="M99 0zM307 1108v-708h493v707q0 100 100 100t100 -100v-1009q0 -98 -100 -98h-702q-99 0 -98 98l-1 1010q0 100 100 100t108 -100zM342 1303q-28 0 -28 29q0 10 3 16v1l51 204l19 82l6 24q11 45 51 45q5 0 10 -1v1h189v-1q5 1 10 1q40 0 51 -45l6 -24l72 -283q1 -7 1 -19 q0 -29 -28 -29h-151q-5 -1 -10 -1q-40 0 -51 45l-52 205h-1l-49 -206q-11 -45 -51 -45z" />
<glyph unicode="&#xfc;" d="M99 0zM307 1108v-708h493v707q0 100 100 100t100 -100v-1009q0 -98 -100 -98h-702q-99 0 -98 98l-1 1010q0 100 100 100t108 -100zM899 1566q-7 -66 -85 -67h-86q-86 0 -86 66v69q0 67 85 67h89q75 0 82 -67zM456 1566q-7 -67 -85 -67l-86 -1q-85 0 -85 67l-1 69 q0 67 85 67l90 -1q75 0 81 -67z" />
<glyph unicode="&#xfd;" horiz-adv-x="1024" />
<glyph unicode="&#xfe;" horiz-adv-x="1139" />
<glyph unicode="&#xff;" d="M55 0zM348 515l-281 532q-12 29 -12 53q0 54 61 86q30 16 56 16l160 3q48 0 79 -58l202 -405l220 410q31 57 80 57q25 0 55 -15q61 -32 61 -86q0 -24 -12 -53l-268 -527l-1 -429q-8 -99 -95 -100h-205q-100 0 -100 99v417zM910 1566q-7 -66 -85 -67h-86q-86 0 -86 66v69 q0 67 85 67h89q75 0 82 -67zM467 1566q-7 -67 -85 -67l-86 -1q-85 0 -85 67l-1 69q0 67 85 67l90 -1q75 0 81 -67z" />
<glyph unicode="&#x131;" horiz-adv-x="798" d="M601 99q-8 -99 -95 -100h-205q-100 0 -100 99l-1 1006q0 100 100 100h209q87 -1 95 -101z" />
<glyph unicode="&#x152;" horiz-adv-x="2048" />
<glyph unicode="&#x153;" horiz-adv-x="1933" />
<glyph unicode="&#x178;" d="M348 515l-281 532q-12 29 -12 53q0 54 61 86q30 16 56 16l160 3q48 0 79 -58l202 -405l220 410q31 57 80 57q25 0 55 -15q61 -32 61 -86q0 -24 -12 -53l-268 -527l-1 -429q-8 -99 -95 -100h-205q-100 0 -100 99v417zM910 1566q-7 -66 -85 -67h-86q-85 0 -85 66l-1 69 q0 67 85 67h90q75 0 82 -67v-68zM467 1566q-7 -67 -85 -67l-86 -1q-85 0 -85 67l-1 69q0 67 86 67l89 -1q75 0 82 -67v-67z" />
<glyph unicode="&#x2c6;" horiz-adv-x="1101" d="M355 1303q-28 0 -28 29q0 10 3 16v1l51 204l19 82l6 24q11 45 51 45q5 0 10 -1v1h189v-1q5 1 10 1q40 0 51 -45l6 -24l72 -283q1 -7 1 -19q0 -29 -28 -29h-151q-5 -1 -10 -1q-40 0 -51 45l-52 205h-1l-49 -206q-11 -45 -51 -45z" />
<glyph unicode="&#x2dc;" horiz-adv-x="1101" d="M615 1304q-4 -1 -8 -1q-40 0 -51 45l-52 205h-1l-49 -206q-11 -45 -51 -45l-48 1q-28 0 -28 29q0 10 3 16v1l51 204l19 82l6 24q11 45 51 45q5 0 10 -1v1h169v-1q5 1 10 1q7 0 14 -1h8q40 0 51 -45l52 -205l49 206q11 45 52 45l47 -1q29 0 29 -29q0 -10 -4 -16l1 -1 l-51 -204l-20 -83l-5 -23q-11 -45 -52 -45h-188q-8 0 -14 2z" />
<glyph unicode="&#x2000;" horiz-adv-x="871" />
<glyph unicode="&#x2001;" horiz-adv-x="1742" />
<glyph unicode="&#x2002;" horiz-adv-x="871" />
<glyph unicode="&#x2003;" horiz-adv-x="1742" />
<glyph unicode="&#x2004;" horiz-adv-x="580" />
<glyph unicode="&#x2005;" horiz-adv-x="435" />
<glyph unicode="&#x2006;" horiz-adv-x="290" />
<glyph unicode="&#x2007;" horiz-adv-x="290" />
<glyph unicode="&#x2008;" horiz-adv-x="217" />
<glyph unicode="&#x2009;" horiz-adv-x="348" />
<glyph unicode="&#x200a;" horiz-adv-x="96" />
<glyph unicode="&#x2010;" horiz-adv-x="698" d="M199 501q-99 6 -100 67l-1 68q0 67 99 67l303 1q100 0 100 -67v-70q-1 -59 -101 -65z" />
<glyph unicode="&#x2011;" horiz-adv-x="698" d="M199 501q-99 6 -100 67l-1 68q0 67 99 67l303 1q100 0 100 -67v-70q-1 -59 -101 -65z" />
<glyph unicode="&#x2012;" horiz-adv-x="698" d="M199 501q-99 6 -100 67l-1 68q0 67 99 67l303 1q100 0 100 -67v-70q-1 -59 -101 -65z" />
<glyph unicode="&#x2013;" horiz-adv-x="1139" />
<glyph unicode="&#x2014;" horiz-adv-x="2048" />
<glyph unicode="&#x2018;" horiz-adv-x="351" d="M149 952q-51 7 -51 85l-1 183q0 85 51 85l53 1q51 0 51 -85v-186q-1 -75 -52 -82z" />
<glyph unicode="&#x2019;" horiz-adv-x="351" d="M149 952q-51 7 -51 85l-1 183q0 85 51 85l53 1q51 0 51 -85v-186q-1 -75 -52 -82z" />
<glyph unicode="&#x201a;" horiz-adv-x="455" />
<glyph unicode="&#x201c;" horiz-adv-x="585" d="M378 953q-51 7 -51 85l-1 182q0 86 51 86h53q51 0 51 -85v-186q0 -75 -52 -82h-51zM149 952q-51 7 -51 85l-1 183q0 85 51 85l53 1q51 0 51 -85v-186q-1 -75 -52 -82z" />
<glyph unicode="&#x201d;" horiz-adv-x="585" d="M378 953q-51 7 -51 85l-1 182q0 86 51 86h53q51 0 51 -85v-186q0 -75 -52 -82h-51zM149 952q-51 7 -51 85l-1 183q0 85 51 85l53 1q51 0 51 -85v-186q-1 -75 -52 -82z" />
<glyph unicode="&#x201e;" horiz-adv-x="682" />
<glyph unicode="&#x2022;" horiz-adv-x="717" />
<glyph unicode="&#x2026;" horiz-adv-x="2048" />
<glyph unicode="&#x202f;" horiz-adv-x="348" />
<glyph unicode="&#x2039;" horiz-adv-x="682" />
<glyph unicode="&#x203a;" horiz-adv-x="682" />
<glyph unicode="&#x205f;" horiz-adv-x="435" />
<glyph unicode="&#x20ac;" d="M500 830l281 1q80 0 80 -78q0 -83 -80 -85l-281 -1v-141h281q80 0 80 -78q0 -84 -80 -85h-281v-65q1 -92 103 -92l294 1q100 -2 100 -108q0 -98 -100 -98h-495q-300 0 -300 290v620q0 291 302 290l493 2q100 0 100 -90q0 -106 -100 -108l-294 -1q-102 0 -103 -92v-82z " />
<glyph unicode="&#x2122;" horiz-adv-x="2048" />
<glyph unicode="&#xe000;" horiz-adv-x="1210" d="M0 1210h1210v-1210h-1210v1210z" />
<glyph horiz-adv-x="1124" d="M0 0z" />
</font>
</defs>
</svg>
