<?xml version="1.0" standalone="no"?>
<!DOCTYPE svg PUBLIC "-//W3C//DTD SVG 1.1//EN" "http://www.w3.org/Graphics/SVG/1.1/DTD/svg11.dtd" >
<svg xmlns="http://www.w3.org/2000/svg">
<metadata></metadata>
<defs>
<font id="perspective_sans_blackregular" horiz-adv-x="1559" >
<font-face units-per-em="2048" ascent="1638" descent="-410" />
<missing-glyph horiz-adv-x="553" />
<glyph horiz-adv-x="0" />
<glyph horiz-adv-x="0" />
<glyph unicode="&#xd;" horiz-adv-x="553" />
<glyph unicode="&#x9;" horiz-adv-x="553" />
<glyph unicode=" "  horiz-adv-x="553" />
<glyph unicode="&#x09;" horiz-adv-x="553" />
<glyph unicode="&#xa0;" horiz-adv-x="553" />
<glyph unicode="!" horiz-adv-x="674" d="M485 449l-299 -27l-18 375v633l336 26v-659zM336 -16q-84 0 -143 55q-60 53 -60 129q0 78 59.5 131t143.5 53q82 0 143 -53q62 -53 62 -131t-62 -131q-61 -53 -143 -53z" />
<glyph unicode="&#x22;" horiz-adv-x="715" d="M670 1354l-86 -246l-152 2q-16 61 -31 123q-22 92 -22 151q0 158 149 160h9q53 0 100 -31.5t47 -89.5q0 -24 -14 -69zM322 1354l-86 -246l-152 2q-16 61 -31 123q-22 92 -22 151q0 158 147 160h8q56 0 103 -31.5t47 -89.5q0 -24 -14 -69z" />
<glyph unicode="#" horiz-adv-x="1264" d="M958 248v-250l-266 -25v275h-121v-275l-266 25v250h-172v252h172v149h-172v252h172v262l266 25v-287h121v287l266 -25v-262h172v-252h-172v-149h172v-252h-172zM692 649h-121v-149h121v149z" />
<glyph unicode="$" horiz-adv-x="1112" d="M707 31v-82h-267v55q-102 8 -213 45q-110 35 -155 78l118 209q121 -62 250 -78v172q-145 12 -239.5 92t-102.5 187v20q0 102 80 195q96 108 262 149v123h267v-123q186 -35 266 -110l-107 -205q-47 16 -159 51v-131q159 -16 249 -103q84 -81 84 -202t-108 -219 q-92 -84 -225 -123zM440 791q-18 -7 -39 -13q-22 -8 -26 -24q-2 -4 -2 -9q0 -36 67 -55v101zM707 422v-96l32 12q27 10 29 29v4q0 28 -61 51z" />
<glyph unicode="%" horiz-adv-x="1653" d="M1266 -37h-4q-132 0 -224 96q-96 99 -96 224q0 43 14 82q33 98 113 157q80 60 188 60q132 0 224 -84q92 -86 98 -207v-21q0 -116 -84 -207q-92 -98 -229 -100zM481 -68l-198 160l841 1059l228 -123zM395 555h-4q-127 0 -221 92q-98 94 -98 215q0 43 14 82q72 201 301 201 q127 0 221 -78t101 -197v-24q0 -111 -84 -195q-97 -94 -230 -96zM1319 281q-4 79 -59 79h-5q-55 -2 -55 -65q0 -37 21 -68q16 -30 39 -30h4q55 2 55 73v11zM385 924q-53 -2 -53 -68q0 -70 57 -70h4q51 2 56 62v8q0 27 -17 47q-20 21 -43 21h-4z" />
<glyph unicode="&#x26;" horiz-adv-x="1526" d="M1239 -86l-250 250q-198 -191 -414 -191h-20q-207 9 -344 138q-139 127 -139 297q0 120 88 221q53 61 186 153q-151 170 -151 299q0 21 4 39q34 154 143 236q96 76 223 76q146 0 254 -91q117 -98 131 -258v-16q0 -129 -180 -295l213 -217l193 184l204 -188l-204 -189 l278 -245zM565 1178q-80 -2 -96 -105v-4q0 -41 92 -111q115 66 115 105v4q-4 45 -37 80q-33 31 -70 31h-4zM553 594q-186 -109 -186 -174v-4q10 -82 65 -133q55 -54 146 -56h4q84 0 202 133z" />
<glyph unicode="'" horiz-adv-x="371" d="M324 1354l-84 -246l-154 2l-51 266q-4 19 -4 35q0 64 49 100q43 33 106 33q68 0 113 -37q41 -32 41 -82q0 -14 -4 -28q-2 -13 -12 -43z" />
<glyph unicode="(" horiz-adv-x="823" d="M410 500q0 -267 79 -457q82 -201 308 -453l-295 -143q-242 272 -336 505.5t-94 547.5q0 315 92 544q96 238 338 506l311 -127q-233 -258 -321 -460q-82 -193 -82 -463z" />
<glyph unicode=")" horiz-adv-x="823" d="M322 -553l-297 143q225 256 309 455q80 191 80 455q0 268 -84 467q-86 196 -320 456l309 127q242 -270 337.5 -503.5t95.5 -546.5q0 -314 -95 -547q-94 -234 -335 -506z" />
<glyph unicode="*" horiz-adv-x="965" d="M741 969l-131 102l27 -145h-303l26 145l-137 -102l-151 221l161 49l-161 49l151 221l137 -104l-26 135h303l-27 -133l131 102l150 -221l-156 -49l158 -51z" />
<glyph unicode="+" horiz-adv-x="1034" d="M664 313l2 -190h-297v188h-236v238h236l2 188h293v-188h237v-238z" />
<glyph unicode="," horiz-adv-x="555" d="M420 2l-199 -274l-139 53l65 352q27 152 166 152q64 0 113 -43q47 -43 47 -117q0 -49 -53 -123z" />
<glyph unicode="-" horiz-adv-x="844" d="M133 403v267h578v-267h-578z" />
<glyph unicode="." horiz-adv-x="510" d="M254 -16q-76 0 -129 53t-53 129t53 129t129 53t131 -53q53 -53 53 -129t-53 -129q-55 -53 -131 -53z" />
<glyph unicode="/" horiz-adv-x="1118" d="M297 -348l-307 121l827 1781l311 -108z" />
<glyph unicode="0" horiz-adv-x="1483" d="M741 -14q-278 0 -473 172q-196 170 -196 415q0 246 196 418q195 170 473 170q279 0 476 -170q194 -172 194 -418q0 -245 -194 -415q-197 -172 -476 -172zM741 877q-139 0 -235 -89q-98 -90 -98 -215q0 -122 98 -213q96 -90 235 -90q140 0 238 90q96 91 96 213 q0 125 -96 215q-98 89 -238 89z" />
<glyph unicode="1" horiz-adv-x="768" d="M299 0v791l-80 -50l-147 242l288 164h275v-1147h-336z" />
<glyph unicode="2" horiz-adv-x="1204" d="M125 0v236l266 192q164 121 256 207q94 88 94 153v13q-6 45 -57 78q-43 26 -92 26h-17q-145 -14 -346 -102l-116 262q272 109 462 109q222 0 334 -72q113 -72 152 -230q10 -41 10 -81q0 -250 -364 -517h385v-274h-967z" />
<glyph unicode="3" horiz-adv-x="1163" d="M631 -14q-17 -2 -37 -2q-164 0 -481 108l94 252q188 -94 332 -94q22 0 43 2q135 14 145 90v12q0 41 -31 80q-37 45 -100 45h-338v236q195 -6 268 -6q37 0 45 2q115 22 115 102q0 16 -4 37q-12 53 -113 53q-151 0 -344 -76l-106 242q323 105 463 105q147 0 260 -66 q121 -72 159 -199q17 -55 17 -110q0 -113 -70 -195q103 -92 103 -244q0 -16 -2 -32q-11 -148 -140 -242q-114 -86 -278 -100z" />
<glyph unicode="4" horiz-adv-x="1159" d="M969 254v-254l-336 2v252h-602v227l647 666h291v-619h159v-274h-159zM633 756l-225 -228h225v228z" />
<glyph unicode="5" horiz-adv-x="1112" d="M639 -16q-27 -7 -61 -7q-175 0 -465 123l102 265q250 -115 350 -115h15q77 8 120 45q41 37 41 84q0 84 -108 129q-4 2 -15 2q-53 0 -290 -51l-178 129l53 559h766l30 -275h-499l-13 -110q80 10 140 10q28 0 53 -2q233 -27 336 -197q53 -90 53 -180q0 -82 -45 -164 q-102 -188 -385 -245z" />
<glyph unicode="6" horiz-adv-x="1196" d="M616 842q201 -2 351 -123q157 -125 157 -303q0 -180 -161 -305q-154 -121 -355 -125h-12q-205 0 -371 135q-153 125 -153 285q0 18 2 36q26 271 248 498q133 137 229 211q141 104 344 190l188 -227q-329 -149 -467 -272zM600 575h-14q-72 0 -127 -36q-62 -41 -66 -111v-8 q0 -68 62 -113q59 -43 137 -43h12q76 4 133 47q58 41 58 111q0 67 -58.5 108t-136.5 45z" />
<glyph unicode="7" horiz-adv-x="1112" d="M354 -178l-282 117q202 475 538 931h-504l29 277h879l26 -223q-159 -183 -360 -506q-203 -326 -326 -596z" />
<glyph unicode="8" horiz-adv-x="1159" d="M1087 338v-4q0 -166 -163 -264q-142 -88 -326 -90h-16q-189 0 -334 81q-176 101 -176 273v8q6 174 145 274q-98 84 -104 220v16q0 149 153 242q135 80 305 80h9q163 -3 288 -76q146 -86 154 -236v-20q0 -133 -92 -221q155 -101 157 -283zM565 934q-57 -2 -96 -29 q-45 -28 -45 -78q2 -90 137 -98h17q53 0 100 27q47 28 47 75v9q-4 49 -55 75q-39 19 -92 19h-13zM784 344v8q0 64 -65 103q-60 34 -144 34q-83 0 -147 -40q-61 -43 -61 -105v-14q16 -119 198 -119h8q84 2 142 31q67 34 69 102z" />
<glyph unicode="9" horiz-adv-x="1196" d="M584 317q-203 2 -355 121q-157 125 -157 305q0 181 159 308q154 120 357 125h12q205 0 371 -138q153 -127 153 -286q0 -17 -2 -35q-28 -285 -248 -510q-126 -131 -227 -203q-135 -94 -336 -174l-192 231q334 134 465 256zM590 897q-82 -2 -139 -43q-64 -43 -64 -113v-4 q0 -71 66 -112q57 -37 141 -41h16q76 0 138 34q65 39 69 113v8q0 72 -65 117q-66 41 -146 41h-16z" />
<glyph unicode=":" horiz-adv-x="469" d="M233 496q-75 0 -129 53q-53 53 -53 129t53 129q54 53 129 53q76 0 132 -53q53 -53 53 -129t-53 -129q-56 -53 -132 -53zM233 -16q-75 0 -129 53q-53 53 -53 129t53 129q54 53 129 53q76 0 132 -53q53 -53 53 -129t-53 -129q-56 -53 -132 -53z" />
<glyph unicode=";" horiz-adv-x="539" d="M303 475q-76 0 -129 53q-53 54 -53 129q0 76 53 129q53 54 129 54t131 -54q53 -53 53 -129q0 -75 -53 -129q-55 -53 -131 -53zM428 -10l-209 -287l-168 64l68 370q14 82 71 127q50 41 117 41q72 0 127 -47q53 -49 53 -133q0 -53 -59 -135z" />
<glyph unicode="&#x3c;" horiz-adv-x="1114" d="M856 121l-723 289v200l723 277l121 -223l-406 -158l410 -166z" />
<glyph unicode="=" horiz-adv-x="1010" d="M133 436v226h744v-226h-744zM133 125v227h744v-227h-744z" />
<glyph unicode="&#x3e;" horiz-adv-x="1114" d="M258 121l-121 223l406 158l-410 166l123 221l725 -291v-201z" />
<glyph unicode="?" horiz-adv-x="1137" d="M866 709l-98 -66q-76 -53 -80 -70q-14 -61 -14 -90v-34l-336 -37v75q0 146 84 244q47 55 203 166q114 82 123 158v8q0 37 -39 70q-50 41 -123 47q-15 2 -29 2q-151 0 -371 -140l-94 277q318 145 486 145q14 0 28 -2q189 -14 326 -114q153 -113 153 -277q0 -205 -219 -362 zM508 -16q-84 0 -143 55q-60 53 -60 129q0 78 59.5 131t143.5 53q82 0 143 -53q62 -53 62 -131t-62 -131q-61 -53 -143 -53z" />
<glyph unicode="@" horiz-adv-x="1343" d="M1130 360q-116 -112 -323 -112q-49 0 -111 6q-43 -10 -75 -10q-15 0 -27 2q-86 12 -162 86t-76 166q0 75 64 157q55 72 127 109q49 24 170 24q129 0 260 -22q-14 -160 -35 -297q57 16 111 76q53 57 57 112v11q0 110 -127 172q-104 47 -266 51h-12q-162 0 -299 -111 q-144 -114 -150 -254v-12q0 -94 68 -184q79 -103 219 -158q53 -20 129 -20q190 0 452 110l-59 -164q-252 -102 -459 -102q-86 0 -149 22q-174 64 -279.5 201t-105.5 305q0 43 8 86q35 201 221 324q168 110 387 119h47q178 0 314 -56q198 -79 235 -256q8 -34 8 -69 q0 -158 -162 -312zM612 487q0 -41 62 -41q10 0 22 3l19 145q-47 -2 -74 -33q-29 -33 -29 -74z" />
<glyph unicode="A" d="M1186 -23l-160 392h-494l-159 -392l-342 50l585 1407h326l586 -1407zM780 967l-133 -320h264z" />
<glyph unicode="B" horiz-adv-x="1378" d="M596 -20q-213 0 -463 24v1421q219 29 420 29q250 0 426 -68q250 -96 250 -303q0 -178 -152 -303q101 -61 162 -153q68 -103 68 -213q0 -236 -252 -348q-191 -86 -459 -86zM590 1176q-10 0 -121 -2v-279q31 -2 61 -2q121 0 215 22q150 35 150 117q0 88 -102 119 q-35 10 -203 25zM469 614v-350q86 -8 158 -8q112 0 211 37q131 49 131 145q0 183 -359 183q-69 0 -141 -7z" />
<glyph unicode="C" horiz-adv-x="1425" d="M72 727q0 295 235 512q232 211 529 211q192 0 485 -94l-57 -299q-258 114 -398 114q-188 0 -321 -133q-135 -135 -135 -321q0 -189 139 -316q137 -129 330 -129q151 0 430 129l45 -292q-316 -125 -516 -125q-310 0 -537 219q-229 217 -229 524z" />
<glyph unicode="D" horiz-adv-x="1509" d="M629 -14q-185 0 -496 18v1421q229 29 426 29q338 0 588 -162q291 -186 291 -508q0 -366 -221 -581q-222 -217 -588 -217zM469 1180v-914q55 -6 109 -6q522 0 522 488q0 436 -537 436q-47 0 -94 -4z" />
<glyph unicode="E" horiz-adv-x="1280" d="M1178 0h-1045v1434h1004l30 -279h-698v-276h616v-279h-616v-321h739z" />
<glyph unicode="F" horiz-adv-x="1239" d="M469 1155v-276h616v-279h-616v-600h-336v1434h1004l30 -279h-698z" />
<glyph unicode="G" horiz-adv-x="1528" d="M793 -14q-312 0 -521 227q-200 217 -200 502q0 291 202 504q211 219 527 229h22q170 0 496 -84l-55 -293q-273 103 -428 103q-17 0 -31 -3q-174 -12 -287 -143q-112 -131 -112 -313q0 -183 116 -318q117 -135 275 -135q114 0 207 70q90 69 116 170h-360v276h692 q4 -47 4 -94q0 -317 -182 -508q-182 -190 -481 -190z" />
<glyph unicode="H" horiz-adv-x="1505" d="M1036 -23v623h-567v-600h-336v1430l336 26v-577h567v555h336v-1430z" />
<glyph unicode="I" horiz-adv-x="602" d="M133 0v1430l336 26v-1456h-336z" />
<glyph unicode="J" horiz-adv-x="1311" d="M1137 295q-131 -285 -525 -303h-24q-264 0 -547 252l184 221q240 -195 361 -195h12q104 11 145 35q35 21 72 84q21 37 27 117v950l336 -26v-920q-2 -41 -7 -78q-12 -88 -34 -137z" />
<glyph unicode="K" horiz-adv-x="1432" d="M1018 -18l-549 507v-489h-336v1430l336 26v-471l514 467l408 -51l-736 -662l766 -706z" />
<glyph unicode="L" horiz-adv-x="1280" d="M1178 0h-1045v1430l336 26v-1177h739z" />
<glyph unicode="M" horiz-adv-x="1827" d="M1413 -25l-70 779l-268 -756h-321l-283 758l-59 -781l-334 48l139 1407l318 22l376 -983l365 983l317 -22l156 -1407z" />
<glyph unicode="N" horiz-adv-x="1542" d="M1067 -16l-598 907v-911l-336 24v1428l363 18l577 -885v871h336v-1432z" />
<glyph unicode="O" horiz-adv-x="1630" d="M813 -14q-317 0 -534 225q-207 217 -207 506q0 295 209 510q217 221 538 221h4q312 -2 523 -215q200 -203 213 -488v-32q0 -279 -199 -492q-219 -235 -547 -235zM815 1171h-4q-172 0 -287 -133q-118 -135 -118 -323q0 -180 124 -316q125 -137 287 -137q168 0 287 137 q117 136 117 314v8q-2 186 -117 317q-117 131 -289 133z" />
<glyph unicode="P" horiz-adv-x="1333" d="M698 561q-82 -2 -229 -8v-553h-336v1430q250 22 430 22q66 0 115 -4q584 -39 584 -434v-13q-5 -204 -170 -323q-154 -113 -394 -117zM721 1161q-80 13 -176 13q-37 0 -76 -3v-337q113 -7 143 -7q295 0 316 183v12q0 108 -207 139z" />
<glyph unicode="Q" horiz-adv-x="1671" d="M1384 256l172 -162l-272 -170l-137 131q-146 -73 -313 -73q-314 0 -537 223q-225 223 -225 512q0 297 223 516q219 215 545 215h4q317 -2 534 -209q217 -209 221 -498v-12q0 -143 -49 -252q-51 -112 -166 -221zM838 1171q-183 0 -308 -135q-124 -135 -124 -323 q0 -181 133 -318t299 -137q45 0 86 14l-267 260l285 156l217 -213q101 115 103 246v4q0 182 -121 313q-123 131 -303 133z" />
<glyph unicode="R" horiz-adv-x="1450" d="M1014 -23l-348 582q-41 0 -197 -6v-553h-336v1430q250 22 430 22q66 0 115 -4q584 -39 584 -434v-13q-7 -258 -256 -374l372 -598zM721 1161q-80 13 -176 13q-37 0 -76 -3v-337q115 -7 143 -7q295 0 316 183v12q0 108 -207 139z" />
<glyph unicode="S" horiz-adv-x="1331" d="M635 -14q-21 -2 -43 -2q-125 0 -281 51q-166 55 -239 121l172 258q53 -47 180 -95q125 -49 213 -53h25q114 0 190 53q76 54 76 130q0 71 -70 114q-67 45 -180 45q-19 0 -37 -2q-20 -2 -39 -2q-203 0 -342 119q-143 123 -143 303v21q8 186 213 301q164 94 346 98h24 q121 0 256 -33q160 -41 228 -100l-135 -238q-240 92 -355 92h-14q-94 -4 -162 -55q-67 -51 -67 -111q0 -118 241 -118h33h20q228 0 373 -129q142 -129 142 -322q0 -31 -5 -61q-45 -340 -620 -385z" />
<glyph unicode="T" horiz-adv-x="1384" d="M860 1155v-1155h-336v1155h-452l30 279h1180l31 -279h-453z" />
<glyph unicode="U" horiz-adv-x="1550" d="M764 -14q-631 22 -631 612v832l336 26v-850q4 -55 10 -108q6 -66 25 -107q59 -129 248 -129q141 0 237 82q94 80 94 205q0 18 -2 39v846h336v-844q0 -283 -180 -449q-172 -155 -440 -155h-33z" />
<glyph unicode="V" d="M942 0h-326l-585 1407l342 49l407 -989l406 989l342 -49z" />
<glyph unicode="W" horiz-adv-x="2073" d="M1604 0h-310l-258 893l-258 -893h-309l-459 1409l346 49l265 -932l258 891h315l258 -891l266 932l344 -49z" />
<glyph unicode="X" horiz-adv-x="1419" d="M1024 -23l-313 490l-316 -490l-375 52l498 712l-461 664l373 51l281 -438l280 438l373 -51l-463 -664l498 -712z" />
<glyph unicode="Y" horiz-adv-x="1413" d="M877 600v-600h-336v600l-531 805l377 49l322 -543l323 543l371 -49z" />
<glyph unicode="Z" horiz-adv-x="1389" d="M1296 0h-1208l-27 227l768 928h-743l23 279h1155l32 -217l-776 -938h807z" />
<glyph unicode="[" horiz-adv-x="584" d="M82 -530v2064h522v-287h-186v-1493h186v-284h-522z" />
<glyph unicode="\" horiz-adv-x="1118" d="M821 -348l-831 1794l311 108l827 -1781z" />
<glyph unicode="]" horiz-adv-x="666" d="M10 -530v284h187v1493h-187v287h522v-2064h-522z" />
<glyph unicode="^" horiz-adv-x="967" d="M733 1143l-250 157l-250 -157l-161 133l321 227h187l315 -227z" />
<glyph unicode="_" horiz-adv-x="1677" d="M72 -184v184h1534v-184h-1534z" />
<glyph unicode="`" horiz-adv-x="719" d="M467 1087l-418 248l242 156l379 -295z" />
<glyph unicode="a" horiz-adv-x="1155" d="M682 -2v51q-16 -4 -107 -39q-63 -24 -110 -24q-168 0 -285 90q-129 98 -129 260q0 172 154 252q121 61 317 61q84 0 166 -10q-8 147 -178 147q-53 0 -150 -36q-73 -31 -147 -60l-139 234q297 108 446 108q502 0 502 -373l-4 -661h-336zM682 410q-64 10 -121 10 q-180 0 -180 -86q0 -96 178 -96q64 0 123 12v160z" />
<glyph unicode="b" horiz-adv-x="1292" d="M469 39v-41h-336v1470l336 25v-530q55 20 109 43q67 24 112 24q234 0 383 -141q148 -144 148 -373q0 -248 -142 -387q-141 -141 -393 -141q-37 0 -217 51zM674 743q-82 0 -205 -38v-412q127 -31 217 -31q96 0 150 72q49 65 49 162q0 102 -51 170q-60 77 -160 77z" />
<glyph unicode="c" horiz-adv-x="1169" d="M612 -14q-256 20 -405 182q-135 147 -135 348q0 205 139 348q151 158 416 168h20q98 0 221 -33q41 -10 230 -71l-148 -256q-55 26 -108 47q-125 47 -219 47q-86 0 -154 -78q-68 -80 -68 -182q0 -105 68 -178.5t158 -75.5h12q119 0 319 80l140 -240q-312 -108 -459 -108 q-14 0 -27 2z" />
<glyph unicode="d" horiz-adv-x="1292" d="M823 -2v41q-53 -16 -106 -33q-66 -18 -111 -18q-252 0 -393 141t-141 389q0 232 147 373q148 141 381 141q45 0 113 -26l110 -43v530l336 -25v-1470h-336zM823 707q-123 38 -205 38q-100 0 -159 -77q-51 -68 -51 -170q0 -99 47 -162q53 -74 149 -74q82 0 219 33v412z" />
<glyph unicode="e" horiz-adv-x="1237" d="M1147 403l-698 -20q94 -147 256 -147q182 0 276 81l117 -202q-72 -62 -203 -101q-115 -32 -223 -32q-228 0 -408 149q-192 158 -192 379q0 225 161 373q162 147 390 147q225 0 381 -133q161 -141 161 -362q0 -54 -18 -132zM621 766q-115 0 -191 -160l377 10 q-25 62 -76 107q-51 43 -110 43z" />
<glyph unicode="f" horiz-adv-x="969" d="M877 1110q-164 64 -250 64q-54 0 -66 -37q-14 -45 -16 -127h362v-265h-358v-745h-336v745h-182v265h180q6 190 90 293q90 112 287 143q18 2 43 2q141 0 409 -90z" />
<glyph unicode="g" horiz-adv-x="1317" d="M848 963v63l336 -25v-974q-4 -78 -19 -144q-35 -157 -114 -231q-138 -127 -357 -127q-155 0 -526 106l143 256q215 -80 361 -80q125 0 153 72q6 39 19 105l2 6q-113 -29 -217 -29q-256 0 -414 168q-143 152 -143 367q0 204 133 350q149 164 413 186h13q39 0 102 -24 q58 -23 115 -45zM848 700q-164 43 -250 43q-45 0 -63 -12q-127 -88 -127 -242q0 -149 129 -231q32 -20 102 -20q86 0 209 30v432z" />
<glyph unicode="h" horiz-adv-x="1255" d="M844 0l2 602q0 154 -154 154q-96 0 -223 -56v-700h-336v1468l336 25v-530q53 20 104 43q66 26 103 26h16q150 0 295 -78q168 -90 189 -211q12 -75 12 -346q0 -164 -4 -397h-340z" />
<glyph unicode="i" horiz-adv-x="641" d="M322 1200h-5q-75 0 -129 49q-55 47 -55 117v4q2 70 55 121q52 47 125 47h9q75 -2 131 -49q53 -49 55 -119v-4q0 -70 -53 -115q-58 -49 -133 -51zM154 0v985l335 27v-1012h-335z" />
<glyph unicode="j" horiz-adv-x="651" d="M334 1192h-4q-76 0 -131.5 51t-55.5 121v4q2 70 58 121q51 49 127 49h6q76 -2 129 -49q53 -49 55 -121v-4q0 -72 -53 -119q-55 -51 -131 -53zM324 -375q-134 -96 -299 -96q-136 0 -357 76l96 256q175 -66 248 -66q90 0 117 66q35 82 35 235v889l336 25v-914 q-6 -104 -27 -190q-45 -205 -149 -281z" />
<glyph unicode="k" horiz-adv-x="1210" d="M864 -39l-395 297v-260h-336v1470l336 25v-741l326 258l360 -90l-526 -394l581 -483z" />
<glyph unicode="l" horiz-adv-x="602" d="M133 0v1468l336 25v-1493h-336z" />
<glyph unicode="m" horiz-adv-x="1954" d="M1518 0v621q0 149 -129 149q-95 0 -232 -76q10 -119 10 -370v-86v-238h-342v621q0 147 -141 147q-100 0 -215 -57v-711h-336v1001l336 25v-63q164 67 227 67q160 0 310 -104q198 106 360 106q248 0 365 -102q96 -86 120 -266q11 -74 11 -289v-74l-4 -301h-340z" />
<glyph unicode="n" horiz-adv-x="1247" d="M815 0l2 621q0 145 -139 145q-90 0 -209 -57v-709h-336v1001l336 25v-63q47 22 94 43q60 26 99 26q149 0 290 -67q168 -82 195 -211q12 -66 12 -322v-78l-4 -354h-340z" />
<glyph unicode="o" horiz-adv-x="1255" d="M625 -14q-240 0 -410 161q-164 156 -164 365q0 37 6 72q35 215 205 336q154 110 363 110q223 0 385 -125q178 -137 192 -366q2 -17 2 -33q0 -199 -155 -350q-172 -170 -424 -170zM629 766q-101 0 -172 -74q-72 -76 -72 -184q0 -107 71.5 -180.5t172.5 -73.5q110 0 176 80 q59 74 59 176q0 104 -59 176q-66 80 -176 80z" />
<glyph unicode="p" horiz-adv-x="1294" d="M649 -39q-69 0 -180 29v-441l-336 -24v1476l336 25v-65q61 24 123 47q76 28 127 28q221 0 362 -149q142 -150 142 -373q0 -240 -166 -395q-166 -158 -408 -158zM696 745q-86 0 -227 -38v-437q113 -30 193 -30q106 0 167 88q56 75 56 188q0 88 -49 156q-56 73 -140 73z " />
<glyph unicode="q" horiz-adv-x="1358" d="M823 963v63l336 -25v-1048q0 -109 15 -137q14 -31 67 -31q12 0 64 4q51 2 94 2l-172 -262q-262 8 -340 111q-64 84 -64 350q-110 -29 -209 -29q-239 0 -391 152q-151 149 -151 391q0 239 139 383q137 141 377 141q49 0 119 -24q59 -21 116 -41zM823 705q-139 36 -217 36 q-198 0 -198 -239q0 -105 61 -183q61 -77 162 -77q86 0 192 28v435z" />
<glyph unicode="r" horiz-adv-x="1012" d="M852 700q-203 68 -260 68t-123 -53v-715h-336v1001l336 25v-63q39 18 76 38q51 23 94 31q27 4 53 4q66 0 148 -35q69 -32 141 -65z" />
<glyph unicode="s" horiz-adv-x="1135" d="M477 -14q-96 0 -213 34q-127 37 -192 95l133 215q67 -31 133 -62q88 -37 137 -37q70 0 150 23q106 31 106 84q0 57 -102 57q-25 0 -68 -4q-45 -4 -55 -4q-168 0 -279 78q-127 86 -127 248q0 159 195 250q156 71 336 71q186 0 397 -119l-119 -208q-106 79 -231 79 q-240 0 -240 -106q0 -47 215 -47q410 0 410 -281q0 -196 -207 -293q-156 -73 -379 -73z" />
<glyph unicode="t" horiz-adv-x="868" d="M541 -14q-207 0 -289 125q-62 96 -62 292q0 58 7 177q6 116 6 170h-193v260h193v235l336 49v-284h237v-260h-237v-465q8 -9 10 -11h-2v0q6 0 12 -2q35 0 72 23q31 20 61 43l146 -252q-199 -100 -297 -100z" />
<glyph unicode="u" horiz-adv-x="1249" d="M780 -14v53q-67 -27 -194 -53h-17q-147 0 -286 75q-158 82 -179 199q-14 84 -14 424q0 137 2 315l342 25l-2 -629q0 -162 148 -162q79 0 200 50v729h336v-979z" />
<glyph unicode="v" horiz-adv-x="1266" d="M772 0h-278l-463 979l352 47l250 -590l250 590l352 -47z" />
<glyph unicode="w" horiz-adv-x="1812" d="M1391 0h-299l-187 530l-186 -530h-297l-391 979l348 47l190 -571l189 557h299l186 -557l193 571l346 -47z" />
<glyph unicode="x" horiz-adv-x="1214" d="M825 -20l-219 292l-217 -292l-358 49l379 483l-363 463l356 49l203 -274l203 274l354 -49l-360 -463l381 -483z" />
<glyph unicode="y" horiz-adv-x="1260" d="M733 -221q-47 -152 -131 -201q-76 -43 -262 -49l-172 262q141 0 188 13.5t72 64.5q29 78 57 156l-454 952l352 49l266 -623l252 625l328 -53z" />
<glyph unicode="z" horiz-adv-x="1124" d="M1022 0h-901l-49 213l497 532h-463v265h865l51 -205l-506 -541h537z" />
<glyph unicode="{" horiz-adv-x="971" d="M524 -477q-200 96 -200 368q0 50 6 144q4 94 4 125q0 90 -35 125q-35 32 -166 77v275q131 45 166 80q35 33 35 121q0 30 -4 127q-6 96 -6 147q0 272 200 369q111 53 437 53l-76 -309q-125 24 -140 24q-24 0 -34 -10q-60 -61 -60 -192v22q2 0 6 -178v-21q0 -86 -14 -147 q-20 -92 -80 -166q-18 -22 -53 -59q90 -88 123 -176q26 -70 26 -172q0 -31 -2 -89q-4 -71 -4 -100v-16q0 -121 58 -181q10 -10 34 -10q15 0 140 25l76 -309q-326 0 -437 53z" />
<glyph unicode="|" horiz-adv-x="573" d="M133 0v1534h307v-1534h-307z" />
<glyph unicode="}" horiz-adv-x="971" d="M647 250q-12 -51 -12 -119q0 -41 6 -125q6 -86 6 -129q-4 -258 -201 -354q-110 -53 -436 -53l78 309q125 -25 137 -25q25 0 35 10q59 62 59 181q0 28 -4 92q-4 61 -4 96q0 219 150 365q-148 159 -148 370q0 17 9 140q2 22 2 43q0 49 -9 82q-12 61 -55 106q-10 10 -37 10 q-18 0 -135 -22l-78 307q326 0 436 -53q201 -99 201 -371q0 -51 -4 -145q-6 -95 -6 -127q0 -88 35 -121q35 -35 166 -80v-275q-78 -26 -111 -43q-72 -34 -80 -69z" />
<glyph unicode="~" horiz-adv-x="874" d="M63 784q17 41 80 76q64 35 123 35q72 0 176 -66q103 -65 170 -65q72 0 203 131v-274q-123 -123 -203 -123q-71 0 -174.5 64.5t-171.5 64.5h-4q-55 0 -115 -37q-61 -39 -84 -92v286z" />
<glyph unicode="&#xa1;" horiz-adv-x="633" d="M317 659q-81 0 -143 54q-61 53 -61 131t61 131q62 53 143 53q84 0 143.5 -53t59.5 -131q0 -76 -59 -129q-60 -56 -144 -56zM150 -449v664l18 381l299 27l18 -410v-635z" />
<glyph unicode="&#xa2;" horiz-adv-x="1188" d="M807 100v-100h-307v106q-197 48 -305 177q-103 120 -103 272q0 154 103 276q110 132 305 183v133h307v-125q104 -21 258 -84l-53 -260q-121 59 -205 84v-402q78 23 242 123l47 -266q-49 -27 -95 -47q-112 -51 -194 -70zM500 727q-105 -68 -105 -164t105 -162v326z" />
<glyph unicode="&#xa3;" horiz-adv-x="1151" d="M92 0v279l39 -5q31 -2 51 -2q68 0 84 27v115h-174v270h174v74q0 149 106.5 255.5t272.5 127.5q14 2 31 2q127 0 377 -117l-111 -250q-170 96 -223 96h-8q-109 -20 -109 -118v-70h359v-270h-359v-127v-15h457v-272h-967z" />
<glyph unicode="&#xa5;" horiz-adv-x="1307" d="M864 600h180v-240h-233v-43h233v-239h-233v-78h-315v78h-236v239h236v43h-236v240h182l-370 506l319 35l260 -371l262 371l322 -35z" />
<glyph unicode="&#xa6;" horiz-adv-x="573" d="M133 782v709l307 2v-711h-307zM133 0v690h307v-690h-307z" />
<glyph unicode="&#xa7;" horiz-adv-x="1012" d="M459 -16q-111 2 -367 141l125 231q41 -30 125 -67q82 -37 123 -37h39q53 0 69 4q33 8 33 37v4q0 18 -14 18q-4 0 -29 -4q-31 -4 -57 -6q-19 -2 -37 -2q-133 0 -223 68q-107 78 -107 219v12q2 68 54 129q-54 72 -54 174v8q2 123 142 205q118 70 247 74h9q104 0 362 -100 l-111 -211q-106 51 -223 51h-33q-81 -4 -83 -29q0 -6 6 -14q4 -8 75 -8h31h21q143 0 231 -52q107 -65 107 -202q0 -97 -39 -156q41 -55 41 -147q0 -25 -4 -54q-19 -153 -173 -229q-116 -57 -266 -57h-20zM510 606q-59 -2 -61 -33v-4q0 -12 18 -16h12q27 0 86 4q41 4 41 33v4 q0 14 -6 18v0q0 -2 -90 -6z" />
<glyph unicode="&#xa8;" horiz-adv-x="846" d="M655 1092h-4q-61 0 -104 43q-45 45 -45 108q0 62 45 109q43 43 104 43h4q62 -2 107 -45q43 -45 43 -107q0 -63 -43 -106q-45 -43 -107 -45zM193 1092q-64 0 -107 45q-45 43 -45 106q0 62 45 107q43 45 107 45q61 0 106 -45t45 -107q0 -63 -45 -106q-45 -45 -106 -45z" />
<glyph unicode="&#xa9;" horiz-adv-x="1157" d="M563 436q-106 10 -176 90q-68 76 -68 181v4q3 104 69.5 178t168.5 86q8 2 18 2q66 0 179 -47l-17 -168q-100 55 -145 55q-88 0 -88 -112q0 -111 94 -111q51 0 158 74l14 -170q-125 -62 -195 -62h-12zM580 197q-209 0 -359 149q-149 148 -149 359q0 210 149 360 q150 147 359 147q208 0 358 -147q147 -150 147 -360q0 -211 -147 -359q-150 -149 -358 -149zM580 1057q-146 0 -248 -103q-105 -104 -105 -249q0 -146 105 -248q102 -105 248 -105q145 0 247 105q103 102 103 248q0 145 -103 249q-102 103 -247 103z" />
<glyph unicode="&#xaa;" horiz-adv-x="633" d="M555 879h-168v26q-4 -2 -53 -22q-29 -13 -49 -13h-4q-187 27 -207 183q-2 16 -2 30q0 113 127 170q51 25 116 25q31 0 64 -6q-2 16 -6 37q-11 20 -45 20q-47 0 -172 -53l-74 129q156 63 229 63h8q123 -6 182.5 -61t59.5 -168v-57q0 -95 -6 -303zM383 1120q-78 17 -90 17 q-53 0 -53 -50v-4q2 -67 82 -67q26 0 63 8z" />
<glyph unicode="&#xab;" horiz-adv-x="1145" d="M1004 76l-431 348v172l431 334l67 -254l-215 -170l217 -176zM502 76l-430 348v172l430 334l67 -254l-215 -170l217 -176z" />
<glyph unicode="&#xac;" horiz-adv-x="1249" d="M801 227v162h-688v240h1024v-402h-336z" />
<glyph unicode="&#xad;" horiz-adv-x="844" d="M133 403v267h578v-267h-578z" />
<glyph unicode="&#xae;" horiz-adv-x="1157" d="M580 197q-209 0 -359 149q-149 148 -149 359q0 210 149 360q150 147 359 147q208 0 358 -147q147 -150 147 -360q0 -211 -147 -359q-150 -149 -358 -149zM580 1057q-146 0 -248 -103q-105 -104 -105 -249q0 -146 105 -248q102 -105 248 -105q145 0 247 105 q103 102 103 248q0 145 -103 249q-102 103 -247 103zM659 430l-98 191h-4v-179h-158v519q105 10 158 10h27q200 -17 200 -170v-6q-2 -80 -65 -129l110 -203zM625 803q-15 12 -68 14v-45h8q21 0 60 31z" />
<glyph unicode="&#xaf;" horiz-adv-x="741" d="M113 1104v184h516v-184h-516z" />
<glyph unicode="&#xb0;" horiz-adv-x="709" d="M354 952q-116 0 -198 70q-84 70 -84 170t84 172q82 72 198 72q117 0 201 -72q82 -72 82 -172t-82 -170q-84 -70 -201 -70zM354 1268q-28 0 -49.5 -21.5t-21.5 -54.5q0 -31 21.5 -51.5t49.5 -20.5q72 2 72 72q0 31 -20 53q-23 23 -52 23z" />
<glyph unicode="&#xb1;" horiz-adv-x="1034" d="M684 483v-178h-336v178h-235v260h235v179h336v-179h238v-262zM113 -14v260h809v-260h-809z" />
<glyph unicode="&#xb2;" horiz-adv-x="991" d="M127 561v209q100 76 199 150q116 90 188 159q66 64 66 109v8q-2 27 -33 47q-27 17 -55 17h-13q-112 -13 -266 -86l-100 237q223 94 366 94q170 0 258 -59.5t119 -188.5q8 -32 8 -65q0 -186 -235 -381h250v-250h-752z" />
<glyph unicode="&#xb3;" horiz-adv-x="989" d="M535 492q-13 -3 -27 -3q-133 0 -395 99l88 243q155 -83 264 -83q14 0 29 2q92 10 98 61v4q0 29 -21 51q-22 25 -65 25h-279v246q56 8 158 16h68q24 -2 30 0q76 14 76 53q0 27 -8 37q-16 21 -64 21q-116 0 -270 -66l-102 234q272 94 383 94q118 0 211 -58q98 -63 131 -176 q14 -47 14 -94q0 -96 -51 -168q74 -82 74 -205q0 -14 -3 -30q-8 -131 -112 -215q-94 -76 -227 -88z" />
<glyph unicode="&#xb4;" horiz-adv-x="741" d="M262 1087l-203 109l381 295l242 -156z" />
<glyph unicode="&#xb5;" horiz-adv-x="1325" d="M938 37q-129 -82 -279 -82q-94 0 -210 33v-275h-336v1286l336 27v-770q110 -39 180 -39q147 0 147 160l-2 629h338q-4 -310 -4 -496q0 -125 2 -195q2 -96 205 -98v-258h-33q-217 0 -344 78z" />
<glyph unicode="&#xb6;" horiz-adv-x="1296" d="M877 0v965l-89 2v-967l-266 25v432q-190 16 -305 104q-125 96 -125 254q0 332 469 367q45 4 115 4q182 0 467 -21v-1140z" />
<glyph unicode="&#xb8;" horiz-adv-x="713" d="M166 -422l-53 201q139 -21 180 -21q8 0 18 19q8 14 8 20v4q-8 19 -28 21q-29 0 -109 6l37 172h236l-11 -63q156 -31 156 -119q0 -47 -47 -133q-64 -115 -279 -115q-57 0 -108 8z" />
<glyph unicode="&#xb9;" horiz-adv-x="741" d="M334 561v621l-94 -56l-127 220l268 157h248v-942h-295z" />
<glyph unicode="&#xba;" horiz-adv-x="743" d="M371 877q-129 0 -213 84q-86 83 -86 194q0 125 94 205q88 74 205 74q116 0 200 -68q93 -74 101 -197v-16q0 -104 -80 -184q-88 -92 -221 -92zM371 1270q-39 0 -68 -31t-29 -76v-8q0 -51 29 -80q29 -28 66 -28q39 0 67 30q29 29 29 80q0 49 -29 82q-28 31 -65 31z" />
<glyph unicode="&#xbb;" horiz-adv-x="1145" d="M643 78l-68 256l216 168l-218 176l70 254l430 -348v-172zM141 78l-67 256l215 168l-217 176l69 254l430 -348v-172z" />
<glyph unicode="&#xbc;" horiz-adv-x="1933" d="M1700 -14v-211l-293 2v209h-453v213l498 561h248v-512h121v-262h-121zM616 -362l-270 110l811 1823l273 -101zM332 524v645l-92 -55l-127 223l268 168h246v-981h-295zM1407 326l-70 -78h70v78z" />
<glyph unicode="&#xbd;" horiz-adv-x="2023" d="M1157 -188v217q100 77 201 155q115 95 186 168q66 66 66 113v8q-2 29 -33 51q-27 17 -55 17h-13q-110 -13 -266 -88l-96 243q219 99 362 99q172 0 260 -62q89 -63 119 -196q8 -35 8 -70q0 -193 -237 -397h252v-258h-754zM616 -362l-270 110l811 1823l273 -101zM332 524 v645l-92 -55l-127 223l268 168h246v-981h-295z" />
<glyph unicode="&#xbe;" horiz-adv-x="2120" d="M1888 -14v-211l-293 2v209h-452v213l497 561h248v-512h119v-262h-119zM803 -362l-271 110l811 1823l273 -101zM535 492q-13 -3 -27 -3q-133 0 -395 99l88 243q155 -83 264 -83q14 0 29 2q92 10 98 61v4q0 29 -21 51q-22 25 -65 25h-279v246q56 8 158 16h68q24 -2 30 0 q76 14 76 53q0 27 -8 37q-16 21 -64 21q-116 0 -270 -66l-102 234q272 94 383 94q118 0 211 -58q98 -63 131 -176q14 -47 14 -94q0 -96 -51 -168q74 -82 74 -205q0 -14 -3 -30q-8 -131 -112 -215q-94 -76 -227 -88zM1595 326l-71 -78h71v78z" />
<glyph unicode="&#xbf;" horiz-adv-x="1137" d="M649 662q-82 0 -143.5 53t-61.5 131t61.5 131t143.5 53q84 0 143.5 -53t59.5 -131q0 -76 -59 -129q-60 -55 -144 -55zM551 -428q-189 14 -326 117q-153 112 -153 276q0 158 100 264q49 50 234 170q65 43 71 56q6 10 6 77v56l336 35v-99q0 -145 -84 -241 q-49 -56 -205 -156q-114 -74 -120 -145v-9q0 -36 43 -71q45 -41 118 -47q15 -2 29 -2q152 0 369 141l96 -279q-315 -145 -483 -145q-17 0 -31 2z" />
<glyph unicode="&#xc0;" d="M31 0zM1186 -23l-160 392h-494l-159 -392l-342 50l585 1407h326l586 -1407zM780 967l-133 -320h264zM834 1513l-418 248l242 156l379 -295z" />
<glyph unicode="&#xc1;" d="M31 0zM1186 -23l-160 392h-494l-159 -392l-342 50l585 1407h326l586 -1407zM780 967l-133 -320h264zM651 1497l-203 109l381 295l242 -156z" />
<glyph unicode="&#xc2;" d="M31 0zM1186 -23l-160 392h-494l-159 -392l-342 50l585 1407h326l586 -1407zM780 967l-133 -320h264zM969 1495l-209 133l-209 -133l-154 158l363 209l362 -209z" />
<glyph unicode="&#xc3;" d="M31 0zM1186 -23l-160 392h-494l-159 -392l-342 50l585 1407h326l586 -1407zM780 967l-133 -320h264zM399 1800q17 41 80 76q64 34 123 34q72 0 175.5 -65.5t170.5 -65.5q72 0 203 131v-274q-123 -123 -203 -123q-71 0 -174 66q-104 63 -172 63h-4q-55 0 -115 -37 q-61 -39 -84 -92v287z" />
<glyph unicode="&#xc4;" d="M31 0zM1186 -23l-160 392h-494l-159 -392l-342 50l585 1407h326l586 -1407zM780 967l-133 -320h264zM1020 1551h-4q-61 0 -104 43q-45 45 -45 108q0 62 45 109q43 43 104 43h4q62 -2 107 -45q43 -45 43 -107q0 -63 -43 -106q-45 -43 -107 -45zM558 1551q-64 0 -107 45 q-45 43 -45 106q0 62 45 107q43 45 107 45q61 0 106 -45t45 -107q0 -63 -45 -106q-45 -45 -106 -45z" />
<glyph unicode="&#xc5;" d="M31 0zM1186 -23l-160 392h-494l-159 -392l-342 50l585 1407h326l586 -1407zM780 967l-133 -320h264zM780 1357q-121 0 -209 86t-88 207t88 207t209 86t209 -86t88 -207t-88 -207t-209 -86zM780 1726q-66 0 -66 -76q0 -32 21 -53q18 -22 45 -22t47 22q18 21 18 53 q0 33 -18 56q-20 20 -47 20z" />
<glyph unicode="&#xc6;" horiz-adv-x="2271" d="M2171 0h-1055v371h-436l-307 -394l-342 56l1077 1401h1057l33 -279h-740v-235h617v-279h-617v-362h742zM1116 946l-219 -295h219v295z" />
<glyph unicode="&#xc7;" horiz-adv-x="1425" d="M72 0zM72 727q0 295 235 512q232 211 529 211q192 0 485 -94l-57 -299q-258 114 -398 114q-188 0 -321 -133q-135 -135 -135 -321q0 -189 139 -316q137 -129 330 -129q151 0 430 129l45 -292q-316 -125 -516 -125q-310 0 -537 219q-229 217 -229 524zM658 -422l-53 201 q139 -21 180 -21q8 0 18 19q8 14 8 20v4q-8 19 -28 21q-29 0 -109 6l37 172h236l-11 -63q156 -31 156 -119q0 -47 -47 -133q-64 -115 -279 -115q-57 0 -108 8z" />
<glyph unicode="&#xc8;" horiz-adv-x="1280" d="M133 0zM1178 0h-1045v1434h1004l30 -279h-698v-276h616v-279h-616v-321h739zM772 1513l-418 248l242 156l379 -295z" />
<glyph unicode="&#xc9;" horiz-adv-x="1280" d="M133 0zM1178 0h-1045v1434h1004l30 -279h-698v-276h616v-279h-616v-321h739zM569 1497l-203 109l381 295l242 -156z" />
<glyph unicode="&#xca;" horiz-adv-x="1280" d="M133 0zM1178 0h-1045v1434h1004l30 -279h-698v-276h616v-279h-616v-321h739zM866 1495l-209 133l-209 -133l-154 158l363 209l362 -209z" />
<glyph unicode="&#xcb;" horiz-adv-x="1280" d="M133 0zM1178 0h-1045v1434h1004l30 -279h-698v-276h616v-279h-616v-321h739zM876 1551h-4q-61 0 -104 43q-45 45 -45 108q0 62 45 109q43 43 104 43h4q62 -2 107 -45q43 -45 43 -107q0 -63 -43 -106q-45 -43 -107 -45zM414 1551q-64 0 -107 45q-45 43 -45 106 q0 62 45 107q43 45 107 45q61 0 106 -45t45 -107q0 -63 -45 -106q-45 -45 -106 -45z" />
<glyph unicode="&#xcc;" horiz-adv-x="602" d="M0 0zM406 1513l-418 248l242 156l379 -295zM133 0v1430l336 26v-1456h-336z" />
<glyph unicode="&#xcd;" horiz-adv-x="602" d="M8 0zM211 1497l-203 109l381 295l242 -156zM133 0v1430l336 26v-1456h-336z" />
<glyph unicode="&#xce;" horiz-adv-x="602" d="M0 0zM520 1536l-209 133l-209 -133l-154 158l363 209l362 -209zM133 0v1430l336 26v-1456h-336z" />
<glyph unicode="&#xcf;" horiz-adv-x="602" d="M0 0zM532 1551h-4q-61 0 -104 43q-45 45 -45 108q0 62 45 109q43 43 104 43h4q62 -2 107 -45q43 -45 43 -107q0 -63 -43 -106q-45 -43 -107 -45zM70 1551q-64 0 -107 45q-45 43 -45 106q0 62 45 107q43 45 107 45q61 0 106 -45t45 -107q0 -63 -45 -106q-45 -45 -106 -45z M133 0v1430l336 26v-1456h-336z" />
<glyph unicode="&#xd0;" horiz-adv-x="1612" d="M776 -14h-55q-164 0 -485 18v578h-164v278h164v565q243 29 426 29q77 0 135 -6q338 -35 544 -225q199 -183 199 -455v-20q-8 -312 -199 -523q-208 -231 -565 -239zM571 1180v-320h201v-278h-201v-316q56 -6 107 -6q196 0 340 82q184 104 184 406q0 233 -231 350 q-166 82 -371 82h-29z" />
<glyph unicode="&#xd1;" horiz-adv-x="1542" d="M133 0zM1067 -16l-598 907v-911l-336 24v1428l363 18l577 -885v871h336v-1432zM399 1800q17 41 80 76q64 34 123 34q72 0 175.5 -65.5t170.5 -65.5q72 0 203 131v-274q-123 -123 -203 -123q-71 0 -174 66q-104 63 -172 63h-4q-55 0 -115 -37q-61 -39 -84 -92v287z" />
<glyph unicode="&#xd2;" horiz-adv-x="1630" d="M72 0zM813 -14q-317 0 -534 225q-207 217 -207 506q0 295 209 510q217 221 538 221h4q312 -2 523 -215q200 -203 213 -488v-32q0 -279 -199 -492q-219 -235 -547 -235zM815 1171h-4q-172 0 -287 -133q-118 -135 -118 -323q0 -180 124 -316q125 -137 287 -137 q168 0 287 137q117 136 117 314v8q-2 186 -117 317q-117 131 -289 133zM895 1513l-418 248l242 156l379 -295z" />
<glyph unicode="&#xd3;" horiz-adv-x="1630" d="M72 0zM813 -14q-317 0 -534 225q-207 217 -207 506q0 295 209 510q217 221 538 221h4q312 -2 523 -215q200 -203 213 -488v-32q0 -279 -199 -492q-219 -235 -547 -235zM815 1171h-4q-172 0 -287 -133q-118 -135 -118 -323q0 -180 124 -316q125 -137 287 -137 q168 0 287 137q117 136 117 314v8q-2 186 -117 317q-117 131 -289 133zM702 1497l-203 109l381 295l242 -156z" />
<glyph unicode="&#xd4;" horiz-adv-x="1630" d="M72 0zM813 -14q-317 0 -534 225q-207 217 -207 506q0 295 209 510q217 221 538 221h4q312 -2 523 -215q200 -203 213 -488v-32q0 -279 -199 -492q-219 -235 -547 -235zM815 1171h-4q-172 0 -287 -133q-118 -135 -118 -323q0 -180 124 -316q125 -137 287 -137 q168 0 287 137q117 136 117 314v8q-2 186 -117 317q-117 131 -289 133zM1010 1536l-209 133l-209 -133l-154 158l363 209l362 -209z" />
<glyph unicode="&#xd5;" horiz-adv-x="1630" d="M72 0zM813 -14q-317 0 -534 225q-207 217 -207 506q0 295 209 510q217 221 538 221h4q312 -2 523 -215q200 -203 213 -488v-32q0 -279 -199 -492q-219 -235 -547 -235zM815 1171h-4q-172 0 -287 -133q-118 -135 -118 -323q0 -180 124 -316q125 -137 287 -137 q168 0 287 137q117 136 117 314v8q-2 186 -117 317q-117 131 -289 133zM419 1800q17 41 80 76q64 34 123 34q72 0 175.5 -65.5t170.5 -65.5q72 0 203 131v-274q-123 -123 -203 -123q-71 0 -174 66q-104 63 -172 63h-4q-55 0 -115 -37q-61 -39 -84 -92v287z" />
<glyph unicode="&#xd6;" horiz-adv-x="1630" d="M72 0zM813 -14q-317 0 -534 225q-207 217 -207 506q0 295 209 510q217 221 538 221h4q312 -2 523 -215q200 -203 213 -488v-32q0 -279 -199 -492q-219 -235 -547 -235zM815 1171h-4q-172 0 -287 -133q-118 -135 -118 -323q0 -180 124 -316q125 -137 287 -137 q168 0 287 137q117 136 117 314v8q-2 186 -117 317q-117 131 -289 133zM1050 1551h-4q-61 0 -104 43q-45 45 -45 108q0 62 45 109q43 43 104 43h4q62 -2 107 -45q43 -45 43 -107q0 -63 -43 -106q-45 -43 -107 -45zM588 1551q-64 0 -107 45q-45 43 -45 106q0 62 45 107 q43 45 107 45q61 0 106 -45t45 -107q0 -63 -45 -106q-45 -45 -106 -45z" />
<glyph unicode="&#xd7;" horiz-adv-x="961" d="M653 143l-166 129l-163 -149l-187 153l158 146l-162 129l174 170l170 -135l154 141l184 -152l-151 -137l163 -131z" />
<glyph unicode="&#xd8;" horiz-adv-x="1569" d="M772 -18q-147 0 -285 63l-75 -104l-318 104l146 195q-207 256 -207 510q0 20 2 41q20 290 231 477q207 184 508 184h8q158 0 305 -80l91 121l319 -104l-164 -222q187 -258 187 -481q0 -293 -215 -498q-218 -206 -533 -206zM776 1169h-4q-156 0 -280 -122 q-130 -127 -130 -293q0 -60 31 -127q27 -56 53 -111l469 623q-61 30 -139 30zM1116 879l-450 -598q49 -17 110 -17q154 0 283 123q127 123 127 281q0 26 -6 55q-6 37 -31 88q-27 49 -33 68z" />
<glyph unicode="&#xd9;" horiz-adv-x="1550" d="M133 0zM764 -14q-631 22 -631 612v832l336 26v-850q4 -55 10 -108q6 -66 25 -107q59 -129 248 -129q141 0 237 82q94 80 94 205q0 18 -2 39v846h336v-844q0 -283 -180 -449q-172 -155 -440 -155h-33zM875 1513l-418 248l242 156l379 -295z" />
<glyph unicode="&#xda;" horiz-adv-x="1550" d="M133 0zM764 -14q-631 22 -631 612v832l336 26v-850q4 -55 10 -108q6 -66 25 -107q59 -129 248 -129q141 0 237 82q94 80 94 205q0 18 -2 39v846h336v-844q0 -283 -180 -449q-172 -155 -440 -155h-33zM682 1497l-203 109l381 295l242 -156z" />
<glyph unicode="&#xdb;" horiz-adv-x="1550" d="M133 0zM764 -14q-631 22 -631 612v832l336 26v-850q4 -55 10 -108q6 -66 25 -107q59 -129 248 -129q141 0 237 82q94 80 94 205q0 18 -2 39v846h336v-844q0 -283 -180 -449q-172 -155 -440 -155h-33zM989 1536l-209 133l-209 -133l-154 158l363 209l362 -209z" />
<glyph unicode="&#xdc;" horiz-adv-x="1550" d="M133 0zM764 -14q-631 22 -631 612v832l336 26v-850q4 -55 10 -108q6 -66 25 -107q59 -129 248 -129q141 0 237 82q94 80 94 205q0 18 -2 39v846h336v-844q0 -283 -180 -449q-172 -155 -440 -155h-33zM1009 1551h-4q-61 0 -104 43q-45 45 -45 108q0 62 45 109 q43 43 104 43h4q62 -2 107 -45q43 -45 43 -107q0 -63 -43 -106q-45 -43 -107 -45zM547 1551q-64 0 -107 45q-45 43 -45 106q0 62 45 107q43 45 107 45q61 0 106 -45t45 -107q0 -63 -45 -106q-45 -45 -106 -45z" />
<glyph unicode="&#xdd;" horiz-adv-x="1413" d="M10 0zM651 1497l-203 109l381 295l242 -156zM877 600v-600h-336v600l-531 805l377 49l322 -543l323 543l371 -49z" />
<glyph unicode="&#xde;" horiz-adv-x="1313" d="M678 285q-82 -2 -229 -6v-279h-336v1430l336 26v-285q112 3 167 3h41q584 -39 584 -435v-12q-4 -205 -170 -326q-153 -112 -393 -116zM700 887q-69 10 -165 10q-41 0 -86 -2v-336q112 -6 141 -6q297 0 317 182v13q0 108 -207 139z" />
<glyph unicode="&#xdf;" horiz-adv-x="1348" d="M721 -14h-12q-76 0 -172 24l49 283q147 -33 196 -33q140 0 140 146q0 14 -2 28q-13 137 -377 197v293q301 41 301 143q0 107 -201 107q-57 0 -154 -11v-1167l-335 12v1422q270 18 442 18q55 0 94 -2q172 -10 305 -82q170 -92 187 -254q2 -14 2 -29q0 -170 -191 -301 q262 -145 262 -362v-4q0 -197 -137 -308q-137 -110 -397 -120z" />
<glyph unicode="&#xe0;" horiz-adv-x="1155" d="M51 0zM682 -2v51q-16 -4 -107 -39q-63 -24 -110 -24q-168 0 -285 90q-129 98 -129 260q0 172 154 252q121 61 317 61q84 0 166 -10q-8 147 -178 147q-53 0 -150 -36q-73 -31 -147 -60l-139 234q297 108 446 108q502 0 502 -373l-4 -661h-336zM682 410q-64 10 -121 10 q-180 0 -180 -86q0 -96 178 -96q64 0 123 12v160zM692 1087l-418 248l242 156l379 -295z" />
<glyph unicode="&#xe1;" horiz-adv-x="1155" d="M51 0zM682 -2v51q-16 -4 -107 -39q-63 -24 -110 -24q-168 0 -285 90q-129 98 -129 260q0 172 154 252q121 61 317 61q84 0 166 -10q-8 147 -178 147q-53 0 -150 -36q-73 -31 -147 -60l-139 234q297 108 446 108q502 0 502 -373l-4 -661h-336zM682 410q-64 10 -121 10 q-180 0 -180 -86q0 -96 178 -96q64 0 123 12v160zM467 1087l-203 109l381 295l242 -156z" />
<glyph unicode="&#xe2;" horiz-adv-x="1155" d="M51 0zM682 -2v51q-16 -4 -107 -39q-63 -24 -110 -24q-168 0 -285 90q-129 98 -129 260q0 172 154 252q121 61 317 61q84 0 166 -10q-8 147 -178 147q-53 0 -150 -36q-73 -31 -147 -60l-139 234q297 108 446 108q502 0 502 -373l-4 -661h-336zM682 410q-64 10 -121 10 q-180 0 -180 -86q0 -96 178 -96q64 0 123 12v160zM817 1112l-209 133l-209 -133l-154 158l363 209l362 -209z" />
<glyph unicode="&#xe3;" horiz-adv-x="1155" d="M51 0zM682 -2v51q-16 -4 -107 -39q-63 -24 -110 -24q-168 0 -285 90q-129 98 -129 260q0 172 154 252q121 61 317 61q84 0 166 -10q-8 147 -178 147q-53 0 -150 -36q-73 -31 -147 -60l-139 234q297 108 446 108q502 0 502 -373l-4 -661h-336zM682 410q-64 10 -121 10 q-180 0 -180 -86q0 -96 178 -96q64 0 123 12v160zM186 1399q17 41 80 76q64 34 123 34q72 0 175.5 -65.5t170.5 -65.5q72 0 203 131v-274q-123 -123 -203 -123q-71 0 -174 66q-104 63 -172 63h-4q-55 0 -115 -37q-61 -39 -84 -92v287z" />
<glyph unicode="&#xe4;" horiz-adv-x="1155" d="M51 0zM682 -2v51q-16 -4 -107 -39q-63 -24 -110 -24q-168 0 -285 90q-129 98 -129 260q0 172 154 252q121 61 317 61q84 0 166 -10q-8 147 -178 147q-53 0 -150 -36q-73 -31 -147 -60l-139 234q297 108 446 108q502 0 502 -373l-4 -661h-336zM682 410q-64 10 -121 10 q-180 0 -180 -86q0 -96 178 -96q64 0 123 12v160zM798 1112h-4q-61 0 -104 43q-45 45 -45 108q0 62 45 109q43 43 104 43h4q62 -2 107 -45q43 -45 43 -107q0 -63 -43 -106q-45 -43 -107 -45zM336 1112q-64 0 -107 45q-45 43 -45 106q0 62 45 107q43 45 107 45q61 0 106 -45 t45 -107q0 -63 -45 -106q-45 -45 -106 -45z" />
<glyph unicode="&#xe5;" horiz-adv-x="1155" d="M51 0zM682 -2v51q-16 -4 -107 -39q-63 -24 -110 -24q-168 0 -285 90q-129 98 -129 260q0 172 154 252q121 61 317 61q84 0 166 -10q-8 147 -178 147q-53 0 -150 -36q-73 -31 -147 -60l-139 234q297 108 446 108q502 0 502 -373l-4 -661h-336zM682 410q-64 10 -121 10 q-180 0 -180 -86q0 -96 178 -96q64 0 123 12v160zM583 993q-116 0 -198 70q-84 70 -84 170t84 172q82 72 198 72q117 0 201 -72q82 -72 82 -172t-82 -170q-84 -70 -201 -70zM583 1309q-28 0 -49.5 -21.5t-21.5 -54.5q0 -31 21.5 -51.5t49.5 -20.5q72 2 72 72q0 31 -20 53 q-23 23 -52 23z" />
<glyph unicode="&#xe6;" horiz-adv-x="1825" d="M1733 395l-658 -20q72 -121 230 -121q141 0 237 84l144 -223q-150 -129 -443 -129h-16q-162 2 -297 90l-109 -41q-168 -53 -286 -53q-27 0 -52 4q-159 22 -266 92q-135 86 -145 227v21q0 186 221 309q69 39 164 39q55 0 135 -17q57 -10 115 -22q-9 139 -158 147h-8 q-54 0 -152 -41q-78 -34 -158 -69l-137 254q312 106 455 106h16q127 -6 187 -20q96 -21 166 -78q139 98 305 98q192 0 345.5 -127t184.5 -325q2 -15 2 -33q0 -58 -22 -152zM1231 782h-4q-103 0 -172 -180l338 10q-62 166 -162 170zM702 381q-145 25 -184 25q-117 0 -117 -78 q2 -86 121 -86q68 0 180 30v109z" />
<glyph unicode="&#xe7;" horiz-adv-x="1169" d="M72 0zM612 -14q-256 20 -405 182q-135 147 -135 348q0 205 139 348q151 158 416 168h20q98 0 221 -33q41 -10 230 -71l-148 -256q-55 26 -108 47q-125 47 -219 47q-86 0 -154 -78q-68 -80 -68 -182q0 -105 68 -178.5t158 -75.5h12q119 0 319 80l140 -240 q-312 -108 -459 -108q-14 0 -27 2zM473 -422l-53 201q139 -21 180 -21q8 0 18 19q8 14 8 20v4q-8 19 -28 21q-29 0 -109 6l37 172h236l-11 -63q156 -31 156 -119q0 -47 -47 -133q-64 -115 -279 -115q-57 0 -108 8z" />
<glyph unicode="&#xe8;" horiz-adv-x="1237" d="M72 0zM1147 403l-698 -20q94 -147 256 -147q182 0 276 81l117 -202q-72 -62 -203 -101q-115 -32 -223 -32q-228 0 -408 149q-192 158 -192 379q0 225 161 373q162 147 390 147q225 0 381 -133q161 -141 161 -362q0 -54 -18 -132zM621 766q-115 0 -191 -160l377 10 q-25 62 -76 107q-51 43 -110 43zM713 1087l-418 248l242 156l379 -295z" />
<glyph unicode="&#xe9;" horiz-adv-x="1237" d="M72 0zM1147 403l-698 -20q94 -147 256 -147q182 0 276 81l117 -202q-72 -62 -203 -101q-115 -32 -223 -32q-228 0 -408 149q-192 158 -192 379q0 225 161 373q162 147 390 147q225 0 381 -133q161 -141 161 -362q0 -54 -18 -132zM621 766q-115 0 -191 -160l377 10 q-25 62 -76 107q-51 43 -110 43zM508 1087l-203 109l381 295l242 -156z" />
<glyph unicode="&#xea;" horiz-adv-x="1237" d="M72 0zM1147 403l-698 -20q94 -147 256 -147q182 0 276 81l117 -202q-72 -62 -203 -101q-115 -32 -223 -32q-228 0 -408 149q-192 158 -192 379q0 225 161 373q162 147 390 147q225 0 381 -133q161 -141 161 -362q0 -54 -18 -132zM621 766q-115 0 -191 -160l377 10 q-25 62 -76 107q-51 43 -110 43zM817 1112l-209 133l-209 -133l-154 158l363 209l362 -209z" />
<glyph unicode="&#xeb;" horiz-adv-x="1237" d="M72 0zM1147 403l-698 -20q94 -147 256 -147q182 0 276 81l117 -202q-72 -62 -203 -101q-115 -32 -223 -32q-228 0 -408 149q-192 158 -192 379q0 225 161 373q162 147 390 147q225 0 381 -133q161 -141 161 -362q0 -54 -18 -132zM621 766q-115 0 -191 -160l377 10 q-25 62 -76 107q-51 43 -110 43zM839 1112h-4q-61 0 -104 43q-45 45 -45 108q0 62 45 109q43 43 104 43h4q62 -2 107 -45q43 -45 43 -107q0 -63 -43 -106q-45 -43 -107 -45zM377 1112q-64 0 -107 45q-45 43 -45 106q0 62 45 107q43 45 107 45q61 0 106 -45t45 -107 q0 -63 -45 -106q-45 -45 -106 -45z" />
<glyph unicode="&#xec;" horiz-adv-x="641" d="M31 0zM449 1087l-418 248l242 156l379 -295zM154 0v991l335 27v-1018h-335z" />
<glyph unicode="&#xed;" horiz-adv-x="641" d="M30 0zM233 1087l-203 109l381 295l242 -156zM154 0v991l335 27v-1018h-335z" />
<glyph unicode="&#xee;" horiz-adv-x="641" d="M0 0zM531 1112l-209 133l-209 -133l-154 158l363 209l362 -209zM154 0v991l335 27v-1018h-335z" />
<glyph unicode="&#xef;" horiz-adv-x="641" d="M0 0zM555 1112h-4q-61 0 -104 43q-45 45 -45 108q0 62 45 109q43 43 104 43h4q62 -2 107 -45q43 -45 43 -107q0 -63 -43 -106q-45 -43 -107 -45zM93 1112q-64 0 -107 45q-45 43 -45 106q0 62 45 107q43 45 107 45q61 0 106 -45t45 -107q0 -63 -45 -106q-45 -45 -106 -45z M154 0v991l335 27v-1018h-335z" />
<glyph unicode="&#xf0;" horiz-adv-x="1194" d="M72 467q0 176 100 311q109 146 299 185q29 4 94 6q-24 26 -59 67l-187 -86l-184 201l170 76q-31 26 -131 110l303 174q35 -36 135 -141l156 70l182 -197l-155 -74q215 -264 280 -430q47 -114 47 -266v-24q-4 -191 -159 -347q-162 -159 -373 -159q-230 0 -379 166 q-139 153 -139 358zM586 690q-78 0 -127 -72q-51 -73 -51 -165q0 -187 170 -209q10 -2 20 -2q72 0 127 73q59 78 59 181q0 82 -47 133q-51 59 -151 61z" />
<glyph unicode="&#xf1;" horiz-adv-x="1247" d="M143 0zM825 0l2 621q0 145 -139 145q-90 0 -209 -57v-709h-336v1001l336 25v-63q47 22 94 43q60 26 99 26q149 0 290 -67q168 -82 195 -211q12 -66 12 -322v-78l-4 -354h-340zM272 1399q17 41 80 76q64 34 123 34q72 0 175.5 -65.5t170.5 -65.5q72 0 203 131v-274 q-123 -123 -203 -123q-71 0 -174 66q-104 63 -172 63h-4q-55 0 -115 -37q-61 -39 -84 -92v287z" />
<glyph unicode="&#xf2;" horiz-adv-x="1255" d="M51 0zM625 -14q-240 0 -410 161q-164 156 -164 365q0 37 6 72q35 215 205 336q154 110 363 110q223 0 385 -125q178 -137 192 -366q2 -17 2 -33q0 -199 -155 -350q-172 -170 -424 -170zM629 766q-101 0 -172 -74q-72 -76 -72 -184q0 -107 71.5 -180.5t172.5 -73.5 q110 0 176 80q59 74 59 176q0 104 -59 176q-66 80 -176 80zM733 1087l-418 248l242 156l379 -295z" />
<glyph unicode="&#xf3;" horiz-adv-x="1255" d="M51 0zM625 -14q-240 0 -410 161q-164 156 -164 365q0 37 6 72q35 215 205 336q154 110 363 110q223 0 385 -125q178 -137 192 -366q2 -17 2 -33q0 -199 -155 -350q-172 -170 -424 -170zM629 766q-101 0 -172 -74q-72 -76 -72 -184q0 -107 71.5 -180.5t172.5 -73.5 q110 0 176 80q59 74 59 176q0 104 -59 176q-66 80 -176 80zM528 1087l-203 109l381 295l242 -156z" />
<glyph unicode="&#xf4;" horiz-adv-x="1255" d="M51 0zM625 -14q-240 0 -410 161q-164 156 -164 365q0 37 6 72q35 215 205 336q154 110 363 110q223 0 385 -125q178 -137 192 -366q2 -17 2 -33q0 -199 -155 -350q-172 -170 -424 -170zM629 766q-101 0 -172 -74q-72 -76 -72 -184q0 -107 71.5 -180.5t172.5 -73.5 q110 0 176 80q59 74 59 176q0 104 -59 176q-66 80 -176 80zM817 1112l-209 133l-209 -133l-154 158l363 209l362 -209z" />
<glyph unicode="&#xf5;" horiz-adv-x="1255" d="M51 0zM625 -14q-240 0 -410 161q-164 156 -164 365q0 37 6 72q35 215 205 336q154 110 363 110q223 0 385 -125q178 -137 192 -366q2 -17 2 -33q0 -199 -155 -350q-172 -170 -424 -170zM629 766q-101 0 -172 -74q-72 -76 -72 -184q0 -107 71.5 -180.5t172.5 -73.5 q110 0 176 80q59 74 59 176q0 104 -59 176q-66 80 -176 80zM241 1399q17 41 80 76q64 34 123 34q72 0 175.5 -65.5t170.5 -65.5q72 0 203 131v-274q-123 -123 -203 -123q-71 0 -174 66q-104 63 -172 63h-4q-55 0 -115 -37q-61 -39 -84 -92v287z" />
<glyph unicode="&#xf6;" horiz-adv-x="1255" d="M51 0zM625 -14q-240 0 -410 161q-164 156 -164 365q0 37 6 72q35 215 205 336q154 110 363 110q223 0 385 -125q178 -137 192 -366q2 -17 2 -33q0 -199 -155 -350q-172 -170 -424 -170zM629 766q-101 0 -172 -74q-72 -76 -72 -184q0 -107 71.5 -180.5t172.5 -73.5 q110 0 176 80q59 74 59 176q0 104 -59 176q-66 80 -176 80zM860 1112h-4q-61 0 -104 43q-45 45 -45 108q0 62 45 109q43 43 104 43h4q62 -2 107 -45q43 -45 43 -107q0 -63 -43 -106q-45 -43 -107 -45zM398 1112q-64 0 -107 45q-45 43 -45 106q0 62 45 107q43 45 107 45 q61 0 106 -45t45 -107q0 -63 -45 -106q-45 -45 -106 -45z" />
<glyph unicode="&#xf7;" horiz-adv-x="1034" d="M514 616q-68 0 -117 46q-51 43 -51 106t49 109q49 43 119 43t119 -46q47 -45 47 -106q0 -63 -47 -106q-49 -46 -119 -46zM113 291v278h809v-278h-809zM514 -49q-68 0 -117 45q-51 43 -51 106q0 64 49 109q49 43 119 43t119 -45q47 -45 47 -107q0 -63 -47 -106 q-49 -45 -119 -45z" />
<glyph unicode="&#xf8;" horiz-adv-x="1284" d="M633 -18q-101 0 -189 30l-57 -69l-315 102l121 150q-113 139 -113 311q0 227 170 375q162 141 393 141q100 0 193 -33l61 72l315 -98l-122 -158q98 -133 98 -297q0 -225 -164 -375.5t-391 -150.5zM637 752q-94 0 -158.5 -78t-64.5 -172q0 -17 2 -31l227 281h-6zM854 518 l-215 -266q94 2 158 90q57 78 57 176z" />
<glyph unicode="&#xf9;" horiz-adv-x="1249" d="M90 0zM780 -14v53q-67 -27 -194 -53h-17q-147 0 -286 75q-158 82 -179 199q-14 84 -14 424q0 137 2 315l342 25l-2 -629q0 -162 148 -162q79 0 200 50v729h336v-979zM692 1087l-418 248l242 156l379 -295z" />
<glyph unicode="&#xfa;" horiz-adv-x="1249" d="M90 0zM780 -14v53q-67 -27 -194 -53h-17q-147 0 -286 75q-158 82 -179 199q-14 84 -14 424q0 137 2 315l342 25l-2 -629q0 -162 148 -162q79 0 200 50v729h336v-979zM487 1087l-203 109l381 295l242 -156z" />
<glyph unicode="&#xfb;" horiz-adv-x="1249" d="M90 0zM780 -14v53q-67 -27 -194 -53h-17q-147 0 -286 75q-158 82 -179 199q-14 84 -14 424q0 137 2 315l342 25l-2 -629q0 -162 148 -162q79 0 200 50v729h336v-979zM838 1112l-209 133l-209 -133l-154 158l363 209l362 -209z" />
<glyph unicode="&#xfc;" horiz-adv-x="1249" d="M90 0zM780 -14v53q-67 -27 -194 -53h-17q-147 0 -286 75q-158 82 -179 199q-14 84 -14 424q0 137 2 315l342 25l-2 -629q0 -162 148 -162q79 0 200 50v729h336v-979zM850 1112h-4q-61 0 -104 43q-45 45 -45 108q0 62 45 109q43 43 104 43h4q62 -2 107 -45q43 -45 43 -107 q0 -63 -43 -106q-45 -43 -107 -45zM388 1112q-64 0 -107 45q-45 43 -45 106q0 62 45 107q43 45 107 45q61 0 106 -45t45 -107q0 -63 -45 -106q-45 -45 -106 -45z" />
<glyph unicode="&#xfd;" horiz-adv-x="1260" d="M31 0zM569 1087l-203 109l381 295l242 -156zM733 -221q-47 -152 -131 -201q-76 -43 -262 -49l-172 262q141 0 188 13.5t72 64.5q29 78 57 156l-454 952l352 49l266 -623l252 625l328 -53z" />
<glyph unicode="&#xfe;" horiz-adv-x="1272" d="M684 -39h-29q-77 0 -186 27v-234l-336 -26v1476l336 27v-225q117 30 229 30q224 0 359 -121q143 -131 143 -372v-21q-6 -248 -139 -395q-135 -147 -377 -166zM762 731q-27 19 -84 19q-76 0 -209 -33v-451q106 -30 186 -30q68 0 107 24q98 62 102 254v21q0 77 -14 110 q-19 37 -88 86z" />
<glyph unicode="&#xff;" horiz-adv-x="1260" d="M11 0zM713 -221q-47 -152 -131 -201q-76 -43 -262 -49l-172 262q141 0 188 13.5t72 64.5q29 78 57 156l-454 952l352 49l266 -623l252 625l328 -53zM860 1092h-4q-61 0 -104 43q-45 45 -45 108q0 62 45 109q43 43 104 43h4q62 -2 107 -45q43 -45 43 -107q0 -63 -43 -106 q-45 -43 -107 -45zM398 1092q-64 0 -107 45q-45 43 -45 106q0 62 45 107q43 45 107 45q61 0 106 -45t45 -107q0 -63 -45 -106q-45 -45 -106 -45z" />
<glyph unicode="&#x131;" horiz-adv-x="641" d="M154 0v991l335 27v-1018h-335z" />
<glyph unicode="&#x152;" horiz-adv-x="2150" d="M2048 0h-1276q-307 0 -510 223q-190 209 -190 490q0 288 192 497q207 224 518 224h1266l31 -279h-740v-235h617v-279h-617v-362h740zM1004 1155h-228q-164 0 -266 -129q-104 -129 -104 -311q0 -178 108 -307q109 -129 262 -129h228v876z" />
<glyph unicode="&#x153;" horiz-adv-x="1966" d="M1221 377q71 -123 231 -123q139 0 238 84l141 -223q-150 -129 -442 -129h-17q-211 2 -360 143q-160 -143 -385 -143q-236 0 -398 164q-157 155 -157 360q0 223 180 379q170 147 391 147q215 0 371 -139q151 143 354 143q244 0 404 -182q122 -139 122 -319q0 -68 -16 -142 zM1376 786h-4q-102 0 -172 -182l338 10q-61 168 -162 172zM631 766q-88 0 -156 -78q-67 -80 -67 -180t69 -174q68 -76 154 -76t153 80q64 76 64 174v4q-2 100 -68 176q-65 74 -149 74z" />
<glyph unicode="&#x178;" horiz-adv-x="1413" d="M10 0zM877 600v-600h-336v600l-531 805l377 49l322 -543l323 543l371 -49zM948 1551h-4q-61 0 -104 43q-45 45 -45 108q0 62 45 109q43 43 104 43h4q62 -2 107 -45q43 -45 43 -107q0 -63 -43 -106q-45 -43 -107 -45zM486 1551q-64 0 -107 45q-45 43 -45 106q0 62 45 107 q43 45 107 45q61 0 106 -45t45 -107q0 -63 -45 -106q-45 -45 -106 -45z" />
<glyph unicode="&#x2c6;" horiz-adv-x="766" d="M592 1112l-209 133l-209 -133l-154 158l363 209l362 -209z" />
<glyph unicode="&#x2da;" horiz-adv-x="676" d="M338 999q-121 0 -209 86t-88 207t88 207t209 86t209 -86t88 -207t-88 -207t-209 -86zM338 1368q-66 0 -66 -76q0 -32 21 -53q18 -22 45 -22t47 22q18 21 18 53q0 33 -18 56q-20 20 -47 20z" />
<glyph unicode="&#x2dc;" horiz-adv-x="874" d="M63 1399q17 41 80 76q64 34 123 34q72 0 175.5 -65.5t170.5 -65.5q72 0 203 131v-274q-123 -123 -203 -123q-71 0 -174 66q-104 63 -172 63h-4q-55 0 -115 -37q-61 -39 -84 -92v287z" />
<glyph unicode="&#x2000;" horiz-adv-x="971" />
<glyph unicode="&#x2001;" horiz-adv-x="1943" />
<glyph unicode="&#x2002;" horiz-adv-x="971" />
<glyph unicode="&#x2003;" horiz-adv-x="1943" />
<glyph unicode="&#x2004;" horiz-adv-x="647" />
<glyph unicode="&#x2005;" horiz-adv-x="485" />
<glyph unicode="&#x2006;" horiz-adv-x="323" />
<glyph unicode="&#x2007;" horiz-adv-x="323" />
<glyph unicode="&#x2008;" horiz-adv-x="242" />
<glyph unicode="&#x2009;" horiz-adv-x="388" />
<glyph unicode="&#x200a;" horiz-adv-x="107" />
<glyph unicode="&#x2010;" horiz-adv-x="844" d="M133 403v267h578v-267h-578z" />
<glyph unicode="&#x2011;" horiz-adv-x="844" d="M133 403v267h578v-267h-578z" />
<glyph unicode="&#x2012;" horiz-adv-x="844" d="M133 403v267h578v-267h-578z" />
<glyph unicode="&#x2013;" horiz-adv-x="1171" d="M113 403v267h946v-267h-946z" />
<glyph unicode="&#x2014;" horiz-adv-x="1745" d="M113 403v267h1519v-267h-1519z" />
<glyph unicode="&#x2018;" horiz-adv-x="489" d="M393 1182q-33 -166 -178 -166q-72 0 -127 51q-57 49 -57 129q0 49 57 131l193 270l178 -71z" />
<glyph unicode="&#x2019;" horiz-adv-x="489" d="M401 1270l-192 -271l-178 72l65 344q13 66 54 111q51 55 126 55q74 0 130 -51q53 -53 53 -129q0 -49 -58 -131z" />
<glyph unicode="&#x201a;" horiz-adv-x="444" d="M362 -29l-184 -258l-147 60l63 327q29 150 158 150q63 0 112.5 -45t49.5 -115q0 -43 -52 -119z" />
<glyph unicode="&#x201c;" horiz-adv-x="926" d="M829 1182q-32 -166 -178 -166q-73 0 -129 51q-55 49 -55 129q0 49 57 131l193 270l178 -71zM393 1182q-33 -166 -178 -166q-72 0 -127 51q-57 49 -57 129q0 49 57 131l193 270l178 -71z" />
<glyph unicode="&#x201d;" horiz-adv-x="926" d="M838 1270l-193 -271l-178 72l65 344q13 66 54 111q51 55 127 55q73 0 129 -51q53 -53 53 -129q0 -49 -57 -131zM401 1270l-192 -271l-178 72l65 344q33 166 174 166q74 0 131 -51q58 -51 58 -129q0 -49 -58 -131z" />
<glyph unicode="&#x201e;" horiz-adv-x="840" d="M758 -29l-185 -258l-147 60l63 327q27 150 158 150q68 0 115 -45q47 -47 47 -115q0 -43 -51 -119zM362 -29l-184 -258l-147 60l63 327q29 150 158 150q63 0 112.5 -45t49.5 -115q0 -43 -52 -119z" />
<glyph unicode="&#x2022;" horiz-adv-x="684" d="M342 342q-102 0 -176 72q-74 69 -74 172q0 100 74 172q74 69 176 69t176 -69q74 -72 74 -172q0 -103 -74 -172q-74 -72 -176 -72z" />
<glyph unicode="&#x2026;" horiz-adv-x="1493" d="M1237 -16q-76 0 -129 53t-53 129t53 129t129 53t131 -53q53 -53 53 -129t-53 -129q-55 -53 -131 -53zM745 -16q-75 0 -129 53q-53 53 -53 129t53 129q54 53 129 53q76 0 132 -53q53 -53 53 -129t-53 -129q-56 -53 -132 -53zM254 -16q-76 0 -129 53t-53 129t53 129t129 53 t131 -53q53 -53 53 -129t-53 -129q-55 -53 -131 -53z" />
<glyph unicode="&#x202f;" horiz-adv-x="388" />
<glyph unicode="&#x2039;" horiz-adv-x="643" d="M502 76l-430 348v172l430 334l67 -254l-215 -170l217 -176z" />
<glyph unicode="&#x203a;" horiz-adv-x="643" d="M141 78l-67 256l215 168l-217 176l69 254l430 -348v-172z" />
<glyph unicode="&#x205f;" horiz-adv-x="485" />
<glyph unicode="&#x20ac;" horiz-adv-x="1440" d="M1231 811q-55 25 -109 41q-133 41 -243 41q-129 0 -213 -119h555l-105 -182h-516l-2 -37h508l-105 -182h-362q74 -152 244 -152q129 0 358 98l125 -239q-309 -119 -467 -119q-16 0 -31 2q-202 19 -352 129q-149 109 -205 281h-239l104 182h105l2 37h-211l104 182h146 q63 170 213 275q147 104 348 112h20q103 0 227 -33q58 -16 238 -79z" />
<glyph unicode="&#x2122;" horiz-adv-x="1477" d="M1174 870l-15 144l-55 -129h-152l-57 129l-12 -146l-191 31l60 535h161l115 -265l111 265h164l61 -535zM467 1280v-395h-186v395h-168v154h522v-154h-168z" />
<glyph unicode="&#xe000;" horiz-adv-x="1025" d="M0 1025h1025v-1025h-1025v1025z" />
<glyph horiz-adv-x="2028" d="M0 0z" />
</font>
</defs>
</svg>
