<?xml version="1.0" standalone="no"?>
<!DOCTYPE svg PUBLIC "-//W3C//DTD SVG 1.1//EN" "http://www.w3.org/Graphics/SVG/1.1/DTD/svg11.dtd" >
<svg xmlns="http://www.w3.org/2000/svg">
<metadata></metadata>
<defs>
<font id="greyscalebasicbold_italic" horiz-adv-x="481" >
<font-face units-per-em="1000" ascent="750" descent="-250" />
<missing-glyph horiz-adv-x="270" />
<glyph horiz-adv-x="1000" />
<glyph horiz-adv-x="1000" />
<glyph unicode="&#xd;" horiz-adv-x="700" />
<glyph unicode=" "  horiz-adv-x="270" />
<glyph unicode="&#x09;" horiz-adv-x="270" />
<glyph unicode="&#xa0;" horiz-adv-x="270" />
<glyph unicode="!" horiz-adv-x="150" d="M84 77q17 0 25.5 -10.5t5.5 -27.5q-3 -18 -15 -28.5t-29 -10.5t-27.5 10.5t-7.5 28.5q3 17 17 27.5t31 10.5zM201 741q17 0 26 -10.5t5 -28.5l-82 -464q-3 -17 -15.5 -28.5t-29.5 -11.5t-27 11.5t-7 28.5l82 464q4 18 17.5 28.5t30.5 10.5z" />
<glyph unicode="&#x22;" horiz-adv-x="161" d="M173 742q14 0 22.5 -8.5t6.5 -22.5l-12 -70q-3 -15 -14.5 -23.5t-25.5 -8.5q-12 0 -20.5 8.5t-5.5 23.5l12 70q2 14 13.5 22.5t23.5 8.5zM239 742q14 0 22 -8.5t6 -22.5l-12 -70q-3 -15 -14 -23.5t-25 -8.5q-12 0 -20.5 8.5t-5.5 23.5l12 70q2 14 13.5 22.5t23.5 8.5z " />
<glyph unicode="#" horiz-adv-x="465" d="M435 422l-18 -104h18q18 0 26.5 -10.5t5.5 -27.5q-4 -19 -16 -30t-30 -11h-18l-5 -25q-2 -13 -15 -25t-30 -12t-26 12t-7 25l5 25h-115l-5 -25q-2 -13 -15.5 -25t-30.5 -12q-16 0 -24.5 12t-6.5 25l5 25h-21q-17 0 -25.5 11t-4.5 30q3 17 15 27.5t29 10.5h21l18 104h-21 q-17 0 -25 11.5t-5 27.5q3 17 14.5 27.5t28.5 10.5h21l5 24q3 17 15.5 29t28.5 12q17 0 26.5 -12t6.5 -29l-5 -24h115l5 24q3 17 16 29t30 12t26 -12t6 -29l-5 -24h18q18 0 27 -10.5t6 -27.5q-3 -16 -15.5 -27.5t-30.5 -11.5h-18zM357 422h-115l-18 -104h115z" />
<glyph unicode="$" horiz-adv-x="445" d="M425 304q30 -39 21 -90q-5 -26 -18 -48.5t-33 -37.5q-44 -36 -92 -36h-27l-9 -52q-4 -17 -16 -27t-29 -10q-16 0 -25 10t-5 27l9 52h-119q-18 0 -26.5 11.5t-6.5 25.5q3 17 15.5 28.5t30.5 11.5h119l35 194l-15.5 15.5l-13.5 13.5q-7 7 -13 14l-45 48q-14 17 -21.5 40 t-2.5 50q5 23 18.5 45.5t33.5 41.5q21 17 45.5 26.5t48.5 9.5h18l6 34q3 18 15.5 28.5t28.5 10.5q17 0 25.5 -10.5t5.5 -28.5l-6 -34h101q15 0 25 -12.5t7 -29.5q-3 -16 -17 -27t-29 -11h-101l-33 -188q5 -7 12 -12.5t12 -10.5q6 -5 13 -10l57 -61zM225 513q2 -2 8 -8.5 t12.5 -14t13 -14.5t8.5 -10l21 121h-18q-17 0 -33 -14v1q-17 -12 -21 -30q-3 -19 10 -33zM269 463l-2 3l-6 -33l26 12q-5 4 -8 7l-5 5l-5 5v1zM316 169q19 0 31 9q8 9 13.5 17.5t7.5 18.5q2 8 0 17t-6 17q-8 5 -23.5 21t-26.5 27l-23 -127h27zM318 329l-27 -12q2 -2 4 -3.5 t4 -3.5t2 -4l3 -3q4 -4 8 -7z" />
<glyph unicode="%" horiz-adv-x="594" d="M267 463q-21 0 -39 8.5t-30 23.5t-17.5 34.5t-1.5 41.5l11 62q4 21 16 40.5t29 34.5t38.5 24t43.5 9t40 -9t30 -24t17 -34.5t1 -40.5l-11 -62q-4 -22 -15.5 -41.5t-29 -34.5t-38.5 -23.5t-44 -8.5zM304 664q-13 0 -23 -9.5t-12 -21.5l-11 -62q-2 -12 5 -20.5t18 -8.5 q13 0 22.5 8.5t11.5 20.5l11 62q2 12 -3.5 21.5t-18.5 9.5zM442 277q23 0 41.5 -8.5t30.5 -23.5t17 -34.5t1 -41.5l-10 -61q-4 -23 -16 -42.5t-29.5 -34t-38.5 -23t-44 -8.5q-44 0 -70.5 31t-18.5 77l10 61q4 22 16.5 41.5t29.5 34.5t38 23.5t43 8.5zM453 169q2 11 -5 20 t-20 9t-22.5 -9t-11.5 -20l-10 -61q-3 -14 3.5 -22.5t19.5 -8.5t23 8.5t13 22.5zM607 736q17 -8 18.5 -23.5t-9.5 -30.5v1q-115 -167 -229 -331.5t-228 -331.5q-11 -14 -27.5 -19t-28.5 1q-14 8 -16.5 24t7.5 30v-1q115 167 229 332t229 332q12 17 28.5 21t27.5 -4h-1z" />
<glyph unicode="&#x26;" horiz-adv-x="573" d="M548 67q7 -12 3.5 -28t-19.5 -26l1 1q-16 -12 -30.5 -10t-23.5 16l-47 83q-3 -2 -8 -8t-7 -8h1q-38 -39 -85.5 -60.5t-96.5 -21.5q-44 0 -79 17t-58 46t-32.5 67t-1.5 81q8 48 37 91.5t73 74.5l63 46q-10 16 -19.5 33t-19.5 33q-11 21 -15.5 44t0.5 49q6 32 23 60.5 t41.5 49.5t55 33t62.5 12t58.5 -12t44 -33t25 -49.5t1.5 -60.5q-5 -31 -24 -62t-48 -53q-23 -17 -40.5 -29.5t-40.5 -28.5q29 -49 57 -93t58 -94q18 20 35.5 37t37.5 37q13 11 28.5 14t25.5 -8q11 -9 10.5 -25.5t-11.5 -29.5l-88 -89q14 -24 27 -48t27 -48h-1zM308 477 q20 13 38 26.5t38 27.5q13 12 22 25.5t12 30.5q5 31 -14 53.5t-52 22.5q-15 0 -30 -6t-27 -16.5t-20.5 -24.5t-11.5 -29q-5 -26 8 -46zM393 164q-31 52 -59 99t-60 101q-16 -11 -32.5 -22.5t-30.5 -22.5q-26 -18 -44 -44.5t-23 -58.5q-5 -27 1 -51t20.5 -42t36 -28.5 t48.5 -10.5q31 0 60.5 13t53.5 39z" />
<glyph unicode="'" horiz-adv-x="117" d="M189 742q14 0 22.5 -8.5t6.5 -22.5l-12 -70q-3 -15 -14.5 -23.5t-25.5 -8.5q-12 0 -20.5 8.5t-5.5 23.5l12 70q2 14 13.5 22.5t23.5 8.5z" />
<glyph unicode="(" horiz-adv-x="281" d="M154 173q-4 -21 1 -40.5t16.5 -33.5t29 -22.5t38.5 -8.5q17 0 26.5 -10.5t6.5 -28.5q-3 -17 -16 -27.5t-30 -10.5q-38 0 -68.5 14t-51 38.5t-29 58t-1.5 71.5l70 395q6 38 26 71t49.5 58t65 39t73.5 14q17 0 26 -10.5t6 -28.5q-3 -17 -16 -27.5t-30 -10.5 q-21 0 -41.5 -8.5t-37 -22.5t-28 -33.5t-15.5 -40.5z" />
<glyph unicode=")" horiz-adv-x="283" d="M176 750q38 0 68.5 -14t50.5 -39t28.5 -58t2.5 -71l-70 -395q-7 -38 -27 -71.5t-49 -58t-64.5 -38.5t-73.5 -14q-18 0 -26.5 10.5t-5.5 27.5q3 18 15 28.5t30 10.5q21 0 41.5 8.5t37 22.5t28 33.5t15.5 40.5l70 395q4 21 -1 40.5t-16.5 33.5t-29 22.5t-38.5 8.5 q-18 0 -26.5 10.5t-5.5 27.5q3 18 15.5 28.5t30.5 10.5z" />
<glyph unicode="*" horiz-adv-x="348" d="M365 689q18 9 32 4.5t18 -17.5q7 -14 1 -27.5t-21 -21.5l-50 -28q11 -8 19.5 -12.5t20.5 -12.5q11 -11 11.5 -25t-8.5 -26q-10 -17 -25 -20.5t-30 6.5l-35 28l-7 -42q-3 -15 -16 -24.5t-27 -9.5t-24 9.5t-7 24.5l7 41q-12 -7 -24.5 -13.5t-24.5 -13.5l1 1 q-17 -10 -29.5 -7t-16.5 20q-7 12 -2 25t19 23l52 29q-11 8 -20 13.5t-20 13.5q-13 9 -13 23t12 28l-2 -2q9 14 23 19t29 -6l-1 1q7 -5 12 -7.5t8.5 -5t8 -5.5t11.5 -8l6 37q3 18 16.5 28.5t27.5 10.5t23.5 -10.5t6.5 -28.5l-6 -37q12 7 22.5 12.5t21.5 12.5z" />
<glyph unicode="+" horiz-adv-x="453" d="M456 409q18 0 27.5 -10.5t6.5 -28.5q-3 -17 -16.5 -27.5t-31.5 -10.5h-130l-23 -132q-3 -17 -15.5 -28t-30.5 -11q-17 0 -26 11t-6 28l23 132h-132q-17 0 -26 10.5t-6 27.5q3 18 16 28.5t30 10.5h132l23 132q3 18 16 28.5t30 10.5q18 0 26.5 -10.5t5.5 -28.5l-23 -132 h130z" />
<glyph unicode="," horiz-adv-x="151" d="M85 77q14 0 22.5 -8.5t5.5 -23.5l-15 -88q-3 -15 -14.5 -23.5t-25.5 -8.5q-12 0 -20.5 8.5t-5.5 23.5l15 88q3 15 14.5 23.5t23.5 8.5z" />
<glyph unicode="-" horiz-adv-x="423" d="M399 409q14 0 24 -10.5t7 -28.5q-3 -17 -17 -27.5t-28 -10.5h-249q-17 0 -27 10.5t-7 27.5q3 18 17 28.5t31 10.5h249z" />
<glyph unicode="." horiz-adv-x="165" d="M90 77q18 0 28.5 -12t7.5 -30q-4 -19 -18.5 -31t-32.5 -12q-19 0 -29 12t-6 31q3 18 17 30t33 12z" />
<glyph unicode="/" horiz-adv-x="452" d="M483 719q11 17 27 20.5t28 -4.5q15 -8 17 -21.5t-5 -25.5l-461 -668q-11 -14 -26.5 -19t-29.5 1q-13 8 -16 24t8 30v-1q115 167 229 332t229 332z" />
<glyph unicode="0" horiz-adv-x="660" d="M450 741q56 0 101.5 -21t75.5 -57.5t42.5 -85.5t2.5 -105l-36 -204q-10 -56 -40 -105t-72.5 -85t-95 -57t-108.5 -21q-55 0 -100.5 21t-76 57t-43 85t-2.5 105l36 204q10 56 40 105t73 85.5t95.5 57.5t107.5 21zM177 268q-7 -39 2 -74t30 -61t53 -41t71 -15 q30 0 58.5 9.5t54.5 25.5q-42 115 -88 235t-90 237q-20 -23 -35 -52t-20 -60zM594 472q7 40 -2 75t-30 61t-53.5 41t-71.5 15q-52 0 -98 -26q23 -62 44.5 -119.5t42.5 -114.5t42.5 -115t44.5 -120q17 22 28.5 47t16.5 52z" />
<glyph unicode="1" horiz-adv-x="207" d="M228 741q17 0 26 -10.5t5 -28.5l-117 -663q-3 -18 -15 -28.5t-29 -10.5q-18 0 -27 10.5t-6 28.5l111 625h-30q-17 0 -27 10.5t-7 27.5q4 18 17 28.5t30 10.5h69z" />
<glyph unicode="2" horiz-adv-x="525" d="M461 77q17 0 27 -10t6 -28q-3 -18 -16 -28.5t-30 -10.5h-391q-26 0 -33 20q-2 11 1 22.5t11 21.5l449 481l-1 -1q10 10 15 21t7 23q6 30 -12 54h1q-19 22 -48 22h-269q-14 0 -24.5 10.5t-7.5 27.5q4 18 17.5 28.5t27.5 10.5h269q31 0 57 -11t43 -34q17 -21 24 -48.5 t1 -59.5q-8 -48 -48 -92l-387 -419h311z" />
<glyph unicode="3" horiz-adv-x="516" d="M406 741q34 0 62.5 -13.5t47.5 -37t27 -54.5t2 -66l-13 -71q-7 -38 -29.5 -72t-52.5 -57q20 -23 31.5 -58t5.5 -72l-13 -71q-6 -35 -25 -66t-46 -54t-60 -36t-67 -13h-239q-17 0 -26.5 10.5t-7.5 28.5q3 17 16.5 27.5t30.5 10.5h239q18 0 36 7t32 19.5t24.5 29.5t13.5 36 l13 71q6 35 -12.5 60t-49.5 30h-190q-18 0 -26.5 11.5t-5.5 28.5q7 39 46 39h189q33 6 61 31t33 59l13 71q3 19 -1 36t-14 29.5t-25.5 19.5t-33.5 7h-239q-17 0 -26 12t-7 26q3 18 16.5 29.5t30.5 11.5h239z" />
<glyph unicode="4" horiz-adv-x="556" d="M503 268q17 0 26.5 -11.5t6.5 -28.5q-3 -14 -16.5 -26t-30.5 -12h-6l-27 -151q-3 -18 -15 -28.5t-29 -10.5q-18 0 -27 10.5t-6 28.5l27 151h-251q-25 0 -46 10t-35 26.5t-20 39t-1 48.5t21 52.5t41 49.5l354 312q15 13 31 13h42q17 0 26 -10.5t5 -28.5l-76 -434h6z M503 664l-3.5 -3.5l-3.5 -3.5l3 14zM420 268q17 101 37.5 194.5t38.5 194.5q-83 -74 -165.5 -147t-165.5 -147v1q-13 -13 -22.5 -26t-11.5 -24q-4 -19 8 -32.5t30 -13.5h251z" />
<glyph unicode="5" horiz-adv-x="538" d="M393 455q37 0 68 -14t52 -39t29.5 -58t2.5 -71l-16 -91q-7 -38 -27.5 -71t-50 -58t-65.5 -39t-73 -14h-246q-14 0 -25 10.5t-8 28.5q3 17 17.5 27.5t28.5 10.5h246q21 0 42 8.5t38 22.5t28.5 33.5t15.5 40.5l16 91q4 21 -1 39.5t-17 33t-30 22.5t-39 8h-136l-3 2 q-32 1 -55 11.5t-41 29.5q-36 48 -24 109l20 118q7 40 40 67q33 28 72 28h331q17 0 26 -10.5t5 -28.5q-3 -17 -15 -27.5t-29 -10.5h-331q-2 0 -6 -1.5t-5 -2.5q-7 -9 -9 -14l-20 -118q-6 -30 12 -51q9 -12 20.5 -17t25.5 -5h136z" />
<glyph unicode="6" horiz-adv-x="623" d="M459 501q38 0 69 -14t51.5 -39t29 -58t1.5 -71l-24 -137q-7 -38 -27 -71t-49 -58t-65 -39t-74 -14h-127q-38 0 -69 14t-52 39t-29.5 58t-1.5 71l66 376q7 38 27 71.5t49.5 58t65.5 39t74 14.5h110q38 0 69 -14.5t52 -39t29.5 -58t1.5 -71.5q-3 -17 -17 -28t-31 -11 t-25.5 11t-5.5 28q4 22 -1 41t-17 33.5t-29.5 23t-38.5 8.5h-110q-22 0 -42.5 -8.5t-37.5 -23t-28.5 -33.5t-15.5 -41l-16 -89q50 32 111 32h127zM531 319q4 21 -1 40.5t-17 33.5t-29.5 22.5t-38.5 8.5h-127q-22 0 -42.5 -8.5t-37 -22.5t-28 -33.5t-15.5 -40.5l-24 -137 q-4 -21 1 -40.5t16.5 -33.5t29 -22.5t39.5 -8.5h127q21 0 41.5 8.5t37.5 22.5t28.5 33.5t15.5 40.5z" />
<glyph unicode="7" horiz-adv-x="484" d="M453 741q55 0 85 -39h-1q31 -37 22 -91q-2 -13 -5.5 -23t-8.5 -22l-325 -543v2q-8 -18 -25.5 -23.5t-29.5 0.5q-16 8 -18 21t6 30l322 540q4 7 6 18q4 21 -7 37q-14 14 -35 14l-286 2q-15 0 -25 10.5t-7 27.5q4 18 17 28.5t28 10.5h287z" />
<glyph unicode="8" horiz-adv-x="608" d="M595 532q-11 -62 -62 -106q33 -25 48.5 -65t7.5 -87l-16 -92q-7 -38 -27 -71t-49 -58t-65 -39t-74 -14h-128q-38 0 -68.5 14t-50.5 39t-28.5 58t-1.5 71l16 92q8 46 38.5 86.5t70.5 65.5q-35 43 -25 106l10 54q6 32 23 60t41.5 49t55 33.5t62.5 12.5h104q32 0 58 -12.5 t43.5 -33.5t25 -49t1.5 -60zM259 532q-5 -31 13.5 -54t50.5 -23h104q16 0 31 6.5t27.5 17t21 24.5t11.5 29l10 54q5 32 -13.5 55t-50.5 23h-104q-16 0 -31 -6.5t-27.5 -17t-21 -24.5t-11.5 -30zM511 274q4 21 -1 40t-17 33t-30 22.5t-39 8.5h-128q-21 0 -41 -8.5 t-36.5 -22.5t-28 -33t-15.5 -40l-16 -92q-4 -21 1 -40.5t16.5 -33.5t28.5 -22.5t38 -8.5h128q21 0 42 8.5t38 22.5t28.5 33.5t15.5 40.5z" />
<glyph unicode="9" horiz-adv-x="622" d="M491 741q38 0 68.5 -14.5t51 -39t29 -58t1.5 -71.5l-66 -376q-7 -38 -27 -71t-49 -58t-64.5 -39t-73.5 -14h-112q-38 0 -69 14t-51 39t-28.5 58t-1.5 71q3 18 15.5 28.5t30.5 10.5q17 0 26 -10.5t6 -28.5q-4 -21 1 -40.5t16.5 -33.5t29 -22.5t38.5 -8.5h112 q21 0 41.5 8.5t37 22.5t28 33.5t15.5 40.5l23 131q-51 -31 -109 -31h-128q-38 0 -68.5 14t-51 39t-28.5 57.5t-2 70.5l17 95q7 38 27 71.5t48.5 58t64.5 39t74 14.5h128zM562 558q4 22 -1 41t-16.5 33.5t-28.5 23t-38 8.5h-128q-21 0 -41.5 -8.5t-37 -23t-28 -33.5 t-15.5 -41l-17 -95q-4 -21 1 -39.5t16.5 -33t29 -22.5t38.5 -8h128q21 0 41 8t36.5 22.5t28 33t15.5 39.5z" />
<glyph unicode=":" horiz-adv-x="187" d="M132 243q17 0 27 -10.5t7 -27.5t-16.5 -28.5t-30.5 -11.5t-25.5 11.5t-5.5 28.5t15 27.5t29 10.5zM162 409q17 0 26.5 -10.5t6.5 -28.5q-3 -17 -16.5 -27.5t-30.5 -10.5t-25.5 10.5t-5.5 27.5q3 18 15.5 28.5t29.5 10.5z" />
<glyph unicode=";" horiz-adv-x="186" d="M162 409q17 0 27 -10.5t7 -28.5q-3 -17 -17 -27.5t-31 -10.5t-25.5 10.5t-5.5 27.5q3 18 15.5 28.5t29.5 10.5zM137 272q14 0 22.5 -9t6.5 -23l-17 -98q-3 -15 -14.5 -23.5t-25.5 -8.5q-12 0 -20.5 8.5t-5.5 23.5l17 98q2 14 13.5 23t23.5 9z" />
<glyph unicode="&#x3c;" horiz-adv-x="332" d="M361 559q11 -14 4.5 -29.5t-20.5 -23.5l1 1q-50 -37 -92.5 -68.5t-92.5 -68.5q35 -34 68.5 -68t68.5 -68q11 -13 11 -26.5t-14 -27.5q-12 -12 -28 -14t-28 9q-42 40 -85.5 83t-85.5 83q-11 17 -8 29q3 18 19 30l229 166q14 9 30 7.5t24 -14.5h-1z" />
<glyph unicode="=" horiz-adv-x="479" d="M450 492q14 0 25 -10.5t7 -28.5q-3 -17 -17.5 -28t-28.5 -11h-262q-17 0 -26.5 11t-6.5 28q4 18 17 28.5t30 10.5h262zM436 409q14 0 24.5 -10.5t7.5 -28.5q-3 -17 -17.5 -27.5t-28.5 -10.5h-262q-17 0 -26.5 10.5t-6.5 27.5q3 18 16.5 28.5t30.5 10.5h262z" />
<glyph unicode="&#x3e;" horiz-adv-x="331" d="M384 399q4 -5 6.5 -13t0.5 -16q-3 -15 -15 -28l-233 -167q-14 -11 -29 -9t-25 14q-8 12 -3.5 26.5t19.5 27.5l185 136q-35 34 -68.5 68t-68.5 69l1 -1q-11 10 -11 25.5t13 28.5q14 12 29 13t26 -7z" />
<glyph unicode="?" horiz-adv-x="414" d="M124 77q14 0 24 -10.5t7 -27.5q-3 -18 -16.5 -28.5t-27.5 -10.5q-18 0 -28 10.5t-7 28.5q3 17 16.5 27.5t31.5 10.5zM352 741q38 0 69 -14.5t51.5 -39t29 -58t1.5 -71.5t-27 -71t-49 -58t-65 -39t-74 -14q-29 0 -56 -21l1 2q-11 -12 -20 -25.5t-11 -29.5l-10 -58 q-4 -17 -18 -28.5t-28 -11.5q-18 0 -27.5 11.5t-5.5 28.5l10 58q5 30 21.5 58.5t41.5 49.5q52 45 116 45q21 0 41.5 8t37.5 22.5t28.5 33t15.5 39.5q4 22 -1 41t-17 33.5t-29.5 23t-38.5 8.5h-187q-17 0 -26 10.5t-6 27.5q4 18 16 28.5t29 10.5h187z" />
<glyph unicode="@" horiz-adv-x="823" d="M620 799q54 0 99 -20.5t77 -58.5q65 -80 45 -189l-64 -365q-3 -14 -15.5 -26t-29.5 -12t-27 12t-7 26l64 365q7 37 -1 71.5t-30 62.5h1q-46 55 -126 55h-152q-40 0 -77.5 -15t-68 -40.5t-51 -60t-27.5 -73.5l-57 -324q-3 -17 -15.5 -28.5t-30.5 -11.5t-26 11.5t-5 28.5 l57 324q10 55 39.5 104t72 85.5t95 57.5t108.5 21h152zM132 197q8 0 10 10h31q-7 -39 1.5 -74t29.5 -61t53.5 -41t72.5 -15l146 1q18 0 33.5 12.5t18.5 30.5l11 61h-179q-50 0 -82 35q-28 38 -19 88l14 84q4 25 17.5 46.5t33 38t43.5 26t50 9.5h137q13 0 22 -1t19 -5l10 52 q2 8 -0.5 15t-7.5 14q-10 13 -29 13h-146l-4 -22q-3 -17 -16 -28t-30 -11q-15 0 -25 11t-7 28l11 61q3 17 17 28.5t29 11.5h185q50 0 80 -36v1q17 -17 21 -40t0 -46l-77 -434q-5 -26 -18 -48t-32 -38.5t-43 -26t-50 -9.5l-147 -1q-56 0 -101 21t-74.5 58t-42 86t-2.5 105h30 q-2 -10 6 -10zM551 200q2 0 2 2l23 128q2 17 -8 28t-27 11h-137q-19 0 -34 -11.5t-19 -29.5l-14 -84q-3 -16 8 -32l-2 1q7 -6 14 -9.5t17 -3.5h177z" />
<glyph unicode="A" horiz-adv-x="690" d="M656 46q1 -13 -8.5 -25.5t-26.5 -18.5t-30 2t-15 25l-1 -1q-10 55 -18.5 104.5t-18.5 105.5h-318q-27 -54 -54 -105t-55 -105q-10 -14 -26 -22.5t-30 -3.5h1q-17 6 -20.5 21t4.5 31v-1q88 169 175.5 336.5t175.5 337.5q16 28 42 28h75q17 0 24 -7.5t9 -21.5l-1 1z M526 318q-15 91 -31 178.5t-30 178.5h-16q-48 -91 -93.5 -177.5t-93.5 -179.5h264z" />
<glyph unicode="B" horiz-adv-x="650" d="M626 558q-6 -35 -24.5 -65.5t-42.5 -55.5q45 -22 69.5 -66t13.5 -104l-15 -81q-7 -39 -27.5 -73t-50 -59t-65.5 -39.5t-75 -14.5h-303q-18 0 -28 10.5t-7 28.5l119 675q3 17 17 29t32 12h236q39 0 70 -14.5t52 -39.5t29.5 -59t1.5 -72zM547 570q4 21 -1 40.5t-17 33.5 t-29.5 22.5t-38.5 8.5h-197l-40 -223h197q21 0 42 8.5t38 23t28.5 33.5t15.5 41zM563 267q4 22 -1.5 41.5t-17.5 34t-30 23t-40 8.5h-264l-51 -294h264q22 0 42.5 8.5t38 23t29 33.5t15.5 41z" />
<glyph unicode="C" horiz-adv-x="500" d="M463 80q18 0 26 -12t5 -29q-3 -18 -15 -28.5t-30 -10.5h-131q-55 0 -101.5 20.5t-78.5 58.5q-32 40 -44 90t-2 104l36 208q10 57 40.5 106.5t74 87t97.5 59t111 21.5h130q17 0 26 -12t6 -29q-3 -18 -16 -28.5t-30 -10.5h-130q-40 0 -78 -15.5t-69.5 -41.5t-53 -61.5 t-28.5 -75.5l-36 -208q-15 -80 33 -136q21 -29 53.5 -43t73.5 -14h131z" />
<glyph unicode="D" horiz-adv-x="644" d="M441 755q57 0 103 -21.5t77 -59t43.5 -87t2.5 -106.5l-36 -208q-10 -56 -40.5 -106t-74 -87t-97.5 -58.5t-111 -21.5h-204q-18 0 -27 10.5t-6 28.5l119 675q3 17 16 29t31 12h204zM587 481q7 38 -1.5 73t-33.5 63q-22 29 -54 43.5t-71 14.5h-165l-105 -595h165 q40 0 78.5 15t69.5 41.5t52.5 61.5t28.5 75z" />
<glyph unicode="E" horiz-adv-x="554" d="M262 675l-40 -224h320q17 0 26.5 -11.5t6.5 -28.5t-16.5 -28.5t-30.5 -11.5h-320l-51 -291h365q17 0 26 -12t6 -29q-3 -18 -16 -28.5t-30 -10.5h-405q-17 0 -26.5 10.5t-6.5 28.5l119 675q3 17 16.5 29t30.5 12h405q17 0 26 -12t6 -29q-3 -18 -16 -28.5t-30 -10.5h-365z " />
<glyph unicode="F" horiz-adv-x="550" d="M642 755q18 0 26 -12t5 -29q-3 -18 -15 -28.5t-30 -10.5h-364l-40 -224h319q18 0 26.5 -11.5t5.5 -28.5t-15.5 -28.5t-30.5 -11.5h-319l-59 -332q-3 -18 -17 -28.5t-31 -10.5q-15 0 -25.5 10.5t-7.5 28.5l119 675q3 17 17.5 29t29.5 12h406z" />
<glyph unicode="G" horiz-adv-x="651" d="M629 418q15 0 28 -13q9 -13 6 -28l-18 -104q-10 -56 -40.5 -106t-74 -87t-97 -58.5t-110.5 -21.5q-56 0 -102.5 21.5t-77 58.5t-43.5 87t-3 106l36 208q10 57 40.5 106.5t74.5 87t98 59t110 21.5q79 0 136 -40t80 -110v1q5 -14 -1.5 -30t-23.5 -24q-17 -9 -31.5 -3.5 t-19.5 20.5q-18 51 -58 78.5t-96 27.5q-40 0 -78 -15.5t-69 -41.5t-52.5 -61.5t-28.5 -75.5l-36 -208q-7 -40 2 -75t30.5 -61.5t54 -41.5t72.5 -15t78 15t69 41.5t52.5 61.5t28.5 75l11 65h-74q-18 0 -26.5 10.5t-5.5 28.5q3 17 15.5 29t30.5 12h113z" />
<glyph unicode="H" horiz-adv-x="694" d="M708 755q18 0 26 -12t5 -29l-119 -675q-3 -18 -15 -28.5t-30 -10.5t-27.5 10.5t-6.5 28.5l60 336h-390l-60 -336q-3 -18 -16 -28.5t-30 -10.5t-27 10.5t-7 28.5l119 675q3 17 17 29t31 12t26 -12t6 -29l-45 -259h390l45 259q3 17 16.5 29t31.5 12z" />
<glyph unicode="I" horiz-adv-x="214" d="M233 755q17 0 26 -12t6 -29l-119 -675q-3 -18 -16 -28.5t-30 -10.5t-27 10.5t-7 28.5l119 675q3 17 17 29t31 12z" />
<glyph unicode="J" horiz-adv-x="357" d="M394 755q18 0 26.5 -12t5.5 -29l-77 -441q-10 -56 -40.5 -106t-74 -87t-96.5 -58.5t-110 -21.5q-17 0 -26.5 10.5t-6.5 28.5q3 17 16.5 29t30.5 12q40 0 78 15t69 41.5t52.5 61.5t28.5 75l77 441q3 17 16.5 29t30.5 12z" />
<glyph unicode="K" horiz-adv-x="666" d="M661 742q15 12 31 12.5t27 -10.5q10 -11 9 -26.5t-17 -29.5h1q-79 -72 -153.5 -140.5t-152.5 -140.5q48 -86 95.5 -173t94.5 -174q5 -12 -0.5 -27.5t-20.5 -25.5t-30 -7t-26 16l-190 355h-119l-59 -332q-3 -18 -16 -28.5t-31 -10.5t-27 10.5t-6 28.5l119 675q3 17 16 29 t31 12t27 -12t6 -29l-46 -263h121z" />
<glyph unicode="L" horiz-adv-x="544" d="M515 80q17 0 26.5 -12t6.5 -29q-3 -18 -16.5 -28.5t-30.5 -10.5h-396q-18 0 -28 10.5t-7 28.5l119 675q3 17 17 29t32 12t26 -12t5 -29l-111 -634h357z" />
<glyph unicode="M" horiz-adv-x="804" d="M813 755q17 0 26 -12t6 -29l-119 -675q-3 -18 -16 -28.5t-30 -10.5t-27 10.5t-7 28.5l111 628q-65 -78 -128.5 -156t-127.5 -156q-8 -9 -17 -13t-18 -4q-21 0 -30 16q-43 78 -86.5 157t-86.5 157l-111 -629q-3 -18 -16.5 -28.5t-30.5 -10.5q-18 0 -27 10.5t-6 28.5 l119 675q3 17 16 29t31 12h58q11 0 17.5 -5t10.5 -13q42 -74 80 -144t79 -145q58 72 117.5 144t116.5 144q18 19 40 19h56z" />
<glyph unicode="N" horiz-adv-x="687" d="M700 755q17 0 26 -12t6 -29l-119 -675q-3 -18 -16 -28.5t-30 -10.5h-60q-14 0 -21 5.5t-12 15.5l-212 644l-111 -626q-3 -18 -16 -28.5t-30 -10.5t-27 10.5t-7 28.5l119 675q3 17 17 29t31 12h60q24 0 32 -23l-1 1q53 -163 106 -323.5t107 -322.5l110 627q3 17 17 29 t31 12z" />
<glyph unicode="O" horiz-adv-x="660" d="M456 755q112 0 180 -80q32 -39 43 -89t1 -105l-36 -208q-10 -56 -40.5 -106t-74 -87t-96.5 -58.5t-110 -21.5t-103 21.5t-77 58.5t-43.5 87t-2.5 106l36 208q10 57 40.5 106.5t74 87t97.5 59t111 21.5zM601 481q7 38 -1.5 73t-32.5 63q-46 58 -125 58q-40 0 -78 -15.5 t-69 -41.5t-52.5 -61.5t-28.5 -75.5l-36 -208q-7 -40 2 -75t30.5 -61.5t54 -41.5t72.5 -15t78 15t69 41.5t52.5 61.5t28.5 75z" />
<glyph unicode="P" horiz-adv-x="569" d="M465 755q46 0 84.5 -18t64 -48.5t36 -72t2.5 -88.5q-9 -47 -34 -88.5t-61.5 -72t-81 -48t-90.5 -17.5h-187l-47 -263q-3 -18 -15.5 -28.5t-30.5 -10.5q-17 0 -27.5 10.5t-7.5 28.5l119 675q3 17 17.5 29t32.5 12h226zM399 382q30 0 58.5 11.5t51.5 31.5t39.5 46.5 t22.5 56.5q5 30 -2 56.5t-23.5 47t-40.5 32t-54 11.5h-187l-52 -293h187z" />
<glyph unicode="Q" horiz-adv-x="668" d="M596 68q11 -11 9 -26.5t-17 -29.5q-15 -13 -32 -12t-26 13l-35 42q-38 -24 -82.5 -39.5t-89.5 -15.5q-57 0 -103 21.5t-77 58.5t-43.5 87t-2.5 106l36 208q10 57 40.5 106.5t74.5 87t97.5 59t110.5 21.5q54 0 100.5 -20.5t79.5 -59.5q32 -39 43 -89t1 -105l-36 -208 q-17 -92 -83 -163zM177 273q-7 -40 2 -75t30.5 -61.5t54.5 -41.5t73 -15t77.5 15t68.5 41.5t52.5 61.5t28.5 75l36 208q15 81 -32 136q-48 58 -126 58q-40 0 -78 -15.5t-69.5 -41.5t-53 -61.5t-28.5 -75.5z" />
<glyph unicode="R" horiz-adv-x="623" d="M565 60l-1 1q6 -13 1 -28t-22 -26t-32 -6.5t-21 19.5v-1q-33 73 -65 142t-65 141h-164l-47 -263q-3 -18 -15.5 -28.5t-29.5 -10.5q-18 0 -27.5 10.5t-6.5 28.5l119 675q3 17 16.5 29t32.5 12h225q47 0 85 -18t63.5 -48.5t36 -72t2.5 -88.5q-7 -38 -25 -72.5t-44.5 -63 t-60 -49.5t-69.5 -32zM210 382h187q30 0 59 11.5t52.5 31.5t39.5 46.5t22 56.5q5 30 -1.5 56.5t-23 47t-41.5 32t-55 11.5h-187z" />
<glyph unicode="S" horiz-adv-x="526" d="M298 675q-30 0 -58 -22q-25 -22 -31 -52q-5 -32 13 -54v1q67 -71 134.5 -140.5t134.5 -140.5q20 -23 27 -52.5t2 -59.5q-6 -33 -23 -61t-42 -49t-55 -33t-61 -12h-281q-18 0 -26.5 12.5t-6.5 26.5q3 17 16 29t31 12h281q32 0 56.5 22t29.5 53t-13 53q-67 69 -134.5 140 t-133.5 141q-19 22 -26.5 51t-2.5 61q12 63 64 109q55 45 119 45h280q17 0 26.5 -12t4.5 -30q-8 -38 -45 -38h-280z" />
<glyph unicode="T" horiz-adv-x="537" d="M611 755q18 0 26 -12t5 -29q-3 -18 -15 -28.5t-30 -10.5h-174l-113 -636q-3 -18 -16 -28.5t-30 -10.5q-18 0 -27 10.5t-6 28.5l113 636h-177q-17 0 -27 10.5t-7 28.5q3 17 17 29t31 12h430z" />
<glyph unicode="U" horiz-adv-x="676" d="M698 755q18 0 26 -12t5 -29l-77 -441q-10 -56 -40 -106t-73.5 -87t-97 -58.5t-110.5 -21.5t-103 21.5t-77 58.5t-43.5 87t-2.5 106l77 441q3 17 17 29t31 12t26 -12t6 -29l-77 -441q-7 -40 2 -75t30.5 -61.5t54.5 -41.5t73 -15t78 15t69 41.5t53 61.5t29 75l77 441 q3 17 16 29t31 12z" />
<glyph unicode="V" horiz-adv-x="689" d="M752 752q17 -6 21 -19.5t-7 -31.5q-89 -165 -181 -337.5t-181 -337.5q-8 -12 -18.5 -19t-24.5 -7h-50q-26 0 -33 18l-125 680q-3 38 31 54q19 5 31.5 -2t17.5 -21l118 -642l346 642q8 14 24.5 21t31.5 2h-1z" />
<glyph unicode="W" horiz-adv-x="966" d="M1000 754q19 -4 24.5 -17.5t-1.5 -31.5l-285 -674q-6 -14 -18.5 -22.5t-26.5 -8.5h-52q-15 0 -24.5 8t-9.5 23q-5 69 -9 131.5t-8.5 123.5t-9 124t-8.5 133q-55 -129 -109.5 -254.5t-110.5 -255.5q-17 -33 -44 -33h-54q-31 0 -33 31q-11 167 -24 336.5t-24 337.5h1 q-2 18 8.5 31.5t27.5 17.5v-1q18 5 30.5 -4.5t12.5 -23.5l40 -636q69 159 137 318t137 318q13 30 45 30q13 0 21.5 -8.5t9.5 -21.5l36 -635q67 159 132 313t133 314q8 17 24 28.5t33 7.5z" />
<glyph unicode="X" horiz-adv-x="670" d="M606 60q5 -14 0 -28t-21 -25q-16 -10 -31.5 -6t-23.5 17l-148 291q-63 -74 -126 -146t-127 -146q-11 -13 -29 -16.5t-29 6.5q-12 11 -12 25t10 28l277 318q-41 78 -81 157t-80 157q-7 14 -2 30.5t22 26.5l-2 -1q15 8 31 5.5t23 -16.5l149 -289q63 72 125.5 144.5 t125.5 144.5q10 13 27.5 16t28.5 -5q11 -10 12 -26t-10 -30l-274 -314z" />
<glyph unicode="Y" horiz-adv-x="593" d="M677 748q12 -10 12 -26t-11 -30l-282 -326l-58 -327q-3 -18 -16.5 -28.5t-30.5 -10.5t-27 10.5t-7 28.5l58 326q-3 3 -3 5q-42 80 -82 160.5t-81 161.5v-1q-8 14 -2 31t22 28q14 7 29 3.5t24 -17.5l148 -287q63 72 125 144t125 144q11 13 27.5 16.5t29.5 -4.5v-1z" />
<glyph unicode="Z" horiz-adv-x="545" d="M620 643q-124 -139 -251.5 -281.5t-250.5 -281.5h370q18 0 26.5 -12t5.5 -29q-3 -18 -15.5 -28.5t-30.5 -10.5h-418q-13 0 -27 11q-10 17 -8 28l8 45q5 6 6 10q2 2 2.5 4t4.5 6q124 140 253.5 285.5t253.5 285.5h-374q-15 0 -26.5 10.5t-8.5 28.5q3 17 18.5 29t30.5 12 h418q17 0 25 -13q6 -7 7.5 -13.5t-0.5 -14.5l-8 -48q-2 -8 -4 -13t-7 -10z" />
<glyph unicode="[" horiz-adv-x="293" d="M298 673q-19 0 -35 -14t-19 -35l-90 -509q-4 -20 7 -33.5t30 -13.5h55q18 0 27 -10.5t6 -28.5q-3 -17 -15.5 -27.5t-30.5 -10.5h-55q-26 0 -47 9.5t-34.5 26.5t-19.5 39.5t-1 48.5l90 509q4 27 18 50t33.5 40t44 26.5t50.5 9.5h55q18 0 26.5 -10.5t5.5 -28.5 q-3 -17 -15.5 -27.5t-30.5 -10.5h-55z" />
<glyph unicode="\" horiz-adv-x="319" d="M278 2q-17 -5 -29 1.5t-17 23.5l-103 710q-1 14 9.5 29.5t26.5 21.5q18 3 30.5 -4.5t14.5 -22.5l-1 1l104 -710q4 -18 -8 -32.5t-27 -18.5v1z" />
<glyph unicode="]" horiz-adv-x="294" d="M235 750q26 0 47 -9.5t34.5 -26.5t19 -40t1.5 -50l-90 -509q-5 -26 -18.5 -48.5t-33 -39.5t-44 -26.5t-50.5 -9.5h-56q-15 0 -25 10.5t-7 27.5q3 18 16.5 28.5t28.5 10.5h56q20 0 36 13.5t20 33.5l90 509q3 21 -8 35t-31 14h-56q-15 0 -25 10.5t-7 27.5q3 18 17 28.5 t29 10.5h56z" />
<glyph unicode="^" horiz-adv-x="452" d="M491 468q-16 -12 -31 -8.5t-22 16.5l1 -1q-29 43 -54 79.5t-54 80.5q-41 -40 -81.5 -80t-82.5 -80q-15 -13 -29.5 -16t-25.5 9q-11 9 -10 25t15 30q48 49 100 100t101 101q17 13 31 13q17 0 28 -14l131 -201q7 -13 2 -29t-19 -25z" />
<glyph unicode="_" horiz-adv-x="474" d="M374 77q14 0 24.5 -10.5t7.5 -27.5q-3 -18 -17 -28.5t-28 -10.5h-262q-17 0 -26.5 10.5t-6.5 28.5q3 17 16 27.5t30 10.5h262z" />
<glyph unicode="`" horiz-adv-x="265" d="M304 769q-14 -12 -29 -12.5t-25 9.5l-30 37q-11 13 -7 28t18 27q12 11 28.5 11t25.5 -12q4 -5 14.5 -17.5t13.5 -17.5q11 -13 7.5 -27.5t-16.5 -25.5z" />
<glyph unicode="a" d="M369 492q23 0 44.5 -9t35.5 -26q29 -37 20 -87l-59 -331q-3 -18 -15 -28.5t-29 -10.5q-14 0 -23.5 6t-11.5 17q-43 -23 -90 -23h-46q-34 0 -62 12.5t-46.5 34.5t-26 52t-1.5 64q12 67 68 115q26 23 58.5 35.5t66.5 12.5h102q14 0 23 8h-1q9 8 11 23l3 13q2 10 0.5 18 t-7.5 14q-8 12 -28 12h-178q-17 0 -26.5 11t-6.5 28q4 18 17 28.5t30 10.5h178zM317 102q30 24 36 61l16 87q-7 -2 -14 -2.5t-15 -0.5h-102q-36 0 -64.5 -24t-35.5 -60q-6 -35 14.5 -60.5t55.5 -25.5h46q17 0 33.5 6.5t29.5 18.5z" />
<glyph unicode="b" horiz-adv-x="453" d="M320 492q39 0 74 -15t58 -44q25 -28 33 -65t1 -77l-16 -91q-8 -40 -28.5 -77t-55.5 -66v1q-33 -27 -72.5 -42.5t-79.5 -15.5h-113l-19 -1q-6 0 -14 3.5t-13 8.5q-7 13 -5 27l117 665q4 18 16 28.5t30 10.5t27 -10.5t5 -28.5l-37 -211h92zM407 291q9 52 -20 88 q-30 35 -81 35h-92l-59 -337h92q50 0 93 37q21 17 33.5 39.5t17.5 46.5z" />
<glyph unicode="c" horiz-adv-x="399" d="M310 414q-24 0 -47 -9.5t-41.5 -25t-31.5 -37t-17 -45.5l-18 -102q-5 -24 0.5 -45.5t19 -37.5t33 -25.5t43.5 -9.5h85q17 0 26 -10.5t6 -27.5q-3 -18 -15.5 -28.5t-29.5 -10.5h-85q-41 0 -74.5 15t-55 41.5t-30.5 62t-2 76.5l18 102q7 40 28.5 75.5t52.5 62t69.5 42 t79.5 15.5h85q17 0 26.5 -10.5t5.5 -28.5q-3 -17 -16 -28t-30 -11h-85z" />
<glyph unicode="d" horiz-adv-x="454" d="M380 39q-1 -6 -3 -12.5t-13 -15.5q-12 -11 -28 -11l-132 1q-42 0 -75.5 16t-56 43t-31.5 63.5t-2 78.5l16 90q7 42 29.5 78.5t54 63.5t70.5 43t81 16h93l38 212q3 17 15.5 27.5t30.5 10.5q17 0 25.5 -10.5t5.5 -27.5zM117 202q-5 -26 1 -48t19.5 -39t34 -26.5t45.5 -9.5 h93l60 336h-93q-25 0 -49 -10t-43.5 -26.5t-33.5 -39t-18 -47.5z" />
<glyph unicode="e" d="M329 492q82 0 129 -58q23 -27 31.5 -62.5t1.5 -74.5l-8 -46q-3 -17 -16.5 -28.5t-30.5 -11.5h-274l-3 -16q-5 -24 0.5 -45.5t19 -37.5t33.5 -25.5t44 -9.5h103q17 0 25.5 -10.5t5.5 -27.5q-3 -18 -15 -28.5t-29 -10.5h-103q-41 0 -74 15t-55 41.5t-31 62t-2 76.5l18 102 q14 82 82 138v-1q33 29 71 43.5t77 14.5zM412 297q8 47 -20 83q-27 34 -77 34q-49 0 -88 -34q-21 -17 -33.5 -38.5t-16.5 -44.5l-2 -8h235z" />
<glyph unicode="f" horiz-adv-x="366" d="M456 741q17 0 27 -10.5t6 -28.5q-3 -17 -16 -27.5t-30 -10.5h-102q-18 0 -35 -7t-31 -19t-24 -27.5t-13 -33.5l-15 -85h163q17 0 26.5 -10.5t5.5 -28.5q-3 -17 -16 -28t-30 -11h-163l-66 -375q-3 -18 -15 -28.5t-29 -10.5t-27 10.5t-7 28.5l95 538q6 34 24.5 64t44.5 52 t58.5 35t66.5 13h102z" />
<glyph unicode="g" horiz-adv-x="499" d="M430 29q-7 -41 -29 -76t-54 -61.5t-70.5 -41.5t-78.5 -15h-119q-15 0 -25 10.5t-7 27.5q3 18 17 28.5t29 10.5h119q24 0 47 9t42 25t32 37.5t18 45.5l1 9q-54 -38 -124 -38q-39 0 -72.5 15t-54.5 42l-1 -1q-23 27 -31.5 63.5t-1.5 75.5l18 102q7 39 28 74.5t54 62.5h-1 q32 29 70.5 43.5t77.5 14.5q33 0 61.5 -10.5t49.5 -28.5q4 18 16 28.5t30 10.5q17 0 27 -10.5t6 -28.5zM241 77q24 0 47 9.5t42 25.5t32 37.5t18 45.5l18 102q4 24 -2 45.5t-19.5 37t-33 25t-43.5 9.5q-46 0 -90 -35l1 1q-20 -17 -32 -38.5t-16 -44.5l-18 -102 q-9 -47 18 -83q32 -35 78 -35z" />
<glyph unicode="h" d="M346 492q40 0 73.5 -15.5t55.5 -42t31 -62t2 -75.5l-46 -258q-3 -18 -15.5 -28.5t-29.5 -10.5q-15 0 -26 10.5t-8 28.5l46 258q4 24 -1.5 45.5t-18.5 37t-33 25t-44 9.5q-45 0 -89 -35l1 1q-20 -17 -32.5 -38.5t-16.5 -44.5l-46 -259q-2 -15 -16 -27t-31 -12 q-14 0 -24 12t-8 27l117 665q4 18 18 28.5t28 10.5q17 0 27 -10.5t6 -28.5l-44 -251q29 19 60.5 29.5t63.5 10.5z" />
<glyph unicode="i" horiz-adv-x="179" d="M173 520q-17 0 -25.5 11.5t-5.5 28.5q3 18 15.5 28.5t29.5 10.5t26.5 -10.5t6.5 -28.5q-3 -17 -16.5 -28.5t-30.5 -11.5zM129 40q-4 -18 -17 -28.5t-30 -10.5q-39 0 -31 39l72 413q4 18 16 28.5t29 10.5t27 -10.5t6 -28.5z" />
<glyph unicode="j" horiz-adv-x="275" d="M275 520q-19 0 -27 11.5t-5 28.5q3 18 15 28.5t31 10.5q17 0 25.5 -10.5t5.5 -28.5q-3 -17 -15.5 -28.5t-29.5 -11.5zM227 29q-7 -41 -29 -76t-53 -61.5t-69 -41.5t-78 -15q-18 0 -26.5 10.5t-5.5 27.5q3 18 15.5 28.5t29.5 10.5q24 0 47 9t42 25t32 37.5t18 45.5l74 424 q4 18 15.5 28.5t30.5 10.5q17 0 26 -10.5t5 -28.5z" />
<glyph unicode="k" horiz-adv-x="435" d="M422 55v1q6 -14 -2 -30t-24 -24q-15 -6 -30 -1t-20 19l-98 312h-49l-52 -293q-3 -18 -14.5 -28.5t-30.5 -10.5q-17 0 -26 10.5t-6 28.5l117 663q4 18 16 28.5t29 10.5q19 0 27.5 -10.5t4.5 -28.5l-51 -293h61q29 19 59 38t59 38q14 8 30 6t22 -13q6 -15 1 -32.5 t-20 -25.5v1q-27 -17 -49 -31t-50 -32z" />
<glyph unicode="l" horiz-adv-x="214" d="M230 742q14 0 24.5 -10.5t6.5 -28.5l-116 -663q-4 -18 -17.5 -28.5t-27.5 -10.5q-18 0 -28 10.5t-6 28.5l116 663q4 18 17 28.5t31 10.5z" />
<glyph unicode="m" horiz-adv-x="815" d="M645 492q33 0 61 -13t46.5 -35t26.5 -52t2 -64l-51 -289q-3 -18 -16 -28.5t-30 -10.5t-26.5 10.5t-6.5 28.5l51 289q3 18 -1 33.5t-13.5 27t-24 18.5t-32.5 7h-38q-18 0 -34.5 -7t-30 -18.5t-23 -27t-12.5 -33.5l-51 -289q-3 -18 -17 -28.5t-28 -10.5q-17 0 -27 10.5 t-7 28.5l51 289q3 18 -1 33.5t-13.5 27t-24 18.5t-32.5 7h-39q-35 0 -63 -24.5t-36 -59.5l-52 -291q-3 -18 -16 -28.5t-30 -10.5t-26 10.5t-6 28.5l73 414q4 18 16 28.5t29 10.5q27 0 34 -26q43 26 91 26h39q38 0 67.5 -16t48.5 -42q27 26 61.5 42t72.5 16h38z" />
<glyph unicode="n" horiz-adv-x="531" d="M377 492q34 0 61.5 -13t46 -35t26.5 -52t2 -64l-51 -289q-3 -18 -16.5 -28.5t-27.5 -10.5q-18 0 -28 10.5t-7 28.5l51 289q3 18 -1 33.5t-13.5 27t-24 18.5t-32.5 7h-62q-18 0 -34 -6.5t-29.5 -18t-23 -27t-13.5 -32.5l-52 -291q-3 -18 -15.5 -28.5t-29.5 -10.5t-27 10.5 t-7 28.5l73 414q4 18 17 28.5t30 10.5q28 0 33 -25q44 25 92 25h62z" />
<glyph unicode="o" horiz-adv-x="500" d="M457 434q23 -27 31.5 -62.5t1.5 -74.5l-18 -102q-7 -41 -28.5 -76.5t-53 -62t-70 -41.5t-78.5 -15q-41 0 -74 15t-54.5 41.5t-30.5 62t-2 76.5l18 102q7 39 28 74.5t53 62.5h-1q32 29 71 43.5t78 14.5q40 0 73 -14.5t56 -43.5zM255 77q24 0 47 9.5t42 25.5t32.5 37.5 t18.5 45.5l18 102q8 47 -20 83q-28 34 -79 34q-46 0 -88 -34q-20 -17 -32.5 -38.5t-16.5 -44.5l-18 -102q-5 -24 0.5 -45.5t19 -37.5t33 -25.5t43.5 -9.5z" />
<glyph unicode="p" horiz-adv-x="483" d="M346 492q39 0 72.5 -14.5t55.5 -42.5q26 -28 33.5 -63t0.5 -75l-18 -102q-7 -41 -28.5 -76.5t-52.5 -62t-69.5 -41.5t-79.5 -15q-32 0 -61 9.5t-50 27.5l-29 -164q-3 -17 -16 -27.5t-30 -10.5t-26.5 10.5t-6.5 27.5l102 580q4 18 17 28.5t30 10.5t26.5 -10.5t5.5 -28.5 q59 39 124 39zM430 297q4 22 -1.5 44t-17.5 39h1q-30 34 -80 34q-48 0 -88 -34q-20 -17 -32.5 -38.5t-16.5 -44.5l-18 -102q-5 -24 0.5 -45.5t19 -37.5t33 -25.5t43.5 -9.5q25 0 48 9.5t41.5 25.5t31.5 37.5t18 45.5z" />
<glyph unicode="q" horiz-adv-x="482" d="M378 -127q-3 -17 -15.5 -27.5t-29.5 -10.5q-18 0 -26.5 10.5t-5.5 27.5l29 165q-56 -38 -124 -38q-41 0 -74 15t-55 41.5t-31 62t-2 76.5l18 102q7 39 28 74.5t53 62.5q32 29 70.5 43.5t78.5 14.5q33 0 61 -10.5t50 -28.5q4 18 16 28.5t30 10.5q17 0 26 -10.5t5 -28.5z M219 77q24 0 47 9.5t42 25.5t32 37.5t18 45.5l18 102q4 24 -2 45.5t-19.5 37t-33 25t-43.5 9.5q-47 0 -89 -34q-20 -17 -32.5 -38.5t-16.5 -44.5l-18 -102q-5 -24 0.5 -45.5t19 -37.5t33.5 -25.5t44 -9.5z" />
<glyph unicode="r" horiz-adv-x="329" d="M376 492q17 0 26 -10.5t5 -28.5q-3 -17 -15.5 -28t-29.5 -11h-64q-17 0 -33 -6t-30 -18q-30 -27 -36 -60l-52 -291q-3 -18 -16 -28.5t-30 -10.5q-14 0 -25 10.5t-8 28.5l73 414q4 18 18 28.5t28 10.5t22.5 -6.5t11.5 -17.5q43 24 91 24h64z" />
<glyph unicode="s" horiz-adv-x="404" d="M358 188q27 -32 20 -80q-9 -44 -47 -76q-37 -32 -82 -32h-184q-17 0 -26 10.5t-6 28.5q3 17 15.5 27.5t29.5 10.5h184q6 0 13 3.5t14 6.5q5 5 6.5 10.5t3.5 10.5q1 7 -0.5 12.5t-3.5 11.5q-42 42 -84 85.5t-83 86.5q-28 32 -20 80q4 22 16.5 42t29.5 35q35 32 83 32h160 q17 0 27 -10.5t7 -27.5q-4 -19 -17 -29.5t-30 -10.5h-160q-15 0 -25 -9q-9 -9 -12 -22q-1 -7 -1 -12.5t4 -8.5q0 -1 42.5 -44.5t125.5 -130.5z" />
<glyph unicode="t" horiz-adv-x="334" d="M309 77q15 0 25 -10.5t7 -27.5q-3 -18 -16.5 -28.5t-28.5 -10.5h-44q-41 0 -74.5 15t-55.5 41.5t-31 62t-2 76.5l89 507q4 18 17 28.5t30 10.5q15 0 25.5 -10.5t6.5 -28.5l-37 -210h129q17 0 26.5 -10.5t5.5 -28.5q-3 -17 -16 -28t-30 -11h-129l-38 -219 q-5 -24 0.5 -45.5t18.5 -37.5t33 -25.5t45 -9.5h44z" />
<glyph unicode="u" horiz-adv-x="517" d="M441 39q-3 -18 -16.5 -28.5t-27.5 -10.5t-23.5 6.5t-11.5 17.5q-41 -24 -91 -24h-48q-34 0 -62 12.5t-46.5 35t-26.5 52t-2 64.5l51 289q4 18 17.5 28.5t28.5 10.5q17 0 26.5 -10.5t5.5 -28.5l-51 -289q-3 -18 1.5 -33.5t14 -27.5t24 -19t32.5 -7h48q17 0 33.5 6.5 t30.5 18t23.5 26.5t12.5 32l51 293q4 18 17.5 28.5t30.5 10.5q14 0 24.5 -10.5t6.5 -28.5z" />
<glyph unicode="v" horiz-adv-x="477" d="M498 489q12 -8 15.5 -21t-4.5 -32l-222 -410q-12 -26 -41 -26h-30q-29 0 -34 26l-76 410q-3 38 38 56q15 2 27 -4.5t13 -25.5l-1 2q9 -49 17 -92t16 -85t16 -85.5t17 -92.5q47 88 95.5 177.5t96.5 177.5q9 18 23 24t30 3z" />
<glyph unicode="w" horiz-adv-x="668" d="M655 491q17 -4 22.5 -19t-0.5 -29l-175 -413q-14 -30 -44 -30h-32q-31 0 -33 30q-2 36 -4 66l-4 60t-4 61t-4 69q-28 -65 -56 -129l-56 -128q-17 -29 -43 -29h-31q-30 0 -35 29l-29 414q-2 15 8.5 29.5t27.5 18.5q17 3 29.5 -6t14.5 -23q3 -47 6 -86t5.5 -76.5t5.5 -76.5 t6 -86q35 81 69.5 161.5t69.5 162.5q18 31 45 31q13 0 21.5 -8.5t9.5 -21.5l22 -320q34 79 66.5 156.5t66.5 157.5q9 16 24 27t31 8z" />
<glyph unicode="x" horiz-adv-x="471" d="M406 62q4 -14 -1 -31.5t-19 -26.5q-15 -8 -31 -4t-21 18v-1q-22 43 -40.5 79t-40.5 80q-36 -42 -70 -80t-70 -79l2 1q-11 -14 -28 -17.5t-28 5.5q-12 9 -13 25.5t11 30.5l159 183q-24 46 -47.5 93t-48.5 92q-5 14 1 28.5t21 23.5q14 8 30 6.5t24 -17.5l-1 1 q11 -22 21 -41l20 -38l20 -38t21 -41q34 39 68.5 79t68.5 79l-1 -1q11 15 27.5 17t28.5 -6q12 -9 12 -24.5t-11 -29.5l-158 -183z" />
<glyph unicode="y" horiz-adv-x="490" d="M531 489q13 -8 14.5 -23t-6.5 -30l-375 -581q-10 -14 -26.5 -20t-29.5 2h1q-16 8 -17.5 23t9.5 35l128 196q-28 87 -55.5 172t-54.5 172q-5 17 3.5 31t24.5 24q16 8 28.5 1.5t17.5 -21.5l93 -291q48 72 94 145t94 146q11 15 27 21t30 -2z" />
<glyph unicode="z" horiz-adv-x="421" d="M346 77q18 0 26.5 -10.5t5.5 -27.5q-3 -18 -15 -28.5t-30 -10.5h-256q-22 0 -27 12q-11 11 -8 27l7 35l4 8q2 6 9 13q75 83 144.5 159.5t144.5 159.5h-202q-17 0 -27 11t-7 28q4 18 17.5 28.5t30.5 10.5h256q17 0 27 -13q8 -11 5 -26l-5 -31q-2 -7 -4 -12t-7 -10 q-75 -84 -145.5 -161t-147.5 -162h204z" />
<glyph unicode="|" horiz-adv-x="214" d="M243 817q17 0 26 -11.5t6 -28.5l-144 -814q-3 -17 -16 -27.5t-30 -10.5t-26.5 10.5t-6.5 27.5l144 814q3 17 16.5 28.5t30.5 11.5z" />
<glyph unicode="~" horiz-adv-x="626" d="M587 469q3 -10 2.5 -21.5t-2.5 -23.5q-4 -27 -22 -53l1 1q-13 -21 -36 -38.5t-45 -25.5q-11 -4 -22.5 -5.5t-22.5 -1.5q-37 0 -65.5 20.5t-36.5 56.5q-3 25 -18 33l1 -1q-8 3 -17 4.5t-20 -2.5h1q-18 -7 -31 -24.5t-11 -36.5q3 -16 -6.5 -29.5t-21.5 -17.5 q-16 -6 -29.5 0.5t-16.5 21.5q-4 20 -1 42q8 39 35 71t64 47q27 8 50 8q31 0 51 -13h-1q44 -24 50 -70q2 -20 18.5 -27t36.5 -1q18 6 29 21v-1q4 8 6 19t2 20q-2 14 7 30t26 21q14 4 27.5 -1.5t17.5 -22.5z" />
<glyph unicode="&#xa3;" horiz-adv-x="524" d="M455 196q13 -8 14 -23.5t-9 -29.5q-3 -4 -12.5 -14t-25 -20t-37.5 -17.5t-49 -7.5q-9 0 -19.5 0.5t-18.5 2.5t-16 3.5t-17 3.5q-2 1 -4 1t-4 1q-26 6 -43 6q-11 0 -22.5 -2t-28.5 -8l-5 -3h-5q-6 -2 -11 -2q-14 0 -23.5 8t-10.5 22l1 -1q-3 16 9 31.5t27 18.5q1 0 3 2h8 q12 5 22 10t22 16q17 14 28.5 34t15.5 41l2 14h-97q-14 0 -22.5 10.5t-5.5 26.5q2 13 14.5 24.5t26.5 11.5h54q-5 8 -9 17t-7 18h-32q-14 0 -22.5 10.5t-5.5 25.5q2 16 14.5 26.5t26.5 10.5h12l2 8q6 37 26.5 71t51.5 59q30 26 66 40t71 14t66.5 -13.5t54.5 -39.5 q10 -11 7.5 -27.5t-17.5 -27.5t-30.5 -11t-23.5 12q-28 30 -70 30q-43 0 -79 -30q-38 -33 -45 -77q-2 -6 -2 -8h135q16 0 25 -10.5t7 -26.5q-3 -15 -16 -25.5t-29 -10.5h-96q6 -9 10 -18t7 -17h73q16 0 25 -11.5t7 -24.5q-3 -16 -16 -26.5t-29 -10.5h-50l-2 -14 q-5 -26 -15.5 -50.5t-25.5 -44.5q4 -1 8 -1h7l32 -7q16 -3 28.5 -2t21.5 4t14.5 7t9.5 7q9 14 25 18t28 -4z" />
<glyph unicode="&#xa5;" horiz-adv-x="593" d="M601 656q11 -8 11 -22.5t-9 -28.5l-154 -178h29q17 0 24.5 -10.5t4.5 -25.5q-3 -18 -14 -28.5t-28 -10.5h-75l-7 -40h75q35 0 29 -37q-3 -15 -14 -25.5t-28 -10.5h-75l-22 -121q-2 -16 -16.5 -27.5t-31.5 -11.5q-13 0 -22.5 11.5t-7.5 27.5l22 121h-75q-14 0 -23.5 10.5 t-6.5 25.5q3 17 16 27t27 10h75l7 40h-75q-14 0 -23.5 10.5t-6.5 28.5q3 15 16 25.5t27 10.5h28q-23 44 -46.5 89.5t-46.5 88.5q-5 14 2 29t21 23q14 9 30 6.5t22 -16.5l-1 1q28 -56 52.5 -103t53.5 -102q44 51 89 102.5t90 102.5l-1 -1q11 14 27.5 16.5t30.5 -7.5z" />
<glyph unicode="&#xa7;" horiz-adv-x="597" d="M350 746q-24 0 -43 -18q-11 -8 -18 -18.5t-9 -21.5t1 -21t9 -19q4 -3 12.5 -12t17.5 -18q11 -11 22 -23q29 -29 57 -58.5t55 -58.5l67 -71h-1q20 -20 26.5 -46.5t1.5 -55.5q-7 -38 -33.5 -70t-60.5 -49q5 -6 11.5 -13.5t12.5 -13.5h-1q20 -20 26.5 -46t1.5 -55 t-20.5 -53.5t-37 -43.5t-48 -29.5t-54.5 -10.5h-138q-59 0 -90 42q-17 19 -21.5 43t0.5 52q3 18 15.5 28.5t30.5 10.5q19 0 26 -10.5t4 -28.5q-2 -11 0.5 -22.5t8.5 -20.5v1q13 -18 39 -18h138q23 0 43 18t25 42q2 13 -1.5 23.5t-11.5 20.5q-4 3 -15 14.5t-23 23.5 q-14 14 -31 32l-108 114l-50 51q-35 44 -25 104q5 27 19.5 53.5t38.5 44.5q17 13 37 22q-6 7 -12 14.5t-13 14.5h1q-20 20 -26 44.5t-1 53.5t19.5 52t37.5 43q45 39 101 39h139q55 0 89 -39q34 -41 25 -95q-3 -17 -17.5 -28.5t-28.5 -11.5q-20 0 -28 11.5t-5 28.5 q3 24 -11 40q-15 18 -37 18h-139zM458 350q-2 2 -13.5 13t-24.5 24q-15 14 -33 32q-11 13 -22 27q-10 12 -22 26t-25 27h-12q-23 0 -44 -19q-9 -7 -16.5 -18t-9.5 -21q-3 -23 10 -42q4 -3 12.5 -12t17.5 -18q11 -11 22 -24l34 -36q14 -15 29.5 -31.5t27.5 -27.5h14 q23 0 42.5 16t23.5 39q2 14 -1 25t-10 22v-2z" />
<glyph unicode="&#xa9;" horiz-adv-x="678" d="M420 269q15 0 25.5 -11t7.5 -27q-2 -15 -16.5 -25.5t-29.5 -10.5h-51q-28 0 -51 10.5t-38 28.5t-21 42.5t-1 52.5l14 85q5 28 20 53t36.5 43.5t48 29t54.5 10.5h51q15 0 25.5 -12.5t8.5 -25.5q-3 -15 -17 -25t-29 -10h-51q-26 0 -47.5 -19t-26.5 -44l-14 -85 q-5 -25 10 -42.5t41 -17.5h51zM445 658q59 0 106.5 -22.5t79 -61t44.5 -90.5t3 -112q-11 -59 -42 -111t-76.5 -91t-101 -61.5t-114.5 -22.5t-107.5 22.5t-80.5 61.5t-45.5 91t-2.5 111q10 60 42 112t77.5 90.5t102 61t115.5 22.5zM358 156q44 0 85.5 17t76 46.5t58 68.5 t31.5 83q8 45 -2 85t-34 69t-59.5 46t-79.5 17q-46 0 -89 -17t-77.5 -46t-58.5 -69t-32 -85q-8 -44 2 -83t34.5 -68.5t61.5 -46.5t83 -17z" />
<glyph unicode="&#xab;" horiz-adv-x="479" d="M363 559q11 -14 4.5 -29.5t-20.5 -23.5l1 1q-50 -37 -92.5 -68.5t-91.5 -68.5l136 -136q11 -13 11 -26.5t-14 -27.5q-11 -12 -27.5 -14t-28.5 9q-42 40 -85.5 83t-85.5 83q-11 17 -8 29q3 17 19 30l229 166q14 9 30.5 7.5t23.5 -14.5h-1zM513 559q11 -14 5 -29.5 t-20 -23.5l1 1q-51 -37 -93.5 -68.5t-91.5 -68.5q35 -34 68.5 -68t68.5 -68q11 -13 10.5 -26.5t-14.5 -27.5q-11 -12 -27 -14t-28 9q-42 40 -85.5 83t-85.5 83q-11 16 -8 29q3 18 19 30l229 166q14 9 30 7.5t23 -14.5h-1z" />
<glyph unicode="&#xad;" horiz-adv-x="423" d="M399 409q14 0 24 -10.5t7 -28.5q-3 -17 -17 -27.5t-28 -10.5h-249q-17 0 -27 10.5t-7 27.5q3 18 17 28.5t31 10.5h249z" />
<glyph unicode="&#xae;" horiz-adv-x="662" d="M490 258q5 -13 -2.5 -25t-18.5 -18q-36 -16 -47 12v-1q-13 26 -24 49.5t-23 49.5h-33l-15 -83q-2 -14 -15 -23.5t-25 -9.5q-14 0 -23.5 9.5t-7.5 23.5l47 265q2 11 15.5 23t27.5 12h87q21 0 40 -9.5t30 -23.5l-2 1q16 -15 21 -35t1 -43q-4 -22 -16.5 -42t-32.5 -34l2 2 l-5 -3q-5 -5 -9.5 -9t-10.5 -7zM354 394h53q17 0 30 11q15 16 17 27q1 7 -1.5 14t-7.5 12q-9 15 -24 15h-53zM439 658q58 0 105.5 -22.5t79 -61t44.5 -90.5t3 -112q-11 -59 -42 -111t-76.5 -91t-101 -61.5t-113.5 -22.5q-59 0 -107.5 22.5t-81 61.5t-46.5 91t-3 111 q10 60 42.5 112t78.5 90.5t102.5 61t115.5 22.5zM351 156q44 0 85.5 17t76 46.5t58 68.5t31.5 83q8 45 -2 85t-34 69t-59.5 46t-79.5 17q-46 0 -89 -17t-77.5 -46t-58.5 -69t-32 -85q-8 -44 2 -83t34.5 -68.5t61.5 -46.5t83 -17z" />
<glyph unicode="&#xb0;" horiz-adv-x="225" d="M218 705q-36 0 -57 25q-19 27 -13 59q3 18 12 33t22.5 26.5t30 18t34.5 6.5q17 0 31 -6.5t24 -18t14 -26.5t1 -33q-3 -17 -13 -31t-22 -27q-30 -26 -64 -26zM236 807q-8 0 -15 -5t-8 -13q-2 -6 6 -15q2 -2 11 -2q8 0 12 4q8 6 9 13q1 8 -3.5 13t-11.5 5z" />
<glyph unicode="&#xba;" horiz-adv-x="234" d="M249 749q-35 0 -57 25q-18 25 -12 60q3 17 12 32t22.5 26.5t29.5 18t34 6.5q34 0 55 -24t15 -59q-3 -17 -12.5 -31.5t-22.5 -27.5q-31 -26 -64 -26zM267 852q-8 0 -14.5 -5.5t-7.5 -12.5q-2 -8 5 -15q1 -3 10 -3t14 4q5 5 8 14q1 7 -3 12.5t-12 5.5z" />
<glyph unicode="&#xbb;" horiz-adv-x="472" d="M362 399q4 -5 6.5 -13t0.5 -16q-3 -15 -15 -28l-233 -167q-14 -11 -28.5 -9t-24.5 14q-8 12 -4 26.5t19 27.5l185 136q-35 34 -68.5 68t-68.5 69l1 -1q-11 10 -11 25.5t14 28.5q14 12 28.5 13t25.5 -7zM513 399q3 -5 6 -13t1 -16q-3 -14 -16 -28l-233 -167 q-13 -11 -28 -9t-25 14q-8 12 -3.5 26.5t19.5 27.5l184 136l-68 68t-68 69l1 -1q-11 10 -11 25.5t13 28.5q14 12 29 13t26 -7z" />
<glyph unicode="&#xbf;" horiz-adv-x="414" d="M404 654q-14 0 -24.5 10.5t-6.5 28.5q3 17 16.5 27.5t27.5 10.5q18 0 27.5 -10.5t6.5 -27.5q-4 -18 -16.5 -28.5t-30.5 -10.5zM177 0q-38 0 -69 14t-51 38.5t-28.5 57.5t-1.5 72q7 38 27 71.5t49 58t64.5 39t73.5 14.5q30 0 56 20l-1 -2q12 12 20.5 25.5t11.5 30.5l10 57 q3 18 17 29.5t28 11.5q18 0 27 -11.5t6 -29.5l-10 -57q-5 -31 -21.5 -59t-41.5 -49q-53 -45 -116 -45q-21 0 -41.5 -8t-37 -22.5t-28 -33.5t-15.5 -40t1 -40.5t16.5 -33.5t29 -22.5t38.5 -8.5h187q18 0 26.5 -10.5t5.5 -27.5q-3 -18 -15 -28.5t-30 -10.5h-187z" />
<glyph unicode="&#xc0;" horiz-adv-x="690" d="M517 802q-15 -12 -30.5 -12.5t-26.5 9.5l-29 38q-11 13 -7.5 28.5t18.5 27.5q12 11 29.5 11t25.5 -12q2 -3 6 -8t8.5 -10.5t9 -10l6.5 -6.5q11 -13 7 -28.5t-17 -26.5zM649 53q2 -15 -7.5 -30t-26.5 -21h1q-17 -6 -30.5 2t-15.5 25l-1 -1q-9 55 -18 104.5t-18 105.5h-319 q-27 -54 -54 -105t-55 -105q-9 -14 -25 -22.5t-30 -3.5q-14 6 -19 21t4 31v-1q87 169 174.5 336.5t175.5 337.5q16 28 42 28h75q27 0 33 -28zM521 318q-16 91 -32 178.5t-30 178.5h-16q-48 -91 -92.5 -177.5t-92.5 -179.5h263z" />
<glyph unicode="&#xc1;" horiz-adv-x="690" d="M442 802q-10 12 -7.5 27.5t14.5 28.5l43 36q16 13 31.5 12t25.5 -13q8 -11 5.5 -27.5t-16.5 -27.5l-41 -36q-16 -13 -31.5 -12t-23.5 12zM649 53q2 -15 -7.5 -30t-26.5 -21h1q-17 -6 -30.5 2t-15.5 25l-1 -1q-9 55 -18 104.5t-18 105.5h-319q-27 -54 -54 -105t-55 -105 q-9 -14 -25 -22.5t-30 -3.5q-14 6 -19 21t4 31v-1q87 169 174.5 336.5t175.5 337.5q16 28 42 28h75q27 0 33 -28zM521 318q-16 91 -32 178.5t-30 178.5h-16q-48 -91 -92.5 -177.5t-92.5 -179.5h263z" />
<glyph unicode="&#xc2;" horiz-adv-x="690" d="M507 802q-10 12 -7.5 27.5t14.5 28.5l43 36q16 13 31.5 12t25.5 -13q8 -11 5.5 -27.5t-16.5 -27.5l-41 -36q-16 -13 -31.5 -12t-23.5 12zM435 802q-14 -12 -29.5 -12.5t-26.5 9.5l-29 38q-11 13 -7.5 28.5t17.5 27.5q13 11 30.5 11t25.5 -12q2 -3 6 -8t8.5 -10.5t8.5 -10 t6 -6.5q11 -13 7.5 -28.5t-17.5 -26.5zM649 53q2 -15 -7.5 -30t-26.5 -21h1q-17 -6 -30.5 2t-15.5 25l-1 -1q-9 55 -18 104.5t-18 105.5h-319q-27 -54 -54 -105t-55 -105q-9 -14 -25 -22.5t-30 -3.5q-14 6 -19 21t4 31v-1q87 169 174.5 336.5t175.5 337.5q16 28 42 28h75 q27 0 33 -28zM521 318q-16 91 -32 178.5t-30 178.5h-16q-48 -91 -92.5 -177.5t-92.5 -179.5h263z" />
<glyph unicode="&#xc3;" horiz-adv-x="690" d="M382 794q-15 -6 -29.5 0.5t-19.5 21.5q-5 17 0 35q5 29 26.5 52t50.5 33q18 5 33 5q21 0 37 -7q13 -9 23.5 -24.5t14.5 -29.5q2 -6 8.5 -8.5t14.5 0.5q7 0 11 7l-1 -1q5 5 3 13l-1 -2q-5 16 3 30t22 19q15 5 31 -0.5t20 -22.5q0 -16 -3 -34t-14 -35h1q-11 -17 -27 -29 t-36 -17q-38 -11 -69.5 4t-38.5 52v-1q0 5 -4 8q-2 1 -6 2t-8 -1q-7 -2 -11.5 -8t-3.5 -13q2 -14 -6.5 -29t-22.5 -20h2zM649 53q2 -15 -7.5 -30t-26.5 -21h1q-17 -6 -30.5 2t-15.5 25l-1 -1q-9 55 -18 104.5t-18 105.5h-319q-27 -54 -54 -105t-55 -105q-9 -14 -25 -22.5 t-30 -3.5q-14 6 -19 21t4 31v-1q87 169 174.5 336.5t175.5 337.5q16 28 42 28h75q27 0 33 -28zM521 318q-16 91 -32 178.5t-30 178.5h-16q-48 -91 -92.5 -177.5t-92.5 -179.5h263z" />
<glyph unicode="&#xc4;" horiz-adv-x="698" d="M287 794q2 17 16 28.5t31 11.5t26 -11.5t7 -28.5q-3 -17 -17 -28.5t-31 -11.5t-26 11.5t-6 28.5zM591 794q2 17 16 28.5t31 11.5t26 -11.5t7 -28.5q-3 -17 -17 -28.5t-31 -11.5t-26 11.5t-6 28.5zM649 53q2 -15 -7.5 -30t-26.5 -21h1q-17 -6 -30.5 2t-15.5 25l-1 -1 q-9 55 -18 104.5t-18 105.5h-319q-27 -54 -54 -105t-55 -105q-9 -14 -25 -22.5t-30 -3.5q-14 6 -19 21t4 31v-1q87 169 174.5 336.5t175.5 337.5q16 28 42 28h75q27 0 33 -28zM521 318q-16 91 -32 178.5t-30 178.5h-16q-48 -91 -92.5 -177.5t-92.5 -179.5h263z" />
<glyph unicode="&#xc5;" horiz-adv-x="679" d="M649 53q2 -15 -7.5 -30t-26.5 -21h1q-17 -6 -30.5 2t-15.5 25l-1 -1q-9 55 -18 104.5t-18 105.5h-319q-27 -54 -54 -105t-55 -105q-9 -14 -25 -22.5t-30 -3.5q-14 6 -19 21t4 31v-1q87 169 174.5 336.5t175.5 337.5q16 28 42 28h75q27 0 33 -28zM521 318 q-16 91 -32 178.5t-30 178.5h-16q-48 -91 -92.5 -177.5t-92.5 -179.5h263zM471 792q-35 0 -58 26q-19 27 -13 60q7 35 36 60t65 25q17 0 31.5 -6.5t24 -18t13.5 -27t1 -33.5q-3 -17 -12.5 -31.5t-21.5 -27.5q-32 -27 -66 -27zM489 896q-8 0 -14.5 -5t-8.5 -13q-1 -6 6 -15 q0 -3 11 -3q7 0 13 5q7 5 8 13q2 8 -3 13t-12 5z" />
<glyph unicode="&#xc7;" horiz-adv-x="500" d="M460 79q18 0 27 -10.5t6 -28.5q-4 -17 -16.5 -29t-30.5 -12h-85q-3 0 -5 -6v-1l7 -5q32 0 50.5 -22t12.5 -57q-6 -34 -32.5 -56.5t-58.5 -22.5h-43q-15 0 -23.5 10.5t-5.5 25.5q2 15 14.5 26t27.5 11h43q6 0 6 6q2 8 -3 8q-15 0 -30 6.5t-27 17.5q-8 8 -11 22t0 31l2 10 q-42 6 -83 26.5t-65 52.5h1q-67 80 -47 193l36 206q10 57 40.5 107t74 87t97.5 58.5t111 21.5h130q18 0 26.5 -11t5.5 -29q-3 -17 -16 -29t-31 -12h-130q-40 0 -78 -15.5t-68.5 -41.5t-52 -61t-28.5 -75l-36 -206q-7 -40 0.5 -75.5t30.5 -60.5q22 -29 55 -44.5t72 -15.5h130 v0z" />
<glyph unicode="&#xc8;" horiz-adv-x="554" d="M489 812q-14 -12 -29.5 -12.5t-26.5 9.5l-29 38q-11 13 -7.5 28.5t17.5 27.5q13 11 30 11t26 -12q1 -3 5 -8t8.5 -10.5t8.5 -10t6 -6.5q11 -13 7.5 -28.5t-16.5 -26.5zM262 675l-40 -224h320q17 0 26.5 -11.5t6.5 -28.5t-16.5 -28.5t-30.5 -11.5h-320l-51 -291h365 q17 0 26 -12t6 -29q-3 -18 -16 -28.5t-30 -10.5h-405q-17 0 -26.5 10.5t-6.5 28.5l119 675q3 17 16.5 29t30.5 12h405q17 0 26 -12t6 -29q-3 -18 -16 -28.5t-30 -10.5h-365z" />
<glyph unicode="&#xc9;" horiz-adv-x="554" d="M419 807q-10 12 -7.5 27.5t14.5 27.5l44 37q15 13 30.5 12t25.5 -13q9 -11 6.5 -28t-17.5 -28l-41 -35q-15 -13 -31 -12t-24 12zM262 675l-40 -224h320q17 0 26.5 -11.5t6.5 -28.5t-16.5 -28.5t-30.5 -11.5h-320l-51 -291h365q17 0 26 -12t6 -29q-3 -18 -16 -28.5 t-30 -10.5h-405q-17 0 -26.5 10.5t-6.5 28.5l119 675q3 17 16.5 29t30.5 12h405q17 0 26 -12t6 -29q-3 -18 -16 -28.5t-30 -10.5h-365z" />
<glyph unicode="&#xca;" horiz-adv-x="554" d="M492 802q-10 12 -7.5 27.5t14.5 28.5l44 36q15 13 30.5 12t25.5 -13q8 -11 5.5 -27.5t-16.5 -27.5l-41 -36q-16 -13 -31.5 -12t-23.5 12zM420 802q-14 -12 -29.5 -12.5t-26.5 9.5l-29 38q-11 13 -7.5 28.5t18.5 27.5q12 11 29.5 11t25.5 -12q2 -3 6 -8t8.5 -10.5t8.5 -10 t6 -6.5q11 -13 7.5 -28.5t-17.5 -26.5zM262 675l-40 -224h320q17 0 26.5 -11.5t6.5 -28.5t-16.5 -28.5t-30.5 -11.5h-320l-51 -291h365q17 0 26 -12t6 -29q-3 -18 -16 -28.5t-30 -10.5h-405q-17 0 -26.5 10.5t-6.5 28.5l119 675q3 17 16.5 29t30.5 12h405q17 0 26 -12t6 -29 q-3 -18 -16 -28.5t-30 -10.5h-365z" />
<glyph unicode="&#xcb;" horiz-adv-x="554" d="M401 873q17 0 27 -10.5t7 -28.5q-4 -18 -17 -28.5t-30 -10.5q-18 0 -27 10.5t-5 28.5q3 18 15 28.5t30 10.5zM554 873q17 0 27 -10.5t7 -28.5q-4 -18 -17 -28.5t-30 -10.5q-18 0 -27 10.5t-5 28.5q3 18 15 28.5t30 10.5zM262 675l-40 -224h320q17 0 26.5 -11.5t6.5 -28.5 t-16.5 -28.5t-30.5 -11.5h-320l-51 -291h365q17 0 26 -12t6 -29q-3 -18 -16 -28.5t-30 -10.5h-405q-17 0 -26.5 10.5t-6.5 28.5l119 675q3 17 16.5 29t30.5 12h405q17 0 26 -12t6 -29q-3 -18 -16 -28.5t-30 -10.5h-365z" />
<glyph unicode="&#xcc;" horiz-adv-x="214" d="M270 802q-14 -12 -29.5 -12.5t-26.5 9.5l-30 38q-11 13 -7 28.5t18 27.5q12 11 29.5 11t26.5 -12q1 -3 5 -8t8.5 -10.5t9 -10l6.5 -6.5q11 -13 7 -28.5t-17 -26.5zM232 755q17 0 26.5 -12t6.5 -29l-119 -675q-3 -18 -16.5 -28.5t-30.5 -10.5t-27 10.5t-7 28.5l119 675 q3 17 17 29t31 12z" />
<glyph unicode="&#xcd;" horiz-adv-x="214" d="M214 802q-10 12 -7.5 27.5t14.5 28.5l44 36q15 13 30.5 12t25.5 -13q8 -11 5.5 -27.5t-16.5 -27.5l-41 -36q-15 -13 -31 -12t-24 12zM233 755q17 0 26 -12t6 -29l-119 -675q-3 -18 -16 -28.5t-30 -10.5t-27 10.5t-7 28.5l119 675q3 17 17 29t31 12z" />
<glyph unicode="&#xce;" horiz-adv-x="214" d="M268 802q-11 12 -8.5 27.5t15.5 28.5l43 36q15 13 30.5 12t25.5 -13q9 -11 6.5 -27.5t-16.5 -27.5l-42 -36q-15 -13 -30.5 -12t-23.5 12zM225 802q-15 -12 -30.5 -12.5t-26.5 9.5l-29 38q-11 13 -7.5 28.5t18.5 27.5q12 11 29.5 11t25.5 -12q2 -3 6 -8t8.5 -10.5t9 -10 l6.5 -6.5q11 -13 7 -28.5t-17 -26.5zM233 755q17 0 26 -12t6 -29l-119 -675q-3 -18 -16 -28.5t-30 -10.5t-27 10.5t-7 28.5l119 675q3 17 17 29t31 12z" />
<glyph unicode="&#xcf;" horiz-adv-x="214" d="M204 873q17 0 27 -10.5t7 -28.5q-4 -18 -17 -28.5t-30 -10.5q-18 0 -27 10.5t-5 28.5q3 18 15 28.5t30 10.5zM300 873q17 0 27 -10.5t7 -28.5q-4 -18 -17 -28.5t-30 -10.5q-18 0 -27.5 10.5t-5.5 28.5q3 18 15.5 28.5t30.5 10.5zM233 755q17 0 26 -12t6 -29l-119 -675 q-3 -18 -16 -28.5t-30 -10.5t-27 10.5t-7 28.5l119 675q3 17 17 29t31 12z" />
<glyph unicode="&#xd1;" horiz-adv-x="687" d="M700 755q17 0 26 -12.5t6 -29.5l-118 -672q-3 -17 -16.5 -29t-30.5 -12h-61q-24 0 -32 23q-54 160 -106.5 323t-105.5 323l-110 -628q-3 -17 -15.5 -29t-28.5 -12q-19 0 -29 12t-7 29l118 672q3 17 17.5 29.5t33.5 12.5h58q12 0 21 -5.5t13 -17.5l-1 1 q53 -163 105.5 -324.5t105.5 -323.5l111 628q3 17 15.5 29.5t30.5 12.5zM413 784q-15 -6 -29 0.5t-19 21.5q-4 16 -1 35q5 29 26.5 52t50.5 33q18 5 34 5q20 0 36 -7q13 -9 23.5 -24.5t14.5 -29.5q2 -6 8.5 -8.5t14.5 0.5q6 0 12 7l-1 -1q1 2 2 5.5t0 7.5l-1 -2q-5 16 3 30 t22 19q15 5 31 -0.5t20 -22.5q0 -16 -3 -34t-14 -35h1q-11 -17 -27 -29t-36 -17q-19 -5 -37 -4t-32.5 8.5t-24.5 20.5t-13 31l-1 -1q0 6 -4 8q-2 1 -6 2t-8 -1q-6 -2 -11 -8t-4 -13q2 -14 -6.5 -29t-22.5 -20h2z" />
<glyph unicode="&#xd2;" horiz-adv-x="660" d="M456 755q112 0 180 -80q32 -39 43 -89t1 -105l-36 -208q-10 -56 -40.5 -106t-74 -87t-96.5 -58.5t-110 -21.5t-103 21.5t-77 58.5t-43.5 87t-2.5 106l36 208q10 57 40.5 106.5t74 87t97.5 59t111 21.5zM601 481q7 38 -1.5 73t-32.5 63q-46 58 -125 58q-40 0 -78 -15.5 t-69 -41.5t-52.5 -61.5t-28.5 -75.5l-36 -208q-7 -40 2 -75t30.5 -61.5t54 -41.5t72.5 -15t78 15t69 41.5t52.5 61.5t28.5 75zM505 792q-14 -12 -29.5 -12.5t-26.5 9.5l-30 38q-11 13 -7 28.5t18 27.5q13 11 30 11t25 -12q2 -3 6 -8t9 -10.5t9 -10t6 -6.5q11 -13 7 -28.5 t-17 -26.5z" />
<glyph unicode="&#xd3;" horiz-adv-x="660" d="M421 792q-11 12 -8.5 27.5t15.5 28.5l43 36q15 13 30.5 12t26.5 -13q9 -11 6 -27.5t-17 -27.5l-42 -36q-15 -13 -30.5 -12t-23.5 12zM456 755q112 0 180 -80q32 -39 43 -89t1 -105l-36 -208q-10 -56 -40.5 -106t-74 -87t-96.5 -58.5t-110 -21.5t-103 21.5t-77 58.5 t-43.5 87t-2.5 106l36 208q10 57 40.5 106.5t74 87t97.5 59t111 21.5zM601 481q7 38 -1.5 73t-32.5 63q-46 58 -125 58q-40 0 -78 -15.5t-69 -41.5t-52.5 -61.5t-28.5 -75.5l-36 -208q-7 -40 2 -75t30.5 -61.5t54 -41.5t72.5 -15t78 15t69 41.5t52.5 61.5t28.5 75z" />
<glyph unicode="&#xd4;" horiz-adv-x="660" d="M500 792q-10 12 -7.5 27.5t14.5 28.5l43 36q16 13 31.5 12t25.5 -13q9 -11 6 -27.5t-17 -27.5l-41 -36q-16 -13 -31.5 -12t-23.5 12zM428 792q-14 -12 -29.5 -12.5t-25.5 9.5l-30 38q-11 13 -7.5 28.5t17.5 27.5q14 11 31 11t25 -12q2 -3 6 -8t8.5 -10.5t8.5 -10t6 -6.5 q11 -13 7.5 -28.5t-17.5 -26.5zM456 755q112 0 180 -80q32 -39 43 -89t1 -105l-36 -208q-10 -56 -40.5 -106t-74 -87t-96.5 -58.5t-110 -21.5t-103 21.5t-77 58.5t-43.5 87t-2.5 106l36 208q10 57 40.5 106.5t74 87t97.5 59t111 21.5zM601 481q7 38 -1.5 73t-32.5 63 q-46 58 -125 58q-40 0 -78 -15.5t-69 -41.5t-52.5 -61.5t-28.5 -75.5l-36 -208q-7 -40 2 -75t30.5 -61.5t54 -41.5t72.5 -15t78 15t69 41.5t52.5 61.5t28.5 75z" />
<glyph unicode="&#xd5;" horiz-adv-x="660" d="M382 794q-16 -6 -30 0.5t-19 21.5q-5 17 0 35q5 29 26 52t50 33q9 2 17 3.5t17 1.5q21 0 37 -7q13 -9 23 -24.5t15 -29.5q2 -6 8.5 -8.5t14.5 0.5q7 0 10 7l-1 -1q5 5 3 13l-1 -2q-4 16 4 30t22 19q15 5 31 -0.5t20 -22.5q0 -16 -3 -34t-15 -35h1q-21 -35 -62 -46 q-19 -5 -37 -4t-32.5 8.5t-25 20.5t-13.5 31v-1q0 5 -5 8q-1 1 -5 2t-8 -1q-17 -5 -15 -21q2 -14 -6.5 -29t-22.5 -20h2zM456 755q112 0 180 -80q32 -39 43 -89t1 -105l-36 -208q-10 -56 -40.5 -106t-74 -87t-96.5 -58.5t-110 -21.5t-103 21.5t-77 58.5t-43.5 87t-2.5 106 l36 208q10 57 40.5 106.5t74 87t97.5 59t111 21.5zM601 481q7 38 -1.5 73t-32.5 63q-46 58 -125 58q-40 0 -78 -15.5t-69 -41.5t-52.5 -61.5t-28.5 -75.5l-36 -208q-7 -40 2 -75t30.5 -61.5t54 -41.5t72.5 -15t78 15t69 41.5t52.5 61.5t28.5 75z" />
<glyph unicode="&#xd6;" horiz-adv-x="665" d="M272 794q2 17 15.5 28.5t30.5 11.5t26 -11.5t7 -28.5q-3 -17 -16.5 -28t-30.5 -11t-26 11t-6 28zM581 794q2 17 15.5 28.5t30.5 11.5t26 -11.5t7 -28.5q-3 -17 -16.5 -28t-30.5 -11t-26 11t-6 28zM456 755q112 0 180 -80q32 -39 43 -89t1 -105l-36 -208 q-10 -56 -40.5 -106t-74 -87t-96.5 -58.5t-110 -21.5t-103 21.5t-77 58.5t-43.5 87t-2.5 106l36 208q10 57 40.5 106.5t74 87t97.5 59t111 21.5zM601 481q7 38 -1.5 73t-32.5 63q-46 58 -125 58q-40 0 -78 -15.5t-69 -41.5t-52.5 -61.5t-28.5 -75.5l-36 -208q-7 -40 2 -75 t30.5 -61.5t54 -41.5t72.5 -15t78 15t69 41.5t52.5 61.5t28.5 75z" />
<glyph unicode="&#xd7;" horiz-adv-x="405" d="M379 232q8 -14 1.5 -28.5t-17.5 -21.5q-14 -8 -27.5 -5.5t-20.5 15.5q-18 35 -32.5 64t-32.5 64q-26 -31 -55.5 -64.5t-55.5 -63.5l3 2q-11 -14 -26 -17.5t-25 4.5q-11 8 -12 22.5t10 28.5q35 40 65.5 75t64.5 75q-20 36 -40 74.5t-39 74.5q-5 14 1.5 27.5t20.5 20.5 q12 8 25 5.5t20 -15.5q18 -35 32.5 -63.5t31.5 -63.5q27 31 55.5 63.5t54.5 63.5q11 13 24.5 14.5t25.5 -6.5l-1 2q14 -7 13.5 -21.5t-12.5 -29.5l-130 -145z" />
<glyph unicode="&#xd8;" horiz-adv-x="660" d="M713 746q11 -10 10 -28t-10 -29q-13 -14 -25 -26t-26 -28q17 -33 22.5 -71.5t-1.5 -78.5l-37 -212q-10 -57 -40.5 -106.5t-74 -86.5t-96.5 -58.5t-110 -21.5q-49 0 -90 17t-71 43q-10 -11 -19.5 -21.5t-18.5 -22.5q-11 -12 -27.5 -16t-29.5 8q-11 8 -10.5 25.5t14.5 29.5 q13 16 23 27.5t23 28.5q-17 33 -22.5 71.5t2.5 82.5l37 212q10 55 40 104t73.5 86t97.5 58.5t111 21.5q49 0 88.5 -15.5t71.5 -44.5q9 11 16.5 19.5t16.5 18.5q14 13 30.5 17.5t30.5 -3.5zM178 273q-5 -23 -3.5 -42.5t7.5 -38.5q98 112 191 218.5t190 218.5q-22 23 -53 35 t-66 12q-40 0 -78.5 -15.5t-69.5 -42t-52.5 -61t-28.5 -72.5zM603 485q4 20 3 39t-6 38q-98 -111 -190.5 -218t-189.5 -218q22 -22 52.5 -33t66.5 -11q40 0 77.5 15t68.5 41t52.5 60.5t28.5 74.5z" />
<glyph unicode="&#xd9;" horiz-adv-x="676" d="M698 755q18 0 26 -12t5 -29l-77 -441q-10 -56 -40 -106t-73.5 -87t-97 -58.5t-110.5 -21.5t-103 21.5t-77 58.5t-43.5 87t-2.5 106l77 441q3 17 17 29t31 12t26 -12t6 -29l-77 -441q-7 -40 2 -75t30.5 -61.5t54.5 -41.5t73 -15t78 15t69 41.5t53 61.5t29 75l77 441 q3 17 16 29t31 12zM503 782q-14 -12 -29 -12.5t-26 9.5l-30 38q-11 13 -7.5 28.5t17.5 27.5q13 11 30 11t26 -12q1 -3 5.5 -8t9 -10.5t8.5 -10t6 -6.5q11 -13 7 -28.5t-17 -26.5z" />
<glyph unicode="&#xda;" horiz-adv-x="676" d="M698 755q18 0 26 -12t5 -29l-77 -441q-10 -56 -40 -106t-73.5 -87t-97 -58.5t-110.5 -21.5t-103 21.5t-77 58.5t-43.5 87t-2.5 106l77 441q3 17 17 29t31 12t26 -12t6 -29l-77 -441q-7 -40 2 -75t30.5 -61.5t54.5 -41.5t73 -15t78 15t69 41.5t53 61.5t29 75l77 441 q3 17 16 29t31 12zM438 782q-10 12 -7.5 27.5t14.5 28.5l44 36q16 13 31 12t25 -13q9 -11 6.5 -27.5t-16.5 -27.5l-43 -36q-15 -13 -30.5 -12t-23.5 12z" />
<glyph unicode="&#xdb;" horiz-adv-x="676" d="M698 755q18 0 26 -12t5 -29l-77 -441q-10 -56 -40 -106t-73.5 -87t-97 -58.5t-110.5 -21.5t-103 21.5t-77 58.5t-43.5 87t-2.5 106l77 441q3 17 17 29t31 12t26 -12t6 -29l-77 -441q-7 -40 2 -75t30.5 -61.5t54.5 -41.5t73 -15t78 15t69 41.5t53 61.5t29 75l77 441 q3 17 16 29t31 12zM508 782q-10 12 -7.5 27.5t14.5 28.5l44 36q15 13 30 12t26 -13q9 -11 6.5 -27.5t-16.5 -27.5l-43 -36q-15 -13 -30.5 -12t-23.5 12zM436 782q-14 -12 -29 -12.5t-26 9.5l-30 38q-11 13 -7.5 28.5t17.5 27.5q14 11 30.5 11t25.5 -12q1 -3 5.5 -8t9 -10.5 t8.5 -10t6 -6.5q11 -13 7 -28.5t-17 -26.5z" />
<glyph unicode="&#xdc;" horiz-adv-x="676" d="M362 813q3 17 16 28.5t30 11.5t26.5 -11.5t6.5 -28.5t-16.5 -28t-30.5 -11t-26 11t-6 28zM515 813q3 17 16 28.5t30 11.5t26.5 -11.5t6.5 -28.5t-16.5 -28t-30.5 -11t-26 11t-6 28zM698 755q18 0 26 -12t5 -29l-77 -441q-10 -56 -40 -106t-73.5 -87t-97 -58.5 t-110.5 -21.5t-103 21.5t-77 58.5t-43.5 87t-2.5 106l77 441q3 17 17 29t31 12t26 -12t6 -29l-77 -441q-7 -40 2 -75t30.5 -61.5t54.5 -41.5t73 -15t78 15t69 41.5t53 61.5t29 75l77 441q3 17 16 29t31 12z" />
<glyph unicode="&#xdd;" horiz-adv-x="593" d="M400 782q-10 12 -7.5 27.5t14.5 28.5l44 36q15 13 30 12t26 -13q9 -11 6.5 -27.5t-16.5 -27.5l-43 -36q-15 -13 -30.5 -12t-23.5 12zM677 748q12 -10 12 -26t-11 -30l-282 -326l-58 -327q-3 -18 -16.5 -28.5t-30.5 -10.5t-27 10.5t-7 28.5l58 326q-3 3 -3 5 q-42 80 -82 160.5t-81 161.5v-1q-8 14 -2 31t22 28q14 7 29 3.5t24 -17.5l148 -287q63 72 125 144t125 144q11 13 27.5 16.5t29.5 -4.5v-1z" />
<glyph unicode="&#xdf;" horiz-adv-x="565" d="M523 551q-6 -35 -23.5 -65.5t-43.5 -55.5q48 -20 71 -65.5t13 -102.5l-14 -77q-7 -39 -27.5 -73t-49.5 -58.5t-65 -39t-73 -14.5h-71q-14 0 -24.5 11.5t-7.5 28.5q2 16 17 28.5t29 12.5h71q21 0 41.5 8t37.5 22t28.5 33t15.5 41l14 77q4 22 -1.5 41t-17.5 33t-29.5 22.5 t-38.5 8.5h-68q-17 0 -26 12t-7 27q3 17 16.5 28t30.5 11q22 0 42.5 8.5t37.5 22.5t28.5 33.5t15.5 41.5l1 9q4 21 -1 40t-16.5 33.5t-29 22.5t-39.5 8t-42 -8t-36.5 -22.5t-27.5 -33.5t-15 -40l-91 -520q-3 -17 -16.5 -28.5t-30.5 -11.5q-15 0 -25 11.5t-7 28.5l91 520 q7 38 27 71t49 58t64.5 39t72.5 14q38 0 69 -14t51.5 -39t29 -58t1.5 -71l-1 -9v0z" />
<glyph unicode="&#xe0;" d="M369 492q23 0 44.5 -9t35.5 -26q29 -37 20 -87l-59 -331q-3 -18 -15 -28.5t-29 -10.5q-14 0 -23.5 6t-11.5 17q-43 -23 -90 -23h-46q-34 0 -62 12.5t-46.5 34.5t-26 52t-1.5 64q12 67 68 115q26 23 58.5 35.5t66.5 12.5h102q14 0 23 8h-1q9 8 11 23l3 13q2 10 0.5 18 t-7.5 14q-8 12 -28 12h-178q-17 0 -26.5 11t-6.5 28q4 18 17 28.5t30 10.5h178zM317 102q30 24 36 61l16 87q-7 -2 -14 -2.5t-15 -0.5h-102q-36 0 -64.5 -24t-35.5 -60q-6 -35 14.5 -60.5t55.5 -25.5h46q17 0 33.5 6.5t29.5 18.5zM296 653q14 12 28.5 12.5t25.5 -9.5l30 -37 q11 -13 7 -28t-18 -27q-13 -11 -30 -11t-25 12q-4 4 -14.5 17t-13.5 18q-11 12 -7 27t17 26z" />
<glyph unicode="&#xe1;" d="M302 565q-10 12 -7.5 27t14.5 27l42 36q15 13 30.5 12t25.5 -13q8 -11 5.5 -27t-16.5 -27l-41 -35q-15 -13 -30 -12t-23 12zM369 492q23 0 44.5 -9t35.5 -26q29 -37 20 -87l-59 -331q-3 -18 -15 -28.5t-29 -10.5q-14 0 -23.5 6t-11.5 17q-43 -23 -90 -23h-46 q-34 0 -62 12.5t-46.5 34.5t-26 52t-1.5 64q12 67 68 115q26 23 58.5 35.5t66.5 12.5h102q14 0 23 8h-1q9 8 11 23l3 13q2 10 0.5 18t-7.5 14q-8 12 -28 12h-178q-17 0 -26.5 11t-6.5 28q4 18 17 28.5t30 10.5h178zM317 102q30 24 36 61l16 87q-7 -2 -14 -2.5t-15 -0.5h-102 q-36 0 -64.5 -24t-35.5 -60q-6 -35 14.5 -60.5t55.5 -25.5h46q17 0 33.5 6.5t29.5 18.5z" />
<glyph unicode="&#xe2;" d="M421 549q-16 -12 -30.5 -8.5t-21.5 16.5l1 -1q-14 21 -24.5 35t-24.5 35q-18 -18 -36.5 -35.5t-36.5 -34.5q-15 -13 -29.5 -16t-25.5 9q-10 10 -10 25.5t14 29.5l111 111q8 7 16.5 10t14.5 3q16 0 27 -14l72 -111q7 -13 2.5 -28.5t-19.5 -25.5zM355 492q25 0 45.5 -9.5 t34.5 -26t19.5 -39t1.5 -47.5l-59 -331q-3 -18 -15 -28.5t-30 -10.5q-14 0 -22.5 6.5t-10.5 17.5q-45 -24 -92 -24h-47q-34 0 -61.5 12.5t-45.5 34.5t-25.5 52t-1.5 64t24 63.5t44 51.5t57.5 35t65.5 13h104q12 0 22 8.5t12 22.5l3 13q3 19 -7.5 31.5t-29.5 12.5h-178 q-17 0 -26.5 11t-6.5 28q4 18 17 28.5t30 10.5h178zM302 102q31 26 37 61l16 88q-8 -2 -15 -3t-13 -1h-104q-35 0 -63 -24.5t-35 -59.5q-6 -35 13.5 -60.5t54.5 -25.5h47q36 0 63 25h-1z" />
<glyph unicode="&#xe3;" horiz-adv-x="436" d="M225 547q-14 -6 -28 0t-18 21q-4 16 -1 35q5 28 25.5 50.5t48.5 32.5q10 2 18 3.5t16 1.5q11 0 20 -2t17 -5q13 -8 22.5 -23.5t14.5 -29.5q2 -5 8.5 -8t13.5 0q6 1 12 7l-2 -1q5 5 3 13l-1 -2q-5 15 3 29t22 19t30 -0.5t20 -22.5q0 -16 -3 -33.5t-14 -34.5 q-20 -32 -61 -45q-37 -10 -68 5t-37 51v-1q-1 3 -5 7q-2 1 -6 2t-7 -1q-8 -2 -12.5 -7.5t-3.5 -12.5q2 -14 -6 -28.5t-22 -19.5h1zM355 492q25 0 45.5 -9.5t34.5 -26t19.5 -39t1.5 -47.5l-59 -331q-3 -18 -15 -28.5t-30 -10.5q-14 0 -22.5 6.5t-10.5 17.5q-45 -24 -92 -24 h-47q-34 0 -61.5 12.5t-45.5 34.5t-25.5 52t-1.5 64t24 63.5t44 51.5t57.5 35t65.5 13h104q12 0 22 8.5t12 22.5l3 13q3 19 -7.5 31.5t-29.5 12.5h-178q-17 0 -26.5 11t-6.5 28q4 18 17 28.5t30 10.5h178zM302 102q31 26 37 61l16 88q-8 -2 -15 -3t-13 -1h-104 q-35 0 -63 -24.5t-35 -59.5q-6 -35 13.5 -60.5t54.5 -25.5h47q36 0 63 25h-1z" />
<glyph unicode="&#xe4;" horiz-adv-x="449" d="M169 587q3 17 16 28.5t30 11.5t26 -11.5t6 -28.5q-3 -16 -16 -27t-30 -11t-26 11t-6 27zM368 587q3 17 16 28.5t29 11.5q17 0 26.5 -11.5t6.5 -28.5q-3 -16 -16.5 -27t-30.5 -11q-16 0 -25 11t-6 27zM355 492q25 0 45.5 -9.5t34.5 -26t19.5 -39t1.5 -47.5l-59 -331 q-3 -18 -15 -28.5t-30 -10.5q-14 0 -22.5 6.5t-10.5 17.5q-45 -24 -92 -24h-47q-34 0 -61.5 12.5t-45.5 34.5t-25.5 52t-1.5 64t24 63.5t44 51.5t57.5 35t65.5 13h104q12 0 22 8.5t12 22.5l3 13q3 19 -7.5 31.5t-29.5 12.5h-178q-17 0 -26.5 11t-6.5 28q4 18 17 28.5 t30 10.5h178zM302 102q31 26 37 61l16 88q-8 -2 -15 -3t-13 -1h-104q-35 0 -63 -24.5t-35 -59.5q-6 -35 13.5 -60.5t54.5 -25.5h47q36 0 63 25h-1z" />
<glyph unicode="&#xe5;" horiz-adv-x="455" d="M403 39q-3 -18 -16.5 -28.5t-28.5 -10.5q-14 0 -23.5 6t-11.5 17q-43 -23 -90 -23h-47q-34 0 -61.5 12.5t-46 34.5t-26 52t-1.5 64t24 63.5t44 51.5t58 35t66 13h102q13 0 23 8.5t12 22.5l3 13q3 19 -8 31.5t-28 12.5h-179q-18 0 -26.5 11t-5.5 28q4 18 16 28.5t30 10.5 h179q25 0 45.5 -9.5t34.5 -26t19.5 -39t1.5 -47.5zM311 102q26 21 34 52l17 97q-15 -4 -31 -4h-102q-36 0 -64 -24t-35 -60q-6 -35 14 -60.5t55 -25.5h47q35 0 65 25zM322 549q-35 0 -55 24t-14 60q3 17 12 32.5t22.5 27t30 18t34.5 6.5q35 0 55 -24.5t14 -59.5 q-3 -17 -13 -33t-24 -30q-26 -21 -62 -21zM340 651q-8 0 -13.5 -5t-7.5 -13t2.5 -13.5t12.5 -5.5q7 0 16 6l-4 -2q3 4 5.5 7.5t3.5 7.5q2 8 -2.5 13t-12.5 5z" />
<glyph unicode="&#xe6;" horiz-adv-x="771" d="M607 495q77 0 124 -59q23 -29 32.5 -65t2.5 -74l-2 -8q-3 -18 -16 -30.5t-33 -11.5q-40 0 -85 1q-38 0 -86.5 0.5t-99.5 0.5l-9 -53q-8 -49 17 -82t72 -33h126q17 0 26.5 -12.5t7.5 -28.5q-3 -17 -17 -28.5t-31 -11.5h-126q-41 0 -72 16t-53 42q-2 2 -2.5 5t-2.5 5 l-9.5 -9.5t-9.5 -8.5q-29 -23 -60.5 -36.5t-66.5 -13.5h-45q-33 0 -60.5 13t-45.5 35t-25.5 51.5t-1.5 63.5t24 64t43.5 52.5t57.5 35t65 12.5h135l8 43q3 20 -8.5 32.5t-28.5 12.5h-180q-16 0 -25 11.5t-7 25.5q3 18 16.5 30.5t29.5 12.5h180q32 0 57 -16t38 -41 q29 26 66.5 41.5t79.5 15.5zM593 415q-42 0 -78.5 -25t-53.5 -63q31 0 58.5 -0.5t54.5 -1t54.5 -1t59.5 -0.5q-3 17 -9.5 32t-13.5 26v-1q-25 34 -72 34zM314 105q14 13 25 28.5t13 29.5l15 86h-135q-18 0 -34 -6.5t-29 -18.5t-22.5 -27.5t-12.5 -33.5q-6 -35 14 -58.5 t55 -23.5h45q39 0 67 24h-1z" />
<glyph unicode="&#xe7;" horiz-adv-x="399" d="M336 78q18 0 26 -12t5 -27q-2 -16 -14 -27.5t-30 -11.5h-74q-5 0 -5 -4q0 -2 2 -4h3q30 0 50.5 -22.5t14.5 -55.5q-3 -16 -12 -30t-21.5 -24.5t-28 -16.5t-30.5 -6h-41q-16 0 -24.5 10t-5.5 25q3 16 14.5 26.5t27.5 10.5h41q4 0 4 5q2 4 -2 4q-17 0 -30 6.5t-22 16.5 q-18 24 -11 55l2 13q-28 10 -49.5 28.5t-35 43.5t-18.5 54.5t1 62.5l18 102q7 40 29 75.5t53.5 62t70.5 42t80 15.5h86q18 0 26 -11.5t5 -26.5q-3 -17 -15 -28.5t-30 -11.5h-86q-24 0 -47.5 -9.5t-43 -25.5t-33 -37t-17.5 -45l-18 -102q-4 -24 1.5 -46t19 -38.5t34 -26 t44.5 -9.5h86v0z" />
<glyph unicode="&#xe8;" d="M377 573q-14 -12 -29 -12.5t-26 9.5l-29 37q-11 13 -7.5 28.5t17.5 27.5q13 11 29.5 11t25.5 -12q1 -3 5 -8t8.5 -10.5t8.5 -10t6 -6.5q11 -13 7 -28t-16 -26zM329 492q82 0 129 -58q23 -27 31.5 -62.5t1.5 -74.5l-8 -46q-3 -17 -16.5 -28.5t-30.5 -11.5h-274l-3 -16 q-5 -24 0.5 -45.5t19 -37.5t33.5 -25.5t44 -9.5h103q17 0 25.5 -10.5t5.5 -27.5q-3 -18 -15 -28.5t-29 -10.5h-103q-41 0 -74 15t-55 41.5t-31 62t-2 76.5l18 102q14 82 82 138v-1q33 29 71 43.5t77 14.5zM412 297q8 47 -20 83q-27 34 -77 34q-49 0 -88 -34 q-21 -17 -33.5 -38.5t-16.5 -44.5l-2 -8h235z" />
<glyph unicode="&#xe9;" d="M329 492q82 0 129 -58q23 -27 31.5 -62.5t1.5 -74.5l-8 -46q-3 -17 -16.5 -28.5t-30.5 -11.5h-274l-3 -16q-5 -24 0.5 -45.5t19 -37.5t33.5 -25.5t44 -9.5h103q17 0 25.5 -10.5t5.5 -27.5q-3 -18 -15 -28.5t-29 -10.5h-103q-41 0 -74 15t-55 41.5t-31 62t-2 76.5l18 102 q14 82 82 138v-1q33 29 71 43.5t77 14.5zM412 297q8 47 -20 83q-27 34 -77 34q-49 0 -88 -34q-21 -17 -33.5 -38.5t-16.5 -44.5l-2 -8h235zM324 574q-10 12 -7.5 27.5t13.5 27.5l44 35q14 13 29 12t25 -13q9 -11 6.5 -27t-16.5 -27l-41 -35q-15 -13 -30 -12t-23 12z" />
<glyph unicode="&#xea;" d="M457 549q-16 -12 -30.5 -8.5t-21.5 16.5l1 -1q-14 21 -24.5 35t-24.5 35q-18 -18 -36.5 -35.5t-36.5 -34.5q-15 -13 -29.5 -16t-25.5 9q-10 10 -10 25.5t14 29.5l111 111q8 7 16.5 10t14.5 3q16 0 27 -14l71 -111q8 -13 3.5 -28.5t-19.5 -25.5zM329 492q82 0 129 -58 q23 -27 31.5 -62.5t1.5 -74.5l-8 -46q-3 -17 -16.5 -28.5t-30.5 -11.5h-274l-3 -16q-5 -24 0.5 -45.5t19 -37.5t33.5 -25.5t44 -9.5h103q17 0 25.5 -10.5t5.5 -27.5q-3 -18 -15 -28.5t-29 -10.5h-103q-41 0 -74 15t-55 41.5t-31 62t-2 76.5l18 102q14 82 82 138v-1 q33 29 71 43.5t77 14.5zM412 297q8 47 -20 83q-27 34 -77 34q-49 0 -88 -34q-21 -17 -33.5 -38.5t-16.5 -44.5l-2 -8h235z" />
<glyph unicode="&#xeb;" d="M198 587q3 17 16 28.5t29 11.5q17 0 26.5 -11.5t6.5 -28.5q-3 -16 -16.5 -27t-30.5 -11q-16 0 -25 11t-6 27zM415 587q3 17 16 28.5t30 11.5q16 0 25.5 -11.5t6.5 -28.5q-3 -16 -16.5 -27t-29.5 -11q-17 0 -26 11t-6 27zM329 492q82 0 129 -58q23 -27 31.5 -62.5 t1.5 -74.5l-8 -46q-3 -17 -16.5 -28.5t-30.5 -11.5h-274l-3 -16q-5 -24 0.5 -45.5t19 -37.5t33.5 -25.5t44 -9.5h103q17 0 25.5 -10.5t5.5 -27.5q-3 -18 -15 -28.5t-29 -10.5h-103q-41 0 -74 15t-55 41.5t-31 62t-2 76.5l18 102q14 82 82 138v-1q33 29 71 43.5t77 14.5z M412 297q8 47 -20 83q-27 34 -77 34q-49 0 -88 -34q-21 -17 -33.5 -38.5t-16.5 -44.5l-2 -8h235z" />
<glyph unicode="&#xec;" horiz-adv-x="179" d="M203 573q-14 -12 -29 -12.5t-26 9.5l-29 37q-11 13 -7.5 28.5t17.5 27.5q13 11 30 11t25 -12q1 -3 5 -8t8.5 -10.5t8.5 -10t6 -6.5q11 -13 7.5 -28t-16.5 -26zM128 40q-4 -18 -16.5 -28.5t-29.5 -10.5q-40 0 -32 39l72 413q4 18 16 28.5t30 10.5q17 0 26.5 -10.5 t5.5 -28.5z" />
<glyph unicode="&#xed;" horiz-adv-x="179" d="M163 565q-10 12 -7.5 27t15.5 27l42 36q15 13 30.5 12t25.5 -13q8 -11 5.5 -27t-16.5 -27l-41 -35q-15 -13 -30.5 -12t-23.5 12zM130 40q-4 -18 -17 -28.5t-30 -10.5q-39 0 -31 39l72 413q4 18 16 28.5t29 10.5t27 -10.5t6 -28.5z" />
<glyph unicode="&#xee;" horiz-adv-x="179" d="M290 539q-16 -12 -31 -8.5t-21 16.5l1 -1q-14 21 -25 35t-25 35q-18 -18 -36.5 -35.5t-36.5 -34.5q-15 -13 -29 -16t-25 9q-11 10 -11 25.5t14 29.5l111 111q17 13 31 13q15 0 29 -14l70 -111q7 -13 2.5 -28.5t-18.5 -25.5zM129 40q-4 -18 -17 -28.5t-30 -10.5 q-39 0 -31 39l72 413q4 18 16 28.5t29 10.5t27 -10.5t6 -28.5z" />
<glyph unicode="&#xef;" horiz-adv-x="179" d="M99 587q3 17 16 28.5t30 11.5q16 0 25.5 -11.5t6.5 -28.5q-3 -16 -16.5 -27t-29.5 -11q-17 0 -26 11t-6 27zM195 587q3 17 16 28.5t29 11.5q17 0 26.5 -11.5t6.5 -28.5q-3 -16 -16.5 -27t-30.5 -11q-16 0 -25 11t-6 27zM129 40q-4 -18 -17 -28.5t-30 -10.5q-39 0 -31 39 l72 413q4 18 16 28.5t29 10.5t27 -10.5t6 -28.5z" />
<glyph unicode="&#xf1;" horiz-adv-x="531" d="M377 495q33 0 60.5 -13t46 -35.5t26.5 -53t2 -64.5l-51 -289q-3 -17 -16 -28.5t-31 -11.5q-14 0 -24 11.5t-7 28.5l51 289q6 35 -14.5 60.5t-56.5 25.5h-62q-17 0 -34 -6.5t-31 -17.5t-23.5 -26t-12.5 -31l-51 -294q-3 -17 -17 -28.5t-29 -11.5q-18 0 -26.5 11.5 t-5.5 28.5l35 208l15 83l1 3l21 118q3 18 16 30.5t31 12.5q11 0 19.5 -7.5t11.5 -19.5q21 12 44.5 19.5t49.5 7.5h62zM270 548q-14 -5 -28 1t-18 21t-1 35q5 28 26 50.5t49 32.5q18 5 34 5q11 0 19.5 -2t16.5 -5q12 -9 22 -24t15 -29q2 -5 8.5 -8t14.5 0q3 1 5.5 2t5.5 5 l-1 -1q1 2 2 5.5t0 6.5v-1q-5 15 2.5 29t21.5 19t30 -0.5t20 -22.5q0 -16 -3 -33.5t-15 -34.5h1q-20 -33 -61 -45q-37 -10 -67.5 5t-37.5 51v-1q-3 5 -5 7q-2 1 -5.5 2t-8.5 -1q-6 -2 -11 -7.5t-3 -13.5q2 -13 -6.5 -28t-22.5 -20h1z" />
<glyph unicode="&#xf2;" horiz-adv-x="500" d="M377 573q-14 -12 -29.5 -12.5t-26.5 9.5l-28 37q-11 13 -7.5 28.5t17.5 27.5q13 11 29.5 11t24.5 -12q2 -3 6 -8t8.5 -10.5t8.5 -10t6 -6.5q11 -13 7 -28t-16 -26zM443 434q23 -27 32 -62.5t2 -74.5l-18 -102q-7 -41 -28.5 -76.5t-52.5 -62t-69.5 -41.5t-79.5 -15t-74 15 t-55 41.5t-31 62t-2 76.5l18 102q7 39 28.5 74.5t53.5 62.5q33 29 71 43.5t77 14.5q82 0 128 -58zM242 77q24 0 47 9.5t42 25.5t32 37.5t18 45.5l18 102q8 47 -19 83q-30 34 -79 34q-48 0 -88 -34q-20 -17 -32.5 -38.5t-16.5 -44.5l-18 -102q-5 -24 0.5 -45.5t19 -37.5 t33 -25.5t43.5 -9.5z" />
<glyph unicode="&#xf3;" horiz-adv-x="500" d="M312 565q-10 12 -7.5 27t14.5 27l43 36q15 13 30 12t25 -13q8 -11 5.5 -27t-16.5 -27l-41 -35q-14 -13 -29.5 -12t-23.5 12zM443 434q23 -27 32 -62.5t2 -74.5l-18 -102q-7 -41 -28.5 -76.5t-52.5 -62t-69.5 -41.5t-79.5 -15t-74 15t-55 41.5t-31 62t-2 76.5l18 102 q7 39 28.5 74.5t53.5 62.5q33 29 71 43.5t77 14.5q82 0 128 -58zM242 77q24 0 47 9.5t42 25.5t32 37.5t18 45.5l18 102q8 47 -19 83q-30 34 -79 34q-48 0 -88 -34q-20 -17 -32.5 -38.5t-16.5 -44.5l-18 -102q-5 -24 0.5 -45.5t19 -37.5t33 -25.5t43.5 -9.5z" />
<glyph unicode="&#xf4;" horiz-adv-x="500" d="M438 539q-16 -12 -31.5 -8.5t-21.5 16.5l1 -1q-14 21 -24.5 35t-24.5 35q-19 -18 -37 -35.5t-36 -34.5q-15 -13 -29.5 -16t-25.5 9q-11 10 -10.5 25.5t14.5 29.5l111 111q16 13 31 13q16 0 28 -14l70 -111q7 -13 3 -28.5t-18 -25.5zM443 434q23 -27 32 -62.5t2 -74.5 l-18 -102q-7 -41 -28.5 -76.5t-52.5 -62t-69.5 -41.5t-79.5 -15t-74 15t-55 41.5t-31 62t-2 76.5l18 102q7 39 28.5 74.5t53.5 62.5q33 29 71 43.5t77 14.5q82 0 128 -58zM242 77q24 0 47 9.5t42 25.5t32 37.5t18 45.5l18 102q8 47 -19 83q-30 34 -79 34q-48 0 -88 -34 q-20 -17 -32.5 -38.5t-16.5 -44.5l-18 -102q-5 -24 0.5 -45.5t19 -37.5t33 -25.5t43.5 -9.5z" />
<glyph unicode="&#xf5;" horiz-adv-x="491" d="M250 537q-14 -6 -28 0t-19 21q-2 8 -2 17t2 18q5 28 25.5 50.5t49.5 32.5q18 5 34 5q11 0 19.5 -2t15.5 -5q13 -8 23 -23.5t14 -29.5q3 -5 9.5 -8t14.5 0q4 1 10 7l-1 -1q1 2 2 5.5t0 7.5v-2q-5 15 2.5 29t21.5 19q15 5 30.5 -0.5t20.5 -22.5q-1 -16 -4 -33.5t-14 -34.5 h1q-20 -33 -62 -45q-37 -10 -67.5 5t-36.5 51v-1q-2 5 -6 7q-2 1 -5 2t-8 -1q-7 -2 -11.5 -7.5t-2.5 -12.5q1 -14 -7.5 -28.5t-22.5 -19.5h2zM443 434q23 -27 32 -62.5t2 -74.5l-18 -102q-7 -41 -28.5 -76.5t-52.5 -62t-69.5 -41.5t-79.5 -15t-74 15t-55 41.5t-31 62 t-2 76.5l18 102q7 39 28.5 74.5t53.5 62.5q33 29 71 43.5t77 14.5q82 0 128 -58zM242 77q24 0 47 9.5t42 25.5t32 37.5t18 45.5l18 102q8 47 -19 83q-30 34 -79 34q-48 0 -88 -34q-20 -17 -32.5 -38.5t-16.5 -44.5l-18 -102q-5 -24 0.5 -45.5t19 -37.5t33 -25.5t43.5 -9.5z " />
<glyph unicode="&#xf6;" horiz-adv-x="473" d="M185 587q3 17 16 28.5t30 11.5q16 0 25.5 -11.5t6.5 -28.5q-3 -16 -16.5 -27t-29.5 -11q-17 0 -26 11t-6 27zM402 587q3 17 16 28.5t30 11.5t26 -11.5t6 -28.5q-3 -16 -16 -27t-30 -11t-26 11t-6 27zM443 434q23 -27 32 -62.5t2 -74.5l-18 -102q-7 -41 -28.5 -76.5 t-52.5 -62t-69.5 -41.5t-79.5 -15t-74 15t-55 41.5t-31 62t-2 76.5l18 102q7 39 28.5 74.5t53.5 62.5q33 29 71 43.5t77 14.5q82 0 128 -58zM242 77q24 0 47 9.5t42 25.5t32 37.5t18 45.5l18 102q8 47 -19 83q-30 34 -79 34q-48 0 -88 -34q-20 -17 -32.5 -38.5t-16.5 -44.5 l-18 -102q-5 -24 0.5 -45.5t19 -37.5t33 -25.5t43.5 -9.5z" />
<glyph unicode="&#xf7;" horiz-adv-x="447" d="M477 719q10 17 26 20.5t28 -4.5q15 -8 17.5 -21.5t-5.5 -25.5l-461 -668q-10 -14 -26 -19t-30 1q-12 8 -15.5 24t7.5 30v-1q115 167 229.5 332t229.5 332z" />
<glyph unicode="&#xf8;" horiz-adv-x="500" d="M478 195q-7 -39 -29 -74t-54 -64q-69 -57 -148 -57q-31 0 -58.5 9t-47.5 26q-7 -7 -11.5 -12t-9.5 -11q-12 -9 -26.5 -11.5t-26.5 5.5q-11 12 -10.5 28t11.5 30l26 27q-11 23 -13.5 50.5t2.5 53.5l18 102q7 42 28.5 78t53 62.5t70.5 42t81 15.5q31 0 56.5 -7.5 t47.5 -26.5l9.5 9.5t7.5 8.5q29 24 58 9q12 -12 10 -28t-13 -30l-25 -27q9 -23 12.5 -50.5t-1.5 -55.5zM162 195q-3 -14 -1 -31q57 60 108.5 116t109.5 118q-24 18 -59 18q-24 0 -47.5 -9.5t-42.5 -25.5t-32.5 -37.5t-17.5 -46.5zM260 78q24 0 47 9.5t41.5 25.5t32 37 t17.5 45l18 102q3 19 2 34q-57 -61 -109.5 -116t-109.5 -118q14 -8 29 -13.5t32 -5.5z" />
<glyph unicode="&#xf9;" horiz-adv-x="517" d="M396 573q-14 -12 -29 -12.5t-26 9.5l-29 37q-11 13 -7.5 28.5t17.5 27.5q13 11 29.5 11t24.5 -12q2 -3 6 -8t8.5 -10.5t8.5 -10t6 -6.5q11 -13 7 -28t-16 -26zM441 39q-3 -18 -16.5 -28.5t-27.5 -10.5t-23.5 6.5t-11.5 17.5q-41 -24 -91 -24h-48q-34 0 -62 12.5t-46.5 35 t-26.5 52t-2 64.5l51 289q4 18 17.5 28.5t28.5 10.5q17 0 26.5 -10.5t5.5 -28.5l-51 -289q-3 -18 1.5 -33.5t14 -27.5t24 -19t32.5 -7h48q17 0 33.5 6.5t30.5 18t23.5 26.5t12.5 32l51 293q4 18 17.5 28.5t30.5 10.5q14 0 24.5 -10.5t6.5 -28.5z" />
<glyph unicode="&#xfa;" horiz-adv-x="517" d="M322 565q-10 12 -7.5 27t14.5 27l43 36q15 13 30 12t25 -13q8 -11 5.5 -27t-16.5 -27l-41 -35q-14 -13 -29.5 -12t-23.5 12zM441 39q-3 -18 -16.5 -28.5t-27.5 -10.5t-23.5 6.5t-11.5 17.5q-41 -24 -91 -24h-48q-34 0 -62 12.5t-46.5 35t-26.5 52t-2 64.5l51 289 q4 18 17.5 28.5t28.5 10.5q17 0 26.5 -10.5t5.5 -28.5l-51 -289q-3 -18 1.5 -33.5t14 -27.5t24 -19t32.5 -7h48q17 0 33.5 6.5t30.5 18t23.5 26.5t12.5 32l51 293q4 18 17.5 28.5t30.5 10.5q14 0 24.5 -10.5t6.5 -28.5z" />
<glyph unicode="&#xfb;" horiz-adv-x="517" d="M463 539q-16 -12 -31.5 -8.5t-21.5 16.5l1 -1q-14 21 -24.5 35t-24.5 35q-19 -18 -37 -35.5t-36 -34.5q-15 -13 -29.5 -16t-25.5 9q-11 10 -10.5 25.5t14.5 29.5l111 111q16 13 31 13q16 0 28 -14l70 -111q7 -13 3 -28.5t-18 -25.5zM441 39q-3 -18 -16.5 -28.5 t-27.5 -10.5t-23.5 6.5t-11.5 17.5q-41 -24 -91 -24h-48q-34 0 -62 12.5t-46.5 35t-26.5 52t-2 64.5l51 289q4 18 17.5 28.5t28.5 10.5q17 0 26.5 -10.5t5.5 -28.5l-51 -289q-3 -18 1.5 -33.5t14 -27.5t24 -19t32.5 -7h48q17 0 33.5 6.5t30.5 18t23.5 26.5t12.5 32l51 293 q4 18 17.5 28.5t30.5 10.5q14 0 24.5 -10.5t6.5 -28.5z" />
<glyph unicode="&#xfc;" horiz-adv-x="517" d="M209 587q3 17 16 28.5t30 11.5q16 0 25.5 -11.5t6.5 -28.5q-3 -16 -16.5 -27t-29.5 -11q-17 0 -26 11t-6 27zM411 587q3 17 16 28.5t30 11.5t26 -11.5t6 -28.5q-3 -16 -16 -27t-30 -11t-26 11t-6 27zM441 39q-3 -18 -16.5 -28.5t-27.5 -10.5t-23.5 6.5t-11.5 17.5 q-41 -24 -91 -24h-48q-34 0 -62 12.5t-46.5 35t-26.5 52t-2 64.5l51 289q4 18 17.5 28.5t28.5 10.5q17 0 26.5 -10.5t5.5 -28.5l-51 -289q-3 -18 1.5 -33.5t14 -27.5t24 -19t32.5 -7h48q17 0 33.5 6.5t30.5 18t23.5 26.5t12.5 32l51 293q4 18 17.5 28.5t30.5 10.5 q14 0 24.5 -10.5t6.5 -28.5z" />
<glyph unicode="&#xfd;" horiz-adv-x="490" d="M341 565q-10 12 -7.5 27t14.5 27l43 36q15 13 30 12t25 -13q8 -11 5.5 -27t-16.5 -27l-41 -35q-15 -13 -30 -12t-23 12zM531 489q13 -8 14.5 -23t-6.5 -30l-375 -581q-10 -14 -26.5 -20t-29.5 2h1q-16 8 -17.5 23t9.5 35l128 196q-28 87 -55.5 172t-54.5 172 q-5 17 3.5 31t24.5 24q16 8 28.5 1.5t17.5 -21.5l93 -291q48 72 94 145t94 146q11 15 27 21t30 -2z" />
<glyph unicode="&#xff;" horiz-adv-x="490" d="M248 587q3 17 16 28.5t30 11.5q16 0 25.5 -11.5t6.5 -28.5q-3 -16 -16.5 -27t-29.5 -11q-17 0 -26 11t-6 27zM401 587q3 17 16 28.5t30 11.5q16 0 25.5 -11.5t6.5 -28.5q-3 -16 -16.5 -27t-29.5 -11q-17 0 -26 11t-6 27zM531 489q13 -8 14.5 -23t-6.5 -30l-375 -581 q-10 -14 -26.5 -20t-29.5 2h1q-16 8 -17.5 23t9.5 35l128 196q-28 87 -55.5 172t-54.5 172q-5 17 3.5 31t24.5 24q16 8 28.5 1.5t17.5 -21.5l93 -291q48 72 94 145t94 146q11 15 27 21t30 -2z" />
<glyph unicode="&#x178;" horiz-adv-x="593" d="M378 853q17 0 27 -10.5t7 -28.5t-17 -28.5t-31 -10.5q-18 0 -26.5 10.5t-5.5 28.5t15.5 28.5t30.5 10.5zM531 853q17 0 27 -10.5t7 -28.5t-17 -28.5t-31 -10.5q-18 0 -26.5 10.5t-5.5 28.5t15.5 28.5t30.5 10.5zM677 748q12 -10 12 -26t-11 -30l-282 -326l-58 -327 q-3 -18 -16.5 -28.5t-30.5 -10.5t-27 10.5t-7 28.5l58 326q-3 3 -3 5q-42 80 -82 160.5t-81 161.5v-1q-8 14 -2 31t22 28q14 7 29 3.5t24 -17.5l148 -287q63 72 125 144t125 144q11 13 27.5 16.5t29.5 -4.5v-1z" />
<glyph unicode="&#x2c6;" horiz-adv-x="279" d="M353 557q-16 -12 -31.5 -8.5t-21.5 16.5l1 -1q-14 21 -24.5 35t-24.5 35q-19 -18 -37 -35.5t-36 -34.5q-15 -13 -29.5 -16t-25.5 9q-11 10 -10.5 25.5t14.5 29.5q28 27 55.5 55t55.5 56q17 13 31 13q16 0 28 -14l70 -111q7 -13 3 -28.5t-18 -25.5z" />
<glyph unicode="&#x2000;" />
<glyph unicode="&#x2001;" horiz-adv-x="963" />
<glyph unicode="&#x2002;" />
<glyph unicode="&#x2003;" horiz-adv-x="963" />
<glyph unicode="&#x2004;" horiz-adv-x="321" />
<glyph unicode="&#x2005;" horiz-adv-x="240" />
<glyph unicode="&#x2006;" horiz-adv-x="160" />
<glyph unicode="&#x2007;" horiz-adv-x="160" />
<glyph unicode="&#x2008;" horiz-adv-x="120" />
<glyph unicode="&#x2009;" horiz-adv-x="192" />
<glyph unicode="&#x200a;" horiz-adv-x="53" />
<glyph unicode="&#x2010;" horiz-adv-x="423" d="M399 409q14 0 24 -10.5t7 -28.5q-3 -17 -17 -27.5t-28 -10.5h-249q-17 0 -27 10.5t-7 27.5q3 18 17 28.5t31 10.5h249z" />
<glyph unicode="&#x2011;" horiz-adv-x="423" d="M399 409q14 0 24 -10.5t7 -28.5q-3 -17 -17 -27.5t-28 -10.5h-249q-17 0 -27 10.5t-7 27.5q3 18 17 28.5t31 10.5h249z" />
<glyph unicode="&#x2012;" horiz-adv-x="423" d="M399 409q14 0 24 -10.5t7 -28.5q-3 -17 -17 -27.5t-28 -10.5h-249q-17 0 -27 10.5t-7 27.5q3 18 17 28.5t31 10.5h249z" />
<glyph unicode="&#x2013;" horiz-adv-x="404" d="M395 409q14 0 24 -10.5t7 -28.5q-3 -17 -17 -27.5t-28 -10.5h-249q-17 0 -27 10.5t-7 27.5q3 18 17 28.5t31 10.5h249z" />
<glyph unicode="&#x2014;" horiz-adv-x="473" d="M421 409q14 0 24.5 -10.5t7.5 -28.5q-3 -17 -17.5 -27.5t-28.5 -10.5h-249q-17 0 -26.5 10.5t-6.5 27.5q3 18 16.5 28.5t30.5 10.5h249z" />
<glyph unicode="&#x2022;" horiz-adv-x="341" d="M192 283q-36 0 -57 25q-19 27 -13 59q3 18 12.5 33t23 26.5t30 18t34.5 6.5q34 0 54 -24.5t14 -59.5q-3 -17 -12 -31t-21 -27q-30 -26 -65 -26zM210 385q-8 0 -14.5 -5t-8.5 -13q0 -6 6 -15q0 -2 11 -2q6 0 13 4q4 3 5 6t2 7q2 8 -2.5 13t-11.5 5z" />
<glyph unicode="&#x202f;" horiz-adv-x="192" />
<glyph unicode="&#x2039;" horiz-adv-x="303" d="M371 559q11 -14 4.5 -29.5t-20.5 -23.5l1 1q-50 -37 -92.5 -68.5t-92.5 -68.5q35 -34 68.5 -68t68.5 -68q11 -13 11 -26.5t-14 -27.5q-12 -12 -28 -14t-28 9q-42 40 -85.5 83t-85.5 83q-11 17 -8 29q3 18 19 30l229 166q14 9 30 7.5t24 -14.5h-1z" />
<glyph unicode="&#x203a;" horiz-adv-x="346" d="M384 399q4 -5 6.5 -13t0.5 -16q-3 -15 -15 -28l-233 -167q-14 -11 -29 -9t-25 14q-8 12 -3.5 26.5t19.5 27.5l185 136q-35 34 -68.5 68t-68.5 69l1 -1q-11 10 -11 25.5t13 28.5q14 12 29 13t26 -7z" />
<glyph unicode="&#x205f;" horiz-adv-x="240" />
<glyph unicode="&#x20ac;" horiz-adv-x="549" d="M444 203q14 10 30 9.5t26 -10.5q8 -11 5 -27.5t-14 -26.5q-35 -29 -75 -45t-82 -16t-76.5 15t-57.5 42t-34 63.5t-6 78.5h-23q-15 0 -24.5 11t-7.5 26q3 15 16.5 25t28.5 10h22l5 31h-22q-15 0 -24.5 10t-7.5 26q3 16 16.5 26.5t28.5 10.5l23 2q10 42 33.5 78t56.5 62.5 t72.5 41.5t81.5 15t76.5 -16.5t59.5 -45.5q11 -11 8.5 -28.5t-17.5 -28.5v1q-12 -11 -29.5 -11t-25.5 11v-1q-16 19 -37.5 30t-48.5 11q-25 0 -49 -9.5t-44.5 -25.5t-36 -38.5t-22.5 -47.5h122q15 0 23.5 -10.5t5.5 -26.5q-2 -16 -14.5 -26t-27.5 -10h-123l-5 -31h123 q15 0 23.5 -10t5.5 -25q-2 -15 -14.5 -26t-27.5 -11q-17 0 -32 -0.5t-29 -1t-29 -1t-33 -0.5q-2 -25 6 -46.5t23 -37t36 -24.5t46 -9t50 10t46 27z" />
<glyph unicode="&#x2122;" horiz-adv-x="447" d="M521 740q8 0 16 -6.5t6 -20.5l-29 -163q-2 -13 -12.5 -20t-18.5 -7q-28 0 -23 27l17 95q-15 -20 -29 -37h-7q-9 -3 -15 -3q-2 0 -4 1l-5 2h-7l-21 41l-18 -99q-2 -13 -11 -20t-20 -7q-8 0 -16.5 7t-6.5 20l29 163q2 14 13 20.5t19 6.5h17q7 0 15 -7l28 -53q12 14 21.5 26 t20.5 25q6 3 13 6t12 3h16zM305 740q10 0 16.5 -6.5t4.5 -20.5t-11.5 -20.5t-19.5 -6.5h-29l-24 -136q-5 -27 -31 -27q-11 0 -17.5 7t-4.5 20l24 136h-30q-24 0 -19 27q4 27 29 27h112z" />
<glyph unicode="&#xe000;" horiz-adv-x="490" d="M0 490h490v-490h-490v490z" />
</font>
</defs>
</svg>
