<?xml version="1.0" standalone="no"?>
<!DOCTYPE svg PUBLIC "-//W3C//DTD SVG 1.1//EN" "http://www.w3.org/Graphics/SVG/1.1/DTD/svg11.dtd" >
<svg xmlns="http://www.w3.org/2000/svg">
<metadata></metadata>
<defs>
<font id="panefresco_999wtregular" horiz-adv-x="530" >
<font-face units-per-em="1000" ascent="750" descent="-250" />
<missing-glyph horiz-adv-x="265" />
<glyph horiz-adv-x="1000" />
<glyph horiz-adv-x="1000" />
<glyph unicode="&#xd;" horiz-adv-x="265" />
<glyph unicode=" "  horiz-adv-x="265" />
<glyph unicode="&#x09;" horiz-adv-x="265" />
<glyph unicode="&#xa0;" horiz-adv-x="265" />
<glyph unicode="!" d="M198 166h144l2 -166h-144zM196 700h148l-5 -440h-138z" />
<glyph unicode="&#x22;" horiz-adv-x="355" d="M211 440l-2 250h129l-5 -250h-122zM33 440l-2 250h129l-5 -250h-122z" />
<glyph unicode="#" d="M431 165l2 -165h-116l-2 165h-104l2 -165h-116l-2 165h-95v112h95v106h-95v112h95v165h116v-165h104v165h116v-165h96v-112h-96v-106h96v-112h-96zM315 383h-104v-106h104v106z" />
<glyph unicode="$" d="M474 541q-28 2 -57 5q-25 2 -54 4t-56 4v-160q33 -15 66.5 -32t60.5 -40.5t44.5 -56t17.5 -78.5q0 -40 -8.5 -74.5t-30 -60.5t-57.5 -42.5t-91 -19.5v-110l-52 7v103q-50 2 -101 8.5t-85 14.5l8 111q17 -2 39 -4.5t46 -4.5t47.5 -4t44.5 -3v187q-6 2 -9 4 q-33 15 -65.5 31.5t-59 38t-43 51.5t-16.5 72q0 36 10 67.5t32.5 55.5t59 39t89.5 19v117h52v-117q35 -2 75.5 -7.5t97.5 -15.5zM373 186q0 25 -18.5 45t-46.5 37v-158q28 6 46.5 24t18.5 52zM186 492q0 -23 20 -40t49 -33v135q-33 -4 -51 -19.5t-18 -42.5z" />
<glyph unicode="%" d="M124 621q-14 0 -18 -15t-4 -50t4 -50.5t18 -15.5t18 15.5t4 50.5t-4 50t-18 15zM342 720l86 -30l-246 -714l-86 30zM4 556q0 73 31 109t89 36t89 -36t31 -109t-31 -109.5t-89 -36.5t-89 36.5t-31 109.5zM286 146q0 73 31 109t89 36t89 -36t31 -109q0 -146 -118 -146 q-58 0 -90 36.5t-32 109.5zM384 146q0 -35 4 -50.5t18 -15.5t18 15.5t4 50.5t-4 50t-18 15t-18 -15t-4 -50z" />
<glyph unicode="&#x26;" horiz-adv-x="700" d="M311 710q46 0 85.5 -10.5t68 -32t44.5 -53.5t16 -75q0 -34 -8.5 -61t-26 -51t-43.5 -47t-61 -49l80 -83q3 8 7.5 24t10 34.5t9.5 35.5t6 26l129 -3q-4 -23 -11 -50.5t-15.5 -55t-17 -52t-14.5 -41.5l101 -94l-75 -87l-92 79q-28 -21 -53 -35.5t-52.5 -23.5t-58.5 -13 t-71 -4q-115 0 -177 56t-62 164q0 33 11 62.5t30.5 54t45 43.5t54.5 32q-15 20 -25 36.5t-16 33.5t-9 36t-3 44q0 39 14.5 69t40 50t61 30.5t77.5 10.5zM267 110q39 0 70.5 8.5t66.5 26.5l-154 165q-17 -6 -32.5 -17t-28 -24.5t-20 -29t-7.5 -31.5q0 -45 26.5 -71.5 t78.5 -26.5zM253 530q0 -32 8 -55.5t31 -46.5l15 -16q40 29 61 53t21 59q0 32 -18 48.5t-50 16.5q-30 0 -49 -14.5t-19 -44.5z" />
<glyph unicode="'" horiz-adv-x="100" d="M-20 690h127l-5 -250h-120z" />
<glyph unicode="(" horiz-adv-x="260" d="M246 750q-27 -76 -48 -154q-18 -67 -32.5 -145.5t-14.5 -149.5q0 -70 14.5 -145t32.5 -138q21 -73 48 -143h-146q-28 66 -49 138q-18 61 -33 137t-15 151q0 37 4 76.5t11 78t15.5 75t17.5 69.5q21 77 49 150h146z" />
<glyph unicode=")" horiz-adv-x="260" d="M-2 -120q25 76 45 154q9 33 17 70t14.5 75t10.5 76t4 74q0 70 -15 145t-32 138q-20 73 -46 143h144q27 -67 48 -138q18 -62 33.5 -137.5t15.5 -150.5q0 -38 -4.5 -77t-11 -78t-15.5 -75.5t-18 -69.5q-21 -77 -48 -149h-142z" />
<glyph unicode="*" d="M324 479l37 -110l-91 -28l-38 112l-95 -74l-57 73l98 72l-95 69l56 78l91 -65l40 110l92 -32l-38 -108h115v-97h-115z" />
<glyph unicode="+" d="M34 342h163v168h136v-168h165v-132h-165v-168h-136v168h-163v132z" />
<glyph unicode="," horiz-adv-x="170" d="M-4 -123q13 29 28 57.5t24.5 59t10 66t-14.5 77.5h144q15 -39 15.5 -73.5t-9 -66.5t-27.5 -61.5t-40 -58.5h-131z" />
<glyph unicode="-" horiz-adv-x="440" d="M68 333h300v-126h-300v126z" />
<glyph unicode="." horiz-adv-x="248" d="M43 166h144l2 -166h-144z" />
<glyph unicode="/" d="M337 720l128 -44l-283 -700l-128 44z" />
<glyph unicode="0" d="M263 672q58 0 104.5 -17.5t79.5 -58t50.5 -107t17.5 -163.5q0 -98 -17.5 -163t-50.5 -104t-79.5 -55t-104.5 -16t-104.5 16t-79.5 55t-50.5 104t-17.5 163q0 97 17.5 163.5t50.5 107t79.5 58t104.5 17.5zM264 545q-28 0 -48 -11.5t-32.5 -37.5t-18.5 -67.5t-6 -102.5 t6 -101.5t18.5 -65t32.5 -34.5t48 -10t47.5 10t32 34.5t18 65t5.5 101.5t-5.5 102.5t-18 67.5t-32 37.5t-47.5 11.5z" />
<glyph unicode="1" d="M242 660h128l2 -660h-138l-2 501l-137 -93l-64 108z" />
<glyph unicode="2" d="M49 0l-2 123l141 138q64 65 98 112t33 95q1 38 -23.5 57.5t-78.5 19.5q-26 0 -54 -3t-51 -7q-27 -4 -53 -10l-8 121q32 7 65 13q29 5 64.5 9t70.5 4q106 0 158.5 -51.5t53.5 -144.5q0 -38 -6.5 -68t-21.5 -58t-40 -58t-63 -68l-102 -95h242l2 -129h-425z" />
<glyph unicode="3" d="M57 646q32 7 65 13q28 5 61.5 9t63.5 4q61 0 104.5 -12t70.5 -35.5t39.5 -58.5t12.5 -81q-1 -54 -21.5 -83.5t-56.5 -53.5q21 -11 37.5 -24t28 -31t17.5 -42t6 -57q0 -105 -53 -155.5t-167 -50.5q-37 0 -75 3t-70 8q-37 5 -71 12l13 117q34 -3 67 -6q28 -2 59.5 -3.5 t56.5 -1.5q48 0 73 20.5t25 58.5q0 37 -24.5 55t-66.5 18h-128v120h128q17 0 31.5 7.5t25 19.5t16.5 26t6 26q0 39 -27 57t-67 18q-29 0 -59 -2.5l-54 -4.5q-28 -3 -55 -6l-12 116v0z" />
<glyph unicode="4" d="M298 107h-276v110l167 443h150l-161 -425h120v172h138v-172h61v-128h-61v-117h-138v117z" />
<glyph unicode="5" d="M468 661v-129h-269l-16 -131q16 5 33 9q14 3 30 6t28 3q100 0 157 -48t57 -156q0 -58 -15.5 -100.5t-44.5 -70.5t-70 -42t-91 -14q-39 0 -79.5 5t-73.5 11q-39 7 -76 17l15 118q36 -7 73 -12q32 -5 68 -8.5t68 -3.5q37 0 60.5 22t23.5 70q0 87 -87 87q-23 0 -41.5 -2.5 t-31.5 -5.5q-16 -4 -27 -7l-106 23l22 359h393z" />
<glyph unicode="6" d="M476 529q-30 3 -61 7q-26 3 -58.5 5.5t-61.5 2.5q-65 0 -96 -39t-32 -115l11 4.5t28.5 10.5t39 11t42.5 5q105 0 163.5 -50t58.5 -162t-62.5 -166.5t-174.5 -54.5q-125 0 -186.5 87t-61.5 252q0 98 20 164.5t55.5 106.5t85 57t109.5 17q28 0 61.5 -3.5t62.5 -7.5 q34 -5 69 -11zM276 301q-20 0 -39.5 -3t-35.5 -6q-18 -4 -35 -9q0 -33 5.5 -63.5t18.5 -54t33 -38t50 -14.5q45 0 70 24t25 72q0 47 -24.5 69.5t-67.5 22.5z" />
<glyph unicode="7" d="M52 661h412v-157l-233 -522l-132 36l219 486v27h-266v130z" />
<glyph unicode="8" d="M267 673q49 0 92.5 -13t75 -37t50 -58.5t18.5 -77.5q0 -30 -3 -50t-11 -36t-22 -30t-35 -31q40 -26 60.5 -63t20.5 -92q0 -52 -19 -89.5t-52.5 -62t-78.5 -36t-97 -11.5t-97 11t-78 35t-51.5 61.5t-18.5 89.5q0 30 7 53.5t18.5 42.5t26.5 33.5t31 27.5q-21 17 -35 34 t-22.5 35.5t-11.5 40t-3 47.5q0 43 17.5 75.5t49 55t75 34t93.5 11.5zM266 111q48 0 74 21.5t26 67.5q0 24 -12.5 44t-41.5 31h-88q-31 -12 -43 -31.5t-12 -43.5q0 -89 97 -89zM268 548q-42 0 -65 -20t-23 -58q0 -24 10 -42.5t34 -35.5h88q24 17 34 35.5t10 42.5 q0 38 -23 58t-65 20z" />
<glyph unicode="9" d="M52 129q30 -4 61 -8q26 -3 58 -5t62 -2q65 0 96.5 41t31.5 110l-12 -4t-30.5 -9t-39.5 -9t-39 -4q-50 0 -91 14.5t-70 42t-45 68.5t-16 95t17.5 94.5t49.5 66.5t75 39t94 13q121 0 185.5 -87t64.5 -258q0 -98 -20 -163.5t-56 -104.5t-85.5 -55t-109.5 -16q-28 0 -61.5 3 t-62.5 8q-34 4 -69 11zM252 361q20 0 39.5 2t35.5 5q18 4 35 8q0 75 -26.5 123t-80.5 48q-42 0 -68.5 -25t-26.5 -71t25 -68t67 -22z" />
<glyph unicode=":" horiz-adv-x="230" d="M33 455h144v-166h-144v166zM33 166h144l2 -166h-144z" />
<glyph unicode=";" horiz-adv-x="241" d="M64 157h144l-81 -270h-123zM54 455h144v-166h-144v166z" />
<glyph unicode="&#x3c;" d="M213 289l215 -113v-140l-347 181v140l347 182v-140z" />
<glyph unicode="=" d="M49 438h427v-130h-427v130zM49 225h427v-130h-427v130z" />
<glyph unicode="&#x3e;" d="M91 399v140l347 -182v-140l-347 -181v140l215 113z" />
<glyph unicode="?" horiz-adv-x="386" d="M399 516q0 -53 -24.5 -93t-54 -71.5t-54 -56.5t-24.5 -47v-38h-136q-2 12 -4 23q-2 10 -3 20t-1 18q0 36 24 68t52.5 59.5t52.5 52t24 47.5q0 18 -2 32t-10.5 23.5t-25 14t-45.5 4.5q-20 0 -45.5 -2.5t-48.5 -5.5q-27 -4 -55 -8l-15 120q33 10 66 19q28 7 59 13t55 6 q55 0 95.5 -10.5t67 -33.5t39.5 -61t13 -93zM98 156h144l2 -156h-144z" />
<glyph unicode="@" horiz-adv-x="985" d="M943 288q0 -82 -12.5 -139t-37 -92t-60.5 -51t-83 -16q-45 0 -76.5 10.5t-53.5 32.5q-15 -7 -33 -14.5t-38 -13.5t-40.5 -10t-39.5 -4q-92 0 -139.5 65.5t-47.5 185.5q0 61 8 110t29.5 84t58.5 54t95 19q11 0 26.5 -3.5t30.5 -7.5q18 -5 36 -11v13h134v-200 q0 -61 2.5 -96.5t8.5 -54t15.5 -24t23.5 -5.5q15 0 26 6.5t18 25t10.5 51.5t3.5 85v18q0 80 -18 136t-55.5 90.5t-95.5 50t-137 15.5q-164 0 -246.5 -86t-82.5 -251q0 -91 17.5 -155t56.5 -105t101.5 -60t153.5 -19q15 0 39 1t47 3q27 2 57 5l5 -130q-29 -3 -56 -5 q-23 -2 -48.5 -3.5t-43.5 -1.5q-111 0 -197 27.5t-145 85t-90 146.5t-32 211q0 119 32 207t92 146t146 86.5t194 28.5q216 0 328.5 -108.5t112.5 -315.5v-17zM480 123q23 0 47.5 4.5t45.5 10.5q-4 23 -5.5 48t-1.5 54v132q-13 2 -24 5q-10 2 -21 3.5t-18 1.5q-27 0 -43.5 -6 t-26 -22t-12.5 -43t-3 -69q0 -67 15 -93t47 -26z" />
<glyph unicode="A" horiz-adv-x="605" d="M148 561q35 129 175 129h103l154 -690h-132l-33 119h-224l-24 -119h-142zM324 570q-14 -1 -26.5 -9t-18.5 -33l-60 -282h171z" />
<glyph unicode="B" horiz-adv-x="605" d="M318 690q43 0 83.5 -10.5t71.5 -33t49.5 -56.5t18.5 -81q0 -34 -4 -57.5t-13.5 -41.5t-24 -31t-34.5 -26q47 -20 68 -58t22 -106q0 -51 -17 -87t-46.5 -58.5t-70 -33t-87.5 -10.5h-259l-2 690h245zM209 287v-164h116q35 0 60.5 20t25.5 63q0 42 -26 61.5t-60 19.5h-116z M209 567v-162h113q33 0 55 22t22 63q0 39 -23 58t-55 19h-112z" />
<glyph unicode="C" horiz-adv-x="529" d="M491 8q-36 -6 -71 -10q-30 -4 -63 -7t-59 -3q-75 0 -124 23t-78 68.5t-41 113.5t-12 158q0 97 14 164.5t45 108.5t79.5 59.5t116.5 18.5q28 0 62 -3.5t63 -8.5q34 -5 69 -12l-4 -120q-36 3 -69 6l-56 4t-45 2q-36 0 -61 -9.5t-41 -35t-23.5 -69t-7.5 -111.5q0 -64 6 -107 t22 -69.5t42 -37.5t67 -11q15 0 42.5 1.5t55.5 3.5q32 3 68 6z" />
<glyph unicode="D" horiz-adv-x="626" d="M75 0l-2 690h222q85 0 140.5 -21t87.5 -63t44.5 -105.5t12.5 -148.5q0 -88 -11.5 -154t-42.5 -110t-86 -66t-143 -22h-222zM437 358q0 52 -5 91t-20 64t-43 37.5t-74 12.5h-86v-436h86q46 0 74 16t43 46t20 73t5 96z" />
<glyph unicode="E" horiz-adv-x="553" d="M503 0h-217q-47 0 -88 14t-71.5 40t-47.5 62.5t-17 81.5q1 67 25.5 104.5t66.5 57.5q-15 12 -28.5 25t-23.5 31t-15.5 42t-4.5 58q1 47 18.5 80t46.5 54t67.5 30.5t81.5 9.5h204l3 -127h-202q-32 0 -56 -17t-26 -56q0 -41 21.5 -66t54.5 -25h147l-1 -119h-150 q-17 0 -33.5 -4t-30 -12.5t-22 -22.5t-8.5 -35q-2 -43 22.5 -61.5t63.5 -18.5h218z" />
<glyph unicode="F" horiz-adv-x="538" d="M73 690h428v-128h-292v-207h232v-124h-232l2 -231h-136z" />
<glyph unicode="G" horiz-adv-x="595" d="M325 376h218l-1 -189q-2 -37 -6.5 -69.5t-15 -58t-28 -42.5t-44.5 -21q-33 -5 -68.5 -6.5t-63.5 -1.5q-77 0 -129.5 24.5t-84.5 72t-45.5 115.5t-13.5 155q0 93 15 159t47 107.5t83 61t123 19.5q35 0 76 -3.5t76 -8.5q40 -5 80 -12l-4 -119q-37 3 -73 6q-31 2 -67 4.5 t-66 2.5q-41 0 -69 -10t-45.5 -35.5t-25.5 -69t-8 -110.5q0 -65 6.5 -109t23 -71t44 -38.5t70.5 -11.5q42 0 58.5 12.5t18.5 44.5l1 83h-82v119z" />
<glyph unicode="H" horiz-adv-x="663" d="M450 288h-241l2 -288h-136l-2 690h136v-275h241v275h136l2 -690h-136z" />
<glyph unicode="I" horiz-adv-x="278" d="M68 690h138l2 -690h-138z" />
<glyph unicode="J" horiz-adv-x="314" d="M240 115q0 -53 -10 -88.5t-33.5 -56.5t-63.5 -30t-100 -9v121q39 2 55 16.5t16 48.5v573h135z" />
<glyph unicode="K" horiz-adv-x="591" d="M520 690q11 -70 9.5 -125t-13.5 -98t-35 -75t-54 -55l149 -337h-147l-120 284q-25 -8 -49 -12l-51 -7l2 -265h-136l-2 690h136l1 -294l34 5q55 14 87 39t47.5 61t16.5 83.5t-7 105.5h132z" />
<glyph unicode="L" horiz-adv-x="485" d="M75 0l-2 690h136v-561h239l2 -129h-375z" />
<glyph unicode="M" horiz-adv-x="848" d="M73 548q4 65 35 103t98 39h82l129 -507l101 392q14 59 47 86.5t83 28.5h123l2 -690h-136l-2 526q-18 0 -25 -38l-94 -364q-11 -45 -29.5 -69t-44.5 -25h-88l-130 496q-8 -1 -10.5 -10.5t-4.5 -24.5l2 -491h-136z" />
<glyph unicode="N" horiz-adv-x="701" d="M73 690h100q26 0 50 -6t45 -21t39 -40.5t31 -65.5l128 -387q4 -13 8 -19.5t12 -9.5v549h138l2 -690h-111q-57 2 -91 32.5t-54 84.5l-141 408q-4 15 -7.5 21t-10.5 5l2 -551h-138z" />
<glyph unicode="O" horiz-adv-x="644" d="M320 115q76 0 105.5 53t29.5 172t-29.5 177t-105.5 58q-38 0 -64 -14.5t-42 -43.5t-22.5 -73t-6.5 -104t6.5 -102.5t22.5 -69.5t42 -40t64 -13zM320 -12q-77 0 -129.5 23.5t-85.5 69.5t-47.5 113t-14.5 154t15 153t47.5 111t85 67.5t129.5 22.5q76 0 129 -24.5t86 -72 t47 -115.5t14 -155t-14.5 -152t-47 -108.5t-85.5 -65t-129 -21.5z" />
<glyph unicode="P" horiz-adv-x="592" d="M211 197l2 -197h-138l-2 690h240q113 0 177.5 -63t64.5 -184t-64.5 -183.5t-177.5 -62.5h-102zM312 323q52 0 77.5 34.5t25.5 91.5q0 56 -25.5 85.5t-77.5 29.5h-101v-241h101z" />
<glyph unicode="Q" horiz-adv-x="644" d="M571 -240q-36 9 -64.5 32t-52 54.5t-44 69t-40.5 75.5q-11 -1 -25 -2t-25 -1q-77 0 -129.5 25t-85.5 72t-47.5 115.5t-14.5 155.5t15 152t47.5 108t85 64.5t129.5 21.5q76 0 129.5 -25.5t86.5 -73.5t47.5 -117t14.5 -156q0 -112 -27.5 -185.5t-83.5 -115.5 q12 -24 24.5 -48.5t26 -45t28.5 -35t33 -18.5zM320 115q76 0 105.5 53t29.5 172t-29.5 177t-105.5 58q-38 0 -64 -14.5t-42 -43.5t-22.5 -73t-6.5 -104q0 -119 30.5 -172t104.5 -53z" />
<glyph unicode="R" horiz-adv-x="612" d="M311 227h-102l2 -227h-136l-2 690h242q57 0 103.5 -13.5t79.5 -42t50.5 -73t17.5 -105.5q0 -38 -7 -67.5t-20.5 -53t-32.5 -41t-42 -32.5l107 -262h-145l-88 228zM424 459q0 50 -28.5 77t-70.5 27h-116v-213h118q45 0 71 31t26 78z" />
<glyph unicode="S" d="M486 561q-38 3 -76 7q-32 3 -68.5 5.5t-65.5 2.5q-45 0 -68 -18.5t-23 -44.5q0 -16 9.5 -29t25.5 -25t37.5 -23t45.5 -22q35 -16 72.5 -34t68.5 -42.5t51 -59t20 -83.5q0 -48 -11 -86t-38 -64.5t-72 -41t-113 -14.5q-28 0 -58 1.5t-59.5 4.5t-56 7t-46.5 9l7 119 q21 -3 48.5 -5.5t56.5 -4.5t57 -3t50 -1q19 0 37 4t31 13t21 24t8 37q0 19 -11.5 35.5t-30 30.5t-43 26t-50.5 24q-35 16 -69.5 33t-62 40t-44.5 54.5t-17 75.5q0 40 12 75t40 60.5t73.5 40t111.5 14.5q43 0 90.5 -7t113.5 -18z" />
<glyph unicode="T" horiz-adv-x="480" d="M6 690h464v-133h-162l2 -557h-136l-2 557h-166v133z" />
<glyph unicode="U" horiz-adv-x="646" d="M205 230q0 -61 27.5 -84.5t88.5 -23.5t88.5 24t27.5 84v460h137v-460q0 -64 -14 -109t-45 -74t-79 -42.5t-115 -13.5q-68 0 -115.5 13.5t-78.5 42.5t-45 74t-14 109v460h137v-460v0z" />
<glyph unicode="V" horiz-adv-x="613" d="M586 690l-134 -580q-18 -58 -59.5 -83t-101.5 -27h-108l-160 690h140l118 -566q34 0 45 48l110 518h150z" />
<glyph unicode="W" horiz-adv-x="941" d="M168 690l100 -569q12 -3 18 27l80 429q10 54 33.5 78.5t59.5 24.5h84l105 -559q14 -3 20 34l93 535h149l-117 -585q-10 -51 -41.5 -78t-91.5 -27h-102l-90 497l-68 -388q-6 -33 -18 -54.5t-29 -33.5t-38 -16.5t-44 -4.5h-103l-141 690h141z" />
<glyph unicode="X" horiz-adv-x="581" d="M283 441l117 249h158l-183 -348l185 -342h-147l-119 243l-116 -243h-158l184 342l-186 348h147z" />
<glyph unicode="Y" horiz-adv-x="571" d="M355 0h-136l-2 295l-204 395h146l118 -250l117 250h160l-201 -395z" />
<glyph unicode="Z" horiz-adv-x="570" d="M63 690h439q17 -46 3.5 -96.5t-46.5 -104.5l-197 -312q-21 -28 -21 -48h262l2 -129h-438q-16 60 -2 109.5t45 94.5l200 315q10 13 15 23t3 19h-265v129z" />
<glyph unicode="[" horiz-adv-x="300" d="M279 617h-115v-608h115v-132h-251l-2 872h253v-132z" />
<glyph unicode="\" horiz-adv-x="528" d="M342 0l-310 702h140l309 -702h-139z" />
<glyph unicode="]" horiz-adv-x="300" d="M20 749h253l-1 -872h-250l-2 132h115v608h-115v132z" />
<glyph unicode="^" d="M265 528l-113 -215h-140l181 347h140l181 -347h-140z" />
<glyph unicode="_" d="M501 -85v-122h-474l-2 122h476z" />
<glyph unicode="`" horiz-adv-x="545" d="M388 683l-40 -113l-261 78l44 127z" />
<glyph unicode="a" horiz-adv-x="528" d="M449 143q2 -19 15.5 -29.5t35.5 -14.5l-7 -109q-52 2 -86.5 14.5t-53.5 32.5q-9 -7 -24.5 -15.5t-33.5 -15.5t-38 -12t-38 -5q-56 0 -91.5 26.5t-55 67.5t-25.5 90t-3 94q10 121 62 181.5t151 60.5q29 0 54 -3t42 -8l95 14zM225 113q29 0 59 14.5t44 38.5l-4 225 q-9 2 -24 2.5t-24 0.5q-51 0 -76.5 -41.5t-31.5 -116.5q-2 -18 -0.5 -39.5t8 -40t18 -31t31.5 -12.5z" />
<glyph unicode="b" horiz-adv-x="546" d="M204 465q26 19 56.5 31.5t59.5 12.5q56 0 91.5 -26.5t55 -67.5t25.5 -90t3 -94q-10 -121 -62 -181.5t-151 -60.5q-14 0 -49 2t-71 4q-42 3 -92 6v699h134v-235zM313 387q-13 0 -28.5 -4t-30.5 -11.5t-28 -17t-22 -19.5l2 -227q30 -6 58 -6q51 0 76 42.5t31 117.5 q1 18 -0.5 40t-7.5 41t-18.5 31.5t-31.5 12.5z" />
<glyph unicode="c" horiz-adv-x="436" d="M392 63q-28 -34 -75.5 -54t-97.5 -20q-56 0 -91.5 26.5t-55 67.5t-25.5 90t-3 94q10 121 62 181.5t151 60.5q16 0 35 -1.5t37.5 -4.5t35.5 -7.5t30 -10.5l-5 -113q-8 4 -22 8t-30 7t-32.5 5t-29.5 2q-51 0 -76.5 -41.5t-31.5 -116.5q-2 -18 0 -40t8 -41t18 -31.5 t32 -12.5q29 0 60.5 15.5t45.5 39.5z" />
<glyph unicode="d" horiz-adv-x="546" d="M474 0h-134l-1 35q-28 -20 -59 -33t-61 -13q-56 0 -91.5 26.5t-55 67.5t-25.5 90t-3 94q10 121 62 181.5t151 60.5q18 0 39 -4t42 -9v204h134zM226 111q14 0 30.5 4.5t32 12.5t29 18.5t20.5 22.5l1 216q-17 5 -33.5 8t-30.5 3q-51 0 -76 -42.5t-31 -117.5q-2 -18 0 -40 t8 -41t18 -31.5t32 -12.5z" />
<glyph unicode="e" horiz-adv-x="507" d="M435 48q-11 -8 -29 -18t-42 -19t-52.5 -15t-58.5 -6q-55 0 -95 18.5t-65.5 52t-38 80.5t-12.5 105q0 66 18.5 115.5t49.5 82.5t72 49t85 16t78 -12.5t57.5 -34t35.5 -51.5t12 -66q0 -54 -30 -88.5t-73 -54.5t-91 -29t-84 -10q0 -23 17 -42.5t51 -19.5q19 0 43 5.5 t47.5 14.5t44.5 20t34 22zM271 396q-17 0 -33.5 -7.5t-30.5 -22.5t-24 -38t-14 -54q26 3 54.5 6.5t52.5 11.5t39.5 21t15.5 35q0 21 -14.5 34.5t-45.5 13.5z" />
<glyph unicode="f" horiz-adv-x="343" d="M69 383h-49v116h49v23q0 101 35.5 144.5t110.5 43.5q12 0 31 -2.5t36 -4.5q20 -3 42 -6l-2 -110l-24 2q-11 1 -23 2t-24 1q-29 0 -38.5 -19t-9.5 -52v-22h116v-116h-116v-383h-134v383z" />
<glyph unicode="g" horiz-adv-x="538" d="M260 394q-21 0 -37.5 -14t-28.5 -38.5t-18 -57.5t-6 -72q0 -48 16.5 -74t54.5 -26q11 0 27.5 7t31.5 15q18 10 35 22v233l-28 2q-12 1 -25 2t-22 1zM266 -245q-29 0 -57 2.5t-50 5.5q-26 4 -49 9l5 113q22 -2 42 -4q17 -2 36.5 -2.5t33.5 -0.5q54 0 81.5 32.5t27.5 95.5 v24q-1 0 -13.5 -6.5t-29.5 -14.5t-34.5 -14.5t-29.5 -6.5q-89 0 -137.5 63t-48.5 170q0 65 12 118.5t37.5 91.5t65 59t94.5 21q22 0 58.5 -2t71.5 -4q41 -3 87 -6l2 -494q2 -250 -205 -250z" />
<glyph unicode="h" horiz-adv-x="561" d="M72 0l-2 700h134v-229q24 17 54 28.5t65 11.5q49 0 81.5 -17.5t52.5 -50t28.5 -78.5t8.5 -103l2 -262h-134l-2 263q0 24 -2.5 47t-9.5 41t-19.5 28.5t-33.5 10.5q-25 0 -50 -14t-42 -29l3 -347h-134z" />
<glyph unicode="i" horiz-adv-x="268" d="M65 499h134l2 -499h-134zM65 691h134v-135h-134v135z" />
<glyph unicode="j" horiz-adv-x="271" d="M68 499h134v-494q0 -52 -7 -88.5t-26 -64t-53.5 -51t-89.5 -49.5l-58 111q34 19 53.5 33t30 28.5t13.5 33.5t3 48v493zM68 690h134v-135h-134v135z" />
<glyph unicode="k" horiz-adv-x="518" d="M72 0l-2 700h134v-392l18 4q24 7 45 25t37 43t27 56t14 63h140q-8 -66 -35 -128t-83 -112l136 -259h-141l-105 193l-53 -14l2 -179h-134z" />
<glyph unicode="l" horiz-adv-x="268" d="M65 700h134l2 -700h-134z" />
<glyph unicode="m" horiz-adv-x="847" d="M72 0l-2 499h133l2 -49q7 9 20 19.5t29.5 19.5t35 15.5t36.5 6.5q35 0 70 -17.5t52 -46.5q13 9 33.5 20.5t44.5 21t48.5 16t44.5 6.5q82 0 121.5 -64.5t39.5 -185.5l2 -261h-134l-2 256q0 28 -0.5 52.5t-5.5 42.5t-16 28t-33 10q-30 0 -51.5 -13.5t-47.5 -31.5v-28 q0 -12 0.5 -27.5t0.5 -29.5l2 -259h-134l-2 257q0 60 -14 96t-57 36q-25 0 -45 -18t-37 -39v-332h-134z" />
<glyph unicode="n" horiz-adv-x="561" d="M72 0l-2 499h134l1 -51q7 9 21.5 20t32 20.5t37 16t37.5 6.5q43 0 74 -17.5t50 -50.5t28 -79t9 -103l2 -261h-134l-2 261q0 25 -1 48t-6 41t-16 28.5t-32 10.5q-25 0 -52 -15t-49 -41l2 -333h-134z" />
<glyph unicode="o" d="M263 511q65 0 108.5 -21.5t69.5 -57.5t36.5 -84.5t10.5 -102.5t-10.5 -101t-36.5 -81.5t-69.5 -54.5t-108.5 -20t-108.5 22t-69.5 58.5t-37 85.5t-11 103t11 100.5t37 80.5t69.5 53.5t108.5 19.5zM263 104q28 0 45 11.5t27 31t13.5 46t3.5 57.5t-3.5 57.5t-13.5 46 t-27 30.5t-45 11t-45.5 -11t-27 -30.5t-13 -46t-3.5 -57.5t3.5 -57.5t13 -46t27 -31t45.5 -11.5z" />
<glyph unicode="p" horiz-adv-x="546" d="M70 499h134v-35q27 19 57.5 32t60.5 13q56 0 92 -27t56 -68t26.5 -90.5t3.5 -94.5q-19 -240 -216 -240q-18 0 -39 3.5t-41 8.5v-211h-134v709zM315 387q-14 0 -29.5 -4.5t-31 -12t-29 -17.5t-21.5 -21v-220q16 -5 32 -7.5t30 -2.5q51 0 76 42.5t31 117.5q1 18 -0.5 40 t-7.5 41t-18.5 31.5t-31.5 12.5z" />
<glyph unicode="q" horiz-adv-x="544" d="M334 -210v242q-26 -18 -56 -30.5t-59 -12.5q-56 0 -91.5 26.5t-55 67.5t-25.5 90t-3 94q19 241 213 244q15 -1 50 -2.5t71 -3.5q42 -3 92 -6l-1 -709h-135zM226 111q26 0 58.5 15t49.5 37v223q-16 5 -31 7.5t-28 2.5q-51 0 -76 -42.5t-31 -117.5q-2 -18 0 -40t8 -41 t18 -31.5t32 -12.5z" />
<glyph unicode="r" horiz-adv-x="360" d="M65 499h134l-2 -60q9 9 20.5 19.5t27 20t37 18t51.5 14.5v-144q-35 -6 -56 -11.5t-34.5 -11t-23.5 -12.5t-22 -16l4 -316h-134z" />
<glyph unicode="s" horiz-adv-x="497" d="M424 378q-34 4 -67 8q-28 3 -58 6t-50 3q-30 0 -47 -9t-17 -23q0 -23 22.5 -33t65.5 -23q33 -10 63.5 -20.5t54.5 -28t38.5 -44.5t14.5 -69q0 -34 -9.5 -62t-32.5 -48.5t-61 -32t-95 -11.5q-23 0 -55.5 2.5t-61.5 6.5q-34 4 -71 10l5 112q38 -5 72 -9q29 -3 60 -5.5 t51 -2.5q32 0 47.5 11.5t15.5 27.5q0 20 -26 33.5t-68 26.5q-24 7 -52.5 17t-53 27t-41 44t-16.5 69q0 30 11 57t35 47.5t61.5 32.5t90.5 12q20 0 45 -2.5t49.5 -6.5t46.5 -8t36 -8z" />
<glyph unicode="t" horiz-adv-x="350" d="M206 381v-196q0 -76 42 -76h23t23 1q12 0 25 1l6 -108q-17 -4 -35 -8q-15 -3 -32 -5t-30 -2q-84 0 -120 44.5t-36 145.5v203h-54v117h54v141h134v-141h118v-117h-118z" />
<glyph unicode="u" horiz-adv-x="561" d="M487 499l2 -499h-134l-4 48q-8 -8 -23.5 -18.5t-33.5 -19.5t-38 -15.5t-37 -6.5q-78 0 -117 60.5t-39 189.5v261h134v-261q0 -68 8.5 -100t41.5 -32q15 0 31 6.5t30 16t25.5 20t18.5 17.5l1 333h134z" />
<glyph unicode="v" horiz-adv-x="484" d="M144 499l83 -391q11 -2 16.5 8t7.5 26l76 357h142l-95 -397q-14 -60 -52 -82t-89 -20h-100l-122 499h133z" />
<glyph unicode="w" horiz-adv-x="750" d="M137 499l61 -378q11 -1 18 5.5t12 26.5l53 252q8 37 23.5 61t48.5 24h85l76 -369q12 1 19.5 8t9.5 24l56 346h137l-72 -386q-9 -51 -42 -81.5t-102 -31.5h-90l-58 306l-35 -189q-24 -114 -138 -117h-94l-95 499h127z" />
<glyph unicode="x" horiz-adv-x="467" d="M150 499l75 -155l76 155h149l-137 -250l139 -249h-137l-78 154l-73 -154h-149l134 249l-136 250h137z" />
<glyph unicode="y" horiz-adv-x="485" d="M137 499l81 -322q6 -36 23 -47l91 369h138l-123 -494q-13 -52 -29 -88.5t-43 -64t-68 -51t-102 -49.5l-35 116q38 19 62 31.5t38 26t22 31t15 44.5q-79 28 -104 131l-92 367h126z" />
<glyph unicode="z" horiz-adv-x="477" d="M56 500h361q24 -96 -41 -173l-161 -208h202l2 -119h-361q-11 40 -1.5 84t45.5 96l155 201h-201v119z" />
<glyph unicode="{" horiz-adv-x="339" d="M261 172q0 -11 -1 -26t-2.5 -31t-2.5 -32t-1 -28q0 -15 2.5 -25t10 -16.5t21.5 -10t37 -5.5v-132q-111 4 -163.5 43.5t-52.5 128.5q0 15 1 32t2.5 33.5t2.5 31.5t1 24q0 34 -18.5 58t-75.5 40v112q29 7 47 15.5t28.5 19.5t14.5 24.5t4 30.5q0 10 -1 26t-2.5 34t-2.5 35.5 t-1 31.5q0 48 13 81t39.5 53t67 29.5t96.5 11.5v-132q-23 -2 -37 -5t-21.5 -8.5t-10 -15t-2.5 -24.5q0 -12 1 -29.5t2.5 -36t2.5 -35t1 -27.5q0 -30 -5.5 -51.5t-17.5 -36.5t-31 -26t-46 -20q55 -18 77.5 -50t22.5 -92z" />
<glyph unicode="|" d="M189 750h138v-1000h-138v1000z" />
<glyph unicode="}" horiz-adv-x="339" d="M74 451q0 11 1 26t2.5 31t2.5 32t1 28q0 15 -2.5 25t-10 16.5t-21.5 10t-37 5.5v132q111 -4 163.5 -43.5t52.5 -128.5q0 -15 -1 -32t-2.5 -33.5t-2.5 -31.5t-1 -24q0 -34 18.5 -58t75.5 -40v-112q-29 -7 -47 -15.5t-28.5 -19.5t-14.5 -24.5t-4 -30.5q0 -11 1 -26.5 t2.5 -33.5t2.5 -35.5t1 -31.5q0 -48 -13 -81t-39.5 -53t-66.5 -29.5t-95 -11.5l-2 132q23 2 37 5t21.5 8.5t10 15t2.5 24.5q0 12 -1 29.5t-2.5 36t-2.5 35t-1 27.5q0 30 5.5 51.5t17.5 36.5t31 26t46 20q-55 18 -77.5 50t-22.5 92z" />
<glyph unicode="~" d="M470 263q-15 -16 -33 -27q-16 -10 -36.5 -18t-46.5 -8q-20 0 -45 7t-50 15t-47.5 15t-36.5 7q-18 0 -37.5 -6t-35.5 -14q-18 -9 -36 -20l-10 126q16 15 36 26q17 10 40 18.5t51 8.5q19 0 42.5 -7t47.5 -15t46.5 -15t40.5 -7q14 0 32 5.5t34 13.5q18 9 36 20z" />
<glyph unicode="&#xa1;" d="M342 333h-144v166h144v-166zM344 -201h-148l5 440h138z" />
<glyph unicode="&#xa2;" horiz-adv-x="437" d="M192 29q-86 6 -134 58.5t-48 162.5q0 109 48.5 161t133.5 59v101h112v-106q15 -2 29 -3.5t25 -3.5q12 -2 23 -3l-4 -115q-23 0 -44 1q-19 1 -39 1.5t-34 0.5q-32 0 -53.5 -4t-35 -14.5t-19.5 -28.5t-6 -46t6 -46.5t19.5 -29t35.5 -14.5t54 -4q14 0 34 0.5t38 1.5 q21 1 44 2l4 -115l-24 -4q-11 -2 -24.5 -3.5t-28.5 -3.5v-109h-112v104z" />
<glyph unicode="&#xa3;" d="M464 541q-28 2 -53 4q-21 2 -42 3t-29 1q-34 0 -48 -15.5t-14 -54.5v-33h183v-122h-184v-147q2 -24 -1.5 -35.5t-8.5 -17.5h125q40 3 69 16l21 -122q-18 -11 -39 -13.5t-42 -3.5h-83.5t-90 -0.5t-90 -0.5h-83.5l-2 124h54q17 1 27.5 13t12.5 43v144h-81v122h81v35 q0 55 11.5 93t32.5 61.5t50 34t63 10.5q22 0 51 -4t55 -9q31 -5 62 -12z" />
<glyph unicode="&#xa4;" d="M348 75q-41 -20 -85.5 -20t-84.5 20l-73 -73l-92 92l73 73q-20 40 -20 84.5t20 85.5l-73 73l92 92l73 -73q40 19 84.5 19t85.5 -19l73 73l92 -92l-73 -73q19 -41 19 -85.5t-19 -84.5l73 -73l-92 -92zM210 199q22 -22 53 -22t53 22t22 53t-22 53t-53 22t-53 -22t-22 -53 t22 -53z" />
<glyph unicode="&#xa5;" horiz-adv-x="540" d="M46 393h97l-148 267h151l123 -241l122 241h153l-148 -267h94v-112h-148l-3 -8v-32h151v-112h-151l2 -129h-138l-2 129h-155v112h155v32l-3 8h-152v112z" />
<glyph unicode="&#xa6;" d="M332 751v-409h-138v409h138zM332 172v-422h-138v422h138z" />
<glyph unicode="&#xa7;" d="M455 506q-33 4 -63 8q-26 3 -53 5.5t-45 2.5q-30 0 -48.5 -3.5t-29 -11t-14.5 -20t-4 -30.5q0 -12 7.5 -20t24 -15t42 -14t62.5 -16q43 -11 72 -22t47 -27.5t25.5 -40.5t7.5 -61q0 -34 -14.5 -71.5t-35.5 -67.5q9 -8 16 -17t12 -21t7.5 -29t2.5 -42q0 -98 -51.5 -140.5 t-165.5 -42.5q-26 0 -58 3t-61 8q-33 5 -67 12l13 108q31 -4 61 -8q26 -3 53.5 -5t48.5 -2q51 0 75 13t24 44q0 15 -6.5 24.5t-23 17t-44 14.5t-68.5 18q-42 10 -71.5 22t-48 29.5t-27.5 42.5t-9 62q0 18 5.5 37.5t14.5 38t20.5 34t23.5 24.5q-22 16 -33 39.5t-11 68.5 q0 95 55.5 139t161.5 44q26 0 57.5 -3.5t57.5 -8.5q31 -5 61 -12zM269 285q-17 5 -36 8.5t-33 8.5q-6 -9 -11.5 -28.5t-5.5 -35.5q0 -15 2.5 -24.5t9.5 -16t18.5 -11t29.5 -9.5q27 -8 49.5 -15t39.5 -13q8 10 13 32.5t5 40.5q0 12 -3.5 21t-12.5 16.5t-24.5 13.5t-40.5 12z " />
<glyph unicode="&#xa8;" horiz-adv-x="541" d="M65 738h128v-132h-128v132zM281 738h128v-132h-128v132z" />
<glyph unicode="&#xa9;" d="M8 433q0 56 19.5 105t53.5 85t81 57t102 21q57 0 104.5 -21.5t81 -58.5t52 -85t18.5 -102q0 -56 -18.5 -104.5t-52.5 -84.5t-81.5 -56.5t-105.5 -20.5q-54 0 -100.5 20.5t-80.5 56.5t-53.5 84.5t-19.5 103.5zM65 434q0 -43 15 -81t41.5 -66t62.5 -44.5t79 -16.5 q44 0 81 16.5t63.5 44.5t41.5 66t15 81t-15 81.5t-42 67t-63.5 45t-79.5 16.5t-79.5 -16.5t-63 -45t-41.5 -67t-15 -81.5zM341 287q-9 -2 -20 -4q-10 -2 -24 -3t-31 -1q-69 0 -98 37.5t-29 121.5q0 75 29 112.5t98 37.5q17 0 31 -1t24 -2q11 -2 21 -3l-1 -91q-10 1 -21 3 q-10 1 -23.5 2t-30.5 1q-23 0 -30.5 -18t-7.5 -41q0 -26 8.5 -46.5t29.5 -20.5q17 0 30.5 0.5t23.5 1.5q11 1 21 3v-89z" />
<glyph unicode="&#xaa;" d="M378 462q0 -11 3.5 -19t18.5 -11l-5 -73q-19 1 -44 4.5t-37 14.5q-16 -6 -32 -10q-14 -4 -30.5 -6.5t-32.5 -2.5q-50 0 -76 26t-26 78q0 44 26 69t79 27l71 3v5q0 2 -0.5 6.5t-3 9t-7.5 8t-14 3.5q-13 0 -35 -1l-44 -2q-26 -1 -53 -2l-2 72q32 3 60 6q24 2 49 4t39 2 q43 0 69.5 -29.5t26.5 -77.5v-104zM230 495q-27 -1 -27 -32q0 -18 7 -24.5t21 -6.5q8 0 18.5 1t20.5 3q11 2 23 4v57z" />
<glyph unicode="&#xab;" horiz-adv-x="608" d="M179 238l108 -86l-1 -129l-223 171v96l223 164l1 -141zM439 238l108 -86l-1 -129l-223 171v96l223 164l1 -141z" />
<glyph unicode="&#xac;" d="M477 368v-274h-130v144h-301v130h431z" />
<glyph unicode="&#xad;" horiz-adv-x="440" d="M68 333h300v-126h-300v126z" />
<glyph unicode="&#xae;" d="M-6 434q0 57 18.5 108t53 89t84.5 60.5t114 22.5q63 0 114 -22t87 -60t55.5 -89t19.5 -109q0 -57 -19.5 -108t-55.5 -89.5t-87 -61t-114 -22.5q-64 0 -114 22.5t-84.5 60.5t-53 89.5t-18.5 108.5zM49 434q0 -46 16.5 -87t45.5 -72t68.5 -49t84.5 -18t84.5 18t68.5 49 t46 72t17 87q0 48 -17 89t-46.5 71.5t-68.5 48t-84 17.5q-46 0 -85.5 -17.5t-68 -48t-45 -71.5t-16.5 -89zM263 383h-36v-107h-83v315h119q58 0 90 -22t32 -78q0 -38 -9 -59.5t-33 -37.5l49 -118h-90zM226 446h38q40 0 40 40q0 41 -44 41h-34v-81z" />
<glyph unicode="&#xaf;" horiz-adv-x="486" d="M71 738h327v-116h-327v116z" />
<glyph unicode="&#xb0;" d="M92 564q0 67 41.5 108.5t108.5 41.5t108.5 -41.5t41.5 -108.5t-41.5 -108t-108.5 -41t-108.5 41t-41.5 108zM167 564q0 -34 20.5 -55t54.5 -21t55.5 21t21.5 55t-21.5 55.5t-55.5 21.5t-54.5 -21.5t-20.5 -55.5z" />
<glyph unicode="&#xb1;" d="M29 418h166v98h136v-98h166v-132h-166v-93h-136v93h-166v132zM497 153v-132h-468v132h468z" />
<glyph unicode="&#xb2;" horiz-adv-x="265" d="M12 478v90l73 59q26 20 36 33t10 24q0 9 -9 12t-28 3q-8 0 -21 -1t-25 -2q-14 -2 -30 -3l-4 99l42 4q18 2 38.5 3.5t37.5 1.5q62 0 86.5 -23.5t24.5 -76.5q0 -34 -13 -56t-43 -44l-38 -28h94v-95h-231z" />
<glyph unicode="&#xb3;" horiz-adv-x="265" d="M22 792q20 2 39 4q17 2 35.5 3.5t33.5 1.5q121 0 121 -89q0 -53 -29 -70q17 -8 26 -24.5t9 -48.5q0 -52 -31.5 -77t-86.5 -25q-19 0 -40 1t-39 3l-42 4l6 93q18 -2 35 -3q14 -2 30 -2.5t29 -0.5q29 0 29 16q0 9 -6 11.5t-20 2.5h-66v85h64q20 0 20 14q0 9 -7.5 12 t-19.5 3q-14 0 -29 -1t-27 -2l-28 -2l-6 91v0z" />
<glyph unicode="&#xb4;" horiz-adv-x="588" d="M344 776l44 -127l-261 -78l-40 113z" />
<glyph unicode="&#xb6;" d="M360 597h-48l2 -597h-113l-2 306h-7q-42 0 -76.5 14.5t-59 40.5t-37.5 62t-13 79t13 79.5t37.5 62.5t59 41t76.5 15h333v-103h-52l2 -597h-113z" />
<glyph unicode="&#xb7;" horiz-adv-x="248" d="M43 373h144v-166h-144v166z" />
<glyph unicode="&#xb8;" horiz-adv-x="833" d="M566 -127q0 -51 -30 -77.5t-81 -26.5q-17 0 -33 1.5t-30 3.5q-16 3 -30 6l4 78q9 -1 18 -1h30q38 0 38 26q0 13 -9 17.5t-29 4.5h-24v96h53v-38q30 0 53 -4t38.5 -13.5t23.5 -27t8 -45.5z" />
<glyph unicode="&#xb9;" horiz-adv-x="265" d="M120 790h96v-312h-106v195l-47 -32l-49 74z" />
<glyph unicode="&#xba;" d="M257 672q32 0 58.5 -8t45 -26t29 -47.5t10.5 -72.5q0 -86 -39.5 -122.5t-103.5 -36.5q-65 0 -102 36.5t-37 122.5q0 85 37 119.5t102 34.5zM257 439q29 0 42 16t13 63q0 42 -14 58t-41 16t-39 -16t-12 -58q0 -47 12 -63t39 -16z" />
<glyph unicode="&#xbb;" horiz-adv-x="608" d="M316 338l2 126l223 -164v-96l-223 -171l-1 144l109 86zM56 338l2 126l223 -164v-96l-223 -171l-1 144l109 86z" />
<glyph unicode="&#xbf;" horiz-adv-x="386" d="M3 -17q0 53 24.5 93t54 71.5t54 56t24.5 47.5v38h136q2 -12 4 -23q2 -10 3 -20t1 -18q0 -36 -24 -68t-52.5 -59.5t-52.5 -52.5t-24 -47q0 -18 2 -32t10.5 -23.5t25 -14t45.5 -4.5q19 0 45 2.5t49 5.5q27 4 55 8l15 -120q-33 -11 -66 -19q-28 -8 -59 -13.5t-55 -5.5 q-55 0 -95.5 10.5t-66.5 33.5t-39 61t-14 93zM304 343h-144v156h144v-156z" />
<glyph unicode="&#xc0;" horiz-adv-x="605" d="M436 863l-40 -113l-261 78l44 127zM148 561q35 129 175 129h103l154 -690h-132l-33 119h-224l-24 -119h-142zM324 570q-14 -1 -26.5 -9t-18.5 -33l-60 -282h171z" />
<glyph unicode="&#xc1;" horiz-adv-x="605" d="M392 966l44 -127l-261 -78l-40 113zM148 561q35 129 175 129h103l154 -690h-132l-33 119h-224l-24 -119h-142zM324 570q-14 -1 -26.5 -9t-18.5 -33l-60 -282h171z" />
<glyph unicode="&#xc2;" horiz-adv-x="605" d="M235 934h123l131 -149h-150l-41 43l-41 -43h-153zM148 561q35 129 175 129h103l154 -690h-132l-33 119h-224l-24 -119h-142zM324 570q-14 -1 -26.5 -9t-18.5 -33l-60 -282h171z" />
<glyph unicode="&#xc3;" horiz-adv-x="605" d="M491 838q-15 -18 -33 -32q-15 -12 -34.5 -21.5t-39.5 -9.5t-44 7t-47.5 15t-44.5 15t-33 7q-11 0 -25 -6t-26 -14q-15 -9 -29 -20l-29 101q16 18 34 32q15 12 34 22t39 10q23 0 48 -6.5t48 -15t41.5 -15t29.5 -6.5q10 0 24 5.5t27 13.5q15 9 31 20zM148 561 q35 129 175 129h103l154 -690h-132l-33 119h-224l-24 -119h-142zM324 570q-14 -1 -26.5 -9t-18.5 -33l-60 -282h171z" />
<glyph unicode="&#xc4;" horiz-adv-x="605" d="M129 926h128v-132h-128v132zM351 926h128v-132h-128v132zM148 561q35 129 175 129h103l154 -690h-132l-33 119h-224l-24 -119h-142zM324 570q-14 -1 -26.5 -9t-18.5 -33l-60 -282h171z" />
<glyph unicode="&#xc5;" horiz-adv-x="605" d="M453 721q0 -35 -18 -64l145 -657h-133l-33 119h-222l-24 -119h-143l144 659q-8 14 -12 29t-4 33q0 30 12 53.5t32.5 39.5t47.5 24.5t58 8.5q30 0 57.5 -8.5t48 -24.5t32.5 -39.5t12 -53.5zM220 246h169l-66 324h-34zM256 721q0 -25 29 -31h36q29 6 29 31q0 15 -12.5 24 t-34.5 9t-34.5 -9t-12.5 -24z" />
<glyph unicode="&#xc6;" horiz-adv-x="810" d="M330 119h-153l-24 -119h-138l134 612q10 42 38 59t68 19h503v-128h-293v-162h233v-121h-233v-151h293l2 -128h-428zM205 246h125v317h-57z" />
<glyph unicode="&#xc7;" horiz-adv-x="537" d="M439 -127q0 -51 -30 -77.5t-81 -26.5q-17 0 -33 1.5t-30 3.5q-16 3 -30 6l4 78q9 -1 18 -1h30q38 0 38 26q0 13 -9 17.5t-29 4.5h-24v85q-65 5 -107 29t-67.5 68.5t-35.5 108.5t-10 149q0 97 14 165t45 111t79.5 62t116.5 19q28 0 62 -3.5t63 -8.5q34 -5 69 -12l-4 -120 q-36 3 -69 6l-56 4t-45 2q-36 0 -61 -9.5t-41 -35t-23.5 -69t-7.5 -111.5q0 -64 6 -107t22 -69.5t42 -37.5t67 -11q15 0 42.5 1.5t55.5 3.5q32 3 68 6l3 -123q-30 -4 -61 -8q-26 -3 -57 -6.5t-57 -4.5v-26q30 0 53 -4t38.5 -13.5t23.5 -27t8 -45.5z" />
<glyph unicode="&#xc8;" horiz-adv-x="553" d="M503 0h-217q-47 0 -88 14t-71.5 40t-47.5 62.5t-17 81.5q1 67 25.5 104.5t66.5 57.5q-15 12 -28.5 25t-23.5 31t-15.5 42t-4.5 58q1 47 18.5 80t46.5 54t67.5 30.5t81.5 9.5h204l3 -127h-202q-32 0 -56 -17t-26 -56q0 -41 21.5 -66t54.5 -25h147l-1 -119h-150 q-17 0 -33.5 -4t-30 -12.5t-22 -22.5t-8.5 -35q-2 -43 22.5 -61.5t63.5 -18.5h218zM451 855l-40 -113l-261 78l44 127z" />
<glyph unicode="&#xc9;" horiz-adv-x="553" d="M503 0h-217q-47 0 -88 14t-71.5 40t-47.5 62.5t-17 81.5q1 67 25.5 104.5t66.5 57.5q-15 12 -28.5 25t-23.5 31t-15.5 42t-4.5 58q1 47 18.5 80t46.5 54t67.5 30.5t81.5 9.5h204l3 -127h-202q-32 0 -56 -17t-26 -56q0 -41 21.5 -66t54.5 -25h147l-1 -119h-150 q-17 0 -33.5 -4t-30 -12.5t-22 -22.5t-8.5 -35q-2 -43 22.5 -61.5t63.5 -18.5h218zM464 959l44 -127l-261 -78l-40 113z" />
<glyph unicode="&#xca;" horiz-adv-x="553" d="M503 0h-217q-47 0 -88 14t-71.5 40t-47.5 62.5t-17 81.5q1 67 25.5 104.5t66.5 57.5q-15 12 -28.5 25t-23.5 31t-15.5 42t-4.5 58q1 47 18.5 80t46.5 54t67.5 30.5t81.5 9.5h204l3 -127h-202q-32 0 -56 -17t-26 -56q0 -41 21.5 -66t54.5 -25h147l-1 -119h-150 q-17 0 -33.5 -4t-30 -12.5t-22 -22.5t-8.5 -35q-2 -43 22.5 -61.5t63.5 -18.5h218zM267 939h108l132 -172h-143l-42 61l-43 -61h-143z" />
<glyph unicode="&#xcb;" horiz-adv-x="553" d="M503 0h-217q-47 0 -88 14t-71.5 40t-47.5 62.5t-17 81.5q1 67 25.5 104.5t66.5 57.5q-15 12 -28.5 25t-23.5 31t-15.5 42t-4.5 58q1 47 18.5 80t46.5 54t67.5 30.5t81.5 9.5h204l3 -127h-202q-32 0 -56 -17t-26 -56q0 -41 21.5 -66t54.5 -25h147l-1 -119h-150 q-17 0 -33.5 -4t-30 -12.5t-22 -22.5t-8.5 -35q-2 -43 22.5 -61.5t63.5 -18.5h218zM150 897h128v-132h-128v132zM366 897h128v-132h-128v132z" />
<glyph unicode="&#xcc;" horiz-adv-x="278" d="M68 690h138l2 -690h-138zM247 863l-40 -113l-259 78l44 127z" />
<glyph unicode="&#xcd;" horiz-adv-x="278" d="M68 690h138l2 -690h-138zM273 966l44 -127l-261 -78l-40 113z" />
<glyph unicode="&#xce;" horiz-adv-x="278" d="M68 690h138l2 -690h-138zM73 937h123l131 -149h-150l-41 43l-41 -43h-151z" />
<glyph unicode="&#xcf;" horiz-adv-x="278" d="M68 690h138l2 -690h-138zM-37 938h126v-132h-126v132zM183 938h128v-132h-128v132z" />
<glyph unicode="&#xd0;" horiz-adv-x="626" d="M14 409h59v281h222q85 0 140 -20t87 -60.5t44.5 -103.5t12.5 -148q0 -88 -11 -155t-42 -112t-86 -68t-143 -23h-222l-2 277h-59v132zM437 358q0 52 -5 91t-20 64t-43 37.5t-74 12.5h-86v-154h125v-132h-125v-150h86q46 0 74 16t43 46t20 73t5 96z" />
<glyph unicode="&#xd1;" horiz-adv-x="701" d="M543 837q-15 -18 -33 -32q-15 -12 -34.5 -21.5t-39.5 -9.5t-44 7t-47.5 15t-44.5 15t-33 7q-11 0 -25 -6t-26 -14q-15 -9 -29 -20l-29 101q16 18 34 32q15 12 34 22t39 10q23 0 48 -6.5t48 -15t41.5 -15t29.5 -6.5q10 0 24 5.5t27 13.5q15 9 31 20zM73 690h100 q26 0 50 -6t45 -21t39 -40.5t31 -65.5l128 -387q4 -13 8 -19.5t12 -9.5v549h138l2 -690h-111q-57 2 -91 32.5t-54 84.5l-141 408q-4 15 -7.5 21t-10.5 5l2 -551h-138z" />
<glyph unicode="&#xd2;" horiz-adv-x="644" d="M320 115q76 0 105.5 53t29.5 172t-29.5 177t-105.5 58q-38 0 -64 -14.5t-42 -43.5t-22.5 -73t-6.5 -104t6.5 -102.5t22.5 -69.5t42 -40t64 -13zM320 -12q-77 0 -129.5 22.5t-85.5 66.5t-47.5 110t-14.5 153t14.5 154.5t47.5 113.5t85.5 70t129.5 24q76 0 129 -24t86 -70 t47.5 -113.5t14.5 -154.5t-14.5 -153t-47.5 -110t-86 -66.5t-129 -22.5zM466 863l-40 -113l-261 78l44 127z" />
<glyph unicode="&#xd3;" horiz-adv-x="644" d="M320 115q76 0 105.5 53t29.5 172t-29.5 177t-105.5 58q-38 0 -64 -14.5t-42 -43.5t-22.5 -73t-6.5 -104t6.5 -102.5t22.5 -69.5t42 -40t64 -13zM320 -12q-77 0 -129.5 22.5t-85.5 66.5t-47.5 110t-14.5 153t14.5 154.5t47.5 113.5t85.5 70t129.5 24q76 0 129 -24t86 -70 t47.5 -113.5t14.5 -154.5t-14.5 -153t-47.5 -110t-86 -66.5t-129 -22.5zM412 966l44 -127l-261 -78l-40 113z" />
<glyph unicode="&#xd4;" horiz-adv-x="644" d="M320 115q76 0 105.5 53t29.5 172t-29.5 177t-105.5 58q-38 0 -64 -14.5t-42 -43.5t-22.5 -73t-6.5 -104t6.5 -102.5t22.5 -69.5t42 -40t64 -13zM320 -12q-77 0 -129.5 22.5t-85.5 66.5t-47.5 110t-14.5 153t14.5 154.5t47.5 113.5t85.5 70t129.5 24q76 0 129 -24t86 -70 t47.5 -113.5t14.5 -154.5t-14.5 -153t-47.5 -110t-86 -66.5t-129 -22.5zM265 934h123l131 -149h-150l-41 43l-41 -43h-153z" />
<glyph unicode="&#xd5;" horiz-adv-x="644" d="M320 115q76 0 105.5 53t29.5 172t-29.5 177t-105.5 58q-38 0 -64 -14.5t-42 -43.5t-22.5 -73t-6.5 -104t6.5 -102.5t22.5 -69.5t42 -40t64 -13zM320 -12q-77 0 -129.5 22.5t-85.5 66.5t-47.5 110t-14.5 153t14.5 154.5t47.5 113.5t85.5 70t129.5 24q76 0 129 -24t86 -70 t47.5 -113.5t14.5 -154.5t-14.5 -153t-47.5 -110t-86 -66.5t-129 -22.5zM512 837q-15 -18 -33 -32q-15 -12 -34.5 -21.5t-39.5 -9.5t-44 7t-47.5 15t-44.5 15t-33 7q-11 0 -25 -6t-26 -14q-15 -9 -29 -20l-29 101q16 18 34 32q15 12 34 22t39 10q23 0 48 -6.5t48 -15 t41.5 -15t29.5 -6.5q10 0 24 5.5t27 13.5q15 9 31 20z" />
<glyph unicode="&#xd6;" horiz-adv-x="644" d="M320 115q76 0 105.5 53t29.5 172t-29.5 177t-105.5 58q-38 0 -64 -14.5t-42 -43.5t-22.5 -73t-6.5 -104t6.5 -102.5t22.5 -69.5t42 -40t64 -13zM320 -12q-77 0 -129.5 22.5t-85.5 66.5t-47.5 110t-14.5 153t14.5 154.5t47.5 113.5t85.5 70t129.5 24q76 0 129 -24t86 -70 t47.5 -113.5t14.5 -154.5t-14.5 -153t-47.5 -110t-86 -66.5t-129 -22.5zM145 926h128v-132h-128v132zM367 926h128v-132h-128v132z" />
<glyph unicode="&#xd7;" d="M257 364l137 136l93 -93l-136 -137l133 -133l-93 -93l-133 133l-137 -137l-93 94l137 137l-133 133l93 93z" />
<glyph unicode="&#xd8;" horiz-adv-x="656" d="M320 -12q-62 0 -108 15l-58 -125l-79 40l59 127q-49 43 -70 116.5t-21 178.5q0 87 14.5 154.5t47.5 113.5t85.5 70t129.5 24q64 0 112 -18l57 122l83 -31l-64 -137q48 -45 68.5 -120t20.5 -178q0 -87 -14.5 -153t-47.5 -110t-86 -66.5t-129 -22.5zM185 340q0 -48 4 -85 t14 -63l173 372q-25 11 -56 11q-38 0 -64 -14.5t-42 -43.5t-22.5 -73t-6.5 -104zM320 115q76 0 105.5 53t29.5 172q0 46 -4 82.5t-13 64.5l-170 -365q21 -7 52 -7z" />
<glyph unicode="&#xd9;" horiz-adv-x="646" d="M205 230q0 -61 27.5 -84.5t88.5 -23.5t88.5 24t27.5 84v460h137v-460q0 -64 -14 -109t-45 -74t-79 -42.5t-115 -13.5q-68 0 -115.5 13.5t-78.5 42.5t-45 74t-14 109v460h137v-460zM459 863l-40 -113l-261 78l44 127z" />
<glyph unicode="&#xda;" horiz-adv-x="646" d="M205 230q0 -61 27.5 -84.5t88.5 -23.5t88.5 24t27.5 84v460h137v-460q0 -64 -14 -109t-45 -74t-79 -42.5t-115 -13.5q-68 0 -115.5 13.5t-78.5 42.5t-45 74t-14 109v460h137v-460zM415 966l44 -127l-261 -78l-40 113z" />
<glyph unicode="&#xdb;" horiz-adv-x="646" d="M205 230q0 -61 27.5 -84.5t88.5 -23.5t88.5 24t27.5 84v460h137v-460q0 -64 -14 -109t-45 -74t-79 -42.5t-115 -13.5q-68 0 -115.5 13.5t-78.5 42.5t-45 74t-14 109v460h137v-460zM259 934h123l131 -149h-150l-41 43l-41 -43h-153z" />
<glyph unicode="&#xdc;" horiz-adv-x="646" d="M205 230q0 -61 27.5 -84.5t88.5 -23.5t88.5 24t27.5 84v460h137v-460q0 -64 -14 -109t-45 -74t-79 -42.5t-115 -13.5q-68 0 -115.5 13.5t-78.5 42.5t-45 74t-14 109v460h137v-460zM144 938h128v-132h-128v132zM366 938h128v-132h-128v132z" />
<glyph unicode="&#xdd;" horiz-adv-x="571" d="M355 0h-136l-2 295l-204 395h146l118 -250l117 250h160l-201 -395zM452 967l44 -127l-261 -78l-40 113z" />
<glyph unicode="&#xde;" horiz-adv-x="592" d="M312 233q52 0 77.5 29.5t25.5 85.5q0 52 -25.5 82t-77.5 30h-101v-227h101zM211 100l2 -100h-138l-2 690h138v-98h102q121 0 181.5 -62.5t60.5 -181.5q0 -122 -60.5 -185t-181.5 -63h-102z" />
<glyph unicode="&#xdf;" horiz-adv-x="628" d="M67 0l-2 522q0 103 57.5 145.5t173.5 42.5q119 0 174.5 -35t55.5 -120q0 -29 -5 -48t-16 -32.5t-29 -24t-44 -22.5q-37 -17 -48 -29t-11 -26q0 -6 2.5 -11.5t12.5 -11.5t28.5 -15t50.5 -22q33 -14 55 -27.5t35 -30.5t18.5 -39t5.5 -52q0 -51 -11.5 -84.5t-36 -53 t-64 -27.5t-96.5 -8q-11 0 -34 3t-46 7q-27 4 -58 11l4 107q30 -1 56 -2q22 -1 41.5 -1.5t26.5 -0.5q49 0 64.5 8t15.5 31q0 17 -15 32t-66 33q-37 13 -61.5 26.5t-39 30.5t-20.5 39.5t-6 52.5q0 49 19 74t58 44q24 11 38.5 19t23 14.5t11.5 12t3 13.5q0 26 -23.5 35 t-68.5 9q-43 0 -70 -15.5t-27 -54.5l2 -519h-134z" />
<glyph unicode="&#xe0;" horiz-adv-x="528" d="M406 683l-40 -113l-261 78l44 127zM439 143q2 -19 15.5 -29.5t35.5 -14.5l-7 -109q-52 2 -83 12.5t-50 30.5q-21 -16 -50 -29.5t-65 -13.5q-76 0 -116.5 39.5t-57.5 109.5q-6 26 -8.5 56t-2.5 60q1 118 50.5 186t156.5 68q29 0 49 -3t37 -8l95 14zM215 104q14 0 29.5 4.5 t29.5 12t25.5 16t17.5 16.5l-3 238q-18 3 -38 3q-56 0 -79.5 -41t-24.5 -116q0 -30 1 -54.5t5 -41.5q8 -37 37 -37z" />
<glyph unicode="&#xe1;" horiz-adv-x="528" d="M412 776l44 -127l-261 -78l-40 113zM439 143q2 -19 15.5 -29.5t35.5 -14.5l-7 -109q-52 2 -83 12.5t-50 30.5q-21 -16 -50 -29.5t-65 -13.5q-76 0 -116.5 39.5t-57.5 109.5q-6 26 -8.5 56t-2.5 60q1 118 50.5 186t156.5 68q29 0 49 -3t37 -8l95 14zM215 104 q14 0 29.5 4.5t29.5 12t25.5 16t17.5 16.5l-3 238q-18 3 -38 3q-56 0 -79.5 -41t-24.5 -116q0 -30 1 -54.5t5 -41.5q8 -37 37 -37z" />
<glyph unicode="&#xe2;" horiz-adv-x="528" d="M197 752h108l132 -172h-143l-42 61l-43 -61h-143zM439 143q2 -19 15.5 -29.5t35.5 -14.5l-7 -109q-52 2 -83 12.5t-50 30.5q-21 -16 -50 -29.5t-65 -13.5q-76 0 -116.5 39.5t-57.5 109.5q-6 26 -8.5 56t-2.5 60q1 118 50.5 186t156.5 68q29 0 49 -3t37 -8l95 14zM215 104 q14 0 29.5 4.5t29.5 12t25.5 16t17.5 16.5l-3 238q-18 3 -38 3q-56 0 -79.5 -41t-24.5 -116q0 -30 1 -54.5t5 -41.5q8 -37 37 -37z" />
<glyph unicode="&#xe3;" horiz-adv-x="528" d="M434 648q-15 -18 -33 -32q-15 -12 -34.5 -21.5t-39.5 -9.5t-41 7t-41 15l-37.5 15t-29.5 7q-11 0 -25 -6t-26 -14q-15 -9 -29 -20l-29 100q16 18 34 32q15 12 34 22t39 10q23 0 45 -6.5t41 -15t34.5 -15t26.5 -6.5q10 0 24 5.5t27 13.5q15 9 31 20zM439 143 q2 -19 15.5 -29.5t35.5 -14.5l-7 -109q-52 2 -83 12.5t-50 30.5q-21 -16 -50 -29.5t-65 -13.5q-76 0 -116.5 39.5t-57.5 109.5q-6 26 -8.5 56t-2.5 60q1 118 50.5 186t156.5 68q29 0 49 -3t37 -8l95 14zM215 104q14 0 29.5 4.5t29.5 12t25.5 16t17.5 16.5l-3 238 q-18 3 -38 3q-56 0 -79.5 -41t-24.5 -116q0 -30 1 -54.5t5 -41.5q8 -37 37 -37z" />
<glyph unicode="&#xe4;" horiz-adv-x="528" d="M113 738h128v-132h-128v132zM329 738h128v-132h-128v132zM439 143q2 -19 15.5 -29.5t35.5 -14.5l-7 -109q-52 2 -83 12.5t-50 30.5q-21 -16 -50 -29.5t-65 -13.5q-76 0 -116.5 39.5t-57.5 109.5q-6 26 -8.5 56t-2.5 60q1 118 50.5 186t156.5 68q29 0 49 -3t37 -8l95 14z M215 104q14 0 29.5 4.5t29.5 12t25.5 16t17.5 16.5l-3 238q-18 3 -38 3q-56 0 -79.5 -41t-24.5 -116q0 -30 1 -54.5t5 -41.5q8 -37 37 -37z" />
<glyph unicode="&#xe5;" horiz-adv-x="528" d="M145 658q0 24 9 45.5t24.5 37.5t37 25t46.5 9q24 0 45.5 -9t37.5 -25t25 -37.5t9 -45.5q0 -25 -9 -46.5t-25 -37t-37.5 -24.5t-45.5 -9q-51 0 -84 33t-33 84zM232 658q0 -14 8.5 -22.5t22.5 -8.5q13 0 21.5 8.5t8.5 22.5q0 13 -8.5 21.5t-21.5 8.5q-14 0 -22.5 -8.5 t-8.5 -21.5zM439 143q2 -19 15.5 -29.5t35.5 -14.5l-7 -109q-52 2 -83 12.5t-50 30.5q-21 -16 -50 -29.5t-65 -13.5q-76 0 -116.5 39.5t-57.5 109.5q-6 26 -8.5 56t-2.5 60q1 118 50.5 186t156.5 68q29 0 49 -3t37 -8l95 14zM215 104q14 0 29.5 4.5t29.5 12t25.5 16 t17.5 16.5l-3 238q-18 3 -38 3q-56 0 -79.5 -41t-24.5 -116q0 -30 1 -54.5t5 -41.5q8 -37 37 -37z" />
<glyph unicode="&#xe6;" horiz-adv-x="805" d="M562 100q27 0 53 6t49 15.5t41 21t30 21.5l2 -103q-5 -8 -20.5 -20.5t-39 -24t-55.5 -20t-70 -8.5q-51 0 -92 11.5t-67 36.5l-23 -11q-26 -12 -61.5 -24.5t-90.5 -12.5q-57 0 -98 32t-54 88q-12 52 -3 88.5t32 60t57 35t72 14.5l108 7v28q0 5 -2 13q-4 16 -14.5 25.5 t-28.5 9.5q-28 0 -62 -2.5t-63 -4.5q-34 -4 -69 -7l-4 114q37 6 73 11q31 4 65.5 7.5t62.5 3.5q42 0 75.5 -9t55.5 -31q25 20 67.5 30t83.5 10q30 0 56.5 -11.5t47 -30t35 -43t20.5 -50.5q6 -29 2 -57.5t-21.5 -52.5t-49.5 -41t-81 -23l-114 -8q-1 -8 0 -15.5t3 -15.5 q7 -29 28.5 -46t63.5 -17zM240 100q15 0 31 2t30 5q16 4 31 8v99l-86 -4q-26 -2 -41 -21t-7 -51q4 -18 16 -28t26 -10zM525 299q20 3 35 10.5t24 18t12.5 22.5t1.5 22q-3 11 -13 19t-27 8q-28 0 -46 -7.5t-28 -21.5t-14 -33.5t-4 -42.5z" />
<glyph unicode="&#xe7;" horiz-adv-x="436" d="M392 63q-21 -26 -53.5 -43.5t-70.5 -25.5l2 -31q61 -1 92 -24.5t31 -65.5q0 -51 -30 -77.5t-81 -26.5q-17 0 -33 1.5t-30 3.5q-16 3 -30 6l4 78q9 -1 18 -1h30q38 0 38 26q0 13 -9 17.5t-29 4.5h-24v84q-55 1 -90.5 27.5t-55 67t-25 89.5t-2.5 94q10 121 62 181.5 t151 60.5q16 0 35 -1.5t37.5 -4.5t35.5 -7.5t30 -10.5l-5 -113q-8 4 -22 8t-30 7t-32.5 5t-29.5 2q-51 0 -76.5 -41.5t-31.5 -116.5q-2 -18 0 -40t8 -41t18 -31.5t32 -12.5q29 0 60.5 15.5t45.5 39.5z" />
<glyph unicode="&#xe8;" horiz-adv-x="507" d="M435 48q-11 -8 -29 -18t-42 -19t-52.5 -15t-58.5 -6q-55 0 -95 18.5t-65.5 52t-38 80.5t-12.5 105q0 66 18.5 115.5t49.5 82.5t72 49t85 16t78 -12.5t57.5 -34t35.5 -51.5t12 -66q0 -54 -30 -88.5t-73 -54.5t-91 -29t-84 -10q0 -23 17 -42.5t51 -19.5q19 0 43 5.5 t47.5 14.5t44.5 20t34 22zM271 396q-17 0 -33.5 -7.5t-30.5 -22.5t-24 -38t-14 -54q26 3 54.5 6.5t52.5 11.5t39.5 21t15.5 35q0 21 -14.5 34.5t-45.5 13.5zM358 683l-40 -113l-261 78l44 127z" />
<glyph unicode="&#xe9;" horiz-adv-x="507" d="M435 48q-11 -8 -29 -18t-42 -19t-52.5 -15t-58.5 -6q-55 0 -95 18.5t-65.5 52t-38 80.5t-12.5 105q0 66 18.5 115.5t49.5 82.5t72 49t85 16t78 -12.5t57.5 -34t35.5 -51.5t12 -66q0 -54 -30 -88.5t-73 -54.5t-91 -29t-84 -10q0 -23 17 -42.5t51 -19.5q19 0 43 5.5 t47.5 14.5t44.5 20t34 22zM271 396q-17 0 -33.5 -7.5t-30.5 -22.5t-24 -38t-14 -54q26 3 54.5 6.5t52.5 11.5t39.5 21t15.5 35q0 21 -14.5 34.5t-45.5 13.5zM422 776l44 -127l-261 -78l-40 113z" />
<glyph unicode="&#xea;" horiz-adv-x="507" d="M435 48q-11 -8 -29 -18t-42 -19t-52.5 -15t-58.5 -6q-55 0 -95 18.5t-65.5 52t-38 80.5t-12.5 105q0 66 18.5 115.5t49.5 82.5t72 49t85 16t78 -12.5t57.5 -34t35.5 -51.5t12 -66q0 -54 -30 -88.5t-73 -54.5t-91 -29t-84 -10q0 -23 17 -42.5t51 -19.5q19 0 43 5.5 t47.5 14.5t44.5 20t34 22zM271 396q-17 0 -33.5 -7.5t-30.5 -22.5t-24 -38t-14 -54q26 3 54.5 6.5t52.5 11.5t39.5 21t15.5 35q0 21 -14.5 34.5t-45.5 13.5zM199 752h108l132 -172h-143l-42 61l-43 -61h-143z" />
<glyph unicode="&#xeb;" horiz-adv-x="507" d="M435 48q-11 -8 -29 -18t-42 -19t-52.5 -15t-58.5 -6q-55 0 -95 18.5t-65.5 52t-38 80.5t-12.5 105q0 66 18.5 115.5t49.5 82.5t72 49t85 16t78 -12.5t57.5 -34t35.5 -51.5t12 -66q0 -54 -30 -88.5t-73 -54.5t-91 -29t-84 -10q0 -23 17 -42.5t51 -19.5q19 0 43 5.5 t47.5 14.5t44.5 20t34 22zM271 396q-17 0 -33.5 -7.5t-30.5 -22.5t-24 -38t-14 -54q26 3 54.5 6.5t52.5 11.5t39.5 21t15.5 35q0 21 -14.5 34.5t-45.5 13.5zM81 738h128v-132h-128v132zM297 738h128v-132h-128v132z" />
<glyph unicode="&#xec;" horiz-adv-x="268" d="M65 499h134l2 -499h-134zM233 683l-40 -113l-259 78l44 127z" />
<glyph unicode="&#xed;" horiz-adv-x="261" d="M251 776l44 -127l-261 -78l-38 113zM65 499h134l2 -499h-134z" />
<glyph unicode="&#xee;" horiz-adv-x="268" d="M65 499h134l2 -499h-134zM72 752h108l132 -172h-143l-42 61l-43 -61h-141z" />
<glyph unicode="&#xef;" horiz-adv-x="268" d="M-17 738h126v-132h-126v132zM197 738h128v-132h-128v132zM65 499h134l2 -499h-134z" />
<glyph unicode="&#xf0;" d="M96 543l41 32l-73 12l18 113q51 -4 95.5 -10.5t83.5 -17.5l96 75l54 -76l-48 -38q72 -39 109.5 -108t37.5 -178q0 -181 -59.5 -268.5t-195.5 -87.5q-115 0 -175 61t-60 182q0 47 16 85t44.5 64.5t68.5 40.5t89 14q26 0 49.5 -3.5t40.5 -8.5q20 -5 38 -11q-5 50 -29 81 t-84 52l-103 -81zM246 321q-39 0 -60.5 -27t-21.5 -60q0 -53 20.5 -86t70.5 -33q54 0 82.5 44t28.5 139q-15 6 -33 11q-16 5 -38 8.5t-49 3.5z" />
<glyph unicode="&#xf1;" horiz-adv-x="574" d="M82 0l-2 499h134v-22q21 9 42 17q18 6 38.5 11.5t38.5 5.5q49 0 81.5 -17.5t52.5 -50.5t28.5 -79t8.5 -103l2 -261h-134l-2 261q0 25 -2.5 48t-9.5 41t-19.5 28.5t-33.5 10.5q-13 0 -28.5 -3t-29.5 -6q-17 -4 -33 -9l2 -371h-134zM468 648q-15 -18 -33 -32 q-15 -12 -34.5 -21.5t-39.5 -9.5t-41 7t-41 15l-37.5 15t-29.5 7q-11 0 -25 -6t-26 -14q-15 -9 -29 -20l-29 100q16 18 34 32q15 12 34 22t39 10q23 0 45 -6.5t41 -15t34.5 -15t26.5 -6.5q10 0 24 5.5t27 13.5q15 9 31 20z" />
<glyph unicode="&#xf2;" d="M263 511q65 0 108.5 -20.5t69.5 -56t36.5 -83t10.5 -101.5t-10.5 -101.5t-36.5 -83.5t-69.5 -56.5t-108.5 -20.5t-108.5 20.5t-69.5 56.5t-36.5 83.5t-10.5 101.5t10.5 101.5t36.5 83t69.5 56t108.5 20.5zM263 104q28 0 45 11.5t27 31t13.5 46t3.5 57.5t-3.5 57.5 t-13.5 46t-27 30.5t-45 11t-45.5 -11t-27 -30.5t-13 -46t-3.5 -57.5t3.5 -57.5t13 -46t27 -31t45.5 -11.5zM355 683l-40 -113l-261 78l44 127z" />
<glyph unicode="&#xf3;" d="M263 511q65 0 108.5 -20.5t69.5 -56t36.5 -83t10.5 -101.5t-10.5 -101.5t-36.5 -83.5t-69.5 -56.5t-108.5 -20.5t-108.5 20.5t-69.5 56.5t-36.5 83.5t-10.5 101.5t10.5 101.5t36.5 83t69.5 56t108.5 20.5zM263 104q28 0 45 11.5t27 31t13.5 46t3.5 57.5t-3.5 57.5 t-13.5 46t-27 30.5t-45 11t-45.5 -11t-27 -30.5t-13 -46t-3.5 -57.5t3.5 -57.5t13 -46t27 -31t45.5 -11.5zM351 776l44 -127l-261 -78l-40 113z" />
<glyph unicode="&#xf4;" d="M263 511q65 0 108.5 -20.5t69.5 -56t36.5 -83t10.5 -101.5t-10.5 -101.5t-36.5 -83.5t-69.5 -56.5t-108.5 -20.5t-108.5 20.5t-69.5 56.5t-36.5 83.5t-10.5 101.5t10.5 101.5t36.5 83t69.5 56t108.5 20.5zM263 104q28 0 45 11.5t27 31t13.5 46t3.5 57.5t-3.5 57.5 t-13.5 46t-27 30.5t-45 11t-45.5 -11t-27 -30.5t-13 -46t-3.5 -57.5t3.5 -57.5t13 -46t27 -31t45.5 -11.5zM183 752h108l132 -172h-143l-42 61l-43 -61h-143z" />
<glyph unicode="&#xf5;" d="M263 511q65 0 108.5 -20.5t69.5 -56t36.5 -83t10.5 -101.5t-10.5 -101.5t-36.5 -83.5t-69.5 -56.5t-108.5 -20.5t-108.5 20.5t-69.5 56.5t-36.5 83.5t-10.5 101.5t10.5 101.5t36.5 83t69.5 56t108.5 20.5zM263 104q28 0 45 11.5t27 31t13.5 46t3.5 57.5t-3.5 57.5 t-13.5 46t-27 30.5t-45 11t-45.5 -11t-27 -30.5t-13 -46t-3.5 -57.5t3.5 -57.5t13 -46t27 -31t45.5 -11.5zM411 648q-15 -18 -33 -32q-15 -12 -34.5 -21.5t-39.5 -9.5t-41 7t-41 15l-37.5 15t-29.5 7q-11 0 -25 -6t-26 -14q-15 -9 -29 -20l-29 100q16 18 34 32q15 12 34 22 t39 10q23 0 45 -6.5t41 -15t34.5 -15t26.5 -6.5q10 0 24 5.5t27 13.5q15 9 31 20z" />
<glyph unicode="&#xf6;" d="M263 511q65 0 108.5 -20.5t69.5 -56t36.5 -83t10.5 -101.5t-10.5 -101.5t-36.5 -83.5t-69.5 -56.5t-108.5 -20.5t-108.5 20.5t-69.5 56.5t-36.5 83.5t-10.5 101.5t10.5 101.5t36.5 83t69.5 56t108.5 20.5zM263 104q28 0 45 11.5t27 31t13.5 46t3.5 57.5t-3.5 57.5 t-13.5 46t-27 30.5t-45 11t-45.5 -11t-27 -30.5t-13 -46t-3.5 -57.5t3.5 -57.5t13 -46t27 -31t45.5 -11.5zM92 738h128v-132h-128v132zM308 738h128v-132h-128v132z" />
<glyph unicode="&#xf7;" d="M195 525h132v-132h-132v132zM38 343h446v-134h-446v134zM195 159h132v-132h-132v132z" />
<glyph unicode="&#xf8;" d="M79 -78l43 106q-48 35 -66 93t-18 129q0 54 10.5 101.5t36.5 83t69.5 56t108.5 20.5q28 0 56 -5l40 101l81 -30l-42 -102q51 -34 70.5 -93.5t19.5 -131.5q0 -54 -10.5 -101.5t-36.5 -83.5t-69.5 -56.5t-108.5 -20.5q-36 0 -64 6l-40 -102zM263 104q28 0 45 11.5t27 31 t13.5 46t3.5 57.5q0 26 -2.5 48.5t-8.5 41.5l-96 -235q5 -1 9 -1h9zM174 250q0 -26 2 -48t8 -41l92 233q-3 1 -6.5 1h-6.5q-28 0 -45.5 -11t-27 -30.5t-13 -46t-3.5 -57.5z" />
<glyph unicode="&#xf9;" horiz-adv-x="561" d="M487 499l2 -499h-134l-2 21q-21 -10 -42 -17q-18 -6 -39 -11t-38 -5q-47 0 -80 15t-53 46t-29 78t-9 111v261h134v-261q0 -68 13 -100t52 -32q12 0 28 3t30 7q17 4 33 10v373h134zM369 683l-40 -113l-261 78l44 127z" />
<glyph unicode="&#xfa;" horiz-adv-x="561" d="M487 499l2 -499h-134l-2 21q-21 -10 -42 -17q-18 -6 -39 -11t-38 -5q-47 0 -80 15t-53 46t-29 78t-9 111v261h134v-261q0 -68 13 -100t52 -32q12 0 28 3t30 7q17 4 33 10v373h134zM365 776l44 -127l-261 -78l-40 113z" />
<glyph unicode="&#xfb;" horiz-adv-x="561" d="M487 499l2 -499h-134l-2 21q-21 -10 -42 -17q-18 -6 -39 -11t-38 -5q-47 0 -80 15t-53 46t-29 78t-9 111v261h134v-261q0 -68 13 -100t52 -32q12 0 28 3t30 7q17 4 33 10v373h134zM197 752h108l132 -172h-143l-42 61l-43 -61h-143z" />
<glyph unicode="&#xfc;" horiz-adv-x="561" d="M487 499l2 -499h-134l-2 21q-21 -10 -42 -17q-18 -6 -39 -11t-38 -5q-47 0 -80 15t-53 46t-29 78t-9 111v261h134v-261q0 -68 13 -100t52 -32q12 0 28 3t30 7q17 4 33 10v373h134zM106 738h128v-132h-128v132zM322 738h128v-132h-128v132z" />
<glyph unicode="&#xfd;" horiz-adv-x="485" d="M137 499l91 -369h13l91 369h138l-123 -494q-13 -52 -29 -88.5t-43 -64t-68 -51t-102 -49.5l-35 116q38 19 62 31.5t38 26t22 31t15 44.5h-73l-123 498h126zM402 776l44 -127l-261 -78l-40 113z" />
<glyph unicode="&#xfe;" horiz-adv-x="546" d="M277 104q52 0 71.5 39.5t19.5 111.5q0 60 -19 98t-63 38q-13 0 -27 -1t-26 -3q-14 -2 -29 -4v-273q9 -2 20 -3q19 -3 53 -3zM304 511q100 0 150 -60t50 -196q0 -78 -14 -129t-42 -82t-70.5 -43.5t-98.5 -12.5h-27t-24 1l-24 2v-201h-134v910h134v-212q15 6 33 11 q14 5 32 8.5t35 3.5z" />
<glyph unicode="&#xff;" horiz-adv-x="485" d="M137 499l91 -369h13l91 369h138l-123 -494q-13 -52 -29 -88.5t-43 -64t-68 -51t-102 -49.5l-35 116q38 19 62 31.5t38 26t22 31t15 44.5h-73l-123 498h126zM76 738h128v-132h-128v132zM292 738h128v-132h-128v132z" />
<glyph unicode="&#x152;" horiz-adv-x="885" d="M409 0q-30 -5 -61.5 -8.5t-59.5 -3.5q-71 0 -120.5 23.5t-80.5 69t-45 112t-14 152.5q0 187 65.5 272t194.5 85q28 0 58.5 -3.5t58.5 -8.5h428v-128h-292v-162h232v-121h-232v-151h292l2 -128h-426zM308 117q17 0 44 2t53 4v444q-26 2 -53.5 4t-46.5 2q-35 0 -60 -11.5 t-42 -38.5t-25 -70.5t-8 -107.5q0 -60 6.5 -103.5t22 -71t42 -40.5t67.5 -13z" />
<glyph unicode="&#x153;" horiz-adv-x="817" d="M263 104q28 0 45 11.5t27 31t13.5 46t3.5 57.5t-3.5 57.5t-13.5 46t-27 30.5t-45 11t-45.5 -11t-27 -30.5t-13 -46t-3.5 -57.5t3.5 -57.5t13 -46t27 -31t45.5 -11.5zM579 396q-33 0 -62 -32t-37 -95q28 3 59 8t55.5 15t38.5 27t8 44q-4 15 -18 24t-44 9zM747 48 q-11 -8 -29 -18t-42 -19t-52.5 -15t-58.5 -6q-48 0 -85.5 15t-58.5 44q-52 -61 -158 -61q-65 0 -108.5 22t-69.5 58.5t-37 85.5t-11 103t11 100.5t37 80.5t69.5 53.5t108.5 19.5q57 0 95.5 -20t64.5 -48q10 16 26 28.5t35 21t39 12.5t39 4q77 0 128 -35.5t65 -92.5 q3 -16 4 -35t-2.5 -37.5t-12 -36t-23.5 -31.5q-23 -21 -54 -34.5t-64 -22t-64.5 -12.5t-55.5 -5q-1 -23 16 -44.5t53 -21.5q19 0 43 5.5t47.5 14.5t44.5 20t34 22z" />
<glyph unicode="&#x178;" horiz-adv-x="571" d="M355 0h-136l-2 295l-204 395h153l118 -250l117 250h153l-201 -395zM118 926h128v-132h-128v132zM340 926h128v-132h-128v132z" />
<glyph unicode="&#x2c6;" horiz-adv-x="833" d="M352 752h108l132 -172h-131l-52 71l-53 -71h-135z" />
<glyph unicode="&#x2dc;" horiz-adv-x="469" d="M401 648q-15 -18 -33 -32q-15 -12 -34.5 -21.5t-39.5 -9.5t-41 7t-41 15l-37.5 15t-29.5 7q-11 0 -25 -6t-26 -14q-15 -9 -29 -20l-29 100q16 18 34 32q15 12 34 22t39 10q23 0 45 -6.5t41 -15t34.5 -15t26.5 -6.5q10 0 24 5.5t27 13.5q15 9 31 20z" />
<glyph unicode="&#x2000;" horiz-adv-x="483" />
<glyph unicode="&#x2001;" horiz-adv-x="967" />
<glyph unicode="&#x2002;" horiz-adv-x="483" />
<glyph unicode="&#x2003;" horiz-adv-x="967" />
<glyph unicode="&#x2004;" horiz-adv-x="322" />
<glyph unicode="&#x2005;" horiz-adv-x="241" />
<glyph unicode="&#x2006;" horiz-adv-x="161" />
<glyph unicode="&#x2007;" horiz-adv-x="161" />
<glyph unicode="&#x2008;" horiz-adv-x="120" />
<glyph unicode="&#x2009;" horiz-adv-x="193" />
<glyph unicode="&#x200a;" horiz-adv-x="53" />
<glyph unicode="&#x2010;" horiz-adv-x="440" d="M68 333h300v-126h-300v126z" />
<glyph unicode="&#x2011;" horiz-adv-x="440" d="M68 333h300v-126h-300v126z" />
<glyph unicode="&#x2012;" horiz-adv-x="440" d="M68 333h300v-126h-300v126z" />
<glyph unicode="&#x2013;" horiz-adv-x="500" d="M498 335v-122h-498v122h498z" />
<glyph unicode="&#x2014;" horiz-adv-x="1000" d="M998 335v-122h-998v122h998z" />
<glyph unicode="&#x2018;" horiz-adv-x="224" d="M222 749q-20 -29 -36 -58t-23.5 -59t-6 -62t15.5 -68h-136q-11 33 -11 64.5t9 62.5t24.5 61t34.5 59h129z" />
<glyph unicode="&#x2019;" horiz-adv-x="224" d="M7 503q20 29 36 58t23.5 59t6 62t-15.5 68h136q11 -33 11 -65t-9 -62.5t-24.5 -60.5t-34.5 -59h-129z" />
<glyph unicode="&#x201a;" horiz-adv-x="224" d="M66 160h136l-57 -247h-127z" />
<glyph unicode="&#x201c;" horiz-adv-x="470" d="M454 750q-20 -29 -35.5 -58t-23.5 -59t-6.5 -62t15.5 -68h-136q-11 33 -10.5 64.5t9 62.5t24 61t34.5 59h129zM255 750q-20 -29 -35.5 -58t-23.5 -59t-6.5 -62t15.5 -68h-136q-11 33 -10.5 64.5t9 62.5t24 61t34.5 59h129z" />
<glyph unicode="&#x201d;" horiz-adv-x="465" d="M19 503q20 29 36 58t23.5 59t6 62t-15.5 68h136q11 -33 11 -65t-9 -62.5t-24.5 -60.5t-34.5 -59h-129zM218 503q20 29 36 58t23.5 59t6 62t-15.5 68h136q11 -33 11 -65t-9 -62.5t-24.5 -60.5t-34.5 -59h-129z" />
<glyph unicode="&#x201e;" horiz-adv-x="465" d="M87 160h136l-57 -247h-129zM287 160h136l-57 -247h-129z" />
<glyph unicode="&#x2022;" d="M143 380h240v-280h-240v280z" />
<glyph unicode="&#x2026;" horiz-adv-x="744" d="M52 166h144l2 -166h-144zM307 166h144l2 -166h-144zM562 166h144l2 -166h-144z" />
<glyph unicode="&#x202f;" horiz-adv-x="193" />
<glyph unicode="&#x2039;" horiz-adv-x="608" d="M172 240l109 -86l5 -131l-223 171v96l223 164l-5 -139z" />
<glyph unicode="&#x203a;" horiz-adv-x="608" d="M56 341l2 123l223 -164v-96l-223 -171l-2 147l109 86z" />
<glyph unicode="&#x205f;" horiz-adv-x="241" />
<glyph unicode="&#x20ac;" horiz-adv-x="593" d="M126 459q8 63 25.5 104t46.5 65.5t71.5 34t99.5 9.5q32 0 63.5 -3t57.5 -7q30 -4 58 -9l-8 -113q-28 2 -55 4q-23 2 -49.5 3t-46.5 1q-30 0 -51.5 -4t-35.5 -14t-21.5 -27.5t-10.5 -44.5h209v-103h-218q-1 -5 -1 -10q-1 -5 -1 -9.5v-7.5v-11t1 -11q0 -6 1 -12h218v-104 h-208q3 -46 31 -62t91 -16q19 0 45 0.5t49 2.5q27 1 56 3l4 -113q-28 -5 -59 -9q-26 -3 -58 -5.5t-61 -2.5q-59 0 -102 14.5t-72 41.5t-46 64t-23 82h-60v104h53q-1 6 -1 12q-1 5 -1 11v11v7.5t1 9.5q0 5 1 10h-53v104h60z" />
<glyph unicode="&#x2122;" d="M6 639h200v-69h-49v-238h-77v238h-74v69zM233 639h92l50 -174l53 174h92v-308h-72v191l-45 -172h-51l-47 172v-191h-72v308z" />
<glyph unicode="&#xe000;" horiz-adv-x="500" d="M0 500h500v-500h-500v500z" />
</font>
</defs>
</svg>
