<?xml version="1.0" standalone="no"?>
<!DOCTYPE svg PUBLIC "-//W3C//DTD SVG 1.1//EN" "http://www.w3.org/Graphics/SVG/1.1/DTD/svg11.dtd" >
<svg xmlns="http://www.w3.org/2000/svg">
<metadata></metadata>
<defs>
<font id="sf_burlington_scriptBdIt" horiz-adv-x="464" >
<font-face units-per-em="2048" ascent="1638" descent="-410" />
<missing-glyph horiz-adv-x="717" />
<glyph horiz-adv-x="2048" />
<glyph horiz-adv-x="2048" />
<glyph unicode="&#xd;" horiz-adv-x="2048" />
<glyph unicode=" "  horiz-adv-x="717" />
<glyph unicode="&#x09;" horiz-adv-x="717" />
<glyph unicode="&#xa0;" horiz-adv-x="717" />
<glyph unicode="!" horiz-adv-x="324" d="M217 114q-13 -37 -66 -85q-53 -47 -88 -47q-15 0 -27 41q-12 40 -7 59q14 39 66 80q53 41 89 41q20 0 31 -33q10 -30 2 -56zM703 1196q-8 -22 -34.5 -81t-74.5 -156q-38 -76 -93.5 -188.5t-128.5 -265.5l-36 -80t-37 -80q-65 -116 -120 -116q-34 0 -10 65q8 23 28 71 t52 120q10 24 207 447q13 30 25.5 59.5t25.5 58.5q16 35 31.5 64t31.5 52q52 75 111 75q38 0 22 -45z" />
<glyph unicode="&#x22;" horiz-adv-x="324" d="M715 1161q-17 -52 -95 -142q-83 -99 -128 -99q-36 0 -21 39q1 5 15.5 28t42.5 66q-71 -89 -125 -89q-36 0 -22 38q5 13 31 42q27 29 35 49q9 20 32 64q10 19 33 37q22 18 40 18q17 0 23 -35q6 -34 -3 -52l28 42q14 23 45 46q33 24 54 24q14 0 19 -29q5 -31 -4 -47z" />
<glyph unicode="#" horiz-adv-x="676" d="M637 911l-21 -42q22 2 45 5t49 5l22 41zM1026 1014q-7 -20 -40 -47q-32 -26 -52 -27l-86 -8l-25 -45q45 2 70.5 3t34.5 1q48 0 36 -34q-8 -23 -40 -48q-31 -24 -56 -28q-25 -3 -103 -6q-41 -86 -53 -106q-48 -72 -92 -72q-33 0 0 86q8 22 16 42.5t18 40.5 q-29 -4 -52.5 -6t-40.5 -4q-77 -159 -146 -159q-31 0 -21 31q0 -3 58 113q-26 -2 -53.5 -3.5t-58.5 -1.5q-69 0 -57 32q22 63 144 75h-12q12 1 34.5 4.5t55.5 9.5l19 44q-42 -5 -71 -7.5t-45 -2.5q-33 0 -21 31q21 58 183 80q39 90 51 111q45 75 91 75q34 0 22 -33 q-5 -14 -18.5 -48.5t-36.5 -91.5q60 9 103 12q8 22 22 53.5t34 74.5q14 27 47 52q33 24 60 24q36 0 19 -50q-11 -31 -26.5 -66t-34.5 -74q36 2 60.5 3.5t38.5 1.5q36 0 24 -32z" />
<glyph unicode="$" horiz-adv-x="669" d="M638 944q-177 -22 -194 -67q-24 -66 112 -133zM659 370q30 84 -82 162q-2 -5 -23.5 -55.5t-63.5 -150.5q10 -1 25 -1.5t36 -0.5l24 -3q65 0 84 49zM817 428q-41 -116 -162 -182q-102 -60 -227 -62q-21 -55 -33 -84.5t-14 -34.5q-43 -79 -93 -79q-30 0 -18 31 q13 35 29.5 79.5t38.5 99.5q-28 7 -58.5 17t-64.5 23q-96 37 -87 59q10 27 52 60q44 32 71 32q5 0 145 -42l94 239q-102 53 -140 90q-80 72 -51 149q36 97 164 162q95 48 220 68q8 22 20.5 52t28.5 69q9 21 40 42t54 21q35 0 9 -68q-4 -10 -9.5 -23.5t-13.5 -31.5 q-8 -17 -13 -30t-9 -21l27 2q55 1 110 -12q74 -20 61 -56q-8 -21 -35 -38q-26 -17 -47 -17q-25 0 -63 7q-22 4 -39 5.5t-29 1.5h-14q-6 -1 -9.5 -1.5t-5.5 -0.5q-20 -51 -45.5 -114t-57.5 -142q229 -123 174 -270z" />
<glyph unicode="%" horiz-adv-x="739" d="M642 184q10 26 -16 84q-15 -5 -25 -5q-5 0 -16.5 1.5t-16.5 1.5q-68 0 -95 -73q-12 -33 4 -55t49 -22q35 0 69 19q36 19 47 49zM691 1024q7 19 6 58q-2 39 3 48q-161 -63 -183 -126q-26 -69 34 -69q43 0 85 24q42 25 55 65zM802 244q-34 -94 -155 -177q-119 -81 -214 -81 q-69 0 -98.5 40.5t-5.5 110.5q28 76 122 153q97 85 169 85q16 0 42 -20q48 36 86 36q93 -39 54 -147zM848 1082q-37 -104 -162 -190t-229 -86q-61 0 -86 40t-2 103q28 78 129 162q91 75 183 108q34 12 53 12q22 0 39 -30q31 18 48 18q26 0 31 -54q6 -56 -4 -83zM1161 1190 q-2 -5 -16 -21q-45 -58 -105.5 -128t-136.5 -155q-63 -69 -125.5 -138.5t-125.5 -139.5q-109 -123 -192 -218t-144 -165q-26 -32 -65.5 -77.5t-93.5 -106.5q-62 -60 -114 -60q-40 0 -26 36q4 16 21 36q93 118 244 287l254 283q57 66 142.5 163t203.5 229q24 28 61 67.5 t88 91.5q61 57 99 57q45 0 31 -41z" />
<glyph unicode="&#x26;" horiz-adv-x="585" d="M638 860q-99 -17 -119 -73q-17 -42 29 -68q31 46 90 141zM418 505q-119 -44 -138 -95q-13 -42 34 -70q4 4 104 165zM695 307q-24 -61 -183 -95q-111 -24 -207 -24q-54 -82 -100 -82q-30 0 -19 29q4 11 13 27.5t25 38.5q-130 36 -86 161q50 133 284 239q-74 44 -41 136 q30 84 136 154q94 63 188 78q88 157 152 157q33 0 20 -39q-11 -27 -75 -126q75 -39 63 -68q-8 -19 -33 -38t-45 -19q-11 0 -51 14q-18 -29 -42 -67.5t-54 -86.5q101 -3 85 -42q-26 -70 -177 -104q-45 -70 -82.5 -127.5t-69.5 -103.5h34q20 0 49 3t68 8q40 5 69 8t48 3l7 4 q38 0 24 -38z" />
<glyph unicode="'" horiz-adv-x="205" d="M599 1186q-20 -51 -84 -124q-70 -82 -116 -82q-34 0 -24 34q2 4 19.5 26.5t49.5 64.5q62 80 77 93q37 34 63 34q31 0 15 -46z" />
<glyph unicode="(" horiz-adv-x="348" d="M340 39q-16 -47 -84 -55q-102 61 -104 252q0 161 61 325q29 81 67.5 161t89.5 162q113 187 232 297q55 51 89 51q41 0 28 -37q-2 -4 -5 -8.5l-7 -10.5q-37 -46 -88.5 -115t-118.5 -163q-49 -77 -86.5 -153t-65.5 -153q-89 -249 -46 -409q6 -19 12 -37.5t12 -36.5 q19 -55 14 -70z" />
<glyph unicode=")" horiz-adv-x="336" d="M561 652q-29 -81 -68 -160.5t-90 -163.5q-113 -185 -236 -299q-52 -47 -85 -47q-40 0 -26 35l3.5 10.5t3.5 6.5q37 46 88.5 116t118.5 164q101 161 153 304q87 240 45 409q-35 139 -33 144q21 58 87 58q98 -53 98 -263q1 -148 -59 -314z" />
<glyph unicode="*" horiz-adv-x="628" d="M840 664q-11 -26 -49 -54q-38 -26 -64 -26q-19 0 -109 140q-7 -19 -18 -43.5t-28 -55.5q-36 -50 -75 -50q-17 0 -7 79q12 70 24 102q-239 -159 -267 -159q-30 0 -17 34q12 34 306 231q-101 188 -82 235q17 48 80 57q22 -9 89 -127l46 127q9 24 47 50q37 27 62 27 q33 0 14 -72q-4 -11 -9 -26.5t-12 -35.5q-6 -15 -15 -39t-22 -56q29 24 58 47.5t58 46.5q89 68 118 68q39 0 24 -41q-20 -53 -282 -234q138 -196 130 -225z" />
<glyph unicode="+" horiz-adv-x="469" d="M558 259q-7 -23 -45 -52q-37 -28 -62 -33q-19 -4 -43 -6t-53 -1l-19 -48q-3 -11 -16 -33.5t-50 -48.5q-34 -25 -60 -25q-10 0 -13 27q-1 28 3 41q8 23 17 45.5t17 45.5l-9 1q-13 0 -40 -3q-13 -1 -22.5 -1.5t-15.5 -0.5q-16 0 -43 12q-31 13 -25 26q11 29 54 53 q55 30 150 36l11 32q3 11 8 24t12 27q5 9 14.5 18.5t21 17t23.5 12.5t21 5q50 0 4 -133q51 1 77.5 1.5t31.5 0.5q15 0 36 -12q22 -12 15 -28z" />
<glyph unicode="," horiz-adv-x="249" d="M253 51q-29 -80 -111 -162q-81 -83 -167 -124q-21 -8 -34 -8q-36 0 -22 39q4 12 99 89q95 74 127 156q2 7 6 22.5t6 21.5q27 75 85 75q13 0 15 -45q2 -47 -4 -64z" />
<glyph unicode="-" d="M556 259q-8 -23 -46 -52q-37 -28 -66 -34t-94 -6q-10 0 -23.5 0.5t-32.5 1.5q-36 3 -55 3q-16 0 -47 -3q-16 -1 -27.5 -1.5t-19.5 -0.5q-15 0 -43 12q-29 13 -25 26q11 31 54 53q77 41 282 41q159 0 143 -40z" />
<glyph unicode="." horiz-adv-x="208" d="M256 121q-17 -45 -80 -91q-62 -44 -108 -44q-70 0 -46 72q17 45 65 87q46 43 90 43q31 0 57 -17q32 -23 22 -50z" />
<glyph unicode="/" horiz-adv-x="625" d="M1106 1190q-2 -6 -15 -21q-46 -58 -106.5 -128t-136.5 -155q-63 -69 -125.5 -138.5t-125.5 -139.5q-72 -79 -174 -196.5t-240 -278.5q-128 -152 -194 -152q-38 0 -24 36q2 8 7 17t12 19q48 60 108 131.5t135 156.5q64 70 127.5 140t126.5 142q58 66 143.5 163t203.5 229 q51 57 79.5 88.5t36.5 39.5q87 88 129 88q47 0 33 -41z" />
<glyph unicode="0" horiz-adv-x="843" d="M906 550q75 206 21 368q-61 180 -260 178l-20 -2v-10q-5 -15 -29 -36q-192 -186 -290 -457q-63 -178 -62 -301q5 -176 147 -176q135 0 283 130q144 123 210 306zM1065 608q-62 -167 -189 -309q-128 -144 -299 -234q-158 -81 -270 -81q-177 0 -189 192q-5 143 70 346 q136 375 379 563q-17 -3 -31 -3q-36 0 -24 36q22 58 125 90q76 24 148 24q225 0 299 -203q66 -186 -19 -421z" />
<glyph unicode="1" horiz-adv-x="184" d="M602 1155q-14 -42 -105 -242q-277 -604 -345 -797q-13 -35 -24.5 -59t-21.5 -37q-35 -41 -74 -41q-15 0 -6 65q5 30 10 51.5t10 35.5q26 75 62 164t81 198q42 91 81.5 181t79.5 183l51 140q87 240 191 240q41 0 10 -82z" />
<glyph unicode="2" horiz-adv-x="778" d="M872 113q-11 -29 -47 -59q-33 -27 -71 -35q-3 -2 -119 -16q-106 -10 -181.5 -15.5t-120.5 -5.5q-121 0 -205 38q-102 53 -63 161q38 108 263 275q103 69 204.5 138t204.5 138q224 157 256 249q48 128 -129 128q-89 0 -207 -36q-127 -41 -203 -97q-27 -19 -55.5 -40 t-55.5 -28q-26 8 -15 32q4 17 42 55q103 102 296 172q178 65 309 65q105 0 153 -48q52 -53 14 -157q-48 -127 -275 -303q-26 -20 -126 -89t-280 -190q-217 -145 -241 -209q-40 -115 195 -115q35 0 87 3.5t124 10.5q142 15 210 15q49 0 36 -37z" />
<glyph unicode="3" horiz-adv-x="806" d="M945 375q-61 -167 -228 -280q-167 -111 -335 -111q-96 0 -201 38q-114 45 -145 109q-7 10 2 31q10 31 51 61q40 31 71 31q13 0 23 -7q106 -66 146 -85q81 -37 181 -37q102 0 161 39q76 52 114 153q31 82 -19 156q-10 12 -36 36.5t-71 62.5q-58 49 -45 83q16 44 199 167 q184 122 206 180q16 47 -43 82q-50 29 -102 29q-69 0 -169 -35q-49 -17 -89.5 -37.5t-72.5 -45.5q-88 -67 -110 -67q-27 0 -17 28q4 10 11 19q90 110 259 186q155 70 287 70q93 0 152 -47q65 -53 34 -140q-31 -85 -157 -184l-208 -150l136 -133q60 -82 15 -202z" />
<glyph unicode="4" horiz-adv-x="836" d="M1109 439q-10 -24 -49 -57q-39 -30 -63 -30q-22 0 -52.5 -1t-72.5 -3q-20 -42 -49 -103t-67 -143q-4 -9 -11 -22.5t-18 -31.5q-15 -25 -50 -48q-35 -21 -59 -21q-35 0 -21 35q4 10 48 105q17 37 42.5 91.5t60.5 129.5q-157 -13 -253.5 -19.5t-136.5 -6.5q-250 0 -181 191 q16 42 45.5 93t72.5 112q79 97 156 195q52 70 109 76l13 -20l-6 -17q-4 -10 -74 -101q-83 -111 -89 -114q-35 -49 -59 -91.5t-38 -77.5q-42 -121 149 -121q27 0 114.5 7.5t238.5 21.5q72 150 122 265.5t81 200.5q6 15 16 44t21 61t20.5 61.5t14.5 44.5q7 18 11 28.5t6 14.5 q34 51 77 51q20 0 23 -22q5 -53 -66 -244q-42 -114 -92 -237t-113 -262q35 2 62 3t46 1q84 0 71 -39z" />
<glyph unicode="5" horiz-adv-x="809" d="M899 249q-11 -32 -39 -72q-75 -101 -208 -153q-111 -42 -236 -42q-310 0 -349 201q25 55 85 66l15 -7q63 -141 323 -141q176 0 232 53q18 17 26 37q42 120 -79 280l-133 157q-77 97 -101 181q-31 99 -2 181q35 92 140 160q130 82 343 82q194 0 280 -24q26 -8 17 -32 q-10 -26 -53 -61q-42 -33 -69 -33q-32 0 -80 1.5t-111 5.5t-110.5 5.5t-79.5 1.5q-97 0 -119 -58q-7 -19 -9 -38q-5 -124 101 -258q87 -107 174 -216q89 -149 42 -277z" />
<glyph unicode="6" horiz-adv-x="884" d="M1026 379q-69 -188 -289 -300q-192 -95 -389 -95q-176 0 -234.5 91.5t7.5 269.5q74 203 277 464q204 261 404 410q24 18 45 18q34 0 22 -32q-5 -15 -24 -31q-129 -115 -232.5 -232.5t-185.5 -238.5q-60 -87 -100.5 -159.5t-63.5 -135.5q-108 -294 177 -294q132 0 239 40 q146 53 186 163q46 127 -56 193q-86 53 -222 53q-13 0 -30 -4q-21 -3 -30 -3q-58 0 -44 41q22 58 108 87q63 21 133 21q165 0 256 -79q105 -89 46 -247z" />
<glyph unicode="7" horiz-adv-x="802" d="M1224 1038q-34 -93 -217 -267l-309 -283q-90 -85 -162 -158t-130 -139q-20 -25 -51 -61.5t-73 -85.5q-57 -63 -106 -63q-40 0 -26 36q47 133 726 749q174 156 197 226q47 122 -220 122q-46 0 -102.5 -4.5t-125.5 -12.5q-87 -10 -138.5 -15t-70.5 -5q-45 0 -35 31 q12 32 66 61q33 19 253 43q199 24 266 24q331 0 258 -198z" />
<glyph unicode="8" horiz-adv-x="850" d="M833 338q39 105 -29 191q-34 43 -149 120q-372 -260 -413 -374q-32 -86 62 -125q64 -27 169 -27q115 0 181 31q133 59 179 184zM992 393q-67 -181 -268 -303q-184 -109 -371 -109q-128 0 -213 50q-107 65 -63 182q66 182 503 487q-227 158 -182 280q46 128 237 196 q142 51 293 51q199 0 291 -66q18 -10 10 -31q-7 -21 -35 -38q-29 -17 -47 -17q6 0 -85 21q-40 8 -89.5 12.5t-110.5 4.5q-288 0 -316 -82q-29 -77 193 -222q42 26 101 67.5t138 98.5q14 11 26.5 22t24.5 22q33 24 58 24q40 0 27 -39q-18 -55 -295 -245q120 -76 161 -139 q58 -94 12 -227z" />
<glyph unicode="9" horiz-adv-x="877" d="M1212 882q-68 -184 -321 -443q-48 -46 -117 -113.5t-163 -161.5q-44 -47 -130 -133q-55 -49 -90 -49q-39 0 -26 37q14 36 179 201q54 54 107.5 106t107.5 106q243 243 299 399q45 123 -6 194q-50 71 -173 71q-125 0 -261 -69q-154 -76 -198 -194q-36 -97 31 -157 q58 -51 163 -51q91 0 189 57q97 57 108 57q31 0 19 -31q-3 -8 -17 -22q-172 -184 -404 -184q-138 0 -205 73q-74 80 -26 212q67 184 302 319q221 125 408 125q155 0 218 -96q64 -96 6 -253z" />
<glyph unicode=":" horiz-adv-x="222" d="M256 121q-17 -45 -80 -91q-62 -44 -108 -44q-70 0 -46 72q17 45 65 87q46 43 90 43q31 0 57 -17q32 -23 22 -50zM432 577q-19 -54 -82 -95q-62 -42 -116 -42q-73 0 -50 63q21 53 80 103q60 51 111 51q35 0 52 -23t5 -57z" />
<glyph unicode=";" horiz-adv-x="258" d="M457 556q-16 -42 -67 -79q-52 -37 -95 -37q-74 0 -49 70q17 50 71 97q55 48 103 48q31 0 40 -33t-3 -66zM253 51q-29 -80 -111 -162q-81 -83 -167 -124q-21 -8 -34 -8q-36 0 -22 39q4 12 99 89q95 74 127 156q2 7 6 22.5t6 21.5q27 75 85 75q13 0 15 -45q2 -47 -4 -64z " />
<glyph unicode="&#x3c;" horiz-adv-x="372" d="M411 101q-10 -30 -50 -58q-41 -29 -69 -29q-12 0 -22 6q-12 8 -39.5 31.5t-70.5 62.5q-87 83 -83 93q13 39 99 83q10 5 40.5 19t82.5 37q56 24 124 74q34 24 55 24q32 0 19 -34q-26 -72 -212 -161q148 -90 126 -148z" />
<glyph unicode="=" horiz-adv-x="411" d="M515 319q-16 -49 -112 -73q-64 -19 -137 -19q-14 0 -38 4.5t-59 12.5q-74 20 -70 34q17 45 68 58q37 10 168 10q13 0 32 1.5t45 3.5q52 6 78 6q39 0 25 -38zM481 205q-20 -57 -97 -75q-114 -29 -215 -29q-22 0 -68 15q-53 17 -48 31q8 20 34 40t48 25q27 0 69 2.5 t100 7.5q76 10 118.5 15t51.5 4q19 0 7 -36z" />
<glyph unicode="&#x3e;" horiz-adv-x="362" d="M451 246q-14 -41 -168 -134q-153 -93 -196 -93q-38 0 -24 39q16 38 203 145q-136 134 -119 176q4 11 12.5 21.5t20 19t24.5 14t25 5.5t121 -91q16 -11 31.5 -22.5t31.5 -23.5q46 -36 38 -56z" />
<glyph unicode="?" horiz-adv-x="836" d="M282 152q-21 -55 -86 -114q-71 -59 -124 -59q-17 0 -33 30q-15 31 -10 49q19 50 80 97q61 46 115 46q17 0 40 -17q24 -17 18 -32zM1208 1031q-40 -113 -264 -265q-54 -37 -151.5 -95.5t-244.5 -139.5q-210 -120 -222 -152q-1 -2 0 -8t1.5 -14t1 -16.5t-0.5 -14.5 q-12 -32 -54 -63q-40 -31 -71 -31q-15 0 -25.5 8t-16 20.5t-6 28t4.5 30.5q36 99 258 237l396 229q215 128 239 190q47 128 -201 128q-168 0 -354 -99l2 -4q-60 -77 -113 -77q-41 0 -23 46q10 30 85 86q63 48 107 71q208 106 427 106q118 0 183 -42q79 -53 42 -159z" />
<glyph unicode="@" horiz-adv-x="908" d="M1176 748q-48 -134 -188 -256q-152 -132 -281 -132q-42 0 -64 27q-80 -51 -133 -51q-61 0 -71 70q-7 55 17 125q59 163 208 276q107 80 171 80q54 0 66 -46q12 -39 -8 -95q-21 -56 -72 -120q-62 -76 -111 -80l-2 26q5 16 24 52q19 35 27 59q28 82 -10 82q-43 0 -89 -72 q-17 -25 -31 -52.5t-25 -56.5q-39 -111 9 -111q13 0 63 41q53 41 85 41q22 0 27 -30q6 -30 24 -30q28 0 70 24q96 50 140 174q40 106 5 196q-39 94 -146 94q-146 0 -321 -148q-167 -143 -222 -291q-63 -175 65 -262q102 -69 295 -69q8 0 26 1.5t38 3t38 3t26 1.5 q42 0 29 -39q-22 -60 -135 -89q-77 -21 -162 -21q-209 0 -322 98q-133 113 -59 310q40 109 132 222q127 157 314 278q208 139 365 139q141 0 193 -118q48 -111 -5 -254z" />
<glyph unicode="A" horiz-adv-x="870" d="M995 96q-12 -33 -56 -63t-77 -30q-17 0 -45 16q-69 37 -92 116q-214 -149 -360 -149q-172 0 -222 164q-41 148 24 330q97 265 357 489q61 52 125 96.5t133 81.5q164 89 274 89q226 0 94 -357q-23 -67 -64.5 -150.5t-102.5 -184.5q-152 -257 -237 -257q-32 0 -21 29 q1 2 3 5t4 7q207 303 273 489q104 287 -48 287q-124 0 -312 -143q-230 -179 -317 -418q-92 -248 24 -369q49 -51 119 -51q83 0 223 98t163 98q22 0 29 -25q13 -76 29 -98q8 -15 68 -63q21 -15 12 -37z" />
<glyph unicode="B" horiz-adv-x="930" d="M1103 474q-71 -192 -309 -346q-227 -146 -424 -146q-150 0 -217 96q-65 97 -10 248q36 99 123 225q38 54 77.5 108t79.5 109q20 31 41 62t41 63q61 76 118 76q39 0 24 -41q-19 -52 -103 -170q-32 -43 -62.5 -85.5t-61.5 -87.5q-76 -111 -108 -196q-42 -118 8 -192 q49 -72 170 -72q126 0 259 82q145 85 190 209q39 111 -40 190q-66 66 -179 87q-16 1 -37.5 3.5t-49.5 6.5q-30 4 -19 34q23 61 110 99l175 62q135 51 149 87q22 61 -51 94q-53 25 -128 25q-123 0 -267 -58q-163 -65 -242 -162q-56 -65 -111 -75l-15 22q23 50 68 101 q121 133 328 218q194 82 355 82q98 0 169 -48q83 -56 49 -146q-41 -113 -275 -229q264 -95 175 -335z" />
<glyph unicode="C" horiz-adv-x="739" d="M1143 891q-17 -47 -87 -60l-17 16q2 29 4 49.5t3 31.5q0 44 -12 76q-39 109 -148 109q-86 0 -179 -75q-66 -52 -124 -113.5t-110 -133.5t-91.5 -144t-65.5 -144q-52 -145 -36 -247q20 -131 152 -131q77 0 211 66q133 67 145 67q41 0 26 -43q-10 -27 -55 -61 q-89 -70 -215 -120q-132 -50 -220 -50q-167 0 -203 151q-27 126 38 307q94 259 321 498q283 297 484 297q108 0 159 -78q47 -68 36 -179q-2 -29 -6.5 -51.5t-9.5 -37.5z" />
<glyph unicode="D" horiz-adv-x="952" d="M1172 604q-71 -195 -242 -345q-125 -110 -297 -189q-180 -84 -312 -84q-227 0 -125 280q22 58 55.5 126t81.5 147q42 67 84 133t85 135q28 48 48 63q26 26 68 31l13 -19l-5 -13q-2 -8 -22.5 -43.5t-60.5 -100.5q-159 -257 -210 -396q-79 -223 78 -223q164 0 379 152 q166 117 231 293q56 162 10 300q-46 142 -176 200q-94 41 -225 41q-46 0 -137 -15q-45 -7 -78 -10.5t-53 -3.5q-48 0 -36 36q26 67 193 104q118 28 218 28q312 0 425 -200q99 -181 10 -427z" />
<glyph unicode="E" horiz-adv-x="807" d="M1014 150q-22 -60 -104 -92q-42 -16 -110 -29.5t-165 -26.5q-84 -10 -151.5 -15t-119.5 -5q-154 0 -239 54q-107 71 -58 208q58 164 297 316q-120 51 -70 188q35 95 150 209q51 52 104 94.5t109 74.5q181 106 326 106q89 0 154 -41q74 -50 46 -133q-7 -17 -24 -39.5 t-43 -51.5q-53 -56 -85 -56q-27 0 -16 29q4 12 18 32q15 21 18 33q41 104 -152 104q-151 0 -307 -126q-113 -90 -141 -174q-33 -89 39 -120q45 -17 150 -17q43 0 29 -41q-20 -51 -90 -81q-29 -11 -57.5 -20.5t-57.5 -19.5q-194 -78 -242 -210q-67 -181 270 -181q84 0 248 34 q172 35 248 35q40 0 26 -38z" />
<glyph unicode="F" horiz-adv-x="746" d="M1225 1053q-58 -159 -520 -445q204 -64 121 -287q-88 -243 -439 -617q-63 -68 -111 -68q-39 0 -25 39q10 27 109 149q32 40 64 79.5t64 78.5q137 172 178 283q34 91 0 141q-29 39 -116 65q-11 2 -29 7t-43 12q-24 8 -14 36q16 44 162 136l272 171q149 102 174 169 q19 58 -53 85q-53 21 -126 21t-183 -29q-192 -52 -300 -157l-62 -65q-43 -40 -70 -40q-29 0 -17 33q11 29 39 65q104 140 330 235q208 86 372 86q103 0 167 -43q88 -51 56 -140z" />
<glyph unicode="G" horiz-adv-x="881" d="M1222 848q-44 -53 -82 -53q-24 0 -22 24q1 32 3 92q-8 198 -172 198q-184 0 -403 -259q-182 -215 -258 -423q-49 -132 -17 -217q34 -91 162 -91q99 0 219 57q131 62 191 150q2 6 7 14.5t12 19.5q64 91 138 91q17 0 20 -27q4 -26 -3 -45q-100 -277 -275 -446 q-263 -261 -575 -261q-42 0 -30 35q10 28 49 59q39 30 70 39q16 1 38 3t51 7q276 39 428 330q-241 -163 -433 -163q-348 0 -207 387q56 158 170 326q115 167 255 295q274 247 475 247q138 0 194 -114q55 -109 4 -249z" />
<glyph unicode="H" horiz-adv-x="1010" d="M1449 1190q-2 -5 -8.5 -18l-17.5 -35q-19 -36 -51 -104t-78 -171q-94 -201 -175 -397t-153 -395q-12 -32 -57 -60q-43 -28 -74 -28q-26 0 -24 27q1 22 24 87q7 22 27 69q10 23 17 41t12 30q158 428 -232 428q-84 0 -202 -27q-48 -109 -87 -194.5t-71 -152.5 q-47 -90 -101 -174q-89 -135 -133 -135q-16 0 -29 13q-2 12 2 20q3 10 20.5 45t49.5 95q38 75 88 184t113 258l-169 -57l-15 24q23 62 228 137l67 164q14 37 27.5 73t26.5 72q17 43 35 78t35 63q59 86 128 86q36 0 21 -46q1 4 -30.5 -69t-97.5 -227q-21 -50 -60 -150 q143 34 258 34q218 0 293 -135q35 75 75.5 159t88.5 183q13 29 34.5 70.5t52.5 98.5q52 78 116 78q41 0 26 -42z" />
<glyph unicode="I" horiz-adv-x="191" d="M633 1184q-4 -10 -12 -24t-19 -34q-115 -201 -225 -476q-23 -57 -67.5 -175t-113.5 -304q-14 -40 -27 -70t-26 -50q-50 -77 -119 -77q-35 0 -9 74q6 17 30.5 80.5t67.5 175.5q94 242 177.5 428.5t158.5 323.5q100 181 165 181q39 0 19 -53z" />
<glyph unicode="J" horiz-adv-x="828" d="M1026 550q-95 -260 -255 -408q-170 -158 -349 -158q-112 0 -233 132q-124 138 -87 241q11 29 52 61q42 33 71 33q17 0 53 -86q45 -109 87 -160q71 -86 173 -86q66 0 117 33q127 84 229 363q130 355 99 519q-20 92 -111 92q-65 0 -234 -41q-17 -4 -28 -6t-16 -2 q-34 0 -24 31q21 56 184 93q127 30 212 30q75 0 116 -36q69 -68 32 -299q-13 -88 -35 -174t-53 -172z" />
<glyph unicode="K" horiz-adv-x="869" d="M905 68q-14 -31 -55 -59q-43 -28 -72 -28q-12 0 -39 15q-71 47 -138 193l-99 233q-52 95 -120 133q-26 -64 -50.5 -126t-49.5 -125q-67 -156 -128 -246q-49 -76 -113 -76q-38 0 -24 38q19 51 82 189t166 371q-19 -4 -31.5 -5.5t-18.5 -1.5q-34 0 -20 38q22 61 124 92 q22 49 52.5 118.5t72.5 163.5q33 73 52.5 116.5t24.5 57.5q1 5 2 13.5t3 13.5q14 38 76 53q23 -5 21 -58q-3 -44 -15 -77q-16 -45 -52.5 -135t-94.5 -230q375 111 583 271q81 60 146 149q46 66 88 66q34 0 22 -35q-7 -23 -42 -70q-192 -267 -727 -454q78 -54 148 -174 q26 -54 51.5 -106.5t51.5 -105.5q23 -48 52 -93t64 -88q12 -13 7 -31z" />
<glyph unicode="L" horiz-adv-x="688" d="M777 85q-9 -23 -43 -48q-30 -25 -60 -34q-19 -3 -44 -5t-57 -2q-23 -1 -47.5 -1.5t-49.5 -0.5q-75 -4 -116 -6t-49 -2q-314 0 -215 279q20 54 74.5 172t145.5 305q190 393 237 444q43 46 77 46q29 0 19 -34q-2 -4 -24 -48.5t-67 -132.5q-54 -109 -97.5 -199.5 t-78.5 -165.5q-54 -118 -89 -200t-52 -128q-43 -114 -4 -164q34 -46 152 -46q48 0 147 9q51 5 87 7.5t60 2.5q19 0 58 -14q42 -17 36 -34z" />
<glyph unicode="M" horiz-adv-x="1174" d="M1377 580q-14 -40 -38.5 -99t-58.5 -140q-34 -79 -58.5 -138t-38.5 -99q-6 -16 -11.5 -27.5t-10.5 -18.5q-18 -29 -57 -57q-40 -26 -68 -26q-38 0 -24 39q18 51 46.5 123t68.5 171t69 171t46 123q180 492 26 492q-142 0 -316 -312q-109 -190 -196 -430q-4 -8 -8.5 -23 t-10.5 -36q-6 -20 -10.5 -34.5t-7.5 -24.5q-14 -36 -59 -69q-44 -32 -80 -32q-42 0 2 120l32 90l21 52.5t14 37.5q247 676 100 676q-28 0 -95 -61q-258 -236 -482 -850q-4 -11 -12 -35t-16 -50t-16 -49.5t-12 -34.5q-8 -21 -33 -39q-26 -21 -44 -21q-24 0 -24 23 q1 71 60 226q226 625 519 886q148 133 254 133q132 0 72 -324q131 177 278 261q110 62 183 62q235 0 -4 -656z" />
<glyph unicode="N" horiz-adv-x="882" d="M1106 594q-131 -358 -336 -512q-133 -98 -263 -98q-35 0 -55 5q-151 31 -107 366q7 63 32.5 182.5t71.5 303.5q-31 -64 -70.5 -154.5t-88.5 -210.5q-52 -128 -91.5 -218t-65.5 -147q-35 -75 -51 -91q-39 -45 -77 -45q-24 0 -14 28q-1 -2 19 47t62 151q45 118 91.5 235.5 t94.5 237.5q124 297 234 459q68 104 134 104q48 0 14 -186q-13 -72 -75 -322q-26 -103 -41.5 -182t-20.5 -139q-30 -289 106 -289q179 0 316 374q36 100 66 205t53 220q1 5 21 116q6 36 13.5 66t15.5 54q10 28 54 60q47 32 74 32q26 0 25 -27q-1 -13 -7 -54.5t-18 -111.5 q-28 -145 -56.5 -258t-59.5 -201z" />
<glyph unicode="O" horiz-adv-x="881" d="M1125 654q-80 -221 -251 -395q-117 -119 -256 -194q-158 -83 -285 -83q-162 0 -208 129q-40 116 22 287q52 148 182 339q53 74 93 74q17 0 25 -23q-2 -5 -19.5 -34.5t-49.5 -84.5q-32 -54 -57 -105t-43 -100q-51 -139 -25 -240q28 -120 162 -120q147 0 302 128 q168 138 247 355q67 181 36 328q-38 174 -205 174q-86 0 -193 -56q-53 -29 -162 -108q-80 -56 -104 -56q-39 0 -25 36q8 22 35 49q61 56 127.5 103.5t140.5 87.5q169 91 289 91q203 0 254 -198q46 -169 -32 -384z" />
<glyph unicode="P" horiz-adv-x="894" d="M14 43q-1 -5 -1.5 -8t-0.5 -4q0 1 0.5 4t1.5 8zM1188 770q-62 -172 -223 -278q-160 -106 -335 -106q-186 0 -255 85q-8 14 -1 31q11 30 54 62q44 32 74 32q2 0 19 -5q127 -67 221 -67q214 0 282 186q52 144 -7 263q-60 124 -201 124q-301 0 -575 -756q-26 -73 -46 -123 t-33 -78q-75 -158 -138 -158q-25 0 -12 49l39 111q8 21 19.5 53t26.5 75q16 45 27 76.5t19 52.5q34 94 65.5 168.5t62.5 132.5q58 106 124.5 194.5t142.5 160.5q190 177 380 177q175 0 255 -143q79 -142 15 -319z" />
<glyph unicode="Q" horiz-adv-x="940" d="M1135 529q-62 -168 -224 -309q-152 -131 -338 -196q19 -41 57 -84q17 -18 34 -36.5t34 -37.5q11 -14 7 -29q-9 -23 -47 -52q-37 -28 -64 -28q-7 1 -11 1.5t-6 0.5q-130 51 -154 230q-17 -3 -68 -3q-180 0 -232 123q-43 115 24 299q49 135 135 259.5t215 245.5 q262 248 537 316q25 7 39 7q35 0 21 -35q-14 -37 -73 -59l-46 -14t-47 -14q-188 -65 -378 -264q-183 -192 -250 -372q-51 -143 -29 -234q28 -109 154 -123q5 42 14.5 81.5t23.5 77.5q11 36 37 68q32 41 61 41q34 0 11 -113q-8 -39 -11.5 -75.5t-2.5 -70.5q138 29 251 118 q114 90 160 216q37 103 24 227q-4 40 -14 85.5t-27 99.5q-29 87 -25 95q10 27 52 60q44 32 72 32q16 0 24 -15q70 -96 89 -236q19 -148 -29 -283z" />
<glyph unicode="R" horiz-adv-x="899" d="M1234 908q-79 -212 -304 -331q-82 -43 -184 -63q-46 -7 -91.5 -13.5t-91.5 -12.5q39 -94 79 -167q20 -32 39 -64l38 -64q58 -106 51 -128q-11 -29 -51 -57q-41 -26 -69 -26q-40 0 -168 227q-127 226 -112 271q16 42 91 83q82 46 222 63q79 10 133 20t83 21 q130 48 178 183q41 111 -18 182q-59 72 -173 72q-201 0 -391 -225q-125 -149 -253 -500q-29 -82 -50 -142.5t-32 -99.5q-2 -5 -5 -18.5t-8 -33.5q-2 -14 -5.5 -27t-8.5 -24q-8 -20 -33 -36q-25 -19 -45 -19q-71 0 75 402q40 112 77 196t71 147q103 177 258 309 q242 203 450 203q152 0 224 -87q76 -94 24 -241z" />
<glyph unicode="S" horiz-adv-x="821" d="M934 288q-12 -29 -38 -70q-85 -121 -230 -186q-124 -50 -265 -50q-68 0 -126 12q-103 19 -178 79q-90 75 -56 171q15 43 58 85q49 50 87 52l12 -23q-19 -31 -30 -49.5t-13 -23.5q-36 -97 98 -150q97 -39 218 -39q266 0 317 138q40 106 -76 246q-54 61 -108 121t-109 121 q-111 145 -67 270q33 85 127 148q82 55 182 77q80 19 178 19q160 0 208 -19q25 -9 15 -36q-12 -31 -52 -59t-72 -28q-17 0 -42 1t-59 3q-33 2 -58.5 3.5t-42.5 1.5q-210 0 -232 -60q-34 -94 79 -231q54 -61 107 -121t108 -121q106 -150 60 -282z" />
<glyph unicode="T" horiz-adv-x="765" d="M1280 1198q-24 -63 -109 -85q-34 -10 -132 -10q-87 0 -192 3q-9 -22 -21 -52.5t-27 -72.5q-55 -151 -130 -341t-172 -425q-19 -57 -75 -172q-21 -27 -54 -49q-35 -24 -61 -24q-33 0 -20 37q21 58 51 130.5t68 161.5q31 73 62 145t63 147q38 94 68 165t50 125 q27 76 87 228h-347q-15 0 -37 12q-23 12 -19 24q10 26 52 51q42 24 453 29q58 0 195 6q64 2 113 3.5t83 1.5q65 0 51 -38z" />
<glyph unicode="U" horiz-adv-x="915" d="M1232 870q-164 -448 -493 -713q-212 -168 -374 -168q-209 0 -205 277q6 193 101 458q11 26 34 82.5t58 144.5q40 96 62.5 148t29.5 62q40 49 77 49q32 0 10 -61q-10 -29 -26 -71.5t-39 -99.5q-22 -57 -38 -99.5t-26 -71.5q-46 -127 -71.5 -232t-32.5 -193 q-21 -271 164 -271q36 0 92 24q324 145 524 696q19 52 54 159q17 54 30 93.5t23 65.5q10 28 53 57q43 31 72 31q24 0 20 -30q-15 -106 -99 -337z" />
<glyph unicode="V" horiz-adv-x="853" d="M1359 1198q-7 -14 -24 -34q-198 -235 -306 -363.5t-128 -151.5q-120 -147 -217.5 -279t-178.5 -256q-29 -48 -54 -76q-60 -66 -113 -66q-26 0 -27 27q-2 6 13 196q19 229 45 687q10 277 15 289q16 46 79 61l17 -7q18 -83 18 -280q-1 -67 -7 -239t-18 -453 q106 151 262.5 347t367.5 441q168 196 228 196q41 0 28 -39z" />
<glyph unicode="W" horiz-adv-x="1179" d="M1669 1198q-26 -68 -150 -287q-132 -233 -249 -415.5t-220 -319.5q-152 -201 -221 -201q-27 0 -30 27q0 7 15 247q11 168 21.5 293t21.5 216q-76 -126 -152 -243t-152 -232l-131 -194q-9 -13 -18 -24t-17 -21q-59 -65 -111 -65q-26 0 -30 21q-36 134 17 567 q52 418 123 609q8 20 32 37q25 19 43 19q21 0 22 -22q4 -44 -12 -138l-27 -144q-63 -415 -50 -694q130 195 243 373.5t213 348.5q25 42 41.5 68.5t24.5 37.5q49 61 103 61q24 0 24 -29q0 -5 -1.5 -28t-5.5 -66q-9 -71 -21 -210q-15 -165 -42 -561q102 135 211 303.5 t229 375.5q65 127 166 283q37 40 68 40q32 0 22 -33z" />
<glyph unicode="X" horiz-adv-x="852" d="M1299 1181q-8 -20 -38 -46q-29 -26 -67.5 -57.5t-87.5 -67.5q-138 -102 -159 -117q-63 -49 -123.5 -99.5t-123.5 -104.5q23 -106 42 -186t35 -138q11 -40 22 -79.5t22 -78.5q34 -123 26 -152q-11 -26 -50 -54q-38 -26 -65 -26q-54 0 -159 605q-284 -258 -465 -500 q-22 -29 -35 -45.5t-18 -20.5q-27 -27 -71 -35l-19 12l7 18q5 14 43 76q81 123 216 268t327 316q-56 276 -114 435q-21 56 -19 65q19 51 78 63l19 -5q49 -94 89 -205.5t72 -243.5q532 444 590 444q41 0 26 -41z" />
<glyph unicode="Y" horiz-adv-x="788" d="M1200 1094q-6 -17 -16.5 -39.5t-26.5 -50.5q-42 -76 -116 -203t-186 -309q-31 -51 -75 -124t-104 -173q-21 -47 -72 -135q-56 -81 -124 -81q-40 0 -24 40q22 62 123 239q30 51 261 426q-238 -211 -405 -211q-150 0 -172 138q-14 108 46 271q28 76 63.5 148t78.5 141 q37 60 104 70l20 -16l-7 -18q0 5 -47 -84q-22 -42 -40.5 -84t-35.5 -87q-46 -133 -42 -223q8 -125 123 -125q176 0 469 381l58 77q64 76 123 76q41 0 24 -44z" />
<glyph unicode="Z" horiz-adv-x="829" d="M1225 1062q-41 -116 -254 -272q-103 -69 -252.5 -173.5t-349.5 -251.5q-168 -131 -188 -188q-22 -58 101 -58q45 0 110 4.5t153 14.5q90 10 154.5 14.5t107.5 4.5q65 0 51 -38q-23 -68 -112 -90q-12 -2 -29.5 -4t-40.5 -5l-167 -20q-103 -10 -172.5 -15.5t-107.5 -5.5 q-259 0 -209 140q50 135 419 405q132 91 260 181.5t260 181.5q97 72 114 123q40 106 -209 106q-11 0 -29 -0.5t-39.5 -1t-44.5 -1t-42 -0.5h-40q-49 0 -128 15q-101 20 -92 46q8 19 36 38q32 20 49 20h94q15 -1 28 -1h25h39q37 0 114 3q76 3 115 3q124 0 201 -30 q112 -45 75 -145z" />
<glyph unicode="[" horiz-adv-x="316" d="M340 99q-17 -50 -122 -89q-87 -31 -143 -31q-71 0 -72 30q-1 7 31 100q28 75 71 185.5t103 260.5q120 298 174 447q36 104 55 136q36 65 165 89q46 9 70 9q14 0 40 -17q24 -17 20 -29q-13 -37 -80 -57q-26 -4 -51 -8t-50 -9q-8 -24 -13 -40.5t-9 -25.5q3 22 -194 -495 q-29 -78 -70 -186.5t-93 -252.5q-4 -7 -1 -7q9 4 22 4q9 0 53 12q43 12 66 12q42 0 28 -38z" />
<glyph unicode="\" horiz-adv-x="625" d="M679 17q-14 -36 -54 -36q-54 0 -70 60l-26 184q-11 78 -25.5 173t-32.5 210q-14 76 -27 151.5t-26 153.5q-39 246 -27 277q14 41 56 41q34 0 55 -57q13 -38 36 -159q10 -66 24.5 -163t34.5 -229q34 -191 84 -570q2 -28 -2 -36z" />
<glyph unicode="]" horiz-adv-x="321" d="M693 1024q-25 -69 -64.5 -170.5t-94.5 -239.5t-94.5 -239t-64.5 -170q-34 -94 -56 -137q-39 -67 -165 -86q-29 -7 -69 -7q-16 0 -41 15q-25 12 -20 27q13 38 78 55q26 4 51 8.5t50 9.5l26 70q6 16 53 137.5t138 354.5q14 38 53 143t102 280q2 4 10 12q2 2 3.5 3t2.5 2 q-8 2 -12 2q-26 0 -69 -13t-68 -13q-39 0 -26 40q19 49 122 90q83 34 140 34q81 0 70 -44q-9 -32 -22.5 -72.5t-32.5 -91.5z" />
<glyph unicode="^" horiz-adv-x="493" d="M800 882q-8 -26 -53 -59q-44 -33 -69 -33q-48 0 -31 123q19 142 2 172q-20 -16 -45.5 -39t-55.5 -54q-40 -42 -64 -66l-32 -32q-83 -78 -116 -78q-32 0 -20 31q3 11 19 27q29 33 74 81.5t106 112.5q23 23 50.5 47t59.5 49q86 65 117 65q41 0 60 -58q15 -45 15 -96 q0 -145 -17 -193z" />
<glyph unicode="_" horiz-adv-x="819" d="M-180 -436l41 113h868l-41 -113h-868z" />
<glyph unicode="`" horiz-adv-x="345" d="M783 1312q-15 -41 -58 -41q-29 0 -107 111q-34 52 -36 52q-17 32 -5 64q14 41 54 41q34 0 84 -75q79 -119 68 -152z" />
<glyph unicode="a" horiz-adv-x="474" d="M573 84q-17 -47 -80 -79q-51 -24 -102 -24q-60 0 -97 70q-101 -62 -173 -62q-63 0 -78 55q-11 50 15 118q40 112 154 212q121 106 232 106q56 0 83 -40q28 -37 7 -94q-13 -30 -39 -61q-35 -38 -63 -38q-20 0 -27 51q-7 52 -53 52q-89 0 -135 -126q-36 -99 15 -99 q22 0 81 48q58 49 93 49q27 0 52 -52q25 -51 56 -51q5 0 17.5 2t18.5 2q36 0 23 -39z" />
<glyph unicode="b" horiz-adv-x="471" d="M585 295q-41 -111 -153 -211q-121 -103 -227 -103q-114 0 -133 96q-16 79 29 201q54 146 182 377q85 151 135.5 243t67.5 129q19 54 75 157q36 48 74 48q12 0 9 -44q-1 -22 -3 -37t-4 -23q-14 -37 -35 -81t-49 -98q-25 -45 -49 -89t-47 -89q-146 -282 -201 -430 q-84 -227 48 -227q36 0 75 45q14 19 25 38t19 39q26 69 -8 90q-9 7 -72 15q-41 8 -29 40q16 43 75 75q50 25 101 25q78 0 101 -53t-6 -133z" />
<glyph unicode="c" horiz-adv-x="428" d="M556 336q-10 -25 -37 -53q-27 -27 -50 -27q-19 0 -35 52t-67 52q-104 0 -138 -94q-21 -54 -2 -100q20 -47 72 -47q32 0 75 28q47 29 66 29q42 0 28 -41q-7 -20 -38 -45q-125 -108 -241 -108q-86 0 -117 69q-28 67 3 154q35 100 147 188q109 88 211 88q69 0 106 -37 q41 -44 17 -108z" />
<glyph unicode="d" horiz-adv-x="433" d="M449 370q-41 -35 -72 -35q-10 0 -28 6.5t-28 6.5q-68 0 -113 -121q-36 -102 51 -102q86 0 190 245zM654 582q-40 -109 -85 -200.5t-96 -168.5q-154 -232 -314 -232q-77 0 -102 51q-25 50 4 132q41 110 140 211q112 115 215 115q41 0 72 -22l12 35q87 238 135 477 q24 123 36 155q12 34 48 69q38 35 69 35q33 0 18 -84q-35 -174 -72.5 -316t-79.5 -257z" />
<glyph unicode="e" horiz-adv-x="442" d="M406 317q4 11 -3 24.5t-17 13.5q-39 0 -106 -63q-60 -55 -85 -97q201 95 211 122zM512 116q-22 -60 -166 -102q-113 -30 -192 -30q-168 0 -116 139q37 102 189 231q151 129 253 129q44 0 65 -34q22 -34 6 -80q-44 -120 -334 -248q18 -5 41 -5q46 0 123 19q42 10 68 15 t39 5q37 0 24 -39z" />
<glyph unicode="f" horiz-adv-x="452" d="M613 328q-19 -52 -103 -89q-33 -11 -66 -22.5t-67 -23.5l60 -120q24 -71 -4 -144q-37 -102 -145 -196q-116 -101 -215 -101q-115 0 -120 140q0 102 50 240q32 88 103.5 227.5t183.5 337.5q63 109 117.5 211t102.5 202q25 54 75 165q36 72 111 87l7 -23q-8 -41 -27 -93 q-31 -85 -81.5 -190.5t-120.5 -234.5q-112 -201 -169 -305t-63 -116q-26 -49 -46.5 -95.5t-36.5 -92.5q-119 -323 20 -323q55 0 89 97q24 68 -31 170q-54 104 -42 136q17 50 182 125q157 72 215 72q36 0 21 -41z" />
<glyph unicode="g" horiz-adv-x="480" d="M498 39q-49 -138 -189 -260q-152 -128 -290 -128q-45 0 -32 34q10 26 48 58q40 31 69 36q10 2 23.5 5t32.5 7q122 39 181 200q13 36 -1 36q-17 0 -79 -20q-57 -18 -90 -18q-71 0 -105 54q-35 58 -10 128q41 107 174 209q133 103 241 103q46 0 73 -33q28 -31 11 -78 q-8 -20 -33 -39t-46 -19q-12 0 -28 25q-15 26 -52 26q-53 0 -111 -43q-58 -42 -78 -95q-12 -34 8 -70q21 -36 55 -36q22 0 83 23q63 23 94 23q99 0 51 -128z" />
<glyph unicode="h" horiz-adv-x="594" d="M835 162q-20 -51 -195 -126q-162 -66 -225 -66q-149 0 -87 167q7 19 18.5 45t27.5 59q17 34 28.5 58.5t17.5 40.5q-48 -14 -195 -192q-139 -166 -205 -166q-35 0 -21 38q44 118 276 611q54 112 97.5 214t78.5 199q3 9 7.5 27.5t9.5 39t10 39t8 28.5q10 20 33 40 q25 21 46 21q66 0 -19 -234q-26 -72 -63.5 -159.5t-88.5 -196.5q-75 -165 -115.5 -253.5t-48.5 -105.5q181 190 311 190q70 0 46 -67q-7 -18 -19.5 -45t-30.5 -64q-17 -36 -29.5 -63t-19.5 -46q-32 -86 33 -86q48 0 159 47t131 47q38 0 24 -41z" />
<glyph unicode="i" horiz-adv-x="157" d="M463 676q-14 -39 -54 -75q-39 -36 -78 -36q-68 0 -46 58q12 34 60 70q49 37 83 37q54 0 35 -54zM311 422q0 1 -84 -164q-16 -35 -38.5 -86.5t-53.5 -120.5q-12 -25 -51 -49q-38 -23 -64 -23q-29 0 0 81q11 28 34 76.5t60 117.5t64 114.5t46 68.5q38 44 75 44q35 0 12 -59 z" />
<glyph unicode="j" horiz-adv-x="348" d="M608 679q-14 -36 -59 -72q-44 -35 -78 -35q-24 0 -38.5 16t-5.5 38q12 37 61 74q49 39 85 39q16 0 28 -22q12 -21 7 -38zM466 324q-77 -209 -205 -400q-181 -271 -335 -271q-101 0 -121 131q-2 7 3 21q10 30 50 61q37 31 68 31q19 0 48 -53t53 -53q60 0 169 211 q76 145 123 276q7 18 15 55q5 19 8.5 33t7.5 23q12 35 46 63q34 31 65 31q63 0 5 -159z" />
<glyph unicode="k" horiz-adv-x="471" d="M527 53q-12 -32 -54 -60q-40 -28 -75 -28q-73 0 -137 29q-73 30 -87 86q-122 -111 -154 -111t-17 45q52 141 180 420q64 141 108.5 245t70.5 174q16 43 30 91.5t28 103.5q13 48 19.5 72.5t7.5 28.5q9 23 44 52q34 28 60 28q22 0 28 -22q12 -66 -91 -343 q-22 -60 -52.5 -134t-70.5 -165q-64 -148 -96.5 -221.5t-34.5 -77.5q162 150 310 208q28 11 40 11q41 0 27 -38q-17 -48 -132 -109q-114 -61 -133 -113q-22 -66 45 -97q31 -10 61 -19t60 -19q26 -11 15 -37z" />
<glyph unicode="l" horiz-adv-x="135" d="M534 1082q-80 -218 -300 -756q-33 -80 -63 -159q-48 -124 -70 -147q-35 -45 -72 -45t-3 97q22 60 52.5 139t69.5 182q48 120 79.5 199.5t48.5 122.5q37 99 78 207.5t86 234.5q9 24 49 52t64 28q12 0 16.5 -7.5t2 -25.5t-12 -47.5t-25.5 -74.5z" />
<glyph unicode="m" horiz-adv-x="580" d="M618 92q-34 -90 -103 -118q-17 -9 -35 -9q-33 0 -21 55q4 9 8 21.5t9 28.5q40 139 27 210q-29 -36 -63 -96q-21 -38 -35 -61.5t-21 -33.5q-56 -86 -123 -86q-41 0 -17 69q5 10 11.5 25.5t14.5 36.5q8 22 14 37.5t10 26.5q58 157 13 157q-44 0 -131 -128q-35 -54 -59 -96 t-35 -73q-2 -7 0 -16.5t-2 -17.5q-8 -20 -32 -35q-26 -17 -45 -17q-22 0 -29 30q-5 31 5 56q42 118 171 259q147 163 251 163q74 0 63 -122q106 94 150 94q59 0 46 -153q-11 -122 -42 -207z" />
<glyph unicode="n" horiz-adv-x="355" d="M481 309q-42 -118 -136 -251q-53 -74 -116 -74q-39 0 -22 38q10 31 37 77q44 74 44 77q14 25 27 55t26 66q19 49 7 49q-48 0 -148 -133q-87 -117 -110 -179q-6 -20 -33 -38q-26 -21 -45 -21q-13 0 -16 34q-4 30 3 46q30 85 131 201q97 111 189 171q85 54 132 54 q41 0 46 -66q3 -57 -16 -106z" />
<glyph unicode="o" d="M401 203q19 49 -9 96q-27 46 -75 46q-70 0 -121 -138q-34 -94 41 -94q42 0 92 24q58 27 72 66zM563 265q-39 -110 -174 -197q-136 -86 -246 -86q-73 0 -96 44t4 117q40 115 150 222q125 116 232 116q82 0 121 -68q40 -67 9 -148z" />
<glyph unicode="p" horiz-adv-x="403" d="M350 193q14 41 5 94q-12 59 -48 59q-49 0 -128 -196q25 -49 63 -49q73 0 108 92zM503 253q-34 -93 -136 -180q-107 -87 -198 -87q-21 0 -38 5q-1 -8 -6 -40.5t-16 -92.5q-12 -86 -27 -130q-11 -29 -53 -59q-44 -32 -69 -32t-27 26q-2 32 2.5 80.5t17.5 112.5 q13 59 27 108t29 91q49 136 150 264q131 161 249 161q73 0 101 -79q22 -72 -6 -148z" />
<glyph unicode="q" horiz-adv-x="428" d="M512 218q-16 -45 -56 -128t-104 -210q-11 -24 -29 -59t-41 -81q-17 -26 -57 -55q-41 -29 -66 -29q-39 0 -14 70q7 17 21 45t34 70q124 240 165 354q57 151 -12 151q-24 0 -46.5 -9.5t-41.5 -26t-34 -38.5t-24 -47q-50 -135 68 -135q37 0 27 -30q-15 -41 -66 -60 q-34 -14 -81 -14q-78 0 -102 60q-19 55 12 137q41 112 164 205q125 95 234 95q145 0 49 -265z" />
<glyph unicode="r" horiz-adv-x="440" d="M594 317q-10 -28 -53 -60q-44 -30 -72 -30q-20 0 -40 56q-20 57 -64 57q-78 0 -138 -94q-22 -43 -44 -85.5t-45 -87.5q-54 -91 -124 -91q-35 0 -22 37q9 26 46.5 108t106.5 225q58 121 108 121q19 0 12 -75q121 82 215 82q68 0 103 -48t11 -115z" />
<glyph unicode="s" horiz-adv-x="420" d="M620 416q-11 -22 -37 -38q-29 -18 -49 -18q-10 0 -23.5 0.5t-32.5 1.5q-36 3 -55 3q-53 0 -102 -20q23 -19 46.5 -37.5t47.5 -36.5q46 -46 20 -117q-32 -86 -138 -134q-88 -38 -181 -38q-18 0 -68 14q-51 12 -46 26q10 27 45 54q34 28 66 35q18 3 47 3h58q11 0 29 -6 t28 -6q6 0 8 2q16 46 -63 101q-80 56 -66 95q23 67 160 128q124 53 196 53q26 0 69 -20q49 -22 41 -45z" />
<glyph unicode="t" horiz-adv-x="326" d="M573 442q-10 -28 -47 -54q-38 -26 -65 -26q-10 0 -101 3q-19 -45 -37.5 -89.5t-37.5 -89.5q-60 -135 -85 -166q-36 -41 -75 -41q-9 0 -6 42q5 44 9 59q10 28 39.5 97t78.5 183q-32 -2 -59 -3.5t-49 -1.5q-30 0 -20 31q23 58 174 83q46 112 91.5 227.5t90.5 242.5 q9 25 49 50q41 26 64 26q31 0 10 -71q-6 -24 -18 -57q-31 -85 -72.5 -186.5t-93.5 -219.5q4 0 9 0.5t13 1.5h21q22 0 72 -15q51 -14 45 -26z" />
<glyph unicode="u" horiz-adv-x="541" d="M591 101q-11 -29 -55 -61q-43 -31 -72 -31q-34 0 -51 131q-155 -158 -278 -158q-70 0 -89 61q-12 55 15 129q23 61 115 176q106 132 152 132q34 0 22 -36q-11 -26 -69 -102q-60 -79 -74 -117q-14 -40 -7 -70q5 -41 37 -41q53 0 130 132q87 147 148 177q26 14 43 14 q24 0 27 -27q1 -7 0 -106q0 -38 3 -85.5t8 -105.5z" />
<glyph unicode="v" horiz-adv-x="369" d="M614 422q-5 -16 -37 -45q-64 -60 -105.5 -99.5t-60.5 -59.5q-39 -39 -76.5 -81.5t-73.5 -88.5q-10 -12 -23.5 -24t-32.5 -23q-37 -22 -58 -22q-27 0 -28 21q-5 43 4 106q5 45 7.5 72t2.5 37q1 29 0 69.5t-5 94.5q-3 23 5 48q3 9 11.5 18.5t19.5 17.5t22.5 13t20.5 5 q78 0 66 -268q260 248 314 248q40 0 27 -39z" />
<glyph unicode="w" horiz-adv-x="642" d="M800 372q-42 -118 -163 -230q-134 -123 -248 -123q-75 0 -99 75q-122 -110 -198 -110q-55 0 -54 79q5 60 30 130q13 34 33.5 75t48.5 92q75 128 118 128q30 0 17 -36q-7 -19 -19.5 -47.5t-30.5 -67.5q-17 -39 -29.5 -67.5t-19.5 -47.5q-43 -118 -3 -118l15 17 q154 166 217 166q28 0 35 -67q9 -66 47 -66q93 0 175 232q12 31 51 63q40 31 72 31q45 0 5 -108z" />
<glyph unicode="x" horiz-adv-x="439" d="M620 442q-12 -32 -62 -65q-51 -35 -96 -67.5t-85 -63.5q80 -154 67 -191q-10 -26 -48 -52q-35 -24 -63 -24q-18 0 -92 158q-193 -148 -252 -148q-15 0 -28 10t-8 23q17 45 71 57q76 40 188 133q-58 136 -31 208q7 21 32 40q25 21 45 21q17 0 34 -48q13 -32 25.5 -61 t23.5 -55q205 163 256 163q37 0 23 -38z" />
<glyph unicode="y" horiz-adv-x="474" d="M544 154q-35 -99 -90 -209.5t-131 -235.5q-18 -29 -53 -53t-65 -24q-34 0 -14 53q13 35 37.5 87t59.5 121q36 69 60.5 120t37.5 86q2 7 6 18t9 26q-159 -161 -256 -161q-153 0 -44 301q54 147 131 191q17 11 34 11q29 0 19 -31q-1 -6 -20 -31q-5 -6 -11.5 -20t-14.5 -36 q-95 -261 -5 -261q27 0 107 104q48 66 99 135q19 24 55 49q38 26 60 26q46 0 30 -111q-5 -36 -15 -74.5t-26 -80.5z" />
<glyph unicode="z" horiz-adv-x="449" d="M596 379q-36 -96 -236 -225q148 0 104 -116q-39 -109 -240 -244q-47 -30 -72 -30q-39 0 -22 41q8 24 86 86t89 95q12 33 -52 33q-41 0 -113 -21q-75 -23 -84 -23q-35 0 -22 37q22 57 211 172q190 115 200 145q10 28 -41 28q-45 0 -136 -15q-46 -7 -79.5 -10.5t-55.5 -3.5 q-81 0 -61 51q8 25 51 44q40 17 65 17q23 0 58.5 5t86.5 15t87.5 15t60.5 5q56 0 91 -23q42 -27 24 -78z" />
<glyph unicode="{" horiz-adv-x="618" d="M630 61q-10 -30 -54 -59q-43 -28 -74 -28q-336 0 -255 224q43 118 180 210q30 19 90 63q-23 9 -44 9q-34 0 -104 -12q-35 -5 -60.5 -8t-42.5 -3q-24 0 -54 12q-35 14 -28 33q19 49 94 89q48 22 125 30q87 10 126 24q2 5 4 7l3 3q5 19 -17 48q-13 22 -21.5 40.5 t-12.5 34.5q-13 57 12 127q51 140 206 238q145 93 290 93q50 0 36 -35q-5 -17 -32 -38q-26 -20 -46 -23q-10 -1 -24 -2t-34 -3q-81 -11 -147 -51q-79 -47 -104 -120q-28 -73 19 -140q47 -65 28 -114q-15 -44 -68 -97q98 -26 82 -69q-19 -51 -148 -147q-128 -95 -144 -139 q-27 -74 33 -110q30 -19 119 -39q79 -16 67 -48z" />
<glyph unicode="|" horiz-adv-x="157" d="M546 1082q-29 -81 -84.5 -221.5t-137.5 -346.5q-187 -468 -213 -497q-32 -33 -80 -45l-14 22q3 30 27 96q23 61 54 142t73 184q48 123 79 203.5t47 122.5q35 93 73.5 195t81.5 220q9 24 49 52t64 28q26 0 19 -34t-38 -121z" />
<glyph unicode="}" horiz-adv-x="611" d="M864 703q-19 -49 -98 -89q-53 -23 -126 -32q-89 -9 -123 -22q-6 -6 -7 -10q-5 -20 17 -50q28 -43 36 -73q14 -57 -12 -128q-51 -140 -206 -238q-146 -87 -290 -87q-46 0 -36 28q7 18 30 38q24 21 43 23l60 9q82 10 150 49q79 47 104 118q27 77 -21 142q-47 68 -28 114 q17 48 66 97q-97 24 -82 67q19 48 150 147q132 99 147 139q4 8 4 35q-2 63 -67 90q-11 5 -114 29q-57 12 -45 44q11 31 54 62t74 31q139 0 209 -46q91 -60 44 -185q-41 -116 -179 -208q-16 -10 -38.5 -25.5t-52.5 -37.5q14 -7 45 -7q34 0 105 12q70 12 105 12q22 0 55 -15 q33 -14 27 -33z" />
<glyph unicode="~" horiz-adv-x="473" d="M567 270q-22 -60 -108 -125t-145 -65q-48 0 -84 48q-35 48 -51 48v-4l-49 -49q-35 -29 -58 -29q-31 0 -19 32q2 7 27 38q103 124 200 124q44 0 70 -29q37 -39 53 -46q87 94 136 94q41 0 28 -37z" />
<glyph unicode="&#xa1;" horiz-adv-x="324" d="M681 1137q-13 -38 -66 -79t-89 -41q-20 0 -31 32q-9 35 -2 55q14 37 67 87t89 50q15 0 27 -44t5 -60zM543 925q-5 -12 -25 -59t-57 -132q-12 -24 -207 -447q-14 -30 -26.5 -59.5t-24.5 -58.5q-16 -35 -31.5 -64t-31.5 -52q-50 -71 -109 -71q-38 0 -22 40q10 30 36 88.5 t71 148.5q38 76 93.5 188.5t128.5 265.5q36 83 73 161q64 118 120 118q36 0 12 -67z" />
<glyph unicode="&#xa2;" horiz-adv-x="495" d="M614 961q-7 1 -11 1.5t-6 0.5q-48 0 -95 -41q-45 -41 -63 -93q-20 -54 -29.5 -94t-8.5 -66q61 87 114 159t99 133zM802 843q-34 -94 -106 -104l-18 15l8 79q2 52 -8 72l-239 -321q25 -19 70 -19q12 0 41 6q28 6 42 6q41 0 26 -41q-17 -46 -96 -77q-68 -27 -121 -27 q-40 0 -66 10q-29 -42 -46 -66t-21 -30q-51 -61 -91 -61q-30 0 -20 31q10 21 114 172q-59 84 0 246q44 122 161 232q128 119 242 119h17h9t8 -1q108 148 161 148q37 0 24 -36q-1 -2 -28.5 -39t-84.5 -111q68 -74 22 -203z" />
<glyph unicode="&#xa5;" horiz-adv-x="788" d="M1200 1094q-5 -14 -27 -57t-62 -115q-43 -76 -104.5 -179.5t-146.5 -239.5q30 4 48 5.5t24 1.5q38 0 25 -37q-23 -65 -151 -86q70 9 88 9q40 0 26 -38q-27 -75 -203 -95q-13 -22 -23 -38.5t-18 -29.5q-37 -69 -55.5 -102.5t-19.5 -34.5q-58 -79 -121 -79q-40 0 -24 40 q26 72 123 239q-92 22 -84 42q16 48 78 65q28 5 72 5l9 16q-125 24 -116 46q26 71 186 70l112 182q-238 -211 -401 -211q-150 0 -172 138q-14 108 46 271q26 72 61 144t81 145q34 58 104 70l20 -16l-7 -18q1 2 -10.5 -18.5t-36.5 -65.5q-20 -40 -39.5 -82.5t-36.5 -88.5 q-47 -131 -42 -223q8 -125 123 -125q100 0 257 145q108 98 212 236l58 77q64 76 123 76q41 0 24 -44z" />
<glyph unicode="&#xa8;" horiz-adv-x="386" d="M713 1473q-10 -31 -64 -61q-53 -30 -84 -30q-9 0 -17 23q-7 21 -4 35q12 35 56 64q47 29 79 29q56 0 34 -60zM905 1476q-12 -32 -59 -64q-47 -30 -83 -30q-51 0 -38 40q16 40 55 77q39 39 75 39q27 0 43.5 -17t6.5 -45z" />
<glyph unicode="&#xa9;" horiz-adv-x="797" d="M918 367q-62 -171 -261 -285q-178 -100 -355 -100q-128 0 -189 66q-68 70 -21 198q29 77 116 179q89 103 167 157q34 22 53 22q35 0 23 -32q-2 -4 -100 -99q-97 -94 -124 -168q-56 -152 96 -189q-116 32 -82 126q30 86 167 190q140 104 225 104q28 0 47 -19 q22 -20 11 -46q-3 -11 -12 -21t-20.5 -17.5t-24.5 -12t-23 -4.5q-5 0 -15.5 2t-15.5 2q-60 0 -133 -58q-48 -36 -58 -63q-19 -49 65 -63q14 -2 45 -3t80 -1q40 0 27 -37q-10 -31 -65 -65q171 49 213 167q57 152 -123 275l-40 27q-25 19 -18 44q10 29 51 58t69 29q8 0 36 -11 q268 -132 189 -352z" />
<glyph unicode="&#xab;" horiz-adv-x="698" d="M411 101q-10 -30 -50 -58q-41 -29 -69 -29q-12 0 -22 6q-12 8 -39.5 31.5t-70.5 62.5q-87 83 -83 93q13 39 99 83q10 5 40.5 19t82.5 37q56 24 124 74q34 24 55 24q32 0 19 -34q-26 -72 -212 -161q148 -90 126 -148zM724 101q-11 -29 -50 -58q-41 -29 -68 -29 q-14 0 -24 6q-12 8 -39 31.5t-69 62.5q-87 83 -83 93q13 39 97 83q11 5 41.5 19t81.5 37q52 22 126 74q34 24 53 24q34 0 21 -34q-26 -72 -212 -161q147 -90 125 -148z" />
<glyph unicode="&#xad;" d="M556 259q-8 -23 -46 -52q-37 -28 -66 -34t-94 -6q-10 0 -23.5 0.5t-32.5 1.5q-36 3 -55 3q-16 0 -47 -3q-16 -1 -27.5 -1.5t-19.5 -0.5q-15 0 -43 12q-29 13 -25 26q11 31 54 53q77 41 282 41q159 0 143 -40z" />
<glyph unicode="&#xae;" horiz-adv-x="893" d="M630 555q24 63 -4 63q-52 0 -140 -210q42 23 64 37t27 19q29 26 53 91zM1048 439q-67 -182 -277 -323q-202 -130 -387 -130q-171 0 -239 104q-68 107 -5 275q23 64 61.5 126.5t92.5 125.5q110 125 240 199q24 12 34 12q33 0 21 -33q-8 -20 -65 -65q-40 -31 -59.5 -46.5 t-20.5 -16.5q-113 -104 -162 -240q-60 -162 27 -251q3 67 26 128q98 272 250 384q79 60 137 60q55 0 66 -53q11 -48 -11 -104q-48 -132 -212 -239q19 -11 37.5 -23t37.5 -24q46 -34 31 -76q-11 -29 -50 -57q-39 -27 -68 -27q-35 0 -138 87q-25 -66 -63 -89q49 -27 128 -27 q124 0 239 70q125 75 168 196q29 86 2 169q-19 52 -68 123q-41 56 -36 70q10 28 53 60q43 34 72 34q19 0 66 -50q146 -146 72 -349z" />
<glyph unicode="&#xb0;" horiz-adv-x="304" d="M548 1024q17 44 -31 68q-10 -10 -17 -25q-17 -50 38 -50q9 0 10 7zM696 1079q-27 -74 -107 -127t-152 -53q-109 0 -67 116q23 66 77 111l5 12q16 41 60 67t87 26q61 0 90 -45q29 -43 7 -107z" />
<glyph unicode="&#xb1;" horiz-adv-x="469" d="M573 300q-8 -24 -45 -52q-36 -28 -62 -33q-19 -4 -43.5 -6t-53.5 -1l-17 -48q-16 -45 -58 -76h41q158 2 143 -40q-9 -25 -46 -50q-36 -27 -65 -33t-96 -6q-18 0 -55 3q-19 1 -32.5 1.5t-23.5 0.5q-8 0 -19.5 -0.5t-27.5 -1.5q-32 -3 -46 -3q-16 0 -41 12q-30 13 -27 25 q28 73 213 88q-1 28 3 41q8 23 16 45.5t18 45.5l-10 1q-14 0 -41 -3q-13 -1 -22.5 -1.5t-15.5 -0.5q-16 0 -41 12q-30 14 -27 26q12 29 56 53q55 30 149 36l10 32q5 11 10 24t12 27q6 9 15.5 18.5t20.5 17t22.5 12.5t20.5 5q51 0 5 -133q51 1 77 1.5t31 0.5q15 0 36 -12 q22 -12 16 -28z" />
<glyph unicode="&#xb4;" horiz-adv-x="345" d="M852 1498q-2 -3 -5.5 -8t-8.5 -12q-20 -28 -116 -96q-159 -111 -188 -111q-42 0 -25 41q12 34 175 152q103 75 139 75q43 0 29 -41z" />
<glyph unicode="&#xb6;" horiz-adv-x="913" d="M1176 761q2 5 -15.5 -36.5t-54.5 -132.5q-42 -102 -103 -251t-146 -350q-29 -68 -57 -108q-54 -82 -119 -82q-39 0 -24 41q5 14 33 80t80 187q32 75 89.5 213.5t142.5 344.5q10 23 14.5 36t5.5 16q60 161 40 256q-29 122 -140 122q-125 0 -296 -117q-177 -122 -222 -244 q-39 -107 28 -186q58 -70 164 -89q17 46 28 75t16 41q60 161 82 249q17 63 25 92.5t7 26.5q9 28 45 55t63 27q22 0 24 -23q3 -80 -79 -299q-14 -40 -38 -100.5t-57 -141.5q37 10 94 58q49 40 73 40q31 0 17 -35q-5 -15 -32 -45q-82 -94 -195 -124q-29 -70 -77.5 -198.5 t-117.5 -317.5q-6 -19 -34 -37q-27 -18 -46 -18q-22 0 -22 20q-3 61 79 283q29 82 97 252q-155 1 -246 96q-97 103 -41 256q63 175 323 357q259 181 438 181q110 0 166 -81q48 -73 37 -187q-6 -89 -49 -202z" />
<glyph unicode="&#xbb;" horiz-adv-x="642" d="M725 246q-14 -42 -167 -134q-155 -93 -196 -93q-38 0 -24 39q15 38 203 145q-136 134 -119 176q4 10 13 21t20 19.5t23.5 14t23.5 5.5t123 -91q16 -11 31.5 -22.5t29.5 -23.5q48 -36 39 -56zM451 246q-14 -41 -168 -134q-153 -93 -196 -93q-38 0 -24 39q16 38 203 145 q-136 134 -119 176q4 11 12.5 21.5t20 19t24.5 14t25 5.5t121 -91q16 -11 31.5 -22.5t31.5 -23.5q46 -36 38 -56z" />
<glyph unicode="&#xbf;" horiz-adv-x="836" d="M1251 1149q-19 -52 -81 -97t-114 -45q-18 0 -40 16t-18 32q21 56 89 116q67 61 121 61q16 0 33 -33q17 -35 10 -50zM918 237q-12 -28 -89 -87q-65 -47 -107 -70q-204 -101 -425 -101q-117 0 -181 38q-82 52 -44 159q41 112 264 263q109 75 396 237q212 119 224 152 q0 2 -2.5 14t-2.5 23q0 8 3 16q10 30 51 62q40 33 70 33t44 -29q13 -28 1 -60q-36 -99 -255 -237q-102 -57 -200.5 -114.5t-198.5 -115.5q-215 -125 -239 -188q-44 -126 201 -126q171 0 352 97l-2 4q63 78 115 78q41 0 25 -48z" />
<glyph unicode="&#xc0;" horiz-adv-x="870" d="M143 0zM995 96q-12 -33 -56 -63t-77 -30q-17 0 -45 16q-69 37 -92 116q-214 -149 -360 -149q-172 0 -222 164q-41 148 24 330q97 265 357 489q61 52 125 96.5t133 81.5q164 89 274 89q226 0 94 -357q-23 -67 -64.5 -150.5t-102.5 -184.5q-152 -257 -237 -257 q-32 0 -21 29q1 2 3 5t4 7q207 303 273 489q104 287 -48 287q-124 0 -312 -143q-230 -179 -317 -418q-92 -248 24 -369q49 -51 119 -51q83 0 223 98t163 98q22 0 29 -25q13 -76 29 -98q8 -15 68 -63q21 -15 12 -37zM1049 1312q-15 -41 -58 -41q-29 0 -107 111q-34 52 -36 52 q-17 32 -5 64q14 41 54 41q34 0 84 -75q79 -119 68 -152z" />
<glyph unicode="&#xc1;" horiz-adv-x="870" d="M143 0zM995 96q-12 -33 -56 -63t-77 -30q-17 0 -45 16q-69 37 -92 116q-214 -149 -360 -149q-172 0 -222 164q-41 148 24 330q97 265 357 489q61 52 125 96.5t133 81.5q164 89 274 89q226 0 94 -357q-23 -67 -64.5 -150.5t-102.5 -184.5q-152 -257 -237 -257 q-32 0 -21 29q1 2 3 5t4 7q207 303 273 489q104 287 -48 287q-124 0 -312 -143q-230 -179 -317 -418q-92 -248 24 -369q49 -51 119 -51q83 0 223 98t163 98q22 0 29 -25q13 -76 29 -98q8 -15 68 -63q21 -15 12 -37zM1262 1498q-2 -3 -5.5 -8t-8.5 -12q-20 -28 -116 -96 q-159 -111 -188 -111q-42 0 -25 41q12 34 175 152q103 75 139 75q43 0 29 -41z" />
<glyph unicode="&#xc2;" horiz-adv-x="870" d="M143 0zM995 96q-12 -33 -56 -63t-77 -30q-17 0 -45 16q-69 37 -92 116q-214 -149 -360 -149q-172 0 -222 164q-41 148 24 330q97 265 357 489q61 52 125 96.5t133 81.5q164 89 274 89q226 0 94 -357q-23 -67 -64.5 -150.5t-102.5 -184.5q-152 -257 -237 -257 q-32 0 -21 29q1 2 3 5t4 7q207 303 273 489q104 287 -48 287q-124 0 -312 -143q-230 -179 -317 -418q-92 -248 24 -369q49 -51 119 -51q83 0 223 98t163 98q22 0 29 -25q13 -76 29 -98q8 -15 68 -63q21 -15 12 -37zM1239 1403q-10 -26 -49 -59q-41 -32 -67 -32q-30 0 -34 54 q-5 54 -20 54q-24 0 -84 -51q-62 -50 -87 -50q-31 0 -19 31q19 50 121 119q103 69 156 69q48 0 74 -44q25 -43 9 -91z" />
<glyph unicode="&#xc3;" horiz-adv-x="870" d="M143 0zM995 96q-12 -33 -56 -63t-77 -30q-17 0 -45 16q-69 37 -92 116q-214 -149 -360 -149q-172 0 -222 164q-41 148 24 330q97 265 357 489q61 52 125 96.5t133 81.5q164 89 274 89q226 0 94 -357q-23 -67 -64.5 -150.5t-102.5 -184.5q-152 -257 -237 -257 q-32 0 -21 29q1 2 3 5t4 7q207 303 273 489q104 287 -48 287q-124 0 -312 -143q-230 -179 -317 -418q-92 -248 24 -369q49 -51 119 -51q83 0 223 98t163 98q22 0 29 -25q13 -76 29 -98q8 -15 68 -63q21 -15 12 -37zM1386 1519q-22 -59 -106 -125q-83 -65 -143 -65 q-48 0 -84 48q-35 48 -51 48l-2 -3q-11 -13 -23.5 -25.5t-25.5 -24.5q-32 -29 -60 -29q-30 0 -19 33q2 3 9 12t20 25q105 125 200 125q45 0 72 -29q34 -38 53 -46q85 93 133 93q40 0 27 -37z" />
<glyph unicode="&#xc4;" horiz-adv-x="870" d="M143 0zM995 96q-12 -33 -56 -63t-77 -30q-17 0 -45 16q-69 37 -92 116q-214 -149 -360 -149q-172 0 -222 164q-41 148 24 330q97 265 357 489q61 52 125 96.5t133 81.5q164 89 274 89q226 0 94 -357q-23 -67 -64.5 -150.5t-102.5 -184.5q-152 -257 -237 -257 q-32 0 -21 29q1 2 3 5t4 7q207 303 273 489q104 287 -48 287q-124 0 -312 -143q-230 -179 -317 -418q-92 -248 24 -369q49 -51 119 -51q83 0 223 98t163 98q22 0 29 -25q13 -76 29 -98q8 -15 68 -63q21 -15 12 -37zM1000 1473q-10 -31 -64 -61q-53 -30 -84 -30q-9 0 -17 23 q-7 21 -4 35q12 35 56 64q47 29 79 29q56 0 34 -60zM1192 1476q-12 -32 -59 -64q-47 -30 -83 -30q-51 0 -38 40q16 40 55 77q39 39 75 39q27 0 43.5 -17t6.5 -45z" />
<glyph unicode="&#xc5;" horiz-adv-x="870" d="M143 0zM995 96q-12 -33 -56 -63t-77 -30q-17 0 -45 16q-69 37 -92 116q-214 -149 -360 -149q-172 0 -222 164q-41 148 24 330q97 265 357 489q61 52 125 96.5t133 81.5q164 89 274 89q226 0 94 -357q-23 -67 -64.5 -150.5t-102.5 -184.5q-152 -257 -237 -257 q-32 0 -21 29q1 2 3 5t4 7q207 303 273 489q104 287 -48 287q-124 0 -312 -143q-230 -179 -317 -418q-92 -248 24 -369q49 -51 119 -51q83 0 223 98t163 98q22 0 29 -25q13 -76 29 -98q8 -15 68 -63q21 -15 12 -37zM1137 1457q15 45 -33 69q-11 -11 -15 -24q-17 -50 37 -50 q9 0 11 5zM1285 1514q-27 -74 -108 -128q-80 -53 -153 -53q-109 0 -67 118q24 63 79 109l5 14q14 41 59 66q47 26 88 26q62 0 90 -46q29 -47 7 -106z" />
<glyph unicode="&#xc6;" horiz-adv-x="1618" d="M1138 560q-77 36 -82 116q-201 -389 -310 -389q-32 0 -21 29q1 2 3 5t4 7q210 313 273 489q104 287 -48 287q-127 0 -312 -143q-230 -179 -317 -418q-92 -248 24 -369q49 -51 119 -51q83 0 223 98t163 98q7 0 15 -8q85 134 266 249zM1789 150q-21 -53 -101 -88 q-41 -17 -108.5 -31.5t-164.5 -27.5q-88 -10 -156 -15.5t-119 -5.5q-132 0 -218 40q-31 -19 -60 -19q-17 0 -45 16q-69 36 -92 116q-214 -149 -360 -149q-172 0 -222 164q-41 148 24 330q97 265 357 489q61 52 125 96.5t133 81.5q164 89 274 89q224 0 94 -354 q117 142 284 244q175 106 326 106q88 0 153 -41q74 -50 46 -133q-13 -34 -66 -91q-53 -56 -86 -56q-29 0 -17 29q2 6 7.5 14.5t11.5 18t11.5 18t7.5 14.5q39 104 -152 104q-154 0 -311 -126q-107 -87 -138 -174q-32 -89 38 -120q46 -17 150 -17q45 0 31 -41q-19 -50 -91 -81 q-28 -11 -56.5 -20.5t-57.5 -19.5q-195 -77 -243 -210q-66 -181 270 -181q84 0 248 34q172 35 249 35q38 0 24 -38z" />
<glyph unicode="&#xc8;" horiz-adv-x="807" d="M67 0zM1014 150q-22 -60 -104 -92q-42 -16 -110 -29.5t-165 -26.5q-84 -10 -151.5 -15t-119.5 -5q-154 0 -239 54q-107 71 -58 208q58 164 297 316q-120 51 -70 188q35 95 150 209q51 52 104 94.5t109 74.5q181 106 326 106q89 0 154 -41q74 -50 46 -133 q-7 -17 -24 -39.5t-43 -51.5q-53 -56 -85 -56q-27 0 -16 29q4 12 18 32q15 21 18 33q41 104 -152 104q-151 0 -307 -126q-113 -90 -141 -174q-33 -89 39 -120q45 -17 150 -17q43 0 29 -41q-20 -51 -90 -81q-29 -11 -57.5 -20.5t-57.5 -19.5q-194 -78 -242 -210 q-67 -181 270 -181q84 0 248 34q172 35 248 35q40 0 26 -38zM988 1312q-15 -41 -58 -41q-29 0 -107 111q-34 52 -36 52q-17 32 -5 64q14 41 54 41q34 0 84 -75q79 -119 68 -152z" />
<glyph unicode="&#xc9;" horiz-adv-x="807" d="M67 0zM1014 150q-22 -60 -104 -92q-42 -16 -110 -29.5t-165 -26.5q-84 -10 -151.5 -15t-119.5 -5q-154 0 -239 54q-107 71 -58 208q58 164 297 316q-120 51 -70 188q35 95 150 209q51 52 104 94.5t109 74.5q181 106 326 106q89 0 154 -41q74 -50 46 -133 q-7 -17 -24 -39.5t-43 -51.5q-53 -56 -85 -56q-27 0 -16 29q4 12 18 32q15 21 18 33q41 104 -152 104q-151 0 -307 -126q-113 -90 -141 -174q-33 -89 39 -120q45 -17 150 -17q43 0 29 -41q-20 -51 -90 -81q-29 -11 -57.5 -20.5t-57.5 -19.5q-194 -78 -242 -210 q-67 -181 270 -181q84 0 248 34q172 35 248 35q40 0 26 -38zM1221 1498q-2 -3 -5.5 -8t-8.5 -12q-20 -28 -116 -96q-159 -111 -188 -111q-42 0 -25 41q12 34 175 152q103 75 139 75q43 0 29 -41z" />
<glyph unicode="&#xca;" horiz-adv-x="807" d="M67 0zM1014 150q-22 -60 -104 -92q-42 -16 -110 -29.5t-165 -26.5q-84 -10 -151.5 -15t-119.5 -5q-154 0 -239 54q-107 71 -58 208q58 164 297 316q-120 51 -70 188q35 95 150 209q51 52 104 94.5t109 74.5q181 106 326 106q89 0 154 -41q74 -50 46 -133 q-7 -17 -24 -39.5t-43 -51.5q-53 -56 -85 -56q-27 0 -16 29q4 12 18 32q15 21 18 33q41 104 -152 104q-151 0 -307 -126q-113 -90 -141 -174q-33 -89 39 -120q45 -17 150 -17q43 0 29 -41q-20 -51 -90 -81q-29 -11 -57.5 -20.5t-57.5 -19.5q-194 -78 -242 -210 q-67 -181 270 -181q84 0 248 34q172 35 248 35q40 0 26 -38zM1136 1403q-10 -26 -49 -59q-41 -32 -67 -32q-30 0 -34 54q-5 54 -20 54q-24 0 -84 -51q-62 -50 -87 -50q-31 0 -19 31q19 50 121 119q103 69 156 69q48 0 74 -44q25 -43 9 -91z" />
<glyph unicode="&#xcb;" horiz-adv-x="807" d="M67 0zM1014 150q-22 -60 -104 -92q-42 -16 -110 -29.5t-165 -26.5q-84 -10 -151.5 -15t-119.5 -5q-154 0 -239 54q-107 71 -58 208q58 164 297 316q-120 51 -70 188q35 95 150 209q51 52 104 94.5t109 74.5q181 106 326 106q89 0 154 -41q74 -50 46 -133 q-7 -17 -24 -39.5t-43 -51.5q-53 -56 -85 -56q-27 0 -16 29q4 12 18 32q15 21 18 33q41 104 -152 104q-151 0 -307 -126q-113 -90 -141 -174q-33 -89 39 -120q45 -17 150 -17q43 0 29 -41q-20 -51 -90 -81q-29 -11 -57.5 -20.5t-57.5 -19.5q-194 -78 -242 -210 q-67 -181 270 -181q84 0 248 34q172 35 248 35q40 0 26 -38zM1000 1473q-10 -31 -64 -61q-53 -30 -84 -30q-9 0 -17 23q-7 21 -4 35q12 35 56 64q47 29 79 29q56 0 34 -60zM1192 1476q-12 -32 -59 -64q-47 -30 -83 -30q-51 0 -38 40q16 40 55 77q39 39 75 39q27 0 43.5 -17 t6.5 -45z" />
<glyph unicode="&#xcc;" horiz-adv-x="191" d="M15 0zM633 1184q-4 -10 -12 -24t-19 -34q-115 -201 -225 -476q-23 -57 -67.5 -175t-113.5 -304q-14 -40 -27 -70t-26 -50q-50 -77 -119 -77q-35 0 -9 74q6 17 30.5 80.5t67.5 175.5q94 242 177.5 428.5t158.5 323.5q100 181 165 181q39 0 19 -53zM703 1312 q-15 -41 -58 -41q-29 0 -107 111q-34 52 -36 52q-17 32 -5 64q14 41 54 41q34 0 84 -75q79 -119 68 -152z" />
<glyph unicode="&#xcd;" horiz-adv-x="191" d="M15 0zM633 1184q-4 -10 -12 -24t-19 -34q-115 -201 -225 -476q-23 -57 -67.5 -175t-113.5 -304q-14 -40 -27 -70t-26 -50q-50 -77 -119 -77q-35 0 -9 74q6 17 30.5 80.5t67.5 175.5q94 242 177.5 428.5t158.5 323.5q100 181 165 181q39 0 19 -53zM852 1498q-2 -3 -5.5 -8 t-8.5 -12q-20 -28 -116 -96q-159 -111 -188 -111q-42 0 -25 41q12 34 175 152q103 75 139 75q43 0 29 -41z" />
<glyph unicode="&#xce;" horiz-adv-x="191" d="M15 0zM633 1184q-4 -10 -12 -24t-19 -34q-115 -201 -225 -476q-23 -57 -67.5 -175t-113.5 -304q-14 -40 -27 -70t-26 -50q-50 -77 -119 -77q-35 0 -9 74q6 17 30.5 80.5t67.5 175.5q94 242 177.5 428.5t158.5 323.5q100 181 165 181q39 0 19 -53zM831 1403 q-10 -26 -49 -59q-41 -32 -67 -32q-30 0 -34 54q-5 54 -20 54q-24 0 -84 -51q-62 -50 -87 -50q-31 0 -19 31q19 50 121 119q103 69 156 69q48 0 74 -44q25 -43 9 -91z" />
<glyph unicode="&#xcf;" horiz-adv-x="191" d="M15 0zM633 1184q-4 -10 -12 -24t-19 -34q-115 -201 -225 -476q-23 -57 -67.5 -175t-113.5 -304q-14 -40 -27 -70t-26 -50q-50 -77 -119 -77q-35 0 -9 74q6 17 30.5 80.5t67.5 175.5q94 242 177.5 428.5t158.5 323.5q100 181 165 181q39 0 19 -53zM674 1473 q-10 -31 -64 -61q-53 -30 -84 -30q-9 0 -17 23q-7 21 -4 35q12 35 56 64q47 29 79 29q56 0 34 -60zM866 1476q-12 -32 -59 -64q-47 -30 -83 -30q-51 0 -38 40q16 40 55 77q39 39 75 39q27 0 43.5 -17t6.5 -45z" />
<glyph unicode="&#xd1;" horiz-adv-x="882" d="M0 0zM1106 594q-131 -358 -336 -512q-133 -98 -263 -98q-35 0 -55 5q-151 31 -107 366q7 63 32.5 182.5t71.5 303.5q-31 -64 -70.5 -154.5t-88.5 -210.5q-52 -128 -91.5 -218t-65.5 -147q-35 -75 -51 -91q-39 -45 -77 -45q-24 0 -14 28q-1 -2 19 47t62 151 q45 118 91.5 235.5t94.5 237.5q124 297 234 459q68 104 134 104q48 0 14 -186q-13 -72 -75 -322q-26 -103 -41.5 -182t-20.5 -139q-30 -289 106 -289q179 0 316 374q36 100 66 205t53 220q1 5 21 116q6 36 13.5 66t15.5 54q10 28 54 60q47 32 74 32q26 0 25 -27 q-1 -13 -7 -54.5t-18 -111.5q-28 -145 -56.5 -258t-59.5 -201zM1222 1519q-22 -59 -106 -125q-83 -65 -143 -65q-48 0 -84 48q-35 48 -51 48l-2 -3q-11 -13 -23.5 -25.5t-25.5 -24.5q-32 -29 -60 -29q-30 0 -19 33q2 3 9 12t20 25q105 125 200 125q45 0 72 -29 q34 -38 53 -46q85 93 133 93q40 0 27 -37z" />
<glyph unicode="&#xd2;" horiz-adv-x="881" d="M125 0zM1125 654q-80 -221 -251 -395q-117 -119 -256 -194q-158 -83 -285 -83q-162 0 -208 129q-40 116 22 287q52 148 182 339q53 74 93 74q17 0 25 -23q-2 -5 -19.5 -34.5t-49.5 -84.5q-32 -54 -57 -105t-43 -100q-51 -139 -25 -240q28 -120 162 -120q147 0 302 128 q168 138 247 355q67 181 36 328q-38 174 -205 174q-86 0 -193 -56q-53 -29 -162 -108q-80 -56 -104 -56q-39 0 -25 36q8 22 35 49q61 56 127.5 103.5t140.5 87.5q169 91 289 91q203 0 254 -198q46 -169 -32 -384zM1008 1312q-15 -41 -58 -41q-29 0 -107 111q-34 52 -36 52 q-17 32 -5 64q14 41 54 41q34 0 84 -75q79 -119 68 -152z" />
<glyph unicode="&#xd3;" horiz-adv-x="881" d="M125 0zM1125 654q-80 -221 -251 -395q-117 -119 -256 -194q-158 -83 -285 -83q-162 0 -208 129q-40 116 22 287q52 148 182 339q53 74 93 74q17 0 25 -23q-2 -5 -19.5 -34.5t-49.5 -84.5q-32 -54 -57 -105t-43 -100q-51 -139 -25 -240q28 -120 162 -120q147 0 302 128 q168 138 247 355q67 181 36 328q-38 174 -205 174q-86 0 -193 -56q-53 -29 -162 -108q-80 -56 -104 -56q-39 0 -25 36q8 22 35 49q61 56 127.5 103.5t140.5 87.5q169 91 289 91q203 0 254 -198q46 -169 -32 -384zM1180 1498q-2 -3 -5.5 -8t-8.5 -12q-20 -28 -116 -96 q-159 -111 -188 -111q-42 0 -25 41q12 34 175 152q103 75 139 75q43 0 29 -41z" />
<glyph unicode="&#xd4;" horiz-adv-x="881" d="M125 0zM1125 654q-80 -221 -251 -395q-117 -119 -256 -194q-158 -83 -285 -83q-162 0 -208 129q-40 116 22 287q52 148 182 339q53 74 93 74q17 0 25 -23q-2 -5 -19.5 -34.5t-49.5 -84.5q-32 -54 -57 -105t-43 -100q-51 -139 -25 -240q28 -120 162 -120q147 0 302 128 q168 138 247 355q67 181 36 328q-38 174 -205 174q-86 0 -193 -56q-53 -29 -162 -108q-80 -56 -104 -56q-39 0 -25 36q8 22 35 49q61 56 127.5 103.5t140.5 87.5q169 91 289 91q203 0 254 -198q46 -169 -32 -384zM1136 1403q-10 -26 -49 -59q-41 -32 -67 -32q-30 0 -34 54 q-5 54 -20 54q-24 0 -84 -51q-62 -50 -87 -50q-31 0 -19 31q19 50 121 119q103 69 156 69q48 0 74 -44q25 -43 9 -91z" />
<glyph unicode="&#xd5;" horiz-adv-x="881" d="M125 0zM1125 654q-80 -221 -251 -395q-117 -119 -256 -194q-158 -83 -285 -83q-162 0 -208 129q-40 116 22 287q52 148 182 339q53 74 93 74q17 0 25 -23q-2 -5 -19.5 -34.5t-49.5 -84.5q-32 -54 -57 -105t-43 -100q-51 -139 -25 -240q28 -120 162 -120q147 0 302 128 q168 138 247 355q67 181 36 328q-38 174 -205 174q-86 0 -193 -56q-53 -29 -162 -108q-80 -56 -104 -56q-39 0 -25 36q8 22 35 49q61 56 127.5 103.5t140.5 87.5q169 91 289 91q203 0 254 -198q46 -169 -32 -384zM1222 1519q-22 -59 -106 -125q-83 -65 -143 -65 q-48 0 -84 48q-35 48 -51 48l-2 -3q-11 -13 -23.5 -25.5t-25.5 -24.5q-32 -29 -60 -29q-30 0 -19 33q2 3 9 12t20 25q105 125 200 125q45 0 72 -29q34 -38 53 -46q85 93 133 93q40 0 27 -37z" />
<glyph unicode="&#xd6;" horiz-adv-x="881" d="M125 0zM1125 654q-80 -221 -251 -395q-117 -119 -256 -194q-158 -83 -285 -83q-162 0 -208 129q-40 116 22 287q52 148 182 339q53 74 93 74q17 0 25 -23q-2 -5 -19.5 -34.5t-49.5 -84.5q-32 -54 -57 -105t-43 -100q-51 -139 -25 -240q28 -120 162 -120q147 0 302 128 q168 138 247 355q67 181 36 328q-38 174 -205 174q-86 0 -193 -56q-53 -29 -162 -108q-80 -56 -104 -56q-39 0 -25 36q8 22 35 49q61 56 127.5 103.5t140.5 87.5q169 91 289 91q203 0 254 -198q46 -169 -32 -384zM979 1473q-10 -31 -64 -61q-53 -30 -84 -30q-9 0 -17 23 q-7 21 -4 35q12 35 56 64q47 29 79 29q56 0 34 -60zM1171 1476q-12 -32 -59 -64q-47 -30 -83 -30q-51 0 -38 40q16 40 55 77q39 39 75 39q27 0 43.5 -17t6.5 -45z" />
<glyph unicode="&#xd7;" horiz-adv-x="389" d="M522 386q-15 -46 -169 -137q77 -101 65 -130q-8 -28 -44 -52t-62 -24q-22 0 -94 112q-140 -114 -170 -114q-31 0 -21 31q14 34 152 146q-44 91 -37 111q7 24 36 44t51 20q29 0 76 -77q151 106 195 106q35 0 22 -36z" />
<glyph unicode="&#xd8;" horiz-adv-x="881" d="M964 587q77 212 26 365q-121 -131 -297.5 -330.5t-409.5 -466.5q43 -51 132 -51q147 0 302 128q168 138 247 355zM1125 654q-83 -227 -251 -395q-60 -60 -123.5 -108.5t-132.5 -85.5q-155 -83 -285 -83q-103 0 -159 50q-59 -51 -106 -51q-38 0 -24 36q10 26 75 106 q-32 115 28 275q53 144 181 339q39 62 100 74l21 -19q-4 -8 -22 -39t-50 -85q-63 -105 -99 -204q-41 -115 -34 -198q54 60 133.5 148.5t185.5 208.5l369 418q-56 48 -137 48q-86 0 -193 -56q-53 -29 -162 -108q-80 -56 -104 -56q-39 0 -25 36q8 22 35 49q124 114 268 191 q166 91 289 91q97 0 164 -55q56 50 88 50q47 0 33 -41q-8 -17 -60 -81q99 -177 -3 -455z" />
<glyph unicode="&#xd9;" horiz-adv-x="915" d="M160 0zM1232 870q-164 -448 -493 -713q-212 -168 -374 -168q-209 0 -205 277q6 193 101 458q11 26 34 82.5t58 144.5q40 96 62.5 148t29.5 62q40 49 77 49q32 0 10 -61q-10 -29 -26 -71.5t-39 -99.5q-22 -57 -38 -99.5t-26 -71.5q-46 -127 -71.5 -232t-32.5 -193 q-21 -271 164 -271q36 0 92 24q324 145 524 696q19 52 54 159q17 54 30 93.5t23 65.5q10 28 53 57q43 31 72 31q24 0 20 -30q-15 -106 -99 -337zM1008 1312q-15 -41 -58 -41q-29 0 -107 111q-34 52 -36 52q-17 32 -5 64q14 41 54 41q34 0 84 -75q79 -119 68 -152z" />
<glyph unicode="&#xda;" horiz-adv-x="915" d="M160 0zM1232 870q-164 -448 -493 -713q-212 -168 -374 -168q-209 0 -205 277q6 193 101 458q11 26 34 82.5t58 144.5q40 96 62.5 148t29.5 62q40 49 77 49q32 0 10 -61q-10 -29 -26 -71.5t-39 -99.5q-22 -57 -38 -99.5t-26 -71.5q-46 -127 -71.5 -232t-32.5 -193 q-21 -271 164 -271q36 0 92 24q324 145 524 696q19 52 54 159q17 54 30 93.5t23 65.5q10 28 53 57q43 31 72 31q24 0 20 -30q-15 -106 -99 -337zM1159 1498q-2 -3 -5.5 -8t-8.5 -12q-20 -28 -116 -96q-159 -111 -188 -111q-42 0 -25 41q12 34 175 152q103 75 139 75 q43 0 29 -41z" />
<glyph unicode="&#xdb;" horiz-adv-x="915" d="M160 0zM1232 870q-164 -448 -493 -713q-212 -168 -374 -168q-209 0 -205 277q6 193 101 458q11 26 34 82.5t58 144.5q40 96 62.5 148t29.5 62q40 49 77 49q32 0 10 -61q-10 -29 -26 -71.5t-39 -99.5q-22 -57 -38 -99.5t-26 -71.5q-46 -127 -71.5 -232t-32.5 -193 q-21 -271 164 -271q36 0 92 24q324 145 524 696q19 52 54 159q17 54 30 93.5t23 65.5q10 28 53 57q43 31 72 31q24 0 20 -30q-15 -106 -99 -337zM1136 1403q-10 -26 -49 -59q-41 -32 -67 -32q-30 0 -34 54q-5 54 -20 54q-24 0 -84 -51q-62 -50 -87 -50q-31 0 -19 31 q19 50 121 119q103 69 156 69q48 0 74 -44q25 -43 9 -91z" />
<glyph unicode="&#xdc;" horiz-adv-x="915" d="M160 0zM1232 870q-164 -448 -493 -713q-212 -168 -374 -168q-209 0 -205 277q6 193 101 458q11 26 34 82.5t58 144.5q40 96 62.5 148t29.5 62q40 49 77 49q32 0 10 -61q-10 -29 -26 -71.5t-39 -99.5q-22 -57 -38 -99.5t-26 -71.5q-46 -127 -71.5 -232t-32.5 -193 q-21 -271 164 -271q36 0 92 24q324 145 524 696q19 52 54 159q17 54 30 93.5t23 65.5q10 28 53 57q43 31 72 31q24 0 20 -30q-15 -106 -99 -337zM979 1473q-10 -31 -64 -61q-53 -30 -84 -30q-9 0 -17 23q-7 21 -4 35q12 35 56 64q47 29 79 29q56 0 34 -60zM1171 1476 q-12 -32 -59 -64q-47 -30 -83 -30q-51 0 -38 40q16 40 55 77q39 39 75 39q27 0 43.5 -17t6.5 -45z" />
<glyph unicode="&#xdd;" horiz-adv-x="788" d="M263 0zM1200 1094q-6 -17 -16.5 -39.5t-26.5 -50.5q-42 -76 -116 -203t-186 -309q-31 -51 -75 -124t-104 -173q-21 -47 -72 -135q-56 -81 -124 -81q-40 0 -24 40q22 62 123 239q30 51 261 426q-238 -211 -405 -211q-150 0 -172 138q-14 108 46 271q28 76 63.5 148 t78.5 141q37 60 104 70l20 -16l-7 -18q0 5 -47 -84q-22 -42 -40.5 -84t-35.5 -87q-46 -133 -42 -223q8 -125 123 -125q176 0 469 381l58 77q64 76 123 76q41 0 24 -44zM1118 1498q-2 -3 -5.5 -8t-8.5 -12q-20 -28 -116 -96q-159 -111 -188 -111q-42 0 -25 41q12 34 175 152 q103 75 139 75q43 0 29 -41z" />
<glyph unicode="&#xe0;" horiz-adv-x="474" d="M43 0zM573 84q-17 -47 -80 -79q-51 -24 -102 -24q-60 0 -97 70q-101 -62 -173 -62q-63 0 -78 55q-11 50 15 118q40 112 154 212q121 106 232 106q56 0 83 -40q28 -37 7 -94q-13 -30 -39 -61q-35 -38 -63 -38q-20 0 -27 51q-7 52 -53 52q-89 0 -135 -126q-36 -99 15 -99 q22 0 81 48q58 49 93 49q27 0 52 -52q25 -51 56 -51q5 0 17.5 2t18.5 2q36 0 23 -39zM538 577q-15 -41 -58 -41q-29 0 -107 111q-34 52 -36 52q-17 32 -5 64q14 41 54 41q34 0 84 -75q79 -119 68 -152z" />
<glyph unicode="&#xe1;" horiz-adv-x="474" d="M43 0zM573 84q-17 -47 -80 -79q-51 -24 -102 -24q-60 0 -97 70q-101 -62 -173 -62q-63 0 -78 55q-11 50 15 118q40 112 154 212q121 106 232 106q56 0 83 -40q28 -37 7 -94q-13 -30 -39 -61q-35 -38 -63 -38q-20 0 -27 51q-7 52 -53 52q-89 0 -135 -126q-36 -99 15 -99 q22 0 81 48q58 49 93 49q27 0 52 -52q25 -51 56 -51q5 0 17.5 2t18.5 2q36 0 23 -39zM709 763q-2 -3 -5.5 -8t-8.5 -12q-20 -28 -116 -96q-159 -111 -188 -111q-42 0 -25 41q12 34 175 152q103 75 139 75q43 0 29 -41z" />
<glyph unicode="&#xe2;" horiz-adv-x="474" d="M43 0zM573 84q-17 -47 -80 -79q-51 -24 -102 -24q-60 0 -97 70q-101 -62 -173 -62q-63 0 -78 55q-11 50 15 118q40 112 154 212q121 106 232 106q56 0 83 -40q28 -37 7 -94q-13 -30 -39 -61q-35 -38 -63 -38q-20 0 -27 51q-7 52 -53 52q-89 0 -135 -126q-36 -99 15 -99 q22 0 81 48q58 49 93 49q27 0 52 -52q25 -51 56 -51q5 0 17.5 2t18.5 2q36 0 23 -39zM665 668q-10 -26 -49 -59q-41 -32 -67 -32q-30 0 -34 54q-5 54 -20 54q-24 0 -84 -51q-62 -50 -87 -50q-31 0 -19 31q19 50 121 119q103 69 156 69q48 0 74 -44q25 -43 9 -91z" />
<glyph unicode="&#xe3;" horiz-adv-x="474" d="M43 0zM573 84q-17 -47 -80 -79q-51 -24 -102 -24q-60 0 -97 70q-101 -62 -173 -62q-63 0 -78 55q-11 50 15 118q40 112 154 212q121 106 232 106q56 0 83 -40q28 -37 7 -94q-13 -30 -39 -61q-35 -38 -63 -38q-20 0 -27 51q-7 52 -53 52q-89 0 -135 -126q-36 -99 15 -99 q22 0 81 48q58 49 93 49q27 0 52 -52q25 -51 56 -51q5 0 17.5 2t18.5 2q36 0 23 -39zM772 784q-22 -59 -106 -125q-83 -65 -143 -65q-48 0 -84 48q-35 48 -51 48l-2 -3q-11 -13 -23.5 -25.5t-25.5 -24.5q-32 -29 -60 -29q-30 0 -19 33q2 3 9 12t20 25q105 125 200 125 q45 0 72 -29q34 -38 53 -46q85 93 133 93q40 0 27 -37z" />
<glyph unicode="&#xe4;" horiz-adv-x="474" d="M43 0zM573 84q-17 -47 -80 -79q-51 -24 -102 -24q-60 0 -97 70q-101 -62 -173 -62q-63 0 -78 55q-11 50 15 118q40 112 154 212q121 106 232 106q56 0 83 -40q28 -37 7 -94q-13 -30 -39 -61q-35 -38 -63 -38q-20 0 -27 51q-7 52 -53 52q-89 0 -135 -126q-36 -99 15 -99 q22 0 81 48q58 49 93 49q27 0 52 -52q25 -51 56 -51q5 0 17.5 2t18.5 2q36 0 23 -39zM508 738q-10 -31 -64 -61q-53 -30 -84 -30q-9 0 -17 23q-7 21 -4 35q12 35 56 64q47 29 79 29q56 0 34 -60zM700 741q-12 -32 -59 -64q-47 -30 -83 -30q-51 0 -38 40q16 40 55 77 q39 39 75 39q27 0 43.5 -17t6.5 -45z" />
<glyph unicode="&#xe5;" horiz-adv-x="474" d="M43 0zM573 84q-17 -47 -80 -79q-51 -24 -102 -24q-60 0 -97 70q-101 -62 -173 -62q-63 0 -78 55q-11 50 15 118q40 112 154 212q121 106 232 106q56 0 83 -40q28 -37 7 -94q-13 -30 -39 -61q-35 -38 -63 -38q-20 0 -27 51q-7 52 -53 52q-89 0 -135 -126q-36 -99 15 -99 q22 0 81 48q58 49 93 49q27 0 52 -52q25 -51 56 -51q5 0 17.5 2t18.5 2q36 0 23 -39zM564 722q15 45 -33 69q-11 -11 -15 -24q-17 -50 37 -50q9 0 11 5zM712 779q-27 -74 -108 -128q-80 -53 -153 -53q-109 0 -67 118q24 63 79 109l5 14q14 41 59 66q47 26 88 26q62 0 90 -46 q29 -47 7 -106z" />
<glyph unicode="&#xe6;" horiz-adv-x="748" d="M734 317q3 11 -3.5 24.5t-17.5 13.5q-38 0 -105 -63q-63 -59 -86 -97q202 95 212 122zM451 253q-14 -7 -26 -7l-14 8q-5 31 -12 63q-12 33 -47 33q-89 0 -135 -126q-36 -99 15 -99q22 0 81 48q58 49 93 49q2 0 14 -5q8 10 16 19t15 17zM840 116q-23 -60 -166 -102 q-113 -30 -193 -30q-15 0 -25.5 0.5t-16.5 1.5q-25 -5 -48 -5q-60 0 -97 70q-101 -62 -173 -62q-63 0 -78 55q-11 50 15 118q40 112 154 212q121 106 232 106q54 0 82 -40q29 -39 8 -94l-12 -20q169 157 285 157q22 0 39 -9t26.5 -25t11.5 -36.5t-5 -43.5 q-46 -123 -331 -248q11 0 19 -5h18q45 0 122 19q85 20 109 20q37 0 24 -39z" />
<glyph unicode="&#xe8;" horiz-adv-x="442" d="M38 0zM406 317q4 11 -3 24.5t-17 13.5q-39 0 -106 -63q-60 -55 -85 -97q201 95 211 122zM512 116q-22 -60 -166 -102q-113 -30 -192 -30q-168 0 -116 139q37 102 189 231q151 129 253 129q44 0 65 -34q22 -34 6 -80q-44 -120 -334 -248q18 -5 41 -5q46 0 123 19 q42 10 68 15t39 5q37 0 24 -39zM538 577q-15 -41 -58 -41q-29 0 -107 111q-34 52 -36 52q-17 32 -5 64q14 41 54 41q34 0 84 -75q79 -119 68 -152z" />
<glyph unicode="&#xe9;" horiz-adv-x="442" d="M38 0zM406 317q4 11 -3 24.5t-17 13.5q-39 0 -106 -63q-60 -55 -85 -97q201 95 211 122zM512 116q-22 -60 -166 -102q-113 -30 -192 -30q-168 0 -116 139q37 102 189 231q151 129 253 129q44 0 65 -34q22 -34 6 -80q-44 -120 -334 -248q18 -5 41 -5q46 0 123 19 q42 10 68 15t39 5q37 0 24 -39zM688 763q-2 -3 -5.5 -8t-8.5 -12q-20 -28 -116 -96q-159 -111 -188 -111q-42 0 -25 41q12 34 175 152q103 75 139 75q43 0 29 -41z" />
<glyph unicode="&#xea;" horiz-adv-x="442" d="M38 0zM406 317q4 11 -3 24.5t-17 13.5q-39 0 -106 -63q-60 -55 -85 -97q201 95 211 122zM512 116q-22 -60 -166 -102q-113 -30 -192 -30q-168 0 -116 139q37 102 189 231q151 129 253 129q44 0 65 -34q22 -34 6 -80q-44 -120 -334 -248q18 -5 41 -5q46 0 123 19 q42 10 68 15t39 5q37 0 24 -39zM665 668q-10 -26 -49 -59q-41 -32 -67 -32q-30 0 -34 54q-5 54 -20 54q-24 0 -84 -51q-62 -50 -87 -50q-31 0 -19 31q19 50 121 119q103 69 156 69q48 0 74 -44q25 -43 9 -91z" />
<glyph unicode="&#xeb;" horiz-adv-x="442" d="M38 0zM406 317q4 11 -3 24.5t-17 13.5q-39 0 -106 -63q-60 -55 -85 -97q201 95 211 122zM512 116q-22 -60 -166 -102q-113 -30 -192 -30q-168 0 -116 139q37 102 189 231q151 129 253 129q44 0 65 -34q22 -34 6 -80q-44 -120 -334 -248q18 -5 41 -5q46 0 123 19 q42 10 68 15t39 5q37 0 24 -39zM488 738q-10 -31 -64 -61q-53 -30 -84 -30q-9 0 -17 23q-7 21 -4 35q12 35 56 64q47 29 79 29q56 0 34 -60zM680 741q-12 -32 -59 -64q-47 -30 -83 -30q-51 0 -38 40q16 40 55 77q39 39 75 39q27 0 43.5 -17t6.5 -45z" />
<glyph unicode="&#xec;" horiz-adv-x="157" d="M20 0zM311 422q0 1 -84 -164q-16 -35 -38.5 -86.5t-53.5 -120.5q-12 -25 -51 -49q-38 -23 -64 -23q-29 0 0 81q11 28 34 76.5t60 117.5t64 114.5t46 68.5q38 44 75 44q35 0 12 -59zM394 577q-15 -41 -58 -41q-29 0 -107 111q-34 52 -36 52q-17 32 -5 64q14 41 54 41 q34 0 84 -75q79 -119 68 -152z" />
<glyph unicode="&#xed;" horiz-adv-x="157" d="M20 0zM311 422q0 1 -84 -164q-16 -35 -38.5 -86.5t-53.5 -120.5q-12 -25 -51 -49q-38 -23 -64 -23q-29 0 0 81q11 28 34 76.5t60 117.5t64 114.5t46 68.5q38 44 75 44q35 0 12 -59zM566 763q-2 -3 -5.5 -8t-8.5 -12q-20 -28 -116 -96q-159 -111 -188 -111q-42 0 -25 41 q12 34 175 152q103 75 139 75q43 0 29 -41z" />
<glyph unicode="&#xee;" horiz-adv-x="157" d="M20 0zM311 422q0 1 -84 -164q-16 -35 -38.5 -86.5t-53.5 -120.5q-12 -25 -51 -49q-38 -23 -64 -23q-29 0 0 81q11 28 34 76.5t60 117.5t64 114.5t46 68.5q38 44 75 44q35 0 12 -59zM543 668q-10 -26 -49 -59q-41 -32 -67 -32q-30 0 -34 54q-5 54 -20 54q-24 0 -84 -51 q-62 -50 -87 -50q-31 0 -19 31q19 50 121 119q103 69 156 69q48 0 74 -44q25 -43 9 -91z" />
<glyph unicode="&#xef;" horiz-adv-x="157" d="M20 0zM311 422q0 1 -84 -164q-16 -35 -38.5 -86.5t-53.5 -120.5q-12 -25 -51 -49q-38 -23 -64 -23q-29 0 0 81q11 28 34 76.5t60 117.5t64 114.5t46 68.5q38 44 75 44q35 0 12 -59zM406 738q-10 -31 -64 -61q-53 -30 -84 -30q-9 0 -17 23q-7 21 -4 35q12 35 56 64 q47 29 79 29q56 0 34 -60zM598 741q-12 -32 -59 -64q-47 -30 -83 -30q-51 0 -38 40q16 40 55 77q39 39 75 39q27 0 43.5 -17t6.5 -45z" />
<glyph unicode="&#xf1;" horiz-adv-x="355" d="M0 0zM481 309q-42 -118 -136 -251q-53 -74 -116 -74q-39 0 -22 38q10 31 37 77q44 74 44 77q14 25 27 55t26 66q19 49 7 49q-48 0 -148 -133q-87 -117 -110 -179q-6 -20 -33 -38q-26 -21 -45 -21q-13 0 -16 34q-4 30 3 46q30 85 131 201q97 111 189 171q85 54 132 54 q41 0 46 -66q3 -57 -16 -106zM743 763q-22 -59 -106 -125q-83 -65 -143 -65q-48 0 -84 48q-35 48 -51 48l-2 -3q-11 -13 -23.5 -25.5t-25.5 -24.5q-32 -29 -60 -29q-30 0 -19 33q2 3 9 12t20 25q105 125 200 125q45 0 72 -29q34 -38 53 -46q85 93 133 93q40 0 27 -37z" />
<glyph unicode="&#xf2;" d="M47 0zM401 203q19 49 -9 96q-27 46 -75 46q-70 0 -121 -138q-34 -94 41 -94q42 0 92 24q58 27 72 66zM563 265q-39 -110 -174 -197q-136 -86 -246 -86q-73 0 -96 44t4 117q40 115 150 222q125 116 232 116q82 0 121 -68q40 -67 9 -148zM538 577q-15 -41 -58 -41 q-29 0 -107 111q-34 52 -36 52q-17 32 -5 64q14 41 54 41q34 0 84 -75q79 -119 68 -152z" />
<glyph unicode="&#xf3;" d="M47 0zM401 203q19 49 -9 96q-27 46 -75 46q-70 0 -121 -138q-34 -94 41 -94q42 0 92 24q58 27 72 66zM563 265q-39 -110 -174 -197q-136 -86 -246 -86q-73 0 -96 44t4 117q40 115 150 222q125 116 232 116q82 0 121 -68q40 -67 9 -148zM688 763q-2 -3 -5.5 -8t-8.5 -12 q-20 -28 -116 -96q-159 -111 -188 -111q-42 0 -25 41q12 34 175 152q103 75 139 75q43 0 29 -41z" />
<glyph unicode="&#xf4;" d="M47 0zM401 203q19 49 -9 96q-27 46 -75 46q-70 0 -121 -138q-34 -94 41 -94q42 0 92 24q58 27 72 66zM563 265q-39 -110 -174 -197q-136 -86 -246 -86q-73 0 -96 44t4 117q40 115 150 222q125 116 232 116q82 0 121 -68q40 -67 9 -148zM665 668q-10 -26 -49 -59 q-41 -32 -67 -32q-30 0 -34 54q-5 54 -20 54q-24 0 -84 -51q-62 -50 -87 -50q-31 0 -19 31q19 50 121 119q103 69 156 69q48 0 74 -44q25 -43 9 -91z" />
<glyph unicode="&#xf5;" d="M47 0zM401 203q19 49 -9 96q-27 46 -75 46q-70 0 -121 -138q-34 -94 41 -94q42 0 92 24q58 27 72 66zM563 265q-39 -110 -174 -197q-136 -86 -246 -86q-73 0 -96 44t4 117q40 115 150 222q125 116 232 116q82 0 121 -68q40 -67 9 -148zM763 763q-22 -59 -106 -125 q-83 -65 -143 -65q-48 0 -84 48q-35 48 -51 48l-2 -3q-11 -13 -23.5 -25.5t-25.5 -24.5q-32 -29 -60 -29q-30 0 -19 33q2 3 9 12t20 25q105 125 200 125q45 0 72 -29q34 -38 53 -46q85 93 133 93q40 0 27 -37z" />
<glyph unicode="&#xf6;" d="M47 0zM401 203q19 49 -9 96q-27 46 -75 46q-70 0 -121 -138q-34 -94 41 -94q42 0 92 24q58 27 72 66zM563 265q-39 -110 -174 -197q-136 -86 -246 -86q-73 0 -96 44t4 117q40 115 150 222q125 116 232 116q82 0 121 -68q40 -67 9 -148zM508 738q-10 -31 -64 -61 q-53 -30 -84 -30q-9 0 -17 23q-7 21 -4 35q12 35 56 64q47 29 79 29q56 0 34 -60zM700 741q-12 -32 -59 -64q-47 -30 -83 -30q-51 0 -38 40q16 40 55 77q39 39 75 39q27 0 43.5 -17t6.5 -45z" />
<glyph unicode="&#xf7;" horiz-adv-x="427" d="M509 249q-8 -22 -45 -50q-36 -27 -60 -27q-40 0 -40 -6q1 -6 0 -12q-14 -38 -68 -82q-52 -43 -91 -43q-24 0 -34.5 19t-1.5 42q19 50 68 87q-121 11 -140 24q-12 9 -5 28q24 65 190 68q-4 15 3 34q46 130 135 130q24 0 37.5 -19t5.5 -43q-21 -55 -113 -102q17 0 40 -3.5 t52 -10.5q73 -15 67 -34z" />
<glyph unicode="&#xf8;" d="M326 341q-12 2 -10 4q-71 -2 -120 -138q-8 -20 15 6q11 13 40 45t75 83zM401 203q14 36 -2 73q-32 -38 -67 -78t-73 -85q44 6 85 31q45 25 57 59zM563 265q-39 -109 -173 -198q-134 -86 -243 -86q-62 -69 -121 -69q-38 0 -26 40q10 24 48 68q-26 45 3 123q44 120 156 226 q124 115 237 111q79 93 131 93q45 0 31 -41q-2 -7 -20 -30t-50 -63q64 -72 27 -174z" />
<glyph unicode="&#xf9;" horiz-adv-x="541" d="M46 0zM591 101q-11 -29 -55 -61q-43 -31 -72 -31q-34 0 -51 131q-155 -158 -278 -158q-70 0 -89 61q-12 55 15 129q23 61 115 176q106 132 152 132q34 0 22 -36q-11 -26 -69 -102q-60 -79 -74 -117q-14 -40 -7 -70q5 -41 37 -41q53 0 130 132q87 147 148 177q26 14 43 14 q24 0 27 -27q1 -7 0 -106q0 -38 3 -85.5t8 -105.5zM578 577q-15 -41 -58 -41q-29 0 -107 111q-34 52 -36 52q-17 32 -5 64q14 41 54 41q34 0 84 -75q79 -119 68 -152z" />
<glyph unicode="&#xfa;" horiz-adv-x="541" d="M46 0zM591 101q-11 -29 -55 -61q-43 -31 -72 -31q-34 0 -51 131q-155 -158 -278 -158q-70 0 -89 61q-12 55 15 129q23 61 115 176q106 132 152 132q34 0 22 -36q-11 -26 -69 -102q-60 -79 -74 -117q-14 -40 -7 -70q5 -41 37 -41q53 0 130 132q87 147 148 177q26 14 43 14 q24 0 27 -27q1 -7 0 -106q0 -38 3 -85.5t8 -105.5zM729 763q-2 -3 -5.5 -8t-8.5 -12q-20 -28 -116 -96q-159 -111 -188 -111q-42 0 -25 41q12 34 175 152q103 75 139 75q43 0 29 -41z" />
<glyph unicode="&#xfb;" horiz-adv-x="541" d="M46 0zM591 101q-11 -29 -55 -61q-43 -31 -72 -31q-34 0 -51 131q-155 -158 -278 -158q-70 0 -89 61q-12 55 15 129q23 61 115 176q106 132 152 132q34 0 22 -36q-11 -26 -69 -102q-60 -79 -74 -117q-14 -40 -7 -70q5 -41 37 -41q53 0 130 132q87 147 148 177q26 14 43 14 q24 0 27 -27q1 -7 0 -106q0 -38 3 -85.5t8 -105.5zM706 668q-10 -26 -49 -59q-41 -32 -67 -32q-30 0 -34 54q-5 54 -20 54q-24 0 -84 -51q-62 -50 -87 -50q-31 0 -19 31q19 50 121 119q103 69 156 69q48 0 74 -44q25 -43 9 -91z" />
<glyph unicode="&#xfc;" horiz-adv-x="541" d="M46 0zM591 101q-11 -29 -55 -61q-43 -31 -72 -31q-34 0 -51 131q-155 -158 -278 -158q-70 0 -89 61q-12 55 15 129q23 61 115 176q106 132 152 132q34 0 22 -36q-11 -26 -69 -102q-60 -79 -74 -117q-14 -40 -7 -70q5 -41 37 -41q53 0 130 132q87 147 148 177q26 14 43 14 q24 0 27 -27q1 -7 0 -106q0 -38 3 -85.5t8 -105.5zM549 738q-10 -31 -64 -61q-53 -30 -84 -30q-9 0 -17 23q-7 21 -4 35q12 35 56 64q47 29 79 29q56 0 34 -60zM741 741q-12 -32 -59 -64q-47 -30 -83 -30q-51 0 -38 40q16 40 55 77q39 39 75 39q27 0 43.5 -17t6.5 -45z" />
<glyph unicode="&#xfd;" horiz-adv-x="474" d="M101 0zM544 154q-35 -99 -90 -209.5t-131 -235.5q-18 -29 -53 -53t-65 -24q-34 0 -14 53q13 35 37.5 87t59.5 121q36 69 60.5 120t37.5 86q2 7 6 18t9 26q-159 -161 -256 -161q-153 0 -44 301q54 147 131 191q17 11 34 11q29 0 19 -31q-1 -6 -20 -31q-5 -6 -11.5 -20 t-14.5 -36q-95 -261 -5 -261q27 0 107 104q48 66 99 135q19 24 55 49q38 26 60 26q46 0 30 -111q-5 -36 -15 -74.5t-26 -80.5zM668 763q-2 -3 -5.5 -8t-8.5 -12q-20 -28 -116 -96q-159 -111 -188 -111q-42 0 -25 41q12 34 175 152q103 75 139 75q43 0 29 -41z" />
<glyph unicode="&#xff;" horiz-adv-x="474" d="M101 0zM544 154q-35 -99 -90 -209.5t-131 -235.5q-18 -29 -53 -53t-65 -24q-34 0 -14 53q13 35 37.5 87t59.5 121q36 69 60.5 120t37.5 86q2 7 6 18t9 26q-159 -161 -256 -161q-153 0 -44 301q54 147 131 191q17 11 34 11q29 0 19 -31q-1 -6 -20 -31q-5 -6 -11.5 -20 t-14.5 -36q-95 -261 -5 -261q27 0 107 104q48 66 99 135q19 24 55 49q38 26 60 26q46 0 30 -111q-5 -36 -15 -74.5t-26 -80.5zM529 738q-10 -31 -64 -61q-53 -30 -84 -30q-9 0 -17 23q-7 21 -4 35q12 35 56 64q47 29 79 29q56 0 34 -60zM721 741q-12 -32 -59 -64 q-47 -30 -83 -30q-51 0 -38 40q16 40 55 77q39 39 75 39q27 0 43.5 -17t6.5 -45z" />
<glyph unicode="&#x130;" horiz-adv-x="157" d="M311 422q0 1 -84 -164q-16 -35 -38.5 -86.5t-53.5 -120.5q-12 -25 -51 -49q-38 -23 -64 -23q-29 0 0 81q11 28 34 76.5t60 117.5t64 114.5t46 68.5q38 44 75 44q35 0 12 -59z" />
<glyph unicode="&#x152;" horiz-adv-x="1580" d="M1731 150q-20 -54 -101 -89q-77 -32 -275 -59q-87 -10 -155.5 -15t-119.5 -5q-123 0 -206 37q-108 48 -108 145q-235 -182 -433 -182q-162 0 -207 129q-40 118 21 287q26 72 71 156.5t111 182.5q43 63 98 75l22 -20q-7 -13 -25.5 -44t-48.5 -82q-29 -51 -53.5 -100.5 t-43.5 -101.5q-51 -139 -25 -240q28 -120 162 -120q147 0 302 128q168 138 247 355q67 181 36 328q-38 174 -205 174q-86 0 -193 -56q-53 -29 -162 -108q-80 -56 -104 -56q-39 0 -25 36q8 22 35 49q64 57 130 105t138 86q166 91 289 91q242 0 266 -270q61 58 124 105t130 83 q148 78 277 78q91 0 153 -41q76 -49 47 -133q-16 -39 -67 -90q-57 -57 -96 -58l-13 20q7 10 24 36q17 30 20 39q39 104 -152 104q-153 0 -309 -126q-109 -86 -140 -174q-31 -86 40 -118q39 -19 150 -19q43 0 29 -41q-19 -52 -89 -81q-29 -11 -58 -20.5t-58 -19.5 q-195 -76 -242 -210q-67 -181 269 -181q85 0 249 34q172 35 248 35q40 0 26 -38z" />
<glyph unicode="&#x153;" horiz-adv-x="758" d="M734 317q3 11 -3.5 24.5t-17.5 13.5q-40 0 -104 -61q-56 -53 -85 -99q199 93 210 122zM401 203q19 49 -9 96q-27 46 -75 46q-70 0 -121 -138q-34 -94 41 -94q42 0 92 24q58 25 72 66zM840 116q-23 -60 -166 -102q-113 -30 -193 -30q-110 0 -126 64q-113 -66 -212 -66 q-71 0 -95.5 44.5t3.5 116.5q40 115 150 222q125 116 232 116q113 0 137 -114q146 116 237 116q22 0 39 -9t26.5 -25t11.5 -36.5t-5 -43.5q-27 -74 -150 -145q-49 -25 -97.5 -50t-97.5 -51q14 -7 51 -7q45 0 122 19q85 20 109 20q37 0 24 -39z" />
<glyph unicode="&#x178;" horiz-adv-x="788" d="M263 0zM1200 1094q-6 -17 -16.5 -39.5t-26.5 -50.5q-42 -76 -116 -203t-186 -309q-31 -51 -75 -124t-104 -173q-21 -47 -72 -135q-56 -81 -124 -81q-40 0 -24 40q22 62 123 239q30 51 261 426q-238 -211 -405 -211q-150 0 -172 138q-14 108 46 271q28 76 63.5 148 t78.5 141q37 60 104 70l20 -16l-7 -18q0 5 -47 -84q-22 -42 -40.5 -84t-35.5 -87q-46 -133 -42 -223q8 -125 123 -125q176 0 469 381l58 77q64 76 123 76q41 0 24 -44zM938 1473q-10 -31 -64 -61q-53 -30 -84 -30q-9 0 -17 23q-7 21 -4 35q12 35 56 64q47 29 79 29 q56 0 34 -60zM1130 1476q-12 -32 -59 -64q-47 -30 -83 -30q-51 0 -38 40q16 40 55 77q39 39 75 39q27 0 43.5 -17t6.5 -45z" />
<glyph unicode="&#x2c6;" horiz-adv-x="399" d="M870 1403q-10 -26 -49 -59q-41 -32 -67 -32q-30 0 -34 54q-5 54 -20 54q-24 0 -84 -51q-62 -50 -87 -50q-31 0 -19 31q19 50 121 119q103 69 156 69q48 0 74 -44q25 -43 9 -91z" />
<glyph unicode="&#x2da;" horiz-adv-x="304" d="M707 1457q15 45 -33 69q-11 -11 -15 -24q-17 -50 37 -50q9 0 11 5zM855 1514q-27 -74 -108 -128q-80 -53 -153 -53q-109 0 -67 118q24 63 79 109l5 14q14 41 59 66q47 26 88 26q62 0 90 -46q29 -47 7 -106z" />
<glyph unicode="&#x2dc;" d="M1017 1519q-22 -59 -106 -125q-83 -65 -143 -65q-48 0 -84 48q-35 48 -51 48l-2 -3q-11 -13 -23.5 -25.5t-25.5 -24.5q-32 -29 -60 -29q-30 0 -19 33q2 3 9 12t20 25q105 125 200 125q45 0 72 -29q34 -38 53 -46q85 93 133 93q40 0 27 -37z" />
<glyph unicode="&#x2000;" horiz-adv-x="833" />
<glyph unicode="&#x2001;" horiz-adv-x="1666" />
<glyph unicode="&#x2002;" horiz-adv-x="833" />
<glyph unicode="&#x2003;" horiz-adv-x="1666" />
<glyph unicode="&#x2004;" horiz-adv-x="555" />
<glyph unicode="&#x2005;" horiz-adv-x="416" />
<glyph unicode="&#x2006;" horiz-adv-x="277" />
<glyph unicode="&#x2007;" horiz-adv-x="277" />
<glyph unicode="&#x2008;" horiz-adv-x="208" />
<glyph unicode="&#x2009;" horiz-adv-x="333" />
<glyph unicode="&#x200a;" horiz-adv-x="92" />
<glyph unicode="&#x2010;" d="M556 259q-8 -23 -46 -52q-37 -28 -66 -34t-94 -6q-10 0 -23.5 0.5t-32.5 1.5q-36 3 -55 3q-16 0 -47 -3q-16 -1 -27.5 -1.5t-19.5 -0.5q-15 0 -43 12q-29 13 -25 26q11 31 54 53q77 41 282 41q159 0 143 -40z" />
<glyph unicode="&#x2011;" d="M556 259q-8 -23 -46 -52q-37 -28 -66 -34t-94 -6q-10 0 -23.5 0.5t-32.5 1.5q-36 3 -55 3q-16 0 -47 -3q-16 -1 -27.5 -1.5t-19.5 -0.5q-15 0 -43 12q-29 13 -25 26q11 31 54 53q77 41 282 41q159 0 143 -40z" />
<glyph unicode="&#x2012;" d="M556 259q-8 -23 -46 -52q-37 -28 -66 -34t-94 -6q-10 0 -23.5 0.5t-32.5 1.5q-36 3 -55 3q-16 0 -47 -3q-16 -1 -27.5 -1.5t-19.5 -0.5q-15 0 -43 12q-29 13 -25 26q11 31 54 53q77 41 282 41q159 0 143 -40z" />
<glyph unicode="&#x2013;" horiz-adv-x="1006" d="M1097 259q-17 -23 -98 -52q-79 -28 -140.5 -34t-200.5 -6q-21 0 -49.5 0.5t-69.5 1.5q-77 3 -117 3q-34 0 -100 -3q-34 -1 -58.5 -1.5t-41.5 -0.5q-32 0 -92 12q-61 13 -53 26q23 31 115 53q164 41 600 41q339 0 305 -40z" />
<glyph unicode="&#x2014;" horiz-adv-x="2030" d="M2118 259q-34 -23 -196 -52q-158 -28 -281.5 -34t-399.5 -6q-43 0 -100.5 0.5t-138.5 1.5q-153 3 -234 3q-68 0 -200 -3q-68 -1 -117 -1.5t-83 -0.5q-64 0 -183 12q-124 13 -107 26q47 31 230 53q328 41 1201 41q677 0 609 -40z" />
<glyph unicode="&#x2018;" horiz-adv-x="205" d="M536 1014q-12 -34 -50 -34q-46 0 -58 82q-8 77 11 124q16 46 47 46q27 0 40 -34q1 -5 2.5 -28t4.5 -65q6 -83 3 -91z" />
<glyph unicode="&#x2019;" horiz-adv-x="205" d="M599 1186q-20 -51 -84 -124q-70 -82 -116 -82q-34 0 -24 34q2 4 19.5 26.5t49.5 64.5q62 80 77 93q37 34 63 34q31 0 15 -46z" />
<glyph unicode="&#x201a;" horiz-adv-x="205" d="M203 101q-17 -53 -82 -122q-72 -82 -116 -82q-35 0 -23 34q2 5 18.5 27t48.5 62q32 42 51.5 65t24.5 28q37 34 63 34q31 0 15 -46z" />
<glyph unicode="&#x201c;" horiz-adv-x="324" d="M659 1002q-14 -38 -53 -38q-55 0 -60 89q-8 -95 -17 -114q-7 -19 -44 -19q-45 0 -57 99q-6 87 11 142q4 9 12 21t19 26q23 29 39 29q20 0 35 -24q17 -23 12 -46l-3 -42v1q7 19 36 52q28 34 46 34q17 0 28 -18t8 -37q-5 -16 -9 -31t-8 -29q-9 -34 0 -56q8 -29 5 -39z" />
<glyph unicode="&#x201d;" horiz-adv-x="324" d="M715 1161q-17 -52 -95 -142q-83 -99 -128 -99q-36 0 -21 39q1 5 15.5 28t42.5 66q-71 -89 -125 -89q-36 0 -22 38q5 13 31 42q27 29 35 49q9 20 32 64q10 19 33 37q22 18 40 18q17 0 23 -35q6 -34 -3 -52l28 42q14 23 45 46q33 24 54 24q14 0 19 -29q5 -31 -4 -47z" />
<glyph unicode="&#x201e;" horiz-adv-x="324" d="M321 73q-19 -52 -96 -139q-83 -99 -128 -99q-36 0 -22 38q2 5 16.5 28t41.5 68q-71 -89 -124 -89q-35 0 -22 37q4 10 30 42q14 16 22.5 28t12.5 20q5 10 13 25.5t19 37.5q10 19 34 37t41 18t22 -35q5 -36 -4 -52l28 42q13 22 45 46q33 24 54 24q14 0 19 -29q5 -32 -2 -48 z" />
<glyph unicode="&#x2026;" horiz-adv-x="659" d="M256 121q-17 -45 -80 -91q-62 -44 -108 -44q-70 0 -46 72q17 45 65 87q46 43 90 43q31 0 57 -17q32 -23 22 -50zM700 130q-20 -48 -81 -93q-61 -43 -107 -43q-72 0 -46 71q15 44 64 87q50 44 91 44q31 0 57 -17q29 -23 22 -49zM490 135q-21 -55 -82 -95q-58 -40 -114 -40 q-72 0 -50 61q19 54 79 103q61 51 112 51q34 0 50.5 -23t4.5 -57z" />
<glyph unicode="&#x202f;" horiz-adv-x="333" />
<glyph unicode="&#x2039;" horiz-adv-x="372" d="M411 101q-10 -30 -50 -58q-41 -29 -69 -29q-12 0 -22 6q-12 8 -39.5 31.5t-70.5 62.5q-87 83 -83 93q13 39 99 83q10 5 40.5 19t82.5 37q56 24 124 74q34 24 55 24q32 0 19 -34q-26 -72 -212 -161q148 -90 126 -148z" />
<glyph unicode="&#x203a;" horiz-adv-x="362" d="M451 246q-14 -41 -168 -134q-153 -93 -196 -93q-38 0 -24 39q16 38 203 145q-136 134 -119 176q4 11 12.5 21.5t20 19t24.5 14t25 5.5t121 -91q16 -11 31.5 -22.5t31.5 -23.5q46 -36 38 -56z" />
<glyph unicode="&#x205f;" horiz-adv-x="416" />
<glyph unicode="&#x2122;" horiz-adv-x="766" d="M1125 1000q-22 -59 -48 -97q-14 -18 -53 -43q-34 -22 -56 -22q-33 0 -5 82q47 128 -16 128v-4q-3 -6 1 -5.5t1 -5.5l-24 -48q-14 -29 -54 -57q-41 -29 -69 -29q-33 0 -25 36q7 23 14 45.5t15 45.5q18 71 -4 71q-5 0 -8 -10q-4 -7 -6.5 -20.5t-5.5 -20.5l-12 -32 q-5 -11 -8.5 -19.5t-5.5 -13.5q-52 -148 -113 -148q-17 0 -15 60q2 26 5.5 45t8.5 33q29 80 80 143q-20 -10 -77 -8q-33 -106 -50 -159t-18 -58q-9 -24 -46 -48q-36 -24 -60 -24q-30 0 -19 45q0 9 22 68q14 38 31.5 81.5t37.5 91.5q-57 -9 -77 -9q-15 0 -34 12 q-19 10 -14 24q14 36 149 71q114 30 167 30q18 0 44 -14t22 -29q50 29 96 29q60 0 68 -60q49 27 91 27q69 0 82 -61q15 -51 -12 -123z" />
<glyph unicode="&#xe000;" horiz-adv-x="480" d="M0 480h480v-480h-480v480z" />
<glyph horiz-adv-x="480" d="M0 0z" />
</font>
</defs>
</svg>
