<?xml version="1.0" standalone="no"?>
<!DOCTYPE svg PUBLIC "-//W3C//DTD SVG 1.1//EN" "http://www.w3.org/Graphics/SVG/1.1/DTD/svg11.dtd" >
<svg xmlns="http://www.w3.org/2000/svg">
<metadata></metadata>
<defs>
<font id="lobster_twobold_italic" horiz-adv-x="526" >
<font-face units-per-em="1000" ascent="800" descent="-200" />
<missing-glyph horiz-adv-x="215" />
<glyph unicode="&#xfb01;" horiz-adv-x="533" d="M-191 -138q0 32 13.5 56t42 41t53 27t64.5 22l111 526q46 215 234 215q179 0 179 -115q0 -42 -22.5 -61.5t-56.5 -19.5q-60 0 -60 54q0 18 9.5 33.5t24.5 15.5q7 0 8 -1q-2 40 -55 40q-82 0 -106 -113l-17 -82h80l-8 -40h-80l-114 -540q-20 -94 -69 -132t-107 -38 q-55 0 -89.5 30.5t-34.5 81.5zM-136 -121q0 -22 14 -31t27 -9q17 0 33.5 19t24.5 59l12 58q-50 -16 -80.5 -41t-30.5 -55zM275 114q0 27 8 65l68 321h144l-72 -340q-4 -17 -4 -32q0 -20 9.5 -28.5t31.5 -8.5q29 0 54 25t36 63h42q-65 -185 -210 -185q-48 0 -77.5 30 t-29.5 90z" />
<glyph unicode="&#xfb02;" horiz-adv-x="548" d="M-191 -142q0 62 42.5 92.5t130.5 57.5l120 571q36 170 182 170q42 0 91 -11t83 -23t91 -35l-110 -520q-4 -17 -4 -32q0 -20 9.5 -28.5t31.5 -8.5q29 0 54 25t36 63h42q-65 -185 -210 -185q-48 0 -77.5 30t-29.5 90q0 27 8 65l104 491q-38 16 -82 16q-51 0 -68 -79 l-22 -107h93l-8 -40h-93l-114 -540q-36 -170 -182 -170q-48 0 -83 30.5t-35 77.5zM-136 -128q0 -11 12 -22t28 -11q18 0 34.5 18.5t24.5 59.5l12 58q-53 -18 -82 -41.5t-29 -61.5z" />
<glyph unicode="&#xfb03;" horiz-adv-x="765" d="M-191 -142q0 62 42.5 92.5t130.5 57.5l120 571q36 170 182 170q83 0 123 -52q58 52 151 52q179 0 179 -115q0 -42 -22.5 -61.5t-56.5 -19.5q-60 0 -60 54q0 18 9.5 33.5t24.5 15.5q7 0 8 -1q-2 40 -55 40q-82 0 -106 -113l-17 -82h265l-72 -340q-4 -17 -4 -32 q0 -20 9.5 -28.5t31.5 -8.5q29 0 54 25t36 63h42q-65 -185 -210 -185q-48 0 -77.5 30t-29.5 90q0 27 8 65l59 281h-120l-114 -540q-20 -94 -69 -132t-107 -38q-77 0 -109 53q-48 -53 -128 -53q-48 0 -83 30.5t-35 77.5zM-130 -128q0 -11 12 -22t28 -11q18 0 34.5 18.5 t24.5 59.5l12 58q-53 -18 -82 -41.5t-29 -61.5zM89 -143q5 -32 37 -32q49 0 68 92l23 109l-89 -18l-19 -88q-7 -34 -20 -63zM134 36l88 15l86 409h-84zM232 500h85l7 34q15 73 50 125q-15 17 -40 17q-69 0 -86 -94z" />
<glyph unicode="&#xfb04;" horiz-adv-x="780" d="M-191 -142q0 62 42.5 92.5t130.5 57.5l120 571q36 170 182 170q74 0 115 -42q46 42 117 42q42 0 91 -11t83 -23t91 -35l-110 -520q-4 -17 -4 -32q0 -20 9.5 -28.5t31.5 -8.5q29 0 54 25t36 63h42q-65 -185 -210 -185q-48 0 -77.5 30t-29.5 90q0 27 8 65l104 491 q-38 16 -82 16q-51 0 -68 -79l-22 -107h93l-8 -40h-93l-115 -540q-20 -94 -69 -132t-107 -38q-77 0 -109 54q-49 -54 -128 -54q-48 0 -83 30.5t-35 77.5zM-130 -128q0 -11 12 -22t28 -11q18 0 34.5 18.5t24.5 59.5l12 58q-53 -18 -82 -41.5t-29 -61.5zM89 -142q4 -33 37 -33 q49 0 68 92l23 109l-89 -18l-19 -88q-7 -33 -20 -62zM134 36l88 15l87 409h-85zM232 500h85l17 79q10 49 32 87q-13 10 -32 10q-69 0 -86 -94z" />
<glyph horiz-adv-x="1000" />
<glyph horiz-adv-x="1000" />
<glyph unicode="&#xd;" horiz-adv-x="1000" />
<glyph unicode=" "  horiz-adv-x="215" />
<glyph unicode="&#x09;" horiz-adv-x="215" />
<glyph unicode="&#xa0;" horiz-adv-x="215" />
<glyph unicode="!" horiz-adv-x="270" d="M7 80q0 33 23.5 56t56.5 23t56 -23t23 -56t-23 -56.5t-56 -23.5t-56.5 23.5t-23.5 56.5zM71 231l71 469h144l-130 -469h-85z" />
<glyph unicode="&#x22;" horiz-adv-x="353" d="M93 561l61 189h105l-91 -189h-75zM250 561l61 189h105l-91 -189h-75z" />
<glyph unicode="#" horiz-adv-x="542" d="M-1 111l21 102h104l21 113h-102l21 102h99l52 290h88l-65 -290h105l52 290h88l-65 -290h104l-20 -102h-106l-25 -113h107l-20 -102h-110l-30 -138h-57l25 138h-118l-30 -138h-57l25 138h-107zM191 213h113l21 113h-109z" />
<glyph unicode="$" horiz-adv-x="388" d="M23 218q0 43 21 66.5t53 23.5q18 0 29.5 -7.5t11.5 -17.5q-21 -3 -30.5 -24t-9.5 -45q0 -45 42 -66l36 196q-7 6 -28.5 23t-30.5 25t-22.5 23.5t-19 31.5t-5.5 34q0 53 47.5 91t106.5 40l19 106h58l-25 -109q40 -7 63.5 -26t23.5 -60q0 -31 -13 -52t-36 -21q-19 0 -38 23 q24 14 24 49q0 33 -32 47l-36 -161q59 -41 86 -74.5t27 -81.5q0 -67 -51 -105.5t-129 -39.5l-29 -134h-27l24 135q-47 3 -78.5 30t-31.5 80zM165 501q0 -34 28 -62l24 135q-27 -6 -39.5 -27t-12.5 -46zM174 144q34 4 50 29t16 59q0 42 -29 78z" />
<glyph unicode="%" horiz-adv-x="623" d="M69 488q0 91 44.5 152.5t117.5 61.5q82 0 82 -113q0 -74 -41 -144.5t-107 -70.5q-55 0 -75.5 28t-20.5 86zM83 0l386 750h72l-386 -750h-72zM141 476q0 -65 27 -65q38 0 61.5 57t23.5 136q0 63 -25 63t-52.5 -40.5t-32.5 -107.5q-2 -24 -2 -43zM317 114q0 91 44.5 152.5 t117.5 61.5q44 0 68 -29.5t24 -83.5q0 -34 -9 -69.5t-26.5 -69.5t-49.5 -55t-73 -21q-55 0 -75.5 28t-20.5 86zM384 102q0 -65 27 -65q38 0 60 53.5t22 132.5q0 68 -28 68q-24 0 -48.5 -39.5t-30.5 -106.5q-2 -24 -2 -43z" />
<glyph unicode="&#x26;" horiz-adv-x="673" d="M9 158q0 84 51.5 161.5t133.5 97.5q-61 44 -61 120q0 81 63.5 148t155.5 67q62 0 102.5 -33t40.5 -92q0 -44 -22 -74t-52 -30q-27 0 -47 27q18 6 31 33t13 54q0 29 -16 42.5t-39 13.5q-43 0 -72.5 -43t-29.5 -98q0 -47 25 -84t76 -50q-76 -17 -127.5 -91t-51.5 -148 q0 -45 23.5 -73t71.5 -28q82 0 133.5 47t81.5 147q-12 0 -38.5 3t-39.5 3q-65 0 -94 -45l-7 1q15 63 66.5 102t126.5 39q14 0 39 -2.5t37 -2.5q71 0 95 43h6q0 -43 -47 -86.5t-108 -52.5q-29 -126 -121 -209t-215 -83q-91 0 -137.5 50t-46.5 126z" />
<glyph unicode="'" horiz-adv-x="196" d="M93 561l61 189h105l-91 -189h-75z" />
<glyph unicode="(" horiz-adv-x="281" d="M12 100q0 131 39.5 262t115 236.5t171.5 151.5l13 -40q-72 -36 -134 -138.5t-97 -236t-35 -262.5q0 -187 73 -294l-33 -29q-113 125 -113 350z" />
<glyph unicode=")" horiz-adv-x="281" d="M-99 -210q110 55 188 246t78 391q0 187 -73 294l33 29q113 -125 113 -350q0 -132 -39.5 -262.5t-115 -236t-171.5 -151.5z" />
<glyph unicode="*" horiz-adv-x="412" d="M88 501l109 63l-109 63l30 52l107 -62v135h64v-135l107 62l30 -52l-109 -63l109 -63l-30 -52l-107 62v-135h-64v135l-107 -62z" />
<glyph unicode="+" horiz-adv-x="442" d="M12 205l24 112h128l27 122h113l-27 -122h127l-23 -112h-128l-27 -123h-113l27 123h-128z" />
<glyph unicode="," horiz-adv-x="232" d="M-9 75q0 33 23 56.5t56 23.5q32 0 50 -21t18 -55q0 -47 -35.5 -105.5t-94.5 -99.5q-9 6 -9 17q0 18 23 48t23 49q0 10 -13.5 21t-27 27.5t-13.5 38.5z" />
<glyph unicode="-" horiz-adv-x="321" d="M39 222l18 79h200l-17 -79h-201z" />
<glyph unicode="." horiz-adv-x="240" d="M-9 75q0 33 23 56.5t56 23.5t56.5 -23.5t23.5 -56.5t-23.5 -56t-56.5 -23t-56 23t-23 56z" />
<glyph unicode="/" horiz-adv-x="217" d="M-48 -250l212 1000h72l-212 -1000h-72z" />
<glyph unicode="0" horiz-adv-x="598" d="M49 249q0 213 94.5 357t245.5 144q185 0 185 -249q0 -83 -19.5 -168.5t-58.5 -163t-107 -126.5t-154 -49q-55 0 -92.5 19.5t-57.5 56t-28 79.5t-8 100zM201 220q0 -133 67 -133q50 0 91 70.5t62.5 177t21.5 221.5q0 60 -10.5 92t-40.5 32q-51 0 -95.5 -67.5t-70 -173.5 t-25.5 -219z" />
<glyph unicode="1" horiz-adv-x="335" d="M45 0l126 598h-95l18 72q123 0 254 78l-159 -748h-144z" />
<glyph unicode="2" horiz-adv-x="529" d="M10 30q0 58 34 116.5t82 108.5t96.5 101t82.5 114.5t34 129.5q0 46 -17 67.5t-55 21.5q-70 0 -70 -72q0 -59 38 -71q-37 -34 -76 -34q-31 0 -51.5 22.5t-20.5 64.5q0 61 50.5 105.5t155.5 44.5q190 0 190 -162q0 -64 -30 -121t-76.5 -101.5t-95 -83t-94 -81t-65.5 -79.5 q2 0 6 0.5t6 0.5q24 0 87.5 -9t98.5 -9q51 0 78.5 15.5t58.5 53.5q1 -16 1 -44q0 -77 -25 -108.5t-101 -31.5q-46 0 -118.5 18t-122.5 18q-10 0 -24.5 -5t-31.5 -13t-23 -10q-2 11 -2 33z" />
<glyph unicode="3" horiz-adv-x="540" d="M11 165q0 64 31.5 103.5t89.5 39.5q67 0 78 -51q-48 0 -68 -29t-20 -66q0 -53 23.5 -70.5t62.5 -17.5q57 0 93 53t36 123q0 65 -33.5 112.5t-99.5 55.5q80 22 125.5 76.5t45.5 111.5q0 36 -19.5 59.5t-56.5 23.5t-58 -18.5t-21 -53.5q0 -24 9.5 -45t28.5 -26 q-37 -34 -76 -34q-31 0 -51.5 23t-20.5 62q0 67 59.5 109.5t147.5 42.5t137 -42t49 -104q0 -52 -35.5 -102.5t-101.5 -83.5q63 -22 94.5 -69t31.5 -106q0 -93 -80 -170.5t-202 -77.5q-29 0 -57 5.5t-63 21.5t-57 53t-22 91z" />
<glyph unicode="4" horiz-adv-x="507" d="M10 270q12 38 52.5 112.5t69.5 147t29 136.5q0 29 -12 84q49 0 80 -25t31 -81q0 -47 -21 -95t-62 -111.5t-54 -88.5h146l82 381l148 20l-86 -401h64l-20 -79h-61l-57 -270h-144l57 270h-242z" />
<glyph unicode="5" horiz-adv-x="527" d="M14 139q0 72 39 107t91 35q61 0 71 -51q-91 -10 -91 -82q0 -39 22.5 -59.5t58.5 -20.5q62 0 96.5 56t34.5 128q0 65 -30.5 102t-81.5 37q-60 0 -149 -56l82 399q149 -17 180 -17q81 0 162 32q2 -22 2 -33q0 -52 -27.5 -84t-87.5 -32q-31 0 -95.5 12t-71.5 13l-40 -181 q65 31 125 31q86 0 131 -59t45 -148q0 -114 -73 -194t-215 -80q-178 0 -178 145z" />
<glyph unicode="6" horiz-adv-x="558" d="M41 209q0 134 41 255.5t124.5 203.5t191.5 82q63 0 97.5 -24.5t34.5 -57.5q0 -26 -17 -49t-48 -23q-6 0 -24 4q18 16 18 42q0 21 -17 34.5t-42 13.5q-59 0 -112 -75t-82 -181.5t-29 -206.5q0 -76 20 -109t63 -33q47 0 80 35.5t46 79t13 86.5q0 50 -20 75t-48 25 q-26 0 -43 -18.5t-17 -44.5q0 -11 3 -21q-50 0 -50 44q0 42 42.5 79.5t107.5 37.5q72 0 106 -49t34 -122q0 -118 -77.5 -208t-209.5 -90q-105 0 -145.5 54t-40.5 161z" />
<glyph unicode="7" horiz-adv-x="499" d="M83 659q0 52 31 71t87 19q43 0 146 -12.5t149 -12.5q43 0 82 8q0 -20 -31 -67.5t-75 -109t-88.5 -131.5t-75.5 -152t-31 -153q0 -43 17 -112q-33 -16 -63 -16q-102 0 -102 134q0 53 30.5 115.5t74.5 118t88 106.5t74.5 94t30.5 67q-83 19 -161 19q-115 0 -121 -77 q-27 1 -44.5 26t-17.5 65z" />
<glyph unicode="8" horiz-adv-x="555" d="M20 189q0 73 46.5 138t133.5 90q-85 49 -85 136q0 77 64 137t165 60q84 0 133.5 -42.5t49.5 -103.5q0 -53 -36.5 -103.5t-103.5 -83.5q59 -19 90 -63t31 -99q0 -96 -81 -178.5t-198 -82.5q-96 0 -152.5 57t-56.5 138zM157 188q0 -45 22.5 -77.5t58.5 -32.5q48 0 88 53.5 t40 111.5q0 46 -26.5 82t-61.5 53q-56 -23 -88.5 -79t-32.5 -111zM246 570q0 -75 53 -119q48 32 77 79.5t29 92.5q0 32 -15.5 54t-45.5 22q-40 0 -69 -38.5t-29 -90.5z" />
<glyph unicode="9" horiz-adv-x="556" d="M65 94q0 32 19.5 55t66.5 23q-14 -14 -14 -34q0 -21 14 -38.5t46 -17.5q7 0 15 1t27 9.5t36 22.5t38 44.5t36.5 71.5t29 107.5t18.5 148.5q2 38 2 53q0 149 -80 149q-58 0 -96.5 -62.5t-38.5 -142.5q0 -109 61 -109q24 0 45.5 18.5t33.5 50.5q24 -14 24 -48 q0 -39 -40.5 -65t-93.5 -26q-72 0 -108 51.5t-36 127.5q0 112 72.5 189t190.5 77q110 0 156.5 -57.5t46.5 -170.5q0 -135 -43 -255t-123 -196t-178 -76q-64 0 -95.5 28.5t-31.5 70.5z" />
<glyph unicode=":" horiz-adv-x="275" d="M20 135q0 33 23 56.5t56 23.5t56.5 -23.5t23.5 -56.5t-23.5 -56t-56.5 -23t-56 23t-23 56zM70 375q0 33 23 56.5t56 23.5t56.5 -23.5t23.5 -56.5t-23.5 -56t-56.5 -23t-56 23t-23 56z" />
<glyph unicode=";" horiz-adv-x="269" d="M11 91q0 33 23 56.5t56 23.5q32 0 50 -21t18 -55q0 -47 -35.5 -105.5t-94.5 -99.5q-9 6 -9 17q0 18 23 48t23 49q0 10 -13.5 21t-27 27.5t-13.5 38.5zM59 331q0 33 23 56.5t56 23.5t56.5 -23.5t23.5 -56.5t-23.5 -56t-56.5 -23t-56 23t-23 56z" />
<glyph unicode="&#x3c;" horiz-adv-x="358" d="M7 238l9 41l307 150l-10 -55l-241 -120l194 -96l-12 -57z" />
<glyph unicode="=" horiz-adv-x="500" d="M20 101l24 112h368l-23 -112h-369zM64 316l24 112h368l-23 -112h-369z" />
<glyph unicode="&#x3e;" horiz-adv-x="362" d="M11 101l14 57l240 96l-194 120l9 55l246 -150l-11 -54z" />
<glyph unicode="?" horiz-adv-x="420" d="M66 80q0 33 23.5 56t56.5 23t56 -23t23 -56t-23 -56.5t-56 -23.5t-56.5 23.5t-23.5 56.5zM73 539q0 61 53.5 111t161.5 50q86 0 120.5 -33.5t34.5 -94.5q0 -48 -20 -86.5t-51 -66t-63.5 -53.5t-62.5 -60.5t-43 -73.5h-66q0 38 19.5 73t46.5 63.5t54.5 57.5t47 66t19.5 77 q0 41 -17 59t-42 18q-31 0 -56 -23.5t-25 -58.5q0 -21 9.5 -41.5t28.5 -25.5q-26 -42 -73 -42q-31 0 -53.5 22t-22.5 62z" />
<glyph unicode="@" horiz-adv-x="549" d="M16 164q0 163 100.5 278t240.5 115q27 0 51 -5.5t50 -20.5t41.5 -48.5t15.5 -82.5q0 -98 -53 -181t-117 -83q-33 0 -45 26q-28 -42 -63 -42q-59 0 -59 88q0 46 15 96.5t46.5 89t69.5 38.5q26 0 39 -17l4 15l55 -6l-45 -192q-4 -16 -4 -23q0 -19 12 -19q23 0 55 69.5 t32 131.5q0 48 -24 80.5t-79 32.5q-51 0 -96.5 -30.5t-76 -78t-48 -103.5t-17.5 -108q0 -141 133 -141q96 0 152 71q23 -10 23 -43q0 -48 -56 -78.5t-148 -30.5q-38 0 -72 10.5t-65 32.5t-49 63t-18 96zM236 224q0 -45 21 -45q13 0 37 19q0 9 3 18l43 167q-8 10 -21 10 q-32 0 -57.5 -61.5t-25.5 -107.5z" />
<glyph unicode="A" horiz-adv-x="603" d="M-39 335q0 51 58 87t144 36q22 0 54 -3q82 131 174 213t176 82q43 0 77 -14l-157 -736h-144l77 363q-66 30 -134 36q-57 -123 -93.5 -250.5t-36.5 -202.5q0 -39 14 -60q-22 0 -35.5 1t-34.5 6.5t-33 16t-21.5 31.5t-9.5 51q0 67 40.5 179.5t106.5 227.5q-100 -6 -117 -52 q4 0 8.5 -10.5t4.5 -20.5q0 -18 -16 -28.5t-40 -10.5q-27 0 -44.5 15t-17.5 43zM307 442q70 -14 122 -35l58 272q-84 -45 -180 -237z" />
<glyph unicode="B" horiz-adv-x="681" d="M57 485q0 103 110.5 184t252.5 81q104 0 158.5 -46t54.5 -113q0 -46 -26.5 -89t-73.5 -70q60 -12 89 -56t29 -105q0 -40 -11.5 -86t-35 -93t-68.5 -78t-104 -31q-99 0 -99 74q0 25 13 58q35 -36 67 -36q34 0 57.5 30t32.5 69t9 81q0 127 -95 127q-19 0 -46 -3l-82 -383 h-144l136 636l148 20l-47 -222h6q58 0 101 51.5t43 110.5q0 47 -32.5 77.5t-99.5 30.5q-98 0 -174 -64t-76 -179q0 -17 2 -30t4 -18.5t5 -12t3 -7.5q-107 0 -107 92z" />
<glyph unicode="C" horiz-adv-x="507" d="M45 229q0 59 10.5 124t37 137t65 129t101 94t139.5 37q73 0 118 -33t45 -103q0 -90 -70 -90q-35 0 -57 26q18 9 32 36.5t14 54.5t-14.5 44.5t-42.5 17.5q-55 0 -105.5 -74.5t-78.5 -181.5t-28 -208q0 -80 25.5 -122t93.5 -42q56 0 108.5 28.5t87.5 76.5l23 -10 q-39 -88 -121 -137t-177 -49q-206 0 -206 245z" />
<glyph unicode="D" horiz-adv-x="708" d="M57 486q0 103 110.5 183.5t257.5 80.5q95 0 157.5 -40t88 -103.5t25.5 -150.5q0 -109 -38 -217.5t-103 -180t-136 -71.5q-60 0 -122 53l-8 -40h-144l136 636l148 20l-120 -561q27 -20 57 -20q56 0 101.5 69.5t68 166t22.5 191.5q0 110 -37 156t-117 46 q-107 0 -180.5 -66.5t-73.5 -176.5q0 -16 2 -29t4 -19t5 -12.5t3 -7.5q-107 0 -107 93z" />
<glyph unicode="E" horiz-adv-x="449" d="M13 158q0 84 51.5 161.5t133.5 97.5q-61 44 -61 120q0 81 63.5 148t155.5 67q62 0 102.5 -33t40.5 -92q0 -44 -22 -74t-52 -30q-27 0 -47 27q18 6 31 33t13 54q0 29 -16 42.5t-39 13.5q-43 0 -72.5 -43t-29.5 -98q0 -47 25 -84t76 -50q-76 -17 -127.5 -91t-51.5 -148 q0 -45 23.5 -73t71.5 -28q50 0 105 27.5t80 74.5l23 -10q-38 -86 -119.5 -137t-173.5 -51q-91 0 -137.5 50t-46.5 126z" />
<glyph unicode="F" horiz-adv-x="559" d="M63 494q0 105 84.5 180.5t242.5 75.5q35 0 90.5 -6t88.5 -6q54 0 91 12q-16 -72 -43 -96t-68 -24q-36 0 -124 18l-42 -198h146l-16 -74h-146l-81 -376h-144l144 668q-130 -5 -130 -198q0 -46 14 -77q-55 0 -81 23t-26 78z" />
<glyph unicode="G" horiz-adv-x="591" d="M50 357q0 103 42.5 191.5t126 145t190.5 56.5q80 0 134 -33t54 -105q0 -39 -17 -63.5t-53 -24.5q-47 0 -69 26q18 5 31 33t13 52q0 8 -2 16t-8 19.5t-21.5 19t-38.5 7.5q-61 0 -114.5 -51t-83.5 -129t-30 -158q0 -75 27 -119t68 -44q45 0 89 56.5t71 166.5l118 -1 l-82 -376q-26 -122 -83 -185.5t-157 -63.5q-82 0 -118.5 39t-36.5 98q0 58 33 98t101 40q86 0 86 -67q0 -17 -6 -40q-19 26 -58 26q-35 0 -53.5 -23t-18.5 -54q0 -28 17 -47.5t51 -19.5q32 0 55.5 26t39.5 97l50 221q-60 -78 -152 -78q-87 0 -141 66.5t-54 181.5z" />
<glyph unicode="H" horiz-adv-x="695" d="M56 485q0 68 53 130t134 98.5t163 36.5q15 0 41 -2l-64 -298h147l64 298h144l-159 -748h-144l80 376h-147l-80 -376h-144l145 680q-67 -27 -103.5 -83.5t-36.5 -134.5q0 -17 2 -30.5t4 -19t5 -12t3 -7.5q-107 0 -107 92z" />
<glyph unicode="I" horiz-adv-x="404" d="M56 485q0 68 53 130t134 98.5t163 36.5q15 0 41 -2l-159 -748h-144l145 679q-66 -27 -103 -83t-37 -134q0 -17 2 -30t4 -19t5 -12.5t3 -7.5q-107 0 -107 92z" />
<glyph unicode="J" horiz-adv-x="445" d="M-73 -68q0 58 32.5 97t101.5 39q86 0 86 -67q0 -17 -6 -40q-16 26 -59 26q-34 0 -52.5 -22t-18.5 -53q0 -32 20 -50.5t53 -18.5q32 0 53 25.5t37 97.5l157 714q-67 -28 -104 -84t-37 -135q0 -17 2 -30t4 -18.5t5 -12t3 -7.5q-107 0 -107 92q0 68 53 130t134 98.5 t164 36.5h40l-150 -710q-52 -247 -250 -247q-82 0 -121.5 37.5t-39.5 101.5z" />
<glyph unicode="K" horiz-adv-x="647" d="M56 485q0 68 53 130t134 98.5t163 36.5q15 0 41 -2l-68 -319l242 316h93l-282 -320q7 0 18 0.5t15 0.5q72 0 101 -27.5t29 -78.5q0 -44 -24.5 -134.5t-24.5 -117.5q0 -53 39 -68q-59 -17 -99 -17q-78 0 -78 67q0 32 26.5 128t26.5 135q0 68 -59 68q-10 0 -34 -4l-80 -377 h-144l145 680q-67 -27 -103.5 -83.5t-36.5 -134.5q0 -17 2 -30t4 -19t5 -12.5t3 -7.5q-107 0 -107 92z" />
<glyph unicode="L" horiz-adv-x="455" d="M54 475q0 68 53 130t134 98.5t163 36.5q15 0 41 -2l-154 -718q40 -9 99.5 -42t120.5 -60t117 -27q44 0 83 16q-18 -157 -111 -157q-35 0 -77 23.5t-83.5 57t-85 66.5t-94.5 56.5t-99 23.5q-15 0 -23 -1l149 693q-66 -27 -103 -83t-37 -134q0 -38 14 -69q-107 0 -107 92z " />
<glyph unicode="M" horiz-adv-x="790" d="M57 0l254 687q-75 -25 -117 -83t-42 -142q0 -16 2 -29.5t4 -19.5t5 -12.5t3 -7.5q-107 0 -107 90q0 96 101.5 181.5t214.5 85.5q41 0 78 -14l-23 -527l220 527h144l-105 -736h-144l64 449l-188 -449h-137l20 451l-167 -451h-80z" />
<glyph unicode="N" horiz-adv-x="723" d="M61 490q0 46 21 91.5t58.5 83.5t97 61.5t129.5 23.5q40 0 70 -14l117 -531l119 543h97l-170 -748h-138l-116 496l-114 -496h-95l154 681q-137 -54 -137 -217q0 -14 1 -25.5t3 -19t3.5 -11.5t3.5 -9t3 -6q-54 0 -80.5 22.5t-26.5 74.5z" />
<glyph unicode="O" horiz-adv-x="697" d="M54 477q0 68 56.5 132t149.5 102.5t192 38.5q242 0 242 -253q0 -61 -13 -127.5t-42 -134t-70.5 -121t-104 -87t-136.5 -33.5q-182 0 -182 201q0 64 17.5 142t49.5 152.5t86.5 124.5t118.5 50q27 0 51 -8q-66 -40 -120.5 -192t-54.5 -273q0 -108 60 -108q48 0 96.5 68.5 t79.5 175.5t31 212q0 89 -29.5 127t-103.5 38q-114 0 -198.5 -71t-84.5 -185q0 -37 10 -55q-101 0 -101 84z" />
<glyph unicode="P" horiz-adv-x="602" d="M57 485q0 104 111.5 184.5t246.5 80.5q110 0 169.5 -57.5t59.5 -140.5q0 -101 -80.5 -184t-208.5 -83h-5l-61 -285h-144l136 636l148 20l-71 -334q73 6 124 83.5t51 166.5q0 132 -141 132q-103 0 -172.5 -64.5t-69.5 -177.5q0 -41 14 -69q-107 0 -107 92z" />
<glyph unicode="Q" horiz-adv-x="698" d="M54 477q0 68 56.5 132t149.5 102.5t192 38.5q242 0 242 -253q0 -121 -49 -248.5t-141 -196.5q27 -40 53.5 -60.5t68.5 -20.5q8 0 24 2q-19 -49 -43.5 -67.5t-61.5 -18.5q-31 0 -53 9.5t-36 29t-21.5 37.5t-15.5 45q-44 -14 -91 -14q-182 0 -182 201q0 64 17.5 142 t49.5 152.5t86.5 124.5t118.5 50q27 0 51 -8q-66 -40 -120.5 -192t-54.5 -273q0 -30 2 -43q36 9 62 9q46 0 81 -27q51 65 86.5 180.5t35.5 228.5q0 89 -29.5 127t-103.5 38q-114 0 -198.5 -71t-84.5 -185q0 -25 10 -55q-101 0 -101 84zM304 116q14 -41 50 -41q19 0 36 10 q-20 35 -57 35q-14 0 -29 -4z" />
<glyph unicode="R" horiz-adv-x="656" d="M57 485q0 103 110.5 184t249.5 81q103 0 160.5 -47t57.5 -114q0 -47 -29 -94t-80 -76q70 -19 70 -99q0 -44 -24.5 -134.5t-24.5 -117.5q0 -53 39 -68q-60 -17 -99 -17q-78 0 -78 67q0 32 26.5 128t26.5 135q0 68 -59 68q-8 0 -34 -4l-80 -377h-144l136 636l148 20 l-49 -231h8q59 0 100.5 56t41.5 121q0 102 -126 102q-107 0 -180.5 -66t-73.5 -177q0 -16 2 -29t4 -19t5 -12.5t3 -7.5q-107 0 -107 92z" />
<glyph unicode="S" d="M-1 151q0 76 45 120t102 44q32 0 57.5 -15.5t30.5 -50.5q-47 0 -83 -24.5t-36 -72.5q0 -39 26.5 -64.5t72.5 -25.5q52 0 83.5 34t31.5 96q0 47 -21 90t-51.5 76t-60.5 64.5t-51 70t-21 78.5q0 77 66.5 128t164.5 51q18 0 35 -1.5t41.5 -9t42 -19.5t30 -35.5t12.5 -54.5 q0 -44 -22.5 -72.5t-59.5 -28.5q-28 0 -46 21q20 12 32.5 36.5t12.5 49.5q0 29 -17.5 47.5t-56.5 18.5q-42 0 -67 -23t-25 -67q0 -34 16.5 -64.5t41.5 -52t54.5 -49t54.5 -54.5t41.5 -69.5t16.5 -93.5q0 -119 -82 -183t-199 -64q-93 0 -152.5 41.5t-59.5 127.5z" />
<glyph unicode="T" horiz-adv-x="674" d="M62 495q0 50 19 93.5t58.5 80.5t108.5 58.5t160 21.5q56 0 131 -11.5t114 -11.5q70 0 122 21q-3 -127 -128 -127q-53 0 -152 22l-138 -642h-144l142 662h-11q-88 0 -138.5 -44t-50.5 -153q0 -19 1.5 -33t3.5 -19.5t5 -12t4 -8.5q-56 0 -81.5 23t-25.5 80z" />
<glyph unicode="U" horiz-adv-x="770" d="M55 485q0 69 53.5 130.5t141 98t183.5 36.5q22 0 48 -5q-16 -58 -36.5 -134t-31 -115t-24 -89.5t-20 -78t-13 -58.5t-8.5 -51.5t-2 -39.5q0 -57 12.5 -76t66.5 -19q32 0 51.5 9.5t41.5 45.5t42.5 107t47.5 193l67 309h141l-66 -312q-21 -100 -39.5 -164t-45.5 -122 t-61.5 -89.5t-84 -49.5t-116.5 -18q-105 0 -149 40t-44 122q0 27 3.5 58t14.5 81t16 73.5t24.5 99t23.5 93.5l33 132q-83 -22 -130 -81.5t-47 -148.5q0 -38 14 -69q-107 0 -107 92z" />
<glyph unicode="V" horiz-adv-x="660" d="M55 485q0 68 53 130t134 98.5t163 36.5q15 0 41 -2l9 -615l210 612h70l-278 -745h-144l-16 683q-71 -26 -110 -83t-39 -138q0 -16 2 -29.5t4 -19.5t5 -12.5t3 -7.5q-107 0 -107 92z" />
<glyph unicode="W" horiz-adv-x="1006" d="M55 485q0 68 53 130t134 98.5t163 36.5q15 0 41 -2l9 -615l210 612h127l9 -612l210 612h70l-278 -745h-144l-12 509l-190 -509h-144l-16 683q-71 -26 -110 -83t-39 -138q0 -17 2 -30.5t4 -19t5 -12t3 -7.5q-107 0 -107 92z" />
<glyph unicode="X" horiz-adv-x="670" d="M55 485q0 68 53 130t134 98.5t163 36.5q15 0 41 -2l66 -271l128 268h65l-173 -353l96 -392h-159l-70 276l-147 -276h-67l192 364l-80 319q-71 -26 -110 -83t-39 -138q0 -17 2 -30.5t4 -19t5 -12t3 -7.5q-107 0 -107 92z" />
<glyph unicode="Y" horiz-adv-x="661" d="M55 485q0 68 53 130t134 98.5t163 36.5q15 0 41 -2l87 -358l148 355h66l-194 -437l-66 -308h-160l66 308l-96 375q-71 -26 -110 -83t-39 -138q0 -17 2 -30.5t4 -19t5 -12t3 -7.5q-107 0 -107 92z" />
<glyph unicode="Z" horiz-adv-x="535" d="M8 0l350 696q-9 0 -40 1t-50 1q-92 0 -92 -22q17 0 17 -32q0 -30 -18.5 -43.5t-40.5 -13.5q-26 0 -38.5 17.5t-12.5 41.5q0 41 33 72.5t90 31.5h343l-345 -685q12 0 45.5 -1t50.5 -1q88 0 104 22q-18 0 -18 31q0 29 18.5 43.5t41.5 14.5q26 0 38.5 -17t12.5 -41 q0 -42 -36 -79t-92 -37h-361z" />
<glyph unicode="[" horiz-adv-x="298" d="M-48 -250l212 1000h203l-13 -62h-111l-186 -876h111l-13 -62h-203z" />
<glyph unicode="\" d="M106 750h72l212 -1000h-72z" />
<glyph unicode="]" horiz-adv-x="297" d="M-99 -250l13 62h111l186 876h-111l13 62h203l-212 -1000h-203z" />
<glyph unicode="^" horiz-adv-x="421" d="M50 561l212 189h21l60 -189h-32l-60 80l-157 -80h-44z" />
<glyph unicode="_" horiz-adv-x="443" d="M-21 0l18 79h350l-17 -79h-351z" />
<glyph unicode="`" horiz-adv-x="201" d="M24 750h105l29 -189h-75z" />
<glyph unicode="a" d="M4 155q0 53 16.5 112t46.5 113t81 89.5t113 35.5q74 0 82 -52l10 47h145l-73 -340q-4 -17 -4 -32q0 -20 9.5 -28.5t31.5 -8.5q55 0 81 88h42q-63 -179 -201 -179q-41 0 -66.5 22.5t-31.5 64.5q-61 -93 -149 -93q-57 0 -95 39t-38 122zM152 169q0 -27 5 -44.5t14 -24 t15 -8t16 -1.5q24 0 49.5 23.5t33.5 64.5l48 226q-1 13 -11 25.5t-30 12.5q-40 0 -73.5 -49.5t-50 -112t-16.5 -112.5z" />
<glyph unicode="b" horiz-adv-x="444" d="M10 122q0 28 7 57l107 501l148 20l-48 -225q49 30 82 30q118 0 118 -173q0 -38 -8 -80t-28 -89t-49.5 -84t-78.5 -61t-110 -24q-68 0 -104 33.5t-36 94.5zM153 137q0 -46 53 -46q46 0 81.5 80.5t35.5 164.5q0 40 -14 68t-39 28q-44 0 -59 -18l-55 -254q-3 -12 -3 -23z " />
<glyph unicode="c" horiz-adv-x="384" d="M4 153q0 48 14.5 104t43.5 114t84.5 96t126.5 38q111 0 111 -88q0 -36 -15.5 -60t-37.5 -24t-40 12q17 37 17 70q0 37 -28 37q-33 0 -64.5 -50t-49.5 -117t-18 -122q0 -48 18.5 -66.5t57.5 -18.5q54 0 93.5 25.5t83.5 75.5h34q-115 -185 -275 -185q-156 0 -156 159z" />
<glyph unicode="d" d="M4 155q0 53 16.5 112t46.5 113t81 89.5t113 35.5q75 0 82 -53l49 228l148 20l-115 -540q-4 -17 -4 -32q0 -20 9.5 -28.5t31.5 -8.5q55 0 81 88h42q-63 -179 -201 -179q-41 0 -66.5 22.5t-31.5 64.5q-61 -93 -149 -93q-57 0 -95 39t-38 122zM152 169q0 -27 5 -44.5t14 -24 t15 -8t16 -1.5q24 0 49.5 23.5t33.5 64.5l48 225q0 13 -10 26t-31 13q-40 0 -73.5 -49.5t-50 -112t-16.5 -112.5z" />
<glyph unicode="e" horiz-adv-x="384" d="M4 153q0 37 8 80.5t28.5 92.5t50 88t77.5 65t106 26q110 0 110 -96q0 -83 -68.5 -142.5t-161.5 -64.5q-2 -28 -2 -40q0 -49 17 -66.5t55 -17.5q54 0 93.5 25.5t83.5 75.5h34q-115 -185 -275 -185q-156 0 -156 159zM162 250q58 4 101.5 52t43.5 109q0 41 -25 41 q-35 0 -69 -61t-51 -141z" />
<glyph unicode="f" horiz-adv-x="267" d="M-191 -142q0 33 12.5 57.5t39 41.5t52 27.5t68.5 23.5l121 571q36 170 182 170q48 0 83 -30.5t35 -77.5q0 -23 -3 -41h-47q2 20 2 27q0 16 -11 25t-27 9q-21 0 -41 -18.5t-29 -63.5l-17 -79h73l-7 -40h-74l-115 -540q-36 -170 -179 -170q-48 0 -83 30.5t-35 77.5z M-136 -128q0 -11 12 -22t28 -11q40 0 57 78l13 58q-53 -18 -81.5 -41.5t-28.5 -61.5z" />
<glyph unicode="g" horiz-adv-x="507" d="M4 175q0 50 16.5 105.5t46.5 106.5t81 84.5t113 33.5q74 0 82 -52l10 47h144l-99 -464q48 17 77 48.5t49 94.5h42q-14 -47 -34.5 -82t-46 -55.5t-47.5 -31.5t-49 -18l-15 -72q-36 -170 -180 -170q-48 0 -80 25t-32 72q0 99 163 149l19 85q-54 -67 -127 -67q-57 0 -95 39 t-38 122zM137 -139q0 -12 9.5 -22.5t24.5 -10.5q17 0 33 23.5t25 65.5l6 29q-98 -37 -98 -85zM152 189q0 -27 5 -44.5t14 -24t15 -8t16 -1.5q25 0 51.5 23.5t35.5 64.5l44 207q-1 13 -11 25t-30 12q-40 0 -73.5 -46t-50 -103.5t-16.5 -104.5z" />
<glyph unicode="h" horiz-adv-x="505" d="M-21 0l145 680l148 20l-54 -252q49 56 117 56q51 0 81 -28t30 -85q0 -44 -24 -138.5t-24 -119.5q0 -42 40 -42q30 0 47 21t37 67h42q-63 -185 -186 -185q-61 0 -89.5 32.5t-28.5 80.5q0 35 22.5 129t22.5 126q0 51 -36 51q-50 0 -78 -92l-68 -321h-144z" />
<glyph unicode="i" horiz-adv-x="267" d="M9 114q0 27 8 65l68 321h144l-72 -340q-4 -17 -4 -32q0 -20 9.5 -28.5t31.5 -8.5q29 0 54 25t36 63h42q-65 -185 -210 -185q-48 0 -77.5 30t-29.5 90zM105 633q0 33 23 56.5t56 23.5t56.5 -23.5t23.5 -56.5t-23.5 -56t-56.5 -23t-56 23t-23 56z" />
<glyph unicode="j" horiz-adv-x="240" d="M-185 -153q0 99 164 149l107 504h144l-99 -464q48 17 77 48.5t49 94.5h42q-14 -47 -34.5 -82t-46 -55.5t-47.5 -31.5t-49 -18l-15 -72q-36 -170 -180 -170q-48 0 -80 25t-32 72zM-130 -139q0 -12 9.5 -22.5t24.5 -10.5q17 0 33 23.5t25 65.5l6 29q-98 -37 -98 -85z M97 634q0 33 23 56.5t56 23.5t56.5 -23.5t23.5 -56.5t-23.5 -56t-56.5 -23t-56 23t-23 56z" />
<glyph unicode="k" horiz-adv-x="518" d="M-21 0l145 680l148 20l-75 -352l193 152h99l-200 -139q22 4 33 4q53 0 81.5 -33t28.5 -84q0 -22 -10 -61.5t-10 -58.5q0 -37 39 -37q30 0 47 21t37 67h42q-63 -185 -184 -185q-61 0 -93.5 29.5t-32.5 84.5q0 23 9 65.5t9 62.5q0 48 -36 48q-29 0 -74 -37l-52 -247h-144z " />
<glyph unicode="l" horiz-adv-x="267" d="M9 114q0 27 8 65l107 501l148 20l-115 -540q-4 -17 -4 -32q0 -20 9.5 -28.5t31.5 -8.5q29 0 54 25t36 63h42q-65 -185 -210 -185q-48 0 -77.5 30t-29.5 90z" />
<glyph unicode="m" horiz-adv-x="752" d="M-21 0l106 500h144l-11 -52q50 57 122 57q85 0 102 -86q56 85 140 85q51 0 81 -28t30 -85q0 -44 -24 -138.5t-24 -119.5q0 -42 40 -42q30 0 47 21t37 67h42q-63 -185 -186 -185q-61 0 -89.5 32.5t-28.5 80.5q0 35 22.5 129t22.5 126q0 51 -36 51q-50 0 -78 -92l-68 -321 h-144l73 345q3 12 3 25q0 44 -30 44q-53 0 -81 -93l-68 -321h-144z" />
<glyph unicode="n" horiz-adv-x="505" d="M-21 0l106 500h144l-11 -52q49 56 117 56q51 0 81 -28t30 -85q0 -44 -24 -138.5t-24 -119.5q0 -42 40 -42q30 0 47 21t37 67h42q-63 -185 -186 -185q-61 0 -89.5 32.5t-28.5 80.5q0 35 22.5 129t22.5 126q0 51 -36 51q-50 0 -78 -92l-68 -321h-144z" />
<glyph unicode="o" horiz-adv-x="439" d="M3 152q0 37 8.5 81t29 93t50.5 88t78.5 65t107.5 26q126 0 128 -157q4 -1 11 -1q68 0 154 60l9 -27q-59 -63 -176 -83q-12 -137 -79 -220t-161 -83q-74 0 -117 38t-43 120zM152 169q0 -48 11 -64.5t40 -16.5q37 0 71 59t45 147q-27 6 -27 42q0 41 31 53q-1 30 -10 43 t-28 13q-33 0 -65 -49t-50 -113t-18 -114z" />
<glyph unicode="p" horiz-adv-x="468" d="M-74 -250l167 787h144l-16 -75q50 43 117 43q122 0 122 -158q0 -44 -6.5 -89t-24.5 -93.5t-44.5 -85.5t-70.5 -61t-100 -24q-64 0 -85 36l-52 -244zM145 104q8 -23 38 -23q49 0 82.5 49.5t45.5 107t12 112.5q0 83 -50 83q-40 0 -69 -49z" />
<glyph unicode="q" horiz-adv-x="486" d="M4 155q0 53 16.5 112t46.5 113t81 89.5t113 35.5q72 0 81 -49l10 44h144l-152 -714l-151 -36l63 299q-51 -55 -119 -55q-57 0 -95 39t-38 122zM152 169q0 -27 5 -44.5t14 -24t15 -8t16 -1.5q21 0 44 19t34 52l52 247q-6 34 -40 34q-40 0 -73.5 -49.5t-50 -112 t-16.5 -112.5z" />
<glyph unicode="r" horiz-adv-x="376" d="M-21 0l106 500h144l-14 -63q70 68 122 68q32 0 50.5 -22t18.5 -53q0 -29 -19 -51t-53 -22q-19 0 -28.5 10t-10.5 21.5t-5 21.5t-14 10q-30 0 -73 -40l-80 -380h-144z" />
<glyph unicode="s" horiz-adv-x="382" d="M-15 122q0 33 15.5 58t37.5 35q67 118 123 296l148 20q5 -110 10.5 -189.5t8.5 -114t3 -60.5q0 -22 -4 -38q43 25 72 50h42q-62 -72 -153 -125q-57 -60 -157 -60q-71 0 -108.5 38.5t-37.5 89.5zM38 143q0 -36 14.5 -53t46.5 -17q37 0 62 22t25 71q0 25 -7 91.5t-12 145.5 q-24 -79 -81 -189q23 -11 23 -35q0 -19 -12.5 -34t-31.5 -15q-21 0 -27 13z" />
<glyph unicode="t" horiz-adv-x="267" d="M9 114q0 27 8 65l60 281h-33l8 40h33l30 138l148 20l-34 -158h60l-8 -40h-60l-64 -300q-4 -17 -4 -32q0 -20 9.5 -28.5t31.5 -8.5q29 0 54 25t36 63h42q-65 -185 -210 -185q-48 0 -77.5 30t-29.5 90z" />
<glyph unicode="u" horiz-adv-x="505" d="M9 114q0 27 8 65l68 321h144l-72 -340q-3 -15 -3 -28q0 -41 30 -41q54 0 80 88l68 321h144l-72 -340q-4 -17 -4 -32q0 -20 9.5 -28.5t31.5 -8.5q55 0 81 88h42q-65 -185 -201 -185q-43 0 -69 24.5t-30 70.5q-58 -95 -148 -95q-48 0 -77.5 30t-29.5 90z" />
<glyph unicode="v" horiz-adv-x="414" d="M8 112q0 24 5 48l72 340h144l-72 -340q-5 -23 -5 -36q0 -33 34 -33q46 0 87.5 61.5t63.5 138t22 134.5q-4 -10 -32 -10q-17 0 -26.5 16t-9.5 35q0 24 16 39t46 15q63 0 63 -87q0 -51 -9.5 -107.5t-32 -116t-54.5 -107t-81.5 -78t-107.5 -30.5t-90.5 30t-32.5 88z" />
<glyph unicode="w" horiz-adv-x="661" d="M9 114q0 27 8 65l68 321h144l-72 -340q-3 -12 -3 -25q0 -44 30 -44q54 0 80 88l68 321h144l-72 -340q-5 -23 -5 -36q0 -33 34 -33q46 0 87.5 61.5t63.5 138t22 134.5q-4 -10 -32 -10q-17 0 -26.5 16t-9.5 35q0 24 16 39t46 15q63 0 63 -87q0 -51 -9.5 -107.5t-32 -116 t-54.5 -107t-81.5 -78t-107.5 -30.5q-102 0 -120 84q-57 -84 -142 -84q-48 0 -77.5 30t-29.5 90z" />
<glyph unicode="x" horiz-adv-x="522" d="M17 179q13 61 32 114.5t47 103.5t68.5 79t88.5 29q94 0 108 -119l9 -76q84 95 87 144q-12 -2 -17 -2q-47 0 -47 56q0 24 19.5 36.5t48.5 12.5q26 0 41 -28t15 -63q0 -44 -29.5 -87.5t-109.5 -130.5l9 -70q6 -48 20.5 -67.5t41.5 -19.5q29 0 54 25t36 63h42 q-16 -45 -37 -79t-41.5 -53.5t-44 -32t-43 -16.5t-38.5 -4q-93 0 -122 174l-138 -168h-72l202 228l-16 112q-7 49 -15.5 66t-22.5 17q-32 0 -70.5 -64t-63.5 -180h-42z" />
<glyph unicode="y" horiz-adv-x="486" d="M9 114q0 27 8 65l68 321h144l-72 -340q-3 -12 -3 -25q0 -44 30 -44q52 0 78 82l70 327h144l-99 -464q48 17 77 48.5t49 94.5h42q-14 -47 -34.5 -82t-46 -55.5t-47.5 -31.5t-49 -18l-15 -72q-36 -170 -180 -170q-48 0 -80 25t-32 72q0 99 163 149l12 54q-50 -56 -120 -56 q-48 0 -77.5 30t-29.5 90zM116 -139q0 -12 9.5 -22.5t24.5 -10.5q17 0 33 23.5t25 65.5l6 29q-98 -37 -98 -85z" />
<glyph unicode="z" horiz-adv-x="428" d="M17 0l255 446h-56q-55 0 -55 -16l5 -4q6 -4 6 -18q0 -26 -16 -39.5t-38 -13.5q-19 0 -32.5 11.5t-13.5 32.5q0 35 33 68t83 33h257l-245 -423q3 0 31.5 -3t44.5 -3q43 0 47 20q-19 1 -19 21q0 15 15 29t41 14q22 0 33 -13.5t11 -34.5q0 -38 -34 -72.5t-88 -34.5h-265z " />
<glyph unicode="{" horiz-adv-x="288" d="M-7 -140q0 57 45.5 172.5t45.5 164.5q0 31 -41 31q-13 0 -32 -3l12 57q18 -3 31 -3q22 0 36.5 10t20.5 28.5t8 34.5t2 38q0 28 -3.5 81t-3.5 78q0 31 10 64t30 64.5t56.5 52t83.5 20.5h43l-9 -50q-36 0 -56 -4.5t-35 -21.5q-46 -51 -46 -138q0 -28 3 -85t3 -86 q0 -78 -40 -111q12 -14 12 -36q0 -43 -45 -167t-45 -175q0 -23 2 -34.5t9.5 -23.5t25.5 -17t48 -5l-9 -45h-29q-65 0 -99 29t-34 80z" />
<glyph unicode="|" horiz-adv-x="314" d="M95 -250v1001h93v-1001h-93z" />
<glyph unicode="}" horiz-adv-x="287" d="M-80 -249l9 50q36 0 56 4.5t35 21.5q46 51 46 138q0 29 -3 86t-3 85q0 78 40 111q-12 14 -12 36q0 43 45 167t45 175q0 23 -2 34.5t-9.5 23.5t-25.5 17t-48 5l9 45h29q65 0 99 -29t34 -80q0 -57 -45.5 -172.5t-45.5 -164.5q0 -31 41 -31q12 0 32 3l-12 -57q-18 3 -31 3 q-22 0 -36.5 -10t-20.5 -28.5t-8 -34.5t-2 -38q0 -28 3.5 -81t3.5 -78q0 -31 -10 -64t-30 -64.5t-56.5 -52t-83.5 -20.5h-43z" />
<glyph unicode="~" horiz-adv-x="441" d="M86 582q49 98 167 98q38 0 88 -16.5t77 -16.5q42 0 63 23l6 -1q-9 -37 -57.5 -68.5t-103.5 -31.5q-34 0 -88 18.5t-80 18.5q-38 0 -66 -26z" />
<glyph unicode="&#xa1;" horiz-adv-x="259" d="M-61 -248l130 469h85l-71 -469h-144zM59 372q0 33 23 56.5t56 23.5t56.5 -23.5t23.5 -56.5t-23.5 -56t-56.5 -23t-56 23t-23 56z" />
<glyph unicode="&#xa2;" horiz-adv-x="391" d="M34 316q0 106 55.5 186t152.5 93l22 123h58l-27 -122q90 -6 90 -68q0 -17 -5 -33h-57q5 18 5 28q0 34 -37 34h-5l-76 -343q5 -1 15 -1q25 0 50.5 11.5t40.5 22.5t41 34q-22 -130 -162 -136l-38 -172h-27l31 173q-55 8 -91 52.5t-36 117.5zM139 319q0 -62 37 -90l55 305 q-40 -31 -66 -92.5t-26 -122.5z" />
<glyph unicode="&#xa3;" horiz-adv-x="488" d="M25 335q33 67 105 89l72 295l150 31l-80 -331q59 -19 85 -19q42 0 63 23l6 -1q-9 -37 -57.5 -68.5t-103.5 -31.5h-16l-56 -231q16 2 49.5 3t54.5 3.5t56.5 17.5t73.5 43q-8 -72 -36 -115t-68 -43h-295l86 358q-2 0 -8 0.5t-9 0.5q-38 0 -66 -26z" />
<glyph unicode="&#xa4;" horiz-adv-x="479" d="M59 492l38 36l56 -56q41 30 91 30q49 0 89 -29l56 56l36 -36l-55 -55q30 -41 30 -92q0 -50 -30 -91l55 -55l-36 -36l-55 55q-40 -29 -90 -29q-51 0 -92 30l-56 -56l-36 36l56 56q-29 40 -29 89q0 50 29 90zM144 346q0 -41 29.5 -70.5t70.5 -29.5t70.5 29.5t29.5 70.5 t-29.5 70.5t-70.5 29.5t-70.5 -29.5t-29.5 -70.5z" />
<glyph unicode="&#xa5;" horiz-adv-x="558" d="M84 142l14 50h96l14 65h-99l14 50h96l-112 443h164l88 -361l150 361h66l-196 -443h131l-14 -50h-128l-14 -65h131l-14 -50h-128l-30 -142h-160l30 142h-99z" />
<glyph unicode="&#xa6;" horiz-adv-x="318" d="M97 222h93v-472h-93v472zM97 301v450h93v-450h-93z" />
<glyph unicode="&#xa7;" horiz-adv-x="521" d="M-11 77q0 54 27.5 88.5t68.5 34.5q19 0 35 -9t24 -17.5t20 -23.5q-44 -4 -62.5 -21t-18.5 -55q0 -78 77 -78q85 0 85 96q0 46 -18.5 82t-45 60t-53 46.5t-45 52t-18.5 65.5q0 47 28.5 83t75.5 54q-5 22 -5 42q0 83 64 128t148 45q19 0 37 -3t41 -11.5t37.5 -29 t14.5 -51.5q0 -35 -18 -58t-48 -23q-22 0 -37 16q16 10 26 29.5t10 39.5q0 23 -14 38.5t-42 15.5q-40 0 -67 -32t-27 -75q0 -34 20.5 -62.5t49.5 -51t58 -46.5t49.5 -60.5t20.5 -82.5q0 -60 -31.5 -108t-84.5 -59q0 -88 -57.5 -139t-159.5 -51q-21 0 -40 2t-43 10.5t-41 22 t-29 38.5t-12 58zM171 451q0 -27 26 -57.5t59 -55.5t65.5 -66.5t43.5 -88.5q19 24 19 63q0 40 -22.5 74t-51.5 55.5t-65 52t-55 58.5q-19 -10 -19 -35z" />
<glyph unicode="&#xa8;" horiz-adv-x="392" d="M56 634q0 25 18 43t43 18t43 -18t18 -43t-18 -43t-43 -18t-43 17.5t-18 43.5zM236 634q0 25 18 43t43 18t43 -18t18 -43t-18 -43t-43 -18t-43 17.5t-18 43.5z" />
<glyph unicode="&#xa9;" horiz-adv-x="564" d="M42 331q0 107 71 181.5t171 74.5t171 -74t71 -181t-71 -181.5t-171 -74.5q-99 0 -170.5 74.5t-71.5 180.5zM88 331q0 -89 58 -151t140 -62q81 0 139 62t58 151t-58 151t-139 62q-82 0 -140 -62t-58 -151zM143 336q0 65 45.5 106.5t103.5 41.5q41 0 75 -24t48 -71l-47 -18 q-5 29 -27.5 44.5t-51.5 15.5q-37 0 -64 -24t-27 -66q0 -45 27.5 -76t67.5 -31q51 0 75 45l44 -29q-45 -68 -123 -68q-60 0 -103 45.5t-43 108.5z" />
<glyph unicode="&#xaa;" horiz-adv-x="356" d="M95 557q0 67 38 127.5t104 60.5q33 0 51 -18l3 13h83l-42 -184q-3 -14 -3 -19q0 -19 21 -19q10 0 15 2q-17 -50 -56 -50q-29 0 -41 13t-16 41q-36 -57 -89 -57q-68 0 -68 90zM173 565q0 -53 29 -53q26 0 48 49l32 139q-14 11 -29 11q-32 0 -56 -48.5t-24 -97.5z" />
<glyph unicode="&#xab;" horiz-adv-x="516" d="M8 254l216 195l42 -45l-175 -151l137 -140l-40 -44zM216 254l216 195l42 -45l-175 -151l137 -140l-40 -44z" />
<glyph unicode="&#xac;" horiz-adv-x="467" d="M20 222l18 79h362l-51 -250h-113l35 171h-251z" />
<glyph unicode="&#xad;" horiz-adv-x="321" d="M39 222l18 79h200l-17 -79h-201z" />
<glyph unicode="&#xae;" horiz-adv-x="564" d="M43 334q0 107 71 181.5t171 74.5t171 -74t71 -181t-71 -181.5t-171 -74.5q-99 0 -170.5 74.5t-71.5 180.5zM89 334q0 -89 58 -151t140 -62q81 0 139 62t58 151t-58 151t-139 62q-82 0 -140 -62t-58 -151zM189 192l1 291h97q53 0 81.5 -22t28.5 -62q0 -28 -16.5 -48.5 t-42.5 -28.5l65 -125l-47 -7l-62 125h-59v-123h-46zM235 353h45q71 0 71 44q0 45 -61 45h-55v-89z" />
<glyph unicode="&#xb0;" horiz-adv-x="320" d="M84 488q0 91 44.5 152.5t117.5 61.5q82 0 82 -113q0 -74 -41 -144.5t-107 -70.5q-55 0 -75.5 28t-20.5 86zM156 476q0 -65 27 -65q38 0 61.5 57t23.5 136q0 63 -25 63t-52.5 -40.5t-32.5 -107.5q-2 -24 -2 -43z" />
<glyph unicode="&#xb1;" horiz-adv-x="479" d="M2 68l18 79h367l-17 -79h-368zM54 309l24 112h128l27 122h113l-27 -122h127l-23 -112h-128l-27 -123h-113l27 123h-128z" />
<glyph unicode="&#xb2;" horiz-adv-x="349" d="M69 361q0 32 19.5 63.5t48 58t56.5 54t47.5 63.5t19.5 76q0 19 -11 31.5t-24 12.5q-28 0 -37.5 -10.5t-9.5 -32.5q0 -31 22 -37q-22 -19 -45 -19q-18 0 -29.5 13t-11.5 36q0 32 29.5 55.5t90.5 23.5q110 0 110 -86q0 -34 -16.5 -64.5t-43 -54t-53.5 -44t-54 -43 t-40 -41.5h4q18 0 55.5 -5t57.5 -5q9 0 17 1.5t12.5 2.5t12.5 6.5t9.5 6.5t11.5 10t12 11q0 -26 -0.5 -38t-4 -28t-11 -22.5t-20.5 -11.5t-33 -5q-32 0 -73 10t-70 10q-6 0 -14.5 -3t-18.5 -7.5t-13 -5.5q-2 12 -2 18z" />
<glyph unicode="&#xb3;" horiz-adv-x="350" d="M67 429q0 39 18 60.5t51 21.5q40 0 47 -27q-51 -4 -51 -64q0 -25 13 -34.5t38 -9.5q31 0 51 28.5t20 65.5q0 33 -18.5 61t-56.5 40q47 11 73 43t26 64q0 19 -10 30.5t-27 11.5q-52 0 -52 -43q0 -31 22 -37q-22 -19 -45 -19q-18 0 -29.5 13t-11.5 36q0 31 32 55t93 24 q48 0 75 -23t27 -56q0 -63 -79 -100q72 -21 72 -88q0 -52 -43.5 -96t-105.5 -44q-129 0 -129 87z" />
<glyph unicode="&#xb4;" horiz-adv-x="316" d="M120 561l91 189h105l-121 -189h-75z" />
<glyph unicode="&#xb5;" horiz-adv-x="505" d="M-56 -166l141 666h144l-72 -340q-3 -12 -3 -25q0 -44 30 -44q54 0 80 88l68 321h144l-72 -340q-4 -17 -4 -32q0 -20 9.5 -28.5t31.5 -8.5q55 0 81 88h42q-63 -179 -201 -179q-42 0 -68 23t-30 67q-55 -88 -143 -90l-27 -130z" />
<glyph unicode="&#xb6;" horiz-adv-x="519" d="M65 491q0 102 67 180t183 78q82 0 133.5 -40t51.5 -125q0 -30 -8 -72l-127 -593h-94l81 380q-15 -5 -43 -11l-77 -369h-94l77 369q-72 14 -111 71t-39 132zM320 339h6q20 0 35 4l48 227q6 28 6 49q0 42 -23 63z" />
<glyph unicode="&#xb7;" horiz-adv-x="281" d="M33 267q0 40 28 68.5t68 28.5t68.5 -28.5t28.5 -68.5t-28.5 -68t-68.5 -28t-68 28t-28 68z" />
<glyph unicode="&#xb8;" horiz-adv-x="227" d="M0 -190q18 32 40 32t42 -13.5t32 -13.5t21 13t9 29q0 15 -9.5 25.5t-29.5 10.5q-26 0 -52 -12l53 148l35 -23l-29 -72q32 8 53 8q62 0 62 -50q0 -51 -36.5 -80.5t-83.5 -29.5q-53 0 -107 28z" />
<glyph unicode="&#xb9;" horiz-adv-x="227" d="M81 345l77 337h-55l7 25q72 0 147 42l-92 -404h-84z" />
<glyph unicode="&#xba;" horiz-adv-x="309" d="M97 555q0 93 44 141.5t108 48.5q22 0 38.5 -7t16.5 -17q0 -17 -26 -26q-8 19 -26 19q-26 0 -45 -30.5t-26 -64t-7 -59.5q0 -41 41 -41q46 0 59 108q-15 4 -15 22q0 14 12.5 27.5t26.5 13.5q11 0 15 -4t4 -15q7 4 33 32l6 -11q-13 -43 -39 -57q-4 -78 -44 -123.5 t-85 -45.5q-47 0 -69 21t-22 68z" />
<glyph unicode="&#xbb;" horiz-adv-x="519" d="M17 114l175 151l-137 140l40 44l180 -185l-216 -195zM225 114l175 151l-137 140l40 44l180 -185l-216 -195z" />
<glyph unicode="&#xbc;" horiz-adv-x="676" d="M49 225l77 337h-55l7 25q72 0 147 42l-92 -404h-84zM118 -165l264 915h72l-264 -915h-72zM353 150q7 20 29.5 63t38.5 84t16 76q0 18 -4 33q27 0 46 -13.5t19 -37.5q0 -31 -13.5 -59t-38.5 -60t-33 -47h90l47 206l86 11l-50 -217h38l-12 -39h-35l-34 -149h-83l34 149 h-141z" />
<glyph unicode="&#xbd;" horiz-adv-x="684" d="M49 225l77 337h-55l7 25q72 0 147 42l-92 -404h-84zM113 -165l264 915h72l-264 -915h-72zM345 21q0 32 19.5 63.5t48 58t56.5 54t47.5 63.5t19.5 76q0 19 -11 31.5t-24 12.5q-28 0 -37.5 -10.5t-9.5 -32.5q0 -31 22 -37q-22 -19 -45 -19q-18 0 -29.5 13t-11.5 36 q0 32 29.5 55.5t90.5 23.5q110 0 110 -86q0 -34 -16.5 -64.5t-43 -54t-53.5 -44t-54 -43t-40 -41.5h4q18 0 55.5 -5t57.5 -5q9 0 17 1.5t12.5 2.5t12.5 6.5t9.5 6.5t11.5 10t12 11q0 -26 -0.5 -38t-4 -28t-11 -22.5t-20.5 -11.5t-33 -5q-32 0 -73 10t-70 10q-6 0 -14.5 -3 t-18.5 -7.5t-13 -5.5q-2 12 -2 18z" />
<glyph unicode="&#xbe;" horiz-adv-x="778" d="M25 309q0 39 18 60.5t51 21.5q40 0 47 -27q-51 -4 -51 -64q0 -25 13 -34.5t38 -9.5q31 0 51 28.5t20 65.5q0 33 -18.5 61t-56.5 40q47 11 73 43t26 64q0 19 -9.5 30.5t-27.5 11.5q-52 0 -52 -43q0 -31 22 -37q-22 -19 -45 -19q-18 0 -29.5 13t-11.5 36q0 31 32 55t93 24 q48 0 75 -23t27 -56q0 -63 -79 -100q72 -21 72 -88q0 -52 -43.5 -96t-105.5 -44q-129 0 -129 87zM219 -165l264 915h72l-264 -915h-72zM457 150q7 20 29.5 63t38.5 84t16 76q0 18 -4 33q27 0 46 -13.5t19 -37.5q0 -31 -13.5 -59t-38.5 -60t-33 -47h90l47 206l86 11l-50 -217 h38l-12 -39h-35l-34 -149h-83l34 149h-141z" />
<glyph unicode="&#xbf;" horiz-adv-x="417" d="M-64 -119q0 48 20 86.5t51 66t63.5 53.5t62.5 60.5t43 73.5h66q0 -38 -19.5 -73t-47 -63.5t-54.5 -57.5t-46.5 -66t-19.5 -77q0 -41 17 -59t42 -18q31 0 56 23.5t25 58.5q0 21 -9.5 41.5t-28.5 25.5q25 42 73 42q31 0 53.5 -22t22.5 -62q0 -61 -53.5 -111t-161.5 -50 q-86 0 -120.5 33.5t-34.5 94.5zM154 373q0 33 23 56.5t56 23.5t56.5 -23.5t23.5 -56.5t-23.5 -56t-56.5 -23t-56 23t-23 56z" />
<glyph unicode="&#xc0;" horiz-adv-x="603" d="M-39 335q0 51 58 87t144 36q22 0 54 -3q82 131 174 213t176 82q43 0 77 -14l-157 -736h-144l77 363q-66 30 -134 36q-57 -123 -93.5 -250.5t-36.5 -202.5q0 -39 14 -60q-22 0 -35.5 1t-34.5 6.5t-33 16t-21.5 31.5t-9.5 51q0 67 40.5 179.5t106.5 227.5q-100 -6 -117 -52 q4 0 8.5 -10.5t4.5 -20.5q0 -18 -16 -28.5t-40 -10.5q-27 0 -44.5 15t-17.5 43zM307 442q70 -14 122 -35l58 272q-84 -45 -180 -237zM389 1000h105l29 -189h-75z" />
<glyph unicode="&#xc1;" horiz-adv-x="603" d="M-39 335q0 51 58 87t144 36q22 0 54 -3q82 131 174 213t176 82q43 0 77 -14l-157 -736h-144l77 363q-66 30 -134 36q-57 -123 -93.5 -250.5t-36.5 -202.5q0 -39 14 -60q-22 0 -35.5 1t-34.5 6.5t-33 16t-21.5 31.5t-9.5 51q0 67 40.5 179.5t106.5 227.5q-100 -6 -117 -52 q4 0 8.5 -10.5t4.5 -20.5q0 -18 -16 -28.5t-40 -10.5q-27 0 -44.5 15t-17.5 43zM307 442q70 -14 122 -35l58 272q-84 -45 -180 -237zM438 811l91 189h105l-121 -189h-75z" />
<glyph unicode="&#xc2;" horiz-adv-x="603" d="M-39 335q0 51 58 87t144 36q22 0 54 -3q82 131 174 213t176 82q43 0 77 -14l-157 -736h-144l77 363q-66 30 -134 36q-57 -123 -93.5 -250.5t-36.5 -202.5q0 -39 14 -60q-22 0 -35.5 1t-34.5 6.5t-33 16t-21.5 31.5t-9.5 51q0 67 40.5 179.5t106.5 227.5q-100 -6 -117 -52 q4 0 8.5 -10.5t4.5 -20.5q0 -18 -16 -28.5t-40 -10.5q-27 0 -44.5 15t-17.5 43zM307 442q70 -14 122 -35l58 272q-84 -45 -180 -237zM359 811l212 189h21l60 -189h-32l-60 80l-157 -80h-44z" />
<glyph unicode="&#xc3;" horiz-adv-x="603" d="M-39 335q0 51 58 87t144 36q22 0 54 -3q82 131 174 213t176 82q43 0 77 -14l-157 -736h-144l77 363q-66 30 -134 36q-57 -123 -93.5 -250.5t-36.5 -202.5q0 -39 14 -60q-22 0 -35.5 1t-34.5 6.5t-33 16t-21.5 31.5t-9.5 51q0 67 40.5 179.5t106.5 227.5q-100 -6 -117 -52 q4 0 8.5 -10.5t4.5 -20.5q0 -18 -16 -28.5t-40 -10.5q-27 0 -44.5 15t-17.5 43zM307 442q70 -14 122 -35l58 272q-84 -45 -180 -237zM361 832q49 98 167 98q38 0 88 -16.5t77 -16.5q42 0 63 23l6 -1q-9 -37 -57.5 -68.5t-103.5 -31.5q-34 0 -88 18.5t-80 18.5q-38 0 -66 -26 z" />
<glyph unicode="&#xc4;" horiz-adv-x="603" d="M-39 335q0 51 58 87t144 36q22 0 54 -3q82 131 174 213t176 82q43 0 77 -14l-157 -736h-144l77 363q-66 30 -134 36q-57 -123 -93.5 -250.5t-36.5 -202.5q0 -39 14 -60q-22 0 -35.5 1t-34.5 6.5t-33 16t-21.5 31.5t-9.5 51q0 67 40.5 179.5t106.5 227.5q-100 -6 -117 -52 q4 0 8.5 -10.5t4.5 -20.5q0 -18 -16 -28.5t-40 -10.5q-27 0 -44.5 15t-17.5 43zM307 442q70 -14 122 -35l58 272q-84 -45 -180 -237zM382 884q0 25 18 43t43 18t43 -18t18 -43t-18 -43t-43 -18t-43 17.5t-18 43.5zM562 884q0 25 18 43t43 18t43 -18t18 -43t-18 -43t-43 -18 t-43 17.5t-18 43.5z" />
<glyph unicode="&#xc5;" horiz-adv-x="603" d="M-39 335q0 51 58 87t144 36q22 0 54 -3q82 131 174 213t176 82q43 0 77 -14l-157 -736h-144l77 363q-66 30 -134 36q-57 -123 -93.5 -250.5t-36.5 -202.5q0 -39 14 -60q-22 0 -35.5 1t-34.5 6.5t-33 16t-21.5 31.5t-9.5 51q0 67 40.5 179.5t106.5 227.5q-100 -6 -117 -52 q4 0 8.5 -10.5t4.5 -20.5q0 -18 -16 -28.5t-40 -10.5q-27 0 -44.5 15t-17.5 43zM307 442q70 -14 122 -35l58 272q-84 -45 -180 -237zM437 872q0 32 22 61.5t63 29.5q35 0 53.5 -21.5t18.5 -55.5q0 -36 -21.5 -60t-65.5 -24q-31 0 -50.5 20.5t-19.5 49.5zM477 874 q0 -37 34 -37q46 0 46 46q0 47 -33 47q-24 0 -35.5 -17t-11.5 -39z" />
<glyph unicode="&#xc6;" horiz-adv-x="842" d="M15 340q0 46 59 80.5t136 34.5q26 0 59 -3q82 132 174 215.5t175 83.5q26 0 84.5 -10t95.5 -10q57 0 117 19q-1 -3 -6 -19t-7.5 -22t-8.5 -19.5t-13 -20t-17 -14.5t-24 -11.5t-31 -3.5q-10 0 -20 1t-20.5 3t-17 3.5t-18 5.5t-16 6t-17 7t-15.5 6l-54 -253h155l-20 -74 h-151l-51 -239h224l-21 -106h-369l77 363q-74 32 -135 36q-56 -122 -92.5 -250t-36.5 -206q0 -17 2 -28.5t4.5 -15l5 -7t2.5 -5.5q-29 2 -41.5 3t-34.5 7.5t-31.5 17.5t-18 32t-8.5 52q0 64 40.5 175.5t106.5 224.5q-99 -7 -117 -52q4 0 8.5 -10.5t4.5 -20.5q0 -17 -15 -28 t-46 -11q-24 0 -40.5 15.5t-16.5 47.5zM359 441q71 -13 124 -34l58 272q-86 -47 -182 -238z" />
<glyph unicode="&#xc7;" horiz-adv-x="507" d="M45 229q0 59 10.5 124t37 137t65 129t101 94t139.5 37q73 0 118 -33t45 -103q0 -90 -70 -90q-35 0 -57 26q18 9 32 36.5t14 54.5t-14.5 44.5t-42.5 17.5q-55 0 -105.5 -74.5t-78.5 -181.5t-28 -208q0 -80 25.5 -122t93.5 -42q56 0 108.5 28.5t87.5 76.5l23 -10 q-35 -77 -103.5 -125t-151.5 -58l-21 -53q32 8 53 8q62 0 62 -50q0 -51 -36.5 -80.5t-83.5 -29.5q-53 0 -107 28q18 32 40 32t42 -13.5t32 -13.5t21 13t9 29q0 15 -9.5 25.5t-29.5 10.5q-26 0 -52 -12l37 103q-206 0 -206 245z" />
<glyph unicode="&#xc8;" horiz-adv-x="449" d="M13 158q0 84 51.5 161.5t133.5 97.5q-61 44 -61 120q0 81 63.5 148t155.5 67q62 0 102.5 -33t40.5 -92q0 -44 -22 -74t-52 -30q-27 0 -47 27q18 6 31 33t13 54q0 29 -16 42.5t-39 13.5q-43 0 -72.5 -43t-29.5 -98q0 -47 25 -84t76 -50q-76 -17 -127.5 -91t-51.5 -148 q0 -45 23.5 -73t71.5 -28q50 0 105 27.5t80 74.5l23 -10q-38 -86 -119.5 -137t-173.5 -51q-91 0 -137.5 50t-46.5 126zM258 1000h105l29 -189h-75z" />
<glyph unicode="&#xc9;" horiz-adv-x="449" d="M13 158q0 84 51.5 161.5t133.5 97.5q-61 44 -61 120q0 81 63.5 148t155.5 67q62 0 102.5 -33t40.5 -92q0 -44 -22 -74t-52 -30q-27 0 -47 27q18 6 31 33t13 54q0 29 -16 42.5t-39 13.5q-43 0 -72.5 -43t-29.5 -98q0 -47 25 -84t76 -50q-76 -17 -127.5 -91t-51.5 -148 q0 -45 23.5 -73t71.5 -28q50 0 105 27.5t80 74.5l23 -10q-38 -86 -119.5 -137t-173.5 -51q-91 0 -137.5 50t-46.5 126zM355 811l91 189h105l-121 -189h-75z" />
<glyph unicode="&#xca;" horiz-adv-x="449" d="M13 158q0 84 51.5 161.5t133.5 97.5q-61 44 -61 120q0 81 63.5 148t155.5 67q62 0 102.5 -33t40.5 -92q0 -44 -22 -74t-52 -30q-27 0 -47 27q18 6 31 33t13 54q0 29 -16 42.5t-39 13.5q-43 0 -72.5 -43t-29.5 -98q0 -47 25 -84t76 -50q-76 -17 -127.5 -91t-51.5 -148 q0 -45 23.5 -73t71.5 -28q50 0 105 27.5t80 74.5l23 -10q-38 -86 -119.5 -137t-173.5 -51q-91 0 -137.5 50t-46.5 126zM208 811l212 189h21l60 -189h-32l-60 80l-157 -80h-44z" />
<glyph unicode="&#xcb;" horiz-adv-x="449" d="M13 158q0 84 51.5 161.5t133.5 97.5q-61 44 -61 120q0 81 63.5 148t155.5 67q62 0 102.5 -33t40.5 -92q0 -44 -22 -74t-52 -30q-27 0 -47 27q18 6 31 33t13 54q0 29 -16 42.5t-39 13.5q-43 0 -72.5 -43t-29.5 -98q0 -47 25 -84t76 -50q-76 -17 -127.5 -91t-51.5 -148 q0 -45 23.5 -73t71.5 -28q50 0 105 27.5t80 74.5l23 -10q-38 -86 -119.5 -137t-173.5 -51q-91 0 -137.5 50t-46.5 126zM244 884q0 25 18 43t43 18t43 -18t18 -43t-18 -43t-43 -18t-43 17.5t-18 43.5zM424 884q0 25 18 43t43 18t43 -18t18 -43t-18 -43t-43 -18t-43 17.5 t-18 43.5z" />
<glyph unicode="&#xcc;" horiz-adv-x="404" d="M56 485q0 68 53 130t134 98.5t163 36.5q15 0 41 -2l-159 -748h-144l145 679q-66 -27 -103 -83t-37 -134q0 -17 2 -30t4 -19t5 -12.5t3 -7.5q-107 0 -107 92zM221 1000h105l29 -189h-75z" />
<glyph unicode="&#xcd;" horiz-adv-x="404" d="M56 485q0 68 53 130t134 98.5t163 36.5q15 0 41 -2l-159 -748h-144l145 679q-66 -27 -103 -83t-37 -134q0 -17 2 -30t4 -19t5 -12.5t3 -7.5q-107 0 -107 92zM319 811l91 189h105l-121 -189h-75z" />
<glyph unicode="&#xce;" horiz-adv-x="404" d="M56 485q0 68 53 130t134 98.5t163 36.5q15 0 41 -2l-159 -748h-144l145 679q-66 -27 -103 -83t-37 -134q0 -17 2 -30t4 -19t5 -12.5t3 -7.5q-107 0 -107 92zM201 811l212 189h21l60 -189h-32l-60 80l-157 -80h-44z" />
<glyph unicode="&#xcf;" horiz-adv-x="404" d="M56 485q0 68 53 130t134 98.5t163 36.5q15 0 41 -2l-159 -748h-144l145 679q-66 -27 -103 -83t-37 -134q0 -17 2 -30t4 -19t5 -12.5t3 -7.5q-107 0 -107 92zM217 884q0 25 18 43t43 18t43 -18t18 -43t-18 -43t-43 -18q-26 0 -43.5 17.5t-17.5 43.5zM397 884q0 25 18 43 t43 18t43 -18t18 -43t-18 -43t-43 -18q-26 0 -43.5 17.5t-17.5 43.5z" />
<glyph unicode="&#xd0;" horiz-adv-x="707" d="M57 490q0 98 112 179t239 81q288 0 288 -270q0 -127 -38 -241t-102.5 -183t-136.5 -69q-60 0 -122 53l-8 -40h-144l74 345h-39l20 74h35l46 217l148 20l-51 -237h79l-20 -74h-75l-53 -250q27 -20 57 -20q56 0 101.5 69t68 167t22.5 197q0 102 -28.5 149t-109.5 47 q-123 0 -196.5 -65t-73.5 -178q0 -23 3 -37.5t7 -21.5t4 -9q-54 0 -80.5 22.5t-26.5 74.5z" />
<glyph unicode="&#xd1;" horiz-adv-x="723" d="M61 490q0 46 21 91.5t58.5 83.5t97 61.5t129.5 23.5q40 0 70 -14l117 -531l119 543h97l-170 -748h-138l-116 496l-114 -496h-95l154 681q-137 -54 -137 -217q0 -14 1 -25.5t3 -19t3.5 -11.5t3.5 -9t3 -6q-54 0 -80.5 22.5t-26.5 74.5zM363 832q49 98 167 98 q38 0 88 -16.5t77 -16.5q42 0 63 23l6 -1q-9 -37 -57.5 -68.5t-103.5 -31.5q-34 0 -88 18.5t-80 18.5q-38 0 -66 -26z" />
<glyph unicode="&#xd2;" horiz-adv-x="697" d="M54 477q0 68 56.5 132t149.5 102.5t192 38.5q242 0 242 -253q0 -61 -13 -127.5t-42 -134t-70.5 -121t-104 -87t-136.5 -33.5q-182 0 -182 201q0 64 17.5 142t49.5 152.5t86.5 124.5t118.5 50q27 0 51 -8q-66 -40 -120.5 -192t-54.5 -273q0 -108 60 -108q48 0 96.5 68.5 t79.5 175.5t31 212q0 89 -29.5 127t-103.5 38q-114 0 -198.5 -71t-84.5 -185q0 -37 10 -55q-101 0 -101 84zM330 1000h105l29 -189h-75z" />
<glyph unicode="&#xd3;" horiz-adv-x="697" d="M54 477q0 68 56.5 132t149.5 102.5t192 38.5q242 0 242 -253q0 -61 -13 -127.5t-42 -134t-70.5 -121t-104 -87t-136.5 -33.5q-182 0 -182 201q0 64 17.5 142t49.5 152.5t86.5 124.5t118.5 50q27 0 51 -8q-66 -40 -120.5 -192t-54.5 -273q0 -108 60 -108q48 0 96.5 68.5 t79.5 175.5t31 212q0 89 -29.5 127t-103.5 38q-114 0 -198.5 -71t-84.5 -185q0 -37 10 -55q-101 0 -101 84zM435 811l91 189h105l-121 -189h-75z" />
<glyph unicode="&#xd4;" horiz-adv-x="697" d="M54 477q0 68 56.5 132t149.5 102.5t192 38.5q242 0 242 -253q0 -61 -13 -127.5t-42 -134t-70.5 -121t-104 -87t-136.5 -33.5q-182 0 -182 201q0 64 17.5 142t49.5 152.5t86.5 124.5t118.5 50q27 0 51 -8q-66 -40 -120.5 -192t-54.5 -273q0 -108 60 -108q48 0 96.5 68.5 t79.5 175.5t31 212q0 89 -29.5 127t-103.5 38q-114 0 -198.5 -71t-84.5 -185q0 -37 10 -55q-101 0 -101 84zM310 811l212 189h21l60 -189h-32l-60 80l-157 -80h-44z" />
<glyph unicode="&#xd5;" horiz-adv-x="697" d="M54 477q0 68 56.5 132t149.5 102.5t192 38.5q242 0 242 -253q0 -61 -13 -127.5t-42 -134t-70.5 -121t-104 -87t-136.5 -33.5q-182 0 -182 201q0 64 17.5 142t49.5 152.5t86.5 124.5t118.5 50q27 0 51 -8q-66 -40 -120.5 -192t-54.5 -273q0 -108 60 -108q48 0 96.5 68.5 t79.5 175.5t31 212q0 89 -29.5 127t-103.5 38q-114 0 -198.5 -71t-84.5 -185q0 -37 10 -55q-101 0 -101 84zM312 832q49 98 167 98q38 0 88 -16.5t77 -16.5q42 0 63 23l6 -1q-9 -37 -57.5 -68.5t-103.5 -31.5q-34 0 -88 18.5t-80 18.5q-38 0 -66 -26z" />
<glyph unicode="&#xd6;" horiz-adv-x="697" d="M54 477q0 68 56.5 132t149.5 102.5t192 38.5q242 0 242 -253q0 -61 -13 -127.5t-42 -134t-70.5 -121t-104 -87t-136.5 -33.5q-182 0 -182 201q0 64 17.5 142t49.5 152.5t86.5 124.5t118.5 50q27 0 51 -8q-66 -40 -120.5 -192t-54.5 -273q0 -108 60 -108q48 0 96.5 68.5 t79.5 175.5t31 212q0 89 -29.5 127t-103.5 38q-114 0 -198.5 -71t-84.5 -185q0 -37 10 -55q-101 0 -101 84zM326 884q0 25 18 43t43 18t43 -18t18 -43t-18 -43t-43 -18t-43 17.5t-18 43.5zM506 884q0 25 18 43t43 18t43 -18t18 -43t-18 -43t-43 -18t-43 17.5t-18 43.5z" />
<glyph unicode="&#xd7;" horiz-adv-x="414" d="M35 165l95 95l-95 95l65 64l94 -95l96 96l64 -65l-95 -95l95 -95l-64 -65l-96 95l-94 -94z" />
<glyph unicode="&#xd8;" horiz-adv-x="660" d="M46 446q0 99 118.5 177.5t270.5 78.5q16 0 24 -1l11 49h52l-12 -56q153 -36 153 -232q0 -66 -17.5 -138t-52 -141t-95 -119.5t-135.5 -64.5l-15 -70h-52l14 65q-175 0 -175 189q0 60 17 133t48 142.5t83 116.5t113 47q24 0 45 -7l9 41q-16 3 -38 3q-115 0 -196.5 -66.5 t-81.5 -174.5q0 -16 2.5 -26.5t5 -16t2.5 -7.5q-98 0 -98 78zM278 179q0 -101 48 -109l114 540q-61 -41 -111.5 -180.5t-50.5 -250.5zM382 88q60 44 106.5 166.5t46.5 240.5q0 106 -38 139z" />
<glyph unicode="&#xd9;" horiz-adv-x="770" d="M55 485q0 69 53.5 130.5t141 98t183.5 36.5q22 0 48 -5q-16 -58 -36.5 -134t-31 -115t-24 -89.5t-20 -78t-13 -58.5t-8.5 -51.5t-2 -39.5q0 -57 12.5 -76t66.5 -19q32 0 51.5 9.5t41.5 45.5t42.5 107t47.5 193l67 309h141l-66 -312q-21 -100 -39.5 -164t-45.5 -122 t-61.5 -89.5t-84 -49.5t-116.5 -18q-105 0 -149 40t-44 122q0 27 3.5 58t14.5 81t16 73.5t24.5 99t23.5 93.5l33 132q-83 -22 -130 -81.5t-47 -148.5q0 -38 14 -69q-107 0 -107 92zM465 1000h105l29 -189h-75z" />
<glyph unicode="&#xda;" horiz-adv-x="770" d="M55 485q0 69 53.5 130.5t141 98t183.5 36.5q22 0 48 -5q-16 -58 -36.5 -134t-31 -115t-24 -89.5t-20 -78t-13 -58.5t-8.5 -51.5t-2 -39.5q0 -57 12.5 -76t66.5 -19q32 0 51.5 9.5t41.5 45.5t42.5 107t47.5 193l67 309h141l-66 -312q-21 -100 -39.5 -164t-45.5 -122 t-61.5 -89.5t-84 -49.5t-116.5 -18q-105 0 -149 40t-44 122q0 27 3.5 58t14.5 81t16 73.5t24.5 99t23.5 93.5l33 132q-83 -22 -130 -81.5t-47 -148.5q0 -38 14 -69q-107 0 -107 92zM506 811l91 189h105l-121 -189h-75z" />
<glyph unicode="&#xdb;" horiz-adv-x="770" d="M55 485q0 69 53.5 130.5t141 98t183.5 36.5q22 0 48 -5q-16 -58 -36.5 -134t-31 -115t-24 -89.5t-20 -78t-13 -58.5t-8.5 -51.5t-2 -39.5q0 -57 12.5 -76t66.5 -19q32 0 51.5 9.5t41.5 45.5t42.5 107t47.5 193l67 309h141l-66 -312q-21 -100 -39.5 -164t-45.5 -122 t-61.5 -89.5t-84 -49.5t-116.5 -18q-105 0 -149 40t-44 122q0 27 3.5 58t14.5 81t16 73.5t24.5 99t23.5 93.5l33 132q-83 -22 -130 -81.5t-47 -148.5q0 -38 14 -69q-107 0 -107 92zM418 811l212 189h21l60 -189h-32l-60 80l-157 -80h-44z" />
<glyph unicode="&#xdc;" horiz-adv-x="770" d="M55 485q0 69 53.5 130.5t141 98t183.5 36.5q22 0 48 -5q-16 -58 -36.5 -134t-31 -115t-24 -89.5t-20 -78t-13 -58.5t-8.5 -51.5t-2 -39.5q0 -57 12.5 -76t66.5 -19q32 0 51.5 9.5t41.5 45.5t42.5 107t47.5 193l67 309h141l-66 -312q-21 -100 -39.5 -164t-45.5 -122 t-61.5 -89.5t-84 -49.5t-116.5 -18q-105 0 -149 40t-44 122q0 27 3.5 58t14.5 81t16 73.5t24.5 99t23.5 93.5l33 132q-83 -22 -130 -81.5t-47 -148.5q0 -38 14 -69q-107 0 -107 92zM428 884q0 25 18 43t43 18t43 -18t18 -43t-18 -43t-43 -18t-43 17.5t-18 43.5zM608 884 q0 25 18 43t43 18t43 -18t18 -43t-18 -43t-43 -18t-43 17.5t-18 43.5z" />
<glyph unicode="&#xdd;" horiz-adv-x="661" d="M55 485q0 68 53 130t134 98.5t163 36.5q15 0 41 -2l87 -358l148 355h66l-194 -437l-66 -308h-160l66 308l-96 375q-71 -26 -110 -83t-39 -138q0 -17 2 -30.5t4 -19t5 -12t3 -7.5q-107 0 -107 92zM502 811l91 189h105l-121 -189h-75z" />
<glyph unicode="&#xde;" horiz-adv-x="603" d="M34 380q0 71 63.5 137t155.5 99l25 114l148 20l-24 -110q108 -5 163.5 -61t55.5 -136q0 -102 -80.5 -185t-208.5 -83h-29l-37 -175h-144l120 562q-115 -61 -115 -211q0 -23 3 -37.5t7 -21.5t4 -9q-54 0 -80.5 22.5t-26.5 74.5zM311 212h14q76 0 130.5 79t54.5 167 q0 58 -29 96t-88 40z" />
<glyph unicode="&#xdf;" horiz-adv-x="450" d="M-68 -250l166 780q36 170 182 170q66 0 101.5 -37t35.5 -90q0 -45 -24.5 -85.5t-67.5 -60.5q97 -33 97 -142q0 -72 -19 -129.5t-49 -90t-61.5 -49t-60.5 -16.5q-11 0 -33 2l13 59q29 0 51.5 25t34.5 64t17.5 78.5t5.5 77.5q0 34 -16.5 55.5t-55.5 31.5l18 58 q83 34 83 111q0 28 -9 39t-29 11q-21 0 -41 -18.5t-29 -63.5l-159 -744z" />
<glyph unicode="&#xe0;" d="M4 155q0 53 16.5 112t46.5 113t81 89.5t113 35.5q74 0 82 -52l10 47h145l-73 -340q-4 -17 -4 -32q0 -20 9.5 -28.5t31.5 -8.5q55 0 81 88h42q-63 -179 -201 -179q-41 0 -66.5 22.5t-31.5 64.5q-61 -93 -149 -93q-57 0 -95 39t-38 122zM152 169q0 -27 5 -44.5t14 -24 t15 -8t16 -1.5q24 0 49.5 23.5t33.5 64.5l48 226q-1 13 -11 25.5t-30 12.5q-40 0 -73.5 -49.5t-50 -112t-16.5 -112.5zM233 750h105l29 -189h-75z" />
<glyph unicode="&#xe1;" d="M4 155q0 53 16.5 112t46.5 113t81 89.5t113 35.5q74 0 82 -52l10 47h145l-73 -340q-4 -17 -4 -32q0 -20 9.5 -28.5t31.5 -8.5q55 0 81 88h42q-63 -179 -201 -179q-41 0 -66.5 22.5t-31.5 64.5q-61 -93 -149 -93q-57 0 -95 39t-38 122zM152 169q0 -27 5 -44.5t14 -24 t15 -8t16 -1.5q24 0 49.5 23.5t33.5 64.5l48 226q-1 13 -11 25.5t-30 12.5q-40 0 -73.5 -49.5t-50 -112t-16.5 -112.5zM262 561l91 189h105l-121 -189h-75z" />
<glyph unicode="&#xe2;" d="M4 155q0 53 16.5 112t46.5 113t81 89.5t113 35.5q74 0 82 -52l10 47h145l-73 -340q-4 -17 -4 -32q0 -20 9.5 -28.5t31.5 -8.5q55 0 81 88h42q-63 -179 -201 -179q-41 0 -66.5 22.5t-31.5 64.5q-61 -93 -149 -93q-57 0 -95 39t-38 122zM152 169q0 -27 5 -44.5t14 -24 t15 -8t16 -1.5q24 0 49.5 23.5t33.5 64.5l48 226q-1 13 -11 25.5t-30 12.5q-40 0 -73.5 -49.5t-50 -112t-16.5 -112.5zM163 561l212 189h21l60 -189h-32l-60 80l-157 -80h-44z" />
<glyph unicode="&#xe3;" d="M4 155q0 53 16.5 112t46.5 113t81 89.5t113 35.5q74 0 82 -52l10 47h145l-73 -340q-4 -17 -4 -32q0 -20 9.5 -28.5t31.5 -8.5q55 0 81 88h42q-63 -179 -201 -179q-41 0 -66.5 22.5t-31.5 64.5q-61 -93 -149 -93q-57 0 -95 39t-38 122zM119 582q49 98 167 98 q38 0 88 -16.5t77 -16.5q42 0 63 23l6 -1q-9 -37 -57.5 -68.5t-103.5 -31.5q-34 0 -88 18.5t-80 18.5q-38 0 -66 -26zM152 169q0 -27 5 -44.5t14 -24t15 -8t16 -1.5q24 0 49.5 23.5t33.5 64.5l48 226q-1 13 -11 25.5t-30 12.5q-40 0 -73.5 -49.5t-50 -112t-16.5 -112.5z" />
<glyph unicode="&#xe4;" d="M4 155q0 53 16.5 112t46.5 113t81 89.5t113 35.5q74 0 82 -52l10 47h145l-73 -340q-4 -17 -4 -32q0 -20 9.5 -28.5t31.5 -8.5q55 0 81 88h42q-63 -179 -201 -179q-41 0 -66.5 22.5t-31.5 64.5q-61 -93 -149 -93q-57 0 -95 39t-38 122zM152 169q0 -27 5 -44.5t14 -24 t15 -8t16 -1.5q24 0 49.5 23.5t33.5 64.5l48 226q-1 13 -11 25.5t-30 12.5q-40 0 -73.5 -49.5t-50 -112t-16.5 -112.5zM197 634q0 25 18 43t43 18t43 -18t18 -43t-18 -43t-43 -18q-26 0 -43.5 17.5t-17.5 43.5zM377 634q0 25 18 43t43 18t43 -18t18 -43t-18 -43t-43 -18 q-26 0 -43.5 17.5t-17.5 43.5z" />
<glyph unicode="&#xe5;" d="M4 155q0 53 16.5 112t46.5 113t81 89.5t113 35.5q74 0 82 -52l10 47h145l-73 -340q-4 -17 -4 -32q0 -20 9.5 -28.5t31.5 -8.5q55 0 81 88h42q-63 -179 -201 -179q-41 0 -66.5 22.5t-31.5 64.5q-61 -93 -149 -93q-57 0 -95 39t-38 122zM152 169q0 -27 5 -44.5t14 -24 t15 -8t16 -1.5q24 0 49.5 23.5t33.5 64.5l48 226q-1 13 -11 25.5t-30 12.5q-40 0 -73.5 -49.5t-50 -112t-16.5 -112.5zM251 622q0 32 22 61.5t63 29.5q35 0 53.5 -21.5t18.5 -55.5q0 -36 -21.5 -60t-65.5 -24q-31 0 -50.5 20.5t-19.5 49.5zM291 624q0 -37 34 -37q46 0 46 46 q0 47 -33 47q-24 0 -35.5 -17t-11.5 -39z" />
<glyph unicode="&#xe6;" horiz-adv-x="649" d="M9 124q0 166 222 166q28 0 52 -4q21 45 21 88q0 32 -15.5 51.5t-45.5 19.5q-69 0 -121 -47l-28 29q35 36 69 54t55.5 21t57.5 3q81 0 130 -40q59 44 135 44q62 0 85.5 -26.5t23.5 -72.5q0 -82 -69 -142.5t-161 -65.5q-2 -22 -2 -32q0 -53 15 -72.5t45 -19.5q46 0 81 14.5 t54.5 32t53.5 54.5h34q-114 -183 -276 -183q-120 0 -147 94q-24 -46 -55.5 -71t-86.5 -25q-53 0 -90 29t-37 101zM150 141q0 -21 10 -33t18.5 -14.5t17.5 -2.5q27 0 46.5 30t33.5 107q-6 1 -17 1q-49 0 -79 -24t-30 -64zM427 250q58 4 102 53t44 109q0 44 -24 44 q-36 0 -70 -63t-52 -143z" />
<glyph unicode="&#xe7;" horiz-adv-x="384" d="M4 153q0 48 14.5 104t43.5 114t84.5 96t126.5 38q111 0 111 -88q0 -36 -15.5 -60t-37.5 -24t-40 12q17 37 17 70q0 37 -28 37q-33 0 -64.5 -50t-49.5 -117t-18 -122q0 -48 18.5 -66.5t57.5 -18.5q54 0 93.5 25.5t83.5 75.5h34q-115 -185 -275 -185q-11 0 -17 1l5 11 l-35 23l-10 -28q18 -4 40 -6l-24 -61q32 8 53 8q62 0 62 -50q0 -51 -36.5 -80.5t-83.5 -29.5q-53 0 -107 28q18 32 40 32t42 -13.5t32 -13.5t21 13t9 29q0 15 -9.5 25.5t-29.5 10.5q-26 0 -52 -12l43 120q-99 26 -99 152z" />
<glyph unicode="&#xe8;" horiz-adv-x="384" d="M4 153q0 37 8 80.5t28.5 92.5t50 88t77.5 65t106 26q110 0 110 -96q0 -83 -68.5 -142.5t-161.5 -64.5q-2 -28 -2 -40q0 -49 17 -66.5t55 -17.5q54 0 93.5 25.5t83.5 75.5h34q-115 -185 -275 -185q-156 0 -156 159zM162 250q58 4 101.5 52t43.5 109q0 41 -25 41 q-35 0 -69 -61t-51 -141zM190 750h105l29 -189h-75z" />
<glyph unicode="&#xe9;" horiz-adv-x="384" d="M4 153q0 37 8 80.5t28.5 92.5t50 88t77.5 65t106 26q110 0 110 -96q0 -83 -68.5 -142.5t-161.5 -64.5q-2 -28 -2 -40q0 -49 17 -66.5t55 -17.5q54 0 93.5 25.5t83.5 75.5h34q-115 -185 -275 -185q-156 0 -156 159zM162 250q58 4 101.5 52t43.5 109q0 41 -25 41 q-35 0 -69 -61t-51 -141zM211 561l91 189h105l-121 -189h-75z" />
<glyph unicode="&#xea;" horiz-adv-x="384" d="M4 153q0 37 8 80.5t28.5 92.5t50 88t77.5 65t106 26q110 0 110 -96q0 -83 -68.5 -142.5t-161.5 -64.5q-2 -28 -2 -40q0 -49 17 -66.5t55 -17.5q54 0 93.5 25.5t83.5 75.5h34q-115 -185 -275 -185q-156 0 -156 159zM122 561l212 189h21l60 -189h-32l-60 80l-157 -80h-44z M162 250q58 4 101.5 52t43.5 109q0 41 -25 41q-35 0 -69 -61t-51 -141z" />
<glyph unicode="&#xeb;" horiz-adv-x="384" d="M4 153q0 37 8 80.5t28.5 92.5t50 88t77.5 65t106 26q110 0 110 -96q0 -83 -68.5 -142.5t-161.5 -64.5q-2 -28 -2 -40q0 -49 17 -66.5t55 -17.5q54 0 93.5 25.5t83.5 75.5h34q-115 -185 -275 -185q-156 0 -156 159zM136 634q0 25 18 43t43 18t43 -18t18 -43t-18 -43 t-43 -18t-43 17.5t-18 43.5zM162 250q58 4 101.5 52t43.5 109q0 41 -25 41q-35 0 -69 -61t-51 -141zM316 634q0 25 18 43t43 18t43 -18t18 -43t-18 -43t-43 -18t-43 17.5t-18 43.5z" />
<glyph unicode="&#xec;" horiz-adv-x="267" d="M9 114q0 27 8 65l68 321h144l-72 -340q-4 -17 -4 -32q0 -20 9.5 -28.5t31.5 -8.5q29 0 54 25t36 63h42q-65 -185 -210 -185q-48 0 -77.5 30t-29.5 90zM83 750h105l29 -189h-75z" />
<glyph unicode="&#xed;" horiz-adv-x="267" d="M9 114q0 27 8 65l68 321h144l-72 -340q-4 -17 -4 -32q0 -20 9.5 -28.5t31.5 -8.5q29 0 54 25t36 63h42q-65 -185 -210 -185q-48 0 -77.5 30t-29.5 90zM138 561l91 189h105l-121 -189h-75z" />
<glyph unicode="&#xee;" horiz-adv-x="267" d="M9 114q0 27 8 65l68 321h144l-72 -340q-4 -17 -4 -32q0 -20 9.5 -28.5t31.5 -8.5q29 0 54 25t36 63h42q-65 -185 -210 -185q-48 0 -77.5 30t-29.5 90zM23 561l212 189h21l60 -189h-32l-60 80l-157 -80h-44z" />
<glyph unicode="&#xef;" horiz-adv-x="267" d="M9 114q0 27 8 65l68 321h144l-72 -340q-4 -17 -4 -32q0 -20 9.5 -28.5t31.5 -8.5q29 0 54 25t36 63h42q-65 -185 -210 -185q-48 0 -77.5 30t-29.5 90zM34 634q0 25 18 43t43 18t43 -18t18 -43t-18 -43t-43 -18t-43 17.5t-18 43.5zM214 634q0 25 18 43t43 18t43 -18 t18 -43t-18 -43t-43 -18t-43 17.5t-18 43.5z" />
<glyph unicode="&#xf0;" horiz-adv-x="538" d="M16 155q0 53 16.5 112t46.5 113t81 89.5t113 35.5q81 0 81 -51v-6l8 37q10 51 12 90l-75 -12l2 39l70 11q-9 46 -40 87h45q63 -36 90 -71l74 13v-41l-53 -9q15 -38 15 -84q0 -38 -11 -93l-54 -255q-4 -17 -4 -32q0 -20 9.5 -28.5t31.5 -8.5q55 0 81 88h42 q-63 -179 -201 -179q-41 0 -66.5 22.5t-31.5 64.5q-61 -93 -149 -93q-57 0 -95 39t-38 122zM164 169q0 -27 5 -44.5t14 -24t15 -8t16 -1.5q24 0 49.5 23.5t33.5 64.5l48 226q0 12 -9.5 25t-31.5 13q-40 0 -73.5 -49.5t-50 -112t-16.5 -112.5z" />
<glyph unicode="&#xf1;" horiz-adv-x="505" d="M-21 0l106 500h144l-11 -52q49 56 117 56q51 0 81 -28t30 -85q0 -44 -24 -138.5t-24 -119.5q0 -42 40 -42q30 0 47 21t37 67h42q-63 -185 -186 -185q-61 0 -89.5 32.5t-28.5 80.5q0 35 22.5 129t22.5 126q0 51 -36 51q-50 0 -78 -92l-68 -321h-144zM105 582q49 98 167 98 q38 0 88 -16.5t77 -16.5q42 0 63 23l6 -1q-9 -37 -57.5 -68.5t-103.5 -31.5q-34 0 -88 18.5t-80 18.5q-38 0 -66 -26z" />
<glyph unicode="&#xf2;" horiz-adv-x="439" d="M3 152q0 37 8.5 81t29 93t50.5 88t78.5 65t107.5 26q126 0 128 -157q4 -1 11 -1q68 0 154 60l9 -27q-59 -63 -176 -83q-12 -137 -79 -220t-161 -83q-74 0 -117 38t-43 120zM152 169q0 -48 11 -64.5t40 -16.5q37 0 71 59t45 147q-27 6 -27 42q0 41 31 53q-1 30 -10 43 t-28 13q-33 0 -65 -49t-50 -113t-18 -114zM202 750h105l29 -189h-75z" />
<glyph unicode="&#xf3;" horiz-adv-x="439" d="M3 152q0 37 8.5 81t29 93t50.5 88t78.5 65t107.5 26q126 0 128 -157q4 -1 11 -1q68 0 154 60l9 -27q-59 -63 -176 -83q-12 -137 -79 -220t-161 -83q-74 0 -117 38t-43 120zM152 169q0 -48 11 -64.5t40 -16.5q37 0 71 59t45 147q-27 6 -27 42q0 41 31 53q-1 30 -10 43 t-28 13q-33 0 -65 -49t-50 -113t-18 -114zM242 561l91 189h105l-121 -189h-75z" />
<glyph unicode="&#xf4;" horiz-adv-x="439" d="M3 152q0 37 8.5 81t29 93t50.5 88t78.5 65t107.5 26q126 0 128 -157q4 -1 11 -1q68 0 154 60l9 -27q-59 -63 -176 -83q-12 -137 -79 -220t-161 -83q-74 0 -117 38t-43 120zM118 561l212 189h21l60 -189h-32l-60 80l-157 -80h-44zM152 169q0 -48 11 -64.5t40 -16.5 q37 0 71 59t45 147q-27 6 -27 42q0 41 31 53q-1 30 -10 43t-28 13q-33 0 -65 -49t-50 -113t-18 -114z" />
<glyph unicode="&#xf5;" horiz-adv-x="439" d="M3 152q0 37 8.5 81t29 93t50.5 88t78.5 65t107.5 26q126 0 128 -157q4 -1 11 -1q68 0 154 60l9 -27q-59 -63 -176 -83q-12 -137 -79 -220t-161 -83q-74 0 -117 38t-43 120zM63 582q49 98 167 98q38 0 88 -16.5t77 -16.5q42 0 63 23l6 -1q-9 -37 -57.5 -68.5t-103.5 -31.5 q-34 0 -88 18.5t-80 18.5q-38 0 -66 -26zM152 169q0 -48 11 -64.5t40 -16.5q37 0 71 59t45 147q-27 6 -27 42q0 41 31 53q-1 30 -10 43t-28 13q-33 0 -65 -49t-50 -113t-18 -114z" />
<glyph unicode="&#xf6;" horiz-adv-x="439" d="M3 152q0 37 8.5 81t29 93t50.5 88t78.5 65t107.5 26q126 0 128 -157q4 -1 11 -1q68 0 154 60l9 -27q-59 -63 -176 -83q-12 -137 -79 -220t-161 -83q-74 0 -117 38t-43 120zM128 634q0 25 18 43t43 18t43 -18t18 -43t-18 -43t-43 -18t-43 17.5t-18 43.5zM152 169 q0 -48 11 -64.5t40 -16.5q37 0 71 59t45 147q-27 6 -27 42q0 41 31 53q-1 30 -10 43t-28 13q-33 0 -65 -49t-50 -113t-18 -114zM308 634q0 25 18 43t43 18t43 -18t18 -43t-18 -43t-43 -18t-43 17.5t-18 43.5z" />
<glyph unicode="&#xf7;" horiz-adv-x="415" d="M6 206l18 79h350l-17 -79h-351zM102 80q0 33 23 56.5t56 23.5t56.5 -23.5t23.5 -56.5t-23.5 -56t-56.5 -23t-56 23t-23 56zM162 415q0 33 23 56.5t56 23.5t56.5 -23.5t23.5 -56.5t-23.5 -56t-56.5 -23t-56 23t-23 56z" />
<glyph unicode="&#xf8;" horiz-adv-x="439" d="M3 152q0 47 14 102t42.5 111.5t82 95.5t122.5 43l21 101h52l-22 -105q87 -21 90 -143q63 4 145 60h32q-22 -32 -72.5 -64t-106.5 -47q-8 -123 -61.5 -204.5t-132.5 -101.5l-22 -103h-52l21 97q-71 2 -112 40t-41 118zM152 169q0 -48 11 -64.5t40 -16.5q38 0 71.5 60 t44.5 149q-30 6 -30 46q0 42 34 54q-3 26 -11.5 37t-26.5 11q-33 0 -65 -49t-50 -113t-18 -114z" />
<glyph unicode="&#xf9;" horiz-adv-x="505" d="M9 114q0 27 8 65l68 321h144l-72 -340q-3 -15 -3 -28q0 -41 30 -41q54 0 80 88l68 321h144l-72 -340q-4 -17 -4 -32q0 -20 9.5 -28.5t31.5 -8.5q55 0 81 88h42q-65 -185 -201 -185q-43 0 -69 24.5t-30 70.5q-58 -95 -148 -95q-48 0 -77.5 30t-29.5 90zM202 750h105 l29 -189h-75z" />
<glyph unicode="&#xfa;" horiz-adv-x="505" d="M9 114q0 27 8 65l68 321h144l-72 -340q-3 -15 -3 -28q0 -41 30 -41q54 0 80 88l68 321h144l-72 -340q-4 -17 -4 -32q0 -20 9.5 -28.5t31.5 -8.5q55 0 81 88h42q-65 -185 -201 -185q-43 0 -69 24.5t-30 70.5q-58 -95 -148 -95q-48 0 -77.5 30t-29.5 90zM256 561l91 189 h105l-121 -189h-75z" />
<glyph unicode="&#xfb;" horiz-adv-x="505" d="M9 114q0 27 8 65l68 321h144l-72 -340q-3 -15 -3 -28q0 -41 30 -41q54 0 80 88l68 321h144l-72 -340q-4 -17 -4 -32q0 -20 9.5 -28.5t31.5 -8.5q55 0 81 88h42q-65 -185 -201 -185q-43 0 -69 24.5t-30 70.5q-58 -95 -148 -95q-48 0 -77.5 30t-29.5 90zM143 561l212 189 h21l60 -189h-32l-60 80l-157 -80h-44z" />
<glyph unicode="&#xfc;" horiz-adv-x="505" d="M9 114q0 27 8 65l68 321h144l-72 -340q-3 -15 -3 -28q0 -41 30 -41q54 0 80 88l68 321h144l-72 -340q-4 -17 -4 -32q0 -20 9.5 -28.5t31.5 -8.5q55 0 81 88h42q-65 -185 -201 -185q-43 0 -69 24.5t-30 70.5q-58 -95 -148 -95q-48 0 -77.5 30t-29.5 90zM153 634 q0 25 18 43t43 18t43 -18t18 -43t-18 -43t-43 -18q-26 0 -43.5 17.5t-17.5 43.5zM333 634q0 25 18 43t43 18t43 -18t18 -43t-18 -43t-43 -18q-26 0 -43.5 17.5t-17.5 43.5z" />
<glyph unicode="&#xfd;" horiz-adv-x="486" d="M9 114q0 27 8 65l68 321h144l-72 -340q-3 -12 -3 -25q0 -44 30 -44q52 0 78 82l70 327h144l-99 -464q48 17 77 48.5t49 94.5h42q-14 -47 -34.5 -82t-46 -55.5t-47.5 -31.5t-49 -18l-15 -72q-36 -170 -180 -170q-48 0 -80 25t-32 72q0 99 163 149l12 54q-50 -56 -120 -56 q-48 0 -77.5 30t-29.5 90zM116 -139q0 -12 9.5 -22.5t24.5 -10.5q17 0 33 23.5t25 65.5l6 29q-98 -37 -98 -85zM255 561l91 189h105l-121 -189h-75z" />
<glyph unicode="&#xfe;" horiz-adv-x="473" d="M-75 -250l156 735q12 54 12 93q0 65 -43 122h45q39 -22 63 -41t43.5 -58.5t19.5 -92.5q0 -25 -4 -49q51 46 121 46q122 0 122 -158q0 -44 -6.5 -89t-24.5 -93.5t-44.5 -85.5t-70.5 -61t-100 -24q-67 0 -86 37l-52 -245zM144 106q8 -25 39 -25q49 0 82.5 49.5t45.5 107 t12 112.5q0 83 -50 83q-18 0 -37.5 -14t-32.5 -38z" />
<glyph unicode="&#xff;" horiz-adv-x="486" d="M9 114q0 27 8 65l68 321h144l-72 -340q-3 -12 -3 -25q0 -44 30 -44q52 0 78 82l70 327h144l-99 -464q48 17 77 48.5t49 94.5h42q-14 -47 -34.5 -82t-46 -55.5t-47.5 -31.5t-49 -18l-15 -72q-36 -170 -180 -170q-48 0 -80 25t-32 72q0 99 163 149l12 54q-50 -56 -120 -56 q-48 0 -77.5 30t-29.5 90zM116 -139q0 -12 9.5 -22.5t24.5 -10.5q17 0 33 23.5t25 65.5l6 29q-98 -37 -98 -85zM140 634q0 25 18 43t43 18t43 -18t18 -43t-18 -43t-43 -18t-43 17.5t-18 43.5zM320 634q0 25 18 43t43 18t43 -18t18 -43t-18 -43t-43 -18t-43 17.5t-18 43.5z " />
<glyph unicode="&#x152;" horiz-adv-x="870" d="M54 477q0 68 56.5 132t149.5 102.5t192 38.5q69 0 114 -19q55 19 130 19q17 0 74.5 -6t91.5 -6q53 0 90 12q-2 -5 -7.5 -26t-10 -30.5t-14 -25t-25.5 -24.5t-38 -14q-45 0 -115.5 16.5t-91.5 19.5q44 -62 44 -169q0 -33 -5 -78h133l-20 -74h-127q-36 -147 -114 -239h243 l-21 -106h-387q-42 -6 -68 -6q-182 0 -182 201q0 64 17.5 142t49.5 152.5t86.5 124.5t118.5 50q27 0 51 -8q-66 -40 -120.5 -192t-54.5 -273q0 -108 60 -108q48 0 96.5 68.5t79.5 175.5t31 212q0 89 -29.5 127t-103.5 38q-114 0 -198.5 -71t-84.5 -185q0 -37 10 -55 q-101 0 -101 84z" />
<glyph unicode="&#x153;" horiz-adv-x="671" d="M8 158q0 174 75.5 263t187.5 89q89 0 112 -85q62 84 160 84q128 0 128 -104q0 -84 -71.5 -138.5t-154.5 -65.5q-3 -24 -3 -43q0 -45 24 -65.5t58 -20.5q39 0 91 39.5t77 92.5h45q-49 -88 -121 -146t-161 -58q-99 0 -135 87q-66 -93 -159 -93q-81 0 -117 38t-36 126z M141 167q0 -42 17.5 -59t49.5 -17q29 0 52 29t36 70.5t19 93.5q-21 0 -31.5 13t-10.5 32q0 22 12 42.5t32 27.5q-5 52 -42 52q-33 0 -60 -32.5t-42.5 -80t-23.5 -93t-8 -78.5zM453 249q66 1 111.5 48t46.5 103q0 56 -35 56q-26 0 -51.5 -33t-43 -78t-28.5 -96z" />
<glyph unicode="&#x178;" horiz-adv-x="661" d="M55 485q0 68 53 130t134 98.5t163 36.5q15 0 41 -2l87 -358l148 355h66l-194 -437l-66 -308h-160l66 308l-96 375q-71 -26 -110 -83t-39 -138q0 -17 2 -30.5t4 -19t5 -12t3 -7.5q-107 0 -107 92zM428 884q0 25 18 43t43 18t43 -18t18 -43t-18 -43t-43 -18t-43 17.5 t-18 43.5zM608 884q0 25 18 43t43 18t43 -18t18 -43t-18 -43t-43 -18t-43 17.5t-18 43.5z" />
<glyph unicode="&#x2c6;" horiz-adv-x="293" d="M0 561l212 189h21l60 -189h-32l-60 80l-157 -80h-44z" />
<glyph unicode="&#x2dc;" horiz-adv-x="403" d="M38 582q49 98 167 98q38 0 88 -16.5t77 -16.5q42 0 63 23l6 -1q-9 -37 -57.5 -68.5t-103.5 -31.5q-34 0 -88 18.5t-80 18.5q-38 0 -66 -26z" />
<glyph unicode="&#x2000;" horiz-adv-x="500" />
<glyph unicode="&#x2001;" horiz-adv-x="1000" />
<glyph unicode="&#x2002;" horiz-adv-x="500" />
<glyph unicode="&#x2003;" horiz-adv-x="1000" />
<glyph unicode="&#x2004;" horiz-adv-x="333" />
<glyph unicode="&#x2005;" horiz-adv-x="250" />
<glyph unicode="&#x2006;" horiz-adv-x="166" />
<glyph unicode="&#x2007;" horiz-adv-x="166" />
<glyph unicode="&#x2008;" horiz-adv-x="125" />
<glyph unicode="&#x2009;" horiz-adv-x="200" />
<glyph unicode="&#x200a;" horiz-adv-x="55" />
<glyph unicode="&#x2010;" horiz-adv-x="321" d="M39 222l18 79h200l-17 -79h-201z" />
<glyph unicode="&#x2011;" horiz-adv-x="321" d="M39 222l18 79h200l-17 -79h-201z" />
<glyph unicode="&#x2012;" horiz-adv-x="321" d="M39 222l18 79h200l-17 -79h-201z" />
<glyph unicode="&#x2013;" horiz-adv-x="381" d="M39 222l18 79h260l-17 -79h-261z" />
<glyph unicode="&#x2014;" horiz-adv-x="471" d="M39 222l18 79h350l-17 -79h-351z" />
<glyph unicode="&#x2018;" horiz-adv-x="209" d="M93 580q0 40 32.5 86t88.5 82q9 -5 9 -14l-49 -70q0 -10 12 -17q44 -26 44 -63q0 -29 -21 -49.5t-52 -20.5q-30 0 -47 18.5t-17 47.5z" />
<glyph unicode="&#x2019;" horiz-adv-x="206" d="M109 678q0 29 21 49.5t52 20.5q30 0 47 -18.5t17 -47.5q0 -40 -32.5 -86t-88.5 -82q-9 5 -9 14l49 70q0 10 -12 17q-44 26 -44 63z" />
<glyph unicode="&#x201a;" horiz-adv-x="220" d="M-10 76q0 29 21 49.5t52 20.5q30 0 47 -18.5t17 -47.5q0 -40 -32.5 -86t-88.5 -82q-9 5 -9 14l49 70q0 10 -12 17q-44 26 -44 63z" />
<glyph unicode="&#x201c;" horiz-adv-x="429" d="M93 580q0 40 32.5 86t88.5 82q9 -5 9 -14l-49 -70q0 -10 12 -17q44 -26 44 -63q0 -29 -21 -49.5t-52 -20.5q-30 0 -47 18.5t-17 47.5zM313 580q0 40 32.5 86t88.5 82q9 -5 9 -14l-49 -70q0 -10 12 -17q44 -26 44 -63q0 -29 -21 -49.5t-52 -20.5q-30 0 -47 18.5t-17 47.5z " />
<glyph unicode="&#x201d;" horiz-adv-x="426" d="M109 678q0 29 21 49.5t52 20.5q30 0 47 -18.5t17 -47.5q0 -40 -32.5 -86t-88.5 -82q-9 5 -9 14l49 70q0 10 -12 17q-44 26 -44 63zM329 678q0 29 21 49.5t52 20.5q30 0 47 -18.5t17 -47.5q0 -40 -32.5 -86t-88.5 -82q-9 5 -9 14l49 70q0 10 -12 17q-44 26 -44 63z" />
<glyph unicode="&#x201e;" horiz-adv-x="440" d="M-10 76q0 29 21 49.5t52 20.5q30 0 47 -18.5t17 -47.5q0 -40 -32.5 -86t-88.5 -82q-9 5 -9 14l49 70q0 10 -12 17q-44 26 -44 63zM210 76q0 29 21 49.5t52 20.5q30 0 47 -18.5t17 -47.5q0 -40 -32.5 -86t-88.5 -82q-9 5 -9 14l49 70q0 10 -12 17q-44 26 -44 63z" />
<glyph unicode="&#x2022;" horiz-adv-x="281" d="M33 267q0 40 28 68.5t68 28.5t68.5 -28.5t28.5 -68.5t-28.5 -68t-68.5 -28t-68 28t-28 68z" />
<glyph unicode="&#x2026;" horiz-adv-x="720" d="M-9 75q0 33 23 56.5t56 23.5t56.5 -23.5t23.5 -56.5t-23.5 -56t-56.5 -23t-56 23t-23 56zM226 75q0 33 23 56.5t56 23.5t56.5 -23.5t23.5 -56.5t-23.5 -56t-56.5 -23t-56 23t-23 56zM471 75q0 33 23 56.5t56 23.5t56.5 -23.5t23.5 -56.5t-23.5 -56t-56.5 -23t-56 23 t-23 56z" />
<glyph unicode="&#x202f;" horiz-adv-x="200" />
<glyph unicode="&#x2039;" horiz-adv-x="308" d="M8 254l216 195l42 -45l-175 -151l137 -140l-40 -44z" />
<glyph unicode="&#x203a;" horiz-adv-x="311" d="M17 114l175 151l-137 140l40 44l180 -185l-216 -195z" />
<glyph unicode="&#x205f;" horiz-adv-x="250" />
<glyph unicode="&#x20ac;" horiz-adv-x="619" d="M19 284l14 50h74q2 21 8 65h-71l14 50h67q31 134 108 217.5t208 83.5q76 0 125 -33t49 -101q0 -92 -70 -92q-35 0 -57 26q17 5 30.5 33t13.5 49q0 13 -3 26.5t-20 29t-46 15.5q-60 0 -107.5 -72.5t-72.5 -181.5h202l-14 -50h-199q-6 -44 -8 -65h196l-14 -50h-185v-13 q0 -103 27 -145t105 -42q58 0 91 8.5t63 31.5l2 -29q-43 -56 -97 -78.5t-129 -22.5q-42 0 -78 11.5t-69 38.5t-52.5 79.5t-19.5 125.5v35h-85z" />
<glyph unicode="&#x2122;" horiz-adv-x="493" d="M107 580q0 33 25 55.5t77 22.5q4 0 31 -2.5t44 -2.5q26 0 37 5q-7 -39 -25 -39q-9 0 -31 4t-28 5l-42 -195h-43l43 199q-60 -2 -60 -61q0 -8 4 -20q-32 0 -32 29zM279 433l68 210l41 6v-169l66 174h47l-38 -221h-43l27 156l-63 -156h-41v131l-40 -131h-24z" />
<glyph unicode="&#x25fc;" horiz-adv-x="555" d="M0 0v555h555v-555h-555z" />
</font>
</defs>
</svg>
