<?xml version="1.0" standalone="no"?>
<!DOCTYPE svg PUBLIC "-//W3C//DTD SVG 1.1//EN" "http://www.w3.org/Graphics/SVG/1.1/DTD/svg11.dtd" >
<svg xmlns="http://www.w3.org/2000/svg">
<metadata></metadata>
<defs>
<font id="miamaregular" horiz-adv-x="217" >
<font-face units-per-em="1000" ascent="800" descent="-200" />
<missing-glyph horiz-adv-x="350" />
<glyph horiz-adv-x="1000" />
<glyph horiz-adv-x="1000" />
<glyph unicode="&#xd;" horiz-adv-x="1000" />
<glyph unicode=" "  horiz-adv-x="350" />
<glyph unicode="&#x09;" horiz-adv-x="350" />
<glyph unicode="&#xa0;" horiz-adv-x="350" />
<glyph unicode="!" d="M80 14q0 16 14 31.5t31 15.5q19 0 19 -20q0 -16 -13.5 -31.5t-30.5 -15.5q-20 0 -20 20zM122 106q0 5 19.5 52t33.5 74q52 104 109 166q9 9 32 9q30 0 30 -12q0 -4 -2 -4l-2 1h-4q-45 0 -146 -169q-38 -65 -51 -117q-2 -7 -11 -7q-8 0 -8 7z" />
<glyph unicode="&#x22;" horiz-adv-x="833" d="M178 258q0 4 10 14q34 41 70 104q8 14 17 34t14.5 33t9.5 16q16 13 32 13q13 0 13 -9q0 -2 -13 -23q-65 -107 -135 -175q-11 -11 -14 -11q-4 0 -4 4zM254 258q0 4 10 14q34 41 70 104q8 14 17 34t14.5 33t9.5 16q16 13 32 13q13 0 13 -9q0 -2 -13 -23q-65 -107 -135 -175 q-11 -11 -14 -11q-4 0 -4 4z" />
<glyph unicode="#" horiz-adv-x="331" d="M52 -29q0 2 15 24.5t33 48.5t22 32q5 7 15 23q-2 0 -19.5 -4.5t-23.5 -4.5q-3 0 -3 3l1 3q2 3 4.5 8t6.5 10t9.5 9t11.5 5q22 4 33 5l63 109q-29 -2 -43 -5q-5 0 -5 3q0 9 5 15.5t17.5 10t19.5 5t25 4.5q4 6 13 21.5t17 27.5t16.5 25t15 20.5t9.5 7.5q5 0 5 -7 q0 -5 -11 -22.5t-26 -40t-20 -30.5l60 3q4 7 23 41.5t30.5 50.5t20.5 16q4 0 4 -4q0 -2 -2 -6q-26 -34 -62 -97q5 0 13.5 1t15.5 1.5t13 0.5q4 0 4 -2q0 -7 -10.5 -22t-16.5 -15q-3 0 -15 1t-23 1q-10 -19 -66 -108q38 2 44 2q10 0 10 -4q0 -1 -2.5 -5t-3.5 -7 q-7 -23 -38 -23q-6 0 -15.5 0.5t-14.5 0.5q-9 -13 -29.5 -47.5t-35 -56.5t-20.5 -22t-6 8q0 7 4 12q23 32 72 107q-44 0 -58 -2q-2 -4 -32.5 -50t-49.5 -83q-2 -5 -10 -5q-10 0 -10 7zM174 135q16 0 59 3q47 75 66 109q-9 0 -29.5 -2t-31.5 -2z" />
<glyph unicode="$" horiz-adv-x="360" d="M48 -161q0 1 1 2t1 2q41 62 76 125q-68 19 -68 83q0 47 34 85q12 15 20 15q5 0 5 -12q0 -16 -4 -17q-34 -21 -34 -55q0 -32 29 -56q11 -9 32 -18q5 9 25 49l90 180q-2 1 -7 4q-14 7 -21 11.5t-19 13t-18.5 16.5t-11.5 20t-5 25q0 51 45 87t99 36q21 0 44 -6q1 2 31 57 q2 3 3 3l2.5 -0.5t4.5 -0.5q3 0 1 -4q-3 -4 -31 -58q20 -8 32.5 -24t12.5 -36q0 -15 -7 -28q-1 -3 -12 -5.5t-20 -2.5q-13 0 -13 6l1.5 5.5t3.5 13.5t2 14q0 19 -13 29q-52 -103 -72 -139q73 -32 73 -105q0 -69 -66.5 -129t-140.5 -60q-2 0 -6.5 0.5t-5.5 0.5 q-39 -72 -59 -107q-3 -6 -15 -14t-17 -8q-2 0 -2 2zM153 -11q12 -3 23 -3q52 0 97 43.5t47 96.5q0 56 -54 90l-89 -179l-7 -14l-9 -18zM197 336q0 -23 22.5 -42.5t56.5 -29.5q34 60 73 141q-24 13 -49 13q-34 0 -68.5 -24.5t-34.5 -57.5z" />
<glyph unicode="%" horiz-adv-x="635" d="M119 -53q0 4 5 7l445 484q7 9 16 9q7 0 7 -5q0 -2 -1 -2l-445 -486q-9 -9 -24 -9q-3 0 -3 2zM184 300q0 30 19 64t43 57q32 32 73 33q23 0 38.5 -16t15.5 -40q0 -48 -48.5 -99.5t-97.5 -51.5q-20 0 -31.5 15t-11.5 38zM220 300q0 -39 23 -39q33 0 65.5 47t33.5 85 q0 49 -32 49q-24 0 -47 -30q-43 -54 -43 -112zM398 38q0 30 19 64t43 57q32 32 73 33q23 0 38.5 -16t15.5 -40q0 -48 -48.5 -99.5t-97.5 -51.5q-20 0 -31.5 15t-11.5 38zM434 38q0 -39 23 -39q33 0 65.5 47t33.5 85q0 49 -32 49q-24 0 -47 -30q-43 -54 -43 -112z" />
<glyph unicode="&#x26;" horiz-adv-x="630" d="M49 79q0 97 87 162q51 37 92 44q-4 13 -4 31q0 59 39.5 92.5t84.5 33.5q32 0 55.5 -15t23.5 -44q0 -24 -34 -24q-4 0 -4 4q0 2 3 9.5t3 14.5q0 18 -14.5 30t-37.5 12q-43 0 -72.5 -34.5t-29.5 -78.5q0 -16 4 -28q19 3 38 3q72 0 72 -35q0 -14 -15 -25.5t-35 -11.5 t-41.5 12.5t-32.5 42.5q-65 -19 -106.5 -72.5t-41.5 -117.5q0 -66 46.5 -102t117.5 -36q89 0 156 96q24 34 31 71q-11 6 -29.5 17.5t-36.5 21.5t-44 21q-12 4 -17 4q-13 0 -24.5 -10t-11.5 -23q0 -17 27 -37l1 -2q0 -3 -16 -3q-21 0 -26 3.5t-11 23.5q-2 6 -2 9 q0 19 20.5 32.5t49.5 13.5q11 0 20 -1t18.5 -3.5t15 -4t15.5 -6.5t13.5 -7.5t16 -9.5t16.5 -10q71 -44 120 -44q33 0 37 28q0 6 7 6q5 0 5 -6q0 -18 -20.5 -29.5t-39.5 -11.5q-40 0 -91 22q-23 -77 -88 -131.5t-146 -54.5q-66 0 -115 44t-49 114zM248 278q6 -22 24 -37.5 t34 -15.5q10 0 18.5 7t8.5 18q0 31 -49 31q-3 0 -36 -3z" />
<glyph unicode="'" horiz-adv-x="220" d="M178 258q0 4 10 14q34 41 70 104q8 14 17 34t14.5 33t9.5 16q16 13 32 13q13 0 13 -9q0 -2 -13 -23q-65 -107 -135 -175q-11 -11 -14 -11q-4 0 -4 4z" />
<glyph unicode="(" horiz-adv-x="355" d="M100 51q0 51 34 123q63 129 158 223q75 75 187 130q2 1 7 3t9 4t5 2q3 0 3 -3t-7 -6q-50 -26 -85 -50t-49.5 -37.5t-39.5 -40.5q-90 -97 -144 -211q-44 -92 -44 -155q0 -73 46 -97l2 -2q0 -1 -4 -1q-8 0 -15 3q-63 26 -63 115z" />
<glyph unicode=")" horiz-adv-x="379" d="M49 -62q0 3 7 5q59 26 93 51.5t81 76.5q70 76 144 215q44 84 44 152q0 72 -46 96l-2 2q0 1 4 1q8 0 15 -3q63 -27 63 -115q0 -51 -34 -123q-63 -129 -158 -223q-79 -79 -187 -130q-18 -8 -21 -8t-3 3z" />
<glyph unicode="*" horiz-adv-x="255" d="M135 330q0 6 7.5 11.5t19.5 5.5t27 -3q1 11 1 27.5t0.5 25.5t2 19t5.5 14.5t11 4.5q4 0 9 -9.5t17 -34t25 -47.5q11 18 24 43t19.5 35.5t10.5 10.5q3 0 5.5 -7.5t2.5 -11.5q0 -2 -1 -3q-37 -48 -53 -74q19 0 52 1.5t44 1.5q8 0 8 -4t-5 -9t-9 -5q-2 0 -9 0.5t-11 0.5 q-9 0 -31 -0.5t-34 -0.5q22 -38 49 -77q1 -2 1 -4q0 -5 -4.5 -9.5t-8.5 -6.5l-4 -2q-21 0 -83 37q-2 -4 -6.5 -12.5t-7.5 -14t-6 -5.5q-18 0 -18 36q0 2 0.5 10t0.5 11q-51 33 -51 45zM160 321q0 -8 27 -28q1 8 1 33q-3 0 -7.5 0.5t-6.5 0.5q-14 0 -14 -6zM192 281 q0 -24 4 -24q5 0 13 13q-2 1 -8.5 5.5t-8.5 5.5zM192 290q3 -3 6.5 -5.5t8 -5t6.5 -4.5q18 24 32 47q-15 0 -33 2t-19 2q-1 -13 -1 -36zM194 343q21 -5 52 -5q-42 70 -45 70q-4 0 -7 -65zM226 266q47 -33 63 -33q3 0 3 4q0 13 -36 82q-18 -28 -30 -53z" />
<glyph unicode="+" horiz-adv-x="421" d="M83 50q0 22 26 54.5t68 53.5q49 25 133 43q4 8 10.5 22t10.5 22t7 17.5t3 16.5q0 30 -43 30q-46 0 -83 -35q-5 -5 -11 -5q-7 0 -7 3t19 15.5t52 26t62 13.5q51 0 51 -37q0 -19 -32 -81q55 10 120 14q3 0 3 -6q0 -5 -3.5 -14t-7.5 -16t-5 -7l-5 2q-5 3 -11 3 q-43 0 -111 -10q-98 -155 -203 -155q-8 0 -17 2t-17.5 9.5t-8.5 18.5zM98 48q0 -19 31 -19q46 0 84 34.5t79 105.5q-85 -16 -132 -43q-29 -16 -45.5 -39t-16.5 -39z" />
<glyph unicode="," horiz-adv-x="208" d="M-29 -122q0 4 1 5q29 34 74.5 91.5t71.5 87.5q8 10 27.5 18.5t31.5 8.5q6 0 6 -2q0 -4 -8 -12q-159 -170 -196 -203q-2 -2 -3 -2q-5 0 -5 8z" />
<glyph unicode="-" horiz-adv-x="296" d="M113 161q0 6 4 12t7 6h28q10 0 36 -1t41 -1q9 0 30.5 0.5t29.5 0.5q9 0 9 -11q0 -12 -9.5 -15t-32.5 -3q-6 0 -34.5 1t-50.5 1h-43q-15 0 -15 10z" />
<glyph unicode="." horiz-adv-x="218" d="M80 14q0 16 14 31.5t31 15.5q19 0 19 -20q0 -16 -13.5 -31.5t-30.5 -15.5q-20 0 -20 20z" />
<glyph unicode="/" horiz-adv-x="366" d="M95 -160q0 2 1 3.5t2.5 4.5l3.5 7l311 685q6 12 18 12q8 0 8 -4q0 -2 -2 -6l-319 -693q-6 -12 -18 -12q-5 0 -5 3z" />
<glyph unicode="0" horiz-adv-x="348" d="M90 90q0 68 68.5 172.5t155.5 141.5q29 11 48 11q39 0 62 -32t23 -86q0 -71 -65 -168.5t-137 -125.5q-30 -12 -57 -12q-40 0 -69 28.5t-29 70.5zM130 94q0 -33 21 -61t54 -28q45 0 93.5 52.5t78.5 121.5t30 118q0 104 -60 104q-42 0 -103 -63q-32 -35 -73 -111t-41 -133z " />
<glyph unicode="1" horiz-adv-x="283" d="M113 211q0 2 4 2q30 3 72.5 27.5t67 44.5t73.5 62q9 7 13 11t16.5 30t24.5 33q32 17 39 17t7 -9q0 -21 -44 -59q-19 -30 -118 -223q-41 -82 -60 -126q-16 -36 -56 -36q-8 0 -8 6q0 5 5 15t15.5 27t14.5 25l153 277q-135 -128 -190 -128q-29 0 -29 4z" />
<glyph unicode="2" horiz-adv-x="403" d="M42 16q0 7 4.5 10t18.5 7t27 11q199 104 267 236q12 24 12 45q0 27 -16.5 44.5t-43.5 17.5t-62.5 -20.5t-51.5 -42.5q-3 -4 -6 -4t-3 2q0 6 9 18q24 33 62.5 55t79.5 22q31 0 55 -21t24 -54q0 -53 -51 -107.5t-151 -130.5q-59 -46 -123 -74q97 20 201 20q135 0 135 -36 q0 -9 -22 -19.5t-30 -10.5q-5 0 -8 3q-36 37 -100 37q-23 0 -55 -4.5t-55 -9t-54.5 -11.5l-40.5 -9q-3 -1 -7 -1q-15 0 -15 27z" />
<glyph unicode="3" horiz-adv-x="351" d="M57 57q0 5 11.5 9t22.5 4q14 0 14 -5q0 -3 -0.5 -8t-0.5 -7q0 -32 24 -52.5t60 -20.5q47 0 95 46.5t48 105.5q0 49 -44 74q-11 6 -24.5 8.5t-20.5 3.5t-7 3q0 26 9 29q2 1 16 5.5t18.5 6t17.5 7t19.5 9t17.5 11t18 14.5t14.5 17.5t13.5 22.5q5 9 5 21q0 16 -10.5 26 t-30.5 10q-17 0 -42.5 -16t-29.5 -27q-1 -3 -4 -3q-4 0 -4 4q0 19 37.5 40t70.5 21q58 0 58 -43q0 -73 -161 -129q45 0 74.5 -30t29.5 -70q0 -73 -66 -127t-144 -54q-42 0 -73.5 26t-31.5 68z" />
<glyph unicode="4" horiz-adv-x="448" d="M106 169q0 12 14 24l178 152q11 10 20 22t12.5 20.5t6.5 16t3 8.5q9 13 33 13q11 0 11 -6q0 -10 -22.5 -37t-32.5 -34q-15 -12 -63.5 -48t-93.5 -79q-15 -15 -15 -26q0 -21 40 -35t103 -19q73 140 83 160q12 24 12 58q0 5 -1 9t-1 5q0 3 2 3q14 0 24 -18t10 -27 q0 -18 -17 -45q-16 -26 -44 -78.5t-37 -67.5q103 0 190 20q3 0 3 -1q0 -5 -14.5 -20t-21.5 -16q-43 -8 -109 -8q-41 0 -63 1q-9 -16 -29.5 -60.5t-37.5 -71.5q-6 -9 -24 -19t-24 -10q-1 0 -1 1t11.5 20t33.5 59t42 82q-181 9 -181 52z" />
<glyph unicode="5" horiz-adv-x="307" d="M49 58q0 56 46.5 149t108.5 161q48 53 92 53q17 0 57 -15t64 -15q29 0 50 14.5t26 46.5q0 3 0.5 7t0.5 7l1 2q4 0 4 -18q0 -36 -34 -60.5t-75 -24.5q-24 0 -65 13t-58 13q-29 0 -52 -23q-69 -69 -112 -153.5t-43 -138.5q0 -41 22.5 -72.5t66.5 -31.5q62 0 101.5 49 t39.5 113q0 16 -5 34q-7 22 -30 42t-41.5 33.5t-18.5 21.5q0 4 14 27t31.5 49.5t20.5 32.5q3 3 10 3q5 0 5 -2q0 -5 -26 -37.5t-26 -50.5q0 -11 18 -23.5t39 -24.5t39 -37.5t18 -57.5q0 -68 -56.5 -125.5t-125.5 -57.5q-42 0 -74.5 26.5t-32.5 70.5z" />
<glyph unicode="6" horiz-adv-x="366" d="M38 20q0 28 62 85q23 91 162 236q32 33 54 53t61 41t75 21q38 0 63 -19.5t25 -40.5q0 -7 -6 -14.5t-11 -7.5q-3 0 -3 3q-8 72 -70 72q-46 0 -89 -32t-90 -85q-80 -91 -115 -184q66 43 128 43q39 0 64.5 -16t25.5 -50q0 -45 -67 -102q-53 -44 -112 -44q-42 0 -70.5 20.5 t-28.5 67.5q0 7 2 23q-14 -12 -32 -33.5t-22 -36.5q-1 -5 -3 -5q-3 0 -3 5zM135 50q0 -62 63 -62q50 0 99.5 41t49.5 99q0 25 -20 38.5t-54 13.5q-53 0 -123 -47q-15 -56 -15 -83z" />
<glyph unicode="7" horiz-adv-x="295" d="M105 -15q0 44 84 136q19 21 54 59q-7 0 -24.5 0.5t-27.5 0.5q-6 0 -10.5 -2t-6.5 -3.5t-7 -7t-8 -8.5q-2 -2 -3 -2t-1 2t6 8l7 7q6 7 10.5 11.5t11.5 9t13 4.5q41 0 61 2q116 123 152 166q-68 -17 -124 -17q-130 0 -130 23q0 7 3.5 18.5t7.5 19.5t6 8t2 -7 q0 -5 17.5 -11.5t47 -11.5t56.5 -5q31 0 82.5 5.5t59.5 14.5q10 10 15 10q3 0 3 -3q0 -2 -5 -9q-53 -66 -175 -199q10 0 22.5 2t24.5 5t22 6.5t17 5.5l6 2q2 0 2 -1q0 -3 -9 -13t-16 -13q-46 -16 -91 -18q-113 -120 -113 -190q0 -7 -11.5 -11t-21.5 -4q-9 0 -9 10z" />
<glyph unicode="8" horiz-adv-x="330" d="M92 57q0 59 96 130q7 5 78 46q-14 25 -14 49q0 25 14 51q16 28 58.5 56.5t72.5 28.5q42 0 42 -36q0 -25 -19 -49t-46 -36q-4 -3 -16 -3q-6 0 -6 4t6 4q2 0 4 -1l3 -1q11 0 26.5 24t15.5 45q0 33 -33 33q-29 0 -61 -31.5t-32 -57.5q0 -23 25 -56q11 4 35 14l13 6.5 t16.5 8.5t9.5 4q1 0 1 -1t-14 -9.5t-33 -18.5t-22 -12q36 -48 36 -92q0 -53 -56 -112t-121 -59q-34 0 -56.5 19.5t-22.5 51.5zM127 69q0 -22 15.5 -40t49.5 -18q56 0 91 40t35 77q0 13 -5 26.5t-11 23t-16 24.5t-15 23q-36 -21 -56 -34t-43.5 -33t-34 -42t-10.5 -47z" />
<glyph unicode="9" horiz-adv-x="317" d="M31 36q0 46 44.5 83t99.5 56q6 2 8 2q5 0 5 -1t-14 -5.5t-33.5 -14t-39 -24t-33.5 -39.5t-14 -57q0 -20 11.5 -34t33.5 -14q105 0 217 250q-40 -21 -80 -21q-35 0 -61 16t-26 50q0 45 56 91t128 46q25 0 45 -13t20 -39q0 -48 -40 -128q-5 -9 -19 -37.5t-21 -41.5 t-21.5 -37.5t-26.5 -40.5t-30.5 -35.5t-38.5 -35.5q-46 -36 -99 -36q-29 0 -50 15.5t-21 44.5zM186 292q0 -29 19.5 -46.5t42.5 -17.5q40 0 74 28q45 71 45 123q0 28 -40 28q-51 0 -96 -34.5t-45 -80.5z" />
<glyph unicode=":" horiz-adv-x="238" d="M56 14q0 16 14 31.5t31 15.5q19 0 19 -20q0 -16 -13.5 -31.5t-30.5 -15.5q-20 0 -20 20zM143 180q0 16 14 31.5t31 15.5q19 0 19 -20q0 -16 -13.5 -31.5t-30.5 -15.5q-20 0 -20 20z" />
<glyph unicode=";" horiz-adv-x="227" d="M-51 -122q0 4 1 5q29 34 74.5 91.5t71.5 87.5q8 10 27.5 18.5t31.5 8.5q6 0 6 -2q0 -4 -8 -12q-159 -170 -196 -203q-2 -2 -3 -2q-5 0 -5 8zM143 180q0 16 14 31.5t31 15.5q19 0 19 -20q0 -16 -13.5 -31.5t-30.5 -15.5q-20 0 -20 20z" />
<glyph unicode="&#x3c;" horiz-adv-x="300" d="M148 153q0 15 10 23q18 12 76.5 59t78.5 62q15 11 17 11t2 -3q0 -7 -3 -8q-19 -14 -44 -33.5t-54.5 -43.5t-45.5 -36q-12 -12 -12 -19q0 -6 50 -87q17 -28 17 -31q0 -1 -9 -4l-8 -5q-8 -5 -13 -5q-1 0 -16 23q-23 42 -43 84q-3 6 -3 13z" />
<glyph unicode="=" horiz-adv-x="380" d="M121 142q0 12 4 12q54 -4 126 -4q5 0 46 1t56 1q18 0 18 -8q0 -11 -10 -13.5t-43 -2.5h-32q-47 0 -159 2q-6 0 -6 12zM126 195q0 6 4 14t7 8q33 2 186 2h18q39 0 39 -12t-9 -12h-14q-5 0 -24 -0.5t-34 -0.5q-6 0 -19 0.5t-21 0.5q-17 0 -68 -2t-62 -2q-3 0 -3 4z" />
<glyph unicode="&#x3e;" horiz-adv-x="300" d="M90 37q0 5 3 7q19 14 44 33.5t54.5 43.5t45.5 36q10 7 10 16q0 4 -3 12t-9.5 19.5t-12.5 21.5t-15 24.5t-13 22.5q-2 3 -5 8t-5 9l-2 3q0 3 12.5 7t16.5 4q7 0 20 -24q19 -33 45 -88q2 -3 2 -8q0 -8 -14 -19q-18 -13 -80.5 -63t-83.5 -65l-8 -4q-2 0 -2 4z" />
<glyph unicode="?" horiz-adv-x="363" d="M100 14q0 16 14 31.5t31 15.5q19 0 19 -20q0 -16 -13.5 -31.5t-30.5 -15.5q-20 0 -20 20zM135 133q0 18 14 37t27.5 29t35.5 24q93 60 121 90q31 32 31 58q0 23 -16 33.5t-34 10.5q-34 0 -60.5 -20t-42.5 -48q-5 -8 -10 -8q-3 0 -3 3t2 5q5 5 18.5 21.5t19 22.5t19 18 t23.5 16.5t25 9t32 4.5q25 0 45.5 -13.5t20.5 -37.5q0 -11 -3.5 -22t-12 -22t-15.5 -20.5t-21.5 -21.5t-23 -19t-27 -19t-25 -17t-26 -17t-22.5 -14q-19 -12 -28 -19t-18 -20t-9 -27q0 -20 16 -34.5t42 -14.5q27 0 54 22q2 2 5 2t3 -4q0 -2 -4 -5q-44 -30 -85 -30 q-25 0 -46.5 11.5t-21.5 35.5z" />
<glyph unicode="@" horiz-adv-x="581" d="M84 95q0 88 57.5 176.5t149 145t183.5 56.5q70 0 124 -34.5t54 -102.5q0 -61 -41 -114q-41 -54 -95.5 -91t-95.5 -37q-39 0 -39 32q0 6 1 9q-54 -34 -92 -34q-44 0 -44 48q0 33 22 75q21 40 69 73.5t84 33.5q49 0 65 -52h3q9 0 9 -7q0 -10 -3.5 -20t-8.5 -18t-13 -18 t-13 -15t-14 -13.5t-11 -10.5q-16 -30 -16 -43q0 -22 24 -22q47 0 112.5 64t65.5 150q0 135 -155 135q-116 0 -213 -87.5t-130 -208.5q-7 -28 -7 -52q0 -65 43.5 -107.5t129.5 -42.5q103 0 190 78q12 11 25 35q6 9 20 9q4 0 4 -2t-1 -4q-9 -17 -36 -40q-54 -48 -118.5 -74.5 t-123.5 -26.5q-71 0 -118 42.5t-47 114.5zM286 150q0 -33 28 -33q26 0 70 28q12 40 42 81q30 42 55 51q-17 42 -58 42q-31 0 -66.5 -32.5t-52.5 -66.5q-18 -38 -18 -70zM442 191q50 50 50 77q0 6 -1 6t-3 -2q2 -10 2 -12l-1 -2q-2 0 -4 10q-15 -22 -22.5 -35t-12.5 -24.5 t-8 -17.5z" />
<glyph unicode="A" horiz-adv-x="644" d="M-9 -81q0 3 1 4q22 13 44 28.5t39.5 27.5t41 32t37 31t40.5 35.5t37.5 34.5t42 39.5t42.5 39.5q52 48 123 131t104 131q27 40 36.5 49.5t30.5 19.5q8 4 11 4t3 -5q0 -4 -2.5 -11.5t-5.5 -16t-4 -10.5q-52 -127 -79 -270q15 3 33.5 8.5t30.5 9.5t13 4q2 0 2 -3 q0 -1 -10.5 -7t-30.5 -14.5t-41 -14.5q-15 -87 -15 -120q0 -69 42 -69q19 0 52 14.5t65 42.5q34 30 54 60q2 3 4 3t2 -2q0 -1 -1 -3q-44 -59 -102 -101t-109 -42q-26 0 -35.5 16.5t-9.5 52.5q0 34 19 140q-65 -13 -136 -13q-20 0 -31 1q-15 -14 -58.5 -54.5t-67 -61.5 t-61 -54t-71 -59t-66.5 -49q-2 -2 -5 -2q-9 0 -9 23zM347 199q26 -1 62 -1q43 0 92 9q23 103 71 232q14 40 14 46q0 3 -1 3q-5 0 -14 -13q-41 -65 -106.5 -144.5t-117.5 -131.5z" />
<glyph unicode="B" horiz-adv-x="565" d="M-7 -281q0 10 4 17q112 235 232 452.5t173 272.5q63 65 122 65q26 0 41 -19.5t15 -48.5q0 -78 -110 -184q43 0 74 -22t31 -66q0 -73 -98.5 -159.5t-185.5 -86.5q-37 0 -59.5 20.5t-22.5 53.5q0 10 3 20.5t6.5 17t5.5 6.5q4 0 9 -6.5t5 -10.5q0 -1 -1.5 -6t-1.5 -10 q0 -32 26 -47t49 -15q75 0 149.5 74.5t74.5 153.5q0 67 -99 67q-20 0 -20 4q0 2 10 12q33 33 53.5 56.5t40 56.5t19.5 60q0 56 -38 56q-44 0 -99 -61q-82 -90 -393 -719q-10 -19 -11 -19q-4 0 -4 15z" />
<glyph unicode="C" horiz-adv-x="567" d="M136 89q0 82 54 180q28 51 78 110.5t110 93.5q83 47 151 47q32 0 68.5 -9.5t36.5 -27.5q0 -7 -11 -16.5t-16 -9.5q-1 0 -2 3.5t-3 9.5t-5 9q-21 26 -76 26q-80 0 -152 -56q-71 -55 -131.5 -156.5t-60.5 -186.5q0 -64 36 -104.5t93 -42.5q123 0 243 178q3 4 5 4q4 0 4 -19 q0 -30 -5 -35q-50 -64 -116.5 -106.5t-138.5 -42.5q-67 0 -114.5 41t-47.5 110z" />
<glyph unicode="D" horiz-adv-x="685" d="M66 -5q0 53 65.5 121.5t116.5 68.5q34 0 61 -57q25 44 81 162t102 229q-3 0 -10.5 0.5t-11.5 0.5q-80 0 -162 -41q-60 -30 -119 -102t-59 -105q0 -3 3 -7.5t3 -6.5q0 -6 -6 -6t-18 12.5t-12 19.5q0 21 61.5 92.5t117.5 100.5q93 48 200 48h16q9 25 9 35q0 41 -50 41 q-28 0 -63 -20q-10 -5 -12 -5t-2 1q0 2 7 6q51 28 87 28q68 0 68 -50q0 -17 -10 -39q179 -30 179 -230q0 -59 -14 -117.5t-41.5 -111t-75 -85.5t-108.5 -33q-63 0 -102 29.5t-84 93.5q-88 -118 -160 -118q-24 0 -40.5 11t-16.5 34zM99 18q0 -42 49 -42q60 0 129 100 q-5 7 -15 22t-15 21t-12.5 14.5t-15 11.5t-15.5 3q-35 0 -70 -47t-35 -83zM315 114q13 -33 22 -52t26.5 -46t39.5 -40.5t50 -13.5q54 0 98.5 34.5t70.5 88t40 110.5t14 108q0 169 -151 210q-18 -35 -61.5 -124.5t-77.5 -153.5t-71 -121z" />
<glyph unicode="E" horiz-adv-x="537" d="M133 71q0 65 47 116t118 83q19 9 48 18t45.5 14.5t16.5 8.5q0 2 -11 11q-37 28 -37 67q0 18 11 37q27 46 76 69t103 23q29 0 65.5 -9.5t36.5 -29.5q0 -9 -12 -23.5t-17 -14.5q-3 0 -3 2q0 1 2.5 6t2.5 8q0 15 -26 32t-68 17q-44 0 -86.5 -24t-42.5 -67q0 -23 10.5 -45.5 t28.5 -33.5q21 -14 21 -16q0 -22 -25 -25q-115 -15 -189 -66q-37 -25 -55.5 -64.5t-18.5 -79.5q0 -44 26 -72.5t55.5 -37t60.5 -8.5q65 0 136 52t71 90q0 3 -1.5 7t-1.5 5q0 4 4 4q6 0 17 -7.5t11 -12.5q0 -1 -1 -2q-8 -9 -26.5 -30.5t-33.5 -36t-35 -28.5q-93 -67 -167 -67 q-60 0 -108 34.5t-48 95.5z" />
<glyph unicode="F" horiz-adv-x="411" d="M79 -42q0 1 3 3t9.5 7t11.5 10q92 92 181 264q-50 0 -109 -6t-63 -6q-2 0 -2 1q0 4 18.5 18t24.5 14q11 1 40 1q14 0 48.5 -0.5t53.5 -0.5q52 107 74 169q-171 0 -259 -4q-3 0 -3 1q0 3 12.5 10t24.5 9q67 10 235 10q10 28 10 57q0 95 -87 95q-40 0 -74 -18q-1 -1 -5 -4 t-15 -8q-10 -5 -12 -5q-10 0 -10 6q0 1 2 3q49 36 120 36q56 0 88.5 -29.5t32.5 -78.5q0 -26 -9 -54q74 2 106 4t92.5 17.5t100.5 45.5q1 1 3 1q4 0 4 -7q0 -18 -11.5 -32t-34.5 -22.5t-46 -14.5t-58 -8.5t-58.5 -3.5t-59 -1.5t-48.5 -1.5l-97 -172q85 0 132 7t87 32h1l1 1 q1 -1 1 -2q0 -7 -10 -21t-23 -20q-38 -18 -142 -18h-59l-105 -175q-8 -13 -24 -41t-28 -48t-20 -31q-6 -9 -12 -9q-4 0 -13.5 7.5t-17.5 10.5q-2 1 -2 2z" />
<glyph unicode="G" horiz-adv-x="676" d="M13 -311q0 84 73.5 147.5t168.5 93.5q24 8 180 34q69 122 138 229q-33 -26 -118 -76.5t-132 -63.5q-29 -8 -58 -8q-49 0 -82 23t-33 72q0 82 89 185q68 79 178.5 140.5t208.5 61.5q62 0 62 -45q0 -14 -4 -19t-18 -5q-4 0 -4 8q0 51 -50 51q-47 0 -125.5 -44t-144.5 -103 q-59 -52 -105 -119.5t-46 -119.5q0 -36 23 -56t55 -20q30 0 74.5 17t73.5 33.5t80 46.5q50 30 77 56q39 34 158 241q10 17 16 17q5 0 15.5 -7.5t10.5 -16.5q0 -18 -24.5 -55t-56.5 -69q-32 -33 -91 -132l-125 -216q142 21 234 101q33 29 49 53q2 3 4 3t2 -2q0 -1 -1 -3 q-49 -65 -116 -104q-66 -39 -179 -60q-15 -23 -51.5 -86.5t-70.5 -113.5q-62 -88 -95 -121q-65 -61 -131 -62q-47 0 -78 32t-31 82zM56 -333q0 -84 67 -84q78 0 145 100q46 68 163 270q-133 -17 -189 -38q-96 -36 -141 -103.5t-45 -144.5z" />
<glyph unicode="H" horiz-adv-x="572" d="M47 -42q0 1 1.5 3t4 5.5t4.5 5.5q113 195 136 240q3 6 20.5 40t26.5 52.5t22 48.5t19 53.5t6 41.5q0 59 -44 59q-42 0 -70 -29q-4 -4 -8 -4q-3 0 -3 3q0 5 12 14q41 28 70 28q32 0 56.5 -19.5t24.5 -52.5q0 -36 -32 -106q-21 -47 -42 -86q36 -31 81 -31q80 0 164 50 q7 13 82 158q46 90 62 90q8 0 8 -15q0 -38 -31 -104q-36 -76 -76 -118q-12 -17 -35 -61q-2 -4 -25.5 -47.5t-34 -64.5t-22.5 -53.5t-12 -52.5q0 -42 35 -42q23 0 50 14.5t42.5 28t49.5 45.5q53 51 67 72q2 3 4 3t2 -2q0 -1 -1 -3q-63 -83 -130 -137q-56 -47 -104 -47 q-23 0 -39.5 13.5t-16.5 35.5q0 17 9 44t18 45.5t26.5 53t21.5 42.5q8 17 21 42t19 37q-112 -46 -180 -46q-37 0 -73 17q-12 -20 -42 -78l-76 -142q0 -1 -3.5 -8.5t-9 -18t-9.5 -14.5q-7 -8 -26 -8q-20 0 -20 5z" />
<glyph unicode="I" horiz-adv-x="393" d="M60 11q0 25 20 25q7 0 7 -13q0 -5 -2 -12t-2 -10q0 -6 5 -12q25 -30 62 -30q80 0 143 130q93 197 150 286l64 104q-22 -7 -77 -14.5t-77 -7.5q-11 -15 -60 -64q-5 -4 -32.5 -29.5t-43.5 -37.5q-11 -8 -12 -8t-1 3q0 6 10 14q24 19 67.5 61t54.5 59q-28 1 -43.5 1.5 t-39.5 4t-35.5 12t-11.5 21.5q0 33 50 56t88 23q49 0 49 -32q0 -21 -32 -73q11 1 36 3t36 3t29 5t34 10q52 15 59 15q4 0 4 -1q0 -4 -12 -16q-30 -36 -60 -86t-48.5 -87t-53 -109.5t-52.5 -109.5q-72 -147 -181 -147q-32 0 -62 16.5t-30 46.5zM237 500q0 -21 17.5 -27.5 t50.5 -6.5q7 0 20 0.5t20 0.5q23 38 23 52q0 19 -14 31t-35 12q-30 0 -56 -16t-26 -46z" />
<glyph unicode="J" horiz-adv-x="401" d="M-142 -402q0 89 60.5 184t181.5 152q59 27 143 52q18 38 55 123t69 149.5t69 121.5l64 104q-33 -18 -87 -31t-93 -13q-18 0 -28 3q-74 -104 -99 -104q-1 0 -1 2l1 1q1 0 3 1t3 2q41 38 81 102q-33 17 -33 48q0 10 5 20q18 34 23 39.5t25 12.5q30 10 35 10q15 0 15 -18 q0 -11 -6.5 -27t-13 -27t-19 -31t-14.5 -23q13 -4 32 -4q42 0 92 17.5t79 36.5q4 3 11 3l34 -6q0 -1 -1 -2q-37 -43 -76 -110.5t-59.5 -111.5t-65 -147t-56.5 -129q50 17 109 50q20 11 41.5 29t33 30.5t14.5 16.5q2 3 4 3t2 -2q0 -1 -1 -3q-44 -59 -118 -97q-46 -24 -92 -43 q-5 -11 -26.5 -62t-28 -66t-25 -57.5t-28.5 -62.5l-26 -52t-30.5 -56t-29.5 -47q-72 -107 -151 -107q-77 0 -77 126zM-102 -405q0 -109 55 -109q60 0 110 84q47 80 104 225t71 176q-178 -54 -259 -146.5t-81 -229.5zM261 488q0 -15 25 -32q38 58 38 96q0 17 -8 17 q-16 0 -35.5 -34t-19.5 -47z" />
<glyph unicode="K" horiz-adv-x="470" d="M82 -41q0 2 1 3q93 137 152 258q-2 4 -5 11.5t-5 12t-4.5 9.5t-5 7.5t-5.5 2.5q-2 0 -5 -0.5t-4 -0.5q-4 0 -4 2t17.5 10.5t38.5 17.5l21 10q2 3 14 29t17 38.5t11 34.5t6 39q0 61 -69 61q-83 0 -152 -88q-11 -14 -15 -14q-1 0 -1 2q0 4 7 14q77 103 193 103q71 0 71 -57 q0 -17 -7 -40t-14.5 -39.5t-20 -41t-15.5 -31.5q265 133 317 177q35 29 48 29q2 0 2 -2q0 -5 -18 -23t-51.5 -43.5t-66.5 -41.5l-238 -114q-7 -13 -15 -30.5t-13 -28.5q7 -10 30 -49.5t39 -64.5t44 -62t51.5 -59t54.5 -39t61 -17q51 0 96 33l3 2q2 0 2 -1q0 -14 -41 -31 t-78 -17q-47 0 -86.5 20.5t-74.5 63.5t-55.5 75.5t-52.5 90.5q-7 13 -10 19q-90 -183 -130 -239q-6 -7 -20 -7q-15 0 -15 6zM243 274q2 -3 4.5 -10t5.5 -12q3 7 14 32q-2 -1 -8 -3t-10 -4z" />
<glyph unicode="L" horiz-adv-x="467" d="M66 -35q0 28 36.5 75t90.5 88q36 28 61 28q33 0 44 -57q66 92 110 165q1 1 8.5 14t11 19t11.5 20.5t12.5 24t11 23.5t10 25t6 23.5t2.5 22.5q0 30 -23.5 46.5t-56.5 16.5q-35 0 -81 -27t-80 -60q-11 -11 -17 -11q-3 0 -3 2q0 5 11 16q41 43 97 72t111 29q41 0 63.5 -21 t22.5 -48q0 -31 -40 -97q-76 -128 -183 -271q28 -80 113 -145t173 -65q58 0 96 36q4 4 7.5 9.5t6 8t4.5 2.5t2 -3q0 -8 -14 -25q-44 -51 -130 -51q-41 0 -85 13t-72 33q-42 30 -69.5 68.5t-43.5 105.5q-40 -51 -92.5 -90.5t-99.5 -39.5q-32 0 -32 25zM96 -10q0 -24 27 -24 q36 0 79 32q32 24 85 88q-7 41 -45 41q-27 0 -61 -25q-31 -23 -58 -56.5t-27 -55.5z" />
<glyph unicode="M" horiz-adv-x="724" d="M58 384q0 4 9 20q25 44 74 77.5t110 33.5q55 0 81 -26t26 -67q0 -23 -8 -47q33 48 77.5 85.5t83.5 37.5q28 0 48.5 -16t20.5 -46q0 -13 -4 -26q30 38 84 75t91 37q33 0 51 -15.5t18 -40.5q0 -42 -42 -91q-82 -96 -121 -194.5t-39 -165.5q0 -58 33 -92.5t76 -34.5 q21 0 40 7.5t32 18t22.5 20.5t14.5 18l6 7q1 0 1 -2q0 -10 -12.5 -27t-25.5 -29q-47 -40 -95 -40q-57 0 -93.5 34.5t-36.5 94.5q0 29 9.5 66t19 64.5t32.5 73.5t32.5 64t38.5 67.5t31 53.5q27 46 27 76q0 16 -10 28.5t-28 12.5q-37 0 -94 -46.5t-74 -83.5q-5 -12 -18 -31 t-19 -19q-8 0 -15 3t-11 6.5t-4 5.5q0 8 14 8q3 0 11 14t15.5 34.5t7.5 36.5q-1 19 -13.5 35.5t-35.5 16.5q-34 0 -79 -43.5t-72 -88.5q-105 -208 -198 -361q-6 -10 -6 -16q0 -4 5 -7.5t5 -6.5q0 -2 -4 -4.5t-6 -2.5t-5 2t-8 6t-9 6q-21 8 -21 21q0 4 3 8q12 18 37.5 54.5 t43.5 65t40 69.5q2 4 27 48.5t36 66t23.5 57.5t12.5 62q0 40 -25.5 65.5t-64.5 25.5q-41 0 -86 -31t-72 -75q-10 -15 -14 -15q-1 0 -1 2z" />
<glyph unicode="N" horiz-adv-x="466" d="M20 -20q0 67 47 184q4 9 22.5 21.5t27.5 12.5q3 0 3 -3q0 -2 -1 -4q-20 -43 -45.5 -112t-25.5 -101q0 -19 11 -19q12 0 31.5 25t34.5 54q21 41 43 90.5t38 82.5l120 246q8 13 22 24t24 11q12 0 12 -18q-4 -61 -18.5 -212t-16.5 -222q35 86 107 241q15 33 22 48t25.5 50.5 t33 54.5t35 42.5t42 34.5t43.5 11q36 0 65.5 -26t29.5 -61q0 -8 -10 -13.5t-20 -5.5q-12 0 -12 6q0 33 -16.5 60t-43.5 27q-22 0 -47 -19q-10 -8 -21.5 -21.5t-23.5 -33t-22 -36.5t-23 -43.5t-19.5 -40.5t-19 -40t-15.5 -32q-22 -46 -52.5 -121t-47 -107t-29.5 -32 q-17 0 -17 40q0 62 17.5 196.5t17.5 211.5q0 23 -6 23q-2 0 -10 -12q-29 -52 -106.5 -221t-95.5 -202q-43 -80 -82 -80q-28 0 -28 41z" />
<glyph unicode="O" horiz-adv-x="444" d="M78 86q0 67 41 157q57 125 144.5 202.5t173.5 77.5q31 0 56.5 -26t25.5 -74q0 -18 -20 -18q-9 0 -17 4t-8 9q0 2 1.5 10.5t1.5 12.5q0 30 -17 47t-46 17q-74 0 -142.5 -65.5t-118.5 -173.5q-36 -78 -36 -155q0 -58 24 -94t69 -36q79 0 159.5 68.5t128.5 182.5 q36 84 36 160q0 49 -16 97q0 6 5 21t12 15q9 0 15 -42.5t6 -68.5q0 -89 -40 -177q-58 -129 -146.5 -212t-173.5 -83q-56 0 -87 38.5t-31 105.5z" />
<glyph unicode="P" horiz-adv-x="422" d="M124 -50q0 1 3.5 7t8.5 14.5t10 13.5q7 8 19 30.5t22 43t22 46t15 30.5l52 100q53 100 70 144q9 23 15.5 29t27.5 6q2 0 2 -1q0 -2 -5.5 -12.5t-14.5 -29t-16 -34.5q31 65 100.5 125t128.5 60q31 0 50 -16.5t19 -46.5q0 -37 -34 -73t-71 -56.5t-80 -37.5 q-46 -18 -151 -49q-13 -24 -36.5 -65t-43 -77t-37.5 -70q-33 -64 -60 -75q-3 -1 -6.5 -3t-5.5 -3t-3 -1zM328 261q73 19 140 44q53 20 98 59t45 75q0 22 -14.5 38.5t-40.5 16.5q-102 0 -228 -233z" />
<glyph unicode="Q" horiz-adv-x="508" d="M77 81q0 71 42 162q58 126 144 203t174 77q60 0 89 -46t29 -116q0 -54 -29 -54q-9 0 -9 6l4 20q4 20 4 31q0 62 -29 101.5t-84 39.5q-72 0 -140.5 -65.5t-118.5 -173.5q-36 -76 -36 -149q0 -139 129 -139q44 0 93 27q-49 102 -49 205q0 4 14.5 17t21.5 13q3 0 3 -4 q0 -1 -1 -15t-1 -26q0 -104 33 -175q56 42 90.5 98.5t59.5 140.5q2 5 11 22t12 17q2 0 2 -9q-8 -82 -55 -161.5t-111 -126.5q29 -54 64 -87.5t69 -33.5q18 0 34 4t28.5 10t22.5 13t17 14.5t12 13.5t8 10l2 4q1 0 1 -2q0 -30 -47 -55.5t-88 -25.5q-78 0 -144 120 q-69 -42 -133 -42q-61 0 -99.5 36.5t-38.5 100.5z" />
<glyph unicode="R" horiz-adv-x="540" d="M152 -29q0 23 49 121l76 144q-17 24 -17 33q0 5 42 14q43 79 62 108q36 57 102 94t119 37q31 0 49.5 -16t18.5 -46q0 -92 -177 -149q-31 -10 -77.5 -21.5t-66.5 -17.5q-10 -20 -25 -47l108 -180q30 -53 57 -77.5t63 -24.5q48 0 78 39q5 6 14 6q7 0 7 -3q0 -1 -1 -2 q-49 -49 -113 -49q-66 0 -98 48q-21 31 -65.5 115.5t-60.5 109.5q-36 -60 -81 -148q-33 -64 -43 -103q-3 -10 -8 -10q-4 0 -6 9q0 3 -3 7.5t-3 8.5zM283 261q1 -2 2 -3q1 -2 2 -5q0 1 7 12q-2 -1 -5.5 -2t-5.5 -2zM342 289q107 28 132 37q137 51 137 112q0 24 -16.5 43 t-47.5 19q-43 0 -80.5 -30.5t-56.5 -60.5t-55 -97q-9 -15 -13 -23z" />
<glyph unicode="S" horiz-adv-x="523" d="M148 36q0 62 57 132q1 1 2 1q5 0 14.5 -13t9.5 -20q0 -4 -2 -4q-59 -21 -59 -74q0 -34 34 -63t87 -29q65 0 128 52t63 126q0 37 -19.5 64.5t-47 45t-55 34.5t-47 42t-19.5 58q0 51 54 95t130 44q44 0 80 -22.5t36 -65.5q0 -44 -39 -44q-10 0 -10 6q0 3 1 5q7 15 7 32 q0 36 -29 52t-69 16q-48 0 -97 -29.5t-49 -74.5q0 -26 21.5 -45t51.5 -33.5t60.5 -31.5t52 -48t21.5 -74q0 -49 -25 -93.5t-62.5 -73.5t-80.5 -46t-80 -17q-45 0 -82.5 25.5t-37.5 70.5z" />
<glyph unicode="T" horiz-adv-x="338" d="M103 -36q0 9 9 21q106 139 164 251q3 6 19.5 38t21 42t17.5 37.5t19.5 43.5t15 40t14.5 46q-193 -18 -241 -30q-2 0 -5.5 -1.5t-6.5 -2.5t-4 -1q-3 0 -3 4q0 5 5.5 11.5t15.5 8.5q117 22 242 33q2 14 2 21q0 35 -23.5 60t-60.5 25q-40 0 -76 -19l-2 -2q-2 -2 -5 -4 t-7 -4.5t-9 -4t-9 -1.5q-10 0 -10 5q0 1 2 3q49 36 117 36q117 0 117 -104v-7q115 13 170 13q18 0 36.5 -2.5t29 -6t10.5 -5.5t-6 -2q-5 0 -9 -0.5t-6 -1t-3 -0.5t-2.5 0.5t-8 1t-18.5 0.5q-75 0 -198 -19q-23 -79 -113 -250q-38 -72 -104 -178q-9 -15 -22 -36t-22 -35.5 t-13 -22.5q-11 -16 -18 -17q-22 0 -22 16z" />
<glyph unicode="U" horiz-adv-x="693" d="M237 -1q0 15 3.5 31.5t11.5 36t13 30.5t16.5 34l13.5 27q5 10 21 43.5t24.5 50.5t23.5 48.5t23 51.5t17.5 43.5t13.5 40t4 27.5q0 21 -10 32.5t-27 11.5q-15 0 -32 -8.5t-27 -16.5l-9 -9q-3 -1 -6 -3.5t-4 -2.5q-2 0 -2 2q0 1 3 6q14 18 43.5 33.5t57.5 15.5 q25 0 39.5 -16t14.5 -40q0 -10 -3 -21q-9 -40 -79.5 -175.5t-80.5 -160.5q-25 -64 -25 -85q0 -27 18.5 -44t47.5 -17q56 0 129 60.5t116 123.5l82 171q9 18 20.5 41.5t16 33t11 20.5t12.5 19q14 19 25 23q6 2 15 2q4 0 4 -5q-1 -21 -52.5 -111t-74.5 -122q-6 -13 -21.5 -43 t-21.5 -42t-15 -35t-15 -46q-10 -35 -10 -63q0 -50 42 -50q45 0 75 40q5 6 14 6q7 0 7 -3q0 -1 -1 -2q-49 -49 -109 -49q-53 0 -53 55q0 42 31 113q-30 -34 -53.5 -56.5t-59 -51t-72.5 -43t-75 -14.5q-30 0 -50.5 16t-20.5 46z" />
<glyph unicode="V" horiz-adv-x="395" d="M105 -48q0 11 9.5 33t23 48.5t18.5 39.5q62 160 62 286q0 80 -25 120q-17 26 -32 26q-8 0 -13 -4l-8 -4q-5 0 -5 1q0 2 2 4q17 17 39 17q27 0 47 -23q30 -35 30 -128q0 -141 -75 -319q31 56 113.5 156.5t138.5 156.5q55 55 119.5 107t87.5 52q4 0 4 -2q0 -8 -13 -12 q-21 -6 -82 -56t-107 -99q-57 -61 -130 -153t-123 -169q-18 -28 -35 -60q-20 -29 -37 -29q-9 0 -9 11z" />
<glyph unicode="W" horiz-adv-x="615" d="M49 -22q0 5 11 24q69 132 116 211q6 10 31.5 53.5t34.5 60.5t25 47.5t22 48.5t6 30q0 18 -13 18q-14 0 -34.5 -14.5t-31.5 -29.5q-6 -7 -9 -7q-5 0 -5 5q0 2 2 4q42 59 91 59q39 0 39 -33q0 -25 -41 -105.5t-81 -145.5l-121 -197q53 53 126 107.5t117 54.5q24 0 30 -22 q8 -30 13.5 -70.5t8.5 -61t15 -36t35 -15.5q83 0 123 93q42 101 42 208q0 36 -7.5 75.5t-24 79t-48 65t-72.5 25.5q-36 0 -61 -17q-7 -4 -13 -4q-8 0 -8 5q0 6 10 12q30 15 74 15q84 0 131 -65t47 -155q0 -49 -9.5 -103t-30 -111.5t-61 -95.5t-95.5 -39q-26 0 -44.5 8 t-28.5 18.5t-17 33t-9.5 38.5t-6.5 47q0 9 -1 13q-3 29 -19 29q-11 0 -28.5 -8t-34 -18.5t-39 -27t-36 -27.5t-32 -26.5t-21.5 -17.5q-7 -6 -20.5 -18t-20.5 -17q-12 -8 -19 -8t-7 7z" />
<glyph unicode="X" horiz-adv-x="422" d="M20 -49q0 9 14 19q19 14 31 21.5t16.5 11t17 14.5t43.5 40q84 78 136 131q5 90 5 153q0 81 -14 121.5t-55 40.5q-26 0 -57.5 -25t-37.5 -59q0 -2 -2 -2q-3 0 -3 8q0 29 36 61t73 32q55 0 80 -43.5t25 -107.5q0 -58 -6 -134q19 20 36.5 42t37.5 52t29.5 44.5t34.5 55 t30 48.5q3 5 8 13t7.5 12.5t3.5 4.5q13 4 24 4q9 0 9 -3q0 -2 -6 -10q-28 -38 -69.5 -96t-76 -104t-70.5 -88q-2 -22 -2 -34q0 -67 18 -137q10 -41 33 -61t71 -20q23 0 46 15t24 15q2 0 2 -2q0 -10 -29.5 -25.5t-60.5 -15.5q-70 0 -107.5 44t-37.5 153q0 16 1 24 q-21 -22 -69 -66q-110 -104 -152 -137q-23 -17 -29 -18q-8 0 -8 8z" />
<glyph unicode="Y" horiz-adv-x="559" d="M-45 -415q0 24 10 49t23 44t38.5 42t42.5 36.5t50 34t46 28t44 25.5l169 99l32 63q4 9 26.5 50t24.5 46q-30 -34 -53.5 -56.5t-59 -51t-72.5 -43t-75 -14.5q-30 0 -50.5 16t-20.5 46q0 15 3.5 31.5t11.5 36t13 30.5t16.5 34l13.5 27q5 10 21 43.5t24.5 50.5t23.5 48.5 t23 51.5t17.5 43.5t13.5 40t4 27.5q0 21 -10 32.5t-27 11.5q-15 0 -32 -8.5t-26 -16.5l-10 -9q-3 -1 -6 -3.5t-4 -2.5q-2 0 -2 2q0 1 3 6q14 18 43.5 33.5t57.5 15.5q25 0 39.5 -16t14.5 -40q0 -10 -3 -21q-9 -40 -79.5 -175.5t-80.5 -160.5q-25 -64 -25 -85q0 -27 18.5 -44 t47.5 -17q56 0 129 60.5t116 123.5l82 171q9 18 20.5 41.5t16 33t11 20.5t12.5 19q14 19 25 23q6 2 15 2q4 0 4 -5q-1 -21 -52.5 -111t-74.5 -122q-5 -11 -39 -80.5t-53 -102.5l-42 -80q59 34 83 46q72 37 107 67q33 29 49 53q2 3 4 3t2 -2q0 -1 -1 -3q-51 -68 -140 -117 l-111 -63q-62 -123 -132 -241q-25 -42 -55.5 -79t-79 -71t-94.5 -34q-41 0 -61 18.5t-20 49.5zM2 -419q0 -49 46 -49q102 0 191 165q36 65 73 129t58 102l-148 -89q-35 -22 -68 -47t-70 -59.5t-59.5 -74.5t-22.5 -77z" />
<glyph unicode="Z" horiz-adv-x="449" d="M-237 -365q0 64 31.5 119.5t84 95t105.5 66.5t112 47q63 21 206 31q53 106 53 141q0 41 -33.5 57.5t-74.5 16.5h-7q-68 -60 -100 -60q-10 0 -10 6q0 15 36.5 37t59.5 25q26 18 92 82.5t119.5 119.5t53.5 56q0 3 -6 3q-4 0 -42 -7t-65 -7q-43 0 -102.5 19.5t-60.5 19.5 q-35 0 -123 -148q-4 -6 -7 -6q-4 0 -4 6q0 3 1 4q4 5 25.5 38t37 55t37.5 43t37 21q19 0 67 -14t78 -14q47 0 113 19t76 19q4 0 4 -3q0 -24 -52.5 -75.5t-136.5 -123t-116 -103.5h20q62 0 92 -15.5t30 -52.5q0 -50 -59 -154q88 19 149 72q33 29 49 53q2 3 4 3t2 -2 q0 -1 -1 -3q-39 -52 -87 -84t-121 -48q-74 -130 -181 -289q-28 -42 -48 -68t-54 -61.5t-71.5 -53.5t-78.5 -18q-60 0 -97 36.5t-37 98.5zM-198 -361q0 -49 31.5 -87t84.5 -38q30 0 58.5 15t57.5 48.5t44.5 54.5t44.5 65q9 14 29 44.5t28.5 43t24.5 37t25 40t21.5 37.5 t23.5 43t23 44q-8 -1 -30 -2.5t-30 -2t-26 -2.5t-27.5 -3.5t-24.5 -4t-27.5 -6t-25.5 -7.5q-122 -39 -213.5 -125.5t-91.5 -193.5z" />
<glyph unicode="[" horiz-adv-x="339" d="M10 -62l4 7q5 7 11 16t8 13q29 48 84.5 153.5t74.5 140.5l108 197q3 6 8.5 18t8.5 17.5t6 5.5q1 0 5.5 -0.5t13 -1t20 -1.5t28 -1.5t33.5 -0.5q5 0 17 0.5t22 0.5q6 0 6 -1q0 -8 -14 -8q-24 0 -42 -1t-42 -1q-13 0 -27 -26l-106 -189q-19 -34 -73.5 -138t-83.5 -152 q-9 -14 -9 -21q0 -13 27 -13q8 0 22.5 -0.5t21.5 -0.5q6 0 19 0.5t19 0.5q19 0 19 -5q0 -6 -8 -6q-18 0 -50.5 0.5t-46.5 0.5q-29 0 -41 -1q-32 -4 -37 -4q-6 0 -6 1z" />
<glyph unicode="\" horiz-adv-x="369" d="M174 547q0 5 9 5q11 0 16 -12l217 -691q2 -6 2 -8q0 -4 -5 -4q-12 0 -16 12l-219 684q-4 12 -4 14z" />
<glyph unicode="]" horiz-adv-x="353" d="M74 -57q0 7 14 7q24 0 42 1t42 1q13 0 27 26l106 189q19 34 73.5 138t83.5 152q9 14 9 21q0 13 -27 13q-10 0 -26 0.5t-26 0.5q-6 0 -20 -0.5t-19 -0.5q-9 0 -9 7q0 4 7 4q19 0 52 -0.5t46 -0.5q28 0 40 1q32 4 38 4q5 0 5 -2l-4 -6q-5 -7 -10.5 -16t-8.5 -13 q-29 -48 -84.5 -153.5t-74.5 -140.5l-108 -197q-3 -6 -8.5 -18t-8.5 -17.5t-6 -5.5l-23 1q-24 1 -56 2t-53 1q-13 0 -13 2z" />
<glyph unicode="^" horiz-adv-x="387" d="M169 266q0 2 6 11q20 34 41 83q29 63 38 88q1 2 7.5 6.5t9.5 4.5q2 0 5 -5q7 -10 46.5 -73t60.5 -93q5 -6 5 -11q0 -3 -5 -7.5t-6 -6.5q-3 -5 -5 -5q-6 0 -17 18q-88 150 -92 150q-2 0 -9 -10q-38 -71 -62 -147q-2 -5 -16 -5q-7 0 -7 2z" />
<glyph unicode="_" horiz-adv-x="453" d="M1 -21q0 5 10 11.5t18 6.5q112 2 191 2q11 0 68 -1t120 -1q6 0 6 -7q0 -22 -52 -22q-4 0 -21.5 2t-67 3.5t-131.5 1.5q-19 0 -61.5 -0.5t-69.5 -0.5q-10 0 -10 5z" />
<glyph unicode="`" horiz-adv-x="230" d="M72 373q0 19 10 19q4 0 7 -5l43 -104q0 -1 1.5 -3.5t2.5 -5.5l1 -2q0 -1 -1 -1q-5 0 -7 4q-10 17 -21.5 36.5t-19 31.5t-15.5 24q-1 1 -1 6z" />
<glyph unicode="a" horiz-adv-x="322" d="M46 51q0 58 58 119t117 61q47 0 65 -52q12 0 12 -7q0 -12 -3.5 -23t-12 -22.5t-14.5 -17.5t-18 -17.5t-15 -14.5q-16 -30 -16 -43q0 -21 32 -21q35 0 84.5 40t70.5 71q2 3 4 3t2 -2q0 -1 -1 -3q-49 -65 -116 -104q-42 -24 -74 -24q-40 0 -40 32q0 6 1 9q-54 -35 -93 -35 q-43 0 -43 51zM87 52q0 -35 27 -35t70 28q11 39 42 81q31 44 55 52q-16 41 -58 41q-48 0 -92 -57.5t-44 -109.5zM242 91l9 9q41 43 41 68q0 6 -1 6t-3 -2q2 -6 2 -11q0 -1 -1 -1l-4 8q-5 -7 -43 -77z" />
<glyph unicode="b" horiz-adv-x="294" d="M60 198q0 2 18 14q32 21 95 67q104 175 108 183q65 115 112 170t112 78q9 4 19 4q23 0 23 -31q0 -110 -200 -280q-27 -23 -126 -96l-65 -117q18 19 54.5 39t75.5 20q45 0 45 -41q0 -98 -110 -185q-42 -33 -85 -33q-29 0 -47 21.5t-19 54.5q0 30 14 57q13 27 82 144 q-89 -63 -100 -70q-2 -1 -4 -1t-2 2zM113 84q0 -31 14.5 -50t37.5 -19q49 0 95.5 57.5t46.5 106.5q0 51 -38 51q-24 0 -63.5 -17t-57.5 -37q-2 -4 -9.5 -17.5t-10.5 -19.5t-7.5 -16.5t-6 -19.5t-1.5 -19zM229 321q59 45 109 89q58 51 114.5 131.5t56.5 138.5q0 16 -10 16 q-45 0 -206 -264q-11 -18 -64 -111z" />
<glyph unicode="c" d="M30 40q0 49 39.5 100.5t88.5 80.5q23 13 42 13q32 0 32 -29q0 -16 -11 -26.5t-28 -10.5q-9 0 -9 5q0 1 8.5 15t8.5 24q0 9 -11 9q-28 0 -54.5 -31t-44.5 -68q-16 -32 -16 -67q0 -50 50 -50q51 0 127 66q33 29 49 53q2 3 4 3t2 -2q0 -1 -1 -3q-55 -72 -134 -112 q-36 -18 -74 -18q-68 0 -68 48z" />
<glyph unicode="d" horiz-adv-x="341" d="M36 51q0 55 55.5 118t111.5 63q37 0 62 -33l98 197l13.5 27t15 29.5t14.5 28t16.5 29.5t17 27t19.5 28.5t20 25t23 25t24 20.5t27 19q17 10 28 10q16 0 16 -25q0 -94 -110 -252q-35 -51 -119 -152.5t-126 -143.5q-10 -26 -10 -47q0 -32 35 -32q36 0 86.5 40t71.5 71 q2 3 4 3t2 -2q0 -1 -1 -3q-49 -65 -116 -104q-38 -22 -68 -22q-22 0 -34.5 11.5t-12.5 31.5q0 5 2 15q-31 -24 -50 -33q-44 -21 -70 -21q-21 0 -33 14t-12 37zM79 45q0 -28 25 -28q15 0 44 13t55 34q7 27 24 58l35 71q-20 27 -52 27q-31 0 -63 -34.5t-48 -68.5 q-20 -40 -20 -72zM248 107q53 58 125 149t105 147q31 51 65 127.5t34 106.5q0 14 -9 14q-32 0 -83 -80t-90 -160l-116 -240l1 -4q1 -4 1 -6t-1 -2v1l-2 4t-1 3q-2 -5 -13.5 -27t-15.5 -33z" />
<glyph unicode="e" d="M13 50q0 4 23 21q30 95 122 150q21 12 36 12q12 0 19 -6t7 -14q0 -4 -1.5 -8t-6 -8.5l-7 -7t-9.5 -8t-8 -6.5q-7 -7 -107 -78q-6 -19 -6 -41q0 -51 46 -51q44 0 99.5 40.5t80.5 78.5q2 3 4 3t2 -2q0 -1 -1 -3q-55 -72 -134 -112q-38 -18 -76 -18q-66 0 -66 47q0 7 4 25 q-3 -2 -8 -6t-8 -7l-4 -3q-1 0 -1 2zM85 108q68 49 89 70q28 28 28 42q0 6 -6 6t-14 -4q-30 -13 -57 -46t-40 -68z" />
<glyph unicode="f" horiz-adv-x="202" d="M-442 -446q0 43 35.5 99t81 103t119 107t116.5 91.5t107 76.5q5 3 32 23l35 70q134 275 250 452q2 2 12.5 19t14.5 23t15.5 22.5t18 24.5t18.5 22.5t21 21.5t21.5 17.5t23.5 15.5t23.5 8.5t25.5 3.5q23 0 33.5 -18t10.5 -41q0 -21 -16 -54t-37 -45q-2 -1 -3 -1t-1 2l3 3 q3 4 9 13.5t11 22.5q7 18 7 40q0 44 -41 44q-72 0 -162 -168l-234 -457q142 99 172 117q2 1 4 1t2 -2t-18 -14q-45 -28 -168 -118q-283 -526 -325 -576q-36 -43 -85 -72t-69 -29q-34 0 -48.5 48.5t-14.5 103.5zM-410 -448q0 -36 13 -80.5t41 -44.5q22 0 63 31.5t60 61.5 q41 64 135 251t136 262q-121 -89 -160 -124q-3 -3 -65.5 -56.5t-102.5 -93t-80 -100t-40 -107.5z" />
<glyph unicode="g" horiz-adv-x="274" d="M-373 -373q0 202 398 351q7 3 14 3q8 0 8 -3l-3 -2q-42 -14 -89 -35.5t-99.5 -54t-93.5 -69t-68 -83.5t-27 -94q0 -51 32 -88.5t84 -37.5q59 0 116 56.5t95 126.5q113 204 235 394q-44 -47 -90 -70q-44 -21 -72 -21q-42 0 -42 52q0 30 22 72q22 41 65.5 74.5t77.5 33.5 q51 0 81 -66l3 6q4 7 7 9.5t7 3t7 2.5q1 1 3 1q1 0 1 -2q0 -4 -3 -7q-1 -1 -18 -30q3 -6 3 -10q0 -3 -2 -3l-4 8l-9 -18q-84 -155 -246 -425q-48 -81 -117 -141t-144 -60q-54 0 -93 36t-39 91zM68 41q0 -24 24 -24q14 0 37 10q45 19 104 78q12 12 35 56q-33 60 -72 60 q-29 0 -60 -35t-48 -69q-20 -40 -20 -76z" />
<glyph unicode="h" horiz-adv-x="321" d="M24 3q0 3 1 5q36 75 59 116q33 62 79 141q-87 -62 -97 -68q-2 -1 -4 -1t-2 2t18 14q35 22 94 66q103 173 109 185q63 114 111 168.5t113 78.5q9 4 19 4q23 0 23 -31q0 -110 -200 -280q-27 -23 -126 -96l-73 -128l-4 -8q0 -1 1 -1q2 0 9 7q79 77 131 77q16 0 26 -11.5 t10 -29.5q0 -25 -41 -88t-41 -95q0 -17 15 -17q17 0 47 18t55 40q33 29 49 53q2 3 4 3t2 -2q0 -1 -1 -3q-49 -65 -116 -104q-38 -22 -62 -22q-34 0 -34 37q0 29 40 91l12 18l17 25.5t13 23.5t6 20q0 9 -6 16t-16 7q-27 0 -72.5 -40t-62.5 -66q-56 -82 -64 -125q-1 -4 -8 -4 q-12 0 -19 -2q-2 -1 -5 -1q-9 0 -9 7zM229 321q59 45 109 89q79 70 137 173q34 59 34 97q0 16 -10 16q-45 0 -206 -264q-11 -18 -64 -111z" />
<glyph unicode="i" horiz-adv-x="187" d="M44 33q0 29 40 91q38 57 38 74q0 7 -6 11.5t-13 4.5q-11 0 -37 -17q-2 -1 -4 -1t-2 2t18 14q17 12 42 12q32 0 32 -28q0 -16 -34 -74.5t-34 -82.5q0 -26 35 -26q36 0 103 58q33 29 49 53q2 3 4 3t2 -2q0 -1 -1 -3q-49 -65 -116 -104q-38 -22 -70 -22q-21 0 -33.5 10 t-12.5 27zM175 334q0 11 10 23t21 12q6 0 10.5 -5.5t4.5 -12.5q0 -12 -9 -23.5t-21 -11.5q-16 0 -16 18z" />
<glyph unicode="j" horiz-adv-x="174" d="M-513 -372q0 53 21 102t54.5 86t78.5 69t89.5 53t90.5 36q39 13 79 16.5t118 3.5q6 11 12.5 23.5t13 25.5l12.5 25t13.5 27.5t14.5 28.5q32 64 32 79q0 7 -15 7q-20 0 -35 -13l-2 -1q-1 0 -1 1q0 7 15 15q8 5 34 8t37 3q12 0 12 -10q0 -8 -12 -34q-19 -41 -43 -87 l-52 -94q90 17 155 73q33 29 49 53q2 3 4 3t2 -2q0 -1 -1 -3q-55 -73 -136 -109q-29 -13 -77 -23l-170 -289q-120 -201 -261 -201q-55 0 -93.5 36.5t-38.5 91.5zM-473 -359q0 -52 32.5 -89.5t85.5 -37.5q25 0 51 12.5t48.5 31.5t44 44t37 48.5t28.5 46.5l159 288h-30 q-103 0 -159 -19q-53 -18 -105 -49.5t-95 -73t-70 -95t-27 -107.5zM166 334q0 11 10 23t21 12q4 0 7.5 -2.5t5.5 -6.5t2 -9q0 -12 -9 -23.5t-21 -11.5q-16 0 -16 18z" />
<glyph unicode="k" horiz-adv-x="312" d="M20 6q0 2 5 10q4 10 13 25.5t22.5 40t23.5 42.5q-14 21 -18 26q-5 5 -5 7q0 1 3 1q4 0 13.5 -1.5t15.5 -1.5q1 0 4 0.5t5 0.5l64 111q-87 -62 -97 -68q-2 -1 -4 -1t-2 2t18 14q30 19 92 65q104 175 108 183q65 115 112 170t112 78q9 4 19 4q23 0 23 -31q0 -110 -200 -280 q-27 -23 -126 -96l-65 -117q-6 -9 -16 -28q27 6 56.5 18t64 29.5t44.5 21.5q20 9 25 16t9 9q5 2 12 6.5t12 7.5t7 3l1 -1q0 -12 -20 -28.5t-36 -23.5q-5 -2 -47.5 -20t-74.5 -29.5t-58 -17.5l-21 -39q26 -28 47 -60q31 -48 69 -48q40 1 117 65q33 29 49 53q2 3 4 3t2 -2 q0 -1 -1 -3q-44 -58 -116 -104q-44 -28 -72 -28q-46 0 -79 57q-24 39 -30 48q-38 -69 -44 -85q-4 -8 -15 -8q-2 0 -8.5 -2t-9.5 -2q-7 0 -7 8zM80 147q0 -1 11 -10q1 1 3 5t3 5q-3 0 -9 1h-7q-1 0 -1 -1zM229 321q59 45 109 89q79 70 137 173q34 59 34 97q0 16 -10 16 q-2 0 -8 -2q-50 -22 -198 -262q-11 -18 -64 -111z" />
<glyph unicode="l" horiz-adv-x="195" d="M33 37q0 7 2 15t4 13.5t6.5 15t7 14t9 15.5t8.5 14l85 135q-76 -54 -89 -62q-2 -1 -4 -1t-2 2t18 14q41 27 84 58q12 20 58 93.5t61 98.5q70 118 115.5 171.5t108.5 76.5q9 4 19 4q23 0 23 -31q0 -110 -200 -280q-33 -28 -136 -104l-78 -126q-62 -107 -62 -139 q0 -13 8 -22t21 -9q43 0 98.5 42t80.5 79q2 3 4 3t2 -2q0 -1 -1 -3q-49 -65 -116 -104q-51 -29 -89 -29q-46 0 -46 48zM218 312q64 49 120 98q58 52 114.5 132t56.5 138q0 16 -10 16q-45 0 -206 -264z" />
<glyph unicode="m" horiz-adv-x="321" d="M20 5q0 6 3 9q5 6 15.5 25t24 45t21.5 40q40 70 40 82q0 5 -4 9.5t-10 4.5q-11 0 -44 -23q-2 -1 -4 -1t-2 2t18 14q30 20 44 20q30 0 30 -25q0 -17 -19 -47q-2 -3 -2 -5q2 0 4 2q55 55 86 55q15 0 15 -26q0 -22 -11 -40q-2 -2 0 -2q1 0 3 2q50 45 93 63q17 6 29 6 q26 0 26 -23q0 -20 -21 -48q-49 -64 -75 -140q-14 -40 -14 -75q0 -39 19.5 -69.5t58.5 -30.5q23 0 54.5 16.5t56.5 37.5q33 29 49 53q2 3 4 3t2 -2q0 -1 -1 -3q-47 -62 -116 -99q-32 -17 -63 -17q-42 0 -69.5 29.5t-27.5 75.5q0 13 1.5 26.5t4 25t7 25.5t7.5 23t9.5 23 t10 21t11 21t10 18t10.5 17.5t9 14.5q17 29 17 40t-12 11q-2 0 -12 -2q-17 -4 -43.5 -24.5t-42.5 -39.5q-21 -26 -43 -26q-3 0 -3 3q0 1 0.5 3t0.5 4t1.5 2.5t3.5 1t4 2.5l4 10q17 40 17 49q0 13 -8 13q-22 0 -71 -53q-9 -10 -26 -41t-30.5 -59t-14.5 -29q-5 -7 -21 -7 q-14 0 -14 9z" />
<glyph unicode="n" horiz-adv-x="290" d="M18 9q0 5 14 26q30 48 52 89q40 76 40 87q0 10 -11 10q-12 0 -47 -24q-2 -1 -4 -1t-2 2t18 14q30 20 51 20q24 0 24 -21q0 -19 -20 -55q53 37 82 53q34 17 50 17q17 0 17 -19q0 -28 -48 -113q-34 -60 -34 -81q0 -10 11 -10q38 0 109 64q44 43 54 57q2 3 4 3t2 -2 q0 -1 -1 -3q-50 -67 -123 -113q-42 -26 -65 -26q-25 0 -25 23q0 9 4.5 23t9 23.5t12 25t8.5 17.5q4 8 15.5 28.5t19.5 38t11 33.5q0 12 -7 12q-12 0 -38 -14q-12 -6 -41.5 -26.5t-32.5 -24.5q-1 -1 -7.5 -13t-12.5 -23l-6 -12l-35 -65q-14 -24 -20 -38q-2 -5 -6 -5 q-7 0 -14.5 8.5t-7.5 14.5z" />
<glyph unicode="o" horiz-adv-x="262" d="M31 42q0 65 50 121.5t114 57.5q1 13 7.5 25t18.5 12q13 0 20.5 -21.5t7.5 -44.5q0 -12 -3 -23q2 -1 10 -1q14 0 29 7.5t33 21t22 15.5q2 1 4 1t2 -2t-18 -14q-1 -1 -9.5 -6.5t-11 -7t-10.5 -6.5t-12.5 -6.5t-11.5 -4t-14 -4t-15 -1.5q-15 -57 -61.5 -113.5t-96.5 -56.5 q-24 0 -39.5 13t-15.5 38zM68 39q0 -14 7 -25t22 -11q43 0 91 65q34 46 47 94q-40 8 -40 47q-39 0 -68 -32t-44 -72q-15 -43 -15 -66zM222 201q0 -18 16 -28q3 14 3 25q0 7 -3.5 23.5t-7.5 16.5q-8 0 -8 -22q9 -2 9 -10q0 -2 -2.5 -4t-3.5 -2h-1z" />
<glyph unicode="p" horiz-adv-x="262" d="M-335 -532q0 5 17 32t29 41q3 3 14 11t26.5 25t33.5 47q173 287 282 479q16 28 16 60q-1 18 -20 30q-4 1 -4 4l2 2q6 3 13.5 10t11.5 8h2q8 0 13 -14.5t5 -29.5q0 -25 -17 -57q45 50 92 85t74 35q17 0 26 -13t9 -31q0 -15 -7 -29q-10 -19 -39.5 -45.5t-50.5 -41.5 q-82 -57 -161 -65q20 -16 62 -16q49 0 101 18q59 21 102 58q33 29 49 53q2 3 4 3t2 -2q0 -1 -1 -3q-53 -70 -116 -104q-74 -41 -142 -41q-48 0 -73 18q-102 -189 -247 -427q-18 -29 -55.5 -66.5t-49.5 -38.5q-3 0 -3 5zM35 20q39 2 87.5 28t88.5 69q5 5 10 12.5t11.5 17.5 t10.5 21t4 20q0 5 -1.5 11t-5.5 11t-10 5q-18 0 -67 -40q-28 -23 -85 -80q-8 -16 -43 -75z" />
<glyph unicode="q" horiz-adv-x="346" d="M-135 -465q0 20 33.5 61.5t64.5 72.5q57 57 79 92q14 21 66 97.5t97.5 145t62.5 101.5q-14 -21 -44.5 -47.5t-47.5 -36.5q-39 -22 -66 -22q-21 0 -35 14t-14 36q0 31 23 75q22 42 65.5 75t78.5 33q44 0 44 -44q0 -37 -15 -37q-5 0 -5 5q0 3 6 17.5t6 23.5q0 11 -9.5 17.5 t-21.5 6.5q-29 0 -60.5 -35t-48.5 -69q-21 -41 -21 -71q0 -12 7 -20.5t20 -8.5t36 10q25 11 55 40.5t49 68.5q2 4 4.5 12t4.5 13.5t3 5.5q8 4 22 4q25 0 25 -11q0 -4 -2 -6q-37 -47 -60 -83l-165 -251q82 76 148 135.5t92.5 83t37.5 34.5q48 48 50 51t4 3t2 -2q0 -1 -1 -3 q-13 -17 -34 -39t-36 -35.5t-54 -48t-56 -50.5q-152 -138 -185 -180q-26 -32 -69.5 -95.5t-56.5 -79.5q-60 -80 -64 -80q-5 0 -10 8t-5 13z" />
<glyph unicode="r" horiz-adv-x="203" d="M21 1q0 3 19 41q14 28 44 82q29 54 35 60q14 17 48 29t67 12q15 0 29.5 -5t14.5 -14q0 -3 -9 -9l-22 -15q-5 -3 -6 -3t-1 1q0 2 6 10q4 4 4 12q0 15 -21 15t-45 -12q-14 -7 -43 -50q-32 -47 -82 -141q-2 -3 -4 -8q-8 -15 -16 -15q-18 0 -18 10z" />
<glyph unicode="s" horiz-adv-x="230" d="M9 15q0 4 6.5 14.5t14 19t10.5 8.5q1 0 1 -2q0 -1 -0.5 -5t-0.5 -8q0 -9 2.5 -17.5t7.5 -15.5t13.5 -11t18.5 -4q42 0 98 65q49 56 49 109q0 47 -26 47q-33 0 -83 -55q-15 -16 -31 -38q-2 -3 -4 -3t-2 2q0 1 1 3q51 66 88 89q26 15 44 15q23 0 37 -18t14 -43 q0 -59 -71 -122q-68 -59 -119 -59q-20 0 -43.5 8t-24.5 21z" />
<glyph unicode="t" horiz-adv-x="187" d="M55 43q0 30 29 81q39 71 51 90q-9 -2 -20.5 -4.5t-20 -4.5t-9.5 -2q-14 -3 -19 -3q-3 0 -3 1t2.5 3t7 4.5t5.5 3.5q10 7 66 15l87 145q20 31 41 31q7 0 7 -4t-18 -31q-55 -84 -83 -136q15 2 35 5.5t35 6.5t16 3h4q3 0 3 -1q0 -3 -7.5 -7.5t-10.5 -4.5q-15 0 -80 -13 q-26 -42 -53 -100q-27 -60 -27 -80q0 -26 31 -26q29 0 79 40.5t68 68.5q2 3 4 3t2 -2q0 -1 -1 -3q-49 -65 -116 -104q-40 -22 -63 -22q-19 0 -30.5 13.5t-11.5 33.5z" />
<glyph unicode="u" horiz-adv-x="288" d="M50 34q0 28 34 90q2 3 13 20t18 30.5t7 22.5q0 8 -6.5 12.5t-11.5 4.5q-13 0 -38 -17q-2 -1 -4 -1t-2 2t18 14t42 12q35 0 35 -25q0 -10 -5 -23t-9.5 -21.5t-14.5 -24t-13 -20.5q-31 -53 -31 -81q0 -19 22 -19q39 0 91 56q11 28 38 80q25 46 46 63q7 5 17 5q9 0 9 -6 q0 -18 -52 -79q-40 -74 -40 -118q0 -12 8 -12q13 0 85 58q28 22 40 36q14 15 26 31q2 3 4 3t2 -2q0 -1 -1 -3q-7 -9 -22 -27q-42 -46 -106 -92q-27 -20 -43 -20q-23 0 -23 28q0 14 7 40q-22 -19 -32 -27t-31.5 -18.5t-39.5 -10.5q-16 0 -26.5 11t-10.5 28zM263 150 q30 35 30 52q-3 0 -16 -24t-14 -28z" />
<glyph unicode="v" horiz-adv-x="197" d="M46 5q0 19 38 119q27 66 27 79q0 11 -10 11q-12 0 -35 -17q-2 -1 -4 -1t-2 2t18 14q21 14 44 14q24 0 24 -28q0 -20 -27 -80q-29 -66 -32 -73q95 123 134 157q62 55 99 74q18 9 21 9q2 0 2 -3q0 -1 -20 -13q-32 -18 -87 -67q-37 -33 -86 -96l-57 -77q-33 -41 -40 -41 t-7 17z" />
<glyph unicode="w" horiz-adv-x="317" d="M28 10q0 22 52 114q4 8 18.5 29.5t25 39t10.5 24.5q0 8 -8 8q-20 0 -60 -28q-2 -1 -4 -1t-2 2t18 14q35 24 58 24q29 0 29 -30q0 -9 -6 -20.5t-19.5 -31t-20.5 -30.5q-32 -51 -49 -81q-4 -8 -4 -9q100 100 134 100q26 0 26 -81v-10q0 -42 23 -42q16 0 33.5 18t22.5 43 q3 20 3 38q0 34 -10 71q-5 15 -17.5 29.5t-14.5 25.5q0 15 25 15q11 0 13 -2l2 -8q1 -8 4.5 -18.5t10.5 -18.5q8 -11 21 -11q14 0 53 29q2 1 4 1t2 -2t-18 -14q-42 -26 -49 -26q-5 0 -11 3q8 -23 8 -58q0 -22 -3 -38q-8 -38 -35 -64t-58 -26q-26 0 -33.5 14.5t-7.5 42.5 q0 66 -13 66q-9 0 -45.5 -29.5t-56.5 -47.5l-10 -10l-10 -10t-8.5 -8t-8 -6t-6.5 -2q-8 0 -8 12z" />
<glyph unicode="x" horiz-adv-x="214" d="M-173 -201q0 1 2 3q16 12 40.5 28.5t46 32.5t47.5 38q76 65 123 121l21 27q-38 71 -55 139q-2 8 -2 11q0 10 13 20.5t22 10.5q7 0 7 -22q0 -39 14 -81q0 -1 6.5 -22.5t10.5 -32.5q12 18 73 115q14 23 15 23q12 3 17 3q3 0 3 -2t-2 -4q-7 -9 -29 -43.5t-29 -44.5 q-32 -45 -42 -59q18 -42 40 -42t81 53q33 29 49 53q2 3 4 3t2 -2q0 -1 -1 -3q-24 -32 -44 -52q-45 -45 -85 -67q-12 -6 -21 -6q-17 0 -30 22l-11 20q-7 -9 -23 -27q-51 -60 -110 -115q-100 -93 -118 -107q-2 -1 -6.5 -5t-8 -6.5t-6.5 -2.5q-4 0 -9 9.5t-5 13.5z" />
<glyph unicode="y" horiz-adv-x="313" d="M-260 -495q0 24 13 52t30.5 50.5t43.5 48.5t44.5 41t41 33.5t25.5 20.5l180 148q41 74 68 119q-28 -20 -68 -20q-25 0 -40.5 14t-15.5 39q0 31 22 73q5 9 17 26t20 30t8 18q0 8 -8.5 12t-15.5 4q-13 0 -39 -17q-2 -1 -4 -1t-2 2t18 14q17 12 43 12q13 0 25.5 -9t12.5 -22 q0 -7 -7.5 -20.5t-17.5 -30t-14 -23.5q-22 -44 -22 -72q0 -37 30 -37q19 0 38.5 8.5t31.5 23.5t34 51.5t32 58.5q4 9 8.5 21t6.5 16.5t6.5 8t12.5 4.5q20 2 22 2q3 0 3 -1q0 -2 -1 -3l-42 -65q-19 -31 -62 -97.5t-74 -117.5q28 22 84 62t78 56q46 34 66 55q10 11 25 31 q2 3 4 3t2 -2q0 -1 -1 -3q-18 -24 -26 -32q-28 -28 -75 -63q-145 -108 -169 -128l-164 -278q-105 -181 -163 -181q-28 0 -46.5 17.5t-18.5 47.5zM-228 -495q0 -13 5 -24t15 -17.5t23 -6.5q17 0 49 36t56 73.5t45 73.5l142 238l-136 -116q-3 -3 -25.5 -21t-41 -34 t-44.5 -42.5t-44 -50t-31 -53.5t-13 -56z" />
<glyph unicode="z" horiz-adv-x="298" d="M-197 -320q0 26 19 59q79 141 231 208q12 5 152 51q11 24 11 43q0 29 -37 29h-16q-34 -30 -50 -30q-5 0 -5 3t4 7q20 20 44 24q110 100 121 120q2 4 2 5q0 2 -4 2q-3 0 -18 -3t-26 -3q-10 0 -30.5 3.5t-32.5 3.5q-16 0 -27 -10q-11 -9 -31 -38.5t-21 -31.5q-3 -3 -4 -3 q-2 0 -2 2q0 1 1 3q36 59 50 72q16 15 41 15q6 0 22 -2t26 -2q18 0 52.5 10.5t44.5 10.5q2 0 2 -2t-9 -16q-13 -20 -73.5 -72t-70.5 -62q24 0 37 -1.5t24 -10.5t11 -26q0 -14 -6 -30q28 10 50 25q31 22 48 39q43 43 49 52q2 3 4 3t2 -2q0 -1 -1 -3q-48 -63 -100 -97 q-31 -19 -55 -27q-13 -43 -66 -136q-42 -75 -82 -116t-92 -76q-64 -43 -127 -43q-26 0 -44 13t-18 40zM-190 -327q0 -18 16 -29t35 -11q35 0 79 20q79 37 155 149q74 108 106 185q-119 -37 -129 -41q-75 -31 -126.5 -74.5t-94.5 -107.5q-41 -62 -41 -91z" />
<glyph unicode="{" horiz-adv-x="266" d="M51 -44q0 15 3 28t12.5 30.5t17 29.5t25.5 39t30 46q36 58 36 79q0 10 -6 17t-17 7q-9 0 -21.5 -3t-14.5 -3q-11 0 -11 6q0 3 6 10t10 7q1 0 4 -0.5t7 -0.5q33 0 58 23q35 33 80.5 109.5t53.5 87.5q27 38 85 38q11 0 28.5 -4.5t17.5 -8.5q0 -3 -6 -3l-7 2q-8 2 -18.5 4 t-17.5 2q-35 0 -56 -30q-16 -23 -34 -63.5t-40 -73.5t-60 -60q-24 -16 -46 -26q-4 -1 -4 -4q0 -2 6 -4q29 -11 29 -49q0 -30 -22 -62q-7 -10 -38.5 -48t-51 -70.5t-19.5 -58.5q0 -19 11 -31t29 -12q11 0 22 4q2 1 5.5 2t5.5 2t3 1t1 -1t-4 -8q-5 -8 -31 -8q-29 0 -45 16.5 t-16 41.5z" />
<glyph unicode="|" horiz-adv-x="228" d="M149 -242q0 35 4 198.5t4 248.5q0 68 -1.5 219.5t-1.5 244.5v72q0 12 6.5 19.5t15.5 7.5q5 0 5 -11q0 -54 -1 -193.5t-1 -240.5q0 -63 1 -191.5t1 -192.5q0 -28 -0.5 -85.5t-0.5 -85.5q0 -6 -12 -15.5t-15 -9.5q-4 0 -4 15z" />
<glyph unicode="}" horiz-adv-x="266" d="M-41 -102q0 3 6 3q1 0 5 -1.5t10 -2.5t11 -1q31 0 47 27q9 15 41 79.5t63.5 111t70.5 73.5q24 16 46 26q3 1 3 4q0 2 -5 4q-26 9 -26 44q0 30 25 68q9 14 24 34.5t23.5 32t15 26t6.5 26.5q0 14 -9 24t-25 10q-6 0 -15.5 -3t-16.5 -5l-7 -3q-1 0 -1 1q0 19 48 19 q52 0 52 -53q0 -17 -7.5 -32.5t-27 -42t-26.5 -38.5q-36 -55 -36 -79q0 -11 6.5 -17.5t16.5 -6.5q7 0 20.5 3t15.5 3q11 0 11 -6q0 -4 -6.5 -10.5t-9.5 -6.5l-4 1h-7q-33 0 -58 -23q-35 -33 -104 -147t-71 -117q-9 -12 -28.5 -24.5t-41.5 -12.5q-10 0 -22.5 4t-12.5 8z" />
<glyph unicode="~" horiz-adv-x="400" d="M156 107q0 1 4 9q39 57 86 57q26 0 51 -31t43 -31q16 0 33 15.5t17 32.5l-1 3q-1 2 -1 6q0 6 6 6q5 0 5 -13q0 -24 -21 -45t-47 -21q-25 0 -43.5 16.5t-31 33t-23.5 16.5q-33 0 -66 -52q-3 -5 -8 -5q-3 0 -3 3z" />
<glyph unicode="&#xa1;" horiz-adv-x="223" d="M-23 -157q0 4 2 4l2 -1h4q45 0 146 169q38 65 51 117q2 7 11 7q8 0 8 -7q0 -5 -19.5 -52t-33.5 -74q-52 -104 -109 -166q-9 -9 -32 -9q-30 0 -30 12zM179 197q0 16 13.5 31.5t30.5 15.5q20 0 20 -20q0 -16 -14 -31.5t-31 -15.5q-19 0 -19 20z" />
<glyph unicode="&#xa2;" d="M32 -164q0 6 3 12q41 81 101 186q-70 6 -70 61q0 84 80 170t170 86l36 62q37 62 65 62q2 0 2 -1q0 -2 -7.5 -11t-19.5 -22.5t-20 -25.5q-5 -7 -13.5 -20.5t-15.5 -24.5t-13 -21q23 -3 37 -14.5t14 -28.5q0 -18 -16.5 -30.5t-35.5 -12.5q-13 0 -13 6l5 9q5 10 5 19 q0 15 -12 27q-65 -106 -155 -271q12 -3 25 -3q57 0 111 45q24 19 43 52q8 13 9 13q3 0 3 -2q0 -3 -5 -13q-28 -53 -95 -88q-46 -23 -102 -23l-103 -189q-5 -12 -12 -12q-1 0 -1 3zM117 107q0 -40 32 -51q123 215 156 274q-11 6 -23 6q-56 0 -110.5 -83.5t-54.5 -145.5z" />
<glyph unicode="&#xa3;" horiz-adv-x="370" d="M0 -4q0 23 26.5 59t58.5 58q13 10 27 10q27 0 45 -38q50 69 76 132h-99q-4 0 -4 2t4 5t7 3h43q36 0 53 1q11 28 22 82.5t15 68.5q7 25 31 40.5t54 15.5q41 0 63.5 -21.5t22.5 -51.5q0 -5 -16 -8.5t-24 -3.5q-3 0 -3 2q0 1 1.5 4.5t1.5 6.5q0 24 -16 43.5t-41 19.5 q-16 0 -31.5 -12.5t-21.5 -34.5q-6 -21 -18.5 -72t-21.5 -79q12 0 38 0.5t39 0.5q7 0 20 -0.5t19 -0.5q4 0 4 -2q0 -6 -11.5 -10t-21.5 -4q-24 0 -92 4q-22 -60 -87 -143q21 -41 45 -52.5t54 -11.5q53 0 109.5 38t82.5 77q2 3 4 3t2 -2q0 -1 -1 -3q-49 -65 -116 -104 q-61 -35 -111 -35q-34 0 -54 12.5t-41 49.5q-70 -70 -116 -70q-21 0 -21 21zM13 5q0 -15 25 -15q36 0 94 65q-19 36 -35 36q-12 0 -26 -11q-18 -14 -38 -37t-20 -38z" />
<glyph unicode="&#xa4;" horiz-adv-x="390" d="M138 233q0 56 36 102q-2 2 -15 17t-18 19q-2 2 -2 3q0 4 10.5 11t16.5 7q3 0 5.5 -2t6 -7.5t6.5 -8.5l5 -6q5 -6 9 -9q44 36 104 36q65 0 108 -43l28 27q5 5 11 5q1 0 3 -0.5t3 -0.5l1 -1q0 -3 -13 -12q-12 -10 -26 -24q41 -44 41 -113q0 -58 -33 -99q4 -4 14 -15.5 t15 -16.5q1 -1 1 -4q0 -5 -8.5 -10.5t-14.5 -5.5q-5 0 -10 5t-11 12.5t-10 10.5q-42 -34 -101 -36h-8q-60 0 -102 39q-5 -5 -14.5 -13.5t-13.5 -12.5q-7 -7 -10 -7q-4 0 -4 5q0 4 9 11q4 3 12 10.5t15 12.5q-46 46 -46 114zM161 246q0 -59 46.5 -109t108.5 -50 q47 0 79.5 39.5t32.5 89.5q0 62 -36 115.5t-97 53.5q-56 0 -95 -40.5t-39 -98.5z" />
<glyph unicode="&#xa5;" horiz-adv-x="285" d="M137 412q0 10 8 17q17 15 21 15q1 0 8 -21q16 -53 52 -115t60 -83q90 147 155 200q5 5 22 5q11 0 11 -2q0 -3 -6 -3q-13 0 -76.5 -77.5t-101.5 -145.5l41 1h61q8 -1 8 -6q0 -7 -10 -7q-2 0 -7 0.5t-9 0.5q-6 0 -28 -0.5t-39 -0.5h-24l-17 -33q12 0 35 1t35 1q36 0 36 -7 t-6 -7q-5 0 -45 -1t-62 -1q-8 -18 -48 -127q-9 -28 -26 -28q-1 0 -5 0.5t-7 0.5q-5 0 -15 -2t-12 -2q-4 0 -4 2t8 6t17 10t12 11q11 21 33 66.5t30 62.5h-16q-15 0 -38.5 -1t-33.5 -1q-6 0 -6 9q0 8 3 8q5 0 16.5 -1t20.5 -1q8 0 29 0.5t32 0.5q5 11 17 33q-15 0 -50.5 -2 t-45.5 -2q-3 0 -3 3t4 8.5t7 5.5h95q2 2 4 6q-30 27 -68.5 78.5t-59.5 91.5q-12 24 -12 33z" />
<glyph unicode="&#xa6;" horiz-adv-x="228" d="M207 -163q4 142 4 218q0 15 -0.5 50.5t-0.5 55.5q0 18 15 18q14 0 14 -10q-3 -111 -3 -188q0 -90 1 -142q0 -14 -24 -14q-6 0 -6 12zM207 331q0 47 2.5 131.5t2.5 139.5v50q0 12 6.5 19.5t15.5 7.5q5 0 5 -11q-3 -90 -3 -156q0 -45 2 -171q0 -7 -9.5 -16t-17.5 -9 q-4 0 -4 15z" />
<glyph unicode="&#xa7;" horiz-adv-x="300" d="M-27 0q0 19 6 37q3 9 9 17t10 8q3 0 3 -5l-1 -5q-2 -6 -4 -13.5t-2 -14.5q0 -39 30.5 -66.5t71.5 -27.5q39 0 65 22.5t26 62.5q0 37 -45.5 89t-45.5 86q0 53 56 92q0 48 38.5 82.5t89.5 34.5q21 0 41 -10.5t20 -32.5q0 -7 -7 -19t-11 -12q-1 0 -1 3q0 21 -20 37.5 t-43 16.5q-49 0 -75 -37q-11 -17 -11 -38q0 -16 12 -36.5t18 -27.5t29 -31q38 -41 38 -83q0 -34 -26 -69q-11 -15 -29 -28q-3 -49 -42.5 -84t-91.5 -35q-39 0 -73.5 24.5t-34.5 62.5zM123 221q0 -19 8.5 -35t28 -37t24.5 -28q25 -33 30 -77q34 25 34 69q0 9 -1.5 17.5 t-6 17.5t-7 14.5t-10.5 16t-10.5 14t-13.5 15.5t-12 14q-27 32 -33 53q-31 -22 -31 -54z" />
<glyph unicode="&#xa8;" horiz-adv-x="216" d="M52 336q0 11 10 23t21 12q6 0 10.5 -5.5t4.5 -12.5q0 -12 -9 -23.5t-21 -11.5q-16 0 -16 18zM115 330q0 11 10 23t21 12q6 0 10.5 -5.5t4.5 -12.5q0 -12 -9 -23.5t-21 -11.5q-16 0 -16 18z" />
<glyph unicode="&#xa9;" horiz-adv-x="566" d="M112 151q0 112 95 205t214 93q82 0 132 -50t50 -127q0 -113 -95 -205.5t-214 -92.5q-82 0 -132 50t-50 127zM156 160q0 -70 42 -122.5t114 -52.5h2q98 0 171 85t74 190q0 71 -41.5 125.5t-114.5 54.5q-99 0 -172.5 -87t-74.5 -193zM219 130q0 46 32 102q39 72 98 106 q46 27 79 27q22 0 38.5 -10.5t16.5 -19.5q0 -4 -7.5 -9.5t-11.5 -5.5q-2 0 -2 2q0 14 -12 23.5t-29 9.5q-34 0 -76 -31q-36 -29 -65 -78t-29 -93q0 -30 19 -55t49 -26q35 0 63.5 26.5t43.5 64.5q1 2 3 2q3 0 7 -9.5t4 -15.5q0 -9 -22 -28.5t-37 -28.5q-40 -25 -79 -25 q-34 0 -58.5 18.5t-24.5 53.5z" />
<glyph unicode="&#xaa;" horiz-adv-x="262" d="M82 225q2 45 49.5 93.5t92.5 48.5q35 0 45 -27q16 16 34 16h5l1 -1l-10 -10q-23 -23 -44 -58q-26 -44 -26 -73q0 -19 19 -19q39 0 61 39q0 3 6 3q2 0 2 -1q0 -2 -1 -3q-13 -24 -32 -36q-33 -21 -58 -21q-34 0 -34 28q0 1 0.5 3.5t0.5 3.5q-41 -28 -72 -28q-17 0 -28 12 t-11 30zM118 229q0 -31 21 -31q18 0 57 25q16 53 65 110q-8 25 -37 25q-36 0 -71 -45t-35 -84z" />
<glyph unicode="&#xab;" horiz-adv-x="313" d="M104 97q0 6 3 9q18 13 80.5 63t83.5 65q1 0 2.5 1.5t3.5 2.5t3 1t1 -4q0 -7 -3 -8q-19 -14 -44 -33.5t-54.5 -43.5t-45.5 -36q-2 -1 -2 -8q0 -6 2 -12q3 -8 13 -36t18 -50.5t8 -25.5q0 -1 -2 -1t-4.5 -0.5t-3.5 -0.5q-16 -7 -19 -7q-5 0 -6 2q-4 9 -9 25t-11 39t-10 37 q-4 12 -4 21zM182 91q0 11 8 18q61 45 141 110q7 5 13 5q3 0 3 -4q0 -6 -3 -7l-127 -97q-8 -7 -8 -14q0 -4 2 -8q13 -40 46 -100v-2q0 -8 -29 -8q-5 0 -6 2q-12 24 -37 90q-3 6 -3 15z" />
<glyph unicode="&#xac;" horiz-adv-x="691" d="M10 252q0 7 15.5 15t28.5 8q44 1 136 1q44 0 153.5 -0.5t178.5 -0.5h109q13 0 19 -6.5t6 -27.5q0 -49 3.5 -116.5t3.5 -111.5q0 -11 -7.5 -18t-19.5 -7q-14 0 -14 14q0 15 -0.5 36.5t-0.5 29.5q0 19 0.5 47t0.5 43q0 40 -0.5 45.5t-0.5 41.5q-47 -4 -75 -4 q-3 0 -66.5 1.5t-142 3t-117.5 1.5q-28 0 -90 -0.5t-104 -0.5q-16 0 -16 6z" />
<glyph unicode="&#xad;" horiz-adv-x="296" d="M113 161q0 6 4 12t7 6h28q10 0 36 -1t41 -1q9 0 30.5 0.5t29.5 0.5q9 0 9 -11q0 -12 -9.5 -15t-32.5 -3q-6 0 -34.5 1t-50.5 1h-43q-15 0 -15 10z" />
<glyph unicode="&#xae;" horiz-adv-x="566" d="M112 151q0 112 95 205t214 93q82 0 132 -50t50 -127q0 -113 -95 -205.5t-214 -92.5q-82 0 -132 50t-50 127zM156 160q0 -70 42 -122.5t114 -52.5h2q98 0 171 85t74 190q0 71 -41.5 125.5t-114.5 54.5q-99 0 -172.5 -87t-74.5 -193zM204 86q0 8 32 64q4 8 38 72 q-9 12 -9 16q0 8 24 12q17 31 26.5 46t27.5 32t42 27q23 9 42 9q37 0 37 -35q-2 -21 -27.5 -39.5t-58.5 -29.5q-18 -6 -70 -20q-1 -2 -6 -11.5t-6 -12.5q7 -12 25.5 -49t21.5 -41q26 -48 57 -48q26 0 36 22q1 2 4 2q12 0 12 -6q0 -2 -19 -15q-26 -16 -46 -16q-30 0 -43 21 q-10 15 -29.5 58.5t-27.5 57.5q-10 -17 -31 -59t-32 -61q-3 -4 -7 -4q-3 0 -8 3t-5 5zM316 253q45 12 57 17q60 21 60 55q0 26 -23 26q-14 0 -26 -6q-15 -7 -29 -23.5t-19.5 -28t-19.5 -40.5z" />
<glyph unicode="&#xaf;" horiz-adv-x="230" d="M28 329q0 6 4 6q29 0 89 -0.5t76 -0.5q8 0 8 -5q0 -9 -29 -9q-12 0 -43.5 0.5t-54.5 0.5h-43q-7 0 -7 8z" />
<glyph unicode="&#xb0;" horiz-adv-x="227" d="M187 353q0 25 18.5 42.5t44.5 17.5q25 0 42 -17.5t17 -42.5q0 -23 -19.5 -41.5t-44.5 -18.5q-26 0 -42 16.5t-16 43.5zM199 351q0 -19 13 -34.5t33 -15.5t35.5 16t15.5 37q0 20 -14 35.5t-34 15.5t-34.5 -16.5t-14.5 -37.5z" />
<glyph unicode="&#xb1;" horiz-adv-x="421" d="M83 50q0 22 26 54.5t68 53.5q49 25 133 43q4 8 10.5 22t10.5 22t7 17.5t3 16.5q0 30 -43 30q-46 0 -83 -35q-5 -5 -11 -5q-7 0 -7 3t19 15.5t52 26t62 13.5q51 0 51 -37q0 -19 -32 -81q55 10 120 14q3 0 3 -6q0 -5 -3.5 -14t-7.5 -16t-5 -7l-5 2q-5 3 -11 3 q-43 0 -111 -10q-98 -155 -203 -155q-8 0 -17 2t-17.5 9.5t-8.5 18.5zM98 48q0 -19 31 -19q46 0 84 34.5t79 105.5q-85 -16 -132 -43q-29 -16 -45.5 -39t-16.5 -39zM116 -9q0 5 10 11.5t18 6.5q96 2 116 2q11 0 67 -1t119 -1q6 0 6 -8q0 -20 -69 -20q-2 0 -34.5 1.5t-71.5 3 t-56 1.5q-11 0 -39 -0.5t-56 -0.5q-10 0 -10 5z" />
<glyph unicode="&#xb2;" horiz-adv-x="311" d="M177 235q0 3 2.5 4t9 3t11.5 5q41 22 81 59.5t40 73.5q0 28 -21 28q-12 0 -41 -23q-3 -3 -5 -3q-1 0 -3.5 2.5t-2.5 4.5q0 1 5 6q1 1 3 2q36 30 63 30q15 0 26 -9.5t11 -25.5q0 -21 -18 -44q-16 -22 -47.5 -50.5t-58.5 -45.5q23 5 46 5q35 0 62 -13q15 -9 15 -13 q0 -2 -13 -7.5t-18 -5.5q-8 0 -9 1q-17 17 -40 17q-13 0 -29.5 -2.5t-35.5 -7t-23 -5.5q-9 0 -9 5q0 2 -0.5 5t-0.5 4z" />
<glyph unicode="&#xb3;" horiz-adv-x="311" d="M179 263q0 3 8 6t15 3q6 0 6 -3q0 -1 -0.5 -5t-0.5 -7q0 -28 28 -28q25 0 44.5 20t19.5 42q0 25 -16 34q-5 3 -11 4.5t-9.5 2t-3.5 1.5q0 18 6 20q55 17 55 48q0 14 -13 14q-7 0 -14.5 -5t-11.5 -10t-5 -5q-3 0 -3 3t2 5q20 24 46 24q28 0 28 -20q0 -31 -63 -57 q15 -3 25.5 -17.5t10.5 -32.5q0 -31 -29.5 -55.5t-66.5 -24.5q-18 0 -32.5 11.5t-14.5 31.5z" />
<glyph unicode="&#xb4;" horiz-adv-x="230" d="M28 274l5 3l125 73q4 3 8 3q2 0 2 -4q0 -14 -10 -18q-20 -9 -56.5 -25.5t-64.5 -30.5q-4 -2 -6 -2q-3 0 -3 1z" />
<glyph unicode="&#xb5;" horiz-adv-x="292" d="M-113 -191q0 3 2 5q60 70 162 219q5 41 33 91q2 4 13 25.5t15.5 29.5t14.5 21.5t21 21.5q8 5 16 5q10 0 10 -6v-2q-4 -13 -11 -28t-11 -21.5t-17.5 -26t-15.5 -22.5l-26 -40q-11 -37 -11 -54q0 -16 16 -16q47 0 96 58q14 17 59 82q25 48 44 63q5 5 15 5q7 0 7 -4 q0 -1 -1 -1v-2q-6 -13 -20.5 -36.5t-26.5 -46.5q-1 -2 -10 -19.5t-11.5 -24t-8 -21t-7.5 -26t-2 -23.5q0 -19 12 -19q4 0 14 5q37 20 103 90q22 23 29 33q2 3 4 3t2 -2q0 -1 -1 -3q-6 -9 -22 -27q-55 -63 -102 -96q-23 -16 -44 -16q-26 0 -26 27q0 16 7 41q9 29 18 47 q-67 -104 -144 -104q-21 0 -31 23q-96 -143 -152 -208q-3 -4 -8 -4q-4 0 -4 4zM107 116q11 16 18 27q37 54 37 71q-3 0 -21 -31.5t-19 -35.5q-14 -27 -15 -31z" />
<glyph unicode="&#xb6;" horiz-adv-x="500" d="M168 -226q0 1 2 3q76 95 152 217q-47 4 -83.5 28.5t-36.5 69.5q0 72 63 123t141 58q24 2 75 2l44 86q1 3 10.5 6.5t13.5 3.5q7 0 7 -5q0 -2 -2 -6l-50 -85h23q56 0 56 -3q0 -2 -9 -4.5t-13 -2.5q-44 -2 -65 -4l-154 -255q3 -1 8 -1t23 2q6 1 28.5 13t26.5 12q1 0 1 -1 q0 -6 -20 -26q-12 -13 -55 -13q-13 0 -20 1q-81 -137 -120 -216q-4 -7 -19 -7q-1 0 -6.5 1t-8.5 1h-7q-5 0 -5 2zM296 70q0 -44 35 -61q66 106 141 250q-69 -13 -122.5 -66t-53.5 -123z" />
<glyph unicode="&#xb7;" horiz-adv-x="219" d="M138 175q0 16 14 31.5t31 15.5q19 0 19 -20q0 -16 -13.5 -31.5t-30.5 -15.5q-20 0 -20 20z" />
<glyph unicode="&#xb8;" horiz-adv-x="230" d="M64 -96q0 5 9 5q3 0 3 -2q8 -30 35 -30q19 0 31 9.5t12 25.5q0 35 -56 35q-1 0 -3 -1.5t-3 -1.5q-7 0 -7 1l5 7q6 6 16 20l20 28q2 3 8 3q3 0 3 -2q0 -3 -22 -34q53 0 53 -43q0 -21 -17.5 -37t-39.5 -16q-32 0 -44 25q-3 6 -3 8z" />
<glyph unicode="&#xb9;" horiz-adv-x="322" d="M197 355q0 1 1 1t3.5 -0.5t4.5 -0.5q52 0 103 42q15 18 24 23q13 8 18 8q4 0 4 -5q0 -15 -24 -36q-30 -46 -78 -154q-2 -5 -2.5 -6t-2.5 -2.5t-3.5 -1.5t-6.5 -0.5t-10 -1.5q-10 -2 -14 -2q-6 0 -6 3q0 4 9 14q10 11 21.5 29.5t30 54.5t28.5 53q-52 -27 -81 -27 q-5 0 -12 3.5t-7 5.5z" />
<glyph unicode="&#xba;" horiz-adv-x="236" d="M100 208q0 52 42 99q23 27 57 52.5t60 25.5q22 0 22 -29q0 -65 -49 -127q-48 -60 -95 -60q-16 0 -26.5 10.5t-10.5 28.5zM130 225q0 -34 31 -34q32 0 62 50q27 44 27 87q0 40 -17 40q-32 0 -74 -62q-29 -43 -29 -81z" />
<glyph unicode="&#xbb;" horiz-adv-x="312" d="M47 -26q0 5 6 9q64 43 141 110q3 1 3 10q0 5 -2 11q-8 18 -24.5 44t-28 44t-11.5 19q0 4 12 8.5t18 4.5q2 0 11 -14q8 -12 24.5 -44t23.5 -44q6 -10 6 -19q0 -8 -7 -14q-15 -11 -76 -59.5t-85 -65.5q-8 -4 -9 -4q-2 0 -2 4zM159 -5q0 5 6 7q8 3 25.5 17t47.5 42t44 40 q2 2 2 5q0 2 -4 12q-9 17 -23 41.5t-23 40t-9 16.5q0 5 10 9.5t18 4.5q3 0 13.5 -19t23.5 -45l15 -30q6 -10 6 -19q0 -8 -7 -14q-19 -14 -69.5 -57.5t-63.5 -53.5l-7 -5q-5 0 -5 8z" />
<glyph unicode="&#xbc;" horiz-adv-x="517" d="M79 -53q0 4 5 7l445 484q7 9 16 9q7 0 7 -5q0 -2 -1 -2l-445 -486q-9 -9 -24 -9q-3 0 -3 2zM163 355q0 1 1 1t3.5 -0.5t4.5 -0.5q52 0 103 42q15 18 24 23q13 8 18 8q4 0 4 -5q0 -15 -24 -36q-30 -46 -78 -154q-2 -5 -2.5 -6t-2.5 -2.5t-3.5 -1.5t-6.5 -0.5t-10 -1.5 q-10 -2 -14 -2q-6 0 -6 3q0 4 9 14q10 11 21.5 29.5t30 54.5t28.5 53q-52 -27 -81 -27q-5 0 -12 3.5t-7 5.5zM343 84q0 7 13 19l82 72q6 5 10 11t5.5 11t2.5 9l1 4q2 3 12 7.5t14 4.5q3 0 3 -4q0 -5 -4 -11t-8.5 -10t-10 -9l-5.5 -5q-23 -19 -70 -62q-13 -12 -13 -21 q0 -14 76 -16q10 17 37 73q5 12 5 35q0 2 2 2q4 0 9.5 -3t10 -8t4.5 -11q0 -8 -9 -23q-6 -10 -11.5 -20t-12 -22.5t-11.5 -21.5q7 -1 20 -1q17 0 34 2.5t27 4.5l10 2q3 0 3 -3q0 -1 -11 -6.5t-17 -7.5q-42 -11 -75 -11q-25 -44 -36 -68q-3 -8 -19 -8q-15 0 -15 5q0 1 8.5 14 t19.5 30.5t16 26.5q-5 0 -14 1q-21 0 -31.5 1t-25 2.5t-20.5 5.5t-6 9z" />
<glyph unicode="&#xbd;" horiz-adv-x="517" d="M79 -53q0 4 5 7l445 484q7 9 16 9q7 0 7 -5q0 -2 -1 -2l-445 -486q-9 -9 -24 -9q-3 0 -3 2zM163 355q0 1 1 1t3.5 -0.5t4.5 -0.5q52 0 103 42q15 18 24 23q13 8 18 8q4 0 4 -5q0 -15 -24 -36q-30 -46 -78 -154q-2 -5 -2.5 -6t-2.5 -2.5t-3.5 -1.5t-6.5 -0.5t-10 -1.5 q-10 -2 -14 -2q-6 0 -6 3q0 4 9 14q10 11 21.5 29.5t30 54.5t28.5 53q-52 -27 -81 -27q-5 0 -12 3.5t-7 5.5zM306 5q0 3 2.5 4t9 3t11.5 5q41 22 81 59.5t40 73.5q0 28 -21 28q-12 0 -41 -23q-3 -3 -5 -3q-1 0 -3.5 2.5t-2.5 4.5q0 1 5 6q13 11 19 15.5t20 10.5t27 6 q7 0 13.5 -2.5t12 -7t8.5 -11t3 -14.5q0 -21 -18 -44q-16 -22 -47.5 -50.5t-58.5 -45.5q23 5 46 5q35 0 62 -13q15 -9 15 -13q0 -2 -13 -7.5t-18 -5.5q-8 0 -9 1q-17 17 -40 17q-10 0 -23.5 -2t-24 -4t-23 -5t-17.5 -4q-9 0 -9 5q0 2 -0.5 5t-0.5 4z" />
<glyph unicode="&#xbe;" horiz-adv-x="517" d="M79 -53q0 4 5 7l445 484q7 9 16 9q7 0 7 -5q0 -2 -1 -2l-445 -486q-9 -9 -24 -9q-3 0 -3 2zM130 263q0 3 8 6t15 3q6 0 6 -3q0 -1 -0.5 -5t-0.5 -7q0 -28 28 -28q25 0 44.5 20t19.5 42q0 25 -16 34q-5 3 -11 4.5t-9.5 2t-3.5 1.5q0 18 6 20q55 17 55 48q0 14 -13 14 q-7 0 -14.5 -5t-11.5 -10t-5 -5q-3 0 -3 3t2 5q20 24 46 24q28 0 28 -20q0 -31 -63 -57q15 -3 25.5 -17.5t10.5 -32.5q0 -31 -29.5 -55.5t-66.5 -24.5q-18 0 -32.5 11.5t-14.5 31.5zM343 84q0 7 13 19l82 72q6 5 10 11t5.5 11t2.5 9l1 4q2 3 12 7.5t14 4.5q3 0 3 -4 q0 -5 -4 -11t-8.5 -10t-9.5 -9l-6 -5q-23 -19 -70 -62q-13 -12 -13 -21q0 -14 76 -16q10 17 37 73q5 12 5 35q0 2 2 2q7 0 15.5 -7t8.5 -15t-9 -23q-8 -13 -19.5 -34.5t-15.5 -29.5q7 -1 20 -1q17 0 34 2t27 4l10 3q3 0 3 -3q0 -2 -11 -7t-17 -7q-42 -11 -75 -11 q-25 -44 -36 -68q-3 -8 -19 -8q-15 0 -15 5q0 1 8.5 14t19.5 30.5t16 26.5q-81 4 -92 11q-5 3 -5 8z" />
<glyph unicode="&#xbf;" horiz-adv-x="258" d="M-27 -129q0 11 3.5 22t12 22t15.5 20.5t21.5 21.5t23 19t27 19t25 17t26 17t22.5 14q19 12 28 19t18 20t9 27q0 20 -16 34.5t-42 14.5q-27 0 -54 -22q-2 -2 -5 -2t-3 4q0 2 4 5q44 30 85 30q25 0 46.5 -11.5t21.5 -35.5q0 -18 -14 -37t-27.5 -29t-35.5 -24 q-93 -60 -121 -90q-31 -32 -31 -58q0 -23 16 -33.5t34 -10.5q34 0 60.5 20t42.5 48q5 8 10 8q3 0 3 -3t-2 -5q-5 -5 -18.5 -21.5t-19 -22.5t-19 -18t-23.5 -16.5t-25 -9t-32 -4.5q-25 0 -45.5 13.5t-20.5 37.5zM212 218q0 16 13.5 31.5t30.5 15.5q20 0 20 -20 q0 -16 -14 -31.5t-31 -15.5q-19 0 -19 20z" />
<glyph unicode="&#xc0;" horiz-adv-x="644" d="M-9 -81q0 3 1 4q22 13 44 28.5t39.5 27.5t41 32t37 31t40.5 35.5t37.5 34.5t42 39.5t42.5 39.5q52 48 123 131t104 131q27 40 36.5 49.5t30.5 19.5q8 4 11 4t3 -5q0 -4 -2.5 -11.5t-5.5 -16t-4 -10.5q-52 -127 -79 -270q15 3 33.5 8.5t30.5 9.5t13 4q2 0 2 -3 q0 -1 -10.5 -7t-30.5 -14.5t-41 -14.5q-15 -87 -15 -120q0 -69 42 -69q19 0 52 14.5t65 42.5q34 30 54 60q2 3 4 3t2 -2q0 -1 -1 -3q-44 -59 -102 -101t-109 -42q-26 0 -35.5 16.5t-9.5 52.5q0 34 19 140q-65 -13 -136 -13q-20 0 -31 1q-15 -14 -58.5 -54.5t-67 -61.5 t-61 -54t-71 -59t-66.5 -49q-2 -2 -5 -2q-9 0 -9 23zM347 199q26 -1 62 -1q43 0 92 9q23 103 71 232q14 40 14 46q0 3 -1 3q-5 0 -14 -13q-41 -65 -106.5 -144.5t-117.5 -131.5zM551 661q0 19 10 19q5 0 7 -5l43 -104q0 -1 1.5 -3.5t2.5 -5.5l1 -2q0 -1 -1 -1q-5 0 -7 4 q-10 17 -21.5 36.5t-19 31.5t-15.5 24q-1 1 -1 6z" />
<glyph unicode="&#xc1;" horiz-adv-x="644" d="M-9 -81q0 3 1 4q22 13 44 28.5t39.5 27.5t41 32t37 31t40.5 35.5t37.5 34.5t42 39.5t42.5 39.5q52 48 123 131t104 131q27 40 36.5 49.5t30.5 19.5q8 4 11 4t3 -5q0 -4 -2.5 -11.5t-5.5 -16t-4 -10.5q-52 -127 -79 -270q15 3 33.5 8.5t30.5 9.5t13 4q2 0 2 -3 q0 -1 -10.5 -7t-30.5 -14.5t-41 -14.5q-15 -87 -15 -120q0 -69 42 -69q19 0 52 14.5t65 42.5q34 30 54 60q2 3 4 3t2 -2q0 -1 -1 -3q-44 -59 -102 -101t-109 -42q-26 0 -35.5 16.5t-9.5 52.5q0 34 19 140q-65 -13 -136 -13q-20 0 -31 1q-15 -14 -58.5 -54.5t-67 -61.5 t-61 -54t-71 -59t-66.5 -49q-2 -2 -5 -2q-9 0 -9 23zM347 199q26 -1 62 -1q43 0 92 9q23 103 71 232q14 40 14 46q0 3 -1 3q-5 0 -14 -13q-41 -65 -106.5 -144.5t-117.5 -131.5zM588 562l5 3l125 73q4 3 8 3q2 0 2 -4q0 -14 -10 -18q-20 -9 -56.5 -25.5t-64.5 -30.5 q-4 -2 -6 -2q-3 0 -3 1z" />
<glyph unicode="&#xc2;" horiz-adv-x="644" d="M-9 -81q0 3 1 4q22 13 44 28.5t39.5 27.5t41 32t37 31t40.5 35.5t37.5 34.5t42 39.5t42.5 39.5q52 48 123 131t104 131q27 40 36.5 49.5t30.5 19.5q8 4 11 4t3 -5q0 -4 -2.5 -11.5t-5.5 -16t-4 -10.5q-52 -127 -79 -270q15 3 33.5 8.5t30.5 9.5t13 4q2 0 2 -3 q0 -1 -10.5 -7t-30.5 -14.5t-41 -14.5q-15 -87 -15 -120q0 -69 42 -69q19 0 52 14.5t65 42.5q34 30 54 60q2 3 4 3t2 -2q0 -1 -1 -3q-44 -59 -102 -101t-109 -42q-26 0 -35.5 16.5t-9.5 52.5q0 34 19 140q-65 -13 -136 -13q-20 0 -31 1q-15 -14 -58.5 -54.5t-67 -61.5 t-61 -54t-71 -59t-66.5 -49q-2 -2 -5 -2q-9 0 -9 23zM347 199q26 -1 62 -1q43 0 92 9q23 103 71 232q14 40 14 46q0 3 -1 3q-5 0 -14 -13q-41 -65 -106.5 -144.5t-117.5 -131.5zM558 572q0 1 2 2l2 1q18 15 56 53q6 6 16 15.5t18.5 18t17.5 18.5q6 6 13 6q2 0 2 -1 q1 -7 2.5 -39.5t3.5 -48.5q0 -2 0.5 -7t0.5 -7q0 -5 -1.5 -7.5t-5 -6t-4.5 -5.5l-2 -2l-5 -6q-4 0 -4 10q0 97 -3 97t-9 -6q-39 -35 -81 -82q-4 -4 -18 -4z" />
<glyph unicode="&#xc3;" horiz-adv-x="644" d="M-9 -81q0 3 1 4q22 13 44 28.5t39.5 27.5t41 32t37 31t40.5 35.5t37.5 34.5t42 39.5t42.5 39.5q52 48 123 131t104 131q27 40 36.5 49.5t30.5 19.5q8 4 11 4t3 -5q0 -4 -2.5 -11.5t-5.5 -16t-4 -10.5q-52 -127 -79 -270q15 3 33.5 8.5t30.5 9.5t13 4q2 0 2 -3 q0 -1 -10.5 -7t-30.5 -14.5t-41 -14.5q-15 -87 -15 -120q0 -69 42 -69q19 0 52 14.5t65 42.5q34 30 54 60q2 3 4 3t2 -2q0 -1 -1 -3q-44 -59 -102 -101t-109 -42q-26 0 -35.5 16.5t-9.5 52.5q0 34 19 140q-65 -13 -136 -13q-20 0 -31 1q-15 -14 -58.5 -54.5t-67 -61.5 t-61 -54t-71 -59t-66.5 -49q-2 -2 -5 -2q-9 0 -9 23zM347 199q26 -1 62 -1q43 0 92 9q23 103 71 232q14 40 14 46q0 3 -1 3q-5 0 -14 -13q-41 -65 -106.5 -144.5t-117.5 -131.5zM537 590q0 2 6 10l11 14q11 14 15 18t14 13.5t19 13t19 3.5q13 0 23 -16t22.5 -32.5 t30.5 -16.5q14 0 25.5 15t11.5 31v7q0 8 4 8t4 -16q0 -19 -16 -38.5t-38 -19.5q-20 0 -29.5 7.5t-21.5 25.5q-18 27 -28 27q-9 0 -18.5 -5.5t-14.5 -10.5t-15.5 -17.5t-12.5 -14.5q-8 -10 -9 -10q-2 0 -2 4z" />
<glyph unicode="&#xc4;" horiz-adv-x="644" d="M-9 -81q0 3 1 4q22 13 44 28.5t39.5 27.5t41 32t37 31t40.5 35.5t37.5 34.5t42 39.5t42.5 39.5q52 48 123 131t104 131q27 40 36.5 49.5t30.5 19.5q8 4 11 4t3 -5q0 -4 -2.5 -11.5t-5.5 -16t-4 -10.5q-52 -127 -79 -270q15 3 33.5 8.5t30.5 9.5t13 4q2 0 2 -3 q0 -1 -10.5 -7t-30.5 -14.5t-41 -14.5q-15 -87 -15 -120q0 -69 42 -69q19 0 52 14.5t65 42.5q34 30 54 60q2 3 4 3t2 -2q0 -1 -1 -3q-44 -59 -102 -101t-109 -42q-26 0 -35.5 16.5t-9.5 52.5q0 34 19 140q-65 -13 -136 -13q-20 0 -31 1q-15 -14 -58.5 -54.5t-67 -61.5 t-61 -54t-71 -59t-66.5 -49q-2 -2 -5 -2q-9 0 -9 23zM347 199q26 -1 62 -1q43 0 92 9q23 103 71 232q14 40 14 46q0 3 -1 3q-5 0 -14 -13q-41 -65 -106.5 -144.5t-117.5 -131.5zM588 596q0 11 10 23t21 12q6 0 10.5 -5.5t4.5 -12.5q0 -12 -9 -23.5t-21 -11.5q-16 0 -16 18z M651 590q0 11 10 23t21 12q6 0 10.5 -5.5t4.5 -12.5q0 -12 -9 -23.5t-21 -11.5q-16 0 -16 18z" />
<glyph unicode="&#xc5;" horiz-adv-x="644" d="M-9 -81q0 3 1 4q22 13 44 28.5t39.5 27.5t41 32t37 31t40.5 35.5t37.5 34.5t42 39.5t42.5 39.5q52 48 123 131t104 131q27 40 36.5 49.5t30.5 19.5q8 4 11 4t3 -5q0 -4 -2.5 -11.5t-5.5 -16t-4 -10.5q-52 -127 -79 -270q15 3 33.5 8.5t30.5 9.5t13 4q2 0 2 -3 q0 -1 -10.5 -7t-30.5 -14.5t-41 -14.5q-15 -87 -15 -120q0 -69 42 -69q19 0 52 14.5t65 42.5q34 30 54 60q2 3 4 3t2 -2q0 -1 -1 -3q-44 -59 -102 -101t-109 -42q-26 0 -35.5 16.5t-9.5 52.5q0 34 19 140q-65 -13 -136 -13q-20 0 -31 1q-15 -14 -58.5 -54.5t-67 -61.5 t-61 -54t-71 -59t-66.5 -49q-2 -2 -5 -2q-9 0 -9 23zM347 199q26 -1 62 -1q43 0 92 9q23 103 71 232q14 40 14 46q0 3 -1 3q-5 0 -14 -13q-41 -65 -106.5 -144.5t-117.5 -131.5zM607 618q0 23 18 40t42 17q16 0 26.5 -9.5t10.5 -24.5q0 -22 -17.5 -39.5t-40.5 -17.5 q-17 0 -28 9.5t-11 24.5zM624 624q0 -11 8.5 -20t19.5 -9q14 0 24 10.5t10 26.5q0 11 -8 21t-21 10q-14 0 -23.5 -11.5t-9.5 -27.5z" />
<glyph unicode="&#xc6;" horiz-adv-x="1184" d="M-9 -83q0 5 1 6q29 17 58.5 38.5t51 38t54.5 45t49 43.5t55.5 51.5t55.5 51.5q52 50 124 133t103 129q28 41 37 50t30 19q8 4 11 4q4 0 7 -10q5 -13 52 -24.5t99 -13.5q62 0 154 30q2 1 10 1q5 0 5 -4q0 -6 -7 -12q-2 -1 -6 -7t-8.5 -10.5t-8.5 -4.5q-2 0 -8 1t-12 1 q-15 0 -60 -3t-58 -3q-66 0 -167 19q-36 -83 -62 -182q80 -5 173 -5q46 0 65 1q3 0 8 0.5t7 0.5q9 0 9 -2q0 -14 -48 -14q-30 0 -107 3t-96 3h-5.5t-4.5 -0.5t-4 -0.5h-1q-23 -95 -23 -183q0 -138 94 -138q59 0 111 21q30 13 53.5 32t35 34t24.5 38q5 7 5 15q0 3 -1.5 7 t-1.5 5q0 4 4 4q6 0 17 -7.5t11 -12.5q0 -1 -1 -2q-8 -9 -26 -30t-33 -35.5t-36 -29.5q-86 -60 -217 -60q-81 0 -81 112q0 44 14 128q-65 -13 -136 -13q-20 0 -31 1q-18 -15 -137 -123t-187 -155q-2 -2 -5 -2q-9 0 -9 21zM347 199q26 -1 62 -1q42 0 91 9q30 119 72 232 q14 40 14 46q0 3 -1 3q-5 0 -14 -13q-43 -66 -108 -145.5t-116 -130.5z" />
<glyph unicode="&#xc7;" horiz-adv-x="567" d="M136 89q0 82 54 180q28 51 78 110.5t110 93.5q83 47 151 47q32 0 68.5 -9.5t36.5 -27.5q0 -7 -11 -16.5t-16 -9.5q-1 0 -2 3.5t-3 9.5t-5 9q-21 26 -76 26q-80 0 -152 -56q-71 -55 -131.5 -156.5t-60.5 -186.5q0 -64 36 -104.5t93 -42.5q123 0 243 178q3 4 5 4q4 0 4 -19 q0 -30 -5 -35q-50 -64 -116.5 -106.5t-140.5 -42.5q-10 -13 -17 -25q53 0 53 -43q0 -21 -17.5 -37t-39.5 -16q-32 0 -44 25q-3 6 -3 8q0 5 9 5q3 0 3 -2q8 -30 35 -30q19 0 31 9.5t12 25.5q0 35 -56 35q-1 0 -3 -1.5t-3 -1.5q-7 0 -7 1l5 5q4 6 13 18t18 25q-63 4 -106 44.5 t-43 105.5z" />
<glyph unicode="&#xc8;" horiz-adv-x="537" d="M133 71q0 65 47 116t118 83q19 9 48 18t45.5 14.5t16.5 8.5q0 2 -11 11q-37 28 -37 67q0 18 11 37q27 46 76 69t103 23q29 0 65.5 -9.5t36.5 -29.5q0 -9 -12 -23.5t-17 -14.5q-3 0 -3 2q0 1 2.5 6t2.5 8q0 15 -26 32t-68 17q-44 0 -86.5 -24t-42.5 -67q0 -23 10.5 -45.5 t28.5 -33.5q21 -14 21 -16q0 -22 -25 -25q-115 -15 -189 -66q-37 -25 -55.5 -64.5t-18.5 -79.5q0 -44 26 -72.5t55.5 -37t60.5 -8.5q65 0 136 52t71 90q0 3 -1.5 7t-1.5 5q0 4 4 4q6 0 17 -7.5t11 -12.5q0 -1 -1 -2q-8 -9 -26.5 -30.5t-33.5 -36t-35 -28.5q-93 -67 -167 -67 q-60 0 -108 34.5t-48 95.5zM483 661q0 19 10 19q5 0 7 -5l43 -104q0 -1 1.5 -3.5t2.5 -5.5l1 -2q0 -1 -1 -1q-5 0 -7 4q-10 17 -21.5 36.5t-19 31.5t-15.5 24q-1 1 -1 6z" />
<glyph unicode="&#xc9;" horiz-adv-x="537" d="M133 71q0 65 47 116t118 83q19 9 48 18t45.5 14.5t16.5 8.5q0 2 -11 11q-37 28 -37 67q0 18 11 37q27 46 76 69t103 23q29 0 65.5 -9.5t36.5 -29.5q0 -9 -12 -23.5t-17 -14.5q-3 0 -3 2q0 1 2.5 6t2.5 8q0 15 -26 32t-68 17q-44 0 -86.5 -24t-42.5 -67q0 -23 10.5 -45.5 t28.5 -33.5q21 -14 21 -16q0 -22 -25 -25q-115 -15 -189 -66q-37 -25 -55.5 -64.5t-18.5 -79.5q0 -44 26 -72.5t55.5 -37t60.5 -8.5q65 0 136 52t71 90q0 3 -1.5 7t-1.5 5q0 4 4 4q6 0 17 -7.5t11 -12.5q0 -1 -1 -2q-8 -9 -26.5 -30.5t-33.5 -36t-35 -28.5q-93 -67 -167 -67 q-60 0 -108 34.5t-48 95.5zM520 562l5 3l125 73q4 3 8 3q2 0 2 -4q0 -14 -10 -18q-20 -9 -56.5 -25.5t-64.5 -30.5q-4 -2 -6 -2q-3 0 -3 1z" />
<glyph unicode="&#xca;" horiz-adv-x="537" d="M133 71q0 65 47 116t118 83q19 9 48 18t45.5 14.5t16.5 8.5q0 2 -11 11q-37 28 -37 67q0 18 11 37q27 46 76 69t103 23q29 0 65.5 -9.5t36.5 -29.5q0 -9 -12 -23.5t-17 -14.5q-3 0 -3 2q0 1 2.5 6t2.5 8q0 15 -26 32t-68 17q-44 0 -86.5 -24t-42.5 -67q0 -23 10.5 -45.5 t28.5 -33.5q21 -14 21 -16q0 -22 -25 -25q-115 -15 -189 -66q-37 -25 -55.5 -64.5t-18.5 -79.5q0 -44 26 -72.5t55.5 -37t60.5 -8.5q65 0 136 52t71 90q0 3 -1.5 7t-1.5 5q0 4 4 4q6 0 17 -7.5t11 -12.5q0 -1 -1 -2q-8 -9 -26.5 -30.5t-33.5 -36t-35 -28.5q-93 -67 -167 -67 q-60 0 -108 34.5t-48 95.5zM490 572q0 1 2 2l2 1q18 15 56 53q6 6 16 15.5t18.5 18t17.5 18.5q6 6 13 6q2 0 2 -1q1 -7 2.5 -39.5t3.5 -48.5q0 -2 0.5 -7t0.5 -7q0 -5 -1.5 -7.5t-5 -6t-4.5 -5.5l-2 -2l-5 -6q-4 0 -4 10q0 97 -3 97t-9 -6q-39 -35 -81 -82q-4 -4 -18 -4z " />
<glyph unicode="&#xcb;" horiz-adv-x="537" d="M133 71q0 65 47 116t118 83q19 9 48 18t45.5 14.5t16.5 8.5q0 2 -11 11q-37 28 -37 67q0 18 11 37q27 46 76 69t103 23q29 0 65.5 -9.5t36.5 -29.5q0 -9 -12 -23.5t-17 -14.5q-3 0 -3 2q0 1 2.5 6t2.5 8q0 15 -26 32t-68 17q-44 0 -86.5 -24t-42.5 -67q0 -23 10.5 -45.5 t28.5 -33.5q21 -14 21 -16q0 -22 -25 -25q-115 -15 -189 -66q-37 -25 -55.5 -64.5t-18.5 -79.5q0 -44 26 -72.5t55.5 -37t60.5 -8.5q65 0 136 52t71 90q0 3 -1.5 7t-1.5 5q0 4 4 4q6 0 17 -7.5t11 -12.5q0 -1 -1 -2q-8 -9 -26.5 -30.5t-33.5 -36t-35 -28.5q-93 -67 -167 -67 q-60 0 -108 34.5t-48 95.5zM520 596q0 11 10 23t21 12q6 0 10.5 -5.5t4.5 -12.5q0 -12 -9 -23.5t-21 -11.5q-16 0 -16 18zM583 590q0 11 10 23t21 12q6 0 10.5 -5.5t4.5 -12.5q0 -12 -9 -23.5t-21 -11.5q-16 0 -16 18z" />
<glyph unicode="&#xcc;" horiz-adv-x="393" d="M60 11q0 25 20 25q7 0 7 -13q0 -5 -2 -12t-2 -10q0 -6 5 -12q25 -30 62 -30q80 0 143 130q93 197 150 286l64 104q-22 -7 -77 -14.5t-77 -7.5q-11 -15 -60 -64q-5 -4 -32.5 -29.5t-43.5 -37.5q-11 -8 -12 -8t-1 3q0 6 10 14q24 19 67.5 61t54.5 59q-28 1 -43.5 1.5 t-39.5 4t-35.5 12t-11.5 21.5q0 33 50 56t88 23q49 0 49 -32q0 -21 -32 -73q11 1 36 3t36 3t29 5t34 10q52 15 59 15q4 0 4 -1q0 -4 -12 -16q-30 -36 -60 -86t-48.5 -87t-53 -109.5t-52.5 -109.5q-72 -147 -181 -147q-32 0 -62 16.5t-30 46.5zM237 500q0 -21 17.5 -27.5 t50.5 -6.5q7 0 20 0.5t20 0.5q23 38 23 52q0 19 -14 31t-35 12q-30 0 -56 -16t-26 -46zM431 661q0 19 10 19q5 0 7 -5l43 -104q0 -1 1.5 -3.5t2.5 -5.5l1 -2q0 -1 -1 -1q-5 0 -7 4q-10 17 -21.5 36.5t-19 31.5t-15.5 24q-1 1 -1 6z" />
<glyph unicode="&#xcd;" horiz-adv-x="393" d="M60 11q0 25 20 25q7 0 7 -13q0 -5 -2 -12t-2 -10q0 -6 5 -12q25 -30 62 -30q80 0 143 130q93 197 150 286l64 104q-22 -7 -77 -14.5t-77 -7.5q-11 -15 -60 -64q-5 -4 -32.5 -29.5t-43.5 -37.5q-11 -8 -12 -8t-1 3q0 6 10 14q24 19 67.5 61t54.5 59q-28 1 -43.5 1.5 t-39.5 4t-35.5 12t-11.5 21.5q0 33 50 56t88 23q49 0 49 -32q0 -21 -32 -73q11 1 36 3t36 3t29 5t34 10q52 15 59 15q4 0 4 -1q0 -4 -12 -16q-30 -36 -60 -86t-48.5 -87t-53 -109.5t-52.5 -109.5q-72 -147 -181 -147q-32 0 -62 16.5t-30 46.5zM237 500q0 -21 17.5 -27.5 t50.5 -6.5q7 0 20 0.5t20 0.5q23 38 23 52q0 19 -14 31t-35 12q-30 0 -56 -16t-26 -46zM468 562l5 3l125 73q4 3 8 3q2 0 2 -4q0 -14 -10 -18q-20 -9 -56.5 -25.5t-64.5 -30.5q-4 -2 -6 -2q-3 0 -3 1z" />
<glyph unicode="&#xce;" horiz-adv-x="393" d="M60 11q0 25 20 25q7 0 7 -13q0 -5 -2 -12t-2 -10q0 -6 5 -12q25 -30 62 -30q80 0 143 130q93 197 150 286l64 104q-22 -7 -77 -14.5t-77 -7.5q-11 -15 -60 -64q-5 -4 -32.5 -29.5t-43.5 -37.5q-11 -8 -12 -8t-1 3q0 6 10 14q24 19 67.5 61t54.5 59q-28 1 -43.5 1.5 t-39.5 4t-35.5 12t-11.5 21.5q0 33 50 56t88 23q49 0 49 -32q0 -21 -32 -73q11 1 36 3t36 3t29 5t34 10q52 15 59 15q4 0 4 -1q0 -4 -12 -16q-30 -36 -60 -86t-48.5 -87t-53 -109.5t-52.5 -109.5q-72 -147 -181 -147q-32 0 -62 16.5t-30 46.5zM237 500q0 -21 17.5 -27.5 t50.5 -6.5q7 0 20 0.5t20 0.5q23 38 23 52q0 19 -14 31t-35 12q-30 0 -56 -16t-26 -46zM438 572q0 1 2 2l2 1q18 15 56 53l52 52q6 6 13 6q2 0 2 -1q1 -7 2.5 -39.5t3.5 -48.5q0 -2 0.5 -7t0.5 -7q0 -5 -1.5 -7.5t-5 -6t-4.5 -5.5l-2 -2l-5 -6q-4 0 -4 10q0 97 -3 97t-9 -6 q-39 -35 -81 -82q-4 -4 -18 -4z" />
<glyph unicode="&#xcf;" horiz-adv-x="393" d="M60 11q0 25 20 25q7 0 7 -13q0 -5 -2 -12t-2 -10q0 -6 5 -12q25 -30 62 -30q80 0 143 130q93 197 150 286l64 104q-22 -7 -77 -14.5t-77 -7.5q-11 -15 -60 -64q-5 -4 -32.5 -29.5t-43.5 -37.5q-11 -8 -12 -8t-1 3q0 6 10 14q24 19 67.5 61t54.5 59q-28 1 -43.5 1.5 t-39.5 4t-35.5 12t-11.5 21.5q0 33 50 56t88 23q49 0 49 -32q0 -21 -32 -73q11 1 36 3t36 3t29 5t34 10q52 15 59 15q4 0 4 -1q0 -4 -12 -16q-30 -36 -60 -86t-48.5 -87t-53 -109.5t-52.5 -109.5q-72 -147 -181 -147q-32 0 -62 16.5t-30 46.5zM237 500q0 -21 17.5 -27.5 t50.5 -6.5q7 0 20 0.5t20 0.5q23 38 23 52q0 19 -14 31t-35 12q-30 0 -56 -16t-26 -46zM468 596q0 11 10 23t21 12q6 0 10.5 -5.5t4.5 -12.5q0 -12 -9 -23.5t-21 -11.5q-16 0 -16 18zM531 590q0 11 10 23t21 12q6 0 10.5 -5.5t4.5 -12.5q0 -12 -9 -23.5t-21 -11.5 q-16 0 -16 18z" />
<glyph unicode="&#xd0;" horiz-adv-x="685" d="M66 -5q0 53 65.5 121.5t116.5 68.5q34 0 61 -57q15 26 61 120h-68q-7 0 -7 8q0 6 4 6q2 0 16 -0.5t19 -0.5q8 0 20 0.5t22 0.5q64 133 116 257q-3 0 -10.5 0.5t-11.5 0.5q-80 0 -162 -41q-60 -30 -119 -102t-59 -105q0 -3 3 -7.5t3 -6.5q0 -6 -6 -6t-18 12.5t-12 19.5 q0 21 61.5 92.5t117.5 100.5q93 48 200 48h16q9 25 9 35q0 41 -50 41q-28 0 -63 -20q-10 -5 -12 -5t-2 1q0 2 7 6q51 28 87 28q68 0 68 -50q0 -17 -10 -39q179 -30 179 -230q0 -59 -14 -117.5t-41.5 -111t-75 -85.5t-108.5 -33q-63 0 -102 29.5t-84 93.5q-88 -118 -160 -118 q-24 0 -40.5 11t-16.5 34zM99 18q0 -42 49 -42q60 0 129 100q-5 7 -15 22t-15 21t-12.5 14.5t-15 11.5t-15.5 3q-35 0 -70 -47t-35 -83zM315 114q13 -33 22 -52t26.5 -46t39.5 -40.5t50 -13.5q54 0 98.5 34.5t70.5 88t40 110.5t14 108q0 169 -151 210l-125 -252h64q8 0 8 -5 q0 -8 -10 -8q-16 -2 -32 -2q-22 0 -38 1q-43 -82 -77 -133z" />
<glyph unicode="&#xd1;" horiz-adv-x="466" d="M20 -20q0 67 47 184q4 9 22.5 21.5t27.5 12.5q3 0 3 -3q0 -2 -1 -4q-20 -43 -45.5 -112t-25.5 -101q0 -19 11 -19q12 0 31.5 25t34.5 54q21 41 43 90.5t38 82.5l120 246q8 13 22 24t24 11q12 0 12 -18q-4 -61 -18.5 -212t-16.5 -222q35 86 107 241q15 33 22 48t25.5 50.5 t33 54.5t35 42.5t42 34.5t43.5 11q36 0 65.5 -26t29.5 -61q0 -8 -10 -13.5t-20 -5.5q-12 0 -12 6q0 33 -16.5 60t-43.5 27q-22 0 -47 -19q-10 -8 -21.5 -21.5t-23.5 -33t-22 -36.5t-23 -43.5t-19.5 -40.5t-19 -40t-15.5 -32q-22 -46 -52.5 -121t-47 -107t-29.5 -32 q-17 0 -17 40q0 62 17.5 196.5t17.5 211.5q0 23 -6 23q-2 0 -10 -12q-29 -52 -106.5 -221t-95.5 -202q-43 -80 -82 -80q-28 0 -28 41zM434 590q0 2 6 10l11 14q11 14 15 18t14 13.5t19 13t19 3.5q13 0 23 -16t22.5 -32.5t30.5 -16.5q14 0 25.5 15t11.5 31v7q0 8 4 8t4 -16 q0 -19 -16 -38.5t-38 -19.5q-20 0 -29.5 7.5t-21.5 25.5q-18 27 -28 27q-9 0 -18.5 -5.5t-14.5 -10.5t-15.5 -17.5t-12.5 -14.5q-8 -10 -9 -10q-2 0 -2 4z" />
<glyph unicode="&#xd2;" horiz-adv-x="444" d="M78 86q0 67 41 157q57 125 144.5 202.5t173.5 77.5q31 0 56.5 -26t25.5 -74q0 -18 -20 -18q-9 0 -17 4t-8 9q0 2 1.5 10.5t1.5 12.5q0 30 -17 47t-46 17q-74 0 -142.5 -65.5t-118.5 -173.5q-36 -78 -36 -155q0 -58 24 -94t69 -36q79 0 159.5 68.5t128.5 182.5 q36 84 36 160q0 49 -16 97q0 6 5 21t12 15q9 0 15 -42.5t6 -68.5q0 -89 -40 -177q-58 -129 -146.5 -212t-173.5 -83q-56 0 -87 38.5t-31 105.5zM391 661q0 19 10 19q5 0 7 -5l43 -104q0 -1 1.5 -3.5t2.5 -5.5l1 -2q0 -1 -1 -1q-5 0 -7 4q-10 17 -21.5 36.5t-19 31.5 t-15.5 24q-1 1 -1 6z" />
<glyph unicode="&#xd3;" horiz-adv-x="444" d="M78 86q0 67 41 157q57 125 144.5 202.5t173.5 77.5q31 0 56.5 -26t25.5 -74q0 -18 -20 -18q-9 0 -17 4t-8 9q0 2 1.5 10.5t1.5 12.5q0 30 -17 47t-46 17q-74 0 -142.5 -65.5t-118.5 -173.5q-36 -78 -36 -155q0 -58 24 -94t69 -36q79 0 159.5 68.5t128.5 182.5 q36 84 36 160q0 49 -16 97q0 6 5 21t12 15q9 0 15 -42.5t6 -68.5q0 -89 -40 -177q-58 -129 -146.5 -212t-173.5 -83q-56 0 -87 38.5t-31 105.5zM428 562l5 3l125 73q4 3 8 3q2 0 2 -4q0 -14 -10 -18q-20 -9 -56.5 -25.5t-64.5 -30.5q-4 -2 -6 -2q-3 0 -3 1z" />
<glyph unicode="&#xd4;" horiz-adv-x="444" d="M78 86q0 67 41 157q57 125 144.5 202.5t173.5 77.5q31 0 56.5 -26t25.5 -74q0 -18 -20 -18q-9 0 -17 4t-8 9q0 2 1.5 10.5t1.5 12.5q0 30 -17 47t-46 17q-74 0 -142.5 -65.5t-118.5 -173.5q-36 -78 -36 -155q0 -58 24 -94t69 -36q79 0 159.5 68.5t128.5 182.5 q36 84 36 160q0 49 -16 97q0 6 5 21t12 15q9 0 15 -42.5t6 -68.5q0 -89 -40 -177q-58 -129 -146.5 -212t-173.5 -83q-56 0 -87 38.5t-31 105.5zM398 572q0 1 2 2l2 1q18 15 56 53l52 52q6 6 13 6q2 0 2 -1q1 -7 2.5 -39.5t3.5 -48.5q0 -2 0.5 -7t0.5 -7q0 -5 -1.5 -7.5 t-5 -6t-4.5 -5.5l-2 -2l-5 -6q-4 0 -4 10q0 97 -3 97t-9 -6q-39 -35 -81 -82q-4 -4 -18 -4z" />
<glyph unicode="&#xd5;" horiz-adv-x="444" d="M78 86q0 67 41 157q57 125 144.5 202.5t173.5 77.5q31 0 56.5 -26t25.5 -74q0 -18 -20 -18q-9 0 -17 4t-8 9q0 2 1.5 10.5t1.5 12.5q0 30 -17 47t-46 17q-74 0 -142.5 -65.5t-118.5 -173.5q-36 -78 -36 -155q0 -58 24 -94t69 -36q79 0 159.5 68.5t128.5 182.5 q36 84 36 160q0 49 -16 97q0 6 5 21t12 15q9 0 15 -42.5t6 -68.5q0 -89 -40 -177q-58 -129 -146.5 -212t-173.5 -83q-56 0 -87 38.5t-31 105.5zM377 590q0 2 6 10l11 14q11 14 15 18t14 13.5t19 13t19 3.5q13 0 23 -16t22.5 -32.5t30.5 -16.5q14 0 25.5 15t11.5 31v7 q0 8 4 8t4 -16q0 -19 -16 -38.5t-38 -19.5q-20 0 -29.5 7.5t-21.5 25.5q-18 27 -28 27q-9 0 -18.5 -5.5t-14.5 -10.5t-15.5 -17.5t-12.5 -14.5q-8 -10 -9 -10q-2 0 -2 4z" />
<glyph unicode="&#xd6;" horiz-adv-x="444" d="M78 86q0 67 41 157q57 125 144.5 202.5t173.5 77.5q31 0 56.5 -26t25.5 -74q0 -18 -20 -18q-9 0 -17 4t-8 9q0 2 1.5 10.5t1.5 12.5q0 30 -17 47t-46 17q-74 0 -142.5 -65.5t-118.5 -173.5q-36 -78 -36 -155q0 -58 24 -94t69 -36q79 0 159.5 68.5t128.5 182.5 q36 84 36 160q0 49 -16 97q0 6 5 21t12 15q9 0 15 -42.5t6 -68.5q0 -89 -40 -177q-58 -129 -146.5 -212t-173.5 -83q-56 0 -87 38.5t-31 105.5zM428 596q0 11 10 23t21 12q6 0 10.5 -5.5t4.5 -12.5q0 -12 -9 -23.5t-21 -11.5q-16 0 -16 18zM491 590q0 11 10 23t21 12 q6 0 10.5 -5.5t4.5 -12.5q0 -12 -9 -23.5t-21 -11.5q-16 0 -16 18z" />
<glyph unicode="&#xd7;" horiz-adv-x="400" d="M135 257q0 1 1 2.5t2.5 2.5l3 2t3 2.5l2.5 2.5q6 6 9 6t6 -3q8 -9 54 -57t59 -61q16 14 31 29.5t31.5 32.5t24.5 25q3 3 8 9t8 8.5t8.5 5t11.5 2.5q15 0 15 -8q0 -2 -2 -4q-22 -18 -66 -59.5t-59 -54.5q8 -10 61 -62.5t58 -58.5q3 -4 3 -7q0 -5 -8 -5q-6 0 -12 2 q-5 1 -13 8.5t-21.5 21t-23.5 22.5q-6 5 -31.5 29t-32.5 32q-22 -18 -58 -53t-48 -46q-11 -11 -22 -11q-2 0 -2 1q0 2 3 5l82 84l10.5 10.5t13.5 13t9 9.5q-7 8 -50 48.5t-62 63.5q-7 7 -7 10z" />
<glyph unicode="&#xd8;" horiz-adv-x="444" d="M30 -36q0 4 6 10l52 44q-10 29 -10 68q0 67 41 157q57 125 144.5 202.5t173.5 77.5q31 0 56.5 -26t25.5 -74q0 -18 -20 -18q-9 0 -17 4t-8 9q0 2 1.5 10.5t1.5 12.5q0 30 -17 47t-46 17q-74 0 -142.5 -65.5t-118.5 -173.5q-36 -78 -36 -155q0 -37 8 -61q228 200 407 371 q-3 33 -14 68q0 6 5 21t12 15q14 0 19 -82l47 45q11 11 19 11t8 -5q0 -2 -1 -3l-71 -70v-7q0 -89 -40 -177q-58 -129 -146.5 -212t-173.5 -83q-72 0 -102 61q-11 -9 -32 -30q-11 -11 -29 -11q-3 0 -3 2zM130 36q24 -55 80 -55q79 0 159.5 68.5t128.5 182.5q36 84 36 160v8 q-77 -73 -223.5 -203.5t-180.5 -160.5z" />
<glyph unicode="&#xd9;" horiz-adv-x="693" d="M237 -1q0 15 3.5 31.5t11.5 36t13 30.5t16.5 34l13.5 27q5 10 21 43.5t24.5 50.5t23.5 48.5t23 51.5t17.5 43.5t13.5 40t4 27.5q0 21 -10 32.5t-27 11.5q-15 0 -32 -8.5t-27 -16.5l-9 -9q-3 -1 -6 -3.5t-4 -2.5q-2 0 -2 2q0 1 3 6q14 18 43.5 33.5t57.5 15.5 q25 0 39.5 -16t14.5 -40q0 -10 -3 -21q-9 -40 -79.5 -175.5t-80.5 -160.5q-25 -64 -25 -85q0 -27 18.5 -44t47.5 -17q56 0 129 60.5t116 123.5l82 171q9 18 20.5 41.5t16 33t11 20.5t12.5 19q14 19 25 23q6 2 15 2q4 0 4 -5q-1 -21 -52.5 -111t-74.5 -122q-6 -13 -21.5 -43 t-21.5 -42t-15 -35t-15 -46q-10 -35 -10 -63q0 -50 42 -50q45 0 75 40q5 6 14 6q7 0 7 -3q0 -1 -1 -2q-49 -49 -109 -49q-53 0 -53 55q0 42 31 113q-30 -34 -53.5 -56.5t-59 -51t-72.5 -43t-75 -14.5q-30 0 -50.5 16t-20.5 46zM547 661q0 19 10 19q5 0 7 -5l43 -104 q0 -1 1.5 -3.5t2.5 -5.5l1 -2q0 -1 -1 -1q-5 0 -7 4q-10 17 -21.5 36.5t-19 31.5t-15.5 24q-1 1 -1 6z" />
<glyph unicode="&#xda;" horiz-adv-x="693" d="M237 -1q0 15 3.5 31.5t11.5 36t13 30.5t16.5 34l13.5 27q5 10 21 43.5t24.5 50.5t23.5 48.5t23 51.5t17.5 43.5t13.5 40t4 27.5q0 21 -10 32.5t-27 11.5q-15 0 -32 -8.5t-27 -16.5l-9 -9q-3 -1 -6 -3.5t-4 -2.5q-2 0 -2 2q0 1 3 6q14 18 43.5 33.5t57.5 15.5 q25 0 39.5 -16t14.5 -40q0 -10 -3 -21q-9 -40 -79.5 -175.5t-80.5 -160.5q-25 -64 -25 -85q0 -27 18.5 -44t47.5 -17q56 0 129 60.5t116 123.5l82 171q9 18 20.5 41.5t16 33t11 20.5t12.5 19q14 19 25 23q6 2 15 2q4 0 4 -5q-1 -21 -52.5 -111t-74.5 -122q-6 -13 -21.5 -43 t-21.5 -42t-15 -35t-15 -46q-10 -35 -10 -63q0 -50 42 -50q45 0 75 40q5 6 14 6q7 0 7 -3q0 -1 -1 -2q-49 -49 -109 -49q-53 0 -53 55q0 42 31 113q-30 -34 -53.5 -56.5t-59 -51t-72.5 -43t-75 -14.5q-30 0 -50.5 16t-20.5 46zM584 562l5 3l125 73q4 3 8 3q2 0 2 -4 q0 -14 -10 -18q-20 -9 -56.5 -25.5t-64.5 -30.5q-4 -2 -6 -2q-3 0 -3 1z" />
<glyph unicode="&#xdb;" horiz-adv-x="693" d="M237 -1q0 15 3.5 31.5t11.5 36t13 30.5t16.5 34l13.5 27q5 10 21 43.5t24.5 50.5t23.5 48.5t23 51.5t17.5 43.5t13.5 40t4 27.5q0 21 -10 32.5t-27 11.5q-15 0 -32 -8.5t-27 -16.5l-9 -9q-3 -1 -6 -3.5t-4 -2.5q-2 0 -2 2q0 1 3 6q14 18 43.5 33.5t57.5 15.5 q25 0 39.5 -16t14.5 -40q0 -10 -3 -21q-9 -40 -79.5 -175.5t-80.5 -160.5q-25 -64 -25 -85q0 -27 18.5 -44t47.5 -17q56 0 129 60.5t116 123.5l82 171q9 18 20.5 41.5t16 33t11 20.5t12.5 19q14 19 25 23q6 2 15 2q4 0 4 -5q-1 -21 -52.5 -111t-74.5 -122q-6 -13 -21.5 -43 t-21.5 -42t-15 -35t-15 -46q-10 -35 -10 -63q0 -50 42 -50q45 0 75 40q5 6 14 6q7 0 7 -3q0 -1 -1 -2q-49 -49 -109 -49q-53 0 -53 55q0 42 31 113q-30 -34 -53.5 -56.5t-59 -51t-72.5 -43t-75 -14.5q-30 0 -50.5 16t-20.5 46zM554 572q0 1 2 2l2 1q18 15 56 53q6 6 16 15.5 t18.5 18t17.5 18.5q6 6 13 6q2 0 2 -1q1 -7 2.5 -39.5t3.5 -48.5q0 -2 0.5 -7t0.5 -7q0 -5 -1.5 -7.5t-5 -6t-4.5 -5.5l-2 -2l-5 -6q-4 0 -4 10q0 97 -3 97t-9 -6q-39 -35 -81 -82q-4 -4 -18 -4z" />
<glyph unicode="&#xdc;" horiz-adv-x="693" d="M237 -1q0 15 3.5 31.5t11.5 36t13 30.5t16.5 34l13.5 27q5 10 21 43.5t24.5 50.5t23.5 48.5t23 51.5t17.5 43.5t13.5 40t4 27.5q0 21 -10 32.5t-27 11.5q-15 0 -32 -8.5t-27 -16.5l-9 -9q-3 -1 -6 -3.5t-4 -2.5q-2 0 -2 2q0 1 3 6q14 18 43.5 33.5t57.5 15.5 q25 0 39.5 -16t14.5 -40q0 -10 -3 -21q-9 -40 -79.5 -175.5t-80.5 -160.5q-25 -64 -25 -85q0 -27 18.5 -44t47.5 -17q56 0 129 60.5t116 123.5l82 171q9 18 20.5 41.5t16 33t11 20.5t12.5 19q14 19 25 23q6 2 15 2q4 0 4 -5q-1 -21 -52.5 -111t-74.5 -122q-6 -13 -21.5 -43 t-21.5 -42t-15 -35t-15 -46q-10 -35 -10 -63q0 -50 42 -50q45 0 75 40q5 6 14 6q7 0 7 -3q0 -1 -1 -2q-49 -49 -109 -49q-53 0 -53 55q0 42 31 113q-30 -34 -53.5 -56.5t-59 -51t-72.5 -43t-75 -14.5q-30 0 -50.5 16t-20.5 46zM584 596q0 11 10 23t21 12q6 0 10.5 -5.5 t4.5 -12.5q0 -12 -9 -23.5t-21 -11.5q-16 0 -16 18zM647 590q0 11 10 23t21 12q6 0 10.5 -5.5t4.5 -12.5q0 -12 -9 -23.5t-21 -11.5q-16 0 -16 18z" />
<glyph unicode="&#xdd;" horiz-adv-x="559" d="M-45 -415q0 24 10 49t23 44t38.5 42t42.5 36.5t50 34t46 28t44 25.5l169 99l32 63q4 9 26.5 50t24.5 46q-30 -34 -53.5 -56.5t-59 -51t-72.5 -43t-75 -14.5q-30 0 -50.5 16t-20.5 46q0 15 3.5 31.5t11.5 36t13 30.5t16.5 34l13.5 27q5 10 21 43.5t24.5 50.5t23.5 48.5 t23 51.5t17.5 43.5t13.5 40t4 27.5q0 21 -10 32.5t-27 11.5q-15 0 -32 -8.5t-26 -16.5l-10 -9q-3 -1 -6 -3.5t-4 -2.5q-2 0 -2 2q0 1 3 6q14 18 43.5 33.5t57.5 15.5q25 0 39.5 -16t14.5 -40q0 -10 -3 -21q-9 -40 -79.5 -175.5t-80.5 -160.5q-25 -64 -25 -85q0 -27 18.5 -44 t47.5 -17q56 0 129 60.5t116 123.5l82 171q9 18 20.5 41.5t16 33t11 20.5t12.5 19q14 19 25 23q6 2 15 2q4 0 4 -5q-1 -21 -52.5 -111t-74.5 -122q-5 -11 -39 -80.5t-53 -102.5l-42 -80q59 34 83 46q72 37 107 67q33 29 49 53q2 3 4 3t2 -2q0 -1 -1 -3q-51 -68 -140 -117 l-111 -63q-62 -123 -132 -241q-25 -42 -55.5 -79t-79 -71t-94.5 -34q-41 0 -61 18.5t-20 49.5zM2 -419q0 -49 46 -49q102 0 191 165q36 65 73 129t58 102l-148 -89q-35 -22 -68 -47t-70 -59.5t-59.5 -74.5t-22.5 -77zM484 562l5 3l125 73q4 3 8 3q2 0 2 -4q0 -14 -10 -18 q-20 -9 -56.5 -25.5t-64.5 -30.5q-4 -2 -6 -2q-3 0 -3 1z" />
<glyph unicode="&#xde;" horiz-adv-x="537" d="M57 -112q0 1 4 5.5t8.5 11t6.5 9.5l32 59q233 451 233 506q0 22 -30 22q-19 0 -49 -22q-4 -3 -6 -3t-2 3q0 5 23 19q32 22 65 22q15 0 28.5 -10.5t13.5 -30.5q0 -8 -2.5 -17.5t-9 -23t-10.5 -21t-13.5 -24.5t-10.5 -19q54 14 88 14q55 0 102.5 -33t47.5 -89 q0 -52 -41 -102q-58 -68 -146 -87q-32 -7 -72 -7q-47 0 -87 10q-8 1 -8 5q0 6 14 6q1 0 26.5 -3t39.5 -3q102 0 163 50q29 23 49 61.5t20 70.5q0 44 -35.5 77t-82.5 33q-29 0 -63 -14q-7 -3 -18.5 -13t-15.5 -16q-37 -62 -100 -188.5t-94 -180.5q-24 -44 -46 -64 q-14 -14 -21 -14q-1 0 -1 1z" />
<glyph unicode="&#xdf;" horiz-adv-x="330" d="M-410 -397q0 20 11 34.5t27 14.5q8 0 8 -5l-2 -4q-15 -23 -15 -43q0 -19 15 -28t38 -9q35 0 87 39q49 37 108.5 126.5t100.5 171.5q147 283 166 317q-12 4 -21 4q-6 0 -13 -2.5t-11.5 -5.5t-12 -8.5t-10.5 -7.5q-2 -1 -4 -1t-2 2t18 14q1 0 9 6t11.5 8t11 4.5t14.5 2.5 q8 0 17 -3q67 119 111 185q61 90 136 143q35 24 57 24q21 0 21 -23q0 -65 -96 -159l-34 -28q-34 -28 -53.5 -53.5t-19.5 -49.5q0 -8 4.5 -14t9.5 -9t15 -7t14 -6q27 -14 33 -28q9 -20 9 -38q0 -59 -71 -122q-68 -59 -119 -59q-20 0 -43.5 8t-24.5 21q0 7 13 24.5t18 17.5 q1 0 1 -2q0 -1 -0.5 -5t-0.5 -8q0 -20 11 -34t31 -14q42 0 98 65q45 52 45 101q0 31 -16 43q-9 7 -26.5 13t-27 12.5t-9.5 18.5q0 19 16.5 43.5t35 41t42 36.5t27.5 24q78 76 78 135q0 27 -19 27q-8 0 -18.5 -5.5t-21.5 -16.5t-20.5 -21.5t-21.5 -27t-18.5 -25t-17 -24.5 t-11.5 -17q-54 -79 -158 -292q-40 -82 -135 -250q-46 -81 -104.5 -161t-108.5 -118q-63 -48 -121 -48q-23 0 -42 16t-19 39z" />
<glyph unicode="&#xe0;" horiz-adv-x="322" d="M46 51q0 58 58 119t117 61q47 0 65 -52q12 0 12 -7q0 -12 -3.5 -23t-12 -22.5t-14.5 -17.5t-18 -17.5t-15 -14.5q-16 -30 -16 -43q0 -21 32 -21q35 0 84.5 40t70.5 71q2 3 4 3t2 -2q0 -1 -1 -3q-49 -65 -116 -104q-42 -24 -74 -24q-40 0 -40 32q0 6 1 9q-54 -35 -93 -35 q-43 0 -43 51zM87 52q0 -35 27 -35t70 28q11 39 42 81q31 44 55 52q-16 41 -58 41q-48 0 -92 -57.5t-44 -109.5zM167 371q0 19 10 19q5 0 7 -5l43 -104q0 -1 1.5 -3.5t2.5 -5.5l1 -2q0 -1 -1 -1q-5 0 -7 4q-10 17 -21.5 36.5t-19 31.5t-15.5 24q-1 1 -1 6zM242 91l9 9 q41 43 41 68q0 6 -1 6t-3 -2q2 -6 2 -11q0 -1 -1 -1l-4 8q-5 -7 -43 -77z" />
<glyph unicode="&#xe1;" horiz-adv-x="322" d="M46 51q0 58 58 119t117 61q47 0 65 -52q12 0 12 -7q0 -12 -3.5 -23t-12 -22.5t-14.5 -17.5t-18 -17.5t-15 -14.5q-16 -30 -16 -43q0 -21 32 -21q35 0 84.5 40t70.5 71q2 3 4 3t2 -2q0 -1 -1 -3q-49 -65 -116 -104q-42 -24 -74 -24q-40 0 -40 32q0 6 1 9q-54 -35 -93 -35 q-43 0 -43 51zM87 52q0 -35 27 -35t70 28q11 39 42 81q31 44 55 52q-16 41 -58 41q-48 0 -92 -57.5t-44 -109.5zM204 272l5 3l125 73q4 3 8 3q2 0 2 -4q0 -14 -10 -18q-20 -9 -56.5 -25.5t-64.5 -30.5q-4 -2 -6 -2q-3 0 -3 1zM242 91l9 9q41 43 41 68q0 6 -1 6t-3 -2 q2 -6 2 -11q0 -1 -1 -1l-4 8q-5 -7 -43 -77z" />
<glyph unicode="&#xe2;" horiz-adv-x="322" d="M46 51q0 58 58 119t117 61q47 0 65 -52q12 0 12 -7q0 -12 -3.5 -23t-12 -22.5t-14.5 -17.5t-18 -17.5t-15 -14.5q-16 -30 -16 -43q0 -21 32 -21q35 0 84.5 40t70.5 71q2 3 4 3t2 -2q0 -1 -1 -3q-49 -65 -116 -104q-42 -24 -74 -24q-40 0 -40 32q0 6 1 9q-54 -35 -93 -35 q-43 0 -43 51zM87 52q0 -35 27 -35t70 28q11 39 42 81q31 44 55 52q-16 41 -58 41q-48 0 -92 -57.5t-44 -109.5zM174 282q0 1 2 2l2 1q18 15 56 53l52 52q6 6 13 6q2 0 2 -1q1 -7 2.5 -39.5t3.5 -48.5q0 -2 0.5 -7t0.5 -7q0 -5 -1.5 -7.5t-5 -6t-4.5 -5.5l-2 -2q-4 -6 -5 -6 q-4 0 -4 10q0 97 -3 97t-9 -6q-39 -35 -81 -82q-4 -4 -18 -4zM242 91l9 9q41 43 41 68q0 6 -1 6t-3 -2q2 -6 2 -11q0 -1 -1 -1l-4 8q-5 -7 -43 -77z" />
<glyph unicode="&#xe3;" horiz-adv-x="322" d="M46 51q0 58 58 119t117 61q47 0 65 -52q12 0 12 -7q0 -12 -3.5 -23t-12 -22.5t-14.5 -17.5t-18 -17.5t-15 -14.5q-16 -30 -16 -43q0 -21 32 -21q35 0 84.5 40t70.5 71q2 3 4 3t2 -2q0 -1 -1 -3q-49 -65 -116 -104q-42 -24 -74 -24q-40 0 -40 32q0 6 1 9q-54 -35 -93 -35 q-43 0 -43 51zM87 52q0 -35 27 -35t70 28q11 39 42 81q31 44 55 52q-16 41 -58 41q-48 0 -92 -57.5t-44 -109.5zM153 300q0 2 6 10l11 14q11 14 15 18t14 13.5t19 13t19 3.5q13 0 23 -16t22.5 -32.5t30.5 -16.5q14 0 25.5 15t11.5 31v7q0 8 4 8t4 -16q0 -19 -16 -38.5 t-38 -19.5q-20 0 -29.5 7.5t-21.5 25.5q-18 27 -28 27q-9 0 -18.5 -5.5t-14.5 -10.5t-15.5 -17.5t-12.5 -14.5q-8 -10 -9 -10q-2 0 -2 4zM242 91l9 9q41 43 41 68q0 6 -1 6t-3 -2q2 -6 2 -11q0 -1 -1 -1l-4 8q-5 -7 -43 -77z" />
<glyph unicode="&#xe4;" horiz-adv-x="322" d="M46 51q0 58 58 119t117 61q47 0 65 -52q12 0 12 -7q0 -12 -3.5 -23t-12 -22.5t-14.5 -17.5t-18 -17.5t-15 -14.5q-16 -30 -16 -43q0 -21 32 -21q35 0 84.5 40t70.5 71q2 3 4 3t2 -2q0 -1 -1 -3q-49 -65 -116 -104q-42 -24 -74 -24q-40 0 -40 32q0 6 1 9q-54 -35 -93 -35 q-43 0 -43 51zM87 52q0 -35 27 -35t70 28q11 39 42 81q31 44 55 52q-16 41 -58 41q-48 0 -92 -57.5t-44 -109.5zM204 306q0 11 10 23t21 12q6 0 10.5 -5.5t4.5 -12.5q0 -12 -9 -23.5t-21 -11.5q-16 0 -16 18zM242 91l9 9q41 43 41 68q0 6 -1 6t-3 -2q2 -6 2 -11q0 -1 -1 -1 l-4 8q-5 -7 -43 -77zM267 300q0 11 10 23t21 12q6 0 10.5 -5.5t4.5 -12.5q0 -12 -9 -23.5t-21 -11.5q-16 0 -16 18z" />
<glyph unicode="&#xe5;" horiz-adv-x="322" d="M46 51q0 58 58 119t117 61q47 0 65 -52q12 0 12 -7q0 -12 -3.5 -23t-12 -22.5t-14.5 -17.5t-18 -17.5t-15 -14.5q-16 -30 -16 -43q0 -21 32 -21q35 0 84.5 40t70.5 71q2 3 4 3t2 -2q0 -1 -1 -3q-49 -65 -116 -104q-42 -24 -74 -24q-40 0 -40 32q0 6 1 9q-54 -35 -93 -35 q-43 0 -43 51zM87 52q0 -35 27 -35t70 28q11 39 42 81q31 44 55 52q-16 41 -58 41q-48 0 -92 -57.5t-44 -109.5zM223 328q0 23 18 40t42 17q16 0 26.5 -9.5t10.5 -24.5q0 -22 -17.5 -39.5t-40.5 -17.5q-17 0 -28 9.5t-11 24.5zM240 334q0 -11 8.5 -20t19.5 -9q14 0 24 10.5 t10 26.5q0 11 -8 21t-21 10q-14 0 -23.5 -11.5t-9.5 -27.5zM242 91l9 9q41 43 41 68q0 6 -1 6t-3 -2q2 -6 2 -11q0 -1 -1 -1l-4 8q-5 -7 -43 -77z" />
<glyph unicode="&#xe6;" horiz-adv-x="384" d="M46 52q0 30 22 72q21 40 69 73.5t84 33.5q42 0 61 -41q17 16 43 31q19 11 36 11q8 0 14 -3t9 -7t3 -9q0 -4 -1.5 -7.5t-3.5 -6.5t-6 -6.5t-7 -6t-7.5 -6t-6.5 -5.5q-7 -7 -107 -78q-6 -20 -6 -41q0 -51 46 -51q44 0 99.5 40.5t80.5 78.5q2 3 4 3t2 -2q0 -1 -1 -3 q-55 -72 -134 -112q-38 -18 -77 -18q-29 0 -46.5 13t-17.5 39q0 5 2 17q-21 -18 -33 -27.5t-36 -21.5t-45 -12q-40 0 -40 52zM88 50q0 -32 27 -32q15 0 30 9q9 5 18.5 12t22 17.5t17.5 14.5q23 69 74 115q-16 33 -54 33q-31 0 -66.5 -32.5t-52.5 -66.5q-16 -33 -16 -70z M252 108q68 49 89 70q28 28 28 42q0 6 -6 6q-18 0 -42.5 -22t-42 -48.5t-26.5 -47.5z" />
<glyph unicode="&#xe7;" d="M28 -104q0 5 9 5q3 0 3 -2q8 -30 35 -30q19 0 31 9.5t12 25.5q0 35 -56 35q-1 0 -3 -1.5t-3 -1.5q-7 0 -7 1l5 7q6 6 16 20l20 28q-60 4 -60 48q0 49 39.5 100.5t88.5 80.5q23 13 42 13q32 0 32 -29q0 -16 -11 -26.5t-28 -10.5q-9 0 -9 5q0 1 8.5 15t8.5 24q0 9 -11 9 q-28 0 -54.5 -31t-44.5 -68q-16 -32 -16 -67q0 -50 50 -50q51 0 127 66q33 29 49 53q2 3 4 3t2 -2q0 -1 -1 -3q-55 -72 -134 -112q-33 -16 -72 -18q-1 -2 -10 -16t-11 -17q53 0 53 -43q0 -21 -17.5 -37t-39.5 -16q-32 0 -44 25q-3 6 -3 8z" />
<glyph unicode="&#xe8;" d="M13 50q0 4 23 21q30 95 122 150q21 12 36 12q12 0 19 -6t7 -14q0 -4 -1.5 -8t-6 -8.5l-7 -7t-9.5 -8t-8 -6.5q-7 -7 -107 -78q-6 -19 -6 -41q0 -51 46 -51q44 0 99.5 40.5t80.5 78.5q2 3 4 3t2 -2q0 -1 -1 -3q-55 -72 -134 -112q-38 -18 -76 -18q-66 0 -66 47q0 7 4 25 q-3 -2 -8 -6t-8 -7l-4 -3q-1 0 -1 2zM85 108q68 49 89 70q28 28 28 42q0 6 -6 6t-14 -4q-30 -13 -57 -46t-40 -68zM128 371q0 19 10 19q4 0 7 -5l43 -104q0 -1 1.5 -3.5t2.5 -5.5l1 -2q0 -1 -1 -1q-5 0 -7 4q-10 17 -21.5 36.5t-19 31.5t-15.5 24q-1 1 -1 6z" />
<glyph unicode="&#xe9;" d="M13 50q0 4 23 21q30 95 122 150q21 12 36 12q12 0 19 -6t7 -14q0 -4 -1.5 -8t-6 -8.5l-7 -7t-9.5 -8t-8 -6.5q-7 -7 -107 -78q-6 -19 -6 -41q0 -51 46 -51q44 0 99.5 40.5t80.5 78.5q2 3 4 3t2 -2q0 -1 -1 -3q-55 -72 -134 -112q-38 -18 -76 -18q-66 0 -66 47q0 7 4 25 q-3 -2 -8 -6t-8 -7l-4 -3q-1 0 -1 2zM85 108q68 49 89 70q28 28 28 42q0 6 -6 6t-14 -4q-30 -13 -57 -46t-40 -68zM165 272l5 3l125 73q5 3 8 3q2 0 2 -4q0 -14 -10 -18q-20 -9 -56.5 -25.5t-64.5 -30.5q-4 -2 -6 -2q-3 0 -3 1z" />
<glyph unicode="&#xea;" d="M13 50q0 4 23 21q30 95 122 150q21 12 36 12q12 0 19 -6t7 -14q0 -4 -1.5 -8t-6 -8.5l-7 -7t-9.5 -8t-8 -6.5q-7 -7 -107 -78q-6 -19 -6 -41q0 -51 46 -51q44 0 99.5 40.5t80.5 78.5q2 3 4 3t2 -2q0 -1 -1 -3q-55 -72 -134 -112q-38 -18 -76 -18q-66 0 -66 47q0 7 4 25 q-3 -2 -8 -6t-8 -7l-4 -3q-1 0 -1 2zM85 108q68 49 89 70q28 28 28 42q0 6 -6 6t-14 -4q-30 -13 -57 -46t-40 -68zM135 282q0 1 2 2l2 1q18 15 56 53l52 52q6 6 13 6q2 0 2 -1q1 -7 2.5 -39.5t3.5 -48.5q0 -2 0.5 -7t0.5 -7q0 -5 -1.5 -7.5t-5 -6t-4.5 -5.5l-2 -2 q-4 -6 -5 -6q-4 0 -4 10q0 97 -3 97t-9 -6q-39 -35 -81 -82q-4 -4 -18 -4z" />
<glyph unicode="&#xeb;" d="M13 50q0 4 23 21q30 95 122 150q21 12 36 12q12 0 19 -6t7 -14q0 -4 -1.5 -8t-6 -8.5l-7 -7t-9.5 -8t-8 -6.5q-7 -7 -107 -78q-6 -19 -6 -41q0 -51 46 -51q44 0 99.5 40.5t80.5 78.5q2 3 4 3t2 -2q0 -1 -1 -3q-55 -72 -134 -112q-38 -18 -76 -18q-66 0 -66 47q0 7 4 25 q-3 -2 -8 -6t-8 -7l-4 -3q-1 0 -1 2zM85 108q68 49 89 70q28 28 28 42q0 6 -6 6t-14 -4q-30 -13 -57 -46t-40 -68zM165 306q0 11 10 23t21 12q6 0 10.5 -5.5t4.5 -12.5q0 -12 -9 -23.5t-21 -11.5q-16 0 -16 18zM228 300q0 11 10 23t21 12q6 0 10.5 -5.5t4.5 -12.5 q0 -12 -9 -23.5t-21 -11.5q-16 0 -16 18z" />
<glyph unicode="&#xec;" horiz-adv-x="187" d="M44 33q0 29 40 91q38 57 38 74q0 7 -6 11.5t-13 4.5q-11 0 -37 -17q-2 -1 -4 -1t-2 2t18 14q17 12 42 12q32 0 32 -28q0 -16 -34 -74.5t-34 -82.5q0 -26 35 -26q36 0 103 58q33 29 49 53q2 3 4 3t2 -2q0 -1 -1 -3q-49 -65 -116 -104q-38 -22 -70 -22q-21 0 -33.5 10 t-12.5 27zM93 373q0 19 10 19q5 0 7 -5l43 -104q0 -1 1.5 -3.5t2.5 -5.5l1 -2q0 -1 -1 -1q-5 0 -7 4l-56 92q-1 1 -1 6z" />
<glyph unicode="&#xed;" horiz-adv-x="187" d="M44 33q0 29 40 91q38 57 38 74q0 7 -6 11.5t-13 4.5q-11 0 -37 -17q-2 -1 -4 -1t-2 2t18 14q17 12 42 12q32 0 32 -28q0 -16 -34 -74.5t-34 -82.5q0 -26 35 -26q36 0 103 58q33 29 49 53q2 3 4 3t2 -2q0 -1 -1 -3q-49 -65 -116 -104q-38 -22 -70 -22q-21 0 -33.5 10 t-12.5 27zM130 274l5 3l125 73q4 3 8 3q2 0 2 -4q0 -14 -10 -18q-20 -9 -56.5 -25.5t-64.5 -30.5q-4 -2 -6 -2q-3 0 -3 1z" />
<glyph unicode="&#xee;" horiz-adv-x="187" d="M44 33q0 29 40 91q38 57 38 74q0 7 -6 11.5t-13 4.5q-11 0 -37 -17q-2 -1 -4 -1t-2 2t18 14q17 12 42 12q32 0 32 -28q0 -16 -34 -74.5t-34 -82.5q0 -26 35 -26q36 0 103 58q33 29 49 53q2 3 4 3t2 -2q0 -1 -1 -3q-49 -65 -116 -104q-38 -22 -70 -22q-21 0 -33.5 10 t-12.5 27zM100 284q0 1 2 2l2 1q18 15 56 53l52 52q6 6 13 6q2 0 2 -1q1 -7 2.5 -39.5t3.5 -48.5q0 -2 0.5 -7t0.5 -7q0 -5 -1.5 -7.5t-5 -6t-4.5 -5.5l-2 -2q-4 -6 -5 -6q-4 0 -4 10q0 97 -3 97t-9 -6q-39 -35 -81 -82q-4 -4 -18 -4z" />
<glyph unicode="&#xef;" horiz-adv-x="187" d="M44 33q0 29 40 91q38 57 38 74q0 7 -6 11.5t-13 4.5q-11 0 -37 -17q-2 -1 -4 -1t-2 2t18 14q17 12 42 12q32 0 32 -28q0 -16 -34 -74.5t-34 -82.5q0 -26 35 -26q36 0 103 58q33 29 49 53q2 3 4 3t2 -2q0 -1 -1 -3q-49 -65 -116 -104q-38 -22 -70 -22q-21 0 -33.5 10 t-12.5 27zM130 308q0 11 10 23t21 12q6 0 10.5 -5.5t4.5 -12.5q0 -12 -9 -23.5t-21 -11.5q-16 0 -16 18zM193 302q0 11 10 23t21 12q6 0 10.5 -5.5t4.5 -12.5q0 -12 -9 -23.5t-21 -11.5q-16 0 -16 18z" />
<glyph unicode="&#xf0;" horiz-adv-x="214" d="M34 43q0 55 51 108t109 62q6 1 14 1q4 0 22 -3q2 9 2 25q0 70 -41 138q-26 -10 -46 -26q-11 -7 -16 -7q-4 0 -7 3.5t-3 6.5q0 1 2 3q7 3 19.5 8.5t25 11.5t19.5 9q-12 18 -37 45t-34 27q-5 0 -5 1q0 2 4 4t7 2q4 0 9 -1q8 -2 31.5 -23t41.5 -46q30 14 70 30q1 1 5 1 q8 0 8 -3q0 -2 -6 -4q-32 -12 -69 -33q18 -33 25 -46.5t15.5 -43t8.5 -58.5q0 -71 -39 -137q-60 -103 -137 -103q-22 0 -35.5 12.5t-13.5 35.5zM73 40q0 -33 25 -33q19 0 42 15q56 36 77 118q9 31 9 53q0 13 -18 13q-30 0 -71 -38q-11 -10 -22.5 -26t-20.5 -33.5t-15 -36 t-6 -32.5z" />
<glyph unicode="&#xf1;" horiz-adv-x="290" d="M18 9q0 5 14 26q30 48 52 89q40 76 40 87q0 10 -11 10q-12 0 -47 -24q-2 -1 -4 -1t-2 2t18 14q30 20 51 20q24 0 24 -21q0 -19 -20 -55q53 37 82 53q34 17 50 17q17 0 17 -19q0 -28 -48 -113q-34 -60 -34 -81q0 -10 11 -10q38 0 109 64q44 43 54 57q2 3 4 3t2 -2 q0 -1 -1 -3q-50 -67 -123 -113q-42 -26 -65 -26q-25 0 -25 23q0 9 4.5 23t9 23.5t12 25t8.5 17.5q4 8 15.5 28.5t19.5 38t11 33.5q0 12 -7 12q-12 0 -38 -14q-12 -6 -41.5 -26.5t-32.5 -24.5q-1 -1 -7.5 -13t-12.5 -23l-6 -12l-35 -65q-14 -24 -20 -38q-2 -5 -6 -5 q-7 0 -14.5 8.5t-7.5 14.5zM150 300q0 2 6 10l11 14q11 14 15 18t14 13.5t19 13t19 3.5q13 0 23 -16t22.5 -32.5t30.5 -16.5q14 0 25.5 15t11.5 31v7q0 8 4 8t4 -16q0 -19 -16 -38.5t-38 -19.5q-20 0 -29.5 7.5t-21.5 25.5q-18 27 -28 27q-9 0 -18.5 -5.5t-14.5 -10.5 t-15.5 -17.5t-12.5 -14.5q-8 -10 -9 -10q-2 0 -2 4z" />
<glyph unicode="&#xf2;" horiz-adv-x="262" d="M31 42q0 65 50 121.5t114 57.5q1 13 7.5 25t18.5 12q13 0 20.5 -21.5t7.5 -44.5q0 -12 -3 -23q2 -1 10 -1q14 0 29 7.5t33 21t22 15.5q2 1 4 1t2 -2t-18 -14q-1 -1 -9.5 -6.5t-11 -7t-10.5 -6.5t-12.5 -6.5t-11.5 -4t-14 -4t-15 -1.5q-15 -57 -61.5 -113.5t-96.5 -56.5 q-24 0 -39.5 13t-15.5 38zM68 39q0 -14 7 -25t22 -11q43 0 91 65q34 46 47 94q-40 8 -40 47q-39 0 -68 -32t-44 -72q-15 -43 -15 -66zM163 371q0 19 10 19q5 0 7 -5l43 -104q0 -1 1.5 -3.5t2.5 -5.5l1 -2q0 -1 -1 -1q-5 0 -7 4q-10 17 -21.5 36.5t-19 31.5t-15.5 24 q-1 1 -1 6zM222 201q0 -18 16 -28q3 14 3 25q0 7 -3.5 23.5t-7.5 16.5q-8 0 -8 -22q9 -2 9 -10q0 -2 -2.5 -4t-3.5 -2h-1z" />
<glyph unicode="&#xf3;" horiz-adv-x="262" d="M31 42q0 65 50 121.5t114 57.5q1 13 7.5 25t18.5 12q13 0 20.5 -21.5t7.5 -44.5q0 -12 -3 -23q2 -1 10 -1q14 0 29 7.5t33 21t22 15.5q2 1 4 1t2 -2t-18 -14q-1 -1 -9.5 -6.5t-11 -7t-10.5 -6.5t-12.5 -6.5t-11.5 -4t-14 -4t-15 -1.5q-15 -57 -61.5 -113.5t-96.5 -56.5 q-24 0 -39.5 13t-15.5 38zM68 39q0 -14 7 -25t22 -11q43 0 91 65q34 46 47 94q-40 8 -40 47q-39 0 -68 -32t-44 -72q-15 -43 -15 -66zM200 272l5 3l125 73q4 3 8 3q2 0 2 -4q0 -14 -10 -18q-20 -9 -56.5 -25.5t-64.5 -30.5q-4 -2 -6 -2q-3 0 -3 1zM222 201q0 -18 16 -28 q3 14 3 25q0 7 -3.5 23.5t-7.5 16.5q-8 0 -8 -22q9 -2 9 -10q0 -2 -2.5 -4t-3.5 -2h-1z" />
<glyph unicode="&#xf4;" horiz-adv-x="262" d="M31 42q0 65 50 121.5t114 57.5q1 13 7.5 25t18.5 12q13 0 20.5 -21.5t7.5 -44.5q0 -12 -3 -23q2 -1 10 -1q14 0 29 7.5t33 21t22 15.5q2 1 4 1t2 -2t-18 -14q-1 -1 -9.5 -6.5t-11 -7t-10.5 -6.5t-12.5 -6.5t-11.5 -4t-14 -4t-15 -1.5q-15 -57 -61.5 -113.5t-96.5 -56.5 q-24 0 -39.5 13t-15.5 38zM68 39q0 -14 7 -25t22 -11q43 0 91 65q34 46 47 94q-40 8 -40 47q-39 0 -68 -32t-44 -72q-15 -43 -15 -66zM170 282q0 1 2 2l2 1q18 15 56 53l52 52q6 6 13 6q2 0 2 -1q1 -7 2.5 -39.5t3.5 -48.5q0 -2 0.5 -7t0.5 -7q0 -5 -1.5 -7.5t-5 -6 t-4.5 -5.5l-2 -2q-4 -6 -5 -6q-4 0 -4 10q0 97 -3 97t-9 -6q-39 -35 -81 -82q-4 -4 -18 -4zM222 201q0 -18 16 -28q3 14 3 25q0 7 -3.5 23.5t-7.5 16.5q-8 0 -8 -22q9 -2 9 -10q0 -2 -2.5 -4t-3.5 -2h-1z" />
<glyph unicode="&#xf5;" horiz-adv-x="262" d="M31 42q0 65 50 121.5t114 57.5q1 13 7.5 25t18.5 12q13 0 20.5 -21.5t7.5 -44.5q0 -12 -3 -23q2 -1 10 -1q14 0 29 7.5t33 21t22 15.5q2 1 4 1t2 -2t-18 -14q-1 -1 -9.5 -6.5t-11 -7t-10.5 -6.5t-12.5 -6.5t-11.5 -4t-14 -4t-15 -1.5q-15 -57 -61.5 -113.5t-96.5 -56.5 q-24 0 -39.5 13t-15.5 38zM68 39q0 -14 7 -25t22 -11q43 0 91 65q34 46 47 94q-40 8 -40 47q-39 0 -68 -32t-44 -72q-15 -43 -15 -66zM149 300q0 2 6 10l11 14q11 14 15 18t14 13.5t19 13t19 3.5q13 0 23 -16t22.5 -32.5t30.5 -16.5q14 0 25.5 15t11.5 31v7q0 8 4 8t4 -16 q0 -19 -16 -38.5t-38 -19.5q-20 0 -29.5 7.5t-21.5 25.5q-18 27 -28 27q-9 0 -18.5 -5.5t-14.5 -10.5t-15.5 -17.5t-12.5 -14.5q-8 -10 -9 -10q-2 0 -2 4zM222 201q0 -18 16 -28q3 14 3 25q0 7 -3.5 23.5t-7.5 16.5q-8 0 -8 -22q9 -2 9 -10q0 -2 -2.5 -4t-3.5 -2h-1z" />
<glyph unicode="&#xf6;" horiz-adv-x="262" d="M31 42q0 65 50 121.5t114 57.5q1 13 7.5 25t18.5 12q13 0 20.5 -21.5t7.5 -44.5q0 -12 -3 -23q2 -1 10 -1q14 0 29 7.5t33 21t22 15.5q2 1 4 1t2 -2t-18 -14q-1 -1 -9.5 -6.5t-11 -7t-10.5 -6.5t-12.5 -6.5t-11.5 -4t-14 -4t-15 -1.5q-15 -57 -61.5 -113.5t-96.5 -56.5 q-24 0 -39.5 13t-15.5 38zM68 39q0 -14 7 -25t22 -11q43 0 91 65q34 46 47 94q-40 8 -40 47q-39 0 -68 -32t-44 -72q-15 -43 -15 -66zM200 306q0 11 10 23t21 12q6 0 10.5 -5.5t4.5 -12.5q0 -12 -9 -23.5t-21 -11.5q-16 0 -16 18zM222 201q0 -18 16 -28q3 14 3 25 q0 7 -3.5 23.5t-7.5 16.5q-8 0 -8 -22q9 -2 9 -10q0 -2 -2.5 -4t-3.5 -2h-1zM263 300q0 11 10 23t21 12q6 0 10.5 -5.5t4.5 -12.5q0 -12 -9 -23.5t-21 -11.5q-16 0 -16 18z" />
<glyph unicode="&#xf7;" horiz-adv-x="400" d="M92 129q0 5 10 11.5t18 6.5q96 2 116 2q11 0 67 -1t119 -1q6 0 6 -8q0 -20 -69 -20q-2 0 -34.5 1.5t-71.5 3t-56 1.5q-11 0 -39 -0.5t-56 -0.5q-10 0 -10 5zM160 12q0 10 6.5 21t17 18.5t21.5 7.5q19 0 19 -20q0 -16 -13.5 -31.5t-30.5 -15.5q-9 0 -14.5 5.5t-5.5 14.5z M291 241q0 16 14 31.5t31 15.5q19 0 19 -20q0 -16 -13.5 -31.5t-30.5 -15.5q-9 0 -14.5 5.5t-5.5 14.5z" />
<glyph unicode="&#xf8;" horiz-adv-x="262" d="M6 -58q0 1 1.5 2.5t1.5 2.5l46 51q-24 11 -24 44q0 65 50 121.5t114 57.5q1 13 7.5 25t18.5 12q6 0 10.5 -5t8 -13t5.5 -16t3 -15l77 84q5 6 11 6q5 0 5 -3q0 -2 -1 -2l-91 -99v-3q0 -12 -3 -23q2 -1 10 -1q14 0 29 7.5t33 21t22 15.5q2 1 4 1t2 -2t-18 -14 q-1 -1 -9.5 -6.5t-11 -7t-10.5 -6.5t-12.5 -6.5t-11.5 -4t-14 -4t-15 -1.5q-15 -57 -61.5 -113.5t-96.5 -56.5q-12 0 -21 3q-15 -15 -43 -47q-4 -6 -14 -6q-2 0 -2 1zM68 39q0 -13 5 -22l140 154q-18 15 -18 38q-39 0 -68 -32t-44 -72q-15 -43 -15 -66zM79 9q6 -6 18 -6 t27 7t31.5 22t32.5 36q34 46 47 94q-8 2 -13 4zM222 201q0 -9 4 -16q2 2 5 5.5t5.5 6.5t4.5 5q-1 11 -4.5 23.5t-6.5 12.5q-8 0 -8 -22q3 -1 6 -4t3 -6q0 -2 -2.5 -4t-3.5 -2l-1 0.5t-2 0.5zM232 177q2 -2 6 -4q2 8 2 13q-2 -3 -8 -9z" />
<glyph unicode="&#xf9;" horiz-adv-x="288" d="M50 34q0 28 34 90q2 3 13 20t18 30.5t7 22.5q0 8 -6.5 12.5t-11.5 4.5q-13 0 -38 -17q-2 -1 -4 -1t-2 2t18 14t42 12q35 0 35 -25q0 -10 -5 -23t-9.5 -21.5t-14.5 -24t-13 -20.5q-31 -53 -31 -81q0 -19 22 -19q39 0 91 56q11 28 38 80q25 46 46 63q7 5 17 5q9 0 9 -6 q0 -18 -52 -79q-40 -74 -40 -118q0 -12 8 -12q13 0 85 58q28 22 40 36q14 15 26 31q2 3 4 3t2 -2q0 -1 -1 -3q-7 -9 -22 -27q-42 -46 -106 -92q-27 -20 -43 -20q-23 0 -23 28q0 14 7 40q-22 -19 -32 -27t-31.5 -18.5t-39.5 -10.5q-16 0 -26.5 11t-10.5 28zM149 371 q0 19 10 19q5 0 7 -5l43 -104q0 -1 1.5 -3.5t2.5 -5.5l1 -2q0 -1 -1 -1q-5 0 -7 4q-10 17 -21.5 36.5t-19 31.5t-15.5 24q-1 1 -1 6zM263 150q30 35 30 52q-3 0 -16 -24t-14 -28z" />
<glyph unicode="&#xfa;" horiz-adv-x="288" d="M50 34q0 28 34 90q2 3 13 20t18 30.5t7 22.5q0 8 -6.5 12.5t-11.5 4.5q-13 0 -38 -17q-2 -1 -4 -1t-2 2t18 14t42 12q35 0 35 -25q0 -10 -5 -23t-9.5 -21.5t-14.5 -24t-13 -20.5q-31 -53 -31 -81q0 -19 22 -19q39 0 91 56q11 28 38 80q25 46 46 63q7 5 17 5q9 0 9 -6 q0 -18 -52 -79q-40 -74 -40 -118q0 -12 8 -12q13 0 85 58q28 22 40 36q14 15 26 31q2 3 4 3t2 -2q0 -1 -1 -3q-7 -9 -22 -27q-42 -46 -106 -92q-27 -20 -43 -20q-23 0 -23 28q0 14 7 40q-22 -19 -32 -27t-31.5 -18.5t-39.5 -10.5q-16 0 -26.5 11t-10.5 28zM186 272l5 3 l125 73q4 3 8 3q2 0 2 -4q0 -14 -10 -18q-20 -9 -56.5 -25.5t-64.5 -30.5q-4 -2 -6 -2q-3 0 -3 1zM263 150q30 35 30 52q-3 0 -16 -24t-14 -28z" />
<glyph unicode="&#xfb;" horiz-adv-x="288" d="M50 34q0 28 34 90q2 3 13 20t18 30.5t7 22.5q0 8 -6.5 12.5t-11.5 4.5q-13 0 -38 -17q-2 -1 -4 -1t-2 2t18 14t42 12q35 0 35 -25q0 -10 -5 -23t-9.5 -21.5t-14.5 -24t-13 -20.5q-31 -53 -31 -81q0 -19 22 -19q39 0 91 56q11 28 38 80q25 46 46 63q7 5 17 5q9 0 9 -6 q0 -18 -52 -79q-40 -74 -40 -118q0 -12 8 -12q13 0 85 58q28 22 40 36q14 15 26 31q2 3 4 3t2 -2q0 -1 -1 -3q-7 -9 -22 -27q-42 -46 -106 -92q-27 -20 -43 -20q-23 0 -23 28q0 14 7 40q-22 -19 -32 -27t-31.5 -18.5t-39.5 -10.5q-16 0 -26.5 11t-10.5 28zM156 282q0 1 2 2 l2 1q18 15 56 53l52 52q6 6 13 6q2 0 2 -1q1 -7 2.5 -39.5t3.5 -48.5q0 -2 0.5 -7t0.5 -7q0 -5 -1.5 -7.5t-5 -6t-4.5 -5.5l-2 -2q-4 -6 -5 -6q-4 0 -4 10q0 97 -3 97t-9 -6q-39 -35 -81 -82q-4 -4 -18 -4zM263 150q30 35 30 52q-3 0 -16 -24t-14 -28z" />
<glyph unicode="&#xfc;" horiz-adv-x="288" d="M50 34q0 28 34 90q2 3 13 20t18 30.5t7 22.5q0 8 -6.5 12.5t-11.5 4.5q-13 0 -38 -17q-2 -1 -4 -1t-2 2t18 14t42 12q35 0 35 -25q0 -10 -5 -23t-9.5 -21.5t-14.5 -24t-13 -20.5q-31 -53 -31 -81q0 -19 22 -19q39 0 91 56q11 28 38 80q25 46 46 63q7 5 17 5q9 0 9 -6 q0 -18 -52 -79q-40 -74 -40 -118q0 -12 8 -12q13 0 85 58q28 22 40 36q14 15 26 31q2 3 4 3t2 -2q0 -1 -1 -3q-7 -9 -22 -27q-42 -46 -106 -92q-27 -20 -43 -20q-23 0 -23 28q0 14 7 40q-22 -19 -32 -27t-31.5 -18.5t-39.5 -10.5q-16 0 -26.5 11t-10.5 28zM186 306 q0 11 10 23t21 12q6 0 10.5 -5.5t4.5 -12.5q0 -12 -9 -23.5t-21 -11.5q-16 0 -16 18zM249 300q0 11 10 23t21 12q6 0 10.5 -5.5t4.5 -12.5q0 -12 -9 -23.5t-21 -11.5q-16 0 -16 18zM263 150q30 35 30 52q-3 0 -16 -24t-14 -28z" />
<glyph unicode="&#xfd;" horiz-adv-x="313" d="M-260 -495q0 24 13 52t30.5 50.5t43.5 48.5t44.5 41t41 33.5t25.5 20.5l180 148q41 74 68 119q-28 -20 -68 -20q-25 0 -40.5 14t-15.5 39q0 31 22 73q5 9 17 26t20 30t8 18q0 8 -8.5 12t-15.5 4q-13 0 -39 -17q-2 -1 -4 -1t-2 2t18 14q17 12 43 12q13 0 25.5 -9t12.5 -22 q0 -7 -7.5 -20.5t-17.5 -30t-14 -23.5q-22 -44 -22 -72q0 -37 30 -37q19 0 38.5 8.5t31.5 23.5t34 51.5t32 58.5q4 9 8.5 21t6.5 16.5t6.5 8t12.5 4.5q20 2 22 2q3 0 3 -1q0 -2 -1 -3l-42 -65q-19 -31 -62 -97.5t-74 -117.5q28 22 84 62t78 56q46 34 66 55q10 11 25 31 q2 3 4 3t2 -2q0 -1 -1 -3q-18 -24 -26 -32q-28 -28 -75 -63q-145 -108 -169 -128l-164 -278q-105 -181 -163 -181q-28 0 -46.5 17.5t-18.5 47.5zM-228 -495q0 -13 5 -24t15 -17.5t23 -6.5q17 0 49 36t56 73.5t45 73.5l142 238l-136 -116q-3 -3 -25.5 -21t-41 -34 t-44.5 -42.5t-44 -50t-31 -53.5t-13 -56zM212 272q0 1 5 3l125 73q4 3 8 3q2 0 2 -4t-3 -10.5t-7 -7.5q-20 -9 -56.5 -25.5t-64.5 -30.5q-4 -2 -6 -2q-3 0 -3 1z" />
<glyph unicode="&#xfe;" horiz-adv-x="312" d="M-198 -376q0 11 11 24q3 4 12 13t16 17.5t11 15.5q177 284 239 391q7 34 11 38q1 1 7 4t9 6q107 190 107 227q0 9 -6 14t-14 5q-11 0 -37 -17q-2 -2 -5 -2q-1 0 -1 2q0 3 18 15q26 17 50 17q13 0 26.5 -7.5t13.5 -22.5q0 -7 -7.5 -23t-15 -29.5t-20 -34.5t-15.5 -26 l-34 -57q60 55 126 55q45 0 45 -43q0 -94 -110 -183q-41 -33 -85 -33q-25 0 -41.5 15t-21.5 41q-167 -286 -204 -354q-5 -9 -16.5 -19.5t-25.5 -21.5t-17 -14q-19 -17 -23 -17q-3 0 -3 4zM131 84q0 -25 13.5 -47t38.5 -22q31 0 58 22q84 70 84 142q0 51 -38 51 q-67 0 -121 -54q-2 -4 -9.5 -17.5t-10.5 -19.5t-7.5 -16.5t-6 -19.5t-1.5 -19z" />
<glyph unicode="&#xff;" horiz-adv-x="313" d="M-260 -495q0 24 13 52t30.5 50.5t43.5 48.5t44.5 41t41 33.5t25.5 20.5l180 148q41 74 68 119q-28 -20 -68 -20q-25 0 -40.5 14t-15.5 39q0 31 22 73q5 9 17 26t20 30t8 18q0 8 -8.5 12t-15.5 4q-13 0 -39 -17q-2 -1 -4 -1t-2 2t18 14q17 12 43 12q13 0 25.5 -9t12.5 -22 q0 -7 -7.5 -20.5t-17.5 -30t-14 -23.5q-22 -44 -22 -72q0 -37 30 -37q19 0 38.5 8.5t31.5 23.5t34 51.5t32 58.5q4 9 8.5 21t6.5 16.5t6.5 8t12.5 4.5q20 2 22 2q3 0 3 -1q0 -2 -1 -3l-42 -65q-19 -31 -62 -97.5t-74 -117.5q28 22 84 62t78 56q46 34 66 55q10 11 25 31 q2 3 4 3t2 -2q0 -1 -1 -3q-18 -24 -26 -32q-28 -28 -75 -63q-145 -108 -169 -128l-164 -278q-105 -181 -163 -181q-28 0 -46.5 17.5t-18.5 47.5zM-228 -495q0 -13 5 -24t15 -17.5t23 -6.5q17 0 49 36t56 73.5t45 73.5l142 238l-136 -116q-3 -3 -25.5 -21t-41 -34 t-44.5 -42.5t-44 -50t-31 -53.5t-13 -56zM212 306q0 11 10 23t21 12q6 0 10.5 -5.5t4.5 -12.5q0 -12 -9 -23.5t-21 -11.5q-16 0 -16 18zM275 300q0 11 10 23t21 12q6 0 10.5 -5.5t4.5 -12.5q0 -12 -9 -23.5t-21 -11.5q-16 0 -16 18z" />
<glyph unicode="&#x152;" horiz-adv-x="777" d="M78 86q0 67 41 157q57 125 144.5 202.5t173.5 77.5q31 0 56.5 -26t25.5 -74q0 -18 -20 -18q-9 0 -17 4t-8 9q0 2 1.5 10.5t1.5 12.5q0 30 -17 47t-46 17q-74 0 -142.5 -65.5t-118.5 -173.5q-36 -78 -36 -155q0 -58 24 -94t69 -36q79 0 159.5 68.5t128.5 182.5 q36 84 36 160q0 51 -16 97q0 5 6.5 19t11.5 14q4 0 7 -7q7 -18 62.5 -27.5t91.5 -9.5q58 0 151 30l4 1q3 1 5 1q6 0 6 -4q0 -7 -7 -13q-6 -5 -17 -19q-3 -3 -6 -3t-7.5 1t-6.5 1h-6q-15 0 -60 -3t-58 -3q-60 0 -145 16q6 -33 6 -68q0 -54 -16 -112q75 -5 106 -5q12 0 36 1.5 t37 1.5q9 0 9 -2q0 -10 -20 -13q-8 -1 -32 -1q-22 0 -67 1.5t-57 1.5q-15 0 -17 -1q-9 -29 -19 -50q-65 -138 -153 -217q76 -52 177 -52q65 0 104 22q77 42 113 104q5 7 5 15q0 3 -1.5 7t-1.5 5q0 4 4 4q6 0 17 -7.5t11 -12.5q0 -1 -1 -2q-8 -9 -26 -30t-33 -35.5t-36 -29.5 q-76 -55 -182 -55q-83 0 -179 43q-71 -54 -138 -54q-56 0 -87 38.5t-31 105.5z" />
<glyph unicode="&#x153;" horiz-adv-x="380" d="M31 42q0 65 50 121.5t114 57.5q1 13 7.5 25t18.5 12q13 0 20.5 -21.5t7.5 -44.5q0 -13 -8 -41q32 42 80 70q21 12 37 12q12 0 19 -5.5t7 -12.5q0 -11 -33 -41q-53 -48 -97 -52q-16 -36 -16 -66q0 -51 46 -51q54 0 131 66q33 29 49 53q2 3 4 3t2 -2q0 -1 -1 -3 q-55 -72 -134 -112q-36 -18 -75 -18q-67 0 -67 50q0 14 6 27q-2 -3 -6 -8t-6 -8q-48 -62 -101 -62q-24 0 -39.5 13t-15.5 38zM68 39q0 -14 7 -25t22 -11q43 0 91 65q22 29 37 67q-26 25 -30 74q-39 0 -68 -32t-44 -72q-15 -43 -15 -66zM222 201q0 -28 9 -51q10 25 10 48 q0 7 -3.5 23.5t-7.5 16.5q-8 0 -8 -22q9 -2 9 -10q0 -2 -2.5 -4t-3.5 -2h-1zM257 128q30 0 80 50q28 28 28 42q0 6 -6 6t-14 -4q-51 -21 -88 -94z" />
<glyph unicode="&#x178;" horiz-adv-x="559" d="M-45 -415q0 24 10 49t23 44t38.5 42t42.5 36.5t50 34t46 28t44 25.5l169 99l32 63q4 9 26.5 50t24.5 46q-30 -34 -53.5 -56.5t-59 -51t-72.5 -43t-75 -14.5q-30 0 -50.5 16t-20.5 46q0 15 3.5 31.5t11.5 36t13 30.5t16.5 34l13.5 27q5 10 21 43.5t24.5 50.5t23.5 48.5 t23 51.5t17.5 43.5t13.5 40t4 27.5q0 21 -10 32.5t-27 11.5q-15 0 -32 -8.5t-26 -16.5l-10 -9q-3 -1 -6 -3.5t-4 -2.5q-2 0 -2 2q0 1 3 6q14 18 43.5 33.5t57.5 15.5q25 0 39.5 -16t14.5 -40q0 -10 -3 -21q-9 -40 -79.5 -175.5t-80.5 -160.5q-25 -64 -25 -85q0 -27 18.5 -44 t47.5 -17q56 0 129 60.5t116 123.5l82 171q9 18 20.5 41.5t16 33t11 20.5t12.5 19q14 19 25 23q6 2 15 2q4 0 4 -5q-1 -21 -52.5 -111t-74.5 -122q-5 -11 -39 -80.5t-53 -102.5l-42 -80q59 34 83 46q72 37 107 67q33 29 49 53q2 3 4 3t2 -2q0 -1 -1 -3q-51 -68 -140 -117 l-111 -63q-62 -123 -132 -241q-25 -42 -55.5 -79t-79 -71t-94.5 -34q-41 0 -61 18.5t-20 49.5zM2 -419q0 -49 46 -49q102 0 191 165q36 65 73 129t58 102l-148 -89q-35 -22 -68 -47t-70 -59.5t-59.5 -74.5t-22.5 -77zM486 576q0 11 10 23t21 12q6 0 10.5 -5.5t4.5 -12.5 q0 -12 -9 -23.5t-21 -11.5q-16 0 -16 18zM549 570q0 11 10 23t21 12q6 0 10.5 -5.5t4.5 -12.5q0 -12 -9 -23.5t-21 -11.5q-16 0 -16 18z" />
<glyph unicode="&#x2c6;" horiz-adv-x="230" d="M46 284q0 1 2 2l2 1q18 15 56 53l52 52q6 6 13 6q2 0 2 -1q1 -7 2.5 -39.5t3.5 -48.5q0 -2 0.5 -7t0.5 -7q0 -5 -1.5 -7.5t-5 -6t-4.5 -5.5l-2 -2q-4 -6 -5 -6q-4 0 -4 10q0 97 -3 97t-9 -6q-39 -35 -81 -82q-4 -4 -18 -4z" />
<glyph unicode="&#x2dc;" horiz-adv-x="230" d="M11 302q0 2 6 10l11 14q11 14 15 18t14 13.5t19 13t19 3.5q13 0 23 -16t22.5 -32.5t30.5 -16.5q14 0 25.5 15t11.5 31v7q0 8 4 8t4 -16q0 -19 -16 -38.5t-38 -19.5q-20 0 -29.5 7.5t-21.5 25.5q-18 27 -28 27q-9 0 -18.5 -5.5t-14.5 -10.5t-15.5 -17.5t-12.5 -14.5 q-8 -10 -9 -10q-2 0 -2 4z" />
<glyph unicode="&#x2000;" horiz-adv-x="384" />
<glyph unicode="&#x2001;" horiz-adv-x="768" />
<glyph unicode="&#x2002;" horiz-adv-x="384" />
<glyph unicode="&#x2003;" horiz-adv-x="768" />
<glyph unicode="&#x2004;" horiz-adv-x="256" />
<glyph unicode="&#x2005;" horiz-adv-x="192" />
<glyph unicode="&#x2006;" horiz-adv-x="128" />
<glyph unicode="&#x2007;" horiz-adv-x="128" />
<glyph unicode="&#x2008;" horiz-adv-x="96" />
<glyph unicode="&#x2009;" horiz-adv-x="153" />
<glyph unicode="&#x200a;" horiz-adv-x="42" />
<glyph unicode="&#x2010;" horiz-adv-x="296" d="M113 161q0 6 4 12t7 6h28q10 0 36 -1t41 -1q9 0 30.5 0.5t29.5 0.5q9 0 9 -11q0 -12 -9.5 -15t-32.5 -3q-6 0 -34.5 1t-50.5 1h-43q-15 0 -15 10z" />
<glyph unicode="&#x2011;" horiz-adv-x="296" d="M113 161q0 6 4 12t7 6h28q10 0 36 -1t41 -1q9 0 30.5 0.5t29.5 0.5q9 0 9 -11q0 -12 -9.5 -15t-32.5 -3q-6 0 -34.5 1t-50.5 1h-43q-15 0 -15 10z" />
<glyph unicode="&#x2012;" horiz-adv-x="296" d="M113 161q0 6 4 12t7 6h28q10 0 36 -1t41 -1q9 0 30.5 0.5t29.5 0.5q9 0 9 -11q0 -12 -9.5 -15t-32.5 -3q-6 0 -34.5 1t-50.5 1h-43q-15 0 -15 10z" />
<glyph unicode="&#x2013;" horiz-adv-x="500" d="M37 129q0 3 13 8.5t24 5.5q22 0 66 -0.5t68 -0.5q40 0 153.5 0.5t193.5 0.5q8 0 8 -5q0 -19 -73 -19q-22 0 -107.5 3t-170.5 3h-161q-14 0 -14 4z" />
<glyph unicode="&#x2014;" horiz-adv-x="1000" d="M185 226q0 4 10.5 8.5t23.5 4.5q81 0 298.5 1.5t381.5 1.5q16 0 16 -8q0 -11 -34 -11h-68q-38 0 -137.5 1t-172.5 1q-57 0 -129 -0.5t-121.5 -1.5t-53.5 -1q-14 0 -14 4z" />
<glyph unicode="&#x2018;" horiz-adv-x="205" d="M173 263q0 39 25 84q23 42 83 109q5 5 6 5q3 0 3 -8q0 -3 -1 -4q-46 -49 -61 -75q-24 -42 -24 -84q0 -11 5 -20t9.5 -13.5t4.5 -5.5q0 -6 -11 -17.5t-15 -11.5q-10 0 -17 13.5t-7 27.5z" />
<glyph unicode="&#x2019;" horiz-adv-x="219" d="M178 258q0 3 3 6q36 36 77 112q7 13 16 33t15 33.5t10 16.5q16 13 32 13q13 0 13 -9q0 -12 -73 -112q-17 -24 -48.5 -60.5t-40.5 -36.5q-4 0 -4 4z" />
<glyph unicode="&#x201a;" horiz-adv-x="189" d="M53 -93q0 3 1 4q46 49 61 75q24 42 24 84q0 11 -4.5 20t-9.5 13.5t-5 5.5q0 6 11 17.5t15 11.5q10 0 17 -13.5t7 -27.5q0 -39 -25 -84q-23 -42 -83 -109q-5 -5 -6 -5q-3 0 -3 8z" />
<glyph unicode="&#x201c;" horiz-adv-x="259" d="M144 263q0 39 25 84q23 42 83 109q5 5 6 5q3 0 3 -8q0 -3 -1 -4q-46 -49 -61 -75q-24 -42 -24 -84q0 -11 4.5 -20t9.5 -13.5t5 -5.5q0 -6 -11 -17.5t-15 -11.5q-10 0 -17 13.5t-7 27.5zM226 263q0 39 25 84q23 42 83 109q5 5 6 5q3 0 3 -8q0 -3 -1 -4q-46 -49 -61 -75 q-24 -42 -24 -84q0 -11 4.5 -20t9.5 -13.5t5 -5.5q0 -6 -11 -17.5t-15 -11.5q-10 0 -17 13.5t-7 27.5z" />
<glyph unicode="&#x201d;" horiz-adv-x="259" d="M137 230q0 3 1 4q46 49 61 75q24 42 24 84q0 11 -4.5 20t-9.5 13.5t-5 5.5q0 6 11 17.5t15 11.5q10 0 17 -13.5t7 -27.5q0 -39 -25 -84q-23 -42 -83 -109q-5 -5 -6 -5q-3 0 -3 8zM219 230q0 3 1 4q46 49 61 75q24 42 24 84q0 11 -4.5 20t-9.5 13.5t-5 5.5q0 6 11 17.5 t15 11.5q10 0 17 -13.5t7 -27.5q0 -39 -25 -84q-23 -42 -83 -109q-5 -5 -6 -5q-3 0 -3 8z" />
<glyph unicode="&#x201e;" horiz-adv-x="256" d="M34 -93q0 3 1 4q46 49 61 75q24 42 24 84q0 11 -5 20t-9.5 13.5t-4.5 5.5q0 6 11 17.5t15 11.5q10 0 17 -13.5t7 -27.5q0 -39 -25 -84q-23 -42 -83 -109q-5 -5 -6 -5q-3 0 -3 8zM117 -93q0 3 1 4q46 49 61 75q24 42 24 84q0 11 -4.5 20t-9.5 13.5t-5 5.5q0 6 11 17.5 t15 11.5q10 0 17 -13.5t7 -27.5q0 -39 -25 -84q-23 -42 -83 -109q-5 -5 -6 -5q-3 0 -3 8z" />
<glyph unicode="&#x2022;" horiz-adv-x="500" d="M239 346q0 70 50.5 119.5t121.5 49.5t121.5 -49.5t50.5 -119.5t-50.5 -119.5t-121.5 -49.5t-121.5 49.5t-50.5 119.5z" />
<glyph unicode="&#x2026;" horiz-adv-x="569" d="M80 14q0 16 14 31.5t31 15.5q19 0 19 -20q0 -16 -13.5 -31.5t-30.5 -15.5q-20 0 -20 20zM252 14q0 16 14 31.5t31 15.5q19 0 19 -20q0 -16 -13.5 -31.5t-30.5 -15.5q-20 0 -20 20zM431 14q0 16 14 31.5t31 15.5q19 0 19 -20q0 -16 -13.5 -31.5t-30.5 -15.5q-20 0 -20 20z " />
<glyph unicode="&#x202f;" horiz-adv-x="153" />
<glyph unicode="&#x2039;" horiz-adv-x="275" d="M123 97q0 6 3 9q18 13 80.5 63t83.5 65q1 0 2.5 1.5t3.5 2.5t3 1t1 -4q0 -7 -3 -8q-19 -14 -44 -33.5t-54.5 -43.5t-45.5 -36q-2 -1 -2 -8q0 -6 2 -12q3 -9 13 -36.5t18 -50.5t8 -25q0 -1 -2 -1t-4.5 -0.5t-3.5 -0.5q-16 -7 -19 -7q-5 0 -6 2q-4 9 -9 25t-11 39t-10 37 q-4 12 -4 21z" />
<glyph unicode="&#x203a;" horiz-adv-x="276" d="M90 -26q0 6 5 9q64 43 141 110q3 1 3 10q0 5 -2 11q-9 17 -25 43.5t-27.5 44.5t-11.5 19q0 6 23 11q1 0 4 1t4 1q2 0 6 -8q3 -7 18 -35t27.5 -51.5t12.5 -26.5q0 -8 -7 -14q-15 -11 -76 -59.5t-85 -65.5l-8 -4q-2 0 -2 4z" />
<glyph unicode="&#x205f;" horiz-adv-x="192" />
<glyph unicode="&#x20ac;" horiz-adv-x="369" d="M48 183q0 12 5 12q17 -1 71 -3q13 37 18 48q-12 0 -30.5 -0.5t-22.5 -0.5q-3 0 -3 4q0 6 4.5 14t8.5 8q12 1 57 1q50 92 104 130t105 38q25 0 43 -10.5t18 -19.5q0 -6 -8.5 -16t-12.5 -10q-2 0 -2 3q0 18 -16 30.5t-38 12.5q-43 0 -92 -49q-30 -31 -76 -108h152 q45 0 45 -12t-10 -12h-16q-6 0 -28 -0.5t-39 -0.5q-7 0 -22 0.5t-24 0.5q-17 0 -71 -2q-9 -20 -19 -49q17 -1 49 -1q6 0 53 1t64 1q21 0 21 -8q0 -11 -11.5 -13.5t-49.5 -2.5h-37q-63 0 -96 1q-5 -25 -5 -53q0 -49 18.5 -82.5t61.5 -33.5q72 0 130 92q15 23 17 43q0 6 4 6 q6 0 13 -8.5t7 -15.5q0 -11 -30 -46.5t-58 -57.5q-50 -40 -99 -40q-97 0 -97 108q0 42 13 88q-10 0 -30.5 0.5t-31.5 0.5q-7 0 -7 12z" />
<glyph unicode="&#x2122;" horiz-adv-x="409" d="M133 235q0 1 9 15t22.5 34.5t21.5 35.5q25 50 34 79q-62 -7 -75 -11q-1 0 -1 1q0 11 78 17q1 4 1 13q0 18 -22 18q-10 0 -24 -7q0 -4 -9 -4q-4 0 -4 4q0 6 15 9t23 3q16 0 26.5 -8t10.5 -20v-7q33 5 57 5q2 0 6.5 -0.5t7.5 -0.5h4q2 0 2 -2l-3 -9h-6q-6 0 -16.5 0.5 t-21.5 0.5q-25 0 -31 -1q-14 -42 -35 -80q-2 -3 -9.5 -18t-13 -25t-13.5 -23t-14.5 -19.5t-11.5 -6.5q-8 0 -8 7zM242 239q0 2 1 3q5 9 18.5 28t22.5 35q2 4 8 15t9.5 18t7 17t3.5 18q0 4 -2 12q0 2 5.5 5t7.5 3q4 0 4 -18q0 -5 -2 -11q30 40 51 40q22 0 22 -20q0 -5 -1 -7 q7 11 25.5 22.5t30.5 11.5q23 0 23 -19q0 -14 -13 -28q-53 -59 -53 -116q0 -18 10 -28.5t25 -10.5q10 0 18.5 5.5t12.5 11t5 5.5q2 0 2 -2q0 -3 -5 -9.5t-15.5 -13t-23.5 -6.5q-18 0 -29.5 11t-11.5 30q0 29 30.5 84.5t30.5 64.5q0 13 -13 13q-11 0 -27 -13.5t-25 -28.5 q-1 -1 -3 -5.5t-4 -8t-4 -3.5q-10 0 -10 6q14 8 14 30q0 16 -16 16q-10 0 -25.5 -14.5t-22.5 -27.5q-4 -6 -20.5 -38.5t-31.5 -60.5t-16 -28t-4 1t-6 4t-3 7z" />
<glyph unicode="&#xe000;" horiz-adv-x="230" d="M0 0v230h230v-230h-230z" />
<glyph unicode="&#xfb01;" horiz-adv-x="389" d="M-329 -347q0 43 30.5 93t86.5 102t108 93t121 90q5 3 32 23l35 70q127 251 222 397q37 56 92.5 107t107.5 51q60 0 62 -75v-1q0 -33 -32 -94.5t-62 -82.5q-11 -8 -21 -8q-14 0 -14 15q0 11 9.5 22.5t20.5 11.5q8 0 13 -5q3 -3 4 -3t4 3q56 68 56 124q0 26 -15.5 44.5 t-42.5 18.5q-29 0 -56 -15t-50 -42.5t-37.5 -50.5t-32.5 -56l-176 -342l-26 -47q144 100 170 116q17 12 42 12q32 0 32 -28q0 -16 -34 -74.5t-34 -82.5q0 -26 35 -26q36 0 103 58q33 29 49 53q2 3 4 3t2 -2q0 -1 -1 -3q-49 -65 -116 -104q-38 -22 -70 -22q-21 0 -33.5 10 t-12.5 27q0 29 40 91q38 57 38 74q0 7 -6 11.5t-13 4.5q-11 0 -37 -17q-41 -25 -166 -117q-185 -343 -243 -417q-59 -76 -125 -76q-28 0 -45.5 18.5t-17.5 47.5zM-295 -348q0 -18 11 -32t31 -14q28 0 67.5 32t74.5 99q24 44 69 136.5t80 159.5q-139 -102 -200 -165 q-29 -30 -43 -46t-39.5 -49t-38 -63t-12.5 -58z" />
<glyph unicode="&#xfb02;" horiz-adv-x="397" d="M-432 -425q0 32 17 68.5t53 76t69.5 73t89.5 76.5t88.5 67.5t90.5 65.5t73 52q13 23 40 75t29 56q132 243 197 343q92 142 172 172q17 6 31 6q25 0 42.5 -16t20.5 -43q41 42 96 63q9 4 19 4q23 0 23 -31q0 -110 -200 -280q-33 -28 -136 -104l-78 -126q-62 -107 -62 -139 q0 -13 8 -22t21 -9q43 0 98.5 42t80.5 79q2 3 4 3t2 -2q0 -1 -1 -3q-49 -65 -116 -104q-51 -29 -89 -29q-46 0 -46 48q0 7 2 15t4 13.5t6.5 15t7 14t9 15.5t8.5 14l85 135l-225 -179q-243 -451 -310 -534q-37 -46 -63 -60t-60 -14q-46 0 -73.5 27.5t-27.5 75.5zM-393 -415 q0 -42 18.5 -69.5t60.5 -27.5q24 0 48.5 18.5t34.5 32t36 49.5q25 35 65 110.5t93.5 184.5t74.5 150q-133 -98 -204 -159q-6 -5 -19 -16q-37 -32 -57.5 -50t-53.5 -51t-51 -57.5t-32 -56t-14 -58.5zM110 96l228 180q12 20 56 90.5t59 95.5q58 98 92 144q4 11 4 23 q0 20 -14 31.5t-36 11.5q-45 0 -83 -36q-21 -19 -38 -43t-55 -89q-78 -133 -213 -408zM390 312q64 49 120 98q58 52 114.5 132t56.5 138q0 16 -10 16q-45 0 -206 -264z" />
<glyph unicode="&#xfb03;" horiz-adv-x="582" d="M-450 -446q0 44 31 97t76.5 100t108 99t114 89.5t106.5 75.5q16 11 23 16q13 8 42 30l33 63q9 16 31.5 62.5t35.5 70.5q-76 -54 -85 -60q-2 -1 -4 -1t-2 2t18 14q17 12 82 61q5 8 33 62t61.5 111t74.5 117.5t87 99t85 38.5q25 0 25 -33q0 -50 -49 -122q-43 -63 -140 -143 q-44 -38 -131 -106l-108 -201q244 174 261 186q94 177 147 260q2 2 12.5 19t14.5 23t15.5 22.5t18 24.5t18.5 22.5t21 21.5t21.5 17.5t23.5 15.5t23.5 8.5t25.5 3.5q23 0 33.5 -18t10.5 -41q0 -25 -13.5 -51.5t-27 -42.5t-38.5 -42q-69 -71 -261 -220l-111 -215 q111 80 180 122q19 12 42 12q32 0 32 -28q0 -16 -34 -74.5t-34 -82.5q0 -26 35 -26q36 0 103 58q33 29 49 53q2 3 4 3t2 -2q0 -1 -1 -3q-49 -65 -116 -104q-38 -22 -70 -22q-21 0 -33.5 10t-12.5 27q0 29 40 91q38 57 38 74q0 7 -6 11.5t-13 4.5q-12 0 -37 -17l-179 -127 q-234 -435 -266 -490q-41 -70 -100.5 -117t-113.5 -47q-60 0 -85 51q-32 -20 -71 -20q-46 0 -71 30.5t-25 76.5zM-417 -448q0 -38 22 -62t48 -24t57 19q-8 27 -8 58q0 111 226 288l113 211q-103 -76 -171 -133q-66 -54 -106 -89.5t-87.5 -85t-70.5 -95t-23 -87.5zM-278 -455 q0 -25 7 -45q36 29 68 88l113 209q-188 -152 -188 -252zM-262 -519q24 -43 75 -43q42 0 94.5 38t91.5 112l234 446q-176 -125 -277 -200l-141 -253q-38 -68 -77 -100zM-26 -134q30 23 66 48t63.5 43.5t58.5 39.5t49 34q1 1 4.5 3.5l7 5t9 6.5t10.5 8q20 37 36 70l72 140 q-39 -28 -83 -60t-97 -70t-83 -59zM214 314l114 96q5 4 14 13q28 24 41.5 36.5t33 32.5t33.5 39.5t27 41.5q26 45 26 72q0 26 -25 26q-20 0 -42 -15t-39.5 -33.5t-40 -52.5t-34.5 -54t-32 -55q-5 -9 -7 -13q-38 -65 -69 -134zM412 322q166 125 244 207q19 20 33 44.5 t19.5 43t5.5 31.5q0 38 -38 38q-72 0 -162 -168zM582 334q0 11 10 23t21 12q6 0 10.5 -5.5t4.5 -12.5q0 -12 -9 -23.5t-21 -11.5q-16 0 -16 18z" />
<glyph unicode="&#xfb04;" horiz-adv-x="580" d="M-460 -446q0 44 31 97t76.5 100t108 99t114 89.5t106.5 75.5q16 11 23 16q13 8 42 30l33 63q9 16 31.5 62.5t35.5 70.5q-76 -54 -85 -60q-2 -1 -4 -1t-2 2t18 14q17 12 82 61q5 8 33 62t61.5 111t74.5 117.5t87 99t85 38.5q25 0 25 -33q0 -50 -49 -122q-43 -63 -140 -143 q-44 -38 -131 -106l-108 -201q244 174 261 186q94 177 147 260q2 2 12.5 19t14.5 23t15.5 22.5t18 24.5t18.5 22.5t21 21.5t21.5 17.5t23.5 15.5t23.5 8.5t25.5 3.5q23 0 33.5 -18t10.5 -41q0 -25 -13.5 -51.5t-27 -42.5t-38.5 -42q-69 -71 -261 -220l-111 -215 q110 79 157 107q62 40 107 73q12 20 58 93.5t61 98.5q70 118 115.5 171.5t108.5 76.5q9 4 19 4q23 0 23 -31q0 -110 -200 -280q-33 -28 -136 -104l-78 -126q-62 -107 -62 -139q0 -13 8 -22t21 -9q43 0 98.5 42t80.5 79q2 3 4 3t2 -2q0 -1 -1 -3q-49 -65 -116 -104 q-51 -29 -89 -29q-46 0 -46 48q0 7 2 15t4 13.5t6.5 15t7 14t9 15.5t8.5 14l85 135q-70 -50 -95 -66q-16 -10 -173 -123q-234 -435 -266 -490q-41 -70 -100.5 -117t-113.5 -47q-60 0 -85 51q-32 -20 -71 -20q-46 0 -71 30.5t-25 76.5zM-427 -448q0 -38 22 -62t48 -24t57 19 q-8 27 -8 58q0 111 226 288l113 211q-103 -76 -171 -133q-66 -54 -106 -89.5t-87.5 -85t-70.5 -95t-23 -87.5zM-288 -455q0 -25 7 -45q36 29 68 88l113 209q-188 -152 -188 -252zM-272 -519q24 -43 75 -43q42 0 94.5 38t91.5 112l234 446q-176 -125 -277 -200l-141 -253 q-38 -68 -77 -100zM-36 -134q52 39 140.5 99.5t96.5 65.5q1 1 4.5 3.5l7 5t9 6.5t10.5 8q20 37 36 70l72 140q-39 -28 -83 -60t-97 -70t-83 -59zM204 314l114 96q5 4 14 13q28 24 41.5 36.5t33 32.5t33.5 39.5t27 41.5q26 45 26 72q0 26 -25 26q-20 0 -42 -15t-39.5 -33.5 t-40 -52.5t-34.5 -54t-32 -55q-5 -9 -7 -13q-38 -65 -69 -134zM402 322q166 125 244 207q15 15 26.5 33t18 34t10 29t3.5 23q0 38 -38 38q-72 0 -162 -168zM603 312q64 49 120 98q58 52 114.5 132t56.5 138q0 16 -10 16q-45 0 -206 -264z" />
</font>
</defs>
</svg>
