<?xml version="1.0" standalone="no"?>
<!DOCTYPE svg PUBLIC "-//W3C//DTD SVG 1.1//EN" "http://www.w3.org/Graphics/SVG/1.1/DTD/svg11.dtd" >
<svg xmlns="http://www.w3.org/2000/svg">
<metadata></metadata>
<defs>
<font id="josefin_slabthin" horiz-adv-x="532" >
<font-face units-per-em="1000" ascent="800" descent="-200" />
<missing-glyph horiz-adv-x="300" />
<glyph horiz-adv-x="1000" />
<glyph horiz-adv-x="1000" />
<glyph unicode="&#xd;" horiz-adv-x="300" />
<glyph unicode=" "  horiz-adv-x="300" />
<glyph unicode="&#x09;" horiz-adv-x="300" />
<glyph unicode="&#xa0;" horiz-adv-x="300" />
<glyph unicode="!" horiz-adv-x="201" d="M81 56q0 9 6 14.5t13 5.5q8 0 14 -5.5t6 -14.5q0 -8 -6 -14t-14 -6q-7 0 -13 6t-6 14zM93 166v584h14v-584h-14z" />
<glyph unicode="&#x22;" horiz-adv-x="293" d="M63 472v248h18q-1 -63 -2 -124t-2 -124h-14zM196 472v248h18q-1 -63 -2 -124t-2 -124h-14z" />
<glyph unicode="#" horiz-adv-x="571" d="M29 225q0 4 0.5 7t0.5 7h118l10 84l10 84h-116q0 4 0.5 7t0.5 7h117l27 222h14l-27 -222h170l27 222h14l-27 -222h136q0 -4 -0.5 -7t-0.5 -7h-137l-10 -84l-10 -84h135q0 -4 -0.5 -7t-0.5 -7h-136q-7 -57 -13 -112.5t-13 -112.5h-14q7 57 13 112.5t13 112.5h-170 q-7 -57 -13 -112.5t-13 -112.5h-14q7 57 13 112.5t13 112.5h-117zM162 239h170l10 84l10 84h-170l-10 -84z" />
<glyph unicode="$" horiz-adv-x="567" d="M46 64v100h14v-90q28 -29 70 -48t102 -20v361q-31 9 -60 19.5t-52 27t-37.5 41t-16.5 62.5q-2 33 7 65.5t29 59.5t52.5 44t77.5 18v60h13v-60q32 -1 71.5 -9.5t69.5 -34.5v-114h-14v107q-19 14 -50.5 24.5t-76.5 12.5v-310q36 -11 72.5 -23t65.5 -32.5t47.5 -53.5 t19.5 -85q1 -44 -15 -79t-44 -60.5t-65.5 -39.5t-80.5 -15v-60h-13v60q-39 1 -69.5 9t-53.5 19t-38.5 23t-24.5 21zM80 530q0 -36 12.5 -60t33.5 -40.5t48.5 -27t57.5 -19.5v307q-38 -1 -66.5 -14.5t-47.5 -36t-28.5 -51t-9.5 -58.5zM245 6q37 1 71.5 14.5t61 36t42.5 54.5 t16 71q0 48 -16.5 79t-43.5 50.5t-61.5 30.5t-69.5 21v-357z" />
<glyph unicode="%" horiz-adv-x="726" d="M108 389q0 22 8.5 42t23.5 34.5t35 23t43 8.5q22 0 42 -8.5t35 -23t24 -34.5t9 -42q0 -23 -9 -43t-24 -34.5t-35 -23t-42 -8.5q-23 0 -43 8.5t-35 23t-23.5 34.5t-8.5 43zM122 388q0 -20 7.5 -37t20.5 -29.5t30.5 -20t37.5 -7.5t37.5 7.5t30.5 20t20.5 29.5t7.5 37 q0 19 -7.5 36.5t-20.5 30.5t-30.5 20.5t-37.5 7.5t-37.5 -7.5t-30.5 -20.5t-20.5 -30.5t-7.5 -36.5zM208 0q75 126 149 250t149 250h16q-75 -126 -149 -250t-149 -250h-16zM412 113q0 22 8.5 42t23.5 34.5t35 23t43 8.5q22 0 42 -8.5t35 -23t24 -34.5t9 -42q0 -23 -9 -43 t-24 -34.5t-35 -23t-42 -8.5q-23 0 -43 8.5t-35 23t-23.5 34.5t-8.5 43zM426 112q0 -20 7.5 -37t20.5 -29.5t30.5 -20t37.5 -7.5t37.5 7.5t30.5 20t20.5 29.5t7.5 37q0 19 -7.5 36.5t-20.5 30.5t-30.5 20.5t-37.5 7.5t-37.5 -7.5t-30.5 -20.5t-20.5 -30.5t-7.5 -36.5z" />
<glyph unicode="&#x26;" horiz-adv-x="700" d="M106 187q0 36 12.5 68.5t34 58t51.5 42.5t65 23l-72 117q-18 30 -25.5 62t-2.5 63t23 58t51 47q28 17 57.5 20.5t57.5 -1.5t52.5 -16t43.5 -23l-6 -13q-23 13 -47 24t-49 16t-50.5 1.5t-50.5 -19.5q-31 -20 -48 -45t-21.5 -52.5t2.5 -57t24 -56.5l249 -406q11 20 17.5 42 t6.5 47v188h120v-14h-106v-87q0 -25 0.5 -49.5t-2 -48.5t-8.5 -47t-19 -45l59 -95l-11 -8l-57 91q-26 -36 -67 -57.5t-90 -21.5q-41 0 -76 15t-61.5 41.5t-41.5 61.5t-15 76zM120 187q0 -38 14 -70.5t38.5 -57t57 -38.5t70.5 -14q47 0 86 21.5t63 56.5l-172 281 q-33 -4 -62 -19.5t-50 -39.5t-33 -55t-12 -65z" />
<glyph unicode="'" horiz-adv-x="147" d="M67 472v248h18q-1 -63 -2 -124t-2 -124h-14z" />
<glyph unicode="(" horiz-adv-x="394" d="M147 292q0 75 14 143t37 126t52.5 105.5t61.5 80.5q1 -6 1.5 -11.5t1.5 -11.5q-29 -33 -56.5 -78t-49.5 -100t-35 -119t-13 -135t13 -135t35 -119t49.5 -100t56.5 -78q-1 -6 -1.5 -11.5t-1.5 -11.5q-32 33 -61.5 80.5t-52.5 105.5t-37 126t-14 143z" />
<glyph unicode=")" horiz-adv-x="400" d="M111 -140q29 33 56.5 78t49.5 100t35 119t13 135t-13 135t-35 119t-49.5 100t-56.5 78q1 6 1.5 11.5t1.5 11.5q31 -33 61 -80.5t53 -105.5t37 -126t14 -143t-14 -143t-37 -126t-53 -105.5t-61 -80.5q-1 6 -1.5 11.5t-1.5 11.5z" />
<glyph unicode="*" horiz-adv-x="335" d="M39 513l111 63l-111 66q2 3 3.5 6t3.5 6q28 -17 56 -32.5t56 -32.5v131h18q-1 -33 -1 -65.5t-1 -65.5q29 16 57 32t57 32q2 -3 3.5 -6t3.5 -6q-29 -17 -56.5 -33t-56.5 -33l56 -32l56 -32l-9 -15l-111 66q-1 -32 -1 -64t-1 -64h-14v127q-28 -16 -55 -31.5t-55 -31.5z" />
<glyph unicode="+" horiz-adv-x="543" d="M86 225v14h173v172h14v-172h173v-14h-173v-174h-14v174h-173z" />
<glyph unicode="," horiz-adv-x="200" d="M27 -120q20 52 38.5 103t38.5 103h23q-22 -52 -43 -103t-43 -103h-14z" />
<glyph unicode="-" horiz-adv-x="300" d="M53 184v14h184v-14h-184z" />
<glyph unicode="." horiz-adv-x="163" d="M66 20q0 8 6 14t14 6t14 -6t6 -14t-6 -14t-14 -6t-14 6t-6 14z" />
<glyph unicode="/" horiz-adv-x="322" d="M17 -19q70 190 139 377.5t139 377.5h14q-70 -190 -139 -377.5t-139 -377.5h-14z" />
<glyph unicode="0" horiz-adv-x="616" d="M36 327q0 48 14.5 105.5t46.5 108t84 84t127 33.5q74 0 125 -34.5t82 -85t44.5 -108.5t13.5 -106q0 -69 -22 -129.5t-59 -105.5t-86.5 -70.5t-104.5 -25.5t-103.5 26.5t-84.5 71.5t-56.5 105.5t-20.5 130.5zM51 328q0 -73 21 -132t56 -101t81 -65t94 -23t94 22t82 63 t58 100t22 131q0 73 -19 132.5t-53 101t-80 64.5t-100 23t-100.5 -21.5t-81 -63t-54.5 -100t-20 -131.5z" />
<glyph unicode="1" horiz-adv-x="249" d="M34 636v14h127v-636h80v-14h-174v14h80v622h-113z" />
<glyph unicode="2" horiz-adv-x="495" d="M50 469q0 40 11.5 74.5t34 60t56 40t76.5 14.5q39 0 71 -14.5t55.5 -40.5t36 -61.5t12.5 -77.5q0 -58 -29.5 -115.5t-75.5 -113.5t-101.5 -111.5t-107.5 -109.5h346v113h14v-127h-396q64 62 125 122.5t107.5 118t75 111t28.5 100.5q0 56 -16 93t-40 59t-52 31t-53 9 q-50 0 -81.5 -17.5t-50 -44t-25.5 -57t-7 -56.5q0 -71 40 -114l-9 -8q-21 24 -33 52.5t-12 69.5z" />
<glyph unicode="3" horiz-adv-x="515" d="M93 58l10 13q24 -29 59 -47t77 -18q39 0 74.5 15t61.5 41t41.5 60.5t15.5 72.5q0 39 -15.5 73.5t-41.5 60t-61.5 40.5t-74.5 15q-16 0 -31.5 -6t-29.5 -17l212 275h-273v-68h-14v82h319l-199 -252q45 2 85.5 -12.5t71 -41.5t48.5 -65.5t18 -83.5q0 -42 -16 -79t-44 -64.5 t-65 -43.5t-79 -16q-45 0 -83 18t-66 48z" />
<glyph unicode="4" horiz-adv-x="505" d="M37 183l366 475v-461h97v-14h-97v-169h83v-14h-174v14h77v169h-352zM67 197h322v420z" />
<glyph unicode="5" horiz-adv-x="543" d="M115 48l11 10q24 -25 56.5 -38.5t70.5 -13.5q40 0 75 15t61 41t41.5 60.5t15.5 72.5q0 39 -15.5 72.5t-41.5 59t-61 40t-75 14.5q-35 0 -64 -11.5t-46 -28.5v309h287v-82h-14v68h-259v-264q23 11 47.5 17t50.5 6q42 0 79.5 -15.5t65 -42.5t44 -63.5t16.5 -78.5t-16.5 -79 t-44 -64.5t-65 -43.5t-79.5 -16q-41 0 -76.5 15t-63.5 41z" />
<glyph unicode="6" horiz-adv-x="520" d="M50 193q0 73 31 135.5t79 116.5t107 100.5t115 87.5q2 -3 5 -6.5t5 -6.5q-67 -44 -118 -87t-87.5 -82.5t-60 -74t-35.5 -62.5q28 37 70 59t93 22q42 0 79.5 -16t65 -43.5t43.5 -64t16 -78.5t-16 -78.5t-43.5 -63.5t-65 -43t-79.5 -16t-79.5 16t-65 43t-43.5 63.5 t-16 78.5zM63 193q0 -39 15 -73t40.5 -59.5t60.5 -40t74 -14.5t74 14.5t61 40t41 59.5t15 73t-15 73t-41 59.5t-61 40.5t-74 15t-74 -15t-60.5 -40.5t-40.5 -59.5t-15 -73z" />
<glyph unicode="7" horiz-adv-x="469" d="M14 568v82h401l-292 -650h-18l287 636h-364v-68h-14z" />
<glyph unicode="8" horiz-adv-x="510" d="M53 195q0 35 11.5 66.5t31.5 57t47.5 44t60.5 26.5q-42 14 -69 48.5t-27 80.5q0 29 11.5 54.5t31 44.5t45.5 30t56 11t56 -11.5t45.5 -31t31 -45.5t11.5 -56q0 -44 -25.5 -77.5t-66.5 -47.5q33 -8 61.5 -26t49.5 -43.5t33 -57t12 -67.5q0 -42 -16.5 -79t-44 -64.5 t-65 -43.5t-79.5 -16t-78.5 16t-64 43.5t-43.5 64.5t-16 79zM67 195q0 -38 14.5 -72.5t39.5 -60.5t59 -41.5t73 -15.5q40 0 75 15.5t61 41.5t41.5 60.5t15.5 72.5q0 39 -15.5 72.5t-41.5 59t-61 40t-75 14.5q-39 0 -73 -14.5t-59 -40t-39.5 -59t-14.5 -72.5zM122 511 q0 -25 10 -46t28 -36.5t42 -24t52 -8.5q27 0 50.5 8.5t41 24t27 36.5t9.5 46q0 27 -9.5 51t-27 42t-41 29t-50.5 11q-28 0 -52 -11t-42 -29t-28 -42t-10 -51z" />
<glyph unicode="9" horiz-adv-x="525" d="M55 432q0 42 16 78.5t43.5 63.5t65 43t79.5 16t79.5 -16t65 -43t43.5 -63.5t16 -78.5q0 -73 -31 -135.5t-79 -116.5t-107 -100.5t-115 -87.5q-2 3 -5 6.5t-5 6.5q67 44 118 87t87.5 82.5t60 74t35.5 62.5q-28 -37 -70 -59t-93 -22q-42 0 -79.5 16t-65 43.5t-43.5 64 t-16 78.5zM69 432q0 -39 15 -73.5t41 -60t61 -40t74 -14.5t74 14.5t60.5 40t40.5 60t15 73.5t-15 73t-40.5 59.5t-60.5 40t-74 14.5t-74 -14.5t-61 -40t-41 -59.5t-15 -73z" />
<glyph unicode=":" horiz-adv-x="175" d="M65 20q0 8 6 14t14 6t14 -6t6 -14t-6 -14t-14 -6t-14 6t-6 14zM65 270q0 8 6 14t14 6t14 -6t6 -14t-6 -14t-14 -6t-14 6t-6 14z" />
<glyph unicode=";" horiz-adv-x="201" d="M12 -120q20 52 38.5 103t38.5 103h23q-22 -52 -43 -103t-43 -103h-14zM88 270q0 8 6 14t14 6t14 -6t6 -14t-6 -14t-14 -6t-14 6t-6 14z" />
<glyph unicode="&#x3c;" horiz-adv-x="680" d="M115 238q110 63 219 126.5t219 126.5v-16q-103 -60 -206 -118.5t-206 -118.5q103 -60 206 -118.5t206 -118.5v-16q-110 63 -219 126.5t-219 126.5z" />
<glyph unicode="=" horiz-adv-x="708" d="M100 150v14h506v-14h-506zM100 344v14h506v-14h-506z" />
<glyph unicode="&#x3e;" horiz-adv-x="650" d="M115 1q103 60 206 118.5t206 118.5q-103 60 -206 118.5t-206 118.5v16q110 -63 219 -126.5t219 -126.5q-110 -63 -219 -126.5t-219 -126.5v16z" />
<glyph unicode="?" horiz-adv-x="452" d="M31 599q20 58 70 95.5t115 37.5q41 0 77 -15.5t62.5 -42t41.5 -62t15 -75.5q0 -54 -26.5 -94.5t-71.5 -72.5q-20 -14 -36.5 -23.5t-29 -21.5t-19.5 -31t-7 -52v-78h-14v97q0 31 11.5 49.5t30 33t42 29t47.5 35.5q31 27 45 59.5t14 69.5q0 39 -14 72t-38.5 57.5t-58 38 t-71.5 13.5q-30 0 -57 -9t-50 -25t-39.5 -38.5t-25.5 -49.5q-3 1 -6.5 1.5t-6.5 1.5zM196 45q0 9 6 14.5t13 5.5q8 0 14 -5.5t6 -14.5q0 -8 -6 -14t-14 -6q-7 0 -13 6t-6 14z" />
<glyph unicode="@" horiz-adv-x="990" d="M94 189q0 82 31 154t84.5 126t125.5 85t154 31t154 -31t126 -85t85 -126.5t31 -154.5q-2 -59 -14 -96t-31 -57.5t-42.5 -27.5t-48.5 -7h-78v54q0 16 0.5 31.5t0.5 31.5q-11 -27 -29 -49.5t-41.5 -39t-52 -25.5t-59.5 -9q-41 0 -76 15t-61.5 41.5t-41.5 61.5t-15 76 q0 40 15 76t41.5 62t61.5 41.5t76 15.5q62 0 110.5 -34.5t70.5 -88.5q0 29 1 57.5t3 57.5h10v-362h71q54 0 83.5 42t31.5 133q0 79 -30 149t-82 122t-121.5 82t-148.5 30t-148.5 -30t-121 -82t-81.5 -122t-30 -149t30 -148.5t81.5 -121t121 -81.5t148.5 -30q62 0 117 19 t102 51q2 -3 4.5 -5.5t4.5 -5.5q-50 -34 -106 -53.5t-122 -19.5q-82 0 -154 31t-125.5 85t-84.5 126t-31 154zM310 188q0 -38 14 -70.5t38.5 -57t57 -38.5t70.5 -14q37 0 70 14t58 38.5t39 57t14 70.5q0 37 -14 70t-39 58t-58 39t-70 14q-38 0 -70.5 -14t-57 -39t-38.5 -58 t-14 -70z" />
<glyph unicode="A" horiz-adv-x="828" d="M35 0v14h74q76 180 152.5 358.5t152.5 359.5q76 -181 152 -359.5t152 -358.5h75v-14h-174v14h84q-32 75 -64 150.5t-64 151.5h-322q-32 -76 -64 -151.5t-64 -150.5h84v-14h-174zM259 330h310l-146 345l-9 25q-1 -2 -2 -5.5t-3 -8.5t-4 -11q-34 -88 -71.5 -173t-74.5 -172 z" />
<glyph unicode="B" horiz-adv-x="516" d="M35 0v14h71v672h-71v14h216q45 0 82.5 -10t64.5 -31t41.5 -54.5t14.5 -79.5q0 -62 -31 -109t-96 -64q30 -6 58 -20t49.5 -36t34 -51t12.5 -65q0 -45 -18 -78.5t-47.5 -56t-67.5 -34t-79 -11.5h-234zM120 14h148q40 0 76.5 10t63.5 30.5t43 51t16 71.5q0 43 -18.5 75 t-49 52t-69.5 30t-81 10h-129v-330zM120 358h147q80 0 126.5 47t46.5 123q0 42 -13 72t-36.5 49t-56 28t-71.5 9h-143v-328z" />
<glyph unicode="C" horiz-adv-x="610" d="M35 349q0 74 28 139.5t76.5 114t113.5 77t139 28.5q51 0 96.5 -13t86.5 -37v-112h-14v103q-38 22 -81 33.5t-88 11.5q-71 0 -133.5 -27.5t-109 -74.5t-73.5 -110t-27 -134t27 -133t73 -108.5t108 -73.5t132 -27q48 0 92.5 12.5t83.5 35.5l9 -12q-40 -23 -85.5 -36.5 t-96.5 -13.5q-74 0 -139 28t-113.5 76.5t-76.5 113.5t-28 139z" />
<glyph unicode="D" horiz-adv-x="632" d="M35 0v14h73v672h-73v14h210q72 0 136 -24.5t112 -70t76 -110.5t28 -145q0 -59 -20.5 -121t-66.5 -113t-119.5 -83.5t-179.5 -32.5h-176zM122 14h98q99 0 168.5 31.5t113 80t63 108t19.5 116.5q0 77 -26.5 139.5t-72.5 106t-106.5 67t-127.5 23.5h-129v-672z" />
<glyph unicode="E" horiz-adv-x="571" d="M35 0v14h82v672h-82v14h487v-154h-14v140h-377v-326h352v-14h-352v-332h391v140h14v-154h-501z" />
<glyph unicode="F" horiz-adv-x="557" d="M35 0v14h82v672h-82v14h487v-154h-14v140h-377v-326h352v-14h-352v-332h78v-14h-174z" />
<glyph unicode="G" horiz-adv-x="609" d="M35 347q0 74 28 139.5t76.5 114t113.5 77t139 28.5q51 0 96.5 -13t86.5 -37l-8 -12q-38 23 -82.5 35.5t-92.5 12.5q-71 0 -133.5 -27.5t-109 -74.5t-73.5 -110t-27 -134t27 -133t73 -108.5t108 -73.5t132 -27q47 0 90 11.5t81 33.5v235h-172v14h186v-258 q-40 -23 -85.5 -36.5t-96.5 -13.5q-74 0 -139 28t-113.5 76.5t-76.5 113.5t-28 139z" />
<glyph unicode="H" horiz-adv-x="716" d="M35 0v14h77v672h-77v14h174v-14h-83v-326h464v326h-83v14h174v-14h-77v-672h77v-14h-174v14h83v332h-464v-332h83v-14h-174z" />
<glyph unicode="I" horiz-adv-x="244" d="M35 0v14h77v672h-77v14h174v-14h-83v-672h83v-14h-174z" />
<glyph unicode="J" horiz-adv-x="255" d="M35 -128q37 2 68 17.5t54 44t36 68.5t13 91v593h-171v14h185v-610q0 -56 -14.5 -98.5t-40 -71.5t-59 -45t-71.5 -17v14z" />
<glyph unicode="K" horiz-adv-x="686" d="M35 0v14h77v672h-77v14h174v-14h-83v-326q0 -8 -0.5 -14.5t-0.5 -14.5l17 20l351 335h-64v14h174v-14h-88l-275 -262q81 -103 161.5 -205t161.5 -205h88v-14h-174v14h66q-78 100 -156.5 200t-157.5 200l-104 -98q0 -76 0.5 -151.5t0.5 -150.5h83v-14h-174z" />
<glyph unicode="L" horiz-adv-x="566" d="M35 0v14h77v672h-77v14h174v-14h-83v-672h391v140h14v-154h-496z" />
<glyph unicode="M" horiz-adv-x="961" d="M35 0v14h77v672h-77v14h100q66 -86 129 -168q27 -35 55.5 -72.5t56.5 -74.5t54.5 -71t47.5 -61q86 111 171.5 223.5t171.5 223.5h100v-14h-77v-672h82v-14h-174v14h78v631l1 45l-9 -12q-11 -15 -34 -44.5t-52.5 -68t-63.5 -83.5t-68.5 -90t-67 -87.5l-58.5 -76.5 q-95 124 -178.5 233t-165.5 216l-9 13q0 -11 0.5 -22.5t0.5 -22.5v-631h83v-14h-174z" />
<glyph unicode="N" horiz-adv-x="840" d="M35 0v14h77v672h-77v14h103l555 -672l19 -26l-3 32v652h-78v14h174v-14h-82v-718l-581 702l-18 20l2 -26v-650h83v-14h-174z" />
<glyph unicode="O" horiz-adv-x="786" d="M35 349q0 74 28 139.5t76.5 114t113.5 77t139 28.5t139.5 -28.5t114 -77t77 -114t28.5 -139.5t-28.5 -139t-77 -113.5t-114 -76.5t-139.5 -28t-139 28t-113.5 76.5t-76.5 113.5t-28 139zM49 348q0 -71 27 -133t73 -108.5t108 -73.5t132 -27q71 0 134.5 27t111 73.5 t75 109t27.5 133.5t-27.5 133.5t-74.5 109.5t-109.5 74.5t-133.5 27.5t-133.5 -27.5t-109 -74.5t-73.5 -110t-27 -134z" />
<glyph unicode="P" horiz-adv-x="481" d="M35 0v14h71v672h-71v14h211q29 0 64 -10t65 -31t50.5 -55t20.5 -82q0 -83 -55.5 -132t-158.5 -49h-112v-327h89v-14h-174zM120 355h115q58 0 96 16t60.5 40.5t31.5 54t9 56.5q0 33 -15 62.5t-41.5 52t-62 36t-77.5 13.5h-116v-331z" />
<glyph unicode="Q" horiz-adv-x="808" d="M35 349q0 74 28 139.5t76.5 114t113.5 77t139 28.5t139.5 -28.5t114 -77t77 -114t28.5 -139.5q0 -58 -17.5 -110.5t-48.5 -96t-74.5 -76.5t-94.5 -52h257v-14h-307q-38 -8 -74 -8q-74 0 -139 28t-113.5 76.5t-76.5 113.5t-28 139zM49 348q0 -71 27 -133t73 -108.5 t108 -73.5t132 -27q71 0 134.5 27t111 73.5t75 109t27.5 133.5t-27.5 133.5t-74.5 109.5t-109.5 74.5t-133.5 27.5t-133.5 -27.5t-109 -74.5t-73.5 -110t-27 -134z" />
<glyph unicode="R" horiz-adv-x="569" d="M35 0v14h71v672h-71v14h211q29 0 64 -10t65 -31t50.5 -55t20.5 -82q0 -69 -39 -115.5t-113 -60.5l156 -332h84v-14h-92l-163 344q-23 -3 -47 -3h-112v-327h89v-14h-174zM120 355h115q58 0 96 16t60.5 40.5t31.5 54t9 56.5q0 33 -15 62.5t-41.5 52t-62 36t-77.5 13.5h-116 v-331z" />
<glyph unicode="S" horiz-adv-x="478" d="M46 64v100h14v-90q29 -29 71.5 -48.5t104.5 -19.5q39 0 75 12.5t63.5 35.5t44.5 55.5t17 72.5q0 46 -15.5 76.5t-40.5 50t-57.5 31t-66.5 21t-67 20t-59.5 27t-44 42.5t-19.5 67v11q0 28 8 56q10 34 30.5 60.5t53.5 43t80 16.5q16 0 35.5 -2t39 -6.5t38.5 -13.5t35 -22 v-114h-14v107q-20 15 -54 26t-82 11q-39 0 -68.5 -13.5t-49 -36t-29 -51t-9.5 -59.5q0 -54 27 -82.5t67.5 -45t88 -27.5t89 -31.5t69.5 -56.5t29 -101v-5q0 -41 -16 -75q-16 -36 -45 -61.5t-68 -39t-83 -13.5q-40 0 -71.5 8t-55 19.5t-40 23.5t-25.5 21z" />
<glyph unicode="T" horiz-adv-x="623" d="M35 546v154h553v-154h-14v140h-256v-672h81v-14h-174v14h79v672h-255v-140h-14z" />
<glyph unicode="U" horiz-adv-x="674" d="M35 686v14h174v-14h-83v-457q0 -54 15.5 -95.5t43.5 -70t67 -43t85 -14.5q45 0 84 14.5t67 43t44 70t16 95.5v457h-83v14h174v-14h-77v-460q0 -57 -17.5 -101t-47.5 -73.5t-71 -44.5t-89 -15t-89.5 15t-71.5 44.5t-47 73.5t-17 101v460h-77z" />
<glyph unicode="V" horiz-adv-x="844" d="M35 686v14h174v-14h-76q70 -167 140 -331t140 -330l9 -25l9 25q70 166 140 330t140 331h-76v14h174v-14h-83q-76 -181 -152 -359.5t-152 -358.5q-76 180 -152.5 358.5t-152.5 359.5h-82z" />
<glyph unicode="W" horiz-adv-x="1220" d="M35 686v14h174v-14h-76q69 -167 138.5 -331.5t141.5 -329.5l9 -25q40 108 86.5 213.5t91.5 211.5q-27 65 -54.5 130t-55.5 131h-79v14h174v-14h-80q69 -167 138.5 -331.5t141.5 -329.5l9 -25l9 25q70 166 140 330t140 331h-72v14h174v-14h-87q-76 -181 -152 -359.5 t-152 -358.5l-177 417l-9 22q-48 -110 -93.5 -219.5t-92.5 -219.5q-76 180 -152.5 358.5t-152.5 359.5h-82z" />
<glyph unicode="X" horiz-adv-x="710" d="M35 0v14h89l221 346l-211 326h-99v14h174v-14h-59q51 -77 100 -153t99 -152l8 -13l8 13l195 305h-59v14h174v-14h-99q-53 -84 -105.5 -165.5t-105.5 -164.5q56 -87 111.5 -171.5t111.5 -170.5h87v-14h-174v14h70l-174 265q-11 17 -21.5 35t-22.5 34l-8 -13 q-51 -81 -103 -160.5t-103 -160.5h70v-14h-174z" />
<glyph unicode="Y" horiz-adv-x="718" d="M35 686v14h174v-14h-95q59 -98 117.5 -194t115.5 -194l12 -26h1l11 26l231 388h-93v14h174v-14h-64q-63 -107 -126.5 -212.5t-126.5 -211.5v-248h81v-14h-174v14h79v248q-64 106 -127.5 212t-127.5 212h-62z" />
<glyph unicode="Z" horiz-adv-x="629" d="M35 0v14l510 672h-493v49h16v-35h497v-14l-510 -672h525v160h14v-174h-559z" />
<glyph unicode="[" horiz-adv-x="338" d="M83 -149v895h163v-14h-147v-867h147v-14h-163z" />
<glyph unicode="\" horiz-adv-x="320" d="M17 736h14q70 -190 139 -377.5t139 -377.5h-14q-70 190 -139 377.5t-139 377.5z" />
<glyph unicode="]" horiz-adv-x="342" d="M88 -135h147v867h-147v14h163v-895h-163v14z" />
<glyph unicode="^" horiz-adv-x="470" d="M112 479q30 45 60 90.5t60 90.5q30 -45 60 -90.5t60 -90.5h-16q-26 38 -52 77t-52 77q-26 -38 -52 -77t-52 -77h-16z" />
<glyph unicode="_" horiz-adv-x="600" d="M100 0v14h400v-14h-400z" />
<glyph unicode="`" horiz-adv-x="200" d="M-14 612h16q23 -33 45 -66.5t45 -66.5h-16q-23 33 -45 66.5t-45 66.5z" />
<glyph unicode="a" d="M35 188q0 40 15 76t41.5 62t61.5 41.5t76 15.5q62 0 110.5 -34.5t70.5 -88.5q0 29 1 57.5t3 57.5h10v-361h73v-14h-87v54q0 16 0.5 31.5t0.5 31.5q-11 -27 -29 -49.5t-41.5 -39t-52 -25.5t-59.5 -9q-41 0 -76 15t-61.5 41.5t-41.5 61.5t-15 76zM49 188q0 -38 14 -70.5 t38.5 -57t57 -38.5t70.5 -14q37 0 70 14t58 38.5t39 57t14 70.5q0 37 -14 70t-39 58t-58 39t-70 14q-38 0 -70.5 -14t-57 -39t-38.5 -58t-14 -70z" />
<glyph unicode="b" d="M35 0v14h73v722h-73v14h87v-429v-61q10 27 28 49.5t41.5 39t52 25.5t59.5 9q40 0 75.5 -15.5t62 -41.5t41.5 -62t15 -76q0 -41 -15 -76t-41.5 -61.5t-62 -41.5t-75.5 -15q-31 0 -59.5 9t-52 25.5t-42 39t-28.5 49.5q0 -16 0.5 -31.5t0.5 -31.5v-54h-87zM122 188 q0 -38 14 -70.5t39 -57t57.5 -38.5t70.5 -14q37 0 70 14t57.5 38.5t38.5 57t14 70.5q0 37 -14 70t-38.5 58t-57.5 39t-70 14q-38 0 -70.5 -14t-57.5 -39t-39 -58t-14 -70z" />
<glyph unicode="c" horiz-adv-x="387" d="M35 188q0 40 15 76t41.5 62t61.5 41.5t76 15.5q35 0 66.5 -11.5t56.5 -31.5v-87h-14v79q-23 17 -50.5 27t-58.5 10q-38 0 -70.5 -14t-57 -39t-38.5 -58t-14 -70q0 -38 14 -70.5t38.5 -57t57 -38.5t70.5 -14q32 0 61 10.5t52 28.5l10 -10q-26 -20 -57 -31.5t-66 -11.5 q-41 0 -76 15t-61.5 41.5t-41.5 61.5t-15 76z" />
<glyph unicode="d" d="M35 188q0 40 15 76t41.5 62t61.5 41.5t76 15.5q31 0 59.5 -9t52 -25.5t41 -39t28.5 -49.5v119v357h-73v14h87v-736h73v-14h-87v54q0 16 0.5 31.5t0.5 31.5q-11 -27 -29 -49.5t-41.5 -39t-52 -25.5t-59.5 -9q-41 0 -76 15t-61.5 41.5t-41.5 61.5t-15 76zM49 188 q0 -38 14 -70.5t38.5 -57t57 -38.5t70.5 -14q37 0 70 14t58 38.5t39 57t14 70.5q0 37 -14 70t-39 58t-58 39t-70 14q-38 0 -70.5 -14t-57 -39t-38.5 -58t-14 -70z" />
<glyph unicode="e" horiz-adv-x="435" d="M35 188q0 40 15 76t41.5 62t61.5 41.5t76 15.5q58 0 103.5 -34.5t65.5 -89.5q-85 -35 -168.5 -68.5t-168.5 -68.5q20 -51 65 -82.5t103 -31.5q36 0 68 13t56 36q2 -3 4.5 -5.5t4.5 -5.5q-26 -24 -60 -38t-73 -14q-41 0 -76 15t-61.5 41.5t-41.5 61.5t-15 76zM52 220 q-3 -17 -4 -33q0 -26 8 -52q81 33 162 65.5t162 65.5q-20 46 -60.5 74.5t-90.5 28.5q-45 0 -82.5 -20.5t-62 -53.5t-32.5 -75z" />
<glyph unicode="f" horiz-adv-x="281" d="M35 0v14h61v347h-61v14h61v143q0 55 14.5 98t40 72t59 44.5t71.5 17.5v-14q-34 0 -65 -15t-54.5 -43t-37.5 -67.5t-14 -88.5v-147h130v-14h-130v-347h99v-14h-174z" />
<glyph unicode="g" horiz-adv-x="533" d="M35 188q0 40 15 76t41.5 62t61.5 41.5t76 15.5q62 0 110.5 -34.5t70.5 -88.5q0 29 1 57.5t3 57.5h84v-14h-74v-379q0 -56 -14.5 -98.5t-40 -71.5t-59 -45t-71.5 -17q-41 2 -83 14.5t-68 45.5l13 7q24 -30 63 -41.5t75 -11.5q34 0 65.5 15t54.5 43t37 67.5t14 88.5v76 q0 16 0.5 31.5t0.5 31.5q-11 -27 -29 -49.5t-41.5 -39t-52 -25.5t-59.5 -9q-41 0 -76 15t-61.5 41.5t-41.5 61.5t-15 76zM49 188q0 -38 14 -70.5t38.5 -57t57 -38.5t70.5 -14q37 0 70 14t58 38.5t39 57t14 70.5q0 37 -14 70t-39 58t-58 39t-70 14q-38 0 -70.5 -14t-57 -39 t-38.5 -58t-14 -70z" />
<glyph unicode="h" horiz-adv-x="522" d="M35 0v14h79v722h-73v14h87v-428l-3 -45q20 47 64 76t101 29q53 0 83.5 -31t32.5 -81v-256h81v-14h-174v14h79v263q-2 36 -26.5 62.5t-68.5 28.5q-34 0 -64.5 -11t-54 -30.5t-37 -47t-13.5 -59.5v-206h81v-14h-174z" />
<glyph unicode="i" horiz-adv-x="244" d="M35 0v14h82v347h-82v14h96v-361h78v-14h-174zM104 500q0 8 6 14t14 6t14 -6t6 -14t-6 -14t-14 -6t-14 6t-6 14z" />
<glyph unicode="j" horiz-adv-x="166" d="M35 361v14h96v-382q0 -57 -15.5 -100.5t-41.5 -72.5l-12 9q25 28 40 68.5t15 91.5v372h-82zM104 500q0 8 6 14t14 6t14 -6t6 -14t-6 -14t-14 -6t-14 6t-6 14z" />
<glyph unicode="k" horiz-adv-x="487" d="M34 736v14h87v-574l198 185h-76v14h174v-14h-79q-18 -18 -34 -33t-31 -30t-31 -30t-35 -33q40 -56 80.5 -111t81.5 -110h83v-14h-174v14h73q-39 53 -78.5 105t-77.5 106l-74 -70v-141h88v-14h-174v14h72v722h-73z" />
<glyph unicode="l" horiz-adv-x="244" d="M34 736v14h87v-736h88v-14h-174v14h72v722h-73z" />
<glyph unicode="m" horiz-adv-x="800" d="M35 0v14h79v347h-75v14h83l2 -53q0 -13 0.5 -22.5t0.5 -22.5q20 47 64 76t101 29q49 0 79.5 -27.5t35.5 -72.5q21 45 64.5 72.5t98.5 27.5q53 0 83.5 -31t32.5 -81v-256h81v-14h-174v14h79v263q-2 36 -26.5 62.5t-68.5 28.5q-33 0 -63 -10.5t-53 -29.5t-37.5 -45 t-15.5 -57v-212h81v-14h-174v14h79v263q-2 36 -26.5 62.5t-68.5 28.5q-34 0 -64.5 -11t-54 -30.5t-37 -47t-13.5 -59.5v-206h81v-14h-174z" />
<glyph unicode="n" horiz-adv-x="522" d="M35 0v14h79v347h-75v14h83l2 -53q0 -13 0.5 -22.5t0.5 -22.5q20 47 64 76t101 29q53 0 83.5 -31t32.5 -81v-256h81v-14h-174v14h79v263q-2 36 -26.5 62.5t-68.5 28.5q-34 0 -64.5 -11t-54 -30.5t-37 -47t-13.5 -59.5v-206h81v-14h-174z" />
<glyph unicode="o" horiz-adv-x="461" d="M36 188q0 40 15 76t41.5 62.5t61.5 42t76 15.5q40 0 76 -15.5t62.5 -42t42 -62.5t15.5 -76q0 -41 -15.5 -76t-42 -61.5t-62.5 -41.5t-76 -15q-41 0 -76 15t-61.5 41.5t-41.5 61.5t-15 76zM50 188q0 -38 14 -70.5t38.5 -57t57 -38.5t70.5 -14q37 0 70 14t58 38.5t39 57 t14 70.5q0 37 -14 70t-39 58t-58 39t-70 14q-38 0 -70.5 -14t-57 -39t-38.5 -58t-14 -70z" />
<glyph unicode="p" d="M35 361v14h83q0 -29 1.5 -59t1.5 -59q21 55 70 89.5t112 34.5q40 0 75.5 -15t62 -41.5t41.5 -62t15 -75.5q0 -41 -15 -76.5t-41.5 -61.5t-62 -41.5t-75.5 -15.5q-31 0 -59.5 9t-52 25.5t-41.5 39t-28 49.5q0 -14 0.5 -27t0.5 -27v-297h93v-14h-174v14h66v597h-73z M122 187q0 -38 14 -70.5t39 -57.5t57.5 -39t70.5 -14q37 0 70 14t57.5 39t38.5 57.5t14 70.5q0 37 -14 70t-38.5 57.5t-57.5 38.5t-70 14q-38 0 -70.5 -14t-57.5 -38.5t-39 -57.5t-14 -70z" />
<glyph unicode="q" d="M35 187q0 40 15 75.5t41.5 62t61.5 41.5t76 15q63 0 112 -34.5t70 -89.5q0 29 1.5 59t1.5 59h83v-14h-73v-597h71v-14h-174v14h88v297q0 14 0.5 27t0.5 27q-11 -27 -28.5 -49.5t-41 -39t-52 -25.5t-59.5 -9q-41 0 -76 15.5t-61.5 41.5t-41.5 61.5t-15 76.5zM49 187 q0 -38 14 -70.5t38.5 -57.5t57 -39t70.5 -14q37 0 70 14t58 39t39 57.5t14 70.5q0 37 -14 70t-39 57.5t-58 38.5t-70 14q-38 0 -70.5 -14t-57 -38.5t-38.5 -57.5t-14 -70z" />
<glyph unicode="r" horiz-adv-x="326" d="M35 0v14h79v347h-75v14h83l2 -53q0 -13 0.5 -22.5t0.5 -22.5q21 48 65 75.5t101 29.5v-14q-33 -1 -62.5 -12.5t-52 -31t-35.5 -46.5t-13 -58v-206h81v-14h-174z" />
<glyph unicode="s" horiz-adv-x="315" d="M55 26v65h14v-59q23 -17 50.5 -21.5t52.5 -4.5q15 0 32 6t31.5 17.5t24.5 28.5t10 40q0 31 -15 48t-37 26.5t-48.5 16.5t-48.5 16.5t-37 26.5t-15 48q0 24 8.5 42t23 31t32.5 19.5t37 6.5h12t27.5 -3t32 -9t27.5 -18v-65h-14v59q-9 9 -23 13.5t-27.5 6.5t-24 2h-12.5 q-13 0 -27.5 -4t-27.5 -13.5t-21.5 -25t-8.5 -41.5q0 -27 14 -41q15 -16 37.5 -25t48.5 -15.5t48.5 -17.5t37.5 -29.5t15 -51.5q0 -19 -7 -38.5t-21.5 -35t-36 -25.5t-51.5 -10q-5 0 -18.5 1t-30.5 4t-34.5 10t-29.5 19z" />
<glyph unicode="t" horiz-adv-x="300" d="M35 361v14h89v244h14v-244h127v-14h-127v-347h87v-14h-101v361h-89z" />
<glyph unicode="u" horiz-adv-x="518" d="M35 361v14h93v-277q2 -36 26.5 -62.5t68.5 -28.5q34 0 64.5 11t53.5 30.5t37 47t14 59.5v206h-79v14h93v-361h77v-14h-83l-3 53l-2 45q-20 -48 -64.5 -76.5t-100.5 -28.5q-53 0 -83.5 31t-32.5 81v256h-79z" />
<glyph unicode="v" horiz-adv-x="590" d="M35 361v14h161v-14h-74q44 -88 87.5 -176.5t88.5 -176.5l86 172t90 181h-58v14h139v-14h-66q-48 -97 -95.5 -192t-95.5 -192q-48 97 -95.5 192t-95.5 192h-72z" />
<glyph unicode="w" horiz-adv-x="860" d="M35 361v14h161v-14h-74q44 -89 87.5 -177t88.5 -176q32 65 64 129t64 129q-12 23 -24 47t-23 48h-74v14h161v-14h-72q44 -89 87.5 -177t88.5 -176q45 89 88 176.5t88 176.5h-60v14h139v-14h-64q-48 -97 -95.5 -192t-95.5 -192l-136 274l-136 -274q-48 97 -95.5 192 t-95.5 192h-72z" />
<glyph unicode="x" horiz-adv-x="488" d="M35 0v14h72q32 43 62 86t62 87q-32 44 -64 86.5t-64 87.5h-68v14h174v-14h-88l119 -163l117 163h-78v14h174v-14h-79l-126 -175q32 -44 63 -86t63 -86h79v-14h-174v14h79q-30 42 -59.5 81.5t-58.5 79.5q-29 -41 -57.5 -81t-57.5 -80h84v-14h-174z" />
<glyph unicode="y" horiz-adv-x="590" d="M35 361v14h161v-14h-71q43 -88 86 -174t87 -173q42 83 85.5 171t87.5 176h-55v14h139v-14h-66q-75 -150 -148.5 -298.5t-148.5 -298.5h74v-14h-174v14h81q29 58 58 116.5t58 115.5q-46 91 -91.5 182t-90.5 183h-72z" />
<glyph unicode="z" horiz-adv-x="429" d="M35 0v14q84 88 162 173.5t162 173.5h-312v49h14v-35h316v-14q-84 -88 -162 -173.5t-162 -173.5h327v51h14v-65h-359z" />
<glyph unicode="{" horiz-adv-x="272" d="M30 287v24q24 1 39.5 14.5t24.5 33.5t12 43.5t3 43.5v182q0 45 7.5 69.5t19.5 35t27.5 12t31.5 1.5h37v-14h-57q-31 0 -41.5 -26t-10.5 -86v-150q0 -47 -5.5 -77t-14.5 -48.5t-21 -28.5t-25 -17q13 -8 25 -18t21 -29t14.5 -48.5t5.5 -75.5v-150q0 -60 10.5 -86t41.5 -26 h57v-14h-37q-20 0 -36 2t-27 16t-17 45.5t-6 90.5v146q0 20 -3 43.5t-12 43.5t-24.5 33.5t-39.5 14.5z" />
<glyph unicode="|" horiz-adv-x="219" d="M99 -232v932h14v-932h-14z" />
<glyph unicode="}" horiz-adv-x="320" d="M88 -134h57q31 0 41.5 26t10.5 86v187q0 34 7 57t17 38.5t21.5 24.5t20.5 14q-13 7 -25 17t-21 28.5t-14.5 48.5t-5.5 77v150q0 60 -10.5 86t-41.5 26h-57v14h37q16 0 31.5 -1.5t27.5 -12t19.5 -34.5t7.5 -70v-146v-28.5t2 -35.5t6 -37.5t13 -33.5t23 -25t35 -11v-24 q-32 -2 -48 -22.5t-23 -48t-7.5 -55.5t-0.5 -45v-146q0 -46 -7.5 -70.5t-19.5 -35t-27.5 -11.5t-31.5 -1h-37v14z" />
<glyph unicode="~" horiz-adv-x="489" d="M132 474q1 18 9 31t19.5 21t25.5 11.5t28 3.5q20 0 36.5 -10.5t32.5 -27.5q16 -18 28 -24t26 -6q8 0 18.5 2.5t20.5 8.5t17.5 16.5t9.5 27.5q3 -1 6.5 -1t6.5 -1q-1 -18 -9 -31t-19.5 -21t-25.5 -11.5t-28 -3.5q-20 0 -36.5 10.5t-32.5 27.5q-16 18 -28 24t-26 6 q-8 0 -18.5 -2.5t-20.5 -8.5t-17.5 -16.5t-9.5 -27.5q-3 1 -6.5 1t-6.5 1z" />
<glyph unicode="&#xa1;" horiz-adv-x="200" d="M81 484q0 -9 6 -14.5t13 -5.5q8 0 14 5.5t6 14.5q0 8 -6 14t-14 6q-7 0 -13 -6t-6 -14zM93 -210h14v584h-14v-584z" />
<glyph unicode="&#xa2;" horiz-adv-x="385" d="M36 188q0 39 14 73t38 60t56.5 42t70.5 19v56h14v-55q35 0 67 -11.5t57 -31.5l-1 -1h1v-87h-14v80q-23 17 -51 27t-59 10v-361q32 0 61.5 10.5t52.5 28.5l10 -10q-26 -20 -57.5 -31.5t-66.5 -11.5v-62h-14v63q-38 3 -70.5 19t-56.5 41.5t-38 59.5t-14 73zM50 188 q0 -36 12.5 -67.5t35 -55.5t52.5 -39t65 -18v360q-35 -3 -65 -18t-52.5 -39t-35 -55.5t-12.5 -67.5z" />
<glyph unicode="&#xa3;" horiz-adv-x="574" d="M26 0v14h44q18 0 28.5 7.5t15.5 24.5t6.5 46t1.5 72v147h-65v14h65v175q0 70 43.5 102t115.5 32q67 0 101.5 -24.5t54.5 -64.5l-10 -6q-13 24 -26 39.5t-30 24.5t-38.5 13t-51.5 4q-42 0 -70 -9.5t-44.5 -25.5t-23.5 -37t-7 -44v-179h129v-14h-129v-202q0 -29 -4.5 -55 t-18.5 -40h359v109h14v-123h-460z" />
<glyph unicode="&#xa4;" horiz-adv-x="500" d="M109 229l41 41q-35 38 -35 91q0 25 8.5 47t23.5 40l-38 38l10 10l38 -38q17 17 40.5 26.5t49.5 9.5t49.5 -10t40.5 -27l38 38l10 -10l-38 -38q15 -17 23.5 -39t8.5 -47q0 -26 -9.5 -49t-25.5 -41l41 -41l-10 -10l-41 41q-36 -33 -87 -33q-25 0 -47.5 8.5t-39.5 23.5 l-41 -41zM129 361q0 -25 9.5 -46.5t25.5 -37.5t37.5 -25.5t45.5 -9.5t45.5 9.5t37.5 25.5t25.5 37.5t9.5 46.5t-9.5 46.5t-25.5 37.5t-37.5 25.5t-45.5 9.5t-45.5 -9.5t-37.5 -25.5t-25.5 -37.5t-9.5 -46.5z" />
<glyph unicode="&#xa5;" horiz-adv-x="638" d="M13 686v14h174v-14h-95q58 -97 118.5 -192.5t114.5 -195.5l12 -26h1l11 26l231 388h-93v14h174v-14h-64q-61 -103 -122 -204.5t-122 -204.5h150v-14h-159v-1v-148h159v-14h-159v-86h81v-14h-174v14h79v86h-160v14h160v148q-1 0 -1 1h-159v14h151l-246 409h-62z" />
<glyph unicode="&#xa6;" horiz-adv-x="215" d="M102 117h14v-350h-14v350zM102 350v350h14v-350h-14z" />
<glyph unicode="&#xa7;" horiz-adv-x="500" d="M145 362q0 20 7.5 40t21.5 35.5t34 25t44 9.5q33 0 61 -16q-17 27 -34 56.5t-30.5 56.5t-22 49.5t-8.5 34.5q0 15 7.5 26.5t19.5 20.5t26 16t27 14q2 -3 3.5 -6t3.5 -6q-11 -7 -23.5 -13.5t-23.5 -13.5t-18.5 -16.5t-7.5 -22.5q0 -15 8.5 -36t25.5 -50l87 -151 q15 -27 15 -56q0 -21 -8 -41t-22.5 -36t-34.5 -25.5t-44 -9.5q-31 0 -59 17l64 -110q17 -30 24 -51t7 -35q0 -17 -7.5 -29t-19 -21t-25.5 -15.5t-27 -12.5q-2 3 -3.5 6t-3.5 6q11 7 23.5 13.5t23.5 13.5t18.5 16.5t7.5 22.5q0 15 -8.5 36t-25.5 50l-87 150q-16 26 -16 58z M159 363q0 -27 14 -52t37.5 -37t50.5 -12q20 0 37.5 8t30 21.5t19.5 31t7 35.5q0 24 -9.5 43t-24.5 31.5t-33.5 19.5t-37.5 7q-22 0 -39 -8.5t-28.5 -22.5t-17.5 -31t-6 -34z" />
<glyph unicode="&#xa8;" horiz-adv-x="370" d="M82 500q0 8 6 14t14 6t14 -6t6 -14t-6 -14t-14 -6t-14 6t-6 14zM247 500q0 8 6 14t14 6t14 -6t6 -14t-6 -14t-14 -6t-14 6t-6 14z" />
<glyph unicode="&#xa9;" horiz-adv-x="793" d="M145 372q0 55 19.5 102t54 81t81 53t100.5 19t100.5 -19t81 -53t54 -81t19.5 -102t-19.5 -101.5t-54 -80.5t-81 -53t-100.5 -19t-100.5 19t-81 53t-54 80.5t-19.5 101.5zM159 371q0 -51 19 -94.5t52 -76t76.5 -50.5t92.5 -18q50 0 94 18t77 50.5t52 76t19 94.5 q0 52 -19 96.5t-52 77t-77 50.5t-94 18q-49 0 -92.5 -18t-76.5 -50.5t-52 -77t-19 -96.5zM258 375q0 34 12.5 63.5t34.5 51.5t51.5 34.5t62.5 12.5q44 0 83 -22v-51h-7v47q-34 20 -76 20q-32 0 -60 -12.5t-49 -34t-33.5 -50t-12.5 -60.5t12 -60t33 -49t49 -33t60 -12 q22 0 42 5.5t37 15.5l4 -5q-18 -11 -38.5 -17t-43.5 -6q-33 0 -62.5 13t-51.5 35t-34.5 51.5t-12.5 62.5z" />
<glyph unicode="&#xaa;" horiz-adv-x="585" d="M83 442q0 28 11 54t30 45t44.5 30t54.5 11q45 0 80 -25t51 -63q0 20 0.5 41t2.5 41h7v-260h53v-10h-63v39v22.5v22.5q-7 -19 -20 -35.5t-30 -28t-37.5 -18t-43.5 -6.5q-29 0 -54.5 10.5t-44.5 30t-30 44.5t-11 55zM93 442q0 -28 10.5 -51.5t28 -41t41 -27.5t50.5 -10 t50.5 10t42 27.5t28.5 41t10 51.5q0 26 -10 50t-28.5 42t-42 28t-50.5 10t-50.5 -10t-41 -28t-28 -42t-10.5 -50z" />
<glyph unicode="&#xab;" horiz-adv-x="601" d="M117 239q43 41 85.5 80.5t85.5 80.5v-17q-35 -36 -71 -72t-71 -72q35 -37 71 -73t71 -73v-16zM288 239q43 41 85.5 80.5t85.5 80.5v-17q-35 -36 -71 -72t-71 -72q35 -37 71 -73t71 -73v-16z" />
<glyph unicode="&#xac;" horiz-adv-x="559" d="M100 227v14h360v-93h-14v79h-346z" />
<glyph unicode="&#xad;" horiz-adv-x="300" d="M53 184v14h184v-14h-184z" />
<glyph unicode="&#xae;" horiz-adv-x="801" d="M145 372q0 55 19.5 102t54 81t81 53t100.5 19t100.5 -19t81 -53t54 -81t19.5 -102t-19.5 -101.5t-54 -80.5t-81 -53t-100.5 -19t-100.5 19t-81 53t-54 80.5t-19.5 101.5zM159 371q0 -51 19 -94.5t52 -76t76.5 -50.5t92.5 -18q50 0 94 18t77 50.5t52 76t19 94.5 q0 52 -19 96.5t-52 77t-77 50.5t-94 18q-49 0 -92.5 -18t-76.5 -50.5t-52 -77t-19 -96.5zM311 210v7h33v317h-33v7h99q13 0 29.5 -4.5t31 -15t24 -26.5t9.5 -38q0 -33 -18 -54.5t-53 -28.5l73 -157h40v-7h-43l-77 163q-5 -1 -11 -1.5t-12 -0.5h-52v-154h42v-7h-82zM351 378 h54q27 0 45 7.5t28.5 19t15 25.5t4.5 27q0 31 -26.5 54t-66.5 23h-54v-156z" />
<glyph unicode="&#xaf;" horiz-adv-x="399" d="M85 492v14h230v-14h-230z" />
<glyph unicode="&#xb0;" horiz-adv-x="282" d="M61 559q0 33 22 55t55 22q32 0 54 -22t22 -55q0 -32 -22 -53.5t-54 -21.5q-33 0 -55 21.5t-22 53.5zM75 560q0 -26 18.5 -44t44.5 -18t44 18t18 44t-18 44t-44 18t-44.5 -18t-18.5 -44z" />
<glyph unicode="&#xb1;" horiz-adv-x="524" d="M86 136v14h360v-14h-360zM86 385v14h173v172h14v-172h173v-14h-173v-174h-14v174h-173z" />
<glyph unicode="&#xb2;" horiz-adv-x="398" d="M101 607q0 19 5.5 36t16.5 30t28 20t38 7q19 0 35 -7t27.5 -20t18 -30.5t6.5 -38.5q0 -28 -15 -56.5t-37.5 -56.5t-50 -55t-53.5 -54h172v56h6v-63h-196q32 31 62 60.5t53 58t37.5 55t14.5 49.5q0 28 -8 46t-20 29t-26 15.5t-26 4.5q-25 0 -40.5 -8.5t-24.5 -21.5 t-12.5 -28.5t-3.5 -27.5q0 -35 20 -57l-5 -4q-10 12 -16 26t-6 35z" />
<glyph unicode="&#xb3;" horiz-adv-x="419" d="M96 409l5 6q12 -14 29 -23t38 -9q19 0 36.5 7.5t30.5 20t20.5 29.5t7.5 36t-7.5 36t-20.5 29.5t-30.5 20t-36.5 7.5q-8 0 -15.5 -3t-14.5 -8l104 135h-134v-33h-7v40h157l-98 -124q22 1 42 -6t35 -20.5t24 -32.5t9 -41q0 -21 -8 -39t-22 -31.5t-32 -21.5t-39 -8 q-22 0 -40.5 9t-32.5 24z" />
<glyph unicode="&#xb4;" horiz-adv-x="218" d="M100 479q23 33 45 66.5t45 66.5h16q-23 -33 -45 -66.5t-45 -66.5h-16z" />
<glyph unicode="&#xb5;" horiz-adv-x="545" d="M38 361v14h93v-277q2 -36 26.5 -62.5t68.5 -28.5q34 0 64.5 11t53.5 30.5t37 47t14 59.5v206h-79v14h93v-361h77v-14h-83l-3 53l-2 45q-20 -48 -64.5 -76.5t-100.5 -28.5q-36 0 -62 15t-40 41v-250h-14v562h-79z" />
<glyph unicode="&#xb6;" horiz-adv-x="525" d="M38 586q0 34 12.5 64t34.5 52t52 35t64 13h285v-14h-108v-722h108v-14h-122v736h-149v-736h-14v423q-34 0 -64 12.5t-52 34.5t-34.5 52t-12.5 64z" />
<glyph unicode="&#xb7;" horiz-adv-x="163" d="M66 280q0 8 6 14t14 6t14 -6t6 -14t-6 -14t-14 -6t-14 6t-6 14z" />
<glyph unicode="&#xb8;" horiz-adv-x="452" d="M125 -165q4 1 7.5 2t7.5 2q6 -21 23.5 -34.5t42.5 -13.5q31 0 50.5 20.5t19.5 51.5q0 28 -13 43t-28.5 25.5t-28.5 21.5t-13 31v16h14v-6q0 -26 14 -36.5t27 -18.5q23 -15 32.5 -33.5t9.5 -32.5q0 -51 -25.5 -73.5t-58.5 -22.5q-26 0 -48.5 14.5t-32.5 43.5z" />
<glyph unicode="&#xb9;" horiz-adv-x="249" d="M70 694v6h58v-293h36v-6h-79v6h36v287h-51z" />
<glyph unicode="&#xba;" horiz-adv-x="469" d="M91 442q0 28 11 54t30 45.5t44 30.5t55 11q29 0 55 -11t45 -30.5t30 -45.5t11 -54q0 -30 -11 -55t-30 -44.5t-45 -30t-55 -10.5q-30 0 -55 10.5t-44 30t-30 44.5t-11 55zM101 442q0 -28 10 -51.5t28 -41t41 -27.5t51 -10q27 0 50.5 10t41.5 27.5t28 41t10 51.5 q0 26 -10 50t-28 42t-41.5 28t-50.5 10q-28 0 -51 -10t-41 -28t-28 -42t-10 -50z" />
<glyph unicode="&#xbb;" horiz-adv-x="601" d="M117 77l171 162q-43 41 -85.5 80.5t-85.5 80.5v-17q35 -36 71 -72t71 -72q-35 -37 -71 -73t-71 -73v-16zM288 77l171 162q-43 41 -85.5 80.5t-85.5 80.5v-17q35 -36 71 -72t71 -72q-35 -37 -71 -73t-71 -73v-16z" />
<glyph unicode="&#xbc;" horiz-adv-x="968" d="M138 685v10h90v-451h57v-10h-124v10h57v441h-80zM295 -19q70 190 139 377t139 377h14q-70 -190 -139 -377t-139 -377h-14zM501 136l272 354v-343h72v-11h-72v-126h62v-10h-129v10h57v126h-262zM524 147h239v312z" />
<glyph unicode="&#xbd;" horiz-adv-x="1069" d="M121 685v10h90v-451h57v-10h-123v10h56v441h-80zM295 -19q70 190 139 377t139 377h14q-70 -190 -139 -377t-139 -377h-14zM588 331q0 29 8.5 53t24 42t39.5 28.5t54 10.5q28 0 50.5 -10.5t39 -28.5t25.5 -43t9 -55q0 -41 -21 -81.5t-53.5 -80.5t-71.5 -79t-76 -77h244v80 h10v-90h-280q46 44 89 86.5t76 83.5t53 78.5t20 70.5q0 40 -11.5 66t-28.5 41.5t-36.5 22t-37.5 6.5q-35 0 -57.5 -12.5t-35.5 -31t-18 -40t-5 -40.5q0 -50 29 -80l-7 -6q-15 17 -23.5 37t-8.5 49z" />
<glyph unicode="&#xbe;" horiz-adv-x="1276" d="M154 251l7 10q19 -23 46 -36.5t59 -13.5q30 0 57.5 11.5t47.5 31.5t32 46.5t12 56.5t-12 56.5t-32 46t-47.5 31t-57.5 11.5q-12 0 -24 -4.5t-23 -12.5l163 212h-210v-52h-11v63h246l-153 -195q34 2 65.5 -9.5t55 -32t37.5 -50.5t14 -64q0 -33 -12.5 -61.5t-34 -49.5 t-50 -33.5t-61.5 -12.5q-34 0 -63.5 14t-50.5 37zM460 -19q70 190 139 377.5t139 377.5h14q-70 -190 -139 -377.5t-139 -377.5h-14zM700 136l272 354v-343h73v-11h-73v-126h62v-10h-130v10h58v126h-262zM722 147h240v312z" />
<glyph unicode="&#xbf;" horiz-adv-x="410" d="M37 2q0 54 26.5 94.5t71.5 72.5q20 14 36.5 23.5t29 21.5t19.5 31t7 52v78h14v-97q0 -31 -11.5 -49.5t-30 -33t-42 -29t-47.5 -35.5q-31 -27 -45 -59.5t-14 -69.5q0 -39 14 -72t38.5 -57.5t58 -38t71.5 -13.5q30 0 57 9t50 25t39.5 38.5t25.5 49.5q3 -1 6.5 -1.5 t6.5 -1.5q-20 -58 -70 -95.5t-115 -37.5q-41 0 -77 15.5t-62.5 42t-41.5 62t-15 75.5zM214 494q0 8 6 14t14 6q7 0 13 -6t6 -14q0 -9 -6 -14.5t-13 -5.5q-8 0 -14 5.5t-6 14.5z" />
<glyph unicode="&#xc0;" horiz-adv-x="828" d="M35 0v14h74q76 180 152.5 358.5t152.5 359.5q76 -181 152 -359.5t152 -358.5h75v-14h-174v14h84q-32 75 -64 150.5t-64 151.5h-322q-32 -76 -64 -151.5t-64 -150.5h84v-14h-174zM259 330h310l-146 345l-9 25q-1 -2 -2 -5.5t-3 -8.5t-4 -11q-34 -88 -71.5 -173t-74.5 -172 zM313 883h16q23 -33 45 -66.5t45 -66.5h-16q-23 33 -45 66.5t-45 66.5z" />
<glyph unicode="&#xc1;" horiz-adv-x="828" d="M35 0v14h74q76 180 152.5 358.5t152.5 359.5q76 -181 152 -359.5t152 -358.5h75v-14h-174v14h84q-32 75 -64 150.5t-64 151.5h-322q-32 -76 -64 -151.5t-64 -150.5h84v-14h-174zM259 330h310l-146 345l-9 25q-1 -2 -2 -5.5t-3 -8.5t-4 -11q-34 -88 -71.5 -173t-74.5 -172 zM408 750q23 33 45 66.5t45 66.5h16q-23 -33 -45 -66.5t-45 -66.5h-16z" />
<glyph unicode="&#xc2;" horiz-adv-x="828" d="M35 0v14h74q76 180 152.5 358.5t152.5 359.5q76 -181 152 -359.5t152 -358.5h75v-14h-174v14h84q-32 75 -64 150.5t-64 151.5h-322q-32 -76 -64 -151.5t-64 -150.5h84v-14h-174zM259 330h310l-146 345l-9 25q-1 -2 -2 -5.5t-3 -8.5t-4 -11q-34 -88 -71.5 -173t-74.5 -172 zM294 750q30 45 60 90.5t60 90.5q30 -45 60 -90.5t60 -90.5h-16q-26 38 -52 77t-52 77q-26 -38 -52 -77t-52 -77h-16z" />
<glyph unicode="&#xc3;" horiz-adv-x="828" d="M35 0v14h74q76 180 152.5 358.5t152.5 359.5q76 -181 152 -359.5t152 -358.5h75v-14h-174v14h84q-32 75 -64 150.5t-64 151.5h-322q-32 -76 -64 -151.5t-64 -150.5h84v-14h-174zM259 330h310l-146 345l-9 25q-1 -2 -2 -5.5t-3 -8.5t-4 -11q-34 -88 -71.5 -173t-74.5 -172 zM272 767q1 18 9 31t19.5 21t25.5 11.5t28 3.5q20 0 36.5 -10.5t32.5 -27.5q16 -18 28 -24t26 -6q8 0 18.5 2.5t20.5 8.5t17.5 16.5t9.5 27.5q3 -1 6.5 -1t6.5 -1q-1 -18 -9 -31t-19.5 -21t-25.5 -11.5t-28 -3.5q-20 0 -36.5 10.5t-32.5 27.5q-16 18 -28 24t-26 6 q-8 0 -18.5 -2.5t-20.5 -8.5t-17.5 -16.5t-9.5 -27.5q-3 1 -6.5 1t-6.5 1z" />
<glyph unicode="&#xc4;" horiz-adv-x="828" d="M35 0v14h74q76 180 152.5 358.5t152.5 359.5q76 -181 152 -359.5t152 -358.5h75v-14h-174v14h84q-32 75 -64 150.5t-64 151.5h-322q-32 -76 -64 -151.5t-64 -150.5h84v-14h-174zM259 330h310l-146 345l-9 25q-1 -2 -2 -5.5t-3 -8.5t-4 -11q-34 -88 -71.5 -173t-74.5 -172 zM312 790q0 8 6 14t14 6t14 -6t6 -14t-6 -14t-14 -6t-14 6t-6 14zM477 790q0 8 6 14t14 6t14 -6t6 -14t-6 -14t-14 -6t-14 6t-6 14z" />
<glyph unicode="&#xc5;" horiz-adv-x="828" d="M35 0v14h74q76 180 152.5 358.5t152.5 359.5q76 -181 152 -359.5t152 -358.5h75v-14h-174v14h84q-32 75 -64 150.5t-64 151.5h-322q-32 -76 -64 -151.5t-64 -150.5h84v-14h-174zM259 330h310l-146 345l-9 25q-1 -2 -2 -5.5t-3 -8.5t-4 -11q-34 -88 -71.5 -173t-74.5 -172 zM352 834q0 27 18 45t45 18t45 -18t18 -45t-18 -45t-45 -18t-45 18t-18 45zM366 834q0 -20 14.5 -34.5t34.5 -14.5t34.5 14.5t14.5 34.5t-14.5 34.5t-34.5 14.5t-34.5 -14.5t-14.5 -34.5z" />
<glyph unicode="&#xc6;" horiz-adv-x="775" d="M35 0v14h77q73 172 145 342.5t145 343.5h324v-154h-14v140h-296v-326h271v-14h-271v-332h310v140h14v-154h-338v316h-147q-32 -76 -64 -151.5t-64 -150.5h82v-14h-174zM261 330h141v336q-32 -86 -69 -168.5t-72 -167.5z" />
<glyph unicode="&#xc7;" horiz-adv-x="610" d="M35 349q0 74 28 139.5t76.5 114t113.5 77t139 28.5q51 0 96.5 -13t86.5 -37v-174h-14v165q-38 22 -81 33.5t-88 11.5q-71 0 -133.5 -27.5t-109 -74.5t-73.5 -110t-27 -134t27 -133t73 -108.5t108 -73.5t132 -27q48 0 92.5 12.5t83.5 35.5l9 -12q-40 -23 -85.5 -36.5 t-96.5 -13.5q0 -9 2 -13q5 -17 16.5 -25t22.5 -15q23 -15 32.5 -33.5t9.5 -32.5q0 -51 -25.5 -73.5t-58.5 -22.5q-26 0 -48.5 14.5t-32.5 43.5l15 4q6 -21 23.5 -34.5t42.5 -13.5q31 0 50.5 20.5t19.5 51.5q0 28 -13 43t-28.5 25.5t-28.5 21.5t-13 31v9q-72 3 -134.5 31.5 t-109 76.5t-73 112t-26.5 136z" />
<glyph unicode="&#xc8;" horiz-adv-x="571" d="M35 0v14h82v672h-82v14h487v-154h-14v140h-377v-326h352v-14h-352v-332h391v140h14v-154h-501zM199 883h16q23 -33 45 -66.5t45 -66.5h-16q-23 33 -45 66.5t-45 66.5z" />
<glyph unicode="&#xc9;" horiz-adv-x="571" d="M35 0v14h82v672h-82v14h487v-154h-14v140h-377v-326h352v-14h-352v-332h391v140h14v-154h-501zM277 750q23 33 45 66.5t45 66.5h16q-23 -33 -45 -66.5t-45 -66.5h-16z" />
<glyph unicode="&#xca;" horiz-adv-x="571" d="M35 0v14h82v672h-82v14h487v-154h-14v140h-377v-326h352v-14h-352v-332h391v140h14v-154h-501zM180 750q30 45 60 90.5t60 90.5q30 -45 60 -90.5t60 -90.5h-16q-26 38 -52 77t-52 77q-26 -38 -52 -77t-52 -77h-16z" />
<glyph unicode="&#xcb;" horiz-adv-x="571" d="M35 0v14h82v672h-82v14h487v-154h-14v140h-377v-326h352v-14h-352v-332h391v140h14v-154h-501zM194 790q0 8 6 14t14 6t14 -6t6 -14t-6 -14t-14 -6t-14 6t-6 14zM359 790q0 8 6 14t14 6t14 -6t6 -14t-6 -14t-14 -6t-14 6t-6 14z" />
<glyph unicode="&#xcc;" horiz-adv-x="244" d="M15 883h16q23 -33 45 -66.5t45 -66.5h-16q-23 33 -45 66.5t-45 66.5zM35 0v14h77v672h-77v14h174v-14h-83v-672h83v-14h-174z" />
<glyph unicode="&#xcd;" horiz-adv-x="244" d="M35 0v14h77v672h-77v14h174v-14h-83v-672h83v-14h-174zM119 750q23 33 45 66.5t45 66.5h16q-23 -33 -45 -66.5t-45 -66.5h-16z" />
<glyph unicode="&#xce;" horiz-adv-x="244" d="M1 750q30 45 60 90.5t60 90.5q30 -45 60 -90.5t60 -90.5h-16q-26 38 -52 77t-52 77q-26 -38 -52 -77t-52 -77h-16zM35 0v14h77v672h-77v14h174v-14h-83v-672h83v-14h-174z" />
<glyph unicode="&#xcf;" horiz-adv-x="241" d="M19 790q0 8 6 14t14 6t14 -6t6 -14t-6 -14t-14 -6t-14 6t-6 14zM35 0v14h77v672h-77v14h174v-14h-83v-672h83v-14h-174zM184 790q0 8 6 14t14 6t14 -6t6 -14t-6 -14t-14 -6t-14 6t-6 14z" />
<glyph unicode="&#xd0;" horiz-adv-x="632" d="M35 0v14h73v332h-64v14h64v326h-73v14h210q72 0 136 -24.5t112 -70t76 -110.5t28 -145q0 -59 -20.5 -121t-66.5 -113t-119.5 -83.5t-179.5 -32.5h-176zM122 15h98q99 0 168.5 31t113 80t63 108t19.5 116q0 77 -26.5 139.5t-72.5 106t-106.5 67t-127.5 23.5h-129v-326h224 v-14h-224v-331z" />
<glyph unicode="&#xd1;" horiz-adv-x="802" d="M35 0v14h77v672h-77v14h103l555 -672l19 -26l-3 32v652h-78v14h174v-14h-82v-718l-581 702l-18 20l2 -26v-650h83v-14h-174zM270 767q1 18 9 31t19.5 21t25.5 11.5t28 3.5q20 0 36.5 -10.5t32.5 -27.5q16 -18 28 -24t26 -6q8 0 18.5 2.5t20.5 8.5t17.5 16.5t9.5 27.5 q3 -1 6.5 -1t6.5 -1q-1 -18 -9 -31t-19.5 -21t-25.5 -11.5t-28 -3.5q-20 0 -36.5 10.5t-32.5 27.5q-16 18 -28 24t-26 6q-8 0 -18.5 -2.5t-20.5 -8.5t-17.5 -16.5t-9.5 -27.5q-3 1 -6.5 1t-6.5 1z" />
<glyph unicode="&#xd2;" horiz-adv-x="786" d="M35 349q0 74 28 139.5t76.5 114t113.5 77t139 28.5t139.5 -28.5t114 -77t77 -114t28.5 -139.5t-28.5 -139t-77 -113.5t-114 -76.5t-139.5 -28t-139 28t-113.5 76.5t-76.5 113.5t-28 139zM49 348q0 -71 27 -133t73 -108.5t108 -73.5t132 -27q71 0 134.5 27t111 73.5 t75 109t27.5 133.5t-27.5 133.5t-74.5 109.5t-109.5 74.5t-133.5 27.5t-133.5 -27.5t-109 -74.5t-73.5 -110t-27 -134zM284 883h16q23 -33 45 -66.5t45 -66.5h-16q-23 33 -45 66.5t-45 66.5z" />
<glyph unicode="&#xd3;" horiz-adv-x="786" d="M35 349q0 74 28 139.5t76.5 114t113.5 77t139 28.5t139.5 -28.5t114 -77t77 -114t28.5 -139.5t-28.5 -139t-77 -113.5t-114 -76.5t-139.5 -28t-139 28t-113.5 76.5t-76.5 113.5t-28 139zM49 348q0 -71 27 -133t73 -108.5t108 -73.5t132 -27q71 0 134.5 27t111 73.5 t75 109t27.5 133.5t-27.5 133.5t-74.5 109.5t-109.5 74.5t-133.5 27.5t-133.5 -27.5t-109 -74.5t-73.5 -110t-27 -134zM410 750q23 33 45 66.5t45 66.5h16q-23 -33 -45 -66.5t-45 -66.5h-16z" />
<glyph unicode="&#xd4;" horiz-adv-x="786" d="M35 349q0 74 28 139.5t76.5 114t113.5 77t139 28.5t139.5 -28.5t114 -77t77 -114t28.5 -139.5t-28.5 -139t-77 -113.5t-114 -76.5t-139.5 -28t-139 28t-113.5 76.5t-76.5 113.5t-28 139zM49 348q0 -71 27 -133t73 -108.5t108 -73.5t132 -27q71 0 134.5 27t111 73.5 t75 109t27.5 133.5t-27.5 133.5t-74.5 109.5t-109.5 74.5t-133.5 27.5t-133.5 -27.5t-109 -74.5t-73.5 -110t-27 -134zM277 750q30 45 60 90.5t60 90.5q30 -45 60 -90.5t60 -90.5h-16q-26 38 -52 77t-52 77q-26 -38 -52 -77t-52 -77h-16z" />
<glyph unicode="&#xd5;" horiz-adv-x="786" d="M35 349q0 74 28 139.5t76.5 114t113.5 77t139 28.5t139.5 -28.5t114 -77t77 -114t28.5 -139.5t-28.5 -139t-77 -113.5t-114 -76.5t-139.5 -28t-139 28t-113.5 76.5t-76.5 113.5t-28 139zM49 348q0 -71 27 -133t73 -108.5t108 -73.5t132 -27q71 0 134.5 27t111 73.5 t75 109t27.5 133.5t-27.5 133.5t-74.5 109.5t-109.5 74.5t-133.5 27.5t-133.5 -27.5t-109 -74.5t-73.5 -110t-27 -134zM257 767q1 18 9 31t19.5 21t25.5 11.5t28 3.5q20 0 36.5 -10.5t32.5 -27.5q16 -18 28 -24t26 -6q8 0 18.5 2.5t20.5 8.5t17.5 16.5t9.5 27.5q3 -1 6.5 -1 t6.5 -1q-1 -18 -9 -31t-19.5 -21t-25.5 -11.5t-28 -3.5q-20 0 -36.5 10.5t-32.5 27.5q-16 18 -28 24t-26 6q-8 0 -18.5 -2.5t-20.5 -8.5t-17.5 -16.5t-9.5 -27.5q-3 1 -6.5 1t-6.5 1z" />
<glyph unicode="&#xd6;" horiz-adv-x="786" d="M35 349q0 74 28 139.5t76.5 114t113.5 77t139 28.5t139.5 -28.5t114 -77t77 -114t28.5 -139.5t-28.5 -139t-77 -113.5t-114 -76.5t-139.5 -28t-139 28t-113.5 76.5t-76.5 113.5t-28 139zM49 348q0 -71 27 -133t73 -108.5t108 -73.5t132 -27q71 0 134.5 27t111 73.5 t75 109t27.5 133.5t-27.5 133.5t-74.5 109.5t-109.5 74.5t-133.5 27.5t-133.5 -27.5t-109 -74.5t-73.5 -110t-27 -134zM294 790q0 8 6 14t14 6t14 -6t6 -14t-6 -14t-14 -6t-14 6t-6 14zM459 790q0 8 6 14t14 6t14 -6t6 -14t-6 -14t-14 -6t-14 6t-6 14z" />
<glyph unicode="&#xd7;" horiz-adv-x="500" d="M130 10q31 31 61 61.5t61 61.5l-121 121l10 10l121 -121q31 31 61.5 61t61.5 61l10 -10q-31 -31 -61.5 -61t-61.5 -61l123 -123l-10 -10l-123 123q-31 -31 -61 -61.5t-61 -61.5z" />
<glyph unicode="&#xd8;" horiz-adv-x="786" d="M35 349q0 74 28 139.5t76.5 114t113.5 77t139 28.5q62 0 117.5 -20t101.5 -55q16 19 31 37.5t31 37.5q2 -2 4.5 -4t4.5 -4q-16 -19 -31 -37t-31 -37q60 -50 95.5 -121.5t35.5 -155.5q0 -74 -28.5 -139t-77 -113.5t-114 -76.5t-139.5 -28q-66 0 -125 22.5t-106 62.5 q-18 -21 -35.5 -42.5t-35.5 -42.5q-2 2 -4.5 4t-4.5 4q18 21 35.5 42.5t35.5 42.5q-54 49 -85.5 117t-31.5 147zM49 348q0 -76 30 -141t81 -112q111 133 220.5 263.5t220.5 263.5q-44 34 -97 53t-112 19q-71 0 -133.5 -27.5t-109 -74.5t-73.5 -110t-27 -134zM169 87 q45 -38 101 -59.5t119 -21.5q71 0 134.5 27t111 73.5t75 109t27.5 133.5q0 80 -34.5 149t-92.5 117z" />
<glyph unicode="&#xd9;" horiz-adv-x="674" d="M35 686v14h174v-14h-83v-457q0 -54 15.5 -95.5t43.5 -70t67 -43t85 -14.5q45 0 84 14.5t67 43t44 70t16 95.5v457h-83v14h174v-14h-77v-460q0 -57 -17.5 -101t-47.5 -73.5t-71 -44.5t-89 -15t-89.5 15t-71.5 44.5t-47 73.5t-17 101v460h-77zM238 883h16q23 -33 45 -66.5 t45 -66.5h-16q-23 33 -45 66.5t-45 66.5z" />
<glyph unicode="&#xda;" horiz-adv-x="674" d="M35 686v14h174v-14h-83v-457q0 -54 15.5 -95.5t43.5 -70t67 -43t85 -14.5q45 0 84 14.5t67 43t44 70t16 95.5v457h-83v14h174v-14h-77v-460q0 -57 -17.5 -101t-47.5 -73.5t-71 -44.5t-89 -15t-89.5 15t-71.5 44.5t-47 73.5t-17 101v460h-77zM339 750q23 33 45 66.5 t45 66.5h16q-23 -33 -45 -66.5t-45 -66.5h-16z" />
<glyph unicode="&#xdb;" horiz-adv-x="674" d="M35 686v14h174v-14h-83v-457q0 -54 15.5 -95.5t43.5 -70t67 -43t85 -14.5q45 0 84 14.5t67 43t44 70t16 95.5v457h-83v14h174v-14h-77v-460q0 -57 -17.5 -101t-47.5 -73.5t-71 -44.5t-89 -15t-89.5 15t-71.5 44.5t-47 73.5t-17 101v460h-77zM220 750q30 45 60 90.5 t60 90.5q30 -45 60 -90.5t60 -90.5h-16q-26 38 -52 77t-52 77q-26 -38 -52 -77t-52 -77h-16z" />
<glyph unicode="&#xdc;" horiz-adv-x="674" d="M35 686v14h174v-14h-83v-457q0 -54 15.5 -95.5t43.5 -70t67 -43t85 -14.5q45 0 84 14.5t67 43t44 70t16 95.5v457h-83v14h174v-14h-77v-460q0 -57 -17.5 -101t-47.5 -73.5t-71 -44.5t-89 -15t-89.5 15t-71.5 44.5t-47 73.5t-17 101v460h-77zM233 791q0 8 6 14t14 6t14 -6 t6 -14t-6 -14t-14 -6t-14 6t-6 14zM398 791q0 8 6 14t14 6t14 -6t6 -14t-6 -14t-14 -6t-14 6t-6 14z" />
<glyph unicode="&#xdd;" horiz-adv-x="718" d="M35 686v14h174v-14h-95q59 -98 117.5 -194t115.5 -194l12 -26h1l11 26l231 388h-93v14h174v-14h-64q-63 -107 -126.5 -212.5t-126.5 -211.5v-248h81v-14h-174v14h79v248q-64 106 -127.5 212t-127.5 212h-62zM372 750q23 33 45 66.5t45 66.5h16q-23 -33 -45 -66.5 t-45 -66.5h-16z" />
<glyph unicode="&#xde;" horiz-adv-x="481" d="M35 0v14h71v672h-71v14h174v-14h-89v-151h126q29 0 64 -10t65 -31t50.5 -55t20.5 -82q0 -83 -55.5 -132t-158.5 -49h-112v-162h89v-14h-174zM120 190h115q58 0 96 16t60.5 40.5t31.5 54t9 56.5q0 33 -15 62.5t-41.5 52t-62 36t-77.5 13.5h-116v-331z" />
<glyph unicode="&#xdf;" horiz-adv-x="542" d="M35 0v14h83v356h-65v14h65v42q0 55 14.5 98t40 72t59 44.5t71.5 17.5q29 -1 54.5 -12.5t44.5 -31t30 -45.5t11 -55q0 -44 -25.5 -77.5t-66.5 -47.5q33 -8 61.5 -26t49.5 -43.5t33 -57t12 -67.5q0 -42 -16.5 -79t-44 -64.5t-65 -43.5t-79.5 -16q-29 0 -56 8t-50 22l6 11 q44 -28 98 -28q40 0 75 15.5t61 41.5t41.5 60.5t15.5 72.5t-15 71.5t-41 59t-60.5 40.5t-73.5 15v7v8q26 0 49 8.5t40 24t27 36.5t10 46q0 26 -9.5 50t-26 42.5t-40 29.5t-50.5 11q-34 0 -65 -15t-54.5 -43t-37.5 -67.5t-14 -88.5v-430h-97z" />
<glyph unicode="&#xe0;" d="M35 188q0 40 15 76t41.5 62t61.5 41.5t76 15.5q62 0 110.5 -34.5t70.5 -88.5q0 29 1 57.5t3 57.5h10v-361h73v-14h-87v54q0 16 0.5 31.5t0.5 31.5q-11 -27 -29 -49.5t-41.5 -39t-52 -25.5t-59.5 -9q-41 0 -76 15t-61.5 41.5t-41.5 61.5t-15 76zM49 188q0 -38 14 -70.5 t38.5 -57t57 -38.5t70.5 -14q37 0 70 14t58 38.5t39 57t14 70.5q0 37 -14 70t-39 58t-58 39t-70 14q-38 0 -70.5 -14t-57 -39t-38.5 -58t-14 -70zM143 612h16q23 -33 45 -66.5t45 -66.5h-16q-23 33 -45 66.5t-45 66.5z" />
<glyph unicode="&#xe1;" d="M35 188q0 40 15 76t41.5 62t61.5 41.5t76 15.5q62 0 110.5 -34.5t70.5 -88.5q0 29 1 57.5t3 57.5h10v-361h73v-14h-87v54q0 16 0.5 31.5t0.5 31.5q-11 -27 -29 -49.5t-41.5 -39t-52 -25.5t-59.5 -9q-41 0 -76 15t-61.5 41.5t-41.5 61.5t-15 76zM49 188q0 -38 14 -70.5 t38.5 -57t57 -38.5t70.5 -14q37 0 70 14t58 38.5t39 57t14 70.5q0 37 -14 70t-39 58t-58 39t-70 14q-38 0 -70.5 -14t-57 -39t-38.5 -58t-14 -70zM232 479q23 33 45 66.5t45 66.5h16q-23 -33 -45 -66.5t-45 -66.5h-16z" />
<glyph unicode="&#xe2;" d="M35 188q0 40 15 76t41.5 62t61.5 41.5t76 15.5q62 0 110.5 -34.5t70.5 -88.5q0 29 1 57.5t3 57.5h10v-361h73v-14h-87v54q0 16 0.5 31.5t0.5 31.5q-11 -27 -29 -49.5t-41.5 -39t-52 -25.5t-59.5 -9q-41 0 -76 15t-61.5 41.5t-41.5 61.5t-15 76zM49 188q0 -38 14 -70.5 t38.5 -57t57 -38.5t70.5 -14q37 0 70 14t58 38.5t39 57t14 70.5q0 37 -14 70t-39 58t-58 39t-70 14q-38 0 -70.5 -14t-57 -39t-38.5 -58t-14 -70zM141 479q30 45 60 90.5t60 90.5q30 -45 60 -90.5t60 -90.5h-16q-26 38 -52 77t-52 77q-26 -38 -52 -77t-52 -77h-16z" />
<glyph unicode="&#xe3;" d="M35 188q0 40 15 76t41.5 62t61.5 41.5t76 15.5q62 0 110.5 -34.5t70.5 -88.5q0 29 1 57.5t3 57.5h10v-361h73v-14h-87v54q0 16 0.5 31.5t0.5 31.5q-11 -27 -29 -49.5t-41.5 -39t-52 -25.5t-59.5 -9q-41 0 -76 15t-61.5 41.5t-41.5 61.5t-15 76zM49 188q0 -38 14 -70.5 t38.5 -57t57 -38.5t70.5 -14q37 0 70 14t58 38.5t39 57t14 70.5q0 37 -14 70t-39 58t-58 39t-70 14q-38 0 -70.5 -14t-57 -39t-38.5 -58t-14 -70zM92 474q1 18 9 31t19.5 21t25.5 11.5t28 3.5q20 0 36.5 -10.5t32.5 -27.5q16 -18 28 -24t26 -6q8 0 18.5 2.5t20.5 8.5 t17.5 16.5t9.5 27.5q3 -1 6.5 -1t6.5 -1q-1 -18 -9 -31t-19.5 -21t-25.5 -11.5t-28 -3.5q-20 0 -36.5 10.5t-32.5 27.5q-16 18 -28 24t-26 6q-8 0 -18.5 -2.5t-20.5 -8.5t-17.5 -16.5t-9.5 -27.5q-3 1 -6.5 1t-6.5 1z" />
<glyph unicode="&#xe4;" d="M35 188q0 40 15 76t41.5 62t61.5 41.5t76 15.5q62 0 110.5 -34.5t70.5 -88.5q0 29 1 57.5t3 57.5h10v-361h73v-14h-87v54q0 16 0.5 31.5t0.5 31.5q-11 -27 -29 -49.5t-41.5 -39t-52 -25.5t-59.5 -9q-41 0 -76 15t-61.5 41.5t-41.5 61.5t-15 76zM49 188q0 -38 14 -70.5 t38.5 -57t57 -38.5t70.5 -14q37 0 70 14t58 38.5t39 57t14 70.5q0 37 -14 70t-39 58t-58 39t-70 14q-38 0 -70.5 -14t-57 -39t-38.5 -58t-14 -70zM139 500q0 8 6 14t14 6t14 -6t6 -14t-6 -14t-14 -6t-14 6t-6 14zM304 500q0 8 6 14t14 6t14 -6t6 -14t-6 -14t-14 -6t-14 6 t-6 14z" />
<glyph unicode="&#xe5;" d="M35 188q0 40 15 76t41.5 62t61.5 41.5t76 15.5q62 0 110.5 -34.5t70.5 -88.5q0 29 1 57.5t3 57.5h10v-361h73v-14h-87v54q0 16 0.5 31.5t0.5 31.5q-11 -27 -29 -49.5t-41.5 -39t-52 -25.5t-59.5 -9q-41 0 -76 15t-61.5 41.5t-41.5 61.5t-15 76zM49 188q0 -38 14 -70.5 t38.5 -57t57 -38.5t70.5 -14q37 0 70 14t58 38.5t39 57t14 70.5q0 37 -14 70t-39 58t-58 39t-70 14q-38 0 -70.5 -14t-57 -39t-38.5 -58t-14 -70zM182 540q0 27 18 45t45 18t45 -18t18 -45t-18 -45t-45 -18t-45 18t-18 45zM196 540q0 -20 14.5 -34.5t34.5 -14.5t34.5 14.5 t14.5 34.5t-14.5 34.5t-34.5 14.5t-34.5 -14.5t-14.5 -34.5z" />
<glyph unicode="&#xe6;" horiz-adv-x="580" d="M35 96q0 27 13 45t34 29.5t48 16t56 4.5h146v52q0 31 -5 54.5t-20 39t-43 23t-74 7.5q-14 0 -30 -3t-31 -8t-28 -11.5t-21 -12.5q-3 3 -6.5 6t-6.5 6q9 8 23.5 14.5t31.5 11.5t35 8t34 3q71 0 105 -17q37 17 80 17q58 0 103.5 -34.5t65.5 -89.5q-50 -20 -99.5 -40.5 t-99.5 -40.5v-48q0 -39 -9 -64.5t-32 -43.5q34 -14 71 -14q36 0 68 13t56 36q2 -3 4.5 -5.5t4.5 -5.5q-26 -24 -60 -38t-73 -14q-47 0 -84 18q-37 -20 -100 -20q-35 0 -64 5t-49.5 17t-32 32.5t-11.5 51.5zM49 97q0 -29 14 -47.5t35.5 -28.5t47 -13.5t48.5 -3.5q25 0 50 4.5 t44.5 16t31.5 31t12 49.5v72h-94q-16 0 -47.5 0.5t-63 -6t-55 -23.5t-23.5 -51zM310 354q20 -16 28 -43.5t8 -69.5v-50q45 18 90.5 36.5t90.5 36.5q-20 46 -60.5 74.5t-90.5 28.5q-34 0 -66 -13z" />
<glyph unicode="&#xe7;" horiz-adv-x="387" d="M35 188q0 40 15 76t41.5 62t61.5 41.5t76 15.5q35 0 66.5 -11.5t56.5 -31.5v-88h-14v80q-23 17 -50.5 27t-58.5 10q-38 0 -70.5 -14t-57 -39t-38.5 -58t-14 -70q0 -38 14 -70.5t38.5 -57t57 -38.5t70.5 -14q32 0 61 10.5t52 28.5l10 -10q-2 -1 -19.5 -10t-38.5 -18 t-38 -15.5t-17 -3.5q1 -22 15 -32.5t26 -18.5q23 -15 32.5 -33.5t9.5 -32.5q0 -51 -25.5 -73.5t-58.5 -22.5q-18 0 -34 6q-16 7 -28 19.5t-19 32.5l15 4q6 -22 24 -35t42 -13q31 0 50.5 20.5t19.5 51.5q0 28 -13 43t-28.5 25.5t-28.5 21.5t-13 31v10q-40 1 -74.5 16 t-60 41.5t-40.5 61.5t-15 75z" />
<glyph unicode="&#xe8;" horiz-adv-x="435" d="M35 188q0 40 15 76t41.5 62t61.5 41.5t76 15.5q58 0 103.5 -34.5t65.5 -89.5q-85 -35 -168.5 -68.5t-168.5 -68.5q20 -51 65 -82.5t103 -31.5q36 0 68 13t56 36q2 -3 4.5 -5.5t4.5 -5.5q-26 -24 -60 -38t-73 -14q-41 0 -76 15t-61.5 41.5t-41.5 61.5t-15 76zM51.5 220 q-8.5 -42 4.5 -85q81 33 162 65.5t162 65.5q-20 46 -60.5 74.5t-90.5 28.5q-45 0 -82.5 -20.5t-62 -53.5t-33 -75zM126 612h16q23 -33 45 -66.5t45 -66.5h-16q-23 33 -45 66.5t-45 66.5z" />
<glyph unicode="&#xe9;" horiz-adv-x="435" d="M35 188q0 40 15 76t41.5 62t61.5 41.5t76 15.5q58 0 103.5 -34.5t65.5 -89.5q-85 -35 -168.5 -68.5t-168.5 -68.5q20 -51 65 -82.5t103 -31.5q36 0 68 13t56 36q2 -3 4.5 -5.5t4.5 -5.5q-26 -24 -60 -38t-73 -14q-41 0 -76 15t-61.5 41.5t-41.5 61.5t-15 76zM51.5 220 q-8.5 -42 4.5 -85q81 33 162 65.5t162 65.5q-20 46 -60.5 74.5t-90.5 28.5q-45 0 -82.5 -20.5t-62 -53.5t-33 -75zM233 479q23 33 45 66.5t45 66.5h16q-23 -33 -45 -66.5t-45 -66.5h-16z" />
<glyph unicode="&#xea;" horiz-adv-x="435" d="M35 188q0 40 15 76t41.5 62t61.5 41.5t76 15.5q58 0 103.5 -34.5t65.5 -89.5q-85 -35 -168.5 -68.5t-168.5 -68.5q20 -51 65 -82.5t103 -31.5q36 0 68 13t56 36q2 -3 4.5 -5.5t4.5 -5.5q-26 -24 -60 -38t-73 -14q-41 0 -76 15t-61.5 41.5t-41.5 61.5t-15 76zM51.5 220 q-8.5 -42 4.5 -85q81 33 162 65.5t162 65.5q-20 46 -60.5 74.5t-90.5 28.5q-45 0 -82.5 -20.5t-62 -53.5t-33 -75zM110 479q30 45 60 90.5t60 90.5q30 -45 60 -90.5t60 -90.5h-16q-26 38 -52 77t-52 77q-26 -38 -52 -77t-52 -77h-16z" />
<glyph unicode="&#xeb;" horiz-adv-x="435" d="M35 188q0 40 15 76t41.5 62t61.5 41.5t76 15.5q58 0 103.5 -34.5t65.5 -89.5q-85 -35 -168.5 -68.5t-168.5 -68.5q20 -51 65 -82.5t103 -31.5q36 0 68 13t56 36q2 -3 4.5 -5.5t4.5 -5.5q-26 -24 -60 -38t-73 -14q-41 0 -76 15t-61.5 41.5t-41.5 61.5t-15 76zM51.5 220 q-8.5 -42 4.5 -85q81 33 162 65.5t162 65.5q-20 46 -60.5 74.5t-90.5 28.5q-45 0 -82.5 -20.5t-62 -53.5t-33 -75zM132 500q0 8 6 14t14 6t14 -6t6 -14t-6 -14t-14 -6t-14 6t-6 14zM297 500q0 8 6 14t14 6t14 -6t6 -14t-6 -14t-14 -6t-14 6t-6 14z" />
<glyph unicode="&#xec;" horiz-adv-x="244" d="M24 612h16q23 -33 45 -66.5t45 -66.5h-16q-23 33 -45 66.5t-45 66.5zM35 0v14h82v347h-82v14h96v-361h78v-14h-174z" />
<glyph unicode="&#xed;" horiz-adv-x="244" d="M35 0v14h82v347h-82v14h96v-361h78v-14h-174zM118 479q23 33 45 66.5t45 66.5h16q-23 -33 -45 -66.5t-45 -66.5h-16z" />
<glyph unicode="&#xee;" horiz-adv-x="244" d="M6 479q30 45 60 90.5t60 90.5q30 -45 60 -90.5t60 -90.5h-16q-26 38 -52 77t-52 77q-26 -38 -52 -77t-52 -77h-16zM35 0v14h82v347h-82v14h96v-361h78v-14h-174z" />
<glyph unicode="&#xef;" horiz-adv-x="244" d="M23 500q0 8 6 14t14 6t14 -6t6 -14t-6 -14t-14 -6t-14 6t-6 14zM35 0v14h82v347h-82v14h96v-361h78v-14h-174zM188 500q0 8 6 14t14 6t14 -6t6 -14t-6 -14t-14 -6t-14 6t-6 14z" />
<glyph unicode="&#xf0;" horiz-adv-x="459" d="M35 188q0 40 15 76t41.5 62t61.5 41.5t76 15.5q51 0 94 -24t69 -64q-6 28 -19.5 64.5t-35.5 78.5t-52.5 88t-72.5 94l-75 -81l-8 8q19 20 38 41t38 41q-22 23 -45 45.5t-49 42.5l6 9q48 -36 96 -89q17 20 35 38.5t35 38.5q2 -2 4 -3.5t4 -3.5q-18 -20 -35.5 -39 t-35.5 -39q41 -48 78 -103t65 -112t44.5 -114.5t16.5 -111.5q0 -41 -15.5 -76t-41.5 -61.5t-62 -41.5t-76 -15q-41 0 -76 15t-61.5 41.5t-41.5 61.5t-15 76zM49 188q0 -38 14 -70.5t38.5 -57t57 -38.5t70.5 -14q37 0 70 14t58 38.5t39 57t14 70.5q0 37 -14 70t-39 58t-58 39 t-70 14q-38 0 -70.5 -14t-57 -39t-38.5 -58t-14 -70z" />
<glyph unicode="&#xf1;" horiz-adv-x="522" d="M35 0v14h79v347h-75v14h83l2 -53q0 -13 0.5 -22.5t0.5 -22.5q20 47 64 76t101 29q53 0 83.5 -31t32.5 -81v-256h81v-14h-174v14h79v263q-2 36 -26.5 62.5t-68.5 28.5q-34 0 -64.5 -11t-54 -30.5t-37 -47t-13.5 -59.5v-206h81v-14h-174zM131 464q1 18 9 31t19.5 21 t25.5 11.5t28 3.5q20 0 36.5 -10.5t32.5 -27.5q16 -18 28 -24t26 -6q8 0 18.5 2.5t20.5 8.5t17.5 16.5t9.5 27.5q3 -1 6.5 -1t6.5 -1q-1 -18 -9 -31t-19.5 -21t-25.5 -11.5t-28 -3.5q-20 0 -36.5 10.5t-32.5 27.5q-16 18 -28 24t-26 6q-8 0 -18.5 -2.5t-20.5 -8.5 t-17.5 -16.5t-9.5 -27.5q-3 1 -6.5 1t-6.5 1z" />
<glyph unicode="&#xf2;" horiz-adv-x="461" d="M36 188q0 40 15 76t41.5 62.5t61.5 42t76 15.5q40 0 76 -15.5t62.5 -42t42 -62.5t15.5 -76q0 -41 -15.5 -76t-42 -61.5t-62.5 -41.5t-76 -15q-41 0 -76 15t-61.5 41.5t-41.5 61.5t-15 76zM50 188q0 -38 14 -70.5t38.5 -57t57 -38.5t70.5 -14q37 0 70 14t58 38.5t39 57 t14 70.5q0 37 -14 70t-39 58t-58 39t-70 14q-38 0 -70.5 -14t-57 -39t-38.5 -58t-14 -70zM133 612h16q23 -33 45 -66.5t45 -66.5h-16q-23 33 -45 66.5t-45 66.5z" />
<glyph unicode="&#xf3;" horiz-adv-x="461" d="M36 188q0 40 15 76t41.5 62.5t61.5 42t76 15.5q40 0 76 -15.5t62.5 -42t42 -62.5t15.5 -76q0 -41 -15.5 -76t-42 -61.5t-62.5 -41.5t-76 -15q-41 0 -76 15t-61.5 41.5t-41.5 61.5t-15 76zM50 188q0 -38 14 -70.5t38.5 -57t57 -38.5t70.5 -14q37 0 70 14t58 38.5t39 57 t14 70.5q0 37 -14 70t-39 58t-58 39t-70 14q-38 0 -70.5 -14t-57 -39t-38.5 -58t-14 -70zM231 479q23 33 45 66.5t45 66.5h16q-23 -33 -45 -66.5t-45 -66.5h-16z" />
<glyph unicode="&#xf4;" horiz-adv-x="461" d="M36 188q0 40 15 76t41.5 62.5t61.5 42t76 15.5q40 0 76 -15.5t62.5 -42t42 -62.5t15.5 -76q0 -41 -15.5 -76t-42 -61.5t-62.5 -41.5t-76 -15q-41 0 -76 15t-61.5 41.5t-41.5 61.5t-15 76zM50 188q0 -38 14 -70.5t38.5 -57t57 -38.5t70.5 -14q37 0 70 14t58 38.5t39 57 t14 70.5q0 37 -14 70t-39 58t-58 39t-70 14q-38 0 -70.5 -14t-57 -39t-38.5 -58t-14 -70zM115 479q30 45 60 90.5t60 90.5q30 -45 60 -90.5t60 -90.5h-16q-26 38 -52 77t-52 77q-26 -38 -52 -77t-52 -77h-16z" />
<glyph unicode="&#xf5;" horiz-adv-x="461" d="M36 188q0 40 15 76t41.5 62.5t61.5 42t76 15.5q40 0 76 -15.5t62.5 -42t42 -62.5t15.5 -76q0 -41 -15.5 -76t-42 -61.5t-62.5 -41.5t-76 -15q-41 0 -76 15t-61.5 41.5t-41.5 61.5t-15 76zM50 188q0 -38 14 -70.5t38.5 -57t57 -38.5t70.5 -14q37 0 70 14t58 38.5t39 57 t14 70.5q0 37 -14 70t-39 58t-58 39t-70 14q-38 0 -70.5 -14t-57 -39t-38.5 -58t-14 -70zM99 474q1 18 9 31t19.5 21t25.5 11.5t28 3.5q20 0 36.5 -10.5t32.5 -27.5q16 -18 28 -24t26 -6q8 0 18.5 2.5t20.5 8.5t17.5 16.5t9.5 27.5q3 -1 6.5 -1t6.5 -1q-1 -18 -9 -31 t-19.5 -21t-25.5 -11.5t-28 -3.5q-20 0 -36.5 10.5t-32.5 27.5q-16 18 -28 24t-26 6q-8 0 -18.5 -2.5t-20.5 -8.5t-17.5 -16.5t-9.5 -27.5q-3 1 -6.5 1t-6.5 1z" />
<glyph unicode="&#xf6;" horiz-adv-x="461" d="M36 188q0 40 15 76t41.5 62.5t61.5 42t76 15.5q40 0 76 -15.5t62.5 -42t42 -62.5t15.5 -76q0 -41 -15.5 -76t-42 -61.5t-62.5 -41.5t-76 -15q-41 0 -76 15t-61.5 41.5t-41.5 61.5t-15 76zM50 188q0 -38 14 -70.5t38.5 -57t57 -38.5t70.5 -14q37 0 70 14t58 38.5t39 57 t14 70.5q0 37 -14 70t-39 58t-58 39t-70 14q-38 0 -70.5 -14t-57 -39t-38.5 -58t-14 -70zM132 500q0 8 6 14t14 6t14 -6t6 -14t-6 -14t-14 -6t-14 6t-6 14zM297 500q0 8 6 14t14 6t14 -6t6 -14t-6 -14t-14 -6t-14 6t-6 14z" />
<glyph unicode="&#xf7;" horiz-adv-x="501" d="M68 210v14h360v-14h-360zM231 91q0 8 6 14t14 6t14 -6t6 -14t-6 -14t-14 -6t-14 6t-6 14zM231 341q0 8 6 14t14 6t14 -6t6 -14t-6 -14t-14 -6t-14 6t-6 14z" />
<glyph unicode="&#xf8;" horiz-adv-x="458" d="M35 188q0 40 15 76t41.5 62t61.5 41.5t76 15.5q32 0 61.5 -10t53.5 -27q8 9 15.5 18.5t15.5 18.5q2 -2 4.5 -4t4.5 -4q-8 -9 -15.5 -18.5t-15.5 -18.5q32 -26 51.5 -65.5t19.5 -84.5q0 -41 -15.5 -76t-41.5 -61.5t-62 -41.5t-76 -15q-36 0 -68 12t-58 33 q-10 -12 -19.5 -23.5t-19.5 -23.5q-2 2 -4.5 4t-4.5 4q10 12 19.5 23.5t19.5 23.5q-28 26 -43.5 62.5t-15.5 78.5zM49 188q0 -38 14.5 -71.5t39.5 -58.5q58 69 115.5 138.5t115.5 138.5q-22 16 -49 25t-56 9q-38 0 -70.5 -14t-57 -39t-38.5 -58t-14 -70zM112 50 q50 -42 117 -42q37 0 70 14t58 38.5t39 57t14 70.5q0 42 -18 78t-48 61q-58 -69 -116 -138.5t-116 -138.5z" />
<glyph unicode="&#xf9;" horiz-adv-x="518" d="M35 361v14h93v-277q2 -36 26.5 -62.5t68.5 -28.5q34 0 64.5 11t53.5 30.5t37 47t14 59.5v206h-79v14h93v-361h77v-14h-83l-3 53l-2 45q-20 -48 -64.5 -76.5t-100.5 -28.5q-53 0 -83.5 31t-32.5 81v256h-79zM152 612h16q23 -33 45 -66.5t45 -66.5h-16q-23 33 -45 66.5 t-45 66.5z" />
<glyph unicode="&#xfa;" horiz-adv-x="518" d="M35 361v14h93v-277q2 -36 26.5 -62.5t68.5 -28.5q34 0 64.5 11t53.5 30.5t37 47t14 59.5v206h-79v14h93v-361h77v-14h-83l-3 53l-2 45q-20 -48 -64.5 -76.5t-100.5 -28.5q-53 0 -83.5 31t-32.5 81v256h-79zM231 479q23 33 45 66.5t45 66.5h16q-23 -33 -45 -66.5 t-45 -66.5h-16z" />
<glyph unicode="&#xfb;" horiz-adv-x="518" d="M35 361v14h93v-277q2 -36 26.5 -62.5t68.5 -28.5q34 0 64.5 11t53.5 30.5t37 47t14 59.5v206h-79v14h93v-361h77v-14h-83l-3 53l-2 45q-20 -48 -64.5 -76.5t-100.5 -28.5q-53 0 -83.5 31t-32.5 81v256h-79zM146 479q30 45 60 90.5t60 90.5q30 -45 60 -90.5t60 -90.5h-16 q-26 38 -52 77t-52 77q-26 -38 -52 -77t-52 -77h-16z" />
<glyph unicode="&#xfc;" horiz-adv-x="518" d="M35 361v14h93v-277q2 -36 26.5 -62.5t68.5 -28.5q34 0 64.5 11t53.5 30.5t37 47t14 59.5v206h-79v14h93v-361h77v-14h-83l-3 53l-2 45q-20 -48 -64.5 -76.5t-100.5 -28.5q-53 0 -83.5 31t-32.5 81v256h-79zM157 500q0 8 6 14t14 6t14 -6t6 -14t-6 -14t-14 -6t-14 6t-6 14 zM322 500q0 8 6 14t14 6t14 -6t6 -14t-6 -14t-14 -6t-14 6t-6 14z" />
<glyph unicode="&#xfd;" horiz-adv-x="590" d="M35 361v14h161v-14h-71q43 -88 86 -174t87 -173q42 83 85.5 171t87.5 176h-55v14h139v-14h-66q-75 -150 -148.5 -298.5t-148.5 -298.5h74v-14h-174v14h81q29 58 58 116.5t58 115.5q-46 91 -91.5 182t-90.5 183h-72zM298 479q23 33 45 66.5t45 66.5h16q-23 -33 -45 -66.5 t-45 -66.5h-16z" />
<glyph unicode="&#xfe;" horiz-adv-x="498" d="M16 -236h77v972h-77v14h174v-14h-83v-415q0 -16 -0.5 -32t-0.5 -32q21 55 70 89.5t112 34.5q40 0 75.5 -15t62 -41.5t41.5 -62t15 -75.5q0 -41 -15 -76.5t-41.5 -61.5t-62 -41.5t-75.5 -15.5q-31 0 -59.5 9t-52 25.5t-41.5 39t-28 49.5q0 -14 0.5 -27t0.5 -27v-297h82 v-14h-174v14zM107 187q0 -38 14 -70.5t39 -57.5t57.5 -39t70.5 -14q37 0 70 14t57.5 39t38.5 57.5t14 70.5q0 37 -14 70t-38.5 57.5t-57.5 38.5t-70 14q-38 0 -70.5 -14t-57.5 -38.5t-39 -57.5t-14 -70z" />
<glyph unicode="&#xff;" horiz-adv-x="590" d="M35 361v14h161v-14h-71q43 -88 86 -174t87 -173q42 83 85.5 171t87.5 176h-55v14h139v-14h-66q-75 -150 -148.5 -298.5t-148.5 -298.5h74v-14h-174v14h81q29 58 58 116.5t58 115.5q-46 91 -91.5 182t-90.5 183h-72zM197 500q0 8 6 14t14 6t14 -6t6 -14t-6 -14t-14 -6 t-14 6t-6 14zM362 500q0 8 6 14t14 6t14 -6t6 -14t-6 -14t-14 -6t-14 6t-6 14z" />
<glyph unicode="&#x2000;" horiz-adv-x="465" />
<glyph unicode="&#x2001;" horiz-adv-x="931" />
<glyph unicode="&#x2002;" horiz-adv-x="465" />
<glyph unicode="&#x2003;" horiz-adv-x="931" />
<glyph unicode="&#x2004;" horiz-adv-x="310" />
<glyph unicode="&#x2005;" horiz-adv-x="232" />
<glyph unicode="&#x2006;" horiz-adv-x="155" />
<glyph unicode="&#x2007;" horiz-adv-x="155" />
<glyph unicode="&#x2008;" horiz-adv-x="116" />
<glyph unicode="&#x2009;" horiz-adv-x="186" />
<glyph unicode="&#x200a;" horiz-adv-x="51" />
<glyph unicode="&#x2010;" horiz-adv-x="300" d="M53 184v14h184v-14h-184z" />
<glyph unicode="&#x2011;" horiz-adv-x="300" d="M53 184v14h184v-14h-184z" />
<glyph unicode="&#x2012;" horiz-adv-x="300" d="M53 184v14h184v-14h-184z" />
<glyph unicode="&#x2013;" horiz-adv-x="509" d="M100 179v14h301v-14h-301z" />
<glyph unicode="&#x2014;" horiz-adv-x="700" d="M99 179v14h502v-14h-502z" />
<glyph unicode="&#x2018;" horiz-adv-x="164" d="M40 711q5 -2 9.5 -3.5t9.5 -3.5q-7 -35 2.5 -64.5t30.5 -49.5l-6 -18q-29 26 -41.5 62.5t-4.5 76.5z" />
<glyph unicode="&#x2019;" horiz-adv-x="164" d="M59 590q21 20 30.5 49.5t2.5 64.5q5 2 9.5 3.5t9.5 3.5q8 -40 -4.5 -76.5t-41.5 -62.5z" />
<glyph unicode="&#x201a;" horiz-adv-x="146" d="M20 -29q21 20 30.5 49.5t2.5 64.5q5 2 9.5 3.5t9.5 3.5q8 -40 -4.5 -76.5t-41.5 -62.5z" />
<glyph unicode="&#x201c;" horiz-adv-x="249" d="M31 711q5 -2 9.5 -3.5t9.5 -3.5q-7 -35 2.5 -64.5t30.5 -49.5l-6 -18q-29 26 -41.5 62.5t-4.5 76.5zM135 711q5 -2 9.5 -3.5t9.5 -3.5q-7 -35 2.5 -64.5t30.5 -49.5l-6 -18q-29 26 -41.5 62.5t-4.5 76.5z" />
<glyph unicode="&#x201d;" horiz-adv-x="248" d="M44 590q21 20 30.5 49.5t2.5 64.5q5 2 9.5 3.5t9.5 3.5q8 -40 -4.5 -76.5t-41.5 -62.5zM148 590q21 20 30.5 49.5t2.5 64.5q5 2 9.5 3.5t9.5 3.5q8 -40 -4.5 -76.5t-41.5 -62.5z" />
<glyph unicode="&#x201e;" horiz-adv-x="234" d="M20 -29q21 20 30.5 49.5t2.5 64.5q5 2 9.5 3.5t9.5 3.5q8 -40 -4.5 -76.5t-41.5 -62.5zM124 -29q21 20 30.5 49.5t2.5 64.5q5 2 9.5 3.5t9.5 3.5q8 -40 -4.5 -76.5t-41.5 -62.5z" />
<glyph unicode="&#x2022;" horiz-adv-x="479" d="M174 300q0 28 19 47t46 19q28 0 47 -19t19 -47q0 -27 -19 -46t-47 -19q-27 0 -46 19t-19 46z" />
<glyph unicode="&#x202f;" horiz-adv-x="186" />
<glyph unicode="&#x2039;" horiz-adv-x="392" d="M117 239q43 41 85.5 80.5t85.5 80.5v-17q-35 -36 -71 -72t-71 -72q35 -37 71 -73t71 -73v-16z" />
<glyph unicode="&#x203a;" horiz-adv-x="392" d="M117 77l171 162q-43 41 -85.5 80.5t-85.5 80.5v-17q35 -36 71 -72t71 -72q-35 -37 -71 -73t-71 -73v-16z" />
<glyph unicode="&#x205f;" horiz-adv-x="232" />
<glyph unicode="&#xe000;" horiz-adv-x="375" d="M0 0v375h375v-375h-375z" />
</font>
</defs>
</svg>
