<?xml version="1.0" standalone="no"?>
<!DOCTYPE svg PUBLIC "-//W3C//DTD SVG 1.1//EN" "http://www.w3.org/Graphics/SVG/1.1/DTD/svg11.dtd" >
<svg xmlns="http://www.w3.org/2000/svg">
<metadata></metadata>
<defs>
<font id="trocchi_boldbold" horiz-adv-x="406" >
<font-face units-per-em="1000" ascent="800" descent="-200" />
<missing-glyph horiz-adv-x="244" />
<glyph horiz-adv-x="1000" />
<glyph horiz-adv-x="1000" />
<glyph unicode="&#xd;" horiz-adv-x="1000" />
<glyph unicode=" "  horiz-adv-x="244" />
<glyph unicode="&#x09;" horiz-adv-x="244" />
<glyph unicode="&#xa0;" horiz-adv-x="244" />
<glyph unicode="!" horiz-adv-x="418" d="M121 90q0 37 26.5 63.5t63.5 26.5t63.5 -26.5t26.5 -63.5t-26.5 -63.5t-63.5 -26.5t-63.5 26.5t-26.5 63.5zM129 722h167l-60 -475h-47z" />
<glyph unicode="&#x22;" horiz-adv-x="326" d="M38 702q0 21 14.5 34.5t39.5 13.5q52 0 52 -48l-35 -252q-1 -15 -18 -15q-15 0 -18 15q-35 249 -35 252zM175 702q0 21 14.5 34.5t39.5 13.5q52 0 52 -48l-35 -252q-2 -15 -18 -15q-15 0 -18 15q-35 249 -35 252z" />
<glyph unicode="#" horiz-adv-x="632" d="M33 244v78h119l36 124h-108v78h131l76 260l80 -22l-70 -238h137l76 260l80 -22l-70 -238h91v-78h-114l-36 -124h103v-78h-126l-87 -297l-80 22l81 275h-137l-87 -297l-80 22l81 275h-96zM238 322h137l36 124h-137z" />
<glyph unicode="$" horiz-adv-x="681" d="M44 181q0 38 24.5 67t71.5 29q37 0 65 -25t28 -60q0 -28 -17.5 -53.5t-36.5 -29.5q62 -32 142 -37v238q-7 2 -14 5q-145 52 -199 104.5t-56 129.5v3q0 84 76.5 143t192.5 62v53l47 1v-55q34 -3 65.5 -9.5t63.5 -20.5t55.5 -33t38.5 -48t15 -65v-5q-1 -36 -20.5 -60.5 t-62.5 -24.5q-38 0 -64 20.5t-26 55.5q0 26 14 49.5t31 32.5q-40 17 -104 17h-6v-221q82 -31 128 -53.5t80 -50t46.5 -58t15.5 -76.5v-8q0 -88 -68.5 -147.5t-201.5 -63.5v-80l-47 -1v82q-55 2 -103.5 15t-88 36t-62.5 59.5t-23 82.5zM195 576q0 -34 24 -58t102 -56v200 q-120 -12 -126 -86zM368 73q62 6 96.5 32.5t34.5 66.5q0 37 -25.5 62t-105.5 58v-219z" />
<glyph unicode="%" horiz-adv-x="893" d="M23 549q0 77 51.5 133t144.5 56q92 0 143.5 -56.5t51.5 -133.5q0 -76 -50.5 -131.5t-143.5 -55.5q-94 0 -145.5 55.5t-51.5 132.5zM122 552q0 -51 25.5 -88.5t72.5 -37.5q46 0 71 37t25 88q0 50 -24.5 85t-72.5 35t-72.5 -34.5t-24.5 -84.5zM156 16l509 723l68 -50 l-509 -723zM489 170q0 77 51.5 133t144.5 56q92 0 143.5 -56.5t51.5 -133.5q0 -76 -50.5 -131.5t-143.5 -55.5q-94 0 -145.5 55.5t-51.5 132.5zM588 173q0 -51 25.5 -88.5t72.5 -37.5q46 0 71 37t25 88q0 50 -24.5 85t-72.5 35t-72.5 -34.5t-24.5 -84.5z" />
<glyph unicode="&#x26;" horiz-adv-x="884" d="M39 165q0 21 1.5 37.5t8 32.5t11 26.5t17.5 24.5t20 21.5t27.5 22t31 21.5t38.5 25t43 28q-71 117 -71 174q0 74 56 116.5t159 42.5q70 0 122 -38.5t52 -96.5q0 -63 -38.5 -110.5t-132.5 -106.5l111 -159l146 175h-84v77h281v-77h-88l-211 -250q50 -84 105 -84 q19 0 30.5 3t24.5 13t19.5 35t6.5 65v70h95v-61q0 -106 -34.5 -157.5t-136.5 -51.5q-54 0 -96.5 18.5t-92.5 74.5q-51 -44 -98.5 -67t-110.5 -23q-94 0 -153 49t-59 130zM173 190q0 -52 29.5 -77t73.5 -25q35 0 72 17t60 44l-121 179q-114 -71 -114 -138zM287 586 q0 -14 6 -32.5t12 -30.5t18 -33.5t16 -29.5q11 7 30.5 20.5t29 20t22.5 18t19 21t11 23.5t5 30q-1 34 -22 52t-53 18q-42 0 -68 -19t-26 -58z" />
<glyph unicode="(" horiz-adv-x="426" d="M36 355q0 102 34 194.5t105 158.5t164 75v-62q-86 -16 -129.5 -119.5t-43.5 -246.5q0 -144 43.5 -247t129.5 -119v-62q-139 14 -221 141t-82 287z" />
<glyph unicode=")" horiz-adv-x="426" d="M36 -11q86 16 129.5 119.5t43.5 246.5q0 144 -43.5 247t-129.5 119v62q139 -14 221 -141t82 -287q0 -102 -34 -194.5t-105 -158.5t-164 -75v62z" />
<glyph unicode="*" horiz-adv-x="789" d="M100 500l40 95l233 -133l-32 260h107l-32 -260l233 133l40 -95l-253 -79l187 -194l-84 -75l-144 237l-145 -237l-84 75l187 194z" />
<glyph unicode="+" horiz-adv-x="696" d="M122 231v97h170v187h112v-187h170v-97h-170v-186h-112v186h-170z" />
<glyph unicode="," horiz-adv-x="342" d="M58 79q0 34 23 59t65 25q43 0 76.5 -31.5t33.5 -90.5q0 -103 -111 -177q-3 -1 -6 -4l-31 46q28 15 53 42t25 49q0 21 -4 26q-17 -23 -51 -23t-53.5 23.5t-19.5 55.5z" />
<glyph unicode="-" d="M61 254v87h284v-87h-284z" />
<glyph unicode="." horiz-adv-x="397" d="M108 90q0 37 26.5 63.5t63.5 26.5t63.5 -26.5t26.5 -63.5t-26.5 -63.5t-63.5 -26.5t-63.5 26.5t-26.5 63.5z" />
<glyph unicode="/" horiz-adv-x="582" d="M120 -54l280 845l98 -32l-282 -844z" />
<glyph unicode="0" horiz-adv-x="550" d="M33 264q0 122 63 198t179 76t179 -76t63 -198q0 -121 -63 -199t-178 -78q-116 0 -179.5 77.5t-63.5 199.5zM158 268q0 -81 28.5 -137t89.5 -56q60 0 88 54.5t28 135.5t-28 136.5t-89 55.5t-89 -54.5t-28 -134.5z" />
<glyph unicode="1" horiz-adv-x="398" d="M22 453l184 71h73v-437h99v-87h-336v87h112v321l-102 -44z" />
<glyph unicode="2" horiz-adv-x="517" d="M42 376v3q0 62 69 111.5t163 49.5q93 0 151 -46.5t58 -132.5q0 -51 -28.5 -97t-109.5 -95l-126 -82h267l18 -167l-52 -5l-46 85h-336q-9 97 -10 97q207 158 219 167q45 34 62.5 59t17.5 60q0 37 -30 65t-76 28q-60 0 -102 -47q19 -5 34.5 -21t15.5 -40q0 -36 -21.5 -56.5 t-55.5 -20.5q-39 0 -60 26.5t-22 58.5z" />
<glyph unicode="3" horiz-adv-x="540" d="M31 371q0 80 61 124t159 44q101 0 155.5 -46t56.5 -110v-4q0 -110 -125 -142q89 -9 133.5 -56.5t44.5 -116.5q0 -90 -80.5 -149.5t-208.5 -63.5h-9q-72 0 -121.5 28t-52.5 77q0 31 17 50.5t52 19.5q30 0 48.5 -21t18.5 -47q0 -14 -5 -36q91 0 153.5 40t62.5 97v6 q-1 44 -33 76.5t-99 32.5q-27 0 -55 -5l-14 82q76 15 117 42t42 75v3q0 41 -31 71.5t-74 30.5q-59 0 -110 -44q18 -1 35.5 -21t17.5 -44q0 -32 -20 -52t-51 -20q-38 0 -61.5 25t-23.5 54z" />
<glyph unicode="4" horiz-adv-x="537" d="M28 80l261 451l146 -15v-433h114l-9 -83h-105v-122h109v-67h-347v67h114v122h-262zM146 83h165v312z" />
<glyph unicode="5" horiz-adv-x="531" d="M44 -45q0 32 16.5 51.5t51.5 19.5q31 0 49.5 -20.5t18.5 -47.5q0 -18 -5 -36q90 0 149 40t59 107v9q-10 143 -200 143q-33 0 -82 -7l-29 35l40 275h334l-29 -100h-220l-23 -121q35 4 50 4q134 0 206.5 -60.5t79.5 -148.5q1 -7 1 -20q0 -100 -76.5 -161.5t-213.5 -65.5 q-72 0 -124.5 28t-52.5 76z" />
<glyph unicode="6" horiz-adv-x="661" d="M72 326q0 185 76.5 298t210.5 113q87 0 148 -38.5t61 -98.5q0 -42 -21 -61t-65 -19q-58 0 -76 61q-2 10 -2 15q0 36 25 61q-23 5 -40 5q-47 0 -81.5 -27t-51 -65.5t-26 -77t-10.5 -65.5l-2 -27q49 68 165 68q100 -2 165 -67t65 -166q0 -100 -70.5 -173.5t-185.5 -73.5h-8 q-53 1 -100 20.5t-88 57.5t-65 105t-24 155zM217 272q0 -84 34.5 -133.5t92.5 -51.5q72 0 106 37t34 102q0 74 -30 107.5t-96 33.5q-96 -3 -140 -71q-1 -8 -1 -18v-6z" />
<glyph unicode="7" horiz-adv-x="509" d="M48 302v222h401l33 -80l-250 -609q-23 -55 -73 -55q-25 0 -43 17.5t-18 46.5q0 27 15 57l270 548h-239v-147h-96z" />
<glyph unicode="8" horiz-adv-x="628" d="M42 162q0 38 13.5 70.5t32.5 54t45.5 39t47 26.5t42.5 16q-68 41 -106.5 87.5t-38.5 112.5q0 77 64.5 123t172.5 46q67 0 121.5 -24.5t84.5 -65t30 -89.5q0 -33 -13 -62.5t-35 -51t-44 -36t-48 -26.5q38 -21 64.5 -40t52.5 -44.5t40 -56.5t15 -66v-4q0 -83 -76.5 -133.5 t-194.5 -50.5q-117 0 -193.5 48.5t-76.5 126.5zM176 183q0 -111 136 -111q60 0 97.5 25t37.5 74q0 17 -5 32t-16.5 29t-23 25t-31 24t-34.5 22t-39 22q-20 -6 -38.5 -15.5t-39 -26t-32.5 -42.5t-12 -58zM192 563q0 -39 34.5 -69t100.5 -66q103 45 103 135q0 45 -33.5 73.5 t-93.5 28.5q-52 0 -81.5 -28.5t-29.5 -73.5z" />
<glyph unicode="9" horiz-adv-x="659" d="M56 496v12q0 94 71.5 161t184.5 67h8q53 -1 100 -20.5t88 -57.5t65 -105t24 -155q0 -187 -84 -299.5t-222 -112.5q-85 0 -145.5 44t-60.5 103q0 44 21.5 68.5t64.5 24.5q36 0 56.5 -23.5t20.5 -52.5q0 -38 -19 -57q35 -17 67 -17q39 0 69 27t45.5 66t25.5 77.5t12 65.5 l3 27q-45 -63 -165 -63q-93 0 -159 60.5t-71 159.5zM185 505q2 -128 126 -128q48 1 86.5 17.5t53.5 33.5q1 8 1 18v6q0 84 -34.5 133.5t-92.5 51.5q-70 0 -105 -37t-35 -93v-2z" />
<glyph unicode=":" horiz-adv-x="397" d="M108 90q0 37 26.5 63.5t63.5 26.5t63.5 -26.5t26.5 -63.5t-26.5 -63.5t-63.5 -26.5t-63.5 26.5t-26.5 63.5zM108 434q0 37 26.5 63.5t63.5 26.5t63.5 -26.5t26.5 -63.5t-26.5 -63.5t-63.5 -26.5t-63.5 26.5t-26.5 63.5z" />
<glyph unicode=";" horiz-adv-x="397" d="M108 434q0 37 26.5 63.5t63.5 26.5t63.5 -26.5t26.5 -63.5t-26.5 -63.5t-63.5 -26.5t-63.5 26.5t-26.5 63.5zM113 72q0 31 21 54t60 23q40 0 70.5 -29t30.5 -83q0 -94 -102 -162q-3 -1 -6 -4l-28 42q27 15 49.5 39t22.5 45q0 19 -4 24q-15 -21 -47 -21q-31 0 -49 21 t-18 51z" />
<glyph unicode="=" horiz-adv-x="453" d="M47 171v72h359v-72h-359zM47 355v72h359v-72h-359z" />
<glyph unicode="&#x3e;" horiz-adv-x="450" d="M44 126v93l282 130l-282 134v91l391 -183v-96z" />
<glyph unicode="?" horiz-adv-x="532" d="M40 541v10q0 85 68.5 135.5t158.5 50.5q228 0 232 -186v-3q0 -40 -21 -78t-52.5 -70t-64.5 -61.5t-62 -64t-40 -66.5h-42q0 49 14.5 92.5t34.5 75t40.5 60t35 58.5t14.5 60q0 110 -115 110q-34 0 -64.5 -14t-42.5 -42q29 0 55 -17t26 -55q0 -36 -22 -59t-57 -23 q-43 0 -68.5 27t-27.5 60zM160 70q0 33 23.5 57t56.5 24q32 0 56.5 -24t24.5 -57q0 -32 -24.5 -56t-56.5 -24q-33 0 -56.5 24t-23.5 56z" />
<glyph unicode="@" horiz-adv-x="847" d="M29 335q0 171 123 293t303 122q87 0 158 -32t114.5 -84.5t67 -116t23.5 -129.5q0 -101 -62.5 -175t-156.5 -74q-102 0 -109 128q-22 -51 -66.5 -84t-88.5 -35q-49 -3 -89.5 39t-40.5 118q0 66 33 132.5t89.5 110.5t118.5 44q12 0 33.5 -18t36.5 -36l16 -19q13 37 17 49 h88q-1 -5 -18 -83.5t-33 -155t-16 -86.5q0 -59 41 -59q36 0 77 55t41 150q0 125 -75 210t-195 85q-148 0 -243 -106.5t-95 -255.5q0 -116 81.5 -194t226.5 -78q54 0 116.5 14.5t103.5 39.5l30 -49q-48 -32 -122 -51t-137 -19q-178 0 -284.5 99.5t-106.5 250.5zM301 316 q-7 -102 66 -102q34 0 75 49t50 89l5 28q5 28 10.5 57t5.5 32q-4 6 -11.5 15.5t-26.5 25t-35 15.5q-53 0 -93.5 -66t-45.5 -143z" />
<glyph unicode="A" horiz-adv-x="841" d="M9 0v87h106l229 655h173l221 -655h94v-87h-364v87h109l-50 161h-258l-54 -161h112v-87h-318zM294 324h209l-101 324z" />
<glyph unicode="B" horiz-adv-x="744" d="M20 0v88h119v564h-119v90h361q38 0 75 -4.5t78.5 -18t71 -35t47.5 -58.5t14 -86q-9 -108 -135 -144q175 -46 175 -189q0 -40 -11.5 -71.5t-30 -53t-46.5 -37t-55 -24t-62 -13.5t-62 -6.5t-59 -1.5h-361zM284 88h18q39 0 58 0.5t51 2.5t48 6.5t37 13.5t31 22.5t17.5 33.5 t7.5 47q0 130 -189 130h-79v-256zM284 434h79q69 0 109 21.5t40 80.5q0 33 -11.5 56t-27 34.5t-46.5 17.5t-55 7t-67 1h-21v-218z" />
<glyph unicode="C" horiz-adv-x="718" d="M44 379q0 151 102.5 264.5t258.5 113.5q64 0 123.5 -23.5t101.5 -76.5t42 -125q0 -34 -26 -62.5t-70 -28.5q-35 0 -58 18.5t-25 52.5v7q0 38 25.5 58t53.5 20q-44 65 -153 66q-69 1 -118 -43.5t-70.5 -108t-21.5 -134.5q0 -116 57 -201.5t160 -85.5q45 0 79.5 15 t55.5 42.5t33.5 54.5t21.5 62h90q-19 -131 -98.5 -204t-216.5 -73q-157 0 -252 114.5t-95 277.5z" />
<glyph unicode="D" horiz-adv-x="822" d="M20 0v87h119v565h-119v90h238q84 0 151.5 -7.5t139 -31.5t119.5 -63.5t79 -109.5t31 -164q0 -366 -494 -366h-264zM284 87q56 0 101 5.5t91 23.5t77 47t50.5 80t19.5 119q0 74 -20 128t-50.5 84.5t-77.5 48.5t-90.5 23t-100.5 5v-564z" />
<glyph unicode="E" horiz-adv-x="772" d="M20 0v87h119v565h-119v90h708v-283h-120v193h-324v-235h145v100h85v-300h-85v124h-145v-254h324v192h120v-279h-708z" />
<glyph unicode="F" horiz-adv-x="716" d="M20 0v87h119v565h-119v90h689v-278h-120v188h-305v-220h158v103h85v-303h-85v124h-158v-269h127v-87h-391z" />
<glyph unicode="G" horiz-adv-x="817" d="M44 370q0 100 45 187t133.5 143t201.5 57h3q68 0 132.5 -20.5t111.5 -66.5t47 -108q0 -35 -24.5 -62.5t-68.5 -27.5q-35 0 -59.5 20t-26.5 54v7q0 24 16.5 45.5t35.5 28.5q-59 36 -130 36h-5q-109 -2 -178 -81.5t-69 -207.5q0 -124 53.5 -204t159.5 -80h7q58 1 101 39.5 t51 88.5v79h-131v74h361v-74h-95v-291h-59l-34 107q-31 -63 -83 -94.5t-135 -31.5h-11q-111 1 -192.5 59t-119.5 143t-38 181z" />
<glyph unicode="H" horiz-adv-x="852" d="M20 0v87h119v565h-119v90h376v-90h-112v-225h284v225h-113v90h377v-90h-119v-565h119v-87h-377v87h113v264h-284v-264h112v-87h-376z" />
<glyph unicode="I" horiz-adv-x="426" d="M25 0v87h119v565h-119v90h376v-90h-112v-565h112v-87h-376z" />
<glyph unicode="J" horiz-adv-x="584" d="M16 80q0 53 30 81.5t71 28.5q35 0 61 -22.5t26 -60.5q0 -23 -9 -38t-19.5 -20.5t-19.5 -12t-9 -14.5q0 -18 21 -31.5t46 -13.5q24 0 42 7t29 23t17.5 31.5t9.5 44.5t3.5 49.5t0.5 57.5v462h-140v90h392v-90h-107v-410q0 -37 -0.5 -59t-5.5 -62t-13.5 -65.5t-26 -57.5 t-43 -51t-64.5 -32t-89 -13q-90 0 -146.5 51.5t-56.5 126.5z" />
<glyph unicode="K" horiz-adv-x="849" d="M20 0v87h119v565h-119v90h367v-90h-103v-283q4 1 24 21l19 19l258 243h-111v90h353v-90h-104l-240 -236l252 -329h104v-87h-369v87h99l-183 260l-102 -88v-172h103v-87h-367z" />
<glyph unicode="L" horiz-adv-x="671" d="M20 0v87h119v565h-119v90h390v-90h-126v-565h267v238h106v-325h-637z" />
<glyph unicode="M" horiz-adv-x="1053" d="M20 652v90h360l153 -431l143 431h350v-90h-137v-565h144v-87h-395v87h107v551l-190 -547q-11 -31 -35 -31q-12 0 -23 8t-16 20l-214 558v-559h123v-87h-361v87h128v565h-137z" />
<glyph unicode="N" horiz-adv-x="861" d="M20 0v87h118v565h-118v90h296l319 -524v434h-124v90h336v-90h-112v-652h-130l-365 602v-515h112v-87h-332z" />
<glyph unicode="O" horiz-adv-x="788" d="M44 372q0 72 22.5 139.5t64.5 123t110.5 89t152.5 33.5t152.5 -33.5t110.5 -89t64.5 -123t22.5 -139.5t-22.5 -139.5t-64.5 -123t-110.5 -89t-152.5 -33.5t-152.5 33.5t-110.5 89t-64.5 123t-22.5 139.5zM203 372q0 -72 21 -137t66 -109t104 -44t104 43.5t66 108 t21 136.5t-21 136.5t-66 109.5t-104 46q-59 0 -104 -44t-66 -109t-21 -137z" />
<glyph unicode="P" horiz-adv-x="689" d="M20 0v87h119v565h-119v90h356q301 0 301 -209q0 -46 -13.5 -81.5t-40.5 -57.5t-57 -36t-73.5 -20.5t-79 -8.5t-84.5 -2h-45v-240h122v-87h-386zM284 406h54q33 0 56 2t49 9t42 20t26.5 36t10.5 56q0 36 -11.5 60t-27 36.5t-47 18.5t-55 7t-67.5 1h-30v-246z" />
<glyph unicode="Q" horiz-adv-x="816" d="M44 372q0 72 22.5 139.5t64.5 123t110.5 89t152.5 33.5t152.5 -33.5t110.5 -89t64.5 -123t22.5 -139.5q0 -82 -28.5 -158t-82.5 -131q37 -40 75 -40q30 0 48.5 27.5t18.5 78.5v31h59v-31q0 -128 -43.5 -177t-122.5 -49q-88 0 -149 86q-58 -22 -125 -22q-84 0 -152.5 33.5 t-110.5 89t-64.5 123t-22.5 139.5zM203 372q0 -82 28 -155q43 73 127 79h14q97 0 176 -100q37 79 37 174q0 72 -21 136.5t-66 109.5t-104 46q-59 0 -104 -44t-66 -109t-21 -137zM262 159q54 -77 132 -77q39 0 72 19q-16 30 -25.5 46t-24.5 36t-31.5 28.5t-35.5 8.5 q-49 0 -87 -61z" />
<glyph unicode="R" horiz-adv-x="782" d="M20 0v87h119v565h-119v90h328q46 0 77.5 -1.5t76 -7.5t74.5 -19.5t59 -35t43.5 -57.5t14.5 -83q0 -85 -41 -126.5t-119 -58.5q39 -18 61 -53.5t28 -72.5t9.5 -72t12.5 -57.5t29 -22.5q49 0 49 115v64h65v-63q-3 -120 -35.5 -163t-104.5 -43h-4q-35 0 -59 7.5t-49.5 28.5 t-41 67.5t-19.5 117.5q-3 45 -12 76.5t-19 44t-19 13.5h-1.5h-2.5h-4.5t-7.5 -0.5t-12 -0.5h-17.5h-23.5t-31.5 -0.5t-39.5 -0.5v-251h112v-87h-376zM284 420h60t50 1.5t44.5 4.5t33.5 8.5t28.5 14t18 21t12.5 29.5t3 39q0 71 -42.5 92t-149.5 21h-58v-231z" />
<glyph unicode="S" horiz-adv-x="672" d="M44 181q0 38 24.5 67t71.5 29q37 0 65 -25t28 -60q0 -28 -17.5 -53.5t-36.5 -29.5q71 -37 159 -37q75 0 118 27.5t43 72.5q0 42 -36.5 71t-155.5 72q-145 52 -199 104.5t-56 129.5v3q0 87 80 146t201 59q45 0 89.5 -8.5t87.5 -27.5t69.5 -55.5t26.5 -85.5v-5 q-1 -36 -20.5 -60.5t-62.5 -24.5q-38 0 -64 20.5t-26 55.5q0 26 14 49.5t31 32.5q-40 17 -104 17q-172 0 -179 -89q0 -37 29.5 -62.5t125.5 -62.5q71 -27 113.5 -46t79 -40.5t54.5 -43.5t28.5 -49.5t12.5 -65.5v-8q0 -91 -73 -151t-215 -60q-80 0 -147.5 19.5t-113 65 t-45.5 109.5z" />
<glyph unicode="T" horiz-adv-x="751" d="M27 453v289h697v-289h-111v211h-165v-577h112v-87h-376v87h119v577h-165v-211h-111z" />
<glyph unicode="U" horiz-adv-x="811" d="M9 652v90h370v-90h-112v-394q0 -79 34.5 -122t118.5 -43q171 0 171 168v391h-119v90h330v-90h-112v-385q0 -63 -13 -111.5t-44 -87.5t-87.5 -60t-136.5 -21q-143 0 -214 72.5t-71 192.5v400h-115z" />
<glyph unicode="V" horiz-adv-x="842" d="M8 652v90h387v-90h-110l157 -502l155 502h-139v90h376v-90h-112l-213 -600q-12 -34 -37 -52.5t-54 -18.5q-60 0 -87 71l-211 600h-112z" />
<glyph unicode="W" horiz-adv-x="1114" d="M-3 652v90h344v-90h-88l120 -492l135 472h131l142 -472l122 492h-119v90h325v-90h-101l-174 -606q-18 -62 -81 -62q-64 0 -82 62l-118 407l-123 -407q-10 -31 -33.5 -46.5t-51.5 -15.5q-62 0 -79 62l-167 606h-102z" />
<glyph unicode="X" horiz-adv-x="877" d="M6 0v87h119l231 278l-216 287h-102v90h376v-90h-88l128 -174l141 174h-119v90h356v-90h-112l-207 -250l239 -315h119v-87h-416v87h111l-150 202l-166 -202h132v-87h-376z" />
<glyph unicode="Y" horiz-adv-x="821" d="M6 652v90h373v-90h-109l155 -255l164 255h-110v90h329v-90h-114l-220 -333v-232h112v-87h-376v87h119v234l-204 331h-119z" />
<glyph unicode="Z" horiz-adv-x="699" d="M52 87l435 568h-324v-225h-106v312h584l15 -87l-429 -568h327v229h106v-316h-594z" />
<glyph unicode="[" horiz-adv-x="695" d="M163 -121v911q364 1 364 0v-77h-239v-760h239v-74h-364z" />
<glyph unicode="\" horiz-adv-x="582" d="M154 778l99 20l163 -876l-101 -19z" />
<glyph unicode="]" horiz-adv-x="695" d="M160 -48h239v760h-239v74l364 1v-912q-364 -1 -364 0v77z" />
<glyph unicode="^" horiz-adv-x="450" d="M6 154l190 421h96l182 -421h-103l-128 322l-136 -322h-101z" />
<glyph unicode="_" horiz-adv-x="416" d="M-4 4h424v-73h-424v73z" />
<glyph unicode="a" horiz-adv-x="644" d="M43 116q0 45 32 77t77.5 49t91 33t77.5 40t32 58q0 103 -102 103q-43 0 -76 -16q16 -2 30.5 -24t14.5 -43v-4q0 -30 -22 -50t-58 -20q-37 0 -58.5 23.5t-21.5 59.5v2q1 60 62 97.5t140 37.5q57 0 103 -14.5t79.5 -55.5t33.5 -106v-208q0 -86 49 -86q47 0 47 84v65h65v-68 q0 -164 -137 -164h-4q-113 2 -139 97q-26 -44 -73.5 -70t-104.5 -26q-63 0 -100.5 33.5t-37.5 95.5zM162 119q0 -55 45 -55q40 0 91.5 38.5t51.5 80.5v89q-44 -35 -96.5 -62.5t-72 -43.5t-19.5 -47z" />
<glyph unicode="b" horiz-adv-x="590" d="M-36 662v80h228v-282q48 72 139 78h13q93 0 153 -80t60 -196q0 -119 -60.5 -197t-156.5 -78q-107 0 -170 90l-38 -77h-65v662h-103zM192 285q0 -210 118 -210q58 0 86.5 54.5t28.5 126.5q0 37 -5 69t-16.5 63.5t-35.5 50t-57 18.5q-43 0 -71 -27t-38 -63.5t-10 -81.5z " />
<glyph unicode="c" horiz-adv-x="549" d="M33 252q0 122 72.5 204.5t199.5 82.5q37 0 72 -9t67 -28t51.5 -53.5t19.5 -79.5q0 -27 -22 -50t-58 -23q-30 0 -48.5 15t-20.5 42v6q0 30 21 46t45 16q-32 52 -110 52q-70 0 -111.5 -57t-41.5 -136q0 -91 40 -146t118 -55q92 0 137 109l64 -24q-18 -79 -83 -128t-154 -49 q-107 0 -182.5 74t-75.5 191z" />
<glyph unicode="d" horiz-adv-x="608" d="M34 262q0 119 62.5 197.5t163.5 78.5q86 0 139 -78v202h-104v80h229v-658h76v-84h-201v92q-53 -105 -148 -105q-96 0 -156.5 78t-60.5 197zM166 256q0 -72 28.5 -126.5t86.5 -54.5q118 0 118 210q0 45 -10 81.5t-38 63.5t-71 27q-33 0 -57 -18.5t-35.5 -50t-16.5 -63.5 t-5 -69z" />
<glyph unicode="e" horiz-adv-x="562" d="M33 261q0 116 72 197t177 81q107 0 176 -70.5t71 -201.5h-364q0 -2 -0.5 -7.5t-0.5 -8.5q0 -68 37 -119t111 -49q45 1 79.5 31t51.5 71l72 -32q-19 -80 -80 -123.5t-140 -43.5h-3q-113 1 -186 76t-73 199zM169 330h233q0 59 -28.5 97t-79.5 38q-50 0 -84 -41t-41 -94z " />
<glyph unicode="f" horiz-adv-x="408" d="M21 0v84h104v363h-104v77h104q0 249 206 249q77 0 121 -41t44 -86q0 -37 -21 -56.5t-50 -19.5q-27 0 -47.5 16.5t-20.5 44.5q0 25 18 39t39 17q-1 17 -20.5 29.5t-42.5 12.5q-36 0 -67 -31t-31 -94v-80h115v-77h-115v-363h111v-84h-343z" />
<glyph unicode="g" horiz-adv-x="597" d="M34 262q0 119 60.5 197.5t156.5 78.5q102 0 170 -91l41 77h121v-77h-59v-429q0 -58 -12 -106t-38.5 -87t-73 -60.5t-109.5 -21.5q-83 0 -141.5 28.5t-61.5 93.5v3q0 30 23 51t58 21q30 0 49.5 -19t19.5 -48q0 -26 -18 -58q36 -6 41 -6q77 0 107.5 44t30.5 147v64 q-53 -78 -139 -78q-101 0 -163.5 78.5t-62.5 197.5zM166 268q0 -37 5 -69t16.5 -63.5t35.5 -50t57 -18.5q43 0 71 27t38 63.5t10 81.5q0 211 -118 211q-58 0 -86.5 -54.5t-28.5 -127.5z" />
<glyph unicode="h" horiz-adv-x="684" d="M4 662v80h229v-304q51 100 174 100q27 0 52 -6.5t55.5 -24t49 -58t18.5 -99.5v-266h96v-84h-310v84h89v259q0 48 -25.5 78t-62.5 30q-136 0 -136 -189v-178h89v-84h-307v84h93v578h-104z" />
<glyph unicode="i" horiz-adv-x="334" d="M23 447v77h222v-440h85v-84h-306v84h97v363h-98zM90 700q0 35 25 60t59 25t59.5 -25.5t25.5 -59.5t-25 -59t-60 -25q-34 0 -59 25t-25 59z" />
<glyph unicode="j" horiz-adv-x="310" d="M-95 -123q0 38 19.5 61t59.5 23q32 0 50.5 -20.5t18.5 -48.5q0 -43 -28 -55q20 -8 42 -8q26 0 43.5 26.5t17.5 88.5v503h-114v77h239v-565q0 -90 -50 -138.5t-135 -48.5q-76 0 -119.5 28t-43.5 77zM90 700q0 35 25 60t59 25t59.5 -25.5t25.5 -59.5t-25 -59t-60 -25 q-34 0 -59 25t-25 59z" />
<glyph unicode="k" horiz-adv-x="641" d="M11 662v80h224v-456q115 109 172 161h-88v77h299v-77h-91l-150 -140l9 -15q9 -14 23 -36t29.5 -46t32 -47.5t27.5 -37.5q34 -43 70 -43q35 0 59 10l6 -91q-35 -15 -90 -15q-47 0 -81.5 24.5t-65.5 74.5l-96 165l-65 -50v-116h73v-84h-288v84h90v578h-99z" />
<glyph unicode="l" horiz-adv-x="351" d="M21 0v84h101v578h-99v80h224v-658h96v-84h-322z" />
<glyph unicode="m" horiz-adv-x="937" d="M20 0v84h95v363h-95v72l217 11v-97q21 51 67 78t96 27q20 0 35 -3t35 -12t35.5 -32t25.5 -58q19 55 66.5 80t102.5 25q24 0 45.5 -6t48 -23t42.5 -57t16 -99v-269h79v-84h-269v84h65v287q0 42 -20 63.5t-49 21.5q-44 0 -75.5 -39.5t-31.5 -82.5v-250h67v-84h-261v84h69 v287q0 39 -18 62.5t-45 23.5q-58 0 -90.5 -66.5t-32.5 -147.5v-159h68v-84h-288z" />
<glyph unicode="n" horiz-adv-x="682" d="M20 0v84h93v363h-93v71l215 11v-98q23 55 71.5 81t108.5 26q20 0 39.5 -3.5t45 -15.5t43.5 -31.5t31 -55.5t13 -84v-264h89v-84h-303v84h89v253q0 61 -30 89t-70 25q-124 -10 -124 -189v-178h89v-84h-307z" />
<glyph unicode="o" horiz-adv-x="590" d="M33 262q0 119 72 197.5t190 78.5t190 -78.5t72 -197.5q0 -118 -72 -196.5t-189 -78.5q-118 0 -190.5 78t-72.5 197zM165 256q0 -46 11 -84.5t42 -67.5t78 -29q35 0 61.5 16.5t40.5 44t20.5 57.5t6.5 63q0 201 -130 201t-130 -201z" />
<glyph unicode="p" horiz-adv-x="605" d="M-13 -109h95v556h-95v77h220v-92q43 106 153 106q96 0 154 -78.5t58 -197.5q0 -120 -59.5 -197.5t-159.5 -77.5q-99 0 -146 79v-172h104v-90h-324v87zM207 239q0 -45 10 -81.5t38 -63.5t71 -27q33 0 57 18.5t35.5 50t16.5 63.5t5 69q0 72 -28.5 126.5t-86.5 54.5 q-118 0 -118 -210z" />
<glyph unicode="q" horiz-adv-x="587" d="M33 262q0 119 60.5 197.5t156.5 78.5q102 0 170 -91l41 77h62v-634h94v-85h-324v85h105v174q-53 -78 -139 -78q-101 0 -163.5 78.5t-62.5 197.5zM165 268q0 -37 5 -69t16.5 -63.5t35.5 -50t57 -18.5q43 0 71 27t38 63.5t10 81.5q0 211 -118 211q-58 0 -86.5 -54.5 t-28.5 -127.5z" />
<glyph unicode="r" horiz-adv-x="477" d="M20 447v71l216 12v-95q17 44 55 69.5t87 27.5q42 2 72 -19.5t30 -71.5q0 -38 -24.5 -62t-54.5 -24q-29 0 -51 16.5t-22 46.5q0 32 9 39q-98 -8 -98 -199v-174h105v-84h-319v84h89v363h-94z" />
<glyph unicode="s" horiz-adv-x="518" d="M32 125q0 30 22 50.5t50 20.5q25 0 43 -15.5t18 -44.5q0 -13 -10 -28t-21 -23q48 -24 103 -24q50 0 82.5 17t32.5 50q0 18 -7.5 31.5t-25 23t-31 15t-42.5 14t-43 13.5q-44 15 -65.5 24.5t-49 28.5t-39 46t-11.5 66q0 38 20.5 68t52 46.5t64 24.5t62.5 8q40 0 75 -5 t73.5 -18t61.5 -41.5t23 -69.5q0 -30 -22 -50t-50 -20q-25 0 -43 15.5t-18 44.5q0 15 11 30.5t22 18.5q-40 28 -101 28q-113 0 -113 -59q0 -20 13 -33t26.5 -18.5t54.5 -17.5q4 -1 6 -2t6 -2t7 -2q95 -29 128 -48q78 -46 78 -136q0 -58 -34.5 -97.5t-81.5 -54.5t-101 -15 q-42 0 -79.5 7t-72 22t-54.5 43.5t-20 67.5z" />
<glyph unicode="t" horiz-adv-x="434" d="M-23 448v34q133 45 193 243q5 17 22 17q19 0 19 -17v-201h178v-77h-178v-298q0 -12 3.5 -25.5t18 -27.5t38.5 -14q64 0 64 100v59h71v-53q0 -103 -38.5 -152t-132.5 -49q-56 0 -104.5 38.5t-48.5 110.5v312h-105z" />
<glyph unicode="u" horiz-adv-x="626" d="M-12 447v77h213v-357q0 -51 25 -72.5t61 -21.5q61 0 93.5 44.5t32.5 118.5v211h-91v77h216v-440h81v-79l-203 -9v98q-16 -50 -64 -78.5t-101 -28.5q-20 0 -39 2.5t-45 14t-45 30t-32.5 54t-13.5 83.5v276h-88z" />
<glyph unicode="v" horiz-adv-x="645" d="M1 447v77h313v-77h-76l109 -300l117 300h-83v77h263v-77h-77l-136 -331q-31 -77 -51 -102t-51 -25q-29 0 -47 22.5t-46 91.5l-144 344h-91z" />
<glyph unicode="w" horiz-adv-x="863" d="M7 447v77h289v-77h-72l69 -300l106 290h92l105 -290l78 300h-80v77h262v-77h-86l-94 -312q-30 -98 -44 -122t-43 -24q-27 0 -41.5 25t-47.5 116l-65 177l-66 -172q-36 -95 -53.5 -120.5t-48.5 -25.5q-30 0 -47 27.5t-38 103.5l-92 327h-83z" />
<glyph unicode="x" horiz-adv-x="676" d="M17 0v84h77l178 177l-170 186h-78v77h290v-77h-61l97 -109l112 109h-90v77h279v-77h-82l-167 -167l172 -196h85v-84h-293v84h64l-105 119l-116 -119h82v-84h-274z" />
<glyph unicode="y" horiz-adv-x="631" d="M-19 447v77h313v-77h-76l118 -320l102 320h-73v77h263v-77h-77l-164 -449q-13 -36 -22 -56.5t-24.5 -53t-31.5 -51.5t-38 -39t-50.5 -29.5t-61.5 -10.5h-6q-70 0 -116 32.5t-46 92.5q0 32 23 55t58 23q31 0 50 -17.5t19 -45.5q0 -18 -8 -38t-19 -31q12 -3 29 -3 q42 0 69.5 43t46.5 131l-187 447h-91z" />
<glyph unicode="z" horiz-adv-x="572" d="M49 297v227h448l9 -97l-311 -350h240v149h97v-226h-468l-11 93l320 354h-224v-150h-100z" />
<glyph unicode="{" horiz-adv-x="433" d="M-5 272v86h56q43 0 50.5 16t6.5 90v51q0 147 58.5 202.5t214.5 55.5v-62q-19 0 -33.5 -0.5t-26.5 -4t-20.5 -5.5t-16 -11t-11.5 -13t-7 -19.5t-4.5 -23t-2.5 -31t-1 -35.5v-44v-19q0 -98 -17.5 -138.5t-66.5 -51.5q49 -11 66.5 -51.5t17.5 -138.5v-19v-54.5t1.5 -41 t4.5 -33.5t9.5 -23t14.5 -18t22 -9.5t30.5 -6.5t40.5 -1v-62q-156 0 -214.5 55.5t-58.5 202.5v51q1 74 -6.5 90t-50.5 16h-56z" />
<glyph unicode="|" horiz-adv-x="338" d="M120 -120v904h98v-904h-98z" />
<glyph unicode="}" horiz-adv-x="433" d="M-5 272v86h56q43 0 50.5 16t6.5 90v51q0 147 58.5 202.5t214.5 55.5v-62q-19 0 -33.5 -0.5t-26.5 -4t-20.5 -5.5t-16 -11t-11.5 -13t-7 -19.5t-4.5 -23t-2.5 -31t-1 -35.5v-44v-19q0 -98 -17.5 -138.5t-66.5 -51.5q49 -11 66.5 -51.5t17.5 -138.5v-19v-54.5t1.5 -41 t4.5 -33.5t9.5 -23t14.5 -18t22 -9.5t30.5 -6.5t40.5 -1v-62q-156 0 -214.5 55.5t-58.5 202.5v51q1 74 -6.5 90t-50.5 16h-56z" />
<glyph unicode="~" horiz-adv-x="518" d="M22 524h71q0 -33 9.5 -44.5t30.5 -11.5q16 0 105.5 28t131.5 28q67 0 96.5 -33t29.5 -123h-71q0 33 -10 46.5t-30 13.5q-17 0 -106.5 -30.5t-130.5 -30.5q-67 0 -96.5 33.5t-29.5 123.5z" />
<glyph unicode="&#xa2;" horiz-adv-x="560" d="M33 252q0 114 64 194.5t176 90.5v93h43v-91q36 -2 69.5 -11.5t63.5 -29t48 -53t18 -76.5q0 -27 -22 -50t-58 -23q-15 0 -27 4t-21 11t-14.5 18t-6.5 24v6q0 21 11.5 35.5t26 20.5t28.5 6q-33 52 -110 52h-6v-394h11q92 0 137 109l64 -24q-8 -36 -27.5 -67t-46.5 -54 t-62.5 -37t-75.5 -18v-92h-43v92q-66 4 -120 37t-87 92.5t-33 134.5zM169 280q0 -73 26 -124t78 -69v377q-33 -12 -56.5 -40.5t-35.5 -65.5t-12 -78z" />
<glyph unicode="&#xa3;" horiz-adv-x="621" d="M52 83q30 35 48.5 61t35.5 70t17 91v10h-84l11 74h66q-9 40 -32 93t-24 82v2q0 77 67 123t177 48h5q90 0 156 -44.5t66 -122.5q0 -42 -23.5 -65.5t-62.5 -23.5q-32 0 -55.5 19.5t-26.5 51.5v5q0 24 16.5 44.5t33.5 25.5q-46 38 -97 38q-131 0 -131 -98q0 -30 27 -87 t35 -91h137l-13 -73h-116v-10q0 -124 -111 -222h294v158h91v-242h-476z" />
<glyph unicode="&#xa4;" horiz-adv-x="581" d="M67 307l52 52q-45 58 -45 137q0 83 50 143l-57 57l42 42l58 -58q60 43 137 43t138 -42l56 56l42 -42l-54 -54q49 -62 49 -145q0 -78 -48 -136l52 -52l-42 -42l-53 53q-64 -45 -142 -45q-80 0 -139 44l-53 -53zM157 498q0 -75 40 -115.5t107 -40.5q66 0 107 43.5t41 112.5 q0 71 -41 114.5t-108 43.5q-66 0 -106 -46t-40 -112z" />
<glyph unicode="&#xa5;" horiz-adv-x="821" d="M6 652v90h373v-90h-109l155 -255l164 255h-110v90h329v-90h-114l-178 -269h92v-64h-134v-37h134v-64h-134v-131h112v-87h-376v87h119v131h-137v64h137v37h-137v64h99l-166 269h-119z" />
<glyph unicode="&#xa6;" horiz-adv-x="338" d="M120 -120v339h98v-339h-98zM120 445v339h98v-339h-98z" />
<glyph unicode="&#xa7;" horiz-adv-x="505" d="M31 377q0 68 49 112q-42 39 -42 106q0 48 38 81.5t83 46t87 12.5q39 0 73.5 -5t71 -18t58 -41.5t21.5 -69.5q0 -30 -22 -50t-50 -20q-25 0 -43 15.5t-18 44.5q0 22 15 37t29 17q-42 36 -112 36q-47 0 -80 -18t-33 -50q0 -31 23.5 -45t89.5 -34q6 -2 34 -10t37.5 -11.5 t33 -13t33.5 -16.5t26.5 -20.5t23 -27.5t12.5 -34t6 -44q0 -69 -50 -114q43 -35 43 -104q0 -51 -36.5 -85.5t-84 -48t-99.5 -13.5q-50 0 -95 11t-81 43t-36 80q0 30 22 50t50 20q25 0 43 -15.5t18 -44.5q0 -22 -14.5 -36.5t-29.5 -16.5q40 -34 114 -34q47 0 79 18.5t32 50.5 q0 20 -13 33t-26.5 18.5t-54.5 17.5q-12 4 -19 6q-95 29 -128 48q-78 46 -78 136zM146 401q0 -18 8 -31.5t27.5 -24.5t33 -16.5t45 -15.5t43.5 -14q6 -3 19 -7t20 -7q24 24 24 48q0 18 -9 31.5t-28 23t-36 15t-45.5 13.5t-44.5 14q-6 2 -19 6.5t-20 7.5q-18 -20 -18 -43z " />
<glyph unicode="&#xa8;" horiz-adv-x="516" d="M84 643q0 28 19.5 48t47.5 20q27 0 47 -20t20 -48q0 -27 -20 -47t-47 -20q-28 0 -47.5 20t-19.5 47zM316 643q0 28 19.5 48t47.5 20q27 0 47.5 -20t20.5 -48q0 -27 -20.5 -47t-47.5 -20q-28 0 -47.5 20t-19.5 47z" />
<glyph unicode="&#xa9;" horiz-adv-x="832" d="M41 363q0 154 110.5 264t264.5 110t264.5 -110t110.5 -264q0 -155 -110.5 -265.5t-264.5 -110.5t-264.5 111t-110.5 265zM87 364q0 -136 97 -233t233 -97t233 97t97 233t-96.5 233t-233.5 97q-136 0 -233 -97t-97 -233zM226 375q1 94 59.5 154.5t150.5 60.5 q61 0 110 -37.5t49 -96.5q0 -21 -17.5 -39.5t-44.5 -18.5q-22 0 -38 14t-16 36q0 24 20 38t38 14q-33 50 -102 50q-57 0 -93 -46.5t-36 -126.5q0 -64 37 -114t98 -53q48 0 83.5 31.5t45.5 71.5l38 -19q-15 -62 -64 -98.5t-113 -36.5q-87 1 -146 63.5t-59 152.5z" />
<glyph unicode="&#xaa;" horiz-adv-x="659" d="M58 396q0 37 26 62.5t63 39.5t73.5 27t62.5 32.5t26 47.5q0 45 -25.5 67.5t-64.5 22.5q-48 0 -82 -29q29 0 44.5 -15.5t16.5 -37.5v-4q0 -24 -18 -40t-47 -16t-46.5 22.5t-17.5 52.5v2q0 48 49.5 78.5t113.5 30.5q74 0 126 -33.5t52 -109.5v-168q0 -70 38 -70 q12 0 19.5 5.5t10.5 17.5t4 21t1 24v41h49v-43q0 -75 -28.5 -104t-78.5 -29h-3q-87 2 -108 79q-21 -36 -59.5 -57t-84.5 -21q-52 0 -82 26.5t-30 77.5zM154 399q0 -45 37 -45q33 0 74.5 31.5t41.5 65.5v68q-30 -24 -62.5 -42t-50 -25.5t-29 -20t-11.5 -32.5z" />
<glyph unicode="&#xac;" horiz-adv-x="485" d="M23 341v79h391v-257h-116v178h-275z" />
<glyph unicode="&#xad;" d="M61 254v87h284v-87h-284z" />
<glyph unicode="&#xae;" horiz-adv-x="832" d="M41 363q0 154 110.5 264t264.5 110t264.5 -110t110.5 -264q0 -155 -110.5 -265.5t-264.5 -110.5t-264.5 111t-110.5 265zM87 364q0 -136 97 -233t233 -97t233 97t97 233t-96.5 233t-233.5 97q-136 0 -233 -97t-97 -233zM214 168v38h61v334h-61v39h159q30 0 51.5 -1 t51.5 -7.5t48.5 -17.5t32 -33t13.5 -52q-1 -76 -109 -96q24 -5 40 -19.5t21.5 -33t9.5 -38.5t5 -36.5t6.5 -27t16.5 -10.5q31 0 31 55v35h50v-41q0 -54 -28 -75t-65 -21q-49 0 -71 27t-32 91q-5 25 -14.5 46t-17.5 30.5t-13 9.5h-50v-158h50v-38h-186zM350 397h25 q61 0 90 16.5t29 54.5q-1 42 -28 57t-93 15h-23v-143z" />
<glyph unicode="&#xaf;" d="M51 635v87h304v-87h-304z" />
<glyph unicode="&#xb0;" horiz-adv-x="370" d="M31 594q0 62 41.5 102.5t112.5 40.5t112.5 -40.5t41.5 -102.5t-41.5 -103t-112.5 -41t-112.5 40.5t-41.5 103.5zM98 594q0 -47 25.5 -72t60.5 -25q34 0 61 26t27 71q0 47 -26.5 73.5t-60.5 26.5t-60.5 -26.5t-26.5 -73.5z" />
<glyph unicode="&#xb1;" horiz-adv-x="696" d="M152 301v97h140v127h112v-127h140v-97h-140v-116h-112v116h-140zM167 0v87h364v-87h-364z" />
<glyph unicode="&#xb2;" horiz-adv-x="509" d="M89 616v3q0 47 52 84.5t123 37.5q70 0 108 -34.5t38 -101.5q0 -37 -21.5 -70.5t-83.5 -71.5l-101 -62h209l13 -130l-39 -4l-35 68h-242q-7 73 -8 73q158 117 166 124q32 25 43.5 44t11.5 46q0 29 -20 49.5t-54 20.5q-45 0 -78 -35q15 -4 27 -16t12 -30q0 -28 -16.5 -43.5 t-42.5 -15.5q-29 0 -45 20t-17 44z" />
<glyph unicode="&#xb4;" horiz-adv-x="620" d="M187 611q40 34 98 78t96 71l38 28l65 -90q-22 -22 -90 -52.5t-125 -49.5l-57 -20z" />
<glyph unicode="&#xb6;" horiz-adv-x="591" d="M72 540q0 74 52.5 128t146.5 54h269v-750h-80v387h-71v-387h-83v387h-30q-97 0 -150.5 53.5t-53.5 127.5z" />
<glyph unicode="&#xb7;" horiz-adv-x="397" d="M108 434q0 37 26.5 63.5t63.5 26.5t63.5 -26.5t26.5 -63.5t-26.5 -63.5t-63.5 -26.5t-63.5 26.5t-26.5 63.5z" />
<glyph unicode="&#xb8;" horiz-adv-x="165" d="M4 -182q71 13 71 32q0 10 -23 33t-23 35q0 28 30 55t72 27h19v-135q0 -28 -33 -48.5t-66 -26.5l-33 -7z" />
<glyph unicode="&#xbb;" horiz-adv-x="467" d="M50 116v131l117 81l-117 75v125l189 -161v-86zM263 116v131l117 81l-117 75v125l189 -161v-86z" />
<glyph unicode="&#xbc;" horiz-adv-x="917" d="M127 362v56h63v260l-63 -17v63l149 38v-344h61v-56h-210zM161 14l520 723l56 -44l-520 -723zM502 122v60l154 216h102v-220h64v-56h-64v-66h64v-56h-221v56h71v66h-170zM572 178h100v157z" />
<glyph unicode="&#xbd;" horiz-adv-x="917" d="M127 362v56h63v260l-63 -17v63l149 38v-344h61v-56h-210zM161 14l520 723l56 -44l-520 -723zM571 281v3q0 47 52 84.5t123 37.5q70 0 108 -34.5t38 -101.5q0 -37 -21.5 -70.5t-83.5 -71.5l-101 -62h209l13 -130l-39 -4l-35 68h-242q-7 73 -8 73q158 117 166 124 q32 25 43.5 44t11.5 46q0 29 -20 49.5t-54 20.5q-45 0 -78 -35q15 -4 27 -16t12 -30q0 -28 -16.5 -43.5t-42.5 -15.5q-29 0 -45 20t-17 44z" />
<glyph unicode="&#xbe;" horiz-adv-x="917" d="M127 362v56h63v260l-63 -17v63l149 38v-344h61v-56h-210zM161 14l520 723l56 -44l-520 -723zM502 122v60l154 216h102v-220h64v-56h-64v-66h64v-56h-221v56h71v66h-170zM572 178h100v157z" />
<glyph unicode="&#xbf;" horiz-adv-x="532" d="M40 176v3q0 40 21 78t52.5 70t64.5 61.5t62 64t40 66.5h42q0 -49 -14.5 -92.5t-34.5 -75t-40.5 -60t-35 -58.5t-14.5 -60q0 -110 115 -110q34 0 64.5 14t42.5 42q-29 0 -55 17t-26 55q0 36 22 59t57 23q43 0 68.5 -27t27.5 -60v-10q0 -85 -68.5 -135.5t-158.5 -50.5 q-228 0 -232 186zM218 657q0 32 24.5 56t56.5 24q33 0 56.5 -24t23.5 -56q0 -33 -23.5 -57t-56.5 -24q-32 0 -56.5 24t-24.5 57z" />
<glyph unicode="&#xc6;" horiz-adv-x="1129" d="M-2 0v87h108l286 565h-108v90h801v-283h-120v193h-296v-235h127v100h85v-300h-85v124h-127v-254h296v192h120v-279h-555v258h-192l-81 -171h93v-87h-352zM376 334h154v318z" />
<glyph unicode="&#xc7;" horiz-adv-x="755" d="M44 379q0 73 26.5 141t73 120.5t115 84.5t146.5 32q47 0 93.5 -14t85.5 -41t63.5 -71t24.5 -99q0 -21 -10.5 -41.5t-33 -35t-52.5 -14.5q-35 0 -58 18.5t-25 52.5v7q0 38 25.5 58t53.5 20q-44 65 -153 66q-52 1 -93.5 -24.5t-66 -67.5t-37.5 -92t-13 -102 q0 -74 23 -137.5t73.5 -106.5t120.5 -43q45 0 79.5 15t55.5 42.5t33.5 54.5t21.5 62h90q-17 -118 -84 -189.5t-180 -84.5v-125q0 -18 -13.5 -33t-33 -23.5t-39 -14.5t-32.5 -9l-14 -2l-14 35q71 13 71 32q0 10 -23 33t-23 35q0 18 14 37.5t37 31.5q-100 5 -175.5 61 t-114 142.5t-38.5 188.5z" />
<glyph unicode="&#xd0;" horiz-adv-x="822" d="M20 0v87h119v240h-92v72h92v253h-119v90h238q84 0 151.5 -7.5t139 -31.5t119.5 -63.5t79 -109.5t31 -164q0 -366 -494 -366h-264zM284 87q56 0 101 5.5t91 23.5t77 47t50.5 80t19.5 119q0 74 -20 128t-50.5 84.5t-77.5 48.5t-90.5 23t-100.5 5v-252h122v-72h-122v-240z " />
<glyph unicode="&#xd7;" horiz-adv-x="696" d="M142 153l127 127l-127 127l79 79l127 -127l127 127l79 -79l-127 -127l127 -127l-79 -79l-127 127l-127 -127z" />
<glyph unicode="&#xd8;" horiz-adv-x="776" d="M44 372q0 40 7 80t21.5 78t35.5 72t50 62.5t64 49t79 32t93 11.5q140 0 234 -91l71 84l32 -26l-75 -89q43 -53 65.5 -122t22.5 -141q0 -57 -14 -112t-42.5 -104.5t-69.5 -87t-98.5 -59.5t-125.5 -22q-130 0 -221 78l-92 -109l-32 26l95 112q-49 54 -74.5 127.5 t-25.5 150.5zM203 372q0 -92 34 -168l302 357q-54 99 -145 101q-59 0 -104 -44t-66 -109t-21 -137zM258 165q53 -83 136 -83q59 0 104 43.5t66 108t21 136.5q0 80 -27 150z" />
<glyph unicode="&#xde;" horiz-adv-x="725" d="M20 655v87h386v-87h-119v-78h92q32 0 54 -0.5t56.5 -5t58 -11.5t50.5 -21.5t43.5 -35t27.5 -51.5t11 -71t-11.5 -71t-27.5 -51.5t-46 -35t-55.5 -22t-66.5 -11.5t-68.5 -4.5t-72.5 -0.5h-45v-98h122v-87h-386v87h119v568h-122zM287 262h54q36 0 56 1t48.5 7t43 17.5 t25.5 34t11 55.5q0 76 -45 99t-149 23h-44v-237z" />
<glyph unicode="&#xdf;" horiz-adv-x="675" d="M29 0v87h96v370h-96v67h99q12 99 74.5 151t160.5 52q94 0 155.5 -42t61.5 -129q0 -40 -21.5 -74t-47 -52.5t-47 -33.5t-21.5 -20q0 -8 31.5 -23t70 -33t70 -57.5t31.5 -91.5q0 -38 -14 -67.5t-40.5 -47.5t-56 -30t-68.5 -17t-68.5 -7t-65.5 -2v87q63 0 103.5 8.5t57 25 t21.5 30.5t5 35q0 34 -30 61t-66.5 42.5t-66.5 37.5t-30 47v2q1 26 22 50.5t45 41t44 41.5t20 52q0 46 -21.5 64t-69.5 18q-62 0 -89.5 -39t-27.5 -125v-479h-221z" />
<glyph unicode="&#xe5;" horiz-adv-x="659" d="M43 116q0 45 32 77t77.5 49t91 33t77.5 40t32 58q0 103 -102 103q-43 0 -76 -16q16 -2 30.5 -24t14.5 -43v-4q0 -30 -22 -50t-58 -20q-37 0 -58.5 23.5t-21.5 59.5v2q1 60 62 97.5t140 37.5q57 0 103 -14.5t79.5 -55.5t33.5 -106v-208q0 -86 49 -86q47 0 47 84v65h65v-68 q0 -164 -137 -164h-4q-113 2 -139 97q-26 -44 -73.5 -70t-104.5 -26q-63 0 -100.5 33.5t-37.5 95.5zM162 119q0 -55 45 -55q40 0 91.5 38.5t51.5 80.5v89q-44 -35 -96.5 -62.5t-72 -43.5t-19.5 -47zM174 691q0 40 29 69.5t80 29.5t80 -30t29 -70t-29 -70t-80 -30 q-50 0 -79.5 30.5t-29.5 70.5zM231 690q0 -28 15.5 -43t35.5 -15q21 0 36.5 15.5t15.5 42.5q0 28 -15 43.5t-36 15.5t-36.5 -15.5t-15.5 -43.5z" />
<glyph unicode="&#xe6;" horiz-adv-x="844" d="M40 124q0 77 67 117t249 72v40q0 114 -103 114h-8q-44 -2 -80 -22q14 -5 25.5 -23.5t11.5 -32.5q0 -30 -22 -49.5t-51 -19.5q-30 0 -51 22t-21 65q0 54 58 92.5t137 38.5q135 0 178 -91q56 87 185 92h8q65 0 111 -39.5t65 -94t19 -117.5l-332 -36q5 -176 137 -176 q45 0 74.5 28t52.5 81l72 -32q-18 -77 -74.5 -122t-134.5 -45q-66 0 -125 34.5t-82 84.5q-78 -119 -226 -119q-61 0 -100.5 42t-39.5 96zM153 129q0 -22 18 -41.5t45 -19.5q36 0 70 20.5t51 40.5t40 51l-12 52q-126 -21 -169 -42t-43 -61zM492 329l226 27q-1 43 -26 78.5 t-67 35.5q-55 -2 -90.5 -38.5t-42.5 -102.5z" />
<glyph unicode="&#xe7;" horiz-adv-x="557" d="M33 252q0 79 31 143.5t93.5 104t147.5 39.5q37 0 72 -9t67 -28t51.5 -53.5t19.5 -79.5q0 -27 -22 -50t-58 -23q-19 0 -34.5 6.5t-24.5 19.5t-10 31v6q0 21 11.5 35.5t26 20.5t28.5 6q-32 52 -110 52q-70 0 -111.5 -57t-41.5 -136q0 -91 40 -146t118 -55q92 0 137 109 l64 -24q-15 -66 -63 -111.5t-117 -59.5v7h-19q-27 0 -51 -13q-103 5 -174 78t-71 187zM202 -182q71 13 71 32q0 10 -23 33t-23 35q0 18 14 37.5t37 31.5h13q29 0 57 6v-128q0 -18 -13.5 -33t-33 -23.5t-39 -14.5t-32.5 -9l-14 -2z" />
<glyph unicode="&#xe9;" horiz-adv-x="588" d="M33 261q0 116 72 197t177 81q107 0 176 -70.5t71 -201.5h-364q0 -2 -0.5 -7.5t-0.5 -8.5q0 -68 37 -119t111 -49q45 1 79.5 31t51.5 71l72 -32q-19 -80 -80 -123.5t-140 -43.5h-3q-113 1 -186 76t-73 199zM169 330h233q0 59 -28.5 97t-79.5 38q-50 0 -84 -41t-41 -94z M187 611q40 34 98 78t96 71l38 28l65 -90q-22 -22 -90 -52.5t-125 -49.5l-57 -20z" />
<glyph unicode="&#xea;" horiz-adv-x="568" d="M33 261q0 116 72 197t177 81q107 0 176 -70.5t71 -201.5h-364q0 -2 -0.5 -7.5t-0.5 -8.5q0 -68 37 -119t111 -49q45 1 79.5 31t51.5 71l72 -32q-19 -80 -80 -123.5t-140 -43.5h-3q-113 1 -186 76t-73 199zM143 626l159 171l160 -174l-58 -54q-62 87 -100 121 q-17 -15 -42.5 -45t-43.5 -52l-17 -22zM169 330h233q0 59 -28.5 97t-79.5 38q-50 0 -84 -41t-41 -94z" />
<glyph unicode="&#xeb;" horiz-adv-x="562" d="M33 261q0 116 72 197t177 81q107 0 176 -70.5t71 -201.5h-364q0 -2 -0.5 -7.5t-0.5 -8.5q0 -68 37 -119t111 -49q45 1 79.5 31t51.5 71l72 -32q-19 -80 -80 -123.5t-140 -43.5h-3q-113 1 -186 76t-73 199zM101 643q0 28 19.5 48t47.5 20q27 0 47 -20t20 -48 q0 -27 -20 -47t-47 -20q-28 0 -47.5 20t-19.5 47zM169 330h233q0 59 -28.5 97t-79.5 38q-50 0 -84 -41t-41 -94zM333 643q0 28 19.5 48t47.5 20q27 0 47.5 -20t20.5 -48q0 -27 -20.5 -47t-47.5 -20q-28 0 -47.5 20t-19.5 47z" />
<glyph unicode="&#xf5;" horiz-adv-x="590" d="M33 262q0 119 72 197.5t190 78.5t190 -78.5t72 -197.5q0 -118 -72 -196.5t-189 -78.5q-118 0 -190.5 78t-72.5 197zM145 747h63q0 -46 32 -46q15 0 60 23.5t77 23.5q88 0 88 -139h-63q0 46 -32 46q-15 0 -60 -23.5t-77 -23.5q-88 0 -88 139zM165 256q0 -46 11 -84.5 t42 -67.5t78 -29q35 0 61.5 16.5t40.5 44t20.5 57.5t6.5 63q0 201 -130 201t-130 -201z" />
<glyph unicode="&#xf7;" horiz-adv-x="446" d="M61 258v76h324v-76h-324zM165 131q0 26 18.5 45t44.5 19t45 -19t19 -45q0 -25 -19 -44t-45 -19t-44.5 18.5t-18.5 44.5zM165 460q0 26 18.5 45t44.5 19t45 -19t19 -45q0 -25 -19 -44t-45 -19t-44.5 18.5t-18.5 44.5z" />
<glyph unicode="&#xf8;" horiz-adv-x="581" d="M23 -28l81 95q-71 77 -71 195q0 119 72 197.5t190 78.5q96 0 165 -55l83 98l32 -26l-86 -100q68 -77 68 -193q0 -118 -72 -196.5t-189 -78.5q-94 0 -162 52l-79 -93zM165 256q0 -56 17 -98l211 247q-33 52 -98 52q-39 0 -66.5 -18.5t-40.5 -50t-18 -63.5t-5 -69zM203 119 q34 -44 93 -44q35 0 61.5 16.5t40.5 44t20.5 57.5t6.5 63q0 63 -14 107z" />
<glyph unicode="&#xfe;" horiz-adv-x="605" d="M-21 662v80h228v-310q43 106 153 106q96 0 154 -78.5t58 -197.5q0 -120 -59.5 -197.5t-159.5 -77.5q-99 0 -146 79v-172h104v-90h-324v87h95v771h-103zM207 239q0 -45 10 -81.5t38 -63.5t71 -27q33 0 57 18.5t35.5 50t16.5 63.5t5 69q0 72 -28.5 126.5t-86.5 54.5 q-118 0 -118 -210z" />
<glyph unicode="&#x152;" horiz-adv-x="1130" d="M40 372q0 72 22.5 137t64.5 117.5t110 84t153 31.5h692v-283h-120v193h-305v-235h132v100h85v-300h-85v124h-132v-254h305v192h120v-279h-692q-112 0 -193.5 54.5t-119 137.5t-37.5 180zM199 372q0 -113 51.5 -199t139.5 -86h122v565h-122q-88 0 -139.5 -83.5 t-51.5 -196.5z" />
<glyph unicode="&#x2c6;" horiz-adv-x="620" d="M216 626l159 171l160 -174l-58 -54q-62 87 -100 121q-17 -15 -42.5 -45t-42.5 -52l-18 -22z" />
<glyph unicode="&#x2dc;" horiz-adv-x="518" d="M145 747h63q0 -46 32 -46q15 0 60 23.5t77 23.5q88 0 88 -139h-63q0 46 -32 46q-15 0 -60 -23.5t-77 -23.5q-88 0 -88 139z" />
<glyph unicode="&#x2000;" horiz-adv-x="405" />
<glyph unicode="&#x2001;" horiz-adv-x="811" />
<glyph unicode="&#x2002;" horiz-adv-x="405" />
<glyph unicode="&#x2003;" horiz-adv-x="811" />
<glyph unicode="&#x2004;" horiz-adv-x="270" />
<glyph unicode="&#x2005;" horiz-adv-x="202" />
<glyph unicode="&#x2006;" horiz-adv-x="135" />
<glyph unicode="&#x2007;" horiz-adv-x="135" />
<glyph unicode="&#x2008;" horiz-adv-x="101" />
<glyph unicode="&#x2009;" horiz-adv-x="162" />
<glyph unicode="&#x200a;" horiz-adv-x="45" />
<glyph unicode="&#x2010;" d="M61 254v87h284v-87h-284z" />
<glyph unicode="&#x2011;" d="M61 254v87h284v-87h-284z" />
<glyph unicode="&#x2012;" d="M61 254v87h284v-87h-284z" />
<glyph unicode="&#x2013;" horiz-adv-x="622" d="M61 254v87h500v-87h-500z" />
<glyph unicode="&#x2014;" horiz-adv-x="1122" d="M61 254v87h1000v-87h-1000z" />
<glyph unicode="&#x2018;" horiz-adv-x="397" d="M113 584q0 94 102 162q3 1 6 4l28 -42q-27 -15 -49.5 -39t-22.5 -45q0 -19 4 -24q15 21 47 21q31 0 49 -21t18 -51q0 -31 -21 -54t-60 -23q-40 0 -70.5 29t-30.5 83z" />
<glyph unicode="&#x2019;" horiz-adv-x="397" d="M113 673q0 31 21 54t60 23q40 0 70.5 -29t30.5 -83q0 -94 -102 -162q-3 -1 -6 -4l-28 42q27 15 49.5 39t22.5 45q0 19 -4 24q-15 -21 -47 -21q-31 0 -49 21t-18 51z" />
<glyph unicode="&#x2022;" horiz-adv-x="404" d="M48 380q0 63 41.5 108t112.5 45q70 0 112 -45t42 -108t-42 -108.5t-112 -45.5t-112 45t-42 109z" />
<glyph unicode="&#x202f;" horiz-adv-x="162" />
<glyph unicode="&#x205f;" horiz-adv-x="202" />
<glyph unicode="&#xe000;" horiz-adv-x="525" d="M0 0v525h525v-525h-525z" />
<glyph unicode="&#xfb01;" horiz-adv-x="668" d="M26 0v84h104v363h-104v77h104q0 122 65.5 185.5t179.5 63.5q88 0 134.5 -41t46.5 -86q0 -37 -21 -56.5t-50 -19.5q-27 0 -47.5 16.5t-20.5 44.5q0 25 18 39t39 17q-1 17 -23.5 30t-45.5 13q-65 0 -106 -30.5t-41 -95.5v-80h318v-440h85v-84h-280v84h71v363h-194v-363h74 v-84h-306z" />
<glyph unicode="&#xfb02;" horiz-adv-x="694" d="M36 0v57h95v412h-95v55h95q0 249 204 249q89 0 161.5 -25.5t72.5 -61.5v-629h105v-57h-295v57h85v628q-6 22 -40.5 32t-73.5 10q-49 0 -83 -29t-34 -91v-83h162v-55h-159v-412h81v-57h-281z" />
<glyph unicode="&#xfb03;" horiz-adv-x="944" d="M36 469v55h95q0 123 57 186t161 63q51 0 90.5 -18t59.5 -45q59 63 167 63q89 0 135.5 -38t46.5 -87q0 -38 -21 -60t-52 -22q-26 0 -46 19t-20 47q0 26 20 42.5t43 16.5q-1 18 -32 29.5t-59 11.5q-51 0 -94.5 -32t-43.5 -93v-83h308v-467h86v-57h-267v57h76v412h-200v-412 h82v-57h-275v57h88v412h-205v-412h71v-57h-266v57h90v412h-95zM233 524h208v65q-49 14 -49 60q0 40 34 66q-19 17 -75 17q-48 0 -83 -31t-35 -94v-83z" />
<glyph unicode="&#xfb04;" horiz-adv-x="1018" d="M26 0v84h104v363h-104v77h104q0 124 54 186.5t157 62.5q59 0 105.5 -18t63.5 -47q44 66 187 66q90 0 155.5 -21t65.5 -57v-612h98v-84h-990zM258 84h192v363h-192v-363zM258 524h192v7q0 15 2 41q-23 0 -39.5 15t-16.5 41q0 43 41 56q-19 44 -76 44q-37 0 -70 -30.5 t-33 -93.5v-80zM578 84h215v632q-57 11 -95 11q-62 0 -91 -28t-29 -89v-86h115v-77h-115v-363z" />
</font>
</defs>
</svg>
