<?xml version="1.0" standalone="no"?>
<!DOCTYPE svg PUBLIC "-//W3C//DTD SVG 1.1//EN" "http://www.w3.org/Graphics/SVG/1.1/DTD/svg11.dtd" >
<svg xmlns="http://www.w3.org/2000/svg">
<metadata></metadata>
<defs>
<font id="mateitalic" horiz-adv-x="484" >
<font-face units-per-em="1000" ascent="800" descent="-200" />
<missing-glyph horiz-adv-x="260" />
<glyph unicode="&#xfb01;" horiz-adv-x="492" d="M15 -194l104 602h-59q-11 0 -11 16q0 8 2 18l76 13q27 146 84 216t144 91q10 0 27.5 -4.5t31 -9.5t32 -11.5t22.5 -8.5l-17 -49q-104 20 -130 20q-28 0 -49 -20t-36 -59.5t-24 -76.5t-19 -92h180q45 37 72 37l15 -9q-32 -81 -68.5 -229.5t-36.5 -196.5q64 -7 90 -27 l-6 -19l-124 -19q-17 0 -17 35q0 76 66 385h-179l-66 -356l-67 -241z" />
<glyph unicode="&#xfb02;" horiz-adv-x="500" d="M15 -194l104 602h-59q-11 0 -11 16q0 8 2 18l76 13q9 51 22.5 93t30.5 73.5t36 55.5t42 40.5t46.5 27t50.5 17.5q17 0 87 -24q0 5 1 9q39 15 73 15l15 -9q-38 -77 -103 -356.5t-65 -343.5q64 -7 90 -27l-6 -19l-124 -19q-3 0 -6.5 2t-7 10.5t-3.5 22.5q0 54 21 168.5 t59 286.5t46 208l-1 -2q-84 15 -110 15q-28 0 -49 -20t-36 -59.5t-24 -76.5t-19 -92h121q0 -9 -5.5 -26t-13.5 -17h-110l-66 -356l-67 -241z" />
<glyph horiz-adv-x="1000" />
<glyph horiz-adv-x="1000" />
<glyph unicode="&#xd;" horiz-adv-x="1000" />
<glyph unicode=" "  horiz-adv-x="260" />
<glyph unicode="&#x09;" horiz-adv-x="260" />
<glyph unicode="&#xa0;" horiz-adv-x="260" />
<glyph unicode="!" horiz-adv-x="267" d="M57 20q0 13 4.5 31t8.5 30t5 12q32 7 48 7q25 0 25 -34q0 -12 -4 -29.5t-8 -29.5t-5 -12q-31 -8 -50 -8q-24 0 -24 33zM105 160l90 504q29 15 51 15l14 -9q-6 -134 -34.5 -248t-88.5 -258z" />
<glyph unicode="&#x22;" horiz-adv-x="300" d="M124 474q0 123 19 219q35 15 60 15l15 -9l-67 -225h-27zM249 474q0 123 19 219q35 15 60 15l15 -9l-67 -225h-27z" />
<glyph unicode="#" horiz-adv-x="510" d="M2 168l20 57h104l36 105h-114l20 57h114l59 167h57l-59 -167h105l59 167h57l-59 -167h107l-20 -57h-107l-36 -105h117l-20 -57h-117l-59 -168h-57l59 168h-105l-59 -168h-57l59 168h-104zM183 225h105l36 105h-105z" />
<glyph unicode="$" d="M40 28l51 138l21 -4q0 -7 0.5 -20.5t0.5 -20.5q0 -40 -2 -60q28 -13 65 -19l50 205l-51 35q-57 39 -57 107q0 60 49.5 107t133.5 66l16 65h38l-16 -66q41 -4 110 -27l-16 -49q-49 11 -109 16l-46 -194l60 -40q70 -47 70 -113q0 -76 -61.5 -120t-145.5 -46l-18 -76h-38 l19 78q-59 8 -124 38zM186 408q0 -39 38 -65l21 -15l41 171q-45 -5 -72.5 -27.5t-27.5 -63.5zM214 39q50 0 82 29.5t32 68.5q0 42 -36 66l-34 22z" />
<glyph unicode="%" horiz-adv-x="713" d="M65 418q0 102 52.5 162.5t120.5 60.5q48 0 77.5 -31.5t29.5 -91.5q0 -82 -46.5 -152t-127.5 -70q-49 0 -77.5 31t-28.5 91zM133 -56l422 741h56l-422 -741h-56zM136 404q0 -66 46 -66q26 0 45.5 21.5t29 54t14 62.5t4.5 56q0 66 -47 66q-26 0 -45 -21.5t-28.5 -54.5 t-14 -63t-4.5 -55zM398 108q0 103 52.5 164t119.5 61q48 0 78 -32t30 -92q0 -82 -47.5 -151.5t-128.5 -69.5q-48 0 -76 30.5t-28 89.5zM468 96q0 -66 47 -66q26 0 45.5 21.5t28.5 54t13.5 62.5t4.5 56q0 66 -46 66q-26 0 -45.5 -21.5t-29 -54t-14 -62.5t-4.5 -56z" />
<glyph unicode="&#x26;" horiz-adv-x="580" d="M20 118q0 68 47 142.5t125 134.5q-7 32 -7 66q0 58 41.5 108t97.5 78t111 34q19 0 99 -28l-16 -49q-84 16 -117 16q-70 0 -109.5 -44t-39.5 -97q0 -64 37.5 -156t95.5 -184q69 72 87 161l-27 103q45 44 75 44l18 -10q0 -206 -129 -335q32 -45 35 -49q24 -2 54 -10.5 t41 -16.5l-6 -19l-124 -19q-11 0 -56 66q-95 -68 -181 -68q-77 0 -114.5 36t-37.5 96zM96 126q0 -42 22 -67t67 -25q68 0 144 56q-88 141 -124 257q-48 -46 -78.5 -107.5t-30.5 -113.5z" />
<glyph unicode="'" horiz-adv-x="175" d="M124 474q0 123 19 219q35 15 60 15l15 -9l-67 -225h-27z" />
<glyph unicode="(" horiz-adv-x="235" d="M38 106q0 177 69.5 350.5t189.5 271.5l23 -12q-71 -76 -120 -198t-68 -233.5t-19 -211.5q0 -195 52 -310l-30 -4q-97 128 -97 347z" />
<glyph unicode=")" horiz-adv-x="235" d="M-85 -229q103 111 155 296.5t52 345.5q0 196 -52 311l31 4q96 -130 96 -350q0 -175 -69.5 -347.5t-187.5 -271.5z" />
<glyph unicode="*" horiz-adv-x="427" d="M95 594q0 17 6 34t20 17q6 0 14.5 -4t19 -11.5t20 -15t21.5 -18.5t19.5 -18t17.5 -17l12 -12l-5 -14q-73 8 -126 25q-19 5 -19 34zM108 427q0 7 5 13q10 15 125 81l12 -9q-31 -67 -63 -113q-7 -10 -21 -10q-16 0 -37 12.5t-21 25.5zM244 679q0 16 17.5 24.5t37.5 8.5 q29 0 29 -22q0 -25 -54 -139h-15q-15 73 -15 128zM262 505l13 9q52 -49 88 -95q4 -5 4 -13q0 -16 -17 -35t-34 -19q-9 0 -15 9q-8 10 -39 144zM281 538q21 15 62.5 35.5t60.5 20.5q16 0 30.5 -20t14.5 -39q0 -21 -40 -21q-25 0 -124 9z" />
<glyph unicode="+" d="M88 249l10 57h146l27 153h54l-27 -153h146l-10 -57h-146l-27 -154h-54l27 154h-146z" />
<glyph unicode="," horiz-adv-x="197" d="M17 -107q23 32 35 51t22 45t10 52q0 30 -14 69q33 11 56 11q42 0 42 -61q-10 -41 -54 -97t-75 -86z" />
<glyph unicode="-" horiz-adv-x="390" d="M50 279h283l7 -33q-53 -26 -173 -26q-62 0 -112 9z" />
<glyph unicode="." horiz-adv-x="197" d="M44 26q0 15 5 37t10 36.5t6 14.5q37 7 58 7q28 0 28 -40q0 -14 -5 -35t-9.5 -35t-5.5 -14q-36 -9 -58 -9q-29 0 -29 38z" />
<glyph unicode="/" horiz-adv-x="327" d="M-30 -50l333 800h54l-333 -800h-54z" />
<glyph unicode="0" d="M31 179q0 48 10.5 99.5t34 102.5t55.5 91.5t80 65.5t104 25q75 0 120 -50t45 -145q0 -62 -18 -127t-52 -122.5t-91 -94t-127 -36.5q-74 0 -117.5 48.5t-43.5 142.5zM107 170q0 -133 102 -133q52 0 91.5 36t60.5 92t31 111t10 104q0 133 -101 133q-52 0 -91.5 -36 t-60.5 -91.5t-31.5 -111t-10.5 -104.5z" />
<glyph unicode="1" d="M75 26q85 21 144 31l85 442l-132 -33l-15 52q0 1 50.5 12t105 22t61.5 11q12 -6 12 -23q0 -2 -0.5 -4t-0.5 -4l-93 -477q45 -10 110 -33l-6 -22h-313z" />
<glyph unicode="2" d="M-3 32l264 251q84 79 84 146q0 30 -27.5 52.5t-76.5 22.5q-28 0 -120 -15l-12 40q115 34 135 34q72 -10 124.5 -45.5t52.5 -90.5q0 -98 -150 -219l-198 -161q231 5 343 25l6 -17q-9 -30 -31 -59q-62 4 -379 4z" />
<glyph unicode="3" d="M8 -29l51 138l21 -4q0 -7 0.5 -20.5t0.5 -20.5q0 -40 -2 -60q41 -23 93 -23q64 0 115 39t51 108q0 48 -39 78.5t-112 31.5l1 34q85 11 134 57t49 100q0 30 -25 52.5t-69 22.5q-29 0 -130 -15l-12 40q115 34 135 34q173 -30 173 -136q0 -48 -42.5 -94t-108.5 -69 q59 -12 91 -47.5t32 -82.5q0 -60 -38 -107.5t-91 -71t-106 -23.5q-102 0 -172 39z" />
<glyph unicode="4" d="M-8 101q0 10 62 117l211 366l65 -22l-265 -428h226l48 245q0 1 10 3t24 4t21 2q12 -6 12 -23q0 -1 -0.5 -4t-0.5 -4l-44 -223h95l-9 -45h-94l-18 -92q38 -9 87 -31l-6 -22h-263l-8 26q71 20 121 31l17 88h-266q-25 0 -25 12z" />
<glyph unicode="5" d="M-1 -29l51 138l21 -4q0 -7 0.5 -20.5t0.5 -20.5q0 -40 -2 -60q41 -23 94 -23q63 0 114 39t51 108q0 53 -38 86t-108 33q-27 0 -54 -5l-23 23l60 267h20q139 0 266 25l6 -17q-9 -30 -31 -59q-65 4 -210 4l-56 -187q9 1 28 1q113 0 165.5 -43.5t52.5 -113.5 q0 -93 -73.5 -151.5t-161.5 -58.5q-102 0 -173 39z" />
<glyph unicode="6" d="M41 157q0 85 35.5 163t99 142t130 112.5t150.5 95.5l25 -38q-227 -138 -308 -282h109q70 0 115 -35.5t45 -101.5q0 -100 -75 -162.5t-164 -62.5q-70 0 -116 42.5t-46 126.5zM123 163q0 -58 23.5 -90.5t63.5 -32.5q59 0 105 48t46 128q0 86 -101 86q-47 0 -116 -16 q-21 -57 -21 -123z" />
<glyph unicode="7" d="M87 540l6 17q166 -25 350 -25l32 32l24 -18l-329 -614l-72 19l310 534q-199 0 -290 -4q-22 29 -31 59z" />
<glyph unicode="8" d="M32 127q0 51 41 114.5t123 104.5q-74 55 -74 134q0 77 58 132.5t154 55.5q67 0 107 -34.5t40 -90.5q0 -46 -35.5 -103t-107.5 -95q97 -71 97 -156q0 -81 -66.5 -141t-172.5 -60q-76 0 -120 38.5t-44 100.5zM112 132q0 -43 24 -69t71 -26q55 0 100 38.5t45 99.5 q0 54 -53 95l-70 52q-56 -39 -86.5 -92.5t-30.5 -97.5zM199 499q0 -56 62 -99l45 -32q49 34 73.5 82.5t24.5 88.5q0 36 -20 58t-60 22q-52 0 -88.5 -34.5t-36.5 -85.5z" />
<glyph unicode="9" d="M38 -97q101 71 175.5 139.5t119.5 149.5h-97q-71 0 -116 37t-45 106q0 100 73 164t162 64q70 0 117 -44t47 -129q0 -83 -33.5 -159t-97.5 -142t-128 -115t-153 -105zM154 335q0 -95 106 -95q43 0 103 16q25 67 25 139q0 117 -85 117q-65 0 -107 -54t-42 -123z" />
<glyph unicode=":" horiz-adv-x="197" d="M44 26q0 15 5 37t10 36.5t6 14.5q37 7 58 7q28 0 28 -40q0 -14 -5 -35t-9.5 -35t-5.5 -14q-36 -9 -58 -9q-29 0 -29 38zM90 333q0 15 5 37t10 36.5t6 14.5q37 7 58 7q28 0 28 -40q0 -14 -5 -35t-9.5 -35t-5.5 -14q-36 -9 -58 -9q-29 0 -29 38z" />
<glyph unicode=";" horiz-adv-x="197" d="M17 -107q23 32 35 51t22 45t10 52q0 30 -14 69q33 11 56 11q42 0 42 -61q-10 -41 -54 -97t-75 -86zM90 333q0 15 5 37t10 36.5t6 14.5q37 7 58 7q28 0 28 -40q0 -14 -5 -35t-9.5 -35t-5.5 -14q-36 -9 -58 -9q-29 0 -29 38z" />
<glyph unicode="&#x3c;" d="M88 249l10 57l375 162l-11 -60l-307 -131l261 -130l-11 -60z" />
<glyph unicode="=" d="M74 168l10 57h346l-10 -57h-346zM102 330l10 57h346l-10 -57h-346z" />
<glyph unicode="&#x3e;" d="M59 87l11 60l307 130l-261 131l11 60l317 -162l-10 -57z" />
<glyph unicode="?" horiz-adv-x="376" d="M70 20q0 13 4.5 31t8.5 30t5 12q32 7 48 7q25 0 25 -34q0 -12 -4 -29.5t-8 -29.5t-5 -12q-31 -8 -50 -8q-24 0 -24 33zM77 650q96 28 119 28q32 -5 61 -16.5t57 -31.5t45 -54t17 -78q0 -86 -75 -188.5t-155 -161.5l-25 18l88 119q100 137 100 221q0 49 -25.5 80t-67.5 31 q-17 0 -33 -1.5t-27 -3.5t-30 -5.5t-33 -5.5z" />
<glyph unicode="@" horiz-adv-x="882" d="M50 118q0 118 62.5 227t173 178t237.5 69q139 0 224 -77.5t85 -213.5q0 -129 -77 -221t-193 -92q-34 0 -51 15t-18 48l-51 -24q-83 -39 -125 -39q-37 0 -54.5 27.5t-17.5 89.5q0 74 16.5 133.5t42 96t62 64t69 40.5t71.5 23q22 0 75 -21l23 27h23q-22 -100 -46 -239.5 t-24 -163.5q0 -36 37 -36q43 0 76.5 25.5t52.5 66.5t28.5 85.5t9.5 88.5q0 121 -68.5 190.5t-180.5 69.5q-109 0 -201 -67t-141 -165.5t-49 -199.5q0 -120 67.5 -189t179.5 -69q121 0 228 85l47 -23q-130 -99 -286 -99q-138 0 -222.5 77.5t-84.5 212.5zM316 105 q0 -65 42 -65q24 0 67 20l70 32l54 313h-75q-56 0 -93 -46.5t-51 -110.5t-14 -143z" />
<glyph unicode="A" horiz-adv-x="618" d="M-70 22q14 9 73 35l336 634q37 15 64 15l15 -9l91 -641q41 -14 79 -34l-6 -22h-223l-8 26q42 17 80 29l-25 174l-262 -14l-83 -159l76 -30l-8 -26h-193zM174 273h226l-48 344z" />
<glyph unicode="B" horiz-adv-x="613" d="M13 26q51 21 85 31l111 585q-37 10 -84 36l6 22l121 -4l173 2q71 0 111.5 -43t40.5 -111q0 -50 -38 -95.5t-98 -74.5q62 -16 94 -56.5t32 -92.5q0 -90 -70 -157.5t-167 -67.5q-7 0 -204 8l-105 -8zM166 58q84 -14 147 -14q78 0 125.5 55t47.5 124q0 49 -27 84.5t-80 43.5 q-13 -5 -27 -6q-20 0 -83 21l12 41q62 -8 81 -8q67 0 101 43.5t34 95.5q0 51 -23.5 84.5t-70.5 33.5l-125 -10l-48 -296z" />
<glyph unicode="C" horiz-adv-x="561" d="M50 254q0 103 30 185.5t84.5 137t123 88t151.5 47.5q17 0 46.5 -7t69 -19t42.5 -13l-26 -50q-115 23 -158 23q-136 0 -209.5 -104t-73.5 -284q0 -107 51.5 -162t139.5 -55q92 0 164 41l21 -36q-99 -58 -204 -58q-116 0 -184 68t-68 198z" />
<glyph unicode="D" horiz-adv-x="717" d="M13 26q51 21 85 31l111 585q-37 10 -84 36l6 22l126 -4l197 16q112 0 180 -65t68 -188q0 -122 -45 -223.5t-138 -168.5t-220 -73l-176 14l-102 -8zM167 60q81 -19 150 -19t128.5 38t97 98t58.5 131t21 141q0 102 -50 155.5t-135 53.5q-81 0 -161 -19l-46 -289z" />
<glyph unicode="E" horiz-adv-x="570" d="M13 26q51 21 85 31l111 585q-37 10 -84 36l6 22l121 -4q250 2 319 17l6 -17q-9 -29 -31 -56q-164 0 -268 6l-43 -264h247l-9 -43l-248 -13l-59 -271q255 2 325 17l6 -17q-9 -33 -31 -59q-162 12 -340 12l-105 -8z" />
<glyph unicode="F" horiz-adv-x="550" d="M13 26q51 21 85 31l111 585q-37 10 -84 36l6 22l121 -4q242 0 319 17l6 -17q-9 -29 -31 -56q-164 0 -268 6l-46 -280h236l-9 -43l-238 -13l-54 -250q58 -15 113 -38l-6 -22h-253z" />
<glyph unicode="G" horiz-adv-x="627" d="M50 254q0 108 32.5 191.5t92 136.5t132 84.5t162.5 45.5q17 0 46.5 -7t69 -19t42.5 -13l-26 -50q-115 23 -158 23q-150 0 -231.5 -104t-81.5 -284q0 -107 51.5 -162t139.5 -55q86 0 155 31l29 234l-150 11l8 43h225l-53 -274l3 -39q-119 -59 -236 -59q-116 0 -184 68 t-68 198z" />
<glyph unicode="H" horiz-adv-x="763" d="M13 26q51 21 85 31l111 585q-37 10 -84 36l6 22h223l8 -26q-51 -21 -85 -31l-42 -259h335l57 258q-37 10 -84 36l6 22h223l8 -26q-51 -21 -85 -31l-111 -585q45 -15 84 -36l-6 -22h-223l-8 26q26 11 84 31l46 281l-337 -16l-58 -264q43 -14 84 -36l-6 -22h-223z" />
<glyph unicode="I" horiz-adv-x="355" d="M14 26q26 11 84 31l51 293l61 292q-37 10 -84 36l6 22h223l8 -26q-51 -21 -85 -31l-50 -293l-61 -292q43 -14 84 -36l-6 -22h-223z" />
<glyph unicode="J" horiz-adv-x="324" d="M-84 -183q164 181 195 342l93 482q-56 16 -100 37l6 22h243l8 -26q-39 -16 -81 -30l-88 -458q-36 -183 -251 -390z" />
<glyph unicode="K" horiz-adv-x="594" d="M13 26q51 21 85 31l111 585q-37 10 -84 36l6 22h223l8 -26q-51 -21 -85 -31l-43 -267q38 -8 85 -8q16 0 24 1q58 65 127 165l42 121q55 52 91 52l21 -13q-28 -60 -84.5 -139.5t-160.5 -211.5q27 -161 103 -286q24 -2 54 -11t41 -18l-6 -20l-131 -20q-25 0 -63 108 t-55 219q-25 0 -96 19l-60 -276q43 -14 84 -36l-6 -22h-223z" />
<glyph unicode="L" horiz-adv-x="499" d="M13 26q26 11 84 31l51 293l61 292q-37 10 -84 36l6 22h223l8 -26q-51 -21 -85 -31l-50 -293l-61 -295q212 2 281 17l6 -17q-9 -33 -31 -59q-108 9 -292 9l-109 -5z" />
<glyph unicode="M" horiz-adv-x="883" d="M-15 22q42 25 79 36l142 586q-37 14 -70 34l6 22l165 -4l118 -511l305 511l153 4l8 -26q-38 -16 -85 -32l-69 -586q45 -14 83 -30l-8 -26h-253l-6 22q50 22 105 36l69 543l-330 -551h-18l-133 548l-126 -540q28 -10 82 -32l-8 -26h-203z" />
<glyph unicode="N" horiz-adv-x="760" d="M6 22q35 21 78 36l110 585q-40 15 -73 35l6 22h137l295 -574l95 516q-34 12 -81 32l8 26h203l6 -22q-41 -25 -81 -37l-121 -641h-55l-298 583l-94 -525q28 -10 82 -32l-8 -26h-203z" />
<glyph unicode="O" horiz-adv-x="694" d="M50 242q0 82 28 164.5t78 151t127.5 111.5t167.5 43q107 0 167.5 -73.5t60.5 -184.5q0 -113 -49.5 -218.5t-146.5 -176.5t-217 -71q-100 0 -158 72t-58 182zM130 241q0 -88 43.5 -144t111.5 -56q75 0 136.5 38t99.5 98.5t58 131.5t20 142q0 88 -50.5 148t-121.5 60 q-74 0 -133 -37.5t-93.5 -99t-52.5 -133.5t-18 -148z" />
<glyph unicode="P" horiz-adv-x="563" d="M13 26q51 21 85 31l111 585q-37 10 -84 36l6 22l121 -4l171 2q76 0 118.5 -48t42.5 -126q0 -92 -72.5 -169.5t-167.5 -99.5q-11 0 -30.5 5.5t-45 15t-27.5 10.5l12 41q59 -18 101 -18q74 0 112 66t38 143q0 59 -25 98.5t-74 39.5l-127 -10l-48 -296l-63 -290 q58 -15 113 -38l-6 -22h-253z" />
<glyph unicode="Q" horiz-adv-x="694" d="M50 242q0 65 17.5 131.5t52 127t81.5 108t112 75.5t138 28q107 0 167.5 -73.5t60.5 -184.5q0 -100 -39.5 -196t-117.5 -168t-178 -94q35 -60 65 -84.5t63 -24.5q59 0 171 22l13 -49q-117 -39 -158 -39q-69 14 -121 55t-100 112h-11q-100 0 -158 72t-58 182zM130 241 q0 -88 43.5 -144t111.5 -56q60 0 112.5 25t88.5 66.5t62 95t38.5 110.5t12.5 113q0 88 -50.5 148t-121.5 60q-60 0 -110 -25t-84 -66t-57.5 -95.5t-34.5 -113t-11 -118.5z" />
<glyph unicode="R" horiz-adv-x="602" d="M13 26q51 21 85 31l111 585q-37 10 -84 36l6 22l121 -4l169 2q76 0 118.5 -48t42.5 -126q0 -69 -49.5 -131t-122.5 -94q19 -139 72 -242q24 -2 54 -11t41 -18l-6 -20l-131 -20q-18 0 -47 96.5t-41 195.5q-11 0 -46.5 11t-56.5 20l12 41q59 -18 101 -18q48 0 81 31t46 71 t13 82q0 59 -25 98.5t-74 39.5l-125 -10l-48 -296l-64 -292q42 -11 94 -36l-6 -22h-233z" />
<glyph unicode="S" horiz-adv-x="490" d="M0 36l36 150l23 -5q9 -47 14 -104q52 -41 137 -41q74 0 118 42t44 101q0 56 -48 88l-149 101q-68 46 -68 127q0 80 63.5 140.5t171.5 76.5q17 0 46.5 -7t69 -19t42.5 -13l-26 -50q-115 23 -158 23q-23 0 -44.5 -5t-44 -17.5t-36.5 -38.5t-14 -62q0 -63 50 -96l145 -98 q84 -58 84 -133q0 -92 -79 -150t-174 -58q-106 0 -203 48z" />
<glyph unicode="T" horiz-adv-x="541" d="M70 684l5 16h426q58 0 109 13l6 -17q-7 -21 -33 -58l-202 19l-53 -307l-61 -291q52 -13 104 -37l-6 -22h-263l-8 26q73 24 105 33l50 291l65 310h-78q-38 0 -128 -37q-28 31 -38 61z" />
<glyph unicode="U" horiz-adv-x="703" d="M95 155q0 31 7 63l82 425q-41 12 -82 35l6 22h223l8 -26q-39 -16 -81 -30l-83 -429q-5 -27 -5 -45q0 -60 37.5 -93.5t115.5 -33.5q89 0 145.5 50.5t70.5 122.5l83 426q-34 12 -81 32l8 26h203l6 -22q-45 -26 -81 -37l-82 -423q-20 -103 -97 -166.5t-188 -63.5 q-215 0 -215 167z" />
<glyph unicode="V" horiz-adv-x="582" d="M60 678l6 22h130l88 -611q49 72 113.5 204t97.5 238l10 124q55 52 91 52l21 -13q-46 -140 -137 -336.5t-197 -357.5l-57 -8l-102 654q-36 13 -64 32z" />
<glyph unicode="W" horiz-adv-x="858" d="M65 678l6 22h132l43 -598q52 93 111.5 218.5t97.5 229.5l-11 105q55 52 89 52l21 -13q-15 -44 -33 -92q4 -36 17.5 -196.5t27.5 -303.5q49 72 110.5 197.5t94.5 231.5l10 124q55 52 91 52l21 -13q-46 -140 -137 -336.5t-197 -357.5l-54 -8l-42 462q-105 -257 -223 -454 l-58 -8l-53 654q-36 13 -64 32z" />
<glyph unicode="X" horiz-adv-x="635" d="M0 26q43 20 83 35l232 282l-132 302q-38 12 -75 33l6 22h223l8 -26q-30 -13 -79 -29l107 -246l149 188q16 19 31 106q37 12 88 12q14 0 21 -1l12 -12l-280 -340l129 -296q41 -14 79 -34l-6 -22h-223l-8 26q32 13 76 28l-104 239l-149 -188q-22 -29 -32 -54l-4 -51h-144z " />
<glyph unicode="Y" horiz-adv-x="511" d="M46 678l6 22h120l117 -391q77 116 137 225l14 121q55 52 91 52l21 -13q-31 -81 -100.5 -204t-146.5 -226l-39 -205q50 -12 103 -37l-6 -22h-263l-8 26q53 18 104 32l37 213l-123 375q-36 13 -64 32z" />
<glyph unicode="Z" horiz-adv-x="605" d="M-13 8l496 635q-129 -3 -319 -3q-22 27 -31 56l6 17q94 -15 439 -17l26 16l18 -17l-506 -640q314 4 400 17l6 -17q-9 -30 -31 -59q-189 10 -450 12l-42 -20z" />
<glyph unicode="[" horiz-adv-x="235" d="M29 -233q0 263 88 482q-14 81 -14 164q0 116 44 318h166l-8 -34q0 -1 -23 -5t-49.5 -8t-34.5 -4l-106 -862q8 0 34 -4t48 -8t22 -5l-10 -34h-157z" />
<glyph unicode="\" horiz-adv-x="327" d="M-30 750h54l333 -800h-54z" />
<glyph unicode="]" horiz-adv-x="235" d="M-78 -233l8 34q0 1 23 5t49.5 8t34.5 4l106 862q-8 0 -34 4t-48 8t-22 5l10 34h157q0 -263 -88 -482q14 -81 14 -164q0 -116 -44 -318h-166z" />
<glyph unicode="^" d="M78 225l195 287h54l94 -287h-57l-74 232l-155 -232h-57z" />
<glyph unicode="_" horiz-adv-x="504" d="M40 -12h424v-57h-424v57z" />
<glyph unicode="`" horiz-adv-x="200" d="M-24 659q3 14 16.5 31t23.5 24q28 -43 61.5 -89t52.5 -71l20 -24l-15 -16q-102 64 -155 126z" />
<glyph unicode="a" horiz-adv-x="498" d="M35 82q0 92 26 164.5t69 116t86.5 68t91.5 36.5q10 0 28 -5t42.5 -14.5t28.5 -10.5l10 24q22 0 41 -4q-36 -79 -68 -210.5t-32 -193.5q64 -7 90 -27l-6 -19l-124 -19q-3 0 -6.5 2t-7 10.5t-3.5 22.5q0 57 23 190q-78 -128 -130.5 -176.5t-96.5 -48.5q-29 0 -45.5 26 t-16.5 68zM102 80q0 -36 25 -36q56 0 214 264l18 93q-50 9 -83 9q-56 0 -97 -53.5t-59 -126.5t-18 -150z" />
<glyph unicode="b" horiz-adv-x="485" d="M22 27q46 106 93.5 341.5t47.5 325.5q-47 5 -80 30l6 19l140 19q9 0 9 -35q0 -75 -91 -472q83 121 137 166.5t99 45.5q29 0 45.5 -26t16.5 -68q0 -92 -26 -164.5t-69 -116t-86.5 -68t-91.5 -36.5q-25 0 -150 39zM110 55q62 -10 94 -10q56 0 97 53.5t59 126.5t18 150 q0 36 -25 36q-55 0 -213 -220z" />
<glyph unicode="c" horiz-adv-x="366" d="M40 122q0 82 23 147t61 104.5t77.5 62t81.5 32.5q11 0 93 -26l-15 -46q-84 15 -110 15q-67 0 -105.5 -91t-38.5 -200q0 -76 56 -76q32 0 70 30.5t64 74.5l22 -22q-31 -52 -77.5 -95.5t-102.5 -43.5q-47 0 -73 37t-26 97z" />
<glyph unicode="d" horiz-adv-x="485" d="M35 82q0 92 26 164.5t69 116t86.5 68t91.5 36.5q16 0 62 -16q51 253 58 296q39 15 73 15l15 -9q-35 -77 -96.5 -356.5t-61.5 -343.5q64 -7 90 -27l-6 -19l-124 -19q-3 0 -6.5 2t-7 10.5t-3.5 22.5q0 59 23 190q-78 -128 -130.5 -176.5t-96.5 -48.5q-29 0 -45.5 26 t-16.5 68zM102 80q0 -36 25 -36q56 0 215 264l18 93q-50 9 -84 9q-56 0 -97 -53.5t-59 -126.5t-18 -150z" />
<glyph unicode="e" horiz-adv-x="398" d="M40 122q0 77 21 139.5t51.5 99.5t68 62.5t67 35t50.5 9.5q29 0 57 -18.5t28 -42.5q0 -70 -45.5 -123.5t-112.5 -60.5l-111 -11q-7 -42 -7 -92q0 -76 56 -76q35 0 77 30.5t72 74.5l22 -22q-92 -139 -195 -139q-47 0 -73 37t-26 97zM123 256h68q55 0 90.5 43t35.5 101 q0 9 -11 12.5t-43 3.5q-50 0 -85.5 -44t-54.5 -116z" />
<glyph unicode="f" horiz-adv-x="268" d="M15 -194l104 602h-59q-11 0 -11 16q0 8 2 18l76 13q27 146 84 216t144 91q11 0 28 -4.5t40.5 -13t24.5 -8.5l-17 -52q-84 15 -110 15q-28 0 -49 -20t-36 -59.5t-24 -76.5t-19 -92h121q0 -9 -5.5 -26t-13.5 -17h-110l-66 -356l-67 -241z" />
<glyph unicode="g" horiz-adv-x="409" d="M-56 -106q35 53 123 106q-17 10 -17 33q12 45 52 104q-62 21 -62 96q0 63 23.5 111.5t60 74t72 37.5t66.5 12q29 0 53 -8q44 60 99 62q15 -29 15 -53l-9 -15q-55 0 -75 -10q34 -25 34 -77q0 -51 -17 -93t-42 -68t-57 -43.5t-60.5 -24.5t-53.5 -7h-6q-26 -40 -35 -64 q0 -21 23 -25l145 -28q52 -10 71 -21.5t19 -38.5q0 -75 -81 -140.5t-192 -65.5q-75 0 -112 38t-37 108zM11 -106q0 -98 94 -98q70 0 129.5 42t59.5 93q0 10 -9 16.5t-39 12.5l-146 29q-89 -73 -89 -95zM107 241q0 -70 60 -70q59 0 102 52.5t43 138.5q0 33 -17 52t-45 19 q-62 0 -102.5 -52.5t-40.5 -139.5z" />
<glyph unicode="h" horiz-adv-x="513" d="M22 -3q48 93 101 347t53 350q-47 5 -80 30l6 19l140 19q9 0 9 -35q0 -77 -91 -474q75 122 126.5 168.5t94.5 46.5q29 0 45.5 -26t16.5 -68q0 -34 -14.5 -92t-65.5 -229q53 -10 75 -26l-6 -19l-134 -20q-3 0 -6.5 2t-7 10.5t-3.5 22.5q38 79 66.5 188t28.5 167 q0 34 -25 34q-55 0 -202 -243l-37 -166q-40 -15 -75 -15z" />
<glyph unicode="i" horiz-adv-x="244" d="M50 23q0 83 75 428q39 15 64 15l15 -9q-32 -80 -64.5 -217.5t-32.5 -186.5q64 -7 90 -27l-6 -19l-124 -19q-3 0 -6.5 2t-7 10.5t-3.5 22.5zM153 579q0 14 4.5 33t9.5 31l5 12q32 7 50 7q25 0 25 -34q0 -13 -4.5 -31t-9 -29.5t-5.5 -11.5q-30 -9 -49 -9q-26 0 -26 32z" />
<glyph unicode="j" horiz-adv-x="245" d="M-60 -241q112 153 139 310l57 325q-47 5 -80 30l6 19l136 19q9 0 9 -35l-69 -355q-15 -74 -58 -162.5t-116 -171.5zM150 578q0 14 4.5 33t8.5 31.5t5 12.5q31 7 48 7q23 0 23 -35q0 -12 -4 -30t-8 -29l-4 -12q-29 -9 -47 -9q-26 0 -26 31z" />
<glyph unicode="k" horiz-adv-x="463" d="M22 -3q48 93 101 347t53 350q-47 5 -80 30l6 19l140 19q9 0 9 -35q0 -77 -91 -474q75 122 126.5 168.5t94.5 46.5q62 0 62 -84q0 -44 -41 -97t-127 -92q13 -44 68 -142q64 -7 90 -27l-6 -19l-124 -19q-17 0 -48.5 92t-31.5 139q77 23 116.5 68t39.5 86q0 39 -25 39 q-58 0 -205 -243l-37 -166q-40 -15 -75 -15z" />
<glyph unicode="l" horiz-adv-x="234" d="M40 23q0 81 67 392.5t70 331.5q39 15 73 15l15 -9q-38 -77 -103 -356.5t-65 -343.5q64 -7 90 -27l-6 -19l-124 -19q-3 0 -6.5 2t-7 10.5t-3.5 22.5z" />
<glyph unicode="m" horiz-adv-x="763" d="M40 -3q36 79 66 204t30 187q-47 5 -80 30l6 19l124 19q9 0 9 -35q0 -49 -20 -169q73 123 122.5 169.5t91.5 46.5q30 0 46 -26t16 -68q0 -26 -9 -82q62 99 106.5 137.5t82.5 38.5q30 0 46 -26t16 -68q0 -34 -14.5 -92t-65.5 -229q50 -9 75 -26l-6 -19l-134 -20 q-3 0 -6.5 2t-7 10.5t-3.5 22.5q38 80 66.5 190t28.5 171q0 28 -25 28q-51 0 -183 -223q-19 -76 -58 -186q-33 -15 -59 -15l-15 9q37 80 67.5 203t30.5 184q0 28 -25 28q-54 0 -200 -252q-16 -92 -29 -157q-42 -15 -75 -15z" />
<glyph unicode="n" horiz-adv-x="531" d="M40 -3q36 78 66 206.5t30 190.5q-47 5 -80 30l6 19l124 19q9 0 9 -35q0 -54 -21 -180q77 125 129 173t96 48q29 0 45.5 -26t16.5 -68q0 -34 -14.5 -92t-65.5 -229q53 -10 75 -26l-6 -19l-134 -20q-3 0 -6.5 2t-7 10.5t-3.5 22.5q38 79 66.5 188t28.5 167q0 34 -25 34 q-56 0 -210 -256q0 -1 -29 -153q-40 -15 -75 -15z" />
<glyph unicode="o" horiz-adv-x="449" d="M30 133q0 73 19 132.5t48 96t64.5 61.5t67.5 35t59 10q66 0 98.5 -38t32.5 -107q0 -73 -20 -132.5t-49.5 -96t-67 -61.5t-70 -35t-59.5 -10q-60 0 -91.5 38.5t-31.5 106.5zM94 130q0 -94 64 -94q73 0 135 82.5t62 211.5q0 46 -18.5 71t-50.5 25q-78 0 -135 -81.5 t-57 -214.5z" />
<glyph unicode="p" horiz-adv-x="499" d="M-15 -253q36 78 93 328t57 313q-48 5 -81 30l6 19l124 19q9 0 9 -35q0 -50 -21 -174q77 125 129 173t96 48q29 0 45.5 -26t16.5 -68q0 -92 -26 -164.5t-69 -116t-86.5 -68t-91.5 -36.5q-16 0 -62 16q-43 -211 -49 -252q-39 -15 -75 -15zM135 54q54 -8 83 -8q56 0 97 53.5 t59 126.5t18 150q0 36 -25 36q-56 0 -213 -261z" />
<glyph unicode="q" horiz-adv-x="470" d="M40 82q0 92 26 164.5t69 116t86.5 68t91.5 36.5q29 0 137 -36q-30 -75 -74.5 -310.5t-53.5 -317.5q50 -9 75 -26l-6 -19l-129 -20q-3 0 -6.5 2t-7 10.5t-3.5 22.5q0 16 12 74.5t38.5 176.5t38.5 171q-81 -118 -134.5 -162.5t-97.5 -44.5q-29 0 -45.5 26t-16.5 68zM107 80 q0 -36 25 -36q56 0 219 228q19 93 24 127q-59 11 -94 11q-56 0 -97 -53.5t-59 -126.5t-18 -150z" />
<glyph unicode="r" horiz-adv-x="363" d="M40 -3q36 79 66 204t30 187q-47 5 -80 30l6 19l124 19q9 0 9 -35q0 -43 -18 -161l32 61q41 77 75.5 106t78.5 41q15 -35 15 -63l-9 -15q-52 0 -71 -8t-36 -37l-99 -168l-33 -174q-40 -15 -75 -15z" />
<glyph unicode="s" horiz-adv-x="358" d="M10 14l30 126l19 -4q9 -45 12 -89q46 -17 93 -17q37 0 60 18t23 56q0 28 -40 63l-82 70q-20 17 -29 26.5t-17 26.5t-8 37q0 55 56.5 94.5t122.5 46.5q15 0 93 -26l-15 -46q-81 15 -121 15q-39 0 -60 -17.5t-21 -43.5q0 -28 24 -47l99 -84q35 -30 49.5 -51t14.5 -50 q0 -62 -45 -96t-112 -34q-75 0 -146 26z" />
<glyph unicode="t" horiz-adv-x="295" d="M55 424q0 8 2 18l90 15q23 103 32 138q39 15 69 15l15 -9q-17 -41 -49 -150h101q0 -10 -5 -26.5t-14 -16.5h-94q-73 -267 -73 -355q26 0 68 -7.5t52 -15.5l-6 -19l-154 -23q-3 0 -6.5 2t-7 10.5t-3.5 22.5q0 30 18 142t46 243h-70q-11 0 -11 16z" />
<glyph unicode="u" horiz-adv-x="516" d="M48 424l6 19l145 19q9 0 9 -35q-34 -85 -60 -193t-26 -167q0 -28 22 -28q57 0 212 255q11 63 30 157q40 15 75 15l15 -9q-36 -79 -68 -210.5t-32 -193.5q64 -7 90 -27l-6 -19l-124 -19q-3 0 -6.5 2t-7 10.5t-3.5 22.5q0 55 21 178q-76 -123 -128 -170.5t-95 -47.5 q-29 0 -45.5 26t-16.5 68q0 39 13.5 99.5t59.5 217.5q-47 5 -80 30z" />
<glyph unicode="v" horiz-adv-x="409" d="M21 430l6 19l112 19q10 0 46 -395q34 44 73 121.5t67 155.5q7 44 12 83q41 35 70 35l15 -9q-131 -343 -244 -465l-42 -6l-56 412q-36 5 -59 30z" />
<glyph unicode="w" horiz-adv-x="608" d="M27 430l6 19l112 19q7 0 26 -395q33 44 74.5 129.5t67.5 161.5l-6 66q23 19 45 28.5t31 9.5l15 -9l-31 -82q6 -58 27 -304q69 92 132 277l10 83q41 35 70 35l15 -9q-126 -346 -231 -465l-45 -6l-24 277q-81 -186 -154 -271l-45 -6l-36 412q-36 5 -59 30z" />
<glyph unicode="x" horiz-adv-x="426" d="M-10 -2q81 130 196 234q-26 119 -61 165q-21 2 -46 10.5t-33 16.5l6 19l115 19q40 -40 72 -186q30 29 65 71q35 63 47 101q39 15 70 15l15 -9q-76 -118 -187 -221q29 -133 59 -177q64 -7 90 -27l-6 -19l-126 -19q-17 18 -31.5 54t-20.5 63t-18 82q-34 -33 -70 -80 q-40 -69 -52 -106q-40 -15 -70 -15z" />
<glyph unicode="y" horiz-adv-x="409" d="M21 430l6 19l112 19q10 0 46 -395q34 44 73 121.5t67 155.5q7 44 12 83q41 35 70 35l15 -9q-131 -343 -244 -464l-35 -131q0 -58 1 -83q-40 -39 -74 -43l-16 7q31 126 81 252l-55 403q-36 5 -59 30z" />
<glyph unicode="z" horiz-adv-x="404" d="M0 1l302 404q-31 -3 -74 -6.5t-71 -5.5t-45 -4q-23 31 -31 56l6 17q55 -13 256 -17l52 26l19 -15l-308 -412q170 3 232 19l6 -17q-9 -27 -31 -53q-14 1 -262 10l-35 -15z" />
<glyph unicode="{" horiz-adv-x="258" d="M29 236l4 27l98 27q-17 78 -17 156q0 99 42 285h166l-8 -34q0 -1 -24 -5t-52 -8t-37 -4q-15 -119 -15 -217q0 -34 2 -76.5t2 -54.5q0 -39 -15 -56t-48 -23l-1 -8q50 -9 50 -45q0 -22 -13.5 -65t-34 -127t-33.5 -190q9 0 36 -4t50.5 -8t23.5 -5l-10 -34h-157q0 257 83 442 z" />
<glyph unicode="|" horiz-adv-x="270" d="M100 -208v881h70v-881h-70z" />
<glyph unicode="}" horiz-adv-x="258" d="M-64 -233l8 34q0 1 24 5t52 8t37 4q15 119 15 217q0 34 -2 76.5t-2 54.5q0 39 15 56t48 23l1 8q-50 9 -50 45q0 22 13.5 65t34 127t33.5 190q-9 0 -36 4t-50.5 8t-23.5 5l10 34h157q0 -257 -83 -442l92 -27l-4 -27l-98 -27q17 -78 17 -156q0 -99 -42 -285h-166z" />
<glyph unicode="~" d="M85 275q45 44 106 44q29 0 83.5 -12.5t80.5 -12.5q40 0 79 27l14 -37q-47 -46 -107 -46q-29 0 -84 12.5t-80 12.5q-43 0 -76 -25z" />
<glyph unicode="&#xa1;" horiz-adv-x="287" d="M27 -215q6 134 34.5 248t88.5 258l32 4l-90 -504q-29 -15 -51 -15zM139 389q0 12 4 29.5t8 29.5t5 12q31 8 50 8q24 0 24 -33q0 -13 -4.5 -31t-8.5 -30t-5 -12q-32 -7 -48 -7q-25 0 -25 34z" />
<glyph unicode="&#xa2;" d="M90 214q0 125 65 199t165 102l15 59h38l-14 -56q27 -1 104 -28l-16 -49q-76 14 -103 16l-90 -369q16 -2 25 -2q45 0 102 25l11 -30q-69 -43 -135 -43h-15l-18 -73h-38l19 79q-54 13 -84.5 56.5t-30.5 113.5zM165 222q0 -90 54 -121l87 354q-141 -15 -141 -233z" />
<glyph unicode="&#xa3;" d="M9 32q58 48 88 110t33 121h-64l6 37h59q0 8 0.5 18t0.5 12q0 102 56.5 161.5t124.5 71.5q38 0 136 -29l-15 -48q-92 15 -120 15q-67 0 -89.5 -39.5t-22.5 -161.5h142l-6 -37h-138q-8 -91 -107 -212l2 -4q224 6 321 25l6 -17q-9 -30 -31 -59q-62 4 -365 4z" />
<glyph unicode="&#xa5;" d="M69 26q60 18 108 29l25 124h-112l7 37h112l1 4l-14 43h-91l6 37h73l-64 199l-40 22q9 30 19 30l73 -4l70 4q9 0 9 -17q0 -4 -0.5 -8t-0.5 -5l-59 -20l74 -240l156 240l-56 20q6 30 18 30q1 0 65 -4l59 4q9 0 9 -17q0 -10 -1 -13l-49 -22l-131 -199h76l-6 -37h-95l-25 -39 l-2 -8h114l-7 -37h-114l-25 -125q46 -11 100 -32l-6 -22h-268z" />
<glyph unicode="&#xa6;" horiz-adv-x="270" d="M100 143h70v-351h-70v351zM100 322v351h70v-351h-70z" />
<glyph unicode="&#xa7;" horiz-adv-x="427" d="M20 -70l26 154q42 0 42 -14v-101q19 -4 47 -4q57 0 99.5 24.5t43.5 74.5q-7 29 -53 70t-87 78.5t-41 62.5q0 57 56 109l22 -18q-22 -38 -22 -71q0 -25 15 -36l64 -50q111 -87 111 -150q0 -67 -58 -105.5t-149 -38.5q-56 0 -116 15zM84 568q0 67 58 105.5t149 38.5 q56 0 116 -15l-26 -154q-42 0 -42 14v101q-19 4 -47 4q-57 0 -99.5 -24.5t-43.5 -74.5q7 -29 53 -70t87 -78.5t41 -62.5q0 -58 -56 -110l-22 18q21 34 21 71q0 23 -14 36l-64 51q-51 41 -81 77t-30 73z" />
<glyph unicode="&#xa8;" horiz-adv-x="374" d="M68 576q0 14 5 33t9 31l5 12q32 7 50 7q25 0 25 -34q0 -13 -4.5 -31t-9 -29.5t-5.5 -11.5q-30 -9 -49 -9q-26 0 -26 32zM204 576q0 14 5 33t9 31l5 12q32 7 50 7q25 0 25 -34q0 -13 -4.5 -31t-9 -29.5t-5.5 -11.5q-30 -9 -49 -9q-26 0 -26 32z" />
<glyph unicode="&#xa9;" horiz-adv-x="626" d="M30 500q0 118 82.5 200.5t200.5 82.5t200.5 -82.5t82.5 -200.5t-82.5 -200.5t-200.5 -82.5t-200.5 82.5t-82.5 200.5zM67 500q0 -103 71.5 -174.5t174.5 -71.5t174.5 71.5t71.5 174.5t-71.5 174.5t-174.5 71.5t-174.5 -71.5t-71.5 -174.5zM158 506q0 85 48.5 133 t122.5 48q59 0 108 -33l-14 -81q-34 0 -34 12v51q-34 10 -63 10q-36 0 -66 -11q-20 -17 -33 -52.5t-13 -77.5q0 -71 31 -108.5t81 -37.5q39 0 67 16l11 49q3 10 36 10l-4 -79q-45 -33 -115 -33q-73 0 -118 47.5t-45 136.5z" />
<glyph unicode="&#xaa;" horiz-adv-x="283" d="M12 321l6 28h244l-4 -43q-48 -8 -97 -8q-103 0 -149 23zM16 452q0 55 15.5 98.5t42 69.5t52.5 40.5t56 22.5q18 0 55 -15l5 12q21 0 36 -4q-21 -45 -39.5 -122t-20.5 -116q36 -6 54 -17l-5 -16l-77 -12q-17 0 -17 25q0 32 11 95q-43 -68 -71.5 -94t-54.5 -26 q-20 0 -31 16.5t-11 42.5zM67 451q0 -18 9 -18q29 0 120 152l11 53q-20 4 -43 4q-45 0 -71 -60t-26 -131z" />
<glyph unicode="&#xab;" horiz-adv-x="448" d="M50 213l5 28l215 203l24 -24l-158 -193l89 -193l-32 -19zM205 213l5 28l215 203l23 -24l-157 -193l88 -193l-31 -19z" />
<glyph unicode="&#xac;" d="M69 249l10 57h319h27h24l-30 -169h-51l20 112h-319z" />
<glyph unicode="&#xad;" horiz-adv-x="390" d="M50 279h283l7 -33q-53 -26 -173 -26q-62 0 -112 9z" />
<glyph unicode="&#xae;" horiz-adv-x="626" d="M30 500q0 118 82.5 200.5t200.5 82.5t200.5 -82.5t82.5 -200.5t-82.5 -200.5t-200.5 -82.5t-200.5 82.5t-82.5 200.5zM67 500q0 -103 71.5 -174.5t174.5 -71.5t174.5 71.5t71.5 174.5t-71.5 174.5t-174.5 71.5t-174.5 -71.5t-71.5 -174.5zM185 353l41 11v281l-41 10 q0 26 13 26l49 -3l76 3q49 0 77 -29t28 -71q0 -25 -17.5 -49t-47.5 -38q5 -4 18 -23l61 -110l35 -8q0 -25 -14 -25h-62l-72 135q-8 13 -13 18l-37 -6l-4 -111l49 -11q0 -25 -14 -25q-16 0 -61 2l-51 -2q-13 0 -13 25zM275 645l5 -133h24q37 1 56.5 21.5t19.5 48.5 q0 26 -17.5 46t-49.5 21z" />
<glyph unicode="&#xaf;" horiz-adv-x="400" d="M112 558l11 63h267l-11 -63h-267z" />
<glyph unicode="&#xb0;" horiz-adv-x="318" d="M20 578q0 58 40.5 98.5t98.5 40.5t98.5 -40.5t40.5 -98.5t-40.5 -98.5t-98.5 -40.5t-98.5 40.5t-40.5 98.5zM66 578q0 -39 27 -66t66 -27t65.5 27t26.5 66t-26.5 65.5t-65.5 26.5t-66 -26.5t-27 -65.5z" />
<glyph unicode="&#xb1;" d="M42 -12l10 57h346l-10 -57h-346zM88 249l10 57h146l27 153h54l-27 -153h146l-10 -57h-146l-27 -154h-54l27 154h-146z" />
<glyph unicode="&#xb2;" horiz-adv-x="392" d="M16 201l203 170q64 52 64 118q0 30 -19.5 50.5t-55.5 20.5q-15 0 -96 -14l-9 34q85 25 113 25q61 -10 96.5 -38.5t35.5 -71.5q0 -94 -120 -182l-139 -103q128 4 239 20l5 -16q-6 -20 -22 -39h-278z" />
<glyph unicode="&#xb3;" horiz-adv-x="392" d="M40 195l35 93l24 -2q0 -53 -1 -66q29 -14 63 -14q43 0 79 25.5t36 68.5q0 33 -31.5 54t-89.5 21v31q134 16 134 104q0 20 -17 35t-47 15q-16 0 -96 -14l-10 34q85 25 113 25q48 -7 83 -31t35 -64q0 -70 -85 -112q35 -10 53.5 -34t18.5 -55q0 -62 -53 -102t-116 -40 q-72 0 -128 28z" />
<glyph unicode="&#xb4;" horiz-adv-x="200" d="M50 518q70 88 134 184q10 -7 23.5 -24t16.5 -31l-4 -19q-53 -62 -155 -126z" />
<glyph unicode="&#xb5;" horiz-adv-x="526" d="M-10 -220q13 56 36 163.5t38 175t40.5 161t52.5 171.5q31 15 57 15l15 -9q-37 -90 -67 -207.5t-30 -182.5q0 -28 25 -28q55 0 209 254q11 61 30 158q40 15 75 15l15 -9q-36 -79 -68 -210.5t-32 -193.5q64 -7 90 -27l-6 -19l-124 -19q-3 0 -6.5 2t-7 10.5t-3.5 22.5 q0 55 21 178q-76 -123 -128 -170.5t-95 -47.5q-29 0 -39 33l-9 -117q0 -58 1 -83q-40 -39 -74 -43z" />
<glyph unicode="&#xb6;" horiz-adv-x="463" d="M80 475q0 67 24 115.5t64.5 74t83.5 36.5t91 11q47 0 95 -7.5t73.5 -15t24.5 -10.5l-10 -37h-71l-81 -462q-32 -184 -246 -390l-25 21q167 185 195 342l86 489h-67l-60 -340q-80 2 -128.5 45t-48.5 128z" />
<glyph unicode="&#xb7;" horiz-adv-x="197" d="M44 211q0 15 5 37t10 36.5t6 14.5q37 7 58 7q28 0 28 -40q0 -14 -5 -35t-9.5 -35t-5.5 -14q-36 -9 -58 -9q-29 0 -29 38z" />
<glyph unicode="&#xb8;" horiz-adv-x="410" d="M109 -220q76 48 76 109q0 18 -8 37t-8 27l20 47h27l-8 -27q0 -16 22 -38.5t22 -44.5q0 -40 -39.5 -73.5t-92.5 -53.5z" />
<glyph unicode="&#xb9;" horiz-adv-x="392" d="M67 199q2 0 40 8t59 12l60 336l-111 -27q-11 34 -11 39q1 1 41.5 10t84 18.5t48.5 9.5q13 -4 13 -18l-1 -2v-4l-64 -364q45 -9 88 -22l-6 -20h-234z" />
<glyph unicode="&#xba;" horiz-adv-x="301" d="M25 321l6 28h244l-4 -43q-48 -8 -97 -8q-103 0 -149 23zM60 483q0 54 17 95.5t43 63t51 32t47 10.5q83 0 83 -89q0 -44 -12 -80t-30 -58t-41 -37t-42.5 -21t-36.5 -6q-39 0 -59 24t-20 66zM109 481q0 -52 33 -52q41 0 75.5 47.5t34.5 122.5q0 25 -9.5 39t-25.5 14 q-44 0 -76 -47t-32 -124z" />
<glyph unicode="&#xbb;" horiz-adv-x="448" d="M0 34l157 193l-88 193l31 19l143 -198l-5 -28l-215 -203zM154 34l158 193l-89 193l32 19l143 -198l-5 -28l-215 -203z" />
<glyph unicode="&#xbc;" horiz-adv-x="990" d="M67 245q2 0 40 8t59 12l60 336l-111 -27q-11 34 -11 39q1 1 41.5 10t84 18.5t48.5 9.5q13 -4 13 -18l-1 -2v-4l-64 -364q45 -9 88 -22l-6 -20h-234zM307 -56l315 756h51l-315 -756h-51zM577 103q9 22 40 78l144 258l52 -18l-176 -292h136l28 156q29 7 45 7q9 0 9 -19v-7 l-24 -137h66l-5 -37h-67q-1 -8 -5 -25.5t-6 -26.5q28 -8 57 -20l-6 -20h-178l-7 24q51 14 78 19l9 49h-169q-21 0 -21 11z" />
<glyph unicode="&#xbd;" horiz-adv-x="990" d="M67 245q2 0 40 8t59 12l60 336l-111 -27q-11 34 -11 39q1 1 41.5 10t84 18.5t48.5 9.5q13 -4 13 -18l-1 -2v-4l-64 -364q45 -9 88 -22l-6 -20h-234zM308 -56l315 756h51l-315 -756h-51zM581 26l203 170q64 54 64 118q0 30 -19.5 50.5t-55.5 20.5q-15 0 -96 -14l-9 34 q85 25 113 25q61 -10 96.5 -38.5t35.5 -71.5q0 -94 -120 -182l-139 -103q128 4 239 20l5 -16q-6 -20 -22 -39h-278z" />
<glyph unicode="&#xbe;" horiz-adv-x="990" d="M40 241l35 93l24 -2q0 -53 -1 -66q29 -14 63 -14q43 0 79 25.5t36 68.5q0 33 -31.5 54t-89.5 21v31q134 16 134 104q0 20 -17 35t-47 15q-16 0 -96 -14l-10 34q85 25 113 25q48 -7 83 -31t35 -64q0 -70 -85 -112q35 -10 53.5 -34t18.5 -55q0 -62 -53 -102t-116 -40 q-72 0 -128 28zM313 -56l315 756h51l-315 -756h-51zM577 93q8 22 40 78l144 258l52 -18l-176 -292h136l28 156q29 7 45 7q9 -5 9 -19v-7l-24 -137h66l-5 -37h-67q-1 -8 -5 -25.5t-6 -26.5q28 -8 57 -20l-6 -20h-178l-7 24q51 14 78 19l9 49h-169q-21 0 -21 11z" />
<glyph unicode="&#xbf;" horiz-adv-x="347" d="M21 -43q0 86 75 188.5t155 161.5l25 -18l-88 -119q-100 -137 -100 -221q0 -49 25.5 -80t67.5 -31q17 0 33 1.5t27 3.5t30 5.5t33 5.5l16 -49q-96 -28 -119 -28q-32 5 -61 16.5t-57 31.5t-45 54t-17 78zM236 389q0 12 4 29.5t8 29.5t5 12q31 8 50 8q24 0 24 -33 q0 -13 -4.5 -31t-8.5 -30t-5 -12q-32 -7 -48 -7q-25 0 -25 34z" />
<glyph unicode="&#xc0;" horiz-adv-x="618" d="M-70 22q14 9 73 35l336 634q37 15 64 15l15 -9l91 -641q41 -14 79 -34l-6 -22h-223l-8 26q42 17 80 29l-25 174l-262 -14l-83 -159l76 -30l-8 -26h-193zM174 273h226l-48 344zM288 903q3 14 16.5 31t23.5 24q28 -43 61.5 -89t52.5 -71l20 -24l-15 -16q-102 64 -155 126z " />
<glyph unicode="&#xc1;" horiz-adv-x="618" d="M-70 22q14 9 73 35l336 634q37 15 64 15l15 -9l91 -641q41 -14 79 -34l-6 -22h-223l-8 26q42 17 80 29l-25 174l-262 -14l-83 -159l76 -30l-8 -26h-193zM174 273h226l-48 344zM349 762q70 88 134 184q10 -7 23.5 -24t16.5 -31l-4 -19q-53 -62 -155 -126z" />
<glyph unicode="&#xc2;" horiz-adv-x="618" d="M-70 22q14 9 73 35l336 634q37 15 64 15l15 -9l91 -641q41 -14 79 -34l-6 -22h-223l-8 26q42 17 80 29l-25 174l-262 -14l-83 -159l76 -30l-8 -26h-193zM174 273h226l-48 344zM250 765q61 59 142 164q3 0 7.5 1t8.5 1.5t8 0.5q12 0 24 -3l66 -167l-19 -14q-50 59 -79 104 q-37 -32 -139 -104z" />
<glyph unicode="&#xc3;" horiz-adv-x="618" d="M-70 22q14 9 73 35l336 634q37 15 64 15l15 -9l91 -641q41 -14 79 -34l-6 -22h-223l-8 26q42 17 80 29l-25 174l-262 -14l-83 -159l76 -30l-8 -26h-193zM174 273h226l-48 344zM256 812q44 74 96 74q20 0 59 -14.5t60 -14.5q37 0 67 29l19 -17q-45 -74 -96 -74 q-20 0 -59.5 14.5t-59.5 14.5q-38 0 -67 -29z" />
<glyph unicode="&#xc4;" horiz-adv-x="618" d="M-70 22q14 9 73 35l336 634q37 15 64 15l15 -9l91 -641q41 -14 79 -34l-6 -22h-223l-8 26q42 17 80 29l-25 174l-262 -14l-83 -159l76 -30l-8 -26h-193zM174 273h226l-48 344zM291 820q0 14 4.5 33t9.5 31l5 12q32 7 50 7q25 0 25 -34q0 -13 -4.5 -31t-9 -29.5 t-5.5 -11.5q-30 -9 -49 -9q-26 0 -26 32zM427 820q0 14 4.5 33t9.5 31l5 12q32 7 50 7q25 0 25 -34q0 -13 -4.5 -31t-9 -29.5t-5.5 -11.5q-30 -9 -49 -9q-26 0 -26 32z" />
<glyph unicode="&#xc5;" horiz-adv-x="618" d="M-70 22q14 9 73 35l336 634q37 15 64 15l15 -9l91 -641q41 -14 79 -34l-6 -22h-223l-8 26q42 17 80 29l-25 174l-262 -14l-83 -159l76 -30l-8 -26h-193zM174 273h226l-48 344zM316 814q0 50 33 79.5t78 29.5q35 0 56.5 -17.5t21.5 -49.5q0 -46 -32.5 -77.5t-80.5 -31.5 q-35 0 -55.5 17t-20.5 50zM363 819q0 -39 38 -39q23 0 40 18t17 52q0 40 -37 40q-23 0 -40.5 -18.5t-17.5 -52.5z" />
<glyph unicode="&#xc6;" horiz-adv-x="862" d="M-70 22q29 17 80 37l367 580q-50 15 -91 39l6 22l121 -4q376 0 450 17l6 -17q-9 -27 -31 -53q-155 0 -253 6l-48 -296h231l-9 -43l-232 -6l-54 -249q242 2 310 17l6 -17q-9 -33 -31 -59q-156 12 -325 12l-105 -8l-8 26q51 21 85 31l46 245l-230 -6l-153 -243l69 -27 l-8 -26h-193zM257 353h204l56 296h-73z" />
<glyph unicode="&#xc7;" horiz-adv-x="561" d="M50 254q0 103 30 185.5t84.5 137t123 88t151.5 47.5q17 0 46.5 -7t69 -19t42.5 -13l-26 -50q-6 1 -31 6t-34 7t-28 5t-34 4t-31 1q-91 0 -155 -48t-96 -134.5t-32 -205.5q0 -107 51.5 -162t139.5 -55q40 0 86 11.5t78 29.5l21 -36q-47 -28 -94 -42t-94 -16l-5 -15 q0 -16 22 -38.5t22 -44.5q0 -40 -39.5 -73.5t-92.5 -53.5l-11 17q76 48 76 109q0 18 -8 37t-8 27l15 35q-110 4 -174.5 72t-64.5 194z" />
<glyph unicode="&#xc8;" horiz-adv-x="570" d="M13 26q51 21 85 31l111 585q-37 10 -84 36l6 22l121 -4q250 2 319 17l6 -17q-9 -29 -31 -56q-164 0 -268 6l-43 -264h247l-9 -43l-248 -13l-59 -271q255 2 325 17l6 -17q-9 -33 -31 -59q-162 12 -340 12l-105 -8zM285 903q3 14 16.5 31t23.5 24q28 -43 61.5 -89t53.5 -71 l19 -24l-15 -16q-102 64 -155 126z" />
<glyph unicode="&#xc9;" horiz-adv-x="570" d="M13 26q51 21 85 31l111 585q-37 10 -84 36l6 22l121 -4q250 2 319 17l6 -17q-9 -29 -31 -56q-164 0 -268 6l-43 -264h247l-9 -43l-248 -13l-59 -271q255 2 325 17l6 -17q-9 -33 -31 -59q-162 12 -340 12l-105 -8zM377 762q70 88 134 184q10 -7 23.5 -24t16.5 -31l-4 -19 q-53 -62 -155 -126z" />
<glyph unicode="&#xca;" horiz-adv-x="570" d="M13 26q51 21 85 31l111 585q-37 10 -84 36l6 22l121 -4q250 2 319 17l6 -17q-9 -29 -31 -56q-164 0 -268 6l-43 -264h247l-9 -43l-248 -13l-59 -271q255 2 325 17l6 -17q-9 -33 -31 -59q-162 12 -340 12l-105 -8zM262 765q61 59 142 164q3 0 7.5 1t8.5 1.5t8 0.5 q12 0 24 -3l66 -167l-19 -14q-50 59 -79 104q-37 -32 -139 -104z" />
<glyph unicode="&#xcb;" horiz-adv-x="570" d="M13 26q51 21 85 31l111 585q-37 10 -84 36l6 22l121 -4q250 2 319 17l6 -17q-9 -29 -31 -56q-164 0 -268 6l-43 -264h247l-9 -43l-248 -13l-59 -271q255 2 325 17l6 -17q-9 -33 -31 -59q-162 12 -340 12l-105 -8zM275 820q0 14 4.5 33t9.5 31l5 12q32 7 50 7q25 0 25 -34 q0 -13 -4.5 -31t-9 -29.5t-5.5 -11.5q-30 -9 -49 -9q-26 0 -26 32zM411 820q0 14 4.5 33t9.5 31l5 12q32 7 50 7q25 0 25 -34q0 -13 -4.5 -31t-9 -29.5t-5.5 -11.5q-30 -9 -49 -9q-26 0 -26 32z" />
<glyph unicode="&#xcc;" horiz-adv-x="355" d="M14 26q26 11 84 31l51 293l61 292q-37 10 -84 36l6 22h223l8 -26q-51 -21 -85 -31l-50 -293l-61 -292q43 -14 84 -36l-6 -22h-223zM156 903q3 14 16.5 31t23.5 24q28 -43 61.5 -89t52.5 -71l20 -24l-15 -16q-102 64 -155 126z" />
<glyph unicode="&#xcd;" horiz-adv-x="355" d="M14 26q26 11 84 31l51 293l61 292q-37 10 -84 36l6 22h223l8 -26q-51 -21 -85 -31l-50 -293l-61 -292q43 -14 84 -36l-6 -22h-223zM219 762q70 88 134 184q10 -7 23.5 -24t16.5 -31l-4 -19q-53 -62 -155 -126z" />
<glyph unicode="&#xce;" horiz-adv-x="355" d="M14 26q26 11 84 31l51 293l61 292q-37 10 -84 36l6 22h223l8 -26q-51 -21 -85 -31l-50 -293l-61 -292q43 -14 84 -36l-6 -22h-223zM134 765q61 59 142 164q3 0 7.5 1t8.5 1.5t8 0.5q12 0 24 -3l66 -167l-19 -14q-50 59 -79 104q-37 -32 -139 -104z" />
<glyph unicode="&#xcf;" horiz-adv-x="355" d="M14 26q26 11 84 31l51 293l61 292q-37 10 -84 36l6 22h223l8 -26q-51 -21 -85 -31l-50 -293l-61 -292q43 -14 84 -36l-6 -22h-223zM170 820q0 14 5 33t9 31l5 12q32 7 50 7q25 0 25 -34q0 -13 -4.5 -31t-9 -29.5t-5.5 -11.5q-30 -9 -49 -9q-26 0 -26 32zM306 820 q0 14 5 33t9 31l5 12q32 7 50 7q25 0 25 -34q0 -13 -4.5 -31t-9 -29.5t-5.5 -11.5q-30 -9 -49 -9q-26 0 -26 32z" />
<glyph unicode="&#xd0;" horiz-adv-x="717" d="M13 26q51 21 85 31l51 271l-82 -4v58h93l49 260q-37 10 -84 36l6 22l126 -4l197 16q112 0 180 -65t68 -188q0 -122 -45 -223.5t-138 -168.5t-220 -73l-176 14l-102 -8zM167 60q81 -19 150 -19t128.5 38t97 98t58.5 131t21 141q0 102 -50 155.5t-135 53.5q-81 0 -161 -19 l-41 -257h168v-43l-177 -8z" />
<glyph unicode="&#xd1;" horiz-adv-x="760" d="M6 22q35 21 78 36l110 585q-40 15 -73 35l6 22h137l295 -574l95 516q-34 12 -81 32l8 26h203l6 -22q-41 -25 -81 -37l-121 -641h-55l-298 583l-94 -525q28 -10 82 -32l-8 -26h-203zM377 812q44 74 96 74q20 0 59 -14.5t60 -14.5q37 0 67 29l19 -17q-45 -74 -96 -74 q-20 0 -59.5 14.5t-59.5 14.5q-38 0 -67 -29z" />
<glyph unicode="&#xd2;" horiz-adv-x="694" d="M50 242q0 82 28 164.5t78 151t127.5 111.5t167.5 43q107 0 167.5 -73.5t60.5 -184.5q0 -113 -49.5 -218.5t-146.5 -176.5t-217 -71q-100 0 -158 72t-58 182zM130 241q0 -88 43.5 -144t111.5 -56q75 0 136.5 38t99.5 98.5t58 131.5t20 142q0 88 -50.5 148t-121.5 60 q-74 0 -133 -37.5t-93.5 -99t-52.5 -133.5t-18 -148zM363 903q3 14 16.5 31t23.5 24q28 -43 61.5 -89t53.5 -71l19 -24l-15 -16q-102 64 -155 126z" />
<glyph unicode="&#xd3;" horiz-adv-x="694" d="M50 242q0 82 28 164.5t78 151t127.5 111.5t167.5 43q107 0 167.5 -73.5t60.5 -184.5q0 -113 -49.5 -218.5t-146.5 -176.5t-217 -71q-100 0 -158 72t-58 182zM130 241q0 -88 43.5 -144t111.5 -56q75 0 136.5 38t99.5 98.5t58 131.5t20 142q0 88 -50.5 148t-121.5 60 q-74 0 -133 -37.5t-93.5 -99t-52.5 -133.5t-18 -148zM408 762q70 88 134 184q10 -7 23.5 -24t16.5 -31l-4 -19q-53 -62 -155 -126z" />
<glyph unicode="&#xd4;" horiz-adv-x="694" d="M50 242q0 82 28 164.5t78 151t127.5 111.5t167.5 43q107 0 167.5 -73.5t60.5 -184.5q0 -113 -49.5 -218.5t-146.5 -176.5t-217 -71q-100 0 -158 72t-58 182zM130 241q0 -88 43.5 -144t111.5 -56q75 0 136.5 38t99.5 98.5t58 131.5t20 142q0 88 -50.5 148t-121.5 60 q-74 0 -133 -37.5t-93.5 -99t-52.5 -133.5t-18 -148zM325 765q61 59 142 164q3 0 7.5 1t8.5 1.5t8 0.5q12 0 24 -3l66 -167l-19 -14q-50 59 -79 104q-37 -32 -139 -104z" />
<glyph unicode="&#xd5;" horiz-adv-x="694" d="M50 242q0 82 28 164.5t78 151t127.5 111.5t167.5 43q107 0 167.5 -73.5t60.5 -184.5q0 -113 -49.5 -218.5t-146.5 -176.5t-217 -71q-100 0 -158 72t-58 182zM130 241q0 -88 43.5 -144t111.5 -56q75 0 136.5 38t99.5 98.5t58 131.5t20 142q0 88 -50.5 148t-121.5 60 q-74 0 -133 -37.5t-93.5 -99t-52.5 -133.5t-18 -148zM322 812q44 74 96 74q20 0 59 -14.5t60 -14.5q37 0 67 29l19 -17q-45 -74 -96 -74q-20 0 -59.5 14.5t-59.5 14.5q-38 0 -67 -29z" />
<glyph unicode="&#xd6;" horiz-adv-x="694" d="M50 242q0 82 28 164.5t78 151t127.5 111.5t167.5 43q107 0 167.5 -73.5t60.5 -184.5q0 -113 -49.5 -218.5t-146.5 -176.5t-217 -71q-100 0 -158 72t-58 182zM130 241q0 -88 43.5 -144t111.5 -56q75 0 136.5 38t99.5 98.5t58 131.5t20 142q0 88 -50.5 148t-121.5 60 q-74 0 -133 -37.5t-93.5 -99t-52.5 -133.5t-18 -148zM348 820q0 14 5 33t9 31l5 12q32 7 50 7q25 0 25 -34q0 -13 -4.5 -31t-9 -29.5t-5.5 -11.5q-30 -9 -49 -9q-26 0 -26 32zM484 820q0 14 5 33t9 31l5 12q32 7 50 7q25 0 25 -34q0 -13 -4.5 -31t-9 -29.5t-5.5 -11.5 q-30 -9 -49 -9q-26 0 -26 32z" />
<glyph unicode="&#xd7;" d="M89 155l138 122l-94 123l45 40l94 -123l139 123l31 -40l-139 -123l95 -122l-45 -40l-95 122l-138 -122z" />
<glyph unicode="&#xd8;" horiz-adv-x="694" d="M50 242q0 46 9 93.5t27 93.5t43 88t59 77.5t73.5 62t88.5 41t101 14.5q26 0 49 -5l46 110h54l-52 -125q63 -29 97 -92.5t34 -145.5q0 -113 -49.5 -218.5t-146.5 -176.5t-217 -71h-10l-45 -107h-54l48 115q-73 21 -114 88t-41 158zM130 241q0 -68 26.5 -118t71.5 -70 l249 597q-24 9 -50 9q-60 0 -110 -25t-84 -66t-57.5 -95.5t-34.5 -113t-11 -118.5zM278 41h7q60 0 112.5 25t88.5 66.5t62 95t38.5 110.5t12.5 113q0 37 -10 70.5t-27.5 60t-40.5 44.5z" />
<glyph unicode="&#xd9;" horiz-adv-x="703" d="M95 155q0 31 7 63l82 425q-41 12 -82 35l6 22h223l8 -26q-39 -16 -81 -30l-83 -429q-5 -27 -5 -45q0 -60 37.5 -93.5t115.5 -33.5q89 0 145.5 50.5t70.5 122.5l83 426q-34 12 -81 32l8 26h203l6 -22q-45 -26 -81 -37l-82 -423q-20 -103 -97 -166.5t-188 -63.5 q-215 0 -215 167zM347 903q3 14 16.5 31t23.5 24q28 -43 61.5 -89t53.5 -71l19 -24l-15 -16q-102 64 -155 126z" />
<glyph unicode="&#xda;" horiz-adv-x="703" d="M95 155q0 31 7 63l82 425q-41 12 -82 35l6 22h223l8 -26q-39 -16 -81 -30l-83 -429q-5 -27 -5 -45q0 -60 37.5 -93.5t115.5 -33.5q89 0 145.5 50.5t70.5 122.5l83 426q-34 12 -81 32l8 26h203l6 -22q-45 -26 -81 -37l-82 -423q-20 -103 -97 -166.5t-188 -63.5 q-215 0 -215 167zM420 762q70 88 134 184q10 -7 23.5 -24t16.5 -31l-4 -19q-53 -62 -155 -126z" />
<glyph unicode="&#xdb;" horiz-adv-x="703" d="M95 155q0 31 7 63l82 425q-41 12 -82 35l6 22h223l8 -26q-39 -16 -81 -30l-83 -429q-5 -27 -5 -45q0 -60 37.5 -93.5t115.5 -33.5q89 0 145.5 50.5t70.5 122.5l83 426q-34 12 -81 32l8 26h203l6 -22q-45 -26 -81 -37l-82 -423q-20 -103 -97 -166.5t-188 -63.5 q-215 0 -215 167zM341 765q61 59 142 164q3 0 7.5 1t8.5 1.5t8 0.5q12 0 24 -3l66 -167l-19 -14q-50 59 -79 104q-37 -32 -139 -104z" />
<glyph unicode="&#xdc;" horiz-adv-x="703" d="M95 155q0 31 7 63l82 425q-41 12 -82 35l6 22h223l8 -26q-39 -16 -81 -30l-83 -429q-5 -27 -5 -45q0 -60 37.5 -93.5t115.5 -33.5q89 0 145.5 50.5t70.5 122.5l83 426q-34 12 -81 32l8 26h203l6 -22q-45 -26 -81 -37l-82 -423q-20 -103 -97 -166.5t-188 -63.5 q-215 0 -215 167zM369 820q0 14 4.5 33t9.5 31l5 12q32 7 50 7q25 0 25 -34q0 -13 -4.5 -31t-9 -29.5t-5.5 -11.5q-30 -9 -49 -9q-26 0 -26 32zM505 820q0 14 4.5 33t9.5 31l5 12q32 7 50 7q25 0 25 -34q0 -13 -4.5 -31t-9 -29.5t-5.5 -11.5q-30 -9 -49 -9q-26 0 -26 32z " />
<glyph unicode="&#xdd;" horiz-adv-x="538" d="M64 678l6 22h120l117 -391q77 116 137 225l14 121q55 52 91 52l21 -13q-31 -81 -100.5 -204t-146.5 -226l-39 -205q50 -12 103 -37l-6 -22h-263l-8 26q53 18 104 32l37 213l-123 375q-36 13 -64 32zM320 762q70 88 134 184q10 -7 23.5 -24t16.5 -31l-4 -19 q-53 -62 -155 -126z" />
<glyph unicode="&#xde;" horiz-adv-x="541" d="M14 26q26 11 84 31l51 293l61 292q-37 10 -84 36l6 22h223l8 -26q-51 -21 -85 -31l-14 -82l136 2q76 0 118.5 -48t42.5 -126q0 -92 -72.5 -169.5t-167.5 -99.5q-11 0 -30.5 5.5t-45 15t-27.5 10.5l12 41q58 -18 101 -18q74 0 112 66t38 143q0 59 -25 98.5t-74 39.5 l-127 -10l-27 -161l-61 -292q43 -14 84 -36l-6 -22h-223z" />
<glyph unicode="&#xdf;" horiz-adv-x="521" d="M15 -193l101 589h-72l-8 26q42 16 90 33q21 118 84.5 202.5t148.5 103.5q23 0 120 -36q17 -27 17 -59q0 -41 -28 -91t-61 -88t-61 -76t-28 -57q0 -27 23 -45l106 -92q35 -31 49.5 -54.5t14.5 -57.5q0 -53 -45.5 -85t-112.5 -32q-78 0 -147 26l30 127l22 -4q10 -46 12 -89 q44 -16 91 -16q35 0 58 16.5t23 48.5q0 35 -39 69l-95 82q-26 22 -36 41t-10 50q0 33 26 77t57.5 81.5t58.5 88.5t28 96q-53 14 -107 14q-26 0 -47.5 -20.5t-36.5 -58.5t-25.5 -77t-19.5 -91l-74 -396l-67 -241z" />
<glyph unicode="&#xe0;" horiz-adv-x="498" d="M35 82q0 92 26 164.5t69 116t86.5 68t91.5 36.5q10 0 28 -5t42.5 -14.5t28.5 -10.5l10 24q22 0 41 -4q-36 -79 -68 -210.5t-32 -193.5q64 -7 90 -27l-6 -19l-124 -19q-3 0 -6.5 2t-7 10.5t-3.5 22.5q0 57 23 190q-78 -128 -130.5 -176.5t-96.5 -48.5q-29 0 -45.5 26 t-16.5 68zM102 80q0 -36 25 -36q56 0 214 264l18 93q-50 9 -83 9q-56 0 -97 -53.5t-59 -126.5t-18 -150zM200 659q3 14 16.5 31t23.5 24q28 -43 61.5 -89t52.5 -71l20 -24l-15 -16q-102 64 -155 126z" />
<glyph unicode="&#xe1;" horiz-adv-x="498" d="M35 82q0 92 26 164.5t69 116t86.5 68t91.5 36.5q10 0 28 -5t42.5 -14.5t28.5 -10.5l10 24q22 0 41 -4q-36 -79 -68 -210.5t-32 -193.5q64 -7 90 -27l-6 -19l-124 -19q-3 0 -6.5 2t-7 10.5t-3.5 22.5q0 57 23 190q-78 -128 -130.5 -176.5t-96.5 -48.5q-29 0 -45.5 26 t-16.5 68zM102 80q0 -36 25 -36q56 0 214 264l18 93q-50 9 -83 9q-56 0 -97 -53.5t-59 -126.5t-18 -150zM273 518q70 88 134 184q10 -7 23.5 -24t16.5 -31l-4 -19q-53 -62 -155 -126z" />
<glyph unicode="&#xe2;" horiz-adv-x="498" d="M35 82q0 92 26 164.5t69 116t86.5 68t91.5 36.5q10 0 28 -5t42.5 -14.5t28.5 -10.5l10 24q22 0 41 -4q-36 -79 -68 -210.5t-32 -193.5q64 -7 90 -27l-6 -19l-124 -19q-3 0 -6.5 2t-7 10.5t-3.5 22.5q0 57 23 190q-78 -128 -130.5 -176.5t-96.5 -48.5q-29 0 -45.5 26 t-16.5 68zM102 80q0 -36 25 -36q56 0 214 264l18 93q-50 9 -83 9q-56 0 -97 -53.5t-59 -126.5t-18 -150zM195 521q61 59 142 164q3 0 7.5 1t8.5 1.5t8 0.5q12 0 24 -3l66 -167l-19 -14q-50 59 -79 104q-37 -32 -139 -104z" />
<glyph unicode="&#xe3;" horiz-adv-x="498" d="M35 82q0 92 26 164.5t69 116t86.5 68t91.5 36.5q10 0 28 -5t42.5 -14.5t28.5 -10.5l10 24q22 0 41 -4q-36 -79 -68 -210.5t-32 -193.5q64 -7 90 -27l-6 -19l-124 -19q-3 0 -6.5 2t-7 10.5t-3.5 22.5q0 57 23 190q-78 -128 -130.5 -176.5t-96.5 -48.5q-29 0 -45.5 26 t-16.5 68zM102 80q0 -36 25 -36q56 0 214 264l18 93q-50 9 -83 9q-56 0 -97 -53.5t-59 -126.5t-18 -150zM191 568q44 74 96 74q20 0 59 -14.5t60 -14.5q37 0 67 29l19 -17q-45 -74 -96 -74q-20 0 -59.5 14.5t-59.5 14.5q-38 0 -67 -29z" />
<glyph unicode="&#xe4;" horiz-adv-x="498" d="M35 82q0 92 26 164.5t69 116t86.5 68t91.5 36.5q10 0 28 -5t42.5 -14.5t28.5 -10.5l10 24q22 0 41 -4q-36 -79 -68 -210.5t-32 -193.5q64 -7 90 -27l-6 -19l-124 -19q-3 0 -6.5 2t-7 10.5t-3.5 22.5q0 57 23 190q-78 -128 -130.5 -176.5t-96.5 -48.5q-29 0 -45.5 26 t-16.5 68zM102 80q0 -36 25 -36q56 0 214 264l18 93q-50 9 -83 9q-56 0 -97 -53.5t-59 -126.5t-18 -150zM221 576q0 14 4.5 33t9.5 31l5 12q32 7 50 7q25 0 25 -34q0 -13 -4.5 -31t-9 -29.5t-5.5 -11.5q-30 -9 -49 -9q-26 0 -26 32zM357 576q0 14 4.5 33t9.5 31l5 12 q32 7 50 7q25 0 25 -34q0 -13 -4.5 -31t-9 -29.5t-5.5 -11.5q-30 -9 -49 -9q-26 0 -26 32z" />
<glyph unicode="&#xe5;" horiz-adv-x="498" d="M35 82q0 92 26 164.5t69 116t86.5 68t91.5 36.5q10 0 28 -5t42.5 -14.5t28.5 -10.5l10 24q22 0 41 -4q-36 -79 -68 -210.5t-32 -193.5q64 -7 90 -27l-6 -19l-124 -19q-3 0 -6.5 2t-7 10.5t-3.5 22.5q0 57 23 190q-78 -128 -130.5 -176.5t-96.5 -48.5q-29 0 -45.5 26 t-16.5 68zM102 80q0 -36 25 -36q56 0 214 264l18 93q-50 9 -83 9q-56 0 -97 -53.5t-59 -126.5t-18 -150zM247 570q0 50 33 79.5t78 29.5q35 0 56.5 -17.5t21.5 -49.5q0 -46 -32.5 -77.5t-80.5 -31.5q-35 0 -55.5 17t-20.5 50zM294 575q0 -39 38 -39q23 0 40 18t17 52 q0 40 -37 40q-23 0 -40.5 -18.5t-17.5 -52.5z" />
<glyph unicode="&#xe6;" horiz-adv-x="614" d="M40 82q0 74 17.5 136.5t45 103.5t65 72t73 47.5t72.5 25.5q11 0 30 -5.5t45 -15t28 -10.5q55 32 98 32q29 0 57 -18.5t28 -42.5q0 -70 -45.5 -123.5t-112.5 -60.5l-111 -11q-7 -42 -7 -92q0 -76 56 -76q35 0 77 30.5t72 74.5l22 -22q-92 -139 -195 -139q-44 0 -69 31.5 t-29 84.5q-48 -65 -85 -90.5t-70 -25.5q-29 0 -45.5 26t-16.5 68zM107 80q0 -16 7 -26t18 -10q38 0 126 125q14 147 109 232q-53 9 -86 9q-34 0 -63 -20.5t-49 -54t-34.5 -77t-21 -88.5t-6.5 -90zM339 256h68q37 0 66 20.5t44.5 53t15.5 70.5q0 9 -11 12.5t-43 3.5 q-50 0 -85.5 -44t-54.5 -116z" />
<glyph unicode="&#xe7;" horiz-adv-x="366" d="M40 122q0 66 15.5 122t40 93t58 65t65 43t64.5 23q10 0 27 -4.5t41.5 -13l24.5 -8.5l-15 -46q-84 15 -110 15q-46 0 -80 -47t-49 -111.5t-15 -132.5q0 -76 56 -76q21 0 46.5 14.5t48 38t39.5 52.5l22 -22q-12 -21 -27 -40.5t-37.5 -42.5t-50 -38t-55.5 -18l-5 -15 q0 -16 22 -38.5t22 -44.5q0 -40 -39.5 -73.5t-92.5 -53.5l-11 17q31 19 53.5 48t22.5 61q0 18 -8 37t-8 27l16 37q-39 7 -60 42.5t-21 89.5z" />
<glyph unicode="&#xe8;" horiz-adv-x="398" d="M40 122q0 77 21 139.5t51.5 99.5t68 62.5t67 35t50.5 9.5q29 0 57 -18.5t28 -42.5q0 -70 -45.5 -123.5t-112.5 -60.5l-111 -11q-7 -42 -7 -92q0 -76 56 -76q35 0 77 30.5t72 74.5l22 -22q-92 -139 -195 -139q-47 0 -73 37t-26 97zM123 256h68q55 0 90.5 43t35.5 101 q0 9 -11 12.5t-43 3.5q-50 0 -85.5 -44t-54.5 -116zM185 659q3 14 16.5 31t23.5 24q28 -43 61.5 -89t53.5 -71l19 -24l-15 -16q-102 64 -155 126z" />
<glyph unicode="&#xe9;" horiz-adv-x="398" d="M40 122q0 77 21 139.5t51.5 99.5t68 62.5t67 35t50.5 9.5q29 0 57 -18.5t28 -42.5q0 -70 -45.5 -123.5t-112.5 -60.5l-111 -11q-7 -42 -7 -92q0 -76 56 -76q35 0 77 30.5t72 74.5l22 -22q-92 -139 -195 -139q-47 0 -73 37t-26 97zM123 256h68q55 0 90.5 43t35.5 101 q0 9 -11 12.5t-43 3.5q-50 0 -85.5 -44t-54.5 -116zM230 518q70 88 134 184q10 -7 23.5 -24t16.5 -31l-4 -19q-53 -62 -155 -126z" />
<glyph unicode="&#xea;" horiz-adv-x="398" d="M40 122q0 77 21 139.5t51.5 99.5t68 62.5t67 35t50.5 9.5q29 0 57 -18.5t28 -42.5q0 -70 -45.5 -123.5t-112.5 -60.5l-111 -11q-7 -42 -7 -92q0 -76 56 -76q35 0 77 30.5t72 74.5l22 -22q-92 -139 -195 -139q-47 0 -73 37t-26 97zM123 256h68q55 0 90.5 43t35.5 101 q0 9 -11 12.5t-43 3.5q-50 0 -85.5 -44t-54.5 -116zM157 521q61 59 142 164q3 0 7.5 1t8.5 1.5t8 0.5q12 0 24 -3l66 -167l-19 -14q-50 59 -79 104q-37 -32 -139 -104z" />
<glyph unicode="&#xeb;" horiz-adv-x="398" d="M40 122q0 77 21 139.5t51.5 99.5t68 62.5t67 35t50.5 9.5q29 0 57 -18.5t28 -42.5q0 -70 -45.5 -123.5t-112.5 -60.5l-111 -11q-7 -42 -7 -92q0 -76 56 -76q35 0 77 30.5t72 74.5l22 -22q-92 -139 -195 -139q-47 0 -73 37t-26 97zM123 256h68q55 0 90.5 43t35.5 101 q0 9 -11 12.5t-43 3.5q-50 0 -85.5 -44t-54.5 -116zM183 576q0 14 4.5 33t9.5 31l5 12q32 7 50 7q25 0 25 -34q0 -13 -4.5 -31t-9 -29.5t-5.5 -11.5q-30 -9 -49 -9q-26 0 -26 32zM319 576q0 14 4.5 33t9.5 31l5 12q32 7 50 7q25 0 25 -34q0 -13 -4.5 -31t-9 -29.5 t-5.5 -11.5q-30 -9 -49 -9q-26 0 -26 32z" />
<glyph unicode="&#xec;" horiz-adv-x="244" d="M50 23q0 83 75 428q39 15 64 15l15 -9q-32 -80 -64.5 -217.5t-32.5 -186.5q64 -7 90 -27l-6 -19l-124 -19q-3 0 -6.5 2t-7 10.5t-3.5 22.5zM70 659q3 14 16.5 31t23.5 24q28 -43 61.5 -89t52.5 -71l20 -24l-15 -16q-102 64 -155 126z" />
<glyph unicode="&#xed;" horiz-adv-x="244" d="M50 23q0 83 75 428q39 15 64 15l15 -9q-32 -80 -64.5 -217.5t-32.5 -186.5q64 -7 90 -27l-6 -19l-124 -19q-3 0 -6.5 2t-7 10.5t-3.5 22.5zM117 518q70 88 134 184q10 -7 23.5 -24t16.5 -31l-4 -19q-53 -62 -155 -126z" />
<glyph unicode="&#xee;" horiz-adv-x="244" d="M40 521q61 59 142 164q3 0 7.5 1t8.5 1.5t8 0.5q12 0 24 -3l66 -167l-19 -14q-50 59 -79 104q-37 -32 -139 -104zM50 23q0 83 75 428q39 15 64 15l15 -9q-32 -80 -64.5 -217.5t-32.5 -186.5q64 -7 90 -27l-6 -19l-124 -19q-3 0 -6.5 2t-7 10.5t-3.5 22.5z" />
<glyph unicode="&#xef;" horiz-adv-x="244" d="M50 23q0 83 75 428q39 15 64 15l15 -9q-32 -80 -64.5 -217.5t-32.5 -186.5q64 -7 90 -27l-6 -19l-124 -19q-3 0 -6.5 2t-7 10.5t-3.5 22.5zM70 576q0 14 5 33t9 31l5 12q32 7 50 7q25 0 25 -34q0 -13 -4.5 -31t-9 -29.5t-5.5 -11.5q-30 -9 -49 -9q-26 0 -26 32zM206 576 q0 14 5 33t9 31l5 12q32 7 50 7q25 0 25 -34q0 -13 -4.5 -31t-9 -29.5t-5.5 -11.5q-30 -9 -49 -9q-26 0 -26 32z" />
<glyph unicode="&#xf0;" horiz-adv-x="449" d="M30 133q0 73 19 132.5t48 96t64.5 61.5t67.5 35t59 10q26 0 47 -6q-23 59 -67 114l-108 -58l-16 48l94 46q-41 41 -96 81l26 38q69 -45 117 -96l123 60l13 -36l-106 -58q97 -119 104 -263v-15v-1v-1v-1v-1q0 -12 -1 -24q-3 -66 -24.5 -120.5t-51 -88.5t-65.5 -57t-67 -32 t-57 -9q-60 0 -91.5 38.5t-31.5 106.5zM94 130q0 -94 64 -94q34 0 68.5 20.5t63.5 57.5t47 93.5t18 122.5q0 46 -18.5 71t-50.5 25q-78 0 -135 -81.5t-57 -214.5z" />
<glyph unicode="&#xf1;" horiz-adv-x="531" d="M40 -3q36 78 66 206.5t30 190.5q-47 5 -80 30l6 19l124 19q9 0 9 -35q0 -54 -21 -180q77 125 129 173t96 48q29 0 45.5 -26t16.5 -68q0 -34 -14.5 -92t-65.5 -229q53 -10 75 -26l-6 -19l-134 -20q-3 0 -6.5 2t-7 10.5t-3.5 22.5q38 79 66.5 188t28.5 167q0 34 -25 34 q-56 0 -210 -256q0 -1 -29 -153q-40 -15 -75 -15zM192 568q44 74 96 74q20 0 59 -14.5t60 -14.5q37 0 67 29l19 -17q-45 -74 -96 -74q-20 0 -59.5 14.5t-59.5 14.5q-38 0 -67 -29z" />
<glyph unicode="&#xf2;" horiz-adv-x="449" d="M30 133q0 73 19 132.5t48 96t64.5 61.5t67.5 35t59 10q66 0 98.5 -38t32.5 -107q0 -73 -20 -132.5t-49.5 -96t-67 -61.5t-70 -35t-59.5 -10q-60 0 -91.5 38.5t-31.5 106.5zM94 130q0 -94 64 -94q73 0 135 82.5t62 211.5q0 46 -18.5 71t-50.5 25q-78 0 -135 -81.5 t-57 -214.5zM186 659q3 14 16.5 31t23.5 24q28 -43 61.5 -89t52.5 -71l20 -24l-15 -16q-102 64 -155 126z" />
<glyph unicode="&#xf3;" horiz-adv-x="449" d="M30 133q0 73 19 132.5t48 96t64.5 61.5t67.5 35t59 10q66 0 98.5 -38t32.5 -107q0 -73 -20 -132.5t-49.5 -96t-67 -61.5t-70 -35t-59.5 -10q-60 0 -91.5 38.5t-31.5 106.5zM94 130q0 -94 64 -94q73 0 135 82.5t62 211.5q0 46 -18.5 71t-50.5 25q-78 0 -135 -81.5 t-57 -214.5zM262 518q70 88 134 184q10 -7 23.5 -24t16.5 -31l-4 -19q-53 -62 -155 -126z" />
<glyph unicode="&#xf4;" horiz-adv-x="449" d="M30 133q0 73 19 132.5t48 96t64.5 61.5t67.5 35t59 10q66 0 98.5 -38t32.5 -107q0 -73 -20 -132.5t-49.5 -96t-67 -61.5t-70 -35t-59.5 -10q-60 0 -91.5 38.5t-31.5 106.5zM94 130q0 -94 64 -94q73 0 135 82.5t62 211.5q0 46 -18.5 71t-50.5 25q-78 0 -135 -81.5 t-57 -214.5zM163 521q61 59 142 164q3 0 7.5 1t8.5 1.5t8 0.5q12 0 24 -3l66 -167l-19 -14q-50 59 -79 104q-37 -32 -139 -104z" />
<glyph unicode="&#xf5;" horiz-adv-x="449" d="M30 133q0 73 19 132.5t48 96t64.5 61.5t67.5 35t59 10q66 0 98.5 -38t32.5 -107q0 -73 -20 -132.5t-49.5 -96t-67 -61.5t-70 -35t-59.5 -10q-60 0 -91.5 38.5t-31.5 106.5zM94 130q0 -94 64 -94q73 0 135 82.5t62 211.5q0 46 -18.5 71t-50.5 25q-78 0 -135 -81.5 t-57 -214.5zM148 568q44 74 96 74q20 0 59 -14.5t60 -14.5q37 0 67 29l19 -17q-45 -74 -96 -74q-20 0 -59.5 14.5t-59.5 14.5q-38 0 -67 -29z" />
<glyph unicode="&#xf6;" horiz-adv-x="449" d="M30 133q0 73 19 132.5t48 96t64.5 61.5t67.5 35t59 10q66 0 98.5 -38t32.5 -107q0 -73 -20 -132.5t-49.5 -96t-67 -61.5t-70 -35t-59.5 -10q-60 0 -91.5 38.5t-31.5 106.5zM94 130q0 -94 64 -94q73 0 135 82.5t62 211.5q0 46 -18.5 71t-50.5 25q-78 0 -135 -81.5 t-57 -214.5zM192 576q0 14 5 33t9 31l5 12q32 7 50 7q25 0 25 -34q0 -13 -4.5 -31t-9 -29.5t-5.5 -11.5q-30 -9 -49 -9q-26 0 -26 32zM328 576q0 14 5 33t9 31l5 12q32 7 50 7q25 0 25 -34q0 -13 -4.5 -31t-9 -29.5t-5.5 -11.5q-30 -9 -49 -9q-26 0 -26 32z" />
<glyph unicode="&#xf7;" d="M88 249l10 57h346l-10 -57h-346zM205 144q0 18 13.5 33.5t32.5 15.5q14 0 23.5 -10t9.5 -24q0 -18 -14.5 -32.5t-32.5 -14.5q-14 0 -23 9t-9 23zM249 394q0 18 13.5 33.5t32.5 15.5q14 0 23.5 -10t9.5 -24q0 -18 -14.5 -32.5t-32.5 -14.5q-14 0 -23 9t-9 23z" />
<glyph unicode="&#xf8;" horiz-adv-x="449" d="M30 133q0 73 19 132.5t48 96t64.5 61.5t67.5 35t59 10h10l66 159h54l-71 -170q72 -29 72 -134q0 -73 -20 -132.5t-49.5 -96t-67 -61.5t-70 -35t-59.5 -10h-1l-67 -161h-54l71 170q-72 29 -72 136zM94 130q0 -62 29 -83l157 379q-76 -3 -131 -84.5t-55 -211.5zM172 37 q33 4 65.5 26.5t58.5 59t42.5 91t16.5 116.5q0 56 -27 81z" />
<glyph unicode="&#xf9;" horiz-adv-x="516" d="M48 424l6 19l145 19q9 0 9 -35q-34 -85 -60 -193t-26 -167q0 -28 22 -28q57 0 212 255q11 63 30 157q40 15 75 15l15 -9q-36 -79 -68 -210.5t-32 -193.5q64 -7 90 -27l-6 -19l-124 -19q-3 0 -6.5 2t-7 10.5t-3.5 22.5q0 55 21 178q-76 -123 -128 -170.5t-95 -47.5 q-29 0 -45.5 26t-16.5 68q0 39 13.5 99.5t59.5 217.5q-47 5 -80 30zM214 659q3 14 16.5 31t23.5 24q28 -43 61.5 -89t52.5 -71l20 -24l-15 -16q-102 64 -155 126z" />
<glyph unicode="&#xfa;" horiz-adv-x="516" d="M48 424l6 19l145 19q9 0 9 -35q-34 -85 -60 -193t-26 -167q0 -28 22 -28q57 0 212 255q11 63 30 157q40 15 75 15l15 -9q-36 -79 -68 -210.5t-32 -193.5q64 -7 90 -27l-6 -19l-124 -19q-3 0 -6.5 2t-7 10.5t-3.5 22.5q0 55 21 178q-76 -123 -128 -170.5t-95 -47.5 q-29 0 -45.5 26t-16.5 68q0 39 13.5 99.5t59.5 217.5q-47 5 -80 30zM268 518q70 88 134 184q10 -7 23.5 -24t16.5 -31l-4 -19q-53 -62 -155 -126z" />
<glyph unicode="&#xfb;" horiz-adv-x="516" d="M48 424l6 19l145 19q9 0 9 -35q-34 -85 -60 -193t-26 -167q0 -28 22 -28q57 0 212 255q11 63 30 157q40 15 75 15l15 -9q-36 -79 -68 -210.5t-32 -193.5q64 -7 90 -27l-6 -19l-124 -19q-3 0 -6.5 2t-7 10.5t-3.5 22.5q0 55 21 178q-76 -123 -128 -170.5t-95 -47.5 q-29 0 -45.5 26t-16.5 68q0 39 13.5 99.5t59.5 217.5q-47 5 -80 30zM191 521q61 59 142 164q3 0 7.5 1t8.5 1.5t8 0.5q12 0 24 -3l66 -167l-19 -14q-50 59 -79 104q-37 -32 -139 -104z" />
<glyph unicode="&#xfc;" horiz-adv-x="516" d="M48 424l6 19l145 19q9 0 9 -35q-34 -85 -60 -193t-26 -167q0 -28 22 -28q57 0 212 255q11 63 30 157q40 15 75 15l15 -9q-36 -79 -68 -210.5t-32 -193.5q64 -7 90 -27l-6 -19l-124 -19q-3 0 -6.5 2t-7 10.5t-3.5 22.5q0 55 21 178q-76 -123 -128 -170.5t-95 -47.5 q-29 0 -45.5 26t-16.5 68q0 39 13.5 99.5t59.5 217.5q-47 5 -80 30zM220 576q0 14 5 33t9 31l5 12q32 7 50 7q25 0 25 -34q0 -13 -4.5 -31t-9 -29.5t-5.5 -11.5q-30 -9 -49 -9q-26 0 -26 32zM356 576q0 14 5 33t9 31l5 12q32 7 50 7q25 0 25 -34q0 -13 -4.5 -31t-9 -29.5 t-5.5 -11.5q-30 -9 -49 -9q-26 0 -26 32z" />
<glyph unicode="&#xfd;" horiz-adv-x="409" d="M21 430l6 19l112 19q10 0 46 -395q34 44 73 121.5t67 155.5q7 44 12 83q41 35 70 35l15 -9q-131 -343 -244 -464l-35 -131q0 -58 1 -83q-40 -39 -74 -43l-16 7q31 126 81 252l-55 403q-36 5 -59 30zM235 518q70 88 134 184q10 -7 23.5 -24t16.5 -31l-4 -19 q-53 -62 -155 -126z" />
<glyph unicode="&#xfe;" horiz-adv-x="475" d="M-39 -253q50 128 131 503q2 11 104 497q39 15 73 15l15 -9q-25 -51 -64.5 -202t-71.5 -305q77 126 129 174t96 48q29 0 45.5 -26t16.5 -68q0 -92 -26 -164.5t-69 -116t-86.5 -68t-91.5 -36.5q-16 0 -62 16q-42 -204 -49 -252q-39 -15 -75 -15zM110 54q45 -8 84 -8 q56 0 97 53.5t59 126.5t18 150q0 36 -25 36q-56 0 -213 -261q-4 -23 -20 -97z" />
<glyph unicode="&#xff;" horiz-adv-x="409" d="M21 430l6 19l112 19q10 0 46 -395q34 44 73 121.5t67 155.5q7 44 12 83q41 35 70 35l15 -9q-131 -343 -244 -464l-35 -131q0 -58 1 -83q-40 -39 -74 -43l-16 7q31 126 81 252l-55 403q-36 5 -59 30zM155 576q0 14 4.5 33t9.5 31l5 12q32 7 50 7q25 0 25 -34 q0 -13 -4.5 -31t-9 -29.5t-5.5 -11.5q-30 -9 -49 -9q-26 0 -26 32zM291 576q0 14 4.5 33t9.5 31l5 12q32 7 50 7q25 0 25 -34q0 -13 -4.5 -31t-9 -29.5t-5.5 -11.5q-30 -9 -49 -9q-26 0 -26 32z" />
<glyph unicode="&#x152;" horiz-adv-x="853" d="M50 242q0 65 17.5 131t52 125.5t81.5 106t112 74t138 27.5q42 0 84 -10q250 2 319 17l6 -17q-9 -29 -31 -56q-164 0 -268 6l-43 -264h247l-9 -43l-248 -13l-59 -271q255 2 325 17l6 -17q-9 -33 -31 -59q-161 12 -339 12q-71 -20 -144 -20q-100 0 -158 72t-58 182z M130 241q0 -88 43.5 -145t111.5 -57q37 0 71 10q10 3 18 6q4 1 7 3l111 584l-8 2q-30 9 -57 9q-43 0 -81.5 -12.5t-68 -35t-54 -53.5t-41.5 -67t-29 -77t-17.5 -83t-5.5 -84z" />
<glyph unicode="&#x153;" horiz-adv-x="631" d="M30 133q0 73 19 132.5t48 96t64.5 61.5t67.5 35t59 10q71 0 105 -48q66 48 123 48q29 0 57 -18.5t28 -42.5q0 -70 -45.5 -123.5t-112.5 -60.5l-111 -11q-7 -42 -7 -92q0 -76 56 -76q35 0 77 30.5t72 74.5l22 -22q-92 -139 -195 -139q-51 0 -77 42q-66 -42 -127 -42 q-60 0 -91.5 38.5t-31.5 106.5zM94 130q0 -94 64 -94q55 0 103 46q-3 18 -3 40q0 160 89 258q-15 46 -61 46q-79 0 -135.5 -81.5t-56.5 -214.5zM341 256h68q55 0 90.5 43t35.5 101q0 9 -11 12.5t-43 3.5q-50 0 -85.5 -44t-54.5 -116z" />
<glyph unicode="&#x178;" horiz-adv-x="538" d="M64 678l6 22h120l117 -391q77 116 137 225l14 121q55 52 91 52l21 -13q-31 -81 -100.5 -204t-146.5 -226l-39 -205q50 -12 103 -37l-6 -22h-263l-8 26q53 18 104 32l37 213l-123 375q-36 13 -64 32zM260 820q0 14 5 33t9 31l5 12q32 7 50 7q25 0 25 -34q0 -13 -4.5 -31 t-9 -29.5t-5.5 -11.5q-30 -9 -49 -9q-26 0 -26 32zM396 820q0 14 5 33t9 31l5 12q32 7 50 7q25 0 25 -34q0 -13 -4.5 -31t-9 -29.5t-5.5 -11.5q-30 -9 -49 -9q-26 0 -26 32z" />
<glyph unicode="&#x2c6;" horiz-adv-x="282" d="M50 521q61 59 142 164q3 0 7.5 1t8.5 1.5t8 0.5q12 0 24 -3l66 -167l-19 -14q-50 59 -79 104q-37 -32 -139 -104z" />
<glyph unicode="&#x2dc;" horiz-adv-x="416" d="M125 568q44 74 96 74q20 0 59 -14.5t60 -14.5q37 0 67 29l19 -17q-45 -74 -96 -74q-20 0 -59.5 14.5t-59.5 14.5q-38 0 -67 -29z" />
<glyph unicode="&#x2000;" horiz-adv-x="479" />
<glyph unicode="&#x2001;" horiz-adv-x="958" />
<glyph unicode="&#x2002;" horiz-adv-x="479" />
<glyph unicode="&#x2003;" horiz-adv-x="958" />
<glyph unicode="&#x2004;" horiz-adv-x="319" />
<glyph unicode="&#x2005;" horiz-adv-x="239" />
<glyph unicode="&#x2006;" horiz-adv-x="159" />
<glyph unicode="&#x2007;" horiz-adv-x="159" />
<glyph unicode="&#x2008;" horiz-adv-x="119" />
<glyph unicode="&#x2009;" horiz-adv-x="191" />
<glyph unicode="&#x200a;" horiz-adv-x="53" />
<glyph unicode="&#x2010;" horiz-adv-x="390" d="M50 279h283l7 -33q-53 -26 -173 -26q-62 0 -112 9z" />
<glyph unicode="&#x2011;" horiz-adv-x="390" d="M50 279h283l7 -33q-53 -26 -173 -26q-62 0 -112 9z" />
<glyph unicode="&#x2012;" horiz-adv-x="390" d="M50 279h283l7 -33q-53 -26 -173 -26q-62 0 -112 9z" />
<glyph unicode="&#x2013;" horiz-adv-x="591" d="M125 225v56h361v-56h-361z" />
<glyph unicode="&#x2014;" horiz-adv-x="839" d="M125 225v56h609v-56h-609z" />
<glyph unicode="&#x2018;" horiz-adv-x="129" d="M30 555q10 41 54 97t75 86l22 -16q-23 -32 -35 -51t-22 -45t-10 -52q0 -30 14 -69q-33 -11 -56 -11q-42 0 -42 61z" />
<glyph unicode="&#x2019;" horiz-adv-x="173" d="M52 502q23 32 35 51t22 45t10 52q0 30 -14 69q33 11 56 11q42 0 42 -61q-10 -41 -54 -97t-75 -86z" />
<glyph unicode="&#x201a;" horiz-adv-x="197" d="M17 -107q23 32 35 51t22 45t10 52q0 30 -14 69q33 11 56 11q42 0 42 -61q-10 -41 -54 -97t-75 -86z" />
<glyph unicode="&#x201c;" horiz-adv-x="285" d="M30 555q10 41 54 97t75 86l22 -16q-23 -32 -35 -51t-22 -45t-10 -52q0 -30 14 -69q-33 -11 -56 -11q-42 0 -42 61zM186 555q10 41 54 97t75 86l22 -16q-23 -32 -35 -51t-22 -45t-10 -52q0 -30 14 -69q-33 -11 -56 -11q-42 0 -42 61z" />
<glyph unicode="&#x201d;" horiz-adv-x="329" d="M52 502q23 32 35 51t22 45t10 52q0 30 -14 69q33 11 56 11q42 0 42 -61q-10 -41 -54 -97t-75 -86zM208 502q23 32 35 51t22 45t10 52q0 30 -14 69q33 11 56 11q42 0 42 -61q-10 -41 -54 -97t-75 -86z" />
<glyph unicode="&#x201e;" horiz-adv-x="353" d="M17 -107q23 32 35 51t22 45t10 52q0 30 -14 69q33 11 56 11q42 0 42 -61q-10 -41 -54 -97t-75 -86zM173 -107q23 32 35 51t22 45t10 52q0 30 -14 69q33 11 56 11q42 0 42 -61q-10 -41 -54 -97t-75 -86z" />
<glyph unicode="&#x2022;" horiz-adv-x="251" d="M50 260q0 17 3 36.5t6 31.5l3 11q54 8 85 8q54 0 54 -76q0 -15 -2.5 -33.5t-4.5 -29.5l-3 -11q-53 -11 -86 -11q-55 0 -55 74z" />
<glyph unicode="&#x2026;" horiz-adv-x="591" d="M44 26q0 15 5 37t10 36.5t6 14.5q37 7 58 7q28 0 28 -40q0 -14 -5 -35t-9.5 -35t-5.5 -14q-36 -9 -58 -9q-29 0 -29 38zM241 26q0 15 5 37t10 36.5t6 14.5q37 7 58 7q28 0 28 -40q0 -14 -5 -35t-9.5 -35t-5.5 -14q-36 -9 -58 -9q-29 0 -29 38zM438 26q0 15 5 37t10 36.5 t6 14.5q37 7 58 7q28 0 28 -40q0 -14 -5 -35t-9.5 -35t-5.5 -14q-36 -9 -58 -9q-29 0 -29 38z" />
<glyph unicode="&#x202f;" horiz-adv-x="191" />
<glyph unicode="&#x2039;" horiz-adv-x="294" d="M50 213l5 28l215 203l24 -24l-158 -193l89 -193l-32 -19z" />
<glyph unicode="&#x203a;" horiz-adv-x="294" d="M0 34l158 193l-89 193l32 19l143 -198l-5 -28l-215 -203z" />
<glyph unicode="&#x205f;" horiz-adv-x="239" />
<glyph unicode="&#x20ac;" d="M33 214l7 37h51q3 24 9 47h-52l7 37h55q63 185 245 228q23 0 114 -29l-15 -48q-84 15 -110 15q-108 0 -158 -166h141l-7 -37h-143q-6 -23 -8 -47h143l-7 -37h-141q-1 -15 -1 -42q0 -135 96 -135q40 0 85 25q17 60 35 99l24 4v-138q-76 -39 -161 -39q-72 0 -114 50 t-42 146q0 20 1 30h-54z" />
<glyph unicode="&#x2122;" horiz-adv-x="798" d="M24 691q0 9 22 9l119 -3l120 3q22 0 22 -9q0 -1 -6 -85q-33 0 -34 12l-6 46l-71 -2l2 -139l-2 -140l55 -11q0 -25 -14 -25q-19 0 -64 2l-67 -2q-14 0 -14 25l55 11l-2 140l2 139l-70 2l-7 -46q-2 -12 -34 -12zM319 372l42 11l15 280l-40 10q0 27 14 27l83 -2l97 -239 l110 239l80 2q14 0 14 -27l-40 -10l16 -280l41 -11q0 -25 -14 -25l-57 2l-56 -2q-15 0 -15 25l47 11l-10 234l-112 -246h-18l-102 240l-11 -228l47 -11q0 -25 -15 -25l-54 2l-47 -2q-15 0 -15 25z" />
<glyph unicode="&#xe000;" horiz-adv-x="465" d="M0 0v465h465v-465h-465z" />
</font>
</defs>
</svg>
