<?xml version="1.0" standalone="no"?>
<!DOCTYPE svg PUBLIC "-//W3C//DTD SVG 1.1//EN" "http://www.w3.org/Graphics/SVG/1.1/DTD/svg11.dtd" >
<svg xmlns="http://www.w3.org/2000/svg">
<metadata></metadata>
<defs>
<font id="sf_shai_fontai_extendedRg" horiz-adv-x="963" >
<font-face units-per-em="2048" ascent="1638" descent="-410" />
<missing-glyph horiz-adv-x="922" />
<glyph horiz-adv-x="2048" />
<glyph horiz-adv-x="2048" />
<glyph unicode="&#xd;" horiz-adv-x="2048" />
<glyph unicode=" "  horiz-adv-x="922" />
<glyph unicode="&#x09;" horiz-adv-x="922" />
<glyph unicode="&#xa0;" horiz-adv-x="922" />
<glyph unicode="!" horiz-adv-x="618" d="M440 944q0 -64 -12 -314q-15 -268 -20 -285q-9 -20 -74 -52q-65 -30 -92 -30q-6 0 -6 5q0 -12 6 17q1 5 4.5 47.5t9.5 123.5q8 109 12.5 210t4.5 198q0 170 -15 286q-8 67 -12 102t-4 39q0 8 67 39q69 32 94 35q15 -12 27 -198q5 -77 7.5 -132.5t2.5 -90.5zM464 80 q-4 -12 -71 -47q-65 -33 -84 -33q-21 0 -87 22q-68 23 -68 29q0 10 71 46q72 36 89 36q24 0 150 -53z" />
<glyph unicode="&#x22;" horiz-adv-x="759" d="M606 1096q0 -27 -5 -45q-5 -16 -72 -47q-66 -31 -92 -33q-4 1 -4 19q0 11 1 27.5t3 38.5q2 23 3.5 39.5t1.5 27.5q0 18 -1.5 47t-3.5 69q-2 26 -3.5 37t-1.5 6q0 20 71 53q68 29 94 30q0 -22 1 -55.5t3 -79.5q2 -45 3.5 -78.5t1.5 -55.5zM329 1149q0 -69 -10 -96 q-8 -20 -73 -49q-35 -17 -91 -33q0 13 0.5 32t1.5 44q3 49 3 76q0 21 -3 68q-3 46 -3 69q0 19 1 22q0 20 67 51q34 16 58.5 23.5t38.5 8.5q0 -18 1.5 -45t3.5 -64l3.5 -63t1.5 -44z" />
<glyph unicode="#" horiz-adv-x="1487" d="M1333 1075q-12 -17 -51 -39q-67 -39 -278 -61v-24v-56t1 -98q118 11 190.5 16.5t101.5 5.5q6 0 12.5 -0.5t14.5 -1.5q-11 -15 -51 -39q-62 -36 -130 -42q-34 -3 -68.5 -6t-69.5 -5q1 -56 1.5 -104t0.5 -90q0 -16 -69 -49q-69 -34 -91 -35q-6 12 -9 265l-201 -19v-96 q0 -49 -5 -67q-5 -17 -71 -48q-33 -16 -56 -24.5t-36 -10.5q-5 8 -5 46q0 17 1 40t3 52q3 64 3 93q-158 -12 -309 -12q-2 0 -2 1q0 6 53 38q63 37 127 40q63 4 131 6q1 32 3 79.5t4 111.5q-102 -2 -182.5 -3.5t-141.5 -1.5q-4 9 49 41q73 43 108 43h52t117 1q0 96 15 239 q10 24 75 51q32 14 55 21t37 8q0 -1 -2 -26.5t-6 -77.5q-11 -119 -12 -213q65 2 114 3.5t84 3.5q0 51 5.5 113.5t16.5 138.5q10 24 76 52q68 29 89 30q0 -2 -2.5 -27.5l-7.5 -76.5q-6 -62 -9 -116t-4 -102q38 2 94 7t131 13q17 4 42.5 7l59.5 7zM838 778q-2 108 0 179 q-26 -2 -74.5 -4t-121.5 -6q0 -31 -1 -76.5t-3 -107.5q34 2 83.5 6t116.5 9z" />
<glyph unicode="$" horiz-adv-x="995" d="M841 463q0 -156 -42 -222q-24 -38 -166 -75q-37 35 -73 47q0 -109 -9 -134q-8 -20 -73 -48q-32 -14 -55 -22t-37 -9q0 8 0.5 21.5t1.5 31.5q3 36 3 53q0 8 -1.5 20.5t-3.5 28.5q-2 17 -3 29.5t-1 20.5q0 15 4 19v1q-12 -1 -24.5 -2t-25.5 -3q-18 -12 -75 -37 q-54 -22 -77 -24q0 14 6 46q6 31 6 48q0 32 -20 80q2 17 71 48q66 31 91 32q24 -17 24 -80q0 -13 -1 -25.5t-3 -24.5q97 14 158.5 21t89.5 7t66 -6q1 11 1.5 23.5t0.5 28.5q0 31 -2.5 84t-7.5 129q-51 36 -183 36q-92 0 -198 -9q-36 0 -102 -6q13 89 19.5 154t6.5 107 q0 216 -53 257q3 14 68 50q66 36 85 36q34 0 48 -86l44 12v19v61q0 27 -1 45q0 5 -2.5 19.5t-2.5 21.5q0 17 68 47q66 29 92 31q7 -1 7 -15q0 -15 3 -46q2 -16 3 -27t1 -19q0 -23 -1.5 -49t-5.5 -55q39 5 98.5 13.5t140.5 20.5q4 1 10.5 2t16.5 3l3 -3q-23 -30 -38 -49 t-20 -27q-30 -42 -42 -80q-2 -10 -6 -24.5t-10 -34.5t-97 -57q-51 -20 -63 -20q-7 0 -7 5q0 63 36 131q19 43 67 75q-48 -7 -119.5 -18t-167.5 -28q13 -74 13 -135q0 -114 -29 -257q93 18 272 18q138 0 211 -37h2q0 -16 1.5 -39t3.5 -55t3.5 -55.5t1.5 -39.5z" />
<glyph unicode="%" horiz-adv-x="1587" d="M1434 89q-9 -20 -76 -54q-67 -35 -90 -35q-19 0 -22 19q-86 34 -287 34h-72q-19 0 -92 -15q-7 3 -7 17q0 -11 3.5 11t10.5 76q5 38 7.5 90.5t2.5 119.5q0 53 -4.5 111t-12.5 122q-29 -57 -69.5 -141.5t-94.5 -199.5q-8 -30 -24.5 -72t-39.5 -97q-12 -19 -70 -46 q-60 -28 -89 -29l-5 2v3q0 5 19 55q33 91 91 217t142 290q-101 46 -276 46q-149 0 -155 -2q-8 -2 -18.5 -5.5t-24.5 -8.5q0 10 2.5 36t7.5 70q7 63 10.5 114.5t3.5 93.5q0 32 -4.5 82.5t-12.5 120.5q-1 17 -6.5 39t-15.5 50q-12 19 -12 17q0 16 68 48q69 32 92 32 q10 0 96 12l233 33q20 5 50 10t72 10q-9 -59 -9 -95q0 11 1.5 -43.5t3.5 -175.5q2 -79 6.5 -142.5t10.5 -111.5q50 96 88 178.5t66 152.5q7 28 22 68t39 93q12 20 72 47q58 27 89 29l3 -3v-2q-2 -7 -7 -22.5t-15 -40.5q-34 -94 -101 -236t-167 -336q32 17 51 17q36 0 311 36 q51 4 147 24v-22q0 -24 -0.5 -60t-1.5 -85q-1 -48 -1.5 -84t-0.5 -59q0 -233 39 -393zM613 691q-8 57 -12.5 123.5t-4.5 144.5v91q0 194 10 227q-25 -5 -89 -13.5t-169 -21.5q21 -98 21 -240q0 -133 -21 -311q43 2 81 3.5t73 1.5q21 0 48.5 -1.5t62.5 -3.5zM1225 133 q-10 70 -15 139.5t-5 138.5q0 267 12 308q-92 -17 -258 -36q22 -106 22 -243q0 -48 -6 -124.5t-19 -184.5q87 6 167 6q28 0 53.5 -1t48.5 -3z" />
<glyph unicode="&#x26;" horiz-adv-x="1017" d="M915 650q-7 -19 -67 -49q-30 -14 -52.5 -23t-37.5 -11q-1 -28 -1.5 -67.5t-0.5 -93.5q0 -62 1.5 -116.5t5.5 -103.5t6 -74.5t2 -29.5q0 -23 -67 -51q-34 -14 -58 -22t-40 -9q-55 79 -195 79q-26 0 -57 -3t-66 -8q-24 -18 -75 -41q-52 -24 -80 -27v2q0 18 2.5 70t7.5 140 q7 121 10.5 230t3.5 208q0 173 -15 415q-7 83 -21 145l-19 75q0 14 70 47t91 33q24 0 37 -112q330 112 497 112q-1 -2 -17 -15q-53 -41 -65 -84q-7 -17 -10 -97q0 -44 -21 -75q-15 -25 -78 -50q-32 -14 -91 -30q4 186 111 276q-54 -12 -134 -30.5t-188 -44.5 q12 -195 17.5 -337t4.5 -235q28 0 87 -6q58 -6 87 -6q32 0 57.5 0.5t43.5 1.5v38q0 37 6 55q6 17 72 49q66 31 92 31q0 -4 -6 -161q51 4 88 5.5t60 1.5zM596 563q-109 -7 -176.5 -10t-95.5 -3q-4 -119 -24 -424q108 19 181 27.5t111 6.5q-1 20 -1 39v38v156q0 23 1.5 65.5 t3.5 104.5z" />
<glyph unicode="'" horiz-adv-x="481" d="M328 1149q0 -66 -11 -96q-8 -20 -73 -49q-36 -17 -90 -33v2v31t1 43t1.5 44t0.5 32q0 14 -0.5 34t-1.5 46t-1 46v33q0 20 67 51q34 16 58 23.5t38 8.5q0 -18 1.5 -45t3.5 -64q6 -72 6 -107z" />
<glyph unicode="(" horiz-adv-x="727" d="M573 1364q0 -2 -17 -16q-26 -24 -87 -117q-150 -230 -150 -526q0 -222 84 -444q40 -106 75 -157q10 -14 10 -19q0 -18 -70 -51q-30 -14 -53 -22t-39 -12q-172 268 -172 613q0 188 58 356q66 201 196 314q85 76 159 82z" />
<glyph unicode=")" horiz-adv-x="689" d="M536 770q0 -306 -155 -593q-20 -35 -64 -97q-21 -24 -76 -52q-26 -13 -48 -20t-39 -8q5 12 13 25.5t19 29.5q184 262 184 636q0 215 -73 412q-37 96 -72 151q-13 22 -13 26q0 19 68 51q57 28 92 34q76 -91 123 -286q41 -170 41 -309z" />
<glyph unicode="*" horiz-adv-x="1149" d="M995 683q0 -13 -69 -47q-70 -35 -88 -35q-22 0 -191 133v-91q0 -74 -8 -98q-8 -22 -78 -50q-29 -14 -90 -31q0 20 3 55q6 42 6 54q2 37 3 87.5t2 114.5q-24 -24 -48 -47.5t-48 -46.5q-59 -52 -119 -75q-20 -8 -36 -13t-27 -6l-4 4q9 22 282 262v12q-192 151 -321 203 q-10 4 -10 7q0 13 70 47q72 35 87 35q34 0 177 -92v12q0 27 -3 80v82q0 30 5 48q5 17 71 47q66 31 96 31q0 -34 -0.5 -79.5t-1.5 -102.5q-1 -70 -1 -116v-67l65 65t66 65q88 76 167 80l4 -3q-8 -24 -292 -272q33 -27 84.5 -68t121.5 -96q17 -14 42.5 -32.5t60.5 -42.5 q22 -12 22 -13z" />
<glyph unicode="+" horiz-adv-x="1096" d="M942 727q-3 -14 -68 -47t-86 -33h-37q-22 0 -51 1t-51 1.5t-36 0.5q-2 -24 -3.5 -64.5t-1.5 -97.5q0 -17 -70 -48q-72 -31 -98 -32v24q-1 10 -1 16v9q0 19 3 65t10 120q-18 -2 -69.5 -9t-136.5 -20q-27 -4 -89 -12l-3 1q3 11 32 26q93 54 271 79q2 25 3 74.5t1 124.5 q0 15 68 47q67 31 94 33q8 -11 8 -56q0 -49 -2.5 -99t-7.5 -104q38 4 95.5 5.5t135.5 1.5q29 0 51.5 -1.5t36.5 -3.5z" />
<glyph unicode="," horiz-adv-x="480" d="M326 -14q0 -54 -9 -82q-6 -21 -70 -49q-65 -30 -93 -31v27t1 38t1.5 38t0.5 27q0 10 -0.5 24.5t-1.5 33.5q-1 20 -1 34v26v26q2 11 65 42t95 31q3 0 3 -7q0 -11 1 -26.5t3 -37.5q2 -21 3.5 -36.5t1.5 -25.5v-52z" />
<glyph unicode="-" horiz-adv-x="1004" d="M850 727q0 -15 -66 -45q-64 -30 -91 -33q-83 -12 -234 -12q-85 0 -143.5 -1.5t-91.5 -5.5q-11 -2 -28.5 -3.5t-40.5 -3.5q-1 2 -1 5q0 16 68 48q57 25 89 31q22 3 108.5 7.5t239.5 9.5q208 6 191 6v-3z" />
<glyph unicode="." horiz-adv-x="621" d="M468 87q-5 -14 -72 -47q-68 -33 -85 -33q-18 0 -87 22q-70 22 -70 29q0 13 70 47q72 35 92 35q23 0 152 -53z" />
<glyph unicode="/" horiz-adv-x="858" d="M807 1360q-35 -97 -82.5 -207t-108.5 -235q-56 -109 -110 -216.5t-108 -216.5q-25 -48 -58 -118.5t-75 -166.5q-12 -47 -48 -127q-17 -24 -72 -48q-28 -11 -51.5 -17.5t-42.5 -7.5q4 15 21 60q32 84 77.5 184.5t106.5 218.5q52 99 103.5 196.5t103.5 197.5 q38 77 78.5 174t84.5 215q2 8 6.5 17.5t9.5 22.5q12 26 68 52q51 22 90 27z" />
<glyph unicode="0" horiz-adv-x="935" d="M833 87q-17 -24 -83 -56q-65 -31 -98 -31q-8 0 -9 24q-102 66 -305 66q-30 0 -61.5 -1.5t-64.5 -3.5q-48 -22 -79 -25q0 19 2.5 64.5t7.5 119.5q8 118 12.5 236.5t4.5 238.5q0 312 -29 390q-1 2 -5 10.5t-12 22.5q-12 19 -12 34t73 52t93 30q86 16 210.5 42.5t291.5 64.5 l7 -13q-12 -531 -12 -548q0 -197 11.5 -371t34.5 -329zM626 166q-14 131 -21.5 270t-7.5 288q0 511 19 558q-36 -10 -117 -27t-209 -43q7 -20 12 -59.5t7 -99.5q8 -149 12.5 -232.5t4.5 -103.5q0 -106 -6.5 -243t-19.5 -310q121 12 193 12q30 0 63 -2.5t70 -7.5z" />
<glyph unicode="1" horiz-adv-x="408" d="M305 838q0 -48 -2.5 -147t-7.5 -252q-12 -339 -20 -352q-20 -26 -75 -54q-56 -29 -94 -33q-4 4 -4 9q0 -6 1.5 0t5.5 23q1 8 4.5 66.5t9.5 167.5q8 155 12.5 277t4.5 215q0 149 -15 346q-1 19 -3.5 48t-7.5 67q-4 29 -6 46t-2 22q0 19 71 48q60 24 98 30q30 -261 30 -527 z" />
<glyph unicode="2" horiz-adv-x="928" d="M826 1128q0 -36 -2.5 -89t-7.5 -125q-9 -141 -9 -213q0 -11 0.5 -27.5t1.5 -38.5t1.5 -38t0.5 -27q0 -20 -64 -51q-63 -31 -92 -31q-1 0 -2.5 0.5t-5.5 1.5q-107 72 -340 77q19 -94 19 -197q0 -56 -4.5 -115.5t-14.5 -124.5q203 34 273 34q11 0 26.5 -1.5t35.5 -3.5 q-2 25 -5 48.5t-5.5 41t-4.5 28.5t-2 13q0 17 70 48q69 31 95 34l2 -2q17 -42 17 -198q0 -62 -10 -88q-8 -18 -71 -50q-60 -31 -90 -34q-5 7 -13.5 16.5t-20.5 22.5q-44 41 -181 41q-32 0 -66 -2.5t-69 -7.5q-91 -67 -155 -70q0 2 3.5 25.5t10.5 69.5q15 93 15 188 q0 220 -60 273q84 61 138 78q52 16 168 16q76 0 134 -3t100 -10q0 32 1.5 83t5.5 123q4 68 6 119.5t2 87.5q0 145 -19 230q-6 -2 -96 -22t-266 -60q0 -5 0.5 -13.5t1.5 -20.5v-32q0 -55 -10 -76q-9 -24 -69 -52q-59 -29 -93 -33l-4 2q0 24 3 74q2 25 3 44t1 32q0 14 -1 34 t-3 46q-3 52 -3 79q0 20 67 51q34 16 58.5 23.5t40.5 8.5q0 -10 1 -25.5t3 -35.5t3 -35t1 -25q85 16 207.5 44.5t287.5 70.5q21 6 24 6q4 0 12 -17q19 -57 19 -220z" />
<glyph unicode="3" horiz-adv-x="956" d="M853 85q-5 -10 -23.5 -23t-50.5 -29q-65 -32 -95 -33q-63 51 -297 51q-94 0 -133 -10q-20 -10 -50.5 -20t-73.5 -21q0 22 6 66q6 45 6 67q0 18 -11 57q-10 37 -10 57q0 16 69 45q71 29 97 32q22 -41 22 -112q0 -20 -2.5 -49.5t-7.5 -68.5q129 41 271 41q19 0 37.5 -1 t37.5 -3q-14 106 -22 227.5t-10 261.5h-7q-34 0 -84.5 -4t-119.5 -12q-137 -15 -204 -15q7 7 21 16t34 21q63 36 105 45q2 0 253 18v104t1 145q1 84 1.5 146t0.5 104q0 57 9 89q-60 -8 -146 -25t-201 -42q0 -7 0.5 -18t1.5 -25v-41q0 -52 -8 -73q-8 -20 -70 -48 q-61 -26 -96 -34l-2 2q0 12 1 30.5t3 43.5t3.5 44t1.5 32q0 14 -1.5 33.5l-3.5 45.5t-3 46t-1 34q0 18 72 51q32 16 56 23.5t38 8.5q6 -5 8 -121q51 20 114 37t139 33q127 25 258 51v-13q0 -46 -1.5 -113.5t-3.5 -158.5t-3 -158.5t-1 -112.5q0 -423 51 -715z" />
<glyph unicode="4" horiz-adv-x="887" d="M785 80q0 -17 -70 -48q-72 -31 -97 -32q-17 48 -38 364q-139 56 -205 56q-43 0 -87 -2.5t-92 -7.5q-42 -21 -117 -45q0 14 2.5 51.5t7.5 98.5q15 196 15 313q0 24 -4.5 98t-14.5 200q-2 37 -3.5 57t-1.5 24q-8 39 -29 76q4 19 70 50q62 28 91 32l3 -1q31 -40 39 -166 q8 -112 12 -182.5t4 -100.5q0 -148 -24 -437q153 31 326 22q-1 30 -1.5 70.5t-0.5 91.5v94q0 57 1 133t1.5 132.5t0.5 94.5v19q0 12 -1 26v46q0 54 6 74q8 22 71 51q65 30 92 33l5 -1q0 -47 -1.5 -115.5t-3.5 -161.5t-3 -161.5t-1 -114.5q0 -138 4.5 -260.5t14.5 -231.5 q3 -57 15 -167l10.5 -54z" />
<glyph unicode="5" horiz-adv-x="898" d="M795 377q0 -214 -44 -288q-16 -27 -73 -58q-56 -31 -93 -31q-61 94 -189 94q-36 0 -96 -9q-3 -19 -69 -50q-66 -32 -94 -35q0 12 1.5 30t3.5 41t3.5 41t1.5 30q0 18 -11 57t-11 59q0 15 73 46q69 28 96 29q22 -43 22 -109q0 -17 -1.5 -37t-5.5 -45q94 17 155 26t91 9 q15 0 30.5 -1.5t32.5 -3.5q4 35 5.5 71t1.5 74q0 58 -9 222q-50 43 -179 43q-82 0 -208 -12q-71 -33 -98 -34q2 20 5.5 50.5t8.5 72.5q12 112 12 251q0 69 -6.5 135.5t-19.5 133.5q-1 6 -8 32t-21 74q0 14 70 47t91 33q31 0 42 -105q310 100 473 105q-2 -4 -17 -15 q-66 -52 -73 -126q-9 -105 -22 -128q-12 -24 -79 -52q-30 -13 -89 -30q1 184 110 273q-50 -11 -124.5 -27.5t-174.5 -39.5q15 -137 15 -222q0 -133 -24 -355q109 21 272 21q136 0 208 -33q15 -113 15 -254z" />
<glyph unicode="6" horiz-adv-x="913" d="M811 365q0 -226 -43 -285q-12 -18 -72 -47q-59 -29 -88 -33q-10 13 -35 41q-41 41 -160 41q-36 0 -75.5 -4.5t-84.5 -12.5q-101 -60 -151 -65q0 21 9 92q26 238 39.5 437.5t13.5 366.5q0 23 -1.5 57.5t-3.5 82.5t-3 82.5t-1 57.5q0 19 -6 54q-6 34 -6 53q0 17 72 50 q66 29 94 32q8 -26 12 -109q333 109 474 109q-50 -76 -82 -179q-4 -17 -11 -41t-18 -56q-11 -26 -76 -51q-16 -6 -39 -13.5t-54 -15.5q4 184 111 273q-51 -10 -126.5 -25t-175.5 -37q4 -62 5.5 -122.5t1.5 -121.5q0 -63 -3.5 -148t-10.5 -195q98 19 285 19q60 0 122 -14 q25 -8 76 -18q0 -20 1.5 -52t3.5 -75q6 -86 6 -128zM642 307q0 49 -1.5 104t-5.5 118q-52 41 -183 41q-33 0 -67 -1.5t-69 -3.5q-5 -72 -15.5 -183t-25.5 -264q121 48 297 48q30 0 63 -6q4 35 5.5 72t1.5 75z" />
<glyph unicode="7" horiz-adv-x="806" d="M857 1359q0 -64 -343 -728q29 6 58.5 12.5t58.5 13.5q35 7 64 10.5t54 3.5q1 0 7 -2q-7 -11 -37 -27q-66 -38 -113 -50l-40 -8t-81 -14q-29 -56 -67.5 -139t-89.5 -195q-13 -57 -62 -161q-15 -21 -70 -46q-57 -26 -90 -29q-4 1 -4 7q0 4 19 49q80 212 224 490 q-76 -19 -232 -39l-2 3q63 67 264 99q68 131 109 212t57 113q45 93 81 175t62 156q-115 -19 -346 -72q0 -5 0.5 -13t1.5 -19v-33q0 -51 -11 -75q-10 -22 -71 -50q-60 -27 -94 -30q0 23 3 73q2 25 3 43.5t1 31.5q0 24 -6 71q-2 23 -3.5 41t-1.5 30q0 10 4 17q3 21 69 52 q66 33 95 33q3 -1 7 -10q3 -17 3 -92v-36q20 8 85 26.5t175 49.5t173.5 46.5t80.5 17.5q5 -2 5 -8z" />
<glyph unicode="8" horiz-adv-x="980" d="M877 89q0 -18 -70 -52q-69 -34 -97 -37q-170 63 -311 63q-54 0 -129 -12q-93 -48 -137 -51q0 4 3.5 26.5t10.5 65.5q8 49 12.5 95.5t4.5 92.5q0 229 -62 280q74 56 127 77q18 174 18 295q0 271 -51 351v2q0 11 69 46q69 34 87 34q34 0 46 -100q42 13 107.5 28.5 t156.5 35.5q57 18 171 36q0 -93 -6 -277q-6 -185 -6 -277q0 -204 11.5 -366.5t34.5 -285.5q5 -29 7.5 -46t2.5 -24zM667 1278q-45 -8 -111.5 -21t-156.5 -32q7 -65 10.5 -113.5t3.5 -80.5q0 -37 -15 -278q0 -14 -0.5 -29t-1.5 -31q-4 -39 -26 -51q60 20 131.5 38t155.5 35 q0 86 2.5 226t7.5 337zM689 135q-15 111 -23 241.5t-9 285.5q-60 -11 -147.5 -30.5t-205.5 -47.5q27 -104 27 -214q0 -87 -27 -268q117 40 278 40q26 0 53 -1.5t54 -5.5z" />
<glyph unicode="9" horiz-adv-x="922" d="M819 988q0 -117 -9 -346q-4 -115 -6 -201t-2 -144q0 -36 3 -108q2 -35 3 -62t1 -45q0 -17 -67 -50q-67 -32 -90 -32l-46 29q-92 60 -186 60q-97 0 -171 -43t-123 -46q8 61 12 94.5t4 40.5q0 19 -12 57q-11 39 -11 59q0 15 72 45q73 31 97 32q19 -34 19 -111q0 -26 -2 -56 t-6 -62q151 72 276 72q14 0 28.5 -1.5t31.5 -3.5q0 82 2 174.5t6 197.5q-129 44 -206 44q-69 0 -121.5 -1.5t-88.5 -5.5q-66 -29 -96 -32q0 10 3 39.5t8 79.5q15 157 15 254q0 281 -55 366v3q0 12 70 46q69 34 87 34q36 0 48 -133q56 20 126.5 39.5t158.5 39.5q7 2 35 9 t78 20q90 25 94 25q1 0 1 -18q0 -25 6 -62q2 -25 3.5 -40t1.5 -21q4 -61 6 -119.5t2 -116.5zM655 908q0 96 -5 185t-15 173q-55 -9 -135 -26t-186 -42q5 -46 7.5 -94t2.5 -99q0 -140 -24 -356q82 15 219 15h72q16 0 30.5 -0.5t27.5 -1.5q6 169 6 246z" />
<glyph unicode=":" horiz-adv-x="628" d="M463 584q-5 -14 -70 -47q-66 -32 -84 -32q-21 0 -87 22q-68 23 -68 29q0 12 70 46q72 35 87 35q19 0 82 -22q64 -21 70 -31zM474 87q-3 -14 -70 -47q-66 -33 -85 -33q-21 0 -88 22q-69 22 -69 29q0 12 71 47q72 35 91 35q23 0 150 -53z" />
<glyph unicode=";" horiz-adv-x="621" d="M468 592q-4 -12 -73 -47q-68 -33 -86 -33q-21 0 -87 22q-68 23 -68 29q0 13 67 47q68 35 86 35q6 0 75 -25q36 -12 57.5 -19t28.5 -9zM377 -14q0 -52 -8 -82q-8 -21 -70 -49q-32 -14 -55 -22t-39 -9v27t1 38t1.5 38t0.5 27q0 10 -0.5 24.5t-1.5 33.5q-1 20 -1 34v26v14 q0 7 1 12q2 11 65 42t94 31q4 0 4 -7q0 -11 1 -26.5t3 -37.5q2 -21 3 -36.5t1 -25.5v-52z" />
<glyph unicode="&#x3c;" horiz-adv-x="992" d="M838 244q-9 -15 -74 -50q-64 -34 -85 -34q-2 1 -7 6q-17 11 -57 47t-103 96q-38 36 -94.5 90t-134.5 127q-22 20 -54 50t-75 69v5q32 35 78 78t106 95q78 66 126 107t67 58q46 49 141 147q21 21 75 47q26 13 47.5 20t38.5 8l5 -3q-8 -16 -40 -49.5t-88 -87.5 q-52 -45 -104 -88.5t-104 -88.5q-174 -149 -174 -168q0 -6 39 -39q28 -25 78 -71t122 -115q101 -98 271 -256z" />
<glyph unicode="=" horiz-adv-x="1089" d="M911 720q-13 -21 -73 -50q-60 -30 -87 -30h-138q-46 1 -81 1.5t-59 0.5q-57 0 -106.5 -1.5t-93.5 -3.5q-17 -2 -42 -3.5t-57 -3.5l-3 3q6 12 53 38q61 36 105 42q36 5 90 8t127 3q31 0 76.5 -0.5t106.5 -1.5h181zM935 515q-59 -59 -155 -78q-167 -33 -533 -33h-93v6 q0 13 68 46q67 34 89 34q273 0 425 12q33 4 82.5 9t116.5 11v-7z" />
<glyph unicode="&#x3e;" horiz-adv-x="992" d="M838 725q-34 -35 -80 -80t-104 -99q-76 -69 -123.5 -112t-67.5 -62q-25 -25 -63 -60t-89 -82q-82 -62 -151 -70l-6 4q7 12 141 138q62 60 155 146t219 201q-67 70 -200 182q-152 124 -206 179q-109 106 -109 118q0 17 70 48q31 14 53.5 23t36.5 11l5 -2 q40 -51 103 -111.5t150 -133.5q100 -85 166 -144t100 -94z" />
<glyph unicode="?" horiz-adv-x="1067" d="M913 1133q0 -35 -2.5 -89t-7.5 -126q-9 -143 -9 -215q0 -11 1 -27.5t3 -38.5t3.5 -38t1.5 -27q0 -18 -68 -50q-68 -30 -94 -30q-5 0 -60 36q-56 37 -273 42q3 -24 3 -73q0 -138 -20 -176q-11 -21 -77 -50q-36 -14 -90 -30q0 3 3 15.5t7 36.5t7 61.5t3 89.5q0 58 -12 78 q-2 2 -7.5 6.5t-13.5 9.5q-16 12 -16 20q0 4 17 15q78 53 145 69q47 10 165 10q125 0 207 -14q0 34 2 85t6 120q9 138 9 210q0 140 -19 225q-61 -14 -150.5 -34t-209.5 -46q0 -130 -6 -149q-6 -18 -71 -47q-64 -28 -95 -33l-2 4q0 12 1 30t3 43t3 43.5t1 31.5t-1 33t-3 46 t-3 46t-1 34q0 20 70 53q61 30 94 32q0 -10 1.5 -25.5t3.5 -36.5t3.5 -36t1.5 -25q166 31 495 117q19 6 22 6q6 0 14 -15q15 -50 15 -217zM463 80q-4 -13 -71 -47q-66 -33 -85 -33q-20 0 -86 22q-67 22 -67 29q0 14 71 46t94 34q46 -20 144 -51z" />
<glyph unicode="@" horiz-adv-x="1493" d="M1340 777q0 -134 -109 -221q-158 -126 -313 -126q-99 0 -130 67q-100 -52 -174 -52q-71 0 -118 40q-47 41 -47 99q0 142 261 261q100 44 160 44q71 0 106 -51v-2q0 -13 -68 -46q-60 -26 -91 -34l-5 2q-38 51 -112 51q-86 -72 -86 -147q0 -28 11.5 -52t31.5 -41.5t48 -28 t61 -11.5q2 7 6 17t10 24q14 20 75 46q63 26 94 29q-7 -29 -7 -81q0 -49 159 -49q71 71 71 183q0 167 -130 294q-134 131 -331 131q-143 0 -225 -61q-169 -124 -169 -338t186 -355q178 -135 439 -135q101 0 150 10q-9 -12 -36 -27q-110 -63 -266 -63q-265 0 -447 131 q-191 138 -191 357q0 218 191 367q252 198 519 198q208 0 344 -130q132 -125 132 -300z" />
<glyph unicode="A" d="M860 80q0 -17 -71 -49q-69 -31 -94 -31q-7 0 -7 5q0 4 2.5 9t2.5 8q0 -4 -21 142q-9 64 -15 157t-10 218q-111 -47 -336 -129q-8 -82 -17.5 -165.5t-20.5 -169.5q-20 -23 -79 -48q-58 -25 -92 -27q11 41 40 302q17 182 26 330.5t9 266.5q0 111 -6 198q-8 88 -12.5 134.5 t-4.5 53.5q0 18 71 50q61 25 96 30q8 -65 12.5 -102t4.5 -48q40 5 119 21q23 5 67.5 22.5t113.5 48.5q61 26 104.5 41t69.5 17q9 -17 9 -30q0 14 -1.5 -28.5t-3.5 -142.5t-3 -190t-1 -172q0 -418 40 -654q4 -26 6 -43t2 -25zM655 1278q-51 -21 -129.5 -50t-184.5 -66 q2 -35 3.5 -80t1.5 -102q0 -239 -27 -504l17.5 -3.5t13.5 -1.5q63 0 297 99q-1 48 -1.5 85.5t-0.5 66.5q0 40 0.5 100.5t1.5 141.5t1.5 141.5t0.5 101.5q0 44 6 71z" />
<glyph unicode="B" horiz-adv-x="1017" d="M915 613q0 -24 -8.5 -113t-25.5 -244q-1 -65 -23 -171q-11 -23 -75 -54q-62 -31 -90 -31q10 0 -101 24q-128 27 -220 27q-112 0 -205 -32q-10 -5 -26 -9.5t-39 -9.5v3q0 6 4.5 14.5t4.5 13.5l14 218q8 125 12.5 252.5t4.5 259.5q0 181 -9 277q-11 132 -16.5 192.5 t-5.5 52.5q0 18 72 50q63 28 93 32q5 -46 9.5 -84t8.5 -68q23 9 59 21.5t86 28.5q31 10 98 29t173 48q18 6 45 12t62 13q-8 -17 -17.5 -42.5t-22.5 -59.5q-38 -103 -38 -217q0 -98 27 -240q26 -11 69 -10q23 1 39 -0.5t25 -3.5q16 -71 16 -179zM645 1280q-61 -26 -148 -54 t-202 -59q7 -97 10.5 -179t3.5 -150q0 -19 -1.5 -73t-3.5 -145q158 98 290 138q-11 60 -16.5 111.5t-5.5 96.5q0 192 73 314zM748 553q0 10 -1.5 24.5t-3.5 33.5q-2 20 -3 33.5t-1 21.5q0 21 -2 27q-3 10 -18.5 17t-35.5 7q-16 0 -77 -12q-110 -21 -162 -46 q-36 -19 -71 -37.5t-69 -37.5q-2 -48 -5.5 -117t-8.5 -163q0 -36 -3.5 -89t-10.5 -125q125 41 274 41q75 0 153 -12q45 349 45 434z" />
<glyph unicode="C" horiz-adv-x="915" d="M812 188q0 -77 -20 -109q-14 -23 -75 -50q-61 -28 -92 -29q-64 79 -203 79q-52 0 -142 -18q-86 -57 -149 -61q-5 3 -5 7q0 -9 5 13q1 10 12 204q8 155 12.5 273.5t4.5 205.5q0 205 -6 312q-2 35 -9 85.5t-19 118.5q-12 31 -24 66q0 17 70 48q66 29 93 32q25 -12 34 -109 q180 67 491 109l7 -3q0 -2 -17 -14q-53 -41 -65 -83q-5 -19 -8 -96q0 -43 -23 -77q-16 -23 -78 -49q-17 -7 -40 -15t-52 -16q1 181 111 273q-55 -10 -135 -27t-186 -41q11 -159 16.5 -278.5t5.5 -201.5q0 -143 -5.5 -294.5t-16.5 -316.5q190 36 287 36q25 0 54 -3 q-3 28 -27 116q-17 73 -17 118q0 17 71 49q62 26 94 34q2 -4 5.5 -25.5t8.5 -59.5q1 -10 6 -34.5t14 -66.5q12 -63 12 -102z" />
<glyph unicode="D" horiz-adv-x="969" d="M867 995q0 -58 -2.5 -144.5t-7.5 -203.5t-7.5 -203.5t-2.5 -144.5q0 -18 0.5 -45t1.5 -63q3 -72 3 -107q0 -19 -64 -49q-66 -31 -95 -35q-14 14 -34 33.5t-46 45.5q-60 51 -265 51h-44v-17q0 -21 -5 -33q-10 -22 -72 -49q-30 -13 -53.5 -21t-40.5 -10q-7 3 -7 7 q0 -7 7 15q2 11 12 203q15 283 15 574q0 328 -34 418q-24 67 -24 65q0 18 72 51q66 29 96 32q34 -47 39 -201q75 28 185.5 70.5t259.5 100.5q77 32 89 30q24 -56 24 -370zM698 915q0 100 -5 189t-15 169q-11 -3 -369 -138q8 -141 12.5 -238t4.5 -153q0 -29 -4.5 -166 t-12.5 -382q42 8 87.5 12.5t96.5 4.5q107 0 185 -20q0 60 2.5 149.5t7.5 210.5t7.5 211t2.5 151z" />
<glyph unicode="E" horiz-adv-x="915" d="M812 186q0 -77 -20 -109q-11 -18 -75 -47q-61 -28 -89 -30q-64 79 -205 79q-22 0 -57.5 -4.5t-85.5 -14.5q-83 -56 -149 -60q2 38 5 93.5t7 130.5q8 149 12.5 254.5t4.5 171.5q0 46 -4.5 149t-12.5 266q0 26 -4.5 64t-12.5 90q-12 30 -24 63q0 18 70 49q63 31 93 34 q25 -16 34 -111q204 75 399 105q46 6 61 6h14q10 0 24 -1q-1 -3 -17 -16q-57 -48 -67 -88q-2 -24 -3 -48.5t-3 -49.5q-1 -36 -23 -70q-16 -23 -76 -49q-27 -11 -89 -31q1 183 109 277q-54 -11 -134 -29.5t-189 -44.5q21 -288 21 -483q10 0 23.5 -1.5t32.5 -3.5t33.5 -3.5 t24.5 -1.5q23 0 56.5 2t79.5 6q91 9 137 9q-12 -18 -51 -41q-56 -32 -109 -41q-38 -6 -94.5 -10.5t-132.5 -8.5q-2 -123 -8 -250.5t-14 -261.5q190 36 278 36q14 0 30 -1.5t33 -3.5q-3 23 -24 118q-8 37 -12.5 66.5t-4.5 52.5q0 17 70 48q35 16 58.5 23.5t35.5 8.5 q1 -5 4.5 -25.5t9.5 -57.5q30 -195 30 -205z" />
<glyph unicode="F" horiz-adv-x="847" d="M795 1364q-3 -5 -17 -17q-47 -43 -61 -75q-12 -32 -12 -90q0 -60 -21 -88q-20 -30 -75 -52q-54 -23 -94 -30q5 184 111 275q-54 -11 -134 -28t-188 -42q11 -165 16.5 -290.5t5.5 -214.5q175 37 430 37l2 -3q-11 -18 -73 -50q-60 -30 -88 -30q-54 0 -121.5 -4.5 t-151.5 -12.5q-11 -549 -28 -574q-18 -25 -74 -51q-56 -24 -96 -24q24 106 24 222q0 71 3 217q2 73 3 127t1 89q0 69 -15 410q0 26 -4.5 65t-12.5 90q-23 74 -23 65q0 18 72 50q63 27 94 30q28 -37 32 -109q231 85 461 109q12 -3 34 -1z" />
<glyph unicode="G" horiz-adv-x="961" d="M858 497q-14 -20 -42 -34q5 -58 7.5 -106t2.5 -86q0 -142 -34 -186q-15 -23 -70 -51q-28 -14 -49.5 -23t-37.5 -11q-6 2 -34 32q-55 55 -178 55q-48 0 -143 -19q-90 -60 -149 -68q-1 5 -1 9v6q0 -7 2.5 8.5t7.5 53.5q1 26 2 64t3 89q12 304 12 419q0 41 -1.5 93t-3.5 116 q-5 87 -7 139t-3 71q1 52 -12 154q-4 10 -10.5 25.5t-17.5 37.5q9 22 70 49q60 28 96 31q26 -35 32 -112q306 112 478 112q9 0 17 -6l-6 -6t-11 -10q-70 -60 -70 -150v-24q0 -89 -100 -131q-55 -23 -93 -31q4 184 111 276q-54 -10 -133.5 -27.5t-187.5 -42.5 q21 -261 21 -474q0 -306 -21 -604q193 36 275 36q20 0 40 -1.5t39 -5.5v36q0 39 -9 116q-4 39 -6 68t-2 48q-29 10 -78 25t-120 36q15 19 73 49q58 31 84 31q19 0 257 -76z" />
<glyph unicode="H" horiz-adv-x="966" d="M864 80q0 -20 -69 -48q-69 -29 -99 -32l-22 162q-10 69 -16 164.5t-9 219.5q-110 -44 -333 -123q-8 -85 -18.5 -170.5t-21.5 -173.5q-22 -31 -77 -55q-54 -24 -97 -24q13 46 41 316q20 189 30 337.5t10 259.5q0 84 -3 146.5t-8 104.5q-15 115 -15 121q0 18 72 50 q59 24 95 30q24 -204 24 -387q0 -230 -27 -495q16 -3 29 -3q66 0 299 99q0 693 8 704q60 69 169 81l5 -2q-10 -37 -10 -171q0 -63 -3 -190q-1 -64 -1.5 -111t-0.5 -79q0 -132 4.5 -254t12.5 -236q2 -28 7 -70.5t12 -100.5q12 -62 12 -70z" />
<glyph unicode="I" horiz-adv-x="408" d="M305 838q0 -48 -2.5 -147t-7.5 -252q-12 -339 -20 -352q-20 -26 -75 -54q-56 -29 -94 -33q-4 4 -4 9q0 -6 1.5 0t5.5 23q1 8 4.5 66.5t9.5 167.5q8 155 12.5 277t4.5 215q0 149 -15 346q-1 19 -3.5 48t-7.5 67q-4 29 -6 46t-2 22q0 19 71 48q60 24 98 30q30 -261 30 -527 z" />
<glyph unicode="J" horiz-adv-x="877" d="M775 1101q0 -136 -9 -404q-4 -135 -6 -235.5t-2 -167.5v-45t1 -62t1.5 -62t0.5 -45q0 -15 -70 -46q-69 -31 -97 -34q-140 171 -329 171q-14 0 -31 -4v-32q0 -39 -7 -53q-9 -23 -72 -51q-52 -23 -92 -31q0 8 0.5 23t1.5 37v58q0 23 -1.5 57.5t-5.5 81.5t-5.5 81.5 t-1.5 57.5q0 17 74 49q34 14 57 22t36 9q11 -46 14 -266q114 49 190 49q86 0 169 -39q0 54 2.5 138.5t7.5 202.5q4 114 5.5 199t1.5 143q0 83 -3 148.5t-8 114.5q-12 117 -12 119q0 15 71 47q70 31 95 33q24 -65 24 -264z" />
<glyph unicode="K" horiz-adv-x="932" d="M881 7q-35 -53 -164 -80q-14 15 -75 160q-123 289 -318 461q-4 -114 -10 -230.5t-15 -237.5q-56 -65 -166 -80l12 225q9 171 9 328q0 92 -6 274q-6 181 -6 274q0 82 -16 121q-24 67 -24 63q0 20 70 48q28 12 51 20t43 12q34 -27 43 -245q7 -98 15 -294q93 143 145 222 t65 97q172 216 306 220q-2 -5 -21 -18q-93 -74 -295 -402q-18 -29 -36 -59l-36 -60q-52 -79 -87 -106q184 -116 318 -324q38 -60 87 -156t111 -233z" />
<glyph unicode="L" horiz-adv-x="920" d="M869 251q0 -150 -13 -170q-13 -21 -71 -49q-60 -28 -92 -32q-8 10 -19.5 24.5t-28.5 33.5q-102 111 -338 149v-60q0 -49 -10 -69q-9 -20 -70 -48q-62 -27 -96 -30q13 251 19.5 412.5t6.5 236.5q0 64 -15 411q0 26 -4.5 65.5t-12.5 93.5q-23 72 -23 63q0 18 66 48 q67 31 95 35q35 -24 46 -237q8 -171 12.5 -268t4.5 -123q0 -171 -15 -433q229 0 389 -82v140q0 17 68 49q67 33 92 33q1 0 7 -2q1 -61 1.5 -108.5t0.5 -82.5z" />
<glyph unicode="M" horiz-adv-x="1270" d="M1167 80q0 -19 -68 -48q-69 -29 -97 -32l-19 164q-11 106 -16.5 248t-5.5 322q0 43 0.5 106.5t1.5 150.5q3 172 3 258q0 17 3 29q-39 -19 -99 -44.5t-141 -59.5q-2 -146 -3.5 -236.5t-1.5 -128.5q0 -277 15 -497q9 -105 17.5 -160.5t8.5 -71.5q0 -20 -70 -48 q-72 -29 -99 -32l-16 162q-13 123 -19 264t-6 303q0 58 3 177q3 118 3 178q0 12 0.5 29.5t1.5 40.5t1.5 40.5t0.5 29.5q0 14 -0.5 27.5t-1.5 25.5q-78 -38 -237 -105q2 -59 3.5 -106.5t1.5 -84.5q0 -165 -48 -786q-2 -25 -5 -54t-8 -61q-11 -22 -71 -49q-29 -13 -53.5 -21 t-43.5 -10q5 38 13 114t18 193q33 364 33 594q0 75 -3 139t-8 119q-12 130 -12 128q0 19 72 48q59 24 94 30q8 -51 15 -146q14 3 35.5 7.5t50.5 10.5q48 13 157 69q103 53 158 59q11 -2 11 -12q0 -11 -1 -27.5t-3 -39.5q-3 -44 -3 -66q14 4 36 8.5t51 10.5q23 6 62 23t95 45 q101 52 157 58q7 -7 7 -22q0 -90 -6 -265q-2 -88 -3.5 -153.5t-1.5 -110.5q0 -142 4.5 -266.5t12.5 -235.5q7 -105 15.5 -160.5t8.5 -71.5z" />
<glyph unicode="N" horiz-adv-x="959" d="M857 82q0 -17 -70 -48q-55 -25 -91 -34q-12 17 -17 70q-19 217 -28 381t-9 278q0 46 1.5 114.5t3.5 159.5q2 92 3.5 160t1.5 114q-51 -20 -129.5 -48.5t-184.5 -64.5q3 -72 3 -183q0 -78 -6 -179t-19 -229q-16 -158 -25 -259.5t-13 -147.5q0 -33 -10 -86q-10 -22 -73 -49 q-28 -13 -51 -21t-42 -10q0 16 33 288q39 325 39 649q0 56 -1.5 98.5t-5.5 73.5q-8 94 -12.5 138t-4.5 40q0 19 72 49q60 23 95 31q7 -34 10.5 -71.5t3.5 -80.5q20 4 50.5 9t70.5 13q39 9 185 69q130 52 172 54l8 -5l-8 -546q0 -408 39 -657q9 -53 9 -70z" />
<glyph unicode="O" horiz-adv-x="935" d="M833 87q-17 -24 -83 -56q-65 -31 -98 -31q-8 0 -9 24q-102 66 -305 66q-30 0 -61.5 -1.5t-64.5 -3.5q-48 -22 -79 -25q0 19 2.5 64.5t7.5 119.5q8 118 12.5 236.5t4.5 238.5q0 312 -29 390q-1 2 -5 10.5t-12 22.5q-12 19 -12 34t73 52t93 30q86 16 210.5 42.5t291.5 64.5 l7 -13q-12 -531 -12 -548q0 -197 11.5 -371t34.5 -329zM626 166q-14 131 -21.5 270t-7.5 288q0 511 19 558q-36 -10 -117 -27t-209 -43q7 -20 12 -59.5t7 -99.5q8 -149 12.5 -232.5t4.5 -103.5q0 -106 -6.5 -243t-19.5 -310q121 12 193 12q30 0 63 -2.5t70 -7.5z" />
<glyph unicode="P" horiz-adv-x="915" d="M864 1178q0 -42 -2 -102.5t-6 -141.5t-6 -141t-2 -102q0 -11 0.5 -27.5t1.5 -39.5t1.5 -40t0.5 -28q0 -20 -70 -51q-31 -13 -54.5 -20t-39.5 -9q-115 82 -359 82h-5q-2 -23 -4 -74t-6 -132q-4 -64 -5.5 -115.5t-1.5 -91.5q0 -47 -10 -67q-9 -20 -70 -48q-62 -27 -94 -30 q0 22 2.5 74t7.5 136q10 151 14.5 263.5t4.5 190.5q0 119 -1.5 206t-5.5 144q-2 67 -24 194q-29 93 -29 75q0 18 70 49q70 33 94 33q22 0 39 -128q4 3 23 10t260 62q245 56 248 56q4 0 12 -17q16 -49 16 -170zM698 1055q0 118 -22 225q-62 -14 -153.5 -35.5t-215.5 -49.5 q11 -220 15.5 -360t3.5 -204q54 5 100.5 8t88.5 3q98 0 164 -12q0 33 2.5 85.5t7.5 125.5q9 139 9 214z" />
<glyph unicode="Q" horiz-adv-x="935" d="M833 87q-17 -26 -81 -57q-65 -30 -100 -30q-8 0 -9 22q-55 36 -121 51q-48 -159 -114 -235q-20 -21 -73 -47q-51 -25 -88 -28l-3 1v2q20 36 46 90.5t58 128.5q5 17 12.5 43t18.5 61q-50 0 -91.5 -1.5t-75.5 -3.5q-48 -20 -79 -24q0 19 2.5 64t7.5 118q8 118 12.5 213.5 t4.5 170.5q0 132 -18 357q-2 30 -12.5 78t-27.5 115v2q0 13 75 48q76 34 91 30q86 16 210.5 43t291.5 66q-12 -155 -12 -303q0 -28 1.5 -92t5.5 -166q6 -260 12 -352q5 -99 14 -185.5t20 -164.5zM626 166q-14 131 -21.5 274t-7.5 301q0 499 17 541q-104 -29 -324 -72 q7 -20 12 -59.5t7 -99.5q8 -147 12.5 -230.5t4.5 -103.5q0 -106 -6.5 -244t-19.5 -311q54 5 102 7.5t91 2.5q79 0 133 -6z" />
<glyph unicode="R" horiz-adv-x="915" d="M864 1166q0 -40 -2 -99t-6 -139q-4 -79 -6 -138t-2 -99q0 -11 0.5 -28t1.5 -40t1.5 -40t0.5 -28q0 -17 -67 -50q-67 -32 -90 -32q-4 0 -9 1q-100 72 -266 81q32 -122 150 -287q182 -259 258 -311q10 -6 10 -8q0 -14 -68 -47q-66 -32 -92 -37l-9 4q-120 120 -209 234 t-149 225q-2 -116 -12 -248q-14 -26 -75 -51q-30 -13 -91 -29q0 20 2.5 71.5t7.5 136.5q8 136 12.5 245t4.5 194q0 89 -18 418q-1 26 -5 64t-11 90q-7 35 -15.5 51.5t-8.5 12.5q0 18 70 49q70 33 94 33q21 0 38 -128q78 28 251 60q172 31 257 62q21 6 24 6q4 0 12 -17 q16 -51 16 -182zM698 1048q0 121 -22 230q-62 -14 -153.5 -35.5t-215.5 -49.5q11 -220 15.5 -360.5t3.5 -204.5q124 12 189 12q87 0 163 -14q0 34 2.5 86t7.5 124q5 70 7.5 122.5t2.5 89.5z" />
<glyph unicode="S" horiz-adv-x="893" d="M790 364q0 -231 -42 -289q-14 -20 -75 -48q-60 -27 -91 -27q-51 80 -189 80q-22 0 -45 -1.5t-48 -5.5q-5 -20 -69 -45q-63 -25 -96 -28q0 10 1.5 25.5t3.5 37.5t3.5 38t1.5 27q0 19 -11 58t-11 58q0 14 72 46q32 13 55.5 21t37.5 10q23 -46 23 -113q0 -29 -6 -77 q168 33 246 33q16 0 31.5 -1.5t31.5 -3.5q4 35 5.5 71.5t1.5 74.5q0 48 -1.5 103t-5.5 118q-52 41 -182 41q-48 0 -98.5 -3t-104.5 -8q-59 -26 -99 -34v2q0 11 2.5 41t7.5 80q7 69 10.5 134.5t3.5 128.5q0 164 -17 246q-1 12 -21 65q-14 42 -14 64q0 14 67 48t89 34 q32 0 46 -107q336 107 450 107q13 0 21 -3l-6 -6t-11 -9q-65 -53 -72 -128q-3 -97 -24 -128q-17 -26 -75 -50q-16 -7 -38.5 -15t-53.5 -16q3 185 111 277q-51 -11 -126 -27.5t-175 -39.5q8 -78 12 -133t4 -89q0 -127 -24 -368q55 10 124.5 15t155.5 5q125 0 203 -32 q0 -20 1.5 -52t3.5 -75t3.5 -74.5t1.5 -52.5z" />
<glyph unicode="T" horiz-adv-x="790" d="M841 1343q-14 -19 -51 -37q-65 -38 -150 -48q-42 -5 -83 -8.5t-83 -7.5q7 -69 10.5 -135t3.5 -129q0 -168 -24 -406q-10 -102 -20 -203t-21 -203q0 -31 -12 -86q-12 -21 -71 -49t-93 -31q0 3 33 285q39 334 39 613q0 180 -15 326q-215 -21 -323 -21q-21 0 -30 4 q8 25 81 53q60 22 108 30v-1q26 1 65.5 2t93.5 3q23 17 76 42q63 29 82 29q11 0 11 -58q46 5 114 11.5t159 16.5q34 4 99 12z" />
<glyph unicode="U" d="M860 1362q0 6 -2 0.5t-6 -22.5q-1 -28 -9 -82q-4 -30 -9 -74t-13 -104q-39 -344 -39 -633q0 -78 2 -135t6 -95q1 -7 3.5 -24t6.5 -45q9 -41 9 -68q0 -19 -73 -49q-32 -13 -56.5 -21t-41.5 -10q-5 48 -82 77q-57 22 -126 22q-48 0 -123 -12q-20 -23 -78 -54 q-57 -32 -87 -33q5 69 7.5 155t2.5 191q0 303 -10.5 519.5t-30.5 351.5q-9 52 -9 68q0 18 72 50q64 27 94 30q25 -167 37 -346.5t12 -376.5q0 -79 -2 -202.5t-6 -294.5q113 22 191 31t123 7q-9 121 -9 204q0 217 48 669q4 96 27 231q11 20 74 50t90 30q7 -1 7 -5z" />
<glyph unicode="V" horiz-adv-x="899" d="M848 1360q0 -22 -12 -58q-10 -26 -14.5 -40t-5.5 -16q-14 -55 -34.5 -137t-47.5 -193q-25 -88 -60 -217.5t-80 -304.5q-5 -50 -20.5 -120t-41.5 -161q-47 -99 -182 -113q-2 16 -26 147t-68 377q-29 159 -58 289t-58 233q-16 54 -29.5 93.5t-26.5 67.5q-33 73 -33 78 q0 19 71 49q69 31 96 31l6 -8q17 -43 35.5 -93.5t37.5 -109.5q70 -218 157 -736l159 594q8 31 18 76.5t24 107.5q4 35 21 91q13 21 73 49q63 29 91 29q8 0 8 -5z" />
<glyph unicode="W" horiz-adv-x="1277" d="M1174 1362q0 -5 -4 -13.5t-4 -12.5l-7 -58q-26 -253 -39.5 -454t-13.5 -355q0 -79 2 -141.5t6 -110.5q12 -140 12 -133q0 -16 -67 -49q-69 -34 -90 -35q-45 54 -71 70q-41 27 -106 27q-22 0 -43.5 -1.5t-41.5 -5.5q-11 -11 -30 -25t-48 -30q-56 -32 -88 -35q-2 36 -63 69 q-60 33 -106 33q-16 0 -33 -1.5t-34 -3.5q0 -25 -69 -59q-63 -34 -99 -38v53q0 42 1 104.5t3 147.5t3 147t1 104q0 211 -8.5 374.5t-25.5 282.5q-9 57 -9 70q0 17 72 50q66 29 94 32q18 -30 32 -348q7 -127 10.5 -221.5t3.5 -158.5q0 -86 -9 -489q146 41 239 38q6 198 6 375 q0 212 -9 374t-26 277q-6 55 -6 70q0 17 71 49q32 14 55 23t37 11q7 -13 11 -73q16 -241 24 -402.5t8 -249.5q0 -49 -2 -173.5t-6 -328.5q116 40 237 41q-2 54 -3.5 106.5t-1.5 103.5q0 237 27 548q10 87 27 261q0 33 9 87q8 22 72 50q64 30 93 30q7 0 7 -3z" />
<glyph unicode="X" horiz-adv-x="874" d="M823 1360q-65 -194 -291 -630q55 -176 168 -525q44 -129 44 -125q0 -18 -71 -50q-71 -30 -98 -30q-5 0 -5 17l-36 106q-20 63 -49 157t-67 222q-24 -46 -56 -116t-74 -164q-15 -57 -54 -145q-20 -24 -76 -51q-58 -26 -90 -26q4 87 297 654q-121 345 -249 532 q-65 98 -65 96q0 18 70 49q28 13 50.5 21.5t40.5 12.5l6 -3q148 -196 263 -486q86 177 123 274q7 28 20 62.5t33 76.5q20 23 74 48t92 28v-5z" />
<glyph unicode="Y" horiz-adv-x="939" d="M836 1364q0 -57 -15 -144q-20 -128 -21 -141q-17 -161 -26 -330.5t-9 -349.5q0 -204 20 -302q3 -18 3 -17q0 -15 -71 -48q-72 -32 -92 -32q-7 0 -4 17q-55 79 -203 79q-23 0 -51.5 -3t-62.5 -8q-13 -21 -76 -52q-62 -30 -93 -33q0 26 6 77t6 78q0 39 -5 57q-16 39 -16 50 q0 9 70 42q65 28 94 32q24 -24 24 -112q0 -23 -1.5 -43.5t-3.5 -37.5q107 19 180 27.5t115 6.5q-5 76 -7 144.5t-1 129.5q-11 2 -77 27q-65 27 -128 27q-38 0 -82 -2.5t-94 -7.5q-28 -13 -59 -24t-66 -20q0 58 6 175q6 118 6 178q0 105 -5 185.5t-15 140.5q-1 6 -6 24.5 t-13 50.5q-12 46 -12 77q0 17 72 49q32 14 55 23t37 11q22 -28 38 -228q7 -81 10 -143.5t3 -107.5q0 -51 -2 -131t-6 -192q122 28 264 28q14 0 34 -1t45 -3q2 55 12.5 172.5t28.5 300.5q2 93 27 223q14 23 72 50q60 28 90 32z" />
<glyph unicode="Z" horiz-adv-x="908" d="M836 208q0 -97 -15 -128q-11 -21 -72 -49q-31 -14 -53.5 -22t-38.5 -9q-87 145 -285 145q-18 0 -36 -6.5t-34.5 -16.5t-33 -22t-31.5 -23q-11 -21 -74 -50q-62 -27 -91 -27q1 8 5 22t12 34q64 174 222 485q-38 -10 -95.5 -19t-135.5 -19q57 64 266 99q220 428 306 659 q-119 -17 -345 -66q0 -6 0.5 -15.5t1.5 -22.5v-37q0 -47 -8 -69q-8 -21 -72 -49q-32 -14 -56 -22t-40 -9q0 12 1 30t3 43t3.5 44t1.5 32q0 14 -1.5 34t-3.5 46q-2 27 -3 47.5t-1 34.5q0 19 72 51q32 16 56 23.5t38 8.5q2 -23 4 -57.5t4 -82.5q62 23 128.5 41.5t139.5 32.5 l10 1q23 3 55.5 9.5t74.5 16.5q33 20 106 39l2 -3q-1 -41 -86 -225t-254 -512l111 24q67 15 113 15q5 0 9 -0.5t8 -1.5q-8 -11 -35 -25q-65 -37 -114 -50q-10 -2 -40.5 -8t-82.5 -14q-61 -119 -109 -225.5t-84 -202.5q172 92 294 92q57 0 114 -22q1 48 1.5 87t0.5 70 q0 18 77 51q16 7 38.5 14t51.5 15v-236z" />
<glyph unicode="[" horiz-adv-x="877" d="M724 1362q-35 -44 -169 -89l-98 -28t-100 -28q10 -134 15 -253.5t5 -227.5q0 -109 -6 -261t-19 -350q139 32 198 32q88 0 136 -53q17 -20 17 -25q0 -20 -69 -48q-35 -14 -59.5 -22t-40.5 -9q-44 72 -143 72q-8 0 -18.5 -1t-24.5 -3q-19 -19 -78 -43q-29 -11 -50.5 -17.5 t-36.5 -7.5q0 -10 3 41.5t10 165.5q12 193 12 438q0 111 -15 410q0 49 -12 148q-27 103 -27 80q0 18 70 49q70 33 93 33q18 0 35 -119q302 116 367 119z" />
<glyph unicode="\" horiz-adv-x="860" d="M809 80q0 -18 -71 -50q-71 -30 -96 -30q-14 0 -16 20q-1 7 -1 14v14q0 3 -19 48q-17 43 -42 98.5t-59 124.5q-52 105 -129 260t-180 366q-21 49 -53 122t-75 172q-17 39 -17 46q0 19 70 49q69 29 97 31q57 -154 137 -319q51 -105 127.5 -260t179.5 -366 q22 -49 53.5 -121.5t74.5 -170.5q19 -38 19 -48z" />
<glyph unicode="]" horiz-adv-x="857" d="M703 1364q-15 -16 -37 -28q-41 -112 -41 -507q0 -155 3.5 -287.5t10.5 -244.5q15 -224 15 -215q0 -17 -70 -48q-68 -31 -94 -34q-48 85 -150 85q-33 0 -94 -15q-60 -14 -91 -15l-1 5q31 40 146 75q98 28 174 32q-8 156 -12.5 276.5t-4.5 208.5q0 509 48 625 q-77 -16 -232 -69q-72 -32 -85 -32q-1 0 -7 2q7 34 235 112q219 75 279 75q6 0 8 -1z" />
<glyph unicode="^" horiz-adv-x="993" d="M840 746q0 -17 -70 -50q-72 -32 -96 -32l-2 2q-14 12 -87 223q-86 246 -90 258l-116 -273q-17 -47 -60 -125q-12 -18 -75 -47q-60 -28 -89 -28q-1 0 -1 2q0 3 10 20q7 13 20.5 42.5t33.5 75.5q23 57 59 141t85 197q10 24 27 57.5t43 77.5q13 18 72 46q63 29 88 32 q20 -37 72 -169q22 -56 53 -138t73 -193q50 -129 50 -119z" />
<glyph unicode="_" horiz-adv-x="922" d="M922 0h-922v85h922v-85z" />
<glyph unicode="`" horiz-adv-x="654" d="M500 1531q-1 -15 -71 -48q-70 -32 -91 -32q-4 0 -44 70q-44 80 -139 242q-1 1 -1 3q0 22 63 51q62 28 94 28q24 0 99 -145q42 -81 64 -123t26 -46z" />
<glyph unicode="a" d="M860 80q0 -17 -71 -49q-69 -31 -94 -31q-7 0 -7 5q0 4 2.5 9t2.5 8q0 -4 -21 142q-9 64 -15 157t-10 218q-111 -47 -336 -129q-8 -82 -17.5 -165.5t-20.5 -169.5q-20 -23 -79 -48q-58 -25 -92 -27q11 41 40 302q17 182 26 330.5t9 266.5q0 111 -6 198q-8 88 -12.5 134.5 t-4.5 53.5q0 18 71 50q61 25 96 30q8 -65 12.5 -102t4.5 -48q40 5 119 21q23 5 67.5 22.5t113.5 48.5q61 26 104.5 41t69.5 17q9 -17 9 -30q0 14 -1.5 -28.5t-3.5 -142.5t-3 -190t-1 -172q0 -418 40 -654q4 -26 6 -43t2 -25zM655 1278q-51 -21 -129.5 -50t-184.5 -66 q2 -35 3.5 -80t1.5 -102q0 -239 -27 -504l17.5 -3.5t13.5 -1.5q63 0 297 99q-1 48 -1.5 85.5t-0.5 66.5q0 40 0.5 100.5t1.5 141.5t1.5 141.5t0.5 101.5q0 44 6 71z" />
<glyph unicode="b" horiz-adv-x="1017" d="M915 613q0 -24 -8.5 -113t-25.5 -244q-1 -65 -23 -171q-11 -23 -75 -54q-62 -31 -90 -31q10 0 -101 24q-128 27 -220 27q-112 0 -205 -32q-10 -5 -26 -9.5t-39 -9.5v3q0 6 4.5 14.5t4.5 13.5l14 218q8 125 12.5 252.5t4.5 259.5q0 181 -9 277q-11 132 -16.5 192.5 t-5.5 52.5q0 18 72 50q63 28 93 32q5 -46 9.5 -84t8.5 -68q23 9 59 21.5t86 28.5q31 10 98 29t173 48q18 6 45 12t62 13q-8 -17 -17.5 -42.5t-22.5 -59.5q-38 -103 -38 -217q0 -98 27 -240q26 -11 69 -10q23 1 39 -0.5t25 -3.5q16 -71 16 -179zM645 1280q-61 -26 -148 -54 t-202 -59q7 -97 10.5 -179t3.5 -150q0 -19 -1.5 -73t-3.5 -145q158 98 290 138q-11 60 -16.5 111.5t-5.5 96.5q0 192 73 314zM748 553q0 10 -1.5 24.5t-3.5 33.5q-2 20 -3 33.5t-1 21.5q0 21 -2 27q-3 10 -18.5 17t-35.5 7q-16 0 -77 -12q-110 -21 -162 -46 q-36 -19 -71 -37.5t-69 -37.5q-2 -48 -5.5 -117t-8.5 -163q0 -36 -3.5 -89t-10.5 -125q125 41 274 41q75 0 153 -12q45 349 45 434z" />
<glyph unicode="c" horiz-adv-x="915" d="M812 188q0 -77 -20 -109q-14 -23 -75 -50q-61 -28 -92 -29q-64 79 -203 79q-52 0 -142 -18q-86 -57 -149 -61q-5 3 -5 7q0 -9 5 13q1 10 12 204q8 155 12.5 273.5t4.5 205.5q0 205 -6 312q-2 35 -9 85.5t-19 118.5q-12 31 -24 66q0 17 70 48q66 29 93 32q25 -12 34 -109 q180 67 491 109l7 -3q0 -2 -17 -14q-53 -41 -65 -83q-5 -19 -8 -96q0 -43 -23 -77q-16 -23 -78 -49q-17 -7 -40 -15t-52 -16q1 181 111 273q-55 -10 -135 -27t-186 -41q11 -159 16.5 -278.5t5.5 -201.5q0 -143 -5.5 -294.5t-16.5 -316.5q190 36 287 36q25 0 54 -3 q-3 28 -27 116q-17 73 -17 118q0 17 71 49q62 26 94 34q2 -4 5.5 -25.5t8.5 -59.5q1 -10 6 -34.5t14 -66.5q12 -63 12 -102z" />
<glyph unicode="d" horiz-adv-x="969" d="M867 995q0 -58 -2.5 -144.5t-7.5 -203.5t-7.5 -203.5t-2.5 -144.5q0 -18 0.5 -45t1.5 -63q3 -72 3 -107q0 -19 -64 -49q-66 -31 -95 -35q-14 14 -34 33.5t-46 45.5q-60 51 -265 51h-44v-17q0 -21 -5 -33q-10 -22 -72 -49q-30 -13 -53.5 -21t-40.5 -10q-7 3 -7 7 q0 -7 7 15q2 11 12 203q15 283 15 574q0 328 -34 418q-24 67 -24 65q0 18 72 51q66 29 96 32q34 -47 39 -201q75 28 185.5 70.5t259.5 100.5q77 32 89 30q24 -56 24 -370zM698 915q0 100 -5 189t-15 169q-11 -3 -369 -138q8 -141 12.5 -238t4.5 -153q0 -29 -4.5 -166 t-12.5 -382q42 8 87.5 12.5t96.5 4.5q107 0 185 -20q0 60 2.5 149.5t7.5 210.5t7.5 211t2.5 151z" />
<glyph unicode="e" horiz-adv-x="915" d="M812 186q0 -77 -20 -109q-11 -18 -75 -47q-61 -28 -89 -30q-64 79 -205 79q-22 0 -57.5 -4.5t-85.5 -14.5q-83 -56 -149 -60q2 38 5 93.5t7 130.5q8 149 12.5 254.5t4.5 171.5q0 46 -4.5 149t-12.5 266q0 26 -4.5 64t-12.5 90q-12 30 -24 63q0 18 70 49q63 31 93 34 q25 -16 34 -111q204 75 399 105q46 6 61 6h14q10 0 24 -1q-1 -3 -17 -16q-57 -48 -67 -88q-2 -24 -3 -48.5t-3 -49.5q-1 -36 -23 -70q-16 -23 -76 -49q-27 -11 -89 -31q1 183 109 277q-54 -11 -134 -29.5t-189 -44.5q21 -288 21 -483q10 0 23.5 -1.5t32.5 -3.5t33.5 -3.5 t24.5 -1.5q23 0 56.5 2t79.5 6q91 9 137 9q-12 -18 -51 -41q-56 -32 -109 -41q-38 -6 -94.5 -10.5t-132.5 -8.5q-2 -123 -8 -250.5t-14 -261.5q190 36 278 36q14 0 30 -1.5t33 -3.5q-3 23 -24 118q-8 37 -12.5 66.5t-4.5 52.5q0 17 70 48q35 16 58.5 23.5t35.5 8.5 q1 -5 4.5 -25.5t9.5 -57.5q30 -195 30 -205z" />
<glyph unicode="f" horiz-adv-x="847" d="M795 1364q-3 -5 -17 -17q-47 -43 -61 -75q-12 -32 -12 -90q0 -60 -21 -88q-20 -30 -75 -52q-54 -23 -94 -30q5 184 111 275q-54 -11 -134 -28t-188 -42q11 -165 16.5 -290.5t5.5 -214.5q175 37 430 37l2 -3q-11 -18 -73 -50q-60 -30 -88 -30q-54 0 -121.5 -4.5 t-151.5 -12.5q-11 -549 -28 -574q-18 -25 -74 -51q-56 -24 -96 -24q24 106 24 222q0 71 3 217q2 73 3 127t1 89q0 69 -15 410q0 26 -4.5 65t-12.5 90q-23 74 -23 65q0 18 72 50q63 27 94 30q28 -37 32 -109q231 85 461 109q12 -3 34 -1z" />
<glyph unicode="g" horiz-adv-x="961" d="M858 497q-14 -20 -42 -34q5 -58 7.5 -106t2.5 -86q0 -142 -34 -186q-15 -23 -70 -51q-28 -14 -49.5 -23t-37.5 -11q-6 2 -34 32q-55 55 -178 55q-48 0 -143 -19q-90 -60 -149 -68q-1 5 -1 9v6q0 -7 2.5 8.5t7.5 53.5q1 26 2 64t3 89q12 304 12 419q0 41 -1.5 93t-3.5 116 q-5 87 -7 139t-3 71q1 52 -12 154q-4 10 -10.5 25.5t-17.5 37.5q9 22 70 49q60 28 96 31q26 -35 32 -112q306 112 478 112q9 0 17 -6l-6 -6t-11 -10q-70 -60 -70 -150v-24q0 -89 -100 -131q-55 -23 -93 -31q4 184 111 276q-54 -10 -133.5 -27.5t-187.5 -42.5 q21 -261 21 -474q0 -306 -21 -604q193 36 275 36q20 0 40 -1.5t39 -5.5v36q0 39 -9 116q-4 39 -6 68t-2 48q-29 10 -78 25t-120 36q15 19 73 49q58 31 84 31q19 0 257 -76z" />
<glyph unicode="h" horiz-adv-x="966" d="M864 80q0 -20 -69 -48q-69 -29 -99 -32l-22 162q-10 69 -16 164.5t-9 219.5q-110 -44 -333 -123q-8 -85 -18.5 -170.5t-21.5 -173.5q-22 -31 -77 -55q-54 -24 -97 -24q13 46 41 316q20 189 30 337.5t10 259.5q0 84 -3 146.5t-8 104.5q-15 115 -15 121q0 18 72 50 q59 24 95 30q24 -204 24 -387q0 -230 -27 -495q16 -3 29 -3q66 0 299 99q0 693 8 704q60 69 169 81l5 -2q-10 -37 -10 -171q0 -63 -3 -190q-1 -64 -1.5 -111t-0.5 -79q0 -132 4.5 -254t12.5 -236q2 -28 7 -70.5t12 -100.5q12 -62 12 -70z" />
<glyph unicode="i" horiz-adv-x="408" d="M305 838q0 -48 -2.5 -147t-7.5 -252q-12 -339 -20 -352q-20 -26 -75 -54q-56 -29 -94 -33q-4 4 -4 9q0 -6 1.5 0t5.5 23q1 8 4.5 66.5t9.5 167.5q8 155 12.5 277t4.5 215q0 149 -15 346q-1 19 -3.5 48t-7.5 67q-4 29 -6 46t-2 22q0 19 71 48q60 24 98 30q30 -261 30 -527 z" />
<glyph unicode="j" horiz-adv-x="877" d="M775 1101q0 -136 -9 -404q-4 -135 -6 -235.5t-2 -167.5v-45t1 -62t1.5 -62t0.5 -45q0 -15 -70 -46q-69 -31 -97 -34q-140 171 -329 171q-14 0 -31 -4v-32q0 -39 -7 -53q-9 -23 -72 -51q-52 -23 -92 -31q0 8 0.5 23t1.5 37v58q0 23 -1.5 57.5t-5.5 81.5t-5.5 81.5 t-1.5 57.5q0 17 74 49q34 14 57 22t36 9q11 -46 14 -266q114 49 190 49q86 0 169 -39q0 54 2.5 138.5t7.5 202.5q4 114 5.5 199t1.5 143q0 83 -3 148.5t-8 114.5q-12 117 -12 119q0 15 71 47q70 31 95 33q24 -65 24 -264z" />
<glyph unicode="k" horiz-adv-x="932" d="M881 7q-35 -53 -164 -80q-14 15 -75 160q-123 289 -318 461q-4 -114 -10 -230.5t-15 -237.5q-56 -65 -166 -80l12 225q9 171 9 328q0 92 -6 274q-6 181 -6 274q0 82 -16 121q-24 67 -24 63q0 20 70 48q28 12 51 20t43 12q34 -27 43 -245q7 -98 15 -294q93 143 145 222 t65 97q172 216 306 220q-2 -5 -21 -18q-93 -74 -295 -402q-18 -29 -36 -59l-36 -60q-52 -79 -87 -106q184 -116 318 -324q38 -60 87 -156t111 -233z" />
<glyph unicode="l" horiz-adv-x="920" d="M869 251q0 -150 -13 -170q-13 -21 -71 -49q-60 -28 -92 -32q-8 10 -19.5 24.5t-28.5 33.5q-102 111 -338 149v-60q0 -49 -10 -69q-9 -20 -70 -48q-62 -27 -96 -30q13 251 19.5 412.5t6.5 236.5q0 64 -15 411q0 26 -4.5 65.5t-12.5 93.5q-23 72 -23 63q0 18 66 48 q67 31 95 35q35 -24 46 -237q8 -171 12.5 -268t4.5 -123q0 -171 -15 -433q229 0 389 -82v140q0 17 68 49q67 33 92 33q1 0 7 -2q1 -61 1.5 -108.5t0.5 -82.5z" />
<glyph unicode="m" horiz-adv-x="1270" d="M1167 80q0 -19 -68 -48q-69 -29 -97 -32l-19 164q-11 106 -16.5 248t-5.5 322q0 43 0.5 106.5t1.5 150.5q3 172 3 258q0 17 3 29q-39 -19 -99 -44.5t-141 -59.5q-2 -146 -3.5 -236.5t-1.5 -128.5q0 -277 15 -497q9 -105 17.5 -160.5t8.5 -71.5q0 -20 -70 -48 q-72 -29 -99 -32l-16 162q-13 123 -19 264t-6 303q0 58 3 177q3 118 3 178q0 12 0.5 29.5t1.5 40.5t1.5 40.5t0.5 29.5q0 14 -0.5 27.5t-1.5 25.5q-78 -38 -237 -105q2 -59 3.5 -106.5t1.5 -84.5q0 -165 -48 -786q-2 -25 -5 -54t-8 -61q-11 -22 -71 -49q-29 -13 -53.5 -21 t-43.5 -10q5 38 13 114t18 193q33 364 33 594q0 75 -3 139t-8 119q-12 130 -12 128q0 19 72 48q59 24 94 30q8 -51 15 -146q14 3 35.5 7.5t50.5 10.5q48 13 157 69q103 53 158 59q11 -2 11 -12q0 -11 -1 -27.5t-3 -39.5q-3 -44 -3 -66q14 4 36 8.5t51 10.5q23 6 62 23t95 45 q101 52 157 58q7 -7 7 -22q0 -90 -6 -265q-2 -88 -3.5 -153.5t-1.5 -110.5q0 -142 4.5 -266.5t12.5 -235.5q7 -105 15.5 -160.5t8.5 -71.5z" />
<glyph unicode="n" horiz-adv-x="959" d="M857 82q0 -17 -70 -48q-55 -25 -91 -34q-12 17 -17 70q-19 217 -28 381t-9 278q0 46 1.5 114.5t3.5 159.5q2 92 3.5 160t1.5 114q-51 -20 -129.5 -48.5t-184.5 -64.5q3 -72 3 -183q0 -78 -6 -179t-19 -229q-16 -158 -25 -259.5t-13 -147.5q0 -33 -10 -86q-10 -22 -73 -49 q-28 -13 -51 -21t-42 -10q0 16 33 288q39 325 39 649q0 56 -1.5 98.5t-5.5 73.5q-8 94 -12.5 138t-4.5 40q0 19 72 49q60 23 95 31q7 -34 10.5 -71.5t3.5 -80.5q20 4 50.5 9t70.5 13q39 9 185 69q130 52 172 54l8 -5l-8 -546q0 -408 39 -657q9 -53 9 -70z" />
<glyph unicode="o" horiz-adv-x="935" d="M833 87q-17 -24 -83 -56q-65 -31 -98 -31q-8 0 -9 24q-102 66 -305 66q-30 0 -61.5 -1.5t-64.5 -3.5q-48 -22 -79 -25q0 19 2.5 64.5t7.5 119.5q8 118 12.5 236.5t4.5 238.5q0 312 -29 390q-1 2 -5 10.5t-12 22.5q-12 19 -12 34t73 52t93 30q86 16 210.5 42.5t291.5 64.5 l7 -13q-12 -531 -12 -548q0 -197 11.5 -371t34.5 -329zM626 166q-14 131 -21.5 270t-7.5 288q0 511 19 558q-36 -10 -117 -27t-209 -43q7 -20 12 -59.5t7 -99.5q8 -149 12.5 -232.5t4.5 -103.5q0 -106 -6.5 -243t-19.5 -310q121 12 193 12q30 0 63 -2.5t70 -7.5z" />
<glyph unicode="p" horiz-adv-x="915" d="M864 1178q0 -42 -2 -102.5t-6 -141.5t-6 -141t-2 -102q0 -11 0.5 -27.5t1.5 -39.5t1.5 -40t0.5 -28q0 -20 -70 -51q-31 -13 -54.5 -20t-39.5 -9q-115 82 -359 82h-5q-2 -23 -4 -74t-6 -132q-4 -64 -5.5 -115.5t-1.5 -91.5q0 -47 -10 -67q-9 -20 -70 -48q-62 -27 -94 -30 q0 22 2.5 74t7.5 136q10 151 14.5 263.5t4.5 190.5q0 119 -1.5 206t-5.5 144q-2 67 -24 194q-29 93 -29 75q0 18 70 49q70 33 94 33q22 0 39 -128q4 3 23 10t260 62q245 56 248 56q4 0 12 -17q16 -49 16 -170zM698 1055q0 118 -22 225q-62 -14 -153.5 -35.5t-215.5 -49.5 q11 -220 15.5 -360t3.5 -204q54 5 100.5 8t88.5 3q98 0 164 -12q0 33 2.5 85.5t7.5 125.5q9 139 9 214z" />
<glyph unicode="q" horiz-adv-x="935" d="M833 87q-17 -26 -81 -57q-65 -30 -100 -30q-8 0 -9 22q-55 36 -121 51q-48 -159 -114 -235q-20 -21 -73 -47q-51 -25 -88 -28l-3 1v2q20 36 46 90.5t58 128.5q5 17 12.5 43t18.5 61q-50 0 -91.5 -1.5t-75.5 -3.5q-48 -20 -79 -24q0 19 2.5 64t7.5 118q8 118 12.5 213.5 t4.5 170.5q0 132 -18 357q-2 30 -12.5 78t-27.5 115v2q0 13 75 48q76 34 91 30q86 16 210.5 43t291.5 66q-12 -155 -12 -303q0 -28 1.5 -92t5.5 -166q6 -260 12 -352q5 -99 14 -185.5t20 -164.5zM626 166q-14 131 -21.5 274t-7.5 301q0 499 17 541q-104 -29 -324 -72 q7 -20 12 -59.5t7 -99.5q8 -147 12.5 -230.5t4.5 -103.5q0 -106 -6.5 -244t-19.5 -311q54 5 102 7.5t91 2.5q79 0 133 -6z" />
<glyph unicode="r" horiz-adv-x="915" d="M864 1166q0 -40 -2 -99t-6 -139q-4 -79 -6 -138t-2 -99q0 -11 0.5 -28t1.5 -40t1.5 -40t0.5 -28q0 -17 -67 -50q-67 -32 -90 -32q-4 0 -9 1q-100 72 -266 81q32 -122 150 -287q182 -259 258 -311q10 -6 10 -8q0 -14 -68 -47q-66 -32 -92 -37l-9 4q-120 120 -209 234 t-149 225q-2 -116 -12 -248q-14 -26 -75 -51q-30 -13 -91 -29q0 20 2.5 71.5t7.5 136.5q8 136 12.5 245t4.5 194q0 89 -18 418q-1 26 -5 64t-11 90q-7 35 -15.5 51.5t-8.5 12.5q0 18 70 49q70 33 94 33q21 0 38 -128q78 28 251 60q172 31 257 62q21 6 24 6q4 0 12 -17 q16 -51 16 -182zM698 1048q0 121 -22 230q-62 -14 -153.5 -35.5t-215.5 -49.5q11 -220 15.5 -360.5t3.5 -204.5q124 12 189 12q87 0 163 -14q0 34 2.5 86t7.5 124q5 70 7.5 122.5t2.5 89.5z" />
<glyph unicode="s" horiz-adv-x="893" d="M790 364q0 -231 -42 -289q-14 -20 -75 -48q-60 -27 -91 -27q-51 80 -189 80q-22 0 -45 -1.5t-48 -5.5q-5 -20 -69 -45q-63 -25 -96 -28q0 10 1.5 25.5t3.5 37.5t3.5 38t1.5 27q0 19 -11 58t-11 58q0 14 72 46q32 13 55.5 21t37.5 10q23 -46 23 -113q0 -29 -6 -77 q168 33 246 33q16 0 31.5 -1.5t31.5 -3.5q4 35 5.5 71.5t1.5 74.5q0 48 -1.5 103t-5.5 118q-52 41 -182 41q-48 0 -98.5 -3t-104.5 -8q-59 -26 -99 -34v2q0 11 2.5 41t7.5 80q7 69 10.5 134.5t3.5 128.5q0 164 -17 246q-1 12 -21 65q-14 42 -14 64q0 14 67 48t89 34 q32 0 46 -107q336 107 450 107q13 0 21 -3l-6 -6t-11 -9q-65 -53 -72 -128q-3 -97 -24 -128q-17 -26 -75 -50q-16 -7 -38.5 -15t-53.5 -16q3 185 111 277q-51 -11 -126 -27.5t-175 -39.5q8 -78 12 -133t4 -89q0 -127 -24 -368q55 10 124.5 15t155.5 5q125 0 203 -32 q0 -20 1.5 -52t3.5 -75t3.5 -74.5t1.5 -52.5z" />
<glyph unicode="t" horiz-adv-x="790" d="M841 1343q-14 -19 -51 -37q-65 -38 -150 -48q-42 -5 -83 -8.5t-83 -7.5q7 -69 10.5 -135t3.5 -129q0 -168 -24 -406q-10 -102 -20 -203t-21 -203q0 -31 -12 -86q-12 -21 -71 -49t-93 -31q0 3 33 285q39 334 39 613q0 180 -15 326q-215 -21 -323 -21q-21 0 -30 4 q8 25 81 53q60 22 108 30v-1q26 1 65.5 2t93.5 3q23 17 76 42q63 29 82 29q11 0 11 -58q46 5 114 11.5t159 16.5q34 4 99 12z" />
<glyph unicode="u" d="M860 1362q0 6 -2 0.5t-6 -22.5q-1 -28 -9 -82q-4 -30 -9 -74t-13 -104q-39 -344 -39 -633q0 -78 2 -135t6 -95q1 -7 3.5 -24t6.5 -45q9 -41 9 -68q0 -19 -73 -49q-32 -13 -56.5 -21t-41.5 -10q-5 48 -82 77q-57 22 -126 22q-48 0 -123 -12q-20 -23 -78 -54 q-57 -32 -87 -33q5 69 7.5 155t2.5 191q0 303 -10.5 519.5t-30.5 351.5q-9 52 -9 68q0 18 72 50q64 27 94 30q25 -167 37 -346.5t12 -376.5q0 -79 -2 -202.5t-6 -294.5q113 22 191 31t123 7q-9 121 -9 204q0 217 48 669q4 96 27 231q11 20 74 50t90 30q7 -1 7 -5z" />
<glyph unicode="v" horiz-adv-x="899" d="M848 1360q0 -22 -12 -58q-10 -26 -14.5 -40t-5.5 -16q-14 -55 -34.5 -137t-47.5 -193q-25 -88 -60 -217.5t-80 -304.5q-5 -50 -20.5 -120t-41.5 -161q-47 -99 -182 -113q-2 16 -26 147t-68 377q-29 159 -58 289t-58 233q-16 54 -29.5 93.5t-26.5 67.5q-33 73 -33 78 q0 19 71 49q69 31 96 31l6 -8q17 -43 35.5 -93.5t37.5 -109.5q70 -218 157 -736l159 594q8 31 18 76.5t24 107.5q4 35 21 91q13 21 73 49q63 29 91 29q8 0 8 -5z" />
<glyph unicode="w" horiz-adv-x="1277" d="M1174 1362q0 -5 -4 -13.5t-4 -12.5l-7 -58q-26 -253 -39.5 -454t-13.5 -355q0 -79 2 -141.5t6 -110.5q12 -140 12 -133q0 -16 -67 -49q-69 -34 -90 -35q-45 54 -71 70q-41 27 -106 27q-22 0 -43.5 -1.5t-41.5 -5.5q-11 -11 -30 -25t-48 -30q-56 -32 -88 -35q-2 36 -63 69 q-60 33 -106 33q-16 0 -33 -1.5t-34 -3.5q0 -25 -69 -59q-63 -34 -99 -38v53q0 42 1 104.5t3 147.5t3 147t1 104q0 211 -8.5 374.5t-25.5 282.5q-9 57 -9 70q0 17 72 50q66 29 94 32q18 -30 32 -348q7 -127 10.5 -221.5t3.5 -158.5q0 -86 -9 -489q146 41 239 38q6 198 6 375 q0 212 -9 374t-26 277q-6 55 -6 70q0 17 71 49q32 14 55 23t37 11q7 -13 11 -73q16 -241 24 -402.5t8 -249.5q0 -49 -2 -173.5t-6 -328.5q116 40 237 41q-2 54 -3.5 106.5t-1.5 103.5q0 237 27 548q10 87 27 261q0 33 9 87q8 22 72 50q64 30 93 30q7 0 7 -3z" />
<glyph unicode="x" horiz-adv-x="874" d="M823 1360q-65 -194 -291 -630q55 -176 168 -525q44 -129 44 -125q0 -18 -71 -50q-71 -30 -98 -30q-5 0 -5 17l-36 106q-20 63 -49 157t-67 222q-24 -46 -56 -116t-74 -164q-15 -57 -54 -145q-20 -24 -76 -51q-58 -26 -90 -26q4 87 297 654q-121 345 -249 532 q-65 98 -65 96q0 18 70 49q28 13 50.5 21.5t40.5 12.5l6 -3q148 -196 263 -486q86 177 123 274q7 28 20 62.5t33 76.5q20 23 74 48t92 28v-5z" />
<glyph unicode="y" horiz-adv-x="939" d="M836 1364q0 -57 -15 -144q-20 -128 -21 -141q-17 -161 -26 -330.5t-9 -349.5q0 -204 20 -302q3 -18 3 -17q0 -15 -71 -48q-72 -32 -92 -32q-7 0 -4 17q-55 79 -203 79q-23 0 -51.5 -3t-62.5 -8q-13 -21 -76 -52q-62 -30 -93 -33q0 26 6 77t6 78q0 39 -5 57q-16 39 -16 50 q0 9 70 42q65 28 94 32q24 -24 24 -112q0 -23 -1.5 -43.5t-3.5 -37.5q107 19 180 27.5t115 6.5q-5 76 -7 144.5t-1 129.5q-11 2 -77 27q-65 27 -128 27q-38 0 -82 -2.5t-94 -7.5q-28 -13 -59 -24t-66 -20q0 58 6 175q6 118 6 178q0 105 -5 185.5t-15 140.5q-1 6 -6 24.5 t-13 50.5q-12 46 -12 77q0 17 72 49q32 14 55 23t37 11q22 -28 38 -228q7 -81 10 -143.5t3 -107.5q0 -51 -2 -131t-6 -192q122 28 264 28q14 0 34 -1t45 -3q2 55 12.5 172.5t28.5 300.5q2 93 27 223q14 23 72 50q60 28 90 32z" />
<glyph unicode="z" horiz-adv-x="908" d="M836 208q0 -97 -15 -128q-11 -21 -72 -49q-31 -14 -53.5 -22t-38.5 -9q-87 145 -285 145q-18 0 -36 -6.5t-34.5 -16.5t-33 -22t-31.5 -23q-11 -21 -74 -50q-62 -27 -91 -27q1 8 5 22t12 34q64 174 222 485q-38 -10 -95.5 -19t-135.5 -19q57 64 266 99q220 428 306 659 q-119 -17 -345 -66q0 -6 0.5 -15.5t1.5 -22.5v-37q0 -47 -8 -69q-8 -21 -72 -49q-32 -14 -56 -22t-40 -9q0 12 1 30t3 43t3.5 44t1.5 32q0 14 -1.5 34t-3.5 46q-2 27 -3 47.5t-1 34.5q0 19 72 51q32 16 56 23.5t38 8.5q2 -23 4 -57.5t4 -82.5q62 23 128.5 41.5t139.5 32.5 l10 1q23 3 55.5 9.5t74.5 16.5q33 20 106 39l2 -3q-1 -41 -86 -225t-254 -512l111 24q67 15 113 15q5 0 9 -0.5t8 -1.5q-8 -11 -35 -25q-65 -37 -114 -50q-10 -2 -40.5 -8t-82.5 -14q-61 -119 -109 -225.5t-84 -202.5q172 92 294 92q57 0 114 -22q1 48 1.5 87t0.5 70 q0 18 77 51q16 7 38.5 14t51.5 15v-236z" />
<glyph unicode="{" horiz-adv-x="952" d="M799 84q-8 -22 -75 -53q-66 -31 -93 -31q-138 0 -223 58q-94 63 -94 176q0 54 58 130q58 77 58 122q0 29 -22 57q-39 48 -112 58q-36 5 -71.5 9.5t-70.5 9.5q8 17 69 50t82 33q10 0 23.5 -1t32.5 -3q37 -3 57 -3q12 0 23 0.5t22 1.5q6 19 6 31q0 72 -107 187 q-106 115 -106 171q0 97 160 191q148 87 270 87q43 0 72 -6l1 -4q-7 -14 -71 -49q-62 -33 -82 -33q-7 0 -17.5 2t-22 4t-22.5 4t-18 2q-8 0 -18 -1.5t-23 -3.5q-62 -59 -62 -119q0 -51 105 -166q105 -116 105 -189q0 -76 -131 -135q90 -29 90 -106q0 -48 -56 -128 q-55 -79 -55 -133q0 -109 96 -167q88 -53 222 -53z" />
<glyph unicode="|" horiz-adv-x="510" d="M357 838q0 -48 -3 -147t-8 -252q-10 -339 -20 -352q-20 -26 -75 -54q-56 -29 -94 -33q-3 4 -3 9q0 -12 6 23q1 8 4.5 66.5t9.5 167.5q8 155 12.5 277t4.5 215q0 149 -15 346q-1 19 -3.5 48t-6.5 67q-9 58 -9 68q0 19 72 48q58 24 97 30q16 -131 23.5 -262t7.5 -265z" />
<glyph unicode="}" horiz-adv-x="951" d="M797 742q-9 -15 -71 -48q-62 -32 -83 -32q-9 0 -22.5 0.5t-32.5 1.5t-32.5 1.5t-23.5 0.5q-14 0 -25.5 -0.5t-21.5 -1.5q-1 -5 -1.5 -12.5t-0.5 -18.5q0 -74 106 -187q107 -113 107 -170q0 -98 -162 -189q-152 -87 -271 -87q-51 0 -72 12q4 15 67 47q63 33 83 33 q8 0 19.5 -1t26.5 -3q16 -2 27 -3t18 -1h18t14 1q65 60 65 116q0 51 -106 167t-106 190q0 73 134 135q-94 31 -94 104q0 48 56 128t56 135q0 107 -97 167q-85 55 -218 55q6 19 73 50q67 33 94 33q135 0 223 -59q93 -65 93 -176q0 -53 -58 -132q-57 -78 -57 -122 q0 -29 22 -55q35 -42 115 -56q34 -5 68 -10.5t68 -10.5z" />
<glyph unicode="~" horiz-adv-x="1292" d="M1138 1201q0 -151 -165 -259q-140 -90 -246 -90q-82 0 -121 68q-14 32 -28 63t-28 63q-41 68 -120 68q-55 -52 -94 -139q-2 -7 -6.5 -17t-10.5 -24q-8 -18 -72 -48q-64 -29 -87 -29q-6 0 -6 5q0 2 17 41q63 142 216 225q124 67 207 67q82 0 121 -65l28 -60t27 -61 q37 -68 117 -72q55 59 76 142q2 16 10 42q7 19 71 49q65 32 91 33z" />
<glyph unicode="&#xa1;" horiz-adv-x="618" d="M464 1143q0 -10 -72 -46q-72 -35 -87 -35q-31 0 -151 52q7 16 71 48q63 33 84 33q18 0 87 -23q68 -23 68 -29zM382 927q0 4 -1.5 0t-3.5 -17q-5 -14 -15 -171q-8 -117 -12 -218.5t-4 -189.5q0 -87 3.5 -158t10.5 -129q8 -64 12.5 -96.5t4.5 -34.5q0 -17 -67 -47 q-67 -31 -95 -35q-14 15 -27 198q-5 75 -8 130t-3 92q0 32 3.5 111t10.5 206q13 270 21 282q11 21 74 52q61 30 91 30q5 0 5 -5z" />
<glyph unicode="&#xa2;" horiz-adv-x="1005" d="M852 1195q-28 -51 -33 -58q-13 -32 -13 -62q0 -26 -11 -87q-8 -17 -72 -47q-65 -30 -88 -30q-7 0 -7 7q0 -3 7 26q2 22 4 43.5t4 42.5q6 42 41 91q-81 -10 -244 -39q-9 -2 -29 -5.5t-51 -8.5q8 -70 12.5 -123t4.5 -88q0 -62 -6 -147t-19 -195q131 24 322 17q0 7 -1.5 18 t-3.5 27t-3.5 28.5t-1.5 20.5q0 16 69 49q70 34 95 35l5 -2q4 -17 6 -55.5t2 -99.5q0 -48 -4 -63q-5 -18 -67 -49q-61 -31 -87 -31h-6q-3 0 -8 1q-39 27 -85 34v-41q0 -52 -9 -80q-4 -19 -71 -51q-32 -16 -55.5 -23.5t-37.5 -8.5v3q0 14 1.5 38t3.5 58q2 29 3 52.5t1 40.5 v18q-29 -2 -65 -4.5t-79 -6.5q-59 -27 -92 -30v1q0 4 12 115q8 75 12.5 135.5t4.5 108.5q0 271 -59 348q3 13 72 48q70 35 90 35q29 0 41 -87q11 4 27.5 8.5l38.5 10.5v45q2 15 3 26.5t1 19.5q0 29 -4 42q-3 31 -3 21q0 17 68 47q66 31 94 31q3 0 2 -12q0 -8 1 -20.5 t3 -28.5t3 -28t1 -20q0 -16 -2 -39.5t-6 -54.5q103 17 169.5 25.5t98.5 8.5v-1z" />
<glyph unicode="&#xa3;" horiz-adv-x="1138" d="M985 247q0 -119 -33 -168q-12 -20 -73 -48q-59 -28 -87 -31q-75 56 -92 63q-39 17 -120 17q-31 0 -63.5 -2.5t-67.5 -7.5q-23 -18 -77 -43q-55 -25 -82 -27q0 4 3.5 56.5t10.5 155.5q15 273 15 437q0 -23 -3 124q-122 0 -161 10l-1 5q6 18 70 48q63 31 90 31 q-2 32 -6 80.5t-9 112.5q-1 27 -6 66.5t-13 93.5q-21 69 -21 62q0 14 70 48q72 35 91 35q24 0 39 -117q343 117 497 117q0 -1 -17 -15q-37 -28 -45 -61q-1 -5 -1 -72q0 -31 -6 -46q-8 -21 -74 -50q-64 -28 -94 -30v15q0 10 1 24v41q0 72 62 119q-135 -29 -318 -78 q8 -114 12.5 -202.5t6.5 -152.5q67 0 201 9q68 5 119 7.5t86 2.5q1 0 5 -2q-11 -17 -53 -39q-63 -37 -105 -41q-42 -2 -105 -5.5t-148 -8.5q0 -256 -24 -650q203 34 282 34q23 0 42 -1.5t34 -3.5q-5 59 -8 88.5t-3 30.5q0 17 73 48q64 30 94 32q12 -39 12 -111z" />
<glyph unicode="&#xa4;" horiz-adv-x="1015" d="M862 278q0 -18 -72 -49q-62 -31 -92 -34q-9 12 -29 155q-126 52 -312 53q0 -29 -9 -84q-7 -19 -72 -49q-32 -14 -55.5 -22t-39.5 -9q0 37 3.5 94.5t10.5 137.5q7 78 10 135.5t3 96.5q0 133 -22 225q-32 142 -32 120q0 14 68 47q67 33 89 33q35 0 51 -193q50 8 123 20.5 t170 29.5l2 106q0 17 72 49q65 31 94 34q0 -32 -1 -79.5t-3 -111.5q-3 -128 -3 -193q0 -112 4.5 -199t12.5 -151q2 -8 6 -28t11 -52q12 -50 12 -82zM655 478q-4 55 -6 98.5t-2 77.5v119q0 -12 1.5 27.5t5.5 131.5q-62 -14 -285 -51q6 -71 6 -144q0 -54 -3 -118t-10 -139 q42 2 77 3.5t64 1.5q45 0 82.5 -1.5t69.5 -5.5z" />
<glyph unicode="&#xa5;" horiz-adv-x="1089" d="M935 1365q0 1 -32 -165q-20 -103 -30.5 -193.5t-10.5 -170.5q0 -94 10 -150q15 -83 15 -75q0 -15 -68 -47q-67 -31 -94 -33q-30 43 -133 53l-2.5 -60t-4.5 -84q166 8 239.5 12.5t56.5 4.5l3 -1q-11 -17 -53 -40q-63 -35 -118 -42q-32 -2 -64 -3.5t-64 -3.5q1 -59 12 -133 q111 7 176.5 10t88.5 3l2 -1q-10 -16 -52 -39q-29 -17 -52.5 -27.5t-42.5 -12.5q-26 -1 -52 -1.5t-52 -1.5q20 -82 20 -87q0 -16 -70 -46q-35 -14 -58.5 -22t-35.5 -9q-10 22 -19.5 58.5t-17.5 89.5q-14 -1 -34 -1h-43q-161 0 -200 10l-1 3q3 16 68 48q64 33 85 33t60 -6 q20 -2 33.5 -3.5t21.5 -1.5q-2 35 -3 66.5t-1 60.5q-34 -2 -54 -3t-26 -1q-124 0 -155 14q3 14 68 49t85 35q8 0 19.5 -1.5t25.5 -3.5q15 -2 25.5 -3.5t15.5 -2.5v38t1 39q5 57 17 68q-26 -2 -54.5 -4t-57.5 -4q-40 -19 -110 -39q0 26 1.5 64.5t5.5 90.5t5.5 91.5t1.5 65.5 q0 171 -24 302q-1 9 -15 67q-10 39 -10 68q0 20 70 48q70 30 97 30q5 0 2 -12l17 -82q29 -145 29 -329q0 -24 -3 -97t-8 -196q115 23 313 20q-2 26 -3 48t-1 39q0 73 12.5 175.5t37.5 237.5q2 20 7 49t15 67q9 21 74 50q66 28 93 30z" />
<glyph unicode="&#xa6;" horiz-adv-x="493" d="M340 1188q0 -53 -3 -161q-1 -54 -1.5 -94t-0.5 -66t-5 -44q-4 -16 -71 -47t-93 -32q-1 4 -1.5 10t-0.5 16q0 23 1.5 59.5t3.5 85.5q2 50 3.5 86.5t1.5 60.5q0 100 -3 151q-4 38 -5.5 55.5t-1.5 13.5q0 15 68 48q34 17 57.5 25.5t36.5 9.5q14 -14 14 -177zM329 367 q0 -38 -1.5 -91t-3.5 -122q0 -13 -1.5 -31.5t-5.5 -42.5q-6 -18 -71 -50q-65 -30 -92 -30q0 24 1.5 59.5t3.5 83.5l3.5 84t1.5 60q0 17 -1.5 42t-3.5 58q-2 34 -3.5 59t-1.5 42q0 15 68 48q67 34 94 36q13 -16 13 -205z" />
<glyph unicode="&#xa8;" horiz-adv-x="986" d="M833 1531q0 -11 -70 -45q-72 -35 -87 -35q-10 0 -65 34q-14 8 -36 18.5t-51 22.5q4 11 71 46q67 34 84 34q18 0 85 -34q69 -33 69 -41zM439 1531q0 -11 -71 -46q-69 -32 -93 -34q-36 14 -121 73q133 84 160 84q7 0 66 -36t59 -41z" />
<glyph unicode="&#xa9;" horiz-adv-x="1830" d="M1676 616q0 -175 -142 -317q-128 -129 -364 -215q-236 -84 -443 -84q-237 0 -398 101q-175 112 -175 303q0 184 165 384q277 333 623 333q293 0 502 -128q232 -141 232 -377zM1507 536q0 239 -237 379q-212 123 -511 123q-203 -75 -322 -221q-118 -145 -118 -331 q0 -187 173 -300q158 -104 389 -104q237 0 396 77q107 53 170 164q60 102 60 213zM1200 311q0 -45 -33 -70q-17 -13 -80 -41q-20 -11 -66 -21q-50 38 -180 38q-119 0 -155 -10q-14 -6 -34.5 -13t-49.5 -15q2 17 5 42t7 59q5 43 8 95.5t3 116.5q0 216 -48 305q5 14 71 47 q67 33 88 33t35 -54q325 51 410 51h9q-11 -11 -35.5 -44.5t-62.5 -90.5q-14 -17 -72 -45q-58 -27 -88 -30q12 29 29 61t39 67q-38 -4 -92.5 -10t-127.5 -14q12 -108 12 -189q0 -106 -21 -296q60 8 122 12.5t128 3.5q-24 54 -24 71t75 50q32 14 56 21.5t38 9.5 q34 -108 34 -140z" />
<glyph unicode="&#xab;" horiz-adv-x="1138" d="M985 87q-5 -17 -69 -48q-63 -29 -90 -34l-7 2q-45 64 -115.5 158.5t-167.5 220.5q16 25 56 77.5t106 133.5q20 29 49.5 72.5t71.5 101.5q13 21 74 48q31 14 53.5 21t36.5 8l2 -5q-1 -23 -139 -192q-136 -167 -136 -182q0 -13 67 -95q35 -48 87 -119.5t121 -167.5zM602 87 q-5 -17 -69 -47q-65 -30 -91 -33l-5 2q-46 64 -116 158t-167 220v6q13 24 162 206q18 22 38 49.5t42 61.5q6 11 16.5 27t24.5 38q14 21 72 46q60 28 87 29l6 -5q-2 -25 -140 -192q-138 -168 -138 -182q0 -7 69 -94q7 -7 25.5 -31.5t49.5 -69.5q22 -32 55.5 -79t78.5 -110z " />
<glyph unicode="&#xad;" horiz-adv-x="1004" d="M850 727q0 -15 -66 -45q-64 -30 -91 -33q-83 -12 -234 -12q-85 0 -143.5 -1.5t-91.5 -5.5q-11 -2 -28.5 -3.5t-40.5 -3.5q-1 2 -1 5q0 16 68 48q57 25 89 31q22 3 108.5 7.5t239.5 9.5q208 6 191 6v-3z" />
<glyph unicode="&#xae;" horiz-adv-x="1824" d="M1671 616q0 -178 -137 -317q-128 -129 -367 -215q-228 -84 -440 -84q-237 0 -398 101q-175 112 -175 303q0 192 162 384q244 293 532 328q22 2 44.5 3.5t46.5 1.5q292 0 501 -128q231 -141 231 -377zM1507 536q0 240 -239 380q-212 123 -512 123q-200 -75 -320 -224 q-119 -149 -119 -327q0 -188 175 -300q158 -104 389 -104q237 0 390 75q108 53 173 164q63 103 63 213zM1222 773q0 -18 -1.5 -45t-5.5 -64q-4 -36 -5.5 -63t-1.5 -45q0 -12 3.5 -33t3.5 -33q0 -20 -67 -51q-65 -31 -93 -31q1 0 -9 2q-26 8 -68 16t-99 18q74 -100 244 -207 q14 -8 34 -20.5t48 -30.5v-2q0 -10 -74 -45q-75 -35 -88 -35q-23 0 -145 94q-54 42 -89.5 71t-54.5 47q0 -23 -6 -63q-8 -20 -71 -48q-65 -29 -93 -33q0 26 2.5 66t7.5 94t7.5 94.5t2.5 68.5q0 243 -44 314q4 14 70 49q65 35 85 35q24 0 36 -67q26 4 64 9t90 13l293 45 q24 -12 24 -120zM1056 695q0 64 -15 114q-40 -7 -110 -17t-172 -24q8 -63 10.5 -123t0.5 -118q32 2 65 3t68 1h32q31 0 58 -1t50 -3q7 100 10 141.5t3 26.5z" />
<glyph unicode="&#xb0;" horiz-adv-x="893" d="M739 976l-162 -87q-17 29 -137 29q-15 0 -38.5 -0.5t-55.5 -1.5h-93q-4 0 -23.5 -2t-55.5 -6q11 62 16.5 104.5t5.5 67.5q0 137 -42 169q112 84 163 84q5 0 31 2t72 6q72 6 213 18q25 3 77 6q-3 -74 -3 -169q0 -130 32 -220zM546 1000q-4 28 -5.5 61t-1.5 71v39 q0 82 7 111q-4 -1 -51 -5t-138 -11q4 -20 6 -44.5t2 -54.5q0 -48 -24 -172q80 4 131 5t74 0z" />
<glyph unicode="&#xb1;" horiz-adv-x="1104" d="M951 727q-6 -14 -70 -47q-65 -33 -84 -33h-37q-22 0 -52 1q-29 1 -51 1.5t-36 0.5q-2 -24 -3.5 -64.5t-1.5 -97.5q0 -16 -71 -48q-72 -31 -96 -32v24q-1 10 -1.5 16t-0.5 9q0 19 3.5 65t10.5 120q-19 -2 -70.5 -9t-136.5 -20q-14 -2 -36.5 -5t-51.5 -7l-4 1q5 11 33 26 q46 26 113 46t156 33q2 25 3.5 74.5t1.5 124.5q0 15 68 47q69 32 94 33q7 -10 7 -56q0 -49 -2.5 -99t-7.5 -104q40 4 97.5 5.5t134.5 1.5q30 0 52.5 -1.5t36.5 -3.5zM853 119q-4 -16 -67 -45q-60 -28 -91 -31q-84 -12 -234 -12q-84 0 -142.5 -1.5t-93.5 -5.5 q-11 -2 -28 -3.5t-40 -3.5l-3 3q16 23 69 49q52 25 91 30q29 5 115.5 9.5t232.5 9.5q103 4 150.5 5.5t39.5 1.5z" />
<glyph unicode="&#xb4;" horiz-adv-x="713" d="M560 1843q-17 -27 -48 -75q-38 -63 -72 -126q-51 -84 -87 -114t-114 -60q-45 -17 -79 -17q-6 0 -6 1t18 30q10 14 31.5 49.5t55.5 93.5q27 49 96 145q15 19 92 48q78 29 106 29q3 0 7 -4z" />
<glyph unicode="&#xb6;" horiz-adv-x="1649" d="M1495 1285q-7 -19 -71 -50q-65 -30 -91 -30q-38 0 -87 2t-109 6q-5 -71 -8 -149t-3 -165q0 -162 10 -343.5t30 -386.5l24 -256.5t8 -86.5q0 -17 -70 -50q-58 -26 -90 -34q-7 10 -16 106q-63 736 -63 969q0 111 4.5 212.5t12.5 195.5q-38 5 -94.5 11.5t-133.5 14.5 q-2 -20 -9 -171q-15 -431 -15 -466q0 -134 3 -267t10 -270q7 -136 10.5 -199t3.5 -55q0 -19 -69 -47q-34 -14 -58.5 -23t-39.5 -11q-24 405 -24 813q-60 6 -123 6q-31 0 -60 -2.5t-56 -7.5q-78 -60 -155 -70q1 19 1 34v28q0 44 -1.5 108.5t-5.5 152.5q-6 174 -6 261 q0 196 16 221q18 27 73 52q57 27 93 27l92 -32q31 -10 76.5 -23.5t106.5 -31.5q15 28 72 57q58 30 95 30l-3 -20q16 -2 78.5 -8.5t172.5 -17.5q44 20 74.5 32t49.5 14l-5 -58q131 -13 218 -18.5t132 -3.5zM584 1167q-15 -5 -29 -5q-5 0 -234 72q-2 -36 -3 -61.5t-1 -39.5 q0 -37 1.5 -91.5t5.5 -129.5q4 -74 5.5 -129t1.5 -92q0 -30 -0.5 -54t-1.5 -43q54 22 111.5 34.5t119.5 14.5q0 46 15 378q1 48 9 146z" />
<glyph unicode="&#xb7;" horiz-adv-x="621" d="M468 700q-5 -14 -72 -47q-68 -33 -85 -33q-18 0 -87 22q-70 22 -70 29q0 13 70 47q72 35 92 35q23 0 152 -53z" />
<glyph unicode="&#xbb;" horiz-adv-x="1140" d="M986 463q-33 -42 -80.5 -106t-110.5 -152q-14 -22 -37 -52.5t-55 -70.5q-25 -23 -76 -48q-53 -26 -84 -27l-4 2q34 45 70 94t75 105q11 17 29.5 42.5t44.5 60.5q53 64 53 80q0 20 -136 186t-136 191q0 19 69 49q69 29 99 31q3 -7 8 -16.5t12 -22.5q20 -35 143 -188 q114 -141 116 -158zM604 464l-193 -263q-14 -21 -37 -51t-55 -70q-23 -23 -75 -48q-53 -26 -87 -27l-3 4q35 51 90 125t131 173q53 62 53 80q0 27 -137 190t-137 188q0 18 67 49q66 31 96 34q6 -6 28 -42q35 -65 126 -173q98 -117 133 -169z" />
<glyph unicode="&#xbf;" horiz-adv-x="1067" d="M913 1143q0 -13 -71 -46q-35 -16 -59 -24.5t-35 -9.5q-48 21 -144 51q8 14 72 47q64 34 83 34q17 0 86 -23q68 -23 68 -29zM874 -84q0 -20 -67 -51q-65 -31 -97 -34q-2 20 -4 50.5t-6 72.5q-85 -16 -207.5 -44.5t-287.5 -71.5q-20 -7 -22 -7q-8 0 -12 15q-17 49 -17 168 q0 80 9 238q9 159 9 240q0 11 -1 27t-3 38t-3 38.5t-1 27.5q0 19 72 51q66 29 95 29q110 -75 328 -78q-2 12 -3 30t-1 43q0 140 21 176q13 23 78 49q17 7 39 15t50 16q0 -9 -10 -52t-10 -151q0 -63 13 -79q1 -3 22 -17q14 -11 14 -18q0 -6 -15 -16q-84 -53 -147 -68 q-44 -10 -166 -10q-63 0 -113.5 3t-92.5 10q0 -66 -9 -205q-4 -69 -6 -121.5t-2 -87.5q0 -141 19 -224q61 14 150.5 34t209.5 46q0 5 -0.5 14t-1.5 22v39q0 49 8 71q9 22 74 51q60 27 92 30l2 -3q0 -12 -1 -30.5t-3 -43.5q-3 -50 -3 -75q0 -27 3 -78q2 -26 3 -45.5t1 -33.5z " />
<glyph unicode="&#xc0;" d="M102 0zM860 80q0 -17 -71 -49q-69 -31 -94 -31q-7 0 -7 5q0 4 2.5 9t2.5 8q0 -4 -21 142q-9 64 -15 157t-10 218q-111 -47 -336 -129q-8 -82 -17.5 -165.5t-20.5 -169.5q-20 -23 -79 -48q-58 -25 -92 -27q11 41 40 302q17 182 26 330.5t9 266.5q0 111 -6 198 q-8 88 -12.5 134.5t-4.5 53.5q0 18 71 50q61 25 96 30q8 -65 12.5 -102t4.5 -48q40 5 119 21q23 5 67.5 22.5t113.5 48.5q61 26 104.5 41t69.5 17q9 -17 9 -30q0 14 -1.5 -28.5t-3.5 -142.5t-3 -190t-1 -172q0 -418 40 -654q4 -26 6 -43t2 -25zM655 1278q-51 -21 -129.5 -50 t-184.5 -66q2 -35 3.5 -80t1.5 -102q0 -239 -27 -504l17.5 -3.5t13.5 -1.5q63 0 297 99q-1 48 -1.5 85.5t-0.5 66.5q0 40 0.5 100.5t1.5 141.5t1.5 141.5t0.5 101.5q0 44 6 71zM572 1531q-1 -15 -71 -48q-70 -32 -91 -32q-4 0 -44 70q-44 80 -139 242q-1 1 -1 3q0 22 63 51 q62 28 94 28q24 0 99 -145q42 -81 64 -123t26 -46z" />
<glyph unicode="&#xc1;" d="M102 0zM860 80q0 -17 -71 -49q-69 -31 -94 -31q-7 0 -7 5q0 4 2.5 9t2.5 8q0 -4 -21 142q-9 64 -15 157t-10 218q-111 -47 -336 -129q-8 -82 -17.5 -165.5t-20.5 -169.5q-20 -23 -79 -48q-58 -25 -92 -27q11 41 40 302q17 182 26 330.5t9 266.5q0 111 -6 198 q-8 88 -12.5 134.5t-4.5 53.5q0 18 71 50q61 25 96 30q8 -65 12.5 -102t4.5 -48q40 5 119 21q23 5 67.5 22.5t113.5 48.5q61 26 104.5 41t69.5 17q9 -17 9 -30q0 14 -1.5 -28.5t-3.5 -142.5t-3 -190t-1 -172q0 -418 40 -654q4 -26 6 -43t2 -25zM655 1278q-51 -21 -129.5 -50 t-184.5 -66q2 -35 3.5 -80t1.5 -102q0 -239 -27 -504l17.5 -3.5t13.5 -1.5q63 0 297 99q-1 48 -1.5 85.5t-0.5 66.5q0 40 0.5 100.5t1.5 141.5t1.5 141.5t0.5 101.5q0 44 6 71zM848 1843q-17 -27 -48 -75q-38 -63 -72 -126q-51 -84 -87 -114t-114 -60q-45 -17 -79 -17 q-6 0 -6 1t18 30q10 14 31.5 49.5t55.5 93.5q27 49 96 145q15 19 92 48q78 29 106 29q3 0 7 -4z" />
<glyph unicode="&#xc2;" d="M102 0zM860 80q0 -17 -71 -49q-69 -31 -94 -31q-7 0 -7 5q0 4 2.5 9t2.5 8q0 -4 -21 142q-9 64 -15 157t-10 218q-111 -47 -336 -129q-8 -82 -17.5 -165.5t-20.5 -169.5q-20 -23 -79 -48q-58 -25 -92 -27q11 41 40 302q17 182 26 330.5t9 266.5q0 111 -6 198 q-8 88 -12.5 134.5t-4.5 53.5q0 18 71 50q61 25 96 30q8 -65 12.5 -102t4.5 -48q40 5 119 21q23 5 67.5 22.5t113.5 48.5q61 26 104.5 41t69.5 17q9 -17 9 -30q0 14 -1.5 -28.5t-3.5 -142.5t-3 -190t-1 -172q0 -418 40 -654q4 -26 6 -43t2 -25zM655 1278q-51 -21 -129.5 -50 t-184.5 -66q2 -35 3.5 -80t1.5 -102q0 -239 -27 -504l17.5 -3.5t13.5 -1.5q63 0 297 99q-1 48 -1.5 85.5t-0.5 66.5q0 40 0.5 100.5t1.5 141.5t1.5 141.5t0.5 101.5q0 44 6 71zM834 1529q0 -12 -69 -45q-68 -33 -88 -33q-26 0 -215 264q-26 -33 -68.5 -80.5t-100.5 -110.5 q-81 -69 -162 -73q2 6 70 80q23 26 56 64.5t78 92.5q11 18 29.5 43.5t44.5 58.5q19 20 75 49q55 28 84 30q27 -38 165 -219q26 -42 92 -112q9 -8 9 -9z" />
<glyph unicode="&#xc3;" d="M102 0zM860 80q0 -17 -71 -49q-69 -31 -94 -31q-7 0 -7 5q0 4 2.5 9t2.5 8q0 -4 -21 142q-9 64 -15 157t-10 218q-111 -47 -336 -129q-8 -82 -17.5 -165.5t-20.5 -169.5q-20 -23 -79 -48q-58 -25 -92 -27q11 41 40 302q17 182 26 330.5t9 266.5q0 111 -6 198 q-8 88 -12.5 134.5t-4.5 53.5q0 18 71 50q61 25 96 30q8 -65 12.5 -102t4.5 -48q40 5 119 21q23 5 67.5 22.5t113.5 48.5q61 26 104.5 41t69.5 17q9 -17 9 -30q0 14 -1.5 -28.5t-3.5 -142.5t-3 -190t-1 -172q0 -418 40 -654q4 -26 6 -43t2 -25zM655 1278q-51 -21 -129.5 -50 t-184.5 -66q2 -35 3.5 -80t1.5 -102q0 -239 -27 -504l17.5 -3.5t13.5 -1.5q63 0 297 99q-1 48 -1.5 85.5t-0.5 66.5q0 40 0.5 100.5t1.5 141.5t1.5 141.5t0.5 101.5q0 44 6 71zM860 1702q0 -82 -118 -167q-119 -84 -219 -84q-75 0 -110 77q-35 78 -96 87q-8 -15 -20.5 -36.5 t-29.5 -49.5q-7 -10 -24.5 -21.5t-46.5 -24.5q-60 -26 -89 -29l-3 2v1q0 10 17 38q40 67 148 134q107 67 193 67q73 0 108 -77q34 -75 88 -83q5 14 13.5 35.5t19.5 49.5q11 22 74 50q32 14 55.5 22t39.5 9z" />
<glyph unicode="&#xc4;" d="M102 0zM860 80q0 -17 -71 -49q-69 -31 -94 -31q-7 0 -7 5q0 4 2.5 9t2.5 8q0 -4 -21 142q-9 64 -15 157t-10 218q-111 -47 -336 -129q-8 -82 -17.5 -165.5t-20.5 -169.5q-20 -23 -79 -48q-58 -25 -92 -27q11 41 40 302q17 182 26 330.5t9 266.5q0 111 -6 198 q-8 88 -12.5 134.5t-4.5 53.5q0 18 71 50q61 25 96 30q8 -65 12.5 -102t4.5 -48q40 5 119 21q23 5 67.5 22.5t113.5 48.5q61 26 104.5 41t69.5 17q9 -17 9 -30q0 14 -1.5 -28.5t-3.5 -142.5t-3 -190t-1 -172q0 -418 40 -654q4 -26 6 -43t2 -25zM655 1278q-51 -21 -129.5 -50 t-184.5 -66q2 -35 3.5 -80t1.5 -102q0 -239 -27 -504l17.5 -3.5t13.5 -1.5q63 0 297 99q-1 48 -1.5 85.5t-0.5 66.5q0 40 0.5 100.5t1.5 141.5t1.5 141.5t0.5 101.5q0 44 6 71zM822 1531q0 -11 -70 -45q-72 -35 -87 -35q-10 0 -65 34q-14 8 -36 18.5t-51 22.5q4 11 71 46 q67 34 84 34q18 0 85 -34q69 -33 69 -41zM428 1531q0 -11 -71 -46q-69 -32 -93 -34q-36 14 -121 73q133 84 160 84q7 0 66 -36t59 -41z" />
<glyph unicode="&#xc5;" d="M102 0zM860 80q0 -17 -71 -49q-69 -31 -94 -31q-7 0 -7 5q0 4 2.5 9t2.5 8q0 -4 -21 142q-9 64 -15 157t-10 218q-111 -47 -336 -129q-8 -82 -17.5 -165.5t-20.5 -169.5q-20 -23 -79 -48q-58 -25 -92 -27q11 41 40 302q17 182 26 330.5t9 266.5q0 111 -6 198 q-8 88 -12.5 134.5t-4.5 53.5q0 18 71 50q61 25 96 30q8 -65 12.5 -102t4.5 -48q40 5 119 21q23 5 67.5 22.5t113.5 48.5q61 26 104.5 41t69.5 17q9 -17 9 -30q0 14 -1.5 -28.5t-3.5 -142.5t-3 -190t-1 -172q0 -418 40 -654q4 -26 6 -43t2 -25zM655 1278q-51 -21 -129.5 -50 t-184.5 -66q2 -35 3.5 -80t1.5 -102q0 -239 -27 -504l17.5 -3.5t13.5 -1.5q63 0 297 99q-1 48 -1.5 85.5t-0.5 66.5q0 40 0.5 100.5t1.5 141.5t1.5 141.5t0.5 101.5q0 44 6 71zM773 1538l-162 -87q-17 29 -137 29q-15 0 -38.5 -0.5t-55.5 -1.5h-93q-7 0 -79 -9 q11 62 16.5 105t5.5 68q0 136 -42 169q113 83 163 83q11 0 103 9q36 2 89 6.5t124 10.5q13 2 32 3.5t45 3.5q-3 -74 -3 -169q0 -130 32 -220zM580 1562q-4 27 -5.5 60t-1.5 71v39q0 82 7 111q-8 -2 -189 -15q4 -20 6 -44.5t2 -54.5q0 -49 -24 -173q159 7 205 6z" />
<glyph unicode="&#xc6;" horiz-adv-x="1457" d="M1355 183q0 -70 -22 -110q-14 -27 -70 -50q-57 -23 -96 -23q-52 73 -203 73q-22 0 -51 -2.5t-66 -7.5q-23 -14 -76 -37q-57 -26 -78 -26q-9 25 -21 140q-20 198 -27 399q-56 -22 -140 -53t-198 -71q-5 -40 -12 -99t-17 -139q0 -17 -2.5 -41t-7.5 -56q-4 -19 -71 -49 q-33 -14 -57 -22t-38 -9q0 22 9 87l24 200q20 186 30.5 337t10.5 269q0 100 -4.5 185.5t-14.5 158.5q-2 25 -3.5 35.5t-1.5 5.5q0 17 67 51t95 36q21 -14 21 -155q38 4 119 21q32 7 191 75q144 59 166 59q2 0 5 -1v-125q54 20 118.5 39.5t140.5 39.5q186 47 263 47 q1 -2 0 -3q-7 -4 -19 -12q-49 -37 -66 -94q-2 -7 -6 -34t-10 -75q-2 -21 -10 -53q-7 -20 -73 -49q-63 -28 -96 -31q5 186 109 273q-60 -12 -147 -32.5t-204 -49.5q-4 -125 -5.5 -224.5t-1.5 -176.5v-79q10 0 24 -1t33 -3q20 -2 34.5 -3t24.5 -1q23 0 56.5 2t78.5 6 q90 9 135 9l1 -2q-11 -15 -53 -39q-63 -37 -107 -41q-63 -7 -119.5 -12t-107.5 -7q4 -130 14.5 -256.5t28.5 -253.5q211 36 271 36q14 0 30 -1.5t35 -3.5q-5 31 -27 116q-18 73 -18 117q0 15 72 50q32 16 55 24.5t37 9.5l4 -3q2 -13 4.5 -33t7.5 -46q16 -99 24 -150t8 -56z M654 1277v1q-52 -22 -130.5 -52.5t-185.5 -68.5q4 -52 5.5 -98t1.5 -86q0 -96 -7.5 -220t-23.5 -279q13 -3 31 -3q63 0 300 97q-3 181 -3 156q0 91 6 276q6 184 6 277z" />
<glyph unicode="&#xc8;" horiz-adv-x="915" d="M102 0zM812 186q0 -77 -20 -109q-11 -18 -75 -47q-61 -28 -89 -30q-64 79 -205 79q-22 0 -57.5 -4.5t-85.5 -14.5q-83 -56 -149 -60q2 38 5 93.5t7 130.5q8 149 12.5 254.5t4.5 171.5q0 46 -4.5 149t-12.5 266q0 26 -4.5 64t-12.5 90q-12 30 -24 63q0 18 70 49 q63 31 93 34q25 -16 34 -111q204 75 399 105q46 6 61 6h14q10 0 24 -1q-1 -3 -17 -16q-57 -48 -67 -88q-2 -24 -3 -48.5t-3 -49.5q-1 -36 -23 -70q-16 -23 -76 -49q-27 -11 -89 -31q1 183 109 277q-54 -11 -134 -29.5t-189 -44.5q21 -288 21 -483q10 0 23.5 -1.5t32.5 -3.5 t33.5 -3.5t24.5 -1.5q23 0 56.5 2t79.5 6q91 9 137 9q-12 -18 -51 -41q-56 -32 -109 -41q-38 -6 -94.5 -10.5t-132.5 -8.5q-2 -123 -8 -250.5t-14 -261.5q190 36 278 36q14 0 30 -1.5t33 -3.5q-3 23 -24 118q-8 37 -12.5 66.5t-4.5 52.5q0 17 70 48q35 16 58.5 23.5 t35.5 8.5q1 -5 4.5 -25.5t9.5 -57.5q30 -195 30 -205zM548 1531q-1 -15 -71 -48q-70 -32 -91 -32q-4 0 -44 70q-44 80 -139 242q-1 1 -1 3q0 22 63 51q62 28 94 28q24 0 99 -145q42 -81 64 -123t26 -46z" />
<glyph unicode="&#xc9;" horiz-adv-x="915" d="M102 0zM812 186q0 -77 -20 -109q-11 -18 -75 -47q-61 -28 -89 -30q-64 79 -205 79q-22 0 -57.5 -4.5t-85.5 -14.5q-83 -56 -149 -60q2 38 5 93.5t7 130.5q8 149 12.5 254.5t4.5 171.5q0 46 -4.5 149t-12.5 266q0 26 -4.5 64t-12.5 90q-12 30 -24 63q0 18 70 49 q63 31 93 34q25 -16 34 -111q204 75 399 105q46 6 61 6h14q10 0 24 -1q-1 -3 -17 -16q-57 -48 -67 -88q-2 -24 -3 -48.5t-3 -49.5q-1 -36 -23 -70q-16 -23 -76 -49q-27 -11 -89 -31q1 183 109 277q-54 -11 -134 -29.5t-189 -44.5q21 -288 21 -483q10 0 23.5 -1.5t32.5 -3.5 t33.5 -3.5t24.5 -1.5q23 0 56.5 2t79.5 6q91 9 137 9q-12 -18 -51 -41q-56 -32 -109 -41q-38 -6 -94.5 -10.5t-132.5 -8.5q-2 -123 -8 -250.5t-14 -261.5q190 36 278 36q14 0 30 -1.5t33 -3.5q-3 23 -24 118q-8 37 -12.5 66.5t-4.5 52.5q0 17 70 48q35 16 58.5 23.5 t35.5 8.5q1 -5 4.5 -25.5t9.5 -57.5q30 -195 30 -205zM825 1843q-17 -27 -48 -75q-38 -63 -72 -126q-51 -84 -87 -114t-114 -60q-45 -17 -79 -17q-6 0 -6 1t18 30q10 14 31.5 49.5t55.5 93.5q27 49 96 145q15 19 92 48q78 29 106 29q3 0 7 -4z" />
<glyph unicode="&#xca;" horiz-adv-x="915" d="M102 0zM812 186q0 -77 -20 -109q-11 -18 -75 -47q-61 -28 -89 -30q-64 79 -205 79q-22 0 -57.5 -4.5t-85.5 -14.5q-83 -56 -149 -60q2 38 5 93.5t7 130.5q8 149 12.5 254.5t4.5 171.5q0 46 -4.5 149t-12.5 266q0 26 -4.5 64t-12.5 90q-12 30 -24 63q0 18 70 49 q63 31 93 34q25 -16 34 -111q204 75 399 105q46 6 61 6h14q10 0 24 -1q-1 -3 -17 -16q-57 -48 -67 -88q-2 -24 -3 -48.5t-3 -49.5q-1 -36 -23 -70q-16 -23 -76 -49q-27 -11 -89 -31q1 183 109 277q-54 -11 -134 -29.5t-189 -44.5q21 -288 21 -483q10 0 23.5 -1.5t32.5 -3.5 t33.5 -3.5t24.5 -1.5q23 0 56.5 2t79.5 6q91 9 137 9q-12 -18 -51 -41q-56 -32 -109 -41q-38 -6 -94.5 -10.5t-132.5 -8.5q-2 -123 -8 -250.5t-14 -261.5q190 36 278 36q14 0 30 -1.5t33 -3.5q-3 23 -24 118q-8 37 -12.5 66.5t-4.5 52.5q0 17 70 48q35 16 58.5 23.5 t35.5 8.5q1 -5 4.5 -25.5t9.5 -57.5q30 -195 30 -205zM810 1529q0 -12 -69 -45q-68 -33 -88 -33q-26 0 -215 264q-26 -33 -68.5 -80.5t-100.5 -110.5q-81 -69 -162 -73q2 6 70 80q23 26 56 64.5t78 92.5q11 18 29.5 43.5t44.5 58.5q19 20 75 49q55 28 84 30q27 -38 165 -219 q26 -42 92 -112q9 -8 9 -9z" />
<glyph unicode="&#xcb;" horiz-adv-x="915" d="M102 0zM812 186q0 -77 -20 -109q-11 -18 -75 -47q-61 -28 -89 -30q-64 79 -205 79q-22 0 -57.5 -4.5t-85.5 -14.5q-83 -56 -149 -60q2 38 5 93.5t7 130.5q8 149 12.5 254.5t4.5 171.5q0 46 -4.5 149t-12.5 266q0 26 -4.5 64t-12.5 90q-12 30 -24 63q0 18 70 49 q63 31 93 34q25 -16 34 -111q204 75 399 105q46 6 61 6h14q10 0 24 -1q-1 -3 -17 -16q-57 -48 -67 -88q-2 -24 -3 -48.5t-3 -49.5q-1 -36 -23 -70q-16 -23 -76 -49q-27 -11 -89 -31q1 183 109 277q-54 -11 -134 -29.5t-189 -44.5q21 -288 21 -483q10 0 23.5 -1.5t32.5 -3.5 t33.5 -3.5t24.5 -1.5q23 0 56.5 2t79.5 6q91 9 137 9q-12 -18 -51 -41q-56 -32 -109 -41q-38 -6 -94.5 -10.5t-132.5 -8.5q-2 -123 -8 -250.5t-14 -261.5q190 36 278 36q14 0 30 -1.5t33 -3.5q-3 23 -24 118q-8 37 -12.5 66.5t-4.5 52.5q0 17 70 48q35 16 58.5 23.5 t35.5 8.5q1 -5 4.5 -25.5t9.5 -57.5q30 -195 30 -205zM800 1531q0 -11 -70 -45q-72 -35 -87 -35q-10 0 -65 34q-14 8 -36 18.5t-51 22.5q4 11 71 46q67 34 84 34q18 0 85 -34q69 -33 69 -41zM406 1531q0 -11 -71 -46q-69 -32 -93 -34q-36 14 -121 73q133 84 160 84 q7 0 66 -36t59 -41z" />
<glyph unicode="&#xcc;" horiz-adv-x="408" d="M0 0zM305 838q0 -48 -2.5 -147t-7.5 -252q-12 -339 -20 -352q-20 -26 -75 -54q-56 -29 -94 -33q-4 4 -4 9q0 -6 1.5 0t5.5 23q1 8 4.5 66.5t9.5 167.5q8 155 12.5 277t4.5 215q0 149 -15 346q-1 19 -3.5 48t-7.5 67q-4 29 -6 46t-2 22q0 19 71 48q60 24 98 30 q30 -261 30 -527zM296 1531q-1 -15 -71 -48q-70 -32 -91 -32q-4 0 -44 70q-44 80 -139 242q-1 1 -1 3q0 22 63 51q62 28 94 28q24 0 99 -145q42 -81 64 -123t26 -46z" />
<glyph unicode="&#xcd;" horiz-adv-x="408" d="M102 0zM305 838q0 -48 -2.5 -147t-7.5 -252q-12 -339 -20 -352q-20 -26 -75 -54q-56 -29 -94 -33q-4 4 -4 9q0 -6 1.5 0t5.5 23q1 8 4.5 66.5t9.5 167.5q8 155 12.5 277t4.5 215q0 149 -15 346q-1 19 -3.5 48t-7.5 67q-4 29 -6 46t-2 22q0 19 71 48q60 24 98 30 q30 -261 30 -527zM530 1843q-17 -27 -48 -75q-38 -63 -72 -126q-51 -84 -87 -114t-114 -60q-45 -17 -79 -17q-6 0 -6 1t18 30q10 14 31.5 49.5t55.5 93.5q27 49 96 145q15 19 92 48q78 29 106 29q3 0 7 -4z" />
<glyph unicode="&#xce;" horiz-adv-x="408" d="M0 0zM305 838q0 -48 -2.5 -147t-7.5 -252q-12 -339 -20 -352q-20 -26 -75 -54q-56 -29 -94 -33q-4 4 -4 9q0 -6 1.5 0t5.5 23q1 8 4.5 66.5t9.5 167.5q8 155 12.5 277t4.5 215q0 149 -15 346q-1 19 -3.5 48t-7.5 67q-4 29 -6 46t-2 22q0 19 71 48q60 24 98 30 q30 -261 30 -527zM558 1529q0 -12 -69 -45q-68 -33 -88 -33q-26 0 -215 264q-26 -33 -68.5 -80.5t-100.5 -110.5q-81 -69 -162 -73q2 6 70 80q23 26 56 64.5t78 92.5q11 18 29.5 43.5t44.5 58.5q19 20 75 49q55 28 84 30q27 -38 165 -219q26 -42 92 -112q9 -8 9 -9z" />
<glyph unicode="&#xcf;" horiz-adv-x="408" d="M0 0zM305 838q0 -48 -2.5 -147t-7.5 -252q-12 -339 -20 -352q-20 -26 -75 -54q-56 -29 -94 -33q-4 4 -4 9q0 -6 1.5 0t5.5 23q1 8 4.5 66.5t9.5 167.5q8 155 12.5 277t4.5 215q0 149 -15 346q-1 19 -3.5 48t-7.5 67q-4 29 -6 46t-2 22q0 19 71 48q60 24 98 30 q30 -261 30 -527zM546 1531q0 -11 -70 -45q-72 -35 -87 -35q-10 0 -65 34q-14 8 -36 18.5t-51 22.5q4 11 71 46q67 34 84 34q18 0 85 -34q69 -33 69 -41zM152 1531q0 -11 -71 -46q-69 -32 -93 -34q-36 14 -121 73q133 84 160 84q7 0 66 -36t59 -41z" />
<glyph unicode="&#xd1;" horiz-adv-x="959" d="M102 0zM857 82q0 -17 -70 -48q-55 -25 -91 -34q-12 17 -17 70q-19 217 -28 381t-9 278q0 46 1.5 114.5t3.5 159.5q2 92 3.5 160t1.5 114q-51 -20 -129.5 -48.5t-184.5 -64.5q3 -72 3 -183q0 -78 -6 -179t-19 -229q-16 -158 -25 -259.5t-13 -147.5q0 -33 -10 -86 q-10 -22 -73 -49q-28 -13 -51 -21t-42 -10q0 16 33 288q39 325 39 649q0 56 -1.5 98.5t-5.5 73.5q-8 94 -12.5 138t-4.5 40q0 19 72 49q60 23 95 31q7 -34 10.5 -71.5t3.5 -80.5q20 4 50.5 9t70.5 13q39 9 185 69q130 52 172 54l8 -5l-8 -546q0 -408 39 -657q9 -53 9 -70z M858 1702q0 -82 -118 -167q-119 -84 -219 -84q-75 0 -110 77q-35 78 -96 87q-8 -15 -20.5 -36.5t-29.5 -49.5q-7 -10 -24.5 -21.5t-46.5 -24.5q-60 -26 -89 -29l-3 2v1q0 10 17 38q40 67 148 134q107 67 193 67q73 0 108 -77q34 -75 88 -83q5 14 13.5 35.5t19.5 49.5 q11 22 74 50q32 14 55.5 22t39.5 9z" />
<glyph unicode="&#xd2;" horiz-adv-x="935" d="M102 0zM833 87q-17 -24 -83 -56q-65 -31 -98 -31q-8 0 -9 24q-102 66 -305 66q-30 0 -61.5 -1.5t-64.5 -3.5q-48 -22 -79 -25q0 19 2.5 64.5t7.5 119.5q8 118 12.5 236.5t4.5 238.5q0 312 -29 390q-1 2 -5 10.5t-12 22.5q-12 19 -12 34t73 52t93 30q86 16 210.5 42.5 t291.5 64.5l7 -13q-12 -531 -12 -548q0 -197 11.5 -371t34.5 -329zM626 166q-14 131 -21.5 270t-7.5 288q0 511 19 558q-36 -10 -117 -27t-209 -43q7 -20 12 -59.5t7 -99.5q8 -149 12.5 -232.5t4.5 -103.5q0 -106 -6.5 -243t-19.5 -310q121 12 193 12q30 0 63 -2.5t70 -7.5z M558 1531q-1 -15 -71 -48q-70 -32 -91 -32q-4 0 -44 70q-44 80 -139 242q-1 1 -1 3q0 22 63 51q62 28 94 28q24 0 99 -145q42 -81 64 -123t26 -46z" />
<glyph unicode="&#xd3;" horiz-adv-x="935" d="M102 0zM833 87q-17 -24 -83 -56q-65 -31 -98 -31q-8 0 -9 24q-102 66 -305 66q-30 0 -61.5 -1.5t-64.5 -3.5q-48 -22 -79 -25q0 19 2.5 64.5t7.5 119.5q8 118 12.5 236.5t4.5 238.5q0 312 -29 390q-1 2 -5 10.5t-12 22.5q-12 19 -12 34t73 52t93 30q86 16 210.5 42.5 t291.5 64.5l7 -13q-12 -531 -12 -548q0 -197 11.5 -371t34.5 -329zM626 166q-14 131 -21.5 270t-7.5 288q0 511 19 558q-36 -10 -117 -27t-209 -43q7 -20 12 -59.5t7 -99.5q8 -149 12.5 -232.5t4.5 -103.5q0 -106 -6.5 -243t-19.5 -310q121 12 193 12q30 0 63 -2.5t70 -7.5z M835 1843q-17 -27 -48 -75q-38 -63 -72 -126q-51 -84 -87 -114t-114 -60q-45 -17 -79 -17q-6 0 -6 1t18 30q10 14 31.5 49.5t55.5 93.5q27 49 96 145q15 19 92 48q78 29 106 29q3 0 7 -4z" />
<glyph unicode="&#xd4;" horiz-adv-x="935" d="M102 0zM833 87q-17 -24 -83 -56q-65 -31 -98 -31q-8 0 -9 24q-102 66 -305 66q-30 0 -61.5 -1.5t-64.5 -3.5q-48 -22 -79 -25q0 19 2.5 64.5t7.5 119.5q8 118 12.5 236.5t4.5 238.5q0 312 -29 390q-1 2 -5 10.5t-12 22.5q-12 19 -12 34t73 52t93 30q86 16 210.5 42.5 t291.5 64.5l7 -13q-12 -531 -12 -548q0 -197 11.5 -371t34.5 -329zM626 166q-14 131 -21.5 270t-7.5 288q0 511 19 558q-36 -10 -117 -27t-209 -43q7 -20 12 -59.5t7 -99.5q8 -149 12.5 -232.5t4.5 -103.5q0 -106 -6.5 -243t-19.5 -310q121 12 193 12q30 0 63 -2.5t70 -7.5z M820 1529q0 -12 -69 -45q-68 -33 -88 -33q-26 0 -215 264q-26 -33 -68.5 -80.5t-100.5 -110.5q-81 -69 -162 -73q2 6 70 80q23 26 56 64.5t78 92.5q11 18 29.5 43.5t44.5 58.5q19 20 75 49q55 28 84 30q27 -38 165 -219q26 -42 92 -112q9 -8 9 -9z" />
<glyph unicode="&#xd5;" horiz-adv-x="935" d="M92 0zM833 87q-17 -24 -83 -56q-65 -31 -98 -31q-8 0 -9 24q-102 66 -305 66q-30 0 -61.5 -1.5t-64.5 -3.5q-48 -22 -79 -25q0 19 2.5 64.5t7.5 119.5q8 118 12.5 236.5t4.5 238.5q0 312 -29 390q-1 2 -5 10.5t-12 22.5q-12 19 -12 34t73 52t93 30q86 16 210.5 42.5 t291.5 64.5l7 -13q-12 -531 -12 -548q0 -197 11.5 -371t34.5 -329zM626 166q-14 131 -21.5 270t-7.5 288q0 511 19 558q-36 -10 -117 -27t-209 -43q7 -20 12 -59.5t7 -99.5q8 -149 12.5 -232.5t4.5 -103.5q0 -106 -6.5 -243t-19.5 -310q121 12 193 12q30 0 63 -2.5t70 -7.5z M848 1702q0 -82 -118 -167q-119 -84 -219 -84q-75 0 -110 77q-35 78 -96 87q-8 -15 -20.5 -36.5t-29.5 -49.5q-7 -10 -24.5 -21.5t-46.5 -24.5q-60 -26 -89 -29l-3 2v1q0 10 17 38q40 67 148 134q107 67 193 67q73 0 108 -77q34 -75 88 -83q5 14 13.5 35.5t19.5 49.5 q11 22 74 50q32 14 55.5 22t39.5 9z" />
<glyph unicode="&#xd6;" horiz-adv-x="935" d="M102 0zM833 87q-17 -24 -83 -56q-65 -31 -98 -31q-8 0 -9 24q-102 66 -305 66q-30 0 -61.5 -1.5t-64.5 -3.5q-48 -22 -79 -25q0 19 2.5 64.5t7.5 119.5q8 118 12.5 236.5t4.5 238.5q0 312 -29 390q-1 2 -5 10.5t-12 22.5q-12 19 -12 34t73 52t93 30q86 16 210.5 42.5 t291.5 64.5l7 -13q-12 -531 -12 -548q0 -197 11.5 -371t34.5 -329zM626 166q-14 131 -21.5 270t-7.5 288q0 511 19 558q-36 -10 -117 -27t-209 -43q7 -20 12 -59.5t7 -99.5q8 -149 12.5 -232.5t4.5 -103.5q0 -106 -6.5 -243t-19.5 -310q121 12 193 12q30 0 63 -2.5t70 -7.5z M810 1531q0 -11 -70 -45q-72 -35 -87 -35q-10 0 -65 34q-14 8 -36 18.5t-51 22.5q4 11 71 46q67 34 84 34q18 0 85 -34q69 -33 69 -41zM416 1531q0 -11 -71 -46q-69 -32 -93 -34q-36 14 -121 73q133 84 160 84q7 0 66 -36t59 -41z" />
<glyph unicode="&#xd7;" horiz-adv-x="1027" d="M874 853q-120 -80 -294 -198q62 -44 112.5 -76.5t92.5 -54.5q11 -6 28 -14t40 -18q11 -2 11 -4q0 -12 -70 -48q-71 -36 -89 -36q-48 0 -258 147q-27 -22 -53 -44t-54 -42.5t-58 -38.5t-65 -32q-25 -10 -41 -12l-4 2q14 32 236 196q-30 23 -75 56.5t-106 78.5 q-27 16 -73 53v5q0 10 70 43q69 34 87 34q2 0 4 -0.5l6 -1.5q38 -29 94 -71t131 -99q54 35 94.5 61t66.5 43q121 73 163 75z" />
<glyph unicode="&#xd8;" horiz-adv-x="935" d="M833 87q-23 -26 -85 -57q-62 -30 -96 -30q-8 0 -9 24q-102 66 -305 66q-30 0 -61.5 -1.5t-64.5 -3.5q-23 -10 -42.5 -16.5t-36.5 -8.5q0 19 2.5 64.5t7.5 119.5q8 118 12.5 246t4.5 271q0 284 -29 348t-29 67q0 15 73 52t93 30q86 16 210.5 42.5t291.5 64.5l7 -13 q-12 -530 -12 -548q0 -197 11.5 -371t34.5 -329zM616 1282q-38 -11 -119 -28t-207 -42q7 -22 12 -61.5t7 -97.5q19 -335 15 -462q23 45 57.5 110.5t81.5 155.5q122 245 153 425zM626 166q-15 135 -22.5 313t-6.5 402q-7 -14 -56 -112.5t-143 -283.5q-38 -65 -87 -174 q0 -2 -3 -38.5t-8 -108.5q120 12 193 12q30 0 63 -2.5t70 -7.5z" />
<glyph unicode="&#xd9;" d="M102 0zM860 1362q0 6 -2 0.5t-6 -22.5q-1 -28 -9 -82q-4 -30 -9 -74t-13 -104q-39 -344 -39 -633q0 -78 2 -135t6 -95q1 -7 3.5 -24t6.5 -45q9 -41 9 -68q0 -19 -73 -49q-32 -13 -56.5 -21t-41.5 -10q-5 48 -82 77q-57 22 -126 22q-48 0 -123 -12q-20 -23 -78 -54 q-57 -32 -87 -33q5 69 7.5 155t2.5 191q0 303 -10.5 519.5t-30.5 351.5q-9 52 -9 68q0 18 72 50q64 27 94 30q25 -167 37 -346.5t12 -376.5q0 -79 -2 -202.5t-6 -294.5q113 22 191 31t123 7q-9 121 -9 204q0 217 48 669q4 96 27 231q11 20 74 50t90 30q7 -1 7 -5zM572 1531 q-1 -15 -71 -48q-70 -32 -91 -32q-4 0 -44 70q-44 80 -139 242q-1 1 -1 3q0 22 63 51q62 28 94 28q24 0 99 -145q42 -81 64 -123t26 -46z" />
<glyph unicode="&#xda;" d="M102 0zM860 1362q0 6 -2 0.5t-6 -22.5q-1 -28 -9 -82q-4 -30 -9 -74t-13 -104q-39 -344 -39 -633q0 -78 2 -135t6 -95q1 -7 3.5 -24t6.5 -45q9 -41 9 -68q0 -19 -73 -49q-32 -13 -56.5 -21t-41.5 -10q-5 48 -82 77q-57 22 -126 22q-48 0 -123 -12q-20 -23 -78 -54 q-57 -32 -87 -33q5 69 7.5 155t2.5 191q0 303 -10.5 519.5t-30.5 351.5q-9 52 -9 68q0 18 72 50q64 27 94 30q25 -167 37 -346.5t12 -376.5q0 -79 -2 -202.5t-6 -294.5q113 22 191 31t123 7q-9 121 -9 204q0 217 48 669q4 96 27 231q11 20 74 50t90 30q7 -1 7 -5zM848 1843 q-17 -27 -48 -75q-38 -63 -72 -126q-51 -84 -87 -114t-114 -60q-45 -17 -79 -17q-6 0 -6 1t18 30q10 14 31.5 49.5t55.5 93.5q27 49 96 145q15 19 92 48q78 29 106 29q3 0 7 -4z" />
<glyph unicode="&#xdb;" d="M102 0zM860 1362q0 6 -2 0.5t-6 -22.5q-1 -28 -9 -82q-4 -30 -9 -74t-13 -104q-39 -344 -39 -633q0 -78 2 -135t6 -95q1 -7 3.5 -24t6.5 -45q9 -41 9 -68q0 -19 -73 -49q-32 -13 -56.5 -21t-41.5 -10q-5 48 -82 77q-57 22 -126 22q-48 0 -123 -12q-20 -23 -78 -54 q-57 -32 -87 -33q5 69 7.5 155t2.5 191q0 303 -10.5 519.5t-30.5 351.5q-9 52 -9 68q0 18 72 50q64 27 94 30q25 -167 37 -346.5t12 -376.5q0 -79 -2 -202.5t-6 -294.5q113 22 191 31t123 7q-9 121 -9 204q0 217 48 669q4 96 27 231q11 20 74 50t90 30q7 -1 7 -5zM834 1529 q0 -12 -69 -45q-68 -33 -88 -33q-26 0 -215 264q-26 -33 -68.5 -80.5t-100.5 -110.5q-81 -69 -162 -73q2 6 70 80q23 26 56 64.5t78 92.5q11 18 29.5 43.5t44.5 58.5q19 20 75 49q55 28 84 30q27 -38 165 -219q26 -42 92 -112q9 -8 9 -9z" />
<glyph unicode="&#xdc;" d="M102 0zM860 1362q0 6 -2 0.5t-6 -22.5q-1 -28 -9 -82q-4 -30 -9 -74t-13 -104q-39 -344 -39 -633q0 -78 2 -135t6 -95q1 -7 3.5 -24t6.5 -45q9 -41 9 -68q0 -19 -73 -49q-32 -13 -56.5 -21t-41.5 -10q-5 48 -82 77q-57 22 -126 22q-48 0 -123 -12q-20 -23 -78 -54 q-57 -32 -87 -33q5 69 7.5 155t2.5 191q0 303 -10.5 519.5t-30.5 351.5q-9 52 -9 68q0 18 72 50q64 27 94 30q25 -167 37 -346.5t12 -376.5q0 -79 -2 -202.5t-6 -294.5q113 22 191 31t123 7q-9 121 -9 204q0 217 48 669q4 96 27 231q11 20 74 50t90 30q7 -1 7 -5zM822 1531 q0 -11 -70 -45q-72 -35 -87 -35q-10 0 -65 34q-14 8 -36 18.5t-51 22.5q4 11 71 46q67 34 84 34q18 0 85 -34q69 -33 69 -41zM428 1531q0 -11 -71 -46q-69 -32 -93 -34q-36 14 -121 73q133 84 160 84q7 0 66 -36t59 -41z" />
<glyph unicode="&#xdd;" horiz-adv-x="939" d="M51 0zM836 1364q0 -57 -15 -144q-20 -128 -21 -141q-17 -161 -26 -330.5t-9 -349.5q0 -204 20 -302q3 -18 3 -17q0 -15 -71 -48q-72 -32 -92 -32q-7 0 -4 17q-55 79 -203 79q-23 0 -51.5 -3t-62.5 -8q-13 -21 -76 -52q-62 -30 -93 -33q0 26 6 77t6 78q0 39 -5 57 q-16 39 -16 50q0 9 70 42q65 28 94 32q24 -24 24 -112q0 -23 -1.5 -43.5t-3.5 -37.5q107 19 180 27.5t115 6.5q-5 76 -7 144.5t-1 129.5q-11 2 -77 27q-65 27 -128 27q-38 0 -82 -2.5t-94 -7.5q-28 -13 -59 -24t-66 -20q0 58 6 175q6 118 6 178q0 105 -5 185.5t-15 140.5 q-1 6 -6 24.5t-13 50.5q-12 46 -12 77q0 17 72 49q32 14 55 23t37 11q22 -28 38 -228q7 -81 10 -143.5t3 -107.5q0 -51 -2 -131t-6 -192q122 28 264 28q14 0 34 -1t45 -3q2 55 12.5 172.5t28.5 300.5q2 93 27 223q14 23 72 50q60 28 90 32zM836 1843q-17 -27 -48 -75 q-38 -63 -72 -126q-51 -84 -87 -114t-114 -60q-45 -17 -79 -17q-6 0 -6 1t18 30q10 14 31.5 49.5t55.5 93.5q27 49 96 145q15 19 92 48q78 29 106 29q3 0 7 -4z" />
<glyph unicode="&#xde;" horiz-adv-x="935" d="M853 918q0 -48 -1.5 -118.5t-5.5 -166.5q-6 -189 -6 -285q0 -17 -67 -50q-67 -32 -90 -32q-3 0 -9 2q-119 84 -328 84q2 0 -9.5 -1t-36.5 -3q-5 -99 -7.5 -160t-2.5 -87q0 -15 -2 -21q-8 -21 -72 -49q-32 -14 -55.5 -22t-39.5 -9q0 2 12 208q7 120 10.5 230t3.5 212 q0 140 -4 254t-12 207q-3 38 -7.5 69.5t-9.5 56.5q-12 63 -12 48q0 22 67 50t99 30q28 -37 32 -162q2 -45 3 -88.5t2 -88.5q166 39 495 123q10 2 17 3.5t12 1.5q7 0 12 -50q12 -98 12 -186zM686 838q0 66 -5 122.5t-15 107.5q-48 -14 -137.5 -35.5t-221.5 -52.5 q4 -54 5.5 -114t1.5 -129q0 -89 -1.5 -167.5t-5.5 -147.5q63 5 112 8t84 3q93 0 164 -13q0 33 3 84.5t8 123.5q4 69 6 121t2 89z" />
<glyph unicode="&#xdf;" horiz-adv-x="1012" d="M910 596q0 -35 -6.5 -121t-19.5 -224q0 -28 -3.5 -69t-10.5 -95q-7 -18 -70 -52q-65 -35 -87 -35q-2 0 -65 23q-31 11 -51.5 17.5t-31.5 8.5q-7 1 -20 1.5t-33 0.5q-14 0 -29 -1.5t-29 -3.5q-78 -45 -113 -46l-5 3q1 5 16 17q158 113 322 113q10 0 19.5 -0.5t19.5 -1.5 q14 166 21 272t7 155q0 87 -7 109q-13 40 -113 40q-10 0 -24 1.5t-33 3.5t-32.5 3.5t-21.5 1.5t-38.5 0.5t-84.5 1.5q0 29 93 56q78 25 124 25q-5 54 -7.5 95.5t-2.5 72.5q0 174 48 312q-17 -8 -33.5 -14.5t-33.5 -11.5q-48 -16 -119.5 -39t-168.5 -53q12 -182 12 -445 q0 -136 -6.5 -344.5t-19.5 -495.5q0 -14 -1.5 -35t-5.5 -49q-3 -18 -70 -48q-67 -31 -94 -32q0 34 12 297q8 178 12.5 334t4.5 294q0 249 -12 437q-2 10 -4 36t-6 70q-4 32 -5.5 58t-1.5 46q0 17 70 48q35 16 58.5 23.5t35.5 8.5q2 -8 5.5 -46.5t8.5 -110.5q56 0 172 40 q42 14 84.5 29t86.5 30q35 13 80.5 27.5t102.5 30.5q1 -1 1 -10q0 -4 -22 -99q-26 -109 -26 -208q0 -97 21 -253l50 -10t69 -15q5 -35 8 -78.5t3 -95.5z" />
<glyph unicode="&#xe0;" d="M102 0zM860 80q0 -17 -71 -49q-69 -31 -94 -31q-7 0 -7 5q0 4 2.5 9t2.5 8q0 -4 -21 142q-9 64 -15 157t-10 218q-111 -47 -336 -129q-8 -82 -17.5 -165.5t-20.5 -169.5q-20 -23 -79 -48q-58 -25 -92 -27q11 41 40 302q17 182 26 330.5t9 266.5q0 111 -6 198 q-8 88 -12.5 134.5t-4.5 53.5q0 18 71 50q61 25 96 30q8 -65 12.5 -102t4.5 -48q40 5 119 21q23 5 67.5 22.5t113.5 48.5q61 26 104.5 41t69.5 17q9 -17 9 -30q0 14 -1.5 -28.5t-3.5 -142.5t-3 -190t-1 -172q0 -418 40 -654q4 -26 6 -43t2 -25zM655 1278q-51 -21 -129.5 -50 t-184.5 -66q2 -35 3.5 -80t1.5 -102q0 -239 -27 -504l17.5 -3.5t13.5 -1.5q63 0 297 99q-1 48 -1.5 85.5t-0.5 66.5q0 40 0.5 100.5t1.5 141.5t1.5 141.5t0.5 101.5q0 44 6 71zM572 1531q-1 -15 -71 -48q-70 -32 -91 -32q-4 0 -44 70q-44 80 -139 242q-1 1 -1 3q0 22 63 51 q62 28 94 28q24 0 99 -145q42 -81 64 -123t26 -46z" />
<glyph unicode="&#xe1;" d="M102 0zM860 80q0 -17 -71 -49q-69 -31 -94 -31q-7 0 -7 5q0 4 2.5 9t2.5 8q0 -4 -21 142q-9 64 -15 157t-10 218q-111 -47 -336 -129q-8 -82 -17.5 -165.5t-20.5 -169.5q-20 -23 -79 -48q-58 -25 -92 -27q11 41 40 302q17 182 26 330.5t9 266.5q0 111 -6 198 q-8 88 -12.5 134.5t-4.5 53.5q0 18 71 50q61 25 96 30q8 -65 12.5 -102t4.5 -48q40 5 119 21q23 5 67.5 22.5t113.5 48.5q61 26 104.5 41t69.5 17q9 -17 9 -30q0 14 -1.5 -28.5t-3.5 -142.5t-3 -190t-1 -172q0 -418 40 -654q4 -26 6 -43t2 -25zM655 1278q-51 -21 -129.5 -50 t-184.5 -66q2 -35 3.5 -80t1.5 -102q0 -239 -27 -504l17.5 -3.5t13.5 -1.5q63 0 297 99q-1 48 -1.5 85.5t-0.5 66.5q0 40 0.5 100.5t1.5 141.5t1.5 141.5t0.5 101.5q0 44 6 71zM848 1843q-17 -27 -48 -75q-38 -63 -72 -126q-51 -84 -87 -114t-114 -60q-45 -17 -79 -17 q-6 0 -6 1t18 30q10 14 31.5 49.5t55.5 93.5q27 49 96 145q15 19 92 48q78 29 106 29q3 0 7 -4z" />
<glyph unicode="&#xe2;" d="M102 0zM860 80q0 -17 -71 -49q-69 -31 -94 -31q-7 0 -7 5q0 4 2.5 9t2.5 8q0 -4 -21 142q-9 64 -15 157t-10 218q-111 -47 -336 -129q-8 -82 -17.5 -165.5t-20.5 -169.5q-20 -23 -79 -48q-58 -25 -92 -27q11 41 40 302q17 182 26 330.5t9 266.5q0 111 -6 198 q-8 88 -12.5 134.5t-4.5 53.5q0 18 71 50q61 25 96 30q8 -65 12.5 -102t4.5 -48q40 5 119 21q23 5 67.5 22.5t113.5 48.5q61 26 104.5 41t69.5 17q9 -17 9 -30q0 14 -1.5 -28.5t-3.5 -142.5t-3 -190t-1 -172q0 -418 40 -654q4 -26 6 -43t2 -25zM655 1278q-51 -21 -129.5 -50 t-184.5 -66q2 -35 3.5 -80t1.5 -102q0 -239 -27 -504l17.5 -3.5t13.5 -1.5q63 0 297 99q-1 48 -1.5 85.5t-0.5 66.5q0 40 0.5 100.5t1.5 141.5t1.5 141.5t0.5 101.5q0 44 6 71zM834 1529q0 -12 -69 -45q-68 -33 -88 -33q-26 0 -215 264q-26 -33 -68.5 -80.5t-100.5 -110.5 q-81 -69 -162 -73q2 6 70 80q23 26 56 64.5t78 92.5q11 18 29.5 43.5t44.5 58.5q19 20 75 49q55 28 84 30q27 -38 165 -219q26 -42 92 -112q9 -8 9 -9z" />
<glyph unicode="&#xe3;" d="M102 0zM860 80q0 -17 -71 -49q-69 -31 -94 -31q-7 0 -7 5q0 4 2.5 9t2.5 8q0 -4 -21 142q-9 64 -15 157t-10 218q-111 -47 -336 -129q-8 -82 -17.5 -165.5t-20.5 -169.5q-20 -23 -79 -48q-58 -25 -92 -27q11 41 40 302q17 182 26 330.5t9 266.5q0 111 -6 198 q-8 88 -12.5 134.5t-4.5 53.5q0 18 71 50q61 25 96 30q8 -65 12.5 -102t4.5 -48q40 5 119 21q23 5 67.5 22.5t113.5 48.5q61 26 104.5 41t69.5 17q9 -17 9 -30q0 14 -1.5 -28.5t-3.5 -142.5t-3 -190t-1 -172q0 -418 40 -654q4 -26 6 -43t2 -25zM655 1278q-51 -21 -129.5 -50 t-184.5 -66q2 -35 3.5 -80t1.5 -102q0 -239 -27 -504l17.5 -3.5t13.5 -1.5q63 0 297 99q-1 48 -1.5 85.5t-0.5 66.5q0 40 0.5 100.5t1.5 141.5t1.5 141.5t0.5 101.5q0 44 6 71zM860 1702q0 -82 -118 -167q-119 -84 -219 -84q-75 0 -110 77q-35 78 -96 87q-8 -15 -20.5 -36.5 t-29.5 -49.5q-7 -10 -24.5 -21.5t-46.5 -24.5q-60 -26 -89 -29l-3 2v1q0 10 17 38q40 67 148 134q107 67 193 67q73 0 108 -77q34 -75 88 -83q5 14 13.5 35.5t19.5 49.5q11 22 74 50q32 14 55.5 22t39.5 9z" />
<glyph unicode="&#xe4;" d="M102 0zM860 80q0 -17 -71 -49q-69 -31 -94 -31q-7 0 -7 5q0 4 2.5 9t2.5 8q0 -4 -21 142q-9 64 -15 157t-10 218q-111 -47 -336 -129q-8 -82 -17.5 -165.5t-20.5 -169.5q-20 -23 -79 -48q-58 -25 -92 -27q11 41 40 302q17 182 26 330.5t9 266.5q0 111 -6 198 q-8 88 -12.5 134.5t-4.5 53.5q0 18 71 50q61 25 96 30q8 -65 12.5 -102t4.5 -48q40 5 119 21q23 5 67.5 22.5t113.5 48.5q61 26 104.5 41t69.5 17q9 -17 9 -30q0 14 -1.5 -28.5t-3.5 -142.5t-3 -190t-1 -172q0 -418 40 -654q4 -26 6 -43t2 -25zM655 1278q-51 -21 -129.5 -50 t-184.5 -66q2 -35 3.5 -80t1.5 -102q0 -239 -27 -504l17.5 -3.5t13.5 -1.5q63 0 297 99q-1 48 -1.5 85.5t-0.5 66.5q0 40 0.5 100.5t1.5 141.5t1.5 141.5t0.5 101.5q0 44 6 71zM822 1531q0 -11 -70 -45q-72 -35 -87 -35q-10 0 -65 34q-14 8 -36 18.5t-51 22.5q4 11 71 46 q67 34 84 34q18 0 85 -34q69 -33 69 -41zM428 1531q0 -11 -71 -46q-69 -32 -93 -34q-36 14 -121 73q133 84 160 84q7 0 66 -36t59 -41z" />
<glyph unicode="&#xe5;" d="M102 0zM860 80q0 -17 -71 -49q-69 -31 -94 -31q-7 0 -7 5q0 4 2.5 9t2.5 8q0 -4 -21 142q-9 64 -15 157t-10 218q-111 -47 -336 -129q-8 -82 -17.5 -165.5t-20.5 -169.5q-20 -23 -79 -48q-58 -25 -92 -27q11 41 40 302q17 182 26 330.5t9 266.5q0 111 -6 198 q-8 88 -12.5 134.5t-4.5 53.5q0 18 71 50q61 25 96 30q8 -65 12.5 -102t4.5 -48q40 5 119 21q23 5 67.5 22.5t113.5 48.5q61 26 104.5 41t69.5 17q9 -17 9 -30q0 14 -1.5 -28.5t-3.5 -142.5t-3 -190t-1 -172q0 -418 40 -654q4 -26 6 -43t2 -25zM655 1278q-51 -21 -129.5 -50 t-184.5 -66q2 -35 3.5 -80t1.5 -102q0 -239 -27 -504l17.5 -3.5t13.5 -1.5q63 0 297 99q-1 48 -1.5 85.5t-0.5 66.5q0 40 0.5 100.5t1.5 141.5t1.5 141.5t0.5 101.5q0 44 6 71zM773 1538l-162 -87q-17 29 -137 29q-15 0 -38.5 -0.5t-55.5 -1.5h-93q-7 0 -79 -9 q11 62 16.5 105t5.5 68q0 136 -42 169q113 83 163 83q11 0 103 9q36 2 89 6.5t124 10.5q13 2 32 3.5t45 3.5q-3 -74 -3 -169q0 -130 32 -220zM580 1562q-4 27 -5.5 60t-1.5 71v39q0 82 7 111q-8 -2 -189 -15q4 -20 6 -44.5t2 -54.5q0 -49 -24 -173q159 7 205 6z" />
<glyph unicode="&#xe6;" horiz-adv-x="1457" d="M1355 183q0 -70 -22 -110q-14 -27 -70 -50q-57 -23 -96 -23q-52 73 -203 73q-22 0 -51 -2.5t-66 -7.5q-23 -14 -76 -37q-57 -26 -78 -26q-9 25 -21 140q-20 198 -27 399q-56 -22 -140 -53t-198 -71q-5 -40 -12 -99t-17 -139q0 -17 -2.5 -41t-7.5 -56q-4 -19 -71 -49 q-33 -14 -57 -22t-38 -9q0 22 9 87l24 200q20 186 30.5 337t10.5 269q0 100 -4.5 185.5t-14.5 158.5q-2 25 -3.5 35.5t-1.5 5.5q0 17 67 51t95 36q21 -14 21 -155q38 4 119 21q32 7 191 75q144 59 166 59q2 0 5 -1v-125q54 20 118.5 39.5t140.5 39.5q186 47 263 47 q1 -2 0 -3q-7 -4 -19 -12q-49 -37 -66 -94q-2 -7 -6 -34t-10 -75q-2 -21 -10 -53q-7 -20 -73 -49q-63 -28 -96 -31q5 186 109 273q-60 -12 -147 -32.5t-204 -49.5q-4 -125 -5.5 -224.5t-1.5 -176.5v-79q10 0 24 -1t33 -3q20 -2 34.5 -3t24.5 -1q23 0 56.5 2t78.5 6 q90 9 135 9l1 -2q-11 -15 -53 -39q-63 -37 -107 -41q-63 -7 -119.5 -12t-107.5 -7q4 -130 14.5 -256.5t28.5 -253.5q211 36 271 36q14 0 30 -1.5t35 -3.5q-5 31 -27 116q-18 73 -18 117q0 15 72 50q32 16 55 24.5t37 9.5l4 -3q2 -13 4.5 -33t7.5 -46q16 -99 24 -150t8 -56z M654 1277v1q-52 -22 -130.5 -52.5t-185.5 -68.5q4 -52 5.5 -98t1.5 -86q0 -96 -7.5 -220t-23.5 -279q13 -3 31 -3q63 0 300 97q-3 181 -3 156q0 91 6 276q6 184 6 277z" />
<glyph unicode="&#xe8;" horiz-adv-x="915" d="M102 0zM812 186q0 -77 -20 -109q-11 -18 -75 -47q-61 -28 -89 -30q-64 79 -205 79q-22 0 -57.5 -4.5t-85.5 -14.5q-83 -56 -149 -60q2 38 5 93.5t7 130.5q8 149 12.5 254.5t4.5 171.5q0 46 -4.5 149t-12.5 266q0 26 -4.5 64t-12.5 90q-12 30 -24 63q0 18 70 49 q63 31 93 34q25 -16 34 -111q204 75 399 105q46 6 61 6h14q10 0 24 -1q-1 -3 -17 -16q-57 -48 -67 -88q-2 -24 -3 -48.5t-3 -49.5q-1 -36 -23 -70q-16 -23 -76 -49q-27 -11 -89 -31q1 183 109 277q-54 -11 -134 -29.5t-189 -44.5q21 -288 21 -483q10 0 23.5 -1.5t32.5 -3.5 t33.5 -3.5t24.5 -1.5q23 0 56.5 2t79.5 6q91 9 137 9q-12 -18 -51 -41q-56 -32 -109 -41q-38 -6 -94.5 -10.5t-132.5 -8.5q-2 -123 -8 -250.5t-14 -261.5q190 36 278 36q14 0 30 -1.5t33 -3.5q-3 23 -24 118q-8 37 -12.5 66.5t-4.5 52.5q0 17 70 48q35 16 58.5 23.5 t35.5 8.5q1 -5 4.5 -25.5t9.5 -57.5q30 -195 30 -205zM548 1531q-1 -15 -71 -48q-70 -32 -91 -32q-4 0 -44 70q-44 80 -139 242q-1 1 -1 3q0 22 63 51q62 28 94 28q24 0 99 -145q42 -81 64 -123t26 -46z" />
<glyph unicode="&#xe9;" horiz-adv-x="915" d="M102 0zM812 186q0 -77 -20 -109q-11 -18 -75 -47q-61 -28 -89 -30q-64 79 -205 79q-22 0 -57.5 -4.5t-85.5 -14.5q-83 -56 -149 -60q2 38 5 93.5t7 130.5q8 149 12.5 254.5t4.5 171.5q0 46 -4.5 149t-12.5 266q0 26 -4.5 64t-12.5 90q-12 30 -24 63q0 18 70 49 q63 31 93 34q25 -16 34 -111q204 75 399 105q46 6 61 6h14q10 0 24 -1q-1 -3 -17 -16q-57 -48 -67 -88q-2 -24 -3 -48.5t-3 -49.5q-1 -36 -23 -70q-16 -23 -76 -49q-27 -11 -89 -31q1 183 109 277q-54 -11 -134 -29.5t-189 -44.5q21 -288 21 -483q10 0 23.5 -1.5t32.5 -3.5 t33.5 -3.5t24.5 -1.5q23 0 56.5 2t79.5 6q91 9 137 9q-12 -18 -51 -41q-56 -32 -109 -41q-38 -6 -94.5 -10.5t-132.5 -8.5q-2 -123 -8 -250.5t-14 -261.5q190 36 278 36q14 0 30 -1.5t33 -3.5q-3 23 -24 118q-8 37 -12.5 66.5t-4.5 52.5q0 17 70 48q35 16 58.5 23.5 t35.5 8.5q1 -5 4.5 -25.5t9.5 -57.5q30 -195 30 -205zM825 1843q-17 -27 -48 -75q-38 -63 -72 -126q-51 -84 -87 -114t-114 -60q-45 -17 -79 -17q-6 0 -6 1t18 30q10 14 31.5 49.5t55.5 93.5q27 49 96 145q15 19 92 48q78 29 106 29q3 0 7 -4z" />
<glyph unicode="&#xea;" horiz-adv-x="915" d="M102 0zM812 186q0 -77 -20 -109q-11 -18 -75 -47q-61 -28 -89 -30q-64 79 -205 79q-22 0 -57.5 -4.5t-85.5 -14.5q-83 -56 -149 -60q2 38 5 93.5t7 130.5q8 149 12.5 254.5t4.5 171.5q0 46 -4.5 149t-12.5 266q0 26 -4.5 64t-12.5 90q-12 30 -24 63q0 18 70 49 q63 31 93 34q25 -16 34 -111q204 75 399 105q46 6 61 6h14q10 0 24 -1q-1 -3 -17 -16q-57 -48 -67 -88q-2 -24 -3 -48.5t-3 -49.5q-1 -36 -23 -70q-16 -23 -76 -49q-27 -11 -89 -31q1 183 109 277q-54 -11 -134 -29.5t-189 -44.5q21 -288 21 -483q10 0 23.5 -1.5t32.5 -3.5 t33.5 -3.5t24.5 -1.5q23 0 56.5 2t79.5 6q91 9 137 9q-12 -18 -51 -41q-56 -32 -109 -41q-38 -6 -94.5 -10.5t-132.5 -8.5q-2 -123 -8 -250.5t-14 -261.5q190 36 278 36q14 0 30 -1.5t33 -3.5q-3 23 -24 118q-8 37 -12.5 66.5t-4.5 52.5q0 17 70 48q35 16 58.5 23.5 t35.5 8.5q1 -5 4.5 -25.5t9.5 -57.5q30 -195 30 -205zM810 1529q0 -12 -69 -45q-68 -33 -88 -33q-26 0 -215 264q-26 -33 -68.5 -80.5t-100.5 -110.5q-81 -69 -162 -73q2 6 70 80q23 26 56 64.5t78 92.5q11 18 29.5 43.5t44.5 58.5q19 20 75 49q55 28 84 30q27 -38 165 -219 q26 -42 92 -112q9 -8 9 -9z" />
<glyph unicode="&#xeb;" horiz-adv-x="915" d="M102 0zM812 186q0 -77 -20 -109q-11 -18 -75 -47q-61 -28 -89 -30q-64 79 -205 79q-22 0 -57.5 -4.5t-85.5 -14.5q-83 -56 -149 -60q2 38 5 93.5t7 130.5q8 149 12.5 254.5t4.5 171.5q0 46 -4.5 149t-12.5 266q0 26 -4.5 64t-12.5 90q-12 30 -24 63q0 18 70 49 q63 31 93 34q25 -16 34 -111q204 75 399 105q46 6 61 6h14q10 0 24 -1q-1 -3 -17 -16q-57 -48 -67 -88q-2 -24 -3 -48.5t-3 -49.5q-1 -36 -23 -70q-16 -23 -76 -49q-27 -11 -89 -31q1 183 109 277q-54 -11 -134 -29.5t-189 -44.5q21 -288 21 -483q10 0 23.5 -1.5t32.5 -3.5 t33.5 -3.5t24.5 -1.5q23 0 56.5 2t79.5 6q91 9 137 9q-12 -18 -51 -41q-56 -32 -109 -41q-38 -6 -94.5 -10.5t-132.5 -8.5q-2 -123 -8 -250.5t-14 -261.5q190 36 278 36q14 0 30 -1.5t33 -3.5q-3 23 -24 118q-8 37 -12.5 66.5t-4.5 52.5q0 17 70 48q35 16 58.5 23.5 t35.5 8.5q1 -5 4.5 -25.5t9.5 -57.5q30 -195 30 -205zM800 1531q0 -11 -70 -45q-72 -35 -87 -35q-10 0 -65 34q-14 8 -36 18.5t-51 22.5q4 11 71 46q67 34 84 34q18 0 85 -34q69 -33 69 -41zM406 1531q0 -11 -71 -46q-69 -32 -93 -34q-36 14 -121 73q133 84 160 84 q7 0 66 -36t59 -41z" />
<glyph unicode="&#xec;" horiz-adv-x="408" d="M0 0zM305 838q0 -48 -2.5 -147t-7.5 -252q-12 -339 -20 -352q-20 -26 -75 -54q-56 -29 -94 -33q-4 4 -4 9q0 -6 1.5 0t5.5 23q1 8 4.5 66.5t9.5 167.5q8 155 12.5 277t4.5 215q0 149 -15 346q-1 19 -3.5 48t-7.5 67q-4 29 -6 46t-2 22q0 19 71 48q60 24 98 30 q30 -261 30 -527zM296 1531q-1 -15 -71 -48q-70 -32 -91 -32q-4 0 -44 70q-44 80 -139 242q-1 1 -1 3q0 22 63 51q62 28 94 28q24 0 99 -145q42 -81 64 -123t26 -46z" />
<glyph unicode="&#xed;" horiz-adv-x="408" d="M102 0zM305 838q0 -48 -2.5 -147t-7.5 -252q-12 -339 -20 -352q-20 -26 -75 -54q-56 -29 -94 -33q-4 4 -4 9q0 -6 1.5 0t5.5 23q1 8 4.5 66.5t9.5 167.5q8 155 12.5 277t4.5 215q0 149 -15 346q-1 19 -3.5 48t-7.5 67q-4 29 -6 46t-2 22q0 19 71 48q60 24 98 30 q30 -261 30 -527zM530 1843q-17 -27 -48 -75q-38 -63 -72 -126q-51 -84 -87 -114t-114 -60q-45 -17 -79 -17q-6 0 -6 1t18 30q10 14 31.5 49.5t55.5 93.5q27 49 96 145q15 19 92 48q78 29 106 29q3 0 7 -4z" />
<glyph unicode="&#xee;" horiz-adv-x="408" d="M0 0zM305 838q0 -48 -2.5 -147t-7.5 -252q-12 -339 -20 -352q-20 -26 -75 -54q-56 -29 -94 -33q-4 4 -4 9q0 -6 1.5 0t5.5 23q1 8 4.5 66.5t9.5 167.5q8 155 12.5 277t4.5 215q0 149 -15 346q-1 19 -3.5 48t-7.5 67q-4 29 -6 46t-2 22q0 19 71 48q60 24 98 30 q30 -261 30 -527zM558 1529q0 -12 -69 -45q-68 -33 -88 -33q-26 0 -215 264q-26 -33 -68.5 -80.5t-100.5 -110.5q-81 -69 -162 -73q2 6 70 80q23 26 56 64.5t78 92.5q11 18 29.5 43.5t44.5 58.5q19 20 75 49q55 28 84 30q27 -38 165 -219q26 -42 92 -112q9 -8 9 -9z" />
<glyph unicode="&#xef;" horiz-adv-x="408" d="M0 0zM305 838q0 -48 -2.5 -147t-7.5 -252q-12 -339 -20 -352q-20 -26 -75 -54q-56 -29 -94 -33q-4 4 -4 9q0 -6 1.5 0t5.5 23q1 8 4.5 66.5t9.5 167.5q8 155 12.5 277t4.5 215q0 149 -15 346q-1 19 -3.5 48t-7.5 67q-4 29 -6 46t-2 22q0 19 71 48q60 24 98 30 q30 -261 30 -527zM546 1531q0 -11 -70 -45q-72 -35 -87 -35q-10 0 -65 34q-14 8 -36 18.5t-51 22.5q4 11 71 46q67 34 84 34q18 0 85 -34q69 -33 69 -41zM152 1531q0 -11 -71 -46q-69 -32 -93 -34q-36 14 -121 73q133 84 160 84q7 0 66 -36t59 -41z" />
<glyph unicode="&#xf1;" horiz-adv-x="959" d="M102 0zM857 82q0 -17 -70 -48q-55 -25 -91 -34q-12 17 -17 70q-19 217 -28 381t-9 278q0 46 1.5 114.5t3.5 159.5q2 92 3.5 160t1.5 114q-51 -20 -129.5 -48.5t-184.5 -64.5q3 -72 3 -183q0 -78 -6 -179t-19 -229q-16 -158 -25 -259.5t-13 -147.5q0 -33 -10 -86 q-10 -22 -73 -49q-28 -13 -51 -21t-42 -10q0 16 33 288q39 325 39 649q0 56 -1.5 98.5t-5.5 73.5q-8 94 -12.5 138t-4.5 40q0 19 72 49q60 23 95 31q7 -34 10.5 -71.5t3.5 -80.5q20 4 50.5 9t70.5 13q39 9 185 69q130 52 172 54l8 -5l-8 -546q0 -408 39 -657q9 -53 9 -70z M858 1702q0 -82 -118 -167q-119 -84 -219 -84q-75 0 -110 77q-35 78 -96 87q-8 -15 -20.5 -36.5t-29.5 -49.5q-7 -10 -24.5 -21.5t-46.5 -24.5q-60 -26 -89 -29l-3 2v1q0 10 17 38q40 67 148 134q107 67 193 67q73 0 108 -77q34 -75 88 -83q5 14 13.5 35.5t19.5 49.5 q11 22 74 50q32 14 55.5 22t39.5 9z" />
<glyph unicode="&#xf2;" horiz-adv-x="935" d="M102 0zM833 87q-17 -24 -83 -56q-65 -31 -98 -31q-8 0 -9 24q-102 66 -305 66q-30 0 -61.5 -1.5t-64.5 -3.5q-48 -22 -79 -25q0 19 2.5 64.5t7.5 119.5q8 118 12.5 236.5t4.5 238.5q0 312 -29 390q-1 2 -5 10.5t-12 22.5q-12 19 -12 34t73 52t93 30q86 16 210.5 42.5 t291.5 64.5l7 -13q-12 -531 -12 -548q0 -197 11.5 -371t34.5 -329zM626 166q-14 131 -21.5 270t-7.5 288q0 511 19 558q-36 -10 -117 -27t-209 -43q7 -20 12 -59.5t7 -99.5q8 -149 12.5 -232.5t4.5 -103.5q0 -106 -6.5 -243t-19.5 -310q121 12 193 12q30 0 63 -2.5t70 -7.5z M558 1531q-1 -15 -71 -48q-70 -32 -91 -32q-4 0 -44 70q-44 80 -139 242q-1 1 -1 3q0 22 63 51q62 28 94 28q24 0 99 -145q42 -81 64 -123t26 -46z" />
<glyph unicode="&#xf3;" horiz-adv-x="935" d="M102 0zM833 87q-17 -24 -83 -56q-65 -31 -98 -31q-8 0 -9 24q-102 66 -305 66q-30 0 -61.5 -1.5t-64.5 -3.5q-48 -22 -79 -25q0 19 2.5 64.5t7.5 119.5q8 118 12.5 236.5t4.5 238.5q0 312 -29 390q-1 2 -5 10.5t-12 22.5q-12 19 -12 34t73 52t93 30q86 16 210.5 42.5 t291.5 64.5l7 -13q-12 -531 -12 -548q0 -197 11.5 -371t34.5 -329zM626 166q-14 131 -21.5 270t-7.5 288q0 511 19 558q-36 -10 -117 -27t-209 -43q7 -20 12 -59.5t7 -99.5q8 -149 12.5 -232.5t4.5 -103.5q0 -106 -6.5 -243t-19.5 -310q121 12 193 12q30 0 63 -2.5t70 -7.5z M835 1843q-17 -27 -48 -75q-38 -63 -72 -126q-51 -84 -87 -114t-114 -60q-45 -17 -79 -17q-6 0 -6 1t18 30q10 14 31.5 49.5t55.5 93.5q27 49 96 145q15 19 92 48q78 29 106 29q3 0 7 -4z" />
<glyph unicode="&#xf4;" horiz-adv-x="935" d="M102 0zM833 87q-17 -24 -83 -56q-65 -31 -98 -31q-8 0 -9 24q-102 66 -305 66q-30 0 -61.5 -1.5t-64.5 -3.5q-48 -22 -79 -25q0 19 2.5 64.5t7.5 119.5q8 118 12.5 236.5t4.5 238.5q0 312 -29 390q-1 2 -5 10.5t-12 22.5q-12 19 -12 34t73 52t93 30q86 16 210.5 42.5 t291.5 64.5l7 -13q-12 -531 -12 -548q0 -197 11.5 -371t34.5 -329zM626 166q-14 131 -21.5 270t-7.5 288q0 511 19 558q-36 -10 -117 -27t-209 -43q7 -20 12 -59.5t7 -99.5q8 -149 12.5 -232.5t4.5 -103.5q0 -106 -6.5 -243t-19.5 -310q121 12 193 12q30 0 63 -2.5t70 -7.5z M820 1529q0 -12 -69 -45q-68 -33 -88 -33q-26 0 -215 264q-26 -33 -68.5 -80.5t-100.5 -110.5q-81 -69 -162 -73q2 6 70 80q23 26 56 64.5t78 92.5q11 18 29.5 43.5t44.5 58.5q19 20 75 49q55 28 84 30q27 -38 165 -219q26 -42 92 -112q9 -8 9 -9z" />
<glyph unicode="&#xf5;" horiz-adv-x="935" d="M92 0zM833 87q-17 -24 -83 -56q-65 -31 -98 -31q-8 0 -9 24q-102 66 -305 66q-30 0 -61.5 -1.5t-64.5 -3.5q-48 -22 -79 -25q0 19 2.5 64.5t7.5 119.5q8 118 12.5 236.5t4.5 238.5q0 312 -29 390q-1 2 -5 10.5t-12 22.5q-12 19 -12 34t73 52t93 30q86 16 210.5 42.5 t291.5 64.5l7 -13q-12 -531 -12 -548q0 -197 11.5 -371t34.5 -329zM626 166q-14 131 -21.5 270t-7.5 288q0 511 19 558q-36 -10 -117 -27t-209 -43q7 -20 12 -59.5t7 -99.5q8 -149 12.5 -232.5t4.5 -103.5q0 -106 -6.5 -243t-19.5 -310q121 12 193 12q30 0 63 -2.5t70 -7.5z M848 1702q0 -82 -118 -167q-119 -84 -219 -84q-75 0 -110 77q-35 78 -96 87q-8 -15 -20.5 -36.5t-29.5 -49.5q-7 -10 -24.5 -21.5t-46.5 -24.5q-60 -26 -89 -29l-3 2v1q0 10 17 38q40 67 148 134q107 67 193 67q73 0 108 -77q34 -75 88 -83q5 14 13.5 35.5t19.5 49.5 q11 22 74 50q32 14 55.5 22t39.5 9z" />
<glyph unicode="&#xf6;" horiz-adv-x="935" d="M102 0zM833 87q-17 -24 -83 -56q-65 -31 -98 -31q-8 0 -9 24q-102 66 -305 66q-30 0 -61.5 -1.5t-64.5 -3.5q-48 -22 -79 -25q0 19 2.5 64.5t7.5 119.5q8 118 12.5 236.5t4.5 238.5q0 312 -29 390q-1 2 -5 10.5t-12 22.5q-12 19 -12 34t73 52t93 30q86 16 210.5 42.5 t291.5 64.5l7 -13q-12 -531 -12 -548q0 -197 11.5 -371t34.5 -329zM626 166q-14 131 -21.5 270t-7.5 288q0 511 19 558q-36 -10 -117 -27t-209 -43q7 -20 12 -59.5t7 -99.5q8 -149 12.5 -232.5t4.5 -103.5q0 -106 -6.5 -243t-19.5 -310q121 12 193 12q30 0 63 -2.5t70 -7.5z M810 1531q0 -11 -70 -45q-72 -35 -87 -35q-10 0 -65 34q-14 8 -36 18.5t-51 22.5q4 11 71 46q67 34 84 34q18 0 85 -34q69 -33 69 -41zM416 1531q0 -11 -71 -46q-69 -32 -93 -34q-36 14 -121 73q133 84 160 84q7 0 66 -36t59 -41z" />
<glyph unicode="&#xf7;" horiz-adv-x="1068" d="M672 790q-4 -12 -69 -47q-65 -33 -84 -33t-94 30q-76 32 -90 43v4q0 10 71 45q73 35 87 35q-4 0 89 -41q40 -14 90 -36zM915 649q-5 -19 -70 -50q-66 -32 -89 -32q-3 0 -94 6q-46 4 -93 5.5t-96 1.5q-62 0 -115.5 -3t-101.5 -10q-54 -8 -76.5 -12t-15.5 -4q-9 0 -10 4 q7 11 32 27q136 80 451 80q23 0 58 -1.5t81 -5.5q93 -6 139 -6zM655 415q-2 -15 -71 -47q-71 -33 -89 -33q-17 0 -69 40q-51 40 -51 57q0 15 72 48q32 16 54.5 24.5t34.5 9.5z" />
<glyph unicode="&#xf8;" horiz-adv-x="935" d="M833 87q-23 -26 -85 -57q-62 -30 -96 -30q-8 0 -9 24q-102 66 -305 66q-30 0 -61.5 -1.5t-64.5 -3.5q-23 -10 -42.5 -16.5t-36.5 -8.5q0 19 2.5 64.5t7.5 119.5q8 118 12.5 246t4.5 271q0 284 -29 348t-29 67q0 15 73 52t93 30q86 16 210.5 42.5t291.5 64.5l7 -13 q-12 -530 -12 -548q0 -197 11.5 -371t34.5 -329zM616 1282q-38 -11 -119 -28t-207 -42q7 -22 12 -61.5t7 -97.5q19 -335 15 -462q23 45 57.5 110.5t81.5 155.5q122 245 153 425zM626 166q-15 135 -22.5 313t-6.5 402q-7 -14 -56 -112.5t-143 -283.5q-38 -65 -87 -174 q0 -2 -3 -38.5t-8 -108.5q120 12 193 12q30 0 63 -2.5t70 -7.5z" />
<glyph unicode="&#xf9;" d="M102 0zM860 1362q0 6 -2 0.5t-6 -22.5q-1 -28 -9 -82q-4 -30 -9 -74t-13 -104q-39 -344 -39 -633q0 -78 2 -135t6 -95q1 -7 3.5 -24t6.5 -45q9 -41 9 -68q0 -19 -73 -49q-32 -13 -56.5 -21t-41.5 -10q-5 48 -82 77q-57 22 -126 22q-48 0 -123 -12q-20 -23 -78 -54 q-57 -32 -87 -33q5 69 7.5 155t2.5 191q0 303 -10.5 519.5t-30.5 351.5q-9 52 -9 68q0 18 72 50q64 27 94 30q25 -167 37 -346.5t12 -376.5q0 -79 -2 -202.5t-6 -294.5q113 22 191 31t123 7q-9 121 -9 204q0 217 48 669q4 96 27 231q11 20 74 50t90 30q7 -1 7 -5zM572 1531 q-1 -15 -71 -48q-70 -32 -91 -32q-4 0 -44 70q-44 80 -139 242q-1 1 -1 3q0 22 63 51q62 28 94 28q24 0 99 -145q42 -81 64 -123t26 -46z" />
<glyph unicode="&#xfa;" d="M102 0zM860 1362q0 6 -2 0.5t-6 -22.5q-1 -28 -9 -82q-4 -30 -9 -74t-13 -104q-39 -344 -39 -633q0 -78 2 -135t6 -95q1 -7 3.5 -24t6.5 -45q9 -41 9 -68q0 -19 -73 -49q-32 -13 -56.5 -21t-41.5 -10q-5 48 -82 77q-57 22 -126 22q-48 0 -123 -12q-20 -23 -78 -54 q-57 -32 -87 -33q5 69 7.5 155t2.5 191q0 303 -10.5 519.5t-30.5 351.5q-9 52 -9 68q0 18 72 50q64 27 94 30q25 -167 37 -346.5t12 -376.5q0 -79 -2 -202.5t-6 -294.5q113 22 191 31t123 7q-9 121 -9 204q0 217 48 669q4 96 27 231q11 20 74 50t90 30q7 -1 7 -5zM848 1843 q-17 -27 -48 -75q-38 -63 -72 -126q-51 -84 -87 -114t-114 -60q-45 -17 -79 -17q-6 0 -6 1t18 30q10 14 31.5 49.5t55.5 93.5q27 49 96 145q15 19 92 48q78 29 106 29q3 0 7 -4z" />
<glyph unicode="&#xfb;" d="M102 0zM860 1362q0 6 -2 0.5t-6 -22.5q-1 -28 -9 -82q-4 -30 -9 -74t-13 -104q-39 -344 -39 -633q0 -78 2 -135t6 -95q1 -7 3.5 -24t6.5 -45q9 -41 9 -68q0 -19 -73 -49q-32 -13 -56.5 -21t-41.5 -10q-5 48 -82 77q-57 22 -126 22q-48 0 -123 -12q-20 -23 -78 -54 q-57 -32 -87 -33q5 69 7.5 155t2.5 191q0 303 -10.5 519.5t-30.5 351.5q-9 52 -9 68q0 18 72 50q64 27 94 30q25 -167 37 -346.5t12 -376.5q0 -79 -2 -202.5t-6 -294.5q113 22 191 31t123 7q-9 121 -9 204q0 217 48 669q4 96 27 231q11 20 74 50t90 30q7 -1 7 -5zM834 1529 q0 -12 -69 -45q-68 -33 -88 -33q-26 0 -215 264q-26 -33 -68.5 -80.5t-100.5 -110.5q-81 -69 -162 -73q2 6 70 80q23 26 56 64.5t78 92.5q11 18 29.5 43.5t44.5 58.5q19 20 75 49q55 28 84 30q27 -38 165 -219q26 -42 92 -112q9 -8 9 -9z" />
<glyph unicode="&#xfc;" d="M102 0zM860 1362q0 6 -2 0.5t-6 -22.5q-1 -28 -9 -82q-4 -30 -9 -74t-13 -104q-39 -344 -39 -633q0 -78 2 -135t6 -95q1 -7 3.5 -24t6.5 -45q9 -41 9 -68q0 -19 -73 -49q-32 -13 -56.5 -21t-41.5 -10q-5 48 -82 77q-57 22 -126 22q-48 0 -123 -12q-20 -23 -78 -54 q-57 -32 -87 -33q5 69 7.5 155t2.5 191q0 303 -10.5 519.5t-30.5 351.5q-9 52 -9 68q0 18 72 50q64 27 94 30q25 -167 37 -346.5t12 -376.5q0 -79 -2 -202.5t-6 -294.5q113 22 191 31t123 7q-9 121 -9 204q0 217 48 669q4 96 27 231q11 20 74 50t90 30q7 -1 7 -5zM822 1531 q0 -11 -70 -45q-72 -35 -87 -35q-10 0 -65 34q-14 8 -36 18.5t-51 22.5q4 11 71 46q67 34 84 34q18 0 85 -34q69 -33 69 -41zM428 1531q0 -11 -71 -46q-69 -32 -93 -34q-36 14 -121 73q133 84 160 84q7 0 66 -36t59 -41z" />
<glyph unicode="&#xfd;" horiz-adv-x="939" d="M51 0zM836 1364q0 -57 -15 -144q-20 -128 -21 -141q-17 -161 -26 -330.5t-9 -349.5q0 -204 20 -302q3 -18 3 -17q0 -15 -71 -48q-72 -32 -92 -32q-7 0 -4 17q-55 79 -203 79q-23 0 -51.5 -3t-62.5 -8q-13 -21 -76 -52q-62 -30 -93 -33q0 26 6 77t6 78q0 39 -5 57 q-16 39 -16 50q0 9 70 42q65 28 94 32q24 -24 24 -112q0 -23 -1.5 -43.5t-3.5 -37.5q107 19 180 27.5t115 6.5q-5 76 -7 144.5t-1 129.5q-11 2 -77 27q-65 27 -128 27q-38 0 -82 -2.5t-94 -7.5q-28 -13 -59 -24t-66 -20q0 58 6 175q6 118 6 178q0 105 -5 185.5t-15 140.5 q-1 6 -6 24.5t-13 50.5q-12 46 -12 77q0 17 72 49q32 14 55 23t37 11q22 -28 38 -228q7 -81 10 -143.5t3 -107.5q0 -51 -2 -131t-6 -192q122 28 264 28q14 0 34 -1t45 -3q2 55 12.5 172.5t28.5 300.5q2 93 27 223q14 23 72 50q60 28 90 32zM836 1843q-17 -27 -48 -75 q-38 -63 -72 -126q-51 -84 -87 -114t-114 -60q-45 -17 -79 -17q-6 0 -6 1t18 30q10 14 31.5 49.5t55.5 93.5q27 49 96 145q15 19 92 48q78 29 106 29q3 0 7 -4z" />
<glyph unicode="&#xfe;" horiz-adv-x="935" d="M853 918q0 -48 -1.5 -118.5t-5.5 -166.5q-6 -189 -6 -285q0 -17 -67 -50q-67 -32 -90 -32q-3 0 -9 2q-119 84 -328 84q2 0 -9.5 -1t-36.5 -3q-5 -99 -7.5 -160t-2.5 -87q0 -15 -2 -21q-8 -21 -72 -49q-32 -14 -55.5 -22t-39.5 -9q0 2 12 208q7 120 10.5 230t3.5 212 q0 140 -4 254t-12 207q-3 38 -7.5 69.5t-9.5 56.5q-12 63 -12 48q0 22 67 50t99 30q28 -37 32 -162q2 -45 3 -88.5t2 -88.5q166 39 495 123q10 2 17 3.5t12 1.5q7 0 12 -50q12 -98 12 -186zM686 838q0 66 -5 122.5t-15 107.5q-48 -14 -137.5 -35.5t-221.5 -52.5 q4 -54 5.5 -114t1.5 -129q0 -89 -1.5 -167.5t-5.5 -147.5q63 5 112 8t84 3q93 0 164 -13q0 33 3 84.5t8 123.5q4 69 6 121t2 89z" />
<glyph unicode="&#xff;" horiz-adv-x="939" d="M51 0zM836 1364q0 -57 -15 -144q-20 -128 -21 -141q-17 -161 -26 -330.5t-9 -349.5q0 -204 20 -302q3 -18 3 -17q0 -15 -71 -48q-72 -32 -92 -32q-7 0 -4 17q-55 79 -203 79q-23 0 -51.5 -3t-62.5 -8q-13 -21 -76 -52q-62 -30 -93 -33q0 26 6 77t6 78q0 39 -5 57 q-16 39 -16 50q0 9 70 42q65 28 94 32q24 -24 24 -112q0 -23 -1.5 -43.5t-3.5 -37.5q107 19 180 27.5t115 6.5q-5 76 -7 144.5t-1 129.5q-11 2 -77 27q-65 27 -128 27q-38 0 -82 -2.5t-94 -7.5q-28 -13 -59 -24t-66 -20q0 58 6 175q6 118 6 178q0 105 -5 185.5t-15 140.5 q-1 6 -6 24.5t-13 50.5q-12 46 -12 77q0 17 72 49q32 14 55 23t37 11q22 -28 38 -228q7 -81 10 -143.5t3 -107.5q0 -51 -2 -131t-6 -192q122 28 264 28q14 0 34 -1t45 -3q2 55 12.5 172.5t28.5 300.5q2 93 27 223q14 23 72 50q60 28 90 32zM810 1531q0 -11 -70 -45 q-72 -35 -87 -35q-10 0 -65 34q-14 8 -36 18.5t-51 22.5q4 11 71 46q67 34 84 34q18 0 85 -34q69 -33 69 -41zM416 1531q0 -11 -71 -46q-69 -32 -93 -34q-36 14 -121 73q133 84 160 84q7 0 66 -36t59 -41z" />
<glyph unicode="&#x152;" horiz-adv-x="1417" d="M1314 186q0 -79 -17 -113q-14 -20 -76 -46t-93 -27q-56 75 -205 75q-27 0 -56 -2t-60 -6q-31 -20 -70.5 -37t-89.5 -30q-4 0 -4 17v5q-104 68 -338 68q-37 0 -61 -1.5t-36 -3.5q-22 -11 -78 -25q0 -8 3 38t10 146t10.5 195.5t3.5 186.5q0 127 -15 357q-2 35 -5 59t-6 38 q-7 48 -29 96v3q0 36 297 111q269 68 371 75v-26t1 -42v-66q91 32 265 80q202 54 263 54v-3q-1 -2 -17 -15q-75 -68 -87 -198q0 -19 -9 -55q-8 -22 -72 -50q-63 -29 -97 -30q4 181 111 273q-115 -26 -204 -49t-154 -42q-2 -125 -3.5 -222t-1.5 -170v-75q136 -12 109 -12 q46 0 135 9q45 5 79 7.5t57 2.5l2 -4q-8 -10 -53 -36q-34 -19 -108 -44q-34 -4 -220 -15q2 -148 12.5 -275.5t27.5 -236.5q108 17 179.5 26t106.5 9q26 0 55 -3q-5 30 -24 116q-8 37 -12.5 66t-4.5 52q0 17 67 47q34 16 57.5 24.5t37.5 10.5q4 -5 14 -84q1 -8 5.5 -33.5 t14.5 -67.5q12 -62 12 -102zM623 166q-13 112 -19.5 251t-6.5 307q0 91 1.5 230t3.5 328q-67 -18 -145 -36t-169 -36q16 -43 21 -157q8 -132 12.5 -215.5t4.5 -120.5q0 -78 -7.5 -215t-21.5 -338q45 4 93.5 6t102.5 2q77 0 130 -6z" />
<glyph unicode="&#x153;" horiz-adv-x="1417" d="M1314 186q0 -79 -17 -113q-14 -20 -76 -46t-93 -27q-56 75 -205 75q-27 0 -56 -2t-60 -6q-31 -20 -70.5 -37t-89.5 -30q-4 0 -4 17v5q-104 68 -338 68q-37 0 -61 -1.5t-36 -3.5q-22 -11 -78 -25q0 -8 3 38t10 146t10.5 195.5t3.5 186.5q0 127 -15 357q-2 35 -5 59t-6 38 q-7 48 -29 96v3q0 36 297 111q269 68 371 75v-26t1 -42v-66q91 32 265 80q202 54 263 54v-3q-1 -2 -17 -15q-75 -68 -87 -198q0 -19 -9 -55q-8 -22 -72 -50q-63 -29 -97 -30q4 181 111 273q-115 -26 -204 -49t-154 -42q-2 -125 -3.5 -222t-1.5 -170v-75q136 -12 109 -12 q46 0 135 9q45 5 79 7.5t57 2.5l2 -4q-8 -10 -53 -36q-34 -19 -108 -44q-34 -4 -220 -15q2 -148 12.5 -275.5t27.5 -236.5q108 17 179.5 26t106.5 9q26 0 55 -3q-5 30 -24 116q-8 37 -12.5 66t-4.5 52q0 17 67 47q34 16 57.5 24.5t37.5 10.5q4 -5 14 -84q1 -8 5.5 -33.5 t14.5 -67.5q12 -62 12 -102zM623 166q-13 112 -19.5 251t-6.5 307q0 91 1.5 230t3.5 328q-67 -18 -145 -36t-169 -36q16 -43 21 -157q8 -132 12.5 -215.5t4.5 -120.5q0 -78 -7.5 -215t-21.5 -338q45 4 93.5 6t102.5 2q77 0 130 -6z" />
<glyph unicode="&#x178;" horiz-adv-x="939" d="M51 0zM836 1364q0 -57 -15 -144q-20 -128 -21 -141q-17 -161 -26 -330.5t-9 -349.5q0 -204 20 -302q3 -18 3 -17q0 -15 -71 -48q-72 -32 -92 -32q-7 0 -4 17q-55 79 -203 79q-23 0 -51.5 -3t-62.5 -8q-13 -21 -76 -52q-62 -30 -93 -33q0 26 6 77t6 78q0 39 -5 57 q-16 39 -16 50q0 9 70 42q65 28 94 32q24 -24 24 -112q0 -23 -1.5 -43.5t-3.5 -37.5q107 19 180 27.5t115 6.5q-5 76 -7 144.5t-1 129.5q-11 2 -77 27q-65 27 -128 27q-38 0 -82 -2.5t-94 -7.5q-28 -13 -59 -24t-66 -20q0 58 6 175q6 118 6 178q0 105 -5 185.5t-15 140.5 q-1 6 -6 24.5t-13 50.5q-12 46 -12 77q0 17 72 49q32 14 55 23t37 11q22 -28 38 -228q7 -81 10 -143.5t3 -107.5q0 -51 -2 -131t-6 -192q122 28 264 28q14 0 34 -1t45 -3q2 55 12.5 172.5t28.5 300.5q2 93 27 223q14 23 72 50q60 28 90 32zM810 1531q0 -11 -70 -45 q-72 -35 -87 -35q-10 0 -65 34q-14 8 -36 18.5t-51 22.5q4 11 71 46q67 34 84 34q18 0 85 -34q69 -33 69 -41zM416 1531q0 -11 -71 -46q-69 -32 -93 -34q-36 14 -121 73q133 84 160 84q7 0 66 -36t59 -41z" />
<glyph unicode="&#x2c6;" horiz-adv-x="1010" d="M857 1529q0 -12 -69 -45q-68 -33 -88 -33q-26 0 -215 264q-26 -33 -68.5 -80.5t-100.5 -110.5q-81 -69 -162 -73q2 6 70 80q23 26 56 64.5t78 92.5q11 18 29.5 43.5t44.5 58.5q19 20 75 49q55 28 84 30q27 -38 165 -219q26 -42 92 -112q9 -8 9 -9z" />
<glyph unicode="&#x2da;" horiz-adv-x="893" d="M739 1538l-162 -87q-17 29 -137 29q-15 0 -38.5 -0.5t-55.5 -1.5h-93q-7 0 -79 -9q11 62 16.5 105t5.5 68q0 136 -42 169q113 83 163 83q11 0 103 9q36 2 89 6.5t124 10.5q13 2 32 3.5t45 3.5q-3 -74 -3 -169q0 -130 32 -220zM546 1562q-4 27 -5.5 60t-1.5 71v39 q0 82 7 111q-8 -2 -189 -15q4 -20 6 -44.5t2 -54.5q0 -49 -24 -173q159 7 205 6z" />
<glyph unicode="&#x2dc;" horiz-adv-x="1063" d="M910 1702q0 -82 -118 -167q-119 -84 -219 -84q-75 0 -110 77q-35 78 -96 87q-8 -15 -20.5 -36.5t-29.5 -49.5q-7 -10 -24.5 -21.5t-46.5 -24.5q-60 -26 -89 -29l-3 2v1q0 10 17 38q40 67 148 134q107 67 193 67q73 0 108 -77q34 -75 88 -83q5 14 13.5 35.5t19.5 49.5 q11 22 74 50q32 14 55.5 22t39.5 9z" />
<glyph unicode="&#x2000;" />
<glyph unicode="&#x2001;" horiz-adv-x="1927" />
<glyph unicode="&#x2002;" />
<glyph unicode="&#x2003;" horiz-adv-x="1927" />
<glyph unicode="&#x2004;" horiz-adv-x="642" />
<glyph unicode="&#x2005;" horiz-adv-x="481" />
<glyph unicode="&#x2006;" horiz-adv-x="321" />
<glyph unicode="&#x2007;" horiz-adv-x="321" />
<glyph unicode="&#x2008;" horiz-adv-x="240" />
<glyph unicode="&#x2009;" horiz-adv-x="385" />
<glyph unicode="&#x200a;" horiz-adv-x="107" />
<glyph unicode="&#x2010;" horiz-adv-x="1004" d="M850 727q0 -15 -66 -45q-64 -30 -91 -33q-83 -12 -234 -12q-85 0 -143.5 -1.5t-91.5 -5.5q-11 -2 -28.5 -3.5t-40.5 -3.5q-1 2 -1 5q0 16 68 48q57 25 89 31q22 3 108.5 7.5t239.5 9.5q208 6 191 6v-3z" />
<glyph unicode="&#x2011;" horiz-adv-x="1004" d="M850 727q0 -15 -66 -45q-64 -30 -91 -33q-83 -12 -234 -12q-85 0 -143.5 -1.5t-91.5 -5.5q-11 -2 -28.5 -3.5t-40.5 -3.5q-1 2 -1 5q0 16 68 48q57 25 89 31q22 3 108.5 7.5t239.5 9.5q208 6 191 6v-3z" />
<glyph unicode="&#x2012;" horiz-adv-x="1004" d="M850 727q0 -15 -66 -45q-64 -30 -91 -33q-83 -12 -234 -12q-85 0 -143.5 -1.5t-91.5 -5.5q-11 -2 -28.5 -3.5t-40.5 -3.5q-1 2 -1 5q0 16 68 48q57 25 89 31q22 3 108.5 7.5t239.5 9.5q208 6 191 6v-3z" />
<glyph unicode="&#x2013;" horiz-adv-x="1004" d="M850 727q0 -15 -66 -45q-64 -30 -91 -33q-83 -12 -234 -12q-85 0 -143.5 -1.5t-91.5 -5.5q-11 -2 -28.5 -3.5t-40.5 -3.5q-1 2 -1 5q0 16 68 48q57 25 89 31q22 3 108.5 7.5t239.5 9.5q208 6 191 6v-3z" />
<glyph unicode="&#x2014;" horiz-adv-x="1004" d="M850 727q0 -15 -66 -45q-64 -30 -91 -33q-83 -12 -234 -12q-85 0 -143.5 -1.5t-91.5 -5.5q-11 -2 -28.5 -3.5t-40.5 -3.5q-1 2 -1 5q0 16 68 48q57 25 89 31q22 3 108.5 7.5t239.5 9.5q208 6 191 6v-3z" />
<glyph unicode="&#x2018;" horiz-adv-x="625" d="M471 1120q0 -15 -68 -47q-66 -29 -92 -34q-68 144 -157 244q7 18 70 49q64 33 87 33q8 0 17 -6q27 -22 143 -238v-1z" />
<glyph unicode="&#x2019;" horiz-adv-x="664" d="M510 1364q-39 -69 -78 -135q-56 -96 -87 -120q-21 -15 -91 -39q-72 -25 -97 -26q-3 1 -3 7q0 -2 37 45q11 14 24 38.5t29 58.5q31 67 60 99q16 18 65 34q19 5 38.5 11t40.5 13q42 15 54 15q3 0 8 -1z" />
<glyph unicode="&#x201a;" horiz-adv-x="664" d="M510 143q-20 -34 -39 -67.5t-39 -66.5q-55 -94 -87 -118q-21 -17 -91 -39q-72 -25 -97 -26q-3 1 -3 7q0 -3 37 44q11 14 24 38.5t29 58.5q31 65 60 98q16 18 65 34q19 5 38.5 11t40.5 13q42 15 54 15q1 0 2.5 -0.5t5.5 -1.5z" />
<glyph unicode="&#x201c;" horiz-adv-x="976" d="M823 1121q0 -17 -67 -48q-66 -29 -94 -34l-7 2q-39 63 -70.5 111t-55.5 82q-10 12 -19.5 24t-19.5 25q0 13 69 48q68 34 90 34q5 0 8 -1q11 -13 34 -44t58 -81q74 -107 74 -118zM495 1128q-5 -20 -67 -49q-31 -14 -53.5 -23t-38.5 -12l-8 4q-174 232 -174 240q0 10 70 41 q62 29 92 33l5 -2q29 -38 72.5 -96t101.5 -136z" />
<glyph unicode="&#x201d;" horiz-adv-x="986" d="M833 1365q-2 -8 -21.5 -38.5t-54.5 -84.5q-70 -104 -88 -119q-22 -21 -96 -47q-35 -13 -62.5 -19t-47.5 -7q23 32 50.5 71t58.5 86q10 15 23.5 36t32.5 49q21 23 94 48q75 28 109 29zM532 1362q0 -2 -6 -9q-26 -38 -68 -93.5t-100 -129.5q-18 -21 -93 -48 q-75 -28 -110 -29l-1 5q30 38 119 161q8 13 21 30.5t32 40.5q19 19 93 46q37 14 63 21t42 8h5q3 0 3 -3z" />
<glyph unicode="&#x201e;" horiz-adv-x="986" d="M833 150q-4 -15 -76 -122q-35 -53 -57.5 -82t-30.5 -36q-25 -23 -96 -47q-70 -25 -110 -27q23 32 50.5 71.5t58.5 85.5q10 14 23.5 35t32.5 49q21 23 94 48q75 28 109 29zM532 147q0 -2 -6 -9q-53 -77 -168 -222q-19 -20 -93 -47q-37 -14 -64.5 -21t-45.5 -8l-1 5 q14 18 44 57.5t75 100.5q8 13 21 31t32 41q18 18 93 47q72 28 105 28h5q3 0 3 -3z" />
<glyph unicode="&#x2026;" horiz-adv-x="1585" d="M1432 92q-4 -12 -72 -47q-66 -33 -83 -33q-20 0 -89 22q-70 22 -70 29q0 12 71 47q72 35 91 35q23 0 152 -53zM934 87q-5 -15 -71 -47q-66 -33 -85 -33q-21 0 -88 22q-69 22 -69 29q0 13 70 47q72 35 91 35q23 0 152 -53zM468 87q-5 -14 -72 -47q-68 -33 -85 -33 q-18 0 -87 22q-70 22 -70 29q0 13 70 47q72 35 92 35q23 0 152 -53z" />
<glyph unicode="&#x202f;" horiz-adv-x="385" />
<glyph unicode="&#x2039;" horiz-adv-x="836" d="M683 268q-8 -15 -70 -48q-62 -32 -87 -36q-26 12 -128 111q-80 79 -244 229q7 16 121 116q35 31 71 61.5t72 61.5q17 17 42 42.5t59 59.5q23 23 74 48q53 26 85 27l1 -3q-3 -21 -176 -172q-172 -148 -172 -159q0 -14 72 -74q8 -7 31 -28.5t61 -58.5q31 -29 77.5 -73 t110.5 -104z" />
<glyph unicode="&#x203a;" horiz-adv-x="833" d="M679 604q-2 -6 -71 -70q-57 -53 -171 -162q-20 -20 -51 -50t-75 -68q-75 -60 -151 -68l-6 2q12 16 114 114q40 38 101 93.5t143 130.5q-3 2 -196 175q-162 145 -162 161t68 48q31 14 53 23t36 11l8 -2q28 -35 72 -78t104 -94q70 -60 116 -101t68 -65z" />
<glyph unicode="&#x205f;" horiz-adv-x="481" />
<glyph unicode="&#x20ac;" horiz-adv-x="1174" d="M1021 212q0 -80 -38 -133q-12 -20 -72 -48q-57 -28 -88 -31q-7 8 -18 19t-25 27q-38 34 -155 34q-65 0 -144 -12q-11 -8 -30 -18.5t-46 -22.5q-52 -24 -79 -27q-5 5 -5 20q0 -13 3.5 22t10.5 118q3 58 6 140.5t7 191.5q-164 0 -194 13q7 16 71 48t84 32t41 -3v68 q0 23 -0.5 53t-1.5 68q-114 0 -162 12l-2 2q7 19 70 49q62 31 91 31q-2 55 -5 109.5t-5 109.5q-13 161 -41 201q4 16 71 48q69 32 89 32q24 0 39 -112q327 112 493 112q-26 -43 -63 -136q0 -11 -1.5 -25t-3.5 -33q-8 -21 -73 -50t-96 -30v47q0 100 67 149q-108 -23 -321 -72 q4 -60 9 -149.5t11 -210.5q35 0 85.5 2.5t119.5 7.5t119.5 8t83.5 3l2 -4q-12 -15 -51 -37q-32 -19 -59 -30t-49 -13q-42 -2 -104 -5.5t-147 -8.5q4 -155 0 -201q13 1 50 3t99 5q45 4 81.5 5.5t65.5 1.5q-12 -16 -53 -39q-62 -35 -120 -43q-32 -2 -63 -3.5t-63 -3.5 q-4 -96 -8.5 -189.5t-10.5 -187.5q114 19 183 28.5t95 9.5q43 0 81 -7q-7 67 -10.5 97t-3.5 24q0 16 72 48q64 29 92 32l2 -1q17 -62 17 -145z" />
<glyph unicode="&#x2122;" horiz-adv-x="1478" d="M1324 517q0 -13 -46 -32q-39 -17 -61 -21q-27 232 -27 485q0 28 0.5 70t1.5 99q3 114 3 171q0 18 -26 6q-27 -13 -133 -56q-3 -194 -3 -241q0 -143 5.5 -251.5t16.5 -183.5q3 -27 3 -46q0 -11 -44 -31q-42 -17 -65 -22q-27 262 -27 481q0 55 3 163q3 109 3 163 q0 37 -26 23q-26 -12 -132 -57q2 -39 3.5 -70.5t1.5 -55.5q0 -31 -8.5 -160t-25.5 -359q-1 -16 -3 -34.5t-4 -40.5q-9 -16 -48 -32q-39 -17 -63 -21q4 29 9 79.5t11 123.5q11 128 17 225t6 166q0 -13 -3.5 48t-10.5 196q-13 -4 -51 -8.5t-101 -10.5q9 -92 9 -174 q0 -54 -4.5 -120.5t-12.5 -147.5q-11 -128 -17 -194.5t-7 -73.5q0 -20 -9 -56q-8 -16 -49 -32q-35 -17 -60 -21q0 10 5 56.5t15 131.5q14 112 21 212.5t7 191.5q0 63 -3 116.5t-8 98.5q-72 -7 -125.5 -10t-89.5 -3q-6 0 -18 3q13 33 124 55v-2q18 0 44 1t60 3q70 47 106 47 q5 0 5 -37q40 2 93.5 7t121.5 15q16 4 51 15q6 -31 9 -97q18 3 58 12q16 5 42 16t62 30q64 34 104 39q7 -1 7 -8q0 -17 -3 -45q-1 -14 -1.5 -24.5t-0.5 -17.5q18 3 58 12q31 7 104 44q63 34 102 39q4 -4 4 -15q0 -59 -3 -174q-1 -58 -1.5 -101.5t-0.5 -72.5q0 -146 5.5 -255 t16.5 -184q3 -27 3 -46z" />
<glyph unicode="&#xe000;" horiz-adv-x="1365" d="M0 1365h1365v-1365h-1365v1365z" />
<glyph horiz-adv-x="1365" d="M0 0z" />
</font>
</defs>
</svg>
