<?xml version="1.0" standalone="no"?>
<!DOCTYPE svg PUBLIC "-//W3C//DTD SVG 1.1//EN" "http://www.w3.org/Graphics/SVG/1.1/DTD/svg11.dtd" >
<svg xmlns="http://www.w3.org/2000/svg">
<metadata></metadata>
<defs>
<font id="archivo_narrowbold" horiz-adv-x="456" >
<font-face units-per-em="1000" ascent="800" descent="-200" />
<missing-glyph horiz-adv-x="228" />
<glyph horiz-adv-x="1000" />
<glyph horiz-adv-x="1000" />
<glyph horiz-adv-x="333" />
<glyph unicode="&#xd;" horiz-adv-x="0" />
<glyph unicode=" "  horiz-adv-x="228" />
<glyph unicode="&#x09;" horiz-adv-x="228" />
<glyph unicode="&#xa0;" horiz-adv-x="228" />
<glyph unicode="!" horiz-adv-x="273" d="M60 686h153l-36 -489h-82zM68 0v137h138v-137h-138z" />
<glyph unicode="&#x22;" horiz-adv-x="389" d="M45 539v147h122v-147l-21 -132h-79zM226 539v147h122v-147l-21 -132h-79z" />
<glyph unicode="#" d="M5 195v84h82l31 141h-74v84h93l44 194h88l-44 -194h75l44 194h88l-44 -194h62v-84h-81l-31 -141h73v-84h-92l-44 -195h-88l44 195h-75l-44 -195h-88l44 195h-63zM175 279h75l31 141h-75z" />
<glyph unicode="$" d="M33 235l1 12h110v-7q0 -62 54 -79v143q-37 10 -57.5 18.5t-47.5 25.5t-39.5 44.5t-12.5 65.5q0 69 43 110t114 48v107h55v-106q68 -6 111 -44t43 -98q0 -5 -0.5 -10.5t-0.5 -8.5v-4h-110q0 57 -43 74v-129q31 -8 47.5 -13t43 -18t40.5 -28t25 -41t11 -59 q0 -157 -167 -169v-118h-55v118q-78 7 -121.5 51.5t-43.5 114.5zM151 468q0 -36 47 -54v112q-47 -15 -47 -58zM253 159q57 14 57 64q0 41 -57 63v-127z" />
<glyph unicode="%" horiz-adv-x="729" d="M35 517q0 99 34.5 140t103.5 41t103.5 -41t34.5 -140t-34.5 -139.5t-103.5 -40.5t-103.5 40.5t-34.5 139.5zM114 0l418 686h86l-419 -686h-85zM124 510q0 -49 10.5 -74.5t38.5 -25.5t38.5 25.5t10.5 74.5v15q0 49 -10.5 74.5t-38.5 25.5t-38.5 -25.5t-10.5 -74.5v-15z M419 168q0 99 34.5 140t103.5 41t103.5 -41t34.5 -140t-34.5 -139.5t-103.5 -40.5t-103.5 40.5t-34.5 139.5zM508 161q0 -49 10.5 -74.5t38.5 -25.5t38.5 25.5t10.5 74.5v15q0 49 -10.5 74.5t-38.5 25.5t-38.5 -25.5t-10.5 -74.5v-15z" />
<glyph unicode="&#x26;" horiz-adv-x="592" d="M36 184q0 65 32 108t85 60v4q-103 51 -103 154q0 90 62 139t167 49q97 0 158 -51.5t61 -136.5v-28h-120v19q0 96 -101 96q-48 0 -75 -24.5t-27 -67.5q0 -49 27.5 -77.5t70.5 -28.5h41v-101h-38q-115 0 -115 -108q0 -50 29 -75.5t81 -25.5q107 0 107 102v208h199v-101h-79 v-104q0 -95 -59.5 -150.5t-169.5 -55.5q-104 0 -168.5 53t-64.5 143z" />
<glyph unicode="'" horiz-adv-x="195" d="M37 539v147h122v-147l-21 -132h-79z" />
<glyph unicode="(" horiz-adv-x="273" d="M30 288q0 123 38.5 239t110.5 208h79q-52 -97 -85 -215t-33 -230t33 -231t85 -216h-79q-149 191 -149 445z" />
<glyph unicode=")" horiz-adv-x="273" d="M15 -157q52 97 85 216t33 231t-33 230t-85 215h79q72 -92 110.5 -208t38.5 -239q0 -254 -149 -445h-79z" />
<glyph unicode="*" horiz-adv-x="319" d="M8 491l93 42l-93 44l39 66l84 -59l-10 102h78l-10 -101l84 58l39 -66l-93 -44l93 -42l-39 -68l-84 60l10 -102h-78l10 102l-84 -60z" />
<glyph unicode="+" horiz-adv-x="479" d="M33 203v104h154v204h103v-204h155v-104h-155v-203h-103v203h-154z" />
<glyph unicode="," horiz-adv-x="228" d="M45 0v137h138v-125l-66 -168h-72l55 156h-55z" />
<glyph unicode="-" horiz-adv-x="273" d="M16 211v118h241v-118h-241z" />
<glyph unicode="." horiz-adv-x="228" d="M45 0v137h138v-137h-138z" />
<glyph unicode="/" horiz-adv-x="228" d="M1 -49l142 784h85l-141 -784h-86z" />
<glyph unicode="0" d="M30 343q0 199 49 277t149 78q65 0 106.5 -29.5t66.5 -110t25 -215.5t-25 -215.5t-66.5 -110t-106.5 -29.5q-100 0 -149 78t-49 277zM155 308q0 -120 14.5 -169.5t58.5 -49.5t58.5 49.5t14.5 169.5v70q0 120 -14.5 169.5t-58.5 49.5t-58.5 -49.5t-14.5 -169.5v-70z" />
<glyph unicode="1" d="M39 529v80q44 5 107 26.5t109 50.5h59v-585h141v-101h-415v101h154v428h-155z" />
<glyph unicode="2" d="M33 0v24q0 59 27 115t66 100t78 86.5t66 93t27 102.5q0 29 -15 51.5t-48 22.5q-35 0 -52 -29t-17 -75v-41h-123q-3 16 -3 40q0 104 56.5 156t143.5 52q82 0 133 -44t51 -134q0 -62 -32 -128.5t-71.5 -112t-82 -94.5t-54.5 -73h243v-112h-393z" />
<glyph unicode="3" d="M25 194v18h125v-21q0 -102 76 -102q35 0 55 25.5t20 75.5q0 108 -82 108h-33v101h35q30 0 49 27.5t19 78.5q0 92 -63 92q-64 0 -64 -96v-19h-125v28q0 85 52.5 136.5t135.5 51.5q87 0 138 -49t51 -139q0 -103 -89 -154v-4q46 -17 73.5 -60t27.5 -108q0 -90 -55 -143 t-143 -53q-97 0 -150 55.5t-53 150.5z" />
<glyph unicode="4" d="M8 155v96q103 182 173 447h120q-25 -118 -87 -251.5t-102 -190.5h143v154q42 84 67 186h53v-340h70v-101h-70v-155h-120v155h-247z" />
<glyph unicode="5" d="M30 213h125q0 -58 20.5 -91.5t56.5 -33.5q35 0 56 35t21 101q0 58 -19.5 91t-50.5 33q-48 0 -74 -58l-116 16l23 380h332v-112h-226l-10 -162q42 34 98 34q74 0 120.5 -56.5t46.5 -165.5q0 -112 -53.5 -174t-147.5 -62q-92 0 -147 60.5t-55 164.5z" />
<glyph unicode="6" d="M30 323q0 139 24.5 223.5t66.5 118t107 33.5q91 0 135.5 -61t44.5 -162h-123q0 122 -61 122q-43 0 -55.5 -51.5t-14.5 -168.5q37 54 106 54q81 0 123.5 -61t42.5 -160q0 -101 -53 -161.5t-136 -60.5q-102 0 -154.5 76.5t-52.5 258.5zM161 210q0 -54 18 -87.5t53 -33.5 t52.5 33.5t17.5 87.5q0 57 -17.5 90t-52.5 33t-53 -33t-18 -90z" />
<glyph unicode="7" d="M23 574v112h410v-81q-202 -305 -202 -554q0 -27 1 -51h-133q0 154 58.5 306.5t145.5 267.5h-280z" />
<glyph unicode="8" d="M30 188q0 120 88 164q-74 49 -74 155q0 83 48 137t136 54t136 -54t48 -137q0 -105 -75 -155q89 -44 89 -164q0 -89 -49 -144.5t-149 -55.5t-149 55.5t-49 144.5zM154 194q0 -106 74 -106t74 106q0 107 -74 107t-74 -107zM166 499q0 -99 62 -99q63 0 63 99t-63 99 q-62 0 -62 -99z" />
<glyph unicode="9" d="M30 476q0 101 53 161.5t136 60.5q102 0 154.5 -76.5t52.5 -258.5q0 -139 -24.5 -223.5t-66.5 -118t-107 -33.5q-91 0 -135.5 61t-44.5 162h123q0 -122 61 -122q43 0 55.5 51.5t14.5 168.5q-37 -54 -106 -54q-81 0 -123.5 61t-42.5 160zM154 476q0 -57 17.5 -90t52.5 -33 t53 33t18 90q0 54 -18 87.5t-53 33.5t-52.5 -33.5t-17.5 -87.5z" />
<glyph unicode=":" horiz-adv-x="273" d="M55 0v137h138v-137h-138zM55 389v137h138v-137h-138z" />
<glyph unicode=";" horiz-adv-x="273" d="M54 0v137h138v-125l-66 -168h-72l55 156h-55zM55 389v137h138v-137h-138z" />
<glyph unicode="&#x3c;" horiz-adv-x="479" d="M34 197v127l412 207v-118l-311 -152l311 -152v-118z" />
<glyph unicode="=" horiz-adv-x="479" d="M33 96v103h412v-103h-412zM33 308v104h412v-104h-412z" />
<glyph unicode="&#x3e;" horiz-adv-x="479" d="M34 -9v118l311 152l-311 152v118l412 -207v-127z" />
<glyph unicode="?" horiz-adv-x="501" d="M47 494q0 89 55 146.5t158 57.5q88 0 140.5 -49t52.5 -129q0 -59 -16.5 -97t-45.5 -73q-2 -3 -11.5 -13.5t-12 -13.5t-10 -13t-10 -14.5t-7.5 -14.5t-7 -17.5t-3.5 -17.5t-1.5 -21v-28h-126v43q0 28 10 54t20 39t30 38q19 23 29.5 38.5t20.5 42.5t10 57q0 15 -4 31 t-21 33.5t-45 17.5q-31 0 -49.5 -20t-23 -40.5t-4.5 -44.5l1 -27h-126q-3 23 -3 35zM197 0v137h138v-137h-138z" />
<glyph unicode="@" horiz-adv-x="800" d="M25 262q0 116 30.5 202t85 136t122.5 74t149 24q166 0 265 -92.5t99 -284.5q0 -81 -19 -142t-50 -93.5t-63.5 -48t-66.5 -15.5q-46 0 -68.5 16t-35.5 47h-5q-22 -32 -49 -47.5t-71 -15.5q-45 0 -82.5 30.5t-37.5 103.5q0 91 62 129t175 38v50q0 28 -10.5 43.5t-39.5 15.5 q-31 0 -44 -14.5t-13 -35.5v-13h-106q-1 5 -1 20q0 59 44 95.5t117 36.5q163 0 163 -141v-228q0 -38 30 -38q40 0 69 50t29 158q0 156 -78 231.5t-214 75.5q-148 0 -230.5 -93t-82.5 -275q0 -173 69 -259t213 -86q35 0 85 9.5t75 22.5v-74q-29 -11 -77.5 -19t-82.5 -8 q-170 0 -262.5 102t-92.5 313zM340 166q0 -53 53 -53q37 0 54.5 29t17.5 75v27q-125 0 -125 -78z" />
<glyph unicode="A" horiz-adv-x="592" d="M0 0l221 686h149l221 -686h-131l-42 135h-253l-41 -135h-124zM200 249h183l-69 229l-20 93h-4q-10 -61 -20 -93z" />
<glyph unicode="B" horiz-adv-x="592" d="M60 0v686h295q82 0 134.5 -47.5t52.5 -122.5q0 -57 -29.5 -98.5t-75.5 -57.5v-4q53 -16 87 -62t34 -110q0 -84 -58.5 -134t-144.5 -50h-295zM188 114h146q41 0 67 22.5t26 63.5q0 42 -25.5 68.5t-73.5 26.5h-140v-181zM188 408h132q44 0 67.5 24t23.5 61q0 38 -23 58.5 t-62 20.5h-138v-164z" />
<glyph unicode="C" horiz-adv-x="592" d="M34 343q0 178 70.5 266.5t202.5 88.5q113 0 182.5 -67t69.5 -200h-131q0 77 -32.5 117t-88.5 40q-70 0 -105.5 -57.5t-35.5 -162.5v-50q0 -105 36.5 -162.5t108.5 -57.5q57 0 90 39.5t33 116.5h125q0 -130 -69 -198t-183 -68q-132 0 -202.5 88.5t-70.5 266.5z" />
<glyph unicode="D" horiz-adv-x="592" d="M60 0v686h223q130 0 202.5 -85t72.5 -248q0 -173 -72 -263t-203 -90h-223zM188 114h83q73 0 114 54.5t41 159.5v50q0 95 -41 144.5t-114 49.5h-83v-458z" />
<glyph unicode="E" horiz-adv-x="547" d="M60 0v686h437v-114h-309v-164h265v-114h-265v-180h315v-114h-443z" />
<glyph unicode="F" horiz-adv-x="501" d="M60 0v686h403v-114h-275v-173h235v-114h-235v-285h-128z" />
<glyph unicode="G" horiz-adv-x="638" d="M34 343q0 179 75 267t216 88q110 0 186 -67t76 -185h-131q0 67 -38.5 104.5t-96.5 37.5q-155 0 -155 -220v-50q0 -220 156 -220q59 0 96.5 45.5t37.5 119.5h-154v110h285v-373h-83l-22 76q-67 -88 -183 -88q-265 0 -265 355z" />
<glyph unicode="H" horiz-adv-x="592" d="M60 0v686h128v-278h216v278h128v-686h-128v294h-216v-294h-128z" />
<glyph unicode="I" horiz-adv-x="228" d="M50 0v686h128v-686h-128z" />
<glyph unicode="J" d="M9 163v53h127v-43q0 -75 67 -75q65 0 65 75v513h128v-523q0 -85 -50 -130t-143 -45t-143.5 45t-50.5 130z" />
<glyph unicode="K" horiz-adv-x="592" d="M60 0v686h129v-351l251 351h143l-203 -279l209 -407h-144l-149 306l-107 -131v-175h-129z" />
<glyph unicode="L" horiz-adv-x="501" d="M60 0v686h128v-566h290v-120h-418z" />
<glyph unicode="M" horiz-adv-x="683" d="M53 0v686h180l85 -378l27 -155h4q14 115 23 155l84 378h174v-686h-118v437l5 110h-4l-120 -547h-111l-121 547h-4q5 -83 5 -110v-437h-109z" />
<glyph unicode="N" horiz-adv-x="592" d="M60 0v686h113l212 -378l31 -64l3 3q-1 46 -1 57v382h114v-686h-114l-212 378l-31 64l-4 -3q2 -39 2 -57v-382h-113z" />
<glyph unicode="O" horiz-adv-x="638" d="M34 343q0 178 74.5 266.5t210.5 88.5t210.5 -88.5t74.5 -266.5t-74.5 -266.5t-210.5 -88.5t-210.5 88.5t-74.5 266.5zM166 318q0 -105 39 -162.5t114 -57.5t114 57.5t39 162.5v50q0 105 -39 162.5t-114 57.5t-114 -57.5t-39 -162.5v-50z" />
<glyph unicode="P" horiz-adv-x="547" d="M60 0v686h245q103 0 159 -57t56 -149q0 -97 -59 -155.5t-156 -58.5h-117v-266h-128zM188 379h104q46 0 71 26.5t25 74.5q0 42 -25.5 67t-70.5 25h-104v-193z" />
<glyph unicode="Q" horiz-adv-x="638" d="M34 343q0 178 74.5 266.5t210.5 88.5t210.5 -88.5t74.5 -266.5q0 -250 -149 -326l132 -141h-157l-99 112h-12q-136 0 -210.5 88.5t-74.5 266.5zM166 318q0 -105 39 -162.5t114 -57.5t114 57.5t39 162.5v50q0 105 -39 162.5t-114 57.5t-114 -57.5t-39 -162.5v-50z" />
<glyph unicode="R" horiz-adv-x="592" d="M60 0v686h287q101 0 155.5 -54t54.5 -142q0 -62 -30.5 -108t-84.5 -68l132 -314h-139l-114 286h-133v-286h-128zM188 399h141q90 0 90 91q0 82 -85 82h-146v-173z" />
<glyph unicode="S" horiz-adv-x="547" d="M30 201q0 4 0.5 12t0.5 10h133q0 -1 -0.5 -7t-0.5 -9q0 -50 29 -79.5t81 -29.5q53 0 78.5 23.5t25.5 57.5q0 33 -18.5 55.5t-47.5 35.5t-65 24t-71.5 25.5t-64.5 35.5t-47.5 59.5t-18.5 91.5q0 93 66 142.5t163 49.5q98 0 160.5 -50.5t62.5 -151.5v-12h-131v9 q0 44 -25 69.5t-68 25.5q-45 0 -70.5 -20.5t-25.5 -52.5q0 -38 34.5 -60.5t83 -36.5t97.5 -33.5t83.5 -64t34.5 -114.5q0 -113 -64.5 -165.5t-177.5 -52.5q-100 0 -168.5 56t-68.5 157z" />
<glyph unicode="T" horiz-adv-x="501" d="M17 572v114h468v-114h-170v-572h-128v572h-170z" />
<glyph unicode="U" horiz-adv-x="592" d="M61 215v471h128v-467q0 -59 28 -90t79 -31t79.5 31t28.5 90v467h128v-471q0 -110 -62 -168.5t-174 -58.5t-173.5 58.5t-61.5 168.5z" />
<glyph unicode="V" horiz-adv-x="547" d="M0 686h132l144 -491h4l142 491h125l-209 -686h-129z" />
<glyph unicode="W" horiz-adv-x="774" d="M0 686h127l82 -422l13 -96h4q7 67 13 96l83 422h145l82 -422l13 -96h4q6 62 13 96l84 422h110l-149 -686h-129l-93 437l-14 97h-4q-8 -68 -14 -97l-92 -437h-129z" />
<glyph unicode="X" horiz-adv-x="547" d="M0 0l194 360l-176 326h143l115 -224h4l115 224h133l-177 -324l195 -362h-142l-134 259h-4l-133 -259h-133z" />
<glyph unicode="Y" horiz-adv-x="547" d="M0 686h135l140 -301h4l139 301h129l-209 -427v-259h-128v259z" />
<glyph unicode="Z" horiz-adv-x="501" d="M16 0v49l282 523h-261v114h436v-50l-282 -522h289v-114h-464z" />
<glyph unicode="[" horiz-adv-x="273" d="M49 -161v896h199v-95h-83v-706h83v-95h-199z" />
<glyph unicode="\" horiz-adv-x="228" d="M1 735h85l142 -784h-86z" />
<glyph unicode="]" horiz-adv-x="273" d="M25 -66h83v706h-83v95h199v-896h-199v95z" />
<glyph unicode="^" horiz-adv-x="479" d="M32 294l156 392h107l157 -392h-110l-101 270l-99 -270h-110z" />
<glyph unicode="_" d="M0 -63h455v-69h-455v69z" />
<glyph unicode="`" horiz-adv-x="273" d="M21 720l1 3h120l86 -132h-99z" />
<glyph unicode="a" d="M14 136q0 100 68 142t193 42v55q0 31 -11.5 48t-43.5 17q-33 0 -48 -16.5t-15 -38.5v-15h-117q-1 6 -1 22q0 66 48.5 106t129.5 40q179 0 179 -155v-259q0 -35 28 -35h24v-85q-30 -16 -71 -16q-35 0 -59.5 18.5t-33.5 50.5h-5q-25 -35 -54.5 -52t-78.5 -17t-90.5 33.5 t-41.5 114.5zM137 147q0 -59 59 -59q40 0 59.5 32t19.5 83v30q-138 0 -138 -86z" />
<glyph unicode="b" horiz-adv-x="501" d="M55 0v723h120v-251h5q14 31 45.5 48.5t71.5 17.5q74 0 118.5 -68.5t44.5 -205.5q0 -139 -44.5 -207.5t-124.5 -68.5t-119 77h-5l-12 -65h-100zM175 244q0 -147 80 -147t80 147v38q0 147 -80 147t-80 -149v-36z" />
<glyph unicode="c" d="M41 263q0 141 48.5 208t146.5 67q87 0 135.5 -51.5t48.5 -158.5h-123q0 109 -61 109q-70 0 -70 -155v-38q0 -78 17.5 -116.5t56.5 -38.5q61 0 61 109h119q0 -107 -47 -158.5t-133 -51.5q-103 0 -151 66.5t-48 208.5z" />
<glyph unicode="d" horiz-adv-x="501" d="M41 264q0 137 44.5 205.5t118.5 68.5q40 0 71.5 -17.5t45.5 -48.5h5v251h120v-723h-100l-12 65h-5q-39 -77 -119 -77t-124.5 68.5t-44.5 207.5zM166 244q0 -147 80 -147t80 147v36q0 149 -80 149t-80 -147v-38z" />
<glyph unicode="e" d="M31 263q0 275 202 275q96 0 143 -67t47 -208v-30h-267q1 -74 19.5 -110.5t61.5 -36.5q31 0 49 26.5t18 73.5h119q0 -98 -51 -148t-135 -50q-206 0 -206 275zM157 320h140q0 120 -64 120q-70 0 -76 -120z" />
<glyph unicode="f" horiz-adv-x="273" d="M9 425v101h53v64q0 60 29 100.5t95 40.5q47 0 87 -12v-89h-49q-42 0 -42 -43v-61h91v-101h-91v-425h-120v425h-53z" />
<glyph unicode="g" horiz-adv-x="501" d="M16 -61q0 70 67 107q-42 26 -42 79q0 64 77 92q-64 47 -64 142q0 83 50.5 131t143.5 48q50 0 88 -15q27 19 39 45.5t12 45.5h99q0 -108 -85 -134q42 -47 42 -121q0 -83 -50.5 -131t-144.5 -48h-50q-16 0 -26 -9t-10 -23t9 -22.5t22 -8.5h182q51 0 85.5 -37.5t34.5 -99.5 q0 -72 -49 -117t-121 -45h-193q-49 0 -82.5 34t-33.5 87zM137 -42q0 -22 13.5 -35.5t34.5 -13.5h135q23 0 38.5 13.5t15.5 35.5t-14 35t-35 13h-140q-20 0 -34 -14t-14 -34zM174 359q0 -43 19 -66.5t55 -23.5q75 0 75 90t-75 90q-36 0 -55 -23.5t-19 -66.5z" />
<glyph unicode="h" horiz-adv-x="501" d="M55 0v723h120v-253h4q47 68 127 68q140 0 140 -169v-369h-120v336q0 93 -69 93q-35 0 -58.5 -30.5t-23.5 -74.5v-324h-120z" />
<glyph unicode="i" horiz-adv-x="228" d="M54 0v526h120v-526h-120zM54 614v109h120v-109h-120z" />
<glyph unicode="j" horiz-adv-x="228" d="M-37 -81h44q47 0 47 48v559h120v-567q0 -61 -28 -101t-94 -40q-47 0 -89 12v89zM54 614v109h120v-109h-120z" />
<glyph unicode="k" d="M54 0v723h120v-406l147 209h128l-156 -214l164 -312h-133l-106 218l-44 -54v-164h-120z" />
<glyph unicode="l" horiz-adv-x="228" d="M54 0v723h120v-723h-120z" />
<glyph unicode="m" horiz-adv-x="729" d="M55 0v526h100l12 -65h6q47 77 125 77q84 0 113 -77q51 77 136 77q130 0 130 -169v-369h-120v336q0 50 -14 71.5t-45 21.5q-30 0 -51.5 -27.5t-21.5 -69.5v-332h-118v336q0 50 -14.5 71.5t-45.5 21.5t-51.5 -29.5t-20.5 -75.5v-324h-120z" />
<glyph unicode="n" horiz-adv-x="501" d="M55 0v526h100l12 -65h6q51 77 133 77q140 0 140 -169v-369h-120v336q0 93 -69 93q-35 0 -58.5 -30.5t-23.5 -74.5v-324h-120z" />
<glyph unicode="o" horiz-adv-x="501" d="M41 263q0 141 52 208t158 67t158 -67t52 -208t-52 -208t-158 -67t-158 67t-52 208zM166 244q0 -78 20 -116.5t65 -38.5t65 38.5t20 116.5v38q0 78 -20 116.5t-65 38.5t-65 -38.5t-20 -116.5v-38z" />
<glyph unicode="p" horiz-adv-x="501" d="M55 -173v699h100l12 -65h5q39 77 119 77t124.5 -68.5t44.5 -207.5q0 -137 -44.5 -205.5t-118.5 -68.5q-40 0 -71.5 17.5t-45.5 48.5h-5v-227h-120zM175 246q0 -149 80 -149t80 147v38q0 147 -80 147t-80 -147v-36z" />
<glyph unicode="q" horiz-adv-x="501" d="M41 262q0 139 44.5 207.5t124.5 68.5t119 -77h5l12 65h100v-699h-120v227h-5q-14 -31 -45.5 -48.5t-71.5 -17.5q-74 0 -118.5 68.5t-44.5 205.5zM166 244q0 -147 80 -147t80 149v36q0 147 -80 147t-80 -147v-38z" />
<glyph unicode="r" horiz-adv-x="319" d="M55 0v526h100l14 -77h6q28 89 91 89q14 0 26.5 -2t17.5 -4l6 -2v-116h-43q-98 0 -98 -121v-293h-120z" />
<glyph unicode="s" d="M33 155l1 12h122v-7q1 -39 22 -56.5t50 -17.5q28 0 49 13.5t21 43.5t-26.5 47t-64 26t-75.5 22.5t-64.5 48.5t-26.5 91q0 77 52.5 118.5t135.5 41.5q77 0 127.5 -38.5t50.5 -104.5q0 -5 -0.5 -10.5t-0.5 -8.5v-4h-122q0 68 -59 68q-28 0 -45 -14t-17 -38t19 -38.5 t47.5 -20t62 -16.5t62 -25.5t47.5 -47.5t19 -82q0 -170 -196 -170q-90 0 -140.5 45.5t-50.5 121.5z" />
<glyph unicode="t" horiz-adv-x="273" d="M9 425v101h53l18 148h102v-148h76v-101h-76v-293q0 -43 42 -43h34v-89q-34 -12 -72 -12q-66 0 -95 40.5t-29 100.5v296h-53z" />
<glyph unicode="u" horiz-adv-x="501" d="M55 157v369h120v-336q0 -50 17 -71.5t52 -21.5t58.5 29.5t23.5 73.5v326h120v-526h-100l-12 65h-6q-51 -77 -133 -77q-140 0 -140 169z" />
<glyph unicode="v" d="M4 526h126l68 -226q5 -18 13.5 -57.5t14.5 -70.5l5 -30h4q16 112 30 158l67 226h120l-163 -526h-122z" />
<glyph unicode="w" horiz-adv-x="638" d="M1 526h120l50 -216q7 -32 12.5 -73t6.5 -67l2 -25h4q7 89 22 164l45 217h120l45 -218q5 -23 10.5 -63.5t8.5 -70.5l3 -29h4q14 104 26 163l46 218h111l-127 -526h-121l-52 251q-5 24 -8.5 56.5t-4.5 52.5l-2 21h-6q-4 -75 -15 -129l-51 -252h-121z" />
<glyph unicode="x" d="M5 0l152 272l-140 254h136q62 -124 78 -153h5q26 49 78 153h129l-142 -251l150 -275h-135l-89 174h-5q-75 -147 -89 -174h-128z" />
<glyph unicode="y" d="M4 526h127l79 -247q6 -18 13 -52t11 -59l4 -26h4q13 91 25 136l65 248h120l-144 -499q-60 -209 -186 -209q-22 0 -41 2t-28 4t-9 3v92h54q27 0 49 20t32 61z" />
<glyph unicode="z" horiz-adv-x="410" d="M18 0v51l204 374h-192v101h355v-50l-205 -375h212v-101h-374z" />
<glyph unicode="{" horiz-adv-x="319" d="M24 242v92q31 0 54 14.5t23 45.5v193q0 86 53 117t144 31v-77q-79 0 -79 -61q0 -38 -3 -107.5t-4 -88.5q-2 -53 -27 -80.5t-81 -27.5v-10q56 0 81 -27t27 -81q1 -19 4 -88.5t3 -107.5q0 -61 79 -61v-77q-91 0 -144 31t-53 117v193q0 31 -23 45.5t-54 14.5z" />
<glyph unicode="|" horiz-adv-x="230" d="M70 -173v896h90v-896h-90z" />
<glyph unicode="}" horiz-adv-x="319" d="M21 -82q79 0 79 61q0 38 3 107.5t4 88.5q2 54 27 81t81 27v10q-56 0 -81 27.5t-27 80.5q-1 19 -4 88.5t-3 107.5q0 61 -79 61v77q91 0 144 -31t53 -117v-193q0 -31 23 -45.5t54 -14.5v-92q-31 0 -54 -14.5t-23 -45.5v-193q0 -86 -53 -117t-144 -31v77z" />
<glyph unicode="~" horiz-adv-x="479" d="M27 197v120q2 3 5 8t14.5 17.5t24.5 22t34.5 17.5t44.5 8q32 0 89 -30.5t90 -30.5q32 0 62.5 18.5t45.5 36.5l15 18v-120q-2 -3 -5 -8t-14.5 -17.5t-24.5 -22t-34.5 -17.5t-44.5 -8q-32 0 -89 30.5t-90 30.5q-20 0 -40 -7.5t-34.5 -18t-26 -21.5t-17.5 -19z" />
<glyph unicode="&#xa1;" horiz-adv-x="273" d="M60 -160l35 489h82l36 -489h-153zM68 389v137h138v-137h-138z" />
<glyph unicode="&#xa2;" d="M41 343q0 255 166 273v107h55v-106q158 -16 158 -209h-111q0 91 -47 108v-348q51 15 51 110h107q0 -196 -158 -209v-118h-55v119q-85 10 -125.5 76.5t-40.5 196.5zM154 324q0 -128 53 -152v343q-53 -22 -53 -153v-38z" />
<glyph unicode="&#xa3;" d="M9 288v101h62v110q0 98 47.5 148.5t133.5 50.5q84 0 132.5 -49.5t48.5 -144.5v-13h-119v26q0 39 -16.5 59.5t-45.5 20.5q-60 0 -60 -72v-136h120v-101h-121l-11 -180h246v-108h-406v108h51v180h-62z" />
<glyph unicode="&#xa4;" d="M0 174l50 50q-28 53 -28 118q0 64 27 116l-49 50l60 62l42 -42q57 49 126 49q68 0 125 -49l42 42l60 -62l-49 -49q28 -54 28 -117t-29 -119l50 -49l-61 -61l-42 42q-57 -47 -124 -47q-68 0 -125 47l-42 -42zM106 342q0 -60 36 -102t86 -42t85.5 42t35.5 102t-35.5 102.5 t-85.5 42.5t-86 -42t-36 -103z" />
<glyph unicode="&#xa5;" d="M4 686h131l94 -263h4l93 263h125l-128 -301h105v-82h-140v-69h140v-81h-140v-153h-120v153h-140v81h139v70h-139v81h105z" />
<glyph unicode="&#xa6;" horiz-adv-x="230" d="M70 -173v372h90v-372h-90zM70 351v372h90v-372h-90z" />
<glyph unicode="&#xa7;" d="M37 268q0 86 65 143q-51 49 -51 127q0 77 52 118.5t136 41.5q77 0 127.5 -38.5t50.5 -104.5q0 -5 -0.5 -10.5t-0.5 -8.5v-4h-122q0 68 -59 68q-28 0 -45 -14t-17 -38q0 -31 19 -55t48 -38t62 -32t62 -37.5t48 -55t19 -82.5q0 -87 -65 -143q51 -51 51 -127 q0 -77 -52 -118.5t-136 -41.5q-77 0 -127.5 38.5t-50.5 104.5q0 5 0.5 10.5t0.5 8.5v4h122q0 -68 59 -68q28 0 45 14t17 38q0 31 -19 55t-48 38t-62 32t-62 37.5t-48 55t-19 82.5zM155 303q0 -17 3 -31t13 -27t15.5 -21t24 -20t23.5 -15.5t29.5 -17t27.5 -15.5q22 27 22 57 q0 17 -3.5 31t-12.5 26.5t-16 21t-23.5 19.5l-24 16t-29.5 16.5t-28 15.5q-21 -28 -21 -56z" />
<glyph unicode="&#xa8;" horiz-adv-x="273" d="M-1 614v109h100v-109h-100zM174 614v109h100v-109h-100z" />
<glyph unicode="&#xa9;" horiz-adv-x="604" d="M16 343q0 163 76.5 259t209.5 96t209.5 -96t76.5 -259t-76.5 -259t-209.5 -96t-209.5 96t-76.5 259zM72 343q0 -138 61.5 -219t168.5 -81t168.5 81t61.5 219t-61.5 219t-168.5 81t-168.5 -81t-61.5 -219zM143 343q0 105 42 157.5t119 52.5q67 0 108 -39.5t41 -118.5h-87 q0 41 -16.5 62t-45.5 21q-73 0 -73 -120v-29q0 -120 76 -120q62 0 62 82h84q0 -77 -41 -117t-108 -40q-77 0 -119 52t-42 157z" />
<glyph unicode="&#xaa;" horiz-adv-x="303" d="M14 463q0 124 172 124v37q0 40 -33 40q-38 0 -38 -33v-10h-83q-1 4 -1 14q0 45 32.5 72t87.5 27q121 0 121 -105v-170q0 -24 19 -24h16v-62q-23 -10 -48 -10q-48 0 -62 46h-4q-33 -46 -90 -46q-33 0 -61 22.5t-28 77.5zM101 470q0 -36 36 -36q49 0 49 74v20 q-85 0 -85 -58z" />
<glyph unicode="&#xab;" d="M19 326l136 200h91l-108 -200l108 -200h-91zM202 326l136 200h91l-108 -200l108 -200h-91z" />
<glyph unicode="&#xac;" horiz-adv-x="479" d="M29 350v113h416v-276h-104v163h-312z" />
<glyph unicode="&#xad;" horiz-adv-x="273" d="M16 211v118h241v-118h-241z" />
<glyph unicode="&#xae;" horiz-adv-x="604" d="M16 343q0 163 76.5 259t209.5 96t209.5 -96t76.5 -259t-76.5 -259t-209.5 -96t-209.5 96t-76.5 259zM72 343q0 -138 61.5 -219t168.5 -81t168.5 81t61.5 219t-61.5 219t-168.5 81t-168.5 -81t-61.5 -219zM174 140v406h158q49 0 81 -28.5t32 -73.5q0 -72 -63 -95v-4 q59 -21 59 -108q0 -62 29 -72v-20q-12 -8 -39 -8q-76 0 -76 77q0 91 -59 91h-36v-165h-86zM260 382h41q25 0 40.5 13t15.5 33q0 19 -14.5 29.5t-38.5 10.5h-44v-86z" />
<glyph unicode="&#xaf;" horiz-adv-x="273" d="M9 599v87h255v-87h-255z" />
<glyph unicode="&#xb0;" horiz-adv-x="400" d="M56 556q0 59 41.5 100.5t100.5 41.5t100.5 -41.5t41.5 -100.5t-41.5 -100.5t-100.5 -41.5t-100.5 41.5t-41.5 100.5zM124 556q0 -31 21.5 -52.5t52.5 -21.5t52 21.5t21 52.5t-21 52t-52 21t-52.5 -21t-21.5 -52z" />
<glyph unicode="&#xb1;" horiz-adv-x="549" d="M68 0v103h412v-103h-412zM68 317v104h154v174h103v-174h155v-104h-155v-173h-103v173h-154z" />
<glyph unicode="&#xb2;" horiz-adv-x="273" d="M15 320v18q0 30 13 60t25 45.5t38 45.5q27 30 40 46.5t25 42t12 49.5q0 37 -32 37q-35 0 -35 -55v-28h-79q-3 13 -3 27q0 64 34 95t86 31q50 0 81 -26.5t31 -81.5q0 -43 -21 -81t-60.5 -83.5t-54.5 -67.5h138v-74h-238z" />
<glyph unicode="&#xb3;" horiz-adv-x="273" d="M14 437v15h82v-17q0 -54 40 -54q38 0 38 54q0 58 -42 58h-25v67h26q14 0 24 15t10 42q0 48 -31 48q-33 0 -33 -50v-16h-82v21q0 51 31.5 82.5t82.5 31.5q52 0 83.5 -30t31.5 -84q0 -56 -51 -90q57 -28 57 -99q0 -55 -33 -87t-86 -32q-58 0 -90.5 33.5t-32.5 91.5z" />
<glyph unicode="&#xb4;" horiz-adv-x="273" d="M48 591l86 132h120l1 -3l-108 -129h-99z" />
<glyph unicode="&#xb5;" horiz-adv-x="501" d="M55 -173v699h120v-336q0 -50 17 -71.5t52 -21.5t58.5 29.5t23.5 73.5v326h120v-526h-100l-12 65h-6q-43 -77 -113 -77q-21 0 -40 8v-169h-120z" />
<glyph unicode="&#xb6;" d="M18 467q0 91 56 155t136 64h239v-76h-48v-783h-81v783h-53v-783h-80v423q-72 10 -120.5 71.5t-48.5 145.5z" />
<glyph unicode="&#xb7;" horiz-adv-x="228" d="M53 278v131h121v-131h-121z" />
<glyph unicode="&#xb8;" horiz-adv-x="273" d="M36 -125h71q36 0 36 24t-34 24h-33l11 88h68l-5 -44q79 -6 79 -68q0 -45 -33.5 -63t-75.5 -18q-46 0 -84 8v49z" />
<glyph unicode="&#xb9;" horiz-adv-x="273" d="M32 622v56q59 8 115 45h40v-334h66v-69h-220v69h74v233h-75z" />
<glyph unicode="&#xba;" horiz-adv-x="299" d="M10 548q0 95 35 140.5t107 45.5t107 -45.5t35 -140.5t-35 -140.5t-107 -45.5t-107 45.5t-35 140.5zM99 535q0 -100 53 -100t53 100v26q0 100 -53 100t-53 -100v-26z" />
<glyph unicode="&#xbb;" d="M27 126l108 200l-108 200h91l136 -200l-136 -200h-91zM210 126l108 200l-108 200h91l136 -200l-136 -200h-91z" />
<glyph unicode="&#xbc;" horiz-adv-x="684" d="M32 585v56q59 8 115 45h40v-334h66v-69h-220v69h74v233h-75zM130 -12l396 710h66l-395 -710h-67zM397 89v61q58 103 102 264h79q-15 -69 -48 -144t-58 -112h68v37q33 62 52 131h27v-168h42v-69h-42v-89h-79v89h-143z" />
<glyph unicode="&#xbd;" horiz-adv-x="684" d="M32 585v56q59 8 115 45h40v-334h66v-69h-220v69h74v233h-75zM125 -12l396 710h66l-395 -710h-67zM425 0v18q0 30 13 60t25 45.5t38 45.5q27 30 40 46.5t25 42t12 49.5q0 37 -32 37q-35 0 -35 -55v-28h-79q-3 13 -3 27q0 64 34 95t86 31q50 0 81 -26.5t31 -81.5 q0 -43 -21 -81t-60.5 -83.5t-54.5 -67.5h138v-74h-238z" />
<glyph unicode="&#xbe;" horiz-adv-x="684" d="M29 401v15h82v-17q0 -54 40 -54q38 0 38 54q0 58 -42 58h-25v67h26q14 0 24 15t10 42q0 48 -31 48q-33 0 -33 -50v-16h-82v21q0 51 31.5 82.5t82.5 31.5q52 0 83.5 -30t31.5 -84q0 -56 -51 -90q57 -28 57 -99q0 -55 -33 -87t-86 -32q-58 0 -90.5 33.5t-32.5 91.5z M126 -12l396 710h66l-395 -710h-67zM394 89v61q58 103 102 264h79q-15 -69 -48 -144t-58 -112h68v37q33 62 52 131h27v-168h42v-69h-42v-89h-79v89h-143z" />
<glyph unicode="&#xbf;" horiz-adv-x="501" d="M48 6q0 60 16.5 97.5t46.5 72.5q2 3 11 13.5l12 14t10 13t10 14.5t7.5 14.5t6.5 17t3.5 17.5t1.5 21v28h126v-43q0 -28 -10 -54t-20 -39t-30 -38q-20 -24 -30 -38.5t-20 -42t-10 -57.5q0 -15 4 -31t21 -33.5t45 -17.5q31 0 49.5 20t23 40.5t4.5 44.5l-1 27h126 q3 -23 3 -35q0 -89 -55 -146.5t-158 -57.5q-88 0 -140.5 49t-52.5 129zM166 389v137h138v-137h-138z" />
<glyph unicode="&#xc0;" horiz-adv-x="592" d="M0 0l221 686h149l221 -686h-131l-42 135h-253l-41 -135h-124zM158 880l1 3h120l86 -132h-99zM200 249h183l-69 229l-20 93h-4q-10 -61 -20 -93z" />
<glyph unicode="&#xc1;" horiz-adv-x="592" d="M0 0l221 686h149l221 -686h-131l-42 135h-253l-41 -135h-124zM200 249h183l-69 229l-20 93h-4q-10 -61 -20 -93zM227 751l86 132h120l1 -3l-108 -129h-99z" />
<glyph unicode="&#xc2;" horiz-adv-x="592" d="M0 0l221 686h149l221 -686h-131l-42 135h-253l-41 -135h-124zM162 748l86 135h98l85 -135h-90l-45 69l-45 -69h-89zM200 249h183l-69 229l-20 93h-4q-10 -61 -20 -93z" />
<glyph unicode="&#xc3;" horiz-adv-x="592" d="M0 0l221 686h149l221 -686h-131l-42 135h-253l-41 -135h-124zM128 761q0 47 25 84.5t73 37.5q25 0 68 -18.5t65 -18.5q34 0 39 37h66q0 -48 -25 -85t-74 -37q-24 0 -67 18.5t-65 18.5q-34 0 -39 -37h-66zM200 249h183l-69 229l-20 93h-4q-10 -61 -20 -93z" />
<glyph unicode="&#xc4;" horiz-adv-x="592" d="M0 0l221 686h149l221 -686h-131l-42 135h-253l-41 -135h-124zM159 774v109h100v-109h-100zM200 249h183l-69 229l-20 93h-4q-10 -61 -20 -93zM333 774v109h101v-109h-101z" />
<glyph unicode="&#xc5;" horiz-adv-x="592" d="M0 0l221 686h149l221 -686h-131l-42 135h-253l-41 -135h-124zM200 249h183l-69 229l-20 93h-4q-10 -61 -20 -93zM200 817q0 40 28 68t68 28t68 -28.5t28 -67.5q0 -40 -28 -68t-68 -28q-39 0 -67.5 28t-28.5 68zM250 817q0 -19 13 -32.5t33 -13.5q19 0 32.5 13.5 t13.5 32.5t-13.5 32.5t-32.5 13.5q-20 0 -33 -13.5t-13 -32.5z" />
<glyph unicode="&#xc6;" horiz-adv-x="820" d="M-8 0l263 686h516v-114h-333l40 -164h249v-114h-221l44 -180h227v-114h-330l-33 135h-253l-50 -135h-119zM203 249h184l-70 297h-4z" />
<glyph unicode="&#xc7;" horiz-adv-x="592" d="M34 343q0 178 70.5 266.5t202.5 88.5q113 0 182.5 -67t69.5 -200h-131q0 77 -32.5 117t-88.5 40q-70 0 -105.5 -57.5t-35.5 -162.5v-50q0 -105 36.5 -162.5t108.5 -57.5q57 0 90 39.5t33 116.5h125q0 -123 -62.5 -190.5t-166.5 -74.5l-2 -22q79 -6 79 -68 q0 -45 -33.5 -63t-75.5 -18q-46 0 -84 8v49h71q36 0 36 24t-34 24h-33l8 68q-228 28 -228 352z" />
<glyph unicode="&#xc8;" horiz-adv-x="547" d="M60 0v686h437v-114h-309v-164h265v-114h-265v-180h315v-114h-443zM135 880l1 3h120l86 -132h-99z" />
<glyph unicode="&#xc9;" horiz-adv-x="547" d="M60 0v686h437v-114h-309v-164h265v-114h-265v-180h315v-114h-443zM205 751l86 132h120l1 -3l-108 -129h-99z" />
<glyph unicode="&#xca;" horiz-adv-x="547" d="M60 0v686h437v-114h-309v-164h265v-114h-265v-180h315v-114h-443zM139 748l86 135h98l85 -135h-90l-44 69l-45 -69h-90z" />
<glyph unicode="&#xcb;" horiz-adv-x="547" d="M60 0v686h437v-114h-309v-164h265v-114h-265v-180h315v-114h-443zM136 774v109h100v-109h-100zM311 774v109h100v-109h-100z" />
<glyph unicode="&#xcc;" horiz-adv-x="228" d="M-24 880l1 3h120l86 -132h-99zM50 0v686h128v-686h-128z" />
<glyph unicode="&#xcd;" horiz-adv-x="228" d="M45 751l86 132h120l1 -3l-107 -129h-100zM50 0v686h128v-686h-128z" />
<glyph unicode="&#xce;" horiz-adv-x="228" d="M-21 748l87 135h98l85 -135h-90l-44 69l-45 -69h-91zM50 0v686h128v-686h-128z" />
<glyph unicode="&#xcf;" horiz-adv-x="228" d="M-23 774v109h100v-109h-100zM50 0v686h128v-686h-128zM152 774v109h100v-109h-100z" />
<glyph unicode="&#xd0;" horiz-adv-x="592" d="M10 312v85h50v289h223q130 0 202.5 -85t72.5 -248q0 -173 -72 -263t-203 -90h-223v312h-50zM188 114h83q73 0 114 54.5t41 159.5v50q0 95 -41 144.5t-114 49.5h-83v-175h125v-85h-125v-198z" />
<glyph unicode="&#xd1;" horiz-adv-x="592" d="M60 0v686h113l212 -378l31 -64l3 3q-1 46 -1 57v382h114v-686h-114l-212 378l-31 64l-4 -3q2 -39 2 -57v-382h-113zM128 761q0 47 25 84.5t73 37.5q25 0 68 -18.5t65 -18.5q34 0 39 37h66q0 -48 -25 -85t-74 -37q-24 0 -67 18.5t-65 18.5q-34 0 -39 -37h-66z" />
<glyph unicode="&#xd2;" horiz-adv-x="638" d="M34 343q0 178 74.5 266.5t210.5 88.5t210.5 -88.5t74.5 -266.5t-74.5 -266.5t-210.5 -88.5t-210.5 88.5t-74.5 266.5zM166 318q0 -105 39 -162.5t114 -57.5t114 57.5t39 162.5v50q0 105 -39 162.5t-114 57.5t-114 -57.5t-39 -162.5v-50zM181 880l1 3h120l86 -132h-99z " />
<glyph unicode="&#xd3;" horiz-adv-x="638" d="M34 343q0 178 74.5 266.5t210.5 88.5t210.5 -88.5t74.5 -266.5t-74.5 -266.5t-210.5 -88.5t-210.5 88.5t-74.5 266.5zM166 318q0 -105 39 -162.5t114 -57.5t114 57.5t39 162.5v50q0 105 -39 162.5t-114 57.5t-114 -57.5t-39 -162.5v-50zM250 751l86 132h121l1 -3 l-108 -129h-100z" />
<glyph unicode="&#xd4;" horiz-adv-x="638" d="M34 343q0 178 74.5 266.5t210.5 88.5t210.5 -88.5t74.5 -266.5t-74.5 -266.5t-210.5 -88.5t-210.5 88.5t-74.5 266.5zM166 318q0 -105 39 -162.5t114 -57.5t114 57.5t39 162.5v50q0 105 -39 162.5t-114 57.5t-114 -57.5t-39 -162.5v-50zM185 748l86 135h98l85 -135h-90 l-44 69l-45 -69h-90z" />
<glyph unicode="&#xd5;" horiz-adv-x="638" d="M34 343q0 178 74.5 266.5t210.5 88.5t210.5 -88.5t74.5 -266.5t-74.5 -266.5t-210.5 -88.5t-210.5 88.5t-74.5 266.5zM151 761q0 47 25.5 84.5t73.5 37.5q25 0 67.5 -18.5t65.5 -18.5q33 0 38 37h67q0 -47 -25.5 -84.5t-73.5 -37.5q-24 0 -67 18.5t-65 18.5 q-34 0 -39 -37h-67zM166 318q0 -105 39 -162.5t114 -57.5t114 57.5t39 162.5v50q0 105 -39 162.5t-114 57.5t-114 -57.5t-39 -162.5v-50z" />
<glyph unicode="&#xd6;" horiz-adv-x="638" d="M34 343q0 178 74.5 266.5t210.5 88.5t210.5 -88.5t74.5 -266.5t-74.5 -266.5t-210.5 -88.5t-210.5 88.5t-74.5 266.5zM166 318q0 -105 39 -162.5t114 -57.5t114 57.5t39 162.5v50q0 105 -39 162.5t-114 57.5t-114 -57.5t-39 -162.5v-50zM182 774v109h100v-109h-100z M357 774v109h100v-109h-100z" />
<glyph unicode="&#xd7;" horiz-adv-x="479" d="M29 111l146 145l-146 146l72 72l145 -146l146 146l72 -72l-146 -146l146 -145l-72 -72l-146 146l-145 -146z" />
<glyph unicode="&#xd8;" horiz-adv-x="638" d="M34 343q0 178 74.5 266.5t210.5 88.5q91 0 155 -40l41 65h84l-71 -113q76 -90 76 -267q0 -178 -74.5 -266.5t-210.5 -88.5q-91 0 -155 39l-40 -64h-84l70 112q-76 90 -76 268zM166 318q0 -73 18 -124l226 362q-35 32 -91 32q-75 0 -114 -57.5t-39 -162.5v-50zM228 129 q36 -31 91 -31q75 0 114 57.5t39 162.5v50q0 74 -19 122z" />
<glyph unicode="&#xd9;" horiz-adv-x="592" d="M61 215v471h128v-467q0 -59 28 -90t79 -31t79.5 31t28.5 90v467h128v-471q0 -110 -62 -168.5t-174 -58.5t-173.5 58.5t-61.5 168.5zM158 880l1 3h120l86 -132h-99z" />
<glyph unicode="&#xda;" horiz-adv-x="592" d="M61 215v471h128v-467q0 -59 28 -90t79 -31t79.5 31t28.5 90v467h128v-471q0 -110 -62 -168.5t-174 -58.5t-173.5 58.5t-61.5 168.5zM227 751l86 132h120l1 -3l-108 -129h-99z" />
<glyph unicode="&#xdb;" horiz-adv-x="592" d="M61 215v471h128v-467q0 -59 28 -90t79 -31t79.5 31t28.5 90v467h128v-471q0 -110 -62 -168.5t-174 -58.5t-173.5 58.5t-61.5 168.5zM162 748l86 135h98l85 -135h-90l-45 69l-45 -69h-89z" />
<glyph unicode="&#xdc;" horiz-adv-x="592" d="M61 215v471h128v-467q0 -59 28 -90t79 -31t79.5 31t28.5 90v467h128v-471q0 -110 -62 -168.5t-174 -58.5t-173.5 58.5t-61.5 168.5zM159 774v109h100v-109h-100zM333 774v109h101v-109h-101z" />
<glyph unicode="&#xdd;" horiz-adv-x="547" d="M0 686h135l140 -301h4l139 301h129l-209 -427v-259h-128v259zM205 751l86 132h120l1 -3l-108 -129h-99z" />
<glyph unicode="&#xde;" horiz-adv-x="547" d="M60 0v686h128v-122h117q103 0 159 -57t56 -149q0 -97 -59 -155.5t-156 -58.5h-117v-144h-128zM188 257h104q46 0 71 26.5t25 74.5q0 42 -25.5 67t-70.5 25h-104v-193z" />
<glyph unicode="&#xdf;" horiz-adv-x="501" d="M40 0v520q0 109 59 162t155 53q87 0 142.5 -50.5t55.5 -136.5q0 -50 -26.5 -93.5t-68.5 -59.5v-4q51 -19 83.5 -69t32.5 -108q0 -95 -57 -154.5t-143 -59.5h-65v102h52q38 0 65 33.5t27 79.5q0 45 -27 77t-65 32h-52v113h49q31 0 52.5 32t21.5 76q0 40 -21.5 64.5 t-60.5 24.5q-41 0 -65 -28t-24 -78v-528h-120z" />
<glyph unicode="&#xe0;" d="M14 136q0 100 68 142t193 42v55q0 31 -11.5 48t-43.5 17q-33 0 -48 -16.5t-15 -38.5v-15h-117q-1 6 -1 22q0 66 48.5 106t129.5 40q179 0 179 -155v-259q0 -35 28 -35h24v-85q-30 -16 -71 -16q-35 0 -59.5 18.5t-33.5 50.5h-5q-25 -35 -54.5 -52t-78.5 -17t-90.5 33.5 t-41.5 114.5zM79 720l1 3h120l86 -132h-99zM137 147q0 -59 59 -59q40 0 59.5 32t19.5 83v30q-138 0 -138 -86z" />
<glyph unicode="&#xe1;" d="M14 136q0 100 68 142t193 42v55q0 31 -11.5 48t-43.5 17q-33 0 -48 -16.5t-15 -38.5v-15h-117q-1 6 -1 22q0 66 48.5 106t129.5 40q179 0 179 -155v-259q0 -35 28 -35h24v-85q-30 -16 -71 -16q-35 0 -59.5 18.5t-33.5 50.5h-5q-25 -35 -54.5 -52t-78.5 -17t-90.5 33.5 t-41.5 114.5zM137 147q0 -59 59 -59q40 0 59.5 32t19.5 83v30q-138 0 -138 -86zM148 591l86 132h120l1 -3l-108 -129h-99z" />
<glyph unicode="&#xe2;" d="M14 136q0 100 68 142t193 42v55q0 31 -11.5 48t-43.5 17q-33 0 -48 -16.5t-15 -38.5v-15h-117q-1 6 -1 22q0 66 48.5 106t129.5 40q179 0 179 -155v-259q0 -35 28 -35h24v-85q-30 -16 -71 -16q-35 0 -59.5 18.5t-33.5 50.5h-5q-25 -35 -54.5 -52t-78.5 -17t-90.5 33.5 t-41.5 114.5zM83 588l85 135h99l85 -135h-90l-45 69l-45 -69h-89zM137 147q0 -59 59 -59q40 0 59.5 32t19.5 83v30q-138 0 -138 -86z" />
<glyph unicode="&#xe3;" d="M14 136q0 100 68 142t193 42v55q0 31 -11.5 48t-43.5 17q-33 0 -48 -16.5t-15 -38.5v-15h-117q-1 6 -1 22q0 66 48.5 106t129.5 40q179 0 179 -155v-259q0 -35 28 -35h24v-85q-30 -16 -71 -16q-35 0 -59.5 18.5t-33.5 50.5h-5q-25 -35 -54.5 -52t-78.5 -17t-90.5 33.5 t-41.5 114.5zM49 601q0 50 26 86t72 36q25 0 68 -18.5t65 -18.5q34 0 39 37h66q0 -48 -25 -85t-74 -37q-24 0 -67 18.5t-65 18.5q-34 0 -39 -37h-66zM137 147q0 -59 59 -59q40 0 59.5 32t19.5 83v30q-138 0 -138 -86z" />
<glyph unicode="&#xe4;" d="M14 136q0 100 68 142t193 42v55q0 31 -11.5 48t-43.5 17q-33 0 -48 -16.5t-15 -38.5v-15h-117q-1 6 -1 22q0 66 48.5 106t129.5 40q179 0 179 -155v-259q0 -35 28 -35h24v-85q-30 -16 -71 -16q-35 0 -59.5 18.5t-33.5 50.5h-5q-25 -35 -54.5 -52t-78.5 -17t-90.5 33.5 t-41.5 114.5zM80 614v109h100v-109h-100zM137 147q0 -59 59 -59q40 0 59.5 32t19.5 83v30q-138 0 -138 -86zM254 614v109h100v-109h-100z" />
<glyph unicode="&#xe5;" d="M14 136q0 100 68 142t193 42v55q0 31 -11.5 48t-43.5 17q-33 0 -48 -16.5t-15 -38.5v-15h-117q-1 6 -1 22q0 66 48.5 106t129.5 40q179 0 179 -155v-259q0 -35 28 -35h24v-85q-30 -16 -71 -16q-35 0 -59.5 18.5t-33.5 50.5h-5q-25 -35 -54.5 -52t-78.5 -17t-90.5 33.5 t-41.5 114.5zM121 657q0 40 28 68t68 28t68 -28.5t28 -67.5q0 -40 -28 -68t-68 -28q-39 0 -67.5 28t-28.5 68zM137 147q0 -59 59 -59q40 0 59.5 32t19.5 83v30q-138 0 -138 -86zM171 657q0 -19 13.5 -32.5t32.5 -13.5t32.5 13.5t13.5 32.5t-13.5 32.5t-32.5 13.5 t-32.5 -13.5t-13.5 -32.5z" />
<glyph unicode="&#xe6;" horiz-adv-x="729" d="M37 136q0 100 68 142t193 42v55q0 31 -11.5 48t-43.5 17q-33 0 -48 -16.5t-15 -38.5v-15h-117q-1 6 -1 22q0 66 48.5 106t129.5 40q88 0 135 -50q47 50 125 50q96 0 143 -67t47 -208v-30h-267q1 -74 19.5 -110.5t61.5 -36.5q31 0 49 26.5t18 73.5h119q0 -98 -51 -148 t-135 -50q-107 0 -157 71q-64 -71 -158 -71q-25 0 -48.5 6.5t-48.5 21.5t-40 46t-15 74zM160 147q0 -59 59 -59q40 0 59.5 32t19.5 83v30q-138 0 -138 -86zM424 320h140q0 120 -64 120q-70 0 -76 -120z" />
<glyph unicode="&#xe7;" d="M41 263q0 141 48.5 208t146.5 67q87 0 135.5 -51.5t48.5 -158.5h-123q0 109 -61 109q-70 0 -70 -155v-38q0 -78 17.5 -116.5t56.5 -38.5q61 0 61 109h119q0 -194 -158 -209l-2 -22q79 -6 79 -68q0 -45 -33.5 -63t-75.5 -18q-46 0 -84 8v49h71q36 0 36 24t-34 24h-32l8 69 q-79 13 -116.5 79t-37.5 192z" />
<glyph unicode="&#xe8;" d="M31 263q0 275 202 275q96 0 143 -67t47 -208v-30h-267q1 -74 19.5 -110.5t61.5 -36.5q31 0 49 26.5t18 73.5h119q0 -98 -51 -148t-135 -50q-206 0 -206 275zM90 720l1 3h120l86 -132h-99zM157 320h140q0 120 -64 120q-70 0 -76 -120z" />
<glyph unicode="&#xe9;" d="M31 263q0 275 202 275q96 0 143 -67t47 -208v-30h-267q1 -74 19.5 -110.5t61.5 -36.5q31 0 49 26.5t18 73.5h119q0 -98 -51 -148t-135 -50q-206 0 -206 275zM157 320h140q0 120 -64 120q-70 0 -76 -120zM159 591l86 132h120l1 -3l-108 -129h-99z" />
<glyph unicode="&#xea;" d="M31 263q0 275 202 275q96 0 143 -67t47 -208v-30h-267q1 -74 19.5 -110.5t61.5 -36.5q31 0 49 26.5t18 73.5h119q0 -98 -51 -148t-135 -50q-206 0 -206 275zM94 588l86 135h98l85 -135h-90l-44 69l-45 -69h-90zM157 320h140q0 120 -64 120q-70 0 -76 -120z" />
<glyph unicode="&#xeb;" d="M31 263q0 275 202 275q96 0 143 -67t47 -208v-30h-267q1 -74 19.5 -110.5t61.5 -36.5q31 0 49 26.5t18 73.5h119q0 -98 -51 -148t-135 -50q-206 0 -206 275zM91 614v109h100v-109h-100zM157 320h140q0 120 -64 120q-70 0 -76 -120zM266 614v109h100v-109h-100z" />
<glyph unicode="&#xec;" horiz-adv-x="228" d="M-24 720l1 3h120l86 -132h-99zM54 0v526h120v-526h-120z" />
<glyph unicode="&#xed;" horiz-adv-x="228" d="M45 591l86 132h120l1 -3l-107 -129h-100zM54 0v526h120v-526h-120z" />
<glyph unicode="&#xee;" horiz-adv-x="228" d="M-21 588l87 135h98l85 -135h-90l-44 69l-45 -69h-91zM54 0v526h120v-526h-120z" />
<glyph unicode="&#xef;" horiz-adv-x="228" d="M-23 614v109h100v-109h-100zM54 0v526h120v-526h-120zM152 614v109h100v-109h-100z" />
<glyph unicode="&#xf0;" horiz-adv-x="501" d="M41 263q0 134 48.5 204.5t133.5 70.5q25 0 49 -8l3 4q-14 27 -38 61l-129 -11v73l75 7q-13 15 -53 55l2 4h126q24 -20 50 -48l130 12v-73l-75 -7q98 -143 98 -344q0 -141 -52 -208t-158 -67t-158 67t-52 208zM166 244q0 -78 20 -116.5t65 -38.5t65 38.5t20 116.5v38 q0 78 -20 116.5t-65 38.5t-65 -38.5t-20 -116.5v-38z" />
<glyph unicode="&#xf1;" horiz-adv-x="501" d="M55 0v526h100l12 -65h6q51 77 133 77q140 0 140 -169v-369h-120v336q0 93 -69 93q-35 0 -58.5 -30.5t-23.5 -74.5v-324h-120zM83 601q0 50 26 86t72 36q25 0 68 -18.5t65 -18.5q34 0 39 37h66q0 -48 -25 -85t-74 -37q-24 0 -67 18.5t-65 18.5q-34 0 -39 -37h-66z" />
<glyph unicode="&#xf2;" horiz-adv-x="501" d="M41 263q0 141 52 208t158 67t158 -67t52 -208t-52 -208t-158 -67t-158 67t-52 208zM112 720l1 3h120l86 -132h-99zM166 244q0 -78 20 -116.5t65 -38.5t65 38.5t20 116.5v38q0 78 -20 116.5t-65 38.5t-65 -38.5t-20 -116.5v-38z" />
<glyph unicode="&#xf3;" horiz-adv-x="501" d="M41 263q0 141 52 208t158 67t158 -67t52 -208t-52 -208t-158 -67t-158 67t-52 208zM166 244q0 -78 20 -116.5t65 -38.5t65 38.5t20 116.5v38q0 78 -20 116.5t-65 38.5t-65 -38.5t-20 -116.5v-38zM182 591l86 132h120l1 -3l-108 -129h-99z" />
<glyph unicode="&#xf4;" horiz-adv-x="501" d="M41 263q0 141 52 208t158 67t158 -67t52 -208t-52 -208t-158 -67t-158 67t-52 208zM116 588l86 135h98l85 -135h-90l-44 69l-45 -69h-90zM166 244q0 -78 20 -116.5t65 -38.5t65 38.5t20 116.5v38q0 78 -20 116.5t-65 38.5t-65 -38.5t-20 -116.5v-38z" />
<glyph unicode="&#xf5;" horiz-adv-x="501" d="M41 263q0 141 52 208t158 67t158 -67t52 -208t-52 -208t-158 -67t-158 67t-52 208zM83 601q0 50 26 86t72 36q25 0 68 -18.5t65 -18.5q34 0 39 37h66q0 -48 -25 -85t-74 -37q-24 0 -67 18.5t-65 18.5q-34 0 -39 -37h-66zM166 244q0 -78 20 -116.5t65 -38.5t65 38.5 t20 116.5v38q0 78 -20 116.5t-65 38.5t-65 -38.5t-20 -116.5v-38z" />
<glyph unicode="&#xf6;" horiz-adv-x="501" d="M41 263q0 141 52 208t158 67t158 -67t52 -208t-52 -208t-158 -67t-158 67t-52 208zM113 614v109h100v-109h-100zM166 244q0 -78 20 -116.5t65 -38.5t65 38.5t20 116.5v38q0 78 -20 116.5t-65 38.5t-65 -38.5t-20 -116.5v-38zM288 614v109h100v-109h-100z" />
<glyph unicode="&#xf7;" horiz-adv-x="549" d="M33 203v104h482v-104h-482zM222 41v110h104v-110h-104zM222 359v111h104v-111h-104z" />
<glyph unicode="&#xf8;" horiz-adv-x="501" d="M41 263q0 141 52 208t158 67q58 0 100 -21l22 41h75l-44 -81q57 -68 57 -214q0 -141 -52 -208t-158 -67q-59 0 -102 21l-22 -41h-75l45 82q-56 68 -56 213zM166 244q0 -34 3 -61l129 238q-19 16 -47 16q-45 0 -65 -38.5t-20 -116.5v-38zM202 106q20 -17 49 -17 q45 0 65 38.5t20 116.5v38q0 25 -4 63z" />
<glyph unicode="&#xf9;" horiz-adv-x="501" d="M55 157v369h120v-336q0 -50 17 -71.5t52 -21.5t58.5 29.5t23.5 73.5v326h120v-526h-100l-12 65h-6q-51 -77 -133 -77q-140 0 -140 169zM112 720l1 3h120l86 -132h-99z" />
<glyph unicode="&#xfa;" horiz-adv-x="501" d="M55 157v369h120v-336q0 -50 17 -71.5t52 -21.5t58.5 29.5t23.5 73.5v326h120v-526h-100l-12 65h-6q-51 -77 -133 -77q-140 0 -140 169zM182 591l86 132h120l1 -3l-108 -129h-99z" />
<glyph unicode="&#xfb;" horiz-adv-x="501" d="M55 157v369h120v-336q0 -50 17 -71.5t52 -21.5t58.5 29.5t23.5 73.5v326h120v-526h-100l-12 65h-6q-51 -77 -133 -77q-140 0 -140 169zM116 588l86 135h98l85 -135h-90l-44 69l-45 -69h-90z" />
<glyph unicode="&#xfc;" horiz-adv-x="501" d="M55 157v369h120v-336q0 -50 17 -71.5t52 -21.5t58.5 29.5t23.5 73.5v326h120v-526h-100l-12 65h-6q-51 -77 -133 -77q-140 0 -140 169zM113 614v109h100v-109h-100zM288 614v109h100v-109h-100z" />
<glyph unicode="&#xfd;" d="M4 526h127l79 -247q6 -18 13 -52t11 -59l4 -26h4q13 91 25 136l65 248h120l-144 -499q-60 -209 -186 -209q-22 0 -41 2t-28 4t-9 3v92h54q27 0 49 20t32 61zM159 591l86 132h120l1 -3l-108 -129h-99z" />
<glyph unicode="&#xfe;" horiz-adv-x="501" d="M55 -173v896h120v-257q39 72 116 72q80 0 124.5 -68.5t44.5 -207.5q0 -137 -44.5 -205.5t-118.5 -68.5q-40 0 -71.5 17.5t-45.5 48.5h-5v-227h-120zM175 246q0 -149 80 -149t80 147v38q0 147 -80 147t-80 -147v-36z" />
<glyph unicode="&#xff;" d="M4 526h127l79 -247q6 -18 13 -52t11 -59l4 -26h4q13 91 25 136l65 248h120l-144 -499q-60 -209 -186 -209q-22 0 -41 2t-28 4t-9 3v92h54q27 0 49 20t32 61zM91 614v109h100v-109h-100zM266 614v109h100v-109h-100z" />
<glyph unicode="&#x152;" horiz-adv-x="820" d="M30 343q0 177 60 266t168 89q94 0 150 -74v62h377v-114h-249v-164h206v-114h-206v-180h256v-114h-384v61q-55 -73 -150 -73q-108 0 -168 89t-60 266zM162 318q0 -116 30 -168t92 -52q63 0 93 52t30 168v50q0 116 -30 168t-93 52q-62 0 -92 -52t-30 -168v-50z" />
<glyph unicode="&#x153;" horiz-adv-x="774" d="M41 263q0 141 52 208t158 67q97 0 147 -66q50 66 141 66q96 0 143 -67t47 -208v-30h-267q1 -74 19.5 -110.5t61.5 -36.5q31 0 49 26.5t18 73.5h119q0 -98 -51 -148t-135 -50q-94 0 -144 65q-52 -65 -148 -65q-106 0 -158 67t-52 208zM166 244q0 -78 20 -116.5t65 -38.5 t65 38.5t20 116.5v38q0 78 -20 116.5t-65 38.5t-65 -38.5t-20 -116.5v-38zM463 320h140q0 120 -64 120q-70 0 -76 -120z" />
<glyph unicode="&#x178;" horiz-adv-x="547" d="M0 686h135l140 -301h4l139 301h129l-209 -427v-259h-128v259zM136 774v109h100v-109h-100zM311 774v109h100v-109h-100z" />
<glyph unicode="&#x2c6;" horiz-adv-x="273" d="M0 588l86 135h98l85 -135h-90l-44 69l-45 -69h-90z" />
<glyph unicode="&#x2dc;" horiz-adv-x="273" d="M-32 601q0 50 26 86t72 36q25 0 68 -18.5t65 -18.5q34 0 39 37h66q0 -48 -25 -85t-74 -37q-24 0 -67 18.5t-65 18.5q-34 0 -39 -37h-66z" />
<glyph unicode="&#x2000;" />
<glyph unicode="&#x2001;" horiz-adv-x="913" />
<glyph unicode="&#x2002;" />
<glyph unicode="&#x2003;" horiz-adv-x="913" />
<glyph unicode="&#x2004;" horiz-adv-x="304" />
<glyph unicode="&#x2005;" horiz-adv-x="228" />
<glyph unicode="&#x2006;" horiz-adv-x="152" />
<glyph unicode="&#x2007;" horiz-adv-x="152" />
<glyph unicode="&#x2008;" horiz-adv-x="114" />
<glyph unicode="&#x2009;" horiz-adv-x="182" />
<glyph unicode="&#x200a;" horiz-adv-x="50" />
<glyph unicode="&#x2010;" horiz-adv-x="273" d="M16 211v118h241v-118h-241z" />
<glyph unicode="&#x2011;" horiz-adv-x="273" d="M16 211v118h241v-118h-241z" />
<glyph unicode="&#x2012;" horiz-adv-x="273" d="M16 211v118h241v-118h-241z" />
<glyph unicode="&#x2013;" d="M0 221v98h456v-98h-456z" />
<glyph unicode="&#x2014;" horiz-adv-x="820" d="M0 221v98h820v-98h-820z" />
<glyph unicode="&#x2018;" horiz-adv-x="228" d="M45 393v125l66 168h72l-55 -156h55v-137h-138z" />
<glyph unicode="&#x2019;" horiz-adv-x="228" d="M45 393l55 156h-55v137h138v-125l-66 -168h-72z" />
<glyph unicode="&#x201a;" horiz-adv-x="228" d="M45 0v137h138v-125l-66 -168h-72l55 156h-55z" />
<glyph unicode="&#x201c;" horiz-adv-x="410" d="M44 393v125l66 168h72l-55 -156h55v-137h-138zM227 393v125l66 168h72l-55 -156h55v-137h-138z" />
<glyph unicode="&#x201d;" horiz-adv-x="410" d="M45 393l55 156h-55v137h138v-125l-66 -168h-72zM228 393l55 156h-55v137h138v-125l-66 -168h-72z" />
<glyph unicode="&#x201e;" horiz-adv-x="410" d="M45 0v137h138v-125l-66 -168h-72l55 156h-55zM228 0v137h138v-125l-66 -168h-72l55 156h-55z" />
<glyph unicode="&#x2022;" horiz-adv-x="287" d="M23 344q0 51 35 87t85 36t85.5 -36.5t35.5 -86.5q0 -51 -35.5 -87.5t-85.5 -36.5t-85 36.5t-35 87.5z" />
<glyph unicode="&#x2026;" horiz-adv-x="820" d="M68 0v137h138v-137h-138zM341 0v137h138v-137h-138zM614 0v137h138v-137h-138z" />
<glyph unicode="&#x202f;" horiz-adv-x="182" />
<glyph unicode="&#x2039;" horiz-adv-x="273" d="M19 326l136 200h91l-108 -200l108 -200h-91z" />
<glyph unicode="&#x203a;" horiz-adv-x="273" d="M27 126l108 200l-108 200h91l136 -200l-136 -200h-91z" />
<glyph unicode="&#x205f;" horiz-adv-x="228" />
<glyph unicode="&#x20ac;" d="M10 227v81h49q-1 11 -1 35q0 23 1 35h-49v81h60q26 112 102 175.5t188 63.5q41 0 74 -10v-100q-30 9 -64 9q-64 0 -109.5 -36.5t-66.5 -101.5h180v-81h-195q-1 -12 -1 -35q0 -24 1 -35h195v-81h-180q21 -66 66.5 -102t109.5 -36q34 0 64 9v-99q-38 -11 -74 -11 q-112 0 -188 63.5t-102 175.5h-60z" />
<glyph unicode="&#x2122;" horiz-adv-x="820" d="M77 619v67h276v-67h-101v-337h-75v337h-100zM385 282v404h111l63 -283h4l63 283h104v-404h-72v293h-4l-66 -293h-67l-65 293h-5v-293h-66z" />
<glyph unicode="&#xe000;" horiz-adv-x="525" d="M0 0v525h525v-525h-525z" />
<glyph unicode="&#xfb01;" horiz-adv-x="501" d="M9 425v101h53v64q0 60 29 100.5t95 40.5q47 0 87 -12v-89h-49q-42 0 -42 -43v-61h91v-101h-91v-425h-120v425h-53zM327 0v526h120v-526h-120zM327 614v109h120v-109h-120z" />
<glyph unicode="&#xfb02;" horiz-adv-x="501" d="M9 425v101h53v64q0 60 29 100.5t95 40.5q47 0 87 -12v-89h-49q-42 0 -42 -43v-61h91v-101h-91v-425h-120v425h-53zM327 0v723h120v-723h-120z" />
</font>
</defs>
</svg>
