<?xml version="1.0" standalone="no"?>
<!DOCTYPE svg PUBLIC "-//W3C//DTD SVG 1.1//EN" "http://www.w3.org/Graphics/SVG/1.1/DTD/svg11.dtd" >
<svg xmlns="http://www.w3.org/2000/svg">
<metadata></metadata>
<defs>
<font id="origicideregular" horiz-adv-x="1231" >
<font-face units-per-em="2048" ascent="1638" descent="-410" />
<missing-glyph horiz-adv-x="1001" />
<glyph horiz-adv-x="2048" />
<glyph horiz-adv-x="2048" />
<glyph unicode="&#xd;" horiz-adv-x="508" />
<glyph unicode=" "  horiz-adv-x="1001" />
<glyph unicode="&#x09;" horiz-adv-x="1001" />
<glyph unicode="&#xa0;" horiz-adv-x="1001" />
<glyph unicode="!" horiz-adv-x="505" d="M114 1440l2 -2h3l22 2h17l2 -2l2 2h75l22 -2l2 2l17 -2h29l24 2v-2l3 2h29v-275l-3 -58l3 -3v-2q0 -23 -12 -36v-5q9 0 9 -17l-2 -217l-2 -12l4 -37l-14 -106l12 3v-3l2 -111v-188l-12 -3l-113 3q-27 7 -68 7h-99l-53 5v-5h-7l-5 5v137l2 10l-2 10v24l2 2l-2 3v12l2 22 l-2 9l2 3l-2 12l2 19l-2 14l2 8l-2 2l2 15l-2 43h2l-2 2v3l2 29l-2 70v14l2 3l-2 7l2 2v3l-2 2l2 10l-2 27l2 2v2l-2 10v14h2l3 -2h2l-7 15v84l2 2l-2 3l2 24v65l5 7v3h-5l5 12l-5 5v2l3 10l-3 2v3l8 17v2l-3 2l3 3v14l2 20l-2 19l2 7l-2 15v5l2 2l-5 17l3 2v27l-3 2l3 3v19 l2 19l-2 12l2 66h48zM15 192l106 -10l10 2l2 -2l70 5l3 -3h2l97 8l58 -3v-9l-3 -42l3 -55v-121l2 -9q-5 -13 -5 -56l3 -10l-3 -2l3 -12v-53l-3 -22l3 -2l-3 -13v-31l3 -19l-3 -20v-16l3 -10l-3 -10v-7h-2q-9 0 -63 63q-11 0 -22 19q-6 0 -178 169l-36 34l-46 43 q-10 13 -10 22v152l2 3l-2 2v5q5 10 12 10z" />
<glyph unicode="&#x22;" horiz-adv-x="992" d="M21 1594h17l15 -2l2 2h2l15 -2l7 2l12 -2l51 2l7 -2l2 2l12 -2l10 2l9 -2l12 2l15 -2l7 2l12 -2h34l2 2l3 -2h33l3 2l2 -2h7v2l17 -2h14l3 -12v-3l2 -43l-7 -84l2 -2v-3l-2 -7q5 -7 5 -19h2l3 12h4l5 -17l-2 -70l2 -24l-2 -21v-22l-3 -2l3 -3l-5 -43h-5v38h-2l-3 -149 q-7 0 -7 -4l5 -5v-5h-5q-18 8 -79 77l-2 -3h-3l-17 25l-2 -3h-3l-21 27l-3 -3q0 8 -19 24q-22 31 -36 31q0 12 -31 39l-79 82q-32 33 -32 45v51l-2 36l2 19l-2 34q2 9 14 9zM509 1594h17l15 -2l2 2h2l15 -2l7 2l12 -2l51 2l7 -2l2 2l12 -2l10 2l9 -2l12 2l15 -2l7 2l12 -2 h34l2 2l3 -2h33l3 2l2 -2h7v2l17 -2h14l3 -12v-3l2 -43l-7 -84l2 -2v-3l-2 -7q5 -7 5 -19h2l3 12h4l5 -17l-2 -70l2 -24l-2 -21v-22l-3 -2l3 -3l-5 -43h-5v38h-2l-3 -149q-7 0 -7 -4l5 -5v-5h-5q-18 8 -79 77l-2 -3h-3l-17 25l-2 -3h-3l-21 27l-3 -3q0 8 -19 24 q-22 31 -36 31q0 12 -31 39l-79 82q-32 33 -32 45v51l-2 36l2 19l-2 34q2 9 14 9z" />
<glyph unicode="#" horiz-adv-x="1401" d="M945 1443l6 -2l8 2l2 -2l6 2l90 -2h23l4 -19v-2l-2 -43l2 -26l-2 -78q0 -13 31 -19v-4h4v8h103l2 -2l2 2l41 -4v-207l-2 -19l2 -8l-2 -115h-2l-152 -2h-4q-17 0 -17 8h-4l-2 -20v-43h-10l-4 -4q6 -7 14 -7v-10l4 -22l-2 -11l2 -8l-2 -47l2 -29h-2l2 -2v-107l-2 -2l2 -2 v-14l-2 -2l2 -2v-10l-2 -19l4 -10h60l117 2v-4h2l-2 -62v-273l2 -20l-17 2h-4v-2l-10 2l-70 -2l-6 12q-3 0 -8 -12h-27l-8 37h-4q0 -33 -8 -33l-13 -4l-4 4l-2 -2v-27l4 -150l-2 -2l-57 2l-72 -2l-17 2l-8 -4l-10 2h-14l-7 -2l-10 2h-61l-35 -2v2l-2 -2h-6l-3 2l-2 -2h-26 v19l-2 20h-2v-6l2 -2l-2 -10v-13l2 -2v-2l-2 -2h-2l-21 2v130l-2 24l16 8l-2 2h-2l2 2v5q-3 8 -14 8l-4 -4h-33l-8 -2l-8 2h-2l-2 -2l-3 2h-26l-25 -2v2l-2 -2h-20q-17 0 -17 8h-2l-8 -6h-6l-8 2l-11 -4v-13q0 -10 -4 -10l4 -12v-4l-4 -4l4 -13v-119l-4 -4h-6l-6 2l-10 -2 h-9l-24 2l-105 -4l-2 2l-10 -2h-4l-23 2l-33 -2h-111q-5 0 -6 10l-8 -6h-6v17h2l12 -5l-4 105v31l-2 20q10 0 10 5q-2 6 -12 6l-12 -4l-2 2l-2 -2h-9l-47 -2l-8 2l-6 -2l-33 2l-31 -2l-10 2l-12 -2l-2 2v145q0 31 4 31q-4 8 -4 23v84l2 39l-2 14l2 13l-2 6l30 -2h48l2 -2 l2 2h6l2 -2l2 2h4l2 -2l2 2h51l9 -2l8 2h10l2 -2h2v4l-6 8v8q10 0 19 12l-19 11v102q0 78 10 189v4h-2l-2 -14h-2q-6 0 -8 27q0 12 8 12v2l-4 6l-39 -4h-115l-2 2l-6 -2l-10 6h-2l-5 -4q0 -5 15 -6l10 2l33 -2h20l13 2l6 -2v2l2 -2h14l9 2l8 -2v2l2 -2h10l8 2l6 -2l3 2h2 q12 0 12 -14l2 -21l-2 -2h-2l-15 4l3 2v10l-3 11l-8 -6q-4 0 -4 6l-2 2h-2v-6h-29l-8 2l-8 -2l-51 -2q-62 4 -62 12v14l4 84l-2 17l2 6q7 0 8 -45l-2 -13l2 -12l-2 -22l2 -13l4 4v43q0 35 -4 35l2 11v12l-2 2l2 2v35l-2 2l2 2v2l-2 2l2 2v56l-2 2l2 2v8l-2 25l4 45l-4 35 l2 8v12l31 4l27 -2l20 2l2 -2v-2l2 2h5l6 -2l10 2h6l6 -2l11 2h43l2 2l12 -4h6v2l-4 4h-8l-2 -2l-12 2v4q12 0 12 5q-8 3 -8 14q4 0 4 6h2q6 -1 6 -16h2l2 14l-2 10v82l2 23l-2 16v7l10 8h189l39 2l33 -2h43l41 4l-2 -45l2 -121h2l-2 -7q3 -14 8 -14h4v6h9l2 -22h2l2 16h2 q4 0 4 -6h2q2 16 14 16v-2l2 -8v-10h5v16h4l6 -4h2l-2 2v2l6 4l8 -2l6 2l21 -2l20 2l2 -2h2l15 2l12 -6l6 6h4l9 -2l2 2h2l2 -2h2l14 2l-10 15v20q12 0 12 4l-12 2v4l14 3l-4 4h-10v104l6 21l8 -2l15 2h45l4 4l10 -2h19zM550 901l2 -6l-2 -31v-59l2 -11l-2 -12v-150l2 -31 l-2 -24v-47h2q8 6 19 6h109l33 2l18 -2l6 2v8h-8l-2 179v8h6v2q-6 0 -6 4v14l-2 17l2 12l-2 14l2 19l-2 2l2 10l-2 25l2 2h2l-4 39l12 4v4h-107l-8 -2l-2 2h-2l-12 -2l-43 6zM750 103l-7 -21v-2h2l2 10h5v-4h2l-2 -2v-2l2 -35h2v29q0 27 -6 27zM741 68l-2 -15v-2h2l2 13v4 h-2zM735 25h4l2 14q-4 0 -6 -14z" />
<glyph unicode="$" horiz-adv-x="1228" d="M708 1618h7l-1 -169l3 -12h10l35 2l12 -5l3 2l118 2l184 -1l2 -17v-56l-3 -7l3 -13l-2 -261l-128 -2l-10 3l-2 -3l-43 3h-25l-56 -2v2l-2 -2l-50 3h-104l-15 3l-7 -3l-267 -3l-2 2l2 3v2l-5 5l-5 -5l-2 3h-3l-2 -13v-2l2 -3l-2 -2l-1 -36l2 -93l-15 -2v-3l15 -2v-13 l-5 -25l143 -1l395 3l8 3l2 -3l3 3q0 -8 10 -8l10 3l60 -31l3 3q0 -8 60 -26q41 -27 47 -209l-1 -103l2 -2l-2 -3v-50l2 -10l-5 -13l2 -17v-71l2 -196q-1 -104 -74 -130q-44 -40 -61 -40h-12q0 10 -18 10l-203 -12v-2l3 -342h-8q0 7 -22 23l-85 71l-241 240v5h8v5l-10 2 l-3 -2l-362 2l1 63q1 17 5 17q-5 13 -5 58v40l-2 3l2 2l-2 56l1 110h50l38 -5l158 7l13 -3l216 6l3 -2h2l13 2l15 -2l15 2l2 -2h3l10 2h2l3 -3l2 3l86 -6v6l85 -1v-5h3l18 7v3q-5 0 -5 13h-5v2l-2 131q15 5 15 10q-15 0 -15 7q0 14 8 28l-3 3q-26 -8 -108 -7l-169 1l-85 -2 l-23 2v-5h-50q-31 1 -48 16v5h5v2h-5l-2 -2v-5q5 -10 12 -10v-5h-55q-25 0 -25 5l-3 -2h-2q-98 0 -98 18h-3l-2 -3v5q-13 0 -58 63q-12 33 -12 56v22l-2 10l2 3v2l-2 11l2 2l-2 18v113l-2 10l3 2l-3 31v5l-1 311l-2 23l3 3v2l-3 13q0 59 38 103h3v-5q30 47 40 47 q48 27 91 27l3 -2l30 2h22l86 2l12 -5l26 7l12 -2v2l-2 18h2l3 -3h2l3 10l-4 144q6 5 25 5v2l25 -3h85l10 2l3 -2l7 2zM264 564v-2l10 -3h3v3l-10 2h-3z" />
<glyph unicode="%" horiz-adv-x="1903" d="M746 1561l66 -5l5 5h110l5 -5l-5 -8h5v-300l-3 -10l3 -10v-291l-3 -2l3 -3v-7l-3 -3l3 -2v-140q0 -40 -5 -53l5 -8l-5 -82l2 -3v-2l-5 -45l3 -8h-3l3 -2l-3 -13v-67l3 -3l-3 -2v-5l3 -10l-3 -11v-2l3 -10l-3 -10l3 -3l-3 -12v-40l8 5h2v-8l3 -15l-3 -2l3 -25v-326l-3 -65 l5 -30q-2 -35 -7 -35h-323q0 8 -8 8h-2v2l2 3l-2 2v20l2 3l-2 2v10l2 3l-2 2v38l2 7l-2 13v62l2 10l-2 10l2 3l-2 2v13l2 2l-2 3v2l2 13l-2 27v25l2 11l-2 10v7l5 15h2l-2 3l-5 265l7 63l-2 2v13l2 2v3l-7 2v23l-3 22l3 25v33l-3 10l3 10v55h2l3 -3h2v3q-10 115 -10 218v35 l-2 35l2 33v30l-2 35l2 2v3l-2 2v3l2 2v3l-2 17l5 20l-5 73l5 50l-3 17l5 5l-7 3l2 17l-2 38h2l-2 3v2l2 23l-2 12h2l-2 3l5 40q-5 0 -5 7l2 3l-2 10l2 27l-2 13l2 2v3l-2 15l15 5v2h70zM139 1433l5 -5v5h158q24 0 43 -12q17 0 55 -38l-3 -2l18 -23l2 3q8 -10 8 -18h-5 q4 0 7 -110l-2 -15h7v-18h-5v5h-2v-5l7 -2v-28h-7v-37h2v25h3l2 -13v-25l-2 -2l2 -3v-5l-2 -2v-3l5 -5v-25l-3 -12h-2l-3 2h-2l-3 -25v-35l-2 -3l2 -2v-5q0 -93 -100 -128q-30 -5 -85 -5v5l35 5v5q-79 -12 -113 -12h-7q-66 0 -98 30q-47 39 -47 75l-13 30l10 5l-2 2v63 l-3 10l3 8l-3 30v5h3l-3 17v105q0 112 38 143q15 17 47 35l3 -2q0 10 52 12zM139 1295l-5 -7l3 -8l-3 -115v-22l3 -18h-3l3 -2l-3 -13v-105l8 -3l2 3h3l27 -3h3v10l50 -2h45q-8 6 -8 12h-5v8q13 0 13 7h7l3 -17v-8h-5l7 -7l3 2l-3 18v12h6l-6 20l3 13l-3 48v62l3 30h-3l3 3 v22l3 15l-3 13l5 17l-5 5l8 3v5h-113zM425 1123v-13h2v13h-2zM425 1095v-10h2v10h-2zM212 1002v-2h12v2h-12zM242 1002v-2h22v2h-22zM1229 574l6 -5l5 5l47 -3l15 3v-3l3 3h70l2 -3l3 3h2q19 0 45 -8v-5h-5v-2q35 0 55 -25q8 0 18 -25q20 -16 20 -28h-5l5 -48v-35l2 -22 l-2 -18v-2l2 2h5v-17h-7l2 -3l-2 -67v-20q5 0 10 -13v-20l-3 -17h-5v5h-2l-3 -26v-30l-2 -10l2 -7q0 -61 -57 -108l-20 -12v2q-24 -12 -53 -12h-12l-3 -3h-2v3l-3 -3l-12 3h-33v2l45 8v2h-5l-105 -12q-78 0 -113 35q-28 15 -47 80v12q-8 0 -8 10h3l2 -2h3v5h2l-2 2v48l-3 28 l3 2l-3 13v25l3 2l-3 3v132l-2 10q9 82 25 103q42 50 87 60v-2zM1227 433q0 -7 -8 -7v-3l8 -2l-3 -80v-65l3 -13l-3 -2h3l-3 -3v-115l48 -3h15v3q-22 0 -22 5v2h77l18 -2v5q-5 0 -5 10h-5v5l12 2l-2 3v2h10l2 -12v-8l-5 -7l8 -3l2 3l-2 12l2 20l-2 21v2l2 10l-2 18v105l2 10 l-2 2v3l5 37l-3 15l5 15l-5 5v3q8 0 8 5h-105l-10 2l-3 -2l-17 2h-23zM1300 143v-3h52v3h-52z" />
<glyph unicode="&#x26;" horiz-adv-x="1225" d="M726 1612h3l7 -5l55 3l27 -3l28 3l2 -3h3l12 5l20 -5h52l3 -2l2 2l117 -2h28v-55l-3 -241h3l-3 -3v-201l-2 -10l2 -10v-3l-2 -17l-38 2h-20l-10 3l-2 -3h-3l-59 5l-135 -2l-17 2l-7 -2l-30 2l-33 -2l-17 2l-3 -2h-2l-10 2h-2l-8 -2l-7 2l-252 5q0 15 -5 15q-1 -15 -5 -15 l-44 3l-10 -5l2 -8l-2 -164v-27h5q0 10 5 10l22 -3l17 3q8 0 8 -8h5v5h144l15 3q15 -5 65 -5h64l3 -3h2l-2 -12v-100l-3 -35l3 -10l-3 -12l3 -15h-3l3 -2v-3l-3 -12l3 -28v-5h-3l3 -17v-97l-3 -3v-2l-54 2h-222l-25 3l-2 -3l-5 15v8h-5l-5 -23q-8 0 -10 38h-2l-3 -35h-15 q0 7 -5 7h-2l-5 -12q7 0 7 -5l-2 -164l-3 -10l8 -3l20 3l12 -13q1 10 7 10h25l3 -2l2 2l55 -2h65l87 -3v3l7 -3l97 3v-3l3 3l17 -3h57l10 -2l3 2h2l15 -2l10 2l10 -2h5v2l25 -2h22l10 -3l10 3l35 -3l15 3l57 -3h33l-3 -241v-25l-2 -10l2 -10v-42l-2 -10l2 -2l-2 -43v-171 q0 -25 5 -25l-3 -37v-78l-2 -12h-3q-256 248 -266 274q-13 0 -85 82v5h18l-5 5h-25l-3 2l-2 -2h-30l-15 2l-12 -2h-5l-3 2l-2 -2l-112 2h-105l-15 3l-2 -3l-12 3h-10l-3 -3l-2 3l-137 -3h-82q-79 0 -137 95q-18 35 -20 67l5 298v10l2 62l-2 28h2l-2 7l2 38l-2 34h2l-2 3v20 h2l8 -3v13l-8 196l5 5q-7 60 -7 102l2 3l-2 2v3l2 171l3 15l-3 20v57h5v3l-5 20v15q0 80 80 134q34 25 72 25h23v-3l-3 -7h3q7 0 7 12h17l10 -2l3 2l25 -2l472 -8l8 -7q0 7 5 7l-5 13h7v5h-7v40l2 2l-2 3v92h5l-3 12v15zM818 1602v-15h3v15h-3z" />
<glyph unicode="'" horiz-adv-x="490" d="M11 1603h17l15 -2l2 2h2l15 -2l7 2l12 -2l51 2l7 -2l2 2l12 -2l10 2l9 -2l12 2l15 -2l7 2l12 -2h34l2 2l3 -2h33l3 2l2 -2h7v2l17 -2h14l3 -12v-3l2 -43l-7 -84l2 -2v-3l-2 -7q5 -7 5 -19h2l3 12h4l5 -17l-2 -70l2 -24l-2 -21v-22l-3 -2l3 -3l-5 -43h-5v38h-2l-3 -149 q-7 0 -7 -4l5 -5v-5h-5q-18 8 -79 77l-2 -3h-3l-17 25l-2 -3h-3l-21 27l-3 -3q0 8 -19 24q-22 31 -36 31q0 12 -31 39l-79 82q-32 33 -32 45v51l-2 36l2 19l-2 34q2 9 14 9zM336 1389v-69h2l3 38l-3 31h-2zM336 1305v-9h2v9h-2z" />
<glyph unicode="(" horiz-adv-x="678" d="M163 1785q2 -10 11 -14q7 0 7 9l2 3h71l20 -3q11 5 41 5h126l43 -2l3 2h2l25 -2h18v-84l-2 -2v-3h2l-7 -24v-32l-2 -9l2 -11l2 -55l-2 -72v-36l2 -23h-79l-2 2l-2 -2h-61q-8 0 -16 7h-9l-3 -7l3 -2v-7l-3 -2l3 -3v-34l-3 -6l3 -12v-25l-3 -20l3 -23v-20l-3 -2l3 -3v-2 q-2 -16 -7 -22q4 0 7 -14l-3 -2l3 -34v-21l-3 -13l3 -23v-226l-3 -32l3 -23v-4l-3 -18l3 -18v-3l-3 -2l3 -2v-34l-3 -72h3l-3 -3v-2l3 -61l-3 -7h-4v2l-5 52h-2v-9q5 -120 9 -120l-2 -13h2l-2 -2v-3l7 -38l-3 -2v-75l3 -2l-9 -30l4 -280v-71h-9v-4l9 -2v-12l-4 -7l4 -6v-23 h9v9h7l9 -7q0 7 11 7h5v-2l9 2l63 -2l41 4l11 -2l3 2h2q11 -1 11 -13v-18l-2 -14l2 -11l-2 -2l2 -12v-4l-2 -12v-4h2l-2 -73v-47l2 -36l-2 -9l2 -16l-2 -27l2 -32l-2 -23l-18 -2l-2 2h-3l-2 -2l-109 5l-2 -3v5h-2q-8 -7 -16 -7q-14 0 -14 14h-2v-12h-86q0 14 -4 14 q0 -14 -5 -14l-56 5l-5 -5l-18 7q-2 -7 -14 -7h-4q-61 0 -113 43q-52 57 -52 118h2l7 7q0 8 -12 22h3l-3 3v6h3l-3 10l3 92v75l2 14l-2 9l2 6l-2 3l2 16v99l2 14l-2 11l2 20l-2 9l2 55v88l-4 25v281l2 58l-2 7l2 12l-2 31h2l-2 3v6l2 16h-2l2 7l-2 2l4 25v5h-2l-2 192v100 l2 20l-2 2l6 154v12l3 13l-3 2v3l3 20v9l-3 11h-2q-2 -13 -7 -13v4l-2 84h2l-2 2v39l2 2l-2 2v21l2 2l-2 2v21l2 2l-2 2v36q0 5 7 5v2q0 8 -7 16v9q5 62 34 70l4 9h-2l-9 -7l-2 3h-2q0 9 47 52h2l7 -2q27 38 84 38zM235 1758v-5h7v3z" />
<glyph unicode=")" horiz-adv-x="678" d="M455 1747l7 2h2q48 -43 48 -52h-3l-2 -3l-9 7h-2l4 -9q29 -8 34 -70v-9q-7 -8 -7 -16v-2q7 0 7 -5v-36l-2 -2l2 -2v-21l-2 -2l2 -2v-21l-2 -2l2 -2v-39l-2 -2h2l-2 -84v-4q-5 0 -7 13h-2l-2 -11v-9l2 -20v-3l-2 -2l2 -13v-12l7 -154l-3 -2l3 -20v-100l-3 -192h-2v-5 l5 -25l-3 -2l3 -7h-3l3 -16v-6l-3 -3h3l-3 -31l3 -12l-3 -7l3 -58v-281l-5 -25v-88l2 -55l-2 -9l2 -20l-2 -11l2 -14v-99l3 -16l-3 -3l3 -6l-3 -9l3 -14v-75l2 -92l-2 -10h2v-6l-2 -3h2q-11 -14 -11 -22l6 -7h3q0 -61 -52 -118q-53 -43 -114 -43h-4q-11 0 -14 7l-18 -7l-4 5 l-57 -5q-4 0 -4 14q-5 0 -5 -14h-86v12h-2q0 -14 -14 -14q-7 0 -16 7h-2v-5l-2 3l-109 -5l-2 2h-2l-3 -2l-18 2l-2 23l2 32l-2 27l2 16l-2 9l2 36v47l-2 73h2v4l-2 12v4l2 12l-2 2l2 11l-2 14v18q0 12 11 13h3l2 -2l11 2l41 -4l63 2l9 -2v2h5q11 0 11 -7l9 7h7v-9h9v23l5 6 l-5 7v12l9 2v4h-9v71l5 280l-9 30l2 2v75l-2 2l6 38v3l-2 2h2l-2 13q5 0 9 120v9h-2l-5 -52v-2h-4l-2 7l2 61v2l-2 3h2l-2 72v34l2 2l-2 2v3l2 18l-2 18v4l2 23l-2 32v226l2 23l-2 13v21l2 34l-2 2q3 14 6 14q-5 6 -6 22v2l2 3l-2 2v20l2 23l-2 20v25l2 12l-2 6v34l2 3l-2 2 v7l2 2l-2 7h-10q-8 -7 -15 -7h-61l-3 2l-2 -2h-79l2 23v36l-2 72l2 55l2 11l-2 9v32l-7 24h3v3l-3 2v84h18l25 2h3l2 -2l43 2h127q29 0 40 -5l21 3h70l2 -3q0 -9 7 -9q9 4 11 14q57 0 84 -38zM292 1756v-3h7v5z" />
<glyph unicode="+" horiz-adv-x="1156" d="M523 1184h23v-8h7l-2 3v5h45l11 -3l10 3h7l13 -3v-5h-2l-3 3l-3 -3h-27l-3 3h-3v-3l3 -2h53l3 2h2l-2 3v5h15v-3l3 -328l2 -7l13 2h2q31 0 31 -18v-5h3v21h73l38 -3l16 3l84 -3l2 -2h3l10 2l66 3v-21l-3 -2l3 -3v-23l-3 -2l3 -3v-20l-3 -3l3 -2v-148l2 -61l-2 -7l2 -26 v-7l-5 -5h-5l-7 2l-11 -2l-132 2l-162 -5l-16 5v-2l-5 -13l5 -5v-18q-23 -2 -23 -8q23 0 23 -5v-5l3 -51h-3l3 -2v-3l-3 -132l3 -104h-20l-11 3l-2 -3l-10 3l-69 -3h-216q-13 6 -13 23l3 28l-3 15l3 3l-3 12v69l3 10l-3 10l3 3l-3 13v147q8 0 8 5v3l-5 5h-8v-8h-23l-2 13v23 l-5 -5v-23l-8 -8l-5 5l-5 -5h-74l-2 3l-3 -3h-188q-25 0 -25 20l2 18l-2 8l2 10l-2 23l2 10l-2 13h2l-2 7l2 36l-5 51l3 23l-3 38h3l-3 2v31l5 5l3 -3v3l-3 36v2l26 3h254q5 0 5 -8h2v8h16l7 -5v5h3l10 -3l10 3q0 -8 5 -8h3l5 13q-8 16 -8 35v3l-2 94l2 10l-2 36v152l33 5 l2 -2l31 2h7l115 -2v5z" />
<glyph unicode="," horiz-adv-x="490" d="M11 160h17l15 -2l2 2h2l15 -2l7 2l12 -2l51 2l7 -2l2 2l12 -2l10 2l9 -2l12 2l15 -2l7 2l12 -2h34l2 2l3 -2h33l3 2l2 -2h7v2l17 -2h14l3 -12v-3l2 -43l-7 -84l2 -2v-3l-2 -7q5 -7 5 -19h2l3 12h4l5 -17l-2 -70l2 -24l-2 -21v-22l-3 -2l3 -3l-5 -43h-5v38h-2l-3 -149 q-7 0 -7 -4l5 -5v-5h-5q-18 8 -79 77l-2 -3h-3l-17 25l-2 -3h-3l-21 27l-3 -3q0 8 -19 24q-22 31 -36 31q0 12 -31 39l-79 82q-32 33 -32 45v51l-2 36l2 19l-2 34q2 9 14 9zM336 -54v-69h2l3 38l-3 31h-2zM336 -138v-9h2v9h-2z" />
<glyph unicode="-" horiz-adv-x="1168" d="M298 837q0 -7 20 -10l60 2h3l11 -2l10 2h3q8 -6 23 -8l180 8l34 -2h13l21 2l42 -5l15 3h32l2 -3l3 3h5l11 -3l2 3l32 -3h23l11 -3l10 3h16l26 -3l15 3l21 -8v5l32 -2h10l3 -3h2v5h11l-3 -2v-3h5v5q12 0 19 -13l2 -2h3l-3 -32v-57l-2 -3l2 -2v-11l-2 -15l2 -13l-2 -3l2 -3 l-2 -70v-91l-3 -19l-37 3l-67 -3h-6l-2 3l-3 -3h-10l-11 3l-2 -3l-40 3h-143l-13 2l-16 -2h-321l-8 5l-5 -5l-157 2l-7 3l-3 -3h-3l-49 3h-18l-3 3l-3 -3h-83l-5 5l2 11l-5 70h3l-3 3l3 52v10l2 183l5 5l11 -5l26 3v-8l18 3h5l71 2v3l3 -3l44 3h42l23 -3q12 5 45 8z" />
<glyph unicode="." horiz-adv-x="481" d="M7 319h197q36 0 57 -4l60 4q0 -12 -4 -12l2 -21h2v7h5q0 -17 -7 -17v-161l2 -2l-2 -3v-52l2 -10l-2 -2l2 -17v-24l-2 -3v-2l-60 2h-236l-24 -2v98l5 68q-7 0 -7 7l2 10l-2 2l2 2v34l-2 2l2 8l-2 7l2 24v33l-2 3l2 2v10l-2 2v3q10 0 10 4z" />
<glyph unicode="/" horiz-adv-x="502" d="M301 1541l41 -2v2q9 -3 9 -7t-7 -4v-3h7v-11l-2 -9l2 -16v-254l-2 -26l2 -29v-268l-2 -21l2 -2v-3l-2 -2l2 -27v-117l-2 -3l2 -6l-4 -53l4 -12q-4 -8 -4 -25v-11l2 -2l-2 -3v-2l2 -2l-5 -30l3 -2v-3l-3 -32v-9l-2 -9l2 -9v-7l-2 -2v-3h2l-2 -2v-37h2l3 12h4v-25h-2 q-5 0 -5 9h-2v-23l2 -9l-2 -3v-2l2 -11l-2 -16l2 -12l-2 -7l2 -2l-2 -16v-39l11 5v-181l3 -46l-3 -46v-92l3 -38h-3l3 -3v-23h-5l2 -2v-2l-2 -3l7 -48l-2 -29v-3l-5 -4h-30l-2 2l-2 -2h-298q0 7 -11 7v4l2 2l-2 3v20l2 3l-2 2v32l-3 9l5 23l-2 2v74l2 9l-2 9v21l2 2l-2 2v2 l2 14l-2 32v23l2 9l-2 10v6l6 14l-2 14l2 9q-3 0 -6 257l6 71h-2l2 2v9q0 5 -6 5l-3 43l3 62l-3 9l3 21v46h9q-14 91 -14 405v30q1 16 5 16q-5 37 -5 98l5 30l-5 16l7 7q-7 0 -7 5v75q0 40 5 62l-5 5v82h14v5h11l133 2l50 -2v-3l3 3l11 -3h2v5h26z" />
<glyph unicode="0" horiz-adv-x="1056" d="M173 1437l8 -4l20 4l25 -2l32 2l2 -2h2l2 2l34 -2h57l87 -2l91 2h99l2 -2l2 2h77q10 0 10 -6l2 2h16q31 0 63 -12v-4l-2 -2v-2q40 0 79 -71q18 -23 18 -174l-4 -24l2 -8l-2 -29v-8l2 -60h-2l2 -6l2 -33l-2 -10l2 -6l-2 -22v-25l-2 -2l2 -2v-2l-2 -42l2 -41l-2 -22l2 -12 l-4 -14h2l-2 -2v-2l2 -6l-2 -12l2 -2l-2 -10v-11l2 -10l-2 -12v-20l-2 -8l2 -2l-2 -20v-6l-2 -75h2l-2 -2v-6l-2 -126q6 0 6 -6l-2 -6l2 -8l-2 -6l2 -14l-2 -33l2 -36l-2 -14l2 -10l-2 -12l2 -8l-2 -7l2 -32v-8l-2 -10l2 -12v-14q-10 -38 -10 -61l2 -14q-17 -84 -26 -93 q-15 -28 -49 -43l-85 -28l-4 4h-22l-10 2l-12 -2h-7l-8 2l-14 -2l-145 2l-8 2l-3 -2q-164 4 -180 10q-2 -6 -12 -6h-79l-60 -2q-65 0 -124 57q-40 56 -40 91v12h2l2 -2h2l2 16h4l2 -12h2v4h2l-6 83l2 2q-6 61 -6 123v41l2 26l-2 28v97l-2 8l2 2q-4 70 -4 203v71l-2 26l2 22 v18l-2 49l2 8v4h-2l2 24v31l-2 16l2 24l-2 170l-2 6l12 14h2q-9 20 -12 20q0 45 51 107q53 49 123 49zM359 1083v-22l-2 -22l2 -33v-97l-4 -97v-232l-2 -33l2 -6l-2 -10l2 -63q0 -17 -4 -28l2 -8v-10l-8 -2v-4h8v-4q0 -12 -18 -12q-8 0 -8 -5v-2q0 -6 26 -10v-4l-2 -12l2 -6 l-2 -2v-2q3 -10 6 -10h8l18 2l2 -2h2l2 2h2l17 -2l6 2l8 -2l2 2l10 -2h20l6 2l10 -2h27l12 2l30 -6l2 8l-4 8l4 8l-4 12l4 8l-2 2v9l2 8l-2 2v2l2 2v2l-2 2v2l2 6l-2 6l2 18l-2 14l2 16l-2 21l2 2v2l-2 12l2 2l-2 2v2l2 14v4h-2l2 20v225l-2 2l2 2v10l2 22l-2 16l2 93v4h-2 l2 11v24l2 81h-2q6 26 14 26v4l-2 -2l-14 2h-4l-14 -2l-18 2h-23l-8 -2l-8 2h-24l-2 -2l-2 2h-63z" />
<glyph unicode="1" horiz-adv-x="666" d="M10 1435h68l2 -2l2 2h16l20 -2l14 2l2 -2h2l8 2l8 -2h4v2l30 -2h158l8 -4l16 4q39 -3 88 -34q30 -26 44 -54q20 -29 20 -118q0 -24 -4 -24l2 -2v-104l-2 -18l2 -8l-2 -12l2 -16l-2 -10v-4h2l-2 -24v-4l2 -28l-2 -42v-140l2 -18l-4 -26l2 -2v-2l-2 -12v-6l2 -2l-2 -2v-2 l2 -10l-2 -22v-4l2 -6l-2 -10v-34q0 -36 -4 -46l4 -16l-2 -8l2 -2l-2 -10v-2l2 -20h-2l2 -2v-2l-2 -6l2 -2l-2 -10v-12l2 -8l-2 -6l2 -6l-2 -12l2 -14h-2l2 -2v-86l2 -188l-2 -84l2 -14l-2 -24v-16l-2 -12l2 -2v-2l-2 -48v-10l2 -18l-2 -8l2 -10l-2 -10l2 -8l-4 -34l2 -30 v-10l-2 -40l2 -8l-2 -36l2 -22l-2 -10l2 -32h-2q-36 17 -212 202q-45 62 -46 74l-6 2q10 -18 10 -24l-2 -2h-4l-80 80v6h6l-8 20l4 276l-2 80l2 24l-2 26v16l2 32l-2 6l2 10l-2 36v4h2l-2 10v4l2 32l-2 26l2 12l-2 14l2 14v4h-2l2 34v74l-2 54l2 26l-2 28l2 8v4h-2l2 50v48 l-2 38l4 52l-2 2l-36 -4l-2 2h-6v-2l-14 2l-84 -2q-30 0 -30 6v324q5 22 10 22zM196 33v-2q4 -16 32 -40v2z" />
<glyph unicode="2" horiz-adv-x="1225" d="M19 1434l159 -2h93l2 -2l2 2h25l90 -2l15 2v-2l2 2l36 -2h2l21 2l2 -2v-2l2 2h19l8 -2l9 2l8 -2l13 2l25 -2l29 2l9 -2l10 2l95 -2h18l11 -2l4 4l21 -2l32 2v-2l2 2h52l42 -2l11 2q136 0 182 -111l6 -40v-19l-2 -9l2 -6l-4 -84v-369q0 -131 -14 -155q-9 -8 -19 -36 q-73 -63 -122 -63l-13 2l-33 -2l-55 2h-33l-2 -2l-3 2h-50l-2 -2l-2 2l-109 -2h-114l-100 4h-21q-4 0 -4 15q-5 0 -7 -15h-12v-130q0 -6 -9 -6v-4h9v-53h2l21 9h6q13 0 13 -9h2q4 0 4 6h96q12 -8 21 -8v2l-2 6h2l28 -2l14 2v-2l3 2l73 -2h23l25 2l25 -2h32v-2q0 -6 -44 -6 h-15v-4l9 2l6 -2l2 2v-2l2 2h2q82 1 82 6l6 -2l72 4h207v-31l2 -13l-2 -21v-189l-2 -12l2 -11v-61l-2 -21l2 -2l11 2h4v-10h-23l2 10v7l-2 -2h-13l-8 2l-2 -2l-15 2h-63l-33 -2l-2 2h-3l-8 -2h-2l-2 2l-2 -2h-4l-3 2l-2 -2h-2l-29 2l-6 -2l-26 2h-197l-82 2l-10 -2l-6 2 l-15 -2l-11 2l-2 -2h-2l-15 2l-12 -2l-23 2h-19l-8 -2l-7 2v-6h-8q0 6 -4 6h-7q-4 0 -4 -6l-17 6l-16 -2l-17 2l-11 -2l-84 4l-6 -2v2l-2 -2h-50l-28 -2l-29 4l-11 -2l-8 2l-12 -2l-11 2l-13 -2l-2 2l-10 -2l-19 2l-8 -2l-7 2l-17 -2l-29 2l-2 21v170l4 141l-4 4v4q6 0 6 4 v2l-2 -2h-4v6q10 7 10 30l-10 -2v46q0 117 4 168l-2 56v40q0 15 4 23l-2 17q0 95 95 151q29 17 67 17h94l13 -2l2 2l57 -2h102l19 -2l2 2l32 -2h107l61 -2l14 2q9 -12 9 -21q4 0 4 8h4l2 -2h2q5 15 9 15h8l13 -4q25 4 25 8h-2v-2l-15 6l-4 -4h-2q0 61 4 75l-2 3l2 25v63 l4 12q-7 0 -8 19l-2 2h-2q-5 0 -11 -21h-2l-10 2l-19 -2q-11 4 -11 13q-4 0 -4 -9h-4v21l-4 5q0 -30 -9 -30v2l-2 -2h-10l-57 2l-61 -2h-4l-40 2l-13 -2l-2 2l-10 -2h-36l-8 2l-2 -2h-2l-9 2l-8 -2l-46 2h-82l-76 2l-2 -2h-2l-13 2h-44l-25 7v-4h-42l-23 -3q-19 3 -19 7v21 l2 2l-2 2l2 42v168l9 88l-2 2h-2v-4h-5v17q1 4 11 8zM176 888v-4h2l7 2v2l-5 5zM531 349v-2h33v2l-25 2zM567 347v-2h16v2h-16zM625 345v-2l15 -2v4h-15z" />
<glyph unicode="3" horiz-adv-x="1234" d="M10 1437h79l2 -2l2 2h2l85 -4l18 2h81l12 -2l2 2h4v-2l97 2h310l19 -2l2 2l24 -2h60l7 -4v4l45 -2h37q95 0 161 -79q25 -37 25 -80v-17l-2 -2l2 -2v-27l2 -29l-4 -49l2 -8l-2 -44v-60l-13 -12l3 -23h2l2 17l6 2v-29h-4l-2 2h-2l6 -33l-2 -72v-13q0 -76 -81 -130l-31 -16 q-38 -13 -64 -13h-4l8 -8h2v4q29 0 64 -20q59 -23 79 -66q23 -49 23 -93v-15l-2 -2l2 -2l-5 -283h-2l2 -2v-2l-2 -21l2 -45q0 -36 -35 -95q-58 -64 -142 -64h-2l-13 2l-8 -2l-14 2l-27 -2h-4l-21 2l-14 -2l-9 2l-18 -2h-8l-40 2l-49 -2h-99l-13 2l-2 -2l-16 2l-163 -2h-7 l-8 2l-14 -2h-250q0 8 -4 8h-2q0 -8 -13 -8h-18l-2 2l-2 -2h-2l-25 2l-23 -2l-2 17l2 53v118h4l-4 12v151l4 4h4l2 -2l7 2l12 -2l14 2l2 -2h3l2 2l41 -2h211l99 -4l59 6h5v-2l20 2l178 2v-6h2q9 8 16 8l7 -2l10 2h6l21 -2l2 2v2q-5 0 -8 19h2l4 4h-6v23l6 35l-6 91l8 4 q-1 6 -17 6q-1 10 -6 10h-2q0 -10 -10 -10l-21 -2q-6 6 -6 21h-2l-8 -21h-9q-33 8 -51 8h-23v-2l35 -2v-4h-80v4l31 2v2h-17l-21 -2v-2h4v-4h-16v6q-130 -10 -237 -10l-3 2v2l-30 -2h-34l-14 4l-6 -2v21l-2 41l2 10l-4 33v4h2l-2 42v72q0 128 8 128l50 4l22 -2l184 2l21 2 l26 -2h13l31 2l8 -2l27 2l8 -2l15 2l14 -2l8 2l2 -2l11 2h12l12 -2l9 2q3 -8 6 -8l8 8h6v-6q8 6 15 6l10 -8q1 8 6 8l5 -4l8 4l-4 41v69q0 66 12 66l-8 10l-2 -2h-2l-11 2l-22 -2l-7 2l-8 -2l-82 2q-17 8 -40 8h-2q-55 0 -82 -4l-11 4l-14 -2l-81 -2l-6 2l-6 -2l-25 2 l-16 -2l-2 2l-21 -2h-39v2l2 2v2l-8 4l-2 -2h-3l-229 -10v142l2 114h-2l2 2v2l-2 77l-2 8q4 0 4 6zM679 882q0 -7 -4 -7h-2l-2 2h-2v-2l6 -4l6 9v2h-2zM19 184v-2l10 -11v7q0 3 -10 6z" />
<glyph unicode="4" horiz-adv-x="1207" d="M128 1437l47 -2l34 2l25 -2l12 2q14 -1 14 -4l2 2h10l2 -2l3 2h38l2 -2l6 2l31 -2v-92l-4 -55v-22q1 -31 4 -31q-4 -10 -4 -37v-51l2 -8l-2 -8v-22l2 -2l-2 -3v-152h-6l-10 -3v-4q16 -2 16 -8v-20l-4 -19l2 -2h2l14 2l12 -2l33 2l14 -2l6 2l9 -2l32 2h10l9 -2l14 2h114 l2 -2l2 2h2l39 -4l4 4h29l4 5h-2l-2 -2l-11 2l-16 -2l-6 2v4q0 5 8 6l-4 6l2 10h8v-4l2 -14h4l4 24v2q8 0 17 6h4v-30l-2 -15q7 -6 14 -6l2 2v7q-10 0 -10 12v83l2 2l-2 2v15l2 8l-2 6h2l-2 2v8l2 17l-2 16l2 14h-2l2 2v147l2 53l-2 2l2 14v53l2 13l-2 2l2 10l-2 10l2 12v2 l-2 15l10 4l-2 2v8l23 2l8 -2l2 2v2q24 -2 24 -4l10 2h29l8 -2l2 2l25 -2h2l30 2l2 -2v2l2 -2l21 2h10l2 -2l2 2l65 -2h74l2 -2h2l-4 -331l-2 -12l2 -14l-2 -33l2 -2l-2 -10v-141l-4 -71v-6l-2 -2l2 -2v-492l-2 -2l2 -2v-16l-2 -8l2 -2v-2l-2 -17l2 -12l-2 -2v-2l2 -2v-2 l-2 -21l2 -18l-2 -37v-30l2 -19l-2 -2v-2l2 -8v-4l-2 -2l2 -6v-4h-2l2 -14v-80l2 -51h-2l2 -2v-22l-2 -2l2 -2v-113l2 -2l-2 -2v-16l2 -61h-2l2 -2v-10l-2 -19l2 -8h-2l2 -2v-33l4 -6v-10h-4q-288 285 -288 296q-19 27 -37 41h-2l-2 -2h-2l-18 20l2 6q-2 8 -8 8v23l2 2l-2 2 v61l2 2l-2 2v24l2 9l-2 8v20l-2 8l4 13l-2 22l2 14l-2 31l8 120l-6 6v13l2 8l-2 8v4l2 2l-2 2v2l2 12l-2 29v4q0 24 4 33l-2 18q0 24 14 24l2 2q-8 9 -16 9h-2l-2 -15q-26 0 -45 8l-4 -4h-8v2l2 7h-2l-6 -2l-17 2l-6 -2v2l4 4h68l8 -6l2 10v2l-6 -2l-27 2l-37 -2l-6 2 l-20 -2h-71l-21 -2l-18 2l-23 -2l-2 2l-24 -2h-78q-101 0 -144 4l-11 -2l-16 2l-49 -4q-73 14 -73 30l-37 23q-35 44 -47 104v2l8 10l-8 6v94l2 22l-2 2v2l2 70v67l2 2l-2 2l2 14v98l2 8l-2 3v2l2 8l-2 8l2 6l-2 12l2 21l-2 10l2 32v74l2 37l-2 10l8 108z" />
<glyph unicode="5" horiz-adv-x="1234" d="M28 1434l69 -2l52 2l117 -4l9 2l31 -2h25l29 2l27 -2l30 2l18 -2l21 2v-2l2 2h5l8 -2l2 2h2l2 -2h6v2l36 -2h27l192 -6q35 5 105 8l29 -2h19l33 2l2 -2h2l13 2h4l6 -2l6 2l92 -2h30l6 4h2l2 -10l-2 -44v-36l-2 -23l2 -2v-2q-4 -18 -4 -50v-169l-2 -2l2 -2v-5 q0 -14 -15 -14h-157l-2 2l-2 -2h-83l-59 2l-18 -2q-19 1 -19 4l-2 -2h-36l-37 2l-7 -2l-102 4l-12 -2l-7 2l-31 -2h-130l-2 -15v-31q0 -42 -4 -54l2 -2h2l-2 -2v-50l2 -3q-4 -11 -4 -29l17 -6l10 2l7 -2v-17l14 15h2l2 -15v-4h5v13l2 10l23 -2l27 2l65 -2h367l8 -2l11 2 q56 -8 56 -21l2 2h2q46 -22 69 -67q23 -41 23 -64v-55l2 -10l-2 -13v-41l-2 -2l2 -3v-56l4 -6v-113l-2 -50l2 -2v-2l-2 -19v-35l2 -9l-2 -8v-17l2 -25l-2 -31v-59l-2 -12l4 -15q0 -50 -39 -96q-36 -73 -142 -73l-17 4v-4q-15 0 -15 4l-10 -2q-116 0 -236 6l-23 -2l-288 9 l-2 2h-2l-2 -2l-21 2h-132l-8 -2l-8 2h-84l-42 -2v334q0 11 9 14h50l8 2l2 -2h2l2 2l11 -2q19 2 19 4l31 -2h44l8 2l6 -2l2 2l11 -2h19l2 2h2v-2l2 2h2l17 -2l2 2h2l8 -2h4v2l11 -2h29l8 2l9 -2h4v2l10 -2h9l19 2l14 -2v2l2 -2h59l12 2q12 -4 29 -4l7 2l12 -2h27l3 2l2 -2h2 l6 2l10 -2l11 2l12 -2h19l2 2l2 -2h9l2 2l2 -2h2l2 2l10 -2l7 2l12 -2h4l7 2l10 -2h29l2 -10h5l2 10h8l11 2l4 -4h4l4 4q-6 8 -6 15v117q0 3 14 8v4q-14 6 -14 11v17q6 0 6 4v4l-10 2v-4h-130l-2 2l-2 -2h-27l-15 2l-19 -2h-33l-2 2l-2 -2h-63v-4h-12v4h-23l-2 2l-2 -2h-23 l-40 2l-2 -2h-2l-9 4l-4 -6l-6 4h-4v-2l-36 2h-25v-2h4v-4h-14v4h4v2h-6q0 -6 -7 -6l-14 -2l-9 2v4h9v2l-11 2l-2 -2h-21l-8 2l-8 -2h-13l-2 2l-2 -2h-4l-50 2l-44 -2q-42 0 -42 15v29l2 2l-4 14l4 11q0 10 -4 10l2 7l-2 54v6l2 9l-2 6l2 10l-2 7l4 8l-2 2v10l2 2 q-4 10 -4 28v12l6 8l-2 3v20l-4 13l2 8l-2 2v3l6 10l-6 17h4v6l-4 4l2 15v2l-2 2v2l2 2h2l-4 31l2 2l-2 11v27h4v2l-2 21l2 2h2l-6 17v8l4 15l-4 12v36l4 4l-2 2v10l2 9l-2 6l4 6l-2 2l2 21v69h-6v4l4 5l2 -2l2 2v2l-2 6l2 2v2l-2 2v2l2 13l-2 -2h-4v4h-2l2 10v21l2 13 l-2 10h2l-2 6l2 7l-2 10l2 9h-2l2 2l-2 10v2l4 4l-2 2v7l2 2l-4 21l4 12v42zM208 530v-2h10v2h-10z" />
<glyph unicode="6" horiz-adv-x="1234" d="M1084 1434l3 -10v-71l-3 -44l3 -2l-3 -20l-2 -214h-6l-77 2v4l-6 -4h-56l-27 2l-29 -2h-37l-25 2l-31 -2h-123l-31 2l-25 -2h-16l-50 2l-2 -2l-7 2l-122 2h-10l-11 8h-6v-8h-8v6l2 2v3h-2q-5 -9 -11 -9l2 -16l-2 -11l5 -18l-5 -7l2 -2v-2q-1 -35 -4 -35l2 -10v-88l2 -2 v-2l15 2h33q4 0 4 -6h5q0 6 4 6h139l52 2l24 -2l36 2l14 -2l15 2v-2l2 2l145 -2h46l4 -4l10 4q49 0 112 -47q36 -39 36 -73q16 -57 16 -102l-2 -2l2 -10v-29l2 -13l-2 -8v-4h2l-2 -21v-139l2 -8l-2 -2v-2l2 -189v-90q0 -70 -81 -130q-47 -21 -76 -21l-175 4l-126 -2h-60 l-9 2l-2 -2l-45 2h-146l-101 -4q-36 19 -65 19h-21q-30 0 -49 -15q-31 0 -81 48q-46 72 -46 95v9l6 8l-2 2l2 25v390l-2 179l-2 2v2l2 6l-2 2l2 10l-2 27h2l-2 2v94l2 14h-2l2 2l-2 9l2 39v11l9 10v16l2 7l-2 10v29h-3q0 -12 -4 -12h-4v66h2l6 -37h3v2q-8 70 -15 70v9h4 q-4 28 -4 99v7h4v-5h4v9q0 4 -6 4l-2 2v2q0 55 52 116l27 17q39 27 97 27v-4h61q47 8 101 8h6q25 -1 25 -4l2 2h57l68 2l17 -2l6 2l2 -2h2l10 2l34 -2h4v2l14 -2h42l16 -2l17 2h33l2 -2l2 2h63l12 2l12 -2l17 2l33 -2h56l15 2q0 -5 10 -6q0 4 15 6l29 -2l2 2h2l8 -2l2 2 l11 -2h4l8 2l8 -2l2 2h3v-2l2 2h62zM358 529l2 -8l-2 -25v-122l-2 -21l8 -4l27 4q38 0 38 -13h2q0 6 8 11h23l21 -2h4v2l41 -2h166l2 -7l17 9v2h-4l-2 -2l-2 2v2l2 2l-2 2v2l2 13v2h-2q0 -9 -4 -9h-5v21l7 6h2v-10h2q0 11 8 14q5 0 6 -31h-6v-2l8 -10l7 6v17l-3 10l3 10 l-3 73l-2 6l2 2h-2l5 9l-3 14v21l5 6l-5 4l-12 -2l-31 2h-2l-13 -2l-8 2l-2 -2l-15 2h-24l-19 -2l-8 2l-15 -2l-54 2h-102l-6 4l-6 -4h-39l-7 4q-5 0 -6 -8z" />
<glyph unicode="7" horiz-adv-x="1050" d="M12 1438l8 -2l14 2h82l2 -2l2 2h32l6 -2l10 2l424 -4h134q0 -6 4 -6l4 4l2 -2l16 4q40 0 100 -44q46 -54 46 -104l10 -86q-4 -9 -4 -32v-30l2 -2l-2 -2v-28l-2 -18l2 -2v-2l-2 -8l2 -36l2 -2l-2 -2h2l-2 -2v-8l2 -2l-4 -18l2 -12l-2 -16l2 -14h-2l2 -6q0 -10 -8 -10v-2 l4 -12l-2 -6l4 -82v-4q-6 0 -6 -4v-10l6 -42l-2 -6l2 -8v-10l-2 -2l2 -2v-44l-2 -2l2 -2v-12l-2 -2l2 -2v-18l-2 -2l2 -2l-2 -54v-374l-2 -42l2 -22h-2l2 -2l-2 -30v-2l2 -24l-2 -24v-6l2 -10l-2 -12v-12l2 -14l-2 -16l-2 -124l2 -10l-2 -16v-10l2 -38l-4 -28l2 -18v-10 l-2 -38l2 -12q-2 -66 -8 -78l2 -18v-4h-2q-130 126 -246 254q-11 23 -20 30h-2v-4h-2q-45 38 -70 72q-12 15 -12 30l4 50h-2l2 2v56l2 28l-2 6h2l-2 2v26l2 16l-2 10l2 34l-2 14l4 36l-2 12v16l-2 30l4 22l-2 2v24l2 8l-2 2v2l2 30l-2 18l2 48v42q0 90 8 186v14h-2l-2 -20 h-4v2l2 34h2l6 -4v12l2 44h-4q0 -6 -4 -6h-4v30l2 12l-2 10v2l2 10l-2 12v8l2 12l-2 2v2l2 2v2l-2 12l2 36l-2 24l2 32v2l4 6v4l-4 6v20l4 6l-4 4v6q0 4 6 4l-8 8l-14 -6l-2 2l-24 -2h-36l-2 2l-2 -2l-14 2h-2l-60 2l-10 -2l-2 2l-10 -2h-12l-30 -2l-14 2l-2 -2h-2l-16 4 l-12 -2h-14l-8 2l-8 -2h-8l-20 2v-2l-6 2l-24 -2l-2 2h-2l-6 -2l-16 2l-12 -2l-32 2l-26 -2l-2 6l-18 -6l-32 2h-28l-12 8l2 40v68l-2 42l2 8l-2 2h2l-2 2l2 24l-2 22l2 8l-2 12l2 26l-2 22l2 2v2l-2 8l2 16l-4 48l2 2h10z" />
<glyph unicode="8" horiz-adv-x="1228" d="M761 1443l58 -2h45q0 -12 39 -12l35 -2v-7l23 4q54 0 100 -90q11 -40 11 -105v-261q0 -10 -7 -15l3 -14v-23l-3 -8l3 -8q0 -76 -68 -134q-19 -6 -19 -12h-6l-10 2q0 -19 -19 -19h-10l-15 3l-2 -11h-6q-13 0 -16 15q-19 -9 -25 -17v-2l4 -4l54 4q39 0 98 -47 q42 -44 42 -97q8 -28 8 -179l-2 -175l2 -41h-2l2 -2v-2q0 -111 -103 -158q-21 -15 -51 -15l-13 2l-2 -2l-6 2v5h-8q0 -9 -4 -9h-17l-45 -2q0 8 -12 8l-9 -4l-8 2l-127 -8l-23 2l-6 -2l-2 2l-35 -2h-39l-37 -2l-21 2q-18 -1 -18 -4l-2 2h-29l-19 -2l-6 2l-10 -2l-6 2l-7 -2 l-2 2l-14 -2h-25l-24 -2v2l-2 -2l-23 2l-130 2l-12 8q0 -8 -4 -8h-4q-60 0 -113 39q-3 13 -39 60q-17 27 -19 47l4 12l-2 33v27l-2 15h2l-2 2v14l2 2l-2 6l2 13l-2 2l2 8l6 105q-6 0 -6 24h-2l2 2v25l-2 2l2 6l-2 9l2 24v13q0 116 25 140q21 44 76 67l12 -2q13 17 43 17 q17 0 17 -8v-2h2q0 10 4 10l4 4l-12 8q-13 -2 -13 -6q-45 0 -92 35q-27 9 -51 58q-17 53 -17 88l2 60l-4 131l2 2l-2 11v156q0 54 39 90h-2l-6 -6h-4v2q0 11 12 25h6l2 -2h2q47 64 99 64h14l7 -4l8 6h181l2 -2q12 4 33 4l8 -2l25 2h185l8 2l2 -2l15 2h47l29 -2l12 4l6 -2z M915 1416h2l11 2v2h-9zM662 1097q0 -13 -6 -14h-2q0 6 -10 6q0 6 -4 6q-2 -12 -6 -12l-136 4l-68 -4l-2 8q-8 -10 -17 -10h-4v8h-6q0 -8 -6 -8h-25l-2 2q-15 -5 -16 -10v-72l2 -21l-2 -18l2 -23l-2 -2l2 -14v-31l16 4h15q4 0 4 -6h4v6h2q10 0 20 -6q0 4 7 4l18 -2l50 4v-2 l2 2h8l2 -2l2 2l103 2h37l10 2l4 -4l6 2v-2l2 2h42l24 4v2h-14v2l-2 21h27v2l-29 4v95h6v2h-6l2 6l-2 33v4h4v4l-4 12l-2 -2h-2l-15 2v-4h-6l-2 12h-2l-2 -12q-17 3 -17 12h-4zM570 857v-2l10 -2q19 1 19 6zM658 583q0 -37 -8 -37l-6 -2l-70 4l-74 -2l-54 2l-84 -8l-2 8h-4 l-2 -10l2 -12v-4l-4 -5q6 -9 6 -41v-123l14 -4l6 6l13 -2l18 2v-2l2 -15q4 0 7 17h55l29 2l6 -2l10 2l2 -2h2l3 2h2l8 -2l24 4l25 -2l8 2l23 -2h21l2 -2l10 4q27 0 27 -8v-2h4v8h18l15 2l4 -4h2v4h2l10 -6l2 14q-10 0 -10 15v16l-4 6v27l-2 21l2 18v10l-2 11l2 12v10l-2 9 l2 6l-2 10q7 6 14 6v4q-10 0 -10 8q-8 -5 -8 -10h-27l-10 2l-4 -4h-3l-4 4v25l-2 10h-4z" />
<glyph unicode="9" horiz-adv-x="1207" d="M754 1436l2 -2h2l13 2l29 -2l12 2l58 -6l2 2h2l14 -4l1 6h22v-2l-2 -9l2 -8h4l2 15l9 -1q32 0 82 -41q22 -43 41 -70q8 -24 8 -42v-10l2 -89l-6 -91q2 -54 6 -54l-3 -24l2 -147l-2 -12l2 -19l-2 -19l2 -35l-3 -149q3 0 8 -24l2 -2l-2 -19l2 -60v-68l2 -35q-8 0 -8 -11 l8 -39l1 -113l2 -7l-2 -6l2 -8q-8 -134 -14 -134q-49 -97 -152 -97h-8l-2 2l-2 -2h-6l-75 -2l-2 2l-10 -2l-169 -1v6q-5 0 -5 -6h-84v6h-4v-6h-83q-4 0 -4 7h-2v-7l-93 -1h-83l-2 2l-2 -2h-2l-85 -2v6h-4v-6h-85v5l-6 -5l-80 1l-2 49l6 120l2 13l-6 72l3 2q-4 30 -4 81v4 l4 12l2 -2h2l14 2l15 -2l8 4l25 -4l2 2h6v-2l31 2l68 -1l3 3l2 -3h22l9 2l8 -2h10q25 0 25 4l10 -2h27l2 2l2 -2h19l8 2l2 -2h2l13 2l16 -2l54 2h64l19 2l6 -2l6 2l10 -3l133 4l4 -12q4 0 6 12h25q4 0 6 -14h4l2 14h8l2 -12l4 4l-2 2v4h2l-1 62v105q0 15 12 15v2l-4 4h-66 l-8 2l-8 -2h-2l-27 6l2 -2v-4h-2l-62 -2l-66 9l-106 -4l-33 2l-91 -2l-2 3q-2 -7 -12 -7l-52 1l-8 -2l-95 23q-19 17 -19 29l-2 -2h-2q-21 17 -24 26q-37 29 -37 87v4l6 7l-6 107l2 6l-2 23l1 81l-3 8l3 2v2l-4 172l2 2v2l-4 16l2 15l-2 62v29l5 6v4l-5 6v15q1 41 40 99 q45 47 83 47h2l-2 -11q13 15 37 15h10l11 -2l10 2l155 5l2 -2l48 4l10 -2l64 4l2 -2l10 2h46l39 2l2 -2l15 2l142 -1zM652 1079l-170 3h-10l-43 -2l-7 2l-57 -4l-7 2l-18 -4v-2l10 -2v-21l-37 -4q0 -4 6 -4l31 2v-25l2 -6l-2 -10v-35l2 -2l-2 -7h-19l-4 -4l14 -2h11v-16 q-13 -2 -13 -7q13 0 13 -12v-27l2 -2v-2l10 6q12 -3 12 -10q11 2 11 8h6l56 2l12 -2l41 4l2 -2h3l8 2l18 -2l17 2l6 -2l23 2l21 -1l2 -2l2 2h16l2 -2l2 2h31q4 0 6 -18h3l2 2q4 0 4 14l10 2h41l-2 2l1 83l-2 2l2 2l-2 14v64q0 16 -6 17l-6 -2l-11 2h-6l-12 -2l-19 8zM29 749 l-2 -11l8 -2q-3 13 -6 13zM138 589l-6 -16q4 0 8 14v2h-2zM1053 547v-10h2v10h-2zM1057 458v-4l2 -21h2v8l-2 17h-2z" />
<glyph unicode=":" horiz-adv-x="481" d="M10 818h197q36 0 57 -4l60 4q0 -12 -4 -12l2 -21h2v7h5q0 -17 -7 -17v-161l2 -2l-2 -3v-52l2 -10l-2 -2l2 -17v-24l-2 -3v-2l-60 2h-236l-24 -2v98l5 68q-7 0 -7 7l2 10l-2 2l2 2v34l-2 2l2 8l-2 7l2 24v33l-2 3l2 2v10l-2 2v3q10 0 10 4zM4 316h197q36 0 57 -4l60 4 q0 -12 -4 -12l2 -21h2v7h5q0 -17 -7 -17v-161l2 -2l-2 -3v-52l2 -10l-2 -2l2 -17v-24l-2 -3v-2l-60 2h-236l-24 -2v98l5 68q-7 0 -7 7l2 10l-2 2l2 2v34l-2 2l2 8l-2 7l2 24v33l-2 3l2 2v10l-2 2v3q10 0 10 4z" />
<glyph unicode=";" horiz-adv-x="481" d="M10 818h197q36 0 57 -4l60 4q0 -12 -4 -12l2 -21h2v7h5q0 -17 -7 -17v-161l2 -2l-2 -3v-52l2 -10l-2 -2l2 -17v-24l-2 -3v-2l-60 2h-236l-24 -2v98l5 68q-7 0 -7 7l2 10l-2 2l2 2v34l-2 2l2 8l-2 7l2 24v33l-2 3l2 2v10l-2 2v3q10 0 10 4zM11 160h17l15 -2l2 2h2l15 -2 l7 2l12 -2l51 2l7 -2l2 2l12 -2l10 2l9 -2l12 2l15 -2l7 2l12 -2h34l2 2l3 -2h33l3 2l2 -2h7v2l17 -2h14l3 -12v-3l2 -43l-7 -84l2 -2v-3l-2 -7q5 -7 5 -19h2l3 12h4l5 -17l-2 -70l2 -24l-2 -21v-22l-3 -2l3 -3l-5 -43h-5v38h-2l-3 -149q-7 0 -7 -4l5 -5v-5h-5q-18 8 -79 77 l-2 -3h-3l-17 25l-2 -3h-3l-21 27l-3 -3q0 8 -19 24q-22 31 -36 31q0 12 -31 39l-79 82q-32 33 -32 45v51l-2 36l2 19l-2 34q2 9 14 9zM336 -54v-69h2l3 38l-3 31h-2zM336 -138v-9h2v9h-2z" />
<glyph unicode="=" horiz-adv-x="1153" d="M0 218zM295 1090q0 -7 20 -10l60 2h3l11 -2l10 2h3q8 -6 23 -8l180 8l34 -2h13l21 2l42 -5l15 3h32l2 -3l3 3h5l11 -3l2 3l32 -3h23l11 -3l10 3h16l26 -3l15 3l21 -8v5l32 -2h10l3 -3h2v5h11l-3 -2v-3h5v5q12 0 19 -13l2 -2h3l-3 -32v-57l-2 -3l2 -2v-11l-2 -15l2 -13 l-2 -3l2 -3l-2 -70v-91l-3 -19l-37 3l-67 -3h-6l-2 3l-3 -3h-10l-11 3l-2 -3l-40 3h-143l-13 2l-16 -2h-321l-8 5l-5 -5l-157 2l-7 3l-3 -3h-3l-49 3h-18l-3 3l-3 -3h-83l-5 5l2 11l-5 70h3l-3 3l3 52v10l2 183l5 5l11 -5l26 3v-8l18 3h5l71 2v3l3 -3l44 3h42l23 -3 q12 5 45 8zM298 568q0 -7 20 -10l60 2h3l11 -2l10 2h3q8 -6 23 -8l180 8l34 -2h13l21 2l42 -5l15 3h32l2 -3l3 3h5l11 -3l2 3l32 -3h23l11 -3l10 3h16l26 -3l15 3l21 -8v5l32 -2h10l3 -3h2v5h11l-3 -2v-3h5v5q12 0 19 -13l2 -2h3l-3 -32v-57l-2 -3l2 -2v-11l-2 -15l2 -13 l-2 -3l2 -3l-2 -70v-91l-3 -19l-37 3l-67 -3h-6l-2 3l-3 -3h-10l-11 3l-2 -3l-40 3h-143l-13 2l-16 -2h-321l-8 5l-5 -5l-157 2l-7 3l-3 -3h-3l-49 3h-18l-3 3l-3 -3h-83l-5 5l2 11l-5 70h3l-3 3l3 52v10l2 183l5 5l11 -5l26 3v-8l18 3h5l71 2v3l3 -3l44 3h42l23 -3 q12 5 45 8z" />
<glyph unicode="?" horiz-adv-x="1256" d="M808 1444l25 -3l16 3l23 -3h21l15 3l16 -5h2v5q71 0 119 -41q59 -67 59 -109h-2l2 -2v-13l-5 -21l5 -5v-39l-2 -10l2 -13l-2 -28l2 -8l-2 -29v-5l2 -25l-2 -37v-36l-3 -118l-2 -3v-3l2 -2l-2 -91v-95h5l-3 -3v-2l3 -16l-3 -2v-3l3 -8l-16 -31h5q0 -29 -49 -85 q-54 -41 -111 -41l-2 2l-39 -2h-82l-8 5h-3v-5l-13 2h-28v16q-5 0 -5 -16h-21q0 8 -5 8l-3 -2v-8h3l-3 -18v-145l-2 -18h-16q-26 0 -75 11v-3q-15 5 -67 5h-75q-89 0 -129 -5l-5 13l3 39l-3 67l3 31l-3 15l16 16q0 5 -16 5l-2 13l2 13l-2 7l2 55v36h3l8 -3v3l-6 170v26l3 26 l-3 2q8 0 8 8l3 -3h2l313 3l2 -13h3q5 0 5 10l28 6l3 -13l15 2v11q0 5 -7 5l-3 2v39l3 8l-3 13v100l8 11v2l-10 13v13h-3q-5 0 -10 -21l-135 -2h-64l-3 -3l-2 3l-39 -3h-155l-23 3l-13 -3l-18 3v-3l-3 3h-31l-100 5l-11 -3l-10 3l-54 -3h-54l-3 19v18l3 38q5 0 7 -15h3v8 l-3 28h3q-10 29 -10 108v73l2 49l-2 2v3l2 15v18l26 -2h312l-2 -3v-5l49 -5l8 3v2h-42v5l60 5h196v-5h-8v-2h23v7h16v-5l149 5v-2l-2 -8h2zM580 1436l-2 -2v-3h2l16 3v2h-16zM526 1434v-3h26v3h-26zM407 1431v-2h24v2h-24zM467 1431v-2h31v2h-31zM462 148h69l55 -2l49 2h80 l5 -5v-134l-3 -3l3 -8l-3 -12l3 -21h-3l3 -3v-2l-3 -18l3 -8l-3 -70v-180l-2 -42l2 -23h-5q-72 66 -72 72h5v5l-57 52q-237 219 -237 256l2 54l-2 2v3l2 3v2l-2 13l2 52v13z" />
<glyph unicode="@" horiz-adv-x="1936" d="M1001 1044l-55 3l-133 -3l-9 1l-4 -1l-6 3l-8 -2h-20l-1 7q-5 -5 -9 -5v-109l-4 -6v-1q4 0 4 -3l-1 -13l1 -2l7 2h21q0 -6 2 -6q3 0 3 6l25 1l48 -1l11 1l2 -1h2l5 1v-1l2 1h1l2 -1h1l2 1h1l9 -1l10 1l4 -1l6 1l6 -1l33 2l12 -1h12v3h1l4 -3h25l2 -7h1l1 7h12v3 q-6 0 -6 6l6 6l-12 1l2 4l-3 27v34l10 12v2h-2l-7 -6h-1v23l7 -1h6l3 3l-10 1h-6v6l4 7l-7 5l-1 -4h-4l-2 8h-1q-4 0 -4 -9zM1267 125q44 22 88 72q91 102 173 258.5t82 382.5q-20 335 -232 540q-197 188 -480 188q-205 0 -392.5 -137.5t-269.5 -355.5q-67 -178 -67 -361 q0 -313 129.5 -511.5t305 -290.5t318.5 -92q274 0 575 208v-75q-263 -184 -571 -184q-240 0 -461 122.5t-343 342t-122 461.5t124 464.5t345.5 342t456.5 119.5q362 0 609 -230t247 -566q0 -270 -176 -488q-130 -143 -252 -227q-47 -28 -88 -53h-5q-67 60 -167 157l2 1v2 q-14 5 -70 59v5l5 1q-5 5 -5 10v69l1 5l-1 6v20l1 2l-1 1v74l1 2l-1 1v70l1 6l-1 5v5l3 20l-3 3v13l-2 24l3 10l-3 8v5h7q-5 5 -5 10q5 0 5 3l-2 4h23l4 3v1h-33l1 2v2l-2 3h-3l-4 -3h-3v3h-2l-7 -3l-9 1l-65 -3l-1 2l-15 -2h-36l-14 -2l-4 2v-2l-1 2h-12l-13 2l-15 -2h-24 v9q-3 0 -3 -9h-13l-15 2l-1 -5l1 -9q-13 0 -13 -4v-1l12 -2l-6 -99l4 -67h-1q6 -22 6 -78v-110l-6 -6h-7l-11 3l-146 -1l-1 -2h-2l-1 2h-2l-12 -3l-37 1h-23q-9 5 -11 54l1 5l-2 27l1 1l-1 11v73l-2 15h2l-2 1v128l4 69l-4 11v75l-1 35l1 2v1l-1 6l1 10l-1 12l-2 65l2 2v1 l-2 9l2 28q-1 21 -3 21l1 1v21l-1 8h1l-1 1l1 7v39l-1 8l1 8v40l-1 5l1 6v23l2 26l-2 32v86l2 9l-2 1v2l2 4l-2 13v5l40 -3l4 1v3l-8 1v5h278l22 1l18 -1h18l51 -2v-1l1 1l25 -1h45l-1 -7l111 4l7 -1l7 1l16 -1l35 2q34 0 52 -16q27 -15 45 -59q4 -25 6 -66l-2 -1l2 -7v-112 l-2 -20l2 -27v-213q0 -50 2 -70l-1 -1l1 -10v-64l-2 -12v-174l1 -15l-1 -13v-61l1 -54l-6 -99l2 -2l-2 -10v-36l-1 -14l1 -1v-10z" />
<glyph unicode="A" horiz-adv-x="1237" d="M465 1439l25 -2h26l72 -2v-2l2 2l35 -2h64l-2 -10l158 6l9 -2l10 2l23 -2l49 4q49 0 74 -23q39 -21 64 -84q6 -35 8 -93l-2 -2l2 -10v-158l-2 -29l2 -37v-302q0 -71 4 -99l-2 -2l2 -14v-91l-4 -16v-247l2 -21l-2 -18v-87l2 -76l-8 -141l2 -3l-2 -14v-51l-2 -19l2 -2v-2 l-2 -33v-29l2 -8l-2 -8v-33h-7q-95 85 -236 222l2 2v2q-19 7 -99 84v7l7 2q-7 7 -7 14v97l2 8l-2 8v29l2 2l-2 2v105l2 2l-2 2v99l2 8l-2 8v6l5 29l-5 4v19l-2 33l4 14l-4 12v7h9q-7 7 -7 14q7 0 7 4l-2 6h32l5 4v2h-46l2 2v3l-4 4h-4l-6 -4h-4v4h-2l-11 -4l-12 2l-92 -5 l-2 3l-21 -3h-51l-19 -2l-6 2v-2l-2 2h-17l-18 3l-21 -3h-35v13q-4 0 -4 -13h-18l-21 3l-2 -7l2 -12q-18 -1 -18 -6v-2l16 -2l-8 -140l6 -95h-2q8 -32 8 -111v-156l-8 -8h-10l-15 4l-207 -2l-2 -2h-2l-2 2h-3l-16 -4l-53 2h-33q-12 7 -15 76l2 8l-4 37l2 2l-2 15v104l-2 21 h2l-2 2v181l6 97l-6 16v107l-2 49l2 2v2l-2 9l2 14l-2 17l-2 92l2 2v2l-2 13l2 39q-1 30 -4 30l2 2v29l-2 11h2l-2 2l2 10v55l-2 11l2 12v56l-2 8l2 8v33l2 37l-2 45v121l2 13l-2 2v2l2 6l-2 19v6l56 -4l6 2v4l-11 2v6h393zM699 1079l-78 4l-189 -4l-12 2l-6 -2l-9 4l-10 -2 h-29l-2 9q-7 -7 -12 -7v-154l-6 -8v-2q6 0 6 -4l-2 -19l2 -2l10 2h29q0 -8 4 -8t4 8l35 2l68 -2l16 2l3 -2h2l8 2v-2l2 2h2l2 -2h2l2 2h2l13 -2l14 2l6 -2l8 2l9 -2l47 4l16 -2h17v4h2l6 -4h35l2 -10h2l2 10h17v4q-9 0 -9 9l9 8l-17 2l2 6l-4 37v49l14 17v2h-2l-10 -8h-2v33 l10 -2h9l4 4l-15 2h-8v8l6 10l-10 8l-2 -6h-6l-2 11h-2q-5 0 -5 -13z" />
<glyph unicode="B" horiz-adv-x="1237" d="M29 1440h59q64 0 93 -4l14 2l70 -6l4 4h83l10 -2l12 2h48l2 -2l2 2h2l12 -2l2 2h2l9 -2l6 2l8 -2h4v2l10 -2h7l12 2l20 -2h95l19 2l2 -2l41 2h113l33 -2l2 2h2l12 -2l31 2q134 0 187 -87q27 -83 27 -102l-2 -15l2 -22l-2 -13l2 -12l-2 -68v-25q-8 -10 -8 -22v-4l6 4h2 v-68h-4v12h-4l4 -97q-12 -117 -25 -117q-24 -41 -64 -59q-20 -9 -30 -9l-11 2q0 -12 -26 -12h-13l-12 -10q0 -13 16 -15h31q29 0 56 -18q13 -3 39 -43q39 -40 39 -79l-2 -14l2 -35v-156l-2 -56l2 -41l-2 -62l2 -26q0 -72 -68 -134q-41 -24 -74 -31l-41 -2h-253l-13 2l-2 -2 l-24 2h-11l-343 6l-12 -4q-41 0 -128 12v-4l12 -4v-4h-12l-25 2l-14 -2l-47 2l-2 -2h-2l-7 2l-6 -2l-6 23l4 29v372q6 7 6 14v2l-4 83v14l2 8l-2 2v2l2 58l-2 33l2 35v6q2 12 6 12l-2 9l-6 226v18l2 17l-2 16v72l2 2l-2 2v2l2 13l-4 41v41l2 21l-2 18v13l2 8l-2 2l2 8l-2 17 l2 26l-2 8l2 3l-2 20v19l-2 39l2 43v37zM664 1086v2l-2 -2h-2l-121 -6l-45 2h-29l-19 2l-6 -2v2l-2 -2h-31l-2 2l-2 -2h-24v6q-8 -6 -19 -6v-130q0 -6 -8 -6v-4l8 -2l-4 -25h-8v5h-7v-5l5 -4h12v-12l4 -4h2l2 2h2v-4h13l6 -2l10 2h128l2 -2l2 2h90l54 2l2 -2h2l8 2 q7 0 19 -10h4q0 8 12 8q11 0 12 6v2h-4v-4h-4l-2 2h-2l2 10v41q0 11 8 23l-8 19l2 32l-2 37q0 7 8 7l-4 6v2l10 2v2l-2 2v2l-45 -4l-2 10zM1074 1061v-30h2v30h-2zM368 551q0 -10 -4 -10h-4v6l-4 -4v-39h-6q-13 -1 -13 -6l19 -4v-39l-2 -11l2 -12v-47q0 -13 -19 -13l-4 -4 q21 0 21 -10t4 -10l8 2l10 -4v4h68l7 -4l4 4h82l10 -2l13 2h41l8 -2l2 2h2l10 -2l50 2h41v-13l4 -4l10 29v2h-2l-6 -4h-2v154l4 4h6q0 -12 4 -12v2l-4 25l2 2q-12 0 -12 12q-11 -14 -33 -14v4l-14 -4l-39 4q-29 -4 -93 -4h-72l-54 8l-24 -4h-8z" />
<glyph unicode="C" horiz-adv-x="1243" d="M771 1442v-4q0 -4 -8 -4v-2h2l16 2l17 -4l2 2l14 -2h114q8 0 72 -27q43 0 83 -93q6 -26 6 -50l-4 -6l4 -12v-21l-2 -2l2 -2v-2l-8 -182l2 -6l-2 -6q4 -33 4 -91v-27l-4 -8l-83 -2h-144l-2 2l-2 -2l-73 2h-18q-19 0 -35 10q-11 0 -11 5v12l2 2l-2 2l6 81l-2 16v8l11 2v5 q-11 1 -11 6v8q0 4 9 4v2l-4 6v4h4v7l-4 4h-17l-19 4l-12 -4v2l-2 -2h-4l-25 6v-2q0 -6 -8 -6l-2 2h-2l-2 -2h-2l-9 2l-12 -2l-2 2h-2l-2 -2h-2l-19 2h-2q0 6 -4 6h-2l4 -6v-2h-10v6h-13q-4 0 -4 -6h-6v6l-87 -2h-84l-4 4v6h6v2h-6l-19 -2v-2l8 -10v-4q0 -25 -4 -25l2 -2 v-101l-2 -2l2 -2l-2 -42v-62l-2 -90l2 -7l-2 -10l2 -12l-2 -23v-45l-2 -23l2 -2l-2 -25v-56l2 -18l-4 -11l2 -2l-2 -35v-128l2 -2v-2q11 2 16 8h13l2 -20h2q0 20 8 20l126 -2l2 -2h2l2 2l62 -2h106q3 0 6 -10l2 2h2l6 -2v2l2 8q9 0 19 -8l4 12v2q-13 0 -13 15v16h15l10 2v2 l-10 3h-10l-5 4v80q0 54 15 54l37 -2l306 -4l2 -2l-2 -73v-115l-3 -29l3 -27v-83q0 -109 -44 -148q-49 -56 -117 -56h-13l-2 2l-2 -2h-10l-27 -2l-29 4h-198l-54 2l-2 -2h-2l-19 2h-35l-8 -2q-11 4 -64 4h-171q-11 0 -11 4l-2 -2h-45l-10 2l-13 -2h-47q-27 0 -58 19 q-8 9 -31 16q-50 47 -50 73q-14 23 -14 53l4 7l-2 18l2 48l-2 6l2 18v48l2 23l-2 2l2 35v74l2 41l6 2l-4 58l2 2v2l-4 19l2 6l-4 64l2 81l-2 35l2 2l-2 24v351l2 13l-2 2v2l2 37l-2 66l4 6l-2 11v4q8 59 29 91q31 47 72 47h2v6h-4v4q24 15 64 15h33l13 -2l2 2h2l91 -10v4h-4 v6h165l12 -2l2 2h2l101 -2h58l27 2l47 -4l13 2h25v2l-9 2v4zM443 1099l-2 -2v-2h10v2zM402 1093h2l20 2v2h-18zM501 1097v-2l10 -2h6l-4 4h-12zM536 1095v-2h14v2h-14zM561 1093v-2h12v2h-12zM606 1091v-2l12 -2q0 4 -6 4h-6zM625 1089l4 -4h6v2z" />
<glyph unicode="D" horiz-adv-x="1240" d="M199 1432l9 -2l2 2l10 -2h4l6 3l11 -2l181 -1l8 2l8 -2v3l2 -2h48l8 2l8 -2l2 3l35 -4l9 4l2 -2l53 1l6 2l11 -2l274 4v-10h2q4 0 4 8h10q86 2 148 -81q21 -41 21 -80l-2 -2l3 -35v-8q1 -66 -4 -126l2 -23l1 -212l-2 -19l2 -2l-1 -43l4 -544l1 -61q1 -90 -25 -122 q-28 -50 -61 -51q-85 -30 -128 -30l-121 -2l-19 2l-10 -3v5l45 6v2h-2l-146 -12l-231 -1l-22 1l-7 -2v2l-2 -2l-14 2l-60 -1l-80 3l-27 -4l-16 2h-5v-3l-14 2h-47l-77 1l-2 -3l-4 25q3 0 8 15l-2 2l-1 29l2 8l-2 2v2l2 23l-6 102l6 213h4v6l-5 6l6 11l-2 10l4 8l-2 2l3 97 l-2 6l2 12l-1 15l-2 12l6 27l-2 12h-4q-6 -50 -12 -72h-2v33l2 2l-2 2l-1 21q-1 73 9 121q-7 11 -7 50v2l6 2l-4 8l2 2v2l-3 56l5 66h-4q0 -6 -4 -6h-2v2l-3 55h2l-2 2q0 128 6 272v35l-9 45q1 66 7 85l54 1l28 4l103 4zM690 1112l-7 -31l-309 -5l-7 4q-10 -3 -10 -6v-19h-4 v-6h4l3 -8l-2 -35l4 -266l-2 -2l2 -2l1 -68l-2 -29l3 -6l-2 -8l2 -2l-2 -8l-1 -106l3 -26l-2 -23l2 -6l-2 -8v-9l2 -8l-2 -6h3l-3 -2l1 -37l-4 -15h4v-4h-4v-2l-14 2v2l2 2v2l-11 2l-14 -2q0 -5 41 -12l-4 -12l48 -8l6 4l45 -1l110 2l2 -3l2 3l55 -2l68 1l1 -33h4v23l1 10 l9 1q4 0 4 -11l6 -2q0 13 19 13l-3 2v2l2 6l-6 2v33l-3 17l2 16v19l-2 24l1 25l-2 29l8 14h-2l-2 -2h-2l2 6l-3 29l1 105l-3 21l2 2v2l-2 2l2 41l-2 112l2 2l-2 2v10l2 2l-2 2l1 25l-3 109v14l2 2l-2 2l-1 9q0 4 9 4v2q0 4 -7 4v17q6 0 6 4l-6 2v4l2 2l-2 2v12l-15 -2h-16 l-1 31h-4z" />
<glyph unicode="E" horiz-adv-x="1213" d="M4 1434h140l8 -2l6 2l15 -2l18 2v-2l3 2l31 -2h43l9 -2l8 2l2 -2l2 2h7l8 -2l14 2h127l2 -2l3 2h2l231 2h16l29 -2l21 2l9 -2l8 2l12 -2l21 2h2l9 -2l2 2h6v-2l25 2h25v-4l27 2l6 -2l19 4l42 -2h112v-38q-13 -44 -13 -122v-190l-20 -2h-63l-87 -2v2l-2 -2h-2q-21 1 -21 4 l-6 -4l-11 2l-14 -2q-15 2 -15 4l-17 -4l-8 4l-2 -2h-50l-2 2l-2 -2h-25l-2 2l-2 -2h-36l-12 2l-11 -2h-12l-2 2l-2 -2h-38l-2 2l-2 -2h-8l-2 2l-2 -2h-17l-2 2l-2 -2h-21l-2 2l-2 -2h-2l-50 4l-38 -2h-77q0 9 -4 9t-4 -7l-2 -2h-35l-9 -8l31 2h7l2 -15l-6 -2v-4h4v-4 q0 -4 -9 -4v-2q9 0 9 -6l-2 -7l2 -2h2l-2 -87v-44l4 -10h2l6 4h2q15 -1 15 -4q30 4 81 4l2 -2l2 2l354 -2h69l4 -4v-65l-8 -54l2 -23l-2 -33q4 -40 4 -100l-2 -75h-5v-2l-70 4h-27l-17 2l-23 -2h-158l-17 -2l-16 2h-54l-19 2l-6 -2l-3 2l-12 -2l-25 2l-19 -2l-16 6v-4h-2 l-9 2l-14 -4q-7 4 -7 25q-20 -31 -20 -62l2 -2q-13 -2 -13 -7h13v-8l-2 -13l4 -8l-2 -33q0 -5 -15 -6v-3l15 -12v-27l-15 -2v-4h15v-17q0 -5 16 -8h2l-2 2v6h167v-6l6 6l29 -2l2 2h2l9 -2l16 2l13 -2l6 2l15 -2l2 2h2l2 -2h2l10 2l46 -2h202l13 2l10 -2h46l33 -2l2 2h2 l23 -2h19q14 0 14 4q13 -4 13 -8v-27l-2 -29l2 -9h-2l2 -2v-2l-2 -19l2 -8l-2 -2l2 -6l-2 -46l2 -54l-2 -11l2 -10h-2l2 -6l-2 -2l2 -7l-2 -47l2 -30l-2 -2v-2l2 -6l-2 -25h-50l-13 2l-2 -2l-25 2h-62l-61 6l-122 -2l-9 -2l-10 4q-9 -4 -27 -4h-52l-11 2l-12 -2h-127l-23 -2 l-8 2l-2 -2l-11 2l-12 -2h-4v2l-25 -2h-23l-25 2l-25 -2h-21l-21 2l-10 -2l-67 2l-12 -2l-17 2l-12 -2l-19 2h-13l-50 -2l-10 4l2 11h-6q0 -15 -31 -15l-40 2v4l-2 25l4 32l-2 2l2 10v35l2 30l-2 8l2 2l-2 6l2 61v18q2 14 6 15q-6 23 -6 102v553q6 52 9 150l-3 11l3 6l-3 8 h3q-9 20 -9 34v12h4v-4h2v8q0 11 -6 11v8l2 2l-2 2v8l6 3l-4 12l2 19l-4 81l4 56v4h-2l-2 -14h-4v68zM8 1349v-4h2q7 68 15 68q7 0 21 -62v-2h2v4q-13 66 -21 66h-2q-9 0 -17 -70zM50 1336v-8h2v8h-2zM52 1326v-6l2 -9h2v2l-2 13h-2z" />
<glyph unicode="F" horiz-adv-x="1240" d="M843 1440l15 -2h33l57 -2v2l21 -4l12 4l9 -4v2l2 -2h6l2 2l2 -2h19l19 2l2 -2h2l10 2l3 -2h2l2 2l10 -2h25q4 0 7 -13l-5 -121l3 -214l8 -2v-8h-2l-2 2q0 -4 -74 -7l-92 5l-46 -3l-58 3l-51 -3l-2 -2l-6 2l-109 3l-27 -3l-40 3h-117l-30 2l-23 -5l-2 3h-2l-12 -3 q-9 3 -9 13h-2q-2 -13 -10 -13l-26 3l5 -15l-15 -6v-2q15 0 15 -5l-5 -10l5 -50l-2 -19h2l-2 -2v-61q0 -4 -7 -4v-4q9 0 9 -5q0 -6 -9 -16h21l6 2l11 -2h98q15 0 23 4l19 -2l9 2l12 -2h13l19 2l8 -2l11 2l10 -2l10 2l9 -2l27 2l36 -2l8 2l21 -2l13 2l6 -2l12 2l26 -2l12 2 v-2l2 2l15 -2h2l17 2l23 -2h10l36 2l4 -53v-31l-2 -2l2 -2v-164q0 -41 4 -54l-4 -31l2 -19h-2l-90 6h-4v-2l40 -4v-5h-5v-2l-10 2h-55l-29 3l-2 -3h-2l-23 3h-29v2l4 6q-53 -4 -74 -13h-100l-40 2l-2 -2h-2l-13 2l-27 -2l-2 2h-2l-29 -6l-15 2l-11 -2l-14 9h-4l-5 -5v-29 q0 -15 -4 -15l4 -8q-3 -27 -6 -27l2 -46v-128l-2 -19l2 -6l-2 -2v-7h2l-2 -25v-50l2 -33l-2 -28l-6 -471q-7 0 -76 71l-117 115q-73 71 -125 130v2h4l2 -2q9 4 -37 59l1 23h-2v94l-2 59l2 59v81h2l4 -29h2v6l-8 113q1 59 8 59v21q0 26 9 82h-9v25h-8l2 10l-2 23l2 53 q6 0 6 4v17l-2 12l2 8q-6 0 -8 44l2 32l-2 94v17l2 12l-2 9l2 21l-2 2l2 2h2l2 -8h5q6 25 6 46v56l-2 44l2 2l-2 15v10l-2 42l2 9l-2 21l2 19l-2 14h-9l4 57l-4 14l7 5l16 -13v2l-23 19v117q2 7 13 7h4v-3l15 3h42l16 -5l5 5h6l12 -3l2 3h7v-3l25 3h19l12 -3l9 3l6 -3l13 3 h2l2 -3l2 3h58l3 -3l2 3h69l56 4h164l48 2l42 -2h61l14 2v-2l2 2h2l11 -2l35 4l9 -2zM711 531l4 -4l2 2v2h-6zM730 531v-2h82v2h-82zM275 -234l2 -6h2v6h-4z" />
<glyph unicode="G" horiz-adv-x="1216" d="M160 1437h8l4 -4l2 2h3l49 -2l41 2l6 -2v-4l-35 -4v-2h4q41 4 60 10h49l2 -2l2 2h90l81 2l22 -2l25 2l33 -2l26 2l6 -2l19 2l29 -2l16 2l12 -2l19 2v-2l2 2h2l6 -2h4v2l136 -4q5 0 14 -8q3 8 6 8h11q40 0 71 -31v4q18 0 52 -49q8 0 22 -80h-2l8 -58l-2 -12l2 -8l-2 -33 v-49l2 -19l-2 -2v-6h2l-2 -25v-74l-2 -8l2 -8v-23l-2 -8l2 -6q-1 -35 -6 -35h-20l-39 2l-33 -2q-126 2 -173 8l-2 -2h-2l-26 2v-4h-9v4l-6 5l-10 -3h-2q-14 0 -14 15v113q0 12 8 12v2q0 4 -8 4v10l18 5v2h-2l-12 -2h-2l2 8l-4 10h-2l-7 -6h-4v2l-14 -2h-68l-2 2l-2 -2h-16 l-66 2v6h-4q0 -6 -4 -6h-128l-4 4v12l2 9l-2 8q-6 0 -6 -27v-6h-20l-15 4q-6 -10 -12 -10l2 -10v-17l2 -20h-2l2 -2v-3l-2 -6l2 -6l-2 -16l2 -41q-12 -100 -12 -234l-2 -15l6 4h2v-20h-4l-2 -31v-10l2 -82l2 2h4v-15h-6q6 -62 6 -108v-56l-2 -8l2 -8v-2l-2 -19l2 -6l10 2 l6 -4l2 2h48q0 -8 4 -8l2 8l277 -4l2 -2h2l19 4v2h-5v4q6 10 17 10h10v5q-12 1 -12 4l-2 -2h-8q-9 3 -9 14v14l11 64h-11v41q11 0 11 4v4l-11 2v8q0 5 6 5v2l-2 2l2 2v2l-8 8q-6 0 -16 -8h-4v2l-2 -2h-2q-37 1 -37 4v4h-2v-6h-17q-5 0 -6 8l-2 2h-2l4 -10h-86l-6 6l2 14v35 l2 8l-4 21l2 6l-2 23v31l4 6v2l-4 6v8q0 5 22 10l10 -2h17l10 2l88 -10v4h-6v4h374q18 0 18 -18l-2 -64v-63l-2 -60l2 -2l-2 -21v-283l-2 -55q-4 0 -8 -13l8 -2q-29 -76 -45 -82h-2v2l21 82l-3 2h-2l-28 -98q-45 -37 -91 -37h-12q0 9 -8 14q-6 0 -6 -14h-87l-8 2l-2 -2h-2 l-341 4l-6 2l-10 -2h-6l-2 2l-2 -2l-128 2h-104l-4 -4h-5v2l-20 -2h-2q-21 0 -66 21q-32 20 -47 43q9 3 14 12v2q-10 -10 -18 -10h-2q-19 32 -19 41l2 12q-3 37 -10 37q-5 0 -6 14h6v3l-6 8v295l2 39l-2 2l2 9l2 152v73l2 23l-2 2l2 10v74q0 74 6 74l-2 2v2l2 29h-6l2 21v22 l10 123h-4l-4 -41v-4h-6v123h6q-3 27 -6 27l2 8l-2 19q0 62 66 125q56 43 90 43zM189 1423v-2l16 -2l29 4v2h-6zM138 1419h39v2l-25 2h-10zM86 1377v-8h4v4zM679 706v-2l7 -2l2 2h2l2 -2h4v2l-10 2h-7z" />
<glyph unicode="H" horiz-adv-x="1222" d="M27 1440l10 -2h36l8 2l12 -4l11 4l14 -2l77 -2l16 2l36 -2h43l11 -2v2l2 -2h47l4 -4q0 -138 -8 -379v-108l-16 -2v-2q0 -6 16 -9v-8q0 -17 4 -27l17 4q19 -8 60 -8h27l10 2v2h-10l4 4h19v-4h-9v-2l13 -2l2 2h2l164 2l18 2l4 -12q4 0 4 8l3 2h35l14 -2l2 2v2q-10 0 -10 7 v18l10 2v2l-10 4l2 36v161l2 29l-2 11l2 2l-2 6l2 54v2l2 8l-2 8l2 7l-2 2l2 31v35l2 89l-2 14q0 11 29 11h284l2 -2l2 2h6q16 0 17 -6l-2 -11l2 -8h2v23h6l2 -58l-2 -17l4 -45l-2 -13l2 -31l-2 -141q0 -6 -6 -6v-2l2 -19l-2 -2l2 -10v-23l2 -6v-4h-2l-2 -124v-61l2 -53 l-2 -7q4 -5 6 -49l2 -7l-2 -33l2 -8l-2 -14l-2 -249v-162l-2 -22l2 -17v-39l-2 -23l2 -6l-2 -2l2 -21v-458l-2 -35h-2q-26 15 -89 81q-16 10 -203 197q-60 51 -60 80v23l-2 17l2 16v21l2 2l-2 6l4 58l-4 48h2l-2 6l4 27l-2 50v70l10 108q-5 0 -6 -15h-4v7q0 24 4 24 q25 1 25 7h-25v6l31 -2v-6h2q11 0 13 6v2l-44 4v2l6 31v2l-10 -2h-2q0 11 -6 13l-2 -15h-15l-8 2l-15 -2h-279l-2 8h-4q0 -8 -13 -8q-8 0 -8 10h-2q0 -6 -4 -6q-5 0 -5 6h-6v-6l-6 -23l2 -33l-12 -4q0 -3 12 -8v-29l2 2h4v-6h-6q2 -61 6 -77l-2 -2l2 -10v-25l-2 -79l2 -29 l-2 -2v-2l2 -8l-2 -19l2 -33v-60l-2 -8l2 -9v-4h-2l2 -10v-9l-2 -41q-73 -10 -120 -10l-85 2l-2 -2h-2l-10 2l-131 4l-2 2v4l-2 56l2 12l-2 9l2 72v199q0 31 13 153q-6 0 -11 -43h-4v56l-2 2l2 2v14l-2 2l2 3l-2 51v4l2 23l-2 2v2l2 9h-2l2 2v20l-2 9l2 2l-2 21l2 33l-2 20 h2l-2 2l2 15l4 77l-4 10l12 296l-2 17l13 114h-4l-9 -58h-4q11 122 19 122h2v-10l-2 -3v-2h2l12 81h-2q-6 0 -12 -37q-4 0 -10 -25h-5q6 87 21 87zM1063 1388v-12l2 -15h2v6l-2 13l2 12zM1065 1355l-2 -10h4v10h-2zM21 1322l-4 -25v-6h2l4 27v4h-2zM1065 1299v-2l4 -4v2z M802 481l6 -4v8h-2z" />
<glyph unicode="I" horiz-adv-x="502" d="M58 1443l38 -4l2 2l15 -2l85 -2l2 2h2l13 -2h19l8 -2l8 4l13 -4v2l2 -2h56l2 2l2 -2h38q0 -86 -10 -176l2 -8l-4 -12h4v4l2 -2h2l-2 -46v-21l-2 -2l2 -2v-19q0 -15 -6 -15l4 -148v-19l4 -16l-6 -215l2 -2v-2l-2 -23v-9l2 -10l-2 -13v-39l-2 -13q4 -9 4 -27v-46l2 -67 l-2 -73v-81q0 -42 -4 -42l4 -12v-105l2 -39l-2 -2l2 -21v-136l-2 -23q4 -16 4 -44l-2 -29l2 -2v-2q-3 -8 -6 -8q3 0 6 -52h-2l2 -3v-35l-2 -10l2 -13v-13l-2 -20l2 -21l-2 -2v-2l2 -9v-8l-2 -13l2 -8l-4 -25q-11 0 -117 115q-144 145 -144 154l-33 44v-2l12 -17v-4h-2 q-63 57 -63 73l-4 8v15h2l11 -8v2q-13 12 -13 23v27l-2 33l2 6l-2 9l2 64v17l-2 57l2 60v38l-2 45h2l-2 3l2 14l-2 21l2 10l-2 34v37l-2 48l2 17l-2 6h2l-2 7l13 71l-9 200h2l-2 2v27l2 6l-2 11v217l2 50l-2 8l9 77v5h-3l3 20v51l2 14h4q0 -6 4 -6q-7 25 -10 25l2 10v48 l-2 15h6q4 0 4 -6h4v2l-2 2v2h17zM351 1176v-8h2v8h-2zM33 -11v-4l2 -3h3l-3 7h-2z" />
<glyph unicode="J" horiz-adv-x="690" d="M419 1443h2q13 -8 31 -8l4 6l13 -4h12l27 2l22 -2l-2 -6q4 -36 4 -111l-4 -80v-21l6 -251v-88q-10 -8 -10 -17v-2l10 2v-6q-6 0 -10 -8v-6l2 2h8l-2 -327l5 -349q0 -104 -105 -157q-24 -8 -50 -8l-28 2q-15 -1 -15 -4l-10 2h-6l-8 -2l-3 2l-10 -2h-94l-60 -2l-2 2l-10 -2 h-6l-68 2l-6 -2l-19 2h-29q-6 0 -6 14h-2l2 11v29l2 2l-2 2v2l-2 94h2l-2 2l2 15l-2 24h2l-2 2v7l2 2l-2 6q0 140 10 140l35 -2l6 2l23 -5l33 3h23l12 -3l8 3l4 -11l15 15l8 -4v4h2l-2 28l2 206v62l-2 320l-2 9l4 20l-4 31v306l2 50l-2 2v2l2 2l-2 10v25q0 3 14 8l10 -2h2 l44 -2l12 4l14 -2l2 2h2l3 -2l14 2h10l8 -2l9 2h10l8 -2l6 2l19 -2l12 2l6 -2l19 2h20v6zM481 1396h2l4 4v2z" />
<glyph unicode="K" d="M18 1450h43l13 -2l6 2l6 -2l2 2h3l2 -2h6v2l25 -2h66l63 -2l8 2l41 -2h59v-27l-2 -37l2 -15l-2 -91v-38l-3 -2l3 -2l-3 -139v-127q0 -11 -8 -14l-21 2q-8 -3 -8 -6l21 -3h10l4 -4q-12 -2 -12 -6l12 -2v-17q-15 0 -16 -6v-2q20 -8 35 -8h38l12 -2l25 4l2 -2l10 2h7l10 -2 l12 2h15l2 -2l2 2h4l11 -2l14 2l2 -2h2l3 2l24 -2h3l33 2l39 -2h63q6 -2 6 -13q7 13 21 13v2l-9 10v19l2 2l-2 2l2 73v23l-2 2l2 2v43q9 0 9 5l-2 10l2 6l-7 88h3l-3 2l3 66v110l2 60l-2 13l2 2h14l2 -2l2 2h2l9 -2l14 2l17 -2l2 2l6 -2l52 2l13 -2l20 2h11l12 -2l13 2l2 -2 l10 2h25l52 -2l44 2q29 0 29 -8l2 -11v-4l-2 -2l2 -2l-2 -35v-7l-2 -328l-2 -25l4 -4v-2l-4 -39v-11l-2 -2l2 -2v-40q-14 -102 -29 -120q-42 -42 -57 -46q-16 -21 -45 -21l-19 5v-5l2 -2v-2l-23 -4l-8 2l-2 -2v-2l4 -6l10 2q88 0 150 -100q15 -36 15 -60l-3 -17l3 -35 l-3 -185h-2l2 -2l-4 -123l-2 -2l2 -8l-2 -141l-2 -2v-3l2 -8l-2 -6l2 -8l-2 -11l2 -14l-2 -7v-4h2l-2 -45v-5q0 -165 -6 -278h-2q-22 11 -293 285q-50 50 -50 54l2 16l-2 11l2 29l-2 14l4 13l-4 35h2l-2 2v2l2 9l-2 22v3l2 43l-2 9h2l-2 2v16l2 19l-2 8l2 6l-2 13l2 2l-2 2 v4l2 2l-2 2l2 32v60l2 25h-2l2 2l-2 14l4 96h-2l2 2l-2 21v2q0 6 11 6l-13 15q-5 0 -6 -9h-135l-21 2l-10 -2l-144 2h-10q0 7 -4 7q-8 -7 -15 -7h-6v9q-15 0 -15 -25q-8 -11 -16 -11v-2q16 -2 16 -6v-14q-12 0 -12 -5q12 0 12 -14l2 -13l-2 -31l2 -21l-2 -2v-6h2l-2 -66 v-333l-6 -6h-33l-23 2l-2 -2l-21 2h-56l-12 2l-3 -2l-35 2h-160l-2 2h-2l4 21l-2 8l2 106v31l2 23l-2 17l2 2l-2 6l2 2v4h-2l2 32v182l2 19l-2 2l2 11v104l-2 58l2 18l-2 2v3l6 20q-4 28 -4 90v70l2 9l-2 2l2 25v56l2 8l-2 2l2 73v123l3 105l-3 7l3 16v4l-3 30l3 2l-3 25 v118z" />
<glyph unicode="L" horiz-adv-x="1304" d="M46 1440h333l2 -33v-85l-2 -2l2 -2v-2l5 -593v-120l-3 -8l3 -9l-3 -9l3 -8l-3 -3l3 -2l-3 -76v-57l-2 -8l2 -9v-7l-2 -26l2 -2l31 4h4l5 -15q3 0 8 15h33l13 -2l13 5l7 -3l6 3l2 -3l13 3l14 -3l6 3l31 -3l24 3l13 -3h4v3l9 -3l150 3h44l24 -3l17 3h7l13 -3l8 3l16 -3l6 3 l13 -3l28 3l11 -3v3l3 -3h2l8 3l31 -3l9 3l6 -3l18 3l6 -3l33 3h70l15 -3v-43l-2 -120l8 -139l-2 -3v-2l2 -8h-2l2 -3v-6l-2 -13l2 -7l-2 -2v-2l2 -11l-2 -11l2 -9l-2 -2h-296l-9 2l-9 -2h-119l-9 -2l-9 2h-19l-96 -2q-47 9 -109 9h-35l-2 2l-2 -2h-18l-41 2l-46 -2h-15 l-13 -2l-2 2q-88 -7 -157 -7h-57l-98 2l2 48l-2 44l2 54v37l2 9l-2 9v24l2 8l-2 3l2 37v63l3 174l-3 57l3 13l-3 2v2l3 13v2l-3 3l3 2v100q0 166 -5 255l2 2l-2 13l-2 127l2 8l-2 7v4h2l-2 22v287q0 7 46 7z" />
<glyph unicode="M" horiz-adv-x="2015" d="M60 1443l6 -2l-4 -6h4l39 6l321 -4l33 4h62l143 -4h137l73 -2l7 2l21 -2h2l22 2h4v-2l32 2h28l158 2l3 2h2l2 -2l21 2h369l21 -2v2l2 -2h2l165 -9q0 5 7 5q71 -29 71 -45q34 -41 34 -58v-26h2v21h6q9 -27 9 -53v-58l-2 -195l-2 -2v-2l2 -7l-4 -109v-15l4 -263v-118 l-4 -377v-28q0 -30 6 -37v-426h-2l-225 234l-90 98l-37 37q-8 52 -15 158v4h3l-3 22v55l-2 13l2 2v3l-2 62v55l2 3l-2 2v34l5 17l-5 26v36l2 26l-2 32v139l2 35l-2 8l2 15l-2 22l2 8l-2 11l2 11l-2 17l2 26l-2 6l2 13l-2 6l2 11l3 176q6 0 6 4l-9 6l-17 -6l-15 2h-25 q-13 0 -13 15l-2 2h-3l-2 -15l-77 4l-79 -4l-96 2l-22 2l-2 -8l-26 2l-2 -2v-36q-13 -16 -13 -24v-6q0 -24 13 -90l-4 -54v-377l4 -474h-64l-24 -2l-17 2l-6 -2l-11 2l-21 -2l-60 5l-3 -3l-12 3l-105 -3l-9 -2l-9 2l-12 -2l-15 7l-3 85v118l-2 56l2 2v2l-2 9v10h5l2 -17h4 l4 26v2q0 48 -6 73l2 9h-2l2 2q-9 73 -11 218h2l-2 2v69l2 2l-2 2v35l2 68h5l6 -120h2v11q-8 126 -8 306v22h4l4 -50h5l-5 60h5v5q-12 0 -13 38l4 4v7l-26 -4l-160 4h-110l-8 -2l-9 2h-2l-19 -2l-22 2h-12l-3 -2h-2v4h-2q-5 0 -8 -19l-11 -7v-4q6 0 6 -11v-2h-8q0 -4 10 -4 v-19l3 -2q-5 -11 -5 -50v-178l-2 -192h-2l2 -3v-62l-2 -2l2 -2v-2l-2 -131l2 -28l-2 -53l2 -86h-2l2 -2v-7l-2 -2l2 -2v-23l2 -110l-2 -2v-2l2 -8v-37l-2 -2l2 -2v-4q0 -5 -6 -5l-253 5l-6 -3l-24 3h-36l-13 2l-13 -2q-11 0 -11 19v34l4 7l-4 12l4 448l-2 15l2 34v7l-2 34 l2 41v53l-2 35l2 2v2q-4 64 -4 186v13h4v15h-4l4 56q-6 94 -6 180v38l2 9l-2 9v102l2 13l-2 11v51q0 6 17 9h19zM1847 1293v-4l2 -11h2v11zM463 1079v-7h2l2 7h-4zM754 657v-13l2 -11h2v2l-2 22h-2zM756 631v-13l5 -4v2l-3 15h-2zM758 603v-8h3v8h-3zM758 584v-2l5 -4v2z M761 567v-4l4 -5v5zM765 537v-9h2v9h-2zM765 522l4 -4v8z" />
<glyph unicode="N" horiz-adv-x="1237" d="M23 1440h100l48 -2l14 2l41 -4l41 2l23 -2l57 2h33l8 -2l3 2l34 -2h204l43 -2l12 2v-2l2 2h52l43 -2l2 2h2l16 -2l93 2v-2l2 -2v-2l10 4l37 -10h11l12 2q67 -4 101 -58l20 -119l-2 -74v-23l2 -74l-2 -80v-98l-2 -35h2l-2 -6l-2 -220h-2l2 -6l-6 -255l2 -2v-2l-2 -19 q-2 -146 -4 -146h-4v-26l-3 -9q7 -9 7 -41v-20l-2 -29l2 -2v-2l-2 -25l2 -53l-2 -6q4 -29 4 -99v-29l2 -37l-2 -29v-2l2 -18l-2 -10l2 -2v-2l-8 -29v-105h-3q-71 68 -76 84q-207 210 -207 228l-50 47q-1 42 -4 136l3 6l-3 2v2l3 15l-3 16l3 6l-3 19v14l3 9l-3 14v37 q0 71 17 181l-6 10v4q0 35 8 70l-2 6h-4q-4 0 -8 -33h-5v179q0 227 5 345q20 8 41 8v2h-13l-28 -2v21q1 18 6 18l-2 9q-8 -7 -15 -7h-26v5l-2 30h2l-2 7h-2q-7 0 -7 -27v-10l-4 -5h-78l-35 -2l-37 2h-72l-6 5q-8 -7 -31 -7l-2 2h-2l-2 -2h-2l-18 4l-13 -2h-4l-14 2 q-6 -13 -6 -61v-54l-2 -2l2 -2v-2l-2 -6v-4h2l-2 -35v-68q0 -107 -4 -170l2 -45l-2 -167l4 -244v-224h-15l-47 2l-10 -2l-70 2h-148l-39 2l-2 -2h-2l-29 4v4l8 4l-2 10l4 475l2 6l-2 10v4l2 11l-2 14l2 12v5h-2l2 55v288l2 2l-2 2v2l2 22l-2 3v2l2 8h-2l2 2v43l-2 2l2 2v2 l-2 2l2 10v3l-2 8l4 14l-2 2l2 15v26l-2 11l2 2h-2l2 2v39l2 135l-2 21l2 68v86zM1058 380v-10h2v10h-2zM1060 316v-14h2v14h-2zM1062 291l-2 -6l2 -8h2v14h-2zM1062 267v-6l2 -15h3v21h-5z" />
<glyph unicode="O" d="M780 1443l9 -2v2l2 -2h50l30 -2l25 4v-4l21 4q10 0 10 -8q12 -7 74 -19q23 -12 23 -28q16 -35 25 -42h5l2 2q12 0 12 -56l2 -2q0 -13 9 -13v-8l-2 -2l2 -3v-2l2 -23l-2 -71v-160l-2 -17l2 -16v-57l-2 -21l2 -21l-2 -25l2 -13l-2 -57l2 -16l-2 -34v-63l4 -477l2 -29 q-14 -72 -53 -112q-43 -42 -136 -42l-65 -2l-172 5h-114l-61 -3l-2 3l-21 -3q-291 -1 -292 -4v-4h-8q-58 0 -120 67q-34 40 -34 122l-2 67l2 15q-6 10 -6 221l2 579l-2 76h2l-2 2l2 10l-4 72v27q0 122 105 166h4l7 -4l27 2v4h-13v4q26 9 61 9h17v-2l-2 -2v-3h2l8 3l9 -3 q25 7 56 7h206l26 2v-2l2 2h23l2 -2l2 2h57l2 -2l2 2h168zM167 1428v-2h9v4h-3zM144 1426v-2h6l13 2v2h-4zM484 1082l-10 2l-7 -2l-12 2l-2 -2h-2l-2 2h-3l-2 -2l-14 2h-11l-25 -2v2l-6 -2l-34 2v-23l-2 -9l4 -10l-2 -53l4 -92h-2l2 -2v-86l-2 -2l2 -3q-8 -63 -8 -111v-33 l8 -179l-2 -2v-2l2 -13v-33l-2 -3l2 -2v-4l-2 -15l2 -18q0 -19 -4 -19l2 -2v-9l-2 -15l44 5l6 -2l3 2l6 -2l6 -32h2v32l170 4l11 2l10 -2l55 2l11 -2l21 2h16l9 -6h2l2 6l-6 25l4 21l-2 42v2h4l2 -25h2v8q-8 101 -8 145v120l2 2l-2 2l2 11l-2 50v55l2 8l-2 2l2 46v106h4 l6 -47h2v7q-4 69 -14 69l2 36v25l6 8v2h-4v7q0 6 15 6v2q-16 0 -21 4q0 -7 -28 -8h-61q0 10 -4 10zM738 924v-8h3v8h-3zM738 907v-2l5 -38h2v19l-2 21h-5zM745 865v-10h2v10h-2zM745 851v-9l2 -6h2v2l-2 13h-2zM749 815l-2 -6l2 -2h2v8h-2zM732 414v-9h2v9h-2z" />
<glyph unicode="P" horiz-adv-x="1243" d="M180 1443l17 -2l2 2h2l43 -2h29l29 -2l7 2l12 -2l15 2l8 -2l6 2l23 -2l6 2l12 -2h3l8 2l8 -4l10 2h23l9 -2l8 2h4l8 -2l8 2l3 -2h2l12 4l17 -4h124q138 0 186 -8l2 2h2l40 -5l2 3h2l33 -9h2v2l-10 2v5l39 4q30 0 58 -25l17 -8v4q25 0 68 -67q15 -38 15 -66l-3 -8l3 -8 l-7 -148l2 -6l-6 -23h4l-2 -45v-21l4 -47q0 -11 -4 -11l2 -41v-201q0 -125 -128 -166l-15 -2l-22 2l-334 -4h-8l-2 2l-2 -2h-56l-83 2v-2l-12 4v15h-2q-5 0 -9 -15l-10 -4q0 4 -8 4l-2 11q-14 -15 -32 -15v-329l3 -25l-3 -31v-506l-2 -14h-4q-32 27 -217 224 q-124 121 -131 132l-8 6l4 7l-2 27l4 325l2 56l-2 6l2 2v6h-2l2 21v19l-2 43l2 27l-4 161l4 154l-2 10l2 2l-2 15v95l4 4q-4 25 -4 62v81l2 60l-2 6l2 15l-2 12l2 23v29l-2 25l8 149zM922 1416v-2l8 -2v2l-2 2h-6zM731 1107q-1 -24 -6 -24h-213l-3 -2l-2 2h-31l-2 -2l-2 2 l-6 -2q-52 0 -52 12l-2 2v2l-2 -2h-2l-2 2h-2v-4l-2 2q-4 0 -11 -12h-2q-4 0 -6 14l2 6q-6 0 -6 -18q-7 0 -14 6l-3 -2v-2l5 -4v-19h-17v-2h17v-155l2 -25q4 0 6 10h6l13 -2l20 2h263q4 -23 9 -23l-5 23h29l2 -10h3v4h-3l3 6h16v-10l8 12l-2 11v51l2 125l-4 4v18zM325 1068 l4 -4h4l-2 8h-2z" />
<glyph unicode="Q" horiz-adv-x="1216" d="M193 1440l32 -2l18 2l13 -2l31 2h13l2 -2l2 2h44l2 -2l2 2h31l2 -2l2 2h21l11 -2l12 2h48l2 -2l2 2h7l2 -2l2 2h10l2 -2l2 2l57 -2h152l219 -2q64 1 96 -53q0 -7 18 -26q0 -4 11 -16q10 -41 10 -72v-4h-2l2 -9l-2 -189v-42l-2 -33l2 -3l-2 -10v-44l-2 -8l2 -2v-2l-2 -7 v-4h2l-2 -25v-202l-2 -21l2 -19v-64l-2 -30l2 -6l-2 -6l2 -2l-2 -8q-2 -259 -6 -320l-2 -246h-2l2 -2l-2 -23l-5 -273h-6l-288 300v5h15v4q-35 2 -35 10v6q10 0 10 5q-18 0 -35 16h-172q-198 0 -198 6l-10 -4l-4 4l-13 -2l-2 2l-2 -2h-2l-6 2l-2 -2h-2l-9 2h-2q-5 -8 -48 -8 q-134 0 -152 21q-15 9 -15 13l2 6l-6 -2q-75 50 -75 127v248l2 34l-2 22v17l2 2l-2 2v209l2 12l-2 9h2l-2 2v100l2 79l-2 13l2 27l-2 27l2 27l-2 8l2 19l-2 48l2 2l-2 11v75q15 181 21 181q55 90 142 90h10q0 -6 4 -6h2q11 8 23 8zM346 1079v-4l2 -2v-2l-13 -2l4 -4h11v-40 q0 -4 -11 -4q0 -4 9 -4l2 -2v-140l-2 -2l2 -2v-280l-2 -8l2 -2v-2l-2 -61v-23l-2 -12l2 -11v-8l-2 -27l2 -27l-2 -53h33v-4l-17 -4v-4h4q32 12 71 12v-4h2v4h11l6 -4l157 4h54q14 0 14 -8h5l2 6l21 -2l29 2v5q-27 2 -27 10v13q25 3 25 10v4l-25 4v48l2 2l-2 2l2 9l-2 16 l2 36l-2 6v4h2l2 98v130l2 21l-2 18v17l-2 52l2 65v100l2 2l-2 2v4q1 42 4 42l-2 2v8l8 3v2h-4l-15 -9h-137l-2 2l-2 -2h-11l-6 2l-11 -2h-27l-2 2l-2 -2h-4l-146 2l-2 7z" />
<glyph unicode="R" horiz-adv-x="1225" d="M46 1440h73l19 -2l8 2l9 -2l2 2l33 -4l13 2l165 -2l14 -2l6 2l36 -2l21 2q67 -4 177 -4l36 -2l14 2l7 -2l10 2l2 -2h2l7 2l6 -2l17 2l18 -2l13 2l2 -2l10 2h5l6 -2l10 2h80l23 -2l8 2q15 -2 15 -5l10 3h4q35 0 63 -19l-2 -9q21 -14 39 -14q36 -25 53 -80l6 -27l-2 -106 v-169l-2 -19l2 -15v-2l-2 -8l2 -2v-2q-5 -134 -19 -134h-4q0 6 -4 6v-2l2 -14h-2q-55 -71 -71 -71l-11 -3l-14 3q0 -15 -34 -15h-2l-6 4l-13 -4h-12v-4l54 -9l-6 -8l2 -2l2 2h25q24 0 42 -29h10q39 -40 52 -100l5 -17l-2 -73v-4l-3 -17l3 -11l-3 -41l3 -17l-5 -21l2 -23v-48 l-2 -2l2 -2v-17l-2 -2l2 -2l-8 -111l6 -2l-2 -2l2 -31v-90l-2 -19l2 -14v-25l-2 -9l2 -2l-2 -6l2 -15l-2 -71v-48l-2 -16l2 -17v-34l-2 -2l2 -2l-2 -25v-8l2 -19l-2 -21v-23l-2 -8q0 -6 13 -6v-13h-7q-176 173 -279 286q-34 28 -69 69l2 2v4q0 4 -7 4v26l-2 41l5 138l-3 11 l5 98l-2 8l4 36q-7 0 -7 4l3 75v4q0 5 8 6q0 7 -6 7v6h4v4l-6 2q1 17 6 17h10q0 6 -14 25v15l10 2v2h-4v6h6v4l-56 2h-40l-278 4q-3 -20 -16 -20q0 -5 12 -5v-6q-8 0 -8 -4v-2l8 -2q-2 -46 -6 -46l2 -38l-4 -269l-2 -15l4 -31l-2 -23v-79l8 -3l-2 -2v-2l-12 2l-13 -2l-2 2 h-2l-6 -2l-88 4h-186l-12 3l-3 -3h-2q-31 3 -31 9v25l2 40l-2 2v2l2 6l-2 2l2 11v8l-2 8l4 23l-2 9l13 618l-2 12l4 34l-2 37v32l4 25l-4 127q4 52 4 221l-2 7l2 12v75l2 84l2 2h6q4 0 4 -6l3 -48h2v25l-2 29zM36 1377v-89l2 -13l-2 -13l2 -2v-2l-2 -2l2 -10v-25l2 -11h2v50 l-2 53h2l-2 2v31l-2 31h-2zM40 1206v-17h2v17h-2zM370 1081v-2l-2 -36h-13l-4 -4v-2h17v-96l-9 -11q6 0 6 -4v-31l36 4v-2l2 2h8l21 -2l15 2l2 -2h2l29 6l4 -4h67l9 -2l8 2h4l11 -2l12 2l11 -2l10 2l17 -2l21 2q25 0 33 -8q0 6 4 6h32l2 -15h4l6 21l-4 19v94h4v-6h2v12 l-6 36v6l4 13l-4 4l-11 -2l-4 4l-14 -2h-88l-33 2l-3 -2l-10 2h-15l-14 -2l-19 2h-65l-33 2l-9 -2l-14 2l-2 -2l-11 2h-12zM735 991v-52h2v52h-2zM737 928v-12h2v12h-2zM735 469v-2h13v2h-13z" />
<glyph unicode="S" horiz-adv-x="1222" d="M199 1440l51 -2h73v-4l11 2l6 -2l65 4h118l199 -2l8 2l9 -2l180 -2h70l77 -4v-320l-2 -12l2 -11l-2 -6h-128l-8 2l-9 -2h-4l-8 2l-2 -2h-2l-26 2l-16 -2v2l-2 -2l-28 2l-292 -2l-2 -2l-10 2h-118l-12 4l-13 -2l-10 9q0 -3 -17 -9l-4 -15l2 -29h-2l2 -2v-11l-2 -10 q-28 -2 -28 -8v-3q30 -4 30 -8v-63l-2 -8l2 -9l-4 -19l6 -16h2v2l-2 10l2 2h2l11 -6q8 6 18 6h227l134 -10v2q0 4 -6 4v4h17l23 2l6 -4l2 2h95l13 -2l6 2q34 0 88 -29q3 -13 25 -27q46 -40 46 -122h-2l2 -2v-9l-2 -2l2 -2v-12l-2 -13l2 -10v-3l-2 -2l2 -2l-2 -23l2 -132 v-128l-2 -19l2 -8l-4 -47l2 -19v-14l-2 -9l2 -6l-2 -19l2 -42v-27q0 -88 -75 -143q-32 -25 -109 -25h-269l-34 2l-2 -2l-15 2h-151l-29 2l-8 -2l-17 4l-13 -4h-40l-10 -2q-24 4 -88 4h-196l-2 -2h-2l-2 11l2 298l-2 44l15 2h33l57 -2l29 2v-2l7 2l44 -2l10 2l11 -2l2 2h2 l27 -9q19 5 51 5h8v-2l-15 -3v-4l181 9h92l19 -2l2 2h2l55 -2h55q4 0 4 -11h4q0 13 4 13h15l2 -2h2v4h2l-2 2v2l4 25l-2 74v27l-2 29l2 11l-2 12l2 9l-10 2h-15q0 8 -4 8q-6 0 -7 -8h-4q-56 8 -94 8l-11 -2l-12 2h-34l-23 -4v2l-2 -2h-2l-55 -4l-2 2l-10 -2h-65l-34 -2l-2 2 h-2l-15 -2l-8 2l-21 -2h-91q-90 0 -90 19q0 10 -27 12q-32 0 -67 74l-2 8h2q5 -2 42 -57l2 -2h2l-51 76q-6 14 -6 34q1 10 4 10l-2 2v116l2 21l-6 2v10h2l2 -2h2l2 151v46q0 15 -10 15l2 25v124l-2 13l2 8h-2l6 11l-6 8l2 2v13q0 22 19 69q58 84 141 84h6l6 -4h9v4z" />
<glyph unicode="T" horiz-adv-x="1213" d="M81 1440v-4l2 2l10 -2l31 2l359 -2h133l35 -2v2l2 -2l25 2l48 -2l37 2v-6h-2q-43 -6 -43 -13l31 -4q248 21 313 21l4 -15l-2 -52v-87l-2 -33l2 -2v-2l-2 -54v-106q0 -5 -10 -6h-5v2l-20 -2h-15l-47 4l-67 -2h-6l-2 2l-2 -2h-52l-23 2l-6 -2l-31 2l-2 -2h-2l-19 6l-10 -6 l-11 2l-8 -2l-13 4h-2l-6 -4l2 -2v-8q0 -4 -12 -4v-3q0 -4 12 -4v-10l-4 -6h4v-4l-4 -17l4 -4v-21l-2 -72v-5h2l-2 -20v-94l-2 -12l2 -2l-2 -56v-459l2 -361l2 -31l-2 -2v-2l2 -8h-2l2 -2v-183l-2 -12l2 -11v-12h-2q-48 39 -176 174q-9 2 -139 135q-31 30 -31 37l2 7h-2 q-9 0 -13 27l2 10v14l-2 3q4 12 7 12l-3 93v42l3 21l-3 18v35l3 34l-3 6l3 2l-3 10l3 13l-3 21l3 43l-3 60v2l3 13l-3 2v2l3 10l-3 29q3 98 9 108l-2 2l2 21v12q0 5 -9 5v18q1 46 5 46q-4 0 -7 48h-2q4 10 4 37v91l3 33l-3 2v3l3 6l-3 16l3 17l-3 2v2l3 2v2l-3 6l7 54l-2 11 l12 2v4q-8 0 -8 4l-4 4h-5l-10 -8l-23 2l-2 -2h-2l-35 4h-19l-70 -2l-69 2h-12l-13 2l-2 -2l-14 2h-42l-31 2v2l-4 154v180q0 16 6 17h54z" />
<glyph unicode="U" horiz-adv-x="1234" d="M790 1437l2 -2h44l8 2l6 -2l25 2l25 -4l4 4h169l-2 -21v-20l-2 -2l2 -2v-2q2 -104 10 -104l-2 -2l2 -14v-54l2 -8l-2 -6l2 -21l-2 -51v-29l2 -9l-2 -2v-2l2 -2l-2 -20v-19l-4 -225l4 -27v-82l2 -21l-2 -12l2 -104l-4 -94l2 -3l-2 -6l-2 -97l8 -334v-2l-2 -10l2 -13v-144 l-2 -2l2 -2v-4l-2 -17l2 -16v-7l-2 -2l2 -2v-2l-2 -6l2 -21v-22l-2 -9l2 -2l-2 -35v-72h-2l-185 180l-2 2v2l2 6q-63 48 -153 136l-21 27l-41 -2h-99l-60 -2l-2 2h-2l-12 -2h-7l-29 2l-26 -2h-9l-2 2l-2 -2h-157l-12 2l-10 -2l-2 2l-11 -2h-59q-118 0 -163 105 q-11 11 -13 120l2 2l-2 10v15l6 6l-6 84l2 66l-2 31l4 70l-4 13v45l2 11l-2 12v4l2 54l-4 150l6 46q-5 35 -8 173l2 2l-2 10v23l2 8l-2 9v10l2 2l-2 2v4l2 6l-2 11v16l2 2l-2 2v25l2 15l-2 10l2 120l-2 41h2l-2 2v87q0 6 37 6h6l2 -2l17 4h4v-2l35 2h64l8 -2l9 2h62l14 2 l19 -2h82l-2 -2v-52q-6 -7 -6 -14h2l2 2h2v-21q0 -51 -4 -51l4 -17v-97l2 -2l-2 -2v-2l2 -10l-2 -13v-8l2 -6l-2 -11v-20l2 -19l-2 -10l2 -2v-2l-2 -6h2l-2 -2v-11l2 -6l-2 -10v-46l2 -12l-2 -8h2l-2 -2l2 -33l-2 -116v-35l2 -8l-2 -6l2 -3l-2 -10v-18l2 -2l-2 -3l2 -14v-25 l-2 -58l4 -39v-60l-2 -14l2 -19v-150l-8 -11l12 -2l6 4l7 -4l6 2l20 -2l-4 -12h2l17 14l6 -2l23 4l8 -2l2 2h2l6 -2l11 2l16 -2v2l2 -2h13l20 2l9 -2l33 2l8 -2l2 2h2l2 -2h2l17 2l12 -2l2 2h2l12 -2l7 2l10 -2l21 2q2 -10 6 -10l12 10h41v3l-4 33v8q11 0 11 4l-11 2l-2 56 v20l-4 273l-2 2v2l2 2v2l-2 8l2 35v73l2 28l-2 3v2l2 8l-2 62v22q0 132 4 178l-2 8l2 70l-2 172l6 8h2l62 2v2zM347 1359l-2 -11v-2h2l2 11v2h-2z" />
<glyph unicode="V" horiz-adv-x="1247" d="M970 1449l8 -2l84 2h21l-4 -44q4 -54 4 -154v-494l2 -42h-2l2 -2v-44l2 -53h-2l2 -2v-132l2 -13l-2 -2l2 -84v-181l2 -9l-8 -18h6q0 -57 -31 -101q-18 -37 -110 -68l-25 -4l-8 4l-6 -2l-36 2h-131l-19 -2l-21 2h-101l-10 -2v2l-2 -2l-11 2l-191 2l-6 -2v2l-2 -2h-3 l-216 -6q-30 17 -93 34q-40 35 -56 88l-9 38l2 40l-4 120l2 10l-2 2l2 15v8l-2 24l2 2l-2 25v19q0 104 8 170l-2 6l-2 -2h-4v204l6 112l-6 2v252l4 55l-4 17v176q0 21 59 21l86 3h82v-5h2v5h124l2 -11v-71l-2 -3l2 -2l3 -246v-90l2 -2l-2 -7l2 -21l-2 -6l2 -25v-133l2 -12 l-2 -9l2 -2v-2l-2 -10l2 -7h-2l2 -2l-2 -6l2 -164l-2 -13l2 -19v-67l2 -67h-2l2 -2v-9l-2 -8l2 -2v-2l-2 -21h-9l-10 -3v-2h19v-14l2 -13l-2 -8l2 -9h15l10 -2l13 2h17l33 -4l21 2l9 -2l21 4l2 -2l86 6l13 -2l8 2l8 -2l61 2h24l16 5l9 -2l4 4l-6 23v19l19 4v4q-19 1 -19 7 v275l-2 50l2 19l-2 19l2 2l-2 11v19l2 2l-2 6v4h2l-2 15v9l2 46l-2 61v90l-3 23l3 9l-3 6l3 15l-3 15l3 12l-3 11l3 2l-3 10v293h3l117 4v-2l2 2h5l2 -2h2l-2 -2v-7h6q11 11 59 11h31z" />
<glyph unicode="W" horiz-adv-x="1948" d="M1448 1440h53l8 -2l6 2l44 -2l17 2l2 -2h2l2 2h2l19 -2l10 2l9 -4l2 2h179v-8q0 -6 -23 -9v-2h2l21 4v-442l2 -19l-2 -8l2 -9h-2l2 -2l-2 -31v-6l2 -11l-2 -12l2 -19l-4 -31l4 -25v-50l-2 -17l2 -23v-98l-2 -29l2 -2v-3l-4 -33l4 -15l-2 -45l2 -63l-2 -25l2 -8l-2 -7 l2 -16q0 -64 -16 -209q8 0 8 -4q0 -74 -38 -103q-40 -52 -146 -52h-10l-13 -2l-12 2l-2 -2h-2l-3 2l-31 -2h-117l-106 9l-111 -7l-19 4l-4 -4h-2q-82 0 -202 23q-69 69 -69 136l4 12l-2 2h-2l-6 -6v-8q0 -56 -30 -86q0 -7 -98 -66q0 -4 -23 -9l-62 2l-148 -4v2l-2 -2h-174 l-12 -2l-2 2l-73 -2h-123q-24 0 -63 15v10q0 6 -23 6q-69 61 -69 123v11l4 4l-6 10v7l2 16l-2 13l2 17l-2 2l2 12l4 322v135l2 13l-2 10v9l2 37l-2 11l2 6l-2 12l2 25l-2 63v90l2 37l-2 46v171l-2 182h2l-2 2v21h29q0 -5 7 -11l169 11h60l13 -2l10 2h15q19 0 29 -8h4v2l-2 6 h8l3 -2l2 -6h2l-7 -84l3 -27v-46l2 -12l-2 -3l2 -10v-40l2 -10h-2l2 -2l-2 -21l2 -10l-2 -13v-25l2 -13l-2 -2v-2q1 -12 4 -12l-2 -11v-200l-2 -54l2 -2v-2l-4 -21l2 -7l-2 -23v-25l-3 -2l3 -2v-2l-3 -6h9v-104h-4v2l-2 35h-3v-50q9 0 9 -4v-242l-2 -25l2 -2l21 2h162l17 2 l17 -2h14l76 2l2 -2h2l8 2h4q8 0 17 -9l6 7h13v-7h2l10 11q-8 0 -8 21l2 6l-2 2v2l2 13l-2 21l2 16l-2 15l2 12l-2 25v5h2l-2 14v82l2 18l-2 9h2l-2 2v234l-2 60l2 2v2l-2 9v12l2 2l-2 2v96l2 2l-2 2v272l-2 39l2 3v2l-2 23v18l2 2l-2 3v4l2 2l-2 2v23l10 2h79l17 -4l2 2v2 l119 -8q9 2 9 8h68l67 -4l2 -36v-98l-2 -219l2 -238v-188l2 -71l-2 -16h2l-2 -2v-121l-2 -9l2 -8v-2q-10 0 -16 -13l-2 -2h18v-2l2 -29l-2 -17l2 -10l11 2h4l8 -6h2q0 6 5 6h20l23 -2l9 2v-2l2 2l37 -2l30 2l2 -2h2l2 2h2l8 -2l36 2h92q4 0 6 -25l2 -2h2v23q2 6 13 6h8 q17 0 17 -13l6 -46l4 5l-8 52h16l11 2q0 4 -11 4q0 6 -8 6l2 13l-4 31l4 4l-2 13l2 21l-2 6h2l-2 2v8l2 17l-4 31l2 13l-2 8l2 7l-2 6l2 23v10l-2 29l2 7l-2 14q3 15 6 15l-4 12h2l-2 2v3l2 6l-2 17l2 6l-2 12v23l-2 2l2 7l-2 14l2 13l-2 2v6h2l-2 25v200l2 34l-2 2l2 6 l-2 148v38l-2 63h2l-2 2v4l2 17l-2 22v28l2 6l-2 10v48q0 12 10 17zM1753 1415v-2h8v2h-8zM346 726v-37h3v35l2 2h-5zM346 687v-11h3v11h-3z" />
<glyph unicode="X" horiz-adv-x="1243" d="M43 1431l53 -4l6 2l21 -2l16 2l35 -2l20 2l15 -2l8 2l6 -2v2l2 -2h4l13 2l2 -2h2l10 2l18 -4l6 4l3 -2h2l2 2l10 -2h26l9 2q4 -3 28 -6l2 -10v-104l-2 -2l2 -2v-31l-2 -14l2 -25v-305q-8 0 -8 -4q8 -1 8 -6v-15q0 -7 -8 -14l8 -4l7 4l10 -2h10v-6h4q0 8 12 8l6 -2l19 2 h16l6 -6q21 3 21 6l6 -2l29 2h14l-2 2v2l2 2h6v-6h10l9 -2l14 2h35l43 -4l16 4h19q0 -8 4 -8t4 6l2 2h6q10 -5 10 -16l2 2q4 16 15 16l4 -10h2q0 8 6 8v4l-6 2l2 14l-2 15h2l51 4q0 6 -23 6h-12q0 -8 -14 -8l-2 2v2l2 2v2h-4v33l2 18l-2 6v4h2l-2 31v51l2 33l-2 12l2 9 l-2 22v14l2 11h-2l2 2v6l-2 31h2l-2 2v12l2 2l-2 2v2l2 2l-2 10l2 21l-2 16h2l-2 2v2l4 4l-4 9v4h2l-2 14v4l2 12l-2 11l4 12l-4 16v8q0 5 8 5q-6 10 -6 20v8q0 5 8 6l41 2l43 -4v4l14 -2h19l8 2l8 -2v2l2 -2h12l13 2l14 -4l4 4l2 -2l10 2h97l8 2l8 -2h43l2 -2h2l-4 -301 l2 -172l-4 -14l4 -4v-57q0 -19 -43 -84q-13 -35 -27 -35q-39 -39 -114 -39l-4 -6v-2h12l8 2q49 -6 49 -14l-6 -9v-2l25 9l4 -7v-8l-6 -10l2 -2q16 9 18 14q76 -53 76 -135v-45l-4 -29l4 -12v-74l-2 -2l2 -2v-39l-2 -2l2 -2v-84l-4 -120l2 -9l-2 -6l2 -108l2 -2h-4l2 -2v-4 l-2 -7l2 -8l4 -196l-2 -45v-66l2 -18l-2 -8l2 -2v-3l-2 -12v-8h-2q-259 257 -268 280l-29 35h-2l-2 -2h-2q-45 40 -45 53l4 7l-2 14v8l-2 105l2 14l-4 153l2 21l-2 10l2 92v41l2 12l-2 11l2 2l-2 2v24q0 15 14 15v2h-2l-6 -2l-8 8q-10 -6 -37 -6h-37l-6 -2l-10 2h-68l-20 -2 l-19 2h-10l-8 -2l-15 2h-86l-12 2l-10 -2h-6q-7 0 -15 6h-2l-8 -6q6 -11 6 -21v-6l-8 -10l8 -2v-21h-4l4 -18v-94l-2 -8l2 -2v-3l-2 -8l2 -2v-2l-2 -2v-6h2l-2 -20v-123l-2 -8l2 -9v-4l-2 -71h-2l2 -2v-7l-2 -14l2 -18v-9l-2 -8l2 -6l-2 -33h-53l-12 -2l-21 2h-172l-92 2 l-4 5l2 8l2 118h-2l2 7l2 151l2 12l-2 2l2 25v74l2 8l-4 16v2l4 25l-2 59l2 41h2l-2 2v2q0 58 51 113l23 16l2 -2h4q0 8 27 17l2 -2q0 8 37 10h16l2 2l8 -4q0 6 12 6v2q0 6 -45 14h-4q0 7 -12 13l-16 -7h-6v4l10 15l-2 2h-4l-31 -6q-33 27 -47 63q-27 23 -27 180v68h2l2 -2 h2l2 14v12l-2 11q9 0 9 8q-15 87 -15 110l6 2l-8 33l2 10l-2 17v2l2 2l-2 2l2 76v63q1 10 4 10z" />
<glyph unicode="Y" d="M33 1443l2 -2h2l2 2l21 -2h19v-6q31 6 60 6h126l-2 -2v-4h6l-2 2v2l2 2h8v-6l62 2h12v-91l-4 -122v-89l-2 -33l2 -2v-2l-2 -39v-33l-2 -13l2 -10l-2 -10l2 -13v-27q0 -5 -18 -8l-19 2v-4h15l20 2v-17l-2 -8l4 -25l35 2h56l29 3l10 -3l3 3h2l12 -3h2l8 3l7 -3h4v3l14 -3 h54l8 3l33 -5l19 2h56v-12h4v12h6v-10h2q0 6 8 13l-2 12l6 10v4l-6 2v5h2l-2 41v66l2 8l-2 9l2 20v4h-2l2 21v165l2 95l-2 9l2 12h-2l2 2v15l-2 10l2 12v9l11 6h91l2 2l2 -2h60l2 2l2 -2h2l37 2l8 -2l2 2l11 -2h68l52 2l4 -6v-128l2 -75l-2 -2l2 -14v-128l-2 -29l2 -7l-2 -2 l2 -14v-15l-2 -22l2 -2v-2l-2 -9l2 -10l-2 -21l2 -8l-2 -8l2 -6l-2 -3v-6h2l-2 -31v-49l4 -17l-4 -52v-47l2 -19q0 -82 -71 -140q-41 -29 -99 -29v6h-2l-25 -6l-2 2h-2l-2 -2l-14 2h-97q-11 6 -11 17h-2l-6 -15h-4l-6 4l-4 -4h-19l-10 -2v-4l8 -2l2 -19q-10 -27 -10 -60 l4 -109v-137l2 -231h-2l2 -2l2 -83v-33l-2 -45l2 -37v-13l-2 -12l2 -11l-2 -10l2 -23v-33l-2 -12l2 -10v-13l-4 -4h-2q-17 0 -135 132l-155 163q-55 53 -55 65l8 8v2h-2l-2 -2h-2l-7 2v225l7 72l-7 3l-2 45l2 128l3 2v2l-3 8v19l9 10l-4 7v2l4 12l-2 2h-13l-14 -2l-19 2h-23 l-43 2l-2 -2l-10 2h-37l-15 -2l-8 8h-2l-11 -8q-58 0 -117 50q-50 47 -50 122q10 0 10 4v4l-10 2v78q1 93 4 93l-2 17l4 316l-2 8l2 25l-2 132l2 3v2l-2 2v2q0 37 10 37zM29 1429v-3h6l38 9v2zM240 1435v-2h10l6 2v2h-4zM217 1435v-2h15v2h-15zM174 1431v-2h8v4h-2z M192 1433v-2h13v2h-13zM141 1429v-3h10v3h-10zM15 1420l18 -2h9v2h-15v6q-12 -1 -12 -6zM110 1426v-2h8v2h-8zM68 1422v-2h19l2 2v2z" />
<glyph unicode="Z" d="M1081 1449l-7 -611l4 -34l-1 -59l-2 -2l2 -2l1 -130l-1 -61l-25 -2h-30l-6 -2l-11 2l-130 2l-9 -2l-8 2h-13l-23 -1l-2 2l-25 -2h-9l-124 6l-206 -6h-4v2l-11 -2h-36l-4 5v10l2 2l-2 6q-6 1 -6 -23l-9 1l-21 2l-4 -15l2 -19l-2 -6h-5l-2 2l-8 -6v-2h6v-4l-10 -2l-9 2 l-6 -2l2 -2v-3l10 2h15q6 0 8 -25l-2 -6l2 -3l-2 -6l2 -40l-1 -15q0 -6 -42 -5v-5l36 2h6l-4 -29l31 -11v-9h4q1 17 7 17h4l11 -2l12 2h2l17 -3l36 4h19l2 -2l2 2l105 1l24 -1q10 0 10 4l21 -4l87 1v2l2 -2h8l11 2l6 -2l82 1h27l7 2l10 -3l99 -1l28 2l23 -2l17 -1l4 -4v-6 l3 -247l-2 -2l2 -14l-1 -36l2 -44q-2 -7 -9 -9l-33 3l-40 -2l-2 2h-2l-9 -2l-2 2l-11 -2l-88 2l-32 -2v2l-2 -2h-8l-34 -2l-23 3l-29 -2l-3 2h-2l-8 -2l-8 2l-7 -2l-2 2l-10 -2l-19 1l-156 -1l-7 -2l-10 2l-11 1l-2 -2l-2 2h-8l-21 -4v2l-2 -2l-106 1l-29 -2l-2 2h-2l-34 -1 h-11l-18 2l-17 -2l-70 3v-2l-2 2h-2l-2 -2l-11 2l-27 1l-13 -2l-10 2h-2l-9 -2l-33 5q-19 -1 -19 -4l-15 2h-23l-6 5l-3 -7h-6l-4 11l2 137l4 38l-4 8l4 156l1 52l-2 51l2 2l-2 15l2 126l2 9l-2 2v2l14 126l-4 19h2l-2 2v8l3 3l-3 2l1 2l2 44h-4l-7 -48h-4l1 134q0 5 24 4v2 l10 -2h53l12 2l9 -3l10 2l17 -2l7 2l21 -2l48 -1l13 2l12 -2l2 2h2l9 -2v2l2 -2l15 -1l8 2l9 -2l2 2l2 -2h4l2 2l2 -2h2l21 2l23 -2l3 2h2l8 -3q15 0 15 4l10 -2h11l2 2l2 -2h21h158l158 -15h2v3l-32 6v2q1 5 15 6l7 -2l2 2v15h13v2q0 4 -13 7v23l34 4v4h-36l1 23l-1 106 l2 2q-5 0 -6 8h-2q-5 0 -5 -8h-151v-3l-2 3h-3l-56 -2l-47 3l-187 -2v2l-2 -2l-148 2l-33 2l-7 -2l-6 2l-6 -2l-2 2h-2l-3 -2h-2l-12 3l-11 -2v2l-2 -2h-15q-9 0 -12 29h2q-6 26 -7 72l2 2l-2 15l1 84l-2 9l2 8l1 42l-2 19l2 13l-2 2l5 42l-2 12h21l16 2h5v-2l42 2l282 -4 l455 -1l147 -8q0 5 -29 7l-7 -2l-10 2v2l4 4l124 -1z" />
<glyph unicode="[" horiz-adv-x="672" d="M1 1782h45l26 -3l3 3h2l7 -3v3l2 -3h5v3l24 -3h259l10 3l2 -3l29 3h16l95 -3v-12l-3 -70h-2l2 -3l-2 -71v-191h-135v10h-2v-10h-7q0 14 -5 14q0 -14 -16 -14q-15 0 -15 -4q5 -11 10 -12l5 4l11 -2v-7l-7 -7l3 -7l-3 -7l3 -7l-5 -81h2l-2 -2v-2l2 -3l-4 -33h-5v29h-3v-81 l-2 -2l2 -2v-3l-4 -170l-3 -9l3 -10l-3 -9h3l-3 -2v-12l3 -3l-3 -2v-5l3 -7l-3 -12v-21l3 -9l-3 -7l3 -14h-3l3 -3l-3 -7l5 -120v-239l-2 -2l2 -2v-3l-2 -7l2 -7l-2 -40l2 -14l-2 -36v-411q0 -18 28 -18l31 2l9 -2v2l3 -2h2l7 2l12 -2h56q32 0 43 -7l-7 -211l2 -7l-2 -11 l2 -3l-2 -12l7 -70v-26q0 -4 -9 -8h-5v3l-17 -3h-16l-7 3l-12 -3h-146l-312 5l-7 43l2 11l-2 8l2 23v43l-2 7l2 12v113l3 2l-3 3v26l3 14l-3 12v2l3 2l-3 3v14l3 9l-3 10l3 11l-3 26v19l3 10l-3 16v81l-2 26l2 11l-2 7h2l-2 3v101l-3 10l3 2v2l-3 3v2l3 3l-3 16v182l3 52 q-7 0 -7 5v110l2 121l-2 2v3q4 56 9 56q-5 12 -5 55v141l3 14q-5 12 -5 43v90l-2 9l2 7l-2 2v3l2 2l-2 12v7l2 50l-2 7l2 9h-2l2 3l-5 214l3 3v2l-3 21v29l3 2l-3 2v74l-2 2l2 2l-2 17v56zM415 1593q-12 -21 -26 -90v-2h2q17 85 26 85v-7h2v9zM348 1376v-31h3v31h-3z" />
<glyph unicode="\" horiz-adv-x="502" d="M301 1541l41 -2v2q9 -3 9 -7t-7 -4v-3h7v-11l-2 -9l2 -16v-254l-2 -26l2 -29v-268l-2 -21l2 -2v-3l-2 -2l2 -27v-117l-2 -3l2 -6l-4 -53l4 -12q-4 -8 -4 -25v-11l2 -2l-2 -3v-2l2 -2l-5 -30l3 -2v-3l-3 -32v-9l-2 -9l2 -9v-7l-2 -2v-3h2l-2 -2v-37h2l3 12h4v-25h-2 q-5 0 -5 9h-2v-23l2 -9l-2 -3v-2l2 -11l-2 -16l2 -12l-2 -7l2 -2l-2 -16v-39l11 5v-181l3 -46l-3 -46v-92l3 -38h-3l3 -3v-23h-5l2 -2v-2l-2 -3l7 -48l-2 -29v-3l-5 -4h-30l-2 2l-2 -2h-298q0 7 -11 7v4l2 2l-2 3v20l2 3l-2 2v32l-3 9l5 23l-2 2v74l2 9l-2 9v21l2 2l-2 2v2 l2 14l-2 32v23l2 9l-2 10v6l6 14l-2 14l2 9q-3 0 -6 257l6 71h-2l2 2v9q0 5 -6 5l-3 43l3 62l-3 9l3 21v46h9q-14 91 -14 405v30q1 16 5 16q-5 37 -5 98l5 30l-5 16l7 7q-7 0 -7 5v75q0 40 5 62l-5 5v82h14v5h11l133 2l50 -2v-3l3 3l11 -3h2v5h26z" />
<glyph unicode="]" horiz-adv-x="672" d="M544 1767v-56l-2 -17l2 -2l-2 -2v-74l-3 -2l3 -2v-29l-3 -21v-2l3 -3l-5 -214l2 -3h-2l2 -9l-2 -7l2 -50v-7l-2 -12l2 -2v-3l-2 -2l2 -7l-2 -9v-90q0 -31 -5 -43l3 -14v-141q0 -43 -5 -55q5 0 9 -56v-3l-2 -2l2 -121v-110q0 -5 -7 -5l3 -52v-182l-3 -16l3 -3v-2l-3 -3v-2 l3 -2l-3 -10v-101l-2 -3h2l-2 -7l2 -11l-2 -26v-81l-3 -16l3 -10v-19l-3 -26l3 -11l-3 -10l3 -9v-14l-3 -3l3 -2v-2l-3 -12l3 -14v-26l-3 -3l3 -2v-113l2 -12l-2 -7v-43l2 -23l-2 -8l2 -11l-7 -43l-312 -5h-146l-12 3l-7 -3h-16l-17 3v-3h-5q-9 4 -9 8v26l7 70l-2 12l2 3 l-2 11l2 7l-7 211q11 7 42 7h57l12 2l7 -2h2l3 2v-2l9 2l31 -2q28 0 28 18v411l-2 36l2 14l-2 40l2 7l-2 7v3l2 2l-2 2v239l5 120l-3 7l3 3h-3l3 14l-3 7l3 9v21l-3 12l3 7v5l-3 2l3 3v12l-3 2h3l-3 9l3 10l-3 9l-4 170v3l2 2l-2 2v81h-3v-29h-5l-4 33l2 3v2l-2 2h2l-5 81 l3 7l-3 7l3 7l-7 7v7l11 2l5 -4q5 1 10 12q0 4 -15 4q-16 0 -16 14q-5 0 -5 -14h-7v10h-2v-10h-135v191l-2 71l2 3h-2l-3 70v12l95 3h16l29 -3l2 3l10 -3h259l24 3v-3h5l2 3v-3l7 3h2l3 -3l26 3h45zM117 1588v-9h2v7q9 0 26 -85h2v2q-14 69 -26 90zM185 1376v-31h3v31h-3z " />
<glyph unicode="^" horiz-adv-x="862" d="M250 1816q0 -3 11 -7l60 2l10 -2l11 2q2 -8 15 -8h21l58 8l31 -5l21 3l36 -3h5l3 -3l3 3h15l11 -3l2 3l27 -3h36l5 -5l13 3h16l13 -3v5q24 0 24 -7q0 -6 7 -6v-73l-2 -15l2 -3l-2 -13v-31l2 -3l-2 -3v-112l-3 -52h-136l-2 3l-3 -3h-52l-3 3l-2 -3l-19 3h-39l-2 2l-3 -2 h-29l-44 -3v3l-3 -3h-2l-73 3v2l-3 -2h-55l-39 2v-2l-2 2h-66l-47 3l-23 -3l-24 3l-18 -3l-10 8l2 8l-5 47l3 2v3l-3 11l3 7l-3 3l3 39l2 193l3 3l18 -3l13 3v-8l125 8l45 -3z" />
<glyph unicode="_" horiz-adv-x="914" d="M183 2q0 -7 20 -10l60 2h3l11 -2l10 2h3q8 -6 23 -8l180 8l34 -2h13l21 2l42 -5l15 3h32l2 -3l3 3h5l11 -3l2 3l32 -3h23l11 -3l10 3h16l26 -3l15 3l21 -8v5l32 -2h10l3 -3h2v5h11l-3 -2v-3h5v5q12 0 19 -13l2 -2h3l-3 -32v-57l-2 -3l2 -2v-11l-2 -15l2 -13l-2 -3l2 -3 l-2 -70v-91l-3 -19l-37 3l-67 -3h-6l-2 3l-3 -3h-10l-11 3l-2 -3l-40 3h-143l-13 2l-16 -2h-321l-8 5l-5 -5l-157 2l-7 3l-3 -3h-3l-49 3h-18l-3 3l-3 -3h-83l-5 5l2 11l-5 70h3l-3 3l3 52v10l2 183l5 5l11 -5l26 3v-8l18 3h5l71 2v3l3 -3l44 3h42l23 -3q12 5 45 8z" />
<glyph unicode="`" horiz-adv-x="1024" d="M335 1832l-2 -33v-46l2 -12l-2 -7v-20l-3 -24l3 -2l-5 -36h-5v36h-2l-3 -144q0 -7 -7 -7v-3l5 -7v-5l-7 3q-68 56 -68 67q-22 9 -29 26q-14 0 -24 24l-7 -2q-6 0 -29 26v5h8q-23 27 -29 27q-26 36 -34 36l-96 101v4h312q7 0 10 -16l5 4v8h-5v9l5 5h2z" />
<glyph unicode="a" horiz-adv-x="1237" d="M465 1439l25 -2h26l72 -2v-2l2 2l35 -2h64l-2 -10l158 6l9 -2l10 2l23 -2l49 4q49 0 74 -23q39 -21 64 -84q6 -35 8 -93l-2 -2l2 -10v-158l-2 -29l2 -37v-302q0 -71 4 -99l-2 -2l2 -14v-91l-4 -16v-247l2 -21l-2 -18v-87l2 -76l-8 -141l2 -3l-2 -14v-51l-2 -19l2 -2v-2 l-2 -33v-29l2 -8l-2 -8v-33h-7q-95 85 -236 222l2 2v2q-19 7 -99 84v7l7 2q-7 7 -7 14v97l2 8l-2 8v29l2 2l-2 2v105l2 2l-2 2v99l2 8l-2 8v6l5 29l-5 4v19l-2 33l4 14l-4 12v7h9q-7 7 -7 14q7 0 7 4l-2 6h32l5 4v2h-46l2 2v3l-4 4h-4l-6 -4h-4v4h-2l-11 -4l-12 2l-92 -5 l-2 3l-21 -3h-51l-19 -2l-6 2v-2l-2 2h-17l-18 3l-21 -3h-35v13q-4 0 -4 -13h-18l-21 3l-2 -7l2 -12q-18 -1 -18 -6v-2l16 -2l-8 -140l6 -95h-2q8 -32 8 -111v-156l-8 -8h-10l-15 4l-207 -2l-2 -2h-2l-2 2h-3l-16 -4l-53 2h-33q-12 7 -15 76l2 8l-4 37l2 2l-2 15v104l-2 21 h2l-2 2v181l6 97l-6 16v107l-2 49l2 2v2l-2 9l2 14l-2 17l-2 92l2 2v2l-2 13l2 39q-1 30 -4 30l2 2v29l-2 11h2l-2 2l2 10v55l-2 11l2 12v56l-2 8l2 8v33l2 37l-2 45v121l2 13l-2 2v2l2 6l-2 19v6l56 -4l6 2v4l-11 2v6h393zM699 1079l-78 4l-189 -4l-12 2l-6 -2l-9 4l-10 -2 h-29l-2 9q-7 -7 -12 -7v-154l-6 -8v-2q6 0 6 -4l-2 -19l2 -2l10 2h29q0 -8 4 -8t4 8l35 2l68 -2l16 2l3 -2h2l8 2v-2l2 2h2l2 -2h2l2 2h2l13 -2l14 2l6 -2l8 2l9 -2l47 4l16 -2h17v4h2l6 -4h35l2 -10h2l2 10h17v4q-9 0 -9 9l9 8l-17 2l2 6l-4 37v49l14 17v2h-2l-10 -8h-2v33 l10 -2h9l4 4l-15 2h-8v8l6 10l-10 8l-2 -6h-6l-2 11h-2q-5 0 -5 -13z" />
<glyph unicode="b" horiz-adv-x="1237" d="M29 1440h59q64 0 93 -4l14 2l70 -6l4 4h83l10 -2l12 2h48l2 -2l2 2h2l12 -2l2 2h2l9 -2l6 2l8 -2h4v2l10 -2h7l12 2l20 -2h95l19 2l2 -2l41 2h113l33 -2l2 2h2l12 -2l31 2q134 0 187 -87q27 -83 27 -102l-2 -15l2 -22l-2 -13l2 -12l-2 -68v-25q-8 -10 -8 -22v-4l6 4h2 v-68h-4v12h-4l4 -97q-12 -117 -25 -117q-24 -41 -64 -59q-20 -9 -30 -9l-11 2q0 -12 -26 -12h-13l-12 -10q0 -13 16 -15h31q29 0 56 -18q13 -3 39 -43q39 -40 39 -79l-2 -14l2 -35v-156l-2 -56l2 -41l-2 -62l2 -26q0 -72 -68 -134q-41 -24 -74 -31l-41 -2h-253l-13 2l-2 -2 l-24 2h-11l-343 6l-12 -4q-41 0 -128 12v-4l12 -4v-4h-12l-25 2l-14 -2l-47 2l-2 -2h-2l-7 2l-6 -2l-6 23l4 29v372q6 7 6 14v2l-4 83v14l2 8l-2 2v2l2 58l-2 33l2 35v6q2 12 6 12l-2 9l-6 226v18l2 17l-2 16v72l2 2l-2 2v2l2 13l-4 41v41l2 21l-2 18v13l2 8l-2 2l2 8l-2 17 l2 26l-2 8l2 3l-2 20v19l-2 39l2 43v37zM664 1086v2l-2 -2h-2l-121 -6l-45 2h-29l-19 2l-6 -2v2l-2 -2h-31l-2 2l-2 -2h-24v6q-8 -6 -19 -6v-130q0 -6 -8 -6v-4l8 -2l-4 -25h-8v5h-7v-5l5 -4h12v-12l4 -4h2l2 2h2v-4h13l6 -2l10 2h128l2 -2l2 2h90l54 2l2 -2h2l8 2 q7 0 19 -10h4q0 8 12 8q11 0 12 6v2h-4v-4h-4l-2 2h-2l2 10v41q0 11 8 23l-8 19l2 32l-2 37q0 7 8 7l-4 6v2l10 2v2l-2 2v2l-45 -4l-2 10zM1074 1061v-30h2v30h-2zM368 551q0 -10 -4 -10h-4v6l-4 -4v-39h-6q-13 -1 -13 -6l19 -4v-39l-2 -11l2 -12v-47q0 -13 -19 -13l-4 -4 q21 0 21 -10t4 -10l8 2l10 -4v4h68l7 -4l4 4h82l10 -2l13 2h41l8 -2l2 2h2l10 -2l50 2h41v-13l4 -4l10 29v2h-2l-6 -4h-2v154l4 4h6q0 -12 4 -12v2l-4 25l2 2q-12 0 -12 12q-11 -14 -33 -14v4l-14 -4l-39 4q-29 -4 -93 -4h-72l-54 8l-24 -4h-8z" />
<glyph unicode="c" horiz-adv-x="1243" d="M771 1442v-4q0 -4 -8 -4v-2h2l16 2l17 -4l2 2l14 -2h114q8 0 72 -27q43 0 83 -93q6 -26 6 -50l-4 -6l4 -12v-21l-2 -2l2 -2v-2l-8 -182l2 -6l-2 -6q4 -33 4 -91v-27l-4 -8l-83 -2h-144l-2 2l-2 -2l-73 2h-18q-19 0 -35 10q-11 0 -11 5v12l2 2l-2 2l6 81l-2 16v8l11 2v5 q-11 1 -11 6v8q0 4 9 4v2l-4 6v4h4v7l-4 4h-17l-19 4l-12 -4v2l-2 -2h-4l-25 6v-2q0 -6 -8 -6l-2 2h-2l-2 -2h-2l-9 2l-12 -2l-2 2h-2l-2 -2h-2l-19 2h-2q0 6 -4 6h-2l4 -6v-2h-10v6h-13q-4 0 -4 -6h-6v6l-87 -2h-84l-4 4v6h6v2h-6l-19 -2v-2l8 -10v-4q0 -25 -4 -25l2 -2 v-101l-2 -2l2 -2l-2 -42v-62l-2 -90l2 -7l-2 -10l2 -12l-2 -23v-45l-2 -23l2 -2l-2 -25v-56l2 -18l-4 -11l2 -2l-2 -35v-128l2 -2v-2q11 2 16 8h13l2 -20h2q0 20 8 20l126 -2l2 -2h2l2 2l62 -2h106q3 0 6 -10l2 2h2l6 -2v2l2 8q9 0 19 -8l4 12v2q-13 0 -13 15v16h15l10 2v2 l-10 3h-10l-5 4v80q0 54 15 54l37 -2l306 -4l2 -2l-2 -73v-115l-3 -29l3 -27v-83q0 -109 -44 -148q-49 -56 -117 -56h-13l-2 2l-2 -2h-10l-27 -2l-29 4h-198l-54 2l-2 -2h-2l-19 2h-35l-8 -2q-11 4 -64 4h-171q-11 0 -11 4l-2 -2h-45l-10 2l-13 -2h-47q-27 0 -58 19 q-8 9 -31 16q-50 47 -50 73q-14 23 -14 53l4 7l-2 18l2 48l-2 6l2 18v48l2 23l-2 2l2 35v74l2 41l6 2l-4 58l2 2v2l-4 19l2 6l-4 64l2 81l-2 35l2 2l-2 24v351l2 13l-2 2v2l2 37l-2 66l4 6l-2 11v4q8 59 29 91q31 47 72 47h2v6h-4v4q24 15 64 15h33l13 -2l2 2h2l91 -10v4h-4 v6h165l12 -2l2 2h2l101 -2h58l27 2l47 -4l13 2h25v2l-9 2v4zM443 1099l-2 -2v-2h10v2zM402 1093h2l20 2v2h-18zM501 1097v-2l10 -2h6l-4 4h-12zM536 1095v-2h14v2h-14zM561 1093v-2h12v2h-12zM606 1091v-2l12 -2q0 4 -6 4h-6zM625 1089l4 -4h6v2z" />
<glyph unicode="d" horiz-adv-x="1240" d="M199 1432l9 -2l2 2l10 -2h4l6 3l11 -2l181 -1l8 2l8 -2v3l2 -2h48l8 2l8 -2l2 3l35 -4l9 4l2 -2l53 1l6 2l11 -2l274 4v-10h2q4 0 4 8h10q86 2 148 -81q21 -41 21 -80l-2 -2l3 -35v-8q1 -66 -4 -126l2 -23l1 -212l-2 -19l2 -2l-1 -43l4 -544l1 -61q1 -90 -25 -122 q-28 -50 -61 -51q-85 -30 -128 -30l-121 -2l-19 2l-10 -3v5l45 6v2h-2l-146 -12l-231 -1l-22 1l-7 -2v2l-2 -2l-14 2l-60 -1l-80 3l-27 -4l-16 2h-5v-3l-14 2h-47l-77 1l-2 -3l-4 25q3 0 8 15l-2 2l-1 29l2 8l-2 2v2l2 23l-6 102l6 213h4v6l-5 6l6 11l-2 10l4 8l-2 2l3 97 l-2 6l2 12l-1 15l-2 12l6 27l-2 12h-4q-6 -50 -12 -72h-2v33l2 2l-2 2l-1 21q-1 73 9 121q-7 11 -7 50v2l6 2l-4 8l2 2v2l-3 56l5 66h-4q0 -6 -4 -6h-2v2l-3 55h2l-2 2q0 128 6 272v35l-9 45q1 66 7 85l54 1l28 4l103 4zM690 1112l-7 -31l-309 -5l-7 4q-10 -3 -10 -6v-19h-4 v-6h4l3 -8l-2 -35l4 -266l-2 -2l2 -2l1 -68l-2 -29l3 -6l-2 -8l2 -2l-2 -8l-1 -106l3 -26l-2 -23l2 -6l-2 -8v-9l2 -8l-2 -6h3l-3 -2l1 -37l-4 -15h4v-4h-4v-2l-14 2v2l2 2v2l-11 2l-14 -2q0 -5 41 -12l-4 -12l48 -8l6 4l45 -1l110 2l2 -3l2 3l55 -2l68 1l1 -33h4v23l1 10 l9 1q4 0 4 -11l6 -2q0 13 19 13l-3 2v2l2 6l-6 2v33l-3 17l2 16v19l-2 24l1 25l-2 29l8 14h-2l-2 -2h-2l2 6l-3 29l1 105l-3 21l2 2v2l-2 2l2 41l-2 112l2 2l-2 2v10l2 2l-2 2l1 25l-3 109v14l2 2l-2 2l-1 9q0 4 9 4v2q0 4 -7 4v17q6 0 6 4l-6 2v4l2 2l-2 2v12l-15 -2h-16 l-1 31h-4z" />
<glyph unicode="e" horiz-adv-x="1213" d="M4 1434h140l8 -2l6 2l15 -2l18 2v-2l3 2l31 -2h43l9 -2l8 2l2 -2l2 2h7l8 -2l14 2h127l2 -2l3 2h2l231 2h16l29 -2l21 2l9 -2l8 2l12 -2l21 2h2l9 -2l2 2h6v-2l25 2h25v-4l27 2l6 -2l19 4l42 -2h112v-38q-13 -44 -13 -122v-190l-20 -2h-63l-87 -2v2l-2 -2h-2q-21 1 -21 4 l-6 -4l-11 2l-14 -2q-15 2 -15 4l-17 -4l-8 4l-2 -2h-50l-2 2l-2 -2h-25l-2 2l-2 -2h-36l-12 2l-11 -2h-12l-2 2l-2 -2h-38l-2 2l-2 -2h-8l-2 2l-2 -2h-17l-2 2l-2 -2h-21l-2 2l-2 -2h-2l-50 4l-38 -2h-77q0 9 -4 9t-4 -7l-2 -2h-35l-9 -8l31 2h7l2 -15l-6 -2v-4h4v-4 q0 -4 -9 -4v-2q9 0 9 -6l-2 -7l2 -2h2l-2 -87v-44l4 -10h2l6 4h2q15 -1 15 -4q30 4 81 4l2 -2l2 2l354 -2h69l4 -4v-65l-8 -54l2 -23l-2 -33q4 -40 4 -100l-2 -75h-5v-2l-70 4h-27l-17 2l-23 -2h-158l-17 -2l-16 2h-54l-19 2l-6 -2l-3 2l-12 -2l-25 2l-19 -2l-16 6v-4h-2 l-9 2l-14 -4q-7 4 -7 25q-20 -31 -20 -62l2 -2q-13 -2 -13 -7h13v-8l-2 -13l4 -8l-2 -33q0 -5 -15 -6v-3l15 -12v-27l-15 -2v-4h15v-17q0 -5 16 -8h2l-2 2v6h167v-6l6 6l29 -2l2 2h2l9 -2l16 2l13 -2l6 2l15 -2l2 2h2l2 -2h2l10 2l46 -2h202l13 2l10 -2h46l33 -2l2 2h2 l23 -2h19q14 0 14 4q13 -4 13 -8v-27l-2 -29l2 -9h-2l2 -2v-2l-2 -19l2 -8l-2 -2l2 -6l-2 -46l2 -54l-2 -11l2 -10h-2l2 -6l-2 -2l2 -7l-2 -47l2 -30l-2 -2v-2l2 -6l-2 -25h-50l-13 2l-2 -2l-25 2h-62l-61 6l-122 -2l-9 -2l-10 4q-9 -4 -27 -4h-52l-11 2l-12 -2h-127l-23 -2 l-8 2l-2 -2l-11 2l-12 -2h-4v2l-25 -2h-23l-25 2l-25 -2h-21l-21 2l-10 -2l-67 2l-12 -2l-17 2l-12 -2l-19 2h-13l-50 -2l-10 4l2 11h-6q0 -15 -31 -15l-40 2v4l-2 25l4 32l-2 2l2 10v35l2 30l-2 8l2 2l-2 6l2 61v18q2 14 6 15q-6 23 -6 102v553q6 52 9 150l-3 11l3 6l-3 8 h3q-9 20 -9 34v12h4v-4h2v8q0 11 -6 11v8l2 2l-2 2v8l6 3l-4 12l2 19l-4 81l4 56v4h-2l-2 -14h-4v68zM8 1349v-4h2q7 68 15 68q7 0 21 -62v-2h2v4q-13 66 -21 66h-2q-9 0 -17 -70zM50 1336v-8h2v8h-2zM52 1326v-6l2 -9h2v2l-2 13h-2z" />
<glyph unicode="f" horiz-adv-x="1240" d="M843 1440l15 -2h33l57 -2v2l21 -4l12 4l9 -4v2l2 -2h6l2 2l2 -2h19l19 2l2 -2h2l10 2l3 -2h2l2 2l10 -2h25q4 0 7 -13l-5 -121l3 -214l8 -2v-8h-2l-2 2q0 -4 -74 -7l-92 5l-46 -3l-58 3l-51 -3l-2 -2l-6 2l-109 3l-27 -3l-40 3h-117l-30 2l-23 -5l-2 3h-2l-12 -3 q-9 3 -9 13h-2q-2 -13 -10 -13l-26 3l5 -15l-15 -6v-2q15 0 15 -5l-5 -10l5 -50l-2 -19h2l-2 -2v-61q0 -4 -7 -4v-4q9 0 9 -5q0 -6 -9 -16h21l6 2l11 -2h98q15 0 23 4l19 -2l9 2l12 -2h13l19 2l8 -2l11 2l10 -2l10 2l9 -2l27 2l36 -2l8 2l21 -2l13 2l6 -2l12 2l26 -2l12 2 v-2l2 2l15 -2h2l17 2l23 -2h10l36 2l4 -53v-31l-2 -2l2 -2v-164q0 -41 4 -54l-4 -31l2 -19h-2l-90 6h-4v-2l40 -4v-5h-5v-2l-10 2h-55l-29 3l-2 -3h-2l-23 3h-29v2l4 6q-53 -4 -74 -13h-100l-40 2l-2 -2h-2l-13 2l-27 -2l-2 2h-2l-29 -6l-15 2l-11 -2l-14 9h-4l-5 -5v-29 q0 -15 -4 -15l4 -8q-3 -27 -6 -27l2 -46v-128l-2 -19l2 -6l-2 -2v-7h2l-2 -25v-50l2 -33l-2 -28l-6 -471q-7 0 -76 71l-117 115q-73 71 -125 130v2h4l2 -2q9 4 -37 59l1 23h-2v94l-2 59l2 59v81h2l4 -29h2v6l-8 113q1 59 8 59v21q0 26 9 82h-9v25h-8l2 10l-2 23l2 53 q6 0 6 4v17l-2 12l2 8q-6 0 -8 44l2 32l-2 94v17l2 12l-2 9l2 21l-2 2l2 2h2l2 -8h5q6 25 6 46v56l-2 44l2 2l-2 15v10l-2 42l2 9l-2 21l2 19l-2 14h-9l4 57l-4 14l7 5l16 -13v2l-23 19v117q2 7 13 7h4v-3l15 3h42l16 -5l5 5h6l12 -3l2 3h7v-3l25 3h19l12 -3l9 3l6 -3l13 3 h2l2 -3l2 3h58l3 -3l2 3h69l56 4h164l48 2l42 -2h61l14 2v-2l2 2h2l11 -2l35 4l9 -2zM711 531l4 -4l2 2v2h-6zM730 531v-2h82v2h-82zM275 -234l2 -6h2v6h-4z" />
<glyph unicode="g" horiz-adv-x="1216" d="M160 1437h8l4 -4l2 2h3l49 -2l41 2l6 -2v-4l-35 -4v-2h4q41 4 60 10h49l2 -2l2 2h90l81 2l22 -2l25 2l33 -2l26 2l6 -2l19 2l29 -2l16 2l12 -2l19 2v-2l2 2h2l6 -2h4v2l136 -4q5 0 14 -8q3 8 6 8h11q40 0 71 -31v4q18 0 52 -49q8 0 22 -80h-2l8 -58l-2 -12l2 -8l-2 -33 v-49l2 -19l-2 -2v-6h2l-2 -25v-74l-2 -8l2 -8v-23l-2 -8l2 -6q-1 -35 -6 -35h-20l-39 2l-33 -2q-126 2 -173 8l-2 -2h-2l-26 2v-4h-9v4l-6 5l-10 -3h-2q-14 0 -14 15v113q0 12 8 12v2q0 4 -8 4v10l18 5v2h-2l-12 -2h-2l2 8l-4 10h-2l-7 -6h-4v2l-14 -2h-68l-2 2l-2 -2h-16 l-66 2v6h-4q0 -6 -4 -6h-128l-4 4v12l2 9l-2 8q-6 0 -6 -27v-6h-20l-15 4q-6 -10 -12 -10l2 -10v-17l2 -20h-2l2 -2v-3l-2 -6l2 -6l-2 -16l2 -41q-12 -100 -12 -234l-2 -15l6 4h2v-20h-4l-2 -31v-10l2 -82l2 2h4v-15h-6q6 -62 6 -108v-56l-2 -8l2 -8v-2l-2 -19l2 -6l10 2 l6 -4l2 2h48q0 -8 4 -8l2 8l277 -4l2 -2h2l19 4v2h-5v4q6 10 17 10h10v5q-12 1 -12 4l-2 -2h-8q-9 3 -9 14v14l11 64h-11v41q11 0 11 4v4l-11 2v8q0 5 6 5v2l-2 2l2 2v2l-8 8q-6 0 -16 -8h-4v2l-2 -2h-2q-37 1 -37 4v4h-2v-6h-17q-5 0 -6 8l-2 2h-2l4 -10h-86l-6 6l2 14v35 l2 8l-4 21l2 6l-2 23v31l4 6v2l-4 6v8q0 5 22 10l10 -2h17l10 2l88 -10v4h-6v4h374q18 0 18 -18l-2 -64v-63l-2 -60l2 -2l-2 -21v-283l-2 -55q-4 0 -8 -13l8 -2q-29 -76 -45 -82h-2v2l21 82l-3 2h-2l-28 -98q-45 -37 -91 -37h-12q0 9 -8 14q-6 0 -6 -14h-87l-8 2l-2 -2h-2 l-341 4l-6 2l-10 -2h-6l-2 2l-2 -2l-128 2h-104l-4 -4h-5v2l-20 -2h-2q-21 0 -66 21q-32 20 -47 43q9 3 14 12v2q-10 -10 -18 -10h-2q-19 32 -19 41l2 12q-3 37 -10 37q-5 0 -6 14h6v3l-6 8v295l2 39l-2 2l2 9l2 152v73l2 23l-2 2l2 10v74q0 74 6 74l-2 2v2l2 29h-6l2 21v22 l10 123h-4l-4 -41v-4h-6v123h6q-3 27 -6 27l2 8l-2 19q0 62 66 125q56 43 90 43zM189 1423v-2l16 -2l29 4v2h-6zM138 1419h39v2l-25 2h-10zM86 1377v-8h4v4zM679 706v-2l7 -2l2 2h2l2 -2h4v2l-10 2h-7z" />
<glyph unicode="h" horiz-adv-x="1222" d="M27 1440l10 -2h36l8 2l12 -4l11 4l14 -2l77 -2l16 2l36 -2h43l11 -2v2l2 -2h47l4 -4q0 -138 -8 -379v-108l-16 -2v-2q0 -6 16 -9v-8q0 -17 4 -27l17 4q19 -8 60 -8h27l10 2v2h-10l4 4h19v-4h-9v-2l13 -2l2 2h2l164 2l18 2l4 -12q4 0 4 8l3 2h35l14 -2l2 2v2q-10 0 -10 7 v18l10 2v2l-10 4l2 36v161l2 29l-2 11l2 2l-2 6l2 54v2l2 8l-2 8l2 7l-2 2l2 31v35l2 89l-2 14q0 11 29 11h284l2 -2l2 2h6q16 0 17 -6l-2 -11l2 -8h2v23h6l2 -58l-2 -17l4 -45l-2 -13l2 -31l-2 -141q0 -6 -6 -6v-2l2 -19l-2 -2l2 -10v-23l2 -6v-4h-2l-2 -124v-61l2 -53 l-2 -7q4 -5 6 -49l2 -7l-2 -33l2 -8l-2 -14l-2 -249v-162l-2 -22l2 -17v-39l-2 -23l2 -6l-2 -2l2 -21v-458l-2 -35h-2q-26 15 -89 81q-16 10 -203 197q-60 51 -60 80v23l-2 17l2 16v21l2 2l-2 6l4 58l-4 48h2l-2 6l4 27l-2 50v70l10 108q-5 0 -6 -15h-4v7q0 24 4 24 q25 1 25 7h-25v6l31 -2v-6h2q11 0 13 6v2l-44 4v2l6 31v2l-10 -2h-2q0 11 -6 13l-2 -15h-15l-8 2l-15 -2h-279l-2 8h-4q0 -8 -13 -8q-8 0 -8 10h-2q0 -6 -4 -6q-5 0 -5 6h-6v-6l-6 -23l2 -33l-12 -4q0 -3 12 -8v-29l2 2h4v-6h-6q2 -61 6 -77l-2 -2l2 -10v-25l-2 -79l2 -29 l-2 -2v-2l2 -8l-2 -19l2 -33v-60l-2 -8l2 -9v-4h-2l2 -10v-9l-2 -41q-73 -10 -120 -10l-85 2l-2 -2h-2l-10 2l-131 4l-2 2v4l-2 56l2 12l-2 9l2 72v199q0 31 13 153q-6 0 -11 -43h-4v56l-2 2l2 2v14l-2 2l2 3l-2 51v4l2 23l-2 2v2l2 9h-2l2 2v20l-2 9l2 2l-2 21l2 33l-2 20 h2l-2 2l2 15l4 77l-4 10l12 296l-2 17l13 114h-4l-9 -58h-4q11 122 19 122h2v-10l-2 -3v-2h2l12 81h-2q-6 0 -12 -37q-4 0 -10 -25h-5q6 87 21 87zM1063 1388v-12l2 -15h2v6l-2 13l2 12zM1065 1355l-2 -10h4v10h-2zM21 1322l-4 -25v-6h2l4 27v4h-2zM1065 1299v-2l4 -4v2z M802 481l6 -4v8h-2z" />
<glyph unicode="i" horiz-adv-x="502" d="M58 1443l38 -4l2 2l15 -2l85 -2l2 2h2l13 -2h19l8 -2l8 4l13 -4v2l2 -2h56l2 2l2 -2h38q0 -86 -10 -176l2 -8l-4 -12h4v4l2 -2h2l-2 -46v-21l-2 -2l2 -2v-19q0 -15 -6 -15l4 -148v-19l4 -16l-6 -215l2 -2v-2l-2 -23v-9l2 -10l-2 -13v-39l-2 -13q4 -9 4 -27v-46l2 -67 l-2 -73v-81q0 -42 -4 -42l4 -12v-105l2 -39l-2 -2l2 -21v-136l-2 -23q4 -16 4 -44l-2 -29l2 -2v-2q-3 -8 -6 -8q3 0 6 -52h-2l2 -3v-35l-2 -10l2 -13v-13l-2 -20l2 -21l-2 -2v-2l2 -9v-8l-2 -13l2 -8l-4 -25q-11 0 -117 115q-144 145 -144 154l-33 44v-2l12 -17v-4h-2 q-63 57 -63 73l-4 8v15h2l11 -8v2q-13 12 -13 23v27l-2 33l2 6l-2 9l2 64v17l-2 57l2 60v38l-2 45h2l-2 3l2 14l-2 21l2 10l-2 34v37l-2 48l2 17l-2 6h2l-2 7l13 71l-9 200h2l-2 2v27l2 6l-2 11v217l2 50l-2 8l9 77v5h-3l3 20v51l2 14h4q0 -6 4 -6q-7 25 -10 25l2 10v48 l-2 15h6q4 0 4 -6h4v2l-2 2v2h17zM351 1176v-8h2v8h-2zM33 -11v-4l2 -3h3l-3 7h-2z" />
<glyph unicode="j" horiz-adv-x="690" d="M419 1443h2q13 -8 31 -8l4 6l13 -4h12l27 2l22 -2l-2 -6q4 -36 4 -111l-4 -80v-21l6 -251v-88q-10 -8 -10 -17v-2l10 2v-6q-6 0 -10 -8v-6l2 2h8l-2 -327l5 -349q0 -104 -105 -157q-24 -8 -50 -8l-28 2q-15 -1 -15 -4l-10 2h-6l-8 -2l-3 2l-10 -2h-94l-60 -2l-2 2l-10 -2 h-6l-68 2l-6 -2l-19 2h-29q-6 0 -6 14h-2l2 11v29l2 2l-2 2v2l-2 94h2l-2 2l2 15l-2 24h2l-2 2v7l2 2l-2 6q0 140 10 140l35 -2l6 2l23 -5l33 3h23l12 -3l8 3l4 -11l15 15l8 -4v4h2l-2 28l2 206v62l-2 320l-2 9l4 20l-4 31v306l2 50l-2 2v2l2 2l-2 10v25q0 3 14 8l10 -2h2 l44 -2l12 4l14 -2l2 2h2l3 -2l14 2h10l8 -2l9 2h10l8 -2l6 2l19 -2l12 2l6 -2l19 2h20v6zM481 1396h2l4 4v2z" />
<glyph unicode="k" d="M18 1450h43l13 -2l6 2l6 -2l2 2h3l2 -2h6v2l25 -2h66l63 -2l8 2l41 -2h59v-27l-2 -37l2 -15l-2 -91v-38l-3 -2l3 -2l-3 -139v-127q0 -11 -8 -14l-21 2q-8 -3 -8 -6l21 -3h10l4 -4q-12 -2 -12 -6l12 -2v-17q-15 0 -16 -6v-2q20 -8 35 -8h38l12 -2l25 4l2 -2l10 2h7l10 -2 l12 2h15l2 -2l2 2h4l11 -2l14 2l2 -2h2l3 2l24 -2h3l33 2l39 -2h63q6 -2 6 -13q7 13 21 13v2l-9 10v19l2 2l-2 2l2 73v23l-2 2l2 2v43q9 0 9 5l-2 10l2 6l-7 88h3l-3 2l3 66v110l2 60l-2 13l2 2h14l2 -2l2 2h2l9 -2l14 2l17 -2l2 2l6 -2l52 2l13 -2l20 2h11l12 -2l13 2l2 -2 l10 2h25l52 -2l44 2q29 0 29 -8l2 -11v-4l-2 -2l2 -2l-2 -35v-7l-2 -328l-2 -25l4 -4v-2l-4 -39v-11l-2 -2l2 -2v-40q-14 -102 -29 -120q-42 -42 -57 -46q-16 -21 -45 -21l-19 5v-5l2 -2v-2l-23 -4l-8 2l-2 -2v-2l4 -6l10 2q88 0 150 -100q15 -36 15 -60l-3 -17l3 -35 l-3 -185h-2l2 -2l-4 -123l-2 -2l2 -8l-2 -141l-2 -2v-3l2 -8l-2 -6l2 -8l-2 -11l2 -14l-2 -7v-4h2l-2 -45v-5q0 -165 -6 -278h-2q-22 11 -293 285q-50 50 -50 54l2 16l-2 11l2 29l-2 14l4 13l-4 35h2l-2 2v2l2 9l-2 22v3l2 43l-2 9h2l-2 2v16l2 19l-2 8l2 6l-2 13l2 2l-2 2 v4l2 2l-2 2l2 32v60l2 25h-2l2 2l-2 14l4 96h-2l2 2l-2 21v2q0 6 11 6l-13 15q-5 0 -6 -9h-135l-21 2l-10 -2l-144 2h-10q0 7 -4 7q-8 -7 -15 -7h-6v9q-15 0 -15 -25q-8 -11 -16 -11v-2q16 -2 16 -6v-14q-12 0 -12 -5q12 0 12 -14l2 -13l-2 -31l2 -21l-2 -2v-6h2l-2 -66 v-333l-6 -6h-33l-23 2l-2 -2l-21 2h-56l-12 2l-3 -2l-35 2h-160l-2 2h-2l4 21l-2 8l2 106v31l2 23l-2 17l2 2l-2 6l2 2v4h-2l2 32v182l2 19l-2 2l2 11v104l-2 58l2 18l-2 2v3l6 20q-4 28 -4 90v70l2 9l-2 2l2 25v56l2 8l-2 2l2 73v123l3 105l-3 7l3 16v4l-3 30l3 2l-3 25 v118z" />
<glyph unicode="l" horiz-adv-x="1304" d="M46 1440h333l2 -33v-85l-2 -2l2 -2v-2l5 -593v-120l-3 -8l3 -9l-3 -9l3 -8l-3 -3l3 -2l-3 -76v-57l-2 -8l2 -9v-7l-2 -26l2 -2l31 4h4l5 -15q3 0 8 15h33l13 -2l13 5l7 -3l6 3l2 -3l13 3l14 -3l6 3l31 -3l24 3l13 -3h4v3l9 -3l150 3h44l24 -3l17 3h7l13 -3l8 3l16 -3l6 3 l13 -3l28 3l11 -3v3l3 -3h2l8 3l31 -3l9 3l6 -3l18 3l6 -3l33 3h70l15 -3v-43l-2 -120l8 -139l-2 -3v-2l2 -8h-2l2 -3v-6l-2 -13l2 -7l-2 -2v-2l2 -11l-2 -11l2 -9l-2 -2h-296l-9 2l-9 -2h-119l-9 -2l-9 2h-19l-96 -2q-47 9 -109 9h-35l-2 2l-2 -2h-18l-41 2l-46 -2h-15 l-13 -2l-2 2q-88 -7 -157 -7h-57l-98 2l2 48l-2 44l2 54v37l2 9l-2 9v24l2 8l-2 3l2 37v63l3 174l-3 57l3 13l-3 2v2l3 13v2l-3 3l3 2v100q0 166 -5 255l2 2l-2 13l-2 127l2 8l-2 7v4h2l-2 22v287q0 7 46 7z" />
<glyph unicode="m" horiz-adv-x="2015" d="M60 1443l6 -2l-4 -6h4l39 6l321 -4l33 4h62l143 -4h137l73 -2l7 2l21 -2h2l22 2h4v-2l32 2h28l158 2l3 2h2l2 -2l21 2h369l21 -2v2l2 -2h2l165 -9q0 5 7 5q71 -29 71 -45q34 -41 34 -58v-26h2v21h6q9 -27 9 -53v-58l-2 -195l-2 -2v-2l2 -7l-4 -109v-15l4 -263v-118 l-4 -377v-28q0 -30 6 -37v-426h-2l-225 234l-90 98l-37 37q-8 52 -15 158v4h3l-3 22v55l-2 13l2 2v3l-2 62v55l2 3l-2 2v34l5 17l-5 26v36l2 26l-2 32v139l2 35l-2 8l2 15l-2 22l2 8l-2 11l2 11l-2 17l2 26l-2 6l2 13l-2 6l2 11l3 176q6 0 6 4l-9 6l-17 -6l-15 2h-25 q-13 0 -13 15l-2 2h-3l-2 -15l-77 4l-79 -4l-96 2l-22 2l-2 -8l-26 2l-2 -2v-36q-13 -16 -13 -24v-6q0 -24 13 -90l-4 -54v-377l4 -474h-64l-24 -2l-17 2l-6 -2l-11 2l-21 -2l-60 5l-3 -3l-12 3l-105 -3l-9 -2l-9 2l-12 -2l-15 7l-3 85v118l-2 56l2 2v2l-2 9v10h5l2 -17h4 l4 26v2q0 48 -6 73l2 9h-2l2 2q-9 73 -11 218h2l-2 2v69l2 2l-2 2v35l2 68h5l6 -120h2v11q-8 126 -8 306v22h4l4 -50h5l-5 60h5v5q-12 0 -13 38l4 4v7l-26 -4l-160 4h-110l-8 -2l-9 2h-2l-19 -2l-22 2h-12l-3 -2h-2v4h-2q-5 0 -8 -19l-11 -7v-4q6 0 6 -11v-2h-8q0 -4 10 -4 v-19l3 -2q-5 -11 -5 -50v-178l-2 -192h-2l2 -3v-62l-2 -2l2 -2v-2l-2 -131l2 -28l-2 -53l2 -86h-2l2 -2v-7l-2 -2l2 -2v-23l2 -110l-2 -2v-2l2 -8v-37l-2 -2l2 -2v-4q0 -5 -6 -5l-253 5l-6 -3l-24 3h-36l-13 2l-13 -2q-11 0 -11 19v34l4 7l-4 12l4 448l-2 15l2 34v7l-2 34 l2 41v53l-2 35l2 2v2q-4 64 -4 186v13h4v15h-4l4 56q-6 94 -6 180v38l2 9l-2 9v102l2 13l-2 11v51q0 6 17 9h19zM1847 1293v-4l2 -11h2v11zM463 1079v-7h2l2 7h-4zM754 657v-13l2 -11h2v2l-2 22h-2zM756 631v-13l5 -4v2l-3 15h-2zM758 603v-8h3v8h-3zM758 584v-2l5 -4v2z M761 567v-4l4 -5v5zM765 537v-9h2v9h-2zM765 522l4 -4v8z" />
<glyph unicode="n" horiz-adv-x="1237" d="M23 1440h100l48 -2l14 2l41 -4l41 2l23 -2l57 2h33l8 -2l3 2l34 -2h204l43 -2l12 2v-2l2 2h52l43 -2l2 2h2l16 -2l93 2v-2l2 -2v-2l10 4l37 -10h11l12 2q67 -4 101 -58l20 -119l-2 -74v-23l2 -74l-2 -80v-98l-2 -35h2l-2 -6l-2 -220h-2l2 -6l-6 -255l2 -2v-2l-2 -19 q-2 -146 -4 -146h-4v-26l-3 -9q7 -9 7 -41v-20l-2 -29l2 -2v-2l-2 -25l2 -53l-2 -6q4 -29 4 -99v-29l2 -37l-2 -29v-2l2 -18l-2 -10l2 -2v-2l-8 -29v-105h-3q-71 68 -76 84q-207 210 -207 228l-50 47q-1 42 -4 136l3 6l-3 2v2l3 15l-3 16l3 6l-3 19v14l3 9l-3 14v37 q0 71 17 181l-6 10v4q0 35 8 70l-2 6h-4q-4 0 -8 -33h-5v179q0 227 5 345q20 8 41 8v2h-13l-28 -2v21q1 18 6 18l-2 9q-8 -7 -15 -7h-26v5l-2 30h2l-2 7h-2q-7 0 -7 -27v-10l-4 -5h-78l-35 -2l-37 2h-72l-6 5q-8 -7 -31 -7l-2 2h-2l-2 -2h-2l-18 4l-13 -2h-4l-14 2 q-6 -13 -6 -61v-54l-2 -2l2 -2v-2l-2 -6v-4h2l-2 -35v-68q0 -107 -4 -170l2 -45l-2 -167l4 -244v-224h-15l-47 2l-10 -2l-70 2h-148l-39 2l-2 -2h-2l-29 4v4l8 4l-2 10l4 475l2 6l-2 10v4l2 11l-2 14l2 12v5h-2l2 55v288l2 2l-2 2v2l2 22l-2 3v2l2 8h-2l2 2v43l-2 2l2 2v2 l-2 2l2 10v3l-2 8l4 14l-2 2l2 15v26l-2 11l2 2h-2l2 2v39l2 135l-2 21l2 68v86zM1058 380v-10h2v10h-2zM1060 316v-14h2v14h-2zM1062 291l-2 -6l2 -8h2v14h-2zM1062 267v-6l2 -15h3v21h-5z" />
<glyph unicode="o" d="M780 1443l9 -2v2l2 -2h50l30 -2l25 4v-4l21 4q10 0 10 -8q12 -7 74 -19q23 -12 23 -28q16 -35 25 -42h5l2 2q12 0 12 -56l2 -2q0 -13 9 -13v-8l-2 -2l2 -3v-2l2 -23l-2 -71v-160l-2 -17l2 -16v-57l-2 -21l2 -21l-2 -25l2 -13l-2 -57l2 -16l-2 -34v-63l4 -477l2 -29 q-14 -72 -53 -112q-43 -42 -136 -42l-65 -2l-172 5h-114l-61 -3l-2 3l-21 -3q-291 -1 -292 -4v-4h-8q-58 0 -120 67q-34 40 -34 122l-2 67l2 15q-6 10 -6 221l2 579l-2 76h2l-2 2l2 10l-4 72v27q0 122 105 166h4l7 -4l27 2v4h-13v4q26 9 61 9h17v-2l-2 -2v-3h2l8 3l9 -3 q25 7 56 7h206l26 2v-2l2 2h23l2 -2l2 2h57l2 -2l2 2h168zM167 1428v-2h9v4h-3zM144 1426v-2h6l13 2v2h-4zM484 1082l-10 2l-7 -2l-12 2l-2 -2h-2l-2 2h-3l-2 -2l-14 2h-11l-25 -2v2l-6 -2l-34 2v-23l-2 -9l4 -10l-2 -53l4 -92h-2l2 -2v-86l-2 -2l2 -3q-8 -63 -8 -111v-33 l8 -179l-2 -2v-2l2 -13v-33l-2 -3l2 -2v-4l-2 -15l2 -18q0 -19 -4 -19l2 -2v-9l-2 -15l44 5l6 -2l3 2l6 -2l6 -32h2v32l170 4l11 2l10 -2l55 2l11 -2l21 2h16l9 -6h2l2 6l-6 25l4 21l-2 42v2h4l2 -25h2v8q-8 101 -8 145v120l2 2l-2 2l2 11l-2 50v55l2 8l-2 2l2 46v106h4 l6 -47h2v7q-4 69 -14 69l2 36v25l6 8v2h-4v7q0 6 15 6v2q-16 0 -21 4q0 -7 -28 -8h-61q0 10 -4 10zM738 924v-8h3v8h-3zM738 907v-2l5 -38h2v19l-2 21h-5zM745 865v-10h2v10h-2zM745 851v-9l2 -6h2v2l-2 13h-2zM749 815l-2 -6l2 -2h2v8h-2zM732 414v-9h2v9h-2z" />
<glyph unicode="p" horiz-adv-x="1243" d="M180 1443l17 -2l2 2h2l43 -2h29l29 -2l7 2l12 -2l15 2l8 -2l6 2l23 -2l6 2l12 -2h3l8 2l8 -4l10 2h23l9 -2l8 2h4l8 -2l8 2l3 -2h2l12 4l17 -4h124q138 0 186 -8l2 2h2l40 -5l2 3h2l33 -9h2v2l-10 2v5l39 4q30 0 58 -25l17 -8v4q25 0 68 -67q15 -38 15 -66l-3 -8l3 -8 l-7 -148l2 -6l-6 -23h4l-2 -45v-21l4 -47q0 -11 -4 -11l2 -41v-201q0 -125 -128 -166l-15 -2l-22 2l-334 -4h-8l-2 2l-2 -2h-56l-83 2v-2l-12 4v15h-2q-5 0 -9 -15l-10 -4q0 4 -8 4l-2 11q-14 -15 -32 -15v-329l3 -25l-3 -31v-506l-2 -14h-4q-32 27 -217 224 q-124 121 -131 132l-8 6l4 7l-2 27l4 325l2 56l-2 6l2 2v6h-2l2 21v19l-2 43l2 27l-4 161l4 154l-2 10l2 2l-2 15v95l4 4q-4 25 -4 62v81l2 60l-2 6l2 15l-2 12l2 23v29l-2 25l8 149zM922 1416v-2l8 -2v2l-2 2h-6zM731 1107q-1 -24 -6 -24h-213l-3 -2l-2 2h-31l-2 -2l-2 2 l-6 -2q-52 0 -52 12l-2 2v2l-2 -2h-2l-2 2h-2v-4l-2 2q-4 0 -11 -12h-2q-4 0 -6 14l2 6q-6 0 -6 -18q-7 0 -14 6l-3 -2v-2l5 -4v-19h-17v-2h17v-155l2 -25q4 0 6 10h6l13 -2l20 2h263q4 -23 9 -23l-5 23h29l2 -10h3v4h-3l3 6h16v-10l8 12l-2 11v51l2 125l-4 4v18zM325 1068 l4 -4h4l-2 8h-2z" />
<glyph unicode="q" horiz-adv-x="1216" d="M193 1440l32 -2l18 2l13 -2l31 2h13l2 -2l2 2h44l2 -2l2 2h31l2 -2l2 2h21l11 -2l12 2h48l2 -2l2 2h7l2 -2l2 2h10l2 -2l2 2l57 -2h152l219 -2q64 1 96 -53q0 -7 18 -26q0 -4 11 -16q10 -41 10 -72v-4h-2l2 -9l-2 -189v-42l-2 -33l2 -3l-2 -10v-44l-2 -8l2 -2v-2l-2 -7 v-4h2l-2 -25v-202l-2 -21l2 -19v-64l-2 -30l2 -6l-2 -6l2 -2l-2 -8q-2 -259 -6 -320l-2 -246h-2l2 -2l-2 -23l-5 -273h-6l-288 300v5h15v4q-35 2 -35 10v6q10 0 10 5q-18 0 -35 16h-172q-198 0 -198 6l-10 -4l-4 4l-13 -2l-2 2l-2 -2h-2l-6 2l-2 -2h-2l-9 2h-2q-5 -8 -48 -8 q-134 0 -152 21q-15 9 -15 13l2 6l-6 -2q-75 50 -75 127v248l2 34l-2 22v17l2 2l-2 2v209l2 12l-2 9h2l-2 2v100l2 79l-2 13l2 27l-2 27l2 27l-2 8l2 19l-2 48l2 2l-2 11v75q15 181 21 181q55 90 142 90h10q0 -6 4 -6h2q11 8 23 8zM346 1079v-4l2 -2v-2l-13 -2l4 -4h11v-40 q0 -4 -11 -4q0 -4 9 -4l2 -2v-140l-2 -2l2 -2v-280l-2 -8l2 -2v-2l-2 -61v-23l-2 -12l2 -11v-8l-2 -27l2 -27l-2 -53h33v-4l-17 -4v-4h4q32 12 71 12v-4h2v4h11l6 -4l157 4h54q14 0 14 -8h5l2 6l21 -2l29 2v5q-27 2 -27 10v13q25 3 25 10v4l-25 4v48l2 2l-2 2l2 9l-2 16 l2 36l-2 6v4h2l2 98v130l2 21l-2 18v17l-2 52l2 65v100l2 2l-2 2v4q1 42 4 42l-2 2v8l8 3v2h-4l-15 -9h-137l-2 2l-2 -2h-11l-6 2l-11 -2h-27l-2 2l-2 -2h-4l-146 2l-2 7z" />
<glyph unicode="r" horiz-adv-x="1225" d="M46 1440h73l19 -2l8 2l9 -2l2 2l33 -4l13 2l165 -2l14 -2l6 2l36 -2l21 2q67 -4 177 -4l36 -2l14 2l7 -2l10 2l2 -2h2l7 2l6 -2l17 2l18 -2l13 2l2 -2l10 2h5l6 -2l10 2h80l23 -2l8 2q15 -2 15 -5l10 3h4q35 0 63 -19l-2 -9q21 -14 39 -14q36 -25 53 -80l6 -27l-2 -106 v-169l-2 -19l2 -15v-2l-2 -8l2 -2v-2q-5 -134 -19 -134h-4q0 6 -4 6v-2l2 -14h-2q-55 -71 -71 -71l-11 -3l-14 3q0 -15 -34 -15h-2l-6 4l-13 -4h-12v-4l54 -9l-6 -8l2 -2l2 2h25q24 0 42 -29h10q39 -40 52 -100l5 -17l-2 -73v-4l-3 -17l3 -11l-3 -41l3 -17l-5 -21l2 -23v-48 l-2 -2l2 -2v-17l-2 -2l2 -2l-8 -111l6 -2l-2 -2l2 -31v-90l-2 -19l2 -14v-25l-2 -9l2 -2l-2 -6l2 -15l-2 -71v-48l-2 -16l2 -17v-34l-2 -2l2 -2l-2 -25v-8l2 -19l-2 -21v-23l-2 -8q0 -6 13 -6v-13h-7q-176 173 -279 286q-34 28 -69 69l2 2v4q0 4 -7 4v26l-2 41l5 138l-3 11 l5 98l-2 8l4 36q-7 0 -7 4l3 75v4q0 5 8 6q0 7 -6 7v6h4v4l-6 2q1 17 6 17h10q0 6 -14 25v15l10 2v2h-4v6h6v4l-56 2h-40l-278 4q-3 -20 -16 -20q0 -5 12 -5v-6q-8 0 -8 -4v-2l8 -2q-2 -46 -6 -46l2 -38l-4 -269l-2 -15l4 -31l-2 -23v-79l8 -3l-2 -2v-2l-12 2l-13 -2l-2 2 h-2l-6 -2l-88 4h-186l-12 3l-3 -3h-2q-31 3 -31 9v25l2 40l-2 2v2l2 6l-2 2l2 11v8l-2 8l4 23l-2 9l13 618l-2 12l4 34l-2 37v32l4 25l-4 127q4 52 4 221l-2 7l2 12v75l2 84l2 2h6q4 0 4 -6l3 -48h2v25l-2 29zM36 1377v-89l2 -13l-2 -13l2 -2v-2l-2 -2l2 -10v-25l2 -11h2v50 l-2 53h2l-2 2v31l-2 31h-2zM40 1206v-17h2v17h-2zM370 1081v-2l-2 -36h-13l-4 -4v-2h17v-96l-9 -11q6 0 6 -4v-31l36 4v-2l2 2h8l21 -2l15 2l2 -2h2l29 6l4 -4h67l9 -2l8 2h4l11 -2l12 2l11 -2l10 2l17 -2l21 2q25 0 33 -8q0 6 4 6h32l2 -15h4l6 21l-4 19v94h4v-6h2v12 l-6 36v6l4 13l-4 4l-11 -2l-4 4l-14 -2h-88l-33 2l-3 -2l-10 2h-15l-14 -2l-19 2h-65l-33 2l-9 -2l-14 2l-2 -2l-11 2h-12zM735 991v-52h2v52h-2zM737 928v-12h2v12h-2zM735 469v-2h13v2h-13z" />
<glyph unicode="s" horiz-adv-x="1222" d="M199 1440l51 -2h73v-4l11 2l6 -2l65 4h118l199 -2l8 2l9 -2l180 -2h70l77 -4v-320l-2 -12l2 -11l-2 -6h-128l-8 2l-9 -2h-4l-8 2l-2 -2h-2l-26 2l-16 -2v2l-2 -2l-28 2l-292 -2l-2 -2l-10 2h-118l-12 4l-13 -2l-10 9q0 -3 -17 -9l-4 -15l2 -29h-2l2 -2v-11l-2 -10 q-28 -2 -28 -8v-3q30 -4 30 -8v-63l-2 -8l2 -9l-4 -19l6 -16h2v2l-2 10l2 2h2l11 -6q8 6 18 6h227l134 -10v2q0 4 -6 4v4h17l23 2l6 -4l2 2h95l13 -2l6 2q34 0 88 -29q3 -13 25 -27q46 -40 46 -122h-2l2 -2v-9l-2 -2l2 -2v-12l-2 -13l2 -10v-3l-2 -2l2 -2l-2 -23l2 -132 v-128l-2 -19l2 -8l-4 -47l2 -19v-14l-2 -9l2 -6l-2 -19l2 -42v-27q0 -88 -75 -143q-32 -25 -109 -25h-269l-34 2l-2 -2l-15 2h-151l-29 2l-8 -2l-17 4l-13 -4h-40l-10 -2q-24 4 -88 4h-196l-2 -2h-2l-2 11l2 298l-2 44l15 2h33l57 -2l29 2v-2l7 2l44 -2l10 2l11 -2l2 2h2 l27 -9q19 5 51 5h8v-2l-15 -3v-4l181 9h92l19 -2l2 2h2l55 -2h55q4 0 4 -11h4q0 13 4 13h15l2 -2h2v4h2l-2 2v2l4 25l-2 74v27l-2 29l2 11l-2 12l2 9l-10 2h-15q0 8 -4 8q-6 0 -7 -8h-4q-56 8 -94 8l-11 -2l-12 2h-34l-23 -4v2l-2 -2h-2l-55 -4l-2 2l-10 -2h-65l-34 -2l-2 2 h-2l-15 -2l-8 2l-21 -2h-91q-90 0 -90 19q0 10 -27 12q-32 0 -67 74l-2 8h2q5 -2 42 -57l2 -2h2l-51 76q-6 14 -6 34q1 10 4 10l-2 2v116l2 21l-6 2v10h2l2 -2h2l2 151v46q0 15 -10 15l2 25v124l-2 13l2 8h-2l6 11l-6 8l2 2v13q0 22 19 69q58 84 141 84h6l6 -4h9v4z" />
<glyph unicode="t" horiz-adv-x="1213" d="M81 1440v-4l2 2l10 -2l31 2l359 -2h133l35 -2v2l2 -2l25 2l48 -2l37 2v-6h-2q-43 -6 -43 -13l31 -4q248 21 313 21l4 -15l-2 -52v-87l-2 -33l2 -2v-2l-2 -54v-106q0 -5 -10 -6h-5v2l-20 -2h-15l-47 4l-67 -2h-6l-2 2l-2 -2h-52l-23 2l-6 -2l-31 2l-2 -2h-2l-19 6l-10 -6 l-11 2l-8 -2l-13 4h-2l-6 -4l2 -2v-8q0 -4 -12 -4v-3q0 -4 12 -4v-10l-4 -6h4v-4l-4 -17l4 -4v-21l-2 -72v-5h2l-2 -20v-94l-2 -12l2 -2l-2 -56v-459l2 -361l2 -31l-2 -2v-2l2 -8h-2l2 -2v-183l-2 -12l2 -11v-12h-2q-48 39 -176 174q-9 2 -139 135q-31 30 -31 37l2 7h-2 q-9 0 -13 27l2 10v14l-2 3q4 12 7 12l-3 93v42l3 21l-3 18v35l3 34l-3 6l3 2l-3 10l3 13l-3 21l3 43l-3 60v2l3 13l-3 2v2l3 10l-3 29q3 98 9 108l-2 2l2 21v12q0 5 -9 5v18q1 46 5 46q-4 0 -7 48h-2q4 10 4 37v91l3 33l-3 2v3l3 6l-3 16l3 17l-3 2v2l3 2v2l-3 6l7 54l-2 11 l12 2v4q-8 0 -8 4l-4 4h-5l-10 -8l-23 2l-2 -2h-2l-35 4h-19l-70 -2l-69 2h-12l-13 2l-2 -2l-14 2h-42l-31 2v2l-4 154v180q0 16 6 17h54z" />
<glyph unicode="u" horiz-adv-x="1234" d="M790 1437l2 -2h44l8 2l6 -2l25 2l25 -4l4 4h169l-2 -21v-20l-2 -2l2 -2v-2q2 -104 10 -104l-2 -2l2 -14v-54l2 -8l-2 -6l2 -21l-2 -51v-29l2 -9l-2 -2v-2l2 -2l-2 -20v-19l-4 -225l4 -27v-82l2 -21l-2 -12l2 -104l-4 -94l2 -3l-2 -6l-2 -97l8 -334v-2l-2 -10l2 -13v-144 l-2 -2l2 -2v-4l-2 -17l2 -16v-7l-2 -2l2 -2v-2l-2 -6l2 -21v-22l-2 -9l2 -2l-2 -35v-72h-2l-185 180l-2 2v2l2 6q-63 48 -153 136l-21 27l-41 -2h-99l-60 -2l-2 2h-2l-12 -2h-7l-29 2l-26 -2h-9l-2 2l-2 -2h-157l-12 2l-10 -2l-2 2l-11 -2h-59q-118 0 -163 105 q-11 11 -13 120l2 2l-2 10v15l6 6l-6 84l2 66l-2 31l4 70l-4 13v45l2 11l-2 12v4l2 54l-4 150l6 46q-5 35 -8 173l2 2l-2 10v23l2 8l-2 9v10l2 2l-2 2v4l2 6l-2 11v16l2 2l-2 2v25l2 15l-2 10l2 120l-2 41h2l-2 2v87q0 6 37 6h6l2 -2l17 4h4v-2l35 2h64l8 -2l9 2h62l14 2 l19 -2h82l-2 -2v-52q-6 -7 -6 -14h2l2 2h2v-21q0 -51 -4 -51l4 -17v-97l2 -2l-2 -2v-2l2 -10l-2 -13v-8l2 -6l-2 -11v-20l2 -19l-2 -10l2 -2v-2l-2 -6h2l-2 -2v-11l2 -6l-2 -10v-46l2 -12l-2 -8h2l-2 -2l2 -33l-2 -116v-35l2 -8l-2 -6l2 -3l-2 -10v-18l2 -2l-2 -3l2 -14v-25 l-2 -58l4 -39v-60l-2 -14l2 -19v-150l-8 -11l12 -2l6 4l7 -4l6 2l20 -2l-4 -12h2l17 14l6 -2l23 4l8 -2l2 2h2l6 -2l11 2l16 -2v2l2 -2h13l20 2l9 -2l33 2l8 -2l2 2h2l2 -2h2l17 2l12 -2l2 2h2l12 -2l7 2l10 -2l21 2q2 -10 6 -10l12 10h41v3l-4 33v8q11 0 11 4l-11 2l-2 56 v20l-4 273l-2 2v2l2 2v2l-2 8l2 35v73l2 28l-2 3v2l2 8l-2 62v22q0 132 4 178l-2 8l2 70l-2 172l6 8h2l62 2v2zM347 1359l-2 -11v-2h2l2 11v2h-2z" />
<glyph unicode="v" horiz-adv-x="1247" d="M970 1449l8 -2l84 2h21l-4 -44q4 -54 4 -154v-494l2 -42h-2l2 -2v-44l2 -53h-2l2 -2v-132l2 -13l-2 -2l2 -84v-181l2 -9l-8 -18h6q0 -57 -31 -101q-18 -37 -110 -68l-25 -4l-8 4l-6 -2l-36 2h-131l-19 -2l-21 2h-101l-10 -2v2l-2 -2l-11 2l-191 2l-6 -2v2l-2 -2h-3 l-216 -6q-30 17 -93 34q-40 35 -56 88l-9 38l2 40l-4 120l2 10l-2 2l2 15v8l-2 24l2 2l-2 25v19q0 104 8 170l-2 6l-2 -2h-4v204l6 112l-6 2v252l4 55l-4 17v176q0 21 59 21l86 3h82v-5h2v5h124l2 -11v-71l-2 -3l2 -2l3 -246v-90l2 -2l-2 -7l2 -21l-2 -6l2 -25v-133l2 -12 l-2 -9l2 -2v-2l-2 -10l2 -7h-2l2 -2l-2 -6l2 -164l-2 -13l2 -19v-67l2 -67h-2l2 -2v-9l-2 -8l2 -2v-2l-2 -21h-9l-10 -3v-2h19v-14l2 -13l-2 -8l2 -9h15l10 -2l13 2h17l33 -4l21 2l9 -2l21 4l2 -2l86 6l13 -2l8 2l8 -2l61 2h24l16 5l9 -2l4 4l-6 23v19l19 4v4q-19 1 -19 7 v275l-2 50l2 19l-2 19l2 2l-2 11v19l2 2l-2 6v4h2l-2 15v9l2 46l-2 61v90l-3 23l3 9l-3 6l3 15l-3 15l3 12l-3 11l3 2l-3 10v293h3l117 4v-2l2 2h5l2 -2h2l-2 -2v-7h6q11 11 59 11h31z" />
<glyph unicode="w" horiz-adv-x="1948" d="M1448 1440h53l8 -2l6 2l44 -2l17 2l2 -2h2l2 2h2l19 -2l10 2l9 -4l2 2h179v-8q0 -6 -23 -9v-2h2l21 4v-442l2 -19l-2 -8l2 -9h-2l2 -2l-2 -31v-6l2 -11l-2 -12l2 -19l-4 -31l4 -25v-50l-2 -17l2 -23v-98l-2 -29l2 -2v-3l-4 -33l4 -15l-2 -45l2 -63l-2 -25l2 -8l-2 -7 l2 -16q0 -64 -16 -209q8 0 8 -4q0 -74 -38 -103q-40 -52 -146 -52h-10l-13 -2l-12 2l-2 -2h-2l-3 2l-31 -2h-117l-106 9l-111 -7l-19 4l-4 -4h-2q-82 0 -202 23q-69 69 -69 136l4 12l-2 2h-2l-6 -6v-8q0 -56 -30 -86q0 -7 -98 -66q0 -4 -23 -9l-62 2l-148 -4v2l-2 -2h-174 l-12 -2l-2 2l-73 -2h-123q-24 0 -63 15v10q0 6 -23 6q-69 61 -69 123v11l4 4l-6 10v7l2 16l-2 13l2 17l-2 2l2 12l4 322v135l2 13l-2 10v9l2 37l-2 11l2 6l-2 12l2 25l-2 63v90l2 37l-2 46v171l-2 182h2l-2 2v21h29q0 -5 7 -11l169 11h60l13 -2l10 2h15q19 0 29 -8h4v2l-2 6 h8l3 -2l2 -6h2l-7 -84l3 -27v-46l2 -12l-2 -3l2 -10v-40l2 -10h-2l2 -2l-2 -21l2 -10l-2 -13v-25l2 -13l-2 -2v-2q1 -12 4 -12l-2 -11v-200l-2 -54l2 -2v-2l-4 -21l2 -7l-2 -23v-25l-3 -2l3 -2v-2l-3 -6h9v-104h-4v2l-2 35h-3v-50q9 0 9 -4v-242l-2 -25l2 -2l21 2h162l17 2 l17 -2h14l76 2l2 -2h2l8 2h4q8 0 17 -9l6 7h13v-7h2l10 11q-8 0 -8 21l2 6l-2 2v2l2 13l-2 21l2 16l-2 15l2 12l-2 25v5h2l-2 14v82l2 18l-2 9h2l-2 2v234l-2 60l2 2v2l-2 9v12l2 2l-2 2v96l2 2l-2 2v272l-2 39l2 3v2l-2 23v18l2 2l-2 3v4l2 2l-2 2v23l10 2h79l17 -4l2 2v2 l119 -8q9 2 9 8h68l67 -4l2 -36v-98l-2 -219l2 -238v-188l2 -71l-2 -16h2l-2 -2v-121l-2 -9l2 -8v-2q-10 0 -16 -13l-2 -2h18v-2l2 -29l-2 -17l2 -10l11 2h4l8 -6h2q0 6 5 6h20l23 -2l9 2v-2l2 2l37 -2l30 2l2 -2h2l2 2h2l8 -2l36 2h92q4 0 6 -25l2 -2h2v23q2 6 13 6h8 q17 0 17 -13l6 -46l4 5l-8 52h16l11 2q0 4 -11 4q0 6 -8 6l2 13l-4 31l4 4l-2 13l2 21l-2 6h2l-2 2v8l2 17l-4 31l2 13l-2 8l2 7l-2 6l2 23v10l-2 29l2 7l-2 14q3 15 6 15l-4 12h2l-2 2v3l2 6l-2 17l2 6l-2 12v23l-2 2l2 7l-2 14l2 13l-2 2v6h2l-2 25v200l2 34l-2 2l2 6 l-2 148v38l-2 63h2l-2 2v4l2 17l-2 22v28l2 6l-2 10v48q0 12 10 17zM1753 1415v-2h8v2h-8zM346 726v-37h3v35l2 2h-5zM346 687v-11h3v11h-3z" />
<glyph unicode="x" horiz-adv-x="1243" d="M43 1431l53 -4l6 2l21 -2l16 2l35 -2l20 2l15 -2l8 2l6 -2v2l2 -2h4l13 2l2 -2h2l10 2l18 -4l6 4l3 -2h2l2 2l10 -2h26l9 2q4 -3 28 -6l2 -10v-104l-2 -2l2 -2v-31l-2 -14l2 -25v-305q-8 0 -8 -4q8 -1 8 -6v-15q0 -7 -8 -14l8 -4l7 4l10 -2h10v-6h4q0 8 12 8l6 -2l19 2 h16l6 -6q21 3 21 6l6 -2l29 2h14l-2 2v2l2 2h6v-6h10l9 -2l14 2h35l43 -4l16 4h19q0 -8 4 -8t4 6l2 2h6q10 -5 10 -16l2 2q4 16 15 16l4 -10h2q0 8 6 8v4l-6 2l2 14l-2 15h2l51 4q0 6 -23 6h-12q0 -8 -14 -8l-2 2v2l2 2v2h-4v33l2 18l-2 6v4h2l-2 31v51l2 33l-2 12l2 9 l-2 22v14l2 11h-2l2 2v6l-2 31h2l-2 2v12l2 2l-2 2v2l2 2l-2 10l2 21l-2 16h2l-2 2v2l4 4l-4 9v4h2l-2 14v4l2 12l-2 11l4 12l-4 16v8q0 5 8 5q-6 10 -6 20v8q0 5 8 6l41 2l43 -4v4l14 -2h19l8 2l8 -2v2l2 -2h12l13 2l14 -4l4 4l2 -2l10 2h97l8 2l8 -2h43l2 -2h2l-4 -301 l2 -172l-4 -14l4 -4v-57q0 -19 -43 -84q-13 -35 -27 -35q-39 -39 -114 -39l-4 -6v-2h12l8 2q49 -6 49 -14l-6 -9v-2l25 9l4 -7v-8l-6 -10l2 -2q16 9 18 14q76 -53 76 -135v-45l-4 -29l4 -12v-74l-2 -2l2 -2v-39l-2 -2l2 -2v-84l-4 -120l2 -9l-2 -6l2 -108l2 -2h-4l2 -2v-4 l-2 -7l2 -8l4 -196l-2 -45v-66l2 -18l-2 -8l2 -2v-3l-2 -12v-8h-2q-259 257 -268 280l-29 35h-2l-2 -2h-2q-45 40 -45 53l4 7l-2 14v8l-2 105l2 14l-4 153l2 21l-2 10l2 92v41l2 12l-2 11l2 2l-2 2v24q0 15 14 15v2h-2l-6 -2l-8 8q-10 -6 -37 -6h-37l-6 -2l-10 2h-68l-20 -2 l-19 2h-10l-8 -2l-15 2h-86l-12 2l-10 -2h-6q-7 0 -15 6h-2l-8 -6q6 -11 6 -21v-6l-8 -10l8 -2v-21h-4l4 -18v-94l-2 -8l2 -2v-3l-2 -8l2 -2v-2l-2 -2v-6h2l-2 -20v-123l-2 -8l2 -9v-4l-2 -71h-2l2 -2v-7l-2 -14l2 -18v-9l-2 -8l2 -6l-2 -33h-53l-12 -2l-21 2h-172l-92 2 l-4 5l2 8l2 118h-2l2 7l2 151l2 12l-2 2l2 25v74l2 8l-4 16v2l4 25l-2 59l2 41h2l-2 2v2q0 58 51 113l23 16l2 -2h4q0 8 27 17l2 -2q0 8 37 10h16l2 2l8 -4q0 6 12 6v2q0 6 -45 14h-4q0 7 -12 13l-16 -7h-6v4l10 15l-2 2h-4l-31 -6q-33 27 -47 63q-27 23 -27 180v68h2l2 -2 h2l2 14v12l-2 11q9 0 9 8q-15 87 -15 110l6 2l-8 33l2 10l-2 17v2l2 2l-2 2l2 76v63q1 10 4 10z" />
<glyph unicode="y" d="M33 1443l2 -2h2l2 2l21 -2h19v-6q31 6 60 6h126l-2 -2v-4h6l-2 2v2l2 2h8v-6l62 2h12v-91l-4 -122v-89l-2 -33l2 -2v-2l-2 -39v-33l-2 -13l2 -10l-2 -10l2 -13v-27q0 -5 -18 -8l-19 2v-4h15l20 2v-17l-2 -8l4 -25l35 2h56l29 3l10 -3l3 3h2l12 -3h2l8 3l7 -3h4v3l14 -3 h54l8 3l33 -5l19 2h56v-12h4v12h6v-10h2q0 6 8 13l-2 12l6 10v4l-6 2v5h2l-2 41v66l2 8l-2 9l2 20v4h-2l2 21v165l2 95l-2 9l2 12h-2l2 2v15l-2 10l2 12v9l11 6h91l2 2l2 -2h60l2 2l2 -2h2l37 2l8 -2l2 2l11 -2h68l52 2l4 -6v-128l2 -75l-2 -2l2 -14v-128l-2 -29l2 -7l-2 -2 l2 -14v-15l-2 -22l2 -2v-2l-2 -9l2 -10l-2 -21l2 -8l-2 -8l2 -6l-2 -3v-6h2l-2 -31v-49l4 -17l-4 -52v-47l2 -19q0 -82 -71 -140q-41 -29 -99 -29v6h-2l-25 -6l-2 2h-2l-2 -2l-14 2h-97q-11 6 -11 17h-2l-6 -15h-4l-6 4l-4 -4h-19l-10 -2v-4l8 -2l2 -19q-10 -27 -10 -60 l4 -109v-137l2 -231h-2l2 -2l2 -83v-33l-2 -45l2 -37v-13l-2 -12l2 -11l-2 -10l2 -23v-33l-2 -12l2 -10v-13l-4 -4h-2q-17 0 -135 132l-155 163q-55 53 -55 65l8 8v2h-2l-2 -2h-2l-7 2v225l7 72l-7 3l-2 45l2 128l3 2v2l-3 8v19l9 10l-4 7v2l4 12l-2 2h-13l-14 -2l-19 2h-23 l-43 2l-2 -2l-10 2h-37l-15 -2l-8 8h-2l-11 -8q-58 0 -117 50q-50 47 -50 122q10 0 10 4v4l-10 2v78q1 93 4 93l-2 17l4 316l-2 8l2 25l-2 132l2 3v2l-2 2v2q0 37 10 37zM29 1429v-3h6l38 9v2zM240 1435v-2h10l6 2v2h-4zM217 1435v-2h15v2h-15zM174 1431v-2h8v4h-2z M192 1433v-2h13v2h-13zM141 1429v-3h10v3h-10zM15 1420l18 -2h9v2h-15v6q-12 -1 -12 -6zM110 1426v-2h8v2h-8zM68 1422v-2h19l2 2v2z" />
<glyph unicode="z" d="M1081 1449l-7 -611l4 -34l-1 -59l-2 -2l2 -2l1 -130l-1 -61l-25 -2h-30l-6 -2l-11 2l-130 2l-9 -2l-8 2h-13l-23 -1l-2 2l-25 -2h-9l-124 6l-206 -6h-4v2l-11 -2h-36l-4 5v10l2 2l-2 6q-6 1 -6 -23l-9 1l-21 2l-4 -15l2 -19l-2 -6h-5l-2 2l-8 -6v-2h6v-4l-10 -2l-9 2 l-6 -2l2 -2v-3l10 2h15q6 0 8 -25l-2 -6l2 -3l-2 -6l2 -40l-1 -15q0 -6 -42 -5v-5l36 2h6l-4 -29l31 -11v-9h4q1 17 7 17h4l11 -2l12 2h2l17 -3l36 4h19l2 -2l2 2l105 1l24 -1q10 0 10 4l21 -4l87 1v2l2 -2h8l11 2l6 -2l82 1h27l7 2l10 -3l99 -1l28 2l23 -2l17 -1l4 -4v-6 l3 -247l-2 -2l2 -14l-1 -36l2 -44q-2 -7 -9 -9l-33 3l-40 -2l-2 2h-2l-9 -2l-2 2l-11 -2l-88 2l-32 -2v2l-2 -2h-8l-34 -2l-23 3l-29 -2l-3 2h-2l-8 -2l-8 2l-7 -2l-2 2l-10 -2l-19 1l-156 -1l-7 -2l-10 2l-11 1l-2 -2l-2 2h-8l-21 -4v2l-2 -2l-106 1l-29 -2l-2 2h-2l-34 -1 h-11l-18 2l-17 -2l-70 3v-2l-2 2h-2l-2 -2l-11 2l-27 1l-13 -2l-10 2h-2l-9 -2l-33 5q-19 -1 -19 -4l-15 2h-23l-6 5l-3 -7h-6l-4 11l2 137l4 38l-4 8l4 156l1 52l-2 51l2 2l-2 15l2 126l2 9l-2 2v2l14 126l-4 19h2l-2 2v8l3 3l-3 2l1 2l2 44h-4l-7 -48h-4l1 134q0 5 24 4v2 l10 -2h53l12 2l9 -3l10 2l17 -2l7 2l21 -2l48 -1l13 2l12 -2l2 2h2l9 -2v2l2 -2l15 -1l8 2l9 -2l2 2l2 -2h4l2 2l2 -2h2l21 2l23 -2l3 2h2l8 -3q15 0 15 4l10 -2h11l2 2l2 -2h21h158l158 -15h2v3l-32 6v2q1 5 15 6l7 -2l2 2v15h13v2q0 4 -13 7v23l34 4v4h-36l1 23l-1 106 l2 2q-5 0 -6 8h-2q-5 0 -5 -8h-151v-3l-2 3h-3l-56 -2l-47 3l-187 -2v2l-2 -2l-148 2l-33 2l-7 -2l-6 2l-6 -2l-2 2h-2l-3 -2h-2l-12 3l-11 -2v2l-2 -2h-15q-9 0 -12 29h2q-6 26 -7 72l2 2l-2 15l1 84l-2 9l2 8l1 42l-2 19l2 13l-2 2l5 42l-2 12h21l16 2h5v-2l42 2l282 -4 l455 -1l147 -8q0 5 -29 7l-7 -2l-10 2v2l4 4l124 -1z" />
<glyph unicode="{" horiz-adv-x="865" d="M465 1794l2 -2h5l106 -3l3 3l11 -3h116l3 3h2l5 -5l-5 -16l-2 -156l-3 -11l3 -23l2 -144l-2 -2l-19 2l-155 2l-7 -14h-19l-4 -4l25 -5v-5q0 -7 -25 -7v-4l16 2q0 -7 9 -7v-18h-12v-5q12 0 12 -5v-139l-2 -14l2 -11v-21l-2 -3l2 -2v-2l-2 -12l2 -14l-2 -11l2 -16l-2 -45 l2 -25h-2l2 -2l-2 -51v-3l2 -48l-2 -7l2 -24v-9l-2 -9l2 -9v-3l-2 -2l4 -16l-2 -16v-65l2 -10l-2 -7l2 -2v-2l-2 -10v-2l2 -2l-2 -2l2 -12v-23l-2 -10l2 -16v-171l-2 -26l2 -2l-2 -12v-30l2 -12l-2 -13v-72l2 -19l-2 -18v-26l2 -9l-2 -9l2 -10v-4h-2l2 -47v-100l3 -60l-3 -7 l3 -18v-3l-3 -20l3 -7h2q0 11 46 11v2h-11v10l28 -3h120v-7h-7l3 -34v-3l2 -2l-2 -7l-3 -290l-2 -7l2 -2l-2 -2h-51l-21 -3l-2 3l-12 -3h-2l-21 3l-53 -5l-14 2h-44l-14 -2l-3 2l-51 -2h-74q-84 0 -132 90q-26 31 -26 77l5 16l-5 5v18l3 17l-5 60l2 23l-2 16l2 3v2l-2 2l2 7 l-2 47v340l2 10l-2 9v5h33v2q-35 2 -35 9v7h4l-4 28l4 5v2l-11 5l-7 -7h-79l-2 2l-3 -2q-85 0 -85 14l-3 23l3 39l-3 86h3l-3 2v17l3 2l-3 2v56l-2 23l2 21l-2 25l2 3l-2 11v109q4 10 16 10h88l14 2l12 -2h9l5 4h-5v5h2l35 2l3 -2l-3 -2v-7h3q3 0 9 18h-5v19q9 0 9 7 q-11 10 -11 39v42l-2 25l2 3v2l-2 2l2 19l-2 139l-3 9l3 3v2l-3 2v3l3 2v2l-3 12l3 7l-3 28v92l-2 -2h-5l-11 72l2 2h-2l2 2l-2 35v5q0 46 11 97h3l2 -16h2v7l-2 23l9 9v10l-2 -3h-5v12q0 52 30 84q0 7 40 51l32 16q24 7 61 9l20 -2q60 7 105 7v2zM175 1564l-2 -9h4v9h-2z M175 1539v-37h2v37h-2zM175 1495v-74h2l3 51l-3 23h-2zM175 1418v-30h2v30h-2zM159 901l4 -4l3 2v2h-7zM592 8v-2h93v2h-93zM692 8v-2h16v2h-16z" />
<glyph unicode="|" horiz-adv-x="496" d="M158 1767l68 -5l5 5h115l4 -5v-2q0 -4 -9 -4v-3q9 0 9 -4v-16l-2 -7l2 -12v-323l-2 -25l2 -30v-336l-2 -21l2 -7v-4h-2l2 -23v-149l-4 -78l4 -9l-2 -16v-9q0 -59 -5 -71l3 -3l-3 -39v-18l-2 -9l5 -16l-5 -9h2l-2 -3v-38l2 -10l-2 -9v-18l2 -14l-2 -2v-2l2 -12l-2 -18 l2 -21l-2 -2v-2l2 -3l-2 -27v-41l7 4h4v-18l3 -9l-3 -3l3 -50v-437l-5 -5l2 -2v-3l-2 -2l7 -62l-5 -39l-9 -2l-27 2l-21 -2l-7 2l-13 -2h-12l-14 2l-11 -2v2l-2 -2h-26l-9 2l-16 -2h-167q0 9 -11 9l2 7l-2 11v10l2 13l-2 12l2 2l-2 12v41l2 11l-2 14v71l2 21l-2 13h2l-2 3v9 l2 11l-2 7l2 16l-2 55l2 25l-2 21q5 0 6 16l-4 108l2 2l-2 16v48l-2 160l6 108h-2l-4 5v36l-3 16l3 21v64l-3 2l3 3v77h2l7 -2v2q-12 117 -12 271v62l-2 11h2l-2 2l2 71l-2 85l2 2v3l-2 9v7q0 19 5 29l-5 99l5 57l-5 19q7 0 7 4q0 5 -7 5v11l2 9l-2 3v2l2 2l-2 16v25l2 3 l-2 2v11l2 19l-2 18h2l-2 2l5 46l-5 14v25l2 25l-2 16l2 3v2l-2 9v14h14v7h75z" />
<glyph unicode="}" horiz-adv-x="865" d="M258 1792q45 0 105 -7l21 2q36 -2 60 -9l32 -16q40 -44 40 -51q30 -32 30 -84v-12h-5l-2 3v-10l9 -9l-2 -23v-7h2l3 16h2q11 -51 11 -97v-5l-2 -35l2 -2h-2l2 -2l-11 -72h-5l-2 2v-92l-2 -28l2 -7l-2 -12v-2l2 -2v-3l-2 -2v-2l2 -3l-2 -9l-3 -139l3 -19l-3 -2v-2l3 -3 l-3 -25v-42q0 -29 -11 -39q0 -7 9 -7v-19h-5q6 -18 10 -18h2v7l-2 2l2 2l35 -2h2v-5h-5l5 -4h9l12 2l14 -2h88q12 0 16 -10v-109l-2 -11l2 -3l-2 -25l2 -21l-2 -23v-56l-2 -2l2 -2v-17l-2 -2h2l-2 -86l2 -39l-2 -23q0 -14 -86 -14l-3 2l-2 -2h-79l-7 7l-11 -5v-2l4 -5 l-4 -28h4v-7q0 -7 -34 -9v-2h32v-5l-2 -9l2 -10v-340l-2 -47l2 -7l-2 -2v-2l2 -3l-2 -16l2 -23l-5 -60l3 -17v-18l-5 -5l5 -16q0 -46 -26 -77q-48 -90 -132 -90h-74l-51 2l-3 -2l-13 2h-44l-14 -2l-54 5l-21 -3h-2l-12 3l-2 -3l-21 3h-51l-2 2l2 2l-2 7l-2 290l-3 7l3 2v3 l2 34h-7v7h121l27 3v-10h-11v-2q46 0 46 -11h3l2 7l-2 20v3l2 18l-2 7l2 60v100l2 47h-2v4l2 10l-2 9l2 9v26l-2 18l2 19v72l-2 13l2 12v30l-2 12l2 2l-2 26v171l2 16l-2 10v23l2 12l-2 2l2 2v2l-2 10v2l2 2l-2 7l2 10v65l-2 16l4 16l-2 2v3l2 9l-2 9v9l2 24l-2 7l2 48v3 l-2 51l2 2h-2l2 25l-2 45l2 16l-2 11l2 14l-2 12v2l2 2l-2 3v21l2 11l-2 14v139q0 5 12 5v5h-12v18q9 0 9 7l17 -2v4q-26 0 -26 7v5l26 5l-5 4h-19l-6 14l-156 -2l-18 -2l-3 2l3 144l2 23l-2 11l-3 156l-4 16l4 5h3l2 -3h116l11 3l3 -3l106 3h5l2 2v-2zM546 1564v-9h5l-3 9 h-2zM546 1539v-37h2v37h-2zM546 1495l-2 -23l2 -51h2v74h-2zM546 1418v-30h2v30h-2zM558 901v-2l2 -2l4 4h-6zM38 8v-2h93v2h-93zM15 8v-2h16v2h-16z" />
<glyph unicode="&#xa2;" horiz-adv-x="1240" d="M668 1628l17 -3h28v-130l-3 -10l3 -13l-3 -18l6 -12q11 5 32 5h8l2 -3l3 3h7v-3l26 3h105l15 2l10 -2l13 2l15 -2l20 2l3 -2h2l3 2h2l3 -2l17 2h73l8 -125h-5l-10 70l2 20l-2 8h-3v-41l-2 -42h2l-2 -3v-2l2 -13l3 3h5q10 -44 10 -91v-78l-5 -5l-5 40h-3v-5l13 -88v-10 l-5 -5h-118l-28 -2l-15 2l-13 -2l-15 2l-209 -2h-95q-25 0 -36 12h-2l-15 -5l-58 5l-68 -12h-38q-15 0 -15 10h-2l-3 -13l3 -20h-3l3 -3v-2l-3 -8l3 -12l-3 -18l3 -48v-100l2 -3l-2 -2l2 -56v-156l3 -168h-3l3 -3v-123l5 -5l17 3v-3l3 -20h2q1 23 8 23h5q8 0 8 -23h2l3 17h2 l3 -2h2q0 8 5 8h3v-8h2l3 8l30 2l78 -5l7 3v-3l3 3l8 -3l62 3h471l2 -13l-2 -8l2 -17v-8l-2 -53l2 -7l-2 -8l2 -2v-3l-2 -12l2 -18h-2l2 -2l-2 -26l2 -22h-2l2 -3l-2 -15l5 -148l-18 2l-7 -2l-13 2l-173 -2h-83l-53 -3l-18 5l-7 -2v-3h7v-226l3 -131h-5q-143 137 -327 325 q-20 25 -26 25v7h5v5l-2 -2h-30l-10 10v2h17v3l-2 2v3l-20 -3l-179 -5q-78 15 -78 33q-70 67 -70 126l7 30v3l-2 30h5l-8 22l-2 141v48l2 68q-5 35 -5 121v22l-2 10l2 3l-2 18v12l5 8l-8 226l3 8l-3 12l5 111q-10 23 -10 85l3 21l-3 45v85q7 48 25 63h-5v3q61 85 146 85 l18 -7v2l-3 3v2h15l8 -2l12 2h149l12 3v2q-15 0 -15 5v15l3 13l-5 5v55q0 56 5 88h289zM1065 1319v-48h3v48h-3z" />
<glyph unicode="&#xa6;" horiz-adv-x="496" d="M158 1767l68 -5l5 5h115l4 -5v-2q0 -4 -9 -4v-3q9 0 9 -4v-16l-2 -7l2 -12v-323l-2 -25l2 -30v-336l-2 -21l2 -7v-4h-2l2 -23v-149l-4 -78l4 -9l-2 -16v-9q0 -59 -5 -71l3 -3l-3 -39v-18l-2 -9l5 -16l-5 -9h2l-2 -3v-38l2 -10l-2 -9v-18l2 -14l-2 -2v-2l2 -12l-2 -18 l2 -21l-2 -2v-2l2 -3l-2 -27v-41l7 4h4v-18l3 -9l-3 -3l3 -50v-437l-5 -5l2 -2v-3l-2 -2l7 -62l-5 -39l-9 -2l-27 2l-21 -2l-7 2l-13 -2h-12l-14 2l-11 -2v2l-2 -2h-26l-9 2l-16 -2h-167q0 9 -11 9l2 7l-2 11v10l2 13l-2 12l2 2l-2 12v41l2 11l-2 14v71l2 21l-2 13h2l-2 3v9 l2 11l-2 7l2 16l-2 55l2 25l-2 21q5 0 6 16l-4 108l2 2l-2 16v48l-2 160l6 108h-2l-4 5v36l-3 16l3 21v64l-3 2l3 3v77h2l7 -2v2q-12 117 -12 271v62l-2 11h2l-2 2l2 71l-2 85l2 2v3l-2 9v7q0 19 5 29l-5 99l5 57l-5 19q7 0 7 4q0 5 -7 5v11l2 9l-2 3v2l2 2l-2 16v25l2 3 l-2 2v11l2 19l-2 18h2l-2 2l5 46l-5 14v25l2 25l-2 16l2 3v2l-2 9v14h14v7h75z" />
<glyph unicode="&#xa7;" horiz-adv-x="1204" d="M1018 1691h33l-4 -24h2l-2 -3v-9l2 -3l-2 -2v-2l2 -3v-2h-2l2 -3v-2l-2 -22l2 3h5v-15l-7 -9v-61l2 -9l-5 -20l7 5h3v-29l2 -21l-2 -3q5 -28 5 -79v-34l-5 -5h-5l-2 3h-3l-5 -10l5 -5v-2h-14l-5 9h-5v-2l-36 2h-99l-142 5h-58l-10 -2l-2 2h-2l-3 -2h-2l-17 2l-10 -2l-2 2 h-3l-2 -2h-2l-27 2h-2l-3 -2l-2 2h-142l-15 3l-12 -3h-19l-10 3l-2 -3l-10 3l-36 -3v-178l7 2l22 -5h255q55 0 133 -7l2 3v2l-2 2l2 3h97l12 -7v7q102 0 154 -101q10 -42 10 -87v-521l-3 -33l3 -10l-3 -36l3 -12l-3 -41v-386q0 -120 -125 -164h-19v10h-3q0 -10 -7 -10 l-10 10h-2v-7l-48 -3h-36l-36 3l-3 -3v-2h5v-5h-15v2l3 3v2h-53l-7 -2l-12 2h-128l-19 3l-20 -3h-26l-99 3q-109 -5 -321 -5h-26l-10 -3q-9 0 -19 15v19l2 27l-2 2v2l2 15l-2 10l2 7l-2 7l2 2l-2 17v227h29l94 2l2 -2h3l2 2l77 -2h248l46 2l39 -2h111v-5h2v5h7l41 -3l3 3v2 l-12 3l2 12l-2 36h2l-2 2v3l2 17l-2 28l2 22l-2 3v2l2 10v7h19l-4 5h-17v5q0 8 7 16l-5 5h-36l-10 3l-9 -3h-15l-9 3l-17 -3h-162l-2 3l-3 -3h-110l-44 -5l-5 5h-84l-10 3l-9 -3h-12q-98 0 -143 113l3 13l-10 81l3 3l-3 24v89l3 27l-3 2v2l3 22v15l-3 12h3l-3 2l3 17l-3 130 v94l7 29v7l-2 3l2 2l-2 12l-5 140v24l5 7l-7 22l2 14l-2 10l2 10l-2 12l2 24l-2 108l2 24l-2 56v72h5v2l-5 5q7 60 43 104q60 53 104 53h164l2 2l3 -2h2l7 2l12 -2h44l2 2l2 -2h191l2 2l3 -2h123l81 -2l15 4h63l26 3l3 -3h2l2 3h3l12 -3l2 3l12 -3h109v3h-36v5zM1044 1486 v-24h3v24h-3zM1044 1460v-20h3l2 17l-2 3h-3zM1044 1431v-36h3v36h-3zM1044 1373l-2 -17l2 -7h3v24h-3zM690 819v-8h-65l-12 3l-15 -3h-33l-37 3l-29 -3v3l-2 -3h-12l-10 3l-2 -3h-2l-8 3l-29 -3h-43v-4l10 2l12 -2v-5l-12 -3l-3 3h-2v-3q0 -5 9 -5l3 -2v-7h-5q-21 0 -24 17 q-10 0 -12 -61l2 -12l-2 -2v-2l5 -17h-5l-2 -3l-3 3l-2 12l2 7l-2 22v17l2 9l-2 3l2 12v9l-5 8v2l3 2v3l-8 2l-4 -5l-3 -120v-29l3 -15l-3 -7l3 -7h9v5h65l20 -3l50 5l27 -2h48l77 -3v-4l19 7q32 -1 32 -5l4 -5h3l2 10l-5 19v17l-2 2l2 3v24l-2 10l2 7h-2l2 2v24l-2 3l2 2v3 l-2 2l2 12v39q8 0 8 4z" />
<glyph unicode="&#xa8;" horiz-adv-x="959" d="M10 1810h197q36 0 57 -4l60 4q0 -12 -4 -12l2 -21h2v7h5q0 -17 -7 -17v-161l2 -2l-2 -3v-52l2 -10l-2 -2l2 -17v-24l-2 -3v-2l-60 2h-236l-24 -2v98l5 68q-7 0 -7 7l2 10l-2 2l2 2v34l-2 2l2 8l-2 7l2 24v33l-2 3l2 2v10l-2 2v3q10 0 10 4zM494 1807h197q36 0 57 -4l60 4 q0 -12 -4 -12l2 -21h2v7h5q0 -17 -7 -17v-161l2 -2l-2 -3v-52l2 -10l-2 -2l2 -17v-24l-2 -3v-2l-60 2h-236l-24 -2v98l5 68q-7 0 -7 7l2 10l-2 2l2 2v34l-2 2l2 8l-2 7l2 24v33l-2 3l2 2v10l-2 2v3q10 0 10 4z" />
<glyph unicode="&#xa9;" horiz-adv-x="1622" d="M740 1456q145 0 280 -56.5t239 -160.5q102 -101 158.5 -238t56.5 -283q0 -147 -56.5 -282t-162.5 -240q-105 -105 -239 -159.5t-283 -54.5q-146 0 -278 55.5t-238 160.5q-106 104 -161.5 237.5t-55.5 282.5q0 148 55.5 283t159.5 238q102 104 238.5 160.5t286.5 56.5z M257 1197q-95 -96 -146 -219.5t-51 -259.5q0 -137 51 -259t148 -219q98 -96 219 -147t256 -51q137 0 259.5 50.5t219.5 145.5q97 98 149 221.5t52 258.5q0 134 -52 259.5t-145 219.5q-96 96 -220 147.5t-258 51.5q-137 0 -262 -51.5t-220 -147.5zM863 1163v-3q0 -2 -5 -2v-1 h1l11 1l10 -3l2 2l9 -2h73q5 0 46 -17q27 0 53 -59q4 -17 4 -32l-3 -4l3 -8v-13l-2 -2l2 -1v-1l-6 -117l2 -3l-2 -4q3 -21 3 -59v-17l-3 -5l-53 -1h-92l-1 1l-1 -1l-47 1h-12q-12 0 -22 6q-7 0 -7 4v7l1 2l-1 1l4 52l-1 10v5l7 1v4q-7 0 -7 3v5q0 3 5 3v1l-2 4v3h2v4l-2 3 h-11l-12 2l-8 -2v1l-1 -1h-3l-16 4v-2q0 -4 -5 -4l-1 2h-1l-2 -2h-1l-6 2l-7 -2l-2 2h-1l-1 -2h-2l-12 2h-1q0 4 -3 4h-1l3 -4v-2h-7v4h-8q-2 0 -2 -4h-4v4l-56 -1h-54l-2 3v3h4v2h-4l-12 -2v-1l5 -6v-3q0 -16 -3 -16l1 -1v-65l-1 -1l1 -1l-1 -27v-40l-1 -57l1 -5l-1 -6 l1 -8l-1 -15v-28l-1 -15l1 -1l-1 -16v-36l1 -12l-3 -7l2 -1l-2 -22v-82l2 -2v-1q7 1 10 5h8l1 -13h2q0 13 5 13l80 -1l2 -1h1l1 1l40 -1h68q2 0 4 -7l1 2h1l4 -2v2l1 5q6 0 12 -5l3 7v2q-8 0 -8 9v10h9l7 2v1l-7 2h-6l-3 2v52q0 34 9 34l24 -1l196 -3l1 -1l-1 -47v-73 l-2 -19l2 -17v-53q0 -70 -28 -95q-32 -36 -75 -36h-9l-1 2l-1 -2h-7l-17 -1l-18 3h-127l-35 1l-1 -1h-1l-12 1h-23l-5 -1q-7 2 -41 2h-109q-7 0 -7 3l-2 -2h-28l-7 2l-8 -2h-30q-17 0 -37 13q-5 5 -20 10q-32 30 -32 46q-9 15 -9 34l3 5l-2 11l2 31l-2 4l2 11v31l1 15l-1 1 l1 23v47l1 26l4 1l-3 38l2 1v1l-3 12l1 4l-2 41l1 52l-1 22l1 1l-1 16v224l1 9l-1 1v1l1 24l-1 42l2 4l-1 7v3q5 37 19 58q20 30 46 30h1v4h-3v2q16 10 41 10h22l8 -1l1 1h1l59 -7v3h-3v4h106l7 -1l2 1h1l64 -1h38l17 1l30 -3l8 2h16v1l-6 1v3zM653 944l-1 -2v-1h6v1z M627 940h1l13 1v1h-11zM690 942v-1l7 -1h4l-3 2h-8zM713 941v-1h9v1h-9zM729 940v-2h7v2h-7zM758 938v-1l7 -1q0 2 -4 2h-3zM770 937l2 -2h4v1z" />
<glyph unicode="&#xad;" horiz-adv-x="1168" d="M298 837q0 -7 20 -10l60 2h3l11 -2l10 2h3q8 -6 23 -8l180 8l34 -2h13l21 2l42 -5l15 3h32l2 -3l3 3h5l11 -3l2 3l32 -3h23l11 -3l10 3h16l26 -3l15 3l21 -8v5l32 -2h10l3 -3h2v5h11l-3 -2v-3h5v5q12 0 19 -13l2 -2h3l-3 -32v-57l-2 -3l2 -2v-11l-2 -15l2 -13l-2 -3l2 -3 l-2 -70v-91l-3 -19l-37 3l-67 -3h-6l-2 3l-3 -3h-10l-11 3l-2 -3l-40 3h-143l-13 2l-16 -2h-321l-8 5l-5 -5l-157 2l-7 3l-3 -3h-3l-49 3h-18l-3 3l-3 -3h-83l-5 5l2 11l-5 70h3l-3 3l3 52v10l2 183l5 5l11 -5l26 3v-8l18 3h5l71 2v3l3 -3l44 3h42l23 -3q12 5 45 8z" />
<glyph unicode="&#xae;" horiz-adv-x="1628" d="M740 1456q145 0 280 -56.5t239 -160.5q102 -101 158.5 -238t56.5 -283q0 -147 -56.5 -282t-162.5 -240q-105 -105 -239 -159.5t-283 -54.5q-146 0 -278 55.5t-238 160.5q-106 104 -161.5 237.5t-55.5 282.5q0 148 55.5 283t159.5 238q102 104 238.5 160.5t286.5 56.5z M257 1197q-95 -96 -146 -219.5t-51 -259.5q0 -137 51 -259t148 -219q98 -96 219 -147t256 -51q137 0 259.5 50.5t219.5 145.5q97 98 149 221.5t52 258.5q0 134 -52 259.5t-145 219.5q-96 96 -220 147.5t-258 51.5q-137 0 -262 -51.5t-220 -147.5zM428 1161h45l11 -1l5 1 l6 -1l1 1l20 -2l8 1l101 -1l8 -2l4 2l22 -2l13 2q40 -3 107 -3l22 -1l9 1l4 -1l6 1l2 -1h1l4 1l4 -1l10 1l11 -1l8 1l1 -1l6 1h3l4 -1l6 1h49l14 -1l5 1q9 -1 9 -3l6 2h3q21 0 38 -12l-1 -5q13 -9 24 -9q22 -15 32 -49l4 -16l-2 -65v-103l-1 -11l1 -10v-1l-1 -5l1 -1v-1 q-3 -82 -11 -82h-3q0 4 -2 4v-1l1 -9h-1q-34 -43 -43 -43l-7 -2l-9 2q0 -9 -20 -9h-2l-3 2l-8 -2h-8v-3l33 -5l-3 -5l1 -1l1 1h15q15 0 26 -18h6q24 -24 32 -61l3 -10l-1 -45v-2l-2 -11l2 -6l-2 -25l2 -11l-3 -13l1 -14v-29l-1 -1l1 -1v-11l-1 -1l1 -1l-5 -68l4 -1l-2 -1 l2 -19v-55l-2 -12l2 -8v-16l-2 -5l2 -1l-2 -4l2 -9l-2 -43v-30l-1 -9l1 -11v-21l-1 -1l1 -1l-1 -15v-5l1 -12l-1 -12v-15l-1 -4q0 -4 8 -4v-8h-4q-108 106 -171 174q-20 18 -42 43l2 1v2q0 3 -5 3v16l-1 25l3 84l-2 6l3 60l-1 5l3 22q-5 0 -5 3l2 45v3q0 3 5 3q0 5 -4 5v3h3 v3l-4 1q1 10 4 10h6q0 4 -9 16v9l6 1v1h-2v4h4v2l-35 2h-24l-170 2q-1 -12 -9 -12q0 -3 7 -3v-4q-5 0 -5 -2v-2l5 -1q-1 -28 -4 -28l2 -23l-3 -164l-1 -9l2 -19l-1 -14v-48l5 -2l-1 -2v-1l-8 1l-7 -1l-2 1h-1l-4 -1l-53 3h-114l-7 2l-2 -2h-1q-19 2 -19 5v15l1 25l-1 1v1 l1 4l-1 1l1 7v5l-1 5l2 14l-1 5l8 377l-1 8l2 20l-1 23v19l3 16l-3 77q3 32 3 135l-2 4l2 8v45l1 52l1 1h4q2 0 2 -4l2 -29h1v15l-1 18zM422 1123v-55l1 -8l-1 -8l1 -1v-1l-1 -1l1 -6v-16l1 -6h2v30l-2 33h2l-2 1v19l-1 19h-1zM424 1018v-10h2v10h-2zM626 942v-1l-1 -22h-8 l-3 -3v-1h11v-58l-6 -7q4 0 4 -3v-19l22 3v-1l1 1h5l13 -1l9 1l1 -1h1l18 3l2 -2h41l6 -1l5 1h2l7 -1l7 1l7 -1l6 1l10 -1l13 1q15 0 20 -5q0 4 3 4h19l1 -9h3l3 12l-2 12v57h2v-3h2v7l-4 22v4l2 8l-2 2l-7 -1l-2 2l-9 -1h-53l-21 1l-1 -1l-6 1h-10l-8 -1l-12 1h-39l-21 1 l-5 -1l-9 1l-1 -1l-6 1h-8zM848 887v-32h2v32h-2zM850 849v-8h1v8h-1zM848 569v-2h8v2h-8z" />
<glyph unicode="&#xb1;" horiz-adv-x="1168" d="M298 346q0 -7 20 -10l60 2h3l11 -2l10 2h3q8 -6 23 -8l180 8l34 -2h13l21 2l42 -5l15 3h32l2 -3l3 3h5l11 -3l2 3l32 -3h23l11 -3l10 3h16l26 -3l15 3l21 -8v5l32 -2h10l3 -3h2v5h11l-3 -2v-3h5v5q12 0 19 -13l2 -2h3l-3 -32v-57l-2 -3l2 -2v-11l-2 -15l2 -13l-2 -3l2 -3 l-2 -70v-91l-3 -19l-37 3l-67 -3h-6l-2 3l-3 -3h-10l-11 3l-2 -3l-40 3h-143l-13 2l-16 -2h-321l-8 5l-5 -5l-157 2l-7 3l-3 -3h-3l-49 3h-18l-3 3l-3 -3h-83l-5 5l2 11l-5 70h3l-3 3l3 52v10l2 183l5 5l11 -5l26 3v-8l18 3h5l71 2v3l3 -3l44 3h42l23 -3q12 5 45 8z M529 1520h23v-8h7l-2 3v5h45l11 -3l10 3h7l13 -3v-5h-2l-3 3l-3 -3h-27l-3 3h-3v-3l3 -2h53l3 2h2l-2 3v5h15v-3l3 -328l2 -7l13 2h2q31 0 31 -18v-5h3v21h73l38 -3l16 3l84 -3l2 -2h3l10 2l66 3v-21l-3 -2l3 -3v-23l-3 -2l3 -3v-20l-3 -3l3 -2v-148l2 -61l-2 -7l2 -26v-7 l-5 -5h-5l-7 2l-11 -2l-132 2l-162 -5l-16 5v-2l-5 -13l5 -5v-18q-23 -2 -23 -8q23 0 23 -5v-5l3 -51h-3l3 -2v-3l-3 -132l3 -104h-20l-11 3l-2 -3l-10 3l-69 -3h-216q-13 6 -13 23l3 28l-3 15l3 3l-3 12v69l3 10l-3 10l3 3l-3 13v147q8 0 8 5v3l-5 5h-8v-8h-23l-2 13v23 l-5 -5v-23l-8 -8l-5 5l-5 -5h-74l-2 3l-3 -3h-188q-25 0 -25 20l2 18l-2 8l2 10l-2 23l2 10l-2 13h2l-2 7l2 36l-5 51l3 23l-3 38h3l-3 2v31l5 5l3 -3v3l-3 36v2l26 3h254q5 0 5 -8h2v8h16l7 -5v5h3l10 -3l10 3q0 -8 5 -8h3l5 13q-8 16 -8 35v3l-2 94l2 10l-2 36v152l33 5 l2 -2l31 2h7l115 -2v5z" />
<glyph unicode="&#xb4;" horiz-adv-x="1024" d="M6 1849h2l5 -5v-9h-5v-8l5 -4q3 16 10 16h312v-4l-96 -101q-8 0 -34 -36q-6 0 -29 -27h8v-5q-23 -26 -29 -26l-7 2q-10 -24 -24 -24q-7 -17 -29 -26q0 -11 -68 -67l-7 -3v5l5 7v3q-7 0 -7 7l-3 144h-2v-36h-5l-5 36l3 2l-3 24v20l-2 7l2 12v46l-2 33z" />
<glyph unicode="&#xb6;" horiz-adv-x="1216" d="M308 1430l140 -5h199l10 3l8 -3l226 -5l53 3h40l2 2l8 -2l62 2v-2q-5 -74 -8 -357l-2 -10l2 -2l-2 -55l-5 -406l5 -23v-84l-3 -10l3 -3l-3 -12v-8l3 -7l-3 -13v-134l-5 -122l3 -13l-5 -5v-10l2 3h5v-40l-2 -12l-3 2h-2v-7l2 2h5v-35h-2l-3 3h-2v-5h7l-7 -30l2 -3v-2 l-2 -3l2 -22l3 -219l-3 -120h-2q-273 264 -336 339l2 2l-5 40l3 8l-3 84v20l-2 13l2 15v92l-2 2l2 3v67l-2 28l2 20l-2 7l2 15l-2 10l2 10l-2 10h2l-2 2l2 13v62l-2 13l10 5v7l-13 -2l-17 2v27h-3q-2 -29 -10 -29h-25l-2 2l-3 -2h-2l-25 2l-3 -2l-12 2h-269l-30 -2v2l-2 -2 h-5l-15 2l-25 -2h-68l-7 4l-3 -7q-107 24 -107 37q0 6 -20 13q-25 23 -37 104l-5 48l2 2l-2 13v134q1 18 5 18l-5 67l2 8l-2 12l2 7h-2l2 3v2l-2 78l5 35l-5 10l2 2v2l-2 15l2 8l-2 7l2 53v22q8 0 8 5l-5 15v5q0 56 45 107q51 53 124 53h3l-3 -13h3l7 3l3 -3v5l-3 8h33 l10 -3l10 3h17l13 -3zM528 1410v-15h2v15h-2z" />
<glyph unicode="&#xb7;" horiz-adv-x="481" d="M10 818h197q36 0 57 -4l60 4q0 -12 -4 -12l2 -21h2v7h5q0 -17 -7 -17v-161l2 -2l-2 -3v-52l2 -10l-2 -2l2 -17v-24l-2 -3v-2l-60 2h-236l-24 -2v98l5 68q-7 0 -7 7l2 10l-2 2l2 2v34l-2 2l2 8l-2 7l2 24v33l-2 3l2 2v10l-2 2v3q10 0 10 4z" />
<glyph unicode="&#xc0;" horiz-adv-x="1237" d="M465 1439l25 -2h26l72 -2v-2l2 2l35 -2h64l-2 -10l158 6l9 -2l10 2l23 -2l49 4q49 0 74 -23q39 -21 64 -84q6 -35 8 -93l-2 -2l2 -10v-158l-2 -29l2 -37v-302q0 -71 4 -99l-2 -2l2 -14v-91l-4 -16v-247l2 -21l-2 -18v-87l2 -76l-8 -141l2 -3l-2 -14v-51l-2 -19l2 -2v-2 l-2 -33v-29l2 -8l-2 -8v-33h-7q-95 85 -236 222l2 2v2q-19 7 -99 84v7l7 2q-7 7 -7 14v97l2 8l-2 8v29l2 2l-2 2v105l2 2l-2 2v99l2 8l-2 8v6l5 29l-5 4v19l-2 33l4 14l-4 12v7h9q-7 7 -7 14q7 0 7 4l-2 6h32l5 4v2h-46l2 2v3l-4 4h-4l-6 -4h-4v4h-2l-11 -4l-12 2l-92 -5 l-2 3l-21 -3h-51l-19 -2l-6 2v-2l-2 2h-17l-18 3l-21 -3h-35v13q-4 0 -4 -13h-18l-21 3l-2 -7l2 -12q-18 -1 -18 -6v-2l16 -2l-8 -140l6 -95h-2q8 -32 8 -111v-156l-8 -8h-10l-15 4l-207 -2l-2 -2h-2l-2 2h-3l-16 -4l-53 2h-33q-12 7 -15 76l2 8l-4 37l2 2l-2 15v104l-2 21 h2l-2 2v181l6 97l-6 16v107l-2 49l2 2v2l-2 9l2 14l-2 17l-2 92l2 2v2l-2 13l2 39q-1 30 -4 30l2 2v29l-2 11h2l-2 2l2 10v55l-2 11l2 12v56l-2 8l2 8v33l2 37l-2 45v121l2 13l-2 2v2l2 6l-2 19v6l56 -4l6 2v4l-11 2v6h393zM699 1079l-78 4l-189 -4l-12 2l-6 -2l-9 4l-10 -2 h-29l-2 9q-7 -7 -12 -7v-154l-6 -8v-2q6 0 6 -4l-2 -19l2 -2l10 2h29q0 -8 4 -8t4 8l35 2l68 -2l16 2l3 -2h2l8 2v-2l2 2h2l2 -2h2l2 2h2l13 -2l14 2l6 -2l8 2l9 -2l47 4l16 -2h17v4h2l6 -4h35l2 -10h2l2 10h17v4q-9 0 -9 9l9 8l-17 2l2 6l-4 37v49l14 17v2h-2l-10 -8h-2v33 l10 -2h9l4 4l-15 2h-8v8l6 10l-10 8l-2 -6h-6l-2 11h-2q-5 0 -5 -13zM698 1835l-2 -33v-46l2 -12l-2 -7v-20l-3 -24l3 -2l-5 -36h-5v36h-2l-3 -144q0 -7 -7 -7v-3l5 -7v-5l-7 3q-68 56 -68 67q-22 9 -29 26q-14 0 -24 24l-7 -2q-6 0 -29 26v5h8q-23 27 -29 27q-26 36 -34 36 l-96 101v4h312q7 0 10 -16l5 4v8h-5v9l5 5h2z" />
<glyph unicode="&#xc1;" horiz-adv-x="1237" d="M465 1439l25 -2h26l72 -2v-2l2 2l35 -2h64l-2 -10l158 6l9 -2l10 2l23 -2l49 4q49 0 74 -23q39 -21 64 -84q6 -35 8 -93l-2 -2l2 -10v-158l-2 -29l2 -37v-302q0 -71 4 -99l-2 -2l2 -14v-91l-4 -16v-247l2 -21l-2 -18v-87l2 -76l-8 -141l2 -3l-2 -14v-51l-2 -19l2 -2v-2 l-2 -33v-29l2 -8l-2 -8v-33h-7q-95 85 -236 222l2 2v2q-19 7 -99 84v7l7 2q-7 7 -7 14v97l2 8l-2 8v29l2 2l-2 2v105l2 2l-2 2v99l2 8l-2 8v6l5 29l-5 4v19l-2 33l4 14l-4 12v7h9q-7 7 -7 14q7 0 7 4l-2 6h32l5 4v2h-46l2 2v3l-4 4h-4l-6 -4h-4v4h-2l-11 -4l-12 2l-92 -5 l-2 3l-21 -3h-51l-19 -2l-6 2v-2l-2 2h-17l-18 3l-21 -3h-35v13q-4 0 -4 -13h-18l-21 3l-2 -7l2 -12q-18 -1 -18 -6v-2l16 -2l-8 -140l6 -95h-2q8 -32 8 -111v-156l-8 -8h-10l-15 4l-207 -2l-2 -2h-2l-2 2h-3l-16 -4l-53 2h-33q-12 7 -15 76l2 8l-4 37l2 2l-2 15v104l-2 21 h2l-2 2v181l6 97l-6 16v107l-2 49l2 2v2l-2 9l2 14l-2 17l-2 92l2 2v2l-2 13l2 39q-1 30 -4 30l2 2v29l-2 11h2l-2 2l2 10v55l-2 11l2 12v56l-2 8l2 8v33l2 37l-2 45v121l2 13l-2 2v2l2 6l-2 19v6l56 -4l6 2v4l-11 2v6h393zM699 1079l-78 4l-189 -4l-12 2l-6 -2l-9 4l-10 -2 h-29l-2 9q-7 -7 -12 -7v-154l-6 -8v-2q6 0 6 -4l-2 -19l2 -2l10 2h29q0 -8 4 -8t4 8l35 2l68 -2l16 2l3 -2h2l8 2v-2l2 2h2l2 -2h2l2 2h2l13 -2l14 2l6 -2l8 2l9 -2l47 4l16 -2h17v4h2l6 -4h35l2 -10h2l2 10h17v4q-9 0 -9 9l9 8l-17 2l2 6l-4 37v49l14 17v2h-2l-10 -8h-2v33 l10 -2h9l4 4l-15 2h-8v8l6 10l-10 8l-2 -6h-6l-2 11h-2q-5 0 -5 -13zM373 1849h2l5 -5v-9h-5v-8l5 -4q3 16 10 16h312v-4l-96 -101q-8 0 -34 -36q-6 0 -29 -27h8v-5q-23 -26 -29 -26l-7 2q-10 -24 -24 -24q-7 -17 -29 -26q0 -11 -68 -67l-7 -3v5l5 7v3q-7 0 -7 7l-3 144h-2 v-36h-5l-5 36l3 2l-3 24v20l-2 7l2 12v46l-2 33z" />
<glyph unicode="&#xc2;" horiz-adv-x="1237" d="M465 1439l25 -2h26l72 -2v-2l2 2l35 -2h64l-2 -10l158 6l9 -2l10 2l23 -2l49 4q49 0 74 -23q39 -21 64 -84q6 -35 8 -93l-2 -2l2 -10v-158l-2 -29l2 -37v-302q0 -71 4 -99l-2 -2l2 -14v-91l-4 -16v-247l2 -21l-2 -18v-87l2 -76l-8 -141l2 -3l-2 -14v-51l-2 -19l2 -2v-2 l-2 -33v-29l2 -8l-2 -8v-33h-7q-95 85 -236 222l2 2v2q-19 7 -99 84v7l7 2q-7 7 -7 14v97l2 8l-2 8v29l2 2l-2 2v105l2 2l-2 2v99l2 8l-2 8v6l5 29l-5 4v19l-2 33l4 14l-4 12v7h9q-7 7 -7 14q7 0 7 4l-2 6h32l5 4v2h-46l2 2v3l-4 4h-4l-6 -4h-4v4h-2l-11 -4l-12 2l-92 -5 l-2 3l-21 -3h-51l-19 -2l-6 2v-2l-2 2h-17l-18 3l-21 -3h-35v13q-4 0 -4 -13h-18l-21 3l-2 -7l2 -12q-18 -1 -18 -6v-2l16 -2l-8 -140l6 -95h-2q8 -32 8 -111v-156l-8 -8h-10l-15 4l-207 -2l-2 -2h-2l-2 2h-3l-16 -4l-53 2h-33q-12 7 -15 76l2 8l-4 37l2 2l-2 15v104l-2 21 h2l-2 2v181l6 97l-6 16v107l-2 49l2 2v2l-2 9l2 14l-2 17l-2 92l2 2v2l-2 13l2 39q-1 30 -4 30l2 2v29l-2 11h2l-2 2l2 10v55l-2 11l2 12v56l-2 8l2 8v33l2 37l-2 45v121l2 13l-2 2v2l2 6l-2 19v6l56 -4l6 2v4l-11 2v6h393zM699 1079l-78 4l-189 -4l-12 2l-6 -2l-9 4l-10 -2 h-29l-2 9q-7 -7 -12 -7v-154l-6 -8v-2q6 0 6 -4l-2 -19l2 -2l10 2h29q0 -8 4 -8t4 8l35 2l68 -2l16 2l3 -2h2l8 2v-2l2 2h2l2 -2h2l2 2h2l13 -2l14 2l6 -2l8 2l9 -2l47 4l16 -2h17v4h2l6 -4h35l2 -10h2l2 10h17v4q-9 0 -9 9l9 8l-17 2l2 6l-4 37v49l14 17v2h-2l-10 -8h-2v33 l10 -2h9l4 4l-15 2h-8v8l6 10l-10 8l-2 -6h-6l-2 11h-2q-5 0 -5 -13zM411 1816q0 -3 11 -7l60 2l10 -2l11 2q2 -8 15 -8h21l58 8l31 -5l21 3l36 -3h5l3 -3l3 3h15l11 -3l2 3l27 -3h36l5 -5l13 3h16l13 -3v5q24 0 24 -7q0 -6 7 -6v-73l-2 -15l2 -3l-2 -13v-31l2 -3l-2 -3 v-112l-3 -52h-136l-2 3l-3 -3h-52l-3 3l-2 -3l-19 3h-39l-2 2l-3 -2h-29l-44 -3v3l-3 -3h-2l-73 3v2l-3 -2h-55l-39 2v-2l-2 2h-66l-47 3l-23 -3l-24 3l-18 -3l-10 8l2 8l-5 47l3 2v3l-3 11l3 7l-3 3l3 39l2 193l3 3l18 -3l13 3v-8l125 8l45 -3z" />
<glyph unicode="&#xc3;" horiz-adv-x="1237" d="M465 1439l25 -2h26l72 -2v-2l2 2l35 -2h64l-2 -10l158 6l9 -2l10 2l23 -2l49 4q49 0 74 -23q39 -21 64 -84q6 -35 8 -93l-2 -2l2 -10v-158l-2 -29l2 -37v-302q0 -71 4 -99l-2 -2l2 -14v-91l-4 -16v-247l2 -21l-2 -18v-87l2 -76l-8 -141l2 -3l-2 -14v-51l-2 -19l2 -2v-2 l-2 -33v-29l2 -8l-2 -8v-33h-7q-95 85 -236 222l2 2v2q-19 7 -99 84v7l7 2q-7 7 -7 14v97l2 8l-2 8v29l2 2l-2 2v105l2 2l-2 2v99l2 8l-2 8v6l5 29l-5 4v19l-2 33l4 14l-4 12v7h9q-7 7 -7 14q7 0 7 4l-2 6h32l5 4v2h-46l2 2v3l-4 4h-4l-6 -4h-4v4h-2l-11 -4l-12 2l-92 -5 l-2 3l-21 -3h-51l-19 -2l-6 2v-2l-2 2h-17l-18 3l-21 -3h-35v13q-4 0 -4 -13h-18l-21 3l-2 -7l2 -12q-18 -1 -18 -6v-2l16 -2l-8 -140l6 -95h-2q8 -32 8 -111v-156l-8 -8h-10l-15 4l-207 -2l-2 -2h-2l-2 2h-3l-16 -4l-53 2h-33q-12 7 -15 76l2 8l-4 37l2 2l-2 15v104l-2 21 h2l-2 2v181l6 97l-6 16v107l-2 49l2 2v2l-2 9l2 14l-2 17l-2 92l2 2v2l-2 13l2 39q-1 30 -4 30l2 2v29l-2 11h2l-2 2l2 10v55l-2 11l2 12v56l-2 8l2 8v33l2 37l-2 45v121l2 13l-2 2v2l2 6l-2 19v6l56 -4l6 2v4l-11 2v6h393zM699 1079l-78 4l-189 -4l-12 2l-6 -2l-9 4l-10 -2 h-29l-2 9q-7 -7 -12 -7v-154l-6 -8v-2q6 0 6 -4l-2 -19l2 -2l10 2h29q0 -8 4 -8t4 8l35 2l68 -2l16 2l3 -2h2l8 2v-2l2 2h2l2 -2h2l2 2h2l13 -2l14 2l6 -2l8 2l9 -2l47 4l16 -2h17v4h2l6 -4h35l2 -10h2l2 10h17v4q-9 0 -9 9l9 8l-17 2l2 6l-4 37v49l14 17v2h-2l-10 -8h-2v33 l10 -2h9l4 4l-15 2h-8v8l6 10l-10 8l-2 -6h-6l-2 11h-2q-5 0 -5 -13zM411 1816q0 -3 11 -7l60 2l10 -2l11 2q2 -8 15 -8h21l58 8l31 -5l21 3l36 -3h5l3 -3l3 3h15l11 -3l2 3l27 -3h36l5 -5l13 3h16l13 -3v5q24 0 24 -7q0 -6 7 -6v-73l-2 -15l2 -3l-2 -13v-31l2 -3l-2 -3 v-112l-3 -52h-136l-2 3l-3 -3h-52l-3 3l-2 -3l-19 3h-39l-2 2l-3 -2h-29l-44 -3v3l-3 -3h-2l-73 3v2l-3 -2h-55l-39 2v-2l-2 2h-66l-47 3l-23 -3l-24 3l-18 -3l-10 8l2 8l-5 47l3 2v3l-3 11l3 7l-3 3l3 39l2 193l3 3l18 -3l13 3v-8l125 8l45 -3z" />
<glyph unicode="&#xc4;" horiz-adv-x="1237" d="M465 1439l25 -2h26l72 -2v-2l2 2l35 -2h64l-2 -10l158 6l9 -2l10 2l23 -2l49 4q49 0 74 -23q39 -21 64 -84q6 -35 8 -93l-2 -2l2 -10v-158l-2 -29l2 -37v-302q0 -71 4 -99l-2 -2l2 -14v-91l-4 -16v-247l2 -21l-2 -18v-87l2 -76l-8 -141l2 -3l-2 -14v-51l-2 -19l2 -2v-2 l-2 -33v-29l2 -8l-2 -8v-33h-7q-95 85 -236 222l2 2v2q-19 7 -99 84v7l7 2q-7 7 -7 14v97l2 8l-2 8v29l2 2l-2 2v105l2 2l-2 2v99l2 8l-2 8v6l5 29l-5 4v19l-2 33l4 14l-4 12v7h9q-7 7 -7 14q7 0 7 4l-2 6h32l5 4v2h-46l2 2v3l-4 4h-4l-6 -4h-4v4h-2l-11 -4l-12 2l-92 -5 l-2 3l-21 -3h-51l-19 -2l-6 2v-2l-2 2h-17l-18 3l-21 -3h-35v13q-4 0 -4 -13h-18l-21 3l-2 -7l2 -12q-18 -1 -18 -6v-2l16 -2l-8 -140l6 -95h-2q8 -32 8 -111v-156l-8 -8h-10l-15 4l-207 -2l-2 -2h-2l-2 2h-3l-16 -4l-53 2h-33q-12 7 -15 76l2 8l-4 37l2 2l-2 15v104l-2 21 h2l-2 2v181l6 97l-6 16v107l-2 49l2 2v2l-2 9l2 14l-2 17l-2 92l2 2v2l-2 13l2 39q-1 30 -4 30l2 2v29l-2 11h2l-2 2l2 10v55l-2 11l2 12v56l-2 8l2 8v33l2 37l-2 45v121l2 13l-2 2v2l2 6l-2 19v6l56 -4l6 2v4l-11 2v6h393zM699 1079l-78 4l-189 -4l-12 2l-6 -2l-9 4l-10 -2 h-29l-2 9q-7 -7 -12 -7v-154l-6 -8v-2q6 0 6 -4l-2 -19l2 -2l10 2h29q0 -8 4 -8t4 8l35 2l68 -2l16 2l3 -2h2l8 2v-2l2 2h2l2 -2h2l2 2h2l13 -2l14 2l6 -2l8 2l9 -2l47 4l16 -2h17v4h2l6 -4h35l2 -10h2l2 10h17v4q-9 0 -9 9l9 8l-17 2l2 6l-4 37v49l14 17v2h-2l-10 -8h-2v33 l10 -2h9l4 4l-15 2h-8v8l6 10l-10 8l-2 -6h-6l-2 11h-2q-5 0 -5 -13zM140 1810h197q36 0 57 -4l60 4q0 -12 -4 -12l2 -21h2v7h5q0 -17 -7 -17v-161l2 -2l-2 -3v-52l2 -10l-2 -2l2 -17v-24l-2 -3v-2l-60 2h-236l-24 -2v98l5 68q-7 0 -7 7l2 10l-2 2l2 2v34l-2 2l2 8l-2 7 l2 24v33l-2 3l2 2v10l-2 2v3q10 0 10 4zM624 1807h197q36 0 57 -4l60 4q0 -12 -4 -12l2 -21h2v7h5q0 -17 -7 -17v-161l2 -2l-2 -3v-52l2 -10l-2 -2l2 -17v-24l-2 -3v-2l-60 2h-236l-24 -2v98l5 68q-7 0 -7 7l2 10l-2 2l2 2v34l-2 2l2 8l-2 7l2 24v33l-2 3l2 2v10l-2 2v3 q10 0 10 4z" />
<glyph unicode="&#xc6;" horiz-adv-x="1936" d="M1529 1435l20 -3h10l62 3v-3l2 3h77l10 -3l10 3h57v-5h3l-3 -43v-228l-2 -2l2 -3v-67l-5 -5h-22l-15 3l-25 -3h-194q-44 0 -57 5l-59 -5h-5v3l-42 -3h-40l-47 3l-3 -3h-2l-10 3h-5l-12 -3l-3 3v-3l-2 3h-3l-10 -3l-10 5q-15 -5 -64 -5h-52l-18 5l-5 -7l3 -3l-3 -12v-134 l-17 -5v-3l15 -12l2 -10l114 -3l23 3v-3l2 3l25 -3h77l2 3l3 -3h151l3 3l2 -3h8v3l17 -3h22l53 -2l7 2v-2l2 2l13 -2l12 2v-72l-2 -9l2 -3l-2 -30v-10l2 -10l-2 -17v-94l-3 -3l3 -2v-8l-3 -2l3 -3v-54l-3 -3l3 -2v-3l-3 -2l3 -3v-15h-20l-12 3l-3 -3v3l-2 -3l-57 3 q-176 -10 -261 -10l-15 2l-10 -4l-15 2l-2 -2h-3l-2 2l-25 -2h-42l-15 2l-13 -2h-22l-15 9l-2 -2v-15h-15q1 -6 20 -12v-10l-3 -8l3 -12v-13l-3 -9l3 -10v-3l-3 -2l3 -3v-7l-3 -3l3 -2l-3 -42v-25q10 -9 10 -15q5 0 5 7l10 -2l17 2h177l34 3l8 -3l2 3l25 -3h199l27 3l7 -3 l8 3l35 -3l22 3l2 -3h3l2 3l30 -3h32l25 3l23 -3h7l5 -5v-57l-2 -25l2 -22v-17l-2 -3l2 -2v-3l-2 -2v-3l2 -7l-2 -27l2 -10l-2 -25v-149h-25l-10 2l-10 -2v2l-3 -2l-29 2h-23l-37 -2v2l-2 -2h-3l-2 2l-3 -2h-2l-8 2l-12 -2h-5l-13 2l-15 -2h-4l-3 2l-2 -2h-3l-12 2l-15 -2 h-8l-12 2l-12 -2l-33 2v-2l-7 2l-8 -2h-5v2l-29 -2h-30l-10 -3l-13 5l-12 -2h-27l-3 -3l-2 3h-50l-10 -3l-10 3h-2l-8 -3l-12 3h-15l-2 -3l-3 3h-2l-3 -3l-12 3h-5l-10 -3l-3 3h-7v-3l-17 3h-15l-15 -3l-8 3l-2 -3l-13 3h-7l-2 -3l-3 3l-62 -3h-27l-3 3l-2 -3h-283v169 l-3 114l3 3v2l-3 10h3l-3 3v17l3 25l-3 20l3 2v3l-3 2v3l5 101l-5 5v13l3 10l-3 10v17l5 8l-7 4l-5 -4h-10l-3 12h-5l-2 -12l-57 7l-84 -7h-157l-30 2q-4 0 -7 -154l2 -7l-2 -8l2 -2l-2 -13l2 -12l-2 -12l2 -8l-2 -2h2l-2 -8l2 -15l-2 -10l2 -87v-203l-49 -3h-65l-27 -2 l-20 2h-5l-15 -2l-10 2l-10 -2l-14 2l-25 -2l-35 2l-12 -2l-18 2l-12 -2l-15 2l-13 -2l-2 2v3l5 5l-3 2v15l3 33l-3 22l3 2l-3 13v25l3 7l-3 12v65l3 2l-3 3v5l3 2l-3 3v169l-2 15l2 12v62l3 25l-5 67h2l-2 2v55l2 22l-2 25v52l-3 15l3 12v10l-3 3l3 2v3l-3 12h3l-3 3v2 l3 13l-3 12l3 20l-3 52l3 12l-3 20v5l3 10l-3 8l3 19l-3 18l3 2v3l-3 15v2l3 10l-3 8l3 19v5h-3l3 25v75l2 10l-2 2v3l2 2l-2 12l7 142v5h-2q0 -8 -5 -8h-3v3l3 27l-5 15v70h2l187 2l15 3l7 -3l12 3l3 -3h2l3 3h2l3 -3h2l10 3l8 -3l2 3l13 -3h9l13 3l15 -3h12l15 3l3 -3h2 l3 3h2l20 -3l15 3h5v-3l42 3h193l3 2l2 -2h5l10 2l3 -2h2l8 2l2 -2v2l3 -2l116 2h728zM687 1080l-9 2l-38 -2l-2 2l-18 -2h-131l-25 -3l-22 3h-87v-3q0 -5 7 -5v-7h-7v-139l-10 -3v-5q10 0 10 -5l-5 -15h208l3 3l2 -3l30 3h129v5q-7 0 -7 5v67h2l3 -3h2q-7 43 -7 95v15z" />
<glyph unicode="&#xc8;" horiz-adv-x="1213" d="M4 1434h140l8 -2l6 2l15 -2l18 2v-2l3 2l31 -2h43l9 -2l8 2l2 -2l2 2h7l8 -2l14 2h127l2 -2l3 2h2l231 2h16l29 -2l21 2l9 -2l8 2l12 -2l21 2h2l9 -2l2 2h6v-2l25 2h25v-4l27 2l6 -2l19 4l42 -2h112v-38q-13 -44 -13 -122v-190l-20 -2h-63l-87 -2v2l-2 -2h-2q-21 1 -21 4 l-6 -4l-11 2l-14 -2q-15 2 -15 4l-17 -4l-8 4l-2 -2h-50l-2 2l-2 -2h-25l-2 2l-2 -2h-36l-12 2l-11 -2h-12l-2 2l-2 -2h-38l-2 2l-2 -2h-8l-2 2l-2 -2h-17l-2 2l-2 -2h-21l-2 2l-2 -2h-2l-50 4l-38 -2h-77q0 9 -4 9t-4 -7l-2 -2h-35l-9 -8l31 2h7l2 -15l-6 -2v-4h4v-4 q0 -4 -9 -4v-2q9 0 9 -6l-2 -7l2 -2h2l-2 -87v-44l4 -10h2l6 4h2q15 -1 15 -4q30 4 81 4l2 -2l2 2l354 -2h69l4 -4v-65l-8 -54l2 -23l-2 -33q4 -40 4 -100l-2 -75h-5v-2l-70 4h-27l-17 2l-23 -2h-158l-17 -2l-16 2h-54l-19 2l-6 -2l-3 2l-12 -2l-25 2l-19 -2l-16 6v-4h-2 l-9 2l-14 -4q-7 4 -7 25q-20 -31 -20 -62l2 -2q-13 -2 -13 -7h13v-8l-2 -13l4 -8l-2 -33q0 -5 -15 -6v-3l15 -12v-27l-15 -2v-4h15v-17q0 -5 16 -8h2l-2 2v6h167v-6l6 6l29 -2l2 2h2l9 -2l16 2l13 -2l6 2l15 -2l2 2h2l2 -2h2l10 2l46 -2h202l13 2l10 -2h46l33 -2l2 2h2 l23 -2h19q14 0 14 4q13 -4 13 -8v-27l-2 -29l2 -9h-2l2 -2v-2l-2 -19l2 -8l-2 -2l2 -6l-2 -46l2 -54l-2 -11l2 -10h-2l2 -6l-2 -2l2 -7l-2 -47l2 -30l-2 -2v-2l2 -6l-2 -25h-50l-13 2l-2 -2l-25 2h-62l-61 6l-122 -2l-9 -2l-10 4q-9 -4 -27 -4h-52l-11 2l-12 -2h-127l-23 -2 l-8 2l-2 -2l-11 2l-12 -2h-4v2l-25 -2h-23l-25 2l-25 -2h-21l-21 2l-10 -2l-67 2l-12 -2l-17 2l-12 -2l-19 2h-13l-50 -2l-10 4l2 11h-6q0 -15 -31 -15l-40 2v4l-2 25l4 32l-2 2l2 10v35l2 30l-2 8l2 2l-2 6l2 61v18q2 14 6 15q-6 23 -6 102v553q6 52 9 150l-3 11l3 6l-3 8 h3q-9 20 -9 34v12h4v-4h2v8q0 11 -6 11v8l2 2l-2 2v8l6 3l-4 12l2 19l-4 81l4 56v4h-2l-2 -14h-4v68zM8 1349v-4h2q7 68 15 68q7 0 21 -62v-2h2v4q-13 66 -21 66h-2q-9 0 -17 -70zM50 1336v-8h2v8h-2zM52 1326v-6l2 -9h2v2l-2 13h-2zM698 1835l-2 -33v-46l2 -12l-2 -7v-20 l-3 -24l3 -2l-5 -36h-5v36h-2l-3 -144q0 -7 -7 -7v-3l5 -7v-5l-7 3q-68 56 -68 67q-22 9 -29 26q-14 0 -24 24l-7 -2q-6 0 -29 26v5h8q-23 27 -29 27q-26 36 -34 36l-96 101v4h312q7 0 10 -16l5 4v8h-5v9l5 5h2z" />
<glyph unicode="&#xc9;" horiz-adv-x="1213" d="M4 1434h140l8 -2l6 2l15 -2l18 2v-2l3 2l31 -2h43l9 -2l8 2l2 -2l2 2h7l8 -2l14 2h127l2 -2l3 2h2l231 2h16l29 -2l21 2l9 -2l8 2l12 -2l21 2h2l9 -2l2 2h6v-2l25 2h25v-4l27 2l6 -2l19 4l42 -2h112v-38q-13 -44 -13 -122v-190l-20 -2h-63l-87 -2v2l-2 -2h-2q-21 1 -21 4 l-6 -4l-11 2l-14 -2q-15 2 -15 4l-17 -4l-8 4l-2 -2h-50l-2 2l-2 -2h-25l-2 2l-2 -2h-36l-12 2l-11 -2h-12l-2 2l-2 -2h-38l-2 2l-2 -2h-8l-2 2l-2 -2h-17l-2 2l-2 -2h-21l-2 2l-2 -2h-2l-50 4l-38 -2h-77q0 9 -4 9t-4 -7l-2 -2h-35l-9 -8l31 2h7l2 -15l-6 -2v-4h4v-4 q0 -4 -9 -4v-2q9 0 9 -6l-2 -7l2 -2h2l-2 -87v-44l4 -10h2l6 4h2q15 -1 15 -4q30 4 81 4l2 -2l2 2l354 -2h69l4 -4v-65l-8 -54l2 -23l-2 -33q4 -40 4 -100l-2 -75h-5v-2l-70 4h-27l-17 2l-23 -2h-158l-17 -2l-16 2h-54l-19 2l-6 -2l-3 2l-12 -2l-25 2l-19 -2l-16 6v-4h-2 l-9 2l-14 -4q-7 4 -7 25q-20 -31 -20 -62l2 -2q-13 -2 -13 -7h13v-8l-2 -13l4 -8l-2 -33q0 -5 -15 -6v-3l15 -12v-27l-15 -2v-4h15v-17q0 -5 16 -8h2l-2 2v6h167v-6l6 6l29 -2l2 2h2l9 -2l16 2l13 -2l6 2l15 -2l2 2h2l2 -2h2l10 2l46 -2h202l13 2l10 -2h46l33 -2l2 2h2 l23 -2h19q14 0 14 4q13 -4 13 -8v-27l-2 -29l2 -9h-2l2 -2v-2l-2 -19l2 -8l-2 -2l2 -6l-2 -46l2 -54l-2 -11l2 -10h-2l2 -6l-2 -2l2 -7l-2 -47l2 -30l-2 -2v-2l2 -6l-2 -25h-50l-13 2l-2 -2l-25 2h-62l-61 6l-122 -2l-9 -2l-10 4q-9 -4 -27 -4h-52l-11 2l-12 -2h-127l-23 -2 l-8 2l-2 -2l-11 2l-12 -2h-4v2l-25 -2h-23l-25 2l-25 -2h-21l-21 2l-10 -2l-67 2l-12 -2l-17 2l-12 -2l-19 2h-13l-50 -2l-10 4l2 11h-6q0 -15 -31 -15l-40 2v4l-2 25l4 32l-2 2l2 10v35l2 30l-2 8l2 2l-2 6l2 61v18q2 14 6 15q-6 23 -6 102v553q6 52 9 150l-3 11l3 6l-3 8 h3q-9 20 -9 34v12h4v-4h2v8q0 11 -6 11v8l2 2l-2 2v8l6 3l-4 12l2 19l-4 81l4 56v4h-2l-2 -14h-4v68zM8 1349v-4h2q7 68 15 68q7 0 21 -62v-2h2v4q-13 66 -21 66h-2q-9 0 -17 -70zM50 1336v-8h2v8h-2zM52 1326v-6l2 -9h2v2l-2 13h-2zM373 1849h2l5 -5v-9h-5v-8l5 -4 q3 16 10 16h312v-4l-96 -101q-8 0 -34 -36q-6 0 -29 -27h8v-5q-23 -26 -29 -26l-7 2q-10 -24 -24 -24q-7 -17 -29 -26q0 -11 -68 -67l-7 -3v5l5 7v3q-7 0 -7 7l-3 144h-2v-36h-5l-5 36l3 2l-3 24v20l-2 7l2 12v46l-2 33z" />
<glyph unicode="&#xca;" horiz-adv-x="1213" d="M4 1434h140l8 -2l6 2l15 -2l18 2v-2l3 2l31 -2h43l9 -2l8 2l2 -2l2 2h7l8 -2l14 2h127l2 -2l3 2h2l231 2h16l29 -2l21 2l9 -2l8 2l12 -2l21 2h2l9 -2l2 2h6v-2l25 2h25v-4l27 2l6 -2l19 4l42 -2h112v-38q-13 -44 -13 -122v-190l-20 -2h-63l-87 -2v2l-2 -2h-2q-21 1 -21 4 l-6 -4l-11 2l-14 -2q-15 2 -15 4l-17 -4l-8 4l-2 -2h-50l-2 2l-2 -2h-25l-2 2l-2 -2h-36l-12 2l-11 -2h-12l-2 2l-2 -2h-38l-2 2l-2 -2h-8l-2 2l-2 -2h-17l-2 2l-2 -2h-21l-2 2l-2 -2h-2l-50 4l-38 -2h-77q0 9 -4 9t-4 -7l-2 -2h-35l-9 -8l31 2h7l2 -15l-6 -2v-4h4v-4 q0 -4 -9 -4v-2q9 0 9 -6l-2 -7l2 -2h2l-2 -87v-44l4 -10h2l6 4h2q15 -1 15 -4q30 4 81 4l2 -2l2 2l354 -2h69l4 -4v-65l-8 -54l2 -23l-2 -33q4 -40 4 -100l-2 -75h-5v-2l-70 4h-27l-17 2l-23 -2h-158l-17 -2l-16 2h-54l-19 2l-6 -2l-3 2l-12 -2l-25 2l-19 -2l-16 6v-4h-2 l-9 2l-14 -4q-7 4 -7 25q-20 -31 -20 -62l2 -2q-13 -2 -13 -7h13v-8l-2 -13l4 -8l-2 -33q0 -5 -15 -6v-3l15 -12v-27l-15 -2v-4h15v-17q0 -5 16 -8h2l-2 2v6h167v-6l6 6l29 -2l2 2h2l9 -2l16 2l13 -2l6 2l15 -2l2 2h2l2 -2h2l10 2l46 -2h202l13 2l10 -2h46l33 -2l2 2h2 l23 -2h19q14 0 14 4q13 -4 13 -8v-27l-2 -29l2 -9h-2l2 -2v-2l-2 -19l2 -8l-2 -2l2 -6l-2 -46l2 -54l-2 -11l2 -10h-2l2 -6l-2 -2l2 -7l-2 -47l2 -30l-2 -2v-2l2 -6l-2 -25h-50l-13 2l-2 -2l-25 2h-62l-61 6l-122 -2l-9 -2l-10 4q-9 -4 -27 -4h-52l-11 2l-12 -2h-127l-23 -2 l-8 2l-2 -2l-11 2l-12 -2h-4v2l-25 -2h-23l-25 2l-25 -2h-21l-21 2l-10 -2l-67 2l-12 -2l-17 2l-12 -2l-19 2h-13l-50 -2l-10 4l2 11h-6q0 -15 -31 -15l-40 2v4l-2 25l4 32l-2 2l2 10v35l2 30l-2 8l2 2l-2 6l2 61v18q2 14 6 15q-6 23 -6 102v553q6 52 9 150l-3 11l3 6l-3 8 h3q-9 20 -9 34v12h4v-4h2v8q0 11 -6 11v8l2 2l-2 2v8l6 3l-4 12l2 19l-4 81l4 56v4h-2l-2 -14h-4v68zM8 1349v-4h2q7 68 15 68q7 0 21 -62v-2h2v4q-13 66 -21 66h-2q-9 0 -17 -70zM50 1336v-8h2v8h-2zM52 1326v-6l2 -9h2v2l-2 13h-2zM411 1816q0 -3 11 -7l60 2l10 -2l11 2 q2 -8 15 -8h21l58 8l31 -5l21 3l36 -3h5l3 -3l3 3h15l11 -3l2 3l27 -3h36l5 -5l13 3h16l13 -3v5q24 0 24 -7q0 -6 7 -6v-73l-2 -15l2 -3l-2 -13v-31l2 -3l-2 -3v-112l-3 -52h-136l-2 3l-3 -3h-52l-3 3l-2 -3l-19 3h-39l-2 2l-3 -2h-29l-44 -3v3l-3 -3h-2l-73 3v2l-3 -2h-55 l-39 2v-2l-2 2h-66l-47 3l-23 -3l-24 3l-18 -3l-10 8l2 8l-5 47l3 2v3l-3 11l3 7l-3 3l3 39l2 193l3 3l18 -3l13 3v-8l125 8l45 -3z" />
<glyph unicode="&#xcb;" horiz-adv-x="1213" d="M4 1434h140l8 -2l6 2l15 -2l18 2v-2l3 2l31 -2h43l9 -2l8 2l2 -2l2 2h7l8 -2l14 2h127l2 -2l3 2h2l231 2h16l29 -2l21 2l9 -2l8 2l12 -2l21 2h2l9 -2l2 2h6v-2l25 2h25v-4l27 2l6 -2l19 4l42 -2h112v-38q-13 -44 -13 -122v-190l-20 -2h-63l-87 -2v2l-2 -2h-2q-21 1 -21 4 l-6 -4l-11 2l-14 -2q-15 2 -15 4l-17 -4l-8 4l-2 -2h-50l-2 2l-2 -2h-25l-2 2l-2 -2h-36l-12 2l-11 -2h-12l-2 2l-2 -2h-38l-2 2l-2 -2h-8l-2 2l-2 -2h-17l-2 2l-2 -2h-21l-2 2l-2 -2h-2l-50 4l-38 -2h-77q0 9 -4 9t-4 -7l-2 -2h-35l-9 -8l31 2h7l2 -15l-6 -2v-4h4v-4 q0 -4 -9 -4v-2q9 0 9 -6l-2 -7l2 -2h2l-2 -87v-44l4 -10h2l6 4h2q15 -1 15 -4q30 4 81 4l2 -2l2 2l354 -2h69l4 -4v-65l-8 -54l2 -23l-2 -33q4 -40 4 -100l-2 -75h-5v-2l-70 4h-27l-17 2l-23 -2h-158l-17 -2l-16 2h-54l-19 2l-6 -2l-3 2l-12 -2l-25 2l-19 -2l-16 6v-4h-2 l-9 2l-14 -4q-7 4 -7 25q-20 -31 -20 -62l2 -2q-13 -2 -13 -7h13v-8l-2 -13l4 -8l-2 -33q0 -5 -15 -6v-3l15 -12v-27l-15 -2v-4h15v-17q0 -5 16 -8h2l-2 2v6h167v-6l6 6l29 -2l2 2h2l9 -2l16 2l13 -2l6 2l15 -2l2 2h2l2 -2h2l10 2l46 -2h202l13 2l10 -2h46l33 -2l2 2h2 l23 -2h19q14 0 14 4q13 -4 13 -8v-27l-2 -29l2 -9h-2l2 -2v-2l-2 -19l2 -8l-2 -2l2 -6l-2 -46l2 -54l-2 -11l2 -10h-2l2 -6l-2 -2l2 -7l-2 -47l2 -30l-2 -2v-2l2 -6l-2 -25h-50l-13 2l-2 -2l-25 2h-62l-61 6l-122 -2l-9 -2l-10 4q-9 -4 -27 -4h-52l-11 2l-12 -2h-127l-23 -2 l-8 2l-2 -2l-11 2l-12 -2h-4v2l-25 -2h-23l-25 2l-25 -2h-21l-21 2l-10 -2l-67 2l-12 -2l-17 2l-12 -2l-19 2h-13l-50 -2l-10 4l2 11h-6q0 -15 -31 -15l-40 2v4l-2 25l4 32l-2 2l2 10v35l2 30l-2 8l2 2l-2 6l2 61v18q2 14 6 15q-6 23 -6 102v553q6 52 9 150l-3 11l3 6l-3 8 h3q-9 20 -9 34v12h4v-4h2v8q0 11 -6 11v8l2 2l-2 2v8l6 3l-4 12l2 19l-4 81l4 56v4h-2l-2 -14h-4v68zM8 1349v-4h2q7 68 15 68q7 0 21 -62v-2h2v4q-13 66 -21 66h-2q-9 0 -17 -70zM50 1336v-8h2v8h-2zM52 1326v-6l2 -9h2v2l-2 13h-2zM140 1810h197q36 0 57 -4l60 4 q0 -12 -4 -12l2 -21h2v7h5q0 -17 -7 -17v-161l2 -2l-2 -3v-52l2 -10l-2 -2l2 -17v-24l-2 -3v-2l-60 2h-236l-24 -2v98l5 68q-7 0 -7 7l2 10l-2 2l2 2v34l-2 2l2 8l-2 7l2 24v33l-2 3l2 2v10l-2 2v3q10 0 10 4zM624 1807h197q36 0 57 -4l60 4q0 -12 -4 -12l2 -21h2v7h5 q0 -17 -7 -17v-161l2 -2l-2 -3v-52l2 -10l-2 -2l2 -17v-24l-2 -3v-2l-60 2h-236l-24 -2v98l5 68q-7 0 -7 7l2 10l-2 2l2 2v34l-2 2l2 8l-2 7l2 24v33l-2 3l2 2v10l-2 2v3q10 0 10 4z" />
<glyph unicode="&#xcc;" horiz-adv-x="502" d="M58 1443l38 -4l2 2l15 -2l85 -2l2 2h2l13 -2h19l8 -2l8 4l13 -4v2l2 -2h56l2 2l2 -2h38q0 -86 -10 -176l2 -8l-4 -12h4v4l2 -2h2l-2 -46v-21l-2 -2l2 -2v-19q0 -15 -6 -15l4 -148v-19l4 -16l-6 -215l2 -2v-2l-2 -23v-9l2 -10l-2 -13v-39l-2 -13q4 -9 4 -27v-46l2 -67 l-2 -73v-81q0 -42 -4 -42l4 -12v-105l2 -39l-2 -2l2 -21v-136l-2 -23q4 -16 4 -44l-2 -29l2 -2v-2q-3 -8 -6 -8q3 0 6 -52h-2l2 -3v-35l-2 -10l2 -13v-13l-2 -20l2 -21l-2 -2v-2l2 -9v-8l-2 -13l2 -8l-4 -25q-11 0 -117 115q-144 145 -144 154l-33 44v-2l12 -17v-4h-2 q-63 57 -63 73l-4 8v15h2l11 -8v2q-13 12 -13 23v27l-2 33l2 6l-2 9l2 64v17l-2 57l2 60v38l-2 45h2l-2 3l2 14l-2 21l2 10l-2 34v37l-2 48l2 17l-2 6h2l-2 7l13 71l-9 200h2l-2 2v27l2 6l-2 11v217l2 50l-2 8l9 77v5h-3l3 20v51l2 14h4q0 -6 4 -6q-7 25 -10 25l2 10v48 l-2 15h6q4 0 4 -6h4v2l-2 2v2h17zM351 1176v-8h2v8h-2zM33 -11v-4l2 -3h3l-3 7h-2zM344 1832l-2 -33v-46l2 -12l-2 -7v-20l-3 -24l3 -2l-5 -36h-5v36h-2l-3 -144q0 -7 -7 -7v-3l5 -7v-5l-7 3q-68 56 -68 67q-22 9 -29 26q-14 0 -24 24l-7 -2q-6 0 -29 26v5h8q-23 27 -29 27 q-26 36 -34 36l-96 101v4h312q7 0 10 -16l5 4v8h-5v9l5 5h2z" />
<glyph unicode="&#xcd;" horiz-adv-x="502" d="M58 1443l38 -4l2 2l15 -2l85 -2l2 2h2l13 -2h19l8 -2l8 4l13 -4v2l2 -2h56l2 2l2 -2h38q0 -86 -10 -176l2 -8l-4 -12h4v4l2 -2h2l-2 -46v-21l-2 -2l2 -2v-19q0 -15 -6 -15l4 -148v-19l4 -16l-6 -215l2 -2v-2l-2 -23v-9l2 -10l-2 -13v-39l-2 -13q4 -9 4 -27v-46l2 -67 l-2 -73v-81q0 -42 -4 -42l4 -12v-105l2 -39l-2 -2l2 -21v-136l-2 -23q4 -16 4 -44l-2 -29l2 -2v-2q-3 -8 -6 -8q3 0 6 -52h-2l2 -3v-35l-2 -10l2 -13v-13l-2 -20l2 -21l-2 -2v-2l2 -9v-8l-2 -13l2 -8l-4 -25q-11 0 -117 115q-144 145 -144 154l-33 44v-2l12 -17v-4h-2 q-63 57 -63 73l-4 8v15h2l11 -8v2q-13 12 -13 23v27l-2 33l2 6l-2 9l2 64v17l-2 57l2 60v38l-2 45h2l-2 3l2 14l-2 21l2 10l-2 34v37l-2 48l2 17l-2 6h2l-2 7l13 71l-9 200h2l-2 2v27l2 6l-2 11v217l2 50l-2 8l9 77v5h-3l3 20v51l2 14h4q0 -6 4 -6q-7 25 -10 25l2 10v48 l-2 15h6q4 0 4 -6h4v2l-2 2v2h17zM351 1176v-8h2v8h-2zM33 -11v-4l2 -3h3l-3 7h-2zM18 1849h2l5 -5v-9h-5v-8l5 -4q3 16 10 16h312v-4l-96 -101q-8 0 -34 -36q-6 0 -29 -27h8v-5q-23 -26 -29 -26l-7 2q-10 -24 -24 -24q-7 -17 -29 -26q0 -11 -68 -67l-7 -3v5l5 7v3 q-7 0 -7 7l-3 144h-2v-36h-5l-5 36l3 2l-3 24v20l-2 7l2 12v46l-2 33z" />
<glyph unicode="&#xce;" horiz-adv-x="502" d="M58 1443l38 -4l2 2l15 -2l85 -2l2 2h2l13 -2h19l8 -2l8 4l13 -4v2l2 -2h56l2 2l2 -2h38q0 -86 -10 -176l2 -8l-4 -12h4v4l2 -2h2l-2 -46v-21l-2 -2l2 -2v-19q0 -15 -6 -15l4 -148v-19l4 -16l-6 -215l2 -2v-2l-2 -23v-9l2 -10l-2 -13v-39l-2 -13q4 -9 4 -27v-46l2 -67 l-2 -73v-81q0 -42 -4 -42l4 -12v-105l2 -39l-2 -2l2 -21v-136l-2 -23q4 -16 4 -44l-2 -29l2 -2v-2q-3 -8 -6 -8q3 0 6 -52h-2l2 -3v-35l-2 -10l2 -13v-13l-2 -20l2 -21l-2 -2v-2l2 -9v-8l-2 -13l2 -8l-4 -25q-11 0 -117 115q-144 145 -144 154l-33 44v-2l12 -17v-4h-2 q-63 57 -63 73l-4 8v15h2l11 -8v2q-13 12 -13 23v27l-2 33l2 6l-2 9l2 64v17l-2 57l2 60v38l-2 45h2l-2 3l2 14l-2 21l2 10l-2 34v37l-2 48l2 17l-2 6h2l-2 7l13 71l-9 200h2l-2 2v27l2 6l-2 11v217l2 50l-2 8l9 77v5h-3l3 20v51l2 14h4q0 -6 4 -6q-7 25 -10 25l2 10v48 l-2 15h6q4 0 4 -6h4v2l-2 2v2h17zM351 1176v-8h2v8h-2zM33 -11v-4l2 -3h3l-3 7h-2zM104 1816q0 -3 11 -7l60 2l10 -2l11 2q2 -8 15 -8h21l58 8l31 -5l21 3l36 -3h5l3 -3l3 3h15l11 -3l2 3l27 -3h36l5 -5l13 3h16l13 -3v5q24 0 24 -7q0 -6 7 -6v-73l-2 -15l2 -3l-2 -13v-31 l2 -3l-2 -3v-112l-3 -52h-136l-2 3l-3 -3h-52l-3 3l-2 -3l-19 3h-39l-2 2l-3 -2h-29l-44 -3v3l-3 -3h-2l-73 3v2l-3 -2h-55l-39 2v-2l-2 2h-66l-47 3l-23 -3l-24 3l-18 -3l-10 8l2 8l-5 47l3 2v3l-3 11l3 7l-3 3l3 39l2 193l3 3l18 -3l13 3v-8l125 8l45 -3z" />
<glyph unicode="&#xcf;" horiz-adv-x="502" d="M58 1443l38 -4l2 2l15 -2l85 -2l2 2h2l13 -2h19l8 -2l8 4l13 -4v2l2 -2h56l2 2l2 -2h38q0 -86 -10 -176l2 -8l-4 -12h4v4l2 -2h2l-2 -46v-21l-2 -2l2 -2v-19q0 -15 -6 -15l4 -148v-19l4 -16l-6 -215l2 -2v-2l-2 -23v-9l2 -10l-2 -13v-39l-2 -13q4 -9 4 -27v-46l2 -67 l-2 -73v-81q0 -42 -4 -42l4 -12v-105l2 -39l-2 -2l2 -21v-136l-2 -23q4 -16 4 -44l-2 -29l2 -2v-2q-3 -8 -6 -8q3 0 6 -52h-2l2 -3v-35l-2 -10l2 -13v-13l-2 -20l2 -21l-2 -2v-2l2 -9v-8l-2 -13l2 -8l-4 -25q-11 0 -117 115q-144 145 -144 154l-33 44v-2l12 -17v-4h-2 q-63 57 -63 73l-4 8v15h2l11 -8v2q-13 12 -13 23v27l-2 33l2 6l-2 9l2 64v17l-2 57l2 60v38l-2 45h2l-2 3l2 14l-2 21l2 10l-2 34v37l-2 48l2 17l-2 6h2l-2 7l13 71l-9 200h2l-2 2v27l2 6l-2 11v217l2 50l-2 8l9 77v5h-3l3 20v51l2 14h4q0 -6 4 -6q-7 25 -10 25l2 10v48 l-2 15h6q4 0 4 -6h4v2l-2 2v2h17zM351 1176v-8h2v8h-2zM33 -11v-4l2 -3h3l-3 7h-2zM-205 1810h197q36 0 57 -4l60 4q0 -12 -4 -12l2 -21h2v7h5q0 -17 -7 -17v-161l2 -2l-2 -3v-52l2 -10l-2 -2l2 -17v-24l-2 -3v-2l-60 2h-236l-24 -2v98l5 68q-7 0 -7 7l2 10l-2 2l2 2v34 l-2 2l2 8l-2 7l2 24v33l-2 3l2 2v10l-2 2v3q10 0 10 4zM279 1807h197q36 0 57 -4l60 4q0 -12 -4 -12l2 -21h2v7h5q0 -17 -7 -17v-161l2 -2l-2 -3v-52l2 -10l-2 -2l2 -17v-24l-2 -3v-2l-60 2h-236l-24 -2v98l5 68q-7 0 -7 7l2 10l-2 2l2 2v34l-2 2l2 8l-2 7l2 24v33l-2 3l2 2 v10l-2 2v3q10 0 10 4z" />
<glyph unicode="&#xd2;" d="M780 1443l9 -2v2l2 -2h50l30 -2l25 4v-4l21 4q10 0 10 -8q12 -7 74 -19q23 -12 23 -28q16 -35 25 -42h5l2 2q12 0 12 -56l2 -2q0 -13 9 -13v-8l-2 -2l2 -3v-2l2 -23l-2 -71v-160l-2 -17l2 -16v-57l-2 -21l2 -21l-2 -25l2 -13l-2 -57l2 -16l-2 -34v-63l4 -477l2 -29 q-14 -72 -53 -112q-43 -42 -136 -42l-65 -2l-172 5h-114l-61 -3l-2 3l-21 -3q-291 -1 -292 -4v-4h-8q-58 0 -120 67q-34 40 -34 122l-2 67l2 15q-6 10 -6 221l2 579l-2 76h2l-2 2l2 10l-4 72v27q0 122 105 166h4l7 -4l27 2v4h-13v4q26 9 61 9h17v-2l-2 -2v-3h2l8 3l9 -3 q25 7 56 7h206l26 2v-2l2 2h23l2 -2l2 2h57l2 -2l2 2h168zM167 1428v-2h9v4h-3zM144 1426v-2h6l13 2v2h-4zM484 1082l-10 2l-7 -2l-12 2l-2 -2h-2l-2 2h-3l-2 -2l-14 2h-11l-25 -2v2l-6 -2l-34 2v-23l-2 -9l4 -10l-2 -53l4 -92h-2l2 -2v-86l-2 -2l2 -3q-8 -63 -8 -111v-33 l8 -179l-2 -2v-2l2 -13v-33l-2 -3l2 -2v-4l-2 -15l2 -18q0 -19 -4 -19l2 -2v-9l-2 -15l44 5l6 -2l3 2l6 -2l6 -32h2v32l170 4l11 2l10 -2l55 2l11 -2l21 2h16l9 -6h2l2 6l-6 25l4 21l-2 42v2h4l2 -25h2v8q-8 101 -8 145v120l2 2l-2 2l2 11l-2 50v55l2 8l-2 2l2 46v106h4 l6 -47h2v7q-4 69 -14 69l2 36v25l6 8v2h-4v7q0 6 15 6v2q-16 0 -21 4q0 -7 -28 -8h-61q0 10 -4 10zM738 924v-8h3v8h-3zM738 907v-2l5 -38h2v19l-2 21h-5zM745 865v-10h2v10h-2zM745 851v-9l2 -6h2v2l-2 13h-2zM749 815l-2 -6l2 -2h2v8h-2zM732 414v-9h2v9h-2zM698 1835 l-2 -33v-46l2 -12l-2 -7v-20l-3 -24l3 -2l-5 -36h-5v36h-2l-3 -144q0 -7 -7 -7v-3l5 -7v-5l-7 3q-68 56 -68 67q-22 9 -29 26q-14 0 -24 24l-7 -2q-6 0 -29 26v5h8q-23 27 -29 27q-26 36 -34 36l-96 101v4h312q7 0 10 -16l5 4v8h-5v9l5 5h2z" />
<glyph unicode="&#xd3;" d="M780 1443l9 -2v2l2 -2h50l30 -2l25 4v-4l21 4q10 0 10 -8q12 -7 74 -19q23 -12 23 -28q16 -35 25 -42h5l2 2q12 0 12 -56l2 -2q0 -13 9 -13v-8l-2 -2l2 -3v-2l2 -23l-2 -71v-160l-2 -17l2 -16v-57l-2 -21l2 -21l-2 -25l2 -13l-2 -57l2 -16l-2 -34v-63l4 -477l2 -29 q-14 -72 -53 -112q-43 -42 -136 -42l-65 -2l-172 5h-114l-61 -3l-2 3l-21 -3q-291 -1 -292 -4v-4h-8q-58 0 -120 67q-34 40 -34 122l-2 67l2 15q-6 10 -6 221l2 579l-2 76h2l-2 2l2 10l-4 72v27q0 122 105 166h4l7 -4l27 2v4h-13v4q26 9 61 9h17v-2l-2 -2v-3h2l8 3l9 -3 q25 7 56 7h206l26 2v-2l2 2h23l2 -2l2 2h57l2 -2l2 2h168zM167 1428v-2h9v4h-3zM144 1426v-2h6l13 2v2h-4zM484 1082l-10 2l-7 -2l-12 2l-2 -2h-2l-2 2h-3l-2 -2l-14 2h-11l-25 -2v2l-6 -2l-34 2v-23l-2 -9l4 -10l-2 -53l4 -92h-2l2 -2v-86l-2 -2l2 -3q-8 -63 -8 -111v-33 l8 -179l-2 -2v-2l2 -13v-33l-2 -3l2 -2v-4l-2 -15l2 -18q0 -19 -4 -19l2 -2v-9l-2 -15l44 5l6 -2l3 2l6 -2l6 -32h2v32l170 4l11 2l10 -2l55 2l11 -2l21 2h16l9 -6h2l2 6l-6 25l4 21l-2 42v2h4l2 -25h2v8q-8 101 -8 145v120l2 2l-2 2l2 11l-2 50v55l2 8l-2 2l2 46v106h4 l6 -47h2v7q-4 69 -14 69l2 36v25l6 8v2h-4v7q0 6 15 6v2q-16 0 -21 4q0 -7 -28 -8h-61q0 10 -4 10zM738 924v-8h3v8h-3zM738 907v-2l5 -38h2v19l-2 21h-5zM745 865v-10h2v10h-2zM745 851v-9l2 -6h2v2l-2 13h-2zM749 815l-2 -6l2 -2h2v8h-2zM732 414v-9h2v9h-2zM373 1849h2 l5 -5v-9h-5v-8l5 -4q3 16 10 16h312v-4l-96 -101q-8 0 -34 -36q-6 0 -29 -27h8v-5q-23 -26 -29 -26l-7 2q-10 -24 -24 -24q-7 -17 -29 -26q0 -11 -68 -67l-7 -3v5l5 7v3q-7 0 -7 7l-3 144h-2v-36h-5l-5 36l3 2l-3 24v20l-2 7l2 12v46l-2 33z" />
<glyph unicode="&#xd4;" d="M780 1443l9 -2v2l2 -2h50l30 -2l25 4v-4l21 4q10 0 10 -8q12 -7 74 -19q23 -12 23 -28q16 -35 25 -42h5l2 2q12 0 12 -56l2 -2q0 -13 9 -13v-8l-2 -2l2 -3v-2l2 -23l-2 -71v-160l-2 -17l2 -16v-57l-2 -21l2 -21l-2 -25l2 -13l-2 -57l2 -16l-2 -34v-63l4 -477l2 -29 q-14 -72 -53 -112q-43 -42 -136 -42l-65 -2l-172 5h-114l-61 -3l-2 3l-21 -3q-291 -1 -292 -4v-4h-8q-58 0 -120 67q-34 40 -34 122l-2 67l2 15q-6 10 -6 221l2 579l-2 76h2l-2 2l2 10l-4 72v27q0 122 105 166h4l7 -4l27 2v4h-13v4q26 9 61 9h17v-2l-2 -2v-3h2l8 3l9 -3 q25 7 56 7h206l26 2v-2l2 2h23l2 -2l2 2h57l2 -2l2 2h168zM167 1428v-2h9v4h-3zM144 1426v-2h6l13 2v2h-4zM484 1082l-10 2l-7 -2l-12 2l-2 -2h-2l-2 2h-3l-2 -2l-14 2h-11l-25 -2v2l-6 -2l-34 2v-23l-2 -9l4 -10l-2 -53l4 -92h-2l2 -2v-86l-2 -2l2 -3q-8 -63 -8 -111v-33 l8 -179l-2 -2v-2l2 -13v-33l-2 -3l2 -2v-4l-2 -15l2 -18q0 -19 -4 -19l2 -2v-9l-2 -15l44 5l6 -2l3 2l6 -2l6 -32h2v32l170 4l11 2l10 -2l55 2l11 -2l21 2h16l9 -6h2l2 6l-6 25l4 21l-2 42v2h4l2 -25h2v8q-8 101 -8 145v120l2 2l-2 2l2 11l-2 50v55l2 8l-2 2l2 46v106h4 l6 -47h2v7q-4 69 -14 69l2 36v25l6 8v2h-4v7q0 6 15 6v2q-16 0 -21 4q0 -7 -28 -8h-61q0 10 -4 10zM738 924v-8h3v8h-3zM738 907v-2l5 -38h2v19l-2 21h-5zM745 865v-10h2v10h-2zM745 851v-9l2 -6h2v2l-2 13h-2zM749 815l-2 -6l2 -2h2v8h-2zM732 414v-9h2v9h-2zM411 1816 q0 -3 11 -7l60 2l10 -2l11 2q2 -8 15 -8h21l58 8l31 -5l21 3l36 -3h5l3 -3l3 3h15l11 -3l2 3l27 -3h36l5 -5l13 3h16l13 -3v5q24 0 24 -7q0 -6 7 -6v-73l-2 -15l2 -3l-2 -13v-31l2 -3l-2 -3v-112l-3 -52h-136l-2 3l-3 -3h-52l-3 3l-2 -3l-19 3h-39l-2 2l-3 -2h-29l-44 -3v3 l-3 -3h-2l-73 3v2l-3 -2h-55l-39 2v-2l-2 2h-66l-47 3l-23 -3l-24 3l-18 -3l-10 8l2 8l-5 47l3 2v3l-3 11l3 7l-3 3l3 39l2 193l3 3l18 -3l13 3v-8l125 8l45 -3z" />
<glyph unicode="&#xd5;" d="M780 1443l9 -2v2l2 -2h50l30 -2l25 4v-4l21 4q10 0 10 -8q12 -7 74 -19q23 -12 23 -28q16 -35 25 -42h5l2 2q12 0 12 -56l2 -2q0 -13 9 -13v-8l-2 -2l2 -3v-2l2 -23l-2 -71v-160l-2 -17l2 -16v-57l-2 -21l2 -21l-2 -25l2 -13l-2 -57l2 -16l-2 -34v-63l4 -477l2 -29 q-14 -72 -53 -112q-43 -42 -136 -42l-65 -2l-172 5h-114l-61 -3l-2 3l-21 -3q-291 -1 -292 -4v-4h-8q-58 0 -120 67q-34 40 -34 122l-2 67l2 15q-6 10 -6 221l2 579l-2 76h2l-2 2l2 10l-4 72v27q0 122 105 166h4l7 -4l27 2v4h-13v4q26 9 61 9h17v-2l-2 -2v-3h2l8 3l9 -3 q25 7 56 7h206l26 2v-2l2 2h23l2 -2l2 2h57l2 -2l2 2h168zM167 1428v-2h9v4h-3zM144 1426v-2h6l13 2v2h-4zM484 1082l-10 2l-7 -2l-12 2l-2 -2h-2l-2 2h-3l-2 -2l-14 2h-11l-25 -2v2l-6 -2l-34 2v-23l-2 -9l4 -10l-2 -53l4 -92h-2l2 -2v-86l-2 -2l2 -3q-8 -63 -8 -111v-33 l8 -179l-2 -2v-2l2 -13v-33l-2 -3l2 -2v-4l-2 -15l2 -18q0 -19 -4 -19l2 -2v-9l-2 -15l44 5l6 -2l3 2l6 -2l6 -32h2v32l170 4l11 2l10 -2l55 2l11 -2l21 2h16l9 -6h2l2 6l-6 25l4 21l-2 42v2h4l2 -25h2v8q-8 101 -8 145v120l2 2l-2 2l2 11l-2 50v55l2 8l-2 2l2 46v106h4 l6 -47h2v7q-4 69 -14 69l2 36v25l6 8v2h-4v7q0 6 15 6v2q-16 0 -21 4q0 -7 -28 -8h-61q0 10 -4 10zM738 924v-8h3v8h-3zM738 907v-2l5 -38h2v19l-2 21h-5zM745 865v-10h2v10h-2zM745 851v-9l2 -6h2v2l-2 13h-2zM749 815l-2 -6l2 -2h2v8h-2zM732 414v-9h2v9h-2zM411 1816 q0 -3 11 -7l60 2l10 -2l11 2q2 -8 15 -8h21l58 8l31 -5l21 3l36 -3h5l3 -3l3 3h15l11 -3l2 3l27 -3h36l5 -5l13 3h16l13 -3v5q24 0 24 -7q0 -6 7 -6v-73l-2 -15l2 -3l-2 -13v-31l2 -3l-2 -3v-112l-3 -52h-136l-2 3l-3 -3h-52l-3 3l-2 -3l-19 3h-39l-2 2l-3 -2h-29l-44 -3v3 l-3 -3h-2l-73 3v2l-3 -2h-55l-39 2v-2l-2 2h-66l-47 3l-23 -3l-24 3l-18 -3l-10 8l2 8l-5 47l3 2v3l-3 11l3 7l-3 3l3 39l2 193l3 3l18 -3l13 3v-8l125 8l45 -3z" />
<glyph unicode="&#xd6;" d="M780 1443l9 -2v2l2 -2h50l30 -2l25 4v-4l21 4q10 0 10 -8q12 -7 74 -19q23 -12 23 -28q16 -35 25 -42h5l2 2q12 0 12 -56l2 -2q0 -13 9 -13v-8l-2 -2l2 -3v-2l2 -23l-2 -71v-160l-2 -17l2 -16v-57l-2 -21l2 -21l-2 -25l2 -13l-2 -57l2 -16l-2 -34v-63l4 -477l2 -29 q-14 -72 -53 -112q-43 -42 -136 -42l-65 -2l-172 5h-114l-61 -3l-2 3l-21 -3q-291 -1 -292 -4v-4h-8q-58 0 -120 67q-34 40 -34 122l-2 67l2 15q-6 10 -6 221l2 579l-2 76h2l-2 2l2 10l-4 72v27q0 122 105 166h4l7 -4l27 2v4h-13v4q26 9 61 9h17v-2l-2 -2v-3h2l8 3l9 -3 q25 7 56 7h206l26 2v-2l2 2h23l2 -2l2 2h57l2 -2l2 2h168zM167 1428v-2h9v4h-3zM144 1426v-2h6l13 2v2h-4zM484 1082l-10 2l-7 -2l-12 2l-2 -2h-2l-2 2h-3l-2 -2l-14 2h-11l-25 -2v2l-6 -2l-34 2v-23l-2 -9l4 -10l-2 -53l4 -92h-2l2 -2v-86l-2 -2l2 -3q-8 -63 -8 -111v-33 l8 -179l-2 -2v-2l2 -13v-33l-2 -3l2 -2v-4l-2 -15l2 -18q0 -19 -4 -19l2 -2v-9l-2 -15l44 5l6 -2l3 2l6 -2l6 -32h2v32l170 4l11 2l10 -2l55 2l11 -2l21 2h16l9 -6h2l2 6l-6 25l4 21l-2 42v2h4l2 -25h2v8q-8 101 -8 145v120l2 2l-2 2l2 11l-2 50v55l2 8l-2 2l2 46v106h4 l6 -47h2v7q-4 69 -14 69l2 36v25l6 8v2h-4v7q0 6 15 6v2q-16 0 -21 4q0 -7 -28 -8h-61q0 10 -4 10zM738 924v-8h3v8h-3zM738 907v-2l5 -38h2v19l-2 21h-5zM745 865v-10h2v10h-2zM745 851v-9l2 -6h2v2l-2 13h-2zM749 815l-2 -6l2 -2h2v8h-2zM732 414v-9h2v9h-2zM143 1810h197 q36 0 57 -4l60 4q0 -12 -4 -12l2 -21h2v7h5q0 -17 -7 -17v-161l2 -2l-2 -3v-52l2 -10l-2 -2l2 -17v-24l-2 -3v-2l-60 2h-236l-24 -2v98l5 68q-7 0 -7 7l2 10l-2 2l2 2v34l-2 2l2 8l-2 7l2 24v33l-2 3l2 2v10l-2 2v3q10 0 10 4zM627 1807h197q36 0 57 -4l60 4q0 -12 -4 -12 l2 -21h2v7h5q0 -17 -7 -17v-161l2 -2l-2 -3v-52l2 -10l-2 -2l2 -17v-24l-2 -3v-2l-60 2h-236l-24 -2v98l5 68q-7 0 -7 7l2 10l-2 2l2 2v34l-2 2l2 8l-2 7l2 24v33l-2 3l2 2v10l-2 2v3q10 0 10 4z" />
<glyph unicode="&#xd9;" horiz-adv-x="1234" d="M790 1437l2 -2h44l8 2l6 -2l25 2l25 -4l4 4h169l-2 -21v-20l-2 -2l2 -2v-2q2 -104 10 -104l-2 -2l2 -14v-54l2 -8l-2 -6l2 -21l-2 -51v-29l2 -9l-2 -2v-2l2 -2l-2 -20v-19l-4 -225l4 -27v-82l2 -21l-2 -12l2 -104l-4 -94l2 -3l-2 -6l-2 -97l8 -334v-2l-2 -10l2 -13v-144 l-2 -2l2 -2v-4l-2 -17l2 -16v-7l-2 -2l2 -2v-2l-2 -6l2 -21v-22l-2 -9l2 -2l-2 -35v-72h-2l-185 180l-2 2v2l2 6q-63 48 -153 136l-21 27l-41 -2h-99l-60 -2l-2 2h-2l-12 -2h-7l-29 2l-26 -2h-9l-2 2l-2 -2h-157l-12 2l-10 -2l-2 2l-11 -2h-59q-118 0 -163 105 q-11 11 -13 120l2 2l-2 10v15l6 6l-6 84l2 66l-2 31l4 70l-4 13v45l2 11l-2 12v4l2 54l-4 150l6 46q-5 35 -8 173l2 2l-2 10v23l2 8l-2 9v10l2 2l-2 2v4l2 6l-2 11v16l2 2l-2 2v25l2 15l-2 10l2 120l-2 41h2l-2 2v87q0 6 37 6h6l2 -2l17 4h4v-2l35 2h64l8 -2l9 2h62l14 2 l19 -2h82l-2 -2v-52q-6 -7 -6 -14h2l2 2h2v-21q0 -51 -4 -51l4 -17v-97l2 -2l-2 -2v-2l2 -10l-2 -13v-8l2 -6l-2 -11v-20l2 -19l-2 -10l2 -2v-2l-2 -6h2l-2 -2v-11l2 -6l-2 -10v-46l2 -12l-2 -8h2l-2 -2l2 -33l-2 -116v-35l2 -8l-2 -6l2 -3l-2 -10v-18l2 -2l-2 -3l2 -14v-25 l-2 -58l4 -39v-60l-2 -14l2 -19v-150l-8 -11l12 -2l6 4l7 -4l6 2l20 -2l-4 -12h2l17 14l6 -2l23 4l8 -2l2 2h2l6 -2l11 2l16 -2v2l2 -2h13l20 2l9 -2l33 2l8 -2l2 2h2l2 -2h2l17 2l12 -2l2 2h2l12 -2l7 2l10 -2l21 2q2 -10 6 -10l12 10h41v3l-4 33v8q11 0 11 4l-11 2l-2 56 v20l-4 273l-2 2v2l2 2v2l-2 8l2 35v73l2 28l-2 3v2l2 8l-2 62v22q0 132 4 178l-2 8l2 70l-2 172l6 8h2l62 2v2zM347 1359l-2 -11v-2h2l2 11v2h-2zM698 1835l-2 -33v-46l2 -12l-2 -7v-20l-3 -24l3 -2l-5 -36h-5v36h-2l-3 -144q0 -7 -7 -7v-3l5 -7v-5l-7 3q-68 56 -68 67 q-22 9 -29 26q-14 0 -24 24l-7 -2q-6 0 -29 26v5h8q-23 27 -29 27q-26 36 -34 36l-96 101v4h312q7 0 10 -16l5 4v8h-5v9l5 5h2z" />
<glyph unicode="&#xda;" horiz-adv-x="1234" d="M790 1437l2 -2h44l8 2l6 -2l25 2l25 -4l4 4h169l-2 -21v-20l-2 -2l2 -2v-2q2 -104 10 -104l-2 -2l2 -14v-54l2 -8l-2 -6l2 -21l-2 -51v-29l2 -9l-2 -2v-2l2 -2l-2 -20v-19l-4 -225l4 -27v-82l2 -21l-2 -12l2 -104l-4 -94l2 -3l-2 -6l-2 -97l8 -334v-2l-2 -10l2 -13v-144 l-2 -2l2 -2v-4l-2 -17l2 -16v-7l-2 -2l2 -2v-2l-2 -6l2 -21v-22l-2 -9l2 -2l-2 -35v-72h-2l-185 180l-2 2v2l2 6q-63 48 -153 136l-21 27l-41 -2h-99l-60 -2l-2 2h-2l-12 -2h-7l-29 2l-26 -2h-9l-2 2l-2 -2h-157l-12 2l-10 -2l-2 2l-11 -2h-59q-118 0 -163 105 q-11 11 -13 120l2 2l-2 10v15l6 6l-6 84l2 66l-2 31l4 70l-4 13v45l2 11l-2 12v4l2 54l-4 150l6 46q-5 35 -8 173l2 2l-2 10v23l2 8l-2 9v10l2 2l-2 2v4l2 6l-2 11v16l2 2l-2 2v25l2 15l-2 10l2 120l-2 41h2l-2 2v87q0 6 37 6h6l2 -2l17 4h4v-2l35 2h64l8 -2l9 2h62l14 2 l19 -2h82l-2 -2v-52q-6 -7 -6 -14h2l2 2h2v-21q0 -51 -4 -51l4 -17v-97l2 -2l-2 -2v-2l2 -10l-2 -13v-8l2 -6l-2 -11v-20l2 -19l-2 -10l2 -2v-2l-2 -6h2l-2 -2v-11l2 -6l-2 -10v-46l2 -12l-2 -8h2l-2 -2l2 -33l-2 -116v-35l2 -8l-2 -6l2 -3l-2 -10v-18l2 -2l-2 -3l2 -14v-25 l-2 -58l4 -39v-60l-2 -14l2 -19v-150l-8 -11l12 -2l6 4l7 -4l6 2l20 -2l-4 -12h2l17 14l6 -2l23 4l8 -2l2 2h2l6 -2l11 2l16 -2v2l2 -2h13l20 2l9 -2l33 2l8 -2l2 2h2l2 -2h2l17 2l12 -2l2 2h2l12 -2l7 2l10 -2l21 2q2 -10 6 -10l12 10h41v3l-4 33v8q11 0 11 4l-11 2l-2 56 v20l-4 273l-2 2v2l2 2v2l-2 8l2 35v73l2 28l-2 3v2l2 8l-2 62v22q0 132 4 178l-2 8l2 70l-2 172l6 8h2l62 2v2zM347 1359l-2 -11v-2h2l2 11v2h-2zM373 1849h2l5 -5v-9h-5v-8l5 -4q3 16 10 16h312v-4l-96 -101q-8 0 -34 -36q-6 0 -29 -27h8v-5q-23 -26 -29 -26l-7 2 q-10 -24 -24 -24q-7 -17 -29 -26q0 -11 -68 -67l-7 -3v5l5 7v3q-7 0 -7 7l-3 144h-2v-36h-5l-5 36l3 2l-3 24v20l-2 7l2 12v46l-2 33z" />
<glyph unicode="&#xdb;" horiz-adv-x="1234" d="M790 1437l2 -2h44l8 2l6 -2l25 2l25 -4l4 4h169l-2 -21v-20l-2 -2l2 -2v-2q2 -104 10 -104l-2 -2l2 -14v-54l2 -8l-2 -6l2 -21l-2 -51v-29l2 -9l-2 -2v-2l2 -2l-2 -20v-19l-4 -225l4 -27v-82l2 -21l-2 -12l2 -104l-4 -94l2 -3l-2 -6l-2 -97l8 -334v-2l-2 -10l2 -13v-144 l-2 -2l2 -2v-4l-2 -17l2 -16v-7l-2 -2l2 -2v-2l-2 -6l2 -21v-22l-2 -9l2 -2l-2 -35v-72h-2l-185 180l-2 2v2l2 6q-63 48 -153 136l-21 27l-41 -2h-99l-60 -2l-2 2h-2l-12 -2h-7l-29 2l-26 -2h-9l-2 2l-2 -2h-157l-12 2l-10 -2l-2 2l-11 -2h-59q-118 0 -163 105 q-11 11 -13 120l2 2l-2 10v15l6 6l-6 84l2 66l-2 31l4 70l-4 13v45l2 11l-2 12v4l2 54l-4 150l6 46q-5 35 -8 173l2 2l-2 10v23l2 8l-2 9v10l2 2l-2 2v4l2 6l-2 11v16l2 2l-2 2v25l2 15l-2 10l2 120l-2 41h2l-2 2v87q0 6 37 6h6l2 -2l17 4h4v-2l35 2h64l8 -2l9 2h62l14 2 l19 -2h82l-2 -2v-52q-6 -7 -6 -14h2l2 2h2v-21q0 -51 -4 -51l4 -17v-97l2 -2l-2 -2v-2l2 -10l-2 -13v-8l2 -6l-2 -11v-20l2 -19l-2 -10l2 -2v-2l-2 -6h2l-2 -2v-11l2 -6l-2 -10v-46l2 -12l-2 -8h2l-2 -2l2 -33l-2 -116v-35l2 -8l-2 -6l2 -3l-2 -10v-18l2 -2l-2 -3l2 -14v-25 l-2 -58l4 -39v-60l-2 -14l2 -19v-150l-8 -11l12 -2l6 4l7 -4l6 2l20 -2l-4 -12h2l17 14l6 -2l23 4l8 -2l2 2h2l6 -2l11 2l16 -2v2l2 -2h13l20 2l9 -2l33 2l8 -2l2 2h2l2 -2h2l17 2l12 -2l2 2h2l12 -2l7 2l10 -2l21 2q2 -10 6 -10l12 10h41v3l-4 33v8q11 0 11 4l-11 2l-2 56 v20l-4 273l-2 2v2l2 2v2l-2 8l2 35v73l2 28l-2 3v2l2 8l-2 62v22q0 132 4 178l-2 8l2 70l-2 172l6 8h2l62 2v2zM347 1359l-2 -11v-2h2l2 11v2h-2zM411 1816q0 -3 11 -7l60 2l10 -2l11 2q2 -8 15 -8h21l58 8l31 -5l21 3l36 -3h5l3 -3l3 3h15l11 -3l2 3l27 -3h36l5 -5l13 3h16 l13 -3v5q24 0 24 -7q0 -6 7 -6v-73l-2 -15l2 -3l-2 -13v-31l2 -3l-2 -3v-112l-3 -52h-136l-2 3l-3 -3h-52l-3 3l-2 -3l-19 3h-39l-2 2l-3 -2h-29l-44 -3v3l-3 -3h-2l-73 3v2l-3 -2h-55l-39 2v-2l-2 2h-66l-47 3l-23 -3l-24 3l-18 -3l-10 8l2 8l-5 47l3 2v3l-3 11l3 7l-3 3 l3 39l2 193l3 3l18 -3l13 3v-8l125 8l45 -3z" />
<glyph unicode="&#xdc;" horiz-adv-x="1234" d="M790 1437l2 -2h44l8 2l6 -2l25 2l25 -4l4 4h169l-2 -21v-20l-2 -2l2 -2v-2q2 -104 10 -104l-2 -2l2 -14v-54l2 -8l-2 -6l2 -21l-2 -51v-29l2 -9l-2 -2v-2l2 -2l-2 -20v-19l-4 -225l4 -27v-82l2 -21l-2 -12l2 -104l-4 -94l2 -3l-2 -6l-2 -97l8 -334v-2l-2 -10l2 -13v-144 l-2 -2l2 -2v-4l-2 -17l2 -16v-7l-2 -2l2 -2v-2l-2 -6l2 -21v-22l-2 -9l2 -2l-2 -35v-72h-2l-185 180l-2 2v2l2 6q-63 48 -153 136l-21 27l-41 -2h-99l-60 -2l-2 2h-2l-12 -2h-7l-29 2l-26 -2h-9l-2 2l-2 -2h-157l-12 2l-10 -2l-2 2l-11 -2h-59q-118 0 -163 105 q-11 11 -13 120l2 2l-2 10v15l6 6l-6 84l2 66l-2 31l4 70l-4 13v45l2 11l-2 12v4l2 54l-4 150l6 46q-5 35 -8 173l2 2l-2 10v23l2 8l-2 9v10l2 2l-2 2v4l2 6l-2 11v16l2 2l-2 2v25l2 15l-2 10l2 120l-2 41h2l-2 2v87q0 6 37 6h6l2 -2l17 4h4v-2l35 2h64l8 -2l9 2h62l14 2 l19 -2h82l-2 -2v-52q-6 -7 -6 -14h2l2 2h2v-21q0 -51 -4 -51l4 -17v-97l2 -2l-2 -2v-2l2 -10l-2 -13v-8l2 -6l-2 -11v-20l2 -19l-2 -10l2 -2v-2l-2 -6h2l-2 -2v-11l2 -6l-2 -10v-46l2 -12l-2 -8h2l-2 -2l2 -33l-2 -116v-35l2 -8l-2 -6l2 -3l-2 -10v-18l2 -2l-2 -3l2 -14v-25 l-2 -58l4 -39v-60l-2 -14l2 -19v-150l-8 -11l12 -2l6 4l7 -4l6 2l20 -2l-4 -12h2l17 14l6 -2l23 4l8 -2l2 2h2l6 -2l11 2l16 -2v2l2 -2h13l20 2l9 -2l33 2l8 -2l2 2h2l2 -2h2l17 2l12 -2l2 2h2l12 -2l7 2l10 -2l21 2q2 -10 6 -10l12 10h41v3l-4 33v8q11 0 11 4l-11 2l-2 56 v20l-4 273l-2 2v2l2 2v2l-2 8l2 35v73l2 28l-2 3v2l2 8l-2 62v22q0 132 4 178l-2 8l2 70l-2 172l6 8h2l62 2v2zM347 1359l-2 -11v-2h2l2 11v2h-2zM140 1810h197q36 0 57 -4l60 4q0 -12 -4 -12l2 -21h2v7h5q0 -17 -7 -17v-161l2 -2l-2 -3v-52l2 -10l-2 -2l2 -17v-24l-2 -3v-2 l-60 2h-236l-24 -2v98l5 68q-7 0 -7 7l2 10l-2 2l2 2v34l-2 2l2 8l-2 7l2 24v33l-2 3l2 2v10l-2 2v3q10 0 10 4zM624 1807h197q36 0 57 -4l60 4q0 -12 -4 -12l2 -21h2v7h5q0 -17 -7 -17v-161l2 -2l-2 -3v-52l2 -10l-2 -2l2 -17v-24l-2 -3v-2l-60 2h-236l-24 -2v98l5 68 q-7 0 -7 7l2 10l-2 2l2 2v34l-2 2l2 8l-2 7l2 24v33l-2 3l2 2v10l-2 2v3q10 0 10 4z" />
<glyph unicode="&#xe0;" horiz-adv-x="1237" d="M465 1439l25 -2h26l72 -2v-2l2 2l35 -2h64l-2 -10l158 6l9 -2l10 2l23 -2l49 4q49 0 74 -23q39 -21 64 -84q6 -35 8 -93l-2 -2l2 -10v-158l-2 -29l2 -37v-302q0 -71 4 -99l-2 -2l2 -14v-91l-4 -16v-247l2 -21l-2 -18v-87l2 -76l-8 -141l2 -3l-2 -14v-51l-2 -19l2 -2v-2 l-2 -33v-29l2 -8l-2 -8v-33h-7q-95 85 -236 222l2 2v2q-19 7 -99 84v7l7 2q-7 7 -7 14v97l2 8l-2 8v29l2 2l-2 2v105l2 2l-2 2v99l2 8l-2 8v6l5 29l-5 4v19l-2 33l4 14l-4 12v7h9q-7 7 -7 14q7 0 7 4l-2 6h32l5 4v2h-46l2 2v3l-4 4h-4l-6 -4h-4v4h-2l-11 -4l-12 2l-92 -5 l-2 3l-21 -3h-51l-19 -2l-6 2v-2l-2 2h-17l-18 3l-21 -3h-35v13q-4 0 -4 -13h-18l-21 3l-2 -7l2 -12q-18 -1 -18 -6v-2l16 -2l-8 -140l6 -95h-2q8 -32 8 -111v-156l-8 -8h-10l-15 4l-207 -2l-2 -2h-2l-2 2h-3l-16 -4l-53 2h-33q-12 7 -15 76l2 8l-4 37l2 2l-2 15v104l-2 21 h2l-2 2v181l6 97l-6 16v107l-2 49l2 2v2l-2 9l2 14l-2 17l-2 92l2 2v2l-2 13l2 39q-1 30 -4 30l2 2v29l-2 11h2l-2 2l2 10v55l-2 11l2 12v56l-2 8l2 8v33l2 37l-2 45v121l2 13l-2 2v2l2 6l-2 19v6l56 -4l6 2v4l-11 2v6h393zM699 1079l-78 4l-189 -4l-12 2l-6 -2l-9 4l-10 -2 h-29l-2 9q-7 -7 -12 -7v-154l-6 -8v-2q6 0 6 -4l-2 -19l2 -2l10 2h29q0 -8 4 -8t4 8l35 2l68 -2l16 2l3 -2h2l8 2v-2l2 2h2l2 -2h2l2 2h2l13 -2l14 2l6 -2l8 2l9 -2l47 4l16 -2h17v4h2l6 -4h35l2 -10h2l2 10h17v4q-9 0 -9 9l9 8l-17 2l2 6l-4 37v49l14 17v2h-2l-10 -8h-2v33 l10 -2h9l4 4l-15 2h-8v8l6 10l-10 8l-2 -6h-6l-2 11h-2q-5 0 -5 -13zM698 1835l-2 -33v-46l2 -12l-2 -7v-20l-3 -24l3 -2l-5 -36h-5v36h-2l-3 -144q0 -7 -7 -7v-3l5 -7v-5l-7 3q-68 56 -68 67q-22 9 -29 26q-14 0 -24 24l-7 -2q-6 0 -29 26v5h8q-23 27 -29 27q-26 36 -34 36 l-96 101v4h312q7 0 10 -16l5 4v8h-5v9l5 5h2z" />
<glyph unicode="&#xe1;" horiz-adv-x="1237" d="M465 1439l25 -2h26l72 -2v-2l2 2l35 -2h64l-2 -10l158 6l9 -2l10 2l23 -2l49 4q49 0 74 -23q39 -21 64 -84q6 -35 8 -93l-2 -2l2 -10v-158l-2 -29l2 -37v-302q0 -71 4 -99l-2 -2l2 -14v-91l-4 -16v-247l2 -21l-2 -18v-87l2 -76l-8 -141l2 -3l-2 -14v-51l-2 -19l2 -2v-2 l-2 -33v-29l2 -8l-2 -8v-33h-7q-95 85 -236 222l2 2v2q-19 7 -99 84v7l7 2q-7 7 -7 14v97l2 8l-2 8v29l2 2l-2 2v105l2 2l-2 2v99l2 8l-2 8v6l5 29l-5 4v19l-2 33l4 14l-4 12v7h9q-7 7 -7 14q7 0 7 4l-2 6h32l5 4v2h-46l2 2v3l-4 4h-4l-6 -4h-4v4h-2l-11 -4l-12 2l-92 -5 l-2 3l-21 -3h-51l-19 -2l-6 2v-2l-2 2h-17l-18 3l-21 -3h-35v13q-4 0 -4 -13h-18l-21 3l-2 -7l2 -12q-18 -1 -18 -6v-2l16 -2l-8 -140l6 -95h-2q8 -32 8 -111v-156l-8 -8h-10l-15 4l-207 -2l-2 -2h-2l-2 2h-3l-16 -4l-53 2h-33q-12 7 -15 76l2 8l-4 37l2 2l-2 15v104l-2 21 h2l-2 2v181l6 97l-6 16v107l-2 49l2 2v2l-2 9l2 14l-2 17l-2 92l2 2v2l-2 13l2 39q-1 30 -4 30l2 2v29l-2 11h2l-2 2l2 10v55l-2 11l2 12v56l-2 8l2 8v33l2 37l-2 45v121l2 13l-2 2v2l2 6l-2 19v6l56 -4l6 2v4l-11 2v6h393zM699 1079l-78 4l-189 -4l-12 2l-6 -2l-9 4l-10 -2 h-29l-2 9q-7 -7 -12 -7v-154l-6 -8v-2q6 0 6 -4l-2 -19l2 -2l10 2h29q0 -8 4 -8t4 8l35 2l68 -2l16 2l3 -2h2l8 2v-2l2 2h2l2 -2h2l2 2h2l13 -2l14 2l6 -2l8 2l9 -2l47 4l16 -2h17v4h2l6 -4h35l2 -10h2l2 10h17v4q-9 0 -9 9l9 8l-17 2l2 6l-4 37v49l14 17v2h-2l-10 -8h-2v33 l10 -2h9l4 4l-15 2h-8v8l6 10l-10 8l-2 -6h-6l-2 11h-2q-5 0 -5 -13zM373 1849h2l5 -5v-9h-5v-8l5 -4q3 16 10 16h312v-4l-96 -101q-8 0 -34 -36q-6 0 -29 -27h8v-5q-23 -26 -29 -26l-7 2q-10 -24 -24 -24q-7 -17 -29 -26q0 -11 -68 -67l-7 -3v5l5 7v3q-7 0 -7 7l-3 144h-2 v-36h-5l-5 36l3 2l-3 24v20l-2 7l2 12v46l-2 33z" />
<glyph unicode="&#xe2;" horiz-adv-x="1237" d="M465 1439l25 -2h26l72 -2v-2l2 2l35 -2h64l-2 -10l158 6l9 -2l10 2l23 -2l49 4q49 0 74 -23q39 -21 64 -84q6 -35 8 -93l-2 -2l2 -10v-158l-2 -29l2 -37v-302q0 -71 4 -99l-2 -2l2 -14v-91l-4 -16v-247l2 -21l-2 -18v-87l2 -76l-8 -141l2 -3l-2 -14v-51l-2 -19l2 -2v-2 l-2 -33v-29l2 -8l-2 -8v-33h-7q-95 85 -236 222l2 2v2q-19 7 -99 84v7l7 2q-7 7 -7 14v97l2 8l-2 8v29l2 2l-2 2v105l2 2l-2 2v99l2 8l-2 8v6l5 29l-5 4v19l-2 33l4 14l-4 12v7h9q-7 7 -7 14q7 0 7 4l-2 6h32l5 4v2h-46l2 2v3l-4 4h-4l-6 -4h-4v4h-2l-11 -4l-12 2l-92 -5 l-2 3l-21 -3h-51l-19 -2l-6 2v-2l-2 2h-17l-18 3l-21 -3h-35v13q-4 0 -4 -13h-18l-21 3l-2 -7l2 -12q-18 -1 -18 -6v-2l16 -2l-8 -140l6 -95h-2q8 -32 8 -111v-156l-8 -8h-10l-15 4l-207 -2l-2 -2h-2l-2 2h-3l-16 -4l-53 2h-33q-12 7 -15 76l2 8l-4 37l2 2l-2 15v104l-2 21 h2l-2 2v181l6 97l-6 16v107l-2 49l2 2v2l-2 9l2 14l-2 17l-2 92l2 2v2l-2 13l2 39q-1 30 -4 30l2 2v29l-2 11h2l-2 2l2 10v55l-2 11l2 12v56l-2 8l2 8v33l2 37l-2 45v121l2 13l-2 2v2l2 6l-2 19v6l56 -4l6 2v4l-11 2v6h393zM699 1079l-78 4l-189 -4l-12 2l-6 -2l-9 4l-10 -2 h-29l-2 9q-7 -7 -12 -7v-154l-6 -8v-2q6 0 6 -4l-2 -19l2 -2l10 2h29q0 -8 4 -8t4 8l35 2l68 -2l16 2l3 -2h2l8 2v-2l2 2h2l2 -2h2l2 2h2l13 -2l14 2l6 -2l8 2l9 -2l47 4l16 -2h17v4h2l6 -4h35l2 -10h2l2 10h17v4q-9 0 -9 9l9 8l-17 2l2 6l-4 37v49l14 17v2h-2l-10 -8h-2v33 l10 -2h9l4 4l-15 2h-8v8l6 10l-10 8l-2 -6h-6l-2 11h-2q-5 0 -5 -13zM411 1816q0 -3 11 -7l60 2l10 -2l11 2q2 -8 15 -8h21l58 8l31 -5l21 3l36 -3h5l3 -3l3 3h15l11 -3l2 3l27 -3h36l5 -5l13 3h16l13 -3v5q24 0 24 -7q0 -6 7 -6v-73l-2 -15l2 -3l-2 -13v-31l2 -3l-2 -3 v-112l-3 -52h-136l-2 3l-3 -3h-52l-3 3l-2 -3l-19 3h-39l-2 2l-3 -2h-29l-44 -3v3l-3 -3h-2l-73 3v2l-3 -2h-55l-39 2v-2l-2 2h-66l-47 3l-23 -3l-24 3l-18 -3l-10 8l2 8l-5 47l3 2v3l-3 11l3 7l-3 3l3 39l2 193l3 3l18 -3l13 3v-8l125 8l45 -3z" />
<glyph unicode="&#xe3;" horiz-adv-x="1237" d="M465 1439l25 -2h26l72 -2v-2l2 2l35 -2h64l-2 -10l158 6l9 -2l10 2l23 -2l49 4q49 0 74 -23q39 -21 64 -84q6 -35 8 -93l-2 -2l2 -10v-158l-2 -29l2 -37v-302q0 -71 4 -99l-2 -2l2 -14v-91l-4 -16v-247l2 -21l-2 -18v-87l2 -76l-8 -141l2 -3l-2 -14v-51l-2 -19l2 -2v-2 l-2 -33v-29l2 -8l-2 -8v-33h-7q-95 85 -236 222l2 2v2q-19 7 -99 84v7l7 2q-7 7 -7 14v97l2 8l-2 8v29l2 2l-2 2v105l2 2l-2 2v99l2 8l-2 8v6l5 29l-5 4v19l-2 33l4 14l-4 12v7h9q-7 7 -7 14q7 0 7 4l-2 6h32l5 4v2h-46l2 2v3l-4 4h-4l-6 -4h-4v4h-2l-11 -4l-12 2l-92 -5 l-2 3l-21 -3h-51l-19 -2l-6 2v-2l-2 2h-17l-18 3l-21 -3h-35v13q-4 0 -4 -13h-18l-21 3l-2 -7l2 -12q-18 -1 -18 -6v-2l16 -2l-8 -140l6 -95h-2q8 -32 8 -111v-156l-8 -8h-10l-15 4l-207 -2l-2 -2h-2l-2 2h-3l-16 -4l-53 2h-33q-12 7 -15 76l2 8l-4 37l2 2l-2 15v104l-2 21 h2l-2 2v181l6 97l-6 16v107l-2 49l2 2v2l-2 9l2 14l-2 17l-2 92l2 2v2l-2 13l2 39q-1 30 -4 30l2 2v29l-2 11h2l-2 2l2 10v55l-2 11l2 12v56l-2 8l2 8v33l2 37l-2 45v121l2 13l-2 2v2l2 6l-2 19v6l56 -4l6 2v4l-11 2v6h393zM699 1079l-78 4l-189 -4l-12 2l-6 -2l-9 4l-10 -2 h-29l-2 9q-7 -7 -12 -7v-154l-6 -8v-2q6 0 6 -4l-2 -19l2 -2l10 2h29q0 -8 4 -8t4 8l35 2l68 -2l16 2l3 -2h2l8 2v-2l2 2h2l2 -2h2l2 2h2l13 -2l14 2l6 -2l8 2l9 -2l47 4l16 -2h17v4h2l6 -4h35l2 -10h2l2 10h17v4q-9 0 -9 9l9 8l-17 2l2 6l-4 37v49l14 17v2h-2l-10 -8h-2v33 l10 -2h9l4 4l-15 2h-8v8l6 10l-10 8l-2 -6h-6l-2 11h-2q-5 0 -5 -13zM411 1816q0 -3 11 -7l60 2l10 -2l11 2q2 -8 15 -8h21l58 8l31 -5l21 3l36 -3h5l3 -3l3 3h15l11 -3l2 3l27 -3h36l5 -5l13 3h16l13 -3v5q24 0 24 -7q0 -6 7 -6v-73l-2 -15l2 -3l-2 -13v-31l2 -3l-2 -3 v-112l-3 -52h-136l-2 3l-3 -3h-52l-3 3l-2 -3l-19 3h-39l-2 2l-3 -2h-29l-44 -3v3l-3 -3h-2l-73 3v2l-3 -2h-55l-39 2v-2l-2 2h-66l-47 3l-23 -3l-24 3l-18 -3l-10 8l2 8l-5 47l3 2v3l-3 11l3 7l-3 3l3 39l2 193l3 3l18 -3l13 3v-8l125 8l45 -3z" />
<glyph unicode="&#xe4;" horiz-adv-x="1237" d="M465 1439l25 -2h26l72 -2v-2l2 2l35 -2h64l-2 -10l158 6l9 -2l10 2l23 -2l49 4q49 0 74 -23q39 -21 64 -84q6 -35 8 -93l-2 -2l2 -10v-158l-2 -29l2 -37v-302q0 -71 4 -99l-2 -2l2 -14v-91l-4 -16v-247l2 -21l-2 -18v-87l2 -76l-8 -141l2 -3l-2 -14v-51l-2 -19l2 -2v-2 l-2 -33v-29l2 -8l-2 -8v-33h-7q-95 85 -236 222l2 2v2q-19 7 -99 84v7l7 2q-7 7 -7 14v97l2 8l-2 8v29l2 2l-2 2v105l2 2l-2 2v99l2 8l-2 8v6l5 29l-5 4v19l-2 33l4 14l-4 12v7h9q-7 7 -7 14q7 0 7 4l-2 6h32l5 4v2h-46l2 2v3l-4 4h-4l-6 -4h-4v4h-2l-11 -4l-12 2l-92 -5 l-2 3l-21 -3h-51l-19 -2l-6 2v-2l-2 2h-17l-18 3l-21 -3h-35v13q-4 0 -4 -13h-18l-21 3l-2 -7l2 -12q-18 -1 -18 -6v-2l16 -2l-8 -140l6 -95h-2q8 -32 8 -111v-156l-8 -8h-10l-15 4l-207 -2l-2 -2h-2l-2 2h-3l-16 -4l-53 2h-33q-12 7 -15 76l2 8l-4 37l2 2l-2 15v104l-2 21 h2l-2 2v181l6 97l-6 16v107l-2 49l2 2v2l-2 9l2 14l-2 17l-2 92l2 2v2l-2 13l2 39q-1 30 -4 30l2 2v29l-2 11h2l-2 2l2 10v55l-2 11l2 12v56l-2 8l2 8v33l2 37l-2 45v121l2 13l-2 2v2l2 6l-2 19v6l56 -4l6 2v4l-11 2v6h393zM699 1079l-78 4l-189 -4l-12 2l-6 -2l-9 4l-10 -2 h-29l-2 9q-7 -7 -12 -7v-154l-6 -8v-2q6 0 6 -4l-2 -19l2 -2l10 2h29q0 -8 4 -8t4 8l35 2l68 -2l16 2l3 -2h2l8 2v-2l2 2h2l2 -2h2l2 2h2l13 -2l14 2l6 -2l8 2l9 -2l47 4l16 -2h17v4h2l6 -4h35l2 -10h2l2 10h17v4q-9 0 -9 9l9 8l-17 2l2 6l-4 37v49l14 17v2h-2l-10 -8h-2v33 l10 -2h9l4 4l-15 2h-8v8l6 10l-10 8l-2 -6h-6l-2 11h-2q-5 0 -5 -13zM140 1810h197q36 0 57 -4l60 4q0 -12 -4 -12l2 -21h2v7h5q0 -17 -7 -17v-161l2 -2l-2 -3v-52l2 -10l-2 -2l2 -17v-24l-2 -3v-2l-60 2h-236l-24 -2v98l5 68q-7 0 -7 7l2 10l-2 2l2 2v34l-2 2l2 8l-2 7 l2 24v33l-2 3l2 2v10l-2 2v3q10 0 10 4zM624 1807h197q36 0 57 -4l60 4q0 -12 -4 -12l2 -21h2v7h5q0 -17 -7 -17v-161l2 -2l-2 -3v-52l2 -10l-2 -2l2 -17v-24l-2 -3v-2l-60 2h-236l-24 -2v98l5 68q-7 0 -7 7l2 10l-2 2l2 2v34l-2 2l2 8l-2 7l2 24v33l-2 3l2 2v10l-2 2v3 q10 0 10 4z" />
<glyph unicode="&#xe6;" horiz-adv-x="1936" d="M1529 1435l20 -3h10l62 3v-3l2 3h77l10 -3l10 3h57v-5h3l-3 -43v-228l-2 -2l2 -3v-67l-5 -5h-22l-15 3l-25 -3h-194q-44 0 -57 5l-59 -5h-5v3l-42 -3h-40l-47 3l-3 -3h-2l-10 3h-5l-12 -3l-3 3v-3l-2 3h-3l-10 -3l-10 5q-15 -5 -64 -5h-52l-18 5l-5 -7l3 -3l-3 -12v-134 l-17 -5v-3l15 -12l2 -10l114 -3l23 3v-3l2 3l25 -3h77l2 3l3 -3h151l3 3l2 -3h8v3l17 -3h22l53 -2l7 2v-2l2 2l13 -2l12 2v-72l-2 -9l2 -3l-2 -30v-10l2 -10l-2 -17v-94l-3 -3l3 -2v-8l-3 -2l3 -3v-54l-3 -3l3 -2v-3l-3 -2l3 -3v-15h-20l-12 3l-3 -3v3l-2 -3l-57 3 q-176 -10 -261 -10l-15 2l-10 -4l-15 2l-2 -2h-3l-2 2l-25 -2h-42l-15 2l-13 -2h-22l-15 9l-2 -2v-15h-15q1 -6 20 -12v-10l-3 -8l3 -12v-13l-3 -9l3 -10v-3l-3 -2l3 -3v-7l-3 -3l3 -2l-3 -42v-25q10 -9 10 -15q5 0 5 7l10 -2l17 2h177l34 3l8 -3l2 3l25 -3h199l27 3l7 -3 l8 3l35 -3l22 3l2 -3h3l2 3l30 -3h32l25 3l23 -3h7l5 -5v-57l-2 -25l2 -22v-17l-2 -3l2 -2v-3l-2 -2v-3l2 -7l-2 -27l2 -10l-2 -25v-149h-25l-10 2l-10 -2v2l-3 -2l-29 2h-23l-37 -2v2l-2 -2h-3l-2 2l-3 -2h-2l-8 2l-12 -2h-5l-13 2l-15 -2h-4l-3 2l-2 -2h-3l-12 2l-15 -2 h-8l-12 2l-12 -2l-33 2v-2l-7 2l-8 -2h-5v2l-29 -2h-30l-10 -3l-13 5l-12 -2h-27l-3 -3l-2 3h-50l-10 -3l-10 3h-2l-8 -3l-12 3h-15l-2 -3l-3 3h-2l-3 -3l-12 3h-5l-10 -3l-3 3h-7v-3l-17 3h-15l-15 -3l-8 3l-2 -3l-13 3h-7l-2 -3l-3 3l-62 -3h-27l-3 3l-2 -3h-283v169 l-3 114l3 3v2l-3 10h3l-3 3v17l3 25l-3 20l3 2v3l-3 2v3l5 101l-5 5v13l3 10l-3 10v17l5 8l-7 4l-5 -4h-10l-3 12h-5l-2 -12l-57 7l-84 -7h-157l-30 2q-4 0 -7 -154l2 -7l-2 -8l2 -2l-2 -13l2 -12l-2 -12l2 -8l-2 -2h2l-2 -8l2 -15l-2 -10l2 -87v-203l-49 -3h-65l-27 -2 l-20 2h-5l-15 -2l-10 2l-10 -2l-14 2l-25 -2l-35 2l-12 -2l-18 2l-12 -2l-15 2l-13 -2l-2 2v3l5 5l-3 2v15l3 33l-3 22l3 2l-3 13v25l3 7l-3 12v65l3 2l-3 3v5l3 2l-3 3v169l-2 15l2 12v62l3 25l-5 67h2l-2 2v55l2 22l-2 25v52l-3 15l3 12v10l-3 3l3 2v3l-3 12h3l-3 3v2 l3 13l-3 12l3 20l-3 52l3 12l-3 20v5l3 10l-3 8l3 19l-3 18l3 2v3l-3 15v2l3 10l-3 8l3 19v5h-3l3 25v75l2 10l-2 2v3l2 2l-2 12l7 142v5h-2q0 -8 -5 -8h-3v3l3 27l-5 15v70h2l187 2l15 3l7 -3l12 3l3 -3h2l3 3h2l3 -3h2l10 3l8 -3l2 3l13 -3h9l13 3l15 -3h12l15 3l3 -3h2 l3 3h2l20 -3l15 3h5v-3l42 3h193l3 2l2 -2h5l10 2l3 -2h2l8 2l2 -2v2l3 -2l116 2h728zM687 1080l-9 2l-38 -2l-2 2l-18 -2h-131l-25 -3l-22 3h-87v-3q0 -5 7 -5v-7h-7v-139l-10 -3v-5q10 0 10 -5l-5 -15h208l3 3l2 -3l30 3h129v5q-7 0 -7 5v67h2l3 -3h2q-7 43 -7 95v15z" />
<glyph unicode="&#xe8;" horiz-adv-x="1213" d="M4 1434h140l8 -2l6 2l15 -2l18 2v-2l3 2l31 -2h43l9 -2l8 2l2 -2l2 2h7l8 -2l14 2h127l2 -2l3 2h2l231 2h16l29 -2l21 2l9 -2l8 2l12 -2l21 2h2l9 -2l2 2h6v-2l25 2h25v-4l27 2l6 -2l19 4l42 -2h112v-38q-13 -44 -13 -122v-190l-20 -2h-63l-87 -2v2l-2 -2h-2q-21 1 -21 4 l-6 -4l-11 2l-14 -2q-15 2 -15 4l-17 -4l-8 4l-2 -2h-50l-2 2l-2 -2h-25l-2 2l-2 -2h-36l-12 2l-11 -2h-12l-2 2l-2 -2h-38l-2 2l-2 -2h-8l-2 2l-2 -2h-17l-2 2l-2 -2h-21l-2 2l-2 -2h-2l-50 4l-38 -2h-77q0 9 -4 9t-4 -7l-2 -2h-35l-9 -8l31 2h7l2 -15l-6 -2v-4h4v-4 q0 -4 -9 -4v-2q9 0 9 -6l-2 -7l2 -2h2l-2 -87v-44l4 -10h2l6 4h2q15 -1 15 -4q30 4 81 4l2 -2l2 2l354 -2h69l4 -4v-65l-8 -54l2 -23l-2 -33q4 -40 4 -100l-2 -75h-5v-2l-70 4h-27l-17 2l-23 -2h-158l-17 -2l-16 2h-54l-19 2l-6 -2l-3 2l-12 -2l-25 2l-19 -2l-16 6v-4h-2 l-9 2l-14 -4q-7 4 -7 25q-20 -31 -20 -62l2 -2q-13 -2 -13 -7h13v-8l-2 -13l4 -8l-2 -33q0 -5 -15 -6v-3l15 -12v-27l-15 -2v-4h15v-17q0 -5 16 -8h2l-2 2v6h167v-6l6 6l29 -2l2 2h2l9 -2l16 2l13 -2l6 2l15 -2l2 2h2l2 -2h2l10 2l46 -2h202l13 2l10 -2h46l33 -2l2 2h2 l23 -2h19q14 0 14 4q13 -4 13 -8v-27l-2 -29l2 -9h-2l2 -2v-2l-2 -19l2 -8l-2 -2l2 -6l-2 -46l2 -54l-2 -11l2 -10h-2l2 -6l-2 -2l2 -7l-2 -47l2 -30l-2 -2v-2l2 -6l-2 -25h-50l-13 2l-2 -2l-25 2h-62l-61 6l-122 -2l-9 -2l-10 4q-9 -4 -27 -4h-52l-11 2l-12 -2h-127l-23 -2 l-8 2l-2 -2l-11 2l-12 -2h-4v2l-25 -2h-23l-25 2l-25 -2h-21l-21 2l-10 -2l-67 2l-12 -2l-17 2l-12 -2l-19 2h-13l-50 -2l-10 4l2 11h-6q0 -15 -31 -15l-40 2v4l-2 25l4 32l-2 2l2 10v35l2 30l-2 8l2 2l-2 6l2 61v18q2 14 6 15q-6 23 -6 102v553q6 52 9 150l-3 11l3 6l-3 8 h3q-9 20 -9 34v12h4v-4h2v8q0 11 -6 11v8l2 2l-2 2v8l6 3l-4 12l2 19l-4 81l4 56v4h-2l-2 -14h-4v68zM8 1349v-4h2q7 68 15 68q7 0 21 -62v-2h2v4q-13 66 -21 66h-2q-9 0 -17 -70zM50 1336v-8h2v8h-2zM52 1326v-6l2 -9h2v2l-2 13h-2zM698 1835l-2 -33v-46l2 -12l-2 -7v-20 l-3 -24l3 -2l-5 -36h-5v36h-2l-3 -144q0 -7 -7 -7v-3l5 -7v-5l-7 3q-68 56 -68 67q-22 9 -29 26q-14 0 -24 24l-7 -2q-6 0 -29 26v5h8q-23 27 -29 27q-26 36 -34 36l-96 101v4h312q7 0 10 -16l5 4v8h-5v9l5 5h2z" />
<glyph unicode="&#xe9;" horiz-adv-x="1213" d="M4 1434h140l8 -2l6 2l15 -2l18 2v-2l3 2l31 -2h43l9 -2l8 2l2 -2l2 2h7l8 -2l14 2h127l2 -2l3 2h2l231 2h16l29 -2l21 2l9 -2l8 2l12 -2l21 2h2l9 -2l2 2h6v-2l25 2h25v-4l27 2l6 -2l19 4l42 -2h112v-38q-13 -44 -13 -122v-190l-20 -2h-63l-87 -2v2l-2 -2h-2q-21 1 -21 4 l-6 -4l-11 2l-14 -2q-15 2 -15 4l-17 -4l-8 4l-2 -2h-50l-2 2l-2 -2h-25l-2 2l-2 -2h-36l-12 2l-11 -2h-12l-2 2l-2 -2h-38l-2 2l-2 -2h-8l-2 2l-2 -2h-17l-2 2l-2 -2h-21l-2 2l-2 -2h-2l-50 4l-38 -2h-77q0 9 -4 9t-4 -7l-2 -2h-35l-9 -8l31 2h7l2 -15l-6 -2v-4h4v-4 q0 -4 -9 -4v-2q9 0 9 -6l-2 -7l2 -2h2l-2 -87v-44l4 -10h2l6 4h2q15 -1 15 -4q30 4 81 4l2 -2l2 2l354 -2h69l4 -4v-65l-8 -54l2 -23l-2 -33q4 -40 4 -100l-2 -75h-5v-2l-70 4h-27l-17 2l-23 -2h-158l-17 -2l-16 2h-54l-19 2l-6 -2l-3 2l-12 -2l-25 2l-19 -2l-16 6v-4h-2 l-9 2l-14 -4q-7 4 -7 25q-20 -31 -20 -62l2 -2q-13 -2 -13 -7h13v-8l-2 -13l4 -8l-2 -33q0 -5 -15 -6v-3l15 -12v-27l-15 -2v-4h15v-17q0 -5 16 -8h2l-2 2v6h167v-6l6 6l29 -2l2 2h2l9 -2l16 2l13 -2l6 2l15 -2l2 2h2l2 -2h2l10 2l46 -2h202l13 2l10 -2h46l33 -2l2 2h2 l23 -2h19q14 0 14 4q13 -4 13 -8v-27l-2 -29l2 -9h-2l2 -2v-2l-2 -19l2 -8l-2 -2l2 -6l-2 -46l2 -54l-2 -11l2 -10h-2l2 -6l-2 -2l2 -7l-2 -47l2 -30l-2 -2v-2l2 -6l-2 -25h-50l-13 2l-2 -2l-25 2h-62l-61 6l-122 -2l-9 -2l-10 4q-9 -4 -27 -4h-52l-11 2l-12 -2h-127l-23 -2 l-8 2l-2 -2l-11 2l-12 -2h-4v2l-25 -2h-23l-25 2l-25 -2h-21l-21 2l-10 -2l-67 2l-12 -2l-17 2l-12 -2l-19 2h-13l-50 -2l-10 4l2 11h-6q0 -15 -31 -15l-40 2v4l-2 25l4 32l-2 2l2 10v35l2 30l-2 8l2 2l-2 6l2 61v18q2 14 6 15q-6 23 -6 102v553q6 52 9 150l-3 11l3 6l-3 8 h3q-9 20 -9 34v12h4v-4h2v8q0 11 -6 11v8l2 2l-2 2v8l6 3l-4 12l2 19l-4 81l4 56v4h-2l-2 -14h-4v68zM8 1349v-4h2q7 68 15 68q7 0 21 -62v-2h2v4q-13 66 -21 66h-2q-9 0 -17 -70zM50 1336v-8h2v8h-2zM52 1326v-6l2 -9h2v2l-2 13h-2zM373 1849h2l5 -5v-9h-5v-8l5 -4 q3 16 10 16h312v-4l-96 -101q-8 0 -34 -36q-6 0 -29 -27h8v-5q-23 -26 -29 -26l-7 2q-10 -24 -24 -24q-7 -17 -29 -26q0 -11 -68 -67l-7 -3v5l5 7v3q-7 0 -7 7l-3 144h-2v-36h-5l-5 36l3 2l-3 24v20l-2 7l2 12v46l-2 33z" />
<glyph unicode="&#xea;" horiz-adv-x="1213" d="M4 1434h140l8 -2l6 2l15 -2l18 2v-2l3 2l31 -2h43l9 -2l8 2l2 -2l2 2h7l8 -2l14 2h127l2 -2l3 2h2l231 2h16l29 -2l21 2l9 -2l8 2l12 -2l21 2h2l9 -2l2 2h6v-2l25 2h25v-4l27 2l6 -2l19 4l42 -2h112v-38q-13 -44 -13 -122v-190l-20 -2h-63l-87 -2v2l-2 -2h-2q-21 1 -21 4 l-6 -4l-11 2l-14 -2q-15 2 -15 4l-17 -4l-8 4l-2 -2h-50l-2 2l-2 -2h-25l-2 2l-2 -2h-36l-12 2l-11 -2h-12l-2 2l-2 -2h-38l-2 2l-2 -2h-8l-2 2l-2 -2h-17l-2 2l-2 -2h-21l-2 2l-2 -2h-2l-50 4l-38 -2h-77q0 9 -4 9t-4 -7l-2 -2h-35l-9 -8l31 2h7l2 -15l-6 -2v-4h4v-4 q0 -4 -9 -4v-2q9 0 9 -6l-2 -7l2 -2h2l-2 -87v-44l4 -10h2l6 4h2q15 -1 15 -4q30 4 81 4l2 -2l2 2l354 -2h69l4 -4v-65l-8 -54l2 -23l-2 -33q4 -40 4 -100l-2 -75h-5v-2l-70 4h-27l-17 2l-23 -2h-158l-17 -2l-16 2h-54l-19 2l-6 -2l-3 2l-12 -2l-25 2l-19 -2l-16 6v-4h-2 l-9 2l-14 -4q-7 4 -7 25q-20 -31 -20 -62l2 -2q-13 -2 -13 -7h13v-8l-2 -13l4 -8l-2 -33q0 -5 -15 -6v-3l15 -12v-27l-15 -2v-4h15v-17q0 -5 16 -8h2l-2 2v6h167v-6l6 6l29 -2l2 2h2l9 -2l16 2l13 -2l6 2l15 -2l2 2h2l2 -2h2l10 2l46 -2h202l13 2l10 -2h46l33 -2l2 2h2 l23 -2h19q14 0 14 4q13 -4 13 -8v-27l-2 -29l2 -9h-2l2 -2v-2l-2 -19l2 -8l-2 -2l2 -6l-2 -46l2 -54l-2 -11l2 -10h-2l2 -6l-2 -2l2 -7l-2 -47l2 -30l-2 -2v-2l2 -6l-2 -25h-50l-13 2l-2 -2l-25 2h-62l-61 6l-122 -2l-9 -2l-10 4q-9 -4 -27 -4h-52l-11 2l-12 -2h-127l-23 -2 l-8 2l-2 -2l-11 2l-12 -2h-4v2l-25 -2h-23l-25 2l-25 -2h-21l-21 2l-10 -2l-67 2l-12 -2l-17 2l-12 -2l-19 2h-13l-50 -2l-10 4l2 11h-6q0 -15 -31 -15l-40 2v4l-2 25l4 32l-2 2l2 10v35l2 30l-2 8l2 2l-2 6l2 61v18q2 14 6 15q-6 23 -6 102v553q6 52 9 150l-3 11l3 6l-3 8 h3q-9 20 -9 34v12h4v-4h2v8q0 11 -6 11v8l2 2l-2 2v8l6 3l-4 12l2 19l-4 81l4 56v4h-2l-2 -14h-4v68zM8 1349v-4h2q7 68 15 68q7 0 21 -62v-2h2v4q-13 66 -21 66h-2q-9 0 -17 -70zM50 1336v-8h2v8h-2zM52 1326v-6l2 -9h2v2l-2 13h-2zM411 1816q0 -3 11 -7l60 2l10 -2l11 2 q2 -8 15 -8h21l58 8l31 -5l21 3l36 -3h5l3 -3l3 3h15l11 -3l2 3l27 -3h36l5 -5l13 3h16l13 -3v5q24 0 24 -7q0 -6 7 -6v-73l-2 -15l2 -3l-2 -13v-31l2 -3l-2 -3v-112l-3 -52h-136l-2 3l-3 -3h-52l-3 3l-2 -3l-19 3h-39l-2 2l-3 -2h-29l-44 -3v3l-3 -3h-2l-73 3v2l-3 -2h-55 l-39 2v-2l-2 2h-66l-47 3l-23 -3l-24 3l-18 -3l-10 8l2 8l-5 47l3 2v3l-3 11l3 7l-3 3l3 39l2 193l3 3l18 -3l13 3v-8l125 8l45 -3z" />
<glyph unicode="&#xeb;" horiz-adv-x="1213" d="M4 1434h140l8 -2l6 2l15 -2l18 2v-2l3 2l31 -2h43l9 -2l8 2l2 -2l2 2h7l8 -2l14 2h127l2 -2l3 2h2l231 2h16l29 -2l21 2l9 -2l8 2l12 -2l21 2h2l9 -2l2 2h6v-2l25 2h25v-4l27 2l6 -2l19 4l42 -2h112v-38q-13 -44 -13 -122v-190l-20 -2h-63l-87 -2v2l-2 -2h-2q-21 1 -21 4 l-6 -4l-11 2l-14 -2q-15 2 -15 4l-17 -4l-8 4l-2 -2h-50l-2 2l-2 -2h-25l-2 2l-2 -2h-36l-12 2l-11 -2h-12l-2 2l-2 -2h-38l-2 2l-2 -2h-8l-2 2l-2 -2h-17l-2 2l-2 -2h-21l-2 2l-2 -2h-2l-50 4l-38 -2h-77q0 9 -4 9t-4 -7l-2 -2h-35l-9 -8l31 2h7l2 -15l-6 -2v-4h4v-4 q0 -4 -9 -4v-2q9 0 9 -6l-2 -7l2 -2h2l-2 -87v-44l4 -10h2l6 4h2q15 -1 15 -4q30 4 81 4l2 -2l2 2l354 -2h69l4 -4v-65l-8 -54l2 -23l-2 -33q4 -40 4 -100l-2 -75h-5v-2l-70 4h-27l-17 2l-23 -2h-158l-17 -2l-16 2h-54l-19 2l-6 -2l-3 2l-12 -2l-25 2l-19 -2l-16 6v-4h-2 l-9 2l-14 -4q-7 4 -7 25q-20 -31 -20 -62l2 -2q-13 -2 -13 -7h13v-8l-2 -13l4 -8l-2 -33q0 -5 -15 -6v-3l15 -12v-27l-15 -2v-4h15v-17q0 -5 16 -8h2l-2 2v6h167v-6l6 6l29 -2l2 2h2l9 -2l16 2l13 -2l6 2l15 -2l2 2h2l2 -2h2l10 2l46 -2h202l13 2l10 -2h46l33 -2l2 2h2 l23 -2h19q14 0 14 4q13 -4 13 -8v-27l-2 -29l2 -9h-2l2 -2v-2l-2 -19l2 -8l-2 -2l2 -6l-2 -46l2 -54l-2 -11l2 -10h-2l2 -6l-2 -2l2 -7l-2 -47l2 -30l-2 -2v-2l2 -6l-2 -25h-50l-13 2l-2 -2l-25 2h-62l-61 6l-122 -2l-9 -2l-10 4q-9 -4 -27 -4h-52l-11 2l-12 -2h-127l-23 -2 l-8 2l-2 -2l-11 2l-12 -2h-4v2l-25 -2h-23l-25 2l-25 -2h-21l-21 2l-10 -2l-67 2l-12 -2l-17 2l-12 -2l-19 2h-13l-50 -2l-10 4l2 11h-6q0 -15 -31 -15l-40 2v4l-2 25l4 32l-2 2l2 10v35l2 30l-2 8l2 2l-2 6l2 61v18q2 14 6 15q-6 23 -6 102v553q6 52 9 150l-3 11l3 6l-3 8 h3q-9 20 -9 34v12h4v-4h2v8q0 11 -6 11v8l2 2l-2 2v8l6 3l-4 12l2 19l-4 81l4 56v4h-2l-2 -14h-4v68zM8 1349v-4h2q7 68 15 68q7 0 21 -62v-2h2v4q-13 66 -21 66h-2q-9 0 -17 -70zM50 1336v-8h2v8h-2zM52 1326v-6l2 -9h2v2l-2 13h-2zM140 1810h197q36 0 57 -4l60 4 q0 -12 -4 -12l2 -21h2v7h5q0 -17 -7 -17v-161l2 -2l-2 -3v-52l2 -10l-2 -2l2 -17v-24l-2 -3v-2l-60 2h-236l-24 -2v98l5 68q-7 0 -7 7l2 10l-2 2l2 2v34l-2 2l2 8l-2 7l2 24v33l-2 3l2 2v10l-2 2v3q10 0 10 4zM624 1807h197q36 0 57 -4l60 4q0 -12 -4 -12l2 -21h2v7h5 q0 -17 -7 -17v-161l2 -2l-2 -3v-52l2 -10l-2 -2l2 -17v-24l-2 -3v-2l-60 2h-236l-24 -2v98l5 68q-7 0 -7 7l2 10l-2 2l2 2v34l-2 2l2 8l-2 7l2 24v33l-2 3l2 2v10l-2 2v3q10 0 10 4z" />
<glyph unicode="&#xec;" horiz-adv-x="502" d="M58 1443l38 -4l2 2l15 -2l85 -2l2 2h2l13 -2h19l8 -2l8 4l13 -4v2l2 -2h56l2 2l2 -2h38q0 -86 -10 -176l2 -8l-4 -12h4v4l2 -2h2l-2 -46v-21l-2 -2l2 -2v-19q0 -15 -6 -15l4 -148v-19l4 -16l-6 -215l2 -2v-2l-2 -23v-9l2 -10l-2 -13v-39l-2 -13q4 -9 4 -27v-46l2 -67 l-2 -73v-81q0 -42 -4 -42l4 -12v-105l2 -39l-2 -2l2 -21v-136l-2 -23q4 -16 4 -44l-2 -29l2 -2v-2q-3 -8 -6 -8q3 0 6 -52h-2l2 -3v-35l-2 -10l2 -13v-13l-2 -20l2 -21l-2 -2v-2l2 -9v-8l-2 -13l2 -8l-4 -25q-11 0 -117 115q-144 145 -144 154l-33 44v-2l12 -17v-4h-2 q-63 57 -63 73l-4 8v15h2l11 -8v2q-13 12 -13 23v27l-2 33l2 6l-2 9l2 64v17l-2 57l2 60v38l-2 45h2l-2 3l2 14l-2 21l2 10l-2 34v37l-2 48l2 17l-2 6h2l-2 7l13 71l-9 200h2l-2 2v27l2 6l-2 11v217l2 50l-2 8l9 77v5h-3l3 20v51l2 14h4q0 -6 4 -6q-7 25 -10 25l2 10v48 l-2 15h6q4 0 4 -6h4v2l-2 2v2h17zM351 1176v-8h2v8h-2zM33 -11v-4l2 -3h3l-3 7h-2zM344 1832l-2 -33v-46l2 -12l-2 -7v-20l-3 -24l3 -2l-5 -36h-5v36h-2l-3 -144q0 -7 -7 -7v-3l5 -7v-5l-7 3q-68 56 -68 67q-22 9 -29 26q-14 0 -24 24l-7 -2q-6 0 -29 26v5h8q-23 27 -29 27 q-26 36 -34 36l-96 101v4h312q7 0 10 -16l5 4v8h-5v9l5 5h2z" />
<glyph unicode="&#xed;" horiz-adv-x="502" d="M58 1443l38 -4l2 2l15 -2l85 -2l2 2h2l13 -2h19l8 -2l8 4l13 -4v2l2 -2h56l2 2l2 -2h38q0 -86 -10 -176l2 -8l-4 -12h4v4l2 -2h2l-2 -46v-21l-2 -2l2 -2v-19q0 -15 -6 -15l4 -148v-19l4 -16l-6 -215l2 -2v-2l-2 -23v-9l2 -10l-2 -13v-39l-2 -13q4 -9 4 -27v-46l2 -67 l-2 -73v-81q0 -42 -4 -42l4 -12v-105l2 -39l-2 -2l2 -21v-136l-2 -23q4 -16 4 -44l-2 -29l2 -2v-2q-3 -8 -6 -8q3 0 6 -52h-2l2 -3v-35l-2 -10l2 -13v-13l-2 -20l2 -21l-2 -2v-2l2 -9v-8l-2 -13l2 -8l-4 -25q-11 0 -117 115q-144 145 -144 154l-33 44v-2l12 -17v-4h-2 q-63 57 -63 73l-4 8v15h2l11 -8v2q-13 12 -13 23v27l-2 33l2 6l-2 9l2 64v17l-2 57l2 60v38l-2 45h2l-2 3l2 14l-2 21l2 10l-2 34v37l-2 48l2 17l-2 6h2l-2 7l13 71l-9 200h2l-2 2v27l2 6l-2 11v217l2 50l-2 8l9 77v5h-3l3 20v51l2 14h4q0 -6 4 -6q-7 25 -10 25l2 10v48 l-2 15h6q4 0 4 -6h4v2l-2 2v2h17zM351 1176v-8h2v8h-2zM33 -11v-4l2 -3h3l-3 7h-2zM18 1849h2l5 -5v-9h-5v-8l5 -4q3 16 10 16h312v-4l-96 -101q-8 0 -34 -36q-6 0 -29 -27h8v-5q-23 -26 -29 -26l-7 2q-10 -24 -24 -24q-7 -17 -29 -26q0 -11 -68 -67l-7 -3v5l5 7v3 q-7 0 -7 7l-3 144h-2v-36h-5l-5 36l3 2l-3 24v20l-2 7l2 12v46l-2 33z" />
<glyph unicode="&#xee;" horiz-adv-x="502" d="M58 1443l38 -4l2 2l15 -2l85 -2l2 2h2l13 -2h19l8 -2l8 4l13 -4v2l2 -2h56l2 2l2 -2h38q0 -86 -10 -176l2 -8l-4 -12h4v4l2 -2h2l-2 -46v-21l-2 -2l2 -2v-19q0 -15 -6 -15l4 -148v-19l4 -16l-6 -215l2 -2v-2l-2 -23v-9l2 -10l-2 -13v-39l-2 -13q4 -9 4 -27v-46l2 -67 l-2 -73v-81q0 -42 -4 -42l4 -12v-105l2 -39l-2 -2l2 -21v-136l-2 -23q4 -16 4 -44l-2 -29l2 -2v-2q-3 -8 -6 -8q3 0 6 -52h-2l2 -3v-35l-2 -10l2 -13v-13l-2 -20l2 -21l-2 -2v-2l2 -9v-8l-2 -13l2 -8l-4 -25q-11 0 -117 115q-144 145 -144 154l-33 44v-2l12 -17v-4h-2 q-63 57 -63 73l-4 8v15h2l11 -8v2q-13 12 -13 23v27l-2 33l2 6l-2 9l2 64v17l-2 57l2 60v38l-2 45h2l-2 3l2 14l-2 21l2 10l-2 34v37l-2 48l2 17l-2 6h2l-2 7l13 71l-9 200h2l-2 2v27l2 6l-2 11v217l2 50l-2 8l9 77v5h-3l3 20v51l2 14h4q0 -6 4 -6q-7 25 -10 25l2 10v48 l-2 15h6q4 0 4 -6h4v2l-2 2v2h17zM351 1176v-8h2v8h-2zM33 -11v-4l2 -3h3l-3 7h-2zM104 1816q0 -3 11 -7l60 2l10 -2l11 2q2 -8 15 -8h21l58 8l31 -5l21 3l36 -3h5l3 -3l3 3h15l11 -3l2 3l27 -3h36l5 -5l13 3h16l13 -3v5q24 0 24 -7q0 -6 7 -6v-73l-2 -15l2 -3l-2 -13v-31 l2 -3l-2 -3v-112l-3 -52h-136l-2 3l-3 -3h-52l-3 3l-2 -3l-19 3h-39l-2 2l-3 -2h-29l-44 -3v3l-3 -3h-2l-73 3v2l-3 -2h-55l-39 2v-2l-2 2h-66l-47 3l-23 -3l-24 3l-18 -3l-10 8l2 8l-5 47l3 2v3l-3 11l3 7l-3 3l3 39l2 193l3 3l18 -3l13 3v-8l125 8l45 -3z" />
<glyph unicode="&#xef;" horiz-adv-x="502" d="M58 1443l38 -4l2 2l15 -2l85 -2l2 2h2l13 -2h19l8 -2l8 4l13 -4v2l2 -2h56l2 2l2 -2h38q0 -86 -10 -176l2 -8l-4 -12h4v4l2 -2h2l-2 -46v-21l-2 -2l2 -2v-19q0 -15 -6 -15l4 -148v-19l4 -16l-6 -215l2 -2v-2l-2 -23v-9l2 -10l-2 -13v-39l-2 -13q4 -9 4 -27v-46l2 -67 l-2 -73v-81q0 -42 -4 -42l4 -12v-105l2 -39l-2 -2l2 -21v-136l-2 -23q4 -16 4 -44l-2 -29l2 -2v-2q-3 -8 -6 -8q3 0 6 -52h-2l2 -3v-35l-2 -10l2 -13v-13l-2 -20l2 -21l-2 -2v-2l2 -9v-8l-2 -13l2 -8l-4 -25q-11 0 -117 115q-144 145 -144 154l-33 44v-2l12 -17v-4h-2 q-63 57 -63 73l-4 8v15h2l11 -8v2q-13 12 -13 23v27l-2 33l2 6l-2 9l2 64v17l-2 57l2 60v38l-2 45h2l-2 3l2 14l-2 21l2 10l-2 34v37l-2 48l2 17l-2 6h2l-2 7l13 71l-9 200h2l-2 2v27l2 6l-2 11v217l2 50l-2 8l9 77v5h-3l3 20v51l2 14h4q0 -6 4 -6q-7 25 -10 25l2 10v48 l-2 15h6q4 0 4 -6h4v2l-2 2v2h17zM351 1176v-8h2v8h-2zM33 -11v-4l2 -3h3l-3 7h-2zM-205 1810h197q36 0 57 -4l60 4q0 -12 -4 -12l2 -21h2v7h5q0 -17 -7 -17v-161l2 -2l-2 -3v-52l2 -10l-2 -2l2 -17v-24l-2 -3v-2l-60 2h-236l-24 -2v98l5 68q-7 0 -7 7l2 10l-2 2l2 2v34 l-2 2l2 8l-2 7l2 24v33l-2 3l2 2v10l-2 2v3q10 0 10 4zM279 1807h197q36 0 57 -4l60 4q0 -12 -4 -12l2 -21h2v7h5q0 -17 -7 -17v-161l2 -2l-2 -3v-52l2 -10l-2 -2l2 -17v-24l-2 -3v-2l-60 2h-236l-24 -2v98l5 68q-7 0 -7 7l2 10l-2 2l2 2v34l-2 2l2 8l-2 7l2 24v33l-2 3l2 2 v10l-2 2v3q10 0 10 4z" />
<glyph unicode="&#xf2;" d="M780 1443l9 -2v2l2 -2h50l30 -2l25 4v-4l21 4q10 0 10 -8q12 -7 74 -19q23 -12 23 -28q16 -35 25 -42h5l2 2q12 0 12 -56l2 -2q0 -13 9 -13v-8l-2 -2l2 -3v-2l2 -23l-2 -71v-160l-2 -17l2 -16v-57l-2 -21l2 -21l-2 -25l2 -13l-2 -57l2 -16l-2 -34v-63l4 -477l2 -29 q-14 -72 -53 -112q-43 -42 -136 -42l-65 -2l-172 5h-114l-61 -3l-2 3l-21 -3q-291 -1 -292 -4v-4h-8q-58 0 -120 67q-34 40 -34 122l-2 67l2 15q-6 10 -6 221l2 579l-2 76h2l-2 2l2 10l-4 72v27q0 122 105 166h4l7 -4l27 2v4h-13v4q26 9 61 9h17v-2l-2 -2v-3h2l8 3l9 -3 q25 7 56 7h206l26 2v-2l2 2h23l2 -2l2 2h57l2 -2l2 2h168zM167 1428v-2h9v4h-3zM144 1426v-2h6l13 2v2h-4zM484 1082l-10 2l-7 -2l-12 2l-2 -2h-2l-2 2h-3l-2 -2l-14 2h-11l-25 -2v2l-6 -2l-34 2v-23l-2 -9l4 -10l-2 -53l4 -92h-2l2 -2v-86l-2 -2l2 -3q-8 -63 -8 -111v-33 l8 -179l-2 -2v-2l2 -13v-33l-2 -3l2 -2v-4l-2 -15l2 -18q0 -19 -4 -19l2 -2v-9l-2 -15l44 5l6 -2l3 2l6 -2l6 -32h2v32l170 4l11 2l10 -2l55 2l11 -2l21 2h16l9 -6h2l2 6l-6 25l4 21l-2 42v2h4l2 -25h2v8q-8 101 -8 145v120l2 2l-2 2l2 11l-2 50v55l2 8l-2 2l2 46v106h4 l6 -47h2v7q-4 69 -14 69l2 36v25l6 8v2h-4v7q0 6 15 6v2q-16 0 -21 4q0 -7 -28 -8h-61q0 10 -4 10zM738 924v-8h3v8h-3zM738 907v-2l5 -38h2v19l-2 21h-5zM745 865v-10h2v10h-2zM745 851v-9l2 -6h2v2l-2 13h-2zM749 815l-2 -6l2 -2h2v8h-2zM732 414v-9h2v9h-2zM698 1835 l-2 -33v-46l2 -12l-2 -7v-20l-3 -24l3 -2l-5 -36h-5v36h-2l-3 -144q0 -7 -7 -7v-3l5 -7v-5l-7 3q-68 56 -68 67q-22 9 -29 26q-14 0 -24 24l-7 -2q-6 0 -29 26v5h8q-23 27 -29 27q-26 36 -34 36l-96 101v4h312q7 0 10 -16l5 4v8h-5v9l5 5h2z" />
<glyph unicode="&#xf3;" d="M780 1443l9 -2v2l2 -2h50l30 -2l25 4v-4l21 4q10 0 10 -8q12 -7 74 -19q23 -12 23 -28q16 -35 25 -42h5l2 2q12 0 12 -56l2 -2q0 -13 9 -13v-8l-2 -2l2 -3v-2l2 -23l-2 -71v-160l-2 -17l2 -16v-57l-2 -21l2 -21l-2 -25l2 -13l-2 -57l2 -16l-2 -34v-63l4 -477l2 -29 q-14 -72 -53 -112q-43 -42 -136 -42l-65 -2l-172 5h-114l-61 -3l-2 3l-21 -3q-291 -1 -292 -4v-4h-8q-58 0 -120 67q-34 40 -34 122l-2 67l2 15q-6 10 -6 221l2 579l-2 76h2l-2 2l2 10l-4 72v27q0 122 105 166h4l7 -4l27 2v4h-13v4q26 9 61 9h17v-2l-2 -2v-3h2l8 3l9 -3 q25 7 56 7h206l26 2v-2l2 2h23l2 -2l2 2h57l2 -2l2 2h168zM167 1428v-2h9v4h-3zM144 1426v-2h6l13 2v2h-4zM484 1082l-10 2l-7 -2l-12 2l-2 -2h-2l-2 2h-3l-2 -2l-14 2h-11l-25 -2v2l-6 -2l-34 2v-23l-2 -9l4 -10l-2 -53l4 -92h-2l2 -2v-86l-2 -2l2 -3q-8 -63 -8 -111v-33 l8 -179l-2 -2v-2l2 -13v-33l-2 -3l2 -2v-4l-2 -15l2 -18q0 -19 -4 -19l2 -2v-9l-2 -15l44 5l6 -2l3 2l6 -2l6 -32h2v32l170 4l11 2l10 -2l55 2l11 -2l21 2h16l9 -6h2l2 6l-6 25l4 21l-2 42v2h4l2 -25h2v8q-8 101 -8 145v120l2 2l-2 2l2 11l-2 50v55l2 8l-2 2l2 46v106h4 l6 -47h2v7q-4 69 -14 69l2 36v25l6 8v2h-4v7q0 6 15 6v2q-16 0 -21 4q0 -7 -28 -8h-61q0 10 -4 10zM738 924v-8h3v8h-3zM738 907v-2l5 -38h2v19l-2 21h-5zM745 865v-10h2v10h-2zM745 851v-9l2 -6h2v2l-2 13h-2zM749 815l-2 -6l2 -2h2v8h-2zM732 414v-9h2v9h-2zM373 1849h2 l5 -5v-9h-5v-8l5 -4q3 16 10 16h312v-4l-96 -101q-8 0 -34 -36q-6 0 -29 -27h8v-5q-23 -26 -29 -26l-7 2q-10 -24 -24 -24q-7 -17 -29 -26q0 -11 -68 -67l-7 -3v5l5 7v3q-7 0 -7 7l-3 144h-2v-36h-5l-5 36l3 2l-3 24v20l-2 7l2 12v46l-2 33z" />
<glyph unicode="&#xf4;" d="M780 1443l9 -2v2l2 -2h50l30 -2l25 4v-4l21 4q10 0 10 -8q12 -7 74 -19q23 -12 23 -28q16 -35 25 -42h5l2 2q12 0 12 -56l2 -2q0 -13 9 -13v-8l-2 -2l2 -3v-2l2 -23l-2 -71v-160l-2 -17l2 -16v-57l-2 -21l2 -21l-2 -25l2 -13l-2 -57l2 -16l-2 -34v-63l4 -477l2 -29 q-14 -72 -53 -112q-43 -42 -136 -42l-65 -2l-172 5h-114l-61 -3l-2 3l-21 -3q-291 -1 -292 -4v-4h-8q-58 0 -120 67q-34 40 -34 122l-2 67l2 15q-6 10 -6 221l2 579l-2 76h2l-2 2l2 10l-4 72v27q0 122 105 166h4l7 -4l27 2v4h-13v4q26 9 61 9h17v-2l-2 -2v-3h2l8 3l9 -3 q25 7 56 7h206l26 2v-2l2 2h23l2 -2l2 2h57l2 -2l2 2h168zM167 1428v-2h9v4h-3zM144 1426v-2h6l13 2v2h-4zM484 1082l-10 2l-7 -2l-12 2l-2 -2h-2l-2 2h-3l-2 -2l-14 2h-11l-25 -2v2l-6 -2l-34 2v-23l-2 -9l4 -10l-2 -53l4 -92h-2l2 -2v-86l-2 -2l2 -3q-8 -63 -8 -111v-33 l8 -179l-2 -2v-2l2 -13v-33l-2 -3l2 -2v-4l-2 -15l2 -18q0 -19 -4 -19l2 -2v-9l-2 -15l44 5l6 -2l3 2l6 -2l6 -32h2v32l170 4l11 2l10 -2l55 2l11 -2l21 2h16l9 -6h2l2 6l-6 25l4 21l-2 42v2h4l2 -25h2v8q-8 101 -8 145v120l2 2l-2 2l2 11l-2 50v55l2 8l-2 2l2 46v106h4 l6 -47h2v7q-4 69 -14 69l2 36v25l6 8v2h-4v7q0 6 15 6v2q-16 0 -21 4q0 -7 -28 -8h-61q0 10 -4 10zM738 924v-8h3v8h-3zM738 907v-2l5 -38h2v19l-2 21h-5zM745 865v-10h2v10h-2zM745 851v-9l2 -6h2v2l-2 13h-2zM749 815l-2 -6l2 -2h2v8h-2zM732 414v-9h2v9h-2zM411 1816 q0 -3 11 -7l60 2l10 -2l11 2q2 -8 15 -8h21l58 8l31 -5l21 3l36 -3h5l3 -3l3 3h15l11 -3l2 3l27 -3h36l5 -5l13 3h16l13 -3v5q24 0 24 -7q0 -6 7 -6v-73l-2 -15l2 -3l-2 -13v-31l2 -3l-2 -3v-112l-3 -52h-136l-2 3l-3 -3h-52l-3 3l-2 -3l-19 3h-39l-2 2l-3 -2h-29l-44 -3v3 l-3 -3h-2l-73 3v2l-3 -2h-55l-39 2v-2l-2 2h-66l-47 3l-23 -3l-24 3l-18 -3l-10 8l2 8l-5 47l3 2v3l-3 11l3 7l-3 3l3 39l2 193l3 3l18 -3l13 3v-8l125 8l45 -3z" />
<glyph unicode="&#xf5;" d="M780 1443l9 -2v2l2 -2h50l30 -2l25 4v-4l21 4q10 0 10 -8q12 -7 74 -19q23 -12 23 -28q16 -35 25 -42h5l2 2q12 0 12 -56l2 -2q0 -13 9 -13v-8l-2 -2l2 -3v-2l2 -23l-2 -71v-160l-2 -17l2 -16v-57l-2 -21l2 -21l-2 -25l2 -13l-2 -57l2 -16l-2 -34v-63l4 -477l2 -29 q-14 -72 -53 -112q-43 -42 -136 -42l-65 -2l-172 5h-114l-61 -3l-2 3l-21 -3q-291 -1 -292 -4v-4h-8q-58 0 -120 67q-34 40 -34 122l-2 67l2 15q-6 10 -6 221l2 579l-2 76h2l-2 2l2 10l-4 72v27q0 122 105 166h4l7 -4l27 2v4h-13v4q26 9 61 9h17v-2l-2 -2v-3h2l8 3l9 -3 q25 7 56 7h206l26 2v-2l2 2h23l2 -2l2 2h57l2 -2l2 2h168zM167 1428v-2h9v4h-3zM144 1426v-2h6l13 2v2h-4zM484 1082l-10 2l-7 -2l-12 2l-2 -2h-2l-2 2h-3l-2 -2l-14 2h-11l-25 -2v2l-6 -2l-34 2v-23l-2 -9l4 -10l-2 -53l4 -92h-2l2 -2v-86l-2 -2l2 -3q-8 -63 -8 -111v-33 l8 -179l-2 -2v-2l2 -13v-33l-2 -3l2 -2v-4l-2 -15l2 -18q0 -19 -4 -19l2 -2v-9l-2 -15l44 5l6 -2l3 2l6 -2l6 -32h2v32l170 4l11 2l10 -2l55 2l11 -2l21 2h16l9 -6h2l2 6l-6 25l4 21l-2 42v2h4l2 -25h2v8q-8 101 -8 145v120l2 2l-2 2l2 11l-2 50v55l2 8l-2 2l2 46v106h4 l6 -47h2v7q-4 69 -14 69l2 36v25l6 8v2h-4v7q0 6 15 6v2q-16 0 -21 4q0 -7 -28 -8h-61q0 10 -4 10zM738 924v-8h3v8h-3zM738 907v-2l5 -38h2v19l-2 21h-5zM745 865v-10h2v10h-2zM745 851v-9l2 -6h2v2l-2 13h-2zM749 815l-2 -6l2 -2h2v8h-2zM732 414v-9h2v9h-2zM411 1816 q0 -3 11 -7l60 2l10 -2l11 2q2 -8 15 -8h21l58 8l31 -5l21 3l36 -3h5l3 -3l3 3h15l11 -3l2 3l27 -3h36l5 -5l13 3h16l13 -3v5q24 0 24 -7q0 -6 7 -6v-73l-2 -15l2 -3l-2 -13v-31l2 -3l-2 -3v-112l-3 -52h-136l-2 3l-3 -3h-52l-3 3l-2 -3l-19 3h-39l-2 2l-3 -2h-29l-44 -3v3 l-3 -3h-2l-73 3v2l-3 -2h-55l-39 2v-2l-2 2h-66l-47 3l-23 -3l-24 3l-18 -3l-10 8l2 8l-5 47l3 2v3l-3 11l3 7l-3 3l3 39l2 193l3 3l18 -3l13 3v-8l125 8l45 -3z" />
<glyph unicode="&#xf6;" d="M780 1443l9 -2v2l2 -2h50l30 -2l25 4v-4l21 4q10 0 10 -8q12 -7 74 -19q23 -12 23 -28q16 -35 25 -42h5l2 2q12 0 12 -56l2 -2q0 -13 9 -13v-8l-2 -2l2 -3v-2l2 -23l-2 -71v-160l-2 -17l2 -16v-57l-2 -21l2 -21l-2 -25l2 -13l-2 -57l2 -16l-2 -34v-63l4 -477l2 -29 q-14 -72 -53 -112q-43 -42 -136 -42l-65 -2l-172 5h-114l-61 -3l-2 3l-21 -3q-291 -1 -292 -4v-4h-8q-58 0 -120 67q-34 40 -34 122l-2 67l2 15q-6 10 -6 221l2 579l-2 76h2l-2 2l2 10l-4 72v27q0 122 105 166h4l7 -4l27 2v4h-13v4q26 9 61 9h17v-2l-2 -2v-3h2l8 3l9 -3 q25 7 56 7h206l26 2v-2l2 2h23l2 -2l2 2h57l2 -2l2 2h168zM167 1428v-2h9v4h-3zM144 1426v-2h6l13 2v2h-4zM484 1082l-10 2l-7 -2l-12 2l-2 -2h-2l-2 2h-3l-2 -2l-14 2h-11l-25 -2v2l-6 -2l-34 2v-23l-2 -9l4 -10l-2 -53l4 -92h-2l2 -2v-86l-2 -2l2 -3q-8 -63 -8 -111v-33 l8 -179l-2 -2v-2l2 -13v-33l-2 -3l2 -2v-4l-2 -15l2 -18q0 -19 -4 -19l2 -2v-9l-2 -15l44 5l6 -2l3 2l6 -2l6 -32h2v32l170 4l11 2l10 -2l55 2l11 -2l21 2h16l9 -6h2l2 6l-6 25l4 21l-2 42v2h4l2 -25h2v8q-8 101 -8 145v120l2 2l-2 2l2 11l-2 50v55l2 8l-2 2l2 46v106h4 l6 -47h2v7q-4 69 -14 69l2 36v25l6 8v2h-4v7q0 6 15 6v2q-16 0 -21 4q0 -7 -28 -8h-61q0 10 -4 10zM738 924v-8h3v8h-3zM738 907v-2l5 -38h2v19l-2 21h-5zM745 865v-10h2v10h-2zM745 851v-9l2 -6h2v2l-2 13h-2zM749 815l-2 -6l2 -2h2v8h-2zM732 414v-9h2v9h-2zM143 1810h197 q36 0 57 -4l60 4q0 -12 -4 -12l2 -21h2v7h5q0 -17 -7 -17v-161l2 -2l-2 -3v-52l2 -10l-2 -2l2 -17v-24l-2 -3v-2l-60 2h-236l-24 -2v98l5 68q-7 0 -7 7l2 10l-2 2l2 2v34l-2 2l2 8l-2 7l2 24v33l-2 3l2 2v10l-2 2v3q10 0 10 4zM627 1807h197q36 0 57 -4l60 4q0 -12 -4 -12 l2 -21h2v7h5q0 -17 -7 -17v-161l2 -2l-2 -3v-52l2 -10l-2 -2l2 -17v-24l-2 -3v-2l-60 2h-236l-24 -2v98l5 68q-7 0 -7 7l2 10l-2 2l2 2v34l-2 2l2 8l-2 7l2 24v33l-2 3l2 2v10l-2 2v3q10 0 10 4z" />
<glyph unicode="&#xf7;" horiz-adv-x="1144" d="M372 1347h132l140 -3l25 3v-3l-3 -12l3 -16l-3 -2l8 -3q0 -7 -8 -7v-132l3 -36l-3 -8l3 -45v-3l-3 -2l3 -3v-41l-51 3l-206 -3h-48l-3 -2h-2l-5 25l2 18l-2 15h2l-2 3v18l5 86h-5v109l2 10l-2 11v17zM293 834q0 -8 20 -11l59 3h2l10 -3l10 3h3q8 -6 23 -8l175 8l33 -3h13 l20 3l41 -5l15 2h31l2 -2l3 2h5l10 -2l3 2l30 -2h23l10 -3l10 3h16l25 -3l15 3l21 -8v5l30 -2h10l3 -3h2v5h11l-3 -2v-3h5v5q11 0 18 -12l2 -3h3l-3 -30v-56l-2 -3l2 -2v-11l-2 -15l2 -13l-2 -2l2 -3l-2 -68v-89l-3 -18l-35 2l-66 -2h-5l-3 2l-3 -2h-10l-10 2l-2 -2l-39 2 h-139l-13 3l-15 -3h-313l-8 6l-5 -6l-152 3l-8 3l-2 -3h-3l-48 3h-18l-2 2l-3 -2h-81l-5 5l2 10l-5 68h3l-3 3l3 51v10l2 178l5 5l10 -5l26 2v-7l18 2h5l68 3v2l3 -2l43 2h41l23 -2q11 5 43 8zM374 274h173q49 0 74 -5l56 5l2 -2l-5 -10q0 -21 8 -21v-10h-8v-130l3 -40 l-3 -3v-2l3 -28v-66l-72 2l-236 -2l-3 -3l-5 28l3 18l-3 13h3l-3 2v20l3 3l-3 3v2l5 74h-5v99l3 23l-3 18v7z" />
</font>
</defs>
</svg>
