<?xml version="1.0" standalone="no"?>
<!DOCTYPE svg PUBLIC "-//W3C//DTD SVG 1.1//EN" "http://www.w3.org/Graphics/SVG/1.1/DTD/svg11.dtd" >
<svg xmlns="http://www.w3.org/2000/svg">
<metadata></metadata>
<defs>
<font id="bpdotssquaresregular" horiz-adv-x="600" >
<font-face units-per-em="1000" ascent="800" descent="-200" />
<missing-glyph horiz-adv-x="500" />
<glyph horiz-adv-x="1000" />
<glyph horiz-adv-x="1000" />
<glyph unicode="&#xd;" horiz-adv-x="1000" />
<glyph unicode=" " />
<glyph unicode="!" d="M200 0v75h75v-75h-75zM200 100v75h75v-75h-75zM200 300v75h75v-75h-75zM200 400v75h75v-75h-75zM200 500v75h75v-75h-75zM200 600v75h75v-75h-75z" />
<glyph unicode="&#x22;" d="M100 400v75h75v-75h-75zM200 500v75h75v-75h-75zM200 600v75h75v-75h-75zM300 400v75h75v-75h-75zM401 500v75h75v-75h-75zM401 600v75h75v-75h-75z" />
<glyph unicode="#" d="M0 200v75h75v-75h-75zM0 400v75h75v-75h-75zM100 0v75h75v-75h-75zM100 100v75h75v-75h-75zM100 200v75h75v-75h-75zM100 300v75h75v-75h-75zM100 400v75h75v-75h-75zM100 500v75h75v-75h-75zM100 600v75h75v-75h-75zM200 200v75h75v-75h-75zM200 400v75h75v-75h-75z M300 0v75h75v-75h-75zM300 100v75h75v-75h-75zM300 200v75h75v-75h-75zM300 300v75h75v-75h-75zM300 400v75h75v-75h-75zM300 500v75h75v-75h-75zM300 600v75h75v-75h-75zM400 200v75h75v-75h-75zM400 400v75h75v-75h-75z" />
<glyph unicode="$" d="M0 0v75h75v-75h-75zM0 300v75h75v-75h-75zM100 0v75h75v-75h-75zM100 200v75h75v-75h-75zM100 400v75h75v-75h-75zM200 0v75h75v-75h-75zM200 -25h75v-75h-75v75zM200 100v75h75v-75h-75zM200 200v75h75v-75h-75zM200 300v75h75v-75h-75zM200 400v75h75v-75h-75zM200 500 v75h75v-75h-75zM300 0v75h75v-75h-75zM300 200v75h75v-75h-75zM300 400v75h75v-75h-75zM400 100v75h75v-75h-75zM400 400v75h75v-75h-75z" />
<glyph unicode="%" d="M0 0v75h75v-75h-75zM0 100v75h75v-75h-75zM0 500v75h75v-75h-75zM0 600v75h75v-75h-75zM100 200v75h75v-75h-75zM100 300v75h75v-75h-75zM100 500v75h75v-75h-75zM100 600v75h75v-75h-75zM200 0v75h75v-75h-75zM200 100v75h75v-75h-75zM200 400v75h75v-75h-75zM300 0v75 h75v-75h-75zM300 100v75h75v-75h-75zM300 500v75h75v-75h-75zM300 600v75h75v-75h-75z" />
<glyph unicode="&#x26;" d="M0 100v75h75v-75h-75zM0 200v75h75v-75h-75zM0 400v75h75v-75h-75zM0 500v75h75v-75h-75zM100 0v75h75v-75h-75zM100 300v75h75v-75h-75zM100 600v75h75v-75h-75zM200 0v75h75v-75h-75zM200 300v75h75v-75h-75zM200 600v75h75v-75h-75zM300 100v75h75v-75h-75zM300 200 v75h75v-75h-75zM300 300v75h75v-75h-75zM400 300v75h75v-75h-75z" />
<glyph unicode="'" d="M200 401v75h75v-75h-75zM300 500v75h75v-75h-75zM300 601v75h75v-75h-75z" />
<glyph unicode="(" d="M200 100v75h75v-75h-75zM200 200v75h75v-75h-75zM200 300v75h75v-75h-75zM200 400v75h75v-75h-75zM200 500v75h75v-75h-75zM300 0v75h75v-75h-75zM300 600v75h75v-75h-75z" />
<glyph unicode=")" d="M200 0v75h75v-75h-75zM200 600v75h75v-75h-75zM300 100v75h75v-75h-75zM300 200v75h75v-75h-75zM300 300v75h75v-75h-75zM300 400v75h75v-75h-75zM300 500v75h75v-75h-75z" />
<glyph unicode="*" d="M0 400v75h75v-75h-75zM0 600v75h75v-75h-75zM100 500v75h75v-75h-75zM200 400v75h75v-75h-75zM200 600v75h75v-75h-75z" />
<glyph unicode="+" d="M0 200v75h75v-75h-75zM100 200v75h75v-75h-75zM200 0v75h75v-75h-75zM200 100v75h75v-75h-75zM200 200v75h75v-75h-75zM200 300v75h75v-75h-75zM200 400v75h75v-75h-75zM300 200v75h75v-75h-75zM400 200v75h75v-75h-75z" />
<glyph unicode="," d="M100 -25h75v-75h-75v75zM200 0v75h75v-75h-75zM200 100v75h75v-75h-75z" />
<glyph unicode="-" d="M100 200v75h75v-75h-75zM200 200v75h75v-75h-75zM300 200v75h75v-75h-75z" />
<glyph unicode="." d="M200 0v75h75v-75h-75zM200 100v75h75v-75h-75z" />
<glyph unicode="/" d="M100 0v75h75v-75h-75zM100 100v75h75v-75h-75zM200 200v75h75v-75h-75zM200 300v75h75v-75h-75zM300 400v75h75v-75h-75zM400 500v75h75v-75h-75zM400 600v75h75v-75h-75z" />
<glyph unicode="0" d="M0 100v75h75v-75h-75zM0 200v75h75v-75h-75zM0 300v75h75v-75h-75zM100 0v75h75v-75h-75zM100 100v75h75v-75h-75zM100 400v75h75v-75h-75zM200 0v75h75v-75h-75zM200 200v75h75v-75h-75zM200 400v75h75v-75h-75zM300 0v75h75v-75h-75zM300 300v75h75v-75h-75zM300 400 v75h75v-75h-75zM400 100v75h75v-75h-75zM400 200v75h75v-75h-75zM400 300v75h75v-75h-75z" />
<glyph unicode="1" d="M0 0v75h75v-75h-75zM0 400v75h75v-75h-75zM100 0v75h75v-75h-75zM100 400v75h75v-75h-75zM200 0v75h75v-75h-75zM200 100v75h75v-75h-75zM200 200v75h75v-75h-75zM200 300v75h75v-75h-75zM200 400v75h75v-75h-75zM300 0v75h75v-75h-75zM400 0v75h75v-75h-75z" />
<glyph unicode="2" d="M0 0v75h75v-75h-75zM0 300v75h75v-75h-75zM100 0v75h75v-75h-75zM100 100v75h75v-75h-75zM100 400v75h75v-75h-75zM200 0v75h75v-75h-75zM200 200v75h75v-75h-75zM200 400v75h75v-75h-75zM300 0v75h75v-75h-75zM300 200v75h75v-75h-75zM300 400v75h75v-75h-75zM400 0v75 h75v-75h-75zM400 300v75h75v-75h-75z" />
<glyph unicode="3" d="M0 -25h75v-75h-75v75zM0 300v75h75v-75h-75zM100 100v75h75v-75h-75zM100 -125h75v-75h-75v75zM100 400v75h75v-75h-75zM200 100v75h75v-75h-75zM200 -125h75v-75h-75v75zM200 400v75h75v-75h-75zM300 100v75h75v-75h-75zM300 -125h75v-75h-75v75zM300 400v75h75v-75h-75 zM400 0v75h75v-75h-75zM400 -25h75v-75h-75v75zM400 200v75h75v-75h-75zM400 300v75h75v-75h-75z" />
<glyph unicode="4" d="M0 0v75h75v-75h-75zM0 100v75h75v-75h-75zM100 0v75h75v-75h-75zM100 200v75h75v-75h-75zM200 0v75h75v-75h-75zM200 300v75h75v-75h-75zM300 0v75h75v-75h-75zM300 -25h75v-75h-75v75zM300 100v75h75v-75h-75zM300 -125h75v-75h-75v75zM300 200v75h75v-75h-75zM300 300 v75h75v-75h-75zM300 400v75h75v-75h-75zM400 0v75h75v-75h-75z" />
<glyph unicode="5" d="M0 100v75h75v-75h-75zM0 -125h75v-75h-75v75zM0 200v75h75v-75h-75zM0 300v75h75v-75h-75zM0 400v75h75v-75h-75zM100 100v75h75v-75h-75zM100 -125h75v-75h-75v75zM100 400v75h75v-75h-75zM200 100v75h75v-75h-75zM200 -125h75v-75h-75v75zM200 400v75h75v-75h-75z M300 100v75h75v-75h-75zM300 -125h75v-75h-75v75zM300 400v75h75v-75h-75zM400 0v75h75v-75h-75zM400 -25h75v-75h-75v75zM400 400v75h75v-75h-75z" />
<glyph unicode="6" d="M0 100v75h75v-75h-75zM0 200v75h75v-75h-75zM0 300v75h75v-75h-75zM0 400v75h75v-75h-75zM100 0v75h75v-75h-75zM100 300v75h75v-75h-75zM100 500v75h75v-75h-75zM200 0v75h75v-75h-75zM200 300v75h75v-75h-75zM200 600v75h75v-75h-75zM300 0v75h75v-75h-75zM300 300v75 h75v-75h-75zM300 600v75h75v-75h-75zM400 100v75h75v-75h-75zM400 200v75h75v-75h-75z" />
<glyph unicode="7" d="M0 400v75h75v-75h-75zM100 0v75h75v-75h-75zM100 -25h75v-75h-75v75zM100 -125h75v-75h-75v75zM100 400v75h75v-75h-75zM200 100v75h75v-75h-75zM200 400v75h75v-75h-75zM300 200v75h75v-75h-75zM300 400v75h75v-75h-75zM400 300v75h75v-75h-75zM400 400v75h75v-75h-75z " />
<glyph unicode="8" d="M0 100v75h75v-75h-75zM0 200v75h75v-75h-75zM0 400v75h75v-75h-75zM0 500v75h75v-75h-75zM100 0v75h75v-75h-75zM100 300v75h75v-75h-75zM100 600v75h75v-75h-75zM200 0v75h75v-75h-75zM200 300v75h75v-75h-75zM200 600v75h75v-75h-75zM300 0v75h75v-75h-75zM300 300v75 h75v-75h-75zM300 600v75h75v-75h-75zM400 100v75h75v-75h-75zM400 200v75h75v-75h-75zM400 400v75h75v-75h-75zM400 500v75h75v-75h-75z" />
<glyph unicode="9" d="M0 200v75h75v-75h-75zM0 300v75h75v-75h-75zM100 100v75h75v-75h-75zM100 -125h75v-75h-75v75zM100 400v75h75v-75h-75zM200 100v75h75v-75h-75zM200 -125h75v-75h-75v75zM200 400v75h75v-75h-75zM300 -25h75v-75h-75v75zM300 100v75h75v-75h-75zM300 400v75h75v-75h-75z M400 0v75h75v-75h-75zM400 100v75h75v-75h-75zM400 200v75h75v-75h-75zM400 300v75h75v-75h-75z" />
<glyph unicode=":" d="M200 0v75h75v-75h-75zM200 100v75h75v-75h-75zM200 300v75h75v-75h-75zM200 400v75h75v-75h-75z" />
<glyph unicode=";" d="M100 -25h75v-75h-75v75zM200 0v75h75v-75h-75zM200 100v75h75v-75h-75zM200 300v75h75v-75h-75zM200 400v75h75v-75h-75z" />
<glyph unicode="&#x3c;" d="M100 200v75h75v-75h-75zM200 100v75h75v-75h-75zM200 300v75h75v-75h-75zM300 0v75h75v-75h-75zM300 400v75h75v-75h-75z" />
<glyph unicode="=" d="M0 100v75h75v-75h-75zM0 300v75h75v-75h-75zM100 100v75h75v-75h-75zM100 300v75h75v-75h-75zM200 100v75h75v-75h-75zM200 300v75h75v-75h-75zM300 100v75h75v-75h-75zM300 300v75h75v-75h-75zM400 100v75h75v-75h-75zM400 300v75h75v-75h-75z" />
<glyph unicode="&#x3e;" d="M200 0v75h75v-75h-75zM200 400v75h75v-75h-75zM300 100v75h75v-75h-75zM300 300v75h75v-75h-75zM400 200v75h75v-75h-75z" />
<glyph unicode="?" d="M0 500v75h75v-75h-75zM100 600v75h75v-75h-75zM200 0v75h75v-75h-75zM200 100v75h75v-75h-75zM200 300v75h75v-75h-75zM200 600v75h75v-75h-75zM300 300v75h75v-75h-75zM300 600v75h75v-75h-75zM400 400v75h75v-75h-75zM400 500v75h75v-75h-75z" />
<glyph unicode="@" d="M0 100v75h75v-75h-75zM0 200v75h75v-75h-75zM0 300v75h75v-75h-75zM0 400v75h75v-75h-75zM0 500v75h75v-75h-75zM100 0v75h75v-75h-75zM100 200v75h75v-75h-75zM100 300v75h75v-75h-75zM100 600v75h75v-75h-75zM200 0v75h75v-75h-75zM200 200v75h75v-75h-75zM200 400v75 h75v-75h-75zM200 600v75h75v-75h-75zM300 0v75h75v-75h-75zM300 200v75h75v-75h-75zM300 300v75h75v-75h-75zM300 400v75h75v-75h-75zM300 600v75h75v-75h-75zM400 0v75h75v-75h-75zM400 200v75h75v-75h-75zM400 300v75h75v-75h-75zM400 400v75h75v-75h-75zM400 500v75h75 v-75h-75z" />
<glyph unicode="A" d="M0 0v75h75v-75h-75zM0 100v75h75v-75h-75zM0 200v75h75v-75h-75zM0 300v75h75v-75h-75zM0 400v75h75v-75h-75zM0 500v75h75v-75h-75zM100 200v75h75v-75h-75zM100 600v75h75v-75h-75zM200 200v75h75v-75h-75zM200 600v75h75v-75h-75zM300 200v75h75v-75h-75zM300 600v75 h75v-75h-75zM400 0v75h75v-75h-75zM400 100v75h75v-75h-75zM400 200v75h75v-75h-75zM400 300v75h75v-75h-75zM400 400v75h75v-75h-75zM400 500v75h75v-75h-75z" />
<glyph unicode="B" d="M0 0v75h75v-75h-75zM0 100v75h75v-75h-75zM0 200v75h75v-75h-75zM0 300v75h75v-75h-75zM0 400v75h75v-75h-75zM0 500v75h75v-75h-75zM0 600v75h75v-75h-75zM100 0v75h75v-75h-75zM100 300v75h75v-75h-75zM100 600v75h75v-75h-75zM200 0v75h75v-75h-75zM200 300v75h75v-75 h-75zM200 600v75h75v-75h-75zM300 0v75h75v-75h-75zM300 300v75h75v-75h-75zM300 600v75h75v-75h-75zM400 100v75h75v-75h-75zM400 200v75h75v-75h-75zM400 400v75h75v-75h-75zM400 500v75h75v-75h-75z" />
<glyph unicode="C" d="M0 100v75h75v-75h-75zM0 200v75h75v-75h-75zM0 300v75h75v-75h-75zM0 400v75h75v-75h-75zM0 500v75h75v-75h-75zM100 0v75h75v-75h-75zM100 600v75h75v-75h-75zM200 0v75h75v-75h-75zM200 600v75h75v-75h-75zM300 0v75h75v-75h-75zM300 600v75h75v-75h-75zM400 100v75h75 v-75h-75zM400 500v75h75v-75h-75z" />
<glyph unicode="D" d="M0 0v75h75v-75h-75zM0 100v75h75v-75h-75zM0 200v75h75v-75h-75zM0 300v75h75v-75h-75zM0 400v75h75v-75h-75zM0 500v75h75v-75h-75zM0 600v75h75v-75h-75zM100 0v75h75v-75h-75zM100 600v75h75v-75h-75zM200 0v75h75v-75h-75zM200 600v75h75v-75h-75zM300 0v75h75v-75 h-75zM300 600v75h75v-75h-75zM400 100v75h75v-75h-75zM400 200v75h75v-75h-75zM400 300v75h75v-75h-75zM400 400v75h75v-75h-75zM400 500v75h75v-75h-75z" />
<glyph unicode="E" d="M0 0v75h75v-75h-75zM0 100v75h75v-75h-75zM0 200v75h75v-75h-75zM0 300v75h75v-75h-75zM0 400v75h75v-75h-75zM0 500v75h75v-75h-75zM0 600v75h75v-75h-75zM100 0v75h75v-75h-75zM100 300v75h75v-75h-75zM100 600v75h75v-75h-75zM200 0v75h75v-75h-75zM200 300v75h75v-75 h-75zM200 600v75h75v-75h-75zM300 0v75h75v-75h-75zM300 300v75h75v-75h-75zM300 600v75h75v-75h-75zM400 0v75h75v-75h-75zM400 600v75h75v-75h-75z" />
<glyph unicode="F" d="M0 0v75h75v-75h-75zM0 100v75h75v-75h-75zM0 200v75h75v-75h-75zM0 300v75h75v-75h-75zM0 400v75h75v-75h-75zM0 500v75h75v-75h-75zM0 600v75h75v-75h-75zM100 300v75h75v-75h-75zM100 600v75h75v-75h-75zM200 300v75h75v-75h-75zM200 600v75h75v-75h-75zM300 300v75h75 v-75h-75zM300 600v75h75v-75h-75zM400 600v75h75v-75h-75z" />
<glyph unicode="G" d="M0 100v75h75v-75h-75zM0 200v75h75v-75h-75zM0 300v75h75v-75h-75zM0 400v75h75v-75h-75zM0 500v75h75v-75h-75zM100 0v75h75v-75h-75zM100 600v75h75v-75h-75zM200 0v75h75v-75h-75zM200 600v75h75v-75h-75zM300 0v75h75v-75h-75zM300 200v75h75v-75h-75zM300 600v75h75 v-75h-75zM400 0v75h75v-75h-75zM400 100v75h75v-75h-75zM400 200v75h75v-75h-75zM400 500v75h75v-75h-75z" />
<glyph unicode="H" d="M0 0v75h75v-75h-75zM0 100v75h75v-75h-75zM0 200v75h75v-75h-75zM0 300v75h75v-75h-75zM0 400v75h75v-75h-75zM0 500v75h75v-75h-75zM0 600v75h75v-75h-75zM100 300v75h75v-75h-75zM200 300v75h75v-75h-75zM300 300v75h75v-75h-75zM400 0v75h75v-75h-75zM400 100v75h75 v-75h-75zM400 200v75h75v-75h-75zM400 300v75h75v-75h-75zM400 400v75h75v-75h-75zM400 500v75h75v-75h-75zM400 600v75h75v-75h-75z" />
<glyph unicode="I" d="M0 0v75h75v-75h-75zM0 600v75h75v-75h-75zM100 0v75h75v-75h-75zM100 600v75h75v-75h-75zM200 0v75h75v-75h-75zM200 100v75h75v-75h-75zM200 200v75h75v-75h-75zM200 300v75h75v-75h-75zM200 400v75h75v-75h-75zM200 500v75h75v-75h-75zM200 600v75h75v-75h-75zM300 0 v75h75v-75h-75zM300 600v75h75v-75h-75zM400 0v75h75v-75h-75zM400 600v75h75v-75h-75z" />
<glyph unicode="J" d="M0 100v75h75v-75h-75zM0 600v75h75v-75h-75zM100 0v75h75v-75h-75zM100 600v75h75v-75h-75zM200 0v75h75v-75h-75zM200 600v75h75v-75h-75zM300 100v75h75v-75h-75zM300 200v75h75v-75h-75zM300 300v75h75v-75h-75zM300 400v75h75v-75h-75zM300 500v75h75v-75h-75z M300 600v75h75v-75h-75z" />
<glyph unicode="K" d="M0 0v75h75v-75h-75zM0 100v75h75v-75h-75zM0 200v75h75v-75h-75zM0 300v75h75v-75h-75zM0 400v75h75v-75h-75zM0 500v75h75v-75h-75zM0 600v75h75v-75h-75zM100 300v75h75v-75h-75zM200 300v75h75v-75h-75zM300 200v75h75v-75h-75zM300 400v75h75v-75h-75zM400 0v75h75 v-75h-75zM400 100v75h75v-75h-75zM400 500v75h75v-75h-75zM400 600v75h75v-75h-75z" />
<glyph unicode="L" d="M0 0v75h75v-75h-75zM0 100v75h75v-75h-75zM0 200v75h75v-75h-75zM0 300v75h75v-75h-75zM0 400v75h75v-75h-75zM0 500v75h75v-75h-75zM0 600v75h75v-75h-75zM100 0v75h75v-75h-75zM200 0v75h75v-75h-75zM300 0v75h75v-75h-75zM400 0v75h75v-75h-75z" />
<glyph unicode="M" d="M0 0v75h75v-75h-75zM0 100v75h75v-75h-75zM0 200v75h75v-75h-75zM0 300v75h75v-75h-75zM0 400v75h75v-75h-75zM0 500v75h75v-75h-75zM0 600v75h75v-75h-75zM100 400v75h75v-75h-75zM100 500v75h75v-75h-75zM200 200v75h75v-75h-75zM200 300v75h75v-75h-75zM300 400v75h75 v-75h-75zM300 500v75h75v-75h-75zM400 0v75h75v-75h-75zM400 100v75h75v-75h-75zM400 200v75h75v-75h-75zM400 300v75h75v-75h-75zM400 400v75h75v-75h-75zM400 500v75h75v-75h-75zM400 600v75h75v-75h-75z" />
<glyph unicode="N" d="M0 0v75h75v-75h-75zM0 100v75h75v-75h-75zM0 200v75h75v-75h-75zM0 300v75h75v-75h-75zM0 400v75h75v-75h-75zM0 500v75h75v-75h-75zM0 600v75h75v-75h-75zM100 500v75h75v-75h-75zM200 300v75h75v-75h-75zM200 400v75h75v-75h-75zM300 200v75h75v-75h-75zM400 0v75h75 v-75h-75zM400 100v75h75v-75h-75zM400 200v75h75v-75h-75zM400 300v75h75v-75h-75zM400 400v75h75v-75h-75zM400 500v75h75v-75h-75zM400 600v75h75v-75h-75z" />
<glyph unicode="O" d="M0 100v75h75v-75h-75zM0 200v75h75v-75h-75zM0 300v75h75v-75h-75zM0 400v75h75v-75h-75zM0 500v75h75v-75h-75zM100 0v75h75v-75h-75zM100 600v75h75v-75h-75zM200 0v75h75v-75h-75zM200 600v75h75v-75h-75zM300 0v75h75v-75h-75zM300 600v75h75v-75h-75zM400 100v75h75 v-75h-75zM400 200v75h75v-75h-75zM400 300v75h75v-75h-75zM400 400v75h75v-75h-75zM400 500v75h75v-75h-75z" />
<glyph unicode="P" d="M0 0v75h75v-75h-75zM0 100v75h75v-75h-75zM0 200v75h75v-75h-75zM0 300v75h75v-75h-75zM0 400v75h75v-75h-75zM0 500v75h75v-75h-75zM0 600v75h75v-75h-75zM100 200v75h75v-75h-75zM100 600v75h75v-75h-75zM200 200v75h75v-75h-75zM200 600v75h75v-75h-75zM300 200v75h75 v-75h-75zM300 600v75h75v-75h-75zM400 300v75h75v-75h-75zM400 400v75h75v-75h-75zM400 500v75h75v-75h-75z" />
<glyph unicode="Q" d="M0 100v75h75v-75h-75zM0 200v75h75v-75h-75zM0 300v75h75v-75h-75zM0 400v75h75v-75h-75zM0 500v75h75v-75h-75zM100 0v75h75v-75h-75zM100 600v75h75v-75h-75zM200 0v75h75v-75h-75zM200 -25h75v-75h-75v75zM200 100v75h75v-75h-75zM200 600v75h75v-75h-75zM300 0v75h75 v-75h-75zM300 -125h75v-75h-75v75zM300 600v75h75v-75h-75zM400 100v75h75v-75h-75zM400 200v75h75v-75h-75zM400 300v75h75v-75h-75zM400 400v75h75v-75h-75zM400 500v75h75v-75h-75z" />
<glyph unicode="R" d="M0 0v75h75v-75h-75zM0 100v75h75v-75h-75zM0 200v75h75v-75h-75zM0 300v75h75v-75h-75zM0 400v75h75v-75h-75zM0 500v75h75v-75h-75zM0 600v75h75v-75h-75zM100 300v75h75v-75h-75zM100 600v75h75v-75h-75zM200 300v75h75v-75h-75zM200 600v75h75v-75h-75zM300 200v75h75 v-75h-75zM300 300v75h75v-75h-75zM300 600v75h75v-75h-75zM400 0v75h75v-75h-75zM400 100v75h75v-75h-75zM400 400v75h75v-75h-75zM400 500v75h75v-75h-75z" />
<glyph unicode="S" d="M0 0v75h75v-75h-75zM0 400v75h75v-75h-75zM0 500v75h75v-75h-75zM100 0v75h75v-75h-75zM100 300v75h75v-75h-75zM100 600v75h75v-75h-75zM200 0v75h75v-75h-75zM200 300v75h75v-75h-75zM200 600v75h75v-75h-75zM300 0v75h75v-75h-75zM300 300v75h75v-75h-75zM300 600v75 h75v-75h-75zM400 100v75h75v-75h-75zM400 200v75h75v-75h-75zM400 600v75h75v-75h-75z" />
<glyph unicode="T" d="M0 600v75h75v-75h-75zM100 600v75h75v-75h-75zM200 0v75h75v-75h-75zM200 100v75h75v-75h-75zM200 200v75h75v-75h-75zM200 300v75h75v-75h-75zM200 400v75h75v-75h-75zM200 500v75h75v-75h-75zM200 600v75h75v-75h-75zM300 600v75h75v-75h-75zM400 600v75h75v-75h-75z " />
<glyph unicode="U" d="M0 100v75h75v-75h-75zM0 200v75h75v-75h-75zM0 300v75h75v-75h-75zM0 400v75h75v-75h-75zM0 500v75h75v-75h-75zM0 600v75h75v-75h-75zM100 0v75h75v-75h-75zM200 0v75h75v-75h-75zM300 0v75h75v-75h-75zM400 100v75h75v-75h-75zM400 200v75h75v-75h-75zM400 300v75h75 v-75h-75zM400 400v75h75v-75h-75zM400 500v75h75v-75h-75zM400 600v75h75v-75h-75z" />
<glyph unicode="V" d="M0 300v75h75v-75h-75zM0 400v75h75v-75h-75zM0 500v75h75v-75h-75zM0 600v75h75v-75h-75zM100 100v75h75v-75h-75zM100 200v75h75v-75h-75zM200 0v75h75v-75h-75zM300 100v75h75v-75h-75zM300 200v75h75v-75h-75zM400 300v75h75v-75h-75zM400 400v75h75v-75h-75zM400 500 v75h75v-75h-75zM400 600v75h75v-75h-75z" />
<glyph unicode="W" d="M0 200v75h75v-75h-75zM0 300v75h75v-75h-75zM0 400v75h75v-75h-75zM0 500v75h75v-75h-75zM0 600v75h75v-75h-75zM100 0v75h75v-75h-75zM100 100v75h75v-75h-75zM200 200v75h75v-75h-75zM200 300v75h75v-75h-75zM200 400v75h75v-75h-75zM200 500v75h75v-75h-75zM300 0v75 h75v-75h-75zM300 100v75h75v-75h-75zM400 200v75h75v-75h-75zM400 300v75h75v-75h-75zM400 400v75h75v-75h-75zM400 500v75h75v-75h-75zM400 600v75h75v-75h-75z" />
<glyph unicode="X" d="M0 0v75h75v-75h-75zM0 100v75h75v-75h-75zM0 500v75h75v-75h-75zM0 600v75h75v-75h-75zM100 200v75h75v-75h-75zM100 400v75h75v-75h-75zM200 300v75h75v-75h-75zM300 200v75h75v-75h-75zM300 400v75h75v-75h-75zM400 0v75h75v-75h-75zM400 100v75h75v-75h-75zM400 500 v75h75v-75h-75zM400 600v75h75v-75h-75z" />
<glyph unicode="Y" d="M0 400v75h75v-75h-75zM0 500v75h75v-75h-75zM0 600v75h75v-75h-75zM100 300v75h75v-75h-75zM200 0v75h75v-75h-75zM200 100v75h75v-75h-75zM200 200v75h75v-75h-75zM300 300v75h75v-75h-75zM400 400v75h75v-75h-75zM400 500v75h75v-75h-75zM400 600v75h75v-75h-75z" />
<glyph unicode="Z" d="M0 0v75h75v-75h-75zM0 100v75h75v-75h-75zM0 600v75h75v-75h-75zM100 0v75h75v-75h-75zM100 200v75h75v-75h-75zM100 600v75h75v-75h-75zM200 0v75h75v-75h-75zM200 300v75h75v-75h-75zM200 600v75h75v-75h-75zM300 0v75h75v-75h-75zM300 400v75h75v-75h-75zM300 600v75 h75v-75h-75zM400 0v75h75v-75h-75zM400 500v75h75v-75h-75zM400 600v75h75v-75h-75z" />
<glyph unicode="[" d="M200 0v75h75v-75h-75zM200 100v75h75v-75h-75zM200 200v75h75v-75h-75zM200 300v75h75v-75h-75zM200 400v75h75v-75h-75zM200 500v75h75v-75h-75zM200 600v75h75v-75h-75zM300 0v75h75v-75h-75zM300 600v75h75v-75h-75z" />
<glyph unicode="\" d="M100 500v75h75v-75h-75zM100 600v75h75v-75h-75zM200 400v75h75v-75h-75zM300 200v75h75v-75h-75zM300 300v75h75v-75h-75zM400 0v75h75v-75h-75zM400 100v75h75v-75h-75z" />
<glyph unicode="]" d="M200 0v75h75v-75h-75zM200 600v75h75v-75h-75zM300 0v75h75v-75h-75zM300 100v75h75v-75h-75zM300 200v75h75v-75h-75zM300 300v75h75v-75h-75zM300 400v75h75v-75h-75zM300 500v75h75v-75h-75zM300 600v75h75v-75h-75z" />
<glyph unicode="^" d="M100 600v75h75v-75h-75zM200 700v75h75v-75h-75zM300 600v75h75v-75h-75z" />
<glyph unicode="_" d="M0 0v75h75v-75h-75zM100 0v75h75v-75h-75zM200 0v75h75v-75h-75zM300 0v75h75v-75h-75zM400 0v75h75v-75h-75z" />
<glyph unicode="`" d="M0 700v75h75v-75h-75zM100 600v75h75v-75h-75zM200 600v75h75v-75h-75z" />
<glyph unicode="a" d="M0 100v75h75v-75h-75zM100 0v75h75v-75h-75zM100 200v75h75v-75h-75zM100 400v75h75v-75h-75zM200 0v75h75v-75h-75zM200 200v75h75v-75h-75zM200 400v75h75v-75h-75zM300 0v75h75v-75h-75zM300 200v75h75v-75h-75zM300 400v75h75v-75h-75zM400 0v75h75v-75h-75zM400 100 v75h75v-75h-75zM400 200v75h75v-75h-75zM400 300v75h75v-75h-75z" />
<glyph unicode="b" d="M0 0v75h75v-75h-75zM0 100v75h75v-75h-75zM0 200v75h75v-75h-75zM0 300v75h75v-75h-75zM0 400v75h75v-75h-75zM0 500v75h75v-75h-75zM0 600v75h75v-75h-75zM100 0v75h75v-75h-75zM100 300v75h75v-75h-75zM200 0v75h75v-75h-75zM200 400v75h75v-75h-75zM300 0v75h75v-75 h-75zM300 400v75h75v-75h-75zM400 100v75h75v-75h-75zM400 200v75h75v-75h-75zM400 300v75h75v-75h-75z" />
<glyph unicode="c" d="M0 100v75h75v-75h-75zM0 200v75h75v-75h-75zM0 300v75h75v-75h-75zM100 0v75h75v-75h-75zM100 400v75h75v-75h-75zM200 0v75h75v-75h-75zM200 400v75h75v-75h-75zM300 0v75h75v-75h-75zM300 400v75h75v-75h-75zM400 100v75h75v-75h-75zM400 300v75h75v-75h-75z" />
<glyph unicode="d" d="M0 100v75h75v-75h-75zM0 200v75h75v-75h-75zM0 300v75h75v-75h-75zM100 0v75h75v-75h-75zM100 400v75h75v-75h-75zM200 0v75h75v-75h-75zM200 400v75h75v-75h-75zM300 100v75h75v-75h-75zM300 400v75h75v-75h-75zM400 0v75h75v-75h-75zM400 100v75h75v-75h-75zM400 200 v75h75v-75h-75zM400 300v75h75v-75h-75zM400 400v75h75v-75h-75zM400 500v75h75v-75h-75zM400 600v75h75v-75h-75z" />
<glyph unicode="e" d="M0 100v75h75v-75h-75zM0 200v75h75v-75h-75zM0 300v75h75v-75h-75zM100 0v75h75v-75h-75zM100 200v75h75v-75h-75zM100 400v75h75v-75h-75zM200 0v75h75v-75h-75zM200 200v75h75v-75h-75zM200 400v75h75v-75h-75zM300 0v75h75v-75h-75zM300 200v75h75v-75h-75zM300 400 v75h75v-75h-75zM400 0v75h75v-75h-75zM400 200v75h75v-75h-75zM400 300v75h75v-75h-75z" />
<glyph unicode="f" d="M0 0v75h75v-75h-75zM100 0v75h75v-75h-75zM100 400v75h75v-75h-75zM200 0v75h75v-75h-75zM200 100v75h75v-75h-75zM200 200v75h75v-75h-75zM200 300v75h75v-75h-75zM200 400v75h75v-75h-75zM200 500v75h75v-75h-75zM300 0v75h75v-75h-75zM300 400v75h75v-75h-75zM300 600 v75h75v-75h-75zM400 0v75h75v-75h-75zM400 400v75h75v-75h-75zM400 600v75h75v-75h-75z" />
<glyph unicode="g" d="M0 100v75h75v-75h-75zM0 200v75h75v-75h-75zM0 300v75h75v-75h-75zM100 0v75h75v-75h-75zM100 -125h75v-75h-75v75zM100 400v75h75v-75h-75zM200 0v75h75v-75h-75zM200 -125h75v-75h-75v75zM200 400v75h75v-75h-75zM300 100v75h75v-75h-75zM300 -125h75v-75h-75v75z M300 400v75h75v-75h-75zM400 0v75h75v-75h-75zM400 -25h75v-75h-75v75zM400 100v75h75v-75h-75zM400 200v75h75v-75h-75zM400 300v75h75v-75h-75zM400 400v75h75v-75h-75z" />
<glyph unicode="h" d="M0 0v75h75v-75h-75zM0 100v75h75v-75h-75zM0 200v75h75v-75h-75zM0 300v75h75v-75h-75zM0 400v75h75v-75h-75zM0 500v75h75v-75h-75zM0 600v75h75v-75h-75zM100 400v75h75v-75h-75zM200 400v75h75v-75h-75zM300 400v75h75v-75h-75zM400 0v75h75v-75h-75zM400 100v75h75 v-75h-75zM400 200v75h75v-75h-75zM400 300v75h75v-75h-75z" />
<glyph unicode="i" d="M0 0v75h75v-75h-75zM0 400v75h75v-75h-75zM100 0v75h75v-75h-75zM100 400v75h75v-75h-75zM200 0v75h75v-75h-75zM200 100v75h75v-75h-75zM200 200v75h75v-75h-75zM200 300v75h75v-75h-75zM200 400v75h75v-75h-75zM200 600v75h75v-75h-75zM300 0v75h75v-75h-75zM400 0v75 h75v-75h-75z" />
<glyph unicode="j" d="M0 -25h75v-75h-75v75zM100 -125h75v-75h-75v75zM100 400v75h75v-75h-75zM200 -125h75v-75h-75v75zM200 400v75h75v-75h-75zM300 -125h75v-75h-75v75zM300 400v75h75v-75h-75zM400 0v75h75v-75h-75zM400 -25h75v-75h-75v75zM400 100v75h75v-75h-75zM400 200v75h75v-75h-75 zM400 300v75h75v-75h-75zM400 400v75h75v-75h-75zM400 600v75h75v-75h-75z" />
<glyph unicode="k" d="M0 0v75h75v-75h-75zM0 100v75h75v-75h-75zM0 200v75h75v-75h-75zM0 300v75h75v-75h-75zM0 400v75h75v-75h-75zM0 500v75h75v-75h-75zM0 600v75h75v-75h-75zM100 200v75h75v-75h-75zM200 200v75h75v-75h-75zM300 100v75h75v-75h-75zM300 300v75h75v-75h-75zM300 400v75h75 v-75h-75zM400 0v75h75v-75h-75z" />
<glyph unicode="l" d="M0 0v75h75v-75h-75zM0 600v75h75v-75h-75zM100 0v75h75v-75h-75zM100 600v75h75v-75h-75zM200 0v75h75v-75h-75zM200 100v75h75v-75h-75zM200 200v75h75v-75h-75zM200 300v75h75v-75h-75zM200 400v75h75v-75h-75zM200 500v75h75v-75h-75zM200 600v75h75v-75h-75zM300 0 v75h75v-75h-75zM400 0v75h75v-75h-75z" />
<glyph unicode="m" d="M0 0v75h75v-75h-75zM0 100v75h75v-75h-75zM0 200v75h75v-75h-75zM0 300v75h75v-75h-75zM0 400v75h75v-75h-75zM100 300v75h75v-75h-75zM200 0v75h75v-75h-75zM200 100v75h75v-75h-75zM200 200v75h75v-75h-75zM200 300v75h75v-75h-75zM200 400v75h75v-75h-75zM300 300v75 h75v-75h-75zM400 0v75h75v-75h-75zM400 100v75h75v-75h-75zM400 200v75h75v-75h-75zM400 300v75h75v-75h-75zM400 400v75h75v-75h-75z" />
<glyph unicode="n" d="M0 0v75h75v-75h-75zM0 100v75h75v-75h-75zM0 200v75h75v-75h-75zM0 300v75h75v-75h-75zM0 400v75h75v-75h-75zM100 300v75h75v-75h-75zM200 400v75h75v-75h-75zM300 400v75h75v-75h-75zM400 0v75h75v-75h-75zM400 100v75h75v-75h-75zM400 200v75h75v-75h-75zM400 300v75 h75v-75h-75z" />
<glyph unicode="o" d="M0 100v75h75v-75h-75zM0 200v75h75v-75h-75zM0 300v75h75v-75h-75zM100 0v75h75v-75h-75zM100 400v75h75v-75h-75zM200 0v75h75v-75h-75zM200 400v75h75v-75h-75zM300 0v75h75v-75h-75zM300 400v75h75v-75h-75zM400 100v75h75v-75h-75zM400 200v75h75v-75h-75zM400 300 v75h75v-75h-75z" />
<glyph unicode="p" d="M0 0v75h75v-75h-75zM0 -25h75v-75h-75v75zM0 100v75h75v-75h-75zM0 -125h75v-75h-75v75zM0 200v75h75v-75h-75zM0 300v75h75v-75h-75zM0 400v75h75v-75h-75zM100 0v75h75v-75h-75zM100 300v75h75v-75h-75zM200 0v75h75v-75h-75zM200 400v75h75v-75h-75zM300 0v75h75v-75 h-75zM300 400v75h75v-75h-75zM400 100v75h75v-75h-75zM400 200v75h75v-75h-75zM400 300v75h75v-75h-75z" />
<glyph unicode="q" d="M0 100v75h75v-75h-75zM0 200v75h75v-75h-75zM0 300v75h75v-75h-75zM100 0v75h75v-75h-75zM100 400v75h75v-75h-75zM200 0v75h75v-75h-75zM200 400v75h75v-75h-75zM300 100v75h75v-75h-75zM300 400v75h75v-75h-75zM400 0v75h75v-75h-75zM400 -25h75v-75h-75v75zM400 100 v75h75v-75h-75zM400 -125h75v-75h-75v75zM400 200v75h75v-75h-75zM400 300v75h75v-75h-75zM400 400v75h75v-75h-75z" />
<glyph unicode="r" d="M0 0v75h75v-75h-75zM0 400v75h75v-75h-75zM100 0v75h75v-75h-75zM100 100v75h75v-75h-75zM100 200v75h75v-75h-75zM100 300v75h75v-75h-75zM100 400v75h75v-75h-75zM200 0v75h75v-75h-75zM200 300v75h75v-75h-75zM300 0v75h75v-75h-75zM300 400v75h75v-75h-75zM400 400 v75h75v-75h-75z" />
<glyph unicode="s" d="M0 0v75h75v-75h-75zM0 300v75h75v-75h-75zM100 0v75h75v-75h-75zM100 200v75h75v-75h-75zM100 400v75h75v-75h-75zM200 0v75h75v-75h-75zM200 200v75h75v-75h-75zM200 400v75h75v-75h-75zM300 0v75h75v-75h-75zM300 200v75h75v-75h-75zM300 400v75h75v-75h-75zM400 100 v75h75v-75h-75zM400 400v75h75v-75h-75z" />
<glyph unicode="t" d="M0 400v75h75v-75h-75zM100 400v75h75v-75h-75zM200 100v75h75v-75h-75zM200 200v75h75v-75h-75zM200 300v75h75v-75h-75zM200 400v75h75v-75h-75zM200 500v75h75v-75h-75zM300 0v75h75v-75h-75zM300 400v75h75v-75h-75zM400 0v75h75v-75h-75zM400 400v75h75v-75h-75z" />
<glyph unicode="u" d="M0 100v75h75v-75h-75zM0 200v75h75v-75h-75zM0 300v75h75v-75h-75zM0 400v75h75v-75h-75zM100 0v75h75v-75h-75zM200 0v75h75v-75h-75zM300 100v75h75v-75h-75zM400 0v75h75v-75h-75zM400 100v75h75v-75h-75zM400 200v75h75v-75h-75zM400 300v75h75v-75h-75zM400 400v75 h75v-75h-75z" />
<glyph unicode="v" d="M0 300v75h75v-75h-75zM0 400v75h75v-75h-75zM100 100v75h75v-75h-75zM100 200v75h75v-75h-75zM200 0v75h75v-75h-75zM300 100v75h75v-75h-75zM300 200v75h75v-75h-75zM400 300v75h75v-75h-75zM400 400v75h75v-75h-75z" />
<glyph unicode="w" d="M0 200v75h75v-75h-75zM0 300v75h75v-75h-75zM0 400v75h75v-75h-75zM100 0v75h75v-75h-75zM100 100v75h75v-75h-75zM200 200v75h75v-75h-75zM200 300v75h75v-75h-75zM300 0v75h75v-75h-75zM300 100v75h75v-75h-75zM400 200v75h75v-75h-75zM400 300v75h75v-75h-75zM400 400 v75h75v-75h-75z" />
<glyph unicode="x" d="M0 0v75h75v-75h-75zM0 100v75h75v-75h-75zM0 300v75h75v-75h-75zM0 400v75h75v-75h-75zM100 200v75h75v-75h-75zM200 200v75h75v-75h-75zM300 200v75h75v-75h-75zM400 0v75h75v-75h-75zM400 100v75h75v-75h-75zM400 300v75h75v-75h-75zM400 400v75h75v-75h-75z" />
<glyph unicode="y" d="M0 -125h75v-75h-75v75zM0 300v75h75v-75h-75zM0 400v75h75v-75h-75zM100 100v75h75v-75h-75zM100 -125h75v-75h-75v75zM100 200v75h75v-75h-75zM200 0v75h75v-75h-75zM200 -25h75v-75h-75v75zM300 100v75h75v-75h-75zM300 200v75h75v-75h-75zM400 300v75h75v-75h-75z M400 400v75h75v-75h-75z" />
<glyph unicode="z" d="M0 0v75h75v-75h-75zM0 400v75h75v-75h-75zM100 0v75h75v-75h-75zM100 100v75h75v-75h-75zM100 400v75h75v-75h-75zM200 0v75h75v-75h-75zM200 200v75h75v-75h-75zM200 400v75h75v-75h-75zM300 0v75h75v-75h-75zM300 300v75h75v-75h-75zM300 400v75h75v-75h-75zM400 0v75 h75v-75h-75zM400 400v75h75v-75h-75z" />
<glyph unicode="{" d="M100 300v75h75v-75h-75zM200 100v75h75v-75h-75zM200 200v75h75v-75h-75zM200 400v75h75v-75h-75zM200 500v75h75v-75h-75zM300 0v75h75v-75h-75zM300 600v75h75v-75h-75z" />
<glyph unicode="|" d="M200 0v75h75v-75h-75zM200 100v75h75v-75h-75zM200 200v75h75v-75h-75zM200 300v75h75v-75h-75zM200 400v75h75v-75h-75zM200 500v75h75v-75h-75zM200 600v75h75v-75h-75z" />
<glyph unicode="}" d="M200 0v75h75v-75h-75zM200 600v75h75v-75h-75zM300 100v75h75v-75h-75zM300 200v75h75v-75h-75zM300 400v75h75v-75h-75zM300 500v75h75v-75h-75zM400 300v75h75v-75h-75z" />
<glyph unicode="~" d="M0 300v75h75v-75h-75zM100 400v75h75v-75h-75zM200 300v75h75v-75h-75zM300 200v75h75v-75h-75zM400 300v75h75v-75h-75z" />
<glyph unicode="&#xa0;" />
<glyph unicode="&#xa1;" d="M200 0v75h75v-75h-75zM200 100v75h75v-75h-75zM200 200v75h75v-75h-75zM200 300v75h75v-75h-75zM200 500v75h75v-75h-75zM200 600v75h75v-75h-75z" />
<glyph unicode="&#xa2;" d="M0 100v75h75v-75h-75zM0 200v75h75v-75h-75zM0 300v75h75v-75h-75zM100 0v75h75v-75h-75zM100 400v75h75v-75h-75zM200 0v75h75v-75h-75zM200 -25h75v-75h-75v75zM200 100v75h75v-75h-75zM200 200v75h75v-75h-75zM200 300v75h75v-75h-75zM200 400v75h75v-75h-75zM200 500 v75h75v-75h-75zM300 0v75h75v-75h-75zM300 400v75h75v-75h-75zM400 100v75h75v-75h-75zM400 300v75h75v-75h-75z" />
<glyph unicode="&#xa3;" d="M0 0v75h75v-75h-75zM0 300v75h75v-75h-75zM100 0v75h75v-75h-75zM100 100v75h75v-75h-75zM100 200v75h75v-75h-75zM100 300v75h75v-75h-75zM100 400v75h75v-75h-75zM100 500v75h75v-75h-75zM200 0v75h75v-75h-75zM200 300v75h75v-75h-75zM200 600v75h75v-75h-75zM300 0 v75h75v-75h-75zM300 300v75h75v-75h-75zM300 600v75h75v-75h-75zM400 0v75h75v-75h-75zM400 500v75h75v-75h-75z" />
<glyph unicode="&#xa4;" d="M0 0v75h75v-75h-75zM0 400v75h75v-75h-75zM100 100v75h75v-75h-75zM100 200v75h75v-75h-75zM100 300v75h75v-75h-75zM200 100v75h75v-75h-75zM200 300v75h75v-75h-75zM300 100v75h75v-75h-75zM300 200v75h75v-75h-75zM300 300v75h75v-75h-75zM400 0v75h75v-75h-75z M400 400v75h75v-75h-75z" />
<glyph unicode="&#xa5;" d="M0 200v75h75v-75h-75zM0 500v75h75v-75h-75zM0 600v75h75v-75h-75zM100 200v75h75v-75h-75zM100 400v75h75v-75h-75zM200 0v75h75v-75h-75zM200 100v75h75v-75h-75zM200 200v75h75v-75h-75zM200 300v75h75v-75h-75zM300 200v75h75v-75h-75zM300 400v75h75v-75h-75z M400 200v75h75v-75h-75zM400 500v75h75v-75h-75zM400 600v75h75v-75h-75z" />
<glyph unicode="&#xa6;" d="M200 0v75h75v-75h-75zM200 100v75h75v-75h-75zM200 200v75h75v-75h-75zM200 400v75h75v-75h-75zM200 500v75h75v-75h-75zM200 600v75h75v-75h-75z" />
<glyph unicode="&#xa7;" d="M100 0v75h75v-75h-75zM100 300v75h75v-75h-75zM100 500v75h75v-75h-75zM200 0v75h75v-75h-75zM200 200v75h75v-75h-75zM200 400v75h75v-75h-75zM200 600v75h75v-75h-75zM300 0v75h75v-75h-75zM300 200v75h75v-75h-75zM300 400v75h75v-75h-75zM300 600v75h75v-75h-75z M400 100v75h75v-75h-75zM400 300v75h75v-75h-75zM400 600v75h75v-75h-75z" />
<glyph unicode="&#xa8;" d="M0 600v75h75v-75h-75zM0 700v75h75v-75h-75zM400 600v75h75v-75h-75zM400 700v75h75v-75h-75z" />
<glyph unicode="&#xa9;" d="M0 100v75h75v-75h-75zM0 200v75h75v-75h-75zM0 300v75h75v-75h-75zM100 0v75h75v-75h-75zM100 200v75h75v-75h-75zM100 400v75h75v-75h-75zM200 0v75h75v-75h-75zM200 100v75h75v-75h-75zM200 300v75h75v-75h-75zM200 400v75h75v-75h-75zM300 0v75h75v-75h-75zM300 400 v75h75v-75h-75zM400 100v75h75v-75h-75zM400 200v75h75v-75h-75zM400 300v75h75v-75h-75z" />
<glyph unicode="&#xaa;" d="M0 400v75h75v-75h-75zM100 300v75h75v-75h-75zM100 400v75h75v-75h-75zM100 600v75h75v-75h-75zM200 300v75h75v-75h-75zM200 400v75h75v-75h-75zM200 500v75h75v-75h-75z" />
<glyph unicode="&#xab;" d="M0 200v75h75v-75h-75zM100 100v75h75v-75h-75zM100 300v75h75v-75h-75zM200 0v75h75v-75h-75zM200 200v75h75v-75h-75zM200 400v75h75v-75h-75zM300 100v75h75v-75h-75zM300 300v75h75v-75h-75zM400 0v75h75v-75h-75zM400 400v75h75v-75h-75z" />
<glyph unicode="&#xac;" d="M0 200v75h75v-75h-75zM100 200v75h75v-75h-75zM200 200v75h75v-75h-75zM300 200v75h75v-75h-75zM400 0v75h75v-75h-75zM400 100v75h75v-75h-75zM400 200v75h75v-75h-75z" />
<glyph unicode="&#xad;" d="M100 200v75h75v-75h-75zM200 200v75h75v-75h-75zM300 200v75h75v-75h-75z" />
<glyph unicode="&#xae;" d="M0 300v75h75v-75h-75zM0 400v75h75v-75h-75zM0 500v75h75v-75h-75zM100 200v75h75v-75h-75zM100 600v75h75v-75h-75zM200 200v75h75v-75h-75zM200 400v75h75v-75h-75zM200 500v75h75v-75h-75zM200 600v75h75v-75h-75zM300 200v75h75v-75h-75zM300 300v75h75v-75h-75z M300 500v75h75v-75h-75zM300 600v75h75v-75h-75zM400 300v75h75v-75h-75zM400 400v75h75v-75h-75zM400 500v75h75v-75h-75z" />
<glyph unicode="&#xaf;" d="M100 600v75h75v-75h-75zM200 600v75h75v-75h-75zM300 600v75h75v-75h-75z" />
<glyph unicode="&#xb0;" d="M0 500v75h75v-75h-75zM100 400v75h75v-75h-75zM100 600v75h75v-75h-75zM200 500v75h75v-75h-75z" />
<glyph unicode="&#xb1;" d="M0 0v75h75v-75h-75zM0 300v75h75v-75h-75zM100 0v75h75v-75h-75zM100 300v75h75v-75h-75zM200 0v75h75v-75h-75zM200 200v75h75v-75h-75zM200 300v75h75v-75h-75zM200 400v75h75v-75h-75zM300 0v75h75v-75h-75zM300 300v75h75v-75h-75zM400 0v75h75v-75h-75zM400 300v75 h75v-75h-75z" />
<glyph unicode="&#xb2;" d="M0 300v75h75v-75h-75zM0 400v75h75v-75h-75zM0 600v75h75v-75h-75zM100 300v75h75v-75h-75zM100 500v75h75v-75h-75z" />
<glyph unicode="&#xb3;" d="M0 300v75h75v-75h-75zM0 600v75h75v-75h-75zM100 300v75h75v-75h-75zM100 400v75h75v-75h-75zM100 500v75h75v-75h-75z" />
<glyph unicode="&#xb4;" d="M100 600v75h75v-75h-75zM200 600v75h75v-75h-75zM300 700v75h75v-75h-75z" />
<glyph unicode="&#xb5;" d="M0 0v75h75v-75h-75zM0 -25h75v-75h-75v75zM0 100v75h75v-75h-75zM0 -125h75v-75h-75v75zM0 200v75h75v-75h-75zM0 300v75h75v-75h-75zM0 400v75h75v-75h-75zM100 0v75h75v-75h-75zM200 0v75h75v-75h-75zM300 100v75h75v-75h-75zM400 0v75h75v-75h-75zM400 100v75h75v-75 h-75zM400 200v75h75v-75h-75zM400 300v75h75v-75h-75zM400 400v75h75v-75h-75z" />
<glyph unicode="&#xb6;" d="M0 400v75h75v-75h-75zM0 500v75h75v-75h-75zM100 300v75h75v-75h-75zM100 400v75h75v-75h-75zM100 500v75h75v-75h-75zM100 600v75h75v-75h-75zM200 0v75h75v-75h-75zM200 100v75h75v-75h-75zM200 200v75h75v-75h-75zM200 300v75h75v-75h-75zM200 400v75h75v-75h-75z M200 500v75h75v-75h-75zM200 600v75h75v-75h-75zM400 0v75h75v-75h-75zM400 100v75h75v-75h-75zM400 200v75h75v-75h-75zM400 300v75h75v-75h-75zM400 400v75h75v-75h-75zM400 500v75h75v-75h-75zM400 600v75h75v-75h-75z" />
<glyph unicode="&#xb7;" d="M100 200v75h75v-75h-75zM100 300v75h75v-75h-75z" />
<glyph unicode="&#xb8;" d="M100 -125h75v-75h-75v75zM200 -25h75v-75h-75v75z" />
<glyph unicode="&#xb9;" d="M0 300v75h75v-75h-75zM0 600v75h75v-75h-75zM100 300v75h75v-75h-75zM100 400v75h75v-75h-75zM100 500v75h75v-75h-75zM100 600v75h75v-75h-75zM200 300v75h75v-75h-75z" />
<glyph unicode="&#xba;" d="M0 500v75h75v-75h-75zM100 400v75h75v-75h-75zM100 600v75h75v-75h-75zM200 500v75h75v-75h-75z" />
<glyph unicode="&#xbb;" d="M0 0v75h75v-75h-75zM0 400v75h75v-75h-75zM100 100v75h75v-75h-75zM100 300v75h75v-75h-75zM200 0v75h75v-75h-75zM200 200v75h75v-75h-75zM200 400v75h75v-75h-75zM300 100v75h75v-75h-75zM300 300v75h75v-75h-75zM400 200v75h75v-75h-75z" />
<glyph unicode="&#xbc;" d="M0 600v75h75v-75h-75zM100 0v75h75v-75h-75zM100 100v75h75v-75h-75zM100 400v75h75v-75h-75zM100 500v75h75v-75h-75zM100 600v75h75v-75h-75zM200 200v75h75v-75h-75zM200 300v75h75v-75h-75zM300 400v75h75v-75h-75zM400 200v75h75v-75h-75zM400 500v75h75v-75h-75z M400 600v75h75v-75h-75zM500 0v75h75v-75h-75zM500 100v75h75v-75h-75zM500 200v75h75v-75h-75zM500 300v75h75v-75h-75z" />
<glyph unicode="&#xbd;" d="M0 600v75h75v-75h-75zM100 0v75h75v-75h-75zM100 100v75h75v-75h-75zM100 400v75h75v-75h-75zM100 500v75h75v-75h-75zM100 600v75h75v-75h-75zM200 200v75h75v-75h-75zM200 300v75h75v-75h-75zM300 400v75h75v-75h-75zM400 0v75h75v-75h-75zM400 100v75h75v-75h-75z M400 300v75h75v-75h-75zM400 500v75h75v-75h-75zM400 600v75h75v-75h-75zM500 0v75h75v-75h-75zM500 200v75h75v-75h-75z" />
<glyph unicode="&#xbe;" d="M0 300v75h75v-75h-75zM0 600v75h75v-75h-75zM100 0v75h75v-75h-75zM100 100v75h75v-75h-75zM100 300v75h75v-75h-75zM100 400v75h75v-75h-75zM100 500v75h75v-75h-75zM200 200v75h75v-75h-75zM200 300v75h75v-75h-75zM300 400v75h75v-75h-75zM400 200v75h75v-75h-75z M400 500v75h75v-75h-75zM400 600v75h75v-75h-75zM500 0v75h75v-75h-75zM500 100v75h75v-75h-75zM500 200v75h75v-75h-75zM500 300v75h75v-75h-75z" />
<glyph unicode="&#xbf;" d="M0 100v75h75v-75h-75zM0 200v75h75v-75h-75zM100 0v75h75v-75h-75zM100 300v75h75v-75h-75zM200 0v75h75v-75h-75zM200 300v75h75v-75h-75zM200 500v75h75v-75h-75zM200 600v75h75v-75h-75zM300 0v75h75v-75h-75zM400 100v75h75v-75h-75z" />
<glyph unicode="&#xc0;" d="M0 0v75h75v-75h-75zM0 100v75h75v-75h-75zM0 200v75h75v-75h-75zM0 300v75h75v-75h-75zM0 400v75h75v-75h-75zM0 500v75h75v-75h-75zM100 200v75h75v-75h-75zM100 600v75h75v-75h-75zM100 925v75h75v-75h-75zM200 200v75h75v-75h-75zM200 600v75h75v-75h-75zM200 825v75 h75v-75h-75zM300 200v75h75v-75h-75zM300 600v75h75v-75h-75zM300 825v75h75v-75h-75zM400 0v75h75v-75h-75zM400 100v75h75v-75h-75zM400 200v75h75v-75h-75zM400 300v75h75v-75h-75zM400 400v75h75v-75h-75zM400 500v75h75v-75h-75z" />
<glyph unicode="&#xc1;" d="M0 0v75h75v-75h-75zM0 100v75h75v-75h-75zM0 200v75h75v-75h-75zM0 300v75h75v-75h-75zM0 400v75h75v-75h-75zM0 500v75h75v-75h-75zM100 200v75h75v-75h-75zM100 600v75h75v-75h-75zM100 825v75h75v-75h-75zM200 200v75h75v-75h-75zM200 600v75h75v-75h-75zM200 825v75 h75v-75h-75zM300 200v75h75v-75h-75zM300 600v75h75v-75h-75zM300 925v75h75v-75h-75zM400 0v75h75v-75h-75zM400 100v75h75v-75h-75zM400 200v75h75v-75h-75zM400 300v75h75v-75h-75zM400 400v75h75v-75h-75zM400 500v75h75v-75h-75z" />
<glyph unicode="&#xc2;" d="M0 0v75h75v-75h-75zM0 100v75h75v-75h-75zM0 200v75h75v-75h-75zM0 300v75h75v-75h-75zM0 400v75h75v-75h-75zM0 500v75h75v-75h-75zM100 200v75h75v-75h-75zM100 600v75h75v-75h-75zM100 825v75h75v-75h-75zM200 200v75h75v-75h-75zM200 600v75h75v-75h-75zM200 925v75 h75v-75h-75zM300 200v75h75v-75h-75zM300 600v75h75v-75h-75zM300 825v75h75v-75h-75zM400 0v75h75v-75h-75zM400 100v75h75v-75h-75zM400 200v75h75v-75h-75zM400 300v75h75v-75h-75zM400 400v75h75v-75h-75zM400 500v75h75v-75h-75z" />
<glyph unicode="&#xc3;" d="M0 0v75h75v-75h-75zM0 100v75h75v-75h-75zM0 200v75h75v-75h-75zM0 300v75h75v-75h-75zM0 400v75h75v-75h-75zM0 500v75h75v-75h-75zM0 825v75h75v-75h-75zM100 200v75h75v-75h-75zM100 600v75h75v-75h-75zM100 925v75h75v-75h-75zM200 200v75h75v-75h-75zM200 600v75h75 v-75h-75zM200 825v75h75v-75h-75zM300 200v75h75v-75h-75zM300 600v75h75v-75h-75zM300 825v75h75v-75h-75zM400 0v75h75v-75h-75zM400 100v75h75v-75h-75zM400 200v75h75v-75h-75zM400 300v75h75v-75h-75zM400 400v75h75v-75h-75zM400 500v75h75v-75h-75zM400 925v75h75 v-75h-75z" />
<glyph unicode="&#xc4;" d="M0 0v75h75v-75h-75zM0 100v75h75v-75h-75zM0 200v75h75v-75h-75zM0 300v75h75v-75h-75zM0 400v75h75v-75h-75zM0 500v75h75v-75h-75zM0 825v75h75v-75h-75zM0 925v75h75v-75h-75zM100 200v75h75v-75h-75zM100 600v75h75v-75h-75zM200 200v75h75v-75h-75zM200 600v75h75 v-75h-75zM300 200v75h75v-75h-75zM300 600v75h75v-75h-75zM400 0v75h75v-75h-75zM400 100v75h75v-75h-75zM400 200v75h75v-75h-75zM400 300v75h75v-75h-75zM400 400v75h75v-75h-75zM400 500v75h75v-75h-75zM400 825v75h75v-75h-75zM400 925v75h75v-75h-75z" />
<glyph unicode="&#xc5;" d="M0 0v75h75v-75h-75zM0 100v75h75v-75h-75zM0 200v75h75v-75h-75zM0 300v75h75v-75h-75zM0 400v75h75v-75h-75zM0 500v75h75v-75h-75zM100 200v75h75v-75h-75zM100 600v75h75v-75h-75zM100 925v75h75v-75h-75zM200 200v75h75v-75h-75zM200 600v75h75v-75h-75zM200 825v75 h75v-75h-75zM200 1025v75h75v-75h-75zM300 200v75h75v-75h-75zM300 600v75h75v-75h-75zM300 925v75h75v-75h-75zM400 0v75h75v-75h-75zM400 100v75h75v-75h-75zM400 200v75h75v-75h-75zM400 300v75h75v-75h-75zM400 400v75h75v-75h-75zM400 500v75h75v-75h-75z" />
<glyph unicode="&#xc6;" d="M0 0v75h75v-75h-75zM0 100v75h75v-75h-75zM0 200v75h75v-75h-75zM0 300v75h75v-75h-75zM0 400v75h75v-75h-75zM0 500v75h75v-75h-75zM100 200v75h75v-75h-75zM100 600v75h75v-75h-75zM200 0v75h75v-75h-75zM200 100v75h75v-75h-75zM200 200v75h75v-75h-75zM200 300v75h75 v-75h-75zM200 400v75h75v-75h-75zM200 500v75h75v-75h-75zM200 600v75h75v-75h-75zM300 0v75h75v-75h-75zM300 300v75h75v-75h-75zM300 600v75h75v-75h-75zM400 0v75h75v-75h-75zM400 600v75h75v-75h-75z" />
<glyph unicode="&#xc7;" d="M0 100v75h75v-75h-75zM0 200v75h75v-75h-75zM0 300v75h75v-75h-75zM0 400v75h75v-75h-75zM0 500v75h75v-75h-75zM100 0v75h75v-75h-75zM100 -125h75v-75h-75v75zM100 600v75h75v-75h-75zM200 0v75h75v-75h-75zM200 -25h75v-75h-75v75zM200 600v75h75v-75h-75zM300 0v75 h75v-75h-75zM300 600v75h75v-75h-75zM400 100v75h75v-75h-75zM400 500v75h75v-75h-75z" />
<glyph unicode="&#xc8;" d="M0 0v75h75v-75h-75zM0 100v75h75v-75h-75zM0 200v75h75v-75h-75zM0 300v75h75v-75h-75zM0 400v75h75v-75h-75zM0 500v75h75v-75h-75zM0 600v75h75v-75h-75zM100 0v75h75v-75h-75zM100 300v75h75v-75h-75zM100 600v75h75v-75h-75zM100 925v75h75v-75h-75zM200 0v75h75v-75 h-75zM200 300v75h75v-75h-75zM200 600v75h75v-75h-75zM200 825v75h75v-75h-75zM300 0v75h75v-75h-75zM300 300v75h75v-75h-75zM300 600v75h75v-75h-75zM300 825v75h75v-75h-75zM400 0v75h75v-75h-75zM400 600v75h75v-75h-75z" />
<glyph unicode="&#xc9;" d="M0 0v75h75v-75h-75zM0 100v75h75v-75h-75zM0 200v75h75v-75h-75zM0 300v75h75v-75h-75zM0 400v75h75v-75h-75zM0 500v75h75v-75h-75zM0 600v75h75v-75h-75zM100 0v75h75v-75h-75zM100 300v75h75v-75h-75zM100 600v75h75v-75h-75zM100 825v75h75v-75h-75zM200 0v75h75v-75 h-75zM200 300v75h75v-75h-75zM200 600v75h75v-75h-75zM200 825v75h75v-75h-75zM300 0v75h75v-75h-75zM300 300v75h75v-75h-75zM300 600v75h75v-75h-75zM300 925v75h75v-75h-75zM400 0v75h75v-75h-75zM400 600v75h75v-75h-75z" />
<glyph unicode="&#xca;" d="M0 0v75h75v-75h-75zM0 100v75h75v-75h-75zM0 200v75h75v-75h-75zM0 300v75h75v-75h-75zM0 400v75h75v-75h-75zM0 500v75h75v-75h-75zM0 600v75h75v-75h-75zM100 0v75h75v-75h-75zM100 300v75h75v-75h-75zM100 600v75h75v-75h-75zM100 825v75h75v-75h-75zM200 0v75h75v-75 h-75zM200 300v75h75v-75h-75zM200 600v75h75v-75h-75zM200 925v75h75v-75h-75zM300 0v75h75v-75h-75zM300 300v75h75v-75h-75zM300 600v75h75v-75h-75zM300 825v75h75v-75h-75zM400 0v75h75v-75h-75zM400 600v75h75v-75h-75z" />
<glyph unicode="&#xcb;" d="M0 0v75h75v-75h-75zM0 100v75h75v-75h-75zM0 200v75h75v-75h-75zM0 300v75h75v-75h-75zM0 400v75h75v-75h-75zM0 500v75h75v-75h-75zM0 600v75h75v-75h-75zM0 825v75h75v-75h-75zM0 925v75h75v-75h-75zM100 0v75h75v-75h-75zM100 300v75h75v-75h-75zM100 600v75h75v-75 h-75zM200 0v75h75v-75h-75zM200 300v75h75v-75h-75zM200 600v75h75v-75h-75zM300 0v75h75v-75h-75zM300 300v75h75v-75h-75zM300 600v75h75v-75h-75zM400 0v75h75v-75h-75zM400 600v75h75v-75h-75zM400 825v75h75v-75h-75zM400 925v75h75v-75h-75z" />
<glyph unicode="&#xcc;" d="M0 0v75h75v-75h-75zM0 600v75h75v-75h-75zM100 0v75h75v-75h-75zM100 600v75h75v-75h-75zM100 925v75h75v-75h-75zM200 0v75h75v-75h-75zM200 100v75h75v-75h-75zM200 200v75h75v-75h-75zM200 300v75h75v-75h-75zM200 400v75h75v-75h-75zM200 500v75h75v-75h-75zM200 600 v75h75v-75h-75zM200 825v75h75v-75h-75zM300 0v75h75v-75h-75zM300 600v75h75v-75h-75zM300 825v75h75v-75h-75zM400 0v75h75v-75h-75zM400 600v75h75v-75h-75z" />
<glyph unicode="&#xcd;" d="M0 0v75h75v-75h-75zM0 600v75h75v-75h-75zM100 0v75h75v-75h-75zM100 600v75h75v-75h-75zM100 825v75h75v-75h-75zM200 0v75h75v-75h-75zM200 100v75h75v-75h-75zM200 200v75h75v-75h-75zM200 300v75h75v-75h-75zM200 400v75h75v-75h-75zM200 500v75h75v-75h-75zM200 600 v75h75v-75h-75zM200 825v75h75v-75h-75zM300 0v75h75v-75h-75zM300 600v75h75v-75h-75zM300 925v75h75v-75h-75zM400 0v75h75v-75h-75zM400 600v75h75v-75h-75z" />
<glyph unicode="&#xce;" d="M0 0v75h75v-75h-75zM0 600v75h75v-75h-75zM100 0v75h75v-75h-75zM100 600v75h75v-75h-75zM100 825v75h75v-75h-75zM200 0v75h75v-75h-75zM200 100v75h75v-75h-75zM200 200v75h75v-75h-75zM200 300v75h75v-75h-75zM200 400v75h75v-75h-75zM200 500v75h75v-75h-75zM200 600 v75h75v-75h-75zM200 925v75h75v-75h-75zM300 0v75h75v-75h-75zM300 600v75h75v-75h-75zM300 825v75h75v-75h-75zM400 0v75h75v-75h-75zM400 600v75h75v-75h-75z" />
<glyph unicode="&#xcf;" d="M0 0v75h75v-75h-75zM0 600v75h75v-75h-75zM0 825v75h75v-75h-75zM0 925v75h75v-75h-75zM100 0v75h75v-75h-75zM100 600v75h75v-75h-75zM200 0v75h75v-75h-75zM200 100v75h75v-75h-75zM200 200v75h75v-75h-75zM200 300v75h75v-75h-75zM200 400v75h75v-75h-75zM200 500v75 h75v-75h-75zM200 600v75h75v-75h-75zM300 0v75h75v-75h-75zM300 600v75h75v-75h-75zM400 0v75h75v-75h-75zM400 600v75h75v-75h-75zM400 825v75h75v-75h-75zM400 925v75h75v-75h-75z" />
<glyph unicode="&#xd0;" d="M0 300v75h75v-75h-75zM100 0v75h75v-75h-75zM100 100v75h75v-75h-75zM100 200v75h75v-75h-75zM100 300v75h75v-75h-75zM100 400v75h75v-75h-75zM100 500v75h75v-75h-75zM100 600v75h75v-75h-75zM200 0v75h75v-75h-75zM200 300v75h75v-75h-75zM200 600v75h75v-75h-75z M300 0v75h75v-75h-75zM300 600v75h75v-75h-75zM400 100v75h75v-75h-75zM400 200v75h75v-75h-75zM400 300v75h75v-75h-75zM400 400v75h75v-75h-75zM400 500v75h75v-75h-75z" />
<glyph unicode="&#xd1;" d="M0 0v75h75v-75h-75zM0 100v75h75v-75h-75zM0 200v75h75v-75h-75zM0 300v75h75v-75h-75zM0 400v75h75v-75h-75zM0 500v75h75v-75h-75zM0 600v75h75v-75h-75zM0 825v75h75v-75h-75zM100 500v75h75v-75h-75zM100 925v75h75v-75h-75zM200 300v75h75v-75h-75zM200 400v75h75 v-75h-75zM200 825v75h75v-75h-75zM300 200v75h75v-75h-75zM300 825v75h75v-75h-75zM400 0v75h75v-75h-75zM400 100v75h75v-75h-75zM400 200v75h75v-75h-75zM400 300v75h75v-75h-75zM400 400v75h75v-75h-75zM400 500v75h75v-75h-75zM400 600v75h75v-75h-75zM400 925v75h75 v-75h-75z" />
<glyph unicode="&#xd2;" d="M0 100v75h75v-75h-75zM0 200v75h75v-75h-75zM0 300v75h75v-75h-75zM0 400v75h75v-75h-75zM0 500v75h75v-75h-75zM100 0v75h75v-75h-75zM100 600v75h75v-75h-75zM100 925v75h75v-75h-75zM200 0v75h75v-75h-75zM200 600v75h75v-75h-75zM200 825v75h75v-75h-75zM300 0v75h75 v-75h-75zM300 600v75h75v-75h-75zM300 825v75h75v-75h-75zM400 100v75h75v-75h-75zM400 200v75h75v-75h-75zM400 300v75h75v-75h-75zM400 400v75h75v-75h-75zM400 500v75h75v-75h-75z" />
<glyph unicode="&#xd3;" d="M0 100v75h75v-75h-75zM0 200v75h75v-75h-75zM0 300v75h75v-75h-75zM0 400v75h75v-75h-75zM0 500v75h75v-75h-75zM100 0v75h75v-75h-75zM100 600v75h75v-75h-75zM100 825v75h75v-75h-75zM200 0v75h75v-75h-75zM200 600v75h75v-75h-75zM200 825v75h75v-75h-75zM300 0v75h75 v-75h-75zM300 600v75h75v-75h-75zM300 925v75h75v-75h-75zM400 100v75h75v-75h-75zM400 200v75h75v-75h-75zM400 300v75h75v-75h-75zM400 400v75h75v-75h-75zM400 500v75h75v-75h-75z" />
<glyph unicode="&#xd4;" d="M0 100v75h75v-75h-75zM0 200v75h75v-75h-75zM0 300v75h75v-75h-75zM0 400v75h75v-75h-75zM0 500v75h75v-75h-75zM100 0v75h75v-75h-75zM100 600v75h75v-75h-75zM100 825v75h75v-75h-75zM200 0v75h75v-75h-75zM200 600v75h75v-75h-75zM200 925v75h75v-75h-75zM300 0v75h75 v-75h-75zM300 600v75h75v-75h-75zM300 825v75h75v-75h-75zM400 100v75h75v-75h-75zM400 200v75h75v-75h-75zM400 300v75h75v-75h-75zM400 400v75h75v-75h-75zM400 500v75h75v-75h-75z" />
<glyph unicode="&#xd5;" d="M0 100v75h75v-75h-75zM0 200v75h75v-75h-75zM0 300v75h75v-75h-75zM0 400v75h75v-75h-75zM0 500v75h75v-75h-75zM0 825v75h75v-75h-75zM100 0v75h75v-75h-75zM100 600v75h75v-75h-75zM100 925v75h75v-75h-75zM200 0v75h75v-75h-75zM200 600v75h75v-75h-75zM200 825v75h75 v-75h-75zM300 0v75h75v-75h-75zM300 600v75h75v-75h-75zM300 825v75h75v-75h-75zM400 100v75h75v-75h-75zM400 200v75h75v-75h-75zM400 300v75h75v-75h-75zM400 400v75h75v-75h-75zM400 500v75h75v-75h-75zM400 925v75h75v-75h-75z" />
<glyph unicode="&#xd6;" d="M0 100v75h75v-75h-75zM0 200v75h75v-75h-75zM0 300v75h75v-75h-75zM0 400v75h75v-75h-75zM0 500v75h75v-75h-75zM0 825v75h75v-75h-75zM0 925v75h75v-75h-75zM100 0v75h75v-75h-75zM100 600v75h75v-75h-75zM200 0v75h75v-75h-75zM200 600v75h75v-75h-75zM300 0v75h75v-75 h-75zM300 600v75h75v-75h-75zM400 100v75h75v-75h-75zM400 200v75h75v-75h-75zM400 300v75h75v-75h-75zM400 400v75h75v-75h-75zM400 500v75h75v-75h-75zM400 825v75h75v-75h-75zM400 925v75h75v-75h-75z" />
<glyph unicode="&#xd7;" d="M0 0v75h75v-75h-75zM0 400v75h75v-75h-75zM100 100v75h75v-75h-75zM100 300v75h75v-75h-75zM200 200v75h75v-75h-75zM300 100v75h75v-75h-75zM300 300v75h75v-75h-75zM400 0v75h75v-75h-75zM400 400v75h75v-75h-75z" />
<glyph unicode="&#xd8;" d="M0 100v75h75v-75h-75zM0 200v75h75v-75h-75zM0 300v75h75v-75h-75zM0 400v75h75v-75h-75zM0 500v75h75v-75h-75zM100 0v75h75v-75h-75zM100 600v75h75v-75h-75zM102 100v75h75v-75h-75zM200 0v75h75v-75h-75zM200 600v75h75v-75h-75zM201 200v75h75v-75h-75zM201 300v75 h75v-75h-75zM201 400v75h75v-75h-75zM300 0v75h75v-75h-75zM300 500v75h75v-75h-75zM300 600v75h75v-75h-75zM400 100v75h75v-75h-75zM400 200v75h75v-75h-75zM400 300v75h75v-75h-75zM400 400v75h75v-75h-75zM400 500v75h75v-75h-75z" />
<glyph unicode="&#xd9;" d="M0 100v75h75v-75h-75zM0 200v75h75v-75h-75zM0 300v75h75v-75h-75zM0 400v75h75v-75h-75zM0 500v75h75v-75h-75zM0 600v75h75v-75h-75zM100 0v75h75v-75h-75zM100 925v75h75v-75h-75zM200 0v75h75v-75h-75zM200 825v75h75v-75h-75zM300 0v75h75v-75h-75zM300 825v75h75 v-75h-75zM400 100v75h75v-75h-75zM400 200v75h75v-75h-75zM400 300v75h75v-75h-75zM400 400v75h75v-75h-75zM400 500v75h75v-75h-75zM400 600v75h75v-75h-75z" />
<glyph unicode="&#xda;" d="M0 100v75h75v-75h-75zM0 200v75h75v-75h-75zM0 300v75h75v-75h-75zM0 400v75h75v-75h-75zM0 500v75h75v-75h-75zM0 600v75h75v-75h-75zM100 0v75h75v-75h-75zM100 825v75h75v-75h-75zM200 0v75h75v-75h-75zM200 825v75h75v-75h-75zM300 0v75h75v-75h-75zM300 925v75h75 v-75h-75zM400 100v75h75v-75h-75zM400 200v75h75v-75h-75zM400 300v75h75v-75h-75zM400 400v75h75v-75h-75zM400 500v75h75v-75h-75zM400 600v75h75v-75h-75z" />
<glyph unicode="&#xdb;" d="M0 100v75h75v-75h-75zM0 200v75h75v-75h-75zM0 300v75h75v-75h-75zM0 400v75h75v-75h-75zM0 500v75h75v-75h-75zM0 600v75h75v-75h-75zM100 0v75h75v-75h-75zM100 825v75h75v-75h-75zM200 0v75h75v-75h-75zM200 925v75h75v-75h-75zM300 0v75h75v-75h-75zM300 825v75h75 v-75h-75zM400 100v75h75v-75h-75zM400 200v75h75v-75h-75zM400 300v75h75v-75h-75zM400 400v75h75v-75h-75zM400 500v75h75v-75h-75zM400 600v75h75v-75h-75z" />
<glyph unicode="&#xdc;" d="M0 100v75h75v-75h-75zM0 200v75h75v-75h-75zM0 300v75h75v-75h-75zM0 400v75h75v-75h-75zM0 500v75h75v-75h-75zM0 600v75h75v-75h-75zM0 825v75h75v-75h-75zM0 925v75h75v-75h-75zM100 0v75h75v-75h-75zM200 0v75h75v-75h-75zM300 0v75h75v-75h-75zM400 100v75h75v-75 h-75zM400 200v75h75v-75h-75zM400 300v75h75v-75h-75zM400 400v75h75v-75h-75zM400 500v75h75v-75h-75zM400 600v75h75v-75h-75zM400 825v75h75v-75h-75zM400 925v75h75v-75h-75z" />
<glyph unicode="&#xdd;" d="M0 400v75h75v-75h-75zM0 500v75h75v-75h-75zM0 600v75h75v-75h-75zM100 300v75h75v-75h-75zM100 825v75h75v-75h-75zM200 0v75h75v-75h-75zM200 100v75h75v-75h-75zM200 200v75h75v-75h-75zM200 825v75h75v-75h-75zM300 300v75h75v-75h-75zM300 925v75h75v-75h-75z M400 400v75h75v-75h-75zM400 500v75h75v-75h-75zM400 600v75h75v-75h-75z" />
<glyph unicode="&#xde;" d="M0 0v75h75v-75h-75zM0 100v75h75v-75h-75zM0 200v75h75v-75h-75zM0 300v75h75v-75h-75zM0 400v75h75v-75h-75zM0 500v75h75v-75h-75zM0 600v75h75v-75h-75zM100 200v75h75v-75h-75zM100 500v75h75v-75h-75zM200 200v75h75v-75h-75zM200 500v75h75v-75h-75zM300 200v75h75 v-75h-75zM300 500v75h75v-75h-75zM400 300v75h75v-75h-75zM400 400v75h75v-75h-75z" />
<glyph unicode="&#xdf;" d="M0 0v75h75v-75h-75zM0 100v75h75v-75h-75zM0 200v75h75v-75h-75zM0 300v75h75v-75h-75zM0 400v75h75v-75h-75zM100 500v75h75v-75h-75zM200 0v75h75v-75h-75zM200 300v75h75v-75h-75zM200 600v75h75v-75h-75zM300 0v75h75v-75h-75zM300 200v75h75v-75h-75zM300 400v75h75 v-75h-75zM300 500v75h75v-75h-75zM400 100v75h75v-75h-75z" />
<glyph unicode="&#xe0;" d="M0 100v75h75v-75h-75zM100 0v75h75v-75h-75zM100 200v75h75v-75h-75zM100 400v75h75v-75h-75zM100 700v75h75v-75h-75zM200 0v75h75v-75h-75zM200 200v75h75v-75h-75zM200 400v75h75v-75h-75zM200 600v75h75v-75h-75zM300 0v75h75v-75h-75zM300 200v75h75v-75h-75z M300 400v75h75v-75h-75zM300 600v75h75v-75h-75zM400 0v75h75v-75h-75zM400 100v75h75v-75h-75zM400 200v75h75v-75h-75zM400 300v75h75v-75h-75z" />
<glyph unicode="&#xe1;" d="M0 100v75h75v-75h-75zM100 0v75h75v-75h-75zM100 200v75h75v-75h-75zM100 400v75h75v-75h-75zM100 600v75h75v-75h-75zM200 0v75h75v-75h-75zM200 200v75h75v-75h-75zM200 400v75h75v-75h-75zM200 600v75h75v-75h-75zM300 0v75h75v-75h-75zM300 200v75h75v-75h-75z M300 400v75h75v-75h-75zM300 700v75h75v-75h-75zM400 0v75h75v-75h-75zM400 100v75h75v-75h-75zM400 200v75h75v-75h-75zM400 300v75h75v-75h-75z" />
<glyph unicode="&#xe2;" d="M0 100v75h75v-75h-75zM100 0v75h75v-75h-75zM100 200v75h75v-75h-75zM100 400v75h75v-75h-75zM200 0v75h75v-75h-75zM200 200v75h75v-75h-75zM200 400v75h75v-75h-75zM300 0v75h75v-75h-75zM300 200v75h75v-75h-75zM300 400v75h75v-75h-75zM400 0v75h75v-75h-75zM400 100 v75h75v-75h-75zM400 200v75h75v-75h-75zM400 300v75h75v-75h-75z" />
<glyph unicode="&#xe3;" d="M0 100v75h75v-75h-75zM0 600v75h75v-75h-75zM100 0v75h75v-75h-75zM100 200v75h75v-75h-75zM100 400v75h75v-75h-75zM100 700v75h75v-75h-75zM200 0v75h75v-75h-75zM200 200v75h75v-75h-75zM200 400v75h75v-75h-75zM200 600v75h75v-75h-75zM300 0v75h75v-75h-75zM300 200 v75h75v-75h-75zM300 400v75h75v-75h-75zM300 600v75h75v-75h-75zM400 0v75h75v-75h-75zM400 100v75h75v-75h-75zM400 200v75h75v-75h-75zM400 300v75h75v-75h-75zM400 700v75h75v-75h-75z" />
<glyph unicode="&#xe4;" d="M0 100v75h75v-75h-75zM0 600v75h75v-75h-75zM0 700v75h75v-75h-75zM100 0v75h75v-75h-75zM100 200v75h75v-75h-75zM100 400v75h75v-75h-75zM200 0v75h75v-75h-75zM200 200v75h75v-75h-75zM200 400v75h75v-75h-75zM300 0v75h75v-75h-75zM300 200v75h75v-75h-75zM300 400 v75h75v-75h-75zM400 0v75h75v-75h-75zM400 100v75h75v-75h-75zM400 200v75h75v-75h-75zM400 300v75h75v-75h-75zM400 600v75h75v-75h-75zM400 700v75h75v-75h-75z" />
<glyph unicode="&#xe5;" d="M0 100v75h75v-75h-75zM100 0v75h75v-75h-75zM100 200v75h75v-75h-75zM100 400v75h75v-75h-75zM100 700v75h75v-75h-75zM200 0v75h75v-75h-75zM200 200v75h75v-75h-75zM200 400v75h75v-75h-75zM200 600v75h75v-75h-75zM200 800v75h75v-75h-75zM300 0v75h75v-75h-75z M300 200v75h75v-75h-75zM300 400v75h75v-75h-75zM300 700v75h75v-75h-75zM400 0v75h75v-75h-75zM400 100v75h75v-75h-75zM400 200v75h75v-75h-75zM400 300v75h75v-75h-75z" />
<glyph unicode="&#xe6;" d="M0 100v75h75v-75h-75zM100 0v75h75v-75h-75zM100 200v75h75v-75h-75zM100 400v75h75v-75h-75zM200 0v75h75v-75h-75zM200 100v75h75v-75h-75zM200 200v75h75v-75h-75zM200 300v75h75v-75h-75zM300 0v75h75v-75h-75zM300 200v75h75v-75h-75zM300 400v75h75v-75h-75zM400 0 v75h75v-75h-75zM400 300v75h75v-75h-75z" />
<glyph unicode="&#xe7;" d="M0 100v75h75v-75h-75zM0 200v75h75v-75h-75zM0 300v75h75v-75h-75zM100 0v75h75v-75h-75zM100 -125h75v-75h-75v75zM100 400v75h75v-75h-75zM200 0v75h75v-75h-75zM200 -25h75v-75h-75v75zM200 400v75h75v-75h-75zM300 0v75h75v-75h-75zM300 400v75h75v-75h-75zM400 100 v75h75v-75h-75zM400 300v75h75v-75h-75z" />
<glyph unicode="&#xe8;" d="M0 100v75h75v-75h-75zM0 200v75h75v-75h-75zM0 300v75h75v-75h-75zM100 0v75h75v-75h-75zM100 200v75h75v-75h-75zM100 400v75h75v-75h-75zM100 700v75h75v-75h-75zM200 0v75h75v-75h-75zM200 200v75h75v-75h-75zM200 400v75h75v-75h-75zM200 600v75h75v-75h-75zM300 0 v75h75v-75h-75zM300 200v75h75v-75h-75zM300 400v75h75v-75h-75zM300 600v75h75v-75h-75zM400 0v75h75v-75h-75zM400 200v75h75v-75h-75zM400 300v75h75v-75h-75z" />
<glyph unicode="&#xe9;" d="M0 100v75h75v-75h-75zM0 200v75h75v-75h-75zM0 300v75h75v-75h-75zM100 0v75h75v-75h-75zM100 200v75h75v-75h-75zM100 400v75h75v-75h-75zM100 600v75h75v-75h-75zM200 0v75h75v-75h-75zM200 200v75h75v-75h-75zM200 400v75h75v-75h-75zM200 600v75h75v-75h-75zM300 0 v75h75v-75h-75zM300 200v75h75v-75h-75zM300 400v75h75v-75h-75zM300 700v75h75v-75h-75zM400 0v75h75v-75h-75zM400 200v75h75v-75h-75zM400 300v75h75v-75h-75z" />
<glyph unicode="&#xea;" d="M0 100v75h75v-75h-75zM0 200v75h75v-75h-75zM0 300v75h75v-75h-75zM100 0v75h75v-75h-75zM100 200v75h75v-75h-75zM100 400v75h75v-75h-75zM100 600v75h75v-75h-75zM200 0v75h75v-75h-75zM200 200v75h75v-75h-75zM200 400v75h75v-75h-75zM200 700v75h75v-75h-75zM300 0 v75h75v-75h-75zM300 200v75h75v-75h-75zM300 400v75h75v-75h-75zM300 600v75h75v-75h-75zM400 0v75h75v-75h-75zM400 200v75h75v-75h-75zM400 300v75h75v-75h-75z" />
<glyph unicode="&#xeb;" d="M0 100v75h75v-75h-75zM0 200v75h75v-75h-75zM0 300v75h75v-75h-75zM0 600v75h75v-75h-75zM0 700v75h75v-75h-75zM100 0v75h75v-75h-75zM100 200v75h75v-75h-75zM100 400v75h75v-75h-75zM200 0v75h75v-75h-75zM200 200v75h75v-75h-75zM200 400v75h75v-75h-75zM300 0v75h75 v-75h-75zM300 200v75h75v-75h-75zM300 400v75h75v-75h-75zM400 0v75h75v-75h-75zM400 200v75h75v-75h-75zM400 300v75h75v-75h-75zM400 600v75h75v-75h-75zM400 700v75h75v-75h-75z" />
<glyph unicode="&#xec;" d="M0 0v75h75v-75h-75zM0 400v75h75v-75h-75zM100 0v75h75v-75h-75zM100 400v75h75v-75h-75zM100 700v75h75v-75h-75zM200 0v75h75v-75h-75zM200 100v75h75v-75h-75zM200 200v75h75v-75h-75zM200 300v75h75v-75h-75zM200 400v75h75v-75h-75zM200 600v75h75v-75h-75zM300 0 v75h75v-75h-75zM300 600v75h75v-75h-75zM400 0v75h75v-75h-75z" />
<glyph unicode="&#xed;" d="M0 0v75h75v-75h-75zM0 400v75h75v-75h-75zM100 0v75h75v-75h-75zM100 400v75h75v-75h-75zM100 600v75h75v-75h-75zM200 0v75h75v-75h-75zM200 100v75h75v-75h-75zM200 200v75h75v-75h-75zM200 300v75h75v-75h-75zM200 400v75h75v-75h-75zM200 600v75h75v-75h-75zM300 0 v75h75v-75h-75zM300 700v75h75v-75h-75zM400 0v75h75v-75h-75z" />
<glyph unicode="&#xee;" d="M0 0v75h75v-75h-75zM0 400v75h75v-75h-75zM100 0v75h75v-75h-75zM100 400v75h75v-75h-75zM100 600v75h75v-75h-75zM200 0v75h75v-75h-75zM200 100v75h75v-75h-75zM200 200v75h75v-75h-75zM200 300v75h75v-75h-75zM200 400v75h75v-75h-75zM200 700v75h75v-75h-75zM300 0 v75h75v-75h-75zM300 600v75h75v-75h-75zM400 0v75h75v-75h-75z" />
<glyph unicode="&#xef;" d="M0 0v75h75v-75h-75zM0 400v75h75v-75h-75zM0 600v75h75v-75h-75zM0 700v75h75v-75h-75zM100 0v75h75v-75h-75zM100 400v75h75v-75h-75zM200 0v75h75v-75h-75zM200 100v75h75v-75h-75zM200 200v75h75v-75h-75zM200 300v75h75v-75h-75zM200 400v75h75v-75h-75zM300 0v75h75 v-75h-75zM400 0v75h75v-75h-75zM400 600v75h75v-75h-75zM400 700v75h75v-75h-75z" />
<glyph unicode="&#xf0;" d="M0 100v75h75v-75h-75zM0 200v75h75v-75h-75zM100 300v75h75v-75h-75zM100 600v75h75v-75h-75zM101 0v75h75v-75h-75zM200 0v75h75v-75h-75zM200 300v75h75v-75h-75zM200 400v75h75v-75h-75zM200 600v75h75v-75h-75zM299 0l1 75h75v-75h-76zM300 300v75h75v-75h-75z M300 500v75h75v-75h-75zM400 100v75h75v-75h-75zM400 200v75h75v-75h-75zM400 300v75h75v-75h-75zM400 400v75h75v-75h-75zM400 600v75h75v-75h-75z" />
<glyph unicode="&#xf1;" d="M0 0v75h75v-75h-75zM0 100v75h75v-75h-75zM0 200v75h75v-75h-75zM0 300v75h75v-75h-75zM0 400v75h75v-75h-75zM0 600v75h75v-75h-75zM100 300v75h75v-75h-75zM100 700v75h75v-75h-75zM200 400v75h75v-75h-75zM200 600v75h75v-75h-75zM300 400v75h75v-75h-75zM300 600v75 h75v-75h-75zM400 0v75h75v-75h-75zM400 100v75h75v-75h-75zM400 200v75h75v-75h-75zM400 300v75h75v-75h-75zM400 700v75h75v-75h-75z" />
<glyph unicode="&#xf2;" d="M0 100v75h75v-75h-75zM0 200v75h75v-75h-75zM0 300v75h75v-75h-75zM100 0v75h75v-75h-75zM100 400v75h75v-75h-75zM100 700v75h75v-75h-75zM200 0v75h75v-75h-75zM200 400v75h75v-75h-75zM200 600v75h75v-75h-75zM300 0v75h75v-75h-75zM300 400v75h75v-75h-75zM300 600 v75h75v-75h-75zM400 100v75h75v-75h-75zM400 200v75h75v-75h-75zM400 300v75h75v-75h-75z" />
<glyph unicode="&#xf3;" d="M0 100v75h75v-75h-75zM0 200v75h75v-75h-75zM0 300v75h75v-75h-75zM100 0v75h75v-75h-75zM100 400v75h75v-75h-75zM100 600v75h75v-75h-75zM200 0v75h75v-75h-75zM200 400v75h75v-75h-75zM200 600v75h75v-75h-75zM300 0v75h75v-75h-75zM300 400v75h75v-75h-75zM300 700 v75h75v-75h-75zM400 100v75h75v-75h-75zM400 200v75h75v-75h-75zM400 300v75h75v-75h-75z" />
<glyph unicode="&#xf4;" d="M0 100v75h75v-75h-75zM0 200v75h75v-75h-75zM0 300v75h75v-75h-75zM100 0v75h75v-75h-75zM100 400v75h75v-75h-75zM100 600v75h75v-75h-75zM200 0v75h75v-75h-75zM200 400v75h75v-75h-75zM200 700v75h75v-75h-75zM300 0v75h75v-75h-75zM300 400v75h75v-75h-75zM300 600 v75h75v-75h-75zM400 100v75h75v-75h-75zM400 200v75h75v-75h-75zM400 300v75h75v-75h-75z" />
<glyph unicode="&#xf5;" d="M0 100v75h75v-75h-75zM0 200v75h75v-75h-75zM0 300v75h75v-75h-75zM0 600v75h75v-75h-75zM100 0v75h75v-75h-75zM100 400v75h75v-75h-75zM100 700v75h75v-75h-75zM200 0v75h75v-75h-75zM200 400v75h75v-75h-75zM200 600v75h75v-75h-75zM300 0v75h75v-75h-75zM300 400v75 h75v-75h-75zM300 600v75h75v-75h-75zM400 100v75h75v-75h-75zM400 200v75h75v-75h-75zM400 300v75h75v-75h-75zM400 700v75h75v-75h-75z" />
<glyph unicode="&#xf6;" d="M0 100v75h75v-75h-75zM0 200v75h75v-75h-75zM0 300v75h75v-75h-75zM0 600v75h75v-75h-75zM0 700v75h75v-75h-75zM100 0v75h75v-75h-75zM100 400v75h75v-75h-75zM200 0v75h75v-75h-75zM200 400v75h75v-75h-75zM300 0v75h75v-75h-75zM300 400v75h75v-75h-75zM400 100v75h75 v-75h-75zM400 200v75h75v-75h-75zM400 300v75h75v-75h-75zM400 600v75h75v-75h-75zM400 700v75h75v-75h-75z" />
<glyph unicode="&#xf7;" d="M0 200v75h75v-75h-75zM100 200v75h75v-75h-75zM200 0v75h75v-75h-75zM200 200v75h75v-75h-75zM200 400v75h75v-75h-75zM300 200v75h75v-75h-75zM400 200v75h75v-75h-75z" />
<glyph unicode="&#xf8;" d="M0 100v75h75v-75h-75zM0 200v75h75v-75h-75zM0 300v75h75v-75h-75zM1 -25h75v-75h-75v75zM100 0v75h75v-75h-75zM100 100v75h75v-75h-75zM100 400v75h75v-75h-75zM200 0v75h75v-75h-75zM200 200v75h75v-75h-75zM200 400v75h75v-75h-75zM300 0v75h75v-75h-75zM300 300v75 h75v-75h-75zM300 400v75h75v-75h-75zM400 100v75h75v-75h-75zM400 200v75h75v-75h-75zM400 300v75h75v-75h-75zM400 500v75h75v-75h-75z" />
<glyph unicode="&#xf9;" d="M0 100v75h75v-75h-75zM0 200v75h75v-75h-75zM0 300v75h75v-75h-75zM0 400v75h75v-75h-75zM100 0v75h75v-75h-75zM100 700v75h75v-75h-75zM200 0v75h75v-75h-75zM200 600v75h75v-75h-75zM300 100v75h75v-75h-75zM300 600v75h75v-75h-75zM400 0v75h75v-75h-75zM400 100v75 h75v-75h-75zM400 200v75h75v-75h-75zM400 300v75h75v-75h-75zM400 400v75h75v-75h-75z" />
<glyph unicode="&#xfa;" d="M0 100v75h75v-75h-75zM0 200v75h75v-75h-75zM0 300v75h75v-75h-75zM0 400v75h75v-75h-75zM100 0v75h75v-75h-75zM100 600v75h75v-75h-75zM200 0v75h75v-75h-75zM200 600v75h75v-75h-75zM300 100v75h75v-75h-75zM300 700v75h75v-75h-75zM400 0v75h75v-75h-75zM400 100v75 h75v-75h-75zM400 200v75h75v-75h-75zM400 300v75h75v-75h-75zM400 400v75h75v-75h-75z" />
<glyph unicode="&#xfb;" d="M0 100v75h75v-75h-75zM0 200v75h75v-75h-75zM0 300v75h75v-75h-75zM0 400v75h75v-75h-75zM100 0v75h75v-75h-75zM100 600v75h75v-75h-75zM200 0v75h75v-75h-75zM200 700v75h75v-75h-75zM300 100v75h75v-75h-75zM300 600v75h75v-75h-75zM400 0v75h75v-75h-75zM400 100v75 h75v-75h-75zM400 200v75h75v-75h-75zM400 300v75h75v-75h-75zM400 400v75h75v-75h-75z" />
<glyph unicode="&#xfc;" d="M0 100v75h75v-75h-75zM0 200v75h75v-75h-75zM0 300v75h75v-75h-75zM0 400v75h75v-75h-75zM0 600v75h75v-75h-75zM0 700v75h75v-75h-75zM100 0v75h75v-75h-75zM200 0v75h75v-75h-75zM300 100v75h75v-75h-75zM400 0v75h75v-75h-75zM400 100v75h75v-75h-75zM400 200v75h75 v-75h-75zM400 300v75h75v-75h-75zM400 400v75h75v-75h-75zM400 600v75h75v-75h-75zM400 700v75h75v-75h-75z" />
<glyph unicode="&#xfd;" d="M0 -125h75v-75h-75v75zM0 300v75h75v-75h-75zM0 400v75h75v-75h-75zM100 100v75h75v-75h-75zM100 -125h75v-75h-75v75zM100 200v75h75v-75h-75zM100 600v75h75v-75h-75zM200 0v75h75v-75h-75zM200 -25h75v-75h-75v75zM200 600v75h75v-75h-75zM300 100v75h75v-75h-75z M300 200v75h75v-75h-75zM300 700v75h75v-75h-75zM400 300v75h75v-75h-75zM400 400v75h75v-75h-75z" />
<glyph unicode="&#xfe;" d="M0 0v75h75v-75h-75zM0 -25h75v-75h-75v75zM0 100v75h75v-75h-75zM0 -125h75v-75h-75v75zM0 200v75h75v-75h-75zM0 300v75h75v-75h-75zM0 400v75h75v-75h-75zM0 500v75h75v-75h-75zM0 600v75h75v-75h-75zM100 0v75h75v-75h-75zM100 400v75h75v-75h-75zM200 0v75h75v-75 h-75zM200 400v75h75v-75h-75zM300 0v75h75v-75h-75zM300 400v75h75v-75h-75zM400 100v75h75v-75h-75zM400 200v75h75v-75h-75zM400 300v75h75v-75h-75z" />
<glyph unicode="&#xff;" d="M0 -125h75v-75h-75v75zM0 300v75h75v-75h-75zM0 400v75h75v-75h-75zM0 600v75h75v-75h-75zM0 700v75h75v-75h-75zM100 100v75h75v-75h-75zM100 -125h75v-75h-75v75zM100 200v75h75v-75h-75zM200 0v75h75v-75h-75zM200 -25h75v-75h-75v75zM300 100v75h75v-75h-75zM300 200 v75h75v-75h-75zM400 300v75h75v-75h-75zM400 400v75h75v-75h-75zM400 600v75h75v-75h-75zM400 700v75h75v-75h-75z" />
<glyph unicode="&#x152;" d="M0 100v75h75v-75h-75zM0 200v75h75v-75h-75zM0 300v75h75v-75h-75zM0 400v75h75v-75h-75zM0 500v75h75v-75h-75zM100 0v75h75v-75h-75zM100 600v75h75v-75h-75zM200 0v75h75v-75h-75zM200 100v75h75v-75h-75zM200 200v75h75v-75h-75zM200 300v75h75v-75h-75zM200 400v75 h75v-75h-75zM200 500v75h75v-75h-75zM200 600v75h75v-75h-75zM300 0v75h75v-75h-75zM300 300v75h75v-75h-75zM300 600v75h75v-75h-75zM400 0v75h75v-75h-75zM400 600v75h75v-75h-75z" />
<glyph unicode="&#x153;" d="M0 100v75h75v-75h-75zM0 200v75h75v-75h-75zM0 300v75h75v-75h-75zM100 0v75h75v-75h-75zM100 400v75h75v-75h-75zM200 100v75h75v-75h-75zM200 200v75h75v-75h-75zM200 300v75h75v-75h-75zM300 0v75h75v-75h-75zM300 200v75h75v-75h-75zM300 400v75h75v-75h-75zM400 0 v75h75v-75h-75zM400 200v75h75v-75h-75zM400 300v75h75v-75h-75z" />
<glyph unicode="&#x178;" d="M0 400v75h75v-75h-75zM0 500v75h75v-75h-75zM0 600v75h75v-75h-75zM0 825v75h75v-75h-75zM0 925v75h75v-75h-75zM100 300v75h75v-75h-75zM200 0v75h75v-75h-75zM200 100v75h75v-75h-75zM200 200v75h75v-75h-75zM300 300v75h75v-75h-75zM400 400v75h75v-75h-75zM400 500 v75h75v-75h-75zM400 600v75h75v-75h-75zM400 825v75h75v-75h-75zM400 925v75h75v-75h-75z" />
<glyph unicode="&#x2c6;" d="M100 600v75h75v-75h-75zM200 700v75h75v-75h-75zM300 600v75h75v-75h-75z" />
<glyph unicode="&#x2dc;" d="M0 600v75h75v-75h-75zM100 700v75h75v-75h-75zM200 600v75h75v-75h-75zM300 600v75h75v-75h-75zM400 700v75h75v-75h-75z" />
<glyph unicode="&#x2000;" horiz-adv-x="550" />
<glyph unicode="&#x2001;" horiz-adv-x="1100" />
<glyph unicode="&#x2002;" horiz-adv-x="550" />
<glyph unicode="&#x2003;" horiz-adv-x="1100" />
<glyph unicode="&#x2004;" horiz-adv-x="366" />
<glyph unicode="&#x2005;" horiz-adv-x="275" />
<glyph unicode="&#x2006;" horiz-adv-x="183" />
<glyph unicode="&#x2007;" horiz-adv-x="183" />
<glyph unicode="&#x2008;" horiz-adv-x="137" />
<glyph unicode="&#x2009;" horiz-adv-x="220" />
<glyph unicode="&#x200a;" horiz-adv-x="61" />
<glyph unicode="&#x2010;" d="M100 200v75h75v-75h-75zM200 200v75h75v-75h-75zM300 200v75h75v-75h-75z" />
<glyph unicode="&#x2011;" d="M100 200v75h75v-75h-75zM200 200v75h75v-75h-75zM300 200v75h75v-75h-75z" />
<glyph unicode="&#x2012;" d="M100 200v75h75v-75h-75zM200 200v75h75v-75h-75zM300 200v75h75v-75h-75z" />
<glyph unicode="&#x2013;" d="M100 200v75h75v-75h-75zM200 200v75h75v-75h-75zM300 200v75h75v-75h-75z" />
<glyph unicode="&#x2014;" d="M0 200v75h75v-75h-75zM100 200v75h75v-75h-75zM200 200v75h75v-75h-75zM300 200v75h75v-75h-75zM400 200v75h75v-75h-75z" />
<glyph unicode="&#x2018;" d="M200 400v75h75v-75h-75zM200 500v75h75v-75h-75zM300 600v75h75v-75h-75z" />
<glyph unicode="&#x2019;" d="M200 400v75h75v-75h-75zM300 500v75h75v-75h-75zM300 600v75h75v-75h-75z" />
<glyph unicode="&#x201a;" d="M200 -25h75v-75h-75v75zM300 0v75h75v-75h-75zM300 100v75h75v-75h-75z" />
<glyph unicode="&#x201c;" d="M100 400v75h75v-75h-75zM100 500v75h75v-75h-75zM200 600v75h75v-75h-75zM300 400v75h75v-75h-75zM300 500v75h75v-75h-75zM400 600v75h75v-75h-75z" />
<glyph unicode="&#x201d;" d="M100 400v75h75v-75h-75zM200 500v75h75v-75h-75zM200 600v75h75v-75h-75zM300 400v75h75v-75h-75zM400 500v75h75v-75h-75zM400 600v75h75v-75h-75z" />
<glyph unicode="&#x201e;" d="M100 -25h75v-75h-75v75zM200 0v75h75v-75h-75zM200 100v75h75v-75h-75zM300 -25h75v-75h-75v75zM400 0v75h75v-75h-75zM400 100v75h75v-75h-75z" />
<glyph unicode="&#x2022;" d="M0 200v75h75v-75h-75zM0 300v75h75v-75h-75zM0 400v75h75v-75h-75zM100 200v75h75v-75h-75zM100 300v75h75v-75h-75zM100 400v75h75v-75h-75zM200 200v75h75v-75h-75zM200 300v75h75v-75h-75zM200 400v75h75v-75h-75z" />
<glyph unicode="&#x2026;" d="M0 0v75h75v-75h-75zM0 100v75h75v-75h-75zM200 0v75h75v-75h-75zM200 100v75h75v-75h-75zM400 0v75h75v-75h-75zM400 100v75h75v-75h-75z" />
<glyph unicode="&#x202f;" horiz-adv-x="220" />
<glyph unicode="&#x2039;" d="M100 200v75h75v-75h-75zM200 100v75h75v-75h-75zM200 300v75h75v-75h-75zM300 0v75h75v-75h-75zM300 400v75h75v-75h-75z" />
<glyph unicode="&#x203a;" d="M200 0v75h75v-75h-75zM200 400v75h75v-75h-75zM300 100v75h75v-75h-75zM300 300v75h75v-75h-75zM400 200v75h75v-75h-75z" />
<glyph unicode="&#x205f;" horiz-adv-x="275" />
<glyph unicode="&#x20ac;" d="M0 200v75h75v-75h-75zM0 400v75h75v-75h-75zM100 100v75h75v-75h-75zM100 200v75h75v-75h-75zM100 300v75h75v-75h-75zM100 400v75h75v-75h-75zM100 500v75h75v-75h-75zM200 0v75h75v-75h-75zM200 200v75h75v-75h-75zM200 400v75h75v-75h-75zM200 600v75h75v-75h-75z M300 0v75h75v-75h-75zM300 400v75h75v-75h-75zM300 600v75h75v-75h-75zM400 0v75h75v-75h-75zM400 600v75h75v-75h-75z" />
<glyph unicode="&#x2122;" d="M0 600v75h75v-75h-75zM100 400v75h75v-75h-75zM100 500v75h75v-75h-75zM100 600v75h75v-75h-75zM200 600v75h75v-75h-75zM300 400v75h75v-75h-75zM300 500v75h75v-75h-75zM300 600v75h75v-75h-75zM400 500v75h75v-75h-75zM500 400v75h75v-75h-75zM500 500v75h75v-75h-75z M500 600v75h75v-75h-75z" />
<glyph unicode="&#xe000;" horiz-adv-x="475" d="M0 0v475h475v-475h-475z" />
</font>
</defs>
</svg>
