<?xml version="1.0" standalone="no"?>
<!DOCTYPE svg PUBLIC "-//W3C//DTD SVG 1.1//EN" "http://www.w3.org/Graphics/SVG/1.1/DTD/svg11.dtd" >
<svg xmlns="http://www.w3.org/2000/svg">
<metadata></metadata>
<defs>
<font id="lilac_malariaregular" horiz-adv-x="1083" >
<font-face units-per-em="2048" ascent="1638" descent="-410" />
<missing-glyph horiz-adv-x="569" />
<glyph horiz-adv-x="2048" />
<glyph horiz-adv-x="2048" />
<glyph unicode="&#xd;" horiz-adv-x="569" />
<glyph unicode=" "  horiz-adv-x="569" />
<glyph unicode="&#x09;" horiz-adv-x="569" />
<glyph unicode="&#xa0;" horiz-adv-x="569" />
<glyph unicode="!" horiz-adv-x="510" d="M165 887l-3 4v33q-3 51 -3 112v160l25 -5l-19 105h-6v60h25q30 41 98 75l35 -35h22v-22l3 -3h-3v-220h3v-120q0 -40 -60 -40l-3 -3v-112l20 20h20l20 -20v-20q-2 -3 -3 -6q6 -8 6 -19q-13 -4 -22 -12q-18 -31 -32 -54q-6 -24 -6 -54q0 -40 60 -40v-160l-40 -40h-100 l-40 40v240l19 29q-11 44 -16 107zM220 216q27 15 62 15l15 -15h2l40 -40q-27 -140 -80 -140l-20 20h-20l20 20v20l-7 42q-10 -19 -10 -47h-60v60q22 45 57 64v1h1zM250 1178l9 -2l12 67q-10 -29 -21 -65z" />
<glyph unicode="&#x22;" horiz-adv-x="705" d="M283 1453l55 -55v-136l-27 -164l31 -87l-106 -102q-164 121 -118 435zM426 1076l1 -4l40 -80l81 59l-77 33l1 88l-31 -17zM555 1449l55 -55v-136l-27 -164l27 -137l-123 -6q-97 -21 -97 389z" />
<glyph unicode="#" horiz-adv-x="1139" />
<glyph unicode="$" horiz-adv-x="1139" />
<glyph unicode="%" horiz-adv-x="1821" />
<glyph unicode="&#x26;" horiz-adv-x="1366" />
<glyph unicode="'" horiz-adv-x="455" d="M283 1453l55 -55v-136l-27 -164l27 -137l-27 -27q-193 0 -193 410zM137 1256v-4l25 -80l92 59l-71 33l17 88l-34 -17z" />
<glyph unicode="(" horiz-adv-x="682" />
<glyph unicode=")" horiz-adv-x="682" />
<glyph unicode="*" horiz-adv-x="797" />
<glyph unicode="+" horiz-adv-x="1196" />
<glyph unicode="," horiz-adv-x="455" d="M338 153q0 -410 -192 -410l-28 28l28 136l-28 164v136l55 55zM235 173l-34 17l17 -88l-71 -33l92 -59l25 80v4z" />
<glyph unicode="-" horiz-adv-x="580" d="M217 852h100q47 -60 200 -60l20 -20v-20l-40 -40h-160l-80 -20q-80 60 -180 60l-20 20v20q13 60 160 60z" />
<glyph unicode="." horiz-adv-x="463" d="M296 241q84 7 71 -78l20 20h20v-60l-60 -60h-60l-34 34q-41 18 -41 40v20q14 72 84 84z" />
<glyph unicode="/" horiz-adv-x="569" />
<glyph unicode="0" horiz-adv-x="949" d="M669 1166q13 -28 26 -61q160 0 160 -200q-80 33 -80 120h-20l-60 -40h-20l20 100q-112 0 -119 87h-26v18l-75 15h-20l-100 -60l-103 34q8 -27 58 -27v-40q-65 -170 -110 -237l-5 -50v-20h-20q-28 12 -48 24q-37 -10 -37 -57h-40v20l20 160l7 -1q61 159 96 200 q20 112 157 181q1 -1 3 -1q10 7 22 14h40l60 -40q31 0 38 36q-3 6 -3 11v20q148 0 280 -220zM73 527l-18 18l20 80l-20 80q0 40 60 40q91 -38 100 -80v-60l-65 -97v-83h5q0 -55 57 -72l38 19l9 -27h16q39 -134 140 -180h15v7h20l9 -7h76q27 16 47 32q128 219 128 335v220 l20 200h20q140 -80 140 -180h-20l-60 20q-11 -4 -22 -47h7l80 -80v-40l-20 -20l20 -20v-20q-20 -80 -80 -80v-40l60 -80l-40 -40h-40q-24 0 -39 69q-3 -30 -6 -62q-45 -22 -65 -57l90 -90v-20q0 -29 -65 -57q-45 -76 -140 -76l-40 40h-20q0 -60 -40 -60q-82 0 -147 33h-8 l-10 10q-67 40 -115 117l40 60q-5 6 -11 11q-98 65 -104 133q-45 76 -45 136zM281 198l-9 -53h43l14 -14l1 1h20l5 -1v34q-40 16 -74 33zM208 1076l4 -33q16 9 38 9v20q-25 0 -42 4zM648 1212h22q-16 8 -30 17q4 -8 8 -17z" />
<glyph unicode="1" horiz-adv-x="565" d="M239 991l-28 74q4 90 13 152v14h2q21 134 65 134h20v-134h13l60 -60v-20l-70 -153q36 -87 60 -187h10v-48q4 -19 7 -38v-20q0 -18 -7 -30v-244l-21 -12l28 -28v-266h-38l-77 76v152l40 39l-72 -41v-199l27 -27v-43q19 -11 53 -11l60 20v-20l-60 -60l-65 54h-28l-6 28 l-21 18v340h16l11 114v20l-5 26h-22v140h40v-33l27 27v20l-40 60l13 26h-40zM328 562l-4 29l8 55q-10 -1 -21 -1zM331 535v-30q-44 -44 -64 -83l17 -11l60 20zM254 1126l-3 -1q7 -11 13 -23v9z" />
<glyph unicode="2" horiz-adv-x="978" d="M165 1084q-10 -19 -33 -19h-20l19 31l-12 12v40l40 40h20l3 -7l50 84h20v-40h7v103h40l14 -41q52 67 116 88l10 13h60q34 -4 65 -11l8 8h20q96 0 162 -92q105 -86 105 -245l-24 -20l-3 -3l-80 -67l40 -13l60 60l20 -60q-47 -140 -80 -140l-30 6l-63 -63l-30 37 q-43 -68 -97 -80l-13 3v-20q-119 -95 -200 -223l-87 -280h107v3h200l180 -60l60 20l20 -20v-60q-54 0 -120 -60h-40q-163 0 -277 7l-10 -10h-220q0 60 -40 60h-20v-60h-20l-40 40l60 60v19q-13 4 -33 4l-20 20v20h20l-20 20v20l40 40h20q0 -19 1 -35l32 32l-40 40q3 12 6 23 h-19l40 80h40v-10l10 -10q19 79 80 137h-37v20q53 74 137 154l-10 29v20q60 0 140 80l8 -8q94 75 211 155l-39 13v120q30 0 37 -44q12 21 56 21q-10 83 -26 123h-7l-80 -60q-40 37 -77 67l-30 10q-200 -12 -200 -40l-40 -80h-60l-40 27l27 -64v-20h-40q0 45 -34 56zM389 617 q-18 -12 -37 -12v-20l4 -18q21 11 43 21zM771 1040l-53 -13q1 -9 1 -19h20z" />
<glyph unicode="3" horiz-adv-x="978" d="M833 356l-11 11l-50 -42l20 -20h20zM600 866q2 0 5 1h-3q-1 -1 -2 -1zM132 225l80 -100v-20h-20l-100 100l20 20h20zM485 1142q14 19 27 43q-120 0 -120 40v40l37 9l-7 33h-60l-24 3q-15 -15 -22 -49l26 26l40 -40v-20l-40 -40h-20l-38 38h-52l-120 100q42 16 110 26v16 h20l44 -9q71 6 164 7l12 2h120l8 -2h82v-15l50 17v-20l-50 -50v-12h40l80 60h20l40 -40q-4 -55 -196 -184q-17 -27 -35 -45l-49 -131h-20l-23 28l-67 34v-20l80 -80l90 15v3h18l12 2l3 -2h7q185 -90 227 -338h3v-17q10 -67 10 -145q-20 -120 -100 -200l20 -20l-132 -132 l2 -6l-20 -12l-30 -30h-20l-30 -18l-15 15q-88 -7 -135 -36l-54 17l-16 -16h-20l-40 40l40 100h-48l-2 -2h-40l-2 2h-8q-32 0 -65 80l-45 49q-110 36 -110 71v20l17 10l-7 8l120 60q56 -68 60 -131q20 -29 39 -52q62 -29 78 -67q17 -8 33 -8l140 -17q10 15 30 15h8l42 42h34 l-4 18l35 35l55 147v60h40q10 -80 60 -80l29 29q-23 168 -69 250v-79l-40 -40h-20l-40 140l20 20h40l39 -39q-44 77 -109 77v2h-10q0 22 -2 40q-15 18 -48 18l-20 20v36q-91 -50 -178 -54l-22 -22q-40 10 -64 22h-6l-8 8q-15 9 -20 20l-32 32l151 211q-1 3 -1 7q4 1 7 2 l43 60zM102 1307h20l80 -80v-40h-40l-60 60v60zM252 65h20l40 -40h-60v40z" />
<glyph unicode="4" horiz-adv-x="1065" d="M93 245v-20h60v60h-20zM468 1308q11 -3 25 -3l20 -20v-20q-8 -86 -56 -153q-26 -104 -51 -151l7 -36h-20q-7 0 -13 2q-8 -6 -16 -6l-20 20v20l-60 -20l20 -70l69 14v-20l-60 -100l20 -60l-120 -320l60 -20l20 20h40q3 -3 6 -5q12 1 25 1h40l229 -7l13 228q12 142 -68 142 l29 149q38 123 54 219h40l-19 -60q33 4 48 4h20v-213l8 -119l-11 -88l-12 -208l20 158l47 -188v-34l102 -23l60 20l3 -3l6 7l40 -60v-40q-32 -80 -140 -80h-53l-7 -2q-2 -38 -13 -147q-9 -83 -107 9h-20q-40 0 -60 180l20 20h20q40 0 40 -60l20 -20h20q0 37 51 40l-86 100 h-25q-3 0 -6 -1l-3 -3l-10 2q-101 -15 -101 -58l20 -60h-60v20l20 60h-20l-80 20q-36 -17 -69 -31v-13q60 0 60 -40l-20 -20h-280v5q-16 -1 -31 -1h-20l-40 40v40q22 23 41 46q-33 -10 -70 -10v20q0 87 90 255q7 68 104 216l-14 69q75 253 138 372q52 132 71 132h40 q0 -14 3 -24h48v-20q-8 -6 -16 -13zM324 238q-50 -19 -94 -31l34 -6l60 20v17zM129 541l-16 -16h-9v-44l40 -40l40 100h-55zM210 587q2 9 3 18l-16 16h-13v-60zM402 1245q-18 -20 -30 -40h61v40h-31z" />
<glyph unicode="5" horiz-adv-x="890" d="M629 770l60 -60v-60h-20q-91 38 -100 80zM670 209q18 17 32 41h-33v-40zM766 285l23 -35l-1 -1l12 -12q-27 -82 -100 -120h-35q-42 -23 -96 -87l-120 -20h-40q0 40 60 40q0 20 -62 54l-147 -67l20 100q0 43 -171 59v-46l-40 40v20h18l-7 7v20q0 28 88 67l-99 66v20l60 60 l53 -140q8 3 18 7q0 -56 109 -134v7l131 -29l40 16v-25l9 -2q0 60 40 60h20l20 -20h20l20 20l-20 20v20l151 167v40l-40 60l27 35l-58 58l20 20q42 -8 71 -17v4l-60 60l20 20v20l-40 60v20h60q63 -112 87 -219q2 -4 2 -8v-3q11 -56 11 -110v-80zM69 709v21l40 40h6l5 7l7 -7 h2l40 -40l-9 -6v-7l-40 -40h-20l-13 13h-18v7h-9zM632 1373l17 17h20l20 -20v-20q0 -4 -2 -9q13 -4 33 -4l20 -20v-40l-20 -20v-20l-100 40l-340 -80l-13 13h-18q-40 0 -40 60h-20v-220l-20 -20v-20q-3 1 -6 3l37 -56l-20 -100h20l49 12v61l11 11v16h16l13 13h160 q185 -40 200 -100v-20h-120l-249 -77v-16h-40q0 80 -60 80l-100 -20q-40 87 -40 320v180q8 37 67 51l22 22h120l120 -20l20 20h20l180 -20h22zM149 130h20l40 -40l-20 -20h-20l-20 20v40z" />
<glyph unicode="6" horiz-adv-x="977" d="M128 450h20l40 -40v-60h-20l-40 40v60zM700 352h-10q13 160 60 160l20 -20v-62h18l80 -80v-60l-40 -40l-18 12v-30q-20 -41 -48 -74l26 -8v-20l-120 -80h-40q-22 0 -32 30l-86 12l-80 -80l-60 60v20q13 120 60 120q21 -24 119 -41l39 39l125 -37q14 99 57 99h25l-27 18 l-60 -40l-40 40q17 36 32 62zM868 490v60h40v-60h-18v-38l-40 -40h-20v40zM345 938q10 12 23 12l40 -40h60v20h-40v40h24l-2 2v20h20q45 -40 220 -60q140 -100 140 -200l-20 -20h-20q-25 22 -44 42q-45 -16 -138 -24l-40 50l-116 44q-48 -41 -124 -74l-20 20v5 q-28 -17 -51 -34l11 -11v-20l-106 -160q-17 -58 -52 -58q-40 0 -40 160l-60 20v40h60l18 -12v10l100 80h1l81 162q43 -4 75 -14zM437 1170h11v-20q-5 -47 -149 -110l-9 -8h-11q-48 -20 -111 -42q-20 -180 -100 -180l-20 20v60q13 22 25 42h-23v60h40v-33q105 162 198 211 q0 31 13 60q-14 2 -31 2v20l40 40l18 -18q27 32 72 61l30 37l30 -4q48 22 108 42v-58h42v-20l-106 -99q11 -3 24 -3v-20q-27 0 -49 -1zM228 290l80 -80v-40l-40 -40h-20z" />
<glyph unicode="7" horiz-adv-x="853" d="M251 1261h2v9zM358 344q7 8 15 17l50 116l-27 5zM528 1281l15 -9q-5 5 -10 9h-5zM199 1339l54 -54v36zM712 1378q1 11 1 23h40l100 -120l-81 -70l-59 -67v-63l40 -60q-22 -134 -200 -320q-16 -135 -39 -220l2 -19h-8q-31 -105 -75 -121q-34 -255 -97 -293v-6h-13 q-5 -1 -10 -1v2q-97 7 -97 79q68 241 120 300q0 100 70 159l-13 20l43 9v32l-20 20h-20q65 168 106 195q3 7 6 13l-12 12v20l60 180h40l-12 -61l64 166l-12 35q-19 4 -40 14v-14l-20 -20h-140q0 18 -3 33l-40 26h-100l-51 -34l-6 -25h-140l-60 60l48 8l-11 11l60 20l-3 16 l-34 45v20h21l-4 19h80q29 -28 63 -47v28l100 -20l140 20v-40h-40v-15q64 15 157 74l20 -20l-20 -60l20 -60h3v41z" />
<glyph unicode="8" horiz-adv-x="870" d="M473 1402q155 -50 180 -120v-40h-40v-40q119 -99 160 -220l-60 -80v20q-80 -20 -80 -120v-40q59 0 100 -80v-20h-80q0 45 -80 80h-40v-80h-80l-60 40h-100q-120 -49 -120 -120l40 -40v-40q-140 0 -140 -100l40 -40l20 20h60q0 -160 220 -200h40q144 0 160 100h20l40 -40 v-40l-20 -20v-20h20l40 40v60l-40 60v40q40 260 100 260h20l40 -180v-40q-75 -400 -380 -400h-80q-248 0 -340 380v20q0 234 120 300l40 40l-100 140l20 80l-20 200q65 145 140 160l60 -20q173 54 180 100zM513 1322v-80h40l40 40v20zM213 1262q-60 -74 -60 -140v-80 q0 -35 100 -60q0 -57 120 -160q220 47 220 180l20 60q0 60 -200 200l-100 -20zM653 662l40 -140l-20 -20h-20l-80 120v20zM173 282v-40h-20l20 -20v-40l-20 -20v-20l20 -20h20q0 50 80 60q0 30 -80 60v40h-20zM473 142l20 -60l100 20v20l-40 40zM313 122v-40h100l-40 40h-60 z" />
<glyph unicode="9" horiz-adv-x="1003" d="M489 1302l-40 40h-20v-20l10 -10zM110 742v-60l40 40l-20 20h-20zM509 1402q95 0 180 -140q160 0 160 -60v-20l-17 -17q18 -43 18 -103h40v-40q-28 -1 -46 -21l24 -93l42 34h20v-80q0 -82 -9 -152l8 -8q0 -119 -88 -238q-23 -37 -52 -67q-6 -67 -160 -235l-60 20 q0 -34 -160 -100l20 -20v-40h-80l-20 20h-19v19l-1 1q0 5 1 10v10q3 2 5 4q8 14 26 22q162 138 239 246l26 40q14 25 24 48v20l-61 -7v-13h-200q-22 15 -42 30q-118 55 -257 210q-60 20 -60 120l40 60l-20 140v80q0 35 41 50q37 77 65 108l-6 42q95 74 180 103q22 9 56 14 q22 3 44 3h99zM199 1239l50 -37q0 70 60 79l1 1l-40 40l-60 -60h-20q5 -12 9 -23zM145 831q-23 48 -41 88l6 -37l-20 -60h20zM186 1046l-16 -24l-40 40l-21 -21v-39h60zM679 1131l-9 -9q-104 94 -224 100q-257 -42 -257 -360l60 -160l-20 -60h1l80 20q27 -22 141 -40h18 q115 0 192 45l89 115l-20 20v200l-20 20v20l30 30q-31 33 -61 59zM567 1320q11 -9 22 -17v19h-20z" />
<glyph unicode=":" horiz-adv-x="569" />
<glyph unicode=";" horiz-adv-x="569" />
<glyph unicode="&#x3c;" horiz-adv-x="1196" />
<glyph unicode="=" horiz-adv-x="1124" />
<glyph unicode="&#x3e;" horiz-adv-x="1196" />
<glyph unicode="?" horiz-adv-x="881" d="M357 1285h44v14q-25 -1 -44 -14zM301 525h20l40 -40v-40l-40 -40l-60 60v20zM166 999l20 -20v-20l-20 -20h-40v20zM627 980l-21 -21l-20 20v60h20l11 -11q-10 67 -16 177h40v52l-175 -78h-40l-40 40l7 7q-14 -1 -32 -1q-24 -47 -54 -66q-1 -10 -1 -20q-21 -29 -45 -51 v-63l-40 -40l-38 54q-36 -15 -77 -20l-20 20v20q0 32 35 83v3q2 1 3 2q46 65 147 161q-30 9 -30 37l60 40h20l5 -26h75v46h20l80 -40l80 20q220 -113 220 -340q-53 -81 -75 -208q0 -2 -1 -6l-4 -26l-20 -16q-53 -70 -215 -210h-20l-40 40q6 44 69 112l-14 14v60h20l34 -34 q15 14 31 28q0 128 60 140h16q-8 14 -15 41zM394 91q7 14 7 34l20 20h20v-60l-60 -60h-60l-34 34q-41 18 -41 40v20l60 60z" />
<glyph unicode="@" horiz-adv-x="1124" />
<glyph unicode="A" horiz-adv-x="1032" d="M54 114h24l48 -48v-24l-48 -48h-24l-48 48v24zM153 634q209 646 333 728h48q62 0 120 -192l-72 -72v-48l9 -9q26 69 57 69h24l12 -36h18l48 -144l-7 -34l25 -74l-24 -24q62 0 123 -228h3l48 -48v-48h-24l-12 12h-18l24 -72l-14 -62q59 -85 140 -166v-96l-72 -72l-72 72 v48l24 24v24l-50 30l-4 -18l24 -24v-24h-24q-33 48 -384 72l-72 72h-72q0 -29 -18 -57v-3h-2q-38 -56 -148 -108h-24q-96 48 -96 144l30 85v47l24 24v24l7 -7zM372 816l-6 -6h-5l-25 -12l-42 84v-24q16 -64 120 -120l-24 -96h-48v48h-48l-42 -42l84 -42l-21 -129l3 -3v-48 h-24l-72 24v-24l-6 -12h144l96 -72h72l30 11v97h48l72 -48l41 14l-47 94l24 24h9l-60 144h-45l-24 96l13 39l-79 189l24 72h-48l-8 -4l26 -128q-48 0 -48 72h-24l-24 -72l24 -96zM174 462h-54v-36h54v36z" />
<glyph unicode="B" horiz-adv-x="935" d="M453 1362q267 0 336 -216v-72l-72 -96l96 -240l-48 -48l120 -192q-160 -157 -168 -240l24 -144q0 -48 -264 -96h-408l-48 48h48v48h-48v120l120 120h72v-24l-48 -96l24 -72h120q49 72 336 72l120 240v24q-64 0 -192 144l-48 -48h-120l-48 48l72 24l72 -24l24 24v96h-48 v48h72l24 -24h24q72 72 96 264l24 24q-62 192 -216 192h-48q-126 -127 -240 -144l-48 -192q72 0 72 -48t-120 -48v-24l96 -48l192 48v-48q-288 -103 -288 -240l-48 -72h72v-48l-48 -48h-24l-48 48v24l24 240l-24 192l48 144l-24 312z" />
<glyph unicode="C" horiz-adv-x="948" d="M526 1362q182 0 264 -168q71 0 120 -96v-48l-72 -72l-96 168l-240 72q-264 -191 -264 -384q-60 0 -72 -96q72 -323 192 -504l-24 -72h48v48h72q312 -70 312 -144l-264 -48l-24 24l-72 24v24l-24 -24h-72l-168 240q-120 0 -120 408l48 48v24l-24 120h24l24 -24h24l48 144 h-72q83 336 432 336zM118 666l-48 -144h24q55 0 72 120l-24 24h-24zM910 354v-48l-96 -120h-72l-72 72q89 83 240 96z" />
<glyph unicode="D" horiz-adv-x="974" d="M161 516q-6 -9 -13 -18v-48h4q7 33 9 66zM306 159q-27 11 -61 24l13 -29h48v5zM208 1305q2 -10 2 -23l15 3l-5 5v24zM810 364q-2 -50 -31 -82h17l24 72zM930 607l10 -85q-78 -305 -144 -312h-72l-37 25q-40 -9 -93 -9q0 -18 -12 -33q10 -55 94 -55v-48l-312 -72v48h48v24 q0 12 -27 29q-46 -7 -103 -13l-24 -24l24 -24v-48h-72l-8 8h-102l-13 13l-21 -21h-24l-24 24v96h48l4 -16h6l86 -25v89l24 24v3q-7 3 -14 5l-19 19q-5 0 -10 2l-67 -45h-24v192q0 93 79 225l-41 55v201l-38 -25l-24 24v88h-10v72h26l8 8l-24 24v168q15 144 72 144h168 l75 -56q24 -1 52 -6l41 14l30 -30q9 -2 19 -5q9 35 71 35q215 -52 292 -195q5 -2 10 -5l12 -43q8 -24 14 -51l46 -170l-21 -63l10 -88l11 -65v-27zM170 1127l16 -109l-48 -48v-24l4 -18q78 -7 78 -46v-168q0 -47 -10 -89v-87l-11 -98q21 -12 21 -38v-159l4 -10l68 -23 q16 2 32 5q11 11 30 11l11 -4q272 52 338 184q9 76 22 120q6 166 94 185l14 83l-13 88v146q-55 58 -192 114v-20h-24l-360 24q-43 0 -74 -19zM154 882l18 -72v72h-18z" />
<glyph unicode="E" horiz-adv-x="947" d="M135 1355l7 7l14 -14l61 -20q-2 5 -3 10l77 -15v36h48l192 -24l192 24l7 -9l84 12q96 -36 96 -72v-24l-120 -120h-87l-4 -3l-30 3h-23v2l-187 19l-93 -10l-8 -11h-48q-6 0 -12 3l-55 -6q0 144 -144 144l-3 3h-2v2l-19 19v24l24 24h24zM891 111l24 -24v-24l-24 -24h-48v24 zM118 1103v19l48 48l48 -48l-7 -39l12 -12v-96l-19 -28l14 -41l-23 -23l38 -38q12 13 33 13h144q18 0 29 -13l168 -14h67v27h144l7 -7l22 4v-24l-1 -1l20 -20l-24 -24h-24l-4 1l-39 -52h-227q6 -9 6 -21v-24l-48 -48h-229q-24 -3 -53 -3l-1 -1v-23q0 -328 -72 -408 q36 -96 72 -96h256q-66 41 -213 75v24l24 24l24 -24h48l65 9l12 12h70l21 3l24 -24v-24l53 18v27h82l9 3h120l5 -3l67 -45q0 -105 -193 -134q-67 -37 -162 -37h-384l-44 9l-9 -6h-24l-15 16l-28 5v22l-5 5v168l5 5v64l75 75h-8q-72 24 -72 144l67 67q-17 2 -38 2l-24 24v96 q0 42 56 47l-13 52v24l4 6l-47 63v240h48q0 -29 43 -40z" />
<glyph unicode="F" horiz-adv-x="916" d="M477 1343v19l72 -24l216 24v-18q110 -27 110 -64v-38h10v-24l-48 -48h-24l-34 -34l-72 24l-384 -24l-24 24v128l-46 -12l22 -44q-24 -96 -96 -96v-110h10v-168h288l120 -72l51 13l-13 25v24h24l72 -72v-4l10 -10v-48l-72 -72h-58v-10l-170 10h-60l-42 6l-136 8l-14 -84 v-506l-72 -71l-48 47l48 72l-45 78q-85 20 -85 56v264h48q0 -55 24 -79l35 140q-42 82 -83 275l-24 24l96 264v192l82 -16v26l240 24v-14zM365 1304l-18 -4v-116h24l120 24v48l-48 48h-78z" />
<glyph unicode="G" horiz-adv-x="973" d="M580 738l24 -24v-144h-72v120zM359 95l53 -53l-24 -24h-24l-68 68l-16 -2l-24 24v24l120 48l72 -24v-48zM76 660v6q48 96 144 96v-144l-48 -48h-34q24 -46 70 -102l-20 -20q8 -30 8 -70v-72h-72q-6 2 -12 5v-59l-48 48v24h28q-40 36 -40 126v24l44 44l-80 94l48 48h12z M725 644q-37 28 -73 70l24 24h24q40 -11 74 -21l10 15h48l52 -52q56 -23 56 -38q0 -34 -36 -44v-106q0 -40 -2 -76l38 -38l-52 -73q-15 -75 -44 -127v-40l-24 5q-64 -83 -180 -83l-24 24v18l-60 60l48 48l13 -4q52 110 111 117l8 19v150l-48 72v24zM592 1207v53 q-62 -19 -117 -47l57 -19q34 6 60 13zM496 1350l12 12h144q192 -99 192 -144v-24l-52 11l88 -89v-48h-24l-192 72h-120v6h-36l-167 -24q-93 -81 -157 -198l-78 59l-6 -5q0 -72 -48 -72v48q0 41 12 78v36q13 9 25 18q36 59 107 108l13 -13q42 36 76 69q-8 8 -17 16l48 48h28 q18 22 32 42h120v-6zM759 1211l-14 3l-9 -26zM634 1308l-6 6h-120l-28 -28l112 22h42z" />
<glyph unicode="H" horiz-adv-x="1008" d="M109 7l-72 72v264h24l11 -10l-16 82h48v-48q72 0 72 -48v-24l-22 -33l99 -87h-48l-72 24l-3 -3l70 -93v-48l-48 -48h-43zM107 789l39 -6l78 16v72l-96 24zM121 1231q-8 52 -12 120l24 24h24q60 0 96 -192v-72l-48 -48q-31 0 -53 47v-71q120 -17 120 -72v-120h197l90 -72 h54q-72 0 -72 48l24 24h192l45 113l-26 79q18 18 29 65v151l18 18q1 36 1 78l24 24h48l72 -72v-120l-5 -35l10 -13v-24l-18 -24l-30 -228l24 -36v-24l-24 24h-5l72 -168v-312l-48 -48v24l-72 -24v-24l53 -53v29h48v-77l19 -19v-48l-96 -96h-24q-48 0 -48 192l-18 18l23 -162 h-24l-48 48v120h43l-24 24v48h-19v48l19 29v67l10 124l-29 44v24l36 14l7 82q-40 0 -47 50q-21 -2 -44 -2v-168h-437l-19 -95v-73l-48 -48l-72 72v45q-77 21 -77 51v24h-19v48l24 24l-24 24v120l20 -3l23 363l-24 72h65z" />
<glyph unicode="I" horiz-adv-x="635" d="M298 145l18 126v34l-18 -18v-142zM368 289l-4 -18l5 -14q1 14 1 30zM302 93l-10 10l6 40h-48l-48 48v120l48 72v48l-48 72v115l-6 13v312q33 251 102 327v1l72 96l48 -72v-24l-72 -72h-3l-3 -16v-24l72 -96v-48l-48 -48l-72 48l-24 -24v-91q47 37 126 59h24v-24l-48 -72 v-24l48 -72h-24q16 -39 18 -98l6 2v-24l-6 -6v-150l6 -36l-11 -11l-23 -93l34 -136v-24q0 -32 -7 -60l1 -4q-4 -10 -9 -19q-8 -21 -20 -38q-34 -55 -67 -63l-1 1q-8 -5 -17 -9l-48 48q30 21 52 46z" />
<glyph unicode="J" horiz-adv-x="1016" d="M104 391h1l24 -24q0 39 3 69l-21 -21h-24zM173 295l4 24v24q-19 0 -31 -11zM753 967l-24 24v216q18 144 72 144v-72l-24 -24v-24h6q28 0 39 -24h3q9 42 18 71l-36 49h48l6 -6q17 30 36 30l24 -24v-48q-3 -6 -7 -11l37 -37v-432l-48 -72l48 -72v-216h-6l-72 -24l24 -120 l-48 -48v96q-10 -4 -19 -7q-37 -191 -128 -271l3 -10h-15q-62 -48 -147 -48h-144l-48 48l24 24h24l24 -24h24l72 24v4l-6 -4h-72l-72 48l-52 -34l10 -14v-24h-24q-74 0 -139 109l-11 11l1 6q-21 39 -42 90h-31l-24 96l16 16l-10 32v72l48 48l36 -24q12 24 30 24q46 0 71 -91 l7 -5v-24q12 -58 18 -144l-34 -68l37 -52q45 2 45 72l6 6v18l16 -2l2 2h24q18 0 29 -10l97 -14l94 23q91 84 148 119l-2 2v72h-6v72l6 6v36l-6 6v192h24q27 -15 51 -29l75 125v72q-47 0 -78 5v-5l-48 -48h-24v72l10 10q-4 6 -4 14h18z" />
<glyph unicode="K" horiz-adv-x="980" d="M192 1167l-44 88v24h24l5 -5l-6 40l24 24h24l24 -24v-106l1 -1v-48h-1v-13h-48zM174 393q-12 -2 -26 -2v-18zM225 114l-5 -35h-72l-72 288v24q0 48 168 72q0 -37 -25 -55v-6l-48 -96l25 -67v32h48v-24l-14 -98l13 -35h-18zM416 858q43 4 43 72l-12 21zM556 643l-1 -1 l1 -1v2zM549 888l121 -222h5l-2 -6l147 -269l-12 -61q47 -49 107 -96l5 -26q44 -68 44 -129l-25 -17v-20q-18 0 -33 -2l-14 -9h-23q-26 -12 -26 -37q-77 0 -168 216l24 120q-25 6 -76 78l-43 -17q-120 186 -144 336l-34 11q-70 -39 -168 -130l10 -49h-48q-14 26 -26 50 q-95 62 -95 177l48 72v24l-27 89l-44 44v24l18 18l-19 65v120l48 48l37 -223q31 -20 61 -63l22 22l24 -24v-72h-4q2 -5 5 -11q426 408 480 408l27 -9l20 20h24l18 -18l7 7l24 -24v-14l23 -23v-24q0 -13 -23 -31v-4l-170 -157h1zM553 1026l3 13v24h-12l-13 -13v-24h22z M166 889l6 6l-9 9z" />
<glyph unicode="L" horiz-adv-x="1016" d="M192 1197l-14 -14l-96 96l48 48q71 -18 100 -40h10v-9q10 -11 10 -23l-10 -10v-126l-48 -72v-135q27 7 58 7v-24l-58 -77v-44q58 -4 58 -47v-144l-48 -72v-72l48 -72l-24 -24v-24q22 -87 122 -95l12 7h24v-96l96 72v-24l82 64h120v-24l-24 -24v-24l40 -13l22 -3l106 13v3 l-24 72h24q120 -18 120 -72v-24q0 -36 -53 -45l-41 -27h46v-48h-24q-36 0 -77 11l-5 -3h-24l-34 25q-42 19 -88 47h-70q-84 0 -168 -96h-264l-13 16h-25l-48 48v44l-10 12v120l10 15v49q16 19 30 44l-40 60v216l10 15v145q17 31 38 54v170q96 84 96 168v6zM271 178l-34 34 q3 -24 3 -53zM138 501q9 38 16 82q-18 0 -33 3z" />
<glyph unicode="M" horiz-adv-x="1223" d="M57 823h24l72 -72l-72 -72l-24 24v120zM570 593q-32 47 -81 158h-24v-48h-48l-72 168l24 24q-78 0 -96 168h-24q0 -264 -48 -264l-48 432q48 0 48 72h48l240 -312l-24 -24v-24q120 -36 120 -144h1l124 124q13 -49 27 -78q28 13 55 19q12 35 38 35l-12 12l-65 -16l-48 72 l120 96q41 57 77 99l48 97l120 48l72 -72l-9 -9q28 -44 28 -115v-24l-21 -31l2 -13v-57l19 -19v-240h-48v56q-12 -15 -29 -23q-10 -33 -43 -33l-67 67v-135l24 -23l19 19h24l31 -31l46 11l24 -24v-552l-48 -48q-34 0 -92 282l-33 50v72h10q-25 135 -53 316v168h-24 q-14 -110 -288 -384l-48 48v24zM225 631h24l-24 -144l24 -120l-72 -24v-24l24 -240l-72 -48h-48v168l-24 96q108 324 168 336z" />
<glyph unicode="N" horiz-adv-x="1096" d="M911 1277q15 -6 27 -27q16 -7 43 -7v-48l-24 -8q14 -71 14 -196l-13 -13l47 -47v-24l-48 -48l-48 72l36 36h-22l-72 72v192l19 19l-9 17l24 24h24q0 -8 2 -14zM69 139h144v-72l-48 -48h-24q-55 0 -72 120zM842 195l57 76l-72 168h-40l-22 -108v-72q0 -32 77 -64z M139 1125l-56 226l24 24h24l24 -24v-24l-24 -72h24q26 0 38 -29q27 41 44 41q44 -59 80 -110l6 2v-10q12 -17 23 -34q102 -88 145 -196l-21 -21q7 -23 7 -39l-10 -3v-9h22l2 2v46q58 0 138 -200l40 -52l-47 -47l13 -13l192 -120v15q-7 11 -14 21v48q0 14 14 26v34 q96 0 168 72l24 -24v-72q0 -21 -14 -33v-75l-24 -24l24 -24v-42l14 -18q-5 -89 -14 -142v-38q-8 -25 -27 -43l17 -17v-72l-48 -48l-75 90q-37 -6 -83 -6l-216 336l56 42q-114 35 -114 90l59 39q-97 14 -97 93h-1l-9 -36h-14v-12h-48q0 36 -14 68l-8 16q-18 32 -50 60l24 24 v24l-130 80v-68h-72l20 100l-130 80q0 48 72 48q12 27 22 50zM419 840l-14 -5v-24h14v29zM957 787l24 -24v-24l-24 -24h-48v24zM213 646l14 -39v-404h-48l-48 135v269l18 52l-8 8v72l48 48h24v-141zM813 907h24l72 -72l-72 -48l-24 24v96z" />
<glyph unicode="O" d="M532 1233q-9 -13 -19 -26v-24h96v-24l-168 -24v48l-21 -11l19 -19l-168 -192h-24l5 48q-43 -17 -102 -35q-8 -205 -71 -205l-24 24v24l48 216h19q52 116 103 126l24 -24h17l5 42l-24 72q108 96 168 96l5 -1q73 31 165 31v-6h46q18 0 34 -34l16 16q50 0 114 -59 q10 -6 18 -18q50 -52 108 -139l-24 -95l6 -2q3 0 5 -1l83 -28v-107q24 -61 50 -151l-20 -7l42 -167h-48q0 94 -46 96v-42l24 -24v-24l-72 -48h-24l-48 48v18h-2v24l2 6v120l7 7l-57 227l6 6q-22 58 -52 125q-72 51 -221 117zM721 153l8 -50q28 25 53 44q-15 -2 -31 -2z M157 265h-6l-72 264v24l48 48l48 -48l-24 -72l32 -142l18 28l-24 24v24l24 120h24q119 -209 312 -386q30 26 94 44q0 53 144 168l48 144h48v-144l72 -96q-20 -40 -48 -66h2q-66 -102 -216 -168h-24l24 24v24l-12 87l-14 3q-52 -71 -99 -107q-17 -27 -91 -55q-142 0 -308 258 zM716 1201q-12 25 -24 52q6 -24 11 -52h13z" />
<glyph unicode="P" horiz-adv-x="1022" d="M482 1327h-29v48h72v-48h-14l92 -23l96 24h72q69 0 113 -121h1q72 -90 72 -168v-72q0 -204 -144 -288h-48v72h-48l-48 -48l24 -72h-24q-31 29 -90 11l-288 38q0 -46 -30 -93v-4q-4 -3 -7 -7q-15 -20 -35 -40l46 -369l20 8v-96l-72 -72h-72l-48 48v48l6 6v43l48 72v24 l-36 167h-18v85l-18 84v72l24 24l-24 24v96q0 169 33 272l-15 15v115l-18 54v24h24l20 -10q67 81 190 81q0 -48 88 -85q45 26 85 61zM506 1232q17 -4 35 -8l-10 8h-25zM697 1197q44 -6 93 -12l5 23l-24 24h-72q0 -19 -2 -35zM723 883v13q0 38 61 46q5 12 5 25v24 q-28 110 -122 148q-7 -3 -16 -3l-17 14q-38 9 -85 9h-241q-12 -7 -23 -14q-4 -82 -48 -82v-48l48 -72v-24l-34 -57l34 -46v31h120l133 -22q17 23 41 23l14 -14q61 16 103 35l3 3h4q11 5 20 11zM181 1239l62 -31q30 7 59 16l31 31h-72z" />
<glyph unicode="Q" horiz-adv-x="1138" d="M314 1279h24v-24l-24 -120h72q0 72 216 120l24 24h120q48 0 48 -96q168 -60 168 -144l-24 -120q24 -204 96 -288q-120 -102 -120 -336q0 -72 144 -72l-48 -192h-48q-66 0 -72 120q-102 -96 -192 -96l-120 72q-132 -24 -216 -96q-312 270 -312 624v120q132 384 240 384 l-48 72zM506 1183l-24 -24q0 -72 -216 -72q-114 -270 -168 -312v-24l96 -96v-24l-72 -96l24 -24v-24l-24 -24q144 -198 144 -288h48q0 120 48 120q90 -72 168 -72h48l120 24l-24 24v72q66 0 96 120l24 -24h72l-24 120v24q96 0 96 48q-108 342 -240 504h48v48h-48v-48z M578 55h72v-48h-72v48z" />
<glyph unicode="R" horiz-adv-x="1105" d="M113 919v-72l24 24h24q96 -12 96 -72h120l24 -24h24l-24 -24v-96h96q432 72 432 168q-150 384 -312 384l-96 24q-336 0 -408 -312zM905 1015v-24q36 -96 72 -96v72l-48 48h-24zM617 463l48 -48v-72h-48l-48 96l24 24h24zM809 151h48v-72h-48v72zM692 640h96l-48 48z M44 112h48v-96h-48v96zM119 1084v26l45 45q23 41 43 86l-40 13h-72l-24 -168v-64q25 29 48 62zM738 607h-1v-48q44 -108 93 -188q8 -13 15 -25q63 -97 132 -147v-48l-30 15q33 -70 33 -102l-24 -24h-24q-32 104 -75 171l-72 36q-8 28 -16 53q-46 28 -101 28v48l54 54 q-55 129 -105 129l-48 -48h-24l-96 72h-96l-168 -24l22 -64l8 -9q0 -7 -1 -13l43 -130l-69 -86l27 -35v-24h-24q-15 9 -29 18l23 -113l24 24h48v-72h-24l-24 24h-24l-48 -48h-24l-48 48v192l17 26q-11 22 -11 45q0 43 4 82l-10 15l48 192l-48 192v32q-29 69 -42 183v96 l24 96l-24 96l24 24q118 -3 195 -21q8 23 15 46h24l180 -45v54h72q10 -9 23 -18l13 9h120l-12 -59q70 -18 168 -28q192 -160 192 -288q-28 -141 -75 -231q-77 -155 -213 -162v-39z" />
<glyph unicode="S" horiz-adv-x="1105" d="M155 223l48 -48h48l-48 48h-48zM833 1135h-54l48 -48h23q-15 15 -17 48zM335 139l-19 12h-17v-48h72zM185 1135l-24 -60h27l15 60h-18zM545 1381l18 18l192 -48v-48h-192l-29 29l-133 -89l-87 22l-39 -58v-6l35 -35l61 41h48v-48q-42 0 -90 -24v-12h-22q-32 -19 -66 -48 h16v-24l-16 -21q29 -63 58 -63l-24 -24v-18l6 6h24q81 -72 109 -228h53l-24 24v96h48l72 -48l-24 -24v-6l30 -30v-14q234 -21 234 -94l-4 -8q154 -71 154 -100v-24l-120 24l-22 -22l184 -110v-24l-24 -24v-24q-13 0 -26 1q-40 -58 -40 -157l-9 -7q-20 -56 -159 -94v-19 l-168 -24l-45 28l-33 8l-96 -24q-162 42 -288 216v72q4 34 11 60h-29v48l48 48h24l12 -12h6l218 -258q57 -30 148 -66l19 -28l23 -8q0 55 218 85q-13 77 -68 119l24 120v39q-3 10 -6 21q-46 0 -48 108q-11 8 -22 14q-31 3 -60 7l-104 -21l39 32q-77 14 -137 38l2 -22h-24 q-360 168 -360 384l18 43q3 98 76 183l26 62h24l7 -7q27 22 59 43h24l2 -2l124 62h144v-6zM171 943l-10 -12v-120h48q7 0 13 2q-19 48 -19 106l-24 24h-8zM880 310q1 -2 1 -3h6q-3 1 -7 3zM774 1251q16 12 29 28l120 -120v-96l-48 -48h-72q-127 127 -179 142l-127 14v12h-30 v48h72v-1q53 20 174 37q30 0 61 -16z" />
<glyph unicode="T" horiz-adv-x="1121" d="M401 1245l48 -48h24l-48 48h-24zM678 1288q-61 29 -133 29h-48v-24q0 -46 87 -72q38 17 85 34q5 18 9 33zM91 1305l-22 22v24l24 24h72l48 -48v-24l-2 -2l22 -8v24l48 48h4v10h240v-10h193q11 10 23 10h48q22 -5 42 -10h26q186 0 216 -96h-1q5 -7 5 -14q-36 -96 -72 -96 h-18l-10 -10h-24l-10 10h-82l-4 4v-14h-24q-39 57 -85 95l17 -85h-24q-15 0 -28 -2v-8h-30q-38 -17 -38 -62h-4v-286q4 -23 4 -50v-48h-24q-38 0 -67 7l63 -77l-17 -125l45 -45v-168q-7 -6 -14 -13h10v-204l-48 -59q-10 45 -20 86v-2h-48l-72 72v48q30 38 51 122 q-29 78 -55 113l-24 205l72 58h25q-16 8 -27 20h-70v24l24 120h42l34 34h24q25 -10 44 -26v40q-72 84 -129 144l37 -110h-72v144q0 1 1 1q-108 109 -149 109l-216 -24l-48 72v24zM857 1240l52 39h-66l-10 -10l24 -24v-5z" />
<glyph unicode="U" horiz-adv-x="1089" d="M203 224v-72h48v24zM184 1256l-18 47l24 24h24l48 -48v-624l-48 -48q-144 84 -144 312l78 89l-17 224l24 24h29zM482 98l27 -42h30l24 -24h24v54l-13 17l1 1h-84zM905 500l4 36l-23 23h-24l24 288v312l25 25h-12l-48 48l24 24h24l24 -24v-36l59 59l24 -24v-504l-24 -216 l24 -96q-84 -408 -360 -408l-6 8q-37 -7 -77 -7h-60l-1 -1h-24q-148 0 -183 52q-164 23 -164 189l-72 72q42 108 144 168h24q0 -150 120 -264l-24 -24h-24l24 -72l9 3q26 47 26 116l168 -24h48l5 1l128 48h24l-29 -44l20 -52h9l155 44v147zM227 1098l11 13l-11 29v-42z" />
<glyph unicode="V" horiz-adv-x="920" d="M96 1260q96 0 168 -312l-48 -48l24 -24v-72l-72 -72h-48v24l24 24v24q-48 0 -120 288h24l-24 24v96q0 48 72 48zM864 1260h24v-24l-168 -504v-24l24 -24v-24q-102 -384 -144 -384h-24q0 120 -48 120l-48 -240l72 -72v-24l-48 -48h-96l-72 72l24 144q-120 96 -120 240 l24 120l-24 72l24 24h24q96 0 96 -120l72 -192h24q0 102 144 168l24 96q-96 0 -96 48q36 96 72 96l-24 24v96h24l24 -24h24l24 72l-48 120q168 0 168 144z" />
<glyph unicode="W" horiz-adv-x="1393" d="M166 1308q66 0 96 -216l-24 -24l-72 24l-72 -24v24l24 72h-24l-72 72v24h24l72 -24v24zM718 1284q48 0 72 -192l-24 -24l48 -48v-144q-144 -18 -144 -120q-54 -240 -96 -240h-24l-24 96h-24q-48 0 -48 -72l48 -144v-72l-216 -264h-24l-24 144l24 24q-66 0 -120 504 l120 -120v48l-144 168v24h24l72 -48h24l24 24h24l-24 24v48h48l48 -288l-48 -48v-24l24 24h24l24 -24h24l24 168h24l72 -48h24v168l-48 96q42 288 96 288l72 -24v24q0 72 48 72zM1366 1284v-24q0 -192 -120 -504l24 -24v-24q-120 -654 -192 -696h-96q-48 0 -96 144l24 120 l-96 240v24l24 -24h48l24 24h24l-96 192q-72 0 -72 48q36 96 72 96h24q72 0 120 -318l-48 -66v-24q48 0 48 72h24l72 -48h48l48 96l-144 48l48 216h48v-72h24l48 48v144q-96 0 -96 48v24q0 48 96 48l3 31l-51 17v120h48q0 -120 48 -120t48 120l24 24h48zM646 1140l-48 -72 l72 -96l48 120zM1102 708l48 -48l72 24v24h-120zM334 444q72 0 72 -72h24v72l-48 48zM1030 156l-24 -96h48v96h-24z" />
<glyph unicode="X" horiz-adv-x="944" d="M412 904q-62 32 -62 60v3l-19 -19q12 -59 24 -105l115 -23l5 5v3zM92 45l-25 -33l-11 11q-20 -10 -42 -19l-72 72v72h24l120 -24q18 84 144 144h24v-24q-58 -129 -162 -199zM758 1289v11l-8 -3zM76 1188l-38 88v24l72 72h24l72 -72v-48q-42 0 -47 -92q187 -81 261 -179 l14 -9h13q4 33 51 39q15 17 34 43l10 30l10 -2q50 70 122 184l-36 -14v24l96 96q108 -48 120 -96v-24l-48 -48h-48v50q-39 -51 -67 -282l-13 3q4 -6 8 -11q-73 -162 -135 -215q53 -80 102 -185q20 -32 28 -63q11 -26 22 -54q223 -181 223 -395l-24 -24h-72l4 17 q-11 -4 -23 -9q-46 0 -82 58q-40 41 -115 174v24h24l24 -24h5q-13 57 -24 128l-120 -24l-69 160h-8l-24 -24h-24q-2 1 -3 1q-88 -89 -88 -161h-48l-72 216l130 217l-39 39l24 24l-11 19q-29 13 -80 13v48l24 37l-29 51v48h28q-44 33 -167 56v72h9z" />
<glyph unicode="Y" horiz-adv-x="1014" d="M66 1380h24v-48l-72 -24v24zM210 1236q54 0 72 -120l-144 96l24 24h48zM606 888l-36 36q0 33 131 58q5 69 168 284l-24 24v24l72 96l48 -72v-72q0 -67 -83 -191v-7q-144 -238 -239 -345q-7 -16 -14 -33l-24 -24v-168l-17 -102h6v-96l-24 -24v-24l24 -24l-24 -24h-12 l23 -138l-24 -24h-13l2 -6l-24 -24h-72l-48 48v144l-1 92l97 -91q-46 193 -85 245v88q-11 42 -11 122l-72 96l24 24v24q-3 20 -6 37q-31 62 -55 65q-31 0 -63 31l-20 -13l-24 24v24l8 8q-45 66 -93 190l24 24h24l121 -138l12 12h48q0 -60 85 -155l70 17v-48l-16 -25l5 -5 l24 24h17l-6 6v24l48 48l24 -72h24q0 3 1 6z" />
<glyph unicode="Z" horiz-adv-x="967" d="M546 900h24v-96l-48 -48l-48 72zM487 132h-13l5 -8zM107 245l31 31q19 0 30 -15h16v-46q2 -15 2 -35h120q0 72 48 72q22 -22 45 -37q32 22 73 46h96l9 -9h89v-72l24 24h24q210 -66 216 -120l-48 -48h-216v25l-24 4v-5h-24l-8 8l-88 -18v-14h-408l-38 38q-6 -2 -12 -5 l-24 72q25 56 50 86v1l3 3q7 8 14 14zM382 660h-4l-24 24v24l24 72h72v-24q-3 -8 -6 -15h4l96 -72v24l-24 24v24l72 48h24v-72l-168 -288h-46v-9l-72 -72q0 48 -96 48v48l96 96h24l48 -48v-36l46 69v72q-72 0 -72 48q3 8 6 15zM513 1245h-89l-48 48v48l48 48q78 0 122 -33 l240 24q144 -48 144 -96l-17 -33q15 -13 15 -30l-35 -12l-35 -69l-24 24h-48v-24h48v-48h-17l15 -15l-72 -96q-23 0 -46 25v-10l-72 -72l24 -72h-24l-144 120l24 24h48l24 -24h24l24 72l-24 24v48l24 24v3l-2 6v15h-214v48q57 0 87 33zM289 1380h17l48 -48l-144 -48h-144 l-48 48l144 48h46v9h72z" />
<glyph unicode="[" horiz-adv-x="569" />
<glyph unicode="\" horiz-adv-x="569" />
<glyph unicode="]" horiz-adv-x="569" />
<glyph unicode="^" horiz-adv-x="961" />
<glyph unicode="_" horiz-adv-x="1139" />
<glyph unicode="`" horiz-adv-x="455" d="M476 1828l74 -21l61 -105l83 -125l50 -106l-13 -31q-184 10 -354 242z" />
<glyph unicode="a" horiz-adv-x="1032" d="M54 114h24l48 -48v-24l-48 -48h-24l-48 48v24zM153 634q209 646 333 728h48q62 0 120 -192l-72 -72v-48l9 -9q26 69 57 69h24l12 -36h18l48 -144l-7 -34l25 -74l-24 -24q62 0 123 -228h3l48 -48v-48h-24l-12 12h-18l24 -72l-14 -62q59 -85 140 -166v-96l-72 -72l-72 72 v48l24 24v24l-50 30l-4 -18l24 -24v-24h-24q-33 48 -384 72l-72 72h-72q0 -29 -18 -57v-3h-2q-38 -56 -148 -108h-24q-96 48 -96 144l30 85v47l24 24v24l7 -7zM372 816l-6 -6h-5l-25 -12l-42 84v-24q16 -64 120 -120l-24 -96h-48v48h-48l-42 -42l84 -42l-21 -129l3 -3v-48 h-24l-72 24v-24l-6 -12h144l96 -72h72l30 11v97h48l72 -48l41 14l-47 94l24 24h9l-60 144h-45l-24 96l13 39l-79 189l24 72h-48l-8 -4l26 -128q-48 0 -48 72h-24l-24 -72l24 -96zM174 462h-54v-36h54v36z" />
<glyph unicode="b" horiz-adv-x="935" d="M453 1362q267 0 336 -216v-72l-72 -96l96 -240l-48 -48l120 -192q-160 -157 -168 -240l24 -144q0 -48 -264 -96h-408l-48 48h48v48h-48v120l120 120h72v-24l-48 -96l24 -72h120q49 72 336 72l120 240v24q-64 0 -192 144l-48 -48h-120l-48 48l72 24l72 -24l24 24v96h-48 v48h72l24 -24h24q72 72 96 264l24 24q-62 192 -216 192h-48q-126 -127 -240 -144l-48 -192q72 0 72 -48t-120 -48v-24l96 -48l192 48v-48q-288 -103 -288 -240l-48 -72h72v-48l-48 -48h-24l-48 48v24l24 240l-24 192l48 144l-24 312z" />
<glyph unicode="c" horiz-adv-x="948" d="M526 1362q182 0 264 -168q71 0 120 -96v-48l-72 -72l-96 168l-240 72q-264 -191 -264 -384q-60 0 -72 -96q72 -323 192 -504l-24 -72h48v48h72q312 -70 312 -144l-264 -48l-24 24l-72 24v24l-24 -24h-72l-168 240q-120 0 -120 408l48 48v24l-24 120h24l24 -24h24l48 144 h-72q83 336 432 336zM118 666l-48 -144h24q55 0 72 120l-24 24h-24zM910 354v-48l-96 -120h-72l-72 72q89 83 240 96z" />
<glyph unicode="d" horiz-adv-x="974" d="M161 516q-6 -9 -13 -18v-48h4q7 33 9 66zM306 159q-27 11 -61 24l13 -29h48v5zM208 1305q2 -10 2 -23l15 3l-5 5v24zM810 364q-2 -50 -31 -82h17l24 72zM930 607l10 -85q-78 -305 -144 -312h-72l-37 25q-40 -9 -93 -9q0 -18 -12 -33q10 -55 94 -55v-48l-312 -72v48h48v24 q0 12 -27 29q-46 -7 -103 -13l-24 -24l24 -24v-48h-72l-8 8h-102l-13 13l-21 -21h-24l-24 24v96h48l4 -16h6l86 -25v89l24 24v3q-7 3 -14 5l-19 19q-5 0 -10 2l-67 -45h-24v192q0 93 79 225l-41 55v201l-38 -25l-24 24v88h-10v72h26l8 8l-24 24v168q15 144 72 144h168 l75 -56q24 -1 52 -6l41 14l30 -30q9 -2 19 -5q9 35 71 35q215 -52 292 -195q5 -2 10 -5l12 -43q8 -24 14 -51l46 -170l-21 -63l10 -88l11 -65v-27zM170 1127l16 -109l-48 -48v-24l4 -18q78 -7 78 -46v-168q0 -47 -10 -89v-87l-11 -98q21 -12 21 -38v-159l4 -10l68 -23 q16 2 32 5q11 11 30 11l11 -4q272 52 338 184q9 76 22 120q6 166 94 185l14 83l-13 88v146q-55 58 -192 114v-20h-24l-360 24q-43 0 -74 -19zM154 882l18 -72v72h-18z" />
<glyph unicode="e" horiz-adv-x="947" d="M135 1355l7 7l14 -14l61 -20q-2 5 -3 10l77 -15v36h48l192 -24l192 24l7 -9l84 12q96 -36 96 -72v-24l-120 -120h-87l-4 -3l-30 3h-23v2l-187 19l-93 -10l-8 -11h-48q-6 0 -12 3l-55 -6q0 144 -144 144l-3 3h-2v2l-19 19v24l24 24h24zM891 111l24 -24v-24l-24 -24h-48v24 zM118 1103v19l48 48l48 -48l-7 -39l12 -12v-96l-19 -28l14 -41l-23 -23l38 -38q12 13 33 13h144q18 0 29 -13l168 -14h67v27h144l7 -7l22 4v-24l-1 -1l20 -20l-24 -24h-24l-4 1l-39 -52h-227q6 -9 6 -21v-24l-48 -48h-229q-24 -3 -53 -3l-1 -1v-23q0 -328 -72 -408 q36 -96 72 -96h256q-66 41 -213 75v24l24 24l24 -24h48l65 9l12 12h70l21 3l24 -24v-24l53 18v27h82l9 3h120l5 -3l67 -45q0 -105 -193 -134q-67 -37 -162 -37h-384l-44 9l-9 -6h-24l-15 16l-28 5v22l-5 5v168l5 5v64l75 75h-8q-72 24 -72 144l67 67q-17 2 -38 2l-24 24v96 q0 42 56 47l-13 52v24l4 6l-47 63v240h48q0 -29 43 -40z" />
<glyph unicode="f" horiz-adv-x="916" d="M477 1343v19l72 -24l216 24v-18q110 -27 110 -64v-38h10v-24l-48 -48h-24l-34 -34l-72 24l-384 -24l-24 24v128l-46 -12l22 -44q-24 -96 -96 -96v-110h10v-168h288l120 -72l51 13l-13 25v24h24l72 -72v-4l10 -10v-48l-72 -72h-58v-10l-170 10h-60l-42 6l-136 8l-14 -84 v-506l-72 -71l-48 47l48 72l-45 78q-85 20 -85 56v264h48q0 -55 24 -79l35 140q-42 82 -83 275l-24 24l96 264v192l82 -16v26l240 24v-14zM365 1304l-18 -4v-116h24l120 24v48l-48 48h-78z" />
<glyph unicode="g" horiz-adv-x="973" d="M580 738l24 -24v-144h-72v120zM359 95l53 -53l-24 -24h-24l-68 68l-16 -2l-24 24v24l120 48l72 -24v-48zM76 660v6q48 96 144 96v-144l-48 -48h-34q24 -46 70 -102l-20 -20q8 -30 8 -70v-72h-72q-6 2 -12 5v-59l-48 48v24h28q-40 36 -40 126v24l44 44l-80 94l48 48h12z M725 644q-37 28 -73 70l24 24h24q40 -11 74 -21l10 15h48l52 -52q56 -23 56 -38q0 -34 -36 -44v-106q0 -40 -2 -76l38 -38l-52 -73q-15 -75 -44 -127v-40l-24 5q-64 -83 -180 -83l-24 24v18l-60 60l48 48l13 -4q52 110 111 117l8 19v150l-48 72v24zM592 1207v53 q-62 -19 -117 -47l57 -19q34 6 60 13zM496 1350l12 12h144q192 -99 192 -144v-24l-52 11l88 -89v-48h-24l-192 72h-120v6h-36l-167 -24q-93 -81 -157 -198l-78 59l-6 -5q0 -72 -48 -72v48q0 41 12 78v36q13 9 25 18q36 59 107 108l13 -13q42 36 76 69q-8 8 -17 16l48 48h28 q18 22 32 42h120v-6zM759 1211l-14 3l-9 -26zM634 1308l-6 6h-120l-28 -28l112 22h42z" />
<glyph unicode="h" horiz-adv-x="1008" d="M109 7l-72 72v264h24l11 -10l-16 82h48v-48q72 0 72 -48v-24l-22 -33l99 -87h-48l-72 24l-3 -3l70 -93v-48l-48 -48h-43zM107 789l39 -6l78 16v72l-96 24zM121 1231q-8 52 -12 120l24 24h24q60 0 96 -192v-72l-48 -48q-31 0 -53 47v-71q120 -17 120 -72v-120h197l90 -72 h54q-72 0 -72 48l24 24h192l45 113l-26 79q18 18 29 65v151l18 18q1 36 1 78l24 24h48l72 -72v-120l-5 -35l10 -13v-24l-18 -24l-30 -228l24 -36v-24l-24 24h-5l72 -168v-312l-48 -48v24l-72 -24v-24l53 -53v29h48v-77l19 -19v-48l-96 -96h-24q-48 0 -48 192l-18 18l23 -162 h-24l-48 48v120h43l-24 24v48h-19v48l19 29v67l10 124l-29 44v24l36 14l7 82q-40 0 -47 50q-21 -2 -44 -2v-168h-437l-19 -95v-73l-48 -48l-72 72v45q-77 21 -77 51v24h-19v48l24 24l-24 24v120l20 -3l23 363l-24 72h65z" />
<glyph unicode="i" horiz-adv-x="635" d="M298 145l18 126v34l-18 -18v-142zM368 289l-4 -18l5 -14q1 14 1 30zM302 93l-10 10l6 40h-48l-48 48v120l48 72v48l-48 72v115l-6 13v312q33 251 102 327v1l72 96l48 -72v-24l-72 -72h-3l-3 -16v-24l72 -96v-48l-48 -48l-72 48l-24 -24v-91q47 37 126 59h24v-24l-48 -72 v-24l48 -72h-24q16 -39 18 -98l6 2v-24l-6 -6v-150l6 -36l-11 -11l-23 -93l34 -136v-24q0 -32 -7 -60l1 -4q-4 -10 -9 -19q-8 -21 -20 -38q-34 -55 -67 -63l-1 1q-8 -5 -17 -9l-48 48q30 21 52 46z" />
<glyph unicode="j" horiz-adv-x="1016" d="M104 391h1l24 -24q0 39 3 69l-21 -21h-24zM173 295l4 24v24q-19 0 -31 -11zM753 967l-24 24v216q18 144 72 144v-72l-24 -24v-24h6q28 0 39 -24h3q9 42 18 71l-36 49h48l6 -6q17 30 36 30l24 -24v-48q-3 -6 -7 -11l37 -37v-432l-48 -72l48 -72v-216h-6l-72 -24l24 -120 l-48 -48v96q-10 -4 -19 -7q-37 -191 -128 -271l3 -10h-15q-62 -48 -147 -48h-144l-48 48l24 24h24l24 -24h24l72 24v4l-6 -4h-72l-72 48l-52 -34l10 -14v-24h-24q-74 0 -139 109l-11 11l1 6q-21 39 -42 90h-31l-24 96l16 16l-10 32v72l48 48l36 -24q12 24 30 24q46 0 71 -91 l7 -5v-24q12 -58 18 -144l-34 -68l37 -52q45 2 45 72l6 6v18l16 -2l2 2h24q18 0 29 -10l97 -14l94 23q91 84 148 119l-2 2v72h-6v72l6 6v36l-6 6v192h24q27 -15 51 -29l75 125v72q-47 0 -78 5v-5l-48 -48h-24v72l10 10q-4 6 -4 14h18z" />
<glyph unicode="k" horiz-adv-x="980" d="M192 1167l-44 88v24h24l5 -5l-6 40l24 24h24l24 -24v-106l1 -1v-48h-1v-13h-48zM174 393q-12 -2 -26 -2v-18zM225 114l-5 -35h-72l-72 288v24q0 48 168 72q0 -37 -25 -55v-6l-48 -96l25 -67v32h48v-24l-14 -98l13 -35h-18zM416 858q43 4 43 72l-12 21zM556 643l-1 -1 l1 -1v2zM549 888l121 -222h5l-2 -6l147 -269l-12 -61q47 -49 107 -96l5 -26q44 -68 44 -129l-25 -17v-20q-18 0 -33 -2l-14 -9h-23q-26 -12 -26 -37q-77 0 -168 216l24 120q-25 6 -76 78l-43 -17q-120 186 -144 336l-34 11q-70 -39 -168 -130l10 -49h-48q-14 26 -26 50 q-95 62 -95 177l48 72v24l-27 89l-44 44v24l18 18l-19 65v120l48 48l37 -223q31 -20 61 -63l22 22l24 -24v-72h-4q2 -5 5 -11q426 408 480 408l27 -9l20 20h24l18 -18l7 7l24 -24v-14l23 -23v-24q0 -13 -23 -31v-4l-170 -157h1zM553 1026l3 13v24h-12l-13 -13v-24h22z M166 889l6 6l-9 9z" />
<glyph unicode="l" horiz-adv-x="1016" d="M192 1197l-14 -14l-96 96l48 48q71 -18 100 -40h10v-9q10 -11 10 -23l-10 -10v-126l-48 -72v-135q27 7 58 7v-24l-58 -77v-44q58 -4 58 -47v-144l-48 -72v-72l48 -72l-24 -24v-24q22 -87 122 -95l12 7h24v-96l96 72v-24l82 64h120v-24l-24 -24v-24l40 -13l22 -3l106 13v3 l-24 72h24q120 -18 120 -72v-24q0 -36 -53 -45l-41 -27h46v-48h-24q-36 0 -77 11l-5 -3h-24l-34 25q-42 19 -88 47h-70q-84 0 -168 -96h-264l-13 16h-25l-48 48v44l-10 12v120l10 15v49q16 19 30 44l-40 60v216l10 15v145q17 31 38 54v170q96 84 96 168v6zM271 178l-34 34 q3 -24 3 -53zM138 501q9 38 16 82q-18 0 -33 3z" />
<glyph unicode="m" horiz-adv-x="1223" d="M57 823h24l72 -72l-72 -72l-24 24v120zM570 593q-32 47 -81 158h-24v-48h-48l-72 168l24 24q-78 0 -96 168h-24q0 -264 -48 -264l-48 432q48 0 48 72h48l240 -312l-24 -24v-24q120 -36 120 -144h1l124 124q13 -49 27 -78q28 13 55 19q12 35 38 35l-12 12l-65 -16l-48 72 l120 96q41 57 77 99l48 97l120 48l72 -72l-9 -9q28 -44 28 -115v-24l-21 -31l2 -13v-57l19 -19v-240h-48v56q-12 -15 -29 -23q-10 -33 -43 -33l-67 67v-135l24 -23l19 19h24l31 -31l46 11l24 -24v-552l-48 -48q-34 0 -92 282l-33 50v72h10q-25 135 -53 316v168h-24 q-14 -110 -288 -384l-48 48v24zM225 631h24l-24 -144l24 -120l-72 -24v-24l24 -240l-72 -48h-48v168l-24 96q108 324 168 336z" />
<glyph unicode="n" horiz-adv-x="1096" d="M911 1277q15 -6 27 -27q16 -7 43 -7v-48l-24 -8q14 -71 14 -196l-13 -13l47 -47v-24l-48 -48l-48 72l36 36h-22l-72 72v192l19 19l-9 17l24 24h24q0 -8 2 -14zM69 139h144v-72l-48 -48h-24q-55 0 -72 120zM842 195l57 76l-72 168h-40l-22 -108v-72q0 -32 77 -64z M139 1125l-56 226l24 24h24l24 -24v-24l-24 -72h24q26 0 38 -29q27 41 44 41q44 -59 80 -110l6 2v-10q12 -17 23 -34q102 -88 145 -196l-21 -21q7 -23 7 -39l-10 -3v-9h22l2 2v46q58 0 138 -200l40 -52l-47 -47l13 -13l192 -120v15q-7 11 -14 21v48q0 14 14 26v34 q96 0 168 72l24 -24v-72q0 -21 -14 -33v-75l-24 -24l24 -24v-42l14 -18q-5 -89 -14 -142v-38q-8 -25 -27 -43l17 -17v-72l-48 -48l-75 90q-37 -6 -83 -6l-216 336l56 42q-114 35 -114 90l59 39q-97 14 -97 93h-1l-9 -36h-14v-12h-48q0 36 -14 68l-8 16q-18 32 -50 60l24 24 v24l-130 80v-68h-72l20 100l-130 80q0 48 72 48q12 27 22 50zM419 840l-14 -5v-24h14v29zM957 787l24 -24v-24l-24 -24h-48v24zM213 646l14 -39v-404h-48l-48 135v269l18 52l-8 8v72l48 48h24v-141zM813 907h24l72 -72l-72 -48l-24 24v96z" />
<glyph unicode="o" d="M532 1233q-9 -13 -19 -26v-24h96v-24l-168 -24v48l-21 -11l19 -19l-168 -192h-24l5 48q-43 -17 -102 -35q-8 -205 -71 -205l-24 24v24l48 216h19q52 116 103 126l24 -24h17l5 42l-24 72q108 96 168 96l5 -1q73 31 165 31v-6h46q18 0 34 -34l16 16q50 0 114 -59 q10 -6 18 -18q50 -52 108 -139l-24 -95l6 -2q3 0 5 -1l83 -28v-107q24 -61 50 -151l-20 -7l42 -167h-48q0 94 -46 96v-42l24 -24v-24l-72 -48h-24l-48 48v18h-2v24l2 6v120l7 7l-57 227l6 6q-22 58 -52 125q-72 51 -221 117zM721 153l8 -50q28 25 53 44q-15 -2 -31 -2z M157 265h-6l-72 264v24l48 48l48 -48l-24 -72l32 -142l18 28l-24 24v24l24 120h24q119 -209 312 -386q30 26 94 44q0 53 144 168l48 144h48v-144l72 -96q-20 -40 -48 -66h2q-66 -102 -216 -168h-24l24 24v24l-12 87l-14 3q-52 -71 -99 -107q-17 -27 -91 -55q-142 0 -308 258 zM716 1201q-12 25 -24 52q6 -24 11 -52h13z" />
<glyph unicode="p" horiz-adv-x="1022" d="M482 1327h-29v48h72v-48h-14l92 -23l96 24h72q69 0 113 -121h1q72 -90 72 -168v-72q0 -204 -144 -288h-48v72h-48l-48 -48l24 -72h-24q-31 29 -90 11l-288 38q0 -46 -30 -93v-4q-4 -3 -7 -7q-15 -20 -35 -40l46 -369l20 8v-96l-72 -72h-72l-48 48v48l6 6v43l48 72v24 l-36 167h-18v85l-18 84v72l24 24l-24 24v96q0 169 33 272l-15 15v115l-18 54v24h24l20 -10q67 81 190 81q0 -48 88 -85q45 26 85 61zM506 1232q17 -4 35 -8l-10 8h-25zM697 1197q44 -6 93 -12l5 23l-24 24h-72q0 -19 -2 -35zM723 883v13q0 38 61 46q5 12 5 25v24 q-28 110 -122 148q-7 -3 -16 -3l-17 14q-38 9 -85 9h-241q-12 -7 -23 -14q-4 -82 -48 -82v-48l48 -72v-24l-34 -57l34 -46v31h120l133 -22q17 23 41 23l14 -14q61 16 103 35l3 3h4q11 5 20 11zM181 1239l62 -31q30 7 59 16l31 31h-72z" />
<glyph unicode="q" horiz-adv-x="1138" d="M314 1279h24v-24l-24 -120h72q0 72 216 120l24 24h120q48 0 48 -96q168 -60 168 -144l-24 -120q24 -204 96 -288q-120 -102 -120 -336q0 -72 144 -72l-48 -192h-48q-66 0 -72 120q-102 -96 -192 -96l-120 72q-132 -24 -216 -96q-312 270 -312 624v120q132 384 240 384 l-48 72zM506 1183l-24 -24q0 -72 -216 -72q-114 -270 -168 -312v-24l96 -96v-24l-72 -96l24 -24v-24l-24 -24q144 -198 144 -288h48q0 120 48 120q90 -72 168 -72h48l120 24l-24 24v72q66 0 96 120l24 -24h72l-24 120v24q96 0 96 48q-108 342 -240 504h48v48h-48v-48z M578 55h72v-48h-72v48z" />
<glyph unicode="r" horiz-adv-x="1105" d="M113 919v-72l24 24h24q96 -12 96 -72h120l24 -24h24l-24 -24v-96h96q432 72 432 168q-150 384 -312 384l-96 24q-336 0 -408 -312zM905 1015v-24q36 -96 72 -96v72l-48 48h-24zM617 463l48 -48v-72h-48l-48 96l24 24h24zM809 151h48v-72h-48v72zM692 640h96l-48 48z M44 112h48v-96h-48v96zM119 1084v26l45 45q23 41 43 86l-40 13h-72l-24 -168v-64q25 29 48 62zM738 607h-1v-48q44 -108 93 -188q8 -13 15 -25q63 -97 132 -147v-48l-30 15q33 -70 33 -102l-24 -24h-24q-32 104 -75 171l-72 36q-8 28 -16 53q-46 28 -101 28v48l54 54 q-55 129 -105 129l-48 -48h-24l-96 72h-96l-168 -24l22 -64l8 -9q0 -7 -1 -13l43 -130l-69 -86l27 -35v-24h-24q-15 9 -29 18l23 -113l24 24h48v-72h-24l-24 24h-24l-48 -48h-24l-48 48v192l17 26q-11 22 -11 45q0 43 4 82l-10 15l48 192l-48 192v32q-29 69 -42 183v96 l24 96l-24 96l24 24q118 -3 195 -21q8 23 15 46h24l180 -45v54h72q10 -9 23 -18l13 9h120l-12 -59q70 -18 168 -28q192 -160 192 -288q-28 -141 -75 -231q-77 -155 -213 -162v-39z" />
<glyph unicode="s" horiz-adv-x="1105" d="M155 223l48 -48h48l-48 48h-48zM833 1135h-54l48 -48h23q-15 15 -17 48zM335 139l-19 12h-17v-48h72zM185 1135l-24 -60h27l15 60h-18zM545 1381l18 18l192 -48v-48h-192l-29 29l-133 -89l-87 22l-39 -58v-6l35 -35l61 41h48v-48q-42 0 -90 -24v-12h-22q-32 -19 -66 -48 h16v-24l-16 -21q29 -63 58 -63l-24 -24v-18l6 6h24q81 -72 109 -228h53l-24 24v96h48l72 -48l-24 -24v-6l30 -30v-14q234 -21 234 -94l-4 -8q154 -71 154 -100v-24l-120 24l-22 -22l184 -110v-24l-24 -24v-24q-13 0 -26 1q-40 -58 -40 -157l-9 -7q-20 -56 -159 -94v-19 l-168 -24l-45 28l-33 8l-96 -24q-162 42 -288 216v72q4 34 11 60h-29v48l48 48h24l12 -12h6l218 -258q57 -30 148 -66l19 -28l23 -8q0 55 218 85q-13 77 -68 119l24 120v39q-3 10 -6 21q-46 0 -48 108q-11 8 -22 14q-31 3 -60 7l-104 -21l39 32q-77 14 -137 38l2 -22h-24 q-360 168 -360 384l18 43q3 98 76 183l26 62h24l7 -7q27 22 59 43h24l2 -2l124 62h144v-6zM171 943l-10 -12v-120h48q7 0 13 2q-19 48 -19 106l-24 24h-8zM880 310q1 -2 1 -3h6q-3 1 -7 3zM774 1251q16 12 29 28l120 -120v-96l-48 -48h-72q-127 127 -179 142l-127 14v12h-30 v48h72v-1q53 20 174 37q30 0 61 -16z" />
<glyph unicode="t" horiz-adv-x="1121" d="M401 1245l48 -48h24l-48 48h-24zM678 1288q-61 29 -133 29h-48v-24q0 -46 87 -72q38 17 85 34q5 18 9 33zM91 1305l-22 22v24l24 24h72l48 -48v-24l-2 -2l22 -8v24l48 48h4v10h240v-10h193q11 10 23 10h48q22 -5 42 -10h26q186 0 216 -96h-1q5 -7 5 -14q-36 -96 -72 -96 h-18l-10 -10h-24l-10 10h-82l-4 4v-14h-24q-39 57 -85 95l17 -85h-24q-15 0 -28 -2v-8h-30q-38 -17 -38 -62h-4v-286q4 -23 4 -50v-48h-24q-38 0 -67 7l63 -77l-17 -125l45 -45v-168q-7 -6 -14 -13h10v-204l-48 -59q-10 45 -20 86v-2h-48l-72 72v48q30 38 51 122 q-29 78 -55 113l-24 205l72 58h25q-16 8 -27 20h-70v24l24 120h42l34 34h24q25 -10 44 -26v40q-72 84 -129 144l37 -110h-72v144q0 1 1 1q-108 109 -149 109l-216 -24l-48 72v24zM857 1240l52 39h-66l-10 -10l24 -24v-5z" />
<glyph unicode="u" horiz-adv-x="1089" d="M203 224v-72h48v24zM184 1256l-18 47l24 24h24l48 -48v-624l-48 -48q-144 84 -144 312l78 89l-17 224l24 24h29zM482 98l27 -42h30l24 -24h24v54l-13 17l1 1h-84zM905 500l4 36l-23 23h-24l24 288v312l25 25h-12l-48 48l24 24h24l24 -24v-36l59 59l24 -24v-504l-24 -216 l24 -96q-84 -408 -360 -408l-6 8q-37 -7 -77 -7h-60l-1 -1h-24q-148 0 -183 52q-164 23 -164 189l-72 72q42 108 144 168h24q0 -150 120 -264l-24 -24h-24l24 -72l9 3q26 47 26 116l168 -24h48l5 1l128 48h24l-29 -44l20 -52h9l155 44v147zM227 1098l11 13l-11 29v-42z" />
<glyph unicode="v" horiz-adv-x="920" d="M96 1260q96 0 168 -312l-48 -48l24 -24v-72l-72 -72h-48v24l24 24v24q-48 0 -120 288h24l-24 24v96q0 48 72 48zM864 1260h24v-24l-168 -504v-24l24 -24v-24q-102 -384 -144 -384h-24q0 120 -48 120l-48 -240l72 -72v-24l-48 -48h-96l-72 72l24 144q-120 96 -120 240 l24 120l-24 72l24 24h24q96 0 96 -120l72 -192h24q0 102 144 168l24 96q-96 0 -96 48q36 96 72 96l-24 24v96h24l24 -24h24l24 72l-48 120q168 0 168 144z" />
<glyph unicode="w" horiz-adv-x="1393" d="M166 1308q66 0 96 -216l-24 -24l-72 24l-72 -24v24l24 72h-24l-72 72v24h24l72 -24v24zM718 1284q48 0 72 -192l-24 -24l48 -48v-144q-144 -18 -144 -120q-54 -240 -96 -240h-24l-24 96h-24q-48 0 -48 -72l48 -144v-72l-216 -264h-24l-24 144l24 24q-66 0 -120 504 l120 -120v48l-144 168v24h24l72 -48h24l24 24h24l-24 24v48h48l48 -288l-48 -48v-24l24 24h24l24 -24h24l24 168h24l72 -48h24v168l-48 96q42 288 96 288l72 -24v24q0 72 48 72zM1366 1284v-24q0 -192 -120 -504l24 -24v-24q-120 -654 -192 -696h-96q-48 0 -96 144l24 120 l-96 240v24l24 -24h48l24 24h24l-96 192q-72 0 -72 48q36 96 72 96h24q72 0 120 -318l-48 -66v-24q48 0 48 72h24l72 -48h48l48 96l-144 48l48 216h48v-72h24l48 48v144q-96 0 -96 48v24q0 48 96 48l3 31l-51 17v120h48q0 -120 48 -120t48 120l24 24h48zM646 1140l-48 -72 l72 -96l48 120zM1102 708l48 -48l72 24v24h-120zM334 444q72 0 72 -72h24v72l-48 48zM1030 156l-24 -96h48v96h-24z" />
<glyph unicode="x" horiz-adv-x="944" d="M412 904q-62 32 -62 60v3l-19 -19q12 -59 24 -105l115 -23l5 5v3zM92 45l-25 -33l-11 11q-20 -10 -42 -19l-72 72v72h24l120 -24q18 84 144 144h24v-24q-58 -129 -162 -199zM758 1289v11l-8 -3zM76 1188l-38 88v24l72 72h24l72 -72v-48q-42 0 -47 -92q187 -81 261 -179 l14 -9h13q4 33 51 39q15 17 34 43l10 30l10 -2q50 70 122 184l-36 -14v24l96 96q108 -48 120 -96v-24l-48 -48h-48v50q-39 -51 -67 -282l-13 3q4 -6 8 -11q-73 -162 -135 -215q53 -80 102 -185q20 -32 28 -63q11 -26 22 -54q223 -181 223 -395l-24 -24h-72l4 17 q-11 -4 -23 -9q-46 0 -82 58q-40 41 -115 174v24h24l24 -24h5q-13 57 -24 128l-120 -24l-69 160h-8l-24 -24h-24q-2 1 -3 1q-88 -89 -88 -161h-48l-72 216l130 217l-39 39l24 24l-11 19q-29 13 -80 13v48l24 37l-29 51v48h28q-44 33 -167 56v72h9z" />
<glyph unicode="y" horiz-adv-x="1014" d="M66 1380h24v-48l-72 -24v24zM210 1236q54 0 72 -120l-144 96l24 24h48zM606 888l-36 36q0 33 131 58q5 69 168 284l-24 24v24l72 96l48 -72v-72q0 -67 -83 -191v-7q-144 -238 -239 -345q-7 -16 -14 -33l-24 -24v-168l-17 -102h6v-96l-24 -24v-24l24 -24l-24 -24h-12 l23 -138l-24 -24h-13l2 -6l-24 -24h-72l-48 48v144l-1 92l97 -91q-46 193 -85 245v88q-11 42 -11 122l-72 96l24 24v24q-3 20 -6 37q-31 62 -55 65q-31 0 -63 31l-20 -13l-24 24v24l8 8q-45 66 -93 190l24 24h24l121 -138l12 12h48q0 -60 85 -155l70 17v-48l-16 -25l5 -5 l24 24h17l-6 6v24l48 48l24 -72h24q0 3 1 6z" />
<glyph unicode="z" horiz-adv-x="967" d="M546 900h24v-96l-48 -48l-48 72zM487 132h-13l5 -8zM107 245l31 31q19 0 30 -15h16v-46q2 -15 2 -35h120q0 72 48 72q22 -22 45 -37q32 22 73 46h96l9 -9h89v-72l24 24h24q210 -66 216 -120l-48 -48h-216v25l-24 4v-5h-24l-8 8l-88 -18v-14h-408l-38 38q-6 -2 -12 -5 l-24 72q25 56 50 86v1l3 3q7 8 14 14zM382 660h-4l-24 24v24l24 72h72v-24q-3 -8 -6 -15h4l96 -72v24l-24 24v24l72 48h24v-72l-168 -288h-46v-9l-72 -72q0 48 -96 48v48l96 96h24l48 -48v-36l46 69v72q-72 0 -72 48q3 8 6 15zM513 1245h-89l-48 48v48l48 48q78 0 122 -33 l240 24q144 -48 144 -96l-17 -33q15 -13 15 -30l-35 -12l-35 -69l-24 24h-48v-24h48v-48h-17l15 -15l-72 -96q-23 0 -46 25v-10l-72 -72l24 -72h-24l-144 120l24 24h48l24 -24h24l24 72l-24 24v48l24 24v3l-2 6v15h-214v48q57 0 87 33zM289 1380h17l48 -48l-144 -48h-144 l-48 48l144 48h46v9h72z" />
<glyph unicode="{" horiz-adv-x="684" />
<glyph unicode="|" horiz-adv-x="532" />
<glyph unicode="}" horiz-adv-x="684" />
<glyph unicode="~" horiz-adv-x="1124" />
<glyph unicode="&#xa1;" horiz-adv-x="510" d="M181 687l-19 29v240l40 40h100l40 -40v-160q-60 0 -60 -40q0 -30 6 -54q14 -23 32 -54q9 -8 22 -12q0 -11 -6 -19q1 -3 3 -6v-20l-20 -20h-20l-20 20v-112l3 -3q60 0 60 -40v-120h-3v-220h3l-3 -3v-22h-22l-35 -35q-68 34 -98 75h-25v60h6l19 105l-25 -5v160q0 61 3 112 v33l3 4q5 63 16 107zM219 1251v1q-35 19 -57 64v60h60q0 -28 10 -47l7 42v20l-20 20h20l20 20q53 0 80 -140l-40 -40h-2l-15 -15q-35 0 -62 15h-1zM271 224l-12 67l-9 -2q11 -36 21 -65z" />
<glyph unicode="&#xa2;" horiz-adv-x="1139" />
<glyph unicode="&#xa3;" horiz-adv-x="1139" />
<glyph unicode="&#xa5;" horiz-adv-x="1139" />
<glyph unicode="&#xa6;" horiz-adv-x="532" />
<glyph unicode="&#xa7;" horiz-adv-x="1139" />
<glyph unicode="&#xa8;" horiz-adv-x="1124" />
<glyph unicode="&#xa9;" horiz-adv-x="1509" />
<glyph unicode="&#xaa;" horiz-adv-x="758" />
<glyph unicode="&#xab;" horiz-adv-x="1139" />
<glyph unicode="&#xac;" horiz-adv-x="1196" />
<glyph unicode="&#xad;" horiz-adv-x="580" d="M217 852h100q47 -60 200 -60l20 -20v-20l-40 -40h-160l-80 -20q-80 60 -180 60l-20 20v20q13 60 160 60z" />
<glyph unicode="&#xae;" horiz-adv-x="1509" />
<glyph unicode="&#xb0;" horiz-adv-x="819" />
<glyph unicode="&#xb1;" horiz-adv-x="1124" />
<glyph unicode="&#xb2;" horiz-adv-x="682" />
<glyph unicode="&#xb3;" horiz-adv-x="682" />
<glyph unicode="&#xb4;" horiz-adv-x="1124" />
<glyph unicode="&#xb5;" horiz-adv-x="1180" />
<glyph unicode="&#xb6;" horiz-adv-x="1100" />
<glyph unicode="&#xb7;" horiz-adv-x="569" />
<glyph unicode="&#xb8;" horiz-adv-x="682" />
<glyph unicode="&#xb9;" horiz-adv-x="682" />
<glyph unicode="&#xba;" horiz-adv-x="748" />
<glyph unicode="&#xbb;" horiz-adv-x="1139" />
<glyph unicode="&#xbc;" horiz-adv-x="1708" />
<glyph unicode="&#xbd;" horiz-adv-x="1708" />
<glyph unicode="&#xbe;" horiz-adv-x="1708" />
<glyph unicode="&#xbf;" horiz-adv-x="881" d="M530 145h-44v-14q25 1 44 14zM586 905h-20l-40 40v40l40 40l60 -60v-20zM721 431l-20 20v20l20 20h40v-20zM260 450l21 21l20 -20v-60h-20l-11 11q10 -67 16 -177h-40v-52l175 78h40l40 -40l-7 -7q14 1 32 1q24 47 54 66q1 10 1 20q21 29 45 51v63l40 40l38 -54 q36 15 77 20l20 -20v-20q0 -32 -35 -83v-3q-2 -1 -3 -2q-46 -65 -147 -161q30 -9 30 -37l-60 -40h-20l-5 26h-75v-46h-20l-80 40l-80 -20q-220 113 -220 340q53 81 75 208q0 2 1 6l4 26l20 16q53 70 215 210h20l40 -40q-6 -44 -69 -112l14 -14v-60h-20l-34 34 q-15 -14 -31 -28q0 -128 -60 -140h-16q8 -14 15 -41zM493 1339q-7 -14 -7 -34l-20 -20h-20v60l60 60h60l34 -34q41 -18 41 -40v-20l-60 -60z" />
<glyph unicode="&#xc0;" horiz-adv-x="1032" d="M57 114h24l48 -48v-24l-48 -48h-24l-48 48v24zM156 634q209 646 333 728h48q62 0 120 -192l-72 -72v-48l9 -9q26 69 57 69h24l12 -36h18l48 -144l-7 -34l25 -74l-24 -24q62 0 123 -228h3l48 -48v-48h-24l-12 12h-18l24 -72l-14 -62q59 -85 140 -166v-96l-72 -72l-72 72 v48l24 24v24l-50 30l-4 -18l24 -24v-24h-24q-33 48 -384 72l-72 72h-72q0 -29 -18 -57v-3h-2q-38 -56 -148 -108h-24q-96 48 -96 144l30 85v47l24 24v24l7 -7zM375 816l-6 -6h-5l-25 -12l-42 84v-24q16 -64 120 -120l-24 -96h-48v48h-48l-42 -42l84 -42l-21 -129l3 -3v-48 h-24l-72 24v-24l-6 -12h144l96 -72h72l30 11v97h48l72 -48l41 14l-47 94l24 24h9l-60 144h-45l-24 96l13 39l-79 189l24 72h-48l-8 -4l26 -128q-48 0 -48 72h-24l-24 -72l24 -96zM177 462h-54v-36h54v36zM301 1828l74 -21l60 -105l84 -125l49 -106l-12 -31q-184 10 -354 242 z" />
<glyph unicode="&#xc1;" horiz-adv-x="1032" d="M54 114h24l48 -48v-24l-48 -48h-24l-48 48v24zM153 634q209 646 333 728h48q62 0 120 -192l-72 -72v-48l9 -9q26 69 57 69h24l12 -36h18l48 -144l-7 -34l25 -74l-24 -24q62 0 123 -228h3l48 -48v-48h-24l-12 12h-18l24 -72l-14 -62q59 -85 140 -166v-96l-72 -72l-72 72 v48l24 24v24l-50 30l-4 -18l24 -24v-24h-24q-33 48 -384 72l-72 72h-72q0 -29 -18 -57v-3h-2q-38 -56 -148 -108h-24q-96 48 -96 144l30 85v47l24 24v24l7 -7zM372 816l-6 -6h-5l-25 -12l-42 84v-24q16 -64 120 -120l-24 -96h-48v48h-48l-42 -42l84 -42l-21 -129l3 -3v-48 h-24l-72 24v-24l-6 -12h144l96 -72h72l30 11v97h48l72 -48l41 14l-47 94l24 24h9l-60 144h-45l-24 96l13 39l-79 189l24 72h-48l-8 -4l26 -128q-48 0 -48 72h-24l-24 -72l24 -96zM174 462h-54v-36h54v36zM704 1682q-170 -232 -354 -242l-12 31l49 106l84 125l60 105l74 21z " />
<glyph unicode="&#xc2;" horiz-adv-x="1032" d="M54 114h24l48 -48v-24l-48 -48h-24l-48 48v24zM153 634q209 646 333 728h48q62 0 120 -192l-72 -72v-48l9 -9q26 69 57 69h24l12 -36h18l48 -144l-7 -34l25 -74l-24 -24q62 0 123 -228h3l48 -48v-48h-24l-12 12h-18l24 -72l-14 -62q59 -85 140 -166v-96l-72 -72l-72 72 v48l24 24v24l-50 30l-4 -18l24 -24v-24h-24q-33 48 -384 72l-72 72h-72q0 -29 -18 -57v-3h-2q-38 -56 -148 -108h-24q-96 48 -96 144l30 85v47l24 24v24l7 -7zM372 816l-6 -6h-5l-25 -12l-42 84v-24q16 -64 120 -120l-24 -96h-48v48h-48l-42 -42l84 -42l-21 -129l3 -3v-48 h-24l-72 24v-24l-6 -12h144l96 -72h72l30 11v97h48l72 -48l41 14l-47 94l24 24h9l-60 144h-45l-24 96l13 39l-79 189l24 72h-48l-8 -4l26 -128q-48 0 -48 72h-24l-24 -72l24 -96zM174 462h-54v-36h54v36zM511 1809q196 -42 217 -184l-48 -78l-165 99q-114 -112 -176 -63 l-41 35l45 93z" />
<glyph unicode="&#xc3;" horiz-adv-x="1032" d="M54 114h24l48 -48v-24l-48 -48h-24l-48 48v24zM153 634q209 646 333 728h48q62 0 120 -192l-72 -72v-48l9 -9q26 69 57 69h24l12 -36h18l48 -144l-7 -34l25 -74l-24 -24q62 0 123 -228h3l48 -48v-48h-24l-12 12h-18l24 -72l-14 -62q59 -85 140 -166v-96l-72 -72l-72 72 v48l24 24v24l-50 30l-4 -18l24 -24v-24h-24q-33 48 -384 72l-72 72h-72q0 -29 -18 -57v-3h-2q-38 -56 -148 -108h-24q-96 48 -96 144l30 85v47l24 24v24l7 -7zM372 816l-6 -6h-5l-25 -12l-42 84v-24q16 -64 120 -120l-24 -96h-48v48h-48l-42 -42l84 -42l-21 -129l3 -3v-48 h-24l-72 24v-24l-6 -12h144l96 -72h72l30 11v97h48l72 -48l41 14l-47 94l24 24h9l-60 144h-45l-24 96l13 39l-79 189l24 72h-48l-8 -4l26 -128q-48 0 -48 72h-24l-24 -72l24 -96zM174 462h-54v-36h54v36zM907 1621l-11 -30q-100 -103 -343 5l-12 12q6 5 11 10q-38 19 -80 53 l3 -36l-38 65q-15 13 -31 28q-8 3 -17 5q-50 -51 -72 -27q-6 -4 -12 -7l-18 -18l-44 -70q-45 9 -87 -21q13 -18 23 -34l-82 26q-4 24 3 40l-1 8q45 47 54 95q-7 7 -13 14l12 11l-1 24l12 12l135 -44v22l-67 51l12 11q13 14 116 -32l3 6q33 35 151 -78l7 7l27 -1l3 3v23 l55 -14l23 -25l-45 -46l-22 1l25 -28q85 61 155 52l11 -12v-6l8 9v23q14 -15 57 0l1 19l12 11l7 -9q-2 32 -8 58l-10 12v0l137 -58q-6 -74 -49 -120z" />
<glyph unicode="&#xc4;" horiz-adv-x="1032" d="M54 114h24l48 -48v-24l-48 -48h-24l-48 48v24zM153 634q209 646 333 728h48q62 0 120 -192l-72 -72v-48l9 -9q26 69 57 69h24l12 -36h18l48 -144l-7 -34l25 -74l-24 -24q62 0 123 -228h3l48 -48v-48h-24l-12 12h-18l24 -72l-14 -62q59 -85 140 -166v-96l-72 -72l-72 72 v48l24 24v24l-50 30l-4 -18l24 -24v-24h-24q-33 48 -384 72l-72 72h-72q0 -29 -18 -57v-3h-2q-38 -56 -148 -108h-24q-96 48 -96 144l30 85v47l24 24v24l7 -7zM372 816l-6 -6h-5l-25 -12l-42 84v-24q16 -64 120 -120l-24 -96h-48v48h-48l-42 -42l84 -42l-21 -129l3 -3v-48 h-24l-72 24v-24l-6 -12h144l96 -72h72l30 11v97h48l72 -48l41 14l-47 94l24 24h9l-60 144h-45l-24 96l13 39l-79 189l24 72h-48l-8 -4l26 -128q-48 0 -48 72h-24l-24 -72l24 -96zM174 462h-54v-36h54v36zM362 1683q84 7 71 -78l20 20h20v-60l-60 -60h-60l-34 34 q-41 18 -41 40v20q14 72 84 84zM666 1666q27 15 62 15l15 -15h2l40 -40q-27 -140 -80 -140l-20 20h-20l20 20v20l-7 42q-10 -19 -10 -47h-60v60q22 45 57 64v1h1z" />
<glyph unicode="&#xc5;" horiz-adv-x="1032" d="M54 114h24l48 -48v-24l-48 -48h-24l-48 48v24zM153 634q209 646 333 728h48q62 0 120 -192l-72 -72v-48l9 -9q26 69 57 69h24l12 -36h18l48 -144l-7 -34l25 -74l-24 -24q62 0 123 -228h3l48 -48v-48h-24l-12 12h-18l24 -72l-14 -62q59 -85 140 -166v-96l-72 -72l-72 72 v48l24 24v24l-50 30l-4 -18l24 -24v-24h-24q-33 48 -384 72l-72 72h-72q0 -29 -18 -57v-3h-2q-38 -56 -148 -108h-24q-96 48 -96 144l30 85v47l24 24v24l7 -7zM372 816l-6 -6h-5l-25 -12l-42 84v-24q16 -64 120 -120l-24 -96h-48v48h-48l-42 -42l84 -42l-21 -129l3 -3v-48 h-24l-72 24v-24l-6 -12h144l96 -72h72l30 11v97h48l72 -48l41 14l-47 94l24 24h9l-60 144h-45l-24 96l13 39l-79 189l24 72h-48l-8 -4l26 -128q-48 0 -48 72h-24l-24 -72l24 -96zM174 462h-54v-36h54v36zM481 1798q143 12 120 -135l34 35h34v-105l-101 -104h-102l-58 59 q-70 32 -70 70v34q24 126 143 146zM583 1603v0q9 39 -8 86l-43 41l-42 -44q21 -19 27 -39l-35 24l-14 13l-1 29l-14 -15l-28 -1q-37 -38 46 -154l57 2l1 1l22 1q23 25 31 55z" />
<glyph unicode="&#xc6;" horiz-adv-x="2048" />
<glyph unicode="&#xc7;" horiz-adv-x="948" d="M118 666l-48 -144h24q55 0 72 120l-24 24h-24zM910 354v-48l-96 -120h-72l-72 72q89 83 240 96zM533 24l-31 -6l-24 24l-72 24v24l-24 -24h-72l-168 240q-120 0 -120 408l48 48v24l-24 120h24l24 -24h24l48 144h-72q83 336 432 336q182 0 264 -168q71 0 120 -96v-48 l-72 -72l-96 168l-240 72q-264 -191 -264 -384q-60 0 -72 -96q72 -323 192 -504l-24 -72h48v48h72q312 -70 312 -144l-155 -28q21 -26 32 -44l10 -10q1 -9 2 -17q1 -3 1 -4q11 -81 38 -132q0 -145 -112 -217l-41 13l-41 -26h-10v30h-38l-3 -17h-10l-31 26q0 18 15 23 q-51 61 -75 103l-1 1v2q-18 32 -18 53v13l10 12q21 -3 40 -12l19 34l20 -26v-40q13 -14 23 -32q0 -6 1 -13q15 -12 27 -42q10 0 17 -1l-4 5l21 25h20l89 -49v33h-20q3 70 8 113l-6 -7h-10v38l10 13l11 -14q4 17 8 26h-8q-31 8 -31 89l-16 18l-17 -21h-10v37z" />
<glyph unicode="&#xc8;" horiz-adv-x="947" d="M135 1355l7 7l14 -14l61 -20q-2 5 -3 10l77 -15v36h48l192 -24l192 24l7 -9l84 12q96 -36 96 -72v-24l-120 -120h-87l-4 -3l-30 3h-23v2l-187 19l-93 -10l-8 -11h-48q-6 0 -12 3l-55 -6q0 144 -144 144l-3 3h-2v2l-19 19v24l24 24h24zM891 111l24 -24v-24l-24 -24h-48v24 zM118 1103v19l48 48l48 -48l-7 -39l12 -12v-96l-19 -28l14 -41l-23 -23l38 -38q12 13 33 13h144q18 0 29 -13l168 -14h67v27h144l7 -7l22 4v-24l-1 -1l20 -20l-24 -24h-24l-4 1l-39 -52h-227q6 -9 6 -21v-24l-48 -48h-229q-24 -3 -53 -3l-1 -1v-23q0 -328 -72 -408 q36 -96 72 -96h256q-66 41 -213 75v24l24 24l24 -24h48l65 9l12 12h70l21 3l24 -24v-24l53 18v27h82l9 3h120l5 -3l67 -45q0 -105 -193 -134q-67 -37 -162 -37h-384l-44 9l-9 -6h-24l-15 16l-28 5v22l-5 5v168l5 5v64l75 75h-8q-72 24 -72 144l67 67q-17 2 -38 2l-24 24v96 q0 42 56 47l-13 52v24l4 6l-47 63v240h48q0 -29 43 -40zM365 1828l74 -21l60 -105l84 -125l49 -106l-12 -31q-184 10 -354 242z" />
<glyph unicode="&#xc9;" horiz-adv-x="947" d="M135 1355l7 7l14 -14l61 -20q-2 5 -3 10l77 -15v36h48l192 -24l192 24l7 -9l84 12q96 -36 96 -72v-24l-120 -120h-87l-4 -3l-30 3h-23v2l-187 19l-93 -10l-8 -11h-48q-6 0 -12 3l-55 -6q0 144 -144 144l-3 3h-2v2l-19 19v24l24 24h24zM891 111l24 -24v-24l-24 -24h-48v24 zM118 1103v19l48 48l48 -48l-7 -39l12 -12v-96l-19 -28l14 -41l-23 -23l38 -38q12 13 33 13h144q18 0 29 -13l168 -14h67v27h144l7 -7l22 4v-24l-1 -1l20 -20l-24 -24h-24l-4 1l-39 -52h-227q6 -9 6 -21v-24l-48 -48h-229q-24 -3 -53 -3l-1 -1v-23q0 -328 -72 -408 q36 -96 72 -96h256q-66 41 -213 75v24l24 24l24 -24h48l65 9l12 12h70l21 3l24 -24v-24l53 18v27h82l9 3h120l5 -3l67 -45q0 -105 -193 -134q-67 -37 -162 -37h-384l-44 9l-9 -6h-24l-15 16l-28 5v22l-5 5v168l5 5v64l75 75h-8q-72 24 -72 144l67 67q-17 2 -38 2l-24 24v96 q0 42 56 47l-13 52v24l4 6l-47 63v240h48q0 -29 43 -40zM732 1690q-170 -232 -354 -242l-12 31l49 106l84 125l60 105l74 21z" />
<glyph unicode="&#xca;" horiz-adv-x="947" d="M135 1355l7 7l14 -14l61 -20q-2 5 -3 10l77 -15v36h48l192 -24l192 24l7 -9l84 12q96 -36 96 -72v-24l-120 -120h-87l-4 -3l-30 3h-23v2l-187 19l-93 -10l-8 -11h-48q-6 0 -12 3l-55 -6q0 144 -144 144l-3 3h-2v2l-19 19v24l24 24h24zM891 111l24 -24v-24l-24 -24h-48v24 zM118 1103v19l48 48l48 -48l-7 -39l12 -12v-96l-19 -28l14 -41l-23 -23l38 -38q12 13 33 13h144q18 0 29 -13l168 -14h67v27h144l7 -7l22 4v-24l-1 -1l20 -20l-24 -24h-24l-4 1l-39 -52h-227q6 -9 6 -21v-24l-48 -48h-229q-24 -3 -53 -3l-1 -1v-23q0 -328 -72 -408 q36 -96 72 -96h256q-66 41 -213 75v24l24 24l24 -24h48l65 9l12 12h70l21 3l24 -24v-24l53 18v27h82l9 3h120l5 -3l67 -45q0 -105 -193 -134q-67 -37 -162 -37h-384l-44 9l-9 -6h-24l-15 16l-28 5v22l-5 5v168l5 5v64l75 75h-8q-72 24 -72 144l67 67q-17 2 -38 2l-24 24v96 q0 42 56 47l-13 52v24l4 6l-47 63v240h48q0 -29 43 -40zM460 1817q196 -42 217 -184l-48 -78l-165 99q-114 -112 -176 -63l-41 35l45 93z" />
<glyph unicode="&#xcb;" horiz-adv-x="947" d="M135 1355l7 7l14 -14l61 -20q-2 5 -3 10l77 -15v36h48l192 -24l192 24l7 -9l84 12q96 -36 96 -72v-24l-120 -120h-87l-4 -3l-30 3h-23v2l-187 19l-93 -10l-8 -11h-48q-6 0 -12 3l-55 -6q0 144 -144 144l-3 3h-2v2l-19 19v24l24 24h24zM891 111l24 -24v-24l-24 -24h-48v24 zM118 1103v19l48 48l48 -48l-7 -39l12 -12v-96l-19 -28l14 -41l-23 -23l38 -38q12 13 33 13h144q18 0 29 -13l168 -14h67v27h144l7 -7l22 4v-24l-1 -1l20 -20l-24 -24h-24l-4 1l-39 -52h-227q6 -9 6 -21v-24l-48 -48h-229q-24 -3 -53 -3l-1 -1v-23q0 -328 -72 -408 q36 -96 72 -96h256q-66 41 -213 75v24l24 24l24 -24h48l65 9l12 12h70l21 3l24 -24v-24l53 18v27h82l9 3h120l5 -3l67 -45q0 -105 -193 -134q-67 -37 -162 -37h-384l-44 9l-9 -6h-24l-15 16l-28 5v22l-5 5v168l5 5v64l75 75h-8q-72 24 -72 144l67 67q-17 2 -38 2l-24 24v96 q0 42 56 47l-13 52v24l4 6l-47 63v240h48q0 -29 43 -40zM300 1733q84 7 71 -78l20 20h20v-60l-60 -60h-60l-34 34q-41 18 -41 40v20q14 72 84 84zM604 1716q27 15 62 15l15 -15h2l40 -40q-27 -140 -80 -140l-20 20h-20l20 20v20l-7 42q-10 -19 -10 -47h-60v60q22 45 57 64v1 h1z" />
<glyph unicode="&#xcc;" horiz-adv-x="635" d="M298 145l18 126v34l-18 -18v-142zM368 289l-4 -18l5 -14q1 14 1 30zM302 93l-10 10l6 40h-48l-48 48v120l48 72v48l-48 72v115l-6 13v312q33 251 102 327v1l72 96l48 -72v-24l-72 -72h-3l-3 -16v-24l72 -96v-48l-48 -48l-72 48l-24 -24v-91q47 37 126 59h24v-24l-48 -72 v-24l48 -72h-24q16 -39 18 -98l6 2v-24l-6 -6v-150l6 -36l-11 -11l-23 -93l34 -136v-24q0 -32 -7 -60l1 -4q-4 -10 -9 -19q-8 -21 -20 -38q-34 -55 -67 -63l-1 1q-8 -5 -17 -9l-48 48q30 21 52 46zM180 1828l74 -21l61 -105l83 -125l50 -106l-13 -31q-184 10 -354 242z" />
<glyph unicode="&#xcd;" horiz-adv-x="635" d="M298 145l18 126v34l-18 -18v-142zM368 289l-4 -18l5 -14q1 14 1 30zM302 93l-10 10l6 40h-48l-48 48v120l48 72v48l-48 72v115l-6 13v312q33 251 102 327v1l72 96l48 -72v-24l-72 -72h-3l-3 -16v-24l72 -96v-48l-48 -48l-72 48l-24 -24v-91q47 37 126 59h24v-24l-48 -72 v-24l48 -72h-24q16 -39 18 -98l6 2v-24l-6 -6v-150l6 -36l-11 -11l-23 -93l34 -136v-24q0 -32 -7 -60l1 -4q-4 -10 -9 -19q-8 -21 -20 -38q-34 -55 -67 -63l-1 1q-8 -5 -17 -9l-48 48q30 21 52 46zM593 1677q-170 -232 -354 -242l-12 31l49 106l84 125l60 105l74 21z" />
<glyph unicode="&#xce;" horiz-adv-x="648" d="M298 145l18 126v34l-18 -18v-142zM368 289l-4 -18l5 -14q1 14 1 30zM302 93l-10 10l6 40h-48l-48 48v120l48 72v48l-48 72v115l-6 13v312q33 251 102 327v1l72 96l48 -72v-24l-72 -72h-3l-3 -16v-24l72 -96v-48l-48 -48l-72 48l-24 -24v-91q47 37 126 59h24v-24l-48 -72 v-24l48 -72h-24q16 -39 18 -98l6 2v-24l-6 -6v-150l6 -36l-11 -11l-23 -93l34 -136v-24q0 -32 -7 -60l1 -4q-4 -10 -9 -19q-8 -21 -20 -38q-34 -55 -67 -63l-1 1q-8 -5 -17 -9l-48 48q30 21 52 46zM347 1805q196 -42 217 -184l-48 -78l-166 99q-113 -112 -175 -63l-41 35 l45 93z" />
<glyph unicode="&#xcf;" horiz-adv-x="635" d="M298 145l18 126v34l-18 -18v-142zM368 289l-4 -18l5 -14q1 14 1 30zM302 93l-10 10l6 40h-48l-48 48v120l48 72v48l-48 72v115l-6 13v312q33 251 102 327v1l72 96l48 -72v-24l-72 -72h-3l-3 -16v-24l72 -96v-48l-48 -48l-72 48l-24 -24v-91q47 37 126 59h24v-24l-48 -72 v-24l48 -72h-24q16 -39 18 -98l6 2v-24l-6 -6v-150l6 -36l-11 -11l-23 -93l34 -136v-24q0 -32 -7 -60l1 -4q-4 -10 -9 -19q-8 -21 -20 -38q-34 -55 -67 -63l-1 1q-8 -5 -17 -9l-48 48q30 21 52 46zM175 1733q84 7 71 -78l20 20h20v-60l-60 -60h-60l-34 34q-41 18 -41 40v20 q14 72 84 84zM479 1716q27 15 62 15l15 -15h2l40 -40q-27 -140 -80 -140l-20 20h-20l20 20v20l-7 42q-10 -19 -10 -47h-60v60q22 45 57 64v1h1z" />
<glyph unicode="&#xd0;" horiz-adv-x="1479" />
<glyph unicode="&#xd1;" horiz-adv-x="1096" d="M911 1277q15 -6 27 -27q16 -7 43 -7v-48l-24 -8q14 -71 14 -196l-13 -13l47 -47v-24l-48 -48l-48 72l36 36h-22l-72 72v192l19 19l-9 17l24 24h24q0 -8 2 -14zM69 139h144v-72l-48 -48h-24q-55 0 -72 120zM842 195l57 76l-72 168h-40l-22 -108v-72q0 -32 77 -64z M139 1125l-56 226l24 24h24l24 -24v-24l-24 -72h24q26 0 38 -29q27 41 44 41q44 -59 80 -110l6 2v-10q12 -17 23 -34q102 -88 145 -196l-21 -21q7 -23 7 -39l-10 -3v-9h22l2 2v46q58 0 138 -200l40 -52l-47 -47l13 -13l192 -120v15q-7 11 -14 21v48q0 14 14 26v34 q96 0 168 72l24 -24v-72q0 -21 -14 -33v-75l-24 -24l24 -24v-42l14 -18q-5 -89 -14 -142v-38q-8 -25 -27 -43l17 -17v-72l-48 -48l-75 90q-37 -6 -83 -6l-216 336l56 42q-114 35 -114 90l59 39q-97 14 -97 93h-1l-9 -36h-14v-12h-48q0 36 -14 68l-8 16q-18 32 -50 60l24 24 v24l-130 80v-68h-72l20 100l-130 80q0 48 72 48q12 27 22 50zM419 840l-14 -5v-24h14v29zM957 787l24 -24v-24l-24 -24h-48v24zM213 646l14 -39v-404h-48l-48 135v269l18 52l-8 8v72l48 48h24v-141zM813 907h24l72 -72l-72 -48l-24 24v96zM936 1596l-11 -30 q-100 -103 -343 5l-12 12q6 5 11 10q-38 19 -80 53l3 -36l-38 65q-15 13 -31 28q-8 3 -17 5q-50 -51 -72 -27q-6 -4 -12 -7l-18 -18l-44 -70q-45 9 -87 -21q13 -18 23 -34l-82 26q-4 24 3 40l-1 8q45 47 54 95q-7 7 -13 14l12 11l-1 24l12 12l135 -44v22l-67 51l12 11 q13 14 116 -32l3 6q33 35 151 -78l7 7l27 -1l3 3v23l55 -14l23 -25l-45 -46l-22 1l25 -28q85 61 155 52l11 -12v-6l8 9v23q14 -15 57 0l1 19l12 11l7 -9q-2 32 -8 58l-10 12v0l137 -58q-6 -74 -49 -120z" />
<glyph unicode="&#xd2;" d="M532 1233q-9 -13 -19 -26v-24h96v-24l-168 -24v48l-21 -11l19 -19l-168 -192h-24l5 48q-43 -17 -102 -35q-8 -205 -71 -205l-24 24v24l48 216h19q52 116 103 126l24 -24h17l5 42l-24 72q108 96 168 96l5 -1q73 31 165 31v-6h46q18 0 34 -34l16 16q50 0 114 -59 q10 -6 18 -18q50 -52 108 -139l-24 -95l6 -2q3 0 5 -1l83 -28v-107q24 -61 50 -151l-20 -7l42 -167h-48q0 94 -46 96v-42l24 -24v-24l-72 -48h-24l-48 48v18h-2v24l2 6v120l7 7l-57 227l6 6q-22 58 -52 125q-72 51 -221 117zM721 153l8 -50q28 25 53 44q-15 -2 -31 -2z M157 265h-6l-72 264v24l48 48l48 -48l-24 -72l32 -142l18 28l-24 24v24l24 120h24q119 -209 312 -386q30 26 94 44q0 53 144 168l48 144h48v-144l72 -96q-20 -40 -48 -66h2q-66 -102 -216 -168h-24l24 24v24l-12 87l-14 3q-52 -71 -99 -107q-17 -27 -91 -55q-142 0 -308 258 zM716 1201q-12 25 -24 52q6 -24 11 -52h13zM365 1828l74 -21l60 -105l84 -125l49 -106l-12 -31q-184 10 -354 242z" />
<glyph unicode="&#xd3;" d="M532 1233q-9 -13 -19 -26v-24h96v-24l-168 -24v48l-21 -11l19 -19l-168 -192h-24l5 48q-43 -17 -102 -35q-8 -205 -71 -205l-24 24v24l48 216h19q52 116 103 126l24 -24h17l5 42l-24 72q108 96 168 96l5 -1q73 31 165 31v-6h46q18 0 34 -34l16 16q50 0 114 -59 q10 -6 18 -18q50 -52 108 -139l-24 -95l6 -2q3 0 5 -1l83 -28v-107q24 -61 50 -151l-20 -7l42 -167h-48q0 94 -46 96v-42l24 -24v-24l-72 -48h-24l-48 48v18h-2v24l2 6v120l7 7l-57 227l6 6q-22 58 -52 125q-72 51 -221 117zM721 153l8 -50q28 25 53 44q-15 -2 -31 -2z M157 265h-6l-72 264v24l48 48l48 -48l-24 -72l32 -142l18 28l-24 24v24l24 120h24q119 -209 312 -386q30 26 94 44q0 53 144 168l48 144h48v-144l72 -96q-20 -40 -48 -66h2q-66 -102 -216 -168h-24l24 24v24l-12 87l-14 3q-52 -71 -99 -107q-17 -27 -91 -55q-142 0 -308 258 zM716 1201q-12 25 -24 52q6 -24 11 -52h13zM759 1682q-170 -232 -354 -242l-12 31l49 106l84 125l60 105l74 21z" />
<glyph unicode="&#xd4;" d="M532 1233q-9 -13 -19 -26v-24h96v-24l-168 -24v48l-21 -11l19 -19l-168 -192h-24l5 48q-43 -17 -102 -35q-8 -205 -71 -205l-24 24v24l48 216h19q52 116 103 126l24 -24h17l5 42l-24 72q108 96 168 96l5 -1q73 31 165 31v-6h46q18 0 34 -34l16 16q50 0 114 -59 q10 -6 18 -18q50 -52 108 -139l-24 -95l6 -2q3 0 5 -1l83 -28v-107q24 -61 50 -151l-20 -7l42 -167h-48q0 94 -46 96v-42l24 -24v-24l-72 -48h-24l-48 48v18h-2v24l2 6v120l7 7l-57 227l6 6q-22 58 -52 125q-72 51 -221 117zM721 153l8 -50q28 25 53 44q-15 -2 -31 -2z M157 265h-6l-72 264v24l48 48l48 -48l-24 -72l32 -142l18 28l-24 24v24l24 120h24q119 -209 312 -386q30 26 94 44q0 53 144 168l48 144h48v-144l72 -96q-20 -40 -48 -66h2q-66 -102 -216 -168h-24l24 24v24l-12 87l-14 3q-52 -71 -99 -107q-17 -27 -91 -55q-142 0 -308 258 zM716 1201q-12 25 -24 52q6 -24 11 -52h13zM556 1813q196 -42 217 -184l-48 -78l-165 99q-114 -112 -176 -63l-41 35l45 93z" />
<glyph unicode="&#xd5;" d="M532 1233q-9 -13 -19 -26v-24h96v-24l-168 -24v48l-21 -11l19 -19l-168 -192h-24l5 48q-43 -17 -102 -35q-8 -205 -71 -205l-24 24v24l48 216h19q52 116 103 126l24 -24h17l5 42l-24 72q108 96 168 96l5 -1q73 31 165 31v-6h46q18 0 34 -34l16 16q50 0 114 -59 q10 -6 18 -18q50 -52 108 -139l-24 -95l6 -2q3 0 5 -1l83 -28v-107q24 -61 50 -151l-20 -7l42 -167h-48q0 94 -46 96v-42l24 -24v-24l-72 -48h-24l-48 48v18h-2v24l2 6v120l7 7l-57 227l6 6q-22 58 -52 125q-72 51 -221 117zM721 153l8 -50q28 25 53 44q-15 -2 -31 -2z M157 265h-6l-72 264v24l48 48l48 -48l-24 -72l32 -142l18 28l-24 24v24l24 120h24q119 -209 312 -386q30 26 94 44q0 53 144 168l48 144h48v-144l72 -96q-20 -40 -48 -66h2q-66 -102 -216 -168h-24l24 24v24l-12 87l-14 3q-52 -71 -99 -107q-17 -27 -91 -55q-142 0 -308 258 zM716 1201q-12 25 -24 52q6 -24 11 -52h13zM907 1621l-11 -30q-100 -103 -343 5l-12 12q6 5 11 10q-38 19 -80 53l3 -36l-38 65q-15 13 -31 28q-8 3 -17 5q-50 -51 -72 -27q-6 -4 -12 -7l-18 -18l-44 -70q-45 9 -87 -21q13 -18 23 -34l-82 26q-4 24 3 40l-1 8q45 47 54 95 q-7 7 -13 14l12 11l-1 24l12 12l135 -44v22l-67 51l12 11q13 14 116 -32l3 6q33 35 151 -78l7 7l27 -1l3 3v23l55 -14l23 -25l-45 -46l-22 1l25 -28q85 61 155 52l11 -12v-6l8 9v23q14 -15 57 0l1 19l12 11l7 -9q-2 32 -8 58l-10 12v0l137 -58q-6 -74 -49 -120z" />
<glyph unicode="&#xd6;" d="M532 1233q-9 -13 -19 -26v-24h96v-24l-168 -24v48l-21 -11l19 -19l-168 -192h-24l5 48q-43 -17 -102 -35q-8 -205 -71 -205l-24 24v24l48 216h19q52 116 103 126l24 -24h17l5 42l-24 72q108 96 168 96l5 -1q73 31 165 31v-6h46q18 0 34 -34l16 16q50 0 114 -59 q10 -6 18 -18q50 -52 108 -139l-24 -95l6 -2q3 0 5 -1l83 -28v-107q24 -61 50 -151l-20 -7l42 -167h-48q0 94 -46 96v-42l24 -24v-24l-72 -48h-24l-48 48v18h-2v24l2 6v120l7 7l-57 227l6 6q-22 58 -52 125q-72 51 -221 117zM721 153l8 -50q28 25 53 44q-15 -2 -31 -2z M157 265h-6l-72 264v24l48 48l48 -48l-24 -72l32 -142l18 28l-24 24v24l24 120h24q119 -209 312 -386q30 26 94 44q0 53 144 168l48 144h48v-144l72 -96q-20 -40 -48 -66h2q-66 -102 -216 -168h-24l24 24v24l-12 87l-14 3q-52 -71 -99 -107q-17 -27 -91 -55q-142 0 -308 258 zM716 1201q-12 25 -24 52q6 -24 11 -52h13zM379 1668q84 7 71 -78l20 20h20v-60l-60 -60h-60l-34 34q-41 18 -41 40v20q14 72 84 84zM683 1651q27 15 62 15l15 -15h2l40 -40q-27 -140 -80 -140l-20 20h-20l20 20v20l-7 42q-10 -19 -10 -47h-60v60q22 45 57 64v1h1z" />
<glyph unicode="&#xd7;" horiz-adv-x="1196" />
<glyph unicode="&#xd8;" d="M721 153l8 -50q28 25 53 44q-15 -2 -31 -2zM716 1201q-12 25 -24 52q6 -24 11 -52h13zM736 1127q-71 47 -204 106q-9 -13 -19 -26v-24h96v-24l-168 -24v48l-21 -11l19 -19l-168 -192h-24l5 48q-43 -17 -102 -35q-8 -205 -71 -205l-24 24v24l48 216h19q52 116 103 126 l24 -24h17l5 42l-24 72q108 96 168 96l5 -1q73 31 165 31v-6h46q18 0 34 -34l16 16q50 0 114 -59q10 -6 18 -18q13 -13 26 -29q57 60 96 83l1 1l105 74l-23 -92l-16 -25l-89 -49l-2 1l-12 -16l-17 -25l-1 -5q19 -26 40 -57l-24 -95l6 -2q3 0 5 -1l83 -28v-107 q24 -61 50 -151l-20 -7l42 -167h-48q0 94 -46 96v-42l24 -24v-24l-72 -48h-24l-48 48v18h-2v24l2 6v120l7 7l-57 227l6 6q-3 8 -6 17l-35 -19l-7 76l-29 -17l-63 -94q51 21 110 15l13 -8l-16 -25l-76 -58l-17 -25l-22 -92l-14 9q-18 -47 -57 -109h5l-17 -25l-7 -4l-103 -156 l-21 -40l-14 -8l-74 -85q81 -101 182 -194q30 26 94 44q0 53 144 168l48 144h48v-144l72 -96q-20 -40 -48 -66h2q-66 -102 -216 -168h-24l24 24v24l-12 87l-14 3q-52 -71 -99 -107q-17 -27 -91 -55q-102 0 -217 134q-15 -22 -31 -40l-2 -4q-9 -9 -18 -17q-19 -19 -37 -32 q-56 -45 -80 -42v2q-8 -3 -15 -4l6 68q31 11 60 29l2 14l30 39l-26 18l6 67l16 24l-2 2h-6l-72 264v24l48 48l48 -48l-24 -72l32 -142l18 28l-24 24v24l24 120h24q34 -59 73 -115l3 2l33 50l23 92l79 120l5 15l214 325q43 57 81 103z" />
<glyph unicode="&#xd9;" horiz-adv-x="1089" d="M203 224v-72h48v24zM184 1256l-18 47l24 24h24l48 -48v-624l-48 -48q-144 84 -144 312l78 89l-17 224l24 24h29zM482 98l27 -42h30l24 -24h24v54l-13 17l1 1h-84zM905 500l4 36l-23 23h-24l24 288v312l25 25h-12l-48 48l24 24h24l24 -24v-36l59 59l24 -24v-504l-24 -216 l24 -96q-84 -408 -360 -408l-6 8q-37 -7 -77 -7h-60l-1 -1h-24q-148 0 -183 52q-164 23 -164 189l-72 72q42 108 144 168h24q0 -150 120 -264l-24 -24h-24l24 -72l9 3q26 47 26 116l168 -24h48l5 1l128 48h24l-29 -44l20 -52h9l155 44v147zM227 1098l11 13l-11 29v-42z M378 1828l74 -21l60 -105l84 -125l49 -106l-12 -31q-184 10 -354 242z" />
<glyph unicode="&#xda;" horiz-adv-x="1089" d="M203 224v-72h48v24zM184 1256l-18 47l24 24h24l48 -48v-624l-48 -48q-144 84 -144 312l78 89l-17 224l24 24h29zM482 98l27 -42h30l24 -24h24v54l-13 17l1 1h-84zM905 500l4 36l-23 23h-24l24 288v312l25 25h-12l-48 48l24 24h24l24 -24v-36l59 59l24 -24v-504l-24 -216 l24 -96q-84 -408 -360 -408l-6 8q-37 -7 -77 -7h-60l-1 -1h-24q-148 0 -183 52q-164 23 -164 189l-72 72q42 108 144 168h24q0 -150 120 -264l-24 -24h-24l24 -72l9 3q26 47 26 116l168 -24h48l5 1l128 48h24l-29 -44l20 -52h9l155 44v147zM227 1098l11 13l-11 29v-42z M781 1682q-170 -232 -354 -242l-12 31l49 106l84 125l60 105l74 21z" />
<glyph unicode="&#xdb;" horiz-adv-x="1089" d="M203 224v-72h48v24zM184 1256l-18 47l24 24h24l48 -48v-624l-48 -48q-144 84 -144 312l78 89l-17 224l24 24h29zM482 98l27 -42h30l24 -24h24v54l-13 17l1 1h-84zM905 500l4 36l-23 23h-24l24 288v312l25 25h-12l-48 48l24 24h24l24 -24v-36l59 59l24 -24v-504l-24 -216 l24 -96q-84 -408 -360 -408l-6 8q-37 -7 -77 -7h-60l-1 -1h-24q-148 0 -183 52q-164 23 -164 189l-72 72q42 108 144 168h24q0 -150 120 -264l-24 -24h-24l24 -72l9 3q26 47 26 116l168 -24h48l5 1l128 48h24l-29 -44l20 -52h9l155 44v147zM227 1098l11 13l-11 29v-42z M571 1821q196 -42 217 -184l-48 -78l-165 99q-114 -112 -176 -63l-41 35l45 93z" />
<glyph unicode="&#xdc;" horiz-adv-x="1089" d="M203 224v-72h48v24zM184 1256l-18 47l24 24h24l48 -48v-624l-48 -48q-144 84 -144 312l78 89l-17 224l24 24h29zM482 98l27 -42h30l24 -24h24v54l-13 17l1 1h-84zM905 500l4 36l-23 23h-24l24 288v312l25 25h-12l-48 48l24 24h24l24 -24v-36l59 59l24 -24v-504l-24 -216 l24 -96q-84 -408 -360 -408l-6 8q-37 -7 -77 -7h-60l-1 -1h-24q-148 0 -183 52q-164 23 -164 189l-72 72q42 108 144 168h24q0 -150 120 -264l-24 -24h-24l24 -72l9 3q26 47 26 116l168 -24h48l5 1l128 48h24l-29 -44l20 -52h9l155 44v147zM227 1098l11 13l-11 29v-42z M404 1627q84 7 71 -78l20 20h20v-60l-60 -60h-60l-34 34q-41 18 -41 40v20q14 72 84 84zM708 1610q27 15 62 15l15 -15h2l40 -40q-27 -140 -80 -140l-20 20h-20l20 20v20l-7 42q-10 -19 -10 -47h-60v60q22 45 57 64v1h1z" />
<glyph unicode="&#xdd;" horiz-adv-x="1366" />
<glyph unicode="&#xde;" horiz-adv-x="1366" />
<glyph unicode="&#xdf;" d="M857 247l24 60h-27l-15 -60h18zM871 439l10 12v120h-48q-7 0 -13 -2q19 -48 19 -106l24 -24h8zM449 1050q-1 2 -1 3h-6q3 -1 7 -3zM670 860q43 -3 -48 -108q11 -8 22 -14l9 -22l-2 22h24q360 -168 360 -384l-18 -43q-3 -98 -76 -183l-26 -62h-24l-7 7q-27 -22 -59 -43 h-24l-2 2l-124 -62v50q-38 -7 -88 -14q-30 0 -61 16q-16 -12 -29 -28l-120 120v96l48 48h72q127 -127 179 -142l95 -10l30 44v6l-35 35l-61 -41h-48v48q42 0 90 24v12h22q32 19 66 48h-16v24l16 21q-29 63 -58 63l24 24v18l-6 -6h-24q-81 72 -109 228q-136 -11 -136 62l4 8 q-61 71 -61 100v24l95 -19q-22 15 -36 67l85 39v24l24 24v24q-109 46 -96 45q13 18 27 31q-1 14 -2 29l28 68l-31 52q-38 -2 -38 -72l-69 -31v-18l-14 2l-1 -2h-21q-15 0 -24 10l-82 14l68 -23q-77 -84 -125 -119l1 -2v-72h6v-72l-6 -6v-36l6 -6v-192h-21q-23 15 -43 29 l-63 -125v-72q40 0 66 -5v5l40 48h21v-72l-9 -10q3 -6 3 -14h-15l21 -24v-216q-16 -144 -61 -144v72l20 24v24h-5q-24 0 -33 24h-2q-8 -42 -15 -71l29 -49h-40l-5 6q-14 -30 -30 -30l-21 24v48q3 6 6 11l-31 37v432l41 72l-41 72v216h5l61 24l-20 120l40 48v-96q9 4 17 7 q30 191 107 271l-2 10h13q52 48 124 48h-26l-97 -72l230 11l-72 -11v24h20q63 0 182 -84l9 -11l-1 -6q18 -39 36 -90h26l8 -38q7 -4 13 -9l-5 -26l5 -23l-13 -15v-3q4 -17 7 -30l-64 -97zM605 839l5 6l-2 2q-2 -4 -3 -8z" />
<glyph unicode="&#xe0;" horiz-adv-x="1032" d="M57 114h24l48 -48v-24l-48 -48h-24l-48 48v24zM156 634q209 646 333 728h48q62 0 120 -192l-72 -72v-48l9 -9q26 69 57 69h24l12 -36h18l48 -144l-7 -34l25 -74l-24 -24q62 0 123 -228h3l48 -48v-48h-24l-12 12h-18l24 -72l-14 -62q59 -85 140 -166v-96l-72 -72l-72 72 v48l24 24v24l-50 30l-4 -18l24 -24v-24h-24q-33 48 -384 72l-72 72h-72q0 -29 -18 -57v-3h-2q-38 -56 -148 -108h-24q-96 48 -96 144l30 85v47l24 24v24l7 -7zM375 816l-6 -6h-5l-25 -12l-42 84v-24q16 -64 120 -120l-24 -96h-48v48h-48l-42 -42l84 -42l-21 -129l3 -3v-48 h-24l-72 24v-24l-6 -12h144l96 -72h72l30 11v97h48l72 -48l41 14l-47 94l24 24h9l-60 144h-45l-24 96l13 39l-79 189l24 72h-48l-8 -4l26 -128q-48 0 -48 72h-24l-24 -72l24 -96zM177 462h-54v-36h54v36zM301 1828l74 -21l60 -105l84 -125l49 -106l-12 -31q-184 10 -354 242 z" />
<glyph unicode="&#xe1;" horiz-adv-x="1032" d="M54 114h24l48 -48v-24l-48 -48h-24l-48 48v24zM153 634q209 646 333 728h48q62 0 120 -192l-72 -72v-48l9 -9q26 69 57 69h24l12 -36h18l48 -144l-7 -34l25 -74l-24 -24q62 0 123 -228h3l48 -48v-48h-24l-12 12h-18l24 -72l-14 -62q59 -85 140 -166v-96l-72 -72l-72 72 v48l24 24v24l-50 30l-4 -18l24 -24v-24h-24q-33 48 -384 72l-72 72h-72q0 -29 -18 -57v-3h-2q-38 -56 -148 -108h-24q-96 48 -96 144l30 85v47l24 24v24l7 -7zM372 816l-6 -6h-5l-25 -12l-42 84v-24q16 -64 120 -120l-24 -96h-48v48h-48l-42 -42l84 -42l-21 -129l3 -3v-48 h-24l-72 24v-24l-6 -12h144l96 -72h72l30 11v97h48l72 -48l41 14l-47 94l24 24h9l-60 144h-45l-24 96l13 39l-79 189l24 72h-48l-8 -4l26 -128q-48 0 -48 72h-24l-24 -72l24 -96zM174 462h-54v-36h54v36zM704 1682q-170 -232 -354 -242l-12 31l49 106l84 125l60 105l74 21z " />
<glyph unicode="&#xe2;" horiz-adv-x="1032" d="M54 114h24l48 -48v-24l-48 -48h-24l-48 48v24zM153 634q209 646 333 728h48q62 0 120 -192l-72 -72v-48l9 -9q26 69 57 69h24l12 -36h18l48 -144l-7 -34l25 -74l-24 -24q62 0 123 -228h3l48 -48v-48h-24l-12 12h-18l24 -72l-14 -62q59 -85 140 -166v-96l-72 -72l-72 72 v48l24 24v24l-50 30l-4 -18l24 -24v-24h-24q-33 48 -384 72l-72 72h-72q0 -29 -18 -57v-3h-2q-38 -56 -148 -108h-24q-96 48 -96 144l30 85v47l24 24v24l7 -7zM372 816l-6 -6h-5l-25 -12l-42 84v-24q16 -64 120 -120l-24 -96h-48v48h-48l-42 -42l84 -42l-21 -129l3 -3v-48 h-24l-72 24v-24l-6 -12h144l96 -72h72l30 11v97h48l72 -48l41 14l-47 94l24 24h9l-60 144h-45l-24 96l13 39l-79 189l24 72h-48l-8 -4l26 -128q-48 0 -48 72h-24l-24 -72l24 -96zM174 462h-54v-36h54v36zM511 1809q196 -42 217 -184l-48 -78l-165 99q-114 -112 -176 -63 l-41 35l45 93z" />
<glyph unicode="&#xe3;" horiz-adv-x="1032" d="M54 114h24l48 -48v-24l-48 -48h-24l-48 48v24zM153 634q209 646 333 728h48q62 0 120 -192l-72 -72v-48l9 -9q26 69 57 69h24l12 -36h18l48 -144l-7 -34l25 -74l-24 -24q62 0 123 -228h3l48 -48v-48h-24l-12 12h-18l24 -72l-14 -62q59 -85 140 -166v-96l-72 -72l-72 72 v48l24 24v24l-50 30l-4 -18l24 -24v-24h-24q-33 48 -384 72l-72 72h-72q0 -29 -18 -57v-3h-2q-38 -56 -148 -108h-24q-96 48 -96 144l30 85v47l24 24v24l7 -7zM372 816l-6 -6h-5l-25 -12l-42 84v-24q16 -64 120 -120l-24 -96h-48v48h-48l-42 -42l84 -42l-21 -129l3 -3v-48 h-24l-72 24v-24l-6 -12h144l96 -72h72l30 11v97h48l72 -48l41 14l-47 94l24 24h9l-60 144h-45l-24 96l13 39l-79 189l24 72h-48l-8 -4l26 -128q-48 0 -48 72h-24l-24 -72l24 -96zM174 462h-54v-36h54v36zM907 1621l-11 -30q-100 -103 -343 5l-12 12q6 5 11 10q-38 19 -80 53 l3 -36l-38 65q-15 13 -31 28q-8 3 -17 5q-50 -51 -72 -27q-6 -4 -12 -7l-18 -18l-44 -70q-45 9 -87 -21q13 -18 23 -34l-82 26q-4 24 3 40l-1 8q45 47 54 95q-7 7 -13 14l12 11l-1 24l12 12l135 -44v22l-67 51l12 11q13 14 116 -32l3 6q33 35 151 -78l7 7l27 -1l3 3v23 l55 -14l23 -25l-45 -46l-22 1l25 -28q85 61 155 52l11 -12v-6l8 9v23q14 -15 57 0l1 19l12 11l7 -9q-2 32 -8 58l-10 12v0l137 -58q-6 -74 -49 -120z" />
<glyph unicode="&#xe4;" horiz-adv-x="1032" d="M54 114h24l48 -48v-24l-48 -48h-24l-48 48v24zM153 634q209 646 333 728h48q62 0 120 -192l-72 -72v-48l9 -9q26 69 57 69h24l12 -36h18l48 -144l-7 -34l25 -74l-24 -24q62 0 123 -228h3l48 -48v-48h-24l-12 12h-18l24 -72l-14 -62q59 -85 140 -166v-96l-72 -72l-72 72 v48l24 24v24l-50 30l-4 -18l24 -24v-24h-24q-33 48 -384 72l-72 72h-72q0 -29 -18 -57v-3h-2q-38 -56 -148 -108h-24q-96 48 -96 144l30 85v47l24 24v24l7 -7zM372 816l-6 -6h-5l-25 -12l-42 84v-24q16 -64 120 -120l-24 -96h-48v48h-48l-42 -42l84 -42l-21 -129l3 -3v-48 h-24l-72 24v-24l-6 -12h144l96 -72h72l30 11v97h48l72 -48l41 14l-47 94l24 24h9l-60 144h-45l-24 96l13 39l-79 189l24 72h-48l-8 -4l26 -128q-48 0 -48 72h-24l-24 -72l24 -96zM174 462h-54v-36h54v36zM297 1733q84 7 71 -78l20 20h20v-60l-60 -60h-60l-34 34 q-41 18 -41 40v20q14 72 84 84zM601 1716q27 15 62 15l15 -15h2l40 -40q-27 -140 -80 -140l-20 20h-20l20 20v20l-7 42q-10 -19 -10 -47h-60v60q22 45 57 64v1h1z" />
<glyph unicode="&#xe5;" horiz-adv-x="1032" d="M54 114h24l48 -48v-24l-48 -48h-24l-48 48v24zM153 634q209 646 333 728h48q62 0 120 -192l-72 -72v-48l9 -9q26 69 57 69h24l12 -36h18l48 -144l-7 -34l25 -74l-24 -24q62 0 123 -228h3l48 -48v-48h-24l-12 12h-18l24 -72l-14 -62q59 -85 140 -166v-96l-72 -72l-72 72 v48l24 24v24l-50 30l-4 -18l24 -24v-24h-24q-33 48 -384 72l-72 72h-72q0 -29 -18 -57v-3h-2q-38 -56 -148 -108h-24q-96 48 -96 144l30 85v47l24 24v24l7 -7zM372 816l-6 -6h-5l-25 -12l-42 84v-24q16 -64 120 -120l-24 -96h-48v48h-48l-42 -42l84 -42l-21 -129l3 -3v-48 h-24l-72 24v-24l-6 -12h144l96 -72h72l30 11v97h48l72 -48l41 14l-47 94l24 24h9l-60 144h-45l-24 96l13 39l-79 189l24 72h-48l-8 -4l26 -128q-48 0 -48 72h-24l-24 -72l24 -96zM174 462h-54v-36h54v36zM481 1798q143 12 120 -135l34 35h34v-105l-101 -104h-102l-58 59 q-70 32 -70 70v34q24 126 143 146zM583 1603v0q9 39 -8 86l-43 41l-42 -44q21 -19 27 -39l-35 24l-14 13l-1 29l-14 -15l-28 -1q-37 -38 46 -154l57 2l1 1l22 1q23 25 31 55z" />
<glyph unicode="&#xe6;" horiz-adv-x="1821" />
<glyph unicode="&#xe7;" horiz-adv-x="948" d="M118 666l-48 -144h24q55 0 72 120l-24 24h-24zM910 354v-48l-96 -120h-72l-72 72q89 83 240 96zM533 24l-31 -6l-24 24l-72 24v24l-24 -24h-72l-168 240q-120 0 -120 408l48 48v24l-24 120h24l24 -24h24l48 144h-72q83 336 432 336q182 0 264 -168q71 0 120 -96v-48 l-72 -72l-96 168l-240 72q-264 -191 -264 -384q-60 0 -72 -96q72 -323 192 -504l-24 -72h48v48h72q312 -70 312 -144l-155 -28q21 -26 32 -44l10 -10q1 -9 2 -17q1 -3 1 -4q11 -81 38 -132q0 -145 -112 -217l-41 13l-41 -26h-10v30h-38l-3 -17h-10l-31 26q0 18 15 23 q-51 61 -75 103l-1 1v2q-18 32 -18 53v13l10 12q21 -3 40 -12l19 34l20 -26v-40q13 -14 23 -32q0 -6 1 -13q15 -12 27 -42q10 0 17 -1l-4 5l21 25h20l89 -49v33h-20q3 70 8 113l-6 -7h-10v38l10 13l11 -14q4 17 8 26h-8q-31 8 -31 89l-16 18l-17 -21h-10v37z" />
<glyph unicode="&#xe8;" horiz-adv-x="947" d="M135 1355l7 7l14 -14l61 -20q-2 5 -3 10l77 -15v36h48l192 -24l192 24l7 -9l84 12q96 -36 96 -72v-24l-120 -120h-87l-4 -3l-30 3h-23v2l-187 19l-93 -10l-8 -11h-48q-6 0 -12 3l-55 -6q0 144 -144 144l-3 3h-2v2l-19 19v24l24 24h24zM891 111l24 -24v-24l-24 -24h-48v24 zM118 1103v19l48 48l48 -48l-7 -39l12 -12v-96l-19 -28l14 -41l-23 -23l38 -38q12 13 33 13h144q18 0 29 -13l168 -14h67v27h144l7 -7l22 4v-24l-1 -1l20 -20l-24 -24h-24l-4 1l-39 -52h-227q6 -9 6 -21v-24l-48 -48h-229q-24 -3 -53 -3l-1 -1v-23q0 -328 -72 -408 q36 -96 72 -96h256q-66 41 -213 75v24l24 24l24 -24h48l65 9l12 12h70l21 3l24 -24v-24l53 18v27h82l9 3h120l5 -3l67 -45q0 -105 -193 -134q-67 -37 -162 -37h-384l-44 9l-9 -6h-24l-15 16l-28 5v22l-5 5v168l5 5v64l75 75h-8q-72 24 -72 144l67 67q-17 2 -38 2l-24 24v96 q0 42 56 47l-13 52v24l4 6l-47 63v240h48q0 -29 43 -40zM365 1828l74 -21l60 -105l84 -125l49 -106l-12 -31q-184 10 -354 242z" />
<glyph unicode="&#xe9;" horiz-adv-x="947" d="M135 1355l7 7l14 -14l61 -20q-2 5 -3 10l77 -15v36h48l192 -24l192 24l7 -9l84 12q96 -36 96 -72v-24l-120 -120h-87l-4 -3l-30 3h-23v2l-187 19l-93 -10l-8 -11h-48q-6 0 -12 3l-55 -6q0 144 -144 144l-3 3h-2v2l-19 19v24l24 24h24zM891 111l24 -24v-24l-24 -24h-48v24 zM118 1103v19l48 48l48 -48l-7 -39l12 -12v-96l-19 -28l14 -41l-23 -23l38 -38q12 13 33 13h144q18 0 29 -13l168 -14h67v27h144l7 -7l22 4v-24l-1 -1l20 -20l-24 -24h-24l-4 1l-39 -52h-227q6 -9 6 -21v-24l-48 -48h-229q-24 -3 -53 -3l-1 -1v-23q0 -328 -72 -408 q36 -96 72 -96h256q-66 41 -213 75v24l24 24l24 -24h48l65 9l12 12h70l21 3l24 -24v-24l53 18v27h82l9 3h120l5 -3l67 -45q0 -105 -193 -134q-67 -37 -162 -37h-384l-44 9l-9 -6h-24l-15 16l-28 5v22l-5 5v168l5 5v64l75 75h-8q-72 24 -72 144l67 67q-17 2 -38 2l-24 24v96 q0 42 56 47l-13 52v24l4 6l-47 63v240h48q0 -29 43 -40zM709 1682q-170 -232 -354 -242l-12 31l49 106l84 125l60 105l74 21z" />
<glyph unicode="&#xea;" horiz-adv-x="947" d="M135 1355l7 7l14 -14l61 -20q-2 5 -3 10l77 -15v36h48l192 -24l192 24l7 -9l84 12q96 -36 96 -72v-24l-120 -120h-87l-4 -3l-30 3h-23v2l-187 19l-93 -10l-8 -11h-48q-6 0 -12 3l-55 -6q0 144 -144 144l-3 3h-2v2l-19 19v24l24 24h24zM891 111l24 -24v-24l-24 -24h-48v24 zM118 1103v19l48 48l48 -48l-7 -39l12 -12v-96l-19 -28l14 -41l-23 -23l38 -38q12 13 33 13h144q18 0 29 -13l168 -14h67v27h144l7 -7l22 4v-24l-1 -1l20 -20l-24 -24h-24l-4 1l-39 -52h-227q6 -9 6 -21v-24l-48 -48h-229q-24 -3 -53 -3l-1 -1v-23q0 -328 -72 -408 q36 -96 72 -96h256q-66 41 -213 75v24l24 24l24 -24h48l65 9l12 12h70l21 3l24 -24v-24l53 18v27h82l9 3h120l5 -3l67 -45q0 -105 -193 -134q-67 -37 -162 -37h-384l-44 9l-9 -6h-24l-15 16l-28 5v22l-5 5v168l5 5v64l75 75h-8q-72 24 -72 144l67 67q-17 2 -38 2l-24 24v96 q0 42 56 47l-13 52v24l4 6l-47 63v240h48q0 -29 43 -40zM460 1817q196 -42 217 -184l-48 -78l-165 99q-114 -112 -176 -63l-41 35l45 93z" />
<glyph unicode="&#xeb;" horiz-adv-x="947" d="M135 1355l7 7l14 -14l61 -20q-2 5 -3 10l77 -15v36h48l192 -24l192 24l7 -9l84 12q96 -36 96 -72v-24l-120 -120h-87l-4 -3l-30 3h-23v2l-187 19l-93 -10l-8 -11h-48q-6 0 -12 3l-55 -6q0 144 -144 144l-3 3h-2v2l-19 19v24l24 24h24zM891 111l24 -24v-24l-24 -24h-48v24 zM118 1103v19l48 48l48 -48l-7 -39l12 -12v-96l-19 -28l14 -41l-23 -23l38 -38q12 13 33 13h144q18 0 29 -13l168 -14h67v27h144l7 -7l22 4v-24l-1 -1l20 -20l-24 -24h-24l-4 1l-39 -52h-227q6 -9 6 -21v-24l-48 -48h-229q-24 -3 -53 -3l-1 -1v-23q0 -328 -72 -408 q36 -96 72 -96h256q-66 41 -213 75v24l24 24l24 -24h48l65 9l12 12h70l21 3l24 -24v-24l53 18v27h82l9 3h120l5 -3l67 -45q0 -105 -193 -134q-67 -37 -162 -37h-384l-44 9l-9 -6h-24l-15 16l-28 5v22l-5 5v168l5 5v64l75 75h-8q-72 24 -72 144l67 67q-17 2 -38 2l-24 24v96 q0 42 56 47l-13 52v24l4 6l-47 63v240h48q0 -29 43 -40zM300 1733q84 7 71 -78l20 20h20v-60l-60 -60h-60l-34 34q-41 18 -41 40v20q14 72 84 84zM604 1716q27 15 62 15l15 -15h2l40 -40q-27 -140 -80 -140l-20 20h-20l20 20v20l-7 42q-10 -19 -10 -47h-60v60q22 45 57 64v1 h1z" />
<glyph unicode="&#xec;" horiz-adv-x="635" d="M298 145l18 126v34l-18 -18v-142zM368 289l-4 -18l5 -14q1 14 1 30zM302 93l-10 10l6 40h-48l-48 48v120l48 72v48l-48 72v115l-6 13v312q33 251 102 327v1l72 96l48 -72v-24l-72 -72h-3l-3 -16v-24l72 -96v-48l-48 -48l-72 48l-24 -24v-91q47 37 126 59h24v-24l-48 -72 v-24l48 -72h-24q16 -39 18 -98l6 2v-24l-6 -6v-150l6 -36l-11 -11l-23 -93l34 -136v-24q0 -32 -7 -60l1 -4q-4 -10 -9 -19q-8 -21 -20 -38q-34 -55 -67 -63l-1 1q-8 -5 -17 -9l-48 48q30 21 52 46zM180 1828l74 -21l61 -105l83 -125l50 -106l-13 -31q-184 10 -354 242z" />
<glyph unicode="&#xed;" horiz-adv-x="635" d="M298 145l18 126v34l-18 -18v-142zM368 289l-4 -18l5 -14q1 14 1 30zM302 93l-10 10l6 40h-48l-48 48v120l48 72v48l-48 72v115l-6 13v312q33 251 102 327v1l72 96l48 -72v-24l-72 -72h-3l-3 -16v-24l72 -96v-48l-48 -48l-72 48l-24 -24v-91q47 37 126 59h24v-24l-48 -72 v-24l48 -72h-24q16 -39 18 -98l6 2v-24l-6 -6v-150l6 -36l-11 -11l-23 -93l34 -136v-24q0 -32 -7 -60l1 -4q-4 -10 -9 -19q-8 -21 -20 -38q-34 -55 -67 -63l-1 1q-8 -5 -17 -9l-48 48q30 21 52 46zM593 1677q-170 -232 -354 -242l-12 31l49 106l84 125l60 105l74 21z" />
<glyph unicode="&#xee;" horiz-adv-x="648" d="M298 145l18 126v34l-18 -18v-142zM368 289l-4 -18l5 -14q1 14 1 30zM302 93l-10 10l6 40h-48l-48 48v120l48 72v48l-48 72v115l-6 13v312q33 251 102 327v1l72 96l48 -72v-24l-72 -72h-3l-3 -16v-24l72 -96v-48l-48 -48l-72 48l-24 -24v-91q47 37 126 59h24v-24l-48 -72 v-24l48 -72h-24q16 -39 18 -98l6 2v-24l-6 -6v-150l6 -36l-11 -11l-23 -93l34 -136v-24q0 -32 -7 -60l1 -4q-4 -10 -9 -19q-8 -21 -20 -38q-34 -55 -67 -63l-1 1q-8 -5 -17 -9l-48 48q30 21 52 46zM347 1805q196 -42 217 -184l-48 -78l-166 99q-113 -112 -175 -63l-41 35 l45 93z" />
<glyph unicode="&#xef;" horiz-adv-x="635" d="M298 145l18 126v34l-18 -18v-142zM368 289l-4 -18l5 -14q1 14 1 30zM302 93l-10 10l6 40h-48l-48 48v120l48 72v48l-48 72v115l-6 13v312q33 251 102 327v1l72 96l48 -72v-24l-72 -72h-3l-3 -16v-24l72 -96v-48l-48 -48l-72 48l-24 -24v-91q47 37 126 59h24v-24l-48 -72 v-24l48 -72h-24q16 -39 18 -98l6 2v-24l-6 -6v-150l6 -36l-11 -11l-23 -93l34 -136v-24q0 -32 -7 -60l1 -4q-4 -10 -9 -19q-8 -21 -20 -38q-34 -55 -67 -63l-1 1q-8 -5 -17 -9l-48 48q30 21 52 46zM175 1733q84 7 71 -78l20 20h20v-60l-60 -60h-60l-34 34q-41 18 -41 40v20 q14 72 84 84zM479 1716q27 15 62 15l15 -15h2l40 -40q-27 -140 -80 -140l-20 20h-20l20 20v20l-7 42q-10 -19 -10 -47h-60v60q22 45 57 64v1h1z" />
<glyph unicode="&#xf0;" horiz-adv-x="1139" />
<glyph unicode="&#xf1;" horiz-adv-x="1096" d="M911 1277q15 -6 27 -27q16 -7 43 -7v-48l-24 -8q14 -71 14 -196l-13 -13l47 -47v-24l-48 -48l-48 72l36 36h-22l-72 72v192l19 19l-9 17l24 24h24q0 -8 2 -14zM69 139h144v-72l-48 -48h-24q-55 0 -72 120zM842 195l57 76l-72 168h-40l-22 -108v-72q0 -32 77 -64z M139 1125l-56 226l24 24h24l24 -24v-24l-24 -72h24q26 0 38 -29q27 41 44 41q44 -59 80 -110l6 2v-10q12 -17 23 -34q102 -88 145 -196l-21 -21q7 -23 7 -39l-10 -3v-9h22l2 2v46q58 0 138 -200l40 -52l-47 -47l13 -13l192 -120v15q-7 11 -14 21v48q0 14 14 26v34 q96 0 168 72l24 -24v-72q0 -21 -14 -33v-75l-24 -24l24 -24v-42l14 -18q-5 -89 -14 -142v-38q-8 -25 -27 -43l17 -17v-72l-48 -48l-75 90q-37 -6 -83 -6l-216 336l56 42q-114 35 -114 90l59 39q-97 14 -97 93h-1l-9 -36h-14v-12h-48q0 36 -14 68l-8 16q-18 32 -50 60l24 24 v24l-130 80v-68h-72l20 100l-130 80q0 48 72 48q12 27 22 50zM419 840l-14 -5v-24h14v29zM957 787l24 -24v-24l-24 -24h-48v24zM213 646l14 -39v-404h-48l-48 135v269l18 52l-8 8v72l48 48h24v-141zM813 907h24l72 -72l-72 -48l-24 24v96zM936 1596l-11 -30 q-100 -103 -343 5l-12 12q6 5 11 10q-38 19 -80 53l3 -36l-38 65q-15 13 -31 28q-8 3 -17 5q-50 -51 -72 -27q-6 -4 -12 -7l-18 -18l-44 -70q-45 9 -87 -21q13 -18 23 -34l-82 26q-4 24 3 40l-1 8q45 47 54 95q-7 7 -13 14l12 11l-1 24l12 12l135 -44v22l-67 51l12 11 q13 14 116 -32l3 6q33 35 151 -78l7 7l27 -1l3 3v23l55 -14l23 -25l-45 -46l-22 1l25 -28q85 61 155 52l11 -12v-6l8 9v23q14 -15 57 0l1 19l12 11l7 -9q-2 32 -8 58l-10 12v0l137 -58q-6 -74 -49 -120z" />
<glyph unicode="&#xf2;" d="M532 1233q-9 -13 -19 -26v-24h96v-24l-168 -24v48l-21 -11l19 -19l-168 -192h-24l5 48q-43 -17 -102 -35q-8 -205 -71 -205l-24 24v24l48 216h19q52 116 103 126l24 -24h17l5 42l-24 72q108 96 168 96l5 -1q73 31 165 31v-6h46q18 0 34 -34l16 16q50 0 114 -59 q10 -6 18 -18q50 -52 108 -139l-24 -95l6 -2q3 0 5 -1l83 -28v-107q24 -61 50 -151l-20 -7l42 -167h-48q0 94 -46 96v-42l24 -24v-24l-72 -48h-24l-48 48v18h-2v24l2 6v120l7 7l-57 227l6 6q-22 58 -52 125q-72 51 -221 117zM721 153l8 -50q28 25 53 44q-15 -2 -31 -2z M157 265h-6l-72 264v24l48 48l48 -48l-24 -72l32 -142l18 28l-24 24v24l24 120h24q119 -209 312 -386q30 26 94 44q0 53 144 168l48 144h48v-144l72 -96q-20 -40 -48 -66h2q-66 -102 -216 -168h-24l24 24v24l-12 87l-14 3q-52 -71 -99 -107q-17 -27 -91 -55q-142 0 -308 258 zM716 1201q-12 25 -24 52q6 -24 11 -52h13zM365 1828l74 -21l60 -105l84 -125l49 -106l-12 -31q-184 10 -354 242z" />
<glyph unicode="&#xf3;" d="M532 1233q-9 -13 -19 -26v-24h96v-24l-168 -24v48l-21 -11l19 -19l-168 -192h-24l5 48q-43 -17 -102 -35q-8 -205 -71 -205l-24 24v24l48 216h19q52 116 103 126l24 -24h17l5 42l-24 72q108 96 168 96l5 -1q73 31 165 31v-6h46q18 0 34 -34l16 16q50 0 114 -59 q10 -6 18 -18q50 -52 108 -139l-24 -95l6 -2q3 0 5 -1l83 -28v-107q24 -61 50 -151l-20 -7l42 -167h-48q0 94 -46 96v-42l24 -24v-24l-72 -48h-24l-48 48v18h-2v24l2 6v120l7 7l-57 227l6 6q-22 58 -52 125q-72 51 -221 117zM721 153l8 -50q28 25 53 44q-15 -2 -31 -2z M157 265h-6l-72 264v24l48 48l48 -48l-24 -72l32 -142l18 28l-24 24v24l24 120h24q119 -209 312 -386q30 26 94 44q0 53 144 168l48 144h48v-144l72 -96q-20 -40 -48 -66h2q-66 -102 -216 -168h-24l24 24v24l-12 87l-14 3q-52 -71 -99 -107q-17 -27 -91 -55q-142 0 -308 258 zM716 1201q-12 25 -24 52q6 -24 11 -52h13zM759 1682q-170 -232 -354 -242l-12 31l49 106l84 125l60 105l74 21z" />
<glyph unicode="&#xf4;" d="M532 1233q-9 -13 -19 -26v-24h96v-24l-168 -24v48l-21 -11l19 -19l-168 -192h-24l5 48q-43 -17 -102 -35q-8 -205 -71 -205l-24 24v24l48 216h19q52 116 103 126l24 -24h17l5 42l-24 72q108 96 168 96l5 -1q73 31 165 31v-6h46q18 0 34 -34l16 16q50 0 114 -59 q10 -6 18 -18q50 -52 108 -139l-24 -95l6 -2q3 0 5 -1l83 -28v-107q24 -61 50 -151l-20 -7l42 -167h-48q0 94 -46 96v-42l24 -24v-24l-72 -48h-24l-48 48v18h-2v24l2 6v120l7 7l-57 227l6 6q-22 58 -52 125q-72 51 -221 117zM721 153l8 -50q28 25 53 44q-15 -2 -31 -2z M157 265h-6l-72 264v24l48 48l48 -48l-24 -72l32 -142l18 28l-24 24v24l24 120h24q119 -209 312 -386q30 26 94 44q0 53 144 168l48 144h48v-144l72 -96q-20 -40 -48 -66h2q-66 -102 -216 -168h-24l24 24v24l-12 87l-14 3q-52 -71 -99 -107q-17 -27 -91 -55q-142 0 -308 258 zM716 1201q-12 25 -24 52q6 -24 11 -52h13zM556 1813q196 -42 217 -184l-48 -78l-165 99q-114 -112 -176 -63l-41 35l45 93z" />
<glyph unicode="&#xf5;" d="M532 1233q-9 -13 -19 -26v-24h96v-24l-168 -24v48l-21 -11l19 -19l-168 -192h-24l5 48q-43 -17 -102 -35q-8 -205 -71 -205l-24 24v24l48 216h19q52 116 103 126l24 -24h17l5 42l-24 72q108 96 168 96l5 -1q73 31 165 31v-6h46q18 0 34 -34l16 16q50 0 114 -59 q10 -6 18 -18q50 -52 108 -139l-24 -95l6 -2q3 0 5 -1l83 -28v-107q24 -61 50 -151l-20 -7l42 -167h-48q0 94 -46 96v-42l24 -24v-24l-72 -48h-24l-48 48v18h-2v24l2 6v120l7 7l-57 227l6 6q-22 58 -52 125q-72 51 -221 117zM721 153l8 -50q28 25 53 44q-15 -2 -31 -2z M157 265h-6l-72 264v24l48 48l48 -48l-24 -72l32 -142l18 28l-24 24v24l24 120h24q119 -209 312 -386q30 26 94 44q0 53 144 168l48 144h48v-144l72 -96q-20 -40 -48 -66h2q-66 -102 -216 -168h-24l24 24v24l-12 87l-14 3q-52 -71 -99 -107q-17 -27 -91 -55q-142 0 -308 258 zM716 1201q-12 25 -24 52q6 -24 11 -52h13zM907 1621l-11 -30q-100 -103 -343 5l-12 12q6 5 11 10q-38 19 -80 53l3 -36l-38 65q-15 13 -31 28q-8 3 -17 5q-50 -51 -72 -27q-6 -4 -12 -7l-18 -18l-44 -70q-45 9 -87 -21q13 -18 23 -34l-82 26q-4 24 3 40l-1 8q45 47 54 95 q-7 7 -13 14l12 11l-1 24l12 12l135 -44v22l-67 51l12 11q13 14 116 -32l3 6q33 35 151 -78l7 7l27 -1l3 3v23l55 -14l23 -25l-45 -46l-22 1l25 -28q85 61 155 52l11 -12v-6l8 9v23q14 -15 57 0l1 19l12 11l7 -9q-2 32 -8 58l-10 12v0l137 -58q-6 -74 -49 -120z" />
<glyph unicode="&#xf6;" d="M532 1233q-9 -13 -19 -26v-24h96v-24l-168 -24v48l-21 -11l19 -19l-168 -192h-24l5 48q-43 -17 -102 -35q-8 -205 -71 -205l-24 24v24l48 216h19q52 116 103 126l24 -24h17l5 42l-24 72q108 96 168 96l5 -1q73 31 165 31v-6h46q18 0 34 -34l16 16q50 0 114 -59 q10 -6 18 -18q50 -52 108 -139l-24 -95l6 -2q3 0 5 -1l83 -28v-107q24 -61 50 -151l-20 -7l42 -167h-48q0 94 -46 96v-42l24 -24v-24l-72 -48h-24l-48 48v18h-2v24l2 6v120l7 7l-57 227l6 6q-22 58 -52 125q-72 51 -221 117zM721 153l8 -50q28 25 53 44q-15 -2 -31 -2z M157 265h-6l-72 264v24l48 48l48 -48l-24 -72l32 -142l18 28l-24 24v24l24 120h24q119 -209 312 -386q30 26 94 44q0 53 144 168l48 144h48v-144l72 -96q-20 -40 -48 -66h2q-66 -102 -216 -168h-24l24 24v24l-12 87l-14 3q-52 -71 -99 -107q-17 -27 -91 -55q-142 0 -308 258 zM716 1201q-12 25 -24 52q6 -24 11 -52h13zM355 1733q84 7 71 -78l20 20h20v-60l-60 -60h-60l-34 34q-41 18 -41 40v20q14 72 84 84zM659 1716q27 15 62 15l15 -15h2l40 -40q-27 -140 -80 -140l-20 20h-20l20 20v20l-7 42q-10 -19 -10 -47h-60v60q22 45 57 64v1h1z" />
<glyph unicode="&#xf7;" horiz-adv-x="1124" />
<glyph unicode="&#xf8;" d="M721 153l8 -50q28 25 53 44q-15 -2 -31 -2zM716 1201q-12 25 -24 52q6 -24 11 -52h13zM736 1127q-71 47 -204 106q-9 -13 -19 -26v-24h96v-24l-168 -24v48l-21 -11l19 -19l-168 -192h-24l5 48q-43 -17 -102 -35q-8 -205 -71 -205l-24 24v24l48 216h19q52 116 103 126 l24 -24h17l5 42l-24 72q108 96 168 96l5 -1q73 31 165 31v-6h46q18 0 34 -34l16 16q50 0 114 -59q10 -6 18 -18q13 -13 26 -29q57 60 96 83l1 1l105 74l-23 -92l-16 -25l-89 -49l-2 1l-12 -16l-17 -25l-1 -5q19 -26 40 -57l-24 -95l6 -2q3 0 5 -1l83 -28v-107 q24 -61 50 -151l-20 -7l42 -167h-48q0 94 -46 96v-42l24 -24v-24l-72 -48h-24l-48 48v18h-2v24l2 6v120l7 7l-57 227l6 6q-3 8 -6 17l-35 -19l-7 76l-29 -17l-63 -94q51 21 110 15l13 -8l-16 -25l-76 -58l-17 -25l-22 -92l-14 9q-18 -47 -57 -109h5l-17 -25l-7 -4l-103 -156 l-21 -40l-14 -8l-74 -85q81 -101 182 -194q30 26 94 44q0 53 144 168l48 144h48v-144l72 -96q-20 -40 -48 -66h2q-66 -102 -216 -168h-24l24 24v24l-12 87l-14 3q-52 -71 -99 -107q-17 -27 -91 -55q-102 0 -217 134q-15 -22 -31 -40l-2 -4q-9 -9 -18 -17q-19 -19 -37 -32 q-56 -45 -80 -42v2q-8 -3 -15 -4l6 68q31 11 60 29l2 14l30 39l-26 18l6 67l16 24l-2 2h-6l-72 264v24l48 48l48 -48l-24 -72l32 -142l18 28l-24 24v24l24 120h24q34 -59 73 -115l3 2l33 50l23 92l79 120l5 15l214 325q43 57 81 103z" />
<glyph unicode="&#xf9;" horiz-adv-x="1089" d="M203 224v-72h48v24zM184 1256l-18 47l24 24h24l48 -48v-624l-48 -48q-144 84 -144 312l78 89l-17 224l24 24h29zM482 98l27 -42h30l24 -24h24v54l-13 17l1 1h-84zM905 500l4 36l-23 23h-24l24 288v312l25 25h-12l-48 48l24 24h24l24 -24v-36l59 59l24 -24v-504l-24 -216 l24 -96q-84 -408 -360 -408l-6 8q-37 -7 -77 -7h-60l-1 -1h-24q-148 0 -183 52q-164 23 -164 189l-72 72q42 108 144 168h24q0 -150 120 -264l-24 -24h-24l24 -72l9 3q26 47 26 116l168 -24h48l5 1l128 48h24l-29 -44l20 -52h9l155 44v147zM227 1098l11 13l-11 29v-42z M378 1828l74 -21l60 -105l84 -125l49 -106l-12 -31q-184 10 -354 242z" />
<glyph unicode="&#xfa;" horiz-adv-x="1089" d="M203 224v-72h48v24zM184 1256l-18 47l24 24h24l48 -48v-624l-48 -48q-144 84 -144 312l78 89l-17 224l24 24h29zM482 98l27 -42h30l24 -24h24v54l-13 17l1 1h-84zM905 500l4 36l-23 23h-24l24 288v312l25 25h-12l-48 48l24 24h24l24 -24v-36l59 59l24 -24v-504l-24 -216 l24 -96q-84 -408 -360 -408l-6 8q-37 -7 -77 -7h-60l-1 -1h-24q-148 0 -183 52q-164 23 -164 189l-72 72q42 108 144 168h24q0 -150 120 -264l-24 -24h-24l24 -72l9 3q26 47 26 116l168 -24h48l5 1l128 48h24l-29 -44l20 -52h9l155 44v147zM227 1098l11 13l-11 29v-42z M781 1682q-170 -232 -354 -242l-12 31l49 106l84 125l60 105l74 21z" />
<glyph unicode="&#xfb;" horiz-adv-x="1089" d="M203 224v-72h48v24zM184 1256l-18 47l24 24h24l48 -48v-624l-48 -48q-144 84 -144 312l78 89l-17 224l24 24h29zM482 98l27 -42h30l24 -24h24v54l-13 17l1 1h-84zM905 500l4 36l-23 23h-24l24 288v312l25 25h-12l-48 48l24 24h24l24 -24v-36l59 59l24 -24v-504l-24 -216 l24 -96q-84 -408 -360 -408l-6 8q-37 -7 -77 -7h-60l-1 -1h-24q-148 0 -183 52q-164 23 -164 189l-72 72q42 108 144 168h24q0 -150 120 -264l-24 -24h-24l24 -72l9 3q26 47 26 116l168 -24h48l5 1l128 48h24l-29 -44l20 -52h9l155 44v147zM227 1098l11 13l-11 29v-42z M571 1821q196 -42 217 -184l-48 -78l-165 99q-114 -112 -176 -63l-41 35l45 93z" />
<glyph unicode="&#xfc;" horiz-adv-x="1089" d="M203 224v-72h48v24zM184 1256l-18 47l24 24h24l48 -48v-624l-48 -48q-144 84 -144 312l78 89l-17 224l24 24h29zM482 98l27 -42h30l24 -24h24v54l-13 17l1 1h-84zM905 500l4 36l-23 23h-24l24 288v312l25 25h-12l-48 48l24 24h24l24 -24v-36l59 59l24 -24v-504l-24 -216 l24 -96q-84 -408 -360 -408l-6 8q-37 -7 -77 -7h-60l-1 -1h-24q-148 0 -183 52q-164 23 -164 189l-72 72q42 108 144 168h24q0 -150 120 -264l-24 -24h-24l24 -72l9 3q26 47 26 116l168 -24h48l5 1l128 48h24l-29 -44l20 -52h9l155 44v147zM227 1098l11 13l-11 29v-42z M393 1683q84 7 71 -78l20 20h20v-60l-60 -60h-60l-34 34q-41 18 -41 40v20q14 72 84 84zM697 1666q27 15 62 15l15 -15h2l40 -40q-27 -140 -80 -140l-20 20h-20l20 20v20l-7 42q-10 -19 -10 -47h-60v60q22 45 57 64v1h1z" />
<glyph unicode="&#xfd;" horiz-adv-x="1024" />
<glyph unicode="&#xfe;" horiz-adv-x="1139" />
<glyph unicode="&#xff;" horiz-adv-x="1014" d="M66 1380h24v-48l-72 -24v24zM210 1236q54 0 72 -120l-144 96l24 24h48zM606 888l-36 36q0 33 131 58q5 69 168 284l-24 24v24l72 96l48 -72v-72q0 -67 -83 -191v-7q-144 -238 -239 -345q-7 -16 -14 -33l-24 -24v-168l-17 -102h6v-96l-24 -24v-24l24 -24l-24 -24h-12 l23 -138l-24 -24h-13l2 -6l-24 -24h-72l-48 48v144l-1 92l97 -91q-46 193 -85 245v88q-11 42 -11 122l-72 96l24 24v24q-3 20 -6 37q-31 62 -55 65q-31 0 -63 31l-20 -13l-24 24v24l8 8q-45 66 -93 190l24 24h24l121 -138l12 12h48q0 -60 85 -155l70 17v-48l-16 -25l5 -5 l24 24h17l-6 6v24l48 48l24 -72h24q0 3 1 6zM356 1671q84 7 71 -78l20 20h20v-60l-60 -60h-60l-34 34q-41 18 -41 40v20q14 72 84 84zM660 1654q27 15 62 15l15 -15h2l40 -40q-27 -140 -80 -140l-20 20h-20l20 20v20l-7 42q-10 -19 -10 -47h-60v60q22 45 57 64v1h1z" />
<glyph unicode="&#x152;" horiz-adv-x="2048" />
<glyph unicode="&#x153;" horiz-adv-x="1933" />
<glyph unicode="&#x178;" horiz-adv-x="1014" d="M66 1380h24v-48l-72 -24v24zM210 1236q54 0 72 -120l-144 96l24 24h48zM606 888l-36 36q0 33 131 58q5 69 168 284l-24 24v24l72 96l48 -72v-72q0 -67 -83 -191v-7q-144 -238 -239 -345q-7 -16 -14 -33l-24 -24v-168l-17 -102h6v-96l-24 -24v-24l24 -24l-24 -24h-12 l23 -138l-24 -24h-13l2 -6l-24 -24h-72l-48 48v144l-1 92l97 -91q-46 193 -85 245v88q-11 42 -11 122l-72 96l24 24v24q-3 20 -6 37q-31 62 -55 65q-31 0 -63 31l-20 -13l-24 24v24l8 8q-45 66 -93 190l24 24h24l121 -138l12 12h48q0 -60 85 -155l70 17v-48l-16 -25l5 -5 l24 24h17l-6 6v24l48 48l24 -72h24q0 3 1 6zM356 1671q84 7 71 -78l20 20h20v-60l-60 -60h-60l-34 34q-41 18 -41 40v20q14 72 84 84zM660 1654q27 15 62 15l15 -15h2l40 -40q-27 -140 -80 -140l-20 20h-20l20 20v20l-7 42q-10 -19 -10 -47h-60v60q22 45 57 64v1h1z" />
<glyph unicode="&#x2c6;" horiz-adv-x="682" />
<glyph unicode="&#x2dc;" horiz-adv-x="682" />
<glyph unicode="&#x2000;" horiz-adv-x="918" />
<glyph unicode="&#x2001;" horiz-adv-x="1836" />
<glyph unicode="&#x2002;" horiz-adv-x="918" />
<glyph unicode="&#x2003;" horiz-adv-x="1836" />
<glyph unicode="&#x2004;" horiz-adv-x="612" />
<glyph unicode="&#x2005;" horiz-adv-x="459" />
<glyph unicode="&#x2006;" horiz-adv-x="306" />
<glyph unicode="&#x2007;" horiz-adv-x="306" />
<glyph unicode="&#x2008;" horiz-adv-x="229" />
<glyph unicode="&#x2009;" horiz-adv-x="367" />
<glyph unicode="&#x200a;" horiz-adv-x="102" />
<glyph unicode="&#x2010;" horiz-adv-x="580" d="M217 852h100q47 -60 200 -60l20 -20v-20l-40 -40h-160l-80 -20q-80 60 -180 60l-20 20v20q13 60 160 60z" />
<glyph unicode="&#x2011;" horiz-adv-x="580" d="M217 852h100q47 -60 200 -60l20 -20v-20l-40 -40h-160l-80 -20q-80 60 -180 60l-20 20v20q13 60 160 60z" />
<glyph unicode="&#x2012;" horiz-adv-x="580" d="M217 852h100q47 -60 200 -60l20 -20v-20l-40 -40h-160l-80 -20q-80 60 -180 60l-20 20v20q13 60 160 60z" />
<glyph unicode="&#x2013;" horiz-adv-x="1139" />
<glyph unicode="&#x2014;" horiz-adv-x="2048" />
<glyph unicode="&#x2018;" horiz-adv-x="455" d="M283 1453l55 -55v-136l-27 -164l27 -137l-27 -27q-193 0 -193 410zM137 1256v-4l25 -80l92 59l-71 33l17 88l-34 -17z" />
<glyph unicode="&#x2019;" horiz-adv-x="455" d="M283 1453l55 -55v-136l-27 -164l27 -137l-27 -27q-193 0 -193 410zM137 1256v-4l25 -80l92 59l-71 33l17 88l-34 -17z" />
<glyph unicode="&#x201a;" horiz-adv-x="455" />
<glyph unicode="&#x201c;" horiz-adv-x="705" d="M283 1453l55 -55v-136l-27 -164l31 -87l-106 -102q-164 121 -118 435zM426 1076l1 -4l40 -80l81 59l-77 33l1 88l-31 -17zM555 1449l55 -55v-136l-27 -164l27 -137l-123 -6q-97 -21 -97 389z" />
<glyph unicode="&#x201d;" horiz-adv-x="705" d="M283 1453l55 -55v-136l-27 -164l31 -87l-106 -102q-164 121 -118 435zM426 1076l1 -4l40 -80l81 59l-77 33l1 88l-31 -17zM555 1449l55 -55v-136l-27 -164l27 -137l-123 -6q-97 -21 -97 389z" />
<glyph unicode="&#x201e;" horiz-adv-x="682" />
<glyph unicode="&#x2022;" horiz-adv-x="717" />
<glyph unicode="&#x2026;" horiz-adv-x="2048" />
<glyph unicode="&#x202f;" horiz-adv-x="367" />
<glyph unicode="&#x2039;" horiz-adv-x="682" />
<glyph unicode="&#x203a;" horiz-adv-x="682" />
<glyph unicode="&#x205f;" horiz-adv-x="459" />
<glyph unicode="&#x20ac;" horiz-adv-x="1046" d="M770 1122l72 72h72l96 -120v-48q-151 13 -240 96zM250 722q-18 3 -37 6l5 -14h24zM320 844h201q102 -60 435 -60l43 -20v-20l-87 -40l-87 25l-53 -62l-207 37l-66 40l-108 -60q-52 18 -108 31q-8 -34 -16 -70l124 -22l112 -6l125 -16q111 -18 328 -18l43 -20v-20 q-27 -60 -347 -60l-167 46q-60 5 -147 9q6 -189 264 -376l240 72l96 168l72 -72v-48q-49 -96 -120 -96q-82 -168 -264 -168q-349 0 -432 336h72l-48 144h-24l-24 -24h-24l14 68q-74 1 -159 1l-44 20v20l87 40l87 -25l27 32l-36 36q0 38 1 73q-59 5 -122 5l-44 20v20 q19 41 172 54q22 236 113 236l168 240h72l24 -24v24l72 24l24 24l264 -48q0 -74 -312 -144h-72v48h-48l24 -72q-79 -120 -138 -302zM228 843q-15 15 -34 15h-24l6 -17q24 1 52 2z" />
<glyph unicode="&#x2122;" horiz-adv-x="2048" />
<glyph unicode="&#xe000;" horiz-adv-x="1370" d="M0 1370h1370v-1370h-1370v1370z" />
</font>
</defs>
</svg>
