<?xml version="1.0" standalone="no"?>
<!DOCTYPE svg PUBLIC "-//W3C//DTD SVG 1.1//EN" "http://www.w3.org/Graphics/SVG/1.1/DTD/svg11.dtd" >
<svg xmlns="http://www.w3.org/2000/svg">
<metadata></metadata>
<defs>
<font id="vitamin_outlinedregular" horiz-adv-x="499" >
<font-face units-per-em="1000" ascent="800" descent="-200" />
<missing-glyph horiz-adv-x="500" />
<glyph horiz-adv-x="1000" />
<glyph horiz-adv-x="1000" />
<glyph unicode="&#xd;" horiz-adv-x="500" />
<glyph unicode=" "  horiz-adv-x="500" />
<glyph unicode="&#x09;" horiz-adv-x="500" />
<glyph unicode="&#xa0;" horiz-adv-x="500" />
<glyph unicode="!" horiz-adv-x="378" d="M84 349q-16 83 -16 166q0 55 8 87l26 103q2 8 45.5 43.5t55 38t31.5 2.5q190 0 190 -126q0 -61 -51 -262q-58 -229 -105 -252q-18 -9 -45 -9q-99 0 -139 209zM172 234q16 -30 28 -39q7 -5 23 -5q13 0 24 6q32 40 81 235q46 184 46 232q0 42 -43 62q-33 16 -80 16 q-22 0 -40 -4q-30 -31 -63 -53q-30 -120 -30 -188q0 -62 14 -135q15 -82 40 -127zM260 -166q-65 0 -89 9q-34 14 -58 62q-20 39 -20 66q0 7 8 45q15 71 50 96q31 22 105 22q147 0 147 -152q0 -59 -42.5 -103.5t-100.5 -44.5zM260 -116q37 0 65 30.5t28 67.5q0 102 -97 102 q-64 0 -83 -19q-14 -14 -28 -79q-2 -9 -2 -15q0 -16 13.5 -43.5t26 -35.5t77.5 -8z" />
<glyph unicode="&#x22;" horiz-adv-x="482" d="M351 372q-43 0 -71 28t-28 71q0 31 14 71q13 33 26 67l-7 6q-59 51 -59 84q0 30 30.5 66.5t60.5 36.5l5 -1q103 -21 148 -52q71 -50 71 -147q0 -85 -47 -152q-54 -78 -143 -78zM351 422q64 0 104 60q36 53 36 120q0 70 -49 105q-38 27 -126 44q-9 -2 -24.5 -23t-15.5 -30 q5 -11 41 -44q31 -28 27 -44q-3 -13 -25 -69q-17 -44 -17 -70q0 -49 49 -49zM57 481q0 17 13 43.5t13 33.5q0 5 -35 53t-35 69q0 17 33.5 54t51.5 43q15 5 50 5q53 0 89.5 -38t36.5 -91q0 -77 -31 -146q-39 -87 -109 -87q-28 0 -51 16q-26 18 -26 45zM64 677q6 -12 40 -57 q29 -38 29 -62q0 -17 -13 -43t-13 -34q8 -11 27 -11q44 0 70 74q20 57 20 109q0 32 -22 55.5t-54 23.5q-13 0 -35 -3q-29 -22 -47 -49z" />
<glyph unicode="#" horiz-adv-x="727" d="M381 575q12 1 12 24q0 7 -2 21.5t-2 21.5q0 83 47 116q39 28 125 28q87 0 87 -59q0 -17 -24.5 -69t-24.5 -63q0 -3 1 -5q7 -3 50 11q47 15 59 15q67 0 67 -68q0 -25 -11 -64q-13 -47 -31 -55q-15 -3 -66 -15l-4 -1q42 7 53 7q14 0 37.5 -14.5t23.5 -27.5q1 -76 -13 -102 q-17 -33 -79 -57q-20 -8 -20 -17q0 -16 9 -46.5t9 -46.5q0 -61 -35 -81q-25 -14 -99 -14q-54 0 -80 21t-29 73l-6 88q-13 -1 -20 -2l1 -2q4 -25 4 -49q0 -73 -28.5 -102t-100.5 -29q-81 0 -96 55q-5 55 -11 111q-59 -6 -67 -6q-35 0 -58 23t-23 58q0 73 49 88q48 7 97 13 l-1 3q0 3 -2 6l-68 6q-92 8 -92 82q0 102 111 102q16 0 34 -3q-7 53 -7 74q0 109 138 109q43 0 58 -28q9 -16 13.5 -63.5t14.5 -66.5zM726 548q0 18 -17 18q-15 0 -51.5 -13.5t-54.5 -13.5q-23 0 -39 17t-16 40t25 70.5t25 60.5v3q-6 6 -37 6q-65 0 -89 -14q-33 -20 -33 -80 q0 7 1 -23v-22q0 -72 -64 -72q-39 0 -52 63q-4 19 -15 93h-4q-6 2 -10 2q-88 0 -88 -59q0 -20 11 -100q4 -28 -28 -28q-12 0 -34.5 3.5t-34.5 3.5q-52 0 -52 -52q0 -26 35 -32q22 -1 67 -4q40 -3 47 -18q16 -33 16 -53q0 -28 -36 -36l-81 -10q-17 -2 -22 -9q-9 -9 -9 -36 q0 -31 31 -31q13 0 39 3t38 3q28 0 37 -27q5 -13 6 -50q2 -61 3 -62q8 -27 51 -27q53 0 66 14.5t13 66.5q0 12 -2 34.5t-2 33.5q0 24 35 32q27 2 54 5q32 3 32 -74q0 -66 3 -76q11 -34 60 -34q47 0 79 13q5 15 5 32q0 16 -9 46.5t-9 46.5q0 39 29 53q18 8 55 25q29 19 29 64 v18l-5 2q-3 1 -10 6q-66 -6 -64 -6q-44 0 -63 46q-2 5 -2 10q0 25 52 38l69 15q20 40 20 75zM378 363q33 0 39 6q0 51 1 49q-2 3 -6 7l-1 -2q-8 -7 -25 -21q-8 -22 -8 -37v-2zM469 418q1 -9 -1 -25q-2 -19 -2 -26q0 -54 -89 -54q-49 0 -49 52q0 21 6 43q8 29 22 34 q13 11 28 23.5t29 12.5q12 0 23 -8q31 -23 33 -52z" />
<glyph unicode="$" horiz-adv-x="590" d="M184 499q-18 52 -18 68q0 40 39 67q35 24 77 24q53 0 72 -36q13 -25 11 -83q42 5 60 5q128 0 128 -115q0 -47 -6 -65q-11 -34 -47 -37q-27 -1 -83 -5q1 -10 2 -19l125 -16q64 -14 86 -73q15 -38 15 -119q0 -134 -225 -193q-8 -106 -49 -106q-52 0 -98 27q-55 31 -55 79 q0 13 2 27q-78 -30 -105 -30q-53 0 -64 57q-15 23 -15 56q0 3 5 27l11 -26q-5 18 -5 37q0 39 19.5 66t57.5 27q27 0 126 -19q2 7 2 11q14 -3 12 -19v-3q-198 42 -198 202q0 55 34 111t84 73zM595 95q0 70 -13 100q-20 44 -79 51q-38 3 -113 11q-20 2 -23 36q0 17 -2 50 q-2 26 45 32q44 1 89 3q4 19 4 51q0 39 -18.5 52t-59.5 13q-12 0 -36.5 -4t-37.5 -4q-38 0 -37 25q2 72 -6 90q-17 7 -26 7q-19 0 -41 -11q-25 -12 -25 -30q0 -11 11 -41.5t11 -45.5q0 -25 -23 -26q-39 -1 -70 -52q-29 -46 -29 -87q0 -70 48 -108q25 -20 90 -40 q48 -15 48 -32q0 -21 -9 -41q-12 -26 -30 -23q-2 0 -69 14q-39 8 -70 8q-27 0 -45 -39q11 -6 11 -17q0 -4 -2 -12.5t-2 -12.5q0 -12 9 -36q11 -27 20 -27q20 0 66.5 18t72.5 18q24 0 24 -25q0 -10 -5 -30t-5 -28q0 -23 35 -37q12 -5 56 -15q5 9 10 55q4 37 21 41 q205 49 205 149zM409 116q-1 -19 0 -29q-23 -2 -24 23q9 1 24 6zM478 117q0 -25 -33 -42q-25 -12 -56 -15q-23 -2 -29 20q-3 10 -1 38q3 60 45 60q26 0 50 -18t24 -43zM248 310q16 -4 26 -4q0 -17 -25 -17v16zM179 312q0 25 24 43t50 18q46 0 46 -84q0 -10 -7.5 -21.5 t-17.5 -11.5q-32 0 -60 12q-35 16 -35 44z" />
<glyph unicode="'" horiz-adv-x="338" d="M116 511q0 25 21 62.5t21 45.5q-15 4 -26 9q-26 10 -48 35q-25 27 -25 52q0 7 3 14q14 44 62 66q39 19 91 19q78 0 123 -35q49 -39 49 -115q0 -80 -59 -141t-139 -61q-34 0 -53.5 13.5t-19.5 35.5zM166 516l1 -1q9 -3 22 -3q59 0 103.5 46.5t44.5 105.5q0 100 -122 100 q-81 0 -104 -45q8 -27 55 -51q42 -21 42 -49q0 -24 -19 -55q-21 -34 -23 -48z" />
<glyph unicode="(" horiz-adv-x="447" d="M289 399q-39 -38 -39 -83q0 -44 60 -87q38 -25 112 -76q60 -44 60 -94q0 -61 -62.5 -115t-124.5 -54q-130 0 -207 111q-67 96 -67 224q0 138 65 261q52 99 174 201q19 22 74 62q13 6 21 6q52 0 96 -26q53 -30 53 -78q0 -68 -46 -122q-29 -34 -91.5 -74.5t-77.5 -55.5z M338 496q59 39 82 65q34 39 34 90q0 24 -40 40q-33 13 -60 13l-6 -3q-17 -23 -57 -53q-47 -34 -61 -49q-159 -165 -159 -374q0 -111 55 -192q63 -93 169 -93q40 0 88.5 40t48.5 79q0 27 -60 68q-99 67 -112 79q-60 53 -60 110q0 60 45 108q26 28 93 72z" />
<glyph unicode=")" horiz-adv-x="437" d="M208 -165q-58 0 -118.5 56t-60.5 113q0 50 59 93q38 25 111 77q60 46 60 107q0 40 -66 87l-122 87q-66 59 -66 129q0 53 54 88q45 29 93 29q22 0 68 -40q127 -87 198 -215q72 -131 72 -282q0 -134 -73 -227q-79 -102 -209 -102zM208 -115q109 0 173 88q59 79 59 191 q0 122 -58 243q-61 127 -158 193q-22 12 -61 46l-7 2l-6 3q-30 -1 -60 -19q-35 -21 -35 -48q0 -58 66 -106q41 -27 122 -85q66 -50 66 -112q0 -70 -60 -129q-20 -20 -111 -81q-59 -40 -59 -67q0 -36 46.5 -77.5t82.5 -41.5z" />
<glyph unicode="*" horiz-adv-x="452" d="M242 191q-84 35 -84 103q0 43 15.5 67t53.5 40q34 13 67 25q12 6 23 6t59 -17t60 -24q42 -26 42 -94q0 -52 -31 -91t-82 -39q-65 0 -123 24zM365 217q30 0 47 26q16 23 16 54t-8.5 42.5t-37.5 20.5q-70 22 -64 22q-6 -3 -17 -8q-32 -11 -64 -23q-29 -16 -29 -57 q0 -39 62 -61q47 -16 95 -16z" />
<glyph unicode="+" horiz-adv-x="598" d="M498 191q3 -20 26 -64q21 -39 21 -68q0 -32 -11 -42q-38 -34 -97.5 -60t-113.5 -26h-3q-51 0 -71 54q-12 32 -13 96q-1 58 -8 66q-8 0 -25 -1.5t-26 -1.5q-118 0 -118 150q0 57 21.5 80t76.5 23h29q41 -1 31 -1v2q-4 28 -4 33q0 16 -5.5 47t-5.5 47q0 54 58 85 q46 25 106 25q43 0 66.5 -24.5t23.5 -67.5q0 -19 -5.5 -57.5t-5.5 -57.5q0 -17 3 -22q10 0 30 3t30 3q64 0 106.5 -39.5t42.5 -103.5q0 -52 -58 -66q-49 -6 -98 -11zM257 188q25 -14 28 -78q0 -10 4 -75q7 -49 36 -54q37 0 89 22q48 20 80 46q1 6 1 10q0 22 -24 68.5 t-24 71.5q0 32 41 41q33 3 67 5q52 7 52 24q0 42 -28 67.5t-71 25.5q-10 0 -30.5 -2t-30.5 -2q-52 0 -52 70q0 19 5.5 57.5t5.5 57.5q0 42 -40 42q-35 0 -69 -13q-45 -17 -45 -47q0 -16 5.5 -47t5.5 -47q0 -8 2 -24.5t2 -24.5q0 -36 -46 -36q-11 0 -32 2t-32 2 q-48 0 -48 -56q0 -100 68.5 -100t79.5 -6z" />
<glyph unicode="," horiz-adv-x="363" d="M108 -159q0 25 20.5 62t20.5 45q-7 2 -26 9q-25 10 -47 35q-25 28 -25 52q0 52 69 83q38 17 86 17q77 0 123 -36q50 -40 50 -115q0 -80 -59.5 -141t-139.5 -61q-33 0 -52.5 13.5t-19.5 36.5zM158 -155l1 -1q8 -3 21 -3q59 0 104 46t45 106q0 101 -123 101q-80 0 -103 -45 q9 -32 55 -52q41 -18 41 -49q0 -22 -20 -56.5t-21 -46.5z" />
<glyph unicode="-" d="M408 166q-13 0 -39 4.5t-39 4.5q-24 0 -70.5 -11t-70.5 -11q-91 0 -104 64q-23 39 -23 94q0 44 14 62t57 33t116 33q83 20 112 20q73 0 119 -48.5t46 -122.5q0 -53 -32.5 -87.5t-85.5 -34.5zM119 347q-7 -16 -7 -36q0 -9 5.5 -36.5t9.5 -31.5q6 -13 13 -26q11 -14 49 -14 q24 0 70.5 11t70.5 11q13 0 39 -4.5t39 -4.5q68 0 68 72q0 52 -31.5 86.5t-83.5 34.5q-29 0 -123.5 -24t-118.5 -38z" />
<glyph unicode="." horiz-adv-x="344" d="M158 -166q-84 35 -84 103q0 81 69 107q23 8 67 26q15 6 24 6q11 0 59.5 -17t59.5 -24q41 -25 41 -94q0 -53 -29 -90q-32 -41 -84 -41q-65 0 -123 24zM281 -140q30 0 47 27q16 23 16 54q0 30 -8.5 42t-37.5 21q-70 22 -64 22q-6 -3 -17 -8q-32 -11 -64 -23 q-29 -17 -29 -58q0 -39 62 -61q47 -16 95 -16z" />
<glyph unicode="0" horiz-adv-x="726" d="M528 -80q-156 0 -292 49q-187 67 -187 197q0 109 118 222.5t227 113.5q145 0 252 -80q120 -90 120 -236q0 -113 -61 -187q-66 -79 -177 -79zM528 -30q89 0 141 65q47 59 47 151q0 123 -102 198q-93 68 -220 68q-89 0 -192 -99t-103 -187q0 -103 174 -157q125 -39 255 -39 zM474 261q-13 -7 -42 -11q-11 -5 -19 -21t-8 -29q0 -16 11.5 -33t26.5 -17q62 0 62 50q0 14 -9.5 37.5t-21.5 23.5zM537 266q18 -34 18 -66q0 -100 -112 -100q-37 0 -62.5 31t-25.5 69q0 36 21 65q23 33 57 35q4 0 10 1q20 10 31 10q39 0 63 -45z" />
<glyph unicode="1" horiz-adv-x="496" d="M193 173q-11 -1 -35 -10.5t-38 -9.5q-29 0 -64 24q-43 29 -36 68q-11 27 -11 54q0 83 164 145q132 50 226 50q114 0 114 -142v-128q0 -149 -46 -212q-57 -79 -208 -79q-55 0 -55 114v49q0 58 -11 77zM259 -17q123 0 167 59q37 50 37 182v128q0 92 -64 92t-188 -41 q-152 -50 -152 -104q0 -6 7 -31q7 -21 5 -28q-5 -11 17 -25q19 -12 32 -12q12 0 38.5 10.5t39.5 10.5q57 0 57 -148v-31q0 -7 -1 -16v-10q0 -31 5 -36z" />
<glyph unicode="2" horiz-adv-x="662" d="M487 276q61 17 94 17q63 0 101 -62q31 -51 31 -108q0 -41 -113 -98q-85 -43 -219 -86q-115 -37 -142 -37q-78 0 -131.5 52.5t-53.5 129.5q0 94 47 150q31 37 108 77q89 46 124 76q-8 9 -18 9q-25 0 -83 -26.5t-91 -26.5q-42 0 -70.5 32.5t-28.5 75.5q0 98 145 146 q101 33 224 33q91 0 157 -55q71 -59 71 -148q0 -43 -58 -86q-31 -21 -94 -65zM104 84q0 -56 39.5 -94t95.5 -38q41 0 215 66q184 70 209 107q-1 41 -21 76q-23 42 -61 42q-52 0 -157 -39q-8 -3 -13 -3q-22 0 -22 22q0 41 66 91q38 26 76 53q58 43 58 60q0 68 -56 112 q-52 41 -122 41q-93 0 -186 -25q-133 -36 -133 -104q0 -21 14 -39.5t35 -18.5q25 0 83 26.5t91 26.5q22 0 48.5 -21t26.5 -42q0 -10 -9 -19q-32 -31 -114 -74.5t-113 -75.5q-50 -51 -50 -130z" />
<glyph unicode="3" horiz-adv-x="591" d="M218 418q-174 0 -175 46q-2 53 9 98q13 55 41 73q24 16 81 16q76 0 163 -17q134 -26 134 -77q0 -25 -33 -91q97 -40 150 -131q49 -84 49 -194q0 -98 -112 -190q-107 -87 -208 -87q-67 0 -103 18l-90 48l-6 4q-21 19 -48 49q-53 58 -53 97q0 51 54.5 104t105.5 53 q22 0 60 -36q47 -45 57 -50q25 0 52 22.5t27 46.5q0 40 -8 51q-4 1 -9 1q-20 0 -70 -24.5t-70 -24.5q-10 0 -17 5q-57 38 -57 87q0 37 34 64q39 31 42 39zM317 -86q80 0 173 73q97 77 97 154q0 102 -47 176q-50 80 -143 110q-15 5 -15 22q0 18 19 56t20 49q-24 20 -122 35 q-79 12 -125 12q-30 0 -49 -6q-35 -51 -33 -115q29 -11 87 -12h88q27 0 27 -16t-28 -49q-7 -20 -40.5 -48.5t-33.5 -39.5q0 -20 27 -40q13 2 67 26q50 22 76 22q61 0 61 -103q0 -45 -42.5 -82.5t-88.5 -37.5q-23 0 -61 37q-47 46 -55 50q-30 0 -69.5 -38.5t-39.5 -68.5 q0 -31 83 -107q70 -39 79 -43q37 -16 88 -16z" />
<glyph unicode="4" horiz-adv-x="648" d="M308 175q-120 -65 -178 -65q-25 0 -75 52.5t-50 78.5q0 79 25 196q32 149 78 181q30 21 83 21q62 0 86 -68q13 -37 16 -117q9 13 16 44q6 24 11 48q39 145 183 145q45 0 63 -16.5t18 -60.5q0 -21 -13 -68t-13 -70q0 -12 4 -18q6 -1 37 8t42 9q19 0 41 -13q26 -15 25 -34 q-10 -135 -30 -172q-11 -20 -43 -30q-42 -14 -52 -20q-24 -16 -24 -55q0 -29 7.5 -86t7.5 -86q0 -67 -56 -99q-44 -25 -116 -25q-97 0 -97 209q1 17 4 111zM657 419q-9 6 -16 6q-12 0 -40.5 -7.5t-42.5 -7.5q-53 0 -50 74q1 21 13.5 64t12.5 66q0 8 -2 16l-2 8q-9 3 -27 3 q-86 0 -120 -66q-12 -41 -36 -122q-20 -64 -79 -60q-21 1 -23 23q-1 33 -6 100q-8 73 -48 73q-35 0 -51 -10q-40 -55 -64 -162q-21 -93 -21 -176q5 -20 83 -81q59 7 172 74q5 3 12 3q14 0 25.5 -16.5t11.5 -31.5q0 -20 -2 -60t-2 -60q0 -164 46 -164q122 0 122 74 q0 29 -7.5 86t-7.5 86q0 69 44 95q40 17 81 34q16 28 24 139z" />
<glyph unicode="5" horiz-adv-x="617" d="M331 426q102 35 144 35q82 0 139.5 -56.5t57.5 -138.5q0 -125 -84 -214t-208 -89q-82 0 -177 44q-114 53 -114 125q0 37 51 74q46 33 78 33q14 0 37.5 -11.5t32.5 -11.5q5 1 5 6q0 13 -21 29q-29 0 -83.5 -15.5t-83.5 -15.5q-53 0 -82 43q-24 36 -24 92q0 99 2 118 q8 76 44 102q53 38 207 76q141 35 210 35q43 0 65 -47q18 -37 18 -85q0 -50 -20 -62q-9 -5 -68.5 -12t-82.5 -14q-41 -13 -43 -40zM272 301q31 0 49 -23.5t18 -55.5q0 -56 -49 -56q-18 0 -37 8l-35 15q-16 0 -47.5 -22t-31.5 -35q0 -46 100 -85q86 -34 141 -34q103 0 173 76 q69 73 69 177q0 61 -43 103t-104 42q-27 0 -80.5 -19t-80.5 -19q-34 0 -34 48q0 72 79 93l133 20q5 102 -30 102q-57 0 -203 -35q-164 -40 -196 -76q-14 -55 -14 -170q0 -85 56 -85q28 0 83 15.5t84 15.5z" />
<glyph unicode="6" horiz-adv-x="608" d="M332 -51q-90 0 -180 50q-109 60 -113 152q-18 30 -18 85q0 88 47 198q45 106 107 173q80 86 170 86q40 0 80 -35.5t40 -75.5q0 -53 -44 -84q-21 -11 -83 -39q-45 -21 -45 -50l-35 22q29 15 75 32q82 31 137 31q49 0 97 -39q43 -35 67 -83l1 -5q23 -115 23 -128 q0 -125 -102 -210q-97 -80 -224 -80zM332 -1q105 0 188 66q88 71 88 174q0 32 -21 113q-17 34 -48 61q-36 31 -69 31q-67 0 -191 -58q-6 -3 -14 -3q-23 0 -23 31q0 56 70 88q12 5 65 28q38 21 38 52q0 18 -25.5 39.5t-44.5 21.5q-101 0 -191 -150q-83 -138 -83 -257 q0 -18 9 -45.5t9 -31.5q-1 -64 85 -114q79 -46 158 -46zM327 308q-31 0 -55 -14q-1 -13 -1 -19q0 -26 13 -43q8 -9 36 -28q3 -2 11 -8q12 0 28 16.5t16 28.5q0 17 -16 42t-32 25zM327 358q38 0 68 -39t30 -78q0 -33 -31.5 -64t-64.5 -31q-12 0 -36 16q-39 26 -51 42 q-21 27 -21 71q0 40 9 49q34 34 97 34z" />
<glyph unicode="7" horiz-adv-x="525" d="M318 446q-30 -3 -40 -19q-7 -12 -7 -43v-10q1 -9 1 -16v-27q0 -40 -49 -59q-35 -14 -83 -14q-54 0 -84.5 32.5t-30.5 87.5q0 34 5 80l12 19q12 22 25 43q15 26 30 40q86 79 298 79q193 0 193 -113q0 -54 -77.5 -167t-77.5 -165q0 -43 32 -124t32 -124q0 -53 -53 -86 q-44 -27 -90 -27q-74 0 -151 39q-98 50 -98 127q0 76 48 154q33 48 97 145q56 85 68 148zM517 459q21 34 21 67q0 63 -143 63q-241 0 -298 -113q-8 -16 -18 -33q-4 -37 -4 -65q0 -70 65 -70q20 0 46 5q36 7 36 18v27q0 7 -1 16v10q0 111 109 113q12 0 26.5 -13t13.5 -25 q-6 -72 -62 -160q-34 -51 -101 -155q-52 -84 -52 -145q0 -49 78 -86q65 -30 121 -30q31 0 59 16q34 19 34 47q0 36 -32 119.5t-32 128.5q0 65 50 140q29 41 84 125z" />
<glyph unicode="8" horiz-adv-x="645" d="M336 -144q-118 0 -207 41q-116 54 -116 160q0 110 47 188q27 45 124 144q-3 13 -15 46q-11 29 -11 47q0 72 51 118.5t123 46.5q110 0 167 -26q84 -38 84 -137q0 -21 -7 -63t-7 -63q0 -22 34 -60q48 -54 63 -77q35 -53 35 -103q0 -124 -133 -200q-109 -62 -232 -62z M336 -94q110 0 207 56q108 62 108 156q0 45 -35 88q-21 24 -63 74q-34 41 -34 78q0 21 7 63t7 63q0 73 -70 98q-41 15 -131 15q-52 0 -88 -32t-36 -83q0 -14 13.5 -48.5t13.5 -51.5q0 -13 -7 -20q-98 -99 -118 -131q-47 -73 -47 -174q0 -82 103 -122q74 -29 170 -29z M401 378q10 22 10 40q0 32 -16 41q-4 -25 -4 -32q0 -31 10 -49zM399 326q-30 0 -46 38q-12 29 -12 63q0 84 50 84q33 0 53 -31q17 -27 17 -62q0 -32 -15 -59q-18 -33 -47 -33zM448 208l-20 -7l-4 -1q-21 -29 -21 -76q0 -41 28 -41q18 0 51 11q38 13 38 26q0 20 -26.5 54 t-45.5 34zM448 258q41 0 81.5 -48.5t40.5 -89.5q0 -39 -52 -65q-43 -22 -87 -22q-78 0 -78 91q0 32 12 70q16 49 41 53q5 1 21 6q13 5 21 5z" />
<glyph unicode="9" horiz-adv-x="618" d="M270 -89q-70 0 -136 34q-81 42 -81 105q0 13 9 38t19 29q3 1 33 29q20 18 61 18q17 0 49 -11t48 -11q7 0 14 4v3q-10 10 -83 24.5t-102 37.5q-51 40 -51 130q0 122 54 188q59 74 178 74q148 0 257 -73q127 -85 127 -235q0 -171 -112 -277.5t-284 -106.5zM270 -39 q152 0 249 91.5t97 242.5q0 126 -108 197q-94 61 -226 61q-182 0 -182 -212q0 -75 48 -101q17 -9 100 -24q92 -16 92 -69q0 -23 -22 -39t-46 -16q-17 0 -49 11t-48 11q-21 0 -35 -13q-21 -19 -28 -24l-4 -13q-1 -4 -5 -14q0 -39 67 -66q56 -23 100 -23zM346 364 q-5 -9 -5 -24q0 -14 2 -19q2 -1 3 -1q15 0 15 11q0 29 -15 33zM411 331q0 -27 -19 -44t-46 -17q-55 0 -55 70q0 29 12 49q14 25 41 25q32 0 51 -26q16 -24 16 -57z" />
<glyph unicode=":" horiz-adv-x="352" d="M139 272q-84 35 -84 103q0 81 69 107q23 8 67 26q15 6 24 6q11 0 59.5 -17t59.5 -24q41 -26 41 -94q0 -53 -29 -90q-32 -41 -84 -41q-65 0 -123 24zM262 298q30 0 48 26q15 23 15 55q0 30 -8.5 42t-36.5 21q-70 22 -65 22q-6 -3 -17 -8q-32 -11 -64 -23q-29 -17 -29 -58 q0 -38 62 -60q48 -17 95 -17zM203 18q-56 0 -87.5 33t-31.5 90q0 27 28 73q33 53 68 49q41 -5 62 -5q51 0 91 -22q49 -27 49 -74q0 -69 -62 -110q-51 -34 -117 -34zM203 68q46 0 84 23q45 28 45 71q0 23 -35 36q-27 10 -54.5 10t-68.5 5q-40 -47 -40 -72q0 -73 69 -73z" />
<glyph unicode=";" horiz-adv-x="324" d="M282 270q-19 -5 -82 -5q-121 0 -150 53q-18 16 -18 50q0 49 44 86q38 33 90 41q4 1 7 2q16 13 29 13q61 0 101 -52q37 -47 37 -110t-58 -78zM207 460l-2 -1q-2 -2 -41 -14t-59 -32q-23 -22 -23 -45q0 -12 -1 -11l12 -12q12 -30 107 -30q57 0 69 3q21 5 21 30 q0 39 -23 74.5t-60 37.5zM101 -25q0 25 21 62t21 45q-46 15 -72.5 43.5t-26.5 52.5q0 7 3 15q16 43 62 66q40 19 91 19q78 0 123 -36q49 -39 49 -115q0 -80 -59 -140.5t-139 -60.5q-33 0 -53 13t-20 36zM152 -21h1q8 -3 21 -3q59 0 103.5 46t44.5 105q0 101 -122 101 q-81 0 -103 -45q9 -32 55 -52q41 -17 41 -49q0 -22 -20 -56.5t-21 -46.5z" />
<glyph unicode="&#x3c;" horiz-adv-x="461" d="M416 -97q-67 0 -176 57q-94 50 -155 105q-83 75 -83 140t101 210q67 97 112 137q75 68 158 68q52 0 92 -28q45 -31 45 -81q0 -49 -63 -95q-41 -28 -122 -84q-71 -49 -84 -90q24 -30 103 -67q88 -41 118 -66q57 -47 57 -117q0 -40 -31 -64.5t-72 -24.5zM416 -47 q19 0 36 10.5t17 28.5q0 59 -72 100q-45 23 -134 69q-73 39 -73 82q0 38 58 91q29 26 91.5 66.5t89.5 64.5q31 27 31 46q0 28 -31 45q-25 14 -56 14q-69 0 -134 -64q-34 -32 -95 -120q-92 -133 -92 -181q0 -67 144 -161q139 -91 220 -91z" />
<glyph unicode="=" horiz-adv-x="589" d="M104 446q172 86 304 86q60 0 100.5 -32t40.5 -91q0 -41 -27 -64t-69 -23q-18 0 -55 5.5t-55 5.5q-40 0 -108 -39t-104 -39q-23 0 -46 19.5t-23 41.5q0 5 1 9q-2 16 -2 30q0 70 43 91zM116 314q7 -9 15 -9q21 0 91.5 39t120.5 39q18 0 55 -5.5t55 -5.5q46 0 46 37 q0 73 -91 73q-119 0 -281 -81q-16 -8 -16 -46q0 -7 2.5 -20.5t2.5 -20.5zM72 167q0 7 7 35t10 31q41 36 128 36q33 0 97.5 -15.5t97.5 -15.5q19 0 65.5 26.5t73.5 26.5q34 0 60 -25t26 -59q0 -93 -130 -141q-94 -35 -206 -35q-229 0 -229 136zM301 81q85 0 169 25 q117 35 117 101q0 14 -11 24t-25 10q-13 0 -60.5 -26.5t-78.5 -26.5q-33 0 -97.5 15.5t-97.5 15.5q-55 0 -87 -18q0 -5 -4 -16.5t-4 -17.5q0 -86 179 -86z" />
<glyph unicode="&#x3e;" horiz-adv-x="470" d="M281 242q-10 21 -60 67.5t-72 57.5q-10 9 -30 25q-58 35 -72 48q-35 33 -35 78q0 50 49 79q39 23 83 23q86 0 160 -65q45 -39 114 -137q100 -142 100 -208q0 -77 -92 -158q-67 -59 -160 -103q-98 -46 -160 -46q-44 0 -74.5 26t-30.5 69q0 54 55 103q35 31 113.5 72.5 t110.5 67.5zM106 -47q89 0 223 89q139 92 139 168q0 51 -91 180q-88 125 -137.5 152.5t-95.5 27.5q-25 0 -51 -14q-31 -16 -31 -38q0 -33 46 -62q61 -38 69 -47q39 -24 92 -77q63 -63 63 -95q0 -28 -67 -66q-29 -15 -86 -46q-128 -73 -128 -127q0 -45 55 -45z" />
<glyph unicode="@" horiz-adv-x="614" d="M487 422q3 9 3 19q0 39 -26 83q-11 19 -51 71l-32 1q-62 2 -133 -94q-67 -91 -67 -156q0 -55 39 -97.5t93 -42.5q52 0 86 21q11 5 46 37q23 21 47 21q45 0 81.5 -40.5t36.5 -86.5q0 -86 -80 -165t-166 -79q-153 0 -245 137q-79 118 -79 270q0 171 87 295q100 142 270 142 q134 0 201 -88q61 -80 61 -217q0 -200 -122 -200q-97 0 -150 48q-36 -50 -84 -50q-50 0 -82 25q-35 27 -35 76q0 71 53 130.5t123 65.5q31 3 75 -48q36 -42 50 -78zM361 498q-49 -7 -87 -52t-38 -94q0 -51 67 -51q20 0 46 35t35 35t19 -13q40 -55 134 -55q72 0 72 150 q0 255 -212 255q-148 0 -233 -124q-74 -109 -74 -263q0 -140 70 -242q79 -115 204 -115q66 0 131 64.5t65 129.5q0 25 -22 51t-46 26q-5 0 -28 -22t-53 -36q-44 -21 -98 -21q-75 0 -128.5 57.5t-53.5 132.5q0 82 81 190q86 115 172 110q48 -3 55 -7t38 -45q63 -84 63 -153 q0 -77 -55 -77q-32 0 -38 21q-20 78 -86 113zM303 364q0 24 -12 37l40 5q-16 -29 -16 -41l3 1l-14 -8q-1 -3 -1 6zM328 317q-7 -1 -15 -1q-20 0 -34 14.5t-14 34.5q0 21 12 48q15 32 32 32q9 0 18 -9q26 -27 26 -72q0 -40 -25 -47z" />
<glyph unicode="A" horiz-adv-x="669" d="M518 -90q-14 0 -21 11q-27 42 -76 105q-20 4 -28 4q-39 0 -59 -53q-27 -72 -56 -98q-60 -53 -196 -53q-42 0 -66 39q-21 35 -18 78l1 4q9 124 65 308q65 214 135 285q17 47 119 79q81 25 144 25q43 0 66 -32q21 -28 21 -72q0 -21 -5 -63t-5 -63q0 -46 98 -178t98 -169 q0 -62 -86 -113q-74 -44 -131 -44zM531 -39q40 5 93 36q61 36 61 70q0 23 -51 90q-83 110 -95 128q-50 77 -50 129q0 21 5 63t5 63q0 54 -37 54q-38 0 -116 -20q-94 -24 -101 -53q-1 -6 -7 -13q-59 -54 -120 -261q-47 -159 -70 -306q3 -65 34 -65q91 0 130 20 q50 25 78 104.5t103 79.5q45 0 69 -23q7 -7 47 -64q7 -11 22 -32zM324 198q38 9 64 36l-6 -26q-1 4 -4 27q-10 29 -19 38l-2 -4q-8 -13 -10 -20q-8 -15 -23 -51zM428 232q2 -27 -4 -33q-47 -49 -123 -55q-16 -1 -25.5 10.5t-8.5 27.5q1 17 22 63t32.5 62.5t27.5 17.5l4 1 q31 2 54 -32q19 -28 21 -62z" />
<glyph unicode="B" horiz-adv-x="576" d="M53 320q-2 5 -2 15q0 14 3.5 41.5t3.5 41.5q0 101 39 200q51 129 136 129q406 0 406 -141q0 -84 -29 -140q-27 -52 -95 -106q-43 -34 -43 -58v3q12 -18 47 -44q39 -29 53 -45q25 -28 25 -59q0 -34 -26 -73q-6 -9 -49 -62q-22 -63 -120 -126.5t-166 -63.5q-107 0 -164 96 q-46 77 -46 182q0 62 8 106zM102 336q2 -5 2 -14q0 -20 -8 -59q-4 -19 -12 -56q-8 -42 -8 -97q0 -89 35 -151q43 -77 125 -77q62 0 130 51q48 36 111 108q4 13 40 54q30 34 30 62q0 17 -62.5 68.5t-62.5 76.5q0 44 43 81q68 59 80 74q44 58 44 149q0 55 -161 78 q-91 13 -195 13q-57 0 -95 -116q-30 -92 -30 -163q0 -42 -6 -82zM296 378q38 40 47 63q0 6 -7 9q-1 0 -17 -7t-17 -8q-9 -9 -9 -36q0 -11 3 -21zM336 500q23 0 40 -18.5t17 -41.5q0 -20 -29 -59q-46 -61 -80 -63q-20 -1 -32 31q-9 25 -9 50q0 47 23 71q9 9 33.5 19.5 t36.5 10.5zM329 202q-2 1 -6 1q-9 0 -26 -12l-7 -58q44 15 59 28l-1 3q-6 13 -19 38zM256 223q34 30 67 30q46 0 72 -73q5 -14 5 -22q0 -28 -50 -55q-45 -25 -76 -25q-34 0 -34 56q0 18 4 47q5 36 12 42z" />
<glyph unicode="C" horiz-adv-x="620" d="M299 268q-5 -23 -5 -80q0 -46 16 -63q46 -3 116 9q17 3 30 3q131 0 123 -47q-2 -12 -2 -31q0 -18 4 -52.5t4 -52.5q0 -24 -5 -43q-29 -109 -255 -109q-114 0 -222.5 102t-108.5 215q0 404 231 450q23 5 70 16q41 9 70 9q103 0 191 -38q114 -49 114 -141q0 -120 -23 -174 q-37 -87 -146 -87h-11q-10 -1 -16 -1h-29q-101 0 -111 63q-4 26 -35 52zM501 204q81 0 106 73q13 39 13 138q0 66 -101 102q-75 27 -154 27q-27 0 -65 -9q-32 -7 -64 -15q-192 -39 -192 -401q0 -92 94 -179.5t187 -87.5q187 0 206 72q4 15 4 33q0 16 -5 61q-4 39 -2 62 q-19 7 -72 7q-15 0 -51.5 -8t-53.5 -6q-51 -6 -67 7q-40 32 -40 108q0 61 3 79q9 55 42 58q29 3 61 -35q28 -35 33 -66q0 -4 1 -11q9 -9 117 -9z" />
<glyph unicode="D" horiz-adv-x="671" d="M470 -98q-161 -103 -273 -103q-65 0 -87 57q-10 24 -17 110q-5 58 -14 260q-10 226 -10 311q0 56 4 61q1 3 7 12q41 62 102 62q131 0 289 -54q200 -68 229 -177q14 -52 14 -123q0 -148 -58 -243q-55 -89 -186 -173zM628 126q25 60 31 102q5 29 5 90q0 65 -12 110 q-22 83 -197 143q-148 51 -273 51q-33 0 -62 -42l6 -305q4 -172 16 -305q8 -86 15 -101q19 -20 40 -20q98 0 245.5 94t185.5 183zM301 299q8 -72 64 -194q75 27 89 52q0 41 -12 76q-15 45 -43 59.5t-85 14.5q-5 -2 -13 -8zM294 353q10 4 20 4q146 0 176 -111q15 -55 15 -86 q0 -38 -57 -72q-37 -22 -88 -37q-17 -5 -27 9q-19 27 -51 121t-32 125q0 29 44 47z" />
<glyph unicode="E" horiz-adv-x="623" d="M380 542q20 10 170 10q66 0 95 -13q47 -21 47 -81q0 -11 2 -33.5t2 -33.5q0 -73 -73 -98q-37 -12 -134 -16q-118 -4 -146 -31q1 -7 5 -12q8 -1 17 -1q25 0 72.5 11.5t72.5 11.5q48 0 65 -33q12 -24 12 -76q0 -58 -41 -100q-17 -17 -200 -73t-217 -56q-93 0 -93 156 q0 91 29 270t29 270q0 43 -4 77q-5 40 52 71q48 26 88 26q123 0 174 -8q129 -20 129 -88q0 -59 -66 -87q-59 -18 -117 -37q-2 -10 -2 -19l3 -6zM396 495q-7 -3 -10 -3h-49q-13 0 -26 19.5t-13 33.5q0 44 11.5 56t56.5 25q58 16 59 17q34 12 54 30l2 8q2 8 2 11q0 46 -253 46 q-61 0 -90 -49q3 -35 3 -72q0 -91 -28.5 -271.5t-28.5 -271.5q0 -106 43 -106q23 0 198.5 52.5t183.5 61.5q26 27 26 65q0 33 -1 38q-4 21 -26 21q-24 0 -72.5 -12t-73.5 -12q-50 0 -66 40q-6 15 -6 27q0 44 74 62q40 10 149 18q91 7 114 21q18 11 18 48q0 10 -2.5 30 t-2.5 30q0 32 -33 41q-12 3 -59 3q-81 0 -154 -7z" />
<glyph unicode="F" horiz-adv-x="614" d="M586 176q-13 -3 -45 -7q-26 -6 -42 -16q1 -6 16 -58q10 -35 10 -60q0 -66 -125 -151q-116 -79 -180 -79q-46 0 -56 21q-23 49 -47 360q-21 271 -21 384q0 26 -5.5 77t-5.5 77q0 11 12.5 37.5t20.5 30.5q39 18 97 18q137 0 226 -35q130 -51 130 -168q0 -119 -61 -129 q-42 -7 -43 -7q-22 -6 -37 -24q-4 -7 6 -45.5t18.5 -44.5t27.5 -6q17 0 51.5 7t51.5 7q36 0 58 -20t22 -56q0 -96 -79 -113zM615 291q-1 3 -2 8l-3 9q-12 7 -25 7q-18 0 -53 -7.5t-53 -7.5q-29 0 -53 16q-20 13 -33 55q-12 37 -12 66t11 42q23 27 46 37q14 6 36 7t32 6 q15 13 15 78q0 90 -117 128q-77 25 -189 25q-40 0 -68 -10l-6 -14q-2 -3 -6 -13q0 -26 5.5 -76.5t5.5 -76.5q0 -101 19 -359q21 -288 41 -353l3 -1q6 -2 11 -2q49 0 152 69t103 111q0 23 -13.5 64t-13.5 57q0 41 72 59q16 2 55.5 10.5t39.5 65.5z" />
<glyph unicode="G" horiz-adv-x="677" d="M655 374q3 -30 30 -94q26 -59 26 -95q0 -51 -106 -121q-86 -57 -212 -107q-115 -46 -158 -46q-55 0 -97 56q-26 34 -56 109q-26 65 -38 74q-15 12 -25 133q-9 107 -6 146q-4 39 -4 58q0 139 41 191q53 67 198 105q112 29 219 29q127 0 127 -223q0 -50 -64 -80 q-51 -24 -108 -24q-27 0 -43 20l-24 42q-34 -14 -53 -54q-11 -23 -22 -74q7 -12 78 -73l7 -6q0 12 -13 52t-13 60q0 29 25 35q30 7 124 28q130 28 169 28q77 0 77 -126q0 -19 -31 -29zM658 428q13 4 25 7q-3 30 -9 53l-7 2q-3 1 -10 3q-50 0 -134 -19q-66 -17 -133 -34 q1 -15 13 -48t12 -51q0 -19 -11 -42q-13 -27 -30 -27q-8 0 -18 9q-26 22 -79 67t-47 73q16 74 36 111q31 57 90 69q22 5 43 -30.5t23 -35.5q29 0 71 14q51 17 51 40q0 173 -77 173q-102 0 -207 -27q-128 -33 -170 -87q-31 -40 -31 -161q0 -17 4 -56v-4q-2 -19 -2 -40 q0 -40 23 -205q16 -19 42 -81q29 -68 45 -94q29 -46 64 -46q64 0 241 87q185 91 185 137q0 30 -28 96.5t-28 103.5q0 27 53 43z" />
<glyph unicode="H" horiz-adv-x="629" d="M427 539q10 28 31 82q19 43 77 43q66 0 96 -14q46 -22 46 -82q0 -176 -21 -360q-36 -318 -119 -318q-94 0 -127 35q-22 23 -29 85q-8 73 -26 106q-1 -1 -19 -22q1 -27 13 -83t12 -86q0 -70 -30 -81q-77 -29 -214 -29q-120 0 -120 117q0 72 34.5 211.5t34.5 211.5 q0 67 18 166l30 164q7 39 67 60q48 17 92 17q76 0 101 -74q14 -42 14 -134q0 -9 2 -19q26 -1 37 4zM538 -59q42 33 69 306q20 200 20 321q0 34 -32 42q-15 4 -60 4q-32 0 -42 -33l-19 -63q-20 -33 -75 -33q-10 0 -29 2q-32 3 -32 67q0 74 -5 97q-13 61 -60 61 q-70 0 -110 -42l-30 -157q-17 -91 -17 -158q0 -72 -34.5 -211.5t-34.5 -211.5q0 -67 70 -67q120 0 188 23q6 14 6 37q0 30 -12.5 89t-12.5 89q0 12 23 39q27 31 51 31q46 0 62 -106q2 -21 10.5 -73.5t105.5 -52.5z" />
<glyph unicode="I" horiz-adv-x="467" d="M332 432q-60 0 -131 17q-97 23 -111 65q-5 15 -5 40q0 23 9 68t9 68q0 42 46 67q39 21 84 21q39 0 120 -13q69 -11 88 -19q45 -20 45 -67v-73q0 -79 -37 -124q-40 -50 -117 -50zM432 695q-22 12 -100 23q-69 10 -99 10q-21 0 -47 -9q-33 -12 -33 -29q0 -23 -9 -68t-9 -68 q0 -19 3.5 -25t20.5 -14q71 -33 173 -33q104 0 104 124v73q0 10 -4 16zM187 420q98 27 134 27q81 0 108 -29q20 -21 42 -105q24 -90 24 -132q0 -29 -10 -37q-40 -34 -158 -78q-122 -46 -188 -46q-42 0 -58 35q-10 22 -11 71v177v52q1 31 45 47zM120 350q1 -9 0 -49 q-1 -100 0 -175q1 -44 9 -56q6 -1 13 -1q43 0 143 35q112 39 160 73v4q0 32 -20 108.5t-36 100.5q-22 7 -68 7q-25 0 -97 -19z" />
<glyph unicode="J" horiz-adv-x="621" d="M381 544q-19 0 -56 -4.5t-56 -4.5q-33 0 -44 17q-36 56 -36 122q0 37 2 43q4 11 4 27v9q-1 7 -1 10q0 32 43 41q20 4 76 10q32 3 116 -7q94 -11 113 -28q37 -33 37 -108q0 -133 -114 -133q-14 0 -42 3t-42 3zM245 754v-4q0 -10 -4 -29.5t-4 -27.5q4 -69 26 -107 q3 -1 6 -1q19 0 56 4.5t56 4.5q14 0 42 -3t42 -3q42 0 55 23q9 16 9 60q0 53 -20 71q-8 7 -88.5 15.5t-101.5 6.5q-62 -7 -72 -9zM479 -208h-103q-63 0 -199 31q-100 23 -125 36q-58 31 -58 101q0 33 16 56q9 135 185 135q34 0 49 -20q4 -6 18 -40q10 -26 29 -35 q9 -4 32.5 13t23.5 31q0 44 -7 65l-1 2l-60 209q-14 15 -25 51q-10 33 -10 56q0 59 131 59q172 0 222 -51q19 -20 55 -190q34 -163 34 -200q0 -100 -47 -192q-60 -117 -160 -117zM294 479q5 -47 20 -68l12 -17q2 -13 60 -211q11 -27 11 -83q0 -34 -33 -63.5t-67 -29.5 q-59 0 -94 92q-6 2 -8 2q-65 0 -94 -15q-39 -21 -41 -80q0 -4 -8 -19t-8 -27q0 -9 5 -36q32 -28 155 -56q113 -26 172 -26h103q68 0 115 90q42 80 42 169q0 32 -32 188.5t-42 166.5q-36 36 -187 36q-56 0 -81 -13z" />
<glyph unicode="K" horiz-adv-x="762" d="M40 111l-2 -3q1 24 -4 71t-5 69q2 126 6 177q12 144 42 169l3 3q21 15 61 40q69 43 96 43q41 0 64 -57q3 -6 24 -92l1 -4l2 3q66 98 89 118q53 44 145 44q100 0 100 -57q0 -30 -26.5 -75t-26.5 -56q11 -26 71 -79q87 -77 103 -93q53 -55 53 -89q0 -23 -11 -56l-1 -3 q-12 -26 -35 -60q-46 -68 -92 -68q-48 0 -123 39l-119 62q6 -39 6 -58q0 -87 -121 -146q-98 -48 -182 -48q-80 0 -104 108q-5 26 -17 79zM611 634q-30 8 -49 8q-80 0 -127 -44q-22 -20 -58 -84q-28 -49 -58 -55q-26 -5 -37 40q-2 7 -21 84q-12 47 -25 47q-28 -7 -126 -74 q-29 -55 -31 -309q0 -21 5 -61t5 -60q0 -14 -2 -27q9 -43 17 -86q18 -58 54 -58q73 0 159 43q94 47 94 101q0 17 -6 50t-6 48q0 23 20 23q25 0 83 -30q32 -17 96.5 -50.5t98.5 -33.5q17 0 47 42q21 30 35 57q7 21 7 38q0 20 -59 74q-37 32 -109 98q-59 55 -59 89 q0 26 26 68.5t26 61.5z" />
<glyph unicode="L" horiz-adv-x="550" d="M28 298q-2 18 33 133q32 105 46 136q5 15 23 50q19 39 27.5 46.5t38.5 28.5q49 35 81 35q65 0 110 -27q55 -33 55 -94q0 -55 -32.5 -161.5t-32.5 -161.5q0 -1 2 -9l2 -8q14 -11 37 -12q29 -1 38 -4q31 -10 92 -33q64 -26 64 -60q0 -113 -94 -195q-91 -77 -206 -77 q-112 0 -202 63q-104 73 -101 188q1 47 4 82q4 55 15 80zM81 308q3 -7 -4 -25q-8 -22 -9 -27q-7 -32 -9 -120q-2 -91 83 -149q75 -52 170 -52q93 0 168 61q80 65 82 156q-16 15 -124 51l-6 3q-13 -4 -25 -4q-34 0 -57 23.5t-23 57.5q0 55 32.5 161.5t32.5 161.5q0 37 -41 56 q-32 15 -74 15q-24 0 -85 -51q-14 -25 -38 -75l-1 -4q-17 -43 -72 -239z" />
<glyph unicode="M" horiz-adv-x="962" d="M985 494q7 -15 14 -137q6 -110 6 -142q0 -26 -78 -65q-70 -35 -99 -35q-38 0 -76 42q-43 48 -48 50q-32 -22 -44 -102q-15 -99 -29 -126q-30 -58 -117 -57q-56 1 -65 10q-41 40 -58 97q-2 8 -22 106q-13 63 -35 101l-3 1l-22 -108q-20 -63 -79 -63q-82 0 -147 32 q-87 43 -87 129q0 192 56 384q-6 18 32.5 81.5t57.5 65.5q142 18 194 18q106 0 162 -79q45 -63 75 -169l2 -7v-5q-5 -1 -9 -1q-14 0 -19 14q-2 -4 -9 -6q24 52 50 97q96 163 254 163q50 0 87.5 -42.5t37.5 -93.5q0 -8 -2 -17q14 -32 20 -136zM939 476q-6 13 -8 64t-14 76 q-4 8 -2 18q2 6 2 14q0 29 -23.5 57t-51.5 28q-95 0 -161 -72q-42 -46 -94 -151q-15 -31 -37 -31q-21 0 -25 35q-45 120 -59 142q-45 70 -130 70q-54 0 -177 -16q-21 -28 -55 -86q2 -8 0 -15q-58 -190 -58 -382q0 -59 66 -89q51 -22 118 -22q27 0 37 48q7 38 14 75 q14 55 40 50q13 -2 28.5 -5.5t20.5 -10.5q29 -43 52 -156q21 -105 55 -143q102 -5 121 48q10 69 21 138q25 97 83 97q27 0 52 -27q11 -13 34.5 -39t39.5 -26q40 0 127 63q-1 90 -16 248z" />
<glyph unicode="N" horiz-adv-x="903" d="M532 375q18 19 53 69q32 45 56 65q37 30 83 30q54 0 140 -74.5t86 -127.5q0 -43 -77 -265q-80 -231 -107 -242q-34 -14 -89 -14q-85 0 -143 40q-53 36 -97 113q-24 44 -73 132q-10 18 -18 27q8 -43 15 -86q9 -50 9 -86q0 -48 -21 -79q-25 -37 -70 -37q-97 0 -173 26 q-109 37 -109 117q0 26 -1.5 77t-1.5 77q0 114 25 189q5 74 15 120q11 52 29 74q24 30 70 30q104 0 213 -56q51 -26 186 -119zM746 -124q6 2 79 213q75 215 75 248q0 31 -71.5 91.5t-104.5 60.5q-42 0 -77 -44q-2 -3 -58 -80q-31 -43 -57 -43q-12 0 -77 46q-83 58 -140 86 q-96 46 -182 46q-3 0 -25 -6q-20 -16 -31 -81q-8 -47 -8 -91l-1 -6q-9 -51 -21 -166v-167q0 -51 96 -76q65 -17 136 -17q41 0 41 66q0 38 -14 111.5t-15 109.5q0 13 8.5 20.5t21.5 4.5q54 -12 101 -101q71 -134 88 -155q64 -80 167 -80q46 0 69 10z" />
<glyph unicode="O" horiz-adv-x="777" d="M1 469q2 68 76 140t143 80q5 1 93 17q54 10 94 10q406 0 406 -263q0 -170 -102 -288q-107 -125 -274 -125q-177 0 -308 125q-134 129 -128 304zM51 467q-6 -154 114 -267q116 -110 272 -110q146 0 239 110q87 104 87 253q0 213 -356 213q-36 0 -90 -10q-78 -14 -91 -16 q-50 -6 -111.5 -65t-63.5 -108zM260 418q2 1 5 1l-9 -6q-1 -10 -1 -16q0 -28 56 -60q51 -29 82 -29q24 0 52 19.5t28 42.5q-14 19 -66 35q-46 14 -76 14h-36q-9 0 -21 -1h-14zM295 469h36q52 0 113 -23q79 -30 79 -76q0 -45 -42 -78.5t-88 -33.5q-47 0 -113 40 q-75 46 -75 99q0 30 8.5 45t35.5 24q7 2 46 3z" />
<glyph unicode="P" horiz-adv-x="702" d="M589 164q-28 -7 -83.5 -24.5t-55.5 -53.5q0 -16 6.5 -48t5.5 -49v-28q-1 -24 -11 -33q-23 -20 -72 -32q-42 -11 -80 -11q-105 0 -160 157q-63 182 -109 352q-31 115 -31 162q0 61 63 99q54 32 119 32q82 0 90 -8l20 -27q16 -21 22 -21q32 0 95.5 14.5t95.5 14.5 q125 0 187 -46q72 -52 72 -173q0 -222 -174 -277zM573 211q63 20 96 62q44 57 44 168q0 99 -57 138q-47 31 -152 31q-32 0 -95.5 -14.5t-95.5 -14.5q-23 0 -40 16q-4 3 -27 34l-3 4q-10 0 -31 1t-31 1q-69 0 -126 -55l-3 -13l-3 -13q0 -38 30 -149q47 -173 107 -348 q43 -124 113 -124q69 0 112 25q1 22 -5 64t-6 62q0 75 98 104zM434 310v4q-4 25 -17 64q-7 12 -33 12q-33 0 -47 -10q-4 -3 -15 -38.5t-11 -43.5q0 -13 4 -27q91 15 119 39zM483 325q2 -9 2 -18q0 -39 -80 -66q-63 -21 -107 -22q-19 0 -29 31q-8 24 -8 48q0 23 16 66 q17 47 32 57q28 19 75 19q54 0 75 -36q10 -17 24 -79z" />
<glyph unicode="Q" horiz-adv-x="702" d="M242 365q-2 9 -13 39q-9 26 -9 36q0 15 13 38q22 38 54 38q21 0 75 -27l3 -1q13 24 13 68q0 20 -5 27q-6 -2 -16 -8q-126 -75 -126 -177q0 -23 3 -31q1 0 3 -1zM270 441q24 -68 25 -110q1 -25 -21 -25q-8 0 -25 5t-22 6q-46 9 -46 81q0 143 165 229q13 7 26 7 q56 0 56 -78q0 -38 -12 -75q-17 -53 -47 -47q-11 2 -42 17t-40 15q-7 0 -17 -25zM728 184q-35 -110 -133 -110q-41 0 -103.5 45t-67.5 45q-30 -22 -57 -39q-75 -47 -134 -47q-120 0 -182 100q-50 81 -50 200q0 128 98 253q105 134 236 142q27 2 99 10q60 7 99 7 q72 0 129 -34q70 -42 70 -119q0 -48 -20 -92q-13 -28 -47 -76t-46 -74q11 -1 30 0q23 2 30 2q21 0 44.5 -14t23.5 -33q0 -107 -19 -166zM697 340l-3 2q-11 5 -15 5h-26q-35 -1 -27 -1q-64 0 -64 32q0 23 24 61q22 31 63 93q33 52 33 105q0 50 -52 79q-43 24 -97 24 q-39 0 -97 -7q-72 -9 -98 -10q-109 -6 -200 -122q-87 -111 -87 -223q0 -101 40 -168q48 -82 142 -82q43 0 113.5 43t77.5 43q26 0 85.5 -45t85.5 -45q101 0 102 216z" />
<glyph unicode="R" horiz-adv-x="823" d="M752 233l63 -42q35 -25 35 -66q0 -44 -36 -83q-17 -18 -76 -63q-49 -37 -65 -64q-10 -16 -60 -16q-37 0 -132.5 60.5t-128.5 62.5q-2 -45 -3 -89q-7 -43 -57 -70q-46 -25 -96 -25q-138 0 -138 236q0 134 -34 365q-7 46 76 92q59 33 115 47q65 16 188 28q113 11 191 11 q120 0 180 -42q72 -51 72 -166q0 -71 -94 -176zM613 -51q7 0 24 3q9 12 95 84q68 57 68 89q0 13 -52.5 51.5t-52.5 58.5q0 10 8 19q93 99 93 155q0 93 -57 130q-45 28 -145 28q-27 0 -157 -11q-152 -13 -197 -23q-124 -28 -165 -95q33 -230 33 -364q0 -76 11 -116 q19 -70 77 -70q34 0 66 15q39 19 39 49q0 9 -1 27t-1 27q0 42 26 57q15 9 23 9q47 0 145.5 -61.5t119.5 -61.5zM335 172q26 4 68.5 49t42.5 70q-9 10 -38 10q-93 0 -93 -26q0 -75 20 -103zM408 351q32 0 57 -14q31 -17 31 -46q0 -47 -59 -108t-105 -61q-37 0 -55 60 q-12 40 -12 93q0 76 143 76z" />
<glyph unicode="S" horiz-adv-x="715" d="M273 66q-260 0 -260 120q0 65 27 113q33 58 94 58q52 0 74 -6q41 -11 49 -49q1 -5 6 -14q41 16 61 36q-118 18 -193 57q-111 58 -103 149v4q0 102 199 179q153 59 273 59h90q55 0 91 -27q40 -30 40 -83q0 -28 -12 -38q-16 -14 -89 -33q-69 -18 -76 -29q22 -13 102 -42 q63 -23 89 -49q38 -38 38 -107q0 -167 -188 -244q-132 -54 -312 -54zM273 116q173 0 293 50q157 66 157 198q0 56 -42 85q-17 11 -93 39q-62 23 -89 54q-7 8 -7 19q0 52 104 76q54 12 72 20q2 39 -20 53q-17 12 -58 12h-90q-107 0 -248 -56q-159 -63 -174 -138 q2 -71 110 -116q81 -34 174 -42q23 -2 23 -25q0 -34 -45 -72t-80 -38q-8 0 -14 3q-25 16 -39 60q-11 9 -73 9q-37 0 -56 -45q-15 -34 -15 -76q0 -70 210 -70z" />
<glyph unicode="T" horiz-adv-x="684" d="M660 357l-34 -10q-11 -6 -11 -34t8 -84t8 -84v-72q0 -145 -141 -145q-78 0 -175 56q-109 64 -109 136q0 32 24.5 93t24.5 94q0 11 -3 18q-12 2 -18 2q-24 0 -69 -13.5t-69 -13.5q-47 0 -74 48q-23 40 -23 90q0 66 48 98q33 22 106 35q7 1 70 17q55 14 68 14 q396 0 428 -42q26 -34 26 -43q-4 -137 -85 -160zM676 426q16 25 19 84l-11 14q-84 27 -393 27q-26 -8 -99 -20q-64 -11 -95 -24q-48 -20 -48 -69q0 -26 11 -54q14 -34 36 -34q24 0 69 13.5t69 13.5q39 0 55 -15.5t16 -54.5q0 -36 -24.5 -100.5t-24.5 -86.5q0 -48 94 -97 q85 -45 140 -45q51 0 71 21.5t20 73.5v72q0 28 -8 84t-8 84q0 50 23 69q10 10 44 19.5t44 24.5z" />
<glyph unicode="U" horiz-adv-x="703" d="M450 388h2q39 -4 59 13q0 26 -17 75.5t-17 75.5q0 44 27 76t70 32q170 0 170 -124q0 -111 -27 -250q-36 -183 -94 -232q-41 -34 -121 -34q-32 0 -158.5 23t-156.5 34q-91 34 -128.5 85t-37.5 146q0 73 33 175q46 144 52 171q19 22 39 48q27 35 61 35q82 0 161 -26 q109 -36 109 -103q0 -30 -14 -91.5t-13 -93.5zM694 536q0 74 -120 74q-21 0 -34 -18t-13 -40q0 -26 17.5 -75t17.5 -75q0 -35 -40 -52q-28 -12 -70 -12q-39 0 -48 22q-3 8 -5 62q-1 33 13 94.5t14 91.5q0 37 -97 61q-73 18 -123 18q-9 0 -27 -22q-23 -28 -26 -31 q-4 -20 -50 -161q-32 -98 -32 -165q0 -80 28.5 -118t104.5 -66q27 -10 148.5 -32t149.5 -22q48 0 72 13q28 14 48 54q25 53 45 158q27 143 27 241z" />
<glyph unicode="V" horiz-adv-x="736" d="M506.5 -134q-80.5 -29 -129.5 -29q-55 0 -137 109q-74 99 -87 159q-150 276 -150 314q0 52 50 109.5t102 57.5q39 0 74 -42q18 -22 57 -89q34 -59 55 -78q27 38 39 92q19 84 22 94q25 72 114 97q54 15 157 15q71 0 99.5 -27t28.5 -98q0 -78 -38 -166q-23 -49 -67 -149 q-35 -81 -30 -151l6 -85q0 -37 -42.5 -70.5t-123 -62.5zM622 -1q0 21 -3 62.5t-3 62.5q0 53 42 147q21 45 61 135q32 74 32 144q0 40 -15 64q-35 11 -63 11q-113 0 -154 -15q-64 -23 -80 -106q-11 -58 -30 -107q-30 -79 -62 -79q-40 0 -113 126q-54 92 -79 92q-30 0 -66 -44 t-36 -75q12 -42 81 -168q67 -122 68 -133q5 -40 72 -133q70 -96 103 -96q41 0 114 26q37 13 74 34q57 31 57 52z" />
<glyph unicode="W" horiz-adv-x="876" d="M644 456q12 41 40 121q28 73 90 73q156 0 156 -89q0 -65 -48 -287q-52 -238 -84 -269q-57 -54 -226 -54q-65 0 -93 32q-15 17 -30 72.5t-33 75.5q-26 -2 -49 -45q-36 -66 -45 -78q-33 -41 -86 -41q-212 0 -212 253q0 52 -15.5 156t-15.5 156q0 16 11 56q13 47 25 52 q32 13 71 13q51 0 79 -74q11 -29 27 -114l4 -4q13 18 18 54q6 46 10 57q20 59 109 80q50 11 144 11q81 0 124 -120q12 -34 29 -87zM572 1q148 0 191 40q22 21 70 243q47 219 47 277q0 39 -106 39q-30 0 -49 -55q-10 -33 -31 -100q-17 -52 -45 -46q-37 8 -47 24q-3 11 -18 57 q-19 61 -31 83q-26 50 -62 50q-99 0 -127 -6q-76 -16 -84 -79q-5 -43 -13 -65q-11 -32 -39 -55q-5 -5 -13 -5q-15 0 -34.5 14.5t-22.5 28.5q-5 29 -17 86q-17 71 -41 71q-22 0 -40 -5q0 -4 -10 -33q-7 -21 -7 -33q0 -52 15.5 -156t15.5 -156q0 -203 162 -203q33 0 65 48 q21 38 42 77q32 42 85 39q26 -1 48 -54q8 -25 24.5 -75.5t71.5 -50.5z" />
<glyph unicode="X" horiz-adv-x="801" d="M678 463q24 -22 82 -56.5t83 -58.5q40 -39 40 -81q0 -63 -83 -154.5t-145 -91.5q-36 0 -73 30q-19 15 -54 55q-26 29 -34 29q-18 0 -42 -51q-34 -72 -54 -96q-43 -52 -101 -52q-60 0 -161 73q-107 78 -107 141q0 40 40 69q70 40 70 41q46 31 46 58q0 49 -43 79 q-27 17 -80 50q-42 33 -42 81q0 50 90 141t140 91q46 0 67 -57q12 -39 39 -116q26 -69 79 -91q32 31 59.5 111.5t53.5 105.5q47 46 155 46q35 0 57 -27.5t22 -63.5q0 -34 -51 -106t-53 -99zM582 120q43 -49 73 -49q41 0 109.5 77t68.5 119q0 33 -53 69q-33 21 -99 62 q-54 35 -54 59q0 43 52.5 119.5t52.5 91.5t-7.5 28t-21.5 13q-89 0 -128 -46q-17 -21 -47 -104q-26 -73 -71 -111q-11 -9 -23 -5q-81 25 -113 102q-18 48 -53 144q-8 21 -18 21q-29 0 -104.5 -76t-75.5 -106q0 -28 42 -54q69 -42 80 -53q43 -40 43 -103q0 -47 -40 -80 q-11 -9 -76 -46q-40 -23 -40 -42q0 -39 89 -103q86 -61 129 -61q44 0 76 52q16 32 49 96q29 51 72 51q24 0 50 -23q4 -3 38 -42z" />
<glyph unicode="Y" horiz-adv-x="681" d="M706 482q-12 -9 -110 -65q-85 -48 -93 -62q0 -33 78 -127t78 -131q0 -82 -163 -143q-131 -49 -224 -49q-107 0 -121 22q-38 58 -38 138q0 48 30 140.5t30 140.5q0 31 -43 81q-72 84 -79 93q-43 62 -43 119q0 65 51 109q48 43 114 43q62 0 88 -42q15 -24 24.5 -90 t25.5 -90l30 91q50 150 118 150q74 0 182 -86q114 -90 114 -166q0 -38 -49 -76zM675 522q30 23 30 36q0 53 -97 129q-93 73 -149 73q-28 0 -52 -66q-14 -41 -41 -123q-22 -66 -46 -66q-4 0 -8 1q-47 20 -62 81q-6 34 -20 103q-12 51 -57 51t-80 -29t-35 -73q0 -50 43 -103 q27 -30 79 -91q43 -51 43 -99t-30 -140.5t-30 -140.5q0 -59 24 -101q57 -9 85 -9q60 0 186 41q151 49 151 101q0 21 -40 68q-63 75 -75 91q-41 57 -41 100q0 38 93 92z" />
<glyph unicode="Z" horiz-adv-x="700" d="M491 135l-2 8q-3 12 -3 20q0 125 108 125q73 0 89 -76q4 -21 13 -63q28 -120 28 -143q0 -110 -233 -110q-198 0 -276 10q-218 28 -218 123q0 114 85 209q36 40 174 146q13 10 36 34q0 16 -11 37q-32 -2 -41 -4q-25 -6 -25 -26v-14q0 -27 -15 -48q-16 -24 -42 -24 q-66 0 -90 15q-37 23 -37 92q0 62 4 90q8 59 52 93q33 27 97 42q55 12 111 23q176 38 240 38q93 0 152 -121q46 -95 46 -186q0 -36 -79 -89q-17 -12 -105 -62q-34 -19 -83 -48q-61 -39 -74 -62q38 -24 99 -29zM675 416q3 4 8 9q0 83 -41 165q-46 92 -107 92q-57 0 -230 -37 q-181 -39 -198 -59q-20 -24 -25 -67q-1 -9 -1 -73q0 -42 18 -51q11 -6 59 -6q4 6 9 46q4 34 24 49q29 22 104 21q20 0 35 -35q13 -30 13 -53q0 -31 -77 -88q-105 -77 -142 -118q-77 -85 -77 -182q0 -83 444 -83q183 0 183 60q0 47 -26 127q-4 22 -13 65q-9 40 -41 40 q-58 0 -58 -75q0 -7 3.5 -22t3.5 -23q0 -32 -43 -33q-40 -1 -94 18q-66 23 -66 56q0 39 73 91q38 27 147 89q93 53 115 77z" />
<glyph unicode="[" horiz-adv-x="396" d="M435 602q-9 -31 -17 -63q-13 -31 -46 -34q-141 -15 -141 -86q0 -162 26 -256q12 2 41 5q25 3 41 3q47 0 80 -42q30 -38 30 -87t-135 -122q-124 -67 -170 -67q-75 0 -110 167q-23 109 -23 216q0 417 86 480q26 19 96 26q34 3 101 8q43 2 93 -13q62 -18 62 -52 q0 -35 -14 -83zM399 679q-38 22 -103 21q-17 0 -86.5 -7t-83.5 -17q-65 -48 -65 -440q0 -64 19 -179q25 -154 64 -154q33 0 144 59.5t111 79.5q0 27 -17 53t-43 26q-17 0 -50.5 -4t-50.5 -4q-57 0 -57 306q0 93 103 117l84 18q16 49 19 62q11 38 12 63z" />
<glyph unicode="]" horiz-adv-x="429" d="M204 163q28 95 28 255q0 44 -45 63q-18 8 -86 20q-48 9 -53 26q-12 39 -23 78q-13 46 -13 80q0 30 47 53q43 21 72 19q41 -2 121.5 -11t110.5 -29q86 -57 86 -427q0 -139 -17 -244q-31 -193 -113 -193q-48 0 -171 66q-135 72 -135 123t33 91t83 40q15 0 38 -4 q30 -5 37 -6zM62 682q0 -26 30 -127q105 -24 125 -33q65 -31 65 -104q0 -303 -65 -305q-15 0 -44.5 5t-43.5 5q-28 0 -47 -26t-19 -55q0 -23 111 -81t145 -58q44 0 66 179q14 114 14 208q0 107 -9 199q-16 161 -54 186q-24 16 -207 32q-45 -3 -67 -25z" />
<glyph unicode="a" horiz-adv-x="669" d="M518 -90q-14 0 -21 11q-27 42 -76 105q-20 4 -28 4q-39 0 -59 -53q-27 -72 -56 -98q-60 -53 -196 -53q-42 0 -66 39q-21 35 -18 78l1 4q9 124 65 308q65 214 135 285q17 47 119 79q81 25 144 25q43 0 66 -32q21 -28 21 -72q0 -21 -5 -63t-5 -63q0 -46 98 -178t98 -169 q0 -62 -86 -113q-74 -44 -131 -44zM531 -39q40 5 93 36q61 36 61 70q0 23 -51 90q-83 110 -95 128q-50 77 -50 129q0 21 5 63t5 63q0 54 -37 54q-38 0 -116 -20q-94 -24 -101 -53q-1 -6 -7 -13q-59 -54 -120 -261q-47 -159 -70 -306q3 -65 34 -65q91 0 130 20 q50 25 78 104.5t103 79.5q45 0 69 -23q7 -7 47 -64q7 -11 22 -32zM324 198q38 9 64 36l-6 -26q-1 4 -4 27q-10 29 -19 38l-2 -4q-8 -13 -10 -20q-8 -15 -23 -51zM428 232q2 -27 -4 -33q-47 -49 -123 -55q-16 -1 -25.5 10.5t-8.5 27.5q1 17 22 63t32.5 62.5t27.5 17.5l4 1 q31 2 54 -32q19 -28 21 -62z" />
<glyph unicode="b" horiz-adv-x="576" d="M53 320q-2 5 -2 15q0 14 3.5 41.5t3.5 41.5q0 101 39 200q51 129 136 129q406 0 406 -141q0 -84 -29 -140q-27 -52 -95 -106q-43 -34 -43 -58v3q12 -18 47 -44q39 -29 53 -45q25 -28 25 -59q0 -34 -26 -73q-6 -9 -49 -62q-22 -63 -120 -126.5t-166 -63.5q-107 0 -164 96 q-46 77 -46 182q0 62 8 106zM102 336q2 -5 2 -14q0 -20 -8 -59q-4 -19 -12 -56q-8 -42 -8 -97q0 -89 35 -151q43 -77 125 -77q62 0 130 51q48 36 111 108q4 13 40 54q30 34 30 62q0 17 -62.5 68.5t-62.5 76.5q0 44 43 81q68 59 80 74q44 58 44 149q0 55 -161 78 q-91 13 -195 13q-57 0 -95 -116q-30 -92 -30 -163q0 -42 -6 -82zM296 378q38 40 47 63q0 6 -7 9q-1 0 -17 -7t-17 -8q-9 -9 -9 -36q0 -11 3 -21zM336 500q23 0 40 -18.5t17 -41.5q0 -20 -29 -59q-46 -61 -80 -63q-20 -1 -32 31q-9 25 -9 50q0 47 23 71q9 9 33.5 19.5 t36.5 10.5zM329 202q-2 1 -6 1q-9 0 -26 -12l-7 -58q44 15 59 28l-1 3q-6 13 -19 38zM256 223q34 30 67 30q46 0 72 -73q5 -14 5 -22q0 -28 -50 -55q-45 -25 -76 -25q-34 0 -34 56q0 18 4 47q5 36 12 42z" />
<glyph unicode="c" horiz-adv-x="620" d="M299 268q-5 -23 -5 -80q0 -46 16 -63q47 -3 116 9q17 3 30 3q131 0 123 -47q-2 -12 -2 -31q0 -18 4 -52.5t4 -52.5q0 -24 -5 -43q-29 -109 -255 -109q-114 0 -222.5 102t-108.5 215q0 404 231 450q23 5 70 16q41 9 70 9q103 0 191 -38q114 -49 114 -141q0 -120 -23 -174 q-37 -87 -146 -87h-11q-10 -1 -16 -1h-29q-101 0 -111 63q-4 26 -35 52zM501 204q81 0 106 73q13 39 13 138q0 66 -101 102q-75 27 -154 27q-27 0 -65 -9q-32 -7 -64 -15q-192 -39 -192 -401q0 -92 94 -179.5t187 -87.5q187 0 206 72q4 15 4 33q0 16 -5 61q-4 39 -2 62 q-19 7 -72 7q-15 0 -51.5 -8t-53.5 -6q-51 -6 -67 7q-40 32 -40 108q0 61 3 79q9 55 42 58q29 3 61 -35q28 -35 33 -66q0 -4 1 -11q9 -9 117 -9z" />
<glyph unicode="d" horiz-adv-x="671" d="M470 -98q-161 -103 -273 -103q-65 0 -87 57q-10 24 -17 110q-5 58 -14 260q-10 226 -10 311q0 56 4 61q1 3 7 12q41 62 102 62q131 0 289 -54q200 -68 229 -177q14 -52 14 -123q0 -148 -58 -243q-55 -89 -186 -173zM628 126q25 60 31 102q5 29 5 90q0 65 -12 110 q-22 83 -197 143q-148 51 -273 51q-33 0 -62 -42l6 -305q4 -172 16 -305q8 -86 15 -101q19 -20 40 -20q98 0 245.5 94t185.5 183zM301 299q8 -72 64 -194q75 27 89 52q0 41 -12 76q-15 45 -43 59.5t-85 14.5q-5 -2 -13 -8zM294 353q10 4 20 4q146 0 176 -111q15 -55 15 -86 q0 -38 -57 -72q-37 -22 -88 -37q-17 -5 -27 9q-19 27 -51 121t-32 125q0 29 44 47z" />
<glyph unicode="e" horiz-adv-x="623" d="M380 542q20 10 170 10q66 0 95 -13q47 -21 47 -81q0 -11 2 -33.5t2 -33.5q0 -73 -73 -98q-37 -12 -134 -16q-118 -4 -146 -31q1 -7 5 -12q8 -1 17 -1q25 0 72.5 11.5t72.5 11.5q48 0 65 -33q12 -24 12 -76q0 -58 -41 -100q-17 -17 -200 -73t-217 -56q-93 0 -93 156 q0 91 29 270t29 270q0 43 -4 77q-5 40 52 71q48 26 88 26q123 0 174 -8q129 -20 129 -88q0 -59 -66 -87q-59 -18 -117 -37q-2 -10 -2 -19l3 -6zM396 495q-7 -3 -10 -3h-49q-13 0 -26 19.5t-13 33.5q0 44 11.5 56t56.5 25q58 16 59 17q34 12 54 30l2 8q2 8 2 11q0 46 -253 46 q-61 0 -90 -49q3 -35 3 -72q0 -91 -28.5 -271.5t-28.5 -271.5q0 -106 43 -106q23 0 198.5 52.5t183.5 61.5q26 27 26 65q0 33 -1 38q-4 21 -26 21q-24 0 -72.5 -12t-73.5 -12q-50 0 -66 40q-6 15 -6 27q0 44 74 62q40 10 149 18q91 7 114 21q18 11 18 48q0 10 -2.5 30 t-2.5 30q0 32 -33 41q-12 3 -59 3q-81 0 -154 -7z" />
<glyph unicode="f" horiz-adv-x="614" d="M586 176q-13 -3 -45 -7q-26 -6 -42 -16q1 -6 16 -58q10 -35 10 -60q0 -66 -125 -151q-116 -79 -180 -79q-46 0 -56 21q-23 49 -47 360q-21 271 -21 384q0 26 -5.5 77t-5.5 77q0 11 12.5 37.5t20.5 30.5q39 18 97 18q137 0 226 -35q130 -51 130 -168q0 -119 -61 -129 q-42 -7 -43 -7q-22 -6 -37 -24q-4 -7 6 -45.5t18.5 -44.5t27.5 -6q17 0 51.5 7t51.5 7q36 0 58 -20t22 -56q0 -96 -79 -113zM615 291q-1 3 -2 8l-3 9q-12 7 -25 7q-18 0 -53 -7.5t-53 -7.5q-29 0 -53 16q-20 13 -33 55q-12 37 -12 66t11 42q23 27 46 37q14 6 36 7t32 6 q15 13 15 78q0 90 -117 128q-77 25 -189 25q-40 0 -68 -10l-6 -14q-2 -3 -6 -13q0 -26 5.5 -76.5t5.5 -76.5q0 -101 19 -359q21 -288 41 -353l3 -1q6 -2 11 -2q49 0 152 69t103 111q0 23 -13.5 64t-13.5 57q0 41 72 59q16 2 55.5 10.5t39.5 65.5z" />
<glyph unicode="g" horiz-adv-x="677" d="M655 374q3 -30 30 -94q26 -59 26 -95q0 -51 -106 -121q-86 -57 -212 -107q-115 -46 -158 -46q-55 0 -97 56q-26 34 -56 109q-26 65 -38 74q-15 12 -25 133q-9 107 -6 146q-4 39 -4 58q0 139 41 191q53 67 198 105q112 29 219 29q127 0 127 -223q0 -50 -64 -80 q-51 -24 -108 -24q-27 0 -43 20l-24 42q-34 -14 -53 -54q-11 -23 -22 -74q7 -12 78 -73l7 -6q0 12 -13 52t-13 60q0 29 25 35q30 7 124 28q130 28 169 28q77 0 77 -126q0 -19 -31 -29zM658 428q13 4 25 7q-3 30 -9 53l-7 2q-3 1 -10 3q-50 0 -134 -19q-66 -17 -133 -34 q1 -15 13 -48t12 -51q0 -19 -11 -42q-13 -27 -30 -27q-8 0 -18 9q-26 22 -79 67t-47 73q16 74 36 111q31 57 90 69q22 5 43 -30.5t23 -35.5q29 0 71 14q51 17 51 40q0 173 -77 173q-102 0 -207 -27q-128 -33 -170 -87q-31 -40 -31 -161q0 -17 4 -56v-4q-2 -19 -2 -40 q0 -40 23 -205q16 -19 42 -81q29 -68 45 -94q29 -46 64 -46q64 0 241 87q185 91 185 137q0 30 -28 96.5t-28 103.5q0 27 53 43z" />
<glyph unicode="h" horiz-adv-x="629" d="M427 539q10 28 31 82q19 43 77 43q66 0 96 -14q46 -22 46 -82q0 -176 -21 -360q-36 -318 -119 -318q-94 0 -127 35q-22 23 -29 85q-8 73 -26 106q-1 -1 -19 -22q1 -27 13 -83t12 -86q0 -70 -30 -81q-77 -29 -214 -29q-120 0 -120 117q0 72 34.5 211.5t34.5 211.5 q0 67 18 166l30 164q7 39 67 60q48 17 92 17q76 0 101 -74q14 -42 14 -134q0 -9 2 -19q26 -1 37 4zM538 -59q42 33 69 306q20 200 20 321q0 34 -32 42q-15 4 -60 4q-32 0 -42 -33l-19 -63q-20 -33 -75 -33q-10 0 -29 2q-32 3 -32 67q0 74 -5 97q-13 61 -60 61 q-70 0 -110 -42l-30 -157q-17 -91 -17 -158q0 -72 -34.5 -211.5t-34.5 -211.5q0 -67 70 -67q120 0 188 23q6 14 6 37q0 30 -12.5 89t-12.5 89q0 12 23 39q27 31 51 31q46 0 62 -106q2 -21 10.5 -73.5t105.5 -52.5z" />
<glyph unicode="i" horiz-adv-x="467" d="M332 432q-60 0 -131 17q-97 23 -111 65q-5 15 -5 40q0 23 9 68t9 68q0 42 46 67q39 21 84 21q39 0 120 -13q69 -11 88 -19q45 -20 45 -67v-73q0 -79 -37 -124q-40 -50 -117 -50zM432 695q-22 12 -100 23q-69 10 -99 10q-21 0 -47 -9q-33 -12 -33 -29q0 -23 -9 -68t-9 -68 q0 -19 3.5 -25t20.5 -14q71 -33 173 -33q104 0 104 124v73q0 10 -4 16zM187 420q98 27 134 27q81 0 108 -29q20 -21 42 -105q24 -90 24 -132q0 -29 -10 -37q-40 -34 -158 -78q-122 -46 -188 -46q-42 0 -58 35q-10 22 -11 71v177v52q1 31 45 47zM120 350q1 -9 0 -49 q-1 -100 0 -175q1 -44 9 -56q6 -1 13 -1q43 0 143 35q112 39 160 73v4q0 32 -20 108.5t-36 100.5q-22 7 -68 7q-25 0 -97 -19z" />
<glyph unicode="j" horiz-adv-x="621" d="M381 544q-19 0 -56 -4.5t-56 -4.5q-33 0 -44 17q-36 56 -36 122q0 37 2 43q4 11 4 27v9q-1 7 -1 10q0 32 43 41q20 4 76 10q32 3 116 -7q94 -11 113 -28q37 -33 37 -108q0 -133 -114 -133q-14 0 -42 3t-42 3zM245 754v-4q0 -10 -4 -29.5t-4 -27.5q4 -69 26 -107 q3 -1 6 -1q19 0 56 4.5t56 4.5q14 0 42 -3t42 -3q42 0 55 23q9 16 9 60q0 53 -20 71q-8 7 -88.5 15.5t-101.5 6.5q-62 -7 -72 -9zM479 -208h-103q-63 0 -199 31q-100 23 -125 36q-58 31 -58 101q0 33 16 56q9 135 185 135q34 0 49 -20q4 -6 18 -40q10 -26 29 -35 q9 -4 32.5 13t23.5 31q0 44 -7 65l-1 2l-60 209q-14 15 -25 51q-10 33 -10 56q0 59 131 59q172 0 222 -51q19 -20 55 -190q34 -163 34 -200q0 -100 -47 -192q-60 -117 -160 -117zM294 479q5 -47 20 -68l12 -17q2 -13 60 -211q11 -27 11 -83q0 -34 -33 -63.5t-67 -29.5 q-59 0 -94 92q-6 2 -8 2q-65 0 -94 -15q-39 -21 -41 -80q0 -4 -8 -19t-8 -27q0 -9 5 -36q32 -28 155 -56q113 -26 172 -26h103q68 0 115 90q42 80 42 169q0 32 -32 188.5t-42 166.5q-36 36 -187 36q-56 0 -81 -13z" />
<glyph unicode="k" horiz-adv-x="762" d="M40 111l-2 -3q1 24 -4 71t-5 69q2 126 6 177q12 144 42 169l3 3q21 15 61 40q69 43 96 43q41 0 64 -57q3 -6 24 -92l1 -4l2 3q66 98 89 118q53 44 145 44q100 0 100 -57q0 -30 -26.5 -75t-26.5 -56q11 -26 71 -79q87 -77 103 -93q53 -55 53 -89q0 -23 -11 -56l-1 -3 q-12 -26 -35 -60q-46 -68 -92 -68q-48 0 -123 39l-119 62q6 -39 6 -58q0 -87 -121 -146q-98 -48 -182 -48q-80 0 -104 108q-5 26 -17 79zM611 634q-30 8 -49 8q-80 0 -127 -44q-22 -20 -58 -84q-28 -49 -58 -55q-26 -5 -37 40q-2 7 -21 84q-12 47 -25 47q-28 -7 -126 -74 q-29 -55 -31 -309q0 -21 5 -61t5 -60q0 -14 -2 -27q9 -43 17 -86q18 -58 54 -58q73 0 159 43q94 47 94 101q0 17 -6 50t-6 48q0 23 20 23q25 0 83 -30q32 -17 96.5 -50.5t98.5 -33.5q17 0 47 42q21 30 35 57q7 21 7 38q0 20 -59 74q-37 32 -109 98q-59 55 -59 89 q0 26 26 68.5t26 61.5z" />
<glyph unicode="l" horiz-adv-x="550" d="M28 298q-2 18 33 133q32 105 46 136q5 15 23 50q19 39 27.5 46.5t38.5 28.5q49 35 81 35q65 0 110 -27q55 -33 55 -94q0 -55 -32.5 -161.5t-32.5 -161.5q0 -1 2 -9l2 -8q14 -11 37 -12q29 -1 38 -4q31 -10 92 -33q64 -26 64 -60q0 -113 -94 -195q-91 -77 -206 -77 q-112 0 -202 63q-104 73 -101 188q1 47 4 82q4 55 15 80zM81 308q3 -7 -4 -25q-8 -22 -9 -27q-7 -32 -9 -120q-2 -91 83 -149q75 -52 170 -52q93 0 168 61q80 65 82 156q-16 15 -124 51l-6 3q-13 -4 -25 -4q-34 0 -57 23.5t-23 57.5q0 55 32.5 161.5t32.5 161.5q0 37 -41 56 q-32 15 -74 15q-24 0 -85 -51q-14 -25 -38 -75l-1 -4q-17 -44 -72 -239z" />
<glyph unicode="m" horiz-adv-x="962" d="M985 494q7 -15 14 -137q6 -110 6 -142q0 -26 -78 -65q-70 -35 -99 -35q-38 0 -76 42q-43 48 -48 50q-32 -22 -44 -102q-15 -99 -29 -126q-30 -58 -117 -57q-56 1 -65 10q-41 40 -58 97q-2 8 -22 106q-13 63 -35 101l-3 1l-22 -108q-20 -63 -79 -63q-82 0 -147 32 q-87 43 -87 129q0 192 56 384q-6 18 32.5 81.5t57.5 65.5q142 18 194 18q106 0 162 -79q45 -63 75 -169l2 -7v-5q-5 -1 -9 -1q-14 0 -19 14q-2 -4 -9 -6q24 52 50 97q96 163 254 163q50 0 87.5 -42.5t37.5 -93.5q0 -8 -2 -17q14 -32 20 -136zM939 476q-6 13 -8 64t-14 76 q-4 8 -2 18q2 6 2 14q0 29 -23.5 57t-51.5 28q-95 0 -161 -72q-42 -46 -94 -151q-15 -31 -37 -31q-21 0 -25 35q-45 120 -59 142q-45 70 -130 70q-54 0 -177 -16q-21 -28 -55 -86q2 -8 0 -15q-58 -190 -58 -382q0 -59 66 -89q51 -22 118 -22q27 0 37 48q7 38 14 75 q14 55 40 50q13 -2 28.5 -5.5t20.5 -10.5q29 -43 52 -156q21 -105 55 -143q102 -5 121 48q10 69 21 138q25 97 83 97q27 0 52 -27q11 -13 34.5 -39t39.5 -26q40 0 127 63q-1 90 -16 248z" />
<glyph unicode="n" horiz-adv-x="903" d="M532 375q18 19 53 69q32 45 56 65q37 30 83 30q54 0 140 -74.5t86 -127.5q0 -43 -77 -265q-80 -231 -107 -242q-34 -14 -89 -14q-85 0 -143 40q-53 36 -97 113q-24 44 -73 132q-10 18 -18 27q8 -43 15 -86q9 -50 9 -86q0 -48 -21 -79q-25 -37 -70 -37q-97 0 -173 26 q-109 37 -109 117q0 26 -1.5 77t-1.5 77q0 114 25 189q5 74 15 120q11 52 29 74q24 30 70 30q104 0 213 -56q51 -26 186 -119zM746 -124q6 2 79 213q75 215 75 248q0 31 -71.5 91.5t-104.5 60.5q-42 0 -77 -44q-2 -3 -58 -80q-31 -43 -57 -43q-12 0 -77 46q-83 58 -140 86 q-96 46 -182 46q-3 0 -25 -6q-20 -16 -31 -81q-8 -47 -8 -91l-1 -6q-9 -51 -21 -166v-167q0 -51 96 -76q65 -17 136 -17q41 0 41 66q0 38 -14 111.5t-15 109.5q0 13 8.5 20.5t21.5 4.5q54 -12 101 -101q71 -134 88 -155q64 -80 167 -80q46 0 69 10z" />
<glyph unicode="o" horiz-adv-x="777" d="M1 469q2 68 76 140t143 80q5 1 93 17q54 10 94 10q406 0 406 -263q0 -170 -102 -288q-107 -125 -274 -125q-177 0 -308 125q-134 129 -128 304zM51 467q-6 -154 114 -267q116 -110 272 -110q146 0 239 110q87 104 87 253q0 213 -356 213q-36 0 -90 -10q-78 -14 -91 -16 q-50 -6 -111.5 -65t-63.5 -108zM260 418q2 1 5 1l-9 -6q-1 -10 -1 -16q0 -28 56 -60q51 -29 82 -29q24 0 52 19.5t28 42.5q-14 19 -66 35q-46 14 -76 14h-36q-9 0 -21 -1h-14zM295 469h36q52 0 113 -23q79 -30 79 -76q0 -45 -42 -78.5t-88 -33.5q-47 0 -113 40 q-75 46 -75 99q0 30 8.5 45t35.5 24q7 2 46 3z" />
<glyph unicode="p" horiz-adv-x="702" d="M589 164q-28 -7 -83.5 -24.5t-55.5 -53.5q0 -16 6.5 -48t5.5 -49v-28q-1 -24 -11 -33q-23 -20 -72 -32q-42 -11 -80 -11q-105 0 -160 157q-63 182 -109 352q-31 115 -31 162q0 61 63 99q54 32 119 32q82 0 90 -8l20 -27q16 -21 22 -21q32 0 95.5 14.5t95.5 14.5 q125 0 187 -46q72 -52 72 -173q0 -222 -174 -277zM573 211q63 20 96 62q44 57 44 168q0 99 -57 138q-47 31 -152 31q-32 0 -95.5 -14.5t-95.5 -14.5q-23 0 -40 16q-4 3 -27 34l-3 4q-10 0 -31 1t-31 1q-69 0 -126 -55l-3 -13l-3 -13q0 -38 30 -149q47 -173 107 -348 q43 -124 113 -124q69 0 112 25q1 22 -5 64t-6 62q0 75 98 104zM434 310v4q-4 25 -17 64q-7 12 -33 12q-33 0 -47 -10q-4 -3 -15 -38.5t-11 -43.5q0 -13 4 -27q91 15 119 39zM483 325q2 -9 2 -18q0 -39 -80 -66q-63 -21 -107 -22q-19 0 -29 31q-8 24 -8 48q0 23 16 66 q17 47 32 57q28 19 75 19q54 0 75 -36q10 -17 24 -79z" />
<glyph unicode="q" horiz-adv-x="702" d="M242 365q-2 9 -13 39q-9 26 -9 36q0 15 13 38q22 38 54 38q21 0 75 -27l3 -1q13 24 13 68q0 20 -5 27q-6 -2 -16 -8q-126 -75 -126 -177q0 -23 3 -31q1 0 3 -1zM270 441q24 -68 25 -110q1 -25 -21 -25q-8 0 -25 5t-22 6q-46 9 -46 81q0 143 165 229q13 7 26 7 q56 0 56 -78q0 -38 -12 -75q-17 -53 -47 -47q-11 2 -42 17t-40 15q-7 0 -17 -25zM728 184q-35 -110 -133 -110q-41 0 -103.5 45t-67.5 45q-30 -22 -57 -39q-75 -47 -134 -47q-120 0 -182 100q-50 81 -50 200q0 128 98 253q105 134 236 142q27 2 99 10q60 7 99 7 q72 0 129 -34q70 -42 70 -119q0 -48 -20 -92q-13 -28 -47 -76t-46 -74q11 -1 30 0q23 2 30 2q21 0 44.5 -14t23.5 -33q0 -107 -19 -166zM697 340l-3 2q-11 5 -15 5h-26q-35 -1 -27 -1q-64 0 -64 32q0 23 24 61q22 31 63 93q33 52 33 105q0 50 -52 79q-43 24 -97 24 q-39 0 -97 -7q-72 -9 -98 -10q-109 -6 -200 -122q-87 -111 -87 -223q0 -101 40 -168q48 -82 142 -82q43 0 113.5 43t77.5 43q26 0 85.5 -45t85.5 -45q101 0 102 216z" />
<glyph unicode="r" horiz-adv-x="823" d="M752 233l63 -42q35 -25 35 -66q0 -44 -36 -83q-17 -18 -76 -63q-49 -37 -65 -64q-10 -16 -60 -16q-37 0 -132.5 60.5t-128.5 62.5q-2 -45 -3 -89q-7 -43 -57 -70q-46 -25 -96 -25q-138 0 -138 236q0 134 -34 365q-7 46 76 92q59 33 115 47q65 16 188 28q113 11 191 11 q120 0 180 -42q72 -51 72 -166q0 -71 -94 -176zM613 -51q7 0 24 3q9 12 95 84q68 57 68 89q0 13 -52.5 51.5t-52.5 58.5q0 10 8 19q93 99 93 155q0 93 -57 130q-45 28 -145 28q-27 0 -157 -11q-152 -13 -197 -23q-124 -28 -165 -95q33 -230 33 -364q0 -76 11 -116 q19 -70 77 -70q34 0 66 15q39 19 39 49q0 9 -1 27t-1 27q0 42 26 57q15 9 23 9q47 0 145.5 -61.5t119.5 -61.5zM335 172q26 4 68.5 49t42.5 70q-9 10 -38 10q-93 0 -93 -26q0 -75 20 -103zM408 351q32 0 57 -14q31 -17 31 -46q0 -47 -59 -108t-105 -61q-37 0 -55 60 q-12 40 -12 93q0 76 143 76z" />
<glyph unicode="s" horiz-adv-x="715" d="M273 66q-260 0 -260 120q0 65 27 113q33 58 94 58q52 0 74 -6q41 -11 49 -49q1 -5 6 -14q41 16 61 36q-118 18 -193 57q-111 58 -103 149v4q0 102 199 179q153 59 273 59h90q55 0 91 -27q40 -30 40 -83q0 -28 -12 -38q-16 -14 -89 -33q-69 -18 -76 -29q22 -13 102 -42 q63 -23 89 -49q38 -38 38 -107q0 -167 -188 -244q-132 -54 -312 -54zM273 116q173 0 293 50q157 66 157 198q0 56 -42 85q-17 11 -93 39q-62 23 -89 54q-7 8 -7 19q0 52 104 76q54 12 72 20q2 39 -20 53q-17 12 -58 12h-90q-107 0 -248 -56q-159 -63 -174 -138 q2 -71 110 -116q81 -34 174 -42q23 -2 23 -25q0 -34 -45 -72t-80 -38q-8 0 -14 3q-25 16 -39 60q-11 9 -73 9q-37 0 -56 -45q-15 -34 -15 -76q0 -70 210 -70z" />
<glyph unicode="t" horiz-adv-x="684" d="M660 357l-34 -10q-11 -6 -11 -34t8 -84t8 -84v-72q0 -145 -141 -145q-78 0 -175 56q-109 64 -109 136q0 32 24.5 93t24.5 94q0 11 -3 18q-12 2 -18 2q-24 0 -69 -13.5t-69 -13.5q-47 0 -74 48q-23 40 -23 90q0 66 48 98q33 22 106 35q7 1 70 17q55 14 68 14 q396 0 428 -42q26 -34 26 -43q-4 -137 -85 -160zM676 426q16 25 19 84l-11 14q-84 27 -393 27q-26 -8 -99 -20q-64 -11 -95 -24q-48 -20 -48 -69q0 -26 11 -54q14 -34 36 -34q24 0 69 13.5t69 13.5q39 0 55 -15.5t16 -54.5q0 -36 -24.5 -100.5t-24.5 -86.5q0 -48 94 -97 q85 -45 140 -45q51 0 71 21.5t20 73.5v72q0 28 -8 84t-8 84q0 50 23 69q10 10 44 19.5t44 24.5z" />
<glyph unicode="u" horiz-adv-x="703" d="M450 388h2q39 -4 59 13q0 26 -17 75.5t-17 75.5q0 44 27 76t70 32q170 0 170 -124q0 -111 -27 -250q-36 -183 -94 -232q-41 -34 -121 -34q-32 0 -158.5 23t-156.5 34q-91 34 -128.5 85t-37.5 146q0 73 33 175q46 144 52 171q19 22 39 48q27 35 61 35q82 0 161 -26 q109 -36 109 -103q0 -30 -14 -91.5t-13 -93.5zM694 536q0 74 -120 74q-21 0 -34 -18t-13 -40q0 -26 17.5 -75t17.5 -75q0 -35 -40 -52q-28 -12 -70 -12q-39 0 -48 22q-3 8 -5 62q-1 33 13 94.5t14 91.5q0 37 -97 61q-73 18 -123 18q-9 0 -27 -22q-23 -28 -26 -31 q-4 -20 -50 -161q-32 -98 -32 -165q0 -80 28.5 -118t104.5 -66q27 -10 148.5 -32t149.5 -22q48 0 72 13q28 14 48 54q25 53 45 158q27 143 27 241z" />
<glyph unicode="v" horiz-adv-x="736" d="M506.5 -134q-80.5 -29 -129.5 -29q-55 0 -137 109q-74 99 -87 159q-150 276 -150 314q0 52 50 109.5t102 57.5q39 0 74 -42q18 -22 57 -89q34 -59 55 -78q27 38 39 92q19 84 22 94q25 72 114 97q54 15 157 15q71 0 99.5 -27t28.5 -98q0 -78 -38 -166q-23 -49 -67 -149 q-35 -81 -30 -151l6 -85q0 -37 -42.5 -70.5t-123 -62.5zM622 -1q0 21 -3 62.5t-3 62.5q0 53 42 147q21 45 61 135q32 74 32 144q0 40 -15 64q-35 11 -63 11q-114 0 -154 -15q-64 -24 -80 -106q-12 -59 -30 -107q-30 -79 -62 -79q-40 0 -113 126q-54 92 -79 92q-30 0 -66 -44 t-36 -75q12 -42 81 -168q67 -122 68 -133q5 -40 72 -133q70 -96 103 -96q41 0 114 26q37 13 74 34q57 31 57 52z" />
<glyph unicode="w" horiz-adv-x="876" d="M644 456q12 41 40 121q28 73 90 73q156 0 156 -89q0 -65 -48 -287q-52 -238 -84 -269q-57 -54 -226 -54q-65 0 -93 32q-15 17 -30 72.5t-33 75.5q-26 -2 -49 -45q-36 -66 -45 -78q-33 -41 -86 -41q-212 0 -212 253q0 52 -15.5 156t-15.5 156q0 16 11 56q13 47 25 52 q32 13 71 13q51 0 79 -74q11 -29 27 -114l4 -4q13 18 18 54q6 46 10 57q20 59 109 80q50 11 144 11q81 0 124 -120q12 -34 29 -87zM572 1q148 0 191 40q22 21 70 243q47 219 47 277q0 39 -106 39q-30 0 -49 -55q-10 -33 -31 -100q-17 -52 -45 -46q-37 8 -47 24q-3 11 -18 57 q-19 61 -31 83q-26 50 -62 50q-99 0 -127 -6q-76 -16 -84 -79q-5 -43 -13 -65q-11 -32 -39 -55q-5 -5 -13 -5q-15 0 -34.5 14.5t-22.5 28.5q-5 29 -17 86q-17 71 -41 71q-22 0 -40 -5q0 -4 -10 -33q-7 -21 -7 -33q0 -52 15.5 -156t15.5 -156q0 -203 162 -203q33 0 65 48 q21 38 42 77q32 42 85 39q26 -1 48 -54q8 -25 24.5 -75.5t71.5 -50.5z" />
<glyph unicode="x" horiz-adv-x="801" d="M678 463q24 -22 82 -56.5t83 -58.5q40 -39 40 -81q0 -63 -83 -154.5t-145 -91.5q-36 0 -73 30q-19 15 -54 55q-26 29 -34 29q-18 0 -42 -51q-34 -72 -54 -96q-43 -52 -101 -52q-60 0 -161 73q-107 78 -107 141q0 40 40 69q70 40 70 41q46 31 46 58q0 49 -43 79 q-27 17 -80 50q-42 33 -42 81q0 50 90 141t140 91q46 0 67 -57q12 -39 39 -116q26 -69 79 -91q32 31 59.5 111.5t53.5 105.5q47 46 155 46q35 0 57 -27.5t22 -63.5q0 -34 -51 -106t-53 -99zM582 120q43 -49 73 -49q41 0 109.5 77t68.5 119q0 33 -53 69q-33 21 -99 62 q-54 35 -54 59q0 43 52.5 119.5t52.5 91.5t-7.5 28t-21.5 13q-89 0 -128 -46q-17 -21 -47 -104q-26 -73 -71 -111q-11 -9 -23 -5q-81 25 -113 102q-18 48 -53 144q-8 21 -18 21q-29 0 -104.5 -76t-75.5 -106q0 -28 42 -54q69 -42 80 -53q43 -40 43 -103q0 -47 -40 -80 q-11 -9 -76 -46q-40 -23 -40 -42q0 -39 89 -103q86 -61 129 -61q44 0 76 52q16 32 49 96q29 51 72 51q24 0 50 -23q4 -3 38 -42z" />
<glyph unicode="y" horiz-adv-x="681" d="M706 482q-12 -9 -110 -65q-85 -48 -93 -62q0 -33 78 -127t78 -131q0 -82 -163 -143q-131 -49 -224 -49q-107 0 -121 22q-38 58 -38 138q0 48 30 140.5t30 140.5q0 31 -43 81q-72 84 -79 93q-43 62 -43 119q0 65 51 109q48 43 114 43q62 0 88 -42q15 -24 24.5 -90 t25.5 -90l30 91q50 150 118 150q74 0 182 -86q114 -90 114 -166q0 -38 -49 -76zM675 522q30 23 30 36q0 53 -97 129q-93 73 -149 73q-28 0 -52 -66q-14 -41 -41 -123q-22 -66 -46 -66q-4 0 -8 1q-47 20 -62 81q-6 34 -20 103q-12 51 -57 51t-80 -29t-35 -73q0 -50 43 -103 q27 -30 79 -91q43 -51 43 -99t-30 -140.5t-30 -140.5q0 -59 24 -101q57 -9 85 -9q60 0 186 41q151 49 151 101q0 21 -40 68q-63 75 -75 91q-41 57 -41 100q0 38 93 92z" />
<glyph unicode="z" horiz-adv-x="700" d="M491 135l-2 8q-3 12 -3 20q0 125 108 125q73 0 89 -76q4 -21 13 -63q28 -120 28 -143q0 -110 -233 -110q-198 0 -276 10q-218 28 -218 123q0 114 85 209q36 40 174 146q13 10 36 34q0 16 -11 37q-32 -2 -41 -4q-25 -6 -25 -26v-14q0 -27 -15 -48q-16 -24 -42 -24 q-66 0 -90 15q-37 23 -37 92q0 62 4 90q8 59 52 93q33 27 97 42q55 12 111 23q176 38 240 38q94 0 152 -120q46 -95 46 -187q0 -36 -79 -89q-17 -12 -105 -62q-34 -19 -83 -48q-61 -39 -74 -62q38 -24 99 -29zM675 416q3 4 8 9q0 83 -41 165q-46 92 -107 92q-57 0 -230 -37 q-181 -39 -198 -59q-20 -24 -25 -67q-1 -9 -1 -73q0 -42 18 -51q11 -6 59 -6q4 6 9 46q4 34 24 49q29 22 104 21q20 0 35 -35q13 -30 13 -53q0 -31 -77 -88q-105 -77 -142 -118q-77 -85 -77 -182q0 -83 444 -83q183 0 183 60q0 47 -26 127q-4 22 -13 65q-9 40 -41 40 q-58 0 -58 -75q0 -7 3.5 -22t3.5 -23q0 -32 -43 -33q-40 -1 -94 18q-66 23 -66 56q0 39 73 91q38 27 147 89q93 53 115 77z" />
<glyph unicode="&#xad;" d="M408 166q-13 0 -39 4.5t-39 4.5q-24 0 -70.5 -11t-70.5 -11q-91 0 -104 64q-23 39 -23 94q0 44 14 62t57 33t116 33q83 20 112 20q73 0 119 -48.5t46 -122.5q0 -53 -32.5 -87.5t-85.5 -34.5zM119 347q-7 -16 -7 -36q0 -9 5.5 -36.5t9.5 -31.5q6 -13 13 -26q11 -14 49 -14 q24 0 70.5 11t70.5 11q13 0 39 -4.5t39 -4.5q68 0 68 72q0 52 -31.5 86.5t-83.5 34.5q-29 0 -123.5 -24t-118.5 -38z" />
<glyph unicode="&#x2000;" horiz-adv-x="407" />
<glyph unicode="&#x2001;" horiz-adv-x="814" />
<glyph unicode="&#x2002;" horiz-adv-x="407" />
<glyph unicode="&#x2003;" horiz-adv-x="814" />
<glyph unicode="&#x2004;" horiz-adv-x="271" />
<glyph unicode="&#x2005;" horiz-adv-x="203" />
<glyph unicode="&#x2006;" horiz-adv-x="135" />
<glyph unicode="&#x2007;" horiz-adv-x="135" />
<glyph unicode="&#x2008;" horiz-adv-x="101" />
<glyph unicode="&#x2009;" horiz-adv-x="162" />
<glyph unicode="&#x200a;" horiz-adv-x="45" />
<glyph unicode="&#x2010;" d="M408 166q-13 0 -39 4.5t-39 4.5q-24 0 -70.5 -11t-70.5 -11q-91 0 -104 64q-23 39 -23 94q0 44 14 62t57 33t116 33q83 20 112 20q73 0 119 -48.5t46 -122.5q0 -53 -32.5 -87.5t-85.5 -34.5zM119 347q-7 -16 -7 -36q0 -9 5.5 -36.5t9.5 -31.5q6 -13 13 -26q11 -14 49 -14 q24 0 70.5 11t70.5 11q13 0 39 -4.5t39 -4.5q68 0 68 72q0 52 -31.5 86.5t-83.5 34.5q-29 0 -123.5 -24t-118.5 -38z" />
<glyph unicode="&#x2011;" d="M408 166q-13 0 -39 4.5t-39 4.5q-24 0 -70.5 -11t-70.5 -11q-91 0 -104 64q-23 39 -23 94q0 44 14 62t57 33t116 33q83 20 112 20q73 0 119 -48.5t46 -122.5q0 -53 -32.5 -87.5t-85.5 -34.5zM119 347q-7 -16 -7 -36q0 -9 5.5 -36.5t9.5 -31.5q6 -13 13 -26q11 -14 49 -14 q24 0 70.5 11t70.5 11q13 0 39 -4.5t39 -4.5q68 0 68 72q0 52 -31.5 86.5t-83.5 34.5q-29 0 -123.5 -24t-118.5 -38z" />
<glyph unicode="&#x2012;" d="M408 166q-13 0 -39 4.5t-39 4.5q-24 0 -70.5 -11t-70.5 -11q-91 0 -104 64q-23 39 -23 94q0 44 14 62t57 33t116 33q83 20 112 20q73 0 119 -48.5t46 -122.5q0 -53 -32.5 -87.5t-85.5 -34.5zM119 347q-7 -16 -7 -36q0 -9 5.5 -36.5t9.5 -31.5q6 -13 13 -26q11 -14 49 -14 q24 0 70.5 11t70.5 11q13 0 39 -4.5t39 -4.5q68 0 68 72q0 52 -31.5 86.5t-83.5 34.5q-29 0 -123.5 -24t-118.5 -38z" />
<glyph unicode="&#x2013;" horiz-adv-x="535" d="M435 166q-14 0 -42 4.5t-42 4.5q-26 0 -76 -11t-76 -11q-98 0 -112 64q-25 39 -25 94q0 44 15 62t61.5 33t125.5 33q89 20 120 20q79 0 128.5 -48.5t49.5 -122.5q0 -53 -35 -87.5t-92 -34.5zM123 347q-7 -16 -7 -36q0 -9 6 -36.5t10 -31.5l14 -26q12 -14 53 -14 q26 0 76 11t76 11q14 0 42 -4.5t42 -4.5q73 0 73 72q0 52 -34 86.5t-90 34.5q-31 0 -133 -24t-128 -38z" />
<glyph unicode="&#x2014;" horiz-adv-x="1035" d="M808 166q-28 0 -84 4.5t-84 4.5q-52 0 -152.5 -11t-151.5 -11q-196 0 -224 64q-50 39 -50 94q0 44 30 62t123 33t250 33q179 20 241 20q158 0 257 -48.5t99 -122.5q0 -53 -70 -87.5t-184 -34.5zM185 347q-15 -16 -15 -36q0 -9 11.5 -36.5t20.5 -31.5q13 -13 28 -26 q24 -14 106 -14q51 0 151.5 11t152.5 11q28 0 84 -4.5t84 -4.5q146 0 146 72q0 52 -68 86.5t-180 34.5q-62 0 -265.5 -24t-255.5 -38z" />
<glyph unicode="&#x202f;" horiz-adv-x="162" />
<glyph unicode="&#x205f;" horiz-adv-x="203" />
<glyph unicode="&#xe000;" horiz-adv-x="760" d="M0 760h760v-760h-760v760z" />
</font>
</defs>
</svg>
