<?xml version="1.0" standalone="no"?>
<!DOCTYPE svg PUBLIC "-//W3C//DTD SVG 1.1//EN" "http://www.w3.org/Graphics/SVG/1.1/DTD/svg11.dtd" >
<svg xmlns="http://www.w3.org/2000/svg">
<metadata></metadata>
<defs>
<font id="makoregular" horiz-adv-x="1234" >
<font-face units-per-em="2048" ascent="1638" descent="-410" />
<missing-glyph horiz-adv-x="512" />
<glyph horiz-adv-x="2048" />
<glyph horiz-adv-x="2048" />
<glyph unicode="&#xd;" horiz-adv-x="187" />
<glyph unicode=" "  horiz-adv-x="512" />
<glyph unicode="&#x09;" horiz-adv-x="512" />
<glyph unicode="&#xa0;" horiz-adv-x="512" />
<glyph unicode="!" horiz-adv-x="523" d="M348 -14h-175v179h175v-179zM217 355q-5 71 -13 185q-7 97 -17 250.5t-24 371.5q0 7 -0.5 22.5t-1.5 44t-1.5 71.5t-1.5 104h204q-1 -61 -2 -104t-1.5 -71.5t-1 -44t-0.5 -22.5q-14 -218 -24 -371.5t-17 -250.5q-8 -114 -13 -185h-86z" />
<glyph unicode="&#x22;" horiz-adv-x="606" d="M273 1436q0 -74 -7.5 -149.5t-16.5 -138.5q-11 -73 -24 -141h-73q-9 54 -15 121q-6 57 -10.5 135.5t-6.5 172.5h153zM497 1436q0 -74 -9 -149.5t-20 -138.5q-13 -73 -29 -141h-70q-5 20 -9 64.5t-7 103t-4.5 126t-1.5 135.5h150z" />
<glyph unicode="#" horiz-adv-x="1226" d="M429 430l-34 -327h-150l33 327h-190l10 129h192l44 433h-195l14 127h195l34 343h151l-35 -343h311l32 341h152l-33 -341h179l-15 -127h-179l-44 -433h191l-10 -129h-194l-32 -328h-153l36 328h-310zM749 559l43 433h-306l-43 -433h306z" />
<glyph unicode="$" horiz-adv-x="1014" d="M473 32q-7 0 -19 0.5t-18 0.5q-69 3 -125 14.5t-95 24.5q-46 15 -81 32l-25 150q44 -20 97 -37q45 -14 104 -26.5t127 -15.5q5 0 15.5 -0.5t16.5 -0.5l-12 477q-13 4 -25 8l-24 8q-80 27 -139 58t-98.5 72t-59 96t-19.5 129t25.5 132t71.5 100t110.5 66.5t141.5 32.5 l-5 240h107l5 -237q64 -2 119 -10.5t96 -17.5q48 -11 87 -23l20 -151q-43 15 -94 27q-44 11 -101.5 20t-123.5 12l11 -426q90 -29 159 -57t115 -69.5t69.5 -103.5t23.5 -159q0 -75 -19.5 -137t-61.5 -109t-108.5 -77t-160.5 -40l6 -236h-108zM754 381q0 48 -9 83t-30.5 62 t-58 47.5t-90.5 39.5l11 -429q41 7 74 21.5t56 38.5t35 57.5t12 79.5zM257 1016q0 -37 10 -64.5t33 -50t60.5 -41.5t93.5 -38l-8 384q-41 -6 -75.5 -20.5t-60 -37.5t-39.5 -56t-14 -76z" />
<glyph unicode="%" horiz-adv-x="1394" d="M351 864q43 0 71 16.5t44.5 47t23 74t6.5 97.5q0 55 -6.5 98.5t-23 74t-44.5 47t-71 16.5q-44 0 -72 -16.5t-44.5 -47t-23 -74t-6.5 -98.5q0 -54 6.5 -97.5t23 -74t44.5 -47t72 -16.5zM83 1099q0 171 69 255t199 84q132 0 200 -84t68 -255q0 -338 -268 -338 q-132 0 -200 83.5t-68 254.5zM205 -12l878 1502l113 -67l-882 -1500zM1187 321q0 54 -6.5 98t-23 74.5t-44.5 47t-71 16.5q-44 0 -72.5 -16.5t-45 -47t-23 -74.5t-6.5 -98t6.5 -98t23 -74.5t45 -47t72.5 -16.5q43 0 71 16.5t44.5 47t23 74.5t6.5 98zM774 321q0 171 67.5 255 t200.5 84q132 0 200 -84t68 -255q0 -339 -268 -339q-132 0 -200 84t-68 255z" />
<glyph unicode="&#x26;" horiz-adv-x="1464" d="M1318 -20l-206 184q-78 -95 -203 -141.5t-309 -46.5q-143 0 -240 30.5t-156 82.5t-84.5 121t-25.5 143q0 65 21.5 128t62.5 118t105 104.5t139 86.5q-44 40 -86.5 81.5t-71 86.5t-45 95.5t-16.5 109.5q0 72 23.5 124t71.5 93t120.5 62.5t171.5 21.5t168.5 -22.5 t113 -62.5t63.5 -89t20 -114q0 -68 -22 -126t-62.5 -107.5t-97 -91t-130.5 -81.5l437 -399q20 48 32 114t19 132.5t11 139.5t7 155l146 11q0 -199 -22.5 -358t-79.5 -278l225 -202zM603 123q151 0 247 35.5t153 100.5l-489 449q-124 -68 -184.5 -148t-60.5 -186 q0 -52 14.5 -97t52 -79t102.5 -54.5t165 -20.5zM367 1149q0 -39 16 -79t42.5 -77t59.5 -74t66 -66q45 27 90 58.5t81 66t58.5 77.5t22.5 98q0 46 -11 80.5t-37.5 58t-69 35t-105.5 11.5q-58 0 -98.5 -13t-66 -38t-37 -59t-11.5 -79z" />
<glyph unicode="'" horiz-adv-x="389" d="M284 1436q0 -65 -10.5 -139.5t-23.5 -139.5q-15 -76 -34 -150h-75q-3 86 -6 166q-1 34 -2 70.5t-2 71t-1.5 66t-0.5 55.5h155z" />
<glyph unicode="(" horiz-adv-x="598" d="M107 619q0 110 15 203t39.5 170t55.5 139t64 110q77 113 175 182l85 -97q-72 -64 -128 -164q-24 -43 -47 -97.5t-40.5 -122.5t-28.5 -149t-11 -176t11 -176t28.5 -148.5t40.5 -122.5t47 -97q56 -99 128 -163l-85 -96q-98 69 -175 182q-33 48 -64 110t-55.5 139 t-39.5 170.5t-15 203.5z" />
<glyph unicode=")" horiz-adv-x="596" d="M489 619q0 -110 -15 -203.5t-39.5 -170.5t-55.5 -139t-64 -110q-77 -113 -174 -182l-86 96q72 64 128 163q24 42 47 97t41 122.5t29 148.5t11 176t-11 176t-29 149t-41 122.5t-47 97.5q-56 100 -128 164l86 97q97 -69 174 -182q33 -48 64 -110t55.5 -139t39.5 -170 t15 -203z" />
<glyph unicode="*" horiz-adv-x="875" d="M309 722l-97 55l145 240l-263 -9v110l265 -8l-134 238l97 55l116 -240l131 246l97 -58l-150 -242l266 9v-110l-263 9l136 -241l-104 -57l-113 245z" />
<glyph unicode="+" horiz-adv-x="848" d="M493 455v-302h-138v302h-264v136h264v304h138v-304h264v-136h-264z" />
<glyph unicode="," horiz-adv-x="507" d="M138 200l226 16q2 -24 5 -52q2 -24 4 -55t2 -66q0 -47 -10 -86.5t-33 -72t-61.5 -57t-96.5 -40.5l-27 80q56 6 83.5 43t27.5 90h-120v200z" />
<glyph unicode="-" horiz-adv-x="805" d="M146 448v130h513v-130h-513z" />
<glyph unicode="." horiz-adv-x="469" d="M329 202v-211h-190v211h190z" />
<glyph unicode="/" horiz-adv-x="698" d="M621 1451l-374 -1653l-168 38l369 1654z" />
<glyph unicode="0" horiz-adv-x="1280" d="M639 123q99 0 161.5 39.5t97 111t47 173t12.5 227.5q0 122 -13.5 224t-49 174.5t-97.5 113.5t-158 41t-157.5 -40.5t-97 -113t-48.5 -174.5t-13 -225q0 -126 13.5 -227.5t49 -173t97 -111t156.5 -39.5zM133 673q0 161 25 291t84 220t156 137.5t241 47.5 q145 0 242.5 -47.5t156.5 -137.5t84 -220t25 -291q0 -164 -26 -294t-86 -219t-157 -136.5t-239 -47.5t-238.5 47.5t-156 136.5t-85.5 219t-26 294z" />
<glyph unicode="1" horiz-adv-x="659" d="M296 972l3 186l-95 -52l-107 -56l-58 141l299 145l133 -27v-1309h-176z" />
<glyph unicode="2" horiz-adv-x="988" d="M488 1363q98 0 170 -26.5t119.5 -75.5t70.5 -116.5t23 -148.5q0 -62 -14.5 -115t-39.5 -103t-60 -97.5t-75 -95.5l-378 -441h552l-20 -144h-716l-30 146l463 554q24 29 49 63t44.5 71.5t32 76.5t12.5 82q0 47 -14 88.5t-42.5 72t-72.5 47t-104 16.5q-56 0 -115.5 -12 t-110.5 -26q-59 -19 -115 -39l20 156q52 18 110 33q50 13 112.5 23.5t128.5 10.5z" />
<glyph unicode="3" horiz-adv-x="1061" d="M125 189q13 -3 48.5 -12t84 -19.5t106.5 -18t115 -7.5q58 0 105.5 14.5t80.5 43t51 72.5t18 105q0 63 -20 112t-67 82.5t-124.5 50t-192.5 16.5v161q106 0 177.5 10.5t114 36t60.5 68.5t18 107q0 59 -19 99t-52.5 65t-79 35.5t-97.5 10.5q-47 0 -100.5 -6.5t-101 -15.5 t-84.5 -18.5t-51 -13.5l25 153q16 5 46.5 13t71.5 16t90.5 14.5t103.5 6.5q100 0 181 -20t138 -62t87.5 -106t30.5 -152q0 -54 -10.5 -96.5t-27.5 -75.5t-39 -56t-44 -41q-53 -37 -120 -49q81 -6 144 -42q27 -18 53 -42t46 -59.5t32.5 -83.5t12.5 -109q0 -118 -36 -195 t-98.5 -123t-146.5 -64t-179 -18q-62 0 -124 8.5t-114.5 19.5t-91.5 21.5t-55 14.5z" />
<glyph unicode="4" horiz-adv-x="1082" d="M570 1335l266 -7l1 -931h167v-140h-167v-271l-175 -5v276h-578l-46 122zM662 397v442l10 378l-184 -364l-255 -460l191 4h238z" />
<glyph unicode="5" horiz-adv-x="1028" d="M197 667q-1 0 -9 8.5t-18 18.5l-27 27l20 618h676l-15 -130h-505l-18 -400q31 6 66 11q30 5 68.5 8.5t80.5 3.5q86 0 160 -23.5t128 -73.5t85 -127.5t31 -182.5q0 -111 -22.5 -195.5t-76.5 -141t-143 -84.5t-221 -28q-59 0 -111 8t-92 19q-47 12 -86 28l-19 152 q42 -14 91 -26q42 -10 96 -17.5t114 -7.5q85 0 142.5 15t92 48.5t49 89.5t14.5 139q0 57 -16.5 105t-49.5 83t-83 56t-117 21q-86 0 -162 -7t-123 -15z" />
<glyph unicode="6" horiz-adv-x="1196" d="M941 1191q-87 11 -159.5 12t-134.5 -8q-87 -10 -148.5 -45.5t-100.5 -96t-57.5 -148t-19.5 -200.5q25 17 62 41t86 45t108.5 36t128.5 15q88 0 162 -29t128 -83t84 -131t30 -172q0 -87 -29 -168.5t-89.5 -144.5t-153.5 -100.5t-222 -37.5q-118 0 -209 42t-152.5 122 t-93 196t-31.5 264q0 170 26 301t85 223.5t155 146t236 66.5q63 9 133.5 9t152.5 -8zM669 692q-74 0 -136.5 -18t-109.5 -38q-55 -24 -100 -54q0 -2 -0.5 -9.5t-0.5 -16.5v-16.5v-10.5q-1 -195 76 -302t228 -107q148 0 225.5 74.5t77.5 229.5q0 62 -15 111.5t-46.5 84 t-81 53.5t-117.5 19z" />
<glyph unicode="7" horiz-adv-x="917" d="M205 48l323 769l150 357l-308 -3h-311l10 146h757l41 -140l-502 -1201z" />
<glyph unicode="8" horiz-adv-x="1155" d="M123 345q0 69 15 121.5t40 91.5t56 65t63 44.5t62 28t53 15.5q-49 12 -93 37.5t-77 63t-52.5 87.5t-19.5 114q0 74 24 138t74 112.5t127 76t182 27.5q106 0 184 -28t128 -76.5t74.5 -112.5t24.5 -137q0 -65 -22 -115.5t-57.5 -87t-81.5 -62t-94 -37.5q42 -9 94 -31.5 t97.5 -63.5t76 -107.5t30.5 -163.5q0 -104 -40 -174.5t-104.5 -114t-146 -62t-163.5 -18.5q-81 0 -162.5 18.5t-146 62t-105 114t-40.5 174.5zM579 785q63 17 112 48q21 13 41 31.5t36 41.5t25.5 52.5t9.5 64.5q0 58 -17.5 95.5t-47.5 61t-71 33t-88 9.5q-44 0 -85 -9.5 t-72 -33t-49.5 -61t-18.5 -95.5q0 -35 9.5 -65t25.5 -53t36 -41.5t41 -31.5q49 -31 113 -47zM314 364q0 -67 19.5 -112.5t54 -73.5t83 -40t106.5 -12q57 0 106.5 11.5t85.5 39.5t56.5 73.5t20.5 113.5q0 43 -11.5 79t-30.5 63.5t-43 50t-49 37.5q-59 36 -134 52 q-74 -18 -132 -54q-25 -15 -48.5 -37t-42 -50t-30 -63.5t-11.5 -77.5z" />
<glyph unicode="9" horiz-adv-x="1196" d="M255 142q87 -11 159.5 -12t134.5 7q87 10 148.5 45.5t100.5 96t57.5 148t19.5 202.5q-20 -18 -53 -40.5t-78.5 -44t-103 -35t-126.5 -13.5q-89 0 -167 27.5t-136 80.5t-91.5 130.5t-33.5 176.5q0 88 29 169.5t89.5 145.5t153.5 101.5t222 37.5q118 0 208.5 -41.5 t152 -123t93.5 -198t32 -267.5q0 -170 -26 -303t-85 -226.5t-155 -147t-237 -66.5q-63 -10 -133 -10t-152 8zM548 642q69 0 128 18t103 38q51 24 94 55q0 3 0.5 12t0.5 18v16.5v10.5q0 98 -19.5 173.5t-57.5 128.5t-95 80.5t-132 27.5q-149 0 -226 -75t-77 -232 q0 -63 16 -113t50 -84.5t87 -54t128 -19.5z" />
<glyph unicode=":" horiz-adv-x="501" d="M353 306v-212h-206v212h206zM353 805v-214h-205v214h205z" />
<glyph unicode=";" horiz-adv-x="514" d="M357 805v-214h-205v214h205zM152 189l203 6q3 -20 6 -45q2 -21 4 -48.5t2 -58.5q0 -47 -9 -86.5t-29.5 -72t-55 -57t-85.5 -40.5l-28 80q46 6 68 43t22 90h-98v189z" />
<glyph unicode="&#x3c;" horiz-adv-x="989" d="M79 623l729 364l49 -164l-572 -262l572 -260l-49 -163l-729 368v117z" />
<glyph unicode="=" horiz-adv-x="939" d="M159 615h620v-128h-620v128zM160 534h619v-129h-619v129z" />
<glyph unicode="&#x3e;" horiz-adv-x="988" d="M909 506l-728 -368l-49 163l570 260l-570 262l49 164l728 -364v-117z" />
<glyph unicode="?" horiz-adv-x="872" d="M804 1093q0 -95 -34 -160t-85.5 -109.5t-111 -73t-111 -52t-85.5 -45.5t-34 -53v-298h-151v288q0 53 19 91.5t50.5 67t71 50t81.5 42t81.5 42t71 50t50.5 66.5t19 91t-13 90.5t-41.5 61.5t-75 35t-113.5 11q-53 0 -105.5 -7t-95.5 -15q-50 -10 -96 -22q0 2 1 24t1.5 48 t1.5 48t1 24q45 13 94 24q42 9 94 17t105 8q117 0 196 -27.5t126.5 -74.5t67.5 -109.5t20 -132.5zM173 78q0 23 8 43.5t21.5 36t32 24.5t39.5 9q22 0 41 -9t33.5 -24.5t22.5 -36t8 -43.5q0 -22 -8 -41t-22.5 -33.5t-33.5 -23t-41 -8.5q-21 0 -39.5 8.5t-32 23t-21.5 33.5 t-8 41z" />
<glyph unicode="@" horiz-adv-x="1603" d="M1035 896q-3 0 -21.5 3.5t-44.5 7.5t-54.5 7.5t-50.5 2.5q-70 -3 -131.5 -34.5t-108.5 -81.5t-75.5 -113.5t-31.5 -130.5q-8 -132 41 -195t151 -63q68 0 119.5 25.5t89 74.5t60.5 120.5t34 161.5zM1511 685q0 -108 -21 -187.5t-55.5 -135.5t-78 -91.5t-88.5 -54.5 t-86.5 -26t-72.5 -7q-38 0 -59.5 12.5t-32 34t-12 51.5t1.5 64q1 3 4 20t6 36l8 48l-9 1q-18 -75 -59 -135q-18 -25 -42.5 -50t-57 -43.5t-74 -30t-92.5 -11.5q-72 0 -128.5 24.5t-96.5 71t-61 111.5t-21 146q0 65 19 128.5t54 121t84.5 106t110 81.5t130.5 47.5t147 4.5 q24 -3 55.5 -7.5t60 -9t48.5 -8t21 -3.5l46 -99l-55 -608q23 0 52.5 5t60 20t59.5 43t51.5 72.5t36 108t13.5 152.5q0 130 -39.5 226t-111.5 159t-173.5 94t-226.5 31q-136 0 -243.5 -51t-183.5 -137t-119 -199.5t-49 -238.5q-7 -128 28.5 -232.5t110 -179t187 -116 t259.5 -41.5q113 0 193 21t131 49q60 30 99 68q6 -5 15 -16t19.5 -23t19.5 -23t15 -17q-40 -50 -110 -88q-30 -16 -68.5 -32.5t-87 -29t-107.5 -20t-129 -7.5q-161 0 -295 47t-229 136t-145 215.5t-44 288.5q6 159 64.5 296t156 236.5t227.5 156t279 56.5q147 0 273.5 -41 t219 -120t145 -198t52.5 -273z" />
<glyph unicode="A" d="M335 327l-99 -327h-195l476 1437h201l475 -1437h-196l-98 327h-564zM368 439h497l-247 804z" />
<glyph unicode="B" horiz-adv-x="1255" d="M366 825h233q86 0 145 16.5t95 46.5t52 75t16 105q0 70 -19.5 111.5t-62 66t-109.5 35.5t-161 11h-189v-467zM977 417q0 84 -22 137.5t-68 85.5t-116 45t-166 13h-239v-554h242q91 0 160.5 11t115.5 39.5t69.5 81.5t23.5 141zM1155 415q0 -215 -124.5 -315t-374.5 -100 h-471v1437h395q139 0 236 -21t157 -66t87 -115.5t27 -174.5q0 -52 -13.5 -93.5t-36 -72.5t-50 -54.5t-56 -37.5t-55 -21t-45.5 -9q91 -7 162 -47q30 -17 59.5 -43t52 -62.5t36.5 -86.5t14 -118z" />
<glyph unicode="C" horiz-adv-x="1193" d="M692 -24q-121 0 -225 34.5t-181 121.5t-121.5 233.5t-45.5 361.5q0 208 44.5 349t124 227.5t188 123.5t236.5 37q81 0 150.5 -9.5t120.5 -20.5q60 -13 108 -29l16 -155q-50 18 -110 33q-51 11 -119 21t-145 10q-97 0 -174 -30t-131 -98t-82.5 -178.5t-28.5 -278.5 q1 -159 25.5 -275.5t74 -189t124 -105.5t173.5 -32q83 -1 154 9.5t125 26.5q62 16 114 36l-17 -156q-49 -19 -111 -34q-53 -13 -126 -23t-161 -10z" />
<glyph unicode="D" horiz-adv-x="1381" d="M579 144q146 0 241.5 30.5t151.5 97.5t78.5 181t22.5 287q0 141 -19.5 243t-68 170.5t-130.5 103.5t-206 35h-272v-1148h202zM185 0v1437h412q84 0 165.5 -8.5t155.5 -35t136.5 -73t108.5 -122t72 -184.5t26 -266q0 -170 -26.5 -307t-95.5 -236.5t-189.5 -152 t-307.5 -52.5h-457z" />
<glyph unicode="E" horiz-adv-x="1090" d="M185 0v1437h816l-24 -145h-603v-483h492v-139h-492v-525h625l-23 -145h-791z" />
<glyph unicode="F" horiz-adv-x="1087" d="M370 0h-185v1437h834l-24 -145h-625v-472h555v-148h-555v-672z" />
<glyph unicode="G" horiz-adv-x="1335" d="M1103 4l-38 141q-33 -47 -85 -84q-44 -34 -115 -59.5t-171 -25.5q-122 0 -228 41.5t-184 130.5t-122.5 231t-44.5 342q0 143 24 255t67 194t102 139t129 91.5t148.5 49t160.5 14.5q78 0 146 -11t120 -25q60 -16 111 -35l14 -153q-50 20 -111 37q-52 15 -122.5 26 t-152.5 11q-109 0 -191 -34.5t-137 -103t-82.5 -175t-27.5 -252.5q0 -155 22 -272.5t70 -195.5t124 -116t183 -38q81 0 143.5 20t105.5 43q50 27 87 63v356l-145 -4h-126l-19 138h449v-739h-104z" />
<glyph unicode="H" horiz-adv-x="1439" d="M1069 677h-699v-677h-185v1437h185v-620h699v620h185v-1437h-185v677z" />
<glyph unicode="I" horiz-adv-x="553" d="M185 0v1437h183v-1437h-183z" />
<glyph unicode="J" horiz-adv-x="693" d="M59 -14l-24 67q69 0 118 6t82 21t52.5 40t29.5 63.5t13 91.5t3 124v1038h187l-4 -1129q0 -82 -17.5 -153t-65 -123t-132 -82.5t-218.5 -30.5z" />
<glyph unicode="K" horiz-adv-x="1293" d="M1221 1384l-580 -604l632 -733v-47h-192l-569 672l-142 -142v-530h-185v1437h185v-697l666 697h185v-53z" />
<glyph unicode="L" horiz-adv-x="1001" d="M185 0v1437h185v-1295h588l-17 -142h-756z" />
<glyph unicode="M" horiz-adv-x="1755" d="M221 1437h274l321 -1057l68 -231l62 231l322 1057h274l53 -1437h-183l-31 988l-1 288l-85 -335l-295 -909h-237l-295 909l-84 335l-3 -289l-40 -987h-184z" />
<glyph unicode="N" horiz-adv-x="1487" d="M361 1148v-1148h-176v1437h190l751 -1148v1148h176v-1437l-182 1z" />
<glyph unicode="O" horiz-adv-x="1399" d="M311 722q0 -141 21.5 -251.5t68.5 -187t120 -116.5t177 -40q105 0 178.5 40t120.5 116.5t68.5 187t21.5 251.5q0 140 -21.5 250t-68.5 186t-120.5 116t-178.5 40q-103 0 -176.5 -40t-120 -116t-68.5 -186t-22 -250zM120 722q0 376 148 559t430 183q284 0 432.5 -183 t148.5 -559q0 -380 -148.5 -563t-432.5 -183q-141 0 -249 45.5t-181 138t-110.5 232.5t-37.5 330z" />
<glyph unicode="P" horiz-adv-x="1225" d="M544 717q121 0 200.5 15.5t126 49.5t65 86.5t18.5 131.5q0 94 -18 150.5t-66 88t-133 43t-220 11.5h-147v-576h174zM1147 998q0 -122 -36 -202.5t-111.5 -130.5t-192.5 -72t-279 -22h-95q-30 0 -63 1v-572h-185v1437h309q194 0 320 -21.5t200 -72.5t103.5 -134.5 t29.5 -210.5z" />
<glyph unicode="Q" horiz-adv-x="1399" d="M122 722q0 195 40 336.5t115 232t181.5 132t239.5 41.5q135 0 242 -41.5t182 -132t115 -232t40 -336.5q0 -177 -34 -308.5t-96 -221.5t-149.5 -140.5t-194.5 -65.5q26 -21 62.5 -50.5t81.5 -63.5t97 -68.5t109 -68.5q0 -1 -7 -11t-17 -24.5t-22 -31t-22 -32t-17 -25.5 t-7 -11q-75 41 -143.5 89.5t-127 98.5t-106.5 99t-82 93q-113 14 -202 65.5t-151 143t-94.5 224.5t-32.5 309zM313 722q0 -140 21.5 -251.5t68.5 -188t120 -116t177 -39.5q103 0 176.5 39.5t120 116t68 188t21.5 251.5q0 139 -22 250t-68.5 186t-120 115.5t-175.5 40.5 q-103 0 -176.5 -40.5t-120 -115.5t-68.5 -186t-22 -250z" />
<glyph unicode="R" d="M1164 0h-181l-410 600h-200v-600h-188v1437h430q119 0 212.5 -16.5t158 -62t98.5 -124.5t34 -206q0 -116 -31.5 -191t-82 -120.5t-114.5 -68t-130 -30.5l404 -561v-57zM373 740h224q100 0 166.5 13.5t107 45.5t57.5 83.5t17 128.5q0 93 -18 149t-61.5 86.5t-117 41.5 t-183.5 11h-192v-559z" />
<glyph unicode="S" horiz-adv-x="1125" d="M103 1091q0 91 34.5 160.5t96.5 117t147 71.5t187 24q78 0 146 -9t119 -20q60 -12 110 -27l21 -159q-51 18 -112 33q-53 12 -122.5 21.5t-150.5 10.5q-66 0 -121.5 -13.5t-96 -42.5t-63 -73t-22.5 -101q0 -50 14.5 -83.5t51 -61.5t97.5 -53.5t154 -52.5q111 -37 193 -68 t136.5 -77.5t81.5 -117.5t27 -181q0 -94 -27 -171t-86 -131t-152 -82.5t-226 -28.5q-92 0 -163.5 12t-122.5 27q-59 18 -104 40l-26 158q53 -25 116 -43q54 -19 126.5 -31t155.5 -12q75 0 134.5 11t101.5 39.5t64.5 75.5t22.5 117q0 69 -15 113t-54 78.5t-106.5 61.5 t-172.5 61q-105 31 -179.5 66t-122.5 82.5t-70 111t-22 147.5z" />
<glyph unicode="T" horiz-adv-x="1101" d="M648 1293v-1293h-187v1293h-412v144h1014l-24 -144h-391z" />
<glyph unicode="U" horiz-adv-x="1436" d="M720 127q88 0 154 19t110 62t66.5 118t22.5 187v924h190v-937q0 -155 -40.5 -256t-113 -160.5t-172 -83.5t-216.5 -24q-121 0 -222 24.5t-173.5 85t-112.5 161.5t-40 254v936h191v-924q0 -112 20.5 -187t64 -118t111 -62t160.5 -19z" />
<glyph unicode="V" horiz-adv-x="1189" d="M459 0l-414 1437h211l264 -1016l78 -327l74 327l257 1016h214l-412 -1437h-272z" />
<glyph unicode="W" horiz-adv-x="1858" d="M1218 0l-224 943l-65 319l-63 -320l-224 -942h-276l-287 1437h193l204 -1112l36 -201l38 198l244 1054h272l245 -1055l39 -197l36 201l202 1112h189l-283 -1437h-276z" />
<glyph unicode="X" horiz-adv-x="1120" d="M494 484l-225 -484h-208l358 728l-355 709h208l222 -484l66 -144l66 144l222 484h209l-360 -709l362 -728h-208l-225 485l-66 141z" />
<glyph unicode="Y" horiz-adv-x="1133" d="M899 1437h208l-440 -987v-450h-202v449l-438 988h210l230 -566l98 -262h7l94 262z" />
<glyph unicode="Z" horiz-adv-x="1104" d="M92 156l527 816l221 320l-202 -5h-550l24 150h892l16 -164l-628 -982l-111 -150l203 6h522l-23 -147h-876z" />
<glyph unicode="[" horiz-adv-x="646" d="M172 -218v1655h406v-118h-237l6 -353v-629l-6 -439h237v-116h-406z" />
<glyph unicode="\" horiz-adv-x="698" d="M238 1533l382 -1712l-159 -41l-383 1712l160 41v0z" />
<glyph unicode="]" horiz-adv-x="646" d="M69 -218v116h237l-6 439v629l6 353h-237v118h406v-1655h-406z" />
<glyph unicode="^" horiz-adv-x="889" d="M836 279h-174q-6 14 -22.5 60t-39 108t-48 132t-47.5 132t-39 108t-22 61q-4 -11 -15 -40t-25.5 -70.5t-32 -90.5t-36 -100t-36 -100.5t-32 -90t-25 -70t-14.5 -39.5h-176q4 8 18.5 42.5t36.5 85t48.5 113t54 127t54 127t48.5 113t36.5 84.5t18.5 42h155z" />
<glyph unicode="_" horiz-adv-x="1156" d="M121 -1v150h914v-150h-914z" />
<glyph unicode="`" horiz-adv-x="378" d="M302 1184h-73l-220 529l213 22z" />
<glyph unicode="a" horiz-adv-x="1080" d="M570 453q-29 0 -64.5 -1.5t-71 -7.5t-68.5 -18t-58.5 -32t-41 -51.5t-15.5 -74.5q0 -77 49.5 -114t140.5 -37q63 0 114.5 13t88.5 30q43 19 78 44v243q-23 2 -49 3q-22 1 -49 1.5t-54 1.5zM906 206q0 -36 4.5 -55.5t17.5 -24.5q14 -6 38.5 -5t45.5 1l-13 -122 q-14 -5 -32 -9q-15 -4 -35.5 -6.5t-44.5 -2.5q-41 0 -69.5 14.5t-46.5 34.5t-26.5 47t-8.5 39q-27 -38 -75 -68q-41 -26 -107.5 -46.5t-166.5 -20.5q-68 0 -124.5 19.5t-96.5 57.5t-62 94t-22 122q0 90 39 147t103 89t146.5 44.5t169.5 12.5q35 0 68 -2.5t59 -4.5 q30 -5 55 -8v113q0 79 -12 128t-39.5 75t-71.5 34.5t-108 8.5q-62 0 -120 -9.5t-105 -20.5q-55 -13 -103 -31l20 139q38 17 87 31q42 12 101 22t134 10q121 0 199 -23.5t123 -76t62 -137t17 -205.5v-405z" />
<glyph unicode="b" horiz-adv-x="1134" d="M156 0v1418l185 19v-481q36 24 82 43q39 17 92.5 30.5t119.5 13.5q79 0 150 -30.5t124.5 -95.5t85 -167t31.5 -243q0 -146 -36 -246.5t-94.5 -162.5t-132 -89t-149.5 -27q-72 0 -127 18t-93 41q-44 26 -76 60l-26 -110zM341 217q30 -27 68 -48q32 -18 77 -32.5t100 -14.5 q52 0 98.5 20.5t81 66t55 118t20.5 176.5q0 189 -60 293.5t-182 104.5q-55 0 -101.5 -12.5t-81.5 -27.5q-40 -18 -75 -39v-605z" />
<glyph unicode="c" horiz-adv-x="935" d="M106 506q0 102 17.5 182.5t48 140.5t72 100.5t90 66t102 36.5t107.5 11q66 0 120 -8.5t93 -19.5q46 -12 82 -28l15 -135q-39 14 -85 25q-39 9 -90 17t-108 8q-67 0 -118.5 -22t-86 -69.5t-52.5 -122.5t-18 -179q0 -99 18 -174t52.5 -122.5t86 -69t118.5 -21.5 q57 0 108.5 7.5t90.5 16.5q46 11 85 24l-16 -133q-36 -16 -81 -28q-38 -11 -91.5 -19t-117.5 -8q-83 0 -162 25.5t-141.5 87t-100.5 164t-38 247.5z" />
<glyph unicode="d" horiz-adv-x="1137" d="M514 -18q-74 0 -147 27t-130.5 89t-93 162.5t-35.5 246.5q0 141 31 243t84.5 167t125 95.5t152.5 30.5q64 0 118 -12.5t94 -26.5q47 -17 85 -38v452l183 19v-1437l-143 -8l-32 110q-30 -34 -72 -60q-36 -23 -90.5 -41.5t-129.5 -18.5zM543 122q56 0 102.5 15t80.5 33 q40 21 72 49v614q-37 19 -79 34q-37 13 -85 23.5t-104 10.5q-120 0 -179 -104t-59 -294q0 -104 20 -176.5t54.5 -118t80 -66t96.5 -20.5z" />
<glyph unicode="e" horiz-adv-x="1030" d="M556 906q-47 0 -90.5 -14.5t-78.5 -48.5t-58.5 -89.5t-29.5 -145.5h473q0 16 1 25q1 8 1 16v15q-2 64 -19 109.5t-46 75t-68 43.5t-85 14zM872 30q-36 -13 -80 -24q-38 -9 -89 -16.5t-112 -7.5q-242 0 -364 130t-122 389q0 145 34 245.5t94 166.5t142 98t177 32 q94 0 165 -30t118 -79.5t71.5 -113.5t26.5 -133q0 -21 -1.5 -52.5t-4 -58t-5 -48.5t-5.5 -32h-621v-36q0 -92 22 -159t62.5 -106.5t97.5 -56t126 -16.5q57 0 108.5 6.5t91.5 14.5q47 9 87 21z" />
<glyph unicode="f" horiz-adv-x="721" d="M229 0v927h-176v104h177v3q2 106 19 182.5t51.5 125.5t88 72t127.5 23q45 0 81.5 -6t62.5 -14q30 -9 53 -19l14 -120q-24 7 -50 13q-23 5 -51 9t-57 4q-45 0 -75 -9.5t-48 -34.5t-26 -70t-8 -115v-44h273v-104h-273v-927h-183z" />
<glyph unicode="g" horiz-adv-x="1132" d="M286 -283q34 -12 74 -21q34 -8 78.5 -14.5t95.5 -6.5q75 0 123.5 15.5t77.5 55t40.5 107.5t12.5 186v33q-32 -20 -74 -36q-36 -14 -88 -25t-119 -11q-77 0 -148.5 28.5t-127 90t-89 159t-33.5 231.5q0 140 27 241t78.5 166t125.5 96t168 31q65 0 116.5 -13t90.5 -31 t65 -36.5t41 -30.5l33 99h120v-964q0 -146 -20.5 -246.5t-69.5 -163t-131 -90.5t-204 -28q-60 0 -105.5 7t-76.5 15q-36 10 -61 22zM530 140h12q58 1 103.5 10.5t77.5 20.5q37 13 65 29v622q-33 21 -73 39q-34 15 -79.5 27.5t-99.5 12.5q-68 0 -114 -28t-74.5 -78t-41 -120 t-12.5 -155q0 -86 14 -157t43 -120.5t73 -75.5t106 -27z" />
<glyph unicode="h" horiz-adv-x="1161" d="M158 1419l185 18v-512q41 32 81 54.5t82 36.5t86.5 20.5t95.5 6.5q87 0 148.5 -25.5t100.5 -82t56.5 -145t17.5 -214.5v-576h-185v562q0 102 -12 168t-35.5 104t-58 53t-79.5 15q-46 0 -92 -14.5t-85.5 -33t-71 -36t-49.5 -23.5v-795h-185v1419z" />
<glyph unicode="i" horiz-adv-x="500" d="M158 0v1031h184v-1031h-184zM346 1408v-182h-193v182h193z" />
<glyph unicode="j" horiz-adv-x="500" d="M343 1031v-898q0 -81 -17.5 -148.5t-57.5 -124t-105 -103t-160 -83.5l-55 123q59 33 99.5 65.5t65.5 73t36 92.5t11 124v879h183zM347 1408v-182h-192v182h192z" />
<glyph unicode="k" horiz-adv-x="1053" d="M1027 0h-186l-402 457l-96 -84v-373h-185v1419l185 18v-877l465 471h191v-34l-440 -447l468 -515v-35z" />
<glyph unicode="l" horiz-adv-x="500" d="M158 1419l184 18v-1437h-184v1419z" />
<glyph unicode="m" horiz-adv-x="1692" d="M1266 1043q142 0 209 -99.5t67 -301.5v-642h-186v562q0 92 -7 156.5t-23.5 105t-44.5 59t-70 18.5q-35 0 -78 -10t-83 -24t-71.5 -30.5t-43.5 -28.5q3 -21 7 -54q3 -29 5.5 -73.5t2.5 -107.5v-573h-186v597q0 91 -6.5 150t-21.5 93.5t-40.5 47.5t-63.5 13q-44 0 -86 -9.5 t-79.5 -23.5t-69 -30.5t-54.5 -29.5v-808h-185v1031l129 12l27 -121q80 59 167.5 90t187.5 31t157.5 -32.5t80.5 -91.5q31 26 67.5 49t80.5 39.5t96 26t115 9.5z" />
<glyph unicode="n" horiz-adv-x="1156" d="M158 1031l129 12l27 -121q24 18 59.5 39.5t81 39.5t101 30t118.5 12q79 0 140.5 -22.5t104.5 -72t65.5 -129.5t22.5 -195v-624h-185v584q0 82 -9 142t-30 99t-56.5 57.5t-88.5 18.5q-56 0 -108.5 -15t-94.5 -32q-48 -20 -92 -46v-808h-185v1031z" />
<glyph unicode="o" horiz-adv-x="1119" d="M560 1043q115 0 200.5 -38t141.5 -107.5t83.5 -167.5t27.5 -220q0 -116 -27.5 -214t-83.5 -167.5t-141.5 -108t-200.5 -38.5q-116 0 -201.5 38.5t-141.5 108t-83.5 167.5t-27.5 214q0 122 27.5 220t83.5 167.5t141.5 107.5t201.5 38zM560 122q75 0 126 28t82.5 80 t45 124.5t13.5 157.5q0 94 -14 166t-45.5 121.5t-82.5 75.5t-125 26q-75 0 -126 -26t-82.5 -75.5t-45 -121.5t-13.5 -166q0 -85 13.5 -157.5t45 -124.5t82.5 -80t126 -28z" />
<glyph unicode="p" horiz-adv-x="1141" d="M278 1043l33 -116q33 24 69.5 45.5t79.5 37t93.5 24.5t112.5 9q86 0 153.5 -31.5t114.5 -96t71.5 -164.5t24.5 -237q0 -140 -29 -241.5t-79.5 -166t-119 -94.5t-147.5 -30q-69 0 -126 13.5t-99 30.5q-48 19 -87 45v-470l-185 -16v1447zM343 198q35 -21 76 -38 q35 -14 83 -26t104 -12q59 0 103.5 21.5t74.5 70t45 125.5t15 185q0 198 -53.5 287.5t-159.5 89.5q-60 0 -112 -13.5t-91 -29.5q-46 -18 -85 -42v-618z" />
<glyph unicode="q" horiz-adv-x="1111" d="M956 -390l-185 -27v488q-39 -26 -87 -45q-41 -17 -95.5 -30.5t-118.5 -13.5q-81 0 -147.5 35t-113.5 103t-73 166.5t-26 222.5q0 132 26.5 231.5t76.5 167t122.5 101.5t165.5 34q47 0 99.5 -4t103 -11t96.5 -17t80.5 -18t54.5 -14l21 -5v-1364zM543 901q-56 0 -102 -18 t-78.5 -62.5t-50.5 -119t-18 -189.5q0 -196 58 -293t179 -97q45 0 87.5 11.5t76.5 25.5q40 16 76 37v679q-40 8 -80 14q-35 5 -74 8.5t-74 3.5z" />
<glyph unicode="r" horiz-adv-x="736" d="M598 1043q20 0 39 -3.5t34 -7.5q18 -5 33 -11l-22 -143q-4 3 -14 7q-8 2 -23 4.5t-39 2.5q-57 0 -105 -15t-83 -32q-41 -20 -75 -46v-799h-185v1033l129 10l35 -126q58 60 129 93t147 33z" />
<glyph unicode="s" horiz-adv-x="925" d="M102 777q1 73 28 123t75 82.5t115 47t150 13.5q63 -1 114.5 -7.5t89.5 -14.5q44 -10 79 -22l20 -141q-36 11 -79 20q-37 8 -87.5 14.5t-110.5 7.5q-53 0 -94.5 -5t-70 -18.5t-43.5 -37.5t-15 -65q0 -37 10 -59.5t37.5 -41t75.5 -34.5t123 -35q87 -23 148 -49.5t99.5 -64 t56 -90t16.5 -118.5q-1 -67 -23.5 -122t-69 -94.5t-117.5 -61.5t-169 -22q-82 0 -142.5 9t-102.5 20q-48 12 -83 29l-19 142q42 -16 94 -28q45 -11 105.5 -20t132.5 -10q111 -1 165 34.5t55 119.5q0 32 -9 61t-36.5 50.5t-78 39.5t-131.5 38q-73 18 -131 42t-98 59 t-60.5 85.5t-18.5 123.5z" />
<glyph unicode="t" horiz-adv-x="679" d="M444 -18q-68 0 -115 17t-76 58t-42.5 109.5t-13.5 170.5v590h-142v104h149l26 314l149 29v-343h256v-104h-253v-629q0 -54 3.5 -89.5t15 -56.5t33 -29.5t58.5 -8.5q27 0 52 2.5t45 6.5q23 4 42 9l-16 -129q-18 -7 -44 -11q-22 -4 -53.5 -7t-73.5 -3z" />
<glyph unicode="u" horiz-adv-x="1155" d="M998 0l-134 -11l-25 129q-39 -38 -93 -68q-46 -26 -111.5 -47t-150.5 -21q-174 0 -254.5 110.5t-80.5 345.5v593h184v-586q0 -87 9.5 -148.5t32 -100t60 -56.5t92.5 -18q63 0 115.5 14.5t90.5 32.5q45 21 80 48v814h185v-1031z" />
<glyph unicode="v" horiz-adv-x="965" d="M373 0l-328 1031h194l243 -870l250 870h189l-327 -1031h-221z" />
<glyph unicode="w" horiz-adv-x="1485" d="M567 0h-246l-257 1031h200l187 -938l167 918h235l198 -918l162 938h201l-239 -1031h-244l-196 877z" />
<glyph unicode="x" horiz-adv-x="997" d="M395 513l-342 518h194l252 -414l250 414h196l-344 -518l344 -513h-207l-239 402l-241 -402h-205z" />
<glyph unicode="y" horiz-adv-x="979" d="M491 136l247 895h196l-353 -1091q-29 -89 -53.5 -158t-54 -116t-68 -71t-94.5 -24q-62 0 -113 12t-88 27q-43 17 -78 39l13 126q40 -16 80 -27q35 -10 75.5 -18t78.5 -8q22 0 37 8.5t25.5 24t18 38.5t15.5 53l24 107l-356 1078h199z" />
<glyph unicode="z" horiz-adv-x="886" d="M810 888l-538 -754l188 4h309v-138h-686v153l538 745l-244 -5h-256v138h657z" />
<glyph unicode="{" horiz-adv-x="608" d="M74 657l125 95q0 139 7 241.5t22.5 175.5t40.5 120t61.5 74t85 37.5t110.5 11.5v-90q-37 0 -62.5 -9t-42 -33.5t-25.5 -67.5t-13.5 -111t-5 -165t-0.5 -228l-166 -103l166 -108q0 -131 0.5 -227.5t5 -164.5t13.5 -111t25.5 -67.5t42 -33.5t62.5 -9v-90q-62 1 -110.5 11.5 t-85 37.5t-61.5 74t-40.5 120t-22.5 175.5t-7 241.5l-125 96v107z" />
<glyph unicode="|" horiz-adv-x="533" d="M173 -131v1604h188v-1604h-188z" />
<glyph unicode="}" horiz-adv-x="608" d="M535 550l-126 -96q0 -139 -7 -241.5t-22.5 -175.5t-40.5 -120t-61.5 -74t-85 -37.5t-110.5 -11.5v90q37 0 62.5 9t42 33.5t25 67.5t13 111t5 164.5t0.5 227.5l167 108l-167 103q0 131 -0.5 228t-5 165t-13 111t-25 67.5t-42 33.5t-62.5 9v90q62 -1 110.5 -11.5t85 -37.5 t61.5 -74t40.5 -120t22.5 -175.5t7 -241.5l126 -95v-107z" />
<glyph unicode="~" horiz-adv-x="893" d="M562 617q26 -6 41 5t20 34t6 49h131q1 -59 -12.5 -99t-35 -65t-49 -37t-54.5 -13q-10 -1 -20 -0.5t-21 2.5q-34 4 -68.5 20t-66.5 34t-61 32.5t-51 15.5q-15 0 -25.5 -8t-16.5 -21.5t-8.5 -31t-2.5 -36.5h-132q-1 65 14 108.5t39.5 69t56.5 36t65 9.5q37 -2 72 -17 t67 -33t60 -34t52 -20z" />
<glyph unicode="&#xa1;" horiz-adv-x="525" d="M159 0zM349 1418h-175v-178.989h175v178.989zM218 1049.02q-5 -70.9951 -13 -184.988q-7 -96.9941 -17 -250.485q-10 -153.49 -24 -371.477q0 -7 -0.5 -22.499t-1.5 -43.9971t-1.5 -71.4961q-0.5 -42.9971 -1.5 -103.993h204q-1 60.9961 -2 103.993 q-1 42.998 -1.5 71.4961t-1 43.9971t-0.5 22.499q-14 217.986 -24 371.477q-10 153.491 -17 250.485q-8 113.993 -13 184.988h-86z" />
<glyph unicode="&#xa2;" horiz-adv-x="981" d="M562 -129h-62l28 1290h60zM97 504q0 150 40.5 252t106 164t147 89t164.5 26q70 0 132 -18.5t108 -55t70.5 -91t19.5 -126.5l-152 6q1 77 -45.5 110.5t-131.5 32.5q-60 -1 -109.5 -20.5t-85.5 -64.5t-55.5 -119t-19.5 -182q0 -109 18.5 -185t54.5 -123t88.5 -68.5 t119.5 -21.5q59 0 112 11t93.5 24t64 24l23.5 11l-26 -137q-12 -8 -37 -19.5t-61.5 -23t-83.5 -19.5t-101 -8q-55 0 -110 11.5t-105 37t-94 66t-76 100t-50.5 138t-18.5 179.5z" />
<glyph unicode="&#xa3;" horiz-adv-x="994" d="M874 -3h-785v143h96q25 28 44 98q8 30 16 71.5t14.5 97.5t10.5 128t4 162h-166v117h166v245q0 90 20.5 163.5t63 125t108.5 79t157 26.5q53 -1 97.5 -9.5t77.5 -19.5q39 -12 70 -28v-139q-31 12 -65 23q-29 9 -68 16t-81 8q-81 0 -121.5 -32t-56.5 -94.5t-16 -154v-209.5 h361v-117h-361q0 -95 -5 -169.5t-13 -131.5t-18.5 -98t-20.5 -69q-25 -67 -56 -88h538z" />
<glyph unicode="&#xa4;" horiz-adv-x="1184" d="M591 1354q81 0 143 -19.5t110 -53.5l126 128l70 -72l-124 -124q46 -56 67.5 -125t21.5 -143q0 -73 -20.5 -140.5t-65.5 -122.5l121 -122l-67 -70l-123 123q-48 -36 -112 -56.5t-147 -20.5t-147 20.5t-113 55.5l-120 -122l-66 70l117 119q-45 56 -66 124.5t-21 141.5 q0 75 21.5 144.5t68.5 125.5l-120 122l70 72l123 -126q48 33 110 52t143 19zM591 677q70 0 119 22.5t80 60t45 85.5t14 100q0 51 -14 99t-44.5 85t-80 59.5t-119.5 22.5q-71 0 -120.5 -22.5t-80 -59.5t-44.5 -85t-14 -99q0 -52 14 -100t45 -85.5t80 -60t120 -22.5z" />
<glyph unicode="&#xa5;" horiz-adv-x="1061" d="M170 550h236q-4 8 -20.5 47t-40.5 97.5t-54 131.5t-61 148.5t-61 148t-54 131l-40 97.5t-20 47h191l201 -519q1 -6 7 -26.5t15 -48.5t18.5 -59.5t18.5 -59.5t15 -49t7 -27q1 3 7.5 23t15.5 49t19.5 62t19.5 62t15.5 49.5t7.5 24.5q0 3 8 26t21.5 58.5t30.5 80.5t35 91.5 t35.5 91.5t31.5 81.5t23 60.5t11 29h192q-4 -8 -20 -47t-40.5 -97.5t-54.5 -131t-61 -148t-61 -148.5t-54 -131.5t-40.5 -97.5t-20.5 -47h250v-90h-271q-1 -5 -1.5 -23t-1.5 -38t-1.5 -38t-0.5 -22h279v-85h-284v-257h-181v257h-267v85h263l-6 121h-257v90z" />
<glyph unicode="&#xa6;" horiz-adv-x="534" d="M177 -138v714h180v-714h-180zM177 815v658h180v-658h-180z" />
<glyph unicode="&#xa7;" horiz-adv-x="1003" d="M123 1091q1 83 34 135.5t85 82t116.5 40.5t128.5 11q65 0 117.5 -9t90.5 -20q44 -13 79 -29q0 -3 3.5 -24t7.5 -45.5t7.5 -45.5t3.5 -24q-17 8 -44.5 18.5t-66.5 20t-89 15.5t-110 6q-43 -1 -79.5 -5.5t-63.5 -18.5t-42 -39t-15 -66q0 -44 21.5 -72.5t59.5 -50t89 -40 t111 -42.5q69 -27 126.5 -51.5t98.5 -54.5t63.5 -69.5t22.5 -96.5q0 -42 -14 -76t-31.5 -58t-33 -37.5t-18.5 -15.5q18 -13 38.5 -32.5t37 -45t27 -57t9.5 -68.5q0 -58 -21 -108t-67.5 -87t-120.5 -58t-180 -21q-72 0 -130.5 10t-100.5 23q-49 14 -89 33l-22 140 q45 -20 100 -35q46 -13 107 -23.5t130 -10.5q53 0 94 7.5t69 24t43 43.5t16 67q1 46 -26 77t-71.5 54t-102 42.5t-115.5 43.5q-83 34 -136 64.5t-84.5 62t-43.5 66t-12 75.5q0 30 9 55.5t23 47.5t32.5 40t36.5 32q-16 11 -35 28t-35.5 41t-27.5 56t-10 74zM751 603 q0 29 -13 48.5t-41 36t-71.5 34t-104.5 41.5q-24 9 -45.5 17.5t-45.5 17.5t-52.5 20.5t-65.5 27.5q-8 -5 -18 -15t-18.5 -23t-14.5 -27.5t-7 -29.5q-2 -28 5 -48.5t28.5 -39.5t62 -39.5t105.5 -47.5q33 -13 67.5 -26.5t67 -26.5t60.5 -25t49 -22q15 14 26 32q10 16 18 39.5 t8 55.5z" />
<glyph unicode="&#xa8;" horiz-adv-x="847" d="M322 1331v-167h-173v167h173zM698 1331v-167h-174v167h174z" />
<glyph unicode="&#xa9;" horiz-adv-x="1612" d="M1402 708q0 78 -18.5 154t-53.5 145t-86.5 128t-117.5 102t-146 67.5t-172 24.5q-128 0 -237 -48t-188.5 -132t-125 -197.5t-45.5 -243.5q0 -132 44 -245t123.5 -196t188.5 -130.5t240 -47.5q120 0 228 44.5t189.5 125.5t129 195t47.5 254zM1520 708q0 -111 -27.5 -208 t-77 -177.5t-117 -143.5t-146.5 -106.5t-167.5 -66.5t-178.5 -23q-100 0 -191.5 25t-171 70.5t-144 111t-111 146t-71.5 174.5t-25 198q0 103 25.5 196.5t72.5 174.5t112 146.5t144.5 112t170.5 72t189 25.5q107 0 201.5 -28t174 -77.5t142 -118t106.5 -149.5t67 -171 t23 -183zM1047 313q-4 -2 -24 -12.5t-51 -22t-71.5 -21t-84.5 -9.5q-108 0 -183.5 39t-122.5 103.5t-68 147.5t-21 170q0 99 25 183.5t74.5 145.5t123.5 95.5t172 34.5q43 0 83 -8t72 -18.5t52.5 -19.5t23.5 -11l6 -97q-31 12 -67 23q-32 9 -73.5 16.5t-89.5 7.5 q-78 0 -131.5 -28t-85.5 -76t-46 -112t-14 -136q0 -77 13.5 -141.5t46 -111.5t85.5 -73.5t132 -26.5q48 0 89 9t72 20t49 21t20 12z" />
<glyph unicode="&#xaa;" horiz-adv-x="953" d="M198 375h600v-78h-600v78zM479 860q-22 0 -48 -1t-52 -5.5t-50.5 -13t-43 -23.5t-30 -38t-11.5 -55q0 -56 36.5 -83.5t103.5 -27.5q46 0 84 9.5t65 22.5q32 14 58 32v179q-17 1 -37 2q-16 1 -35.5 1.5t-39.5 0.5zM726 679q0 -27 3.5 -41.5t12.5 -17.5q11 -5 29 -4t33 1 l-10 -90q-10 -4 -23 -7q-11 -3 -26 -4.5t-33 -1.5q-30 0 -51 10.5t-34.5 25.5t-19.5 34.5t-6 28.5q-20 -28 -55 -50q-31 -19 -79.5 -34t-122.5 -15q-50 0 -91.5 14t-71 42t-46 69.5t-16.5 89.5q0 67 29 108.5t76 65t108 33t125 9.5q25 0 49.5 -2t43.5 -3q22 -4 41 -6v83 q0 58 -9 94t-29.5 55t-52.5 25.5t-80 6.5q-45 0 -88 -7t-77 -15q-41 -10 -76 -23l15 102q28 13 64 23q31 9 74.5 16.5t98.5 7.5q89 0 146.5 -17.5t90.5 -56t45.5 -100.5t12.5 -151v-298z" />
<glyph unicode="&#xab;" horiz-adv-x="1150" d="M603 189l-74 -113l-471 476l471 474l76 -112l-362 -362zM964 1011l75 -111l-373 -348l374 -347l-74 -112l-488 459z" />
<glyph unicode="&#xac;" horiz-adv-x="1386" d="M1025 119v573h-921v144h1101v-717h-180z" />
<glyph unicode="&#xad;" horiz-adv-x="805" d="M146 448v130h513v-130h-513z" />
<glyph unicode="&#xae;" horiz-adv-x="1218" d="M539 1019h50q37 0 61.5 4.5t38.5 15t19.5 27t5.5 40.5q0 22 -5 37.5t-20.5 24.5t-44.5 13t-77 4h-28v-166zM715 720l-138 227h-40v-227h-88v537h120q70 0 115 -9.5t71 -28.5t36 -47.5t10 -65.5q0 -35 -7.5 -60.5t-24.5 -43t-44 -29t-66 -18.5q12 -17 24 -36 q11 -17 24.5 -38t27.5 -43l76 -118h-96zM110 981q0 104 39 195t106.5 159t159 107t195.5 39t195 -39t158.5 -107t106 -159t38.5 -195t-38.5 -195t-106 -158.5t-158.5 -106.5t-195 -39t-195.5 39t-159 106.5t-106.5 158.5t-39 195zM197 980q0 -89 32 -165t88 -131.5 t131.5 -87t161.5 -31.5t161.5 31.5t131.5 87t88 131.5t32 165q0 88 -32 164.5t-88 132.5t-131.5 88t-161.5 32t-161.5 -32t-131.5 -88t-88 -132.5t-32 -164.5z" />
<glyph unicode="&#xaf;" horiz-adv-x="890" d="M150 1185v134h591v-134h-591z" />
<glyph unicode="&#xb0;" horiz-adv-x="675" d="M456 985q0 51 -31.5 84.5t-87.5 33.5q-54 0 -86.5 -33t-32.5 -85q0 -51 31 -83.5t88 -32.5q54 0 86.5 32t32.5 84zM570 985q0 -49 -17.5 -91t-48 -73t-73.5 -48.5t-94 -17.5q-50 0 -92.5 17.5t-73.5 48t-48 72.5t-17 92q0 49 17 91t48 72.5t73.5 47.5t92.5 17 q51 0 94 -17.5t73.5 -48t48 -72t17.5 -90.5z" />
<glyph unicode="&#xb1;" horiz-adv-x="1047" d="M132 -5v114h784v-114h-784zM598 762v-359h-145v359h-321v122h321v363h145v-363h318v-122h-318z" />
<glyph unicode="&#xb2;" horiz-adv-x="843" d="M414 988q81 0 141.5 -19t101 -53.5t60.5 -83t20 -106.5q0 -43 -11.5 -81.5t-31.5 -74t-48.5 -69.5t-61.5 -67l-292 -298h430l-12 -136h-597l-20 136l381 406q16 18 32.5 39.5t30 44.5t21.5 47.5t8 48.5q0 55 -41.5 91t-129.5 36q-46 0 -95.5 -10t-91.5 -21 q-49 -14 -96 -31l19 146q41 15 88 27q40 11 90.5 19.5t104.5 8.5z" />
<glyph unicode="&#xb3;" horiz-adv-x="886" d="M120 155q42 -14 88 -25q39 -10 88 -17.5t99 -7.5q209 0 209 145q0 40 -16.5 69.5t-55 49t-101 29t-154.5 9.5v129q86 0 143 8.5t91 26.5t48 45.5t14 65.5q0 78 -51 108t-151 30q-37 0 -78.5 -5t-78.5 -11.5t-64.5 -12.5t-36.5 -8l21 127q38 10 79 19q35 7 78 13t85 6 q188 0 272 -64t84 -185q0 -63 -26 -104t-60 -65.5t-65.5 -36.5t-43.5 -17q10 -1 31 -4.5t47.5 -12t54.5 -23.5t51 -40.5t38 -62.5t15 -89q0 -74 -30.5 -125t-83 -83t-121.5 -46.5t-147 -14.5q-54 0 -105 8t-92.5 18t-69 19t-34.5 11z" />
<glyph unicode="&#xb4;" horiz-adv-x="393" d="M162 1707h225l-240 -552h-72z" />
<glyph unicode="&#xb5;" horiz-adv-x="1161" d="M1020 3l-133 -11l-25 140q-35 -45 -83 -80q-42 -30 -103 -55t-142 -25q-45 0 -80 11.5t-60.5 31.5t-41.5 47t-22 58l-4 -420h-155v1319h183v-584q0 -87 10 -148t33 -100t60.5 -56.5t93.5 -17.5q63 0 114.5 18t89.5 41q44 26 80 59v788h185v-1016z" />
<glyph unicode="&#xb6;" horiz-adv-x="1182" d="M440 878q-86 -3 -155 8.5t-117.5 43t-74.5 85t-26 133.5q1 100 37.5 158t105 87t167.5 36.5t226 7.5h498l25 -139h-225v-1301h-168v1301h-125v-1301h-168v881z" />
<glyph unicode="&#xb7;" horiz-adv-x="469" d="M321 672v-195h-173v195h173z" />
<glyph unicode="&#xb8;" horiz-adv-x="537" d="M498 -340q0 -47 -16.5 -84t-46 -62.5t-68.5 -38.5t-84 -13q-40 0 -71.5 7.5t-54.5 16.5q-26 11 -46 24l-10 96q29 -12 60 -22q26 -8 57 -14.5t60 -6.5q36 0 57 10.5t32.5 25t15 30t3.5 26.5q0 35 -19 55.5t-53.5 31.5t-83 16t-107.5 10q0 5 2 17.5t5 30t6.5 38t6.5 41.5 q8 48 18 107h102q-9 -38 -17 -71q-7 -28 -12.5 -53t-7.5 -33q24 0 53.5 -2.5t60 -9.5t59 -20t50.5 -33.5t35.5 -50t13.5 -69.5z" />
<glyph unicode="&#xb9;" horiz-adv-x="613" d="M289 599v199l-86 -47l-105 -54l-55 132l283 137l122 -27v-939h-159v599z" />
<glyph unicode="&#xba;" horiz-adv-x="930" d="M190 375h549v-78h-549v78zM464 1295q84 0 147 -28t104 -79t61.5 -123t20.5 -162q0 -85 -20.5 -157t-61.5 -123.5t-104 -79.5t-147 -28q-85 0 -148 28t-104 79.5t-61 123.5t-20 157q0 90 20 162t61 123t104 79t148 28zM464 618q55 0 92.5 20.5t60.5 58.5t33 91.5t10 115.5 q0 69 -10.5 122t-33.5 89.5t-60.5 55.5t-91.5 19q-55 0 -92.5 -19t-60.5 -55.5t-33 -89.5t-10 -122q0 -62 10 -115.5t33 -91.5t60.5 -58.5t92.5 -20.5z" />
<glyph unicode="&#xbb;" horiz-adv-x="1150" d="M545 914l75 112l472 -474l-472 -476l-74 113l361 363zM185 93l-75 112l373 347l-372 348l75 111l487 -459z" />
<glyph unicode="&#xbc;" horiz-adv-x="1905" d="M47 0zM1440 963l236 -7v-621h160v-120h-160v-215l-157 -6v221h-460l-43 105zM1519 335v278l4 240l-156 -252l-174 -269l186 3h140zM293 1042v199l-86 -47l-105 -54l-55 132l283 137l122 -27v-939h-159v599zM1286 1381l-681 -1368l-139 54l679 1365z" />
<glyph unicode="&#xbd;" horiz-adv-x="1981" d="M48 0zM1554 988q81 0 141.5 -19t101 -53.5t60.5 -83t20 -106.5q0 -43 -11.5 -81.5t-31.5 -74t-48.5 -69.5t-61.5 -67l-292 -298h430l-12 -136h-597l-20 136l381 406q16 18 32.5 39.5t30 44.5t21.5 47.5t8 48.5q0 55 -41.5 91t-129.5 36q-46 0 -95.5 -10t-91.5 -21 q-49 -14 -96 -31l19 146q41 15 88 27q40 11 90.5 19.5t104.5 8.5zM294 1041v199l-86 -47l-105 -54l-55 132l283 137l122 -27v-939h-159v599zM1299 1381l-681 -1368l-139 54l679 1365z" />
<glyph unicode="&#xbe;" horiz-adv-x="2074" d="M102 0zM1616 963l236 -7v-621h160v-120h-160v-215l-157 -6v221h-460l-43 105zM1695 335v278l4 240l-156 -252l-174 -269l186 3h140zM131 568q42 -14 88 -25q39 -10 88 -17.5t99 -7.5q209 0 209 145q0 40 -16.5 69.5t-55 49t-101 29t-154.5 9.5v129q86 0 143 8.5t91 26.5 t48 45.5t14 65.5q0 78 -51 108t-151 30q-37 0 -78.5 -5t-78.5 -11.5t-64.5 -12.5t-36.5 -8l21 127q38 10 79 19q35 7 78 13t85 6q188 0 272 -64t84 -185q0 -63 -26 -104t-60 -65.5t-65.5 -36.5t-43.5 -17q10 -1 31 -4.5t47.5 -12t54.5 -23.5t51 -40.5t38 -62.5t15 -89 q0 -74 -30.5 -125t-83 -83t-121.5 -46.5t-147 -14.5q-54 0 -105 8t-92.5 18t-69 19t-34.5 11zM1520 1381l-681 -1368l-139 54l679 1365z" />
<glyph unicode="&#xbf;" horiz-adv-x="872" d="M96 0zM96.0488 326.066q0 94.9941 33.998 159.99t85.4951 109.493q51.4971 44.498 110.993 72.9961t110.993 51.9971q51.4971 23.498 85.4951 45.4971q33.9971 21.998 33.9971 52.9971v297.981h150.991v-287.982q0 -52.9971 -18.999 -91.4941 q-18.999 -38.498 -50.4971 -66.9961t-70.9951 -49.9971q-39.498 -21.499 -81.4951 -41.9971q-41.998 -20.499 -81.4951 -41.998q-39.498 -21.499 -70.9961 -49.9971t-50.4961 -66.4961q-18.999 -37.9971 -18.999 -90.9941t12.999 -90.4941q12.999 -37.498 41.4971 -61.4961 q28.499 -23.999 74.9961 -34.998q46.4971 -11 113.493 -11q52.9961 0 105.493 7t95.4941 14.999q49.9971 9.99902 95.9941 21.999q0 -2 -1 -23.999q-1 -21.998 -1.5 -47.9971q-0.5 -25.998 -1.5 -47.9971q-1 -21.998 -1 -23.998q-44.9971 -12.999 -93.9941 -23.999 q-41.9971 -8.99902 -93.9941 -16.999q-51.9971 -7.99902 -104.993 -7.99902q-116.993 0 -195.988 27.498t-126.492 74.4951t-67.4961 109.494q-19.999 62.4961 -19.999 132.491zM727.011 1341q0 -22.999 -8 -43.4971q-7.99902 -20.499 -21.498 -35.998t-31.998 -24.499 q-18.499 -8.99902 -39.498 -8.99902q-21.999 0 -40.9971 8.99902q-18.999 9 -33.498 24.499t-22.499 35.998q-7.99902 20.498 -7.99902 43.4971q0 21.999 7.99902 40.9971q8 18.999 22.499 33.498t33.498 22.999q18.998 8.49902 40.9971 8.49902q20.999 0 39.498 -8.49902 q18.499 -8.5 31.998 -22.999t21.498 -33.498q8 -18.998 8 -40.9971z" />
<glyph unicode="&#xc0;" d="M41 0zM335 327l-99 -327h-195l476 1437h201l475 -1437h-196l-98 327h-564zM368 439h497l-247 804zM763 1590h-73l-220 529l213 22z" />
<glyph unicode="&#xc1;" d="M41 0zM335 327l-99 -327h-195l476 1437h201l475 -1437h-196l-98 327h-564zM368 439h497l-247 804zM548 2113h225l-240 -552h-72z" />
<glyph unicode="&#xc2;" d="M41 0zM335 327l-99 -327h-195l476 1437h201l475 -1437h-196l-98 327h-564zM368 439h497l-247 804zM521 2071h189l222 -493h-196l-115 367h-12l-112 -367h-195z" />
<glyph unicode="&#xc3;" d="M41 0zM335 327l-99 -327h-195l476 1437h201l475 -1437h-196l-98 327h-564zM368 439h497l-247 804zM466 1820q43 0 83.5 -17.5t77.5 -38t70 -38t62 -17.5q16 0 26.5 8.5t15.5 22t7 31t2 36.5h131v-7q0 -65 -14.5 -107t-38.5 -66.5t-54.5 -34t-63.5 -9.5q-11 1 -20 1.5 t-18 2.5q-39 8 -77 25t-71 34.5t-61 31t-47 13.5q-16 0 -26 -8t-16 -21.5t-8 -32t-2 -39.5h-132v14q0 64 15 105.5t39 66t55 34.5t65 10z" />
<glyph unicode="&#xc4;" d="M41 0zM335 327l-99 -327h-195l476 1437h201l475 -1437h-196l-98 327h-564zM368 439h497l-247 804zM515 1737v-167h-173v167h173zM891 1737v-167h-174v167h174z" />
<glyph unicode="&#xc5;" d="M41 0zM335 327l-99 -327h-195l476 1437h201l475 -1437h-196l-98 327h-564zM368 439h497l-247 804zM627 1508q-56 0 -102 16.5t-79.5 48t-52 77t-18.5 103.5q0 56 18.5 100.5t52 75.5t79.5 47.5t102 16.5q54 0 99 -16.5t77.5 -47.5t51 -75.5t18.5 -100.5 q0 -59 -18.5 -104.5t-51.5 -76.5t-78 -47.5t-98 -16.5zM627 1601q41 0 68.5 14.5t44 36.5t23 49t6.5 52q0 23 -6.5 49t-23 48t-43.5 36.5t-69 14.5q-50 0 -79.5 -15.5t-44.5 -38t-19 -48.5t-4 -46q0 -24 7.5 -51t25 -49.5t45.5 -37t69 -14.5z" />
<glyph unicode="&#xc6;" horiz-adv-x="1576" d="M706 0v288h-355l-111 -288h-221l562 1409h878v-146h-565v-453h506v-145h-506v-519h577v-146h-765zM387 421h319v855l-107 -316z" />
<glyph unicode="&#xc7;" horiz-adv-x="1193" d="M119 0zM692 -24q-121 0 -225 34.5t-181 121.5t-121.5 233.5t-45.5 361.5q0 208 44.5 349t124 227.5t188 123.5t236.5 37q81 0 150.5 -9.5t120.5 -20.5q60 -13 108 -29l16 -155q-50 18 -110 33q-51 11 -119 21t-145 10q-97 0 -174 -30t-131 -98t-82.5 -178.5t-28.5 -278.5 q1 -159 25.5 -275.5t74 -189t124 -105.5t173.5 -32q83 -1 154 9.5t125 26.5q62 16 114 36l-17 -156q-49 -19 -111 -34q-53 -13 -126 -23t-161 -10zM983 -340q0 -47 -16.5 -84t-46 -62.5t-68.5 -38.5t-84 -13q-40 0 -71.5 7.5t-54.5 16.5q-26 11 -46 24l-10 96q29 -12 60 -22 q26 -8 57 -14.5t60 -6.5q36 0 57 10.5t32.5 25t15 30t3.5 26.5q0 35 -19 55.5t-53.5 31.5t-83 16t-107.5 10q0 5 2 17.5t5 30t6.5 38t6.5 41.5q8 48 18 107h102q-9 -38 -17 -71q-7 -28 -12.5 -53t-7.5 -33q24 0 53.5 -2.5t60 -9.5t59 -20t50.5 -33.5t35.5 -50t13.5 -69.5z " />
<glyph unicode="&#xc8;" horiz-adv-x="1090" d="M185 0zM185 0v1437h816l-24 -145h-603v-483h492v-139h-492v-525h625l-23 -145h-791zM691 1590h-73l-220 529l213 22z" />
<glyph unicode="&#xc9;" horiz-adv-x="1090" d="M185 0zM185 0v1437h816l-24 -145h-603v-483h492v-139h-492v-525h625l-23 -145h-791zM476 2113h225l-240 -552h-72z" />
<glyph unicode="&#xca;" horiz-adv-x="1090" d="M185 0zM185 0v1437h816l-24 -145h-603v-483h492v-139h-492v-525h625l-23 -145h-791zM449 2071h189l222 -493h-196l-115 367h-12l-112 -367h-195z" />
<glyph unicode="&#xcb;" horiz-adv-x="1090" d="M185 0zM185 0v1437h816l-24 -145h-603v-483h492v-139h-492v-525h625l-23 -145h-791zM443 1737v-167h-173v167h173zM819 1737v-167h-174v167h174z" />
<glyph unicode="&#xcc;" horiz-adv-x="553" d="M130 0zM185 0v1437h183v-1437h-183zM423 1590h-73l-220 529l213 22z" />
<glyph unicode="&#xcd;" horiz-adv-x="553" d="M120 0zM185 0v1437h183v-1437h-183zM207 2113h225l-240 -552h-72z" />
<glyph unicode="&#xce;" horiz-adv-x="553" d="M0 0zM185 0v1437h183v-1437h-183zM182 2071h189l222 -493h-196l-115 367h-12l-112 -367h-195z" />
<glyph unicode="&#xcf;" horiz-adv-x="553" d="M3 0zM185 0v1437h183v-1437h-183zM176 1737v-167h-173v167h173zM552 1737v-167h-174v167h174z" />
<glyph unicode="&#xd0;" horiz-adv-x="1391" d="M194 0v677h-149v129h149v631h412q84 0 165.5 -8.5t155.5 -34.5t137 -72t109 -121t72 -183t26 -269q0 -127 -11 -224.5t-38.5 -179t-73 -145.5t-114.5 -108.5t-163 -68t-219 -23.5h-458zM588 139q97 0 172 12t130 39t92 71.5t59.5 109.5t32 152.5t9.5 217.5 q0 145 -19.5 246t-68.5 169t-131 102.5t-206 34.5h-272v-487h226v-129h-226v-538h202z" />
<glyph unicode="&#xd1;" horiz-adv-x="1487" d="M185 0zM361 1148v-1148h-176v1437h190l751 -1148v1148h176v-1437l-182 1zM593 1820q43 0 83.5 -17.5t77.5 -38t70 -38t62 -17.5q16 0 26.5 8.5t15.5 22t7 31t2 36.5h131v-7q0 -65 -14.5 -107t-38.5 -66.5t-54.5 -34t-63.5 -9.5q-11 1 -20 1.5t-18 2.5q-39 8 -77 25 t-71 34.5t-61 31t-47 13.5q-16 0 -26 -8t-16 -21.5t-8 -32t-2 -39.5h-132v14q0 64 15 105.5t39 66t55 34.5t65 10z" />
<glyph unicode="&#xd2;" horiz-adv-x="1399" d="M120 0zM311 722q0 -141 21.5 -251.5t68.5 -187t120 -116.5t177 -40q105 0 178.5 40t120.5 116.5t68.5 187t21.5 251.5q0 140 -21.5 250t-68.5 186t-120.5 116t-178.5 40q-103 0 -176.5 -40t-120 -116t-68.5 -186t-22 -250zM120 722q0 376 148 559t430 183 q284 0 432.5 -183t148.5 -559q0 -380 -148.5 -563t-432.5 -183q-141 0 -249 45.5t-181 138t-110.5 232.5t-37.5 330zM846 1590h-73l-220 529l213 22z" />
<glyph unicode="&#xd3;" horiz-adv-x="1399" d="M120 0zM311 722q0 -141 21.5 -251.5t68.5 -187t120 -116.5t177 -40q105 0 178.5 40t120.5 116.5t68.5 187t21.5 251.5q0 140 -21.5 250t-68.5 186t-120.5 116t-178.5 40q-103 0 -176.5 -40t-120 -116t-68.5 -186t-22 -250zM120 722q0 376 148 559t430 183 q284 0 432.5 -183t148.5 -559q0 -380 -148.5 -563t-432.5 -183q-141 0 -249 45.5t-181 138t-110.5 232.5t-37.5 330zM630 2113h225l-240 -552h-72z" />
<glyph unicode="&#xd4;" horiz-adv-x="1399" d="M120 0zM311 722q0 -141 21.5 -251.5t68.5 -187t120 -116.5t177 -40q105 0 178.5 40t120.5 116.5t68.5 187t21.5 251.5q0 140 -21.5 250t-68.5 186t-120.5 116t-178.5 40q-103 0 -176.5 -40t-120 -116t-68.5 -186t-22 -250zM120 722q0 376 148 559t430 183 q284 0 432.5 -183t148.5 -559q0 -380 -148.5 -563t-432.5 -183q-141 0 -249 45.5t-181 138t-110.5 232.5t-37.5 330zM603 2071h189l222 -493h-196l-115 367h-12l-112 -367h-195z" />
<glyph unicode="&#xd5;" horiz-adv-x="1399" d="M120 0zM311 722q0 -141 21.5 -251.5t68.5 -187t120 -116.5t177 -40q105 0 178.5 40t120.5 116.5t68.5 187t21.5 251.5q0 140 -21.5 250t-68.5 186t-120.5 116t-178.5 40q-103 0 -176.5 -40t-120 -116t-68.5 -186t-22 -250zM120 722q0 376 148 559t430 183 q284 0 432.5 -183t148.5 -559q0 -380 -148.5 -563t-432.5 -183q-141 0 -249 45.5t-181 138t-110.5 232.5t-37.5 330zM549 1820q43 0 83.5 -17.5t77.5 -38t70 -38t62 -17.5q16 0 26.5 8.5t15.5 22t7 31t2 36.5h131v-7q0 -65 -14.5 -107t-38.5 -66.5t-54.5 -34t-63.5 -9.5 q-11 1 -20 1.5t-18 2.5q-39 8 -77 25t-71 34.5t-61 31t-47 13.5q-16 0 -26 -8t-16 -21.5t-8 -32t-2 -39.5h-132v14q0 64 15 105.5t39 66t55 34.5t65 10z" />
<glyph unicode="&#xd6;" horiz-adv-x="1399" d="M120 0zM311 722q0 -141 21.5 -251.5t68.5 -187t120 -116.5t177 -40q105 0 178.5 40t120.5 116.5t68.5 187t21.5 251.5q0 140 -21.5 250t-68.5 186t-120.5 116t-178.5 40q-103 0 -176.5 -40t-120 -116t-68.5 -186t-22 -250zM120 722q0 376 148 559t430 183 q284 0 432.5 -183t148.5 -559q0 -380 -148.5 -563t-432.5 -183q-141 0 -249 45.5t-181 138t-110.5 232.5t-37.5 330zM598 1737v-167h-173v167h173zM974 1737v-167h-174v167h174z" />
<glyph unicode="&#xd7;" horiz-adv-x="865" d="M529 524l202 -201l-98 -97l-201 201l-201 -201l-97 97l200 201l-200 201l97 98l201 -201l201 201l98 -98z" />
<glyph unicode="&#xd8;" horiz-adv-x="1397" d="M289 -106l76 168q-245 169 -245 658q0 378 147.5 562t429.5 184q79 0 149.5 -16t130.5 -48l83 184l57 -32l-84 -184q125 -85 185 -248t60 -402q0 -382 -148.5 -566t-432.5 -184q-159 0 -276 58l-75 -163zM697 117q105 0 178.5 40.5t120.5 117.5t68.5 190t21.5 255 q0 164 -28 290t-97 204l-473 -1038q84 -59 209 -59zM311 720q0 -172 30.5 -296.5t97.5 -201.5l472 1035q-44 33 -97.5 47.5t-116.5 14.5q-103 0 -176 -40.5t-119.5 -117t-68.5 -188t-22 -253.5z" />
<glyph unicode="&#xd9;" horiz-adv-x="1436" d="M173 0zM720 127q88 0 154 19t110 62t66.5 118t22.5 187v924h190v-937q0 -155 -40.5 -256t-113 -160.5t-172 -83.5t-216.5 -24q-121 0 -222 24.5t-173.5 85t-112.5 161.5t-40 254v936h191v-924q0 -112 20.5 -187t64 -118t111 -62t160.5 -19zM864 1590h-73l-220 529l213 22 z" />
<glyph unicode="&#xda;" horiz-adv-x="1436" d="M173 0zM720 127q88 0 154 19t110 62t66.5 118t22.5 187v924h190v-937q0 -155 -40.5 -256t-113 -160.5t-172 -83.5t-216.5 -24q-121 0 -222 24.5t-173.5 85t-112.5 161.5t-40 254v936h191v-924q0 -112 20.5 -187t64 -118t111 -62t160.5 -19zM649 2113h225l-240 -552h-72z " />
<glyph unicode="&#xdb;" horiz-adv-x="1436" d="M173 0zM720 127q88 0 154 19t110 62t66.5 118t22.5 187v924h190v-937q0 -155 -40.5 -256t-113 -160.5t-172 -83.5t-216.5 -24q-121 0 -222 24.5t-173.5 85t-112.5 161.5t-40 254v936h191v-924q0 -112 20.5 -187t64 -118t111 -62t160.5 -19zM622 2071h189l222 -493h-196 l-115 367h-12l-112 -367h-195z" />
<glyph unicode="&#xdc;" horiz-adv-x="1436" d="M173 0zM720 127q88 0 154 19t110 62t66.5 118t22.5 187v924h190v-937q0 -155 -40.5 -256t-113 -160.5t-172 -83.5t-216.5 -24q-121 0 -222 24.5t-173.5 85t-112.5 161.5t-40 254v936h191v-924q0 -112 20.5 -187t64 -118t111 -62t160.5 -19zM616 1737v-167h-173v167h173z M992 1737v-167h-174v167h174z" />
<glyph unicode="&#xdd;" horiz-adv-x="1133" d="M27 0zM899 1437h208l-440 -987v-450h-202v449l-438 988h210l230 -566l98 -262h7l94 262zM497 2113h225l-240 -552h-72z" />
<glyph unicode="&#xde;" horiz-adv-x="1226" d="M544 512q121 0 200.5 15.5t126 49t65 85.5t18.5 125q0 89 -18 144.5t-66 86.5t-133 42t-220 11h-147v-559h174zM1147 785q0 -116 -36 -195.5t-111.5 -129t-192.5 -71.5t-279 -22h-95q-30 0 -63 1v-368h-185v1409h185l1 -193h123q194 0 320 -21.5t200 -72t103.5 -133 t29.5 -204.5z" />
<glyph unicode="&#xdf;" horiz-adv-x="1307" d="M544 1402q-62 0 -101 -21t-61 -59t-29.5 -91.5t-7.5 -118.5v-1116h-187v1114q0 221 96 330t290 109q92 0 156.5 -15.5t107 -42t66 -63t32.5 -79t6 -89t-12 -92.5q0 -9 -5 -27.5t-13 -42.5t-18.5 -52.5t-20.5 -56.5q-25 -66 -56 -145q86 -6 165 -43t139 -101.5t96 -155.5 t36 -205q0 -123 -32.5 -214.5t-89.5 -152.5t-135 -91t-170 -28q-48 1 -87 7t-67 14q-33 9 -58 19l-20 141q25 -11 56 -19q26 -7 62.5 -12.5t81.5 -5.5q75 0 126 27.5t82.5 75.5t45 113.5t13.5 142.5q0 111 -31 186.5t-88.5 121.5t-140.5 66.5t-187 21.5q38 105 69 190 q13 36 25.5 71.5t22.5 64.5t16 49t6 26q13 48 15.5 93t-15 79.5t-60 55.5t-119.5 21z" />
<glyph unicode="&#xe0;" horiz-adv-x="1080" d="M82 0zM570 453q-29 0 -64.5 -1.5t-71 -7.5t-68.5 -18t-58.5 -32t-41 -51.5t-15.5 -74.5q0 -77 49.5 -114t140.5 -37q63 0 114.5 13t88.5 30q43 19 78 44v243q-23 2 -49 3q-22 1 -49 1.5t-54 1.5zM906 206q0 -36 4.5 -55.5t17.5 -24.5q14 -6 38.5 -5t45.5 1l-13 -122 q-14 -5 -32 -9q-15 -4 -35.5 -6.5t-44.5 -2.5q-41 0 -69.5 14.5t-46.5 34.5t-26.5 47t-8.5 39q-27 -38 -75 -68q-41 -26 -107.5 -46.5t-166.5 -20.5q-68 0 -124.5 19.5t-96.5 57.5t-62 94t-22 122q0 90 39 147t103 89t146.5 44.5t169.5 12.5q35 0 68 -2.5t59 -4.5 q30 -5 55 -8v113q0 79 -12 128t-39.5 75t-71.5 34.5t-108 8.5q-62 0 -120 -9.5t-105 -20.5q-55 -13 -103 -31l20 139q38 17 87 31q42 12 101 22t134 10q121 0 199 -23.5t123 -76t62 -137t17 -205.5v-405zM686 1184h-73l-220 529l213 22z" />
<glyph unicode="&#xe1;" horiz-adv-x="1080" d="M82 0zM570 453q-29 0 -64.5 -1.5t-71 -7.5t-68.5 -18t-58.5 -32t-41 -51.5t-15.5 -74.5q0 -77 49.5 -114t140.5 -37q63 0 114.5 13t88.5 30q43 19 78 44v243q-23 2 -49 3q-22 1 -49 1.5t-54 1.5zM906 206q0 -36 4.5 -55.5t17.5 -24.5q14 -6 38.5 -5t45.5 1l-13 -122 q-14 -5 -32 -9q-15 -4 -35.5 -6.5t-44.5 -2.5q-41 0 -69.5 14.5t-46.5 34.5t-26.5 47t-8.5 39q-27 -38 -75 -68q-41 -26 -107.5 -46.5t-166.5 -20.5q-68 0 -124.5 19.5t-96.5 57.5t-62 94t-22 122q0 90 39 147t103 89t146.5 44.5t169.5 12.5q35 0 68 -2.5t59 -4.5 q30 -5 55 -8v113q0 79 -12 128t-39.5 75t-71.5 34.5t-108 8.5q-62 0 -120 -9.5t-105 -20.5q-55 -13 -103 -31l20 139q38 17 87 31q42 12 101 22t134 10q121 0 199 -23.5t123 -76t62 -137t17 -205.5v-405zM471 1707h225l-240 -552h-72z" />
<glyph unicode="&#xe2;" horiz-adv-x="1080" d="M82 0zM570 453q-29 0 -64.5 -1.5t-71 -7.5t-68.5 -18t-58.5 -32t-41 -51.5t-15.5 -74.5q0 -77 49.5 -114t140.5 -37q63 0 114.5 13t88.5 30q43 19 78 44v243q-23 2 -49 3q-22 1 -49 1.5t-54 1.5zM906 206q0 -36 4.5 -55.5t17.5 -24.5q14 -6 38.5 -5t45.5 1l-13 -122 q-14 -5 -32 -9q-15 -4 -35.5 -6.5t-44.5 -2.5q-41 0 -69.5 14.5t-46.5 34.5t-26.5 47t-8.5 39q-27 -38 -75 -68q-41 -26 -107.5 -46.5t-166.5 -20.5q-68 0 -124.5 19.5t-96.5 57.5t-62 94t-22 122q0 90 39 147t103 89t146.5 44.5t169.5 12.5q35 0 68 -2.5t59 -4.5 q30 -5 55 -8v113q0 79 -12 128t-39.5 75t-71.5 34.5t-108 8.5q-62 0 -120 -9.5t-105 -20.5q-55 -13 -103 -31l20 139q38 17 87 31q42 12 101 22t134 10q121 0 199 -23.5t123 -76t62 -137t17 -205.5v-405zM444 1665h189l222 -493h-196l-115 367h-12l-112 -367h-195z" />
<glyph unicode="&#xe3;" horiz-adv-x="1080" d="M82 0zM570 453q-29 0 -64.5 -1.5t-71 -7.5t-68.5 -18t-58.5 -32t-41 -51.5t-15.5 -74.5q0 -77 49.5 -114t140.5 -37q63 0 114.5 13t88.5 30q43 19 78 44v243q-23 2 -49 3q-22 1 -49 1.5t-54 1.5zM906 206q0 -36 4.5 -55.5t17.5 -24.5q14 -6 38.5 -5t45.5 1l-13 -122 q-14 -5 -32 -9q-15 -4 -35.5 -6.5t-44.5 -2.5q-41 0 -69.5 14.5t-46.5 34.5t-26.5 47t-8.5 39q-27 -38 -75 -68q-41 -26 -107.5 -46.5t-166.5 -20.5q-68 0 -124.5 19.5t-96.5 57.5t-62 94t-22 122q0 90 39 147t103 89t146.5 44.5t169.5 12.5q35 0 68 -2.5t59 -4.5 q30 -5 55 -8v113q0 79 -12 128t-39.5 75t-71.5 34.5t-108 8.5q-62 0 -120 -9.5t-105 -20.5q-55 -13 -103 -31l20 139q38 17 87 31q42 12 101 22t134 10q121 0 199 -23.5t123 -76t62 -137t17 -205.5v-405zM389 1414q43 0 83.5 -17.5t77.5 -38t70 -38t62 -17.5q16 0 26.5 8.5 t15.5 22t7 31t2 36.5h131v-7q0 -65 -14.5 -107t-38.5 -66.5t-54.5 -34t-63.5 -9.5q-11 1 -20 1.5t-18 2.5q-39 8 -77 25t-71 34.5t-61 31t-47 13.5q-16 0 -26 -8t-16 -21.5t-8 -32t-2 -39.5h-132v14q0 64 15 105.5t39 66t55 34.5t65 10z" />
<glyph unicode="&#xe4;" horiz-adv-x="1080" d="M82 0zM570 453q-29 0 -64.5 -1.5t-71 -7.5t-68.5 -18t-58.5 -32t-41 -51.5t-15.5 -74.5q0 -77 49.5 -114t140.5 -37q63 0 114.5 13t88.5 30q43 19 78 44v243q-23 2 -49 3q-22 1 -49 1.5t-54 1.5zM906 206q0 -36 4.5 -55.5t17.5 -24.5q14 -6 38.5 -5t45.5 1l-13 -122 q-14 -5 -32 -9q-15 -4 -35.5 -6.5t-44.5 -2.5q-41 0 -69.5 14.5t-46.5 34.5t-26.5 47t-8.5 39q-27 -38 -75 -68q-41 -26 -107.5 -46.5t-166.5 -20.5q-68 0 -124.5 19.5t-96.5 57.5t-62 94t-22 122q0 90 39 147t103 89t146.5 44.5t169.5 12.5q35 0 68 -2.5t59 -4.5 q30 -5 55 -8v113q0 79 -12 128t-39.5 75t-71.5 34.5t-108 8.5q-62 0 -120 -9.5t-105 -20.5q-55 -13 -103 -31l20 139q38 17 87 31q42 12 101 22t134 10q121 0 199 -23.5t123 -76t62 -137t17 -205.5v-405zM438 1331v-167h-173v167h173zM814 1331v-167h-174v167h174z" />
<glyph unicode="&#xe5;" horiz-adv-x="1080" d="M82 0zM570 453q-29 0 -64.5 -1.5t-71 -7.5t-68.5 -18t-58.5 -32t-41 -51.5t-15.5 -74.5q0 -77 49.5 -114t140.5 -37q63 0 114.5 13t88.5 30q43 19 78 44v243q-23 2 -49 3q-22 1 -49 1.5t-54 1.5zM906 206q0 -36 4.5 -55.5t17.5 -24.5q14 -6 38.5 -5t45.5 1l-13 -122 q-14 -5 -32 -9q-15 -4 -35.5 -6.5t-44.5 -2.5q-41 0 -69.5 14.5t-46.5 34.5t-26.5 47t-8.5 39q-27 -38 -75 -68q-41 -26 -107.5 -46.5t-166.5 -20.5q-68 0 -124.5 19.5t-96.5 57.5t-62 94t-22 122q0 90 39 147t103 89t146.5 44.5t169.5 12.5q35 0 68 -2.5t59 -4.5 q30 -5 55 -8v113q0 79 -12 128t-39.5 75t-71.5 34.5t-108 8.5q-62 0 -120 -9.5t-105 -20.5q-55 -13 -103 -31l20 139q38 17 87 31q42 12 101 22t134 10q121 0 199 -23.5t123 -76t62 -137t17 -205.5v-405zM543 1102q-56 0 -102 16.5t-79.5 48t-52 77t-18.5 103.5 q0 56 18.5 100.5t52 75.5t79.5 47.5t102 16.5q54 0 99 -16.5t77.5 -47.5t51 -75.5t18.5 -100.5q0 -59 -18.5 -104.5t-51.5 -76.5t-78 -47.5t-98 -16.5zM543 1195q41 0 68.5 14.5t44 36.5t23 49t6.5 52q0 23 -6.5 49t-23 48t-43.5 36.5t-69 14.5q-50 0 -79.5 -15.5t-44.5 -38 t-19 -48.5t-4 -46q0 -24 7.5 -51t25 -49.5t45.5 -37t69 -14.5z" />
<glyph unicode="&#xe6;" horiz-adv-x="1648" d="M1486 20q-37 -13 -84 -24q-40 -9 -94 -16.5t-118 -7.5q-231 0 -348 144q-15 -15 -49.5 -39t-90.5 -47.5t-134.5 -40.5t-181.5 -17q-68 0 -124 19.5t-96 57t-62 93t-22 126.5q0 68 24 116.5t64 81.5t93 51.5t111 27.5t117.5 10.5t112.5 -0.5q21 -2 42 -3t38 -3 q19 -2 38 -3v105q0 66 -9 110.5t-28.5 72t-52 41t-78.5 17.5q-99 9 -198 -7t-193 -49l20 133q43 22 91 36.5t98 21.5t101 8t99 -3q109 -9 179 -54t89 -139q28 56 65 93.5t79.5 60.5t89.5 32.5t97 9.5q95 0 165.5 -30t118 -79.5t71.5 -113.5t26 -133q0 -21 -1.5 -48.5t-4 -54 t-5 -48.5t-4.5 -32h-623v-36q0 -89 17.5 -151t49 -102.5t75 -61.5t94.5 -28q55 -6 108 -3t100 10t86 15.5t66 14.5zM570 445q-53 0 -109.5 -4.5t-103 -22.5t-76.5 -55t-30 -102q0 -82 49.5 -118.5t140.5 -36.5q65 0 121.5 14.5t100 33t72 37t38.5 26.5q-10 23 -18 51.5 t-14.5 58t-10 59t-4.5 53.5q-26 1 -52 3q-23 1 -50.5 2t-53.5 1zM1176 898q-50 0 -94 -14.5t-78.5 -48.5t-57.5 -89.5t-29 -137.5h475q1 -1 1 15.5v32.5q-2 64 -18.5 109.5t-45.5 75t-68 43.5t-85 14z" />
<glyph unicode="&#xe7;" horiz-adv-x="935" d="M106 0zM106 506q0 102 17.5 182.5t48 140.5t72 100.5t90 66t102 36.5t107.5 11q66 0 120 -8.5t93 -19.5q46 -12 82 -28l15 -135q-39 14 -85 25q-39 9 -90 17t-108 8q-67 0 -118.5 -22t-86 -69.5t-52.5 -122.5t-18 -179q0 -99 18 -174t52.5 -122.5t86 -69t118.5 -21.5 q57 0 108.5 7.5t90.5 16.5q46 11 85 24l-16 -133q-36 -16 -81 -28q-38 -11 -91.5 -19t-117.5 -8q-83 0 -162 25.5t-141.5 87t-100.5 164t-38 247.5zM824 -340q0 -47 -16.5 -84t-46 -62.5t-68.5 -38.5t-84 -13q-40 0 -71.5 7.5t-54.5 16.5q-26 11 -46 24l-10 96 q29 -12 60 -22q26 -8 57 -14.5t60 -6.5q36 0 57 10.5t32.5 25t15 30t3.5 26.5q0 35 -19 55.5t-53.5 31.5t-83 16t-107.5 10q0 5 2 17.5t5 30t6.5 38t6.5 41.5q8 48 18 107h102q-9 -38 -17 -71q-7 -28 -12.5 -53t-7.5 -33q24 0 53.5 -2.5t60 -9.5t59 -20t50.5 -33.5t35.5 -50 t13.5 -69.5z" />
<glyph unicode="&#xe8;" horiz-adv-x="1030" d="M105 0zM556 906q-47 0 -90.5 -14.5t-78.5 -48.5t-58.5 -89.5t-29.5 -145.5h473q0 16 1 25q1 8 1 16v15q-2 64 -19 109.5t-46 75t-68 43.5t-85 14zM872 30q-36 -13 -80 -24q-38 -9 -89 -16.5t-112 -7.5q-242 0 -364 130t-122 389q0 145 34 245.5t94 166.5t142 98t177 32 q94 0 165 -30t118 -79.5t71.5 -113.5t26.5 -133q0 -21 -1.5 -52.5t-4 -58t-5 -48.5t-5.5 -32h-621v-36q0 -92 22 -159t62.5 -106.5t97.5 -56t126 -16.5q57 0 108.5 6.5t91.5 14.5q47 9 87 21zM661 1184h-73l-220 529l213 22z" />
<glyph unicode="&#xe9;" horiz-adv-x="1030" d="M105 0zM556 906q-47 0 -90.5 -14.5t-78.5 -48.5t-58.5 -89.5t-29.5 -145.5h473q0 16 1 25q1 8 1 16v15q-2 64 -19 109.5t-46 75t-68 43.5t-85 14zM872 30q-36 -13 -80 -24q-38 -9 -89 -16.5t-112 -7.5q-242 0 -364 130t-122 389q0 145 34 245.5t94 166.5t142 98t177 32 q94 0 165 -30t118 -79.5t71.5 -113.5t26.5 -133q0 -21 -1.5 -52.5t-4 -58t-5 -48.5t-5.5 -32h-621v-36q0 -92 22 -159t62.5 -106.5t97.5 -56t126 -16.5q57 0 108.5 6.5t91.5 14.5q47 9 87 21zM446 1707h225l-240 -552h-72z" />
<glyph unicode="&#xea;" horiz-adv-x="1030" d="M105 0zM556 906q-47 0 -90.5 -14.5t-78.5 -48.5t-58.5 -89.5t-29.5 -145.5h473q0 16 1 25q1 8 1 16v15q-2 64 -19 109.5t-46 75t-68 43.5t-85 14zM872 30q-36 -13 -80 -24q-38 -9 -89 -16.5t-112 -7.5q-242 0 -364 130t-122 389q0 145 34 245.5t94 166.5t142 98t177 32 q94 0 165 -30t118 -79.5t71.5 -113.5t26.5 -133q0 -21 -1.5 -52.5t-4 -58t-5 -48.5t-5.5 -32h-621v-36q0 -92 22 -159t62.5 -106.5t97.5 -56t126 -16.5q57 0 108.5 6.5t91.5 14.5q47 9 87 21zM419 1665h189l222 -493h-196l-115 367h-12l-112 -367h-195z" />
<glyph unicode="&#xeb;" horiz-adv-x="1030" d="M105 0zM556 906q-47 0 -90.5 -14.5t-78.5 -48.5t-58.5 -89.5t-29.5 -145.5h473q0 16 1 25q1 8 1 16v15q-2 64 -19 109.5t-46 75t-68 43.5t-85 14zM872 30q-36 -13 -80 -24q-38 -9 -89 -16.5t-112 -7.5q-242 0 -364 130t-122 389q0 145 34 245.5t94 166.5t142 98t177 32 q94 0 165 -30t118 -79.5t71.5 -113.5t26.5 -133q0 -21 -1.5 -52.5t-4 -58t-5 -48.5t-5.5 -32h-621v-36q0 -92 22 -159t62.5 -106.5t97.5 -56t126 -16.5q57 0 108.5 6.5t91.5 14.5q47 9 87 21zM413 1331v-167h-173v167h173zM789 1331v-167h-174v167h174z" />
<glyph unicode="&#xec;" horiz-adv-x="492" d="M99 0zM158 0v1021h176v-1021h-176zM392 1184h-73l-220 529l213 22z" />
<glyph unicode="&#xed;" horiz-adv-x="492" d="M90 0zM158 0v1021h176v-1021h-176zM177 1707h225l-240 -552h-72z" />
<glyph unicode="&#xee;" horiz-adv-x="492" d="M0 0zM158 0v1021h176v-1021h-176zM151 1665h189l222 -493h-196l-115 367h-12l-112 -367h-195z" />
<glyph unicode="&#xef;" horiz-adv-x="492" d="M0 0zM158 0v1021h176v-1021h-176zM146 1331v-167h-173v167h173zM522 1331v-167h-174v167h174z" />
<glyph unicode="&#xf0;" horiz-adv-x="1175" d="M580 947l-36 110l195 65q-18 37 -44 75.5t-54.5 73t-56 61.5t-49.5 40l164 -1q59 -42 105 -92.5t81 -108.5l201 70l36 -111l-178 -62q60 -121 87.5 -246t27.5 -254t-31 -236.5t-92 -185t-152 -120.5t-212 -43q-129 0 -222 37.5t-153 99.5t-89 143t-29 167 q0 85 23.5 158.5t74.5 127.5t132 85t196 31q72 0 134 -17t110 -38.5t79 -42.5t40 -30q-1 38 -6.5 79.5t-15.5 82.5t-24.5 80t-33.5 72zM519 693q-68 0 -117.5 -19t-81 -53.5t-46.5 -84t-15 -110.5q0 -154 78 -227.5t227 -73.5q85 0 142.5 31.5t93 85.5t51 126.5t15.5 154.5 v59q-50 30 -106 55q-48 21 -111 38.5t-130 17.5z" />
<glyph unicode="&#xf1;" horiz-adv-x="1156" d="M158 0zM158 1031l129 12l27 -121q24 18 59.5 39.5t81 39.5t101 30t118.5 12q79 0 140.5 -22.5t104.5 -72t65.5 -129.5t22.5 -195v-624h-185v584q0 82 -9 142t-30 99t-56.5 57.5t-88.5 18.5q-56 0 -108.5 -15t-94.5 -32q-48 -20 -92 -46v-808h-185v1031zM427 1414 q43 0 83.5 -17.5t77.5 -38t70 -38t62 -17.5q16 0 26.5 8.5t15.5 22t7 31t2 36.5h131v-7q0 -65 -14.5 -107t-38.5 -66.5t-54.5 -34t-63.5 -9.5q-11 1 -20 1.5t-18 2.5q-39 8 -77 25t-71 34.5t-61 31t-47 13.5q-16 0 -26 -8t-16 -21.5t-8 -32t-2 -39.5h-132v14q0 64 15 105.5 t39 66t55 34.5t65 10z" />
<glyph unicode="&#xf2;" horiz-adv-x="1119" d="M106 0zM560 1043q115 0 200.5 -38t141.5 -107.5t83.5 -167.5t27.5 -220q0 -116 -27.5 -214t-83.5 -167.5t-141.5 -108t-200.5 -38.5q-116 0 -201.5 38.5t-141.5 108t-83.5 167.5t-27.5 214q0 122 27.5 220t83.5 167.5t141.5 107.5t201.5 38zM560 122q75 0 126 28t82.5 80 t45 124.5t13.5 157.5q0 94 -14 166t-45.5 121.5t-82.5 75.5t-125 26q-75 0 -126 -26t-82.5 -75.5t-45 -121.5t-13.5 -166q0 -85 13.5 -157.5t45 -124.5t82.5 -80t126 -28zM706 1184h-73l-220 529l213 22z" />
<glyph unicode="&#xf3;" horiz-adv-x="1119" d="M106 0zM560 1043q115 0 200.5 -38t141.5 -107.5t83.5 -167.5t27.5 -220q0 -116 -27.5 -214t-83.5 -167.5t-141.5 -108t-200.5 -38.5q-116 0 -201.5 38.5t-141.5 108t-83.5 167.5t-27.5 214q0 122 27.5 220t83.5 167.5t141.5 107.5t201.5 38zM560 122q75 0 126 28t82.5 80 t45 124.5t13.5 157.5q0 94 -14 166t-45.5 121.5t-82.5 75.5t-125 26q-75 0 -126 -26t-82.5 -75.5t-45 -121.5t-13.5 -166q0 -85 13.5 -157.5t45 -124.5t82.5 -80t126 -28zM490 1707h225l-240 -552h-72z" />
<glyph unicode="&#xf4;" horiz-adv-x="1119" d="M106 0zM560 1043q115 0 200.5 -38t141.5 -107.5t83.5 -167.5t27.5 -220q0 -116 -27.5 -214t-83.5 -167.5t-141.5 -108t-200.5 -38.5q-116 0 -201.5 38.5t-141.5 108t-83.5 167.5t-27.5 214q0 122 27.5 220t83.5 167.5t141.5 107.5t201.5 38zM560 122q75 0 126 28t82.5 80 t45 124.5t13.5 157.5q0 94 -14 166t-45.5 121.5t-82.5 75.5t-125 26q-75 0 -126 -26t-82.5 -75.5t-45 -121.5t-13.5 -166q0 -85 13.5 -157.5t45 -124.5t82.5 -80t126 -28zM463 1665h189l222 -493h-196l-115 367h-12l-112 -367h-195z" />
<glyph unicode="&#xf5;" horiz-adv-x="1119" d="M106 0zM560 1043q115 0 200.5 -38t141.5 -107.5t83.5 -167.5t27.5 -220q0 -116 -27.5 -214t-83.5 -167.5t-141.5 -108t-200.5 -38.5q-116 0 -201.5 38.5t-141.5 108t-83.5 167.5t-27.5 214q0 122 27.5 220t83.5 167.5t141.5 107.5t201.5 38zM560 122q75 0 126 28t82.5 80 t45 124.5t13.5 157.5q0 94 -14 166t-45.5 121.5t-82.5 75.5t-125 26q-75 0 -126 -26t-82.5 -75.5t-45 -121.5t-13.5 -166q0 -85 13.5 -157.5t45 -124.5t82.5 -80t126 -28zM409 1414q43 0 83.5 -17.5t77.5 -38t70 -38t62 -17.5q16 0 26.5 8.5t15.5 22t7 31t2 36.5h131v-7 q0 -65 -14.5 -107t-38.5 -66.5t-54.5 -34t-63.5 -9.5q-11 1 -20 1.5t-18 2.5q-39 8 -77 25t-71 34.5t-61 31t-47 13.5q-16 0 -26 -8t-16 -21.5t-8 -32t-2 -39.5h-132v14q0 64 15 105.5t39 66t55 34.5t65 10z" />
<glyph unicode="&#xf6;" horiz-adv-x="1119" d="M106 0zM560 1043q115 0 200.5 -38t141.5 -107.5t83.5 -167.5t27.5 -220q0 -116 -27.5 -214t-83.5 -167.5t-141.5 -108t-200.5 -38.5q-116 0 -201.5 38.5t-141.5 108t-83.5 167.5t-27.5 214q0 122 27.5 220t83.5 167.5t141.5 107.5t201.5 38zM560 122q75 0 126 28t82.5 80 t45 124.5t13.5 157.5q0 94 -14 166t-45.5 121.5t-82.5 75.5t-125 26q-75 0 -126 -26t-82.5 -75.5t-45 -121.5t-13.5 -166q0 -85 13.5 -157.5t45 -124.5t82.5 -80t126 -28zM458 1331v-167h-173v167h173zM834 1331v-167h-174v167h174z" />
<glyph unicode="&#xf7;" horiz-adv-x="1022" d="M427 731v177h175v-177h-175zM127 521v120h769v-120h-769zM427 243v178h175v-178h-175z" />
<glyph unicode="&#xf8;" horiz-adv-x="1117" d="M559 1035q51 0 96.5 -8.5t84.5 -26.5l100 226l82 -43q-4 -8 -14 -29t-24 -51.5t-31 -67.5t-34 -75q98 -68 145.5 -187t47.5 -269q0 -113 -27.5 -210.5t-83.5 -169t-141 -112t-201 -40.5q-48 0 -89.5 7.5t-78.5 20.5q-32 -75 -55 -127t-31 -70l-85 40l90 195 q-52 34 -90.5 82.5t-64 108.5t-38 129.5t-12.5 145.5q0 114 27.5 211t83.5 168.5t141.5 111.5t201.5 40zM292 506q0 -98 21 -179.5t69 -134.5l299 676q-26 14 -56 21t-66 7q-75 0 -126 -28.5t-82.5 -80.5t-45 -123.5t-13.5 -157.5zM559 109q75 0 126 31t82.5 84.5t45 126 t13.5 155.5q0 94 -19.5 170t-62.5 127l-296 -672q47 -22 111 -22z" />
<glyph unicode="&#xf9;" horiz-adv-x="1155" d="M149 0zM998 0l-134 -11l-25 129q-39 -38 -93 -68q-46 -26 -111.5 -47t-150.5 -21q-174 0 -254.5 110.5t-80.5 345.5v593h184v-586q0 -87 9.5 -148.5t32 -100t60 -56.5t92.5 -18q63 0 115.5 14.5t90.5 32.5q45 21 80 48v814h185v-1031zM724 1184h-73l-220 529l213 22z" />
<glyph unicode="&#xfa;" horiz-adv-x="1155" d="M149 0zM998 0l-134 -11l-25 129q-39 -38 -93 -68q-46 -26 -111.5 -47t-150.5 -21q-174 0 -254.5 110.5t-80.5 345.5v593h184v-586q0 -87 9.5 -148.5t32 -100t60 -56.5t92.5 -18q63 0 115.5 14.5t90.5 32.5q45 21 80 48v814h185v-1031zM508 1707h225l-240 -552h-72z" />
<glyph unicode="&#xfb;" horiz-adv-x="1155" d="M149 0zM998 0l-134 -11l-25 129q-39 -38 -93 -68q-46 -26 -111.5 -47t-150.5 -21q-174 0 -254.5 110.5t-80.5 345.5v593h184v-586q0 -87 9.5 -148.5t32 -100t60 -56.5t92.5 -18q63 0 115.5 14.5t90.5 32.5q45 21 80 48v814h185v-1031zM481 1665h189l222 -493h-196 l-115 367h-12l-112 -367h-195z" />
<glyph unicode="&#xfc;" horiz-adv-x="1155" d="M149 0zM998 0l-134 -11l-25 129q-39 -38 -93 -68q-46 -26 -111.5 -47t-150.5 -21q-174 0 -254.5 110.5t-80.5 345.5v593h184v-586q0 -87 9.5 -148.5t32 -100t60 -56.5t92.5 -18q63 0 115.5 14.5t90.5 32.5q45 21 80 48v814h185v-1031zM476 1331v-167h-173v167h173z M852 1331v-167h-174v167h174z" />
<glyph unicode="&#xfd;" horiz-adv-x="978" d="M32 0zM491 136l247 895h196l-353 -1091q-29 -89 -53.5 -158t-54 -116t-68 -71t-94.5 -24q-62 0 -113 12t-88 27q-43 17 -78 39l13 126q40 -16 80 -27q35 -10 75.5 -18t78.5 -8q22 0 37 8.5t25.5 24t18 38.5t15.5 53l24 107l-356 1078h199zM455 1707h225l-240 -552h-72z " />
<glyph unicode="&#xfe;" horiz-adv-x="1137" d="M158 -340v1813l185 26v-541q36 24 82 43q39 17 92.5 30.5t119.5 13.5q79 0 150 -30.5t124.5 -95.5t85 -167t31.5 -245q0 -146 -36 -246.5t-94.5 -162.5t-132 -89t-149.5 -27q-68 0 -119 18t-86 41q-40 26 -70 60v-450zM343 217q30 -27 68 -48q32 -18 77.5 -32.5 t100.5 -14.5q52 0 98 20.5t80.5 66t55 118t20.5 176.5q0 191 -60 295.5t-182 104.5q-55 0 -101.5 -12.5t-81.5 -27.5q-40 -18 -75 -39v-607z" />
<glyph unicode="&#xff;" horiz-adv-x="979" d="M32 0zM491 136l247 895h196l-353 -1091q-29 -89 -53.5 -158t-54 -116t-68 -71t-94.5 -24q-62 0 -113 12t-88 27q-43 17 -78 39l13 126q40 -16 80 -27q35 -10 75.5 -18t78.5 -8q22 0 37 8.5t25.5 24t18 38.5t15.5 53l24 107l-356 1078h199zM388 1331v-167h-173v167h173z M764 1331v-167h-174v167h174z" />
<glyph unicode="&#x131;" horiz-adv-x="492" d="M158 0v1021h176v-1021h-176z" />
<glyph unicode="&#x152;" horiz-adv-x="1986" d="M118 724q0 212 45.5 350.5t123.5 225.5t181.5 125.5t220.5 38.5q59 0 107 -9t86.5 -25t68 -35.5t51.5 -40.5q51 -49 76 -111v194h798v-145h-613v-466h530v-145h-530v-535h623v-146h-808v216q-26 -78 -77 -117q-22 -22 -51.5 -43t-68 -37.5t-86.5 -26.5t-106 -10 q-117 0 -221 39t-182 126.5t-123 228t-45 348.5zM316 724q0 -172 27 -285t76 -182t117.5 -98t152.5 -29q85 0 154.5 29t118.5 98t75.5 182t26.5 285q0 178 -26.5 289t-75.5 179t-118.5 96.5t-154.5 28.5q-84 0 -152.5 -28.5t-117.5 -96.5t-76 -179t-27 -289z" />
<glyph unicode="&#x153;" horiz-adv-x="1722" d="M106 0zM1277 906q-47 0 -90.5 -14.5t-78.5 -48.5t-58.5 -89.5t-29.5 -145.5h473q0 16 1 25q1 8 1 16v15q-2 64 -19 109.5t-46 75t-68 43.5t-85 14zM1593 30q-36 -13 -80 -24q-38 -9 -89 -16.5t-112 -7.5q-242 0 -364 130t-122 389q0 145 34 245.5t94 166.5t142 98t177 32 q94 0 165 -30t118 -79.5t71.5 -113.5t26.5 -133q0 -21 -1.5 -52.5t-4 -58t-5 -48.5t-5.5 -32h-621v-36q0 -92 22 -159t62.5 -106.5t97.5 -56t126 -16.5q57 0 108.5 6.5t91.5 14.5q47 9 87 21zM560 1043q115 0 200.5 -38t141.5 -107.5t83.5 -167.5t27.5 -220 q0 -116 -27.5 -214t-83.5 -167.5t-141.5 -108t-200.5 -38.5q-116 0 -201.5 38.5t-141.5 108t-83.5 167.5t-27.5 214q0 122 27.5 220t83.5 167.5t141.5 107.5t201.5 38zM560 122q75 0 126 28t82.5 80t45 124.5t13.5 157.5q0 94 -14 166t-45.5 121.5t-82.5 75.5t-125 26 q-75 0 -126 -26t-82.5 -75.5t-45 -121.5t-13.5 -166q0 -85 13.5 -157.5t45 -124.5t82.5 -80t126 -28z" />
<glyph unicode="&#x178;" horiz-adv-x="1133" d="M27 0zM899 1437h208l-440 -987v-450h-202v449l-438 988h210l230 -566l98 -262h7l94 262zM465 1737v-167h-173v167h173zM841 1737v-167h-174v167h174z" />
<glyph unicode="&#x2c6;" horiz-adv-x="754" d="M281 1665h189l222 -493h-196l-115 367h-12l-112 -367h-195z" />
<glyph unicode="&#x2da;" horiz-adv-x="579" d="M299 1102q-56 0 -102 16.5t-79.5 48t-52 77t-18.5 103.5q0 56 18.5 100.5t52 75.5t79.5 47.5t102 16.5q54 0 99 -16.5t77.5 -47.5t51 -75.5t18.5 -100.5q0 -59 -18.5 -104.5t-51.5 -76.5t-78 -47.5t-98 -16.5zM299 1195q41 0 68.5 14.5t44 36.5t23 49t6.5 52 q0 23 -6.5 49t-23 48t-43.5 36.5t-69 14.5q-50 0 -79.5 -15.5t-44.5 -38t-19 -48.5t-4 -46q0 -24 7.5 -51t25 -49.5t45.5 -37t69 -14.5z" />
<glyph unicode="&#x2dc;" horiz-adv-x="893" d="M297 1414q43 0 83.5 -17.5t77.5 -38t70 -38t62 -17.5q16 0 26.5 8.5t15.5 22t7 31t2 36.5h131v-7q0 -65 -14.5 -107t-38.5 -66.5t-54.5 -34t-63.5 -9.5q-11 1 -20 1.5t-18 2.5q-39 8 -77 25t-71 34.5t-61 31t-47 13.5q-16 0 -26 -8t-16 -21.5t-8 -32t-2 -39.5h-132v14 q0 64 15 105.5t39 66t55 34.5t65 10z" />
<glyph unicode="&#x2000;" horiz-adv-x="1070" />
<glyph unicode="&#x2001;" horiz-adv-x="2141" />
<glyph unicode="&#x2002;" horiz-adv-x="1070" />
<glyph unicode="&#x2003;" horiz-adv-x="2141" />
<glyph unicode="&#x2004;" horiz-adv-x="713" />
<glyph unicode="&#x2005;" horiz-adv-x="535" />
<glyph unicode="&#x2006;" horiz-adv-x="356" />
<glyph unicode="&#x2007;" horiz-adv-x="356" />
<glyph unicode="&#x2008;" horiz-adv-x="267" />
<glyph unicode="&#x2009;" horiz-adv-x="428" />
<glyph unicode="&#x200a;" horiz-adv-x="118" />
<glyph unicode="&#x2010;" horiz-adv-x="805" d="M146 448v130h513v-130h-513z" />
<glyph unicode="&#x2011;" horiz-adv-x="805" d="M146 448v130h513v-130h-513z" />
<glyph unicode="&#x2012;" horiz-adv-x="805" d="M146 448v130h513v-130h-513z" />
<glyph unicode="&#x2013;" horiz-adv-x="1046" d="M135 758v145h774v-145h-774z" />
<glyph unicode="&#x2014;" horiz-adv-x="1235" d="M134 704v140h966v-140h-966z" />
<glyph unicode="&#x2018;" horiz-adv-x="471" d="M359 1134l-228 -16q-3 26 -6 54q-2 24 -4 55t-2 63q0 108 50.5 174.5t166.5 101.5l28 -80q-35 -5 -61.5 -19.5t-43.5 -35t-25.5 -44.5t-8.5 -48h134v-205z" />
<glyph unicode="&#x2019;" horiz-adv-x="441" d="M117 1537l228 16q3 -26 6 -54q2 -24 4 -55t2 -63q0 -109 -50.5 -175.5t-166.5 -101.5l-28 81q35 5 61 19.5t43 35t25.5 45t8.5 48.5h-133v204z" />
<glyph unicode="&#x201a;" horiz-adv-x="481" d="M338 205q3 -20 6 -45q2 -21 4 -49.5t2 -63.5q0 -118 -48.5 -177t-150.5 -68q0 1 -3 10.5t-6 20.5t-5.5 20.5t-2.5 10.5q38 6 61.5 18t36.5 28.5t17.5 38t4.5 48.5h-121v198z" />
<glyph unicode="&#x201c;" horiz-adv-x="824" d="M712 1129l-228 -16q-3 25 -6 54q-2 24 -3.5 55.5t-1.5 63.5q0 108 51 174.5t167 101.5l26 -81q-35 -5 -60.5 -20t-42 -35t-25 -44t-8.5 -48h131v-205zM361 1129l-228 -16q-3 25 -6 54q-2 24 -4 55.5t-2 63.5q0 108 50.5 174.5t166.5 101.5l28 -81q-35 -5 -61.5 -20 t-43.5 -35t-25.5 -44t-8.5 -48h134v-205z" />
<glyph unicode="&#x201d;" horiz-adv-x="792" d="M470 1542l228 15q2 -26 5 -54q2 -24 4 -54.5t2 -62.5q0 -109 -50.5 -175.5t-166.5 -101.5l-27 81q35 5 61 19.5t43 34.5t25.5 44.5t8.5 48.5h-133v205zM116 1542l229 15q2 -26 5 -54q2 -24 3.5 -54.5t1.5 -62.5q0 -109 -50.5 -175.5t-166.5 -101.5l-27 81q35 5 60.5 19.5 t42.5 35t25 44.5t8 48h-131v205z" />
<glyph unicode="&#x201e;" horiz-adv-x="772" d="M631 205q2 -20 5 -45q2 -21 3.5 -49t1.5 -61q0 -113 -46.5 -176t-151.5 -72q0 1 -3 10.5t-6 20.5t-6 20.5t-3 10.5q39 6 62.5 18t36.5 29t17 38.5t4 47.5h-119v198zM338 205q3 -20 6 -45q2 -21 4 -49t2 -61q0 -113 -47 -176t-152 -72q0 1 -3 10.5t-6 20.5t-6 20.5 t-3 10.5q39 6 62.5 18t36 29t17 38.5t4.5 47.5h-120v198z" />
<glyph unicode="&#x2022;" horiz-adv-x="926" d="M811 607q0 -86 -31 -150t-81 -107t-112 -64.5t-123 -21.5q-80 0 -144 27.5t-109.5 74.5t-70 109t-24.5 130q0 72 26 134.5t72.5 109t110.5 73.5t139 27t138.5 -27.5t110 -74t72.5 -109t26 -131.5z" />
<glyph unicode="&#x2026;" horiz-adv-x="1187" d="M688 185v-189h-193v189h193zM1053 185v-189h-193v189h193zM324 185v-189h-190v189h190z" />
<glyph unicode="&#x202f;" horiz-adv-x="428" />
<glyph unicode="&#x2039;" horiz-adv-x="709" d="M603 189l-74 -113l-472 476l472 474l75 -112l-362 -362z" />
<glyph unicode="&#x203a;" horiz-adv-x="710" d="M105 914l76 112l471 -474l-471 -476l-75 113l361 363z" />
<glyph unicode="&#x2044;" horiz-adv-x="832" d="M827 1381l-681 -1368l-139 54l679 1365z" />
<glyph unicode="&#x205f;" horiz-adv-x="535" />
<glyph unicode="&#x2074;" horiz-adv-x="935" d="M469 963l236 -7v-621h160v-120h-160v-215l-157 -6v221h-460l-43 105zM548 335v278l4 240l-156 -252l-174 -269l186 3h140z" />
<glyph unicode="&#x20ac;" horiz-adv-x="1279" d="M80 890h124q19 151 70 255.5t127.5 169t174 93t210.5 28.5q81 0 150.5 -9.5t120.5 -20.5q60 -13 108 -29l15 -151q-50 17 -110 31q-51 11 -118.5 21t-144.5 10q-82 0 -150 -21t-119.5 -68.5t-86 -123t-48.5 -185.5h296v-128h-308v-44v-35t1 -34h309v-128h-295 q13 -108 44 -184t78.5 -124t112.5 -70t147 -22t153 10.5t125 24.5q62 15 114 35l-16 -152q-49 -19 -111 -34q-53 -13 -126 -23t-161 -10q-105 0 -198.5 26t-167 89.5t-123.5 169t-70 264.5h-126v128h113q-1 17 -1.5 33.5t-0.5 33.5v23t1 23h-113v128z" />
<glyph unicode="&#x2122;" horiz-adv-x="1169" d="M345 1330v-433h-97v433h-132v75h362v-75h-133zM928 897v275l12 196l-40 -182q-19 -71 -37.5 -140t-38.5 -141h-96q-33 114 -61 228t-53 230l12 -191v-45v-230h-89v508h140q15 -62 31.5 -122.5t30.5 -123.5l38 -173l37 198q3 9 6 19l6 20l51 182h140v-508h-89z" />
<glyph unicode="&#xe000;" horiz-adv-x="1030" d="M0 1030h1030v-1030h-1030v1030z" />
<glyph unicode="&#xfb01;" horiz-adv-x="1102" d="M760 0v917h-349v-917h-183v917h-176v104h177v47q2 106 19.5 182.5t52 125.5t88 72t127.5 23q43 0 77.5 -6t58.5 -14q28 -9 50 -19l8 -120q-21 7 -44 13q-20 5 -45.5 9t-51.5 4q-45 0 -75.5 -9.5t-48.5 -34.5t-26 -70t-8 -115v-88h533v-1021h-184zM947 1369v-182h-192v182 h192z" />
<glyph unicode="&#xfb02;" horiz-adv-x="1213" d="M53 0zM870 1419l184 18v-1437h-184v1419zM229 0v927h-176v104h177v3q2 106 19 182.5t51.5 125.5t88 72t127.5 23q45 0 81.5 -6t62.5 -14q30 -9 53 -19l14 -120q-24 7 -50 13q-23 5 -51 9t-57 4q-45 0 -75 -9.5t-48 -34.5t-26 -70t-8 -115v-44h273v-104h-273v-927h-183z " />
<glyph horiz-adv-x="1213" d="M0 0z" />
</font>
</defs>
</svg>
