<?xml version="1.0" standalone="no"?>
<!DOCTYPE svg PUBLIC "-//W3C//DTD SVG 1.1//EN" "http://www.w3.org/Graphics/SVG/1.1/DTD/svg11.dtd" >
<svg xmlns="http://www.w3.org/2000/svg">
<metadata></metadata>
<defs>
<font id="walkway_oblique_ultraboldRg" horiz-adv-x="525" >
<font-face units-per-em="1000" ascent="800" descent="-200" />
<missing-glyph horiz-adv-x="354" />
<glyph horiz-adv-x="1000" />
<glyph horiz-adv-x="1000" />
<glyph unicode="&#xd;" horiz-adv-x="354" />
<glyph unicode=" "  horiz-adv-x="354" />
<glyph unicode="&#x09;" horiz-adv-x="354" />
<glyph unicode="&#xa0;" horiz-adv-x="354" />
<glyph unicode="!" horiz-adv-x="194" d="M99 162l110 516h66l-110 -516h-66zM97 0q-27 0 -27 22q0 5 1 10l13 61q6 31 39 31q28 0 28 -22q0 -4 -1 -9l-13 -61q-7 -32 -40 -32z" />
<glyph unicode="&#x22;" horiz-adv-x="292" d="M319 547q-33 0 -27 27l15 72q6 26 39 26t27 -26l-15 -72q-6 -27 -39 -27zM203 547q-32 0 -26 27l15 72q6 26 38 26q34 0 28 -26l-15 -72q-6 -27 -40 -27z" />
<glyph unicode="#" horiz-adv-x="531" d="M539 341h-90l-25 -53h88l-26 -58h-89l-34 -69h-68l34 69h-73l-34 -69h-68l34 69h-88l26 58h89l26 53h-91l31 58h88l33 69h68l-33 -69h73l32 69h67l-32 -69h89zM309 341l-26 -53h73l25 53h-72z" />
<glyph unicode="$" horiz-adv-x="642" d="M421 -10l-13 -60h-66l11 52q-14 -1 -27 -1q-28 0 -53 3l-12 -54h-66l14 63q-155 40 -155 172q1 26 7 56l7 31h66l-6 -27q-5 -24 -5 -45q0 -93 99 -123l60 282q-143 38 -141 139q0 15 3 32q31 143 212 179l14 64h66l-12 -57q17 1 35 1q24 0 46 -1l12 57h66l-14 -67 q137 -34 137 -165q0 -29 -6 -62h-65q3 21 3 40q0 96 -83 124l-55 -263q74 -20 108 -44q50 -36 50 -99q0 -20 -5 -43q-16 -74 -88 -125q-61 -43 -144 -59zM492 634q-22 2 -46 2q-19 0 -35 -1l-52 -246l77 -15zM343 624q-114 -28 -133 -114q-2 -10 -2 -20q1 -59 88 -86z M583 244q-21 27 -97 51l-52 -242q133 29 154 124q10 48 -5 67zM423 310l-78 15l-59 -280q25 -2 54 -2h26z" />
<glyph unicode="%" horiz-adv-x="750" d="M556 -19q-125 0 -125 118q0 29 8 66q40 188 197 188q124 0 124 -119q0 -31 -8 -69q-39 -184 -196 -184zM170 -1h-81l653 679h80zM251 288q-123 0 -124 116q0 29 8 67q40 187 196 187q126 0 125 -120q0 -30 -8 -67q-39 -183 -197 -183zM622 292q-89 0 -116 -127 q-6 -28 -6 -49q0 -74 70 -74q89 0 115 123q6 29 6 52q0 75 -69 75zM317 597q-88 0 -115 -126q-6 -28 -6 -49q0 -74 69 -74q90 0 116 123q6 29 6 51q0 75 -70 75z" />
<glyph unicode="&#x26;" horiz-adv-x="603" d="M475 -19l22 102q-105 -99 -233 -99q-79 0 -138 32q-72 39 -72 111q0 16 4 33q26 122 243 222q-76 49 -76 123q0 16 4 34q14 67 76 105q56 34 128 34q61 0 101 -24q50 -29 50 -85q0 -15 -4 -32q-21 -98 -237 -199q-106 -49 -142 -76q-79 -58 -79 -121q0 -49 53 -75 q42 -21 96 -21q125 0 205 102q47 59 64 142h66l-65 -308h-66zM496 597q-27 20 -74 20q-44 0 -78 -18q-41 -22 -50 -61q-2 -11 -2 -22q0 -63 82 -102q142 70 142 140q0 27 -20 43z" />
<glyph unicode="'" horiz-adv-x="175" d="M203 547q-32 0 -26 27l15 72q6 26 38 26q34 0 28 -26l-15 -72q-6 -27 -40 -27z" />
<glyph unicode="(" horiz-adv-x="233" d="M146 -168q-57 127 -57 274q0 84 20 177q54 251 229 451h75q-186 -209 -238 -451q-18 -84 -18 -163q0 -151 64 -288h-75z" />
<glyph unicode=")" horiz-adv-x="233" d="M10 -168h-75q192 209 243 451q17 81 17 158q0 154 -68 293h75q62 -126 62 -276q0 -84 -20 -175q-54 -253 -234 -451z" />
<glyph unicode="*" horiz-adv-x="340" d="M397 575l-45 -18q12 -5 33.5 -16t17.5 -27q-5 -27 -36 -27q-12 0 -64 25l-9 -40q-6 -29 -39 -29t-27 29l9 40q-63 -25 -75 -25q-31 0 -26 27q4 16 31 28q7 3 41 16q-12 5 -34.5 15.5t-18.5 27.5q1 7 8 15q13 12 29 12q10 0 64 -25l9 40q6 29 39 29t27 -29l-9 -40l56 22 q7 3 16 3q17 0 26 -12q3 -8 2 -16q-4 -17 -25 -25z" />
<glyph unicode="+" horiz-adv-x="560" d="M360 222l-33 -155h-66l33 155h-191l13 59h191l32 152h66l-32 -152h192l-13 -59h-192z" />
<glyph unicode="," horiz-adv-x="262" d="M128 -70q-11 -20 -38 -20q-32 0 -27 25q1 4 4 10l68 121q11 20 35 20q34 0 29 -26q-1 -4 -3 -9z" />
<glyph unicode="-" horiz-adv-x="350" d="M83 254l4 20h302l-4 -20h-302z" />
<glyph unicode="." horiz-adv-x="209" d="M105 -2q-33 0 -29 23l9 41q5 23 38 23t28 -23l-9 -41q-4 -23 -37 -23z" />
<glyph unicode="/" horiz-adv-x="350" d="M37 0h-71l504 694h71z" />
<glyph unicode="0" horiz-adv-x="584" d="M500 60q-59 -49 -106 -63q-31 -9 -104 -9q-97 0 -156 49q-63 51 -63 146q0 30 8 65l34 162q25 118 113.5 189.5t209.5 71.5q97 0 155 -48q62 -51 62 -145q0 -32 -8 -68l-34 -162q-25 -116 -111 -188zM579 410q6 28 6 52q1 72 -46 111q-43 37 -117 37q-93 0 -158 -54 t-85 -146l-34 -162q-6 -27 -6 -51q-1 -72 46 -111q43 -37 117 -37q93 0 158 54t85 145z" />
<glyph unicode="1" horiz-adv-x="413" d="M267 0l117 552l-144 -96h-103l281 190h52l-137 -646h-66z" />
<glyph unicode="2" horiz-adv-x="584" d="M35 0q44 197 276 315q40 19 158 78q103 52 103 118q0 85 -142 85q-100 0 -154.5 -45.5t-75.5 -144.5h-66q54 251 303 251q82 0 133 -25q69 -34 69 -107q0 -18 -5 -39q-18 -88 -207 -179q-93 -45 -134 -67q-139 -88 -174 -179h456l-13 -61h-527z" />
<glyph unicode="3" horiz-adv-x="584" d="M295 -11q-99 0 -160 36q-76 45 -76 136q0 25 6 54l6 31h66l-9 -44q-4 -17 -4 -32q0 -65 61 -96q48 -24 119 -24q81 0 143 29q76 36 91 106q4 17 4 32q-1 98 -163 98h-68l13 61h69q172 0 196 113q2 10 2 20q0 49 -58 71q-41 16 -100 16q-102 0 -158 -40q-61 -43 -81 -139 h-66q51 240 315 240q84 0 140 -25q76 -34 76 -107q0 -17 -4 -36q-22 -101 -121 -142q74 -36 75 -116q0 -22 -6 -46q-21 -99 -120 -152q-82 -44 -188 -44z" />
<glyph unicode="4" horiz-adv-x="584" d="M487 210l-45 -210h-66l45 210h-380l324 437h72l-279 -376h276l80 377l65 -3l-79 -374h129l-13 -61h-129z" />
<glyph unicode="5" horiz-adv-x="584" d="M286 -11q-228 0 -228 171q0 35 9 76h66q-7 -33 -7 -60q0 -126 174 -126q89 0 152 41q68 45 86 129q4 21 4 39q0 69 -57 103q-47 29 -121 29q-120 0 -202 -93h-62l90 348h474l-13 -61h-408l-48 -187q79 54 186 54q94 0 157 -41q72 -48 72 -138q0 -24 -6 -52 q-23 -110 -116 -173q-86 -59 -202 -59z" />
<glyph unicode="6" horiz-adv-x="584" d="M568 416q7 30 7 54q0 64 -46 97q-41 28 -109 28q-81 0 -139 -39q-64 -42 -80 -118l-16 -75q79 59 196 59q87 0 144 -38q66 -45 66 -127q0 -24 -6 -50q-22 -102 -108 -160q-80 -53 -189 -53q-88 0 -144 37q-66 44 -66 126q0 24 6 50l2 11l3 7l46 216q21 102 109 159 q81 53 190 53q90 0 145 -40q62 -44 62 -130q0 -31 -8 -67h-65zM367 364q-81 0 -139 -39q-63 -41 -79 -118q-4 -20 -4 -38q0 -61 49 -92q42 -26 107 -26q81 0 139 38q64 42 80 118q4 20 4 37q0 62 -49 93q-42 27 -108 27z" />
<glyph unicode="7" horiz-adv-x="584" d="M226 0h-71l430 585h-417l13 61h519z" />
<glyph unicode="8" horiz-adv-x="601" d="M299 -11q-97 0 -160 30q-83 41 -83 127q0 21 5 45q25 120 157 165q-64 36 -64 97q0 13 3 28q20 94 107 139q71 37 177 37q84 0 140 -26q74 -36 74 -111q0 -18 -5 -39q-17 -81 -115 -125q92 -37 92 -124q0 -20 -5 -43q-22 -105 -122 -157q-83 -43 -201 -43zM428 596 q-180 0 -205 -116q-2 -7 -2 -14q0 -45 63 -67q45 -17 99 -17q64 0 119 21q72 28 82 79q3 13 3 25q0 89 -159 89zM370 321q-216 0 -244 -131q-3 -15 -3 -29q0 -111 189 -111q215 0 244 140q4 15 4 28q0 103 -190 103z" />
<glyph unicode="9" horiz-adv-x="584" d="M636 431l-50 -234q-22 -102 -110 -159q-82 -53 -190 -53q-91 0 -145 38q-62 44 -62 130q0 31 8 67h65q-7 -31 -7 -56q0 -122 154 -122q80 0 139 39q64 43 80 118l20 94q-78 -59 -195 -59q-88 0 -144 37q-65 44 -65 127q0 23 5 50q22 102 108 160q80 54 189 54 q86 0 144 -38q66 -45 66 -127q0 -23 -6 -49l-2 -12zM423 605q-82 0 -140 -38q-62 -42 -79 -119q-4 -21 -4 -39q0 -61 49 -92q42 -26 107 -26q82 0 140 39q63 41 79 118q4 19 4 36q0 62 -49 94q-42 27 -107 27z" />
<glyph unicode=":" horiz-adv-x="244" d="M196 344q-27 0 -27 22q0 4 1 9l12 59q7 31 40 31q31 0 25 -30l-11 -60q-6 -31 -40 -31zM123 -2q-28 0 -28 22q0 4 1 9l13 59q6 31 39 31q32 0 26 -30l-12 -60q-6 -31 -39 -31z" />
<glyph unicode=";" horiz-adv-x="251" d="M216 342q-28 0 -28 22q0 4 1 9l13 60q7 32 40 32q27 0 27 -22q0 -5 -1 -10l-13 -60q-6 -31 -39 -31zM123 -67q-12 -24 -37 -24q-29 0 -29 21q0 8 4 19l74 143q11 23 35 23q34 0 28 -29q-1 -5 -3 -10z" />
<glyph unicode="&#x3c;" horiz-adv-x="535" d="M72 216l10 49l513 176l-13 -62l-403 -139l343 -139l-13 -62z" />
<glyph unicode="=" horiz-adv-x="630" d="M84 262l11 51h575l-11 -51h-575zM63 167l11 51h575l-11 -51h-575z" />
<glyph unicode="&#x3e;" horiz-adv-x="535" d="M34 39l13 62l402 139l-342 139l13 62l437 -176l-10 -49z" />
<glyph unicode="?" d="M461 352q-113 -75 -128 -146l-10 -44h-67l9 39q21 101 145 184q59 40 78 58q41 38 50 81q3 12 3 22q0 47 -51 70q-37 17 -91 17q-92 0 -143.5 -42.5t-80.5 -132.5l-54 34q71 202 292 202q76 0 129 -29q66 -36 66 -106q0 -17 -4 -35q-19 -89 -143 -172zM254 0 q-26 0 -26 22q0 4 1 10l13 61q6 31 38 31q29 0 29 -22q0 -4 -1 -9l-13 -61q-7 -32 -41 -32z" />
<glyph unicode="@" horiz-adv-x="840" d="M779 213q-31 -31 -72 -53q-47 -25 -84 -25q-44 0 -44 38q0 6 2 14q-83 -66 -188 -66q-107 -1 -145 71q-17 31 -17 70q0 21 5 45q25 116 110 189t202 74q108 1 145 -61l21 61h64l-131 -374q-4 0 -6 2h2q19 0 51 22q28 18 45 37q86 97 86 188q0 93 -82 145q-70 45 -168 45 q-142 0 -252 -78q-116 -81 -145 -217q-7 -34 -7 -65q0 -90 63 -150q78 -76 215 -76q89 0 176 37q91 39 146 105h76q-73 -94 -180.5 -148t-224.5 -54q-167 0 -263 93q-77 75 -77 186q0 36 8 77q34 158 174 257q133 93 300 93q123 0 209 -55q100 -64 100 -181q0 -30 -7 -63 q-21 -98 -107 -183zM530 512q-85 -1 -149 -59t-82 -143q-4 -20 -4 -37q0 -95 112 -94q76 1 140 49.5t90 121.5q14 36 14 71q0 92 -121 91z" />
<glyph unicode="A" horiz-adv-x="636" d="M593 0l-53 209h-353l-143 -209h-74l470 678h56l170 -678h-73zM447 581l-217 -311h295z" />
<glyph unicode="B" horiz-adv-x="642" d="M359 0h-332l144 678h345q81 0 134 -29q66 -37 66 -112q0 -19 -5 -41q-19 -90 -126 -139q89 -34 89 -121q0 -20 -5 -44q-21 -100 -118 -150q-80 -42 -192 -42zM501 617h-277l-50 -234h276q70 0 121 25q62 32 75 93q3 13 3 25q0 50 -52 73q-38 18 -96 18zM435 322h-274 l-55 -261h278q79 0 135 27q70 34 85 103q6 30 0 53q-21 78 -169 78z" />
<glyph unicode="C" horiz-adv-x="719" d="M753 514q-54 110 -218 110q-139 0 -238 -75q-102 -77 -130 -211q-9 -39 -9 -74q0 -105 71 -160q64 -50 173 -50q158 0 269 112l48 -35q-137 -138 -328 -138q-167 0 -246 93q-55 64 -55 161q0 41 10 87q35 164 158 258q120 93 290 93q199 0 269 -136z" />
<glyph unicode="D" horiz-adv-x="680" d="M277 0h-242l144 678h280q130 0 203 -56q81 -61 81 -185q0 -45 -11 -99q-35 -165 -162 -254q-119 -84 -293 -84zM558 608q-30 9 -113 9h-213l-118 -556h179q147 0 242 67q101 71 131 210q10 48 10 87q0 74 -36 122t-82 61z" />
<glyph unicode="E" horiz-adv-x="564" d="M35 0l144 678h531l-13 -61h-466l-50 -234h413l-12 -60h-413l-56 -262h471l-13 -61h-536z" />
<glyph unicode="F" horiz-adv-x="505" d="M231 617l-50 -234h368l-12 -60h-368l-69 -323h-65l144 678h495l-13 -61h-430z" />
<glyph unicode="G" horiz-adv-x="758" d="M628 56q-107 -63 -238 -63q-138 0 -221 58q-96 66 -96 196q0 42 11 90q34 164 157 257q119 91 289 91q285 0 287 -248h-68q-3 103 -67 148q-56 39 -164 39q-142 0 -239 -74q-100 -76 -129 -212q-9 -41 -9 -76q0 -108 79 -162q68 -46 182 -46q111 0 199 53q99 60 121 161 l2 10h-291l13 61h353q-3 -40 -8 -60q-31 -145 -163 -223z" />
<glyph unicode="H" horiz-adv-x="680" d="M580 0l69 323h-479l-69 -323h-66l144 678h66l-63 -295h479l63 295h66l-144 -678h-66z" />
<glyph unicode="I" horiz-adv-x="134" d="M35 0l144 678h66l-144 -678h-66z" />
<glyph unicode="J" horiz-adv-x="486" d="M222 -7q-190 0 -191 155q0 15 2 31h67q-2 -14 -2 -27q0 -57 39 -80q30 -18 93 -18q89 0 133 33t62 118l100 473h66l-102 -479q-43 -206 -267 -206z" />
<glyph unicode="K" horiz-adv-x="670" d="M613 0l-302 347l-158 -102l-52 -245h-66l144 678h66l-76 -356l564 356h107l-467 -294l333 -384h-93z" />
<glyph unicode="L" horiz-adv-x="505" d="M35 0l144 678h66l-131 -617h428l-13 -61h-494z" />
<glyph unicode="M" horiz-adv-x="819" d="M718 0l116 546l-399 -546h-51l-167 546l-116 -546h-66l144 678h70l179 -587l430 587h70l-144 -678h-66z" />
<glyph unicode="N" horiz-adv-x="680" d="M581 0l-358 575l-122 -575h-66l144 678h64q63 -107 180 -289q128 -199 179 -284l122 573h66l-144 -678h-65z" />
<glyph unicode="O" horiz-adv-x="757" d="M666 86q-81 -64 -146 -81q-43 -12 -142 -12q-135 0 -215 59q-88 66 -88 194q0 43 10 93q35 162 154 251q115 85 283 85q135 0 215 -56q92 -65 92 -192q0 -41 -10 -88q-34 -160 -153 -253zM625 605q-32 9 -115 9q-140 0 -233 -69q-97 -72 -126 -206q-9 -42 -9 -78 q1 -105 74 -159q65 -48 174 -48q141 0 237.5 74.5t125.5 210.5q9 41 9 76q-1 78 -45 127.5t-92 62.5z" />
<glyph unicode="P" horiz-adv-x="621" d="M407 289h-245l-61 -289h-66l144 678h322q220 0 219 -147q0 -23 -6 -50q-21 -98 -116 -149q-81 -43 -191 -43zM494 617h-262l-57 -267h263q73 0 129 30q66 35 80 100q4 19 4 35q0 102 -157 102z" />
<glyph unicode="Q" horiz-adv-x="757" d="M519 10q23 -15 59 -15h115l-13 -61h-115q-86 0 -125 60q-30 -4 -63 -4q-135 0 -214 59q-89 67 -89 195q0 43 11 93q34 162 154 252q115 86 283 86q135 0 215 -57q92 -65 92 -193q0 -40 -10 -88q-26 -120 -104.5 -206.5t-195.5 -120.5zM625 605q-32 9 -115 9 q-140 0 -234 -70q-97 -72 -125 -207q-9 -40 -9 -75q0 -67 31 -115q29 40 76.5 63.5t98.5 23.5q58 0 99 -30q45 -33 45 -89q0 -8 -3 -25.5t-2 -27.5q104 24 173.5 97t92.5 178q8 41 8 75q0 80 -44 130t-92 63zM427 103q0 34 -30 54q-25 17 -62 17q-38 0 -71 -18 q-36 -20 -50 -53q65 -52 176 -52q16 0 32 1q0 9 2.5 26t2.5 25z" />
<glyph unicode="R" horiz-adv-x="642" d="M581 331q66 -35 66 -110q0 -21 -5 -45l-37 -176h-66l37 173q3 16 3 30q0 94 -156 94h-259l-63 -297h-66l144 678h334q213 0 213 -136q0 -21 -6 -46q-24 -117 -139 -165zM502 617h-270l-55 -258h254q82 0 138 28q70 35 85 107q3 16 3 30q0 93 -155 93z" />
<glyph unicode="S" horiz-adv-x="642" d="M329 -7q-111 0 -180 33q-94 45 -94 143q0 25 6 53l7 31h66l-6 -27q-5 -22 -5 -41q0 -131 219 -131q87 0 148 23q83 32 98 102q10 47 -13 72q-17 19 -66 34q-31 9 -136 32q-122 26 -164 50q-69 38 -69 107q0 16 4 34q38 177 313 177q248 0 248 -171q0 -26 -6 -57h-65 q3 23 3 43q0 78 -61 106q-40 18 -132 18q-209 0 -234 -116q-2 -11 -2 -21q0 -50 63 -76q28 -11 104 -25q134 -24 177 -41q106 -43 106 -127q0 -20 -5 -42q-20 -97 -132 -146q-84 -37 -192 -37z" />
<glyph unicode="T" horiz-adv-x="545" d="M437 617l-131 -617h-66l131 617h-260l13 61h585l-13 -61h-259z" />
<glyph unicode="U" horiz-adv-x="664" d="M331 -7q-251 0 -250 187q0 35 9 77l89 421h66l-89 -420q-7 -31 -7 -58q-1 -146 194 -146q231 0 274 200l90 424h66l-90 -423q-55 -262 -352 -262z" />
<glyph unicode="V" horiz-adv-x="628" d="M345 0h-53l-170 678h71l146 -582l385 582h70z" />
<glyph unicode="W" horiz-adv-x="970" d="M694 0h-53l-81 345l-223 -345h-53l-158 678h70l136 -580l209 327l-58 253h70l136 -580l373 580h70z" />
<glyph unicode="X" horiz-adv-x="604" d="M566 0l-198 300l-330 -300h-84l381 348l-223 330h87l189 -282l311 282h86l-363 -330l229 -348h-85z" />
<glyph unicode="Y" horiz-adv-x="626" d="M416 325l-69 -325h-66l69 325l-256 353h86l215 -294l340 294h85z" />
<glyph unicode="Z" horiz-adv-x="626" d="M15 0l11 54l617 563h-468l13 61h561l-11 -53l-619 -564h507l-13 -61h-598z" />
<glyph unicode="[" horiz-adv-x="233" d="M43 -168l192 902h163l-13 -62h-97l-166 -778h97l-13 -62h-163z" />
<glyph unicode="\" horiz-adv-x="350" d="M315 0l-211 694h71l211 -694h-71z" />
<glyph unicode="]" horiz-adv-x="233" d="M117 -168h-162l13 62h97l7 24l159 754h-97l13 62h164z" />
<glyph unicode="^" horiz-adv-x="298" d="M309 511l-39 68l-67 -68h-73l130 135h46l81 -135h-78z" />
<glyph unicode="_" d="M-48 -119l10 48h571l-10 -48h-571z" />
<glyph unicode="`" horiz-adv-x="193" d="M287 534q-22 -10 -42 3q-42 36 -85 78q-20 19 -17 33q2 11 19 18q11 7 21 7q13 0 23 -10q29 -26 59 -52q44 -43 41 -58q-3 -11 -19 -19z" />
<glyph unicode="a" horiz-adv-x="564" d="M456 -1l15 71q-87 -81 -213 -81q-120 0 -174 74q-33 46 -33 112q0 32 8 68q24 117 108.5 187t202.5 70q123 0 176 -78l16 76h66l-106 -499h-66zM429 433q-20 7 -76 7q-88 0 -149.5 -54.5t-79.5 -142.5q-6 -29 -6 -54q0 -68 40.5 -104t110.5 -36q88 0 154 54t85 140 q6 30 6 56q0 53 -26.5 88.5t-58.5 45.5z" />
<glyph unicode="b" horiz-adv-x="564" d="M290 -10q-118 0 -173 82l-15 -73h-66l144 679h66l-52 -246q85 79 208 79q95 0 151.5 -49t56.5 -141q0 -34 -8 -73q-25 -118 -108.5 -188t-203.5 -70zM393 450q-195 0 -239 -204q-5 -26 -5 -49q0 -69 44 -107.5t116 -38.5q88 0 150 56q59 53 78 142q7 32 7 59 q0 69 -40.5 105.5t-110.5 36.5z" />
<glyph unicode="c" d="M272 -11q-96 0 -154 44q-64 49 -64 141q0 29 7 62q26 122 115.5 193t214.5 71q182 0 190 -159l-66 -29q-4 69 -36.5 98.5t-101.5 29.5q-97 0 -163.5 -54.5t-86.5 -149.5q-5 -27 -5 -50q0 -69 46 -105q43 -32 115 -32q152 0 209 139l57 -26q-79 -173 -277 -173z" />
<glyph unicode="d" horiz-adv-x="564" d="M456 -1l15 72q-87 -82 -213 -82q-121 0 -173 76q-33 47 -33 114q0 33 8 70q25 118 109 190t204 72q123 0 175 -79l52 246h66l-144 -679h-66zM432 443q-21 7 -77 7q-89 0 -152 -58q-59 -54 -78 -143q-7 -30 -7 -57q0 -68 40.5 -105t111.5 -37q88 0 154 56t85 143 q6 31 6 57q0 53 -26 90t-57 47z" />
<glyph unicode="e" d="M116 219q-3 -19 -3 -36q0 -134 159 -134q140 0 210 115h68q-93 -175 -292 -175q-97 0 -151 42q-60 46 -60 138q0 34 9 74q24 115 111 186t204 71q94 0 152 -42q65 -48 65 -137q0 -28 -7 -60l-8 -41zM359 440q-81 0 -141.5 -42.5t-87.5 -118.5h383q2 13 2 26q0 66 -45 102 q-42 33 -111 33z" />
<glyph unicode="f" horiz-adv-x="267" d="M247 474l-5 -24h111l-14 -62h-111l-82 -389h-66l82 389h-72l14 62h72l5 24q41 192 310 192l-13 -60q-93 0 -145 -23q-70 -31 -86 -109z" />
<glyph unicode="g" horiz-adv-x="545" d="M228 -179q-194 0 -194 144q0 20 4 43h66q-2 -14 -2 -26q0 -59 42 -82q32 -18 98 -18q179 0 210 145l9 43q-88 -74 -205 -74q-92 0 -146 47q-57 50 -57 139q0 30 7 64q25 116 108.5 185t201.5 69q114 0 166 -75l14 64h66l-98 -463q-44 -205 -290 -205zM423 432 q-19 7 -68 7q-86 0 -148 -53.5t-80 -138.5q-7 -29 -7 -54q0 -66 41 -102q38 -34 106 -34q88 0 150.5 50.5t80.5 136.5q5 25 5 48q1 51 -25.5 90t-54.5 50z" />
<glyph unicode="h" d="M422 0l69 324q4 18 4 34q0 92 -124 92q-80 0 -136.5 -46.5t-73.5 -124.5l-59 -279h-66l144 678h66l-49 -231q75 64 186 64q74 0 123 -30q57 -37 57 -107q0 -19 -4 -41l-71 -333h-66z" />
<glyph unicode="i" horiz-adv-x="136" d="M187 565q-21 0 -26 25l16 72q17 25 36 25q16 0 30 -22l-16 -78q-23 -22 -40 -22zM36 0l106 500h66l-106 -500h-66z" />
<glyph unicode="j" horiz-adv-x="136" d="M187 564q-21 0 -26 25l15 72q17 26 37 26q16 0 30 -23l-16 -78q-23 -22 -40 -22zM-209 -179l13 61q97 0 150 28q67 35 85 120l100 468h66l-100 -469q-44 -208 -314 -208z" />
<glyph unicode="k" horiz-adv-x="532" d="M461 0l-200 264l-118 -72l-41 -192h-66l144 678h66l-87 -410l382 233l116 -3l-335 -197l229 -301h-90z" />
<glyph unicode="l" horiz-adv-x="136" d="M36 0l144 678h66l-144 -678h-66z" />
<glyph unicode="m" horiz-adv-x="817" d="M715 0l67 317q5 20 5 38q1 85 -101 85q-68 0 -117 -35.5t-62 -100.5l-65 -304h-66l67 317q5 20 5 38q1 85 -104 85q-71 0 -122 -49q-47 -46 -62 -118l-58 -273h-66l104 489h66l-10 -49q70 60 170 60q109 0 142 -77q69 77 188 77q160 0 160 -123q0 -23 -6 -51l-69 -326 h-66z" />
<glyph unicode="n" d="M422 0l67 317q4 17 4 32q0 91 -124 91q-80 0 -136.5 -45t-72.5 -122l-58 -273h-66l104 489h66l-11 -52q74 63 185 63q75 0 123 -29q59 -36 59 -105q0 -19 -5 -40l-69 -326h-66z" />
<glyph unicode="o" horiz-adv-x="545" d="M480 60q-60 -49 -107 -62q-32 -9 -103 -9q-97 0 -155 47q-63 50 -63 144q0 30 7 64q25 117 113 186.5t208 69.5q97 0 156 -47q63 -51 63 -145q0 -30 -7 -64q-24 -113 -112 -184zM443 433q-21 7 -76 7q-93 0 -158 -53t-84 -143q-6 -27 -6 -50q0 -71 47 -109 q44 -36 117 -36q92 0 158 53t85 142q6 28 6 52q0 54 -28.5 90.5t-60.5 46.5z" />
<glyph unicode="p" horiz-adv-x="564" d="M289 -21q-122 0 -175 79l-48 -226h-66l140 657h66l-15 -68q86 79 207 79q96 0 151 -47q59 -49 59 -141q0 -33 -8 -71q-25 -119 -108 -190.5t-203 -71.5zM391 439q-89 0 -154 -54t-83 -142q-8 -37 -8 -67q0 -136 160 -136q88 0 151 57q59 54 78 143q6 30 6 56 q0 69 -40 106t-110 37z" />
<glyph unicode="q" horiz-adv-x="564" d="M419 -168l47 222q-81 -75 -212 -75q-117 0 -170 77q-34 49 -34 116q0 32 8 69q25 115 109.5 187t200.5 72q124 0 176 -79l15 68h66l-140 -657h-66zM350 439q-89 0 -150 -56q-57 -54 -76 -143q-6 -30 -6 -57q0 -68 39.5 -105.5t109.5 -37.5q95 0 157.5 52.5t82.5 147.5 q6 27 6 51q0 44 -20 78q-40 70 -143 70z" />
<glyph unicode="r" horiz-adv-x="318" d="M144 198l-42 -198h-66l104 489h66l-14 -67q86 78 229 78l-12 -60q-213 0 -265 -242z" />
<glyph unicode="s" horiz-adv-x="486" d="M246 -13q-191 0 -193 145q0 29 8 64h68q-6 -28 -6 -50q0 -97 137 -97q58 0 101 19q58 25 58 75q0 45 -79 63q-2 0 -97 15q-131 20 -131 106q0 13 3 28q16 72 85 111q60 35 138 35q190 0 190 -136q0 -23 -6 -51h-69q4 22 4 40q0 85 -127 85q-52 0 -94 -21q-54 -27 -54 -74 q0 -42 78 -57q20 -4 102 -18q127 -22 127 -108q0 -14 -3 -29q-16 -77 -91 -114q-62 -31 -149 -31z" />
<glyph unicode="t" horiz-adv-x="263" d="M251 410l-87 -410h-64l85 410h-100l13 61h100l31 143h66l-31 -143h101l-13 -61h-101z" />
<glyph unicode="u" d="M422 -1l11 53q-76 -63 -185 -63q-77 0 -124 30q-56 36 -56 108q0 21 5 46l67 315h66l-67 -314q-4 -19 -4 -35q0 -90 125 -90q84 0 138 46.5t72 128.5l56 264h66l-104 -489h-66z" />
<glyph unicode="v" horiz-adv-x="471" d="M273 0h-55l-140 488h75l110 -400l266 400h72z" />
<glyph unicode="w" horiz-adv-x="771" d="M565 0h-57l-64 249l-163 -249h-56l-128 488h75l99 -397l153 236l-44 161h76l98 -397l256 397h72z" />
<glyph unicode="x" horiz-adv-x="467" d="M427 0l-150 206l-237 -206h-86l291 252l-166 236h86l131 -190l217 190h84l-266 -236l182 -252h-86z" />
<glyph unicode="y" d="M203 -179q-193 0 -193 144q0 20 4 43h66q-2 -14 -2 -26q0 -59 42 -82q32 -18 98 -18q179 0 210 145l3 16q-77 -65 -186 -65q-77 0 -124 31q-55 36 -55 109q0 22 5 48l69 322h66l-69 -321q-4 -20 -4 -37q1 -91 125 -91q85 0 139 48t72 132l57 269h66l-98 -462 q-44 -205 -291 -205z" />
<glyph unicode="z" horiz-adv-x="473" d="M6 0l11 51l430 377h-321l13 60h416l-11 -50l-431 -378h368l-13 -60h-462z" />
<glyph unicode="{" horiz-adv-x="350" d="M207 -168q-80 0 -80 73q0 17 4 39l46 218q11 51 1 67q-6 9 -56 32l10 45q59 22 69 31q17 16 28 67l46 218q24 112 124 112h34l-13 -62h-33q-25 0 -35 -19q-7 -12 -16 -55l-42 -196q-18 -89 -74 -119q31 -20 31 -64q0 -24 -7 -55l-42 -195q-9 -44 -7 -56q2 -19 26 -19h33 l-13 -62h-34z" />
<glyph unicode="|" horiz-adv-x="233" d="M77 -32l157 738h66l-157 -738h-66z" />
<glyph unicode="}" horiz-adv-x="350" d="M263 229q-17 -15 -28 -67l-46 -218q-24 -112 -125 -112h-33l13 62h32q27 0 39 26q5 11 13 49l42 195q15 69 44 99q10 10 29 20q-28 21 -28 69q0 22 5 50l42 196q9 41 7 55q-3 19 -27 19h-32l13 62h33q82 0 82 -73q0 -18 -5 -39l-46 -218q-11 -52 -1 -67q5 -9 56 -31 l-10 -45q-60 -23 -69 -32z" />
<glyph unicode="~" horiz-adv-x="548" d="M455 351q-33 0 -112 27q-69 24 -90 24q-48 0 -71 -52h-77q43 105 162 105q30 0 109 -28q68 -24 90 -24q49 0 72 53h77q-23 -57 -66.5 -81t-93.5 -24z" />
<glyph unicode="&#xa0;" />
<glyph unicode="&#xa1;" horiz-adv-x="194" d="M196 459q-28 0 -28 22q0 4 1 9l13 61q7 32 40 32q27 0 27 -22q0 -5 -1 -10l-13 -61q-6 -31 -39 -31zM44 -95l109 516h66l-109 -516h-66z" />
<glyph unicode="&#xa2;" d="M271 -13q-60 0 -105 18l-31 -41h-72l53 71q-62 52 -62 140q0 28 7 62q27 123 116 195t215 72q33 0 62 -7l39 54h71l-55 -75q66 -37 74 -133l-67 -29q-5 80 -47 107l-262 -361q32 -12 76 -12q152 0 209 140l57 -26q-79 -175 -278 -175zM377 443q-97 0 -163 -55t-87 -151 q-5 -27 -5 -51q0 -59 35 -95l256 350q-17 2 -36 2z" />
<glyph unicode="&#xa3;" horiz-adv-x="584" d="M243 416h299l-27 -61h-285l-12 -58h272l-23 -61h-262q-4 -21 -4 -41q0 -71 47 -110q44 -36 117 -36q91 0 176 69l41 -40q-110 -90 -229 -90q-96 0 -155 49q-64 52 -64 145q0 26 5 54h-78l23 61h68l12 58h-56l27 61h42q27 116 115 185.5t207 69.5t189 -89l-57 -42 q-56 70 -146 70q-92 0 -157 -52.5t-85 -141.5z" />
<glyph unicode="&#xa4;" horiz-adv-x="584" d="M521 189l-84 82q-48 -25 -103 -25t-92 25l-120 -82l-41 38l122 84q-14 23 -14 50q0 58 48 105l-87 84l57 38l86 -83q47 24 100 24q54 0 91 -24l122 83l41 -38l-123 -84q16 -25 16 -54q0 -56 -47 -102l85 -83zM382 471q-43 0 -77 -21q-39 -23 -48 -62q-1 -9 -1 -16 q0 -34 30 -52q25 -16 61 -16q42 0 78 21q40 23 48 62q2 9 2 17q0 33 -31 52q-26 15 -62 15z" />
<glyph unicode="&#xa5;" horiz-adv-x="645" d="M426 325l-5 -24h212l-13 -61h-212l-12 -58h212l-13 -61h-212l-26 -121h-66l26 121h-212l13 61h212l12 58h-212l13 61h212l5 24l-256 353h86l215 -294l340 294h85z" />
<glyph unicode="&#xa6;" horiz-adv-x="233" d="M160 356l72 340h66l-72 -340h-66zM79 -23l72 340h66l-72 -340h-66z" />
<glyph unicode="&#xa7;" horiz-adv-x="584" d="M454 146q49 -29 49 -79q0 -13 -3 -26q-15 -71 -85 -113q-61 -36 -139 -36q-186 0 -186 135q0 25 6 54h66q-5 -23 -5 -42q0 -86 127 -86q131 0 150 88q1 7 1 14q0 40 -60 53l-149 31q-40 12 -67 41.5t-27 67.5q0 16 5 33q24 81 107 115q-48 29 -48 80q0 12 3 26 q15 72 83 113q61 36 139 36q188 0 188 -137q0 -24 -6 -53h-66q5 23 5 42q0 87 -128 87q-52 0 -91 -19q-49 -23 -58 -69q-2 -7 -2 -13q0 -30 36 -45q31 -13 120 -28q57 -10 86 -24q64 -31 64 -91q0 -13 -3 -28q-19 -90 -112 -127zM357 357q-114 0 -149 -62l-3 -12 q-2 -9 -2 -16q0 -43 51 -65q37 -16 87 -16q138 0 157 84q-3 87 -141 87z" />
<glyph unicode="&#xa8;" horiz-adv-x="214" d="M281 547q-32 0 -27 23l7 32q5 22 37 22q34 0 29 -22l-7 -32q-5 -23 -39 -23zM166 547q-33 0 -28 23l7 32q5 22 38 22t28 -22l-7 -32q-5 -23 -38 -23z" />
<glyph unicode="&#xa9;" horiz-adv-x="560" d="M335 236q-89 0 -151 40q-72 46 -72 131q0 22 5 46q21 99 116 161q87 58 193 58q87 0 151 -43q72 -48 72 -131q0 -21 -5 -44q-21 -99 -115 -161q-88 -57 -194 -57zM415 611q-79 0 -143 -40q-71 -44 -87 -117q-3 -17 -3 -32q0 -61 53 -96q46 -30 111 -30q79 0 143 40 q72 44 87 117q4 16 4 31q0 61 -54 96q-47 31 -111 31zM358 306q-59 0 -97 26q-44 29 -44 85q0 16 4 34q14 68 70 106q52 35 124 35q127 0 122 -127h-68q-1 36 -16.5 51t-51.5 15q-95 0 -112 -80q-2 -11 -2 -20q0 -64 84 -64q55 0 93 70h72q-70 -131 -178 -131z" />
<glyph unicode="&#xaa;" horiz-adv-x="378" d="M364 348l5 22q-48 -28 -109 -28t-97 29q-40 31 -40 89q0 19 4 40q16 73 71 115.5t131 42.5q60 0 95 -27l6 26h68l-66 -309h-68zM355 596q-11 3 -41 3q-98 0 -119 -99q-3 -18 -3 -32q0 -67 80 -67q46 0 80.5 27t43.5 72q3 15 3 28q0 27 -13.5 45t-30.5 23z" />
<glyph unicode="&#xab;" horiz-adv-x="391" d="M219 255l8 37l219 119l-14 -67l-127 -70l97 -71l-13 -64zM103 255l8 37l219 119l-14 -67l-127 -70l97 -71l-13 -64z" />
<glyph unicode="&#xac;" horiz-adv-x="602" d="M525 134l25 115h-470l11 53h536l-36 -168h-66z" />
<glyph unicode="&#xad;" horiz-adv-x="350" d="M83 254l4 20h302l-4 -20h-302z" />
<glyph unicode="&#xae;" horiz-adv-x="543" d="M324 236q-88 0 -150 41q-72 47 -72 131q0 21 5 45q21 99 116 161q87 58 193 58q87 0 150 -42q72 -48 72 -131q0 -22 -5 -45q-21 -101 -115 -162q-86 -56 -194 -56zM533 568q-32 29 -62 38q-19 5 -67 5q-80 0 -143 -40q-70 -43 -86 -117q-3 -17 -3 -32q0 -62 53 -96 q46 -30 111 -30q79 0 143 40q71 44 86 117q4 17 4 32q0 49 -36 83zM480 447q10 -14 10 -33q0 -9 -2 -19l-17 -81h-69l17 80q5 23 -33 23h-65l-22 -103h-68l58 275h136q91 0 92 -61q0 -49 -37 -81zM412 527h-68l-10 -48h63q44 0 49 26q5 22 -34 22z" />
<glyph unicode="&#xaf;" horiz-adv-x="313" d="M140 597l4 19h289l-4 -19h-289z" />
<glyph unicode="&#xb0;" horiz-adv-x="420" d="M292 385q-56 0 -98 26q-48 31 -48 84q0 76 77 124q57 36 125 36q57 0 98 -25q50 -30 50 -83q0 -79 -82 -128q-57 -34 -122 -34zM337 599q-45 0 -82 -23q-43 -27 -43 -70q0 -32 31 -50q26 -15 61 -15q42 0 76 19q41 22 49 60q1 8 1 16q0 32 -32 49q-25 14 -61 14z" />
<glyph unicode="&#xb1;" horiz-adv-x="630" d="M394 218l-33 -158h-66l33 158h-191l13 60h191l33 155h66l-33 -155h192l-13 -60h-192zM91 -3l13 60h449l-13 -60h-449z" />
<glyph unicode="&#xb2;" horiz-adv-x="392" d="M68 256q28 130 191 209q30 14 104 49q21 10 30 18q16 12 16 28q0 41 -83 41q-60 0 -89.5 -25.5t-42.5 -84.5h-69q37 171 210 171q144 0 144 -86q0 -12 -3 -26q-11 -54 -100 -95l-97 -45q-96 -45 -124 -94h291l-13 -60h-365z" />
<glyph unicode="&#xb3;" horiz-adv-x="426" d="M272 252q-67 0 -111 22q-58 29 -58 90q0 15 4 31l7 31h70l-9 -39q-1 -7 -1 -14q0 -60 107 -60q121 0 134 65q2 7 2 13q0 50 -96 50h-58l12 60h59q99 0 110 51q11 49 -93 49q-62 0 -93 -22q-34 -24 -46 -82h-69q35 165 220 165q57 0 97 -17q56 -23 56 -72q0 -10 -3 -21 q-11 -53 -61 -81q35 -24 35 -67q0 -12 -3 -26q-13 -64 -82 -98q-57 -28 -130 -28z" />
<glyph unicode="&#xb4;" horiz-adv-x="212" d="M188 537q-11 -8 -27 -8q-11 0 -21 7t-7 18q2 11 14 19l132 91q13 9 27 9q12 0 22 -7t8 -19q-3 -10 -16 -19z" />
<glyph unicode="&#xb5;" d="M395 4q-9 -4 -10 -11q-6 -26 75 -26l-13 -63q-144 0 -137 77q-20 -2 -41 -2q-110 0 -158 63l-45 -213h-66l140 659h66l-57 -269q-7 -30 -7 -56q0 -124 139 -124q149 0 176 128l69 321h66l-69 -322q-24 -115 -128 -162z" />
<glyph unicode="&#xb6;" horiz-adv-x="496" d="M363 -133l159 750h-41l-159 -750h-66l77 364q-83 1 -140 46q-62 49 -62 130q0 23 6 48q21 102 116 165q88 59 196 59q4 0 9 -1h143l-172 -811h-66z" />
<glyph unicode="&#xb7;" horiz-adv-x="209" d="M179 280q-33 0 -28 24l8 40q5 23 38 23t28 -23l-8 -40q-5 -24 -38 -24z" />
<glyph unicode="&#xb8;" horiz-adv-x="259" d="M86 -174q-39 0 -119 20l42 49q55 -15 85 -15q59 0 64 21q2 9 -37 12q-25 2 -62 -12l7 35l25 73h64l-11 -43q85 -3 85 -53q0 -8 -2 -16q-15 -71 -141 -71z" />
<glyph unicode="&#xb9;" horiz-adv-x="287" d="M216 260l65 306l-92 -47h-123l253 134h52l-84 -393h-71z" />
<glyph unicode="&#xba;" horiz-adv-x="413" d="M421 391q-42 -28 -74 -36q-21 -5 -68 -5q-63 0 -104 27q-48 32 -48 91q0 17 4 35q15 73 80 115q58 38 136 38q64 0 106 -27q49 -32 49 -92q0 -16 -4 -34q-15 -71 -77 -112zM378 598q-12 3 -44 3q-51 0 -88 -24q-41 -26 -51 -74q-3 -13 -3 -24q0 -74 100 -74q52 0 90 23 q42 27 52 75q2 12 2 22q0 30 -19.5 49t-38.5 24z" />
<glyph unicode="&#xbb;" horiz-adv-x="381" d="M195 139l13 64l126 71l-96 70l14 67l169 -119l-8 -37zM79 139l13 64l126 71l-96 70l14 67l169 -119l-8 -37z" />
<glyph unicode="&#xbc;" horiz-adv-x="816" d="M714 128l-27 -128h-65l27 128h-281l240 288h73l-190 -229h171l49 230l64 -3l-48 -227h92l-13 -59h-92zM236 0h-71l503 694h71zM237 247l68 323l-95 -51h-114l243 135h50l-86 -407h-66z" />
<glyph unicode="&#xbd;" horiz-adv-x="803" d="M415 0q32 137 186 211l98 47q54 26 59 49q2 6 2 11q0 44 -85 44q-60 0 -91 -28t-45 -88h-64q39 174 208 174q141 0 141 -87q0 -13 -3 -28q-12 -54 -93 -93q-30 -14 -101 -50q-102 -51 -130 -104h291l-12 -58h-361zM225 0h-71l504 694h71zM226 247l68 322l-94 -50h-115 l243 135h50l-86 -407h-66z" />
<glyph unicode="&#xbe;" horiz-adv-x="906" d="M805 128l-27 -128h-65l27 128h-281l241 288h74l-191 -229h170l49 230l64 -3l-48 -227h92l-13 -59h-92zM327 0h-71l504 694h71zM280 239q-166 0 -165 108q0 18 4 38l6 30h64l-8 -38q-2 -8 -2 -15q0 -35 40 -52q30 -13 70 -13q46 0 83 14q48 19 56 57q2 8 2 15q0 53 -99 53 h-55l12 58h56q115 0 115 66q0 44 -97 44q-62 0 -95.5 -24.5t-47.5 -84.5h-64q39 167 219 167q57 0 96 -17q54 -23 54 -73q0 -10 -2 -22q-12 -56 -67 -85q40 -26 40 -71q0 -13 -3 -26q-14 -65 -82 -100q-57 -29 -130 -29z" />
<glyph unicode="&#xbf;" d="M357 475q-27 0 -27 21q0 5 2 10l13 61q6 32 38 32q28 0 29 -22q0 -4 -1 -10l-13 -61q-7 -31 -41 -31zM226 -95q-77 0 -130 28q-66 36 -66 107q0 88 83 157q39 30 117 92q65 52 77 105l9 44h67l-8 -40q-22 -99 -148 -184q-58 -39 -78 -57q-40 -38 -49 -81q-2 -12 -2 -23 q0 -48 50 -71q37 -16 92 -16q91 0 145 45q49 41 77 132l55 -37q-72 -201 -291 -201z" />
<glyph unicode="&#xc0;" horiz-adv-x="676" d="M542 679q-14 0 -24 10l-88 117q-7 10 -5 22q3 14 18 23q11 8 22 8q13 0 22 -12l89 -116q8 -10 5 -23q-6 -29 -39 -29zM613 0l-52 212h-352l-144 -212h-75l472 687h56l168 -687h-73zM469 589l-218 -316h295z" />
<glyph unicode="&#xc1;" horiz-adv-x="676" d="M455 691q-13 -11 -27 -11q-13 0 -22 9.5t-6 21.5t15 22l138 116q15 12 28 12t21 -9.5t5 -21.5q-2 -12 -14 -22zM613 0l-52 212h-352l-144 -212h-75l472 687h56l168 -687h-73zM469 589l-218 -316h295z" />
<glyph unicode="&#xc2;" horiz-adv-x="676" d="M557 675l-54 96l-96 -96h-76l167 172h43l96 -172h-80zM613 0l-52 212h-352l-144 -212h-75l472 687h56l168 -687h-73zM469 588l-218 -315h295z" />
<glyph unicode="&#xc3;" horiz-adv-x="676" d="M561 688q-23 0 -74 28q-43 24 -51 24q-26 0 -44 -70l-53 38q9 40 40.5 66.5t71.5 26.5q22 0 72 -28q44 -24 51 -24q27 0 45 68l54 -34q-13 -46 -45 -70.5t-67 -24.5zM613 0l-52 211h-352l-144 -211h-75l472 685h56l168 -685h-73zM469 587l-218 -315h295z" />
<glyph unicode="&#xc4;" horiz-adv-x="676" d="M543 683q-26 0 -26 22q0 4 1 10l11 52q7 32 39 32q28 0 28 -22q0 -5 -1 -10l-11 -52q-7 -32 -41 -32zM428 683q-27 0 -27 22q0 5 1 10l11 52q7 32 40 32q27 0 27 -22q0 -5 -1 -10l-11 -52q-7 -32 -40 -32zM613 0l-52 211h-352l-144 -211h-75l472 685h56l168 -685h-73z M469 587l-218 -315h295z" />
<glyph unicode="&#xc5;" horiz-adv-x="676" d="M486 691q-34 0 -58.5 19t-24.5 52q0 52 46 86q35 25 76 25q34 0 58.5 -19t24.5 -52q0 -53 -46 -86q-35 -25 -76 -25zM613 0l-52 212h-352l-144 -212h-75l472 688h56l168 -688h-73zM511 810q-32 0 -38 -28t26 -28q34 0 40 28t-28 28zM469 589l-218 -316h295z" />
<glyph unicode="&#xc6;" horiz-adv-x="1077" d="M568 0l69 323h-243l-372 -323h-86l782 678h475l-13 -61h-414l-49 -233h46l-1 -1h315l-12 -60h-361l-56 -262h419l-13 -61h-486zM465 384h185l42 196z" />
<glyph unicode="&#xc7;" horiz-adv-x="719" d="M753 512q-55 111 -219 111q-139 0 -239 -77t-129 -212q-9 -41 -9 -77q0 -105 70 -160q65 -51 174 -51q158 0 269 113l47 -35q-137 -139 -328 -139q-167 0 -245 93q-55 65 -55 162q0 42 10 90q35 165 157 260t292 95q199 0 268 -138zM337 -174q-41 0 -113 22l-7 2l45 56 q56 -18 85 -18q58 0 64 26q3 13 -36 17q-24 2 -62 -15l9 41l27 86h64l-13 -51q83 -3 83 -61q0 -10 -2 -21q-18 -84 -144 -84z" />
<glyph unicode="&#xc8;" horiz-adv-x="564" d="M481 669q-14 0 -22 11l-89 116q-8 10 -5 23q3 14 19 23q10 7 21 7q14 0 22 -11l89 -117q8 -10 6 -21q-7 -31 -41 -31zM35 0l146 687h531l-13 -62h-466l-51 -237h413l-12 -61h-413l-57 -266h471l-13 -61h-536z" />
<glyph unicode="&#xc9;" horiz-adv-x="564" d="M395 680q-14 -11 -28 -11q-13 0 -21.5 9.5t-5.5 21.5q2 12 14 22l139 116q13 11 26 11q14 0 22.5 -9t5.5 -22q-3 -12 -15 -22zM35 0l146 687h531l-13 -62h-466l-51 -237h413l-12 -61h-413l-57 -266h471l-13 -61h-536z" />
<glyph unicode="&#xca;" horiz-adv-x="564" d="M501 685l-55 96l-95 -96h-76l166 172h43l98 -172h-81zM35 0l146 687h531l-13 -61h-466l-51 -238h413l-12 -61h-413l-57 -265h471l-13 -62h-536z" />
<glyph unicode="&#xcb;" horiz-adv-x="564" d="M487 691q-27 0 -27 22q0 5 1 10l11 52q7 32 40 32q27 0 27 -22q0 -5 -1 -10l-11 -52q-7 -32 -40 -32zM371 691q-27 0 -27 22q0 4 2 10l11 52q7 32 39 32q28 0 28 -22q0 -5 -1 -10l-11 -52q-7 -32 -41 -32zM35 0l146 685h531l-13 -61h-466l-51 -237h413l-13 -61h-413 l-56 -265h471l-13 -61h-536z" />
<glyph unicode="&#xcc;" horiz-adv-x="134" d="M269 684q-14 0 -22 11l-89 116q-7 10 -5 22q3 12 15.5 21.5t25.5 9.5q14 0 22 -11l88 -117q8 -10 6 -21q-7 -31 -41 -31zM35 0l146 687h66l-146 -687h-66z" />
<glyph unicode="&#xcd;" horiz-adv-x="134" d="M182 691q-13 -11 -27 -11q-13 0 -22 9.5t-6 21.5q2 11 15 21l137 117q15 12 28 12q14 0 22 -9t5 -22q-2 -12 -14 -22zM35 0l146 687h66l-146 -687h-66z" />
<glyph unicode="&#xce;" horiz-adv-x="134" d="M286 681l-55 96l-96 -96h-76l166 172h43l98 -172h-80zM35 0l146 687h66l-146 -687h-66z" />
<glyph unicode="&#xcf;" horiz-adv-x="134" d="M273 698q-26 0 -26 22q0 5 1 11l11 52q7 31 39 31t27 -30l-11 -53q-6 -33 -41 -33zM158 698q-29 0 -29 23q0 4 1 10l11 52q7 31 42 31q31 0 26 -30l-11 -53q-6 -33 -40 -33zM35 0l146 685h66l-146 -685h-66z" />
<glyph unicode="&#xd0;" horiz-adv-x="680" d="M277 0h-242l66 309h-38l13 62h38l65 307h280q130 0 203 -56q81 -61 81 -185q0 -45 -11 -99q-35 -165 -162 -254q-119 -84 -293 -84zM558 608q-30 9 -113 9h-213l-52 -246h198l-13 -62h-198l-53 -248h179q147 0 242 67q101 71 131 210q10 48 10 87q0 74 -36 122t-82 61z " />
<glyph unicode="&#xd1;" horiz-adv-x="680" d="M553 682q-23 0 -74 28q-43 24 -51 24q-26 0 -44 -70l-53 38q8 39 40 66t71 27q22 0 73 -28q43 -24 51 -24q27 0 44 66l56 -30q-14 -47 -46 -72t-67 -25zM581 0l-357 581l-123 -581h-66l146 685h64q59 -102 178.5 -292t179.5 -287l123 579h66l-146 -685h-65z" />
<glyph unicode="&#xd2;" horiz-adv-x="757" d="M582 682q-14 0 -23 11l-90 117q-8 10 -5 23q6 28 41 28q15 0 23 -10l88 -117q8 -10 5 -22q-2 -12 -14.5 -21t-24.5 -9zM666 87q-81 -65 -146 -82q-43 -12 -142 -12q-136 0 -215 60q-88 67 -88 196q0 43 11 94q35 164 153 254q115 87 285 87q135 0 215 -57q91 -65 91 -193 q0 -42 -10 -91q-35 -162 -154 -256zM627 614q-32 9 -116 9q-140 0 -235 -72t-124 -208q-9 -42 -9 -78q0 -106 72 -161q65 -49 176 -49q141 0 237.5 75.5t125.5 212.5q9 41 9 77q0 79 -44.5 129.5t-91.5 64.5z" />
<glyph unicode="&#xd3;" horiz-adv-x="757" d="M493 696q-14 -10 -26 -10q-28 0 -28 21q0 18 16 31l138 117q13 12 26 12q14 0 22.5 -9t6.5 -22q-3 -13 -15 -23zM666 87q-81 -65 -146 -82q-43 -12 -142 -12q-136 0 -215 60q-88 67 -88 196q0 43 11 94q35 164 153 254q115 87 285 87q135 0 215 -57q91 -65 91 -193 q0 -42 -10 -91q-35 -162 -154 -256zM627 614q-32 9 -116 9q-140 0 -235 -72t-124 -208q-9 -42 -9 -78q0 -106 72 -161q65 -49 176 -49q141 0 237.5 75.5t125.5 212.5q9 42 9 77q0 80 -44.5 130t-91.5 64z" />
<glyph unicode="&#xd4;" horiz-adv-x="757" d="M599 693l-55 95l-95 -95h-76l166 171h43l97 -171h-80zM666 87q-81 -65 -146 -82q-43 -12 -142 -12q-136 0 -215 60q-88 67 -88 196q0 43 11 94q35 164 153 254q115 87 285 87q135 0 215 -57q91 -65 91 -193q0 -42 -10 -91q-35 -162 -154 -256zM627 614q-32 9 -116 9 q-140 0 -235 -72t-124 -208q-9 -42 -9 -78q0 -106 72 -161q65 -49 176 -49q141 0 237.5 75.5t125.5 212.5q9 42 9 77q0 80 -44.5 130t-91.5 64z" />
<glyph unicode="&#xd5;" horiz-adv-x="757" d="M597 703q-22 0 -73 28q-43 24 -51 24q-19 0 -32 -28q-4 -7 -15 -43l-49 40q8 38 40 65t70 27q23 0 73 -28q44 -24 50 -24q28 0 46 68l55 -34q-16 -47 -47.5 -71t-66.5 -24zM666 87q-81 -65 -146 -82q-43 -12 -142 -12q-136 0 -215 60q-88 67 -88 197q0 42 11 93 q35 163 154 253q115 87 284 87q134 0 215 -58q91 -65 91 -193q0 -41 -10 -89q-35 -162 -154 -256zM626 612q-32 9 -115 9q-140 0 -234 -70q-96 -73 -125 -208q-9 -42 -9 -78q0 -106 72 -161q65 -50 175 -50q141 0 238 76t126 213q9 40 9 75q0 80 -44.5 130t-92.5 64z" />
<glyph unicode="&#xd6;" horiz-adv-x="757" d="M585 698q-27 0 -27 22q0 5 1 11l11 52q7 31 40 31q31 0 26 -30l-11 -53q-6 -33 -40 -33zM469 698q-26 0 -26 22q0 5 1 11l11 52q7 31 39 31t27 -30l-11 -53q-6 -33 -41 -33zM666 87q-81 -65 -146 -82q-43 -12 -142 -12q-135 0 -214 59q-88 65 -89 193q0 45 11 97 q34 163 153 253q116 87 285 87q134 0 214 -57q92 -65 92 -192q0 -42 -10 -91q-35 -161 -154 -255zM626 612q-32 9 -115 9q-141 0 -234 -71q-96 -72 -125 -208q-9 -40 -9 -75q-1 -107 71 -163q65 -50 176 -50q141 0 238 76t126 212q8 40 8 75q1 81 -43.5 131t-92.5 64z" />
<glyph unicode="&#xd7;" horiz-adv-x="490" d="M404 107l-114 105l-158 -103l-40 38l157 105l-112 103l58 39l112 -104l157 104l40 -39l-155 -103l113 -107z" />
<glyph unicode="&#xd8;" horiz-adv-x="757" d="M666 85q-82 -64 -146 -81q-44 -12 -143 -12q-73 0 -129 17l-28 -38h-71l45 62q-58 32 -89 93q-30 57 -30 127q0 40 10 86q35 162 154 252q115 86 284 86q72 0 127 -16l32 43h71l-47 -65q123 -67 123 -211q0 -41 -10 -89q-34 -161 -153 -254zM665 584l-376 -518 q44 -13 101 -13q141 0 237.5 74.5t125.5 211.5q8 40 9 74q1 119 -97 171zM510 616q-140 0 -233 -70q-97 -72 -126 -207q-8 -39 -8 -74q0 -75 40 -129q21 -28 52 -46l375 515q-44 11 -100 11z" />
<glyph unicode="&#xd9;" horiz-adv-x="664" d="M533 674q-12 0 -23 10l-89 118q-7 10 -5 21q7 31 41 31q14 0 22 -11l89 -116q7 -10 5 -22q-3 -12 -15 -21.5t-25 -9.5zM331 -7q-250 0 -250 189q0 36 9 79l91 426h66l-90 -425q-8 -35 -7 -63q1 -144 194 -144q231 0 274 203l91 429h66l-91 -428q-56 -266 -353 -266z" />
<glyph unicode="&#xda;" horiz-adv-x="664" d="M446 687q-14 -10 -28 -10q-13 0 -21 9t-6 21q3 12 15 22l138 116q14 12 27 12q14 0 22 -9t6 -22q-3 -12 -15 -22zM331 -7q-250 0 -250 189q0 36 9 79l91 426h66l-90 -425q-8 -35 -7 -63q1 -144 194 -144q231 0 274 203l91 429h66l-91 -428q-56 -266 -353 -266z" />
<glyph unicode="&#xdb;" horiz-adv-x="664" d="M551 683l-55 96l-96 -96h-76l167 172h43l97 -172h-80zM331 -7q-250 0 -250 189q0 36 9 79l91 426h66l-90 -425q-8 -35 -7 -63q1 -144 194 -144q231 0 274 203l91 429h66l-91 -428q-56 -266 -353 -266z" />
<glyph unicode="&#xdc;" horiz-adv-x="664" d="M538 698q-27 0 -27 22q0 5 1 11l11 52q7 31 40 31q28 0 28 -22q0 -4 -2 -9l-11 -52q-7 -33 -40 -33zM422 698q-26 0 -26 22q0 5 1 11l11 52q7 31 39 31q29 0 28 -22q0 -4 -1 -9l-11 -52q-7 -33 -41 -33zM331 -7q-250 0 -250 188q0 36 9 79l91 425h66l-91 -424 q-7 -33 -7 -61q0 -146 194 -146q231 0 275 203l91 428h66l-91 -427q-56 -265 -353 -265z" />
<glyph unicode="&#xdd;" horiz-adv-x="657" d="M444 691q-13 -11 -27 -11q-13 0 -22 9.5t-6 21.5t15 22l138 116q15 12 28 12t21.5 -9t5.5 -22q-2 -12 -14 -22zM433 330l-70 -330h-66l70 330l-255 357h86l214 -298l341 298h85z" />
<glyph unicode="&#xde;" horiz-adv-x="425" d="M270 164h-133l-35 -164h-66l144 678h66l-30 -144h134q124 0 125 -119q0 -31 -8 -69q-39 -182 -197 -182zM336 473h-133l-54 -250l135 1q90 1 116 122q6 29 6 52q0 75 -70 75z" />
<glyph unicode="&#xdf;" horiz-adv-x="505" d="M184 -30l13 61q113 0 178 34q81 42 102 142q4 20 4 38q0 76 -71 111q-54 26 -139 26l13 61q113 0 153 14q57 20 69 76q3 15 3 27q0 47 -51 62q-26 7 -89 7q-133 0 -159 -123l-108 -508h-66l81 384h-35l13 62h35q7 31 22 87q42 159 232 159q193 0 193 -113q0 -18 -5 -40 q-23 -95 -112 -128q29 -18 52 -50q36 -50 36 -108q0 -22 -5 -44q-50 -237 -359 -237z" />
<glyph unicode="&#xe0;" horiz-adv-x="552" d="M416 495q-15 0 -23 10l-89 115q-9 11 -6 23q3 14 19 23q10 7 21 7q14 0 23 -12l89 -115q8 -10 5 -22q-6 -29 -39 -29zM456 -1l15 72q-87 -82 -213 -82q-121 0 -173 76q-33 48 -33 114q0 32 8 69q25 119 108.5 191t204.5 72q123 0 175 -80l16 78h66l-108 -510h-66z M432 443q-21 7 -77 7q-88 0 -152 -58q-60 -56 -78 -144q-7 -30 -7 -56q0 -68 40.5 -105t111.5 -37q87 0 153.5 56t85.5 142q6 31 6 58q0 53 -26 90t-57 47z" />
<glyph unicode="&#xe1;" horiz-adv-x="552" d="M338 504q-14 -9 -26 -9q-33 0 -27 29q3 12 15 22l137 115q15 12 29 12q13 0 21 -8.5t6 -21.5q-3 -12 -14 -23zM468 -1l15 72q-87 -82 -213 -82q-121 0 -173 76q-33 47 -33 114q0 33 8 70q25 118 109 190t204 72q123 0 175 -80l16 78h66l-108 -510h-66zM444 443 q-21 7 -77 7q-88 0 -149.5 -56.5t-80.5 -144.5q-7 -30 -7 -57q0 -68 40.5 -105t111.5 -37q88 0 154 56t85 143q6 31 6 57q0 53 -26 90t-57 47z" />
<glyph unicode="&#xe2;" horiz-adv-x="552" d="M445 505l-55 94l-95 -94h-76l165 169h43l98 -169h-80zM468 -1l15 72q-87 -82 -213 -82q-121 0 -173 76q-33 47 -33 114q0 33 8 70q25 118 109 190t204 72q123 0 175 -80l16 78h66l-108 -510h-66zM444 443q-21 7 -77 7q-89 0 -152 -58q-59 -54 -78 -143q-7 -30 -7 -57 q0 -68 40.5 -105t111.5 -37q88 0 154 56t85 143q6 31 6 57q0 53 -26 90t-57 47z" />
<glyph unicode="&#xe3;" horiz-adv-x="552" d="M442 514q-23 0 -74 28q-43 24 -50 24q-19 0 -33 -28q-3 -7 -14 -42l-49 39q8 38 40 64.5t70 26.5q21 0 73 -28q43 -23 50 -23q28 0 45 67l55 -34q-16 -46 -47 -70t-66 -24zM468 -1l15 72q-87 -82 -213 -82q-121 0 -173 76q-33 48 -33 114q0 32 8 69q25 118 109 189.5 t203 71.5q123 0 175 -79l17 77h66l-108 -508h-66zM443 441q-21 7 -77 7q-88 0 -149.5 -56t-79.5 -144q-7 -30 -7 -56q0 -68 40.5 -105t111.5 -37q88 0 154 55.5t85 142.5q6 31 6 57q0 53 -26.5 89.5t-57.5 46.5z" />
<glyph unicode="&#xe4;" horiz-adv-x="552" d="M443 509q-27 0 -27 22q0 5 1 11l11 51q7 31 40 31q27 0 27 -22q0 -4 -1 -9l-11 -51q-7 -33 -40 -33zM327 509q-26 0 -26 22q0 5 1 11l11 51q7 31 39 31q28 0 28 -22q0 -4 -1 -9l-11 -51q-7 -33 -41 -33zM468 -1l15 72q-87 -82 -213 -82q-121 0 -173 76q-33 48 -33 114 q0 32 8 68q25 119 108.5 190t203.5 71q123 0 175 -79l17 78h66l-108 -508h-66zM366 448q-87 0 -151 -58q-60 -55 -78 -143q-7 -30 -7 -55q0 -68 40.5 -105t111.5 -37q88 0 154 55t85 142q6 31 6 57q0 71 -45 109q-42 35 -116 35z" />
<glyph unicode="&#xe5;" horiz-adv-x="552" d="M381 520q-35 0 -58 18q-27 20 -27 52q0 52 46 85q36 25 77 25q34 0 58.5 -18.5t24.5 -51.5q0 -52 -46 -85q-34 -25 -75 -25zM468 -1l15 73q-87 -83 -213 -83q-121 0 -173 76q-33 48 -33 114q0 33 8 70q25 119 109 191t204 72q123 0 175 -79l16 77h66l-108 -511h-66z M405 637q-33 0 -38 -27q-6 -27 27 -27t39 27q5 27 -28 27zM444 444q-21 7 -77 7q-88 0 -149.5 -57t-80.5 -145q-6 -30 -6 -56q0 -68 40.5 -105.5t110.5 -37.5q88 0 154 56t85 143q7 31 7 58q0 53 -26.5 90t-57.5 47z" />
<glyph unicode="&#xe6;" horiz-adv-x="984" d="M569 219l-1 -2q-5 -26 -5 -49q0 -119 161 -119q140 0 210 115h69q-96 -175 -293 -175q-124 0 -176 68l-12 -58h-66l15 71q-87 -81 -213 -81q-120 0 -174 74q-33 46 -33 112q0 32 8 68q24 117 108.5 187t202.5 70q123 0 176 -78l16 76h66l-17 -79q92 81 211 81 q94 0 152 -42q65 -48 65 -137q0 -28 -7 -60l-8 -41zM580 273q8 6 384 6q2 13 2 26q0 66 -45 102q-42 33 -111 33q-80 0 -145 -45q-69 -47 -85 -122zM429 433q-20 7 -76 7q-88 0 -149.5 -54.5t-79.5 -142.5q-6 -29 -6 -54q0 -68 40.5 -104t110.5 -36q88 0 154 54t85 140 q6 30 6 56q0 53 -26.5 88.5t-58.5 45.5z" />
<glyph unicode="&#xe7;" d="M270 -21q-96 0 -154 46q-63 49 -63 141q0 30 7 64q26 124 115.5 197t215.5 73q108 0 158 -63q29 -36 32 -99l-67 -30q-3 70 -35.5 100.5t-102.5 30.5q-98 0 -164 -56t-86 -153q-6 -28 -6 -52q1 -70 47 -106q42 -33 114 -33q151 0 209 142l58 -26q-80 -176 -278 -176z M242 -174q-39 0 -117 23l42 56q57 -18 85 -18q59 0 65 26q2 13 -37 16q-25 2 -62 -14l9 41l28 84h64l-13 -50q82 -3 82 -60q0 -10 -2 -21q-18 -83 -144 -83z" />
<glyph unicode="&#xe8;" d="M445 500q-26 -14 -42 5l-91 115q-8 12 -5 23q6 28 41 28q15 0 22 -10l90 -115q8 -10 5 -22q-3 -15 -20 -24zM117 224q-3 -21 -3 -40q0 -134 159 -134q140 0 210 118h68q-95 -179 -293 -179q-210 0 -210 182q0 35 9 77q25 117 111.5 190t205.5 73q94 0 152 -44 q64 -48 64 -139q0 -28 -7 -61l-9 -42zM361 450q-82 0 -142.5 -44t-86.5 -121h383q1 14 1 27q0 68 -42.5 103t-112.5 35z" />
<glyph unicode="&#xe9;" d="M478 623l-141 -117q-14 -9 -26 -9q-33 0 -27 29q2 12 14 22l138 115q13 11 26 11q11 0 22 -6q10 -11 7 -24q-2 -9 -13 -21zM117 224q-3 -21 -3 -40q0 -134 159 -134q140 0 210 118h68q-95 -179 -293 -179q-210 0 -210 182q0 35 9 77q25 117 111.5 190t205.5 73 q94 0 152 -44q64 -48 64 -139q0 -28 -7 -61l-9 -42zM361 450q-82 0 -142.5 -44t-86.5 -121h383q1 14 1 27q0 68 -42.5 103t-112.5 35z" />
<glyph unicode="&#xea;" d="M443 505l-55 94l-95 -94h-77l167 169h43l97 -169h-80zM117 224q-3 -21 -3 -40q0 -134 159 -134q140 0 210 118h68q-95 -179 -293 -179q-97 0 -151 43q-59 48 -59 140q0 35 9 77q25 117 111.5 189.5t205.5 72.5q94 0 152 -44q64 -48 64 -139q0 -28 -7 -61l-9 -42zM361 450 q-82 0 -142.5 -44t-86.5 -121h383q1 14 1 27q0 68 -42.5 103t-112.5 35z" />
<glyph unicode="&#xeb;" d="M429 509q-26 0 -26 22q0 5 1 11l11 51q7 31 39 31q28 0 28 -22q0 -4 -1 -9l-11 -51q-7 -33 -41 -33zM314 509q-27 0 -27 22q0 5 1 11l11 51q7 31 40 31q27 0 27 -22q0 -4 -1 -9l-11 -51q-7 -33 -40 -33zM116 223q-3 -21 -3 -40q0 -133 160 -133q140 0 209 117h68 q-94 -178 -292 -178q-210 0 -210 182q0 35 9 76q24 117 111 189t205 72q94 0 152 -43q64 -49 64 -138q0 -29 -6 -61l-9 -42zM360 448q-81 0 -141.5 -43.5t-87.5 -120.5h383q2 14 2 27q0 67 -45 104q-41 33 -111 33z" />
<glyph unicode="&#xec;" horiz-adv-x="136" d="M230 494q-13 0 -22 11l-89 115q-8 10 -6 22q3 12 15.5 21.5t24.5 9.5q13 0 22 -12l90 -115q8 -10 5 -22q-2 -12 -14.5 -21t-25.5 -9zM36 0l106 500h66l-106 -500h-66z" />
<glyph unicode="&#xed;" horiz-adv-x="136" d="M143 502q-13 -11 -28 -11q-12 0 -21 9t-6 21q2 11 14 21l139 116q13 11 27 11q13 0 21 -9.5t6 -21.5q-3 -11 -15 -21zM36 0l106 500h66l-106 -500h-66z" />
<glyph unicode="&#xee;" horiz-adv-x="136" d="M244 505l-48 93l-91 -93h-75l159 169h45l90 -169h-80zM36 0l106 500h66l-106 -500h-66z" />
<glyph unicode="&#xef;" horiz-adv-x="136" d="M237 509q-26 0 -26 22q0 5 1 11l11 51q7 31 39 31q28 0 28 -22q0 -4 -1 -9l-11 -51q-7 -33 -41 -33zM122 509q-28 0 -28 23q0 4 1 10l11 51q7 31 41 31q27 0 27 -22q0 -4 -1 -9l-11 -51q-7 -33 -40 -33zM36 0l106 497h66l-106 -497h-66z" />
<glyph unicode="&#xf0;" horiz-adv-x="564" d="M456 -1l15 72q-87 -82 -213 -82q-121 0 -173 76q-33 47 -33 114q0 33 8 70q25 118 109 190t204 72q123 0 175 -79l25 117h-332l13 61h332l14 68h66l-144 -679h-66zM432 443q-21 7 -77 7q-89 0 -152 -58q-59 -54 -78 -143q-7 -30 -7 -57q0 -68 40.5 -105t111.5 -37 q88 0 154 56t85 143q6 31 6 57q0 53 -26 90t-57 47z" />
<glyph unicode="&#xf1;" d="M443 514q-23 0 -74 28q-43 24 -51 24q-26 0 -43 -69l-53 38q8 37 40 64t70 27q21 0 73 -28q43 -23 51 -23q27 0 44 67l55 -34q-14 -46 -45.5 -70t-66.5 -24zM422 0l69 323q3 18 3 33q0 92 -124 92q-79 0 -135.5 -46t-73.5 -124l-59 -278h-66l106 498h66l-11 -53 q74 64 185 64q75 0 123 -30q58 -37 58 -106q0 -20 -4 -41l-71 -332h-66z" />
<glyph unicode="&#xf2;" horiz-adv-x="545" d="M436 495q-15 0 -23 10l-89 115q-9 11 -6 23q3 14 19 23q10 7 21 7q14 0 23 -12l89 -115q8 -10 5 -22q-6 -29 -39 -29zM481 62q-61 -50 -108 -64q-32 -9 -103 -9q-123 0 -180 74q-38 50 -38 120q0 31 8 66q25 119 113 190.5t210 71.5q97 0 155 -49q62 -52 62 -146 q0 -32 -7 -67q-25 -115 -112 -187zM445 443q-21 7 -76 7q-93 0 -158.5 -54.5t-84.5 -146.5q-6 -28 -6 -52q0 -72 45 -109.5t119 -37.5q92 0 158 54.5t85 144.5q6 29 6 54q0 55 -28 92.5t-60 47.5z" />
<glyph unicode="&#xf3;" horiz-adv-x="545" d="M346 501q-11 -10 -26 -10q-13 0 -22 9t-6 22q2 10 14 20l139 116q13 11 27 11t22 -9t6 -22q-3 -11 -15 -21zM481 62q-61 -50 -108 -64q-32 -9 -103 -9q-123 0 -180 74q-38 50 -38 120q0 31 8 66q25 119 113 190.5t210 71.5q97 0 155 -49q62 -52 62 -146q0 -32 -7 -67 q-25 -115 -112 -187zM445 443q-21 7 -76 7q-93 0 -158.5 -54.5t-84.5 -146.5q-6 -28 -6 -52q0 -72 45 -109.5t119 -37.5q92 0 158 54.5t85 144.5q6 29 6 54q0 55 -28 92.5t-60 47.5z" />
<glyph unicode="&#xf4;" horiz-adv-x="545" d="M454 505l-55 94l-96 -94h-77l167 169h43l98 -169h-80zM481 62q-61 -50 -108 -64q-32 -9 -103 -9q-123 0 -180 74q-38 50 -38 120q0 31 8 66q25 119 113 190.5t210 71.5q97 0 155 -49q62 -52 62 -146q0 -32 -7 -67q-25 -115 -112 -187zM445 443q-21 7 -76 7 q-93 0 -158.5 -54.5t-84.5 -146.5q-6 -27 -6 -51q0 -72 45 -110t119 -38q91 0 157.5 54.5t85.5 144.5q6 29 6 54q0 55 -28 92.5t-60 47.5z" />
<glyph unicode="&#xf5;" horiz-adv-x="545" d="M450 514q-23 0 -74 28q-44 24 -50 24q-20 0 -32 -27q-4 -8 -13 -43l-52 38q9 47 42 69.5t69 22.5q20 0 72 -28q43 -23 51 -23q25 0 49 66l50 -33q-16 -46 -46.5 -70t-65.5 -24zM480 61q-60 -50 -107 -63q-32 -9 -103 -9q-123 0 -179 73q-39 50 -39 121q0 30 8 65 q25 118 113 189.5t209 71.5q123 0 179 -73q39 -51 39 -122q0 -31 -7 -66q-25 -115 -113 -187zM445 441q-21 7 -77 7q-93 0 -158 -54t-84 -146q-6 -27 -6 -51q0 -72 45 -109.5t119 -37.5q91 0 157.5 54t85.5 144q6 29 6 54q0 54 -28.5 91.5t-59.5 47.5z" />
<glyph unicode="&#xf6;" horiz-adv-x="545" d="M439 509q-27 0 -27 22q0 5 1 11l11 51q7 31 40 31q27 0 27 -22q0 -4 -1 -9l-11 -51q-7 -33 -40 -33zM323 509q-26 0 -26 22q0 5 1 11l11 51q7 31 39 31q28 0 28 -22q0 -4 -1 -9l-11 -51q-7 -33 -41 -33zM480 61q-60 -50 -107 -63q-32 -9 -103 -9q-98 0 -156 48 q-62 51 -62 145q0 31 8 66q25 118 113 189t209 71q97 0 156 -48q62 -52 62 -146q0 -31 -7 -66q-25 -115 -113 -187zM445 441q-21 7 -77 7q-93 0 -158 -54t-84 -146q-6 -27 -6 -51q0 -72 45 -109.5t119 -37.5q91 0 157.5 54t85.5 144q6 29 6 54q0 54 -28.5 91.5t-59.5 47.5z " />
<glyph unicode="&#xf7;" horiz-adv-x="592" d="M356 282q-27 0 -27 21q0 4 1 9l12 57q7 29 39 29q34 0 27 -29l-12 -57q-6 -30 -40 -30zM73 211l12 58h522l-12 -58h-522zM312 74q-27 0 -27 21q0 4 1 9l12 57q7 30 39 30q28 0 28 -21q0 -4 -1 -9l-12 -57q-6 -30 -40 -30z" />
<glyph unicode="&#xf8;" horiz-adv-x="545" d="M480 58q-61 -50 -108 -63q-31 -9 -103 -9q-52 0 -92 14l-34 -47h-71l54 73q-75 53 -75 153q1 31 8 66q25 117 113.5 188t208.5 71q47 0 86 -12l41 57h71l-60 -82q81 -54 81 -156q0 -31 -8 -66q-24 -115 -112 -187zM477 411l-260 -355q29 -9 66 -9q92 0 158 54t85 144 q6 26 5 50q-1 76 -54 116zM367 443q-92 0 -157.5 -53.5t-84.5 -144.5q-6 -28 -6 -52q0 -68 47 -110l259 354q-26 6 -58 6z" />
<glyph unicode="&#xf9;" d="M444 496q-24 -13 -43 5l-88 116q-8 10 -5 22q2 11 14.5 20.5t23.5 9.5q14 0 24 -12l89 -115q8 -10 6 -22q-4 -15 -21 -24zM422 -1l11 54q-76 -64 -185 -64q-78 0 -125 31q-55 36 -55 109q0 22 6 48l68 322h66l-68 -321q-4 -20 -4 -37q0 -91 125 -91q84 0 138 48t72 132 l57 269h66l-106 -500h-66z" />
<glyph unicode="&#xfa;" d="M338 505q-13 -11 -27 -11q-13 0 -21.5 9.5t-5.5 21.5q2 11 14 21l137 115q15 12 28 12t22 -9t6 -22q-2 -11 -15 -22zM422 -1l11 54q-76 -64 -185 -64q-78 0 -125 31q-55 36 -55 109q0 22 6 48l68 323h66l-68 -322q-4 -20 -4 -37q0 -91 125 -91q84 0 138 48t72 132l57 270 h66l-106 -501h-66z" />
<glyph unicode="&#xfb;" d="M443 505l-55 94l-95 -94h-77l167 169h43l97 -169h-80zM422 -1l11 54q-76 -64 -185 -64q-78 0 -125 31q-55 36 -55 109q0 22 6 48l68 323h66l-68 -322q-4 -20 -4 -37q0 -91 125 -91q84 0 138 48t72 132l57 270h66l-106 -501h-66z" />
<glyph unicode="&#xfc;" d="M428 509q-26 0 -26 22q0 5 1 11l11 51q7 31 39 31q28 0 28 -22q0 -4 -1 -9l-11 -51q-7 -33 -41 -33zM313 509q-27 0 -27 22q0 5 1 11l11 51q7 31 40 31q27 0 27 -22q0 -4 -1 -9l-11 -51q-7 -33 -40 -33zM422 -1l11 54q-76 -64 -185 -64q-77 0 -124 31q-56 36 -56 108 q0 23 5 48l69 321h66l-68 -320q-5 -20 -5 -36q0 -91 126 -91q172 0 210 179l57 268h66l-106 -498h-66z" />
<glyph unicode="&#xfd;" horiz-adv-x="506" d="M469 623l-142 -119q-14 -9 -26 -9t-21 9t-6 21q2 12 14 22l139 116q13 11 26 11q11 0 22 -6q9 -12 7 -24q-2 -9 -13 -21zM203 -179q-192 0 -192 146q0 20 3 44h66q-1 -14 -1 -27q0 -59 41 -83q32 -19 98 -19q179 0 210 148l4 16q-77 -66 -186 -66q-78 0 -125 32 q-54 37 -54 109q0 23 5 50l70 326h66l-69 -325q-5 -21 -5 -38q1 -92 125 -92q172 0 211 182l58 273h66l-100 -468q-44 -208 -291 -208z" />
<glyph unicode="&#xfe;" horiz-adv-x="564" d="M289 -19q-122 0 -174 80l-49 -229h-66l180 846h66l-53 -249q86 80 207 80q96 0 151 -47q59 -50 59 -143q0 -34 -9 -73q-25 -120 -107 -191q-84 -74 -205 -74zM393 448q-90 0 -154.5 -55.5t-83.5 -144.5q-9 -40 -8 -72q2 -134 159 -134q90 0 152 59q59 55 78 145 q7 30 7 57q0 69 -40 107t-110 38z" />
<glyph unicode="&#xff;" horiz-adv-x="510" d="M421 508q-26 0 -26 22q0 5 1 11l11 52q7 31 39 31t26 -30l-10 -53q-6 -33 -41 -33zM306 508q-27 0 -27 22q0 5 1 11l11 52q7 31 40 31q31 0 25 -30l-10 -53q-6 -33 -40 -33zM203 -179q-193 0 -193 145q0 20 4 44h66q-2 -14 -2 -27q0 -59 42 -83q32 -18 98 -18 q179 0 210 147l4 16q-77 -65 -186 -65q-78 0 -125 31q-54 36 -54 110q0 23 5 49l69 325h66l-69 -324q-4 -21 -4 -38q0 -92 125 -92q84 0 140 50q52 48 70 132l58 272h66l-99 -467q-44 -207 -291 -207z" />
<glyph unicode="&#x152;" horiz-adv-x="1010" d="M472 0q-44 -8 -91 -8q-169 0 -248 93q-55 65 -55 162q0 42 10 90q34 163 153 254.5t287 91.5q34 0 66 -5h539l-13 -61h-377q89 -71 89 -192q0 -21 -3 -42h210l-12 -60h-208q-43 -172 -188 -263h377l-13 -60h-523zM641 601l-47 -218h169q2 14 2 28q0 141 -124 190z M582 323l-53 -249q55 20 102 57q92 73 122 192h-171zM579 617q-30 5 -64 5q-140 0 -235 -74q-98 -75 -126 -211q-9 -41 -9 -77q0 -105 73 -160q65 -48 176 -48q34 0 66 5z" />
<glyph unicode="&#x153;" horiz-adv-x="1052" d="M613 219q-3 -19 -3 -36q0 -134 159 -134q140 0 210 115h69q-96 -175 -293 -175q-169 0 -203 121q-97 -121 -258 -121q-97 0 -155 47q-63 50 -63 144q0 30 7 64q25 117 113 186.5t208 69.5q168 0 208 -127q99 127 255 127q94 0 152 -42q65 -48 65 -137q0 -28 -7 -60 l-8 -41zM855 440q-79 0 -140.5 -43.5t-88.5 -117.5h383q2 13 2 26q0 66 -45 102q-42 33 -111 33zM467 433q-21 7 -76 7q-93 0 -158 -53t-84 -143q-6 -27 -6 -50q0 -71 47 -109q44 -36 117 -36q92 0 158 53t85 142q6 28 6 52q0 54 -28.5 90.5t-60.5 46.5z" />
<glyph unicode="&#x178;" horiz-adv-x="663" d="M542 698q-26 0 -26 22q0 5 1 11l11 52q7 31 39 31t27 -30l-11 -53q-6 -33 -41 -33zM427 698q-27 0 -27 22q0 5 1 11l11 52q7 31 40 31q31 0 26 -30l-11 -53q-6 -33 -40 -33zM436 329l-70 -329h-66l70 329l-256 356h87l213 -297l342 297h85z" />
<glyph unicode="&#x2c6;" horiz-adv-x="259" d="M318 540l-60 73l-90 -73h-79l160 134h43l109 -134h-83z" />
<glyph unicode="&#x2dc;" horiz-adv-x="366" d="M367 550q-21 0 -85 21q-36 12 -43 12q-19 0 -28 -15q-5 -7 -12 -30l-54 25q6 31 40 49q30 16 64 16q23 0 75 -18q46 -16 52 -16q20 0 29 14q6 9 12 30l58 -22q-15 -35 -44.5 -50.5t-63.5 -15.5z" />
<glyph unicode="&#x2000;" horiz-adv-x="436" />
<glyph unicode="&#x2001;" horiz-adv-x="873" />
<glyph unicode="&#x2002;" horiz-adv-x="436" />
<glyph unicode="&#x2003;" horiz-adv-x="873" />
<glyph unicode="&#x2004;" horiz-adv-x="291" />
<glyph unicode="&#x2005;" horiz-adv-x="218" />
<glyph unicode="&#x2006;" horiz-adv-x="145" />
<glyph unicode="&#x2007;" horiz-adv-x="145" />
<glyph unicode="&#x2008;" horiz-adv-x="109" />
<glyph unicode="&#x2009;" horiz-adv-x="174" />
<glyph unicode="&#x200a;" horiz-adv-x="48" />
<glyph unicode="&#x2010;" horiz-adv-x="350" d="M83 254l4 20h302l-4 -20h-302z" />
<glyph unicode="&#x2011;" horiz-adv-x="350" d="M83 254l4 20h302l-4 -20h-302z" />
<glyph unicode="&#x2012;" horiz-adv-x="350" d="M83 254l4 20h302l-4 -20h-302z" />
<glyph unicode="&#x2013;" horiz-adv-x="495" d="M31 254l4 20h539l-4 -20h-539z" />
<glyph unicode="&#x2014;" horiz-adv-x="894" d="M31 254l4 20h938l-4 -20h-938z" />
<glyph unicode="&#x2018;" horiz-adv-x="175" d="M212 521q-12 -20 -37 -20q-33 0 -27 26q1 4 3 9l68 121q11 20 36 20q34 0 28 -26q0 -4 -3 -9z" />
<glyph unicode="&#x2019;" horiz-adv-x="175" d="M213 521q-11 -20 -38 -20q-33 0 -27 25q1 5 3 10l69 121q11 20 35 20q34 0 28 -26q0 -4 -3 -9z" />
<glyph unicode="&#x201a;" horiz-adv-x="292" d="M125 -70q-11 -20 -38 -20q-32 0 -27 25q1 4 4 10l68 121q11 20 35 20q34 0 29 -26q-1 -4 -3 -9z" />
<glyph unicode="&#x201c;" horiz-adv-x="267" d="M317 521q-12 -20 -37 -20q-33 0 -27 26q1 4 3 9l68 121q11 20 36 20q34 0 28 -26q0 -4 -3 -9zM212 521q-12 -20 -37 -20q-33 0 -27 26q1 4 3 9l68 121q11 20 36 20q34 0 28 -26q0 -4 -3 -9z" />
<glyph unicode="&#x201d;" horiz-adv-x="276" d="M318 521q-11 -20 -38 -20q-33 0 -27 25q1 5 3 10l69 121q11 20 35 20q34 0 28 -26q0 -4 -3 -9zM213 521q-11 -20 -38 -20q-33 0 -27 25q1 5 3 10l69 121q11 20 35 20q34 0 28 -26q0 -4 -3 -9z" />
<glyph unicode="&#x201e;" horiz-adv-x="351" d="M230 -70q-11 -20 -38 -20q-32 0 -27 25q1 4 4 10l68 121q11 20 35 20q34 0 29 -26q-1 -4 -3 -9zM125 -70q-11 -20 -38 -20q-32 0 -27 25q1 4 4 10l68 121q11 20 35 20q34 0 29 -26q-1 -4 -3 -9z" />
<glyph unicode="&#x2022;" horiz-adv-x="292" d="M174 250q-20 0 -47 6q-38 8 -35 21l20 96q3 13 43 21q29 6 51 6q20 0 47 -6q39 -8 36 -21l-20 -96q-3 -13 -43 -21q-30 -6 -52 -6z" />
<glyph unicode="&#x2026;" horiz-adv-x="638" d="M524 -2q-33 0 -29 23l9 41q5 23 38 23t28 -23l-9 -41q-4 -23 -37 -23zM335 -2q-33 0 -29 23l9 41q5 23 38 23t28 -23l-9 -41q-4 -23 -37 -23zM146 -2q-33 0 -29 23l9 41q5 23 38 23t28 -23l-9 -41q-4 -23 -37 -23z" />
<glyph unicode="&#x202f;" horiz-adv-x="174" />
<glyph unicode="&#x2039;" horiz-adv-x="294" d="M103 255l8 37l219 119l-14 -67l-127 -70l97 -71l-13 -64z" />
<glyph unicode="&#x203a;" horiz-adv-x="294" d="M79 139l13 64l126 71l-96 70l14 67l169 -119l-8 -37z" />
<glyph unicode="&#x205f;" horiz-adv-x="218" />
<glyph unicode="&#x2122;" horiz-adv-x="789" d="M763 347l44 210l-165 -210h-50l-82 215q-14 -70 -44 -215h-70l59 277h-73l-59 -277h-70l59 277h-148l12 60h364l95 -247l197 247h73l-71 -337h-71z" />
<glyph unicode="&#xe000;" horiz-adv-x="490" d="M0 490h490v-490h-490v490z" />
</font>
</defs>
</svg>
